<svg version="1" xmlns="http://www.w3.org/2000/svg" viewBox="0 0 50 50"><path fill="#4ECDC4" d="M38.702 29.185a6.399 6.399 0 1 0-6.975 6.37l5.117-1.863a6.375 6.375 0 0 0 1.858-4.507z"/><path fill="#4ECDC4" d="M3.7 37.492c.614 0 1.23-.206 1.738-.627l10.16-8.417a16.634 16.634 0 0 0 3.96 11.535l5.647-2.055a11.249 11.249 0 0 1-4.172-8.743c0-6.214 5.056-11.27 11.27-11.27 6.214 0 11.27 5.056 11.27 11.27 0 .73-.076 1.442-.21 2.134l5.546-2.02.116-.115c0-5.995-3.17-11.26-7.924-14.214L27.854 4.668a2.726 2.726 0 0 0-3.348 4.303l4.792 3.728H7.02a2.726 2.726 0 0 0 0 5.452h12.466L1.96 32.666a2.727 2.727 0 0 0 1.74 4.826z"/><path fill="#46B8B0" d="M7.02 18.15h12.412l17.544-6.386-9.122-7.097a2.726 2.726 0 0 0-3.348 4.303l4.792 3.728H7.02a2.726 2.726 0 0 0 0 5.451z"/><g fill="#444"><path d="M32.303 46.882c-9.317 0-16.975-7.237-17.65-16.384l-8.592 7.12a3.705 3.705 0 0 1-5.21-.49 3.705 3.705 0 0 1 .488-5.212l15.44-12.79H7.02c-2.04 0-3.7-1.66-3.7-3.702s1.66-3.7 3.7-3.7h19.436L23.908 9.74a3.707 3.707 0 0 1-.65-5.194 3.707 3.707 0 0 1 5.195-.648L41.66 14.17C46.883 17.437 50 23.046 50 29.187a.975.975 0 1 1-1.952 0c0-5.48-2.79-10.482-7.463-13.385l-.084-.058L27.256 5.437a1.752 1.752 0 0 0-2.456.306 1.751 1.751 0 0 0 .306 2.456l7.036 5.472H7.02c-.965 0-1.75.785-1.75 1.75s.785 1.75 1.75 1.75h15.173L2.583 33.418a1.75 1.75 0 0 0-.23 2.464c.595.72 1.742.83 2.464.232l11.853-9.82-.096 2.197c-.01.23-.016.463-.016.696 0 8.68 7.063 15.745 15.746 15.745a.976.976 0 1 1-.001 1.952zm0-5.452c-6.752 0-12.245-5.493-12.245-12.244 0-6.752 5.493-12.246 12.245-12.246s12.245 5.493 12.245 12.246c0 2.796-.97 5.532-2.733 7.704a.974.974 0 1 1-1.515-1.229 10.304 10.304 0 0 0 2.297-6.474c0-5.676-4.618-10.295-10.294-10.295S22.01 23.51 22.01 29.187c0 5.676 4.617 10.293 10.293 10.293a.975.975 0 1 1-.001 1.95z"/><path d="M32.303 36.364c-3.96 0-7.18-3.22-7.18-7.18s3.22-7.178 7.18-7.178 7.18 3.22 7.18 7.18-3.22 7.178-7.18 7.178zm0-12.797a5.624 5.624 0 0 0-5.618 5.618c0 3.097 2.52 5.618 5.618 5.618s5.618-2.52 5.618-5.618a5.625 5.625 0 0 0-5.617-5.618z"/></g></svg>