<svg version="1" xmlns="http://www.w3.org/2000/svg" viewBox="0 0 50 50"><path fill="#46B8B0" d="M9.8 41.153l37.233-13.552c.101-.854.158-1.721.158-2.602 0-12.256-9.936-22.191-22.191-22.191C12.744 2.808 2.808 12.744 2.808 25c0 6.371 2.692 12.107 6.992 16.153z"/><path fill="#4ECDC4" d="M36.665 6.124a22.081 22.081 0 0 0-11.667-3.315c-9.824 0-18.151 6.386-21.072 15.231L36.665 6.124z"/><path fill="#444" d="M25 1.559C12.074 1.559 1.559 12.074 1.559 25S12.074 48.441 25 48.441c2.252 0 4.478-.318 6.615-.947a1.25 1.25 0 1 0-.705-2.399 20.902 20.902 0 0 1-5.91.846c-9.973 0-18.325-7.013-20.421-16.362.436.168.905.27 1.4.27a3.924 3.924 0 0 0 3.92-3.92v-6.375c0-1.334 1.085-2.42 2.42-2.42s2.42 1.085 2.42 2.42V33.06c0 2.162 1.758 3.921 3.92 3.921s3.92-1.759 3.92-3.921V12.595c0-1.334 1.086-2.42 2.42-2.42s2.42 1.086 2.42 2.42V28.67c0 2.161 1.759 3.92 3.92 3.92s3.92-1.759 3.92-3.92V16.939c0-1.334 1.086-2.42 2.42-2.42s2.42 1.086 2.42 2.42v8.991a3.925 3.925 0 0 0 3.92 3.92c1.365 0 4.338-1.672 4.338-2.873 0-.655.083-1.318.083-1.977C48.441 12.074 37.926 1.559 25 1.559zM44.021 28.35a2.423 2.423 0 0 1-2.42-2.42v-8.991c0-2.162-1.758-3.92-3.92-3.92s-3.92 1.759-3.92 3.92V28.67c0 1.334-1.085 2.42-2.42 2.42s-2.42-1.086-2.42-2.42V12.595c0-2.162-1.758-3.92-3.92-3.92s-3.92 1.759-3.92 3.92v20.466c0 1.335-1.086 2.421-2.42 2.421s-2.42-1.086-2.42-2.421V19.555c0-2.162-1.759-3.92-3.92-3.92s-3.92 1.758-3.92 3.92v6.375a2.423 2.423 0 0 1-2.42 2.42c-.684 0-1.3-.288-1.74-.746-.107-.855-.18-1.72-.18-2.604C4.059 13.453 13.453 4.059 25 4.059S45.941 13.453 45.941 25c0 .589-.074 1.182-.074 1.768.001 1.076-1.042 1.582-1.846 1.582z"/></svg>