<svg version="1" xmlns="http://www.w3.org/2000/svg" viewBox="0 0 50 50"><path fill="#AFE55D" d="M43.252 23.586V7.657a5.233 5.233 0 0 0-5.233-5.233H11.982a5.233 5.233 0 0 0-5.233 5.233v29.216l36.503-13.287z"/><path fill="#C3FF68" d="M34.152 2.424h-22.17a5.233 5.233 0 0 0-5.233 5.233v4.741l27.403-9.974z"/><path fill="#444" d="M8.322 48.69c-.417 0-.835-.097-1.222-.296a2.673 2.673 0 0 1-1.464-2.392V7.657c0-3.5 2.848-6.347 6.347-6.347h26.036a6.355 6.355 0 0 1 6.347 6.347v20.877a1.114 1.114 0 0 1-2.228 0V7.657a4.124 4.124 0 0 0-4.12-4.12H11.982a4.124 4.124 0 0 0-4.12 4.12v38.345c0 .244.157.36.25.408s.278.107.477-.037l11.827-8.562h16.205a1.114 1.114 0 0 1 0 2.228H21.138L9.895 48.178a2.674 2.674 0 0 1-1.573.512z"/><path fill="#444" d="M32.746 16.766H17.254a.668.668 0 1 1 0-1.336h15.493a.668.668 0 1 1-.001 1.336zm0 5.233H17.254a.668.668 0 1 1 0-1.336h15.493a.668.668 0 1 1-.001 1.336zm0 5.233H17.254a.668.668 0 1 1 0-1.336h15.493a.668.668 0 1 1-.001 1.336z"/></svg>