<?xml version="1.0" encoding="utf-8"?>
<!-- Generator: Adobe Illustrator 21.0.0, SVG Export Plug-In . SVG Version: 6.00 Build 0)  -->
<svg version="1.0" id="Layer_1" xmlns="http://www.w3.org/2000/svg" xmlns:xlink="http://www.w3.org/1999/xlink" x="0px" y="0px"
	 viewBox="0 0 50 50" enable-background="new 0 0 50 50" xml:space="preserve">
<path fill="#E56060" d="M45.146,22.688v2.47l0.776,0.182v7.756L18.449,43.103l-14.43-3.601V25.254l4.903-1.331l-4.903-1.197V8.573
	L24.98,3.402l7.411,1.848v0.01l10.361-2.557l2.394,0.699v5.085l0.776,0.182v13.827L45.146,22.688z"/>
<path fill="#FF6B6B" d="M45.519,8.573L5.589,23.109l-1.57-0.383V8.573L24.98,3.402l7.411,1.848v0.01l10.361-2.557l2.394,0.699v5.085
	L45.519,8.573z"/>
<path fill="#444444" d="M46.4,6.462V2.44l-5.736-1.515L30.295,3.484l-5.312-1.37L2.768,7.597V40.47l13.467,3.436v4.321l3.666,0.855
	l9.909-2.429c0.67-0.165,1.081-0.842,0.916-1.512s-0.842-1.081-1.512-0.916l0,0l-9.07,2.223V9.829l22.979-5.668L43.9,4.366v3.563
	l-0.646-0.155c-0.04-0.006-0.082-0.006-0.122,0l-9.735,2.48c-0.073,0.013-0.141,0.048-0.194,0.1
	c-0.032,0.038-0.055,0.082-0.067,0.13c0,0.01-0.011,0.089-0.009,0.12l-0.674-0.165c-0.039-0.011-0.081-0.011-0.12,0l-9.977,2.462
	c-0.071,0.027-0.129,0.081-0.162,0.15c-0.041,0.084-0.028,0.204-0.028,0.227v14.033c0,0.071,0.02,0.141,0.058,0.201
	c0.038,0.041,0.082,0.074,0.131,0.1l1.983,0.526c0.04,0.011,0.082,0.012,0.122,0.002l10.218-2.425
	c0.024-0.006,0.035-0.028,0.056-0.04c0.029-0.016,0.054-0.028,0.075-0.054c0.021-0.026,0.027-0.054,0.036-0.086
	c0.007-0.022,0.026-0.038,0.026-0.063v-0.263l0.446,0.109c0.039,0.01,0.081,0.01,0.12,0l8.464-2.072v1.364l-0.647-0.152
	c-0.039-0.006-0.08-0.006-0.119,0l-9.836,2.426c-0.02,0.005-0.208,0.063-0.233,0.181s-0.007,0.197-0.007,0.197l-0.517-0.127
	c-0.04-0.005-0.079-0.005-0.119,0l-10.064,2.449c-0.081,0.025-0.145,0.087-0.171,0.168c-0.037,0.108-0.02,0.229-0.02,0.229v14.084
	c0,0.023,0.019,0.039,0.025,0.06c0.009,0.032,0.015,0.059,0.035,0.085s0.044,0.039,0.073,0.056c0.019,0.011,0.029,0.034,0.052,0.04
	l1.987,0.538c0.04,0.011,0.083,0.012,0.124,0.002l10.218-2.457c0.062-0.019,0.116-0.058,0.153-0.111
	c0.038-0.064,0.039-0.187,0.039-0.187L35.32,42.2c0.021,0.005,0.04,0.007,0.06,0.007c0.068-0.002,0.132-0.032,0.177-0.082
	c0.04-0.048,0.065-0.106,0.073-0.168v-14.08l9.048-2.215v7.435c0,0.69,0.56,1.25,1.25,1.25s1.25-0.56,1.25-1.25V6.647
	C47.178,6.647,46.4,6.462,46.4,6.462z M35.377,10.749l-0.968-0.236l8.785-2.238l1.159,0.277
	C44.353,8.552,35.377,10.749,35.377,10.749z M32.393,10.939l1.161,0.284l-9.149,2.171l-0.963-0.246
	C23.442,13.148,32.393,10.939,32.393,10.939z M22.666,13.466l1.487,0.38v13.726l-1.487-0.395V13.466z M24.653,13.849l9.718-2.306
	v13.731l-9.718,2.306C24.653,27.58,24.653,13.849,24.653,13.849z M10.727,24.727l7.496,1.882v2.303L6.296,25.933
	C6.296,25.933,10.727,24.727,10.727,24.727z M18.223,26.093l-6.51-1.635L9.771,23.95l-4.503-1.179V9.606l12.955,3.233V26.093z
	 M5.268,38.529V26.213l0.041-0.011l12.914,3.223v12.408L5.268,38.529z M18.223,8.5v3.823l-12.021-3L24.97,4.692l4.247,1.095
	L18.223,8.5z M19.644,9.437v37.018l-0.909-0.213v-4.278l-0.013-0.003V8.892l11.515-2.841l0.044,0.011l10.361-2.557l1.472,0.389
	L19.644,9.437z M34.859,11.199c-0.001-0.01,0.007-0.019,0.005-0.03c-0.003-0.014-0.018-0.02-0.024-0.034v-0.003l0.287,0.07v13.554
	l-0.256-0.063V11.227C34.871,11.216,34.861,11.21,34.859,11.199z M35.627,24.757V11.202l9.048-2.215v13.54l-0.775,0.19v0.014
	L35.627,24.757z M44.33,25.231l-8.953,2.191l-1.091-0.267l8.908-2.198l0.707,0.166v0.007C43.901,25.13,44.33,25.231,44.33,25.231z
	 M32.48,27.635l1.079,0.264L24.405,30.1l-0.979-0.262C23.426,29.838,32.48,27.635,32.48,27.635z M22.666,30.152l1.487,0.398v13.727
	l-1.487-0.403V30.152z M24.653,30.555l9.718-2.337v13.731l-9.718,2.337C24.653,44.286,24.653,30.555,24.653,30.555z M34.864,27.842
	c-0.009-0.032-0.018-0.02-0.023-0.032v-0.003l0.287,0.07v13.761l-0.256-0.062V27.897C34.871,27.886,34.873,27.874,34.864,27.842z"/>
</svg>
