<svg version="1" xmlns="http://www.w3.org/2000/svg" viewBox="0 0 50 50"><path fill="#46B8B0" d="M11.486 47.478h5.787l25.662-9.34V16.039a4.436 4.436 0 0 0-4.431-4.431h-1.335V5.55a3.028 3.028 0 0 0-3.028-3.028H15.857A3.028 3.028 0 0 0 12.83 5.55v6.059h-1.343a4.428 4.428 0 0 0-4.42 4.431v27.018a4.416 4.416 0 0 0 4.419 4.42z"/><path fill="#4ECDC4" d="M35.502 2.859a3.001 3.001 0 0 0-1.361-.337H15.856a3.028 3.028 0 0 0-3.028 3.028v5.562l22.674-8.253z"/><path fill="#444" d="M38.504 10.358h-.084V5.549a4.283 4.283 0 0 0-4.278-4.278H15.857a4.283 4.283 0 0 0-4.278 4.278l-.001 4.809h-.092c-3.127 0-5.671 2.548-5.671 5.681v27.018a5.677 5.677 0 0 0 5.671 5.671H34.45c1.081 0 1.142-.869 1.142-1.752v-6.473c.002-.023.014-.044.014-.068a.75.75 0 0 0-.75-.75H25.75v-4.998c.477-.1.939-.287 1.353-.579l8.742-6.179a3.653 3.653 0 0 0 1.541-2.977v-5.551h4.299v18.738a1.25 1.25 0 0 0 2.5 0V16.04a5.688 5.688 0 0 0-5.681-5.682zm-27.018 2.5h1.127v5.045H8.315V16.04a3.18 3.18 0 0 1 3.171-3.182zm-3.171 30.2v-1.871h6.092v5.042h-2.921a3.175 3.175 0 0 1-3.171-3.171zm15.935-1.871v5.042h-8.843v-5.042h8.843zm10.342 0v5.042H25.75v-5.042h8.842zm-26.277-1.5V19.403h4.298v5.551c0 1.182.576 2.294 1.541 2.977l8.742 6.179c.414.293.877.479 1.354.579v4.998H8.315zM35.92 24.784c0 .695-.373 1.52-.941 1.922l-8.741 6.179a2.157 2.157 0 0 1-2.476 0l-8.741-6.179a2.304 2.304 0 0 1-.941-1.818V5.549c0-.98.797-1.778 1.778-1.778h18.285c.98 0 1.778.797 1.778 1.778v19.235zm1.466-6.881v-5.045h1.118a3.185 3.185 0 0 1 3.181 3.181v1.864h-4.299z"/></svg>