<svg version="1" xmlns="http://www.w3.org/2000/svg" viewBox="0 0 50 50"><path fill="#FCC34F" d="M16.074 34.334c.05.031.08.085.08.143v5.243l20.457-7.446a16.891 16.891 0 0 0 5.367-12.382c0-10.011-8.663-17.997-18.902-16.872-8.491.934-14.816 7.862-15.048 16.402-.171 6.307 3.078 11.845 8.046 14.912z"/><path fill="#FDCF72" d="M33.845 5.179c-3.006-1.734-6.591-2.576-10.395-2.158-6.623.728-11.912 5.109-14.036 11.049l24.431-8.891z"/><g fill="#444"><path d="M36.986 6.509c-3.853-3.453-8.831-5.04-14.017-4.471-8.983.988-15.682 8.288-15.928 17.357-.169 6.231 2.934 12.14 8.126 15.532v10.886c0 .824.428 1.558 1.145 1.965a2.233 2.233 0 0 0 2.274-.029L25 43.9l6.414 3.849c.362.217.761.326 1.161.326.381 0 .763-.1 1.113-.297a2.233 2.233 0 0 0 1.145-1.965V39.72a.988.988 0 1 0-1.976 0v6.093a.269.269 0 0 1-.143.245.269.269 0 0 1-.284-.004L25 41.596l-7.43 4.458a.273.273 0 0 1-.284.004.27.27 0 0 1-.143-.245V35.027a17.458 17.458 0 0 0 7.858 1.853c1.019 0 2.041-.088 3.035-.261a.592.592 0 1 0-.203-1.168c-.928.162-1.882.244-2.833.244a16.262 16.262 0 0 1-9.602-3.107.573.573 0 0 0-.242-.099c-4.009-3.109-6.281-7.862-6.14-13.039.219-8.072 6.178-14.568 14.169-15.446 4.622-.51 9.054.905 12.483 3.978a16.014 16.014 0 0 1 5.323 11.912c0 4.475-1.794 8.617-5.05 11.665a.988.988 0 1 0 1.35 1.443c3.66-3.426 5.676-8.081 5.676-13.108a18.006 18.006 0 0 0-5.981-13.385z"/><path d="M13.621 25.684a.847.847 0 0 0 .876.283l.81-.218c2.152 3.517 5.93 5.481 9.809 5.481 1.944 0 3.916-.494 5.718-1.533a11.279 11.279 0 0 0 3.014-2.544l1.211-.069a.846.846 0 0 0 .549-1.444l-.43-.431a11.497 11.497 0 0 0-.146-11.193 11.412 11.412 0 0 0-7.734-5.498l-.738-1.124a.848.848 0 0 0-1.525.247l-.174.645a11.466 11.466 0 0 0-5.502 1.533c-4.729 2.729-6.857 8.398-5.139 13.564l-.698 1.386a.848.848 0 0 0 .099.915zm18.525 1.567a10.11 10.11 0 0 1-1.904 1.419c-4.917 2.835-11.225 1.143-14.056-3.761l-.301-.542-.965.259 2.15-4.267.198.13 3.795 2.491-.996.268.706.723a6.032 6.032 0 0 0 7.586.856l-.097 1.701a.843.843 0 0 0 .247.646c.004.004.01.005.014.009a.83.83 0 0 0 .277.177c.022.008.046.007.069.014.078.023.156.047.239.047l.047-.001.101-.006 2.89-.163zm-9.473-11.694c.098-.057.198-.111.299-.161a.847.847 0 0 0 1.225.821l2.217-1.117a4.784 4.784 0 0 1 2.874 2.236c.473.816.692 1.729.647 2.648a.849.849 0 0 0-1.336.642l-.149 2.614a4.774 4.774 0 0 1-.933.712 4.857 4.857 0 0 1-5.124-.167.847.847 0 0 0-.046-1.383l-1.877-1.231a4.849 4.849 0 0 1 2.203-5.614zm7.132-3.224l-1.55-2.36a10.24 10.24 0 0 1 5.752 4.637 10.31 10.31 0 0 1-.018 10.298l-.277.51.525.525-3.111.177-1.659.094.002-.034.245-4.241-.003.003.028-.496.894.894.271-.98a5.97 5.97 0 0 0-.59-4.619 6.045 6.045 0 0 0-2.481-2.358l1.643-.828.001-.001.001-.001a.845.845 0 0 0 .327-1.22l-.001-.001.001.001zm-9.853-1.488a10.25 10.25 0 0 1 5.096-1.378l.71.049.226-.841 2.623 3.993-4.267 2.15.31-1.156-.965.227a5.837 5.837 0 0 0-1.607.642 6.05 6.05 0 0 0-2.997 5.728l-1.462-.959-.219-.143a.841.841 0 0 0-.324-.125l-.003-.001a.847.847 0 0 0-.891.453l-1.169 2.32a10.29 10.29 0 0 1 4.939-10.959z"/></g></svg>