<svg xmlns="http://www.w3.org/2000/svg" version="1" viewBox="0 0 50 50"><path fill="#AFE55D" d="M47.371 27.286L9.331 41.135c-.081-.071-.162-.152-.233-.223-8.791-8.79-8.791-23.035 0-31.826 8.78-8.78 23.025-8.78 31.816 0a22.453 22.453 0 0 1 6.457 18.2z"/><path fill="#C3FF68" d="M40.903 9.076L2.598 23.017A22.427 22.427 0 0 1 9.097 9.086c8.78-8.78 23.015-8.78 31.806-.01z"/><path fill="#444" d="M41.795 8.207C37.31 3.721 31.346 1.251 25.002 1.251S12.694 3.721 8.208 8.207c-9.26 9.26-9.26 24.327 0 33.587 4.591 4.592 10.632 6.989 16.766 6.989 3.787 0 7.609-.914 11.148-2.79a1.251 1.251 0 0 0-1.171-2.209c-8.293 4.398-18.33 2.887-24.974-3.758-8.285-8.285-8.285-21.767 0-30.052A21.114 21.114 0 0 1 25.003 3.75c3.609 0 7.078.901 10.16 2.584a5.907 5.907 0 0 1-1.709 4.783c-1.508 1.508-3.723 2.096-5.827 1.529l-.109-.008c-4.184-.894-8.352.36-11.433 3.442-4.918 4.918-4.918 12.919 0 17.837 2.382 2.383 5.549 3.694 8.918 3.694s6.537-1.312 8.919-3.694c3.046-3.046 4.324-7.352 3.424-11.524l.005-.077-.01-.04a5.987 5.987 0 0 1 1.553-5.72 5.91 5.91 0 0 1 4.78-1.709 21.197 21.197 0 0 1 2.47 12.312c-.07.687.43 1.3 1.117 1.369.671.071 1.3-.429 1.369-1.117a23.671 23.671 0 0 0-6.835-19.204zm-8.228 25.358c-2.288 2.288-5.33 3.548-8.565 3.548s-6.277-1.26-8.565-3.548c-4.723-4.723-4.723-12.408 0-17.13.424-.424.875-.802 1.34-1.154a12.56 12.56 0 0 0 2.348 14.599 12.565 12.565 0 0 0 8.905 3.708 12.54 12.54 0 0 0 5.692-1.374c-.353.471-.73.927-1.155 1.351zm4.972-17.36a6.487 6.487 0 0 0-1.693 6.16l-.005.067.008.035c.67 3.066.106 6.204-1.498 8.825-4.784 2.939-10.892 2.216-14.873-1.765-3.991-3.992-4.709-10.128-1.783-14.88 2.594-1.616 5.655-2.173 8.747-1.513l.097.004a6.478 6.478 0 0 0 6.268-1.666 6.416 6.416 0 0 0 1.888-4.817 21.33 21.33 0 0 1 4.333 3.32 21.308 21.308 0 0 1 3.341 4.342 6.416 6.416 0 0 0-4.83 1.888z"/></svg>