<svg version="1" xmlns="http://www.w3.org/2000/svg" viewBox="0 0 50 50"><path fill="#E56060" d="M1.883 30.846c.34 3.088 2.083 5.79 4.561 7.461l41.73-15.188a10.401 10.401 0 0 0-5.395-9.121v-2.586c0-.821-.666-1.487-1.487-1.487H32.13c-.821 0-1.487.666-1.487 1.487v2.211H19.358v-2.211c0-.821-.666-1.487-1.487-1.487H8.71c-.822 0-1.487.666-1.487 1.487v2.586a10.402 10.402 0 0 0-5.396 9.162l.001 6.308c-.01.452.004.912.055 1.378z"/><path fill="#FF6B6B" d="M42.32 10.34a1.48 1.48 0 0 0-1.029-.417H32.13c-.821 0-1.487.666-1.487 1.487v2.211H19.358V11.41c0-.821-.666-1.487-1.487-1.487H8.71c-.822 0-1.487.666-1.487 1.487v2.586a10.402 10.402 0 0 0-5.396 9.162v1.919L42.32 10.34z"/><g fill="#444"><path d="M44.103 13.245v-1.834a2.816 2.816 0 0 0-2.812-2.812H32.13a2.816 2.816 0 0 0-2.812 2.812v.886h-8.635v-.886a2.816 2.816 0 0 0-2.812-2.812H8.71a2.816 2.816 0 0 0-2.812 2.812v1.834a11.734 11.734 0 0 0-5.396 9.914l.001 6.282c-.011.553.01 1.06.064 1.549.594 5.401 4.946 9.749 10.348 10.34.437.047.871.07 1.303.07 4.016 0 7.745-2.03 9.909-5.425h5.748c2.397 3.76 6.713 5.842 11.212 5.354a1.325 1.325 0 0 0-.287-2.634 9.098 9.098 0 0 1-9.007-4.68l-.377-.689h-8.828l-.377.689c-1.775 3.247-5.311 5.078-9.008 4.68-4.177-.457-7.543-3.82-8.002-7.997a9.515 9.515 0 0 1-.048-1.235v-.261c1.754 2.607 4.595 4.435 7.852 4.791.407.045.813.067 1.215.067 3.888 0 7.486-2.039 9.464-5.425h6.642a10.937 10.937 0 0 0 10.678 5.358.527.527 0 1 0-.114-1.047c-4.018.435-7.863-1.56-9.793-5.091l-.15-.275h-7.883l-.15.275c-1.93 3.531-5.773 5.529-9.794 5.091-3.573-.391-6.593-2.74-7.968-5.933l-.002-3.858a9.087 9.087 0 0 1 4.71-7.997l.342-.188h33.597l.342.188a9.09 9.09 0 0 1 4.71 8.002l-.001 6.307a1.324 1.324 0 0 0 2.648 0l.001-6.303a11.733 11.733 0 0 0-5.396-9.919zM32.13 11.248h9.162c.09 0 .163.073.163.163v2.505h-9.488v-2.505c0-.09.073-.163.163-.163zm-23.42 0h9.161c.09 0 .163.073.163.163v2.505H8.546v-2.505c0-.09.073-.163.164-.163z"/><circle cx="34.365" cy="23.124" r="1.773"/><circle cx="41.183" cy="23.124" r="1.773"/><circle cx="37.774" cy="26.533" r="1.773"/><circle cx="37.774" cy="19.716" r="1.773"/><path d="M10.829 28.306h2.802a.373.373 0 0 0 .372-.372v-1.756a.37.37 0 0 0-.161-.306l-1.401-.967a.37.37 0 0 0-.422 0l-1.401.967a.37.37 0 0 0-.161.306v1.756c0 .206.166.372.372.372zm1.19-6.963a.37.37 0 0 0 .422 0l1.401-.967a.37.37 0 0 0 .161-.306v-1.756a.373.373 0 0 0-.372-.372h-2.802a.373.373 0 0 0-.372.372v1.756c0 .122.06.237.161.306l1.401.967zm2.959 3.394a.37.37 0 0 0 .306.161h1.756a.372.372 0 0 0 .372-.372v-2.802a.373.373 0 0 0-.372-.372h-1.756a.37.37 0 0 0-.306.161l-.967 1.401a.37.37 0 0 0 0 .422l.967 1.401zm-5.496-3.225a.37.37 0 0 0-.306-.161H7.42a.373.373 0 0 0-.372.372v2.802c0 .205.167.372.372.372h1.756a.37.37 0 0 0 .306-.161l.967-1.401a.37.37 0 0 0 0-.422l-.967-1.401zm12.307.706a.373.373 0 0 0-.372.372v1.069c0 .205.166.372.372.372h2.138a.372.372 0 0 0 .372-.372V22.59a.373.373 0 0 0-.372-.372h-2.138zm4.333 0a.373.373 0 0 0-.372.372v1.069c0 .205.167.372.372.372h2.138a.372.372 0 0 0 .372-.372V22.59a.372.372 0 0 0-.372-.372h-2.138z"/></g></svg>