<svg version="1" xmlns="http://www.w3.org/2000/svg" viewBox="0 0 50 50"><path fill="#E56060" d="M7.025 47L47 32.45V6.931L43.07 3H6.931L3 6.931V43.07L6.931 47z"/><path fill="#FF6B6B" d="M31.41 3H6.931L3 6.931v6.409z"/><path fill="#444" d="M43.718 43.279H7.159V6.721h36.559v36.558zm-35.559-1h34.559V7.721H8.159v34.558z"/><path fill="#444" d="M43.069 48.25H6.414L1.75 43.587V6.414L6.414 1.75h37.173l4.663 4.664v26.04a1.25 1.25 0 0 1-2.5 0V7.449L42.552 4.25H7.449L4.25 7.449v35.103l3.199 3.198H43.07a1.25 1.25 0 1 1-.001 2.5z"/><path d="M27.669 36.76l-2.599-1.325-1.939 1.325zm-3.355-21.135l5.462 4.189-5.879-6.574zm6.198 8.93l.583-3.238-6.084-4.667zm.218.993l-1.138 6.324 3.754-2.565zm2.595 3.048l-.726-5.75-.68-2.598-.423 1.041-.669 3.718zm-7.889 6.589l2.899 1.477.709-3.943zm-4.192-1.699l-3.249-1.656 4.075 4.376zm1.883-16.011l-4.45 6.211.646 2.129zm11.482 11.742l-.902.316-4.212 2.878-.703 3.911 4.998-5.495zm-9.935 6.016l-2.948-1.502.884 2.913zm-7.378-12.455v7.482l1.782-3.908-.788-2.597zm1.954 4.137l-1.894 4.153 3.731 1.901z" fill="#444"/></svg>