<?xml version="1.0" encoding="utf-8"?>
<!-- Generator: Adobe Illustrator 21.0.0, SVG Export Plug-In . SVG Version: 6.00 Build 0)  -->
<svg version="1.0" id="Layer_1" xmlns="http://www.w3.org/2000/svg" xmlns:xlink="http://www.w3.org/1999/xlink" x="0px" y="0px"
	 viewBox="0 0 50 50" enable-background="new 0 0 50 50" xml:space="preserve">
<g>
	<g>
		<path fill="#FCC34F" d="M46.369,7.991v30.297l-22.14,8.058H8.005c-2.976,0-5.387-2.42-5.387-5.396V7.991
			c0-2.985,2.412-5.396,5.387-5.396h32.968C43.949,2.595,46.369,5.006,46.369,7.991z"/>
	</g>
	<g>
		<path fill="#FDCF72" d="M46.369,7.991v1.757L2.618,25.676V7.991c0-2.985,2.412-5.396,5.387-5.396h32.968
			C43.949,2.595,46.369,5.006,46.369,7.991z"/>
	</g>
	<g>
		<path fill="#444444" d="M40.974,1.346H8.006c-3.66,0-6.637,2.981-6.637,6.646v32.959c0,3.665,2.978,6.646,6.637,6.646l7.91-0.001
			l20.421,0.001c0.006,0,0.012-0.002,0.018-0.002h0.052c0.021,0,0.039-0.011,0.06-0.012c0.925-0.037,1.789-0.443,2.327-1.123
			c1.338-1.684,2.031-3.933,1.902-6.023l-0.006-0.085l-5.297-1.525c-0.098-0.359-0.236-0.793-0.394-1.229l-0.038-0.107
			c0.36-0.088,0.688-0.228,0.864-0.404c0.484-0.484,0.66-1.153,0.555-1.77c-0.07-0.379-0.255-0.748-0.555-1.039
			c-0.291-0.299-0.651-0.484-1.03-0.563c-0.625-0.115-1.303,0.07-1.788,0.555c-0.088,0.088-0.158,0.193-0.211,0.29l-0.133-0.049
			c-0.996-0.369-2.331-0.625-3.96-0.764l0.191-2.126c1.683-0.224,2.835-0.959,3.511-2.214v0.841
			c-0.536,0.065-0.958,0.504-0.958,1.057c0,0.598,0.485,1.083,1.083,1.083c0.597,0,1.082-0.485,1.082-1.083
			c0-0.552-0.422-0.992-0.957-1.057v-1.384c0.051-0.132,0.107-0.26,0.149-0.402c0.172,0.048,0.309,0.041,0.426-0.015
			c0.22-0.105,0.302-0.356,0.405-0.674c0.038-0.118,0.08-0.246,0.134-0.379c0.417-0.192,0.785-0.214,1.062-0.056
			c0.237,0.134,0.391,0.398,0.421,0.726l0.022,0.25l0.186-0.169c0.25-0.229,0.382-0.472,0.392-0.724
			c0.008-0.21-0.068-0.425-0.229-0.642c1.114-0.244,1.773-0.64,2.015-1.206c0.191-0.453,0.098-1.002-0.28-1.637
			c0.711-0.207,1.091-0.474,1.161-0.815c0.083-0.4-0.286-0.81-0.689-1.151c0.632-0.121,1.025-0.37,1.197-0.757
			c0.406-0.91-0.563-2.291-1.419-3.51c-0.389-0.554-0.757-1.078-0.878-1.417c0.87-1.866,0.974-3.433,0.309-4.66
			c-0.908-1.674-3.209-2.746-7.032-3.277c-0.422-1.115-0.999-1.811-1.762-2.126c-1.312-0.544-2.888,0.185-4.277,0.829
			c-0.867,0.401-1.692,0.786-2.259,0.752c-0.755-0.059-1.087-0.272-1.409-0.478c-0.396-0.253-0.771-0.494-1.784-0.408
			c-0.871,0.072-1.954,0.604-3.002,1.117c-1.159,0.568-2.365,1.166-3.229,1.104c-0.201-0.008-0.478-0.088-0.797-0.181
			C10.587,8.698,9.351,8.34,8.328,9.167l-0.248,0.2l0.318,0.021c0.95,0.064,1.331,0.704,1.699,1.322
			c0.3,0.503,0.597,1.01,1.228,0.987c-1.298,2.597-1.649,4.235-1.105,5.145c0.3,0.503,0.877,0.78,1.716,0.825
			c-0.13,0.753-0.51,1.614-2.021,1.963l-0.356,0.082l0.332,0.153c0.804,0.37,1.553,0.315,2.388-0.186
			c-0.857,2.208-0.802,4.215,0.167,5.552c0.764,1.055,2.054,1.593,3.687,1.551c-0.379,0.351-0.284,0.662-0.199,0.943
			c0.077,0.254,0.144,0.473-0.078,0.769l-0.156,0.208l0.26-0.008c0.652-0.02,0.849-0.443,1.007-0.785
			c0.136-0.292,0.226-0.465,0.475-0.458c-0.021,0.47,0.122,0.854,0.417,1.119c0.396,0.353,1.051,0.468,1.804,0.317
			c0.431,0.36,0.848,0.603,1.246,0.743v0.398c-0.658,0.066-1.18,0.605-1.18,1.28c0,0.72,0.585,1.305,1.305,1.305
			s1.305-0.585,1.305-1.305c0-0.675-0.522-1.214-1.18-1.28v-0.328c0.632,0.15,1.207,0.017,1.687-0.424
			c0.522,0.955,0.797,2.338,0.864,4.315c-2.864,0.027-4.94,0.648-6.351,1.922c-0.51,0.713-0.837,2.075-1.208,3.783l-5.113,1.386
			l0.02,0.108c0.265,1.487,0.981,3.009,1.954,4.305l-5.003,0c-2.281,0-4.137-1.86-4.137-4.146V7.992
			c0-2.286,1.856-4.146,4.137-4.146h32.968c2.286,0,4.146,1.86,4.146,4.146v30.296c0,0.69,0.56,1.25,1.25,1.25s1.25-0.56,1.25-1.25
			V7.992C47.62,4.328,44.639,1.346,40.974,1.346z M31.312,37.043c0.05-0.042,0.1-0.085,0.136-0.117
			c0.224-0.17,0.502-0.381,0.682-0.626c0.229-0.283,0.302-0.6,0.365-0.879l0.051-0.203c0.048-0.189,0.094-0.368,0.185-0.528
			l0.071-0.127c0.324,0.123,0.622,0.254,0.876,0.412c0.378,0.29,0.875,1.425,1.28,2.516l-0.107,0.03
			c-1.242,0.346-3.095,0.189-3.743-0.298C31.164,37.167,31.252,37.094,31.312,37.043z M33.364,31.305
			c0,0.459-0.373,0.833-0.832,0.833s-0.833-0.374-0.833-0.833s0.374-0.832,0.833-0.832S33.364,30.846,33.364,31.305z M30.984,15.963
			c0.299,0.461,0.344,1.05,0.29,1.583c-3.836-1.384-7.374-0.344-10.821,1.384C22.117,14.941,27.645,12.091,30.984,15.963z
			 M29.77,20.81c-0.148,0.534-0.482,0.872-0.903,0.901c-0.54,0.033-1.09-0.426-1.399-1.181c-0.005-0.011-0.335-0.843-0.254-1.615
			c0.001-0.01,0.002-0.02,0.003-0.03c0.013-0.104,0.037-0.206,0.067-0.306c0.009-0.03,0.018-0.061,0.029-0.09
			c0.041-0.11,0.09-0.216,0.159-0.311c0.037-0.052,0.083-0.093,0.134-0.128c0.103-0.069,0.232-0.116,0.387-0.134
			c0.001,0,0.002,0,0.003,0c0.14-0.017,0.304-0.003,0.473,0.023c0.039,0.006,0.078,0.007,0.117,0.015
			c0.066,0.014,0.13,0.033,0.195,0.052c0.056,0.016,0.111,0.034,0.165,0.054c0.076,0.028,0.148,0.059,0.217,0.093
			c0.032,0.016,0.062,0.033,0.092,0.05c0.072,0.041,0.141,0.082,0.198,0.127c0.017,0.014,0.028,0.029,0.044,0.043
			c0.052,0.047,0.103,0.094,0.135,0.142c0.039,0.055,0.068,0.115,0.098,0.208c0.012,0.025,0.019,0.05,0.024,0.075l0.01,0.039
			c0.004,0.016,0.007,0.032,0.01,0.038c0.018,0.086,0.034,0.172,0.044,0.27c0.035,0.312,0.025,0.676,0.017,0.963
			c-0.009,0.126-0.017,0.242-0.025,0.333c-0.011,0.062-0.011,0.113-0.01,0.148l-0.028,0.216L29.77,20.81z M22.087,31.31
			c0,0.582-0.473,1.055-1.055,1.055s-1.055-0.473-1.055-1.055s0.473-1.056,1.055-1.056S22.087,30.728,22.087,31.31z M22.979,29.01
			l-0.085-0.142l-0.004,0.004c-0.156-0.256-0.32-0.479-0.504-0.659l-0.043-0.042l-0.06,0.008c-0.102,0.014-0.634,0.074-1.264-0.021
			c-1.386-0.244-1.959-1.206-2.029-1.955c-0.053-0.561,0.163-1.033,0.53-1.172c0.965-0.304,1.946,0.879,1.956,0.892l0.057,0.069
			l0.084-0.031c0.41-0.153,0.691-0.396,0.834-0.72c0.181-0.407,0.149-0.93-0.095-1.596c1.286-0.316,1.857-1.146,1.743-2.527
			c0.397-0.021,0.688-0.163,0.87-0.424c0.741,0.483,1.506,0.487,2.329,0.042c0.348,0.76,0.908,1.227,1.505,1.227
			c0.028,0,0.056-0.001,0.083-0.003c0.48-0.034,0.857-0.378,1.059-0.913c0.521,0.628,1.158,0.789,1.902,0.446
			c0.72,1.885,1.188,5.006,0.751,6.782l0.004,0.001c-0.051,0.183-0.115,0.351-0.179,0.518h-0.014v0.04
			c-0.602,1.507-1.77,2.327-3.641,2.552l-0.101,0.012l-0.21,2.326l-0.001,0l-0.113,1.252c-0.008,0.003-0.019,0.006-0.028,0.009
			c-0.046,0.017-0.103,0.027-0.152,0.042c-0.595,0.177-1.564,0.224-2.627,0.12c-0.216-0.027-0.423-0.055-0.6-0.081
			c-0.214-0.038-0.459-0.085-0.646-0.141c-0.15-0.047-0.239-0.085-0.292-0.113v-1.223h-0.04
			C23.886,31.467,23.576,30.007,22.979,29.01z"/>
		<path fill="#444444" d="M42.495,27.139c-3.663,3.073-3.876,2.976-7.411,6.314c0.373,0.098,0.707,0.295,0.992,0.58
			s0.491,0.628,0.579,1.011c3.339-3.515,3.179-3.811,6.243-7.503c0.108-0.108,0.118-0.294,0.01-0.402
			C42.789,27.021,42.603,27.031,42.495,27.139z"/>
	</g>
</g>
</svg>
