<svg xmlns="http://www.w3.org/2000/svg" viewBox="0 0 50 50"><defs><style>.cls-3{fill:#444}</style></defs><g id="ICONES"><path fill="#afe55d" d="M49.07 4.16v23.22L3.53 46.15H1.2V4.16h47.87z"/><path fill="#c3ff68" d="M49.07 4.19v3.62L1.2 25.23V4.19h47.87z"/><path d="M48.34 46.45H1.66a1.3 1.3 0 0 1-1.3-1.29V4.84a1.3 1.3 0 0 1 2.6 0v39h45.38a1.3 1.3 0 1 1 0 2.59z" class="cls-3"/><path d="M46 12.85H5.08a.12.12 0 0 1-.08-.13.13.13 0 0 1 .13-.13H46a.13.13 0 0 1 .13.13.12.12 0 0 1-.13.13zm0-5.45H5.08a.13.13 0 0 1 0-.26H46a.13.13 0 1 1 0 .26zm0 10.91H5.08a.13.13 0 0 1-.08-.13.12.12 0 0 1 .13-.13H46a.12.12 0 0 1 .13.13.13.13 0 0 1-.13.13zm0 5.45H5.08a.13.13 0 0 1-.08-.13.12.12 0 0 1 .13-.13H46a.12.12 0 0 1 .13.13.13.13 0 0 1-.13.13zm0 5.45H5.08a.13.13 0 0 1 0-.26H46a.13.13 0 1 1 0 .26z" class="cls-3"/><path d="M5.08 39.63a.77.77 0 0 1-.25 0 .79.79 0 0 1-.5-1l.67-2.1a.75.75 0 0 1 .41-.46.79.79 0 0 1 .62 0l1.76.73 1.08-3.2a.8.8 0 0 1 .74-.53h1.69l2.3-2.36.12-.1 3-2.07a.77.77 0 0 1 1 .1L19.09 30l2.6-6.86a.73.73 0 0 1 .76-.5.77.77 0 0 1 .72.56l1.36 4.87 1-2.34a.79.79 0 0 1 .71-.46.8.8 0 0 1 .71.48l1.35 3.13 1-1.25a.91.91 0 0 1 .21-.18l3.46-1.93 2.09-5.81a.8.8 0 0 1 .51-.49.82.82 0 0 1 .69.13l2.07 1.55 1.9-1.33v-4.8a.78.78 0 0 1 1.42-.44l1.47 2.13h.34l.74-5.09a.78.78 0 0 1 1.54.23L45 17.41a.78.78 0 0 1-.81.67L42.75 18a.77.77 0 0 1-.6-.33l-.26-.38V20a.81.81 0 0 1-.33.64l-2.7 1.89a.77.77 0 0 1-.91 0l-1.68-1.26-1.84 5.09a.78.78 0 0 1-.35.41l-3.58 2-1.76 2.11a.8.8 0 0 1-.71.28.77.77 0 0 1-.6-.47L26.28 28l-1.21 2.68a.78.78 0 0 1-.77.46.77.77 0 0 1-.69-.56l-1.3-4.66-2.19 5.78a.78.78 0 0 1-1.29.27l-1.73-1.8-2.43 1.66-2.47 2.54a.76.76 0 0 1-.56.24h-1.46L9 38.06a.81.81 0 0 1-.41.46.75.75 0 0 1-.62 0l-1.75-.72-.41 1.28a.79.79 0 0 1-.73.55z" class="cls-3"/><path d="M5.08 34.4a.13.13 0 1 0 0 .26h32.49l.18-.26zm42.52.69l-2.2-3.31a1.8 1.8 0 0 0-2.45-.65 1.81 1.81 0 0 0-2.43.61l-1.78 2.66-.17.26-.28.42-.12.21c0 .09-.09.18-.13.27a2.71 2.71 0 0 0-.21 1 2.67 2.67 0 0 0 5.12 1.06 2.68 2.68 0 0 0 5.13-1.06 2.7 2.7 0 0 0-.48-1.47zm-7.11 3.12a1.61 1.61 0 0 1-1.61-1.61 1.56 1.56 0 0 1 .38-1 1.44 1.44 0 0 1 .28-.27 1.62 1.62 0 0 1 1-.32 1.67 1.67 0 0 1 1 .32 1.72 1.72 0 0 1 .27.27 1.56 1.56 0 0 1 .39 1 1.62 1.62 0 0 1-1.71 1.61zm2.57-2.91l-.12.23a2.53 2.53 0 0 0-.12-.23 2.44 2.44 0 0 0-.52-.64 2.6 2.6 0 0 0-.3-.26 2.64 2.64 0 0 0-1.49-.48h-.17l1.1-1.66a.7.7 0 0 1 1.12-.12.55.55 0 0 0 .8 0 .7.7 0 0 1 1.15.16l1.07 1.62h-.17a2.64 2.64 0 0 0-1.49.48 2.6 2.6 0 0 0-.32.26 2.92 2.92 0 0 0-.54.64zm2.33 2.91a1.61 1.61 0 0 1-1.61-1.61 1.56 1.56 0 0 1 .38-1 1.44 1.44 0 0 1 .28-.27 1.62 1.62 0 0 1 1-.32 1.67 1.67 0 0 1 1 .32 1.72 1.72 0 0 1 .27.27 1.56 1.56 0 0 1 .39 1 1.62 1.62 0 0 1-1.71 1.61zm.61 2.71H5.08a.13.13 0 0 1 0-.26H46a.13.13 0 1 1 0 .26z" class="cls-3"/><path d="M6.83 41.72a.12.12 0 0 1-.13-.12V40a.12.12 0 0 1 .13-.12A.12.12 0 0 1 7 40v1.6a.12.12 0 0 1-.17.12zm5.37 0a.12.12 0 0 1-.13-.12V40a.12.12 0 0 1 .13-.12.12.12 0 0 1 .12.12v1.6a.12.12 0 0 1-.12.12zm5.36 0a.12.12 0 0 1-.12-.12V40a.12.12 0 0 1 .12-.12.12.12 0 0 1 .13.12v1.6a.12.12 0 0 1-.13.12zm5.37 0a.12.12 0 0 1-.12-.12V40a.12.12 0 0 1 .12-.12.12.12 0 0 1 .13.12v1.6a.12.12 0 0 1-.13.12zm5.37 0a.12.12 0 0 1-.12-.12V40a.12.12 0 0 1 .24 0v1.6a.12.12 0 0 1-.12.12zm5.37 0a.12.12 0 0 1-.13-.12V40a.12.12 0 0 1 .13-.12.12.12 0 0 1 .12.12v1.6a.12.12 0 0 1-.12.12zm5.33 0a.12.12 0 0 1-.13-.12V40a.12.12 0 0 1 .13-.12.12.12 0 0 1 .12.12v1.6a.12.12 0 0 1-.12.12zm5.4 0a.12.12 0 0 1-.12-.12V40a.12.12 0 0 1 .12-.12.12.12 0 0 1 .13.12v1.6a.12.12 0 0 1-.13.12z" class="cls-3"/></g></svg>