<svg version="1" xmlns="http://www.w3.org/2000/svg" viewBox="0 0 50 50"><path fill="#AFE55D" d="M18.082 45.748l25.548-9.299A21.738 21.738 0 0 0 46.875 25c0-12.062-9.813-21.875-21.875-21.875S3.125 12.938 3.125 25c0 9.644 6.276 17.846 14.957 20.748z"/><path fill="#C3FF68" d="M34.595 5.418a21.733 21.733 0 0 0-9.736-2.294c-8.955 0-16.666 5.411-20.047 13.133L34.595 5.418z"/><g><path fill="#444" d="M25 48.125C12.249 48.125 1.875 37.751 1.875 25S12.249 1.875 25 1.875 48.125 12.249 48.125 25c0 4.285-1.186 8.471-3.429 12.106a1.246 1.246 0 0 1-1.72.407 1.248 1.248 0 0 1-.407-1.72 20.545 20.545 0 0 0 3.056-10.794c0-11.373-9.253-20.625-20.625-20.625S4.375 13.627 4.375 25 13.627 45.625 25 45.625a1.25 1.25 0 0 1 0 2.5z"/><path fill="#444" d="M25 44.182C14.423 44.182 5.818 35.577 5.818 25 5.818 14.423 14.423 5.818 25 5.818S44.182 14.423 44.182 25c0 10.577-8.606 19.182-19.182 19.182zm0-38.114C14.561 6.068 6.068 14.561 6.068 25c0 10.438 8.493 18.932 18.931 18.932 10.439 0 18.932-8.493 18.932-18.932C43.932 14.561 35.438 6.068 25 6.068z"/><path fill="#444" d="M38.572 24.685a13.704 13.704 0 0 0-8.67-12.129l.717-1.817c5.746 2.264 9.634 7.705 9.904 13.861l-1.951.085zM12.307 19.836l-1.79-.781a15.811 15.811 0 0 1 4.938-6.256l1.181 1.557a13.85 13.85 0 0 0-4.329 5.48zM15.259 20.965l-1.782-.8a12.418 12.418 0 0 1 3.868-4.84l1.172 1.562a10.468 10.468 0 0 0-3.258 4.078z"/><path fill="#444" d="M35.414 24.696c-.225-4.048-2.814-7.652-6.597-9.181l.732-1.811c4.48 1.811 7.548 6.083 7.815 10.883l-1.95.109zM19.058 16.5l-1.083-1.625a12.4 12.4 0 0 1 6.901-2.079c1.377 0 2.705.214 3.944.638l-.631 1.849a10.22 10.22 0 0 0-3.313-.533 10.442 10.442 0 0 0-5.818 1.75zM26.317 37.719l-.223-1.941c5.292-.608 9.307-5.088 9.34-10.418l1.953.012c-.038 6.316-4.797 11.624-11.07 12.347z"/><path fill="#444" d="M26.111 34.571l-.258-1.936c3.637-.484 6.398-3.612 6.423-7.277l1.953.013c-.031 4.634-3.521 8.589-8.118 9.2zM18.188 22.112l-1.758-.853a9.523 9.523 0 0 1 2.788-3.408l1.183 1.555a7.574 7.574 0 0 0-2.213 2.706zM32.251 24.717a7.367 7.367 0 0 0-4.528-6.25l.754-1.802a9.312 9.312 0 0 1 5.722 7.901l-1.948.151zM20.924 19.042l-1.043-1.651c2.321-1.467 5.276-1.831 7.84-1l-.601 1.859c-2.021-.656-4.359-.367-6.196.792zM24.876 34.652c-5.161 0-9.36-4.195-9.36-9.353 0-1.14.202-2.246.599-3.29l1.825.696a7.262 7.262 0 0 0-.471 2.593c0 4.107 3.372 7.408 7.485 7.4.068 0 .135-.001.204-.009l.218 1.941c-.167.02-.333.022-.5.022z"/><path fill="#444" d="M25.921 31.408l-.325-1.926a4.23 4.23 0 0 0 3.529-4.128l1.953.021a6.181 6.181 0 0 1-5.157 6.033zM21.137 23.281l-1.715-.935a6.12 6.12 0 0 1 1.689-1.962l1.171 1.563a4.167 4.167 0 0 0-1.145 1.334zM29.082 24.761a4.243 4.243 0 0 0-2.467-3.333l.801-1.782a6.209 6.209 0 0 1 3.605 4.878l-1.939.237zM22.787 21.605l-.981-1.688c1.437-.835 3.274-1.041 4.822-.558l-.582 1.864c-1.033-.322-2.292-.181-3.259.382zM24.876 31.502a6.21 6.21 0 0 1-6.202-6.203c0-.755.134-1.485.397-2.172l1.823.701a4.07 4.07 0 0 0-.268 1.471 4.255 4.255 0 0 0 4.249 4.25l.308 1.934a2.092 2.092 0 0 1-.307.019z"/></g></svg>