<?xml version="1.0" encoding="utf-8"?>
<!-- Generator: Adobe Illustrator 22.0.1, SVG Export Plug-In . SVG Version: 6.00 Build 0)  -->
<svg version="1.1" id="Layer_1" xmlns="http://www.w3.org/2000/svg" xmlns:xlink="http://www.w3.org/1999/xlink" x="0px" y="0px"
	 viewBox="0 0 50 50" style="enable-background:new 0 0 50 50;" xml:space="preserve">
<style type="text/css">
	.st0{fill:#C3FF68;}
	.st1{fill:#AFE55D;}
	.st2{fill:none;}
	.st3{fill:#444444;}
</style>
<path class="st0" d="M47.5,20.7c0,10.2-8.3,18.5-18.5,18.5c-5.3,0-10-2.2-13.4-5.7l-1.5-1.8l-1-1.5c-1.2-2-2.1-4.3-2.4-6.7L43,8.6
	c2.4,2.8,4,6.3,4.4,10.2C47.4,19.4,47.5,20.1,47.5,20.7z"/>
<path class="st1" d="M47.5,20.7c0,10.2-8.3,18.5-18.5,18.5c-5.3,0-10-2.2-13.4-5.7L40.4,22l7-3.2C47.4,19.4,47.5,20.1,47.5,20.7z"/>
<g>
	<path class="st2" d="M46.1,18.9c-0.4-3.5-1.8-6.8-4.1-9.5c-3.3-3.8-8-6-13.1-6c-9.5,0-17.3,7.7-17.3,17.3c0,0.9,0.1,1.8,0.2,2.7
		c0.3,1.7,0.8,3.3,1.5,4.8l8.8-8.8c0.5-0.5,1.3-0.5,1.8,0l5.4,5.4l8-8h-4.1c-0.7,0-1.2-0.6-1.2-1.2s0.6-1.2,1.2-1.2h7.1c0,0,0,0,0,0
		c0.2,0,0.3,0,0.4,0.1c0.3,0.1,0.6,0.4,0.7,0.7c0,0.1,0.1,0.2,0.1,0.3c0,0,0,0.1,0,0.1v7.1c0,0.7-0.6,1.2-1.2,1.2s-1.2-0.6-1.2-1.2
		v-4.1l-8.9,8.9c-0.5,0.5-1.3,0.5-1.8,0L23,22.1l-8.3,8.3c0.5,0.8,1.1,1.6,1.8,2.3C19.8,36.1,24.2,38,29,38
		c9.5,0,17.3-7.8,17.3-17.3C46.2,20.1,46.2,19.5,46.1,18.9z M23.7,8.4c-3.3,1.4-6,4.2-7.3,7.5c-0.1,0.3-0.4,0.5-0.7,0.5
		c-0.1,0-0.2,0-0.3-0.1c-0.4-0.1-0.6-0.6-0.4-1c1.4-3.7,4.4-6.8,8.1-8.4c0.4-0.2,0.8,0,1,0.4C24.3,7.8,24.1,8.2,23.7,8.4z"/>
	<path class="st3" d="M48.7,20.7c0-0.7,0-1.4-0.1-2.1c-0.4-4-2.1-7.8-4.7-10.9C40.2,3.4,34.7,0.9,29,0.9C18.1,0.9,9.2,9.8,9.2,20.7
		c0,1,0.1,2,0.2,3.1c0.3,2.2,1.1,4.3,2.1,6.3l-9.9,9.9c-0.5,0.5-0.5,1.3,0,1.8c0.2,0.2,0.6,0.4,0.9,0.4s0.6-0.1,0.9-0.4l9.5-9.5
		c0.5,0.8,1.1,1.5,1.8,2.2c3.5,3.6,8.1,5.7,13,6v-0.9c0-0.7,0.6-1.2,1.2-1.2s1.2,0.6,1.2,1.2v0.9C40.5,39.8,48.7,31.2,48.7,20.7z
		 M29,38c-4.7,0-9.2-1.9-12.5-5.3c-0.7-0.7-1.3-1.5-1.8-2.3l8.3-8.3l5.4,5.4c0.5,0.5,1.3,0.5,1.8,0l8.9-8.9v4.1
		c0,0.7,0.6,1.2,1.2,1.2s1.2-0.6,1.2-1.2v-7.1c0,0,0-0.1,0-0.1c0-0.1,0-0.2-0.1-0.3c-0.1-0.3-0.4-0.6-0.7-0.7
		c-0.1-0.1-0.3-0.1-0.4-0.1c0,0,0,0,0,0h-7.1c-0.7,0-1.2,0.6-1.2,1.2s0.6,1.2,1.2,1.2h4.1l-8,8l-5.4-5.4c-0.5-0.5-1.3-0.5-1.8,0
		l-8.8,8.8c-0.7-1.5-1.2-3.1-1.5-4.8c-0.1-0.9-0.2-1.8-0.2-2.7c0-9.5,7.8-17.3,17.3-17.3c5,0,9.8,2.2,13.1,6c2.3,2.7,3.8,6,4.1,9.5
		c0.1,0.6,0.1,1.2,0.1,1.8C46.2,30.2,38.5,38,29,38z"/>
	<path class="st3" d="M23.1,7c-3.7,1.6-6.6,4.6-8.1,8.4c-0.1,0.4,0,0.8,0.4,1c0.1,0,0.2,0.1,0.3,0.1c0.3,0,0.6-0.2,0.7-0.5
		c1.3-3.4,3.9-6.1,7.3-7.5c0.4-0.2,0.6-0.6,0.4-1C24,7,23.5,6.8,23.1,7z"/>
	<path class="st3" d="M29,38.3c-0.7,0-1.2,0.6-1.2,1.2v0.9v7.4c0,0.7,0.6,1.2,1.2,1.2s1.2-0.6,1.2-1.2v-7.4v-0.9
		C30.2,38.9,29.6,38.3,29,38.3z"/>
</g>
</svg>
