<?xml version="1.0" encoding="utf-8"?>
<!-- Generator: Adobe Illustrator 22.0.1, SVG Export Plug-In . SVG Version: 6.00 Build 0)  -->
<svg version="1.1" id="Layer_1" xmlns="http://www.w3.org/2000/svg" xmlns:xlink="http://www.w3.org/1999/xlink" x="0px" y="0px"
	 viewBox="0 0 50 50" style="enable-background:new 0 0 50 50;" xml:space="preserve">
<style type="text/css">
	.st0{fill:#00C8E2;}
	.st1{fill:#00DFFC;}
	.st2{fill:#444444;}
</style>
<g>
	<polygon class="st0" points="46.7,8.1 46.7,33.5 10.4,46.7 8,46.7 3.3,42 3.3,8 8,3.3 41.9,3.3 	"/>
</g>
<g>
	<polygon class="st1" points="42.5,3.9 3.3,18.1 3.3,8 8,3.3 41.9,3.3 	"/>
</g>
<g>
	<path class="st2" d="M42.4,2.2H7.6L2.2,7.6v34.9l5.3,5.3H42c0.6,0,1.2-0.5,1.2-1.2s-0.5-1.2-1.2-1.2H8.4l-4-4v-33l4.1-4.1h32.9
		l4.1,4.1v24.9c0,0.6,0.5,1.2,1.2,1.2s1.2-0.5,1.2-1.2V7.6L42.4,2.2z"/>
	<path class="st2" d="M7.5,42.5h35v-35h-35V42.5z M8.3,8.3h33.5v33.5H8.3V8.3z"/>
	<polygon class="st2" points="18.2,15 17.8,15.5 17.8,34.5 18.2,35 20.7,35 21.1,34.5 21.1,15.5 20.7,15 	"/>
	<polygon class="st2" points="33.1,15 29.7,15 21.9,22.6 21.9,26.6 33.6,15.5 	"/>
	<polygon class="st2" points="23.1,26.5 30.1,34.9 33.6,34.9 34,34.4 25.5,24.2 	"/>
</g>
</svg>
