<svg version="1" xmlns="http://www.w3.org/2000/svg" viewBox="0 0 50 50"><path fill="#FCC34F" d="M45.016 38.573V9.062L41.179 3.25H8.819L4.983 9.062V46.75h17.568z"/><path fill="#FDCF72" d="M41.312 3.451l-.133-.201H8.819L4.983 9.062v7.612z"/><g fill="#444"><path d="M41.854 2H8.148L3.734 8.686V48h32.611a1.25 1.25 0 0 0 0-2.5H6.234V9.437l.084-.128h13.605v9.329h10.149V9.309h13.611l.084.128v29.136a1.25 1.25 0 0 0 2.5 0V8.686L41.854 2zM9.493 4.5h11.194l-.721 4.309H6.648L9.493 4.5zM30.03 8.809L29.31 4.5h11.198l2.845 4.309H30.03z"/><path d="M31.661 42.761h1.014a.125.125 0 0 0 0-.25h-.764v-.016a.125.125 0 0 0-.25 0v.266zM31.661 41.467a.125.125 0 0 0 .25 0v-1.028a.125.125 0 0 0-.25 0v1.028zM35.153 33.645a.125.125 0 0 0 0-.25h-1.028c-.069 0-.125.055-.125.125s.056.125.125.125h1.028zM33.222 33.52a.125.125 0 0 0-.125-.125h-1.029a.125.125 0 0 0 0 .25h1.029a.125.125 0 0 0 .125-.125zM31.661 39.409a.125.125 0 0 0 .25 0v-1.028a.125.125 0 0 0-.25 0v1.028zM35.761 42.511a.125.125 0 0 0 0 .25h1.028a.125.125 0 0 0 0-.25h-1.028zM38.846 42.511h-1.028a.125.125 0 0 0 0 .25h1.028a.125.125 0 0 0 0-.25zM31.786 35.42a.125.125 0 0 0 .125-.125v-1.028a.125.125 0 0 0-.25 0v1.028c0 .069.056.125.125.125zM31.661 37.353a.125.125 0 0 0 .25 0v-1.028a.125.125 0 0 0-.25 0v1.028zM37.211 33.645a.125.125 0 0 0 0-.25h-1.028a.125.125 0 0 0 0 .25h1.028zM40.903 38.959a.125.125 0 0 0-.125.125v1.029a.125.125 0 0 0 .25 0v-1.029a.124.124 0 0 0-.125-.125zM40.903 36.902a.125.125 0 0 0-.125.125v1.028a.125.125 0 0 0 .25 0v-1.028a.124.124 0 0 0-.125-.125zM40.172 33.52c0 .069.056.125.125.125h.481v.297a.125.125 0 0 0 .25 0v-.547h-.731a.124.124 0 0 0-.125.125zM40.903 41.017a.125.125 0 0 0-.125.125v1.028a.125.125 0 0 0 .25 0v-1.028a.124.124 0 0 0-.125-.125zM40.903 34.845a.125.125 0 0 0-.125.125v1.029a.125.125 0 0 0 .25 0V34.97a.124.124 0 0 0-.125-.125zM40.903 42.511h-1.028a.125.125 0 0 0 0 .25h1.028a.125.125 0 0 0 0-.25zM39.268 33.645a.125.125 0 0 0 0-.25H38.24a.125.125 0 0 0 0 .25h1.028zM33.703 42.761h1.028a.125.125 0 0 0 0-.25h-1.028a.125.125 0 0 0 0 .25zM34.958 37.383h-.728l.179-.335a2.199 2.199 0 0 1 1.936-1.173c.819 0 1.555.455 1.933 1.165l.315-.379a2.656 2.656 0 0 0-4.764.567l-.053.155h-.905l1.044 1.259 1.043-1.259zM38.861 38.927l.053-.155h.905l-1.044-1.259-1.044 1.259h.729l-.179.335a2.196 2.196 0 0 1-1.935 1.172 2.188 2.188 0 0 1-1.933-1.165l-.315.379a2.655 2.655 0 0 0 4.763-.566z"/></g></svg>