<svg version="1" xmlns="http://www.w3.org/2000/svg" viewBox="0 0 50 50"><path fill="#71BAC0" d="M7.448 37.647l5.392 3.113 31.889-11.606v-13.03c0-1.555-.83-2.993-2.177-3.771L27.176 3.477a4.353 4.353 0 0 0-4.354 0L7.448 12.353a4.355 4.355 0 0 0-2.177 3.771v17.753c0 1.555.83 2.993 2.177 3.77z"/><path fill="#7ED0D6" d="M35.434 8.244l-8.258-4.768a4.353 4.353 0 0 0-4.354 0L7.448 12.353a4.355 4.355 0 0 0-2.177 3.771v3.099L35.434 8.244z"/><path fill="#444" d="M24.999 48.354a5.61 5.61 0 0 1-2.802-.747L6.823 38.729a5.615 5.615 0 0 1-2.802-4.853V16.124a5.62 5.62 0 0 1 2.802-4.854l15.374-8.876a5.624 5.624 0 0 1 5.604 0l15.374 8.877a5.617 5.617 0 0 1 2.803 4.853v13.03a1.25 1.25 0 0 1-2.5 0v-13.03a3.113 3.113 0 0 0-1.553-2.688L26.552 4.559a3.116 3.116 0 0 0-3.104 0L8.073 13.436a3.111 3.111 0 0 0-1.552 2.688v17.753c0 1.105.595 2.136 1.552 2.688l15.374 8.878a3.116 3.116 0 0 0 3.104-.001l4.245-2.45a1.246 1.246 0 0 1 1.707.457 1.248 1.248 0 0 1-.457 1.707l-4.245 2.451a5.605 5.605 0 0 1-2.802.747z"/><path fill="#444" d="M36.134 20.384a.445.445 0 0 0-.005-.44l-1.995-3.381a.44.44 0 0 0-.381-.217h-6.37c-1.028 0-1.921.796-1.947 1.824-.028 1.092.793 1.931 1.876 1.931h4.102c.234 0 .381.251.267.456l-5.985 10.706a.306.306 0 0 1-.534.001l-7.865-13.976c-.499-.874-1.628-1.186-2.564-.687-.874.499-1.186 1.628-.687 2.564l9.199 16.266c.499.941 1.315 1.44 2.252 1.44.936 0 1.752-.566 2.252-1.44l8.385-15.047z"/></svg>