<?xml version="1.0" encoding="utf-8"?>
<!-- Generator: Adobe Illustrator 21.0.0, SVG Export Plug-In . SVG Version: 6.00 Build 0)  -->
<svg version="1.0" id="Layer_1" xmlns="http://www.w3.org/2000/svg" xmlns:xlink="http://www.w3.org/1999/xlink" x="0px" y="0px"
	 viewBox="0 0 50 50" enable-background="new 0 0 50 50" xml:space="preserve">
<g>
	<g>
		<g>
			<path fill="#71BAC0" d="M45.845,8.355v27.427L17.917,45.945H8.245c-2.916,0-5.28-2.372-5.28-5.289V8.355
				c0-2.89,2.293-5.218,5.166-5.28H8.14c0.035-0.009,0.07-0.009,0.105-0.009h32.311C43.473,3.066,45.845,5.429,45.845,8.355z"/>
		</g>
	</g>
	<g>
		<g>
			<path fill="#7ED0D6" d="M45.484,6.44L2.965,21.91V8.355c0-2.89,2.293-5.218,5.166-5.28H8.14c0.035-0.009,0.07-0.009,0.105-0.009
				h32.311C42.796,3.066,44.72,4.463,45.484,6.44z"/>
		</g>
	</g>
	<g>
		<path fill="#444444" d="M40.556,1.816H8.245c-0.045,0-0.121,0-0.216,0.011C4.482,1.942,1.715,4.795,1.715,8.355v32.302
			c0,3.605,2.929,6.539,6.53,6.539h26.238c0.197,0,0.378-0.055,0.544-0.137h1.816L36,41.759h0.094l0.004-0.246
			c0.002-0.13,0.005-0.247,0.007-0.367c0.015-0.488,0.028-0.977,0.063-1.468c0.033-0.595,0.091-1.18,0.175-1.786
			c0.234-0.359,0.475-0.753,0.714-1.169l0.033-0.067c0.228-0.397,0.446-0.804,0.666-1.225l0.028-0.064
			c0.203-0.399,0.397-0.807,0.586-1.227l0.428-0.993c0.144,0.262,0.304,0.533,0.47,0.813c0.071,0.119,0.141,0.239,0.211,0.359
			c0.314,0.537,0.612,1.072,0.775,1.531c0.029,0.295,0.272,2.751,0.429,3.451c0.01,0.047,0.021,0.086,0.03,0.115
			c0.059,0.179,0.597,1.333,1.602,3.431c0.027,0.055,0.074,0.09,0.126,0.113c0.016,0.007,0.029,0.009,0.045,0.013
			c0.018,0.004,0.035,0.015,0.054,0.015c0.036,0,0.073-0.008,0.108-0.024c0.124-0.06,0.177-0.209,0.117-0.334
			c-1.392-2.903-1.559-3.312-1.576-3.367c-0.104-0.323-0.318-2.248-0.45-3.52c-0.095-0.278-0.227-0.562-0.373-0.846
			c-0.133-0.261-0.277-0.522-0.429-0.783c-0.079-0.136-0.159-0.273-0.239-0.408c-0.264-0.445-0.512-0.865-0.69-1.247l-0.16-0.313
			l0,0l-1.003-2.475l-0.312-1.336l0.202-0.568l-0.759-0.053l-0.038,0.032c-1.844,1.545-3.996,2.523-6.061,2.755l-0.867,0.097
			l4.103,0.718c1.564,1.742,2.727,2.62,3.711,2.806c-0.166,0.362-0.335,0.722-0.513,1.072l-0.024,0.055
			c-0.218,0.418-0.438,0.821-0.664,1.216l-0.032,0.065c-0.234,0.405-0.469,0.787-0.697,1.135l-0.038,0.103
			c-0.091,0.64-0.151,1.256-0.187,1.88c-0.031,0.424-0.049,0.891-0.062,1.43c-0.003,0.092-0.009,0.184-0.012,0.276
			c-2.814,1.431-5.829,2.215-8.965,2.33c-1.282-0.395-2.152-0.697-2.815-0.98c-0.151-0.065-0.279-0.127-0.409-0.19
			c-0.048-0.024-0.105-0.048-0.151-0.072c-0.024-0.624,0.068-1.556,0.174-2.48c0.026-0.279,0.061-0.567,0.096-0.855
			c0.115-0.97,0.214-1.839,0.264-2.715l-0.486-3.797l-0.005,0.01l-0.04-0.32l-0.048-0.126c-0.272-0.542-0.471-1.035-0.595-1.476
			c-0.013-0.039-0.018-0.085-0.024-0.135c-0.118-1.003,0.269-4.178,0.272-4.21c0.017-0.137-0.081-0.262-0.218-0.278
			c-0.132-0.011-0.261,0.08-0.278,0.218c-0.017,0.133-0.398,3.267-0.272,4.331c0.002,0.012,0.004,0.019,0.006,0.03
			c-0.338,0.532-0.702,1.066-1.058,1.582c-1.335,1.936-2.715,3.938-2.856,6.324c-0.936,0.604-1.97,0.911-3.077,0.911
			c-0.034,0-0.068,0-0.103-0.001c-0.581-0.003-1.219-0.086-1.837-0.166c-0.613-0.08-1.196-0.155-1.711-0.155
			c-0.008,0-0.016,0-0.023,0l-0.09-0.948c1.166-0.216,2.35-0.678,3.616-1.421c0.329-0.068,0.653-0.074,0.991-0.017l0.179,0.031
			l0.136-0.258c1.226-2.324,2.493-4.728,3.27-5.598l0.057-0.11c0.466-2.017,1.235-3.926,2.284-5.676
			c0.853-0.394,2.018-1.18,3.362-2.087c0.949-0.641,1.932-1.303,2.901-1.892l0.165-0.101l-0.056-0.185
			c-0.01-0.036-1.056-3.544-1.444-5.323l-0.047-0.217l-0.304,0.029c-0.379-0.999-0.758-2.117-0.809-2.452
			c0.059-0.025,0.17-0.051,0.298-0.071l0.097-0.015c0.009-0.001,0.015-0.003,0.024-0.004l0.276-0.035l-0.056-0.274l-0.004-0.098
			c-0.011-0.077-0.017-0.154-0.025-0.23l1.074-3.198l3.181-0.752l1.728,2.415v0.639l0.138,0.223h-2.198v2.459h-0.559l-0.657,0.901
			h1.006l0.604,0.753h-0.326c-0.112-0.008-0.38,0-0.379,0l-0.744,0.284c-0.064,0.025-0.096,0.098-0.07,0.162
			c0.02,0.049,0.066,0.079,0.116,0.079c0.016,0,0.03-0.003,0.046-0.009l0.681-0.267c0.033-0.001,0.1-0.002,0.168-0.003l-0.176,0.418
			l0.307,0.484l0.404,0.39l-0.142,0.774l-1.443,0.229c-0.068,0.011-0.115,0.075-0.104,0.143c0.01,0.062,0.062,0.105,0.123,0.105
			c0.007,0,0.013,0,0.02-0.001l0.686-0.109l2.619,4l0.051,0.078l4.363-1.31l0.118,0.021l0.084,0.016
			c0.896,0.184,1.745,0.389,2.523,0.611c0.413,0.113,0.818,0.234,1.222,0.362c0.226,0.411,0.437,0.841,0.627,1.28
			c0.193,0.444,0.366,0.897,0.528,1.385c0.231,0.693,0.406,1.414,0.534,2.202c0.006,0.038,0.01,0.076,0.016,0.113l0.082,0.586
			l0.029,0.029c0.094,0.188,0.183,0.384,0.273,0.58c0.043,0.095,0.089,0.185,0.131,0.281c0.081,0.184,0.156,0.376,0.233,0.566
			c0.049,0.122,0.102,0.24,0.149,0.364c0.067,0.174,0.128,0.353,0.191,0.53c0.051,0.144,0.106,0.285,0.155,0.431
			c0.055,0.164,0.103,0.33,0.155,0.495c0.051,0.162,0.104,0.323,0.151,0.485c0.043,0.148,0.079,0.297,0.119,0.445
			c0.048,0.18,0.1,0.361,0.144,0.541c0.036,0.146,0.064,0.291,0.096,0.436c0.04,0.181,0.084,0.363,0.119,0.542
			c0.031,0.159,0.054,0.314,0.081,0.472c0.021,0.122,0.044,0.245,0.063,0.366v1.862c0,0.69,0.56,1.25,1.25,1.25s1.25-0.56,1.25-1.25
			V8.355C47.095,4.749,44.161,1.816,40.556,1.816z M8.888,35.392v5.871L7.3,41.287l-1.17-3.36l0.673-2.194L8.888,35.392z
			 M11.404,41.785c1.425,0.12,2.792,0.109,4.064-0.036c0.231-0.026,0.463-0.053,0.694-0.089c0.231-0.035,0.463-0.08,0.685-0.123
			c0.122-0.019,0.243-0.044,0.365-0.07l0.67-0.172c0.309-0.079,0.636-0.179,1.029-0.313l0.081-0.027l0.047-0.072
			c0.2-0.305,0.41-0.619,0.626-0.945l0.445-0.671c0.186-0.282,0.371-0.574,0.554-0.871c0.144-0.222,0.283-0.443,0.425-0.67
			l0.151-0.241c0.379-0.626,0.759-1.262,1.121-1.914c0.235-0.424,0.451-0.831,0.652-1.229l0.264,2.071
			c-0.055,0.884-0.163,1.837-0.267,2.76l-0.083,0.742c-0.115,1.011-0.215,2.038-0.168,2.698l0.003,0.048v0.088l0.093,0.051
			l-0.266,1.899H8.245c-2.222,0-4.03-1.812-4.03-4.039V8.355c0-2.167,1.665-3.9,3.794-4.014v30.688l-1.593,0.26l-0.813,2.647
			l1.343,3.856l1.063-0.017v1.772h1.974v-1.811l0.711-0.016C10.936,41.749,11.167,41.767,11.404,41.785z M31.707,13.921L31.2,13.565
			l-0.318-1.137l0.351,0.261l0.979-0.227l0.298-0.737l0.371,0.601L31.707,13.921z M44.595,31.784
			c-0.004-0.017-0.009-0.034-0.013-0.05c-0.041-0.153-0.078-0.305-0.122-0.458c-0.034-0.118-0.074-0.234-0.109-0.351
			c-0.066-0.216-0.13-0.432-0.202-0.646c-0.027-0.081-0.058-0.159-0.086-0.239c-0.086-0.248-0.173-0.496-0.267-0.739
			c-0.028-0.071-0.058-0.14-0.087-0.21c-0.099-0.248-0.198-0.496-0.304-0.737c-0.047-0.107-0.098-0.208-0.147-0.314
			c-0.09-0.195-0.178-0.392-0.272-0.58c-0.025-0.199-0.051-0.392-0.084-0.591c-0.133-0.814-0.314-1.56-0.553-2.276
			c0-0.001-0.001-0.001-0.001-0.002c0,0,0-0.001,0-0.001c0-0.001,0-0.001-0.001-0.002c-0.141-0.44-0.324-0.919-0.543-1.424
			c-0.211-0.485-0.445-0.959-0.696-1.41l-0.049-0.086l-0.094-0.03c-0.441-0.142-0.885-0.274-1.334-0.397
			c-0.797-0.227-1.634-0.429-2.569-0.621l-0.043-0.008l-0.782-0.15c-0.204-0.039-0.408-0.079-0.612-0.111l-0.156-0.157l-1.935-1.959
			c0.052-0.26,0.097-0.519,0.142-0.781c0.022-0.111,0.042-0.222,0.062-0.333c0.02-0.108,0.039-0.217,0.062-0.34l0.03-0.176
			c0.011-0.064,0.022-0.129,0.031-0.188c0.044-0.266,0.088-0.542,0.121-0.8c0.013-0.064,0.023-0.127,0.034-0.19l0.411-0.008
			l0.045-0.188c0.698-2.899,0.547-3.059,0.45-3.161c-0.093-0.103-0.247-0.164-0.499-0.194c0.033-1.275-0.039-2.437-0.22-3.542
			c-0.045-0.286-0.099-0.582-0.161-0.867l-0.024-0.113L33.918,7.3c-0.14-0.075-0.279-0.14-0.434-0.201
			c-0.029-0.009-0.058-0.023-0.144-0.061c-0.186-0.083-0.372-0.149-0.553-0.203c-1.213-0.392-2.48-0.437-3.821-0.155
			c-0.086,0.016-0.171,0.031-0.256,0.05c-0.21,0.051-0.424,0.117-0.638,0.183c-0.095,0.031-0.191,0.051-0.286,0.085
			c-0.612,0.21-1.24,0.485-1.886,0.827c-0.023,0.008-0.054,0.021-0.066,0.033l-0.127,0.072l-0.011,0.141
			c-0.035,0.463-0.053,1.035-0.053,1.653c0,0.231,0,0.481,0.009,0.696c-0.009,0.147-0.001,0.286,0.008,0.428l0.053,0.97
			c0.002,0.037,0.005,0.075,0.009,0.108c0.014,0.148,0.028,0.292,0.045,0.43c-0.215,0.042-0.456,0.123-0.574,0.284
			c-0.077,0.113-0.206,0.301,0.86,3.077l0.068,0.178l0.242-0.023c0.365,1.595,1.139,4.24,1.351,4.958
			c-0.927,0.569-1.856,1.197-2.757,1.805c-1.306,0.881-2.54,1.713-3.357,2.077l-0.072,0.032l-0.041,0.067
			c-1.087,1.796-1.884,3.756-2.37,5.827c-0.812,0.943-2.057,3.299-3.266,5.591c-0.351-0.039-0.692-0.022-1.04,0.055l-0.073,0.028
			c-1.161,0.686-2.245,1.128-3.304,1.35c-0.016-0.413-0.067-1.39-0.183-1.692c-0.016-0.066-0.044-0.111-0.054-0.124l-0.059-0.077
			c-0.025-0.023-0.058-0.054-0.062-0.054c0,0,0,0,0,0.001c-0.027-0.027-0.055-0.055-0.105-0.088l-0.107-0.061
			c-0.051-0.04-0.1-0.064-0.146-0.085c-0.038-0.025-0.076-0.045-0.115-0.064l-0.098-0.046c-0.017-0.008-0.033-0.015-0.062-0.027
			l-0.074-0.692l-0.389,0.059V4.325l30.572-0.008c2.228,0,4.039,1.812,4.039,4.039V31.784z M33.953,14.927
			c0.118-0.856,0.207-1.713,0.257-2.567c0.158,0.01,0.259,0.026,0.306,0.038c-0.007,0.338-0.238,1.492-0.482,2.528L33.953,14.927z"
			/>
		<polygon fill="#444444" points="29.723,12.202 29.521,11.494 27.438,11.694 27.205,12.34 29.231,12.735 		"/>
	</g>
</g>
</svg>
