<?xml version="1.0" encoding="utf-8"?>
<!-- Generator: Adobe Illustrator 22.0.1, SVG Export Plug-In . SVG Version: 6.00 Build 0)  -->
<svg version="1.1" id="Layer_1" xmlns="http://www.w3.org/2000/svg" xmlns:xlink="http://www.w3.org/1999/xlink" x="0px" y="0px"
	 viewBox="0 0 50 50" style="enable-background:new 0 0 50 50;" xml:space="preserve">
<style type="text/css">
	.st0{fill:#00DFFC;}
	.st1{fill:#00C8E2;}
	.st2{fill:none;}
	.st3{fill:#444444;}
</style>
<g>
	<polygon class="st0" points="48.4,12.6 47.7,16.5 44.9,31.2 12.4,31.2 39.1,12.6 	"/>
	<polygon class="st1" points="44.9,31.2 26.5,31.2 47.7,16.5 	"/>
	<g>
		<path class="st2" d="M43.1,37.7c-1.3,0-2.3,1-2.3,2.3s1,2.3,2.3,2.3c1.3,0,2.3-1,2.3-2.3S44.4,37.7,43.1,37.7z"/>
		<circle class="st0" cx="21.9" cy="40" r="2.3"/>
		<path class="st3" d="M49.4,11.8c-0.2-0.3-0.6-0.5-1-0.5h-9.3H19.5l-0.7-5.1c-0.1-0.6-0.6-1.1-1.2-1.1h-5.3c-0.7,0-1.2,0.6-1.2,1.2
			s0.6,1.2,1.2,1.2h4.2l0.7,5.1c0.1,0.6,0.6,1.1,1.2,1.1h20.8h7.8l-3.1,16.1H12.4h-2c-0.7,0-1.2,0.6-1.2,1.2s0.6,1.2,1.2,1.2h2h32.5
			c0.6,0,1.1-0.4,1.2-1l3.5-18.6C49.7,12.5,49.6,12.1,49.4,11.8z"/>
		<path class="st3" d="M43.1,35.2c-2.6,0-4.8,2.1-4.8,4.8s2.1,4.8,4.8,4.8c2.6,0,4.8-2.1,4.8-4.8S45.8,35.2,43.1,35.2z M43.1,42.3
			c-1.3,0-2.3-1-2.3-2.3s1-2.3,2.3-2.3c1.3,0,2.3,1,2.3,2.3S44.4,42.3,43.1,42.3z"/>
		<path class="st3" d="M21.9,35.2c-2.6,0-4.8,2.1-4.8,4.8s2.1,4.8,4.8,4.8s4.8-2.1,4.8-4.8S24.6,35.2,21.9,35.2z M21.9,42.3
			c-1.3,0-2.3-1-2.3-2.3s1-2.3,2.3-2.3s2.3,1,2.3,2.3S23.2,42.3,21.9,42.3z"/>
		<path class="st3" d="M5.8,16.8h10.5c0.4,0,0.8-0.3,0.8-0.8s-0.3-0.8-0.8-0.8H5.8c-0.4,0-0.8,0.3-0.8,0.8S5.4,16.8,5.8,16.8z"/>
		<path class="st3" d="M13.8,25.1c0-0.4-0.3-0.8-0.8-0.8H5.7c-0.4,0-0.8,0.3-0.8,0.8s0.3,0.8,0.8,0.8H13
			C13.4,25.9,13.8,25.6,13.8,25.1z"/>
		<path class="st3" d="M7.7,20.6c0,0.4,0.3,0.8,0.7,0.8h9.9c0.4,0,0.8-0.3,0.8-0.8s-0.3-0.8-0.8-0.8H8.5C8,19.8,7.7,20.2,7.7,20.6z"
			/>
		<path class="st3" d="M5.9,20.6c0-0.4-0.3-0.8-0.8-0.8H1.1c-0.4,0-0.8,0.3-0.8,0.8s0.3,0.8,0.8,0.8h4.1C5.6,21.3,5.9,21,5.9,20.6z"
			/>
	</g>
</g>
</svg>
