<svg version="1" xmlns="http://www.w3.org/2000/svg" viewBox="0 0 50 50"><path fill="#AFE55D" d="M7.108 37.892l5.496 3.173L45.11 29.234V15.952a4.44 4.44 0 0 0-2.219-3.844L27.219 3.06a4.437 4.437 0 0 0-4.438 0L7.108 12.108a4.439 4.439 0 0 0-2.219 3.844v18.097a4.44 4.44 0 0 0 2.219 3.843z"/><path fill="#C3FF68" d="M35.789 8.91L27.7 3.521a4.437 4.437 0 0 0-4.429-.284l-16.22 8.026a4.439 4.439 0 0 0-2.461 3.693l-.202 3.153L35.789 8.91z"/><g fill="#444"><path d="M43.391 11.242L27.719 2.194a5.455 5.455 0 0 0-5.438 0L6.609 11.242a5.453 5.453 0 0 0-2.719 4.709v18.097a5.455 5.455 0 0 0 2.719 4.71l15.672 9.048a5.45 5.45 0 0 0 5.438-.001l4.328-2.499a1 1 0 1 0-.999-1.73l-4.328 2.498a3.45 3.45 0 0 1-3.439 0L7.608 37.026a3.447 3.447 0 0 1-1.719-2.978V15.952a3.45 3.45 0 0 1 1.719-2.978L23.28 3.925a3.448 3.448 0 0 1 3.439 0l15.672 9.048a3.45 3.45 0 0 1 1.719 2.978v13.283a1 1 0 1 0 2 0V15.952a5.455 5.455 0 0 0-2.719-4.71z"/><path d="M32.859 15.597a4.82 4.82 0 0 0-6.57 1.76l-1.229 2.13a.6.6 0 0 0 1.038.6l1.228-2.129a3.62 3.62 0 0 1 4.933-1.321 3.622 3.622 0 0 1 1.32 4.94l-3.105 5.374a3.629 3.629 0 0 1-3.587 1.786 3.437 3.437 0 0 1-.803-.211l.734-1.269a4.799 4.799 0 0 0 .646-2.406 4.814 4.814 0 0 0-2.401-4.162l-.003-.002-.001-.001-.002-.001a4.632 4.632 0 0 0-1.814-.608 4.796 4.796 0 0 0-4.756 2.368l-3.113 5.383a4.818 4.818 0 0 0 4.163 7.218 4.82 4.82 0 0 0 1.25-.166 4.78 4.78 0 0 0 2.925-2.241l1.229-2.122a.6.6 0 0 0-1.038-.601l-1.229 2.123a3.589 3.589 0 0 1-2.196 1.683 3.576 3.576 0 0 1-2.736-.362 3.616 3.616 0 0 1-1.329-4.931l3.113-5.383a3.595 3.595 0 0 1 3.571-1.778c.283.034.551.109.811.205l-.736 1.269a4.845 4.845 0 0 0 1.758 6.575l.001.001.002.001.144.08h.007a4.734 4.734 0 0 0 2.255.565 4.815 4.815 0 0 0 4.17-2.414l3.105-5.373a4.8 4.8 0 0 0 .646-2.407 4.814 4.814 0 0 0-2.401-4.173zm-8.645 7.743l.737-1.27a3.615 3.615 0 0 1 1.315 2.779 3.61 3.61 0 0 1-.485 1.806l-.731 1.265c-1.325-1.107-1.72-3.038-.836-4.58z"/></g></svg>