<?xml version="1.0" encoding="utf-8"?>
<!-- Generator: Adobe Illustrator 21.0.0, SVG Export Plug-In . SVG Version: 6.00 Build 0)  -->
<svg version="1.0" id="Layer_1" xmlns="http://www.w3.org/2000/svg" xmlns:xlink="http://www.w3.org/1999/xlink" x="0px" y="0px"
	 viewBox="0 0 50 50" enable-background="new 0 0 50 50" xml:space="preserve">
<g>
	<g>
		<path fill="#46B8B0" d="M46.561,24.985c0,4.828-1.59,9.276-4.258,12.87l-22.204,8.078C10.597,43.714,3.516,35.174,3.516,24.985
			c0-11.885,9.643-21.516,21.528-21.516S46.561,13.1,46.561,24.985z"/>
	</g>
	<g>
		<path fill="#4ECDC4" d="M41.626,11.273L3.516,25.139v-0.154c0-11.885,9.643-21.516,21.528-21.516
			C31.722,3.468,37.676,6.505,41.626,11.273z"/>
	</g>
	<g>
		<path fill="#444444" d="M24.962,2.216c-12.558,0-22.774,10.217-22.774,22.774s10.217,22.774,22.774,22.774
			c0.69,0,1.25-0.56,1.25-1.25s-0.56-1.25-1.25-1.25c-5.617,0-10.706-2.299-14.381-6.002c0.65-2.943,3.491-5.52,7.75-6.926
			c1.837,1.686,4.212,2.612,6.705,2.612c2.502,0,4.878-0.924,6.709-2.604c3.995,1.306,6.855,3.742,7.664,6.536
			c0.039,0.132,0.17,0.209,0.31,0.171c0.133-0.038,0.209-0.177,0.171-0.31c-0.864-2.984-3.9-5.57-8.123-6.916l-0.188-0.012
			l-0.072,0.068c-1.751,1.654-4.049,2.565-6.471,2.565c-2.414,0-4.712-0.915-6.471-2.577l-0.108-0.102l-0.141,0.045
			c-4.349,1.4-7.303,3.994-8.134,7.009c-1.86-1.986-3.319-4.342-4.265-6.949c0.483,0.103,0.98,0.159,1.49,0.159
			c2.722,0,5.758-1.46,8.483-4.192l0.104-0.105l-0.042-0.143c-0.245-0.827-0.369-1.702-0.369-2.598c0-4.009,2.531-7.594,6.297-8.921
			l0.167-0.059v-0.168c0.735-4.48-0.215-8.27-2.493-10.378c1.725-0.479,3.533-0.755,5.408-0.755c1.92,0,3.772,0.286,5.534,0.787
			c-2.259,2.122-3.191,5.909-2.445,10.377l0.024,0.145l0.139,0.049c3.76,1.34,6.286,4.926,6.286,8.921
			c0,0.905-0.124,1.783-0.368,2.609l-0.043,0.143l0.105,0.105c2.724,2.733,5.759,4.192,8.481,4.192c0.457,0,0.902-0.051,1.339-0.134
			c-0.679,1.869-1.625,3.643-2.85,5.269c-0.416,0.551-0.306,1.335,0.246,1.75c0.55,0.416,1.336,0.306,1.75-0.246
			c2.994-3.971,4.576-8.707,4.576-13.694C47.736,12.433,37.52,2.216,24.962,2.216z M21.573,15.655
			c-3.888,1.437-6.489,5.171-6.489,9.341c0,0.892,0.117,1.765,0.348,2.596c-3.196,3.159-6.796,4.506-9.721,3.719
			c-0.656-1.992-1.022-4.113-1.022-6.321c0-9.096,6.023-16.811,14.289-19.371C21.287,7.542,22.271,11.237,21.573,15.655z
			 M34.652,27.604c0.23-0.83,0.348-1.707,0.348-2.607c0-4.157-2.598-7.892-6.479-9.341c-0.699-4.385,0.263-8.061,2.54-9.998
			c8.207,2.595,14.175,10.279,14.175,19.333c0,2.199-0.348,4.342-1.02,6.375C41.32,32.063,37.79,30.706,34.652,27.604z"/>
		<path fill="#444444" d="M18.725,24.991c0,3.483,2.834,6.317,6.317,6.317s6.317-2.834,6.317-6.317c0-3.483-2.834-6.317-6.317-6.317
			S18.725,21.508,18.725,24.991z M30.859,24.991c0,3.208-2.609,5.817-5.817,5.817c-3.208,0-5.817-2.609-5.817-5.817
			c0-3.208,2.61-5.817,5.817-5.817C28.25,19.174,30.859,21.783,30.859,24.991z"/>
	</g>
</g>
</svg>
