<svg version="1" xmlns="http://www.w3.org/2000/svg" viewBox="0 0 50 50"><path fill="#DC5E82" d="M1.378 26.66l5.65 3.84c.245.165.533.254.83.254h3.88l.002-.003v5.423c0 .234.048.456.126.663l-.008-.003h-1.654a.751.751 0 0 0-.754.753v2.217l39.664-14.436v-.127a.5.5 0 0 0-.05-.218l-3.47-7.13c-.292-1.31-1.937-1.754-2.848-.766l-2.91 3.16V9.962c0-1.04-.84-1.88-1.88-1.88H13.62c-1.04 0-1.88.84-1.88 1.88v16.464l-.003-.006-6.232-4.234a1.12 1.12 0 0 0-.632-.194H1.64a.754.754 0 0 0-.754.753v2.985c0 .373.184.72.492.93z"/><path fill="#F56991" d="M39.837 11.547V9.96a1.88 1.88 0 0 0-1.88-1.88H13.62a1.88 1.88 0 0 0-1.88 1.88v11.813l28.097-10.226zM7.285 23.395l-1.78-1.21a1.12 1.12 0 0 0-.63-.193H1.64a.754.754 0 0 0-.754.753v2.978l6.4-2.328z"/><path fill="#444" d="M46.384 17.09a2.676 2.676 0 0 0-2.06-1.536 2.679 2.679 0 0 0-2.407.9l-1.194 1.38V9.96a2.77 2.77 0 0 0-2.767-2.767H13.62a2.77 2.77 0 0 0-2.767 2.767v14.786l-4.85-3.295a2.003 2.003 0 0 0-1.13-.347H1.64c-.904 0-1.64.735-1.64 1.64v2.985c0 .666.33 1.288.88 1.664l5.652 3.84c.392.266.85.406 1.325.406h2.997v4.307h-.65c-.904 0-1.64.736-1.64 1.64v3.58c0 .903.735 1.64 1.64 1.64h3.58c.904 0 1.64-.737 1.64-1.64v-2.222h2.984v2.22c0 .905.735 1.64 1.64 1.64h3.58c.904 0 1.64-.735 1.64-1.64v-2.22h3.35v2.22c0 .905.734 1.64 1.64 1.64h3.58c.903 0 1.64-.735 1.64-1.64v-2.223h2.14v2.224c0 .904.734 1.64 1.64 1.64h3.58c.903 0 1.64-.736 1.64-1.64V39.99a.886.886 0 1 0-1.772-.001v1.044H39.39v-2.092h1.998a.886.886 0 1 0 0-1.772H32.11a6.848 6.848 0 0 1-4.474-1.666 6.833 6.833 0 0 1-2.368-5.176V25.34l3.56-7.344c.184-.38.53-.62.95-.662.418-.04.806.127 1.06.462l3.206 4.21.053.064c.42.455 1.013.715 1.63.715h2.04a2.24 2.24 0 0 0 1.65-.735l3.84-4.434a.893.893 0 0 1 .817-.306.896.896 0 0 1 .7.522l3.445 7.473.008 5.023c0 1.99-.863 3.876-2.368 5.176a.886.886 0 0 0 1.16 1.34A8.6 8.6 0 0 0 50 30.33v-5.172l-3.616-8.067zM10.852 29.866H7.857a.593.593 0 0 1-.33-.1l-5.65-3.84a.236.236 0 0 1-.104-.196v-2.85h3.102c.048 0 .094.014.134.04l5.843 3.97v2.98zm2.8 11.167h-3.316V37.72h.99a2.764 2.764 0 0 0 2.294 1.226h.03v2.088zm9.843 0H20.18v-2.088h3.315v2.088zm10.21-2.092v2.092h-3.316v-2.272c.562.115 1.138.18 1.72.18h1.594zm4.063-17.93h-2.04a.445.445 0 0 1-.306-.122l-3.173-4.17a2.96 2.96 0 0 0-2.65-1.15 2.94 2.94 0 0 0-2.367 1.652l-3.643 7.503-.095 5.603a8.608 8.608 0 0 0 2.98 6.517c.135.116.277.222.418.33h-2.5c-.005 0-.008-.003-.01-.003l-.01.002h-5.068l-.01-.002-.01.002H14.55l-.01-.002-.01.002h-.91a.999.999 0 0 1-.995-1V9.962c0-.55.446-.995.995-.995h24.336c.55 0 .995.446.995.995v9.814c0 .03.015.055.018.084l-.874 1.01a.446.446 0 0 1-.326.142z"/></svg>