<svg version="1" xmlns="http://www.w3.org/2000/svg" viewBox="0 0 50 50"><path fill="#A6C1C2" d="M16.382 42.235l22.82-8.306-3.88-14.48c-1.404-5.24-7.027-8.64-14.315-6.687S10.55 20.47 11.953 25.71l4.43 16.525z"/><path fill="#B9D7D9" d="M34.03 16.62c-2.376-3.53-7.158-5.43-13.023-3.857-6.836 1.832-10.048 7.01-9.26 11.97L34.03 16.62z"/><path fill="#444" d="M40.734 36.294L37.63 24.71v-.007l-1.456-5.43c-1.396-5.21-6.83-9.393-14.64-7.825-.28-.69-.77-1.52-1.627-2.18-1.177-.907-2.698-1.23-4.517-.966-2.1.302-3.223-.714-3.568-1.77-.425-1.3.08-3.106 2.164-4.208.602-.32.833-1.065.515-1.667a1.235 1.235 0 0 0-1.666-.514c-3.337 1.763-4.08 4.944-3.358 7.154.827 2.53 3.287 3.884 6.27 3.446 1.122-.165 2.01-.008 2.638.465.34.257.573.584.733.89-7.497 2.566-10.085 8.88-8.694 14.075l4.562 17.02c.657 2.458 2.81 4.562 5.906 5.772 1.755.687 3.687 1.035 5.614 1.035 1.344 0 2.687-.17 3.965-.512a1.232 1.232 0 1 0-.638-2.382c-2.615.7-5.546.54-8.044-.438-2.357-.92-3.97-2.42-4.423-4.112L14.58 32.16l20.986-5.623 2.786 10.395a1.232 1.232 0 1 0 2.382-.638zM24.1 23.386l-1.165.312-1.487-5.55 1.164-.313 1.487 5.55zm-11.295 2.15c-1.107-4.134 1.138-9.205 7.475-11.218l.524 1.958-.53.142a1.29 1.29 0 0 0-.91 1.578l1.842 6.874a1.292 1.292 0 0 0 1.58.91l.527-.14.407 1.516-9.778 2.62-1.137-4.24zm12.344 1.238l-.408-1.517.528-.142a1.284 1.284 0 0 0 .912-1.578l-1.842-6.875a1.288 1.288 0 0 0-1.58-.91l-.527.14-.525-1.957c6.497-1.426 10.973 1.844 12.08 5.978l1.137 4.24-9.776 2.62z"/></svg>