<svg version="1" xmlns="http://www.w3.org/2000/svg" viewBox="0 0 50 50"><path fill="#CFE4E5" d="M38.23 17.096L42.89 4.61c.162-.434-.176-.893-.635-.826L26.45 5.947 12.153 3.73c-.12-1.245-1.4-2.228-2.978-2.228-1.658 0-3.002 1.082-3.002 2.416v24.845L38.23 17.096z"/><path fill="#B9D7D9" d="M25.67 5.826L12.153 3.73c-.12-1.245-1.4-2.228-2.978-2.228-1.658 0-3.002 1.082-3.002 2.416v9.004L25.67 5.826z"/><g fill="#444"><path d="M44.604 3.257a1.734 1.734 0 0 0-1.613-.636L27.355 4.76 13.03 2.54C12.4 1.24 10.91.327 9.175.327 6.873.328 5 1.938 5 3.918v42.164c0 1.98 1.873 3.59 4.176 3.59s4.176-1.61 4.176-3.59v-13.48l13.813 2.13a1.174 1.174 0 1 0 .358-2.32l-.17-.026v-4.83l5.202-.802V21.55l-5.203.803v5.2l-5.203-.804v4.833l-5.204-.802v-4.83l-3.247-.505v-5.25l3.246.497v-5.138l5.206.798v5.152l5.206.798v-5.206l-5.206-.798v-5.152l-5.206-.798v5.138L13.7 14.99V9.85l3.246.498V5.523l5.206.807v4.815l5.206.81v5.14l5.192-.8V11.16l5.206-.81V5.71l4.602-.63-1.79 4.792-2.81.418-.002 5.212-5.203.798v5.2l5.203-.8.018-.447c.048.026.085.066.138.086a1.175 1.175 0 0 0 1.51-.69l5.463-14.63a1.807 1.807 0 0 0-.28-1.763zm-33.6 42.825c0 .673-.837 1.242-1.828 1.242s-1.828-.57-1.828-1.242V3.918c0-.673.837-1.242 1.828-1.242s1.828.57 1.828 1.242v42.164zm21.545-34.99l-5.193.81V7.13l5.192-.71v4.67zm5.357 5.905l.057-1.393.513-.134-.57 1.527z"/><path d="M22.15 26.7v-5.203l-5.203-.803v5.204z"/></g></svg>