<svg version="1" xmlns="http://www.w3.org/2000/svg" viewBox="0 0 50 50"><path fill="#E28D8A" d="M9.836 6.912h3.65-.003c-.235.92-.353 1.88-.353 2.88 0 4.986 6.848 11.707 10.14 14.645.337.304.733.497 1.146.593a2.59 2.59 0 0 0-.94.524c-3.293 2.94-10.14 9.68-10.14 14.645 0 .996.117 1.962.35 2.88l21.69-7.894c-2.246-3.8-6.188-7.613-8.443-9.632a2.605 2.605 0 0 0-1.15-.58c.34-.11.663-.283.945-.537 3.282-2.937 10.14-9.658 10.14-14.644 0-1-.128-1.96-.363-2.88h-.002 3.66c.925 0 1.673-.75 1.673-1.672V2.874c0-.924-.75-1.672-1.672-1.672H9.836a1.67 1.67 0 0 0-1.672 1.673V5.24c0 .923.748 1.672 1.672 1.672zm3.837 36.175H9.87c-.943 0-1.707.672-1.707 1.5v.505l5.51-2.005z"/><path fill="#FC9D9A" d="M9.836 6.912h3.65-.003c-.235.92-.353 1.88-.353 2.88 0 1.562.672 3.294 1.697 5.027l21.68-7.892c0-.006 0-.01-.002-.016h-.002.05l5.284-1.923V2.872c0-.924-.75-1.672-1.672-1.672H9.835a1.67 1.67 0 0 0-1.67 1.673V5.24a1.67 1.67 0 0 0 1.67 1.672z"/><path fill="#444" d="M43.037 5.24V2.873A2.876 2.876 0 0 0 40.164 0H9.836a2.876 2.876 0 0 0-2.873 2.873V5.24a2.876 2.876 0 0 0 2.873 2.873h2.204c-.07.55-.11 1.112-.11 1.68 0 5.218 6.315 11.73 10.27 15.297-3.968 3.608-10.064 9.982-10.064 15.11 0 .572.04 1.134.11 1.686H9.868c-1.603 0-2.907 1.212-2.907 2.7V47.3c0 1.49 1.304 2.7 2.906 2.7h15.018a1.2 1.2 0 0 0 0-2.402H9.868c-.302 0-.504-.18-.504-.298v-2.713c0-.12.202-.3.505-.3h3.8c.007 0 .012.004.018.004l.022-.002h26.42c.304 0 .506.18.506.3v.872a1.2 1.2 0 0 0 2.402 0v-.873c0-1.488-1.304-2.7-2.907-2.7h-1.97a13.12 13.12 0 0 0 .114-1.686c0-5.19-6.305-11.708-10.272-15.296 3.97-3.618 10.066-10.006 10.066-15.11 0-.562-.042-1.123-.116-1.68h2.212a2.878 2.878 0 0 0 2.873-2.874zm-33.673 0V2.873c0-.26.21-.472.472-.472h30.328c.26 0 .472.212.472.473V5.24c0 .26-.21.472-.472.472H9.836a.473.473 0 0 1-.472-.472zm26.51 34.96c0 .377-.03.756-.07 1.135l-9.378-5.99a2.618 2.618 0 0 0-2.802 0l-9.037 5.708c-.022-.283-.05-.563-.05-.853 0-3.166 3.64-8.306 9.73-13.745.095-.083.205-.133.313-.187.14.016.278.038.418.038.253 0 .505-.032.754-.083.134.057.265.126.38.226 6.1 5.46 9.74 10.6 9.74 13.75zm-.207-30.407c0 2.078-1.593 5.025-4.424 8.357H18.746c-2.825-3.324-4.414-6.27-4.414-8.357 0-.575.06-1.133.147-1.68h21.034c.09.556.153 1.117.153 1.68z"/></svg>