<svg version="1" xmlns="http://www.w3.org/2000/svg" viewBox="0 0 50 50"><path fill="#46B8B0" d="M18.397 14.855a.446.446 0 0 0-.553-.038A12.425 12.425 0 0 0 12.554 25c0 3.914 1.808 7.407 4.633 9.688.244.197.607.05.67-.256a30.587 30.587 0 0 1 5.333-12.04.43.43 0 0 0 .056-.41 19.052 19.052 0 0 0-4.85-7.127zm13.288-.357A12.397 12.397 0 0 0 25 12.554c-1.02 0-2.013.123-2.96.355a.414.414 0 0 0-.235.64c1.253 1.852 3.824 3.882 4.47 5.664.555 1.536.69 4.492.972 6.143.792 3.45 1.412 5.64 3.165 8.044l4.85-1.765c1.25-1.927 2.184-4.252 2.184-6.635 0-2.743-.886-5.276-2.387-7.333a12.574 12.574 0 0 0-3.375-3.17z"/><path fill="#46B8B0" d="M7.585 41.71l9.26-3.37C12.356 35.59 9.358 30.647 9.358 25c0-4.37 1.79-8.32 4.68-11.158.28-.275.06-.75-.333-.72C8.914 13.483 3.81 16 1.625 19.21a1.523 1.523 0 0 0-.2.4C1.068 20.725.848 23.193.848 25c0 4.87 1.44 9.402 3.922 13.195a24.13 24.13 0 0 0 2.815 3.514z"/><path fill="#46B8B0" d="M7.49 9.547a15.612 15.612 0 0 1 4.754-.736c2.263 0 4.414.48 6.357 1.347.41.183.866.202 1.29.056 1.6-.553 3.32-.854 5.11-.854 2.435 0 4.74.555 6.795 1.55h.003c5.236 2.53 8.846 7.886 8.846 14.09 0 1.742-.3 3.412-.826 4.977l9.326-3.394c.008-.527.01-1.055.01-1.583a24.05 24.05 0 0 0-5.18-14.947h-.003C39.55 4.446 32.697.848 25 .848c-7.135 0-13.546 3.095-17.967 8.012-.292.325.04.82.456.687zm18.704 23.296v-.003c-.667-1.353-1.48-3.658-1.778-5.555-.063-.4-.604-.483-.79-.123a18.92 18.92 0 0 0-2.104 9.475l5.65-2.056c-.355-.56-.683-1.14-.978-1.737z"/><path fill="#4ECDC4" d="M18.397 14.855a.446.446 0 0 0-.553-.038 12.51 12.51 0 0 0-3.517 3.78L20 16.534a19.118 19.118 0 0 0-1.603-1.678zm9.695-1.915a12.53 12.53 0 0 0-6.052-.03c-.282.068-.397.4-.234.64.394.583.85 1.21 1.308 1.85l5.952-2.166c-.32-.11-.644-.21-.974-.293zm-17.948 7.18a15.62 15.62 0 0 1 3.898-6.278c.28-.275.058-.75-.334-.72-4.793.362-9.896 2.88-12.082 6.088a1.523 1.523 0 0 0-.2.4c-.264.825-.453 2.39-.534 3.88l9.252-3.37zM7.49 9.547a15.612 15.612 0 0 1 4.754-.736c2.263 0 4.414.48 6.357 1.347.41.183.866.202 1.29.056 1.6-.553 3.32-.854 5.11-.854 2.435 0 4.74.555 6.795 1.55h.003c.498.24.976.513 1.443.804l9.245-3.364C38.087 3.73 31.882.848 25 .848c-7.135 0-13.546 3.095-17.967 8.012-.292.325.04.82.456.687z"/><g fill="#444"><path d="M38.044 37.287c-.466 0-.934-.02-1.39-.058a1.28 1.28 0 0 1-.823-2.15 14.75 14.75 0 0 0 3.965-10.08c0-5.597-3.235-10.792-8.252-13.27l-.12-.057A14.62 14.62 0 0 0 25 10.207c-1.657 0-3.284.27-4.835.808a2.596 2.596 0 0 1-1.91-.082 14.645 14.645 0 0 0-6.012-1.274c-1.537 0-3.05.233-4.497.695A1.267 1.267 0 0 1 6.28 9.83a1.256 1.256 0 0 1 .123-1.537A25.043 25.043 0 0 1 25 0c7.568 0 14.607 3.35 19.38 9.204h.002l.257.323C48.145 13.972 50 19.324 50 25v.17c0 2.733 0 5.56-1.333 8.02a2.49 2.49 0 0 1-.525.674c-2.12 1.918-6.556 3.423-10.098 3.423zm-.4-1.7c3.615.092 7.715-1.49 9.363-2.98a.853.853 0 0 0 .17-.222c1.13-2.084 1.13-4.576 1.128-7.214V25c0-5.22-1.68-10.142-4.863-14.252l-.137-.17C38.855 4.932 32.183 1.695 25 1.695a23.35 23.35 0 0 0-16.3 6.65 16.587 16.587 0 0 1 3.544-.382c2.335 0 4.59.478 6.702 1.42a.897.897 0 0 0 .666.028c1.73-.598 3.543-.9 5.388-.9 2.446 0 4.796.52 6.987 1.55h.002l.178.083c5.664 2.737 9.324 8.568 9.324 14.853 0 3.895-1.36 7.62-3.85 10.59z"/><path d="M25 50a25.04 25.04 0 0 1-15.776-5.607 24.972 24.972 0 0 1-5.164-5.735A24.88 24.88 0 0 1 0 25c0-1.8.217-4.393.62-5.65.066-.21.165-.41.304-.615 2.287-3.358 7.636-6.073 12.72-6.46a1.27 1.27 0 0 1 1.257.747c.223.49.118 1.05-.265 1.425A14.676 14.676 0 0 0 10.207 25c0 5.64 3.136 10.71 8.183 13.236a14.618 14.618 0 0 0 5.853 1.54 14.824 14.824 0 0 0 6.8-1.27c.67-.3 1.413-.31 2.093-.02a14.69 14.69 0 0 0 5.754 1.16.848.848 0 0 1 0 1.695c-2.226 0-4.384-.434-6.416-1.294a.91.91 0 0 0-.74.007 16.45 16.45 0 0 1-7.577 1.415 16.302 16.302 0 0 1-6.527-1.717C12.006 36.94 8.512 31.287 8.512 25c0-4.067 1.456-7.896 4.122-10.908-4.245.622-8.454 2.873-10.308 5.595a.69.69 0 0 0-.092.178c-.298.93-.54 3.233-.54 5.135 0 4.545 1.31 8.947 3.784 12.73a23.264 23.264 0 0 0 4.816 5.348A23.342 23.342 0 0 0 25 48.304.848.848 0 0 1 25 50z"/><path d="M25 38.293a13.408 13.408 0 0 1-3.377-.434 1.283 1.283 0 0 1-.948-1.18 19.63 19.63 0 0 1 2.197-9.907 1.27 1.27 0 0 1 2.38.38c.283 1.8 1.07 4.033 1.7 5.31l.09.178a18.12 18.12 0 0 0 2.048 3.172c.275.34.358.79.223 1.205a1.25 1.25 0 0 1-.87.824c-1.088.292-2.21.443-3.34.45a.556.556 0 0 1-.103.003zm-2.642-1.997a11.76 11.76 0 0 0 2.64.303l.097-.002a11.54 11.54 0 0 0 2.27-.238 19.814 19.814 0 0 1-1.932-3.14l-.088-.184c-.515-1.085-1.125-2.73-1.512-4.34a17.97 17.97 0 0 0-1.475 7.6zm9.652-.286c-.354 0-.708-.148-.957-.435-2.157-2.468-4.73-6.505-4.73-11.716 0-4.046-1.473-5.612-3.18-7.426-.676-.718-1.376-1.463-2.03-2.395a1.263 1.263 0 0 1 .725-1.955 13.352 13.352 0 0 1 6.463.035c1.364.35 2.655.91 3.84 1.664a13.38 13.38 0 0 1 3.602 3.383A13.2 13.2 0 0 1 38.292 25c0 4.24-2.748 8.44-5.472 10.716a1.252 1.252 0 0 1-.81.293zm.32-1.55zm-.597-.044zm-8.84-20.824c.48.61.99 1.15 1.486 1.68 1.79 1.902 3.64 3.87 3.64 8.586 0 4.467 2.13 8.007 4.033 10.28 2.248-2.026 4.545-5.63 4.545-9.138 0-2.477-.77-4.84-2.224-6.834a11.637 11.637 0 0 0-3.145-2.954 11.537 11.537 0 0 0-5.52-1.79c-.927-.056-1.894 0-2.817.17z"/><path d="M17.437 35.626c-.28 0-.555-.094-.78-.277A13.247 13.247 0 0 1 11.706 25c0-4.322 2.112-8.387 5.65-10.876a1.3 1.3 0 0 1 1.616.11 19.997 19.997 0 0 1 5.065 7.443c.158.406.097.86-.163 1.216a29.552 29.552 0 0 0-5.187 11.708 1.268 1.268 0 0 1-1.25 1.026zm.626-19.92A11.616 11.616 0 0 0 13.403 25c0 3.283 1.366 6.364 3.773 8.563a31.224 31.224 0 0 1 5.197-11.488 18.322 18.322 0 0 0-4.31-6.37zm5.127 6.686h.008-.008zm-.684-.5z"/></g></svg>