<svg version="1" xmlns="http://www.w3.org/2000/svg" viewBox="0 0 50 50"><path fill="#E589EF" d="M14.662 46.586l29.392-10.697c.113-.341.222-.682.319-1.028.596-2.112.898-4.296.898-6.49h.816c.835 0 1.495-.706 1.446-1.539A26.219 26.219 0 0 0 39.91 9.849a26.211 26.211 0 0 0-16.978-7.633 1.452 1.452 0 0 0-1.54 1.445l-.003 5.289C9.671 8.941.232 19.539 2.22 31.592c1.14 6.909 6.015 12.618 12.442 14.994z"/><path fill="#F799FF" d="M36.627 7.034a26.21 26.21 0 0 0-13.643-4.819 1.452 1.452 0 0 0-1.54 1.445l-.003 5.289c-7.138-.004-13.425 3.931-16.803 9.729L36.627 7.034z"/><path fill="#444" d="M40.767 8.991a27.388 27.388 0 0 0-17.763-7.986 2.665 2.665 0 0 0-2.824 2.654l-.002 4.113c-5.593.328-10.832 2.943-14.522 7.29a20.615 20.615 0 0 0-4.632 16.727c1.418 8.596 8.418 15.565 17.022 16.948a20.79 20.79 0 0 0 3.296.263c7.091 0 13.748-3.663 17.596-9.855.521-.838-.161-1.444-.59-1.741l-13.75-8.76H44.05a22.654 22.654 0 0 1-1.143 6.865 1.212 1.212 0 1 0 2.301.761 25.105 25.105 0 0 0 1.247-6.714 2.672 2.672 0 0 0 1.566-.81 2.682 2.682 0 0 0 .722-1.987 27.385 27.385 0 0 0-7.976-17.768zM18.431 46.342c-7.589-1.22-13.763-7.366-15.015-14.948a18.198 18.198 0 0 1 4.087-14.763c3.458-4.072 8.448-6.42 13.714-6.467l-.01 17.584a.89.89 0 0 0 .584.832l14.933 9.515c-3.94 6.17-11.082 9.408-18.293 8.247zm27.826-19.258a.228.228 0 0 1-.17.074l-23.484-.002V3.659c0-.082.04-.137.074-.169a.276.276 0 0 1 .182-.066 24.972 24.972 0 0 1 16.193 7.281 24.968 24.968 0 0 1 7.27 16.197.24.24 0 0 1-.065.182z"/></svg>