<svg version="1" xmlns="http://www.w3.org/2000/svg" viewBox="0 0 50 50"><path fill="#B9D78D" d="M8.25 26.94L3.747 39.315l33.786-12.297-.03-.075.98-2.94c-.014.152-.045.3-.045.458 0 .738.177 1.43.47 2.056l9.065-3.3c-.552-2.076-2.427-3.614-4.677-3.614a4.855 4.855 0 0 0-4.736 3.805c.07-.61.12-1.227.12-1.856 0-.8-.08-1.583-.196-2.353H7.494A15.75 15.75 0 0 0 7.3 21.55c0 1.905.355 3.722.976 5.41l-.025-.02z"/><path fill="#CFF09E" d="M7.938 26.94l-.086.238 21.93-7.982h-22.6a15.75 15.75 0 0 0-.196 2.354c0 1.904.356 3.72.977 5.41l-.025-.02z"/><g fill="#444"><path d="M43.013 30.267a5.875 5.875 0 0 0 5.87-5.87 5.876 5.876 0 0 0-5.87-5.87 5.84 5.84 0 0 0-3.737 1.348c-.03-.29-.058-.574-.106-.892l-.13-.86H6.31l-.13.86a16.55 16.55 0 0 0-.206 2.505c0 1.876.325 3.674.898 5.36l-5.643 15.5a1.766 1.766 0 0 0 .304 1.76c.416.498 1.05.73 1.7.616l7.704-1.41 5 6.048a1.786 1.786 0 0 0 1.688.61 1.772 1.772 0 0 0 1.367-1.148l3.682-10.12 3.683 10.122A1.772 1.772 0 0 0 28.045 50c.523 0 1.02-.23 1.376-.65l4.99-6.036 7.723 1.412a1.782 1.782 0 0 0 1.68-.614 1.77 1.77 0 0 0 .31-1.763l-2.01-5.522a1.012 1.012 0 0 0-1.9.693l1.87 5.14-8.474-1.55-5.49 6.64-3.52-9.68a16.54 16.54 0 0 0 10.036-4.923 1.01 1.01 0 1 0-1.448-1.413 14.565 14.565 0 0 1-10.51 4.432C14.584 36.166 8 29.58 8 21.488c0-.426.024-.865.073-1.343H37.28c.05.477.073.915.073 1.343 0 .76-.058 1.52-.173 2.264v.003c-.023.21-.037.425-.037.642a5.876 5.876 0 0 0 5.87 5.87zm-22.26 7.802l-3.523 9.68-5.488-6.64-8.474 1.552 4.78-13.13c2.552 4.622 7.23 7.906 12.704 8.537zm22.26-17.52c2.12 0 3.847 1.727 3.847 3.848s-1.726 3.847-3.847 3.847-3.847-1.726-3.847-3.847 1.726-3.847 3.847-3.847z"/><path d="M34.828 23.542c.03-.33.044-.663.044-1a.81.81 0 0 0-1.618 0c0 .29-.013.574-.038.856a.81.81 0 0 0 1.612.144zM32.73 25.67a9.53 9.53 0 0 1-9 6.396.81.81 0 0 0 0 1.618A11.15 11.15 0 0 0 34.26 26.2a.81.81 0 1 0-1.53-.53zm-8.726-13.52a1.012 1.012 0 0 0 1.208 1.624c.12-.088 2.907-2.2 2.907-6.79S25.33.285 25.21.198a1.008 1.008 0 0 0-1.406.21 1.016 1.016 0 0 0 .198 1.413c.085.065 2.092 1.64 2.092 5.166 0 3.52-2 5.095-2.092 5.165z"/></g></svg>