<svg version="1" xmlns="http://www.w3.org/2000/svg" viewBox="0 0 50 50"><path fill="#E56060" d="M22.127 20.122c3.1 0 5.615-2.514 5.615-5.615 0-3.1-4.118-13.226-5.615-13.226s-5.615 10.127-5.615 13.228c0 3.1 2.514 5.615 5.615 5.615zm-7.523 11.734c.306-.305.832-.06.832.373v4.783l13.382-4.87v-6.16a2.993 2.993 0 0 0-2.994-2.994h-6.788a5.05 5.05 0 0 0-5.05 5.05v3.105c.002 1.04.295 1.032.618.71z"/><path fill="#FF6B6B" d="M26.324 7.64c-1.274-3.195-2.84-6.135-3.648-6.135-1.065 0-3.453 5.118-4.745 9.19l8.395-3.054z"/><path fill="#444" d="M37.72 37.516a3.962 3.962 0 0 0-3.952 3.83H16.58v-8.894a1.65 1.65 0 0 0-1.448-1.639V28.26a3.91 3.91 0 0 1 3.905-3.904h6.788c1.02 0 1.85.83 1.85 1.85v5.937a1.141 1.141 0 1 0 2.284 0v-5.937a4.142 4.142 0 0 0-4.137-4.137H23.27v-.687c3.184-.546 5.616-3.318 5.616-6.654 0-2.436-3.903-14.37-6.758-14.37s-6.76 11.933-6.76 14.37c0 3.335 2.433 6.107 5.616 6.653v.685h-1.947a6.198 6.198 0 0 0-6.192 6.19v3.108c0 .427 0 1.56.933 1.947.108.045.3.096.515.098v7.935h-4.087a1.89 1.89 0 0 0-1.667.995 1.89 1.89 0 0 0 .082 1.94l2.965 4.505c.35.533.94.85 1.58.85h17.916c.638 0 1.23-.317 1.58-.85l2.712-4.123a3.93 3.93 0 0 0 2.343.784 3.97 3.97 0 0 0 3.965-3.966 3.967 3.967 0 0 0-3.964-3.966v.002zM17.657 14.73c0-2.5 3.04-10.028 4.472-11.832 1.43 1.805 4.47 9.334 4.47 11.833 0 2.468-2.006 4.474-4.47 4.474s-4.473-2.007-4.473-4.472v-.002zm13.216 32.622h-17.49l-2.445-3.718H33.32l-2.447 3.718zm6.85-4.19c-.927 0-1.68-.754-1.68-1.68 0-.925.754-1.68 1.68-1.68a1.681 1.681 0 0 1-.002 3.36h.003z"/></svg>