<svg version="1" xmlns="http://www.w3.org/2000/svg" viewBox="0 0 50 50"><path fill="#FCC34F" d="M25.52 14.626c-12.784 0-23.148 10.364-23.148 23.148 0 .865.053 1.717.15 2.555l3.52 4.114s.616.265 2.493.572L47.594 30.8c-2.959-9.375-11.721-16.174-22.074-16.174z"/><path fill="#FDCF72" d="M36.488 17.472a22.992 22.992 0 0 0-11.09-2.845c-9.812 0-18.191 6.109-21.559 14.729l32.649-11.884z"/><g fill="#444"><path d="M48.232 40.612a.739.739 0 0 0-.638-.38H4.079l-.359-.419a20.87 20.87 0 0 1-.101-2.037c0-3.173.684-6.188 1.903-8.914 3.044 1.087 6.815 1.909 11.005 2.388a.748.748 0 0 0 .17-1.487c-4.007-.458-7.607-1.233-10.515-2.255a22.06 22.06 0 0 1 6.742-7.633c3.511.837 7.928 1.299 12.598 1.299 4.686 0 9.116-.465 12.632-1.307a21.741 21.741 0 0 1 6.709 7.638c-2.907 1.024-6.509 1.799-10.516 2.258a.748.748 0 1 0 .17 1.487c4.187-.48 7.956-1.303 10.999-2.39.345.778.663 1.573.92 2.402a1.242 1.242 0 0 0 1.561.82 1.246 1.246 0 0 0 .82-1.561C45.629 20.268 36.266 13.379 25.52 13.379c-1.229 0-2.437.093-3.618.27V6.094a1.247 1.247 0 1 0-2.494 0v8.062c-.42.109-.835.231-1.247.361v-3.442a1.247 1.247 0 1 0-2.494 0v4.392C7.111 19.26 1.125 27.829 1.125 37.775c0 .892.053 1.8.158 2.7l.044.377 3.955 4.622.265.115c.382.166 4.191 1.617 19.973 1.617s19.59-1.451 19.973-1.617l.254-.11 2.699-3.043a1.248 1.248 0 0 0-.105-1.761c-.033-.029-.075-.038-.109-.063zM36.349 18.728c-3.14.614-6.884.95-10.826.95-3.932 0-7.666-.334-10.801-.945a21.755 21.755 0 0 1 10.799-2.859 21.895 21.895 0 0 1 10.828 2.854zm7.934 24.642c-1.01.301-5.458 1.341-18.762 1.341-13.306 0-17.754-1.04-18.75-1.335l-1.41-1.648H45.74l-1.457 1.642z"/><circle cx="25.52" cy="31.005" r="6.522"/><circle cx="34.03" cy="35.839" r="1.689"/></g></svg>