<svg version="1" xmlns="http://www.w3.org/2000/svg" viewBox="0 0 50 50"><path fill="#EAF27E" d="M41.997 28.008l2.542-6.983c.124-.343.115-.72-.027-1.058l-3.678-8.72c-.157-.37-.46-.66-.84-.797L27.128 5.767a1.447 1.447 0 0 0-1.156.072l-8.42 4.314a1.45 1.45 0 0 0-.702.794l-11 30.217 36.147-13.156zM28.063 14.316a3.043 3.043 0 0 1 5.72 2.083 3.044 3.044 0 1 1-5.72-2.084z"/><path fill="#FDFF99" d="M27.885 15.556a3.03 3.03 0 0 1 .174-1.24 3.043 3.043 0 0 1 5.314-.757l7.254-2.642a1.446 1.446 0 0 0-.637-.468L27.125 5.767a1.447 1.447 0 0 0-1.156.072l-8.422 4.314c-.325.167-.575.45-.7.794l-3.62 9.944 14.66-5.336z"/><g fill="#444"><path d="M28.317 43.465a1.175 1.175 0 0 0-.302.257 1.232 1.232 0 0 0-.08-.307 2.892 2.892 0 0 0-.168-.333l-2.305-3.84-.46 1.263a.968.968 0 0 0-.07.403c.01.116.056.24.14.373l1.956 3.17c.06.097.092.197.098.3a.954.954 0 0 1-.068.365l-.125.343-3.3-1.202-.533 1.463 7.87 2.864.534-1.463-3.46-1.258.17-.462a1.05 1.05 0 0 1 .2-.364.707.707 0 0 1 .295-.17l3.713-1.168a.645.645 0 0 0 .294-.136c.08-.068.15-.188.214-.362l.472-1.295-4.677 1.39a1.862 1.862 0 0 0-.408.17zm3.58-6.043c.186-.512.285-.98.297-1.408a2.84 2.84 0 0 0-.187-1.146 2.3 2.3 0 0 0-.61-.87 2.96 2.96 0 0 0-.98-.57 2.95 2.95 0 0 0-1.076-.19 2.135 2.135 0 0 0-.996.267c-.312.17-.6.424-.863.764-.262.34-.49.77-.68 1.297l-.933 2.562 7.866 2.862.532-1.463-2.77-1.01.402-1.098zm-1.142-.416l-.4 1.1-2.824-1.03.4-1.098c.1-.27.216-.49.352-.667a1.4 1.4 0 0 1 .456-.394c.167-.087.347-.132.542-.136.195-.003.397.034.607.11.22.08.41.187.566.317.155.13.273.284.35.46.077.176.113.376.11.6a2.44 2.44 0 0 1-.158.74zm-2.365-5.808l.533-1.47 7.866 2.864-.536 1.47zm9.853-2.328c.158-.434.234-.844.224-1.23a2.682 2.682 0 0 0-.233-1.055 2.422 2.422 0 0 0-.616-.827 2.886 2.886 0 0 0-.932-.546 2.11 2.11 0 0 0-.89-.147c-.265.02-.51.086-.727.2-.22.113-.423.26-.605.44s-.354.368-.514.566c-.16.2-.313.395-.46.588a4.112 4.112 0 0 1-.447.497c-.148.14-.303.237-.464.296a.74.74 0 0 1-.52-.013 1.09 1.09 0 0 1-.372-.222.883.883 0 0 1-.228-.345 1.18 1.18 0 0 1-.065-.455 1.8 1.8 0 0 1 .12-.557c.08-.225.18-.41.297-.554.116-.145.23-.266.345-.364.113-.098.215-.183.304-.253a.514.514 0 0 0 .174-.214.372.372 0 0 0 .02-.206.435.435 0 0 0-.118-.2l-.56-.61c-.362.18-.687.44-.974.78a3.89 3.89 0 0 0-.686 1.203c-.15.41-.218.797-.207 1.163.01.365.08.696.21.99a2.302 2.302 0 0 0 1.317 1.24c.36.133.68.19.963.177a1.91 1.91 0 0 0 .76-.19c.226-.11.43-.255.61-.436.18-.18.348-.37.502-.57.155-.197.302-.394.443-.59.14-.194.287-.36.438-.5.15-.137.31-.234.48-.29.166-.056.354-.046.562.03.37.133.612.35.726.65.115.3.097.66-.055 1.077-.1.273-.22.492-.365.66a3.01 3.01 0 0 1-.432.414c-.142.11-.27.205-.383.283a.562.562 0 0 0-.218.253.384.384 0 0 0-.018.206.58.58 0 0 0 .075.19l.547.68c.212-.094.416-.216.614-.364s.382-.317.554-.507a4.075 4.075 0 0 0 .803-1.334z"/><path d="M45.624 19.498l-3.68-8.72a2.66 2.66 0 0 0-1.536-1.462L39.263 8.9c.922-3.926-.247-7.534-2.898-8.498-2.647-.965-5.863 1.048-7.68 4.647L27.54 4.63a2.656 2.656 0 0 0-2.12.133L17 9.08a2.65 2.65 0 0 0-1.285 1.455L4.328 41.818a2.64 2.64 0 0 0 .09 2.03c.298.644.83 1.13 1.497 1.374L18.4 49.766a1.21 1.21 0 0 0 .826-2.27L6.742 42.953a.233.233 0 0 1-.134-.125.238.238 0 0 1-.008-.184L17.984 11.36a.24.24 0 0 1 .116-.133l8.422-4.315a.237.237 0 0 1 .192-.012l9.96 3.625c-.565 1.225-1.327 2.277-2.184 3.023a3.98 3.98 0 0 0-2.196-1.96 4.014 4.014 0 0 0-5.14 2.396 4.015 4.015 0 0 0 3.77 5.383 3.98 3.98 0 0 0 1.693-.378 3.98 3.98 0 0 0 2.073-2.263c.128-.352.188-.715.215-1.08 1.464-.958 2.73-2.527 3.59-4.46l1.087.397c.062.023.113.07.14.133l3.678 8.718c.024.057.025.12.005.177l-5.81 15.966a1.208 1.208 0 0 0 2.27.826l5.81-15.967a2.66 2.66 0 0 0-.05-1.94zm-14.7-6.22a2.058 2.058 0 0 1 1.88 1.2c.01.02.015.044.024.065-.488.16-1.056.23-1.62.025-.484-.177-.887-.535-1.21-1.048.29-.143.6-.242.927-.242zm.877 3.962a2.062 2.062 0 0 1-1.588.07 2.076 2.076 0 0 1-1.352-2.115c.477.538 1.04.953 1.69 1.19a4.086 4.086 0 0 0 2.04.198 2.07 2.07 0 0 1-.79.657zm3.905-15.023c1.652.6 2.34 3.17 1.733 6.018l-6.93-2.522c1.366-2.57 3.546-4.1 5.197-3.496z"/></g></svg>