<?xml version="1.0" encoding="utf-8"?>
<!-- Generator: Adobe Illustrator 22.1.0, SVG Export Plug-In . SVG Version: 6.00 Build 0)  -->
<svg version="1.0" id="Layer_1" xmlns="http://www.w3.org/2000/svg" xmlns:xlink="http://www.w3.org/1999/xlink" x="0px" y="0px"
	 viewBox="0 0 50 50" enable-background="new 0 0 50 50" xml:space="preserve">
<g>
	<g>
		<path fill="#71BAC0" d="M46.405,7.029v28.406L15.649,46.629H6.814c-1.953,0-3.534-1.582-3.534-3.534V7.029
			c0-1.944,1.581-3.534,3.534-3.534h36.057C44.823,3.495,46.405,5.086,46.405,7.029z"/>
	</g>
	<g>
		<path fill="#7ED0D6" d="M46.325,6.278L3.28,21.943V7.029c0-1.944,1.581-3.534,3.534-3.534h36.057
			C44.567,3.495,45.981,4.688,46.325,6.278z"/>
	</g>
	<path fill="#444444" d="M42.872,2.249H6.813c-2.638,0-4.784,2.146-4.784,4.784v36.059c0,2.638,2.146,4.784,4.784,4.784h11.394
		c0.69,0,1.25-0.56,1.25-1.25s-0.56-1.25-1.25-1.25h-5.499l6.797-6.797c0.094,0.059,0.192,0.112,0.296,0.155v2.64
		c0,0.758,0.291,1.475,0.819,2.019l3.434,3.54c0.147,0.147,0.388,0.26,0.647,0.029s0.112-0.52-0.012-0.643l-3.434-3.54
		c-0.368-0.38-0.57-0.878-0.57-1.405v-2.509c0.86-0.065,1.566-0.682,1.756-1.502h17.545c0.168,0.725,0.737,1.294,1.462,1.462v4.727
		c-0.916,0.163-1.615,0.961-1.615,1.923c0,1.08,0.878,1.958,1.958,1.958s1.958-0.878,1.958-1.958c0-0.891-0.602-1.636-1.417-1.873
		v-4.778c0.867-0.201,1.516-0.976,1.516-1.903s-0.649-1.702-1.516-1.903v-4.827c0.569-0.11,1.062-0.452,1.342-0.967h1.483v6.21
		c0,0.69,0.56,1.25,1.25,1.25s1.25-0.56,1.25-1.25V7.033C47.656,4.395,45.51,2.249,42.872,2.249z M26.563,29.867
		c0-0.666,0.542-1.208,1.208-1.208s1.208,0.542,1.208,1.208s-0.542,1.208-1.208,1.208S26.563,30.533,26.563,29.867z M28.687,28.147
		c-0.275-0.147-0.583-0.238-0.916-0.238c-1.08,0-1.958,0.878-1.958,1.958c0,0.333,0.091,0.641,0.238,0.916l-4.482,4.482
		c-0.261-0.163-0.562-0.262-0.885-0.286v-5.844c0-0.769-0.298-1.494-0.839-2.041l-3.221-3.256c0.186-0.299,0.298-0.649,0.298-1.026
		c0-1.08-0.878-1.958-1.958-1.958c-0.37,0-0.712,0.109-1.007,0.288l-5.141-5.196c0.168-0.289,0.272-0.62,0.272-0.978
		c0-0.181-0.025-0.359-0.074-0.533l1.137-1.14c0.206,0.073,0.417,0.109,0.631,0.109c0.396,0,0.763-0.12,1.072-0.323
		c0.431,0.247,0.918,0.39,1.419,0.39h3.778c0.202,0.867,0.976,1.516,1.903,1.516s1.702-0.649,1.903-1.516h5.011
		c0.202,0.867,0.976,1.516,1.903,1.516s1.702-0.649,1.903-1.516h3.637v4.271c-0.867,0.201-1.517,0.976-1.517,1.904
		s0.649,1.702,1.517,1.904v1.137c0,0.539-0.21,1.046-0.591,1.427L28.687,28.147z M18.634,36.48H9.033
		c-0.202-0.867-0.976-1.516-1.903-1.516s-1.702,0.649-1.903,1.516H4.529V12.868l0.985,0.996c-0.216,0.315-0.343,0.694-0.343,1.104
		c0,1.08,0.878,1.958,1.958,1.958c0.402,0,0.775-0.122,1.086-0.331l5.105,5.16c-0.197,0.305-0.315,0.667-0.315,1.057
		c0,1.08,0.878,1.958,1.958,1.958c0.382,0,0.736-0.114,1.038-0.305l3.215,3.25c0.376,0.381,0.583,0.884,0.583,1.419v5.976
		C19.219,35.348,18.779,35.857,18.634,36.48z M8.338,36.922c0,0.666-0.542,1.208-1.208,1.208s-1.208-0.542-1.208-1.208
		s0.542-1.208,1.208-1.208S8.338,36.256,8.338,36.922z M4.722,6.122l4.364,4.364c-0.162,0.285-0.262,0.61-0.262,0.96
		c0,0.139,0.016,0.277,0.049,0.418l-1.214,1.218C7.487,13.034,7.31,13.01,7.13,13.01c-0.35,0-0.674,0.1-0.959,0.262l-1.642-1.659
		V7.033C4.529,6.709,4.599,6.402,4.722,6.122z M10.235,12.517l-0.243-0.125l-1.857,1.862l0.102,0.234
		c0.067,0.153,0.101,0.315,0.101,0.48c0,0.666-0.542,1.208-1.208,1.208s-1.208-0.542-1.208-1.208S6.464,13.76,7.13,13.76
		c0.165,0,0.326,0.033,0.479,0.099l0.234,0.101l1.885-1.89l-0.079-0.223c-0.05-0.141-0.075-0.272-0.075-0.4
		c0-0.666,0.542-1.208,1.208-1.208s1.208,0.542,1.208,1.208C11.99,12.297,11.062,12.941,10.235,12.517z M14.964,24.02
		c-0.666,0-1.208-0.542-1.208-1.208s0.542-1.208,1.208-1.208s1.208,0.542,1.208,1.208S15.63,24.02,14.964,24.02z M17.746,13.03
		c0-0.666,0.542-1.208,1.208-1.208s1.208,0.542,1.208,1.208s-0.542,1.208-1.208,1.208S17.746,13.696,17.746,13.03z M26.563,13.03
		c0-0.666,0.542-1.208,1.208-1.208s1.208,0.542,1.208,1.208s-0.542,1.208-1.208,1.208S26.563,13.696,26.563,13.03z M34.908,4.749
		c-0.122,0.537-0.581,0.948-1.155,0.948s-1.033-0.411-1.155-0.948H34.908z M41.447,17.748c-0.54,0.125-1.003,0.463-1.271,0.957
		h-4.709c-0.269-0.494-0.733-0.833-1.272-0.957v-4.276h7.252V17.748z M33.753,20.854c-0.666,0-1.208-0.542-1.208-1.208
		s0.542-1.208,1.208-1.208c0.502,0,0.943,0.305,1.125,0.777l0.092,0.24h5.703l0.093-0.241c0.181-0.472,0.622-0.776,1.124-0.776
		c0.666,0,1.207,0.542,1.207,1.208s-0.541,1.208-1.207,1.208c-0.503,0-0.943-0.305-1.124-0.776l-0.093-0.241H34.97l-0.092,0.24
		C34.696,20.549,34.255,20.854,33.753,20.854z M42.331,21.549c0.867-0.201,1.516-0.976,1.516-1.904s-0.649-1.702-1.516-1.904v-4.271
		h2.826v13.871h-1.483c-0.281-0.515-0.773-0.857-1.342-0.966V21.549z M45.156,12.588h-2.721c0.097-0.302,0.256-0.582,0.487-0.814
		l2.235-2.235V12.588z M45.156,7.033v1.258l-2.859,2.859c-0.4,0.401-0.665,0.898-0.781,1.438h-7.321V6.393
		c0.784-0.182,1.381-0.835,1.49-1.643h7.187C44.132,4.749,45.156,5.774,45.156,7.033z M31.821,4.749
		c0.109,0.809,0.706,1.462,1.49,1.644v6.196h-3.637c-0.201-0.867-0.976-1.517-1.903-1.517s-1.702,0.65-1.903,1.517h-5.01
		c-0.201-0.867-0.976-1.517-1.903-1.517s-1.702,0.65-1.903,1.517h-3.778c-0.276,0-0.541-0.077-0.792-0.187
		c0.16-0.284,0.259-0.607,0.259-0.955c0-1.08-0.878-1.958-1.958-1.958c-0.409,0-0.788,0.127-1.102,0.342L5.237,5.388
		c0.411-0.394,0.965-0.639,1.577-0.639H31.821z M6.813,45.376c-1.259,0-2.284-1.024-2.284-2.284v-5.728h0.697
		C5.428,38.23,6.203,38.88,7.13,38.88s1.702-0.649,1.903-1.517h9.6c0.049,0.213,0.134,0.411,0.247,0.591l-7.422,7.422H6.813z
		 M20.537,38.13c-0.666,0-1.208-0.542-1.208-1.208s0.542-1.208,1.208-1.208s1.208,0.542,1.208,1.208S21.203,38.13,20.537,38.13z
		 M39.985,36.48H22.44c-0.049-0.212-0.134-0.41-0.246-0.59l4.437-4.437c0.322,0.232,0.714,0.373,1.14,0.373
		c1.08,0,1.958-0.878,1.958-1.958c0-0.426-0.141-0.818-0.373-1.14l3.988-3.988c0.548-0.548,0.85-1.277,0.85-2.052v-1.142
		c0.539-0.124,1.003-0.463,1.272-0.957h4.709c0.268,0.494,0.732,0.832,1.271,0.957v4.858c-0.83,0.227-1.445,0.98-1.445,1.881
		s0.615,1.655,1.445,1.881v4.853C40.723,35.187,40.154,35.755,39.985,36.48z M42.998,45.476c0,0.666-0.542,1.208-1.208,1.208
		s-1.208-0.542-1.208-1.208s0.542-1.208,1.208-1.208S42.998,44.81,42.998,45.476z M43.097,36.922c0,0.666-0.542,1.208-1.208,1.208
		s-1.208-0.542-1.208-1.208s0.542-1.208,1.208-1.208S43.097,36.256,43.097,36.922z M43.176,28.475l-0.092,0.24
		c-0.182,0.473-0.623,0.777-1.125,0.777c-0.666,0-1.207-0.542-1.207-1.208s0.541-1.208,1.207-1.208c0.502,0,0.943,0.305,1.125,0.776
		l0.092,0.24h1.98v0.382H43.176z"/>
</g>
</svg>
