<svg version="1" xmlns="http://www.w3.org/2000/svg" viewBox="0 0 50 50"><path fill-rule="evenodd" clip-rule="evenodd" fill="#AFE55D" d="M6.588 37.061l5.329 3.076 32.778-11.93V15.06c0-.917-.489-1.764-1.283-2.222l-17.129-9.89a2.568 2.568 0 0 0-2.566 0l-17.129 9.89a2.565 2.565 0 0 0-1.283 2.222v19.779c0 .916.489 1.763 1.283 2.222z"/><path fill-rule="evenodd" clip-rule="evenodd" fill="#C3FF68" d="M37.32 9.32L26.283 2.948a2.568 2.568 0 0 0-2.566 0l-17.129 9.89a2.565 2.565 0 0 0-1.283 2.222v5.913L37.32 9.32z"/><path fill="#444" d="M41.552 29.964a.61.61 0 0 1-.531-.307L26.162 3.922a.614.614 0 0 1 1.062-.614l14.858 25.735a.614.614 0 0 1-.53.921z"/><path fill="#444" d="M43.923 12.003L26.794 2.114a3.6 3.6 0 0 0-3.588 0L6.077 12.003a3.6 3.6 0 0 0-1.794 3.108V34.89a3.6 3.6 0 0 0 1.794 3.108l17.129 9.889a3.595 3.595 0 0 0 3.588 0l8.287-4.784a1.022 1.022 0 0 0-1.022-1.77l-8.287 4.785a1.546 1.546 0 0 1-1.544-.001l-.552-.319L6.327 15.747v-.637c0-.55.296-1.062.772-1.337l17.129-9.889a1.548 1.548 0 0 1 1.544 0L42.9 13.773c.477.275.772.788.772 1.337v.668l-5.157 8.929a.614.614 0 0 0 .53.92.61.61 0 0 0 .531-.307l4.095-7.091v9.977a1.023 1.023 0 0 0 2.044 0V15.11a3.592 3.592 0 0 0-1.792-3.107zM7.1 36.227a1.55 1.55 0 0 1-.772-1.338v-.607l4.642-8.043L21.553 44.57 7.1 36.227zm3.161-11.214l-3.934 6.816V18.2l3.934 6.813z"/></svg>