<?xml version="1.0" encoding="utf-8"?>
<!-- Generator: Adobe Illustrator 22.1.0, SVG Export Plug-In . SVG Version: 6.00 Build 0)  -->
<svg version="1.0" id="Layer_1" xmlns="http://www.w3.org/2000/svg" xmlns:xlink="http://www.w3.org/1999/xlink" x="0px" y="0px"
	 viewBox="0 0 50 50" enable-background="new 0 0 50 50" xml:space="preserve">
<g>
	<g>
		<path fill="#DC5E82" d="M14.593,41.499h0.206v2.059L37.02,35.47l0.704-5.439c0.073-0.566-0.584-1.068-0.584-1.068L36.303,4.415
			c-0.036-1.045-0.916-1.86-1.961-1.831c-10.465,0.29-17.133,2.92-19.555,4.06c-0.634,0.299-1.044,0.929-1.072,1.63l-0.854,20.689
			c0,0-0.657,0.502-0.584,1.068l1.377,10.642C13.715,41.145,14.116,41.499,14.593,41.499z"/>
	</g>
	<g>
		<path fill="#F56991" d="M36.42,8.33l-0.133-3.914c-0.036-1.045-0.916-1.86-1.961-1.831c-10.465,0.29-17.133,2.92-19.555,4.06
			c-0.634,0.299-1.044,0.929-1.072,1.63l-0.349,8.453L36.42,8.33z"/>
	</g>
	<path fill="#444444" d="M38.372,28.426l-0.82-24.052c-0.058-1.724-1.47-3.099-3.245-3.039C23.59,1.632,16.713,4.356,14.254,5.513
		c-1.056,0.497-1.741,1.535-1.789,2.709l-0.833,20.199c-0.334,0.394-0.694,1.009-0.595,1.771l1.377,10.643
		c0.093,0.72,0.531,1.322,1.134,1.649v3.039c0,1.734,1.41,3.145,3.144,3.145h16.616c1.733,0,3.144-1.41,3.144-3.145V41.5
		c0-0.603-0.436-1.083-1.004-1.2H14.866l-0.925-7.151h22.12l-0.292,2.256c-0.089,0.685,0.395,1.312,1.079,1.399
		c0.684,0.1,1.312-0.394,1.399-1.079l0.717-5.534C39.061,29.432,38.704,28.818,38.372,28.426z M14.964,8.324
		c0.01-0.24,0.146-0.45,0.355-0.549c0.917-0.432,2.499-1.094,4.699-1.755v13.606c0,0.138,0.112,0.25,0.25,0.25s0.25-0.112,0.25-0.25
		V5.872c1.232-0.354,2.645-0.701,4.234-1.008v17.024c0,0.138,0.112,0.25,0.25,0.25s0.25-0.112,0.25-0.25V4.771
		c1.3-0.238,2.711-0.447,4.234-0.609v12.679c0,0.138,0.112,0.25,0.25,0.25s0.25-0.112,0.25-0.25V4.112
		c1.38-0.135,2.836-0.236,4.39-0.279c0.007,0,0.013,0,0.019,0c0.354,0,0.647,0.277,0.659,0.625l0.833,24.436H14.115L14.964,8.324z
		 M33.951,45.522c0,0.355-0.289,0.645-0.644,0.645H16.692c-0.355,0-0.644-0.289-0.644-0.645v-4.543h17.903V45.522z M13.876,32.647
		l-0.337-2.608c0.027-0.031,0.059-0.064,0.081-0.083l0.409-0.312h21.968l0.369,0.302c0.03,0.024,0.067,0.062,0.096,0.095
		l-0.337,2.607L13.876,32.647L13.876,32.647z"/>
</g>
</svg>
