<svg version="1" xmlns="http://www.w3.org/2000/svg" viewBox="0 0 50 50"><path fill="#A6C1C2" d="M1.594 20.233c-.002.002-.002.007 0 .01v.01c.177 5.02.658 9.965 1.422 14.814.035.228.54 3.21.786 4.462.068.348.15.69.22 1.038l44.126-16.06c.1-1.413.18-2.83.23-4.256v-.01c.002-.003.002-.008 0-.01.002-.002.002-.002 0-.004.013-.333-.044-1.153-.044-1.153-.512-1.007-2.985-5.505-3.72-6.74h-.003a122.22 122.22 0 0 0-5.2-8.032c0-.002 0-.002-.003-.004a160.87 160.87 0 0 0-1.683-2.312c-.477-.05-3.938-.348-5.205-.423a242.6 242.6 0 0 0-5.027-.203c-.83-.016-4.184-.016-5.014 0-.432.01-3.786.128-5.027.203-1.267.075-4.728.372-5.205.423 0 0-1.188 1.604-1.683 2.31l-.002.005a122.51 122.51 0 0 0-5.202 8.032c-.736 1.236-3.21 5.734-3.722 6.74 0 0-.057.82-.044 1.154-.002 0-.002 0 0 .003z"/><path fill="#B9D7D9" d="M1.594 20.233c-.002.002-.002.007 0 .01v.01c.016.466.05.93.07 1.394l39.7-14.45c-.644-.97-1.286-1.94-1.956-2.892l-.002-.004a160.87 160.87 0 0 0-1.683-2.31c-.477-.05-3.938-.348-5.205-.423a242.6 242.6 0 0 0-5.026-.203c-.83-.016-4.184-.016-5.014 0-.43.01-3.785.128-5.026.203-1.267.075-4.728.372-5.205.423 0 0-1.188 1.604-1.683 2.31l-.002.005a122.743 122.743 0 0 0-5.2 8.03h-.003c-.736 1.236-3.21 5.734-3.722 6.74 0 0-.057.82-.044 1.154-.002 0-.002 0 0 .003z"/><path fill="#444" d="M24.997 38.3l-.066-.003s-7.465-.512-9.126-.633a204.696 204.696 0 0 1-4.196-.382l-.71-.095-.12-.708a124.063 124.063 0 0 1-1.64-16.217L9.1 19.02l.102-.21c.11-.23 3.88-7.053 4.518-8.103l.257-.422.492-.042c.558-.047 4.878-.325 6.545-.378l1.124-.036-.127 1.117c-.087.76-.165 1.52-.236 2.283 1.063-.027 2.136-.04 3.2-.04.007 0 1.773.015 3.223.045-.07-.764-.15-1.527-.235-2.288l-.125-1.117 1.124.036c1.67.053 5.988.33 6.546.378l.492.042.257.422c.638 1.05 4.41 7.874 4.518 8.103l.1.212-.037 1.172a124.51 124.51 0 0 1-1.64 16.287l-.12.71-.712.094c-.143.02-2.934.29-4.195.382-.39.028-1.02.078-1.773.138-2.513.196-6.314.495-7.4.495zm-12.422-2.876c.92.088 2.496.236 3.37.3 1.594.116 8.534.59 9.084.63 1.057-.008 4.906-.31 7.216-.492.76-.06 1.392-.11 1.783-.138.872-.065 2.448-.21 3.37-.3a122.41 122.41 0 0 0 1.49-15.23l.025-.736c-.555-1.013-3.117-5.66-4.07-7.312-1.01-.07-3.24-.21-4.826-.29.078.765.15 1.53.213 2.298l.09 1.09-1.093-.037c-1.407-.048-4.26-.072-4.262-.072-1.403 0-2.827.024-4.225.072l-1.094.038.09-1.09c.064-.77.135-1.534.214-2.298-1.586.08-3.816.22-4.825.29-.948 1.64-3.478 6.23-4.07 7.313l.024.768c.18 5.078.68 10.196 1.49 15.196z"/><path fill="#444" d="M24.987 49.622c-.993 0-1.987-.004-2.39-.01-1.664-.03-3.37-.098-5.064-.2l-.752-.045-.144-.74c-.43-2.2-.806-4.436-1.118-6.66-.568-.044-1.134-.09-1.7-.142l1.475 6.155.304 1.266-1.3-.067c-.21-.012-5.176-.28-8.96-1.1l-.58-.125-.153-.577a121.995 121.995 0 0 1-1.756-7.66 228.35 228.35 0 0 1-.792-4.5A124.185 124.185 0 0 1 .636 20.66l-.01-.834c.01-.345.036-.718.043-.816l.013-.197.09-.175c.53-1.046 3.014-5.56 3.75-6.798A124.508 124.508 0 0 1 9.592 4v-.1l.226-.227c.523-.743 1.648-2.263 1.648-2.263l.254-.343.425-.045c.477-.05 3.977-.35 5.25-.427C18.648.52 22.015.4 22.46.39c.853-.015 4.204-.015 5.053 0 .45.01 3.816.13 5.067.205 1.307.077 4.76.374 5.25.427l.424.045.254.343s1.133 1.53 1.654 2.27l.044.062a124.3 124.3 0 0 1 4.96 7.62l.284.475c.737 1.24 3.22 5.752 3.752 6.798l.09.176.013.198c.007.098.032.47.043.814l.027.788v.008l-.04.04a124.27 124.27 0 0 1-1.418 14.56.973.973 0 0 1-1.92-.302c.738-4.69 1.206-9.474 1.393-14.228l.014-.854c-.007-.17-.017-.356-.026-.49a261.83 261.83 0 0 0-3.47-6.29l-.133-.223a121.952 121.952 0 0 0-5.112-7.9l-.053-.073a125.925 125.925 0 0 0-1.41-1.94 233.752 233.752 0 0 0-4.738-.38c-1.232-.074-4.55-.192-4.988-.2-.812-.016-4.162-.016-4.977 0-.437.008-3.753.126-4.984.2a231.65 231.65 0 0 0-4.74.38c-.324.44-.885 1.202-1.254 1.72l-.16.227a121.023 121.023 0 0 0-5.162 7.967c-.67 1.124-2.94 5.246-3.602 6.513-.01.134-.02.318-.026.49l.014.854c.185 4.738.653 9.53 1.393 14.23.04.25.54 3.207.78 4.425.456 2.334.986 4.67 1.576 6.957 2.38.464 5.164.725 6.76.847-.528-2.205-1.456-6.08-1.485-6.217l-.31-1.467 1.465.314c1.175.112 2.424.218 3.68.305l.79.056.106.786c.293 2.194.65 4.408 1.063 6.59 1.42.075 2.84.126 4.232.15.77.016 3.932.016 4.7 0a119.45 119.45 0 0 0 4.234-.15c.412-2.182.77-4.396 1.063-6.59l.105-.786.79-.056c1.257-.087 2.506-.193 3.75-.317l1.472-.327-.385 1.49c-.03.137-.928 3.892-1.483 6.208.777-.065 1.818-.158 2.907-.277A.973.973 0 0 1 40 48.793c-2.245.245-4.293.383-4.313.385l-1.32.086.308-1.285c.47-1.957 1.1-4.595 1.474-6.154-.566.05-1.13.098-1.7.14a126.242 126.242 0 0 1-1.117 6.663l-.145.738-.752.045c-1.695.102-3.4.168-5.066.2-.4.005-1.393.01-2.385.01z"/></svg>