<svg version="1" xmlns="http://www.w3.org/2000/svg" viewBox="0 0 50 50"><path fill="#71BAC0" d="M4.818 45.536l42.145-15.339V8.454a5.417 5.417 0 0 0-5.417-5.417H8.454a5.417 5.417 0 0 0-5.417 5.417v33.091c0 1.587.694 3 1.781 3.991z"/><path fill="#7ED0D6" d="M45.18 4.463a5.378 5.378 0 0 0-3.635-1.425H8.454a5.417 5.417 0 0 0-5.417 5.417v11.347L45.18 4.463z"/><path fill="#444" d="M25.001 48.137H8.454a6.599 6.599 0 0 1-6.591-6.591V8.455a6.599 6.599 0 0 1 6.591-6.592h33.091a6.599 6.599 0 0 1 6.591 6.592v21.739a1.175 1.175 0 1 1-2.35 0V8.455a4.247 4.247 0 0 0-4.242-4.242H8.454a4.247 4.247 0 0 0-4.242 4.242v33.091a4.247 4.247 0 0 0 4.242 4.242h16.547a1.175 1.175 0 1 1 0 2.349z"/><path fill="#444" d="M25.76 20.605c0 2.244-.735 3.964-2.205 5.16s-3.562 1.793-6.277 1.793h-2.234v7.841a.2.2 0 0 1-.2.2H11.73a.2.2 0 0 1-.2-.2V14.307a.2.2 0 0 1 .2-.2h5.989c2.685 0 4.697.549 6.034 1.646s2.007 2.715 2.007 4.852zm-10.717 3.998h1.867c1.803 0 3.126-.314 3.969-.941s1.264-1.607 1.264-2.94c0-1.235-.377-2.156-1.132-2.764s-1.931-.911-3.528-.911h-2.44v7.556zm23.426 6.365c0 1.588-.578 2.805-1.735 3.653s-2.813 1.272-4.969 1.272c-2.103 0-3.805-.31-5.104-.929a.205.205 0 0 1-.115-.186v-2.551c0-.144.15-.234.281-.176 1.805.797 3.49 1.196 5.055 1.196 2.127 0 3.19-.642 3.19-1.926 0-.412-.118-.755-.353-1.029s-.622-.559-1.161-.853-1.289-.627-2.249-1c-1.872-.725-3.138-1.45-3.8-2.176-.662-.725-.992-1.666-.992-2.822 0-1.392.561-2.472 1.683-3.241 1.122-.769 2.648-1.154 4.579-1.154 1.842 0 3.588.359 5.238 1.078.102.045.15.167.106.27l-.961 2.238a.202.202 0 0 1-.26.103c-1.674-.675-3.087-1.013-4.241-1.013-1.823 0-2.734.519-2.734 1.558 0 .51.238.941.713 1.294s1.512.838 3.109 1.455c1.343.519 2.318.995 2.925 1.426.608.431 1.058.929 1.352 1.492.296.563.443 1.237.443 2.021z"/></svg>