<svg version="1" xmlns="http://www.w3.org/2000/svg" viewBox="0 0 50 50"><path fill="#B9D78D" d="M36.136 26.134l-.002-2.28c0-3.93-2.04-7.38-5.115-9.363h.005l-4.29-11.8c-.593-1.617-2.886-1.617-3.478 0l-4.32 11.903h.005c-3.072 2.08-5.08 5.67-5.08 9.632v4.787L9.613 35.79l26.522-9.656z"/><path fill="#CFF09E" d="M14.985 19.356l15.78-5.743L26.793 2.69c-.592-1.618-2.885-1.618-3.477 0l-4.32 11.902h.005a11.588 11.588 0 0 0-4.015 4.764z"/><g fill="#444"><path d="M17.84 34.254a.99.99 0 0 0 .257 1.376l.665.455a.988.988 0 0 0 1.376-.26.99.99 0 0 0-.258-1.376l-.665-.456a.99.99 0 0 0-1.376.26zm12.943-.259l-.665.455a.99.99 0 0 0 1.118 1.636l.665-.455a.99.99 0 1 0-1.117-1.635z"/><path d="M44.23 40.054l-7.104-11.327v-4.872a12.037 12.037 0 0 0-5.275-9.995L27.667 2.35a2.815 2.815 0 0 0-2.67-1.864 2.815 2.815 0 0 0-2.668 1.866l-4.21 11.602a12.643 12.643 0 0 0-5.246 10.27v4.502l-7.094 11.32a1.892 1.892 0 0 0 .163 2.267 1.907 1.907 0 0 0 2.228.503l8.13-3.583 3.72 2.008a.85.85 0 0 1 .41.492l1.993 6.11.067.155A2.834 2.834 0 0 0 25 49.514h.004c1.056 0 2.018-.58 2.512-1.516l2.057-6.265a.86.86 0 0 1 .41-.49.99.99 0 1 0-.94-1.743 2.83 2.83 0 0 0-1.352 1.618l-1.96 6.016a.84.84 0 0 1-.726.398H25a.84.84 0 0 1-.726-.4l-1.96-6.015a2.832 2.832 0 0 0-1.354-1.62l-5.764-3.106a.86.86 0 0 1-.342-.687v-11.48c0-5.697 4.467-10.414 9.957-10.514 2.746-.054 5.34.98 7.3 2.904a10.073 10.073 0 0 1 3.038 7.24v11.852a.99.99 0 0 0 1.98 0v-3.25l5.307 8.46-3.937-1.732a.99.99 0 0 0-.798 1.813l4.133 1.818a1.9 1.9 0 0 0 2.22-.494 1.9 1.9 0 0 0 .177-2.267zm-36.66.862l5.302-8.46v3.25c0 .934.46 1.804 1.226 2.335L7.57 40.917zM24.772 11.73c-1.42.025-2.774.32-4.037.816l3.453-9.516a.84.84 0 0 1 .81-.564c.14 0 .617.04.807.562l3.447 9.48a12.363 12.363 0 0 0-4.48-.78z"/><path d="M25.68 16.355a.793.793 0 0 0-.793-.792c-4.83 0-8.76 3.93-8.76 8.76a.793.793 0 0 0 1.585 0 7.182 7.182 0 0 1 7.174-7.175.794.794 0 0 0 .793-.793z"/></g></svg>