<?xml version="1.0" encoding="utf-8"?>
<!-- Generator: Adobe Illustrator 21.0.0, SVG Export Plug-In . SVG Version: 6.00 Build 0)  -->
<svg version="1.0" id="Layer_1" xmlns="http://www.w3.org/2000/svg" xmlns:xlink="http://www.w3.org/1999/xlink" x="0px" y="0px"
	 viewBox="0 0 50 50" enable-background="new 0 0 50 50" xml:space="preserve">
<g>
	<g>
		<path fill="#DC5E82" d="M46.63,34.448L16.062,45.574c-1.323-0.501-2.603-1.108-3.825-1.823c-1.688-0.987-3.261-2.181-4.676-3.532
			c-1.716-1.623-3.218-3.511-4.433-5.627l5.284-3.053c-0.837-1.452-1.48-3.003-1.923-4.619c-0.443-1.609-0.672-3.275-0.672-4.955
			c0-3.49,0.93-6.764,2.574-9.582l0.007-0.007C11.707,6.639,17.907,2.778,25,2.778c3.554,0,6.879,0.972,9.732,2.653
			c2.853,1.68,5.227,4.083,6.879,6.95c1.645,2.817,2.574,6.092,2.574,9.582c-0.129,4.483-1.258,7.158-2.581,9.574L46.63,34.448z"/>
	</g>
	<g>
		<path fill="#F56991" d="M41.704,12.553L6.158,25.495c-0.229-1.158-0.343-2.345-0.343-3.532c0-3.49,0.93-6.764,2.574-9.582
			l0.007-0.007C11.707,6.639,17.907,2.778,25,2.778c3.554,0,6.879,0.972,9.732,2.653c2.853,1.68,5.227,4.083,6.879,6.95
			C41.646,12.438,41.675,12.495,41.704,12.553z"/>
	</g>
	<path fill="#444444" d="M47.279,33.337l-3.758-2.181c1.128-2.27,2.085-5.046,2.207-9.244c0-3.657-0.963-7.239-2.78-10.353
		c-1.786-3.101-4.356-5.697-7.433-7.51C32.339,2.18,28.703,1.191,25,1.191c-7.321,0-14.147,3.911-17.856,10.216l-0.088,0.147
		c-1.821,3.12-2.784,6.702-2.784,10.358c0,3.176,0.761,6.349,2.209,9.25l-5.395,3.122l0.623,1.081
		c1.28,2.221,2.87,4.235,4.719,5.983c1.504,1.444,3.181,2.711,4.983,3.765c4.141,2.42,8.84,3.699,13.59,3.699
		s9.449-1.279,13.59-3.699c0.596-0.349,0.797-1.114,0.448-1.71c-0.349-0.597-1.116-0.797-1.71-0.448
		c-3.722,2.175-7.939,3.331-12.204,3.353c0.003-0.198,0.003-0.547,0.002-1.205c-0.001-0.541-0.001-1.206-0.001-1.862
		c0-0.137,0-0.272,0-0.406c0-0.706,0.001-1.362,0.004-1.817l0.001-0.123c0.002-0.142,0.003-0.247,0.005-0.332
		c0.322-0.002,0.641-0.037,0.961-0.056c2.167-0.117,4.18-0.576,6.003-1.38c0.116-0.049,0.237-0.088,0.351-0.14l0.003,0.006
		l0.09-0.043c0.017-0.008,0.035-0.013,0.051-0.021l0.079-0.037l0-0.006l0.006-0.003l-0.014-0.156v-0.22l-0.018,0.018l-0.278-3.18
		l3.537,1.647l0.024-0.018l0.006,0.001l0.06-0.045c0.018-0.014,0.033-0.025,0.052-0.038c0.181-0.133,0.358-0.271,0.534-0.414
		c0.721-0.583,1.388-1.223,2.007-1.904c0.066-0.072,0.134-0.141,0.199-0.214c0.307-0.348,0.597-0.71,0.876-1.079
		c0.137-0.18,0.272-0.359,0.403-0.544c0.116-0.165,0.224-0.334,0.334-0.503l5.622,3.263c0.599,0.344,1.362,0.144,1.709-0.453
		C48.079,34.448,47.876,33.684,47.279,33.337z M39.519,33.06c-0.266,0.351-0.536,0.699-0.827,1.031
		c-0.064,0.074-0.131,0.146-0.197,0.219c-0.369,0.408-0.753,0.804-1.158,1.178c-0.015,0.014-0.03,0.029-0.045,0.044
		c-0.451,0.414-0.922,0.806-1.411,1.171l-3.797-1.769l0,0.003l-0.006-0.003l0.332,3.801c-0.158,0.075-0.328,0.129-0.49,0.199
		c-1.533,0.645-3.184,1.089-4.896,1.274c-0.402,0.042-0.818,0.052-1.232,0.068c-0.223,0.009-0.444,0.032-0.668,0.033v-7.055
		c0.145-0.002,0.287-0.027,0.432-0.034c0.339-0.017,0.679-0.033,1.012-0.08c0.206-0.029,0.406-0.082,0.609-0.123
		c0.279-0.056,0.56-0.106,0.833-0.183c0.22-0.062,0.431-0.146,0.646-0.221c0.253-0.088,0.507-0.172,0.752-0.278
		c0.19-0.082,0.372-0.182,0.557-0.276c0.269-0.134,0.537-0.269,0.794-0.425c0.04-0.024,0.084-0.041,0.123-0.066
		c0.149-0.092,0.284-0.204,0.429-0.302c0.192-0.132,0.387-0.259,0.571-0.403c0.226-0.176,0.435-0.371,0.646-0.564
		c0.133-0.122,0.272-0.235,0.4-0.364c0.232-0.234,0.443-0.487,0.654-0.742c0.092-0.111,0.193-0.213,0.281-0.328
		c0.254-0.333,0.484-0.683,0.699-1.043c0.03-0.051,0.068-0.095,0.098-0.146c0.981-1.686,1.5-3.615,1.5-5.58c0,0,0-0.001,0-0.001
		s0-0.001,0-0.001c0-0.484-0.033-0.967-0.095-1.444c-0.017-0.128-0.053-0.251-0.074-0.378c-0.058-0.348-0.116-0.696-0.206-1.037
		c-0.043-0.16-0.107-0.313-0.156-0.471c-0.094-0.301-0.184-0.603-0.304-0.895c-0.068-0.165-0.156-0.32-0.232-0.481
		c-0.119-0.254-0.227-0.512-0.364-0.757l6.109-3.527c1.551,2.7,2.372,5.788,2.38,8.943c-0.159,4.428-1.347,6.966-2.456,8.991
		l-0.585,1.069l0.005,0.003c-0.071,0.108-0.137,0.22-0.211,0.327C39.826,32.647,39.673,32.854,39.519,33.06z M23.03,40.21
		c-1.744-0.184-3.429-0.633-4.988-1.292c-0.149-0.065-0.307-0.114-0.453-0.184l0.332-3.801l-0.006,0.003l0-0.003l-3.797,1.769
		c-0.491-0.367-0.964-0.76-1.417-1.176c-0.009-0.009-0.018-0.018-0.027-0.026c-0.411-0.379-0.801-0.781-1.176-1.196
		c-0.062-0.069-0.125-0.137-0.186-0.208c-0.293-0.335-0.566-0.685-0.834-1.04c-0.15-0.201-0.299-0.402-0.441-0.608
		c-0.075-0.109-0.142-0.222-0.215-0.332l0.036-0.021l-0.621-1.081c-1.519-2.645-2.355-5.591-2.448-8.553
		c-0.003-0.123-0.011-0.246-0.011-0.369c0-3.171,0.823-6.277,2.382-8.992l6.109,3.526c-0.165,0.293-0.298,0.6-0.435,0.905
		c-0.048,0.106-0.107,0.206-0.151,0.314c-0.168,0.409-0.307,0.828-0.426,1.254c-0.009,0.034-0.024,0.066-0.033,0.1
		c-0.252,0.94-0.386,1.912-0.386,2.892c0,1.476,0.293,2.932,0.855,4.279c0.186,0.448,0.401,0.883,0.646,1.303
		c0.024,0.042,0.056,0.078,0.081,0.12c0.222,0.375,0.462,0.737,0.726,1.081c0.057,0.074,0.123,0.14,0.182,0.212
		c0.241,0.299,0.491,0.59,0.762,0.863c0.091,0.091,0.191,0.171,0.284,0.259c0.248,0.232,0.498,0.46,0.766,0.668
		c0.151,0.118,0.311,0.22,0.468,0.33c0.17,0.118,0.331,0.249,0.507,0.358c0.047,0.029,0.098,0.049,0.146,0.078
		c0.233,0.141,0.476,0.262,0.719,0.385c0.209,0.106,0.414,0.218,0.628,0.311c0.222,0.096,0.453,0.17,0.682,0.252
		c0.236,0.084,0.469,0.176,0.71,0.243c0.258,0.073,0.524,0.119,0.787,0.173c0.216,0.044,0.429,0.1,0.648,0.131
		c0.331,0.047,0.667,0.063,1.003,0.08c0.146,0.007,0.29,0.033,0.436,0.035v7.055c-0.465-0.003-0.927-0.035-1.388-0.073
		C23.336,40.224,23.18,40.225,23.03,40.21z M33.667,28.711c-0.088,0.115-0.19,0.219-0.283,0.33c-0.204,0.245-0.408,0.49-0.631,0.716
		c-0.124,0.125-0.26,0.237-0.39,0.356c-0.207,0.19-0.413,0.38-0.634,0.553c-0.176,0.138-0.363,0.26-0.547,0.386
		C31,31.178,30.819,31.306,30.63,31.42c-0.262,0.16-0.536,0.296-0.81,0.432c-0.175,0.086-0.345,0.182-0.524,0.259
		c-0.261,0.113-0.531,0.2-0.8,0.291c-0.194,0.066-0.384,0.144-0.582,0.199c-0.326,0.091-0.659,0.151-0.992,0.211
		c-0.146,0.026-0.288,0.067-0.435,0.088c-0.49,0.067-0.987,0.104-1.487,0.104c-0.499,0-0.995-0.036-1.484-0.104
		c-0.163-0.023-0.32-0.067-0.481-0.097c-0.316-0.058-0.632-0.114-0.941-0.2c-0.219-0.061-0.429-0.146-0.643-0.221
		c-0.246-0.085-0.494-0.164-0.733-0.267c-0.201-0.086-0.391-0.192-0.586-0.29c-0.25-0.126-0.502-0.25-0.743-0.396
		c-0.22-0.132-0.43-0.28-0.64-0.427c-0.152-0.106-0.309-0.207-0.455-0.321c-0.261-0.203-0.507-0.426-0.749-0.653
		c-0.091-0.086-0.189-0.164-0.277-0.253c-0.266-0.267-0.512-0.555-0.751-0.85c-0.055-0.068-0.118-0.13-0.171-0.2
		c-0.257-0.335-0.491-0.691-0.71-1.058c-0.011-0.019-0.025-0.035-0.036-0.054c0.294,0,18.501,0,18.802,0
		c-0.017,0.03-0.039,0.056-0.057,0.086C34.134,28.049,33.912,28.39,33.667,28.711z M25,3.881c6.449,0,12.457,3.447,15.712,9.004
		l-6.109,3.527c-0.122-0.206-0.27-0.392-0.404-0.589c-0.131-0.19-0.25-0.39-0.392-0.571c-0.162-0.207-0.344-0.394-0.52-0.588
		c-0.149-0.166-0.289-0.341-0.447-0.497c-0.188-0.185-0.395-0.347-0.595-0.518c-0.166-0.142-0.323-0.295-0.497-0.427
		c-0.212-0.161-0.44-0.296-0.662-0.441c-0.18-0.117-0.352-0.247-0.538-0.354c-0.236-0.135-0.487-0.244-0.732-0.362
		c-0.187-0.09-0.367-0.194-0.559-0.273c-0.263-0.109-0.538-0.188-0.809-0.277c-0.187-0.061-0.367-0.137-0.557-0.189
		c-0.304-0.082-0.617-0.131-0.929-0.188c-0.166-0.03-0.328-0.077-0.496-0.099C25.983,10.974,25.494,10.94,25,10.94
		s-0.983,0.034-1.466,0.098c-0.161,0.022-0.317,0.067-0.477,0.095c-0.318,0.057-0.637,0.107-0.947,0.191
		c-0.191,0.052-0.373,0.128-0.56,0.19c-0.27,0.088-0.544,0.167-0.805,0.276c-0.192,0.079-0.372,0.183-0.559,0.273
		c-0.245,0.118-0.495,0.226-0.731,0.361c-0.188,0.108-0.361,0.238-0.543,0.357c-0.22,0.144-0.446,0.278-0.656,0.437
		c-0.177,0.134-0.338,0.29-0.507,0.435c-0.196,0.168-0.399,0.327-0.584,0.509c-0.16,0.157-0.3,0.334-0.451,0.501
		c-0.174,0.193-0.355,0.378-0.515,0.583c-0.139,0.178-0.257,0.374-0.386,0.562c-0.137,0.199-0.286,0.388-0.411,0.598L9.294,12.88
		C12.552,7.326,18.558,3.881,25,3.881z M25.076,11.195c3.853,0.027,7.44,2.107,9.374,5.451c0.956,1.651,1.461,3.535,1.461,5.448
		c0,1.895-0.498,3.754-1.433,5.387L25.076,11.195z M14.096,22.095c0-1.928,0.505-3.814,1.46-5.456
		c1.933-3.34,5.519-5.418,9.371-5.444c-0.145,0.251-9.257,16.034-9.404,16.288c-0.224-0.391-0.427-0.793-0.599-1.208
		C14.38,24.963,14.096,23.541,14.096,22.095z M8.152,39.539c-1.378-1.303-2.594-2.765-3.626-4.357l5.077-2.938
		c0.088,0.134,0.174,0.27,0.265,0.402c0.135,0.194,0.276,0.383,0.419,0.572c0.286,0.381,0.582,0.756,0.897,1.115
		c0.053,0.06,0.11,0.117,0.164,0.176c0.637,0.706,1.326,1.369,2.07,1.972c0.175,0.142,0.353,0.28,0.539,0.417
		c0.013,0.009,0.029,0.021,0.069,0.051l0.06,0.045l0.004-0.002l0.002,0.002l3.537-1.647l-0.278,3.179l-0.018-0.017v0.22
		l-0.014,0.156l0.005,0.003l-0.001,0.006l0.009,0.004v0.002l0.212,0.095l0.003-0.006c0.116,0.053,0.24,0.092,0.358,0.142
		c1.823,0.803,3.835,1.26,6,1.377c0.32,0.018,0.637,0.054,0.958,0.056c0.002,0.085,0.003,0.19,0.005,0.332l0.001,0.126
		c0.003,0.455,0.004,1.109,0.004,1.813c0,0.137,0,0.274,0,0.413c0,0.654-0.001,1.316-0.001,1.855
		c-0.001,0.658-0.001,1.007,0.002,1.205c-4.265-0.022-8.482-1.178-12.204-3.353C11.04,42.001,9.521,40.854,8.152,39.539z"/>
</g>
</svg>
