<svg version="1" xmlns="http://www.w3.org/2000/svg" viewBox="0 0 50 50"><path fill="#AFE55D" d="M47.457 6.225v29.73L15.851 47.456H6.226a3.68 3.68 0 0 1-3.681-3.681V6.225a3.68 3.68 0 0 1 3.681-3.681h37.551a3.68 3.68 0 0 1 3.68 3.681z"/><path fill="#C3FF68" d="M40.74 2.544L2.545 16.447V6.225a3.68 3.68 0 0 1 3.681-3.681H40.74z"/><path fill="#444" d="M9.531 43.682a3.216 3.216 0 0 1-3.213-3.213v-23.84c0-.831.324-1.614.913-2.202l2.164-2.165.267.267-2.174 2.164a2.691 2.691 0 0 0-.806 1.936v23.84a2.853 2.853 0 0 0 2.849 2.849h30.937a2.853 2.853 0 0 0 2.849-2.849V9.532a2.853 2.853 0 0 0-2.849-2.849H16.629c-.73 0-1.436.294-1.937.807l-2.163 2.172-.267-.266 2.174-2.164a3.092 3.092 0 0 1 2.193-.913h23.839a3.216 3.216 0 0 1 3.213 3.213v30.937a3.216 3.216 0 0 1-3.213 3.213H9.531z"/><path fill="#444" d="M11.943 40.792a2.738 2.738 0 0 1-2.735-2.735v-20.12c0-.702.283-1.387.776-1.881l1.607-1.599.258.258-1.608 1.608a2.296 2.296 0 0 0-.669 1.614v20.12a2.374 2.374 0 0 0 2.371 2.371h26.114a2.373 2.373 0 0 0 2.37-2.371V11.942a2.378 2.378 0 0 0-2.37-2.38H17.936c-.594 0-1.183.247-1.614.678l-1.608 1.608-.258-.257 1.599-1.608a2.722 2.722 0 0 1 1.881-.784h20.121a2.742 2.742 0 0 1 2.734 2.744v26.114a2.737 2.737 0 0 1-2.734 2.735H11.943z"/><path fill="#444" d="M14.354 37.912a2.273 2.273 0 0 1-2.266-2.276V19.245c0-.587.231-1.14.65-1.559l1.041-1.041.257.256-1.041 1.041c-.35.35-.542.813-.542 1.302v16.391a1.91 1.91 0 0 0 1.902 1.912h21.282a1.915 1.915 0 0 0 1.912-1.912V14.354a1.91 1.91 0 0 0-1.912-1.902H19.245c-.49 0-.952.192-1.302.542l-1.041 1.041-.257-.257 1.041-1.041a2.186 2.186 0 0 1 1.558-.649h16.391a2.273 2.273 0 0 1 2.276 2.266v21.282a2.279 2.279 0 0 1-2.276 2.276H14.354z"/><path fill="#444" d="M16.774 35.022a1.799 1.799 0 0 1-1.797-1.797V20.554c0-.476.182-.915.51-1.235l.486-.479.257.258-.483.474c-.262.262-.406.61-.406.981v12.672c0 .79.643 1.433 1.433 1.433h16.45c.791 0 1.434-.643 1.434-1.433v-16.45c0-.791-.643-1.434-1.434-1.434H20.543c-.358 0-.712.148-.97.406l-.476.483-.257-.257.477-.484a1.75 1.75 0 0 1 1.226-.511h12.682c.991 0 1.797.806 1.797 1.797v16.45c0 .991-.806 1.797-1.797 1.797H16.774z"/><path fill="#444" d="M32.321 19.189V30.81c0 .828-.681 1.509-1.509 1.509H19.191a1.51 1.51 0 0 1-1.509-1.509v-8.962c0-.386.147-.754.432-1.031l2.705-2.705a1.457 1.457 0 0 1 1.031-.433h8.962a1.517 1.517 0 0 1 1.509 1.51z"/><path fill="none" stroke="#444" stroke-width="2.5" stroke-linecap="round" stroke-miterlimit="10" d="M35.206 47.457H6.223a3.68 3.68 0 0 1-3.681-3.681V6.224a3.68 3.68 0 0 1 3.681-3.681h37.553a3.68 3.68 0 0 1 3.681 3.681v29.731"/></svg>