<svg version="1" xmlns="http://www.w3.org/2000/svg" viewBox="0 0 50 50"><path fill="#E56060" d="M48.404 16.895v7.92l-5.44 2.131-5.647 2.21-2.454.954-.294.118-1.481.579-3.616 1.414-8.12 3.177H9.402c-1.175 0-2.129-1.026-2.129-2.289v-2.635h-.879c-.41 0-.74-.355-.74-.796v-.694l-.006-1.395a.84.84 0 0 1 .22-.565.703.703 0 0 1 .52-.23h.884v-2.177c0-1.263.948-2.289 2.129-2.289h1.69v-1.197l.006-1.27c.055-.52.318-.763.74-.796h.994l-.012-2.171c0-1.276.955-2.296 2.129-2.296h31.325c.587 0 1.12.257 1.505.671.387.416.626.988.626 1.626z"/><path fill="#FF6B6B" d="M34.043 14.6l-19.495 7.631-7.275 2.848v-.46c0-1.263.948-2.289 2.129-2.289h1.69l.005-2.467c.059-.518.319-.765.74-.795h.886l-.013-2.171c0-1.276.955-2.296 2.129-2.296h19.204z"/><g fill="#444"><path d="M33.826 27.874c0 .159.037.324.104.471.043.086.092.159.147.232.018.018.043.037.061.055a.853.853 0 0 0 .135.128 1.506 1.506 0 0 0 .232.134c.037.012.074.024.104.037.037.006.067.018.104.024 0-.012.006-.012.012-.024.055-.116.122-.22.202-.318.012-.012.025-.031.043-.043.086-.098.177-.184.281-.257 0-.006.006-.006.006-.006a1.682 1.682 0 0 1 .759-.288c.012 0 .024-.006.037-.012.006-.043.012-.092.012-.135 0-.226-.067-.441-.19-.624l-.03-.037a1.106 1.106 0 0 0-.716-.447c-.061-.012-.122-.012-.184-.012a1.124 1.124 0 0 0-1.119 1.122zM36.378 28.009c.073.012.147.031.22.043.024.012.055.012.086.018.122.037.238.086.349.147.024.012.043.031.067.043.08.055.159.116.239.184.031.024.055.055.086.092.03.031.067.061.098.098.018-.018.037-.024.055-.043.031-.024.055-.043.086-.061.061-.049.122-.086.189-.122.018-.006.031-.018.049-.024.086-.043.171-.073.263-.092.006 0 .012-.006.018-.006.086-.018.172-.024.263-.031.018 0 .03-.006.049-.006.012 0 .018.006.025.006.006 0 .018-.006.024 0a1.14 1.14 0 0 0 .061-.379 1.12 1.12 0 0 0-1.114-1.12c-.055 0-.104 0-.153.006a1.117 1.117 0 0 0-.967 1.114c0 .041 0 .09.007.133zM34.946 32.598c.618 0 1.12-.508 1.12-1.12a1.03 1.03 0 0 0-.012-.141c-.073-.012-.147-.031-.22-.049-.024-.006-.055-.006-.079-.012a1.844 1.844 0 0 1-.355-.147c-.019-.012-.043-.031-.061-.043a1.724 1.724 0 0 1-.331-.276c-.03-.031-.067-.061-.098-.098-.013.012-.031.025-.049.043-.031.024-.068.049-.098.073a.797.797 0 0 1-.153.092c-.037.024-.067.037-.104.055a2.085 2.085 0 0 1-.184.061.696.696 0 0 1-.098.031 2.593 2.593 0 0 1-.214.024c-.024 0-.049.006-.073.006h-.043a.991.991 0 0 0-.068.379c0 .614.502 1.122 1.12 1.122zM37.491 32.598c.612 0 1.114-.508 1.114-1.12 0-.135-.018-.257-.061-.379h-.049c-.024 0-.055-.006-.08-.006a2.229 2.229 0 0 1-.196-.024c-.043-.006-.086-.025-.128-.037-.049-.012-.098-.031-.153-.049-.043-.018-.079-.043-.122-.061-.049-.031-.092-.055-.141-.092-.03-.024-.067-.049-.098-.073-.018-.018-.037-.025-.055-.043a.698.698 0 0 1-.098.098c-.031.037-.055.067-.092.098a1.655 1.655 0 0 1-.226.171c-.025.018-.049.037-.073.049a1.79 1.79 0 0 1-.349.147l-.092.018c-.073.018-.141.037-.214.043-.006.043-.006.092-.006.141a1.123 1.123 0 0 0 1.119 1.119zM36.243 31.038a1.36 1.36 0 0 0 1.132-.649 1.335 1.335 0 0 0 0-1.432 1.525 1.525 0 0 0-.214-.269 1.37 1.37 0 0 0-.918-.379h-.055a1.371 1.371 0 0 0-1.248.881 1.437 1.437 0 0 0-.086.483 1.37 1.37 0 0 0 .997 1.316c.104.031.221.043.337.049h.055zM33.71 28.578a1.12 1.12 0 0 0 .092 2.209h.019c.061.006.122 0 .183 0 .049-.006.098-.006.147-.012.024-.006.055-.018.086-.025.055-.018.116-.037.165-.061a.905.905 0 0 0 .183-.104.56.56 0 0 0 .061-.055c.03-.025.061-.055.092-.086-.037-.067-.055-.135-.079-.202-.019-.049-.037-.092-.049-.141a1.67 1.67 0 0 1-.061-.428c0-.128.018-.251.049-.379 0-.012 0-.024.006-.043-.043-.006-.073-.024-.11-.037l-.104-.037a1.521 1.521 0 0 1-.22-.122c-.018-.012-.043-.024-.067-.037a2.078 2.078 0 0 1-.239-.22c-.018-.025-.03-.049-.049-.074-.038-.048-.075-.091-.105-.146zM39.614 29.673c0-.569-.422-1.04-.985-1.108h-.012c-.043-.006-.079-.012-.122-.012-.08 0-.159.012-.239.031-.024.006-.049.012-.073.024-.049.012-.098.024-.147.049-.031.012-.055.031-.08.043a.778.778 0 0 0-.122.08.655.655 0 0 0-.073.061c-.024.018-.043.037-.067.061.037.067.055.141.079.208.018.043.043.086.055.135.037.141.061.281.061.428s-.024.294-.061.434c-.012.043-.036.086-.055.129-.025.073-.043.141-.079.208l.055.055c.037.031.068.061.104.086.031.018.068.043.098.061.037.018.074.037.116.055.043.018.086.037.135.049l.085.018c.055.012.11.018.165.018.055.006.11.006.165 0 .569-.067.997-.544.997-1.113zM36.249 25.421c-.287-.355-.722-.649-.942-.783-.177.526-.3 1.199-.147 1.628.031.08.061.153.092.214.037.006.068.025.104.031.031.012.061.018.098.031.043.018.092.043.135.067a.314.314 0 0 1 .079.043.94.94 0 0 1 .159.11c.012.006.03.018.043.031.061.049.116.11.171.171a.506.506 0 0 0 .098-.031.553.553 0 0 0 .104-.049c.336-.177.416-.569.226-1.095a1.428 1.428 0 0 0-.22-.368zM36.855 26.491a.36.36 0 0 1-.012.079c0 .006-.006.025-.006.031.012-.006.031-.006.043-.012.092-.043.19-.079.287-.098l.049-.018c.025-.049.043-.098.068-.153.159-.441-.024-1.101-.128-1.42a3.716 3.716 0 0 0-.581.441l.018.037c.067.098.122.202.165.306.037.11.068.214.086.312.006.031.006.061.012.092a.873.873 0 0 1 .018.171v.092c-.007.049-.007.097-.019.14z"/><path d="M46.271 13.349h-31.43c-1.864 0-3.381 1.589-3.381 3.542v.269h-.632c-1.097 0-1.99.917-1.99 2.045v.681h-5.11c-1.864 0-3.381 1.589-3.381 3.542v3.369c0 1.836 1.341 3.35 3.051 3.524v.443c0 1.128.893 2.045 1.99 2.045h.339v.301c0 1.952 1.517 3.541 3.381 3.541h32.345a1.25 1.25 0 0 0 0-2.5H29.72V22.578h11.112c1.037 0 1.881.916 1.881 2.042v5.416a.25.25 0 0 0 .5 0V24.62c0-1.401-1.068-2.542-2.381-2.542H14.798v-1.883c0-.505-.372-.919-.843-.958l.005-.828V16.89c0-.574.396-1.042.881-1.042h31.431c.486 0 .882.467.882 1.042v8.49a1.25 1.25 0 0 0 2.5 0v-8.49c-.001-1.952-1.517-3.541-3.383-3.541zM6.337 30.226a.44.44 0 0 1-.439-.439v-2.301a.44.44 0 0 1 .439-.439h2.081a.44.44 0 0 1 .44.439v2.301a.44.44 0 0 1-.44.439H6.337zm.683-3.68h-.683a.94.94 0 0 0-.939.939v.349l-1.67.003c-.486 0-.881-.467-.881-1.041v-3.369c0-.575.396-1.042.881-1.042h4.561a2.56 2.56 0 0 0-1.269 2.234v1.927zm22.2 7.605H9.108c-.486 0-.881-.467-.881-1.041v-1.551l.005-.833h.187c.518 0 .94-.422.94-.939v-2.301a.94.94 0 0 0-.94-.939H7.52V24.62c0-1.125.844-2.042 1.881-2.042H29.22v11.573zM14.298 20.195v1.883h-2.956v-1.883c0-.254.186-.46.414-.46h2.127c.229-.001.415.206.415.46z"/></g></svg>