<svg xmlns="http://www.w3.org/2000/svg" id="Layer_1" x="0" y="0" version="1.1" viewBox="0 0 50 50" xml:space="preserve"><style>.st2{fill:#e589ef}.st3{fill:#444}</style><path fill="#00c8e2" d="M47.2 4.1V14l-16.4 5L8.2 34.2l.8-.7-1.9 1.4L15.9 16 44.8 5l2.4-.9z"/><path fill="#00dffc" d="M46.7 4.4L28.8 14 9.4 26.9l7.8-11.1L26.3 8z"/><path d="M46.7 4.4v.1l-2.4.9z" class="st2"/><path d="M46.8 4.5l-.1.1v-.1z" class="st2"/><path d="M5.9 49.8c-.7 0-1.2-.6-1.2-1.2 0-14.6 4.1-26.1 12.3-34C29.1 2.7 45.6 3.1 46.3 3.1s1.2.6 1.2 1.3-.6 1.2-1.3 1.2c-.2 0-16.2-.3-27.6 10.8C11 23.8 7.1 34.6 7.1 48.5c0 .7-.6 1.3-1.2 1.3z" class="st3"/><path d="M16.6 44.8c-.7 0-1.2-.6-1.2-1.2 0-28.7 30.7-29.9 31.1-29.9.7 0 1.2.5 1.3 1.2 0 .7-.5 1.3-1.2 1.3-.1 0-7.3.3-14.5 3.8-9.4 4.7-14.2 12.6-14.2 23.7-.1.6-.6 1.1-1.3 1.1z" class="st3"/><path d="M45.7 18.4c-.3 0-.5-.1-.6-.4L35 1.2c-.2-.4-.1-.8.3-1 .4-.2.8-.1 1 .3l10.1 16.9c.2.4.1.8-.3 1h-.4zm-7 1.6c-.2 0-.5-.1-.6-.3L26.9 3.5c-.2-.3-.1-.8.2-1 .3-.2.8-.1 1 .2l11.1 16.2c.2.3.1.8-.2 1 0 0-.2.1-.3.1zm-5.9 2.7c-.2 0-.4-.1-.6-.3L19.5 7.5c-.3-.3-.2-.8.1-1 .3-.3.8-.2 1 .1l12.7 14.9c.3.3.2.8-.1 1-.1.1-.3.2-.4.2zm-5.1 4c-.2 0-.4-.1-.5-.2L12.6 13.3c-.3-.3-.3-.7-.1-1 .3-.3.7-.3 1-.1L28 25.4c.3.3.3.7.1 1 0 .2-.2.3-.4.3zm-4 5.3c-.1 0-.3 0-.4-.1L7.2 20.6c-.3-.2-.4-.7-.2-1 .2-.3.7-.4 1-.2l16.1 11.3c.3.2.4.7.2 1-.1.2-.4.3-.6.3zM21 38c-.1 0-.2 0-.3-.1l-17.9-8c-.4-.2-.5-.6-.4-1 .2-.4.6-.5 1-.4l17.9 8.1c.4.2.5.6.4 1-.2.2-.5.4-.7.4z" class="st3"/></svg>