<svg enable-background="new 0 0 50 50" viewBox="0 0 50 50" xmlns="http://www.w3.org/2000/svg"><path d="m29.8 27.8-18.5 11.8 4.3.8 6.9-2.5 3-3.1.7.9 9.5-6z" fill="#00dffc"/><path d="m29.2 39-3-3.3 10.2-6.5 2.1 3.8z" fill="#00c8e2"/><g fill="#444"><path d="m49.4 31.8c-.5-.5-1.2-.5-1.7-.1-4.7 3.9-6.2 2.3-8.9-.4-1.8-1.9-4.2-4.3-8.1-4.3-2.5 0-4.6 1.4-5.7 3.4-1.1-2-3.2-3.4-5.7-3.4-3.9 0-6.3 2.4-8.2 4.4-2.6 2.7-4.2 4.3-8.8.4-.5-.4-1.2-.4-1.7.1s-.5 1.2-.1 1.7c5.4 6.4 10.8 7.9 14.5 7.9 2.1 0 3.7-.5 4.5-.8 2.5-.9 4.4-2.5 5.4-4.4 1 1.9 3 3.5 5.4 4.4.8.3 2.4.8 4.5.8 3.8 0 9.1-1.5 14.5-7.9.6-.6.6-1.3.1-1.8zm-30.7 6.5c-4.2 1.5-8.1.2-11.1-1.7 2.2-.3 3.8-1.9 5.2-3.4 1.8-1.9 3.5-3.6 6.4-3.6 2.2 0 4 1.8 4 4 .1 1.4-1.5 3.5-4.5 4.7zm12.6 0c-3-1.1-4.6-3.3-4.6-4.8 0-2.2 1.8-4 4-4 2.9 0 4.6 1.7 6.4 3.6 1.5 1.5 3.1 3.1 5.2 3.4-2.9 1.9-6.8 3.3-11 1.8z"/><path d="m33.4 8.6c-4 0-7.4 3-7.9 6.9h-2.1c-.5-3.9-3.8-6.9-7.9-6.9-.7 0-1.2.6-1.2 1.2s.6 1.2 1.2 1.2c3 0 5.4 2.4 5.4 5.4s-2.3 5.6-5.3 5.6-5.4-2.4-5.4-5.4c0-.7-.6-1.2-1.2-1.2s-1.2.6-1.2 1.2c0 4.4 3.6 7.9 7.9 7.9 4.2 0 7.7-3.3 7.9-7.5h2c.2 4.2 3.7 7.5 7.9 7.5 4.4 0 7.9-3.6 7.9-7.9s-3.6-8-8-8zm0 13.4c-3 0-5.4-2.4-5.4-5.4s2.4-5.4 5.4-5.4 5.4 2.4 5.4 5.4-2.4 5.4-5.4 5.4z"/><path d="m32.5 13.1c-.4 0-.8.3-.8.8s.3.8.8.8c1.6 0 3 1.3 3 3 0 .4.3.8.8.8s.8-.3.8-.8c-.2-2.6-2.2-4.6-4.6-4.6z"/><path d="m14.6 14.6c1.6 0 3 1.3 3 3 0 .4.3.8.8.8s.8-.3.8-.8c0-2.5-2-4.5-4.5-4.5-.4 0-.8.3-.8.8s.3.7.7.7z"/></g></svg>