<?xml version="1.0" encoding="utf-8"?>
<!-- Generator: Adobe Illustrator 22.0.1, SVG Export Plug-In . SVG Version: 6.00 Build 0)  -->
<svg version="1.1" id="Layer_1" xmlns="http://www.w3.org/2000/svg" xmlns:xlink="http://www.w3.org/1999/xlink" x="0px" y="0px"
	 viewBox="0 0 300 300" style="enable-background:new 0 0 300 300;" xml:space="preserve">
<style type="text/css">
	.st0{fill:#E8E8E8;}
	.st1{fill:#D5D5D5;}
	.st2{fill:#FFCF59;}
	.st3{fill:#F0C055;}
	.st4{fill:#FFFFFF;}
	.st5{fill:#F3444D;}
	.st6{fill:#F2F2F2;}
	.st7{fill:#FFCF59;stroke:#F0C055;stroke-width:1.3457;stroke-miterlimit:10;}
</style>
<g>
	<path class="st0" d="M285.4,165.4l-120,120c-1,1-2,1.8-3.1,2.6c-8.5,5.8-20.1,5-27.7-2.6l-2.6-2.6l-7.6-7.6l-54-54L59,209.8
		l-11.6-11.6l-32.8-32.8c-8.5-8.5-8.5-22.3,0-30.8l120-120c8.5-8.5,22.3-8.5,30.8,0l120,120C293.9,143.2,293.9,157,285.4,165.4z"/>
	<path class="st1" d="M201.1,204.5c0.2,0.7,0.1,1.5-0.1,2.4c0,0-0.3,3.6-7.2,6.7l2.4-0.6c0.4-0.1,0.8-0.2,1.3-0.2
		c2.1-0.2,7.7-0.1,7,5.5c-0.4,3.1-2.5,5.7-5.3,7l-8,3.4c1.8-0.5,3.7-0.5,5.6,0c3,0.8,6.2,3.2,2.4,9.7c-6.2,10.7-50.2,21.1-50.2,21.1
		s-5.6,8-20.3,14.8c-1.4,0.4-2.8,0.7-4.1,0.9l-54-54c0.8-2.9,2.2-5.9,4.2-9.2c7.3-12,10.6-18.6,12.1-22.2c1-2.2,2.7-4.1,4.8-5.2
		C82.5,171.8,77.1,156,77.1,139c0-43.8,35.5-79.3,79.3-79.3s79.3,35.5,79.3,79.3C235.7,166.2,222,190.2,201.1,204.5z"/>
	<g>
		<g id="XMLID_1_">
			<g>
				<path class="st2" d="M67.9,238.4c0.5,0.8,1.1,1.6,1.9,2.5C69.1,240.1,68.5,239.2,67.9,238.4z M76.6,246.7
					c-0.4-0.3-4.2-3-6.8-5.9C72.9,244.5,76.2,246.5,76.6,246.7z M109.6,270.8c-0.2,0.1-5.9,4.2-9.9,8.7c-3.1,3.5-7.8,5-12.3,3.9
					c-17.1-4.3-28.7-14.7-34.3-20.7c-2.4-2.6-2.6-6.5-0.5-9.3c10-13.4,15.2-15.1,15.2-15.1c-4.4-6.5-7.3-16.7,1-30.4
					c7.3-12,10.6-18.6,12.1-22.2c1.2-2.8,3.5-4.9,6.4-5.8c8.7-2.8,25.8-9.6,30.8-21.2c4.2-9.9,8.7-9,11.4-6.9
					c1.7,1.3,2.9,3.2,3.4,5.3c1.7,6,4,22.5-15.6,34.9l-9.1,5.7c1.1-0.4,71.8-24.3,66.9-1c-19.7,2.5-46.7,11-47.5,10.8l0,0l0,0
					c5.9,3,12.4,6.9,18,12.1l0.4-0.5l41.9-9.7l0,0l2.4-0.5c0.4-0.1,0.8-0.2,1.3-0.2c2.1-0.2,7.7-0.1,7,5.5c-0.4,3.1-2.5,5.7-5.3,7
					l-8,3.4c1.8-0.5,3.7-0.5,5.6,0c3,0.8,6.2,3.2,2.4,9.7c-6.2,10.7-50.2,21.1-50.2,21.1s-5.6,8-20.3,14.8c-5,1.4-9.2,1.5-12.9,0.7
					C109.9,270.9,109.8,270.8,109.6,270.8L109.6,270.8z"/>
				<path class="st2" d="M195.2,202.7c0,0-0.3,3.6-7.1,6.7l0,0l-41.9,9.7l-0.4,0.5c-5.6-5.1-12.1-9.1-18-12.1
					c0.8,0.2,27.8-8.3,47.5-10.8C187.4,195.1,196.8,195.9,195.2,202.7z"/>
				<path class="st2" d="M127.7,207.5L127.7,207.5L127.7,207.5z"/>
				<path class="st2" d="M69.8,240.8c2.6,2.9,6.4,5.6,6.8,5.9C76.2,246.5,72.9,244.5,69.8,240.8z"/>
				<path class="st2" d="M69.7,240.8c-0.8-0.8-1.4-1.7-1.9-2.5C68.5,239.2,69.1,240.1,69.7,240.8z"/>
			</g>
		</g>
		<g>
			<path class="st3" d="M130.8,209.6c0.2,0,0.4,0.1,0.5,0.2l0.2,0.1l0.4,0.3c0.3,0.2,0.6,0.4,0.8,0.6c0.6,0.4,1.1,0.8,1.6,1.3
				c1.1,0.9,2.1,1.8,3,2.7c1.9,1.9,3.7,4.1,5.2,6.4c1.5,2.3,2.7,4.8,3.6,7.4c1,2.6,1.4,5.4,1.6,8.1c0,0.5-0.3,0.9-0.8,1
				c-0.5,0-0.9-0.3-1-0.8l0,0v-0.1c-0.2-2.6-0.5-5.2-1.3-7.7s-1.9-4.9-3.3-7.2c-1.4-2.3-3-4.4-4.8-6.3c-0.9-1-1.9-1.9-2.9-2.8
				c-0.5-0.4-1-0.9-1.5-1.3c-0.3-0.2-0.5-0.4-0.8-0.6l-0.4-0.3l-0.2-0.1c-0.1,0,0.1,0,0.1-0.1c-0.2,0-0.5-0.2-0.5-0.4
				C130.4,209.8,130.6,209.6,130.8,209.6z"/>
		</g>
		<g>
			<circle class="st4" cx="150.1" cy="134.6" r="79.8"/>
			<g>
				<g>
					<path class="st5" d="M170.9,115l2.5,0.5C172.7,115.3,171.8,115.2,170.9,115z"/>
					<path class="st5" d="M152.4,56.1c-1.1,0-2.3,0.1-3.4,0.2c-3.5,0.3-5,2-8.1,3.3c-1.9,0.8-1.4,0.5-3.5,0.4
						c-1.4-0.1-2.9-0.7-4.5-0.1c-3,1.1-4.5,4.2-7.6,4.9c-3.8,0.9-7.9-0.5-11.6,0.8c-3.1,1.1-5.9,3.2-8.3,5.3c-2.3,2-6.1,2.9-6.2,6.3
						c5.5,1.1,10.4-8,11.5,1.8c0.3,2.8,1.5,5.2,1.7,8c0.2,2.6-0.9,4.8-1,7.4c-0.3,6,5,10.6,8.3,15.3c2.2,3.2,5.4,11.8,9.8,11.2
						c3.1-5.8-9.8-8.6-9.3-14.5c5-1.2,11,10.8,13.3,14.5c3.8,6.1,9.9,6.9,16.7,7.3c3.2,0.2,4.5,1.5,7,2.4c1.6,0.6,3.8,0.3,5.5,1.1
						c1.2,0.6,2.1,1.9,3.2,2.6c1.4,0.9,15.6,10,13.2,2.2c-2.2-0.4-6.6-1-7.9-2.9c-1.3-1.9-8.4-6.9-8.7-12.1l-0.4-4
						c-3-1.9-4.5,3.7-6.6,4.6c-6.2,2.6-11.2-4.9-8.9-10.3c2-4.6,14.8-7.9,19.1-6.6c3.2,0.9,4.4,4.6,7.2,5.1c1-3.4-4.4-4.4-2.6-8.6
						c1.5-3.4,4.5-4.4,5.1-8.7c0.4-2.9,1.7-6.3,4.6-8c2.8-1.6,7.1,0.4,7-4.9c1.8,0.2,3.7,0.1,3.4-2.1c-1.6-0.6-4-1-4.6-2.8
						c-0.8,0.1-2.5,5.6-3,3.5c-0.6-2.4,2.8-3.4,0.6-5.8c-0.7-0.8-2.4-0.4-3.3-0.9c-1.5-0.8-2.3-2.8-3.9-3.4c-1.8-0.6-5-0.1-6.6,0.6
						c-1-1.7-1.2-3.8-1.1-5.8c-1.9-0.8-4.2-0.2-6.2-0.7c-1.8-0.5-3.1-1.8-5.2-1.5c-0.9-5.2,8.2-2.4,10.2-1c1.6,1.1,2,2.6,3.4,3.7
						c1.5,1.3,3.6,1.9,5.5,2.6c1.8,0.7,9.3,3,6.4-1.8c-1.4-2.4-7-4.2-9.4-5.3c-2.2-1-5-1.9-6.9-2.4C161,56.5,152.4,56.1,152.4,56.1z
						"/>
					<path class="st5" d="M165.4,208.8h0.7c1.4-2,4.5-2.6,6.6-3.9c2.3-1.5,4.4-3.2,6.4-4.7c4.1-3.2,9.6-5.8,14-8.6
						c5.6-3.6,9.3-9.6,14.5-13.8l0,0c3.5-2.8,4.8-6,6.7-10.3c1.7-3.9,9-11.4,7.3-15.2c-3.9-1.5-6.1-2.1-7.8-6.1
						c-1.1-2.5-1.9-5.2-4.7-6.3c-1.2-0.5-3,0.1-4.1-0.5c-2.4-1.2-2.1-3.4-3.6-5c-2.9-3.3-7.9-3.5-12.1-3.6c-4.3-0.1-6.1,0.9-8.2,4.3
						c-1.9,3.1-0.8,5.3-1.6,8.5c-0.8,2.9-3.3,4-4.8,6.6c-1.4,2.4-1.4,5.8-0.4,8.7c2.8,8.4,14,17.3,9.6,26.2
						C179.2,194.1,170.6,200.4,165.4,208.8z"/>
					<path class="st5" d="M195,122c0.2-0.5,0.1-1.4,0-1.9c-0.5-0.2-1.1-0.4-1.7-0.4l0.7,0.4C192.3,120.9,193.2,122.1,195,122z"/>
					<path class="st5" d="M177,122.8c0.8,0.2,2.2,0.2,3,0c-0.2-1-0.9-1.3-2-1.7l0.8,0.6c-0.5-0.3-1.1-0.4-1.8-0.2
						C176.9,122,176.9,122.3,177,122.8L177,122.8z"/>
					<path class="st5" d="M173.2,115.7c0.1,0,0.1,0,0.2,0c0.4,2.6,2.1,1.5,3.8,2.4c1.6,0.9,0.6,3,3.8,2.2v-0.9
						c-0.3-0.1-0.3,0.4-0.5,0.3c-0.1-0.6-0.7-1.4-0.9-2c-2.3,0.4-3.3-1.5-5.1-1.1c-0.3-0.5-0.7-0.7-1.2-0.9c0,0,0,0,0-0.1
						C173.3,115.6,173.2,115.7,173.2,115.7c-1.1-0.2-2.3,0.1-3.1-0.7c0.3,0,0.5,0.1,0.8,0.1l-0.9-0.2l0.1,0.1c-0.5,0-1-0.1-1.5-0.1
						c-0.1,0.5,0,0.8,0,1.3C170.1,116.4,171.8,116,173.2,115.7z"/>
				</g>
			</g>
			<path class="st6" d="M214.8,181.3c-13.1,18.1-33.7,30.7-57.7,32.8c-43.9,3.8-82.6-28.6-86.4-72.5c-2.4-27,9-52.1,28.4-68.3
				c-6.8,13.3-10,28.5-8.6,44.5c4,45.3,43.9,78.8,89.2,74.9C192.5,191.5,204.4,187.5,214.8,181.3z"/>
		</g>
		<g id="XMLID_3_">
			<g>
				<path class="st2" d="M105.5,199.8L105.5,199.8c0,0,27,12.9-0.9,34l-27.1,12.8c0,0-23.2-13.2-7.7-38.9
					c7.3-12,10.6-18.6,12.1-22.2c1.2-2.8,3.5-4.9,6.4-5.8c8.7-2.8,25.8-9.6,30.8-21.2c4.2-9.9,8.7-9,11.4-6.9
					c1.7,1.3,2.9,3.2,3.4,5.3c1.7,6,4,22.4-15.6,34.9L105.5,199.8z"/>
			</g>
		</g>
		<g>
			<path class="st3" d="M185.9,224.4l-28.6,8.5c-0.4,0.1-0.7-0.1-0.8-0.5s0.1-0.7,0.5-0.8l0,0l28.9-7.5c0.1,0,0.2,0,0.2,0.1
				C186.1,224.3,186,224.4,185.9,224.4z"/>
		</g>
		<g>
			<path class="st3" d="M188.3,209.5l-41.9,10.4c-0.4,0.1-0.7-0.1-0.8-0.5s0.1-0.7,0.5-0.8l0,0l42.2-9.3c0.1,0,0.1,0,0.1,0.1
				C188.4,209.4,188.3,209.5,188.3,209.5z"/>
		</g>
		<path class="st7" d="M67.8,238.3c0,0,6,7.8,10,8.8"/>
		<path class="st7" d="M92.3,255c0,0,4.8,12.7,17.3,15.8"/>
		<g>
			<path class="st3" d="M116.1,209.6c0.8,2.3,1.2,4.8,1.1,7.3s-0.5,4.9-1.5,7.2c-0.2,0.6-0.5,1.1-0.8,1.7l-0.4,0.8l-0.5,0.8
				c-0.4,0.5-0.7,1-1.1,1.5l-1.2,1.4c-0.2,0.2-0.4,0.5-0.6,0.7l-0.7,0.6l-1.4,1.3c-1,0.8-2,1.5-3,2.3c-0.4,0.3-1,0.2-1.3-0.2
				s-0.2-1,0.2-1.3l0,0l0.1-0.1c1-0.7,2-1.3,2.9-2l1.3-1.1l0.7-0.6c0.2-0.2,0.4-0.4,0.6-0.6l1.2-1.3c0.4-0.5,0.7-0.9,1-1.4l0.5-0.7
				l0.4-0.8c0.3-0.5,0.6-1,0.8-1.6c1-2.1,1.6-4.5,1.8-6.8c0.2-2.4-0.1-4.8-0.7-7l0,0c0-0.1,0-0.3,0.2-0.3
				C115.9,209.4,116.1,209.4,116.1,209.6z"/>
		</g>
	</g>
</g>
</svg>
