<?xml version="1.0" encoding="utf-8"?>
<!-- Generator: Adobe Illustrator 22.1.0, SVG Export Plug-In . SVG Version: 6.00 Build 0)  -->
<svg version="1.1" id="Layer_1" xmlns="http://www.w3.org/2000/svg" xmlns:xlink="http://www.w3.org/1999/xlink" x="0px" y="0px"
	 viewBox="0 0 50 50" style="enable-background:new 0 0 50 50;" xml:space="preserve">
<style type="text/css">
	.st0{fill:#A475EF;}
	.st1{fill:#BF94F7;}
	.st2{fill:#444444;}
</style>
<g>
	<polygon class="st0" points="42.8,24.6 1.7,39.2 1.7,21.3 15.8,16.2 15.2,27.8 25.8,28.6 29.2,25.2 41.8,22.8 	"/>
</g>
<g>
	<polygon class="st1" points="15.8,16.2 1.7,21.3 2.1,13 15,8.3 	"/>
</g>
<g>
	<path class="st2" d="M44.6,40.1H6.2c-1.8,0-3.2-1.5-3.2-3.2V9c0-0.7-0.6-1.2-1.2-1.2S0.5,8.3,0.5,9v27.8c0,3.2,2.6,5.7,5.7,5.7
		h38.3c0.7,0,1.2-0.6,1.2-1.2S45.3,40.1,44.6,40.1z"/>
	<path class="st2" d="M46.9,36.1H40c-0.4,0-0.8,0.3-0.8,0.8s0.3,0.8,0.8,0.8h6.8c0.4,0,0.8-0.3,0.8-0.8S47.3,36.1,46.9,36.1z"/>
	<path class="st2" d="M49.1,31.6H40c-0.4,0-0.8,0.3-0.8,0.8s0.3,0.8,0.8,0.8h9.1c0.4,0,0.8-0.3,0.8-0.8S49.5,31.6,49.1,31.6z"/>
	<path class="st2" d="M35.9,27.8c0,2.1-1.7,3.7-3.7,3.7c-0.4,0-0.8,0.3-0.8,0.8s0.3,0.8,0.8,0.8c2.6,0,4.8-2,5.2-4.5h9.5
		c0.4,0,0.8-0.3,0.8-0.8s-0.3-0.8-0.8-0.8H36.6C36.2,27.1,35.9,27.4,35.9,27.8z"/>
	<path class="st2" d="M15.2,29.1h11.2c0,0.3-0.1,0.7-0.1,1c0,0.7,0.6,1.2,1.2,1.2s1.2-0.6,1.2-1.2c0-3,2.5-5.5,5.5-5.5h7.9
		c0.7,0,1.2-0.6,1.2-1.2s-0.6-1.2-1.2-1.2h-7.9c-3.2,0-5.9,1.8-7.2,4.5H16.5V9c0-0.7-0.6-1.2-1.2-1.2S14,8.3,14,9v18.8
		C14,28.5,14.5,29.1,15.2,29.1z"/>
</g>
</svg>
