<?xml version="1.0" encoding="utf-8"?>
<!-- Generator: Adobe Illustrator 24.0.1, SVG Export Plug-In . SVG Version: 6.00 Build 0)  -->
<svg version="1.1" id="Layer_1" xmlns="http://www.w3.org/2000/svg" xmlns:xlink="http://www.w3.org/1999/xlink" x="0px" y="0px"
	 viewBox="0 0 50 50" style="enable-background:new 0 0 50 50;" xml:space="preserve">
<style type="text/css">
	.st0{fill:#E589EF;}
	.st1{fill:#F799FF;}
	.st2{fill:#444444;}
</style>
<g>
	<g>
		<path class="st0" d="M40.2,7.9L2.8,21.6c-0.2,1.2-0.3,2.3-0.3,3.6c0,5.5,1.9,10.5,5.2,14.4l40.4-14.7C48,18.1,45,12.1,40.2,7.9z"
			/>
	</g>
	<g>
		<path class="st1" d="M25,2.8c-11.2,0-20.5,8.2-22.2,19l37-13.5C35.8,4.9,30.7,2.8,25,2.8z"/>
	</g>
	<path class="st2" d="M25,1.3C11.9,1.3,1.2,11.9,1.2,25c0,4,1,7.8,2.7,11.1c0,0,0,0,0,0.1c0,0,0,0,0,0c4,7.5,11.9,12.6,21,12.6
		c6.6,0,12.7-2.6,17.2-7.4c0.5-0.5,0.5-1.3,0-1.8s-1.3-0.5-1.8,0c-1.3,1.4-2.8,2.5-4.3,3.5l-1.5-2.6c5.1-3.2,8.6-8.7,8.7-15.2h3.1
		c0.2,0.5,0.6,0.9,1.2,0.9c0.7,0,1.2-0.6,1.2-1.3C48.8,11.9,38.1,1.3,25,1.3z M43.7,15l-2.7,1.4c-1.2-2.3-3-4.3-5-5.9l1.8-2.4
		C40.2,9.9,42.3,12.3,43.7,15z M3.8,25.4h3c0.1,2.8,0.8,5.5,2,7.8l-2.7,1.4C4.7,31.8,3.8,28.7,3.8,25.4z M6.6,14.4l2.6,1.5
		c-1.5,2.6-2.4,5.6-2.5,8.8h-3C3.8,20.9,4.9,17.4,6.6,14.4z M20.1,25.4c0,0.6,0.2,1.2,0.4,1.7l-1.9,1c-0.4-0.8-0.6-1.7-0.7-2.7H20.1
		z M17.9,24.6c0.1-1.2,0.4-2.2,1-3.2l1.9,1.1c-0.4,0.6-0.6,1.3-0.7,2.1H17.9z M20.9,27.7c0.3,0.4,0.6,0.8,1,1.1l-1.3,1.8
		c-0.6-0.5-1.2-1.1-1.6-1.8L20.9,27.7z M21.2,21.9l-1.9-1.1c0.5-0.7,1.2-1.3,2-1.8l1.1,1.9C21.9,21.1,21.5,21.5,21.2,21.9z
		 M18.6,20.4L15,18.4c1-1.5,2.3-2.7,3.8-3.6l2.1,3.6C20,18.9,19.2,19.6,18.6,20.4z M18.2,21.1c-0.6,1.1-1,2.3-1.1,3.6H13
		c0.1-2,0.6-4,1.6-5.6L18.2,21.1z M17.1,25.4c0.1,1.1,0.3,2.1,0.8,3.1l-3.7,1.9c-0.8-1.5-1.2-3.2-1.3-5H17.1z M18.3,29.1
		c0.5,0.8,1.1,1.5,1.9,2.1l-2.4,3.3c-1.3-1-2.3-2.2-3.1-3.5L18.3,29.1z M17.7,35.8c2,1.3,4.3,2.1,6.9,2.2v3.8
		c-3.4-0.1-6.5-1.1-9.1-2.9L17.7,35.8z M18.3,35l2.4-3.3c1.1,0.7,2.4,1.2,3.9,1.2V37C22.3,36.9,20.1,36.2,18.3,35z M21.2,31l1.3-1.8
		c0.6,0.4,1.4,0.6,2.1,0.7v2.2C23.4,32,22.2,31.7,21.2,31z M23,20.5l-1.1-1.9c0.8-0.4,1.8-0.7,2.8-0.7v2.2
		C24,20.1,23.5,20.3,23,20.5z M21.5,18l-2.1-3.6c1.6-0.8,3.3-1.3,5.2-1.4v4.1C23.5,17.2,22.4,17.5,21.5,18z M18.9,13.5L17,10.3
		c2.3-1.2,4.8-1.9,7.6-2V12C22.6,12.1,20.6,12.6,18.9,13.5z M16.3,9l-1.5-2.6c2.9-1.6,6.3-2.5,9.8-2.6v3C21.6,6.8,18.8,7.6,16.3,9z
		 M16.4,10.6l1.9,3.2c-1.6,1-3.1,2.4-4.1,4L10.9,16C12.3,13.8,14.2,12,16.4,10.6z M13.8,18.5c-1.1,1.8-1.7,3.9-1.7,6.1H8.3
		c0.1-2.9,0.9-5.6,2.3-8L13.8,18.5z M8.3,25.4H12c0.1,1.9,0.5,3.8,1.4,5.4l-3.3,1.7C9,30.4,8.3,27.9,8.3,25.4z M13.7,31.5
		c0.9,1.5,2,2.8,3.4,3.9l-2.2,3c-1.8-1.4-3.4-3.1-4.5-5.2L13.7,31.5z M24.6,43.2v3c-4.3-0.1-8.4-1.5-11.7-3.8l1.8-2.4
		C17.5,42,20.9,43.2,24.6,43.2z M29.4,18.5c-1.2-0.8-2.5-1.2-4-1.3V13c2.4,0.1,4.6,0.8,6.4,2.1L29.4,18.5z M29.5,19.5
		c0.7,0.6,1.2,1.2,1.7,2l-1.9,1c-0.3-0.5-0.6-0.9-1-1.2L29.5,19.5z M28.9,19.1l-1.3,1.8c-0.7-0.4-1.4-0.7-2.3-0.7v-2.2
		C26.7,18,27.9,18.4,28.9,19.1z M27.2,29.4l1.1,1.9c-0.9,0.5-1.9,0.8-3,0.8v-2.2C26,29.9,26.7,29.7,27.2,29.4z M28.7,31.9l2.1,3.6
		c-1.6,0.9-3.4,1.4-5.4,1.5v-4.1C26.6,32.8,27.7,32.5,28.7,31.9z M27.9,29c0.6-0.4,1-1,1.4-1.6l1.9,1.1c-0.5,0.9-1.3,1.8-2.2,2.4
		L27.9,29z M29.6,26.8c0.2-0.4,0.3-0.9,0.3-1.4h2.2c0,0.9-0.3,1.7-0.6,2.5L29.6,26.8z M29.9,24.6c0-0.5-0.1-1-0.3-1.4l1.9-1
		c0.3,0.8,0.5,1.6,0.6,2.4H29.9z M31.9,21.2c-0.5-0.9-1.1-1.6-1.9-2.3l2.4-3.3c1.3,1,2.4,2.3,3.1,3.7L31.9,21.2z M32.4,14.3
		c-2-1.4-4.4-2.2-7-2.3V8.3c3.4,0.1,6.6,1.2,9.2,3L32.4,14.3z M25.4,6.8v-3c4.4,0.1,8.5,1.5,11.8,3.9l-1.8,2.4
		C32.6,8.1,29.1,6.8,25.4,6.8z M25.4,38c2.1-0.1,4.1-0.6,5.9-1.6l1.9,3.2c-2.3,1.3-5,2-7.8,2.1V38z M29.3,31.6
		c1-0.7,1.9-1.6,2.5-2.6l3.6,2.1c-1,1.7-2.3,3.1-4,4.2L29.3,31.6z M32.2,28.3c0.4-0.9,0.6-1.9,0.7-2.9H37c-0.1,1.8-0.5,3.4-1.2,4.9
		L32.2,28.3z M32.9,24.6c0-1-0.3-1.9-0.6-2.8l3.7-1.9c0.7,1.4,1.1,3,1.1,4.7H32.9z M33,14.8l2.2-3c1.9,1.4,3.4,3.2,4.6,5.3l-3.3,1.7
		C35.6,17.2,34.4,15.9,33,14.8z M14.2,6.8l1.5,2.6c-2.4,1.5-4.5,3.5-6,5.9L7,13.7C8.8,10.9,11.3,8.5,14.2,6.8z M6.4,35.3l2.7-1.4
		c1.2,2.2,3,4.2,5,5.7L12.3,42C9.9,40.2,7.9,37.9,6.4,35.3z M35.4,43.5c-3,1.7-6.4,2.6-10,2.7v-3c3.1-0.1,6-0.9,8.5-2.3L35.4,43.5z
		 M33.8,39.2L31.9,36c1.8-1.1,3.3-2.7,4.3-4.5l3.2,1.9C38.1,35.8,36.1,37.8,33.8,39.2z M39.9,32.7l-3.3-1.9c0.8-1.6,1.3-3.5,1.4-5.4
		h3.8C41.7,28,41,30.5,39.9,32.7z M38,24.6c-0.1-1.8-0.5-3.6-1.2-5.2l3.3-1.7c1,2.1,1.6,4.4,1.7,6.9H38z M41.4,17.1l2.7-1.4
		c1.3,2.7,2.1,5.7,2.2,9h-3C43.2,21.9,42.5,19.4,41.4,17.1z"/>
</g>
</svg>
