<?xml version="1.0" encoding="utf-8"?>
<!-- Generator: Adobe Illustrator 22.0.1, SVG Export Plug-In . SVG Version: 6.00 Build 0)  -->
<svg version="1.1" id="Camada_1" xmlns="http://www.w3.org/2000/svg" xmlns:xlink="http://www.w3.org/1999/xlink" x="0px" y="0px"
	 viewBox="0 0 50 50" style="enable-background:new 0 0 50 50;" xml:space="preserve">
<style type="text/css">
	.st0{fill:#D4FF73;}
	.st1{fill:#BEE367;}
	.st2{fill:none;stroke:#444444;stroke-width:2.5;stroke-miterlimit:10;}
	.st3{fill:#444444;}
</style>
<g>
	<g>
		<path class="st0" d="M30.8,8.9c-0.1-3.2-2.8-5.8-6-5.8c-3.3,0-6,2.7-6,6c0,0.2,0,0.4,0,0.6c-6.1,2.5-10.6,8.2-11.5,15
			c-1.8,0.1-3.4,1-4.5,2.4l36.6-13.3C37.1,11.5,34.1,9.8,30.8,8.9z"/>
	</g>
	<g>
		<path class="st1" d="M45,25.5c-0.4-4.6-2.5-8.7-5.6-11.7L2.8,27.1c-0.8,1-1.2,2.3-1.2,3.6c0,3.3,2.7,6,6,6c0.6,0,1.3-0.1,1.8-0.3
			c0.7,1.3,1.7,2.6,2.7,3.7l35.2-12.8C46.8,26.6,46,25.9,45,25.5z"/>
	</g>
	<g>
		<path class="st2" d="M10.7,39.2"/>
	</g>
	<g>
		<circle class="st3" cx="24.8" cy="9.3" r="2.6"/>
	</g>
	<path class="st3" d="M11.7,9.6c-0.7,0-1.3,0.5-1.3,1.2c0,0.7,0.5,1.3,1.2,1.3l1.3,0c-3.6,3-6.1,7.2-6.9,11.7
		c-3.2,0.8-5.6,3.7-5.6,7.1c0,4,3.3,7.3,7.3,7.3s7.3-3.3,7.3-7.3c0-3.7-2.8-6.8-6.4-7.2c0.9-3.8,3-7.2,6-9.7l0,1
		c0,0.7,0.5,1.3,1.2,1.3c0,0,0,0,0,0c0.7,0,1.2-0.5,1.2-1.2l0.2-5.3L11.7,9.6z M12.4,30.9c0,2.6-2.1,4.8-4.8,4.8
		c-2.6,0-4.8-2.1-4.8-4.8s2.1-4.8,4.8-4.8C10.3,26.1,12.4,28.3,12.4,30.9z"/>
	<path class="st3" d="M49.6,30.9c0-4-3.3-7.3-7.3-7.3s-7.3,3.3-7.3,7.3c0,3.2,2.1,6,5.1,6.9c-3.3,4.6-8.7,7.4-14.4,7.4
		c-4.3,0-8.3-1.5-11.4-4.2l0.9,0.1c0.7,0,1.3-0.5,1.3-1.2s-0.5-1.3-1.2-1.3L10,38.3l-0.4,5.5c0,0.7,0.5,1.3,1.2,1.3c0,0,0.1,0,0.1,0
		c0.7,0,1.2-0.5,1.2-1.2l0.1-1.4c3.7,3.4,8.4,5.2,13.5,5.2c7,0,13.5-3.7,17.2-9.6C46.7,37.9,49.6,34.8,49.6,30.9z M42.3,35.7
		c-2.6,0-4.8-2.1-4.8-4.8s2.1-4.8,4.8-4.8c2.6,0,4.8,2.1,4.8,4.8S45,35.7,42.3,35.7z"/>
	<path class="st3" d="M46.2,17.3c-0.6-0.3-1.4,0-1.7,0.6L43.9,19c-2.4-5-6.7-8.8-11.9-10.5c-0.5-3.6-3.5-6.3-7.2-6.3
		c-4,0-7.3,3.3-7.3,7.3s3.3,7.3,7.3,7.3c3.5,0,6.4-2.4,7.1-5.7c4.2,1.6,7.6,4.7,9.6,8.7l-0.9-0.4c-0.6-0.3-1.4,0-1.7,0.6
		c-0.3,0.6,0,1.4,0.6,1.7l4.8,2.3l2.4-4.9C47.1,18.4,46.8,17.6,46.2,17.3z M24.8,14.3c-2.6,0-4.8-2.1-4.8-4.8c0-2.6,2.1-4.8,4.8-4.8
		c2.6,0,4.8,2.1,4.8,4.8C29.6,12.1,27.5,14.3,24.8,14.3z"/>
	<g>
		<path class="st3" d="M44.2,33.6h-3.5c-0.5,0-0.8-0.4-0.8-0.8v-3.5c0-0.5,0.4-0.8,0.8-0.8h3.5c0.5,0,0.8,0.4,0.8,0.8v3.5
			C45,33.2,44.7,33.6,44.2,33.6z"/>
	</g>
	<g>
		<path class="st3" d="M10.1,33H5.3c-0.2,0-0.4-0.2-0.3-0.4l2.4-4.1c0.1-0.2,0.4-0.2,0.5,0l2.4,4.1C10.4,32.8,10.3,33,10.1,33z"/>
	</g>
</g>
</svg>
