<svg version="1" xmlns="http://www.w3.org/2000/svg" viewBox="0 0 290 168" opacity=".15"><g fill="#46666D"><path d="M17.3 151.29c-.35-.6-.98-.96-1.66-.96-.08 0-.16.01-.25.02l-5.85.73-.02-.24-5.48-9.49 16.4-6.58-2.72-4.72c-.36-.61-1.01-.96-1.71-.96h-.02L0 129.57v1.85l16.12-.44 1.65 2.87-14.66 5.88L0 134.34v3.7l2.31 4 5.4 9.35.52 7.93-1.08.62-6.6-4.41-.55-.95v4.6l.9-1.19 2.97 1.98L0 162.2v2.13l5.58-3.22 1.5 1.01 3.07-1.77-.12-1.81 6.92-4c.92-.53 1.24-1.71.71-2.63l-.36-.62zm-1.27 1.65l-6.14 3.54-.23-3.54 6.04-.72.36.62-.03.1zM11.71 51.47a3.986 3.986 0 0 0-2.26-2.08l-2.93-1.06-2.47-.9c-.21-.5-.61-.91-1.16-1.11l-1.92-.7c-.22-.08-.45-.12-.68-.12-.1 0-.19.01-.29.02v2.78l.29-.8 1.92.7v.01L0 54.28v5.84l3.87-10.63 1.1.4c-.73 3.2.64 6.48 3.45 8.2L1.67 76.64a7.85 7.85 0 0 0-1.08-.08c-.2 0-.39.01-.59.03v1.99a4.585 4.585 0 0 1 .96-.01l-.84 2.31c-.03.09-.07.18-.12.27v2.64c.9-.44 1.63-1.22 2-2.23l9.84-27.04c.37-1 .32-2.09-.13-3.05zm-1.75 2.37l-.84 2.32a5.61 5.61 0 0 1-2.25-5.58l1.9.69c.5.19.9.55 1.13 1.04.22.48.25 1.03.06 1.53zM290.46 129.57l-2.7.08-3.74-6.48c-1.67-2.89-5.25-4.25-7.57-4.25-.66 0-1.22.11-1.6.33-1.7.99-3.33 6.19-1.19 9.9l3.74 6.48-9.84 15.92c-.37.6-.38 1.36-.02 1.97l2.72 4.72 13.89-10.91 5.49 9.49.2.14-3.57 4.7c-.47.62-.52 1.45-.13 2.12l.36.62c.26.45.67.76 1.17.9.16.04.33.06.5.06.33 0 .66-.08.95-.25l1.34-.77v-2.13l-2.26 1.3-.1-.03-.36-.71 2.72-3.58v-4.63l-15.2-26.34c-1.69-2.92-.19-6.96.51-7.37.12-.07.34-.1.62-.1 1.43 0 4.62.91 6.02 3.34l5.4 9.34 2.65 4.59v-3.69l-1.65-2.86 1.65-.05v-1.85zm-7.24 16.14l-12.42 9.75-1.66-2.94 9.31-15.07 4.77 8.26zM290.46 45.53c-.19.02-.37.07-.55.16l-.06.04-3.59-1.31c.39-2.46-.99-4.94-3.42-5.82l-.61-.22c-.6-.22-1.2-.32-1.8-.32-1.85 0-3.59.97-4.56 2.58l-3.59-1.31a1.98 1.98 0 0 0-1.15-1.1l-1.92-.7c-.23-.09-.46-.13-.69-.13-.29 0-.57.07-.84.19l-.07.04-5.4-1.96c-.45-.17-.91-.25-1.37-.25-.58 0-1.16.13-1.69.38-.97.45-1.71 1.25-2.07 2.26l-9.84 27.04a4 4 0 0 0 2.39 5.13l5.4 1.96.02.08c.23.49.63.85 1.13 1.04l1.92.7h.01c.22.08.45.12.68.12.32 0 .62-.1.9-.24l17.57 6.4.03.08c.23.48.63.85 1.13 1.03l1.92.7c.23.08.46.12.68.12.32 0 .63-.1.9-.24l5.43 1.98c.45.16.91.24 1.36.24.61 0 1.21-.14 1.75-.4v-2.63a1.998 1.998 0 0 1-2.43.91l-1.9-.7c.92-1.56 2.54-2.6 4.33-2.8v-1.99c-2.6.2-4.99 1.74-6.23 4.1l-1.1-.4 7.33-20.14v-5.84l-9.43 25.89-.01.02-1.91-.7 11.35-31.2v-2.79zm-10.04-5.47c.38 0 .75.06 1.13.2l.61.22c1.38.5 2.22 1.84 2.17 3.24l-6.53-2.38c.63-.81 1.6-1.28 2.62-1.28zm-21.46-1.32c.18-.5.55-.9 1.03-1.13.27-.12.56-.19.85-.19.23 0 .46.04.68.13l2.43.88c-.58 1-1.44 1.81-2.51 2.31-.76.35-1.56.521-2.38.521-.33 0-.66-.03-.99-.08l.89-2.441zm-6.22 30.49l-2.43-.88a2.014 2.014 0 0 1-1.2-2.57l.89-2.42c1 .58 1.8 1.43 2.3 2.5.49 1.07.64 2.24.44 3.37zm2.47.9l-.57-.21a7.61 7.61 0 0 0-.53-4.9 7.594 7.594 0 0 0-3.42-3.57l6.69-18.37c.55.12 1.11.19 1.67.19a7.64 7.64 0 0 0 6.8-4.15l.57.21-11.21 30.8zm3.58 1.99v.01l-1.92-.7 11.65-32.02 1.92.7-11.65 32.01zm18.66 6.1l-16.56-6.02 11.21-30.81 3 1.1 10.57 3.84 2.99 1.09-11.21 30.8zM218.14 168h-4.39l-23.59-4.15c-.11-.02-.23-.04-.35-.04-.4 0-.8.13-1.14.37-.44.3-.73.76-.82 1.29l-.45 2.53h-2.03l.51-2.88a3.96 3.96 0 0 1 1.64-2.58c.68-.48 1.47-.73 2.28-.73.24 0 .48.02.71.07l25.01 4.41c1.11.19 2.04.84 2.62 1.71zM156.95 135.32a3.966 3.966 0 0 0-2.26-2.07l-2.93-1.07-2.48-.9c-.21-.5-.61-.91-1.15-1.11l-1.92-.7a1.989 1.989 0 0 0-1.53.07l-.07.04-3.59-1.31c.39-2.46-.99-4.93-3.41-5.82l-.61-.22c-.6-.22-1.21-.32-1.81-.32-1.84 0-3.59.97-4.55 2.58l-3.59-1.31a2 2 0 0 0-1.16-1.1l-1.92-.7c-.22-.08-.45-.12-.68-.12-.29 0-.58.06-.85.18l-.07.04-5.4-1.96a4.09 4.09 0 0 0-1.37-.25c-.58 0-1.15.13-1.69.38a4 4 0 0 0-2.07 2.26L102 148.95c-.75 2.07.32 4.37 2.39 5.13l5.4 1.96.03.08c.22.49.63.86 1.13 1.04l1.92.7c.23.08.45.12.68.12.32 0 .62-.1.9-.24l17.58 6.4.03.08c.22.48.62.85 1.12 1.03l1.93.7c.22.08.45.12.68.12.32 0 .62-.09.9-.24l5.42 1.98a4.125 4.125 0 0 0 1.36.24c.21 0 .41-.02.61-.05 1.4-.21 2.64-1.16 3.16-2.58l9.84-27.05c.36-1 .32-2.08-.13-3.05zm-21.76-11.41c.37 0 .75.06 1.12.2l.61.22c1.38.5 2.23 1.84 2.17 3.24l-6.52-2.38c.62-.8 1.6-1.28 2.62-1.28zm-21.47-1.32c.19-.5.55-.9 1.04-1.13a2.047 2.047 0 0 1 1.53-.06l2.42.88a5.65 5.65 0 0 1-2.5 2.31c-.76.35-1.57.52-2.38.52-.33 0-.66-.03-.99-.08l.88-2.44zm-6.22 30.49l-2.42-.88a1.999 1.999 0 0 1-1.2-2.56l.88-2.43a5.617 5.617 0 0 1 2.74 5.87zm2.47.9l-.56-.2a7.7 7.7 0 0 0-.53-4.91 7.621 7.621 0 0 0-3.42-3.56l6.68-18.38c.56.12 1.11.19 1.67.19a7.662 7.662 0 0 0 6.81-4.15l.57.21-11.22 30.8zm3.59 2h-.01l-1.92-.7 11.66-32.02 1.92.7-11.65 32.02zm18.65 6.1l-16.55-6.03 11.21-30.8 2.99 1.09 10.57 3.85 2.99 1.08-11.21 30.81zm3.59 1.97l-.01.02-1.92-.7 11.65-32.02 1.92.7v.02l-11.64 31.98zm9.56.68c-.3.81-1.07 1.32-1.88 1.32-.23 0-.46-.04-.69-.12l-1.9-.69a5.747 5.747 0 0 1 5.31-2.82l-.84 2.31zm1.54-4.24c-.36-.05-.72-.08-1.07-.08-2.83 0-5.51 1.59-6.84 4.14l-1.1-.41 11.21-30.8 1.1.4c-.72 3.21.65 6.48 3.45 8.2l-6.75 18.55zm8.3-22.8l-.85 2.33a5.665 5.665 0 0 1-2.25-5.59l1.91.7c.5.18.9.55 1.12 1.03.23.49.25 1.03.07 1.53zM202.004 110.801l-.093.048-2.933 3.496-.03.1.047.092 1.601 1.344.1.032.092-.049.479-.569.029-.099-.046-.094-.822-.688-.01-.189.36-.429.089-.049.096.027 5.25 4.405.045.091-.034.098-.172.202-.025.098.049.089.576.484.097.032.09-.043 1.249-1.486.03-.101-.047-.095-.575-.482-.101-.03-.093.047-.166.196-.089.05-.096-.026-5.251-4.407-.044-.089.032-.096.357-.425.185-.021.822.69.099.029.094-.046.477-.57.031-.099-.048-.095-1.6-1.342zM203.748 108.725l-.093.046-1.243 1.481-.031.1.048.094.576.484.1.029.092-.046.167-.198.089-.049.096.027 5.25 4.405.045.091-.034.096-.165.197-.029.101.046.093.576.483.1.029.094-.046 1.241-1.479.031-.102-.048-.094-.574-.482-.101-.031-.093.048-.171.203-.18.015-5.251-4.405-.017-.18.171-.204.031-.099-.048-.095-.574-.483zM206.166 105.937l-.122.029-.096.074-1.123 1.337-.055.108-.009.125.18 1.068.04.124.077.094 5.248 4.405.107.06.128.017 1.084-.008.122-.03.097-.073 1.122-1.338.055-.108.008-.125-.2-1.029-.047-.122-.078-.101-.856-.718-.103-.033-.089.048-.561.669-.034.098.051.096.856.718.044.09-.034.097-.754.9-.18.014-5.251-4.405-.017-.18.756-.899.09-.051.096.029.821.689.101.03.093-.047.56-.668.03-.1-.047-.092-.821-.689-.113-.059-.129-.025zM209.818 101.492l-.091.043-1.108 1.32-.027.096.051.09.575.483.097.034.091-.044.158-.189.079-.036.06.057 1.245 2.707.008.053-.058-.024-2.042-1.713-.016-.181.172-.203.029-.101-.046-.092-.577-.484-.101-.031-.092.048-1.243 1.482-.03.099.047.094.576.482.099.031.095-.048.164-.195.089-.052.098.028 5.251 4.406.042.089-.034.098-.165.197-.029.1.047.094.576.482.099.031.094-.047 1.244-1.481.029-.101-.046-.093-.577-.483-.099-.03-.094.047-.172.204-.18.015-1.327-1.112-.089-.1-.071-.108-.57-1.231.066-.064 2.98 1.424.033.159-.094.112-.031.101.048.092.588.482.098.034.091-.042 1.119-1.334.03-.102-.049-.092-.574-.484-.101-.03-.093.047-.106.125-.093.056-.111-.011-4.462-2.152-.099-.074-.079-.099-.83-1.833.033-.225.099-.118.029-.098-.051-.089-.576-.484zM212.873 97.849l-.089.042-2.322 2.766-.029.099.046.095.577.483.099.029.095-.046.157-.19.091-.05.096.027 5.25 4.406.045.091-.034.097-.153.182-.031.101.048.093.575.483.101.031.093-.048 2.357-2.807.029-.101-.048-.092-1.634-1.374-.104-.033-.09.05-.478.569-.032.096.049.098.858.719.042.089-.034.098-.641.764-.18.017-2.233-1.872-.049-.091.027-.098.286-.341.095-.048.101.029.274.23.187-.01.53-.631.034-.098-.051-.096-1.586-1.331-.096-.027-.091.05-.53.631.015.181.317.264.047.095-.031.101-.286.341-.091.045-.098-.033-2.023-1.697-.014-.181.6-.714.089-.052.098.028.821.689.098.034.089-.044.484-.575.027-.098-.049-.089-1.602-1.342zM216.459 93.577l-.095.048-2.932 3.495-.031.099.047.094 1.601 1.343.1.031.094-.048.476-.568.031-.101-.048-.093-.821-.689-.01-.188.36-.429.089-.05.098.028 5.25 4.407.043.088-.034.098-.17.204-.028.096.05.091.576.482.098.034.091-.044 1.248-1.487.03-.101-.047-.093-.576-.483-.099-.029-.095.046-.164.195-.091.052-.096-.027-5.251-4.406-.044-.09.034-.097.355-.423.185-.022.822.689.101.031.092-.048.477-.567.031-.102-.046-.092-1.602-1.345z"/><path d="M231.65 99.63L214.82 85.5a3.98 3.98 0 0 0-2.57-.94c-1.14 0-2.28.49-3.07 1.43l-19.13 22.8.33 3.68-3.68.32-4.49 5.34c-1.42 1.7-1.2 4.22.49 5.64l16.84 14.13c.75.63 1.66.93 2.57.93a4 4 0 0 0 3.07-1.42l4.48-5.35-.32-3.67 3.68-.33 19.13-22.8a3.985 3.985 0 0 0-.5-5.63zm-28.01 36.49c-.39.47-.96.71-1.53.71-.45 0-.91-.15-1.28-.46l-16.84-14.13a2 2 0 0 1-.25-2.82l3.96-4.71 3.44-.3 16.16 13.56.3 3.44-3.96 4.71zm26.98-32.14l-18.6 22.16-3.43.31-16.17-13.57-.3-3.44 18.59-22.16c.4-.47.97-.72 1.54-.72.45 0 .91.16 1.28.47l16.84 14.13c.41.34.66.82.71 1.36.04.53-.12 1.05-.46 1.46zM162.54 67.44c-.35-.6-.98-.96-1.66-.96-.09 0-.17 0-.25.01l-5.85.74-.02-.24-5.48-9.49 16.39-6.58-2.72-4.72c-.35-.61-1.01-.96-1.7-.96h-.02l-18.71.56-3.74-6.49c-1.66-2.88-5.25-4.24-7.56-4.24-.67 0-1.23.11-1.61.33-1.7.99-3.33 6.19-1.19 9.9l3.74 6.48-9.83 15.92c-.37.6-.39 1.36-.03 1.97l2.72 4.72 13.9-10.91 5.48 9.49.2.13-3.56 4.71c-.47.61-.52 1.45-.14 2.12l.36.62c.26.45.67.76 1.17.9.17.04.33.06.5.06.33 0 .66-.08.96-.26l6.92-3.99 1.51 1.01 3.06-1.77-.12-1.81 6.93-4c.92-.53 1.23-1.71.7-2.63l-.35-.62zm-1.19-20.32l1.66 2.87-14.67 5.89-4.77-8.26 17.78-.5zm-35.79 24.49l-1.66-2.94 9.31-15.08 4.78 8.27-12.43 9.75zm17.41 8.04l-.11-.02-.35-.71 3.63-4.79 2.96 1.98-6.13 3.54zm9.42-3.56l-6.6-4.42-15.77-27.3c-1.68-2.92-.18-6.96.52-7.37.12-.07.33-.1.62-.1 1.43 0 4.61.91 6.02 3.34l5.39 9.34 4.97 8.61 5.4 9.35.52 7.93-1.07.62zm8.88-7l-6.14 3.54-.23-3.54 6.03-.73.36.63-.02.1zM56.677 117.679a1.977 1.977 0 0 1-1.812-1.148l-2.538-5.386-12.502-2.203a2.004 2.004 0 0 1-1.624-2.316l4.41-25.009c.093-.526.386-.986.823-1.291a1.985 1.985 0 0 1 1.494-.333l25.008 4.41a2.004 2.004 0 0 1 1.624 2.316l-4.41 25.01a2.004 2.004 0 0 1-2.317 1.622l-2.524-.446-4.227 4.192a1.975 1.975 0 0 1-1.405.582M44.569 77.962c-.812 0-1.603.25-2.281.725a3.984 3.984 0 0 0-1.646 2.582l-4.408 25.009a4.004 4.004 0 0 0 3.244 4.633l11.483 2.025 2.095 4.448a4.012 4.012 0 0 0 3.617 2.296 4.007 4.007 0 0 0 2.819-1.161l3.491-3.462 1.504.266a4.014 4.014 0 0 0 4.635-3.246l4.408-25.008a4.002 4.002 0 0 0-3.244-4.633l-25.009-4.41a3.958 3.958 0 0 0-.708-.064"/><path d="M54.878 94.586a2.087 2.087 0 1 0 .007 4.175 2.087 2.087 0 0 0-.007-4.175M47.814 93.341a2.087 2.087 0 1 0 .007 4.175 2.087 2.087 0 0 0-.007-4.175M61.941 95.833c-.992 0-1.874.712-2.051 1.725a2.084 2.084 0 0 0 2.057 2.448 2.087 2.087 0 0 0-.006-4.173M60.787 32.672h-1.781l1.972 1.655.044.09-.034.099-.17.203-.027.096.05.091.576.482.097.034.091-.044 1.249-1.487.029-.101-.047-.092-.576-.484-.099-.029-.095.046-.164.196-.091.051-.096-.027-.928-.779"/><path d="M77.463 32.672h-2.611l-8.069 9.616-3.431.305-11.822-9.921h-3.112l13.644 11.447.302 3.438-3.954 4.712c-.395.47-.962.713-1.534.713-.454 0-.91-.153-1.285-.466L38.754 38.387a2.005 2.005 0 0 1-.247-2.819l2.43-2.896h-2.609l-1.352 1.612a4.003 4.003 0 0 0 .492 5.634l16.838 14.129a3.998 3.998 0 0 0 5.635-.494l4.487-5.346-.322-3.673 3.68-.328 9.677-11.534"/><path d="M56.77 26.95l-.094.049-2.933 3.494-.03.101.046.093 1.601 1.342.1.031.094-.048.477-.568.031-.099-.048-.095-.822-.688-.01-.189.36-.427.089-.051.098.028 3.275 2.749h1.783l-4.322-3.627-.045-.09.034-.096.355-.424.186-.022.821.689.101.031.093-.048.476-.567.031-.101-.048-.093-1.6-1.343-.099-.031M58.512 24.872l-.093.048-1.243 1.482-.029.099.046.093.577.483.099.031.094-.048.165-.195.089-.052.098.027 5.248 4.407.045.089-.034.098-.165.197-.029.1.046.094.576.482.1.031.094-.048 1.243-1.48.03-.101-.047-.093-.576-.483-.099-.029-.095.046-.171.204-.18.015-5.251-4.405-.015-.181.17-.203.031-.101-.047-.092-.576-.484-.101-.031M60.93 22.084l-.12.031-.098.073-1.123 1.338-.055.108-.009.124.18 1.07.04.123.077.092 5.25 4.407.107.059.128.018 1.084-.008.12-.031.098-.074 1.123-1.337.055-.108.008-.125-.202-1.028-.046-.123-.078-.099-.857-.719-.103-.034-.089.05-.561.669-.034.095.051.096.856.719.045.091-.033.098-.756.898-.18.015-5.25-4.405-.016-.18.755-.9.089-.049.097.027.82.689.101.031.093-.048.561-.667.03-.099-.047-.095-.822-.688-.113-.06-.129-.024-1.047-.02M64.582 17.64l-.091.043-1.106 1.32-.027.096.049.091.576.481.097.035.09-.043.16-.19.077-.036.062.056 1.243 2.708.008.054-.056-.024-2.044-1.714-.016-.18.172-.204.031-.1-.048-.094-.576-.483-.1-.03-.094.047-1.241 1.481-.031.1.046.094.576.483.101.03.093-.047.165-.197.09-.05.096.028 5.251 4.405.044.091-.034.097-.165.196-.031.101.049.092.574.484.101.029.093-.046 1.243-1.482.029-.099-.046-.094-.575-.482-.101-.031-.094.046-.17.204-.182.016-1.325-1.113-.091-.1-.07-.105-.571-1.233.067-.064 2.98 1.423.032.16-.094.113-.029.099.046.095.588.481.098.033.091-.043 1.119-1.334.03-.099-.047-.095-.576-.481-.099-.032-.094.047-.107.127-.092.053-.112-.009-4.461-2.153-.1-.072-.077-.099-.83-1.833.031-.225.101-.12.027-.096-.051-.089-.574-.484-.098-.034M67.639 13.996l-.091.045-2.32 2.765-.03.1.046.094.576.483.101.03.093-.048.159-.189.089-.049.098.027 5.25 4.405.043.091-.034.096-.153.183-.029.099.046.095.577.482.099.031.094-.047 2.356-2.808.029-.1-.046-.094-1.636-1.372-.104-.034-.089.052-.477.567-.034.098.051.096.856.718.043.091-.033.098-.643.765-.18.015-2.232-1.872-.05-.091.029-.098.286-.341.095-.048.099.03.274.228.187-.008.53-.633.034-.096-.049-.098-1.588-1.33-.096-.028-.089.05-.532.633.017.18.316.266.046.094-.031.1-.286.341-.091.046-.098-.034-2.021-1.696-.016-.182.6-.715.09-.049.097.027.821.689.098.033.089-.043.484-.576.027-.096-.049-.091-1.6-1.343-.098-.034M71.223 9.725l-.093.048-2.933 3.494-.031.102.048.092 1.599 1.344.102.029.092-.046.477-.569.031-.099-.047-.095-.823-.689-.008-.187.358-.429.091-.05.096.028 5.25 4.405.045.091-.034.096-.172.204-.027.098.051.089.575.484.097.032.091-.043 1.248-1.488.03-.1-.047-.094-.574-.482-.101-.031-.094.046-.165.198-.089.049-.098-.027-5.25-4.405-.043-.091.032-.096.355-.424.186-.02.823.689.099.03.093-.049.478-.567.031-.1-.048-.094-1.602-1.342-.099-.031"/><path d="M67.012.714a3.991 3.991 0 0 0-3.067 1.427L44.817 24.938l.323 3.683-3.678.315-3.134 3.736h2.609l1.522-1.814 3.445-.295 2.513 2.109h3.11l-4.344-3.646-.302-3.44L65.479 3.425a1.992 1.992 0 0 1 1.531-.713c.454 0 .911.153 1.286.467l16.838 14.127c.41.345.66.826.706 1.358a1.993 1.993 0 0 1-.459 1.461L74.853 32.672h2.61l9.449-11.262a3.958 3.958 0 0 0 .921-2.918 3.969 3.969 0 0 0-1.415-2.716L69.582 1.648a3.988 3.988 0 0 0-2.57-.934M217.92 0h-5.87l3.12.55c1.09.19 1.82 1.23 1.62 2.32l-4.4 25.01a2.013 2.013 0 0 1-2.32 1.62l-2.52-.45-3.65 3.62.002.002h-.002l-.581.576c-.383.379-.883.58-1.407.58a1.984 1.984 0 0 1-1.811-1.147l-.004-.008.003-.002-2.54-5.38-12.5-2.2a2 2 0 0 1-1.62-2.32L187.46 0h-2.03l-3.96 22.43c-.38 2.17 1.07 4.25 3.24 4.63l11.49 2.02 1.69 3.59.005.002h-.008l.405.86a4.001 4.001 0 0 0 6.436 1.135l2.012-1.996h-.007l.008-.002 1.48-1.47 1.5.27a4.006 4.006 0 0 0 4.63-3.24l4.42-25.01A3.99 3.99 0 0 0 217.92 0z"/><path d="M199.754 14.875a2.085 2.085 0 1 0 0 0zM192.69 13.631a2.087 2.087 0 1 0 0 0zM206.819 16.122a2.085 2.085 0 0 0 2.416-1.693 2.085 2.085 0 0 0-2.056-2.449 2.088 2.088 0 0 0-.36 4.142z"/></g></svg>