<svg version="1" xmlns="http://www.w3.org/2000/svg" viewBox="0 0 261.72 143" opacity=".15"><g fill="#476899"><path d="M258.86 142.21v.79h-1.84c-2.61-4.99-7.82-8.09-13.34-8.09-1.29 0-2.59.17-3.88.52-4.12 1.12-7.48 3.81-9.44 7.57h-2.22c.14-.3.29-.6.44-.9 2.22-4.28 6.021-7.33 10.7-8.6 1.46-.4 2.94-.59 4.4-.59 6.31 0 12.24 3.57 15.18 9.3zM259.24 143h-.38v-.79c.13.26.26.52.38.79z"/></g><path fill="#476899" d="M196.836 80.426c-.343 0-.685-.09-.998-.27a1.98 1.98 0 0 1-.991-1.55l-.542-5.93-10.995-6.348a1.981 1.981 0 0 1-.932-1.214 1.974 1.974 0 0 1 .2-1.517l12.695-21.991c.269-.464.7-.795 1.216-.932a1.969 1.969 0 0 1 1.517.2L220 53.57a2.003 2.003 0 0 1 .731 2.733l-12.697 21.991a1.98 1.98 0 0 1-1.214.932 1.993 1.993 0 0 1-1.519-.2l-2.219-1.279-5.406 2.494a2.03 2.03 0 0 1-.84.185m.176-41.823c-.347 0-.696.046-1.04.138a3.968 3.968 0 0 0-2.428 1.864l-12.697 21.991c-.535.927-.678 2.003-.401 3.036s.939 1.896 1.864 2.428l10.098 5.832.447 4.896a4.015 4.015 0 0 0 1.985 3.101 4.017 4.017 0 0 0 2.001.535 3.98 3.98 0 0 0 1.675-.368l4.465-2.059 1.32.761c.617.356 1.302.54 1.996.54.347 0 .697-.046 1.041-.139a3.977 3.977 0 0 0 2.428-1.864l12.697-21.993a4.006 4.006 0 0 0-1.465-5.464L199.007 39.14a3.992 3.992 0 0 0-1.995-.537"/><path fill="#476899" d="M201.656 57.863a2.09 2.09 0 0 0-1.81 1.042 2.09 2.09 0 0 0 1.806 3.131 2.087 2.087 0 0 0 .004-4.173M195.445 54.276a2.087 2.087 0 1 0 1.041.279 2.083 2.083 0 0 0-1.041-.279M207.868 61.449c-.721 0-1.422.375-1.809 1.043a2.09 2.09 0 0 0 1.805 3.131 2.086 2.086 0 1 0 .004-4.174M90.14 123.34l-22-12.7c-.61-.35-1.3-.54-1.99-.54-.35 0-.7.05-1.04.14-1.03.28-1.9.94-2.43 1.86l-12.7 22c-.53.92-.67 2-.4 3.03.28 1.04.94 1.9 1.87 2.43L57.4 143h4l-8.95-5.17c-.47-.27-.8-.7-.94-1.22-.13-.51-.06-1.05.21-1.51l12.69-21.99c.27-.47.7-.8 1.22-.94.17-.04.34-.07.52-.07.34 0 .69.1 1 .27l21.99 12.7c.95.55 1.28 1.78.73 2.73L81.09 143h2.31l8.2-14.2c1.1-1.91.45-4.36-1.46-5.46z"/><path fill="#476899" d="M70.792 129.363a2.086 2.086 0 1 0 1.043.28c-.33-.19-.689-.28-1.043-.28zM64.581 125.777a2.085 2.085 0 0 0-1.045 3.892 2.08 2.08 0 0 0 2.85-.763 2.084 2.084 0 0 0-1.805-3.129zM77.006 132.949a2.087 2.087 0 1 0-.003 4.173 2.087 2.087 0 0 0 .003-4.173zM202.4 123.3a6.339 6.339 0 0 0-4.13-2.64l-.9-.16-6.77-1.19-3.8-.67-6.77-1.2-.9-.15a6.374 6.374 0 0 0-7.41 5.19 6.32 6.32 0 0 0 1.07 4.79 6.91 6.91 0 0 0 1.71 1.66l-.42 2.4-1.8 10.23-1.38-.24a4.608 4.608 0 0 0-3.44.76c-.38.26-.7.57-.98.92h7.58l.02-.12.17-.97 1.38-7.86 5.67 8.11c.22.32.48.6.76.84h6.06l7.7-5.39-.95 5.39h2.03l1.73-9.83c2.45-.59 4.38-2.58 4.83-5.1.29-1.68-.08-3.37-1.06-4.77zm-10.17-1.68l.39.07 2.44.43-.9 5.1-2.83-.5.9-5.1zm-5.78-1.01l3.81.67-.9 5.1-3.81-.68.9-5.09zm-4.8-.85l2.83.5-.9 5.1-2.83-.5.9-5.1zm-6.49 7.17c-.27-.24-.53-.52-.74-.83-.68-.95-.94-2.11-.73-3.28.2-1.15.85-2.16 1.81-2.84a4.398 4.398 0 0 1 3.29-.72l.89.15-.93 5.26c-1.5.12-2.83.97-3.59 2.26zm21.59 5.42l-.44 2.48-9.75 6.82c-.44.31-.95.47-1.48.47a2.595 2.595 0 0 1-2.14-1.11l-6.81-9.74.43-2.48a2.602 2.602 0 0 1 3.01-2.11l5.63.99 3.81.67v.01l5.63.99c.69.12 1.28.5 1.68 1.07.4.56.55 1.26.43 1.94zm4.74-4.62c-.27 1.54-1.36 2.79-2.79 3.34-.12-.65-.36-1.26-.74-1.81a4.6 4.6 0 0 0-1.86-1.53l.92-5.26.9.16c1.16.21 2.17.85 2.84 1.81s.93 2.13.73 3.29zM120.554 100.671a.993.993 0 0 1-.294-.044c-4.073-1.294-17.664-6.346-21.557-17.042a15.068 15.068 0 0 1 .784-12.064c1.957-3.776 5.313-6.474 9.446-7.595a14.763 14.763 0 0 1 3.878-.518c6.251 0 12.092 3.969 14.234 10.161 3.685 10.644-3.394 23.083-5.651 26.642a.997.997 0 0 1-.84.46m-7.745-39.264c-1.458 0-2.935.19-4.4.588-4.68 1.27-8.479 4.326-10.699 8.605a17.075 17.075 0 0 0-.885 13.67c4.203 11.554 18.536 16.899 22.829 18.262.299.095.601.141.902.141a2.995 2.995 0 0 0 2.527-1.391c2.38-3.75 9.833-16.88 5.854-28.369-2.428-7.01-9.043-11.506-16.128-11.506"/><path fill="#476899" d="M112.835 83.392a4.958 4.958 0 0 1-4.657-3.255 4.92 4.92 0 0 1 .167-3.784 4.904 4.904 0 0 1 2.791-2.558 4.92 4.92 0 0 1 1.688-.299 4.958 4.958 0 0 1 4.655 3.256 4.954 4.954 0 0 1-2.958 6.342 4.936 4.936 0 0 1-1.686.298m-.013-11.896c-.788 0-1.589.135-2.371.42a6.898 6.898 0 0 0-3.921 3.59 6.92 6.92 0 0 0-.232 5.314 6.964 6.964 0 0 0 6.537 4.573 6.93 6.93 0 0 0 2.369-.42c3.6-1.311 5.462-5.306 4.153-8.906h-.002c-1.023-2.817-3.695-4.571-6.533-4.571M12.07 78.48l-2.62 30.03c-.09 1.06-.6 2.03-1.41 2.71-.73.62-1.63.94-2.57.94-.12 0-.24 0-.36-.01l-2.54-.23a2.97 2.97 0 0 1-1.15 1.9c-.42.31-.91.51-1.42.56v-2.04c.08-.03.16-.08.23-.13.23-.17.37-.42.4-.71l.06-.72v-.04L3.43 79.5a1 1 0 0 0-.8-1.06L0 77.89v-2.05l3.04.64c1.49.31 2.51 1.69 2.38 3.2l-2.65 30.26 2.52.21a1.991 1.991 0 0 0 1.46-.46c.41-.34.66-.82.71-1.35l2.62-30.04c.1-1.1-.72-2.07-1.82-2.17L0 75.41V73.4l8.44.74c2.2.2 3.83 2.14 3.63 4.34z"/><path fill="#476899" d="M.13 95.25c-.03.32-.07.64-.13.95v-3.72c.16.9.21 1.83.13 2.77zM65.171 87.083c-.149 0-.3-.012-.451-.038l-1.379-.245.095-.531v-.001l1.76-9.979 1.377.243a2.605 2.605 0 0 1 2.109 3.013l-.95 5.392a2.594 2.594 0 0 1-2.561 2.146m-25.958-4.536l-1.378-.242a2.604 2.604 0 0 1-2.109-3.013l.951-5.391a2.576 2.576 0 0 1 1.069-1.679 2.568 2.568 0 0 1 1.942-.431l1.38.243-1.855 10.513m19.699 5.523c-.152 0-.305-.014-.458-.041l-15.068-2.657a2.586 2.586 0 0 1-1.678-1.069 2.59 2.59 0 0 1-.431-1.942l1.936-10.984.171-.967 1.385-7.857 5.67 8.106a4.579 4.579 0 0 0 2.971 1.892 4.573 4.573 0 0 0 3.438-.761l8.109-5.679-2.436 13.817-1.056 5.995a2.589 2.589 0 0 1-1.069 1.677c-.441.309-.956.47-1.484.47m-4.699-17.446a2.584 2.584 0 0 1-2.134-1.111l-6.817-9.747.436-2.475a2.606 2.606 0 0 1 3.006-2.111l5.637.993 3.808.672 5.635.993a2.59 2.59 0 0 1 1.673 1.069c.399.568.552 1.259.431 1.942l-.436 2.477-9.749 6.827a2.611 2.611 0 0 1-1.49.471m13.626-11.058a4.59 4.59 0 0 0-.745-1.807 4.54 4.54 0 0 0-1.86-1.528l.928-5.262.893.158a4.338 4.338 0 0 1 2.837 1.812c.676.965.936 2.131.732 3.286-.271 1.543-1.361 2.796-2.785 3.341m-4.544-3.845l-2.831-.499.898-5.098.396.07 2.436.431-.899 5.096m-4.802-.846l-3.806-.67.898-5.098 3.808.67-.9 5.098m-5.776-1.018l-2.829-.501.899-5.096 2.829.501-.899 5.096m-8.415 1.569a4.63 4.63 0 0 1-.746-.821 4.327 4.327 0 0 1-.73-3.28 4.369 4.369 0 0 1 1.812-2.843 4.383 4.383 0 0 1 3.286-.728l.893.158-.928 5.26a4.59 4.59 0 0 0-3.587 2.254m2.843-9.738a6.34 6.34 0 0 0-3.653 1.157 6.357 6.357 0 0 0-2.636 4.133 6.322 6.322 0 0 0 1.069 4.788 6.64 6.64 0 0 0 1.717 1.665l-.423 2.394v.001l-1.804 10.239-1.38-.243a4.556 4.556 0 0 0-3.436.763 4.57 4.57 0 0 0-1.892 2.968l-.95 5.392a4.606 4.606 0 0 0 3.732 5.329l2.131.377c.123.276.271.546.449.8a4.569 4.569 0 0 0 2.971 1.89l15.068 2.657a4.562 4.562 0 0 0 3.437-.761c.254-.178.486-.378.696-.598l2.133.375a4.568 4.568 0 0 0 3.437-.761 4.57 4.57 0 0 0 1.892-2.969l.951-5.391a4.608 4.608 0 0 0-3.732-5.331l-1.377-.241 2.23-12.647c2.443-.591 4.38-2.584 4.822-5.1a6.35 6.35 0 0 0-1.058-4.775 6.317 6.317 0 0 0-4.133-2.638l-.893-.158V49l-6.769-1.192-3.808-.67.002-.001-6.771-1.192-.893-.158a6.567 6.567 0 0 0-1.129-.099M83.4 0l-4.5 7.79c-.53.93-1.39 1.59-2.43 1.87-.34.09-.69.14-1.04.14-.69 0-1.38-.19-1.99-.54l-1.32-.76-4.47 2.06a4.048 4.048 0 0 1-3.67-.17 4.007 4.007 0 0 1-1.99-3.1l-.45-4.9L57.4 0h4l2.04 1.18.55 5.93c.05.65.42 1.22.99 1.54.31.19.65.28.99.28.29 0 .57-.07.84-.19l5.41-2.49 2.22 1.28c.31.17.65.26 1 .26.17 0 .34-.02.52-.06.51-.14.94-.47 1.21-.94L81.09 0h2.31zM136.321 38.663c-.056 0-.113-.002-.17-.007l-2.516-.221 2.646-30.257a3 3 0 0 0-2.373-3.197l-6.598-1.379 11.817 1.034a2.004 2.004 0 0 1 1.82 2.167l-2.629 30.036a1.984 1.984 0 0 1-.706 1.355 1.982 1.982 0 0 1-1.291.469m-5.822 2.248c-.069 0-.139-.007-.21-.022l-20.807-4.35a1.002 1.002 0 0 1-.793-1.065l.106-1.201.004-.017 2.629-30.036c.063-.724.531-1.344 1.203-1.64l.059.008 20.807 4.35a1 1 0 0 1 .791 1.066l-2.731 31.233-.006.021.002.021-.063.72a.984.984 0 0 1-.401.716.99.99 0 0 1-.59.196M113.458.397c-.416 0-.82.07-1.207.193a2.991 2.991 0 0 0-1.554.568 2.99 2.99 0 0 0-1.199 2.146l-2.8 31.995a3 3 0 0 0 2.375 3.197l20.809 4.35a3.003 3.003 0 0 0 2.401-.526 2.988 2.988 0 0 0 1.151-1.896l2.543.223a3.97 3.97 0 0 0 2.922-.923 3.982 3.982 0 0 0 1.411-2.712l2.629-30.038a4.004 4.004 0 0 0-3.637-4.331L113.77.41a3.65 3.65 0 0 0-.312-.013"/><path fill="#476899" d="M125.663 29.523l.041-.061.044.021-.085.04m-2.732.6c-.304 0-.61-.019-.92-.062l.158-1.805a26.58 26.58 0 0 1 2.104.643c-.331.443-.7.847-1.095 1.22a6.819 6.819 0 0 1-.247.004m-2.394-.422a7.778 7.778 0 0 1-1.023-.453 14.154 14.154 0 0 1-.858-1.671c.674.08 1.354.195 2.037.333l-.156 1.791m6.667-1.203a26.025 26.025 0 0 0-.724-.33 13.554 13.554 0 0 0 1.344-4.276l1.589.366c-.276 1.712-1.041 3.182-2.209 4.24m-2.122-.893a27.613 27.613 0 0 0-2.781-.863l.353-4.038 3.704.853c-.201 1.479-.636 2.847-1.276 4.048m-4.257-1.197a26.388 26.388 0 0 0-2.735-.396 14.339 14.339 0 0 1-.604-4.495l3.691.848-.352 4.043m-4.315-.481c-.182-.003-.362-.007-.542-.007-.945-1.506-1.509-3.279-1.526-5.102l1.562.358a15.834 15.834 0 0 0 .506 4.751m13.024-3.178l-1.569-.362c.073-1.604-.1-3.208-.509-4.754.167.003.336.015.503.015h.052c.944 1.504 1.508 3.275 1.523 5.101m-3.054-.704l-3.695-.849.354-4.042c.919.18 1.833.31 2.737.39.437 1.456.643 2.977.604 4.501m-5.171-1.189l-3.698-.85c.2-1.48.633-2.846 1.273-4.047.908.336 1.836.622 2.779.861l-.354 4.036m-5.167-1.186l-1.58-.364c.277-1.708 1.04-3.176 2.206-4.237.238.113.477.223.719.329a13.548 13.548 0 0 0-1.345 4.272m2.119-5.568l-.044-.019.08-.033-.036.052m7.047 1.877a23.705 23.705 0 0 1-2.037-.331l.156-1.79c.353.125.692.28 1.025.451.323.538.607 1.097.856 1.67m-3.513-.674a26.273 26.273 0 0 1-2.102-.642c.329-.44.694-.843 1.086-1.212l.238-.019c.308 0 .622.03.936.072l-.158 1.801m-.78-3.374c-1.66 0-3.244.505-4.589 1.484l-.225.184-.071.056c-1.807 1.452-2.928 3.619-3.149 6.164-.223 2.545.514 5.072 1.883 7.137l.067.104c.956 1.405 2.208 2.583 3.657 3.392l.063.034c.748.41 1.545.731 2.382.924a8.605 8.605 0 0 0 1.929.223c.158 0 .312-.026.47-.036l.061.013.165-.03c1.402-.123 2.735-.59 3.888-1.428l.156-.128.182-.148c1.782-1.452 2.889-3.604 3.11-6.13.223-2.551-.518-5.083-1.892-7.148l-.052-.082c-.947-1.398-2.187-2.571-3.622-3.382l-.039-.021a9.325 9.325 0 0 0-2.462-.962 8.561 8.561 0 0 0-1.912-.22M197.78 3.06l-1.38-.24.5-2.82h-2.03l-1.48 8.43-1.06 5.99c-.12.69-.5 1.28-1.07 1.68a2.582 2.582 0 0 1-1.94.43l-15.07-2.66a2.57 2.57 0 0 1-1.68-1.07c-.4-.57-.55-1.26-.43-1.94L174.06 0h-7.58c-.46.59-.78 1.29-.91 2.05l-.95 5.39a4.603 4.603 0 0 0 3.73 5.33l2.13.38c.13.28.27.55.45.8a4.556 4.556 0 0 0 2.97 1.89l15.07 2.66c.27.05.54.07.81.07.93 0 1.84-.28 2.63-.83.25-.18.48-.38.69-.6l2.13.37c.28.05.55.08.81.08.94 0 1.85-.29 2.63-.84 1.01-.7 1.68-1.76 1.9-2.97l.95-5.39a4.61 4.61 0 0 0-3.74-5.33zm-27.7 7.99l-1.38-.24c-1.41-.26-2.36-1.61-2.11-3.02l.95-5.39c.12-.68.5-1.28 1.07-1.68.44-.31.95-.47 1.48-.47.15 0 .31.01.46.04l1.38.24-1.85 10.52zm29.47-3.01l-.95 5.4c-.13.68-.51 1.28-1.07 1.67-.45.31-.96.47-1.49.47-.15 0-.31-.01-.46-.03l-1.38-.25.1-.53 1.76-9.98 1.38.24c1.41.25 2.35 1.6 2.11 3.01zm-14.47-6.92c.94 0 1.85-.28 2.63-.83l.41-.29h-6.06c.62.54 1.38.91 2.21 1.05.27.05.54.07.81.07z"/><path fill="#4D6DA0" d="M259.23 143h-.37v-.8c.13.26.26.53.37.8z"/><path fill="#476899" d="M258.856 75.16v-.004l.003.004 2.86.25V73.4l-2.86-.25-.003.006v-.002l-14.225-1.244a3.535 3.535 0 0 0-.307-.013c-.417 0-.822.071-1.211.193a3 3 0 0 0-1.554.568 3.003 3.003 0 0 0-1.199 2.148l-2.798 31.993a3 3 0 0 0 2.375 3.199l18.92 3.956v-.006l.003.003 1.88.4c.21.04.41.06.62.06.12 0 .24-.01.36-.03v-2.04c-.12.05-.24.07-.36.07-.07 0-.14-.01-.21-.021l-2.29-.479-.003.002v-.002l-18.512-3.872a.998.998 0 0 1-.791-1.065l.104-1.201.006-.017 2.627-30.034a1.993 1.993 0 0 1 1.203-1.64l.06.006 15.304 3.199v-.001l.003.005 2.86.6v-2.05l-2.86-.6-.004.003-.683-.143.682.059z"/><path fill="#476899" d="M259.97 88.1l-.06-.08c-.32-.48-.67-.92-1.05-1.34l-.003.004v-.004a10.545 10.545 0 0 0-2.566-2.047l-.037-.019a9.29 9.29 0 0 0-2.463-.962 8.555 8.555 0 0 0-1.917-.221 7.724 7.724 0 0 0-4.585 1.483l-.225.184-.069.058c-1.808 1.45-2.928 3.619-3.15 6.162-.223 2.547.514 5.074 1.884 7.137l.067.106c.954 1.405 2.208 2.583 3.656 3.392l.063.032a9.26 9.26 0 0 0 2.384.925c.648.15 1.292.225 1.927.225.16 0 .313-.028.472-.037l.059.013.167-.03c1.4-.123 2.733-.588 3.886-1.428l.158-.128.18-.146.108-.09.005.003c1.48-1.25 2.48-3 2.86-5.04v-3.83a11.534 11.534 0 0 0-1.751-4.322zm-5.679-2.74c.353.123.692.279 1.025.451.321.537.607 1.094.856 1.667a24.543 24.543 0 0 1-2.039-.329l.158-1.789zm-.29 3.294c.919.182 1.833.312 2.737.39.436 1.456.644 2.978.605 4.502l-3.694-.851.352-4.041zm-7.171 8.766c-.945-1.506-1.51-3.281-1.524-5.104l1.56.358c-.071 1.603.1 3.207.507 4.751a32.968 32.968 0 0 0-.543-.005zm.176-6.251l-1.58-.364c.277-1.708 1.038-3.176 2.206-4.235.238.112.476.223.717.327a13.536 13.536 0 0 0-1.343 4.272zm4.392 10.031a7.885 7.885 0 0 1-1.023-.451 13.995 13.995 0 0 1-.856-1.671c.674.078 1.354.193 2.037.333l-.158 1.789zm.289-3.293a25.958 25.958 0 0 0-2.735-.394 14.416 14.416 0 0 1-.602-4.497l3.691.849-.354 4.042zm.486-5.55l-3.7-.85c.2-1.48.635-2.848 1.275-4.049a27.53 27.53 0 0 0 2.777.861l-.352 4.038zm.484-5.553a26.936 26.936 0 0 1-2.102-.64c.329-.44.694-.843 1.088-1.212l.238-.019c.308 0 .62.028.934.07l-.158 1.801zm1.384 14.814a7.4 7.4 0 0 1-1.168-.056l.158-1.807c.711.188 1.413.397 2.104.645a9.417 9.417 0 0 1-1.094 1.218zm1.902-2.512a27.748 27.748 0 0 0-2.779-.865l.353-4.037 3.702.851c-.2 1.482-.633 2.85-1.276 4.051zm2.917.034l-.003.007v-.006a6.55 6.55 0 0 1-.791.857 26.31 26.31 0 0 0-.724-.331 13.431 13.431 0 0 0 1.344-4.274l.171.039v-.006l.003.004 1.42.33c-.21 1.29-.7 2.44-1.42 3.38zm0-5.25l-.005.004-.028-.006c.072-1.604-.1-3.21-.507-4.756.167.003.336.015.501.015h.035v-.002l.003.006h.01c.95 1.5 1.51 3.27 1.53 5.1l-1.539-.361z"/><g fill="#476899"><path d="M250.22 4.57A6.964 6.964 0 0 0 243.68 0c-.78 0-1.58.13-2.36.42a6.937 6.937 0 0 0-4.16 8.9 6.964 6.964 0 0 0 6.54 4.57 6.949 6.949 0 0 0 6.52-9.32zm-4.84 7.02c-.55.21-1.12.3-1.68.3-2.02 0-3.93-1.25-4.66-3.25-.45-1.25-.39-2.59.17-3.79.56-1.19 1.55-2.1 2.79-2.56.56-.2 1.13-.29 1.69-.29 2.02 0 3.92 1.25 4.65 3.25.93 2.57-.39 5.41-2.96 6.34z"/><path d="M259.8 1.41c-.17-.48-.36-.95-.57-1.41h-2.21c.34.66.64 1.35.89 2.07.5 1.45.81 2.94.95 4.43.06.7.09 1.4.09 2.1 0 .72-.03 1.45-.09 2.17-.35 3.98-1.59 7.81-2.94 10.97a51.134 51.134 0 0 1-3.66 6.97c-.19.29-.51.46-.84.46-.1 0-.2-.01-.3-.04-4.07-1.3-17.66-6.35-21.55-17.04-1.44-3.95-1.15-8.34.78-12.07 0-.01.01-.01.01-.02h-2.23a17.047 17.047 0 0 0-.44 12.77c4.2 11.55 18.53 16.9 22.83 18.26.29.1.6.14.9.14 1 0 1.97-.5 2.53-1.39 1.09-1.73 3.27-5.45 4.91-10.09 1.19-3.37 2.09-7.21 2.09-11.13 0-2.39-.34-4.8-1.15-7.15z"/></g></svg>