<?xml version="1.0" encoding="UTF-8" standalone="no"?>
<!-- Generator: Adobe Illustrator 23.0.3, SVG Export Plug-In . SVG Version: 6.00 Build 0)  -->

<svg
   xmlns:dc="http://purl.org/dc/elements/1.1/"
   xmlns:cc="http://creativecommons.org/ns#"
   xmlns:rdf="http://www.w3.org/1999/02/22-rdf-syntax-ns#"
   xmlns:svg="http://www.w3.org/2000/svg"
   xmlns="http://www.w3.org/2000/svg"
   xmlns:sodipodi="http://sodipodi.sourceforge.net/DTD/sodipodi-0.dtd"
   xmlns:inkscape="http://www.inkscape.org/namespaces/inkscape"
   version="1.1"
   id="Layer_1"
   x="0px"
   y="0px"
   viewBox="0 0 454.17 454.17"
   style="enable-background:new 0 0 454.17 454.17;"
   xml:space="preserve"
   sodipodi:docname="espanhol-basico.svg"
   inkscape:version="0.92.4 5da689c313, 2019-01-14"><metadata
   id="metadata279"><rdf:RDF><cc:Work
       rdf:about=""><dc:format>image/svg+xml</dc:format><dc:type
         rdf:resource="http://purl.org/dc/dcmitype/StillImage" /></cc:Work></rdf:RDF></metadata><defs
   id="defs277" /><sodipodi:namedview
   pagecolor="#ffffff"
   bordercolor="#666666"
   borderopacity="1"
   objecttolerance="10"
   gridtolerance="10"
   guidetolerance="10"
   inkscape:pageopacity="0"
   inkscape:pageshadow="2"
   inkscape:window-width="1920"
   inkscape:window-height="1016"
   id="namedview275"
   showgrid="false"
   inkscape:zoom="1.0392584"
   inkscape:cx="4.9821106"
   inkscape:cy="189.75"
   inkscape:window-x="0"
   inkscape:window-y="27"
   inkscape:window-maximized="1"
   inkscape:current-layer="g272" />
<style
   type="text/css"
   id="style2">
	.st0{fill:#D7DBDE;}
	.st1{fill:#C6CACC;}
	.st2{fill:#d13744;}
	.st3{fill:#d13744;}
	.st4{fill:#D22C3A;}
	.st5{fill:#FBB200;}
	.st6{fill:#FFFFFF;}
	.st7{fill:#F8EBEC;}
	.st8{fill:#F2D7DA;}
	.st9{fill:#F4F4F4;}
	.st10{fill:#EEEEEE;}
	.st11{fill:#EFA600;}
	.st12{fill:#27CEF1;}
	.st13{fill:none;}
	.st14{fill:#B21C2E;}
</style>
<g
   id="g272">
	<path
   class="st0"
   d="M404.83,247.29l-95.32,95.32l-18.18,18.18l-35.07,35.07l-6.7,6.7l-2.28,2.28c-11.16,11.16-29.24,11.16-40.39,0   l-18.74-18.74l-11.6-11.6l-66.19-66.19l-61.02-61.02c-11.16-11.16-11.16-29.25,0-40.4L165.55,90.67l4.28-4.28l28.56-28.56   l8.49-8.49c11.16-11.16,29.24-11.16,40.39,0l29.5,29.5l81.55,81.55l46.49,46.49C415.99,218.04,415.99,236.13,404.83,247.29z"
   id="path4"
   style="fill:#ff2a2a" />
	<path
   class="st1"
   d="M358.34,160.39l-48.83,182.22l-18.18,18.18l-35.07,35.07l-6.7,6.7l-61.42-16.46l-11.6-11.6l-66.19-66.19   l-2.47-2.47l57.66-215.17l8.68-32.4c0.95-3.57,4.62-5.68,8.18-4.73l15.98,4.28l78.39,21.01L358.34,160.39z"
   id="path6"
   style="fill:#ff2a2a" />
	<path
   class="st2"
   d="M330.74,155.08l-63.93,238.6c-0.81,3.03-3.92,4.83-6.95,4.01l-156.77-42.01c-3.03-0.81-4.83-3.92-4.01-6.95   L163,110.13c0.81-3.03,3.92-4.83,6.95-4.01l156.77,42.01C329.75,148.94,331.55,152.05,330.74,155.08z"
   id="path8" />
	<path
   class="st3"
   d="M342.05,133.51l-67.86,253.28c-0.86,3.22-4.17,5.12-7.38,4.26L100.4,346.46c-3.22-0.86-5.12-4.17-4.26-7.38   L164,85.8c0.86-3.22,4.17-5.12,7.38-4.26l166.41,44.59C341,126.99,342.91,130.29,342.05,133.51z"
   id="path10" />
	<path
   class="st4"
   d="M361.14,100.74l-75.2,280.67c-0.95,3.56-4.62,5.68-8.18,4.72l-184.4-49.41c-3.56-0.95-5.68-4.62-4.72-8.18   l75.2-280.67c0.95-3.56,4.62-5.68,8.18-4.72l184.4,49.41C359.98,93.52,362.1,97.18,361.14,100.74z"
   id="path12" />
	<path
   class="st5"
   d="M125.03,285.02c-1.03,3.84,0.99,7.96,4.76,9.21c3.35,1.11,6.85-0.29,8.61-3.09c0.12,3.16,2.27,6.02,5.49,6.88   c3.22,0.86,6.51-0.53,8.19-3.21c0.12,3.16,2.27,6.02,5.49,6.88c3.22,0.86,6.51-0.53,8.19-3.21c0.12,3.16,2.27,6.02,5.49,6.88   c3.22,0.86,6.51-0.53,8.19-3.21c0.12,3.16,2.27,6.02,5.49,6.88s6.51-0.53,8.19-3.21c0.12,3.16,2.27,6.02,5.49,6.88   c3.22,0.86,6.51-0.53,8.19-3.21c0.12,3.16,2.27,6.02,5.49,6.88c3.22,0.86,6.51-0.53,8.19-3.21c0.12,3.16,2.27,6.02,5.49,6.88   c3.22,0.86,6.51-0.53,8.19-3.21c0.12,3.16,2.27,6.02,5.49,6.88c3.22,0.86,6.51-0.53,8.19-3.21c0.12,3.16,2.27,6.02,5.49,6.88   c3.22,0.86,6.51-0.53,8.19-3.21c0.12,3.3,2.46,6.26,5.91,6.98c3.89,0.81,7.69-1.76,8.72-5.59l53.65-200.24   c1.18-4.39-1.43-8.91-5.82-10.09L188.77,78.96c-4.39-1.18-8.91,1.43-10.09,5.82L125.03,285.02z"
   id="path14" />
	<path
   class="st6"
   d="M320.93,126.72l-34.17,127.51c-0.57,2.14-2.77,3.41-4.91,2.83l-127.5-34.16c-2.14-0.57-3.41-2.77-2.83-4.91   l34.17-127.51c0.57-2.14,2.77-3.41,4.91-2.83l127.51,34.17C320.23,122.39,321.5,124.58,320.93,126.72z"
   id="path16" />
	<path
   class="st7"
   d="M283.14,257.41l-25.8-6.91l36.24-135.25l25.8,6.91c1.43,0.38,2.27,1.85,1.89,3.28L286.42,255.5   C286.04,256.94,284.57,257.79,283.14,257.41z"
   id="path18" />
	<g
   id="g134">
		<g
   id="g72">
			<path
   class="st8"
   d="M280.82,248.27l-0.44,1.64l-5.61-1.5l0.44-1.64L280.82,248.27z"
   id="path20" />
			<path
   class="st8"
   d="M282.62,241.56l-0.44,1.64l-5.61-1.5l0.44-1.64L282.62,241.56z"
   id="path22" />
			<path
   class="st8"
   d="M283.52,238.2l-0.44,1.64l-5.61-1.5l0.44-1.64L283.52,238.2z"
   id="path24" />
			<path
   class="st8"
   d="M284.42,234.85l-0.44,1.64l-5.61-1.5l0.44-1.64L284.42,234.85z"
   id="path26" />
			<path
   class="st8"
   d="M287.12,224.78l-0.44,1.64l-5.61-1.5l0.44-1.64L287.12,224.78z"
   id="path28" />
			<path
   class="st8"
   d="M288.02,221.42l-0.44,1.64l-5.61-1.5l0.44-1.64L288.02,221.42z"
   id="path30" />
			<path
   class="st8"
   d="M288.92,218.06l-0.44,1.64l-5.61-1.5l0.44-1.64L288.92,218.06z"
   id="path32" />
			<path
   class="st8"
   d="M289.82,214.71l-0.44,1.64l-5.61-1.5l0.44-1.64L289.82,214.71z"
   id="path34" />
			<path
   class="st8"
   d="M292.52,204.64l-0.44,1.64l-5.61-1.5l0.44-1.64L292.52,204.64z"
   id="path36" />
			<path
   class="st8"
   d="M293.41,201.28l-0.44,1.64l-5.61-1.5l0.44-1.64L293.41,201.28z"
   id="path38" />
			<path
   class="st8"
   d="M294.31,197.93l-0.44,1.64l-5.61-1.5l0.44-1.64L294.31,197.93z"
   id="path40" />
			<path
   class="st8"
   d="M295.24,194.48l-0.44,1.64l-5.61-1.5l0.44-1.64L295.24,194.48z"
   id="path42" />
			<path
   class="st8"
   d="M296.14,191.12l-0.44,1.64l-5.61-1.5l0.44-1.64L296.14,191.12z"
   id="path44" />
			<path
   class="st8"
   d="M297.94,184.41l-0.44,1.64l-5.61-1.5l0.44-1.64L297.94,184.41z"
   id="path46" />
			<path
   class="st8"
   d="M298.84,181.05l-0.44,1.64l-5.61-1.5l0.44-1.64L298.84,181.05z"
   id="path48" />
			<path
   class="st8"
   d="M299.74,177.7l-0.44,1.64l-5.61-1.5l0.44-1.64L299.74,177.7z"
   id="path50" />
			<path
   class="st8"
   d="M302.43,167.63l-0.44,1.64l-5.61-1.5l0.44-1.64L302.43,167.63z"
   id="path52" />
			<path
   class="st8"
   d="M303.33,164.27l-0.44,1.64l-5.61-1.5l0.44-1.64L303.33,164.27z"
   id="path54" />
			<path
   class="st8"
   d="M304.23,160.91l-0.44,1.64l-5.61-1.5l0.44-1.64L304.23,160.91z"
   id="path56" />
			<path
   class="st8"
   d="M305.13,157.56l-0.44,1.64l-5.61-1.5l0.44-1.64L305.13,157.56z"
   id="path58" />
			<path
   class="st8"
   d="M306.03,154.2l-0.44,1.64l-5.61-1.5l0.44-1.64L306.03,154.2z"
   id="path60" />
			<path
   class="st8"
   d="M306.93,150.84l-0.44,1.64l-5.61-1.5l0.44-1.64L306.93,150.84z"
   id="path62" />
			<path
   class="st8"
   d="M307.83,147.49l-0.44,1.64l-5.61-1.5l0.44-1.64L307.83,147.49z"
   id="path64" />
			<path
   class="st8"
   d="M308.73,144.13l-0.44,1.64l-5.61-1.5l0.44-1.64L308.73,144.13z"
   id="path66" />
			<path
   class="st8"
   d="M312.35,130.63l-0.44,1.64l-5.61-1.5l0.44-1.64L312.35,130.63z"
   id="path68" />
			<path
   class="st8"
   d="M313.25,127.27l-0.44,1.64l-5.61-1.5l0.44-1.64L313.25,127.27z"
   id="path70" />
		</g>
		<g
   id="g132">
			<path
   class="st8"
   d="M301.07,137.84l-0.44,1.64l-5.61-1.5l0.44-1.64L301.07,137.84z"
   id="path74" />
			<path
   class="st8"
   d="M301.97,134.48l-0.44,1.64l-5.61-1.5l0.44-1.64L301.97,134.48z"
   id="path76" />
			<path
   class="st8"
   d="M302.87,131.12l-0.44,1.64l-5.61-1.5l0.44-1.64L302.87,131.12z"
   id="path78" />
			<path
   class="st8"
   d="M303.77,127.77l-0.44,1.64l-5.61-1.5l0.44-1.64L303.77,127.77z"
   id="path80" />
			<path
   class="st8"
   d="M304.67,124.41l-0.44,1.64l-5.61-1.5l0.44-1.64L304.67,124.41z"
   id="path82" />
			<path
   class="st8"
   d="M271.96,246.46l-0.44,1.64l-5.61-1.5l0.44-1.64L271.96,246.46z"
   id="path84" />
			<path
   class="st8"
   d="M272.86,243.1l-0.44,1.64l-5.61-1.5l0.44-1.64L272.86,243.1z"
   id="path86" />
			<path
   class="st8"
   d="M273.76,239.75l-0.44,1.64l-5.61-1.5l0.44-1.64L273.76,239.75z"
   id="path88" />
			<path
   class="st8"
   d="M274.66,236.39l-0.44,1.64l-5.61-1.5l0.44-1.64L274.66,236.39z"
   id="path90" />
			<path
   class="st8"
   d="M277.36,226.32l-0.44,1.64l-5.61-1.5l0.44-1.64L277.36,226.32z"
   id="path92" />
			<path
   class="st8"
   d="M278.26,222.97l-0.44,1.64l-5.61-1.5l0.44-1.64L278.26,222.97z"
   id="path94" />
			<path
   class="st8"
   d="M279.16,219.61l-0.44,1.64l-5.61-1.5l0.44-1.64L279.16,219.61z"
   id="path96" />
			<path
   class="st8"
   d="M280.96,212.9l-0.44,1.64l-5.61-1.5l0.44-1.64L280.96,212.9z"
   id="path98" />
			<path
   class="st8"
   d="M281.86,209.54l-0.44,1.64l-5.61-1.5l0.44-1.64L281.86,209.54z"
   id="path100" />
			<path
   class="st8"
   d="M282.76,206.18l-0.44,1.64l-5.61-1.5l0.44-1.64L282.76,206.18z"
   id="path102" />
			<path
   class="st8"
   d="M283.66,202.83l-0.44,1.64l-5.61-1.5l0.44-1.64L283.66,202.83z"
   id="path104" />
			<path
   class="st8"
   d="M285.45,196.12l-0.44,1.64l-5.61-1.5l0.44-1.64L285.45,196.12z"
   id="path106" />
			<path
   class="st8"
   d="M286.61,191.81l-0.44,1.64l-5.61-1.5l0.44-1.64L286.61,191.81z"
   id="path108" />
			<path
   class="st8"
   d="M287.51,188.45l-0.44,1.64l-5.61-1.5l0.44-1.64L287.51,188.45z"
   id="path110" />
			<path
   class="st8"
   d="M288.41,185.09l-0.44,1.64l-5.61-1.5l0.44-1.64L288.41,185.09z"
   id="path112" />
			<path
   class="st8"
   d="M289.31,181.74l-0.44,1.64l-5.61-1.5l0.44-1.64L289.31,181.74z"
   id="path114" />
			<path
   class="st8"
   d="M292,171.67l-0.44,1.64l-5.61-1.5l0.44-1.64L292,171.67z"
   id="path116" />
			<path
   class="st8"
   d="M292.9,168.31l-0.44,1.64l-5.61-1.5l0.44-1.64L292.9,168.31z"
   id="path118" />
			<path
   class="st8"
   d="M293.8,164.96l-0.44,1.64l-5.61-1.5l0.44-1.64L293.8,164.96z"
   id="path120" />
			<path
   class="st8"
   d="M295.6,158.24l-0.44,1.64l-5.61-1.5l0.44-1.64L295.6,158.24z"
   id="path122" />
			<path
   class="st8"
   d="M296.5,154.89l-0.44,1.64l-5.61-1.5l0.44-1.64L296.5,154.89z"
   id="path124" />
			<path
   class="st8"
   d="M297.4,151.53l-0.44,1.64l-5.61-1.5l0.44-1.64L297.4,151.53z"
   id="path126" />
			<path
   class="st8"
   d="M298.3,148.17l-0.44,1.64l-5.61-1.5l0.44-1.64L298.3,148.17z"
   id="path128" />
			<path
   class="st8"
   d="M300.1,141.46l-0.44,1.64l-5.61-1.5l0.44-1.64L300.1,141.46z"
   id="path130" />
		</g>
	</g>
	<path
   class="st6"
   d="M170.74,256.13c0.48,0.21,0.84,0.63,0.97,1.14c0.17,0.51,0.2,0.94,0.24,1.36c0.06,0.9,0.12,1.85,0.2,2.86   c0.07,1.06,0.17,2.02,0.2,2.86c0.07,1.06,0.11,2.06,0.21,3.02c0.11,0.73,0.31,1.45,0.6,2.13c0.33,0.65,0.75,1.25,1.25,1.79   c0.56,0.57,1.35,1.04,2.34,1.31c2,0.53,3.64,0.46,4.85-0.26c1.26-0.7,2.21-2.37,2.93-5.03c0.73-2.72,0.7-4.7-0.08-5.95   c-0.79-1.25-2.13-2.12-4.02-2.63L170.74,256.13L170.74,256.13z M147.85,257.47c1.27-4.75,3.11-8,5.56-9.73   c2.4-1.75,5.02-2.24,7.78-1.5l23.45,6.28c0.95,0.25,1.94,0.73,2.99,1.37c1.05,0.65,1.91,1.6,2.57,2.93   c0.68,1.27,1.11,2.89,1.25,4.85s-0.16,4.37-0.92,7.24c-0.77,2.86-1.72,5.1-2.82,6.73s-2.28,2.82-3.51,3.58   c-1.11,0.72-2.37,1.15-3.69,1.25c-1.23,0.04-2.32-0.05-3.27-0.3l-3.75-1c-2-0.53-3.7-1.56-5.03-3.06c-1.37-1.51-2.11-3.32-2.3-5.45   c-0.07-1.06-0.1-2.26-0.19-3.64s-0.21-2.65-0.27-3.92c-0.07-1.27-0.18-2.39-0.28-3.35c-0.07-0.58-0.12-1.17-0.14-1.75l-0.19-0.99   c-0.1-0.39-0.29-0.81-0.58-1.25c-0.29-0.44-0.64-0.84-1.05-1.22c-0.45-0.4-0.98-0.68-1.56-0.83l-1.52-0.41   c-0.56-0.15-1.14-0.18-1.71-0.09c-0.62,0.04-1.25,0.29-1.86,0.69c-0.62,0.41-1.19,1.03-1.71,1.83c-0.52,0.8-0.97,1.92-1.32,3.23   c-0.73,2.72-0.68,4.65,0.15,5.91c0.73,1.08,1.79,1.88,3.09,2.33c0.29,0.08,0.41,0.37,0.33,0.66l-1.49,5.94   c-0.08,0.29-0.38,0.47-0.67,0.39l-1.37-0.37c-1.33-0.36-2.5-0.93-3.54-1.78c-1.05-0.85-1.82-1.94-2.38-3.29   c-0.55-1.34-0.87-2.99-0.88-4.86C146.88,262.04,147.2,259.89,147.85,257.47L147.85,257.47z"
   id="path136" />
	<g
   id="g142">
		<path
   class="st9"
   d="M183.32,168.09l-12.47,46.56c-0.8,2.97-3.85,4.73-6.81,3.93l0,0c-2.97-0.8-4.73-3.85-3.93-6.81l12.47-46.56    c0.8-2.97,3.85-4.73,6.81-3.93l0,0C182.35,162.07,184.12,165.12,183.32,168.09z"
   id="path138" />
		<path
   class="st10"
   d="M203.52,151.2l-18.05,67.36c-0.8,2.97-3.85,4.73-6.81,3.93l0,0c-2.97-0.8-4.73-3.85-3.93-6.81l18.05-67.36    c0.8-2.97,3.85-4.73,6.81-3.93l0,0C202.55,145.18,204.31,148.23,203.52,151.2z"
   id="path140" />
	</g>
	<g
   id="g148">
		<path
   class="st9"
   d="M209.35,203.38l-5.39,20.13c-0.8,2.97-3.85,4.73-6.81,3.93l0,0c-2.97-0.8-4.73-3.85-3.93-6.81l5.39-20.13    c0.8-2.97,3.85-4.73,6.81-3.93l0,0C208.38,197.36,210.15,200.41,209.35,203.38z"
   id="path144" />
		<path
   class="st10"
   d="M229.59,186.34l-11.01,41.09c-0.8,2.97-3.85,4.73-6.81,3.93l0,0c-2.97-0.8-4.73-3.85-3.93-6.81l11.01-41.09    c0.8-2.97,3.85-4.73,6.81-3.93l0,0C228.62,180.32,230.38,183.38,229.59,186.34z"
   id="path146" />
	</g>
	<g
   id="g154">
		<path
   class="st9"
   d="M244.65,204.08l-7.58,28.31c-0.8,2.97-3.85,4.73-6.81,3.93l0,0c-2.97-0.8-4.73-3.85-3.93-6.81l7.58-28.31    c0.8-2.97,3.85-4.73,6.81-3.93l0,0C243.69,198.06,245.45,201.11,244.65,204.08z"
   id="path150" />
		<path
   class="st10"
   d="M272.82,157.43l-21.13,78.88c-0.8,2.97-3.85,4.73-6.81,3.93l0,0c-2.97-0.8-4.73-3.85-3.93-6.81l21.13-78.88    c0.8-2.97,3.85-4.73,6.81-3.93l0,0C271.86,151.41,273.62,154.46,272.82,157.43z"
   id="path152" />
	</g>
	<g
   id="g160">
		<path
   class="st9"
   d="M227.05,135.85l-7.2,26.88c-0.8,2.97-3.85,4.73-6.81,3.93l0,0c-2.97-0.8-4.73-3.85-3.93-6.81l7.2-26.88    c0.8-2.97,3.85-4.73,6.81-3.93l0,0C226.08,129.84,227.85,132.89,227.05,135.85z"
   id="path156" />
		<path
   class="st10"
   d="M237.85,154.02l-3.38,12.63c-0.8,2.97-3.85,4.73-6.81,3.93l0,0c-2.97-0.8-4.73-3.85-3.93-6.81l3.38-12.63    c0.8-2.97,3.85-4.73,6.81-3.93l0,0C236.89,148,238.65,151.05,237.85,154.02z"
   id="path158" />
	</g>
	<g
   id="g166">
		<path
   class="st9"
   d="M198.12,112.86l-4.36,16.29c-0.8,2.97-3.85,4.73-6.81,3.93l0,0c-2.97-0.8-4.73-3.85-3.93-6.81l4.36-16.29    c0.8-2.97,3.85-4.73,6.81-3.93l0,0C197.15,106.84,198.91,109.89,198.12,112.86z"
   id="path162" />
		<path
   class="st10"
   d="M215.37,106.96l-6.99,26.1c-0.8,2.97-3.85,4.73-6.81,3.93l0,0c-2.97-0.8-4.73-3.85-3.93-6.81l6.99-26.1    c0.8-2.97,3.85-4.73,6.81-3.93l0,0C214.4,100.94,216.16,103.99,215.37,106.96z"
   id="path164" />
	</g>
	<g
   id="g200">
		<path
   class="st11"
   d="M248.12,310.44l-0.44,1.64l-2.8-0.75l0.44-1.64L248.12,310.44z"
   id="path168" />
		<path
   class="st11"
   d="M249.02,307.09l-0.44,1.64l-2.8-0.75l0.44-1.64L249.02,307.09z"
   id="path170" />
		<path
   class="st11"
   d="M249.92,303.73l-0.44,1.64l-2.8-0.75l0.44-1.64L249.92,303.73z"
   id="path172" />
		<path
   class="st11"
   d="M250.82,300.38l-0.44,1.64l-2.8-0.75l0.44-1.64L250.82,300.38z"
   id="path174" />
		<path
   class="st11"
   d="M251.72,297.02l-0.44,1.64l-2.8-0.75l0.44-1.64L251.72,297.02z"
   id="path176" />
		<path
   class="st11"
   d="M252.62,293.66l-0.44,1.64l-2.8-0.75l0.44-1.64L252.62,293.66z"
   id="path178" />
		<path
   class="st11"
   d="M253.52,290.31l-0.44,1.64l-2.8-0.75l0.44-1.64L253.52,290.31z"
   id="path180" />
		<path
   class="st11"
   d="M254.42,286.95l-0.44,1.64l-2.8-0.75l0.44-1.64L254.42,286.95z"
   id="path182" />
		<path
   class="st11"
   d="M255.32,283.59l-0.44,1.64l-2.8-0.75l0.44-1.64L255.32,283.59z"
   id="path184" />
		<path
   class="st11"
   d="M256.22,280.24l-0.44,1.64l-2.8-0.75l0.44-1.64L256.22,280.24z"
   id="path186" />
		<path
   class="st11"
   d="M257.12,276.88l-0.44,1.64l-2.8-0.75l0.44-1.64L257.12,276.88z"
   id="path188" />
		<path
   class="st11"
   d="M258.02,273.53l-0.44,1.64l-2.8-0.75l0.44-1.64L258.02,273.53z"
   id="path190" />
		<path
   class="st11"
   d="M258.92,270.17l-0.44,1.64l-2.8-0.75l0.44-1.64L258.92,270.17z"
   id="path192" />
		<path
   class="st11"
   d="M259.82,266.81l-0.44,1.64l-2.8-0.75l0.44-1.64L259.82,266.81z"
   id="path194" />
		<path
   class="st11"
   d="M260.71,263.46l-0.44,1.64l-2.8-0.75l0.44-1.64L260.71,263.46z"
   id="path196" />
		<path
   class="st11"
   d="M261.61,260.1l-0.44,1.64l-2.8-0.75l0.44-1.64L261.61,260.1z"
   id="path198" />
	</g>
	<path
   class="st11"
   d="M203.98,269.26l-7.26,27.09c-0.29,1.07-1.39,1.7-2.45,1.42l0,0c-1.07-0.29-1.7-1.39-1.42-2.45l7.26-27.09   c0.29-1.07,1.39-1.7,2.45-1.42l0,0C203.63,267.09,204.27,268.19,203.98,269.26z"
   id="path202" />
	<path
   class="st11"
   d="M212.16,264.53l-8.99,33.55c-0.29,1.07-1.39,1.7-2.45,1.42l0,0c-1.07-0.29-1.7-1.39-1.42-2.45l8.99-33.55   c0.29-1.07,1.39-1.7,2.45-1.42l0,0C211.81,262.37,212.45,263.47,212.16,264.53z"
   id="path204" />
	<path
   class="st11"
   d="M214.81,280.46l-5.19,19.35c-0.29,1.07-1.39,1.7-2.45,1.42l0,0c-1.07-0.29-1.7-1.39-1.42-2.45l5.19-19.35   c0.29-1.07,1.39-1.7,2.45-1.42l0,0C214.46,278.29,215.09,279.39,214.81,280.46z"
   id="path206" />
	<path
   class="st12"
   d="M257.17,180.3l0.03,0.03c0.03-0.01,0.04-0.05,0.06-0.07C257.22,180.26,257.18,180.27,257.17,180.3z"
   id="path208" />
	<path
   class="st12"
   d="M227.12,151.21c0.28,0.12,0.47,0.12,0.64,0.09l-0.86-0.79C226.84,150.72,226.76,150.95,227.12,151.21z"
   id="path210" />
	<path
   class="st12"
   d="M264.56,190.39c0.07-0.47-0.25-0.9-0.71-0.97l-6.26-0.95c-0.02,0.03-0.04,0.07-0.05,0.1   c-0.04,0.25,0.37,0.25,0.43,0.37c-0.07,0.11-1.02,0.05-0.99,0.62l0.46,0.46c-0.35-0.05-0.52-0.52-0.92-0.26   c-0.06,0.09-0.1,0.18-0.14,0.26l7.21,1.1C264.05,191.17,264.49,190.85,264.56,190.39z"
   id="path212" />
	<path
   class="st12"
   d="M238.01,181.03c0.03,0.05,0.11,0.06,0.15,0.01l1.04-1.14c0.03-0.03,0.05-0.08,0.04-0.13l-1.02-6.06l2.47-2.6   c0.53-0.56,0.59-1.47,0.04-2.02c-0.57-0.59-1.52-0.56-2.05,0.06l-2.44,2.74l-6.12-0.51c-0.04,0-0.09,0.01-0.12,0.05l-1.04,1.13   c-0.04,0.04-0.03,0.12,0.03,0.15l0,0l4.74,2.06l-1.98,2.23l-2.36-0.15c-0.04,0-0.09,0.01-0.12,0.05l-0.67,0.73   c-0.04,0.04-0.03,0.12,0.04,0.16l2.92,1.12c0.04,0.02,0.06,0.04,0.09,0.08l1.34,2.81c0.02,0.06,0.11,0.08,0.16,0.02l0.67-0.73   c0.03-0.03,0.05-0.08,0.04-0.13l-0.35-2.32l2.06-2.15L238.01,181.03z"
   id="path214" />
	<path
   class="st12"
   d="M240.66,165l-0.02-0.25c0.05,0.17,0.19,0.2,0.34,0.25c0.03-0.02,0.08-0.04,0.09-0.11   c0.03,0.13,0.15,0.16,0.23,0.24l0.11-0.16c0.12,0.36,0.52,0.79,0.47,1.25l12.65,11.65c0.03-0.08,0.07-0.21-0.07-0.23   c-0.08-0.07,0.25,0.04,0.21-0.21l-0.08-0.15c0.12,0.02,0.25,0.15,0.39-0.02l-0.15-0.28c0.09,0.02,0.19,0.11,0.27,0.03l-0.05-0.29   c0.11,0.09,0.19,0.28,0.36,0.21c0.06,0,0.09-0.02,0.12-0.05l-24.38-22.44c-0.2,0.21-0.45,0.4-0.64,0.62   c0.08,0.06,0.19,0.14,0.3,0.2c-0.33-0.08-0.65-0.09-0.93-0.07l10.69,9.84C240.6,165.02,240.63,165.03,240.66,165z M250.15,172.9   c0,0.13,0.11,0.22,0.01,0.35c-0.09-0.02-0.24,0.06-0.32-0.04l-0.06-0.12c0.04-0.13,0.25,0.16,0.23-0.12l-0.16-0.02   C249.96,172.91,250.05,172.83,250.15,172.9z"
   id="path216" />
	<path
   class="st12"
   d="M297.77,198.65l-16.4-68.95c-0.48-2.03-2.13-3.55-4.19-3.86l-70.07-10.65c-1.68-0.25-3.36,0.34-4.51,1.59   s-1.6,2.98-1.21,4.63l16.4,68.95c0.24,1.02,0.77,1.9,1.5,2.57c0.73,0.67,1.66,1.13,2.69,1.29l38.26,5.81   c-0.02-0.01-0.03-0.02-0.05-0.02c0.16-0.13,0.51-0.02,0.43-0.28c-0.2-0.66-0.07-1.48-0.88-1.93c0.28,0.1,0.49,0.48,0.91,0.43   c0.2-0.27,0.31-0.58,0.27-0.98c0.11,0.35,0.42-0.11,0.55-0.11c0.08-0.1,0.1-0.22,0.13-0.34l-39.1-5.94   c-0.69-0.11-1.24-0.61-1.4-1.29l-6-25.22c-0.1,0.09,0.13,0.3-0.51,0.07c-0.42-0.55-1.6-0.87-2.19-1.26   c-0.68-0.41,0.22-0.5-0.64-0.83c-0.06,0.24-0.24-0.1-0.46-0.13c-0.21-0.19-0.16-0.25-0.04-0.36l-0.25-0.15   c0.11-0.04,0.56,0.21,0.71,0.14l-0.38-0.41c0.15-0.08,0.3,0.09,0.45,0.17c0.03-0.51,0.57-0.45,0.67-0.97l0.46,0.38   c0.27-0.03,0.26-0.26,0.52-0.26c0.21,0.36,0.53,0.32,0.88,0.35l-2.56-10.76c-0.57-0.33-0.92,0.31-1.5-0.26   c-0.39-0.25-0.39-0.59-0.47-0.86c0.16-0.41,0.75,0.04,1.27,0.19c0.1,0.33,0.34,0.38,0.58,0.43l-3.49-14.66l17.59,16.19   c0.12-0.07,0.21-0.16,0.22-0.33c0.06,0.23,0.4,0.11,0.51,0.17c0.4-0.09,0.23-0.55,0.3-0.82l-19.21-17.68l-2.87-12.09   c-0.13-0.56,0.01-1.12,0.4-1.54s0.94-0.61,1.5-0.53l12.28,1.87l0.31,0.28c-0.03-0.12-0.05-0.24-0.07-0.36l0.19,0.16   c0.06-0.01,0.05-0.11,0.08-0.15l-0.04-0.08c0.19,0.33,0.65,0.51,0.6,0.96c-0.02,0.04-0.06,0.05-0.1,0.07l13.29,12.24   c0.04-0.03,0.08-0.06,0.12-0.06l-0.12-0.23l0.24,0.09l0.07-0.35c0.06,0.12,0.19,0.41,0.44,0.43l0.09-0.24   c0.08-0.04,0.08,0.81,0.45,0.38c0.03,0.46,0.31,0.94,0.23,1.37l1.28,1.18c0.1,0.01,0.21,0.01,0.27,0.01   c-0.25-0.31-0.09-0.53-0.01-0.64l0.06,0.35c0.26,0.19,0.42,0.47,0.73,0.55c-0.03-0.09,0-0.17,0.16-0.13   c0.06,0.09,0.04,0.15,0.02,0.2c0.4,0.26,0.65,0.25,0.79,0.15c0.11,0.47,0.69,0.98,1.16,1.48l0.26,0.02   c-0.29-0.11-0.13,0.25-0.26,0.29c0.45,0.36,0.17,0.53,0.15,0.78l6.46,5.95c0.12,0,0.24,0.16,0.28-0.09   c-0.01-0.14,0.15,0.18,0.19-0.05c0.09,0.18,0.28,0.05,0.38,0.16l0.02-0.05c0.03,0.35,0.53,0,0.51,0.58   c0.34,0.08-0.02,0.46,0.16,0.6c-0.03,0.08-0.08,0.11-0.11,0.17l4.49,4.13l0.04-0.17c0.22,0.06,0.16-0.3,0.4-0.21   c0.06,0.07,0.15,0.22,0.27,0.11c0.06,0.2,0.3,0.38,0.07,0.62c-0.08,0.03-0.18,0.07-0.29,0.09l1.45,1.33c0-0.02-0.01-0.03-0.01-0.05   c0.07,0.05,0.1,0.1,0.17,0.12l-0.02-0.24c0.12,0.15,0.27,0.16,0.45,0.17l0.02-0.05c0.36,0.13,0.58,0.54,0.66,0.86   c-0.01,0.1-0.03,0.2-0.05,0.3l11.55,10.63c0.02-0.02,0.03-0.05,0.05-0.07c0.07,0.49,0.48,0.01,0.65-0.12   c-0.34-0.28-0.24-0.79-0.19-1.04l0.16,0.52c0.32,0.08,0.55,0.39,0.88,0.24c-0.01-0.02,0-0.04-0.01-0.05l-46.47-42.78l19.09,2.9   c-0.03-0.03-0.06-0.06-0.09-0.09c0.07,0.07,0.09,0.04,0.12,0.05l-0.68-1.04l0.21,0.14c-0.03-0.45,0.01-0.71,0.04-1.18   c0.5-0.35,1.64,0.13,2.18-0.08c0.54,0.25-0.02,0.18,0.15,0.47c0.17,0.08,0.5,0.48,0.44,0.18c0.16,0.32,0.44,0.53,0.61,0.82   l0.28,0.01c0.11,0.34,0.01,0.47,0.43,0.88c0.25,0.01,0.01-0.29,0.32-0.22c-0.3,0.07-0.24,0.36-0.25,0.62l32.43,4.93   c0.34,0.05,0.65,0.2,0.9,0.43s0.42,0.52,0.5,0.86l2.26,9.5c0.1,0.06,0.21,0.13,0.34,0.27c-0.12,0.09-0.13,0.24-0.18,0.4   l10.52,44.22l-19.81-18.23c-0.62,0.3-0.48,0.77-0.7,1.28l21.1,19.42l2.87,12.09c0.13,0.56-0.01,1.12-0.4,1.54   c-0.39,0.42-0.94,0.61-1.5,0.53l-12.28-1.87l-22.12-20.37c-0.01,0.02-0.02,0.03-0.03,0.05l0.12,0.11l-0.32,0.17   c0.16,0.23-0.27,0.1-0.16,0.38c-0.16-0.08-0.22,0-0.25,0.12c0.17,0.14,0.39,0.22,0.52,0.22l0.08-0.34c0.17,0.48,0.42,1.01,0.3,1.46   l19.36,17.82l-11.47-1.74c0.26,0.35,0.51,0.7,0.74,1c-0.13,0.7-0.45,1.38-0.63,2.08c0.09,0.03,0.22,0.1,0.35,0.11   c-0.17,0.05-0.33,0.15-0.48,0.24l25.77,3.92l0,0c1.68,0.25,3.36-0.34,4.51-1.59C297.71,202.03,298.16,200.3,297.77,198.65z    M212.66,138.11l0.02,0.07l-0.05-0.03L212.66,138.11z M212.6,138.08v0.02l-0.04-0.05L212.6,138.08z M204.73,125.4   c-0.01,0.06-0.05,0.12-0.13,0.07c-0.03-0.05-0.04-0.08-0.02-0.12C204.63,125.32,204.7,125.35,204.73,125.4z M204.41,124.65   c0.01,0.01,0,0.02-0.01,0.04c-0.02,0-0.07-0.02-0.05-0.04C204.37,124.63,204.39,124.62,204.41,124.65z M204.1,124.69   c-0.02,0.04-0.08,0.06-0.1,0.01l-0.01-0.04C204.03,124.62,204.1,124.64,204.1,124.69z M202.42,122.37l-0.12,0.04   c-0.06-0.03,0.01-0.03-0.01-0.06C202.31,122.3,202.36,122.34,202.42,122.37z M236.97,135.74l-0.04,0.08l-0.06-0.09L236.97,135.74z    M236.34,134.88c0.09,0.13-0.05,0.17-0.11,0.25c0.01,0.05,0.01,0.09-0.01,0.12c-0.03-0.06-0.01-0.09,0.01-0.12   C236.21,135,236.15,134.86,236.34,134.88z M223.46,119.68c0.08-0.17-0.1-0.2-0.16-0.32c0.02-0.03,0.06-0.01,0.1-0.01   c-0.1-0.23,0.1-0.13,0.06-0.37l0.05,0.02v-0.21c0.14,0.23,0.25-0.13,0.33,0.15l0.15-0.08c-0.02,0.29,0.54,0.68,0.19,1.03   C223.91,120.13,223.68,119.82,223.46,119.68z M229.24,120.86c-0.01,0.07,0.17-0.05,0.16-0.19c-0.05,0.07,0.04,0.12,0.05,0.18   c-0.04,0-0.04,0.04-0.06,0.08L229.24,120.86z M239.45,122.71c-0.17,0.13-0.4-0.03-0.52-0.14l-0.21-0.4l0.05,0.02l0.09-0.24   l0.05,0.02l0.02-0.16c0.06,0.12,0.23,0.2,0.24,0.09C239.37,122.18,239.66,122.34,239.45,122.71z M242,120.91   c0.07,0.01,0.19,0.12,0.21,0.21C242.11,121.11,241.97,120.97,242,120.91z M243.95,122.85c-0.06-0.16-0.16-0.38,0.02-0.38   c0.21,0.21,0.11-0.07,0.16-0.09C244.44,122.8,243.82,122.47,243.95,122.85z M281.37,137.74c-0.02-0.14-0.08-0.26,0.09-0.33   C281.78,137.44,281.62,137.82,281.37,137.74z M282.02,138.53c-0.15-0.1-0.2-0.27-0.1-0.41   C282.38,137.95,282.33,138.62,282.02,138.53z M282.96,138.01c0.28,0.06,0.05,0.17-0.02,0.28   C282.94,138.17,282.72,138.12,282.96,138.01z M282.72,147.3c-0.22-0.05-0.23-0.3-0.26-0.45c0.14-0.21,0.4-0.13,0.58-0.06   C283.19,147.06,282.95,147.24,282.72,147.3z M290.24,172.72c-0.26,0.03-0.44-0.15-0.66-0.19c-0.5-0.26-0.12-0.71-0.26-1.03   c0.3-0.17,0.46-0.19,0.83-0.41c0.48,0.07,0.29,0.47,0.77,0.54C290.84,172.21,290.86,172.52,290.24,172.72z"
   id="path218" />
	<path
   class="st12"
   d="M280.3,172.26c0.2,0.18,0.49,0.27,0.77,0.2c0.46-0.11,0.74-0.57,0.63-1.02l-8.75-36.79l-15.25-2.32   c0.01,0.04-0.02,0.05-0.11,0.01c-0.01-0.01-0.01-0.02-0.02-0.03l-22-3.34c-0.47-0.07-0.9,0.25-0.97,0.71s0.25,0.9,0.71,0.97   l32.47,4.93c0.2-0.18,0.37-0.37,0.49-0.59c0.62-0.14,0.04,0.29,0.31,0.57c0.19-0.04,0.65,0.26,0.49-0.15   c0.17,0.22,0.38,0.33,0.58,0.45l0.47,0.07l0.1-0.1c0.02,0.04,0.03,0.08,0.05,0.12l1.28,0.19l8.49,35.67   C280.09,172,280.18,172.15,280.3,172.26z M256.97,133.25l-0.03-0.09l0.01-0.03L256.97,133.25z M238.47,130.94l-0.06-0.12l0.03-0.02   l0.06,0.12L238.47,130.94z M256.79,133.61c-0.21-0.29-0.23-0.46-0.16-0.61C256.63,133.22,257.14,133.62,256.79,133.61z    M257.1,133.56l-0.01-0.09c-0.02-0.02-0.03-0.03,0-0.02v0.02C257.13,133.51,257.24,133.62,257.1,133.56z M257.2,133.27l0.03,0.01   l0.05,0.18L257.2,133.27z M267.81,134.33c0.07-0.05,0.23-0.01,0.28,0.11C267.99,134.51,267.81,134.44,267.81,134.33z M270.28,134.8   c0.28,0.11,0.08-0.22,0.12-0.3c0.45,0.36-0.26,0.46-0.01,0.91C270.28,135.22,270.1,134.98,270.28,134.8z M273.14,141.47   c0.32-0.03,0.27,0.28,0.13,0.44C273.15,141.78,273.07,141.63,273.14,141.47z M275.41,149.7c0.18-0.24,0.02-0.71,0.47-0.72   c0.15,0.16,0.55,0.39,0.31,0.68C276.03,149.99,275.64,149.69,275.41,149.7z"
   id="path220" />
	<path
   class="st12"
   d="M252.81,189.46c-0.18-0.13-0.34-0.28-0.52-0.43l0.23-0.18c-0.42-0.54-1.25-0.06-1.72-0.29   c0.55-0.16,1.75,0.15,1.53-0.61c-0.08-0.11-0.13-0.21-0.16-0.31l-24.58-3.74l-8.48-35.67c-0.11-0.45-0.57-0.74-1.02-0.63   c-0.46,0.11-0.74,0.57-0.63,1.02l1.89,7.94c0.2,0.14,0.56,0.26,0.78,0.43c0.2,0.36,0.04,0.73-0.5,0.77l6.57,27.64L252.81,189.46z    M251.81,189.03l0.03,0.03l-0.45,0.08C251.43,189,251.68,189.08,251.81,189.03z"
   id="path222" />
	<g
   id="g242">
		<path
   class="st13"
   d="M194.71,331.47l-0.1-0.03c-0.79,1.6-1.7,3.49-2.51,4.98l-0.56,1.08l3.05,0.77l0.02-1.22    C194.59,335.36,194.69,333.23,194.71,331.47z"
   id="path224" />
		<path
   class="st13"
   d="M208.42,335.21l-0.26-0.07l-2.43,9.58l0.26,0.07c2.41,0.61,4.55,0.12,5.53-3.77    C212.51,337.12,210.82,335.82,208.42,335.21z"
   id="path226" />
		<path
   class="st13"
   d="M227.22,339.92c-2-0.51-3.67,0.92-4.43,3.94c-0.77,3.02-0.02,5.23,1.98,5.73s3.71-1.08,4.47-4.1    C230.01,342.48,229.22,340.43,227.22,339.92z"
   id="path228" />
		<path
   class="st14"
   d="M161.58,319.59l-3.53,6.84c-0.88,1.66-1.65,3.29-2.56,4.96l-0.1-0.03c-0.01-1.91,0.12-3.7,0.11-5.58    l0.1-7.71l-4.66-1.18l0.7,17.89l5.33,1.35l9.13-15.4L161.58,319.59z"
   id="path230" />
		
			<rect
   x="158.93"
   y="327.66"
   transform="matrix(0.2456 -0.9694 0.9694 0.2456 -193.4518 411.2896)"
   class="st14"
   width="17.17"
   height="4.54"
   id="rect232" />
		<path
   class="st14"
   d="M182.25,332.34l-1.82-1.31c-1.36-0.97-2.24-1.49-2.04-2.29c0.19-0.74,0.95-0.96,2.03-0.69    c1.23,0.31,2.1,0.97,3.02,2.05l2.9-2.21c-1.15-1.9-3.07-3.15-4.97-3.63c-3.64-0.92-6.79,0.76-7.51,3.6    c-0.61,2.41,0.57,4.31,2.18,5.48l1.85,1.4c1.27,0.92,2.05,1.39,1.84,2.18c-0.19,0.74-0.86,1.03-2.19,0.7    c-1.23-0.31-2.55-1.35-3.48-2.6l-3.28,2.38c1.38,2.07,3.6,3.45,5.7,3.98c4.15,1.05,7.14-0.86,7.85-3.68    C184.93,335.42,184.11,333.69,182.25,332.34z"
   id="path234" />
		<path
   class="st14"
   d="M192.92,327.53l-9.29,15.36l4.51,1.14l1.72-3.32l4.64,1.18l-0.07,3.74l4.66,1.18l-0.85-17.93L192.92,327.53z     M191.53,337.5l0.56-1.08c0.81-1.48,1.73-3.38,2.51-4.98l0.1,0.03c-0.01,1.77-0.12,3.89-0.11,5.59l-0.02,1.22L191.53,337.5z"
   id="path236" />
		<path
   class="st14"
   d="M209.57,331.74l-4.92-1.25l-4.22,16.64l5.17,1.31c4.81,1.22,8.93-0.41,10.42-6.3    C217.52,336.27,214.64,333.03,209.57,331.74z M211.52,341.01c-0.99,3.89-3.13,4.38-5.53,3.77l-0.26-0.07l2.43-9.58l0.26,0.07    C210.82,335.82,212.51,337.12,211.52,341.01z"
   id="path238" />
		<path
   class="st14"
   d="M228.18,336.13c-4.61-1.17-8.51,1.11-9.9,6.59s0.92,9.5,5.53,10.66s8.55-1.27,9.94-6.75    C235.13,341.19,232.79,337.3,228.18,336.13z M229.24,345.5c-0.77,3.02-2.47,4.6-4.47,4.1s-2.75-2.71-1.98-5.73    c0.77-3.02,2.44-4.45,4.43-3.94S230.01,342.48,229.24,345.5z"
   id="path240" />
	</g>
	<g
   id="g256">
		<path
   class="st11"
   d="M252.07,307.01l4.33,2.3c1.05,0.57,2.08,1.07,3.14,1.67l-0.02,0.07c-1.21-0.01-2.35-0.1-3.55-0.11    l-4.91-0.12l-0.78,2.96l11.38-0.32l0.9-3.38l-9.73-5.92L252.07,307.01z"
   id="path244" />
		
			<rect
   x="257.26"
   y="297.86"
   transform="matrix(0.2566 -0.9665 0.9665 0.2566 -100.848 475.5307)"
   class="st11"
   width="2.89"
   height="10.92"
   id="rect246" />
		<path
   class="st11"
   d="M260.33,293.95l-0.84,1.15c-0.63,0.86-0.97,1.41-1.47,1.28c-0.47-0.12-0.6-0.61-0.42-1.29    c0.21-0.78,0.63-1.33,1.32-1.91l-1.38-1.86c-1.22,0.72-2.02,1.93-2.34,3.13c-0.61,2.31,0.43,4.32,2.24,4.8    c1.53,0.4,2.75-0.33,3.5-1.35l0.9-1.17c0.59-0.8,0.9-1.29,1.4-1.16c0.47,0.12,0.65,0.56,0.43,1.4c-0.21,0.78-0.88,1.61-1.68,2.2    l1.49,2.1c1.33-0.87,2.22-2.26,2.57-3.59c0.7-2.63-0.5-4.55-2.28-5.02C262.31,292.27,261.2,292.78,260.33,293.95z"
   id="path248" />
		<path
   class="st11"
   d="M257.35,287.13l9.7,6.02l0.76-2.86l-2.1-1.12l0.78-2.95l2.38,0.07l0.78-2.96l-11.41,0.41L257.35,287.13z     M263.68,288.09l-0.69-0.37c-0.94-0.53-2.14-1.12-3.15-1.63l0.02-0.07c1.12,0.02,2.48,0.1,3.55,0.11l0.78,0.02L263.68,288.09z"
   id="path250" />
		<path
   class="st11"
   d="M260.15,276.57l-0.83,3.12l10.56,2.8l0.87-3.28c0.81-3.05-0.2-5.68-3.93-6.68    C263.08,271.54,261,273.36,260.15,276.57z M266.06,275.39c2.47,0.66,2.77,2.02,2.36,3.55l-0.04,0.16l-6.07-1.61l0.04-0.16    C262.75,275.8,263.59,274.74,266.06,275.39z"
   id="path252" />
		<path
   class="st11"
   d="M263.08,264.76c-0.78,2.92,0.65,5.42,4.12,6.34c3.47,0.92,6.05-0.52,6.82-3.44    c0.78-2.92-0.74-5.45-4.22-6.37C266.34,260.38,263.85,261.84,263.08,264.76z M269.04,264.15c1.92,0.51,2.91,1.61,2.57,2.87    c-0.34,1.27-1.74,1.73-3.66,1.22s-2.81-1.58-2.48-2.85C265.82,264.13,267.13,263.65,269.04,264.15z"
   id="path254" />
	</g>
	<g
   id="g270">
		<path
   class="st12"
   d="M228.97,134.58l1.56,1.39l-2.56,5.21c-0.57,1.18-1.12,2.16-1.68,3.35l0.05,0.04    c1.12-0.69,2.04-1.34,3.14-2.04l4.88-3.13l1.5,1.34l-9.98,5.99l-1.74-1.56L228.97,134.58z"
   id="path258" />
		<path
   class="st12"
   d="M239.32,143.84l1.47,1.31l-7.41,8.28l-1.47-1.32L239.32,143.84z"
   id="path260" />
		<path
   class="st12"
   d="M238.39,156.02l1.76-0.24c0.09,1.1,0.54,2.19,1.31,2.88c0.93,0.83,1.82,0.87,2.4,0.22    c0.61-0.68,0.27-1.38-0.2-2.37l-0.69-1.51c-0.51-1.07-0.79-2.48,0.29-3.7c1.18-1.32,3.26-1.29,4.87,0.15    c0.97,0.87,1.55,2.11,1.61,3.34l-1.59,0.26c-0.13-0.92-0.45-1.69-1.16-2.32c-0.79-0.7-1.63-0.79-2.17-0.19    c-0.58,0.65-0.17,1.46,0.27,2.35l0.7,1.47c0.62,1.29,0.75,2.53-0.32,3.73c-1.2,1.34-3.32,1.46-5.18-0.2    C239.17,158.91,238.49,157.5,238.39,156.02z"
   id="path262" />
		<path
   class="st12"
   d="M256.48,159.21l1.72,1.54l-4.71,10.7l-1.56-1.39l2.68-5.54c0.52-1.11,1.12-2.28,1.69-3.4l-0.05-0.05    c-1.05,0.71-2.13,1.43-3.18,2.07l-5.22,3.27l-1.5-1.34L256.48,159.21z M251,163.11l3.9,3.49l-1.03,1.15l-3.9-3.49L251,163.11z"
   id="path264" />
		<path
   class="st12"
   d="M264.39,166.28l2.21,1.98c2.54,2.27,2.81,4.98,0.36,7.72s-5.24,2.83-7.7,0.63l-2.29-2.04L264.39,166.28z     M260.15,175.27c1.67,1.49,3.47,1.4,5.3-0.64c1.82-2.04,1.65-3.77-0.01-5.27l-0.64-0.58l-5.28,5.9L260.15,175.27z"
   id="path266" />
		<path
   class="st12"
   d="M270.72,179.36c2.4-2.68,5.31-2.92,7.47-0.99s2.23,4.86-0.16,7.53c-2.4,2.68-5.37,2.99-7.53,1.06    C268.34,185.02,268.32,182.04,270.72,179.36z M276.52,184.54c1.66-1.86,1.83-3.74,0.53-4.9c-1.3-1.17-3.15-0.79-4.81,1.07    s-1.89,3.8-0.59,4.97C272.95,186.84,274.85,186.4,276.52,184.54z"
   id="path268" />
	</g>
</g>
</svg>