<?xml version="1.0" encoding="UTF-8" standalone="no"?>
<svg
   xmlns:dc="http://purl.org/dc/elements/1.1/"
   xmlns:cc="http://creativecommons.org/ns#"
   xmlns:rdf="http://www.w3.org/1999/02/22-rdf-syntax-ns#"
   xmlns:svg="http://www.w3.org/2000/svg"
   xmlns="http://www.w3.org/2000/svg"
   xmlns:sodipodi="http://sodipodi.sourceforge.net/DTD/sodipodi-0.dtd"
   xmlns:inkscape="http://www.inkscape.org/namespaces/inkscape"
   id="Layer_1"
   x="0"
   y="0"
   version="1.1"
   viewBox="0 0 454.17 454.17"
   xml:space="preserve"
   sodipodi:docname="espanhol-iniciante.svg"
   inkscape:version="0.92.4 5da689c313, 2019-01-14"><metadata
     id="metadata35"><rdf:RDF><cc:Work
         rdf:about=""><dc:format>image/svg+xml</dc:format><dc:type
           rdf:resource="http://purl.org/dc/dcmitype/StillImage" /></cc:Work></rdf:RDF></metadata><defs
     id="defs33" /><sodipodi:namedview
     pagecolor="#ffffff"
     bordercolor="#666666"
     borderopacity="1"
     objecttolerance="10"
     gridtolerance="10"
     guidetolerance="10"
     inkscape:pageopacity="0"
     inkscape:pageshadow="2"
     inkscape:window-width="1920"
     inkscape:window-height="1016"
     id="namedview31"
     showgrid="false"
     inkscape:zoom="1.0392584"
     inkscape:cx="247.27337"
     inkscape:cy="233.21309"
     inkscape:window-x="0"
     inkscape:window-y="27"
     inkscape:window-maximized="1"
     inkscape:current-layer="Layer_1" /><style
     id="style2">.st2{fill:#f3444d}.st4{fill:#c1273a}.st6{fill:#e2a41a}</style><path
     fill="#d7dbde"
     d="M404.83 247.28l-1.72 1.72-61.73 61.73-94.1 94.1c-1.27 1.27-2.63 2.4-4.06 3.37-11.12 7.64-26.45 6.51-36.33-3.37l-3.37-3.37-95.81-95.81-15.26-15.26-43.11-43.11c-11.16-11.16-11.16-29.24 0-40.39L206.89 49.34c11.16-11.16 29.24-11.16 40.39 0l157.55 157.55c11.15 11.15 11.15 29.24 0 40.39z"
     id="path4"
     style="fill:#ff2a2a" /><path
     fill="#c6cacc"
     d="M404.83 247.28l-1.72 1.72c-4.07 1.83-8.32 3.68-12.72 5.52-29.22 12.19-64.77 23.83-96.79 26.71.01.16.03.31.05.48l.03.3c.01.07.01.15.02.22.01.09.01.17.02.26.06.66.1 1.32.12 1.97.01.08.01.17.02.26v.17c.01.15.01.3.01.45.01.21.01.42.01.64v.22c-.01.63-.02 1.26-.06 1.87-.11 1.92-.38 3.77-.83 5.59-1.08 4.38-3.88 9.93-10.41 12.5-.91.36-2.04.59-3.36.7-.06.01-.12.01-.18.01-.09.01-.18.01-.26.02-.1 0-.2.01-.29.01-.09 0-.18.01-.27.01-.05.01-.1.01-.15.01-.07.01-.14.01-.21.01-.06.01-.12.01-.18.01-.08 0-.15.01-.23.01v.12s.01.7-.15 1.78c0 .01-.01.04-.01.05-.02.13-.04.26-.07.4 0 .01 0 .03-.01.04-.03.16-.06.33-.1.5-.84 4.13-3.87 11.46-14.85 11.78-2.26.06-5.45-.32-9.26-1.04v.01c0 .03-.01.07-.01.12-.04.36-.18 1.27-.48 2.5-.01.07-.03.12-.04.19-.01.06-.03.11-.04.17h-.01c-1.2 4.54-4.68 12.61-14.27 12.61-3.04 0-7.72-.69-13.66-1.94-.4.48-.86.99-1.38 1.52-.02.02-.04.05-.07.07-.18.18-.36.36-.55.53 0 .01-.01.01-.01.01-.01.01-.02.01-.03.03-.2.18-.4.37-.61.55-.05.04-.1.08-.14.12l-.67.55-.04.04c-.03.02-.07.04-.1.07-.2.16-.42.31-.63.47l-.13.1c-.24.17-.49.33-.75.49-.03.01-.05.03-.07.04h-.01c-1.62.99-3.47 1.73-5.52 1.89-5.22.41-11.48-3.61-14.85-6.13a37.682 37.682 0 0 1-2.44-1.97c-1.83 1.32-3.87 2.31-5.98 2.47-4.77.38-12.05-3.03-16.15-5.21-.23-.12-.45-.24-.67-.36-.07-.04-.12-.07-.19-.1-.14-.08-.28-.16-.41-.23-.04-.02-.07-.04-.12-.06a48.3 48.3 0 0 1-1.24-.71c-.29-.17-.46-.27-.47-.28-1.85.95-3.83 1.62-5.82 1.78-9.28.72-25.46-7.63-25.9-13.28-.01-.11-.01-.22-.01-.33 0-1.11.42-2.32 1.1-3.53 0-.01.01-.01.01-.02.16-.29.33-.57.51-.85.03-.04.05-.07.07-.11.37-.57.8-1.14 1.25-1.7a.27.27 0 0 1 .07-.08c.14-.17.28-.34.42-.5-16.74-5.93-34.03-12.44-50.54-19.12l-43.11-43.11c-11.16-11.16-11.16-29.24 0-40.39l31.59-31.59c34.34 14.86 72.81 25.38 77.65 25.38 3.88 0 6.09-6.69 10.27-8.67 14.51-6.86 34.49-9.64 44.8-8.6 3.24.33 7.42 2.3 11.35 4.73.36-.21.67-.36.9-.43 16.29-5.05 33.41-7.02 41.42-6.45 8.01.56 11.43 6.03 17.9 8.46 3.92 1.47 42-7.02 81.64-20.81l37.98 37.98c11.17 11.14 11.17 29.23.02 40.38z"
     id="path6"
     style="fill:#ff2a2a" /><path
     d="M226.4 312.44s-5.03 8.5-12.6 9.09c-5.22.41-11.48-3.61-14.85-6.13a40.206 40.206 0 0 1-2.44-1.96c4.21-3.02 7.26-7.69 7.26-7.69 1 .33 1.99.65 2.99.97 6.68 2.13 13.3 4.07 19.64 5.72"
     class="st2"
     id="path8"
     style="fill:#d22c3a;fill-opacity:1" /><path
     d="M203.77 305.74s-3.05 4.68-7.26 7.69c-1.83 1.31-3.87 2.31-5.97 2.47-4.77.38-12.05-3.03-16.15-5.21-1.87-1-3.09-1.74-3.09-1.74 6.21-3.18 11.19-9.53 11.97-10.56.98.38 1.97.76 2.95 1.13 5.78 2.2 11.68 4.29 17.55 6.22"
     class="st2"
     id="path10"
     style="fill:#d22c3a;fill-opacity:1" /><path
     d="M183.26 298.4c-.78 1.03-5.76 7.38-11.97 10.56-1.85.95-3.82 1.62-5.82 1.77-9.27.73-25.46-7.63-25.9-13.28-.44-5.64 10.77-13.95 10.77-13.95 9.59 5.16 20.98 10.25 32.92 14.9"
     class="st2"
     id="path12"
     style="fill:#d22c3a;fill-opacity:1" /><path
     fill="#d4d4d4"
     d="M201.32 308.92c-1.16 1.34-2.66 2.89-4.38 4.19-.14.11-.29.22-.44.32 0 0 .93.83 2.44 1.96.5-.39.99-.79 1.45-1.2 1.68-1.49 3.09-3.09 4.11-4.36-1.04-.29-2.1-.6-3.18-.91zm-21.49-6.58c-1.16 1.2-2.57 2.52-4.14 3.75-1.36 1.07-2.84 2.06-4.4 2.86.02.01 1.23.75 3.09 1.74 1.69-1.03 3.27-2.24 4.68-3.46 1.55-1.34 2.9-2.7 3.98-3.88-1.07-.32-2.13-.66-3.21-1.01z"
     id="path14"
     style="fill:#ff2a2a;fill-opacity:1" /><path
     d="M204.51 309.83c-1.04-.3-2.11-.6-3.19-.91a780.76 780.76 0 0 1-18.29-5.56c-1.06-.34-2.12-.67-3.21-1.02-11.4-3.65-23.77-7.83-36.56-12.35-1.02 1.16-1.95 2.39-2.62 3.6 12.14 4.48 23.98 8.71 35.04 12.5a955.836 955.836 0 0 0 21.25 7.02c1.17.37 2.32.73 3.45 1.08 7.01 2.17 13.38 4.02 18.92 5.45.59-.36 1.15-.75 1.68-1.16.53-.42 1.03-.85 1.49-1.29.8-.76 1.5-1.53 2.07-2.22-5.59-1.22-12.36-2.96-20.03-5.14z"
     class="st4"
     id="path16"
     style="fill:#d22c3a;fill-opacity:1" /><path
     fill="#fbb200"
     d="M293.82 268.87c-.11 1.91-.38 3.77-.83 5.59-1.08 4.38-3.88 9.93-10.41 12.5-.91.36-2.04.6-3.36.71-.56.05-1.17.07-1.79.09v.12s.01 1.14-.33 2.79c-.84 4.12-3.87 11.45-14.85 11.78-2.26.06-5.45-.32-9.26-1.03v.01c-.02.23-.16 1.39-.58 2.98-1.2 4.54-4.68 12.61-14.27 12.61-30.8 0-227.81-69.76-236.27-96.54-4.48-14.2-3.53-63.77 32.78-75.9 8.92-2.98 18.68-1.9 27.01 2.44 37.41 19.5 91.13 34.49 96.91 34.49 3.88 0 6.08-6.69 10.27-8.67 14.51-6.86 34.49-9.64 44.8-8.59 6.01.61 15.29 6.85 20.05 11.27 18.24 16.9 62.07 61.12 60.13 93.35"
     id="path18" /><path
     d="M223.71 243.45c-.35.65-.73 1.33-1.14 2.03-4.37 7.51-11.8 16.89-21.62 16.89-13.62 0-22.38-5.66-27.65-12.28 3.86 9.28 13.39 20.2 32.31 20.2 9.83 0 17.26-9.38 21.62-16.89.4-.71.78-1.39 1.13-2.04.69.69 1.39 1.36 2.07 2.02 11.92 11.27 31.04 15.75 53.59 15.75 3.2 0 6.47-.09 9.8-.26.04-.69.06-1.39.06-2.09 0-.42-.01-.84-.02-1.26-.03-.82-.08-1.64-.16-2.48-.03-.33-.07-.66-.11-.99-4.92.44-9.76.68-14.47.68-21.34 0-40.22-4.83-53.35-17.25-.69-.67-1.38-1.34-2.06-2.03"
     class="st6"
     id="path20" /><path
     fill="#d22c3a"
     d="M449.09 205.24c-18.86 14.6-169.51 91.13-223.32 40.22-.69-.65-1.38-1.33-2.07-2.01-.35.65-.73 1.33-1.14 2.03-4.37 7.51-11.8 16.89-21.62 16.89-28.75 0-35.8-25.18-34.29-31.55 5.53-13.05 53.15-60.42 59.23-62.3 16.29-5.05 33.41-7.01 41.43-6.45 8.01.56 11.43 6.04 17.9 8.47 5.23 1.96 71.3-13.8 120.74-36.28 28.22-12.83 60.99 53.14 43.14 70.98"
     id="path22" /><path
     d="M190.75 282.79c-.63 0-1.21.39-1.44 1.01-.28.79.13 1.66.92 1.94.41.14 39.92 14.07 62.19 18.65.01-.06.03-.11.04-.16.34-1.33.48-2.33.53-2.69.01-.05.01-.09.01-.11-22.04-4.54-61.35-18.39-61.76-18.54-.15-.08-.32-.1-.49-.1m36.1-8.06c-.62 0-1.21.38-1.43 1-.29.79.12 1.66.91 1.94 1.43.52 33.74 12.18 50.78 12.98.04-.17.07-.34.1-.5.24-1.36.23-2.28.23-2.28v-.13c.14 0 .28 0 .42-.01.07 0 .14 0 .21-.01l.71-.03c.15-.01.3-.02.45-.04h-.39c-15.93 0-51.12-12.7-51.47-12.83-.17-.06-.34-.09-.52-.09"
     class="st6"
     id="path24" /><path
     d="M277.79 229.45c-.39 0-.77.15-1.07.44-8.61 8.6-18.96 11.03-27.91 11.03-11.46 0-20.6-3.99-20.76-4.06l-1.48-.66-.56 1.52c-.01.03-1.15 3.06-3.25 6.98-.13.25-.19.52-.18.78.41-.7.78-1.38 1.14-2.03a96.7 96.7 0 0 0 2.07 2.01c1.15-2.18 1.97-4.04 2.48-5.24 2.69 1.02 8.83 3.05 16.49 3.63 1.37.1 2.72.16 4.06.16 11.85 0 22.18-4.1 30.05-11.97.59-.59.59-1.55 0-2.15-.31-.29-.7-.44-1.08-.44"
     class="st4"
     id="path26" /><path
     d="M-334.56 547.2l-95.32 95.32-18.18 18.18-35.07 35.07-6.7 6.7-2.28 2.28c-11.16 11.16-29.24 11.16-40.39 0l-18.74-18.74-11.6-11.6-66.19-66.19-61.02-61.02c-11.16-11.16-11.16-29.25 0-40.4l116.21-116.21 4.28-4.28 28.56-28.56 8.49-8.49c11.16-11.16 29.24-11.16 40.39 0l29.5 29.5 81.55 81.55 46.49 46.49c11.17 11.16 11.17 29.24.02 40.4z"
     id="path28"
     fill="#006da3" /></svg>