<svg xmlns="http://www.w3.org/2000/svg" id="Layer_1" x="0" y="0" version="1.1" viewBox="0 0 454.17 454.17" xml:space="preserve"><style id="style2" type="text/css">.st6{fill:#fff}.st8{fill:#f2d7da}.st9{fill:#f4f4f4}.st10{fill:#eee}.st11{fill:#efa600}.st12{fill:#27cef1}.st13{fill:none}.st14{fill:#b21c2e}</style><g id="g272"><path id="path4" fill="#f55" d="M404.83 247.29l-95.32 95.32-18.18 18.18-35.07 35.07-6.7 6.7-2.28 2.28c-11.16 11.16-29.24 11.16-40.39 0l-18.74-18.74-11.6-11.6-66.19-66.19-61.02-61.02c-11.16-11.16-11.16-29.25 0-40.4L165.55 90.67l4.28-4.28 28.56-28.56 8.49-8.49c11.16-11.16 29.24-11.16 40.39 0l29.5 29.5 81.55 81.55 46.49 46.49c11.18 11.16 11.18 29.25.02 40.41z"/><path id="path6" fill="#f55" d="M358.34 160.39l-48.83 182.22-18.18 18.18-35.07 35.07-6.7 6.7-61.42-16.46-11.6-11.6-66.19-66.19-2.47-2.47 57.66-215.17 8.68-32.4c.95-3.57 4.62-5.68 8.18-4.73l15.98 4.28 78.39 21.01 81.57 81.56z"/><path id="path8" fill="#d13744" d="M330.74 155.08l-63.93 238.6a5.662 5.662 0 0 1-6.95 4.01l-156.77-42.01a5.662 5.662 0 0 1-4.01-6.95L163 110.13a5.662 5.662 0 0 1 6.95-4.01l156.77 42.01c3.03.81 4.83 3.92 4.02 6.95z"/><path id="path10" fill="#d13744" d="M342.05 133.51l-67.86 253.28a6.023 6.023 0 0 1-7.38 4.26L100.4 346.46a6.023 6.023 0 0 1-4.26-7.38L164 85.8a6.023 6.023 0 0 1 7.38-4.26l166.41 44.59c3.21.86 5.12 4.16 4.26 7.38z"/><path id="path12" fill="#d22c3a" d="M361.14 100.74l-75.2 280.67a6.675 6.675 0 0 1-8.18 4.72l-184.4-49.41a6.675 6.675 0 0 1-4.72-8.18l75.2-280.67a6.675 6.675 0 0 1 8.18-4.72l184.4 49.41c3.56.96 5.68 4.62 4.72 8.18z"/><path id="path14" fill="#fbb200" d="M125.03 285.02c-1.03 3.84.99 7.96 4.76 9.21a7.404 7.404 0 0 0 8.61-3.09c.12 3.16 2.27 6.02 5.49 6.88 3.22.86 6.51-.53 8.19-3.21.12 3.16 2.27 6.02 5.49 6.88 3.22.86 6.51-.53 8.19-3.21.12 3.16 2.27 6.02 5.49 6.88 3.22.86 6.51-.53 8.19-3.21.12 3.16 2.27 6.02 5.49 6.88s6.51-.53 8.19-3.21c.12 3.16 2.27 6.02 5.49 6.88 3.22.86 6.51-.53 8.19-3.21.12 3.16 2.27 6.02 5.49 6.88 3.22.86 6.51-.53 8.19-3.21.12 3.16 2.27 6.02 5.49 6.88 3.22.86 6.51-.53 8.19-3.21.12 3.16 2.27 6.02 5.49 6.88 3.22.86 6.51-.53 8.19-3.21.12 3.16 2.27 6.02 5.49 6.88 3.22.86 6.51-.53 8.19-3.21.12 3.3 2.46 6.26 5.91 6.98 3.89.81 7.69-1.76 8.72-5.59l53.65-200.24c1.18-4.39-1.43-8.91-5.82-10.09L188.77 78.96c-4.39-1.18-8.91 1.43-10.09 5.82l-53.65 200.24z"/><path id="path16" d="M320.93 126.72l-34.17 127.51a3.998 3.998 0 0 1-4.91 2.83l-127.5-34.16a3.998 3.998 0 0 1-2.83-4.91l34.17-127.51a3.998 3.998 0 0 1 4.91-2.83l127.51 34.17c2.12.57 3.39 2.76 2.82 4.9z" class="st6"/><path id="path18" fill="#f8ebec" d="M283.14 257.41l-25.8-6.91 36.24-135.25 25.8 6.91c1.43.38 2.27 1.85 1.89 3.28L286.42 255.5a2.68 2.68 0 0 1-3.28 1.91z"/><g id="g134"><g id="g72"><path id="path20" d="M280.82 248.27l-.44 1.64-5.61-1.5.44-1.64 5.61 1.5z" class="st8"/><path id="path22" d="M282.62 241.56l-.44 1.64-5.61-1.5.44-1.64 5.61 1.5z" class="st8"/><path id="path24" d="M283.52 238.2l-.44 1.64-5.61-1.5.44-1.64 5.61 1.5z" class="st8"/><path id="path26" d="M284.42 234.85l-.44 1.64-5.61-1.5.44-1.64 5.61 1.5z" class="st8"/><path id="path28" d="M287.12 224.78l-.44 1.64-5.61-1.5.44-1.64 5.61 1.5z" class="st8"/><path id="path30" d="M288.02 221.42l-.44 1.64-5.61-1.5.44-1.64 5.61 1.5z" class="st8"/><path id="path32" d="M288.92 218.06l-.44 1.64-5.61-1.5.44-1.64 5.61 1.5z" class="st8"/><path id="path34" d="M289.82 214.71l-.44 1.64-5.61-1.5.44-1.64 5.61 1.5z" class="st8"/><path id="path36" d="M292.52 204.64l-.44 1.64-5.61-1.5.44-1.64 5.61 1.5z" class="st8"/><path id="path38" d="M293.41 201.28l-.44 1.64-5.61-1.5.44-1.64 5.61 1.5z" class="st8"/><path id="path40" d="M294.31 197.93l-.44 1.64-5.61-1.5.44-1.64 5.61 1.5z" class="st8"/><path id="path42" d="M295.24 194.48l-.44 1.64-5.61-1.5.44-1.64 5.61 1.5z" class="st8"/><path id="path44" d="M296.14 191.12l-.44 1.64-5.61-1.5.44-1.64 5.61 1.5z" class="st8"/><path id="path46" d="M297.94 184.41l-.44 1.64-5.61-1.5.44-1.64 5.61 1.5z" class="st8"/><path id="path48" d="M298.84 181.05l-.44 1.64-5.61-1.5.44-1.64 5.61 1.5z" class="st8"/><path id="path50" d="M299.74 177.7l-.44 1.64-5.61-1.5.44-1.64 5.61 1.5z" class="st8"/><path id="path52" d="M302.43 167.63l-.44 1.64-5.61-1.5.44-1.64 5.61 1.5z" class="st8"/><path id="path54" d="M303.33 164.27l-.44 1.64-5.61-1.5.44-1.64 5.61 1.5z" class="st8"/><path id="path56" d="M304.23 160.91l-.44 1.64-5.61-1.5.44-1.64 5.61 1.5z" class="st8"/><path id="path58" d="M305.13 157.56l-.44 1.64-5.61-1.5.44-1.64 5.61 1.5z" class="st8"/><path id="path60" d="M306.03 154.2l-.44 1.64-5.61-1.5.44-1.64 5.61 1.5z" class="st8"/><path id="path62" d="M306.93 150.84l-.44 1.64-5.61-1.5.44-1.64 5.61 1.5z" class="st8"/><path id="path64" d="M307.83 147.49l-.44 1.64-5.61-1.5.44-1.64 5.61 1.5z" class="st8"/><path id="path66" d="M308.73 144.13l-.44 1.64-5.61-1.5.44-1.64 5.61 1.5z" class="st8"/><path id="path68" d="M312.35 130.63l-.44 1.64-5.61-1.5.44-1.64 5.61 1.5z" class="st8"/><path id="path70" d="M313.25 127.27l-.44 1.64-5.61-1.5.44-1.64 5.61 1.5z" class="st8"/></g><g id="g132"><path id="path74" d="M301.07 137.84l-.44 1.64-5.61-1.5.44-1.64 5.61 1.5z" class="st8"/><path id="path76" d="M301.97 134.48l-.44 1.64-5.61-1.5.44-1.64 5.61 1.5z" class="st8"/><path id="path78" d="M302.87 131.12l-.44 1.64-5.61-1.5.44-1.64 5.61 1.5z" class="st8"/><path id="path80" d="M303.77 127.77l-.44 1.64-5.61-1.5.44-1.64 5.61 1.5z" class="st8"/><path id="path82" d="M304.67 124.41l-.44 1.64-5.61-1.5.44-1.64 5.61 1.5z" class="st8"/><path id="path84" d="M271.96 246.46l-.44 1.64-5.61-1.5.44-1.64 5.61 1.5z" class="st8"/><path id="path86" d="M272.86 243.1l-.44 1.64-5.61-1.5.44-1.64 5.61 1.5z" class="st8"/><path id="path88" d="M273.76 239.75l-.44 1.64-5.61-1.5.44-1.64 5.61 1.5z" class="st8"/><path id="path90" d="M274.66 236.39l-.44 1.64-5.61-1.5.44-1.64 5.61 1.5z" class="st8"/><path id="path92" d="M277.36 226.32l-.44 1.64-5.61-1.5.44-1.64 5.61 1.5z" class="st8"/><path id="path94" d="M278.26 222.97l-.44 1.64-5.61-1.5.44-1.64 5.61 1.5z" class="st8"/><path id="path96" d="M279.16 219.61l-.44 1.64-5.61-1.5.44-1.64 5.61 1.5z" class="st8"/><path id="path98" d="M280.96 212.9l-.44 1.64-5.61-1.5.44-1.64 5.61 1.5z" class="st8"/><path id="path100" d="M281.86 209.54l-.44 1.64-5.61-1.5.44-1.64 5.61 1.5z" class="st8"/><path id="path102" d="M282.76 206.18l-.44 1.64-5.61-1.5.44-1.64 5.61 1.5z" class="st8"/><path id="path104" d="M283.66 202.83l-.44 1.64-5.61-1.5.44-1.64 5.61 1.5z" class="st8"/><path id="path106" d="M285.45 196.12l-.44 1.64-5.61-1.5.44-1.64 5.61 1.5z" class="st8"/><path id="path108" d="M286.61 191.81l-.44 1.64-5.61-1.5.44-1.64 5.61 1.5z" class="st8"/><path id="path110" d="M287.51 188.45l-.44 1.64-5.61-1.5.44-1.64 5.61 1.5z" class="st8"/><path id="path112" d="M288.41 185.09l-.44 1.64-5.61-1.5.44-1.64 5.61 1.5z" class="st8"/><path id="path114" d="M289.31 181.74l-.44 1.64-5.61-1.5.44-1.64 5.61 1.5z" class="st8"/><path id="path116" d="M292 171.67l-.44 1.64-5.61-1.5.44-1.64 5.61 1.5z" class="st8"/><path id="path118" d="M292.9 168.31l-.44 1.64-5.61-1.5.44-1.64 5.61 1.5z" class="st8"/><path id="path120" d="M293.8 164.96l-.44 1.64-5.61-1.5.44-1.64 5.61 1.5z" class="st8"/><path id="path122" d="M295.6 158.24l-.44 1.64-5.61-1.5.44-1.64 5.61 1.5z" class="st8"/><path id="path124" d="M296.5 154.89l-.44 1.64-5.61-1.5.44-1.64 5.61 1.5z" class="st8"/><path id="path126" d="M297.4 151.53l-.44 1.64-5.61-1.5.44-1.64 5.61 1.5z" class="st8"/><path id="path128" d="M298.3 148.17l-.44 1.64-5.61-1.5.44-1.64 5.61 1.5z" class="st8"/><path id="path130" d="M300.1 141.46l-.44 1.64-5.61-1.5.44-1.64 5.61 1.5z" class="st8"/></g></g><path id="path136" d="M170.74 256.13c.48.21.84.63.97 1.14.17.51.2.94.24 1.36.06.9.12 1.85.2 2.86.07 1.06.17 2.02.2 2.86.07 1.06.11 2.06.21 3.02.11.73.31 1.45.6 2.13.33.65.75 1.25 1.25 1.79.56.57 1.35 1.04 2.34 1.31 2 .53 3.64.46 4.85-.26 1.26-.7 2.21-2.37 2.93-5.03.73-2.72.7-4.7-.08-5.95-.79-1.25-2.13-2.12-4.02-2.63l-9.69-2.6zm-22.89 1.34c1.27-4.75 3.11-8 5.56-9.73 2.4-1.75 5.02-2.24 7.78-1.5l23.45 6.28c.95.25 1.94.73 2.99 1.37 1.05.65 1.91 1.6 2.57 2.93.68 1.27 1.11 2.89 1.25 4.85s-.16 4.37-.92 7.24c-.77 2.86-1.72 5.1-2.82 6.73s-2.28 2.82-3.51 3.58a7.852 7.852 0 0 1-3.69 1.25c-1.23.04-2.32-.05-3.27-.3l-3.75-1c-2-.53-3.7-1.56-5.03-3.06-1.37-1.51-2.11-3.32-2.3-5.45-.07-1.06-.1-2.26-.19-3.64s-.21-2.65-.27-3.92c-.07-1.27-.18-2.39-.28-3.35-.07-.58-.12-1.17-.14-1.75l-.19-.99c-.1-.39-.29-.81-.58-1.25-.29-.44-.64-.84-1.05-1.22-.45-.4-.98-.68-1.56-.83l-1.52-.41c-.56-.15-1.14-.18-1.71-.09-.62.04-1.25.29-1.86.69-.62.41-1.19 1.03-1.71 1.83s-.97 1.92-1.32 3.23c-.73 2.72-.68 4.65.15 5.91.73 1.08 1.79 1.88 3.09 2.33.29.08.41.37.33.66l-1.49 5.94a.55.55 0 0 1-.67.39l-1.37-.37c-1.33-.36-2.5-.93-3.54-1.78-1.05-.85-1.82-1.94-2.38-3.29-.55-1.34-.87-2.99-.88-4.86-.14-1.85.18-4 .83-6.42z" class="st6"/><g id="g142"><path id="path138" d="M183.32 168.09l-12.47 46.56c-.8 2.97-3.85 4.73-6.81 3.93-2.97-.8-4.73-3.85-3.93-6.81l12.47-46.56c.8-2.97 3.85-4.73 6.81-3.93 2.96.79 4.73 3.84 3.93 6.81z" class="st9"/><path id="path140" d="M203.52 151.2l-18.05 67.36c-.8 2.97-3.85 4.73-6.81 3.93-2.97-.8-4.73-3.85-3.93-6.81l18.05-67.36c.8-2.97 3.85-4.73 6.81-3.93 2.96.79 4.72 3.84 3.93 6.81z" class="st10"/></g><g id="g148"><path id="path144" d="M209.35 203.38l-5.39 20.13c-.8 2.97-3.85 4.73-6.81 3.93-2.97-.8-4.73-3.85-3.93-6.81l5.39-20.13c.8-2.97 3.85-4.73 6.81-3.93 2.96.79 4.73 3.84 3.93 6.81z" class="st9"/><path id="path146" d="M229.59 186.34l-11.01 41.09c-.8 2.97-3.85 4.73-6.81 3.93-2.97-.8-4.73-3.85-3.93-6.81l11.01-41.09c.8-2.97 3.85-4.73 6.81-3.93 2.96.79 4.72 3.85 3.93 6.81z" class="st10"/></g><g id="g154"><path id="path150" d="M244.65 204.08l-7.58 28.31c-.8 2.97-3.85 4.73-6.81 3.93-2.97-.8-4.73-3.85-3.93-6.81l7.58-28.31c.8-2.97 3.85-4.73 6.81-3.93 2.97.79 4.73 3.84 3.93 6.81z" class="st9"/><path id="path152" d="M272.82 157.43l-21.13 78.88c-.8 2.97-3.85 4.73-6.81 3.93-2.97-.8-4.73-3.85-3.93-6.81l21.13-78.88c.8-2.97 3.85-4.73 6.81-3.93 2.97.79 4.73 3.84 3.93 6.81z" class="st10"/></g><g id="g160"><path id="path156" d="M227.05 135.85l-7.2 26.88c-.8 2.97-3.85 4.73-6.81 3.93-2.97-.8-4.73-3.85-3.93-6.81l7.2-26.88c.8-2.97 3.85-4.73 6.81-3.93 2.96.8 4.73 3.85 3.93 6.81z" class="st9"/><path id="path158" d="M237.85 154.02l-3.38 12.63c-.8 2.97-3.85 4.73-6.81 3.93-2.97-.8-4.73-3.85-3.93-6.81l3.38-12.63c.8-2.97 3.85-4.73 6.81-3.93 2.97.79 4.73 3.84 3.93 6.81z" class="st10"/></g><g id="g166"><path id="path162" d="M198.12 112.86l-4.36 16.29c-.8 2.97-3.85 4.73-6.81 3.93-2.97-.8-4.73-3.85-3.93-6.81l4.36-16.29c.8-2.97 3.85-4.73 6.81-3.93 2.96.79 4.72 3.84 3.93 6.81z" class="st9"/><path id="path164" d="M215.37 106.96l-6.99 26.1c-.8 2.97-3.85 4.73-6.81 3.93-2.97-.8-4.73-3.85-3.93-6.81l6.99-26.1c.8-2.97 3.85-4.73 6.81-3.93 2.96.79 4.72 3.84 3.93 6.81z" class="st10"/></g><g id="g200"><path id="path168" d="M248.12 310.44l-.44 1.64-2.8-.75.44-1.64 2.8.75z" class="st11"/><path id="path170" d="M249.02 307.09l-.44 1.64-2.8-.75.44-1.64 2.8.75z" class="st11"/><path id="path172" d="M249.92 303.73l-.44 1.64-2.8-.75.44-1.64 2.8.75z" class="st11"/><path id="path174" d="M250.82 300.38l-.44 1.64-2.8-.75.44-1.64 2.8.75z" class="st11"/><path id="path176" d="M251.72 297.02l-.44 1.64-2.8-.75.44-1.64 2.8.75z" class="st11"/><path id="path178" d="M252.62 293.66l-.44 1.64-2.8-.75.44-1.64 2.8.75z" class="st11"/><path id="path180" d="M253.52 290.31l-.44 1.64-2.8-.75.44-1.64 2.8.75z" class="st11"/><path id="path182" d="M254.42 286.95l-.44 1.64-2.8-.75.44-1.64 2.8.75z" class="st11"/><path id="path184" d="M255.32 283.59l-.44 1.64-2.8-.75.44-1.64 2.8.75z" class="st11"/><path id="path186" d="M256.22 280.24l-.44 1.64-2.8-.75.44-1.64 2.8.75z" class="st11"/><path id="path188" d="M257.12 276.88l-.44 1.64-2.8-.75.44-1.64 2.8.75z" class="st11"/><path id="path190" d="M258.02 273.53l-.44 1.64-2.8-.75.44-1.64 2.8.75z" class="st11"/><path id="path192" d="M258.92 270.17l-.44 1.64-2.8-.75.44-1.64 2.8.75z" class="st11"/><path id="path194" d="M259.82 266.81l-.44 1.64-2.8-.75.44-1.64 2.8.75z" class="st11"/><path id="path196" d="M260.71 263.46l-.44 1.64-2.8-.75.44-1.64 2.8.75z" class="st11"/><path id="path198" d="M261.61 260.1l-.44 1.64-2.8-.75.44-1.64 2.8.75z" class="st11"/></g><path id="path202" d="M203.98 269.26l-7.26 27.09a2.011 2.011 0 0 1-2.45 1.42 2.011 2.011 0 0 1-1.42-2.45l7.26-27.09c.29-1.07 1.39-1.7 2.45-1.42 1.07.28 1.71 1.38 1.42 2.45z" class="st11"/><path id="path204" d="M212.16 264.53l-8.99 33.55a2.011 2.011 0 0 1-2.45 1.42 2.011 2.011 0 0 1-1.42-2.45l8.99-33.55c.29-1.07 1.39-1.7 2.45-1.42 1.07.29 1.71 1.39 1.42 2.45z" class="st11"/><path id="path206" d="M214.81 280.46l-5.19 19.35a2.011 2.011 0 0 1-2.45 1.42 2.011 2.011 0 0 1-1.42-2.45l5.19-19.35c.29-1.07 1.39-1.7 2.45-1.42 1.07.28 1.7 1.38 1.42 2.45z" class="st11"/><path id="path208" d="M257.17 180.3l.03.03c.03-.01.04-.05.06-.07-.04 0-.08.01-.09.04z" class="st12"/><path id="path210" d="M227.12 151.21c.28.12.47.12.64.09l-.86-.79c-.06.21-.14.44.22.7z" class="st12"/><path id="path212" d="M264.56 190.39a.85.85 0 0 0-.71-.97l-6.26-.95c-.02.03-.04.07-.05.1-.04.25.37.25.43.37-.07.11-1.02.05-.99.62l.46.46c-.35-.05-.52-.52-.92-.26-.06.09-.1.18-.14.26l7.21 1.1c.46.05.9-.27.97-.73z" class="st12"/><path id="path214" d="M238.01 181.03c.03.05.11.06.15.01l1.04-1.14c.03-.03.05-.08.04-.13l-1.02-6.06 2.47-2.6c.53-.56.59-1.47.04-2.02-.57-.59-1.52-.56-2.05.06l-2.44 2.74-6.12-.51c-.04 0-.09.01-.12.05l-1.04 1.13c-.04.04-.03.12.03.15l4.74 2.06-1.98 2.23-2.36-.15c-.04 0-.09.01-.12.05l-.67.73c-.04.04-.03.12.04.16l2.92 1.12c.04.02.06.04.09.08l1.34 2.81c.02.06.11.08.16.02l.67-.73c.03-.03.05-.08.04-.13l-.35-2.32 2.06-2.15 2.44 4.54z" class="st12"/><path id="path216" d="M240.66 165l-.02-.25c.05.17.19.2.34.25.03-.02.08-.04.09-.11.03.13.15.16.23.24l.11-.16c.12.36.52.79.47 1.25l12.65 11.65c.03-.08.07-.21-.07-.23-.08-.07.25.04.21-.21l-.08-.15c.12.02.25.15.39-.02l-.15-.28c.09.02.19.11.27.03l-.05-.29c.11.09.19.28.36.21.06 0 .09-.02.12-.05l-24.38-22.44c-.2.21-.45.4-.64.62.08.06.19.14.3.2-.33-.08-.65-.09-.93-.07l10.69 9.84c.03-.01.06 0 .09-.03zm9.49 7.9c0 .13.11.22.01.35-.09-.02-.24.06-.32-.04l-.06-.12c.04-.13.25.16.23-.12l-.16-.02c.11-.04.2-.12.3-.05z" class="st12"/><path id="path218" d="M297.77 198.65l-16.4-68.95a5.07 5.07 0 0 0-4.19-3.86l-70.07-10.65c-1.68-.25-3.36.34-4.51 1.59s-1.6 2.98-1.21 4.63l16.4 68.95c.24 1.02.77 1.9 1.5 2.57.73.67 1.66 1.13 2.69 1.29l38.26 5.81c-.02-.01-.03-.02-.05-.02.16-.13.51-.02.43-.28-.2-.66-.07-1.48-.88-1.93.28.1.49.48.91.43.2-.27.31-.58.27-.98.11.35.42-.11.55-.11.08-.1.1-.22.13-.34l-39.1-5.94c-.69-.11-1.24-.61-1.4-1.29l-6-25.22c-.1.09.13.3-.51.07-.42-.55-1.6-.87-2.19-1.26-.68-.41.22-.5-.64-.83-.06.24-.24-.1-.46-.13-.21-.19-.16-.25-.04-.36l-.25-.15c.11-.04.56.21.71.14l-.38-.41c.15-.08.3.09.45.17.03-.51.57-.45.67-.97l.46.38c.27-.03.26-.26.52-.26.21.36.53.32.88.35l-2.56-10.76c-.57-.33-.92.31-1.5-.26-.39-.25-.39-.59-.47-.86.16-.41.75.04 1.27.19.1.33.34.38.58.43l-3.49-14.66 17.59 16.19c.12-.07.21-.16.22-.33.06.23.4.11.51.17.4-.09.23-.55.3-.82l-19.21-17.68-2.87-12.09c-.13-.56.01-1.12.4-1.54s.94-.61 1.5-.53l12.28 1.87.31.28a4.57 4.57 0 0 1-.07-.36l.19.16c.06-.01.05-.11.08-.15l-.04-.08c.19.33.65.51.6.96-.02.04-.06.05-.1.07l13.29 12.24c.04-.03.08-.06.12-.06l-.12-.23.24.09.07-.35c.06.12.19.41.44.43l.09-.24c.08-.04.08.81.45.38.03.46.31.94.23 1.37l1.28 1.18c.1.01.21.01.27.01-.25-.31-.09-.53-.01-.64l.06.35c.26.19.42.47.73.55-.03-.09 0-.17.16-.13.06.09.04.15.02.2.4.26.65.25.79.15.11.47.69.98 1.16 1.48l.26.02c-.29-.11-.13.25-.26.29.45.36.17.53.15.78l6.46 5.95c.12 0 .24.16.28-.09-.01-.14.15.18.19-.05.09.18.28.05.38.16l.02-.05c.03.35.53 0 .51.58.34.08-.02.46.16.6-.03.08-.08.11-.11.17l4.49 4.13.04-.17c.22.06.16-.3.4-.21.06.07.15.22.27.11.06.2.3.38.07.62-.08.03-.18.07-.29.09l1.45 1.33c0-.02-.01-.03-.01-.05.07.05.1.1.17.12l-.02-.24c.12.15.27.16.45.17l.02-.05c.36.13.58.54.66.86-.01.1-.03.2-.05.3l11.55 10.63c.02-.02.03-.05.05-.07.07.49.48.01.65-.12-.34-.28-.24-.79-.19-1.04l.16.52c.32.08.55.39.88.24-.01-.02 0-.04-.01-.05l-46.47-42.78 19.09 2.9-.09-.09c.07.07.09.04.12.05l-.68-1.04.21.14c-.03-.45.01-.71.04-1.18.5-.35 1.64.13 2.18-.08.54.25-.02.18.15.47.17.08.5.48.44.18.16.32.44.53.61.82l.28.01c.11.34.01.47.43.88.25.01.01-.29.32-.22-.3.07-.24.36-.25.62l32.43 4.93c.34.05.65.2.9.43s.42.52.5.86l2.26 9.5c.1.06.21.13.34.27-.12.09-.13.24-.18.4l10.52 44.22-19.81-18.23c-.62.3-.48.77-.7 1.28l21.1 19.42 2.87 12.09c.13.56-.01 1.12-.4 1.54-.39.42-.94.61-1.5.53l-12.28-1.87-22.12-20.37c-.01.02-.02.03-.03.05l.12.11-.32.17c.16.23-.27.1-.16.38-.16-.08-.22 0-.25.12.17.14.39.22.52.22l.08-.34c.17.48.42 1.01.3 1.46l19.36 17.82-11.47-1.74c.26.35.51.7.74 1-.13.7-.45 1.38-.63 2.08.09.03.22.1.35.11-.17.05-.33.15-.48.24l25.77 3.92a5.09 5.09 0 0 0 4.51-1.59c1.1-1.21 1.55-2.94 1.16-4.59zm-85.11-60.54l.02.07-.05-.03.03-.04zm-.06-.03v.02l-.04-.05.04.03zm-7.87-12.68c-.01.06-.05.12-.13.07-.03-.05-.04-.08-.02-.12.05-.03.12 0 .15.05zm-.32-.75c.01.01 0 .02-.01.04-.02 0-.07-.02-.05-.04.02-.02.04-.03.06 0zm-.31.04c-.02.04-.08.06-.1.01l-.01-.04c.04-.04.11-.02.11.03zm-1.68-2.32l-.12.04c-.06-.03.01-.03-.01-.06.02-.05.07-.01.13.02zm34.55 13.37l-.04.08-.06-.09.1.01zm-.63-.86c.09.13-.05.17-.11.25.01.05.01.09-.01.12-.03-.06-.01-.09.01-.12-.02-.13-.08-.27.11-.25zm-12.88-15.2c.08-.17-.1-.2-.16-.32.02-.03.06-.01.1-.01-.1-.23.1-.13.06-.37l.05.02v-.21c.14.23.25-.13.33.15l.15-.08c-.02.29.54.68.19 1.03-.27.24-.5-.07-.72-.21zm5.78 1.18c-.01.07.17-.05.16-.19-.05.07.04.12.05.18-.04 0-.04.04-.06.08l-.15-.07zm10.21 1.85c-.17.13-.4-.03-.52-.14l-.21-.4.05.02.09-.24.05.02.02-.16c.06.12.23.2.24.09.2.28.49.44.28.81zm2.55-1.8c.07.01.19.12.21.21-.1-.01-.24-.15-.21-.21zm1.95 1.94c-.06-.16-.16-.38.02-.38.21.21.11-.07.16-.09.31.42-.31.09-.18.47zm37.42 14.89c-.02-.14-.08-.26.09-.33.32.03.16.41-.09.33zm.65.79c-.15-.1-.2-.27-.1-.41.46-.17.41.5.1.41zm.94-.52c.28.06.05.17-.02.28 0-.12-.22-.17.02-.28zm-.24 9.29c-.22-.05-.23-.3-.26-.45.14-.21.4-.13.58-.06.15.27-.09.45-.32.51zm7.52 25.42c-.26.03-.44-.15-.66-.19-.5-.26-.12-.71-.26-1.03.3-.17.46-.19.83-.41.48.07.29.47.77.54-.08.58-.06.89-.68 1.09z" class="st12"/><path id="path220" d="M280.3 172.26c.2.18.49.27.77.2.46-.11.74-.57.63-1.02l-8.75-36.79-15.25-2.32c.01.04-.02.05-.11.01-.01-.01-.01-.02-.02-.03l-22-3.34a.85.85 0 1 0-.26 1.68l32.47 4.93c.2-.18.37-.37.49-.59.62-.14.04.29.31.57.19-.04.65.26.49-.15.17.22.38.33.58.45l.47.07.1-.1c.02.04.03.08.05.12l1.28.19 8.49 35.67c.05.19.14.34.26.45zm-23.33-39.01l-.03-.09.01-.03.02.12zm-18.5-2.31l-.06-.12.03-.02.06.12-.03.02zm18.32 2.67c-.21-.29-.23-.46-.16-.61 0 .22.51.62.16.61zm.31-.05l-.01-.09c-.02-.02-.03-.03 0-.02v.02c.04.04.15.15.01.09zm.1-.29l.03.01.05.18-.08-.19zm10.61 1.06c.07-.05.23-.01.28.11-.1.07-.28 0-.28-.11zm2.47.47c.28.11.08-.22.12-.3.45.36-.26.46-.01.91-.11-.19-.29-.43-.11-.61zm2.86 6.67c.32-.03.27.28.13.44-.12-.13-.2-.28-.13-.44zm2.27 8.23c.18-.24.02-.71.47-.72.15.16.55.39.31.68-.16.33-.55.03-.78.04z" class="st12"/><path id="path222" d="M252.81 189.46c-.18-.13-.34-.28-.52-.43l.23-.18c-.42-.54-1.25-.06-1.72-.29.55-.16 1.75.15 1.53-.61a1.02 1.02 0 0 1-.16-.31l-24.58-3.74-8.48-35.67a.854.854 0 0 0-1.02-.63c-.46.11-.74.57-.63 1.02l1.89 7.94c.2.14.56.26.78.43.2.36.04.73-.5.77l6.57 27.64 26.61 4.06zm-1-.43l.03.03-.45.08c.04-.14.29-.06.42-.11z" class="st12"/><g id="g242"><path id="path224" d="M194.71 331.47l-.1-.03c-.79 1.6-1.7 3.49-2.51 4.98l-.56 1.08 3.05.77.02-1.22c-.02-1.69.08-3.82.1-5.58z" class="st13"/><path id="path226" d="M208.42 335.21l-.26-.07-2.43 9.58.26.07c2.41.61 4.55.12 5.53-3.77.99-3.9-.7-5.2-3.1-5.81z" class="st13"/><path id="path228" d="M227.22 339.92c-2-.51-3.67.92-4.43 3.94-.77 3.02-.02 5.23 1.98 5.73s3.71-1.08 4.47-4.1c.77-3.01-.02-5.06-2.02-5.57z" class="st13"/><path id="path230" d="M161.58 319.59l-3.53 6.84c-.88 1.66-1.65 3.29-2.56 4.96l-.1-.03c-.01-1.91.12-3.7.11-5.58l.1-7.71-4.66-1.18.7 17.89 5.33 1.35 9.13-15.4-4.52-1.14z" class="st14"/><path id="rect232" d="M158.93 327.66h17.17v4.54h-17.17z" class="st14" transform="rotate(-75.783 167.512 329.923)"/><path id="path234" d="M182.25 332.34l-1.82-1.31c-1.36-.97-2.24-1.49-2.04-2.29.19-.74.95-.96 2.03-.69 1.23.31 2.1.97 3.02 2.05l2.9-2.21c-1.15-1.9-3.07-3.15-4.97-3.63-3.64-.92-6.79.76-7.51 3.6-.61 2.41.57 4.31 2.18 5.48l1.85 1.4c1.27.92 2.05 1.39 1.84 2.18-.19.74-.86 1.03-2.19.7-1.23-.31-2.55-1.35-3.48-2.6l-3.28 2.38c1.38 2.07 3.6 3.45 5.7 3.98 4.15 1.05 7.14-.86 7.85-3.68.6-2.28-.22-4.01-2.08-5.36z" class="st14"/><path id="path236" d="M192.92 327.53l-9.29 15.36 4.51 1.14 1.72-3.32 4.64 1.18-.07 3.74 4.66 1.18-.85-17.93-5.32-1.35zm-1.39 9.97l.56-1.08c.81-1.48 1.73-3.38 2.51-4.98l.1.03c-.01 1.77-.12 3.89-.11 5.59l-.02 1.22-3.04-.78z" class="st14"/><path id="path238" d="M209.57 331.74l-4.92-1.25-4.22 16.64 5.17 1.31c4.81 1.22 8.93-.41 10.42-6.3 1.5-5.87-1.38-9.11-6.45-10.4zm1.95 9.27c-.99 3.89-3.13 4.38-5.53 3.77l-.26-.07 2.43-9.58.26.07c2.4.62 4.09 1.92 3.1 5.81z" class="st14"/><path id="path240" d="M228.18 336.13c-4.61-1.17-8.51 1.11-9.9 6.59s.92 9.5 5.53 10.66 8.55-1.27 9.94-6.75c1.38-5.44-.96-9.33-5.57-10.5zm1.06 9.37c-.77 3.02-2.47 4.6-4.47 4.1s-2.75-2.71-1.98-5.73c.77-3.02 2.44-4.45 4.43-3.94s2.79 2.55 2.02 5.57z" class="st14"/></g><g id="g256"><path id="path244" d="M252.07 307.01l4.33 2.3c1.05.57 2.08 1.07 3.14 1.67l-.02.07c-1.21-.01-2.35-.1-3.55-.11l-4.91-.12-.78 2.96 11.38-.32.9-3.38-9.73-5.92-.76 2.85z" class="st11"/><path id="rect246" d="M257.26 297.86h2.89v10.92h-2.89z" class="st11" transform="rotate(-75.132 258.702 303.329)"/><path id="path248" d="M260.33 293.95l-.84 1.15c-.63.86-.97 1.41-1.47 1.28-.47-.12-.6-.61-.42-1.29.21-.78.63-1.33 1.32-1.91l-1.38-1.86c-1.22.72-2.02 1.93-2.34 3.13-.61 2.31.43 4.32 2.24 4.8 1.53.4 2.75-.33 3.5-1.35l.9-1.17c.59-.8.9-1.29 1.4-1.16.47.12.65.56.43 1.4-.21.78-.88 1.61-1.68 2.2l1.49 2.1c1.33-.87 2.22-2.26 2.57-3.59.7-2.63-.5-4.55-2.28-5.02-1.46-.39-2.57.12-3.44 1.29z" class="st11"/><path id="path250" d="M257.35 287.13l9.7 6.02.76-2.86-2.1-1.12.78-2.95 2.38.07.78-2.96-11.41.41-.89 3.39zm6.33.96l-.69-.37c-.94-.53-2.14-1.12-3.15-1.63l.02-.07c1.12.02 2.48.1 3.55.11l.78.02-.51 1.94z" class="st11"/><path id="path252" d="M260.15 276.57l-.83 3.12 10.56 2.8.87-3.28c.81-3.05-.2-5.68-3.93-6.68-3.74-.99-5.82.83-6.67 4.04zm5.91-1.18c2.47.66 2.77 2.02 2.36 3.55l-.04.16-6.07-1.61.04-.16c.4-1.53 1.24-2.59 3.71-1.94z" class="st11"/><path id="path254" d="M263.08 264.76c-.78 2.92.65 5.42 4.12 6.34 3.47.92 6.05-.52 6.82-3.44.78-2.92-.74-5.45-4.22-6.37-3.46-.91-5.95.55-6.72 3.47zm5.96-.61c1.92.51 2.91 1.61 2.57 2.87-.34 1.27-1.74 1.73-3.66 1.22s-2.81-1.58-2.48-2.85c.35-1.26 1.66-1.74 3.57-1.24z" class="st11"/></g><g id="g270"><path id="path258" d="M228.97 134.58l1.56 1.39-2.56 5.21c-.57 1.18-1.12 2.16-1.68 3.35l.05.04c1.12-.69 2.04-1.34 3.14-2.04l4.88-3.13 1.5 1.34-9.98 5.99-1.74-1.56 4.83-10.59z" class="st12"/><path id="path260" d="M239.32 143.84l1.47 1.31-7.41 8.28-1.47-1.32 7.41-8.27z" class="st12"/><path id="path262" d="M238.39 156.02l1.76-.24c.09 1.1.54 2.19 1.31 2.88.93.83 1.82.87 2.4.22.61-.68.27-1.38-.2-2.37l-.69-1.51c-.51-1.07-.79-2.48.29-3.7 1.18-1.32 3.26-1.29 4.87.15.97.87 1.55 2.11 1.61 3.34l-1.59.26c-.13-.92-.45-1.69-1.16-2.32-.79-.7-1.63-.79-2.17-.19-.58.65-.17 1.46.27 2.35l.7 1.47c.62 1.29.75 2.53-.32 3.73-1.2 1.34-3.32 1.46-5.18-.2a5.667 5.667 0 0 1-1.9-3.87z" class="st12"/><path id="path264" d="M256.48 159.21l1.72 1.54-4.71 10.7-1.56-1.39 2.68-5.54c.52-1.11 1.12-2.28 1.69-3.4l-.05-.05a81.81 81.81 0 0 1-3.18 2.07l-5.22 3.27-1.5-1.34 10.13-5.86zm-5.48 3.9l3.9 3.49-1.03 1.15-3.9-3.49 1.03-1.15z" class="st12"/><path id="path266" d="M264.39 166.28l2.21 1.98c2.54 2.27 2.81 4.98.36 7.72s-5.24 2.83-7.7.63l-2.29-2.04 7.42-8.29zm-4.24 8.99c1.67 1.49 3.47 1.4 5.3-.64 1.82-2.04 1.65-3.77-.01-5.27l-.64-.58-5.28 5.9.63.59z" class="st12"/><path id="path268" d="M270.72 179.36c2.4-2.68 5.31-2.92 7.47-.99s2.23 4.86-.16 7.53c-2.4 2.68-5.37 2.99-7.53 1.06-2.16-1.94-2.18-4.92.22-7.6zm5.8 5.18c1.66-1.86 1.83-3.74.53-4.9-1.3-1.17-3.15-.79-4.81 1.07s-1.89 3.8-.59 4.97c1.3 1.16 3.2.72 4.87-1.14z" class="st12"/></g></g></svg>