<?xml version="1.0" encoding="utf-8"?>
<!-- Generator: Adobe Illustrator 23.0.3, SVG Export Plug-In . SVG Version: 6.00 Build 0)  -->
<svg version="1.1" id="Layer_1" xmlns="http://www.w3.org/2000/svg" xmlns:xlink="http://www.w3.org/1999/xlink" x="0px" y="0px"
	 viewBox="0 0 454.17 454.17" style="enable-background:new 0 0 454.17 454.17;" xml:space="preserve">
<style type="text/css">
	.st0{fill:#D7DBDE;}
	.st1{fill:#C6CACC;}
	.st2{fill:#F3444D;}
	.st3{fill:#D4D4D4;}
	.st4{fill:#C1273A;}
	.st5{fill:#FBB200;}
	.st6{fill:#E2A41A;}
	.st7{fill:#D22C3A;}
	.st8{fill:#006DA3;}
</style>
<path class="st0" d="M404.83,247.28l-1.72,1.72l-61.73,61.73l-94.1,94.1c-1.27,1.27-2.63,2.4-4.06,3.37
	c-11.12,7.64-26.45,6.51-36.33-3.37l-3.37-3.37l-95.81-95.81l-15.26-15.26l-43.11-43.11c-11.16-11.16-11.16-29.24,0-40.39
	L206.89,49.34c11.16-11.16,29.24-11.16,40.39,0l157.55,157.55C415.98,218.04,415.98,236.13,404.83,247.28z"/>
<path class="st1" d="M404.83,247.28l-1.72,1.72c-4.07,1.83-8.32,3.68-12.72,5.52c-29.22,12.19-64.77,23.83-96.79,26.71
	c0.01,0.16,0.03,0.31,0.05,0.48c0.01,0.1,0.02,0.2,0.03,0.3c0.01,0.07,0.01,0.15,0.02,0.22c0.01,0.09,0.01,0.17,0.02,0.26
	c0.06,0.66,0.1,1.32,0.12,1.97c0.01,0.08,0.01,0.17,0.02,0.26v0.17c0.01,0.15,0.01,0.3,0.01,0.45c0.01,0.21,0.01,0.42,0.01,0.64
	v0.22c-0.01,0.63-0.02,1.26-0.06,1.87c-0.11,1.92-0.38,3.77-0.83,5.59c-1.08,4.38-3.88,9.93-10.41,12.5
	c-0.91,0.36-2.04,0.59-3.36,0.7c-0.06,0.01-0.12,0.01-0.18,0.01c-0.09,0.01-0.18,0.01-0.26,0.02c-0.1,0-0.2,0.01-0.29,0.01
	c-0.09,0-0.18,0.01-0.27,0.01c-0.05,0.01-0.1,0.01-0.15,0.01c-0.07,0.01-0.14,0.01-0.21,0.01c-0.06,0.01-0.12,0.01-0.18,0.01
	c-0.08,0-0.15,0.01-0.23,0.01v0.12c0,0,0.01,0.7-0.15,1.78c0,0.01-0.01,0.04-0.01,0.05c-0.02,0.13-0.04,0.26-0.07,0.4
	c0,0.01,0,0.03-0.01,0.04c-0.03,0.16-0.06,0.33-0.1,0.5c-0.84,4.13-3.87,11.46-14.85,11.78c-2.26,0.06-5.45-0.32-9.26-1.04v0.01
	c0,0.03-0.01,0.07-0.01,0.12c-0.04,0.36-0.18,1.27-0.48,2.5c-0.01,0.07-0.03,0.12-0.04,0.19c-0.01,0.06-0.03,0.11-0.04,0.17
	c0,0,0,0-0.01,0c-1.2,4.54-4.68,12.61-14.27,12.61c-3.04,0-7.72-0.69-13.66-1.94c-0.4,0.48-0.86,0.99-1.38,1.52
	c-0.02,0.02-0.04,0.05-0.07,0.07c-0.18,0.18-0.36,0.36-0.55,0.53c0,0.01-0.01,0.01-0.01,0.01c-0.01,0.01-0.02,0.01-0.03,0.03
	c-0.2,0.18-0.4,0.37-0.61,0.55c-0.05,0.04-0.1,0.08-0.14,0.12c-0.22,0.18-0.45,0.37-0.67,0.55c-0.01,0.01-0.03,0.03-0.04,0.04
	c-0.03,0.02-0.07,0.04-0.1,0.07c-0.2,0.16-0.42,0.31-0.63,0.47c-0.04,0.03-0.09,0.07-0.13,0.1c-0.24,0.17-0.49,0.33-0.75,0.49
	c-0.03,0.01-0.05,0.03-0.07,0.04c-0.01,0-0.01,0-0.01,0c-1.62,0.99-3.47,1.73-5.52,1.89c-5.22,0.41-11.48-3.61-14.85-6.13
	c-1.51-1.13-2.44-1.97-2.44-1.97c-1.83,1.32-3.87,2.31-5.98,2.47c-4.77,0.38-12.05-3.03-16.15-5.21c-0.23-0.12-0.45-0.24-0.67-0.36
	c-0.07-0.04-0.12-0.07-0.19-0.1c-0.14-0.08-0.28-0.16-0.41-0.23c-0.04-0.02-0.07-0.04-0.12-0.06c-0.52-0.29-0.94-0.53-1.24-0.71
	c-0.29-0.17-0.46-0.27-0.47-0.28c-1.85,0.95-3.83,1.62-5.82,1.78c-9.28,0.72-25.46-7.63-25.9-13.28c-0.01-0.11-0.01-0.22-0.01-0.33
	c0-1.11,0.42-2.32,1.1-3.53c0-0.01,0.01-0.01,0.01-0.02c0.16-0.29,0.33-0.57,0.51-0.85c0.03-0.04,0.05-0.07,0.07-0.11
	c0.37-0.57,0.8-1.14,1.25-1.7c0.02-0.03,0.04-0.06,0.07-0.08c0.14-0.17,0.28-0.34,0.42-0.5c-16.74-5.93-34.03-12.44-50.54-19.12
	l-43.11-43.11c-11.16-11.16-11.16-29.24,0-40.39l31.59-31.59c34.34,14.86,72.81,25.38,77.65,25.38c3.88,0,6.09-6.69,10.27-8.67
	c14.51-6.86,34.49-9.64,44.8-8.6c3.24,0.33,7.42,2.3,11.35,4.73c0.36-0.21,0.67-0.36,0.9-0.43c16.29-5.05,33.41-7.02,41.42-6.45
	c8.01,0.56,11.43,6.03,17.9,8.46c3.92,1.47,42-7.02,81.64-20.81l37.98,37.98C415.98,218.04,415.98,236.13,404.83,247.28z"/>
<path class="st2" d="M226.4,312.44c0,0-5.03,8.5-12.6,9.09c-5.22,0.41-11.48-3.61-14.85-6.13c-1.51-1.13-2.44-1.96-2.44-1.96
	c4.21-3.02,7.26-7.69,7.26-7.69c1,0.33,1.99,0.65,2.99,0.97C213.44,308.85,220.06,310.79,226.4,312.44"/>
<path class="st2" d="M203.77,305.74c0,0-3.05,4.68-7.26,7.69c-1.83,1.31-3.87,2.31-5.97,2.47c-4.77,0.38-12.05-3.03-16.15-5.21
	c-1.87-1-3.09-1.74-3.09-1.74c6.21-3.18,11.19-9.53,11.97-10.56c0.98,0.38,1.97,0.76,2.95,1.13
	C192,301.72,197.9,303.81,203.77,305.74"/>
<path class="st2" d="M183.26,298.4c-0.78,1.03-5.76,7.38-11.97,10.56c-1.85,0.95-3.82,1.62-5.82,1.77
	c-9.27,0.73-25.46-7.63-25.9-13.28c-0.44-5.64,10.77-13.95,10.77-13.95C159.93,288.66,171.32,293.75,183.26,298.4"/>
<path class="st3" d="M201.32,308.92c-1.16,1.34-2.66,2.89-4.38,4.19c-0.14,0.11-0.29,0.22-0.44,0.32c0,0,0.93,0.83,2.44,1.96
	c0.5-0.39,0.99-0.79,1.45-1.2c1.68-1.49,3.09-3.09,4.11-4.36C203.46,309.54,202.4,309.23,201.32,308.92z"/>
<path class="st3" d="M179.83,302.34c-1.16,1.2-2.57,2.52-4.14,3.75c-1.36,1.07-2.84,2.06-4.4,2.86l0,0
	c0.02,0.01,1.23,0.75,3.09,1.74c1.69-1.03,3.27-2.24,4.68-3.46c1.55-1.34,2.9-2.7,3.98-3.88
	C181.97,303.03,180.91,302.69,179.83,302.34z"/>
<path class="st4" d="M204.51,309.83c-1.04-0.3-2.11-0.6-3.19-0.91c-5.69-1.65-11.82-3.51-18.29-5.56c-1.06-0.34-2.12-0.67-3.21-1.02
	c-11.4-3.65-23.77-7.83-36.56-12.35c-1.02,1.16-1.95,2.39-2.62,3.6c12.14,4.48,23.98,8.71,35.04,12.5c1.13,0.39,2.25,0.77,3.37,1.15
	c6.26,2.12,12.26,4.09,17.88,5.87c1.17,0.37,2.32,0.73,3.45,1.08c7.01,2.17,13.38,4.02,18.92,5.45c0.59-0.36,1.15-0.75,1.68-1.16
	c0.53-0.42,1.03-0.85,1.49-1.29c0.8-0.76,1.5-1.53,2.07-2.22C218.95,313.75,212.18,312.01,204.51,309.83z"/>
<path class="st5" d="M293.82,268.87c-0.11,1.91-0.38,3.77-0.83,5.59c-1.08,4.38-3.88,9.93-10.41,12.5c-0.91,0.36-2.04,0.6-3.36,0.71
	c-0.56,0.05-1.17,0.07-1.79,0.09v0.12c0,0,0.01,1.14-0.33,2.79c-0.84,4.12-3.87,11.45-14.85,11.78c-2.26,0.06-5.45-0.32-9.26-1.03
	v0.01c-0.02,0.23-0.16,1.39-0.58,2.98c-1.2,4.54-4.68,12.61-14.27,12.61c-30.8,0-227.81-69.76-236.27-96.54
	c-4.48-14.2-3.53-63.77,32.78-75.9c8.92-2.98,18.68-1.9,27.01,2.44c37.41,19.5,91.13,34.49,96.91,34.49c3.88,0,6.08-6.69,10.27-8.67
	c14.51-6.86,34.49-9.64,44.8-8.59c6.01,0.61,15.29,6.85,20.05,11.27C251.93,192.42,295.76,236.64,293.82,268.87"/>
<path class="st6" d="M223.71,243.45c-0.35,0.65-0.73,1.33-1.14,2.03c-4.37,7.51-11.8,16.89-21.62,16.89
	c-13.62,0-22.38-5.66-27.65-12.28c3.86,9.28,13.39,20.2,32.31,20.2c9.83,0,17.26-9.38,21.62-16.89c0.4-0.71,0.78-1.39,1.13-2.04
	c0.69,0.69,1.39,1.36,2.07,2.02c11.92,11.27,31.04,15.75,53.59,15.75c3.2,0,6.47-0.09,9.8-0.26c0.04-0.69,0.06-1.39,0.06-2.09
	c0-0.42-0.01-0.84-0.02-1.26c-0.03-0.82-0.08-1.64-0.16-2.48c-0.03-0.33-0.07-0.66-0.11-0.99c-4.92,0.44-9.76,0.68-14.47,0.68
	c-21.34,0-40.22-4.83-53.35-17.25C225.08,244.81,224.39,244.14,223.71,243.45"/>
<path class="st7" d="M449.09,205.24c-18.86,14.6-169.51,91.13-223.32,40.22c-0.69-0.65-1.38-1.33-2.07-2.01
	c-0.35,0.65-0.73,1.33-1.14,2.03c-4.37,7.51-11.8,16.89-21.62,16.89c-28.75,0-35.8-25.18-34.29-31.55
	c5.53-13.05,53.15-60.42,59.23-62.3c16.29-5.05,33.41-7.01,41.43-6.45c8.01,0.56,11.43,6.04,17.9,8.47
	c5.23,1.96,71.3-13.8,120.74-36.28C434.17,121.43,466.94,187.4,449.09,205.24"/>
<path class="st6" d="M190.75,282.79c-0.63,0-1.21,0.39-1.44,1.01c-0.28,0.79,0.13,1.66,0.92,1.94c0.41,0.14,39.92,14.07,62.19,18.65
	c0.01-0.06,0.03-0.11,0.04-0.16c0.34-1.33,0.48-2.33,0.53-2.69c0.01-0.05,0.01-0.09,0.01-0.11c-22.04-4.54-61.35-18.39-61.76-18.54
	C191.09,282.81,190.92,282.79,190.75,282.79"/>
<path class="st6" d="M226.85,274.73c-0.62,0-1.21,0.38-1.43,1c-0.29,0.79,0.12,1.66,0.91,1.94c1.43,0.52,33.74,12.18,50.78,12.98
	c0.04-0.17,0.07-0.34,0.1-0.5c0.24-1.36,0.23-2.28,0.23-2.28v-0.13c0.14,0,0.28,0,0.42-0.01c0.07,0,0.14,0,0.21-0.01
	c0.24-0.01,0.48-0.02,0.71-0.03c0.15-0.01,0.3-0.02,0.45-0.04h-0.39c-15.93,0-51.12-12.7-51.47-12.83
	C227.2,274.76,227.03,274.73,226.85,274.73"/>
<path class="st4" d="M277.79,229.45c-0.39,0-0.77,0.15-1.07,0.44c-8.61,8.6-18.96,11.03-27.91,11.03c-11.46,0-20.6-3.99-20.76-4.06
	l-1.48-0.66l-0.56,1.52c-0.01,0.03-1.15,3.06-3.25,6.98c-0.13,0.25-0.19,0.52-0.18,0.78c0.41-0.7,0.78-1.38,1.14-2.03
	c0.69,0.69,1.38,1.36,2.07,2.01c1.15-2.18,1.97-4.04,2.48-5.24c2.69,1.02,8.83,3.05,16.49,3.63c1.37,0.1,2.72,0.16,4.06,0.16
	c11.85,0,22.18-4.1,30.05-11.97c0.59-0.59,0.59-1.55,0-2.15C278.56,229.6,278.17,229.45,277.79,229.45"/>
<path class="st8" d="M-334.56,547.2l-95.32,95.32l-18.18,18.18l-35.07,35.07l-6.7,6.7l-2.28,2.28c-11.16,11.16-29.24,11.16-40.39,0
	l-18.74-18.74l-11.6-11.6l-66.19-66.19l-61.02-61.02c-11.16-11.16-11.16-29.25,0-40.4l116.21-116.21l4.28-4.28l28.56-28.56
	l8.49-8.49c11.16-11.16,29.24-11.16,40.39,0l29.5,29.5l81.55,81.55l46.49,46.49C-323.41,517.96-323.41,536.04-334.56,547.2z"/>
</svg>
