<?xml version="1.0" encoding="utf-8"?>
<!-- Generator: Adobe Illustrator 24.0.0, SVG Export Plug-In . SVG Version: 6.00 Build 0)  -->
<svg version="1.1" id="Layer_1" xmlns="http://www.w3.org/2000/svg" xmlns:xlink="http://www.w3.org/1999/xlink" x="0px" y="0px"
	 viewBox="0 0 300 300" style="enable-background:new 0 0 300 300;" xml:space="preserve">
<style type="text/css">
	.st0{fill:#E8E8E8;}
	.st1{fill:#EBEBEB;}
	.st2{fill:#FFCF59;}
	.st3{fill:#F0C055;}
	.st4{fill:#FFFFFF;}
	.st5{fill:#78CDEF;}
	.st6{fill:#F7F7F7;}
	.st7{fill:#FFCF59;stroke:#F0C055;stroke-width:1.7874;stroke-miterlimit:10;}
</style>
<g>
	<path class="st0" d="M279.4,164.2L168.6,275.1c-0.9,0.9-1.9,1.7-2.9,2.4c-7.8,5.4-18.6,4.6-25.6-2.4l-2.4-2.4l-7-7l-49.9-49.9
		l-10.5-10.5l-10.7-10.7l-30.3-30.3c-7.8-7.8-7.8-20.6,0-28.4l110.9-111c7.9-7.8,20.6-7.8,28.4,0l110.8,110.8
		C287.3,143.6,287.3,156.4,279.4,164.2z"/>
	<path class="st1" d="M201.5,200.3c0.1,0.6,0.1,1.4-0.1,2.2c0,0-0.3,3.3-6.6,6.2l2.2-0.5c0.4-0.1,0.8-0.1,1.2-0.2
		c2-0.2,7.1-0.1,6.4,5c-0.4,2.8-2.3,5.3-4.9,6.4l-7.4,3.1c1.7-0.4,3.5-0.5,5.1,0c2.8,0.8,5.7,2.9,2.2,9
		c-5.7,9.9-46.3,19.5-46.3,19.5s-5.1,7.4-18.8,13.7c-1.3,0.4-2.6,0.7-3.8,0.9l-49.9-49.9c0.8-2.6,2-5.5,3.8-8.5
		c6.7-11.1,9.8-17.2,11.2-20.5c0.9-2.1,2.4-3.7,4.4-4.8c-8.5-11.9-13.4-26.5-13.4-42.3c0-40.5,32.8-73.3,73.3-73.3
		s73.3,32.8,73.3,73.3C233.5,164.9,220.8,187.1,201.5,200.3z"/>
	<g>
		<g id="XMLID_1_">
			<g>
				<path class="st2" d="M189.4,204.8l-38.7,8.9l-0.4,0.5c-5.2-4.7-11.2-8.4-16.6-11.2c0.7,0.2,25.7-7.7,43.9-10
					c11.3-1.4,20-0.7,18.5,5.5C196,198.6,195.7,201.9,189.4,204.8z"/>
				<path class="st2" d="M133.7,203.1L133.7,203.1L133.7,203.1z"/>
				<path class="st2" d="M78.4,231.6c0.4,0.7,1,1.5,1.8,2.3C79.5,233.2,78.9,232.4,78.4,231.6z M86.4,239.3
					c-0.4-0.3-3.8-2.8-6.3-5.4C83.1,237.3,86.1,239.1,86.4,239.3z M78.4,231.5c-4.1-6-6.7-15.4,1-28.1c6.7-11.1,9.8-17.2,11.2-20.5
					c1.1-2.6,3.2-4.5,5.9-5.4c8.1-2.6,23.8-8.8,28.4-19.6c3.9-9.2,8-8.3,10.5-6.4c1.6,1.2,2.6,3,3.2,4.9c1.6,5.6,3.7,20.7-14.4,32.3
					l-8.5,5.3c0,0,66.4-22.6,61.8-0.9c-18.2,2.3-43.2,10.2-43.9,10l0,0l0,0c5.5,2.7,11.5,6.4,16.6,11.2l0.4-0.5l38.7-8.9l2.2-0.5
					c0.4-0.1,0.8-0.2,1.2-0.2c2-0.2,7.1-0.1,6.4,5c-0.4,2.8-2.3,5.3-4.9,6.4l-7.4,3.1c1.7-0.5,3.5-0.5,5.1,0c2.8,0.8,5.7,2.9,2.2,9
					c-5.7,9.9-46.3,19.5-46.3,19.5s-5.1,7.4-18.8,13.7c-4.6,1.3-8.5,1.4-11.9,0.7c-0.1,0-0.2,0-0.3-0.1l0,0
					c-0.2,0.1-5.4,3.9-9.1,8.1c-2.8,3.2-7.2,4.6-11.4,3.6c-15.8-4-26.5-13.6-31.7-19.2c-2.2-2.4-2.4-6-0.4-8.6
					C73.6,233.1,78.4,231.5,78.4,231.5z"/>
				<path class="st2" d="M80.2,233.9c2.4,2.6,5.9,5.2,6.3,5.4C86.1,239.1,83.1,237.3,80.2,233.9z"/>
				<path class="st2" d="M80.1,233.9c-0.7-0.8-1.3-1.6-1.8-2.3C78.9,232.4,79.5,233.2,80.1,233.9z"/>
			</g>
		</g>
		<g>
			<path class="st3" d="M136.5,204.8c0.1,0,0.2,0,0.3,0.1c0.1,0,0.2,0.1,0.2,0.1l0.2,0.1l0.4,0.3c0.3,0.2,0.5,0.4,0.8,0.5
				c0.5,0.4,1,0.8,1.5,1.2c1,0.8,1.9,1.6,2.8,2.5c1.8,1.8,3.4,3.8,4.9,5.9c1.4,2.1,2.6,4.4,3.4,6.9c0.9,2.4,1.3,5,1.6,7.6
				c0.1,0.7-0.4,1.2-1.1,1.3c-0.7,0.1-1.2-0.4-1.3-1.1l0,0v-0.1c-0.2-2.4-0.4-4.8-1.2-7c-0.7-2.3-1.7-4.5-3-6.6s-2.7-4-4.4-5.8
				c-0.8-0.9-1.7-1.7-2.6-2.5c-0.5-0.4-0.9-0.8-1.4-1.2c-0.2-0.2-0.5-0.4-0.7-0.6l-0.4-0.3l-0.2-0.1c-0.1,0,0,0,0,0h0.1
				c-0.3,0-0.6-0.2-0.6-0.5C136,205.1,136.2,204.8,136.5,204.8z"/>
		</g>
		<g>
			<circle class="st4" cx="154.4" cy="135.7" r="73.7"/>
			<g>
				<g>
					<path class="st5" d="M173.6,117.6l2.4,0.5C175.3,117.9,174.4,117.7,173.6,117.6z"/>
					<path class="st5" d="M156.5,63.2c-1,0-2.1,0.1-3.1,0.2c-3.3,0.3-4.6,1.8-7.4,3c-1.7,0.8-1.2,0.5-3.2,0.4
						c-1.3,0-2.7-0.6-4.2-0.1c-2.8,1-4.1,3.9-7.1,4.6c-3.5,0.9-7.3-0.5-10.7,0.7c-2.9,1-5.4,3-7.7,4.9c-2.1,1.8-5.6,2.7-5.7,5.9
						c5.1,1,9.6-7.4,10.6,1.7c0.3,2.6,1.4,4.8,1.6,7.4c0.2,2.4-0.8,4.4-1,6.8c-0.3,5.6,4.6,9.8,7.6,14.2c2,2.9,5,10.9,9.1,10.4
						c2.8-5.4-9.1-7.9-8.6-13.4c4.6-1.1,10.1,10,12.3,13.4c3.5,5.6,9.2,6.4,15.4,6.7c3,0.1,4.1,1.4,6.4,2.2c1.5,0.6,3.5,0.2,5.1,1
						c1.1,0.6,1.9,1.8,3,2.4c1.3,0.8,14.4,9.2,12.2,2.1c-2.1-0.4-6.1-1-7.3-2.7c-1.2-1.8-7.8-6.4-8.1-11.1l-0.4-3.7
						c-2.8-1.7-4.2,3.5-6.1,4.3c-5.7,2.4-10.4-4.6-8.2-9.5c1.8-4.2,13.7-7.3,17.7-6.1c2.9,0.8,4,4.2,6.7,4.7c0.9-3.1-4.1-4-2.4-7.9
						c1.4-3.1,4.2-4,4.7-8c0.4-2.7,1.6-5.9,4.2-7.3c2.6-1.5,6.6,0.4,6.5-4.5c1.7,0.2,3.4,0.1,3.2-1.9c-1.5-0.6-3.7-0.9-4.2-2.6
						c-0.7,0.1-2.3,5.2-2.8,3.2c-0.6-2.3,2.6-3.2,0.5-5.4c-0.7-0.8-2.2-0.4-3.1-0.9c-1.4-0.8-2.1-2.6-3.6-3.1
						c-1.6-0.6-4.6-0.1-6.1,0.6c-0.9-1.5-1.1-3.5-1-5.4c-1.8-0.7-3.9-0.2-5.8-0.7c-1.7-0.5-2.9-1.6-4.8-1.4
						c-0.8-4.8,7.6-2.2,9.4-0.9c1.4,1.1,1.9,2.4,3.1,3.4c1.4,1.2,3.3,1.7,5,2.4c1.6,0.6,8.6,2.8,5.9-1.6c-1.3-2.2-6.5-3.9-8.7-4.9
						c-2.1-1-4.6-1.8-6.4-2.3C164.4,63.5,156.5,63.2,156.5,63.2z"/>
					<path class="st5" d="M168.5,204.3h0.6c1.3-1.8,4.2-2.4,6.1-3.6c2.1-1.3,4-2.9,5.9-4.4c3.8-3,8.9-5.4,13-7.9
						c5.2-3.3,8.6-8.9,13.4-12.7l0,0c3.2-2.6,4.4-5.6,6.2-9.5c1.6-3.6,8.3-10.6,6.8-14c-3.6-1.4-5.6-2-7.2-5.7
						c-1-2.3-1.7-4.8-4.4-5.9c-1.1-0.5-2.8,0-3.8-0.5c-2.2-1.1-2-3.2-3.3-4.6c-2.7-3-7.3-3.2-11.2-3.3c-4-0.1-5.6,0.8-7.6,4
						c-1.7,2.8-0.7,4.9-1.5,7.9c-0.7,2.7-3.1,3.7-4.4,6.1c-1.3,2.3-1.3,5.3-0.4,8c2.6,7.7,12.9,16,8.9,24.2
						C181.2,190.7,173.3,196.5,168.5,204.3z"/>
					<path class="st5" d="M195.9,124.1c0.1-0.5,0.1-1.3,0-1.8c-0.5-0.2-1-0.4-1.6-0.4l0.7,0.3C193.3,123.1,194.2,124.1,195.9,124.1z
						"/>
					<path class="st5" d="M179.2,124.8c0.7,0.2,2.1,0.2,2.8,0c-0.2-0.9-0.9-1.2-1.9-1.6l0.7,0.6c-0.5-0.3-1-0.4-1.7-0.2
						C179.2,124,179.2,124.4,179.2,124.8L179.2,124.8z"/>
					<path class="st5" d="M175.7,118.2c0.1,0,0.1,0,0.2,0c0.4,2.4,2,1.4,3.5,2.2c1.5,0.8,0.6,2.8,3.5,2.1c0,0,0-0.8,0-0.9
						c-0.3-0.1-0.2,0.4-0.5,0.3c-0.1-0.5-0.6-1.3-0.8-1.9c-2.1,0.3-3.1-1.4-4.7-1.1c-0.3-0.4-0.7-0.7-1.1-0.8c0,0,0,0,0-0.1
						C175.8,118.2,175.8,118.2,175.7,118.2c-1-0.2-2.2,0.1-2.9-0.6c0.3,0,0.5,0,0.8,0.1l-0.9-0.2l0.1,0.1c-0.5,0-0.9-0.1-1.4-0.1
						c-0.1,0.4,0,0.8,0,1.2C172.9,118.9,174.4,118.5,175.7,118.2z"/>
				</g>
			</g>
			<path class="st6" d="M214.1,178.9c-12.1,16.8-31.1,28.4-53.3,30.3c-40.5,3.5-76.3-26.4-79.8-67c-2.2-25,8.4-48.1,26.3-63.1
				c-6.3,12.3-9.2,26.4-8,41.1c3.7,41.9,40.6,72.8,82.4,69.2C193.6,188.3,204.6,184.6,214.1,178.9z"/>
		</g>
		<g id="XMLID_3_">
			<g>
				<path class="st2" d="M113.2,196L113.2,196c0,0,25,12-0.8,31.4l-25,11.8c0,0-21.4-12.2-7.2-35.9c6.7-11.1,9.8-17.2,11.2-20.5
					c1.1-2.6,3.2-4.5,5.9-5.4c8.1-2.6,23.8-8.8,28.4-19.6c3.9-9.2,8-8.3,10.5-6.4c1.6,1.2,2.7,3,3.2,4.9c1.6,5.6,3.7,20.7-14.4,32.3
					L113.2,196z"/>
			</g>
		</g>
		<g>
			<path class="st3" d="M187.5,218.8l-26.4,8c-0.5,0.1-1-0.1-1.1-0.6s0.1-1,0.6-1.1l0,0l26.7-6.8c0.1,0,0.3,0,0.3,0.2
				C187.7,218.6,187.6,218.8,187.5,218.8z"/>
		</g>
		<g>
			<path class="st3" d="M189.7,204.9l-38.7,9.8c-0.5,0.1-1-0.2-1.1-0.6c-0.1-0.5,0.2-1,0.6-1.1l0,0l39.1-8.3c0.1,0,0.1,0,0.1,0.1
				C189.8,204.9,189.7,204.9,189.7,204.9z"/>
		</g>
		<path class="st7" d="M78.4,231.5c0,0,5.6,7.3,9.2,8.1"/>
		<path class="st7" d="M101,247c0,0,4.4,11.7,16,14.6"/>
		<g>
			<path class="st3" d="M123,204.9c0.8,2.2,1.1,4.5,1.1,6.8c-0.1,2.3-0.5,4.6-1.4,6.8c-0.2,0.6-0.5,1.1-0.7,1.6l-0.4,0.8l-0.5,0.7
				c-0.3,0.5-0.6,1-1,1.5l-1.1,1.3c-0.2,0.2-0.4,0.5-0.6,0.7l-0.6,0.6l-1.3,1.2c-0.9,0.7-1.8,1.4-2.8,2.1c-0.5,0.4-1.3,0.3-1.7-0.2
				c-0.4-0.5-0.3-1.3,0.2-1.7c0,0,0,0,0.1,0l0.1-0.1c0.9-0.6,1.8-1.2,2.7-1.8l1.2-1l0.6-0.5c0.2-0.2,0.4-0.4,0.6-0.6l1.1-1.2
				c0.3-0.4,0.6-0.9,1-1.3l0.5-0.6l0.4-0.7c0.3-0.5,0.6-0.9,0.8-1.4c1-1.9,1.5-4.1,1.7-6.2c0.2-2.2,0-4.4-0.6-6.5l0,0
				c-0.1-0.2,0-0.4,0.2-0.4C122.8,204.7,123,204.8,123,204.9z"/>
		</g>
	</g>
</g>
</svg>
