<svg version="1" xmlns="http://www.w3.org/2000/svg" viewBox="0 0 300 300"><path fill="#5C66D1" d="M283.71 165.195L165.195 283.71c-.136.135-.271.263-.406.391h-.008a19.458 19.458 0 0 1-2.64 2.144 21.075 21.075 0 0 1-4.506 2.354c-6.988 2.656-15.082 1.535-21.13-3.37a21.593 21.593 0 0 1-1.693-1.519l-5.574-5.574-4.86-4.859-.451-.451L16.296 165.195c-8.395-8.395-8.395-21.995 0-30.39L119.255 31.846l4.927-4.928 10.629-10.629c5.123-5.123 12.186-7.116 18.821-5.98a21.395 21.395 0 0 1 8.192 3.227l.007.008c1.189.782 2.317 1.7 3.363 2.746l1.737 1.738 4.348 4.348 28.886 28.886 6.778 6.778 40.132 40.132 36.634 36.634c8.388 8.394 8.388 21.994.001 30.389"/><path fill="#EAEAEA" d="M111.394 260.293l12.533 12.533-12.533-12.533"/><path fill="#545EC0" d="M110.229 195.972c13.92 15.852 33.822 26.136 55.801 27.585l-.643-7.354a81.755 81.755 0 0 1-6.616-.146l-.015-.001-.105-.007a80.932 80.932 0 0 1-19.662-3.74l-.036-.012-.025-.008a81.614 81.614 0 0 1-28.699-16.317M225.27 81.066c11.027 12.572 18.294 28.638 19.864 46.574 3.71 42.403-25.761 80.056-66.902 87.32l2.207 25.221a6.456 6.456 0 0 1-5.478 6.948l.149 1.701a6.445 6.445 0 0 0 6.423 5.89c.186 0 .375-.008.565-.022 3.55-.309 6.169-3.445 5.86-6.996l-2.204-25.223c41.139-7.266 70.612-44.916 66.904-87.312-1.903-21.749-12.186-40.75-27.388-54.101m-75.258-40.622c-1.148.242-2.289.503-3.421.782-48.94 12.029-83.287 58.366-78.759 110.105 3.746 42.788 33.023 77.308 71.478 89.878l-3.295 18.686a99.483 99.483 0 0 0-10.893-.601c-5.334 0-9.905.436-13.471.963-.09.015-.173.022-.256.037l12.532 12.532.451.451 4.86 4.859c3.001.55 6.258 1.144 9.801 1.768 11.186 1.97 19.664 3.309 25.741 4.197h.008c.135-.128.27-.256.406-.391l10.478-10.479c-4.566-2.851-13.909-7.921-26.945-11.104l3.114-17.669c.534.098 1.068.203 1.602.3 3.641.632 7.334 1.091 11.08 1.332 2.063.141 4.146.219 6.243.231a6.42 6.42 0 0 1-3.182-5.015l-.227-2.57a99.232 99.232 0 0 1-10.359-.171l-.559-6.386a91.61 91.61 0 0 1-7.9-1.691c-.113-.03-.218-.06-.339-.09-12.796-3.378-24.809-9.561-35.273-18.339-18.67-15.669-30.12-37.642-32.241-61.857-1.277-14.593.978-28.698 6.051-41.466 4.84-14.349 13.594-27.017 25.095-36.613l-.002.004a81.075 81.075 0 0 1 25.812-14.509 90.49 90.49 0 0 1 10.09-3.366 88.948 88.948 0 0 1 3.411-.851l-.769-8.789-.362-4.168m12.964-10.774a6.33 6.33 0 0 0-.951.071l2.058 23.524c2.318.001 4.612.099 6.888.293l-1.572-17.995a6.457 6.457 0 0 0-6.423-5.893"/><path fill="#383838" d="M132.157 268.746a6.454 6.454 0 0 0 7.476-5.235l5.863-33.252a6.454 6.454 0 0 0-12.71-2.241l-5.863 33.252a6.452 6.452 0 0 0 5.234 7.476z"/><path fill="#303030" d="M170.978 269.623c0 .076-.013.158-.027.241l-.941 5.316a3.224 3.224 0 0 1-3.566 2.645c-4.932-.604-16.088-2.116-34.931-5.441-18.843-3.317-29.841-5.715-34.684-6.835a3.23 3.23 0 0 1-2.446-3.702l.941-5.317a3.224 3.224 0 0 1 2.425-2.583c1.442-.35 3.607-.804 6.375-1.216 7-1.031 17.861-1.724 30.761.549 17.998 3.173 30.295 10.428 34.663 13.327a3.233 3.233 0 0 1 1.43 3.016z"/><path fill="#383838" d="M169.579 266.627c1.288.866.519 2.877-1.017 2.66-6.155-.873-15.212-2.278-27.583-4.459-18.843-3.318-29.841-5.715-34.684-6.835a3.23 3.23 0 0 1-2.446-3.703 2.163 2.163 0 0 1 1.853-1.776c7.003-.898 17.215-1.343 29.183.767 17.998 3.173 30.295 10.428 34.663 13.327l.031.019z"/><path fill="#303030" d="M145.493 230.261l-2.961 16.817a111.747 111.747 0 0 1-12.55-3.14l2.803-15.916c.619-3.511 3.971-5.86 7.474-5.235a6.452 6.452 0 0 1 5.234 7.474z"/><path fill="#383838" d="M173.039 238.401a99.455 99.455 0 0 1-5.681.336 99.954 99.954 0 0 1-10.359-.171 101.674 101.674 0 0 1-11.074-1.333c-45.242-7.983-81.423-45.531-85.614-93.425-4.526-51.739 29.814-98.074 78.759-110.102a101.105 101.105 0 0 1 10.181-1.972c1.868-.268 3.751-.488 5.654-.653 3.551-.316 6.677 2.315 6.986 5.867.316 3.545-2.315 6.677-5.867 6.986a84.92 84.92 0 0 0-5.647.68 88.25 88.25 0 0 0-10.167 2.116c-41.835 11.273-70.948 51.322-67.046 95.952 2.123 24.215 13.574 46.183 32.245 61.853 14.515 12.179 32.012 19.392 50.449 21.013 3.435.303 6.89.412 10.373.316a93.166 93.166 0 0 0 5.687-.316c3.545-.316 6.678 2.315 6.987 5.867a6.45 6.45 0 0 1-5.866 6.986z"/><path fill="#424242" d="M69.987 102.564a1.717 1.717 0 0 1-1.614-2.302 101.668 101.668 0 0 1 13.215-24.988c14.154-19.577 34.771-33.511 58.056-39.234a99.04 99.04 0 0 1 6.12-1.309c.935-.173 1.827.451 1.996 1.384s-.45 1.827-1.384 1.996a95.779 95.779 0 0 0-5.909 1.264c-22.498 5.53-42.418 18.993-56.095 37.911a98.156 98.156 0 0 0-12.77 24.144 1.72 1.72 0 0 1-1.615 1.134zM64.416 145.168a1.718 1.718 0 0 1-1.709-1.568 101.052 101.052 0 0 1 3.398-36.275 1.718 1.718 0 0 1 3.307.929 97.628 97.628 0 0 0-3.284 35.046 1.716 1.716 0 0 1-1.561 1.86l-.151.008z"/><path fill="#303030" d="M174.571 247.174a6.534 6.534 0 0 1-1.683-.075c-2.81-.495-5.049-2.816-5.303-5.791l-.227-2.57a99.954 99.954 0 0 1-10.359-.171l-1.14-13.018a90.83 90.83 0 0 0 4.786.295c1.855.065 3.717.073 5.587.021l-15.855-181.25-1.126-12.88-.227-2.569c-.316-3.551 2.315-6.677 5.866-6.993a6.452 6.452 0 0 1 6.986 5.866l18.561 212.142a6.454 6.454 0 0 1-5.866 6.993"/><path fill="#383838" d="M174.571 247.174a6.534 6.534 0 0 1-1.683-.075c-2.81-.495-5.049-2.816-5.303-5.791l-.227-2.57-1.126-12.873-15.855-181.25-1.126-12.88-.227-2.569c-.316-3.551 2.315-6.677 5.866-6.993a6.452 6.452 0 0 1 6.986 5.866l18.561 212.142a6.454 6.454 0 0 1-5.866 6.993"/><path fill="#303030" d="M178.83 221.825a87.923 87.923 0 0 1-7.158.921 87.184 87.184 0 0 1-5.681.316l-3.268-37.339 12.384-6.454 3.723 42.556"/><path fill="#78CDEF" d="M82.81 141.841c3.922 44.824 43.438 77.982 88.262 74.061 44.824-3.921 77.983-43.438 74.061-88.262-3.921-44.824-43.438-77.982-88.262-74.061-44.824 3.922-77.983 43.438-74.061 88.262"/><path fill="#4EB8D8" d="M185.199 114.727l2.601.525c-.736-.259-1.645-.419-2.601-.525z"/><path fill="#4EB8D8" d="M166.292 54.521c-1.142.04-2.31.12-3.464.226-3.623.352-5.09 2.004-8.229 3.371-1.931.85-1.38.525-3.571.458-1.467-.053-2.993-.67-4.619-.093-3.073 1.108-4.566 4.261-7.811 5.05-3.863.969-8.096-.531-11.879.783-3.192 1.115-6 3.285-8.481 5.435-2.362 2.03-6.218 2.953-6.351 6.484 5.668 1.142 10.645-8.203 11.707 1.838.312 2.84 1.56 5.336 1.785 8.13.212 2.675-.929 4.884-1.062 7.533-.338 6.159 5.097 10.804 8.455 15.662 2.243 3.218 5.522 12.025 10.027 11.461 3.139-5.946-10.054-8.767-9.516-14.766 5.117-1.221 11.196 11.03 13.572 14.859 3.869 6.225 10.16 7.068 17.049 7.406 3.272.159 4.546 1.506 7.115 2.469 1.665.644 3.902.259 5.594 1.155 1.175.644 2.124 1.938 3.292 2.648 1.454.903 15.895 10.2 13.452 2.296-2.27-.405-6.729-1.062-8.07-2.98-1.374-1.971-8.568-7.088-8.913-12.324l-.418-4.095c-3.113-1.931-4.613 3.83-6.789 4.739-6.291 2.655-11.448-5.037-9.112-10.473 2.004-4.692 15.145-8.023 19.558-6.762 3.252.916 4.447 4.685 7.386 5.223 1.023-3.451-4.533-4.473-2.681-8.74 1.493-3.438 4.618-4.453 5.249-8.873.431-2.993 1.745-6.47 4.659-8.123 2.887-1.633 7.274.431 7.168-4.991 1.839.192 3.81.126 3.491-2.104-1.626-.657-4.108-1.049-4.672-2.847-.776.08-2.535 5.708-3.086 3.584-.657-2.495 2.821-3.504.577-5.96-.763-.849-2.448-.444-3.411-.956-1.52-.849-2.349-2.82-4.029-3.424-1.812-.657-5.123-.119-6.763.631-1.035-1.692-1.194-3.922-1.114-5.92-1.951-.803-4.321-.199-6.378-.75-1.865-.518-3.159-1.805-5.276-1.493-.909-5.342 8.402-2.475 10.419-1.022 1.599 1.168 2.077 2.641 3.438 3.809 1.5 1.34 3.65 1.918 5.581 2.668 1.799.697 9.464 3.086 6.551-1.812-1.447-2.429-7.154-4.307-9.623-5.435-2.283-1.055-5.081-1.952-7.061-2.495-4.956-1.109-13.746-1.48-13.746-1.48z"/><path fill="#4EB8D8" d="M179.591 210.532h.71c1.473-2.045 4.592-2.635 6.696-4.002 2.336-1.487 4.447-3.245 6.497-4.845 4.228-3.279 9.842-5.934 14.348-8.78 5.747-3.65 9.53-9.796 14.793-14.049v.001c3.544-2.867 4.891-6.159 6.822-10.492 1.759-4.015 9.165-11.674 7.486-15.529-3.949-1.56-6.232-2.164-8.004-6.259-1.102-2.562-1.892-5.316-4.845-6.47-.619-.251-1.367-.242-2.104-.234-.764.009-1.516.017-2.097-.264-2.482-1.194-2.19-3.497-3.663-5.137-3.006-3.351-8.109-3.531-12.39-3.65-4.373-.133-6.199.903-8.402 4.42-1.931 3.126-.77 5.416-1.666 8.681-.816 2.953-3.417 4.108-4.911 6.743-1.42 2.495-1.44 5.893-.444 8.86 2.833 8.54 14.255 17.653 9.802 26.724-4.544 9.237-13.312 15.668-18.628 24.282M209.847 121.848c.159-.551.145-1.394 0-1.945-.538-.199-1.155-.418-1.732-.418l.723.365c-1.799.883-.83 2.038 1.009 1.998zM191.418 122.631c.803.199 2.296.199 3.106.007-.173-1.009-.962-1.374-2.091-1.719l.81.644a2.514 2.514 0 0 0-1.825-.246 8.476 8.476 0 0 0 0 1.314zM187.542 115.358c.073 0 .153.013.219.026.418 2.655 2.19 1.527 3.909 2.469 1.626.902.644 3.086 3.922 2.296l-.013-.969c-.285-.146-.259.418-.525.299-.126-.564-.677-1.453-.876-2.057-2.323.378-3.412-1.579-5.21-1.168a2.187 2.187 0 0 0-1.208-.869l-.026-.08-.186.053c-1.109-.226-2.389.133-3.179-.71l.829.08-.956-.186.12.106a19.561 19.561 0 0 0-1.507-.066c-.067.464-.026.856 0 1.327 1.581.159 3.287-.206 4.687-.551z"/><path fill="#116493" d="M90.09 169.13a81.51 81.51 0 0 0 20.139 26.842l-.002-.002a81.52 81.52 0 0 1-20.137-26.84m-7.591-35.319v0m.004-.269l-.001.058.001-.058m.002-.144l-.001.085.001-.085m.002-.144l-.002.105.002-.105m.002-.123l-.002.103.002-.103m.003-.136l-.002.119.002-.119m4.229-24.263l-.002.005a80.922 80.922 0 0 0 .002-.005"/><path fill="#105C87" d="M158.771 216.057a81.73 81.73 0 0 0 6.616.146 80.877 80.877 0 0 1-6.616-.146m-19.817-3.759l.036.012-.036-.012m-28.727-16.328l.002.002a81.627 81.627 0 0 0-.002-.002m1.607-123.845c-11.501 9.596-20.255 22.263-25.095 36.613l.002-.005c4.839-14.347 13.592-27.01 25.091-36.603l.002-.005"/><path fill="#333" d="M165.391 216.203h-.004.004"/><path fill="#2C2C2C" d="M176.139 215.301a82.348 82.348 0 0 1-10.748.902 82.677 82.677 0 0 0 10.748-.902m.117-.017l-.108.016.108-.016m.115-.018l-.081.012a1.22 1.22 0 0 0 .081-.012m.122-.018l-.065.01.065-.01"/><path fill="#6EBCDB" d="M111.832 72.129c-11.499 9.593-20.252 22.257-25.091 36.603a80.956 80.956 0 0 0-4.229 24.253v.01a4.723 4.723 0 0 0-.002.119v.017l-.002.103v.02l-.002.105-.001.038-.001.085-.001.059-.001.058-.002.211v.015a82.565 82.565 0 0 0 .311 8.017c.852 9.734 3.38 18.914 7.279 27.287a81.52 81.52 0 0 0 20.137 26.84 81.656 81.656 0 0 0 28.702 16.32l.025.008.036.012a80.819 80.819 0 0 0 19.767 3.747l.015.001a81.659 81.659 0 0 0 6.616.146h.004a82.562 82.562 0 0 0 10.748-.902l.009-.001.108-.016a.347.347 0 0 1 .034-.005l.081-.012.057-.009.065-.01c22.216-3.434 41.171-15.692 53.551-32.84a83.642 83.642 0 0 1-19.542 8.542 25.291 25.291 0 0 1-2.659 1.956c-4.506 2.846-10.121 5.501-14.348 8.78-2.05 1.599-4.161 3.358-6.497 4.845-2.104 1.367-5.223 1.957-6.696 4.002h-.71c3.684-5.971 9.027-10.893 13.473-16.428a84.788 84.788 0 0 1-6.331.236c-43.139 0-79.864-33.003-83.692-76.782-1.423-16.278 1.88-31.878 8.789-45.43"/><path fill="#48A9C6" d="M210.502 190.949a84.661 84.661 0 0 1-17.437 3.156c-4.446 5.535-9.789 10.457-13.473 16.428h.71c1.473-2.045 4.592-2.635 6.696-4.002 2.336-1.487 4.447-3.245 6.497-4.845 4.228-3.279 9.842-5.934 14.348-8.78a25.548 25.548 0 0 0 2.659-1.957"/></svg>