<svg xmlns="http://www.w3.org/2000/svg" id="Layer_1" x="0" y="0" version="1.1" viewBox="0 0 300 300" xml:space="preserve"><style>.st2{fill:#383838}.st7{fill:#6ebcdb}.st8{fill:#78cdef}.st9{fill:#62a7bc}</style><path fill="#e8e8e8" d="M283.7 165.2L236 212.9l-70.8 70.8c-1 1-2 1.8-3.1 2.5-8.4 5.7-19.9 4.9-27.3-2.5l-2.5-2.5-72.1-72.1-43.9-43.9c-8.4-8.4-8.4-22 0-30.4L134.8 16.3c8.4-8.4 22-8.4 30.4 0l118.5 118.5c8.4 8.4 8.4 22 0 30.4"/><path fill="#d5d5d5" d="M118.7 267.6l13.5 13.5c1.1.2 2.2.4 3.4.6 10.3 1.8 19.1 3.3 26.5 4.5 1.1-.7 2.1-1.6 3.1-2.5l7.2-7.2c-9.3-1.3-23.1-3.5-42.8-6.9-3.9-.7-7.5-1.4-10.9-2m77.2-21.2l-1.3 7.3c0 .3-.1.5-.2.7l7.1-7.1-5.6-.9m31.3-54.4v.4c-.7 5.4-1.8 14-3.9 25.5-.6 3.4-1.2 6.5-1.7 9.3l14.4-14.4c.7-4.8 1.2-8.6 1.6-11.6.5-4.1-2.3-7.9-6.4-8.6l-4-.6M97.1 71.7c.6 1.8 2.2 3.1 4.1 3.4l3.8.7c-3.3.6-6 3.3-6.3 6.9l-3.9 40.1 119.2 21-6.7 38 3.7.6 7 1.2 4.6-25.9.7-3.9c2.3-.9 4-2.8 4.7-5.3l10.6-41.3c.9-3.4-.7-6.9-3.6-8.6l3.8.7c.3.1.6.1.9.1 2.2 0 4.3-1.4 5.1-3.6v-.1l-9.2-9.2c-.6 2-1.1 3.6-1.5 4.9-.7 2.1-2.7 3.4-4.9 3.4-.3 0-.6 0-.9-.1l-131.2-23m40.1-45c-.6 0-1.1.3-1.4.9l14.2 2.5c-.1-.6-.4-1.1-1-1.3-1-.4-2.8-.9-5.8-1.4-3-.6-4.9-.7-6-.7"/><path d="M243.9 72.1c-1.1 6.2-2.5 9.9-3.5 12.1-.7 1.4-3.1 2.1-5.8 1.6L93.8 61c-2.7-.5-4.7-1.9-4.9-3.5-.2-2.3-.3-6.3.8-12.5s2.5-9.9 3.5-12.1c.7-1.4 3.2-2.1 5.8-1.6l140.8 24.8c2.7.5 4.7 1.9 4.9 3.5.2 2.3.3 6.3-.8 12.5" class="st2"/><path fill="#f9ce62" d="M238.9 71.2c-1.8 10.3-3.6 16.6-4.9 20.2-.8 2.4-3.3 3.8-5.8 3.4L96.6 71.6c-2.5-.4-4.3-2.6-4.3-5.1.1-3.8.5-10.4 2.3-20.7 1.8-10.3 3.6-16.6 4.9-20.3.8-2.4 3.3-3.8 5.8-3.4L237 45.4c2.5.4 4.3 2.6 4.3 5.1-.1 3.9-.6 10.4-2.4 20.7"/><path fill="#bcbcbc" d="M225.7 43.4l11.3 2-11.3-2"/><path fill="#fad87e" d="M230.1 54h-.5L109.3 32.7c-1.5-.3-2.5-1.7-2.2-3.2.2-1.3 1.4-2.3 2.7-2.3h.5l120.4 21.2c1.5.3 2.5 1.7 2.2 3.2-.3 1.5-1.5 2.4-2.8 2.4M104.4 22.1h-.3c-.6 2.6-1.2 5.7-1.9 9.3-1.7 9.6-2.1 15.7-2.2 19.3 0 2.3 1.7 4.4 4 4.8l122.8 21.7c.3.1.6.1.8.1 2 0 3.8-1.3 4.5-3.2 1.2-3.4 2.9-9.3 4.5-18.9.6-3.6 1.1-6.7 1.4-9.4-.3-.1-.7-.3-1.1-.3h-.1l-11.3-2-120.2-21.3c-.3-.1-.6-.1-.9-.1"/><path fill="#fbe4a0" d="M109.7 27.3c-1.3 0-2.4.9-2.7 2.3-.3 1.5.7 2.9 2.2 3.2L229.7 54h.5c1.3 0 2.4-.9 2.7-2.3.3-1.5-.7-2.9-2.2-3.2L110.2 27.3h-.5"/><path d="M134.3 80.2l-13.7-2.4 9-51.3c.1-.7.7-1.2 1.5-1.2 1 0 2.8.1 5.7.6 2.9.5 4.6 1 5.6 1.3.7.2 1.1.9 1 1.7l-9.1 51.3zm69.4 12.2L189.9 90l9.1-51.3c.1-.7.7-1.2 1.5-1.2 1 0 2.8.1 5.7.6 2.9.5 4.6 1 5.6 1.3.7.2 1.1.9 1 1.7l-9.1 51.3z" class="st7"/><path d="M87.4 160.7L76 225.2l-14.7-2.6c-3.9-.7-6.6-4.3-6.1-8.2.7-5.4 1.8-14 3.9-25.5 2-11.5 3.8-19.9 5.1-25.2.9-3.9 4.7-6.3 8.5-5.6l14.7 2.6m135.9 57.2c-2 11.5-3.8 19.9-5.1 25.2-.9 3.9-4.6 6.3-8.5 5.6l-14.7-2.6 11.4-64.5 14.7 2.6c3.9.7 6.6 4.3 6.1 8.2-.6 5.5-1.8 14-3.9 25.5" class="st8"/><path d="M191 272.3c-.9 3.7-4.4 6.1-8.1 5.6-8-1-24.2-3.2-53.3-8.3-29.1-5.1-45.2-8.6-53-10.4-3.7-.9-6.1-4.3-5.7-8.1.3-2.7 1.2-8.6 2-13.1.8-4.8 1.7-8.6 2.3-11.4.9-3.8 4.6-6.3 8.5-5.6l105.5 18.6c3.9.7 6.6 4.3 6.1 8.2-.3 2.8-.8 6.5-1.6 10.9-.8 4.6-2 10.7-2.7 13.6" class="st7"/><path d="M82.9 159.9l-11.4 64.5 3.7.7 11.4-64.6-3.7-.6m124.4 21.9l-11.4 64.6 3.7.6 11.3-64.5-3.6-.7" class="st9"/><path d="M214 143.9l-19.4 109.9c-.7 3.9-4.3 6.6-8.2 6.1-11.6-1.4-35.4-4.5-53.7-7.8-18.3-3.2-41.7-8.5-53.1-11.1-3.9-.9-6.3-4.6-5.7-8.5l19.4-109.9L214 143.9" class="st8"/><path d="M196 175.6l-11.5 65.2c-.7 4-4.6 6.7-8.6 6l-82.1-14.5c-4-.7-6.7-4.6-6-8.6l11.5-65.2c.7-4 4.6-6.7 8.6-6L190 167c4 .7 6.7 4.6 6 8.6" class="st7"/><path d="M93.3 122.6l-1.2 6.9c.7.6 1.6 1.1 2.5 1.5 11.4 3.8 37.6 12.4 56.7 15.7 19 3.4 46.6 4.3 58.6 4.6h.2c1 0 1.9-.2 2.7-.5l1.2-6.9-119.2-21-1.5-.3" class="st9"/><path d="M217.9 142c-.9 3.4-3.9 5.7-7.4 5.6-12-.3-39.6-1.3-58.6-4.6-19-3.4-45.3-11.9-56.7-15.7-3.3-1.1-5.4-4.3-5-7.8l4-40.6c.4-4.1 4-7.1 8.1-6.7 8.4.8 25.7 3.1 60.4 9.2s51.8 9.9 59.9 12c4 1 6.4 5.1 5.3 9.1l-10 39.5z" class="st8"/><path d="M155.6 145.1l-8-1.4c-1.4-.3-2.4-1.6-2.1-3l2.2-12.7c.3-1.4 1.6-2.4 3-2.1l8 1.4c1.4.3 2.4 1.6 2.1 3l-2.2 12.7c-.2 1.4-1.5 2.4-3 2.1z" class="st2"/><path d="M152.9 150.5l-4.6-.8c-1.2-.2-2-1.3-1.8-2.5l2.5-14c.2-1.2 1.3-2 2.5-1.8l4.6.8c1.2.2 2 1.3 1.8 2.5l-2.5 14c-.2 1.2-1.3 2-2.5 1.8zm-50.2 31.2l-1.3-.2-3.1 4.1-1.5 8.5c-.3 1.6.7 3.1 2.2 3.5 1.7.4 3.3-.7 3.6-2.4l1.5-8.6-1.4-4.9" class="st2"/><path d="M106.6 152.4c-3.5 0-6.7 2.5-7.3 6.1l-4.8 27.3c.2.1.5.1.7.2l2.9.5.2-1 3.1-4.1 1.3.2 1.5 4.9-.2 1 86.5 15.2c.2 0 .5.1.7.1l4.8-27.3c.1-.4.1-.9.1-1.3 0-3.5-2.5-6.7-6.1-7.3l-82.1-14.5c-.4.1-.9 0-1.3 0" class="st9"/><path fill="#343434" d="M101.3 181.5l-3 4.1-.2 1 5.9 1 .1-1-1.4-4.9-1.4-.2"/><path d="M95.8 182.4c-2-.4-3.4-2.3-3-4.3l3.5-20c1-5.7 6.4-9.4 12.1-8.4l82.1 14.5c5.7 1 9.4 6.4 8.4 12.1l-3.5 20c-.4 2-2.3 3.4-4.3 3l-95.3-16.9z" class="st7"/></svg>