<svg xmlns="http://www.w3.org/2000/svg" xmlns:xlink="http://www.w3.org/1999/xlink" width="75" height="75"><defs><path id="a" d="M0 0h75v75H0z"/></defs><g fill="none" fill-rule="evenodd"><mask id="b" fill="#fff"><use xlink:href="#a"/></mask><path fill="#f16165" d="M37.5 65.345c-15.364 0-27.845-12.453-27.845-27.845S22.136 9.655 37.5 9.655c15.364 0 27.845 12.453 27.845 27.845S52.864 65.345 37.5 65.345M37.5 0C16.791 0 0 16.79 0 37.5 0 58.209 16.791 75 37.5 75S75 58.209 75 37.5C75 16.79 58.209 0 37.5 0" mask="url(#b)"/><path fill="#F27272" d="M37.5 5.29c-17.743 0-32.21 14.44-32.21 32.182 0 17.743 14.467 32.21 32.21 32.21 17.743 0 32.183-14.44 32.183-32.182 0-17.743-14.44-32.21-32.183-32.21m0 65.232c-18.162 0-33.022-14.776-33.022-33.022 0-18.162 14.776-33.022 33.022-33.022 18.162 0 33.022 14.776 33.022 33.022S55.662 70.522 37.5 70.522"/><path fill="#5CC7E0" d="M60.252 40.914l-1.036.112v-5.653c0-.224-.224-.392-.391-.504l-4.17-.811c-.28-1.036-.7-1.931-1.204-2.855l2.323-3.526c.28-.504.924-1.93.924-3.722l-3.023 1.036-3.638-3.638c-.224-.224-.391-.224-.615-.112l-3.527 2.294c-.923-.503-1.819-.923-2.854-1.203l-.811-4.17c0-.224-.28-.392-.504-.392h-8.172c-.224 0-.392.224-.504.392l-.755 4.114c-1.036.28-1.931.7-2.855 1.203l-3.498-2.294c-.224-.112-.504-.112-.616.112l-3.722 3.722-3.022-1.036c0 1.707.616 3.134.924 3.722l2.322 3.442c-.503.924-.923 1.82-1.203 2.855l-4.17.811c-.224 0-.392.28-.392.504v5.653l-1.035-.084c0 1.092.616 2.63 1.203 3.023.112.112.112.112.224.112l4.17.811c.28 1.035.7 1.931 1.203 2.855l-1.091 1.707-2.127-.224c0 1.091.392 2.015 1.035 2.63l5.765 5.765c.224.224.392.224.616.112l3.526-2.322c.924.503 1.82.923 2.855 1.203l.811 4.17c0 .224.28.391.504.391h8.172c.223 0 .391-.224.503-.391l.812-4.17c1.035-.28 1.93-.7 2.854-1.203l3.526 2.322c.224.112.504.112.616-.112L55.97 51.8c.616-.615 1.036-1.427 1.036-2.63l-2.127.224-1.204-1.707c.504-.924.924-1.82 1.204-2.855l4.17-.811c.112 0 .223-.112.223-.112.392-.364.98-1.903.98-2.995"/><path fill="#73D8F4" d="M60.252 40.914v-8.62c0-.28-.224-.503-.392-.503l-4.337-.812c-.28-1.035-.7-2.015-1.204-2.91l2.407-3.638c.112-.224.112-.504-.112-.7l-6.045-6.044a.57.57 0 0 0-.7-.112l-3.638 2.406a14.519 14.519 0 0 0-2.91-1.203l-.811-4.338c0-.224-.28-.392-.504-.392h-8.564c-.28 0-.504.224-.504.392l-.811 4.338c-1.036.28-2.015.7-2.91 1.203l-3.639-2.406c-.224-.112-.503-.112-.7.112L18.75 23.73a.57.57 0 0 0-.112.7l2.407 3.638a14.525 14.525 0 0 0-1.204 2.91l-4.337.812c-.224 0-.392.28-.392.504v8.62c0 .279.224.503.392.503l4.337.811c.28 1.036.7 2.015 1.204 2.911l-2.407 3.638c-.112.224-.112.504.112.7l6.045 6.044a.57.57 0 0 0 .7.113l3.637-2.407c.924.503 1.931.923 2.91 1.203l.84 4.338c0 .224.28.391.504.391h8.592c.28 0 .503-.223.503-.391l.812-4.338c1.036-.28 2.015-.7 2.91-1.203l3.638 2.407c.225.111.504.111.7-.113l6.045-6.044a.57.57 0 0 0 .112-.7L54.29 45.14c.504-.924.923-1.931 1.203-2.91l4.338-.812c.364 0 .42-.224.42-.504"/><path fill="#5CC7E0" d="M37.752 33.246a3.442 3.442 0 1 1 0 6.885 3.442 3.442 0 0 1 0-6.885"/><path fill="#2DA6BA" d="M34.31 36.688a3.422 3.422 0 0 1 3.442-3.442 3.422 3.422 0 0 1 3.442 3.442v.28c-.112-1.707-1.595-3.134-3.442-3.134-1.82 0-3.246 1.427-3.442 3.134v-.28z"/><path fill="#48ACC3" d="M49.338 36.353v.28c-.224-6.27-5.374-11.307-11.614-11.307-6.353 0-11.53 5.038-11.614 11.306v-.28c0-6.464 5.261-11.613 11.614-11.613 6.352 0 11.614 5.15 11.614 11.614"/><path fill="#B6F0FE" d="M49.338 36.968c0 6.465-5.262 11.614-11.614 11.614-6.353 0-11.698-5.261-11.698-11.614v-.28c.224 6.269 5.373 11.306 11.614 11.306 6.352 0 11.53-5.037 11.614-11.306.084.056.084.168.084.28"/></g></svg>