<svg xmlns="http://www.w3.org/2000/svg" xmlns:xlink="http://www.w3.org/1999/xlink" width="75" height="73"><defs><path id="a" d="M0 0h72.043v72.043H0z"/><path id="c" d="M0 72.043h74.88V0H0z"/><path id="e" d="M14.318.189c-2.096.035-3.81 1.71-3.775 3.698.006 1.586 1.141 2.953 2.46 3.458l.053 6.425-5.577-3.15c.263-1.506-.362-3.009-1.763-3.837-1.805-.96-4.088-.386-5.102 1.392a3.648 3.648 0 0 0 1.418 5.022c.593.346 1.266.478 1.884.476.914-.004 1.773-.33 2.416-.924l5.684 3.149-5.632 3.249c-1.213-.99-2.934-1.118-4.302-.36a3.652 3.652 0 0 0-1.35 5.033c.487.831 1.323 1.446 2.291 1.711.97.238 1.99.127 2.848-.415a3.569 3.569 0 0 0 1.712-2.265 3.73 3.73 0 0 0 .047-1.64l5.497-3.248-.027.027.053 6.344c-1.342.543-2.385 1.892-2.378 3.478.008 2.043 1.762 3.675 3.805 3.64a3.648 3.648 0 0 0 3.641-3.698c-.007-1.586-1.088-2.98-2.595-3.457l-.052-6.236c.16-.028.16-.028.214-.082l5.605 3.122c-.21 1.077.116 2.177.845 3.008.73.83 1.78 1.31 2.882 1.306a3.787 3.787 0 0 0 3.245-1.869c1.095-1.698.468-3.953-1.337-4.967-1.401-.748-3.094-.606-4.3.42l-5.577-3.122v-.108l5.524-3.194a3.824 3.824 0 0 0 2.45.85c.618-.003 1.29-.194 1.88-.492a3.569 3.569 0 0 0 1.71-2.265 3.62 3.62 0 0 0-.414-2.82 3.674 3.674 0 0 0-2.292-1.685c-.968-.238-1.99-.126-2.847.415a3.568 3.568 0 0 0-1.711 2.265 3.727 3.727 0 0 0-.048 1.64l-5.712 3.25h-.108l-.053-6.398c1.476-.544 2.546-1.892 2.54-3.505-.008-2.021-1.62-3.641-3.685-3.642l-.067.001zM23.96 11.01c-.432-.482-.569-1.1-.41-1.611.106-.43.374-.727.723-.944a1.414 1.414 0 0 1 1.181-.14c.431.107.728.348.971.723.217.348.273.752.193 1.182-.105.565-.56 1.024-1.097 1.187a1.44 1.44 0 0 1-.46.075c-.419 0-.825-.178-1.1-.472zm-20.832.273c-.62-.346-.919-1.071-.733-1.717.158-.673.801-1.16 1.528-1.162a1.558 1.558 0 0 1 1.347.747 1.61 1.61 0 0 1 .006 1.559c-.307.492-.824.788-1.368.788-.26 0-.527-.068-.78-.215zm21.258 11.85a1.544 1.544 0 0 1-.786-1.53 1.49 1.49 0 0 1 1.124-1.295c.618-.19 1.29.049 1.669.531a1.5 1.5 0 0 1 .141 1.72c-.307.492-.823.788-1.367.788-.26 0-.528-.068-.781-.215zm-20.752.299c-.619-.159-1.078-.64-1.161-1.286-.083-.618.21-1.21.747-1.535.563-.325 1.235-.3 1.747.1.486.375.73 1.046.571 1.638a1.677 1.677 0 0 1-.721.943 1.438 1.438 0 0 1-.75.211c-.15 0-.296-.023-.433-.071zm9.48 4.45a1.568 1.568 0 0 1 1.554-1.511c.833.023 1.535.666 1.565 1.499a1.56 1.56 0 0 1-1.553 1.565h-.006a1.56 1.56 0 0 1-1.56-1.552z"/><path id="g" d="M.054.134h19.72v10.368H.053z"/></defs><g fill="none" fill-rule="evenodd"><mask id="b" fill="#fff"><use xlink:href="#a"/></mask><path fill="#2d8fe3" d="M36.022 62.769c-14.759 0-26.748-11.962-26.748-26.747S21.264 9.274 36.022 9.274c14.758 0 26.747 11.963 26.747 26.748 0 14.785-11.99 26.747-26.747 26.747m0-62.769C16.129 0 0 16.13 0 36.022s16.129 36.021 36.022 36.021c19.892 0 36.021-16.129 36.021-36.021C72.043 16.129 55.914 0 36.022 0" mask="url(#b)"/><path fill="#22A6E0" d="M13.79 57.554c5.645 5.806 13.522 9.435 22.231 9.435 17.07 0 30.968-13.898 30.968-30.968S53.091 5.054 36.021 5.054 5.054 18.952 5.054 36.02c0 8.36 3.333 15.941 8.736 21.533m22.231 10.161c-17.473 0-31.693-14.22-31.693-31.694 0-17.473 14.22-31.693 31.693-31.693 17.474 0 31.694 14.22 31.694 31.693 0 17.474-14.22 31.694-31.694 31.694"/><path fill="#F4C08E" d="M15.564 9.274h40.914a2.41 2.41 0 0 1 2.42 2.42v44.489a2.41 2.41 0 0 1-2.42 2.42H15.564a2.41 2.41 0 0 1-2.419-2.42v-44.49a2.41 2.41 0 0 1 2.42-2.419"/><path fill="#F4C08E" d="M58.199 9.973l-1.909 1.909H15.753l-1.909-1.909a2.438 2.438 0 0 1 1.72-.699h40.914c.673 0 1.29.269 1.72.7"/><path fill="#EAB78C" d="M15.753 11.882v44.113l-1.909 1.908a2.438 2.438 0 0 1-.699-1.72v-44.49c0-.672.269-1.29.7-1.72l1.908 1.909z"/><path fill="#F4C08E" d="M58.898 11.694v44.489c0 .672-.27 1.263-.7 1.72l-1.908-1.908V11.882l1.91-1.909c.43.43.699 1.049.699 1.72"/><mask id="d" fill="#fff"><use xlink:href="#c"/></mask><path fill="#D7DDDD" d="M15.753 55.995H56.29V11.882H15.753z" mask="url(#d)"/><path fill="#484949" d="M15.753 55.995H56.29V11.882H15.753z" mask="url(#d)"/><path fill="#FFF" d="M39.086 20.484c-.054-.108-.134-.188-.188-.296-.027-.054-.08-.08-.108-.134a2.877 2.877 0 0 0-.51-.484c-.081-.08-.188-.135-.296-.215-.592-.403-1.317-.618-2.097-.618-2.07 0-3.817 1.693-3.79 3.682v.215c.08 1.371.995 2.554 2.123 3.119h.027a4.04 4.04 0 0 0 1.613.35c.43 0 .834-.082 1.21-.189v-.027c1.398-.51 2.446-1.747 2.554-3.226v-.242a4.164 4.164 0 0 0-.538-1.935m8.925 20.672c-.457.726-1.371 1.021-2.15.564a1.544 1.544 0 0 1-.78-1.532 1.49 1.49 0 0 1 1.129-1.29 1.565 1.565 0 0 1 1.666.537 1.5 1.5 0 0 1 .135 1.72m-10.323 5.27a1.56 1.56 0 0 1-3.118 0 1.567 1.567 0 0 1 1.56-1.506c.832.027 1.531.672 1.558 1.506M27.016 40.86a1.676 1.676 0 0 1-.726.941 1.41 1.41 0 0 1-1.182.134c-.619-.16-1.076-.645-1.156-1.29a1.545 1.545 0 0 1 .752-1.532c.565-.323 1.237-.296 1.748.107.484.377.726 1.049.564 1.64m-.215-11.64c-.457.726-1.37 1.022-2.15.565-.619-.35-.915-1.075-.726-1.72a1.62 1.62 0 0 1 1.532-1.156c.564 0 1.075.295 1.344.752a1.608 1.608 0 0 1 0 1.56m18.28-1.237c.107-.43.376-.726.726-.941a1.41 1.41 0 0 1 1.182-.134c.43.107.726.349.968.725.215.35.269.753.188 1.183-.107.565-.564 1.022-1.102 1.183a1.51 1.51 0 0 1-1.559-.403c-.43-.484-.565-1.102-.403-1.613m3.44 9.193c-1.398-.752-3.09-.618-4.3.404l-.565-.323-4.973-2.796v-.107l4.946-2.85.592-.322c.698.564 1.532.86 2.446.86.618 0 1.29-.188 1.881-.484a3.57 3.57 0 0 0 1.72-2.258 3.623 3.623 0 0 0-.402-2.823 3.676 3.676 0 0 0-2.285-1.693c-.968-.242-1.99-.134-2.85.403a3.569 3.569 0 0 0-1.72 2.258 3.46 3.46 0 0 0-.108 1.29c0 .108.027.216.027.323v.027l-.537.296-5.162 2.903h-.108l-.026-5.699c-.376.134-.78.188-1.21.188-.457 0-.914-.08-1.344-.242l.027 5.78-4.973-2.823-.592-.35c0-.026 0-.053.027-.08a3.633 3.633 0 0 0-1.774-3.763 3.614 3.614 0 0 0-1.882-.457c-1.29 0-2.553.645-3.225 1.855a3.648 3.648 0 0 0 1.397 5.026c.592.35 1.264.484 1.882.484.887 0 1.748-.295 2.393-.887 0 0 .027 0 .027-.027l.564.323 5.108 2.85-5.054 2.849-.592.322c-1.21-.994-2.93-1.129-4.3-.376a3.652 3.652 0 0 0-1.372 5.027c.484.833 1.318 1.452 2.285 1.72.968.242 1.99.135 2.85-.403a3.569 3.569 0 0 0 1.72-2.258 4.19 4.19 0 0 0 .108-1.425v-.08c0-.027-.027-.081-.027-.108l.538-.322 4.945-2.904-.026.027.026 6.344c-1.344.538-2.392 1.882-2.392 3.468 0 2.043 1.748 3.683 3.79 3.656a3.648 3.648 0 0 0 3.656-3.683c0-1.505-.967-2.796-2.311-3.36-.08-.027-.189-.08-.27-.108l-.026-6.236c.161-.027.161-.027.215-.08l5 2.795.591.323c-.215 1.075.108 2.177.834 3.01a3.82 3.82 0 0 0 2.876 1.317c1.29 0 2.554-.672 3.253-1.854 1.102-1.667.484-3.925-1.317-4.947" mask="url(#d)"/><path fill="#FFF" d="M48.01 41.156c-.456.726-1.37 1.021-2.15.565a1.544 1.544 0 0 1-.78-1.533 1.49 1.49 0 0 1 1.13-1.29 1.564 1.564 0 0 1 1.666.538 1.5 1.5 0 0 1 .135 1.72m-10.323 5.269a1.56 1.56 0 0 1-3.118 0 1.568 1.568 0 0 1 1.559-1.506c.833.027 1.532.672 1.56 1.506M27.015 40.86a1.676 1.676 0 0 1-.726.941c-.35.215-.806.269-1.183.134-.618-.16-1.075-.645-1.155-1.29a1.545 1.545 0 0 1 .752-1.532c.565-.323 1.237-.296 1.748.107.484.377.725 1.049.564 1.64M26.8 29.22c-.457.726-1.371 1.022-2.15.565-.619-.35-.915-1.075-.726-1.72.16-.673.806-1.156 1.532-1.156.564 0 1.075.295 1.344.752a1.608 1.608 0 0 1 0 1.56m18.28-1.237c.107-.43.376-.726.726-.941a1.41 1.41 0 0 1 1.182-.134c.43.107.726.349.968.725.215.35.269.753.188 1.183-.107.565-.564 1.022-1.102 1.183a1.51 1.51 0 0 1-1.559-.403c-.43-.484-.565-1.102-.403-1.613m3.44 9.193c-1.397-.752-3.091-.618-4.3.404l-5.565-3.146v-.107l5.538-3.172c.698.564 1.532.86 2.446.86.618 0 1.29-.188 1.881-.484a3.57 3.57 0 0 0 1.721-2.258 3.624 3.624 0 0 0-.403-2.822 3.677 3.677 0 0 0-2.285-1.694c-.968-.242-1.99-.134-2.85.403a3.568 3.568 0 0 0-1.72 2.258 3.724 3.724 0 0 0-.054 1.64l-5.726 3.226h-.107l-.027-6.398c1.479-.538 2.554-1.882 2.554-3.495 0-2.043-1.64-3.682-3.737-3.655-2.097.026-3.817 1.693-3.79 3.682 0 1.586 1.129 2.957 2.446 3.468l.027 6.425-5.565-3.172c.27-1.506-.35-3.011-1.747-3.844-1.8-.968-4.086-.404-5.108 1.37a3.648 3.648 0 0 0 1.398 5.027c.592.35 1.264.484 1.882.484.914 0 1.774-.322 2.42-.914l5.672 3.172-5.645 3.226c-1.21-.994-2.93-1.129-4.302-.376a3.651 3.651 0 0 0-1.37 5.027c.483.833 1.316 1.451 2.284 1.72.968.242 1.99.135 2.85-.403a3.569 3.569 0 0 0 1.72-2.258c.134-.51.162-1.075.054-1.64l5.51-3.226-.026.027.027 6.344c-1.345.538-2.393 1.882-2.393 3.468 0 2.043 1.747 3.683 3.79 3.656a3.648 3.648 0 0 0 3.656-3.683c0-1.586-1.075-2.983-2.58-3.468l-.027-6.236c.161-.027.161-.027.215-.08l5.591 3.144c-.215 1.076.108 2.178.834 3.011a3.82 3.82 0 0 0 2.876 1.318c1.29 0 2.554-.672 3.253-1.856 1.102-1.693.484-3.951-1.318-4.973" mask="url(#d)"/><g transform="translate(21.505 18.548)"><mask id="f" fill="#fff"><use xlink:href="#e"/></mask><path fill="#FFF" d="M-3.303-3.207l35.51-.144.156 38.279-35.51.144z" mask="url(#f)"/></g><path fill="#FFF" d="M37.07 25.914v.645c-.376.135-.78.188-1.21.188-.457 0-.914-.08-1.344-.242v-.645c-.107-.027-.188-.08-.296-.134a4.04 4.04 0 0 0 1.613.35c.457.053.86-.028 1.237-.162m.054 16.371v.645a4.226 4.226 0 0 0-1.317-.215c-.404 0-.807.08-1.183.215v-.645a4.198 4.198 0 0 1 1.155-.215c.484 0 .941.054 1.345.215m7.096-4.705c-.349.27-.645.619-.86 1.022-.215.35-.35.753-.43 1.13l-.591-.323c.08-.377.269-.807.457-1.13.242-.403.537-.752.86-1.02l.564.322zm-14.65-8.09c-.08.349-.215.725-.376 1.02-.216.404-.484.78-.807 1.076l-.564-.323c.322-.295.564-.645.78-1.048a3.65 3.65 0 0 0 .375-1.156c0 .027 0 .054-.026.08l.618.35zm14.624 1.693l-.592.322a3.46 3.46 0 0 1-.752-.887 3.843 3.843 0 0 1-.485-1.263l.538-.323c-.027-.107-.027-.215-.027-.322a3.73 3.73 0 0 0 .538 1.559c.188.35.484.645.78.914m-15.027 8.79v-.027l.027.162c-.027-.054-.027-.108-.027-.135m.51-.537l-.537.322.027.161v-.053a3.873 3.873 0 0 0-.511-1.371 4.662 4.662 0 0 0-.753-.86l.592-.323c.268.242.51.538.725.86.215.403.377.833.457 1.264"/><path fill="#EFC889" d="M57.177 18.522a1.08 1.08 0 0 0-1.532-.216l-20.43 15.242A1.08 1.08 0 0 0 35 35.081l22.177-16.56z"/><path fill="#D8A96C" d="M34.973 35.08c.215.296.538.43.887.43.215 0 .457-.08.645-.214l20.457-15.242a1.08 1.08 0 0 0 .215-1.532L34.973 35.08z"/><path fill="#F44E42" d="M67.42 10.914l-12.26 9.113c-.537-5.995 2.097-11.855 6.936-15.457l2.177-1.64c.995-.753 2.42-.107 2.527 1.13l.618 6.854z"/><g transform="translate(55.108 10.753)"><mask id="h" fill="#fff"><use xlink:href="#g"/></mask><path fill="#D84744" d="M16.855 7.07l2.285-1.72c.994-.753.78-2.312-.377-2.77L12.312.135.054 9.247l.269.108A17.29 17.29 0 0 0 16.855 7.07" mask="url(#h)"/></g></g></svg>