<svg version="1" xmlns="http://www.w3.org/2000/svg" viewBox="0 0 300 300"><circle fill="#00BF5F" cx="150" cy="154.873" r="145.127"/><path fill="#915093" d="M252.742 107.534c-3.114 17.638-7.662 35.252-13.27 51.228-5.615 15.983-12.258 30.311-19.693 41.44-4.972 7.419-10.289 13.442-16.124 17.544-2.047 1.427-4.871.933-6.298-1.114a4.517 4.517 0 0 1 1.106-6.297c4.509-3.145 9.254-8.352 13.795-15.16 4.557-6.807 8.933-15.183 12.948-24.586 8.031-18.822 14.595-41.746 18.626-64.622 2.635-14.956 4.196-29.903 4.423-43.667.188-11.238-.533-21.685-2.235-30.657a83.089 83.089 0 0 0-1.294-5.827c-1.741-6.76-4.156-12.415-7.121-16.642a4.527 4.527 0 0 1 1.114-6.297 4.524 4.524 0 0 1 6.297 1.114c3.788 5.419 6.517 12.054 8.462 19.559l.212.847c1.819 7.293 2.894 15.41 3.364 24.092.966 18.036-.705 38.544-4.312 59.045z"/><path fill="#EFC100" d="M162.6 95.802c-6.917 4.839-11.662 9.348-14.791 13.521-.384.51-.745 1.019-1.09 1.529-2.416 3.592-3.694 6.933-4.29 10.282-.596 3.372-.478 6.815.149 10.517.635 3.694 1.78 7.623 3.168 11.811 2.768 8.384 6.493 17.803 8.243 28.751 1.161 7.301 1.411 15.293-.126 24.014a4.514 4.514 0 0 1-5.239 3.662 4.52 4.52 0 0 1-3.67-5.239c2.008-11.426.549-21.245-1.984-30.5-2.525-9.246-6.219-17.818-8.384-26.57-1.427-5.835-2.157-11.827-1.066-18.022.918-5.239 3.168-10.509 7.058-15.669.016-.023.031-.039.047-.063 3.882-5.145 9.348-10.219 16.791-15.434a4.519 4.519 0 0 1 6.298 1.114 4.525 4.525 0 0 1-1.114 6.296z"/><path fill="#FAC900" d="M196.213 230.432c-2.851-4.069-4.882-9.113-6.177-15.029-1.951-8.864-2.196-19.637-1.324-31.45.868-11.815 2.829-24.669 5.143-37.781 2.172-12.317 4.648-24.864 6.797-37.055 2.827-16.053 5.099-31.464 5.301-45.065.096-6.802-.322-13.161-1.515-18.962-1.196-5.795-3.172-11.06-6.289-15.519-3.715-5.308-7.934-9.342-12.399-12.235-4.463-2.894-9.16-4.637-13.766-5.447-8.808-1.54-17.193.227-23.718 3.483-3.268 1.638-6.089 3.654-8.313 5.971-2.201 2.322-3.891 4.965-4.464 8.098a4.522 4.522 0 1 0 8.907 1.571c.095-.667.719-2 2.095-3.417 2.031-2.144 5.556-4.393 9.791-5.757 4.242-1.38 9.164-1.921 14.131-1.041 3.476.615 6.987 1.907 10.418 4.129 3.431 2.225 6.795 5.387 9.909 9.833 2.214 3.158 3.827 7.229 4.84 12.154 1.529 7.381 1.668 16.612.842 26.947-.817 10.336-2.574 21.777-4.674 33.686-2.128 12.067-4.606 24.618-6.799 37.054-3.109 17.667-5.662 35.089-5.758 50.733-.044 7.825.527 15.219 2.011 22.006 1.486 6.779 3.896 12.983 7.604 18.281a4.523 4.523 0 0 0 7.409-5.187l-.002-.001"/><path fill="#AB67A9" d="M184.203 207.821c-2.708-3.865-4.939-8.748-6.622-14.399-2.532-8.478-3.83-18.666-3.957-29.577-.132-10.911.894-22.549 2.908-33.973 3.595-20.465 10.431-40.267 19.117-53.982 4.325-6.862 9.105-12.161 13.905-15.353 2.401-1.602 4.791-2.688 7.173-3.274a17.426 17.426 0 0 1 7.278-.243c3.43.607 7.16 2.255 11.216 5.404 4.05 3.14 8.383 7.778 12.85 14.16a4.522 4.522 0 0 0 7.407-5.187c-4.858-6.935-9.739-12.254-14.711-16.118-4.963-3.858-10.065-6.261-15.193-7.164a26.47 26.47 0 0 0-11.006.367c-6.216 1.532-11.797 5.163-16.758 10.09-7.443 7.413-13.662 17.831-18.746 29.896-5.07 12.065-8.961 25.794-11.438 39.834-2.806 15.921-3.793 32.229-2.49 46.975.652 7.373 1.88 14.36 3.779 20.729 1.901 6.366 4.469 12.125 7.879 17.001a4.526 4.526 0 0 0 6.299 1.111 4.523 4.523 0 0 0 1.11-6.297"/><path fill="#AB67A9" d="M256.883 148.946c-1.118 1.345-3.277.47-3.172-1.277 2.425-39.592-43.116-62.445-19.522-78.965 8.803-6.182 21.969.089 27.811 8.208l.117-.033a28.633 28.633 0 0 1 4.03-.466c5.139-.287 13.632.495 18.563 7.535 10.97 15.691-17.219 52.229-27.827 64.998z"/><path fill="#E5B900" d="M162.6 95.802c-6.917 4.839-11.662 9.348-14.791 13.521-.384.51-.745 1.019-1.09 1.529-2.62-2.133-4.784-4.462-6.094-7.027 3.882-5.145 9.348-10.219 16.791-15.434a4.519 4.519 0 0 1 6.298 1.114 4.526 4.526 0 0 1-1.114 6.297z"/><path fill="#EFC100" d="M184.372 127.381c-.151 1.589-2.093 2.183-3.17 1.003-10.521-11.792-44.522-19.165-36.871-34.53 3.899-7.852 13.131-9.164 19.464-7.167.609.201 1.192.433 1.755.679 0 0 1.269-1.154 4.045-1.07 1.63.031 3.771.482 6.489 1.842 10.196 5.086 9.259 28.632 8.288 39.243z"/><path fill="#FAC900" d="M114.223 64.393c-1.27 1.06-3.167-.063-2.916-1.691 2.048-12.55 8.031-40.754 20.73-42.151 1.819-.214 3.302-.08 4.468.182a8.287 8.287 0 0 1 1.547.492c1.184.467 1.852 1.062 2.117 1.329l.138.153a20.633 20.633 0 0 1 3.174-1.021c7.597-1.839 17.151.233 18.414 11.715 1.741 15.753-34.075 19.816-47.672 30.992z"/><path fill="#864989" d="M253.691 24.395c-2.055 2.517-4.698 4.917-7.67 7.246a83.089 83.089 0 0 0-1.294-5.827c-1.741-6.76-4.156-12.415-7.121-16.642a4.527 4.527 0 0 1 1.114-6.297 4.524 4.524 0 0 1 6.297 1.114c3.788 5.419 6.517 12.054 8.462 19.559l.212.847z"/><path fill="#959" d="M210.835 53.125c-1.105 1.384-3.325.626-3.416-1.135-.644-13.541-.665-44.253 12.27-48.548 2.417-.786 4.343-.888 5.785-.725.377.049.734.111 1.051.185 1.501.338 2.258.949 2.258.949l-.024.033a20.755 20.755 0 0 1 3.147-1.815l.063-.044c.201-.092.421-.2.637-.273 7.459-3.239 17.339-2.819 21.079 8.473 5.304 16.053-31.151 28.23-42.85 42.9zm53.282 80.952a1.801 1.801 0 0 1-1.998 1.117l-.35-.098a1.815 1.815 0 0 1-1.019-2.348c9.506-24.018 9.944-43.575 1.367-55.869a28.633 28.633 0 0 1 4.03-.466c8.186 13.364 7.546 33.454-2.03 57.664z"/><path fill="#864789" d="M232.605 1.752c-5.425 4.83-11.466 14.602-14.363 29.995a1.823 1.823 0 0 1-2.092 1.45l-.017-.003a1.802 1.802 0 0 1-1.447-2.11c2.456-12.992 7.006-22.238 11.839-28.182 1.501.338 2.258.949 2.258.949l-.024.033a20.755 20.755 0 0 1 3.147-1.815l.063-.044c.2-.091.42-.2.636-.273z"/><path fill="#E0A500" d="M180.615 114.633a1.324 1.324 0 0 1-.477-.011 1.831 1.831 0 0 1-1.498-1.606c-.746-7.753-4.547-17.129-10.058-22.748-.237-.225-.468-.466-.708-.675-1.276-1.199-2.643-2.193-4.079-2.906.609.201 1.192.433 1.755.679 0 0 1.269-1.154 4.045-1.07 7.015 6.049 11.756 17.078 12.652 26.366a1.785 1.785 0 0 1-1.632 1.971z"/><path fill="#E5AE00" d="M143.481 21.687a7.057 7.057 0 0 0-.608.426 69.771 69.771 0 0 0-4.382 3.398c-6.022 4.979-10.502 10.287-13.369 15.825a1.798 1.798 0 0 1-1.914.949 1.408 1.408 0 0 1-.517-.183 1.804 1.804 0 0 1-.783-2.434c3.391-6.528 8.796-12.703 16.144-18.442 1.184.467 1.852 1.062 2.117 1.329l.138.153a20.813 20.813 0 0 1 3.174-1.021z"/><path fill="#E0E0E0" d="M250.717 207.333c-.092-.406-1.039-.921-2.548-1.374-5.5-1.652-21.987-5.963-64.511-13.461-42.525-7.498-59.491-9.086-65.225-9.415-1.573-.091-2.639.069-2.864.42-.974 1.512-3.789 6.48-5.383 15.524-1.582 8.97-.663 14.912-.259 16.839.096.455 1.267 1.044 3.058 1.528 1.711.462 4.316 1.122 8.126 1.999a364.751 364.751 0 0 0-2.206 11.385c-2.111 11.97-3.58 29.159-4.308 36.726-.169 1.789.541 3.493 1.882 4.428.198.127.393.272.623.423 4.975 3.246 18.077 9.56 49.802 15.154 33.132 5.842 47.453 3.996 52.712 2.609 1.58-.419 2.83-1.778 3.283-3.517 1.886-7.363 6.402-24.015 8.513-35.985.464-2.632 1.21-7.12 1.821-11.452 3.881.48 6.554.75 8.321.901 1.849.158 3.15.006 3.396-.389 1.038-1.672 3.934-6.942 5.516-15.912 1.595-9.046.649-14.677.251-16.431z"/><path fill="#EFB000" d="M231.411 250.615c-2.111 11.97-6.627 28.622-8.513 35.985-.454 1.739-1.703 3.098-3.283 3.517-5.259 1.387-19.579 3.233-52.711-2.609-33.132-5.842-45.958-12.475-50.425-15.577-1.341-.934-2.051-2.639-1.882-4.428.728-7.567 2.198-24.756 4.308-36.726.725-4.111 2.357-12.744 3.755-18.063.422-1.56 1.486-2.805 2.901-3.327 5.097-1.93 19.88-5.145 54.936 1.036 35.056 6.181 47.829 14.256 51.977 17.816 1.151.974 1.725 2.508 1.588 4.118-.507 5.476-1.926 14.148-2.651 18.258z"/><path fill="#E0E0E0" d="M231.411 250.615c-2.111 11.97-6.627 28.622-8.513 35.985-.454 1.739-1.703 3.098-3.283 3.517-5.259 1.387-19.579 3.233-52.711-2.609-31.725-5.594-44.827-11.909-49.802-15.154-.23-.151-.425-.296-.623-.423-1.341-.934-2.051-2.639-1.882-4.428.728-7.567 2.198-24.756 4.308-36.726.726-4.115 2.356-12.735 3.756-18.072.419-1.542 1.486-2.805 2.901-3.327 5.097-1.93 19.88-5.145 54.936 1.036 22.32 3.936 35.612 8.649 43.388 12.463 4.449 2.162 7.09 4.06 8.589 5.353 1.151.974 1.722 2.526 1.588 4.118-.51 5.494-1.926 14.152-2.652 18.267z"/><path fill="#EAEAEA" d="M218.844 244.985a1068.422 1068.422 0 0 1-3.283 13.472c-2.648 10.55-11.736 18.272-22.587 19.036-14.028.988-37.625.556-75.871-5.139-.23-.151-.425-.296-.623-.423-1.341-.934-2.051-2.639-1.882-4.428.728-7.567 2.198-24.756 4.308-36.726.726-4.115 2.356-12.735 3.756-18.072.419-1.542 1.486-2.805 2.901-3.327 5.097-1.93 19.88-5.145 54.936 1.036 7.812 1.377 14.518 2.85 20.269 4.346 13.229 3.442 21.23 16.923 18.076 30.225z"/><path fill="#EFEFEF" d="M121.951 215.598l-.015.066.015-.066m112.095 16.921a.29.29 0 0 0-.004.031l.004-.031m-50.934-21.634c20.754 3.837 33.308 8.33 40.774 11.993.643.313 1.249.619 1.818.92-7.189-3.817-20.052-8.747-42.592-12.913m-.291-.053l.232.043a18.874 18.874 0 0 0-.232-.043m-.435-.08l.409.075-.409-.075m-.313-.057l.151.028-.151-.028m-.768-.138l.041.007-.041-.007m-.431-.077l.024.004.053.009-.077-.013"/><path fill="#D2D2D2" d="M200.766 214.76c13.04 3.393 21.001 16.537 18.206 29.65 5.387.79 9.717 1.372 13.178 1.798.702-4.282 1.519-9.732 1.892-13.658a8.922 8.922 0 0 1 .02-.201c.135-1.592-.436-3.145-1.587-4.118-1.288-1.106-3.409-2.648-6.771-4.433-.569-.3-1.174-.607-1.818-.92"/><path fill="#DBDBDB" d="M121.966 215.536l-.015.062-.015.066c-.792 3.414-1.594 7.42-2.218 10.719 9.829 2.266 26.93 5.796 56.036 10.928 19.035 3.356 33.02 5.602 43.219 7.099.657-3.081.719-6.164.262-9.122 0 0-97.046-20.71-97.269-19.752z"/><path fill="#E0E0E0" d="M176.994 230.292c41.305 7.283 58.403 9.244 64.559 9.772 1.849.159 3.151.006 3.396-.39 1.038-1.672 3.934-6.941 5.516-15.911 1.595-9.045.649-14.676.251-16.429-.092-.407-1.039-.921-2.548-1.375-5.5-1.651-21.986-5.962-64.511-13.46s-59.491-9.086-65.224-9.416c-1.573-.09-2.638.069-2.864.42-.973 1.511-3.789 6.48-5.383 15.524-1.582 8.97-.663 14.912-.259 16.838.096.456 1.267 1.044 3.058 1.528 5.966 1.611 22.704 5.616 64.009 12.899z"/><path fill="#EAEAEA" d="M227.274 218.598l-.085.342c-1.753 7.027-7.827 12.171-15.057 12.596-9.363.551-25.138.07-50.787-4.058l-.143-.025c-2.482-.401-5.05-.836-7.722-1.307-9.922-1.749-18.425-3.524-25.721-5.27-.039.012-.057.009-.089-.016-6.929-1.644-12.761-3.26-17.633-4.799l-.085-.088c-.379-1.794-1.39-7.785.226-16.95 1.596-9.049 4.417-14.006 5.4-15.522.209-.349 1.284-.509 2.847-.416 5.745.333 22.713 1.911 65.232 9.408 12.281 2.166 22.387 4.064 30.686 5.713 9.343 1.856 15.231 11.15 12.931 20.392z"/></svg>