<?xml version="1.0" encoding="utf-8"?>
<!-- Generator: Adobe Illustrator 22.0.1, SVG Export Plug-In . SVG Version: 6.00 Build 0)  -->
<svg version="1.1" id="Layer_1" xmlns="http://www.w3.org/2000/svg" xmlns:xlink="http://www.w3.org/1999/xlink" x="0px" y="0px"
	 viewBox="0 0 300 300" style="enable-background:new 0 0 300 300;" xml:space="preserve">
<style type="text/css">
	.st0{fill:#008DD3;}
	.st1{fill:#FCD206;}
	.st2{fill:#FBC129;}
	.st3{fill:#EF524F;}
	.st4{fill:#EF3030;}
	.st5{fill:#F2F2F2;}
	.st6{fill:#E8C200;}
	.st7{opacity:0.1;fill:#282828;}
</style>
<g>
	<circle class="st0" cx="145.1" cy="150" r="144.8"/>
	<g>
		<path class="st1" d="M299.7,166.1c0,0.2,0,0.4,0,0.6v0.1c0,0.2,0,0.4,0,0.6c0,0.2,0,0.4-0.1,0.6c0,0.2,0,0.4-0.1,0.6
			c0,0.2-0.1,0.3-0.1,0.5c0,0.2-0.1,0.3-0.1,0.5c0,0.1-0.1,0.3-0.1,0.4c-0.1,0.2-0.2,0.5-0.3,0.7c-0.1,0.2-0.2,0.4-0.3,0.7
			c0,0,0,0.1,0,0.1h0c-0.1,0.2-0.2,0.4-0.3,0.6c0,0,0,0.1-0.1,0.1c0,0,0,0,0,0.1c-0.1,0.1-0.1,0.2-0.1,0.3c0,0.1-0.1,0.2-0.1,0.2
			c0,0.1-0.1,0.1-0.1,0.2c-0.1,0.2-0.2,0.3-0.3,0.5c0,0.1-0.1,0.1-0.1,0.2h0c0,0,0,0.1-0.1,0.1c-0.1,0.1-0.1,0.2-0.2,0.3
			c0,0,0,0,0,0.1c0,0.1-0.1,0.2-0.2,0.2c0,0,0,0,0,0.1h0c0,0.1-0.1,0.2-0.2,0.2c-0.1,0.2-0.2,0.3-0.3,0.5c0,0,0,0-0.1,0.1
			c-0.1,0.1-0.1,0.2-0.2,0.3c-0.1,0.1-0.2,0.3-0.3,0.4h0c0,0.1-0.1,0.2-0.2,0.2h0c-0.1,0.2-0.3,0.3-0.4,0.5h0c0,0.1-0.1,0.1-0.2,0.2
			c-0.2,0.2-0.4,0.5-0.6,0.7c-0.2,0.2-0.4,0.4-0.6,0.6c0,0-0.1,0.1-0.1,0.1c-0.2,0.2-0.3,0.3-0.5,0.5h0c0,0-0.1,0.1-0.1,0.1
			c0,0,0,0,0,0c0,0,0,0,0,0c-0.2,0.2-0.5,0.5-0.7,0.7c0,0,0,0,0,0c-0.2,0.2-0.5,0.5-0.7,0.7h0c0,0,0,0-0.1,0.1
			c-0.2,0.2-0.4,0.4-0.6,0.6h0c0,0-0.1,0-0.1,0.1c0,0,0,0,0,0c0,0-0.1,0.1-0.1,0.1c0,0,0,0,0,0c-0.1,0.1-0.2,0.2-0.3,0.3
			c-0.1,0.1-0.2,0.2-0.3,0.3c-0.1,0-0.1,0.1-0.2,0.2c-0.2,0.2-0.4,0.4-0.6,0.5c0,0,0,0,0,0c-0.1,0.1-0.2,0.1-0.3,0.2
			c-0.1,0-0.1,0.1-0.2,0.1c-0.1,0.1-0.3,0.2-0.4,0.3c-0.1,0.1-0.2,0.2-0.3,0.3c-0.2,0.1-0.3,0.3-0.5,0.4h0c-0.2,0.2-0.5,0.4-0.8,0.6
			c0,0-0.1,0.1-0.2,0.1c-0.2,0.1-0.3,0.3-0.5,0.4c-0.2,0.1-0.4,0.3-0.6,0.4c-0.2,0.1-0.3,0.2-0.5,0.4c0,0,0,0,0,0
			c-0.1,0.1-0.2,0.2-0.3,0.3c-0.2,0.1-0.3,0.2-0.5,0.4c-0.1,0-0.1,0.1-0.2,0.2c0,0,0,0,0,0c-0.1,0.1-0.2,0.1-0.3,0.2
			c-0.3,0.2-0.5,0.4-0.8,0.6c-0.1,0.1-0.1,0.1-0.2,0.2h0c-0.3,0.2-0.6,0.4-0.9,0.6c0,0-0.1,0.1-0.1,0.1c0,0,0,0,0,0
			c-0.3,0.2-0.7,0.5-1,0.7c0,0,0,0,0,0c0,0,0,0,0,0c-0.2,0.2-0.5,0.3-0.7,0.5c-0.5,0.3-1,0.6-1.5,1c0,0,0,0,0,0c0,0-0.1,0.1-0.1,0.1
			c-0.1,0.1-0.3,0.2-0.4,0.2c-0.2,0.1-0.4,0.3-0.6,0.4c-0.1,0-0.1,0.1-0.2,0.1c-0.3,0.2-0.6,0.4-0.9,0.6c-0.1,0.1-0.2,0.1-0.3,0.2
			c-0.4,0.3-0.9,0.5-1.3,0.8c-0.3,0.2-0.5,0.3-0.8,0.5c-0.6,0.3-1.2,0.7-1.8,1.1c-0.5,0.3-1,0.6-1.5,0.8c-0.3,0.2-0.6,0.3-0.9,0.5
			c-0.3,0.1-0.5,0.3-0.8,0.4c-0.2,0.1-0.4,0.2-0.5,0.3c-0.3,0.1-0.5,0.3-0.8,0.4c-0.7,0.4-1.4,0.8-2.2,1.2c-0.1,0.1-0.3,0.2-0.5,0.2
			c-0.1,0.1-0.3,0.2-0.4,0.2c-0.6,0.3-1.3,0.7-2,1c-2,1-4,2-6.1,3.1c-0.4,0.2-0.8,0.4-1.2,0.6c0,0,0,0,0,0c-0.3,0.1-0.6,0.3-0.9,0.4
			c-0.7,0.3-1.3,0.6-2,0.9c0,0-0.1,0-0.1,0.1c-1.9,0.9-3.8,1.8-5.8,2.6c-0.5,0.2-1,0.4-1.5,0.7c-0.5,0.2-1,0.4-1.5,0.7
			c-0.5,0.2-1,0.4-1.5,0.7c-0.5,0.2-1,0.4-1.5,0.7c0,0,0,0,0,0c-2,0.9-4.1,1.7-6.2,2.6c-0.5,0.2-1,0.4-1.6,0.6
			c-0.5,0.2-1,0.4-1.6,0.6c0,0,0,0,0,0c-0.5,0.2-1,0.4-1.6,0.6c-2.6,1-5.3,2-7.9,3c-0.5,0.2-1.1,0.4-1.6,0.6
			c-1.1,0.4-2.1,0.8-3.2,1.2c-0.3,0.1-0.5,0.2-0.8,0.3c-0.3,0.1-0.6,0.2-0.8,0.3c-0.5,0.2-1.1,0.4-1.6,0.6c-1.5,0.5-3,1.1-4.5,1.6
			c-0.1,0-0.2,0.1-0.2,0.1c-0.5,0.2-1,0.4-1.6,0.5c-0.5,0.2-1,0.4-1.6,0.5c-1,0.3-2.1,0.7-3.1,1c-0.5,0.2-1,0.3-1.5,0.5h0
			c-0.5,0.2-1,0.3-1.5,0.5c0,0,0,0,0,0c-0.6,0.2-1.2,0.4-1.8,0.6c-1.4,0.5-2.9,0.9-4.3,1.3c0,0-0.1,0-0.1,0
			c-0.5,0.1-0.9,0.3-1.4,0.4c-0.5,0.2-1,0.3-1.5,0.4h0c-0.5,0.2-1,0.3-1.5,0.4c-0.5,0.1-1,0.3-1.5,0.4c0,0,0,0,0,0
			c-0.5,0.1-1,0.3-1.5,0.4c-0.5,0.1-1,0.3-1.5,0.4c-0.5,0.1-1,0.3-1.4,0.4c-0.2,0-0.4,0.1-0.6,0.2c-0.3,0.1-0.6,0.2-0.9,0.2
			c-0.4,0.1-0.8,0.2-1.2,0.3c-0.1,0-0.1,0-0.2,0.1c-2,0.5-4,1.1-5.9,1.5c-0.7,0.2-1.3,0.3-2,0.5c-0.6,0.2-1.3,0.3-1.9,0.5
			c-1.2,0.3-2.4,0.6-3.6,0.8c-4.3,1-8.3,1.7-11.8,2.2c-0.2,0-0.5,0.1-0.7,0.1c0,0,0,0,0,0c-0.3,0-0.5,0.1-0.8,0.1
			c-0.1,0-0.1,0-0.2,0c-1.4,0.2-2.7,0.3-3.9,0.4c-0.4,0-0.7,0.1-1.1,0.1c-0.4,0-0.9,0.1-1.3,0.1c-0.2,0-0.3,0-0.5,0
			c-0.6,0-1.2,0-1.8,0c-2.2,0-4-0.2-5.2-0.7c0,0-0.1,0-0.1-0.1c-0.1,0-0.2-0.1-0.3-0.1c0,0-0.1,0-0.1,0c-0.1-0.1-0.3-0.1-0.4-0.2
			c-0.1,0-0.2-0.1-0.3-0.1c-0.1-0.1-0.3-0.1-0.4-0.2c-0.2-0.1-0.4-0.2-0.6-0.3c0,0,0,0,0,0c-0.5-0.3-1-0.7-1.5-1.1c0,0,0,0,0,0
			c-0.2-0.1-0.3-0.3-0.5-0.4c-0.1-0.1-0.3-0.2-0.4-0.4c-0.9-0.8-1.8-1.6-2.8-2.6c-0.4-0.4-0.8-0.8-1.3-1.3c-0.9-0.9-1.8-1.9-2.8-3
			c-0.2-0.3-0.5-0.6-0.7-0.9c-0.2-0.2-0.4-0.5-0.6-0.7c0,0,0,0,0,0c-0.4-0.4-0.7-0.8-1.1-1.3c-0.1-0.1-0.2-0.3-0.3-0.4
			c-0.2-0.2-0.4-0.4-0.6-0.7c-0.3-0.4-0.6-0.7-0.9-1.1c0,0,0,0,0,0c-0.3-0.4-0.6-0.7-0.9-1.1c-0.2-0.2-0.4-0.5-0.6-0.7
			c-0.4-0.5-0.8-1.1-1.3-1.6c0-0.1-0.1-0.1-0.1-0.2c0,0-0.1-0.1-0.1-0.1c0,0,0,0,0,0c-0.5-0.6-1-1.3-1.5-1.9
			c-0.1-0.1-0.1-0.2-0.2-0.2c-0.1-0.1-0.1-0.2-0.2-0.3c-0.2-0.2-0.3-0.4-0.5-0.6c0,0,0,0,0,0c-0.1-0.1-0.2-0.2-0.3-0.4
			c-0.2-0.2-0.3-0.5-0.5-0.7c-0.2-0.2-0.3-0.4-0.5-0.6c-0.3-0.4-0.7-0.9-1-1.4c-0.1-0.1-0.1-0.2-0.2-0.2c-0.2-0.3-0.4-0.5-0.6-0.8
			c-0.4-0.6-0.9-1.2-1.3-1.8c-0.5-0.6-0.9-1.3-1.4-1.9c0,0-0.1-0.1-0.1-0.1c-0.1-0.2-0.3-0.4-0.4-0.6h0c-3.8-5.5-7.8-11.5-11.7-17.8
			c-0.1-0.2-0.3-0.4-0.4-0.7c-0.7-1.1-1.3-2.2-2-3.3c-0.6-0.9-1.1-1.8-1.6-2.7c-1.6-2.7-3.2-5.4-4.8-8.1
			c-20.4-35-37.7-74.7-31.9-90.6c3.9-10.7,58.1-47.9,70.2-53.6c11.8-5.5,52.4,10.6,77.8,19.8c23,8.4,59.2,20.5,69.9,31.5
			c0.7,0.7,1.3,1.4,1.7,2.1c0,0.1,0.1,0.1,0.1,0.2c0,0,0,0,0,0.1c0.1,0.2,0.2,0.3,0.3,0.5c0,0,0,0,0,0c0.1,0.2,0.2,0.3,0.3,0.5v0
			c0.1,0.2,0.2,0.3,0.2,0.5v0c0.1,0.2,0.2,0.4,0.3,0.6v0c0.1,0.2,0.2,0.4,0.3,0.6c0,0,0,0,0,0c0.1,0.1,0.1,0.3,0.2,0.4
			c0,0.1,0.1,0.2,0.1,0.3c0,0,0,0,0,0c0.1,0.3,0.2,0.5,0.3,0.8c0,0,0,0,0,0c0.1,0.3,0.2,0.5,0.3,0.8c0.4,1.1,0.9,2.4,1.3,3.8
			c0.1,0.3,0.2,0.7,0.4,1.1c0,0,0,0,0,0c0.1,0.4,0.2,0.7,0.4,1.1c0.1,0.2,0.1,0.4,0.2,0.6c0.1,0.2,0.1,0.4,0.2,0.6
			c0.1,0.2,0.1,0.4,0.2,0.6c0.2,0.6,0.4,1.2,0.6,1.8c0.1,0.3,0.2,0.6,0.3,1c0,0.1,0.1,0.2,0.1,0.3c0.2,0.6,0.3,1.1,0.5,1.7
			c0.3,1,0.6,2.1,1,3.2c0.5,1.7,1,3.4,1.5,5.1c0.2,0.8,0.5,1.7,0.7,2.5c0.2,0.6,0.4,1.3,0.5,1.9c0.2,0.7,0.4,1.5,0.6,2.2
			c0.3,1.3,0.7,2.6,1.1,3.9c0.2,0.7,0.4,1.4,0.5,2.1c0.2,0.7,0.4,1.5,0.6,2.2c0.1,0.5,0.3,1,0.4,1.6c0.2,0.8,0.4,1.7,0.6,2.5
			c0.1,0.4,0.2,0.8,0.3,1.2c0.2,0.8,0.4,1.7,0.6,2.5l0,0c0,0,0,0,0,0c0.1,0.3,0.1,0.6,0.2,0.8c0.2,0.6,0.3,1.3,0.5,1.9
			c0,0.2,0.1,0.5,0.2,0.7c0.5,2.4,1.1,4.7,1.5,7c0,0.2,0.1,0.4,0.1,0.6C298.5,152.2,299.8,160.8,299.7,166.1z"/>
	</g>
	<g>
		<path class="st2" d="M299.7,166.1c0,0.5,0,0.9-0.1,1.3c0,0.2,0,0.4-0.1,0.6c0,0.4-0.1,0.7-0.2,1.1c-0.1,0.3-0.2,0.6-0.3,0.9
			c-0.1,0.2-0.2,0.5-0.3,0.7c-0.1,0.2-0.2,0.4-0.3,0.7c0,0,0,0.1,0,0.1c0,0,0,0,0,0c-0.1,0.2-0.2,0.4-0.3,0.6c0,0,0,0.1-0.1,0.1
			c-0.1,0.1-0.1,0.2-0.2,0.3h0c0,0.1-0.1,0.2-0.1,0.2c0,0.1-0.1,0.1-0.1,0.2c-0.1,0.2-0.2,0.3-0.3,0.5c0,0.1-0.1,0.1-0.1,0.2
			c0,0,0,0.1-0.1,0.1c-0.1,0.1-0.1,0.2-0.2,0.3c0,0,0,0,0,0.1c-0.1,0.1-0.1,0.2-0.2,0.2c0,0,0,0,0,0.1c-0.1,0.1-0.2,0.3-0.3,0.4
			c-0.1,0.1-0.2,0.2-0.3,0.4c-0.2,0.2-0.4,0.5-0.6,0.7c-0.1,0.1-0.1,0.2-0.2,0.2c-0.1,0.2-0.3,0.3-0.4,0.5c-0.3,0.3-0.5,0.6-0.8,0.9
			c-0.2,0.2-0.4,0.4-0.5,0.6h0c0,0-0.1,0.1-0.1,0.1c-0.2,0.2-0.3,0.3-0.5,0.5c0,0-0.1,0.1-0.1,0.1c0,0,0,0,0,0c0,0,0,0,0,0
			c-0.2,0.2-0.5,0.5-0.7,0.7c0,0,0,0,0,0h0c-0.2,0.2-0.5,0.5-0.7,0.7h0c0,0,0,0-0.1,0.1c0,0,0,0,0,0c-0.2,0.2-0.4,0.4-0.6,0.6
			c0,0-0.1,0-0.1,0.1c0,0,0,0,0,0c0,0-0.1,0.1-0.1,0.1c-0.1,0.1-0.2,0.2-0.3,0.3c-0.1,0.1-0.2,0.2-0.3,0.3c-0.1,0-0.1,0.1-0.2,0.2h0
			c-0.2,0.2-0.4,0.4-0.6,0.5c0,0,0,0,0,0c-0.1,0.1-0.2,0.1-0.3,0.2h0c-0.1,0.1-0.1,0.1-0.2,0.1c-0.1,0.1-0.3,0.2-0.4,0.3
			c-0.1,0.1-0.2,0.2-0.3,0.3c0,0,0,0,0,0c-0.2,0.1-0.3,0.3-0.5,0.4h0c-0.2,0.2-0.5,0.4-0.8,0.6c0,0-0.1,0.1-0.2,0.1
			c-0.2,0.1-0.3,0.3-0.5,0.4c-0.2,0.1-0.4,0.3-0.6,0.4c-0.2,0.1-0.3,0.2-0.5,0.4c-0.1,0.1-0.2,0.2-0.3,0.3c-0.2,0.1-0.3,0.2-0.5,0.4
			c-0.1,0-0.1,0.1-0.2,0.2c0,0,0,0,0,0c-0.1,0.1-0.2,0.1-0.3,0.2c-0.3,0.2-0.5,0.4-0.8,0.6c0,0,0,0,0,0c-0.1,0.1-0.1,0.1-0.2,0.2h0
			c-0.3,0.2-0.6,0.4-0.9,0.6h0c0,0-0.1,0.1-0.1,0.1c0,0,0,0,0,0c-0.3,0.2-0.7,0.5-1,0.7c0,0,0,0,0,0c0,0,0,0,0,0
			c-0.2,0.2-0.5,0.3-0.7,0.5c-0.5,0.3-1,0.6-1.5,1c0,0,0,0,0,0c-0.2,0.1-0.3,0.2-0.5,0.3c-0.2,0.1-0.4,0.3-0.6,0.4
			c-0.1,0-0.1,0.1-0.2,0.1c-0.3,0.2-0.6,0.4-0.9,0.6c-0.1,0.1-0.2,0.1-0.3,0.2c-0.4,0.3-0.9,0.5-1.3,0.8c-0.3,0.2-0.5,0.3-0.8,0.5
			c-0.6,0.3-1.2,0.7-1.8,1.1c-0.5,0.3-1,0.6-1.5,0.8c-0.3,0.2-0.6,0.3-0.9,0.5c-0.3,0.1-0.5,0.3-0.8,0.4c-0.2,0.1-0.4,0.2-0.5,0.3
			c-0.3,0.1-0.5,0.3-0.8,0.4c-0.7,0.4-1.4,0.8-2.2,1.2c-0.1,0.1-0.3,0.2-0.5,0.2c-0.1,0.1-0.3,0.2-0.4,0.2c-0.6,0.3-1.3,0.7-2,1
			c-2,1-4,2-6.1,3.1c-0.4,0.2-0.8,0.4-1.2,0.6c0,0,0,0,0,0c-0.3,0.1-0.6,0.3-0.9,0.4c-0.7,0.3-1.3,0.6-2,0.9c0,0-0.1,0-0.1,0.1
			c-1.9,0.9-3.8,1.8-5.8,2.6c-0.5,0.2-1,0.4-1.5,0.7c-0.5,0.2-1,0.4-1.5,0.7c-0.5,0.2-1,0.4-1.5,0.7c-0.2,0.1-0.4,0.2-0.6,0.3
			c-0.3,0.1-0.6,0.3-0.9,0.4c0,0,0,0,0,0c-2,0.9-4.1,1.7-6.2,2.6c-0.5,0.2-1,0.4-1.6,0.6c-0.1,0-0.3,0.1-0.4,0.2
			c-0.4,0.2-0.8,0.3-1.2,0.5c0,0,0,0,0,0c-0.4,0.1-0.7,0.3-1.1,0.4c-0.1,0.1-0.3,0.1-0.4,0.2c-2.6,1-5.3,2-7.9,3
			c-0.5,0.2-1.1,0.4-1.6,0.6c-1.1,0.4-2.1,0.8-3.2,1.2c-0.3,0.1-0.5,0.2-0.8,0.3c-0.3,0.1-0.6,0.2-0.8,0.3c-0.5,0.2-1.1,0.4-1.6,0.6
			c-1.5,0.5-3,1.1-4.5,1.6c-0.1,0-0.2,0.1-0.2,0.1c-0.5,0.2-1,0.4-1.6,0.5c-0.2,0.1-0.3,0.1-0.5,0.2c-0.4,0.1-0.7,0.2-1.1,0.4
			c-1,0.3-2.1,0.7-3.1,1c-0.1,0-0.3,0.1-0.4,0.1c-0.4,0.1-0.8,0.3-1.2,0.4h0c-0.4,0.1-0.7,0.2-1.1,0.3c-0.1,0.1-0.3,0.1-0.5,0.2
			c0,0,0,0,0,0c-0.6,0.2-1.2,0.4-1.8,0.6c-1.4,0.5-2.9,0.9-4.3,1.3c0,0-0.1,0-0.1,0c-0.5,0.1-0.9,0.3-1.4,0.4
			c-0.3,0.1-0.6,0.2-0.8,0.2c-0.2,0.1-0.4,0.1-0.7,0.2h0c-0.5,0.2-1,0.3-1.5,0.4c0,0,0,0,0,0c-0.5,0.1-1,0.3-1.5,0.4c0,0,0,0,0,0
			c-0.2,0.1-0.5,0.1-0.7,0.2c-0.3,0.1-0.5,0.1-0.8,0.2c-0.5,0.1-1,0.3-1.5,0.4c-0.5,0.1-1,0.3-1.4,0.4c-0.2,0-0.4,0.1-0.6,0.2
			c-0.3,0.1-0.6,0.2-0.9,0.2c-0.4,0.1-0.8,0.2-1.2,0.3c-0.1,0-0.1,0-0.2,0.1c-2,0.5-4,1.1-5.9,1.5c-0.7,0.2-1.3,0.3-2,0.5
			c-0.6,0.2-1.3,0.3-1.9,0.5c-1.2,0.3-2.4,0.6-3.6,0.8c-4.3,1-8.3,1.7-11.8,2.2h0c-0.2,0-0.4,0.1-0.7,0.1c0,0,0,0,0,0
			c-0.3,0-0.5,0.1-0.8,0.1c-0.1,0-0.1,0-0.2,0c-1.4,0.2-2.7,0.3-3.9,0.4c-0.4,0-0.7,0.1-1.1,0.1c-0.4,0-0.9,0.1-1.3,0.1
			c-0.2,0-0.3,0-0.5,0c-0.6,0-1.2,0-1.8,0c-2.2,0-4-0.2-5.2-0.7c-0.1,0-0.3-0.1-0.4-0.2c0,0-0.1,0-0.1,0c-0.1-0.1-0.3-0.1-0.4-0.2
			c-0.1,0-0.2-0.1-0.3-0.1c-0.1-0.1-0.3-0.1-0.4-0.2c-0.2-0.1-0.4-0.2-0.6-0.3c0,0,0,0,0,0c-0.5-0.3-1-0.7-1.5-1.1c0,0,0,0,0,0
			c-0.1-0.1-0.2-0.2-0.3-0.2c-0.2-0.2-0.4-0.3-0.7-0.5c-0.9-0.8-1.8-1.6-2.8-2.6c-0.4-0.4-0.8-0.8-1.3-1.3c-0.9-0.9-1.8-1.9-2.8-3
			c-0.5-0.5-0.9-1.1-1.4-1.6c0,0,0,0,0,0c-0.4-0.4-0.7-0.8-1.1-1.3c-0.1-0.1-0.2-0.3-0.3-0.4c-0.2-0.2-0.4-0.4-0.6-0.7
			c-0.3-0.4-0.6-0.7-0.9-1.1c0,0,0,0,0,0c-0.3-0.4-0.6-0.7-0.9-1.1c-0.2-0.2-0.4-0.5-0.6-0.7c-0.4-0.5-0.8-1.1-1.3-1.6
			c-0.1-0.1-0.2-0.2-0.3-0.3c0,0,0,0,0,0c-0.5-0.6-1-1.3-1.5-1.9c-0.1-0.1-0.1-0.2-0.2-0.2c-0.2-0.3-0.5-0.6-0.7-0.9c0,0,0,0,0,0
			c-0.3-0.4-0.5-0.7-0.8-1.1c-0.2-0.2-0.3-0.4-0.5-0.6c-0.3-0.4-0.7-0.9-1-1.4c-0.1-0.1-0.1-0.2-0.2-0.2c-0.2-0.3-0.4-0.5-0.5-0.8
			c-0.4-0.6-0.9-1.2-1.3-1.8c-0.5-0.6-0.9-1.3-1.4-1.9c0,0-0.1-0.1-0.1-0.1c-0.1-0.2-0.3-0.4-0.4-0.6c-3.8-5.5-7.8-11.5-11.7-17.8
			c-0.1-0.2-0.3-0.4-0.4-0.7c-0.7-1.1-1.3-2.2-2-3.3c-0.6-0.9-1.1-1.8-1.6-2.7c-1.6-2.7-3.2-5.4-4.8-8.1
			c-20.4-35-37.7-74.7-31.9-90.6c3.9-10.7,58.1-47.9,70.2-53.6c11.8-5.5,52.4,10.6,77.8,19.8c23,8.4,59.2,20.5,69.9,31.5
			c0.7,0.7,1.3,1.4,1.7,2.1c0,0.1,0.1,0.1,0.1,0.2c0,0,0,0,0,0.1c0.1,0.2,0.2,0.3,0.3,0.5c0,0,0,0,0,0c0.1,0.2,0.2,0.3,0.3,0.5l0,0
			c0.1,0.2,0.2,0.3,0.2,0.5c0,0,0,0,0,0c0.1,0.2,0.2,0.4,0.3,0.6l0,0c0.1,0.2,0.2,0.4,0.3,0.6c0,0,0,0,0,0c0,0.1,0.1,0.3,0.2,0.4
			c0,0.1,0.1,0.2,0.1,0.3c0,0,0,0,0,0c0.1,0.3,0.2,0.5,0.3,0.8c0,0,0,0,0,0c0.1,0.3,0.2,0.5,0.3,0.8c0.4,1.1,0.9,2.4,1.3,3.8
			c0.1,0.3,0.2,0.7,0.3,1.1c0.1,0.4,0.2,0.7,0.4,1.1c0.1,0.2,0.1,0.4,0.2,0.6c0.1,0.2,0.1,0.4,0.2,0.6c0.1,0.2,0.1,0.4,0.2,0.6
			c0.2,0.6,0.4,1.2,0.6,1.8c0.1,0.2,0.1,0.4,0.2,0.6c0.1,0.2,0.1,0.4,0.2,0.6c0.2,0.6,0.3,1.1,0.5,1.7c0.3,1,0.6,2.1,1,3.2
			c0.5,1.7,1,3.4,1.5,5.1c0.2,0.8,0.5,1.7,0.7,2.5c0.2,0.6,0.4,1.3,0.5,1.9c0.2,0.7,0.4,1.5,0.6,2.2c0.3,1.3,0.7,2.6,1.1,3.9
			c0.2,0.7,0.4,1.4,0.5,2.1c0.2,0.7,0.4,1.5,0.6,2.2c0.1,0.2,0.1,0.4,0.2,0.6c0.1,0.3,0.2,0.6,0.2,0.9c0.2,0.8,0.4,1.7,0.6,2.5
			c0.1,0.4,0.2,0.8,0.3,1.2c0.2,0.8,0.4,1.7,0.6,2.5c0,0,0,0,0,0c0.1,0.3,0.1,0.6,0.2,0.8c0.2,0.6,0.3,1.3,0.5,1.9
			c0,0.2,0.1,0.5,0.2,0.7c0.5,2.4,1.1,4.7,1.5,7c0,0.2,0.1,0.4,0.1,0.6C298.5,152.2,299.8,160.8,299.7,166.1z"/>
		<path class="st3" d="M286.1,166.1c-0.3,0.9-0.9,1.9-1.7,3c-0.3,0.5-0.7,0.9-1.1,1.4c-0.2,0.2-0.3,0.3-0.5,0.5
			c-0.3,0.3-0.6,0.6-0.9,1c-0.5,0.5-1.1,1.1-1.7,1.6c-0.4,0.4-0.8,0.7-1.3,1.1c-0.4,0.4-0.9,0.7-1.4,1.1c-0.5,0.4-1,0.8-1.5,1.1
			c-0.3,0.2-0.5,0.4-0.8,0.6c-0.3,0.2-0.5,0.4-0.8,0.6c-1.1,0.8-2.3,1.6-3.6,2.4c-0.9,0.6-1.9,1.3-3,1.9c-1.4,0.9-2.8,1.7-4.4,2.6
			c-1.1,0.6-2.2,1.3-3.4,1.9c-2.1,1.2-4.4,2.4-6.8,3.6c-0.8,0.4-1.7,0.8-2.5,1.3c-1.6,0.8-3.2,1.6-4.9,2.3c-0.9,0.4-1.8,0.8-2.7,1.2
			c-0.2,0.1-0.4,0.2-0.6,0.3c-0.8,0.4-1.7,0.8-2.6,1.2c-2.9,1.3-5.9,2.6-9.1,3.9c-1,0.4-1.9,0.8-2.9,1.2c-2.5,1-5.1,2.1-7.9,3.1
			c-0.7,0.3-1.3,0.5-2,0.8c-0.2,0.1-0.4,0.2-0.6,0.2c-25.9,9.7-47.1,15.3-60.3,17.6h0c-3.7-0.9-7.6-2.1-11.5-3.5
			c-4.4-1.6-8.5-3.4-12.4-5.3l0,0c-8.6-10.3-21.2-28.1-34.7-52c-22.6-40-29.7-66.2-26.8-74.6c4.2-8.1,50.5-41,63-46.9
			c0.1-0.1,3.7-1.6,18.6,2.2c10.5,2.7,22.7,7,33.2,10.8c3,1.1,6,2.2,8.9,3.3c2.7,1,5.2,1.9,7.6,2.8c2.4,0.9,5,1.8,7.6,2.8
			c2.9,1,5.9,2.1,8.9,3.2c10.5,3.8,22.6,8.4,32.4,13.1c13.9,6.7,15.6,10.1,15.7,10.2c1.4,2.9,3.2,8.1,5.1,14.5v0
			c2,6.6,4.2,14.6,6.2,22.5c0.3,1.1,0.6,2.2,0.8,3.2c0.2,0.7,0.3,1.4,0.5,2.2c0.6,2.3,1.1,4.5,1.6,6.8c0.1,0.5,0.2,0.9,0.3,1.4
			c0.5,2.3,1,4.5,1.4,6.6c0.1,0.7,0.3,1.5,0.4,2.2c0.4,2.3,0.8,4.4,1.1,6.3c0.1,0.5,0.2,1.1,0.2,1.6c0,0.3,0.1,0.5,0.1,0.7
			c0,0.2,0.1,0.5,0.1,0.7c0.1,0.5,0.1,0.9,0.2,1.4c0,0.2,0,0.4,0.1,0.7C286.3,163,286.3,165,286.1,166.1z"/>
		<path class="st4" d="M145.8,220.1c3.9,1.4,7.8,2.6,11.5,3.5c-5.1,0.9-9,1.3-11.5,1.3c-1,0-1.8-0.1-2.4-0.2
			c-0.4-0.2-0.9-0.5-1.4-0.9c-0.2-0.2-0.4-0.3-0.6-0.5c-0.8-0.7-1.9-1.7-3-2.9c-0.2-0.2-0.3-0.3-0.5-0.5c-0.2-0.2-0.4-0.4-0.5-0.6
			c-0.3-0.4-0.7-0.8-1.1-1.2c-0.6-0.7-1.3-1.5-2.1-2.4c-0.3-0.3-0.6-0.7-0.9-1C137.3,216.7,141.4,218.5,145.8,220.1z"/>
		<path class="st5" d="M297.2,146c0-0.1,0-0.2-0.1-0.3C297.1,145.9,297.2,145.9,297.2,146z M297.1,145.8c-0.1-0.5-0.2-1-0.3-1.5
			C296.9,144.7,297,145.3,297.1,145.8z M297.2,146c1.6,8.3,2.6,15.4,2.5,20c0,0.5,0,0.9-0.1,1.3c0,0.2,0,0.4-0.1,0.6
			c0-0.4,0.1-0.7,0.1-1.1v-0.1C299.9,162.2,298.9,154.7,297.2,146z M296.8,144.2c-0.1-0.6-0.2-1.2-0.4-1.8
			C296.6,143,296.7,143.6,296.8,144.2z M299.4,169c-0.1,0.3-0.2,0.6-0.3,0.9c-0.1,0.2-0.2,0.5-0.3,0.7c0.1-0.2,0.2-0.5,0.3-0.7
			c0-0.1,0.1-0.3,0.1-0.4c0.1-0.3,0.1-0.6,0.2-1c0-0.2,0.1-0.4,0.1-0.6c0,0,0,0,0,0c0,0.1,0,0.2,0,0.2
			C299.5,168.5,299.4,168.8,299.4,169z M298.6,171.2c0.1-0.2,0.2-0.4,0.3-0.7C298.7,170.8,298.6,171,298.6,171.2L298.6,171.2z
			 M298.5,171.3C298.5,171.3,298.5,171.3,298.5,171.3C298.5,171.3,298.5,171.3,298.5,171.3L298.5,171.3z M298.2,171.9
			c0.1-0.2,0.2-0.4,0.3-0.6c0,0,0,0,0,0C298.4,171.5,298.3,171.7,298.2,171.9z M298.1,172C298.1,172.1,298.1,172.1,298.1,172
			c0,0,0-0.1,0.1-0.1h0C298.2,171.9,298.2,172,298.1,172z M297.7,172.8c-0.1,0.2-0.2,0.3-0.3,0.5h0
			C297.5,173.1,297.6,173,297.7,172.8c0-0.1,0.1-0.1,0.1-0.2c0-0.1,0.1-0.2,0.1-0.2h0C297.9,172.5,297.8,172.6,297.7,172.8z
			 M297.3,173.5c0-0.1,0.1-0.1,0.1-0.2C297.4,173.3,297.3,173.4,297.3,173.5L297.3,173.5z M296.8,174.3c-0.1,0.1-0.2,0.3-0.3,0.4
			c-0.1,0.1-0.1,0.2-0.2,0.3c0.1-0.2,0.2-0.3,0.3-0.5C296.7,174.4,296.7,174.3,296.8,174.3C296.8,174.2,296.8,174.2,296.8,174.3
			c0.1-0.1,0.2-0.2,0.2-0.3c0,0,0,0,0-0.1C296.9,174,296.9,174.1,296.8,174.3C296.8,174.2,296.8,174.2,296.8,174.3z M294.8,134.8
			c0.5,2.4,1.1,4.7,1.5,7C295.8,139.5,295.3,137.2,294.8,134.8z M295.7,175.8c-0.1,0.1-0.1,0.2-0.2,0.2h0
			C295.5,175.9,295.6,175.8,295.7,175.8c0.1-0.1,0.2-0.3,0.3-0.4c0.1-0.1,0.2-0.2,0.3-0.3c0,0,0,0-0.1,0.1
			C296,175.3,295.8,175.5,295.7,175.8z M294.3,177.4c-0.2,0.2-0.4,0.4-0.6,0.6c0,0-0.1,0.1-0.1,0.1h0c0,0,0.1-0.1,0.1-0.1
			C293.9,177.8,294.1,177.6,294.3,177.4c0.2-0.2,0.4-0.5,0.6-0.7c0.1-0.1,0.1-0.1,0.2-0.2c0.1-0.2,0.3-0.3,0.4-0.5
			c-0.1,0.2-0.3,0.3-0.4,0.5C294.8,176.8,294.5,177.1,294.3,177.4z M294,131.3C294,131.3,294,131.3,294,131.3
			c-0.2-0.8-0.4-1.7-0.6-2.5C293.6,129.6,293.8,130.5,294,131.3C294,131.3,294,131.3,294,131.3z M293.1,178.6
			c0.2-0.2,0.3-0.3,0.5-0.5C293.4,178.3,293.3,178.5,293.1,178.6L293.1,178.6z M293.1,127.5c-0.3-1.2-0.6-2.3-0.9-3.5
			c0.1,0.3,0.2,0.6,0.2,0.9C292.6,125.9,292.8,126.7,293.1,127.5z M292.9,178.8C293,178.8,293,178.8,292.9,178.8
			C292.9,178.8,292.9,178.8,292.9,178.8C292.9,178.8,292.9,178.8,292.9,178.8z M292.2,179.5c0.2-0.2,0.5-0.5,0.7-0.7
			C292.7,179,292.5,179.3,292.2,179.5C292.2,179.5,292.2,179.5,292.2,179.5z M291.5,180.2c0.2-0.2,0.5-0.5,0.7-0.7
			C292,179.7,291.7,180,291.5,180.2L291.5,180.2z M290.8,180.8c0.2-0.2,0.4-0.4,0.6-0.6C291.2,180.5,291,180.6,290.8,180.8
			L290.8,180.8z M290.6,181c0,0,0.1-0.1,0.1-0.1c0,0,0,0,0,0C290.7,181,290.6,181,290.6,181z M289.1,182.3c0.2-0.2,0.4-0.4,0.6-0.5
			C289.5,182,289.3,182.2,289.1,182.3C289.1,182.3,289.1,182.3,289.1,182.3z M288.2,183.1c0.1-0.1,0.3-0.2,0.4-0.3
			c0.1,0,0.1-0.1,0.2-0.1c-0.3,0.3-0.6,0.5-0.9,0.8C288,183.2,288.1,183.1,288.2,183.1z M287.4,183.8c0.2-0.1,0.3-0.3,0.5-0.4
			C287.7,183.5,287.5,183.6,287.4,183.8L287.4,183.8z M285,98.5c-0.1-0.2-0.1-0.4-0.2-0.6c0,0.1,0.1,0.2,0.1,0.3
			C285,98.4,285,98.4,285,98.5z M284.6,97.3c0.1,0.2,0.1,0.4,0.2,0.6c-0.3-0.8-0.5-1.7-0.8-2.5C284.2,96.1,284.4,96.7,284.6,97.3z
			 M283.5,93.8c0.1,0.2,0.1,0.4,0.2,0.6C283.6,94.1,283.5,93.9,283.5,93.8L283.5,93.8z M283.1,92.7L283.1,92.7
			c0.1,0.4,0.2,0.7,0.4,1.1C283.4,93.4,283.2,93,283.1,92.7C283.1,92.7,283.1,92.7,283.1,92.7z M282.6,187.3c0.1,0,0.1-0.1,0.2-0.2
			C282.7,187.2,282.6,187.3,282.6,187.3L282.6,187.3z M281.5,188c0,0,0.1-0.1,0.1-0.1C281.6,188,281.6,188,281.5,188
			C281.5,188,281.5,188,281.5,188z M281.1,87C281.1,87,281.1,87,281.1,87L281.1,87C281.1,87,281.1,87,281.1,87z M280.8,86.3
			C280.8,86.3,280.8,86.3,280.8,86.3L280.8,86.3C280.8,86.3,280.8,86.3,280.8,86.3z M280.7,86c0,0.1,0.1,0.2,0.1,0.3
			C280.8,86.1,280.7,86,280.7,86L280.7,86z M280.5,85.5C280.5,85.5,280.5,85.5,280.5,85.5L280.5,85.5
			C280.5,85.5,280.5,85.5,280.5,85.5z M280.3,84.9L280.3,84.9L280.3,84.9L280.3,84.9z M280,84.3L280,84.3L280,84.3
			C280,84.3,280,84.3,280,84.3z M279.8,83.7L279.8,83.7L279.8,83.7L279.8,83.7z M279.5,83.2C279.5,83.2,279.5,83.2,279.5,83.2
			C279.5,83.2,279.5,83.2,279.5,83.2L279.5,83.2z"/>
		<path class="st6" d="M299.7,166.1c0,0.5,0,0.9-0.1,1.3c0,0.2,0,0.4-0.1,0.6c0,0.4-0.1,0.7-0.2,1.1c-0.1,0.3-0.2,0.6-0.3,0.9
			c-0.1,0.2-0.2,0.5-0.3,0.7c-0.1,0.2-0.2,0.4-0.3,0.7c0,0,0,0.1,0,0.1c0,0,0,0,0,0c-0.1,0.2-0.2,0.4-0.3,0.6h0c0,0,0,0.1-0.1,0.1
			c0,0,0,0,0,0.1c-0.1,0.1-0.1,0.2-0.1,0.3h0c-0.1,0.1-0.2,0.3-0.3,0.4c-0.1,0.2-0.2,0.3-0.3,0.5c0,0.1-0.1,0.1-0.1,0.2
			c0,0,0,0.1-0.1,0.1c-0.1,0.1-0.1,0.2-0.2,0.3c-0.1,0.1-0.1,0.2-0.2,0.3c0,0,0,0,0,0.1c-0.1,0.1-0.2,0.3-0.3,0.4
			c-0.1,0.1-0.1,0.2-0.2,0.3c0,0,0,0-0.1,0.1c-0.2,0.2-0.4,0.5-0.6,0.7c-0.1,0.1-0.1,0.2-0.2,0.2c-0.1,0.2-0.3,0.3-0.4,0.5
			c-0.3,0.3-0.5,0.6-0.8,0.9c-0.2,0.2-0.4,0.4-0.6,0.6c0,0-0.1,0.1-0.1,0.1c-0.2,0.2-0.3,0.3-0.5,0.5c0,0-0.1,0.1-0.1,0.1
			c0,0,0,0,0,0c0,0,0,0,0,0c-0.2,0.2-0.5,0.5-0.7,0.7h0c-0.2,0.2-0.5,0.5-0.7,0.7c0,0,0,0-0.1,0.1c0,0,0,0,0,0
			c-0.2,0.2-0.4,0.4-0.6,0.6c0,0-0.1,0-0.1,0.1c0,0,0,0,0,0c0,0-0.1,0.1-0.1,0.1c0,0,0,0,0,0c-0.1,0.1-0.2,0.2-0.3,0.3
			c-0.1,0.1-0.2,0.2-0.3,0.3c-0.1,0-0.1,0.1-0.2,0.2h0c-0.2,0.2-0.4,0.4-0.6,0.5c-0.1,0.1-0.2,0.1-0.3,0.2h0
			c-0.3,0.3-0.6,0.5-0.9,0.8c0,0,0,0,0,0c-0.2,0.1-0.3,0.3-0.5,0.4c-0.2,0.2-0.5,0.4-0.8,0.6c0,0-0.1,0.1-0.2,0.1
			c-0.2,0.1-0.3,0.3-0.5,0.4c-0.2,0.1-0.4,0.3-0.6,0.4c-0.2,0.1-0.3,0.2-0.5,0.4c0,0,0,0,0,0c-0.1,0.1-0.2,0.2-0.3,0.3
			c-0.2,0.1-0.3,0.2-0.5,0.4c-0.1,0-0.1,0.1-0.2,0.2c0,0,0,0,0,0c-0.1,0.1-0.2,0.1-0.3,0.2c-0.3,0.2-0.5,0.4-0.8,0.6c0,0,0,0,0,0
			c-0.1,0.1-0.1,0.1-0.2,0.2c-0.3,0.2-0.6,0.4-0.9,0.6h0c0,0-0.1,0.1-0.1,0.1c-0.3,0.2-0.7,0.5-1,0.7c0,0,0,0,0,0c0,0,0,0,0,0
			c-0.2,0.2-0.5,0.3-0.7,0.5c-0.5,0.3-1,0.6-1.5,1c0,0-0.1,0-0.1,0.1c-0.1,0.1-0.3,0.2-0.4,0.2c-0.2,0.1-0.4,0.3-0.6,0.4
			c-0.1,0-0.1,0.1-0.2,0.1c-0.3,0.2-0.6,0.4-0.9,0.6c-0.1,0.1-0.2,0.1-0.3,0.2c-0.4,0.3-0.9,0.5-1.3,0.8c-0.3,0.2-0.5,0.3-0.8,0.5
			c-0.6,0.3-1.2,0.7-1.8,1.1c-0.5,0.3-1,0.6-1.5,0.8c-0.3,0.2-0.6,0.3-0.9,0.5c-0.3,0.1-0.5,0.3-0.8,0.4c-0.2,0.1-0.4,0.2-0.5,0.3
			c-0.3,0.1-0.5,0.3-0.8,0.4c-0.7,0.4-1.4,0.8-2.2,1.2c-0.1,0.1-0.3,0.2-0.5,0.2c-0.1,0.1-0.3,0.2-0.4,0.2c-0.7,0.3-1.3,0.7-2,1
			c-2,1-4,2-6.1,3.1c-0.4,0.2-0.8,0.4-1.2,0.6c0,0,0,0,0,0c-0.3,0.1-0.6,0.3-0.9,0.4c-0.7,0.3-1.3,0.6-2,0.9c0,0-0.1,0-0.1,0.1
			c-1.9,0.9-3.8,1.8-5.8,2.6c-0.5,0.2-1,0.4-1.5,0.7c-0.5,0.2-1,0.4-1.5,0.7c-0.5,0.2-1,0.4-1.5,0.7c-0.2,0.1-0.4,0.2-0.6,0.3
			c-0.3,0.1-0.6,0.3-0.9,0.4c-2,0.9-4.1,1.7-6.2,2.6c-0.5,0.2-1,0.4-1.6,0.6c-0.1,0-0.3,0.1-0.4,0.2c-0.8,0.3-1.5,0.6-2.3,0.9
			c-2.8,1.1-5.6,2.2-8.4,3.2c-0.5,0.2-1.1,0.4-1.6,0.6c-1.1,0.4-2.1,0.8-3.2,1.2c-0.3,0.1-0.5,0.2-0.8,0.3c-0.3,0.1-0.6,0.2-0.8,0.3
			c-0.5,0.2-1.1,0.4-1.6,0.6c-1.5,0.5-3,1.1-4.5,1.6c-0.1,0-0.2,0.1-0.2,0.1c-0.7,0.2-1.4,0.5-2.1,0.7c-1.5,0.5-3.1,1-4.6,1.5
			c-0.4,0.1-0.8,0.3-1.2,0.4c-0.4,0.1-0.7,0.2-1.1,0.3c-0.2,0-0.3,0.1-0.5,0.2c-0.6,0.2-1.2,0.4-1.8,0.6c-1.4,0.5-2.9,0.9-4.3,1.3
			c0,0-0.1,0-0.1,0c-0.7,0.2-1.5,0.4-2.2,0.7c-0.2,0.1-0.4,0.1-0.7,0.2h0c-0.5,0.1-1,0.3-1.5,0.4c0,0,0,0,0,0
			c-0.7,0.2-1.4,0.4-2.2,0.6c-0.3,0.1-0.5,0.1-0.8,0.2c-0.5,0.1-1,0.3-1.5,0.4c-0.5,0.1-1,0.3-1.4,0.4c-0.2,0-0.4,0.1-0.6,0.2
			c-0.3,0.1-0.6,0.2-0.9,0.2c-0.4,0.1-0.8,0.2-1.2,0.3c-0.1,0-0.1,0-0.2,0.1c-2,0.5-4,1.1-5.9,1.5c-0.7,0.2-1.3,0.3-2,0.5
			c-0.6,0.2-1.3,0.3-1.9,0.5c-1.2,0.3-2.4,0.6-3.6,0.8c-4.3,1-8.3,1.7-11.8,2.2h0c-0.2,0-0.5,0.1-0.7,0.1c-0.3,0-0.5,0.1-0.8,0.1
			c-0.1,0-0.1,0-0.2,0c-1.4,0.2-2.7,0.3-3.9,0.4c-0.4,0-0.7,0.1-1.1,0.1c-0.4,0-0.9,0.1-1.3,0.1c-0.2,0-0.3,0-0.5,0
			c-0.6,0-1.2,0-1.8,0c-2.2,0-4-0.2-5.2-0.7c0,0-0.1,0-0.1-0.1c-0.1,0-0.2-0.1-0.4-0.1c-0.1-0.1-0.3-0.1-0.4-0.2
			c-0.1,0-0.2-0.1-0.3-0.1c-0.1-0.1-0.3-0.1-0.4-0.2c-0.2-0.1-0.4-0.2-0.6-0.3c0,0,0,0,0,0c-0.5-0.3-1-0.7-1.5-1.1c0,0,0,0,0,0
			c-0.1-0.1-0.2-0.2-0.3-0.2c-0.1-0.1-0.1-0.1-0.2-0.2c-0.1-0.1-0.3-0.2-0.4-0.4c-0.9-0.8-1.8-1.6-2.8-2.6c-0.4-0.4-0.8-0.8-1.3-1.3
			c-0.9-0.9-1.8-1.9-2.8-3c-0.2-0.3-0.5-0.6-0.7-0.9c-0.2-0.2-0.4-0.5-0.6-0.7c-0.4-0.4-0.7-0.8-1.1-1.3c-0.1-0.1-0.2-0.3-0.3-0.4
			c-0.2-0.2-0.4-0.4-0.6-0.7c-0.3-0.4-0.6-0.7-0.9-1.1c0,0,0,0,0,0c-0.3-0.4-0.6-0.7-0.9-1.1c-0.2-0.2-0.4-0.5-0.6-0.7
			c-0.4-0.5-0.8-1.1-1.3-1.6c0-0.1-0.1-0.1-0.1-0.2c0,0-0.1-0.1-0.1-0.1c-0.5-0.6-1-1.3-1.5-1.9c-0.1-0.1-0.1-0.2-0.2-0.2
			c-0.1-0.1-0.1-0.2-0.2-0.3c-0.2-0.2-0.3-0.4-0.5-0.6c-0.1-0.1-0.2-0.2-0.3-0.4c-0.3-0.4-0.7-0.9-1-1.3c-0.3-0.4-0.7-0.9-1-1.4
			c-0.1-0.1-0.1-0.2-0.2-0.2h0c-0.2-0.3-0.4-0.5-0.5-0.8c-0.4-0.6-0.9-1.2-1.3-1.8c-0.5-0.6-0.9-1.3-1.4-1.9c0,0-0.1-0.1-0.1-0.1
			c-0.1-0.2-0.3-0.4-0.4-0.6h0c-3.8-5.5-7.8-11.5-11.7-17.8c-0.1-0.2-0.3-0.4-0.4-0.7c-0.7-1.1-1.3-2.2-2-3.3
			c-0.6-0.9-1.1-1.8-1.6-2.7c-1.6-2.7-3.2-5.4-4.8-8.1c0.6,0.4,1.3,0.8,1.9,1.2l-0.1,0.2c4.3,9.8,10.9,18.6,19.8,26.5
			c1.3,1.1,2.6,2.2,3.9,3.2c4.9,3.9,10.4,7.3,16.4,10.3l0,0c0.3,0.4,0.6,0.7,0.9,1c0.2,0.2,0.4,0.4,0.5,0.6c0.3,0.4,0.7,0.8,1,1.2
			c0.2,0.2,0.3,0.4,0.5,0.6c0.2,0.2,0.4,0.4,0.5,0.6c0.2,0.2,0.4,0.4,0.5,0.6c0.2,0.2,0.3,0.4,0.5,0.6c0.2,0.2,0.3,0.3,0.5,0.5
			c1.1,1.2,2.2,2.2,3,2.9c0.1,0.1,0.2,0.2,0.3,0.3c0.1,0.1,0.2,0.2,0.3,0.2c0,0,0,0,0,0c0.6,0.4,1,0.7,1.4,0.9
			c0.5,0.1,1.3,0.2,2.4,0.2c2.5,0,6.4-0.4,11.5-1.3h0c6.9,1.7,13.5,2.6,19.7,2.6c5.9,0,11.5-0.8,16.8-2.3
			c10.7-3.1,18.9-9.1,24.4-18.1c2.8-1.1,5.6-2.1,8.3-3.2c0.5-0.2,1.1-0.4,1.6-0.6c1.8-0.7,3.6-1.4,5.3-2.2c0.8-0.3,1.5-0.6,2.3-1
			c5.5-2.4,10.6-4.7,15.2-7c0.8-0.4,1.7-0.8,2.5-1.3c2.4-1.2,4.7-2.4,6.8-3.6c1.2-0.6,2.3-1.3,3.4-1.9c0.1,0,0.1-0.1,0.2-0.1
			c0.7-0.4,1.4-0.8,2.1-1.2c0.7-0.4,1.4-0.9,2.1-1.3c1-0.6,2-1.3,3-1.9c0.4-0.2,0.7-0.5,1.1-0.7c0.9-0.6,1.7-1.2,2.5-1.7
			c0.3-0.2,0.6-0.4,0.8-0.6c1.3-1,2.5-1.9,3.7-2.9c0.4-0.4,0.9-0.7,1.3-1.1c0,0,0,0,0,0c0.3-0.3,0.6-0.5,0.8-0.8
			c0.3-0.3,0.6-0.5,0.8-0.8c0.3-0.3,0.6-0.7,0.9-1c0.2-0.2,0.3-0.3,0.5-0.5c0.2-0.2,0.4-0.5,0.6-0.7c0.2-0.2,0.4-0.5,0.5-0.7
			c0.4-0.5,0.8-1.1,1-1.5c0.1-0.1,0.1-0.2,0.2-0.4c0.1-0.2,0.2-0.4,0.3-0.7c0.1-0.1,0.1-0.3,0.2-0.4c0.2-1,0.2-2.6,0.1-4.7
			c0-0.3,0-0.6-0.1-0.9c-0.1-1.1-0.2-2.2-0.4-3.5c-0.1-0.5-0.1-1-0.2-1.6c-0.1-0.5-0.2-1.1-0.3-1.6c-0.1-0.5-0.2-0.9-0.2-1.4
			c-0.4-2.4-0.9-5-1.5-7.8c-0.2-0.9-0.4-1.7-0.6-2.6c-0.1-0.6-0.2-1.1-0.4-1.7c-0.1-0.5-0.2-0.9-0.3-1.4c0-0.2-0.1-0.3-0.1-0.5
			c-0.1-0.6-0.3-1.3-0.4-2c-0.7-3.2-1.5-6.4-2.3-9.7c-0.3-1-0.5-2-0.8-3c-0.3-1-0.5-2-0.8-3c-0.1-0.5-0.3-1.1-0.4-1.6
			c-0.1-0.4-0.2-0.9-0.4-1.3c-0.3-1-0.5-1.9-0.8-2.9c-0.3-1-0.6-2.1-0.9-3.1c-0.3-1-0.6-2-0.9-3c-0.2-0.6-0.4-1.3-0.6-1.9
			c-0.3-0.9-0.6-1.9-0.8-2.8c2.3-6,4-12.2,5.3-18.4c0.2-1.1,0.5-2.3,0.7-3.4c0,0.1,0.1,0.1,0.1,0.2h0c0,0,0,0,0,0.1
			c0.1,0.2,0.2,0.3,0.3,0.5h0c0,0,0,0,0,0c0.1,0.2,0.2,0.3,0.3,0.5l0,0c0.1,0.2,0.2,0.3,0.2,0.5c0,0,0,0,0,0
			c0.1,0.2,0.2,0.4,0.3,0.6l0,0c0.1,0.2,0.2,0.4,0.3,0.6c0,0,0,0,0,0c0,0.1,0.1,0.3,0.2,0.4c0,0.1,0.1,0.2,0.1,0.3c0,0,0,0,0,0
			c0.1,0.3,0.2,0.5,0.3,0.8c0,0,0,0,0,0c0.1,0.3,0.2,0.5,0.3,0.8c0.4,1.1,0.9,2.4,1.3,3.8c0.1,0.3,0.2,0.7,0.3,1.1
			c0.1,0.4,0.2,0.7,0.4,1.1c0.1,0.2,0.1,0.4,0.2,0.6c0.1,0.2,0.1,0.4,0.2,0.6c0.1,0.2,0.1,0.4,0.2,0.6c0.2,0.6,0.4,1.2,0.6,1.8
			c0.1,0.2,0.1,0.4,0.2,0.6c0.1,0.2,0.1,0.4,0.2,0.6c0.2,0.6,0.3,1.1,0.5,1.7c0.3,1,0.6,2.1,1,3.2c0.5,1.7,1,3.4,1.5,5.1
			c0.2,0.8,0.5,1.7,0.7,2.5c0.2,0.6,0.4,1.3,0.5,1.9c0.2,0.7,0.4,1.5,0.6,2.2c0.3,1.3,0.7,2.6,1.1,3.9c0.2,0.7,0.4,1.4,0.5,2.1
			c0.2,0.7,0.4,1.5,0.6,2.2c0.1,0.2,0.1,0.4,0.2,0.6c0.1,0.3,0.2,0.6,0.2,0.9c0.2,0.8,0.4,1.7,0.6,2.5c0.1,0.4,0.2,0.8,0.3,1.2
			c0.2,0.8,0.4,1.7,0.6,2.5c0,0,0,0,0,0c0.1,0.3,0.1,0.6,0.2,0.8c0.2,0.6,0.3,1.3,0.5,1.9c0,0.2,0.1,0.5,0.2,0.7
			c0.5,2.4,1.1,4.7,1.5,7c0,0.2,0.1,0.4,0.1,0.6C298.5,152.2,299.8,160.8,299.7,166.1z"/>
		<path class="st3" d="M283.2,170.5c0.4-0.5,0.8-0.9,1.1-1.4C284,169.5,283.6,170,283.2,170.5z M263.4,185.1
			c-1.1,0.6-2.2,1.3-3.4,1.9C261.2,186.3,262.4,185.7,263.4,185.1z M145.8,220.1c-4.4-1.6-8.5-3.4-12.4-5.3c0.3,0.4,0.6,0.7,0.9,1
			c0.7,0.8,1.4,1.6,2.1,2.4c0.4,0.4,0.7,0.8,1.1,1.2c0.2,0.2,0.3,0.4,0.5,0.6c0.2,0.2,0.3,0.4,0.5,0.5c1.1,1.2,2.2,2.2,3,2.9
			c0.2,0.2,0.4,0.3,0.6,0.5c0.6,0.4,1,0.7,1.4,0.9c0.5,0.1,1.3,0.2,2.4,0.2c2.5,0,6.4-0.4,11.5-1.3
			C153.5,222.7,149.7,221.5,145.8,220.1z"/>
	</g>
	<g>
		<path class="st2" d="M208.6,140.7c5.3,7.7,6.9,17.8,3.3,27.2c-5.8,15.3-22.8,23-38,17.2l-39-14.7c-4.6-1.7-6.8-6.6-5.1-11.2
			l29.4-78c1.7-4.6,6.6-6.8,11.2-5.1l32.5,12.2c15.3,5.8,23,22.8,17.2,38C217.7,132.6,213.7,137.4,208.6,140.7z M196.7,104.7
			l-24.4-9.2l-8.6,22.8l24.4,9.2c6.3,2.4,13.3-0.8,15.7-7.1C206.2,114,203,107.1,196.7,104.7z M195.6,161.8
			c2.4-6.3-0.8-13.3-7.1-15.7l-30.9-11.6l-8.6,22.8l30.9,11.6C186.3,171.3,193.2,168.2,195.6,161.8z"/>
	</g>
	<path class="st7" d="M280.7,86c0,0,0.1,0.2,0.1,0.3c0,0,0,0,0,0c0.1,0.3,0.2,0.5,0.3,0.8c0,0,0,0,0,0c0.1,0.3,0.2,0.5,0.3,0.8
		c0.4,1.1,0.9,2.4,1.3,3.8c0.1,0.3,0.2,0.7,0.4,1.1c0,0,0,0,0,0c0.1,0.4,0.2,0.7,0.4,1.1c0.1,0.2,0.1,0.4,0.2,0.6
		c0.1,0.2,0.1,0.4,0.2,0.6c0.1,0.2,0.1,0.4,0.2,0.6c0.3,0.8,0.5,1.6,0.8,2.5c0.1,0.2,0.1,0.4,0.2,0.6c0.2,0.6,0.3,1.1,0.5,1.7
		c0.3,1,0.6,2.1,1,3.2c0.5,1.7,1,3.4,1.5,5.1c0.2,0.8,0.5,1.7,0.7,2.5c0.2,0.6,0.4,1.3,0.5,1.9c0.2,0.7,0.4,1.5,0.6,2.2
		c0.3,1.3,0.7,2.6,1.1,3.9c0.2,0.7,0.4,1.4,0.5,2.1c0.2,0.7,0.4,1.5,0.6,2.2c0.1,0.2,0.1,0.4,0.2,0.6c0.3,1.2,0.6,2.3,0.9,3.5
		c0.1,0.4,0.2,0.8,0.3,1.2c0.2,0.8,0.4,1.7,0.6,2.5c0,0,0,0,0,0c0.1,0.3,0.1,0.6,0.2,0.8c0.2,0.6,0.3,1.3,0.5,1.9
		c0,0.2,0.1,0.5,0.2,0.7c0.6,2.4,1.1,4.7,1.5,7c0,0.2,0.1,0.4,0.1,0.6c0.1,0.6,0.3,1.2,0.4,1.8c0.1,0.5,0.2,1,0.3,1.5
		c0,0.1,0,0.2,0.1,0.3c1.7,8.7,2.7,16.1,2.5,20.7v0.1c0,0.4-0.1,0.8-0.1,1.1c0,0,0,0,0,0c0,0.2,0,0.4-0.1,0.6
		c-0.1,0.3-0.1,0.7-0.2,1c0,0.1-0.1,0.3-0.1,0.4c-0.1,0.2-0.2,0.5-0.3,0.7c-0.1,0.2-0.2,0.4-0.3,0.7c0,0,0,0.1,0,0.1h0
		c-0.1,0.2-0.2,0.4-0.3,0.6c0,0.1-0.1,0.1-0.1,0.2c-0.1,0.1-0.1,0.2-0.1,0.3c0,0.1-0.1,0.2-0.1,0.2c0,0.1-0.1,0.1-0.1,0.2
		c-0.1,0.2-0.2,0.3-0.3,0.5c0,0.1-0.1,0.1-0.1,0.2h0c0,0,0,0.1-0.1,0.1c-0.1,0.1-0.1,0.2-0.2,0.3c0,0,0,0,0,0.1
		c0,0.1-0.1,0.2-0.2,0.2c0,0,0,0,0,0.1c0,0.1-0.1,0.2-0.2,0.2c-0.1,0.2-0.2,0.3-0.3,0.5c-0.1,0.1-0.2,0.2-0.3,0.3
		c-0.1,0.1-0.2,0.3-0.3,0.4c-0.1,0.1-0.1,0.2-0.2,0.2h0c-0.1,0.2-0.3,0.3-0.4,0.5c-0.1,0.1-0.1,0.1-0.2,0.2
		c-0.2,0.2-0.4,0.5-0.6,0.7c-0.2,0.2-0.4,0.4-0.6,0.6c0,0-0.1,0.1-0.1,0.1c-0.2,0.2-0.3,0.3-0.5,0.5h0c0,0-0.1,0.1-0.1,0.1
		c0,0,0,0,0,0c0,0,0,0,0,0c-0.2,0.2-0.5,0.5-0.7,0.7c0,0,0,0,0,0c-0.2,0.2-0.5,0.5-0.7,0.7h0c0,0,0,0-0.1,0.1
		c-0.2,0.2-0.4,0.4-0.6,0.6h0c0,0-0.1,0-0.1,0.1c0,0-0.1,0.1-0.1,0.1c0,0,0,0,0,0c-0.1,0.1-0.2,0.2-0.3,0.3
		c-0.1,0.1-0.2,0.2-0.3,0.3c-0.1,0-0.1,0.1-0.2,0.2c-0.2,0.2-0.4,0.4-0.6,0.5c0,0,0,0,0,0c-0.1,0.1-0.2,0.1-0.3,0.2
		c-0.1,0-0.1,0.1-0.2,0.1c-0.1,0.1-0.3,0.2-0.4,0.3c-0.1,0.1-0.2,0.2-0.3,0.3c-0.2,0.1-0.3,0.3-0.5,0.4h0c-0.2,0.2-0.5,0.4-0.8,0.6
		c0,0-0.1,0.1-0.2,0.1c-0.2,0.1-0.3,0.3-0.5,0.4c-0.2,0.1-0.4,0.3-0.6,0.4c-0.2,0.1-0.3,0.2-0.5,0.4c0,0,0,0,0,0
		c-0.1,0.1-0.2,0.2-0.3,0.3c-0.2,0.1-0.3,0.2-0.5,0.4c-0.1,0-0.1,0.1-0.2,0.2c0,0,0,0,0,0c-0.1,0.1-0.2,0.1-0.3,0.2
		c-0.3,0.2-0.5,0.4-0.8,0.6c-0.1,0.1-0.1,0.1-0.2,0.2h0c-0.3,0.2-0.6,0.4-0.9,0.6c0,0-0.1,0.1-0.1,0.1c0,0,0,0,0,0
		c-0.3,0.2-0.7,0.5-1,0.7c0,0,0,0,0,0c0,0,0,0,0,0c-0.2,0.2-0.5,0.3-0.7,0.5c-0.5,0.3-1,0.6-1.5,1c0,0-0.1,0-0.1,0.1
		c-0.1,0.1-0.3,0.2-0.4,0.2c-0.2,0.1-0.4,0.3-0.6,0.4c-0.1,0-0.1,0.1-0.2,0.1c-0.3,0.2-0.6,0.4-0.9,0.6c-0.1,0.1-0.2,0.1-0.3,0.2
		c-0.4,0.3-0.9,0.5-1.3,0.8c-0.3,0.2-0.5,0.3-0.8,0.5c-0.6,0.3-1.2,0.7-1.8,1.1c-0.5,0.3-1,0.6-1.5,0.8c-0.3,0.2-0.6,0.3-0.9,0.5
		c-0.3,0.1-0.5,0.3-0.8,0.4c-0.2,0.1-0.4,0.2-0.5,0.3c-0.3,0.1-0.5,0.3-0.8,0.4c-0.7,0.4-1.4,0.8-2.2,1.2c-0.1,0.1-0.3,0.2-0.5,0.2
		c-0.1,0.1-0.3,0.2-0.4,0.2c-0.6,0.3-1.3,0.7-2,1c-2,1-4,2-6.1,3.1c-0.4,0.2-0.8,0.4-1.2,0.6c0,0,0,0,0,0c-0.3,0.1-0.6,0.3-0.9,0.4
		c-0.7,0.3-1.3,0.6-2,0.9c0,0-0.1,0-0.1,0.1c-1.9,0.9-3.8,1.8-5.8,2.6c-0.5,0.2-1,0.4-1.5,0.7c-0.5,0.2-1,0.4-1.5,0.7
		c-0.5,0.2-1,0.4-1.5,0.7c-0.5,0.2-1,0.4-1.5,0.7c0,0,0,0,0,0c-2,0.9-4.1,1.7-6.2,2.6c-0.5,0.2-1,0.4-1.6,0.6
		c-0.5,0.2-1,0.4-1.6,0.6c0,0,0,0,0,0c-0.5,0.2-1,0.4-1.6,0.6c-2.6,1-5.3,2-7.9,3c-0.5,0.2-1.1,0.4-1.6,0.6
		c-1.1,0.4-2.1,0.8-3.2,1.2c-0.3,0.1-0.5,0.2-0.8,0.3c-0.3,0.1-0.6,0.2-0.8,0.3c-0.5,0.2-1.1,0.4-1.6,0.6c-1.5,0.5-3,1.1-4.5,1.6
		c-0.1,0-0.2,0.1-0.2,0.1c-0.5,0.2-1,0.4-1.6,0.5c-0.5,0.2-1,0.4-1.6,0.5c-1,0.3-2.1,0.7-3.1,1c-0.5,0.2-1,0.3-1.5,0.5h0
		c-0.5,0.2-1,0.3-1.5,0.5c0,0,0,0,0,0c-0.6,0.2-1.2,0.4-1.8,0.6c-1.4,0.5-2.9,0.9-4.3,1.3c0,0-0.1,0-0.1,0c-0.5,0.1-0.9,0.3-1.4,0.4
		c-0.5,0.2-1,0.3-1.5,0.4h0c-0.5,0.2-1,0.3-1.5,0.4c-0.5,0.1-1,0.3-1.5,0.4c0,0,0,0,0,0c-0.5,0.1-1,0.3-1.5,0.4
		c-0.5,0.1-1,0.3-1.5,0.4c-0.5,0.1-1,0.3-1.4,0.4c-0.2,0-0.4,0.1-0.6,0.2c-0.3,0.1-0.6,0.2-0.9,0.2c-0.4,0.1-0.8,0.2-1.2,0.3
		c-0.1,0-0.1,0-0.2,0.1c-2,0.5-4,1.1-5.9,1.5c-0.7,0.2-1.3,0.3-2,0.5c-0.6,0.2-1.3,0.3-1.9,0.5c-1.2,0.3-2.4,0.6-3.6,0.8
		c-4.3,1-8.3,1.7-11.8,2.2c-0.2,0-0.5,0.1-0.7,0.1c0,0,0,0,0,0c-0.3,0-0.5,0.1-0.8,0.1c-0.1,0-0.1,0-0.2,0c-1.4,0.2-2.7,0.3-3.9,0.4
		c-0.4,0-0.7,0.1-1.1,0.1c-0.4,0-0.9,0.1-1.3,0.1c-0.2,0-0.3,0-0.5,0c-0.6,0-1.2,0-1.8,0c-2.2,0-4-0.2-5.2-0.7
		c-0.1,0-0.3-0.1-0.4-0.2c0,0-0.1,0-0.1,0c-0.1-0.1-0.3-0.1-0.4-0.2c-0.1,0-0.2-0.1-0.3-0.1c-0.1-0.1-0.3-0.1-0.4-0.2
		c-0.2-0.1-0.4-0.2-0.6-0.3c0,0,0,0,0,0c-0.5-0.3-1-0.7-1.5-1.1c0,0,0,0,0,0c-0.1-0.1-0.2-0.2-0.3-0.2c-0.2-0.2-0.4-0.3-0.7-0.5
		c-0.9-0.8-1.8-1.6-2.8-2.6c-0.4-0.4-0.8-0.8-1.3-1.3c-0.9-0.9-1.8-1.9-2.8-3c-0.5-0.5-0.9-1.1-1.4-1.6c0,0,0,0,0,0
		c-0.4-0.4-0.7-0.8-1.1-1.3c-0.1-0.1-0.2-0.3-0.3-0.4c-0.2-0.2-0.4-0.4-0.6-0.7c-0.3-0.4-0.6-0.7-0.9-1.1c0,0,0,0,0,0
		c-0.3-0.4-0.6-0.7-0.9-1.1c-0.2-0.2-0.4-0.5-0.6-0.7c-0.4-0.5-0.8-1.1-1.3-1.6c-0.1-0.1-0.2-0.2-0.3-0.3c0,0,0,0,0,0
		c-0.5-0.6-1-1.3-1.5-1.9c-0.1-0.1-0.1-0.2-0.2-0.2c-0.2-0.3-0.5-0.6-0.7-0.9c0,0,0,0,0,0c-0.3-0.4-0.5-0.7-0.8-1.1
		c-0.2-0.2-0.3-0.4-0.5-0.6c-0.3-0.4-0.7-0.9-1-1.4c-0.1-0.1-0.1-0.2-0.2-0.2c-0.2-0.3-0.4-0.5-0.5-0.8c-0.4-0.6-0.9-1.2-1.3-1.8
		c-0.5-0.6-0.9-1.3-1.4-1.9c0,0-0.1-0.1-0.1-0.1c-0.1-0.2-0.3-0.4-0.4-0.6h0c1.7-0.4,3.3-0.9,5-1.3c2.4-0.6,4.7-1.3,7-2
		c98.7-28.9,135.3-78.3,147.8-102.4c4.5-8.7,6.5-18.7,6.5-18.7s1.6,2.1,1.6,2.5L280.7,86z"/>
</g>
</svg>
