<?xml version="1.0" encoding="utf-8"?>
<!-- Generator: Adobe Illustrator 22.0.1, SVG Export Plug-In . SVG Version: 6.00 Build 0)  -->
<svg version="1.1" id="Layer_1" xmlns="http://www.w3.org/2000/svg" xmlns:xlink="http://www.w3.org/1999/xlink" x="0px" y="0px"
	 viewBox="0 0 300 300" style="enable-background:new 0 0 300 300;" xml:space="preserve">
<style type="text/css">
	.st0{fill:#008DD3;}
	.st1{fill:#607D8B;}
	.st2{fill:#546E7A;}
	.st3{fill:#90A4AE;}
	.st4{fill:#CFD8DC;}
	.st5{fill:#B0BEC5;}
	.st6{fill:#78909C;}
	.st7{fill:#00B72D;}
	.st8{fill:#00C649;}
	.st9{fill:#75D394;}
	.st10{fill:#DC4437;}
	.st11{fill:#E5554E;}
	.st12{fill:#EA7771;}
	.st13{fill:#ECEFF1;}
	.st14{fill:#D9DFE2;}
	.st15{fill-rule:evenodd;clip-rule:evenodd;fill:#E8E8E8;}
	.st16{fill-rule:evenodd;clip-rule:evenodd;fill:#F0F1F2;}
	.st17{fill-rule:evenodd;clip-rule:evenodd;fill:#42E561;}
	.st18{fill-rule:evenodd;clip-rule:evenodd;fill:#3ECE56;}
</style>
<g>
	<g>
		<g>
			<circle class="st0" cx="150" cy="150" r="149.3"/>
		</g>
	</g>
	<g>
		<path class="st1" d="M283.5,240.1v24.2c-0.5,3.1-4.6,5.3-12.9,5.3H115.4c-8.4,0-12.4-2.2-12.9-5.3v-24.2c0.4,2.2,2.5,3.9,6.8,4.7
			c1.7,0.3,3.7,0.5,6.1,0.5h155.2c2.4,0,4.4-0.2,6.1-0.5C281,244,283.2,242.3,283.5,240.1z"/>
		<path class="st2" d="M276.8,244.8v24.3c4.2-0.8,6.4-2.6,6.8-4.7v-24.2C283.2,242.3,281,244,276.8,244.8z"/>
		<path class="st3" d="M270.6,245.4c-51.7,0-103.5,0-155.2,0c-10.8,0-14.4-3.6-12.5-8.1c8.6-21.6,15.6-43.1,24.3-64.7
			c1.9-4.5,7.1-8.1,14.1-8.1c34.5,0,69,0,103.5,0c7.1,0,12.3,3.6,14.1,8.1c8.6,21.6,15.6,43.1,24.3,64.7
			C285,241.7,281.4,245.4,270.6,245.4z"/>
		<path class="st4" d="M116.7,241.3c-5.3,0-8.9-1.8-8.1-4c7.8-21.6,15.5-43.1,23.3-64.7c0.8-2.2,4.4-4,8.1-4c35.4,0,70.7,0,106.1,0
			c3.6,0,7.3,1.8,8.1,4c7.8,21.6,15.5,43.1,23.3,64.7c0.8,2.2-2.8,4-8.1,4C218.4,241.3,167.6,241.3,116.7,241.3z"/>
		<path class="st5" d="M219.3,196.9c1.1,7.3-10.6,13.1-26.3,13.1c-15.6,0-27.4-5.9-26.3-13.1c1.1-7.3,12.9-13.1,26.3-13.1
			C206.4,183.7,218.2,189.6,219.3,196.9z"/>
		<path class="st3" d="M219.3,196.9c-0.6-3.8-4.2-7.3-9.4-9.7c0,0.1,0.1,0.3,0.1,0.4c1.1,7.3-10.6,13.1-26.3,13.1
			c-6.6,0-12.5-1-17-2.8c0.1,6.8,11.4,12.1,26.3,12.1C208.6,210,220.4,204.1,219.3,196.9z"/>
		<path class="st1" d="M211.2,196.9c0.5,5-7.6,9.1-18.2,9.1c-10.6,0-18.7-4.1-18.2-9.1c0.5-5,8.7-9.1,18.2-9.1
			C202.5,187.8,210.7,191.8,211.2,196.9z"/>
		<g>
			<path class="st6" d="M163.8,227.2c-0.6,5-10.5,9.1-22.2,9.1c-11.7,0-19.8-4.1-18.2-9.1c1.6-5,11.6-9.1,22.2-9.1
				C156.3,218.1,164.4,222.1,163.8,227.2z"/>
			<g>
				<path class="st7" d="M157.1,222v4.8c0,0.1,0,0.2,0,0.3c-0.5,3.3-7.1,6.1-14.8,6.1c-7.1,0-12.2-2.3-12.2-5.3v-4.8h0
					c0,0.8,0.4,1.6,1.2,2.2c1.9,1.8,6,3,11.1,3c6.1,0,11.5-1.7,13.7-4c0.6-0.6,1-1.3,1.1-2C157.1,222.2,157.1,222.1,157.1,222z"/>
			</g>
			<g>
				<path class="st8" d="M157.1,222.3c-0.5,3.3-7.1,6.1-14.8,6.1c-7.7,0-13.1-2.7-12.1-6.1c1-3.3,7.6-6.1,14.8-6.1
					C152.2,216.3,157.6,219,157.1,222.3z"/>
			</g>
			<g>
				<path class="st9" d="M155,220.8c-1.3-1.5-4.8-2.9-10.1-2.9c-6.8,0-12.6,2.6-13.2,4.9c-0.1,0.3-0.1,0.6,0.2,1.1
					c0,0.1,0.1,0.1,0.1,0.2c1.1,1.2,2.9,1.3,4.2,0.3c2.2-1.7,6.8-3.2,11.9-3.2c2.4,0,4.5,0.3,6.1,0.8
					C155,222.1,155.5,221.3,155,220.8C155,220.8,155,220.8,155,220.8z"/>
			</g>
		</g>
		<g>
			<path class="st6" d="M222.1,227.2c0.6,5,10.5,9.1,22.2,9.1c11.7,0,19.8-4.1,18.2-9.1c-1.6-5-11.6-9.1-22.2-9.1
				C229.7,218.1,221.5,222.1,222.1,227.2z"/>
			<path class="st10" d="M228.8,222v4.8c0,0.1,0,0.2,0,0.3c0.5,3.3,7.1,6.1,14.8,6.1c7.1,0,12.2-2.3,12.2-5.3v-4.8h0
				c0,0.8-0.4,1.6-1.2,2.2c-1.9,1.8-6,3-11.1,3c-6.1,0-11.5-1.7-13.7-4c-0.6-0.6-1-1.3-1.1-2C228.8,222.2,228.8,222.1,228.8,222z"/>
			<path class="st11" d="M228.8,222.3c0.5,3.3,7.1,6.1,14.8,6.1c7.7,0,13.1-2.7,12.1-6.1c-1-3.3-7.6-6.1-14.8-6.1
				C233.8,216.3,228.3,219,228.8,222.3z"/>
			<path class="st12" d="M254,222.1c-1.1-1.6-4.5-3.4-9.7-4c-6.7-0.8-12.8,1.2-13.7,3.4c-0.1,0.3-0.2,0.6,0.1,1.1
				c0,0.1,0.1,0.1,0.1,0.2c0.9,1.3,2.8,1.6,4.2,0.7c2.4-1.5,7.1-2.4,12.2-1.8c2.4,0.3,4.4,0.8,6,1.5
				C253.8,223.4,254.4,222.7,254,222.1C254,222.1,254,222.1,254,222.1z"/>
		</g>
		<path class="st13" d="M203.1,117.2v79.9c-0.1,2.7-4.5,4.8-10.1,4.8c-5.6,0-10-2.1-10.1-4.8v-79.9H203.1z"/>
		<path class="st14" d="M197,117.2v84.3c3.5-0.7,6-2.4,6.1-4.4v-79.9H197z"/>
		<path class="st13" d="M176.3,173.1c-0.3-0.8-1-1.3-1.9-1.3h-31.2c-4.9,0-7,1-8.1,4c-1,2.8-2,5.6-3,8.5c-0.6,1.7,0.6,3.5,2.4,3.5
			l0,0c1.1,0,2.1-0.7,2.4-1.7c0.7-2.1,1.5-4.1,2.2-6.2c1.4-4.1,4.4-4,8.1-4h27.2C175.9,175.8,176.8,174.5,176.3,173.1L176.3,173.1z"
			/>
		<g>
			<path class="st15" d="M172.7,52.9c19.3-12,44.6-6.1,56.7,13.1c12,19.3,6.1,44.6-13.1,56.7c-19.3,12-44.6,6.1-56.7-13.1
				C147.5,90.3,153.4,64.9,172.7,52.9z"/>
			<path class="st16" d="M173.8,123.3c-5.5-3.2-10.4-7.9-14-13.7c-10.3-16.6-7.4-37.7,5.9-50.9c16.1-8.8,36.5-3.6,46.4,12.2
				c10.2,16.4,5.2,38-11.2,48.2C192.5,124.3,182.7,125.5,173.8,123.3z"/>
			<path class="st17" d="M172.9,52.9c-3.7,2.3-7,5.2-9.7,8.4l0.6,0.5l7.3,6.1l8-5l8.1-5l-2.3-9.2l-0.2-0.7
				C180.6,48.9,176.6,50.6,172.9,52.9L172.9,52.9z M199.7,128.6l-0.3-1.1l-2.3-9.2l-9.5-0.7l-9.5-0.7l-2.9,7.2
				C182.8,128.1,191.3,129.7,199.7,128.6L199.7,128.6z M161.5,101.2l8-5l-2.3-9.2l-2.3-9.2l-9.5-0.7l-0.6,0
				c-2.4,8.8-1.8,18.3,1.9,27L161.5,101.2z"/>
			<polygon class="st17" points="185.3,76 194.7,76.7 204.2,77.4 206.5,86.6 208.7,95.8 200.7,100.8 192.7,105.8 185.4,99.7 
				178.1,93.6 181.7,84.8 			"/>
		</g>
		<path class="st18" d="M202.5,47.5l-0.2,0.5l-3.6,8.8l7.3,6.1l7.3,6.1l8-5l4.6-2.9C219.7,53.9,211.4,49.2,202.5,47.5L202.5,47.5z"
			/>
		<path class="st18" d="M235.8,86.5l-7.7-0.6l-3.6,8.8l-3.6,8.8l7.3,6.1l0.9,0.8C233.7,103.3,236,94.9,235.8,86.5L235.8,86.5z"/>
	</g>
</g>
</svg>
