<?xml version="1.0" encoding="utf-8"?>
<!-- Generator: Adobe Illustrator 22.0.1, SVG Export Plug-In . SVG Version: 6.00 Build 0)  -->
<svg version="1.1" id="Layer_1" xmlns="http://www.w3.org/2000/svg" xmlns:xlink="http://www.w3.org/1999/xlink" x="0px" y="0px"
	 viewBox="0 0 300 300" style="enable-background:new 0 0 300 300;" xml:space="preserve">
<style type="text/css">
	.st0{fill:#00BF5F;}
	.st1{fill:#96C2A7;}
	.st2{fill:#C5D8C6;}
	.st3{fill:#3BC0F4;}
	.st4{fill:#2F9CD3;}
	.st5{fill:#E0E0E0;}
	.st6{fill:#EAEAEA;}
	.st7{fill:#D8914A;}
	.st8{fill:#EDC469;}
	.st9{fill:#FFF0D9;}
	.st10{fill:#FADAB9;}
	.st11{fill:#FFFFFF;}
</style>
<g>
	<g>
		<circle class="st0" cx="149.8" cy="149.6" r="149.5"/>
	</g>
</g>
<g>
	<g>
		<g>
			<path class="st1" d="M279.3,19.2l-11.1,11.1c6,6,10.9,13.2,14.4,21.1c-10.2,3.4-20.4,6.8-30.6,10.2c14.7-4.9,29.5-9.8,44.2-14.7
				C292.8,36.3,287,26.9,279.3,19.2z"/>
			<path class="st2" d="M266.8,29c0.2,0.1,0.3,0.3,0.5,0.4c0.3,0.3,0.7,0.6,1,1l11.1-11.1c-0.3-0.3-0.7-0.6-1-1
				c-0.1-0.1-0.3-0.3-0.5-0.4l0,0c-7.4-6.9-16.3-12.2-26.2-15.4c-1.5,4.5-3,9.1-4.5,13.6C254.4,19.2,261,23.6,266.8,29
				C266.7,28.9,266.7,28.9,266.8,29z"/>
			<path class="st1" d="M88.3,210.1c7.6,7.6,17.1,13.4,27.7,16.8c1.5-4.5,3-9.1,4.5-13.6c-8-3.4-15.1-8.3-21.1-14.3L88.3,210.1z"/>
			<path class="st2" d="M99.5,198.9c-5.3-5.3-9.7-11.5-13.1-18.3c-0.4-0.9-0.9-1.8-1.3-2.8c-4.5,1.5-9.1,3-13.6,4.5
				c1,3.2,2.3,6.4,3.7,9.4c3.3,6.8,7.8,13,13.1,18.3l0,0L99.5,198.9L99.5,198.9z"/>
			<path class="st3" d="M246.3,52.3c-2.7-2.7-5.9-4.6-9.4-5.7c-5.8-1.8-12.1-1.4-17.7,1.3L235,63.6L246.3,52.3z"/>
			<path class="st4" d="M234.9,63.6l15.8,15.7c2.7-5.6,3.1-11.9,1.3-17.7c-1.1-3.4-3-6.7-5.7-9.4L234.9,63.6z"/>
			<path class="st3" d="M121.4,177l11.4-11.3l0,0L117,150c-2.7,5.6-3.1,11.9-1.3,17.7C116.8,171.1,118.7,174.3,121.4,177L121.4,177z
				"/>
			<path class="st4" d="M121.4,177c2.7,2.7,5.9,4.6,9.4,5.7c5.8,1.8,12.1,1.4,17.7-1.3l-15.8-15.7L121.4,177z"/>
			<polygon class="st5" points="158.8,139.7 156,142.5 183.8,170.3 186.6,167.5 			"/>
			<path class="st5" d="M153.2,145.2l-20.5,20.4l0,0l15.8,15.7l1,1c6.2,6.1,16.2,6,22.5-0.2l9.1-9.1L153.2,145.2L153.2,145.2z"/>
			<path class="st5" d="M214.5,84l27.8,27.8l9.1-9.1c6.3-6.3,6.4-16.3,0.2-22.5l-1-1l-15.8-15.7L214.5,84z"/>
			<polygon class="st5" points="211.7,86.8 211.7,86.8 208.9,89.6 236.7,117.4 239.5,114.7 			"/>
			<path class="st6" d="M214.5,84L214.5,84l20.4-20.4l-15.8-15.7l-1-1c-6.2-6.1-16.2-6-22.5,0.2l-9.1,9.1L214.5,84L214.5,84z"/>
			<polygon class="st6" points="211.7,86.8 183.9,59 181,61.8 208.9,89.6 			"/>
			<path class="st6" d="M153.2,145.2l-27.8-27.8l-9.1,9.1c-6.3,6.3-6.4,16.3-0.2,22.5l1,1l15.8,15.7L153.2,145.2z"/>
			<polygon class="st6" points="156,142.5 156,142.5 158.8,139.7 130.9,111.9 128.2,114.6 			"/>
			<path class="st7" d="M203.7,94.8c10.8,10.8,10.6,28.4-0.4,39.3c-11,11-28.6,11.1-39.4,0.4l-5.2,5.2l27.8,27.8l0,0l50.1-50.1l0,0
				l-27.8-27.8L203.7,94.8z"/>
			<path class="st8" d="M158.8,139.7l5.2-5.2l0,0c-10.8-10.8-10.6-28.4,0.4-39.3c11-11,28.6-11.1,39.4-0.4l0,0l5.2-5.2l-28-27.8
				l-50.1,50.1L158.8,139.7L158.8,139.7z"/>
			<path class="st9" d="M167.1,98c9.4-9.4,24.5-9.5,33.7-0.3l2.8-2.8c-10.8-10.8-28.4-10.6-39.4,0.4s-11.1,28.6-0.4,39.3l2.8-2.8
				C157.6,122.4,157.7,107.4,167.1,98z"/>
			<path class="st10" d="M200.9,97.6L200.9,97.6c9.2,9.2,9.1,24.3-0.3,33.7c-9.4,9.4-24.5,9.5-33.7,0.3l0,0l-2.8,2.8l0,0
				c10.8,10.8,28.4,10.6,39.4-0.4c11-11,11.1-28.6,0.4-39.3l0,0L200.9,97.6z"/>
			<path class="st3" d="M194.6,103.9l-17.9,17.9l0,0l-9.9,9.9c-9.2-9.2-9.1-24.3,0.3-33.7c9.4-9.4,24.5-9.5,33.7-0.3L194.6,103.9z"
				/>
			<path class="st5" d="M268.2,30.4l-21.9,21.9c2.7,2.7,4.6,5.9,5.7,9.4c10.2-3.4,20.4-6.8,30.6-10.2
				C279.1,43.5,274.2,36.4,268.2,30.4z"/>
			<path class="st6" d="M268.2,30.4c-0.3-0.3-0.7-0.6-1-1c-0.1-0.1-0.3-0.3-0.5-0.4l0,0c-5.7-5.4-12.3-9.7-19.6-12.9
				c-3.4,10.2-6.8,20.4-10.2,30.5c3.4,1.1,6.7,3,9.4,5.7L268.2,30.4z"/>
			<path class="st5" d="M121.4,177l-21.9,21.9c6,6,13.2,10.9,21.1,14.3c3.4-10.2,6.8-20.4,10.2-30.5
				C127.3,181.6,124.1,179.7,121.4,177L121.4,177z"/>
			<path class="st6" d="M99.5,198.9L99.5,198.9l21.9-21.9c-2.7-2.7-4.6-5.9-5.7-9.4c-10.2,3.4-20.4,6.8-30.6,10.2
				c0.4,0.9,0.8,1.9,1.3,2.8C89.7,187.5,94.1,193.6,99.5,198.9z"/>
			<polygon class="st3" points="153.2,145.2 156,142.5 156,142.5 128.2,114.6 128.2,114.6 125.4,117.4 			"/>
			<polygon class="st3" points="211.7,86.8 211.7,86.8 214.5,84 186.6,56.2 186.6,56.2 183.9,59 			"/>
			<polygon class="st4" points="156,142.5 153.2,145.2 181,173.1 181,173.1 183.8,170.3 			"/>
			<polygon class="st4" points="214.5,84 214.5,84 211.7,86.8 239.5,114.7 239.5,114.7 242.3,111.9 			"/>
		</g>
	</g>
	<path class="st4" d="M200.5,131.3c-9.4,9.4-24.5,9.5-33.7,0.3l9.9-9.9l17.9-17.9l6.2-6.2C210.1,106.9,209.9,122,200.5,131.3z"/>
	<g>
		<g>
			<path class="st11" d="M179.7,117.1c-0.2-1.5-1-3-2.6-4.6l-1.8-1.9c-1.6-1.6-3.1-2.4-4.5-2.6c-1.4-0.1-2.9,0.5-4.3,2
				c-1.4,1.4-2.1,2.9-1.9,4.4c0.2,1.4,1,3,2.7,4.6l1.6,1.6c1.6,1.6,3.1,2.4,4.6,2.6c0.8,0.1,1.6,0,2.3-0.3s1.4-0.8,2.1-1.5
				c0.7-0.7,1.2-1.5,1.6-2.2C179.7,118.6,179.8,117.8,179.7,117.1z M175.7,119.4c-0.6,0.6-1.2,0.8-1.9,0.5s-1.5-0.8-2.3-1.6
				l-1.9-1.9c-0.8-0.8-1.4-1.6-1.6-2.2c-0.3-0.7-0.1-1.3,0.6-1.9c0.6-0.6,1.3-0.8,1.9-0.6c0.7,0.2,1.4,0.8,2.2,1.6l1.9,1.9
				c0.8,0.8,1.4,1.6,1.7,2.3C176.5,118.1,176.3,118.7,175.7,119.4z M177.3,99.5l-2.4,2.4l7.9,13.9l2.4-2.4L177.3,99.5z M189.7,107
				c-1.3,1.3-1.9,2.5-1.9,3.8l5.7-5.8C192.2,105,190.9,105.7,189.7,107z"/>
		</g>
	</g>
	<polygon class="st6" points="192.7,126.5 190.2,128.9 182.8,115.8 185.2,113.4 	"/>
	<path class="st6" d="M203,114c-0.2-1.5-1-3-2.6-4.6l-1.8-1.8c-1.6-1.6-3.1-2.4-4.5-2.6c-0.2,0-0.3,0-0.5,0l-5.7,5.8
		c0,0.2,0,0.4,0,0.5c0.2,1.4,1.1,3,2.7,4.6l1.6,1.6c3.3,3.3,6.3,3.6,9,0.8C202.5,116.9,203.1,115.5,203,114z M198.9,116.2
		c-0.6,0.6-1.2,0.8-1.9,0.5s-1.5-0.8-2.3-1.6l-1.9-1.9c-0.8-0.8-1.4-1.6-1.6-2.2c-0.3-0.7-0.1-1.3,0.6-1.9c0.6-0.6,1.3-0.8,1.9-0.6
		c0.7,0.2,1.4,0.8,2.2,1.6l1.9,1.9c0.8,0.8,1.4,1.6,1.6,2.3C199.7,115,199.5,115.6,198.9,116.2z"/>
</g>
</svg>
