<?xml version="1.0" encoding="utf-8"?>
<!-- Generator: Adobe Illustrator 22.0.1, SVG Export Plug-In . SVG Version: 6.00 Build 0)  -->
<svg version="1.1" id="Layer_1" xmlns="http://www.w3.org/2000/svg" xmlns:xlink="http://www.w3.org/1999/xlink" x="0px" y="0px"
	 viewBox="0 0 300 300" style="enable-background:new 0 0 300 300;" xml:space="preserve">
<style type="text/css">
	.st0{fill:#008DD3;}
	.st1{fill:#423E3E;}
	.st2{fill:#CCE1E5;}
	.st3{fill:#AAD4D6;}
	.st4{fill:#494949;}
	.st5{fill:#48CDF7;}
	.st6{fill:#43C1F2;}
	.st7{fill:#BCDADD;}
	.st8{fill:#A6C7C9;}
	.st9{fill:#B6D9DD;}
	.st10{fill:#A5CAD6;}
	.st11{fill:#26ACEF;}
	.st12{opacity:0.51;}
	.st13{fill:#DFF6F7;}
	.st14{fill:#474747;}
	.st15{fill:#59DD79;}
	.st16{fill:#55C46C;}
	.st17{opacity:9.000000e-02;fill:#FFFFFF;}
</style>
<g>
	<path class="st0" d="M295.1,150c0,80.2-65,145.1-145.1,145.1c-80.2,0-145.2-65-145.2-145.1S69.9,4.8,150,4.8S295.1,69.8,295.1,150"
		/>
</g>
<g>
	<g>
		<path class="st1" d="M239.8,176.1c0.4,0,0.8,0.1,1.3,0.1C240.7,176.2,240.3,176.1,239.8,176.1c3.7,0.5,7.3,1.5,10.7,2.9
			c-0.4-0.2-0.7-0.3-1.1-0.5c3.5,1.5,6.9,3.3,10,5.7c-0.3-0.2-0.6-0.5-0.9-0.7c2.7,2.1,5.1,4.6,7.2,7.3c-0.2-0.3-0.5-0.6-0.7-0.9
			c2.5,3.3,4.6,6.9,6.2,10.7c-0.2-0.4-0.3-0.7-0.5-1.1c1.6,3.9,2.8,8,3.6,12.1c0.2,1.2,0.4,2.4,0.6,3.6c-0.1-0.4-0.1-0.8-0.2-1.2
			c0.5,3.9,0.7,7.7,0.6,11.6c0,1.2,0.5,2.4,1.3,3.2c0.8,0.8,2.1,1.4,3.2,1.3c1.2-0.1,2.4-0.4,3.2-1.3c0.8-0.9,1.3-2,1.3-3.2
			c0.2-5-0.2-10-1.1-14.9c-0.8-4.6-2-9.1-3.8-13.4c-1-2.4-2.1-4.8-3.4-7.1c-1.3-2.3-2.9-4.4-4.5-6.5c-3.1-3.9-6.9-7.2-11.1-9.7
			c-2.6-1.6-5.4-2.9-8.3-4c-2.9-1.2-6-2-9.1-2.5c-1.1-0.2-2.3-0.3-3.4-0.4c-1.1-0.1-2.5,0.6-3.2,1.3c-0.8,0.8-1.4,2.1-1.3,3.2
			c0.1,1.2,0.4,2.4,1.3,3.2c0.3,0.2,0.6,0.5,0.9,0.7C238.2,175.9,239,176.1,239.8,176.1L239.8,176.1z"/>
	</g>
	<g>
		<path class="st1" d="M284.2,236c0.4,0.4,0.8,0.8,1.2,1.2c0.1,0.1,0.2,0.2,0.3,0.3c0,0,0.1,0.1,0.1,0.1c0,0-0.3-0.4-0.2-0.2
			c0.2,0.2,0.4,0.5,0.5,0.7c0.3,0.5,0.6,1,0.8,1.5c0.1,0.1,0.1,0.2,0.2,0.3c0,0,0.1,0.2,0.1,0.2c0,0-0.2-0.5-0.1-0.3
			c0.1,0.3,0.2,0.5,0.3,0.8c0.4,1.1,0.6,2.2,0.8,3.3c0.1,0.5-0.1-0.5,0-0.1c0,0.1,0,0.2,0,0.4c0,0.3,0.1,0.6,0.1,0.9
			c0,0.6,0.1,1.1,0.1,1.7c0,1.3-0.1,2.5-0.2,3.8c-0.1,0.5,0.3,1.3,0.7,1.6c0.4,0.4,1.1,0.7,1.6,0.7c0.6,0,1.2-0.2,1.6-0.7
			c0.4-0.5,0.6-1,0.7-1.6c0.6-4.9,0.2-10.2-2.4-14.5c-0.8-1.3-1.7-2.4-2.9-3.4c-0.5-0.4-1-0.7-1.6-0.7c-0.6,0-1.2,0.3-1.6,0.7
			C283.4,233.6,283.2,235.2,284.2,236L284.2,236z"/>
	</g>
	<g>
		<path class="st1" d="M272.1,232.4c-3.9,3.6-5.2,9-5,14.2c0,1.5,0.2,3,0.5,4.5c0.1,0.5,0.6,1.1,1.1,1.4c0.5,0.3,1.2,0.4,1.8,0.2
			c0.6-0.2,1.1-0.5,1.4-1.1c0.3-0.6,0.3-1.1,0.2-1.8c0-0.1,0-0.3-0.1-0.4c0-0.1,0-0.1,0-0.2c0,0,0.1,0.6,0,0.3
			c0-0.3-0.1-0.6-0.1-0.9c-0.1-0.5-0.1-1.1-0.1-1.6c-0.1-1.1,0-2.2,0.1-3.4c0-0.3,0.1-0.5,0.1-0.8c0-0.3,0,0.4,0,0.3
			c0-0.1,0-0.2,0-0.2c0-0.1,0-0.3,0.1-0.4c0.1-0.6,0.2-1.1,0.4-1.7c0.1-0.5,0.3-1,0.5-1.5c0-0.1,0-0.1,0.1-0.2
			c0.1-0.3-0.2,0.5-0.1,0.2c0-0.1,0.1-0.2,0.1-0.3c0.1-0.3,0.3-0.5,0.4-0.8c0.1-0.3,0.3-0.5,0.5-0.8c0.1-0.1,0.2-0.3,0.3-0.4
			c0,0,0.1-0.1,0.1-0.1c0.2-0.3-0.1,0.1-0.1,0.2c0.4-0.5,0.9-1,1.3-1.5c0.9-0.8,0.9-2.4,0-3.2C274.4,231.5,273,231.5,272.1,232.4
			L272.1,232.4z"/>
	</g>
	<path class="st2" d="M205.7,173.3c0-10.7,10.9-11.8,24.3-11.8s24.3,1,24.3,11.8c0,10.7-10.9,19.4-24.3,19.4
		S205.7,184.1,205.7,173.3z"/>
	<path class="st3" d="M198.7,173.5c0-17.4,10.9-19.1,24.3-19.1c13.4,0,24.3,1.7,24.3,19.1s-10.9,31.5-24.3,31.5
		C209.6,204.9,198.7,190.8,198.7,173.5z"/>
	<circle class="st2" cx="279.3" cy="229.8" r="9.9"/>
	<circle class="st3" cx="279.3" cy="229.8" r="3.5"/>
	<g>
		<path class="st4" d="M159,166.9c-3.5,0.4-7,1-10.3,2.1c-3.1,1.1-6.1,2.4-9,4c-2.4,1.3-4.6,2.9-6.7,4.6c-1.8,1.4-3.4,3-4.9,4.8
			c-3.2,3.7-5.9,7.9-7.9,12.3c-2.1,4.6-3.6,9.3-4.6,14.3c-0.9,4.9-1.4,9.9-1.4,14.9c0,0.6,0,1.1,0,1.7c0,1.2,0.5,2.4,1.3,3.2
			c0.8,0.8,2.1,1.4,3.2,1.3c1.2-0.1,2.4-0.4,3.2-1.3c0.8-0.9,1.4-2,1.3-3.2c-0.1-3.9,0.1-7.8,0.6-11.6c-0.1,0.4-0.1,0.8-0.2,1.2
			c0.6-4.2,1.5-8.3,2.9-12.3c0.4-1.1,0.8-2.2,1.3-3.3c-0.2,0.4-0.3,0.7-0.5,1.1c1.6-3.8,3.6-7.4,6.2-10.7c-0.2,0.3-0.5,0.6-0.7,0.9
			c2.1-2.7,4.5-5.2,7.2-7.3c-0.3,0.2-0.6,0.5-0.9,0.7c3-2.3,6.4-4.2,10-5.7c-0.4,0.2-0.7,0.3-1.1,0.5c3.4-1.4,7-2.4,10.7-2.9
			c-0.4,0.1-0.8,0.1-1.2,0.2c0.4-0.1,0.8-0.1,1.3-0.1c0.6,0,1.2-0.1,1.8-0.4c0.6-0.2,1.1-0.5,1.5-0.9c0.8-0.8,1.4-2.1,1.3-3.2
			c-0.1-1.2-0.4-2.4-1.3-3.2C161.4,167.5,160.2,166.8,159,166.9L159,166.9z"/>
	</g>
	<g>
		<path class="st4" d="M111.4,232.8c-4,3.4-5.4,8.8-5.5,13.9c0,1.3,0.1,2.6,0.2,4c0.1,0.6,0.2,1.2,0.7,1.6c0.4,0.4,1.1,0.7,1.6,0.7
			c0.6,0,1.2-0.2,1.6-0.7c0.4-0.4,0.7-1,0.7-1.6c-0.3-2.2-0.3-4.5-0.1-6.7c0.1-0.5-0.1,0.5,0,0.1c0-0.1,0-0.3,0.1-0.4
			c0-0.3,0.1-0.6,0.2-0.8c0.1-0.5,0.3-1.1,0.4-1.6c0.1-0.2,0.2-0.5,0.2-0.7c0-0.1,0.1-0.3,0.1-0.4c0.2-0.5-0.2,0.4,0,0
			c0.2-0.5,0.5-1,0.8-1.5c0.2-0.3,0.3-0.5,0.5-0.8c0.1-0.1,0.2-0.3,0.3-0.4c0,0-0.3,0.4-0.2,0.2c0.1-0.1,0.1-0.2,0.2-0.2
			c0.4-0.5,0.9-1,1.4-1.4c0.9-0.8,0.9-2.5,0-3.2C113.7,231.9,112.4,231.9,111.4,232.8L111.4,232.8z"/>
	</g>
	<g>
		<path class="st4" d="M123.6,235.7c0.4,0.4,0.8,0.8,1.2,1.3c0,0,0.1,0.1,0.1,0.1c0.1,0.2-0.2-0.2-0.2-0.2c0.1,0,0.2,0.3,0.2,0.3
			c0.2,0.2,0.3,0.5,0.5,0.7c0.3,0.5,0.5,0.9,0.7,1.4c0.2,0.3-0.2-0.5,0-0.1c0.1,0.1,0.1,0.3,0.2,0.4c0.1,0.3,0.2,0.5,0.3,0.8
			c0.2,0.5,0.3,1,0.4,1.6c0.1,0.3,0.1,0.5,0.1,0.8c0,0.1,0.1,0.6,0,0.2c-0.1-0.4,0,0.1,0,0.2c0.1,1.1,0.2,2.2,0.1,3.4
			c0,0.6-0.1,1.2-0.1,1.8c0,0.3-0.1,0.6-0.1,1c0,0.1,0,0.1,0,0.2c0,0.3,0.1-0.5,0-0.3c0,0.2-0.1,0.4-0.1,0.5
			c-0.1,0.6-0.1,1.2,0.2,1.8c0.3,0.5,0.8,0.9,1.4,1.1c1.1,0.2,2.6-0.3,2.8-1.6c0.8-5.1,0.7-10.5-1.8-15.1c-0.7-1.3-1.7-2.5-2.8-3.5
			c-0.9-0.8-2.4-0.9-3.2,0C122.7,233.3,122.6,234.8,123.6,235.7L123.6,235.7z"/>
	</g>
	<circle class="st2" cx="119.5" cy="229.8" r="9.9"/>
	<circle class="st3" cx="119.5" cy="229.8" r="3.5"/>
	<path class="st2" d="M193.2,173.3c0-10.7-10.9-11.8-24.3-11.8c-13.4,0-24.3,1-24.3,11.8c0,10.7,10.9,19.4,24.3,19.4
		C182.3,192.8,193.2,184.1,193.2,173.3z"/>
	<path class="st5" d="M137.8,73.7H134c-1.7,0-3.1,1.4-3.1,3.1v13.9c0,1.7,1.4,3.1,3.1,3.1h3.8c1.7,0,3.1-1.4,3.1-3.1V76.8
		C140.9,75.1,139.5,73.7,137.8,73.7z"/>
	<path class="st3" d="M200.2,173.5c0-17.4-10.9-19.1-24.3-19.1c-13.4,0-24.3,1.7-24.3,19.1s10.9,31.5,24.3,31.5
		C189.3,204.9,200.2,190.8,200.2,173.5z"/>
	<path class="st2" d="M199.3,234.2h0.2c2.3,0,4.1,1.9,4.1,4.1v17.8c0,2.3-1.9,4.1-4.1,4.1h-0.2c-2.3,0-4.1-1.9-4.1-4.1v-17.8
		C195.2,236.1,197,234.2,199.3,234.2z"/>
	<path class="st3" d="M221.7,198.3c0-22.8-10-25-22.3-25s-22.3,2.2-22.3,25s10,41.3,22.3,41.3S221.7,221.1,221.7,198.3z"/>
	<path class="st2" d="M239.7,178.7c0-28.8-18-31.6-40.3-31.6s-40.3,2.8-40.3,31.6s18,52.2,40.3,52.2S239.7,207.5,239.7,178.7z"/>
	<path class="st6" d="M264.4,73.7h-3.8c-1.7,0-3.1,1.4-3.1,3.1v13.9c0,1.7,1.4,3.1,3.1,3.1h3.8c1.7,0,3.1-1.4,3.1-3.1V76.8
		C267.5,75.1,266.1,73.7,264.4,73.7z"/>
	<g>
		<g>
			<path class="st7" d="M201.9,30.4c0,12.1-0.7,22-1.7,22h-2.1c-0.9,0-1.7-9.9-1.7-22c0-12.1,0.7-22,1.7-22h2.1
				C201.1,8.5,201.9,18.4,201.9,30.4z"/>
		</g>
	</g>
	<g>
		<g>
			<path class="st8" d="M201.8,25.5c-0.2-9.7-0.8-17.1-1.6-17.1h-2.1c-0.8,0-1.4,7.3-1.6,17.1H201.8z"/>
		</g>
		<g>
			<path class="st8" d="M196.5,31.3c0,11.7,0.8,21.1,1.7,21.1h2.1c0.9,0,1.6-9.4,1.7-21.1H196.5z"/>
		</g>
	</g>
	<g>
		<path class="st9" d="M199.4,123.4h0.2c2.5,0,4.5,2,4.5,4.5v22c0,2.5-2,4.5-4.5,4.5h-0.2c-2.5,0-4.5-2-4.5-4.5v-22
			C194.9,125.4,196.9,123.4,199.4,123.4z"/>
	</g>
	<path class="st3" d="M206.1,142.7h-2v-3h-9.2v3h-2.3c-2.9,0-5.2,2.4-5.2,5.2v2c0,2.9,2.4,5.2,5.2,5.2h13.5c2.9,0,5.2-2.4,5.2-5.2
		v-2C211.4,145.1,209,142.7,206.1,142.7z"/>
	<g>
		<path class="st3" d="M204.1,136.5v-9.5c0-2-1.6-3.7-3.7-3.7h-1.8c-2,0-3.7,1.6-3.7,3.7v9.5H204.1z"/>
	</g>
	<g>
		<g>
			<path class="st7" d="M231.1,55.4c0,12.1-8.9,22-19.7,22H187c-10.9,0-19.7-9.9-19.7-22c0-12.1,8.9-22,19.7-22h24.4
				C222.2,33.4,231.1,43.3,231.1,55.4z"/>
		</g>
	</g>
	<g>
		<g>
			<path class="st10" d="M262.5,82.6c0,24-17.6,43.5-39.1,43.5H175c-21.5,0-39.1-19.6-39.1-43.5c0-23.9,17.6-43.5,39.1-43.5h48.3
				C244.9,39,262.5,58.6,262.5,82.6z"/>
		</g>
	</g>
	<g>
		<g>
			<path class="st2" d="M262.5,82.6c0.3,12.3-4.1,24.1-12.6,33.1c-18.3,19.6-52.8,21-77,13.8c-21.5-6.3-37.2-22.7-36.9-46.1
				C136.2,61.5,151.5,39,175,39h48.3c17.9,0,33.1,13.6,37.7,32C262,74.7,262.5,78.6,262.5,82.6z"/>
		</g>
	</g>
	<path class="st1" d="M229.4,67h-64.5c-7.8,0-14.1,6.3-14.1,14.1v5.4c0,7.8,6.3,14.1,14.1,14.1h64.5c7.8,0,14.1-6.3,14.1-14.1v-5.4
		C243.5,73.3,237.1,67,229.4,67z"/>
	<path class="st1" d="M239.2,71l-84.5,25.2c2.6,2.6,6.1,4.3,10.1,4.3h64.5c7.8,0,14.1-6.3,14.1-14.1v-5.4
		C243.5,77.2,241.8,73.6,239.2,71z"/>
	<g>
		<path class="st11" d="M168.4,88.7c-3.4,0-6.1-2.7-6.1-6.1c0-3.4,2.7-6.1,6.1-6.1c3.4,0,6.1,2.7,6.1,6.1
			C174.6,85.9,171.8,88.7,168.4,88.7z M168.4,78c-2.5,0-4.6,2.1-4.6,4.6c0,2.5,2.1,4.6,4.6,4.6c2.5,0,4.6-2.1,4.6-4.6
			C173,80,171,78,168.4,78z"/>
	</g>
	<g>
		<path class="st11" d="M225.8,88.7c-3.4,0-6.1-2.7-6.1-6.1c0-3.4,2.7-6.1,6.1-6.1s6.1,2.7,6.1,6.1
			C231.9,85.9,229.1,88.7,225.8,88.7z M225.8,78c-2.5,0-4.6,2.1-4.6,4.6c0,2.5,2.1,4.6,4.6,4.6s4.6-2.1,4.6-4.6
			C230.4,80,228.3,78,225.8,78z"/>
	</g>
	<g>
		
			<ellipse transform="matrix(0.7071 -0.7071 0.7071 0.7071 48.3043 145.0016)" class="st6" cx="199.2" cy="14.2" rx="9.5" ry="9.5"/>
	</g>
	<g class="st12">
		<path class="st13" d="M198.3,13.8c1-3.5,3.2-6,6-7.6c-1.5-1-3.3-1.5-5.2-1.5c-5.3,0-9.5,4.3-9.5,9.5c0,4.9,3.8,9,8.6,9.5
			C197.4,20.4,197.4,17,198.3,13.8z"/>
	</g>
	<circle class="st1" cx="199.4" cy="272.7" r="21.3"/>
	<g>
		<path class="st14" d="M220.6,272.5c-0.1-11.6-9.6-21-21.2-21c-11.7,0-21.1,9.4-21.2,21H220.6z"/>
		<path class="st3" d="M179.9,272.5c0.1-10.7,8.8-19.3,19.5-19.3c10.7,0,19.4,8.6,19.5,19.3h3.5c-0.1-6.1-2.4-11.8-6.7-16.1
			c-4.3-4.3-10.1-6.7-16.3-6.7s-11.9,2.4-16.3,6.7c-4.3,4.3-6.7,10-6.7,16.1H179.9z"/>
	</g>
	<circle class="st2" cx="199.4" cy="272.7" r="11.1"/>
	<circle class="st3" cx="199.4" cy="272.7" r="5"/>
	<circle class="st3" cx="200.2" cy="185.6" r="17.5"/>
	<circle class="st11" cx="200.2" cy="185.6" r="11.6"/>
	<path class="st15" d="M200.2,173.9c-6.4,0-11.6,5.2-11.6,11.6c0,1.8,0.4,3.4,1.1,4.9l12.8-16.3C201.7,174,200.9,173.9,200.2,173.9z
		"/>
	<path class="st16" d="M202.4,174.2l-12.8,16.3c0.4,0.8,0.8,1.5,1.3,2.2L205,175C204.2,174.6,203.3,174.3,202.4,174.2z"/>
	<path class="st15" d="M205,175L191,192.7c0.9,1.2,2.1,2.3,3.5,3l14.2-18C207.7,176.6,206.4,175.7,205,175z"/>
	<path class="st16" d="M208.7,177.7l-14.2,18c1.3,0.8,2.9,1.3,4.5,1.4l12.3-15.3C210.6,180.3,209.8,178.9,208.7,177.7z"/>
	<path class="st15" d="M198.9,197.1c0.4,0,0.8,0.1,1.3,0.1c6.4,0,11.6-5.2,11.6-11.6c0-1.3-0.2-2.6-0.6-3.8L198.9,197.1z"/>
	<path class="st17" d="M199.6,4.7C199.5,4.7,199.5,4.7,199.6,4.7c-0.2,0-0.3,0-0.4,0h0h0h0c-1.2,0-2.3,0.2-3.3,0.6
		c-0.3,0.1-0.6,0.2-0.9,0.4c-2,1-3.6,2.6-4.6,4.7c0,0.1-0.1,0.1-0.1,0.2c-0.3,0.7-0.5,1.5-0.6,2.3c-0.1,0.5-0.1,1-0.1,1.5
		c0,0.1,0,0.2,0,0.2c0,0,0,0.1,0,0.1c0,0.1,0,0.1,0,0.2c0,0,0,0.1,0,0.1c0,0,0,0.1,0,0.1c0,0,0,0.1,0,0.1c0,0,0,0.1,0,0.1
		c0,0,0,0.1,0,0.1c0,0,0,0.1,0,0.1c0,0,0,0.1,0,0.1c0,0,0,0.1,0,0.1c0,0,0,0.1,0,0.1c0,0,0,0.1,0,0.1c0,0,0,0.1,0,0.1
		c0,0,0,0.1,0,0.1c0,0,0,0.1,0,0.1c0,0,0,0.1,0,0.1c0,0,0,0.1,0,0.1c0,0,0,0.1,0,0.1c0,0,0,0.1,0,0.1c0,0,0,0.1,0,0.1
		c0,0,0,0.1,0,0.1c0,0,0,0.1,0,0.1c0,0,0,0.1,0,0.1c0,0,0,0.1,0,0.1c0,0,0,0.1,0,0.1c0,0,0,0.1,0,0.1c0,0,0,0.1,0,0.1
		c0,0.1,0,0.1,0.1,0.2c0,0,0,0,0,0c0,0.1,0.1,0.1,0.1,0.2c0,0,0,0.1,0,0.1c0,0,0,0.1,0.1,0.1c0,0,0,0.1,0,0.1c0,0,0,0.1,0.1,0.1
		c0,0,0,0.1,0,0.1c0,0,0,0.1,0.1,0.1c0,0,0,0.1,0,0.1c0,0,0,0.1,0.1,0.1c0,0,0,0.1,0.1,0.1c0,0,0,0.1,0.1,0.1c0,0,0,0.1,0.1,0.1
		c0,0,0,0.1,0.1,0.1c0,0,0,0.1,0.1,0.1c0,0,0,0.1,0.1,0.1c0,0,0,0.1,0.1,0.1c0,0,0,0.1,0.1,0.1c0,0,0,0.1,0.1,0.1c0,0,0,0.1,0.1,0.1
		c0,0,0,0.1,0.1,0.1c0,0,0,0.1,0.1,0.1c0,0,0,0.1,0.1,0.1c0,0,0,0.1,0.1,0.1c0,0,0,0.1,0.1,0.1c0,0,0,0.1,0.1,0.1c0,0,0,0.1,0.1,0.1
		c0,0,0,0.1,0.1,0.1c0,0,0,0.1,0.1,0.1c0,0,0,0,0.1,0.1c0.1,0.1,0.1,0.1,0.2,0.2c0,0,0,0,0,0c0,0,0.1,0.1,0.1,0.1c0,0,0,0,0.1,0.1
		c0,0,0.1,0.1,0.1,0.1c0,0,0,0,0.1,0.1c0,0,0.1,0.1,0.1,0.1c0,0,0,0,0.1,0.1c0,0,0.1,0.1,0.1,0.1c0,0,0,0,0.1,0.1
		c0,0,0.1,0.1,0.1,0.1c0,0,0.1,0,0.1,0.1c0,0,0.1,0.1,0.1,0.1c0,0,0.1,0,0.1,0.1c0,0,0.1,0.1,0.1,0.1c0,0,0.1,0,0.1,0.1
		c0,0,0.1,0,0.1,0.1c0,0,0.1,0,0.1,0.1c0,0,0.1,0,0.1,0.1c0,0,0.1,0,0.1,0.1c0,0,0.1,0,0.1,0.1c0,0,0.1,0,0.1,0.1c0,0,0.1,0,0.1,0.1
		c0,0,0.1,0,0.1,0c0,0,0.1,0,0.1,0.1c0,0,0.1,0,0.1,0c0,0,0.1,0,0.1,0.1c0,0,0,0,0.1,0c0,0,0.1,0,0.1,0.1c0,0,0,0,0,0
		c0.2,0.1,0.3,0.2,0.5,0.2c0,0,0,0,0.1,0c0,0,0.1,0,0.1,0.1c0,0,0,0,0.1,0c0,0,0.1,0,0.1,0.1c0,0,0.1,0,0.1,0c0,0,0.1,0,0.1,0
		c0,0,0.1,0,0.1,0c0,0,0.1,0,0.1,0c0,0,0.1,0,0.1,0c0,0,0.1,0,0.1,0c0,0,0.1,0,0.1,0c0,0,0.1,0,0.1,0c0,0,0.1,0,0.1,0c0,0,0,0,0.1,0
		c-0.1,2.2-0.1,4.6-0.1,7.1c0,1,0,2,0,2.9H187c-5,0-9.7,2.1-13.2,5.6c-4.4,0.1-8.4,1.1-12.2,2.6c-12.5,5.1-22.1,17.2-24.9,32H134
		c-1.7,0-3.1,1.4-3.1,3.1v13.9c0,1.7,1.4,3.1,3.1,3.1h2.9c3.7,17.9,17.8,30.4,35.9,35.7c6.7,2,14.3,3.3,22.1,3.8v9.4h-2.3
		c-2.7,0-5,2.1-5.2,4.8c-8.2,0.8-15.2,2.7-20.3,7.3c-6,0.8-10.9,2.8-13.5,8c-5.5,1.4-9.1,4.4-9.1,10.5c0,6.6,4.1,12.4,10.3,15.9
		c1.9,4.2,4.5,7.8,7.6,10.5c4,11.8,11.4,21.4,20.5,26.6c3.2,6.4,7.4,10.9,12.2,12.5v11.2c-4.5,0.8-8.7,3-12.1,6.4
		c-4.3,4.3-6.7,10-6.7,16.1h1.7c0,0.1,0,0.1,0,0.2c0,11.7,9.5,21.3,21.3,21.3c0.1,0,0.1,0,0.2,0V4.7z"/>
</g>
</svg>
