<?xml version="1.0" encoding="utf-8"?>
<!-- Generator: Adobe Illustrator 22.1.0, SVG Export Plug-In . SVG Version: 6.00 Build 0)  -->
<svg version="1.0" id="Layer_1" xmlns="http://www.w3.org/2000/svg" xmlns:xlink="http://www.w3.org/1999/xlink" x="0px" y="0px"
	 viewBox="0 0 300 300" enable-background="new 0 0 300 300" xml:space="preserve">
<g>
	<g>
		<g>
			<g>
				<path fill="#008DD3" d="M290.236,153.274c0,80.142-64.968,145.109-145.109,145.109c-80.142,0-145.109-64.967-145.109-145.108
					c0-80.142,64.967-145.11,145.109-145.11S290.236,73.133,290.236,153.274"/>
			</g>
		</g>
	</g>
	<g>
		<g>
			<path fill="#CA391A" d="M261.057,111.943c4.842,13.303,7.72,26.728,8.779,39.81c0.08,0.818,0.142,1.654,0.186,2.473
				c0.413,6.287,0.395,12.489-0.026,18.547c-0.069,1.041-0.152,2.076-0.246,3.115c-0.646,7.035-1.848,13.874-3.56,20.439
				c-0.227,0.906-0.483,1.797-0.739,2.689c-2.371,8.281-5.578,16.091-9.585,23.237c-0.432,0.774-0.879,1.542-1.329,2.299
				c-4.354,7.32-9.555,13.909-15.53,19.568l2.263,6.219l-29.683,10.804c-2.97,1.081-5.964,1.965-8.988,2.666
				c-15.634,3.657-31.874,2.356-47.444-3.085c-0.832-0.29-1.657-0.595-2.486-0.91c-7.662-2.899-15.136-6.809-22.268-11.643
				c-0.78-0.515-1.539-1.037-2.306-1.581c-5.517-3.921-10.833-8.387-15.854-13.372c-0.735-0.725-1.468-1.475-2.19-2.228
				c-4.216-4.371-8.217-9.11-11.953-14.188c-0.695-0.945-1.383-1.905-2.053-2.883c-3.245-4.627-6.256-9.509-9.023-14.649
				c-0.633-1.173-1.244-2.354-1.853-3.561c-2.418-4.783-4.63-9.762-6.584-14.931c-0.278-0.698-0.538-1.414-0.799-2.129
				c-0.261-0.716-0.521-1.432-0.757-2.145c-1.825-5.217-3.332-10.452-4.554-15.671c-0.309-1.315-0.6-2.613-0.87-3.919
				c-1.181-5.705-2.016-11.391-2.515-17.018c-0.104-1.184-0.194-2.362-0.269-3.532c-0.402-6.291-0.395-12.489,0.026-18.547
				c0.069-1.042,0.152-2.076,0.256-3.118c0.646-7.036,1.833-13.881,3.55-20.435c0.227-0.905,0.473-1.794,0.739-2.689
				c2.361-8.277,5.568-16.088,9.574-23.233c0.432-0.774,0.868-1.538,1.318-2.295c8.425-14.187,20.041-25.626,34.368-32.874
				c2.767-1.406,5.629-2.654,8.599-3.735l29.683-10.804l2.263,6.219c8.222,0.48,16.444,2.195,24.489,5.015l2.507,0.903
				c7.655,2.913,15.128,6.824,22.268,11.643c0.77,0.518,1.532,1.051,2.285,1.589c5.527,3.917,10.848,8.394,15.865,13.369
				c0.74,0.735,1.468,1.474,2.191,2.228c4.216,4.37,8.216,9.11,11.942,14.191c0.493,0.656,0.982,1.336,1.447,2.015
				C249.791,86.506,256.216,98.64,261.057,111.943z"/>
			<g>
				<g>
					<path fill="#B4240D" d="M156.937,18.633l0.194,0.534l-38.477,14.005c2.767-1.406,5.629-2.654,8.599-3.735L156.937,18.633z"/>
				</g>
				<g>
					<path fill="#B4240D" d="M183.69,29.867l-99.403,36.18c-0.451,0.757-0.887,1.521-1.319,2.295L186.196,30.77L183.69,29.867z"/>
				</g>
				<g>
					<path fill="#B4240D" d="M210.749,44.001L72.655,94.263c0.227-0.905,0.473-1.794,0.739-2.689l135.07-49.161
						C209.234,42.931,209.997,43.464,210.749,44.001z"/>
				</g>
				<g>
					<path fill="#B4240D" d="M228.804,59.598L68.849,117.817c0.069-1.042,0.152-2.076,0.256-3.118L226.614,57.37
						C227.353,58.105,228.082,58.844,228.804,59.598z"/>
				</g>
				<g>
					<path fill="#B4240D" d="M241.376,73.56l1.167,3.206l-173.45,63.131c-0.104-1.184-0.194-2.362-0.269-3.532L241.376,73.56z"/>
				</g>
				<g>
					<path fill="#B4240D" d="M248.306,92.601l1.361,3.74l-177.19,64.492c-0.309-1.315-0.6-2.613-0.87-3.919L248.306,92.601z"/>
				</g>
				<g>
					<path fill="#B4240D" d="M255.237,111.642l1.556,4.274L78.587,180.777c-0.278-0.698-0.538-1.414-0.799-2.129
						c-0.261-0.716-0.521-1.432-0.757-2.145L255.237,111.642z"/>
				</g>
				<g>
					<path fill="#B4240D" d="M262.361,131.216l1.361,3.74L87.024,199.269c-0.633-1.173-1.244-2.354-1.853-3.561L262.361,131.216z"/>
				</g>
				<g>
					<path fill="#B4240D" d="M269.486,150.792l1.167,3.206L98.1,216.801c-0.695-0.945-1.383-1.905-2.053-2.883L269.486,150.792z"/>
				</g>
				<g>
					<path fill="#B4240D" d="M276.611,170.367l0.972,2.671l-165.341,60.179c-0.735-0.725-1.468-1.475-2.19-2.228L276.611,170.367z"
						/>
				</g>
				<g>
					<path fill="#B4240D" d="M266.191,196.327c-0.227,0.906-0.483,1.797-0.739,2.689L130.403,248.17
						c-0.78-0.515-1.539-1.037-2.306-1.581L266.191,196.327z"/>
				</g>
				<g>
					<path fill="#B4240D" d="M255.867,222.253c-0.432,0.774-0.879,1.542-1.329,2.299l-99.381,36.172
						c-0.832-0.29-1.657-0.595-2.486-0.91L255.867,222.253z"/>
				</g>
				<g>
					<path fill="#B4240D" d="M241.077,249.805l0.194,0.534l-29.683,10.804c-2.97,1.081-5.964,1.965-8.988,2.666L241.077,249.805z"/>
				</g>
			</g>
			
				<ellipse transform="matrix(0.9397 -0.342 0.342 0.9397 -33.991 76.2031)" fill="#FF745C" cx="199.103" cy="134.494" rx="97.517" ry="123.285"/>
			<path fill="#E85E3C" d="M233.492,228.969c-17.807,6.481-38.204,3.52-57.434-8.335c-20.931-12.905-37.701-34.416-47.22-60.57
				s-10.499-53.411-2.761-76.752c7.111-21.443,20.833-36.822,38.639-43.303s38.204-3.52,57.433,8.336
				c20.931,12.905,37.701,34.416,47.22,60.57c9.519,26.153,10.499,53.411,2.761,76.752
				C265.021,207.109,251.299,222.488,233.492,228.969z"/>
			<path fill="#DB4B25" d="M269.371,108.917c9.516,26.146,10.499,53.414,2.766,76.751c-7.116,21.443-20.843,36.821-38.644,43.3
				c-1.806,0.657-3.636,1.214-5.486,1.682c15.243-7.424,26.976-21.798,33.36-41.062c7.743-23.341,6.761-50.609-2.755-76.755
				c-9.52-26.157-26.292-47.666-47.227-60.569C194.112,41.61,175.88,38.13,159.436,42.252c1.714-0.842,3.474-1.591,5.28-2.249
				c17.801-6.479,38.206-3.511,57.44,8.341C243.079,61.251,259.85,82.76,269.371,108.917z"/>
			<path fill="#E85E3C" d="M261.366,189.587c-1.674,5.042-3.716,9.755-6.097,14.1c-6.678,12.222-16.016,21.484-27.262,26.961
				c-12.126,3.039-25.229,1.935-38.206-3.116c-4.616-1.8-9.213-4.094-13.742-6.89c-20.923-12.91-37.704-34.432-47.216-60.581
				c-9.523-26.148-10.5-53.41-2.768-76.752c1.674-5.042,3.725-9.755,6.106-14.1c6.678-12.223,16.007-21.494,27.252-26.961
				c12.136-3.039,25.248-1.945,38.226,3.126c4.606,1.8,9.203,4.103,13.723,6.89c20.942,12.9,37.713,34.413,47.226,60.571
				C268.13,138.984,269.108,166.245,261.366,189.587z"/>
			<g>
				<path fill="#DB4B25" d="M231.401,146.722c-2.341-6.432-5.359-11.203-9.066-14.324c-3.695-3.112-7.576-5.065-11.629-5.851
					c-4.062-0.783-8.775-1.087-14.144-0.897l-9.039-24.835c5.675-1.069,11.843-0.446,18.519,1.863l8.741-3.182l-4.164-11.442
					l-5.464,1.989l-0.506-7.202c-7.297-2.972-15.351-3.406-24.144-1.31l-5.794-15.919l-10.299,3.749l5.902,16.216
					c-7.368,4.109-12.075,9.821-14.111,17.132c-2.049,7.302-1.6,15.002,1.342,23.086c2.375,6.527,5.411,11.346,9.118,14.467
					c3.695,3.111,7.601,5.083,11.705,5.904c4.105,0.822,8.902,1.176,14.381,1.053l8.879,24.395
					c-3.886,0.876-7.917,1.01-12.082,0.439c-0.172-0.024-0.341-0.055-0.512-0.081l-2.415-6.635l-8.741,3.182l0.822,19.883
					c3.949,2.09,8.614,3.381,13.993,3.847c5.379,0.465,10.673-0.034,15.903-1.493l5.798,15.931l10.299-3.748l-5.959-16.371
					c7.258-4.176,11.914-9.87,13.952-17.074C234.735,162.297,234.308,154.711,231.401,146.722z M177.833,123.863
					c-1.874-1.082-3.255-2.841-4.142-5.278c-0.921-2.532-1.106-4.969-0.559-7.323c0.544-2.339,1.957-4.428,4.251-6.259l7.551,20.745
					C182.073,125.578,179.699,124.948,177.833,123.863z M215.891,161.469c-0.596,2.196-1.993,4.145-4.176,5.815l-7.334-20.151
					c2.821,0.293,5.153,0.992,6.994,2.086c1.832,1.097,3.196,2.862,4.078,5.288C216.34,156.943,216.49,159.258,215.891,161.469z"/>
				<g>
					<path fill="#FF745C" d="M241.426,166.311c-2.037,7.204-6.694,12.897-13.952,17.074l5.958,16.37l-10.299,3.748l-5.798-15.931
						c-5.229,1.459-10.523,1.959-15.903,1.493c-5.379-0.465-10.044-1.757-13.993-3.847l-0.822-19.883
						c3.597,1.774,7.491,2.955,11.669,3.535c4.165,0.571,8.197,0.436,12.082-0.439l-8.879-24.395
						c-5.479,0.123-10.276-0.231-14.381-1.053c-4.105-0.822-8.011-2.793-11.705-5.904c-3.708-3.12-6.743-7.94-9.118-14.466
						c-2.942-8.084-3.391-15.783-1.342-23.086c2.036-7.311,6.743-13.023,14.111-17.132l-5.902-16.216l10.299-3.748l5.794,15.919
						c8.793-2.096,16.847-1.662,24.144,1.31l1.393,19.836c-6.677-2.309-12.844-2.932-18.519-1.863l9.039,24.835
						c5.368-0.19,10.082,0.114,14.144,0.897c4.054,0.786,7.934,2.74,11.629,5.851c3.708,3.12,6.725,7.892,9.066,14.324
						C243.05,151.53,243.476,159.116,241.426,166.311z M186.574,120.682c1.866,1.085,4.24,1.715,7.101,1.885l-7.551-20.745
						c-2.294,1.831-3.707,3.921-4.251,6.259c-0.548,2.354-0.363,4.791,0.559,7.323C183.32,117.841,184.7,119.6,186.574,120.682z
						 M224.632,158.287c0.6-2.211,0.45-4.526-0.437-6.963c-0.883-2.425-2.247-4.191-4.079-5.288
						c-1.841-1.094-4.173-1.793-6.994-2.086l7.334,20.151C222.638,162.432,224.036,160.483,224.632,158.287z"/>
				</g>
			</g>
		</g>
	</g>
</g>
</svg>
