<?xml version="1.0" encoding="utf-8"?>
<!-- Generator: Adobe Illustrator 22.0.1, SVG Export Plug-In . SVG Version: 6.00 Build 0)  -->
<svg version="1.0" id="Layer_1" xmlns="http://www.w3.org/2000/svg" xmlns:xlink="http://www.w3.org/1999/xlink" x="0px" y="0px"
	 viewBox="0 0 300 300" enable-background="new 0 0 300 300" xml:space="preserve">
<g>
	<g>
		<g>
			<circle fill="#FFBE00" cx="145.127" cy="154.873" r="145.127"/>
		</g>
	</g>
	<g>
		<path fill="#515759" d="M144.184,18.095c0,0-17.734,7.744-19.148,16.462c-7.347,34.668-16.986,43.842-56.394,65.418
			c-50.854,27.844-49.074,83.012-4.936,100.966s73.508-18.811,94.717-97.398C179.632,24.955,144.184,18.095,144.184,18.095z
			 M115.853,180.346c-23.672,38.456-60.334,19.802-63.437,1.834c-3.104-17.968,13.282-48.865,39.411-59.734
			s45.361-62.211,54.092-73.033C167.938,23.252,139.525,141.89,115.853,180.346z"/>
		<polygon fill="#FF8900" points="283.866,182.7 169.184,34.63 148.046,52.34 104.049,123.165 147.459,219.632 234.858,245.256 
			255.996,227.546 		"/>
		<g>
			<polygon fill="#FF981E" points="169.184,34.63 125.187,105.455 168.596,201.922 255.996,227.546 300,156.739 256.59,60.272 			
				"/>
			<polygon fill="#FF981E" points="180.988,187.695 144.561,106.745 176.865,54.744 244.198,74.497 280.625,155.447 
				248.316,207.434 			"/>
			<polygon fill="#FF981E" points="175.847,190.266 139.42,109.316 171.724,57.315 239.056,77.068 275.483,158.018 243.174,210.005 
							"/>
		</g>
		<polygon fill="#FF981E" points="169.184,34.63 125.187,105.455 168.596,201.922 255.996,227.546 300,156.739 256.59,60.272 		"/>
		<polygon fill="#FFB243" points="244.197,74.497 176.868,54.745 174.726,58.199 144.562,106.744 180.99,187.698 245.319,206.55 
			248.319,207.433 280.625,155.443 		"/>
		<polygon fill="#FF8900" points="280.625,155.443 248.319,207.433 245.319,206.55 275.483,158.014 239.055,77.068 174.726,58.199 
			176.868,54.745 244.197,74.497 		"/>
		<g>
			<polygon fill="#FF8900" points="229.807,133.639 238.219,105.382 213.058,110.192 209.792,106.6 200.511,83.123 191.64,86.63 
				192.124,118.468 170.475,132.162 195.935,147.029 203.973,179.056 212.844,175.549 215.005,162.671 219.224,156.405 
				245.841,162.504 254.712,158.997 233.084,139.538 			"/>
			<polygon fill="#FF981E" points="228.095,152.898 212.844,175.549 204.806,143.522 179.346,128.655 200.995,114.961 
				200.511,83.122 221.929,106.685 247.09,101.875 238.678,130.132 254.712,158.997 			"/>
		</g>
		<g>
			<path fill="#FF8900" d="M169.718,27.872c-3.153-6.761-11.19-9.686-17.95-6.533l-13.288,6.196
				c-6.761,3.153-9.686,11.189-6.533,17.95l9.097,19.508l37.771-17.613L169.718,27.872z M160.14,40.174
				c-2.08,0.97-4.552,0.07-5.522-2.01c-0.965-2.069-0.065-4.542,2.015-5.511l0.252-0.118c2.08-0.97,4.552-0.07,5.517,1.999
				c0.485,1.04,0.508,2.176,0.135,3.176c-0.357,1.006-1.105,1.861-2.144,2.346L160.14,40.174z"/>
			<path fill="#FF981E" d="M182.582,21.873c-3.153-6.761-11.189-9.686-17.95-6.533l-13.288,6.196
				c-6.761,3.153-9.686,11.189-6.533,17.95l9.097,19.508l37.771-17.613L182.582,21.873z M160.14,40.174
				c-2.08,0.97-4.552,0.07-5.522-2.01c-0.965-2.069-0.065-4.542,2.015-5.511l0.252-0.118c2.08-0.97,4.552-0.07,5.517,1.999
				c0.485,1.04,0.508,2.176,0.135,3.176c-0.357,1.006-1.105,1.861-2.144,2.346L160.14,40.174z"/>
			<path fill="#FF8900" d="M173.256,34.058l-12.864,5.999c1.04-0.485,1.787-1.34,2.144-2.346c0.373-1,0.35-2.136-0.135-3.176
				c-0.965-2.069-3.437-2.969-5.517-1.999l12.864-5.999c2.08-0.97,4.552-0.07,5.517,1.999c0.485,1.04,0.497,2.181,0.135,3.176
				C175.043,32.718,174.296,33.573,173.256,34.058z"/>
		</g>
		<path fill="#606666" d="M169.884,30.37l-15.459,7.034l-7.105-15.613c-1.067-2.344-3.831-3.38-6.175-2.313l15.691-7.14
			c4.434-2.018,9.664-0.059,11.682,4.375l3.555,7.812C173.083,26.743,172.103,29.36,169.884,30.37z"/>
	</g>
</g>
</svg>
