<svg version="1" xmlns="http://www.w3.org/2000/svg" viewBox="0 0 300 300"><circle fill="#9C25D3" cx="145.127" cy="154.873" r="145.127"/><path fill="#EAEAEA" d="M164.115 253.171c58.523 10.319 83.668 7.878 92.876 5.866a7.56 7.56 0 0 0 5.677-5.449c3.092-11.557 12.242-47.656 22.561-106.18 10.405-59.009 13.839-94.059 14.744-104.877A7.516 7.516 0 0 0 297.172 36c-7.197-5.716-29.33-18.776-89.579-29.399S122.079.68 113.361 3.59a7.512 7.512 0 0 0-4.866 5.179c-2.849 10.475-11.612 44.585-22.017 103.594-10.319 58.524-14.065 95.576-15.114 107.494a7.556 7.556 0 0 0 3.471 7.062c7.964 5.038 30.757 15.932 89.28 26.252"/><path fill="#FFDB43" d="M293.064 99.227c.401-2.271-43.439-12.131-97.954-21.744-54.53-9.615-99.098-15.344-99.498-13.072a1788.53 1788.53 0 0 0-9.138 48.065c-10.319 58.52-14.077 95.562-15.117 107.489a7.525 7.525 0 0 0 3.472 7.052c7.956 5.04 30.748 15.946 89.282 26.268 58.52 10.319 83.667 7.865 92.867 5.85a7.527 7.527 0 0 0 5.674-5.44c3.102-11.564 12.255-47.655 22.574-106.174 3.252-18.441 5.816-34.552 7.838-48.294z"/><path d="M256.592 87.449c1.043-8.826-4.957-17.04-13.822-18.603-9.186-1.62-17.946 4.516-19.566 13.702-.704 3.995 6.694 6.661 15.695 8.248 4.093.722 7.943 1.114 11 .959-.045 1.203 2.156 2.251 4.896 2.734 2.842.501 5.369.243 5.591-1.015.478-2.714-1.201-5.285-3.794-6.025zM143.016 62.816a7.72 7.72 0 0 0-8.942 6.262c-.322 1.825 2.912 3.879 7.026 4.604 4.114.725 7.855-.099 8.177-1.924a7.72 7.72 0 0 0-6.261-8.942z" fill="#F7D94A"/><path fill="#FCD206" d="M293.074 99.115c.401-2.272-43.479-11.905-97.995-21.517-54.531-9.615-99.057-15.571-99.458-13.299a1780.125 1780.125 0 0 0-9.137 48.064c-10.319 58.521-14.078 95.561-15.116 107.489a7.53 7.53 0 0 0 3.471 7.053c7.956 5.039 30.748 15.945 89.282 26.266 58.519 10.319 83.668 7.866 92.868 5.852a7.533 7.533 0 0 0 5.674-5.441c3.102-11.565 12.254-47.654 22.572-106.175 3.251-18.439 5.816-34.551 7.839-48.292"/><path fill="#FCD206" d="M285.234 147.408c-10.319 58.521-19.47 94.61-22.572 106.175a7.533 7.533 0 0 1-5.674 5.441c-9.2 2.014-34.349 4.467-92.868-5.852-58.535-10.321-81.326-21.227-89.282-26.266a7.53 7.53 0 0 1-3.471-7.053c1.039-11.928 4.797-48.969 15.116-107.489A1787.248 1787.248 0 0 1 95.62 64.3c-.401 2.271 43.478 11.904 98.008 21.519 54.515 9.613 99.044 15.569 99.444 13.297-2.021 13.74-4.586 29.852-7.838 48.292"/><path fill="#FFDB43" d="M293.074 99.115c-.401 2.271-44.929-3.685-99.444-13.297-54.531-9.616-98.41-19.248-98.009-21.519.401-2.272 44.967 3.455 99.498 13.071 54.516 9.612 98.355 19.473 97.955 21.745"/><path fill="#F2F2F2" d="M143.333 8.089a3.788 3.788 0 0 0-.967-.045v-.001c-8.965.72-14.765 2.092-18.339 3.284a11.326 11.326 0 0 0-7.327 7.783c-1.405 5.168-4.219 15.974-7.945 32.561a3.793 3.793 0 0 0 7.404 1.664c3.7-16.479 6.487-27.174 7.863-32.234.339-1.236 1.234-2.184 2.409-2.579 2.887-.963 8.084-2.238 16.544-2.917a3.794 3.794 0 0 0 .358-7.516"/><path fill="#F6DA58" d="M256.063 87.301a5.31 5.31 0 0 0-4.078.953c1.447.303 2.868.604 4.255.9.107-.229.185-.475.231-.739.058-.329.106-.658.144-.986a5.157 5.157 0 0 0-.552-.128"/><path fill="#F3DE79" d="M242.77 68.847c-9.174-1.618-17.927 4.5-19.562 13.669a1612.834 1612.834 0 0 1 28.776 5.737 5.31 5.31 0 0 1 4.631-.825c1.033-8.819-4.987-17.019-13.845-18.581"/><path fill="#FED724" d="M223.209 82.516l-.006.032c-.704 3.994 6.696 6.659 15.697 8.247 4.079.719 7.925 1.118 10.976.967a.952.952 0 0 1 .015-.139 5.306 5.306 0 0 1 2.094-3.37 1614.615 1614.615 0 0 0-28.776-5.737"/><path fill="#F3DE79" d="M256.616 87.428c-.038.328-.086.657-.144.986a2.948 2.948 0 0 1-.231.739c1.2.256 2.377.509 3.529.759a5.326 5.326 0 0 0-3.154-2.484"/><path fill="#FED724" d="M256.24 89.153c-.78 1.67-3.125 2.449-6.364 2.609-.038 1.202 2.185 2.245 4.919 2.727 2.84.501 5.368.244 5.59-1.016a5.311 5.311 0 0 0-.616-3.561c-1.152-.249-2.329-.503-3.529-.759"/><path fill="#FCD51B" d="M251.985 88.253a5.31 5.31 0 0 0-2.094 3.37 1.113 1.113 0 0 0-.015.139c3.239-.159 5.584-.938 6.364-2.609-1.387-.296-2.808-.596-4.255-.9"/><path fill="#F3DE79" d="M143.016 62.816a7.724 7.724 0 0 0-8.549 4.836c4.66.654 9.65 1.384 14.908 2.183a7.723 7.723 0 0 0-6.359-7.019"/><path fill="#FED724" d="M149.375 69.834a1333.754 1333.754 0 0 0-14.908-2.183 7.82 7.82 0 0 0-.394 1.425c-.322 1.826 2.912 3.88 7.027 4.606 4.113.725 7.856-.098 8.178-1.925a7.715 7.715 0 0 0 .097-1.923"/><path fill="#F9677F" d="M195.249 137.246a8.356 8.356 0 0 1-.364 5.248c-1.392 3.403-4.751 5.389-8.219 5.216a17.492 17.492 0 0 1-1.3 7.069c-3.672 8.974-13.918 13.27-22.891 9.6-5.934-2.428-9.805-7.74-10.694-13.655a3.773 3.773 0 0 1-1.206-.263 3.993 3.993 0 0 1-2.183-5.207l.081-.135a16.097 16.097 0 0 1-2.054-.673c-5.746-2.352-9.499-7.488-10.38-13.208l-.011-.068a16.684 16.684 0 0 1-2.455-.471c-.667-.17-1.329-.39-1.984-.658-8.45-3.456-12.495-13.104-9.044-21.543 2.498-6.107 8.22-9.889 14.393-10.227.156-1.285.465-2.571.98-3.826 3.024-7.392 11.473-10.936 18.866-7.912a14.403 14.403 0 0 1 6.578 5.389c5.538-3.144 12.418-3.816 18.775-1.215 8.406 3.438 13.465 11.603 13.358 20.178 6.024 4.157 8.568 12.07 5.68 19.126a15.86 15.86 0 0 1-5.926 7.235"/><path fill="#E8526F" d="M173.674 153.405c-4.949-2.024-7.326-7.7-5.299-12.655.104-.253.346-.731.348-.736l.574-1.139-1.179-.482c-.965-.397-2.438-1.408-3.233-2.417l-.515-.657-.79.27a11.702 11.702 0 0 1-8.188-.251c-3.796-1.553-6.456-4.901-7.118-8.957a1.177 1.177 0 0 0-1.353-.971 1.174 1.174 0 0 0-.972 1.351c.794 4.872 3.99 8.895 8.55 10.758a14.049 14.049 0 0 0 9.078.536c.764.791 1.7 1.479 2.55 1.97-1.176 3-1.059 6.199.08 8.975a3.345 3.345 0 0 1-3.133.313 3.376 3.376 0 0 1-1.375-1.036 1.18 1.18 0 0 0-1.854 1.457 5.772 5.772 0 0 0 2.338 1.76 5.68 5.68 0 0 0 5.127-.404 11.964 11.964 0 0 0 5.469 4.498 1.18 1.18 0 0 0 .895-2.183"/><path fill="#E8526F" d="M158.387 113.448l.982.403.528-.918a2.577 2.577 0 0 1 2.602-1.226l1.484.226-.086-1.5a5.612 5.612 0 0 1 .42-2.489c1.231-3.01 4.678-4.462 7.688-3.232a5.765 5.765 0 0 1 2.796 2.404l.811 1.351 1.094-1.12a9.087 9.087 0 0 1 9.928-2.023 1.213 1.213 0 1 0 .92-2.246 11.503 11.503 0 0 0-11.519 1.616 8.218 8.218 0 0 0-3.111-2.227c-4.242-1.736-9.101.312-10.84 4.563a8.386 8.386 0 0 0-.58 2.258 5.072 5.072 0 0 0-3.077 1.58 18.7 18.7 0 0 0-8.59-.904l-.021.003a7.532 7.532 0 0 0-.638-2.744 9.83 9.83 0 0 0 3.935-4.65 9.83 9.83 0 0 0-.032-7.577 1.214 1.214 0 1 0-2.237.937 7.432 7.432 0 0 1 .026 5.723 7.452 7.452 0 0 1-3.001 3.53c-.75-.84-1.671-1.536-2.761-1.983a1.215 1.215 0 0 0-1.582.662 1.217 1.217 0 0 0 .664 1.584c2.03.827 3.289 2.851 3.215 4.992-5.492 1.457-10.263 5.382-12.573 11.026a18.563 18.563 0 0 0-1.257 9.235c.814.22 1.629.376 2.455.471l.011.068-.004-.269a16.28 16.28 0 0 1 1.044-8.585c2.108-5.157 6.573-8.663 11.646-9.771l.051-.014.022-.004.083-.021a16.184 16.184 0 0 1 9.504.871"/><path fill="#E8526F" d="M192.069 128.002a6.301 6.301 0 0 0-3.892-5.205c-1.378-.566-2.848-.437-3.801-.242a6.16 6.16 0 0 0-2-2.027c1.013-3.877-.975-8.012-4.779-9.568a1.178 1.178 0 0 0-.892 2.181c2.94 1.203 4.351 4.578 3.148 7.524l-.447 1.09 1.09.447c1 .409 1.77 1.181 2.164 2.174l.429 1.067 1.078-.398c.017-.008 1.741-.631 3.121-.067a3.955 3.955 0 0 1 2.439 3.265 1.175 1.175 0 0 0 1.292 1.052 1.179 1.179 0 0 0 1.05-1.293m53.668 68.386c-.165.32-.347.631-.527.944-9.79 17.291-40.459 18.048-43.626 16.403-2.081-1.079-10.132-12.426-13.033-25.168l-.008-.023c-1.514-6.682-1.605-13.748 1.315-19.925.151-.327.303-.654.468-.973 4.658-8.982 15.712-12.484 24.686-7.831a18.297 18.297 0 0 1 9.008 10.663 18.265 18.265 0 0 1 13.897 1.217 18.168 18.168 0 0 1 6.987 6.378c3.407 5.328 3.956 12.294.833 18.315"/><path fill="#F9677F" d="M242.874 187.478c-.169.329-.342.643-.53.952-9.783 17.298-40.459 18.049-43.625 16.405-1.577-.819-6.576-7.515-10.169-16.267l-.008-.023c-1.514-6.682-1.605-13.748 1.315-19.925.151-.327.303-.654.468-.973 4.658-8.982 15.712-12.484 24.686-7.831a18.297 18.297 0 0 1 9.008 10.663 18.265 18.265 0 0 1 13.897 1.217 18.168 18.168 0 0 1 6.987 6.378 18.133 18.133 0 0 1-2.029 9.404"/><path fill="#FBC304" d="M119.487 210.61a2.782 2.782 0 1 1 .968-5.478 2.782 2.782 0 0 1-.968 5.478m-5.406-14.535a6.089 6.089 0 1 1 2.115-11.993 6.089 6.089 0 0 1-2.115 11.993m141.742 35.938a3.794 3.794 0 0 1-3.037-4.603 1260.072 1260.072 0 0 0 6.277-28.32 3.793 3.793 0 0 1 4.366-2.957c.042.007.084.016.127.025a3.793 3.793 0 0 1 2.932 4.491 1287.193 1287.193 0 0 1-6.314 28.493 3.796 3.796 0 0 1-4.351 2.871m-126.759-50.777a4.836 4.836 0 1 1 1.682-9.524 4.836 4.836 0 0 1-1.682 9.524m116.023-8.568a1.54 1.54 0 1 1 1.786-1.248 1.54 1.54 0 0 1-1.786 1.248m-57.162 2.12c.37-2.119.996-4.189 1.932-6.167.151-.327.303-.654.468-.973 3.778-7.286 11.764-10.966 19.435-9.613 1.787.315 3.556.903 5.251 1.782a18.297 18.297 0 0 1 9.008 10.663 18.34 18.34 0 0 1 8.651-.563 18.27 18.27 0 0 1 5.247 1.781 18.168 18.168 0 0 1 6.987 6.378c3.408 5.326 3.957 12.291.833 18.313-.165.32-.347.631-.527.944-9.077 16.033-36.103 17.85-42.515 16.719-.504-.089-.88-.196-1.111-.316-2.081-1.079-10.132-12.426-13.033-25.168l-.008-.023c-1.03-4.542-1.402-9.261-.618-13.757m54.789-7.633a2.782 2.782 0 1 1 .968-5.48 2.782 2.782 0 0 1-.968 5.48m-122.79-18.131a4.834 4.834 0 1 1 1.679-9.522 4.836 4.836 0 0 1-1.679 9.522m129.183 9.721a4.834 4.834 0 0 1 1.678-9.521 4.833 4.833 0 1 1-1.678 9.521m-132.828-24.112a6.09 6.09 0 1 1 2.113-11.995 6.09 6.09 0 0 1-2.113 11.995m123.736.443a6.089 6.089 0 1 1 7.054-4.939 6.09 6.09 0 0 1-7.054 4.939m-152.019 56.44a3.797 3.797 0 0 1-3.103-4.222c2.365-18.328 5.951-42.903 11.298-73.22a1869.374 1869.374 0 0 1 3.343-18.439h.002a3.793 3.793 0 0 1 4.387-3.04l.037.007a3.792 3.792 0 0 1 3.034 4.425c-1.088 5.826-2.2 11.947-3.331 18.362-5.325 30.198-8.894 54.658-11.244 72.874a3.795 3.795 0 0 1-4.423 3.253m165.838-77.319a4.834 4.834 0 1 1 1.679-9.521 4.833 4.833 0 1 1-1.679 9.521m-90.473-22.275a21.53 21.53 0 0 1 14.354-2.495c1.486.262 2.967.686 4.421 1.281 8.406 3.438 13.465 11.603 13.358 20.178 6.024 4.157 8.568 12.07 5.68 19.126a15.851 15.851 0 0 1-5.926 7.234 8.356 8.356 0 0 1-.364 5.248c-1.392 3.403-4.751 5.389-8.219 5.216a17.492 17.492 0 0 1-1.3 7.069c-3.185 7.785-11.32 12.05-19.277 10.647a17.621 17.621 0 0 1-3.614-1.046c-5.934-2.428-9.805-7.74-10.694-13.655a4.393 4.393 0 0 1-.485-.057 3.508 3.508 0 0 1-.721-.206 3.993 3.993 0 0 1-2.183-5.207l.081-.135a16.097 16.097 0 0 1-2.054-.673c-5.746-2.352-9.499-7.488-10.38-13.208l-.011-.068a13.967 13.967 0 0 1-.926-.134l-.061-.011-.138-.025a16.518 16.518 0 0 1-1.329-.302c-.667-.17-1.329-.39-1.984-.658-8.45-3.456-12.495-13.104-9.044-21.543 2.498-6.107 8.22-9.889 14.393-10.227.156-1.285.465-2.571.98-3.826 2.623-6.413 9.332-9.93 15.89-8.774 1.001.176 1.997.462 2.976.862a14.412 14.412 0 0 1 6.577 5.389m83.28 10.246a2.78 2.78 0 1 1 .965-5.477 2.78 2.78 0 0 1-.965 5.477m46.433-3.053c-.401 2.271-44.929-3.685-99.444-13.297-54.531-9.616-98.41-19.248-98.009-21.519a1780.125 1780.125 0 0 0-9.137 48.064C79.096 154.261 75.072 185.146 73 203.69c8.943 5.135 29.442 14.075 73.459 23.171.027-.179.056-.358.088-.537 2.107-11.948 13.502-19.925 25.45-17.818 11.949 2.107 19.927 13.501 17.821 25.448-.032.18-.065.357-.101.534 35.805 5.237 57.255 5.352 69.548 4.276l.004-.001.086-.007.01-.001.056-.005a92.306 92.306 0 0 0 5.714-.675 38.67 38.67 0 0 0 1.525-.234c4.399-18.134 11.189-48.535 18.577-90.433 3.249-18.44 5.814-34.552 7.837-48.293"/><path fill="#FBD40B" d="M103.923 92.597a3.793 3.793 0 0 0-4.387 3.04h-.002a1858.771 1858.771 0 0 0-3.343 18.439c-5.348 30.317-8.933 54.892-11.298 73.22a3.796 3.796 0 0 0 3.277 4.249 3.795 3.795 0 0 0 4.248-3.278c2.35-18.216 5.919-42.676 11.244-72.874a1876.18 1876.18 0 0 1 3.331-18.362 3.792 3.792 0 0 0-3.07-4.434m159.505 103.537a3.792 3.792 0 0 0-4.366 2.957 1257.598 1257.598 0 0 1-6.277 28.32 3.795 3.795 0 0 0 3.037 4.603 3.795 3.795 0 0 0 4.35-2.871 1287.193 1287.193 0 0 0 6.314-28.493 3.793 3.793 0 0 0-3.058-4.516"/><path fill="#F8604D" d="M135.101 131.038l-.061-.011.061.011m22.284 7.314a14.054 14.054 0 0 1-2.885-.834c-4.559-1.863-7.756-5.886-8.55-10.758a1.174 1.174 0 0 1 1.367-1.349c.479.084.875.462.958.969.662 4.056 3.322 7.404 7.118 8.957a11.702 11.702 0 0 0 8.188.251l.79-.27.515.657c.795 1.009 2.267 2.02 3.233 2.417l1.179.482-.574 1.139c-.003.005-.245.483-.348.736-2.027 4.955.35 10.632 5.299 12.655a1.18 1.18 0 1 1-.893 2.181 11.96 11.96 0 0 1-5.469-4.498 5.683 5.683 0 0 1-5.127.404 5.763 5.763 0 0 1-2.338-1.76 1.18 1.18 0 0 1 1.854-1.457 3.369 3.369 0 0 0 4.507.723 12.021 12.021 0 0 1-.08-8.975 11.981 11.981 0 0 1-2.55-1.97 14.013 14.013 0 0 1-6.194.3m25.703-12.91l-.429-1.067a3.882 3.882 0 0 0-2.164-2.174l-1.09-.447.447-1.09c1.203-2.946-.209-6.32-3.148-7.524a1.178 1.178 0 1 1 .893-2.181c3.804 1.556 5.792 5.69 4.779 9.568a6.16 6.16 0 0 1 2 2.027c.703-.143 1.687-.251 2.708-.071.363.064.732.164 1.093.313a6.3 6.3 0 0 1 3.892 5.205 1.176 1.176 0 0 1-1.616 1.211 1.175 1.175 0 0 1-.727-.971 3.955 3.955 0 0 0-2.439-3.265 3.092 3.092 0 0 0-.626-.177c-1.225-.216-2.481.238-2.495.245l-1.078.398m-5.372-36.015a21.528 21.528 0 0 0-14.354 2.495 14.403 14.403 0 0 0-6.578-5.389c-.979-.4-1.975-.685-2.976-.862-6.558-1.156-13.267 2.361-15.89 8.774a14.742 14.742 0 0 0-.98 3.826c-6.173.338-11.895 4.12-14.393 10.227-3.451 8.439.594 18.087 9.044 21.543.655.268 1.317.489 1.984.658a18.563 18.563 0 0 1 1.257-9.235c2.31-5.644 7.081-9.569 12.573-11.026.074-2.14-1.185-4.164-3.215-4.992a1.217 1.217 0 0 1-.664-1.584 1.217 1.217 0 0 1 1.582-.663c1.09.447 2.011 1.143 2.761 1.983a7.452 7.452 0 0 0 3.001-3.53 7.432 7.432 0 0 0-.026-5.723 1.213 1.213 0 1 1 2.237-.937 9.83 9.83 0 0 1 .032 7.577 9.84 9.84 0 0 1-3.935 4.65c.379.861.6 1.786.638 2.744l.021-.003a18.758 18.758 0 0 1 8.59.905 5.072 5.072 0 0 1 3.077-1.58 8.386 8.386 0 0 1 .58-2.258 8.332 8.332 0 0 1 9.137-5.056 8.32 8.32 0 0 1 1.703.493 8.21 8.21 0 0 1 3.111 2.227 11.493 11.493 0 0 1 9.131-2.307c.806.142 1.606.372 2.387.691.621.255.916.961.662 1.584a1.21 1.21 0 0 1-1.582.662 9.084 9.084 0 0 0-9.928 2.023l-1.094 1.12-.811-1.351a5.765 5.765 0 0 0-2.796-2.404 5.932 5.932 0 0 0-1.205-.349 5.91 5.91 0 0 0-6.482 3.581 5.626 5.626 0 0 0-.42 2.489l.086 1.5-1.484-.226a2.579 2.579 0 0 0-2.602 1.226l-.528.918-.982-.403a16.385 16.385 0 0 0-3.369-.975 16.124 16.124 0 0 0-6.138.102l-.083.021-.022.004-.051.014c-5.073 1.108-9.538 4.614-11.646 9.771a16.28 16.28 0 0 0-1.044 8.585l.004.269-.011-.068.011.068c.881 5.719 4.635 10.856 10.38 13.208.676.276 1.363.494 2.054.673l-.081.135a3.994 3.994 0 0 0 2.183 5.207c.237.097.477.163.721.206.161.028.322.047.485.057.889 5.915 4.76 11.227 10.694 13.655 1.188.486 2.399.832 3.614 1.046 7.957 1.403 16.092-2.862 19.277-10.647a17.49 17.49 0 0 0 1.3-7.069c3.469.173 6.827-1.813 8.219-5.216a8.356 8.356 0 0 0 .364-5.248 15.857 15.857 0 0 0 5.926-7.234c2.888-7.056.344-14.969-5.68-19.126.107-8.575-4.952-16.74-13.358-20.178a21.639 21.639 0 0 0-4.418-1.278"/><path fill="#E74C44" d="M147.317 125.411a1.174 1.174 0 0 0-1.367 1.349c.794 4.872 3.99 8.895 8.55 10.758a14.022 14.022 0 0 0 9.078.536c.764.791 1.7 1.479 2.55 1.97-1.176 3-1.059 6.199.08 8.975a3.345 3.345 0 0 1-3.132.313 3.376 3.376 0 0 1-1.375-1.036 1.172 1.172 0 0 0-.722-.431 1.18 1.18 0 0 0-1.132 1.888 5.772 5.772 0 0 0 3.521 2.102 5.683 5.683 0 0 0 3.944-.746 11.964 11.964 0 0 0 5.469 4.498 1.18 1.18 0 0 0 1.537-.644 1.18 1.18 0 0 0-.644-1.537c-4.949-2.024-7.326-7.7-5.299-12.655.104-.253.346-.731.348-.736l.574-1.139-1.179-.482c-.965-.397-2.438-1.408-3.233-2.417l-.515-.657-.79.27a11.7 11.7 0 0 1-8.188-.251c-3.796-1.553-6.456-4.901-7.118-8.957a1.177 1.177 0 0 0-.957-.971"/><path fill="#E74C44" d="M152.168 94.266a1.213 1.213 0 0 0-1.326 1.665 7.432 7.432 0 0 1 .026 5.723 7.452 7.452 0 0 1-3.001 3.53c-.75-.84-1.671-1.536-2.761-1.983a1.217 1.217 0 0 0-1.582.663 1.217 1.217 0 0 0 .664 1.584c2.03.827 3.289 2.851 3.215 4.992-5.492 1.457-10.263 5.382-12.573 11.026a18.563 18.563 0 0 0-1.257 9.235 16.518 16.518 0 0 0 1.467.327l.061.011a16.08 16.08 0 0 0 .926.134l.011.068-.004-.269a16.28 16.28 0 0 1 1.044-8.585c2.108-5.157 6.573-8.663 11.646-9.771l.051-.014.022-.004.083-.021c1.99-.42 4.071-.466 6.138-.102 1.132.2 2.261.523 3.369.975l.982.403.528-.918a2.577 2.577 0 0 1 2.602-1.226l1.484.226-.086-1.5a5.612 5.612 0 0 1 .42-2.489 5.91 5.91 0 0 1 6.482-3.581c.405.071.809.187 1.205.349a5.765 5.765 0 0 1 2.796 2.404l.811 1.351 1.094-1.12a9.083 9.083 0 0 1 9.928-2.023 1.21 1.21 0 0 0 1.582-.662 1.213 1.213 0 0 0-.662-1.584 11.664 11.664 0 0 0-2.387-.691 11.488 11.488 0 0 0-9.131 2.307 8.218 8.218 0 0 0-3.111-2.227 8.32 8.32 0 0 0-1.703-.493 8.33 8.33 0 0 0-9.137 5.056 8.386 8.386 0 0 0-.58 2.258 5.072 5.072 0 0 0-3.077 1.58 18.758 18.758 0 0 0-8.59-.905l-.021.003a7.532 7.532 0 0 0-.638-2.744 9.83 9.83 0 0 0 3.935-4.65 9.83 9.83 0 0 0-.032-7.577 1.22 1.22 0 0 0-.913-.731"/><path fill="#E74C44" d="M177.351 110.888a1.178 1.178 0 0 0-.647 2.252c2.94 1.203 4.351 4.578 3.148 7.524l-.447 1.09 1.09.447c1 .409 1.77 1.181 2.164 2.174l.429 1.067 1.078-.398c.014-.007 1.27-.461 2.495-.245.212.037.422.095.626.177a3.955 3.955 0 0 1 2.439 3.265 1.175 1.175 0 0 0 1.291 1.051 1.178 1.178 0 0 0 1.052-1.291 6.301 6.301 0 0 0-3.892-5.205 5.27 5.27 0 0 0-1.093-.313c-1.021-.18-2.005-.072-2.708.071a6.16 6.16 0 0 0-2-2.027c1.013-3.877-.975-8.012-4.779-9.568a1.247 1.247 0 0 0-.246-.071m67.552 67.188a18.135 18.135 0 0 1-2.029 9.403c-.169.329-.342.643-.53.952-9.07 16.037-36.1 17.852-42.514 16.721-.504-.089-.88-.195-1.111-.316-1.577-.819-6.576-7.515-10.169-16.267l-.008-.023c-1.029-4.542-1.401-9.261-.617-13.757-.784 4.496-.412 9.215.617 13.757l.008.023c2.901 12.742 10.951 24.088 13.033 25.168.231.12.607.227 1.111.316 6.412 1.131 33.438-.686 42.515-16.719.18-.313.362-.624.527-.944 3.124-6.023 2.575-12.989-.833-18.314"/><path fill="#F8604D" d="M209.76 158.035c-7.671-1.353-15.657 2.327-19.435 9.613-.165.319-.317.646-.468.973a24.07 24.07 0 0 0-1.932 6.167c-.784 4.496-.412 9.215.617 13.757l.008.023c3.592 8.751 8.591 15.448 10.169 16.267.23.12.607.227 1.111.316 6.414 1.131 33.444-.684 42.514-16.721a14.5 14.5 0 0 0 .53-.952 18.133 18.133 0 0 0 2.029-9.403 18.153 18.153 0 0 0-6.987-6.378 18.27 18.27 0 0 0-5.247-1.781 18.341 18.341 0 0 0-8.651.563c-1.433-4.44-4.54-8.344-9.008-10.663a18.309 18.309 0 0 0-5.25-1.781"/><path fill="#EBB704" d="M243.68 161.675a2.782 2.782 0 1 0-.965 5.48 2.782 2.782 0 0 0 .965-5.48m-123.227 43.457a2.781 2.781 0 1 0-.966 5.479 2.782 2.782 0 1 0 .966-5.479M247.607 96.69a2.78 2.78 0 1 0-.967 5.477 2.78 2.78 0 0 0 .967-5.477m-1.985 72.944a1.54 1.54 0 0 0-.535 3.034 1.54 1.54 0 1 0 .535-3.034m-129.426 14.448a6.089 6.089 0 1 0-2.115 11.993 6.089 6.089 0 1 0 2.115-11.993m2.198-61.442a6.09 6.09 0 1 0 4.939 7.054 6.089 6.089 0 0 0-4.939-7.054m123.736.443a6.089 6.089 0 1 0-2.115 11.993 6.089 6.089 0 0 0 7.054-4.939 6.088 6.088 0 0 0-4.939-7.054m-111.387 48.631a4.834 4.834 0 1 0 3.923 5.6 4.835 4.835 0 0 0-3.923-5.6m120.043-22.489a4.833 4.833 0 1 0-1.678 9.521 4.834 4.834 0 1 0 1.678-9.521m4.727-44.549a4.833 4.833 0 1 0-1.679 9.521 4.835 4.835 0 0 0 1.679-9.521m-133.91 34.826a4.835 4.835 0 1 0-1.68 9.52 4.835 4.835 0 0 0 1.68-9.52"/><path fill="#454D51" d="M264.185 257.678a7.664 7.664 0 0 1-5.797 5.551c-9.417 2.065-35.142 4.581-94.992-5.972-59.861-10.555-83.174-21.718-91.317-26.879a7.682 7.682 0 0 1-3.575-6.881l.025-.318c.33-3.699.904-9.757 1.851-18.089l.015.003c.075-.687.15-1.381.23-2.099a.768.768 0 0 1 .777-.691 11.23 11.23 0 0 1 1.734.165c-.045.422-.097.814-.139 1.222 10.291 5.91 35.889 16.86 95.033 27.289 56.714 10 84.621 8.993 97.103 7.098a36.834 36.834 0 0 0 1.536-.237c.1-.398.183-.784.287-1.196.731.129 1.305.287 1.701.418a.734.734 0 0 1 .486.883c-.771 3.108-4.113 16.565-4.958 19.733"/><path fill="#4B5459" d="M260.296 238.668c2.345-.228 4.195 1.934 3.614 4.218-.814 3.192-1.809 7.08-2.237 8.698a7.747 7.747 0 0 1-5.815 5.564c-9.399 2.053-35.124 4.571-94.974-5.982-40.111-7.073-67.937-17.088-81.938-22.927-6.262-2.61-10.055-9.029-9.358-15.779.247-2.411.97-8.857 1.04-9.488a.755.755 0 0 1 .768-.676c.447.011 1.069.053 1.742.172-.045.422-.097.814-.139 1.222 10.291 5.91 35.889 16.86 95.033 27.289 50.307 8.869 77.948 9.076 92.264 7.689"/><path fill="#4B5459" d="M189.817 233.953c-2.107 11.948-13.501 19.928-25.45 17.821-11.948-2.107-19.927-13.503-17.821-25.451 2.107-11.948 13.502-19.925 25.45-17.818 11.949 2.107 19.928 13.501 17.821 25.448"/><path fill="#309FD6" d="M184.397 233.001c-1.578 8.951-10.121 14.919-19.072 13.341-8.265-1.457-14.001-8.85-13.579-17.018.025-.673.1-1.354.221-2.041 1.578-8.949 10.122-14.933 19.073-13.355a16.403 16.403 0 0 1 11.524 8.225 16.332 16.332 0 0 1 1.833 10.848"/><path fill="#50AFEB" d="M182.341 224.197c-1.578 8.951-10.105 14.934-19.057 13.356-5.08-.896-9.209-4.04-11.538-8.228.025-.673.1-1.354.221-2.041 1.578-8.949 10.122-14.933 19.073-13.355a16.403 16.403 0 0 1 11.524 8.225 15.331 15.331 0 0 1-.223 2.043"/><path fill="#70C1F0" d="M166.645 215.391c-1.11-.196-2.607-.032-4.142.527-2.762 1.004-4.605 2.911-4.115 4.254.217.597.858.983 1.746 1.14 1.11.196 2.607.032 4.142-.527 2.762-1.006 4.607-2.91 4.115-4.254-.218-.597-.858-.983-1.746-1.14"/></svg>