<svg xmlns="http://www.w3.org/2000/svg" viewBox="0 0 102 102"><g fill="none" fill-rule="evenodd"><circle cx="51" cy="51" r="51" fill="#00C86F"/><path fill="#0AE382" d="M21 38h61V24H21z"/><path fill="#F8FFF9" d="M21 38h61v39H21z"/><g stroke="#242938" stroke-linecap="square" stroke-width="3"><path d="M31.5 48.5l8 8-8 8m12 0h12m-26-33h4m6 0h4m19 0h11m-52 7h60"/><path d="M21.5 24.5h60v52h-60z"/></g><path fill="#0AE382" d="M21 38h61V24H21z"/><path fill="#F8FFF9" d="M21 38h61v39H21z"/><g stroke="#242938" stroke-linecap="square" stroke-width="3"><path d="M31.5 48.5l8 8-8 8m12 0h12m-26-33h4m6 0h4m19 0h11m-52 7h60"/><path d="M21.5 24.5h60v52h-60z"/></g></g></svg>