<svg xmlns="http://www.w3.org/2000/svg" viewBox="0 0 102 102"><g fill="none" fill-rule="evenodd"><circle cx="51" cy="51" r="51" fill="#FF8C2A"/><path fill="#FFF7F1" stroke="#242938" stroke-linecap="square" stroke-width="3" d="M75.93 42.465c0-14.44-12.51-25.958-27.283-24.307-10.777 1.204-19.692 9.697-21.346 20.415-1.715 11.112 4.065 21.07 13.044 25.665v9.365c0 6.142 4.979 11.12 11.12 11.12 6.142 0 11.12-4.978 11.12-11.12v-9.365c7.916-4.051 13.345-12.27 13.345-21.773z"/><path fill="#242938" d="M50.979 84.723c6.333 0 11.468-5.134 11.468-11.468H39.51c0 6.334 5.134 11.468 11.468 11.468z"/><path stroke="#242938" stroke-width="3" d="M40.345 73.603h22.24"/><path fill="#FFB02A" stroke="#242938" stroke-linecap="square" stroke-width="3" d="M38.12 33.569h2.225c6.141 0 11.12 4.979 11.12 11.12v4.449h-2.224c-6.142 0-11.12-4.98-11.12-11.121v-4.448z"/><path stroke="#242938" stroke-linecap="square" stroke-width="3" d="M51.465 73.603V29.12"/><path fill="#FFB02A" stroke="#242938" stroke-linecap="square" stroke-width="3" d="M64.81 42.465h-2.224c-6.142 0-11.12 4.98-11.12 11.12v4.449h2.223c6.142 0 11.12-4.979 11.12-11.12v-4.449z"/></g></svg>