<svg xmlns="http://www.w3.org/2000/svg" viewBox="0 0 102 102"><g fill="none" fill-rule="evenodd"><circle cx="51" cy="51" r="51" fill="#F16165"/><path fill="#FF4F54" stroke="#242938" stroke-linecap="square" stroke-width="3" d="M62.315 44.658c1.275-.223 2.246-.335 2.914-.335 6.049 0 11.143 4.095 12.417 9.765.636-.157 1.273-.315 1.91-.315 4.457 0 7.96 3.465 7.96 7.875s-3.503 7.875-7.96 7.875h-17.24V44.658z"/><path fill="#FFF4F4" d="M31.515 23h38.769v56.215H31.515z"/><g transform="translate(46.208 55.077)"><circle cx="8.264" cy="8.264" r="5.785" stroke="#242938" stroke-linecap="square" stroke-width="3"/><path stroke="#242938" stroke-linecap="square" stroke-width="3" d="M8.264 2.48V0m4.09 4.173l1.753-1.753m-.059 5.844h2.716m-4.41 4.09l1.753 1.753m-5.843-.059v2.48m-4.091-4.174L2.42 14.107m.06-5.843H0m4.173-4.091L2.42 2.42"/><circle cx="8.264" cy="8.264" r="1" stroke="#242938" stroke-linecap="square" stroke-width="3"/><circle cx="8.264" cy="8.264" r="1" fill="#242938" fill-rule="nonzero"/></g><path stroke="#242938" stroke-width="3" d="M30 39.045V23h39.513v56.215H30v-8.723z"/><path stroke="#242938" stroke-linecap="square" stroke-width="3" d="M46.146 30.5h17m-17 6.785h17m-17 6.785h17"/></g></svg>