<svg xmlns="http://www.w3.org/2000/svg" viewBox="0 0 102 102"><g fill="none" fill-rule="evenodd"><circle cx="51" cy="51" r="51" fill="#7062DB"/><g transform="translate(28 12)"><circle cx="22.698" cy="42.302" r="22.698" fill="#F2F0FF"/><path fill="#9169FF" d="M10.833 10.04h4.563v10.952h-4.563zM19.96 0h4.563v18.254H19.96zM30 7.302h4.563v13.69H30z"/><path stroke="#242938" stroke-linecap="square" stroke-width="3" d="M20.342 17.063V0h4.726v17.063M10.89 20.617V9.452h4.726v8.664m14.178 0V6.301h4.726v14.316"/><path stroke="#242938" stroke-width="3" d="M44.061 49.882a22.664 22.664 0 0 0 1.35-7.729c0-12.54-10.166-22.705-22.706-22.705S0 29.613 0 42.153 10.166 64.86 22.705 64.86c3.59 0 6.984-.833 10-2.316"/><path fill="#F2F0FF" stroke="#242938" stroke-width="3" d="M35.64 49.127a14.627 14.627 0 0 0 1.757-6.974c0-8.114-6.577-14.692-14.692-14.692-8.114 0-14.691 6.578-14.691 14.692s6.577 14.692 14.691 14.692a14.63 14.63 0 0 0 8.85-2.963"/><circle cx="22.698" cy="42.302" r="6.19" fill="#6555E1" stroke="#242938" stroke-width="3"/><path fill="#9169FF" stroke="#242938" stroke-linecap="square" stroke-width="3" d="M31.367 49.034l20.946 1.904-5.712 5.713 11.425 11.425-7.617 7.617-11.425-11.426-5.713 5.713z"/></g></g></svg>