<svg version="1" xmlns="http://www.w3.org/2000/svg" viewBox="0 0 300 300"><path fill="#FFF" d="M150 300C67.29 300 0 232.71 0 150S67.29 0 150 0s150 67.29 150 150-67.29 150-150 150z"/><circle fill="#86BF5A" cx="150" cy="150" r="140.812"/><path fill="#D6566E" d="M214.21 196.482H85.79a7.993 7.993 0 0 1-7.993-7.993V98.99a3.724 3.724 0 0 1 3.724-3.724h136.96a3.724 3.724 0 0 1 3.726 3.723v89.496a7.994 7.994 0 0 1-7.994 7.992"/><path fill="#FF7182" d="M214.21 188.216H85.79a7.993 7.993 0 0 1-7.993-7.993v-81.23a3.724 3.724 0 0 1 3.724-3.723h136.96a3.724 3.724 0 0 1 3.726 3.724v81.228a7.995 7.995 0 0 1-7.994 7.994"/><path fill="#3D3D3D" d="M97.163 114.163h105.674v82.32H97.163v-82.32"/><path fill="#E2E2E2" d="M113.438 204.73H97.225a5.47 5.47 0 0 1-5.47-5.47v-85.1h27.153v85.097a5.47 5.47 0 0 1-5.47 5.47"/><path fill="#FFF" d="M113.438 196.482H97.225a5.47 5.47 0 0 1-5.47-5.47v-76.85h27.153v76.85a5.47 5.47 0 0 1-5.47 5.47"/><path fill="#E2E2E2" d="M143.217 204.73h-16.213a5.47 5.47 0 0 1-5.47-5.47v-85.1h27.153v85.097a5.47 5.47 0 0 1-5.47 5.47"/><path fill="#FFF" d="M143.217 196.482h-16.213a5.47 5.47 0 0 1-5.47-5.47v-76.85h27.153v76.85a5.47 5.47 0 0 1-5.47 5.47"/><path fill="#E2E2E2" d="M172.996 204.73h-16.213a5.47 5.47 0 0 1-5.47-5.47v-85.1h27.153v85.097a5.47 5.47 0 0 1-5.47 5.47"/><path fill="#FFF" d="M172.996 196.482h-16.213a5.47 5.47 0 0 1-5.47-5.47v-76.85h27.153v76.85a5.47 5.47 0 0 1-5.47 5.47"/><path fill="#E2E2E2" d="M202.775 204.73h-16.213a5.47 5.47 0 0 1-5.47-5.47v-85.1h27.153v85.097a5.47 5.47 0 0 1-5.47 5.47"/><path fill="#FFF" d="M202.775 196.482h-16.213a5.47 5.47 0 0 1-5.47-5.47v-76.85h27.153v76.85a5.47 5.47 0 0 1-5.47 5.47"/><path fill="#4C4C4C" d="M123.498 168.354h-6.555a4.007 4.007 0 0 1-4.007-4.007v-39.342h14.57v39.342a4.007 4.007 0 0 1-4.008 4.007z"/><path fill="#565656" d="M123.498 160.106h-6.555a4.007 4.007 0 0 1-4.007-4.007v-41.94h14.57v41.94a4.007 4.007 0 0 1-4.008 4.005"/><path fill="#4C4C4C" d="M153.277 168.354h-6.555a4.007 4.007 0 0 1-4.007-4.007v-39.342h14.57v39.342a4.007 4.007 0 0 1-4.008 4.007z"/><path fill="#565656" d="M153.277 160.106h-6.555a4.007 4.007 0 0 1-4.007-4.007v-41.94h14.57v41.94a4.007 4.007 0 0 1-4.008 4.005"/><path fill="#ED6979" d="M217.99 101.58H82.01c-2.327 0-4.213 1.473-4.213 3.29v15.602h13.957v-6.31h116.49v6.31h13.958v-15.6c0-1.82-1.885-3.293-4.212-3.293"/><path fill="#393939" d="M181.092 114.163h-2.625v6.31h2.625v-6.31"/><path fill="#EDEDED" d="M112.936 114.163H91.754v6.31h21.182v-6.31m29.78 0h-15.21v6.31h15.21v-6.31m35.75 0h-21.182v6.31h21.183v-6.31m29.78 0H181.09v6.31h27.154v-6.31"/><path fill="#505050" d="M127.505 114.163h-14.57v6.31h14.57v-6.31m29.78 0h-14.57v6.31h14.57v-6.31"/><path fill="#FF8095" d="M77.797 114.163v-15.6c0-1.82 1.886-3.293 4.213-3.293h135.98c2.327 0 4.213 1.474 4.213 3.292v15.6H77.797z"/></svg>