<svg version="1" xmlns="http://www.w3.org/2000/svg" viewBox="0 0 300 300"><path fill="#FFF" d="M149.999 300C67.29 300 0 232.71 0 150S67.29 0 149.999 0C232.71 0 300 67.29 300 150s-67.29 150-150.001 150"/><path fill="#EB595B" d="M290.812 150c0 77.768-63.043 140.813-140.812 140.813C72.232 290.813 9.188 227.768 9.188 150S72.232 9.188 150 9.188c77.768 0 140.812 63.043 140.812 140.812"/><path fill="#874C32" d="M183.241 178.818v5.76c0 18.36-14.886 25.712-33.237 25.712-18.361 0-33.246-7.352-33.246-25.712v-5.76c0-1.637.174-3.274.503-4.883l7.141-8.813a50.444 50.444 0 0 1 3.32-3.804 29.545 29.545 0 0 1-1.93-3.639c-1.234-2.771-1.966-5.696-1.966-8.65v-5.76c0-1.509.128-2.926.384-4.252h51.579c.256 1.326.384 2.743.384 4.252v5.76c0 2.954-.732 5.879-1.957 8.65a29.606 29.606 0 0 1-1.938 3.639c1.646 1.701 4.562 5.459 4.562 5.459l5.111 4.17v.009c.824 2.567 1.29 5.201 1.29 7.862z"/><path fill="#9B5F3E" d="M183.241 178.818c0 18.36-14.886 25.712-33.237 25.712-18.361 0-33.246-7.352-33.246-25.712 0-1.637.174-3.274.503-4.883 1.198-5.879 4.416-11.483 8.531-16.257l.023-.027c1.064-1.248 1.313-2.997.572-4.461-1.592-3.147-2.561-6.506-2.561-9.923 0-1.509.128-2.926.384-4.252 2.103-11.356 12.847-15.992 25.794-15.992 12.938 0 23.682 4.635 25.785 15.992.256 1.326.384 2.743.384 4.252 0 3.414-.968 6.771-2.558 9.916a4.029 4.029 0 0 0 .583 4.472l.019.022c3.402 3.959 6.2 8.485 7.735 13.268v.009c.823 2.569 1.289 5.203 1.289 7.864z"/><path fill="#4C4C4C" d="M164.374 180.233h-28.755a.995.995 0 0 1-.994-.995v-3.513c0-.549.445-.995.994-.995h28.755c.549 0 .995.446.995.995v3.513a.995.995 0 0 1-.995.995z"/><path fill="#565656" d="M164.374 178.275h-28.755a.995.995 0 0 1-.994-.995v-3.513c0-.549.445-.995.994-.995h28.755c.549 0 .995.446.995.995v3.513a.995.995 0 0 1-.995.995z"/><path fill="#874C32" d="M156.964 179.253h-13.935a.702.702 0 0 1-.702-.702v-4.097c0-.388.315-.702.702-.702h13.935c.388 0 .702.314.702.702v4.097a.701.701 0 0 1-.702.702z"/><path fill="#965A3C" d="M156.964 177.187h-13.935a.702.702 0 0 1-.702-.702v-4.098c0-.387.315-.702.702-.702h13.935c.388 0 .702.315.702.702v4.098a.702.702 0 0 1-.702.702z"/><path fill="#874C32" d="M154.974 97.442h-9.954a1.274 1.274 0 0 1-1.268-1.147l-1.815-17.986h16.121l-1.814 17.986a1.277 1.277 0 0 1-1.27 1.147"/><path fill="#9B5F3E" d="M155.155 74.043H144.84a3.021 3.021 0 0 0-3.001 3.369l1.898 16.381a1.274 1.274 0 0 0 1.266 1.128h9.989c.647 0 1.192-.485 1.266-1.128l1.898-16.381a3.023 3.023 0 0 0-3.001-3.369z"/><circle fill="#565656" cx="149.878" cy="146.565" r="11.404"/><path fill="#4C4C4C" d="M149.878 139.965c5.473 0 10.041 3.858 11.145 9.001.166-.775.259-1.577.259-2.402 0-6.298-5.106-11.403-11.404-11.403-6.299 0-11.404 5.105-11.404 11.403 0 .825.092 1.627.259 2.402 1.104-5.142 5.672-9.001 11.145-9.001z"/><path fill="#874C32" d="M154.543 136.152a11.238 11.238 0 0 0-4.659-.997c-1.575 0-3.072.315-4.437.892l1.234-39.048v-.013c0-.354.078-.67.21-.814l.131-.065h5.946l.197.144.092.249c.026.144.053.315.053.499l.013.421 1.22 38.732"/><path fill="#47170A" d="M152.975 96.098h-5.956c-.191 0-.342.407-.342.893v.152l.005-.143v-.013c0-.354.078-.67.21-.814l.131-.065h5.946l.197.144.092.249c.026.144.053.315.053.499l.007.232v-.241c-.001-.486-.152-.893-.343-.893"/><path fill="#47170A" d="M152.969 96.107h-5.946l-.131.065c-.131.144-.21.459-.21.814v.013l-.005.143v2.814h6.64v-2.725l-.007-.232c0-.184-.026-.354-.053-.499l-.092-.249-.196-.144"/><path fill="#3F3F3F" d="M150.674 174.652V79.006a.677.677 0 1 0-1.354 0v95.646a.677.677 0 1 0 1.354 0m-2.657 0V87.875a.645.645 0 0 0-1.29 0v86.777a.645.645 0 0 0 1.29 0m5.283 0V83.49a.679.679 0 0 0-1.356 0v91.161a.679.679 0 0 0 1.356.001"/></svg>