<svg version="1" xmlns="http://www.w3.org/2000/svg" viewBox="0 0 300 300"><path fill="#FFF" d="M150 300C67.29 300 0 232.71 0 150S67.29 0 150 0s150 67.29 150 150-67.29 150-150 150"/><path fill="#5EC2D7" d="M290.812 150c0 77.768-63.044 140.812-140.812 140.812C72.232 290.812 9.188 227.768 9.188 150S72.232 9.188 150 9.188c77.768 0 140.812 63.044 140.812 140.812"/><path fill="#E09D3C" d="M197.717 187.436v8.27c0 26.355-21.368 36.907-47.71 36.907-26.356 0-47.723-10.553-47.723-36.908v-8.27c0-2.348.25-4.698.722-7.008l10.25-12.653a72.374 72.374 0 0 1 4.766-5.46 42.496 42.496 0 0 1-2.77-5.224c-1.772-3.977-2.822-8.177-2.822-12.417v-8.27c0-2.165.184-4.2.55-6.102h74.04c.368 1.906.552 3.94.552 6.106v8.27c0 4.238-1.05 8.44-2.81 12.416a42.325 42.325 0 0 1-2.782 5.225c2.363 2.44 6.55 7.836 6.55 7.836l7.337 5.986v.012c1.18 3.69 1.85 7.47 1.85 11.287z"/><path fill="#FBBC4B" d="M197.717 187.436c0 26.356-21.368 36.908-47.71 36.908-26.356 0-47.723-10.553-47.723-36.908 0-2.35.25-4.7.722-7.01 1.72-8.44 6.34-16.484 12.246-23.336l.033-.04c1.527-1.79 1.884-4.3.822-6.4-2.285-4.52-3.677-9.34-3.677-14.246 0-2.166.184-4.2.55-6.103 3.02-16.3 18.442-22.953 37.027-22.953 18.572 0 33.994 6.655 37.013 22.956.367 1.904.55 3.94.55 6.104 0 4.9-1.39 9.72-3.67 14.236-1.067 2.11-.72 4.64.835 6.42l.027.03c4.883 5.683 8.9 12.18 11.104 19.045v.013c1.182 3.69 1.85 7.47 1.85 11.29z"/><path fill="#E09D3C" d="M161.204 185.242H138.79a.882.882 0 0 1-.882-.882v-3.74a.88.88 0 0 1 .882-.88h22.415a.88.88 0 0 1 .882.88v3.74a.884.884 0 0 1-.883.882z"/><path fill="#EDAB4A" d="M161.204 183.175H138.79a.882.882 0 0 1-.882-.882v-3.738c0-.487.395-.882.882-.882h22.415c.487 0 .882.395.882.882v3.738a.883.883 0 0 1-.883.882z"/><path fill="#E09D3C" d="M156.515 98.027H143.48a1.67 1.67 0 0 1-1.66-1.502l-2.377-23.553h21.11l-2.376 23.553a1.67 1.67 0 0 1-1.662 1.502"/><path fill="#FBBC4B" d="M156.75 67.387h-13.506a3.954 3.954 0 0 0-3.93 4.41L141.8 93.25a1.67 1.67 0 0 0 1.657 1.476h13.08a1.67 1.67 0 0 0 1.658-1.477l2.485-21.454a3.954 3.954 0 0 0-3.93-4.41z"/><path fill="#EDAB4A" d="M155.494 96.99v33.955c0 .5-.253.892-.573.892h-10.003c-.32 0-.573-.394-.573-.892V96.99c0-.486.253-.893.573-.893h10.006c.32 0 .574.408.574.893"/><path fill="#D09641" d="M154.92 96.098h-10.006c-.32 0-.573.407-.573.893v2.97h11.156v-2.97c0-.485-.253-.892-.574-.892"/><path fill="#E09D3C" d="M149.878 161.535c-9.66 0-17.52-7.86-17.52-17.52s7.86-17.52 17.52-17.52 17.52 7.86 17.52 17.52-7.86 17.52-17.52 17.52z"/><circle fill="#565656" cx="149.878" cy="144.015" r="14.895"/><path fill="#4C4C4C" d="M149.878 135.395c7.15 0 13.116 5.04 14.557 11.757.217-1.012.338-2.06.338-3.138 0-8.226-6.67-14.895-14.895-14.895-8.226 0-14.895 6.666-14.895 14.892 0 1.077.12 2.125.338 3.138 1.445-6.717 7.41-11.756 14.56-11.756z"/><path fill="#3F3F3F" d="M155.247 181.08a.656.656 0 0 1-.656-.655v-99.37a.656.656 0 1 1 1.315 0v99.37a.655.655 0 0 1-.656.656zm-5.25 0a.656.656 0 0 1-.656-.655V77.605a.656.656 0 1 1 1.315 0v102.82a.656.656 0 0 1-.656.656zm-5.25 0a.656.656 0 0 1-.656-.655V87.507a.656.656 0 1 1 1.315 0v92.917a.656.656 0 0 1-.656.657z"/></svg>