<svg version="1" xmlns="http://www.w3.org/2000/svg" viewBox="0 0 300 300"><path fill="#FFF" d="M150 300C67.29 300 0 232.71 0 150S67.29 0 150 0s150 67.29 150 150-67.29 150-150 150z"/><circle fill="#FBBC4B" cx="150" cy="150" r="140.812"/><path fill="#3F3F3F" d="M210.44 222.454H89.56a7.524 7.524 0 0 1-7.525-7.524v-71.388a3.505 3.505 0 0 1 3.505-3.505h128.92a3.505 3.505 0 0 1 3.505 3.505v71.388a7.524 7.524 0 0 1-7.524 7.524z"/><path fill="#3D3D3D" d="M117.428 160.498h65.143v61.956h-65.14z"/><path fill="#494949" d="M217.967 143.544v63.602a7.52 7.52 0 0 1-7.524 7.524H89.563a7.514 7.514 0 0 1-7.523-7.524v-63.602a3.504 3.504 0 0 1 3.497-3.51H214.46a3.506 3.506 0 0 1 3.507 3.51"/><path fill="#E2E2E2" d="M128.33 230.218h-16.21a5.47 5.47 0 0 1-5.47-5.47v-64.25h27.15v64.25a5.47 5.47 0 0 1-5.47 5.47"/><path fill="#FFF" d="M128.33 221.97h-16.21a5.47 5.47 0 0 1-5.47-5.47v-56.002h27.15v56a5.47 5.47 0 0 1-5.47 5.472"/><path fill="#E2E2E2" d="M158.11 230.218h-16.213a5.47 5.47 0 0 1-5.47-5.47v-64.25h27.153v64.25a5.47 5.47 0 0 1-5.47 5.47"/><path fill="#FFF" d="M158.11 221.97h-16.213a5.47 5.47 0 0 1-5.47-5.47v-56.002h27.153v56a5.47 5.47 0 0 1-5.47 5.472"/><path fill="#E2E2E2" d="M187.89 230.218h-16.214a5.47 5.47 0 0 1-5.47-5.47v-64.25h27.153v64.25a5.47 5.47 0 0 1-5.47 5.47"/><path fill="#FFF" d="M187.89 221.97h-16.214a5.47 5.47 0 0 1-5.47-5.47v-56.002h27.153v56a5.47 5.47 0 0 1-5.47 5.472"/><path fill="#4C4C4C" d="M138.39 200.138h-6.554a4.007 4.007 0 0 1-4.007-4.007v-24.79h14.566v24.79a4.007 4.007 0 0 1-4.007 4.01z"/><path fill="#565656" d="M138.39 191.89h-6.554a4.007 4.007 0 0 1-4.007-4.006V160.5h14.566v27.384a4.008 4.008 0 0 1-4.007 4.007"/><path fill="#4C4C4C" d="M168.17 200.138h-6.555a4.007 4.007 0 0 1-4.007-4.007v-24.79h14.57v24.79a4.007 4.007 0 0 1-4.008 4.01z"/><path fill="#565656" d="M168.17 191.89h-6.555a4.007 4.007 0 0 1-4.007-4.006V160.5h14.57v27.384a4.008 4.008 0 0 1-4.008 4.007"/><path fill="#424242" d="M214.458 140.035H85.536a3.504 3.504 0 0 0-3.497 3.51v22.83h24.604V160.5h86.712v5.876h24.607v-22.832a3.503 3.503 0 0 0-3.507-3.51"/><path fill="#E5E5E5" d="M127.83 160.498h-21.183v5.877h21.182v-5.877m29.776 0h-15.21v5.877h15.21v-5.877m35.752 0h-21.184v5.877h21.183v-5.877"/><path fill="#4D4D4D" d="M142.398 160.498h-14.57v5.877h14.57v-5.877m29.78 0h-14.57v5.877h14.57v-5.877"/><path fill="#494949" d="M82.033 160.498v-29.166c0-15.28 12.43-27.71 27.71-27.71 4.658 0 8.3-4.56 13.86-12.003 8.14-10.906 19.293-25.837 43.128-25.837 28.254 0 51.24 22.984 51.24 51.236v43.48H82.032z"/><path fill="#515151" d="M211.177 155.89h2.183v-38.87c0-25.752-20.876-46.628-46.628-46.628-28.194 0-36.35 22.6-46.72 32.864l91.165 52.635z"/></svg>