<svg xmlns="http://www.w3.org/2000/svg" version="1.0" viewBox="0 0 300 300"><circle cx="151.518" cy="151.34" r="150" fill="#FFF" transform="rotate(-45.001 151.517 151.343)"/><circle cx="151.518" cy="151.34" r="140.812" fill="#EB595B"/><path fill="#515151" d="M138.154 152.061l-6.908-6.908 66.883-66.884c3.815 3.815 3.815 10.001 0 13.816l-59.975 59.976z"/><path fill="#7A7979" d="M148.63 183.262l-2.626-2.626 77.246-77.246 1.056 1.056a7.831 7.831 0 010 11.076l-67.739 67.739a5.613 5.613 0 01-7.937.001z"/><path fill="#515151" d="M135.014 144.523l22.922 22.922-7.222 7.222-22.922-22.922z"/><path fill="#B7B7B7" d="M223.492 103.634c-2.112-2.036-5.515-1.88-7.59.195l-64.875 64.875-17.898-17.898 64.875-64.875c2.075-2.075 2.231-5.478.195-7.59a5.328 5.328 0 00-7.606-.071l-64.999 64.999-6.594 6.594a2.663 2.663 0 000 3.768l10.833 10.833-33.076 33.076c-5.371-2.275-11.856-1.1-16.071 3.534-4.955 5.447-4.872 13.938.182 19.294 5.521 5.851 14.742 5.952 20.391.303 4.217-4.217 5.226-10.422 3.035-15.595L137.37 172l10.833 10.833a2.663 2.663 0 003.768 0l6.594-6.594 64.999-64.999a5.33 5.33 0 00-.072-7.606z"/><circle cx="194.989" cy="81.41" r="3.109" fill="#FFF"/><circle cx="220.424" cy="106.844" r="3.109" fill="#FFF"/><path fill="#515151" d="M190.316 84.9l1.182 1.182a1.384 1.384 0 010 1.958l-62.728 62.728a1.384 1.384 0 01-1.958 0l-1.182-1.182a1.384 1.384 0 010-1.958L188.358 84.9a1.386 1.386 0 011.958 0zm-85.815 117.034l-1.776-1.776a.964.964 0 010-1.364l30.037-30.037a.964.964 0 011.364 0l1.776 1.776a.964.964 0 010 1.364l-30.037 30.037a.964.964 0 01-1.364 0zm111.249-91.599l1.182 1.182a1.384 1.384 0 010 1.958l-62.728 62.728a1.384 1.384 0 01-1.958 0l-1.182-1.182a1.384 1.384 0 010-1.958l62.728-62.728a1.384 1.384 0 011.958 0zM83.925 223.967c-6.177-3.565-8.857-10.902-6.812-17.443a15.233 15.233 0 011.326-3.015c4.131-7.155 13.308-9.613 20.463-5.482a14.941 14.941 0 016.811 8.526c1.197 3.856.845 8.178-1.326 11.933-4.131 7.154-13.307 9.612-20.462 5.481z"/><path fill="#B7B7B7" d="M83.925 215.049a14.941 14.941 0 01-6.811-8.526 15.233 15.233 0 011.326-3.015c4.131-7.155 13.308-9.613 20.463-5.482a14.941 14.941 0 016.811 8.526 15.326 15.326 0 01-1.326 3.016c-4.132 7.155-13.312 9.609-20.463 5.481zm13.094-17.457l.628-.628z"/><path fill="#B7B7B7" d="M98.118 196.177l7.538 7.538-1.22 1.22-7.539-7.538z"/></svg>