<?xml version="1.0" encoding="utf-8"?>
<!-- Generator: Adobe Illustrator 23.0.6, SVG Export Plug-In . SVG Version: 6.00 Build 0)  -->
<svg version="1.0" id="Camada_1" xmlns="http://www.w3.org/2000/svg" xmlns:xlink="http://www.w3.org/1999/xlink" x="0px" y="0px"
	 viewBox="0 0 300 300" enable-background="new 0 0 300 300" xml:space="preserve">
<g>
	<g>
		
			<ellipse transform="matrix(0.7071 -0.7071 0.7071 0.7071 -62.1321 149.9998)" fill="#FFFFFF" cx="150" cy="150" rx="150.5" ry="150.5"/>
		<circle fill="#EB595B" cx="150" cy="150" r="141.281"/>
	</g>
</g>
<g>
	<path fill="#969696" d="M106.616,211.495c4.148,1.04,7.223,4.781,7.223,9.251c0,5.273-4.275,9.548-9.548,9.548
		c-0.044,0-0.087-0.006-0.131-0.007c0.746,0.187,1.521,0.297,2.325,0.297c5.273,0,9.548-4.275,9.548-9.548
		C116.033,215.808,111.829,211.566,106.616,211.495z"/>
	<path fill="#969696" d="M107.532,228.355c-2.829-1.211-5.783-4.663-5.274-7.839c0.6-3.747,6.559-4.423,10.306-3.823
		c0.032,0.005-4.583-1.941-4.552-1.936c-0.508-0.218-1.047-0.384-1.618-0.476c-3.747-0.6-7.271,1.951-7.871,5.698
		C97.928,223.695,103.837,227.711,107.532,228.355z"/>
	<rect x="139" y="140" fill="#5B5B5B" width="18" height="12"/>
	<rect x="138.935" y="140" fill="#969696" width="13.871" height="12"/>
	<path fill="#98999B" d="M157.742,164h-17.484c-1.247,0-2.258-1.011-2.258-2.258v-7.484c0-1.247,1.011-2.258,2.258-2.258h17.484
		c1.247,0,2.258,1.011,2.258,2.258v7.484C160,162.989,158.989,164,157.742,164z"/>
	<path fill="#C9C9C9" d="M154.742,164h-17.484c-1.247,0-2.258-1.011-2.258-2.258v-7.484c0-1.247,1.011-2.258,2.258-2.258h17.484
		c1.247,0,2.258,1.011,2.258,2.258v7.484C157,162.989,155.989,164,154.742,164z"/>
	<path fill="#ADADAD" d="M161.661,209h-21.323c-1.844,0-3.339-1.495-3.339-3.339v-42.323c0-1.844,1.495-3.339,3.339-3.339h21.323
		c1.844,0,3.339,1.495,3.339,3.339v42.323C165,207.505,163.505,209,161.661,209z"/>
	<path fill="#E2E2E2" d="M156.661,209h-21.323c-1.844,0-3.339-1.495-3.339-3.339v-42.323c0-1.844,1.495-3.339,3.339-3.339h21.323
		c1.844,0,3.339,1.495,3.339,3.339v42.323C160,207.505,158.505,209,156.661,209z"/>
	<path fill="#969696" d="M167.597,225h-38.113C115.962,225,105,214.038,105,200.516v-0.032C105,186.962,115.962,176,129.484,176
		h42.726c1.541,0,2.79,1.249,2.79,2.79v38.806C175,221.685,171.685,225,167.597,225z"/>
	<polyline fill="#969696" points="173.629,176.387 168.194,173.484 168.194,183.484 	"/>
	<path fill="#E2E2E2" d="M164.613,222H124.5c-13.531,0-24.5-10.969-24.5-24.5v0c0-13.531,10.969-24.5,24.5-24.5h41.919
		c1.978,0,3.581,1.603,3.581,3.581v40.032C170,219.588,167.588,222,164.613,222z"/>
	<circle fill="#FFFFFF" cx="123" cy="198" r="15"/>
	<path fill="#E2E2E2" d="M153.9,141.717h-14.8c-16.072,0-29.1-13.029-29.1-29.1v-1.233c0-16.072,13.029-29.1,29.1-29.1h14.8
		c16.072,0,29.1,13.029,29.1,29.1v1.233C183,128.688,169.971,141.717,153.9,141.717z"/>
	<path fill="#FFFFFF" d="M123.129,133.516v-42C123.129,91.516,103.903,109.968,123.129,133.516L123.129,133.516z"/>
	<path fill="#E2E2E2" d="M104.613,211.258c-5.273,0-9.548,4.275-9.548,9.548s4.275,9.548,9.548,9.548s9.548-4.275,9.548-9.548
		S109.886,211.258,104.613,211.258z M104.613,225.581c-2.637,0-4.774-2.137-4.774-4.774s2.138-4.774,4.774-4.774
		s4.774,2.138,4.774,4.774S107.25,225.581,104.613,225.581z"/>
</g>
</svg>
