<svg xmlns="http://www.w3.org/2000/svg" version="1.0" viewBox="0 0 300 300"><circle cx="150" cy="150" r="150" fill="#FFF" transform="rotate(-45.001 149.999 150.002)"/><circle cx="150" cy="150" r="140.812" fill="#FBBC4B"/><path fill="#FFF" d="M205.126 87.655v124.69a6.557 6.557 0 01-6.563 6.563h-97.127a6.565 6.565 0 01-6.563-6.563V87.655c0-1.299.381-2.52 1.037-3.531a6.532 6.532 0 015.526-3.032h97.127a6.552 6.552 0 015.539 3.032 6.585 6.585 0 011.024 3.531z"/><g fill="none" stroke="#EDEDED" stroke-linecap="round" stroke-miterlimit="10"><path stroke-width="3" d="M104.113 199.214h91.786m-91.786-32.813h91.786m-91.786-32.813h91.786m-91.786-32.813h91.786"/><path d="M104.113 112.588h91.786m-91.786 9.188h91.786m-91.786 23.625h91.786m-91.786 9.188h91.786m-91.786 23.625h91.786m-91.786 9.188h91.786"/></g><path fill="#676766" d="M133.664 128.997v27.313a13.954 13.954 0 00-8.789-1.172c-5.858 1.109-10.47 5.962-11.25 11.873-1.18 8.942 6.068 16.524 14.91 15.911 7.187-.498 13.035-7.193 13.035-14.397v-34.786l27.399-6.416v18.667a13.953 13.953 0 00-8.786-1.172c-5.858 1.108-10.471 5.96-11.252 11.871-1.182 8.943 6.066 16.527 14.908 15.914 7.188-.498 13.036-7.184 13.036-14.389v-38.053c0-2.02-1.887-3.5-3.852-3.031l-36.959 8.826a3.127 3.127 0 00-2.4 3.041z"/><circle cx="150.005" cy="150" r="150" fill="#FFF" transform="rotate(-45.001 150.004 150.003)"/><circle cx="150.005" cy="150" r="140.812" fill="#FBBC4B"/><path fill="#FFF" d="M205.131 87.655v124.69a6.557 6.557 0 01-6.563 6.563h-97.127a6.565 6.565 0 01-6.563-6.563V87.655c0-1.299.381-2.52 1.037-3.531a6.532 6.532 0 015.526-3.032h97.127a6.552 6.552 0 015.539 3.032 6.577 6.577 0 011.024 3.531z"/><g fill="none" stroke="#EDEDED" stroke-linecap="round" stroke-miterlimit="10"><path stroke-width="3" d="M104.118 199.214h91.786m-91.786-32.813h91.786m-91.786-32.813h91.786m-91.786-32.813h91.786"/><path d="M104.118 112.588h91.786m-91.786 9.188h91.786m-91.786 23.625h91.786m-91.786 9.188h91.786m-91.786 23.625h91.786m-91.786 9.188h91.786"/></g><path fill="#676766" d="M133.67 128.997v27.313a13.954 13.954 0 00-8.789-1.172c-5.858 1.109-10.47 5.962-11.25 11.873-1.18 8.942 6.068 16.524 14.91 15.911 7.187-.498 13.035-7.193 13.035-14.397v-34.786l27.399-6.416v18.667a13.953 13.953 0 00-8.786-1.172c-5.858 1.108-10.471 5.96-11.252 11.871-1.182 8.943 6.066 16.527 14.908 15.914 7.188-.498 13.036-7.184 13.036-14.389v-38.053c0-2.02-1.887-3.5-3.852-3.031l-36.959 8.826a3.125 3.125 0 00-2.4 3.041z"/><path fill="#3D3D3D" d="M-360.336 53.716h-182.787c-5.523 0-10-4.477-10-10v-182.787c0-5.523 4.477-10 10-10h182.787c5.523 0 10 4.477 10 10V43.716c0 5.523-4.477 10-10 10z"/><path fill="#515151" d="M-461.73 53.716h-182.787c-5.523 0-10-4.477-10-10v-182.787c0-5.523 4.477-10 10-10h182.787c5.523 0 10 4.477 10 10V43.716c0 5.523-4.477 10-10 10z"/><path fill="#5E5E5E" d="M-563.123 53.716H-745.91c-5.523 0-10-4.477-10-10v-182.787c0-5.523 4.477-10 10-10h182.787c5.523 0 10 4.477 10 10V43.716c0 5.523-4.477 10-10 10z"/><circle cx="156.621" cy="145.585" r="35.716" fill="#FFFCDC" opacity=".56"/><path fill="#515151" d="M179.493 175.594c-19.116 14.791-46.862 8.222-57.317-13.57-7.618-15.878-3.031-35.253 10.898-46.03 19.116-14.791 46.862-8.222 57.317 13.57 7.618 15.878 3.031 35.253-10.898 46.03zm-38.981-59.545c-17.536 9.333-23.164 31.61-12.451 48.099 9.428 14.51 28.718 19.52 43.993 11.39 17.536-9.333 23.165-31.61 12.451-48.099-9.427-14.51-28.718-19.52-43.993-11.39z"/><path fill="#3D3D3D" d="M198.757 214.618a4.514 4.514 0 01-6.212-1.471l-18.971-30.74a3.097 3.097 0 011.009-4.261l2.413-1.489a3.097 3.097 0 014.261 1.009l18.971 30.74a4.513 4.513 0 01-1.471 6.212z"/><path fill="#515151" d="M181.887 178.84l-7.544 4.656a2.71 2.71 0 01-3.73-.883l-1.303-2.112a2.71 2.71 0 01.883-3.73l7.544-4.656a2.71 2.71 0 013.73.883l1.303 2.112a2.71 2.71 0 01-.883 3.73z"/></svg>