<svg xmlns="http://www.w3.org/2000/svg" version="1.0" viewBox="0 0 511 511"><ellipse cx="255.496" cy="255.5" fill="#FFF" rx="255.496" ry="255.495" transform="rotate(-45.001 255.495 255.504)"/><circle cx="255.504" cy="255.5" r="239.85" fill="#EB595B"/><path fill="#A8A8A8" d="M269.921 93.359v-2.894l-7.18-24.273h-9.877l-7.179 24.221v2.945c0 .947.174 1.38.76 1.759l1.252.808c.279.18.603.276.935.276h18.343c.332 0 .656-.096.935-.276l1.252-.808c.585-.377.759-1.037.759-1.758zm-2.877 50.789l39.984 100.449v9.817c0 1.618-1.776 2.216-3.509 1.399l-45.716-21.558-45.716 21.558c-1.733.817-3.509-.334-3.509-1.915v-9.419l39.984-100.33c3.086-7.383 15.397-7.383 18.482-.001z"/><path fill="#D6D6D6" d="M267.044 134.33l39.91 109.871c.509 1.456-1.702 2.611-3.435 1.794l-45.716-21.558-45.716 21.558c-1.733.817-3.944-.337-3.435-1.794l39.91-109.871c3.086-7.381 15.397-7.381 18.482 0z"/><path fill="#FFF" d="M291.477 221.748l-27.402-11.254-6.277-13.172h-24.724a1.053 1.053 0 0 1-.99-1.413l16.481-45.376c3.089-7.386 15.392-7.386 18.481 0l25.496 70.193a.807.807 0 0 1-1.065 1.022z"/><path fill="#A8A8A8" d="M266.105 169.56h-16.597a.374.374 0 0 1-.374-.375v-9.425c0-.207.168-.375.374-.375h16.597c.207 0 .375.168.375.375v9.425a.375.375 0 0 1-.375.375z"/><path fill="#D6D6D6" d="M266.105 168.147h-16.597a.374.374 0 0 1-.374-.374v-9.425c0-.207.168-.374.374-.374h16.597c.207 0 .375.168.375.374v9.425a.375.375 0 0 1-.375.374z"/><path fill="#A8A8A8" d="M264.721 179.312h-13.835a1.126 1.126 0 0 1-1.126-1.126v-1.797h16.088v1.797a1.127 1.127 0 0 1-1.127 1.126z"/><path fill="#D6D6D6" d="M264.916 178.22h-14.225a.932.932 0 0 1-.932-.932v-1.797c0-.515.417-.932.932-.932h14.225c.515 0 .932.417.932.932v1.797a.933.933 0 0 1-.932.932z"/><path fill="#A8A8A8" d="M267.506 201.159H248.1a1.58 1.58 0 0 1-1.58-1.58v-2.52h22.566v2.52a1.58 1.58 0 0 1-1.58 1.58z"/><path fill="#D6D6D6" d="M267.779 199.626h-19.952a1.307 1.307 0 0 1-1.307-1.307v-2.521c0-.722.585-1.307 1.307-1.307h19.952c.722 0 1.307.585 1.307 1.307v2.521c0 .722-.585 1.307-1.307 1.307zm2.142-110.617L263 61.794a1.808 1.808 0 0 0-1.752-1.362h-6.889c-.827 0-1.548.561-1.752 1.362l-6.921 27.215c-.126.686.174 1.38.76 1.759l1.252.808c.279.18.603.276.935.276h18.343c.332 0 .656-.096.935-.276l1.252-.808a1.726 1.726 0 0 0 .758-1.759zm-6.829 6.333v67.251c0 .656-.24 1.173-.543 1.173h-9.484c-.304 0-.543-.518-.543-1.173V95.342c0-.639.24-1.174.543-1.174h9.484c.303.001.543.536.543 1.174z"/><path fill="#E0E0E0" d="M263.092 95.342v1.986h-10.57v-1.986c0-.639.24-1.174.543-1.174h9.484c.303.001.543.536.543 1.174z"/><path fill="none" stroke="#FFF" stroke-linecap="round" stroke-miterlimit="10" d="M257.807 197.322V76.918"/><path fill="#A8A8A8" d="M252.059 228.691h11.489v53.617h-11.489z"/><path fill="#D6D6D6" d="M307.62 271.067c-.678 0-1.346.042-2.004.117a8.268 8.268 0 0 0-.936-.056h-91.064a17.99 17.99 0 0 0-1.4-.06c-.546 0-1.086.029-1.62.077a8.34 8.34 0 0 0-1.645.229c-8.18 1.532-14.373 8.706-14.373 17.331 0 9.741 7.897 17.638 17.638 17.638s17.638-7.897 17.638-17.638h60.128c0 9.741 7.897 17.638 17.638 17.638s17.638-7.897 17.638-17.638c-.001-9.741-7.897-17.638-17.638-17.638z"/><ellipse cx="259.918" cy="282.169" fill="#FFF" rx="43.785" ry="8.722"/><path fill="#FFF" d="M216.133 282.169h87.57v85.82h-87.57z"/><path fill="#A8A8A8" d="M240.228 351.722h-1.047a3.336 3.336 0 0 1-3.326-3.326v-54.178a3.336 3.336 0 0 1 3.326-3.326h1.047a3.336 3.336 0 0 1 3.326 3.326v54.178a3.335 3.335 0 0 1-3.326 3.326zm22.353 0h-1.047a3.336 3.336 0 0 1-3.326-3.326v-54.178a3.336 3.336 0 0 1 3.326-3.326h1.047a3.336 3.336 0 0 1 3.326 3.326v54.178a3.336 3.336 0 0 1-3.326 3.326zm22.352 0h-1.047a3.336 3.336 0 0 1-3.326-3.326v-54.178a3.336 3.336 0 0 1 3.326-3.326h1.047a3.336 3.336 0 0 1 3.326 3.326v54.178a3.335 3.335 0 0 1-3.326 3.326z"/><path fill="#D6D6D6" d="M240.228 349.105h-1.047a3.336 3.336 0 0 1-3.326-3.326v-54.178a3.336 3.336 0 0 1 3.326-3.326h1.047a3.336 3.336 0 0 1 3.326 3.326v54.178a3.335 3.335 0 0 1-3.326 3.326zm22.353 0h-1.047a3.336 3.336 0 0 1-3.326-3.326v-54.178a3.336 3.336 0 0 1 3.326-3.326h1.047a3.336 3.336 0 0 1 3.326 3.326v54.178a3.336 3.336 0 0 1-3.326 3.326zm22.352 0h-1.047a3.336 3.336 0 0 1-3.326-3.326v-54.178a3.336 3.336 0 0 1 3.326-3.326h1.047a3.336 3.336 0 0 1 3.326 3.326v54.178a3.335 3.335 0 0 1-3.326 3.326z"/><ellipse cx="259.918" cy="367.187" fill="#FFF" rx="67.158" ry="10.215"/><path fill="#FFF" d="M192.76 367.187h6.431v6.431h-6.431zm128.489 0h5.827v6.721h-5.827z"/><ellipse cx="259.918" cy="372.277" fill="#D6D6D6" rx="67.158" ry="8.327"/><ellipse cx="259.918" cy="377.174" fill="#FFF" rx="77.336" ry="11.763"/><path fill="#FFF" d="M182.582 377.174h7.405v5.861h-7.405zm147.962 0h6.71v5.861h-6.71z"/><ellipse cx="259.918" cy="383.036" fill="#D6D6D6" rx="77.336" ry="9.589"/><path fill="#EFEFEF" d="M307.62 264.172c-.678 0-1.346.042-2.004.117a8.268 8.268 0 0 0-.936-.056h-91.064a17.99 17.99 0 0 0-1.4-.06c-.546 0-1.086.028-1.62.077a8.34 8.34 0 0 0-1.645.229c-8.18 1.532-14.373 8.706-14.373 17.331 0 9.741 7.897 17.638 17.638 17.638s17.638-7.897 17.638-17.638h60.128c0 9.741 7.897 17.638 17.638 17.638s17.638-7.897 17.638-17.638c-.001-9.741-7.897-17.638-17.638-17.638z"/></svg>