<svg version="1" xmlns="http://www.w3.org/2000/svg" viewBox="0 0 300 300"><path fill="#FFF" d="M150 300C67.29 300 0 232.71 0 150S67.29 0 150 0s150 67.29 150 150-67.29 150-150 150"/><path fill="#FAE040" d="M290.812 150c0 77.768-63.044 140.812-140.812 140.812C72.23 290.812 9.188 227.768 9.188 150S72.23 9.188 150 9.188c77.768 0 140.812 63.044 140.812 140.812"/><path fill="#E86076" d="M224.612 112.8h-66.994v1.6a2.143 2.143 0 0 0-2.146-2.145h-10.944c-1.18 0-2.145.952-2.145 2.145v-1.6H75.388a2.546 2.546 0 0 0-2.54 2.54v90.62a2.54 2.54 0 0 0 2.527 2.525h67.007v-.228c0 .343.076.673.23.952a2.126 2.126 0 0 0 1.915 1.19h10.944a2.143 2.143 0 0 0 2.15-2.145v.228h67.006a2.54 2.54 0 0 0 2.526-2.526v-90.62a2.546 2.546 0 0 0-2.537-2.54"/><path fill="#FF7182" d="M142.383 110.75v95.685H75.376a2.54 2.54 0 0 1-2.526-2.526v-90.62a2.546 2.546 0 0 1 2.54-2.54h66.993m15.234 0v95.683h67.007a2.54 2.54 0 0 0 2.526-2.526v-90.62a2.546 2.546 0 0 0-2.54-2.54h-66.993"/><path fill="#F26B7B" d="M80.39 110.75h-3.808v79.993c0 3.098 2.222 5.726 5.307 6.272l50.462 8.43 5.916.99h4.113v-1.7l-9.394-3.048-50.48-8.43a2.548 2.548 0 0 1-2.12-2.514V110.75m143.028 0h-3.81v79.993a2.548 2.548 0 0 1-2.12 2.514l-50.477 8.43-9.395 3.047v1.7h4.114l5.915-.99 50.466-8.43c3.086-.545 5.308-3.173 5.308-6.27V110.75"/><path fill="#AF3F57" d="M157.617 114.4v93.857a2.143 2.143 0 0 1-2.145 2.146h-10.944a2.127 2.127 0 0 1-1.917-1.193 1.982 1.982 0 0 1-.226-.952V114.4c0-1.193.965-2.145 2.145-2.145h10.943a2.14 2.14 0 0 1 2.147 2.144"/><path fill="#D6566E" d="M157.617 112.348v93.858a2.143 2.143 0 0 1-2.145 2.145h-10.944a2.127 2.127 0 0 1-1.917-1.19 1.982 1.982 0 0 1-.226-.952V112.35c0-1.194.965-2.146 2.145-2.146h10.943c1.183 0 2.147.952 2.147 2.145"/><path fill="#EFEFEF" d="M150 110.75v93.78l-7.617-1.27-9.395-1.573-50.478-8.43a2.548 2.548 0 0 1-2.12-2.514v-88.627a2.53 2.53 0 0 1 2.958-2.5l2.323.393L146.74 110.2l3.264.545m0 0v93.78l7.618-1.27 9.395-1.573 50.478-8.43a2.548 2.548 0 0 0 2.12-2.514v-88.626a2.53 2.53 0 0 0-2.957-2.5l-2.323.393-61.066 10.194-3.264.547"/><path fill="#EA6877" d="M167.012 201.686l-9.395 1.575v1.475l9.395-3.047m-34.024 0l9.395 3.047v-1.472l-9.395-1.574"/><path fill="#CF536B" d="M157.617 203.26l-7.29 1.216v.058h-.655v-.06l-7.29-1.214v1.473l5.08 1.65 2.538.825 2.54-.825 5.077-1.65v-1.472m-5.916-93.055h-3.4l1.66.54.04.006v.006-.006l.04-.01 1.66-.54"/><path fill="#E8E8E8" d="M149.96 110.742l.04.013v-.006l-.04-.01m-64.288-10.734v82.635a5.072 5.072 0 0 0 3.504 4.825l43.812 14.22 9.395 1.573 7.29 1.214v-.048l-59.707-19.382a2.53 2.53 0 0 1-1.75-2.408V100.43l-2.544-.423m64.367 10.734l-.04.01v.004l.04-.013m64.286-10.733l-2.543.425v82.206c0 1.097-.707 2.07-1.75 2.408l-59.706 19.382v.048l7.288-1.215 9.395-1.573 43.813-14.22a5.073 5.073 0 0 0 3.504-4.823v-82.636"/><path fill="#FFF" d="M150 204.534l-60.034-19.488a2.53 2.53 0 0 1-1.75-2.408V94.182a2.532 2.532 0 0 1 3.314-2.408l58.47 18.98v93.78m0 0l60.035-19.488a2.53 2.53 0 0 0 1.75-2.408V94.182a2.532 2.532 0 0 0-3.314-2.408L150 110.754v93.78"/><path fill="#EFEFEF" d="M150.328 204.534h-.656v-93.78h.656v93.78"/><path fill="#E8E8E8" d="M124.046 157.795c-2.85 0-4.62.456-4.9 1.414-.826 2.824 11.65 8.954 27.865 13.69.87.26 1.766.4 2.664.43v-11.557a24.315 24.315 0 0 1-5.635-.74c-8.278-2.1-15.485-3.24-19.99-3.24m51.906 0c-4.507 0-11.713 1.14-19.99 3.24-1.85.467-3.74.714-5.636.74v11.556a10.41 10.41 0 0 0 2.66-.43c16.214-4.736 28.69-10.865 27.864-13.69-.28-.96-2.05-1.416-4.9-1.416"/><path fill="#D9D9D9" d="M150.328 161.775a35.864 35.864 0 0 1-.656 0v11.556a11.96 11.96 0 0 0 .656 0v-11.553"/><path fill="#565656" d="M134.333 86.63v37.134a18.97 18.97 0 0 0-11.95-1.593c-7.964 1.51-14.234 8.11-15.294 16.146-1.607 12.158 8.25 22.466 20.27 21.633 9.77-.678 17.72-9.78 17.72-19.575V93.08l37.25-8.724v25.38a18.968 18.968 0 0 0-11.944-1.595c-7.965 1.51-14.236 8.106-15.298 16.14-1.608 12.16 8.246 22.47 20.27 21.64 9.77-.678 17.722-9.768 17.722-19.564V74.618c0-2.747-2.566-4.76-5.237-4.12l-50.25 12a4.248 4.248 0 0 0-3.263 4.132z"/></svg>