<svg version="1" xmlns="http://www.w3.org/2000/svg" viewBox="0 0 300 300"><path fill="#FFF" d="M149.999 300C67.29 300 0 232.71 0 150S67.29 0 149.999 0C232.71 0 300 67.29 300 150s-67.29 150-150.001 150"/><path fill="#5EC2D7" d="M290.812 150c0 77.768-63.045 140.813-140.813 140.813S9.188 227.768 9.188 150 72.231 9.188 150 9.188c77.768 0 140.812 63.043 140.812 140.812"/><path fill="#962C2C" d="M178.574 186.362c-2.137-4-2.547-8.869-.766-13.066a35.194 35.194 0 0 0 2.783-13.708c.003-3.015 0-9.526 0-9.526s-5.398-1.807-7.091.519c-2.722 3.741-4.716 6.651-10.457 6.651-7.014 0-10.521-8.22-12.354-14.045-.809-2.567-.401-7.346-.401-7.346l-1.468.018s-1.41 13.765-10.636 13.765c-4.005 0-6.299-2.748-7.575-5.858-1.383-3.368-11.2 6.267-11.2 6.267v9.526c0 4.873.99 9.497 2.763 13.655 1.802 4.227 1.415 9.127-.736 13.161-2.134 4-6.85 7.461-6.85 7.461v9.526c.004 20.09 18.146 26.896 35.412 26.896 15.737 0 35.414-6.806 35.414-26.896v-9.526s-4.531-3.152-6.838-7.474z"/><path fill="#EAC28C" d="M156.085 84.736c1.656-1.109 2.74-3.067 2.74-5.317 0-1.284-.021-3.924-.021-3.924s-3.745-2.355-5.845-2.355c-2.657 0-4.998 1.796-5.806 4.274l-.022-.018c-2.455 7.415-3.626 11.123-5.958 18.538v2.638c0 1.3.295 2.46 1.334 2.98.478.239.719.358 1.201.597a4.668 4.668 0 0 0 2.075.485h9.762c.47 0 .848-.407.848-.91v-.594c0-.193.095-.371.249-.467.629-.395.942-.593 1.565-.988.369-.234.494-.684.494-1.164v-3.163a1908.129 1908.129 0 0 0-2.616-10.612"/><path fill="#FFD9A1" d="M156.085 81.34c2.052-1.373 3.231-4.051 2.546-6.972-.506-2.154-2.105-3.891-4.145-4.425-3.249-.851-6.37 1.13-7.332 4.075l-.022-.018c-2.415 8.47-3.568 12.705-5.864 21.175-.323 1.191.201 2.46 1.241 2.979l.682.34a7.126 7.126 0 0 0 3.18.741h9.176c.47 0 .849-.407.849-.909v-.594a.55.55 0 0 1 .249-.467c.629-.395.942-.593 1.565-.988.369-.234.559-.697.474-1.153-1.033-5.514-1.549-8.271-2.599-13.784z"/><path fill="#B53E3E" d="M178.574 176.836c-2.137-4.002-2.042-8.688-.766-13.066 1.319-4.526 2.779-8.883 2.783-13.708.003-3.015-.909-7.884-4.799-7.884-5.571 0-6.227 5.529-11.536 5.529-7.014 0-11.733-8.221-13.566-14.046-.809-2.567-.401-7.346-.401-7.346l-1.468.018s-1.41 13.765-10.636 13.765c-4.005 0-6.299-2.748-7.575-5.858-1.383-3.368-5.728-3.641-7.347-.397-2.046 4.1-3.853 9.59-3.853 16.19 0 4.873 1.292 9.465 2.763 13.655 1.523 4.335 1.415 9.127-.736 13.161-4.936 9.253-6.851 12.496-6.85 16.987.004 20.09 18.146 26.896 35.412 26.896 15.737 0 35.414-6.806 35.414-26.896 0-4.493-1.907-7.761-6.839-17z"/><path fill="#FFEEF0" d="M149.999 145.486s8.57 5.586 14.803 5.586c5.597 0 6.989-5.518 9.848-5.518 2.514 0 3.117 2.61 3.117 4.684 0 5.772-4.104 12.538-4.104 19.499 0 6.96 8.315 16.847 8.315 24.324 0 8.419-3.718 13.057-9.411 15.2-10.94 4.118-17.267-16.199-22.568-18.614-4.343-1.979-14.936 6.046-17.936 2.824-6.032-6.478 5.456-17.67 5.456-26.653 0-7.523-7.284-14.025-2.351-19.423 3.849-4.211 14.831-1.909 14.831-1.909z"/><path fill="#DBC8CC" d="M158.49 165.627h-16.981c-.341 0-.617-.302-.617-.674v-9.922c0-.372.276-.674.617-.674h16.981c.341 0 .617.302.617.674v9.922c-.001.371-.276.674-.617.674z"/><path fill="#F2DADE" d="M158.49 164.061h-16.981c-.341 0-.617-.301-.617-.673v-9.922c0-.373.276-.674.617-.674h16.981c.341 0 .617.301.617.674v9.922c-.001.371-.276.673-.617.673z"/><path fill="#565656" d="M154.93 101.961v55.55c0 .511-.217.915-.494.915h-8.873c-.277 0-.495-.404-.495-.915v-55.55c0-.499.218-.917.495-.917h8.873c.278.001.494.418.494.917"/><path fill="#4C4C4C" d="M154.437 101.045h-8.873c-.277 0-.495.417-.495.917v3.044h9.862v-3.044c-.001-.5-.217-.917-.494-.917m4.649 94.547h-18.173c-1.424 0-2.569-1.265-2.569-2.824v-2.121h23.311v2.121c.001 1.559-1.144 2.824-2.569 2.824z"/><path fill="#DBC8CC" d="M157.099 177.433H142.9c-1.115 0-2.007-.978-2.007-2.185v-1.305h18.214v1.305c-.001 1.207-.893 2.185-2.008 2.185z"/><path fill="#F2DADE" d="M157.099 176.128H142.9c-1.115 0-2.007-.978-2.007-2.185s.892-2.187 2.007-2.187h14.199c1.115 0 2.007.979 2.007 2.187 0 1.207-.892 2.185-2.007 2.185z"/><path fill="#565656" d="M159.086 193.471h-18.173c-1.424 0-2.569-1.265-2.569-2.824 0-1.56 1.145-2.824 2.569-2.824h18.173c1.425 0 2.57 1.264 2.57 2.824 0 1.559-1.145 2.824-2.57 2.824z"/><circle fill="#DBC8CC" cx="170.036" cy="190.65" r="2.996"/><path fill="#4F4F4F" d="M172.425 190.038v.611a2.39 2.39 0 0 1-4.777 0v-.611c0-.468.133-.905.369-1.274h.558a2.368 2.368 0 0 1 1.461-.502c.551 0 1.059.187 1.462.502h.558c.236.369.369.806.369 1.274z"/><path fill="#686868" d="M172.425 190.038a2.39 2.39 0 0 1-4.777 0c0-.468.133-.905.369-1.274a2.383 2.383 0 0 1 2.019-1.115c.851 0 1.6.446 2.02 1.115.236.369.369.806.369 1.274z"/><circle fill="#DBC8CC" cx="167.04" cy="182.42" r="2.996"/><path fill="#4F4F4F" d="M169.43 181.808v.611a2.39 2.39 0 0 1-4.778 0v-.611c0-.468.135-.905.369-1.274h.558a2.372 2.372 0 0 1 2.924 0h.558c.235.369.369.806.369 1.274z"/><path fill="#686868" d="M169.43 181.808a2.39 2.39 0 1 1-4.779-.001 2.39 2.39 0 0 1 4.779.001z"/><circle fill="#DBC8CC" cx="173.032" cy="198.878" r="2.996"/><path fill="#4F4F4F" d="M175.422 198.267v.611a2.39 2.39 0 0 1-4.778 0v-.611c0-.469.133-.905.369-1.274h.558a2.372 2.372 0 0 1 2.924 0h.558c.234.369.369.805.369 1.274z"/><path fill="#686868" d="M175.422 198.267a2.39 2.39 0 1 1-4.779-.001 2.39 2.39 0 0 1 4.779.001z"/><path fill="#3F3F3F" d="M147.376 191.303a.656.656 0 0 1-.656-.656V87.577a.656.656 0 1 1 1.312 0v103.07a.656.656 0 0 1-.656.656zm5.25 0a.656.656 0 0 1-.656-.656V93.323a.656.656 0 1 1 1.312 0v97.324a.656.656 0 0 1-.656.656zm-2.625 0a.656.656 0 0 1-.656-.656V80.356a.656.656 0 1 1 1.312 0v110.291a.656.656 0 0 1-.656.656z"/></svg>