<svg enable-background="new 0 0 300 300" viewBox="0 0 300 300" xmlns="http://www.w3.org/2000/svg"><ellipse cx="150" cy="150" fill="#fff" rx="150" ry="150" transform="matrix(.7071 -.7071 .7071 .7071 -62.1321 149.9998)"/><circle cx="150" cy="150" fill="#fae040" r="140.812"/><path d="m196.204 136.358-1.937 54.524 12.683-3.221 6.556-14.275c6.907-15.037-1.336-32.678-17.302-37.028" fill="#e59623"/><path d="m214.79 88.526 15.044 59.235c.24.944-.331 1.904-1.276 2.144l-131.727 33.455c-.944.24-1.904-.332-2.144-1.276l-15.044-59.235c-.24-.945.332-1.904 1.276-2.144l131.728-33.455c.944-.239 1.903.331 2.143 1.276" fill="#9e9e9e"/><path d="m212.806 80.727 15.044 59.237c.239.94-.327 1.903-1.276 2.144l-131.728 33.455c-.939.238-1.904-.336-2.143-1.276l-15.044-59.237c-.239-.94.336-1.904 1.275-2.142l131.729-33.455c.948-.241 1.904.334 2.143 1.274" fill="#d1d1d1"/><path d="m149.525 125.07-65.121 16.539.374 1.472 46.801-11.886c.818-.854 1.82-1.552 2.97-2.025.399-.165.803-.299 1.208-.401 1.629-.414 3.279-.333 4.783.15l8.75-2.222c.026-.556.106-1.1.235-1.627m26.855-6.821-11.919 3.027c.368.405.699.845.987 1.316l11.514-2.924c-.188-.475-.382-.948-.582-1.419m43.171-10.964-25.971 6.596c.273.452.541.906.804 1.363l25.541-6.487z" fill="#9e9e9e"/><path d="m172.615 107.707-90.955 23.1.373 1.471 90.612-23.012c-.061-.523-.07-1.045-.03-1.559m44.193-11.223-29.525 7.498c.007.011.015.023.022.035l.839 1.312 29.037-7.375z" fill="#9e9e9e"/><path d="m69.484 144.108 156.105-39.646c.709-.18 1.136-.9.957-1.608-.18-.708-.899-1.136-1.608-.956l-156.105 39.646c-.708.18-1.136.899-.956 1.608.179.707.899 1.136 1.607.956" fill="#494949"/><path d="m73.65 131.753 157.517-40.004c.708-.18 1.136-.899.956-1.608-.18-.708-.899-1.136-1.608-.956l-157.516 40.004c-.708.18-1.136.899-.956 1.608.179.708.899 1.136 1.607.956" fill="#494949"/><path d="m119.615 146.5c-.451.115-.896.278-1.329.492-3.169 1.56-4.67 5.434-3.626 9.327l3.018 11.307.825 1.929 16.632-4.224-2.096-2.698-1.414-1.915-1.979-7.431c-1.298-4.852-5.929-7.829-10.031-6.787" fill="#9e9e9e"/><path d="m140.539 128.918-8.961 2.276c-1.856 1.938-2.764 4.685-2.298 7.465l1.93 11.611 1.627 4.691 3.486 10.069 18.409-4.675-6.982-16.923-1.267-7.639c-.565-3.392-2.971-5.919-5.944-6.875" fill="#9e9e9e"/><path d="m135.756 128.768c-.405.103-.809.236-1.208.401-1.149.473-2.152 1.171-2.97 2.025l8.961-2.276c-1.504-.483-3.154-.564-4.783-.15" fill="#848484"/><path d="m165.448 122.592-16.158 4.104c-.01.207-.013.415-.008.625l.251 11.772.94 4.884 6.028 15.928 19.897-5.053-9.455-20.18-.223-7.722c-.037-1.613-.5-3.096-1.272-4.358m-2.078-2.328-13.37 3.396c-.197.453-.356.924-.474 1.41l14.935-3.793c-.335-.368-.701-.707-1.091-1.013m-7.522-1.581c-1.201.305-2.29.852-3.22 1.58l6.822-1.733c-1.155-.194-2.375-.158-3.602.153" fill="#9e9e9e"/><path d="m164.46 121.276-14.935 3.793c-.128.527-.208 1.072-.235 1.627l16.158-4.104c-.289-.47-.62-.911-.988-1.316" fill="#848484"/><path d="m159.45 118.53-6.822 1.733c-1.145.896-2.05 2.066-2.629 3.397l13.37-3.396c-1.129-.882-2.473-1.489-3.919-1.734" fill="#3a3a3a"/><path d="m194.384 115.244-17.422 4.425c1.553 3.935 2.671 8.034 3.331 12.222l3.164 21.168 23.691-6.017-7.319-20.113c-.937-2.581-2.027-5.116-3.243-7.582l-.002-.009-.01.002c-.689-1.39-1.419-2.755-2.19-4.096m-1.491-2.478-17.022 4.323c.174.385.344.771.509 1.16l17.2-4.368c-.226-.373-.455-.745-.687-1.115m-4.749-7.437-15.498 3.936c.098.825.329 1.652.704 2.454l1.38 2.931 16.665-4.232zm-1.55-2.26-13.807 3.507c-.084.371-.142.749-.172 1.132l14.668-3.725c-.21-.325-.44-.629-.689-.914m-7.984-2.484c-1.833.466-3.336 1.519-4.381 2.895l9.619-2.443c-1.606-.719-3.445-.907-5.238-.452" fill="#9e9e9e"/><path d="m193.58 113.881-17.2 4.368c.2.471.394.943.582 1.419l17.422-4.425c-.263-.456-.531-.91-.804-1.362" fill="#848484"/><path d="m187.283 103.982-14.668 3.725c-.041.514-.032 1.036.031 1.558l15.498-3.936-.839-1.312c-.007-.012-.015-.023-.022-.035" fill="#848484"/><path d="m191.395 110.417-16.665 4.232.812 1.725c.111.237.221.476.329.715l17.022-4.323c-.095-.151-.191-.302-.287-.453z" fill="#3a3a3a"/><path d="m183.847 101.037-9.619 2.443c-.696.915-1.189 1.973-1.442 3.096l13.807-3.507c-.767-.879-1.708-1.567-2.746-2.032" fill="#3a3a3a"/><path d="m192.517 123.633c-.941-2.587-2.026-5.117-3.246-7.581l-.006-.015h-.002c-1.195-2.41-2.519-4.756-3.971-7.025l-5.301-8.289c-1.854-2.898-5.356-4.283-8.691-3.436-4.861 1.235-7.393 6.592-5.261 11.132l2.187 4.656c2.312 4.922 3.911 10.148 4.751 15.521l3.667 24.536-.014.02c-1.405 1.891-3.947 2.53-6.078 1.527l-10.92-23.307-.227-7.718c-.12-5.609-5.428-9.647-10.866-8.266-3.934.999-6.66 4.581-6.572 8.639l.251 11.768.941 4.881 7.236 19.123-1.671.424-8.286-20.096-1.27-7.631c-.92-5.534-6.751-8.772-11.935-6.628-3.751 1.551-5.936 5.485-5.271 9.49l1.932 11.612 1.629 4.696 4.606 13.28-.032.008-4.367-5.618-1.414-1.917-1.985-7.427c-1.439-5.386-6.99-8.464-11.362-6.3-3.164 1.566-4.667 5.435-3.625 9.332l3.019 11.302 2.338 5.461.046.085 20.206 46.179c5.114 11.686 17.933 17.955 30.296 14.815l25.45-6.464c12.941-3.287 21.306-15.821 19.377-29.032l-7.074-48.424z" fill="#ffb031"/></svg>