<svg xmlns="http://www.w3.org/2000/svg" version="1.0" viewBox="0 0 300 300"><circle cx="150" cy="150" r="150" fill="#FFF"/><circle cx="150" cy="150" r="140.812" fill="#EB595B"/><path fill="#633B0B" d="M194.415 194.321v7.745c0 24.541-19.875 34.337-44.415 34.337-24.541 0-44.415-9.797-44.415-34.337v-7.745c0-2.147.186-4.386.653-6.532l9.518-11.757a57.711 57.711 0 014.479-5.039c-.934-1.587-1.866-3.173-2.614-4.852-1.68-3.733-2.614-7.651-2.614-11.57v-7.745c0-2.054.186-3.919.56-5.692h68.956c.374 1.773.56 3.638.56 5.692v7.745c0 3.919-.934 7.838-2.614 11.57a34.5 34.5 0 01-2.614 4.852c2.24 2.239 6.066 7.278 6.066 7.278l6.811 5.599c1.123 3.454 1.683 6.906 1.683 10.451z"/><path fill="#FBBC4B" d="M194.415 194.321c0 24.541-19.875 34.337-44.415 34.337-24.541 0-44.415-9.797-44.415-34.337 0-2.147.186-4.386.653-6.532 1.587-7.838 5.878-15.396 11.383-21.741 1.399-1.68 1.773-4.012.746-5.972-2.147-4.198-3.452-8.677-3.452-13.25 0-2.054.186-3.919.56-5.692 2.799-15.21 17.169-21.367 34.523-21.367 17.262 0 31.631 6.159 34.43 21.367.374 1.773.56 3.638.56 5.692 0 4.572-1.306 9.051-3.452 13.25-1.027 1.958-.653 4.292.746 5.972 4.572 5.318 8.305 11.383 10.357 17.729 1.216 3.547 1.776 6.999 1.776 10.544z"/><path fill="#6B3D07" d="M164.93 194.509h-29.858a.61.61 0 01-.253-.045.623.623 0 01-.4-.608v-5.412c0-.374.279-.653.653-.653h29.858c.374 0 .653.279.653.653v5.412a.603.603 0 01-.046.252.6.6 0 01-.356.356.637.637 0 01-.251.045z"/><path fill="#633B0B" d="M164.93 191.989h-29.858a.626.626 0 01-.467-.185.623.623 0 01-.186-.467v-5.412c0-.374.279-.653.653-.653h29.858c.374 0 .653.279.653.653v5.412a.603.603 0 01-.046.252.6.6 0 01-.356.356.652.652 0 01-.251.044zm-8.864-99.933h-12.13c-.839 0-1.494-.56-1.587-1.399l-2.24-21.927h19.688l-2.24 21.927c0 .839-.653 1.399-1.491 1.399z"/><path fill="#6B3D07" d="M155.225 88.042v53.186c0 .746-.279 1.399-.56 1.399h-9.331c-.279 0-.56-.653-.56-1.399V88.042c0-.746.28-1.399.56-1.399h9.331c.281.001.56.654.56 1.399z"/><path fill="#633B0B" d="M170.062 153.919a19.86 19.86 0 01-.386 3.913 20.27 20.27 0 01-1.141 3.764 19.933 19.933 0 01-1.854 3.469 20.07 20.07 0 01-20.594 8.53 20.27 20.27 0 01-3.764-1.141 19.933 19.933 0 01-3.469-1.854 20.07 20.07 0 01-8.53-20.594 20.27 20.27 0 011.141-3.764 19.933 19.933 0 011.854-3.469 20.07 20.07 0 0120.594-8.53 20.27 20.27 0 013.764 1.141 19.933 19.933 0 013.469 1.854 19.887 19.887 0 013.04 2.495 20.063 20.063 0 015.876 14.186z"/><path fill="#565656" d="M163.904 153.92a13.656 13.656 0 01-1.642 6.554c-.431.805-.935 1.56-1.513 2.266a13.797 13.797 0 01-3.6 3.105 13.781 13.781 0 01-4.436 1.71c-.895.179-1.799.267-2.712.266a13.726 13.726 0 01-5.321-1.058 13.833 13.833 0 01-3.499-2.097 13.82 13.82 0 01-2.74-3.022 13.97 13.97 0 01-1.744-3.689 13.7 13.7 0 01-.598-4.036 13.726 13.726 0 011.058-5.321 13.833 13.833 0 012.097-3.499 13.82 13.82 0 013.022-2.74 13.97 13.97 0 013.689-1.744 13.7 13.7 0 014.036-.598 13.726 13.726 0 015.321 1.058 13.833 13.833 0 013.499 2.097 13.82 13.82 0 012.74 3.022c.508.758.936 1.56 1.284 2.404.348.844.612 1.714.792 2.609.177.896.266 1.8.267 2.713z"/><path fill="#4C4C4C" d="M150 145.894c6.626 0 12.223 4.665 13.53 10.917.185-.955.278-1.919.279-2.892 0-7.651-6.252-13.903-13.903-13.903s-13.903 6.252-13.903 13.903c0 1.027.093 1.958.279 2.892 1.495-6.25 7.093-10.917 13.718-10.917z"/><path fill="#9E6212" d="M156.252 63.597h-12.596c-.839 0-1.68.279-2.332.839a3.945 3.945 0 00-1.034 1.481 3.946 3.946 0 00-.273 1.785l2.332 19.969a1.588 1.588 0 00.531.996 1.601 1.601 0 001.055.403h12.223c.746 0 1.494-.56 1.587-1.399l2.332-19.969c.186-1.213-.374-2.425-1.306-3.266a3.872 3.872 0 00-2.519-.839z"/><path fill="#FFF" d="M155.319 95.881h-10.731a.391.391 0 01-.257-.117.39.39 0 01-.117-.257.38.38 0 01.117-.257.378.378 0 01.257-.117h10.731a.38.38 0 01.257.117.38.38 0 01.117.257c.092.188-.094.374-.374.374zm0 5.048h-10.731a.38.38 0 01-.257-.117.378.378 0 01-.117-.257.391.391 0 01.117-.257.39.39 0 01.257-.117h10.731c.1.007.186.046.257.117a.39.39 0 01.117.257c.092.188-.094.374-.374.374zm0 4.885h-10.731a.38.38 0 01-.257-.117.378.378 0 01-.117-.257.38.38 0 01.117-.257.378.378 0 01.257-.117h10.731a.38.38 0 01.257.117c.072.07.111.156.117.257.092.187-.094.374-.374.374zm0 5.048h-10.731a.38.38 0 01-.257-.117.378.378 0 01-.117-.257.38.38 0 01.117-.257.378.378 0 01.257-.117h10.731a.38.38 0 01.257.117c.072.07.111.156.117.257.092.187-.094.374-.374.374zm0 4.967h-10.731c-.186 0-.374-.186-.374-.374a.391.391 0 01.117-.257.391.391 0 01.257-.117h10.731c.1.007.186.046.257.117a.39.39 0 01.117.257c.092.187-.094.374-.374.374zm65.07 26.891v50.204a2.639 2.639 0 01-2.642 2.642h-39.106a2.643 2.643 0 01-2.642-2.642V142.72c0-.523.153-1.015.417-1.422a2.628 2.628 0 012.225-1.221h39.106a2.637 2.637 0 012.642 2.643z"/><path fill="#EDEDED" d="M216.674 188.43h-36.956a.793.793 0 110-1.586h36.956a.793.793 0 110 1.586zm0-13.212h-36.956a.793.793 0 110-1.586h36.956a.793.793 0 110 1.586zm0-13.211h-36.956a.793.793 0 110-1.586h36.956a.793.793 0 110 1.586zm0-13.212h-36.956a.793.793 0 110-1.586h36.956a.793.793 0 110 1.586zm0 4.228h-36.956a.264.264 0 110-.528h36.956a.264.264 0 110 .528zm0 3.699h-36.956a.264.264 0 110-.528h36.956a.264.264 0 110 .528zm0 9.512h-36.956a.264.264 0 110-.528h36.956a.264.264 0 110 .528zm0 3.7h-36.956a.264.264 0 110-.528h36.956a.264.264 0 110 .528zm0 9.512h-36.956a.264.264 0 110-.528h36.956a.264.264 0 110 .528zm0 3.699h-36.956a.264.264 0 110-.528h36.956a.264.264 0 110 .528z"/><path fill="#565656" d="M191.616 159.365v10.997a5.62 5.62 0 00-3.539-.472c-2.359.447-4.216 2.401-4.53 4.781a5.654 5.654 0 006.003 6.406c2.894-.201 5.248-2.896 5.248-5.797v-14.006l11.032-2.583v7.516a5.617 5.617 0 00-3.538-.472c-2.359.446-4.216 2.4-4.53 4.78a5.654 5.654 0 006.003 6.408c2.894-.2 5.249-2.893 5.249-5.794v-15.321c0-.813-.76-1.409-1.551-1.22l-14.881 3.554a1.257 1.257 0 00-.966 1.223z"/></svg>