<svg xmlns="http://www.w3.org/2000/svg" id="Camada_1" data-name="Camada 1" viewBox="0 0 538.67 538.69"><defs><style>.cls-1{fill:#fff}.cls-3{fill:#633b0b}.cls-5{fill:#6b3d07}.cls-6{fill:#565656}</style></defs><path d="M538.67 269.34c0 4.45-.12 8.77-.36 13.21s-.48 8.78-1 13.22-1 8.77-1.56 13.09-1.45 8.65-2.28 13-1.81 8.65-2.89 13-2.28 8.53-3.48 12.74-2.73 8.4-4.17 12.4-3.13 8.29-4.81 12.38-3.36 8.05-5.28 12-3.85 7.93-6 11.89-4.21 7.69-6.5 11.42-4.57 7.56-7.08 11.17-4.93 7.33-7.58 10.81-5.29 7.09-8.17 10.45-5.65 6.73-8.65 10-5.89 6.49-9 9.62-6.37 6.13-9.61 9.13-6.61 5.76-10 8.64-7 5.53-10.45 8.06-7.22 5.16-10.83 7.69-7.32 4.8-11.17 7.08-7.57 4.45-11.53 6.49-7.82 4.08-11.79 5.89-8 3.72-12 5.4-8.3 3.25-12.38 4.81-8.29 2.76-12.62 4.08-8.42 2.52-12.74 3.48-8.54 2-12.87 3-8.64 1.56-13 2.16-8.78 1.2-13.1 1.68-8.9.73-13.22 1-8.77.36-13.22.36-8.9-.12-13.22-.36-8.78-.61-13.22-1-8.78-1-13.11-1.68-8.64-1.32-13-2.16-8.66-1.92-13-3-8.54-2.16-12.75-3.48-8.41-2.64-12.49-4.08-8.3-3.12-12.38-4.81-8.05-3.48-12-5.4-7.94-3.85-11.9-5.89-7.69-4.21-11.42-6.49-7.57-4.69-11.17-7.08-7.34-5-10.82-7.69-7.09-5.29-10.46-8.06-6.73-5.64-10-8.64-6.48-6-9.61-9.13-6.13-6.25-9.14-9.62-5.76-6.61-8.64-10-5.41-6.84-8.06-10.45-5.17-7.09-7.69-10.81-4.81-7.32-7.09-11.17-4.33-7.57-6.49-11.42-4.08-7.8-5.89-11.89-3.72-7.93-5.41-12-3.24-8.18-4.69-12.38-2.88-8.28-4.2-12.49-2.34-8.51-3.42-12.7-2.05-8.64-2.89-13-1.68-8.65-2.28-13-1.21-8.71-1.69-13.04-.72-8.77-1-13.22-.2-8.76-.2-13.21.12-8.77.24-13.22.6-8.76 1-13.21 1-8.77 1.69-13.09 1.44-8.65 2.28-13 1.8-8.65 2.89-13 2.16-8.52 3.48-12.72 2.64-8.42 4.2-12.5 3-8.29 4.69-12.37 3.49-8.05 5.41-12 3.85-7.93 5.89-11.89l6.49-11.54c2.28-3.72 4.69-7.44 7.09-11s5-7.33 7.69-10.82 5.29-7.09 8.06-10.45 5.76-6.73 8.64-10 6-6.49 9.14-9.61 6.38-6.13 9.61-9.14 6.62-5.88 10-8.64 6.86-5.53 10.46-8.17 7.09-5.17 10.82-7.57 7.33-4.81 11.17-7.09 7.58-4.44 11.42-6.48 7.81-4.09 11.9-6 7.93-3.61 12-5.29 8.17-3.25 12.38-4.81 8.29-2.88 12.49-4.07 8.54-2.53 12.75-3.61 8.65-2 13-2.88 8.65-1.57 13-2.17 8.78-1.2 13.11-1.68 8.77-.72 13.22-1S264.89 0 269.34 0s8.77.12 13.22.36 8.77.48 13.22 1 8.65 1 13.1 1.68 8.66 1.33 13 2.17 8.66 1.92 12.87 2.88 8.53 2.28 12.74 3.61 8.41 2.63 12.62 4.07 8.29 3.13 12.38 4.81 8.05 3.48 12 5.29 7.94 4 11.79 6 7.8 4.2 11.53 6.48S415.25 43 419 45.41s7.22 5 10.83 7.57 7 5.41 10.45 8.17 6.73 5.64 10 8.64 6.48 6 9.61 9.14 6.13 6.25 9 9.61 5.88 6.49 8.65 10 5.53 6.85 8.17 10.45 5.17 7.09 7.58 10.82 4.8 7.32 7.08 11 4.45 7.7 6.5 11.54 4.08 7.8 6 11.77 3.6 8.05 5.28 12.14 3.37 8.16 4.81 12.37 2.89 8.29 4.21 12.5 2.4 8.52 3.48 12.72 2 8.66 2.89 13 1.56 8.65 2.28 13 1.2 8.77 1.56 13.09.84 8.77 1 13.21.29 8.75.29 13.19z" class="cls-1"/><path fill="#86bf5a" d="M522.21 269.34c0 4.09-.12 8.29-.36 12.37s-.48 8.29-.84 12.38-1 8.29-1.57 12.37-1.32 8.17-2.16 12.14-1.69 8.17-2.64 12.13-2.16 8-3.37 12-2.52 7.81-3.84 11.78-2.89 7.68-4.45 11.53-3.37 7.69-5.05 11.41-3.6 7.46-5.65 11.06-4 7.2-6.13 10.81-4.33 7-6.61 10.45-4.69 6.84-7.09 10.21-5.05 6.49-7.69 9.73-5.29 6.37-8.06 9.37-5.64 6.13-8.52 9-6 5.77-9 8.53-6.25 5.53-9.37 8.17-6.5 5.16-9.86 7.57-6.73 4.92-10.09 7.21-7 4.44-10.58 6.61-7.09 4.2-10.7 6.12-7.33 3.84-11.17 5.53-7.46 3.48-11.3 5-7.69 3.13-11.54 4.45-7.81 2.76-11.78 4-8 2.28-12 3.24-8.05 1.92-12.13 2.76-8.06 1.44-12.15 2.16-8.28 1.08-12.37 1.44-8.3.72-12.38 1-8.3.24-12.38.24-8.38-.11-12.38-.25-8.3-.47-12.38-1-8.29-.84-12.38-1.44-8.18-1.32-12.26-2.16-8.05-1.68-12-2.76-8-2-12-3.24-7.93-2.53-11.77-4-7.7-2.88-11.54-4.45-7.69-3.24-11.42-5-7.45-3.61-11.06-5.53-7.21-4-10.81-6.12-7-4.33-10.46-6.61-6.85-4.69-10.09-7.21-6.62-5-9.86-7.57-6.37-5.4-9.37-8.17-6.14-5.65-9-8.53-5.77-5.89-8.53-9-5.53-6.12-8.18-9.37-5.16-6.49-7.56-9.73-4.81-6.72-7.22-10.21-4.45-7-6.61-10.45l-6.12-10.81c-1.93-3.6-3.73-7.33-5.54-11.06s-3.48-7.57-5.05-11.41-3.12-7.69-4.44-11.53-2.76-7.81-4-11.78-2.29-7.93-3.25-12-1.92-8.05-2.77-12.13-1.44-8.06-2-12.14-1.2-8.28-1.56-12.37-.72-8.17-1-12.38-.24-8.28-.24-12.37.12-8.29.24-12.38.61-8.28 1-12.36 1-8.3 1.56-12.38 1.32-8.17 2-12.25 1.81-8.05 2.77-12 2-8 3.25-12 2.51-7.93 4-11.78 2.88-7.81 4.44-11.52 3.25-7.69 5.05-11.42 3.61-7.45 5.54-11.06l6.12-10.8c2.16-3.49 4.33-7.09 6.61-10.46s4.69-6.85 7.22-10.2 5-6.49 7.56-9.74 5.41-6.37 8.18-9.37 5.65-6.13 8.53-9 5.89-5.76 9-8.53 6.13-5.53 9.37-8.17 6.49-5.17 9.86-7.56 6.61-4.93 10.09-7.21 7-4.45 10.46-6.61 7.21-4.21 10.81-6.13 7.34-3.84 11.06-5.53 7.57-3.48 11.42-5 7.69-3.12 11.54-4.44 7.81-2.77 11.77-4 7.94-2.28 12-3.25 8.06-1.92 12-2.76 8.17-1.56 12.26-2.16 8.18-1.08 12.38-1.44 8.17-.73 12.38-1 8.17-.25 12.38-.25 8.29 0 12.38.25 8.29.47 12.38 1 8.16.84 12.37 1.44 8.18 1.32 12.15 2.16 8.16 1.68 12.13 2.76 8.06 2.05 12 3.25 7.81 2.52 11.78 4 7.69 2.88 11.54 4.44 7.57 3.24 11.3 5 7.44 3.61 11.17 5.53 7.21 4 10.7 6.13 7.09 4.32 10.58 6.61 6.73 4.68 10.09 7.21 6.61 4.92 9.86 7.56 6.24 5.41 9.37 8.17 6 5.65 9 8.53 5.76 5.88 8.52 9 5.41 6.13 8.06 9.37 5.17 6.49 7.69 9.74 4.81 6.72 7.09 10.2 4.57 7 6.61 10.46 4.21 7.21 6.13 10.8 3.84 7.33 5.65 11.06 3.36 7.57 5.05 11.42 3 7.68 4.45 11.52 2.64 7.82 3.84 11.78 2.29 7.92 3.37 12 1.92 8.05 2.64 12 1.56 8.16 2.16 12.25 1.08 8.17 1.57 12.38.72 8.17.84 12.36.36 8.19.36 12.39z"/><path d="M349 348.87v13.93c0 44.1-35.69 61.64-79.68 61.64s-79.81-17.54-79.81-61.64v-13.93a55 55 0 011.2-11.66l17.07-21.14a94.54 94.54 0 018.06-9 86 86 0 01-4.69-8.76 50.77 50.77 0 01-4.69-20.79v-13.83a56 56 0 011-10.33h123.89a55.09 55.09 0 011 10.33v13.82a50.93 50.93 0 01-4.69 20.79 62.47 62.47 0 01-4.69 8.76c4 4 10.94 13 10.94 13L346 330.13a59.15 59.15 0 013 18.74z" class="cls-3"/><path fill="#fbbc4b" d="M349 348.87c0 44.09-35.69 61.63-79.68 61.63s-79.79-17.5-79.79-61.63a55 55 0 011.2-11.66c2.89-14 10.58-27.62 20.44-39a9.52 9.52 0 001.32-10.7 52.53 52.53 0 01-6.13-23.79 47.23 47.23 0 011-10.33c5.05-27.26 30.89-38.32 62-38.32s56.72 11.06 61.77 38.32a46.43 46.43 0 011.09 10.33c0 8.18-2.41 16.23-6.26 23.79a9.72 9.72 0 001.33 10.7c8.17 9.49 14.9 20.42 18.62 31.83a57.3 57.3 0 013.09 18.83z"/><path d="M296.14 349.23h-53.6c-.25 0-.36 0-.48-.12s-.36-.12-.48-.36a.88.88 0 01-.24-.72v-9.73a1.11 1.11 0 011.2-1.09h53.6a1.19 1.19 0 011.2 1.09v9.7c0 .24-.12.36-.12.48a1 1 0 01-.6.6.91.91 0 01-.48.15z" class="cls-5"/><path d="M280.15 165.31H258.4a2.66 2.66 0 01-2.76-2.53l-4.09-39.4h35.33l-4 39.4a2.52 2.52 0 01-2.76 2.53zm16 179.36h-53.6a.74.74 0 01-.84-.24 1.29 1.29 0 01-.36-.85v-9.73a1.13 1.13 0 011.2-1.2h53.6a1.2 1.2 0 011.2 1.2v9.73c0 .12-.12.24-.12.36a1.25 1.25 0 01-.6.73z" class="cls-3"/><path d="M278.72 158.1v95.5c0 1.32-.49 2.52-1 2.52h-16.79c-.49 0-1-1.2-1-2.52v-95.5c0-1.33.47-2.53 1-2.53h16.82c.48 0 .97 1.2.97 2.53z" class="cls-5"/><path d="M305.39 276.43a34.27 34.27 0 01-.72 7 43.2 43.2 0 01-2 6.73 38.67 38.67 0 01-3.37 6.25 34 34 0 01-3.24 4.21 35.11 35.11 0 01-3.85 3.6 27.92 27.92 0 01-4.33 3.12 41.2 41.2 0 01-4.69 2.28 28.44 28.44 0 01-5 1.69 40.54 40.54 0 01-5.29 1 38.46 38.46 0 01-5.29.12c-1.8-.12-3.48-.36-5.28-.6a33.85 33.85 0 01-6.73-2.17 34.49 34.49 0 01-6.26-3.24 26.9 26.9 0 01-4.08-3.24 37.39 37.39 0 01-3.73-3.84 48.94 48.94 0 01-3-4.33 35.36 35.36 0 01-2.4-4.81 32 32 0 01-1.69-5 36 36 0 01-.84-5.17 38.88 38.88 0 01-.24-5.28 37.65 37.65 0 01.72-5.29 33.68 33.68 0 012.05-6.73 31.67 31.67 0 013.36-6.25 36.77 36.77 0 013.24-4.2 27.36 27.36 0 013.85-3.6 27.92 27.92 0 014.33-3.12 33.35 33.35 0 014.69-2.29 27.6 27.6 0 015-1.68 39.41 39.41 0 015.17-1 40.73 40.73 0 015.41-.12c1.68.12 3.49.36 5.17.6a34.4 34.4 0 016.84 2.16 30.09 30.09 0 016.14 3.25 33.89 33.89 0 015.53 4.56 32.24 32.24 0 014.44 5.4 39.53 39.53 0 013.37 6.25 43.86 43.86 0 012 6.73 34.73 34.73 0 01.72 7.01z" class="cls-3"/><path d="M294.34 276.43a23.32 23.32 0 01-3 11.65 19.08 19.08 0 01-2.76 4.09 26.22 26.22 0 01-6.38 5.65 24.13 24.13 0 01-8 3 21.87 21.87 0 01-4.81.48 24.13 24.13 0 01-9.62-1.92 22.29 22.29 0 01-6.25-3.73 26.49 26.49 0 01-4.93-5.41 27.55 27.55 0 01-3.12-6.61 25 25 0 01-1.09-7.2 23.72 23.72 0 011.93-9.61 25.06 25.06 0 013.73-6.25 23.23 23.23 0 015.41-4.93 24.4 24.4 0 016.72-3.12 23.9 23.9 0 017.22-1.08 23.55 23.55 0 019.49 1.92 22.59 22.59 0 016.37 3.72 26.73 26.73 0 014.93 5.41 24.68 24.68 0 012.28 4.33 33.26 33.26 0 011.45 4.69 32.56 32.56 0 01.43 4.92z" class="cls-6"/><path fill="#4c4c4c" d="M269.34 262a24.76 24.76 0 0124.28 19.59 26 26 0 00.48-5.17 24.94 24.94 0 10-49.88 0 23.75 23.75 0 00.48 5.17A25.35 25.35 0 01269.34 262z"/><path fill="#9e6212" d="M280.51 114.25h-22.59a6.9 6.9 0 00-4.21 1.44 6.5 6.5 0 00-1.8 2.64 6.13 6.13 0 00-.48 3.24l4.21 35.8a2.56 2.56 0 00.84 1.81 2.94 2.94 0 001.92.72h22a3 3 0 002.88-2.53l4.08-35.8a6.65 6.65 0 00-2.28-5.88 6.34 6.34 0 00-4.57-1.44z"/><path d="M395.77 256.24v90.11c0 .36-.12.72-.12 1s-.12.6-.24 1-.36.48-.47.72-.37.6-.61.72a3.18 3.18 0 01-.72.6 1.93 1.93 0 01-.84.48 2.25 2.25 0 01-.84.25 2.64 2.64 0 01-1 .12h-70.2a2.67 2.67 0 01-1-.12 2.3 2.3 0 01-.84-.25 2.06 2.06 0 01-.84-.48 3.41 3.41 0 01-.72-.6 3.18 3.18 0 01-.6-.72c-.12-.24-.36-.48-.48-.72s-.12-.6-.24-1-.12-.6-.12-1v-90.11a5.48 5.48 0 012.52-4.2 4.92 4.92 0 012.28-.48h71.16c.24.12.6.24.84.36a5.85 5.85 0 01.84.36c.24.24.48.36.72.6s.36.48.61.72.35.6.47.85.12.59.24.83.2.72.2.96zM278.84 208H259.6a.78.78 0 01-.72-.6.62.62 0 01.24-.48.64.64 0 01.48-.24h19.24a.62.62 0 01.47.24.6.6 0 01.25.48c.12.19-.25.6-.72.6zm0-8.89H259.6a.61.61 0 01-.48-.24.62.62 0 01-.24-.48c0-.12.12-.24.24-.36a.64.64 0 01.48-.24h19.24a.62.62 0 01.47.24c.13.12.25.24.25.36.12.31-.25.67-.72.67zm0-9H259.6a.64.64 0 01-.48-.24.6.6 0 010-1 .64.64 0 01.48-.24h19.24a.62.62 0 01.47.24.86.86 0 01.25.48c.12.34-.25.7-.72.7zm0-8.77H259.6a.64.64 0 01-.48-.24.62.62 0 01-.24-.48.91.91 0 01.24-.48c.12-.12.25-.12.48-.24h19.24c.23.12.35.12.47.24a.86.86 0 01.25.48c.12.3-.25.66-.72.66zm0-9.12H259.6a.65.65 0 01-.48-.25c-.12-.12-.24-.24-.24-.36a.62.62 0 01.24-.48.64.64 0 01.48-.24h19.24a.62.62 0 01.47.24.6.6 0 01.25.48c.12.18-.25.55-.72.55z" class="cls-1"/><path fill="#ededed" d="M389 328.81h-66.3a.42.42 0 01-.48-.48c0-.12 0-.24.12-.24s.24-.24.36-.24H389c.12 0 .24.12.36.24s.12.12.12.24a.42.42 0 01-.48.48zm0-6.61h-66.3a.48.48 0 110-1H389a.48.48 0 110 1zm0-17.06h-66.3c-.12 0-.24-.12-.36-.12a.43.43 0 01-.12-.35.45.45 0 01.12-.37.44.44 0 01.36-.12H389a.44.44 0 01.36.12.45.45 0 01.12.37.43.43 0 01-.12.35c-.08-.02-.2.12-.36.12zm0-6.6h-66.3c-.12 0-.24-.12-.36-.24s-.12-.12-.12-.24a.44.44 0 01.12-.36.42.42 0 01.36-.13H389a.42.42 0 01.36.13.44.44 0 01.12.36c0 .12 0 .24-.12.24s-.2.24-.36.24zm0-17.19h-66.3a.44.44 0 01-.36-.12c-.12-.12-.12-.12-.12-.35s0-.25.12-.25a.47.47 0 01.36-.11H389a.47.47 0 01.36.11c.12 0 .12.13.12.25s0 .23-.12.35a.44.44 0 01-.36.12zm0-6.6h-66.3a.51.51 0 01-.36-.84c.12 0 .24-.12.36-.12H389c.12 0 .24.12.36.12a.48.48 0 01-.36.84zm0-7.57h-66.3a1.08 1.08 0 01-.6-.12 3.22 3.22 0 01-.48-.36c-.12-.12-.12-.24-.24-.36a1.08 1.08 0 01-.12-.6.72.72 0 01.12-.48c.12-.24.12-.36.24-.48a2 2 0 00.48-.36c.24 0 .36-.12.6-.12H389c.24 0 .36.12.6.12l.37.36c.24.12.24.24.36.48a.72.72 0 01.12.48 1.08 1.08 0 01-.12.6c-.12.12-.12.24-.36.36s-.25.24-.37.36a1.08 1.08 0 01-.6.12zm0 23.66h-66.3a1.08 1.08 0 01-.6-.12c-.13 0-.25-.12-.48-.24s-.12-.24-.24-.48a.72.72 0 01-.12-.48.9.9 0 01.12-.6c.12-.12.12-.36.24-.48s.35-.24.48-.24a1.08 1.08 0 01.6-.12H389a1.08 1.08 0 01.6.12c.12 0 .24.12.37.24s.24.36.36.48a.9.9 0 01.12.6.72.72 0 01-.12.48c-.12.24-.12.36-.36.48s-.25.24-.37.24a1.08 1.08 0 01-.6.12zm0 23.79h-66.3a1.08 1.08 0 01-.6-.12 2 2 0 00-.48-.36c-.12-.12-.12-.24-.24-.48s-.12-.24-.12-.48a1.08 1.08 0 01.12-.6c.12-.12.12-.24.24-.36a3.22 3.22 0 01.48-.36 1.08 1.08 0 01.6-.12H389a1.08 1.08 0 01.6.12c.12.12.24.12.37.36s.24.24.36.36a1.08 1.08 0 01.12.6c0 .24 0 .36-.12.48s-.12.36-.36.48l-.37.36a1.08 1.08 0 01-.6.12zm0 23.67h-66.3a1.08 1.08 0 01-.6-.12c-.13 0-.25-.12-.48-.24s-.12-.36-.24-.49a1.07 1.07 0 01-.12-.6.68.68 0 01.12-.47c.12-.25.12-.36.24-.49a2 2 0 00.48-.36h67.54l.37.36c.24.13.24.24.36.49a.68.68 0 01.12.47 1.07 1.07 0 01-.12.6c-.12.13-.12.37-.36.49s-.25.24-.37.24a1.08 1.08 0 01-.64.12z"/><path d="M344.09 286.16v19.7a10.64 10.64 0 00-6.37-.84 10.35 10.35 0 00-8.17 8.65c0 .36-.12.72-.12 1.08a3.32 3.32 0 00.12 1.08 4.08 4.08 0 00.12 1.2c.12.36.12.73.24 1.09a4.26 4.26 0 00.48 1.08 7.08 7.08 0 00.48 1 4.21 4.21 0 00.6 1c.24.24.49.6.73.84s.6.48.84.72.6.48.84.72a6.7 6.7 0 011 .6c.36.12.72.37 1.08.49l1.09.36a3.57 3.57 0 011.08.24 3.26 3.26 0 011.07.12 3.73 3.73 0 001.21-.12c5.16-.36 9.37-5.17 9.37-10.34v-25.31l19.79-4.52v13.46a10.17 10.17 0 00-14.54 7.8v2.16c0 .36.12.72.12 1.2l.36 1.08a7.84 7.84 0 00.36 1c.13.36.36.72.48 1.08a2.49 2.49 0 01.6 1l.84.84.72.72c.36.24.61.48 1 .72a6.85 6.85 0 001 .6c.35.12.6.36 1 .48l1.08.36a3.5 3.5 0 011.08.24h1.2a1.57 1.57 0 001.09 0 10.61 10.61 0 009.49-10.33v-27.62a2.31 2.31 0 00-2.88-2.16l-26.8 6.37a1.71 1.71 0 00-.72.24l-.48.49a1 1 0 00-.36.72 1.52 1.52 0 00-.12.71z" class="cls-6"/></svg>