<svg version="1" xmlns="http://www.w3.org/2000/svg" viewBox="0 0 300 300"><path fill="#FFF" d="M150 300C67.29 300 0 232.71 0 150S67.29 0 150 0s150 67.29 150 150-67.29 150-150 150"/><path fill="#5EC2D7" d="M290.812 150c0 77.768-63.044 140.812-140.812 140.812S9.188 227.768 9.188 150 72.232 9.188 150 9.188 290.812 72.232 290.812 150"/><path fill="#5EBCB5" d="M178.6 184.235c-2.055-4.044-2.132-8.332-1.2-13.018 1.735-8.736 3.216-13.385 3.216-18.327v-11.77s-11.806 8.57-17.548 8.57c-7.013 0-10.52-9.186-12.354-15.01-.808-2.568-.4-7.347-.4-7.347l-1.47.018s-1.408 13.768-10.635 13.768c-4.01 0-18.778-1.834-18.778-1.834v11.77c0 4.872.99 6.864 2.763 11.022 1.802 4.227 1.416 9.127-.736 13.16-1.77 3.322-6.9 5.272-6.9 5.272s.05 8.837.05 11.716c0 17.017 18.99 23.744 35.413 26.04 16.422 2.298 35.413 3.515 35.413-16.077v-11.77s-5.027-2.62-6.837-6.18z"/><path fill="#6DE2DE" d="M178.6 172.466c-2.055-4.044-2.132-8.332-1.2-13.018 1.735-8.736 3.216-13.385 3.216-18.327 0-3.01-1.618-7.872-5.266-7.872-4.628 0-6.54 4.676-12.282 4.676-7.013 0-10.52-9.186-12.354-15.01-.808-2.568-.4-7.347-.4-7.347l-1.47.018s-1.408 13.765-10.635 13.765c-4.01 0-7.16-6.256-11-6.256-5.416 0-7.778 9.59-7.778 16.19 0 4.873.99 6.865 2.763 11.023 1.802 4.227 1.416 9.127-.736 13.16-4.935 9.254-6.85 12.497-6.85 16.99 0 17.016 18.99 23.743 35.413 26.04 16.422 2.297 35.413 3.514 35.413-16.078.002-4.496-2.653-9.72-6.837-17.954z"/><path fill="#FFEEF0" d="M150.038 134.394s7.026 6.727 13.026 6.727 8.005-3.86 11.013-3.86c3.008 0 3.582 2.23 3.582 5.357 0 8.14-3.77 15.13-3.77 22.764 0 9.02 7.705 17.16 7.705 25.42 0 15.59-21.638-10.346-31.56-10.346-14.672 0-15.575-6.027-15.575-20.793s-1.307-25.265 15.577-25.265z"/><path fill="#E5B36A" d="M156.112 73.986c1.656-1.11 2.74-3.067 2.74-5.317 0-1.286-.02-3.927-.02-3.927s-3.745-2.355-5.845-2.355c-2.656 0-4.997 1.795-5.806 4.273l-.02-.017c-2.453 7.415-3.624 11.122-5.96 18.537v2.638c0 1.3.298 2.46 1.337 2.98l1.202.597a4.668 4.668 0 0 0 2.074.485h9.763c.47 0 .848-.407.848-.91v-.593a.55.55 0 0 1 .25-.47c.63-.394.942-.592 1.565-.987.37-.234.492-.684.492-1.164V84.59c-1.04-4.243-1.56-6.365-2.618-10.61"/><path fill="#FFCD7D" d="M156.112 70.59c2.05-1.374 3.23-4.052 2.545-6.973-.506-2.154-2.104-3.89-4.145-4.425-3.25-.85-6.37 1.13-7.332 4.075l-.022-.018c-2.414 8.47-3.568 12.702-5.863 21.172-.323 1.19.2 2.46 1.24 2.98l.682.34a7.116 7.116 0 0 0 3.18.74h9.177c.47 0 .848-.406.848-.908v-.594a.55.55 0 0 1 .25-.466c.63-.395.942-.593 1.565-.988.37-.234.558-.698.474-1.153-1.03-5.514-1.55-8.27-2.596-13.785z"/><path fill="#DBC8CC" d="M158.517 154.877h-16.98c-.342 0-.618-.302-.618-.674v-9.922c0-.37.273-.67.614-.67h16.98c.342 0 .618.3.618.673v9.923c0 .372-.276.674-.617.674z"/><path fill="#F2DADE" d="M158.517 153.31h-16.98c-.342 0-.618-.3-.618-.673v-9.922c0-.372.273-.674.614-.674h16.98c.342 0 .618.305.618.677v9.922c0 .37-.276.673-.617.673z"/><path fill="#565656" d="M154.957 91.21v55.55c0 .512-.217.916-.494.916h-8.874c-.28 0-.497-.404-.497-.916V91.21c0-.498.217-.915.494-.915h8.873c.278 0 .495.417.495.916"/><path fill="#4C4C4C" d="M154.463 90.294h-8.874c-.28 0-.497.418-.497.916v3.044h9.862V91.21c0-.498-.217-.916-.494-.916m4.65 94.547h-18.17c-1.425 0-2.57-1.26-2.57-2.82v-2.12h23.312v2.12c0 1.56-1.145 2.823-2.57 2.823z"/><path fill="#DBC8CC" d="M157.126 166.683h-14.2c-1.114 0-2.006-.98-2.006-2.186v-1.305h18.214v1.305c0 1.208-.893 2.186-2.008 2.186z"/><path fill="#F2DADE" d="M157.126 165.378h-14.2c-1.114 0-2.006-.98-2.006-2.186 0-1.207.892-2.186 2.007-2.186h14.2c1.114 0 2.006.98 2.006 2.186 0 1.208-.892 2.186-2.007 2.186z"/><path fill="#565656" d="M159.113 182.72H140.94c-1.425 0-2.57-1.264-2.57-2.823 0-1.56 1.146-2.824 2.57-2.824h18.173c1.425 0 2.57 1.264 2.57 2.824 0 1.56-1.146 2.823-2.57 2.823z"/><path fill="#3F3F3F" d="M146.09 180.553a.656.656 0 0 1-.657-.656V76.827a.656.656 0 1 1 1.312 0v103.07a.655.655 0 0 1-.656.656zm3.936 0a.656.656 0 0 1-.656-.656V71.527a.656.656 0 1 1 1.312 0v108.37a.655.655 0 0 1-.656.656zm3.938 0a.656.656 0 0 1-.656-.656v-97.87a.656.656 0 1 1 1.312 0v97.87a.655.655 0 0 1-.656.656z"/></svg>