<svg viewBox="0 0 300 300" xmlns="http://www.w3.org/2000/svg"><path d="m150 300c-82.71 0-150-67.29-150-150s67.29-150 150-150 150 67.29 150 150-67.29 150-150 150" fill="#fff"/><path d="m290.812 150c0 77.768-63.044 140.812-140.812 140.812s-140.812-63.044-140.812-140.812 63.044-140.812 140.812-140.812 140.812 63.044 140.812 140.812" fill="#fae040"/><path d="m178.574 186.362c-2.137-4-2.547-8.87-.766-13.067a35.214 35.214 0 0 0 2.783-13.71c.006-3.013 0-9.525 0-9.525s-5.395-1.807-7.09.52c-2.72 3.74-4.714 6.65-10.455 6.65-7.013 0-10.52-8.22-12.354-14.046-.81-2.567-.4-7.346-.4-7.346l-1.47.018s-1.41 13.765-10.635 13.765c-4.005 0-6.298-2.745-7.575-5.855-1.384-3.368-11.2 6.267-11.2 6.267v9.527c0 4.872.99 9.496 2.762 13.654 1.802 4.228 1.416 9.128-.736 13.162-2.134 4-6.85 7.462-6.85 7.462v9.526c.004 20.09 18.145 26.896 35.413 26.896 15.735 0 35.41-6.806 35.41-26.896v-9.526s-4.53-3.15-6.84-7.472z" fill="#c64b4b"/><path d="m156.086 84.736c1.656-1.11 2.74-3.067 2.74-5.317 0-1.286-.02-3.927-.02-3.927s-3.746-2.355-5.846-2.355c-2.656 0-4.997 1.795-5.806 4.273l-.022-.017c-2.454 7.415-3.626 11.123-5.958 18.537v2.638c0 1.3.295 2.46 1.334 2.98l1.202.597a4.667 4.667 0 0 0 2.075.484h9.763c.47 0 .848-.406.848-.908v-.594a.55.55 0 0 1 .25-.468c.63-.394.942-.592 1.565-.987.37-.234.497-.684.497-1.163v-3.164a2562.836 2562.836 0 0 0 -2.62-10.61" fill="#e5b36a"/><path d="m156.086 81.34c2.05-1.374 3.23-4.052 2.545-6.973-.503-2.154-2.1-3.89-4.142-4.425-3.25-.85-6.37 1.13-7.332 4.075l-.022-.018c-2.414 8.47-3.568 12.702-5.863 21.172-.323 1.19.2 2.46 1.24 2.98l.68.34a7.116 7.116 0 0 0 3.18.74h9.18c.47 0 .847-.406.847-.908v-.594a.55.55 0 0 1 .25-.466c.63-.395.942-.593 1.565-.988.37-.234.56-.698.476-1.153-1.033-5.514-1.55-8.27-2.6-13.785z" fill="#ffcd7d"/><path d="m178.574 176.836c-2.136-4.002-2.04-8.69-.766-13.067 1.32-4.53 2.78-8.886 2.783-13.71.006-3.016-.906-7.886-4.8-7.886-5.57 0-6.223 5.53-11.533 5.53-7.013 0-11.733-8.222-13.566-14.047-.81-2.568-.4-7.347-.4-7.347l-1.47.02s-1.41 13.765-10.635 13.765c-4.005 0-6.298-2.748-7.575-5.858-1.384-3.368-5.73-3.64-7.348-.396-2.046 4.1-3.853 9.59-3.853 16.19 0 4.875 1.29 9.467 2.76 13.657 1.524 4.335 1.417 9.127-.735 13.16-4.935 9.254-6.85 12.497-6.85 16.99.004 20.09 18.145 26.895 35.413 26.895 15.736 0 35.412-6.805 35.412-26.895 0-4.492-1.907-7.76-6.84-17z" fill="#ed5f5f"/><path d="m150 145.486s8.57 5.586 14.803 5.586c5.597 0 6.99-5.518 9.847-5.518 2.514 0 3.118 2.61 3.118 4.684 0 5.772-4.104 12.538-4.104 19.498s8.315 16.848 8.315 24.325c0 8.42-3.72 13.06-9.415 15.2-10.94 4.12-17.265-16.196-22.567-18.61-4.344-1.98-14.937 6.045-17.937 2.822-6.03-6.477 5.458-17.67 5.458-26.65 0-7.524-7.283-14.027-2.35-19.425 3.847-4.21 14.83-1.908 14.83-1.908z" fill="#ffeef0"/><path d="m158.49 165.627h-16.98c-.342 0-.618-.302-.618-.674v-9.922c0-.37.276-.67.617-.67h16.98c.34 0 .615.3.615.673v9.923c0 .372-.276.674-.617.674z" fill="#dbc8cc"/><path d="m158.49 164.06h-16.98c-.342 0-.618-.3-.618-.673v-9.922c0-.372.276-.674.617-.674h16.98c.34 0 .615.305.615.677v9.922c0 .37-.276.673-.617.673z" fill="#f2dade"/><path d="m154.93 101.96v55.55c0 .512-.216.916-.493.916h-8.874c-.277 0-.494-.404-.494-.916v-55.55c0-.498.214-.916.49-.916h8.875c.277 0 .494.418.494.917" fill="#565656"/><path d="m154.437 101.044h-8.874c-.277 0-.494.418-.494.917v3.048h9.86v-3.044c0-.5-.218-.918-.495-.918m4.65 94.547h-18.173c-1.425 0-2.57-1.263-2.57-2.823v-2.12h23.312v2.12c0 1.56-1.145 2.823-2.57 2.823z" fill="#4c4c4c"/><path d="m157.1 177.434h-14.2c-1.114 0-2.006-.98-2.006-2.186v-1.305h18.214v1.305c0 1.207-.893 2.186-2.008 2.186z" fill="#dbc8cc"/><path d="m157.1 176.128h-14.2c-1.114 0-2.006-.98-2.006-2.186 0-1.207.892-2.186 2.007-2.186h14.2c1.117 0 2.01.98 2.01 2.186 0 1.208-.893 2.186-2.008 2.186z" fill="#f2dade"/><path d="m159.087 193.47h-18.173c-1.425 0-2.57-1.264-2.57-2.823 0-1.56 1.146-2.824 2.57-2.824h18.173c1.425 0 2.57 1.264 2.57 2.824s-1.146 2.823-2.57 2.823z" fill="#565656"/><path d="m146.063 191.303a.656.656 0 0 1 -.656-.656v-103.07a.656.656 0 1 1 1.312 0v103.07a.656.656 0 0 1 -.66.656zm3.937 0a.656.656 0 0 1 -.656-.656v-110.29a.656.656 0 1 1 1.312 0v110.29a.655.655 0 0 1 -.656.656zm3.938 0a.656.656 0 0 1 -.656-.656v-97.603a.656.656 0 1 1 1.312 0v97.603a.656.656 0 0 1 -.656.656z" fill="#3f3f3f"/></svg>