<?xml version="1.0" encoding="utf-8"?>
<!-- Generator: Adobe Illustrator 24.3.0, SVG Export Plug-In . SVG Version: 6.00 Build 0)  -->
<svg version="1.0" id="Layer_1" xmlns="http://www.w3.org/2000/svg" xmlns:xlink="http://www.w3.org/1999/xlink" x="0px" y="0px"
	 viewBox="0 0 300 300" enable-background="new 0 0 300 300" xml:space="preserve">
<g>
	<path fill="#FFFFFF" d="M149.999,299.999C67.29,299.999,0,232.71,0,150S67.29,0,149.999,0C232.71,0.001,300,67.29,300,150
		S232.71,299.999,149.999,299.999"/>
	<path fill="#5EC2D7" d="M290.811,150c0,77.768-63.043,140.811-140.811,140.811S9.188,227.768,9.188,150S72.232,9.188,150,9.188
		S290.811,72.232,290.811,150"/>
	<path fill="#633C1C" d="M183.241,178.817v5.761c0,18.36-14.885,25.711-33.237,25.711c-18.361,0-33.246-7.351-33.246-25.711v-5.761
		c0-1.637,0.174-3.272,0.502-4.882l7.141-8.815c1.042-1.322,2.15-2.591,3.319-3.803c-0.727-1.167-1.372-2.383-1.93-3.639
		c-1.234-2.771-1.966-5.697-1.966-8.651v-5.76c0-1.509,0.128-2.926,0.384-4.252h51.579c0.256,1.325,0.385,2.743,0.385,4.252v5.76
		c0,2.953-0.732,5.879-1.957,8.651c-0.56,1.257-1.208,2.473-1.938,3.639c1.646,1.701,4.563,5.459,4.563,5.459l5.11,4.168v0.01
		C182.775,173.523,183.241,176.157,183.241,178.817z"/>
	<path fill="#7C4923" d="M183.241,178.817c0,18.361-14.885,25.712-33.237,25.712c-18.361,0-33.246-7.351-33.246-25.712
		c0-1.637,0.174-3.272,0.502-4.882c1.198-5.879,4.416-11.485,8.531-16.257l0.023-0.028c1.064-1.248,1.313-2.995,0.573-4.459
		c-1.592-3.148-2.562-6.507-2.562-9.923c0-1.509,0.128-2.926,0.384-4.252c2.103-11.356,12.847-15.992,25.794-15.992
		c12.939,0,23.682,4.636,25.784,15.992c0.256,1.325,0.385,2.743,0.385,4.252c0,3.415-0.968,6.772-2.558,9.917
		c-0.736,1.47-0.505,3.24,0.583,4.472l0.018,0.022c3.402,3.958,6.2,8.485,7.735,13.266v0.01
		C182.775,173.523,183.241,176.157,183.241,178.817z"/>
	<path fill="#4C4C4C" d="M164.375,180.232h-28.756c-0.549,0-0.993-0.444-0.994-0.993v-3.513c0-0.55,0.445-0.995,0.994-0.995h28.756
		c0.549,0,0.993,0.445,0.993,0.995v3.513C165.367,179.787,164.923,180.231,164.375,180.232z"/>
	<path fill="#565656" d="M164.375,178.275h-28.756c-0.549,0-0.993-0.444-0.994-0.993v-3.513c0-0.55,0.445-0.995,0.994-0.995h28.756
		c0.549,0,0.993,0.445,0.993,0.995v3.513C165.367,177.83,164.923,178.274,164.375,178.275z"/>
	<path fill="#632E0A" d="M156.965,179.254h-13.936c-0.388,0-0.702-0.314-0.702-0.702v-4.098c0-0.387,0.314-0.702,0.702-0.702h13.936
		c0.387,0,0.702,0.315,0.702,0.702v4.098C157.666,178.939,157.352,179.253,156.965,179.254z"/>
	<path fill="#934C16" d="M156.965,177.186h-13.936c-0.387,0.001-0.701-0.313-0.702-0.7v-0.001v-4.098
		c0-0.388,0.314-0.702,0.702-0.702h13.936c0.387,0,0.702,0.314,0.702,0.702v4.098C157.666,176.872,157.352,177.186,156.965,177.186z
		"/>
	<path fill="#301C02" d="M154.974,97.442h-9.955c-0.655,0-1.203-0.496-1.268-1.147l-1.815-17.986h16.121l-1.815,17.986
		C156.176,96.946,155.628,97.442,154.974,97.442"/>
	<path fill="#5B3801" d="M155.154,74.043H144.84c-1.668,0-3.021,1.352-3.021,3.021c0,0.116,0.007,0.233,0.02,0.348l1.898,16.382
		c0.075,0.643,0.619,1.128,1.266,1.128h9.989c0.647,0,1.192-0.485,1.266-1.128l1.898-16.382c0.191-1.659-1-3.159-2.659-3.349
		C155.383,74.05,155.269,74.043,155.154,74.043z"/>
	<path fill="#934C16" d="M149.878,161.607c-8.294,0-15.041-6.747-15.041-15.041s6.747-15.042,15.041-15.042
		c8.294,0,15.043,6.748,15.043,15.042S158.172,161.607,149.878,161.607z"/>
	
		<ellipse transform="matrix(0.2298 -0.9732 0.9732 0.2298 -27.2021 258.7607)" fill="#5B3801" cx="149.878" cy="146.566" rx="12.716" ry="12.716"/>
	<path fill="#565656" d="M161.282,146.565c0,0.373-0.018,0.746-0.055,1.118c-0.037,0.372-0.091,0.741-0.164,1.107
		c-0.073,0.366-0.164,0.728-0.272,1.086s-0.234,0.709-0.377,1.054c-0.143,0.345-0.302,0.682-0.478,1.012
		c-0.176,0.329-0.368,0.649-0.575,0.96c-0.208,0.311-0.43,0.61-0.667,0.899c-0.237,0.289-0.487,0.565-0.752,0.829
		c-0.264,0.264-0.541,0.515-0.829,0.752c-0.289,0.237-0.588,0.459-0.899,0.667c-0.311,0.207-0.63,0.399-0.96,0.575
		c-0.329,0.176-0.667,0.336-1.012,0.479c-0.345,0.143-0.696,0.269-1.054,0.377s-0.719,0.199-1.086,0.272
		c-0.366,0.073-0.735,0.128-1.107,0.164c-0.372,0.037-0.744,0.055-1.118,0.055c-0.373,0-0.746-0.018-1.118-0.055
		c-0.372-0.037-0.741-0.091-1.107-0.164c-0.366-0.073-0.728-0.164-1.086-0.272c-0.357-0.108-0.709-0.234-1.054-0.377
		s-0.682-0.302-1.012-0.479s-0.649-0.368-0.96-0.575c-0.311-0.207-0.61-0.43-0.899-0.667c-0.289-0.237-0.565-0.487-0.829-0.752
		c-0.264-0.264-0.515-0.54-0.752-0.829c-0.237-0.289-0.459-0.588-0.667-0.899c-0.207-0.311-0.399-0.631-0.575-0.96
		c-0.176-0.329-0.336-0.667-0.479-1.012c-0.143-0.345-0.269-0.696-0.377-1.054c-0.108-0.357-0.199-0.719-0.272-1.086
		c-0.073-0.366-0.128-0.735-0.164-1.107c-0.037-0.372-0.055-0.744-0.055-1.118c0-0.374,0.018-0.746,0.055-1.118
		c0.037-0.372,0.091-0.741,0.164-1.107c0.073-0.366,0.164-0.728,0.272-1.086c0.108-0.357,0.234-0.709,0.377-1.054
		c0.143-0.345,0.302-0.682,0.479-1.012c0.176-0.329,0.368-0.649,0.575-0.96c0.208-0.311,0.43-0.61,0.667-0.899
		c0.237-0.289,0.487-0.565,0.752-0.829c0.264-0.264,0.54-0.515,0.829-0.752c0.289-0.237,0.588-0.459,0.899-0.667
		c0.311-0.208,0.631-0.399,0.96-0.575c0.329-0.176,0.667-0.336,1.012-0.479s0.696-0.269,1.054-0.377
		c0.357-0.108,0.719-0.199,1.086-0.272c0.366-0.073,0.735-0.128,1.107-0.164c0.372-0.037,0.744-0.055,1.118-0.055
		c0.373,0,0.746,0.018,1.118,0.055c0.372,0.037,0.741,0.091,1.107,0.164c0.366,0.073,0.728,0.164,1.086,0.272
		c0.357,0.108,0.709,0.234,1.054,0.377c0.345,0.143,0.682,0.302,1.012,0.479c0.329,0.176,0.649,0.368,0.96,0.575
		c0.311,0.207,0.61,0.43,0.899,0.667c0.289,0.237,0.565,0.487,0.829,0.752c0.264,0.264,0.515,0.541,0.752,0.829
		c0.237,0.289,0.459,0.588,0.667,0.899c0.207,0.311,0.399,0.631,0.575,0.96c0.176,0.329,0.336,0.667,0.478,1.012
		c0.143,0.345,0.269,0.696,0.377,1.054c0.108,0.357,0.199,0.719,0.272,1.086c0.073,0.366,0.128,0.735,0.164,1.107
		C161.264,145.819,161.282,146.192,161.282,146.565z"/>
	<path fill="#4C4C4C" d="M149.878,139.965c5.473,0,10.041,3.858,11.145,9.002c0.171-0.789,0.258-1.594,0.259-2.402
		c0-6.298-5.105-11.404-11.404-11.404c-6.298,0-11.403,5.106-11.403,11.404c0,0.824,0.092,1.627,0.258,2.402
		C139.837,143.824,144.405,139.965,149.878,139.965z"/>
	<path fill="#934C16" d="M154.544,136.152c-1.464-0.662-3.053-1.001-4.66-0.997c-1.575,0-3.071,0.315-4.436,0.892L146.681,97v-0.013
		c0-0.354,0.079-0.67,0.21-0.814l0.131-0.065h5.945l0.197,0.144l0.091,0.249c0.027,0.144,0.053,0.315,0.053,0.499l0.013,0.42
		L154.544,136.152"/>
	<path fill="#3F3F3F" d="M147.864,174.652V79.957c0.001-0.272-0.218-0.493-0.49-0.494c-0.272-0.001-0.493,0.218-0.494,0.49
		c0,0.001,0,0.002,0,0.004v94.696c-0.001,0.272,0.219,0.493,0.491,0.493c0.272,0.001,0.493-0.219,0.493-0.491
		C147.864,174.654,147.864,174.653,147.864,174.652 M153.114,174.652V84.841c0.001-0.272-0.218-0.493-0.49-0.494
		c-0.272-0.001-0.493,0.218-0.494,0.49c0,0.001,0,0.002,0,0.004v89.811c-0.001,0.272,0.218,0.493,0.49,0.494
		c0.272,0.001,0.493-0.218,0.494-0.49C153.114,174.654,153.114,174.653,153.114,174.652 M150.489,174.652V89.691
		c0.001-0.272-0.218-0.493-0.49-0.494c-0.272-0.001-0.493,0.218-0.494,0.49c0,0.001,0,0.002,0,0.004v84.961
		c-0.001,0.272,0.218,0.493,0.49,0.494c0.272,0.001,0.493-0.218,0.494-0.49C150.489,174.654,150.489,174.653,150.489,174.652"/>
</g>
</svg>
