<svg xmlns="http://www.w3.org/2000/svg" version="1.0" viewBox="0 0 300 300"><path fill="#FFF" d="M149.999 299.999C67.29 299.999 0 232.71 0 150S67.29 0 149.999 0C232.71.001 300 67.29 300 150s-67.29 149.999-150.001 149.999"/><path fill="#5EC2D7" d="M290.811 150c0 77.768-63.043 140.811-140.811 140.811S9.188 227.768 9.188 150 72.232 9.188 150 9.188 290.811 72.232 290.811 150"/><path fill="#633C1C" d="M183.241 178.817v5.761c0 18.36-14.885 25.711-33.237 25.711-18.361 0-33.246-7.351-33.246-25.711v-5.761c0-1.637.174-3.272.502-4.882l7.141-8.815a50.58 50.58 0 013.319-3.803 29.647 29.647 0 01-1.93-3.639c-1.234-2.771-1.966-5.697-1.966-8.651v-5.76c0-1.509.128-2.926.384-4.252h51.579c.256 1.325.385 2.743.385 4.252v5.76c0 2.953-.732 5.879-1.957 8.651a29.42 29.42 0 01-1.938 3.639c1.646 1.701 4.563 5.459 4.563 5.459l5.11 4.168v.01c.825 2.569 1.291 5.203 1.291 7.863z"/><path fill="#7C4923" d="M183.241 178.817c0 18.361-14.885 25.712-33.237 25.712-18.361 0-33.246-7.351-33.246-25.712 0-1.637.174-3.272.502-4.882 1.198-5.879 4.416-11.485 8.531-16.257l.023-.028c1.064-1.248 1.313-2.995.573-4.459-1.592-3.148-2.562-6.507-2.562-9.923 0-1.509.128-2.926.384-4.252 2.103-11.356 12.847-15.992 25.794-15.992 12.939 0 23.682 4.636 25.784 15.992.256 1.325.385 2.743.385 4.252 0 3.415-.968 6.772-2.558 9.917a4.03 4.03 0 00.583 4.472l.018.022c3.402 3.958 6.2 8.485 7.735 13.266v.01c.825 2.568 1.291 5.202 1.291 7.862z"/><path fill="#4C4C4C" d="M164.375 180.232h-28.756a.994.994 0 01-.994-.993v-3.513c0-.55.445-.995.994-.995h28.756c.549 0 .993.445.993.995v3.513a.995.995 0 01-.993.993z"/><path fill="#565656" d="M164.375 178.275h-28.756a.994.994 0 01-.994-.993v-3.513c0-.55.445-.995.994-.995h28.756c.549 0 .993.445.993.995v3.513a.995.995 0 01-.993.993z"/><path fill="#632E0A" d="M156.965 179.254h-13.936a.702.702 0 01-.702-.702v-4.098c0-.387.314-.702.702-.702h13.936c.387 0 .702.315.702.702v4.098a.704.704 0 01-.702.702z"/><path fill="#934C16" d="M156.965 177.186h-13.936a.701.701 0 01-.702-.7v-4.099c0-.388.314-.702.702-.702h13.936c.387 0 .702.314.702.702v4.098a.703.703 0 01-.702.701z"/><path fill="#301C02" d="M154.974 97.442h-9.955a1.274 1.274 0 01-1.268-1.147l-1.815-17.986h16.121l-1.815 17.986a1.275 1.275 0 01-1.268 1.147"/><path fill="#5B3801" d="M155.154 74.043H144.84a3.02 3.02 0 00-3.001 3.369l1.898 16.382a1.275 1.275 0 001.266 1.128h9.989c.647 0 1.192-.485 1.266-1.128l1.898-16.382a3.023 3.023 0 00-3.002-3.369z"/><path fill="#934C16" d="M149.878 161.607c-8.294 0-15.041-6.747-15.041-15.041s6.747-15.042 15.041-15.042 15.043 6.748 15.043 15.042-6.749 15.041-15.043 15.041z"/><circle cx="149.878" cy="146.566" r="12.716" fill="#5B3801" transform="rotate(-76.714 149.893 146.572)"/><path fill="#565656" d="M161.282 146.565a11.293 11.293 0 01-.219 2.225 11.646 11.646 0 01-.649 2.14 11.527 11.527 0 01-1.053 1.972 11.482 11.482 0 01-2.248 2.48 11.482 11.482 0 01-1.859 1.242 11.401 11.401 0 01-15.915-5.694 11.195 11.195 0 01-.649-2.14 11.278 11.278 0 01-.164-3.343 11.447 11.447 0 01.813-3.247 11.255 11.255 0 011.054-1.972 11.482 11.482 0 012.248-2.48 11.482 11.482 0 011.859-1.242 11.401 11.401 0 0116.563 7.834 11.293 11.293 0 01.219 2.225z"/><path fill="#4C4C4C" d="M149.878 139.965c5.473 0 10.041 3.858 11.145 9.002.171-.789.258-1.594.259-2.402 0-6.298-5.105-11.404-11.404-11.404-6.298 0-11.403 5.106-11.403 11.404 0 .824.092 1.627.258 2.402 1.104-5.143 5.672-9.002 11.145-9.002z"/><path fill="#934C16" d="M154.544 136.152a11.24 11.24 0 00-4.66-.997c-1.575 0-3.071.315-4.436.892L146.681 97v-.013c0-.354.079-.67.21-.814l.131-.065h5.945l.197.144.091.249c.027.144.053.315.053.499l.013.42 1.223 38.732"/><path fill="#3F3F3F" d="M147.864 174.652V79.957a.492.492 0 10-.984-.004v94.7a.491.491 0 10.984.002v-.003m5.25 0V84.841a.492.492 0 10-.984-.004v89.815a.492.492 0 10.984.004v-.004m-2.625 0V89.691a.492.492 0 10-.984-.004v84.965a.492.492 0 10.984.004v-.004"/></svg>