<?xml version="1.0" encoding="utf-8"?>
<!-- Generator: Adobe Illustrator 23.0.6, SVG Export Plug-In . SVG Version: 6.00 Build 0)  -->
<svg version="1.0" id="Camada_1" xmlns="http://www.w3.org/2000/svg" xmlns:xlink="http://www.w3.org/1999/xlink" x="0px" y="0px"
	 viewBox="0 0 300 300" enable-background="new 0 0 300 300" xml:space="preserve">
<ellipse transform="matrix(0.7071 -0.7071 0.7071 0.7071 -62.1321 149.9998)" fill="#FFFFFF" cx="150" cy="150" rx="150" ry="150"/>
<circle fill="#EB595B" cx="150" cy="150" r="140.812"/>
<g opacity="0.5">
	<path fill="#D1D1D1" d="M91.127,178.154L91.127,178.154c-9.941,0-18-8.059-18-18v-32.843c0-7.456,6.044-13.5,13.5-13.5h9
		c7.456,0,13.5,6.044,13.5,13.5v32.843C109.127,170.095,101.069,178.154,91.127,178.154z"/>
	<path fill="#D1D1D1" d="M109.124,124.311v39.838c0,2.1-0.462,4.089-1.288,5.874c-2.219,4.796-7.078,8.129-12.715,8.129h-7.989
		c-5.636,0-10.495-3.333-12.715-8.129c-0.826-1.785-1.288-3.774-1.288-5.874v-39.838c0-5.797,4.698-10.502,10.502-10.502h14.99
		C104.426,113.809,109.124,118.514,109.124,124.311z"/>
	<path fill="#9E9E9E" d="M103.558,164.716c3.492,2.642,3.491,7.971-0.002,10.611c-2.346,1.773-5.268,2.825-8.435,2.825h-7.989
		c-3.167,0-6.089-1.052-8.435-2.825c-3.493-2.64-3.494-7.969-0.002-10.611c2.346-1.775,5.269-2.828,8.436-2.828h7.989
		C98.289,161.888,101.211,162.941,103.558,164.716z"/>
	<g>
		<g>
			<path fill="#9E9E9E" d="M87.277,113.809v11.504c0,0.966-0.784,1.75-1.75,1.75c-0.966,0-1.75-0.784-1.75-1.75v-11.504H87.277z"/>
		</g>
		<g>
			<path fill="#9E9E9E" d="M92.878,113.809v11.504c0,0.966-0.784,1.75-1.75,1.75s-1.75-0.784-1.75-1.75v-11.504H92.878z"/>
		</g>
		<g>
			<path fill="#9E9E9E" d="M98.479,113.809v11.504c0,0.966-0.784,1.75-1.75,1.75c-0.966,0-1.75-0.784-1.75-1.75v-11.504H98.479z"/>
		</g>
	</g>
	<g>
		<g>
			<path fill="#9E9E9E" d="M96.729,151.169c0,0.966,0.784,1.75,1.75,1.75h5.95c3.326,0,4.699,2.045,4.699,2.045v-3.697
				c0,0-1.374-1.849-4.699-1.849h-5.95C97.513,149.419,96.729,150.202,96.729,151.169z"/>
		</g>
		<g>
			<path fill="#9E9E9E" d="M96.729,144.651c0,0.966,0.784,1.75,1.75,1.75h5.95c3.326,0,4.699,2.045,4.699,2.045v-3.697
				c0,0-1.374-1.849-4.699-1.849h-5.95C97.513,142.9,96.729,143.684,96.729,144.651z"/>
		</g>
		<g>
			<path fill="#9E9E9E" d="M96.729,138.132c0,0.966,0.784,1.75,1.75,1.75h5.95c3.326,0,4.699,2.045,4.699,2.045v-3.697
				c0,0-1.374-1.849-4.699-1.849h-5.95C97.513,136.382,96.729,137.166,96.729,138.132z"/>
		</g>
		<g>
			<path fill="#9E9E9E" d="M96.729,131.614c0,0.966,0.784,1.75,1.75,1.75h5.95c3.326,0,4.699,2.045,4.699,2.045v-3.697
				c0,0-1.374-1.849-4.699-1.849h-5.95C97.513,129.863,96.729,130.647,96.729,131.614z"/>
		</g>
	</g>
	<g>
		<g>
			<path fill="#9E9E9E" d="M85.529,151.169c0,0.966-0.784,1.75-1.75,1.75h-5.95c-3.326,0-4.699,2.045-4.699,2.045v-3.697
				c0,0,1.374-1.849,4.699-1.849h5.95C84.745,149.419,85.529,150.202,85.529,151.169z"/>
		</g>
		<g>
			<path fill="#9E9E9E" d="M85.529,144.651c0,0.966-0.784,1.75-1.75,1.75h-5.95c-3.326,0-4.699,2.045-4.699,2.045v-3.697
				c0,0,1.374-1.849,4.699-1.849h5.95C84.745,142.9,85.529,143.684,85.529,144.651z"/>
		</g>
		<g>
			<path fill="#9E9E9E" d="M85.529,138.132c0,0.966-0.784,1.75-1.75,1.75h-5.95c-3.326,0-4.699,2.045-4.699,2.045v-3.697
				c0,0,1.374-1.849,4.699-1.849h5.95C84.745,136.382,85.529,137.166,85.529,138.132z"/>
		</g>
		<g>
			<path fill="#9E9E9E" d="M85.529,131.614c0,0.966-0.784,1.75-1.75,1.75h-5.95c-3.326,0-4.699,2.045-4.699,2.045v-3.697
				c0,0,1.374-1.849,4.699-1.849h5.95C84.745,129.863,85.529,130.647,85.529,131.614z"/>
		</g>
	</g>
	<g>
		<path fill="#D1D1D1" d="M99.224,171.451c0-1.766-3.625-3.198-8.097-3.198c-4.472,0-8.095,1.432-8.095,3.198v0.002v11.566H99.22
			v-11.556C99.22,171.459,99.224,171.455,99.224,171.451z"/>
		<path fill="#E8E8E8" d="M91.127,170.803c4.459,0,8.073,1.424,8.093,3.183v-2.524c0-0.004,0.004-0.008,0.004-0.012
			c0-1.766-3.625-3.198-8.097-3.198c-4.472,0-8.095,1.432-8.095,3.198v0.002v2.548C83.032,172.235,86.655,170.803,91.127,170.803z"
			/>
		<ellipse fill="#9E9E9E" cx="91.127" cy="182.994" rx="8.096" ry="3.198"/>
	</g>
</g>
<g opacity="0.7">
	<path fill="#D1D1D1" d="M122.126,185.973h-5.997c-11.046,0-20-8.954-20-20v-47.212c0-8.284,6.716-15,15-15h15.997
		c8.284,0,15,6.716,15,15v47.212C142.126,177.018,133.172,185.973,122.126,185.973z"/>
	<path fill="#D1D1D1" d="M142.122,117.177v50.902c0,2.684-0.591,5.225-1.646,7.506c-2.836,6.128-9.044,10.386-16.246,10.386h-10.207
		c-7.201,0-13.41-4.258-16.246-10.386c-1.056-2.281-1.646-4.822-1.646-7.506v-50.902c0-7.407,6.003-13.419,13.419-13.419h19.153
		C136.119,103.758,142.122,109.77,142.122,117.177z"/>
	<path fill="#9E9E9E" d="M135.009,168.803c4.462,3.375,4.461,10.185-0.002,13.558c-2.997,2.265-6.73,3.61-10.777,3.61h-10.207
		c-4.047,0-7.78-1.344-10.777-3.61c-4.463-3.373-4.464-10.183-0.002-13.558c2.998-2.268,6.732-3.613,10.779-3.613h10.207
		C128.278,165.19,132.012,166.535,135.009,168.803z"/>
	<g>
		<g>
			<path fill="#9E9E9E" d="M114.207,103.758v14.698c0,1.234-1.002,2.236-2.236,2.236s-2.236-1.002-2.236-2.236v-14.698H114.207z"/>
		</g>
		<g>
			<path fill="#9E9E9E" d="M121.364,103.758v14.698c0,1.234-1.002,2.236-2.236,2.236s-2.236-1.002-2.236-2.236v-14.698H121.364z"/>
		</g>
		<g>
			<path fill="#9E9E9E" d="M128.521,103.758v14.698c0,1.234-1.002,2.236-2.236,2.236s-2.236-1.002-2.236-2.236v-14.698H128.521z"/>
		</g>
	</g>
	<g>
		<g>
			<path fill="#9E9E9E" d="M126.284,151.494c0,1.234,1.002,2.236,2.236,2.236h7.602c4.249,0,6.004,2.613,6.004,2.613v-4.723
				c0,0-1.755-2.362-6.004-2.362h-7.602C127.286,149.257,126.284,150.259,126.284,151.494z"/>
		</g>
		<g>
			<path fill="#9E9E9E" d="M126.284,143.165c0,1.234,1.002,2.236,2.236,2.236h7.602c4.249,0,6.004,2.613,6.004,2.613v-4.723
				c0,0-1.755-2.362-6.004-2.362h-7.602C127.286,140.928,126.284,141.93,126.284,143.165z"/>
		</g>
		<g>
			<path fill="#9E9E9E" d="M126.284,134.836c0,1.234,1.002,2.236,2.236,2.236h7.602c4.249,0,6.004,2.613,6.004,2.613v-4.723
				c0,0-1.755-2.362-6.004-2.362h-7.602C127.286,132.6,126.284,133.601,126.284,134.836z"/>
		</g>
		<g>
			<path fill="#9E9E9E" d="M126.284,126.508c0,1.234,1.002,2.236,2.236,2.236h7.602c4.249,0,6.004,2.613,6.004,2.613v-4.723
				c0,0-1.755-2.362-6.004-2.362h-7.602C127.286,124.271,126.284,125.273,126.284,126.508z"/>
		</g>
	</g>
	<g>
		<g>
			<path fill="#9E9E9E" d="M111.974,151.494c0,1.234-1.002,2.236-2.236,2.236h-7.602c-4.249,0-6.004,2.613-6.004,2.613v-4.723
				c0,0,1.755-2.362,6.004-2.362h7.602C110.972,149.257,111.974,150.259,111.974,151.494z"/>
		</g>
		<g>
			<path fill="#9E9E9E" d="M111.974,143.165c0,1.234-1.002,2.236-2.236,2.236h-7.602c-4.249,0-6.004,2.613-6.004,2.613v-4.723
				c0,0,1.755-2.362,6.004-2.362h7.602C110.972,140.928,111.974,141.93,111.974,143.165z"/>
		</g>
		<g>
			<path fill="#9E9E9E" d="M111.974,134.836c0,1.234-1.002,2.236-2.236,2.236h-7.602c-4.249,0-6.004,2.613-6.004,2.613v-4.723
				c0,0,1.755-2.362,6.004-2.362h7.602C110.972,132.6,111.974,133.601,111.974,134.836z"/>
		</g>
		<g>
			<path fill="#9E9E9E" d="M111.974,126.508c0,1.234-1.002,2.236-2.236,2.236h-7.602c-4.249,0-6.004,2.613-6.004,2.613v-4.723
				c0,0,1.755-2.362,6.004-2.362h7.602C110.972,124.271,111.974,125.273,111.974,126.508z"/>
		</g>
	</g>
	<g>
		<path fill="#D1D1D1" d="M129.472,177.408c0-2.256-4.632-4.086-10.345-4.086c-5.714,0-10.344,1.83-10.344,4.086v0.002v14.778
			h20.684v-14.765C129.467,177.418,129.472,177.413,129.472,177.408z"/>
		<path fill="#E8E8E8" d="M119.127,176.58c5.698,0,10.315,1.82,10.34,4.067v-3.224c0-0.005,0.005-0.01,0.005-0.016
			c0-2.256-4.632-4.086-10.345-4.086c-5.714,0-10.344,1.83-10.344,4.086v0.002v3.256C108.783,178.41,113.413,176.58,119.127,176.58z
			"/>
		<ellipse fill="#9E9E9E" cx="119.127" cy="192.156" rx="10.345" ry="4.086"/>
	</g>
</g>
<g opacity="0.8">
	<path fill="#D1D1D1" d="M160.126,192.229h-13.997c-11.046,0-20-8.954-20-20v-61.51c0-8.284,6.716-15,15-15h23.997
		c8.284,0,15,6.716,15,15v61.51C180.126,183.275,171.171,192.229,160.126,192.229z"/>
	<path fill="#D1D1D1" d="M180.121,111.468v59.755c0,3.151-0.693,6.133-1.932,8.811c-3.329,7.194-10.617,12.192-19.071,12.192
		h-11.983c-8.454,0-15.742-4.999-19.071-12.192c-1.239-2.678-1.932-5.661-1.932-8.811v-59.755c0-8.695,7.047-15.753,15.753-15.753
		h22.484C173.074,95.716,180.121,102.773,180.121,111.468z"/>
	<path fill="#9E9E9E" d="M171.771,172.073c5.238,3.962,5.237,11.956-0.003,15.916c-3.519,2.659-7.901,4.238-12.651,4.238h-11.983
		c-4.75,0-9.133-1.578-12.651-4.238c-5.24-3.96-5.24-11.953-0.003-15.916c3.519-2.662,7.902-4.241,12.654-4.241h11.983
		C163.869,167.832,168.252,169.411,171.771,172.073z"/>
	<g>
		<g>
			<path fill="#9E9E9E" d="M147.352,95.716v17.255c0,1.449-1.176,2.625-2.625,2.625c-1.449,0-2.625-1.176-2.625-2.625V95.716
				H147.352z"/>
		</g>
		<g>
			<path fill="#9E9E9E" d="M155.753,95.716v17.255c0,1.449-1.176,2.625-2.625,2.625s-2.625-1.176-2.625-2.625V95.716H155.753z"/>
		</g>
		<g>
			<path fill="#9E9E9E" d="M164.154,95.716v17.255c0,1.449-1.176,2.625-2.625,2.625s-2.625-1.176-2.625-2.625V95.716H164.154z"/>
		</g>
	</g>
	<g>
		<g>
			<path fill="#9E9E9E" d="M161.529,151.753c0,1.449,1.176,2.625,2.625,2.625h8.924c4.988,0,7.049,3.067,7.049,3.067v-5.545
				c0,0-2.06-2.773-7.049-2.773h-8.924C162.705,149.128,161.529,150.304,161.529,151.753z"/>
		</g>
		<g>
			<path fill="#9E9E9E" d="M161.529,141.976c0,1.449,1.176,2.625,2.625,2.625h8.924c4.988,0,7.049,3.067,7.049,3.067v-5.545
				c0,0-2.06-2.773-7.049-2.773h-8.924C162.705,139.351,161.529,140.527,161.529,141.976z"/>
		</g>
		<g>
			<path fill="#9E9E9E" d="M161.529,132.199c0,1.449,1.176,2.625,2.625,2.625h8.924c4.988,0,7.049,3.067,7.049,3.067v-5.545
				c0,0-2.06-2.773-7.049-2.773h-8.924C162.705,129.574,161.529,130.749,161.529,132.199z"/>
		</g>
		<g>
			<path fill="#9E9E9E" d="M161.529,122.422c0,1.449,1.176,2.625,2.625,2.625h8.924c4.988,0,7.049,3.067,7.049,3.067v-5.545
				c0,0-2.06-2.773-7.049-2.773h-8.924C162.705,119.796,161.529,120.972,161.529,122.422z"/>
		</g>
	</g>
	<g>
		<g>
			<path fill="#9E9E9E" d="M144.73,151.753c0,1.449-1.176,2.625-2.625,2.625h-8.924c-4.988,0-7.049,3.067-7.049,3.067v-5.545
				c0,0,2.06-2.773,7.049-2.773h8.924C143.553,149.128,144.73,150.304,144.73,151.753z"/>
		</g>
		<g>
			<path fill="#9E9E9E" d="M144.73,141.976c0,1.449-1.176,2.625-2.625,2.625h-8.924c-4.988,0-7.049,3.067-7.049,3.067v-5.545
				c0,0,2.06-2.773,7.049-2.773h8.924C143.553,139.351,144.73,140.527,144.73,141.976z"/>
		</g>
		<g>
			<path fill="#9E9E9E" d="M144.73,132.199c0,1.449-1.176,2.625-2.625,2.625h-8.924c-4.988,0-7.049,3.067-7.049,3.067v-5.545
				c0,0,2.06-2.773,7.049-2.773h8.924C143.553,129.574,144.73,130.749,144.73,132.199z"/>
		</g>
		<g>
			<path fill="#9E9E9E" d="M144.73,122.422c0,1.449-1.176,2.625-2.625,2.625h-8.924c-4.988,0-7.049,3.067-7.049,3.067v-5.545
				c0,0,2.06-2.773,7.049-2.773h8.924C143.553,119.796,144.73,120.972,144.73,122.422z"/>
		</g>
	</g>
	<g>
		<path fill="#D1D1D1" d="M165.271,182.174c0-2.649-5.437-4.797-12.144-4.797s-12.143,2.148-12.143,4.797v0.003v17.348h24.281
			v-17.333C165.266,182.186,165.271,182.181,165.271,182.174z"/>
		<path fill="#E8E8E8" d="M153.127,181.203c6.689,0,12.109,2.136,12.139,4.775v-3.785c0-0.006,0.006-0.012,0.006-0.018
			c0-2.649-5.437-4.797-12.144-4.797s-12.143,2.148-12.143,4.797v0.003V186C140.984,183.351,146.419,181.203,153.127,181.203z"/>
		<ellipse fill="#9E9E9E" cx="153.127" cy="199.488" rx="12.144" ry="4.796"/>
	</g>
</g>
<g>
	<path fill="#D1D1D1" d="M206.87,202.779h-27.487c-11.046,0-20-8.954-20-20v-85.62c0-8.284,6.716-15,15-15h37.487
		c8.284,0,15,6.716,15,15v85.62C226.87,193.824,217.916,202.779,206.87,202.779z"/>
	<path fill="#D1D1D1" d="M226.864,101.842v74.682c0,3.938-0.866,7.666-2.415,11.012c-4.161,8.991-13.269,15.238-23.835,15.238
		h-14.976c-10.566,0-19.674-6.247-23.835-15.238c-1.549-3.347-2.415-7.075-2.415-11.012v-74.682
		c0-10.867,8.807-19.688,19.688-19.688h28.101C218.057,82.155,226.864,90.975,226.864,101.842z"/>
	<path fill="#9E9E9E" d="M216.429,177.587c6.546,4.952,6.545,14.943-0.003,19.892c-4.398,3.324-9.875,5.296-15.812,5.296h-14.976
		c-5.937,0-11.414-1.973-15.812-5.296c-6.549-4.949-6.55-14.94-0.003-19.892c4.398-3.327,9.877-5.301,15.815-5.301h14.976
		C206.552,172.286,212.031,174.26,216.429,177.587z"/>
	<g>
		<g>
			<path fill="#9E9E9E" d="M185.909,82.155v21.565c0,1.811-1.47,3.281-3.281,3.281c-1.811,0-3.281-1.47-3.281-3.281V82.155H185.909z
				"/>
		</g>
		<g>
			<path fill="#9E9E9E" d="M196.409,82.155v21.565c0,1.811-1.47,3.281-3.281,3.281c-1.811,0-3.281-1.47-3.281-3.281V82.155H196.409z
				"/>
		</g>
		<g>
			<path fill="#9E9E9E" d="M206.909,82.155v21.565c0,1.811-1.47,3.281-3.281,3.281c-1.811,0-3.281-1.47-3.281-3.281V82.155H206.909z
				"/>
		</g>
	</g>
	<g>
		<g>
			<path fill="#9E9E9E" d="M203.628,152.191c0,1.811,1.47,3.281,3.281,3.281h11.154c6.234,0,8.81,3.833,8.81,3.833v-6.93
				c0,0-2.575-3.466-8.81-3.466h-11.154C205.098,148.91,203.628,150.38,203.628,152.191z"/>
		</g>
		<g>
			<path fill="#9E9E9E" d="M203.628,139.972c0,1.811,1.47,3.281,3.281,3.281h11.154c6.234,0,8.81,3.833,8.81,3.833v-6.93
				c0,0-2.575-3.466-8.81-3.466h-11.154C205.098,136.69,203.628,138.16,203.628,139.972z"/>
		</g>
		<g>
			<path fill="#9E9E9E" d="M203.628,127.752c0,1.811,1.47,3.281,3.281,3.281h11.154c6.234,0,8.81,3.833,8.81,3.833v-6.93
				c0,0-2.575-3.466-8.81-3.466h-11.154C205.098,124.471,203.628,125.94,203.628,127.752z"/>
		</g>
		<g>
			<path fill="#9E9E9E" d="M203.628,115.532c0,1.811,1.47,3.281,3.281,3.281h11.154c6.234,0,8.81,3.833,8.81,3.833v-6.93
				c0,0-2.575-3.466-8.81-3.466h-11.154C205.098,112.251,203.628,113.721,203.628,115.532z"/>
		</g>
	</g>
	<g>
		<g>
			<path fill="#9E9E9E" d="M182.632,152.191c0,1.811-1.47,3.281-3.281,3.281h-11.154c-6.234,0-8.81,3.833-8.81,3.833v-6.93
				c0,0,2.575-3.466,8.81-3.466h11.154C181.162,148.91,182.632,150.38,182.632,152.191z"/>
		</g>
		<g>
			<path fill="#9E9E9E" d="M182.632,139.972c0,1.811-1.47,3.281-3.281,3.281h-11.154c-6.234,0-8.81,3.833-8.81,3.833v-6.93
				c0,0,2.575-3.466,8.81-3.466h11.154C181.162,136.69,182.632,138.16,182.632,139.972z"/>
		</g>
		<g>
			<path fill="#9E9E9E" d="M182.632,127.752c0,1.811-1.47,3.281-3.281,3.281h-11.154c-6.234,0-8.81,3.833-8.81,3.833v-6.93
				c0,0,2.575-3.466,8.81-3.466h11.154C181.162,124.471,182.632,125.94,182.632,127.752z"/>
		</g>
		<g>
			<path fill="#9E9E9E" d="M182.632,115.532c0,1.811-1.47,3.281-3.281,3.281h-11.154c-6.234,0-8.81,3.833-8.81,3.833v-6.93
				c0,0,2.575-3.466,8.81-3.466h11.154C181.162,112.251,182.632,113.721,182.632,115.532z"/>
		</g>
	</g>
	<g>
		<path fill="#D1D1D1" d="M208.305,190.212c0-3.31-6.795-5.995-15.178-5.995s-15.176,2.685-15.176,5.995v0.004v21.682h30.347
			v-21.663C208.298,190.227,208.305,190.22,208.305,190.212z"/>
		<path fill="#E8E8E8" d="M193.126,188.998c8.36,0,15.134,2.67,15.171,5.967v-4.731c0-0.008,0.007-0.015,0.007-0.023
			c0-3.31-6.795-5.995-15.178-5.995s-15.176,2.685-15.176,5.995v0.004v4.777C177.95,191.683,184.743,188.998,193.126,188.998z"/>
		<ellipse fill="#9E9E9E" cx="193.127" cy="211.851" rx="15.178" ry="5.994"/>
	</g>
</g>
</svg>
