<svg xmlns="http://www.w3.org/2000/svg" version="1.0" viewBox="0 0 300 300"><circle cx="149.998" cy="150" r="149.999" fill="#FFF"/><circle cx="150" cy="150" r="140.812" fill="#5EC2D7"/><path fill="#962C2C" d="M183.082 218.072c-2.473-4.633-2.364-10.059-.887-15.128 1.527-5.24 3.217-10.284 3.222-15.871.003-3.49-1.052-12.281-5.557-12.281-6.449 0-2.526 9.555-13.356 9.555-8.12 0-13.584-9.517-15.706-16.261-.936-2.972-.464-8.505-.464-8.505l-1.7.021s-1.647 16.507-12.314 15.936c-12.602-.674-12.548-22.105-14.027-25.706-1.6-3.899-6.632-4.215-8.505-.459-3.294 6.603-4.878 14.08-4.171 21.447.645 6.72 2.876 13.531 4.642 20.032 1.09 4.012 2.144 8.071 3.523 11.997 1.763 5.019 1.639 10.567-.852 15.237-5.714 10.713-7.931 14.468-7.93 19.668.004 23.259 21.008 31.139 41 31.139 18.22 0 41-7.88 41-31.139 0-3.211-2.208-8.986-7.918-19.682z"/><path fill="#242326" d="M162.123 75.176l-2.136 1.698c-6.212 4.939-14.754 4.939-20.966 0l-2.136-1.698c-1.363-1.084-2.022-2.898-1.695-4.671l6.369-34.606c.407-2.212 2.235-3.809 4.362-3.809h7.166c2.126 0 3.955 1.597 4.362 3.809l6.369 34.606c.327 1.773-.332 3.587-1.695 4.671z"/><path fill="#B53E3E" d="M182.149 211.941c-2.441-4.572-2.332-9.926-.875-14.928 1.507-5.171 3.175-10.148 3.179-15.662.003-3.444-1.038-12.119-5.484-12.119-6.364 0-2.493 9.428-13.179 9.428-8.012 0-13.404-9.392-15.498-16.046-.923-2.933-.458-8.393-.458-8.393l-1.677.02s-1.625 16.289-12.151 15.725c-12.436-.665-12.382-21.812-13.841-25.366-1.579-3.848-6.544-4.159-8.393-.453-3.25 6.515-4.813 13.894-4.115 21.164.637 6.631 2.838 13.352 4.581 19.767 1.075 3.959 2.116 7.965 3.476 11.838 1.739 4.953 1.617 10.427-.841 15.036-5.638 10.571-7.826 14.277-7.825 19.408.004 22.951 20.73 30.727 40.458 30.727 17.979 0 40.458-7.775 40.458-30.727-.001-5.129-2.18-8.864-7.815-19.419z"/><path fill="#FFE7C5" d="M156.766 75.967v103.752c0 .556-.32.995-.728.995H142.97c-.408 0-.728-.439-.728-.995V75.967c0-.542.32-.995.728-.995h13.068c.408 0 .728.453.728.995z"/><path fill="#242326" d="M157.564 211.858h-16.119c-1.264 0-2.279-1.121-2.279-2.505v-1.881h20.676v1.881c.001 1.383-1.014 2.505-2.278 2.505z"/><path fill="#3D3D3D" d="M157.564 209.976h-16.119c-1.264 0-2.279-1.121-2.279-2.504s1.015-2.505 2.279-2.505h16.119c1.264 0 2.279 1.121 2.279 2.505 0 1.383-1.015 2.504-2.279 2.504z"/><path fill="#C6A883" d="M142.243 73h14.513v8h-14.513z"/><path fill="#242326" d="M157.564 199.727h-16.119c-1.264 0-2.279-1.121-2.279-2.505v-1.881h20.676v1.881c.001 1.384-1.014 2.505-2.278 2.505z"/><path fill="#3D3D3D" d="M157.564 197.845h-16.119c-1.264 0-2.279-1.121-2.279-2.504s1.015-2.505 2.279-2.505h16.119c1.264 0 2.279 1.121 2.279 2.505 0 1.383-1.015 2.504-2.279 2.504zm4.559-126.091l-2.136 1.602a17.472 17.472 0 01-20.966 0l-2.136-1.602a4.442 4.442 0 01-1.695-4.406l6.369-32.646a4.443 4.443 0 014.362-3.593h7.166a4.444 4.444 0 014.362 3.593l6.369 32.646a4.441 4.441 0 01-1.695 4.406z"/><path fill="#CCC" d="M168.324 247.58c3.337-5.431 7.722-13.679 8.482-20.559.416-3.757 5.698-4.324 6.891-.737.314.946.606 2.046.866 3.323 1.844 9.066-4.303 19.454-11.694 23.064-3.18 1.551-6.397-2.075-4.545-5.091z"/><circle cx="180.559" cy="230.267" r="2.653" fill="#000500"/><path fill="#4F4F4F" d="M182.674 229.725v.542a2.116 2.116 0 01-4.232 0v-.542c0-.415.118-.802.326-1.128h.493a2.099 2.099 0 012.588 0h.493c.214.328.332.715.332 1.128z"/><path fill="#686868" d="M182.674 229.725a2.116 2.116 0 11-4.232 0 2.116 2.116 0 014.232 0z"/><circle cx="178.442" cy="238.461" r="2.653" fill="#000500"/><path fill="#4F4F4F" d="M180.558 237.919v.542a2.116 2.116 0 01-4.232 0v-.542c0-.415.118-.802.326-1.128h.493a2.099 2.099 0 012.588 0h.493c.213.327.332.713.332 1.128z"/><path fill="#686868" d="M180.558 237.919a2.116 2.116 0 11-4.232 0 2.116 2.116 0 014.232 0z"/><circle cx="174.094" cy="246.23" r="2.653" fill="#000500"/><path fill="#4F4F4F" d="M176.209 245.686v.542a2.116 2.116 0 01-4.232 0v-.542c0-.415.118-.802.326-1.128h.493a2.1 2.1 0 012.588 0h.493c.214.329.332.715.332 1.128z"/><path fill="#686868" d="M176.209 245.686a2.116 2.116 0 11-4.232 0 2.116 2.116 0 014.232 0z"/><path fill="#CCC" d="M159.259 235.956h-19.578a3.14 3.14 0 01-3.131-3.131v-9.024a3.14 3.14 0 013.131-3.131h19.578a3.14 3.14 0 013.131 3.131v9.024a3.142 3.142 0 01-3.131 3.131z"/><path fill="#E2E1E0" d="M159.259 233.786h-19.578a3.14 3.14 0 01-3.131-3.131v-9.024a3.14 3.14 0 013.131-3.131h19.578a3.14 3.14 0 013.131 3.131v9.024a3.142 3.142 0 01-3.131 3.131z"/><path fill="#242326" d="M147 227.414a.519.519 0 01-.519-.519V54.153a.519.519 0 111.038 0v172.742a.52.52 0 01-.519.519zm6 0a.519.519 0 01-.519-.519V54.153a.519.519 0 111.038 0v172.742a.52.52 0 01-.519.519z"/></svg>