<svg enable-background="new 0 0 300 300" viewBox="0 0 300 300" xmlns="http://www.w3.org/2000/svg"><ellipse cx="150" cy="150" fill="#fff" rx="150" ry="150" transform="matrix(.7071 -.7071 .7071 .7071 -62.1321 149.9998)"/><circle cx="150" cy="150" fill="#eb595b" r="140.812"/><path d="m196.055 135.577-1.989 55.98 13.021-3.307 6.731-14.655c7.094-15.438-1.37-33.552-17.763-38.018" fill="#e59623"/><path d="m215.138 86.467 15.446 60.819c.246.969-.34 1.954-1.309 2.2l-135.248 34.349c-.969.246-1.955-.34-2.201-1.308l-15.446-60.82c-.246-.969.341-1.954 1.31-2.2l135.248-34.349c.969-.246 1.953.34 2.2 1.309" fill="#3a3a3a"/><path d="m213.1 78.461 15.446 60.819c.245.964-.335 1.952-1.309 2.2l-135.248 34.349c-.964.245-1.955-.344-2.2-1.309l-15.446-60.819c-.245-.966.344-1.955 1.309-2.2l135.248-34.349c.973-.247 1.954.344 2.2 1.309" fill="#494949"/><path d="m148.129 123.988-66.861 16.981.383 1.51 48.053-12.204c.84-.877 1.869-1.592 3.049-2.078.41-.17.825-.307 1.24-.412 1.672-.425 3.365-.342 4.909.154l8.985-2.282c.029-.57.111-1.128.242-1.669m27.572-7.003-12.238 3.108c.377.415.717.867 1.013 1.35l11.821-3.002c-.191-.488-.39-.973-.596-1.456m44.324-11.256-26.664 6.772c.28.463.555.929.825 1.398l26.223-6.66z" fill="#343434"/><path d="m127.597 139.462-43.881 11.144.384 1.512 43.754-11.112zm20.452-5.194-3.036.771.256 1.544 2.814-.715zm30.772-7.816-12.928 3.283.046 1.597 13.224-3.359c-.107-.507-.221-1.015-.342-1.521m43.651-11.086-24.422 6.202c.21.482.415.967.615 1.453l24.191-6.144z" fill="#343434"/><path d="m234.719 100.672-168.77 42.862c-.727.185-1.466-.255-1.65-.982-.184-.726.255-1.465.982-1.65l168.77-42.862c.727-.185 1.466.256 1.65.982.185.727-.255 1.465-.982 1.65" fill="#fff"/><path d="m227.47 111.987-149.831 38.052c-.726.184-1.466-.256-1.65-.982-.185-.727.256-1.466.982-1.65l149.832-38.052c.727-.185 1.466.255 1.65.982.184.725-.256 1.465-.983 1.65" fill="#fff"/><path d="m117.419 145.99c-.462.118-.919.285-1.363.505-3.255 1.602-4.794 5.58-3.723 9.577l3.098 11.609.848 1.979 17.076-4.337-2.15-2.77-1.453-1.966-2.03-7.63c-1.335-4.98-6.091-8.037-10.303-6.967" fill="#343434"/><path d="m145.269 136.583-17.416 4.423 1.472 8.854 1.671 4.816 3.578 10.338 18.901-4.8-7.168-17.374zm-.807-3.515-17.188 4.365c.019.169.042.338.07.507l.253 1.521 17.417-4.423-.007-.043c-.114-.677-.299-1.321-.545-1.927m-5.559-5.13-9.198 2.336c-1.147 1.197-1.941 2.696-2.288 4.321l15.564-3.953c-1.086-1.264-2.504-2.198-4.078-2.704" fill="#343434"/><path d="m133.994 127.784c-.415.105-.83.242-1.24.412-1.18.485-2.209 1.201-3.049 2.078l9.198-2.336c-1.544-.496-3.237-.578-4.909-.154" fill="#252525"/><path d="m145.013 135.039-17.416 4.423.256 1.544 17.416-4.423z" fill="#252525"/><path d="m142.98 130.643-15.564 3.953c-.195.916-.249 1.873-.143 2.838l17.188-4.365c-.366-.901-.871-1.716-1.481-2.426" fill="#b7b7b7"/><path d="m165.939 131.333-17.856 4.535.053 2.517.965 5.013 6.191 16.353 20.427-5.188-9.708-20.718zm-.107-3.692-17.828 4.528.045 2.099 17.844-4.532zm-1.355-6.198-16.589 4.213c-.01.213-.013.427-.008.642l.065 3.083 17.754-4.509c-.171-1.252-.599-2.411-1.222-3.429m-2.134-2.39-13.727 3.486c-.202.465-.366.949-.487 1.448l15.335-3.895c-.344-.377-.719-.725-1.121-1.039m-7.72-1.622c-1.233.313-2.351.874-3.306 1.621l7.001-1.778c-1.185-.2-2.436-.163-3.695.157" fill="#343434"/><path d="m163.464 120.093-15.335 3.895c-.131.541-.213 1.099-.241 1.668l16.589-4.213c-.296-.483-.636-.935-1.013-1.35" fill="#252525"/><path d="m165.893 129.736-17.844 4.532.034 1.6 17.856-4.535z" fill="#252525"/><path d="m158.318 117.274-7.001 1.778c-1.176.919-2.106 2.121-2.7 3.488l13.727-3.486c-1.161-.907-2.541-1.53-4.026-1.78" fill="#b7b7b7"/><path d="m165.7 124.873-17.754 4.509.059 2.787 17.828-4.528-.05-1.724c-.008-.355-.036-.703-.083-1.044" fill="#b7b7b7"/><path d="m198.665 123.022-19.502 4.953c.211 1 .396 2.005.555 3.016l3.25 21.733 24.324-6.177-7.514-20.65c-.351-.966-.723-1.924-1.113-2.875m-1.468-3.347-18.884 4.796c.181.657.351 1.318.509 1.981l19.229-4.884c-.277-.634-.562-1.265-.854-1.893m-3.012-5.777-17.887 4.543c.446 1.13.857 2.272 1.232 3.427l18.441-4.683c-.568-1.112-1.164-2.207-1.786-3.287m-1.53-2.543-17.476 4.438c.179.395.353.792.523 1.192l17.659-4.485c-.233-.384-.468-.765-.706-1.145m-14.665-12.507c-4.983 1.266-7.585 6.766-5.4 11.433l1.417 3.008 17.109-4.345-4.198-6.572c-1.904-2.973-5.497-4.395-8.928-3.524" fill="#343434"/><path d="m193.361 112.5-17.659 4.485c.205.482.405.968.597 1.456l17.887-4.543c-.271-.469-.546-.935-.825-1.398" fill="#252525"/><path d="m198.05 121.569-19.229 4.884c.121.506.235 1.014.342 1.522l19.502-4.953c-.2-.486-.405-.971-.615-1.453" fill="#252525"/><path d="m191.117 108.944-17.109 4.345.834 1.771c.114.244.227.488.337.733l17.476-4.438c-.097-.155-.195-.309-.294-.464z" fill="#b7b7b7"/><path d="m195.972 117.184-18.441 4.683c.28.862.541 1.73.781 2.603l18.884-4.796c-.245-.524-.495-1.045-.751-1.564l-.002-.009-.008.002c-.152-.307-.306-.613-.463-.919" fill="#b7b7b7"/><path d="m192.27 122.513c-.966-2.656-2.081-5.254-3.333-7.783l-.007-.016h-.002c-1.227-2.474-2.586-4.883-4.077-7.213l-5.443-8.511c-1.903-2.976-5.499-4.398-8.923-3.528-4.991 1.267-7.59 6.769-5.402 11.429l2.246 4.781c2.374 5.054 4.015 10.42 4.878 15.935l3.765 25.192-.015.021c-1.443 1.941-4.053 2.597-6.241 1.568l-11.211-23.93-.233-7.925c-.123-5.759-5.573-9.905-11.156-8.487-4.04 1.026-6.837 4.703-6.748 8.87l.258 12.083.966 5.011 7.429 19.634-1.716.436-8.507-20.632-1.304-7.835c-.945-5.682-6.931-9.006-12.254-6.805-3.851 1.593-6.094 5.632-5.411 9.744l1.983 11.921 1.672 4.822 4.729 13.635-.033.008-4.483-5.768-1.452-1.968-2.038-7.626c-1.477-5.53-7.177-8.69-11.666-6.468-3.248 1.608-4.791 5.58-3.722 9.582l3.1 11.603 2.4 5.607.048.088 20.745 47.412c5.25 11.998 18.412 18.435 31.106 15.211l26.13-6.636c13.287-3.374 21.875-16.243 19.894-29.808l-7.263-49.718z" fill="#ffb031"/></svg>