<svg xmlns="http://www.w3.org/2000/svg" version="1.0" viewBox="0 0 300 300"><circle cx="150" cy="150" r="150" fill="#FFF"/><circle cx="150" cy="150" r="140.8" fill="#DC5063"/><circle cx="150" cy="146.587" r="57.851" fill="#FFF"/><path fill="#F4DC2F" d="M99.758 146.691a50.165 50.165 0 002.845 16.697h94.794a50.144 50.144 0 002.845-16.697 50.144 50.144 0 00-2.872-16.773h-94.74a50.144 50.144 0 00-2.872 16.773z"/><path fill="#DC5063" d="M102.703 129.944h94.741c-6.905-19.5-25.505-33.47-47.37-33.47s-40.466 13.97-47.371 33.47z"/><path fill="#22F422" d="M197.354 163.397h-94.741c6.905 19.5 25.505 33.47 47.37 33.47s40.467-13.97 47.371-33.47z"/><path fill="#3D3D3D" d="M178.645 176.539c-2.301-4.309-2.743-9.551-.825-14.072a37.91 37.91 0 002.997-14.763c.003-3.246 0-10.259 0-10.259s-5.812-1.946-7.636.559c-2.932 4.03-5.079 7.163-11.261 7.163-7.552 0-11.33-8.853-13.304-15.126-.87-2.764-.432-7.911-.432-7.911l-1.581.019s-1.517 14.824-11.454 14.824c-4.314 0-6.782-2.959-8.158-6.309-1.488-3.627-12.06 6.749-12.06 6.749v10.259c0 5.248 1.066 10.227 2.976 14.705 1.941 4.552 1.525 9.829-.793 14.173-2.298 4.308-7.377 8.036-7.377 8.036v10.259c.004 21.635 19.541 28.965 38.137 28.965 16.947 0 38.137-7.329 38.137-28.965v-10.259s-4.881-3.392-7.366-8.047zM154.428 67.097c1.783-1.194 2.951-3.303 2.951-5.726 0-1.382-.023-4.226-.023-4.226s-4.033-2.536-6.295-2.536c-2.86 0-5.381 1.934-6.253 4.603a.223.223 0 00-.024-.019c-2.643 7.985-3.904 11.977-6.416 19.963v2.841c0 1.4.318 2.649 1.437 3.208.516.257.774.386 1.294.643a5.022 5.022 0 002.235.522h10.514c.506 0 .913-.438.913-.979v-.64c0-.208.102-.398.268-.503.678-.425 1.016-.639 1.686-1.064.397-.252.531-.737.531-1.254v-3.407a2470.47 2470.47 0 00-2.818-11.426z"/><path fill="#515151" d="M154.428 63.439c2.209-1.479 3.48-4.363 2.741-7.508-.545-2.32-2.266-4.19-4.464-4.765-3.499-.916-6.86 1.217-7.896 4.388a.223.223 0 00-.024-.019c-2.6 9.121-3.842 13.682-6.314 22.804-.348 1.283.216 2.649 1.336 3.208l.733.366a7.66 7.66 0 003.425.799h9.883c.506 0 .913-.438.913-.979v-.64c0-.208.102-.398.268-.503.678-.425 1.016-.639 1.686-1.064.397-.252.601-.752.51-1.242a4300.232 4300.232 0 00-2.797-14.845zm24.217 102.842c-2.3-4.31-2.198-9.357-.825-14.072 1.42-4.874 2.993-9.566 2.997-14.763.003-3.246-.979-8.49-5.169-8.49-5.998 0-6.705 5.954-12.423 5.954-7.552 0-12.635-8.853-14.609-15.126-.87-2.764-.432-7.911-.432-7.911l-1.581.019s-1.517 14.824-11.454 14.824c-4.314 0-6.782-2.959-8.158-6.309-1.488-3.627-6.169-3.921-7.911-.426-2.203 4.415-4.149 10.328-4.149 17.435 0 5.248 1.39 10.193 2.976 14.705 1.64 4.668 1.525 9.829-.793 14.173-5.315 9.965-7.377 13.457-7.377 18.295.004 21.635 19.541 28.965 38.137 28.965 16.947 0 38.137-7.329 38.137-28.965-.001-4.838-2.054-8.359-7.366-18.308z"/><path fill="#FFEEF0" d="M147.873 132.519s9.229 6.016 15.942 6.016c6.028 0 7.527-5.942 10.604-5.942 2.707 0 3.358 2.811 3.358 5.044 0 6.216-4.42 13.502-4.42 20.998s8.955 18.144 8.955 26.196c0 9.065-4.005 14.061-10.136 16.369-11.78 4.435-18.593-17.445-24.303-20.046-4.677-2.13-16.085 6.511-19.316 3.04-6.495-6.976 5.877-19.028 5.877-28.702 0-8.102-7.844-15.105-2.532-20.918 4.144-4.534 15.971-2.055 15.971-2.055z"/><path fill="#DBC8CC" d="M157.016 154.21h-18.287c-.367 0-.664-.325-.664-.726v-10.685c0-.401.297-.726.664-.726h18.287c.367 0 .664.325.664.726v10.685c.001.4-.296.726-.664.726z"/><path fill="#F2DADE" d="M157.016 152.523h-18.287c-.367 0-.664-.325-.664-.726v-10.685c0-.401.297-.726.664-.726h18.287c.367 0 .664.325.664.726v10.685c.001.401-.296.726-.664.726z"/><path fill="#FFE7C5" d="M153.184 85.647v59.822c0 .551-.234.986-.532.986h-9.557c-.298 0-.532-.435-.532-.986V85.647c0-.537.234-.986.532-.986h9.557c.298-.002.532.448.532.986z"/><path fill="#DBC8CC" d="M157.658 186.478h-19.571c-1.535 0-2.767-1.361-2.767-3.041v-2.284h25.104v2.284c.002 1.68-1.231 3.041-2.766 3.041zm-2.138-19.553h-15.291c-1.201 0-2.161-1.054-2.161-2.354v-1.405h19.615v1.405c-.002 1.299-.963 2.354-2.163 2.354z"/><path fill="#F2DADE" d="M155.52 165.518h-15.291c-1.201 0-2.161-1.054-2.161-2.354s.961-2.354 2.161-2.354h15.291c1.201 0 2.161 1.054 2.161 2.354 0 1.301-.961 2.354-2.161 2.354zm2.138 18.676h-19.571c-1.535 0-2.767-1.361-2.767-3.04 0-1.68 1.233-3.041 2.767-3.041h19.571c1.535 0 2.767 1.361 2.767 3.041.001 1.679-1.232 3.04-2.767 3.04z"/><circle cx="169.452" cy="181.157" r="3.226" fill="#DBC8CC"/><path fill="#4F4F4F" d="M172.024 180.498v.659a2.574 2.574 0 01-5.146 0v-.659c0-.504.144-.975.397-1.372h.6a2.555 2.555 0 013.148 0h.6c.257.399.401.868.401 1.372z"/><path fill="#686868" d="M172.024 180.498a2.574 2.574 0 11-2.574-2.573c.915 0 1.722.48 2.175 1.201.255.399.399.868.399 1.372z"/><circle cx="166.225" cy="172.294" r="3.226" fill="#DBC8CC"/><path fill="#4F4F4F" d="M168.798 171.635v.659a2.574 2.574 0 01-5.146 0v-.659c0-.504.144-.975.397-1.372h.6a2.555 2.555 0 013.148 0h.6c.257.398.401.868.401 1.372z"/><path fill="#686868" d="M168.798 171.635a2.574 2.574 0 11-2.574-2.573c.915 0 1.722.48 2.175 1.201.255.398.399.868.399 1.372z"/><circle cx="172.678" cy="190.018" r="3.226" fill="#DBC8CC"/><path fill="#4F4F4F" d="M175.251 189.36v.659a2.574 2.574 0 01-5.146 0v-.659c0-.504.144-.975.397-1.372h.6a2.555 2.555 0 013.148 0h.6c.257.398.401.867.401 1.372z"/><path fill="#686868" d="M175.251 189.36a2.574 2.574 0 11-2.574-2.573c.915 0 1.722.48 2.175 1.201.255.398.399.867.399 1.372z"/><path fill="none" stroke="#3F3F3F" stroke-linecap="round" stroke-miterlimit="10" stroke-width="1.043" d="M146.642 181.154V70.156m2.827 110.998V61.316"/></svg>