<?xml version="1.0" encoding="utf-8"?>
<!-- Generator: Adobe Illustrator 23.0.6, SVG Export Plug-In . SVG Version: 6.00 Build 0)  -->
<svg version="1.0" id="Camada_1" xmlns="http://www.w3.org/2000/svg" xmlns:xlink="http://www.w3.org/1999/xlink" x="0px" y="0px"
	 viewBox="0 0 300 300" enable-background="new 0 0 300 300" xml:space="preserve">
<ellipse fill="#FFFFFF" cx="150" cy="150" rx="148" ry="148"/>
<circle fill="#EB595B" cx="150" cy="150" r="138.936"/>
<g>
	<path fill="#D64148" d="M82.424,219.973c-11.033-20.033,17.711-39.486,30.486-20.033c8.129,10.162,18.582,14.808,27.873,14.808
		c20.905,0,40.938-7.549,40.938-32.81c0-20.614-20.033-27.873-38.325-27.873c-9.872,0-22.356,2.613-35.422,5.227
		c-15.388,4.355-27.583-5.227-25.55-20.614l2.323-68.812c0-15.098,10.162-20.324,23.228-20.324h84.2
		c24.389,0,23.808,36.583,0,36.583H121.04l-1.742,35.131c45.584-12.194,100.75,7.259,100.75,60.682
		c0,45.875-35.713,68.521-79.264,68.521C116.104,250.459,94.909,240.878,82.424,219.973z"/>
</g>
<g>
	<path fill="#A86307" d="M178.193,185.878c-2.109-3.948-2.513-8.751-0.756-12.893c1.766-4.165,2.742-8.765,2.746-13.526
		c0.003-2.974,0-9.399,0-9.399s-5.325-1.783-6.997,0.512c-2.687,3.692-4.653,6.562-10.318,6.562c-6.92,0-10.381-8.111-12.189-13.859
		c-0.797-2.533-0.396-7.248-0.396-7.248c-0.581,0.007-0.875,0.011-1.448,0.018c0,0-1.39,13.582-10.494,13.582
		c-3.953,0-6.214-2.711-7.474-5.78c-1.364-3.323-11.05,6.184-11.05,6.184s0,2.887,0,9.399c0,4.808,0.977,9.37,2.726,13.473
		c1.778,4.171,1.397,9.005-0.726,12.986c-2.106,3.947-6.759,7.363-6.759,7.363s0,6.883,0,9.399
		c0.004,19.822,17.903,26.538,34.941,26.538c15.527,0,34.941-6.715,34.941-26.538c0-2.358,0-9.399,0-9.399
		S180.47,190.142,178.193,185.878L178.193,185.878z"/>
	<path fill="#A86307" d="M156.005,85.606c1.634-1.094,2.703-3.026,2.703-5.246c0-1.266-0.021-3.872-0.021-3.872
		s-3.695-2.324-5.767-2.324c-2.621,0-4.93,1.772-5.729,4.217c-0.008-0.007-0.013-0.011-0.022-0.018
		c-2.421,7.316-3.577,10.974-5.879,18.29v2.603c0,1.283,0.291,2.427,1.316,2.939c0.473,0.236,0.709,0.353,1.186,0.589
		c0.636,0.315,1.333,0.479,2.047,0.479h9.633c0.464,0,0.837-0.402,0.837-0.897c0-0.235,0-0.352,0-0.586
		c0-0.19,0.094-0.365,0.246-0.461c0.622-0.39,0.93-0.585,1.545-0.975c0.364-0.231,0.486-0.675,0.486-1.148c0-1.248,0-1.873,0-3.122
		C157.562,91.887,157.048,89.793,156.005,85.606z"/>
	<path fill="#F2A12C" d="M156.005,82.254c2.024-1.355,3.188-3.997,2.511-6.879c-0.499-2.125-2.076-3.839-4.09-4.366
		c-3.206-0.84-6.285,1.115-7.234,4.021c-0.008-0.007-0.013-0.011-0.022-0.018c-2.382,8.357-3.52,12.536-5.785,20.893
		c-0.319,1.175,0.198,2.427,1.224,2.939c0.268,0.134,0.403,0.201,0.672,0.335c0.971,0.482,2.036,0.732,3.138,0.732h9.055
		c0.464,0,0.837-0.402,0.837-0.897c0-0.235,0-0.351,0-0.586c0-0.19,0.094-0.365,0.246-0.461c0.622-0.39,0.93-0.585,1.545-0.975
		c0.364-0.231,0.551-0.689,0.468-1.138C157.55,90.415,157.04,87.695,156.005,82.254L156.005,82.254z"/>
	<path fill="#F2A12C" d="M178.193,176.479c-2.108-3.949-2.014-8.573-0.756-12.893c1.301-4.466,2.742-8.765,2.746-13.526
		c0.003-2.974-0.897-7.779-4.736-7.779c-5.496,0-6.143,5.455-11.382,5.455c-6.92,0-11.577-8.111-13.385-13.859
		c-0.797-2.533-0.396-7.248-0.396-7.248c-0.581,0.007-0.875,0.011-1.448,0.018c0,0-1.39,13.582-10.494,13.582
		c-3.953,0-6.214-2.711-7.474-5.78c-1.364-3.323-5.652-3.592-7.248-0.391c-2.019,4.045-3.802,9.462-3.802,15.974
		c0,4.808,1.274,9.339,2.726,13.473c1.503,4.277,1.397,9.005-0.726,12.986c-4.869,9.13-6.759,12.329-6.759,16.762
		c0.004,19.822,17.903,26.538,34.941,26.538c15.527,0,34.941-6.715,34.941-26.538C184.941,188.82,183.06,185.595,178.193,176.479z"
		/>
	<path fill="#FFEEF0" d="M150,145.546c0,0,8.456,5.512,14.606,5.512c5.522,0,6.896-5.444,9.716-5.444
		c2.48,0,3.076,2.575,3.076,4.622c0,5.695-4.049,12.371-4.049,19.238s8.204,16.624,8.204,24.001c0,8.306-3.669,12.883-9.287,14.997
		c-10.793,4.063-17.035-15.983-22.266-18.366c-4.285-1.952-14.737,5.965-17.697,2.785c-5.951-6.392,5.384-17.434,5.384-26.297
		c0-7.423-7.187-13.839-2.32-19.165C139.163,143.275,150,145.546,150,145.546L150,145.546z"/>
	<path fill="#DBC8CC" d="M158.377,165.419c-6.46,0-10.295,0-16.755,0c-0.336,0-0.609-0.298-0.609-0.665c0-3.916,0-5.874,0-9.79
		c0-0.367,0.272-0.665,0.609-0.665h16.755c0.336,0,0.609,0.298,0.609,0.665v9.79C158.986,165.121,158.713,165.419,158.377,165.419z"
		/>
	<path fill="#F2DADE" d="M158.377,163.874c-6.46,0-10.295,0-16.755,0c-0.336,0-0.609-0.298-0.609-0.665c0-3.916,0-5.874,0-9.79
		c0-0.367,0.272-0.665,0.609-0.665h16.755c0.336,0,0.609,0.298,0.609,0.665v9.79C158.986,163.576,158.713,163.874,158.377,163.874z"
		/>
	<path fill="#FFE7C5" d="M154.865,102.601v54.809c0,0.505-0.214,0.904-0.487,0.904c-3.412,0-5.344,0-8.756,0
		c-0.273,0-0.487-0.399-0.487-0.904c0-17.268,0-37.541,0-54.809c0-0.492,0.214-0.904,0.487-0.904h8.756
		C154.651,101.697,154.865,102.109,154.865,102.601z"/>
	<path fill="#E0E0E0" d="M154.865,102.601v3.004c-3.783,0-5.947,0-9.731,0c0-1.202,0-1.803,0-3.004c0-0.492,0.214-0.904,0.487-0.904
		h8.756C154.651,101.697,154.865,102.109,154.865,102.601z"/>
	<path fill="#DBC8CC" d="M158.965,194.984c-6.912,0-11.019,0-17.931,0c-1.406,0-2.535-1.247-2.535-2.786c0-0.838,0-1.255,0-2.093h23
		v2.093C161.501,193.737,160.371,194.984,158.965,194.984z"/>
	<path fill="#DBC8CC" d="M157.005,177.069c-5.412,0-8.599,0-14.01,0c-1.1,0-1.98-0.966-1.98-2.157c0-0.515,0-0.773,0-1.288h17.971
		v1.288C158.986,176.103,158.106,177.069,157.005,177.069z"/>
	<path fill="#F2DADE" d="M157.005,175.78c-5.412,0-8.599,0-14.01,0c-1.1,0-1.98-0.966-1.98-2.157s0.88-2.157,1.98-2.157h14.01
		c1.1,0,1.98,0.966,1.98,2.157C158.986,174.815,158.106,175.78,157.005,175.78z"/>
	<path fill="#F2DADE" d="M158.965,192.891c-6.912,0-11.019,0-17.931,0c-1.406,0-2.535-1.247-2.535-2.785
		c0-1.539,1.13-2.786,2.535-2.786h17.931c1.406,0,2.535,1.247,2.535,2.786C161.501,191.644,160.371,192.891,158.965,192.891z"/>
	<circle fill="#DBC8CC" cx="169.77" cy="190.109" r="2.956"/>
	<path fill="#4F4F4F" d="M172.127,189.505v0.604c0,1.301-1.056,2.357-2.357,2.357c-1.301,0-2.357-1.056-2.357-2.357v-0.604
		c0-0.462,0.132-0.893,0.364-1.257h0.55c0.4-0.311,0.899-0.496,1.443-0.496c0.544,0,1.044,0.186,1.443,0.496h0.55
		C171.995,188.613,172.127,189.043,172.127,189.505L172.127,189.505z"/>
	<path fill="#686868" d="M172.127,189.505c0,1.301-1.056,2.357-2.357,2.357c-1.301,0-2.357-1.056-2.357-2.357
		c0-0.462,0.132-0.893,0.364-1.257c0.414-0.66,1.153-1.1,1.993-1.1c0.839,0,1.578,0.44,1.993,1.1
		C171.995,188.613,172.127,189.043,172.127,189.505z"/>
	<circle fill="#DBC8CC" cx="166.814" cy="181.988" r="2.956"/>
	<path fill="#4F4F4F" d="M169.171,181.385v0.604c0,1.301-1.056,2.357-2.357,2.357c-1.301,0-2.357-1.056-2.357-2.357v-0.604
		c0-0.462,0.132-0.893,0.364-1.257h0.55c0.4-0.311,0.899-0.496,1.443-0.496c0.544,0,1.044,0.185,1.443,0.496h0.55
		C169.039,180.492,169.171,180.923,169.171,181.385L169.171,181.385z"/>
	<path fill="#686868" d="M169.171,181.385c0,1.301-1.056,2.357-2.357,2.357c-1.301,0-2.357-1.056-2.357-2.357
		c0-0.462,0.132-0.893,0.364-1.257c0.414-0.66,1.153-1.1,1.993-1.1c0.839,0,1.578,0.44,1.993,1.1
		C169.039,180.492,169.171,180.923,169.171,181.385L169.171,181.385z"/>
	<circle fill="#DBC8CC" cx="172.726" cy="198.227" r="2.956"/>
	<path fill="#4F4F4F" d="M175.083,197.624v0.604c0,1.301-1.056,2.357-2.357,2.357c-1.301,0-2.357-1.056-2.357-2.357v-0.604
		c0-0.462,0.132-0.893,0.364-1.257h0.55c0.4-0.311,0.899-0.496,1.443-0.496c0.544,0,1.044,0.186,1.443,0.496h0.55
		C174.951,196.731,175.083,197.161,175.083,197.624L175.083,197.624z"/>
	<path fill="#686868" d="M175.083,197.624c0,1.301-1.056,2.357-2.357,2.357c-1.301,0-2.357-1.056-2.357-2.357
		c0-0.462,0.132-0.893,0.364-1.257c0.414-0.66,1.153-1.1,1.993-1.1c0.839,0,1.578,0.44,1.993,1.1
		C174.951,196.731,175.083,197.161,175.083,197.624z"/>
	<g>
		<g>
			<path fill="#3F3F3F" d="M150.506,190.965c-0.207,0-0.375-0.168-0.375-0.375V88.893c0-0.207,0.168-0.375,0.375-0.375
				s0.375,0.168,0.375,0.375V190.59C150.881,190.797,150.713,190.965,150.506,190.965z"/>
		</g>
		<g>
			<path fill="#3F3F3F" d="M152.646,190.965c-0.207,0-0.375-0.168-0.375-0.375V80.793c0-0.207,0.168-0.375,0.375-0.375
				s0.375,0.168,0.375,0.375V190.59C153.021,190.797,152.853,190.965,152.646,190.965z"/>
		</g>
		<g>
			<path fill="#3F3F3F" d="M145.588,190.965c-0.207,0-0.375-0.168-0.375-0.375V88.893c0-0.207,0.168-0.375,0.375-0.375
				s0.375,0.168,0.375,0.375V190.59C145.963,190.797,145.795,190.965,145.588,190.965z"/>
		</g>
		<g>
			<path fill="#3F3F3F" d="M148.058,190.965c-0.207,0-0.375-0.168-0.375-0.375V80.793c0-0.207,0.168-0.375,0.375-0.375
				s0.375,0.168,0.375,0.375V190.59C148.433,190.797,148.265,190.965,148.058,190.965z"/>
		</g>
		<g>
			<path fill="#3F3F3F" d="M154.686,190.965c-0.207,0-0.375-0.168-0.375-0.375V94.391c0-0.207,0.168-0.375,0.375-0.375
				s0.375,0.168,0.375,0.375v96.199C155.061,190.797,154.893,190.965,154.686,190.965z"/>
		</g>
	</g>
</g>
</svg>
