<svg xmlns="http://www.w3.org/2000/svg" viewBox="0 0 300 300"><ellipse transform="rotate(-45.001 149.997 150.002)" fill="#FFF" cx="149.998" cy="150" rx="149.776" ry="149.775"/><circle fill="#FAE040" cx="150" cy="150" r="140.602"/><path fill="#C17510" d="M194.454 130.257l-1.986 55.897 13.002-3.302 6.721-14.633c7.082-15.417-1.369-33.503-17.737-37.962"/><path fill="#3A3A3A" d="M213.507 81.386l15.423 60.729a1.806 1.806 0 0 1-1.307 2.196L92.577 178.609a1.808 1.808 0 0 1-2.198-1.306l-15.423-60.729a1.808 1.808 0 0 1 1.308-2.197L211.31 80.08a1.806 1.806 0 0 1 2.197 1.306"/><path fill="#494949" d="M211.472 73.392l15.423 60.729a1.806 1.806 0 0 1-1.307 2.196L90.542 170.615a1.814 1.814 0 0 1-2.197-1.307l-15.423-60.729a1.813 1.813 0 0 1 1.307-2.197l135.046-34.297a1.807 1.807 0 0 1 2.197 1.307"/><path opacity=".66" fill="#3A3A3A" d="M108.509 137.223s13-3.083 21.417 20.083l-7.583 5.083M127.176 119.057s11.167-4.25 19.583 18.917l2.083 20.833"/><path fill="#FFF" d="M238 120.18L71.075 162.574c-.719.183-1.473-.345-1.685-1.179-.211-.832.199-1.657.918-1.84l166.925-42.394c.719-.183 1.474.346 1.685 1.178.212.835-.199 1.658-.918 1.841M238.035 105.103L71.11 147.497c-.719.183-1.473-.345-1.685-1.179-.211-.832.199-1.657.918-1.84l166.926-42.393c.719-.183 1.474.346 1.685 1.178.211.834-.2 1.657-.919 1.84M224.714 93.935L57.789 136.329c-.719.183-1.473-.345-1.685-1.179-.211-.832.199-1.657.918-1.84l166.925-42.393c.719-.183 1.474.346 1.685 1.178.212.834-.199 1.658-.918 1.84M224.167 80.263L57.242 122.657c-.719.183-1.473-.345-1.685-1.179-.211-.832.199-1.657.918-1.84L223.4 77.245c.719-.183 1.474.346 1.685 1.178.212.834-.199 1.658-.918 1.84"/><path fill="#3A3A3A" d="M79.026 132.795l138.49-35.559.374 1.453L79.4 134.25zM75.573 119l138.49-35.56.373 1.453-138.49 35.56zM82.335 145.75l138.49-35.56.373 1.454-138.49 35.559zM85.947 159.822l138.49-35.56.373 1.454-138.49 35.559z"/><path opacity=".66" fill="#3A3A3A" d="M147.426 108.557s12.75-1.333 13.917 11.083l.333 4.75 9.313 27.708-10.313 1.708-13.25-45.249zM168.176 90.286s12.25-4.146 17.75 8.438 20 35.833 16 52l-4.417 1.375-29.333-61.813z"/><path fill="#E8961F" d="M190.673 117.212a76.189 76.189 0 0 0-3.328-7.771l-.007-.016h-.002a76.025 76.025 0 0 0-4.071-7.202l-5.435-8.499a8.186 8.186 0 0 0-8.91-3.523c-4.983 1.266-7.579 6.759-5.394 11.412l2.243 4.774a58.822 58.822 0 0 1 4.871 15.912l3.76 25.154-.015.021a5.074 5.074 0 0 1-6.231 1.566l-11.195-23.895-.233-7.913c-.123-5.75-5.565-9.89-11.139-8.474a8.94 8.94 0 0 0-6.738 8.857l.258 12.065.965 5.004 7.418 19.605-1.713.435-8.495-20.601-1.302-7.824c-.944-5.674-6.921-8.993-12.236-6.795a8.942 8.942 0 0 0-5.403 9.729l1.98 11.904 1.67 4.815 4.722 13.614-.033.008-4.477-5.759-1.45-1.965-2.035-7.615c-1.475-5.522-7.166-8.677-11.649-6.459-3.243 1.606-4.784 5.572-3.716 9.568l3.095 11.586 2.396 5.599.048.088 20.714 47.341c5.242 11.98 18.385 18.407 31.06 15.188l26.091-6.626c13.267-3.369 21.843-16.219 19.865-29.763l-7.252-49.644-8.697-23.901z"/></svg>