<svg xmlns="http://www.w3.org/2000/svg" version="1.0" viewBox="0 0 300 300"><circle cx="150" cy="150" r="150" fill="#FFF" transform="rotate(-45.001 149.999 150.002)"/><circle cx="150" cy="150" r="140.812" fill="#EB595B"/><path fill="#EFEFEF" d="M158.694 120.558c.759 1.1.372 2.628-.831 3.209-1.517.733-4.003 1.471-7.863 1.471s-6.346-.738-7.863-1.471c-1.203-.581-1.591-2.11-.831-3.209l4.528-6.558h8.332l4.528 6.558z"/><path fill="#E8E8E8" d="M141.518 77.828c3.936 3.936 0 16.684 0 16.684s-2.212 10.524-8.446 10.524c-19.984 0-31.585-29.138-27.242-33.481 4.802-4.801 15.876 6.273 35.688 6.273zm16.964 0c-3.936 3.936 0 16.684 0 16.684s2.212 10.524 8.446 10.524c19.984 0 31.585-29.138 27.242-33.481-4.802-4.801-15.876 6.273-35.688 6.273z"/><path fill="#EFEFEF" d="M159.3 69.636a9.593 9.593 0 00-.042-1.08c-.413-4.334-3.874-7.855-8.202-8.332a9.305 9.305 0 00-10.352 9.619c.167 4.206-1.168 8.297-3.458 11.829a15.106 15.106 0 00-2.433 8.245c0 8.386 6.799 26.045 15.185 26.045s15.185-17.659 15.185-26.045c0-3.1-.93-5.983-2.525-8.385-2.337-3.523-3.433-7.669-3.358-11.896z"/><path fill="#E5E5E5" d="M161.9 91.091c0 6.572-5.328 20.411-11.9 20.411s-11.9-13.839-11.9-20.411 5.328-11.9 11.9-11.9 11.9 5.328 11.9 11.9z"/><path fill="#FAE040" d="M149.739 75.467l-2.567-3.344a.994.994 0 01.102-1.333c1.628-1.505 3.826-1.505 5.454 0a.994.994 0 01.102 1.333l-2.567 3.344a.33.33 0 01-.524 0z"/><path fill="#EACC35" d="M150.349 74.557c-.176.172-.523.172-.699 0l-2.424-2.362 2.512 3.273a.33.33 0 00.523 0l2.512-3.273-2.424 2.362z"/><path fill="#E59623" d="M182.362 167.659l-1.496 42.169 9.808-2.491 5.071-11.04c5.342-11.631-1.034-25.275-13.383-28.638"/><path fill="#9E9E9E" d="M196.734 130.663l11.638 45.814a1.363 1.363 0 01-.986 1.657l-101.88 25.88a1.363 1.363 0 01-1.657-.986l-11.638-45.814a1.363 1.363 0 01.986-1.657l101.88-25.88a1.364 1.364 0 011.657.986"/><path fill="#D1D1D1" d="M195.2 124.632l11.638 45.814a1.364 1.364 0 01-.986 1.658l-101.879 25.879a1.368 1.368 0 01-1.658-.986l-11.638-45.814a1.368 1.368 0 01.986-1.658l101.879-25.879a1.365 1.365 0 011.658.986"/><path fill="#9E9E9E" d="M146.258 158.93l-50.365 12.794.289 1.138 36.197-9.195a6.712 6.712 0 012.297-1.566 6.678 6.678 0 014.633-.195l6.767-1.719c.021-.428.083-.849.182-1.257m20.77-5.276l-9.218 2.342c.284.313.541.654.764 1.018l8.905-2.262a45.936 45.936 0 00-.451-1.098m33.389-8.482l-20.086 5.102c.211.349.418.7.622 1.054l19.754-5.018-.29-1.138"/><path fill="#494949" d="M84.354 173.658l127.133-32.294a1.023 1.023 0 10-.503-1.983L83.85 171.675a1.023 1.023 0 00.504 1.983"/><path fill="#9E9E9E" d="M123.126 175.506a5.213 5.213 0 00-1.028.381c-2.452 1.207-3.611 4.204-2.805 7.214l2.334 8.745.639 1.491 12.863-3.267-1.62-2.086-1.094-1.482-1.53-5.747c-1.003-3.753-4.586-6.055-7.759-5.249m16.183-13.599l-6.93 1.76a6.737 6.737 0 00-1.778 5.774l1.493 8.979 1.259 3.628 2.696 7.787 14.238-3.617-5.4-13.088-.98-5.908a6.729 6.729 0 00-4.598-5.315"/><path fill="#848484" d="M135.611 161.791c-.313.08-.626.183-.935.311a6.712 6.712 0 00-2.297 1.566l6.93-1.76a6.66 6.66 0 00-3.698-.117"/><path fill="#9E9E9E" d="M158.573 157.013l-12.497 3.174a6.47 6.47 0 00-.006.483l.195 9.105.727 3.777 4.663 12.318 15.388-3.909-7.314-15.607-.173-5.972a6.696 6.696 0 00-.983-3.369m-1.607-1.8l-10.341 2.627c-.152.35-.275.714-.367 1.09l11.552-2.934a6.722 6.722 0 00-.844-.783m-5.816-1.222a6.727 6.727 0 00-2.49 1.221l5.274-1.34a6.736 6.736 0 00-2.784.119"/><path fill="#848484" d="M157.81 155.995l-11.552 2.934a6.73 6.73 0 00-.182 1.258l12.497-3.174a6.742 6.742 0 00-.763-1.018"/><path fill="#3A3A3A" d="M153.933 153.872l-5.274 1.34a6.765 6.765 0 00-2.034 2.628l10.341-2.627a6.758 6.758 0 00-3.033-1.341"/><path fill="#9E9E9E" d="M180.953 151.328l-13.474 3.423a44.687 44.687 0 012.576 9.453l2.449 16.371 18.323-4.654-5.661-15.555a57.689 57.689 0 00-2.511-5.864l-.002-.006-.006.002a56.54 56.54 0 00-1.694-3.17m-1.154-1.915l-13.165 3.344c.135.298.266.597.394.897l13.303-3.379a58.662 58.662 0 00-.532-.862m-11.047-9.421c-3.755.954-5.713 5.096-4.068 8.611l1.067 2.267 12.889-3.274-3.163-4.951a6.176 6.176 0 00-6.725-2.653"/><path fill="#848484" d="M180.331 150.275l-13.303 3.379c.155.364.305.729.45 1.097l13.474-3.423a55.83 55.83 0 00-.621-1.053"/><path fill="#3A3A3A" d="M178.641 147.596l-12.889 3.274.628 1.334c.086.184.171.368.254.552l13.165-3.344a25.741 25.741 0 00-.222-.35l-.936-1.466"/><path fill="#FFB031" d="M191.546 213.3l-5.472-37.452-6.563-18.03a57.423 57.423 0 00-2.512-5.863l-.005-.012h-.001a57.4 57.4 0 00-3.072-5.433l-4.1-6.411a6.175 6.175 0 00-6.722-2.657c-3.759.955-5.717 5.099-4.068 8.609l1.691 3.601a44.322 44.322 0 013.675 12.004l2.838 18.977-.012.015a3.83 3.83 0 01-4.701 1.182l-8.446-18.027-.176-5.969c-.092-4.338-4.199-7.461-8.404-6.393a6.745 6.745 0 00-5.083 6.682l.196 9.102.728 3.775 5.597 14.79-1.292.328-6.41-15.542-.982-5.902c-.712-4.28-5.222-6.785-9.232-5.126a6.744 6.744 0 00-4.075 7.34l1.494 8.98 1.26 3.632 3.563 10.271-.025.006-3.378-4.344-1.094-1.483-1.535-5.744c-1.113-4.166-5.407-6.546-8.788-4.872-2.447 1.211-3.61 4.203-2.804 7.218l2.336 8.741 1.808 4.224.037.069 15.628 35.712c3.955 9.038 13.871 13.886 23.432 11.457l19.683-5c10.01-2.544 16.479-12.238 14.986-22.455z"/></svg>