<svg xmlns="http://www.w3.org/2000/svg" version="1.0" viewBox="0 0 300 300"><circle cx="150" cy="149.993" r="150" fill="#FFF" transform="rotate(-45.001 149.999 149.996)"/><circle cx="150" cy="149.993" r="140.812" fill="#5EC2D7"/><path fill="#FFF" d="M217 86.219v151.548a7.968 7.968 0 01-7.976 7.976H90.976A7.979 7.979 0 0183 237.767V86.219c0-1.579.463-3.063 1.26-4.291a7.938 7.938 0 016.716-3.685h118.048a7.967 7.967 0 016.732 3.685A8.006 8.006 0 01217 86.219z"/><path fill="#EDEDED" d="M205.786 224.202H94.228a2.393 2.393 0 010-4.786h111.558a2.393 2.393 0 010 4.786zm0-39.881H94.228a2.393 2.393 0 010-4.786h111.558a2.393 2.393 0 010 4.786zm0-39.881H94.228a2.393 2.393 0 010-4.786h111.558a2.393 2.393 0 010 4.786zm0-39.881H94.228a2.393 2.393 0 010-4.786h111.558a2.393 2.393 0 010 4.786zm0 12.761H94.228a.798.798 0 110-1.596h111.558a.798.798 0 110 1.596zm0 11.167H94.228a.798.798 0 110-1.596h111.558a.798.798 0 110 1.596zm0 28.715H94.228a.798.798 0 110-1.596h111.558a.798.798 0 110 1.596zm0 11.166H94.228a.798.798 0 110-1.596h111.558a.798.798 0 110 1.596zm0 28.715H94.228a.798.798 0 110-1.596h111.558a.798.798 0 110 1.596zm0 11.166H94.228a.798.798 0 110-1.596h111.558a.798.798 0 110 1.596z"/><path fill="#565656" d="M115.083 102.751c-4.327-1.564-9.687-1.445-13.361 1.604-2.698 2.067-4.064 5.633-3.647 8.966a6.616 6.616 0 006.608 6.356 6.622 6.622 0 000-13.244 6.592 6.592 0 00-3.608 1.073c.285-.541.613-.969.847-1.206 2.054-2.082 5.114-3.079 7.993-2.639 3.172.427 5.175 3.411 5.911 6.301a29.661 29.661 0 01.526 12.102c-1.136 6.577-5.816 11.978-11.363 15.408-2.321 1.544-4.914 2.571-7.446 3.697l-.734.269a.562.562 0 00-.333.719c.009.023.026.04.037.061.006.013.014.023.021.035.137.221.407.33.66.237l.929-.341-.003-.008c6.639-2.153 13.131-5.346 18.112-10.325 4.073-4.006 6.641-9.6 6.549-15.355 0-.96-.051-1.921-.167-2.875-.427-4.568-3.08-9.18-7.531-10.835zm13.78 8.679a3.253 3.253 0 100-6.506 3.253 3.253 0 000 6.506zm0 5.399a3.253 3.253 0 100 6.506 3.253 3.253 0 000-6.506z"/><path fill="#962C2C" d="M181.913 216.438c-2.423-4.539-2.316-9.855-.869-14.821 1.496-5.134 3.152-10.076 3.157-15.55.003-3.419-1.031-12.033-5.445-12.033-6.318 0-2.475 9.361-13.085 9.361-7.955 0-13.309-9.324-15.388-15.932-.916-2.912-.454-8.333-.454-8.333l-1.665.02s-1.613 16.172-12.065 15.613c-12.347-.661-12.293-21.657-13.743-25.185-1.568-3.821-6.497-4.129-8.333-.449-3.227 6.469-4.779 13.795-4.086 21.013.632 6.584 2.817 13.257 4.548 19.626 1.068 3.93 2.1 7.908 3.451 11.754 1.727 4.918 1.606 10.353-.835 14.928-5.599 10.495-7.77 14.174-7.77 19.27.004 22.788 20.582 30.508 40.169 30.508 17.851 0 40.169-7.72 40.169-30.508.002-3.145-2.161-8.802-7.756-19.282z"/><path fill="#242326" d="M161.379 76.439l-2.092 1.663c-6.086 4.839-14.455 4.839-20.54 0l-2.092-1.663c-1.336-1.061-1.981-2.839-1.661-4.576l6.239-33.905c.399-2.167 2.19-3.732 4.274-3.732h7.021c2.083 0 3.874 1.564 4.274 3.732l6.239 33.905c.319 1.737-.326 3.514-1.662 4.576z"/><path fill="#B53E3E" d="M180.999 210.432c-2.391-4.478-2.285-9.726-.858-14.625 1.477-5.066 3.111-9.942 3.115-15.344.003-3.374-1.017-11.873-5.373-11.873-6.234 0-2.442 9.237-12.912 9.237-7.85 0-13.133-9.201-15.184-15.722-.904-2.873-.448-8.222-.448-8.222l-1.643.02s-1.592 15.958-11.905 15.406c-12.183-.652-12.131-21.37-13.56-24.851-1.547-3.77-6.411-4.075-8.223-.443-3.184 6.383-4.716 13.612-4.032 20.735.624 6.496 2.78 13.082 4.487 19.366 1.053 3.878 2.073 7.803 3.405 11.598 1.704 4.853 1.584 10.216-.824 14.731-5.524 10.357-7.667 13.987-7.667 19.014.004 22.486 20.31 30.104 39.637 30.104 17.614 0 39.637-7.618 39.637-30.104.004-5.027-2.131-8.686-7.652-19.027z"/><path fill="#FFE7C5" d="M156.131 77.214v101.649c0 .544-.313.974-.713.974h-12.802c-.399 0-.713-.43-.713-.974V77.214c0-.531.313-.975.713-.975h12.802c.399.001.713.445.713.975z"/><path fill="#242326" d="M156.913 210.351h-15.791c-1.238 0-2.232-1.098-2.232-2.454v-1.843h20.257v1.843c-.001 1.354-.997 2.454-2.234 2.454z"/><path fill="#3D3D3D" d="M156.913 208.507h-15.791c-1.238 0-2.232-1.098-2.232-2.454s.994-2.454 2.232-2.454h15.791c1.238 0 2.232 1.098 2.232 2.454.001 1.356-.995 2.454-2.232 2.454z"/><path fill="#C6A883" d="M141.903 74.308h14.219v7.838h-14.219z"/><path fill="#242326" d="M156.913 198.466h-15.791c-1.238 0-2.232-1.098-2.232-2.454v-1.843h20.257v1.843c-.001 1.355-.997 2.454-2.234 2.454z"/><path fill="#3D3D3D" d="M156.913 196.623h-15.791c-1.238 0-2.232-1.098-2.232-2.454s.994-2.454 2.232-2.454h15.791c1.238 0 2.232 1.098 2.232 2.454.001 1.355-.995 2.454-2.232 2.454zm4.466-123.536l-2.092 1.569a17.118 17.118 0 01-20.54 0l-2.092-1.569a4.351 4.351 0 01-1.661-4.317l6.239-31.985a4.353 4.353 0 014.274-3.52h7.021a4.356 4.356 0 014.274 3.52l6.239 31.985a4.355 4.355 0 01-1.662 4.317z"/><path fill="#CCC" d="M167.454 245.349c3.269-5.321 7.565-13.401 8.31-20.142.407-3.681 5.583-4.237 6.751-.722.307.927.594 2.004.849 3.256 1.807 8.882-4.216 19.06-11.457 22.596-3.116 1.519-6.267-2.034-4.453-4.988z"/><circle cx="179.442" cy="228.386" r="2.599" fill="#000500"/><path fill="#4F4F4F" d="M181.514 227.856v.531a2.075 2.075 0 01-4.148 0v-.531c0-.406.116-.786.319-1.105h.483c.351-.274.79-.437 1.268-.437s.918.163 1.268.437h.483a2 2 0 01.327 1.105z"/><path fill="#686868" d="M181.514 227.856a2.075 2.075 0 11-2.076-2.073c.738 0 1.388.387 1.753.968.207.321.323.7.323 1.105z"/><circle cx="177.367" cy="236.415" r="2.599" fill="#000500"/><path fill="#4F4F4F" d="M179.441 235.884v.531a2.075 2.075 0 01-4.148 0v-.531c0-.406.116-.786.319-1.105h.483c.351-.274.79-.437 1.268-.437s.918.163 1.268.437h.483a2 2 0 01.327 1.105z"/><path fill="#686868" d="M179.441 235.884a2.075 2.075 0 11-2.076-2.073c.738 0 1.388.387 1.753.968.206.32.323.698.323 1.105z"/><circle cx="173.107" cy="244.026" r="2.599" fill="#000500"/><path fill="#4F4F4F" d="M175.18 243.494v.531a2.075 2.075 0 01-4.148 0v-.531c0-.406.116-.786.319-1.105h.483a2.054 2.054 0 012.536 0h.483c.211.321.327.699.327 1.105z"/><path fill="#686868" d="M175.18 243.494a2.075 2.075 0 11-2.076-2.073c.738 0 1.388.387 1.753.968.207.321.323.699.323 1.105z"/><path fill="#CCC" d="M158.515 233.96h-19.064a3.136 3.136 0 01-3.126-3.126v-8.724a3.136 3.136 0 013.126-3.126h19.064a3.136 3.136 0 013.126 3.126v8.724a3.136 3.136 0 01-3.126 3.126z"/><path fill="#E2E1E0" d="M158.515 231.834h-19.064a3.136 3.136 0 01-3.126-3.126v-8.724a3.136 3.136 0 013.126-3.126h19.064a3.136 3.136 0 013.126 3.126v8.724a3.136 3.136 0 01-3.126 3.126z"/><path fill="#242326" d="M148.983 225.592a.508.508 0 01-.508-.508V55.843a.508.508 0 011.016 0v169.241c0 .28-.228.508-.508.508z"/></svg>