<svg enable-background="new 0 0 300 300" viewBox="0 0 300 300" xmlns="http://www.w3.org/2000/svg"><ellipse cx="150.928" cy="150.041" fill="#fff" rx="149.999" ry="149.999"/><circle cx="150.93" cy="150.041" fill="#5ec2d7" r="140.812"/><path d="m189.76 135.621-1.985 55.98 13.02-3.307 6.731-14.656c7.092-15.44-1.373-33.553-17.766-38.017" fill="#e59623"/><path d="m208.84 86.508 15.449 60.819c.246.969-.34 1.954-1.31 2.2l-135.246 34.356c-.969.246-1.954-.339-2.2-1.309l-15.449-60.819c-.246-.969.34-1.954 1.309-2.2l135.246-34.355c.969-.247 1.955.34 2.201 1.308" fill="#3a3a3a"/><path d="m206.802 78.503 15.449 60.818c.245.966-.336 1.954-1.309 2.201l-135.246 34.355c-.966.245-1.956-.344-2.201-1.309l-15.449-60.818c-.245-.966.344-1.956 1.309-2.201l135.246-34.355c.974-.248 1.956.343 2.201 1.309" fill="#494949"/><path d="m141.832 124.033-66.86 16.984.384 1.511 48.052-12.206c.84-.877 1.869-1.593 3.049-2.079.411-.17.825-.307 1.241-.412 1.672-.425 3.365-.342 4.909.154l8.983-2.282c.029-.57.11-1.129.242-1.67m27.572-7.004-12.237 3.109c.378.415.718.868 1.014 1.351l11.821-3.003c-.193-.489-.392-.974-.598-1.457m44.324-11.26-26.665 6.773c.28.463.555.93.825 1.399l26.223-6.661z" fill="#343434"/><path d="m59.653 143.584 168.77-42.871c.727-.185 1.166-.924.982-1.651-.185-.727-.923-1.167-1.651-.982l-168.77 42.871c-.726.185-1.166.923-.981 1.65.185.728.924 1.168 1.65.983" fill="#fff"/><path d="m111.124 146.037c-.463.118-.92.285-1.364.506-3.255 1.602-4.794 5.58-3.723 9.577l3.099 11.609.848 1.979 17.076-4.338-2.151-2.769-1.452-1.967-2.031-7.629c-1.334-4.981-6.09-8.038-10.302-6.968" fill="#343434"/><path d="m132.607 127.984-9.2 2.337c-1.906 1.99-2.839 4.811-2.36 7.665l1.982 11.92 1.672 4.816 3.579 10.338 18.901-4.801-7.169-17.375-1.301-7.843c-.582-3.481-3.052-6.076-6.104-7.057" fill="#343434"/><path d="m127.698 127.83c-.416.106-.831.243-1.241.412-1.18.486-2.209 1.201-3.049 2.079l9.2-2.337c-1.545-.496-3.238-.579-4.91-.154" fill="#252525"/><path d="m158.181 121.488-16.59 4.214c-.01.212-.013.426-.008.641l.259 12.087.965 5.014 6.19 16.353 20.428-5.189-9.71-20.718-.23-7.928c-.036-1.656-.512-3.178-1.304-4.474m-2.134-2.39-13.728 3.487c-.202.465-.366.949-.487 1.447l15.335-3.895c-.344-.378-.719-.725-1.12-1.039m-7.722-1.622c-1.233.313-2.351.874-3.306 1.621l7.001-1.778c-1.184-.2-2.436-.163-3.695.157" fill="#343434"/><path d="m157.167 120.137-15.335 3.895c-.131.541-.213 1.1-.241 1.67l16.59-4.214c-.296-.483-.637-.935-1.014-1.351" fill="#252525"/><path d="m152.021 117.319-7.001 1.778c-1.176.92-2.106 2.121-2.701 3.488l13.728-3.487c-1.16-.906-2.541-1.529-4.026-1.779" fill="#b7b7b7"/><path d="m187.889 113.942-17.887 4.544c1.595 4.04 2.743 8.249 3.42 12.549l3.251 21.732 24.324-6.179-7.515-20.649c-.964-2.651-2.082-5.254-3.333-7.785l-.002-.008-.008.002c-.707-1.428-1.457-2.83-2.25-4.206m-1.531-2.544-17.476 4.439c.179.395.353.792.523 1.191l17.659-4.486c-.232-.382-.467-.764-.706-1.144m-14.665-12.506c-4.984 1.266-7.584 6.765-5.4 11.431l1.417 3.01 17.11-4.346-4.199-6.572c-1.904-2.972-5.497-4.394-8.928-3.523" fill="#343434"/><path d="m187.064 112.543-17.659 4.486c.206.483.405.968.598 1.457l17.887-4.544c-.271-.47-.546-.936-.826-1.399" fill="#252525"/><path d="m184.82 108.987-17.11 4.346.834 1.771c.114.244.227.488.338.733l17.476-4.439c-.097-.155-.196-.31-.294-.465z" fill="#b7b7b7"/><path d="m201.953 196.209-7.265-49.718h-.001l-8.713-23.935c-.967-2.656-2.081-5.254-3.334-7.783l-.007-.015h-.001c-1.227-2.474-2.588-4.883-4.078-7.213l-5.443-8.511c-1.904-2.976-5.499-4.397-8.924-3.528-4.99 1.268-7.59 6.769-5.401 11.429l2.245 4.781c2.374 5.054 4.017 10.419 4.879 15.936l3.767 25.192.002.001-.015.02c-1.442 1.941-4.052 2.597-6.241 1.568h-.001l-11.211-23.93-.234-7.925c-.123-5.759-5.574-9.905-11.157-8.487-4.04 1.026-6.836 4.704-6.748 8.87l.26 12.082.967 5.012 7.431 19.634-1.717.436-8.509-20.633-1.303-7.835c-.945-5.682-6.932-9.006-12.255-6.805-3.851 1.593-6.094 5.632-5.41 9.744l1.983 11.922 1.673 4.822 4.73 13.634-.033.008-4.484-5.767-1.452-1.968-2.037-7.626c-1.478-5.531-7.177-8.691-11.666-6.468-3.249 1.608-4.792 5.581-3.722 9.582l3.101 11.603 2.4 5.607.044.08 20.751 47.419c5.25 11.999 18.413 18.434 31.107 15.21l26.129-6.637c13.286-3.374 21.874-16.243 19.893-29.808z" fill="#ffb031"/></svg>