<svg xmlns="http://www.w3.org/2000/svg" viewBox="0 0 300 300"><path fill="#fff" d="M256.063 256.065c-58.578 58.578-153.552 58.578-212.13 0s-58.578-153.552 0-212.13 153.552-58.578 212.13 0 58.578 153.552 0 212.13z"/><path fill="#fbbc4b" d="M150 290.812c77.768 0 140.812-63.044 140.812-140.812S227.768 9.188 150 9.188 9.188 72.232 9.188 150 72.232 290.812 150 290.812z"/><path fill="#515151" d="M230.976 94.875l19.986 74.59a2.228 2.228 0 0 1-1.576 2.728l-165.87 44.444a2.227 2.227 0 0 1-2.729-1.574l-19.986-74.589a2.228 2.228 0 0 1 1.576-2.73l165.869-44.445a2.228 2.228 0 0 1 2.73 1.576"/><path fill="#d1d1d1" d="M228.338 85.055l19.986 74.59a2.228 2.228 0 0 1-1.574 2.729L80.879 206.82a2.235 2.235 0 0 1-2.728-1.576l-19.986-74.59a2.235 2.235 0 0 1 1.575-2.729l165.87-44.446a2.227 2.227 0 0 1 2.728 1.576"/><path fill="#9e9e9e" d="M104.918 217.037a1.793 1.793 0 0 1-2.204-1.238l-27.118-96.603a1.793 1.793 0 0 1 1.238-2.204 1.793 1.793 0 0 1 2.204 1.238l27.118 96.603a1.793 1.793 0 0 1-1.238 2.204zm24.93-5.924a1.793 1.793 0 0 1-2.204-1.238l-27.118-96.603a1.793 1.793 0 0 1 1.238-2.204 1.793 1.793 0 0 1 2.204 1.238l27.118 96.603a1.793 1.793 0 0 1-1.238 2.204zm24.73-5.723a1.793 1.793 0 0 1-2.204-1.238l-27.118-96.603a1.793 1.793 0 0 1 1.238-2.204 1.793 1.793 0 0 1 2.204 1.238l27.118 96.603a1.793 1.793 0 0 1-1.238 2.204zm24.81-5.368a1.793 1.793 0 0 1-2.204-1.238l-27.118-96.603a1.793 1.793 0 0 1 1.238-2.204 1.793 1.793 0 0 1 2.204 1.238l27.118 96.603a1.794 1.794 0 0 1-1.238 2.204zm24.898-5.462a1.793 1.793 0 0 1-2.204-1.238L174.965 96.72a1.793 1.793 0 0 1 1.238-2.204 1.793 1.793 0 0 1 2.204 1.238l27.118 96.603a1.793 1.793 0 0 1-1.239 2.203zm26.409-8.941a1.793 1.793 0 0 1-2.204-1.238l-27.118-96.603a1.793 1.793 0 0 1 1.238-2.204 1.793 1.793 0 0 1 2.204 1.238l27.118 96.603a1.793 1.793 0 0 1-1.238 2.204z"/><path fill="#b7b7b7" d="M237.143 117.955l.496 1.853-170.173 45.598-.497-1.853zm3.68 13.688l.497 1.853-170.174 45.598-.496-1.853zm-7.318-27.289l.496 1.852-170.173 45.598-.497-1.853z"/><path fill="#494949" d="M48.842 166.958l196.566-52.67a1.67 1.67 0 1 0-.865-3.229l-196.566 52.67a1.672 1.672 0 0 0 .865 3.229m5.06-15.678l198.343-53.146a1.671 1.671 0 1 0-.865-3.229L53.037 148.051a1.672 1.672 0 0 0 .865 3.229"/><path fill="#b7b7b7" d="M244.146 144.025l.497 1.853-170.174 45.598-.496-1.853z"/><path fill="#494949" d="M48.842 195.393l196.566-52.67a1.67 1.67 0 1 0-.865-3.229l-196.566 52.67a1.672 1.672 0 0 0 .865 3.229m5.06-15.678l198.343-53.146a1.671 1.671 0 1 0-.865-3.229L53.037 176.486a1.673 1.673 0 0 0 .865 3.229"/><path fill="#6b6b6b" d="M83.286 146.59l-.518-1.847 3.452-.925.519 1.847zm3.809 13.556l-.519-1.847 3.453-.926.518 1.847zm3.83 13.657l-.518-1.847 3.453-.925.518 1.847zm3.458 12.319l-.518-1.847 3.453-.925.518 1.847zm13.641-46.143l-.519-1.846 3.453-.926.519 1.847zm3.793 13.512l-.519-1.847 3.453-.925.519 1.847zm3.836 13.668l-.518-1.847 3.453-.925.518 1.847zm3.475 12.348l-.518-1.847 3.452-.925.519 1.847zm13.379-46.133l-.519-1.847 3.453-.925.519 1.847zm3.793 13.512l-.519-1.847 3.453-.925.519 1.847zm3.836 13.668l-.518-1.847 3.453-.925.518 1.847zm3.475 12.348l-.518-1.847 3.453-.925.518 1.847zm13.381-46.063l-.518-1.846 3.453-.926.518 1.847zm3.793 13.512l-.518-1.847 3.453-.925.518 1.847zm3.837 13.668l-.519-1.847 3.453-.925.519 1.847zm3.474 12.348l-.518-1.847 3.453-.925.518 1.847zm13.471-46.096l-.519-1.847 3.453-.926.518 1.847zm3.793 13.512l-.519-1.847 3.453-.926.518 1.847zm3.836 13.667l-.518-1.847 3.453-.925.518 1.847zm3.475 12.348l-.519-1.847 3.453-.925.519 1.847zm15.786-46.743l-.518-1.847 3.453-.925.518 1.847zm3.793 13.512l-.518-1.847 3.453-.925.518 1.847zm3.837 13.668l-.518-1.847 3.452-.926.519 1.847zm3.475 12.348l-.519-1.847 3.453-.926.519 1.847z"/></svg>