<svg xmlns="http://www.w3.org/2000/svg" version="1.0" viewBox="0 0 300 300"><circle cx="149.998" cy="150" r="149.999" fill="#FFF"/><circle cx="150" cy="150" r="140.812" fill="#EB595B"/><path fill="#FFF" d="M214.901 92.773v146.8a7.719 7.719 0 01-7.726 7.726H92.825a7.729 7.729 0 01-7.726-7.726v-146.8c0-1.53.448-2.967 1.221-4.157a7.688 7.688 0 016.506-3.57h114.349a7.714 7.714 0 016.521 3.57 7.75 7.75 0 011.205 4.157z"/><path fill="#EDEDED" d="M204.038 226.432H95.976a2.318 2.318 0 010-4.636h108.063a2.318 2.318 0 11-.001 4.636zm0-38.631H95.976a2.318 2.318 0 010-4.636h108.063a2.318 2.318 0 11-.001 4.636zm0-38.632H95.976a2.318 2.318 0 010-4.636h108.063a2.318 2.318 0 11-.001 4.636zm0-38.631H95.976a2.318 2.318 0 010-4.636h108.063a2.318 2.318 0 11-.001 4.636zm0 12.362H95.976a.773.773 0 110-1.546h108.063a.773.773 0 11-.001 1.546zm0 10.816H95.976a.773.773 0 110-1.546h108.063a.773.773 0 11-.001 1.546zm0 27.815H95.976a.773.773 0 110-1.546h108.063a.773.773 0 11-.001 1.546zm0 10.817H95.976a.773.773 0 110-1.546h108.063a.773.773 0 11-.001 1.546zm0 27.815H95.976a.773.773 0 110-1.546h108.063a.773.773 0 11-.001 1.546zm0 10.817H95.976a.773.773 0 110-1.546h108.063a.773.773 0 11-.001 1.546z"/><g fill="#CCC"><path d="M116.009 137.427a3.454 3.454 0 01-3.454-3.454v-30.047a3.454 3.454 0 016.908 0v30.047a3.454 3.454 0 01-3.454 3.454z"/><path d="M108.224 109.912a3.454 3.454 0 01-1.065-6.74l7.801-2.53a3.454 3.454 0 112.131 6.571l-7.801 2.53a3.474 3.474 0 01-1.066.169z"/><path d="M116.009 100.473a3.42 3.42 0 00-1.049.169l-.207.067a3.454 3.454 0 00-2.197 3.218v4.756l4.535-1.471a3.455 3.455 0 002.372-2.942v-.343a3.454 3.454 0 00-3.454-3.454m57.093 36.956a3.453 3.453 0 01-2.541-5.791c4.057-4.412 7.87-7.458 10.933-9.906 1.633-1.305 3.044-2.432 4.163-3.5a3.454 3.454 0 114.768 4.998c-1.339 1.277-2.859 2.492-4.619 3.898-3.029 2.42-6.462 5.163-10.16 9.185a3.45 3.45 0 01-2.544 1.116zm.961-25a3.453 3.453 0 01-3.015-5.132c2.349-4.227 7.036-6.867 12.234-6.889h.015a3.453 3.453 0 01.014 6.908c-3.235.014-5.376 1.806-6.226 3.337a3.453 3.453 0 01-3.022 1.776z"/><path d="M188.041 124.184a3.454 3.454 0 01-2.384-5.953c1.834-1.75 3.786-4.416 2.67-7.184-.888-2.204-3.346-3.733-5.004-3.733h-.027a3.455 3.455 0 01-.015-6.908h.041c4.657 0 9.557 3.457 11.411 8.058 1.971 4.89.4 10.271-4.309 14.763a3.432 3.432 0 01-2.383.957zm5.118 13.245h-20.056a3.454 3.454 0 010-6.908h20.056a3.454 3.454 0 010 6.908z"/><path d="M188.04 117.277a3.454 3.454 0 102.384 5.953c2.258-2.154.71-5.953-2.384-5.953m-4.743-16.869h-.015a3.454 3.454 0 00.014 6.908h.015a3.454 3.454 0 00-.014-6.908m-1.631 30.113h-8.563c-3.704 0-4.876 5.244-1.269 6.667a3.455 3.455 0 003.811-.875 69.972 69.972 0 016.021-5.792m-5.898 39.367a3.453 3.453 0 01-2.368-5.967l13.663-12.872a3.453 3.453 0 114.736 5.028l-13.663 12.872a3.447 3.447 0 01-2.368.939z"/><path d="M189.431 157.016h-16.327a3.454 3.454 0 010-6.908h16.327a3.454 3.454 0 010 6.908zm2.43 21.387a3.454 3.454 0 01-3.451-3.655c.034-.583.018-2.595-1.614-3.994-1.904-1.631-5.562-1.967-10.299-.945a3.454 3.454 0 01-1.456-6.752c7.096-1.53 12.564-.706 16.249 2.451 2.73 2.339 4.232 5.943 4.017 9.641a3.457 3.457 0 01-3.446 3.254z"/><path d="M180.865 187.065a3.454 3.454 0 010-6.908c3.919 0 7.375-2.477 7.545-5.409a3.45 3.45 0 013.648-3.247 3.453 3.453 0 013.247 3.648c-.193 3.31-1.877 6.376-4.744 8.634-2.685 2.117-6.129 3.282-9.696 3.282z"/><path d="M180.865 187.065c-4.372 0-8.359-2.143-10.666-5.732a3.454 3.454 0 015.811-3.735c1.03 1.603 2.845 2.559 4.856 2.559a3.454 3.454 0 11-.001 6.908zm8.573-36.957c-.859 0-1.708.317-2.368.94l-6.334 5.968h8.702c3.755 0 4.771-5.232 1.309-6.651a3.466 3.466 0 00-1.309-.257m-7.986 12.204c-1.959 0-4.096.249-6.405.746-4.332.934-3.189 7.744 1.514 6.74a3.432 3.432 0 001.582-.85l6.741-6.351a19.723 19.723 0 00-3.432-.285m10.401 9.183a3.452 3.452 0 00-3.436 3.254v.004a3.454 3.454 0 103.436-3.258"/><path d="M180.871 180.158a3.454 3.454 0 100 6.908 3.454 3.454 0 000-6.908"/></g><path fill="#962C2C" d="M182.466 216.804c-2.427-4.547-2.32-9.872-.87-14.846 1.499-5.143 3.157-10.093 3.162-15.576.003-3.425-1.033-12.053-5.454-12.053-6.329 0-2.479 9.377-13.107 9.377-7.968 0-13.331-9.34-15.414-15.959-.918-2.917-.455-8.347-.455-8.347l-1.668.02s-1.616 16.199-12.085 15.639c-12.368-.662-12.314-21.693-13.766-25.227-1.571-3.827-6.508-4.136-8.347-.45-3.232 6.48-4.787 13.818-4.093 21.048.633 6.595 2.822 13.279 4.556 19.659 1.07 3.937 2.104 7.921 3.457 11.774 1.73 4.926 1.609 10.37-.836 14.953-5.608 10.513-7.783 14.198-7.783 19.302.004 22.826 20.617 30.559 40.237 30.559 17.881 0 40.237-7.733 40.237-30.559 0-3.15-2.167-8.817-7.771-19.314z"/><path fill="#242326" d="M161.897 76.569l-2.096 1.666c-6.096 4.847-14.479 4.847-20.575 0l-2.096-1.666c-1.338-1.063-1.984-2.844-1.664-4.584l6.25-33.962c.4-2.171 2.194-3.738 4.281-3.738h7.033c2.087 0 3.881 1.567 4.281 3.738l6.25 33.962c.32 1.74-.326 3.52-1.664 4.584z"/><path fill="#B53E3E" d="M181.55 210.788c-2.395-4.486-2.289-9.742-.859-14.65 1.479-5.075 3.116-9.959 3.12-15.37.003-3.38-1.019-11.893-5.382-11.893-6.245 0-2.446 9.253-12.934 9.253-7.863 0-13.155-9.217-15.21-15.748-.906-2.878-.449-8.236-.449-8.236l-1.646.02s-1.595 15.985-11.925 15.432c-12.204-.653-12.151-21.406-13.583-24.893-1.55-3.776-6.422-4.082-8.237-.444-3.189 6.394-4.724 13.635-4.039 20.77.625 6.507 2.785 13.104 4.495 19.399 1.055 3.885 2.076 7.816 3.411 11.618 1.707 4.861 1.587 10.233-.825 14.756-5.533 10.374-7.68 14.011-7.68 19.046.004 22.524 20.344 30.155 39.704 30.155 17.644 0 39.704-7.631 39.704-30.155.004-5.037-2.135-8.702-7.665-19.06z"/><path fill="#FFE7C5" d="M156.64 77.345v101.82c0 .545-.314.976-.714.976h-12.824c-.4 0-.714-.431-.714-.976V77.345c0-.532.314-.977.714-.977h12.824c.4.001.714.446.714.977z"/><path fill="#242326" d="M157.423 210.706h-15.818c-1.24 0-2.236-1.1-2.236-2.458v-1.846h20.291v1.846c0 1.357-.997 2.458-2.237 2.458z"/><path fill="#3D3D3D" d="M157.423 208.859h-15.818c-1.24 0-2.236-1.1-2.236-2.458s.996-2.458 2.236-2.458h15.818c1.24 0 2.236 1.1 2.236 2.458.001 1.358-.996 2.458-2.236 2.458z"/><path fill="#C6A883" d="M142.388 74.434h14.243v7.851h-14.243z"/><path fill="#242326" d="M157.423 198.801h-15.818c-1.24 0-2.236-1.1-2.236-2.458v-1.846h20.291v1.846c0 1.358-.997 2.458-2.237 2.458z"/><path fill="#3D3D3D" d="M157.423 196.955h-15.818c-1.24 0-2.236-1.1-2.236-2.458s.996-2.458 2.236-2.458h15.818c1.24 0 2.236 1.1 2.236 2.458.001 1.357-.996 2.458-2.236 2.458zm4.474-123.744l-2.096 1.572a17.147 17.147 0 01-20.575 0l-2.096-1.572a4.36 4.36 0 01-1.664-4.324l6.25-32.039a4.362 4.362 0 014.281-3.526h7.033a4.362 4.362 0 014.281 3.526l6.25 32.039a4.36 4.36 0 01-1.664 4.324z"/><path fill="#CCC" d="M167.982 245.763c3.275-5.33 7.578-13.424 8.324-20.176.408-3.687 5.592-4.244 6.762-.723.308.929.595 2.007.85 3.261 1.81 8.897-4.223 19.092-11.476 22.634-3.12 1.522-6.277-2.037-4.46-4.996z"/><circle cx="179.99" cy="228.772" r="2.603" fill="#000500"/><path fill="#4F4F4F" d="M182.066 228.241v.532a2.078 2.078 0 01-4.154 0v-.532c0-.407.116-.787.32-1.107h.484a2.058 2.058 0 012.54 0h.484c.21.322.326.701.326 1.107z"/><path fill="#686868" d="M182.066 228.241a2.078 2.078 0 11-2.078-2.077c.739 0 1.39.388 1.756.97.206.322.322.701.322 1.107z"/><circle cx="177.912" cy="236.814" r="2.603" fill="#000500"/><path fill="#4F4F4F" d="M179.989 236.282v.532a2.078 2.078 0 01-4.154 0v-.532c0-.407.116-.787.32-1.107h.484a2.058 2.058 0 012.54 0h.484c.209.321.326.7.326 1.107z"/><path fill="#686868" d="M179.989 236.282a2.078 2.078 0 11-2.078-2.077c.739 0 1.39.388 1.756.97.205.321.322.7.322 1.107z"/><circle cx="173.645" cy="244.438" r="2.603" fill="#000500"/><path fill="#4F4F4F" d="M175.721 243.905v.532a2.078 2.078 0 01-4.154 0v-.532c0-.407.116-.787.32-1.107h.484a2.06 2.06 0 012.54 0h.484c.21.322.326.701.326 1.107z"/><path fill="#686868" d="M175.721 243.905a2.078 2.078 0 11-2.078-2.077c.739 0 1.39.388 1.756.97.206.322.322.701.322 1.107z"/><path fill="#CCC" d="M159.028 234.355h-19.096a3.14 3.14 0 01-3.131-3.131v-8.739a3.14 3.14 0 013.131-3.131h19.096a3.14 3.14 0 013.131 3.131v8.739a3.14 3.14 0 01-3.131 3.131z"/><path fill="#E2E1E0" d="M159.028 232.226h-19.096a3.14 3.14 0 01-3.131-3.131v-8.739a3.14 3.14 0 013.131-3.131h19.096a3.14 3.14 0 013.131 3.131v8.739a3.14 3.14 0 01-3.131 3.131z"/><path fill="#242326" d="M149.48 225.973a.51.51 0 01-.509-.509V55.938a.51.51 0 011.018 0v169.526a.51.51 0 01-.509.509z"/></svg>