<?xml version="1.0" encoding="utf-8"?>
<!-- Generator: Adobe Illustrator 26.0.0, SVG Export Plug-In . SVG Version: 6.00 Build 0)  -->
<svg version="1.0" id="Camada_1" xmlns="http://www.w3.org/2000/svg" xmlns:xlink="http://www.w3.org/1999/xlink" x="0px" y="0px"
	 viewBox="0 0 300 300" enable-background="new 0 0 300 300" xml:space="preserve">
<ellipse transform="matrix(0.7071 -0.7071 0.7071 0.7071 -62.1321 149.9998)" fill="#FFFFFF" cx="150" cy="150" rx="150" ry="150"/>
<circle fill="#FBBC4B" cx="150" cy="150" r="140.812"/>
<path fill="#962C2C" d="M183.082,218.072c-2.473-4.633-2.364-10.059-0.887-15.128c1.527-5.24,3.217-10.284,3.222-15.871
	c0.003-3.49-1.052-12.281-5.557-12.281c-6.449,0-2.526,9.555-13.356,9.555c-8.12,0-13.584-9.517-15.706-16.261
	c-0.936-2.972-0.464-8.505-0.464-8.505c-0.682,0.008-1.027,0.013-1.7,0.021c0,0-1.647,16.507-12.314,15.936
	c-12.602-0.674-12.548-22.105-14.027-25.706c-1.6-3.899-6.632-4.215-8.505-0.459c-3.294,6.603-4.878,14.08-4.171,21.447
	c0.645,6.72,2.876,13.531,4.642,20.032c1.09,4.012,2.144,8.071,3.523,11.997c1.763,5.019,1.639,10.567-0.852,15.237
	c-5.714,10.713-7.931,14.468-7.93,19.668c0.004,23.259,21.008,31.139,41,31.139c18.22,0,41-7.88,41-31.139
	C191,234.543,188.792,228.768,183.082,218.072z"/>
<path fill="#242326" d="M162.123,75.176l-2.136,1.698c-6.212,4.939-14.754,4.939-20.966,0l-2.136-1.698
	c-1.363-1.084-2.022-2.898-1.695-4.671l6.369-34.606c0.407-2.212,2.235-3.809,4.362-3.809h7.166c2.126,0,3.955,1.597,4.362,3.809
	l6.369,34.606C164.145,72.278,163.486,74.092,162.123,75.176z"/>
<path fill="#B53E3E" d="M182.149,211.941c-2.441-4.572-2.332-9.926-0.875-14.928c1.507-5.171,3.175-10.148,3.179-15.662
	c0.003-3.444-1.038-12.119-5.484-12.119c-6.364,0-2.493,9.428-13.179,9.428c-8.012,0-13.404-9.392-15.498-16.046
	c-0.923-2.933-0.458-8.393-0.458-8.393c-0.673,0.008-1.013,0.012-1.677,0.02c0,0-1.625,16.289-12.151,15.725
	c-12.436-0.665-12.382-21.812-13.841-25.366c-1.579-3.848-6.544-4.159-8.393-0.453c-3.25,6.515-4.813,13.894-4.115,21.164
	c0.637,6.631,2.838,13.352,4.581,19.767c1.075,3.959,2.116,7.965,3.476,11.838c1.739,4.953,1.617,10.427-0.841,15.036
	c-5.638,10.571-7.826,14.277-7.825,19.408c0.004,22.951,20.73,30.727,40.458,30.727c17.979,0,40.458-7.775,40.458-30.727
	C189.963,226.231,187.784,222.496,182.149,211.941z"/>
<path fill="#FFE7C5" d="M156.766,75.967c0,19.006,0,84.746,0,103.752c0,0.556-0.32,0.995-0.728,0.995c-5.092,0-7.976,0-13.068,0
	c-0.408,0-0.728-0.439-0.728-0.995c0-19.006,0-84.746,0-103.752c0-0.542,0.32-0.995,0.728-0.995c5.092,0,7.976,0,13.068,0
	C156.446,74.972,156.766,75.425,156.766,75.967z"/>
<g>
	<path fill="#242326" d="M157.564,211.858c-6.213,0-9.906,0-16.119,0c-1.264,0-2.279-1.121-2.279-2.505c0-0.753,0-1.129,0-1.881
		c7.995,0,12.681,0,20.676,0c0,0.753,0,1.129,0,1.881C159.843,210.736,158.828,211.858,157.564,211.858z"/>
	<path fill="#3D3D3D" d="M157.564,209.976c-6.213,0-9.906,0-16.119,0c-1.264,0-2.279-1.121-2.279-2.504l0,0
		c0-1.383,1.015-2.505,2.279-2.505c6.213,0,9.906,0,16.119,0c1.264,0,2.279,1.121,2.279,2.505l0,0
		C159.843,208.855,158.828,209.976,157.564,209.976z"/>
</g>
<rect x="142.243" y="73" fill="#C6A883" width="14.513" height="8"/>
<g>
	<path fill="#242326" d="M157.564,199.727c-6.213,0-9.906,0-16.119,0c-1.264,0-2.279-1.121-2.279-2.505c0-0.753,0-1.129,0-1.881
		c7.995,0,12.681,0,20.676,0c0,0.753,0,1.129,0,1.881C159.843,198.606,158.828,199.727,157.564,199.727z"/>
	<path fill="#3D3D3D" d="M157.564,197.845c-6.213,0-9.906,0-16.119,0c-1.264,0-2.279-1.121-2.279-2.504l0,0
		c0-1.383,1.015-2.505,2.279-2.505c6.213,0,9.906,0,16.119,0c1.264,0,2.279,1.121,2.279,2.505l0,0
		C159.843,196.724,158.828,197.845,157.564,197.845z"/>
</g>
<path fill="#3D3D3D" d="M162.123,71.754l-2.136,1.602c-6.212,4.659-14.754,4.659-20.966,0l-2.136-1.602
	c-1.363-1.022-2.022-2.734-1.695-4.406l6.369-32.646c0.407-2.087,2.235-3.593,4.362-3.593h7.166c2.126,0,3.955,1.506,4.362,3.593
	l6.369,32.646C164.145,69.021,163.486,70.732,162.123,71.754z"/>
<g>
	<path fill="#CCCCCC" d="M168.324,247.58c3.337-5.431,7.722-13.679,8.482-20.559c0.416-3.757,5.698-4.324,6.891-0.737
		c0.314,0.946,0.606,2.046,0.866,3.323c1.844,9.066-4.303,19.454-11.694,23.064C169.689,254.222,166.472,250.596,168.324,247.58z"/>
	<g>
		<circle fill="#000500" cx="180.559" cy="230.267" r="2.653"/>
		<path fill="#4F4F4F" d="M182.674,229.725v0.542c0,1.167-0.948,2.116-2.116,2.116c-1.169,0-2.116-0.948-2.116-2.116v-0.542
			c0-0.415,0.118-0.802,0.326-1.128h0.493c0.359-0.279,0.806-0.446,1.294-0.446s0.937,0.166,1.294,0.446h0.493
			C182.556,228.925,182.674,229.312,182.674,229.725L182.674,229.725z"/>
		<path fill="#686868" d="M182.674,229.725c0,1.167-0.948,2.116-2.116,2.116c-1.169,0-2.116-0.948-2.116-2.116
			c0-0.415,0.118-0.802,0.326-1.128c0.372-0.592,1.035-0.988,1.789-0.988c0.753,0,1.416,0.395,1.789,0.988
			C182.556,228.925,182.674,229.312,182.674,229.725z"/>
	</g>
	<g>
		<circle fill="#000500" cx="178.442" cy="238.461" r="2.653"/>
		<path fill="#4F4F4F" d="M180.558,237.919v0.542c0,1.167-0.948,2.116-2.116,2.116c-1.169,0-2.116-0.948-2.116-2.116v-0.542
			c0-0.415,0.118-0.802,0.326-1.128h0.493c0.359-0.279,0.806-0.446,1.294-0.446s0.937,0.166,1.294,0.446h0.493
			C180.439,237.118,180.558,237.504,180.558,237.919L180.558,237.919z"/>
		<path fill="#686868" d="M180.558,237.919c0,1.167-0.948,2.116-2.116,2.116c-1.169,0-2.116-0.948-2.116-2.116
			c0-0.415,0.118-0.802,0.326-1.128c0.372-0.592,1.035-0.988,1.789-0.988c0.753,0,1.416,0.395,1.789,0.988
			C180.439,237.118,180.558,237.504,180.558,237.919z"/>
	</g>
	<g>
		<circle fill="#000500" cx="174.094" cy="246.23" r="2.653"/>
		<path fill="#4F4F4F" d="M176.209,245.686v0.542c0,1.167-0.948,2.116-2.116,2.116c-1.169,0-2.116-0.948-2.116-2.116v-0.542
			c0-0.415,0.118-0.802,0.326-1.128h0.493c0.359-0.279,0.807-0.446,1.294-0.446c0.488,0,0.937,0.166,1.294,0.446h0.493
			C176.091,244.887,176.209,245.273,176.209,245.686L176.209,245.686z"/>
		<path fill="#686868" d="M176.209,245.686c0,1.167-0.948,2.116-2.116,2.116c-1.169,0-2.116-0.948-2.116-2.116
			c0-0.415,0.118-0.802,0.326-1.128c0.372-0.592,1.035-0.988,1.789-0.988c0.753,0,1.416,0.395,1.789,0.988
			C176.091,244.887,176.209,245.273,176.209,245.686z"/>
	</g>
</g>
<g>
	<path fill="#CCCCCC" d="M159.259,235.956h-19.578c-1.722,0-3.131-1.409-3.131-3.131v-9.024c0-1.722,1.409-3.131,3.131-3.131h19.578
		c1.722,0,3.131,1.409,3.131,3.131v9.024C162.389,234.547,160.98,235.956,159.259,235.956z"/>
	<path fill="#E2E1E0" d="M159.259,233.786h-19.578c-1.722,0-3.131-1.409-3.131-3.131v-9.024c0-1.722,1.409-3.131,3.131-3.131h19.578
		c1.722,0,3.131,1.409,3.131,3.131v9.024C162.389,232.377,160.98,233.786,159.259,233.786z"/>
</g>
<g>
	<g>
		<path fill="#242326" d="M149.47,227.414c-0.287,0-0.519-0.232-0.519-0.519V54.153c0-0.287,0.232-0.519,0.519-0.519
			s0.519,0.232,0.519,0.519v172.742C149.988,227.182,149.756,227.414,149.47,227.414z"/>
	</g>
</g>
</svg>
