<?xml version="1.0" encoding="utf-8"?>
<!-- Generator: Adobe Illustrator 26.0.0, SVG Export Plug-In . SVG Version: 6.00 Build 0)  -->
<svg version="1.0" id="Camada_1" xmlns="http://www.w3.org/2000/svg" xmlns:xlink="http://www.w3.org/1999/xlink" x="0px" y="0px"
	 viewBox="0 0 300 300" enable-background="new 0 0 300 300" xml:space="preserve">
<ellipse fill="#FFFFFF" cx="149.998" cy="150" rx="149.999" ry="149.999"/>
<circle fill="#EB595B" cx="150" cy="150" r="140.812"/>
<g>
	<g>
		<g>
			<g>
				<path fill="#FFFFFF" d="M214.901,92.773v146.8c0,4.265-3.446,7.726-7.726,7.726H92.825c-4.265,0-7.726-3.461-7.726-7.726v-146.8
					c0-1.53,0.448-2.967,1.221-4.157c1.36-2.148,3.77-3.57,6.506-3.57h114.349c2.751,0,5.146,1.422,6.521,3.57
					C214.453,89.806,214.901,91.243,214.901,92.773z"/>
			</g>
			<g>
				<g>
					<g>
						<path fill="#EDEDED" d="M204.038,226.432H95.976c-1.28,0-2.318-1.038-2.318-2.318s1.038-2.318,2.318-2.318h108.063
							c1.28,0,2.318,1.038,2.318,2.318S205.318,226.432,204.038,226.432z"/>
					</g>
					<g>
						<path fill="#EDEDED" d="M204.038,187.801H95.976c-1.28,0-2.318-1.038-2.318-2.318s1.038-2.318,2.318-2.318h108.063
							c1.28,0,2.318,1.038,2.318,2.318C206.356,186.763,205.318,187.801,204.038,187.801z"/>
					</g>
				</g>
				<g>
					<path fill="#EDEDED" d="M204.038,149.169H95.976c-1.28,0-2.318-1.038-2.318-2.318s1.038-2.318,2.318-2.318h108.063
						c1.28,0,2.318,1.038,2.318,2.318S205.318,149.169,204.038,149.169z"/>
				</g>
				<g>
					<path fill="#EDEDED" d="M204.038,110.538H95.976c-1.28,0-2.318-1.038-2.318-2.318s1.038-2.318,2.318-2.318h108.063
						c1.28,0,2.318,1.038,2.318,2.318S205.318,110.538,204.038,110.538z"/>
				</g>
				<g>
					<g>
						<path fill="#EDEDED" d="M204.038,122.9H95.976c-0.427,0-0.773-0.346-0.773-0.773s0.346-0.773,0.773-0.773h108.063
							c0.427,0,0.773,0.346,0.773,0.773S204.465,122.9,204.038,122.9z"/>
					</g>
					<g>
						<path fill="#EDEDED" d="M204.038,133.716H95.976c-0.427,0-0.773-0.346-0.773-0.773s0.346-0.773,0.773-0.773h108.063
							c0.427,0,0.773,0.346,0.773,0.773S204.465,133.716,204.038,133.716z"/>
					</g>
				</g>
				<g>
					<g>
						<path fill="#EDEDED" d="M204.038,161.531H95.976c-0.427,0-0.773-0.346-0.773-0.773s0.346-0.773,0.773-0.773h108.063
							c0.427,0,0.773,0.346,0.773,0.773S204.465,161.531,204.038,161.531z"/>
					</g>
					<g>
						<path fill="#EDEDED" d="M204.038,172.348H95.976c-0.427,0-0.773-0.346-0.773-0.773s0.346-0.773,0.773-0.773h108.063
							c0.427,0,0.773,0.346,0.773,0.773S204.465,172.348,204.038,172.348z"/>
					</g>
				</g>
				<g>
					<g>
						<path fill="#EDEDED" d="M204.038,200.163H95.976c-0.427,0-0.773-0.346-0.773-0.773s0.346-0.773,0.773-0.773h108.063
							c0.427,0,0.773,0.346,0.773,0.773S204.465,200.163,204.038,200.163z"/>
					</g>
					<g>
						<path fill="#EDEDED" d="M204.038,210.98H95.976c-0.427,0-0.773-0.346-0.773-0.773s0.346-0.773,0.773-0.773h108.063
							c0.427,0,0.773,0.346,0.773,0.773S204.465,210.98,204.038,210.98z"/>
					</g>
				</g>
			</g>
		</g>
		<g>
			<g>
				<path fill="#CCCCCC" d="M116.009,137.427c-1.907,0-3.454-1.546-3.454-3.454v-30.047c0-1.907,1.546-3.454,3.454-3.454
					c1.907,0,3.454,1.546,3.454,3.454v30.047C119.463,135.881,117.916,137.427,116.009,137.427z"/>
				<path fill="#CCCCCC" d="M108.224,109.912c-1.457,0-2.811-0.929-3.285-2.389c-0.588-1.814,0.405-3.762,2.22-4.351l7.801-2.53
					c1.814-0.589,3.762,0.405,4.351,2.22c0.588,1.814-0.405,3.762-2.22,4.351l-7.801,2.53
					C108.936,109.857,108.577,109.912,108.224,109.912z"/>
				<path fill="#CCCCCC" d="M116.009,100.473c-0.062,0-0.123,0.002-0.184,0.005c-0.288,0.017-0.578,0.07-0.865,0.164l-0.207,0.067
					c-1.286,0.502-2.197,1.754-2.197,3.218v4.756l4.535-1.471c1.345-0.436,2.239-1.62,2.372-2.942v-0.343
					C119.463,102.019,117.916,100.473,116.009,100.473"/>
			</g>
			<g>
				<path fill="#CCCCCC" d="M173.102,137.429c-0.835,0-1.673-0.301-2.337-0.911c-1.404-1.291-1.496-3.476-0.204-4.88
					c4.057-4.412,7.87-7.458,10.933-9.906c1.633-1.305,3.044-2.432,4.163-3.5c1.38-1.317,3.566-1.265,4.883,0.115
					c1.317,1.38,1.265,3.566-0.115,4.883c-1.339,1.277-2.859,2.492-4.619,3.898c-3.029,2.42-6.462,5.163-10.16,9.185
					C174.964,137.053,174.035,137.429,173.102,137.429z"/>
				<path fill="#CCCCCC" d="M174.063,112.429c-0.568,0-1.143-0.14-1.674-0.436c-1.667-0.926-2.268-3.029-1.341-4.696
					c2.349-4.227,7.036-6.867,12.234-6.889c0.005,0,0.01,0,0.015,0c1.9,0,3.445,1.536,3.453,3.439
					c0.008,1.907-1.531,3.46-3.439,3.469c-3.235,0.014-5.376,1.806-6.226,3.337C176.454,111.788,175.277,112.429,174.063,112.429z"
					/>
				<path fill="#CCCCCC" d="M188.041,124.184c-0.911,0-1.821-0.358-2.499-1.07c-1.317-1.38-1.265-3.566,0.115-4.883
					c1.834-1.75,3.786-4.416,2.67-7.184c-0.888-2.204-3.346-3.733-5.004-3.733c-0.009,0-0.018,0-0.027,0
					c-1.901,0-3.445-1.536-3.453-3.439c-0.008-1.907,1.531-3.46,3.438-3.469c0.013,0,0.027,0,0.041,0
					c4.657,0,9.557,3.457,11.411,8.058c1.971,4.89,0.4,10.271-4.309,14.763C189.756,123.867,188.898,124.184,188.041,124.184
					L188.041,124.184z"/>
				<path fill="#CCCCCC" d="M193.159,137.429h-20.056c-1.907,0-3.454-1.546-3.454-3.454c0-1.907,1.546-3.454,3.454-3.454h20.056
					c1.907,0,3.454,1.546,3.454,3.454C196.613,135.883,195.067,137.429,193.159,137.429z"/>
				<path fill="#CCCCCC" d="M188.04,117.277c-0.857,0-1.715,0.317-2.384,0.955l0,0c-1.38,1.316-1.432,3.503-0.115,4.883
					c1.316,1.38,3.503,1.432,4.883,0.115l0,0C192.682,121.076,191.134,117.277,188.04,117.277"/>
				<path fill="#CCCCCC" d="M183.297,100.408h-0.015c-1.907,0.008-3.447,1.561-3.439,3.469c0.008,1.902,1.553,3.439,3.453,3.439
					h0.015c1.907-0.008,3.447-1.561,3.439-3.469C186.742,101.944,185.197,100.408,183.297,100.408"/>
				<path fill="#CCCCCC" d="M181.666,130.521h-8.563c-3.704,0-4.876,5.244-1.269,6.667c1.29,0.509,2.816,0.207,3.811-0.875
					C177.746,134.028,179.762,132.156,181.666,130.521"/>
			</g>
			<g>
				<path fill="#CCCCCC" d="M175.768,169.888c-0.919,0-1.835-0.364-2.514-1.085c-1.308-1.388-1.243-3.574,0.146-4.882l13.663-12.872
					c1.388-1.308,3.574-1.243,4.882,0.146c1.308,1.388,1.243,3.574-0.146,4.882l-13.663,12.872
					C177.469,169.576,176.618,169.888,175.768,169.888L175.768,169.888z"/>
				<path fill="#CCCCCC" d="M189.431,157.016h-16.327c-1.907,0-3.454-1.546-3.454-3.454c0-1.907,1.546-3.454,3.454-3.454h16.327
					c1.907,0,3.454,1.546,3.454,3.454C192.885,155.47,191.338,157.016,189.431,157.016z"/>
				<path fill="#CCCCCC" d="M191.861,178.403c-0.068,0-0.135-0.002-0.204-0.006c-1.904-0.111-3.358-1.744-3.247-3.649
					c0.034-0.583,0.018-2.595-1.614-3.994c-1.904-1.631-5.562-1.967-10.299-0.945c-1.865,0.401-3.702-0.783-4.104-2.648
					c-0.402-1.865,0.783-3.702,2.648-4.104c7.096-1.53,12.564-0.706,16.249,2.451c2.73,2.339,4.232,5.943,4.017,9.641
					C195.198,176.986,193.676,178.403,191.861,178.403z"/>
				<path fill="#CCCCCC" d="M180.865,187.065c-1.907,0-3.454-1.546-3.454-3.454c0-1.907,1.546-3.454,3.454-3.454
					c3.919,0,7.375-2.477,7.545-5.409c0.111-1.904,1.745-3.363,3.648-3.247c1.904,0.111,3.358,1.744,3.247,3.648
					c-0.193,3.31-1.877,6.376-4.744,8.634C187.876,185.9,184.432,187.065,180.865,187.065z"/>
				<path fill="#CCCCCC" d="M180.865,187.065c-4.372,0-8.359-2.143-10.666-5.732c-1.031-1.604-0.567-3.741,1.038-4.773
					c1.605-1.031,3.741-0.567,4.773,1.038c1.03,1.603,2.845,2.559,4.856,2.559c1.907,0,3.454,1.546,3.454,3.454
					C184.318,185.519,182.772,187.065,180.865,187.065z"/>
				<path fill="#CCCCCC" d="M189.438,150.108c-0.859,0-1.708,0.317-2.368,0.94l-6.334,5.968h8.702c3.755,0,4.771-5.232,1.309-6.651
					C190.333,150.196,189.888,150.108,189.438,150.108"/>
				<path fill="#CCCCCC" d="M181.452,162.312c-1.959,0-4.096,0.249-6.405,0.746c-4.332,0.934-3.189,7.744,1.514,6.74
					c0.575-0.134,1.122-0.416,1.582-0.85l6.741-6.351C183.809,162.407,182.664,162.312,181.452,162.312"/>
				<path fill="#CCCCCC" d="M191.853,171.495c-1.811,0-3.329,1.421-3.436,3.254c0,0.001,0,0.003,0,0.004
					c-0.108,1.902,1.345,3.533,3.247,3.644c1.898,0.111,3.531-1.336,3.648-3.236C195.43,173.18,193.868,171.495,191.853,171.495"/>
				<path fill="#CCCCCC" d="M180.871,180.158L180.871,180.158c-1.907,0-3.454,1.546-3.454,3.454c0,1.907,1.546,3.454,3.454,3.454
					c1.905,0,3.454-1.544,3.454-3.454C184.325,181.704,182.779,180.158,180.871,180.158"/>
			</g>
		</g>
	</g>
	<g>
		<path fill="#962C2C" d="M182.466,216.804c-2.427-4.547-2.32-9.872-0.87-14.846c1.499-5.143,3.157-10.093,3.162-15.576
			c0.003-3.425-1.033-12.053-5.454-12.053c-6.329,0-2.479,9.377-13.107,9.377c-7.968,0-13.331-9.34-15.414-15.959
			c-0.918-2.917-0.455-8.347-0.455-8.347c-0.669,0.008-1.008,0.012-1.668,0.02c0,0-1.616,16.199-12.085,15.639
			c-12.368-0.662-12.314-21.693-13.766-25.227c-1.571-3.827-6.508-4.136-8.347-0.45c-3.232,6.48-4.787,13.818-4.093,21.048
			c0.633,6.595,2.822,13.279,4.556,19.659c1.07,3.937,2.104,7.921,3.457,11.774c1.73,4.926,1.609,10.37-0.836,14.953
			c-5.608,10.513-7.783,14.198-7.783,19.302c0.004,22.826,20.617,30.559,40.237,30.559c17.881,0,40.237-7.733,40.237-30.559
			C190.237,232.968,188.07,227.301,182.466,216.804z"/>
		<path fill="#242326" d="M161.897,76.569l-2.096,1.666c-6.096,4.847-14.479,4.847-20.575,0l-2.096-1.666
			c-1.338-1.063-1.984-2.844-1.664-4.584l6.25-33.962c0.4-2.171,2.194-3.738,4.281-3.738h7.033c2.087,0,3.881,1.567,4.281,3.738
			l6.25,33.962C163.881,73.725,163.235,75.505,161.897,76.569z"/>
		<path fill="#B53E3E" d="M181.55,210.788c-2.395-4.486-2.289-9.742-0.859-14.65c1.479-5.075,3.116-9.959,3.12-15.37
			c0.003-3.38-1.019-11.893-5.382-11.893c-6.245,0-2.446,9.253-12.934,9.253c-7.863,0-13.155-9.217-15.21-15.748
			c-0.906-2.878-0.449-8.236-0.449-8.236c-0.66,0.008-0.994,0.012-1.646,0.02c0,0-1.595,15.985-11.925,15.432
			c-12.204-0.653-12.151-21.406-13.583-24.893c-1.55-3.776-6.422-4.082-8.237-0.444c-3.189,6.394-4.724,13.635-4.039,20.77
			c0.625,6.507,2.785,13.104,4.495,19.399c1.055,3.885,2.076,7.816,3.411,11.618c1.707,4.861,1.587,10.233-0.825,14.756
			c-5.533,10.374-7.68,14.011-7.68,19.046c0.004,22.524,20.344,30.155,39.704,30.155c17.644,0,39.704-7.631,39.704-30.155
			C189.219,224.811,187.08,221.146,181.55,210.788z"/>
		<path fill="#FFE7C5" d="M156.64,77.345c0,18.652,0,83.168,0,101.82c0,0.545-0.314,0.976-0.714,0.976c-4.997,0-7.828,0-12.824,0
			c-0.4,0-0.714-0.431-0.714-0.976c0-18.652,0-83.168,0-101.82c0-0.532,0.314-0.977,0.714-0.977c4.997,0,7.827,0,12.824,0
			C156.326,76.369,156.64,76.814,156.64,77.345z"/>
		<g>
			<path fill="#242326" d="M157.423,210.706c-6.097,0-9.721,0-15.818,0c-1.24,0-2.236-1.1-2.236-2.458c0-0.739,0-1.108,0-1.846
				c7.846,0,12.445,0,20.291,0c0,0.739,0,1.108,0,1.846C159.66,209.605,158.663,210.706,157.423,210.706z"/>
			<path fill="#3D3D3D" d="M157.423,208.859c-6.097,0-9.721,0-15.818,0c-1.24,0-2.236-1.1-2.236-2.458l0,0
				c0-1.358,0.996-2.458,2.236-2.458c6.097,0,9.721,0,15.818,0c1.24,0,2.236,1.1,2.236,2.458l0,0
				C159.66,207.759,158.663,208.859,157.423,208.859z"/>
		</g>
		<rect x="142.388" y="74.434" fill="#C6A883" width="14.243" height="7.851"/>
		<g>
			<path fill="#242326" d="M157.423,198.801c-6.097,0-9.721,0-15.818,0c-1.24,0-2.236-1.1-2.236-2.458c0-0.739,0-1.108,0-1.846
				c7.846,0,12.445,0,20.291,0c0,0.739,0,1.108,0,1.846C159.66,197.701,158.663,198.801,157.423,198.801z"/>
			<path fill="#3D3D3D" d="M157.423,196.955c-6.097,0-9.721,0-15.818,0c-1.24,0-2.236-1.1-2.236-2.458l0,0
				c0-1.358,0.996-2.458,2.236-2.458c6.097,0,9.721,0,15.818,0c1.24,0,2.236,1.1,2.236,2.458l0,0
				C159.66,195.854,158.663,196.955,157.423,196.955z"/>
		</g>
		<path fill="#3D3D3D" d="M161.897,73.211l-2.096,1.572c-6.096,4.572-14.479,4.572-20.575,0l-2.096-1.572
			c-1.338-1.003-1.984-2.683-1.664-4.324l6.25-32.039c0.4-2.048,2.194-3.526,4.281-3.526h7.033c2.087,0,3.881,1.478,4.281,3.526
			l6.25,32.039C163.881,70.528,163.235,72.208,161.897,73.211z"/>
		<g>
			<path fill="#CCCCCC" d="M167.982,245.763c3.275-5.33,7.578-13.424,8.324-20.176c0.408-3.687,5.592-4.244,6.762-0.723
				c0.308,0.929,0.595,2.007,0.85,3.261c1.81,8.897-4.223,19.092-11.476,22.634C169.322,252.281,166.165,248.722,167.982,245.763z"
				/>
			<g>
				<circle fill="#000500" cx="179.99" cy="228.772" r="2.603"/>
				<path fill="#4F4F4F" d="M182.066,228.241v0.532c0,1.146-0.93,2.077-2.077,2.077s-2.077-0.93-2.077-2.077v-0.532
					c0-0.407,0.116-0.787,0.32-1.107h0.484c0.352-0.274,0.791-0.438,1.27-0.438s0.92,0.163,1.27,0.438h0.484
					C181.95,227.456,182.066,227.835,182.066,228.241L182.066,228.241z"/>
				<path fill="#686868" d="M182.066,228.241c0,1.146-0.93,2.077-2.077,2.077s-2.077-0.93-2.077-2.077
					c0-0.407,0.116-0.787,0.32-1.107c0.365-0.581,1.016-0.97,1.756-0.97c0.739,0,1.39,0.388,1.756,0.97
					C181.95,227.456,182.066,227.835,182.066,228.241z"/>
			</g>
			<g>
				<circle fill="#000500" cx="177.912" cy="236.814" r="2.603"/>
				<path fill="#4F4F4F" d="M179.989,236.282v0.532c0,1.146-0.93,2.077-2.077,2.077s-2.077-0.93-2.077-2.077v-0.532
					c0-0.407,0.116-0.787,0.32-1.107h0.484c0.352-0.274,0.791-0.438,1.27-0.438s0.92,0.163,1.27,0.438h0.484
					C179.872,235.496,179.989,235.875,179.989,236.282L179.989,236.282z"/>
				<path fill="#686868" d="M179.989,236.282c0,1.146-0.93,2.077-2.077,2.077s-2.077-0.93-2.077-2.077
					c0-0.407,0.116-0.787,0.32-1.107c0.365-0.581,1.016-0.97,1.756-0.97c0.739,0,1.39,0.388,1.756,0.97
					C179.872,235.496,179.989,235.875,179.989,236.282z"/>
			</g>
			<g>
				<circle fill="#000500" cx="173.645" cy="244.438" r="2.603"/>
				<path fill="#4F4F4F" d="M175.721,243.905v0.532c0,1.146-0.93,2.077-2.077,2.077s-2.077-0.93-2.077-2.077v-0.532
					c0-0.407,0.116-0.787,0.32-1.107h0.484c0.352-0.274,0.792-0.438,1.27-0.438c0.479,0,0.92,0.163,1.27,0.438h0.484
					C175.605,243.12,175.721,243.499,175.721,243.905L175.721,243.905z"/>
				<path fill="#686868" d="M175.721,243.905c0,1.146-0.93,2.077-2.077,2.077s-2.077-0.93-2.077-2.077
					c0-0.407,0.116-0.787,0.32-1.107c0.365-0.581,1.016-0.97,1.756-0.97c0.739,0,1.39,0.388,1.756,0.97
					C175.605,243.12,175.721,243.499,175.721,243.905z"/>
			</g>
		</g>
		<g>
			<path fill="#CCCCCC" d="M159.028,234.355h-19.096c-1.722,0-3.131-1.409-3.131-3.131v-8.739c0-1.722,1.409-3.131,3.131-3.131
				h19.096c1.722,0,3.131,1.409,3.131,3.131v8.739C162.158,232.947,160.75,234.355,159.028,234.355z"/>
			<path fill="#E2E1E0" d="M159.028,232.226h-19.096c-1.722,0-3.131-1.409-3.131-3.131v-8.739c0-1.722,1.409-3.131,3.131-3.131
				h19.096c1.722,0,3.131,1.409,3.131,3.131v8.739C162.158,230.817,160.75,232.226,159.028,232.226z"/>
		</g>
		<g>
			<g>
				<path fill="#242326" d="M149.48,225.973c-0.281,0-0.509-0.228-0.509-0.509V55.938c0-0.281,0.228-0.509,0.509-0.509
					s0.509,0.228,0.509,0.509v169.526C149.989,225.745,149.761,225.973,149.48,225.973z"/>
			</g>
		</g>
	</g>
</g>
</svg>
