<svg xmlns="http://www.w3.org/2000/svg" version="1.0" viewBox="0 0 300 300"><circle cx="150" cy="150" r="148" fill="#FFF"/><circle cx="150" cy="150" r="138.936" fill="#EB595B"/><path fill="#D64148" d="M82.424 219.973c-11.033-20.033 17.711-39.486 30.486-20.033 8.129 10.162 18.582 14.808 27.873 14.808 20.905 0 40.938-7.549 40.938-32.81 0-20.614-20.033-27.873-38.325-27.873-9.872 0-22.356 2.613-35.422 5.227-15.388 4.355-27.583-5.227-25.55-20.614l2.323-68.812c0-15.098 10.162-20.324 23.228-20.324h84.2c24.389 0 23.808 36.583 0 36.583H121.04l-1.742 35.131c45.584-12.194 100.75 7.259 100.75 60.682 0 45.875-35.713 68.521-79.264 68.521-24.68 0-45.875-9.581-58.36-30.486z"/><path fill="#A86307" d="M178.193 185.878c-2.109-3.948-2.513-8.751-.756-12.893a34.75 34.75 0 002.746-13.526c.003-2.974 0-9.399 0-9.399s-5.325-1.783-6.997.512c-2.687 3.692-4.653 6.562-10.318 6.562-6.92 0-10.381-8.111-12.189-13.859-.797-2.533-.396-7.248-.396-7.248l-1.448.018s-1.39 13.582-10.494 13.582c-3.953 0-6.214-2.711-7.474-5.78-1.364-3.323-11.05 6.184-11.05 6.184v9.399c0 4.808.977 9.37 2.726 13.473 1.778 4.171 1.397 9.005-.726 12.986-2.106 3.947-6.759 7.363-6.759 7.363v9.399c.004 19.822 17.903 26.538 34.941 26.538 15.527 0 34.941-6.715 34.941-26.538v-9.399s-4.47-3.11-6.747-7.374zM156.005 85.606c1.634-1.094 2.703-3.026 2.703-5.246 0-1.266-.021-3.872-.021-3.872s-3.695-2.324-5.767-2.324c-2.621 0-4.93 1.772-5.729 4.217a.425.425 0 00-.022-.018c-2.421 7.316-3.577 10.974-5.879 18.29v2.603c0 1.283.291 2.427 1.316 2.939l1.186.589a4.601 4.601 0 002.047.479h9.633c.464 0 .837-.402.837-.897v-.586c0-.19.094-.365.246-.461.622-.39.93-.585 1.545-.975.364-.231.486-.675.486-1.148v-3.122a2100.384 2100.384 0 00-2.581-10.468z"/><path fill="#F2A12C" d="M156.005 82.254c2.024-1.355 3.188-3.997 2.511-6.879-.499-2.125-2.076-3.839-4.09-4.366-3.206-.84-6.285 1.115-7.234 4.021a.425.425 0 00-.022-.018c-2.382 8.357-3.52 12.536-5.785 20.893-.319 1.175.198 2.427 1.224 2.939l.672.335a7.027 7.027 0 003.138.732h9.055c.464 0 .837-.402.837-.897v-.586c0-.19.094-.365.246-.461.622-.39.93-.585 1.545-.975.364-.231.551-.689.468-1.138-1.02-5.439-1.53-8.159-2.565-13.6zm22.188 94.225c-2.108-3.949-2.014-8.573-.756-12.893 1.301-4.466 2.742-8.765 2.746-13.526.003-2.974-.897-7.779-4.736-7.779-5.496 0-6.143 5.455-11.382 5.455-6.92 0-11.577-8.111-13.385-13.859-.797-2.533-.396-7.248-.396-7.248l-1.448.018s-1.39 13.582-10.494 13.582c-3.953 0-6.214-2.711-7.474-5.78-1.364-3.323-5.652-3.592-7.248-.391-2.019 4.045-3.802 9.462-3.802 15.974 0 4.808 1.274 9.339 2.726 13.473 1.503 4.277 1.397 9.005-.726 12.986-4.869 9.13-6.759 12.329-6.759 16.762.004 19.822 17.903 26.538 34.941 26.538 15.527 0 34.941-6.715 34.941-26.538 0-4.433-1.881-7.658-6.748-16.774z"/><path fill="#FFEEF0" d="M150 145.546s8.456 5.512 14.606 5.512c5.522 0 6.896-5.444 9.716-5.444 2.48 0 3.076 2.575 3.076 4.622 0 5.695-4.049 12.371-4.049 19.238s8.204 16.624 8.204 24.001c0 8.306-3.669 12.883-9.287 14.997-10.793 4.063-17.035-15.983-22.266-18.366-4.285-1.952-14.737 5.965-17.697 2.785-5.951-6.392 5.384-17.434 5.384-26.297 0-7.423-7.187-13.839-2.32-19.165 3.796-4.154 14.633-1.883 14.633-1.883z"/><path fill="#DBC8CC" d="M158.377 165.419h-16.755c-.336 0-.609-.298-.609-.665v-9.79c0-.367.272-.665.609-.665h16.755c.336 0 .609.298.609.665v9.79c0 .367-.273.665-.609.665z"/><path fill="#F2DADE" d="M158.377 163.874h-16.755c-.336 0-.609-.298-.609-.665v-9.79c0-.367.272-.665.609-.665h16.755c.336 0 .609.298.609.665v9.79c0 .367-.273.665-.609.665z"/><path fill="#FFE7C5" d="M154.865 102.601v54.809c0 .505-.214.904-.487.904h-8.756c-.273 0-.487-.399-.487-.904v-54.809c0-.492.214-.904.487-.904h8.756c.273 0 .487.412.487.904z"/><path fill="#E0E0E0" d="M154.865 102.601v3.004h-9.731v-3.004c0-.492.214-.904.487-.904h8.756c.274 0 .488.412.488.904z"/><path fill="#DBC8CC" d="M158.965 194.984h-17.931c-1.406 0-2.535-1.247-2.535-2.786v-2.093h23v2.093c.002 1.539-1.128 2.786-2.534 2.786zm-1.96-17.915h-14.01c-1.1 0-1.98-.966-1.98-2.157v-1.288h17.971v1.288c0 1.191-.88 2.157-1.981 2.157z"/><path fill="#F2DADE" d="M157.005 175.78h-14.01c-1.1 0-1.98-.966-1.98-2.157s.88-2.157 1.98-2.157h14.01c1.1 0 1.98.966 1.98 2.157.001 1.192-.879 2.157-1.98 2.157zm1.96 17.111h-17.931c-1.406 0-2.535-1.247-2.535-2.785 0-1.539 1.13-2.786 2.535-2.786h17.931c1.406 0 2.535 1.247 2.535 2.786.001 1.538-1.129 2.785-2.535 2.785z"/><circle cx="169.77" cy="190.109" r="2.956" fill="#DBC8CC"/><path fill="#4F4F4F" d="M172.127 189.505v.604a2.358 2.358 0 01-4.714 0v-.604c0-.462.132-.893.364-1.257h.55a2.344 2.344 0 012.886 0h.55c.232.365.364.795.364 1.257z"/><path fill="#686868" d="M172.127 189.505a2.358 2.358 0 01-4.714 0c0-.462.132-.893.364-1.257a2.353 2.353 0 013.986 0c.232.365.364.795.364 1.257z"/><circle cx="166.814" cy="181.988" r="2.956" fill="#DBC8CC"/><path fill="#4F4F4F" d="M169.171 181.385v.604a2.358 2.358 0 01-4.714 0v-.604c0-.462.132-.893.364-1.257h.55a2.34 2.34 0 011.443-.496c.544 0 1.044.185 1.443.496h.55c.232.364.364.795.364 1.257z"/><path fill="#686868" d="M169.171 181.385a2.358 2.358 0 01-4.714 0c0-.462.132-.893.364-1.257a2.353 2.353 0 013.986 0c.232.364.364.795.364 1.257z"/><circle cx="172.726" cy="198.227" r="2.956" fill="#DBC8CC"/><path fill="#4F4F4F" d="M175.083 197.624v.604a2.358 2.358 0 01-4.714 0v-.604c0-.462.132-.893.364-1.257h.55a2.344 2.344 0 012.886 0h.55c.232.364.364.794.364 1.257z"/><path fill="#686868" d="M175.083 197.624a2.358 2.358 0 01-4.714 0c0-.462.132-.893.364-1.257a2.353 2.353 0 013.986 0c.232.364.364.794.364 1.257z"/><path fill="#3F3F3F" d="M150.506 190.965a.375.375 0 01-.375-.375V88.893a.375.375 0 01.75 0V190.59a.375.375 0 01-.375.375zm2.14 0a.375.375 0 01-.375-.375V80.793a.375.375 0 01.75 0V190.59a.375.375 0 01-.375.375zm-7.058 0a.375.375 0 01-.375-.375V88.893a.375.375 0 01.75 0V190.59a.375.375 0 01-.375.375zm2.47 0a.375.375 0 01-.375-.375V80.793a.375.375 0 01.75 0V190.59a.375.375 0 01-.375.375zm6.628 0a.375.375 0 01-.375-.375V94.391a.375.375 0 01.75 0v96.199a.375.375 0 01-.375.375z"/></svg>