<svg viewBox="0 0 300 300" xmlns="http://www.w3.org/2000/svg"><g fill="none"><path d="m256.063 256.065c-58.578 58.578-153.552 58.578-212.13 0s-58.578-153.552 0-212.13 153.552-58.578 212.13 0 58.578 153.552 0 212.13z" fill="#fff"/><path d="m150 290.812c77.768 0 140.812-63.044 140.812-140.812s-63.044-140.812-140.812-140.812-140.812 63.044-140.812 140.812 63.044 140.812 140.812 140.812z" fill="#eb595b"/><path d="m184.553 117.881-1.508 42.526 9.891-2.512 5.114-11.133c5.386-11.729-1.044-25.489-13.497-28.881z" fill="#d88313"/><path d="m199.047 80.573 11.736 46.202a1.375 1.375 0 0 1 -.995 1.671l-102.741 26.098a1.375 1.375 0 0 1 -1.671-.994l-11.736-46.202a1.374 1.374 0 0 1 .994-1.671l102.741-26.098a1.376 1.376 0 0 1 1.672.994z" fill="#9e9e9e"/><path d="m197.499 74.491 11.736 46.201a1.376 1.376 0 0 1 -.995 1.672l-102.74 26.099a1.38 1.38 0 0 1 -1.672-.995l-11.736-46.201a1.38 1.38 0 0 1 .995-1.672l102.741-26.098a1.374 1.374 0 0 1 1.671.994z" fill="#d1d1d1"/><path d="m148.144 109.078-50.791 12.902.292 1.148 36.503-9.272a6.775 6.775 0 0 1 2.316-1.579c.312-.129.627-.233.943-.313a6.733 6.733 0 0 1 3.729.117l6.824-1.734c.022-.433.084-.857.184-1.269zm20.946-5.32-9.296 2.361c.287.316.545.659.77 1.026l8.98-2.281a48.398 48.398 0 0 0 -.454-1.106zm33.671-8.553-20.256 5.145c.213.352.422.706.627 1.063l19.921-5.06z" fill="#9e9e9e"/><path d="m85.716 123.931 128.208-32.567a1.031 1.031 0 1 0 -.508-2l-128.208 32.567a1.031 1.031 0 1 0 .508 2z" fill="#494949"/><path d="m124.817 125.794a5.208 5.208 0 0 0 -1.036.384c-2.473 1.217-3.642 4.239-2.828 7.275l2.354 8.819.645 1.504 12.972-3.295-1.634-2.104-1.103-1.494-1.543-5.796c-1.015-3.783-4.628-6.105-7.827-5.293zm16.319-13.714-6.989 1.775a6.792 6.792 0 0 0 -1.793 5.823l1.505 9.055 1.27 3.658 2.719 7.853 14.358-3.647-5.446-13.199-.988-5.958a6.785 6.785 0 0 0 -4.636-5.36z" fill="#9e9e9e"/><path d="m137.407 111.963c-.316.08-.631.184-.943.313a6.766 6.766 0 0 0 -2.316 1.579l6.989-1.775a6.755 6.755 0 0 0 -3.73-.117z" fill="#848484"/><path d="m160.563 107.146-12.603 3.201c-.008.161-.01.324-.006.487l.197 9.182.733 3.809 4.702 12.423 15.518-3.942-7.376-15.739-.175-6.023a6.747 6.747 0 0 0 -.99-3.398zm-1.621-1.816-10.429 2.649a6.729 6.729 0 0 0 -.37 1.099l11.649-2.959a6.684 6.684 0 0 0 -.85-.789zm-5.865-1.232a6.778 6.778 0 0 0 -2.511 1.231l5.319-1.351a6.783 6.783 0 0 0 -2.808.12z" fill="#9e9e9e"/><path d="m159.793 106.119-11.649 2.959c-.1.411-.162.836-.183 1.268l12.603-3.201a6.86 6.86 0 0 0 -.771-1.026z" fill="#848484"/><path d="m155.884 103.978-5.319 1.351a6.82 6.82 0 0 0 -2.052 2.65l10.429-2.649a6.803 6.803 0 0 0 -3.058-1.352z" fill="#3a3a3a"/><path d="m183.132 101.413-13.588 3.452a44.991 44.991 0 0 1 2.598 9.533l2.47 16.509 18.478-4.694-5.709-15.687a58.445 58.445 0 0 0 -2.532-5.914l-.002-.006-.006.002a58.497 58.497 0 0 0 -1.709-3.195zm-1.163-1.932-13.276 3.372c.136.3.268.602.397.905l13.415-3.408a59.599 59.599 0 0 0 -.536-.869zm-11.141-9.501c-3.786.962-5.762 5.139-4.103 8.684l1.076 2.286 12.998-3.302-3.189-4.993a6.231 6.231 0 0 0 -6.782-2.675z" fill="#9e9e9e"/><path d="m182.505 100.35-13.415 3.408c.156.367.308.736.454 1.107l13.588-3.452a65.866 65.866 0 0 0 -.627-1.063z" fill="#848484"/><path d="m180.8 97.649-12.998 3.302.634 1.346c.087.185.172.371.256.557l13.276-3.372-.224-.353z" fill="#3a3a3a"/><path d="m193.814 163.908-5.519-37.768-6.619-18.183a57.746 57.746 0 0 0 -2.533-5.912l-.005-.012h-.001a58.027 58.027 0 0 0 -3.098-5.479l-4.135-6.465a6.23 6.23 0 0 0 -6.779-2.68c-3.791.963-5.766 5.142-4.103 8.682l1.706 3.632a44.76 44.76 0 0 1 3.707 12.106l2.862 19.137-.012.016a3.86 3.86 0 0 1 -4.741 1.192l-8.517-18.179-.178-6.02c-.093-4.375-4.234-7.524-8.475-6.447a6.802 6.802 0 0 0 -5.126 6.739l.197 9.179.734 3.807 5.644 14.915-1.303.331-6.464-15.673-.99-5.952c-.718-4.316-5.266-6.842-9.31-5.169a6.803 6.803 0 0 0 -4.11 7.402l1.506 9.056 1.271 3.663 3.593 10.358-.025.006-3.406-4.381-1.103-1.495-1.548-5.793c-1.123-4.201-5.452-6.602-8.862-4.913-2.468 1.222-3.64 4.239-2.828 7.279l2.356 8.814 1.823 4.259.038.07 15.761 36.014c3.988 9.114 13.988 14.003 23.631 11.554l19.849-5.042c10.094-2.568 16.618-12.344 15.112-22.648z" fill="#ffb031"/><path d="m190.274 171.326 8.532 30.845-40.743 14-17.665-41.235z" fill="#ffb031"/><path d="m148.408 223.603-5.205-16.426a6.23 6.23 0 0 1 4.056-7.82l48.486-15.365a6.23 6.23 0 0 1 7.82 4.056l5.205 16.426a6.23 6.23 0 0 1 -4.056 7.82l-48.486 15.365a6.228 6.228 0 0 1 -7.82-4.056z" fill="#1d1d1e"/><path d="m150.603 221.188c-1.2.391-3.24-2.567-4.556-6.607s-1.408-7.632-.207-8.023 3.24 2.567 4.556 6.607 1.408 7.632.207 8.023z" fill="#9e9e9e"/><path d="m147.897 214.138 1.88 5.772-5.938-1.258-5.938-1.259 4.059-4.513 4.058-4.513z" fill="#fff"/><path d="m149.887 220.252c-.885.288-2.492-2.211-3.59-5.582-1.097-3.371-1.27-6.337-.385-6.626.885-.288 2.492 2.212 3.59 5.583 1.097 3.37 1.27 6.337.385 6.625z" fill="#fff"/><path d="m206.39 203.805c-1.201.392-3.241-2.567-4.557-6.607-1.315-4.04-1.408-7.632-.207-8.023s3.241 2.567 4.557 6.607 1.408 7.632.207 8.023z" fill="#9e9e9e"/><path d="m204.324 196.205-1.88-5.772 5.938 1.259 5.938 1.258-4.058 4.513-4.059 4.514z" fill="#fff"/><path d="m206.316 202.32c-.885.287-2.492-2.212-3.59-5.583s-1.27-6.337-.384-6.626c.885-.288 2.492 2.211 3.59 5.583s1.27 6.337.384 6.625z" fill="#fff"/><path d="m176.111 212.248a6.029 6.029 0 1 0 0-12.058 6.029 6.029 0 0 0 0 12.058z" fill="#9e9e9e"/><path d="m176.111 210.927a4.708 4.708 0 1 0 0-9.416 4.708 4.708 0 0 0 0 9.416z" fill="#fff"/><path d="m171.431 205.704 4.679.514-1.51 4.46s-3.464-.912-3.169-4.974zm9.359 1.031-4.679-.514 1.511-4.46c-.001 0 3.463.912 3.168 4.974zm33.53-13.785-10.318 2.269-1.282 1.508s-1.255-3.722-.932-5.416c0 0-.03-1.228.685-1.27.451-.026.513.047.896.566zm-76.419 24.443 11.472-4.156s-1.865-5.501-3.463-5.202c0 0-.388.046-.531 1.043z" fill="#eaeaea"/></g></svg>