<?xml version="1.0" encoding="utf-8"?>
<!-- Generator: Adobe Illustrator 26.0.0, SVG Export Plug-In . SVG Version: 6.00 Build 0)  -->
<svg version="1.0" id="Camada_1" xmlns="http://www.w3.org/2000/svg" xmlns:xlink="http://www.w3.org/1999/xlink" x="0px" y="0px"
	 viewBox="0 0 300 300" enable-background="new 0 0 300 300" xml:space="preserve">
<g>
	
		<ellipse transform="matrix(0.7071 -0.7071 0.7071 0.7071 -61.7675 149.9449)" fill="#FFFFFF" cx="150.116" cy="149.532" rx="150" ry="150"/>
	<circle fill="#FAE040" cx="150.116" cy="149.532" r="140.812"/>
</g>
<g>
	<g>
		<g>
			<path fill="#E2E2E2" d="M228.078,172.791H72.164h-3.156v7.46c0,14.92,36.312,27.003,81.105,27.003s81.105-12.083,81.105-27.003
				v-7.46H228.078z"/>
			<ellipse fill="#FFFFFF" cx="150.12" cy="172.791" rx="81.104" ry="26.993"/>
		</g>
		<polygon fill="#E28A0C" points="226.129,170.334 150.116,170.334 74.103,170.334 74.103,126.271 226.129,126.271 		"/>
		<ellipse fill="#E28A0C" cx="150.116" cy="170.334" rx="76.013" ry="25.299"/>
		<g>
			<path fill="#E2E2E2" d="M228.078,118.804H72.164h-3.156v7.46c0,14.92,36.312,27.003,81.105,27.003s81.105-12.083,81.105-27.003
				v-7.46H228.078z"/>
			<ellipse fill="#FFFFFF" cx="150.12" cy="118.804" rx="81.104" ry="26.993"/>
		</g>
	</g>
	<g>
		<g>
			<path fill="#4C4C4C" d="M152.794,202.961v1.031h-5.361v-1.031c0-1.48,1.2-2.68,2.68-2.68S152.794,201.481,152.794,202.961z"/>
		</g>
		<g>
			<path fill="#565656" d="M150.114,203.477c-0.912,0-1.649-0.606-1.649-1.355v-52.805c0-0.749,0.738-1.355,1.649-1.355
				s1.649,0.606,1.649,1.355v52.805C151.764,202.871,151.026,203.477,150.114,203.477z"/>
		</g>
		<g>
			<path fill="#4C4C4C" d="M152.794,149.095v1.031h-5.361v-1.031c0-1.48,1.2-2.68,2.68-2.68S152.794,147.615,152.794,149.095z"/>
		</g>
		<circle fill="#606060" cx="150.113" cy="150.126" r="2.68"/>
		<path fill="#4C4C4C" d="M153.346,191.798h-6.459c-2.735,0-4.973-2.238-4.973-4.973V167.8c0-2.735,2.238-4.973,4.973-4.973h6.459
			c2.735,0,4.973,2.238,4.973,4.973v19.025C158.319,189.56,156.081,191.798,153.346,191.798z"/>
		<path fill="#606060" d="M152.32,187.905h-4.408c-1.867,0-3.394-1.527-3.394-3.394v-14.396c0-1.867,1.527-3.394,3.394-3.394h4.408
			c1.867,0,3.394,1.527,3.394,3.394v14.396C155.714,186.377,154.187,187.905,152.32,187.905z"/>
		<circle fill="#606060" cx="150.12" cy="203.992" r="2.68"/>
	</g>
	<g>
		<g>
			<path fill="#4C4C4C" d="M96.772,195.71v1.031h-5.361v-1.031c0-1.48,1.2-2.68,2.68-2.68S96.772,194.23,96.772,195.71z"/>
		</g>
		<g>
			<path fill="#565656" d="M94.092,196.225c-0.912,0-1.649-0.606-1.649-1.355v-52.805c0-0.749,0.738-1.355,1.649-1.355
				c0.912,0,1.649,0.606,1.649,1.355v52.805C95.742,195.619,95.004,196.225,94.092,196.225z"/>
		</g>
		<g>
			<path fill="#4C4C4C" d="M96.772,141.844v1.031h-5.361v-1.031c0-1.48,1.2-2.68,2.68-2.68S96.772,140.364,96.772,141.844z"/>
		</g>
		<circle fill="#606060" cx="94.091" cy="142.875" r="2.68"/>
		<path fill="#4C4C4C" d="M97.324,184.547h-6.459c-2.735,0-4.973-2.238-4.973-4.973v-19.025c0-2.735,2.238-4.973,4.973-4.973h6.459
			c2.735,0,4.973,2.238,4.973,4.973v19.025C102.297,182.309,100.059,184.547,97.324,184.547z"/>
		<path fill="#606060" d="M96.298,180.653H91.89c-1.867,0-3.394-1.527-3.394-3.394v-14.396c0-1.867,1.527-3.394,3.394-3.394h4.408
			c1.867,0,3.394,1.527,3.394,3.394v14.396C99.692,179.126,98.165,180.653,96.298,180.653z"/>
		<circle fill="#606060" cx="94.098" cy="196.741" r="2.68"/>
	</g>
	<g>
		<g>
			<path fill="#4C4C4C" d="M208.902,193.138v1.031h-5.361v-1.031c0-1.48,1.2-2.68,2.68-2.68S208.902,191.657,208.902,193.138z"/>
		</g>
		<g>
			<path fill="#565656" d="M206.223,193.653c-0.912,0-1.649-0.606-1.649-1.355v-52.805c0-0.749,0.738-1.355,1.649-1.355
				s1.649,0.606,1.649,1.355v52.805C207.872,193.047,207.135,193.653,206.223,193.653z"/>
		</g>
		<g>
			<path fill="#4C4C4C" d="M208.902,139.272v1.031h-5.361v-1.031c0-1.48,1.2-2.68,2.68-2.68S208.902,137.791,208.902,139.272z"/>
		</g>
		<circle fill="#606060" cx="206.222" cy="140.303" r="2.68"/>
		<path fill="#4C4C4C" d="M209.454,181.974h-6.459c-2.735,0-4.973-2.238-4.973-4.973v-19.025c0-2.735,2.238-4.973,4.973-4.973h6.459
			c2.735,0,4.973,2.238,4.973,4.973v19.025C214.427,179.736,212.19,181.974,209.454,181.974z"/>
		<path fill="#606060" d="M208.429,178.081h-4.408c-1.867,0-3.394-1.527-3.394-3.394v-14.396c0-1.867,1.527-3.394,3.394-3.394h4.408
			c1.867,0,3.394,1.527,3.394,3.394v14.396C211.823,176.554,210.296,178.081,208.429,178.081z"/>
		<circle fill="#606060" cx="206.229" cy="194.169" r="2.68"/>
	</g>
</g>
</svg>
