<svg xmlns="http://www.w3.org/2000/svg" version="1.0" viewBox="0 0 300 300"><circle cx="150" cy="150" r="150" fill="#FFF"/><circle cx="150" cy="150" r="140.8" fill="#D6566E"/><path fill="#565656" d="M150 176.174c-.846 0-1.48-.74-1.48-1.586V94.246c0-.846.634-1.586 1.48-1.586s1.48.74 1.48 1.586v80.343c0 .845-.634 1.585-1.48 1.585z"/><path fill="#FFB031" d="M187 109.81c0 2.96-16.597 7.929-37 7.929s-37-4.969-37-7.929 16.597-5.391 37-5.391 37 2.431 37 5.391z"/><path fill="#E28A0C" d="M187 109.704c0 2.96-16.597 6.449-37 6.449s-37-3.489-37-6.449 16.491-6.766 37-6.766 37 3.806 37 6.766z"/><path fill="#FFB031" d="M187 107.59c0 2.96-16.597 5.391-37 5.391s-37-2.431-37-5.391 24.103-6.026 37-6.026c7.823 0 37 3.066 37 6.026z"/><path fill="#FFB031" d="M165.751 103.044c0 2.326-7.506 4.123-16.703 4.123s-16.703-1.797-16.703-4.123 7.506-5.391 16.703-5.391c9.198-.001 16.703 3.065 16.703 5.391z"/><path fill="#565656" d="M121.378 161.893c-.449 0-.785-.393-.785-.841v-42.62c0-.449.336-.841.785-.841s.785.393.785.841v42.62c0 .448-.337.841-.785.841z"/><g fill="#FFB031"><path d="M141.005 125.51c0 1.57-8.804 2.86-19.628 2.86s-19.628-1.29-19.628-2.86c0-1.57 12.786-3.197 19.628-3.197 4.151.001 19.628 1.627 19.628 3.197z"/><path d="M129.733 123.099c0 1.234-3.982 2.187-8.86 2.187-4.879 0-8.86-.953-8.86-2.187s3.982-2.86 8.86-2.86c4.879 0 8.86 1.626 8.86 2.86z"/><path d="M125.347 121.325c0 .566-1.828 1.004-4.068 1.004s-4.068-.438-4.068-1.004 1.828-1.313 4.068-1.313 4.068.747 4.068 1.313z"/></g><path fill="#565656" d="M178.441 161.893c-.449 0-.785-.393-.785-.841v-42.62c0-.449.336-.841.785-.841s.785.393.785.841v42.62c.001.448-.336.841-.785.841z"/><g fill="#FFB031"><path d="M198.069 125.51c0 1.57-8.804 2.86-19.628 2.86-10.823 0-19.628-1.29-19.628-2.86 0-1.57 12.786-3.197 19.628-3.197 4.15.001 19.628 1.627 19.628 3.197z"/><path d="M186.797 123.099c0 1.234-3.982 2.187-8.86 2.187s-8.86-.953-8.86-2.187 3.982-2.86 8.86-2.86 8.86 1.626 8.86 2.86z"/><path d="M182.411 121.325c0 .566-1.828 1.004-4.068 1.004-2.24 0-4.068-.438-4.068-1.004s1.828-1.313 4.068-1.313c2.24 0 4.068.747 4.068 1.313z"/></g><path fill="#565656" d="M102.608 187.64v-33.9c0-.237.209-.395.523-.395.313 0 .523.158.523.395v33.899c0 .237-.209.395-.523.395-.209.001-.523-.157-.523-.394z"/><path fill="#3F3F3F" d="M101.691 187.54v-2.449c0-.316 1.568-.712 1.568-.712v3.161c0 .079-.104.158-.209.158h-1.15c-.209.001-.313-.079-.209-.158z"/><path fill="#4C4C4C" d="M101.587 187.619v-2.529c0-.079.104-.158.209-.158h1.255c.104 0 .209.079.209.158v2.529c0 .079-.104.158-.209.158h-1.255c-.105 0-.209-.078-.209-.158z"/><path fill="#3F3F3F" d="M101.796 154.589v-2.134c0-1.58 1.359-1.58 1.359-1.58v3.714c0 .079-.104.158-.209.158h-.941c-.104 0-.209-.079-.209-.158z"/><path fill="#4C4C4C" d="M101.901 154.747v-2.212s0-.079.104-.079h1.045s.104 0 .104.079v2.212s0 .079-.104.079h-1.045c-.104 0-.209 0-.104-.079z"/><path fill="#EFEFEF" d="M102.842 188.623v-6.483l94.526-.515v6.998c0 10.352-21.122 18.717-47.263 18.717s-47.263-8.47-47.263-18.717z"/><ellipse cx="150.105" cy="182.14" fill="#D6D6D6" rx="47.263" ry="18.717"/><path fill="#FFB031" d="M193.604 182.858c0 6.689-19.449 14.194-43.499 14.194s-43.499-7.506-43.499-14.194v-26.756H193.5v8.793l.104 17.963z"/><path fill="#FFF" d="M106.584 176.905v5.856c7.215 6.587 24.05 11.293 43.499 11.293 19.553 0 36.306-4.621 43.521-11.313l-.022-5.836c-7.215 6.692-23.945 11.293-43.499 11.293-19.449 0-36.283-4.705-43.499-11.293z"/><path fill="#FFF" d="M106.584 166.351v5.856c7.215 6.587 24.05 11.293 43.499 11.293 19.553 0 36.284-4.601 43.499-11.293v-5.856c-7.215 6.692-23.945 11.293-43.499 11.293-19.449 0-36.283-4.706-43.499-11.293z"/><path fill="#EFEFEF" d="M102.842 156.208v-7.11h94.526v7.11c0 10.352-21.122 18.717-47.263 18.717s-47.263-8.47-47.263-18.717z"/><path fill="#4C4C4C" d="M152.091 171.37v.732h-3.764v-.732a1.874 1.874 0 011.867-1.882h.015c.942-.001 1.882.836 1.882 1.882z"/><circle cx="150.105" cy="172.102" r="1.882" fill="#606060"/><path fill="#4C4C4C" d="M151.987 203.813v.732h-3.764v-.732a1.874 1.874 0 011.867-1.882h.015c.941 0 1.882.836 1.882 1.882z"/><circle cx="150.105" cy="204.308" r="1.882" fill="#606060"/><path fill="#4C4C4C" d="M120.095 166.664c0 .836-1.045 1.882-1.882 1.882-.836 0-1.568-.732-1.568-1.673s1.045-1.882 1.882-1.882c.836.105 1.568.732 1.568 1.673z"/><circle cx="118.212" cy="166.978" r="1.568" fill="#606060"/><path fill="#4C4C4C" d="M120.095 199.811c0 .836-1.045 1.882-1.882 1.882-.836 0-1.568-.732-1.568-1.673 0-.941 1.045-1.882 1.882-1.882.836.105 1.568.836 1.568 1.673z"/><circle cx="118.212" cy="200.125" r="1.568" fill="#606060"/><path fill="#4C4C4C" d="M180.167 198.974c0 .836 1.045 1.882 1.882 1.882s1.568-.732 1.568-1.673-1.045-1.882-1.882-1.882c-.836.001-1.568.837-1.568 1.673z"/><circle cx="182.049" cy="199.289" r="1.568" fill="#606060"/><path fill="#4C4C4C" d="M180.219 166.664c0 .836 1.045 1.882 1.882 1.882s1.568-.732 1.568-1.673-1.045-1.882-1.882-1.882-1.568.732-1.568 1.673z"/><circle cx="182.102" cy="166.978" r="1.568" fill="#606060"/><ellipse cx="150.105" cy="149.829" fill="#FFF" rx="47.263" ry="18.717"/><path fill="#606060" d="M118.318 200.857c-.627 0-1.045-.31-1.045-.774v-33.586c0-.464.419-.774 1.045-.774.627 0 1.045.31 1.045.774v33.586c0 .464-.419.774-1.045.774zm31.787 5.36c-.627 0-1.045-.304-1.045-.759v-32.937c0-.456.419-.759 1.045-.759.627 0 1.045.304 1.045.759v32.937c.001.455-.418.759-1.045.759zm31.892-6.615c-.627 0-1.045-.298-1.045-.746V166.47c0-.448.419-.746 1.045-.746.627 0 1.045.298 1.045.746v32.386c0 .448-.522.746-1.045.746z"/><path fill="#565656" d="M196.845 188.499c-.313 0-.523-.163-.523-.408v-35.013c0-.244.209-.408.523-.408s.523.163.523.408v35.013c0 .245-.313.408-.523.408z"/><path fill="#3F3F3F" d="M198.1 188.907h-1.151c-.104 0-.209-.082-.209-.163v-3.265s1.568.408 1.568.734v2.53c.106.083.001.164-.208.164z"/><path fill="#4C4C4C" d="M198.204 188.989h-1.255c-.104 0-.209-.082-.209-.163v-2.611c0-.082.104-.163.209-.163h1.255c.104 0 .209.082.209.163v2.611c.001.081-.104.163-.209.163z"/><path fill="#3F3F3F" d="M197.995 154.874h-.941c-.104 0-.209-.082-.209-.163v-3.836s1.359 0 1.359 1.633v2.203c0 .081-.104.163-.209.163z"/><path fill="#4C4C4C" d="M197.995 154.956h-1.045c-.104 0-.104-.082-.104-.082v-2.285c0-.082.104-.082.104-.082h1.045c.104 0 .104.082.104.082v2.285c.105.082.001.082-.104.082z"/></svg>