<?xml version="1.0" encoding="utf-8"?>
<!-- Generator: Adobe Illustrator 26.5.0, SVG Export Plug-In . SVG Version: 6.00 Build 0)  -->
<svg version="1.1" id="Camada_1" xmlns="http://www.w3.org/2000/svg" xmlns:xlink="http://www.w3.org/1999/xlink" x="0px" y="0px"
	 viewBox="0 0 300 300" style="enable-background:new 0 0 300 300;" xml:space="preserve">
<style type="text/css">
	.st0{fill:#FFFFFF;}
	.st1{fill:#86BF5A;}
	.st2{fill:#565656;}
	.st3{fill:#FFB031;}
	.st4{fill:#606060;}
	.st5{fill:#E28A0C;}
</style>
<circle class="st0" cx="150" cy="150" r="150"/>
<circle class="st1" cx="150" cy="150" r="140.8"/>
<path class="st2" d="M136.9,135v94.2c0,1.8,1.2,3.2,2.9,3.4h0.1c1.7,0,2.9-1.7,2.9-3.4V135h-0.8C140.5,134.7,138.8,135,136.9,135z"
	/>
<g>
	<path class="st3" d="M277.1,178.1c-2.7,12.4-59.5,3.4-126.5-20.1S31.1,105,33.9,92.7c2.7-12.4,84.7,2.5,127.1,17.3
		C186.5,119.3,279.7,165.7,277.1,178.1z"/>
	<path class="st3" d="M211.3,134.6c-2.1,9.8-28.5,8.6-58.7-1.9c-30.2-10.6-53.3-26.9-51.2-36.6c2.1-9.8,29.6-13.9,59.8-3.3
		S213.5,124.8,211.3,134.6z"/>
</g>
<path class="st4" d="M102.3,98c-3.4,1.3-6,4.1-6.7,7.3l-69.8,20.4c-0.1,0-0.2,0-0.2,0.1c-2.5,1.1-4.1,4.5-3.3,7.8s3.5,5.2,6.1,4.2
	l68.5-25.8c2,2.2,5.2,3.1,8.6,1.9c4.8-1.7,7.8-6.5,7.1-10.8C111.6,98.8,107,96.6,102.3,98z"/>
<path class="st4" d="M193.5,125.9c3.4,0.9,6.5-0.1,8.4-2.3l67,21c0.1,0,0.2,0,0.2,0.1c2.5,0.5,5.1-1.4,5.5-4.7
	c0.4-3.2-1.1-6.5-3.7-7L203,117.1c-1-3.1-3.5-5.6-6.7-6.5c-4.7-1.3-9,1.3-9.8,5.4C185.6,120.2,188.7,124.7,193.5,125.9z"/>
<path d="M102.1,95.7c-3.4,1.3-6,4.1-6.7,7.3l-69.8,20.4c-0.1,0-0.2,0-0.2,0.1c-2.5,1.1-4.1,4.5-3.3,7.8c0.9,3.2,3.5,5.2,6.1,4.2
	l68.6-25.8c2,2.2,5.2,3.1,8.6,1.9c4.8-1.7,7.8-6.5,7.1-10.8C111.3,96.4,106.7,94.3,102.1,95.7z"/>
<path d="M194.1,123.6c3.4,0.9,6.5-0.1,8.4-2.3l67,21c0.1,0,0.2,0,0.2,0.1c2.5,0.5,5.1-1.4,5.5-4.7c0.4-3.2-1.1-6.5-3.7-7l-67.9-15.8
	c-1-3.1-3.5-5.6-6.7-6.5c-4.7-1.3-9,1.3-9.8,5.4C186.3,117.9,189.5,122.4,194.1,123.6z"/>
<path class="st5" d="M153,90l-1.2,0.9l-36.5,53.7l-12.6-5.4L148.4,89"/>
</svg>
