<?xml version="1.0" encoding="utf-8"?>
<!-- Generator: Adobe Illustrator 23.0.6, SVG Export Plug-In . SVG Version: 6.00 Build 0)  -->
<svg version="1.0" id="Camada_1" xmlns="http://www.w3.org/2000/svg" xmlns:xlink="http://www.w3.org/1999/xlink" x="0px" y="0px"
	 viewBox="0 0 300 300" enable-background="new 0 0 300 300" xml:space="preserve">
<g>
	<ellipse fill="#FFFFFF" cx="150" cy="150" rx="150" ry="150"/>
	<circle fill="#D6566E" cx="150" cy="150" r="140.8"/>
</g>
<g>
	<g>
		<path fill="#565656" d="M150,176.174c-0.846,0-1.48-0.74-1.48-1.586V94.246c0-0.846,0.634-1.586,1.48-1.586s1.48,0.74,1.48,1.586
			v80.343C151.48,175.434,150.846,176.174,150,176.174z"/>
		<g>
			<path fill="#FFB031" d="M187,109.81c0,2.96-16.597,7.929-37,7.929s-37-4.969-37-7.929c0-2.96,16.597-5.391,37-5.391
				S187,106.85,187,109.81z"/>
			<path fill="#E28A0C" d="M187,109.704c0,2.96-16.597,6.449-37,6.449s-37-3.489-37-6.449c0-2.96,16.491-6.766,37-6.766
				S187,106.744,187,109.704z"/>
			<path fill="#FFB031" d="M187,107.59c0,2.96-16.597,5.391-37,5.391s-37-2.431-37-5.391c0-2.96,24.103-6.026,37-6.026
				C157.823,101.564,187,104.63,187,107.59z"/>
			<path fill="#FFB031" d="M165.751,103.044c0,2.326-7.506,4.123-16.703,4.123c-9.197,0-16.703-1.797-16.703-4.123
				s7.506-5.391,16.703-5.391C158.246,97.652,165.751,100.718,165.751,103.044z"/>
		</g>
	</g>
	<g>
		<path fill="#565656" d="M121.378,161.893c-0.449,0-0.785-0.393-0.785-0.841v-42.62c0-0.449,0.336-0.841,0.785-0.841
			c0.449,0,0.785,0.393,0.785,0.841v42.62C122.163,161.5,121.826,161.893,121.378,161.893z"/>
		<g>
			<path fill="#FFB031" d="M141.005,125.51c0,1.57-8.804,2.86-19.628,2.86s-19.628-1.29-19.628-2.86
				c0-1.57,12.786-3.197,19.628-3.197C125.528,122.314,141.005,123.94,141.005,125.51z"/>
			<path fill="#FFB031" d="M129.733,123.099c0,1.234-3.982,2.187-8.86,2.187c-4.879,0-8.86-0.953-8.86-2.187s3.982-2.86,8.86-2.86
				C125.752,120.239,129.733,121.865,129.733,123.099z"/>
			<path fill="#FFB031" d="M125.347,121.325c0,0.566-1.828,1.004-4.068,1.004s-4.068-0.438-4.068-1.004s1.828-1.313,4.068-1.313
				S125.347,120.759,125.347,121.325z"/>
		</g>
	</g>
	<g>
		<path fill="#565656" d="M178.441,161.893c-0.449,0-0.785-0.393-0.785-0.841v-42.62c0-0.449,0.336-0.841,0.785-0.841
			c0.449,0,0.785,0.393,0.785,0.841v42.62C179.227,161.5,178.89,161.893,178.441,161.893z"/>
		<g>
			<path fill="#FFB031" d="M198.069,125.51c0,1.57-8.804,2.86-19.628,2.86c-10.823,0-19.628-1.29-19.628-2.86
				c0-1.57,12.786-3.197,19.628-3.197C182.591,122.314,198.069,123.94,198.069,125.51z"/>
			<path fill="#FFB031" d="M186.797,123.099c0,1.234-3.982,2.187-8.86,2.187s-8.86-0.953-8.86-2.187s3.982-2.86,8.86-2.86
				S186.797,121.865,186.797,123.099z"/>
			<path fill="#FFB031" d="M182.411,121.325c0,0.566-1.828,1.004-4.068,1.004c-2.24,0-4.068-0.438-4.068-1.004
				s1.828-1.313,4.068-1.313C180.583,120.012,182.411,120.759,182.411,121.325z"/>
		</g>
	</g>
	<g>
		<g>
			<path fill="#565656" d="M102.608,187.64v-33.9c0-0.237,0.209-0.395,0.523-0.395c0.313,0,0.523,0.158,0.523,0.395v33.899
				c0,0.237-0.209,0.395-0.523,0.395C102.922,188.035,102.608,187.877,102.608,187.64z"/>
			<path fill="#3F3F3F" d="M101.691,187.54v-2.449c0-0.316,1.568-0.712,1.568-0.712v3.161c0,0.079-0.104,0.158-0.209,0.158H101.9
				C101.691,187.699,101.587,187.619,101.691,187.54L101.691,187.54z"/>
			<path fill="#4C4C4C" d="M101.587,187.619v-2.529c0-0.079,0.104-0.158,0.209-0.158h1.255c0.104,0,0.209,0.079,0.209,0.158v2.529
				c0,0.079-0.104,0.158-0.209,0.158h-1.255C101.691,187.777,101.587,187.699,101.587,187.619z"/>
			<path fill="#3F3F3F" d="M101.796,154.589v-2.134c0-1.58,1.359-1.58,1.359-1.58v3.714c0,0.079-0.104,0.158-0.209,0.158h-0.941
				C101.901,154.747,101.796,154.668,101.796,154.589z"/>
			<path fill="#4C4C4C" d="M101.901,154.747v-2.212c0,0,0-0.079,0.104-0.079h1.045c0,0,0.104,0,0.104,0.079v2.212
				c0,0,0,0.079-0.104,0.079h-1.045C101.901,154.826,101.796,154.826,101.901,154.747z"/>
			<path fill="#EFEFEF" d="M102.842,188.623v-6.483l94.526-0.515v6.998c0,10.352-21.122,18.717-47.263,18.717
				S102.842,198.87,102.842,188.623z"/>
			<ellipse fill="#D6D6D6" cx="150.105" cy="182.14" rx="47.263" ry="18.717"/>
			<path fill="#FFB031" d="M193.604,182.858c0,6.689-19.449,14.194-43.499,14.194s-43.499-7.506-43.499-14.194v-26.756H193.5v8.793
				L193.604,182.858z"/>
			<path fill="#FFFFFF" d="M106.584,176.905v5.856c7.215,6.587,24.05,11.293,43.499,11.293c19.553,0,36.306-4.621,43.521-11.313
				l-0.022-5.836c-7.215,6.692-23.945,11.293-43.499,11.293C130.634,188.198,113.8,183.493,106.584,176.905L106.584,176.905z"/>
			<path fill="#FFFFFF" d="M106.584,166.351v5.856c7.215,6.587,24.05,11.293,43.499,11.293c19.553,0,36.284-4.601,43.499-11.293
				v-5.856c-7.215,6.692-23.945,11.293-43.499,11.293C130.634,177.644,113.8,172.938,106.584,166.351L106.584,166.351z"/>
			<path fill="#EFEFEF" d="M102.842,156.208v-7.11h94.526v7.11c0,10.352-21.122,18.717-47.263,18.717
				S102.842,166.455,102.842,156.208z"/>
			<path fill="#4C4C4C" d="M152.091,171.37v0.732h-3.764v-0.732c-0.005-1.035,0.832-1.878,1.867-1.882h0.015
				C151.151,169.487,152.091,170.324,152.091,171.37z"/>
			<circle fill="#606060" cx="150.105" cy="172.102" r="1.882"/>
			<path fill="#4C4C4C" d="M151.987,203.813v0.732h-3.764v-0.732c-0.005-1.035,0.832-1.878,1.867-1.882h0.015
				C151.046,201.931,151.987,202.767,151.987,203.813z"/>
			<circle fill="#606060" cx="150.105" cy="204.308" r="1.882"/>
			<path fill="#4C4C4C" d="M120.095,166.664c0,0.836-1.045,1.882-1.882,1.882c-0.836,0-1.568-0.732-1.568-1.673
				s1.045-1.882,1.882-1.882C119.363,165.096,120.095,165.723,120.095,166.664z"/>
			<ellipse fill="#606060" cx="118.212" cy="166.978" rx="1.568" ry="1.568"/>
			<path fill="#4C4C4C" d="M120.095,199.811c0,0.836-1.045,1.882-1.882,1.882c-0.836,0-1.568-0.732-1.568-1.673
				c0-0.941,1.045-1.882,1.882-1.882C119.363,198.243,120.095,198.974,120.095,199.811z"/>
			<ellipse fill="#606060" cx="118.212" cy="200.125" rx="1.568" ry="1.568"/>
			<path fill="#4C4C4C" d="M180.167,198.974c0,0.836,1.045,1.882,1.882,1.882s1.568-0.732,1.568-1.673s-1.045-1.882-1.882-1.882
				C180.899,197.302,180.167,198.138,180.167,198.974z"/>
			<ellipse fill="#606060" cx="182.049" cy="199.289" rx="1.568" ry="1.568"/>
			<path fill="#4C4C4C" d="M180.219,166.664c0,0.836,1.045,1.882,1.882,1.882s1.568-0.732,1.568-1.673s-1.045-1.882-1.882-1.882
				S180.219,165.723,180.219,166.664z"/>
			<ellipse fill="#606060" cx="182.102" cy="166.978" rx="1.568" ry="1.568"/>
			<ellipse fill="#FFFFFF" cx="150.105" cy="149.829" rx="47.263" ry="18.717"/>
			<g>
				<path fill="#606060" d="M118.318,200.857c-0.627,0-1.045-0.31-1.045-0.774v-33.586c0-0.464,0.419-0.774,1.045-0.774
					c0.627,0,1.045,0.31,1.045,0.774v33.586C119.363,200.547,118.944,200.857,118.318,200.857z"/>
				<path fill="#606060" d="M150.105,206.217c-0.627,0-1.045-0.304-1.045-0.759v-32.937c0-0.456,0.419-0.759,1.045-0.759
					c0.627,0,1.045,0.304,1.045,0.759v32.937C151.151,205.913,150.732,206.217,150.105,206.217L150.105,206.217z"/>
				<path fill="#606060" d="M181.997,199.602c-0.627,0-1.045-0.298-1.045-0.746v-32.386c0-0.448,0.419-0.746,1.045-0.746
					c0.627,0,1.045,0.298,1.045,0.746v32.386C183.042,199.304,182.52,199.602,181.997,199.602z"/>
			</g>
		</g>
		<path fill="#565656" d="M196.845,188.499c-0.313,0-0.523-0.163-0.523-0.408v-35.013c0-0.244,0.209-0.408,0.523-0.408
			s0.523,0.163,0.523,0.408v35.013C197.368,188.336,197.055,188.499,196.845,188.499z"/>
		<path fill="#3F3F3F" d="M198.1,188.907h-1.151c-0.104,0-0.209-0.082-0.209-0.163v-3.265c0,0,1.568,0.408,1.568,0.734v2.53
			C198.414,188.826,198.309,188.907,198.1,188.907z"/>
		<path fill="#4C4C4C" d="M198.204,188.989h-1.255c-0.104,0-0.209-0.082-0.209-0.163v-2.611c0-0.082,0.104-0.163,0.209-0.163h1.255
			c0.104,0,0.209,0.082,0.209,0.163v2.611C198.414,188.907,198.309,188.989,198.204,188.989z"/>
		<path fill="#3F3F3F" d="M197.995,154.874h-0.941c-0.104,0-0.209-0.082-0.209-0.163v-3.836c0,0,1.359,0,1.359,1.633v2.203
			C198.204,154.792,198.1,154.874,197.995,154.874L197.995,154.874z"/>
		<path fill="#4C4C4C" d="M197.995,154.956h-1.045c-0.104,0-0.104-0.082-0.104-0.082v-2.285c0-0.082,0.104-0.082,0.104-0.082h1.045
			c0.104,0,0.104,0.082,0.104,0.082v2.285C198.204,154.956,198.1,154.956,197.995,154.956z"/>
	</g>
</g>
</svg>
