<?xml version="1.0" encoding="utf-8"?>
<!-- Generator: Adobe Illustrator 26.0.0, SVG Export Plug-In . SVG Version: 6.00 Build 0)  -->
<svg version="1.0" id="Camada_1" xmlns="http://www.w3.org/2000/svg" xmlns:xlink="http://www.w3.org/1999/xlink" x="0px" y="0px"
	 viewBox="0 0 300 300" enable-background="new 0 0 300 300" xml:space="preserve">
<g>
	
		<ellipse transform="matrix(0.7071 -0.7071 0.7071 0.7071 -62.1321 149.9998)" fill="#FFFFFF" cx="150" cy="150" rx="150" ry="150"/>
	<circle fill="#EB595B" cx="150" cy="150" r="140.812"/>
</g>
<g>
	<g>
		<g>
			<path fill="#565656" d="M150.626,74.475v35.85c-1.48-0.19-2.93-0.34-4.36-0.45v-35.4c0-1.25,0.94-2.34,2.18-2.34
				C149.696,72.135,150.626,73.225,150.626,74.475z"/>
			<path fill="#565656" d="M150.006,129.545h0.62v63.17c0,1.24-0.93,2.33-2.18,2.33h-0.1c-1.19-0.06-2.08-1.12-2.08-2.33v-63.14
				C147.506,129.555,148.756,129.545,150.006,129.545z"/>
		</g>
		<g>
			<g>
				<g>
					<path fill="#E2E2E2" d="M227.962,210.527H72.048h-3.156v7.46c0,14.92,36.312,27.003,81.105,27.003s81.105-12.083,81.105-27.003
						v-7.46H227.962z"/>
					<ellipse fill="#FFFFFF" cx="150.004" cy="210.527" rx="81.104" ry="26.993"/>
				</g>
				<polygon fill="#E59623" points="226.013,208.071 150,208.071 73.987,208.071 73.987,164.007 226.013,164.007 				"/>
				<ellipse fill="#E28A0C" cx="150" cy="208.071" rx="76.013" ry="25.299"/>
				<g>
					<path fill="#E2E2E2" d="M227.962,156.54H72.048h-3.156v7.46c0,14.92,36.312,27.003,81.105,27.003s81.105-12.083,81.105-27.003
						v-7.46H227.962z"/>
					<path fill="#FFFFFF" d="M231.106,156.545c0,3.32-1.8,6.49-5.09,9.43c-3.95,3.53-10.07,6.71-17.81,9.36
						c-0.3,0.11-0.59,0.21-0.89,0.31h-0.01c-0.28,0.09-0.56,0.18-0.84,0.27c-0.56,0.18-1.12,0.36-1.7,0.53
						c-0.33,0.11-0.67,0.21-1.02,0.31c-0.1,0.03-0.2,0.06-0.31,0.1c-11.08,3.23-24.81,5.47-39.98,6.31
						c-4.17,0.23-8.46,0.36-12.83,0.37h-0.62c-1.25,0-2.5-0.01-3.74-0.03c-3.29-0.05-6.53-0.16-9.71-0.34c-0.01,0-0.01,0-0.01,0
						c-28.87-1.61-52.58-8.29-62.56-17.19c-3.29-2.94-5.09-6.11-5.09-9.43c0-12.14,24.1-22.42,57.24-25.81
						c6.41-0.66,13.15-1.06,20.13-1.16c1.24-0.02,2.49-0.03,3.74-0.03h0.62c19.76,0.05,37.83,2.45,51.82,6.4
						C219.976,140.905,231.106,148.295,231.106,156.545z"/>
				</g>
			</g>
			<g>
				<g>
					<path fill="#4C4C4C" d="M152.678,240.697v1.031h-5.361v-1.031c0-1.48,1.2-2.68,2.68-2.68S152.678,239.217,152.678,240.697z"/>
				</g>
				<g>
					<path fill="#565656" d="M149.998,241.213c-0.912,0-1.649-0.606-1.649-1.355v-52.805c0-0.749,0.738-1.355,1.649-1.355
						s1.649,0.606,1.649,1.355v52.805C151.647,240.607,150.91,241.213,149.998,241.213z"/>
				</g>
				<g>
					<path fill="#4C4C4C" d="M152.678,186.831v1.031h-5.361v-1.031c0-1.48,1.2-2.68,2.68-2.68S152.678,185.351,152.678,186.831z"/>
				</g>
				<circle fill="#606060" cx="149.997" cy="187.862" r="2.68"/>
				<path fill="#4C4C4C" d="M153.23,229.534h-6.459c-2.735,0-4.973-2.238-4.973-4.973v-19.025c0-2.735,2.238-4.973,4.973-4.973
					h6.459c2.735,0,4.973,2.238,4.973,4.973v19.025C158.203,227.296,155.965,229.534,153.23,229.534z"/>
				<path fill="#606060" d="M152.204,225.641h-4.408c-1.867,0-3.394-1.527-3.394-3.394v-14.396c0-1.867,1.527-3.394,3.394-3.394
					h4.408c1.867,0,3.394,1.527,3.394,3.394v14.396C155.598,224.114,154.071,225.641,152.204,225.641z"/>
				<circle fill="#606060" cx="150.004" cy="241.728" r="2.68"/>
			</g>
			<g>
				<g>
					<path fill="#4C4C4C" d="M96.656,233.446v1.031h-5.361v-1.031c0-1.48,1.2-2.68,2.68-2.68
						C95.456,230.766,96.656,231.966,96.656,233.446z"/>
				</g>
				<g>
					<path fill="#565656" d="M93.976,233.962c-0.912,0-1.649-0.606-1.649-1.355v-52.805c0-0.749,0.738-1.355,1.649-1.355
						c0.912,0,1.649,0.606,1.649,1.355v52.805C95.626,233.356,94.888,233.962,93.976,233.962z"/>
				</g>
				<g>
					<path fill="#4C4C4C" d="M96.656,179.58v1.031h-5.361v-1.031c0-1.48,1.2-2.68,2.68-2.68
						C95.456,176.9,96.656,178.1,96.656,179.58z"/>
				</g>
				<circle fill="#606060" cx="93.975" cy="180.611" r="2.68"/>
				<path fill="#4C4C4C" d="M97.208,222.283h-6.459c-2.735,0-4.973-2.238-4.973-4.973v-19.025c0-2.735,2.238-4.973,4.973-4.973
					h6.459c2.735,0,4.973,2.238,4.973,4.973v19.025C102.181,220.045,99.943,222.283,97.208,222.283z"/>
				<path fill="#606060" d="M96.182,218.39h-4.408c-1.867,0-3.394-1.527-3.394-3.394v-14.396c0-1.867,1.527-3.394,3.394-3.394h4.408
					c1.867,0,3.394,1.527,3.394,3.394v14.396C99.576,216.862,98.049,218.39,96.182,218.39z"/>
				<circle fill="#606060" cx="93.982" cy="234.477" r="2.68"/>
			</g>
			<g>
				<g>
					<path fill="#4C4C4C" d="M208.786,230.874v1.031h-5.361v-1.031c0-1.48,1.2-2.68,2.68-2.68S208.786,229.394,208.786,230.874z"/>
				</g>
				<g>
					<path fill="#565656" d="M206.107,231.389c-0.912,0-1.649-0.606-1.649-1.355V177.23c0-0.749,0.738-1.355,1.649-1.355
						c0.912,0,1.649,0.606,1.649,1.355v52.805C207.756,230.783,207.018,231.389,206.107,231.389z"/>
				</g>
				<g>
					<path fill="#4C4C4C" d="M208.786,177.008v1.031h-5.361v-1.031c0-1.48,1.2-2.68,2.68-2.68S208.786,175.528,208.786,177.008z"/>
				</g>
				<circle fill="#606060" cx="206.106" cy="178.039" r="2.68"/>
				<path fill="#4C4C4C" d="M209.338,219.711h-6.459c-2.735,0-4.973-2.238-4.973-4.973v-19.025c0-2.735,2.238-4.973,4.973-4.973
					h6.459c2.735,0,4.973,2.238,4.973,4.973v19.025C214.311,217.473,212.074,219.711,209.338,219.711z"/>
				<path fill="#606060" d="M208.313,215.817h-4.408c-1.867,0-3.394-1.527-3.394-3.394v-14.396c0-1.867,1.527-3.394,3.394-3.394
					h4.408c1.867,0,3.394,1.527,3.394,3.394v14.396C211.707,214.29,210.18,215.817,208.313,215.817z"/>
				<circle fill="#606060" cx="206.113" cy="231.905" r="2.68"/>
			</g>
			<circle fill="#FFB031" cx="121.989" cy="210.941" r="6.325"/>
			<path fill="#FFB031" d="M73.987,187.174c3.493,0,6.325,2.832,6.325,6.325c0,3.493-2.832,6.325-6.325,6.325V187.174z"/>
			<path fill="#FFB031" d="M226.013,199.823c-3.493,0-6.325-2.832-6.325-6.325c0-3.493,2.832-6.325,6.325-6.325V199.823z"/>
			<circle fill="#FFB031" cx="178.054" cy="210.941" r="6.325"/>
		</g>
	</g>
	<path fill="#565656" d="M152.175,76.798v61.717c-1.09-0.012-2.2-0.025-3.31-0.025h-1.04V76.798c0-1.543,0.93-2.888,2.18-2.888
		C151.245,73.909,152.175,75.255,152.175,76.798z"/>
	<g>
		<path fill="#FFB031" d="M215.474,105.095c-1.385,5.333-6.677,8.811-14.642,10.599c-0.72,0.156-1.462,0.311-2.248,0.464
			c0,0-0.022-0.001-0.044-0.003c-0.739,0.112-1.48,0.245-2.262,0.33c-0.18,0.035-0.359,0.067-0.537,0.079
			c-0.716,0.09-1.43,0.158-2.167,0.225c-0.804,0.086-1.629,0.147-2.453,0.187c-1.961,0.126-4.005,0.159-6.135,0.143
			c-0.911,0.012-1.819-0.02-2.749-0.054c-1.085-0.042-2.192-0.087-3.298-0.153c-1.239-0.074-2.52-0.173-3.801-0.294l-0.11-0.007
			c-1.082-0.088-2.163-0.197-3.265-0.329c-1.058-0.131-2.16-0.263-3.26-0.418c-1.477-0.177-2.973-0.4-4.512-0.648
			c-0.879-0.142-1.758-0.306-2.659-0.448c-0.9-0.166-1.801-0.33-2.701-0.495l0-0.033c-4.717-0.883-9.558-1.928-14.5-3.213
			c-0.328-0.086-0.656-0.173-0.961-0.257c-1.813-0.486-3.627-0.972-5.393-1.5C104.946,99.667,81.311,84.4,84.802,70.979
			c2.215-8.435,68.834-15.917,68.834-15.917l-0.001,0.022c1.119-0.155,2.535-0.07,4.069,0.266c0.154,0.009,0.308,0.041,0.46,0.095
			c0.155,0.009,0.307,0.063,0.46,0.094l0.35,0.088c0.132,0.03,0.241,0.059,0.349,0.11c0.218,0.058,0.436,0.137,0.653,0.216
			c0.217,0.08,0.434,0.16,0.629,0.238c0.435,0.159,0.824,0.338,1.189,0.537c0.54,0.255,1.01,0.549,1.415,0.839
			C163.208,57.567,217.697,96.527,215.474,105.095z"/>
		<g>
			<g>
				<path fill="#E28A0C" d="M200.834,115.689c-10.398,2.35-25.376,1.763-42.21-1.416l-0.46-58.845c0.157,0.021,0.308,0.061,0.46,0.1
					c1.195,0.312,2.265,0.712,3.173,1.192L200.834,115.689z"/>
				<path fill="#E28A0C" d="M158.973,55.627l-0.786,2.749l-15.017,52.396c-1.813-0.486-3.627-0.972-5.393-1.5l19.925-53.921
					l0.001-0.022c0.153,0.031,0.307,0.063,0.46,0.095c0.153,0.031,0.307,0.062,0.459,0.115L158.973,55.627z"/>
			</g>
		</g>
	</g>
	<path fill="#E2E2E2" d="M203.426,135.945c-0.01,0.12-0.03,0.24-0.06,0.35c-1.75,8.1-22.6,10.47-46.58,5.3
		c-1.76-0.38-3.49-0.79-5.18-1.23c-1.48-0.38-2.94-0.78-4.36-1.21c-7.94-2.36-14.87-5.29-20.13-8.42
		c6.41-0.66,13.15-1.06,20.13-1.16c1.24-0.02,2.49-0.03,3.74-0.03h0.62C171.366,129.595,189.436,131.995,203.426,135.945z"/>
	<g>
		<path fill="#E2E2E2" d="M146.764,163.741c-0.92-0.46-1.94-0.82-3.04-1.05c-3.02-0.64-5.91-0.18-7.95,1.05
			c-0.48,0.29-0.9,0.61-1.28,0.98l-3.98-0.98l-51.95-12.79c-3.95,2.44-6.8,5.11-8.34,7.92l26.6,4.87l36.45,6.67
			c0.11,0.27,0.23,0.54,0.39,0.8c1.24,2.24,3.88,4.11,7.22,4.83c5.16,1.1,9.97-1,10.76-4.68c0.01-0.05,0.02-0.1,0.02-0.15
			C152.194,168.351,150.134,165.401,146.764,163.741z M229.814,158.921l-60.09-11c-0.98-2.48-3.73-4.65-7.32-5.41
			c-4.96-1.07-9.6,0.95-10.36,4.5c-0.76,3.55,2.66,7.28,7.62,8.34c3.59,0.77,6.98-0.09,8.89-1.94l41.99,10.33l19.31,4.75l1.25,0.31
			v-5.06C231.104,162.101,230.664,160.491,229.814,158.921z"/>
		<path fill="#E28A0C" d="M143.728,161.268c-3.724-0.795-7.247,0.091-9.229,2.023l-74.611-18.362
			c-2.807-0.685-5.639,1.035-6.324,3.842s1.035,5.639,3.842,6.324c0.096,0.024,0.194,0.044,0.291,0.062l75.581,13.833
			c1.017,2.574,3.874,4.826,7.601,5.621c5.16,1.101,9.979-0.993,10.767-4.678C152.433,166.248,148.887,162.369,143.728,161.268
			L143.728,161.268z M159.668,153.928c3.585,0.765,6.978-0.089,8.885-1.948l71.836,17.679c2.707,0.64,5.42-1.036,6.061-3.743
			c0.64-2.707-1.036-5.42-3.743-6.061c-0.069-0.017-0.139-0.031-0.208-0.045l-72.772-13.319c-0.979-2.479-3.73-4.646-7.319-5.412
			c-4.968-1.061-9.609,0.956-10.367,4.504C151.288,149.132,154.702,152.867,159.668,153.928z"/>
	</g>
</g>
</svg>
