<svg xmlns="http://www.w3.org/2000/svg" version="1.0" viewBox="0 0 300 300"><ellipse cx="150" cy="150" fill="#FFF" rx="149.92" ry="149.92"/><circle cx="150" cy="150" r="140.725" fill="#EB595B"/><path fill="#FFB031" d="M95.587 236.808l4.355-1.033c1.284-.305 2.398.931 1.961 2.177l-1.48 4.224 1.033 4.355c.305 1.284-.931 2.398-2.177 1.961l-4.224-1.48-4.355 1.033c-1.284.305-2.398-.931-1.961-2.177l1.48-4.224-1.033-4.355c-.305-1.284.931-2.398 2.177-1.961l4.224 1.48zm-17.684-13.711l4.252-3.968c1.254-1.17 3.306-.492 3.615 1.195l1.047 5.721 3.968 4.252c1.17 1.254.492 3.306-1.195 3.615l-5.721 1.047-4.252 3.968c-1.254 1.17-3.306.492-3.615-1.195l-1.047-5.721-3.968-4.252c-1.17-1.254-.492-3.306 1.195-3.615l5.721-1.047zM245.998 82.432l4.007 2.902c1.182.856.95 2.68-.408 3.213l-4.606 1.808-2.902 4.007c-.856 1.182-2.68.95-3.213-.408l-1.808-4.606-4.007-2.902c-1.182-.856-.95-2.68.408-3.213l4.606-1.808 2.902-4.007c.856-1.182 2.68-.95 3.213.408l1.808 4.606zm11.086 13.799l.272 2.685a1.007 1.007 0 0 1-1.457 1l-2.408-1.219-2.685.272a1.007 1.007 0 0 1-1-1.457l1.219-2.408-.272-2.685a1.007 1.007 0 0 1 1.457-1l2.408 1.219 2.685-.272a1.007 1.007 0 0 1 1 1.457l-1.219 2.408zm5.058 16.468l-.425 3.207a1.206 1.206 0 0 1-1.975.763l-2.471-2.088-3.207-.425a1.206 1.206 0 0 1-.763-1.975l2.088-2.471.425-3.207a1.206 1.206 0 0 1 1.975-.763l2.471 2.088 3.207.425a1.206 1.206 0 0 1 .763 1.975l-2.088 2.471zm-19.549 94.953l4.101 2.764c1.209.815 1.04 2.645-.299 3.223l-4.539 1.962-2.764 4.101c-.815 1.209-2.645 1.04-3.223-.299l-1.962-4.539-4.101-2.764c-1.209-.815-1.04-2.645.299-3.223l4.539-1.962 2.764-4.101c.815-1.209 2.645-1.04 3.223.299l1.962 4.539zm-12.877 19.76l1.923 2.905a1.3 1.3 0 0 1-1.064 2.017l-3.484.052-2.905 1.923a1.3 1.3 0 0 1-2.017-1.064l-.052-3.484-1.923-2.905a1.3 1.3 0 0 1 1.064-2.017l3.484-.052 2.905-1.923a1.3 1.3 0 0 1 2.017 1.064l.052 3.484zM113.326 52.911l2.434 4.338c.718 1.279-.263 2.846-1.727 2.76l-4.966-.291-4.338 2.434c-1.279.718-2.846-.263-2.76-1.727l.291-4.966-2.434-4.338c-.718-1.279.263-2.846 1.727-2.76l4.966.291 4.338-2.434c1.279-.718 2.846.263 2.76 1.727l-.291 4.966zM92.817 64.835l.413 3.48a1.307 1.307 0 0 1-1.869 1.33l-3.153-1.53-3.48.413a1.307 1.307 0 0 1-1.33-1.869l1.53-3.153-.413-3.48a1.307 1.307 0 0 1 1.869-1.33l3.153 1.53 3.48-.413a1.307 1.307 0 0 1 1.33 1.869l-1.53 3.153z"/><path fill="none" stroke="#565656" stroke-linecap="round" stroke-miterlimit="10" d="M92.026 183.286v-55.773"/><path fill="#3F3F3F" d="M90.361 184.543h1.374a.29.29 0 0 0 .291-.291v-4.042l.004-1.124s-1.959.609-1.959 1.124v4.042a.29.29 0 0 0 .29.291z"/><path fill="#4C4C4C" d="M90.241 184.725h1.614a.17.17 0 0 0 .171-.171v-4.283a.17.17 0 0 0-.171-.171h-1.614a.17.17 0 0 0-.171.171v4.283a.17.17 0 0 0 .171.171z"/><path fill="#3F3F3F" d="M90.563 130.419h1.204a.255.255 0 0 0 .255-.255v-3.544l.003-2.535s-1.718 0-1.718 2.535v3.544c.001.14.115.255.256.255z"/><path fill="#4C4C4C" d="M90.458 130.578h1.415a.15.15 0 0 0 .15-.15v-3.755a.15.15 0 0 0-.15-.15h-1.415a.15.15 0 0 0-.15.15v3.755c0 .083.067.15.15.15z"/><path fill="none" stroke="#565656" stroke-linecap="round" stroke-miterlimit="10" d="M207.974 183.286v-55.773"/><path fill="#3F3F3F" d="M209.639 184.543h-1.374a.29.29 0 0 1-.291-.291v-4.042l-.004-1.124s1.959.609 1.959 1.124v4.042a.29.29 0 0 1-.29.291z"/><path fill="#4C4C4C" d="M209.759 184.725h-1.614a.17.17 0 0 1-.171-.171v-4.283a.17.17 0 0 1 .171-.171h1.614a.17.17 0 0 1 .171.171v4.283a.17.17 0 0 1-.171.171z"/><path fill="#3F3F3F" d="M209.437 130.419h-1.204a.255.255 0 0 1-.255-.255v-3.544l-.003-2.535s1.718 0 1.718 2.535v3.544a.257.257 0 0 1-.256.255z"/><path fill="#4C4C4C" d="M209.542 130.578h-1.415a.15.15 0 0 1-.15-.15v-3.755a.15.15 0 0 1 .15-.15h1.415a.15.15 0 0 1 .15.15v3.755a.15.15 0 0 1-.15.15z"/><path fill="#414044" d="M91.259 187.93v-6.115h117.482v6.115c0 12.813-26.299 23.199-58.741 23.199s-58.741-10.387-58.741-23.199z"/><ellipse cx="150" cy="179.924" fill="#49484C" rx="58.741" ry="23.199"/><path fill="#363538" d="M204.02 176.775c-.014 11.617-24.19 21.036-54.022 21.036s-54.007-9.419-54.007-21.036V130.58h108.015v15.249l.014 30.946z"/><path fill="#414044" d="M91.259 130.638v-8.795h117.482v8.795c0 12.813-26.299 23.199-58.741 23.199s-58.741-10.386-58.741-23.199z"/><ellipse cx="150" cy="116.987" fill="#363538" rx="62" ry="29.987"/><path fill="none" stroke="#565656" stroke-linecap="round" stroke-miterlimit="10" stroke-width="2" d="M150 206.328v-56.383m39.505 50.248V143.81m-79.01 56.383V143.81"/><path fill="#4C4C4C" d="M152.351 149.493v.904h-4.702v-.904a2.352 2.352 0 0 1 4.702 0z"/><circle cx="150" cy="150.397" r="2.351" fill="#606060"/><path fill="#4C4C4C" d="M152.351 205.876v.904h-4.702v-.904a2.352 2.352 0 0 1 4.702 0z"/><circle cx="150" cy="206.78" r="2.351" fill="#606060"/><path fill="#4C4C4C" d="M112.614 143.598c0 1.078-1.268 2.375-2.325 2.375s-1.914-.967-1.914-2.044c0-1.078 1.268-2.282 2.325-2.282s1.914.874 1.914 1.951z"/><ellipse cx="110.289" cy="144.022" fill="#606060" rx="1.914" ry="1.951"/><path fill="#4C4C4C" d="M112.614 200.303c0 1.078-1.268 2.375-2.325 2.375s-1.914-.967-1.914-2.044 1.268-2.282 2.325-2.282 1.914.874 1.914 1.951z"/><ellipse cx="110.289" cy="200.727" fill="#606060" rx="1.914" ry="1.951"/><path fill="#4C4C4C" d="M187.592 200.303c0 1.078 1.268 2.375 2.325 2.375 1.057 0 1.914-.967 1.914-2.044s-1.268-2.282-2.325-2.282c-1.058 0-1.914.874-1.914 1.951z"/><ellipse cx="189.916" cy="200.727" fill="#606060" rx="1.914" ry="1.951"/><path fill="#4C4C4C" d="M187.386 143.598c0 1.078 1.268 2.375 2.325 2.375 1.057 0 1.914-.967 1.914-2.044 0-1.078-1.268-2.282-2.325-2.282-1.057 0-1.914.874-1.914 1.951z"/><ellipse cx="189.711" cy="144.022" fill="#606060" rx="1.914" ry="1.951"/><circle cx="103" cy="99" r="10" fill="#363538"/><circle cx="98" cy="109" r="10" fill="#363538"/><circle cx="120" cy="96" r="10" fill="#363538"/><circle cx="114" cy="88" r="10" fill="#363538"/><circle cx="132" cy="90" r="10" fill="#363538"/><circle cx="129" cy="84" r="10" fill="#363538"/><circle cx="138" cy="89" r="10" fill="#363538"/><circle cx="142" cy="82" r="10" fill="#363538"/><circle cx="150" cy="94" r="10" fill="#363538"/><circle cx="158" cy="84" r="10" fill="#363538"/><circle cx="165" cy="95" r="10" fill="#363538"/><circle cx="175" cy="88" r="10" fill="#363538"/><circle cx="178" cy="96" r="10" fill="#363538"/><circle cx="190" cy="94" r="10" fill="#363538"/><circle cx="192" cy="102" r="10" fill="#363538"/><circle cx="202" cy="102" r="10" fill="#363538"/><circle cx="200" cy="109" r="10" fill="#363538"/><circle cx="202" cy="115" r="10" fill="#363538"/><circle cx="204" cy="114" r="10" fill="#363538"/><circle cx="202" cy="122" r="10" fill="#363538"/><circle cx="102" cy="129" r="10" fill="#363538"/><circle cx="128.028" cy="142.034" r="10" fill="#363538"/><circle cx="112.032" cy="134.035" r="10" fill="#363538"/><circle cx="190.028" cy="132.033" r="10" fill="#363538"/><circle cx="142.033" cy="142.038" r="10" fill="#363538"/><circle cx="165.014" cy="142.013" r="10" fill="#363538"/><circle cx="179.015" cy="138.013" r="10" fill="#363538"/><circle cx="174.016" cy="111.012" r="10" fill="#363538"/><circle cx="198.017" cy="129.012" r="10" fill="#363538"/><path fill="#E2E2E2" d="M158.005 89.583c.465.465 1.193.439 1.657-.025l9.765-9.765 1.02 1.02-9.765 9.765c-.465.465-.49 1.192-.025 1.657.465.465 1.193.439 1.657-.025l9.765-9.765 1.02 1.02-9.765 9.765c-.465.465-.49 1.192-.025 1.657s1.193.439 1.657-.025l9.765-9.765 1.02 1.02-9.765 9.765c-.465.465-.49 1.192-.025 1.657.465.465 1.193.439 1.657-.025l9.765-9.765 1.02 1.02-9.765 9.765c-.465.465-.49 1.192-.025 1.657.465.465 1.193.439 1.657-.025l9.765-9.765 1.02 1.02-9.765 9.765c-.465.465-.49 1.192-.025 1.657s1.193.439 1.657-.025l9.765-9.765 1.02 1.02-9.765 9.765c-.465.465-.49 1.192-.025 1.657.465.465 1.193.439 1.657-.025l9.765-9.765 1.02 1.02-9.765 9.765c-.465.465-.49 1.192-.025 1.657.465.465 1.193.439 1.657-.025l15.883-15.883a2.576 2.576 0 0 0 0-3.674l-5.71-5.71 10.181-10.181c.841-.841.773-2.32-.068-3.161l-1.938-1.938c-.841-.841-2.15-.739-2.992.102l-10.181 10.181-5.901-5.901c-1.027-1.027-2.557-.938-3.584.089l-15.883 15.883c-.467.461-.493 1.189-.028 1.654z"/><circle cx="161.014" cy="100.008" r="10" fill="#363538"/><circle cx="184.014" cy="109.009" r="10" fill="#363538"/><circle cx="178.016" cy="111.01" r="10" fill="#363538"/><circle cx="172.016" cy="111.01" r="10" fill="#363538"/></svg>