<?xml version="1.0" encoding="utf-8"?>
<!-- Generator: Adobe Illustrator 26.0.0, SVG Export Plug-In . SVG Version: 6.00 Build 0)  -->
<svg version="1.0" id="Camada_1" xmlns="http://www.w3.org/2000/svg" xmlns:xlink="http://www.w3.org/1999/xlink" x="0px" y="0px"
	 viewBox="0 0 300 300" enable-background="new 0 0 300 300" xml:space="preserve">
<g>
	
		<ellipse transform="matrix(0.7071 -0.7071 0.7071 0.7071 -62.1321 149.9998)" fill="#FFFFFF" cx="150" cy="150" rx="150" ry="150"/>
	<circle fill="#86BF5A" cx="150" cy="150" r="140.812"/>
</g>
<g>
	<g>
		<g>
			<path fill="#565656" d="M150.62,66.461v61.717c-1.09-0.012-2.2-0.025-3.31-0.025h-1.04V66.461c0-1.543,0.93-2.888,2.18-2.888
				C149.69,63.572,150.62,64.918,150.62,66.461z"/>
			<path fill="#FFB031" d="M204.455,95.782c0,4.356-24.426,11.669-54.453,11.669s-54.453-7.312-54.453-11.669
				s24.426-7.935,54.453-7.935S204.455,91.426,204.455,95.782z"/>
			<path fill="#E28A0C" d="M204.455,95.627c0,4.356-24.426,9.49-54.453,9.49s-54.453-5.134-54.453-9.49
				c0-4.356,24.271-9.957,54.453-9.957C180.184,85.67,204.455,91.271,204.455,95.627z"/>
			<path fill="#FFB031" d="M204.455,92.515c0,4.356-24.426,7.935-54.453,7.935s-54.453-3.578-54.453-7.935
				c0-4.356,35.473-8.868,54.453-8.868C161.514,83.647,204.455,88.159,204.455,92.515z"/>
			<path fill="#FFB031" d="M173.183,85.825c0,3.423-11.046,6.068-24.582,6.068s-24.582-2.645-24.582-6.068
				s11.046-7.935,24.582-7.935S173.183,82.402,173.183,85.825z"/>
		</g>
		<g>
			<g>
				<g>
					<path fill="#E2E2E2" d="M227.959,201.964H72.046H68.89v7.46c0,14.92,36.312,27.003,81.105,27.003s81.105-12.083,81.105-27.003
						v-7.46H227.959z"/>
					<ellipse fill="#FFFFFF" cx="150.001" cy="201.964" rx="81.104" ry="26.993"/>
				</g>
				<polygon fill="#E59623" points="226.011,199.508 149.998,199.508 73.984,199.508 73.984,155.445 226.011,155.445 				"/>
				<ellipse fill="#E28A0C" cx="149.998" cy="199.508" rx="76.013" ry="25.299"/>
				<g>
					<path fill="#E2E2E2" d="M227.959,147.978H72.046H68.89v7.46c0,14.92,36.312,27.003,81.105,27.003s81.105-12.083,81.105-27.003
						v-7.46H227.959z"/>
					<path fill="#FFFFFF" d="M231.11,147.982c0,0.08,0,0.15-0.01,0.23c-0.07,3.23-1.87,6.34-5.09,9.2
						c-3.96,3.53-10.07,6.71-17.82,9.36c-0.29,0.11-0.58,0.21-0.88,0.31h-0.01c-0.27,0.09-0.55,0.18-0.83,0.27
						c-0.56,0.18-1.13,0.36-1.71,0.53c-0.33,0.11-0.67,0.21-1.02,0.31c-0.1,0.03-0.2,0.06-0.31,0.1
						c-11.08,3.23-24.82,5.47-39.98,6.31c-4.17,0.23-8.46,0.36-12.83,0.37H150c-1.25,0-2.5-0.01-3.73-0.03
						c-3.3-0.05-6.54-0.16-9.72-0.34c-28.89-1.61-52.6-8.29-62.57-17.2c-3.29-2.93-5.08-6.11-5.08-9.42
						c0-9.8,15.7-18.39,39.19-23.12c11.23-2.26,24.25-3.64,38.18-3.85c1.23-0.02,2.48-0.03,3.73-0.03h0.62
						c13.74,0.04,26.67,1.21,37.98,3.25C213.92,128.802,231.11,137.722,231.11,147.982z"/>
				</g>
			</g>
			<g>
				<g>
					<path fill="#4C4C4C" d="M152.675,232.135v1.031h-5.361v-1.031c0-1.48,1.2-2.68,2.68-2.68S152.675,230.654,152.675,232.135z"/>
				</g>
				<g>
					<path fill="#565656" d="M149.996,232.65c-0.912,0-1.649-0.606-1.649-1.355V178.49c0-0.749,0.738-1.355,1.649-1.355
						s1.649,0.606,1.649,1.355v52.805C151.645,232.044,150.907,232.65,149.996,232.65z"/>
				</g>
				<g>
					<path fill="#4C4C4C" d="M152.675,178.269v1.031h-5.361v-1.031c0-1.48,1.2-2.68,2.68-2.68S152.675,176.788,152.675,178.269z"/>
				</g>
				<circle fill="#606060" cx="149.995" cy="179.3" r="2.68"/>
				<path fill="#4C4C4C" d="M153.227,220.971h-6.459c-2.735,0-4.973-2.238-4.973-4.973v-19.025c0-2.735,2.238-4.973,4.973-4.973
					h6.459c2.735,0,4.973,2.238,4.973,4.973v19.025C158.2,218.733,155.962,220.971,153.227,220.971z"/>
				<path fill="#606060" d="M152.202,217.078h-4.408c-1.867,0-3.394-1.527-3.394-3.394v-14.396c0-1.867,1.527-3.394,3.394-3.394
					h4.408c1.867,0,3.394,1.527,3.394,3.394v14.396C155.596,215.551,154.068,217.078,152.202,217.078z"/>
				<circle fill="#606060" cx="150.001" cy="233.166" r="2.68"/>
			</g>
			<g>
				<g>
					<path fill="#4C4C4C" d="M96.653,224.884v1.031h-5.361v-1.031c0-1.48,1.2-2.68,2.68-2.68S96.653,223.403,96.653,224.884z"/>
				</g>
				<g>
					<path fill="#565656" d="M93.974,225.399c-0.912,0-1.649-0.606-1.649-1.355v-52.805c0-0.749,0.738-1.355,1.649-1.355
						c0.912,0,1.649,0.606,1.649,1.355v52.805C95.623,224.793,94.885,225.399,93.974,225.399z"/>
				</g>
				<g>
					<path fill="#4C4C4C" d="M96.653,171.018v1.031h-5.361v-1.031c0-1.48,1.2-2.68,2.68-2.68S96.653,169.537,96.653,171.018z"/>
				</g>
				<circle fill="#606060" cx="93.973" cy="172.048" r="2.68"/>
				<path fill="#4C4C4C" d="M97.205,213.72h-6.459c-2.735,0-4.973-2.238-4.973-4.973v-19.025c0-2.735,2.238-4.973,4.973-4.973h6.459
					c2.735,0,4.973,2.238,4.973,4.973v19.025C102.178,211.482,99.94,213.72,97.205,213.72z"/>
				<path fill="#606060" d="M96.18,209.827h-4.408c-1.867,0-3.394-1.527-3.394-3.394v-14.396c0-1.867,1.527-3.394,3.394-3.394h4.408
					c1.867,0,3.394,1.527,3.394,3.394v14.396C99.574,208.3,98.047,209.827,96.18,209.827z"/>
				<circle fill="#606060" cx="93.98" cy="225.914" r="2.68"/>
			</g>
			<g>
				<g>
					<path fill="#4C4C4C" d="M208.784,222.311v1.031h-5.361v-1.031c0-1.48,1.2-2.68,2.68-2.68S208.784,220.831,208.784,222.311z"/>
				</g>
				<g>
					<path fill="#565656" d="M206.104,222.827c-0.912,0-1.649-0.606-1.649-1.355v-52.805c0-0.749,0.738-1.355,1.649-1.355
						s1.649,0.606,1.649,1.355v52.805C207.754,222.221,207.016,222.827,206.104,222.827z"/>
				</g>
				<g>
					<path fill="#4C4C4C" d="M208.784,168.445v1.031h-5.361v-1.031c0-1.48,1.2-2.68,2.68-2.68S208.784,166.965,208.784,168.445z"/>
				</g>
				<circle fill="#606060" cx="206.104" cy="169.476" r="2.68"/>
				<path fill="#4C4C4C" d="M209.336,211.148h-6.459c-2.735,0-4.973-2.238-4.973-4.973V187.15c0-2.735,2.238-4.973,4.973-4.973
					h6.459c2.735,0,4.973,2.238,4.973,4.973v19.025C214.309,208.91,212.071,211.148,209.336,211.148z"/>
				<path fill="#606060" d="M208.31,207.255h-4.408c-1.867,0-3.394-1.527-3.394-3.394v-14.396c0-1.867,1.527-3.394,3.394-3.394
					h4.408c1.867,0,3.394,1.527,3.394,3.394v14.396C211.705,205.727,210.177,207.255,208.31,207.255z"/>
				<circle fill="#606060" cx="206.11" cy="223.342" r="2.68"/>
			</g>
			<circle fill="#FFB031" cx="121.987" cy="202.379" r="6.325"/>
			<path fill="#FFB031" d="M73.984,178.611c3.493,0,6.325,2.832,6.325,6.325c0,3.493-2.832,6.325-6.325,6.325V178.611z"/>
			<path fill="#FFB031" d="M226.011,191.26c-3.493,0-6.325-2.832-6.325-6.325c0-3.493,2.832-6.325,6.325-6.325V191.26z"/>
			<circle fill="#FFB031" cx="178.052" cy="202.379" r="6.325"/>
		</g>
	</g>
	<path fill="#E2E2E2" d="M190.255,124.232c-5.97,2.17-20.56,3.75-37.98,3.93c-1.09,0.01-2.2,0.02-3.31,0.02h-1.04
		c-16.62-0.06-30.97-1.38-38.18-3.32c11.23-2.26,24.25-3.64,38.18-3.85c1.23-0.02,2.48-0.03,3.73-0.03h0.62
		C166.015,121.022,178.945,122.192,190.255,124.232z"/>
	<g>
		<path fill="#E2E2E2" d="M146.764,153.153c-0.92-0.46-1.94-0.82-3.04-1.05c-3.02-0.64-5.91-0.18-7.95,1.05
			c-0.48,0.29-0.9,0.61-1.28,0.98l-3.98-0.98l-51.95-12.79c-3.95,2.44-6.8,5.11-8.34,7.92l26.6,4.87l36.45,6.67
			c0.11,0.27,0.23,0.54,0.39,0.8c1.24,2.24,3.88,4.11,7.22,4.83c5.16,1.1,9.97-1,10.76-4.68c0.01-0.05,0.02-0.1,0.02-0.15
			C152.194,157.763,150.134,154.813,146.764,153.153z M229.814,148.333l-60.09-11c-0.98-2.48-3.73-4.65-7.32-5.41
			c-4.96-1.07-9.6,0.95-10.36,4.5c-0.76,3.55,2.66,7.28,7.62,8.34c3.59,0.77,6.98-0.09,8.89-1.94l41.99,10.33l19.31,4.75l1.25,0.31
			v-5.06C231.104,151.513,230.664,149.903,229.814,148.333z"/>
		<path fill="#E28A0C" d="M143.728,150.68c-3.724-0.795-7.247,0.091-9.229,2.023L59.889,134.34
			c-2.807-0.685-5.639,1.035-6.324,3.842s1.035,5.639,3.842,6.324c0.096,0.024,0.194,0.044,0.291,0.062l75.581,13.833
			c1.017,2.574,3.874,4.826,7.601,5.621c5.16,1.101,9.979-0.993,10.767-4.678C152.433,155.66,148.887,151.781,143.728,150.68
			L143.728,150.68z M159.668,143.34c3.585,0.765,6.978-0.089,8.885-1.948l71.836,17.679c2.707,0.64,5.42-1.036,6.061-3.743
			c0.64-2.707-1.036-5.42-3.743-6.061c-0.069-0.017-0.139-0.031-0.208-0.045l-72.772-13.319c-0.979-2.479-3.73-4.646-7.319-5.412
			c-4.968-1.061-9.609,0.956-10.367,4.504C151.288,138.544,154.702,142.279,159.668,143.34z"/>
	</g>
</g>
</svg>
