<?xml version="1.0" encoding="utf-8"?>
<!-- Generator: Adobe Illustrator 26.2.1, SVG Export Plug-In . SVG Version: 6.00 Build 0)  -->
<svg version="1.1" id="Camada_1" xmlns="http://www.w3.org/2000/svg" xmlns:xlink="http://www.w3.org/1999/xlink" x="0px" y="0px"
	 viewBox="0 0 300 300" style="enable-background:new 0 0 300 300;" xml:space="preserve">
<style type="text/css">
	.st0{fill:#FFFFFF;}
	.st1{fill:#FBBC4B;}
	.st2{fill:#565656;}
	.st3{fill:#E2E2E2;}
	.st4{fill:#E59623;}
	.st5{fill:#E28A0C;}
	.st6{fill:#4C4C4C;}
	.st7{fill:#606060;}
	.st8{fill:#FFB031;}
</style>
<g>
	<ellipse class="st0" cx="150" cy="150" rx="150" ry="150"/>
	<circle class="st1" cx="150" cy="150" r="140.8"/>
</g>
<g>
	<g>
		<g>
			<path class="st2" d="M150.6,74.5v35.8c-1.5-0.2-2.9-0.3-4.4-0.4V74.5c0-1.2,0.9-2.3,2.2-2.3C149.7,72.1,150.6,73.2,150.6,74.5z"
				/>
			<path class="st2" d="M150,129.5h0.6v63.2c0,1.2-0.9,2.3-2.2,2.3h-0.1c-1.2-0.1-2.1-1.1-2.1-2.3v-63.1
				C147.5,129.6,148.8,129.5,150,129.5z"/>
		</g>
		<g>
			<g>
				<g>
					<path class="st3" d="M228,210.5H72h-3.2v7.5c0,14.9,36.3,27,81.1,27s81.1-12.1,81.1-27v-7.5H228z"/>
					<ellipse class="st0" cx="150" cy="210.5" rx="81.1" ry="27"/>
				</g>
				<polygon class="st4" points="226,208.1 150,208.1 74,208.1 74,164 226,164 				"/>
				<ellipse class="st5" cx="150" cy="208.1" rx="76" ry="25.3"/>
				<g>
					<path class="st3" d="M228,156.5H72h-3.2v7.5c0,14.9,36.3,27,81.1,27s81.1-12.1,81.1-27v-7.5H228z"/>
					<path class="st0" d="M231.1,156.5c0,3.3-1.8,6.5-5.1,9.4c-3.9,3.5-10.1,6.7-17.8,9.4c-0.3,0.1-0.6,0.2-0.9,0.3h0
						c-0.3,0.1-0.6,0.2-0.8,0.3c-0.6,0.2-1.1,0.4-1.7,0.5c-0.3,0.1-0.7,0.2-1,0.3c-0.1,0-0.2,0.1-0.3,0.1c-11.1,3.2-24.8,5.5-40,6.3
						c-4.2,0.2-8.5,0.4-12.8,0.4H150c-1.2,0-2.5,0-3.7,0c-3.3-0.1-6.5-0.2-9.7-0.3c0,0,0,0,0,0C107.7,181.6,84,174.9,74,166
						c-3.3-2.9-5.1-6.1-5.1-9.4c0-12.1,24.1-22.4,57.2-25.8c6.4-0.7,13.1-1.1,20.1-1.2c1.2,0,2.5,0,3.7,0h0.6
						c19.8,0.1,37.8,2.4,51.8,6.4C220,140.9,231.1,148.3,231.1,156.5z"/>
				</g>
			</g>
			<g>
				<g>
					<path class="st6" d="M152.7,240.7v1h-5.4v-1c0-1.5,1.2-2.7,2.7-2.7S152.7,239.2,152.7,240.7z"/>
				</g>
				<g>
					<path class="st2" d="M150,241.2c-0.9,0-1.6-0.6-1.6-1.4v-52.8c0-0.7,0.7-1.4,1.6-1.4s1.6,0.6,1.6,1.4v52.8
						C151.6,240.6,150.9,241.2,150,241.2z"/>
				</g>
				<g>
					<path class="st6" d="M152.7,186.8v1h-5.4v-1c0-1.5,1.2-2.7,2.7-2.7S152.7,185.4,152.7,186.8z"/>
				</g>
				<circle class="st7" cx="150" cy="187.9" r="2.7"/>
				<path class="st6" d="M153.2,229.5h-6.5c-2.7,0-5-2.2-5-5v-19c0-2.7,2.2-5,5-5h6.5c2.7,0,5,2.2,5,5v19
					C158.2,227.3,156,229.5,153.2,229.5z"/>
				<path class="st7" d="M152.2,225.6h-4.4c-1.9,0-3.4-1.5-3.4-3.4v-14.4c0-1.9,1.5-3.4,3.4-3.4h4.4c1.9,0,3.4,1.5,3.4,3.4v14.4
					C155.6,224.1,154.1,225.6,152.2,225.6z"/>
				<circle class="st7" cx="150" cy="241.7" r="2.7"/>
			</g>
			<g>
				<g>
					<path class="st6" d="M96.7,233.4v1h-5.4v-1c0-1.5,1.2-2.7,2.7-2.7C95.5,230.8,96.7,232,96.7,233.4z"/>
				</g>
				<g>
					<path class="st2" d="M94,234c-0.9,0-1.6-0.6-1.6-1.4v-52.8c0-0.7,0.7-1.4,1.6-1.4c0.9,0,1.6,0.6,1.6,1.4v52.8
						C95.6,233.4,94.9,234,94,234z"/>
				</g>
				<g>
					<path class="st6" d="M96.7,179.6v1h-5.4v-1c0-1.5,1.2-2.7,2.7-2.7C95.5,176.9,96.7,178.1,96.7,179.6z"/>
				</g>
				<circle class="st7" cx="94" cy="180.6" r="2.7"/>
				<path class="st6" d="M97.2,222.3h-6.5c-2.7,0-5-2.2-5-5v-19c0-2.7,2.2-5,5-5h6.5c2.7,0,5,2.2,5,5v19
					C102.2,220,99.9,222.3,97.2,222.3z"/>
				<path class="st7" d="M96.2,218.4h-4.4c-1.9,0-3.4-1.5-3.4-3.4v-14.4c0-1.9,1.5-3.4,3.4-3.4h4.4c1.9,0,3.4,1.5,3.4,3.4V215
					C99.6,216.9,98,218.4,96.2,218.4z"/>
				<circle class="st7" cx="94" cy="234.5" r="2.7"/>
			</g>
			<g>
				<g>
					<path class="st6" d="M208.8,230.9v1h-5.4v-1c0-1.5,1.2-2.7,2.7-2.7S208.8,229.4,208.8,230.9z"/>
				</g>
				<g>
					<path class="st2" d="M206.1,231.4c-0.9,0-1.6-0.6-1.6-1.4v-52.8c0-0.7,0.7-1.4,1.6-1.4c0.9,0,1.6,0.6,1.6,1.4V230
						C207.8,230.8,207,231.4,206.1,231.4z"/>
				</g>
				<g>
					<path class="st6" d="M208.8,177v1h-5.4v-1c0-1.5,1.2-2.7,2.7-2.7S208.8,175.5,208.8,177z"/>
				</g>
				<circle class="st7" cx="206.1" cy="178" r="2.7"/>
				<path class="st6" d="M209.3,219.7h-6.5c-2.7,0-5-2.2-5-5v-19c0-2.7,2.2-5,5-5h6.5c2.7,0,5,2.2,5,5v19
					C214.3,217.5,212.1,219.7,209.3,219.7z"/>
				<path class="st7" d="M208.3,215.8h-4.4c-1.9,0-3.4-1.5-3.4-3.4V198c0-1.9,1.5-3.4,3.4-3.4h4.4c1.9,0,3.4,1.5,3.4,3.4v14.4
					C211.7,214.3,210.2,215.8,208.3,215.8z"/>
				<circle class="st7" cx="206.1" cy="231.9" r="2.7"/>
			</g>
			<circle class="st8" cx="122" cy="210.9" r="6.3"/>
			<path class="st8" d="M74,187.2c3.5,0,6.3,2.8,6.3,6.3s-2.8,6.3-6.3,6.3V187.2z"/>
			<path class="st8" d="M226,199.8c-3.5,0-6.3-2.8-6.3-6.3s2.8-6.3,6.3-6.3V199.8z"/>
			<circle class="st8" cx="178.1" cy="210.9" r="6.3"/>
		</g>
	</g>
	<path class="st2" d="M152.2,76.8v61.7c-1.1,0-2.2,0-3.3,0h-1V76.8c0-1.5,0.9-2.9,2.2-2.9C151.2,73.9,152.2,75.3,152.2,76.8z"/>
	<g>
		<path class="st8" d="M215.5,105.1c-1.4,5.3-6.7,8.8-14.6,10.6c-0.7,0.2-1.5,0.3-2.2,0.5c0,0,0,0,0,0c-0.7,0.1-1.5,0.2-2.3,0.3
			c-0.2,0-0.4,0.1-0.5,0.1c-0.7,0.1-1.4,0.2-2.2,0.2c-0.8,0.1-1.6,0.1-2.5,0.2c-2,0.1-4,0.2-6.1,0.1c-0.9,0-1.8,0-2.7-0.1
			c-1.1,0-2.2-0.1-3.3-0.2c-1.2-0.1-2.5-0.2-3.8-0.3l-0.1,0c-1.1-0.1-2.2-0.2-3.3-0.3c-1.1-0.1-2.2-0.3-3.3-0.4
			c-1.5-0.2-3-0.4-4.5-0.6c-0.9-0.1-1.8-0.3-2.7-0.4c-0.9-0.2-1.8-0.3-2.7-0.5v0c-4.7-0.9-9.6-1.9-14.5-3.2c-0.3-0.1-0.7-0.2-1-0.3
			c-1.8-0.5-3.6-1-5.4-1.5c-32.8-9.6-56.5-24.9-53-38.3c2.2-8.4,68.8-15.9,68.8-15.9l0,0c1.1-0.2,2.5-0.1,4.1,0.3
			c0.2,0,0.3,0,0.5,0.1c0.2,0,0.3,0.1,0.5,0.1l0.4,0.1c0.1,0,0.2,0.1,0.3,0.1c0.2,0.1,0.4,0.1,0.7,0.2c0.2,0.1,0.4,0.2,0.6,0.2
			c0.4,0.2,0.8,0.3,1.2,0.5c0.5,0.3,1,0.5,1.4,0.8C163.2,57.6,217.7,96.5,215.5,105.1z"/>
		<g>
			<g>
				<path class="st5" d="M200.8,115.7c-10.4,2.3-25.4,1.8-42.2-1.4l-0.5-58.8c0.2,0,0.3,0.1,0.5,0.1c1.2,0.3,2.3,0.7,3.2,1.2
					L200.8,115.7z"/>
				<path class="st5" d="M159,55.6l-0.8,2.7l-15,52.4c-1.8-0.5-3.6-1-5.4-1.5l19.9-53.9l0,0c0.2,0,0.3,0.1,0.5,0.1
					c0.2,0,0.3,0.1,0.5,0.1L159,55.6z"/>
			</g>
		</g>
	</g>
	<path class="st3" d="M203.4,135.9c0,0.1,0,0.2-0.1,0.4c-1.8,8.1-22.6,10.5-46.6,5.3c-1.8-0.4-3.5-0.8-5.2-1.2
		c-1.5-0.4-2.9-0.8-4.4-1.2c-7.9-2.4-14.9-5.3-20.1-8.4c6.4-0.7,13.2-1.1,20.1-1.2c1.2,0,2.5,0,3.7,0h0.6
		C171.4,129.6,189.4,132,203.4,135.9z"/>
	<g>
		<path class="st3" d="M146.8,163.7c-0.9-0.5-1.9-0.8-3-1.1c-3-0.6-5.9-0.2-7.9,1.1c-0.5,0.3-0.9,0.6-1.3,1l-4-1L78.6,151
			c-3.9,2.4-6.8,5.1-8.3,7.9l26.6,4.9l36.5,6.7c0.1,0.3,0.2,0.5,0.4,0.8c1.2,2.2,3.9,4.1,7.2,4.8c5.2,1.1,10-1,10.8-4.7
			c0-0.1,0-0.1,0-0.1C152.2,168.4,150.1,165.4,146.8,163.7z M229.8,158.9l-60.1-11c-1-2.5-3.7-4.6-7.3-5.4c-5-1.1-9.6,0.9-10.4,4.5
			s2.7,7.3,7.6,8.3c3.6,0.8,7-0.1,8.9-1.9l42,10.3l19.3,4.8l1.2,0.3v-5.1C231.1,162.1,230.7,160.5,229.8,158.9z"/>
		<path class="st5" d="M143.7,161.3c-3.7-0.8-7.2,0.1-9.2,2l-74.6-18.4c-2.8-0.7-5.6,1-6.3,3.8s1,5.6,3.8,6.3c0.1,0,0.2,0,0.3,0.1
			l75.6,13.8c1,2.6,3.9,4.8,7.6,5.6c5.2,1.1,10-1,10.8-4.7C152.4,166.2,148.9,162.4,143.7,161.3L143.7,161.3z M159.7,153.9
			c3.6,0.8,7-0.1,8.9-1.9l71.8,17.7c2.7,0.6,5.4-1,6.1-3.7c0.6-2.7-1-5.4-3.7-6.1c-0.1,0-0.1,0-0.2,0l-72.8-13.3
			c-1-2.5-3.7-4.6-7.3-5.4c-5-1.1-9.6,1-10.4,4.5C151.3,149.1,154.7,152.9,159.7,153.9z"/>
	</g>
</g>
</svg>
