<?xml version="1.0" encoding="utf-8"?>
<!-- Generator: Adobe Illustrator 26.5.0, SVG Export Plug-In . SVG Version: 6.00 Build 0)  -->
<svg version="1.1" id="Camada_1" xmlns="http://www.w3.org/2000/svg" xmlns:xlink="http://www.w3.org/1999/xlink" x="0px" y="0px"
	 viewBox="0 0 300 300" style="enable-background:new 0 0 300 300;" xml:space="preserve">
<style type="text/css">
	.st0{fill:#FFFFFF;}
	.st1{fill:#FAE040;}
	.st2{fill:#565656;}
	.st3{fill:#FFB031;}
	.st4{fill:#E28A0C;}
	.st5{fill:#606060;}
</style>
<circle class="st0" cx="150" cy="150" r="150"/>
<circle class="st1" cx="150" cy="150" r="140.8"/>
<g>
	<path class="st2" d="M154.7,78.9v87.9c-2.2,0-4.4,0-6.6,0h-2.1V78.9c0-2.2,1.9-4.1,4.3-4.1C152.9,74.9,154.7,76.8,154.7,78.9z"/>
	<path class="st2" d="M146.1,221.3v-87.9c2.2,0,4.4,0,6.6,0h2.1v87.9c0,2.2-1.9,4.1-4.3,4.1C147.8,225.5,146.1,223.6,146.1,221.3z"
		/>
	<path class="st3" d="M260.6,146.4c0,9.6-48,26-107,26s-107-16.2-107-26c0-9.6,48-17.6,107-17.6S260.6,136.7,260.6,146.4z"/>
	<path class="st4" d="M260.6,146c0,9.6-48,21-107,21s-107-11.4-107-21c0-9.6,47.7-22.1,107-22.1S260.6,136.4,260.6,146z"/>
	<path class="st3" d="M260.6,139.1c0,9.6-48,17.6-107,17.6s-107-8-107-17.6c0-9.6,69.7-19.7,107-19.7
		C176.1,119.5,260.6,129.4,260.6,139.1z"/>
	<path class="st3" d="M199.1,124.3c0,7.6-21.7,13.5-48.4,13.5s-48.4-5.9-48.4-13.5s21.7-17.6,48.4-17.6S199.1,116.6,199.1,124.3z"/>
</g>
<path class="st5" d="M102.8,134.3c-3.5,1.1-6.1,3.6-7,6.5l-71.1,18.4c-0.1,0-0.2,0-0.3,0.1c-2.6,0.8-4.2,4-3.3,7.1
	c0.8,2.9,3.5,4.7,6.1,3.9l70-23.3c2,2,5.4,2.8,8.8,1.8c4.9-1.4,8-5.8,7.1-9.8C112.4,134.9,107.7,132.9,102.8,134.3z"/>
<path class="st5" d="M195.9,159.4c3.4,0.8,6.7-0.1,8.4-2.1l68.2,19c0.1,0,0.2,0,0.3,0.1c2.6,0.6,5.1-1.4,5.6-4.3
	c0.5-2.9-1.2-5.8-3.8-6.3l-69.3-14.5c-0.9-2.7-3.5-5.1-7-5.9c-4.7-1.2-9.2,1.1-9.9,4.8C187.9,154.2,191.1,158.2,195.9,159.4z"/>
<path d="M102.6,132.1c-3.5,1.1-6.1,3.6-7,6.5l-71.1,18.4c-0.1,0-0.2,0-0.3,0.1c-2.6,0.8-4.2,4-3.3,7.1c0.8,2.9,3.5,4.7,6.1,3.9
	l70-23.3c2,2,5.4,2.8,8.8,1.8c4.9-1.4,8-5.8,7.1-9.8C112.2,132.7,107.5,130.6,102.6,132.1z"/>
<path d="M196.5,157.3c3.4,0.8,6.7-0.1,8.4-2.1l68.2,19c0.1,0,0.2,0,0.3,0.1c2.6,0.6,5.1-1.4,5.6-4.3c0.5-2.9-1.2-5.8-3.8-6.3
	l-69.2-14.3c-0.9-2.7-3.5-5.1-7-5.9c-4.7-1.2-9.2,1.1-9.9,4.8C188.6,152.1,191.8,156.2,196.5,157.3z"/>
</svg>
