<svg viewBox="0 0 300 300" xmlns="http://www.w3.org/2000/svg"><ellipse cx="150" cy="150" fill="#fff" rx="150" ry="150"/><circle cx="150" cy="150" fill="#eb595b" r="140.8"/><path d="m214.8 175.5c-.4 0-.7-.2-.7-.5v-46.3c0-.3.3-.5.7-.5s.7.2.7.5v46.3c0 .2-.4.5-.7.5z" fill="#565656"/><path d="m216.5 176h-1.5c-.1 0-.3-.1-.3-.2v-4.3s2.1.5 2.1 1v3.3c.1.1 0 .2-.3.2z" fill="#3f3f3f"/><path d="m216.6 176.1h-1.6c-.1 0-.3-.1-.3-.2v-3.4c0-.1.1-.2.3-.2h1.7c.1 0 .3.1.3.2v3.4c-.1.1-.2.2-.4.2z" fill="#4c4c4c"/><path d="m216.3 131h-1.2c-.1 0-.3-.1-.3-.2v-5.1s1.8 0 1.8 2.2v2.9c0 .1-.1.2-.3.2z" fill="#3f3f3f"/><path d="m216.3 131.1h-1.3c-.1 0-.1-.1-.1-.1v-3c0-.1.1-.1.1-.1h1.4c.1 0 .1.1.1.1v3c.1.1 0 .1-.2.1z" fill="#4c4c4c"/><path d="m90.3 174.3v-44.8c0-.3.3-.5.7-.5s.7.2.7.5v44.8c0 .3-.3.5-.7.5-.3 0-.7-.2-.7-.5z" fill="#565656"/><path d="m89.1 174.2v-3.2c0-.4 2.1-.9 2.1-.9v4.2c0 .1-.1.2-.3.2h-1.5c-.3-.1-.4-.2-.3-.3z" fill="#3f3f3f"/><path d="m89 174.3v-3.3c0-.1.1-.2.3-.2h1.7c.1 0 .3.1.3.2v3.3c0 .1-.1.2-.3.2h-1.7c-.2 0-.3-.1-.3-.2z" fill="#4c4c4c"/><path d="m89.3 130.7v-2.8c0-2.1 1.8-2.1 1.8-2.1v4.9c0 .1-.1.2-.3.2h-1.2c-.2 0-.3-.1-.3-.2z" fill="#3f3f3f"/><path d="m89.4 130.9v-2.9s0-.1.1-.1h1.4s.1 0 .1.1v2.9s0 .1-.1.1h-1.4c-.1 0-.2 0-.1-.1z" fill="#4c4c4c"/><path d="m90.6 175.6v-8.6l124.9-.7v9.2c0 13.7-27.9 24.7-62.4 24.7s-62.5-11-62.5-24.6z" fill="#efefef"/><ellipse cx="153.1" cy="167.1" fill="#d6d6d6" rx="62.4" ry="24.7"/><path d="m210.5 168c0 8.8-25.7 18.8-57.5 18.8s-57.5-9.9-57.5-18.8v-35.3h114.8v11.6z" fill="#fbbc4b"/><path d="m95.6 160.1v7.7c9.5 8.7 31.8 14.9 57.5 14.9 25.8 0 48-6.1 57.5-14.9v-7.7c-9.5 8.8-31.6 14.9-57.5 14.9-25.8.1-48-6.2-57.5-14.9z" fill="#fff"/><path d="m95.6 146.2v7.7c9.5 8.7 31.8 14.9 57.5 14.9 25.8 0 47.9-6.1 57.5-14.9v-7.7c-9.5 8.8-31.6 14.9-57.5 14.9-25.8 0-48-6.2-57.5-14.9z" fill="#fff"/><path d="m90.6 132.8v-9.4h124.9v9.4c0 13.7-27.9 24.7-62.4 24.7s-62.5-11.2-62.5-24.7z" fill="#efefef"/><path d="m155.7 152.8v1h-5v-1c0-1.4 1.1-2.5 2.5-2.5 1.3 0 2.5 1.2 2.5 2.5z" fill="#4c4c4c"/><circle cx="153.1" cy="153.8" fill="#606060" r="2.5"/><path d="m155.6 195.7v1h-5v-1c0-1.4 1.1-2.5 2.5-2.5 1.2 0 2.5 1.1 2.5 2.5z" fill="#4c4c4c"/><circle cx="153.1" cy="196.3" fill="#606060" r="2.5"/><path d="m113.4 146.6c0 1.1-1.4 2.5-2.5 2.5s-2.1-1-2.1-2.2 1.4-2.5 2.5-2.5c1.2.1 2.1 1 2.1 2.2z" fill="#4c4c4c"/><ellipse cx="110.9" cy="147" fill="#606060" rx="2.1" ry="2.1"/><path d="m113.4 190.4c0 1.1-1.4 2.5-2.5 2.5s-2.1-1-2.1-2.2 1.4-2.5 2.5-2.5c1.2.1 2.1 1.1 2.1 2.2z" fill="#4c4c4c"/><ellipse cx="110.9" cy="190.8" fill="#606060" rx="2.1" ry="2.1"/><path d="m192.8 189.3c0 1.1 1.4 2.5 2.5 2.5s2.1-1 2.1-2.2-1.4-2.5-2.5-2.5-2.1 1.1-2.1 2.2z" fill="#4c4c4c"/><ellipse cx="195.3" cy="189.7" fill="#606060" rx="2.1" ry="2.1"/><path d="m192.9 146.6c0 1.1 1.4 2.5 2.5 2.5s2.1-1 2.1-2.2-1.4-2.5-2.5-2.5-2.1 1-2.1 2.2z" fill="#4c4c4c"/><ellipse cx="195.3" cy="147" fill="#606060" rx="2.1" ry="2.1"/><ellipse cx="153.1" cy="124.4" fill="#fff" rx="62.4" ry="24.7"/><g fill="#606060"><path d="m111.1 191.8c-.8 0-1.4-.4-1.4-1v-44.4c0-.6.6-1 1.4-1s1.4.4 1.4 1v44.4c0 .6-.6 1-1.4 1z"/><path d="m153.1 198.9c-.8 0-1.4-.4-1.4-1v-43.5c0-.6.6-1 1.4-1s1.4.4 1.4 1v43.5c0 .6-.6 1-1.4 1z"/><path d="m195.2 190.1c-.8 0-1.4-.4-1.4-1v-42.8c0-.6.6-1 1.4-1s1.4.4 1.4 1v42.8c0 .6-.7 1-1.4 1z"/><path d="m144.7 116.9c-3.1-.7-6.1.1-7.8 1.7l-62.8-15.5c-2.4-.6-4.7.9-5.3 3.2-.6 2.4.9 4.7 3.2 5.3.1 0 .2 0 .2.1l63.6 11.6c.9 2.2 3.3 4.1 6.4 4.7 4.3.9 8.4-.8 9.1-3.9.7-3-2.3-6.3-6.6-7.2zm13.4-6.2c3 .6 5.9-.1 7.5-1.6l60.5 14.9c2.3.5 4.6-.9 5.1-3.2s-.9-4.6-3.2-5.1h-.2l-61.3-11.2c-.8-2.1-3.1-3.9-6.2-4.6-4.2-.9-8.1.8-8.7 3.8-.5 3 2.3 6.1 6.5 7z"/></g></svg>