<svg xmlns="http://www.w3.org/2000/svg" viewBox="0 0 300 300"><ellipse cx="150" cy="150" fill="#fff" rx="150" ry="150"/><circle cx="150" cy="150" r="140.813" fill="#5ec2d7"/><path fill="#efefef" d="M148.899 147.319h2.202v5.362h-2.202z"/><path fill="#565656" d="M196.845 175.82c-.313 0-.523-.163-.523-.408v-35.013c0-.244.209-.408.523-.408s.523.163.523.408v35.013c0 .244-.313.408-.523.408z"/><path fill="#3f3f3f" d="M198.1 176.228h-1.151c-.104 0-.209-.082-.209-.163V172.8s1.568.408 1.568.734v2.53c.106.082.001.164-.208.164z"/><path fill="#4c4c4c" d="M198.204 176.309h-1.255c-.104 0-.209-.082-.209-.163v-2.611c0-.082.104-.163.209-.163h1.255c.104 0 .209.082.209.163v2.611c.001.082-.104.163-.209.163z"/><path fill="#3f3f3f" d="M197.995 142.194h-.941c-.104 0-.209-.082-.209-.163v-3.836s1.359 0 1.359 1.633v2.203c0 .082-.104.163-.209.163z"/><path fill="#4c4c4c" d="M197.995 142.276h-1.045c-.104 0-.104-.082-.104-.082v-2.285c0-.082.104-.082.104-.082h1.045c.104 0 .104.082.104.082v2.285c.105.082.001.082-.104.082z"/><path fill="#565656" d="M102.608 174.96v-33.9c0-.237.209-.395.523-.395.313 0 .523.158.523.395v33.899c0 .237-.209.395-.523.395-.209.001-.523-.157-.523-.394z"/><path fill="#3f3f3f" d="M101.691 174.861v-2.449c0-.316 1.568-.712 1.568-.712v3.161c0 .079-.104.158-.209.158h-1.15c-.209 0-.313-.08-.209-.158z"/><path fill="#4c4c4c" d="M101.587 174.939v-2.529c0-.079.104-.158.209-.158h1.255c.104 0 .209.079.209.158v2.529c0 .079-.104.158-.209.158h-1.255c-.105.001-.209-.078-.209-.158z"/><path fill="#3f3f3f" d="M101.796 141.909v-2.134c0-1.58 1.359-1.58 1.359-1.58v3.714c0 .079-.104.158-.209.158h-.941c-.104 0-.209-.078-.209-.158z"/><path fill="#4c4c4c" d="M101.901 142.067v-2.212s0-.079.104-.079h1.045s.104 0 .104.079v2.212s0 .079-.104.079h-1.045c-.104 0-.209 0-.104-.079z"/><path fill="#efefef" d="M102.842 175.943v-6.483l94.526-.515v6.998c0 10.352-21.122 18.717-47.263 18.717s-47.263-8.47-47.263-18.717z"/><ellipse cx="150.105" cy="169.46" fill="#d6d6d6" rx="47.263" ry="18.717"/><path fill="#3f3f3f" d="M193.604 170.178c0 6.689-19.449 14.194-43.499 14.194s-43.499-7.506-43.499-14.194v-26.756H193.5v8.793z"/><path fill="#fff" d="M106.584 164.225v5.856c7.215 6.587 24.05 11.293 43.499 11.293 19.553 0 36.306-4.621 43.521-11.313l-.022-5.836c-7.215 6.692-23.945 11.293-43.499 11.293-19.449 0-36.283-4.705-43.499-11.293z"/><path fill="#fff" d="M106.584 153.671v5.856c7.215 6.587 24.05 11.293 43.499 11.293 19.553 0 36.284-4.601 43.499-11.293v-5.856c-7.215 6.692-23.945 11.293-43.499 11.293-19.449 0-36.283-4.706-43.499-11.293z"/><path fill="#efefef" d="M102.842 143.528v-7.11h94.526v7.11c0 10.352-21.122 18.717-47.263 18.717s-47.263-8.47-47.263-18.717z"/><path fill="#4c4c4c" d="M152.091 158.69v.732h-3.764v-.732a1.875 1.875 0 0 1 1.867-1.882h.015c.942-.001 1.882.837 1.882 1.882z"/><circle cx="150.105" cy="159.422" r="1.882" fill="#606060"/><path fill="#4c4c4c" d="M151.987 191.134v.732h-3.764v-.732a1.875 1.875 0 0 1 1.867-1.882h.015c.941-.001 1.882.836 1.882 1.882z"/><circle cx="150.105" cy="191.628" r="1.882" fill="#606060"/><path fill="#4c4c4c" d="M120.095 153.984c0 .836-1.045 1.882-1.882 1.882-.836 0-1.568-.732-1.568-1.673s1.045-1.882 1.882-1.882c.836.105 1.568.732 1.568 1.673z"/><ellipse cx="118.212" cy="154.298" fill="#606060" rx="1.568" ry="1.568"/><path fill="#4c4c4c" d="M120.095 187.131c0 .836-1.045 1.882-1.882 1.882-.836 0-1.568-.732-1.568-1.673s1.045-1.882 1.882-1.882c.836.105 1.568.837 1.568 1.673z"/><ellipse cx="118.212" cy="187.445" fill="#606060" rx="1.568" ry="1.568"/><path fill="#4c4c4c" d="M180.167 186.295c0 .836 1.045 1.882 1.882 1.882s1.568-.732 1.568-1.673-1.045-1.882-1.882-1.882c-.836 0-1.568.836-1.568 1.673z"/><ellipse cx="182.049" cy="186.609" fill="#606060" rx="1.568" ry="1.568"/><path fill="#4c4c4c" d="M180.219 153.984c0 .836 1.045 1.882 1.882 1.882s1.568-.732 1.568-1.673-1.045-1.882-1.882-1.882-1.568.732-1.568 1.673z"/><ellipse cx="182.102" cy="154.298" fill="#606060" rx="1.568" ry="1.568"/><ellipse cx="150.105" cy="137.15" fill="#fff" rx="47.263" ry="18.717"/><path fill="#606060" d="M118.318 188.177c-.627 0-1.045-.31-1.045-.774v-33.586c0-.464.419-.774 1.045-.774.627 0 1.045.31 1.045.774v33.586c0 .465-.419.774-1.045.774zm31.787 5.36c-.627 0-1.045-.304-1.045-.759v-32.937c0-.456.419-.759 1.045-.759.627 0 1.045.304 1.045.759v32.937c.001.455-.418.759-1.045.759zm31.892-6.615c-.627 0-1.045-.298-1.045-.746V153.79c0-.448.419-.746 1.045-.746.627 0 1.045.298 1.045.746v32.386c0 .448-.522.746-1.045.746z"/><path fill="#3f3f3f" d="M170.117 129.112s-5.417 4.392-19.967 4.544-20.058-4.124-20.058-4.124l5.361-20.98c.532-2.08 3.26-3.406 5.972-2.902l8.448 1.57 8.413-1.748c2.701-.561 5.456.707 6.031 2.776z"/><path fill="#3f3f3f" d="M180.869 130.318c0 3.297-13.714 9.876-30.763 9.876s-30.976-6.579-30.976-9.876 13.821-5.97 30.869-5.97 30.87 2.673 30.87 5.97z"/><path fill="#d6d6d6" d="M131.097 125.599l-1.005 3.933s5.994 4.456 20.058 4.124c14.063-.332 18.083-3.522 19.967-4.544l-.966-3.476c-.001 0-18.063 7.11-38.054-.037z"/></svg>