<?xml version="1.0" encoding="utf-8"?>
<!-- Generator: Adobe Illustrator 25.3.1, SVG Export Plug-In . SVG Version: 6.00 Build 0)  -->
<svg version="1.1" id="Camada_1" xmlns="http://www.w3.org/2000/svg" xmlns:xlink="http://www.w3.org/1999/xlink" x="0px" y="0px"
	 viewBox="0 0 300 300" style="enable-background:new 0 0 300 300;" xml:space="preserve">
<style type="text/css">
	.st0{fill:#FFFFFF;}
	.st1{fill:#5EC2D7;}
	.st2{fill:#EFEFEF;}
	.st3{fill:#C9C9C9;}
	.st4{fill:#FFB031;}
	.st5{fill:#F2A12C;}
	.st6{fill:#E59623;}
	.st7{fill:#565656;}
	.st8{fill:#E28A0C;}
	.st9{fill:#E2E2E2;}
	.st10{fill:#4C4C4C;}
	.st11{fill:#606060;}
</style>
<circle class="st0" cx="150" cy="150" r="150"/>
<circle class="st1" cx="150" cy="150" r="140.8"/>
<path class="st2" d="M75.4,145.3l-0.3-5.2c0-0.2-0.1-0.3-0.2-0.3h-1.6c-0.1,0-0.2,0.1-0.2,0.3l-0.3,5.2c0,0.2,0.1,0.3,0.2,0.3
	s0.3,0.1,0.3,0.3v25.4c0,0.2,0.1,0.3,0.3,0.3h1.1c0.1,0,0.3-0.1,0.3-0.3v-25.4c0-0.2,0.1-0.3,0.3-0.3
	C75.3,145.6,75.4,145.4,75.4,145.3z"/>
<path class="st3" d="M73.9,169.8c0.1-0.1,0.1-0.2,0.1-0.3v-24.3c0,0-0.1-0.3-0.3-0.3c-0.1,0-0.1-0.2-0.1-0.3l0.2-4.1l-0.5,0.1
	l-0.2,4.4c0,0.1,0,0.2,0.2,0.2s0.3,0,0.3,0.3v24.6L73.9,169.8L73.9,169.8z"/>
<path class="st4" d="M79.1,201v-16.2c0-2.5-0.5-5.1-1.4-7.4l-1.5-4h1c0.4,0,0.8-0.4,0.8-0.8l-1.2-1.5c0-0.4,0.1,0-0.3,0l-4.3,0.2
	c-0.4,0-1.7-0.3-1.7,0.1v1.2c0,0.4,0.4,0.8,0.8,0.8h0.6l-1.5,4c-0.9,2.4-1.4,4.9-1.4,7.4v16.7c0,2.8,2.3,5,5.1,5s5.1-2.3,5.1-5.1
	C79.1,201.3,79.1,201.1,79.1,201z M75.2,195.6c0,0.6-0.5,1.1-1.1,1.1s-1.1-0.5-1.1-1.1v-2.8c0-0.6,0.5-1.1,1.1-1.1s1.1,0.5,1.1,1.1
	V195.6z"/>
<ellipse class="st4" cx="74.2" cy="173.5" rx="4.3" ry="0.9"/>
<path class="st4" d="M69.9,173.5v-3c0,0,1-1.4,4.1-1.4s4.5,1.2,4.5,1.2l0.1,3.2"/>
<path class="st5" d="M74.1,206.6v-9.8c0,0-1.1,0-1.1-1.1v-2.8c0,0-0.1-1,1.1-1.1v-22.6c0,0-3-0.3-4.2,1.4v3c0,0,0,0.5,1.7,0.7
	c0,0-2.7,5.7-2.6,10.6v16.7C69,201.6,69,206.3,74.1,206.6L74.1,206.6z"/>
<ellipse class="st6" cx="74.1" cy="204.4" rx="3" ry="1.8"/>
<path class="st2" d="M94.8,131.8l-0.3-6.3c0-0.2-0.1-0.3-0.3-0.3h-1.9c-0.2,0-0.3,0.2-0.3,0.3l-0.3,6.3c0,0.2,0.1,0.4,0.3,0.4
	c0.2,0,0.3,0.2,0.3,0.4v31c0,0.2,0.1,0.4,0.3,0.4H94c0.2,0,0.3-0.2,0.3-0.4v-31c0-0.2,0.1-0.4,0.3-0.4
	C94.7,132.2,94.8,132,94.8,131.8z"/>
<path class="st3" d="M92.9,161.8c0.1-0.1,0.2-0.2,0.2-0.4v-29.7c0,0-0.1-0.4-0.3-0.4c-0.2,0-0.1-0.2-0.1-0.4l0.2-5l-0.6,0.2
	l-0.3,5.3c0,0.2,0.1,0.2,0.2,0.2c0.2,0,0.4,0,0.4,0.3v30C92.6,161.9,92.8,161.9,92.9,161.8L92.9,161.8z"/>
<path class="st4" d="M99.3,199.7V180c0-3.1-0.6-6.2-1.7-9.1l-1.9-4.9h1.2c0.5,0,1-0.4,1-1l-1.4-1.8c0-0.6,0.1,0-0.4,0l-5.2,0.3
	c-0.5,0-2.1-0.4-2.1,0.2v1.4c0,0.5,0.4,1,1,1h0.8l-1.9,4.9c-1.1,2.9-1.7,6-1.7,9.1v20.4c0,3.4,2.8,6.1,6.2,6.1
	c3.4,0,6.2-2.8,6.2-6.2C99.4,200.2,99.3,199.9,99.3,199.7z M94.5,193.2c0,0.8-0.6,1.4-1.4,1.4s-1.4-0.6-1.4-1.4v-3.4
	c0-0.8,0.6-1.4,1.4-1.4s1.4,0.6,1.4,1.4V193.2z"/>
<ellipse class="st4" cx="93.3" cy="166.2" rx="5.3" ry="1.2"/>
<path class="st4" d="M88.1,166.2v-3.6c0,0,1.2-1.8,5-1.7s5.5,1.5,5.5,1.5l0.1,3.8"/>
<path class="st5" d="M93.2,206.6v-12c0,0-1.3,0.1-1.4-1.4v-3.4c0,0-0.1-1.2,1.4-1.4v-27.6c0,0-3.6-0.3-5.1,1.7v3.7
	c0,0,0,0.6,2.1,0.9c0,0-3.3,7-3.1,12.9v20.4C87,200.4,87,206.2,93.2,206.6L93.2,206.6z"/>
<ellipse class="st6" cx="93.2" cy="204.4" rx="3" ry="1.8"/>
<path class="st2" d="M117.2,110.9l-0.4-8.1c0-0.3-0.2-0.4-0.4-0.4h-2.5c-0.2,0-0.4,0.2-0.4,0.4l-0.4,8.1c0,0.3,0.2,0.5,0.4,0.5
	s0.4,0.2,0.4,0.5v39.6c0,0.3,0.2,0.5,0.4,0.5h1.7c0.2,0,0.4-0.2,0.4-0.5v-39.6c0-0.3,0.2-0.5,0.4-0.5
	C117.1,111.4,117.2,111.2,117.2,110.9L117.2,110.9z"/>
<path class="st3" d="M114.8,149.3c0.1-0.1,0.2-0.3,0.2-0.4v-38c0,0-0.1-0.5-0.4-0.5c-0.2,0-0.1-0.3-0.1-0.5l0.3-6.4l-0.7,0.2
	l-0.4,6.8c0,0.2,0.1,0.3,0.3,0.3s0.5,0,0.5,0.4c0.1,0.7,0,38.4,0,38.4S114.7,149.5,114.8,149.3L114.8,149.3z"/>
<path class="st4" d="M123,197.8v-25.2c0-4-0.7-7.9-2.1-11.6l-2.4-6.2h1.5c0.7,0,1.3-0.6,1.3-1.3l-1.8-2.3c0-0.7,0.2,0-0.5,0
	l-6.7,0.3c-0.7,0-2.7-0.5-2.7,0.2v1.8c0,0.7,0.6,1.3,1.3,1.3h1l-2.4,6.2c-1.4,3.7-2.1,7.6-2.1,11.6v26.1c0.1,4.3,3.6,7.8,7.9,7.8
	c4.4,0,7.9-3.5,7.9-7.9C123.1,198.4,123,198.1,123,197.8L123,197.8z M116.9,189.5c0,1-0.8,1.7-1.7,1.7s-1.7-0.8-1.7-1.7v-4.4
	c0-1,0.8-1.7,1.7-1.7s1.7,0.8,1.7,1.7V189.5z"/>
<ellipse class="st4" cx="115.4" cy="154.9" rx="6.8" ry="1.5"/>
<path class="st4" d="M108.6,154.9v-4.7c0,0,1.5-2.3,6.3-2.2c4.8,0.1,7.1,1.9,7.1,1.9l0.1,4.9"/>
<path class="st5" d="M115.2,206.6v-15.3c0,0-1.6,0.1-1.7-1.7v-4.4c0,0-0.1-1.5,1.7-1.7v-35.3c0,0-4.7-0.4-6.5,2.2v4.7
	c0,0,0,0.8,2.6,1.1c0,0-4.2,8.9-4,16.5v26.1C107.2,198.7,107.3,206.1,115.2,206.6L115.2,206.6z"/>
<ellipse class="st6" cx="115.2" cy="204.4" rx="3" ry="1.8"/>
<g>
	<g>
		<g>
			<g>
				<path class="st7" d="M189.4,103.8v38.9c-0.7,0-1.4,0-2.1,0h-0.7v-38.9c0-1,0.6-1.8,1.4-1.8C188.8,101.9,189.4,102.8,189.4,103.8
					z"/>
				<path class="st4" d="M223.3,122.2c0,2.7-15.4,7.4-34.3,7.4s-34.3-4.6-34.3-7.4s15.4-5,34.3-5S223.3,119.5,223.3,122.2z"/>
				<path class="st8" d="M223.3,122.1c0,2.7-15.4,6-34.3,6s-34.3-3.2-34.3-6s15.3-6.3,34.3-6.3S223.3,119.4,223.3,122.1z"/>
				<path class="st4" d="M223.3,120.2c0,2.7-15.4,5-34.3,5s-34.3-2.3-34.3-5c0-2.7,22.4-5.6,34.3-5.6
					C196.2,114.6,223.3,117.4,223.3,120.2z"/>
				<path class="st4" d="M203.6,116c0,2.2-7,3.8-15.5,3.8c-8.5,0-15.5-1.7-15.5-3.8c0-2.2,7-5,15.5-5
					C196.6,111,203.6,113.8,203.6,116z"/>
			</g>
			<g>
				<g>
					<g>
						<path class="st9" d="M238.1,189.1h-98.3h-2v4.7c0,9.4,22.9,17,51.1,17s51.1-7.6,51.1-17v-4.7H238.1z"/>
						<ellipse class="st0" cx="189" cy="189.1" rx="51.1" ry="17"/>
					</g>
					<polygon class="st6" points="236.9,187.6 189,187.6 141.1,187.6 141.1,159.8 236.9,159.8 					"/>
					<ellipse class="st8" cx="189" cy="187.6" rx="47.9" ry="15.9"/>
					<g>
						<path class="st9" d="M238.1,155.1h-98.3h-2v4.7c0,9.4,22.9,17,51.1,17s51.1-7.6,51.1-17v-4.7H238.1z"/>
						<path class="st0" d="M240.1,155.1c0,0.1,0,0.1,0,0.1c0,2-1.2,4-3.2,5.8c-2.5,2.2-6.3,4.2-11.2,5.9c-0.2,0.1-0.4,0.1-0.6,0.2h0
							c-0.2,0.1-0.3,0.1-0.5,0.2c-0.4,0.1-0.7,0.2-1.1,0.3c-0.2,0.1-0.4,0.1-0.6,0.2c-0.1,0-0.1,0-0.2,0.1c-7,2-15.6,3.4-25.2,4
							c-2.6,0.1-5.3,0.2-8.1,0.2H189c-0.8,0-1.6,0-2.4,0c-2.1,0-4.1-0.1-6.1-0.2c-18.2-1-33.1-5.2-39.4-10.8
							c-2.1-1.8-3.2-3.9-3.2-5.9c0-6.2,9.9-11.6,24.7-14.6c7.1-1.4,15.3-2.3,24.1-2.4c0.8,0,1.6,0,2.4,0h0.4c8.7,0,16.8,0.8,23.9,2
							C229.2,143,240.1,148.7,240.1,155.1z"/>
					</g>
				</g>
				<g>
					<g>
						<path class="st10" d="M190.6,208.2v0.6h-3.4v-0.6c0-0.9,0.8-1.7,1.7-1.7S190.6,207.2,190.6,208.2z"/>
					</g>
					<g>
						<path class="st7" d="M189,208.5c-0.6,0-1-0.4-1-0.9v-33.3c0-0.5,0.5-0.9,1-0.9s1,0.4,1,0.9v33.3
							C190,208.1,189.5,208.5,189,208.5z"/>
					</g>
					<g>
						<path class="st10" d="M190.6,174.2v0.6h-3.4v-0.6c0-0.9,0.8-1.7,1.7-1.7S190.6,173.3,190.6,174.2z"/>
					</g>
					<circle class="st11" cx="189" cy="174.9" r="1.7"/>
					<path class="st10" d="M191,201.1h-4.1c-1.7,0-3.1-1.4-3.1-3.1v-12c0-1.7,1.4-3.1,3.1-3.1h4.1c1.7,0,3.1,1.4,3.1,3.1v12
						C194.1,199.7,192.7,201.1,191,201.1z"/>
					<path class="st11" d="M190.3,198.7h-2.8c-1.2,0-2.1-1-2.1-2.1v-9.1c0-1.2,1-2.1,2.1-2.1h2.8c1.2,0,2.1,1,2.1,2.1v9.1
						C192.5,197.7,191.5,198.7,190.3,198.7z"/>
					<circle class="st11" cx="189" cy="208.8" r="1.7"/>
				</g>
				<g>
					<g>
						<path class="st10" d="M155.3,203.6v0.6H152v-0.6c0-0.9,0.8-1.7,1.7-1.7S155.3,202.7,155.3,203.6z"/>
					</g>
					<g>
						<path class="st7" d="M153.7,203.9c-0.6,0-1-0.4-1-0.9v-33.3c0-0.5,0.5-0.9,1-0.9c0.6,0,1,0.4,1,0.9v33.3
							C154.7,203.5,154.2,203.9,153.7,203.9z"/>
					</g>
					<g>
						<path class="st10" d="M155.3,169.6v0.6H152v-0.6c0-0.9,0.8-1.7,1.7-1.7S155.3,168.7,155.3,169.6z"/>
					</g>
					<circle class="st11" cx="153.7" cy="170.3" r="1.7"/>
					<path class="st10" d="M155.7,196.6h-4.1c-1.7,0-3.1-1.4-3.1-3.1v-12c0-1.7,1.4-3.1,3.1-3.1h4.1c1.7,0,3.1,1.4,3.1,3.1v12
						C158.8,195.1,157.4,196.6,155.7,196.6z"/>
					<path class="st11" d="M155,194.1h-2.8c-1.2,0-2.1-1-2.1-2.1v-9.1c0-1.2,1-2.1,2.1-2.1h2.8c1.2,0,2.1,1,2.1,2.1v9.1
						C157.2,193.1,156.2,194.1,155,194.1z"/>
					<circle class="st11" cx="153.7" cy="204.2" r="1.7"/>
				</g>
				<g>
					<g>
						<path class="st10" d="M226,202v0.6h-3.4V202c0-0.9,0.8-1.7,1.7-1.7S226,201,226,202z"/>
					</g>
					<g>
						<path class="st7" d="M224.3,202.3c-0.6,0-1-0.4-1-0.9v-33.3c0-0.5,0.5-0.9,1-0.9s1,0.4,1,0.9v33.3
							C225.4,201.9,224.9,202.3,224.3,202.3z"/>
					</g>
					<g>
						<path class="st10" d="M226,168v0.6h-3.4V168c0-0.9,0.8-1.7,1.7-1.7S226,167.1,226,168z"/>
					</g>
					<circle class="st11" cx="224.3" cy="168.7" r="1.7"/>
					<path class="st10" d="M226.4,194.9h-4.1c-1.7,0-3.1-1.4-3.1-3.1v-12c0-1.7,1.4-3.1,3.1-3.1h4.1c1.7,0,3.1,1.4,3.1,3.1v12
						C229.5,193.5,228.1,194.9,226.4,194.9z"/>
					<path class="st11" d="M225.7,192.5h-2.8c-1.2,0-2.1-1-2.1-2.1v-9.1c0-1.2,1-2.1,2.1-2.1h2.8c1.2,0,2.1,1,2.1,2.1v9.1
						C227.8,191.5,226.9,192.5,225.7,192.5z"/>
					<circle class="st11" cx="224.3" cy="202.6" r="1.7"/>
				</g>
				<circle class="st4" cx="171.3" cy="189.4" r="4"/>
				<path class="st4" d="M141.1,174.4c2.2,0,4,1.8,4,4s-1.8,4-4,4V174.4z"/>
				<path class="st4" d="M236.9,182.4c-2.2,0-4-1.8-4-4s1.8-4,4-4V182.4z"/>
				<circle class="st4" cx="206.6" cy="189.4" r="4"/>
			</g>
		</g>
		<path class="st9" d="M214.3,140.2c-3.8,1.4-13,2.4-23.9,2.5c-0.7,0-1.4,0-2.1,0h-0.7c-10.5,0-19.5-0.9-24.1-2.1
			c7.1-1.4,15.3-2.3,24.1-2.4c0.8,0,1.6,0,2.4,0h0.4C199.1,138.1,207.2,138.9,214.3,140.2z"/>
		<g>
			<path class="st9" d="M186.9,158.4c-0.6-0.3-1.2-0.5-1.9-0.7c-1.9-0.4-3.7-0.1-5,0.7c-0.3,0.2-0.6,0.4-0.8,0.6l-2.5-0.6l-32.7-8.1
				c-2.5,1.5-4.3,3.2-5.3,5l16.8,3.1l23,4.2c0.1,0.2,0.1,0.3,0.2,0.5c0.8,1.4,2.4,2.6,4.6,3c3.3,0.7,6.3-0.6,6.8-2.9
				c0,0,0-0.1,0-0.1C190.3,161.3,189,159.4,186.9,158.4z M239.3,155.4l-37.9-6.9c-0.6-1.6-2.4-2.9-4.6-3.4c-3.1-0.7-6.1,0.6-6.5,2.8
				c-0.5,2.2,1.7,4.6,4.8,5.3c2.3,0.5,4.4-0.1,5.6-1.2l26.5,6.5l12.2,3l0.8,0.2v-3.2C240.1,157.4,239.8,156.3,239.3,155.4z"/>
			<path class="st8" d="M185,156.8c-2.3-0.5-4.6,0.1-5.8,1.3l-47-11.6c-1.8-0.4-3.6,0.7-4,2.4c-0.4,1.8,0.7,3.6,2.4,4
				c0.1,0,0.1,0,0.2,0l47.6,8.7c0.6,1.6,2.4,3,4.8,3.5c3.3,0.7,6.3-0.6,6.8-2.9C190.5,160,188.3,157.5,185,156.8L185,156.8z
				 M195.1,152.2c2.3,0.5,4.4-0.1,5.6-1.2l45.3,11.1c1.7,0.4,3.4-0.7,3.8-2.4c0.4-1.7-0.7-3.4-2.4-3.8c0,0-0.1,0-0.1,0l-45.9-8.4
				c-0.6-1.6-2.4-2.9-4.6-3.4c-3.1-0.7-6.1,0.6-6.5,2.8C189.8,149.2,191.9,151.5,195.1,152.2z"/>
		</g>
	</g>
</g>
</svg>
