<?xml version="1.0" encoding="utf-8"?>
<!-- Generator: Adobe Illustrator 23.0.0, SVG Export Plug-In . SVG Version: 6.00 Build 0)  -->
<svg version="1.0" id="Camada_1" xmlns="http://www.w3.org/2000/svg" xmlns:xlink="http://www.w3.org/1999/xlink" x="0px" y="0px"
	 viewBox="0 0 300 300" enable-background="new 0 0 300 300" xml:space="preserve">
<ellipse fill="#FFFFFF" cx="150" cy="150" rx="150" ry="150"/>
<circle fill="#5EC2D7" cx="150.002" cy="150" r="140.812"/>
<path fill="#565656" d="M214.826,175.463c-0.414,0-0.691-0.216-0.691-0.539v-46.257c0-0.323,0.276-0.539,0.691-0.539
	s0.691,0.216,0.691,0.539v46.257C215.517,175.247,215.103,175.463,214.826,175.463z"/>
<path fill="#3F3F3F" d="M216.484,176.002h-1.52c-0.138,0-0.276-0.108-0.276-0.216v-4.313c0,0,2.072,0.539,2.072,0.97v3.343
	C216.899,175.894,216.76,176.002,216.484,176.002z"/>
<path fill="#4C4C4C" d="M216.622,176.11h-1.658c-0.138,0-0.276-0.108-0.276-0.216v-3.45c0-0.108,0.138-0.216,0.276-0.216h1.658
	c0.138,0,0.276,0.108,0.276,0.216v3.45C216.899,176.002,216.76,176.11,216.622,176.11z"/>
<path fill="#3F3F3F" d="M216.346,131.039h-1.243c-0.138,0-0.276-0.108-0.276-0.216v-5.068c0,0,1.796,0,1.796,2.157v2.911
	C216.622,130.931,216.484,131.039,216.346,131.039L216.346,131.039z"/>
<path fill="#4C4C4C" d="M216.346,131.147h-1.381c-0.138,0-0.138-0.108-0.138-0.108v-3.019c0-0.108,0.138-0.108,0.138-0.108h1.381
	c0.138,0,0.138,0.108,0.138,0.108v3.019C216.622,131.147,216.484,131.147,216.346,131.147z"/>
<path fill="#565656" d="M90.325,174.327V129.54c0-0.313,0.276-0.522,0.691-0.522c0.414,0,0.691,0.209,0.691,0.522v44.786
	c0,0.313-0.276,0.522-0.691,0.522C90.74,174.849,90.325,174.64,90.325,174.327z"/>
<path fill="#3F3F3F" d="M89.114,174.196v-3.236c0-0.418,2.072-0.94,2.072-0.94v4.176c0,0.104-0.138,0.209-0.276,0.209h-1.52
	C89.114,174.405,88.976,174.3,89.114,174.196L89.114,174.196z"/>
<path fill="#4C4C4C" d="M88.976,174.3v-3.341c0-0.104,0.138-0.209,0.276-0.209h1.658c0.138,0,0.276,0.104,0.276,0.209v3.341
	c0,0.104-0.138,0.209-0.276,0.209h-1.658C89.114,174.509,88.976,174.405,88.976,174.3z"/>
<path fill="#3F3F3F" d="M89.253,130.662v-2.819c0-2.088,1.796-2.088,1.796-2.088v4.907c0,0.104-0.138,0.209-0.276,0.209H89.53
	C89.391,130.871,89.253,130.767,89.253,130.662z"/>
<path fill="#4C4C4C" d="M89.391,130.871v-2.923c0,0,0-0.104,0.138-0.104h1.381c0,0,0.138,0,0.138,0.104v2.923
	c0,0,0,0.104-0.138,0.104h-1.381C89.391,130.975,89.253,130.975,89.391,130.871z"/>
<path fill="#EFEFEF" d="M90.634,175.626v-8.565l124.883-0.681v9.246c0,13.676-27.905,24.728-62.442,24.728
	S90.634,189.164,90.634,175.626z"/>
<ellipse fill="#D6D6D6" cx="153.076" cy="167.061" rx="62.442" ry="24.728"/>
<path fill="#57DD50" d="M210.544,168.01c0,8.837-25.695,18.753-57.468,18.753s-57.468-9.917-57.468-18.753v-35.348h114.799v11.617
	L210.544,168.01z"/>
<path fill="#FFFFFF" d="M95.578,160.145v7.736c9.532,8.703,31.773,14.92,57.468,14.92c25.833,0,47.965-6.105,57.497-14.946
	l-0.029-7.71c-9.532,8.841-31.635,14.92-57.468,14.92C127.352,175.065,105.111,168.849,95.578,160.145L95.578,160.145z"/>
<path fill="#FFFFFF" d="M95.578,146.201v7.736c9.532,8.703,31.773,14.92,57.468,14.92c25.833,0,47.936-6.078,57.468-14.92v-7.736
	c-9.532,8.841-31.635,14.92-57.468,14.92C127.352,161.121,105.111,154.904,95.578,146.201L95.578,146.201z"/>
<path fill="#EFEFEF" d="M90.634,132.801v-9.394h124.883v9.394c0,13.676-27.905,24.728-62.442,24.728S90.634,146.339,90.634,132.801z
	"/>
<path fill="#4C4C4C" d="M155.7,152.832v0.967h-4.973v-0.967c-0.006-1.368,1.099-2.481,2.467-2.487c0,0,0,0,0,0h0.02
	C154.457,150.345,155.7,151.451,155.7,152.832L155.7,152.832z"/>
<circle fill="#606060" cx="153.076" cy="153.799" r="2.487"/>
<path fill="#4C4C4C" d="M155.562,195.695v0.967h-4.973v-0.967c-0.006-1.368,1.099-2.481,2.467-2.487c0,0,0,0,0,0h0.02
	C154.319,193.208,155.562,194.313,155.562,195.695L155.562,195.695z"/>
<circle fill="#606060" cx="153.076" cy="196.348" r="2.487"/>
<path fill="#4C4C4C" d="M113.428,146.615c0,1.105-1.381,2.487-2.487,2.487c-1.105,0-2.072-0.967-2.072-2.21s1.381-2.487,2.487-2.487
	C112.461,144.543,113.428,145.372,113.428,146.615z"/>
<ellipse fill="#606060" cx="110.941" cy="147.03" rx="2.072" ry="2.072"/>
<path fill="#4C4C4C" d="M113.428,190.407c0,1.105-1.381,2.487-2.487,2.487c-1.105,0-2.072-0.967-2.072-2.21s1.381-2.487,2.487-2.487
	C112.461,188.335,113.428,189.302,113.428,190.407z"/>
<ellipse fill="#606060" cx="110.941" cy="190.822" rx="2.072" ry="2.072"/>
<path fill="#4C4C4C" d="M192.792,189.302c0,1.105,1.381,2.487,2.487,2.487s2.072-0.967,2.072-2.21s-1.381-2.487-2.487-2.487
	C193.759,187.092,192.792,188.197,192.792,189.302z"/>
<ellipse fill="#606060" cx="195.279" cy="189.717" rx="2.072" ry="2.072"/>
<path fill="#4C4C4C" d="M192.861,146.615c0,1.105,1.381,2.487,2.487,2.487s2.072-0.967,2.072-2.21s-1.381-2.487-2.487-2.487
	S192.861,145.372,192.861,146.615z"/>
<ellipse fill="#606060" cx="195.348" cy="147.03" rx="2.072" ry="2.072"/>
<ellipse fill="#FFFFFF" cx="153.076" cy="124.374" rx="62.442" ry="24.728"/>
<path fill="#606060" d="M111.08,191.789c-0.829,0-1.381-0.409-1.381-1.022v-44.372c0-0.613,0.553-1.022,1.381-1.022
	c0.829,0,1.381,0.409,1.381,1.022v44.372C112.461,191.38,111.908,191.789,111.08,191.789z M153.076,198.87
	c-0.829,0-1.381-0.401-1.381-1.003v-43.514c0-0.602,0.553-1.003,1.381-1.003s1.381,0.401,1.381,1.003v43.514
	C154.457,198.469,153.904,198.87,153.076,198.87L153.076,198.87z M195.21,190.131c-0.829,0-1.381-0.394-1.381-0.986v-42.787
	c0-0.592,0.553-0.986,1.381-0.986c0.829,0,1.381,0.394,1.381,0.986v42.787C196.591,189.737,195.901,190.131,195.21,190.131z
	 M144.706,116.878c-3.135-0.669-6.101,0.077-7.769,1.703l-62.81-15.458c-2.361-0.587-4.751,0.85-5.338,3.211
	c-0.587,2.361,0.85,4.751,3.211,5.338c0.094,0.023,0.188,0.043,0.283,0.061l63.627,11.645c0.856,2.167,3.261,4.063,6.399,4.732
	c4.344,0.927,8.401-0.836,9.064-3.938C152.034,121.071,149.049,117.805,144.706,116.878L144.706,116.878z M158.125,110.699
	c3.018,0.644,5.874-0.075,7.48-1.64l60.474,14.883c2.279,0.539,4.563-0.872,5.102-3.151c0.539-2.279-0.872-4.563-3.151-5.102
	c-0.058-0.014-0.117-0.026-0.175-0.038l-61.262-11.212c-0.824-2.087-3.14-3.911-6.161-4.556c-4.182-0.893-8.089,0.805-8.727,3.792
	C151.07,106.662,153.944,109.806,158.125,110.699z"/>
</svg>
