<svg enable-background="new 0 0 300 300" viewBox="0 0 300 300" xmlns="http://www.w3.org/2000/svg"><ellipse cx="150" cy="150" fill="#fff" rx="150" ry="150"/><circle cx="150" cy="150" fill="#86bf5a" r="140.8"/><path d="m113 141.9c-.8 0-1.4-.7-1.4-1.5v-76c0-.8.6-1.5 1.4-1.5s1.4.7 1.4 1.5v76c0 .8-.6 1.5-1.4 1.5z" fill="#565656"/><path d="m149 83.6c0 2.8-15.7 7.5-35 7.5s-35-4.7-35-7.5 15.7-5.1 35-5.1 35 2.3 35 5.1z" fill="#ffb031"/><path d="m149 83.5c0 2.8-15.7 6.1-35 6.1s-35-3.3-35-6.1 15.6-6.4 35-6.4 35 3.6 35 6.4z" fill="#e28a0c"/><path d="m149 81.5c0 2.8-15.7 5.1-35 5.1s-35-2.3-35-5.1 22.8-5.7 35-5.7c7.4 0 35 2.9 35 5.7z" fill="#ffb031"/><path d="m128.9 77.2c0 2.2-7.1 3.9-15.8 3.9s-15.8-1.7-15.8-3.9 7.1-5.1 15.8-5.1 15.8 2.9 15.8 5.1z" fill="#ffb031"/><g fill="#565656"><ellipse cx="113" cy="66.2" rx="1.4" ry=".5"/><ellipse cx="113" cy="72.1" rx="1.4" ry=".3"/><path d="m194.8 172c-.3 0-.5-.2-.5-.5v-42.9c0-.3.2-.5.5-.5s.5.2.5.5v42.9c0 .3-.3.5-.5.5z"/></g><path d="m196 172.5h-1.1c-.1 0-.2-.1-.2-.2v-3.1-.9s1.5.5 1.5.9v3.1c.1.1 0 .2-.2.2z" fill="#3f3f3f"/><path d="m196.1 172.6h-1.2c-.1 0-.2-.1-.2-.2v-3.2c0-.1.1-.2.2-.2h1.2c.1 0 .2.1.2.2v3.2c0 .1-.1.2-.2.2z" fill="#4c4c4c"/><path d="m195.9 130.8h-.9c-.1 0-.2-.1-.2-.2v-2.7-2s1.3 0 1.3 2v2.7c0 .1-.1.2-.2.2z" fill="#3f3f3f"/><path d="m195.9 130.9h-1c-.1 0-.1-.1-.1-.1v-2.8c0-.1.1-.1.1-.1h1c.1 0 .1.1.1.1v2.8c.1.1 0 .1-.1.1z" fill="#4c4c4c"/><path d="m104.7 171.5v-42.9c0-.3.2-.5.5-.5s.5.2.5.5v42.9c0 .3-.2.5-.5.5-.2 0-.5-.2-.5-.5z" fill="#565656"/><path d="m103.8 172.3v-3.1c0-.4 1.5-.9 1.5-.9v.9 3.1c0 .1-.1.2-.2.2h-1.1c-.2 0-.3-.1-.2-.2z" fill="#3f3f3f"/><path d="m103.7 172.4v-3.2c0-.1.1-.2.2-.2h1.2c.1 0 .2.1.2.2v3.2c0 .1-.1.2-.2.2h-1.2c-.1 0-.2-.1-.2-.2z" fill="#4c4c4c"/><path d="m103.9 130.6v-2.7c0-2 1.3-2 1.3-2v2 2.7c0 .1-.1.2-.2.2h-.9c-.1 0-.2-.1-.2-.2z" fill="#3f3f3f"/><path d="m104 130.8v-2.8s0-.1.1-.1h1s.1 0 .1.1v2.8s0 .1-.1.1h-1c-.1 0-.2 0-.1-.1z" fill="#4c4c4c"/><path d="m104.9 175.1v-4.7h90.4v4.7c0 9.9-20.2 17.9-45.2 17.9s-45.2-8.1-45.2-17.9z" fill="#efefef"/><ellipse cx="150.1" cy="168.9" fill="#d6d6d6" rx="45.2" ry="17.9"/><path d="m191.7 166.5c0 8.9-18.6 16.2-41.6 16.2s-41.6-7.3-41.6-16.2v-35.6h83.1v11.7z" fill="#d6566e"/><path d="m191.7 130.9v11.7c-6.9 6.4-22.9 10.8-41.6 10.8-18.6 0-34.7-4.5-41.6-10.8v-11.7z" fill="#bc536a"/><path d="m104.9 131v-6.8h90.4v6.8c0 9.9-20.2 17.9-45.2 17.9s-45.2-8.1-45.2-17.9z" fill="#efefef"/><ellipse cx="150.1" cy="124.9" fill="#fff" rx="45.2" ry="17.9"/><g fill="#565656"><path d="m150.1 190.2c-.6 0-1-.4-1-1v-43.4c0-.6.4-1 1-1s1 .4 1 1v43.4c0 .6-.4 1-1 1z"/><path d="m180.6 185.5c-.6 0-1-.4-1-1v-43.4c0-.6.4-1 1-1s1 .4 1 1v43.4c0 .6-.5 1-1 1z"/><path d="m119.7 185.5c-.6 0-1-.4-1-1v-43.4c0-.6.4-1 1-1s1 .4 1 1v43.4c0 .6-.4 1-1 1z"/></g><path d="m152 145.5v.7h-3.6v-.7c0-1 .8-1.8 1.8-1.8.9 0 1.8.8 1.8 1.8z" fill="#4c4c4c"/><circle cx="150.1" cy="146.2" fill="#606060" r="1.8"/><path d="m152 188.9v.7h-3.6v-.7c0-1 .8-1.8 1.8-1.8.9 0 1.8.8 1.8 1.8z" fill="#4c4c4c"/><circle cx="150.1" cy="189.6" fill="#606060" r="1.8"/><path d="m121.4 141c0 .8-1 1.8-1.8 1.8s-1.5-.7-1.5-1.6 1-1.8 1.8-1.8c.8.1 1.5.7 1.5 1.6z" fill="#4c4c4c"/><ellipse cx="119.6" cy="141.3" fill="#606060" rx="1.5" ry="1.5"/><path d="m121.4 184.6c0 .8-1 1.8-1.8 1.8s-1.5-.7-1.5-1.6 1-1.8 1.8-1.8c.8.1 1.5.8 1.5 1.6z" fill="#4c4c4c"/><ellipse cx="119.6" cy="184.9" fill="#606060" rx="1.5" ry="1.5"/><path d="m179.1 184.6c0 .8 1 1.8 1.8 1.8s1.5-.7 1.5-1.6-1-1.8-1.8-1.8-1.5.8-1.5 1.6z" fill="#4c4c4c"/><ellipse cx="180.9" cy="184.9" fill="#606060" rx="1.5" ry="1.5"/><path d="m178.9 141c0 .8 1 1.8 1.8 1.8s1.5-.7 1.5-1.6-1-1.8-1.8-1.8-1.5.7-1.5 1.6z" fill="#4c4c4c"/><ellipse cx="180.7" cy="141.3" fill="#606060" rx="1.5" ry="1.5"/></svg>