<svg xmlns="http://www.w3.org/2000/svg" id="Camada_1" x="0" y="0" version="1.1" viewBox="0 0 511 511" xml:space="preserve"><style>.st0{fill:#fff}.st1{fill:#eb595b}.st27{fill:none;stroke:#565656;stroke-width:2;stroke-linecap:round;stroke-miterlimit:10}.st29{fill:#49484c}.st30{fill:#4e4d4f}.st31{fill:none;stroke:#565656;stroke-linecap:round;stroke-miterlimit:10}.st32{fill:#3f3f3f}.st33{fill:#4c4c4c}.st34{fill:#414044}.st37{fill:#606060}.st38{fill:#9e9e9e}.st39{fill:#eaeaea}</style><ellipse cx="255.5" cy="255.5" class="st0" rx="255.5" ry="255.5" transform="rotate(-45.001 255.494 255.505)"/><circle cx="255.5" cy="255.5" r="239.9" class="st1"/><path fill="#fbbc4b" d="M1465.7 3317.8h-182.8c-5.5 0-10-4.5-10-10V3125c0-5.5 4.5-10 10-10h182.8c5.5 0 10 4.5 10 10v182.8c0 5.5-4.5 10-10 10z"/><path fill="#5ec2d7" d="M1919.9 3317.8h-182.8c-5.5 0-10-4.5-10-10V3125c0-5.5 4.5-10 10-10h182.8c5.5 0 10 4.5 10 10v182.8c0 5.5-4.5 10-10 10z"/><path fill="#86bf5a" d="M2374 3317.8h-182.8c-5.5 0-10-4.5-10-10V3125c0-5.5 4.5-10 10-10H2374c5.5 0 10 4.5 10 10v182.8c0 5.5-4.4 10-10 10z"/><path d="M1011.5 3317.8H828.7c-5.5 0-10-4.5-10-10V3125c0-5.5 4.5-10 10-10h182.8c5.5 0 10 4.5 10 10v182.8c0 5.5-4.5 10-10 10z" class="st1"/><path fill="#fae040" d="M557.3 3317.8H374.5c-5.5 0-10-4.5-10-10V3125c0-5.5 4.5-10 10-10h182.8c5.5 0 10 4.5 10 10v182.8c0 5.5-4.5 10-10 10z"/><path fill="#878787" d="M364.5 3357.6v54.5H383c5.6 0 10-1.2 13.2-3.7 3.2-2.5 4.8-5.9 4.8-10.2 0-2.9-.7-5.2-2-7.1s-3.4-3.1-6.4-3.9v-.3c2.2-.5 4-1.7 5.4-3.6 1.4-1.9 2-4.1 2-6.8 0-4-1.6-7-4.7-8.9-1.4-.8-3.1-1.5-5-1.9h28.9l-15.1 46.4h14.1l2.4-8.9H436l2.3 8.9h14l-15.3-46.4h32.4c-1 .4-2 .9-2.9 1.4-3.5 2-6.1 4.9-8 8.6-1.8 3.7-2.8 8-2.8 12.9 0 7.8 1.9 13.8 5.7 18 3.8 4.1 9.3 6.2 16.4 6.2 5 0 9.5-.9 13.4-2.6v-10.8c-2 .8-4 1.5-5.9 2.1-2 .6-4 .9-6.1.9-6.9 0-10.4-4.6-10.4-13.7 0-4.4.9-7.8 2.6-10.3s4.1-3.7 7.1-3.7c2 0 3.9.3 5.6.8 1.7.6 3.5 1.3 5.2 2.1l3.9-10.1c-1.4-.7-2.9-1.3-4.4-1.7h11.6v46.4h12.9v-15.8l3.8-2.3 9.4 18.1h14.4l-14.7-26.1 14.3-20.3h18.1c-3 1.1-5.7 2.7-7.8 4.8-4.4 4.3-6.5 10.2-6.5 17.8 0 7.8 2 13.9 6 18.1s9.6 6.3 16.9 6.3c6.7 0 12.7-.9 18.3-2.9v-25.5H565v9.9h8.5v7.4c-1.6.4-3.3.6-5.2.6-3.5 0-6.1-1.2-8-3.5-1.8-2.3-2.8-5.7-2.8-10.1 0-4.5 1-8 3.1-10.4 2-2.4 4.9-3.6 8.7-3.6 4.1 0 7.8.8 11.2 2.5l4-10c-1.2-.5-2.5-1-3.9-1.4h14.5v46.4h12.8V3395h3.2l10 17.2h14.5l-13.8-20.6c5.4-3 8-7.2 8-12.7 0-6.9-3.6-11.3-10.7-13.1H651c-2.7 1-5.1 2.6-7 4.6-3.9 4.2-5.9 10.2-5.9 18.1 0 8 2 14 5.9 18.2 4 4.2 9.7 6.3 17.1 6.3 7.5 0 13.3-2.1 17.2-6.2 3.9-4.1 5.9-10.2 5.9-18.2s-1.9-14-5.8-18.2c-1.9-2-4.2-3.5-6.9-4.5h21v27.9c0 6.2 1.7 10.9 5.2 14.3s8.4 5 14.9 5c6.6 0 11.7-1.7 15.2-5.1 3.5-3.4 5.3-8.2 5.3-14.4V3366h10v46.4h11.3v-21.3c0-2.8-.2-6.8-.6-12h.3l17.3 33.4h16.8v-46.4h10.2v46.4h15.3c7.9 0 14-2.1 18.3-6.4 4.3-4.3 6.5-10.4 6.5-18.3 0-7.3-2.1-13-6.2-16.8-2.5-2.4-5.6-4-9.4-4.9h1662.6v-8.1l-2121-.4zm17.3 44.7h-4.5v-9.9h4.2c2 0 3.6.4 4.6 1.3 1.1.8 1.6 2.1 1.6 3.6.1 3.3-1.9 5-5.9 5zm-4.5-19.3v-8.5h3.6c4 0 6 1.3 6 4 0 1.5-.5 2.6-1.5 3.4-1 .8-2.4 1.1-4.3 1.1h-3.8zm45.9 9.8c2-7.4 3.2-12.4 3.8-14.9s1-4.3 1.1-5.4c.2 1.2.7 3.2 1.3 5.9s1.3 5 1.7 6.7l2 7.8-9.9-.1zm94-13.5c-2 2.8-3.3 4.8-3.9 6.1v-19.6h13.2l-9.3 13.5zm93.1 6h-2.4v-10.8h2.5c4.4 0 6.6 1.6 6.6 4.9 0 3.9-2.3 5.9-6.7 5.9zm58.2 13.5c-1.6 2.2-4 3.3-7.2 3.3-6.4 0-9.6-4.6-9.6-13.7 0-9.2 3.2-13.9 9.6-13.9 3.2 0 5.5 1.1 7.1 3.4 1.6 2.3 2.4 5.7 2.4 10.5 0 4.7-.8 8.2-2.3 10.4zm51.8-6.3c0 3.4-.6 5.9-1.8 7.4s-3.1 2.3-5.7 2.3c-2.4 0-4.3-.8-5.5-2.3s-1.9-3.9-1.9-7.3v-26.9h14.9v26.8zm56.9 5.2h-.2l-16.7-32h16.5v20.5c-.1 2.9.1 6.7.4 11.5zm45.3.6c-1.8 2.3-4.7 3.4-8.5 3.4h-2.8v-26.5h3.7c3.5 0 6.1 1 7.8 3.1 1.7 2.1 2.6 5.3 2.6 9.7-.1 4.6-1 8-2.8 10.3z"/><path fill="#d6566e" d="M758 3759.2H575.2c-5.5 0-10-4.5-10-10v-182.8c0-5.5 4.5-10 10-10H758c5.5 0 10 4.5 10 10v182.8c0 5.6-4.5 10-10 10z"/><path fill="#ed6979" d="M656.6 3759.2H473.8c-5.5 0-10-4.5-10-10v-182.8c0-5.5 4.5-10 10-10h182.8c5.5 0 10 4.5 10 10v182.8c0 5.6-4.4 10-10 10z"/><path fill="#ff7182" d="M555.2 3759.2H372.4c-5.5 0-10-4.5-10-10v-182.8c0-5.5 4.5-10 10-10h182.8c5.5 0 10 4.5 10 10v182.8c0 5.6-4.4 10-10 10z"/><path fill="#e59623" d="M1365 3759.2h-182.8c-5.5 0-10-4.5-10-10v-182.8c0-5.5 4.5-10 10-10H1365c5.5 0 10 4.5 10 10v182.8c0 5.6-4.5 10-10 10z"/><path fill="#f2a12c" d="M1263.6 3759.2h-182.8c-5.5 0-10-4.5-10-10v-182.8c0-5.5 4.5-10 10-10h182.8c5.5 0 10 4.5 10 10v182.8c0 5.6-4.5 10-10 10z"/><path fill="#ffb031" d="M1162.2 3759.2H979.4c-5.5 0-10-4.5-10-10v-182.8c0-5.5 4.5-10 10-10h182.8c5.5 0 10 4.5 10 10v182.8c0 5.6-4.5 10-10 10z"/><path fill="#a8a8a8" d="M859.4 4074.5H676.6c-5.5 0-10-4.5-10-10v-182.8c0-5.5 4.5-10 10-10h182.8c5.5 0 10 4.5 10 10v182.8c0 5.5-4.5 10-10 10z"/><path fill="#b7b7b7" d="M758 4074.5H575.2c-5.5 0-10-4.5-10-10v-182.8c0-5.5 4.5-10 10-10H758c5.5 0 10 4.5 10 10v182.8c0 5.5-4.5 10-10 10z"/><path fill="#bfbfbf" d="M656.6 4074.5H473.8c-5.5 0-10-4.5-10-10v-182.8c0-5.5 4.5-10 10-10h182.8c5.5 0 10 4.5 10 10v182.8c0 5.5-4.4 10-10 10z"/><path fill="#c9c9c9" d="M555.2 4074.5H372.4c-5.5 0-10-4.5-10-10v-182.8c0-5.5 4.5-10 10-10h182.8c5.5 0 10 4.5 10 10v182.8c0 5.5-4.4 10-10 10z"/><path fill="#d6d6d6" d="M1466.4 4074.5h-182.8c-5.5 0-10-4.5-10-10v-182.8c0-5.5 4.5-10 10-10h182.8c5.5 0 10 4.5 10 10v182.8c0 5.5-4.5 10-10 10z"/><path fill="#e2e2e2" d="M1365 4074.5h-182.8c-5.5 0-10-4.5-10-10v-182.8c0-5.5 4.5-10 10-10H1365c5.5 0 10 4.5 10 10v182.8c0 5.5-4.5 10-10 10z"/><path fill="#efefef" d="M1263.6 4074.5h-182.8c-5.5 0-10-4.5-10-10v-182.8c0-5.5 4.5-10 10-10h182.8c5.5 0 10 4.5 10 10v182.8c0 5.5-4.5 10-10 10z"/><path d="M1162.2 4074.5H979.4c-5.5 0-10-4.5-10-10v-182.8c0-5.5 4.5-10 10-10h182.8c5.5 0 10 4.5 10 10v182.8c0 5.5-4.5 10-10 10z" class="st0"/><path fill="#5ebcb5" d="M1870.6 3759.2h-182.8c-5.5 0-10-4.5-10-10v-182.8c0-5.5 4.5-10 10-10h182.8c5.5 0 10 4.5 10 10v182.8c0 5.6-4.5 10-10 10z"/><path fill="#6de2de" d="M1769.2 3759.2h-182.8c-5.5 0-10-4.5-10-10v-182.8c0-5.5 4.5-10 10-10h182.8c5.5 0 10 4.5 10 10v182.8c0 5.6-4.5 10-10 10z"/><path fill="#57dd50" d="M1870.6 4074.5h-182.8c-5.5 0-10-4.5-10-10v-182.8c0-5.5 4.5-10 10-10h182.8c5.5 0 10 4.5 10 10v182.8c0 5.5-4.5 10-10 10z"/><path fill="#68f964" d="M1769.2 4074.5h-182.8c-5.5 0-10-4.5-10-10v-182.8c0-5.5 4.5-10 10-10h182.8c5.5 0 10 4.5 10 10v182.8c0 5.5-4.5 10-10 10z"/><path fill="#3d3d3d" d="M2477.5 3759.2h-182.8c-5.5 0-10-4.5-10-10v-182.8c0-5.5 4.5-10 10-10h182.8c5.5 0 10 4.5 10 10v182.8c0 5.6-4.4 10-10 10z"/><path fill="#515151" d="M2376.1 3759.2h-182.8c-5.5 0-10-4.5-10-10v-182.8c0-5.5 4.5-10 10-10h182.8c5.5 0 10 4.5 10 10v182.8c0 5.6-4.4 10-10 10z"/><path fill="#5e5e5e" d="M2274.7 3759.2H2092c-5.5 0-10-4.5-10-10v-182.8c0-5.5 4.5-10 10-10h182.8c5.5 0 10 4.5 10 10v182.8c-.1 5.6-4.5 10-10.1 10z"/><path d="M219.7 194.7v85.2" class="st27"/><path fill="none" stroke="#4e4e4f" stroke-linecap="square" stroke-miterlimit="10" stroke-width="2" d="M219.7 194.7V213"/><path d="M284.5 192.7c-1.4 5.4-6.7 8.9-14.8 10.7-.7.2-1.5.3-2.3.5-.7.1-1.5.2-2.3.3-.2 0-.4.1-.5.1-.7.1-1.4.2-2.2.2-.8.1-1.6.1-2.5.2-2 .1-4 .2-6.2.1-.9 0-1.8 0-2.8-.1-1.1 0-2.2-.1-3.3-.2-1.3-.1-2.5-.2-3.8-.3h-.1l-3.3-.3c-1.1-.1-2.2-.3-3.3-.4-1.5-.2-3-.4-4.6-.7-.9-.1-1.8-.3-2.7-.5-.9-.2-1.8-.3-2.7-.5-4.8-.9-9.6-1.9-14.6-3.2-.3-.1-.7-.2-1-.3-1.8-.5-3.7-1-5.4-1.5-33.1-9.7-57-25.1-53.5-38.6 2.2-8.5 69.5-16.1 69.5-16.1 1.1-.2 2.6-.1 4.1.3.2 0 .3 0 .5.1.2 0 .3.1.5.1l.4.1c.1 0 .2.1.4.1.2.1.4.1.7.2.2.1.4.2.6.2.4.2.8.3 1.2.5.5.3 1 .6 1.4.8-.1.3 54.8 39.6 52.6 48.2z" class="st29"/><path d="M269.7 203.4c-10.5 2.4-25.6 1.8-42.6-1.4l-.5-59.4c.2 0 .3.1.5.1 1.2.3 2.3.7 3.2 1.2l39.4 59.5z" class="st30"/><path d="M227.5 142.8l-.8 2.8-15.2 52.9c-1.8-.5-3.7-1-5.4-1.5l20.1-54.4c.2 0 .3.1.5.1s.3.1.5.1h.3z" class="st30"/><path d="M202.1 332.3v-73.1" class="st31"/><path d="M199.9 334h1.8c.2 0 .4-.2.4-.4v-6.8s-2.6.8-2.6 1.5v5.3c.1.2.2.4.4.4z" class="st32"/><path d="M199.7 334.2h2.2c.1 0 .2-.1.2-.2v-5.7c0-.1-.1-.2-.2-.2h-2.2c-.1 0-.2.1-.2.2v5.7c.1.1.1.2.2.2z" class="st33"/><path d="M200.2 263h1.6c.2 0 .3-.1.3-.3v-8s-2.3 0-2.3 3.3v4.6c.1.2.2.4.4.4z" class="st32"/><path d="M200 263.2h1.9c.1 0 .1-.1.1-.1v-5c0-.1-.1-.1-.1-.1H200c-.1 0-.1.1-.1.1v5s0 .1.1.1z" class="st33"/><path d="M354.2 332.3v-73.1" class="st31"/><path d="M356.3 334h-1.8c-.2 0-.4-.2-.4-.4v-6.8s2.6.8 2.6 1.5v5.3c0 .2-.2.4-.4.4z" class="st32"/><path d="M356.5 334.2h-2.2c-.1 0-.2-.1-.2-.2v-5.7c0-.1.1-.2.2-.2h2.2c.1 0 .2.1.2.2v5.7c0 .1-.1.2-.2.2z" class="st33"/><path d="M356.1 263h-1.6c-.2 0-.3-.1-.3-.3v-8s2.3 0 2.3 3.3v4.6c-.1.2-.2.4-.4.4z" class="st32"/><path d="M356.3 263.2h-1.9c-.1 0-.1-.1-.1-.1v-5c0-.1.1-.1.1-.1h1.9c.1 0 .1.1.1.1v5l-.1.1z" class="st33"/><path d="M201.1 338.4v-8h154v8c0 16.8-34.5 30.4-77 30.4s-77-13.6-77-30.4z" class="st34"/><ellipse cx="278.1" cy="327.9" class="st29" rx="77" ry="30.4"/><path fill="#363538" d="M349 323.8c0 15.2-31.7 27.6-70.8 27.6s-70.8-12.4-70.8-27.6v-60.6H349v60.6z"/><path fill="#141414" d="M348.9 263.2v20c-11.8 10.9-39 18.4-70.8 18.4-31.8 0-59-7.6-70.8-18.4v-20h141.6z"/><path d="M201.1 263.3v-11.5h154v11.5c0 16.8-34.5 30.4-77 30.4s-77-13.6-77-30.4z" class="st34"/><ellipse cx="278.1" cy="253" class="st29" rx="77" ry="30.4"/><path d="M278.1 362.5v-73.9m51.8 65.9v-73.9m-103.6 73.9v-73.9" class="st27"/><path d="M281.2 288v1.2H275V288c0-1.7 1.4-3.1 3.1-3.1s3.1 1.4 3.1 3.1z" class="st33"/><circle cx="278.1" cy="289.2" r="3.1" class="st37"/><path d="M281.2 361.9v1.2H275v-1.2c0-1.7 1.4-3.1 3.1-3.1s3.1 1.4 3.1 3.1z" class="st33"/><circle cx="278.1" cy="363.1" r="3.1" class="st37"/><path d="M229.1 280.3c0 1.4-1.7 3.1-3 3.1s-2.5-1.3-2.5-2.7 1.7-3 3-3 2.5 1.2 2.5 2.6z" class="st33"/><ellipse cx="226.1" cy="280.8" class="st37" rx="2.5" ry="2.6"/><path d="M229.1 354.6c0 1.4-1.7 3.1-3 3.1s-2.5-1.3-2.5-2.7 1.7-3 3-3 2.5 1.2 2.5 2.6z" class="st33"/><ellipse cx="226.1" cy="355.2" class="st37" rx="2.5" ry="2.6"/><path d="M327.4 354.6c0 1.4 1.7 3.1 3 3.1s2.5-1.3 2.5-2.7-1.7-3-3-3-2.5 1.2-2.5 2.6z" class="st33"/><ellipse cx="330.5" cy="355.2" class="st37" rx="2.5" ry="2.6"/><path d="M327.2 280.3c0 1.4 1.7 3.1 3 3.1s2.5-1.3 2.5-2.7-1.7-3-3-3c-1.4 0-2.5 1.2-2.5 2.6z" class="st33"/><ellipse cx="330.2" cy="280.8" class="st37" rx="2.5" ry="2.6"/><path d="M342 320.2c-2 0-3.7-5.3-3.8-11.9-.2-6.6 1.3-12 3.3-12.1 2 0 3.7 5.3 3.8 11.9.2 6.7-1.3 12.1-3.3 12.1z" class="st38"/><path d="M342.3 307.9l-.2-9.4 8.3 4.5 8.3 4.5-8.1 4.9-8.1 4.9-.2-9.4z" class="st0"/><path d="M342.6 318c-1.4 0-2.7-4.4-2.9-9.9s.9-10 2.4-10.1c1.4 0 2.7 4.4 2.9 9.9.1 5.5-1 10-2.4 10.1z" class="st0"/><path d="M358.7 307.6l-16.4-1.2-2.6 1.7s-.2-6.1 1-8.5c0 0 .5-1.8 1.6-1.6.7.2.7.3 1.1 1.2l15.3 8.4z" class="st39"/><path d="M210.5 307.2c.2-6.6 1.9-11.9 3.8-11.9 2 0 3.4 5.4 3.3 12.1-.2 6.6-1.9 11.9-3.8 11.9-2-.1-3.5-5.5-3.3-12.1z" class="st38"/><path d="M213.2 316.4l-8.1-4.9-8.1-4.9 8.3-4.5 8.3-4.5-.2 9.4-.2 9.4z" class="st0"/><path d="M213.2 317c-1.4 0-2.5-4.5-2.4-10s1.4-10 2.9-9.9c1.4 0 2.5 4.5 2.4 10.1-.2 5.4-1.5 9.8-2.9 9.8z" class="st0"/><path d="M212.3 298.2c.3-.9.4-1.1 1.1-1.2 1.1-.3 1.6 1.6 1.6 1.6 1.2 2.4 1 8.5 1 8.5l-2.6-1.7-16.4 1.2 15.3-8.4z" class="st39"/><path d="M253 329.7c6.6 0 11.9-5.3 11.9-11.9 0-6.6-5.3-11.9-11.9-11.9-6.6 0-11.9 5.3-11.9 11.9 0 6.6 5.3 11.9 11.9 11.9z" class="st38"/><path d="M253 327.1c5.1 0 9.3-4.2 9.3-9.3s-4.2-9.3-9.3-9.3c-5.1 0-9.3 4.2-9.3 9.3 0 5.2 4.1 9.3 9.3 9.3z" class="st0"/><path d="M243.7 316.8l9.2 1-3 8.8c.1 0-6.8-1.8-6.2-9.8zm18.5 2l-9.2-1 3-8.8c-.1 0 6.8 1.8 6.2 9.8z" class="st39"/><path d="M305.6 328.9c6.6 0 11.9-5.3 11.9-11.9s-5.3-11.9-11.9-11.9c-6.6 0-11.9 5.3-11.9 11.9 0 6.6 5.3 11.9 11.9 11.9z" class="st38"/><path d="M305.6 326.3c5.1 0 9.3-4.2 9.3-9.3s-4.2-9.3-9.3-9.3c-5.1 0-9.3 4.2-9.3 9.3 0 5.1 4.1 9.3 9.3 9.3z" class="st0"/><path d="M296.3 316l9.2 1-3 8.8c.1 0-6.8-1.8-6.2-9.8zm18.5 2l-9.2-1 3-8.8c-.1 0 6.8 1.8 6.2 9.8z" class="st39"/></svg>