<svg xmlns="http://www.w3.org/2000/svg" version="1.0" viewBox="0 0 300 300"><ellipse cx="150" cy="150" fill="#FFF" rx="149.87" ry="149.87"/><circle cx="150" cy="150" r="140.69" fill="#EB595B"/><path fill="#E59623" d="M154.588 118.306c5.064-1.289 13.364-2.537 18.26 1.323.732.577.954 1.595.602 2.458l-3.587 8.794a2.142 2.142 0 0 1-1.593 1.297l-16.139-2.762c-2.635-1.318-.914-9.827 1.85-10.914.195-.077.398-.143.607-.196z"/><circle cx="69.898" cy="85.856" r=".457" fill="#606060"/><path fill="#606060" d="M204.419 205.079l-14.561 8.407L104.663 57.26l5.649-3.261z"/><ellipse cx="196.984" cy="209.026" fill="#606060" rx="8.405" ry="5.385" transform="rotate(-32.038 196.973 209.012)"/><ellipse cx="108.402" cy="57.551" fill="#606060" rx="6.187" ry="8.248" transform="rotate(-30 108.398 57.555)"/><path fill="#4C4C4C" d="M139.308 120.789s10.36-6.734 11.886 15.981l-2 2.146-9.886-18.127zm12.718 16.071l2.25-4.682 1.625-4.99 1.37 2.199-3.269 8.982-2.003-.095z"/><path fill="#FFB031" d="M198.128 168.546c-1.827-2.136-2.429-4.995-2.08-7.784.265-2.118-.016-4.095-.842-5.914-.535-1.18-1.309-2.281-2.292-3.263-.236-.236-.478-.46-.724-.671-2.136-1.839-3.545-4.396-3.634-7.213-.059-1.852-.545-3.545-1.454-5.064a11.26 11.26 0 0 0-1.638-2.09c-.967-.989-4.319-2.296-5.156-2.804-2.465-1.498-1.861-3.311-2.403-6.143-.397-2.076-1.343-4.407-3.389-6.41-4.71-4.607-9.208-3.161-13.186.444l-1.669 2.15-4.385 8.229a7.678 7.678 0 0 1-1.154 1.617l-15.742 16.89a8.2 8.2 0 0 0-.314.358l-23.58 28.697c-18.961 17.002 17.546 44.67 26.974 39.311 6.772-3.849 13.022-5.841 18.212-8.013 19.604-8.201 31.788-21.593 36.683-26.865 6.738-7.257 4.474-12.304 1.773-15.462z"/><path fill="#FFB031" d="M120.618 171.962l11.315-27.155a21.923 21.923 0 0 0 1.518-11.166c-.195-1.55-.416-2.881-.577-3.36l-.218-.647c-2.743-8.164 9.36-12.653 12.486-4.628 1.346 3.454 2.598 7.95 3.67 13.761 4.039 21.879-6.819 30.001-16.023 33.004-5.061 1.65-13.665 5.301-12.171.191z"/><path fill="#E59623" d="M148.235 135.844l-7.526 12.177 8.484-9.104z"/></svg>