<svg xmlns="http://www.w3.org/2000/svg" id="Camada_1" x="0" y="0" version="1.1" viewBox="0 0 300 300" xml:space="preserve"><style>.st2{fill:#565656}.st3{fill:#ffb031}</style><circle cx="150" cy="150" r="150" fill="#fff"/><circle cx="150" cy="150" r="140.8" fill="#fae040"/><path d="M154.7 78.9v87.9H146V78.9c0-2.2 1.9-4.1 4.3-4.1 2.6.1 4.4 2 4.4 4.1z" class="st2"/><path d="M146.1 221.3v-87.9h8.7v87.9c0 2.2-1.9 4.1-4.3 4.1-2.7.1-4.4-1.8-4.4-4.1z" class="st2"/><path d="M260.6 146.4c0 9.6-48 26-107 26s-107-16.2-107-26c0-9.6 48-17.6 107-17.6s107 7.9 107 17.6z" class="st3"/><path fill="#e28a0c" d="M260.6 146c0 9.6-48 21-107 21s-107-11.4-107-21 47.7-22.1 107-22.1 107 12.5 107 22.1z"/><path d="M260.6 139.1c0 9.6-48 17.6-107 17.6s-107-8-107-17.6c0-9.6 69.7-19.7 107-19.7 22.5.1 107 10 107 19.7z" class="st3"/><path d="M199.1 124.3c0 7.6-21.7 13.5-48.4 13.5s-48.4-5.9-48.4-13.5 21.7-17.6 48.4-17.6 48.4 9.9 48.4 17.6z" class="st3"/><path fill="#606060" d="M102.8 134.3c-3.5 1.1-6.1 3.6-7 6.5l-71.1 18.4c-.1 0-.2 0-.3.1-2.6.8-4.2 4-3.3 7.1.8 2.9 3.5 4.7 6.1 3.9l70-23.3c2 2 5.4 2.8 8.8 1.8 4.9-1.4 8-5.8 7.1-9.8-.7-4.1-5.4-6.1-10.3-4.7zm93.1 25.1c3.4.8 6.7-.1 8.4-2.1l68.2 19c.1 0 .2 0 .3.1 2.6.6 5.1-1.4 5.6-4.3s-1.2-5.8-3.8-6.3l-69.3-14.5c-.9-2.7-3.5-5.1-7-5.9-4.7-1.2-9.2 1.1-9.9 4.8-.5 4 2.7 8 7.5 9.2z"/><path d="M102.6 132.1c-3.5 1.1-6.1 3.6-7 6.5L24.5 157c-.1 0-.2 0-.3.1-2.6.8-4.2 4-3.3 7.1.8 2.9 3.5 4.7 6.1 3.9l70-23.3c2 2 5.4 2.8 8.8 1.8 4.9-1.4 8-5.8 7.1-9.8-.7-4.1-5.4-6.2-10.3-4.7zm93.9 25.2c3.4.8 6.7-.1 8.4-2.1l68.2 19c.1 0 .2 0 .3.1 2.6.6 5.1-1.4 5.6-4.3s-1.2-5.8-3.8-6.3L206 149.4c-.9-2.7-3.5-5.1-7-5.9-4.7-1.2-9.2 1.1-9.9 4.8-.5 3.8 2.7 7.9 7.4 9z"/></svg>