<svg viewBox="0 0 300 300" xmlns="http://www.w3.org/2000/svg"><path d="m149.999 300c-82.709 0-149.999-67.29-149.999-149.999 0-82.711 67.29-150.001 149.999-150.001 82.711 0 150.001 67.29 150.001 150.001 0 82.709-67.29 149.999-150.001 149.999" fill="#fff"/><path d="m290.812 150.001c0 77.768-63.043 140.812-140.812 140.812s-140.812-63.043-140.812-140.812 63.043-140.812 140.812-140.812c77.769-.001 140.812 63.043 140.812 140.812" fill="#5ec2d7"/><path d="m98.389 175.81v-50.598a.984.984 0 1 0 -1.968 0v50.598a.984.984 0 1 0 1.968 0" fill="#565656"/><path d="m95.894 176.951h1.247a.264.264 0 0 0 .264-.263v-3.667l.003-1.02s-1.777.552-1.777 1.02v3.667c0 .145.118.263.263.263z" fill="#3f3f3f"/><path d="m95.894 177.116h1.247a.264.264 0 0 0 .264-.264v-3.667a.265.265 0 0 0 -.264-.264h-1.247a.264.264 0 0 0 -.263.264v3.667c0 .146.118.264.263.264z" fill="#4c4c4c"/><path d="m96.078 127.849h1.093a.231.231 0 0 0 .231-.231v-3.215l.003-2.3s-1.558 0-1.558 2.3v3.215c0 .127.103.231.231.231z" fill="#3f3f3f"/><path d="m96.078 127.993h1.093a.231.231 0 0 0 .231-.232v-3.215a.232.232 0 0 0 -.231-.232h-1.093a.231.231 0 0 0 -.231.232v3.215a.23.23 0 0 0 .231.232z" fill="#4c4c4c"/><path d="m203.579 175.81v-50.598a.984.984 0 1 0 -1.968 0v50.598a.984.984 0 1 0 1.968 0" fill="#565656"/><path d="m204.106 176.951h-1.247a.264.264 0 0 1 -.264-.263v-3.667l-.003-1.02s1.778.552 1.778 1.02v3.667a.264.264 0 0 1 -.264.263z" fill="#3f3f3f"/><path d="m204.106 177.116h-1.247a.264.264 0 0 1 -.264-.264v-3.667c0-.145.119-.264.264-.264h1.247c.145 0 .264.119.264.264v3.667a.264.264 0 0 1 -.264.264z" fill="#4c4c4c"/><path d="m203.922 127.849h-1.092a.232.232 0 0 1 -.232-.231v-3.215l-.003-2.3s1.559 0 1.559 2.3v3.215a.232.232 0 0 1 -.232.231z" fill="#3f3f3f"/><path d="m203.922 127.993h-1.092a.232.232 0 0 1 -.232-.232v-3.215c0-.128.104-.232.232-.232h1.092c.128 0 .232.104.232.232v3.215a.232.232 0 0 1 -.232.232z" fill="#4c4c4c"/><path d="m96.709 178.745v-5.547h106.582v5.547c0 11.624-23.859 21.047-53.29 21.047-29.433 0-53.292-9.422-53.292-21.047z" fill="#e2e2e2"/><path d="m96.71 172.761c0-11.624 23.859-21.047 53.291-21.047s53.29 9.422 53.29 21.047-23.859 21.047-53.29 21.047c-29.433-.001-53.291-9.423-53.291-21.047" fill="#fff"/><path d="m199.007 169.904c-.013 10.539-21.945 19.084-49.009 19.084s-48.997-8.546-48.997-19.084v-41.909h97.993v13.834z" fill="#fbbc4b"/><path d="m198.995 127.995h-97.993v13.834c8.151 7.494 27.025 12.758 48.997 12.758 21.985 0 40.859-5.25 48.997-12.758v-13.834" fill="#f0b448"/><path d="m96.709 127.309v-5.547h106.582v5.547c0 11.624-23.859 21.047-53.29 21.047-29.433 0-53.292-9.423-53.292-21.047z" fill="#e2e2e2"/><ellipse cx="150" cy="121.255" fill="#fff" rx="53.291" ry="21.047"/><path d="m151.313 196.714v-51.151a1.313 1.313 0 0 0 -2.626 0v51.151a1.313 1.313 0 0 0 2.626 0m35.839-5.565v-51.151a1.313 1.313 0 0 0 -2.626 0v51.151a1.313 1.313 0 0 0 2.626 0m-71.679 0v-51.151a1.313 1.313 0 0 0 -2.626 0v51.151a1.313 1.313 0 0 0 2.626 0" fill="#565656"/><path d="m152.133 145.153v.82h-4.266v-.82a2.133 2.133 0 0 1 4.266 0z" fill="#4c4c4c"/><circle cx="150" cy="145.973" fill="#606060" r="2.133"/><path d="m152.133 196.304v.82h-4.266v-.82a2.133 2.133 0 0 1 4.266 0z" fill="#4c4c4c"/><circle cx="150" cy="197.125" fill="#606060" r="2.133"/><path d="m116.083 139.806c0 .978-1.15 2.155-2.109 2.155s-1.736-.877-1.736-1.855 1.15-2.07 2.109-2.07c.958-.001 1.736.792 1.736 1.77z" fill="#4c4c4c"/><ellipse cx="113.974" cy="140.19" fill="#606060" rx="1.736" ry="1.77"/><path d="m116.083 191.249c0 .978-1.15 2.155-2.109 2.155s-1.736-.877-1.736-1.855 1.15-2.07 2.109-2.07c.958 0 1.736.792 1.736 1.77z" fill="#4c4c4c"/><ellipse cx="113.974" cy="191.634" fill="#606060" rx="1.736" ry="1.77"/><path d="m184.104 191.249c0 .978 1.15 2.155 2.109 2.155s1.737-.877 1.737-1.855-1.151-2.07-2.11-2.07-1.736.792-1.736 1.77z" fill="#4c4c4c"/><ellipse cx="186.213" cy="191.634" fill="#606060" rx="1.737" ry="1.77"/><path d="m183.917 139.806c0 .978 1.151 2.155 2.11 2.155s1.736-.877 1.736-1.855-1.15-2.07-2.109-2.07-1.737.792-1.737 1.77z" fill="#4c4c4c"/><g fill="#606060"><ellipse cx="186.027" cy="140.19" rx="1.736" ry="1.77"/><path d="m144.968 94.29c-2.978-.636-5.796.074-7.381 1.618l-59.676-14.687-.247-.053a4.185 4.185 0 1 0 -1.507 8.233l60.452 11.064c.814 2.059 3.099 3.86 6.08 4.496 4.127.881 7.982-.794 8.612-3.741s-2.207-6.05-6.333-6.93zm12.75-5.871c2.867.612 5.581-.071 7.107-1.558l57.456 14.141.238.051a4.03 4.03 0 0 0 1.45-7.927l-58.205-10.653c-.783-1.982-2.983-3.716-5.854-4.329-3.973-.848-7.685.765-8.29 3.602-.606 2.837 2.125 5.825 6.098 6.673z"/></g></svg>