<svg enable-background="new 0 0 300 300" viewBox="0 0 300 300" xmlns="http://www.w3.org/2000/svg"><ellipse cx="150" cy="150" fill="#fff" rx="150" ry="150" transform="matrix(.7071 -.7071 .7071 .7071 -62.1321 149.9998)"/><circle cx="150" cy="150" fill="#eb595b" r="140.812"/><path d="m178.574 186.362c-2.137-4.001-2.547-8.869-.766-13.067 1.79-4.221 2.779-8.883 2.783-13.709.003-3.014 0-9.526 0-9.526s-5.397-1.807-7.091.519c-2.723 3.742-4.716 6.651-10.457 6.651-7.013 0-10.521-8.221-12.354-14.046-.808-2.567-.401-7.346-.401-7.346-.589.007-.887.011-1.468.018 0 0-1.409 13.765-10.636 13.765-4.006 0-6.298-2.748-7.575-5.858-1.382-3.368-11.199 6.267-11.199 6.267s0 2.926 0 9.526c0 4.873.99 9.497 2.763 13.655 1.802 4.227 1.416 9.127-.736 13.161-2.134 4-6.85 7.462-6.85 7.462s0 6.976 0 9.526c.004 20.09 18.145 26.896 35.413 26.896 15.737 0 35.413-6.806 35.413-26.896 0-2.39 0-9.526 0-9.526s-4.532-3.15-6.839-7.472z" fill="#dba658"/><path d="m156.086 84.736c1.656-1.109 2.74-3.067 2.74-5.317 0-1.283-.021-3.924-.021-3.924s-3.745-2.355-5.845-2.355c-2.656 0-4.997 1.796-5.806 4.274-.008-.007-.013-.011-.022-.018-2.454 7.415-3.625 11.122-5.958 18.537v2.638c0 1.3.295 2.46 1.334 2.979.479.239.719.358 1.202.597.645.319 1.351.485 2.075.485h9.763c.47 0 .848-.407.848-.909 0-.238 0-.357 0-.594 0-.193.095-.37.249-.467.63-.395.943-.593 1.566-.988.369-.234.493-.684.493-1.164 0-1.265 0-1.898 0-3.164-1.04-4.244-1.561-6.366-2.618-10.61z" fill="#dba658"/><path d="m156.086 81.339c2.051-1.373 3.231-4.051 2.545-6.972-.506-2.154-2.104-3.891-4.145-4.425-3.249-.851-6.37 1.13-7.332 4.075-.008-.007-.013-.011-.022-.018-2.414 8.47-3.568 12.705-5.863 21.175-.323 1.191.201 2.46 1.241 2.979.272.136.408.204.681.34.984.489 2.064.742 3.18.742h9.177c.47 0 .848-.407.848-.909 0-.238 0-.356 0-.594 0-.193.095-.37.249-.467.63-.395.943-.593 1.566-.988.369-.234.558-.698.474-1.153-1.033-5.514-1.55-8.271-2.599-13.785z" fill="#ffcd7d"/><path d="m178.574 176.836c-2.136-4.002-2.041-8.689-.766-13.067 1.319-4.526 2.779-8.883 2.783-13.709.003-3.014-.909-7.884-4.8-7.884-5.57 0-6.226 5.529-11.536 5.529-7.013 0-11.733-8.221-13.566-14.046-.808-2.567-.401-7.346-.401-7.346-.589.007-.887.011-1.468.018 0 0-1.409 13.765-10.636 13.765-4.006 0-6.298-2.748-7.575-5.858-1.382-3.368-5.728-3.641-7.346-.396-2.046 4.1-3.853 9.59-3.853 16.19 0 4.873 1.291 9.465 2.763 13.655 1.523 4.335 1.416 9.127-.736 13.161-4.935 9.253-6.85 12.496-6.85 16.988.004 20.09 18.145 26.896 35.413 26.896 15.737 0 35.413-6.806 35.413-26.896 0-4.492-1.907-7.761-6.839-17z" fill="#ffcd7d"/><path d="m150 145.486s8.57 5.586 14.803 5.586c5.597 0 6.989-5.518 9.847-5.518 2.514 0 3.118 2.61 3.118 4.684 0 5.772-4.104 12.538-4.104 19.498s8.315 16.848 8.315 24.325c0 8.418-3.719 13.057-9.412 15.2-10.939 4.118-17.265-16.199-22.567-18.614-4.343-1.978-14.936 6.046-17.936 2.823-6.031-6.478 5.457-17.669 5.457-26.652 0-7.523-7.284-14.026-2.351-19.424 3.847-4.21 14.83-1.908 14.83-1.908z" fill="#ffeef0"/><path d="m158.49 165.627c-6.547 0-10.434 0-16.981 0-.341 0-.617-.302-.617-.674 0-3.969 0-5.953 0-9.922 0-.372.276-.674.617-.674h16.981c.341 0 .617.302.617.674v9.922c0 .372-.276.674-.617.674z" fill="#dbc8cc"/><path d="m158.49 164.061c-6.547 0-10.434 0-16.981 0-.341 0-.617-.302-.617-.674 0-3.969 0-5.953 0-9.922 0-.372.276-.674.617-.674h16.981c.341 0 .617.302.617.674v9.922c0 .372-.276.674-.617.674z" fill="#f2dade"/><path d="m154.931 101.961v55.549c0 .512-.217.916-.494.916-3.458 0-5.416 0-8.874 0-.277 0-.494-.404-.494-.916 0-17.501 0-38.048 0-55.549 0-.499.217-.916.494-.916h8.874c.277-.001.494.417.494.916z" fill="#ffe7c5"/><path d="m154.931 101.961v3.045c-3.834 0-6.027 0-9.862 0 0-1.218 0-1.827 0-3.045 0-.499.217-.916.494-.916h8.874c.277-.001.494.417.494.916z" fill="#e0e0e0"/><path d="m159.086 195.591c-7.005 0-11.168 0-18.173 0-1.425 0-2.569-1.264-2.569-2.824 0-.849 0-1.272 0-2.121h23.311v2.121c.001 1.56-1.144 2.824-2.569 2.824z" fill="#dbc8cc"/><path d="m157.1 177.434c-5.485 0-8.715 0-14.199 0-1.115 0-2.007-.979-2.007-2.186 0-.522 0-.783 0-1.305h18.214v1.305c-.001 1.207-.893 2.186-2.008 2.186z" fill="#dbc8cc"/><path d="m157.1 176.128c-5.485 0-8.715 0-14.199 0-1.115 0-2.007-.979-2.007-2.186s.892-2.186 2.007-2.186h14.199c1.115 0 2.007.979 2.007 2.186 0 1.208-.892 2.186-2.007 2.186z" fill="#f2dade"/><path d="m159.086 193.47c-7.005 0-11.168 0-18.173 0-1.425 0-2.569-1.264-2.569-2.823 0-1.56 1.145-2.824 2.569-2.824h18.173c1.425 0 2.569 1.264 2.569 2.824.001 1.559-1.144 2.823-2.569 2.823z" fill="#f2dade"/><circle cx="170.037" cy="190.65" fill="#dbc8cc" r="2.996"/><path d="m172.426 190.038v.612c0 1.319-1.07 2.389-2.389 2.389s-2.389-1.07-2.389-2.389v-.612c0-.468.134-.905.369-1.274h.557c.405-.315.911-.503 1.462-.503s1.058.188 1.462.503h.557c.237.37.371.806.371 1.274z" fill="#4f4f4f"/><path d="m172.426 190.038c0 1.319-1.07 2.389-2.389 2.389s-2.389-1.07-2.389-2.389c0-.468.134-.905.369-1.274.42-.669 1.169-1.115 2.02-1.115.85 0 1.599.446 2.02 1.115.235.37.369.806.369 1.274z" fill="#686868"/><circle cx="167.041" cy="182.42" fill="#dbc8cc" r="2.996"/><path d="m169.43 181.808v.612c0 1.319-1.07 2.389-2.389 2.389s-2.389-1.07-2.389-2.389v-.612c0-.468.134-.905.369-1.274h.557c.405-.315.911-.503 1.462-.503s1.058.188 1.462.503h.557c.237.369.371.806.371 1.274z" fill="#4f4f4f"/><path d="m169.43 181.808c0 1.319-1.07 2.389-2.389 2.389s-2.389-1.07-2.389-2.389c0-.468.134-.905.369-1.274.42-.669 1.169-1.115 2.02-1.115.85 0 1.599.446 2.02 1.115.235.369.369.806.369 1.274z" fill="#686868"/><circle cx="173.033" cy="198.878" fill="#dbc8cc" r="2.996"/><path d="m175.422 198.267v.612c0 1.319-1.07 2.389-2.389 2.389s-2.389-1.07-2.389-2.389v-.612c0-.468.134-.905.369-1.274h.557c.405-.315.911-.503 1.462-.503s1.058.188 1.462.503h.557c.237.369.371.805.371 1.274z" fill="#4f4f4f"/><path d="m175.422 198.267c0 1.319-1.07 2.389-2.389 2.389s-2.389-1.07-2.389-2.389c0-.468.134-.905.369-1.274.42-.669 1.169-1.115 2.02-1.115.85 0 1.599.446 2.02 1.115.235.369.369.805.369 1.274z" fill="#686868"/><g fill="none" stroke="#3f3f3f" stroke-linecap="round" stroke-miterlimit="10" stroke-width=".75"><path d="m147.375 190.647c0-33.342 0-69.728 0-103.07"/><path d="m150 190.647c0-33.342 0-77.937 0-111.279"/><path d="m152.625 190.647c0-33.342 0-64.156 0-97.498"/></g></svg>