<?xml version="1.0" encoding="utf-8"?>
<!-- Generator: Adobe Illustrator 24.3.0, SVG Export Plug-In . SVG Version: 6.00 Build 0)  -->
<svg version="1.0" id="Layer_1" xmlns="http://www.w3.org/2000/svg" xmlns:xlink="http://www.w3.org/1999/xlink" x="0px" y="0px"
	 viewBox="0 0 300 300" enable-background="new 0 0 300 300" xml:space="preserve">
<g>
	
		<ellipse transform="matrix(0.7071 -0.7071 0.7071 0.7071 -62.1321 149.9998)" fill="#FFFFFF" cx="150" cy="150" rx="150" ry="150"/>
	<circle fill="#EB595B" cx="150" cy="150" r="140.812"/>
</g>
<g>
	<polygon fill="#9E9E9E" points="106.794,101.434 112.384,98.068 112.384,108.613 106.905,103.917 	"/>
	<polygon fill="#9E9E9E" points="193.082,101.516 187.492,98.15 187.492,108.695 192.972,103.999 	"/>
	<path fill="#D1D1D1" d="M191.635,104.893c0,13.053-6.013,24.695-15.407,32.311c-0.609,0.505-1.237,0.993-1.882,1.446
		c-1.655,0.976-3.955,1.83-6.727,2.544l-0.07,1.447c-5.333,2.492-11.275,3.886-17.549,3.886c-6.274,0-12.216-1.394-17.549-3.886
		l-0.07-1.447c-2.772-0.714-5.072-1.568-6.727-2.544c-0.645-0.453-1.273-0.941-1.882-1.446
		c-9.394-7.616-15.407-19.258-15.407-32.311c0-23.005,18.648-41.635,41.635-41.635S191.635,81.888,191.635,104.893z"/>
	<path fill="#EDEDED" d="M186.11,125.58c-2.544,4.462-5.925,8.4-9.881,11.624c-0.609,0.505-1.237,0.993-1.882,1.446
		c-1.655,0.976-3.955,1.83-6.727,2.544l-0.07,1.447c-5.333,2.492-11.275,3.886-17.549,3.886c-6.274,0-12.216-1.394-17.549-3.886
		l-0.07-1.447c-2.772-0.714-5.072-1.568-6.727-2.544c-0.645-0.453-1.273-0.941-1.882-1.446c-3.956-3.224-7.337-7.163-9.881-11.624
		c7.197-5.664,20.669-9.481,36.11-9.481S178.912,119.916,186.11,125.58z"/>
	<path fill="#9E9E9E" d="M177.274,134.956c0,0.784-0.366,1.534-1.046,2.248c-0.47,0.505-1.115,0.993-1.882,1.446
		c-1.655,0.976-3.955,1.83-6.727,2.544c-4.758,1.203-10.892,1.935-17.619,1.935c-6.727,0-12.862-0.732-17.619-1.935
		c-2.772-0.714-5.072-1.568-6.727-2.544c-0.768-0.453-1.413-0.941-1.882-1.446c-0.68-0.715-1.046-1.464-1.046-2.248
		c0-4.514,12.216-8.174,27.274-8.174C165.058,126.782,177.274,130.442,177.274,134.956z"/>
	<path fill="#9E9E9E" d="M193.414,103.28c0.021,0.609-0.631,1.002-1.161,0.701c-4.345-2.471-20.074-10.439-42.253-10.439
		c-22.154,0-37.873,7.95-42.239,10.431c-0.536,0.304-1.197-0.092-1.175-0.708l0.147-4.172c0.039-1.1,0.645-2.094,1.614-2.616
		c4.744-2.559,20.052-9.784,41.653-9.784c21.586,0,36.887,7.215,41.643,9.778c0.974,0.525,1.585,1.526,1.624,2.632L193.414,103.28z"
		/>
	<path fill="#565656" d="M167.654,140.376l-0.035,0.819l-0.07,1.447l-3.607,75.515h-27.884l-3.607-75.515l-0.07-1.447l-0.035-0.819
		c0-2.998,7.894-5.42,17.654-5.42S167.654,137.379,167.654,140.376z"/>
	<path fill="#EDEDED" d="M132.45,142.642l0.346,7.259c1.784-2.415,8.794-4.215,17.203-4.215s15.42,1.8,17.203,4.215l0.346-7.259
		l0.07-1.447l0.035-0.819c0-2.998-7.894-5.42-17.654-5.42s-17.654,2.423-17.654,5.42l0.035,0.819L132.45,142.642z"/>
	<ellipse fill="#4C4C4C" cx="150" cy="218.148" rx="13.942" ry="5.506"/>
	<path fill="#565656" d="M155.885,219.276l-0.012,0.169l-0.023,0.299l-1.203,15.596h-9.296l-1.203-15.596l-0.023-0.299l-0.012-0.169
		c0-0.619,2.632-1.119,5.885-1.119S155.885,218.657,155.885,219.276z"/>
	<path fill="#EDEDED" d="M155.888,219.273l-0.016,0.172l-0.016,0.297l-0.281,3.578c-0.797-0.453-2.999-0.765-5.578-0.765
		c-2.562,0-4.749,0.312-5.561,0.75l-0.281-3.562l-0.031-0.297l-0.015-0.172c0-0.609,2.64-1.109,5.889-1.109
		C153.247,218.163,155.888,218.663,155.888,219.273z"/>
	<ellipse fill="#4C4C4C" cx="150" cy="235.339" rx="4.648" ry="1.403"/>
	<path fill="#4C4C4C" d="M151.896,178.037h-3.792c-1.862,0-3.372-1.51-3.372-3.372v-9.717c0-1.862,1.51-3.372,3.372-3.372h3.792
		c1.862,0,3.372,1.51,3.372,3.372v9.717C155.268,176.527,153.758,178.037,151.896,178.037z"/>
	<path fill="#636363" d="M151.896,175.092h-3.792c-1.862,0-3.372-1.51-3.372-3.372v-9.717c0-1.862,1.51-3.372,3.372-3.372h3.792
		c1.862,0,3.372,1.51,3.372,3.372v9.717C155.268,173.582,153.758,175.092,151.896,175.092z"/>
	<path fill="#E2E2E2" d="M152.067,170.178h-4.134c-0.377,0-0.682-0.305-0.682-0.682v-4.134c0-0.377,0.305-0.682,0.682-0.682h4.134
		c0.377,0,0.682,0.305,0.682,0.682v4.134C152.749,169.873,152.444,170.178,152.067,170.178z"/>
	<path fill="#FFFFFF" d="M152.067,169.042h-4.134c-0.377,0-0.682-0.305-0.682-0.682v-4.134c0-0.377,0.305-0.682,0.682-0.682h4.134
		c0.377,0,0.682,0.305,0.682,0.682v4.134C152.749,168.737,152.444,169.042,152.067,169.042z"/>
</g>
</svg>
