<svg xmlns="http://www.w3.org/2000/svg" id="Layer_1" x="0" y="0" version="1.1" viewBox="0 0 300 300" xml:space="preserve"><style>.st0{fill:#fff}.st7{fill:#437517}.st8{fill:#9e9e9e}.st10{fill:#ededed}.st11{fill:#565656}.st12{fill:#4c4c4c}</style><circle cx="150" cy="150" r="150" class="st0"/><circle cx="150" cy="150" r="140.8" fill="#86bf5a"/><g fill="#437517" opacity=".3"><circle cx="150" cy="104.8" r="56.8" opacity=".75"/><circle cx="150" cy="104.8" r="70.9" opacity=".5"/><circle cx="150" cy="104.8" r="76.5" opacity=".3"/></g><g opacity=".3"><path d="M78.9 220.5c-1.7 0-3.1-1.4-3.1-3.1v-26.8c0-1.7 1.4-3.1 3.1-3.1 1.7 0 3.1 1.4 3.1 3.1v26.8c0 1.7-1.4 3.1-3.1 3.1z" class="st7"/><path d="M72 196c-1.3 0-2.5-.8-2.9-2.1-.5-1.6.4-3.4 2-3.9l7-2.3c1.6-.5 3.4.4 3.9 2s-.4 3.4-2 3.9l-7 2.3c-.4 0-.7.1-1 .1z" class="st7"/><path d="M78.9 187.6h-.2c-.3 0-.5.1-.8.1l-.2.1c-1.1.4-2 1.6-2 2.9v4.2l4-1.3c1.2-.4 2-1.4 2.1-2.6v-.3c.2-1.8-1.2-3.1-2.9-3.1m31.5 32.9c-.7 0-1.5-.3-2.1-.8-1.3-1.2-1.3-3.1-.2-4.4 3.6-3.9 7-6.6 9.7-8.8 1.5-1.2 2.7-2.2 3.7-3.1 1.2-1.2 3.2-1.1 4.4.1 1.2 1.2 1.1 3.2-.1 4.4-1.2 1.1-2.5 2.2-4.1 3.5-2.7 2.2-5.8 4.6-9.1 8.2-.5.6-1.4.9-2.2.9zm.9-22.3c-.5 0-1-.1-1.5-.4-1.5-.8-2-2.7-1.2-4.2 2.1-3.8 6.3-6.1 10.9-6.1 1.7 0 3.1 1.4 3.1 3.1 0 1.7-1.4 3.1-3.1 3.1-2.9 0-4.8 1.6-5.6 3-.5 1-1.6 1.5-2.6 1.5z" class="st7"/><path d="M123.7 208.7c-.8 0-1.6-.3-2.2-1-1.2-1.2-1.1-3.2.1-4.4 1.6-1.6 3.4-3.9 2.4-6.4-.8-2-3-3.3-4.5-3.3-1.7 0-3.1-1.4-3.1-3.1 0-1.7 1.4-3.1 3.1-3.1 4.2 0 8.5 3.1 10.2 7.2 1.8 4.4.4 9.2-3.8 13.2-.7.6-1.4.9-2.2.9zm4.6 11.8h-17.9c-1.7 0-3.1-1.4-3.1-3.1s1.4-3.1 3.1-3.1h17.9c1.7 0 3.1 1.4 3.1 3.1 0 1.7-1.4 3.1-3.1 3.1z" class="st7"/><path d="M123.7 202.5c-.8 0-1.5.3-2.1.9-1.2 1.2-1.3 3.1-.1 4.4 1.2 1.2 3.1 1.3 4.4.1 2-2 .6-5.4-2.2-5.4m-4.2-15c-1.7 0-3.1 1.4-3.1 3.1 0 1.7 1.4 3.1 3.1 3.1 1.7 0 3.1-1.4 3.1-3.1 0-1.7-1.4-3.1-3.1-3.1m-1.5 26.9h-7.6c-3.3 0-4.3 4.7-1.1 5.9 1.2.5 2.5.2 3.4-.8 1.8-2 3.6-3.7 5.3-5.1m43.5-9.2c-.8 0-1.6-.3-2.2-1-1.2-1.2-1.1-3.2.1-4.4l12.2-11.5c1.2-1.2 3.2-1.1 4.4.1s1.1 3.2-.1 4.4l-12.2 11.5c-.7.6-1.4.9-2.2.9z" class="st7"/><path d="M173.7 193.7h-14.6c-1.7 0-3.1-1.4-3.1-3.1s1.4-3.1 3.1-3.1h14.6c1.7 0 3.1 1.4 3.1 3.1 0 1.7-1.4 3.1-3.1 3.1zm2.2 19.1h-.2c-1.7-.1-3-1.6-2.9-3.3 0-.5 0-2.3-1.4-3.6-1.7-1.5-5-1.8-9.2-.8-1.7.4-3.3-.7-3.7-2.4-.4-1.7.7-3.3 2.4-3.7 6.3-1.4 11.2-.6 14.5 2.2 2.4 2.1 3.8 5.3 3.6 8.6-.1 1.7-1.5 3-3.1 3z" class="st7"/><path d="M166.1 220.5c-1.7 0-3.1-1.4-3.1-3.1s1.4-3.1 3.1-3.1c3.5 0 6.6-2.2 6.7-4.8.1-1.7 1.6-3 3.3-2.9 1.7.1 3 1.6 2.9 3.3-.2 3-1.7 5.7-4.2 7.7-2.5 1.9-5.5 2.9-8.7 2.9z" class="st7"/><path d="M166.1 220.5c-3.9 0-7.5-1.9-9.5-5.1-.9-1.4-.5-3.3.9-4.3s3.3-.5 4.3.9c.9 1.4 2.5 2.3 4.3 2.3 1.7 0 3.1 1.4 3.1 3.1s-1.4 3.1-3.1 3.1zm7.6-32.9c-.8 0-1.5.3-2.1.8l-5.6 5.3h7.8c3.3 0 4.3-4.7 1.2-5.9-.5-.2-.9-.2-1.3-.2m-7.1 10.8c-1.7 0-3.7.2-5.7.7-3.9.8-2.8 6.9 1.4 6 .5-.1 1-.4 1.4-.8l6-5.7c-1-.1-2-.2-3.1-.2m9.3 8.2c-1.6 0-3 1.3-3.1 2.9-.1 1.7 1.2 3.2 2.9 3.2 1.7.1 3.1-1.2 3.3-2.9.1-1.7-1.3-3.2-3.1-3.2" class="st7"/><path d="M166.1 214.4c-1.7 0-3.1 1.4-3.1 3.1s1.4 3.1 3.1 3.1c1.7 0 3.1-1.4 3.1-3.1 0-1.8-1.4-3.1-3.1-3.1m54.6-25.6l-17.1 19.7c-1.1 1.3-1 3.2.3 4.3.6.5 1.3.8 2 .8.9 0 1.7-.4 2.3-1.1l11.8-13.6v-8.3c.1-.6.3-1.3.7-1.8" class="st7"/><path d="M228 213.6h-22.1c-1.7 0-3.1-1.4-3.1-3.1s1.4-3.1 3.1-3.1H228c1.7 0 3.1 1.4 3.1 3.1s-1.4 3.1-3.1 3.1z" class="st7"/><path d="M220.1 198.9v18.5c0 1.7 1.4 3.1 3.1 3.1s3.1-1.4 3.1-3.1v-26.5l-6.2 8z" class="st7"/><path d="M223.2 187.6c-.9 0-1.7.4-2.3 1.1l-.2.2c-.4.5-.6 1.1-.6 1.8v8.3l5.4-6.2c.4-.5.7-1.1.7-1.7v-.3c0-1.9-1.4-3.2-3-3.2m3 19.8h-6.1v6.2h6.1v-6.2m-13.6 0h-6.8c-3 0-4.2 3.8-1.8 5.6 1.3.9 3.1.8 4.1-.5l4.5-5.1" class="st7"/></g><path d="M106.8 101.4l5.6-3.3v10.5l-5.5-4.7zm86.3.1l-5.6-3.3v10.5l5.5-4.7z" class="st8"/><path fill="#d1d1d1" d="M191.6 104.9c0 13.1-6 24.7-15.4 32.3-.6.5-1.2 1-1.9 1.4-1.7 1-4 1.8-6.7 2.5l-.1 1.4c-5.3 2.5-11.3 3.9-17.5 3.9s-12.2-1.4-17.5-3.9l-.1-1.4c-2.8-.7-5.1-1.6-6.7-2.5-.6-.5-1.3-.9-1.9-1.4-9.4-7.6-15.4-19.3-15.4-32.3 0-23 18.6-41.6 41.6-41.6s41.6 18.6 41.6 41.6z"/><path d="M186.1 125.6c-2.5 4.5-5.9 8.4-9.9 11.6-.6.5-1.2 1-1.9 1.4-1.7 1-4 1.8-6.7 2.5l-.1 1.4c-5.3 2.5-11.3 3.9-17.5 3.9s-12.2-1.4-17.5-3.9l-.1-1.4c-2.8-.7-5.1-1.6-6.7-2.5-.6-.5-1.3-.9-1.9-1.4-4-3.2-7.3-7.2-9.9-11.6 7.2-5.7 20.7-9.5 36.1-9.5s28.9 3.8 36.1 9.5z" class="st10"/><path d="M177.3 135c0 .8-.4 1.5-1 2.2-.5.5-1.1 1-1.9 1.4-1.7 1-4 1.8-6.7 2.5-4.8 1.2-10.9 1.9-17.6 1.9s-12.9-.7-17.6-1.9c-2.8-.7-5.1-1.6-6.7-2.5-.8-.5-1.4-.9-1.9-1.4-.7-.7-1-1.5-1-2.2 0-4.5 12.2-8.2 27.3-8.2 14.9 0 27.1 3.6 27.1 8.2zm16.1-31.7c0 .6-.6 1-1.2.7-4.3-2.5-20.1-10.4-42.3-10.4-22.2 0-37.9 7.9-42.2 10.4-.5.3-1.2-.1-1.2-.7l.1-4.2c0-1.1.6-2.1 1.6-2.6 4.7-2.6 20.1-9.8 41.7-9.8s36.9 7.2 41.6 9.8c1 .5 1.6 1.5 1.6 2.6l.3 4.2z" class="st8"/><path d="M167.7 140.4v.8l-.1 1.4-3.6 75.5h-27.9l-3.6-75.5-.1-1.4v-.8c0-3 7.9-5.4 17.7-5.4s17.6 2.4 17.6 5.4z" class="st11"/><path d="M132.4 142.6l.3 7.3c1.8-2.4 8.8-4.2 17.2-4.2s15.4 1.8 17.2 4.2l.3-7.3.1-1.4v-.8c0-3-7.9-5.4-17.7-5.4s-17.7 2.4-17.7 5.4v.8l.3 1.4z" class="st10"/><ellipse cx="150" cy="218.1" class="st12" rx="13.9" ry="5.5"/><path d="M155.9 219.3v.5l-1.2 15.6h-9.3l-1.2-15.6v-.5c0-.6 2.6-1.1 5.9-1.1s5.8.5 5.8 1.1z" class="st11"/><path d="M155.9 219.3v.5l-.3 3.6c-.8-.5-3-.8-5.6-.8-2.6 0-4.7.3-5.6.8l-.3-3.6v-.5c0-.6 2.6-1.1 5.9-1.1 3.2 0 5.9.5 5.9 1.1z" class="st10"/><ellipse cx="150" cy="235.3" class="st12" rx="4.6" ry="1.4"/><path d="M151.9 178h-3.8c-1.9 0-3.4-1.5-3.4-3.4v-9.7c0-1.9 1.5-3.4 3.4-3.4h3.8c1.9 0 3.4 1.5 3.4 3.4v9.7c0 1.9-1.5 3.4-3.4 3.4z" class="st12"/><path fill="#636363" d="M151.9 175.1h-3.8c-1.9 0-3.4-1.5-3.4-3.4V162c0-1.9 1.5-3.4 3.4-3.4h3.8c1.9 0 3.4 1.5 3.4 3.4v9.7c0 1.9-1.5 3.4-3.4 3.4z"/><path fill="#e2e2e2" d="M152.1 170.2H148c-.4 0-.7-.3-.7-.7v-4.1c0-.4.3-.7.7-.7h4.1c.4 0 .7.3.7.7v4.1c-.1.4-.4.7-.7.7z"/><path d="M152.1 169H148c-.4 0-.7-.3-.7-.7v-4.1c0-.4.3-.7.7-.7h4.1c.4 0 .7.3.7.7v4.1c-.1.4-.4.7-.7.7z" class="st0"/></svg>