<svg viewBox="0 0 300 300" xmlns="http://www.w3.org/2000/svg"><path d="m150 300c-82.71 0-150-67.29-150-150s67.29-150 150-150 150 67.29 150 150-67.29 150-150 150" fill="#fff"/><path d="m290.812 150c0 77.768-63.044 140.812-140.812 140.812s-140.812-63.044-140.812-140.812 63.044-140.812 140.812-140.812 140.812 63.044 140.812 140.812" fill="#86bf5a"/><path d="m184.98 112.103c0 10.967-5.052 20.748-12.944 27.146a26.09 26.09 0 0 1 -1.582 1.212c-1.39.82-3.323 1.537-5.652 2.138l-.06 1.216a34.72 34.72 0 0 1 -14.742 3.267 34.718 34.718 0 0 1 -14.745-3.265l-.06-1.215c-2.328-.6-4.26-1.318-5.65-2.138a25.333 25.333 0 0 1 -1.583-1.215c-7.892-6.4-12.944-16.18-12.944-27.15 0-19.326 15.667-34.98 34.98-34.98 19.315 0 34.982 15.654 34.982 34.98" fill="#565656"/><path d="m150 121.518c-12.973 0-24.29 3.207-30.338 7.965a35.033 35.033 0 0 0 8.302 9.766c-.57-.6-.88-1.23-.88-1.89 0-3.794 10.265-6.87 22.916-6.87s22.914 3.076 22.914 6.868c0 .66-.307 1.29-.88 1.89a35.033 35.033 0 0 0 8.303-9.768c-6.046-4.758-17.364-7.965-30.337-7.965" fill="#505050"/><path d="m172.915 137.36c0 .66-.307 1.29-.88 1.89-.394.424-.936.834-1.58 1.215-1.392.82-3.324 1.537-5.653 2.138-3.997 1.01-9.15 1.625-14.803 1.625-5.655 0-10.81-.615-14.806-1.625-2.33-.6-4.26-1.318-5.652-2.138-.645-.38-1.187-.79-1.582-1.215-.57-.6-.88-1.23-.88-1.89 0-3.79 10.266-6.866 22.917-6.866 12.653 0 22.917 3.075 22.917 6.867" fill="#d6566e"/><path d="m186.432 109.55c.04 1.138-1.05 1.975-2.133 1.628-4.85-1.55-17.328-4.913-34.3-4.913s-29.45 3.364-34.3 4.913a1.638 1.638 0 0 1 -2.134-1.627l.093-2.636a1.64 1.64 0 0 1 1.14-1.507c3.73-1.2 16.726-4.894 35.2-4.894s31.467 3.696 35.2 4.895a1.64 1.64 0 0 1 1.14 1.507l.09 2.64z" fill="#4c4c4c"/><path d="m164.832 141.914-.03.688-.058 1.215-3.03 63.443h-23.428l-3.03-63.443-.06-1.215-.03-.688c0-2.518 6.633-4.554 14.833-4.554s14.83 2.036 14.83 4.554" fill="#ff7182"/><path d="m135.256 143.818.29 6.1zm29.488 0-.29 6.098z" fill="#7db254"/><path d="m150 137.36c-8.2 0-14.832 2.036-14.832 4.555l.03.688.058 1.215.29 6.098c1.5-2.03 7.39-3.54 14.454-3.54 7.065 0 12.954 1.51 14.453 3.54l.29-6.098.06-1.215.03-.688c0-2.52-6.633-4.554-14.833-4.554" fill="#ed6979"/><path d="m161.714 207.255c0 2.555-5.244 4.626-11.713 4.626-6.466 0-11.71-2.07-11.71-4.623s5.243-4.626 11.713-4.626 11.714 2.07 11.714 4.626" fill="#d6566e"/><path d="m154.945 208.202-.01.142-.02.25-1.01 13.104h-7.81l-1.01-13.103-.02-.25-.01-.143c0-.52 2.21-.94 4.945-.94 2.734 0 4.945.42 4.945.94" fill="#ff7182"/><path d="m154.692 211.495-.008.103z" fill="#7db254"/><path d="m154.93 208.408-.015.187-.224 2.9h.004l.228-2.902.01-.185m-.185-.473c.13.085.2.174.2.267l-.004.08.01-.083c0-.094-.073-.18-.205-.267m-9.345-.08c-.226.107-.35.223-.35.344l.013.143.007.067-.005-.067-.01-.142c0-.12.122-.237.344-.344" fill="#c75066"/><path d="m149.998 207.267c-2.085 0-3.87.245-4.6.59-.22.106-.343.223-.343.345l.01.142.005.066.02.183.235 2.993c.682-.368 2.52-.63 4.672-.63 2.166 0 4.016.262 4.686.643l.008-.106.227-2.9.015-.187.004-.065.006-.062.004-.08c0-.09-.07-.18-.2-.265-.607-.386-2.504-.67-4.746-.67" fill="#ed6979"/><ellipse cx="150" cy="221.698" fill="#d6566e" rx="3.905" ry="1.179"/></svg>
