<?xml version="1.0" encoding="utf-8"?>
<!-- Generator: Adobe Illustrator 24.3.0, SVG Export Plug-In . SVG Version: 6.00 Build 0)  -->
<svg version="1.1" id="Layer_1" xmlns="http://www.w3.org/2000/svg" xmlns:xlink="http://www.w3.org/1999/xlink" x="0px" y="0px"
	 viewBox="0 0 300 300" style="enable-background:new 0 0 300 300;" xml:space="preserve">
<style type="text/css">
	.st0{fill:#FFFFFF;}
	.st1{fill:#5EC2D7;}
	.st2{opacity:0.5;fill:#FFFFFF;}
	.st3{fill:#9E9E9E;}
	.st4{fill:#D1D1D1;}
	.st5{fill:#636363;}
	.st6{fill:#565656;}
	.st7{fill:#EDEDED;}
	.st8{fill:#4C4C4C;}
	.st9{fill:#E2E2E2;}
</style>
<g>
	<ellipse class="st0" cx="150" cy="150" rx="150" ry="150"/>
	<circle class="st1" cx="150" cy="150" r="140.8"/>
</g>
<path class="st2" d="M248,160.5h-16.5c-1.6-5.8-3.4-13.8-8.7-17.1c-9.5-6-14.5,6.5-17.5,17.1h-13.9c-0.8-3-1.6-5.9-2.8-8.7
	c-2.1-5.1-6.1-11.4-12.6-9.2c-6.2,2.1-8.3,10.6-9.9,16.1c-0.2,0.6-0.4,1.2-0.5,1.9h-14.1c-1.5-5.7-3.2-12.1-7.3-16
	c-4.9-4.5-10.9-1.8-14,3.3c-2.3,3.9-3.7,8.3-4.8,12.7h-14.1c-0.6-2.3-1.2-4.6-2-6.7c-1.9-5.2-5.2-12.5-11.9-11.6
	c-6.5,0.9-9.1,8.8-10.7,14.2c-0.4,1.4-0.8,2.8-1.2,4.1h-14c-1.3-5.2-2.9-10.5-6.1-14.5c-1.8-2.3-4-3.7-7-3.9c-4.8-0.3-4.8,7.2,0,7.5
	c2.4,0.2,4.2,6.1,5.4,10.9h-11c-2.1,0-3.7,1.7-3.7,3.7s1.7,3.7,3.7,3.7h12.8c1.5,5.7,3.4,13.1,8.5,16.3c9.3,5.8,14.3-5.9,17.3-16.3
	h14.4c0.7,2.7,1.5,5.4,2.6,8c2.1,5.1,6.1,11.4,12.6,9.2c6.2-2.1,8.3-10.6,9.9-16.1c0.1-0.4,0.2-0.7,0.3-1.1h14.5
	c1.4,5.5,3.2,11.5,7.1,15.2c4.9,4.5,10.9,1.8,14-3.3c2.2-3.6,3.5-7.8,4.6-12h14.5c0.5,2,1.1,4,1.8,6c1.9,5.2,5.2,12.5,11.9,11.6
	c6.5-0.9,9.1-8.8,10.7-14.2c0.4-1.1,0.7-2.2,1-3.4h14.5c1.3,4.9,2.8,9.9,5.9,13.7c1.8,2.3,4.1,3.7,7,3.9c4.8,0.3,4.8-7.2,0-7.5
	c-2.3-0.1-4-5.5-5.2-10.1H248c2.1,0,3.7-1.7,3.7-3.7S250.1,160.5,248,160.5z M83.2,168.1c-0.8,2.6-1.6,7.2-3.8,9.1
	c-2.9,2.6-5.1-5.5-6.1-9.2L83.2,168.1C83.2,168,83.2,168,83.2,168.1z M93.3,160.5c0.5-1.8,0.9-3.3,1.2-4.3c0.4-1.2,2-6.6,3.8-6.6
	c1.4,0,2.6,3.4,3,4.3c0.9,2.1,1.7,4.3,2.3,6.6H93.3z M122.9,169.4c-0.6,1.9-1.8,7.5-3.9,8.4c-1.5,0.6-2-0.8-2.7-2.2
	c-1.3-2.4-2.2-4.9-3-7.5h10.1C123.2,168.5,123,168.9,122.9,169.4z M134.2,157.5c0.5-1.6,1.8-6.9,3.7-7.6c2.5-0.9,4.6,6.3,5.8,10.6
	h-10.4C133.5,159.5,133.8,158.5,134.2,157.5z M162.7,170.3c-0.5,1.6-1.8,6.9-3.7,7.6c-2.3,0.8-4.4-5.5-5.6-9.9h10
	C163.1,168.8,162.9,169.5,162.7,170.3z M173.3,160.5c0.2-0.7,0.4-1.4,0.6-2.1c0.6-1.9,1.8-7.5,3.9-8.4c1.5-0.6,2,0.8,2.7,2.2
	c1.4,2.6,2.4,5.4,3.3,8.3H173.3z M202.3,171.6c-0.4,1.2-2,6.6-3.8,6.6c-1.4,0-2.6-3.4-3-4.3c-0.8-1.9-1.5-3.8-2.1-5.8h9.9
	C203,169.5,202.6,170.7,202.3,171.6z M213.6,159.8c0.8-2.6,1.7-7.2,3.8-9.1c3.2-2.8,5.5,6.8,6.3,9.9h-10.4
	C213.5,160.3,213.6,160,213.6,159.8z"/>
<g>
	<g>
		<polygon class="st3" points="106.8,101.4 112.4,98.1 112.4,108.6 106.9,103.9 		"/>
		<polygon class="st3" points="193.1,101.5 187.5,98.2 187.5,108.7 193,104 		"/>
		<path class="st4" d="M191.6,104.9c0,13.1-6,24.7-15.4,32.3c-0.6,0.5-1.2,1-1.9,1.4c-1.7,1-4,1.8-6.7,2.5l-0.1,1.4
			c-5.3,2.5-11.3,3.9-17.5,3.9s-12.2-1.4-17.5-3.9l-0.1-1.4c-2.8-0.7-5.1-1.6-6.7-2.5c-0.6-0.5-1.3-0.9-1.9-1.4
			c-9.4-7.6-15.4-19.3-15.4-32.3c0-23,18.6-41.6,41.6-41.6S191.6,81.9,191.6,104.9z"/>
		<path class="st5" d="M186.1,125.6c-2.5,4.5-5.9,8.4-9.9,11.6c-0.6,0.5-1.2,1-1.9,1.4c-1.7,1-4,1.8-6.7,2.5l-0.1,1.4
			c-5.3,2.5-11.3,3.9-17.5,3.9s-12.2-1.4-17.5-3.9l-0.1-1.4c-2.8-0.7-5.1-1.6-6.7-2.5c-0.6-0.5-1.3-0.9-1.9-1.4
			c-4-3.2-7.3-7.2-9.9-11.6c7.2-5.7,20.7-9.5,36.1-9.5S178.9,119.9,186.1,125.6z"/>
		<path class="st3" d="M177.3,135c0,0.8-0.4,1.5-1,2.2c-0.5,0.5-1.1,1-1.9,1.4c-1.7,1-4,1.8-6.7,2.5c-4.8,1.2-10.9,1.9-17.6,1.9
			s-12.9-0.7-17.6-1.9c-2.8-0.7-5.1-1.6-6.7-2.5c-0.8-0.5-1.4-0.9-1.9-1.4c-0.7-0.7-1-1.5-1-2.2c0-4.5,12.2-8.2,27.3-8.2
			C165.1,126.8,177.3,130.4,177.3,135z"/>
		<path class="st3" d="M193.4,103.3c0,0.6-0.6,1-1.2,0.7c-4.3-2.5-20.1-10.4-42.3-10.4c-22.2,0-37.9,7.9-42.2,10.4
			c-0.5,0.3-1.2-0.1-1.2-0.7l0.1-4.2c0-1.1,0.6-2.1,1.6-2.6c4.7-2.6,20.1-9.8,41.7-9.8c21.6,0,36.9,7.2,41.6,9.8
			c1,0.5,1.6,1.5,1.6,2.6L193.4,103.3z"/>
		<path class="st6" d="M167.7,140.4l0,0.8l-0.1,1.4l-3.6,75.5h-27.9l-3.6-75.5l-0.1-1.4l0-0.8c0-3,7.9-5.4,17.7-5.4
			S167.7,137.4,167.7,140.4z"/>
		<path class="st7" d="M132.4,142.6l0.3,7.3c1.8-2.4,8.8-4.2,17.2-4.2s15.4,1.8,17.2,4.2l0.3-7.3l0.1-1.4l0-0.8
			c0-3-7.9-5.4-17.7-5.4s-17.7,2.4-17.7,5.4l0,0.8L132.4,142.6z"/>
		<ellipse class="st8" cx="150" cy="218.1" rx="13.9" ry="5.5"/>
		<path class="st6" d="M155.9,219.3l0,0.2l0,0.3l-1.2,15.6h-9.3l-1.2-15.6l0-0.3l0-0.2c0-0.6,2.6-1.1,5.9-1.1
			S155.9,218.7,155.9,219.3z"/>
		<path class="st7" d="M155.9,219.3l0,0.2l0,0.3l-0.3,3.6c-0.8-0.5-3-0.8-5.6-0.8c-2.6,0-4.7,0.3-5.6,0.8l-0.3-3.6l0-0.3l0-0.2
			c0-0.6,2.6-1.1,5.9-1.1C153.2,218.2,155.9,218.7,155.9,219.3z"/>
		<ellipse class="st8" cx="150" cy="235.3" rx="4.6" ry="1.4"/>
		<path class="st8" d="M151.9,178h-3.8c-1.9,0-3.4-1.5-3.4-3.4v-9.7c0-1.9,1.5-3.4,3.4-3.4h3.8c1.9,0,3.4,1.5,3.4,3.4v9.7
			C155.3,176.5,153.8,178,151.9,178z"/>
		<path class="st5" d="M151.9,175.1h-3.8c-1.9,0-3.4-1.5-3.4-3.4V162c0-1.9,1.5-3.4,3.4-3.4h3.8c1.9,0,3.4,1.5,3.4,3.4v9.7
			C155.3,173.6,153.8,175.1,151.9,175.1z"/>
		<path class="st9" d="M152.1,170.2h-4.1c-0.4,0-0.7-0.3-0.7-0.7v-4.1c0-0.4,0.3-0.7,0.7-0.7h4.1c0.4,0,0.7,0.3,0.7,0.7v4.1
			C152.7,169.9,152.4,170.2,152.1,170.2z"/>
		<path class="st0" d="M152.1,169h-4.1c-0.4,0-0.7-0.3-0.7-0.7v-4.1c0-0.4,0.3-0.7,0.7-0.7h4.1c0.4,0,0.7,0.3,0.7,0.7v4.1
			C152.7,168.7,152.4,169,152.1,169z"/>
	</g>
</g>
</svg>
