<svg xmlns="http://www.w3.org/2000/svg" version="1.0" viewBox="0 0 300 300"><circle cx="150" cy="150" r="150" fill="#FFF" transform="rotate(-45.001 149.999 150.002)"/><circle cx="150" cy="150" r="140.812" fill="#EB595B"/><path fill="#9E9E9E" d="M106.794 101.434l5.59-3.366v10.545l-5.479-4.696zm86.288.082l-5.59-3.366v10.545l5.48-4.696z"/><path fill="#D1D1D1" d="M191.635 104.893c0 13.053-6.013 24.695-15.407 32.311-.609.505-1.237.993-1.882 1.446-1.655.976-3.955 1.83-6.727 2.544l-.07 1.447A41.33 41.33 0 01150 146.527a41.33 41.33 0 01-17.549-3.886l-.07-1.447c-2.772-.714-5.072-1.568-6.727-2.544a29.736 29.736 0 01-1.882-1.446c-9.394-7.616-15.407-19.258-15.407-32.311 0-23.005 18.648-41.635 41.635-41.635s41.635 18.63 41.635 41.635z"/><path fill="#EDEDED" d="M186.11 125.58c-2.544 4.462-5.925 8.4-9.881 11.624-.609.505-1.237.993-1.882 1.446-1.655.976-3.955 1.83-6.727 2.544l-.07 1.447a41.33 41.33 0 01-17.549 3.886 41.33 41.33 0 01-17.549-3.886l-.07-1.447c-2.772-.714-5.072-1.568-6.727-2.544a29.736 29.736 0 01-1.882-1.446c-3.956-3.224-7.337-7.163-9.881-11.624 7.197-5.664 20.669-9.481 36.11-9.481s28.91 3.817 36.108 9.481z"/><path fill="#9E9E9E" d="M177.274 134.956c0 .784-.366 1.534-1.046 2.248-.47.505-1.115.993-1.882 1.446-1.655.976-3.955 1.83-6.727 2.544-4.758 1.203-10.892 1.935-17.619 1.935s-12.862-.732-17.619-1.935c-2.772-.714-5.072-1.568-6.727-2.544-.768-.453-1.413-.941-1.882-1.446-.68-.715-1.046-1.464-1.046-2.248 0-4.514 12.216-8.174 27.274-8.174 15.058 0 27.274 3.66 27.274 8.174zm16.14-31.676a.776.776 0 01-1.161.701c-4.345-2.471-20.074-10.439-42.253-10.439-22.154 0-37.873 7.95-42.239 10.431a.785.785 0 01-1.175-.708l.147-4.172a3.082 3.082 0 011.614-2.616c4.744-2.559 20.052-9.784 41.653-9.784 21.586 0 36.887 7.215 41.643 9.778a3.103 3.103 0 011.624 2.632l.147 4.177z"/><path fill="#565656" d="M167.654 140.376l-.035.819-.07 1.447-3.607 75.515h-27.884l-3.607-75.515-.07-1.447-.035-.819c0-2.998 7.894-5.42 17.654-5.42s17.654 2.423 17.654 5.42z"/><path fill="#EDEDED" d="M132.45 142.642l.346 7.259c1.784-2.415 8.794-4.215 17.203-4.215s15.42 1.8 17.203 4.215l.346-7.259.07-1.447.035-.819c0-2.998-7.894-5.42-17.654-5.42s-17.654 2.423-17.654 5.42l.035.819.07 1.447z"/><ellipse cx="150" cy="218.148" fill="#4C4C4C" rx="13.942" ry="5.506"/><path fill="#565656" d="M155.885 219.276l-.012.169-.023.299-1.203 15.596h-9.296l-1.203-15.596-.023-.299-.012-.169c0-.619 2.632-1.119 5.885-1.119s5.887.5 5.887 1.119z"/><path fill="#EDEDED" d="M155.888 219.273l-.016.172-.016.297-.281 3.578c-.797-.453-2.999-.765-5.578-.765-2.562 0-4.749.312-5.561.75l-.281-3.562-.031-.297-.015-.172c0-.609 2.64-1.109 5.889-1.109 3.249-.002 5.89.498 5.89 1.108z"/><ellipse cx="150" cy="235.339" fill="#4C4C4C" rx="4.648" ry="1.403"/><path fill="#4C4C4C" d="M151.896 178.037h-3.792a3.372 3.372 0 01-3.372-3.372v-9.717a3.372 3.372 0 013.372-3.372h3.792a3.372 3.372 0 013.372 3.372v9.717a3.372 3.372 0 01-3.372 3.372z"/><path fill="#636363" d="M151.896 175.092h-3.792a3.372 3.372 0 01-3.372-3.372v-9.717a3.372 3.372 0 013.372-3.372h3.792a3.372 3.372 0 013.372 3.372v9.717a3.372 3.372 0 01-3.372 3.372z"/><path fill="#E2E2E2" d="M152.067 170.178h-4.134a.682.682 0 01-.682-.682v-4.134c0-.377.305-.682.682-.682h4.134c.377 0 .682.305.682.682v4.134a.682.682 0 01-.682.682z"/><path fill="#FFF" d="M152.067 169.042h-4.134a.682.682 0 01-.682-.682v-4.134c0-.377.305-.682.682-.682h4.134c.377 0 .682.305.682.682v4.134a.682.682 0 01-.682.682z"/></svg>