<svg version="1" xmlns="http://www.w3.org/2000/svg" viewBox="0 0 300 300"><ellipse transform="rotate(-45.001 149.999 150.002)" fill="#FFF" cx="150" cy="150" rx="150" ry="150"/><ellipse transform="rotate(-45.001 149.999 150.003)" fill="#FAE040" cx="150" cy="150" rx="140.812" ry="140.812"/><path fill="#FFF" d="M205.125 87.655v124.69a6.557 6.557 0 0 1-6.563 6.563h-97.126a6.565 6.565 0 0 1-6.563-6.563V87.655c0-1.299.381-2.52 1.037-3.531a6.528 6.528 0 0 1 5.526-3.032h97.126a6.554 6.554 0 0 1 5.54 3.032 6.585 6.585 0 0 1 1.023 3.531z"/><path fill="#EDEDED" d="M195.899 201.184h-91.787a1.97 1.97 0 0 1 0-3.938h91.787a1.969 1.969 0 1 1 0 3.938zm0-32.814h-91.787a1.969 1.969 0 1 1 0-3.938h91.787a1.97 1.97 0 0 1 0 3.938zm0-32.813h-91.787a1.969 1.969 0 1 1 0-3.938h91.787a1.97 1.97 0 0 1 0 3.938zm0-32.813h-91.787a1.969 1.969 0 1 1 0-3.938h91.787a1.97 1.97 0 0 1 0 3.938zm0 10.5h-91.787a.656.656 0 1 1 0-1.312h91.787a.656.656 0 1 1 0 1.312zm0 9.188h-91.787a.656.656 0 1 1 0-1.312h91.787a.656.656 0 1 1 0 1.312zm0 23.625h-91.787a.656.656 0 1 1 0-1.312h91.787a.656.656 0 1 1 0 1.312zm0 9.188h-91.787a.656.656 0 1 1 0-1.312h91.787a.656.656 0 1 1 0 1.312zm0 23.626h-91.787a.656.656 0 0 1 0-1.312h91.787a.656.656 0 1 1 0 1.312zm0 9.188h-91.787a.656.656 0 0 1 0-1.312h91.787a.656.656 0 1 1 0 1.312z"/><path fill="#565656" d="M133.665 128.997v27.313a13.963 13.963 0 0 0-8.789-1.172c-5.858 1.109-10.471 5.963-11.25 11.874-1.18 8.942 6.068 16.524 14.909 15.911 7.187-.497 13.036-7.192 13.036-14.397V133.74l27.399-6.416v18.667a13.953 13.953 0 0 0-8.786-1.172c-5.858 1.108-10.471 5.96-11.253 11.87-1.182 8.943 6.067 16.527 14.909 15.914 7.187-.497 13.036-7.184 13.036-14.389v-38.053c0-2.02-1.887-3.5-3.852-3.031l-36.96 8.826a3.127 3.127 0 0 0-2.399 3.041z"/></svg>
