<svg xmlns="http://www.w3.org/2000/svg" version="1.0" viewBox="0 0 300 300"><circle cx="150" cy="150" r="150" fill="#FFF" transform="rotate(-45.001 149.999 150.002)"/><circle cx="150" cy="150" r="140.812" fill="#EB595B"/><path fill="#FFF" d="M60.1 173.724c1.897.135 4.141 8.296 4.687 9.674 1.712 4.317 3.599 9.362 7.809 11.876 7.917 4.728 12.632-2.85 14.537-9.462 2.573-8.929 3.45-18.389 4.804-27.555.691-4.678 1.391-9.365 2.371-13.993.595-2.81 2.597-6.708 2.723-8.84.029-.494.256-.029-.077-.027-.821.005-1.472.613-2.462.451-.822-.135-1.276-.654-1.222-.784-.064.156.784 1.365.898 1.633 1.061 2.495 2.006 7.129 2.63 10.464 1.789 9.55 2.818 19.224 4.484 28.795 1.05 6.031 1.991 16.04 7.829 19.646 9.571 5.913 15.234-8.634 17.71-14.991.777-1.994 2.164-3.968 2.823-5.948.439-1.321 1.319-.571-.115-1.218 2.302 1.039 3.427 8.34 4.018 10.579 1.902 7.201 3.22 20.236 11.161 23.601 9.506 4.027 13.684-8.26 15.566-15.035 1.331-4.791 2.336-9.681 3.917-14.4.511-1.527 1.085-3.033 1.99-4.378.576-.856-.479.016-.448.063 4.393 6.82 5.729 19.913 14.782 22.456 8.011 2.25 11.063-6.374 12.55-12.461 2.273-9.305 3.215-18.94 4.574-28.406.669-4.662 1.355-9.332 2.323-13.943.377-1.798.784-3.596 1.317-5.355.407-1.341 1.303-2.308 1.339-3.347.019-.556.207.022-.108.001-.759-.052-1.903.406-2.857.328-.637-.052-.971-.599-.931-.681-.01.021.942 1.767.831 1.5 1.186 2.867 1.984 7.023 2.614 10.428 1.811 9.787 2.835 19.701 4.42 29.524 1.026 6.36 1.741 15.82 6.7 20.61 8.11 7.833 15.49-4.84 17.986-11.131.554-1.397 2.789-9.539 4.69-9.674 6.382-.455 6.432-10.458 0-10-11.217.799-11.596 13.811-16.356 21.329-1.432 2.262-1.127.688-.104 1.882 1.271 1.483.435-.009.1-.818-1.181-2.856-1.986-7.035-2.614-10.428-1.811-9.787-2.835-19.701-4.42-29.524-1.025-6.353-1.736-15.837-6.7-20.61-6.149-5.911-11.884 1.028-13.849 6.749-2.831 8.24-3.589 17.333-4.783 25.914-1.228 8.822-2.007 18.111-4.824 26.609-.09.273-1.379 2.58-1.279 2.789-.271-.565 1.758-.537 1.938-1.064.097-.284-2.482-4.221-2.769-4.899-1.045-2.469-1.908-5.011-2.967-7.475-1.794-4.172-4.337-8.754-9.046-10.081-4.315-1.216-8.171.859-10.564 4.415-5.222 7.76-5.385 18.046-8.711 26.598-.238.611-1.96 3.357-1.898 3.534-.074-.211 1.124-.27 1.1-.257.924-.484.367.857.378-.109.012-.952-1.636-3.322-1.99-4.378-.852-2.543-1.52-5.145-2.187-7.741-1.779-6.927-3.42-19.759-11.711-22.116-10.879-3.092-14.215 11.693-17.399 18.622-.254.552-2.493 3.67-2.425 4.001.019.09 1.17.21 1.404.395.516.409.469.722.214-.031-.825-2.439-2.034-5.859-2.694-9.043-1.99-9.594-3.006-19.367-4.591-29.03-1.059-6.455-1.797-15.961-6.817-20.82-6.181-5.982-12.025 1.076-14.001 6.829-2.898 8.437-3.681 17.721-4.957 26.501-1.138 7.829-2 17.772-4.855 24.486-.136.319-.808 1.176-.782 1.453-.006-.06-.077.099.444-.345 1.47-1.252 1.621.242.204-2.007-2.618-4.156-3.595-9.218-5.859-13.567-2.238-4.299-5.508-7.406-10.494-7.761-6.42-.459-6.392 9.543.001 9.998z" opacity=".8"/><path fill="#9E9E9E" d="M106.794 101.434l5.59-3.366v10.545l-5.479-4.696zm86.288.082l-5.59-3.366v10.545l5.48-4.696z"/><path fill="#D1D1D1" d="M191.635 104.893c0 13.053-6.013 24.695-15.407 32.311-.609.505-1.237.993-1.882 1.446-1.655.976-3.955 1.83-6.727 2.544l-.07 1.447A41.33 41.33 0 01150 146.527a41.33 41.33 0 01-17.549-3.886l-.07-1.447c-2.772-.714-5.072-1.568-6.727-2.544a29.736 29.736 0 01-1.882-1.446c-9.394-7.616-15.407-19.258-15.407-32.311 0-23.005 18.648-41.635 41.635-41.635s41.635 18.63 41.635 41.635z"/><path fill="#EDEDED" d="M186.11 125.58c-2.544 4.462-5.925 8.4-9.881 11.624-.609.505-1.237.993-1.882 1.446-1.655.976-3.955 1.83-6.727 2.544l-.07 1.447a41.33 41.33 0 01-17.549 3.886 41.33 41.33 0 01-17.549-3.886l-.07-1.447c-2.772-.714-5.072-1.568-6.727-2.544a29.736 29.736 0 01-1.882-1.446c-3.956-3.224-7.337-7.163-9.881-11.624 7.197-5.664 20.669-9.481 36.11-9.481s28.91 3.817 36.108 9.481z"/><path fill="#9E9E9E" d="M177.274 134.956c0 .784-.366 1.534-1.046 2.248-.47.505-1.115.993-1.882 1.446-1.655.976-3.955 1.83-6.727 2.544-4.758 1.203-10.892 1.935-17.619 1.935s-12.862-.732-17.619-1.935c-2.772-.714-5.072-1.568-6.727-2.544-.768-.453-1.413-.941-1.882-1.446-.68-.715-1.046-1.464-1.046-2.248 0-4.514 12.216-8.174 27.274-8.174 15.058 0 27.274 3.66 27.274 8.174zm16.14-31.676a.776.776 0 01-1.161.701c-4.345-2.471-20.074-10.439-42.253-10.439-22.154 0-37.873 7.95-42.239 10.431a.785.785 0 01-1.175-.708l.147-4.172a3.082 3.082 0 011.614-2.616c4.744-2.559 20.052-9.784 41.653-9.784 21.586 0 36.887 7.215 41.643 9.778a3.103 3.103 0 011.624 2.632l.147 4.177z"/><path fill="#565656" d="M167.654 140.376l-.035.819-.07 1.447-3.607 75.515h-27.884l-3.607-75.515-.07-1.447-.035-.819c0-2.998 7.894-5.42 17.654-5.42s17.654 2.423 17.654 5.42z"/><path fill="#EDEDED" d="M132.45 142.642l.346 7.259c1.784-2.415 8.794-4.215 17.203-4.215s15.42 1.8 17.203 4.215l.346-7.259.07-1.447.035-.819c0-2.998-7.894-5.42-17.654-5.42s-17.654 2.423-17.654 5.42l.035.819.07 1.447z"/><ellipse cx="150" cy="218.148" fill="#4C4C4C" rx="13.942" ry="5.506"/><path fill="#565656" d="M155.885 219.276l-.012.169-.023.299-1.203 15.596h-9.296l-1.203-15.596-.023-.299-.012-.169c0-.619 2.632-1.119 5.885-1.119s5.887.5 5.887 1.119z"/><path fill="#EDEDED" d="M155.888 219.273l-.016.172-.016.297-.281 3.578c-.797-.453-2.999-.765-5.578-.765-2.562 0-4.749.312-5.561.75l-.281-3.562-.031-.297-.015-.172c0-.609 2.64-1.109 5.889-1.109 3.249-.002 5.89.498 5.89 1.108z"/><ellipse cx="150" cy="235.339" fill="#4C4C4C" rx="4.648" ry="1.403"/><path fill="#4C4C4C" d="M151.896 178.037h-3.792a3.372 3.372 0 01-3.372-3.372v-9.717a3.372 3.372 0 013.372-3.372h3.792a3.372 3.372 0 013.372 3.372v9.717a3.372 3.372 0 01-3.372 3.372z"/><path fill="#636363" d="M151.896 175.092h-3.792a3.372 3.372 0 01-3.372-3.372v-9.717a3.372 3.372 0 013.372-3.372h3.792a3.372 3.372 0 013.372 3.372v9.717a3.372 3.372 0 01-3.372 3.372z"/><path fill="#E2E2E2" d="M152.067 170.178h-4.134a.682.682 0 01-.682-.682v-4.134c0-.377.305-.682.682-.682h4.134c.377 0 .682.305.682.682v4.134a.682.682 0 01-.682.682z"/><path fill="#FFF" d="M152.067 169.042h-4.134a.682.682 0 01-.682-.682v-4.134c0-.377.305-.682.682-.682h4.134c.377 0 .682.305.682.682v4.134a.682.682 0 01-.682.682z"/></svg>