<svg enable-background="new 0 0 300 300" viewBox="0 0 300 300" xmlns="http://www.w3.org/2000/svg"><path d="m150 300c-82.71 0-150-67.29-150-150s67.29-150 150-150 150 67.29 150 150-67.29 150-150 150" fill="#fff"/><path d="m290.813 150c0 77.769-63.044 140.812-140.813 140.812s-140.812-63.043-140.812-140.812 63.043-140.812 140.812-140.812 140.813 63.043 140.813 140.812" fill="#5ec2d7"/><path d="m113.701 114.695 4.696-2.828v8.86l-4.604-3.946z" fill="#bfbfbf"/><path d="m186.195 114.764-4.696-2.828v8.859l4.604-3.945z" fill="#bfbfbf"/><path d="m184.98 117.601c0 10.967-5.052 20.748-12.944 27.146-.512.425-1.039.835-1.581 1.215-1.391.82-3.323 1.538-5.651 2.138l-.059 1.215c-4.48 2.094-9.473 3.266-14.744 3.266s-10.264-1.172-14.745-3.266l-.059-1.215c-2.328-.6-4.261-1.317-5.651-2.138-.542-.38-1.07-.791-1.581-1.215-7.892-6.398-12.944-16.179-12.944-27.146 0-19.328 15.667-34.98 34.98-34.98 19.311.001 34.979 15.652 34.979 34.98" fill="#d1d1d1"/><path d="m150 127.016c-12.973 0-24.291 3.207-30.338 7.965 2.138 3.748 4.978 7.058 8.302 9.766-.571-.6-.878-1.229-.878-1.889 0-3.792 10.264-6.867 22.915-6.867 12.65 0 22.914 3.075 22.914 6.867 0 .659-.308 1.289-.879 1.889 3.324-2.709 6.165-6.018 8.303-9.766-6.048-4.758-17.366-7.965-30.339-7.965" fill="#c2c2c2"/><path d="m172.914 142.858c0 .659-.308 1.289-.879 1.889-.395.425-.937.835-1.581 1.215-1.391.82-3.323 1.538-5.651 2.138-3.997 1.01-9.151 1.626-14.803 1.626s-10.806-.615-14.803-1.626c-2.328-.6-4.261-1.317-5.651-2.138-.645-.38-1.187-.791-1.581-1.215-.571-.6-.878-1.229-.878-1.889 0-3.792 10.264-6.867 22.915-6.867 12.648 0 22.912 3.075 22.912 6.867" fill="#9e9e9e"/><path d="m186.475 116.246c.018.512-.53.842-.976.589-3.65-2.076-16.865-8.771-35.499-8.771-18.613 0-31.819 6.679-35.487 8.763-.45.256-1.006-.077-.987-.594l.124-3.505c.033-.924.542-1.759 1.356-2.198 3.986-2.149 16.846-8.22 34.995-8.22 18.136 0 30.99 6.062 34.986 8.215.818.441 1.331 1.282 1.364 2.212z" fill="#bfbfbf"/><path d="m164.832 147.412-.029.688-.059 1.215-3.031 63.443h-23.427l-3.031-63.443-.059-1.215-.029-.688c0-2.519 6.633-4.554 14.832-4.554 8.2 0 14.833 2.036 14.833 4.554" fill="#565656"/><path d="m135.255 149.315.291 6.099zm29.489 0-.291 6.098z" fill="#57b4c8"/><path d="m150 142.858c-8.2 0-14.832 2.035-14.832 4.554l.029.688.059 1.215.291 6.098c1.499-2.028 7.388-3.541 14.453-3.541 7.064 0 12.953 1.512 14.453 3.541l.291-6.098.059-1.215.029-.688c0-2.518-6.633-4.554-14.832-4.554" fill="#505050"/><path d="m161.713 212.752c0 2.556-5.244 4.627-11.713 4.627s-11.714-2.071-11.714-4.627c0-2.555 5.245-4.626 11.714-4.626s11.713 2.071 11.713 4.626z" fill="#4c4c4c"/></svg>