<svg xmlns="http://www.w3.org/2000/svg" version="1.0" viewBox="0 0 300 300"><circle cx="149.947" cy="150" r="149.947" fill="#FFF" transform="rotate(-45.001 149.946 150.002)"/><circle cx="149.947" cy="150" r="140.763" fill="#EB595B"/><path fill="none" stroke="#211C1C" stroke-miterlimit="10" stroke-width="3.5" d="M45.089 151.27l9.16 21.941 14.471-45.158 11.89 68.002 7.958-72.022-7.015-3.662 9.52-4.359-11.995-4.998 10.996-4.999-6.998-4.998 9.039-1.972 5.027-21.02 11.974 86.29-6.942 4.276 3.894 2.402 7.74 5.163-3.377 1.691-5.12 3.227 4.91 1.826 5.804 37.075 16.514-102.676 13.495 57.849 4.839-16.301-.816 35.618 14.535-99.77 17.282 68.281-4.134 5.054 4.275 1.854 8.417 3.033-5.392 3.074-7.997 2.999 7.997.999 4.999 2-6.998 2.999 9.191 21.432 14.759-78.457 10.338 59.973 9.981-34.415-5.283-6.52 7.359-.638 3.73-12.262 9.673 35.026 12.089-28.75 6.136 14.101"/><path fill="#9E9E9E" d="M114.595 110.262l4.574-2.754v8.628l-4.483-3.842zm70.604.067l-4.574-2.755v8.629l4.483-3.843z"/><path fill="#D1D1D1" d="M184.014 113.092c0 10.681-4.92 20.206-12.606 26.438-.499.413-1.012.813-1.54 1.184-1.354.799-3.236 1.497-5.504 2.082l-.057 1.184a33.822 33.822 0 01-14.36 3.18 33.822 33.822 0 01-14.36-3.18l-.057-1.184c-2.268-.585-4.15-1.283-5.504-2.082a24.026 24.026 0 01-1.54-1.184c-7.686-6.232-12.606-15.757-12.606-26.438 0-18.823 15.258-34.067 34.067-34.067s34.067 15.244 34.067 34.067z"/><path fill="#EDEDED" d="M179.493 130.019a34.102 34.102 0 01-8.085 9.511c-.499.413-1.012.813-1.54 1.184-1.354.799-3.236 1.497-5.504 2.082l-.057 1.184a33.822 33.822 0 01-14.36 3.18 33.822 33.822 0 01-14.36-3.18l-.057-1.184c-2.268-.585-4.15-1.283-5.504-2.082a24.026 24.026 0 01-1.54-1.184 34.116 34.116 0 01-8.085-9.511c5.889-4.634 16.912-7.757 29.546-7.757s23.657 3.122 29.546 7.757z"/><path fill="#9E9E9E" d="M172.264 137.691c0 .642-.299 1.255-.856 1.84-.384.413-.912.813-1.54 1.184-1.354.799-3.236 1.497-5.504 2.082-3.893.984-8.912 1.583-14.417 1.583s-10.524-.599-14.417-1.583c-2.268-.585-4.15-1.283-5.504-2.082-.628-.371-1.156-.77-1.54-1.184-.556-.585-.856-1.198-.856-1.84 0-3.693 9.996-6.688 22.317-6.688s22.317 2.994 22.317 6.688zm13.206-25.919a.634.634 0 01-.95.573c-3.555-2.022-16.425-8.541-34.573-8.541-18.127 0-30.989 6.505-34.561 8.535a.643.643 0 01-.962-.579l.121-3.413c.032-.9.528-1.713 1.32-2.141 3.882-2.094 16.407-8.005 34.082-8.005 17.663 0 30.182 5.903 34.074 8.001a2.54 2.54 0 011.329 2.154l.12 3.416z"/><path fill="#565656" d="M164.392 142.125l-.029.67-.057 1.184-2.952 61.788h-22.816l-2.952-61.788-.057-1.184-.029-.67c0-2.453 6.459-4.435 14.445-4.435s14.447 1.983 14.447 4.435z"/><path fill="#EDEDED" d="M135.588 143.979l.283 5.94c1.459-1.976 7.195-3.449 14.076-3.449s12.617 1.473 14.076 3.449l.283-5.94.057-1.184.029-.67c0-2.453-6.459-4.435-14.445-4.435s-14.445 1.982-14.445 4.435l.029.67.057 1.184z"/><ellipse cx="149.947" cy="205.761" fill="#4C4C4C" rx="11.408" ry="4.506"/><path fill="#565656" d="M154.763 206.684l-.01.138-.019.244-.984 12.761h-7.606l-.984-12.761-.019-.244-.01-.138c0-.507 2.153-.916 4.816-.916s4.816.409 4.816.916z"/><path fill="#EDEDED" d="M154.765 206.681l-.013.14-.013.243-.23 2.927c-.652-.371-2.454-.626-4.564-.626-2.096 0-3.886.256-4.55.614l-.23-2.915-.026-.243-.012-.14c0-.499 2.16-.908 4.819-.908 2.658.001 4.819.409 4.819.908z"/><ellipse cx="149.947" cy="219.827" fill="#4C4C4C" rx="3.803" ry="1.148"/><path fill="#4C4C4C" d="M152.948 172.941h-6.002a1.31 1.31 0 01-1.31-1.31v-10.85c0-.723.586-1.31 1.31-1.31h6.002c.723 0 1.31.586 1.31 1.31v10.85a1.31 1.31 0 01-1.31 1.31z"/><path fill="#636363" d="M152.948 170.531h-6.002a1.31 1.31 0 01-1.31-1.31v-10.85c0-.723.586-1.31 1.31-1.31h6.002c.723 0 1.31.586 1.31 1.31v10.85a1.31 1.31 0 01-1.31 1.31z"/><path fill="#E2E2E2" d="M151.515 166.51h-3.135a.682.682 0 01-.682-.682v-3.135c0-.377.305-.682.682-.682h3.135c.377 0 .682.305.682.682v3.135a.682.682 0 01-.682.682z"/><path fill="#FFF" d="M151.515 165.581h-3.135a.682.682 0 01-.682-.682v-3.135c0-.377.305-.682.682-.682h3.135c.377 0 .682.305.682.682v3.135a.682.682 0 01-.682.682z"/></svg>