<svg enable-background="new 0 0 300 300" viewBox="0 0 300 300" xmlns="http://www.w3.org/2000/svg"><ellipse cx="150" cy="150" fill="#fff" rx="150" ry="150" transform="matrix(.7071 -.7071 .7071 .7071 -62.1321 149.9998)"/><circle cx="150" cy="150" fill="#86bf5a" r="140.812"/><path d="m242.833 159.673c-2.456-.497-3.305-2.057-4.479-4.218-.826-1.517-1.808-3.315-3.568-4.886l1.603-9.094c1.312-7.259-16.772-15.198-37.983-19.046-13.448-2.45-26.372-2.777-34.353-.831-4.57 1.115-7.522 2.973-8.003 5.619l-5.292 30.002c-1.465 8.113-.416 18.04 2.58 27.509 5.008 15.94 15.46 30.548 28.318 32.801 20.468 3.607 45.505-24.404 49.464-46.163l3.142-17.822c.802.984 1.385 2.039 1.95 3.076 1.262 2.321 2.568 4.721 6.138 5.444.081.016.163.024.243.024.568 0 1.077-.399 1.195-.978.133-.659-.295-1.303-.955-1.437zm-61.286 3.997c-1.29 4.811-7.019 7.457-12.792 5.926-2.406-.634-4.439-1.901-5.904-3.52-2.056-2.253-2.996-5.204-2.23-8.025.721-2.69 2.842-4.701 5.576-5.664 2.143-.788 4.68-.919 7.216-.241 5.794 1.552 9.424 6.713 8.134 11.524zm39.842 5.117c-.416 4.963-5.62 8.572-11.568 8.047-5.97-.525-10.453-4.985-10.015-9.949.437-4.964 5.62-8.572 11.59-8.048 5.948.525 10.43 4.964 9.993 9.95z" fill="#fff"/><g fill="#e0e0e0"><path d="m185.708 183.341-2.494-2.287c-.277-.254 0-.703.351-.57l4.235 1.609 4.53-.064c.375-.005.482.512.135.655l-3.126 1.296c-1.232.512-2.648.263-3.631-.639z"/><path d="m172.316 192.701c1.91-.911 4.375-1.215 6.662-1.246 2.333-.016 4.698.214 7.052.649 2.361.396 4.662.988 6.849 1.802 2.138.812 4.35 1.94 5.834 3.449l.147.149c.307.313.808.317 1.12.01.25-.245.302-.619.154-.917-1.331-2.684-3.574-4.32-5.951-5.57-2.385-1.25-4.956-1.995-7.528-2.469-2.579-.434-5.25-.614-7.918-.255-2.661.361-5.329 1.132-7.497 3.198-.317.302-.329.804-.027 1.12.242.254.613.312.914.169z"/><path d="m182.959 195.065 4.953.873c.531.094 1.037-.261 1.131-.792s-.26-1.037-.792-1.131l-4.953-.873c-.531-.094-1.037.261-1.131.792-.093.531.261 1.037.792 1.131z"/></g><path d="m166.196 152.387c1.421-9.163 1.268-18.282-.787-25.76l-1.356-5.029c-4.57 1.115-7.522 2.974-8.003 5.619l-5.292 30.002c-1.465 8.113-.416 18.04 2.58 27.509 3.98-5.27 7.194-11.722 9.512-18.653-2.056-2.253-2.996-5.204-2.23-8.025.722-2.69 2.843-4.701 5.576-5.663z" fill="#efefef"/><path d="m175.648 94.781c-.429-.519-1.197-.595-1.717-.167-.802.66-1.71 1.705-2.763 2.914-4.494 5.166-9.009 9.595-14.639 7.443l-4.508-16.826c-2.18-7.962-24.466-7.595-47.742-1.222-23.277 6.373-42.688 17.005-40.508 24.966l4.415 16.478c-.18.074-.367.132-.537.229-2.213 1.274-2.955 4.238-3.74 7.377-1.029 4.111-2.091 8.362-6.144 10.086-.619.263-.909.98-.644 1.599.198.464.648.742 1.122.742.16 0 .322-.031.478-.098 5.169-2.2 6.492-7.489 7.555-11.738.648-2.591 1.263-5.035 2.547-5.822l3.749 13.992c6.54 23.887 37.214 52.698 59.704 46.673 22.489-6.026 35.116-46.422 28.576-70.308l-3.586-13.383c.729.159 1.444.251 2.138.251 5.914 0 10.562-5.343 13.605-8.84.981-1.127 1.828-2.1 2.474-2.632.517-.425.592-1.194.165-1.714zm-78.777 53.966c-6.601 1.164-12.739-2.352-13.709-7.852s3.595-10.903 10.197-12.067c6.601-1.164 12.738 2.352 13.708 7.852.97 5.502-3.595 10.904-10.196 12.067zm45.117-12.089c-6.299 2.293-12.954-.103-14.864-5.353-1.91-5.248 1.647-11.361 7.946-13.654s12.954.104 14.864 5.352c1.911 5.249-1.647 11.362-7.946 13.655z" fill="#fff"/><g fill="#e0e0e0"><path d="m120.508 154.707-3.615-1.141c-.401-.127-.332-.714.087-.745l5.061-.371 4.569-2.209c.379-.183.732.291.448.601l-2.56 2.796c-1.009 1.101-2.565 1.518-3.99 1.069z"/><path d="m107.894 163.14c2.621 2.094 5.673 2.694 8.678 2.837 3.012.14 5.975-.321 8.81-1.057 2.823-.78 5.62-1.862 8.159-3.489 2.531-1.626 4.873-3.671 6.096-6.796.179-.457-.047-.971-.503-1.15-.366-.143-.77-.027-1.007.261l-.15.182c-1.508 1.829-3.866 3.304-6.172 4.419-2.361 1.121-4.87 2.007-7.466 2.679-2.584.716-5.2 1.203-7.806 1.413-2.555.188-5.335.09-7.555-.74l-.22-.082c-.459-.172-.97.061-1.142.52-.137.367-.012.77.278 1.003z"/><path d="m123.572 169.047 5.441-1.458c.584-.156.929-.756.773-1.339s-.755-.93-1.339-.773l-5.441 1.458c-.584.156-.929.756-.773 1.339.157.583.756.929 1.339.773z"/></g></svg>
