<svg xmlns="http://www.w3.org/2000/svg" id="Layer_1" x="0" y="0" version="1.1" viewBox="0 0 300 300" xml:space="preserve"><style>.st0{fill:#fff}.st3{fill:#9e9e9e}.st5{fill:#636363}.st6{fill:#565656}.st7{fill:#ededed}.st8{fill:#4c4c4c}</style><circle cx="150" cy="150" r="150" class="st0"/><circle cx="150" cy="150" r="140.8" fill="#5ec2d7"/><path fill="#fff" d="M248 160.5h-16.5c-1.6-5.8-3.4-13.8-8.7-17.1-9.5-6-14.5 6.5-17.5 17.1h-13.9c-.8-3-1.6-5.9-2.8-8.7-2.1-5.1-6.1-11.4-12.6-9.2-6.2 2.1-8.3 10.6-9.9 16.1-.2.6-.4 1.2-.5 1.9h-14.1c-1.5-5.7-3.2-12.1-7.3-16-4.9-4.5-10.9-1.8-14 3.3-2.3 3.9-3.7 8.3-4.8 12.7h-14.1c-.6-2.3-1.2-4.6-2-6.7-1.9-5.2-5.2-12.5-11.9-11.6-6.5.9-9.1 8.8-10.7 14.2-.4 1.4-.8 2.8-1.2 4.1h-14c-1.3-5.2-2.9-10.5-6.1-14.5-1.8-2.3-4-3.7-7-3.9-4.8-.3-4.8 7.2 0 7.5 2.4.2 4.2 6.1 5.4 10.9h-11c-2.1 0-3.7 1.7-3.7 3.7s1.7 3.7 3.7 3.7h12.8c1.5 5.7 3.4 13.1 8.5 16.3 9.3 5.8 14.3-5.9 17.3-16.3h14.4c.7 2.7 1.5 5.4 2.6 8 2.1 5.1 6.1 11.4 12.6 9.2 6.2-2.1 8.3-10.6 9.9-16.1.1-.4.2-.7.3-1.1h14.5c1.4 5.5 3.2 11.5 7.1 15.2 4.9 4.5 10.9 1.8 14-3.3 2.2-3.6 3.5-7.8 4.6-12h14.5c.5 2 1.1 4 1.8 6 1.9 5.2 5.2 12.5 11.9 11.6 6.5-.9 9.1-8.8 10.7-14.2.4-1.1.7-2.2 1-3.4h14.5c1.3 4.9 2.8 9.9 5.9 13.7 1.8 2.3 4.1 3.7 7 3.9 4.8.3 4.8-7.2 0-7.5-2.3-.1-4-5.5-5.2-10.1H248c2.1 0 3.7-1.7 3.7-3.7s-1.6-3.7-3.7-3.7zm-164.8 7.6c-.8 2.6-1.6 7.2-3.8 9.1-2.9 2.6-5.1-5.5-6.1-9.2l9.9.1c0-.1 0-.1 0 0zm10.1-7.6c.5-1.8.9-3.3 1.2-4.3.4-1.2 2-6.6 3.8-6.6 1.4 0 2.6 3.4 3 4.3.9 2.1 1.7 4.3 2.3 6.6H93.3zm29.6 8.9c-.6 1.9-1.8 7.5-3.9 8.4-1.5.6-2-.8-2.7-2.2-1.3-2.4-2.2-4.9-3-7.5h10.1c-.2.4-.4.8-.5 1.3zm11.3-11.9c.5-1.6 1.8-6.9 3.7-7.6 2.5-.9 4.6 6.3 5.8 10.6h-10.4c.2-1 .5-2 .9-3zm28.5 12.8c-.5 1.6-1.8 6.9-3.7 7.6-2.3.8-4.4-5.5-5.6-9.9h10c-.3.8-.5 1.5-.7 2.3zm10.6-9.8l.6-2.1c.6-1.9 1.8-7.5 3.9-8.4 1.5-.6 2 .8 2.7 2.2 1.4 2.6 2.4 5.4 3.3 8.3h-10.5zm29 11.1c-.4 1.2-2 6.6-3.8 6.6-1.4 0-2.6-3.4-3-4.3-.8-1.9-1.5-3.8-2.1-5.8h9.9c-.3 1.4-.7 2.6-1 3.5zm11.3-11.8c.8-2.6 1.7-7.2 3.8-9.1 3.2-2.8 5.5 6.8 6.3 9.9h-10.4c.2-.3.3-.6.3-.8z" opacity=".5"/><path d="M106.8 101.4l5.6-3.3v10.5l-5.5-4.7zm86.3.1l-5.6-3.3v10.5l5.5-4.7z" class="st3"/><path fill="#d1d1d1" d="M191.6 104.9c0 13.1-6 24.7-15.4 32.3-.6.5-1.2 1-1.9 1.4-1.7 1-4 1.8-6.7 2.5l-.1 1.4c-5.3 2.5-11.3 3.9-17.5 3.9s-12.2-1.4-17.5-3.9l-.1-1.4c-2.8-.7-5.1-1.6-6.7-2.5-.6-.5-1.3-.9-1.9-1.4-9.4-7.6-15.4-19.3-15.4-32.3 0-23 18.6-41.6 41.6-41.6s41.6 18.6 41.6 41.6z"/><path d="M186.1 125.6c-2.5 4.5-5.9 8.4-9.9 11.6-.6.5-1.2 1-1.9 1.4-1.7 1-4 1.8-6.7 2.5l-.1 1.4c-5.3 2.5-11.3 3.9-17.5 3.9s-12.2-1.4-17.5-3.9l-.1-1.4c-2.8-.7-5.1-1.6-6.7-2.5-.6-.5-1.3-.9-1.9-1.4-4-3.2-7.3-7.2-9.9-11.6 7.2-5.7 20.7-9.5 36.1-9.5s28.9 3.8 36.1 9.5z" class="st5"/><path d="M177.3 135c0 .8-.4 1.5-1 2.2-.5.5-1.1 1-1.9 1.4-1.7 1-4 1.8-6.7 2.5-4.8 1.2-10.9 1.9-17.6 1.9s-12.9-.7-17.6-1.9c-2.8-.7-5.1-1.6-6.7-2.5-.8-.5-1.4-.9-1.9-1.4-.7-.7-1-1.5-1-2.2 0-4.5 12.2-8.2 27.3-8.2 14.9 0 27.1 3.6 27.1 8.2zm16.1-31.7c0 .6-.6 1-1.2.7-4.3-2.5-20.1-10.4-42.3-10.4-22.2 0-37.9 7.9-42.2 10.4-.5.3-1.2-.1-1.2-.7l.1-4.2c0-1.1.6-2.1 1.6-2.6 4.7-2.6 20.1-9.8 41.7-9.8s36.9 7.2 41.6 9.8c1 .5 1.6 1.5 1.6 2.6l.3 4.2z" class="st3"/><path d="M167.7 140.4v.8l-.1 1.4-3.6 75.5h-27.9l-3.6-75.5-.1-1.4v-.8c0-3 7.9-5.4 17.7-5.4s17.6 2.4 17.6 5.4z" class="st6"/><path d="M132.4 142.6l.3 7.3c1.8-2.4 8.8-4.2 17.2-4.2s15.4 1.8 17.2 4.2l.3-7.3.1-1.4v-.8c0-3-7.9-5.4-17.7-5.4s-17.7 2.4-17.7 5.4v.8l.3 1.4z" class="st7"/><ellipse cx="150" cy="218.1" class="st8" rx="13.9" ry="5.5"/><path d="M155.9 219.3v.5l-1.2 15.6h-9.3l-1.2-15.6v-.5c0-.6 2.6-1.1 5.9-1.1s5.8.5 5.8 1.1z" class="st6"/><path d="M155.9 219.3v.5l-.3 3.6c-.8-.5-3-.8-5.6-.8-2.6 0-4.7.3-5.6.8l-.3-3.6v-.5c0-.6 2.6-1.1 5.9-1.1 3.2 0 5.9.5 5.9 1.1z" class="st7"/><ellipse cx="150" cy="235.3" class="st8" rx="4.6" ry="1.4"/><path d="M151.9 178h-3.8c-1.9 0-3.4-1.5-3.4-3.4v-9.7c0-1.9 1.5-3.4 3.4-3.4h3.8c1.9 0 3.4 1.5 3.4 3.4v9.7c0 1.9-1.5 3.4-3.4 3.4z" class="st8"/><path d="M151.9 175.1h-3.8c-1.9 0-3.4-1.5-3.4-3.4V162c0-1.9 1.5-3.4 3.4-3.4h3.8c1.9 0 3.4 1.5 3.4 3.4v9.7c0 1.9-1.5 3.4-3.4 3.4z" class="st5"/><path fill="#e2e2e2" d="M152.1 170.2H148c-.4 0-.7-.3-.7-.7v-4.1c0-.4.3-.7.7-.7h4.1c.4 0 .7.3.7.7v4.1c-.1.4-.4.7-.7.7z"/><path d="M152.1 169H148c-.4 0-.7-.3-.7-.7v-4.1c0-.4.3-.7.7-.7h4.1c.4 0 .7.3.7.7v4.1c-.1.4-.4.7-.7.7z" class="st0"/></svg>