<?xml version="1.0" encoding="utf-8"?>
<!-- Generator: Adobe Illustrator 23.0.6, SVG Export Plug-In . SVG Version: 6.00 Build 0)  -->
<svg version="1.0" id="Camada_1" xmlns="http://www.w3.org/2000/svg" xmlns:xlink="http://www.w3.org/1999/xlink" x="0px" y="0px"
	 viewBox="0 0 300 300" enable-background="new 0 0 300 300" xml:space="preserve">
<ellipse transform="matrix(0.7071 -0.7071 0.7071 0.7071 -62.1321 149.9998)" fill="#FFFFFF" cx="150" cy="150" rx="150" ry="150"/>
<circle fill="#5EC2D7" cx="150" cy="150" r="140.812"/>
<g opacity="0.58">
	<path fill="#FFFFFF" d="M56.99,150.002c8.648-6.769,8.557-20.305-4.133-20.305c-4.041,0-8.273,2.445-10.715,6.299
		c-3.762,5.92-13.631,1.975-9.873-6.486c4.232-8.273,12.41-11.561,20.588-11.561c22.275,0,31.111,22.934,13.252,40.322
		c-6.861,5.828-11.561,9.211-18.234,13.16c4.137,0,9.115-0.566,13.252-0.566h10.902c7.24,0,8.178,12.127,0,12.127H35.56
		c-5.828,0-8.178-5.641-4.137-9.869C39.884,164.1,47.874,158.271,56.99,150.002z"/>
	<path fill="#FFFFFF" d="M114.731,184.025c-38.727,0-38.16-68.051-0.092-68.051C150.542,115.975,151.013,184.025,114.731,184.025z
		 M114.639,171.715c19.83,0,19.551-43.051,0.092-43.051C93.018,128.664,92.739,171.715,114.639,171.715z"/>
	<path fill="#FFFFFF" d="M179.154,184.025c-38.727,0-38.16-68.051-0.092-68.051C214.965,115.975,215.436,184.025,179.154,184.025z
		 M179.062,171.715c19.83,0,19.551-43.051,0.092-43.051C157.441,128.664,157.158,171.715,179.062,171.715z"/>
	<path fill="#FFFFFF" d="M243.574,184.025c-38.727,0-38.16-68.051-0.092-68.051C279.384,115.975,279.855,184.025,243.574,184.025z
		 M243.482,171.715c19.83,0,19.551-43.051,0.092-43.051C221.861,128.664,221.578,171.715,243.482,171.715z"/>
</g>
<g>
	<path fill="#633C1C" d="M190.989,195.193v7.104c0,22.639-18.354,31.703-40.983,31.703c-22.64,0-40.994-9.064-40.994-31.703v-7.104
		c0-2.019,0.215-4.035,0.619-6.02l8.805-10.869c1.286-1.631,2.65-3.194,4.093-4.689c-0.897-1.44-1.691-2.936-2.38-4.487
		c-1.522-3.417-2.424-7.025-2.424-10.667v-7.102c0-1.861,0.158-3.608,0.474-5.243h63.6c0.316,1.634,0.475,3.382,0.475,5.243v7.102
		c0,3.641-0.903,7.249-2.413,10.667c-0.691,1.552-1.488,3.047-2.39,4.487c2.03,2.097,5.626,6.731,5.626,6.731l6.301,5.139v0.012
		C190.414,188.665,190.989,191.913,190.989,195.193L190.989,195.193z"/>
	<path fill="#7C4923" d="M190.989,195.193c0,22.64-18.354,31.705-40.983,31.705c-22.64,0-40.994-9.064-40.994-31.705
		c0-2.019,0.215-4.035,0.619-6.02c1.477-7.249,5.445-14.162,10.519-20.046l0.028-0.035c1.312-1.539,1.619-3.693,0.707-5.498
		c-1.963-3.882-3.159-8.024-3.159-12.236c0-1.861,0.158-3.608,0.473-5.243c2.593-14.003,15.841-19.719,31.806-19.719
		c15.955,0,29.201,5.716,31.793,19.719c0.316,1.634,0.475,3.382,0.475,5.243c0,4.211-1.194,8.35-3.154,12.228
		c-0.222,0.443-0.374,0.909-0.456,1.397c-0.082,0.489-0.092,0.978-0.028,1.47c0.064,0.491,0.199,0.962,0.404,1.414
		c0.205,0.451,0.471,0.862,0.799,1.234l0.022,0.027c4.195,4.88,7.645,10.463,9.538,16.358v0.012
		C190.414,188.665,190.989,191.913,190.989,195.193z"/>
	<path fill="#4C4C4C" d="M167.726,196.938h-35.458c-0.162,0-0.319-0.031-0.469-0.093c-0.15-0.062-0.283-0.151-0.397-0.265
		c-0.115-0.115-0.203-0.247-0.266-0.397c-0.062-0.15-0.093-0.306-0.094-0.469v-4.332c0-0.678,0.549-1.227,1.226-1.227h35.458
		c0.677,0,1.224,0.549,1.224,1.227v4.332c0,0.162-0.032,0.318-0.094,0.468c-0.062,0.15-0.151,0.282-0.265,0.397
		c-0.115,0.115-0.247,0.203-0.397,0.265C168.044,196.906,167.888,196.937,167.726,196.938z"/>
	<path fill="#565656" d="M167.726,194.525h-35.458c-0.162,0-0.319-0.031-0.469-0.093c-0.15-0.062-0.283-0.151-0.397-0.265
		c-0.115-0.115-0.203-0.247-0.266-0.397c-0.062-0.15-0.093-0.306-0.094-0.469v-4.332c0-0.678,0.549-1.227,1.226-1.227h35.458
		c0.677,0,1.224,0.549,1.224,1.227v4.332c0,0.162-0.032,0.318-0.094,0.468c-0.062,0.15-0.151,0.282-0.265,0.397
		c-0.115,0.115-0.247,0.203-0.397,0.266C168.044,194.493,167.888,194.524,167.726,194.525z"/>
	<path fill="#632E0A" d="M158.589,195.732h-17.184c-0.115,0-0.225-0.022-0.331-0.066c-0.106-0.044-0.2-0.106-0.281-0.188
		c-0.081-0.081-0.144-0.175-0.188-0.281s-0.066-0.216-0.066-0.331v-5.053c0-0.477,0.387-0.866,0.866-0.866h17.184
		c0.477,0,0.866,0.388,0.866,0.866v5.053c0,0.115-0.022,0.225-0.067,0.331c-0.044,0.106-0.107,0.199-0.188,0.28
		c-0.081,0.081-0.175,0.144-0.28,0.188C158.814,195.709,158.704,195.732,158.589,195.732z"/>
	<path fill="#934C16" d="M158.589,193.182h-17.184c-0.115,0-0.225-0.022-0.331-0.065c-0.106-0.044-0.2-0.106-0.281-0.187
		c-0.081-0.081-0.144-0.174-0.188-0.28c-0.044-0.106-0.066-0.216-0.066-0.331v-5.054c0-0.478,0.387-0.866,0.866-0.866h17.184
		c0.477,0,0.866,0.387,0.866,0.866v5.053c0,0.115-0.023,0.225-0.067,0.331c-0.044,0.106-0.107,0.199-0.188,0.28
		c-0.081,0.081-0.175,0.143-0.281,0.187C158.814,193.16,158.704,193.182,158.589,193.182L158.589,193.182z"/>
	<path fill="#301C02" d="M156.134,94.852h-12.275c-0.195,0-0.383-0.035-0.565-0.105c-0.182-0.07-0.345-0.17-0.489-0.301
		c-0.144-0.131-0.261-0.283-0.348-0.457c-0.088-0.174-0.141-0.358-0.161-0.552l-2.238-22.178h19.878l-2.238,22.178
		c-0.02,0.194-0.073,0.378-0.161,0.551c-0.088,0.174-0.204,0.326-0.348,0.457c-0.144,0.131-0.308,0.231-0.489,0.301
		C156.517,94.817,156.329,94.852,156.134,94.852"/>
	<path fill="#5B3801" d="M156.356,66h-12.718c-0.263,0-0.523,0.027-0.779,0.082c-0.257,0.055-0.505,0.136-0.745,0.243
		c-0.24,0.108-0.466,0.239-0.678,0.394c-0.212,0.155-0.405,0.331-0.58,0.527c-0.175,0.196-0.327,0.409-0.457,0.637
		c-0.13,0.228-0.234,0.468-0.313,0.718c-0.079,0.251-0.131,0.507-0.156,0.768c-0.025,0.262-0.022,0.523,0.008,0.784l2.34,20.2
		c0.022,0.191,0.078,0.373,0.167,0.544c0.089,0.171,0.205,0.321,0.349,0.449c0.144,0.128,0.306,0.227,0.486,0.295
		c0.18,0.069,0.367,0.103,0.559,0.103h12.317c0.798,0,1.47-0.598,1.561-1.391l2.34-20.2c0.03-0.261,0.032-0.522,0.007-0.784
		c-0.025-0.262-0.077-0.517-0.157-0.768c-0.079-0.25-0.184-0.49-0.314-0.718c-0.13-0.228-0.282-0.441-0.457-0.637
		c-0.175-0.196-0.368-0.372-0.58-0.527c-0.212-0.155-0.438-0.287-0.677-0.394c-0.24-0.108-0.488-0.189-0.745-0.244
		C156.878,66.028,156.618,66,156.356,66L156.356,66z"/>
	<path fill="#934C16" d="M149.85,173.972c-10.227,0-18.547-8.319-18.547-18.547c0-10.227,8.319-18.548,18.547-18.548
		c10.227,0,18.549,8.321,18.549,18.548C168.399,165.652,160.077,173.972,149.85,173.972L149.85,173.972z"/>
	
		<ellipse transform="matrix(0.2298 -0.9732 0.9732 0.2298 -35.846 265.5576)" fill="#5B3801" cx="149.85" cy="155.425" rx="15.68" ry="15.68"/>
	<path fill="#565656" d="M163.912,155.424c0,0.461-0.023,0.92-0.068,1.378c-0.045,0.458-0.113,0.913-0.203,1.365
		c-0.09,0.452-0.202,0.898-0.335,1.339s-0.289,0.874-0.465,1.299c-0.176,0.425-0.373,0.841-0.59,1.247
		c-0.217,0.406-0.454,0.801-0.709,1.184c-0.256,0.383-0.53,0.752-0.822,1.108c-0.292,0.356-0.601,0.697-0.927,1.022
		c-0.326,0.326-0.667,0.635-1.022,0.927c-0.356,0.292-0.725,0.566-1.108,0.822c-0.383,0.256-0.777,0.492-1.184,0.709
		c-0.406,0.217-0.822,0.414-1.247,0.59c-0.425,0.176-0.859,0.331-1.299,0.465c-0.441,0.134-0.887,0.245-1.339,0.335
		c-0.452,0.09-0.907,0.157-1.365,0.202c-0.458,0.045-0.918,0.068-1.378,0.068c-0.461,0-0.92-0.023-1.378-0.068
		c-0.458-0.045-0.913-0.113-1.365-0.202c-0.452-0.09-0.898-0.202-1.339-0.335c-0.441-0.134-0.874-0.289-1.299-0.465
		c-0.425-0.176-0.841-0.373-1.247-0.59c-0.406-0.217-0.801-0.454-1.184-0.709c-0.383-0.256-0.752-0.53-1.108-0.822
		c-0.356-0.292-0.697-0.601-1.022-0.927c-0.326-0.326-0.635-0.666-0.927-1.022c-0.292-0.356-0.566-0.725-0.822-1.108
		c-0.256-0.383-0.492-0.777-0.709-1.184c-0.217-0.406-0.414-0.822-0.59-1.247c-0.176-0.425-0.331-0.859-0.465-1.299
		c-0.134-0.441-0.245-0.887-0.335-1.339c-0.09-0.452-0.157-0.907-0.202-1.365c-0.045-0.458-0.068-0.918-0.068-1.378
		c0-0.461,0.023-0.92,0.068-1.378c0.045-0.458,0.113-0.913,0.202-1.365c0.09-0.452,0.202-0.898,0.335-1.339
		c0.134-0.441,0.289-0.874,0.465-1.299c0.176-0.425,0.373-0.841,0.59-1.247c0.217-0.406,0.454-0.801,0.709-1.184
		c0.256-0.383,0.53-0.752,0.822-1.108c0.292-0.356,0.601-0.697,0.927-1.022c0.326-0.326,0.666-0.635,1.022-0.927
		c0.356-0.292,0.725-0.566,1.108-0.822c0.383-0.256,0.777-0.492,1.184-0.709c0.406-0.217,0.822-0.414,1.247-0.59
		c0.426-0.176,0.859-0.331,1.299-0.465c0.441-0.134,0.887-0.245,1.339-0.335c0.452-0.09,0.907-0.157,1.365-0.202
		c0.458-0.045,0.918-0.068,1.378-0.068c0.461,0,0.92,0.023,1.378,0.068c0.458,0.045,0.913,0.113,1.365,0.202
		c0.452,0.09,0.898,0.202,1.339,0.335c0.441,0.134,0.874,0.289,1.299,0.465c0.426,0.176,0.841,0.373,1.247,0.59
		c0.406,0.217,0.801,0.454,1.184,0.709c0.383,0.256,0.752,0.53,1.108,0.822c0.356,0.292,0.697,0.601,1.022,0.927
		c0.326,0.326,0.635,0.666,0.927,1.022s0.566,0.725,0.822,1.108c0.256,0.383,0.492,0.777,0.709,1.184
		c0.217,0.406,0.414,0.822,0.59,1.247c0.176,0.426,0.331,0.859,0.465,1.299c0.134,0.441,0.245,0.887,0.335,1.339
		c0.09,0.452,0.157,0.907,0.202,1.365C163.889,154.504,163.912,154.964,163.912,155.424z"/>
	<path fill="#4C4C4C" d="M149.85,147.286c6.749,0,12.381,4.757,13.743,11.1c0.211-0.973,0.318-1.965,0.319-2.962
		c0-7.766-6.295-14.062-14.062-14.062c-7.766,0-14.061,6.296-14.061,14.062c0,1.016,0.113,2.006,0.318,2.962
		C137.469,152.044,143.102,147.286,149.85,147.286z"/>
	<path fill="#934C16" d="M155.604,142.584c-1.826-0.825-3.742-1.235-5.746-1.229c-1.942,0-3.787,0.388-5.47,1.1l1.52-48.147v-0.016
		c0-0.437,0.097-0.826,0.259-1.004l0.162-0.08h7.331l0.243,0.178l0.112,0.307c0.033,0.178,0.065,0.388,0.065,0.615l0.016,0.518
		L155.604,142.584"/>
	<path fill="#D29338" d="M153.669,93.195h-7.344c-0.235,0-0.422,0.502-0.422,1.101v0.187l0.005-0.176v-0.016
		c0-0.437,0.097-0.826,0.259-1.004l0.162-0.08h7.331l0.243,0.178l0.112,0.307c0.033,0.178,0.065,0.388,0.065,0.615l0.01,0.312
		v-0.323C154.091,93.697,153.905,93.195,153.669,93.195"/>
	<path fill="#3F3F3F" d="M147.367,190.057V73.292c0.001-0.168-0.057-0.312-0.175-0.431c-0.118-0.119-0.261-0.18-0.429-0.18
		s-0.311,0.058-0.43,0.177c-0.119,0.119-0.179,0.262-0.179,0.43v116.771c0,0.168,0.059,0.311,0.177,0.429
		c0.118,0.119,0.261,0.178,0.429,0.179c0.168,0,0.311-0.059,0.429-0.177s0.178-0.261,0.179-0.429V190.057 M153.84,190.057V79.315
		c0.001-0.168-0.057-0.312-0.175-0.431c-0.118-0.119-0.261-0.18-0.429-0.18c-0.168-0.001-0.311,0.058-0.43,0.177
		c-0.119,0.119-0.179,0.262-0.179,0.43v110.748c-0.001,0.168,0.057,0.312,0.175,0.431c0.118,0.119,0.261,0.18,0.429,0.18
		c0.168,0.001,0.311-0.058,0.431-0.177c0.119-0.119,0.179-0.262,0.179-0.43V190.057 M150.604,190.057V85.295
		c0.001-0.168-0.057-0.312-0.175-0.431c-0.118-0.119-0.261-0.18-0.429-0.18c-0.168-0.001-0.311,0.058-0.431,0.177
		c-0.119,0.119-0.179,0.262-0.179,0.43v104.767c-0.001,0.168,0.057,0.312,0.175,0.431c0.118,0.119,0.261,0.18,0.429,0.18
		c0.168,0.001,0.311-0.058,0.43-0.177c0.119-0.119,0.179-0.262,0.179-0.43V190.057"/>
</g>
</svg>
