<svg xmlns="http://www.w3.org/2000/svg" version="1.0" viewBox="0 0 300 300"><circle cx="150" cy="150" r="149.957" fill="#FFF"/><circle cx="150" cy="150" r="140.772" fill="#EB595B"/><path fill="#3F3F3F" d="M227.915 195.054H71.457a4.682 4.682 0 01-4.683-4.682v-58.42a2.182 2.182 0 012.182-2.182h161.46a2.182 2.182 0 012.182 2.182v58.42a4.682 4.682 0 01-4.683 4.682z"/><path fill="#494949" d="M233.211 132.548v50.38c0 3.298-4.115 5.96-9.179 5.96H76.57c-5.079 0-9.179-2.662-9.179-5.96v-50.38c0-1.537 1.914-2.779 4.265-2.779H228.93c2.367 0 4.281 1.243 4.281 2.779z"/><path fill="#3D3D3D" d="M78.11 140.199h67.875v52.874H78.11z"/><path fill="#E2E2E2" d="M84.909 198.371h-7.152a3.235 3.235 0 01-1.247-.248 3.247 3.247 0 01-1.949-2.375 3.235 3.235 0 01-.063-.636V140.2h13.671v54.912a3.312 3.312 0 01-.247 1.247 3.247 3.247 0 01-2.376 1.949c-.21.041-.423.063-.637.063z"/><path fill="#FFF" d="M84.909 193.073h-7.152a3.235 3.235 0 01-1.247-.249 3.247 3.247 0 01-1.949-2.375 3.235 3.235 0 01-.063-.636v-49.614h13.671v49.614a3.312 3.312 0 01-.247 1.248 3.247 3.247 0 01-2.376 1.949 3.253 3.253 0 01-.637.063z"/><path fill="#E2E2E2" d="M100.267 198.371h-7.152a3.235 3.235 0 01-1.247-.248 3.247 3.247 0 01-1.949-2.375 3.235 3.235 0 01-.063-.636V140.2h13.671v54.912a3.235 3.235 0 01-.248 1.247 3.247 3.247 0 01-2.375 1.949 3.253 3.253 0 01-.637.063z"/><path fill="#FFF" d="M100.267 193.073h-7.152a3.235 3.235 0 01-1.247-.249 3.247 3.247 0 01-1.949-2.375 3.235 3.235 0 01-.063-.636v-49.614h13.671v49.614a3.235 3.235 0 01-.248 1.247 3.247 3.247 0 01-2.375 1.949 3.18 3.18 0 01-.637.064z"/><path fill="#E2E2E2" d="M115.624 198.371h-7.152a3.235 3.235 0 01-1.247-.248 3.216 3.216 0 01-1.058-.706 3.257 3.257 0 01-.954-2.305V140.2h13.671v54.912a3.235 3.235 0 01-.248 1.247 3.247 3.247 0 01-2.375 1.949 3.253 3.253 0 01-.637.063z"/><path fill="#FFF" d="M115.624 193.073h-7.152a3.235 3.235 0 01-1.247-.248 3.247 3.247 0 01-1.949-2.375 3.235 3.235 0 01-.063-.636V140.2h13.671v49.614a3.235 3.235 0 01-.248 1.247 3.247 3.247 0 01-2.375 1.949 3.253 3.253 0 01-.637.063z"/><path fill="#E2E2E2" d="M130.981 198.371h-7.152a3.235 3.235 0 01-1.247-.248 3.247 3.247 0 01-1.949-2.375 3.235 3.235 0 01-.063-.636V140.2h13.671v54.912a3.235 3.235 0 01-.248 1.247 3.247 3.247 0 01-2.375 1.949 3.253 3.253 0 01-.637.063z"/><path fill="#FFF" d="M130.981 193.073h-7.152a3.235 3.235 0 01-1.247-.249 3.247 3.247 0 01-1.949-2.375 3.235 3.235 0 01-.063-.636v-49.614h13.671v49.614a3.235 3.235 0 01-.248 1.247 3.247 3.247 0 01-2.375 1.949 3.316 3.316 0 01-.637.064z"/><path fill="#E2E2E2" d="M146.338 198.371h-7.152a3.235 3.235 0 01-1.247-.248 3.247 3.247 0 01-1.949-2.375 3.235 3.235 0 01-.063-.636V140.2h13.671v54.912a3.235 3.235 0 01-.248 1.247 3.247 3.247 0 01-2.375 1.949 3.253 3.253 0 01-.637.063z"/><path fill="#FFF" d="M146.338 193.073h-7.152a3.235 3.235 0 01-1.247-.249 3.247 3.247 0 01-1.949-2.375 3.235 3.235 0 01-.063-.636v-49.614h13.671v49.614a3.235 3.235 0 01-.248 1.247 3.247 3.247 0 01-2.375 1.949 3.18 3.18 0 01-.637.064z"/><path fill="#4C4C4C" d="M90.994 175.006H87.03a2.658 2.658 0 01-1.032-.205 2.706 2.706 0 01-1.459-1.459 2.658 2.658 0 01-.205-1.032v-25.147h9.357v25.147a2.658 2.658 0 01-.205 1.032 2.706 2.706 0 01-1.459 1.459 2.675 2.675 0 01-1.033.205z"/><path fill="#565656" d="M90.994 169.709H87.03a2.658 2.658 0 01-1.032-.205 2.706 2.706 0 01-1.459-1.459 2.658 2.658 0 01-.205-1.032V140.2h9.357v26.813a2.658 2.658 0 01-.205 1.032 2.731 2.731 0 01-.993 1.21 2.743 2.743 0 01-.972.402c-.175.035-.35.052-.527.052z"/><path fill="#4C4C4C" d="M106.351 175.006h-3.964a2.658 2.658 0 01-1.032-.205 2.706 2.706 0 01-1.459-1.459 2.658 2.658 0 01-.205-1.032v-25.147h9.358v25.147a2.658 2.658 0 01-.206 1.032 2.706 2.706 0 01-1.459 1.459 2.71 2.71 0 01-1.033.205z"/><path fill="#565656" d="M106.351 169.709h-3.964a2.658 2.658 0 01-1.032-.205 2.706 2.706 0 01-1.459-1.459 2.658 2.658 0 01-.205-1.032V140.2h9.358v26.813a2.658 2.658 0 01-.206 1.032 2.706 2.706 0 01-1.459 1.459 2.71 2.71 0 01-1.033.205z"/><path fill="#4C4C4C" d="M137.065 175.006h-3.964a2.658 2.658 0 01-1.032-.205 2.706 2.706 0 01-1.459-1.459 2.658 2.658 0 01-.205-1.032v-25.147h9.358v25.147a2.658 2.658 0 01-.205 1.032 2.706 2.706 0 01-1.459 1.459 2.685 2.685 0 01-1.034.205z"/><path fill="#565656" d="M137.065 169.709h-3.964a2.658 2.658 0 01-1.032-.205 2.706 2.706 0 01-1.459-1.459 2.658 2.658 0 01-.205-1.032V140.2h9.358v26.813a2.658 2.658 0 01-.205 1.032 2.706 2.706 0 01-1.459 1.459 2.685 2.685 0 01-1.034.205z"/><path fill="#3D3D3D" d="M154.617 140.199h67.875v52.874h-67.875z"/><path fill="#E2E2E2" d="M161.415 198.371h-7.152a3.235 3.235 0 01-1.247-.248 3.247 3.247 0 01-1.949-2.375 3.235 3.235 0 01-.063-.636V140.2h13.671v54.912a3.312 3.312 0 01-.247 1.247 3.247 3.247 0 01-2.376 1.949 3.253 3.253 0 01-.637.063z"/><path fill="#FFF" d="M161.415 193.073h-7.152a3.235 3.235 0 01-1.247-.248 3.247 3.247 0 01-1.949-2.375 3.235 3.235 0 01-.063-.636V140.2h13.671v49.614a3.312 3.312 0 01-.247 1.248 3.247 3.247 0 01-2.376 1.949 3.33 3.33 0 01-.637.062z"/><path fill="#E2E2E2" d="M176.773 198.371h-7.152a3.235 3.235 0 01-1.247-.248 3.247 3.247 0 01-1.764-1.764 3.287 3.287 0 01-.249-1.247V140.2h13.671v54.912a3.235 3.235 0 01-.248 1.247 3.247 3.247 0 01-2.375 1.949c-.21.042-.422.063-.636.063z"/><path fill="#FFF" d="M176.773 193.073h-7.152a3.235 3.235 0 01-1.247-.249 3.247 3.247 0 01-1.764-1.764 3.287 3.287 0 01-.249-1.247v-49.614h13.671v49.614a3.235 3.235 0 01-.248 1.247 3.247 3.247 0 01-2.375 1.949c-.21.043-.422.064-.636.064z"/><path fill="#E2E2E2" d="M192.13 198.371h-7.152a3.235 3.235 0 01-1.247-.248 3.247 3.247 0 01-1.949-2.375 3.235 3.235 0 01-.063-.636V140.2h13.671v54.912a3.235 3.235 0 01-.248 1.247 3.247 3.247 0 01-2.375 1.949 3.253 3.253 0 01-.637.063z"/><path fill="#FFF" d="M192.13 193.073h-7.152a3.235 3.235 0 01-1.247-.249 3.247 3.247 0 01-1.949-2.375 3.305 3.305 0 01-.063-.636v-49.614h13.671v49.614a3.235 3.235 0 01-.248 1.247 3.247 3.247 0 01-2.375 1.949 3.18 3.18 0 01-.637.064z"/><path fill="#E2E2E2" d="M207.487 198.371h-7.152a3.235 3.235 0 01-1.247-.248 3.247 3.247 0 01-1.949-2.375 3.235 3.235 0 01-.063-.636V140.2h13.671v54.912a3.235 3.235 0 01-.248 1.247 3.247 3.247 0 01-2.375 1.949 3.253 3.253 0 01-.637.063z"/><path fill="#FFF" d="M207.487 193.073h-7.152a3.235 3.235 0 01-1.247-.249 3.247 3.247 0 01-1.949-2.375 3.235 3.235 0 01-.063-.636v-49.614h13.671v49.614a3.235 3.235 0 01-.248 1.247 3.247 3.247 0 01-2.375 1.949 3.316 3.316 0 01-.637.064z"/><path fill="#E2E2E2" d="M222.845 198.371h-7.152a3.235 3.235 0 01-1.247-.248 3.247 3.247 0 01-1.949-2.375 3.235 3.235 0 01-.063-.636V140.2h13.671v54.912a3.235 3.235 0 01-.248 1.247 3.247 3.247 0 01-2.376 1.949c-.21.042-.422.063-.636.063z"/><path fill="#FFF" d="M222.845 193.073h-7.152a3.235 3.235 0 01-1.247-.248 3.247 3.247 0 01-1.949-2.375 3.235 3.235 0 01-.063-.636V140.2h13.671v49.614a3.235 3.235 0 01-.248 1.248 3.247 3.247 0 01-2.376 1.949c-.21.041-.422.062-.636.062z"/><path fill="#4C4C4C" d="M167.501 175.006h-3.964a2.658 2.658 0 01-1.032-.205 2.706 2.706 0 01-1.459-1.459 2.658 2.658 0 01-.205-1.032v-25.147h9.358v25.147a2.658 2.658 0 01-.206 1.032 2.706 2.706 0 01-1.459 1.459 2.71 2.71 0 01-1.033.205z"/><path fill="#565656" d="M167.501 169.709h-3.964a2.658 2.658 0 01-1.032-.205 2.706 2.706 0 01-1.459-1.459 2.658 2.658 0 01-.205-1.032V140.2h9.358v26.813a2.658 2.658 0 01-.206 1.032 2.706 2.706 0 01-1.459 1.459 2.71 2.71 0 01-1.033.205z"/><path fill="#4C4C4C" d="M182.858 175.006h-3.964a2.658 2.658 0 01-1.032-.205 2.706 2.706 0 01-1.459-1.459 2.658 2.658 0 01-.205-1.032v-25.147h9.358v25.147a2.735 2.735 0 01-.206 1.032 2.706 2.706 0 01-1.459 1.459 2.71 2.71 0 01-1.033.205z"/><path fill="#565656" d="M182.858 169.709h-3.964a2.658 2.658 0 01-1.032-.205 2.706 2.706 0 01-1.459-1.459 2.658 2.658 0 01-.205-1.032V140.2h9.358v26.813a2.735 2.735 0 01-.206 1.032 2.706 2.706 0 01-1.459 1.459 2.71 2.71 0 01-1.033.205z"/><path fill="#4C4C4C" d="M213.573 175.006h-3.964a2.658 2.658 0 01-1.032-.205 2.706 2.706 0 01-1.459-1.459 2.658 2.658 0 01-.205-1.032v-25.147h9.358v25.147a2.658 2.658 0 01-.206 1.032 2.706 2.706 0 01-1.459 1.459 2.71 2.71 0 01-1.033.205z"/><path fill="#565656" d="M213.573 169.709h-3.964a2.658 2.658 0 01-1.032-.205 2.706 2.706 0 01-1.459-1.459 2.658 2.658 0 01-.205-1.032V140.2h9.358v26.813a2.658 2.658 0 01-.206 1.032 2.706 2.706 0 01-1.459 1.459 2.71 2.71 0 01-1.033.205z"/><path fill="#996022" d="M209.435 186.224c-2.156-.655-4.452 1.167-4.7 3.729l-.343 3.534-.499.98-1.564 2.889-.016-.001 1.095-6.399.387-2.263.002-5.436a4.102 4.102 0 00-.224-1.327 4.002 4.002 0 00-1.112-1.671 4.037 4.037 0 00-1.781-.927 4.028 4.028 0 00-4.937 3.922l-.002 3.572-2.256 9.782-.793-.067 1.851-9.259.06-2.295-.775-5.381a4 4 0 00-.412-1.282 3.976 3.976 0 00-.811-1.074 4.055 4.055 0 00-1.121-.747 4.086 4.086 0 00-1.304-.336 4.028 4.028 0 00-4.326 4.587l.48 3.534-3.213 11.444a2.287 2.287 0 01-2.885-.236l-.008-.008-.184-11.456c-.024-2.524.307-5 .992-7.43l.645-2.287a3.672 3.672 0 00-.014-2.055 3.694 3.694 0 00-1.675-2.133 3.659 3.659 0 00-1.302-.46 3.729 3.729 0 00-1.379.051 3.705 3.705 0 00-1.796 1 3.65 3.65 0 00-.77 1.146l-1.789 4.178a34.374 34.374 0 00-1.278 3.5h-.001l-.002.007a34.513 34.513 0 00-.906 3.699l-1.412 14.87a8.399 8.399 0 01-1.672-1.818 8.39 8.39 0 01-1.075-2.224l-.432-4.079s-1.493-1.788-3.343-1.068c-1.849.721-2.418 2.69-2.358 3.324.042.451.444 4 .672 6.009.104.913.355 1.799.745 2.63l.823 1.755c.105.223.219.441.342.654l1.55 2.673c.149.256.283.52.404.79l4.106 9.178-.013 1.165a12.04 12.04 0 0011.022 11.763l12.084 1.021a12.033 12.033 0 0012.683-9.037l5.715-22.565.015-.042.652-2.665.521-5.377c.174-1.858-.803-3.507-2.363-3.981zm-60.982-5.128c-1.581-1.201-2.63.243-2.63.243l-2.411 3.669a8.433 8.433 0 01-3.794 3.152l-.539.226 2.166-13.036c.118-1.265.167-2.536.145-3.805v-.008h-.001a34.223 34.223 0 00-.268-3.717l-.573-4.508a3.704 3.704 0 00-.428-1.31 3.653 3.653 0 00-.88-1.061 3.68 3.68 0 00-3.912-.497 3.65 3.65 0 00-1.118.807 3.639 3.639 0 00-.743 1.162 3.666 3.666 0 00-.264 1.353l-.008 2.376a26.386 26.386 0 01-1.086 7.417l-2.331 10.147-1.002.824a2.284 2.284 0 01-2.84-.564l.052-11.886 1.432-3.266a4.026 4.026 0 10-7.35-3.294l-2.223 4.961-.573 2.223-.762 9.412-.782-.154.516-10.025.979-3.436a4.027 4.027 0 10-7.745-2.207l-1.49 5.227-.249 2.282-.704 6.453-.015-.003-.874-1.168-.937-3.421.594-4.189c.465-2.532-.308-3.915-2.561-3.877-1.63.028-3.023 1.345-3.358 3.178l-.975 5.313-.105 2.742.002.045-.7 23.267c-.011.353-.006.706.015 1.058a11.824 11.824 0 00.598 3.11 11.929 11.929 0 001.388 2.846 12.116 12.116 0 002.082 2.385 11.96 11.96 0 001.705 1.251 12.096 12.096 0 002.9 1.273c.339.098.682.181 1.028.249l11.899 2.336a12.038 12.038 0 0013.828-8.284l.578-1.986 7.336-8.73a8.62 8.62 0 01.605-.649l2.224-2.144a8.83 8.83 0 00.508-.534l1.273-1.461a8.364 8.364 0 001.439-2.325c.77-1.869 2.131-5.172 2.296-5.594.229-.597.223-2.648-1.357-3.848z"/><path fill="#494949" d="M233.226 117.47v23.452H66.856V117.47c0-1.207 1.921-2.184 4.28-2.184h157.796c2.373 0 4.294.976 4.294 2.184z"/><ellipse cx="148.419" cy="116.169" fill="#3F3F3F" rx="46.921" ry="18.981"/><ellipse cx="148.419" cy="113.846" fill="#494949" rx="46.921" ry="18.981"/><path fill="#3F3F3F" d="M175.62 111.826s-7.424 7.785-27.201 7.785-27.201-7.785-27.201-7.785l7.585-37.577a6.62 6.62 0 018.157-5.098l11.459 2.979 11.458-2.98a6.621 6.621 0 018.157 5.098l7.586 37.578z"/></svg>