<?xml version="1.0" encoding="utf-8"?>
<!-- Generator: Adobe Illustrator 23.0.6, SVG Export Plug-In . SVG Version: 6.00 Build 0)  -->
<svg version="1.0" id="Layer_1" xmlns="http://www.w3.org/2000/svg" xmlns:xlink="http://www.w3.org/1999/xlink" x="0px" y="0px"
	 viewBox="0 0 300 300" enable-background="new 0 0 300 300" xml:space="preserve">
<g>
	<path fill="#FFFFFF" d="M149.999,300C67.29,300,0,232.71,0,150S67.29,0,149.999,0C232.71,0,300,67.29,300,150
		S232.71,300,149.999,300z"/>
	<circle fill="#86BF5A" cx="150" cy="150" r="140.812"/>
	<g>
		<path fill="#3F3F3F" d="M202.578,128.747v84.67c0,3.633-2.948,6.581-6.593,6.581h-91.972c-3.645,0-6.593-2.948-6.593-6.581v-84.67
			c0-1.7,1.382-3.07,3.071-3.07h99.018C201.208,125.677,202.578,127.047,202.578,128.747"/>
		<path fill="#494949" d="M202.578,128.747v76.964c0,3.645-2.948,6.593-6.593,6.593h-91.972c-3.645,0-6.593-2.948-6.593-6.593
			v-76.964c0-1.7,1.382-3.07,3.071-3.07h99.018C201.208,125.677,202.578,127.047,202.578,128.747"/>
		<rect x="115.631" y="186.103" fill="#3D3D3D" width="68.737" height="33.9"/>
		<path fill="#E2E2E2" d="M129.802,227.689h-15.11c-2.816,0-5.098-2.283-5.098-5.098v-79.305H134.9v79.305
			C134.9,225.407,132.618,227.689,129.802,227.689"/>
		<path fill="#FFFFFF" d="M129.802,220.003h-15.11c-2.816,0-5.098-2.283-5.098-5.098v-71.619H134.9v71.619
			C134.9,217.72,132.618,220.003,129.802,220.003"/>
		<path fill="#E2E2E2" d="M157.555,227.689h-15.11c-2.816,0-5.098-2.283-5.098-5.098v-79.305h25.306v79.305
			C162.653,225.407,160.37,227.689,157.555,227.689"/>
		<path fill="#FFFFFF" d="M157.555,220.003h-15.11c-2.816,0-5.098-2.283-5.098-5.098v-71.619h25.306v71.619
			C162.653,217.72,160.37,220.003,157.555,220.003"/>
		<path fill="#E2E2E2" d="M185.307,227.689h-15.11c-2.816,0-5.098-2.283-5.098-5.098v-79.305h25.306v79.305
			C190.406,225.407,188.123,227.689,185.307,227.689"/>
		<path fill="#FFFFFF" d="M185.307,220.003h-15.11c-2.816,0-5.098-2.283-5.098-5.098v-71.619h25.306v71.619
			C190.406,217.72,188.123,220.003,185.307,220.003"/>
		<path fill="#4C4C4C" d="M139.178,193.789h-6.109c-2.062,0-3.734-1.672-3.734-3.734V153.39h13.577v36.665
			C142.912,192.117,141.24,193.789,139.178,193.789"/>
		<path fill="#565656" d="M139.178,186.103h-6.109c-2.062,0-3.734-1.672-3.734-3.734v-39.083h13.577v39.083
			C142.912,184.431,141.24,186.103,139.178,186.103"/>
		<path fill="#4C4C4C" d="M166.93,193.789h-6.109c-2.062,0-3.734-1.672-3.734-3.734V153.39h13.577v36.665
			C170.665,192.117,168.993,193.789,166.93,193.789"/>
		<path fill="#565656" d="M166.93,186.103h-6.109c-2.062,0-3.734-1.672-3.734-3.734v-39.083h13.577v39.083
			C170.665,184.431,168.993,186.103,166.93,186.103"/>
		<path fill="#494949" d="M202.578,128.747v14.544H97.42v-14.544c0-1.7,1.382-3.07,3.071-3.07h99.018
			C201.208,125.677,202.578,127.047,202.578,128.747"/>
		<path fill="#424242" d="M202.578,143.291h-12.173v31.728c0.001,0,0.001,0,0.002,0c4.281-0.917,8.355-1.97,12.171-3.144V143.291"/>
		<path fill="#E5E5E5" d="M190.406,143.291h-19.741v34.749c6.947-0.685,13.564-1.712,19.741-3.021V143.291"/>
		<path fill="#E5E5E5" d="M157.087,143.291h-14.175v35.642c2.336,0.073,4.708,0.11,7.093,0.11c2.385,0,4.746-0.037,7.082-0.11
			V153.39V143.291"/>
		<path fill="#424242" d="M109.594,143.291H97.42v28.584c3.817,1.174,7.89,2.226,12.171,3.144c0.001,0,0.002,0,0.003,0.001
			L109.594,143.291"/>
		<path fill="#E5E5E5" d="M129.335,143.291h-19.741v31.728c6.176,1.309,12.792,2.336,19.739,3.008c0.001,0,0.001,0,0.002,0V153.39
			V143.291"/>
		<path fill="#4D4D4D" d="M142.912,143.291h-13.577v10.099v24.638c1.834,0.196,3.693,0.355,5.564,0.489
			c0.807,0.049,1.627,0.11,2.446,0.159c1.835,0.11,3.694,0.196,5.565,0.257c0.001,0,0.001,0,0.002,0V143.291"/>
		<path fill="#4D4D4D" d="M170.665,143.291h-13.577v10.099v25.543l0,0c1.871-0.061,3.731-0.147,5.565-0.257
			c0.819-0.049,1.639-0.11,2.446-0.159c1.872-0.135,3.731-0.294,5.565-0.477l0,0L170.665,143.291"/>
		<path fill="#424242" d="M199.508,135.142H100.49c-1.688,0-3.071,1.37-3.071,3.07v5.079h12.175h19.741h13.577h14.175h13.577h19.741
			h12.173v-5.079C202.578,136.512,201.208,135.142,199.508,135.142"/>
		<ellipse fill="#494949" cx="150" cy="143.902" rx="74.797" ry="30.258"/>
		<path fill="#3F3F3F" d="M193.361,140.682c0,0-11.835,12.41-43.361,12.41s-43.361-12.41-43.361-12.41l12.091-59.901
			c1.199-5.939,7.14-9.652,13.003-8.127L150,77.403l18.266-4.75c5.864-1.525,11.805,2.188,13.003,8.127L193.361,140.682z"/>
	</g>
</g>
</svg>
