<svg xmlns="http://www.w3.org/2000/svg" version="1.0" viewBox="0 0 300 300"><ellipse cx="150" cy="150" fill="#FFF" rx="150" ry="150" transform="rotate(-45.001 149.999 150.002)"/><circle cx="150" cy="150" r="140.812" fill="#FFB031"/><path fill="#E5B36A" d="M159.788 97.545v-2.337l-5.799-19.605h-7.977l-5.798 19.563v2.379c0 .765.14 1.115.614 1.421l1.011.653c.225.145.487.223.755.223h14.816c.268 0 .53-.077.755-.223l1.011-.653c.471-.306.612-.84.612-1.421z"/><path fill="#5EBCB5" d="M157.464 138.566l32.295 81.132v7.929c0 1.307-1.434 1.79-2.834 1.13L150 211.345l-36.925 17.413c-1.4.66-2.834-.269-2.834-1.547v-7.608l32.295-81.036c2.492-5.963 12.436-5.963 14.928-.001z"/><path fill="#6DE2DE" d="M157.464 130.637l32.235 88.742c.411 1.176-1.374 2.109-2.774 1.449L150 203.415l-36.925 17.413c-1.4.66-3.185-.272-2.774-1.449l32.235-88.742c2.492-5.963 12.436-5.963 14.928 0z"/><path fill="#FFEEF0" d="M177.192 201.241l-22.126-9.087-5.07-10.639h-19.969a.85.85 0 0 1-.799-1.141l13.312-36.65c2.495-5.965 12.432-5.965 14.927 0l20.59 56.688a.655.655 0 0 1-.865.829z"/><path fill="#DBC8CC" d="M156.633 159.091h-13.261a.374.374 0 0 1-.374-.374v-7.468c0-.207.168-.374.374-.374h13.261c.207 0 .374.168.374.374v7.468a.373.373 0 0 1-.374.374z"/><path fill="#F2DADE" d="M156.633 157.95h-13.261a.374.374 0 0 1-.374-.374v-7.468c0-.207.168-.374.374-.374h13.261c.207 0 .374.168.374.374v7.468a.373.373 0 0 1-.374.374z"/><path fill="#DBC8CC" d="M155.371 166.968H144.63a1.126 1.126 0 0 1-1.126-1.126v-1.235h12.994v1.235a1.127 1.127 0 0 1-1.127 1.126z"/><path fill="#F2DADE" d="M155.371 166.086H144.63a1.126 1.126 0 0 1-1.126-1.126v-.704c0-.622.504-1.126 1.126-1.126h10.741c.622 0 1.126.504 1.126 1.126v.704c0 .622-.504 1.126-1.126 1.126z"/><path fill="#DBC8CC" d="M157.533 184.614h-15.066a1.58 1.58 0 0 1-1.58-1.58v-1.732h18.226v1.732a1.58 1.58 0 0 1-1.58 1.58z"/><path fill="#F2DADE" d="M157.533 183.376h-15.066a1.58 1.58 0 0 1-1.58-1.58v-.988c0-.873.707-1.58 1.58-1.58h15.066c.873 0 1.58.707 1.58 1.58v.988a1.58 1.58 0 0 1-1.58 1.58z"/><path fill="#FFCD7D" d="M159.788 94.031l-5.591-21.982a1.46 1.46 0 0 0-1.415-1.1h-5.565a1.46 1.46 0 0 0-1.415 1.1l-5.59 21.982c-.102.554.14 1.115.614 1.421l1.011.653c.225.145.487.223.755.223h14.816c.268 0 .53-.077.755-.223l1.011-.653c.473-.306.715-.867.614-1.421zm-5.517 5.115v54.318c0 .529-.193.948-.439.948h-7.66c-.245 0-.439-.418-.439-.948V99.146c0-.516.193-.948.439-.948h7.66c.246.001.439.432.439.948z"/><path fill="#D39746" d="M154.271 99.146v1.604h-8.538v-1.604c0-.516.193-.948.439-.948h7.66c.246.001.439.432.439.948z"/><path fill="none" stroke="#3F3F3F" stroke-linecap="round" stroke-miterlimit="10" d="M150.003 181.515v-97.25"/><circle cx="165.105" cy="181.924" r="2.996" fill="#F2DADE"/><path fill="#4F4F4F" d="M167.494 181.313v.612a2.39 2.39 0 0 1-4.778 0v-.612c0-.468.134-.905.369-1.274h.557a2.371 2.371 0 0 1 2.924 0h.557c.237.369.371.806.371 1.274z"/><path fill="#686868" d="M167.494 181.313a2.39 2.39 0 1 1-4.779-.001 2.39 2.39 0 0 1 4.779.001z"/><circle cx="162.109" cy="173.694" r="2.996" fill="#F2DADE"/><path fill="#4F4F4F" d="M164.498 173.083v.612a2.39 2.39 0 0 1-4.778 0v-.612c0-.468.134-.905.369-1.274h.557a2.371 2.371 0 0 1 2.924 0h.557c.237.369.371.805.371 1.274z"/><path fill="#686868" d="M164.498 173.083a2.39 2.39 0 1 1-4.779-.001 2.39 2.39 0 0 1 4.779.001z"/><circle cx="168.101" cy="190.153" r="2.996" fill="#F2DADE"/><path fill="#4F4F4F" d="M170.49 189.541v.612a2.39 2.39 0 0 1-4.778 0v-.612c0-.468.134-.905.369-1.274h.557a2.371 2.371 0 0 1 2.924 0h.557c.237.369.371.806.371 1.274z"/><path fill="#686868" d="M170.49 189.541a2.39 2.39 0 1 1-4.779-.001 2.39 2.39 0 0 1 4.779.001z"/></svg>