<svg xmlns="http://www.w3.org/2000/svg" version="1.0" viewBox="0 0 300 300"><ellipse cx="150" cy="150" fill="#FFF" rx="150" ry="150"/><circle cx="150" cy="150" r="140.813" fill="#EB595B"/><path fill="#3F3F3F" d="M166.285 88.784s-3.704 5.143-16.428 8.745-18.574 1.164-18.574 1.164l-.299-19.678c-.03-1.951 2.047-3.764 4.546-3.968l7.783-.636 6.962-3.538c2.235-1.136 4.954-.68 5.951.997l10.059 16.914z"/><ellipse cx="149.066" cy="94.72" fill="#494949" rx="26.498" ry="9.605" transform="rotate(-15.804 149.07 94.71)"/><ellipse cx="148.861" cy="94.863" fill="#3F3F3F" rx="16.686" ry="4.777" transform="rotate(-15.247 148.862 94.86)"/><path fill="#4C4C4C" d="M177.171 195.834c-2.102-3.936-2.505-8.724-.753-12.854a34.617 34.617 0 0 0 2.737-13.485c.003-2.965 0-9.371 0-9.371s-5.31-1.777-6.975.511c-2.679 3.681-4.639 6.543-10.287 6.543-6.899 0-10.349-8.087-12.152-13.817-.795-2.525-.394-7.226-.394-7.226l-1.444.018s-1.386 13.54-10.463 13.54c-3.94 0-6.195-2.703-7.452-5.763-1.36-3.313-11.017 6.165-11.017 6.165v9.371c0 4.794.973 9.342 2.718 13.433 1.773 4.158 1.393 8.978-.724 12.946-2.099 3.935-6.738 7.34-6.738 7.34v9.371c.004 19.762 17.85 26.457 34.836 26.457 15.481 0 34.836-6.695 34.836-26.457v-9.371s-4.459-3.1-6.728-7.351zm-22.122-99.97c1.629-1.091 2.695-3.017 2.695-5.231 0-1.262-.02-3.86-.02-3.86s-3.684-2.317-5.75-2.317c-2.613 0-4.916 1.766-5.711 4.204a.425.425 0 0 0-.022-.018c-2.414 7.294-3.566 10.941-5.861 18.235v2.595c0 1.279.291 2.42 1.313 2.931l1.182.588a4.587 4.587 0 0 0 2.041.477h9.604c.462 0 .834-.401.834-.895v-.585c0-.189.093-.364.245-.46.62-.389.927-.583 1.54-.972.363-.23.485-.673.485-1.145v-3.112a2234.057 2234.057 0 0 0-2.575-10.435z"/><path fill="#565656" d="M155.049 92.522c2.018-1.351 3.179-3.985 2.503-6.859-.497-2.119-2.07-3.828-4.077-4.353-3.196-.837-6.267 1.112-7.212 4.009a.425.425 0 0 0-.022-.018c-2.375 8.332-3.51 12.498-5.768 20.83-.318 1.171.198 2.42 1.221 2.931l.67.334c.968.481 2.031.73 3.128.73h9.027c.462 0 .834-.4.834-.895v-.584c0-.189.093-.364.245-.46.62-.389.927-.583 1.54-.972.363-.23.549-.686.466-1.134a3625.455 3625.455 0 0 0-2.555-13.559zm22.122 93.942c-2.102-3.936-2.008-8.547-.753-12.854 1.297-4.453 2.734-8.738 2.737-13.485.003-2.965-.894-7.755-4.722-7.755-5.479 0-6.125 5.439-11.348 5.439-6.899 0-11.542-8.087-13.345-13.817-.795-2.525-.394-7.226-.394-7.226l-1.444.018s-1.386 13.54-10.463 13.54c-3.94 0-6.195-2.703-7.452-5.763-1.36-3.313-5.635-3.581-7.227-.39-2.012 4.033-3.79 9.434-3.79 15.926 0 4.794 1.27 9.311 2.718 13.433 1.498 4.265 1.393 8.978-.724 12.946-4.855 9.102-6.739 12.293-6.738 16.711.004 19.762 17.85 26.457 34.836 26.457 15.481 0 34.836-6.695 34.836-26.457.001-4.42-1.875-7.636-6.727-16.723z"/><path fill="#FFEEF0" d="M149.063 155.624s8.43 5.495 14.562 5.495c5.506 0 6.876-5.428 9.686-5.428 2.473 0 3.067 2.567 3.067 4.607 0 5.678-4.037 12.333-4.037 19.181 0 6.847 8.18 16.574 8.18 23.928 0 8.281-3.659 12.844-9.258 14.952-10.761 4.051-16.984-15.935-22.199-18.311-4.272-1.946-14.693 5.947-17.644 2.777-5.933-6.372 5.368-17.382 5.368-26.218 0-7.401-7.166-13.797-2.313-19.107 3.784-4.141 14.588-1.876 14.588-1.876z"/><path fill="#DBC8CC" d="M157.415 175.437h-16.704c-.335 0-.606-.297-.606-.663v-9.76c0-.366.271-.663.606-.663h16.704c.335 0 .606.297.606.663v9.76c0 .366-.271.663-.606.663z"/><path fill="#F2DADE" d="M157.415 173.896h-16.704c-.335 0-.606-.297-.606-.663v-9.76c0-.366.271-.663.606-.663h16.704c.335 0 .606.297.606.663v9.76c0 .367-.271.663-.606.663z"/><path fill="#FFCD7D" d="M153.913 112.808v54.644c0 .503-.214.901-.486.901h-8.729c-.272 0-.486-.397-.486-.901v-54.644c0-.491.214-.902.486-.902h8.729c.272 0 .486.411.486.902z"/><path fill="#E0E0E0" d="M153.913 112.808v2.995h-9.701v-2.995c0-.491.214-.902.486-.902h8.729c.272 0 .486.411.486.902z"/><path fill="#DBC8CC" d="M158.001 204.913h-17.877c-1.401 0-2.527-1.244-2.527-2.778v-2.086h22.932v2.086c-.001 1.535-1.127 2.778-2.528 2.778zm-1.954-17.862h-13.968c-1.097 0-1.975-.963-1.975-2.15v-1.284h17.917v1.284c0 1.187-.877 2.15-1.974 2.15z"/><path fill="#F2DADE" d="M156.047 185.767h-13.968c-1.097 0-1.975-.963-1.975-2.15 0-1.188.878-2.15 1.975-2.15h13.968c1.097 0 1.975.963 1.975 2.15-.001 1.188-.878 2.15-1.975 2.15zm1.954 17.059h-17.877c-1.401 0-2.527-1.244-2.527-2.777 0-1.534 1.126-2.778 2.527-2.778h17.877c1.401 0 2.527 1.244 2.527 2.778s-1.126 2.777-2.527 2.777z"/><circle cx="168.773" cy="200.052" r="2.947" fill="#DBC8CC"/><path fill="#4F4F4F" d="M171.123 199.451v.602a2.351 2.351 0 0 1-4.7 0v-.602c0-.461.132-.89.363-1.253h.548a2.33 2.33 0 0 1 2.876 0h.548c.233.363.365.792.365 1.253z"/><path fill="#686868" d="M171.123 199.451a2.351 2.351 0 0 1-4.7 0c0-.461.132-.89.363-1.253a2.346 2.346 0 0 1 3.974 0c.231.363.363.792.363 1.253z"/><circle cx="165.825" cy="191.956" r="2.947" fill="#DBC8CC"/><path fill="#4F4F4F" d="M168.176 191.354v.602a2.351 2.351 0 0 1-4.7 0v-.602c0-.461.132-.89.363-1.253h.548a2.33 2.33 0 0 1 2.876 0h.548c.233.363.365.793.365 1.253z"/><path fill="#686868" d="M168.176 191.354a2.351 2.351 0 0 1-4.7 0c0-.461.132-.89.363-1.253a2.346 2.346 0 0 1 3.974 0c.231.363.363.793.363 1.253z"/><circle cx="171.72" cy="208.146" r="2.947" fill="#DBC8CC"/><path fill="#4F4F4F" d="M174.07 207.545v.602a2.351 2.351 0 0 1-4.7 0v-.602c0-.461.132-.89.363-1.253h.548a2.33 2.33 0 0 1 2.876 0h.548c.233.363.365.792.365 1.253z"/><path fill="#686868" d="M174.07 207.545a2.351 2.351 0 0 1-4.7 0c0-.461.132-.89.363-1.253a2.346 2.346 0 0 1 3.974 0c.231.363.363.792.363 1.253z"/><path fill="none" stroke="#3F3F3F" stroke-linecap="round" stroke-miterlimit="10" stroke-width=".75" d="M149.063 200.049V98.658"/><path fill="#494949" d="M162.356 88.797S151.041 87 140.38 92.805l2.11-6.083 6.608-1.993c.601-.181 1.213-.32 1.833-.414l6.985-1.068 4.44 5.55z"/><path fill="#3F3F3F" d="M162.356 82.996s-10.988.25-22.54 4.711l2.674-5.765 6.608-1.993c.601-.181 1.213-.32 1.833-.414l6.985-1.068 4.44 4.529z"/></svg>