<svg viewBox="0 0 300 300" xmlns="http://www.w3.org/2000/svg"><path d="m150.412 299.999c-82.709.228-150.184-66.877-150.411-149.587-.228-82.709 66.877-150.184 149.586-150.411 82.71-.227 150.185 66.877 150.413 149.587s-66.878 150.184-149.588 150.411z" fill="#fff"/><ellipse cx="149.588" cy="150.413" fill="#eb595b" rx="140.812" ry="140.812"/><path d="m168.039 216.333c1.575 2.282.772 5.452-1.725 6.659-3.148 1.521-8.306 3.052-16.314 3.052s-13.166-1.531-16.314-3.052c-2.497-1.206-3.3-4.377-1.725-6.659l9.396-13.607h17.286z" fill="#efefef"/><path d="m132.402 127.676c8.166 8.166 0 34.615 0 34.615s-4.59 21.836-17.523 21.836c-41.462 0-65.532-60.456-56.521-69.467 9.96-9.96 32.937 13.016 74.044 13.016zm35.196 0c-8.166 8.166 0 34.615 0 34.615s4.59 21.836 17.523 21.836c41.462 0 65.532-60.456 56.521-69.467-9.96-9.96-32.937 13.016-74.044 13.016z" fill="#e8e8e8"/><path d="m169.297 110.679a19.917 19.917 0 0 0 -.087-2.241c-.857-8.992-8.039-16.299-17.017-17.288-11.641-1.283-21.492 7.798-21.492 19.179 0 .261.005.52.015.779.347 8.726-2.424 17.215-7.174 24.543a31.343 31.343 0 0 0 -5.047 17.107c0 17.4 14.106 54.04 31.506 54.04s31.506-36.639 31.506-54.04a31.34 31.34 0 0 0 -5.239-17.398c-4.853-7.308-7.128-15.911-6.971-24.681z" fill="#efefef"/><path d="m174.691 155.194c0 13.636-11.055 42.35-24.691 42.35s-24.691-28.714-24.691-42.35 11.055-24.691 24.691-24.691 24.691 11.055 24.691 24.691z" fill="#e5e5e5"/><path d="m149.458 122.777-5.327-6.939c-.646-.841-.567-2.047.211-2.766 3.379-3.123 7.937-3.123 11.316 0 .779.72.857 1.925.211 2.766l-5.327 6.939a.682.682 0 0 1 -1.084 0z" fill="#fae040"/><path d="m150.725 120.888c-.366.357-1.084.357-1.45 0l-5.03-4.901 5.213 6.79a.683.683 0 0 0 1.085 0l5.213-6.79z" fill="#eacc35"/></svg>