<svg xmlns="http://www.w3.org/2000/svg" version="1.0" viewBox="0 0 300 300"><circle cx="150" cy="150" r="150" fill="#FFF"/><circle cx="150.002" cy="150" r="140.812" fill="#86BF5A"/><path fill="#565656" d="M111.395 141.434c-.895 0-1.567-.783-1.567-1.679V54.689c0-.895.672-1.679 1.567-1.679.895 0 1.567.784 1.567 1.679v85.066c0 .895-.672 1.679-1.567 1.679z"/><path fill="#FFB031" d="M151.689 76.179c0 3.134-17.573 8.395-39.175 8.395s-39.175-5.261-39.175-8.395 17.573-5.708 39.175-5.708 39.175 2.574 39.175 5.708z"/><path fill="#E28A0C" d="M151.689 76.067c0 3.134-17.573 6.828-39.175 6.828s-39.175-3.694-39.175-6.828 17.461-7.163 39.175-7.163 39.175 4.029 39.175 7.163z"/><path fill="#FFB031" d="M151.689 73.829c0 3.134-17.573 5.708-39.175 5.708s-39.175-2.574-39.175-5.708 25.52-6.38 39.175-6.38c8.283 0 39.175 3.246 39.175 6.38z"/><path fill="#FFB031" d="M129.191 69.016c0 2.462-7.947 4.365-17.685 4.365s-17.685-1.903-17.685-4.365 7.947-5.708 17.685-5.708 17.685 3.245 17.685 5.708z"/><g fill="#565656"><ellipse cx="111.395" cy="56.703" rx="1.567" ry=".56"/><ellipse cx="111.395" cy="63.307" rx="1.567" ry=".336"/><path d="M202.953 175.124c-.336 0-.56-.224-.56-.56v-48.018c0-.336.224-.56.56-.56.336 0 .56.224.56.56v48.018c-.001.337-.336.56-.56.56z"/></g><path fill="#3F3F3F" d="M204.296 175.684h-1.231a.24.24 0 01-.224-.224v-4.477s1.679.56 1.679 1.007v3.47c.112.112 0 .224-.224.224z"/><path fill="#4C4C4C" d="M204.408 175.796h-1.343a.24.24 0 01-.224-.224v-3.582a.24.24 0 01.224-.224h1.343a.24.24 0 01.224.224v3.582a.24.24 0 01-.224.224z"/><path fill="#3F3F3F" d="M204.184 129.01h-1.007a.24.24 0 01-.224-.224v-5.261s1.455 0 1.455 2.239v3.022a.24.24 0 01-.224.224z"/><path fill="#4C4C4C" d="M204.184 129.122h-1.119c-.112 0-.112-.112-.112-.112v-3.134c0-.112.112-.112.112-.112h1.119c.112 0 .112.112.112.112v3.134c.112.112 0 .112-.112.112z"/><path fill="#565656" d="M102.105 174.565v-48.018c0-.336.224-.56.56-.56.336 0 .56.224.56.56v48.018c0 .336-.224.56-.56.56-.225-.001-.56-.224-.56-.56z"/><path fill="#3F3F3F" d="M101.097 175.46v-3.47c0-.448 1.679-1.007 1.679-1.007v4.477a.24.24 0 01-.224.224h-1.231c-.224 0-.336-.112-.224-.224z"/><path fill="#4C4C4C" d="M100.985 175.572v-3.582a.24.24 0 01.224-.224h1.343a.24.24 0 01.224.224v3.582a.24.24 0 01-.224.224h-1.343a.24.24 0 01-.224-.224z"/><path fill="#3F3F3F" d="M101.209 128.786v-3.022c0-2.239 1.455-2.239 1.455-2.239v5.261a.24.24 0 01-.224.224h-1.007a.24.24 0 01-.224-.224z"/><path fill="#4C4C4C" d="M101.321 129.01v-3.134s0-.112.112-.112h1.119s.112 0 .112.112v3.134s0 .112-.112.112h-1.119c-.112 0-.224 0-.112-.112z"/><path fill="#EFEFEF" d="M102.328 178.594v-5.261h101.184v5.261c0 11.081-22.61 20.035-50.592 20.035s-50.591-9.066-50.592-20.035z"/><ellipse cx="152.92" cy="171.655" fill="#D6D6D6" rx="50.592" ry="20.035"/><path fill="#EB595B" d="M199.483 168.968c0 9.962-20.819 18.133-46.562 18.133s-46.562-8.171-46.562-18.133v-39.847h93.013v13.096l.111 26.751z"/><path fill="#FFB031" d="M199.483 158.5c0 9.962-20.819 18.133-46.562 18.133s-46.562-8.171-46.562-18.133v-39.847h93.013v13.096l.111 26.751z"/><path fill="#86BF5A" d="M199.483 146.771c0 9.962-20.819 18.133-46.562 18.133s-46.562-8.171-46.562-18.133v-25.968l93.013.128v-.91l.111 26.75z"/><path fill="#7BA852" d="M199.483 128.932v13.096c-7.723 7.163-25.632 12.088-46.562 12.088-20.819 0-38.839-5.037-46.562-12.088v-13.096h93.124z"/><path fill="#EFEFEF" d="M102.328 129.233v-7.611h101.184v7.611c0 11.081-22.61 20.035-50.592 20.035s-50.591-9.065-50.592-20.035z"/><ellipse cx="152.92" cy="122.406" fill="#FFF" rx="50.592" ry="20.035"/><path fill="#565656" d="M152.92 195.495c-.672 0-1.119-.448-1.119-1.119v-48.577c0-.672.448-1.119 1.119-1.119.672 0 1.119.448 1.119 1.119v48.577c.001.672-.447 1.119-1.119 1.119zm34.139-5.26c-.672 0-1.119-.448-1.119-1.119v-48.577c0-.672.448-1.119 1.119-1.119.672 0 1.119.448 1.119 1.119v48.577c0 .671-.56 1.119-1.119 1.119zm-68.165 0c-.672 0-1.119-.448-1.119-1.119v-48.577c0-.672.448-1.119 1.119-1.119s1.119.448 1.119 1.119v48.577c0 .671-.447 1.119-1.119 1.119z"/><path fill="#4C4C4C" d="M155.047 145.463v.783h-4.029v-.783c0-1.119.895-2.015 2.015-2.015 1.007 0 2.014.896 2.014 2.015z"/><circle cx="152.92" cy="146.247" r="2.015" fill="#606060"/><path fill="#4C4C4C" d="M155.047 194.04v.783h-4.029v-.783c0-1.119.895-2.015 2.015-2.015 1.007.001 2.014.896 2.014 2.015z"/><circle cx="152.92" cy="194.824" r="2.015" fill="#606060"/><path fill="#4C4C4C" d="M120.797 140.426c0 .895-1.119 2.015-2.015 2.015-.895 0-1.679-.784-1.679-1.791s1.119-2.015 2.015-2.015c.895.112 1.679.784 1.679 1.791z"/><circle cx="118.782" cy="140.762" r="1.679" fill="#606060"/><path fill="#4C4C4C" d="M120.797 189.227c0 .895-1.119 2.015-2.015 2.015-.895 0-1.679-.783-1.679-1.791s1.119-2.015 2.015-2.015c.895.113 1.679.896 1.679 1.791z"/><circle cx="118.782" cy="189.563" r="1.679" fill="#606060"/><path fill="#4C4C4C" d="M185.38 189.227c0 .895 1.119 2.015 2.015 2.015s1.679-.783 1.679-1.791-1.119-2.015-2.015-2.015c-.896.001-1.679.896-1.679 1.791z"/><circle cx="187.395" cy="189.563" r="1.679" fill="#606060"/><path fill="#4C4C4C" d="M185.156 140.426c0 .895 1.119 2.015 2.015 2.015.895 0 1.679-.784 1.679-1.791s-1.119-2.015-2.015-2.015-1.679.784-1.679 1.791z"/><circle cx="187.171" cy="140.762" r="1.679" fill="#606060"/></svg>