<svg viewBox="0 0 300 300" xmlns="http://www.w3.org/2000/svg"><path d="m149.999 300c-82.709 0-149.999-67.29-149.999-150s67.29-150 149.999-150c82.711 0 150.001 67.29 150.001 150s-67.29 150-150.001 150" fill="#fff"/><path d="m290.812 150c0 77.769-63.044 140.812-140.812 140.812s-140.812-63.043-140.812-140.812c0-77.768 63.044-140.812 140.812-140.812s140.812 63.044 140.812 140.812" fill="#fae040"/><path d="m150 232.617c-45.627 0-82.616-36.989-82.616-82.617s36.988-82.616 82.616-82.616 82.616 36.988 82.616 82.616-36.989 82.617-82.616 82.617m0-171.811c-49.261 0-89.194 39.934-89.194 89.194s39.933 89.195 89.194 89.195 89.194-39.935 89.194-89.195-39.933-89.194-89.194-89.194" fill="#f5db3e"/><path d="m150 216.216c-36.571 0-66.217-29.646-66.217-66.216s29.646-66.216 66.217-66.216 66.217 29.646 66.217 66.216-29.646 66.216-66.217 66.216m0-148.832c-45.627 0-82.616 36.988-82.616 82.616s36.988 82.617 82.616 82.617 82.616-36.989 82.616-82.617-36.989-82.616-82.616-82.616" fill="#ecd33c"/><path d="m150 83.784c-36.571 0-66.217 29.646-66.217 66.216s29.646 66.216 66.217 66.216 66.217-29.646 66.217-66.216-29.646-66.216-66.217-66.216" fill="#dfc839"/><circle cx="150" cy="150" fill="#c9c9c9" r="43.208"/><circle cx="150" cy="150" fill="#565656" r="40.042"/><g fill="#4c4c4c"><path d="m187.682 147.885-.395.021c-.136-.408-.3-.468-.396-.497l-.095-.028-.095.028c-.196.059-.604.182-.632 2.713.006 1.382.14 2.263.382 2.546.1.119.222.161.329.161l.132-.022c.142-.05.251-.235.344-.487l.411.024a39.09 39.09 0 0 0 .015-4.459zm-6.331-15.845.151.022a.424.424 0 0 0 .342-.165c.077-.099.09-.255.076-.436.419.58.522.592.664.592h.37l-.045-.368c-.035-.292-.643-1.291-1.002-1.861l-.126-.197c-1.187-1.836-1.414-1.939-1.488-1.973l-.229-.09-.263.295.021.133c-.211-.19-.419-.332-.602-.363l-.064-.006-.181.046c-.081.041-.268.172-.237.506.07.774 1.799 3.627 2.613 3.865zm3.637 8.209-.062-.011-.062.012c-.195.038-.449.186-.546.669-.214 1.054.459 3.976 1.147 4.444l.317.103.26-.076c.238-.153.335-.518.365-.928.103.393.206.715.297.849l.133.144h.42l.069-.236c.026-.089.104-.359-.237-2.214l-.046-.237c-.419-2.135-.602-2.329-.691-2.421l-.203-.213-.235.178c-.106.081-.199.157-.138.801-.199-.443-.46-.803-.788-.864zm-1.849-5.05c-.347-.691-.879-1.506-1.488-1.587l-.046-.006-.045.007a.609.609 0 0 0 -.436.294c-.235.388-.163 1.134.219 2.225.675 1.755 1.35 2.185 1.541 2.276l.308.074a.549.549 0 0 0 .373-.144c.37-.333.274-1.096.136-1.659.441 1.009.829 1.645 1.102 1.764l.176.038.265-.105c.105-.099.382-.361-.345-2.262l-.001-.001-.086-.223c-.873-2.13-1.287-2.235-1.424-2.27l-.091-.024-.272.118-.062.128c-.048.103-.144.333.176 1.357zm3.954 19.439-.294.173c-.091.054-.208.138-.426.946-.019-.287-.072-.546-.186-.722a.583.583 0 0 0 -.372-.264l-.063-.013-.063.013c-.318.059-.59.367-.832.941-.461 1.097-.838 3.377-.414 4.013.105.156.26.244.427.244l.091-.009c.315-.059.569-.433.766-.866-.047.454-.017.576 0 .632l.105.233h.414l.099-.14c.191-.274.435-1.306.606-2.123l.047-.237c.431-2.193.324-2.39.254-2.521zm-2.189-1.806.241-.05c.609-.256.866-1.41.905-2.404l.004-.262c-.023-1.628-.418-2.618-1.086-2.717l-.049-.007-.049.007c-.904.134-1.07 1.759-1.088 2.726.023 1.689.426 2.302.663 2.516a.683.683 0 0 0 .459.191zm-2.171 15.138-.401.186c-.071.032-.16.076-.508.552l-.028-.302a.449.449 0 0 0 -.326-.273l-.06-.013-.063.01c-.524.088-1.216.995-1.703 1.739-.069.105-.175.272-.294.47.458-.851.608-1.484.417-1.865-.097-.196-.278-.319-.579-.347-.929.1-1.838 1.489-2.191 2.092-.458.845-.636 1.451-.542 1.859.059.254.228.422.464.463l.105.009c.637 0 1.518-.91 2.094-1.802l.001-.001c-.293.537-.567 1.154-.486 1.471a.412.412 0 0 0 .335.322l.064.006c.198 0 .435-.154.672-.365l.003.079.054.443.408-.185c.192-.087.652-.683 1.37-1.77l.128-.196c1.173-1.824 1.147-2.01 1.129-2.144zm2.524-5.998-.112-.179-.227-.073-.092.023c-.137.036-.484.142-1.209 1.791.146-.567.213-1.141.008-1.488a.62.62 0 0 0 -.449-.309l-.046-.006-.046.005c-.86.117-1.555 1.67-1.818 2.343-.367 1.028-.455 1.755-.265 2.16.104.222.291.347.517.347h.01c.537-.008 1.105-.758 1.514-1.546-.319 1.007-.222 1.232-.178 1.32l.149.231.211-.005c.169-.004.365-.17.582-.469l.273.129.001-.001v-.001a37.353 37.353 0 0 0 1.601-3.912l-.372-.128a.594.594 0 0 0 -.052-.232zm-12.101 16.923-.015-.033-.1-.137-.206-.051-.064.009c-.186.029-.63.29-1.141.632a.509.509 0 0 0 .025-.322c-.047-.169-.188-.286-.452-.311-.484.049-1.252.558-1.935 1.083.162-.25.254-.502.188-.72-.031-.099-.138-.331-.552-.364-1.114.087-3.34 2.053-3.381 2.792a.447.447 0 0 0 .244.437l.253.054c.476 0 1.184-.415 1.688-.758a.723.723 0 0 0 -.129.254l-.038.302.194.129.227.058c.258 0 .62-.151.981-.347l.097.301.176.045.069.008.065-.01-.231.317.961-.314c.195-.064 1.092-.658 1.812-1.172l.19-.136c.626-.456 1.693-1.256 1.81-1.482l.378-.736-.779.276c-.07.022-.109.037-.335.196zm5.292-4.982-.242-.109-.108.026c-.092.021-.28.07-.963.725.079-.241.044-.365.02-.432a.457.457 0 0 0 -.368-.299l-.047-.006-.046.005c-.626.078-1.593 1.06-2.164 1.698.383-.576.52-1.027.392-1.338-.05-.12-.182-.326-.579-.361-.645.058-1.539.727-2.398 1.796-.565.747-.805 1.266-.754 1.634a.521.521 0 0 0 .365.437l.182.024c.617 0 1.542-.746 2.133-1.368-.366.513-.442.764-.451.906a.425.425 0 0 0 .249.427l.164.032c.267 0 .623-.204.97-.461l-.012.19.032.182.172.067.122.027c.201 0 .638-.205 1.897-1.505l.163-.17c1.447-1.548 1.377-1.811 1.334-1.967zm-17.445 11.431a4.62 4.62 0 0 0 -.299.07l-.415-.076-.044.004c-.104.009-.151.015-.765.195l-.083-.172-.238-.026-.029.003c-.154.01-.54.117-.997.256l-.047-.074c-.105-.164-.264-.177-.379-.182-.263.015-.659.138-1.216.347l-.018-.081c-.04-.113-.146-.25-.458-.267-.189.01-.781.206-1.364.467l-.017-.158c-.038-.106-.154-.29-.533-.31-.418.022-.9.24-1.401.622l-.029-.231c-.05-.136-.199-.368-.667-.391a1.448 1.448 0 0 0 -1.277.932.837.837 0 0 0 -.174-.593c-.167-.203-.436-.323-.788-.338-.324.017-.59.141-.746.351-.106.142-.136.322-.126.517a1.647 1.647 0 0 0 -1.369-.866l-.288.054a.527.527 0 0 0 -.35.517l.009.028c-.397-.279-.924-.573-1.46-.599l-.19.029a.448.448 0 0 0 -.305.373l.007.044c-.897-.417-1.232-.44-1.4-.446-.344.023-.411.237-.424.335-.52-.19-.94-.318-1.236-.335l-.263.047-.098.203c-.715-.227-.788-.237-.97-.25l-.504.138c-.436-.124-.481-.131-.557-.138l-.183.035-.077.076a3.32 3.32 0 0 0 -.437-.109l-.737-.097.332.477-.09.245c.035.015.345.117.709.227a37.65 37.65 0 0 0 3.108.795l.092.019c.209.045.419.088.631.123l.006-.031.215.033.013-.068c.192.035.36.059.46.059l.081-.008.142-.041c.183.032.338.054.428.054l.055-.004.378-.054c.136.027.241.042.322.051l.072.028.421.281-.013.094c.015.003 1.757.246 4.189.269l.283.004h.045c.617 0 .948 0 1.439-.027.177-.006.332-.014.465-.021l.236-.014.092-.005a36.36 36.36 0 0 0 1.946-.167l.181-.017-.001-.005.121-.015-.048-.42.274.026.04.003c.093 0 .247-.026.423-.062l-.156.087-.492.195 2.298-.22c.035-.003.131-.019.266-.042l.008.037c.092-.017.942-.17 2.057-.449l.231-.059c1.518-.392 2.205-.645 2.211-.647l-.065-.222.726-.555zm-8.954 1.538-.079-.005.088-.054zm-4.361.001-.094.006.008-.031.001-.031zm2.967-.316c0 .158.06.281.146.379l-.163.05-.209-.096a.992.992 0 0 0 .226-.333zm-1.397.346-.125.064-.006.006-.231-.062a.51.51 0 0 0 .094-.323c.072.129.164.23.268.315z"/><path d="m167.085 182.766-.01-.146-.327-.059-.047.005c-.174.021-.431.105-1.047.399l-.001-.115c-.015-.059-.09-.251-.423-.283-.203.017-.582.11-1.525.601l.021-.296c-.026-.083-.12-.278-.486-.306-.531.037-1.296.443-1.951.851.094-.165.145-.336.092-.499-.04-.12-.161-.326-.581-.352-.583.035-1.379.435-2.192 1.105l-.141.131c.226-.311.299-.59.209-.829-.054-.14-.209-.379-.7-.406-.655.036-1.423.47-2.014 1.147-.194.242-.392.529-.411.834a.529.529 0 0 0 .287.529l.317.067c.59 0 1.435-.505 1.854-.857a.835.835 0 0 0 -.156.322.432.432 0 0 0 .176.456.556.556 0 0 0 .314.079c.428 0 1.041-.286 1.485-.528l-.025.085-.014.255.17.118.264.065c.307 0 .754-.159 1.163-.338l-.005.163.133.103.247.063c.176 0 .415-.064.672-.149l-.037.069.426.09.058.005.139-.021-.098.15.742-.128c.222-.038 1.224-.442 2.062-.832l.213-.1c1.987-.952 2.007-1.118 2.028-1.279l.055-.445-.441.082c-.088.015-.14.028-.495.194zm1.008-64.611a.4.4 0 0 0 -.346.283c-.035.119-.037.251.133.493-.581-.397-1.245-.743-1.748-.778-.077.008-.259.026-.381.186-.12.161-.117.37.01.62.39.767 2.305 2.497 3.294 2.497h.006c.36-.003.486-.225.524-.32.091-.233-.01-.511-.19-.785 1.254.978 1.798 1.106 1.984 1.106h.008c.201-.003.358-.107.419-.279.019-.056.051-.167-.028-.362.536.36 1.018.631 1.252.631l.055-.006.14-.033.07-.126c.104-.187.246-.443-1.322-1.652-.72-.555-1.992-1.407-2.434-1.473l-.091-.003-.238.06-.056.171-.015.163c-.419-.23-.782-.371-1.046-.393zm-6.199-3.219-.136.029-.203.147v.167l.001.026c-.481-.21-.918-.353-1.213-.37l-.095.012-.256.09-.04.21.031.238c-.634-.352-1.192-.531-1.546-.551-.323.023-.426.224-.454.308-.063.186.013.393.221.655-.617-.547-1.39-.934-1.978-.964-.358.022-.497.217-.549.331-.124.278-.004.654.368 1.127.783.907 1.643 1.149 2.029 1.149h.004c.461-.001.624-.265.673-.379.116-.269.02-.6-.25-.943l.22.211c.934.781 1.759 1.111 2.221 1.111l.122-.009c.326-.051.418-.274.442-.367.039-.152.001-.319-.101-.497.879.555 1.593.874 2.001.874l.127-.012a.426.426 0 0 0 .35-.339l-.031-.262c.972.513 1.379.616 1.568.616l.144-.023.245-.107.022-.214.004-.06c.627.301.911.397 1.077.397l.201-.058.208-.115c.31.146.357.156.443.173l.423.079-.036-.429-.115-.228.063-.115a37.767 37.767 0 0 0 -3.798-1.817l-.008-.003-.022.053a4.084 4.084 0 0 0 -.411-.138l-.173-.024-.137.137a2.774 2.774 0 0 0 -.417-.115l-.163.003-.253.215c-.354-.131-.643-.208-.823-.219zm17.456 14.697c-.732-1.189-1.545-1.939-2.248-2.005a.6.6 0 0 0 -.473.322c-.199.384-.041 1.06.474 2.021.911 1.575 1.688 1.954 1.905 2.033l.31.06c.25 0 .397-.131.458-.202.437-.509-.069-1.582-.308-2.019zm-5.184-2.006-.296.062c-.192.08-.513.305-.511.904.003 1.069 1.068 2.864 2.26 3.357.203.084.377.117.524.117.306 0 .499-.14.602-.249.365-.383.346-1.115-.051-1.959h-.001c-.387-.817-1.398-2.146-2.527-2.232zm-2.324-5.197a.556.556 0 0 0 -.476.327c-.1.23-.137.664.702 1.787 1.252 1.577 2.166 1.769 2.267 1.786l.151.013a.58.58 0 0 0 .522-.274c.235-.394-.051-.99-.349-1.441.961 1.088 1.761 1.716 2.2 1.716h.008a.437.437 0 0 0 .406-.258c.058-.129.032-.308-.037-.512.647.633.909.772 1.066.772l.142-.032.155-.058.045-.16c.041-.142.115-.406-1.165-1.81l-.159-.172c-.349-.369-1.521-1.579-1.961-1.678l-.119-.014-.265.106-.031.18.015.197c-.327-.249-.658-.442-.921-.474l-.047-.006-.046.008a.429.429 0 0 0 -.344.276c-.05.133-.124.373.507 1.233-.789-.868-1.64-1.461-2.266-1.512zm-.332 1.71c-.76-.986-1.729-1.657-2.516-1.711-.399.031-.569.257-.634.389-.191.381-.053.936.432 1.709.952 1.38 1.898 1.705 2.165 1.771.128.033.242.046.342.046.367 0 .559-.181.649-.308.27-.381.159-1.005-.306-1.71zm11.16 21.065c.235.199.449.258.622.258a.74.74 0 0 0 .355-.09c.527-.288.758-1.189.601-2.353l-.041-.254c-.3-1.495-.923-2.437-1.741-2.52a.878.878 0 0 0 -.6.352c-.418.545-.376 1.541-.264 2.293.277 1.458.789 2.076 1.068 2.314zm-3.664-4.96-.09.003-.127.013c-.492.088-.856.488-1.025 1.129-.3 1.132.045 2.896 1.034 3.72.286.236.591.358.886.358.173 0 .342-.042.501-.126.613-.327.938-1.234.828-2.31-.104-1.021-.741-2.679-2.007-2.787zm2.008-4.11-.078-.238c-.51-1.338-1.311-2.214-2.152-2.287a.872.872 0 0 0 -.658.391c-.359.54-.194 1.445.013 2.123.555 1.558 1.311 2.076 1.611 2.226.174.087.346.129.508.129a.808.808 0 0 0 .526-.188c.433-.364.521-1.19.23-2.156zm-3.626-.229c-.461-1.325-1.368-2.226-2.36-2.296a1.18 1.18 0 0 0 -.895.485c-.319.445-.376 1.136-.154 2.017.431 1.369 1.17 1.941 1.573 2.16.259.14.517.21.759.21.254 0 .491-.077.691-.232.504-.388.677-1.192.455-2.098l-.044-.158zm5.067 24.067.127-.012c.632-.105 1.248-1.013 1.534-2.26l.053-.253c.17-1.052.082-1.875-.251-2.319-.156-.208-.367-.333-.684-.363-.749.086-1.373 1.046-1.671 2.58-.153.997-.083 1.737.204 2.199.169.278.416.428.688.428zm-3.516.005.219-.023c.766-.153 1.462-1.057 1.734-2.253.16-.709.181-1.766-.291-2.414-.224-.308-.54-.488-.969-.522-.658.058-1.233.549-1.62 1.386-.451.973-.609 2.46-.013 3.301.243.34.576.525.94.525zm3.199-7.195c.66-.236 1.128-1.178 1.193-2.401l.006-.27c-.036-1.586-.599-2.627-1.537-2.716-.877.089-1.427 1.104-1.469 2.731.028 1.316.39 1.984.69 2.312.237.261.519.399.806.399zm-4.037-.028c.773-.274 1.323-1.204 1.401-2.367v-.001l.01-.277c-.046-1.565-.755-2.63-1.857-2.715-1.059.085-1.748 1.124-1.801 2.733.01.358.04 1.443.741 2.196.31.333.684.509 1.066.509.146 0 .295-.025.44-.078zm-4.163 19.773.147.012c.692 0 1.646-.741 2.287-1.801.401-.664.724-1.578.433-2.152-.136-.267-.394-.431-.781-.46-.841.068-1.525.829-1.86 1.277-.52.699-1.013 1.769-.864 2.473.076.357.308.594.638.651zm4.796-5.938h.004c.699-.003 1.537-.851 2.038-2.061l.092-.237c.223-.667.411-1.579.046-2.146-.156-.241-.391-.383-.743-.413-.811.077-1.596.952-2.102 2.357-.267.854-.301 1.491-.108 1.948.149.351.431.552.773.552zm-1.405-2.312c.244-.852.203-1.573-.115-2.03-.211-.305-.533-.483-.978-.514-.97.072-1.879.996-2.319 2.373-.073.285-.295 1.148.054 1.835.206.409.57.64 1.004.64l.063-.003c.833-.041 1.761-.906 2.207-2.057zm-8.675 13.406.233.032c.704 0 1.732-.741 2.373-1.528l.142-.183c.519-.736.692-1.341.5-1.751-.068-.146-.249-.397-.736-.432-.802.058-1.728.733-2.484 1.818-.242.382-.558.945-.506 1.434.033.308.206.529.478.61zm-2.578-58.166c-.804-.787-1.747-1.322-2.449-1.364-.363.027-.502.233-.554.353-.145.342.038.804.586 1.464 1.051 1.173 2.025 1.486 2.437 1.486h.004c.436-.001.597-.259.646-.369.16-.359-.027-.863-.524-1.419zm-5.427-1.365c-.138.009-.329.021-.514.169-.138.112-.351.376-.226.891.209.858 1.256 1.985 2.344 2.208.123.026.232.036.331.036.464 0 .679-.239.758-.358.232-.352.151-.862-.222-1.398-.424-.609-1.459-1.493-2.471-1.548zm12.289 11.506c-.587-1.173-1.56-1.971-2.524-2.033-.488.035-.745.282-.874.482-.269.417-.261 1.043.029 1.83.542 1.23 1.327 1.743 1.747 1.939.27.127.533.19.773.19.294 0 .554-.095.756-.285.423-.393.492-1.103.187-1.9a6.853 6.853 0 0 0 -.094-.223zm-6.979-2.033-.36.047c-.558.148-.92.592-.993 1.218-.109.934.473 2.272 1.637 2.895a2.17 2.17 0 0 0 1.016.277c.341 0 .652-.102.906-.306.49-.395.654-1.086.437-1.849v-.001c-.239-.836-1.157-2.196-2.643-2.281zm2.059-3.466c-.655-1-1.628-1.679-2.52-1.732-.467.031-.696.263-.806.451-.219.378-.163.933.172 1.621.713 1.268 1.683 1.66 1.964 1.75.197.063.385.094.556.094.331 0 .608-.115.795-.337.322-.384.304-.986-.049-1.653zm-4.013.232-.088-.203c-.527-1.017-1.478-1.708-2.462-1.76-.56.033-.852.294-.998.508-.176.258-.332.728-.07 1.529.388.938 1.032 1.409 1.502 1.638.337.165.669.247.972.247.347 0 .658-.108.893-.324.404-.368.497-.98.251-1.635zm8.834 18.49c.146.916.504 1.625 1.063 2.107.374.322.782.486 1.179.486.219 0 .436-.051.642-.153.702-.352 1.095-1.225 1.025-2.279l-.017-.163-.012-.106c-.26-1.483-1.111-2.453-2.265-2.529-.451.032-.84.224-1.122.555-.399.469-.571 1.181-.493 2.082zm-5.5-1.269c-.387 1.084-.051 2.444.8 3.234.441.41.956.624 1.465.624.255 0 .51-.054.752-.164.79-.358 1.263-1.221 1.233-2.252-.032-1.109-.806-2.712-2.467-2.81-.84.051-1.489.55-1.783 1.368zm2.915-3.563c.397.288.818.434 1.215.434.283 0 .555-.076.796-.227.608-.383.884-1.182.72-2.085l-.035-.161-.022-.092c-.404-1.334-1.369-2.241-2.501-2.31-.478.031-.87.228-1.136.568-.347.447-.452 1.102-.3 1.92.226.853.649 1.509 1.263 1.953zm-6.947-1.971c.059.287.236 1.159 1.072 1.835.472.381 1.006.578 1.515.578.31 0 .613-.073.886-.223.696-.381 1.052-1.157.951-2.075l-.027-.174-.014-.085c-.333-1.346-1.333-2.258-2.585-2.326-.56.032-1.029.254-1.355.64-.377.446-.532 1.07-.443 1.83zm11.118 23.885.247-.021c.92-.147 1.712-1.05 1.971-2.244l.032-.17.017-.096c.094-.87-.076-1.612-.476-2.092-.286-.344-.679-.542-1.183-.574-1.107.078-1.98 1.091-2.225 2.608-.029.326-.095 1.088.31 1.782.307.521.775.807 1.307.807zm-4.91-.046c.966-.212 1.765-1.106 1.988-2.225.124-.619.074-1.518-.436-2.183-.346-.449-.849-.706-1.495-.743-.897.055-1.687.627-2.111 1.528-.465.988-.405 2.121.153 2.889.367.504.904.781 1.487.781.136-.001.275-.017.414-.047zm5.176-9.526.01-.283c-.055-1.566-.874-2.63-2.129-2.712-1.225.082-2.025 1.121-2.088 2.735.012.322.046 1.3.727 2.053.394.433.873.661 1.37.661.182 0 .368-.032.552-.095.858-.292 1.47-1.219 1.558-2.359zm-10.328-.258c.013.317.047 1.157.669 1.889.451.532 1.045.815 1.661.815.21 0 .423-.032.633-.1.942-.3 1.615-1.22 1.712-2.344l.009-.205.003-.082c-.064-1.567-.975-2.631-2.358-2.711-1.346.08-2.26 1.143-2.329 2.738zm8.388 20.59.11-.219c.333-.774.367-1.418.099-1.859-.132-.217-.401-.483-.975-.52-.966.064-1.943.895-2.497 2.137-.103.276-.342.92-.156 1.523.135.433.46.708.893.75l.124.006c.816 0 1.826-.757 2.402-1.818zm-6.895 1.829.062.001c.931 0 1.955-.766 2.453-1.848.253-.545.396-1.338.044-1.929-.164-.274-.502-.61-1.227-.651-.836.049-1.646.559-2.169 1.363-.476.733-.617 1.55-.378 2.187.202.536.645.857 1.215.877zm4.531-5.963.14-.006c.946-.079 1.883-.932 2.279-2.073v-.003c.018-.05.037-.115.076-.249.179-.796.091-1.462-.255-1.926-.269-.36-.674-.568-1.214-.6-1.133.072-2.101 1.002-2.471 2.397-.058.308-.194 1.028.17 1.688.271.497.732.772 1.275.772zm-5.081-.023c1.036-.12 1.952-.952 2.283-2.071l.04-.154.024-.103c.118-.743-.014-1.379-.382-1.837-.326-.404-.81-.636-1.438-.669-1.269.072-2.274 1.009-2.562 2.416-.032.27-.108.906.247 1.527.333.584.887.905 1.545.905zm-2.088 15.332.304.06c.669 0 1.701-.667 2.285-1.21l.153-.147c.6-.629.829-1.138.684-1.515-.054-.138-.206-.374-.681-.406-.717.046-1.619.597-2.42 1.483-.259.308-.608.765-.634 1.174-.015.252.1.461.309.561zm-2.935.024.29.041c.691 0 1.632-.59 2.208-1.237.191-.214.793-.959.546-1.562-.085-.204-.292-.452-.85-.485-.842.049-1.636.658-2.096 1.213-.426.511-.641 1.032-.591 1.427a.696.696 0 0 0 .493.603zm7.524-5.753.127-.191c.391-.677.483-1.25.265-1.656-.112-.209-.356-.467-.927-.501-.925.056-1.879.759-2.502 1.853-.117.241-.394.805-.267 1.339.086.367.329.608.687.678l.214.019c.744.001 1.772-.645 2.403-1.541zm-3.919-1.784c-.147-.237-.454-.528-1.12-.564-1.031.056-1.988.79-2.449 1.891-.07.215-.203.615-.105 1.066.112.51.465.847.972.924l.229.017c.836 0 1.803-.641 2.337-1.577h-.001l.104-.199c.337-.786.204-1.281.033-1.558zm-4.414-54.807c-.513-.824-1.36-1.384-2.194-1.426-.49.027-.738.256-.861.443-.145.221-.267.622-.015 1.294a2.724 2.724 0 0 0 1.518 1.435c.245.091.483.137.701.137.347 0 .645-.115.851-.338.31-.337.342-.838.091-1.375zm-7.223-.275c-.117.72.265 1.453.974 1.867.329.193.684.289 1.022.289.331 0 .643-.092.897-.278.422-.308.601-.818.479-1.364-.146-.658-.864-1.609-2.039-1.665l-.295.032c-.548.116-.945.545-1.038 1.119zm3.391-3.192-.086-.132c-.451-.605-1.139-1.016-1.787-1.047-.387.021-.582.204-.678.354-.161.255-.163.615.006 1.035a2.232 2.232 0 0 0 1.378 1.158c.146.04.288.059.423.059.328 0 .609-.117.775-.335.104-.135.308-.51-.031-1.091zm-3.023-.047c-.236-.656-.814-1.1-1.506-1.132-.687.035-1.154.533-1.157 1.279.044.427.237.769.577 1.018.281.206.618.312.945.312.259 0 .511-.066.723-.201.378-.241.55-.663.458-1.128zm6.651 13.818c.064.261.256 1.055 1.081 1.667.465.345.977.522 1.46.522.338 0 .665-.087.951-.263.609-.374.891-1.071.754-1.865v-.001l-.032-.154-.021-.082c-.382-1.203-1.365-2.02-2.542-2.08-.554.029-1.005.239-1.304.605-.327.402-.451.963-.347 1.651zm-3.84-2.257-.087.002-.151.008c-.833.085-1.482.593-1.733 1.363-.277.843-.006 1.765.704 2.406a2.513 2.513 0 0 0 1.675.666c.326 0 .649-.07.947-.212.733-.349 1.146-1.05 1.104-1.876-.048-.931-.843-2.277-2.459-2.357zm.03-3.203c.059.231.237.934 1 1.471.427.301.9.454 1.346.454.341 0 .667-.09.942-.272.526-.346.755-.957.613-1.634l-.033-.132-.023-.082c-.377-1.041-1.286-1.748-2.346-1.8-.502.026-.914.218-1.188.554-.293.359-.402.845-.311 1.441zm-1.189-.145c-.208-1.088-1.028-1.796-2.171-1.85-1.105.054-1.871.817-1.909 1.939.018.233.065.852.66 1.391.427.388.966.591 1.506.591.303 0 .605-.063.888-.194.678-.313 1.068-.932 1.046-1.659l-.01-.131zm6.587 18.591c.035.332.119 1.11.801 1.816.492.508 1.118.778 1.746.778.276 0 .551-.052.818-.158.881-.351 1.436-1.208 1.447-2.237v-.004l-.006-.172-.005-.103c-.19-1.495-1.16-2.47-2.57-2.545-1.377.076-2.254 1.093-2.231 2.625zm-3.422 2.462c.986-.329 1.633-1.191 1.689-2.25v-.001a2.862 2.862 0 0 0 -.533-1.765c-.332-.458-.963-1.014-2.116-1.072-1.059.054-1.889.597-2.28 1.489-.394.904-.228 1.99.424 2.769.524.627 1.245.965 1.996.965.272 0 .548-.044.82-.135zm4.358-9.375c-.25-1.379-1.238-2.278-2.611-2.346-1.328.069-2.187 1.04-2.133 2.455.044.31.144 1.038.846 1.695.51.479 1.148.733 1.774.733.314 0 .626-.064.915-.195.804-.365 1.264-1.141 1.232-2.076l-.013-.167zm-6.423.022c-.15-1.371-1.152-2.301-2.584-2.369-1.397.068-2.376 1.028-2.438 2.424.017.276.054.919.606 1.55a2.65 2.65 0 0 0 1.993.918c.285 0 .57-.047.85-.145a2.318 2.318 0 0 0 1.578-2.112h-.001a3.29 3.29 0 0 0 -.004-.266zm8.203 23.954c1.034-.228 1.833-1.11 2.033-2.244l.026-.186.01-.092c.056-1.504-.831-2.566-2.244-2.643-1.391.077-2.393 1.095-2.557 2.628-.004.291-.013.972.443 1.625.436.625 1.083.968 1.792.968.163-.001.33-.019.497-.056zm-6.426-.04c1.038-.281 1.782-1.129 1.941-2.216a2.67 2.67 0 0 0 -.551-2.021c-.443-.541-1.091-.849-1.907-.89-1.083.056-1.98.65-2.403 1.589-.408.906-.291 1.934.306 2.681a2.474 2.474 0 0 0 2.614.857zm3.676-7.148c1.022-.295 1.751-1.215 1.857-2.345l.009-.184.004-.109c-.07-1.568-1.055-2.631-2.544-2.71-1.459.079-2.451 1.142-2.526 2.742.015.305.049 1.02.577 1.703.497.646 1.207 1 1.952 1 .222 0 .448-.032.671-.097zm-10.418-2.605c.017.307.054 1.024.622 1.711a2.643 2.643 0 0 0 2.844.868c1.052-.32 1.775-1.209 1.885-2.319a4.83 4.83 0 0 0 .013-.295c-.074-1.568-1.115-2.631-2.684-2.709-1.549.079-2.601 1.143-2.68 2.744zm10.537 22.41c1.023-.028 2.012-.797 2.405-1.868l.074-.235c.149-.668.058-1.246-.265-1.67-.299-.395-.768-.619-1.395-.652-1.227.065-2.219.918-2.533 2.202-.041.267-.108.713.112 1.222.273.631.847 1.002 1.546 1.002zm-5.224-.03a2.518 2.518 0 0 0 2.073-1.869c.156-.606.041-1.252-.31-1.73-.247-.337-.732-.749-1.666-.795-.965.049-1.789.545-2.205 1.328-.369.696-.356 1.495.033 2.137a1.97 1.97 0 0 0 1.725.956c.114 0 .23-.009.35-.027zm3.788-5.962c1.072-.156 1.962-.992 2.216-2.078l.035-.178.013-.085c.062-.704-.113-1.313-.504-1.762-.381-.436-.936-.686-1.641-.722-1.386.073-2.403 1.019-2.597 2.442-.012.294-.032.784.288 1.345a2.063 2.063 0 0 0 1.833 1.065c.118 0 .237-.009.357-.027zm-6.74.023c.196 0 .397-.023.6-.069 1.046-.237 1.8-1.025 1.967-2.055v-.001l.018-.158.01-.106c.012-1.4-.955-2.387-2.437-2.458-1.478.073-2.49 1.028-2.579 2.474.014.295.037.786.422 1.337a2.408 2.408 0 0 0 1.999 1.036zm4.195 15.357.253.026c.702 0 1.591-.524 2.094-1.269l.001-.001.103-.164c.351-.664.26-1.095.123-1.338-.122-.215-.388-.478-1.002-.51-.905.047-1.761.658-2.193 1.58-.072.192-.192.513-.124.893.076.414.347.7.745.783zm-3.388.027c.781 0 1.557-.54 1.9-1.324.201-.463.185-.981-.045-1.351-.16-.259-.496-.574-1.222-.609-.714.035-1.336.377-1.705.938-.304.463-.382 1.019-.206 1.488.197.522.658.842 1.234.856zm3.356-4.252h.031c.925-.014 1.842-.674 2.228-1.605l.074-.208c.154-.579.088-1.086-.188-1.466-.27-.37-.714-.582-1.316-.613-1.136.059-2.05.81-2.335 1.943-.035.219-.099.626.109 1.081.248.554.757.868 1.397.868zm-4.839-.002.287-.019a2.165 2.165 0 0 0 1.837-1.632l.04-.215c.047-.543-.095-1.022-.411-1.384-.338-.387-.845-.608-1.496-.638-1.207.059-2.075.85-2.16 2.005.005.183.017.526.228.913.34.613.965.97 1.675.97zm1.384 7.412.253.032c.578 0 1.286-.445 1.682-.933l.095-.126c.338-.522.283-.879.177-1.087-.078-.154-.287-.415-.847-.443-.732.037-1.429.51-1.788 1.228-.056.137-.159.392-.115.692.047.324.246.556.543.637zm-2.389.031h.017c.604 0 1.196-.414 1.446-1.011l.051-.144c.122-.476-.013-.793-.149-.977-.142-.194-.428-.429-1.009-.456-.818.04-1.416.569-1.493 1.356.001.122.003.274.081.479.18.466.574.747 1.056.753zm-3.195-65.416c-.01.201-.037.737.431 1.21.327.329.792.505 1.275.505.244 0 .492-.045.729-.137.631-.244 1.022-.772 1.05-1.411l-.004-.192c-.108-.89-.791-1.516-1.729-1.56-.919.044-1.605.652-1.752 1.585zm-2.186-1.584c-.746.037-1.454.476-1.843 1.145-.299.509-.347 1.044-.136 1.467.226.449.677.706 1.225.706l.156-.006c.701-.06 1.586-.549 1.868-1.48v-.001c.137-.451.07-.947-.173-1.292-.161-.23-.476-.509-1.097-.539zm2.636-3.22c-.655.032-1.252.47-1.534 1.147-.045.148-.186.599.118 1.012.21.286.563.444.964.444.114 0 .231-.012.35-.038.619-.134 1.095-.586 1.214-1.153l.022-.151c.017-.35-.077-.655-.272-.881-.2-.231-.487-.363-.862-.38zm-2.647 0c-.608.031-1.31.438-1.805 1.058-.108.156-.395.57-.261 1.002.094.302.35.501.705.543l.149.009c.573 0 1.347-.362 1.787-1.098l.001-.001.073-.132c.185-.406.201-.771.045-1.029-.09-.15-.278-.332-.694-.352zm1.462 14.873c0 .231 0 .847.486 1.428.45.539 1.116.833 1.819.833.261 0 .527-.04.79-.124.914-.292 1.524-1.027 1.592-1.918v-.004l.004-.149.001-.079-.001-.015c-.108-1.245-1.014-2.09-2.342-2.151-1.298.06-2.218.903-2.349 2.179zm-5.769-.739c-.364.725-.344 1.545.053 2.139.368.551.984.859 1.674.859.156 0 .315-.015.476-.047 1.013-.203 1.823-.987 2.015-1.955a2.104 2.104 0 0 0 -.387-1.686c-.25-.319-.724-.709-1.6-.751a2.61 2.61 0 0 0 -2.231 1.441zm5.642-6.638c-1.093.053-1.948.775-2.184 1.875-.026.227-.086.758.291 1.284.352.492.916.763 1.545.763.177 0 .359-.022.542-.065.893-.214 1.552-.892 1.68-1.728.006-.042.012-.095.022-.22-.009-1.089-.759-1.855-1.896-1.909zm-4.838 0c-1.016.053-1.933.756-2.342 1.82-.06.206-.219.752.045 1.292.249.51.755.804 1.373.804l.138-.005c.838-.058 1.866-.672 2.211-1.73l.058-.211c.103-.574.006-1.066-.277-1.422-.264-.333-.669-.521-1.206-.548zm4.559 20.414c.01.295.036.988.592 1.658a2.651 2.651 0 0 0 2.06.979c.274 0 .555-.042.832-.127 1.047-.322 1.762-1.188 1.864-2.258v-.001l.008-.163.004-.12c-.092-1.486-1.134-2.493-2.688-2.567-1.525.073-2.572 1.08-2.672 2.599zm-6.751-1.054c-.42.897-.326 1.931.249 2.699a2.42 2.42 0 0 0 1.955.991c.217 0 .438-.029.659-.087a2.705 2.705 0 0 0 1.991-2.286 2.657 2.657 0 0 0 -.576-1.984c-.446-.535-1.092-.838-1.901-.878-1.059.054-1.948.632-2.377 1.545zm6.115-8.18c-1.418.069-2.403.975-2.576 2.405-.004.277-.014.925.478 1.555a2.387 2.387 0 0 0 1.907.921c.237 0 .481-.033.724-.099 1.038-.286 1.764-1.098 1.892-2.12v-.001l.013-.156.005-.109c-.045-1.366-1.014-2.328-2.443-2.396zm-8.95 2.374c-.027.276-.09.925.324 1.563a2.033 2.033 0 0 0 1.744.942c.153 0 .309-.015.469-.046a2.732 2.732 0 0 0 2.137-2.15l.024-.154.014-.108c.067-1.4-.756-2.351-2.132-2.421-1.324.069-2.311.967-2.58 2.374zm13.083 23.855c1.02-.315 1.727-1.148 1.843-2.173v-.001l.012-.161.005-.12c-.063-1.491-1.134-2.542-2.697-2.617-1.559.077-2.601 1.105-2.655 2.657.019.291.067.975.631 1.624a2.649 2.649 0 0 0 2.017.922c.28-.001.563-.044.844-.131zm-7.869.131c.269 0 .542-.044.81-.132.966-.32 1.612-1.157 1.686-2.185a2.769 2.769 0 0 0 -.684-1.987c-.485-.547-1.161-.857-1.992-.9-1.033.054-1.844.596-2.226 1.487a2.69 2.69 0 0 0 .447 2.793c.516.601 1.223.924 1.959.924zm.69-9.834c.015.307.049 1.024.608 1.712a2.589 2.589 0 0 0 2.028.977c.261 0 .528-.038.793-.118a2.654 2.654 0 0 0 1.928-2.602c-.077-1.568-1.128-2.63-2.71-2.709-1.532.079-2.572 1.142-2.647 2.74zm-6.872 0c.015.305.049 1.02.565 1.703.479.636 1.177.983 1.915.983.22 0 .445-.031.667-.094 1.033-.295 1.766-1.21 1.87-2.333v-.001l.009-.174.004-.115c-.074-1.566-1.06-2.63-2.546-2.708-1.439.078-2.413 1.142-2.484 2.739zm13.942 22.337c.91-.238 1.556-.95 1.683-1.856l.015-.156.005-.091c-.027-1.277-.966-2.179-2.369-2.244-1.375.065-2.303.969-2.306 2.285.028.265.074.71.452 1.207a2.38 2.38 0 0 0 1.898.936c.206 0 .415-.027.622-.081zm-6.48.077c.276 0 .549-.053.806-.158.745-.305 1.192-.986 1.2-1.82v-.001c.008-.963-.763-2.358-2.529-2.446-.904.046-1.582.49-1.862 1.219-.306.797-.059 1.757.632 2.448.493.493 1.129.758 1.753.758zm2.469-5.959c.278 0 .559-.045.836-.14a2.325 2.325 0 0 0 1.591-2.02v-.001l.006-.155.001-.096-.001-.014c-.103-1.405-1.122-2.36-2.63-2.432-1.448.072-2.405 1.061-2.374 2.496.033.27.112.905.665 1.509a2.582 2.582 0 0 0 1.906.853zm-8.199-.852c.515.551 1.191.849 1.859.847.274 0 .546-.049.805-.151.813-.322 1.316-1.1 1.315-2.032 0-.058-.004-.132-.014-.263-.205-1.391-1.227-2.335-2.637-2.407-.659.036-1.204.282-1.577.715-.387.45-.555 1.063-.482 1.807.058.291.177.893.731 1.484zm12.102 16.185a1.661 1.661 0 0 0 1.314-1.355l.022-.188c.014-.966-.684-1.65-1.77-1.7-.549.026-1 .218-1.306.555-.276.305-.409.705-.381 1.193.024.151.07.435.281.746a1.774 1.774 0 0 0 1.84.749zm-2.962-1.447c-.07-.708-.752-1.732-2.123-1.794l-.12.006c-.556.058-.975.379-1.122.861-.188.619.101 1.363.738 1.893.413.344.873.522 1.302.522.232 0 .454-.051.655-.158.471-.25.726-.76.67-1.33zm-.013-2.762c.219 0 .441-.036.655-.108a1.754 1.754 0 0 0 1.219-1.602c.004-.044.004-.1.001-.22-.114-1.133-.977-1.903-2.23-1.962-.618.031-1.119.251-1.448.64-.31.364-.442.845-.376 1.425.05.228.133.61.504 1.038a2.229 2.229 0 0 0 1.675.789zm-3.313-1.774a2.803 2.803 0 0 0 -.04-.211 2.566 2.566 0 0 0 -2.392-1.907c-.559.031-.992.24-1.252.606-.272.383-.326.895-.147 1.507.083.213.302.781.941 1.266.447.342.94.518 1.398.518.286 0 .559-.068.801-.208.522-.302.779-.889.691-1.571zm3.455 8.646c.341.364.759.56 1.163.56.15 0 .297-.027.438-.083.426-.168.69-.569.69-1.048l-.009-.149c-.115-.74-.736-1.263-1.577-1.301-.549.027-.825.264-.96.459-.131.186-.254.51-.088 1.025.05.118.134.314.343.537zm-.82-.829c-.39-.699-1.087-1.155-1.853-1.192-.517.028-.716.287-.79.438-.103.211-.146.574.241 1.12.42.517.891.774 1.21.9.235.091.428.127.588.127a.772.772 0 0 0 .572-.219c.237-.242.27-.623.094-1.043l-.06-.129zm-4.341-65.604c-.793.042-1.655.599-2.208 1.445-.119.216-.399.722-.203 1.235.138.365.467.592.899.622l.104.003c.801 0 1.741-.602 2.183-1.412l.083-.17c.268-.658.156-1.061.015-1.284-.117-.186-.357-.412-.873-.439zm-3.33 0c-.811.047-1.747.719-2.273 1.323-.279.32-.604.799-.567 1.266a.728.728 0 0 0 .543.669l.32.044c.705 0 1.633-.545 2.26-1.366.167-.218.69-.969.438-1.52-.062-.144-.238-.387-.721-.416zm-.573 9.473c-1.133.06-2.124.875-2.531 2.106-.055.231-.199.845.096 1.437.279.563.828.886 1.487.886l.169-.007c1.061-.086 2.03-.888 2.358-1.951l.038-.145.023-.092c.109-.657-.006-1.22-.335-1.628-.293-.367-.731-.576-1.305-.606zm-4.977 0c-.863.051-1.733.642-2.269 1.541-.452.758-.563 1.555-.295 2.133.227.488.673.766 1.227.766l.044-.001c.975-.024 2.007-.841 2.453-1.943.22-.543.329-1.326-.029-1.896-.16-.252-.478-.561-1.131-.6zm3.093-1.283.04.001c.915 0 1.947-.72 2.416-1.691l.088-.203c.276-.787.128-1.261-.045-1.52-.14-.21-.42-.468-1.004-.5-.934.052-1.893.741-2.451 1.777-.105.233-.385.852-.136 1.439.185.431.583.685 1.092.697zm-4.974-2.17c-.147.247-.491.828-.386 1.402a.892.892 0 0 0 .742.747l.238.022c.796 0 1.787-.672 2.402-1.663l.112-.192c.346-.681.415-1.241.2-1.619-.104-.185-.323-.41-.816-.441-.847.052-1.798.715-2.492 1.744zm2.001 18.643c-.013.307-.047 1.121.541 1.847a2.1 2.1 0 0 0 1.651.802c.195 0 .393-.027.595-.081 1.011-.272 1.777-1.163 1.951-2.269l.021-.181.009-.097c.027-1.475-.856-2.517-2.234-2.592-1.365.075-2.335 1.049-2.534 2.571zm-5.513-1.088c-.477.979-.433 2.123.112 2.914.364.529.904.82 1.493.82.131 0 .263-.014.397-.044.981-.211 1.779-1.135 1.987-2.297.11-.618.046-1.511-.467-2.164-.338-.431-.822-.677-1.437-.713-.891.056-1.651.597-2.085 1.484zm3.58-5.766c-.047.288-.176 1.054.283 1.74.344.517.866.796 1.469.796l.345-.029c1.018-.172 1.893-1.04 2.182-2.157l.035-.159.019-.097c.094-.749-.051-1.379-.419-1.82-.314-.377-.773-.593-1.365-.626-1.221.069-2.194.958-2.549 2.352zm-2.686-2.353c-1.086.07-2.02.954-2.447 2.331-.073.312-.241 1.041.103 1.727.267.529.731.825 1.288.825l.133-.006c.969-.079 1.905-.967 2.276-2.158l.045-.159.023-.094c.158-.805.059-1.466-.285-1.912-.254-.33-.634-.523-1.136-.554zm7.977 26.197c.855-.341 1.404-1.172 1.429-2.169v-.003l-.003-.169-.005-.106c-.168-1.498-1.166-2.516-2.579-2.593-1.37.077-2.247 1.139-2.179 2.674.041.3.147 1.095.832 1.782.482.483 1.09.74 1.7.74a2.19 2.19 0 0 0 .805-.156zm-4.807-2.184c-.022-1.125-.783-2.755-2.449-2.856-.84.053-1.484.549-1.766 1.36-.381 1.091-.018 2.457.86 3.252.429.387.925.588 1.415.588.251 0 .5-.053.736-.161.761-.346 1.223-1.183 1.204-2.183zm-1.905-7.483c.017.346.053 1.156.661 1.882.447.534 1.034.82 1.645.82.204 0 .409-.031.614-.096.936-.296 1.6-1.22 1.693-2.352l.01-.287c-.068-1.566-.966-2.63-2.332-2.71-1.329.08-2.228 1.144-2.291 2.743zm-5.537-.005c.013.32.051 1.297.723 2.048.386.432.857.658 1.343.658.177 0 .355-.029.533-.09.843-.29 1.442-1.215 1.524-2.358l.008-.19.003-.094c-.062-1.59-.843-2.63-2.087-2.712-1.208.083-1.992 1.123-2.047 2.738zm15.461 20.391a4.504 4.504 0 0 0 -.041-.233c-.329-1.251-1.327-2.102-2.575-2.166-.584.032-1.046.255-1.338.647-.317.427-.4 1.007-.229 1.709.091.27.304.902.987 1.461.486.399 1.029.605 1.541.605.295 0 .579-.069.836-.21.61-.335.916-1.011.82-1.809v-.004zm-7.734 1.667c.383.235.77.352 1.125.352.295 0 .567-.082.795-.247.49-.356.67-1.032.483-1.806-.227-.932-1.184-2.28-2.644-2.365a1.97 1.97 0 0 0 -.378.05c-.528.144-.877.554-.959 1.127-.143 1.006.535 2.248 1.578 2.889zm3.592-8.073c-.297-1.378-1.296-2.314-2.583-2.385-.579.033-1.054.261-1.37.661-.367.459-.491 1.098-.358 1.874.072.281.292 1.136 1.119 1.782.456.358.955.541 1.433.541.295 0 .581-.07.843-.211.669-.361 1.024-1.11.95-2.005-.003-.056-.014-.123-.034-.257zm-9.433.167c.261.832.699 1.469 1.301 1.893.387.273.792.413 1.17.411.263 0 .513-.067.732-.204.582-.364.842-1.124.696-2.034l-.033-.169-.017-.083c-.378-1.365-1.336-2.294-2.485-2.366-.483.032-.875.235-1.136.587-.343.465-.424 1.137-.228 1.965zm15.098 17.506c.297.126.545.173.749.173a1 1 0 0 0 .704-.26c.31-.295.381-.783.19-1.306l-.071-.172c-.451-.892-1.319-1.5-2.248-1.547-.44.024-.774.205-.94.508-.136.249-.219.683.168 1.369a3.317 3.317 0 0 0 1.448 1.235zm-2.831.141.294.031c.345 0 .531-.15.631-.294.217-.31.153-.796-.178-1.333-.39-.632-1.363-1.594-2.489-1.657-.155.01-.368.023-.564.185-.244.199-.329.501-.244.85.216.871 1.527 2.012 2.55 2.218zm-3.157-5.96c.347.636.82 1.122 1.406 1.443.361.199.718.299 1.038.299.297 0 .565-.086.775-.259.408-.332.523-.905.317-1.57l-.073-.203c-.474-1.074-1.436-1.805-2.487-1.861-.617.036-.915.322-1.056.555-.168.278-.292.777.08 1.596zm-1.993 1.662c.187.058.349.082.488.082.374 0 .591-.17.699-.295.302-.349.297-.924-.017-1.582l-.1-.192c-.631-1.07-1.584-1.77-2.53-1.827-.513.035-.749.286-.856.491-.213.408-.108.984.313 1.688.807 1.186 1.737 1.551 2.003 1.635zm2.398-59.482c-.642.044-1.589.578-2.421 1.371-.313.323-.731.805-.756 1.263-.015.279.117.507.355.611l.317.059c.614 0 1.539-.52 2.324-1.342l.137-.149c.836-.968.681-1.345.629-1.468-.049-.117-.183-.317-.585-.345zm-9.652 13.26c.164.397.505.632.936.645l.04.001c.847 0 1.88-.815 2.419-1.914l.099-.222c.299-.779.318-1.411.054-1.827-.124-.195-.372-.436-.89-.47-.897.062-1.865.859-2.473 2.048-.114.265-.464 1.067-.185 1.739zm-.983-3.786c-.681.057-1.461.659-2.088 1.612-.446.679-.847 1.63-.636 2.265.11.327.359.531.681.561l.083.003c.704 0 1.642-.784 2.27-1.91.129-.233.758-1.43.394-2.121-.126-.237-.355-.383-.704-.41zm5.205-5.198c-.731.053-1.673.708-2.47 1.725-.279.392-.645.973-.6 1.5.028.333.218.573.518.658l.25.033c.682 0 1.629-.645 2.366-1.642l.131-.185c.488-.758.642-1.334.456-1.711-.062-.128-.224-.346-.651-.378zm-5.729 17.816c-1.066.076-1.924 1.068-2.188 2.553-.032.308-.132 1.247.387 1.995.301.435.725.668 1.193.668l.305-.032c.887-.186 1.639-1.111 1.873-2.303.013-.064.026-.147.042-.266.082-.888-.085-1.605-.481-2.074-.274-.322-.649-.509-1.131-.541zm-4.361 0c-.61.054-1.155.518-1.534 1.305-.473.984-.665 2.499-.087 3.372.233.353.563.544.923.544l.201-.02c.766-.148 1.454-1.079 1.711-2.316v-.001c.149-.721.159-1.782-.301-2.401-.212-.284-.506-.451-.913-.483zm1.613-2.447c.204.441.573.69 1.016.69l.056-.001c.838-.04 1.757-.943 2.184-2.147.018-.051.038-.115.078-.244.226-.875.178-1.571-.137-2.014-.199-.28-.495-.443-.907-.472-.918.07-1.812.97-2.285 2.312-.083.287-.338 1.159-.005 1.876zm-1.335-4.187c-.75.073-1.537.949-2.059 2.299-.288.861-.34 1.512-.156 1.991.142.371.422.584.769.584.699 0 1.525-.879 2.011-2.139l.083-.235c.211-.674.388-1.591.037-2.125-.142-.218-.356-.347-.685-.375zm5.722 23.733c-.245-1.488-1.104-2.499-2.235-2.578a1.538 1.538 0 0 0 -1.096.56c-.397.478-.561 1.227-.459 2.129.165.9.528 1.592 1.079 2.057.359.304.75.46 1.128.46.213 0 .42-.049.618-.147.674-.34 1.054-1.188.992-2.216zm-4.674.252v-.001c-.105-1.034-.731-2.719-1.964-2.829l-.091.003-.129.014c-.478.091-.829.484-.99 1.109-.291 1.137.07 2.91 1.073 3.735.279.231.577.349.86.349.163 0 .32-.038.469-.118.585-.313.881-1.18.772-2.262zm1.683-7.211.006-.276c-.051-1.588-.722-2.628-1.806-2.713-1.04.086-1.712 1.125-1.757 2.739.013.355.051 1.438.737 2.187.311.341.683.519 1.06.519.137 0 .276-.024.413-.073.748-.265 1.276-1.201 1.347-2.383zm-4.325-.005.005-.269c-.042-1.609-.572-2.624-1.484-2.714-.841.089-1.384 1.13-1.418 2.731.036 1.313.391 1.98.682 2.307.229.259.502.395.778.395l.29-.05c.641-.225 1.092-1.168 1.147-2.4zm9.247 21.996c.25.114.491.172.71.172a.99.99 0 0 0 .688-.253c.401-.368.469-1.037.186-1.837l-.085-.22c-.56-1.219-1.53-2.048-2.521-2.112-.51.037-.768.297-.895.508-.264.441-.22 1.089.135 1.892.633 1.226 1.457 1.703 1.782 1.85zm-3.395.067c.186.076.344.105.478.105a.733.733 0 0 0 .545-.222c.341-.354.318-1.043-.067-1.893-.395-.878-1.374-2.216-2.505-2.307l-.309.067c-.19.083-.505.31-.497.897.014 1.057 1.125 2.848 2.355 3.353zm-1.425-6.155c.302.199.606.299.884.299.219 0 .423-.062.601-.186.51-.355.686-1.129.469-2.07l-.041-.158-.024-.087c-.442-1.356-1.338-2.279-2.335-2.352a1.156 1.156 0 0 0 -.89.499c-.318.463-.35 1.172-.086 2.066.41 1.138.999 1.71 1.422 1.989zm-4.244-4.553a.844.844 0 0 0 -.645.396c-.358.561-.158 1.486.078 2.176.592 1.512 1.323 2.01 1.609 2.153.182.091.341.124.476.124.228 0 .39-.096.482-.173.411-.342.486-1.128.2-2.101l-.076-.237c-.501-1.365-1.289-2.262-2.124-2.338zm16.668 20.22.131.009c.331 0 .477-.172.537-.281.173-.32.006-.786-.495-1.384l-.128-.149c-.818-.874-1.723-1.424-2.467-1.47-.414.032-.561.263-.613.399-.141.374.104.888.737 1.534 1.024.965 1.927 1.297 2.298 1.342zm-5.606-4.277.302.041c.318 0 .486-.154.564-.263.356-.488-.086-1.315-.294-1.647l-.12-.185c-.766-1.07-1.688-1.744-2.519-1.802-.422.035-.595.278-.659.42-.238.515.161 1.245.546 1.778 1.051 1.322 2 1.613 2.18 1.658zm7.724 7.444.263-.076.135-.122-.019-.104c.456.192.867.326 1.113.326l.114-.013.246-.087.036-.21-.013-.191c.581.303 1.131.502 1.45.502l.105-.009a.421.421 0 0 0 .35-.304c.033-.122.009-.288-.171-.535.753.588 1.454.814 1.735.842l.108.005c.331 0 .474-.167.532-.274.181-.336-.072-.765-.315-1.065l-.099-.115c-.624-.67-1.384-1.092-2.07-1.128-.445.027-.595.263-.645.4-.079.219-.008.474.188.758l-.076-.063c-.847-.67-1.63-1.06-2.264-1.093l-.094.008a.5.5 0 0 0 -.418.373c-.031.136.01.279.092.431-.655-.394-1.409-.777-1.954-.811l-.101.012a.413.413 0 0 0 -.323.338l.013.213c-.89-.452-1.255-.545-1.507-.563l-.351.128-.015.213-.001.022c-.571-.269-.797-.344-.956-.363l-.163.006-.219.164c-.306-.144-.34-.153-.398-.165l-.129-.027-.113.07-.264.299.191.208c.118.127.778.514 1.989 1.092.964.451 2.102.931 2.312.931h.576l.009.003.013-.003h.461l-.19-.129.063-.076c.303.103.58.182.774.182zm.675-70.398c.153-.019.298-.06.445-.095l.015.012.188.076c.118 0 .332-.05.768-.174l.033.15.249.029.065.004c.173 0 .442-.069.982-.243l.112.125a.336.336 0 0 0 .29.128c.201 0 .559-.094 1.246-.349l-.017.099.167.138c.049.04.123.103.313.103.234 0 .665-.113 1.415-.47-.006.153.044.295.173.381.092.062.209.09.341.09.424 0 1.003-.285 1.468-.624l-.008.145c.038.236.215.408.47.461l.178.017c.42 0 .978-.253 1.296-.74v-.001l.081-.15a.77.77 0 0 0 .239.644.992.992 0 0 0 .668.245c.164 0 .331-.036.483-.11.329-.161.51-.461.494-.804.162.418.609.854 1.202.909l.103.005c.286 0 .518-.118.631-.326a.615.615 0 0 0 .06-.324c.604.473 1.137.65 1.456.65l.1-.006c.224-.029.386-.16.431-.351l.001-.111c.8.381 1.208.47 1.423.47a.486.486 0 0 0 .218-.043l.233-.138.003-.181c.717.274 1.073.366 1.272.366.133 0 .2-.04.264-.09l.16-.145-.005-.031c.486.149.893.257 1.06.257l.031-.001.199-.049.067-.149c.492.142.713.195.832.195l.17-.056.099-.062.306.063.028.014.004-.008.215.024.056-.007.031-.013.153.043.037-.124.428-.183-.325-.163.047-.157c-.15-.058-.927-.317-1.97-.596l-.231-.062c-1.462-.378-2.288-.519-2.296-.52l-.008.038a5.128 5.128 0 0 0 -.252-.041l-.36-.033v.053l-.141-.021-.565-.033.026.053-.163-.02-.114.003-.196.11a5.008 5.008 0 0 0 -.508-.092l.066-.01-.427-.119.032-.302-.103-.013.001-.007-.184-.016c-.352-.044-.98-.113-1.776-.169-.129-.008-.26-.013-.39-.021l-.157-.013-.009-.001c-.153-.008-.306-.012-.459-.019l-.232-.012a22.272 22.272 0 0 0 -1.312-.025l-.004-.001h-.121l-.015.001-.128.001-.072.001-.226.001c-.127.002-.244.006-.366.009l-.247.006c-2.105.061-3.534.269-3.603.279l.049.325h-.001.001l.022.149-.126.062-.024-.097-.296-.029a4.398 4.398 0 0 0 -.371.062l.001-.003.107-.06.615-.244-2.364.246-.211.034-.006-.031c-.199.033-.395.076-.591.118l-.137.03c-.273.06-.573.134-.882.213-.263.063-.481.121-.85.22-.219.059-.437.122-.656.185-.245.067-.488.134-.746.203-.135.042-.59.187-.655.217l.063.166-.915.633 1.339-.173zm8.919-1.557-.014-.029.159.012h.001l-.141.092zm2.686-.241-.018-.019.011-.022.023.003zm1.784.221.12.003.062.019-.005.016-.003.082zm-3.032.385-.043-.349-.082-.095.226-.059.021.055.177.045a1.2 1.2 0 0 0 -.299.403zm1.466-.395.128-.024.151-.086.149.046c-.13.133-.167.322-.136.532a1.014 1.014 0 0 0 -.292-.468z"/><path d="m126.419 121.292.037.101.163.045.112.019c.142 0 .4-.097 1.079-.563l-.029.073a.411.411 0 0 0 .194.431l.219.059c.258 0 .791-.183 1.925-1.056-.138.208-.238.404-.236.562a.476.476 0 0 0 .287.444l.247.047c.614 0 1.592-.673 2.312-1.319.479-.42 1.26-1.193 1.109-1.662-.027-.086-.123-.288-.487-.319-.389.031-.988.322-1.578.717.137-.206.137-.326.106-.436l-.14-.309-.274.028c-.195.021-.505.153-.866.347l-.006-.06-.05-.215-.098-.029.645-.64-1.521.62c-.041.017-.109.044-.664.415-.436.292-.865.593-1.286.902-.417.305-.827.618-1.23.94-.529.424-.574.468-.609.607l-.199.792.691-.435.147-.106z"/><path d="m132.407 117.386-.011.08.301.062.095.011c.134 0 .365-.07.977-.36l-.032.099.176.159a.34.34 0 0 0 .265.106c.222 0 .643-.129 1.509-.577l-.011.031a.42.42 0 0 0 .153.456.501.501 0 0 0 .3.081c.508 0 1.324-.438 1.937-.814l-.095.279a.473.473 0 0 0 .247.47.66.66 0 0 0 .318.07c.567 0 1.438-.477 2.111-1.004l.213-.176c-.139.196-.24.414-.217.64.024.235.17.415.401.493l.287.043c.57 0 1.388-.413 1.98-1.032l-.001-.001.109-.117c.591-.709.455-1.024.411-1.128-.049-.112-.182-.304-.569-.326-.515.028-1.239.377-1.868.881.167-.224.229-.41.173-.578-.027-.083-.126-.279-.481-.303-.31.019-.84.192-1.46.524l.019-.254c-.028-.091-.114-.245-.427-.27-.246.017-.643.147-1.098.342l.019-.122-.287-.231-.141.013c-.141.012-.405.09-.727.207l-.21-.222.156-.169-.979.188c-.113.022-.886.296-2.248.943-1.928.934-2.001 1.122-2.035 1.211l-.22.563.592-.122c.066-.012.102-.02.368-.146zm-14.67 14.26-.003.062a.422.422 0 0 0 .331.348l.068.006c.388 0 .972-.604 1.727-1.771-.24.532-.335.961-.274 1.272.055.272.226.453.468.495l.104.009c.632 0 1.482-.931 2.069-1.898l.12-.206c.797-1.457.579-1.885.509-2.025-.088-.174-.246-.283-.524-.31-.666.076-1.377.914-1.81 1.521.263-.522.443-1.011.341-1.264l-.123-.21-.232-.056-.068.013c-.124.022-.267.108-.419.224l.103-.567-.625.386c-.068.042-.127.078-.536.659a48.268 48.268 0 0 0 -1.207 1.87l-.476.758c-.319.546-.34.621-.355.727l-.103.709.604-.386c.047-.03.102-.071.311-.366zm3.378-5.426.168.081.164.049c.144 0 .371-.135.896-.643l-.04.157c-.009.208.088.374.261.446l.154.028c.548 0 1.456-.894 2.028-1.52-.257.42-.382.773-.344 1.037a.537.537 0 0 0 .391.465l.169.022c.633 0 1.596-.808 2.276-1.625l.145-.179c.863-1.133.834-1.564.737-1.791-.077-.178-.241-.294-.519-.318-.57.053-1.301.61-1.922 1.231.443-.649.379-.842.338-.958a.416.416 0 0 0 -.326-.269l-.05-.009-.051.006c-.216.029-.491.187-.773.392l.003-.058-.015-.196-.279-.163-.129.033c-.386.099-1.466 1.205-1.915 1.678-1.415 1.528-1.392 1.791-1.382 1.917zm-3.388 16.912.049-.253c.114-.752.164-1.763-.241-2.298-.145-.191-.338-.306-.641-.335-.705.085-1.307 1.027-1.611 2.533-.2 1.255-.021 1.91.165 2.24.218.382.506.451.687.451l.105-.008c.71-.11 1.259-1.25 1.487-2.33zm-4.833 2.62.235-.481c.043-.088.099-.284.158-.512.026.176.062.332.124.439.1.172.255.27.427.27l.073-.006c.61-.097.991-1.502 1.164-2.332.209-1.003.447-2.711-.306-2.879l-.069-.015-.068.014c-.224.046-.422.228-.601.542.014-.206 0-.27-.01-.308l-.141-.51-.395.352c-.091.082-.14.149-.311.863-.211.889-.392 1.79-.537 2.68l-.078.497c-.097.666-.106.797.015.957zm1.612-7.277.226.005.024.001c.152 0 .439-.068 1.07-1.462-.104.55-.076.899.001 1.089.097.237.285.373.514.373h.001c.633-.001 1.321-1.147 1.718-2.129l.088-.228c.392-1.102.478-1.852.254-2.23a.57.57 0 0 0 -.402-.281l-.05-.008-.049.006c-.477.069-.915.64-1.248 1.228.275-.947.127-1.115-.109-1.207l-.106-.042-.109.033c-.132.04-.483.145-1.355 2.271-.342.87-.72 1.981-.587 2.324zm1.609 16.293a.834.834 0 0 0 -.565.345c-.323.435-.402 1.265-.222 2.351.342 1.645.946 2.194 1.188 2.353a.856.856 0 0 0 .472.154.692.692 0 0 0 .367-.106c.467-.295.654-1.147.499-2.28l-.04-.25c-.305-1.545-.894-2.479-1.699-2.567zm-1.672 5.096.305.105.237-.069c.458-.285.373-1.421.22-2.325v-.001c-.074-.438-.485-2.637-1.273-2.802l-.069-.014-.069.015c-.177.04-.408.181-.496.619v.001c-.064-.228-.125-.404-.174-.479l-.267-.408-.278.4c-.09.131-.1.235.012.957l.044.267c.156.961.355 1.935.59 2.899.155.624.197.734.326.847l.474.418.068-.628a1.76 1.76 0 0 0 -.014-.327c.121.242.244.439.364.525zm-1.726-7.099.219.113.173-.091c.112-.06.394-.231.456-1.953.109 1.142.408 1.616.597 1.801a.656.656 0 0 0 .452.199l.219-.044c.724-.296.825-1.923.84-2.415l.003-.261c-.018-.956-.173-2.578-1.023-2.715l-.053-.008-.053.008c-.677.108-.909 1.167-.987 2.014-.076-1.819-.356-1.935-.533-1.999l-.112-.04-.112.04c-.187.067-.533.193-.545 2.709.027 2.357.351 2.572.459 2.642zm9.48 19.727.285.055a.54.54 0 0 0 .414-.181c.361-.415.018-1.289-.336-1.951v-.001l-.114-.206c-.351-.592-1.265-1.98-2.228-2.08a.591.591 0 0 0 -.468.331c-.173.352-.021.893.215 1.419-.445-.682-1.158-1.653-1.657-1.747l-.068-.008-.196.055c-.078.044-.169.17-.194.372-.221-.308-.276-.345-.322-.374l-.369-.232-.12.42c-.046.161-.008.259.351.864.34.57.8 1.261 1.205 1.873l.495.747c.378.531.435.579.54.643l.773.47-.205-.601.278.164.147.023a.397.397 0 0 0 .317-.151c.084-.106.233-.322-.265-1.306.795 1.09 1.398 1.356 1.522 1.402zm-4.458-5.98.291.073a.518.518 0 0 0 .342-.129c.451-.4.15-1.524-.069-2.158l-.083-.229c-.324-.823-.983-2.219-1.761-2.332l-.05-.008-.05.008a.592.592 0 0 0 -.418.295c-.156.27-.138.693-.048 1.146-.6-1.298-.863-1.393-.984-1.43l-.11-.033-.106.044c-.31.124-.497.402.365 2.557.311.75.892 2.037 1.278 2.229l.261.099.165-.151c.102-.094.241-.226-.015-1.105.476.813.86 1.06.992 1.124zm13.004 15.37.024-.214.003-.038c.42.226.729.335.89.335h.006l.299-.04.076-.214c.037-.105.045-.218-.066-.401.568.377 1.143.655 1.541.655h.008c.308-.003.417-.195.45-.277.054-.136.181-.451-.81-1.414-.159-.155-1.588-1.514-2.644-1.592-.087.009-.27.027-.399.187-.095.12-.176.335-.013.664l.105.16c-.665-.499-1.4-.964-1.903-1.01a.417.417 0 0 0 -.358.303l.001.246c-.726-.492-.922-.533-1.007-.547l-.1-.005-.235.068-.031.09-.176-.114-.729-.414.255.799c.033.106.042.131.628.595a37.676 37.676 0 0 0 2.526 1.829c.526.347.595.377.655.401l1.962.818-1.01-.852zm-5.771-4.554c.338.241.626.391.809.391h.008a.406.406 0 0 0 .373-.237c.051-.114.131-.31-.327-.977.782.772 1.441 1.143 1.796 1.201l.137.013a.513.513 0 0 0 .461-.24c.2-.331.001-.9-.593-1.693v-.001l-.136-.177c-.417-.509-1.482-1.701-2.439-1.784a.576.576 0 0 0 -.492.35c-.11.272-.001.663.299 1.154-.649-.699-1.439-1.434-1.954-1.504l-.05-.006-.05.009a.437.437 0 0 0 -.345.288.525.525 0 0 0 -.004.327c-.563-.538-.713-.587-.8-.61l-.108-.042-.308.142-.014.206c-.008.126-.023.388 1.398 1.905 1.361 1.421 1.803 1.675 2.016 1.675l.146-.042.181-.092-.001-.204z"/></g></svg>