<svg viewBox="0 0 300 300" xmlns="http://www.w3.org/2000/svg"><path d="m149.999 300c-82.709 0-149.999-67.29-149.999-150s67.29-150 149.999-150c82.711 0 150.001 67.29 150.001 150s-67.29 150-150.001 150z" fill="#fff"/><circle cx="150" cy="150" fill="#fae040" r="140.812"/><path d="m216.395 150c0 .339 0 .688-.01 1.027a65.96 65.96 0 0 1 -8.301 31.148c-.38.699-.77 1.377-1.182 2.055-7.304 12.122-18.389 21.728-31.61 27.172-7.797 3.226-16.334 4.993-25.293 4.993-8.979 0-17.546-1.777-25.354-5.013-13.201-5.455-24.255-15.04-31.549-27.152a40.725 40.725 0 0 1 -1.182-2.055c-5.147-9.246-8.136-19.858-8.301-31.148-.01-.339-.01-.688-.01-1.027s0-.688.01-1.027c.164-11.29 3.154-21.892 8.29-31.138.38-.688.781-1.377 1.192-2.055 7.283-12.102 18.327-21.687 31.508-27.142 7.819-3.246 16.397-5.033 25.397-5.033 8.968 0 17.526 1.777 25.333 5.013 13.201 5.445 24.265 15.04 31.569 27.162.411.678.812 1.366 1.192 2.055 5.137 9.246 8.126 19.848 8.29 31.138.011.339.011.688.011 1.027z" fill="#d7faff"/><path d="m209.255 148.974h-11.306c-.121-11.258-2.203-21.859-5.804-31.143h9.427c4.751 9.226 7.523 19.838 7.683 31.143zm-44.134-33.197h-30.251c4.925-18.845 12.529-31.143 15.125-31.143 2.597 0 10.201 12.298 15.126 31.143zm-11.414-30.911c14.954 1.713 27.908 13.656 35.388 30.911h-21.834c-1.397-5.466-2.888-9.913-4.076-13.084-2.665-7.12-6.233-14.282-9.478-17.827zm-23.253 64.108c.09-11.4 1.661-21.984 3.902-31.143h31.279c2.241 9.159 3.812 19.743 3.902 31.143zm39.083 2.055c-.09 11.4-1.661 21.983-3.902 31.142h-31.279c-2.241-9.159-3.812-19.743-3.902-31.142zm-32.732-48.337c-1.188 3.171-2.679 7.618-4.076 13.084h-21.834c7.48-17.255 20.434-29.198 35.388-30.911-3.244 3.546-6.812 10.708-9.478 17.827zm-4.58 15.139c-2.028 8.47-3.73 19.119-3.824 31.143h-24.305c.123-11.305 2.271-21.918 5.951-31.143zm-3.824 33.198c.094 12.023 1.796 22.672 3.824 31.142h-22.177c-3.68-9.225-5.828-19.838-5.951-31.142zm4.328 33.197c1.397 5.466 2.888 9.913 4.076 13.084 2.666 7.12 6.234 14.281 9.479 17.827-14.954-1.713-27.908-13.656-35.388-30.911zm2.141 0h30.251c-4.925 18.844-12.529 31.143-15.126 31.143-2.596 0-10.2-12.299-15.125-31.143zm28.316 13.084c1.188-3.171 2.679-7.618 4.076-13.084h21.834c-7.48 17.255-20.434 29.198-35.388 30.911 3.244-3.546 6.812-10.707 9.478-17.827zm4.58-15.139c2.028-8.47 3.73-19.119 3.824-31.142h24.305c-.123 11.305-2.271 21.917-5.951 31.142zm3.824-33.197c-.094-12.023-1.796-22.672-3.824-31.143h22.177c3.68 9.225 5.828 19.838 5.951 31.143zm28.887-33.197h-9.174c-5.154-12.24-12.976-22.003-22.339-27.691 13.192 4.927 24.316 14.831 31.513 27.691zm-69.45-27.691c-9.363 5.688-17.185 15.451-22.339 27.691h-9.174c7.197-12.86 18.321-22.764 31.513-27.691zm-32.607 29.745h9.427c-3.602 9.284-5.683 19.885-5.804 31.143h-11.307c.159-11.305 2.932-21.917 7.684-31.143zm-7.684 33.198h11.306c.121 11.258 2.203 21.859 5.804 31.142h-9.426c-4.752-9.225-7.525-19.837-7.684-31.142zm8.778 33.197h9.174c5.154 12.24 12.976 22.003 22.339 27.691-13.192-4.927-24.316-14.832-31.513-27.691zm69.45 27.691c9.363-5.688 17.185-15.451 22.339-27.691h9.174c-7.197 12.859-18.321 22.764-31.513 27.691zm32.607-29.746h-9.427c3.602-9.283 5.683-19.885 5.804-31.142h11.306c-.159 11.305-2.931 21.917-7.683 31.142zm14.814-33.198h-5.075c-.154-11.259-2.815-21.861-7.417-31.138h4.202a59.105 59.105 0 0 0 -1.192-2.055h-4.089c-6.39-11.876-15.985-21.419-27.481-27.162-7.725-3.883-16.303-6.041-25.333-6.041-9.051 0-17.659 2.168-25.395 6.061-11.465 5.753-21.05 15.286-27.429 27.142h-4.078a58.188 58.188 0 0 0 -1.192 2.055h4.202c-4.613 9.277-7.273 19.878-7.427 31.138h-5.065c-.01.339-.01.688-.01 1.027s0 .688.01 1.027h5.065c.154 11.259 2.815 21.861 7.427 31.148h-4.192c.37.699.77 1.377 1.182 2.055h4.078c6.39 11.865 15.985 21.399 27.47 27.152 7.725 3.883 16.314 6.041 25.354 6.041 9.02 0 17.577-2.157 25.293-6.02 11.516-5.743 21.132-15.297 27.521-27.172h4.089c.411-.678.802-1.356 1.182-2.055h-4.192c4.602-9.287 7.263-19.889 7.417-31.148h5.075c.01-.339.01-.688.01-1.027s0-.689-.01-1.028z" fill="#fff"/><path d="m146.284 215.137c-3.245-3.545-6.813-10.707-9.479-17.827-1.188-3.171-2.679-7.618-4.076-13.084h-21.834c7.48 17.255 20.434 29.198 35.389 30.911z" fill="#f7f7f7"/><path d="m168.964 88.086c9.363 5.688 17.185 15.451 22.339 27.691h9.174c-7.197-12.86-18.321-22.764-31.513-27.691zm-18.969 127.283c2.596 0 10.2-12.298 15.126-31.143h-30.251c4.925 18.844 12.529 31.143 15.125 31.143z" fill="#e5e5e5"/><path d="m189.095 184.226h-21.834c-1.397 5.466-2.888 9.913-4.076 13.084-2.666 7.12-6.234 14.281-9.479 17.827 14.956-1.713 27.91-13.656 35.389-30.911z" fill="#a5a5a5"/><path d="m189.943 117.831h-22.177c2.028 8.47 3.73 19.119 3.824 31.143h24.305c-.124-11.305-2.272-21.917-5.952-31.143z" fill="#e5e5e5"/><path d="m203.892 182.175h4.192a65.96 65.96 0 0 0 8.301-31.148h-5.075c-.154 11.26-2.815 21.862-7.418 31.148zm-7.998-31.146h-24.304c-.094 12.023-1.796 22.672-3.824 31.142h22.177c3.68-9.225 5.828-19.837 5.951-31.142z" fill="#f7f7f7"/><path d="m110.048 182.171h22.177c-2.028-8.47-3.73-19.119-3.824-31.142h-24.305c.124 11.305 2.272 21.917 5.952 31.142zm24.308 0h31.279c2.241-9.159 3.812-19.743 3.902-31.142h-39.083c.09 11.4 1.661 21.983 3.902 31.142z" fill="#e5e5e5"/><path d="m165.635 117.831h-31.279c-2.241 9.159-3.812 19.743-3.902 31.143h39.083c-.09-11.4-1.661-21.983-3.902-31.143z" fill="#f7f7f7"/><path d="m211.31 148.973h5.075c-.165-11.29-3.154-21.892-8.29-31.138h-4.202c4.602 9.276 7.263 19.878 7.417 31.138zm-100.415-33.196h21.834c1.397-5.466 2.888-9.913 4.076-13.084 2.666-7.12 6.234-14.281 9.479-17.827-14.955 1.713-27.909 13.656-35.389 30.911z" fill="#e5e5e5"/><path d="m149.995 84.634c-2.596 0-10.2 12.298-15.125 31.143h30.251c-4.925-18.845-12.529-31.143-15.126-31.143z" fill="#e5e5e5"/><path d="m153.707 84.866c3.245 3.545 6.813 10.707 9.479 17.827 1.188 3.171 2.679 7.618 4.076 13.084h21.834c-7.481-17.255-20.434-29.198-35.389-30.911z" fill="#a5a5a5"/><path d="m104.097 148.974h24.305c.094-12.023 1.796-22.672 3.824-31.143h-22.177c-3.681 9.226-5.829 19.838-5.952 31.143z" fill="#cecece"/><path d="m96.107 117.835h-4.202c-5.137 9.246-8.126 19.848-8.29 31.138h5.065c.153-11.26 2.814-21.862 7.427-31.138z" fill="#e5e5e5"/><path d="m88.679 151.027h-5.065c.164 11.29 3.154 21.902 8.301 31.148h4.192c-4.613-9.286-7.274-19.888-7.428-31.148z" fill="#cecece"/><path d="m124.605 88.639c-13.18 5.455-24.224 15.04-31.508 27.142h4.078c6.38-11.856 15.965-21.389 27.43-27.142zm78.209 27.141h4.089c-7.304-12.122-18.368-21.717-31.569-27.162 11.495 5.743 21.09 15.287 27.48 27.162zm-105.639 68.45h-4.078c7.294 12.112 18.348 21.697 31.549 27.152-11.486-5.753-21.081-15.286-27.471-27.152zm78.117 27.172c13.221-5.445 24.306-15.05 31.61-27.172h-4.089c-6.389 11.876-16.005 21.43-27.521 27.172z" fill="#e5e5e5"/><path d="m131.027 211.917c-9.363-5.688-17.185-15.451-22.339-27.691h-9.174c7.197 12.859 18.321 22.764 31.513 27.691z" fill="#e5e5e5"/><path d="m201.571 117.831h-9.427c3.602 9.284 5.683 19.885 5.804 31.143h11.306c-.159-11.305-2.931-21.917-7.683-31.143z" fill="#f7f7f7"/><path d="m90.736 148.974h11.306c.121-11.258 2.203-21.859 5.804-31.143h-9.426c-4.752 9.226-7.525 19.838-7.684 31.143z" fill="#a5a5a5"/><path d="m99.514 115.777h9.174c5.154-12.24 12.976-22.003 22.339-27.691-13.192 4.927-24.316 14.831-31.513 27.691z" fill="#cecece"/><path d="m98.42 182.171h9.427c-3.602-9.283-5.683-19.885-5.804-31.142h-11.307c.159 11.305 2.932 21.917 7.684 31.142z" fill="#a5a5a5"/><path d="m200.477 184.226h-9.174c-5.154 12.24-12.976 22.003-22.339 27.691 13.192-4.927 24.316-14.832 31.513-27.691zm8.778-33.197h-11.306c-.121 11.258-2.203 21.859-5.804 31.142h9.427c4.751-9.225 7.523-19.837 7.683-31.142z" fill="#cecece"/><path d="m79.885 107.564 4.221 1.661c1.245.49 1.456 2.162.372 2.946l-3.676 2.658-1.661 4.221c-.49 1.245-2.162 1.456-2.946.372l-2.658-3.676-4.221-1.661c-1.245-.49-1.456-2.162-.372-2.946l3.676-2.658 1.661-4.221c.49-1.245 2.162-1.456 2.946-.372zm12.996 9.717.856 2.322a.923.923 0 0 1 -1.065 1.221l-2.417-.532-2.322.856a.923.923 0 0 1 -1.221-1.065l.532-2.417-.856-2.322a.923.923 0 0 1 1.065-1.221l2.417.532 2.322-.856a.923.923 0 0 1 1.221 1.065zm102.973 26.811 2.184-.518a.838.838 0 0 1 .984 1.092l-.742 2.119.518 2.184a.838.838 0 0 1 -1.092.984l-2.119-.742-2.184.518a.838.838 0 0 1 -.984-1.092l.742-2.119-.518-2.184a.838.838 0 0 1 1.092-.984zm-8.868-6.876 2.132-1.99a1.088 1.088 0 0 1 1.813.6l.525 2.869 1.99 2.132a1.088 1.088 0 0 1 -.6 1.813l-2.869.525-2.132 1.99a1.088 1.088 0 0 1 -1.813-.6l-.525-2.869-1.99-2.132a1.088 1.088 0 0 1 .6-1.813zm-85.85-6.47.356 2.945a1.106 1.106 0 0 1 -1.579 1.129l-2.671-1.289-2.945.356a1.106 1.106 0 0 1 -1.129-1.579l1.289-2.671-.356-2.945a1.106 1.106 0 0 1 1.579-1.129l2.671 1.289 2.945-.356a1.106 1.106 0 0 1 1.129 1.579zm107.904-39.718 2.38-1.892a1.134 1.134 0 0 1 1.834.773l.309 3.025 1.892 2.38a1.134 1.134 0 0 1 -.773 1.834l-3.025.309-2.38 1.892a1.134 1.134 0 0 1 -1.834-.773l-.309-3.025-1.892-2.38a1.134 1.134 0 0 1 .773-1.834zm9.195 11.211 2.059-.589a.8.8 0 0 1 .985.998l-.615 2.052.589 2.059a.8.8 0 0 1 -.998.985l-2.052-.615-2.059.589a.8.8 0 0 1 -.985-.998l.615-2.052-.589-2.059a.8.8 0 0 1 .998-.985z" fill="#fbbc4b"/></svg>