<svg version="1" xmlns="http://www.w3.org/2000/svg" viewBox="0 0 300 300"><path fill="#FFF" d="M149.999 300C67.29 300 0 232.71 0 150S67.29 0 149.999 0C232.71 0 300 67.29 300 150s-67.29 150-150.001 150"/><path fill="#5EC2D7" d="M290.812 150c0 77.768-63.044 140.812-140.812 140.812S9.188 227.768 9.188 150C9.188 72.232 72.232 9.188 150 9.188S290.812 72.232 290.812 150"/><path fill="#565656" d="M183.393 174.304h-66.787a.35.35 0 0 1-.35-.35V102.75c0-10.475 8.492-18.967 18.967-18.967h29.552c10.475 0 18.967 8.492 18.967 18.967v71.204a.349.349 0 0 1-.349.35z"/><path fill="#4C4C4C" d="M165.126 136.313h-30.255a6.694 6.694 0 0 1-5.192-2.469l-13.424-16.499v40.909h67.488v-40.909l-13.426 16.499a6.689 6.689 0 0 1-5.191 2.469z"/><path fill="#C9C9C9" d="M184.647 161.506v1.562h-69.294v-1.562c0-7.557 15.512-13.684 34.647-13.684s34.647 6.127 34.647 13.684z"/><ellipse fill="#9FAAAD" cx="150" cy="163.068" rx="34.647" ry="13.684"/><path fill="#C9C9C9" d="M183.744 164.255c-.002-7.359-15.108-13.324-33.744-13.324-18.633 0-33.739 5.965-33.744 13.324l.002 18.814c0 .841.22 1.668.639 2.398l6.554 11.431h53.15l6.51-11.436a4.82 4.82 0 0 0 .631-2.385l.002-18.822"/><path fill="#9FAAAD" d="M177.217 194.651c0 5.935-12.182 10.746-27.208 10.746-15.027 0-27.209-4.811-27.209-10.746 0-5.935 12.182-10.746 27.209-10.746 15.026 0 27.208 4.812 27.208 10.746"/><path fill="#C9C9C9" d="M165.186 200.572c0-3.31-6.796-5.995-15.178-5.995-8.383 0-15.176 2.685-15.176 5.995v9.697h30.347v-9.674l.007-.023"/><path fill="#BBB" d="M150.008 194.578c-8.383 0-15.176 2.685-15.176 5.995v4.781c0-3.31 6.793-5.995 15.176-5.995 8.36 0 15.134 2.67 15.171 5.967v-4.731l.007-.023c0-3.31-6.795-5.994-15.178-5.994"/><ellipse fill="#9FAAAD" cx="150.008" cy="210.222" rx="15.178" ry="5.994"/><path fill="#9FAAAD" d="M155.259 171.991h-10.5a2.625 2.625 0 0 1-2.625-2.625v-10.5a2.625 2.625 0 0 1 2.625-2.625h10.5a2.625 2.625 0 0 1 2.625 2.625v10.5a2.625 2.625 0 0 1-2.625 2.625z"/><path fill="#BFBFBF" d="M155.259 170.022h-10.5a2.625 2.625 0 0 1-2.625-2.625v-10.5a2.625 2.625 0 0 1 2.625-2.625h10.5a2.625 2.625 0 0 1 2.625 2.625v10.5a2.625 2.625 0 0 1-2.625 2.625z"/><path fill="#B5B5B5" d="M156.571 156.902v1.313c0-.735-.591-1.313-1.313-1.313h-10.5c-.722 0-1.313.578-1.313 1.313v-1.313c0-.735.591-1.313 1.313-1.313h10.5a1.309 1.309 0 0 1 1.313 1.313z"/><path fill="#C9C9C9" d="M156.571 166.899v.499c0 .735-.591 1.313-1.313 1.313h-10.5a1.308 1.308 0 0 1-1.313-1.313v-.499c0 .735.591 1.313 1.313 1.313h10.5c.723 0 1.313-.577 1.313-1.313z"/><path fill="#D6566E" d="M153.907 162.152a3.898 3.898 0 1 1-7.796 0 3.86 3.86 0 0 1 1.364-2.966v-.013a3.907 3.907 0 0 1 5.066 0v.013a3.856 3.856 0 0 1 1.366 2.966z"/><path fill="#FF7182" d="M152.765 160.262a2.745 2.745 0 0 1-2.756 2.743 2.744 2.744 0 0 1-2.756-2.743c0-.381.079-.735.223-1.076v-.013a3.907 3.907 0 0 1 5.066 0v.013c.144.341.223.696.223 1.076z"/></svg>
