<svg version="1" xmlns="http://www.w3.org/2000/svg" viewBox="0 0 300 300"><path fill="#FFF" d="M150 300C67.29 300 0 232.71 0 150S67.29 0 150 0s150 67.29 150 150-67.29 150-150 150z"/><circle fill="#FAE040" cx="150" cy="150" r="140.812"/><path fill="#3F3F3F" d="M202.578 128.747v84.67a6.586 6.586 0 0 1-6.593 6.58h-91.972a6.586 6.586 0 0 1-6.593-6.58v-84.67c0-1.7 1.382-3.07 3.07-3.07h99.02a3.064 3.064 0 0 1 3.068 3.07"/><path fill="#494949" d="M202.578 128.747v76.964a6.588 6.588 0 0 1-6.593 6.596h-91.972a6.588 6.588 0 0 1-6.593-6.593V128.75c0-1.7 1.382-3.07 3.07-3.07h99.02a3.064 3.064 0 0 1 3.068 3.07"/><path fill="#3D3D3D" d="M115.63 186.103h68.738v33.9H115.63z"/><path fill="#E2E2E2" d="M129.802 227.69h-15.11a5.098 5.098 0 0 1-5.098-5.1v-79.304H134.9v79.305a5.097 5.097 0 0 1-5.098 5.1"/><path fill="#FFF" d="M129.802 220.003h-15.11a5.098 5.098 0 0 1-5.098-5.098v-71.62H134.9v71.62a5.098 5.098 0 0 1-5.098 5.098"/><path fill="#E2E2E2" d="M157.555 227.69h-15.11a5.098 5.098 0 0 1-5.098-5.1v-79.304h25.306v79.305a5.098 5.098 0 0 1-5.098 5.1"/><path fill="#FFF" d="M157.555 220.003h-15.11a5.098 5.098 0 0 1-5.098-5.098v-71.62h25.306v71.62a5.1 5.1 0 0 1-5.098 5.098"/><path fill="#E2E2E2" d="M185.307 227.69h-15.11a5.098 5.098 0 0 1-5.098-5.1v-79.304h25.303v79.305a5.097 5.097 0 0 1-5.098 5.1"/><path fill="#FFF" d="M185.307 220.003h-15.11a5.098 5.098 0 0 1-5.098-5.098v-71.62h25.303v71.62a5.097 5.097 0 0 1-5.098 5.098"/><path fill="#4C4C4C" d="M139.178 193.79h-6.11a3.734 3.734 0 0 1-3.733-3.735V153.39h13.577v36.665a3.734 3.734 0 0 1-3.734 3.734"/><path fill="#565656" d="M139.178 186.103h-6.11a3.734 3.734 0 0 1-3.733-3.734v-39.086h13.577v39.083a3.734 3.734 0 0 1-3.734 3.733"/><path fill="#4C4C4C" d="M166.93 193.79h-6.11a3.734 3.734 0 0 1-3.733-3.735V153.39h13.577v36.665a3.733 3.733 0 0 1-3.734 3.734"/><path fill="#565656" d="M166.93 186.103h-6.11a3.734 3.734 0 0 1-3.733-3.734v-39.086h13.577v39.083a3.733 3.733 0 0 1-3.734 3.733"/><path fill="#494949" d="M202.578 128.747v14.544H97.42v-14.54c0-1.7 1.382-3.07 3.07-3.07h99.02a3.064 3.064 0 0 1 3.068 3.07"/><path fill="#424242" d="M202.578 143.29h-12.173v31.73h.002c4.28-.918 8.355-1.97 12.17-3.145V143.29"/><path fill="#E5E5E5" d="M190.406 143.29h-19.74v34.75c6.946-.685 13.563-1.712 19.74-3.02v-31.73m-33.32 0h-14.174v35.643a227.452 227.452 0 0 0 14.175 0V143.29"/><path fill="#424242" d="M109.594 143.29H97.42v28.585a144.73 144.73 0 0 0 12.174 3.145v-31.73"/><path fill="#E5E5E5" d="M129.335 143.29h-19.74v31.73c6.175 1.308 12.79 2.335 19.738 3.007h.002V143.29"/><path fill="#4D4D4D" d="M142.912 143.29h-13.577v34.738c1.834.196 3.693.355 5.564.49.804.048 1.624.11 2.443.158 1.835.11 3.694.196 5.565.257V143.29m27.754 0h-13.577v35.643c1.87-.06 3.73-.147 5.565-.257.82-.05 1.64-.11 2.446-.16 1.87-.134 3.73-.293 5.564-.476v-34.75"/><path fill="#424242" d="M199.508 135.142H100.49a3.073 3.073 0 0 0-3.07 3.07v5.08h105.158v-5.08c0-1.7-1.37-3.07-3.07-3.07"/><ellipse fill="#494949" cx="150" cy="143.902" rx="74.797" ry="30.258"/><path fill="#3F3F3F" d="M193.36 140.682s-11.834 12.41-43.36 12.41-43.36-12.41-43.36-12.41l12.09-59.9c1.2-5.94 7.14-9.653 13.003-8.128L150 77.404l18.266-4.75c5.864-1.526 11.805 2.187 13.003 8.126l12.09 59.902z"/></svg>
