<?xml version="1.0" encoding="utf-8"?>
<!-- Generator: Adobe Illustrator 23.0.6, SVG Export Plug-In . SVG Version: 6.00 Build 0)  -->
<svg version="1.0" id="Camada_1" xmlns="http://www.w3.org/2000/svg" xmlns:xlink="http://www.w3.org/1999/xlink" x="0px" y="0px"
	 viewBox="0 0 300 300" enable-background="new 0 0 300 300" xml:space="preserve">
<g>
	<path fill="#5EC2D7" d="M299.976,150.004c0,8.611-0.736,17.159-2.21,25.643c-2.319,13.382-6.383,26.211-12.191,38.488
		c-3.68,7.786-8,15.199-12.96,22.238c-4.957,7.042-10.482,13.607-16.573,19.694c-5.215,5.217-10.784,10.022-16.709,14.417
		c-5.924,4.394-12.139,8.33-18.644,11.807c-8.684,4.645-17.739,8.395-27.164,11.25c-5.879,1.784-11.844,3.201-17.898,4.25
		c-6.052,1.052-12.147,1.728-18.282,2.027c-6.136,0.303-12.267,0.228-18.393-0.225c-6.126-0.451-12.202-1.275-18.227-2.473
		c-12.096-2.407-23.718-6.248-34.866-11.521c-7.784-3.679-15.196-7.999-22.236-12.96c-7.041-4.957-13.605-10.481-19.692-16.572
		c-5.215-5.217-10.02-10.787-14.414-16.712s-8.33-12.139-11.808-18.644c-3.769-7.049-6.953-14.353-9.553-21.912
		s-4.583-15.276-5.948-23.152c-0.84-4.84-1.44-9.71-1.801-14.609c-0.361-4.899-0.481-9.804-0.361-14.715
		c0.121-4.911,0.482-9.804,1.083-14.68c0.601-4.876,1.44-9.71,2.516-14.503s2.385-9.522,3.925-14.187
		c1.541-4.665,3.306-9.242,5.296-13.734c1.99-4.491,4.196-8.874,6.617-13.149s5.045-8.42,7.873-12.437
		c4.958-7.041,10.481-13.605,16.572-19.693c5.213-5.218,10.783-10.023,16.709-14.415c7.909-5.87,16.316-10.909,25.22-15.118
		c8.903-4.209,18.131-7.511,27.684-9.905c7.155-1.791,14.402-3.049,21.742-3.774c13.516-1.334,26.965-0.838,40.346,1.487
		c8.484,1.47,16.78,3.656,24.887,6.558c4.625,1.654,9.158,3.531,13.598,5.633c7.785,3.68,15.197,8,22.236,12.96
		c7.041,4.958,13.605,10.482,19.692,16.573c5.217,5.214,10.022,10.784,14.414,16.711c4.395,5.924,8.331,12.139,11.808,18.645
		c4.645,8.685,8.395,17.739,11.252,27.165c2.147,7.058,3.762,14.235,4.844,21.532C299.442,135.29,299.981,142.627,299.976,150.004"
		/>
	<path fill="#FFFFFF" d="M201.044,87.168v116.456c0,0.813-0.155,1.595-0.465,2.346c-0.232,0.56-0.54,1.074-0.925,1.543
		c-0.385,0.468-0.829,0.871-1.333,1.208c-0.504,0.337-1.046,0.593-1.626,0.768c-0.58,0.176-1.173,0.263-1.779,0.263H104.21
		c-0.402,0-0.801-0.04-1.196-0.118c-0.395-0.079-0.778-0.195-1.15-0.349c-0.372-0.154-0.725-0.343-1.059-0.567
		c-0.335-0.224-0.644-0.478-0.929-0.762c-0.285-0.285-0.539-0.594-0.762-0.929c-0.224-0.335-0.412-0.688-0.567-1.059
		c-0.154-0.372-0.27-0.755-0.349-1.15c-0.079-0.395-0.118-0.793-0.118-1.196V87.168c-0.002-1.195,0.32-2.294,0.968-3.298
		c0.276-0.435,0.601-0.828,0.977-1.18c0.375-0.352,0.789-0.652,1.24-0.9s0.926-0.435,1.425-0.562s1.005-0.191,1.52-0.19h90.706
		c1.048-0.003,2.031,0.247,2.95,0.751c0.918,0.504,1.659,1.197,2.223,2.08C200.733,84.875,201.051,85.975,201.044,87.168"/>
	<path fill="none" stroke="#EDEDED" stroke-width="9.6374" stroke-linecap="round" stroke-miterlimit="10" d="M106.708,99.423
		h85.719 M106.708,130.069h85.719 M106.708,160.715h85.719 M106.708,191.361h85.719"/>
	<path fill="none" stroke="#EDEDED" stroke-width="3.2119" stroke-linecap="round" stroke-miterlimit="10" d="M106.708,180.329
		h85.719 M106.708,171.747h85.719 M106.708,149.682h85.719 M106.708,141.102h85.719 M106.708,119.036h85.719 M106.708,110.455
		h85.719"/>
	<path fill="#FFB031" d="M161.051,140.96c-1.032,1.032-2.685,1.032-3.511-0.207c-0.62-0.826-0.62-2.272,0.207-3.098
		c5.782-5.988,3.511-16.521-4.75-19.204c-7.227-2.478-14.455,2.478-15.487,9.499v0.207c-0.207,1.033,0.62,2.272,1.652,2.478
		c3.717,1.239,7.021,3.717,9.086,7.021c4.75,7.641,1.239,14.662,0.826,15.694v0.207c-1.239,3.717-5.162,5.989-8.879,5.37
		c-4.13-0.62-7.02-3.924-7.227-8.054c0-2.066-0.206-4.13-0.206-5.989c-0.206-6.195-0.62-11.978,0.206-17.554
		c1.446-10.119,11.564-16.521,21.475-13.423C166.007,118.038,169.104,132.7,161.051,140.96z M152.792,100.691
		c-14.867-1.859-28.496,9.086-30.561,23.955c-1.032,7.64-0.62,15.694-0.206,23.335c0.413,8.26,0.826,16.727-0.413,24.987
		c-1.239,8.467,4.543,16.108,13.009,17.347c8.26,1.239,15.9-4.75,17.139-13.217c0.206-1.033,0.206-2.272,0.206-3.304
		c-0.62-9.706,6.814-18.998,14.042-24.368c5.783-4.337,9.499-10.738,10.531-17.966C178.397,116.386,167.865,102.55,152.792,100.691
		L152.792,100.691z"/>
	<path fill="#FFB031" d="M186.09,160.314l0.44-0.44c0.44-0.44,0.44-1.211,0-1.651l-7.485-7.486c-0.44-0.44-1.211-0.44-1.651,0
		l-0.44,0.44c-0.44,0.44-0.44,1.211,0,1.651l7.485,7.486C184.989,160.864,185.649,160.864,186.09,160.314 M182.057,131.802v-0.55
		c0-0.661,0.55-1.211,1.211-1.211h10.568c0.66,0,1.211,0.55,1.211,1.211v0.55c0,0.334-0.119,0.619-0.357,0.854
		c-0.236,0.236-0.52,0.355-0.854,0.357h-10.568C182.608,132.903,182.057,132.462,182.057,131.802 M177.393,110.224l-0.44-0.44
		c-0.44-0.44-0.44-1.211,0-1.651l7.485-7.486c0.44-0.44,1.211-0.44,1.651,0l0.44,0.44c0.44,0.441,0.44,1.211,0,1.651l-7.485,7.486
		C178.605,110.664,177.834,110.664,177.393,110.224 M137.304,144.884c0,2.065,0.207,4.13,0.207,6.195
		c0,1.859,1.446,3.304,3.098,3.511c1.652,0.206,3.304-0.62,3.924-2.272v-0.206c0.206-1.032,2.891-5.989-0.413-11.565
		c-0.854-1.486-2.025-2.656-3.511-3.511c-1.652-1.033-3.717,0.207-3.717,2.066C137.098,140.754,137.304,142.819,137.304,144.884"/>
</g>
</svg>
