<svg enable-background="new 0 0 300 300" viewBox="0 0 300 300" xmlns="http://www.w3.org/2000/svg"><ellipse cx="150" cy="150" fill="#fff" rx="150" ry="150"/><circle cx="150" cy="150" fill="#5ec2d7" r="140.813"/><path d="m166.285 88.784s-3.704 5.143-16.428 8.745-18.574 1.164-18.574 1.164l-.299-19.678c-.03-1.951 2.047-3.764 4.546-3.968l7.783-.636 6.962-3.538c2.235-1.136 4.954-.68 5.951.997z" fill="#3f3f3f"/><ellipse cx="149.063" cy="94.721" fill="#494949" rx="26.498" ry="9.605" transform="matrix(.9622 -.2724 .2724 .9622 -20.1645 44.1842)"/><ellipse cx="148.859" cy="94.865" fill="#3f3f3f" rx="16.686" ry="4.777" transform="matrix(.9648 -.263 .263 .9648 -19.7081 42.4867)"/><path d="m177.171 195.834c-2.102-3.936-2.505-8.724-.753-12.854 1.761-4.152 2.734-8.738 2.737-13.485.003-2.965 0-9.371 0-9.371s-5.31-1.777-6.975.511c-2.679 3.681-4.639 6.543-10.287 6.543-6.899 0-10.349-8.087-12.152-13.817-.795-2.525-.394-7.226-.394-7.226-.579.007-.873.011-1.444.018 0 0-1.386 13.54-10.463 13.54-3.94 0-6.195-2.703-7.452-5.763-1.36-3.313-11.017 6.165-11.017 6.165s0 2.879 0 9.371c0 4.794.973 9.342 2.718 13.433 1.773 4.158 1.393 8.978-.724 12.946-2.099 3.935-6.738 7.34-6.738 7.34s0 6.863 0 9.371c.004 19.762 17.85 26.457 34.836 26.457 15.481 0 34.836-6.695 34.836-26.457 0-2.351 0-9.371 0-9.371s-4.459-3.1-6.728-7.351z" fill="#4c4c4c"/><path d="m155.049 95.864c1.629-1.091 2.695-3.017 2.695-5.231 0-1.262-.02-3.86-.02-3.86s-3.684-2.317-5.75-2.317c-2.613 0-4.916 1.766-5.711 4.204-.008-.007-.013-.011-.022-.018-2.414 7.294-3.566 10.941-5.861 18.235v2.595c0 1.279.291 2.42 1.313 2.931.471.235.707.352 1.182.588.634.314 1.329.477 2.041.477h9.604c.462 0 .834-.401.834-.895 0-.234 0-.351 0-.585 0-.189.093-.364.245-.46.62-.389.927-.583 1.54-.972.363-.23.485-.673.485-1.145 0-1.245 0-1.867 0-3.112-1.022-4.173-1.535-6.261-2.575-10.435z" fill="#4c4c4c"/><path d="m155.049 92.522c2.018-1.351 3.179-3.985 2.503-6.859-.497-2.119-2.07-3.828-4.077-4.353-3.196-.837-6.267 1.112-7.212 4.009-.008-.007-.013-.011-.022-.018-2.375 8.332-3.51 12.498-5.768 20.83-.318 1.171.198 2.42 1.221 2.931.267.134.402.2.67.334.968.481 2.031.73 3.128.73h9.027c.462 0 .834-.4.834-.895 0-.234 0-.351 0-.584 0-.189.093-.364.245-.46.62-.389.927-.583 1.54-.972.363-.23.549-.686.466-1.134-1.014-5.423-1.523-8.135-2.555-13.559z" fill="#565656"/><path d="m177.171 186.464c-2.102-3.936-2.008-8.547-.753-12.854 1.297-4.453 2.734-8.738 2.737-13.485.003-2.965-.894-7.755-4.722-7.755-5.479 0-6.125 5.439-11.348 5.439-6.899 0-11.542-8.087-13.345-13.817-.795-2.525-.394-7.226-.394-7.226-.579.007-.873.011-1.444.018 0 0-1.386 13.54-10.463 13.54-3.94 0-6.195-2.703-7.452-5.763-1.36-3.313-5.635-3.581-7.227-.39-2.012 4.033-3.79 9.434-3.79 15.926 0 4.794 1.27 9.311 2.718 13.433 1.498 4.265 1.393 8.978-.724 12.946-4.855 9.102-6.739 12.293-6.738 16.711.004 19.762 17.85 26.457 34.836 26.457 15.481 0 34.836-6.695 34.836-26.457.001-4.42-1.875-7.636-6.727-16.723z" fill="#565656"/><path d="m149.063 155.624s8.43 5.495 14.562 5.495c5.506 0 6.876-5.428 9.686-5.428 2.473 0 3.067 2.567 3.067 4.607 0 5.678-4.037 12.333-4.037 19.181 0 6.847 8.18 16.574 8.18 23.928 0 8.281-3.659 12.844-9.258 14.952-10.761 4.051-16.984-15.935-22.199-18.311-4.272-1.946-14.693 5.947-17.644 2.777-5.933-6.372 5.368-17.382 5.368-26.218 0-7.401-7.166-13.797-2.313-19.107 3.784-4.141 14.588-1.876 14.588-1.876z" fill="#ffeef0"/><path d="m157.415 175.437c-6.44 0-10.264 0-16.704 0-.335 0-.606-.297-.606-.663 0-3.904 0-5.856 0-9.76 0-.366.271-.663.606-.663h16.704c.335 0 .606.297.606.663v9.76c0 .366-.271.663-.606.663z" fill="#dbc8cc"/><path d="m157.415 173.896c-6.44 0-10.264 0-16.704 0-.335 0-.606-.297-.606-.663 0-3.904 0-5.856 0-9.76 0-.366.271-.663.606-.663h16.704c.335 0 .606.297.606.663v9.76c0 .367-.271.663-.606.663z" fill="#f2dade"/><path d="m153.913 112.808v54.644c0 .503-.214.901-.486.901-3.401 0-5.328 0-8.729 0-.272 0-.486-.397-.486-.901 0-17.216 0-37.428 0-54.644 0-.491.214-.902.486-.902h8.729c.272 0 .486.411.486.902z" fill="#ffcd7d"/><path d="m153.913 112.808v2.995c-3.772 0-5.929 0-9.701 0 0-1.198 0-1.797 0-2.995 0-.491.214-.902.486-.902h8.729c.272 0 .486.411.486.902z" fill="#e0e0e0"/><path d="m158.001 204.913c-6.891 0-10.986 0-17.877 0-1.401 0-2.527-1.244-2.527-2.778 0-.835 0-1.252 0-2.086h22.932v2.086c-.001 1.535-1.127 2.778-2.528 2.778z" fill="#dbc8cc"/><path d="m156.047 187.051c-5.395 0-8.573 0-13.968 0-1.097 0-1.975-.963-1.975-2.15 0-.513 0-.77 0-1.284h17.917v1.284c0 1.187-.877 2.15-1.974 2.15z" fill="#dbc8cc"/><path d="m156.047 185.767c-5.395 0-8.573 0-13.968 0-1.097 0-1.975-.963-1.975-2.15 0-1.188.878-2.15 1.975-2.15h13.968c1.097 0 1.975.963 1.975 2.15-.001 1.188-.878 2.15-1.975 2.15z" fill="#f2dade"/><path d="m158.001 202.826c-6.891 0-10.986 0-17.877 0-1.401 0-2.527-1.244-2.527-2.777 0-1.534 1.126-2.778 2.527-2.778h17.877c1.401 0 2.527 1.244 2.527 2.778 0 1.534-1.126 2.777-2.527 2.777z" fill="#f2dade"/><circle cx="168.773" cy="200.052" fill="#dbc8cc" r="2.947"/><path d="m171.123 199.451v.602c0 1.297-1.053 2.35-2.35 2.35s-2.35-1.053-2.35-2.35v-.602c0-.461.132-.89.363-1.253h.548c.398-.31.896-.495 1.438-.495s1.04.185 1.438.495h.548c.233.363.365.792.365 1.253z" fill="#4f4f4f"/><path d="m171.123 199.451c0 1.297-1.053 2.35-2.35 2.35s-2.35-1.053-2.35-2.35c0-.461.132-.89.363-1.253.414-.658 1.15-1.097 1.987-1.097s1.573.439 1.987 1.097c.231.363.363.792.363 1.253z" fill="#686868"/><circle cx="165.825" cy="191.956" fill="#dbc8cc" r="2.947"/><path d="m168.176 191.354v.602c0 1.297-1.053 2.35-2.35 2.35s-2.35-1.053-2.35-2.35v-.602c0-.461.132-.89.363-1.253h.548c.398-.31.896-.495 1.438-.495s1.04.185 1.438.495h.548c.233.363.365.793.365 1.253z" fill="#4f4f4f"/><path d="m168.176 191.354c0 1.297-1.053 2.35-2.35 2.35s-2.35-1.053-2.35-2.35c0-.461.132-.89.363-1.253.414-.658 1.15-1.097 1.987-1.097s1.573.439 1.987 1.097c.231.363.363.793.363 1.253z" fill="#686868"/><circle cx="171.72" cy="208.146" fill="#dbc8cc" r="2.947"/><path d="m174.07 207.545v.602c0 1.297-1.053 2.35-2.35 2.35s-2.35-1.053-2.35-2.35v-.602c0-.461.132-.89.363-1.253h.548c.398-.31.896-.495 1.438-.495s1.04.185 1.438.495h.548c.233.363.365.792.365 1.253z" fill="#4f4f4f"/><path d="m174.07 207.545c0 1.297-1.053 2.35-2.35 2.35s-2.35-1.053-2.35-2.35c0-.461.132-.89.363-1.253.414-.658 1.15-1.097 1.987-1.097s1.573.439 1.987 1.097c.231.363.363.792.363 1.253z" fill="#686868"/><path d="m149.063 200.049c0-32.799 0-68.593 0-101.391" fill="none" stroke="#3f3f3f" stroke-linecap="round" stroke-miterlimit="10" stroke-width=".75"/><path d="m162.356 88.797s-11.315-1.797-21.976 4.008l2.11-6.083 6.608-1.993c.601-.181 1.213-.32 1.833-.414l6.985-1.068z" fill="#494949"/><path d="m162.356 82.996s-10.988.25-22.54 4.711l2.674-5.765 6.608-1.993c.601-.181 1.213-.32 1.833-.414l6.985-1.068z" fill="#3f3f3f"/></svg>