<svg xmlns="http://www.w3.org/2000/svg" viewBox="0 0 511 511"><ellipse cx="255.499" cy="255.5" fill="#fff" rx="255.5" ry="255.499" transform="rotate(-45.001 255.498 255.504)"/><circle cx="255.5" cy="255.5" r="239.85" fill="#eb595b"/><path fill="#a8a8a8" d="M301.391 246.256c-3.297-6.173-3.929-13.683-1.182-20.159a54.318 54.318 0 0 0 4.293-21.15c.004-4.651 0-14.697 0-14.697s-8.327-2.787-10.94.801c-4.201 5.773-7.275 10.262-16.133 10.262-10.82 0-16.231-12.683-19.059-21.669-1.247-3.96-.618-11.334-.618-11.334l-2.265.028s-2.174 21.236-16.409 21.236c-6.18 0-9.716-4.24-11.687-9.038-2.133-5.196-17.278 9.669-17.278 9.669v14.697c0 7.518 1.527 14.652 4.263 21.067 2.78 6.521 2.184 14.081-1.135 20.305-3.292 6.172-10.568 11.512-10.568 11.512v14.697c.006 30.994 27.995 41.494 54.635 41.494 24.28 0 54.635-10.5 54.635-41.494v-14.697s-6.993-4.863-10.552-11.53z"/><path fill="#d6d6d6" d="M266.696 89.467c2.555-1.711 4.227-4.732 4.227-8.204 0-1.98-.032-6.054-.032-6.054s-5.778-3.634-9.017-3.634c-4.098 0-7.709 2.77-8.957 6.594l-.035-.028c-3.786 11.44-5.593 17.16-9.191 28.6v4.07c0 2.006.456 3.796 2.059 4.597.739.369 1.109.553 1.854.922a7.2 7.2 0 0 0 3.201.747h15.062c.725 0 1.308-.628 1.308-1.403v-.917c0-.297.146-.571.384-.721.972-.61 1.454-.915 2.415-1.525.57-.361.761-1.055.761-1.795v-4.881a3485.13 3485.13 0 0 0-4.039-16.368z"/><path fill="#efefef" d="M266.696 84.226c3.165-2.119 4.985-6.25 3.926-10.757-.78-3.323-3.246-6.003-6.394-6.827-5.013-1.313-9.828 1.744-11.311 6.287l-.035-.028c-3.725 13.068-5.505 19.601-9.046 32.669-.498 1.837.31 3.796 1.914 4.597l1.051.524a10.986 10.986 0 0 0 4.906 1.144h14.158c.725 0 1.308-.628 1.308-1.403v-.917c0-.297.146-.571.384-.721.972-.61 1.454-.915 2.415-1.525.57-.361.861-1.076.731-1.779a5585.372 5585.372 0 0 0-4.007-21.264zm34.695 147.333c-3.296-6.174-3.15-13.405-1.182-20.159 2.035-6.983 4.287-13.705 4.293-21.15.004-4.651-1.402-12.163-7.405-12.163-8.594 0-9.606 8.53-17.797 8.53-10.82 0-18.102-12.683-20.93-21.669-1.247-3.96-.618-11.334-.618-11.334l-2.265.028s-2.174 21.236-16.409 21.236c-6.18 0-9.716-4.24-11.687-9.038-2.133-5.196-8.837-5.617-11.334-.612-3.156 6.326-5.944 14.795-5.944 24.977 0 7.518 1.992 14.603 4.263 21.067 2.349 6.688 2.184 14.081-1.135 20.304-7.614 14.276-10.569 19.279-10.568 26.209.006 30.994 27.995 41.494 54.635 41.494 24.28 0 54.635-10.5 54.635-41.494-.001-6.929-2.943-11.973-10.552-26.226z"/><path fill="#d6d6d6" d="M257.307 183.191s13.221 8.618 22.838 8.618c8.635 0 10.783-8.513 15.192-8.513 3.879 0 4.81 4.026 4.81 7.226 0 8.906-6.332 19.343-6.332 30.082s12.829 25.993 12.829 37.528c0 12.988-5.738 20.144-14.52 23.45-16.877 6.354-26.637-24.991-34.816-28.717-6.7-3.052-23.044 9.327-27.672 4.356-9.305-9.994 8.419-27.26 8.419-41.119 0-11.607-11.238-21.639-3.628-29.967 5.936-6.495 22.88-2.944 22.88-2.944z"/><path fill="#a8a8a8" d="M270.406 214.265h-26.198c-.526 0-.951-.466-.951-1.04v-15.307c0-.574.425-1.04.951-1.04h26.198c.526 0 .951.466.951 1.04v15.307c0 .574-.425 1.04-.951 1.04z"/><path fill="#c9c9c9" d="M270.406 211.849h-26.198c-.526 0-.951-.465-.951-1.04v-15.307c0-.574.425-1.04.951-1.04h26.198c.526 0 .951.466.951 1.04v15.307c0 .575-.425 1.04-.951 1.04z"/><path fill="#fff" d="M264.915 116.041v85.701c0 .79-.335 1.413-.762 1.413h-13.69c-.427 0-.762-.623-.762-1.413v-85.701c0-.77.335-1.414.762-1.414h13.69c.426.001.762.645.762 1.414z"/><path fill="#e0e0e0" d="M264.915 116.041v4.697H249.7v-4.697c0-.77.335-1.414.762-1.414h13.69c.427.001.763.645.763 1.414z"/><path fill="#a8a8a8" d="M271.326 260.494h-28.037c-2.198 0-3.964-1.95-3.964-4.356v-3.272h35.965v3.272c-.001 2.406-1.766 4.356-3.964 4.356zm-3.066-28.013h-21.907c-1.72 0-3.097-1.51-3.097-3.373v-2.014h28.1v2.014c.001 1.863-1.375 3.373-3.096 3.373z"/><path fill="#c9c9c9" d="M268.26 230.467h-21.907c-1.72 0-3.097-1.51-3.097-3.373 0-1.863 1.376-3.373 3.097-3.373h21.907c1.72 0 3.097 1.51 3.097 3.373 0 1.863-1.376 3.373-3.097 3.373zm3.066 26.755h-28.037c-2.198 0-3.964-1.95-3.964-4.356 0-2.406 1.766-4.356 3.964-4.356h28.037c2.198 0 3.964 1.95 3.964 4.356-.001 2.405-1.766 4.356-3.964 4.356z"/><circle cx="288.219" cy="252.871" r="4.622" fill="#efefef"/><path fill="#a8a8a8" d="M291.905 251.927v.944a3.687 3.687 0 0 1-7.372 0v-.944c0-.722.206-1.396.57-1.966h.86c.624-.487 1.406-.777 2.256-.777s1.632.29 2.256.777h.86c.364.571.57 1.244.57 1.966z"/><path fill="#c9c9c9" d="M291.905 251.927a3.687 3.687 0 0 1-7.372 0c0-.722.206-1.396.57-1.966.649-1.032 1.804-1.72 3.116-1.72s2.467.688 3.116 1.72c.364.571.57 1.244.57 1.966z"/><circle cx="283.597" cy="240.173" r="4.622" fill="#efefef"/><path fill="#a8a8a8" d="M287.283 239.23v.944a3.687 3.687 0 0 1-7.372 0v-.944c0-.722.206-1.396.57-1.966h.86c.624-.487 1.406-.777 2.256-.777s1.632.29 2.256.777h.86c.364.57.57 1.243.57 1.966z"/><path fill="#c9c9c9" d="M287.283 239.23a3.687 3.687 0 0 1-7.372 0c0-.722.206-1.396.57-1.966.649-1.032 1.804-1.72 3.116-1.72s2.467.688 3.116 1.72c.364.57.57 1.243.57 1.966z"/><circle cx="292.842" cy="265.565" r="4.622" fill="#efefef"/><path fill="#a8a8a8" d="M296.527 264.622v.944a3.687 3.687 0 0 1-7.372 0v-.944c0-.722.206-1.396.57-1.966h.86c.624-.487 1.406-.777 2.256-.777s1.632.29 2.256.777h.86c.364.57.57 1.243.57 1.966z"/><path fill="#c9c9c9" d="M296.527 264.622a3.687 3.687 0 0 1-7.372 0c0-.722.206-1.396.57-1.966.649-1.032 1.804-1.72 3.116-1.72s2.467.688 3.116 1.72c.364.57.57 1.243.57 1.966z"/><path fill="#a8a8a8" d="M252.855 93.849h.804v159.017h-.804zm4.05-12.665h.804v171.682h-.804zm4.05 21.262h.804v150.42h-.804z"/><path fill="#d6d6d6" d="M306.317 301.618c-.678 0-1.346.042-2.004.117a8.268 8.268 0 0 0-.936-.056h-91.064a17.99 17.99 0 0 0-1.4-.06c-.546 0-1.086.029-1.62.077a8.34 8.34 0 0 0-1.645.229c-8.18 1.532-14.373 8.706-14.373 17.331 0 9.741 7.897 17.638 17.638 17.638s17.638-7.897 17.638-17.638h60.128c0 9.741 7.897 17.638 17.638 17.638s17.638-7.897 17.638-17.638c-.001-9.741-7.897-17.638-17.638-17.638z"/><ellipse cx="258.615" cy="312.72" fill="#fff" rx="43.785" ry="8.722"/><path fill="#fff" d="M214.83 312.72h87.57v85.82h-87.57z"/><path fill="#a8a8a8" d="M238.925 382.273h-1.047a3.336 3.336 0 0 1-3.326-3.326v-54.178a3.336 3.336 0 0 1 3.326-3.326h1.047a3.336 3.336 0 0 1 3.326 3.326v54.178a3.335 3.335 0 0 1-3.326 3.326zm22.353 0h-1.047a3.336 3.336 0 0 1-3.326-3.326v-54.178a3.336 3.336 0 0 1 3.326-3.326h1.047a3.336 3.336 0 0 1 3.326 3.326v54.178a3.336 3.336 0 0 1-3.326 3.326zm22.352 0h-1.047a3.336 3.336 0 0 1-3.326-3.326v-54.178a3.336 3.336 0 0 1 3.326-3.326h1.047a3.336 3.336 0 0 1 3.326 3.326v54.178a3.335 3.335 0 0 1-3.326 3.326z"/><path fill="#d6d6d6" d="M238.925 379.656h-1.047a3.336 3.336 0 0 1-3.326-3.326v-54.178a3.336 3.336 0 0 1 3.326-3.326h1.047a3.336 3.336 0 0 1 3.326 3.326v54.178a3.335 3.335 0 0 1-3.326 3.326zm22.353 0h-1.047a3.336 3.336 0 0 1-3.326-3.326v-54.178a3.336 3.336 0 0 1 3.326-3.326h1.047a3.336 3.336 0 0 1 3.326 3.326v54.178a3.336 3.336 0 0 1-3.326 3.326zm22.352 0h-1.047a3.336 3.336 0 0 1-3.326-3.326v-54.178a3.336 3.336 0 0 1 3.326-3.326h1.047a3.336 3.336 0 0 1 3.326 3.326v54.178a3.335 3.335 0 0 1-3.326 3.326z"/><g fill="#fff"><ellipse cx="258.615" cy="397.738" rx="67.158" ry="10.215"/><path d="M191.457 397.738h6.431v6.431h-6.431zm128.489 0h5.827v6.721h-5.827z"/></g><ellipse cx="258.615" cy="402.828" fill="#d6d6d6" rx="67.158" ry="8.327"/><ellipse cx="258.615" cy="407.725" fill="#fff" rx="77.336" ry="11.763"/><path fill="#fff" d="M181.279 407.725h7.405v5.861h-7.405zm147.962 0h6.71v5.861h-6.71z"/><ellipse cx="258.615" cy="413.587" fill="#d6d6d6" rx="77.336" ry="9.589"/><path fill="#efefef" d="M306.317 294.723c-.678 0-1.346.042-2.004.117a8.268 8.268 0 0 0-.936-.056h-91.064a17.99 17.99 0 0 0-1.4-.06c-.546 0-1.086.028-1.62.077a8.34 8.34 0 0 0-1.645.229c-8.18 1.532-14.373 8.706-14.373 17.331 0 9.741 7.897 17.638 17.638 17.638s17.638-7.897 17.638-17.638h60.128c0 9.741 7.897 17.638 17.638 17.638s17.638-7.897 17.638-17.638c-.001-9.741-7.897-17.638-17.638-17.638z"/></svg>