<svg viewBox="0 0 300 300" xmlns="http://www.w3.org/2000/svg"><path d="m149.999 300c-82.709 0-149.999-67.29-149.999-150s67.29-150 149.999-150c82.711 0 150.001 67.29 150.001 150s-67.29 150-150.001 150" fill="#fff"/><path d="m290.812 150c0 77.768-63.044 140.812-140.812 140.812s-140.812-63.044-140.812-140.812 63.043-140.812 140.812-140.812 140.812 63.044 140.812 140.812" fill="#86bf5a"/><path d="m224.612 112.8h-66.994v1.6a2.143 2.143 0 0 0 -2.146-2.145h-10.944c-1.18 0-2.145.952-2.145 2.145v-1.6h-66.995a2.547 2.547 0 0 0 -2.539 2.539v90.62a2.541 2.541 0 0 0 2.526 2.526h67.007v-.229c0 .343.076.673.229.952a2.126 2.126 0 0 0 1.916 1.193h10.944a2.143 2.143 0 0 0 2.146-2.145v.229h67.007a2.541 2.541 0 0 0 2.526-2.526v-90.62a2.546 2.546 0 0 0 -2.538-2.539" fill="#cd4058"/><path d="m142.383 110.749v95.686h-67.007a2.541 2.541 0 0 1 -2.526-2.526v-90.62a2.546 2.546 0 0 1 2.539-2.539h66.994m15.234-.001v95.686h67.007a2.541 2.541 0 0 0 2.526-2.526v-90.62a2.546 2.546 0 0 0 -2.539-2.539h-66.994" fill="#ea4f5c"/><path d="m80.391 110.749h-3.809v79.994c0 3.098 2.222 5.726 5.307 6.272l50.465 8.43 5.916.99h4.114v-1.701l-9.395-3.047-50.478-8.43a2.548 2.548 0 0 1 -2.12-2.514zm143.027 0h-3.809v79.994a2.548 2.548 0 0 1 -2.12 2.514l-50.478 8.43-9.395 3.047v1.702h4.114l5.916-.99 50.465-8.43c3.085-.546 5.307-3.174 5.307-6.272z" fill="#de4b57"/><path d="m157.617 114.399v93.858a2.143 2.143 0 0 1 -2.146 2.145h-10.944a2.127 2.127 0 0 1 -1.917-1.193 1.993 1.993 0 0 1 -.229-.952v-93.858c0-1.193.965-2.145 2.146-2.145h10.944c1.182 0 2.146.952 2.146 2.145" fill="#aa2d4b"/><path d="m157.617 112.348v93.858a2.143 2.143 0 0 1 -2.146 2.145h-10.944a2.127 2.127 0 0 1 -1.917-1.193 1.993 1.993 0 0 1 -.229-.952v-93.858c0-1.193.965-2.145 2.146-2.145h10.944c1.182 0 2.146.952 2.146 2.145" fill="#bc3753"/><path d="m150 110.749v93.782l-7.617-1.27-9.395-1.574-50.478-8.43a2.548 2.548 0 0 1 -2.12-2.514v-88.627a2.53 2.53 0 0 1 2.958-2.501l2.323.394 61.065 10.195zm0 0v93.782l7.617-1.27 9.395-1.574 50.478-8.43a2.548 2.548 0 0 0 2.12-2.514v-88.627a2.53 2.53 0 0 0 -2.958-2.501l-2.323.394-61.065 10.195z" fill="#efefef"/><path d="m167.012 201.686-9.395 1.575v1.472zm-34.024 0 9.395 3.047v-1.472z" fill="#d74954"/><path d="m157.617 203.261-7.289 1.215v.059h-.656v-.059l-7.289-1.215v1.473l5.078 1.65 2.539.825 2.539-.825 5.078-1.65zm-5.917-93.058h-3.4l1.662.539.039.006v.006-.006l.039-.006z" fill="#b63550"/><path d="m149.961 110.742.039.013v-.006zm-64.289-10.734v82.635a5.072 5.072 0 0 0 3.504 4.824l43.812 14.219 9.395 1.574 7.289 1.215v-.048l-59.706-19.382a2.531 2.531 0 0 1 -1.75-2.408v-82.205zm64.367 10.734-.039.007v.006zm64.289-10.734-2.543.425v82.205a2.533 2.533 0 0 1 -1.75 2.408l-59.706 19.382v.048l7.289-1.215 9.395-1.574 43.812-14.219a5.073 5.073 0 0 0 3.504-4.824v-82.636" fill="#e8e8e8"/><path d="m150 204.534-60.034-19.488a2.531 2.531 0 0 1 -1.75-2.408v-88.456a2.532 2.532 0 0 1 3.314-2.408l58.47 18.981zm0 0 60.035-19.488a2.531 2.531 0 0 0 1.75-2.408v-88.456a2.532 2.532 0 0 0 -3.314-2.408l-58.471 18.981z" fill="#fff"/><path d="m149.672 110.755v93.779h.656v-93.779z" fill="#efefef"/><path d="m114.627 153.609c-3.885 0-6.297.621-6.678 1.927-1.126 3.853 15.878 12.207 37.978 18.659 1.223.365 2.483.562 3.745.592v-15.107a14.208 14.208 0 0 1 -3.423-.501c-13.095-3.595-24.697-5.57-31.622-5.57m70.746 0c-6.925 0-18.526 1.975-31.623 5.57a14.2 14.2 0 0 1 -3.423.501v15.107a14.194 14.194 0 0 0 3.745-.592c22.101-6.452 39.104-14.806 37.978-18.659-.379-1.306-2.793-1.927-6.677-1.927" fill="#e8e8e8"/><path d="m149.672 159.679v15.107a11.957 11.957 0 0 0 .656 0v-15.107a11.957 11.957 0 0 1 -.656 0" fill="#d9d9d9"/><path d="m195.32 70.469-70.955 20.009a3.289 3.289 0 0 0 -2.525 3.199v30.675a14.676 14.676 0 0 0 -9.245-1.233c-6.163 1.167-11.014 6.272-11.835 12.49-1.241 9.407 6.383 17.383 15.684 16.738 7.561-.524 13.713-7.566 13.713-15.145v-38.535l26.29-7.544v22.466a14.683 14.683 0 0 0 -9.243-1.233c-6.163 1.165-11.015 6.27-11.837 12.487-1.243 9.408 6.381 17.385 15.683 16.741 7.562-.524 13.714-7.557 13.714-15.137v-37.711l26.291-7.544v21.58a14.678 14.678 0 0 0 -9.243-1.233c-6.163 1.165-11.015 6.27-11.836 12.487-1.243 9.408 6.381 17.385 15.682 16.741 7.562-.523 13.714-7.557 13.714-15.137v-41.973c0-2.124-1.985-3.681-4.052-3.188z" fill="#565656"/></svg>