<svg viewBox="0 0 300 300" xmlns="http://www.w3.org/2000/svg"><path d="m150 300c-82.71 0-150-67.29-150-150s67.29-150 150-150 150 67.29 150 150-67.29 150-150 150" fill="#fff"/><path d="m290.812 150c0 77.768-63.044 140.812-140.812 140.812s-140.812-63.044-140.812-140.812 63.044-140.812 140.812-140.812 140.812 63.044 140.812 140.812" fill="#eb595b"/><path d="m192.94 184.517s-7.263-11.594-11.658-17.278c-1.418-1.808-1.71-4.387-.743-6.527 2.03-4.495 3.27-9.287 3.27-14.16v-7.485s-1.47-2.958-2.256-4.855c-1.67-4.025-6.173-5.69-9.534-3.3-2.222 1.58-4.863 2.496-7.7 2.496-7.91 0-14.32-7.126-14.32-15.916-16.723.002-33.8 20.648-33.8 20.648s-.01 6.245-.01 8.41c0 4.864 1.23 9.645 3.255 14.13.968 2.144.688 4.723-.712 6.55l-.006.006c-1.648 2.123-3.184.973-4.566 3.302-1.82 3.068-3.37 6.294-4.555 9.624-.818 2.297-2.546 6.545-2.546 6.545v7.484c0 26.356 19.227 36.908 42.944 36.908 23.704 0 42.933-10.553 42.933-36.908.002-3.82.002-9.68.002-9.68z" fill="#e59623"/><path d="m191.274 175.423v-.013c-1.984-6.865-5.598-9.973-9.992-15.656-1.418-1.805-1.71-4.384-.743-6.524 2.03-4.495 3.27-9.287 3.27-14.16 0-2.167-.168-4.2-.498-6.104-.377-2.263-.97-4.338-1.758-6.235-1.67-4.022-6.173-5.686-9.534-3.3-2.222 1.58-4.863 2.498-7.7 2.498-7.91 0-14.32-7.126-14.32-15.916-16.723.003-30.598 6.657-33.315 22.957-.33 1.902-.496 3.937-.496 6.102 0 4.862 1.23 9.643 3.254 14.128.968 2.144.688 4.723-.712 6.55l-.006.006c-5.315 6.85-9.472 11.508-11.02 19.947a38.86 38.86 0 0 0 -.65 7.01c0 26.357 19.23 36.91 42.947 36.91 23.704 0 42.933-10.554 42.933-36.91.002-3.817-.6-7.597-1.664-11.286z" fill="#ffb031"/><path d="m160.407 82.01-.814 16.065c-.086 1.473-1.132 2.616-2.395 2.616h-14.493c-1.262 0-2.308-1.14-2.394-2.613l-.83-16.065h20.93" fill="#e59623"/><path d="m160.64 73.294a6.03 6.03 0 0 1 .21 2.018l-1.258 19.296c-.086 1.473-1.132 2.616-2.394 2.616h-14.493c-1.262 0-2.308-1.143-2.394-2.616l-1.161-16.488a3.48 3.48 0 0 1 1.987-3.392l11.143-5.254c3.368-1.59 7.358.233 8.364 3.82z" fill="#ffb031"/><path d="m161.205 187.906h-22.415a.882.882 0 0 1 -.882-.882v-3.738c0-.487.395-.882.882-.882h22.415c.487 0 .882.395.882.882v3.738a.883.883 0 0 1 -.882.882z" fill="#e59623"/><path d="m161.205 185.84h-22.415a.882.882 0 0 1 -.882-.883v-3.74a.88.88 0 0 1 .882-.88h22.415a.88.88 0 0 1 .882.88v3.74a.883.883 0 0 1 -.882.882z" fill="#f2a12c"/><path d="m165.792 138.45-.014.013c-1.27-1.367-3.068-2.236-5.08-2.236a6.952 6.952 0 0 0 -6.954 6.953c0 1.672.614 3.185 1.597 4.385l-.02.02c.157.157.296.323.44.487l.03.032c3.54 4.023 3.525 9.908 3.52 15.412v.342c0 .172.018.336.044.492.422 4.674 4.345 8.338 9.13 8.338a9.17 9.17 0 0 0 9.17-9.17c0-11.093-3.827-17.035-11.86-25.067z" fill="#56370f"/><path d="m155.494 99.654v35.68c0 .5-.253.893-.573.893h-10.003c-.32 0-.573-.394-.573-.892v-35.68c0-.487.253-.894.573-.894h10.006c.322.004.574.41.574.896" fill="#f2a12c"/><path d="m154.92 98.762h-10.005c-.32 0-.573.407-.573.893v2.966h11.153v-2.963c0-.487-.253-.893-.574-.893" fill="#d58d27"/><path d="m149.88 162.5c-8.725 0-15.822-7.098-15.822-15.82s7.097-15.82 15.82-15.82 15.82 7.096 15.82 15.82-7.097 15.82-15.82 15.82z" fill="#e59623"/><circle cx="149.879" cy="146.679" fill="#565656" r="13.195"/><path d="m149.88 139.042c6.332 0 11.618 4.464 12.895 10.416.192-.897.3-1.825.3-2.78 0-7.287-5.91-13.195-13.196-13.195-7.29 0-13.198 5.908-13.198 13.195 0 .954.106 1.883.3 2.78 1.276-5.95 6.562-10.416 12.895-10.416z" fill="#4c4c4c"/><path d="m153.28 183.745a.656.656 0 0 1 -.655-.656v-102.819a.656.656 0 1 1 1.312 0v102.82a.655.655 0 0 1 -.656.655zm-6.56 0a.656.656 0 0 1 -.657-.656v-94.049a.656.656 0 1 1 1.312 0v94.05a.656.656 0 0 1 -.656.655z" fill="#3f3f3f"/></svg>