<svg version="1" xmlns="http://www.w3.org/2000/svg" viewBox="0 0 300 300"><path fill="#FFF" d="M149.999 300C67.29 300 0 232.71 0 150S67.29 0 149.999 0C232.71 0 300 67.29 300 150s-67.29 150-150.001 150"/><path fill="#5EC2D7" d="M290.812 150c0 77.768-63.044 140.812-140.812 140.812S9.188 227.768 9.188 150 72.232 9.188 150 9.188 290.812 72.232 290.812 150"/><path fill="#5EBCB5" d="M178.6 184.235c-2.055-4.044-2.132-8.332-1.201-13.018 1.736-8.736 3.217-13.385 3.217-18.327v-11.769s-11.806 8.569-17.548 8.569c-7.013 0-10.521-9.186-12.354-15.011-.808-2.567-.401-7.346-.401-7.346l-1.468.018s-1.409 13.765-10.636 13.765c-4.006 0-18.775-1.834-18.775-1.834v11.769c0 4.873.99 6.865 2.763 11.023 1.802 4.227 1.416 9.127-.736 13.161-1.771 3.321-6.902 5.271-6.902 5.271s.052 8.837.052 11.716c0 17.017 18.991 23.744 35.413 26.041 16.422 2.297 35.413 3.514 35.413-16.078v-11.769s-5.027-2.62-6.837-6.181z"/><path fill="#6DE2DE" d="M178.6 172.466c-2.055-4.044-2.132-8.332-1.201-13.018 1.736-8.736 3.217-13.385 3.217-18.327 0-3.014-1.618-7.875-5.266-7.875-4.628 0-6.541 4.676-12.282 4.676-7.013 0-10.521-9.186-12.354-15.011-.808-2.567-.401-7.346-.401-7.346l-1.468.018s-1.409 13.765-10.636 13.765c-4.006 0-7.158-6.255-10.999-6.255-5.414 0-7.776 9.59-7.776 16.19 0 4.873.99 6.865 2.763 11.023 1.802 4.227 1.416 9.127-.736 13.161-4.935 9.253-6.85 12.496-6.85 16.988 0 17.017 18.991 23.744 35.413 26.041 16.422 2.297 35.413 3.514 35.413-16.078.002-4.494-2.653-9.72-6.837-17.952z"/><path fill="#FFEEF0" d="M150.038 134.394s7.026 6.727 13.026 6.727 8.005-3.863 11.013-3.863c3.008 0 3.582 2.232 3.582 5.357 0 8.141-3.766 15.131-3.766 22.764 0 9.02 7.704 17.161 7.704 25.419 0 15.589-21.638-10.345-31.559-10.345-14.673 0-15.576-6.027-15.576-20.793s-1.308-25.266 15.576-25.266z"/><path fill="#E5B36A" d="M156.112 73.986c1.656-1.109 2.74-3.067 2.74-5.317 0-1.283-.02-3.924-.02-3.924s-3.745-2.355-5.845-2.355c-2.656 0-4.997 1.796-5.806 4.274l-.022-.018c-2.454 7.415-3.625 11.122-5.958 18.537v2.638c0 1.3.295 2.46 1.334 2.979l1.202.597a4.668 4.668 0 0 0 2.075.485h9.763c.47 0 .848-.407.848-.909v-.594a.55.55 0 0 1 .249-.467c.63-.395.943-.593 1.566-.988.369-.234.493-.684.493-1.164v-3.164c-1.04-4.244-1.562-6.366-2.619-10.61"/><path fill="#FFCD7D" d="M156.112 70.589c2.051-1.373 3.231-4.051 2.545-6.972-.506-2.154-2.104-3.891-4.145-4.425-3.249-.851-6.37 1.13-7.332 4.075l-.022-.018c-2.414 8.47-3.568 12.705-5.863 21.175-.323 1.191.201 2.46 1.241 2.979l.681.34a7.116 7.116 0 0 0 3.18.742h9.177c.47 0 .848-.407.848-.909v-.594a.55.55 0 0 1 .249-.467c.63-.395.943-.593 1.566-.988.369-.234.558-.698.474-1.153-1.033-5.514-1.55-8.271-2.599-13.785z"/><path fill="#DBC8CC" d="M158.517 154.877h-16.981c-.341 0-.617-.302-.617-.674v-9.922c0-.372.276-.674.617-.674h16.981c.341 0 .617.302.617.674v9.922c-.001.372-.276.674-.617.674z"/><path fill="#F2DADE" d="M158.517 153.311h-16.981c-.341 0-.617-.302-.617-.674v-9.922c0-.372.276-.674.617-.674h16.981c.341 0 .617.302.617.674v9.922c-.001.372-.276.674-.617.674z"/><path fill="#565656" d="M154.957 91.211v55.549c0 .512-.217.916-.494.916h-8.874c-.277 0-.494-.404-.494-.916V91.211c0-.499.217-.916.494-.916h8.874c.277-.001.494.417.494.916"/><path fill="#4C4C4C" d="M154.463 90.294h-8.874c-.277 0-.494.418-.494.916v3.044h9.862V91.21c0-.498-.217-.916-.494-.916m4.65 94.547H140.94c-1.425 0-2.569-1.264-2.569-2.824v-2.121h23.311v2.121c0 1.56-1.145 2.824-2.569 2.824z"/><path fill="#DBC8CC" d="M157.126 166.683h-14.199c-1.115 0-2.007-.979-2.007-2.186v-1.305h18.214v1.305c-.001 1.208-.893 2.186-2.008 2.186z"/><path fill="#F2DADE" d="M157.126 165.378h-14.199c-1.115 0-2.007-.979-2.007-2.186 0-1.207.892-2.186 2.007-2.186h14.199c1.115 0 2.007.979 2.007 2.186 0 1.208-.892 2.186-2.007 2.186z"/><path fill="#565656" d="M159.113 182.72H140.94c-1.425 0-2.569-1.264-2.569-2.823 0-1.56 1.145-2.824 2.569-2.824h18.173c1.425 0 2.569 1.264 2.569 2.824 0 1.559-1.145 2.823-2.569 2.823z"/><path fill="#3F3F3F" d="M146.089 180.553a.656.656 0 0 1-.656-.656V76.827a.656.656 0 1 1 1.312 0v103.07a.655.655 0 0 1-.656.656zm3.937 0a.656.656 0 0 1-.656-.656V71.526a.656.656 0 1 1 1.312 0v108.37a.655.655 0 0 1-.656.657zm3.938 0a.656.656 0 0 1-.656-.656v-97.87a.656.656 0 1 1 1.312 0v97.87a.655.655 0 0 1-.656.656z"/></svg>