<svg viewBox="0 0 300 300" xmlns="http://www.w3.org/2000/svg"><path d="m150 300c-82.7 0-150-67.3-150-150s67.3-150 150-150 150 67.3 150 150-67.3 150-150 150" fill="#fff"/><path d="m290.8 150c0 77.8-63 140.8-140.8 140.8s-140.8-63-140.8-140.8 63-140.8 140.8-140.8 140.8 63 140.8 140.8" fill="#eb595b"/><path d="m183.4 174.3h-66.8c-.2 0-.3-.2-.3-.3v-71.2c0-10.5 8.5-19 19-19h29.6c10.5 0 19 8.5 19 19v71.2c-.2.1-.3.3-.5.3z" fill="#565656"/><path d="m165.1 136.3h-30.3c-2 0-3.9-.9-5.2-2.5l-13.4-16.5v40.9h67.5v-40.9l-13.4 16.5c-1.3 1.6-3.2 2.5-5.2 2.5z" fill="#4c4c4c"/><path d="m185.6 161.5v1.6h-71.3v-1.6c0-7.8 16-14.1 35.6-14.1 19.8 0 35.7 6.3 35.7 14.1z" fill="#c9c9c9"/><ellipse cx="150" cy="163.1" fill="#9faaad" rx="35.6" ry="14.1"/><path d="m183.7 164.3v18.8c0 .7-.1 1.4-.4 2-.1.1-.1.3-.2.4l-6.5 11.4h-53.1l-6.6-11.4c-.1-.1-.1-.3-.2-.4-.3-.6-.4-1.3-.4-2v-18.8c0-7.3 15.1-13.3 33.7-13.3 18.6-.1 33.7 5.9 33.7 13.3" fill="#c9c9c9"/><path d="m183.3 185.1c-.1.1-.1.3-.2.4l-6.5 11.4h-53.1l-6.6-11.4c-.1-.1-.1-.3-.2-.4 3.7-5.9 17.2-10.3 33.3-10.3s29.6 4.4 33.3 10.3" fill="#bfbfbf"/><path d="m177.2 194.7c0 5.9-12.2 10.7-27.2 10.7s-27.2-4.8-27.2-10.7 12.2-10.7 27.2-10.7c15-.1 27.2 4.7 27.2 10.7" fill="#9faaad"/><path d="m165.2 200.6c0-3.3-6.8-6-15.2-6s-15.2 2.7-15.2 6v9.7h30.3z" fill="#bfbfbf"/><path d="m150 194.6c-8.4 0-15.2 2.7-15.2 6v4.8c0-3.3 6.8-6 15.2-6s15.1 2.7 15.2 6v-4.7c0-3.4-6.8-6.1-15.2-6.1" fill="#b7b7b7"/><ellipse cx="150" cy="210.2" fill="#9faaad" rx="15.2" ry="6"/></svg>