<svg version="1" xmlns="http://www.w3.org/2000/svg" viewBox="0 0 300 300"><path fill="#FFF" d="M149.999 300C67.29 300 0 232.71 0 150S67.29 0 149.999 0C232.71 0 300 67.29 300 150s-67.29 150-150.001 150"/><path fill="#86BF5A" d="M290.812 150c0 77.768-63.045 140.812-140.812 140.812C72.232 290.812 9.188 227.769 9.188 150 9.188 72.232 72.232 9.188 150 9.188c77.768 0 140.812 63.044 140.812 140.812"/><path fill="#4C4C4C" d="M178.574 186.363c-2.137-4.002-2.547-8.868-.766-13.066a35.2 35.2 0 0 0 2.783-13.71c.003-3.013 0-9.526 0-9.526s-5.398-1.806-7.091.52c-2.722 3.741-4.716 6.651-10.457 6.651-7.014 0-10.521-8.221-12.354-14.046-.808-2.567-.401-7.346-.401-7.346l-1.468.018s-1.409 13.765-10.636 13.765c-4.006 0-6.298-2.748-7.575-5.858-1.382-3.368-11.199 6.267-11.199 6.267v9.526c0 4.873.99 9.498 2.763 13.656 1.802 4.226 1.416 9.127-.736 13.161-2.133 4-6.85 7.461-6.85 7.461v9.526c.004 20.09 18.145 26.895 35.413 26.895 15.737 0 35.413-6.805 35.413-26.895v-9.526s-4.532-3.153-6.839-7.473zM156.085 84.736c1.656-1.109 2.74-3.067 2.74-5.317 0-1.284-.02-3.924-.02-3.924s-3.745-2.355-5.845-2.355c-2.656 0-4.997 1.796-5.806 4.274l-.022-.018c-2.454 7.415-3.625 11.122-5.958 18.537v2.638c0 1.3.295 2.46 1.334 2.98l1.202.597a4.667 4.667 0 0 0 2.074.485h9.762c.47 0 .849-.407.849-.909v-.594a.55.55 0 0 1 .249-.467c.629-.395.942-.593 1.565-.988.369-.234.493-.685.493-1.164v-3.163a2001.353 2001.353 0 0 0-2.617-10.612"/><path fill="#565656" d="M156.085 81.34c2.052-1.373 3.231-4.051 2.546-6.972-.506-2.154-2.105-3.891-4.145-4.425-3.249-.851-6.37 1.13-7.331 4.075l-.023-.018c-2.414 8.47-3.568 12.705-5.863 21.175-.323 1.191.201 2.46 1.241 2.979l.681.34a7.13 7.13 0 0 0 3.18.742h9.176c.47 0 .849-.407.849-.909v-.594a.55.55 0 0 1 .249-.467c.629-.395.942-.593 1.565-.988.369-.234.559-.697.474-1.153-1.033-5.515-1.549-8.272-2.599-13.785zm22.489 95.497c-2.137-4.002-2.042-8.689-.766-13.066 1.319-4.527 2.779-8.884 2.783-13.71.003-3.014-.909-7.883-4.799-7.883-5.571 0-6.227 5.529-11.536 5.529-7.014 0-11.733-8.221-13.566-14.046-.808-2.567-.401-7.346-.401-7.346l-1.468.018s-1.409 13.765-10.636 13.765c-4.006 0-6.298-2.748-7.575-5.858-1.382-3.368-5.728-3.641-7.346-.397-2.046 4.1-3.853 9.59-3.853 16.189 0 4.873 1.291 9.466 2.763 13.656 1.523 4.335 1.416 9.127-.736 13.161-4.935 9.253-6.85 12.496-6.85 16.987.004 20.09 18.145 26.895 35.413 26.895 15.737 0 35.413-6.805 35.413-26.895-.001-4.492-1.908-7.762-6.84-16.999z"/><path fill="#FFEEF0" d="M150 145.486s8.569 5.586 14.802 5.586c5.597 0 6.989-5.517 9.848-5.517 2.514 0 3.117 2.61 3.117 4.683 0 5.773-4.104 12.538-4.104 19.498 0 6.961 8.315 16.849 8.315 24.325 0 8.419-3.72 13.056-9.412 15.199-10.939 4.118-17.265-16.198-22.566-18.614-4.343-1.978-14.936 6.046-17.936 2.824-6.031-6.478 5.457-17.669 5.457-26.652 0-7.524-7.284-14.026-2.351-19.424 3.847-4.21 14.83-1.908 14.83-1.908z"/><path fill="#DBC8CC" d="M158.49 165.626h-16.98c-.341 0-.617-.301-.617-.673v-9.922c0-.373.276-.674.617-.674h16.98c.341 0 .617.301.617.674v9.922c-.001.372-.276.673-.617.673z"/><path fill="#F2DADE" d="M158.49 164.061h-16.98c-.341 0-.617-.301-.617-.674v-9.922c0-.372.276-.674.617-.674h16.98c.341 0 .617.303.617.674v9.922c-.001.373-.276.674-.617.674z"/><path fill="#FFCD7D" d="M154.93 101.961v55.549c0 .511-.217.916-.493.916h-8.874c-.277 0-.494-.405-.494-.916v-55.549c0-.499.217-.916.494-.916h8.874c.277 0 .493.417.493.916"/><path fill="#E0B46E" d="M154.437 101.045h-8.874c-.277 0-.494.417-.494.916v3.044h9.861v-3.044c0-.499-.216-.916-.493-.916"/><path fill="#DBC8CC" d="M159.086 195.591h-18.172c-1.425 0-2.569-1.264-2.569-2.824v-2.121h23.311v2.121c0 1.56-1.145 2.824-2.57 2.824zm-1.987-18.157H142.9c-1.115 0-2.007-.979-2.007-2.187v-1.305h18.213v1.305c0 1.208-.892 2.187-2.007 2.187z"/><path fill="#F2DADE" d="M157.099 176.129H142.9c-1.115 0-2.007-.979-2.007-2.187 0-1.207.892-2.185 2.007-2.185h14.199c1.115 0 2.007.978 2.007 2.185 0 1.208-.892 2.187-2.007 2.187zm1.987 17.341h-18.172c-1.425 0-2.569-1.264-2.569-2.824 0-1.559 1.145-2.824 2.569-2.824h18.172c1.425 0 2.57 1.265 2.57 2.824 0 1.56-1.145 2.824-2.57 2.824z"/><path fill="#DBC8CC" d="M173.033 190.65a2.997 2.997 0 1 1-5.99 0 2.997 2.997 0 0 1 5.99 0z"/><path fill="#4F4F4F" d="M172.425 190.039v.611a2.39 2.39 0 0 1-4.777 0v-.611c0-.468.133-.905.369-1.274h.558a2.37 2.37 0 0 1 2.923 0h.558c.236.369.369.806.369 1.274z"/><path fill="#686868" d="M172.425 190.039a2.39 2.39 0 0 1-4.777 0c0-.468.133-.905.369-1.274a2.383 2.383 0 0 1 2.019-1.115c.851 0 1.6.446 2.02 1.115.236.369.369.806.369 1.274z"/><circle fill="#DBC8CC" cx="167.04" cy="182.42" r="2.995"/><path fill="#4F4F4F" d="M169.43 181.809v.611a2.39 2.39 0 0 1-4.778 0v-.611c0-.468.135-.905.369-1.274h.558a2.372 2.372 0 0 1 2.924 0h.558c.235.369.369.806.369 1.274z"/><path fill="#686868" d="M169.43 181.809a2.39 2.39 0 1 1-4.779-.001 2.39 2.39 0 0 1 4.779.001z"/><path fill="#DBC8CC" d="M176.028 198.879a2.996 2.996 0 1 1-5.992-.002 2.996 2.996 0 0 1 5.992.002z"/><path fill="#4F4F4F" d="M175.422 198.266v.613a2.39 2.39 0 0 1-4.778 0v-.613c0-.468.133-.904.369-1.274h.558c.405-.315.911-.502 1.462-.502s1.057.187 1.462.502h.556c.236.371.371.806.371 1.274z"/><path fill="#686868" d="M175.422 198.266a2.39 2.39 0 1 1-4.779-.001 2.39 2.39 0 0 1 4.779.001z"/><path fill="#3F3F3F" d="M149.18 190.646V87.576a.492.492 0 1 0-.984 0v103.07a.492.492 0 1 0 .984 0zm2.625 0V79.367a.492.492 0 1 0-.984 0v111.279a.492.492 0 1 0 .984 0z"/></svg>