<svg viewBox="0 0 300 300" xmlns="http://www.w3.org/2000/svg"><path d="m149.999 300c-82.709 0-149.999-67.29-149.999-150s67.29-150 149.999-150c82.711 0 150.001 67.29 150.001 150s-67.29 150-150.001 150z" fill="#fff"/><circle cx="150" cy="150" fill="#fae040" r="140.812"/><path d="m76.834 169.605a26.779 26.779 0 0 1 -.898-6.917c.004-3.836.785-8.43 3.297-13.596 2.516-5.163 6.786-10.918 13.882-16.948 11.373-9.674 27.784-17.824 46.018-22.702 11.806-3.165 23.632-4.77 34.492-4.769 5.911 0 11.536.475 16.711 1.42 12.424 2.277 20.082 6.685 24.933 11.285 4.843 4.606 6.95 9.497 7.898 13.017l6.339-1.699c-1.179-4.417-3.85-10.507-9.717-16.076-5.859-5.576-14.843-10.539-28.274-12.983-5.618-1.026-11.628-1.527-17.89-1.527-11.504.001-23.863 1.69-36.191 4.993-19.036 5.109-36.217 13.559-48.568 24.039-7.676 6.519-12.574 12.998-15.533 19.076-2.962 6.075-3.963 11.728-3.96 16.47 0 3.378.499 6.293 1.122 8.616z" fill="#76a849"/><path d="m91.207 165.753a11.585 11.585 0 0 1 -.392-3.018c-.005-3.043 1.146-6.479 3.55-10.111 3.587-5.443 9.949-11.167 18.326-16.223 8.374-5.066 18.742-9.494 30.292-12.588 10.808-2.897 21.302-4.265 30.624-4.264 9.744-.007 18.207 1.511 24.328 4.18 3.063 1.329 5.529 2.934 7.331 4.705 1.804 1.778 2.955 3.688 3.528 5.811l6.339-1.699c-.897-3.36-2.756-6.334-5.269-8.795-3.781-3.7-8.978-6.338-15.132-8.11-6.16-1.766-13.314-2.653-21.125-2.655-9.959.001-20.988 1.451-32.323 4.487-16.151 4.334-30.151 11.124-40.294 18.985-5.07 3.937-9.186 8.145-12.099 12.544-2.904 4.391-4.634 9.031-4.639 13.732 0 1.586.201 3.169.616 4.716z" fill="#ff7182"/><path d="m154.014 164.983-.849-3.17c-10.354 2.774-19.264 3.772-26.534 3.772-7.057.002-12.579-.947-16.308-2.093-1.861-.568-3.276-1.194-4.149-1.704a5.44 5.44 0 0 1 -.863-.596l-.065-.062-.008-.008-.4.357.443-.298-.043-.059-.4.357.443-.298-1.28.861 1.414-.61a1.572 1.572 0 0 0 -.134-.251l-1.28.861 1.414-.61-3.013 1.299 3.26-.377-1.723.199h1.735l-.012-.199-1.723.199h1.735-.967l.955.167.012-.167h-.967l.955.167-.094-.016.093.02.001-.003-.094-.016.093.02c-.004-.027.156-.511.545-1.153.675-1.145 1.997-2.837 3.973-4.745 5.942-5.759 17.743-13.579 36.654-18.64 10.355-2.775 19.266-3.773 26.536-3.773 7.057-.002 12.578.947 16.306 2.093 1.86.568 3.275 1.194 4.149 1.704.435.252.733.477.862.596l.065.062.008.008.399-.357-.443.298.043.059.399-.357-.443.298 1.28-.86-1.414.609c.054.125.103.204.134.251l1.28-.86-1.414.609 3.013-1.299-3.26.376 1.719-.198h-1.731l.012.198 1.719-.198h-1.731.968l-.956-.168-.012.168h.968l-.956-.168.094.016-.093-.02-.001.003.094.016-.093-.02c.004.027-.156.511-.545 1.153-.675 1.145-1.997 2.837-3.973 4.745-5.942 5.76-17.743 13.58-36.654 18.641l.852 3.171.849 3.169c15.763-4.225 27.044-10.307 34.467-15.953 3.714-2.828 6.463-5.537 8.359-7.922.949-1.197 1.686-2.309 2.231-3.381a10.42 10.42 0 0 0 .669-1.621 6.182 6.182 0 0 0 .297-1.829c0-.176-.009-.36-.031-.554l-.055-.48-.191-.443c-.414-.929-.957-1.511-1.529-2.039-1.012-.901-2.229-1.615-3.755-2.312-2.281-1.031-5.245-1.956-8.913-2.644-3.665-.685-8.026-1.123-13.042-1.123-7.87 0-17.35 1.08-28.234 3.997-15.763 4.225-27.044 10.306-34.467 15.952-3.714 2.828-6.463 5.537-8.359 7.922-.949 1.197-1.686 2.309-2.231 3.381a10.42 10.42 0 0 0 -.669 1.621 6.182 6.182 0 0 0 -.297 1.829c0 .177.009.362.031.555l.055.479.191.443c.414.929.957 1.511 1.529 2.039 1.012.901 2.229 1.615 3.755 2.312 2.282 1.031 5.246 1.956 8.914 2.644 3.666.685 8.027 1.123 13.043 1.123 7.869 0 17.349-1.08 28.232-3.996z" fill="#fbbc4b"/><path d="m105.663 162.354-1.723.199h1.735l-.012-.199-1.723.199h1.735-.967l.955.167.012-.167h-.967l.955.167-.094-.016.093.02.001-.003-.094-.016.093.02c-.004-.027.156-.511.545-1.153.675-1.145 1.997-2.837 3.973-4.745 5.942-5.759 17.743-13.579 36.654-18.64 10.355-2.775 19.266-3.773 26.536-3.773 7.057-.002 12.578.947 16.306 2.093 1.86.568 3.275 1.194 4.149 1.704.435.252.733.477.862.596l.065.062.008.008.399-.357-.443.298.043.059.399-.357-.443.298 1.28-.86-1.414.609c.054.125.103.204.134.251l1.28-.86-1.414.609 6.027-2.598c-.414-.929-.957-1.511-1.529-2.039-1.012-.901-2.229-1.615-3.755-2.312-2.281-1.031-5.245-1.956-8.913-2.644-3.665-.685-8.026-1.123-13.042-1.123-7.87 0-17.35 1.08-28.234 3.997-15.763 4.225-27.044 10.306-34.467 15.952-3.714 2.828-6.463 5.537-8.359 7.922-.949 1.197-1.686 2.309-2.231 3.381a10.42 10.42 0 0 0 -.669 1.621 6.182 6.182 0 0 0 -.297 1.829c0 .177.009.362.031.555z" fill="#fbbc4b"/><path d="m105.663 162.354-1.723.199h1.735l-.012-.199-1.723.199h1.735-.967l.955.167.012-.167h-.967l.955.167-.094-.016.093.02.001-.003-.094-.016.093.02c-.004-.027.156-.511.545-1.153.675-1.145 1.997-2.837 3.973-4.745 5.942-5.759 17.743-13.579 36.654-18.64 10.355-2.775 19.266-3.773 26.536-3.773 7.057-.002 12.578.947 16.306 2.093 1.86.568 3.275 1.194 4.149 1.704.435.252.733.477.862.596l.065.062.008.008.399-.357-.443.298.043.059.399-.357-.443.298 1.28-.86-1.414.609c.054.125.103.204.134.251l1.28-.86-1.414.609 6.027-2.598c-.414-.929-.957-1.511-1.529-2.039-1.012-.901-2.229-1.615-3.755-2.312-2.281-1.031-5.245-1.956-8.913-2.644-3.665-.685-8.026-1.123-13.042-1.123-7.87 0-17.35 1.08-28.234 3.997-15.763 4.225-27.044 10.306-34.467 15.952-3.714 2.828-6.463 5.537-8.359 7.922-.949 1.197-1.686 2.309-2.231 3.381a10.42 10.42 0 0 0 -.669 1.621 6.182 6.182 0 0 0 -.297 1.829c0 .177.009.362.031.555z" fill="#e09d3c"/><path d="m91.207 165.753a11.585 11.585 0 0 1 -.392-3.018c-.005-3.043 1.146-6.479 3.55-10.111 3.587-5.443 9.949-11.167 18.326-16.223 8.374-5.066 18.742-9.494 30.292-12.588 10.808-2.897 21.302-4.265 30.624-4.264 9.744-.007 18.207 1.511 24.328 4.18 3.063 1.329 5.529 2.934 7.331 4.705 1.804 1.778 2.955 3.688 3.528 5.811l6.339-1.699c-.897-3.36-2.756-6.334-5.269-8.795-3.781-3.7-8.978-6.338-15.132-8.11-6.16-1.766-13.314-2.653-21.125-2.655-9.959.001-20.988 1.451-32.323 4.487-16.151 4.334-30.151 11.124-40.294 18.985-5.07 3.937-9.186 8.145-12.099 12.544-2.904 4.391-4.634 9.031-4.639 13.732 0 1.586.201 3.169.616 4.716z" fill="#dd5771"/><path d="m170.454 226.335-.849-3.169a75.589 75.589 0 0 1 -19.588 2.59c-16.711.001-32.75-5.586-45.738-15.403-12.988-9.819-22.913-23.84-27.445-40.748a75.581 75.581 0 0 1 -2.59-19.587c-.001-16.712 5.586-32.75 15.403-45.739 9.819-12.989 23.84-22.913 40.748-27.446a75.581 75.581 0 0 1 19.587-2.59c16.712-.001 32.75 5.586 45.739 15.403 12.989 9.819 22.913 23.84 27.445 40.748a75.58 75.58 0 0 1 2.59 19.586c.001 16.712-5.586 32.75-15.403 45.738-9.819 12.989-23.84 22.913-40.749 27.445l.85 3.172.849 3.169c18.359-4.918 33.63-15.724 44.286-29.827 10.658-14.103 16.729-31.517 16.73-49.695 0-7.035-.91-14.182-2.814-21.285-4.918-18.359-15.724-33.63-29.828-44.285-14.103-10.658-31.517-16.729-49.696-16.73-7.035 0-14.182.91-21.286 2.814-18.359 4.918-33.63 15.725-44.285 29.828-10.658 14.103-16.729 31.516-16.73 49.695 0 7.035.91 14.182 2.814 21.285 4.918 18.359 15.724 33.63 29.827 44.285 14.103 10.658 31.516 16.729 49.695 16.73 7.035 0 14.183-.91 21.287-2.814z" fill="#86bf5a"/><path d="m211.963 133.397-3.17.849a60.964 60.964 0 0 1 2.09 15.794c.001 13.429-4.483 26.301-12.369 36.723-7.889 10.422-19.153 18.382-32.761 22.03a60.964 60.964 0 0 1 -15.794 2.09c-13.429.001-26.3-4.483-36.723-12.369-10.422-7.889-18.382-19.153-22.03-32.761a60.964 60.964 0 0 1 -2.09-15.794c-.001-13.429 4.483-26.3 12.369-36.723 7.889-10.422 19.153-18.382 32.761-22.03a60.964 60.964 0 0 1 15.794-2.09c13.429-.001 26.3 4.483 36.723 12.369 10.422 7.889 18.382 19.153 22.03 32.761l3.17-.849 3.169-.849a67.163 67.163 0 0 0 -24.409-36.296c-11.538-8.73-25.788-13.697-40.682-13.698-5.779 0-11.653.749-17.493 2.314a67.157 67.157 0 0 0 -36.296 24.409c-8.73 11.538-13.697 25.788-13.698 40.682a67.51 67.51 0 0 0 2.314 17.492 67.16 67.16 0 0 0 24.409 36.296c11.538 8.73 25.788 13.697 40.682 13.698 5.779 0 11.653-.749 17.493-2.314a67.163 67.163 0 0 0 36.296-24.409c8.73-11.538 13.697-25.788 13.698-40.683a67.55 67.55 0 0 0 -2.313-17.492z" fill="#ff7182"/><path d="m162.752 197.59-.849-3.169a45.898 45.898 0 0 1 -11.892 1.573c-10.142.001-19.882-3.391-27.77-9.353-7.888-5.964-13.909-14.47-16.662-24.738a45.94 45.94 0 0 1 -1.573-11.891c-.001-10.142 3.391-19.882 9.353-27.77 5.964-7.888 14.47-13.909 24.738-16.662a45.94 45.94 0 0 1 11.891-1.573c10.142-.001 19.882 3.391 27.77 9.353 7.888 5.964 13.909 14.47 16.662 24.738a45.889 45.889 0 0 1 1.572 11.891c.001 10.142-3.391 19.882-9.353 27.77-5.964 7.888-14.47 13.909-24.738 16.662l.851 3.169.849 3.169a52.307 52.307 0 0 0 28.275-19.045c6.803-9.002 10.679-20.117 10.68-31.727 0-4.492-.581-9.056-1.796-13.589a52.315 52.315 0 0 0 -19.044-28.275c-9.002-6.803-20.117-10.679-31.727-10.68-4.492 0-9.056.581-13.589 1.796a52.311 52.311 0 0 0 -28.275 19.044c-6.803 9.002-10.679 20.117-10.68 31.727 0 4.492.581 9.056 1.796 13.589a52.315 52.315 0 0 0 19.044 28.275c9.002 6.803 20.117 10.679 31.727 10.68 4.492 0 9.057-.581 13.59-1.796z" fill="#fbbc4b"/><path d="m158.898 183.213c-15.816 4.24-32.078-3.321-39.376-17.26a35.177 35.177 0 0 1 -2.743-7.047c-4.909-18.323 5.998-37.211 24.321-42.12a34.313 34.313 0 0 1 24.899 2.783c8.203 4.318 14.648 11.904 17.22 21.525 4.909 18.323-5.998 37.21-24.321 42.119z" fill="#4c4c4c"/><path d="m144.421 168.735a34.308 34.308 0 0 1 -24.899-2.783 35.177 35.177 0 0 1 -2.743-7.047c-4.909-18.323 5.998-37.211 24.321-42.12a34.313 34.313 0 0 1 24.899 2.783 35.067 35.067 0 0 1 2.743 7.048c4.909 18.323-6.011 37.211-24.321 42.119z" fill="#565656"/><path d="m208.793 134.246c.263.983.392 1.982.392 3.018.005 3.043-1.146 6.479-3.55 10.111-3.587 5.443-9.949 11.167-18.327 16.223-8.374 5.066-18.742 9.495-30.293 12.588-10.808 2.897-21.302 4.265-30.624 4.264-9.744.007-18.207-1.511-24.328-4.18-3.063-1.329-5.529-2.934-7.33-4.706-1.804-1.778-2.955-3.688-3.528-5.812l-.849-3.169-6.339 1.699.849 3.169c.897 3.36 2.755 6.334 5.268 8.795 3.781 3.7 8.978 6.339 15.132 8.111 6.16 1.766 13.314 2.653 21.125 2.655 9.959-.001 20.988-1.451 32.322-4.488 16.151-4.334 30.151-11.125 40.294-18.986 5.07-3.937 9.186-8.145 12.1-12.544 2.904-4.391 4.634-9.031 4.639-13.732 0-1.586-.201-3.169-.616-4.716l-.849-3.17-6.339 1.698z" fill="#ff808c"/><path d="m194.337 137.645 1.719-.198h-1.731l.012.198 1.719-.198h-1.731.968l-.956-.168-.012.168h.968l-.956-.168.094.016-.093-.02-.001.003.094.016-.093-.02c.004.027-.156.511-.545 1.153-.675 1.145-1.997 2.837-3.973 4.745-5.942 5.76-17.743 13.58-36.654 18.641-10.354 2.774-19.264 3.772-26.534 3.772-7.057.002-12.579-.947-16.308-2.093-1.861-.568-3.276-1.194-4.149-1.704a5.44 5.44 0 0 1 -.863-.596l-.065-.062-.008-.008-.4.357.443-.298-.043-.059-.4.357.443-.298-1.28.861 1.414-.61a1.572 1.572 0 0 0 -.134-.251l-1.28.861.115-3.623-6.027 2.598c1.713 3.942 2.256 4.524 2.828 5.052 1.012.901 2.229 1.615 3.755 2.312 2.282 1.031 5.246 1.956 8.914 2.644 3.666.685 8.027 1.123 13.043 1.123 7.869 0 17.349-1.08 28.232-3.996 15.763-4.225 27.044-10.307 34.467-15.953 3.714-2.828 6.463-5.537 8.359-7.922.949-1.197 1.686-2.309 2.231-3.381a10.42 10.42 0 0 0 .669-1.621 6.182 6.182 0 0 0 .297-1.829c0-.176-.009-.36-.031-.554l-.376-3.26-6.519.752.378 3.261z" fill="#ffc76c"/><path d="m223.166 130.395c.494 1.845.898 4.188.898 6.917-.004 3.835-.785 8.43-3.297 13.596-2.516 5.163-6.786 10.918-13.882 16.949-11.373 9.674-27.784 17.825-46.018 22.701-11.806 3.165-23.632 4.77-34.493 4.769-5.911 0-11.536-.475-16.712-1.42-12.424-2.277-20.081-6.686-24.932-11.285-4.843-4.606-6.95-9.496-7.898-13.017l-.849-3.169-6.339 1.699.849 3.169c1.179 4.417 3.85 10.507 9.717 16.076 5.859 5.576 14.843 10.539 28.273 12.984 5.619 1.026 11.628 1.527 17.891 1.527 11.504-.001 23.863-1.69 36.191-4.992 19.036-5.108 36.217-13.559 48.568-24.039 7.676-6.519 12.574-12.999 15.533-19.077 2.962-6.075 3.963-11.728 3.96-16.47 0-3.377-.499-6.293-1.122-8.615l-.849-3.169-6.339 1.699z" fill="#9ecc72"/></svg>