<svg enable-background="new 0 0 300 300" viewBox="0 0 300 300" xmlns="http://www.w3.org/2000/svg"><path d="m150.951 300.473c-82.71 0-149.999-67.29-149.999-149.999 0-82.71 67.29-150 149.999-150 82.711 0 150.001 67.29 150.001 150 0 82.709-67.29 149.999-150.001 149.999" fill="#fff"/><path d="m291.764 150.474c0 77.768-63.043 140.812-140.812 140.812-77.768 0-140.812-63.043-140.812-140.812 0-77.768 63.044-140.812 140.812-140.812 77.769-.001 140.812 63.043 140.812 140.812" fill="#fae040"/><path d="m160.74 98.018v-2.337l-5.8-19.604h-7.977l-5.799 19.563v2.379c0 .765.14 1.115.614 1.421l1.011.652c.225.145.487.223.755.223h14.816c.268 0 .529-.078.755-.223l1.011-.652c.473-.307.614-.84.614-1.422" fill="#4c4c4c"/><path d="m158.416 139.04 32.295 81.132v7.929c0 1.306-1.436 1.789-2.835 1.129l-36.924-17.411-36.925 17.411c-1.4.66-2.834-.269-2.834-1.547v-7.607l32.295-81.036c2.492-5.963 12.435-5.963 14.928 0z" fill="#4c4c4c"/><path d="m158.416 131.11 32.235 88.743c.41 1.177-1.375 2.109-2.775 1.448l-36.924-17.413-36.925 17.413c-1.4.66-3.185-.272-2.774-1.448l32.235-88.743c2.492-5.962 12.435-5.962 14.928 0z" fill="#565656"/><path d="m178.151 201.717-22.133-9.089-5.071-10.64h-19.969c-.59 0-1.001-.586-.799-1.141l13.312-36.65c2.495-5.965 12.432-5.965 14.927 0l20.594 56.696c.192.532-.338 1.04-.861.824z" fill="#ffeef0"/><path d="m157.467 159.565h-13.027c-.272 0-.492-.22-.492-.492v-7.234c0-.27.22-.491.492-.491h13.027c.272 0 .492.22.492.491v7.234c.001.272-.22.492-.492.492z" fill="#dbc8cc"/><path d="m157.467 158.423h-13.027c-.272 0-.492-.219-.492-.491v-7.234c0-.272.22-.492.492-.492h13.027c.272 0 .492.22.492.492v7.234c.001.272-.22.491-.492.491z" fill="#f2dade"/><path d="m155.97 167.442h-10.037c-.816 0-1.479-.661-1.479-1.478v-.883h12.994v.883c0 .816-.661 1.478-1.478 1.478z" fill="#dbc8cc"/><path d="m155.97 166.56h-10.037c-.816 0-1.479-.663-1.479-1.479s.662-1.478 1.479-1.478h10.037c.816 0 1.478.661 1.478 1.478s-.661 1.479-1.478 1.479z" fill="#f2dade"/><path d="m157.992 185.088h-14.079c-1.145 0-2.073-.929-2.073-2.074v-1.238h18.225v1.238c-.001 1.144-.929 2.074-2.073 2.074z" fill="#dbc8cc"/><path d="m157.992 183.849h-14.079c-1.145 0-2.073-.928-2.073-2.074 0-1.145.928-2.074 2.073-2.074h14.079c1.145 0 2.073.929 2.073 2.074-.001 1.146-.929 2.074-2.073 2.074z" fill="#f2dade"/><path d="m160.74 94.504-5.591-21.982c-.164-.647-.747-1.1-1.415-1.1h-5.565c-.668 0-1.25.453-1.415 1.1l-5.59 21.982c-.102.554.14 1.115.614 1.421l1.011.653c.225.145.487.222.755.222h14.816c.268 0 .529-.077.755-.222l1.011-.653c.473-.306.715-.866.614-1.421z" fill="#565656"/><path d="m155.223 99.62v54.319c0 .529-.194.947-.438.947h-7.661c-.245 0-.439-.418-.439-.947v-54.319c0-.516.194-.948.439-.948h7.661c.245 0 .438.432.438.948" fill="#ffcd7d"/><path d="m154.785 98.672h-7.661c-.245 0-.439.432-.439.948v1.604h8.538v-.909-.695c0-.516-.193-.948-.438-.948" fill="#e0b46e"/><g fill="#3f3f3f"><path d="m151.282 181.988v-91.752c0-.181-.147-.328-.328-.328s-.328.147-.328.328v91.752c0 .181.147.328.328.328s.328-.146.328-.328"/><path d="m153.252 181.988v-95.2c0-.181-.147-.328-.328-.328s-.328.147-.328.328v95.2c0 .181.147.328.328.328s.328-.146.328-.328"/><path d="m155.221 181.988v-88.496c0-.181-.147-.328-.328-.328s-.328.147-.328.328v88.496c0 .181.147.328.328.328s.328-.146.328-.328"/><path d="m149.314 181.988v-101.186c0-.181-.147-.328-.328-.328s-.328.147-.328.328v101.186c0 .181.147.328.328.328s.328-.146.328-.328"/><path d="m147.345 181.988v-96.428c0-.181-.147-.328-.328-.328s-.328.147-.328.328v96.428c0 .181.147.328.328.328s.328-.146.328-.328"/></g></svg>