<svg xmlns="http://www.w3.org/2000/svg" version="1.0" viewBox="0 0 300 300"><ellipse cx="150" cy="150" fill="#FFF" rx="150" ry="150"/><circle cx="150.002" cy="150" r="140.812" fill="#EB595B"/><path fill="#E59623" d="M196.057 135.577l-1.989 55.98 13.021-3.307 6.731-14.655c7.094-15.438-1.37-33.552-17.763-38.018"/><path fill="#A8A8A8" d="M215.14 86.467l15.446 60.819a1.81 1.81 0 0 1-1.309 2.2L94.029 183.835a1.811 1.811 0 0 1-2.201-1.308l-15.446-60.82a1.81 1.81 0 0 1 1.309-2.2h.001L212.94 85.158a1.81 1.81 0 0 1 2.2 1.309"/><path fill="#EFEFEF" d="M213.102 78.461l15.446 60.819a1.81 1.81 0 0 1-1.309 2.2L91.991 175.829a1.816 1.816 0 0 1-2.2-1.309l-15.446-60.819a1.815 1.815 0 0 1 1.309-2.2l135.248-34.349a1.81 1.81 0 0 1 2.2 1.309"/><path fill="#A8A8A8" d="M148.131 123.988L81.27 140.969l.383 1.51 48.053-12.204a8.903 8.903 0 0 1 3.049-2.078c.41-.17.825-.307 1.24-.412a8.871 8.871 0 0 1 4.909.154l8.985-2.282a8.958 8.958 0 0 1 .242-1.669m27.572-7.003l-12.238 3.108c.377.415.717.867 1.013 1.35l11.821-3.002c-.192-.488-.39-.974-.596-1.456m44.324-11.256l-26.664 6.772c.28.463.555.929.825 1.398l26.223-6.66-.384-1.51m-92.428 33.733l-43.881 11.144.384 1.512 43.754-11.112-.257-1.544m20.452-5.194l-3.036.771.256 1.544 2.814-.715-.034-1.6m30.772-7.816l-12.928 3.283.046 1.597 13.224-3.359a61.74 61.74 0 0 0-.342-1.521m43.651-11.086l-24.422 6.202c.21.482.415.967.615 1.453l24.191-6.144-.384-1.511M78.753 131.113l138.721-35.402.379 1.512-138.687 35.5-.413-1.61z"/><path fill="#FFF" d="M234.721 100.672l-168.77 42.862a1.358 1.358 0 1 1-.668-2.632l168.77-42.862a1.359 1.359 0 0 1 .721 2.619l-.053.013m-7.249 11.315L77.641 150.039a1.359 1.359 0 0 1-.668-2.632l149.832-38.052a1.358 1.358 0 0 1 .667 2.632m-5.701-17.19L71.94 132.849a1.359 1.359 0 0 1-.668-2.632l149.832-38.052a1.358 1.358 0 0 1 .667 2.632"/><path fill="#A8A8A8" d="M117.421 145.99c-.471.12-.928.289-1.363.505-3.255 1.602-4.794 5.58-3.723 9.577l3.098 11.609.848 1.979 17.076-4.337-2.15-2.77-1.453-1.966-2.03-7.63c-1.335-4.98-6.091-8.037-10.303-6.967m27.85-9.407l-17.416 4.423 1.472 8.854 1.671 4.816 3.578 10.338 18.901-4.8-7.168-17.374-1.038-6.257m-.807-3.515l-17.188 4.365c.019.169.042.338.07.507l.253 1.521 17.417-4.423-.007-.043a9.226 9.226 0 0 0-.545-1.927m-5.559-5.13l-9.198 2.336a8.95 8.95 0 0 0-2.288 4.321l15.564-3.953a9.03 9.03 0 0 0-4.078-2.704m-4.909-.154c-.415.105-.83.242-1.24.412a8.903 8.903 0 0 0-3.049 2.078l9.198-2.336a8.88 8.88 0 0 0-4.909-.154"/><path fill="#919090" d="M145.015 135.039l-17.416 4.423.256 1.544 17.416-4.423-.256-1.544"/><path fill="#B7B7B7" d="M142.982 130.643l-15.564 3.953a8.928 8.928 0 0 0-.143 2.838l17.188-4.365a8.83 8.83 0 0 0-1.481-2.426"/><path fill="#A8A8A8" d="M165.941 131.333l-17.856 4.535.053 2.517.965 5.013 6.191 16.353 20.427-5.188-9.708-20.718-.072-2.512m-.107-3.692l-17.828 4.528.045 2.099 17.844-4.532-.061-2.095m-1.355-6.198l-16.589 4.213c-.01.213-.013.427-.008.642l.065 3.083 17.754-4.509a8.872 8.872 0 0 0-1.222-3.429m-2.134-2.39l-13.727 3.486a8.898 8.898 0 0 0-.487 1.448l15.335-3.895a9.11 9.11 0 0 0-1.121-1.039m-7.72-1.622a8.929 8.929 0 0 0-3.306 1.621l7.001-1.778a8.925 8.925 0 0 0-3.695.157"/><path fill="#919090" d="M163.466 120.093l-15.335 3.895a8.946 8.946 0 0 0-.241 1.668l16.589-4.213a9.012 9.012 0 0 0-1.013-1.35m2.429 9.643l-17.844 4.532.034 1.6 17.856-4.535-.046-1.597"/><path fill="#B7B7B7" d="M158.32 117.274l-7.001 1.778a8.98 8.98 0 0 0-2.7 3.488l13.727-3.486a8.966 8.966 0 0 0-4.026-1.78m7.382 7.599l-17.754 4.509.059 2.787 17.828-4.528-.05-1.724a9.354 9.354 0 0 0-.083-1.044"/><path fill="#A8A8A8" d="M198.667 123.022l-19.502 4.953c.211 1 .396 2.005.555 3.016l3.25 21.733 24.324-6.177-7.514-20.65a77.558 77.558 0 0 0-1.113-2.875m-1.468-3.347l-18.884 4.796c.181.657.351 1.318.509 1.981l19.229-4.884a94.402 94.402 0 0 0-.854-1.893m-3.012-5.777l-17.887 4.543c.446 1.13.857 2.272 1.232 3.427l18.441-4.683a76.116 76.116 0 0 0-1.786-3.287m-1.53-2.543l-17.476 4.438c.179.395.353.792.523 1.192l17.659-4.485c-.233-.383-.468-.765-.706-1.145m-14.665-12.507c-4.983 1.266-7.585 6.766-5.4 11.433l1.417 3.008 17.109-4.345-4.198-6.572a8.2 8.2 0 0 0-8.928-3.524"/><path fill="#919090" d="M193.363 112.5l-17.659 4.485c.205.482.405.968.597 1.456l17.887-4.543a98.44 98.44 0 0 0-.825-1.398m-5.757-9.02l-17.652 4.36c.205.482.405.968.597 1.456l17.887-4.543c-.271-.469-.553-.81-.832-1.273m10.446 18.089l-19.229 4.884c.121.506.235 1.014.342 1.522l19.502-4.953c-.2-.486-.405-.971-.615-1.453"/><path fill="#B7B7B7" d="M191.119 108.944l-17.109 4.345.834 1.771c.114.244.227.488.337.733l17.476-4.438a45.21 45.21 0 0 0-.294-.464l-1.244-1.947m4.855 8.24l-18.441 4.683c.28.862.541 1.73.781 2.603l18.884-4.796a83.06 83.06 0 0 0-.751-1.564l-.002-.009-.008.002a78.93 78.93 0 0 0-.463-.919"/><path fill="#FFB031" d="M192.272 122.513a76.359 76.359 0 0 0-3.333-7.783l-.007-.016h-.002a76.102 76.102 0 0 0-4.077-7.213l-5.443-8.511a8.196 8.196 0 0 0-8.923-3.528c-4.991 1.267-7.59 6.769-5.402 11.429l2.246 4.781a58.885 58.885 0 0 1 4.878 15.935l3.765 25.192-.015.021a5.082 5.082 0 0 1-6.241 1.568l-11.211-23.93-.233-7.925c-.123-5.759-5.573-9.905-11.156-8.487a8.954 8.954 0 0 0-6.748 8.87l.258 12.083.966 5.011 7.429 19.634-1.716.436-8.507-20.632-1.304-7.835c-.945-5.682-6.931-9.006-12.254-6.805a8.957 8.957 0 0 0-5.411 9.744l1.983 11.921 1.672 4.822 4.729 13.635-.033.008-4.483-5.768-1.452-1.968-2.038-7.626c-1.477-5.53-7.177-8.69-11.666-6.468-3.248 1.608-4.791 5.58-3.722 9.582l3.1 11.603 2.4 5.607.048.088 20.745 47.412c5.25 11.998 18.412 18.435 31.106 15.211l26.13-6.636c13.287-3.374 21.875-16.243 19.894-29.808l-7.263-49.718-8.709-23.936z"/></svg>