<svg version="1" xmlns="http://www.w3.org/2000/svg" viewBox="0 0 300 300"><path fill="#FFF" d="M149.999 299.999C67.29 299.999 0 232.71 0 150S67.29 0 149.999 0C232.71.001 300 67.29 300 150s-67.29 149.999-150.001 149.999"/><path fill="#FAE040" d="M290.811 150c0 77.768-63.043 140.811-140.811 140.811C72.232 290.812 9.188 227.768 9.188 150S72.232 9.188 150 9.188c77.768 0 140.811 63.044 140.811 140.812"/><path fill="#4C4C4C" d="M178.574 186.362c-2.137-4.002-2.547-8.868-.766-13.066a35.2 35.2 0 0 0 2.783-13.71c.003-3.013 0-9.526 0-9.526s-5.397-1.806-7.091.52c-2.722 3.741-4.716 6.651-10.457 6.651-7.014 0-10.521-8.221-12.354-14.046-.808-2.567-.401-7.346-.401-7.346l-1.468.018s-1.409 13.765-10.636 13.765c-4.005 0-6.298-2.748-7.575-5.858-1.382-3.368-11.199 6.267-11.199 6.267v9.526c0 4.873.99 9.498 2.763 13.656 1.802 4.226 1.416 9.127-.736 13.161-2.133 4-6.85 7.461-6.85 7.461v9.526c.004 20.09 18.145 26.895 35.413 26.895 15.737 0 35.414-6.805 35.414-26.895v-9.526s-4.533-3.152-6.84-7.473zM156.085 84.736c1.656-1.109 2.74-3.067 2.74-5.317 0-1.284-.02-3.924-.02-3.924s-3.745-2.355-5.845-2.355c-2.657 0-4.998 1.796-5.806 4.274l-.022-.018c-2.454 7.415-3.625 11.122-5.958 18.537v2.638c0 1.3.296 2.46 1.334 2.979l1.202.597a4.668 4.668 0 0 0 2.075.485h9.763c.47 0 .849-.407.849-.909v-.594a.55.55 0 0 1 .249-.467c.629-.395.942-.593 1.565-.988.369-.234.493-.684.493-1.164v-3.163a2130.87 2130.87 0 0 0-2.619-10.611"/><path fill="#565656" d="M156.086 81.34c2.052-1.373 3.231-4.051 2.546-6.972-.506-2.154-2.105-3.891-4.145-4.425-3.249-.851-6.37 1.13-7.332 4.075l-.023-.018c-2.414 8.47-3.568 12.705-5.863 21.175-.323 1.191.201 2.46 1.241 2.979l.681.34a7.13 7.13 0 0 0 3.18.742h9.177c.47 0 .849-.407.849-.909v-.594a.55.55 0 0 1 .249-.467c.629-.395.942-.593 1.565-.988.369-.234.559-.697.474-1.153a4075.78 4075.78 0 0 0-2.599-13.785zm22.488 95.496c-2.137-4.002-2.042-8.689-.766-13.066 1.319-4.527 2.779-8.884 2.783-13.71.003-3.014-.909-7.883-4.8-7.883-5.569 0-6.226 5.529-11.536 5.529-7.012 0-11.732-8.221-13.565-14.046-.808-2.567-.401-7.346-.401-7.346l-1.468.018s-1.409 13.765-10.636 13.765c-4.005 0-6.298-2.748-7.575-5.858-1.382-3.368-5.728-3.641-7.346-.397-2.046 4.1-3.853 9.59-3.853 16.189 0 4.873 1.291 9.466 2.763 13.656 1.523 4.335 1.416 9.127-.736 13.161-4.935 9.253-6.85 12.496-6.85 16.987.004 20.09 18.145 26.895 35.413 26.895 15.737 0 35.414-6.805 35.414-26.895-.002-4.491-1.909-7.761-6.841-16.999z"/><path fill="#FFEEF0" d="M150 145.486s8.57 5.586 14.803 5.586c5.596 0 6.989-5.517 9.846-5.517 2.515 0 3.119 2.61 3.119 4.683 0 5.773-4.104 12.538-4.104 19.498 0 6.961 8.315 16.849 8.315 24.325 0 8.419-3.72 13.056-9.412 15.199-10.939 4.118-17.265-16.198-22.567-18.614-4.343-1.978-14.936 6.046-17.936 2.824-6.031-6.478 5.457-17.669 5.457-26.652 0-7.524-7.284-14.026-2.351-19.424 3.847-4.21 14.83-1.908 14.83-1.908z"/><path fill="#DBC8CC" d="M158.49 165.626h-16.981c-.341 0-.617-.301-.617-.673v-9.922c0-.373.276-.674.617-.674h16.981c.341 0 .617.301.617.674v9.922c0 .372-.276.673-.617.673z"/><path fill="#F2DADE" d="M158.49 164.061h-16.981c-.341 0-.617-.301-.617-.674v-9.922c0-.372.276-.674.617-.674h16.981c.341 0 .617.302.617.674v9.922c0 .373-.276.674-.617.674z"/><path fill="#FFCD7D" d="M154.931 101.961v55.549c0 .511-.217.916-.493.916h-8.874c-.277 0-.494-.405-.494-.916v-55.549c0-.499.217-.916.494-.916h8.874c.276 0 .493.417.493.916"/><path fill="#E0B46E" d="M154.437 101.045h-8.874c-.277 0-.494.417-.494.916v3.044h9.862v-3.044c0-.499-.217-.916-.494-.916"/><path fill="#DBC8CC" d="M159.086 195.591h-18.173c-1.425 0-2.569-1.264-2.569-2.824v-2.121h23.312v2.121c0 1.56-1.145 2.824-2.57 2.824zm-1.987-18.157H142.9c-1.115 0-2.007-.979-2.007-2.187v-1.305h18.214v1.305c0 1.207-.892 2.187-2.008 2.187z"/><path fill="#F2DADE" d="M157.099 176.129H142.9c-1.115 0-2.007-.979-2.007-2.187 0-1.207.892-2.185 2.007-2.185h14.199c1.115 0 2.007.978 2.007 2.185.001 1.208-.891 2.187-2.007 2.187zm1.987 17.341h-18.173c-1.425 0-2.569-1.264-2.569-2.824 0-1.559 1.145-2.824 2.569-2.824h18.173c1.425 0 2.57 1.265 2.57 2.824 0 1.56-1.145 2.824-2.57 2.824z"/><circle fill="#DBC8CC" cx="170.036" cy="190.65" r="2.996"/><path fill="#4F4F4F" d="M172.425 190.039v.611a2.39 2.39 0 0 1-4.778 0v-.611c0-.468.135-.905.37-1.274h.556a2.372 2.372 0 0 1 2.924 0h.558c.237.369.37.806.37 1.274z"/><path fill="#686868" d="M172.425 190.039a2.39 2.39 0 0 1-4.778 0c0-.468.135-.905.37-1.274a2.383 2.383 0 0 1 2.019-1.115c.851 0 1.6.446 2.02 1.115.236.369.369.806.369 1.274z"/><circle fill="#DBC8CC" cx="167.04" cy="182.42" r="2.996"/><path fill="#4F4F4F" d="M169.43 181.808v.611a2.39 2.39 0 0 1-4.778 0v-.611c0-.468.133-.905.369-1.274h.558a2.372 2.372 0 0 1 2.923 0h.558c.235.369.37.807.37 1.274z"/><path fill="#686868" d="M169.43 181.808a2.39 2.39 0 1 1-4.779-.001 2.39 2.39 0 0 1 4.779.001z"/><circle fill="#DBC8CC" cx="173.033" cy="198.879" r="2.996"/><path fill="#4F4F4F" d="M175.421 198.266v.613a2.39 2.39 0 0 1-4.777 0v-.613c0-.468.133-.904.369-1.274h.558a2.368 2.368 0 0 1 1.462-.502c.55 0 1.057.187 1.461.502h.558c.236.371.369.806.369 1.274z"/><path fill="#686868" d="M175.421 198.266a2.39 2.39 0 1 1-4.779 0 2.39 2.39 0 0 1 4.779 0z"/><path fill="#3F3F3F" d="M150.492 190.646V87.577a.492.492 0 1 0-.984 0v103.069a.492.492 0 1 0 .984 0z"/></svg>