<?xml version="1.0" encoding="utf-8"?>
<!-- Generator: Adobe Illustrator 23.0.0, SVG Export Plug-In . SVG Version: 6.00 Build 0)  -->
<svg version="1.0" id="Camada_1" xmlns="http://www.w3.org/2000/svg" xmlns:xlink="http://www.w3.org/1999/xlink" x="0px" y="0px"
	 viewBox="0 0 300 300" enable-background="new 0 0 300 300" xml:space="preserve">
<g>
	<ellipse fill="#FFFFFF" cx="150" cy="150" rx="150" ry="150"/>
	<circle fill="#EB595B" cx="150.002" cy="150" r="140.812"/>
	<path fill="#E59623" d="M196.057,135.577l-1.989,55.98l13.021-3.307l6.731-14.655C220.914,158.157,212.45,140.043,196.057,135.577"
		/>
	<path fill="#A8A8A8" d="M215.14,86.467l15.446,60.819c0.246,0.969-0.34,1.954-1.309,2.2c0,0,0,0,0,0L94.029,183.835
		c-0.969,0.246-1.954-0.339-2.201-1.308l-15.446-60.82c-0.246-0.969,0.34-1.954,1.309-2.2c0,0,0.001,0,0.001,0L212.94,85.158
		C213.909,84.912,214.894,85.498,215.14,86.467C215.14,86.467,215.14,86.467,215.14,86.467"/>
	<path fill="#EFEFEF" d="M213.102,78.461l15.446,60.819c0.246,0.969-0.34,1.954-1.309,2.2c0,0,0,0,0,0L91.991,175.829
		c-0.968,0.243-1.951-0.342-2.2-1.309l-15.446-60.819c-0.243-0.969,0.342-1.952,1.309-2.2l135.248-34.349
		C211.871,76.906,212.855,77.492,213.102,78.461C213.102,78.461,213.102,78.461,213.102,78.461"/>
	<path fill="#A8A8A8" d="M148.131,123.988L81.27,140.969l0.383,1.51l48.053-12.204c0.86-0.898,1.899-1.606,3.049-2.078
		c0.41-0.17,0.825-0.307,1.24-0.412c1.618-0.412,3.32-0.358,4.909,0.154l8.985-2.282
		C147.917,125.094,147.998,124.536,148.131,123.988 M175.703,116.985l-12.238,3.108c0.377,0.415,0.717,0.867,1.013,1.35
		l11.821-3.002C176.107,117.953,175.909,117.467,175.703,116.985 M220.027,105.729l-26.664,6.772
		c0.28,0.463,0.555,0.929,0.825,1.398l26.223-6.66L220.027,105.729 M127.599,139.462l-43.881,11.144l0.384,1.512l43.754-11.112
		L127.599,139.462 M148.051,134.268l-3.036,0.771l0.256,1.544l2.814-0.715L148.051,134.268 M178.823,126.452l-12.928,3.283
		l0.046,1.597l13.224-3.359C179.058,127.465,178.943,126.958,178.823,126.452 M222.474,115.366l-24.422,6.202
		c0.21,0.482,0.415,0.967,0.615,1.453l24.191-6.144L222.474,115.366 M78.753,131.113l138.721-35.402l0.379,1.512l-138.687,35.5
		L78.753,131.113z"/>
	<path fill="#FFFFFF" d="M234.721,100.672l-168.77,42.862c-0.727,0.184-1.466-0.255-1.65-0.982c-0.184-0.727,0.255-1.466,0.982-1.65
		l0,0l168.77-42.862c0.723-0.199,1.471,0.226,1.67,0.949c0.199,0.723-0.226,1.471-0.949,1.67
		C234.756,100.664,234.738,100.668,234.721,100.672 M227.472,111.987L77.641,150.039c-0.735,0.153-1.454-0.319-1.607-1.054
		c-0.144-0.69,0.264-1.376,0.939-1.578l149.832-38.052c0.727-0.184,1.465,0.256,1.65,0.982S228.199,111.803,227.472,111.987
		 M221.771,94.797L71.94,132.849c-0.735,0.153-1.454-0.319-1.607-1.054c-0.144-0.69,0.264-1.376,0.939-1.578l149.832-38.052
		c0.727-0.184,1.465,0.256,1.65,0.982S222.498,94.613,221.771,94.797"/>
	<path fill="#A8A8A8" d="M117.421,145.99c-0.471,0.12-0.928,0.289-1.363,0.505c-3.255,1.602-4.794,5.58-3.723,9.577l3.098,11.609
		l0.848,1.979l17.076-4.337l-2.15-2.77l-1.453-1.966l-2.03-7.63C126.389,147.977,121.633,144.92,117.421,145.99 M145.271,136.583
		l-17.416,4.423l1.472,8.854l1.671,4.816l3.578,10.338l18.901-4.8l-7.168-17.374L145.271,136.583 M144.464,133.068l-17.188,4.365
		c0.019,0.169,0.042,0.338,0.07,0.507l0.253,1.521l17.417-4.423l-0.007-0.043C144.898,134.335,144.715,133.689,144.464,133.068
		 M138.905,127.938l-9.198,2.336c-1.149,1.2-1.941,2.696-2.288,4.321l15.564-3.953C141.898,129.382,140.487,128.447,138.905,127.938
		 M133.996,127.784c-0.415,0.105-0.83,0.242-1.24,0.412c-1.15,0.472-2.189,1.18-3.049,2.078l9.198-2.336
		C137.315,127.426,135.614,127.373,133.996,127.784"/>
	<path fill="#919090" d="M145.015,135.039l-17.416,4.423l0.256,1.544l17.416-4.423L145.015,135.039"/>
	<path fill="#B7B7B7" d="M142.982,130.643l-15.564,3.953c-0.199,0.932-0.247,1.89-0.143,2.838l17.188-4.365
		C144.104,132.186,143.603,131.366,142.982,130.643"/>
	<path fill="#A8A8A8" d="M165.941,131.333l-17.856,4.535l0.053,2.517l0.965,5.013l6.191,16.353l20.427-5.188l-9.708-20.718
		L165.941,131.333 M165.834,127.641l-17.828,4.528l0.045,2.099l17.844-4.532L165.834,127.641 M164.479,121.443l-16.589,4.213
		c-0.01,0.213-0.013,0.427-0.008,0.642l0.065,3.083l17.754-4.509C165.535,123.657,165.119,122.489,164.479,121.443 M162.345,119.053
		l-13.727,3.486c-0.204,0.468-0.366,0.952-0.487,1.448l15.335-3.895C163.122,119.715,162.747,119.367,162.345,119.053
		 M154.625,117.431c-1.203,0.305-2.329,0.857-3.306,1.621l7.001-1.778C157.091,117.068,155.832,117.121,154.625,117.431"/>
	<path fill="#919090" d="M163.466,120.093l-15.335,3.895c-0.133,0.547-0.213,1.106-0.241,1.668l16.589-4.213
		C164.184,120.962,163.845,120.51,163.466,120.093 M165.895,129.736l-17.844,4.532l0.034,1.6l17.856-4.535L165.895,129.736"/>
	<path fill="#B7B7B7" d="M158.32,117.274l-7.001,1.778c-1.176,0.92-2.104,2.119-2.7,3.488l13.727-3.486
		C161.173,118.135,159.789,117.524,158.32,117.274 M165.702,124.873l-17.754,4.509l0.059,2.787l17.828-4.528l-0.05-1.724
		C165.777,125.568,165.749,125.219,165.702,124.873"/>
	<path fill="#A8A8A8" d="M198.667,123.022l-19.502,4.953c0.211,1,0.396,2.005,0.555,3.016l3.25,21.733l24.324-6.177l-7.514-20.65
		C199.428,124.931,199.057,123.973,198.667,123.022 M197.199,119.675l-18.884,4.796c0.181,0.657,0.351,1.318,0.509,1.981
		l19.229-4.884C197.775,120.934,197.491,120.303,197.199,119.675 M194.187,113.898l-17.887,4.543
		c0.446,1.13,0.857,2.272,1.232,3.427l18.441-4.683C195.405,116.075,194.809,114.979,194.187,113.898 M192.657,111.355
		l-17.476,4.438c0.179,0.395,0.353,0.792,0.523,1.192l17.659-4.485C193.13,112.117,192.895,111.735,192.657,111.355 M177.992,98.848
		c-4.983,1.266-7.585,6.766-5.4,11.433l1.417,3.008l17.109-4.345l-4.198-6.572C185.014,99.396,181.416,97.976,177.992,98.848"/>
	<path fill="#919090" d="M193.363,112.5l-17.659,4.485c0.205,0.482,0.405,0.968,0.597,1.456l17.887-4.543
		C193.917,113.43,193.642,112.964,193.363,112.5 M187.606,103.48l-17.652,4.36c0.205,0.482,0.405,0.968,0.597,1.456l17.887-4.543
		C188.167,104.284,187.885,103.943,187.606,103.48 M198.052,121.569l-19.229,4.884c0.121,0.506,0.235,1.014,0.342,1.522
		l19.502-4.953C198.467,122.536,198.262,122.051,198.052,121.569"/>
	<path fill="#B7B7B7" d="M191.119,108.944l-17.109,4.345l0.834,1.771c0.114,0.244,0.227,0.488,0.337,0.733l17.476-4.438
		c-0.097-0.155-0.195-0.31-0.294-0.464L191.119,108.944 M195.974,117.184l-18.441,4.683c0.28,0.862,0.541,1.73,0.781,2.603
		l18.884-4.796c-0.245-0.524-0.495-1.045-0.751-1.564l-0.002-0.009l-0.008,0.002C196.285,117.796,196.13,117.489,195.974,117.184"/>
	<path fill="#FFB031" d="M192.272,122.513c-0.966-2.654-2.079-5.252-3.333-7.783l-0.007-0.016h-0.002
		c-1.227-2.477-2.588-4.884-4.077-7.213l-5.443-8.511c-1.903-2.976-5.499-4.398-8.923-3.528c-4.991,1.267-7.59,6.769-5.402,11.429
		l2.246,4.781c2.373,5.054,4.016,10.419,4.878,15.935l3.765,25.192l-0.015,0.021c-1.442,1.941-4.053,2.597-6.241,1.568
		l-11.211-23.93l-0.233-7.925c-0.123-5.759-5.573-9.905-11.156-8.487c-4.04,1.026-6.837,4.703-6.748,8.87l0.258,12.083l0.966,5.011
		l7.429,19.634l-1.716,0.436l-8.507-20.632l-1.304-7.835c-0.945-5.682-6.931-9.006-12.254-6.805
		c-3.851,1.593-6.094,5.633-5.411,9.744l1.983,11.921l1.672,4.822l4.729,13.635l-0.033,0.008l-4.483-5.768l-1.452-1.968
		l-2.038-7.626c-1.477-5.53-7.177-8.69-11.666-6.468c-3.248,1.608-4.791,5.58-3.722,9.582l3.1,11.603l2.4,5.607l0.048,0.088
		l20.745,47.412c5.25,11.998,18.412,18.435,31.106,15.211l26.13-6.636c13.287-3.374,21.875-16.243,19.894-29.808l-7.263-49.718
		L192.272,122.513L192.272,122.513z"/>
</g>
</svg>
