<svg version="1" xmlns="http://www.w3.org/2000/svg" viewBox="0 0 300 300"><path fill="#FFF" d="M150 300C67.29 300 0 232.71 0 150S67.29 0 150 0s150 67.29 150 150-67.29 150-150 150z"/><circle fill="#EB595B" cx="150" cy="150" r="140.812"/><path fill="#3F3F3F" d="M210.44 222.454H89.558a7.524 7.524 0 0 1-7.524-7.524v-71.388a3.505 3.505 0 0 1 3.505-3.505h128.916a3.505 3.505 0 0 1 3.505 3.505v71.388a7.523 7.523 0 0 1-7.522 7.524"/><path fill="#494949" d="M217.966 143.544v63.602a7.52 7.52 0 0 1-7.524 7.524H89.562a7.514 7.514 0 0 1-7.524-7.524v-63.602a3.504 3.504 0 0 1 3.496-3.51h128.922a3.507 3.507 0 0 1 3.51 3.51"/><path fill="#3D3D3D" d="M100.263 160.498h99.47v61.956h-99.47v-61.956"/><path fill="#E2E2E2" d="M115.582 230.217h-15.26a5.15 5.15 0 0 1-5.15-5.15v-64.57h25.56v64.57a5.15 5.15 0 0 1-5.15 5.15"/><path fill="#FFF" d="M115.582 222.454h-15.26a5.15 5.15 0 0 1-5.15-5.15V160.5h25.56v56.805a5.15 5.15 0 0 1-5.15 5.15"/><path fill="#E2E2E2" d="M143.614 230.217h-15.26a5.15 5.15 0 0 1-5.15-5.15v-64.57h25.56v64.57a5.15 5.15 0 0 1-5.15 5.15"/><path fill="#FFF" d="M143.614 222.454h-15.26a5.15 5.15 0 0 1-5.15-5.15V160.5h25.56v56.805a5.15 5.15 0 0 1-5.15 5.15"/><path fill="#E2E2E2" d="M171.645 230.217h-15.26a5.15 5.15 0 0 1-5.15-5.15v-64.57h25.56v64.57a5.15 5.15 0 0 1-5.15 5.15"/><path fill="#FFF" d="M171.645 222.454h-15.26a5.15 5.15 0 0 1-5.15-5.15V160.5h25.56v56.805a5.15 5.15 0 0 1-5.15 5.15"/><path fill="#E2E2E2" d="M199.676 230.217h-15.26a5.15 5.15 0 0 1-5.15-5.15v-64.57h25.56v64.57a5.15 5.15 0 0 1-5.15 5.15"/><path fill="#FFF" d="M199.676 222.454h-15.26a5.15 5.15 0 0 1-5.15-5.15V160.5h25.56v56.805a5.15 5.15 0 0 1-5.15 5.15"/><path fill="#4C4C4C" d="M125.052 201.278h-6.17a3.772 3.772 0 0 1-3.772-3.772v-26.802h13.714v26.802a3.772 3.772 0 0 1-3.772 3.772z"/><path fill="#565656" d="M125.052 193.514h-6.17a3.772 3.772 0 0 1-3.772-3.772v-29.244h13.714v29.244a3.77 3.77 0 0 1-3.772 3.772"/><path fill="#4C4C4C" d="M153.084 201.278h-6.17a3.772 3.772 0 0 1-3.772-3.772v-26.802h13.714v26.802a3.773 3.773 0 0 1-3.772 3.772z"/><path fill="#565656" d="M153.084 193.514h-6.17a3.772 3.772 0 0 1-3.772-3.772v-29.244h13.714v29.244a3.772 3.772 0 0 1-3.772 3.772"/><path fill="#424242" d="M214.457 140.035H85.535a3.504 3.504 0 0 0-3.496 3.51v22.83h13.13V160.5h109.653v5.876h13.14v-22.832a3.506 3.506 0 0 0-3.51-3.51"/><path fill="#373737" d="M179.265 160.498h-2.47v5.877h2.47v-5.877"/><path fill="#E5E5E5" d="M115.11 160.498H95.173v5.877h19.94v-5.877m28.03 0h-14.318v5.877h14.318v-5.877m33.652 0h-19.94v5.877h19.94v-5.877m28.032 0h-25.56v5.877h25.56v-5.877"/><path fill="#4D4D4D" d="M128.824 160.498H115.11v5.877h13.714v-5.877m28.03 0h-13.712v5.877h13.713v-5.877"/><path fill="#353535" d="M217.966 122.818v37.68H82.038v-37.68a3.504 3.504 0 0 1 3.497-3.51h128.922a3.506 3.506 0 0 1 3.51 3.51z"/><path fill="#282828" d="M204.825 129.297v21.213a2.695 2.695 0 0 1-2.695 2.695H97.874a2.695 2.695 0 0 1-2.695-2.695v-21.213a2.695 2.695 0 0 1 2.692-2.695H202.13a2.696 2.696 0 0 1 2.695 2.695z"/><path fill="#494949" d="M89.09 142.54v-22.122c.68-13.385 14.07-21.357 26.272-21.752 4.396-.142 7.972-4.037 13.14-10.865 10.01-13.23 23.717-26.113 40.89-28.286 29.853-3.778 48.698 24.383 48.575 51.522V160.5L89.09 142.537z"/></svg>
