<svg xmlns="http://www.w3.org/2000/svg" version="1.0" viewBox="0 0 300 300"><path fill="#FFF" d="M255.984 43.92a150.178 150.178 0 0114.41 16.705 149.643 149.643 0 0111.804 18.639 149.555 149.555 0 016.292 13.303 150.09 150.09 0 018.534 28.13 149.462 149.462 0 012.159 14.557 150.456 150.456 0 01.541 22.056 150.069 150.069 0 01-2.7 21.897 149.187 149.187 0 01-3.576 14.274 149.517 149.517 0 01-4.958 13.856 149.36 149.36 0 01-6.292 13.303A149.955 149.955 0 011.622 171.955 150.582 150.582 0 01.18 157.31a150.486 150.486 0 01.001-14.716 150.069 150.069 0 012.7-21.897 149.187 149.187 0 013.576-14.274 149.517 149.517 0 014.958-13.856 149.36 149.36 0 016.292-13.303 149.955 149.955 0 01215.555-53.991 149.959 149.959 0 0122.722 18.647z"/><path fill="#5EC2D7" d="M290.722 149.952a140.785 140.785 0 01-80.583 127.252 141.575 141.575 0 01-12.762 5.287 140.778 140.778 0 01-68.079 6.705 141.34 141.34 0 01-13.549-2.695A140.778 140.778 0 019.862 163.749a140.508 140.508 0 01-.678-13.798 140.785 140.785 0 0116.622-66.358 139.945 139.945 0 017.102-11.849 141.278 141.278 0 018.229-11.096 140.286 140.286 0 019.277-10.236 140.62 140.62 0 0121.332-17.506 140.565 140.565 0 0118.021-10.208 141.575 141.575 0 0112.762-5.287 140.778 140.778 0 0168.079-6.705 141.086 141.086 0 0113.548 2.695 140.778 140.778 0 01103.859 109.087 141.34 141.34 0 012.027 13.665c.226 2.293.395 4.59.508 6.891s.172 4.604.172 6.908z"/><path fill="#FFE5BB" d="M82.937 220.054c-4.051-4.051-4.051-10.62 0-14.67L205.992 82.328c4.051-4.051 18.882-18.314 22.934-14.263 4.051 4.051-4.212 24.882-8.262 28.934L97.607 220.054c-4.051 4.052-10.62 4.052-14.67 0z"/><path fill="#FFEDD4" d="M228.928 67.551c-4.051-4.051-18.882 10.212-22.934 14.263L82.939 204.87c-4.051 4.051-4.051 10.62 0 14.67L229.972 72.507c.155-2.252-.126-4.038-1.044-4.956z"/><path fill="#FCD4A4" d="M103.089 215.263c0 8.158-8.76 17.73-16.919 17.73s-15.183-9.572-15.183-17.73c0-8.158 9.172-14.772 17.331-14.772s14.771 6.614 14.771 14.772z"/><path fill="#FFC477" d="M99.438 218.297a14.902 14.902 0 01-.284 2.882 14.74 14.74 0 01-3.069 6.489 14.785 14.785 0 01-5.766 4.277 14.675 14.675 0 01-2.771.84 14.886 14.886 0 01-4.33.213 14.74 14.74 0 01-7.923-3.282 14.785 14.785 0 01-4.277-5.766 14.675 14.675 0 01-.84-2.771 14.902 14.902 0 01-.213-4.33 14.74 14.74 0 013.282-7.923 14.785 14.785 0 015.766-4.277 14.675 14.675 0 012.771-.84 14.886 14.886 0 014.33-.213 14.74 14.74 0 017.923 3.282 14.785 14.785 0 014.277 5.766 14.675 14.675 0 01.84 2.771 14.917 14.917 0 01.284 2.882z"/><path fill="#606060" d="M93.557 218.297a8.23 8.23 0 01-2.408 5.813 8.195 8.195 0 01-2.667 1.782 8.235 8.235 0 01-4.75.468 8.162 8.162 0 01-2.963-1.228 8.255 8.255 0 01-2.268-2.268 8.254 8.254 0 01-1.228-2.963 8.222 8.222 0 1116.284-1.604z"/><path fill="#FCD4A4" d="M138.788 179.527a15.217 15.217 0 01-3.461 9.671 15.298 15.298 0 01-4.599 3.774 15.307 15.307 0 01-4.212 1.508 15.394 15.394 0 01-2.974.293 15.217 15.217 0 01-9.671-3.461 15.298 15.298 0 01-3.774-4.599 15.307 15.307 0 01-1.508-4.212 15.394 15.394 0 01-.293-2.974 15.217 15.217 0 013.461-9.671 15.298 15.298 0 014.599-3.774 15.307 15.307 0 012.761-1.144 15.156 15.156 0 012.931-.583 15.217 15.217 0 014.468.22 15.383 15.383 0 012.86.867 15.268 15.268 0 016.842 5.616 15.268 15.268 0 012.57 8.469z"/><path fill="#FFC477" d="M137.56 180.756a15.217 15.217 0 01-3.461 9.671 15.298 15.298 0 01-3.316 3.005 15.268 15.268 0 01-8.469 2.57 15.217 15.217 0 01-9.671-3.461 15.298 15.298 0 01-3.774-4.599 15.307 15.307 0 01-1.508-4.212 15.083 15.083 0 01-.292-2.974 15.217 15.217 0 012.569-8.469 15.114 15.114 0 011.896-2.311 15.298 15.298 0 013.594-2.665 15.307 15.307 0 012.761-1.144 15.156 15.156 0 012.931-.583 15.217 15.217 0 014.468.22 15.383 15.383 0 012.86.867 15.268 15.268 0 016.842 5.616 15.268 15.268 0 012.57 8.469z"/><path fill="#FFE5BB" d="M102.801 200.394l-.452-.452c-3.979-3.979-3.979-10.489 0-14.466l11.924-11.924c3.979-3.979 10.489-3.979 14.466 0l.452.452c3.979 3.979 3.979 10.489 0 14.466l-11.924 11.924c-3.978 3.979-10.488 3.979-14.466 0z"/><path fill="#FFEDD4" d="M128.754 173.566c-3.979-3.979-10.489-3.979-14.466 0l-11.923 11.923c-3.979 3.979-3.979 10.489 0 14.466l.094.094 26.391-26.391-.096-.092z"/><path fill="#FCD4A4" d="M213.462 102.515a13.033 13.033 0 01-.248 2.518 12.688 12.688 0 01-.735 2.422 12.73 12.73 0 01-1.193 2.231 12.68 12.68 0 01-1.606 1.955 13.054 13.054 0 01-1.956 1.606 12.831 12.831 0 01-2.231 1.193 12.924 12.924 0 01-6.205.921 12.688 12.688 0 01-3.675-.921 12.73 12.73 0 01-2.231-1.193 12.822 12.822 0 01-2.807-2.544 12.831 12.831 0 01-1.948-3.248 12.924 12.924 0 01-.921-6.205 12.986 12.986 0 011.463-4.82 12.675 12.675 0 011.406-2.103 13.054 13.054 0 012.807-2.545 12.831 12.831 0 012.231-1.193 12.924 12.924 0 016.205-.921 12.688 12.688 0 013.675.921 12.73 12.73 0 012.231 1.193c.352.235.691.486 1.017.755a13.255 13.255 0 011.789 1.789 12.831 12.831 0 011.948 3.248 12.924 12.924 0 01.984 4.941z"/><path fill="#FFC477" d="M212.293 103.683a13.033 13.033 0 01-.248 2.518 12.688 12.688 0 01-.735 2.422 12.73 12.73 0 01-1.193 2.231 12.822 12.822 0 01-2.544 2.807 12.831 12.831 0 01-3.248 1.948 12.924 12.924 0 01-6.205.921 12.688 12.688 0 01-3.675-.921 12.73 12.73 0 01-2.231-1.193 12.822 12.822 0 01-2.807-2.545 12.831 12.831 0 01-1.948-3.248 12.924 12.924 0 01-.921-6.205 12.688 12.688 0 01.921-3.675 12.73 12.73 0 011.193-2.231c.235-.351.486-.691.755-1.017s.552-.64.851-.939a13.054 13.054 0 011.956-1.606 12.831 12.831 0 012.231-1.193 12.924 12.924 0 016.205-.921 12.688 12.688 0 013.675.921 12.73 12.73 0 012.231 1.193 12.822 12.822 0 012.807 2.545 12.831 12.831 0 011.948 3.248 12.924 12.924 0 01.982 4.94z"/><path fill="#FFE5BB" d="M179.956 123.238l-.452-.452c-3.979-3.979-3.979-10.489 0-14.466l11.924-11.924c3.979-3.979 10.489-3.979 14.466 0l.452.452c3.979 3.979 3.979 10.489 0 14.466l-11.924 11.924c-3.978 3.979-10.488 3.979-14.466 0z"/><path fill="#FFEDD4" d="M205.909 96.412c-3.979-3.979-10.489-3.979-14.466 0l-11.923 11.923c-3.979 3.979-3.979 10.489 0 14.466l.094.094 26.391-26.391-.096-.092z"/><path fill="#FCD4A4" d="M192.049 123.928a13.033 13.033 0 01-.248 2.518 12.688 12.688 0 01-.735 2.422 12.73 12.73 0 01-1.193 2.231c-.235.352-.486.691-.755 1.017a13.054 13.054 0 01-2.807 2.544 12.831 12.831 0 01-2.231 1.193 12.924 12.924 0 01-6.205.921 12.688 12.688 0 01-3.675-.921 12.73 12.73 0 01-2.231-1.193 12.822 12.822 0 01-2.807-2.545 12.831 12.831 0 01-1.948-3.248 12.924 12.924 0 01-.921-6.205 12.688 12.688 0 01.921-3.675 12.73 12.73 0 011.193-2.231 12.822 12.822 0 012.545-2.807 12.831 12.831 0 013.248-1.948 12.924 12.924 0 016.205-.921 12.688 12.688 0 013.675.921 12.73 12.73 0 012.231 1.193 12.68 12.68 0 011.955 1.606 13.054 13.054 0 011.606 1.956 12.991 12.991 0 011.62 3.424 12.986 12.986 0 01.557 3.748z"/><path fill="#FFC477" d="M191.008 124.969a13.033 13.033 0 01-.248 2.518 12.688 12.688 0 01-.735 2.422 12.73 12.73 0 01-1.193 2.231 12.822 12.822 0 01-2.544 2.807 12.831 12.831 0 01-3.248 1.948 12.924 12.924 0 01-6.205.921 12.688 12.688 0 01-3.675-.921 12.73 12.73 0 01-2.231-1.193 12.822 12.822 0 01-2.807-2.545 12.831 12.831 0 01-1.948-3.248 12.924 12.924 0 01-.921-6.205 12.688 12.688 0 01.921-3.675 12.73 12.73 0 011.193-2.231 12.822 12.822 0 012.545-2.807 12.991 12.991 0 014.441-2.375 12.986 12.986 0 012.482-.494 13.033 13.033 0 012.53 0 12.688 12.688 0 013.675.921 12.73 12.73 0 012.231 1.193 12.68 12.68 0 011.955 1.606 13.054 13.054 0 011.606 1.956 12.831 12.831 0 011.193 2.231 12.924 12.924 0 01.983 4.94z"/><path fill="#FFE5BB" d="M158.618 144.577l-.452-.452c-3.979-3.979-3.979-10.489 0-14.466l11.924-11.924c3.979-3.979 10.489-3.979 14.466 0l.452.452c3.979 3.979 3.979 10.489 0 14.466l-11.924 11.924c-3.977 3.978-10.488 3.978-14.466 0z"/><path fill="#FFEDD4" d="M184.571 117.749c-3.979-3.979-10.489-3.979-14.466 0l-11.923 11.923c-3.979 3.979-3.979 10.489 0 14.466l.094.094 26.391-26.391-.096-.092z"/><path fill="#606060" d="M155.235 140.536a2.565 2.565 0 01-1.588 2.377 2.55 2.55 0 01-.984.195 2.602 2.602 0 01-1.429-.433 2.594 2.594 0 01-.948-1.155 2.55 2.55 0 01-.195-.984 2.565 2.565 0 011.588-2.377 2.55 2.55 0 01.984-.195 2.565 2.565 0 012.377 1.588 2.55 2.55 0 01.195.984zm-24.15 20.958a1.475 1.475 0 01-.434 1.047 1.466 1.466 0 01-1.047.434 1.475 1.475 0 01-1.047-.434 1.466 1.466 0 01-.434-1.047 1.475 1.475 0 01.434-1.047 1.466 1.466 0 011.047-.434 1.475 1.475 0 011.047.434 1.466 1.466 0 01.434 1.047zm2.448 1.633a.815.815 0 11-1.63 0 .815.815 0 011.63 0zm-17.911 14.338a1.475 1.475 0 01-.434 1.047 1.466 1.466 0 01-1.047.434 1.475 1.475 0 01-1.047-.434 1.466 1.466 0 01-.434-1.047 1.475 1.475 0 01.434-1.047 1.466 1.466 0 011.047-.434 1.475 1.475 0 011.047.434 1.466 1.466 0 01.434 1.047zm2.781 1.246a.815.815 0 11-1.63 0 .815.815 0 011.63 0zm73.188-73.997c-2.225-1.411-4.6-2.014-6.685-1.812a14.424 14.424 0 011.758-1.37c.136-.263.273-.524.411-.781 2.193-.173 4.526.435 6.577 1.822a36.466 36.466 0 00-2.061 2.141z"/><path fill="#606060" d="M186.267 102.515l-1.361.378 2.142-2.143h.067l.662.73z"/></svg>