<svg xmlns="http://www.w3.org/2000/svg" version="1.0" viewBox="0 0 300 300"><path fill="#FFF" d="M256.065 43.933a150.293 150.293 0 0114.416 16.711 150.754 150.754 0 018.178 12.239 150.046 150.046 0 0118.459 47.853c.479 2.408.898 4.826 1.259 7.254a150.245 150.245 0 011.624 22.009 149.295 149.295 0 01-.723 14.702 150.663 150.663 0 01-2.16 14.561 150.794 150.794 0 01-3.577 14.28 149.607 149.607 0 01-4.96 13.86 150.083 150.083 0 01-22.631 37.756 149.029 149.029 0 01-9.886 10.907 150.293 150.293 0 01-16.711 14.416 150.754 150.754 0 01-12.239 8.178 150.046 150.046 0 01-47.852 18.459 150.778 150.778 0 01-14.561 2.16 150.245 150.245 0 01-14.702.723 149.295 149.295 0 01-14.702-.723 150.663 150.663 0 01-14.561-2.16 150.48 150.48 0 01-14.279-3.577 149.469 149.469 0 01-20.591-7.943 150.761 150.761 0 01-12.982-6.939 149.407 149.407 0 01-12.239-8.178 149.097 149.097 0 01-5.804-4.53 149.029 149.029 0 01-10.907-9.886 150.293 150.293 0 01-14.416-16.711 150.754 150.754 0 01-8.178-12.239 150.046 150.046 0 01-18.459-47.852A149.427 149.427 0 01.179 157.36a150.608 150.608 0 01.001-14.721 150.663 150.663 0 012.702-21.903 150.48 150.48 0 013.577-14.279 149.469 149.469 0 017.943-20.591 150.761 150.761 0 016.939-12.982 149.407 149.407 0 018.178-12.239 149.097 149.097 0 014.53-5.804 149.029 149.029 0 019.886-10.907 150.293 150.293 0 0116.711-14.416 150.754 150.754 0 0112.239-8.178 150.046 150.046 0 0147.853-18.459 149.761 149.761 0 0129.261-2.882 149.295 149.295 0 0114.702.723 150.663 150.663 0 0114.561 2.16 150.48 150.48 0 0114.279 3.577 149.469 149.469 0 0120.591 7.943 150.761 150.761 0 0112.982 6.939 149.407 149.407 0 0112.239 8.178 149.097 149.097 0 015.804 4.53 149.029 149.029 0 015.575 4.809 147.642 147.642 0 015.333 5.075z"/><path fill="#5EC2D7" d="M290.815 150a140.836 140.836 0 01-68.421 120.781 141.114 141.114 0 01-12.188 6.514 140.69 140.69 0 01-32.735 10.813 141.214 141.214 0 01-13.669 2.028 140.498 140.498 0 01-13.802.678 140.836 140.836 0 01-120.781-68.421 141.114 141.114 0 01-6.514-12.188 141.158 141.158 0 01-5.288-12.766 141.08 141.08 0 01-5.525-19.968 141.214 141.214 0 01-2.028-13.669A140.498 140.498 0 019.186 150 140.836 140.836 0 0177.607 29.219a141.114 141.114 0 0112.187-6.514 140.69 140.69 0 0132.735-10.813 141.214 141.214 0 0113.669-2.028A140.498 140.498 0 01150 9.186a140.836 140.836 0 01120.781 68.421 141.114 141.114 0 016.514 12.188 141.158 141.158 0 015.288 12.766 141.08 141.08 0 015.525 19.968 141.214 141.214 0 012.028 13.669 140.867 140.867 0 01.679 13.802z"/><path fill="#FFF" d="M194.433 99.749v100.502c0 2.92-2.359 5.29-5.29 5.29h-78.286c-2.92 0-5.29-2.37-5.29-5.29V99.749c0-1.047.307-2.031.836-2.846a5.262 5.262 0 014.454-2.444h78.286a5.28 5.28 0 015.29 5.29z"/><path fill="#EDEDED" d="M186.996 191.255h-73.982a1.588 1.588 0 010-3.174h73.982a1.588 1.588 0 010 3.174zm0-26.448h-73.982a1.588 1.588 0 010-3.174h73.982a1.588 1.588 0 010 3.174zm0-26.448h-73.982a1.588 1.588 0 010-3.174h73.982a1.588 1.588 0 010 3.174zm0-26.448h-73.982a1.588 1.588 0 010-3.174h73.982a1.588 1.588 0 010 3.174zm0 8.463h-73.982a.53.53 0 010-1.058h73.982a.53.53 0 010 1.058zm0 7.406h-73.982a.53.53 0 010-1.058h73.982a.53.53 0 010 1.058zm0 19.042h-73.982a.53.53 0 010-1.058h73.982a.53.53 0 010 1.058zm0 7.406h-73.982a.53.53 0 010-1.058h73.982a.53.53 0 010 1.058zm0 19.042h-73.982a.53.53 0 010-1.058h73.982a.53.53 0 010 1.058zm0 7.406h-73.982a.53.53 0 010-1.058h73.982a.53.53 0 010 1.058z"/><path fill="#E2E2E2" d="M228.312 71.693L71.695 228.309c-1.869-1.869-1.875-4.923-.005-6.792L221.515 71.693a4.819 4.819 0 016.797 0z"/><path fill="#A8A8A8" d="M228.306 78.484L78.481 228.309a4.812 4.812 0 01-6.786 0L228.312 71.693a4.788 4.788 0 011.398 3.393 4.804 4.804 0 01-1.404 3.398z"/><ellipse cx="73.552" cy="226.615" fill="#606060" rx="2.054" ry="3.192" transform="rotate(-49.286 73.55 226.608)"/><circle cx="98.185" cy="202.057" r="2.901" fill="#606060"/><circle cx="92.282" cy="207.96" r="2.901" fill="#606060"/><circle cx="103.687" cy="196.255" r="2.901" fill="#606060"/><circle cx="109.489" cy="190.453" r="2.901" fill="#606060"/><circle cx="121.573" cy="178.425" r="2.901" fill="#606060"/><circle cx="127.638" cy="172.367" r="2.901" fill="#606060"/><circle cx="133.605" cy="166.399" r="2.901" fill="#606060"/><circle cx="115.44" cy="184.651" r="2.901" fill="#606060"/><path fill="#606060" d="M94.487 213.132a1.23 1.23 0 010-1.741l43.259-43.259a1.23 1.23 0 111.741 1.741l-43.259 43.259a1.23 1.23 0 01-1.741 0z"/><path fill="#606060" d="M98.502 203.559l1.38-1.38 2.776 2.776-1.38 1.38zm-5.952 5.952l1.38-1.38 2.776 2.777-1.38 1.38zm11.754-11.753l1.38-1.38 2.775 2.776-1.38 1.38zm6.003-6.004l1.38-1.38 2.776 2.777-1.38 1.38zm5.13-5.724l1.38-1.38 2.775 2.776-1.38 1.38zm6.132-6.226l1.38-1.38 2.776 2.776-1.38 1.38zm6.064-6.058l1.38-1.38 2.775 2.776-1.38 1.38zm5.985-5.983l1.38-1.38 2.775 2.776-1.38 1.38z"/><path fill="#EFEFEF" d="M142.734 157.195l-2.86 2.86c-2.69-2.68-4.22-5.5-3.43-6.29.79-.79 3.611.74 6.29 3.43z"/><path fill="#D6D6D6" d="M146.195 163.515c-.79.79-3.62-.75-6.31-3.44-.01-.01-.01-.01-.01-.02l2.86-2.86c.01 0 .01 0 .02.01 2.69 2.69 4.229 5.52 3.44 6.31z"/><path fill="#A8A8A8" d="M168.546 138.254c-.791.783-2.946-.093-4.83-1.961l2.868-2.868c1.869 1.883 2.745 4.038 1.962 4.829z"/><path fill="#EFEFEF" d="M158.008 132.202c.79-.79 4.602-.232 7.292 2.458l.03.03-23.68 23.69 4.84 4.84-.33.33-4.88-4.88-4.87-4.87"/><path fill="#E2E2E2" d="M141.77 158.335l-2.868 2.868-.031-.031c-1.884-1.884-2.775-4.062-1.985-4.853.791-.791 2.969.101 4.853 1.985l.031.031z"/><path fill="#D6D6D6" d="M146.139 163.571l-5.209-4.471 24.4-24.41c2.67 2.68 3.25 6.44 2.46 7.229"/><path fill="#A8A8A8" d="M143.659 163.141c-.791.783-2.946-.093-4.83-1.961l2.868-2.868c1.869 1.883 2.745 4.038 1.962 4.829z"/><path fill="#EFEFEF" d="M191.412 108.518l-2.86 2.86c-2.69-2.68-4.22-5.5-3.43-6.29.79-.79 3.61.74 6.29 3.43z"/><path fill="#D6D6D6" d="M194.872 114.838c-.79.79-3.62-.75-6.31-3.44-.01-.01-.01-.01-.01-.02l2.86-2.86c.01 0 .01 0 .02.01 2.69 2.69 4.23 5.52 3.44 6.31z"/><path fill="#EFEFEF" d="M190.327 109.703l4.84 4.84-.33.33-4.88-4.88-4.87-4.87 22.52-22.52.02.01c.02-.02.02-.05.04-.07.79-.79 3.62.75 6.31 3.44l.03.03-23.68 23.69z"/><path fill="#E2E2E2" d="M190.447 109.658l-2.868 2.868-.031-.031c-1.884-1.884-2.775-4.062-1.985-4.853.791-.791 2.969.101 4.853 1.985l.031.031z"/><path fill="#D6D6D6" d="M217.417 92.293c-.02.02-.06.02-.08.04l.01.02-22.531 22.541-5.209-4.471 24.4-24.41c2.67 2.68 4.2 5.49 3.41 6.28z"/><path fill="#A8A8A8" d="M192.336 114.463c-.791.783-2.946-.093-4.83-1.961l2.868-2.868c1.869 1.883 2.745 4.038 1.962 4.829z"/><path fill="#606060" d="M199.728 100.308a2.464 2.464 0 010-3.475l2.049-2.049a2.464 2.464 0 013.475 0 2.464 2.464 0 010 3.475l-2.049 2.049a2.464 2.464 0 01-3.475 0zm-68.54 88.033a1.7 1.7 0 00-1.694-1.694h-3.046l-2.221-2.221c-.659-.659-1.736-.659-2.395 0s-.659 1.736 0 2.395l2.646 2.646c.019.019.042.032.062.05.308.317.737.517 1.212.517h3.742a1.697 1.697 0 001.694-1.693z"/><path fill="#A8A8A8" d="M137.674 154.491c2.403.623 4.699 2.358 6.018 4.432.698 1.098 1.139 2.317 1.365 3.596.084.474.807.273.723-.199-.681-3.86-3.459-6.839-7.045-8.257a7.551 7.551 0 00-.862-.295c-.467-.122-.666.601-.199.723zm-65.351 68.594c.168-.004.338.007.506.021.08.007.159.015.238.024.024.003.17.023.068.008l.18.027c.224.037.446.084.666.143 1.029.274 2.01.814 2.579 1.766.439.735.558 1.59.526 2.434-.019.483.731.482.75 0 .062-1.586-.47-3.09-1.771-4.053-.88-.651-1.974-.964-3.05-1.082a5.316 5.316 0 00-.691-.039c-.483.012-.485.762-.001.751zm113.997-117.24c2.403.623 4.699 2.358 6.018 4.432.698 1.098 1.139 2.317 1.365 3.596.084.474.807.273.723-.199-.681-3.86-3.459-6.839-7.045-8.257a7.551 7.551 0 00-.862-.295c-.467-.121-.667.602-.199.723zm-27.936 28c2.442.465 4.884 2.025 6.283 4.067.738 1.077 1.197 2.292 1.423 3.575.084.474.807.273.723-.199a9.584 9.584 0 00-3.266-5.703 12.068 12.068 0 00-4.068-2.22 7.692 7.692 0 00-.896-.242c-.471-.091-.673.632-.199.722z"/><circle cx="92.29" cy="208.081" r="1.21" fill="#E2E2E2"/><circle cx="98.048" cy="201.984" r="1.21" fill="#E2E2E2"/><circle cx="103.734" cy="196.371" r="1.21" fill="#E2E2E2"/><circle cx="109.468" cy="190.371" r="1.21" fill="#E2E2E2"/><circle cx="115.5" cy="184.5" r="1.21" fill="#E2E2E2"/><circle cx="121.5" cy="178.371" r="1.21" fill="#E2E2E2"/><circle cx="127.645" cy="172.419" r="1.21" fill="#E2E2E2"/><circle cx="133.774" cy="166.355" r="1.21" fill="#E2E2E2"/><path fill="#EB595B" d="M209.329 163.586L196.48 146.39a1.75 1.75 0 00-2.803 0l-12.848 17.196c-.862 1.154-.039 2.797 1.402 2.797h5.753v11.761c0 .966.783 1.749 1.749 1.749h10.691c.966 0 1.749-.783 1.749-1.749v-11.761h5.753c1.441 0 2.265-1.643 1.403-2.797z" opacity=".75"/></svg>