<?xml version="1.0" encoding="utf-8"?>
<!-- Generator: Adobe Illustrator 24.3.0, SVG Export Plug-In . SVG Version: 6.00 Build 0)  -->
<svg version="1.0" id="Layer_1" xmlns="http://www.w3.org/2000/svg" xmlns:xlink="http://www.w3.org/1999/xlink" x="0px" y="0px"
	 viewBox="0 0 300 300" enable-background="new 0 0 300 300" xml:space="preserve">
<g>
	<path fill="#FFFFFF" d="M255.984,43.92c1.735,1.735,3.427,3.512,5.075,5.33c1.648,1.818,3.251,3.676,4.807,5.573
		s3.066,3.831,4.528,5.802c1.462,1.971,2.875,3.977,4.238,6.017c1.363,2.041,2.676,4.113,3.938,6.218
		c1.262,2.105,2.471,4.24,3.628,6.404s2.26,4.356,3.309,6.574c1.049,2.218,2.043,4.461,2.983,6.729
		c0.939,2.267,1.822,4.556,2.649,6.867c0.827,2.311,1.596,4.64,2.309,6.989c0.712,2.348,1.367,4.713,1.963,7.093
		c0.596,2.381,1.134,4.774,1.613,7.181c0.479,2.407,0.898,4.824,1.258,7.252s0.66,4.862,0.901,7.305
		c0.241,2.442,0.421,4.889,0.541,7.34c0.12,2.451,0.181,4.904,0.181,7.358c0,2.454-0.06,4.907-0.181,7.358
		c-0.12,2.451-0.301,4.898-0.541,7.34c-0.241,2.442-0.541,4.877-0.901,7.305c-0.36,2.428-0.78,4.845-1.258,7.252
		c-0.479,2.407-1.016,4.801-1.613,7.181c-0.596,2.381-1.251,4.745-1.963,7.093c-0.712,2.348-1.482,4.678-2.309,6.989
		c-0.827,2.311-1.71,4.6-2.649,6.867c-0.939,2.267-1.933,4.51-2.983,6.729c-1.049,2.218-2.152,4.41-3.309,6.574
		c-1.157,2.164-2.366,4.299-3.628,6.404c-1.262,2.105-2.574,4.178-3.938,6.218c-1.363,2.04-2.776,4.046-4.238,6.017
		c-1.462,1.971-2.971,3.905-4.528,5.802s-3.159,3.755-4.807,5.573c-1.648,1.818-3.34,3.595-5.075,5.33
		c-1.735,1.735-3.512,3.427-5.33,5.075c-1.818,1.648-3.676,3.251-5.573,4.807c-1.897,1.557-3.831,3.066-5.802,4.528
		c-1.971,1.462-3.977,2.875-6.017,4.238c-2.04,1.363-4.113,2.676-6.218,3.938c-2.105,1.262-4.24,2.471-6.404,3.628
		s-4.356,2.26-6.574,3.309c-2.218,1.049-4.461,2.043-6.729,2.983s-4.556,1.822-6.867,2.649c-2.311,0.827-4.64,1.596-6.989,2.309
		c-2.348,0.712-4.713,1.367-7.093,1.963c-2.381,0.596-4.774,1.134-7.181,1.613s-4.824,0.898-7.252,1.258
		c-2.428,0.36-4.862,0.66-7.305,0.901c-2.442,0.241-4.889,0.421-7.34,0.541c-2.451,0.12-4.904,0.181-7.358,0.181
		c-2.454,0-4.907-0.06-7.358-0.181c-2.451-0.12-4.898-0.301-7.34-0.541c-2.442-0.241-4.877-0.541-7.305-0.901
		c-2.428-0.36-4.845-0.78-7.252-1.258s-4.801-1.016-7.181-1.613c-2.381-0.596-4.745-1.251-7.093-1.963
		c-2.348-0.712-4.678-1.482-6.989-2.309c-2.311-0.827-4.6-1.71-6.867-2.649c-2.267-0.939-4.51-1.933-6.729-2.983
		c-2.218-1.049-4.41-2.152-6.574-3.309c-2.164-1.157-4.299-2.366-6.404-3.628c-2.105-1.262-4.178-2.574-6.218-3.938
		c-2.04-1.363-4.046-2.776-6.017-4.238c-1.971-1.462-3.905-2.971-5.802-4.528c-1.897-1.557-3.755-3.159-5.573-4.807
		c-1.818-1.648-3.595-3.34-5.33-5.075c-1.735-1.735-3.427-3.512-5.075-5.33c-1.648-1.818-3.251-3.676-4.807-5.573
		c-1.557-1.897-3.066-3.831-4.528-5.802c-1.462-1.971-2.875-3.977-4.238-6.017c-1.363-2.04-2.676-4.113-3.938-6.218
		c-1.262-2.105-2.471-4.24-3.628-6.404c-1.157-2.164-2.26-4.356-3.309-6.574c-1.049-2.218-2.043-4.461-2.983-6.729
		c-0.939-2.267-1.822-4.556-2.649-6.867c-0.827-2.311-1.596-4.64-2.309-6.989c-0.712-2.348-1.367-4.713-1.963-7.093
		c-0.596-2.381-1.134-4.774-1.613-7.181c-0.479-2.407-0.898-4.824-1.258-7.252c-0.36-2.428-0.66-4.862-0.901-7.305
		c-0.241-2.442-0.421-4.889-0.541-7.34C0.06,154.858,0,152.406,0,149.952s0.06-4.907,0.181-7.358c0.12-2.451,0.301-4.898,0.541-7.34
		c0.241-2.442,0.541-4.877,0.901-7.305c0.36-2.427,0.78-4.845,1.258-7.252c0.479-2.407,1.016-4.801,1.613-7.181
		c0.596-2.381,1.251-4.745,1.963-7.093c0.712-2.348,1.482-4.678,2.309-6.989c0.827-2.311,1.71-4.6,2.649-6.867
		c0.939-2.267,1.933-4.51,2.983-6.729c1.049-2.218,2.152-4.41,3.309-6.574c1.157-2.164,2.366-4.299,3.628-6.404
		c1.262-2.105,2.574-4.178,3.938-6.218c1.363-2.041,2.776-4.046,4.238-6.017c1.462-1.971,2.971-3.905,4.528-5.802
		c1.557-1.897,3.159-3.755,4.807-5.573c1.648-1.818,3.34-3.595,5.075-5.33c1.735-1.735,3.512-3.427,5.33-5.075
		c1.818-1.648,3.676-3.251,5.573-4.807c1.897-1.557,3.831-3.066,5.802-4.528c1.971-1.462,3.977-2.875,6.017-4.238
		c2.04-1.363,4.113-2.676,6.218-3.938c2.105-1.262,4.24-2.471,6.404-3.628c2.164-1.157,4.356-2.26,6.574-3.309
		c2.218-1.049,4.461-2.043,6.729-2.983c2.267-0.939,4.556-1.822,6.867-2.649c2.311-0.827,4.64-1.596,6.989-2.309
		c2.348-0.712,4.713-1.367,7.093-1.963c2.381-0.596,4.774-1.134,7.181-1.613c2.407-0.479,4.824-0.898,7.252-1.258
		c2.428-0.36,4.862-0.66,7.305-0.901c2.442-0.241,4.889-0.421,7.34-0.541C145.045,0.06,147.498,0,149.952,0
		c2.454,0,4.907,0.06,7.358,0.181c2.451,0.12,4.898,0.301,7.34,0.541c2.442,0.241,4.877,0.541,7.305,0.901
		c2.428,0.36,4.845,0.78,7.252,1.258c2.407,0.479,4.801,1.016,7.181,1.613c2.381,0.596,4.745,1.251,7.093,1.963
		c2.348,0.712,4.678,1.482,6.989,2.309c2.311,0.827,4.6,1.71,6.867,2.649c2.267,0.939,4.51,1.933,6.729,2.983
		c2.218,1.049,4.41,2.152,6.574,3.309c2.164,1.157,4.299,2.366,6.404,3.628c2.105,1.262,4.178,2.574,6.218,3.938
		c2.041,1.363,4.046,2.776,6.017,4.238c1.971,1.462,3.905,2.971,5.802,4.528c1.897,1.557,3.755,3.159,5.573,4.807
		C252.471,40.493,254.248,42.184,255.984,43.92z"/>
	<path fill="#5EC2D7" d="M290.722,149.952c0,2.304-0.057,4.606-0.17,6.907c-0.113,2.301-0.282,4.598-0.508,6.891
		c-0.226,2.293-0.508,4.578-0.846,6.857c-0.338,2.279-0.732,4.548-1.181,6.807c-0.449,2.26-0.954,4.507-1.514,6.741
		c-0.56,2.235-1.174,4.454-1.843,6.659c-0.669,2.205-1.391,4.391-2.167,6.561s-1.605,4.318-2.487,6.446
		c-0.882,2.128-1.815,4.234-2.8,6.316c-0.985,2.083-2.02,4.14-3.106,6.172c-1.086,2.032-2.221,4.036-3.406,6.012
		c-1.184,1.976-2.417,3.922-3.696,5.837c-1.28,1.915-2.606,3.798-3.978,5.649c-1.372,1.85-2.789,3.666-4.251,5.447
		c-1.461,1.781-2.966,3.525-4.513,5.232c-1.547,1.707-3.135,3.375-4.764,5.004c-1.629,1.629-3.297,3.217-5.004,4.764
		c-1.707,1.547-3.451,3.051-5.232,4.513c-1.781,1.461-3.596,2.878-5.447,4.251c-1.85,1.372-3.733,2.698-5.649,3.978
		c-1.916,1.28-3.861,2.512-5.837,3.696c-1.976,1.184-3.98,2.32-6.012,3.406c-2.032,1.086-4.089,2.121-6.172,3.106
		c-2.083,0.985-4.188,1.918-6.316,2.8c-2.128,0.882-4.277,1.711-6.446,2.487c-2.169,0.776-4.356,1.499-6.561,2.167
		c-2.205,0.669-4.424,1.283-6.659,1.843c-2.235,0.56-4.482,1.064-6.741,1.514s-4.529,0.843-6.808,1.181s-4.565,0.62-6.857,0.846
		c-2.293,0.226-4.59,0.395-6.891,0.508c-2.301,0.113-4.603,0.17-6.907,0.17c-2.304,0-4.606-0.057-6.907-0.17
		c-2.301-0.113-4.598-0.282-6.891-0.508c-2.293-0.226-4.578-0.508-6.857-0.846c-2.279-0.338-4.548-0.732-6.808-1.181
		c-2.26-0.449-4.507-0.954-6.741-1.514c-2.235-0.56-4.454-1.174-6.659-1.843c-2.205-0.669-4.391-1.391-6.561-2.167
		c-2.169-0.776-4.318-1.605-6.446-2.487c-2.128-0.882-4.234-1.815-6.317-2.8c-2.083-0.985-4.14-2.02-6.171-3.106
		c-2.032-1.086-4.036-2.221-6.012-3.406c-1.976-1.184-3.922-2.417-5.837-3.696c-1.916-1.28-3.798-2.606-5.649-3.978
		c-1.85-1.372-3.666-2.789-5.447-4.251c-1.781-1.461-3.525-2.966-5.232-4.513c-1.707-1.547-3.375-3.135-5.004-4.764
		c-1.629-1.629-3.217-3.297-4.764-5.004c-1.547-1.707-3.051-3.451-4.513-5.232c-1.462-1.781-2.878-3.596-4.251-5.447
		c-1.372-1.85-2.698-3.733-3.978-5.649c-1.28-1.916-2.512-3.861-3.696-5.837c-1.184-1.976-2.32-3.98-3.406-6.012
		c-1.086-2.032-2.121-4.089-3.106-6.172c-0.985-2.083-1.918-4.188-2.8-6.316c-0.882-2.128-1.71-4.277-2.487-6.446
		c-0.776-2.169-1.499-4.356-2.167-6.561c-0.669-2.205-1.283-4.424-1.843-6.659c-0.56-2.235-1.064-4.482-1.514-6.741
		c-0.449-2.26-0.843-4.529-1.181-6.808c-0.338-2.279-0.62-4.565-0.846-6.857c-0.226-2.293-0.395-4.59-0.508-6.891
		c-0.113-2.301-0.17-4.603-0.17-6.907c0-2.304,0.057-4.606,0.17-6.907c0.113-2.301,0.282-4.598,0.508-6.891
		c0.226-2.293,0.508-4.578,0.846-6.857c0.338-2.279,0.732-4.548,1.181-6.808c0.449-2.26,0.954-4.507,1.514-6.741
		c0.56-2.235,1.174-4.454,1.843-6.659c0.669-2.205,1.391-4.391,2.167-6.561c0.776-2.169,1.605-4.318,2.487-6.446
		c0.882-2.128,1.815-4.234,2.8-6.316c0.985-2.083,2.02-4.14,3.106-6.172c1.086-2.032,2.221-4.036,3.406-6.012
		c1.184-1.976,2.417-3.922,3.696-5.837c1.28-1.916,2.606-3.798,3.978-5.649c1.372-1.85,2.789-3.666,4.251-5.447
		c1.461-1.781,2.966-3.525,4.513-5.232c1.547-1.707,3.135-3.375,4.764-5.004s3.297-3.217,5.004-4.764
		c1.707-1.547,3.451-3.051,5.232-4.513c1.781-1.462,3.596-2.878,5.447-4.251c1.85-1.372,3.733-2.698,5.649-3.978
		c1.916-1.28,3.861-2.512,5.837-3.696c1.976-1.184,3.98-2.32,6.012-3.406c2.032-1.086,4.089-2.121,6.172-3.106
		c2.083-0.985,4.188-1.918,6.316-2.8c2.128-0.882,4.277-1.71,6.446-2.487c2.169-0.776,4.356-1.499,6.561-2.167
		c2.205-0.669,4.424-1.283,6.659-1.843c2.235-0.56,4.482-1.064,6.741-1.514c2.26-0.449,4.529-0.843,6.808-1.181
		c2.279-0.338,4.565-0.62,6.857-0.846c2.293-0.226,4.59-0.395,6.891-0.508c2.301-0.113,4.603-0.17,6.907-0.17
		s4.606,0.057,6.907,0.17c2.301,0.113,4.598,0.282,6.891,0.508c2.293,0.226,4.578,0.508,6.857,0.846
		c2.279,0.338,4.548,0.732,6.807,1.181c2.26,0.449,4.507,0.954,6.741,1.514c2.235,0.56,4.454,1.174,6.659,1.843
		c2.205,0.669,4.391,1.391,6.56,2.167c2.169,0.776,4.318,1.605,6.446,2.487c2.128,0.882,4.234,1.815,6.316,2.8
		c2.083,0.985,4.14,2.02,6.172,3.106c2.032,1.086,4.036,2.221,6.012,3.406c1.976,1.184,3.922,2.417,5.837,3.696
		c1.916,1.28,3.798,2.606,5.649,3.978c1.85,1.372,3.666,2.789,5.447,4.251c1.781,1.461,3.525,2.966,5.232,4.513
		c1.707,1.547,3.375,3.135,5.004,4.764c1.629,1.629,3.217,3.297,4.764,5.004c1.547,1.707,3.051,3.451,4.513,5.232
		s2.878,3.596,4.251,5.447c1.372,1.85,2.699,3.733,3.978,5.649c1.28,1.916,2.512,3.861,3.696,5.837
		c1.184,1.976,2.32,3.98,3.406,6.012c1.086,2.032,2.121,4.089,3.106,6.172c0.985,2.083,1.918,4.188,2.8,6.316
		c0.882,2.128,1.71,4.277,2.487,6.446c0.776,2.169,1.499,4.356,2.167,6.561c0.669,2.205,1.283,4.424,1.843,6.659
		c0.56,2.235,1.064,4.482,1.514,6.741c0.449,2.26,0.843,4.529,1.181,6.808c0.338,2.279,0.62,4.565,0.846,6.857
		c0.226,2.293,0.395,4.59,0.508,6.891S290.722,147.648,290.722,149.952z"/>
	<path fill="#FFE5BB" d="M82.937,220.054c-4.051-4.051-4.051-10.62,0-14.67L205.992,82.328c4.051-4.051,18.882-18.314,22.934-14.263
		c4.051,4.051-4.212,24.882-8.262,28.934L97.607,220.054C93.556,224.106,86.987,224.106,82.937,220.054L82.937,220.054z"/>
	<path fill="#FFEDD4" d="M228.928,67.551c-4.051-4.051-18.882,10.212-22.934,14.263L82.939,204.87c-4.051,4.051-4.051,10.62,0,14.67
		L229.972,72.507C230.127,70.255,229.846,68.469,228.928,67.551L228.928,67.551z"/>
	<path fill="#FCD4A4" d="M103.089,215.263c0,8.158-8.76,17.73-16.919,17.73s-15.183-9.572-15.183-17.73
		c0-8.158,9.172-14.772,17.331-14.772S103.089,207.105,103.089,215.263z"/>
	<path fill="#FFC477" d="M99.438,218.297c0,0.484-0.024,0.966-0.071,1.448c-0.047,0.481-0.118,0.959-0.213,1.434
		c-0.094,0.475-0.212,0.943-0.352,1.406c-0.14,0.463-0.303,0.918-0.488,1.365c-0.185,0.447-0.392,0.884-0.62,1.311
		c-0.228,0.427-0.477,0.841-0.745,1.243c-0.269,0.402-0.557,0.79-0.864,1.164c-0.307,0.374-0.631,0.732-0.974,1.074
		c-0.342,0.342-0.7,0.667-1.074,0.974c-0.374,0.307-0.762,0.595-1.164,0.864c-0.402,0.269-0.817,0.517-1.243,0.745
		c-0.427,0.228-0.864,0.435-1.311,0.62s-0.902,0.348-1.365,0.488c-0.463,0.14-0.932,0.258-1.406,0.352
		c-0.475,0.094-0.953,0.165-1.434,0.213c-0.481,0.047-0.964,0.071-1.448,0.071s-0.966-0.024-1.448-0.071
		c-0.481-0.047-0.959-0.118-1.434-0.213c-0.475-0.094-0.943-0.212-1.406-0.352c-0.463-0.14-0.918-0.303-1.365-0.488
		c-0.447-0.185-0.884-0.392-1.311-0.62c-0.427-0.228-0.841-0.476-1.243-0.745c-0.402-0.269-0.79-0.557-1.164-0.864
		c-0.374-0.307-0.732-0.631-1.074-0.974c-0.342-0.342-0.667-0.7-0.974-1.074c-0.307-0.374-0.595-0.762-0.864-1.164
		c-0.269-0.402-0.517-0.817-0.745-1.243c-0.228-0.427-0.435-0.864-0.62-1.311c-0.185-0.447-0.348-0.902-0.488-1.365
		c-0.14-0.463-0.258-0.932-0.352-1.406c-0.094-0.475-0.165-0.952-0.213-1.434c-0.047-0.482-0.071-0.964-0.071-1.448
		c0-0.484,0.024-0.966,0.071-1.448c0.047-0.482,0.118-0.96,0.213-1.434c0.094-0.475,0.212-0.943,0.352-1.406
		c0.14-0.463,0.303-0.918,0.488-1.365s0.392-0.884,0.62-1.311c0.228-0.427,0.476-0.841,0.745-1.243
		c0.269-0.402,0.557-0.79,0.864-1.164c0.307-0.374,0.631-0.732,0.974-1.074c0.342-0.342,0.7-0.667,1.074-0.974
		c0.374-0.307,0.762-0.595,1.164-0.864c0.402-0.269,0.817-0.517,1.243-0.745c0.427-0.228,0.864-0.435,1.311-0.62
		c0.447-0.185,0.902-0.348,1.365-0.488c0.463-0.14,0.932-0.258,1.406-0.352c0.475-0.094,0.953-0.165,1.434-0.213
		c0.481-0.047,0.964-0.071,1.448-0.071s0.966,0.024,1.448,0.071c0.481,0.047,0.959,0.118,1.434,0.213
		c0.475,0.094,0.943,0.212,1.406,0.352c0.463,0.14,0.918,0.303,1.365,0.488c0.447,0.185,0.884,0.392,1.311,0.62
		c0.427,0.228,0.841,0.477,1.243,0.745c0.402,0.269,0.79,0.557,1.164,0.864c0.374,0.307,0.732,0.631,1.074,0.974
		c0.342,0.342,0.667,0.7,0.974,1.074c0.307,0.374,0.595,0.762,0.864,1.164c0.269,0.402,0.517,0.817,0.745,1.244
		c0.228,0.427,0.435,0.863,0.62,1.31c0.185,0.447,0.348,0.902,0.488,1.365c0.14,0.463,0.258,0.932,0.352,1.406
		c0.094,0.475,0.165,0.953,0.213,1.434C99.414,217.331,99.438,217.814,99.438,218.297z"/>
	<path fill="#606060" d="M93.557,218.297c0,0.54-0.053,1.074-0.158,1.604c-0.105,0.529-0.261,1.043-0.468,1.542
		c-0.207,0.499-0.46,0.972-0.76,1.421c-0.3,0.449-0.641,0.864-1.022,1.246c-0.382,0.382-0.797,0.722-1.246,1.022
		c-0.449,0.3-0.923,0.553-1.421,0.76c-0.499,0.207-1.013,0.362-1.542,0.468s-1.064,0.158-1.604,0.158
		c-0.54,0-1.074-0.053-1.604-0.158c-0.529-0.105-1.043-0.261-1.542-0.468c-0.499-0.207-0.972-0.46-1.421-0.76
		c-0.449-0.3-0.864-0.641-1.246-1.022c-0.382-0.382-0.722-0.797-1.022-1.246c-0.3-0.449-0.553-0.923-0.76-1.421
		c-0.207-0.499-0.362-1.013-0.468-1.542c-0.105-0.529-0.158-1.064-0.158-1.604c0-0.54,0.053-1.074,0.158-1.604
		c0.105-0.529,0.261-1.043,0.468-1.542c0.207-0.499,0.46-0.972,0.76-1.421c0.3-0.449,0.641-0.864,1.022-1.246
		c0.382-0.382,0.797-0.722,1.246-1.022c0.449-0.3,0.923-0.553,1.421-0.76c0.499-0.207,1.013-0.362,1.542-0.468
		c0.529-0.105,1.064-0.158,1.604-0.158c0.54,0,1.074,0.053,1.604,0.158c0.529,0.105,1.043,0.261,1.542,0.468
		c0.499,0.207,0.972,0.46,1.421,0.76c0.449,0.3,0.864,0.641,1.246,1.022c0.382,0.382,0.722,0.797,1.022,1.246
		c0.3,0.449,0.553,0.923,0.76,1.421c0.207,0.499,0.362,1.013,0.468,1.542C93.505,217.223,93.557,217.758,93.557,218.297z"/>
	<path fill="#FCD4A4" d="M138.788,179.527c0,0.499-0.024,0.997-0.073,1.494c-0.049,0.497-0.122,0.99-0.22,1.48
		c-0.097,0.49-0.219,0.973-0.364,1.451c-0.145,0.478-0.313,0.947-0.504,1.409c-0.191,0.461-0.404,0.912-0.64,1.352
		c-0.235,0.44-0.492,0.868-0.769,1.283c-0.277,0.415-0.574,0.816-0.891,1.202c-0.317,0.386-0.652,0.755-1.005,1.109
		c-0.353,0.353-0.723,0.688-1.109,1.005c-0.386,0.317-0.787,0.614-1.202,0.891c-0.415,0.277-0.843,0.534-1.283,0.769
		c-0.44,0.235-0.891,0.449-1.352,0.64c-0.461,0.191-0.931,0.359-1.409,0.504c-0.478,0.145-0.962,0.266-1.451,0.364
		c-0.49,0.097-0.983,0.171-1.48,0.22c-0.497,0.049-0.995,0.073-1.494,0.073s-0.997-0.024-1.494-0.073
		c-0.497-0.049-0.99-0.122-1.48-0.22c-0.49-0.097-0.973-0.219-1.451-0.364c-0.478-0.145-0.947-0.313-1.409-0.504
		c-0.461-0.191-0.912-0.404-1.352-0.64c-0.44-0.235-0.868-0.492-1.283-0.769c-0.415-0.277-0.816-0.574-1.202-0.891
		c-0.386-0.317-0.755-0.652-1.109-1.005c-0.353-0.353-0.688-0.723-1.005-1.109c-0.317-0.386-0.614-0.786-0.891-1.202
		c-0.277-0.415-0.534-0.843-0.769-1.283c-0.235-0.44-0.449-0.891-0.64-1.352c-0.191-0.461-0.359-0.931-0.504-1.409
		c-0.145-0.478-0.266-0.962-0.364-1.451c-0.097-0.49-0.171-0.983-0.22-1.48c-0.049-0.497-0.073-0.995-0.073-1.494
		c0-0.499,0.024-0.997,0.073-1.494c0.049-0.497,0.122-0.99,0.22-1.48c0.097-0.49,0.219-0.973,0.364-1.451
		c0.145-0.478,0.313-0.947,0.504-1.409c0.191-0.461,0.404-0.912,0.64-1.352c0.235-0.44,0.492-0.868,0.769-1.283
		c0.277-0.415,0.574-0.816,0.891-1.202c0.317-0.386,0.652-0.755,1.005-1.109c0.353-0.353,0.723-0.688,1.109-1.005
		c0.386-0.317,0.787-0.614,1.202-0.891c0.415-0.277,0.843-0.534,1.283-0.769c0.44-0.235,0.891-0.449,1.352-0.64
		c0.461-0.191,0.931-0.359,1.409-0.504c0.478-0.145,0.962-0.266,1.451-0.363c0.49-0.097,0.983-0.171,1.48-0.22
		c0.497-0.049,0.995-0.073,1.494-0.073s0.997,0.024,1.494,0.073c0.497,0.049,0.99,0.122,1.48,0.22
		c0.49,0.097,0.973,0.219,1.451,0.363c0.478,0.145,0.947,0.313,1.409,0.504c0.461,0.191,0.912,0.404,1.352,0.64
		c0.44,0.235,0.868,0.492,1.283,0.769c0.415,0.277,0.816,0.574,1.202,0.891c0.386,0.317,0.755,0.652,1.109,1.005
		c0.353,0.353,0.688,0.723,1.005,1.109c0.317,0.386,0.614,0.787,0.891,1.202c0.277,0.415,0.534,0.843,0.769,1.283
		c0.235,0.44,0.449,0.891,0.64,1.352c0.191,0.461,0.359,0.931,0.504,1.409c0.145,0.478,0.266,0.962,0.364,1.451
		c0.097,0.49,0.171,0.983,0.22,1.48C138.764,178.529,138.788,179.027,138.788,179.527z"/>
	<path fill="#FFC477" d="M137.56,180.756c0,0.499-0.024,0.997-0.073,1.494c-0.049,0.497-0.122,0.99-0.22,1.48
		c-0.097,0.49-0.219,0.973-0.364,1.451c-0.145,0.478-0.313,0.947-0.504,1.409c-0.191,0.461-0.404,0.912-0.64,1.352
		c-0.235,0.44-0.492,0.868-0.769,1.283c-0.277,0.415-0.574,0.816-0.891,1.202c-0.317,0.386-0.652,0.756-1.005,1.109
		c-0.353,0.353-0.723,0.688-1.109,1.005c-0.386,0.317-0.787,0.614-1.202,0.891c-0.415,0.277-0.843,0.534-1.283,0.769
		c-0.44,0.235-0.891,0.449-1.352,0.64c-0.461,0.191-0.931,0.359-1.409,0.504s-0.962,0.266-1.451,0.364
		c-0.49,0.097-0.983,0.171-1.48,0.22c-0.497,0.049-0.995,0.073-1.494,0.073c-0.499,0-0.997-0.024-1.494-0.073
		c-0.497-0.049-0.99-0.122-1.48-0.22c-0.49-0.097-0.973-0.219-1.451-0.364c-0.478-0.145-0.947-0.313-1.409-0.504
		c-0.461-0.191-0.912-0.404-1.352-0.64c-0.44-0.235-0.868-0.492-1.283-0.769c-0.415-0.277-0.816-0.574-1.202-0.891
		c-0.386-0.317-0.755-0.652-1.109-1.005c-0.353-0.353-0.688-0.723-1.005-1.109c-0.317-0.386-0.614-0.786-0.891-1.202
		c-0.277-0.415-0.534-0.843-0.769-1.283c-0.235-0.44-0.449-0.891-0.64-1.352c-0.191-0.461-0.359-0.931-0.504-1.409
		c-0.145-0.478-0.266-0.962-0.364-1.451c-0.097-0.49-0.171-0.983-0.219-1.48c-0.049-0.497-0.073-0.995-0.073-1.494
		c0-0.499,0.024-0.997,0.073-1.494c0.049-0.497,0.122-0.99,0.219-1.48c0.097-0.49,0.219-0.973,0.364-1.451
		c0.145-0.478,0.313-0.947,0.504-1.409c0.191-0.461,0.404-0.912,0.64-1.352c0.235-0.44,0.492-0.868,0.769-1.283
		c0.277-0.415,0.574-0.816,0.891-1.202c0.317-0.386,0.652-0.755,1.005-1.109c0.353-0.353,0.723-0.688,1.109-1.005
		c0.386-0.317,0.787-0.614,1.202-0.891c0.415-0.277,0.843-0.534,1.283-0.769c0.44-0.235,0.891-0.449,1.352-0.64
		c0.461-0.191,0.931-0.359,1.409-0.504c0.478-0.145,0.962-0.266,1.451-0.363c0.49-0.097,0.983-0.171,1.48-0.22
		c0.497-0.049,0.995-0.073,1.494-0.073c0.499,0,0.997,0.024,1.494,0.073c0.497,0.049,0.99,0.122,1.48,0.22
		c0.49,0.097,0.973,0.219,1.451,0.363c0.478,0.145,0.947,0.313,1.409,0.504c0.461,0.191,0.912,0.404,1.352,0.64
		c0.44,0.235,0.868,0.492,1.283,0.769c0.415,0.277,0.816,0.574,1.202,0.891c0.386,0.317,0.755,0.652,1.109,1.005
		s0.688,0.723,1.005,1.109c0.317,0.386,0.614,0.787,0.891,1.202c0.277,0.415,0.534,0.843,0.769,1.283
		c0.235,0.44,0.449,0.891,0.64,1.352c0.191,0.461,0.359,0.931,0.504,1.409c0.145,0.478,0.266,0.962,0.364,1.451
		c0.097,0.49,0.171,0.983,0.22,1.48C137.535,179.759,137.56,180.257,137.56,180.756z"/>
	<path fill="#FFE5BB" d="M102.801,200.394l-0.452-0.452c-3.979-3.979-3.979-10.489,0-14.466l11.924-11.924
		c3.979-3.979,10.489-3.979,14.466,0l0.452,0.452c3.979,3.979,3.979,10.489,0,14.466l-11.924,11.924
		C113.289,204.373,106.779,204.373,102.801,200.394L102.801,200.394z"/>
	<path fill="#FFEDD4" d="M128.754,173.566c-3.979-3.979-10.489-3.979-14.466,0l-11.923,11.923c-3.979,3.979-3.979,10.489,0,14.466
		l0.094,0.094l26.391-26.391L128.754,173.566z"/>
	<path fill="#FCD4A4" d="M213.462,102.515c0,0.423-0.021,0.844-0.062,1.265c-0.041,0.421-0.103,0.838-0.186,1.253
		c-0.082,0.415-0.185,0.824-0.308,1.229c-0.123,0.405-0.265,0.802-0.427,1.193c-0.162,0.391-0.342,0.772-0.542,1.145
		c-0.199,0.373-0.416,0.735-0.651,1.086c-0.235,0.351-0.486,0.691-0.755,1.017c-0.268,0.327-0.552,0.64-0.851,0.938
		c-0.299,0.299-0.612,0.582-0.939,0.851c-0.327,0.268-0.666,0.52-1.017,0.755c-0.351,0.235-0.714,0.452-1.086,0.651
		c-0.373,0.199-0.754,0.38-1.145,0.542c-0.391,0.162-0.788,0.304-1.193,0.427c-0.405,0.123-0.814,0.225-1.229,0.308
		c-0.415,0.082-0.832,0.144-1.253,0.186c-0.421,0.041-0.842,0.062-1.265,0.062c-0.423,0-0.844-0.021-1.265-0.062
		c-0.421-0.041-0.838-0.103-1.253-0.186c-0.415-0.082-0.824-0.185-1.229-0.308c-0.405-0.123-0.802-0.265-1.193-0.427
		c-0.391-0.162-0.772-0.342-1.145-0.542c-0.373-0.199-0.735-0.416-1.086-0.651c-0.351-0.235-0.691-0.486-1.017-0.755
		c-0.327-0.268-0.64-0.552-0.939-0.851c-0.299-0.299-0.582-0.612-0.851-0.938c-0.268-0.327-0.52-0.666-0.755-1.017
		c-0.235-0.351-0.452-0.714-0.651-1.086c-0.199-0.373-0.38-0.754-0.542-1.145c-0.162-0.391-0.304-0.788-0.427-1.193
		c-0.123-0.405-0.225-0.814-0.308-1.229c-0.082-0.415-0.144-0.832-0.186-1.253c-0.041-0.421-0.062-0.842-0.062-1.265
		c0-0.423,0.021-0.844,0.062-1.265c0.041-0.421,0.103-0.838,0.186-1.253s0.185-0.824,0.308-1.229
		c0.123-0.405,0.265-0.802,0.427-1.193c0.162-0.391,0.342-0.772,0.542-1.145c0.199-0.373,0.416-0.735,0.651-1.086
		c0.235-0.351,0.486-0.691,0.755-1.017s0.552-0.64,0.851-0.939s0.612-0.582,0.939-0.851c0.327-0.268,0.666-0.52,1.017-0.755
		c0.351-0.235,0.714-0.452,1.086-0.651c0.373-0.199,0.754-0.38,1.145-0.542c0.391-0.162,0.788-0.304,1.193-0.427
		c0.405-0.123,0.814-0.225,1.229-0.308c0.415-0.082,0.832-0.144,1.253-0.186c0.421-0.041,0.842-0.062,1.265-0.062
		c0.423,0,0.844,0.021,1.265,0.062c0.421,0.041,0.838,0.103,1.253,0.186c0.415,0.082,0.824,0.185,1.229,0.308
		c0.405,0.123,0.802,0.265,1.193,0.427c0.391,0.162,0.772,0.342,1.145,0.542c0.373,0.199,0.735,0.416,1.086,0.651
		c0.352,0.235,0.691,0.486,1.017,0.755c0.327,0.268,0.64,0.552,0.938,0.851c0.299,0.299,0.582,0.612,0.851,0.938
		c0.268,0.327,0.52,0.666,0.755,1.017c0.235,0.351,0.452,0.714,0.651,1.086c0.199,0.373,0.38,0.754,0.542,1.145
		c0.162,0.391,0.304,0.788,0.427,1.193c0.123,0.405,0.225,0.814,0.308,1.229c0.082,0.415,0.144,0.832,0.186,1.253
		C213.441,101.67,213.462,102.092,213.462,102.515z"/>
	<path fill="#FFC477" d="M212.293,103.683c0,0.423-0.021,0.844-0.062,1.265c-0.041,0.421-0.103,0.838-0.186,1.253
		c-0.082,0.415-0.185,0.824-0.308,1.229s-0.265,0.802-0.427,1.193c-0.162,0.391-0.342,0.772-0.542,1.145
		c-0.199,0.373-0.416,0.735-0.651,1.086c-0.235,0.351-0.486,0.691-0.755,1.017c-0.268,0.327-0.552,0.64-0.851,0.939
		c-0.299,0.299-0.612,0.582-0.938,0.851c-0.327,0.268-0.666,0.52-1.017,0.755c-0.351,0.235-0.714,0.452-1.086,0.651
		c-0.373,0.199-0.754,0.38-1.145,0.542c-0.391,0.162-0.788,0.304-1.193,0.427c-0.405,0.123-0.814,0.225-1.229,0.308
		s-0.832,0.144-1.253,0.186c-0.421,0.041-0.842,0.062-1.265,0.062c-0.423,0-0.844-0.021-1.265-0.062
		c-0.421-0.041-0.838-0.103-1.253-0.186c-0.415-0.082-0.824-0.185-1.229-0.308c-0.405-0.123-0.802-0.265-1.193-0.427
		c-0.391-0.162-0.772-0.342-1.145-0.542c-0.373-0.199-0.735-0.416-1.086-0.651c-0.351-0.235-0.691-0.486-1.017-0.755
		c-0.327-0.268-0.64-0.552-0.939-0.851c-0.299-0.299-0.582-0.612-0.851-0.939c-0.268-0.327-0.52-0.666-0.755-1.017
		c-0.235-0.351-0.452-0.714-0.651-1.086c-0.199-0.373-0.38-0.754-0.542-1.145c-0.162-0.391-0.304-0.788-0.427-1.193
		c-0.123-0.405-0.225-0.814-0.308-1.229c-0.082-0.415-0.144-0.832-0.186-1.253c-0.041-0.421-0.062-0.842-0.062-1.265
		c0-0.423,0.021-0.844,0.062-1.265c0.041-0.421,0.103-0.838,0.186-1.253c0.082-0.415,0.185-0.824,0.308-1.229
		c0.123-0.405,0.265-0.802,0.427-1.193c0.162-0.391,0.342-0.772,0.542-1.145c0.199-0.373,0.416-0.735,0.651-1.086
		c0.235-0.351,0.486-0.691,0.755-1.017s0.552-0.64,0.851-0.939c0.299-0.299,0.612-0.582,0.939-0.851
		c0.327-0.268,0.666-0.52,1.017-0.755c0.351-0.235,0.714-0.452,1.086-0.651c0.373-0.199,0.754-0.38,1.145-0.542
		c0.391-0.162,0.788-0.304,1.193-0.427c0.405-0.123,0.814-0.225,1.229-0.308c0.415-0.082,0.832-0.144,1.253-0.186
		c0.421-0.041,0.842-0.062,1.265-0.062c0.423,0,0.844,0.021,1.265,0.062c0.421,0.041,0.838,0.103,1.253,0.186
		c0.415,0.082,0.824,0.185,1.229,0.308c0.405,0.123,0.802,0.265,1.193,0.427c0.391,0.162,0.772,0.342,1.145,0.542
		c0.373,0.199,0.735,0.416,1.086,0.651c0.351,0.235,0.691,0.486,1.017,0.755c0.327,0.268,0.64,0.552,0.939,0.851
		c0.299,0.299,0.582,0.612,0.851,0.939c0.268,0.327,0.52,0.666,0.755,1.017c0.235,0.351,0.452,0.714,0.651,1.086
		c0.199,0.373,0.38,0.754,0.542,1.145c0.162,0.391,0.304,0.788,0.427,1.193c0.123,0.405,0.225,0.814,0.308,1.229
		c0.082,0.415,0.144,0.832,0.186,1.253C212.273,102.839,212.293,103.261,212.293,103.683z"/>
	<path fill="#FFE5BB" d="M179.956,123.238l-0.452-0.452c-3.979-3.979-3.979-10.489,0-14.466l11.924-11.924
		c3.979-3.979,10.489-3.979,14.466,0l0.452,0.452c3.979,3.979,3.979,10.489,0,14.466l-11.924,11.924
		C190.444,127.217,183.934,127.217,179.956,123.238z"/>
	<path fill="#FFEDD4" d="M205.909,96.412c-3.979-3.979-10.489-3.979-14.466,0l-11.923,11.923c-3.979,3.979-3.979,10.489,0,14.466
		l0.094,0.094l26.391-26.391L205.909,96.412z"/>
	<path fill="#FCD4A4" d="M192.049,123.928c0,0.423-0.021,0.844-0.062,1.265c-0.041,0.421-0.103,0.838-0.186,1.253
		c-0.082,0.415-0.185,0.824-0.308,1.229c-0.123,0.405-0.265,0.802-0.427,1.193c-0.162,0.391-0.342,0.772-0.542,1.145
		c-0.199,0.373-0.416,0.735-0.651,1.086c-0.235,0.352-0.486,0.691-0.755,1.017c-0.268,0.327-0.552,0.64-0.851,0.938
		c-0.299,0.299-0.612,0.582-0.939,0.851c-0.327,0.268-0.666,0.52-1.017,0.755c-0.351,0.235-0.714,0.452-1.086,0.651
		c-0.373,0.199-0.754,0.38-1.145,0.542c-0.391,0.162-0.788,0.304-1.193,0.427c-0.405,0.123-0.814,0.225-1.229,0.308
		c-0.415,0.082-0.832,0.144-1.253,0.186c-0.421,0.041-0.842,0.062-1.265,0.062c-0.423,0-0.844-0.021-1.265-0.062
		c-0.421-0.041-0.838-0.103-1.253-0.186c-0.415-0.082-0.824-0.185-1.229-0.308c-0.405-0.123-0.802-0.265-1.193-0.427
		c-0.391-0.162-0.772-0.342-1.145-0.542c-0.373-0.199-0.735-0.416-1.086-0.651s-0.691-0.486-1.017-0.755
		c-0.327-0.268-0.64-0.552-0.939-0.851c-0.299-0.299-0.582-0.612-0.851-0.939c-0.268-0.327-0.52-0.666-0.755-1.017
		c-0.235-0.351-0.452-0.714-0.651-1.086c-0.199-0.373-0.38-0.754-0.542-1.145c-0.162-0.391-0.304-0.788-0.427-1.193
		c-0.123-0.405-0.225-0.814-0.308-1.229c-0.082-0.415-0.144-0.832-0.186-1.253c-0.041-0.421-0.062-0.842-0.062-1.265
		c0-0.423,0.021-0.844,0.062-1.265c0.041-0.421,0.103-0.838,0.186-1.253c0.082-0.415,0.185-0.824,0.308-1.229
		c0.123-0.405,0.265-0.802,0.427-1.193c0.162-0.391,0.342-0.772,0.542-1.145c0.199-0.373,0.416-0.735,0.651-1.086
		c0.235-0.351,0.486-0.691,0.755-1.017c0.268-0.327,0.552-0.64,0.851-0.939c0.299-0.299,0.612-0.582,0.939-0.851
		c0.327-0.268,0.666-0.52,1.017-0.755s0.714-0.452,1.086-0.651c0.373-0.199,0.754-0.38,1.145-0.542
		c0.391-0.162,0.788-0.304,1.193-0.427c0.405-0.123,0.814-0.225,1.229-0.308c0.415-0.082,0.832-0.144,1.253-0.186
		c0.421-0.041,0.842-0.062,1.265-0.062c0.423,0,0.844,0.021,1.265,0.062c0.421,0.041,0.838,0.103,1.253,0.186
		c0.415,0.082,0.824,0.185,1.229,0.308c0.405,0.123,0.802,0.265,1.193,0.427c0.391,0.162,0.772,0.342,1.145,0.542
		c0.373,0.199,0.735,0.416,1.086,0.651c0.351,0.235,0.691,0.486,1.017,0.755c0.327,0.268,0.64,0.552,0.938,0.851
		c0.299,0.299,0.582,0.612,0.851,0.939c0.268,0.327,0.52,0.666,0.755,1.017c0.235,0.352,0.452,0.714,0.651,1.086
		c0.199,0.373,0.38,0.754,0.542,1.145c0.162,0.391,0.304,0.788,0.427,1.193c0.123,0.405,0.225,0.814,0.308,1.229
		c0.082,0.415,0.144,0.832,0.186,1.253C192.028,123.084,192.049,123.505,192.049,123.928z"/>
	<path fill="#FFC477" d="M191.008,124.969c0,0.423-0.021,0.844-0.062,1.265c-0.041,0.421-0.103,0.838-0.186,1.253
		c-0.082,0.415-0.185,0.824-0.308,1.229c-0.123,0.405-0.265,0.802-0.427,1.193c-0.162,0.391-0.342,0.772-0.542,1.145
		c-0.199,0.373-0.416,0.735-0.651,1.086c-0.235,0.351-0.486,0.691-0.755,1.017c-0.268,0.327-0.552,0.64-0.851,0.939
		c-0.299,0.299-0.612,0.582-0.938,0.851c-0.327,0.268-0.666,0.52-1.017,0.755c-0.351,0.235-0.714,0.452-1.086,0.651
		c-0.373,0.199-0.754,0.38-1.145,0.542c-0.391,0.162-0.788,0.304-1.193,0.427c-0.405,0.123-0.814,0.225-1.229,0.308
		c-0.415,0.082-0.832,0.144-1.253,0.186c-0.421,0.041-0.842,0.062-1.265,0.062s-0.844-0.021-1.265-0.062
		c-0.421-0.041-0.838-0.103-1.253-0.186c-0.415-0.082-0.824-0.185-1.229-0.308c-0.405-0.123-0.802-0.265-1.193-0.427
		c-0.391-0.162-0.772-0.342-1.145-0.542c-0.373-0.199-0.735-0.416-1.086-0.651c-0.351-0.235-0.691-0.486-1.017-0.755
		c-0.327-0.268-0.64-0.552-0.939-0.851c-0.299-0.299-0.582-0.612-0.851-0.939c-0.268-0.327-0.52-0.666-0.755-1.017
		c-0.235-0.351-0.452-0.714-0.651-1.086c-0.199-0.373-0.38-0.754-0.542-1.145c-0.162-0.391-0.304-0.788-0.427-1.193
		c-0.123-0.405-0.225-0.814-0.308-1.229c-0.082-0.415-0.144-0.832-0.186-1.253c-0.041-0.421-0.062-0.842-0.062-1.265
		c0-0.423,0.021-0.844,0.062-1.265s0.103-0.838,0.186-1.253c0.082-0.415,0.185-0.824,0.308-1.229
		c0.123-0.405,0.265-0.802,0.427-1.193c0.162-0.391,0.342-0.772,0.542-1.145c0.199-0.373,0.416-0.735,0.651-1.086
		c0.235-0.351,0.486-0.691,0.755-1.017c0.268-0.327,0.552-0.64,0.851-0.939c0.299-0.299,0.612-0.582,0.939-0.851
		c0.327-0.268,0.666-0.52,1.017-0.755c0.352-0.235,0.714-0.452,1.086-0.651c0.373-0.199,0.754-0.38,1.145-0.542
		c0.391-0.162,0.788-0.304,1.193-0.427c0.405-0.123,0.814-0.225,1.229-0.308c0.415-0.082,0.832-0.144,1.253-0.186
		c0.421-0.041,0.842-0.062,1.265-0.062c0.423,0,0.844,0.021,1.265,0.062c0.421,0.041,0.838,0.103,1.253,0.186
		c0.415,0.082,0.824,0.185,1.229,0.308c0.405,0.123,0.802,0.265,1.193,0.427c0.391,0.162,0.772,0.342,1.145,0.542
		c0.373,0.199,0.735,0.416,1.086,0.651c0.351,0.235,0.691,0.486,1.017,0.755c0.327,0.268,0.64,0.552,0.938,0.851
		c0.299,0.299,0.582,0.612,0.851,0.939c0.268,0.327,0.52,0.666,0.755,1.017c0.235,0.351,0.452,0.714,0.651,1.086
		c0.199,0.373,0.38,0.754,0.542,1.145c0.162,0.391,0.304,0.788,0.427,1.193c0.123,0.405,0.225,0.814,0.308,1.229
		c0.082,0.415,0.144,0.832,0.186,1.253S191.008,124.546,191.008,124.969z"/>
	<path fill="#FFE5BB" d="M158.618,144.577l-0.452-0.452c-3.979-3.979-3.979-10.489,0-14.466l11.924-11.924
		c3.979-3.979,10.489-3.979,14.466,0l0.452,0.452c3.979,3.979,3.979,10.489,0,14.466l-11.924,11.924
		C169.107,148.555,162.596,148.555,158.618,144.577z"/>
	<path fill="#FFEDD4" d="M184.571,117.749c-3.979-3.979-10.489-3.979-14.466,0l-11.923,11.923c-3.979,3.979-3.979,10.489,0,14.466
		l0.094,0.094l26.391-26.391L184.571,117.749z"/>
	<path fill="#606060" d="M155.235,140.536c0,0.169-0.016,0.336-0.049,0.502c-0.033,0.166-0.082,0.326-0.146,0.482
		c-0.065,0.156-0.144,0.304-0.238,0.445c-0.094,0.14-0.2,0.27-0.32,0.39c-0.119,0.119-0.249,0.226-0.39,0.32
		c-0.14,0.094-0.289,0.173-0.445,0.238c-0.156,0.065-0.317,0.113-0.482,0.146c-0.166,0.033-0.333,0.049-0.502,0.049
		c-0.169,0-0.336-0.017-0.502-0.049c-0.166-0.033-0.326-0.082-0.482-0.146c-0.156-0.065-0.304-0.144-0.445-0.238
		c-0.14-0.094-0.27-0.2-0.39-0.32c-0.119-0.119-0.226-0.249-0.32-0.39c-0.094-0.14-0.173-0.289-0.238-0.445
		c-0.065-0.156-0.113-0.317-0.146-0.482c-0.033-0.166-0.049-0.333-0.049-0.502c0-0.169,0.016-0.336,0.049-0.502
		c0.033-0.166,0.082-0.326,0.146-0.482c0.065-0.156,0.144-0.304,0.238-0.445c0.094-0.14,0.2-0.27,0.32-0.39
		c0.119-0.119,0.249-0.226,0.39-0.32c0.14-0.094,0.289-0.173,0.445-0.238c0.156-0.065,0.317-0.113,0.482-0.146
		c0.166-0.033,0.333-0.049,0.502-0.049c0.169,0,0.336,0.016,0.502,0.049c0.166,0.033,0.326,0.082,0.482,0.146
		c0.156,0.065,0.304,0.144,0.445,0.238c0.14,0.094,0.27,0.2,0.39,0.32c0.119,0.119,0.226,0.249,0.32,0.39
		c0.094,0.14,0.173,0.289,0.238,0.445c0.065,0.156,0.113,0.317,0.146,0.482C155.219,140.2,155.235,140.367,155.235,140.536z"/>
	<path fill="#606060" d="M131.085,161.494c0,0.196-0.038,0.385-0.113,0.567c-0.075,0.181-0.182,0.342-0.321,0.48
		c-0.139,0.139-0.299,0.246-0.48,0.321s-0.37,0.113-0.567,0.113c-0.196,0-0.385-0.038-0.567-0.113
		c-0.181-0.075-0.342-0.182-0.48-0.321c-0.139-0.139-0.246-0.299-0.321-0.48c-0.075-0.181-0.113-0.37-0.113-0.567
		c0-0.196,0.038-0.385,0.113-0.567c0.075-0.181,0.182-0.341,0.321-0.48c0.139-0.139,0.299-0.246,0.48-0.321
		c0.181-0.075,0.37-0.113,0.567-0.113c0.196,0,0.385,0.038,0.567,0.113c0.181,0.075,0.342,0.182,0.48,0.321
		c0.139,0.139,0.246,0.299,0.321,0.48C131.047,161.109,131.085,161.298,131.085,161.494z"/>
	<path fill="#606060" d="M133.533,163.127c0,0.108-0.021,0.212-0.062,0.312s-0.1,0.188-0.177,0.265
		c-0.076,0.076-0.165,0.135-0.265,0.177c-0.1,0.041-0.204,0.062-0.312,0.062c-0.108,0-0.212-0.021-0.312-0.062
		c-0.1-0.041-0.188-0.1-0.265-0.177c-0.076-0.076-0.135-0.165-0.177-0.265c-0.041-0.1-0.062-0.204-0.062-0.312
		c0-0.108,0.021-0.212,0.062-0.312c0.041-0.1,0.1-0.188,0.177-0.265s0.165-0.135,0.265-0.177c0.1-0.041,0.204-0.062,0.312-0.062
		c0.108,0,0.212,0.021,0.312,0.062s0.188,0.1,0.265,0.177c0.076,0.077,0.135,0.165,0.177,0.265
		C133.512,162.914,133.533,163.019,133.533,163.127z"/>
	<path fill="#606060" d="M115.622,177.465c0,0.196-0.038,0.385-0.113,0.567c-0.075,0.181-0.182,0.341-0.321,0.48
		c-0.139,0.139-0.299,0.246-0.48,0.321c-0.181,0.075-0.37,0.113-0.567,0.113c-0.196,0-0.385-0.038-0.567-0.113
		c-0.181-0.075-0.341-0.182-0.48-0.321c-0.139-0.139-0.246-0.299-0.321-0.48c-0.075-0.181-0.113-0.37-0.113-0.567
		c0-0.196,0.038-0.385,0.113-0.567c0.075-0.181,0.182-0.341,0.321-0.48c0.139-0.139,0.299-0.246,0.48-0.321
		c0.181-0.075,0.37-0.113,0.567-0.113c0.196,0,0.385,0.038,0.567,0.113c0.181,0.075,0.341,0.182,0.48,0.321
		c0.139,0.139,0.246,0.299,0.321,0.48C115.585,177.08,115.622,177.269,115.622,177.465z"/>
	<path fill="#606060" d="M118.403,178.711c0,0.108-0.021,0.212-0.062,0.312c-0.041,0.1-0.1,0.188-0.177,0.265
		c-0.076,0.076-0.165,0.135-0.265,0.177c-0.1,0.041-0.204,0.062-0.312,0.062c-0.108,0-0.212-0.021-0.312-0.062
		c-0.1-0.041-0.188-0.1-0.265-0.177c-0.077-0.076-0.135-0.165-0.177-0.265c-0.041-0.1-0.062-0.204-0.062-0.312
		c0-0.108,0.021-0.212,0.062-0.312c0.041-0.1,0.1-0.188,0.177-0.265c0.076-0.076,0.165-0.135,0.265-0.177
		c0.1-0.041,0.204-0.062,0.312-0.062c0.108,0,0.212,0.021,0.312,0.062c0.1,0.041,0.188,0.1,0.265,0.177
		c0.076,0.076,0.135,0.165,0.177,0.265C118.382,178.499,118.403,178.603,118.403,178.711z"/>
	<path fill="#606060" d="M191.591,104.714c-2.225-1.411-4.6-2.014-6.685-1.812c0.568-0.517,1.157-0.973,1.758-1.37
		c0.136-0.263,0.273-0.524,0.411-0.781c2.193-0.173,4.526,0.435,6.577,1.822C192.989,103.206,192.298,103.919,191.591,104.714
		L191.591,104.714z"/>
	<polygon fill="#606060" points="186.267,102.515 184.906,102.893 187.048,100.75 187.115,100.75 187.777,101.48 	"/>
</g>
</svg>
