<svg xmlns="http://www.w3.org/2000/svg" id="Camada_1" viewBox="0 0 505.62 505.42"><defs><clipPath id="clippath"><path fill="none" d="M306.54 244.88h54.36v61.56h-54.36z"/></clipPath><style>.cls-3{fill:#e2e2e2}.cls-4{fill:#d6d6d6}.cls-7{fill:#efefef}.cls-8{fill:#606060}.cls-9{fill:#a8a8a8}</style></defs><path fill="#86bf5a" d="M505.62 252.71c0 5.41-.24 10.81-.6 16.21-.24 5.53-.84 10.93-1.56 16.22-.6 5.41-1.56 10.81-2.52 16.09-1.09 5.41-2.29 10.69-3.73 15.85-1.32 5.29-2.89 10.45-4.57 15.62-1.8 5.17-3.61 10.21-5.65 15.26-2.16 5.04-4.33 9.97-6.73 14.89-2.28 4.92-4.81 9.73-7.57 14.41-2.65 4.81-5.41 9.38-8.42 13.93-3 4.57-6.13 9.01-9.38 13.33a249.46 249.46 0 01-10.21 12.73c-3.49 4.09-7.21 8.05-10.93 12.02-3.85 3.84-7.69 7.57-11.77 11.29-4.09 3.61-8.18 7.09-12.5 10.45-4.21 3.36-8.53 6.6-13.1 9.73-4.45 3-9.01 6.01-13.58 8.77-7.21 4.2-14.42 8.17-21.99 11.65-18.74 8.89-38.33 15.38-58.76 19.46-8.05 1.56-16.22 2.76-24.51 3.6-8.17.84-16.46 1.2-24.76 1.2-5.41 0-10.94-.12-16.34-.48-5.41-.36-10.82-.84-16.22-1.56-5.28-.72-10.69-1.56-15.98-2.64-5.41-1.08-10.7-2.29-15.86-3.61-5.29-1.44-10.46-3-15.62-4.68-5.17-1.69-10.21-3.61-15.25-5.65-5.05-2.04-9.98-4.21-14.9-6.61-4.93-2.4-9.74-4.92-14.42-7.57-4.8-2.64-9.37-5.52-13.93-8.53-4.57-2.88-9.02-6.01-13.34-9.37-4.33-3.24-8.54-6.61-12.74-10.09-4.08-3.61-8.05-7.21-12.02-11.06-3.84-3.72-7.57-7.69-11.17-11.77-3.72-3.97-7.21-8.17-10.57-12.38-3.37-4.32-6.62-8.65-9.62-13.09-3.13-4.45-6.13-9.01-8.89-13.7-4.2-7.09-8.17-14.41-11.65-21.86-3.6-7.57-6.73-15.13-9.49-22.93-4.21-11.78-7.57-23.66-9.97-35.92-1.56-8.05-2.77-16.21-3.61-24.5-.84-8.17-1.2-16.46-1.2-24.74 0-5.41.12-10.81.48-16.34.36-5.41.96-10.81 1.56-16.1.72-5.41 1.57-10.81 2.65-16.09 1.08-5.41 2.28-10.69 3.6-15.85 1.45-5.29 3.01-10.45 4.69-15.62 1.69-5.16 3.61-10.33 5.65-15.25 2.05-5.04 4.33-10.09 6.61-14.9 2.41-4.92 4.93-9.73 7.58-14.41 2.76-4.81 5.53-9.37 8.53-13.93 3.01-4.57 6.13-9.01 9.38-13.34 3.24-4.32 6.61-8.53 10.21-12.73 3.48-4.09 7.09-8.05 10.94-12.02 3.84-3.84 7.69-7.57 11.77-11.29 3.96-3.61 8.17-7.09 12.38-10.45 4.33-3.37 8.65-6.61 13.1-9.74 4.45-3 9.02-6 13.7-8.77 7.1-4.2 14.42-8.17 21.87-11.65 18.87-8.89 38.45-15.38 58.76-19.46 8.17-1.56 16.33-2.88 24.63-3.6 8.17-.84 16.46-1.2 24.75-1.2 5.41 0 10.81.12 16.22.48 5.41.36 10.82.84 16.22 1.56 5.41.72 10.82 1.56 16.1 2.64 5.29.97 10.58 2.29 15.85 3.61 5.29 1.44 10.46 3 15.62 4.68 5.17 1.69 10.22 3.61 15.26 5.65s9.97 4.21 14.89 6.61c4.93 2.4 9.74 4.93 14.42 7.57 4.69 2.64 9.38 5.53 13.93 8.53 4.45 2.88 8.9 6.01 13.22 9.25 4.44 3.37 8.65 6.73 12.74 10.21 4.09 3.61 8.17 7.21 12.01 11.05 3.97 3.72 7.69 7.69 11.29 11.77 3.61 3.97 7.09 8.17 10.58 12.38 3.36 4.32 6.49 8.65 9.62 13.09 3.12 4.45 6.01 9.01 8.77 13.7 4.33 7.09 8.17 14.42 11.78 21.86 3.49 7.57 6.73 15.14 9.49 22.94 4.21 11.65 7.45 23.66 9.85 35.79 1.69 8.17 2.89 16.33 3.73 24.62.72 8.17 1.2 16.46 1.2 24.74z"/><path fill="#fff" d="M332.59 162.51v180.4c0 5.29-4.33 9.49-9.49 9.49H182.52c-5.29 0-9.49-4.2-9.49-9.49v-180.4c0-1.92.6-3.6 1.44-5.17.49-.6.97-1.2 1.57-1.8.6-.48 1.2-.96 1.92-1.32.72-.48 1.44-.72 2.16-.96.85-.12 1.57-.24 2.41-.24h140.58c.61 0 1.21 0 1.81.12.6.12 1.2.36 1.8.6s1.08.48 1.68.84c.48.36.97.72 1.45 1.2.36.48.84.96 1.08 1.44.36.48.72 1.08.96 1.69.24.48.36 1.08.48 1.8.12.6.24 1.2.24 1.8z"/><path fill="#ededed" d="M319.26 307.72H186.37c-.24 0-.49-.12-.61-.24-.24-.24-.24-.36-.24-.72 0-.24 0-.36.24-.6.12-.12.37-.24.61-.24h132.89c.24 0 .36.12.6.24.12.24.24.36.24.6 0 .36-.12.48-.24.72-.24.12-.36.24-.6.24zm0-13.21H186.37c-.24 0-.49-.12-.61-.36-.24-.12-.24-.36-.24-.6s0-.48.24-.72c.12-.12.37-.24.61-.24h132.89c.24 0 .36.12.6.24.12.24.24.48.24.72s-.12.48-.24.6c-.24.24-.36.36-.6.36zm0-34.23H186.37c-.24 0-.49-.12-.61-.24-.24-.24-.24-.48-.24-.72s0-.48.24-.6c.12-.24.37-.36.61-.36h132.89c.24 0 .36.12.6.36.12.12.24.36.24.6s-.12.48-.24.72c-.24.12-.36.24-.6.24zm0-13.34H186.37c-.24 0-.49-.12-.61-.24-.24-.24-.24-.36-.24-.6 0-.36 0-.48.24-.72.12-.12.37-.24.61-.24h132.89c.24 0 .36.12.6.24.12.24.24.36.24.72 0 .24-.12.36-.24.6-.24.12-.36.24-.6.24zm0-34.11H186.37c-.24 0-.49-.12-.61-.36-.24-.12-.24-.36-.24-.6s0-.48.24-.6c.12-.24.37-.36.61-.36h132.89c.24 0 .36.12.6.36.12.12.24.36.24.6s-.12.48-.24.6c-.24.24-.36.36-.6.36zm0-13.33H186.37a.95.95 0 01-.61-.25c-.24-.24-.24-.48-.24-.72s0-.48.24-.6c.12-.24.37-.24.61-.36h132.89c.24.12.36.12.6.36.12.12.24.36.24.6s-.12.48-.24.72c-.24.12-.36.25-.6.25zm0-15.14H186.37c-.36 0-.73-.12-1.09-.24-.24-.24-.6-.36-.84-.72-.24-.25-.48-.49-.6-.85s-.24-.72-.24-1.08.12-.72.24-1.08c.12-.36.36-.6.6-.84.24-.36.6-.48.84-.72.36-.12.73-.24 1.09-.24h132.89c.36 0 .72.12.96.24.36.24.72.36.96.72.24.24.48.48.6.84s.12.72.12 1.08 0 .72-.12 1.08c-.12.36-.36.6-.6.85-.24.36-.6.48-.96.72-.24.12-.6.24-.96.24zm0 47.45H186.37c-.36 0-.73-.13-1.09-.25-.24-.12-.6-.36-.84-.6s-.48-.6-.6-.96-.24-.72-.24-1.08.12-.72.24-1.08c.12-.24.36-.6.6-.84s.6-.48.84-.6c.36-.24.73-.24 1.09-.24h132.89c.36 0 .72 0 .96.24.36.12.72.36.96.6s.48.6.6.84c.12.36.12.72.12 1.08s0 .72-.12 1.08c-.12.36-.36.72-.6.96s-.6.48-.96.6c-.24.12-.6.25-.96.25zm0 47.44H186.37c-.36 0-.73-.12-1.09-.24-.24-.12-.6-.36-.84-.6s-.48-.6-.6-.96c-.12-.24-.24-.6-.24-.96 0-.48.12-.84.24-1.08.12-.36.36-.72.6-.96s.6-.48.84-.6c.36-.12.73-.24 1.09-.24h132.89c.36 0 .72.12.96.24.36.12.72.36.96.6s.48.6.6.96c.12.24.12.6.12 1.08 0 .36 0 .72-.12.96-.12.36-.36.72-.6.96s-.6.48-.96.6c-.24.12-.6.24-.96.24zm0 47.45H186.37c-.36 0-.73 0-1.09-.24-.24-.12-.6-.36-.84-.6s-.48-.6-.6-.84c-.12-.36-.24-.72-.24-1.08s.12-.72.24-1.08c.12-.36.36-.72.6-.96s.6-.48.84-.6c.36-.12.73-.24 1.09-.24h132.89c.36 0 .72.12.96.24.36.12.72.36.96.6s.48.6.6.96.12.72.12 1.08 0 .72-.12 1.08c-.12.24-.36.6-.6.84s-.6.48-.96.6c-.24.24-.6.24-.96.24z"/><path fill="#2b2b2b" d="M300.54 312.09c-6.76-7.8-13.51-15.61-20.08-23.19 3.07-4.05 6.27-7.81 8.96-11.9 4.38-6.66 4.97-13.57.28-20.45-2.18-3.2-4.36-6.4-6.66-9.77.96-1.53 1.95-1.57 3.16.02 7.67 10.02 15.37 20.02 22.99 29.94-2.85 4.42-5.66 8.72-8.42 13.04-4.16 6.53-4.01 12.73 1.28 18.67 3.04 3.4 5.89 6.97 8.79 10.5 1.21 1.48 2.33 3.03 3.67 4.8-2.99-.61-5.59-1.17-8.21-1.65-.85-.16-1.73-.18-2.6-.16-10.42.26-14.74 7.94-9.39 16.95 1.7 2.86 4.02 5.34 6.55 8.62-1.62-.38-2.74-.43-3.63-.9-6.09-3.25-11.17-7.73-14.91-13.56-3.21-4.99-2.41-12.12 1.56-17.19 3.49-4.46 8.55-5.76 14.66-3.76.52.17 1.03.37 1.54.56.16-.18.31-.37.47-.55z"/><path d="M393.4 112.18L112.23 393.24a8.54 8.54 0 010-12.13l268.91-268.93c.48-.48.84-.84 1.32-1.08.48-.36.96-.6 1.56-.85.48-.24 1.08-.36 1.56-.48.6-.12 1.09-.12 1.69-.12s1.2 0 1.68.12c.6.12 1.08.24 1.68.48.48.25.96.49 1.45.85.48.24.96.6 1.32 1.08z" class="cls-3"/><path d="M393.4 124.31L124.36 393.24c-.36.48-.84.85-1.32 1.09-.49.36-.97.6-1.45.84-.48.12-1.08.36-1.56.48-.6.12-1.2.12-1.68.12-.6 0-1.21 0-1.69-.12-.6-.12-1.2-.36-1.68-.48-.48-.24-.96-.48-1.44-.84-.48-.24-.96-.61-1.32-1.09L393.4 112.18c.84.72 1.44 1.68 1.8 2.76.48 1.08.72 2.16.72 3.24 0 1.21-.24 2.29-.72 3.37-.36 1.08-.96 1.92-1.8 2.76z" class="cls-9"/><path d="M118 387.48l.72.72c.24.24.48.6.72.84.24.36.36.6.48.96.24.24.36.6.36.84.12.36.24.6.24.96v.84c-.12.24-.12.48-.24.72s-.24.36-.36.61c-.24.12-.36.36-.6.48s-.36.24-.72.24c-.24.12-.48.24-.72.24-.36 0-.61 0-.97-.12-.36 0-.6-.12-.96-.24-.36 0-.6-.12-.96-.36-.36-.12-.6-.36-.96-.49-.36-.24-.6-.48-.84-.72-.36-.24-.6-.48-.84-.72-.24-.36-.48-.6-.72-.96-.13-.24-.37-.6-.49-.84-.12-.36-.24-.6-.36-.96-.12-.24-.12-.6-.24-.84 0-.36 0-.6.12-.84 0-.24 0-.48.12-.72s.24-.48.48-.6a.92.92 0 01.49-.48l.72-.36c.24 0 .48-.13.84-.13h.84c.36.13.72.13.96.25.36.12.72.24.96.36.36.24.72.36.96.6.37.24.61.48.97.72zm46.98-41.32c0 .36 0 .72-.12.96 0 .36-.12.72-.24.96-.12.36-.36.72-.48.96-.24.24-.48.6-.72.84s-.49.36-.73.6c-.36.24-.6.36-.96.48-.24.12-.6.24-.96.24-.36.12-.72.12-.96.12-.36 0-.72 0-1.08-.12-.36 0-.6-.12-.96-.24s-.61-.24-.85-.48c-.36-.24-.6-.36-.84-.6s-.48-.6-.6-.84c-.24-.24-.36-.6-.48-.96-.12-.24-.24-.6-.36-.96 0-.24-.12-.6-.12-.96s.12-.72.12-1.09c.12-.24.24-.6.36-.96.12-.24.24-.6.48-.84.12-.36.36-.6.6-.84s.48-.48.84-.6c.24-.24.49-.36.85-.48s.6-.24.96-.36h2.04c.36.12.72.24.96.36.36.12.6.24.96.48.24.12.49.36.73.6s.48.48.72.84c.12.24.36.6.48.84.12.36.24.72.24.96.12.37.12.73.12 1.09zm-10.58 10.57c0 .36 0 .72-.12 1.08-.12.24-.12.6-.36.96-.12.24-.24.6-.48.84-.12.36-.36.6-.6.84s-.48.48-.72.6c-.36.24-.61.37-.97.49s-.6.24-.96.36h-2.04c-.36-.12-.72-.24-.96-.36-.36-.12-.6-.25-.96-.49-.24-.12-.49-.36-.73-.6s-.48-.48-.72-.84c-.12-.24-.36-.6-.48-.84-.12-.36-.24-.72-.24-.96-.12-.36-.12-.72-.12-1.08s0-.72.12-.96c0-.36.12-.72.24-.96.12-.36.36-.72.48-.96.24-.24.48-.61.72-.85s.49-.36.73-.6c.36-.24.6-.36.96-.48.24-.12.6-.24.96-.24.36-.12.72-.12.96-.12.36 0 .72 0 1.08.12.36 0 .6.12.96.24s.61.24.97.48c.24.24.48.36.72.6s.48.61.6.85c.24.24.36.6.48.96.24.24.24.6.36.96.12.24.12.6.12.96zm20.43-21.02c0 .36 0 .72-.12 1.08 0 .24-.12.61-.25.97-.12.24-.36.6-.48.84-.24.36-.36.6-.72.84-.24.24-.48.48-.72.6-.24.24-.6.36-.96.48-.24.12-.6.24-.96.36-.24 0-.6.12-.96.12s-.72-.12-1.09-.12c-.24-.12-.6-.24-.96-.36-.24-.12-.6-.24-.84-.48-.36-.12-.6-.36-.84-.6s-.48-.48-.6-.84c-.24-.24-.36-.6-.48-.84-.12-.36-.24-.73-.36-.97v-2.04c.12-.36.24-.72.36-.96.12-.36.24-.72.48-.96.12-.24.36-.48.6-.72s.48-.48.84-.72c.24-.12.6-.36.84-.48.36-.12.72-.24.96-.24.37-.12.73-.12 1.09-.12s.72 0 .96.12c.36 0 .72.12.96.24.36.12.72.36.96.48l.72.72c.36.24.48.48.72.72.12.24.36.6.48.96.13.24.25.6.25.96.12.36.12.6.12.96zm10.45-10.45c0 .36 0 .72-.12 1.08-.12.36-.12.6-.24.96-.24.36-.36.6-.48.96-.24.24-.48.48-.72.73l-.72.72c-.36.12-.6.24-.96.48-.36.12-.6.12-.96.24s-.72.12-.97.12c-.36 0-.72 0-1.08-.12-.36-.12-.6-.12-.96-.24-.36-.24-.6-.36-.96-.48l-.72-.72c-.24-.25-.48-.49-.72-.73-.12-.36-.24-.6-.48-.96-.12-.36-.12-.6-.24-.96s-.12-.72-.12-1.08c0-.24 0-.6.12-.96s.12-.6.24-.96c.24-.36.36-.6.48-.96l.72-.72.72-.72c.36-.13.6-.25.96-.49.36-.12.6-.12.96-.24s.72-.12 1.08-.12c.25 0 .61 0 .97.12s.6.12.96.24c.36.24.6.36.96.49l.72.72.72.72c.12.36.24.6.48.96.12.36.12.6.24.96s.12.72.12.96zm21.63-21.5v.97c-.12.36-.24.72-.36.96-.12.36-.24.6-.48.96-.12.24-.36.48-.6.72s-.48.48-.84.72c-.24.12-.6.36-.84.48-.36.12-.73.24-.97.24-.36.12-.72.12-1.08.12s-.72 0-.96-.12c-.36 0-.72-.12-.96-.24-.36-.12-.72-.36-.96-.48-.24-.24-.6-.48-.84-.72s-.36-.48-.61-.72c-.24-.36-.36-.6-.48-.96-.12-.24-.24-.6-.24-.96-.12-.37-.12-.61-.12-.97s0-.72.12-1.08c0-.36.12-.6.24-.96.12-.24.24-.6.48-.84.25-.36.37-.6.61-.84s.6-.48.84-.6c.24-.24.6-.36.96-.48.24-.12.6-.24.96-.36.24 0 .6-.12.96-.12s.72.12 1.08.12c.24.12.61.24.97.36.24.12.6.24.84.48.36.12.6.36.84.6s.48.48.6.84c.24.24.36.6.48.84.12.36.24.6.36.96v1.08zm10.93-10.93c0 .36 0 .72-.12 1.08 0 .24-.12.6-.24.96-.12.24-.36.6-.48.84-.24.36-.48.6-.72.84-.24.25-.48.49-.72.61-.36.24-.6.36-.96.48-.25.12-.61.24-.97.36-.36 0-.6.12-.96.12s-.72-.12-1.08-.12c-.36-.12-.6-.24-.96-.36s-.6-.24-.84-.48c-.36-.12-.6-.36-.84-.61-.25-.24-.49-.48-.61-.84-.24-.24-.36-.6-.48-.84-.12-.36-.24-.72-.36-.96 0-.36-.12-.72-.12-1.08s.12-.6.12-.96c.12-.36.24-.72.36-.96.12-.36.24-.72.48-.96.12-.24.36-.48.61-.72.24-.24.48-.48.84-.72.24-.13.48-.37.84-.49s.6-.24.96-.24c.36-.12.72-.12 1.08-.12s.6 0 .96.12c.36 0 .72.12.97.24.36.12.6.36.96.49l.72.72.72.72c.12.24.36.6.48.96.12.24.24.6.24.96.12.36.12.6.12.96zm10.7-10.69c0 .36 0 .72-.12.96 0 .36-.12.72-.24 1.08-.12.24-.36.6-.48.84-.24.24-.36.6-.6.84s-.6.36-.84.6c-.25.24-.61.36-.97.48-.24.12-.6.24-.96.36h-2.04c-.24-.12-.6-.24-.96-.36-.24-.12-.6-.24-.84-.48-.37-.24-.61-.36-.85-.6s-.48-.6-.6-.84c-.24-.24-.36-.6-.48-.84l-.36-1.08v-1.92c.12-.36.24-.72.36-1.09.12-.24.24-.6.48-.84.12-.24.36-.6.6-.84s.48-.36.85-.6c.24-.24.6-.36.84-.48.36-.12.72-.24.96-.36h2.04c.36.12.72.24.96.36.36.12.72.24.97.48.24.24.6.36.84.6s.36.6.6.84c.12.24.36.6.48.84.12.37.24.73.24 1.09.12.24.12.6.12.96zm-32.57 32.79c0 .36 0 .6-.12.96s-.12.72-.24.96c-.24.36-.36.6-.6.96-.12.24-.36.48-.6.72l-.72.72c-.36.12-.6.36-.96.48s-.6.24-.96.24c-.37.12-.73.12-1.09.12-.24 0-.6 0-.96-.12-.36 0-.72-.12-.96-.24-.36-.12-.6-.36-.96-.48l-.72-.72-.72-.72c-.12-.36-.36-.6-.49-.96-.12-.24-.24-.6-.24-.96-.12-.36-.12-.6-.12-.96s0-.72.12-1.08c0-.24.12-.6.24-.96.13-.25.37-.61.49-.85.24-.36.48-.6.72-.84s.48-.48.72-.6c.36-.24.6-.36.96-.48.24-.12.6-.24.96-.36.36 0 .72-.12.96-.12.36 0 .72.12 1.09.12.36.12.6.24.96.36s.6.24.96.48c.24.12.48.36.72.6s.48.48.6.84c.24.24.36.6.6.85.12.36.12.72.24.96.12.36.12.72.12 1.08zm-42.89 51.05c-.12-.12-.36-.36-.48-.72-.12-.24-.12-.48-.12-.84 0-.24 0-.48.12-.84.12-.24.36-.48.48-.72l77.74-77.6c.12-.24.36-.36.72-.48.25-.12.49-.12.85-.12.24 0 .6 0 .84.12s.48.24.72.48c.12.24.36.48.48.72s.12.48.12.84c0 .24 0 .6-.12.84s-.36.48-.48.72l-77.74 77.6c-.12.24-.36.36-.72.48-.24.12-.48.24-.84.24-.24 0-.48-.12-.84-.24-.24-.12-.48-.24-.72-.48z" class="cls-8"/><path d="M223.37 284.54l2.52-2.4 4.93 4.92-2.4 2.53-5.05-5.05zm-10.7 10.81l2.41-2.52 5.04 5.05-2.52 2.4-4.93-4.93zm-10.93 10.82l2.53-2.41 4.93 4.93-2.41 2.52-5.05-5.04zm-11.05 11.17l2.53-2.4 4.93 4.92-2.41 2.53-5.05-5.05zm-9.13 10.33l2.4-2.52 5.05 5.05-2.52 2.4-4.93-4.93zm-10.82 10.81l2.52-2.53 4.93 5.05-2.4 2.4-5.05-4.92zm-21.15 21.02l2.53-2.4 5.04 4.93-2.52 2.52-5.05-5.05zm10.7-10.69l2.52-2.4 4.93 4.92-2.4 2.53-5.05-5.05z" class="cls-8"/><path d="M239.71 265.57l-5.05 5.16c-4.93-4.8-7.69-9.85-6.25-11.29 1.44-1.44 6.49 1.32 11.3 6.13z" class="cls-7"/><path d="M245.96 276.97c-1.44 1.44-6.49-1.32-11.3-6.13v-.12l5.05-5.16.12.12c4.81 4.8 7.57 9.85 6.13 11.29z" class="cls-4"/><path d="M286.09 231.57c-1.44 1.45-5.29-.12-8.65-3.48l5.17-5.17c3.37 3.37 4.93 7.33 3.49 8.65z" class="cls-9"/><path d="M267.11 220.76c1.44-1.44 8.29-.48 13.09 4.45h.12l-42.53 42.52 8.65 8.77-.6.48-8.66-8.65-8.77-8.77 38.69-38.8z" class="cls-7"/><path d="M238.03 267.61l-5.17 5.17c-3.49-3.37-5.05-7.33-3.61-8.78 1.44-1.32 5.29.25 8.65 3.61h.12z" class="cls-3"/><path d="M245.84 277.1l-9.38-8.05 43.86-43.84c4.81 4.8 5.77 11.53 4.45 12.97l-38.93 38.92z" class="cls-4"/><path d="M241.39 276.26c-1.44 1.45-5.29-.12-8.65-3.48l5.17-5.17c3.37 3.37 4.93 7.33 3.49 8.65z" class="cls-9"/><path d="M327.19 178.24l-5.17 5.17c-4.81-4.81-7.57-9.85-6.13-11.29 1.32-1.44 6.49 1.32 11.3 6.13z" class="cls-7"/><path d="M333.31 189.53c-1.44 1.44-6.49-1.32-11.3-6.12l5.17-5.17c4.81 4.8 7.57 9.97 6.13 11.29z" class="cls-4"/><path d="M325.15 180.4l8.77 8.65-.6.6-8.77-8.77-8.77-8.77 40.49-40.36v-.12c1.45-1.44 6.61 1.32 11.41 6.13v.12l-42.53 42.52z" class="cls-7"/><path d="M325.39 180.29l-5.17 5.17v-.12c-3.37-3.37-5.05-7.21-3.61-8.65 1.45-1.44 5.41.12 8.77 3.6z" class="cls-3"/><path d="M373.81 149.17h-.12l-40.49 40.48-9.25-8.05 43.73-43.72c4.81 4.8 7.58 9.85 6.13 11.29z" class="cls-4"/><path d="M328.75 188.93c-1.32 1.44-5.28-.24-8.65-3.48l5.17-5.17c3.36 3.37 4.93 7.21 3.48 8.65z" class="cls-9"/><path d="M219.04 321.54c0-.36-.12-.85-.24-1.21s-.36-.72-.72-.96c-.24-.24-.6-.48-.96-.6-.36-.24-.72-.24-1.2-.24h-5.41l-3.97-4.08c-1.2-1.08-3.12-1.08-4.33 0-1.2 1.2-1.2 3.12 0 4.32l4.69 4.81h.12c.6.6 1.32.96 2.29.96h6.61c.48 0 .84 0 1.2-.24.36-.12.72-.36.96-.6.36-.36.6-.6.72-.96s.24-.84.24-1.2zm123.05-158.07c-.24-.12-.36-.36-.6-.6-.12-.24-.24-.48-.36-.84-.12-.24-.24-.48-.24-.72-.12-.36-.12-.6-.12-.96 0-.24 0-.48.12-.84 0-.24.12-.48.24-.85l.36-.72c.24-.24.36-.48.6-.72l3.6-3.6c.24-.24.48-.36.73-.6l.72-.36c.36-.12.6-.24.84-.24.36-.12.6-.12.84-.12.36 0 .6 0 .96.12.24 0 .48.12.72.24.36.12.6.24.84.36.24.24.48.36.6.6.25.12.49.36.61.6s.24.48.36.84c.12.24.24.48.24.84.12.24.12.48.12.84 0 .24 0 .6-.12.84 0 .24-.12.6-.24.84s-.24.49-.36.73-.36.48-.61.72l-3.6 3.6c-.24.24-.48.48-.72.6l-.72.36c-.24.12-.6.24-.85.24-.24.12-.6.12-.84.12-.36 0-.6 0-.84-.12-.36 0-.6-.12-.84-.24s-.6-.24-.84-.36-.36-.36-.6-.6z" class="cls-8"/><path d="M267.83 223.77c4.45.72 8.77 3.6 11.3 7.2 1.32 1.93 2.16 4.21 2.52 6.49.12.84 1.44.48 1.32-.36-.36-2.04-.96-3.96-2.04-5.65-.96-1.8-2.28-3.36-3.85-4.56-2.16-1.92-4.56-3.25-7.33-4.09-.48-.12-.96-.24-1.56-.36-.84-.24-1.2 1.08-.36 1.33zm50.23-50.33c4.2 1.08 8.41 4.21 10.69 7.93 1.33 2.05 2.05 4.21 2.53 6.49.12.84 1.44.48 1.32-.36-1.32-6.97-6.25-12.25-12.74-14.78-.48-.24-.96-.48-1.56-.6-.73-.24-1.09 1.08-.24 1.32zM113.31 383.87h.96c.12.12.24.12.36.12h.48c.36.12.84.24 1.2.24 1.81.6 3.61 1.57 4.69 3.25.72 1.32.96 2.88.84 4.32 0 .84 1.33.84 1.45 0 .12-2.76-.85-5.52-3.25-7.21-1.56-1.2-3.49-1.8-5.41-1.92-.48-.12-.84-.12-1.32-.12-.84 0-.84 1.32 0 1.32zM230.7 260.76c4.33 1.08 8.41 4.21 10.81 7.93 1.2 2.04 2.05 4.21 2.41 6.49.12.84 1.44.48 1.32-.36-1.2-6.97-6.25-12.26-12.61-14.78-.6-.24-1.09-.48-1.57-.6-.84-.24-1.2 1.08-.36 1.32z" class="cls-9"/><path d="M151.39 356.97c0 .24-.12.6-.24.84s-.24.48-.48.72c-.12.12-.36.36-.72.48-.24.12-.48.12-.72.12-.36 0-.6 0-.84-.12-.36-.12-.6-.36-.72-.48-.24-.24-.36-.48-.48-.72s-.24-.6-.24-.84.12-.6.24-.84.24-.48.48-.72c.12-.24.36-.36.72-.48.24-.12.48-.12.84-.12.24 0 .48 0 .72.12.36.12.6.24.72.48.24.24.36.48.48.72s.24.6.24.84zm10.34-10.93c0 .24-.12.6-.24.84s-.24.48-.48.72c-.12.12-.36.36-.6.48-.36 0-.6.12-.84.12-.36 0-.6-.12-.84-.12-.36-.12-.48-.36-.72-.48-.24-.24-.36-.48-.48-.72s-.12-.6-.12-.84c0-.36 0-.6.12-.84.12-.25.24-.49.48-.73s.36-.36.72-.48c.24-.12.48-.12.84-.12.24 0 .48 0 .84.12.24.12.48.24.6.48.24.24.36.48.48.73.12.24.24.48.24.84zm10.21-10.09c0 .24-.12.6-.24.84s-.24.48-.48.72c-.12.12-.36.36-.72.48-.24.12-.48.12-.72.12-.36 0-.6 0-.84-.12-.36-.12-.6-.36-.72-.48-.24-.24-.36-.48-.48-.72s-.24-.6-.24-.84.12-.6.24-.84.24-.48.48-.72c.12-.24.36-.36.72-.48.24-.12.48-.12.84-.12.24 0 .48 0 .72.12.36.12.6.24.72.48.24.24.36.48.48.72s.24.6.24.84zm10.22-10.81c0 .36 0 .6-.12.84s-.24.48-.48.72-.48.36-.72.48-.48.12-.85.12c-.24 0-.48 0-.84-.12-.24-.12-.48-.24-.72-.48-.12-.24-.36-.48-.36-.72-.12-.24-.24-.48-.24-.84 0-.24.12-.48.24-.84 0-.24.24-.48.36-.72.24-.12.48-.36.72-.36.36-.12.6-.24.84-.24.37 0 .61.12.85.24.24 0 .48.24.72.36.24.24.36.48.48.72.12.36.12.6.12.84zm10.81-10.45c0 .24 0 .48-.12.72-.12.36-.24.6-.48.72-.24.24-.48.36-.73.48-.24.12-.48.24-.84.24-.24 0-.48-.12-.84-.24-.24-.12-.48-.24-.6-.48-.24-.12-.36-.36-.48-.72-.12-.24-.24-.48-.24-.72 0-.36.12-.6.24-.84.12-.36.24-.6.48-.72.12-.24.36-.37.6-.49.36-.12.6-.24.84-.24.36 0 .6.12.84.24.25.12.49.25.73.49.24.12.36.36.48.72.12.24.12.48.12.84zm10.82-11.05c0 .24 0 .6-.12.84-.12.25-.36.49-.48.73-.25.12-.49.36-.73.48s-.6.12-.84.12-.6 0-.84-.12-.48-.36-.72-.48c-.12-.24-.36-.48-.48-.73-.12-.24-.12-.6-.12-.84s0-.6.12-.84.36-.48.48-.72c.24-.24.48-.36.72-.48s.6-.12.84-.12.6 0 .84.12.48.24.73.48c.12.24.36.48.48.72s.12.6.12.84zm11.05-10.69c0 .24-.12.6-.12.84-.12.24-.37.48-.49.72-.24.12-.48.36-.72.48s-.6.12-.84.12c-.36 0-.6 0-.84-.12s-.48-.36-.72-.48c-.24-.24-.36-.48-.48-.72s-.12-.6-.12-.84 0-.6.12-.84.24-.48.48-.72.48-.36.72-.48.48-.12.84-.12c.24 0 .6 0 .84.12s.48.24.72.48c.12.24.37.48.49.72 0 .24.12.6.12.84zm10.93-10.93c0 .36 0 .6-.12.84s-.24.48-.48.72-.36.36-.72.48c-.24.12-.48.12-.84.12-.24 0-.48 0-.84-.12-.24-.12-.48-.24-.6-.48-.24-.24-.36-.48-.48-.72s-.24-.48-.24-.84c0-.24.12-.48.24-.84.12-.24.24-.48.48-.6.12-.25.36-.37.6-.49.36-.12.6-.24.84-.24.36 0 .6.12.84.24.36.12.48.24.72.49.24.12.36.36.48.6.12.36.12.6.12.84z" class="cls-3"/></svg>