<?xml version="1.0" encoding="utf-8"?>
<!-- Generator: Adobe Illustrator 24.3.0, SVG Export Plug-In . SVG Version: 6.00 Build 0)  -->
<svg version="1.0" id="Layer_1" xmlns="http://www.w3.org/2000/svg" xmlns:xlink="http://www.w3.org/1999/xlink" x="0px" y="0px"
	 viewBox="0 0 300 300" enable-background="new 0 0 300 300" xml:space="preserve">
<g>
	<ellipse fill="#FFFFFF" cx="150.042" cy="150.002" rx="150.001" ry="150.001"/>
	<circle fill="#86BF5A" cx="150.044" cy="150.002" r="140.814"/>
</g>
<g>
	<path fill="#EFEFEF" d="M216.036,149.535H109.623l0,0c-0.565,0-1.118-0.158-1.597-0.457l-25.914-17.834
		c-2.012-1.254-1.531,3.804-1.53,6.175l0.003,12.441c0,2.107,1.047,4.076,2.792,5.255l19.193,12.889
		c4.598,3.088,10.012,4.737,15.551,4.737h97.916c2.166,0,3.922-1.756,3.922-3.922v-15.362
		C219.958,151.291,218.202,149.535,216.036,149.535z"/>
	<path fill="#E59623" d="M217.432,150.776l-100.086,0.065c-5.387,0.003-10.665-1.515-15.227-4.382l-20.688-13
		c-1.457-0.915-0.808-3.166,0.912-3.166h107.788c0.321,0,0.636,0.09,0.908,0.26l27.299,17.054
		C219.799,148.52,219.154,150.775,217.432,150.776z"/>
	<path fill="none" stroke="#E59623" stroke-miterlimit="10" d="M217.432,151.073l-100.086,0.065
		c-5.387,0.003-10.665-1.515-15.227-4.382l-20.688-13c-1.457-0.915-0.808-3.166,0.912-3.166h107.788c0.321,0,0.636,0.09,0.908,0.26
		l27.299,17.054C219.799,148.817,219.154,151.072,217.432,151.073z"/>
	<g>
		<path fill="#3D3D3D" d="M127.162,168.525h-0.361c-1.229,0-2.225-0.996-2.225-2.225v-6.548c0-1.229,0.996-2.225,2.225-2.225h0.361
			c1.229,0,2.225,0.996,2.225,2.225v6.548C129.387,167.528,128.391,168.525,127.162,168.525z"/>
		<path fill="#3D3D3D" d="M134.599,168.525h-0.361c-1.229,0-2.225-0.996-2.225-2.225v-6.548c0-1.229,0.996-2.225,2.225-2.225h0.361
			c1.229,0,2.225,0.996,2.225,2.225v6.548C136.824,167.528,135.828,168.525,134.599,168.525z"/>
		<path fill="#3D3D3D" d="M142.035,168.525h-0.361c-1.229,0-2.225-0.996-2.225-2.225v-6.548c0-1.229,0.996-2.225,2.225-2.225h0.361
			c1.229,0,2.225,0.996,2.225,2.225v6.548C144.261,167.528,143.264,168.525,142.035,168.525z"/>
		<path fill="#3D3D3D" d="M149.472,168.525h-0.361c-1.229,0-2.225-0.996-2.225-2.225v-6.548c0-1.229,0.996-2.225,2.225-2.225h0.361
			c1.229,0,2.225,0.996,2.225,2.225v6.548C151.697,167.528,150.701,168.525,149.472,168.525z"/>
		<path fill="#3D3D3D" d="M156.909,168.525h-0.361c-1.229,0-2.225-0.996-2.225-2.225v-6.548c0-1.229,0.996-2.225,2.225-2.225h0.361
			c1.229,0,2.225,0.996,2.225,2.225v6.548C159.134,167.528,158.138,168.525,156.909,168.525z"/>
		<path fill="#3D3D3D" d="M164.345,168.525h-0.361c-1.229,0-2.225-0.996-2.225-2.225v-6.548c0-1.229,0.996-2.225,2.225-2.225h0.361
			c1.229,0,2.225,0.996,2.225,2.225v6.548C166.571,167.528,165.574,168.525,164.345,168.525z"/>
		<path fill="#3D3D3D" d="M171.782,168.525h-0.361c-1.229,0-2.225-0.996-2.225-2.225v-6.548c0-1.229,0.996-2.225,2.225-2.225h0.361
			c1.229,0,2.225,0.996,2.225,2.225v6.548C174.007,167.528,173.011,168.525,171.782,168.525z"/>
		<path fill="#3D3D3D" d="M179.219,168.525h-0.361c-1.229,0-2.225-0.996-2.225-2.225v-6.548c0-1.229,0.996-2.225,2.225-2.225h0.361
			c1.229,0,2.225,0.996,2.225,2.225v6.548C181.444,167.528,180.448,168.525,179.219,168.525z"/>
		<path fill="#3D3D3D" d="M186.655,168.525h-0.361c-1.229,0-2.225-0.996-2.225-2.225v-6.548c0-1.229,0.996-2.225,2.225-2.225h0.361
			c1.229,0,2.225,0.996,2.225,2.225v6.548C188.881,167.528,187.884,168.525,186.655,168.525z"/>
		<path fill="#3D3D3D" d="M194.092,168.525h-0.361c-1.229,0-2.225-0.996-2.225-2.225v-6.548c0-1.229,0.996-2.225,2.225-2.225h0.361
			c1.229,0,2.225,0.996,2.225,2.225v6.548C196.317,167.528,195.321,168.525,194.092,168.525z"/>
		<path fill="#3D3D3D" d="M201.529,168.525h-0.361c-1.229,0-2.225-0.996-2.225-2.225v-6.548c0-1.229,0.996-2.225,2.225-2.225h0.361
			c1.229,0,2.225,0.996,2.225,2.225v6.548C203.754,167.528,202.758,168.525,201.529,168.525z"/>
		<path fill="#3D3D3D" d="M208.965,168.525h-0.361c-1.229,0-2.225-0.996-2.225-2.225v-6.548c0-1.229,0.996-2.225,2.225-2.225h0.361
			c1.229,0,2.225,0.996,2.225,2.225v6.548C211.191,167.528,210.194,168.525,208.965,168.525z"/>
	</g>
	<g>
		<g>
			<path fill="#C9C9C9" d="M106.121,143.643l-10.461-6.73c-0.959-0.617-0.517-2.105,0.623-2.098l9.862,0.058
				c0.239,0.001,0.471,0.078,0.664,0.218l10.46,7.617c0.895,0.652,0.429,2.068-0.678,2.061l-6.84-0.046
				C108.463,144.714,107.204,144.339,106.121,143.643z"/>
			<path fill="#B7B7B7" d="M195.721,143.643l-10.461-6.73c-0.959-0.617-0.517-2.105,0.623-2.098l9.862,0.058
				c0.239,0.001,0.471,0.078,0.664,0.218l10.46,7.617c0.895,0.652,0.429,2.068-0.678,2.061l-6.84-0.046
				C198.063,144.714,196.804,144.339,195.721,143.643z"/>
			<path fill="#E2E2E2" d="M197.896,144.717l-79.235,0.051c-0.907,0.001-1.795-0.255-2.563-0.738l-12.553-7.888
				c-4.087-2.568-2.268-8.884,2.56-8.884h79.243c0.901,0,1.785,0.253,2.549,0.731l12.545,7.837
				C204.54,138.386,202.728,144.714,197.896,144.717z"/>
		</g>
		<g>
			<ellipse fill="#3D3D3D" cx="105.272" cy="139.084" rx="1.593" ry="0.435"/>
			<rect x="103.678" y="136.484" fill="#3D3D3D" width="3.18" height="2.612"/>
			<ellipse fill="#5E5E5E" cx="105.272" cy="136.472" rx="1.593" ry="0.435"/>
		</g>
	</g>
	<g>
		<rect x="105.228" y="136.151" fill="#E2E2E2" width="0.173" height="0.558"/>
		<rect x="104.414" y="136.354" fill="#E2E2E2" width="1.801" height="0.153"/>
	</g>
</g>
<g>
	<ellipse fill="#494949" cx="150.042" cy="127.731" rx="29.419" ry="11.901"/>
	<path fill="#3F3F3F" d="M167.097,126.465c0,0-4.655,4.881-17.055,4.881c-12.4,0-17.055-4.881-17.055-4.881l4.756-23.561
		c0.472-2.336,2.808-3.796,5.115-3.197l7.185,1.868l7.185-1.868c2.306-0.6,4.643,0.861,5.115,3.197L167.097,126.465z"/>
</g>
</svg>
