<svg xmlns="http://www.w3.org/2000/svg" version="1.0" viewBox="0 0 300 300"><circle cx="150" cy="150" r="150" fill="#FFF"/><circle cx="150" cy="150" r="140.8" fill="#DC5063"/><path fill="#110709" d="M178.645 176.539c-2.301-4.309-2.743-9.551-.825-14.072a37.91 37.91 0 002.997-14.763c.003-3.246 0-10.259 0-10.259s-5.812-1.946-7.636.559c-2.932 4.03-5.079 7.163-11.261 7.163-7.552 0-11.33-8.853-13.304-15.126-.87-2.764-.432-7.911-.432-7.911l-1.581.019s-1.517 14.824-11.454 14.824c-4.314 0-6.782-2.959-8.158-6.309-1.488-3.627-12.06 6.749-12.06 6.749v10.259c0 5.248 1.066 10.227 2.976 14.705 1.941 4.552 1.525 9.829-.793 14.173-2.298 4.308-7.377 8.036-7.377 8.036v10.259c.004 21.635 19.541 28.965 38.137 28.965 16.947 0 38.137-7.329 38.137-28.965v-10.259s-4.881-3.392-7.366-8.047z"/><radialGradient id="a" cx="147.874" cy="162.714" r="44.94" gradientUnits="userSpaceOnUse"><stop offset=".024" stop-color="#e9c300"/><stop offset="1" stop-color="#7f0003"/></radialGradient><path fill="url(#a)" d="M178.645 166.281c-2.3-4.31-2.198-9.357-.825-14.072 1.42-4.874 2.993-9.566 2.997-14.763.003-3.246-.979-8.49-5.169-8.49-5.998 0-6.705 5.954-12.423 5.954-7.552 0-12.635-8.853-14.609-15.126-.87-2.764-.432-7.911-.432-7.911l-1.581.019s-1.517 14.824-11.454 14.824c-4.314 0-6.782-2.959-8.158-6.309-1.488-3.627-6.169-3.921-7.911-.426-2.203 4.415-4.149 10.328-4.149 17.435 0 5.248 1.39 10.193 2.976 14.705 1.64 4.668 1.525 9.829-.793 14.173-5.315 9.965-7.377 13.457-7.377 18.295.004 21.635 19.541 28.965 38.137 28.965 16.947 0 38.137-7.329 38.137-28.965-.001-4.838-2.054-8.359-7.366-18.308z"/><path fill="#110709" d="M154.428 67.097c1.783-1.194 2.951-3.303 2.951-5.726 0-1.382-.023-4.226-.023-4.226s-4.033-2.536-6.295-2.536c-2.86 0-5.381 1.934-6.253 4.603a.223.223 0 00-.024-.019c-2.643 7.985-3.904 11.977-6.416 19.963v2.841c0 1.4.318 2.649 1.437 3.208.516.257.774.386 1.294.643a5.022 5.022 0 002.235.522h10.514c.506 0 .913-.438.913-.979v-.64c0-.208.102-.398.268-.503.678-.425 1.016-.639 1.686-1.064.397-.252.531-.737.531-1.254v-3.407a2470.47 2470.47 0 00-2.818-11.426z"/><radialGradient id="b" cx="152.419" cy="42.226" r="10.931" gradientUnits="userSpaceOnUse"><stop offset=".024" stop-color="#e9c300"/><stop offset="1" stop-color="#7f0003"/></radialGradient><path fill="url(#b)" d="M154.428 63.439c2.209-1.479 3.48-4.363 2.741-7.508-.545-2.32-2.266-4.19-4.464-4.765-3.499-.916-6.86 1.217-7.896 4.388a.223.223 0 00-.024-.019c-2.6 9.121-3.842 13.682-6.314 22.804-.348 1.283.216 2.649 1.336 3.208l.733.366a7.66 7.66 0 003.425.799h9.883c.506 0 .913-.438.913-.979v-.64c0-.208.102-.398.268-.503.678-.425 1.016-.639 1.686-1.064.397-.252.601-.752.51-1.242a4300.232 4300.232 0 00-2.797-14.845z"/><path fill="#282022" stroke="#FFE5C5" stroke-miterlimit="10" stroke-width=".5" d="M141.732 141.217c3.85-.414 7.72.46 11.174 2.21 2.737 1.387 6.751 3.08 10.038 3.08 4.999 0 6.243-4.798 8.795-4.798 2.246 0 2.785 2.269 2.785 4.073 0 5.019-3.666 10.902-3.666 16.955 0 5.494 4.583 9.447 6.824 18.294.399 1.574.599 3.195.617 4.819.076 6.829.305 14.161-4.331 15.861-9.771 3.581 4.358-19.126-25.065-20.191-2.559-.093-4.497.315-6.603.275-3.981-.074-7.084-3.446-6.734-7.413.38-4.299 3.009-9.119 3.009-14.183 0-6.542-6.506-12.196-2.1-16.89 1.203-1.282 3.186-1.869 5.257-2.092z"/><path fill="#FFE7C5" d="M153.184 85.647v59.822c0 .551-.234.986-.532.986h-9.557c-.298 0-.532-.435-.532-.986V85.647c0-.537.234-.986.532-.986h9.557c.298-.002.532.448.532.986z"/><path fill="none" stroke="#3F3F3F" stroke-linecap="round" stroke-miterlimit="10" stroke-width="1.043" d="M146.642 197.581V71.368m2.827 126.213V61.316"/><path fill="#918E8B" d="M155.034 177.349h-14.487a1.805 1.805 0 01-1.805-1.805v-4.053c0-.997.808-1.805 1.805-1.805h14.487c.997 0 1.805.808 1.805 1.805v4.053c0 .997-.808 1.805-1.805 1.805zm-15.711 16.191s-4.452 5.734-2.927 7.911c1.524 2.177 7.089-.121 7.089-.121l-4.162-7.79zm17.125 0s4.452 5.734 2.927 7.911-7.089-.121-7.089-.121l4.162-7.79z"/><path fill="#CCC" d="M155.034 202.678h-14.39a1.805 1.805 0 01-1.805-1.805v-7.746c0-.997.808-1.805 1.805-1.805h14.39c.997 0 1.805.808 1.805 1.805v7.746c0 .997-.808 1.805-1.805 1.805zm-1.508-24.176H141.79a1.805 1.805 0 01-1.805-1.805v-6.072c0-.997.808-1.805 1.805-1.805h11.737c.997 0 1.805.808 1.805 1.805v6.072a1.806 1.806 0 01-1.806 1.805z"/><circle cx="171.645" cy="187.403" r="2.283" fill="#DBC8CC"/><path fill="#4F4F4F" d="M173.465 186.937v.466a1.82 1.82 0 01-3.64 0v-.466c0-.357.102-.689.281-.971h.425c.308-.24.694-.383 1.114-.383s.806.143 1.114.383h.425a1.8 1.8 0 01.281.971z"/><path fill="#686868" d="M173.465 186.937a1.82 1.82 0 11-3.64 0 1.82 1.82 0 013.64 0z"/><circle cx="169.363" cy="181.132" r="2.283" fill="#DBC8CC"/><path fill="#4F4F4F" d="M171.183 180.666v.466a1.82 1.82 0 01-3.64 0v-.466c0-.357.102-.689.281-.971h.425c.308-.24.694-.383 1.114-.383s.806.143 1.114.383h.425c.179.282.281.614.281.971z"/><path fill="#686868" d="M171.183 180.666a1.82 1.82 0 11-3.64 0 1.82 1.82 0 013.64 0z"/><circle cx="173.928" cy="193.671" r="2.283" fill="#DBC8CC"/><path fill="#4F4F4F" d="M175.748 193.206v.466a1.82 1.82 0 01-3.64 0v-.466c0-.357.102-.689.281-.971h.425c.308-.24.694-.383 1.114-.383s.806.143 1.114.383h.425a1.8 1.8 0 01.281.971z"/><path fill="#686868" d="M175.748 193.206a1.82 1.82 0 11-3.64 0 1.82 1.82 0 013.64 0z"/></svg>