<?xml version="1.0" encoding="utf-8"?>
<!-- Generator: Adobe Illustrator 23.0.6, SVG Export Plug-In . SVG Version: 6.00 Build 0)  -->
<svg version="1.0" id="Camada_1" xmlns="http://www.w3.org/2000/svg" xmlns:xlink="http://www.w3.org/1999/xlink" x="0px" y="0px"
	 viewBox="0 0 300 300" enable-background="new 0 0 300 300" xml:space="preserve">
<g>
	
		<ellipse transform="matrix(0.7071 -0.7071 0.7071 0.7071 -62.4063 149.8862)" fill="#FFFFFF" cx="149.725" cy="150.274" rx="149.726" ry="149.725"/>
	<circle fill="#EB595B" cx="149.726" cy="150.274" r="140.555"/>
</g>
<g>
	<path fill="#A8A8A8" d="M171.05,174.941l3.078-3.503c0.901-1.025,2.534-4.756,2.303-3.411l-4.226,29.441
		c0.169,0.439,0.302,0.786,0.471,1.225l20.557,16.164c0.232,0.182,0.365,0.462,0.361,0.757l-0.054,3.499
		c0.242,0.236,0.109,0.648-0.226,0.696l-29.439,9.732c-0.173,0.057-0.325,0.163-0.439,0.305l-13.521,16.802
		c-0.394,0.489-1.146,0.465-1.508-0.048l-11.787-16.717c-0.117-0.165-0.283-0.289-0.476-0.353l-29.403-9.721
		c-0.335-0.049-0.469-0.46-0.226-0.696l-0.18-3.503c-0.016-0.308,0.119-0.604,0.363-0.793l20.678-16.125
		c0.17-0.44,0.304-0.786,0.474-1.226l-4.37-29.44c-0.231-1.345,2.054,2.249,2.955,3.274l2.571,3.64
		C140.151,187.625,159.906,187.625,171.05,174.941z"/>
	<path fill="#A8A8A8" d="M157.6,93.673h-15.168c-0.428,0-0.805-0.285-0.92-0.698l-4.67-19.557c-0.216-0.77,0.923-2.015,1.661-1.705
		l1.286,4.052c0.753,0.317,1.531-0.397,1.28-1.174l-3.536-16.207c-0.233-0.721,1.272-0.331,2.003-0.134l6.563,4.143
		c0.43,0.116,0.883-0.081,1.092-0.474l3.012-5.658c0.378-0.711,1.412-0.664,1.724,0.079l2.407,5.727
		c0.186,0.443,0.672,0.679,1.135,0.551l6.819-4.323c0.769-0.212,2.373-0.825,2.064-0.09l-4.743,16.428
		c-0.316,0.752,0.396,1.529,1.172,1.28l3.211-4.603c0.767-0.245,1.102,1.584,0.808,2.334l-6.311,19.424
		C158.347,93.432,157.994,93.673,157.6,93.673z"/>
	<path fill="#FFFFFF" d="M171.035,170.666l2.927-3.331c0.933-1.062,2.674-0.231,2.435,1.162l-4.243,24.738
		c-0.078,0.455,0.073,0.919,0.403,1.241l20.932,20.404c0.242,0.236,0.109,0.648-0.226,0.696l-29.425,9.727
		c-0.182,0.06-0.342,0.171-0.462,0.32l-13.471,16.74c-0.414,0.515-1.206,0.489-1.586-0.05l-11.741-16.651
		c-0.123-0.174-0.298-0.304-0.5-0.371l-29.387-9.716c-0.335-0.049-0.469-0.46-0.226-0.696l20.932-20.404
		c0.33-0.322,0.481-0.786,0.403-1.241l-4.243-24.738c-0.239-1.394,1.502-2.225,2.435-1.162l2.927,3.331
		C140.082,183.373,159.871,183.373,171.035,170.666z"/>
	<rect x="142.003" y="197.948" fill="#363538" width="16.067" height="2.872"/>
	<rect x="142.003" y="201.901" fill="#363538" width="16.067" height="2.872"/>
	<rect x="142.003" y="205.764" fill="#363538" width="16.067" height="2.872"/>
	<rect x="142.003" y="209.717" fill="#363538" width="16.067" height="2.872"/>
	<rect x="142" y="209.178" fill="#C9C9C9" width="16.067" height="2.872"/>
	<rect x="142.003" y="205.218" fill="#C9C9C9" width="16.067" height="2.872"/>
	<rect x="142.003" y="201.298" fill="#C9C9C9" width="16.067" height="2.872"/>
	<rect x="142.003" y="197.491" fill="#C9C9C9" width="16.067" height="2.872"/>
	<rect x="142.003" y="194.217" fill="#363538" width="16.067" height="2.872"/>
	<rect x="142.003" y="193.538" fill="#C9C9C9" width="16.067" height="2.872"/>
	<path fill="#FFCD7D" d="M155.981,90.163c0,30.225,0,65.709,0,95.934c0,0.884-0.268,1.582-0.61,1.582c-4.269,0-6.688,0-10.957,0
		c-0.342,0-0.61-0.698-0.61-1.582c0-30.225,0-65.709,0-95.934c0-0.862,0.268-1.583,0.61-1.583c4.269,0,6.688,0,10.957,0
		C155.713,88.581,155.981,89.302,155.981,90.163z"/>
	<rect x="143.774" y="88.194" fill="#BF9455" width="12.194" height="4.677"/>
	<rect x="143.774" y="184.71" fill="#BF9455" width="12.194" height="4.677"/>
	<path fill="#FFFFFF" d="M157.266,89.006h-14.403c-0.407,0-0.764-0.271-0.874-0.663l-4.464-15.935
		c-0.205-0.731,0.525-1.375,1.225-1.081l1.602,0.674c0.715,0.301,1.454-0.377,1.215-1.115l-4.037-12.503
		c-0.221-0.685,0.405-1.342,1.099-1.155l7.714,2.076c0.408,0.11,0.838-0.077,1.037-0.45l2.86-5.373
		c0.359-0.675,1.341-0.63,1.637,0.075l2.286,5.438c0.177,0.421,0.638,0.644,1.078,0.523l8.061-2.226
		c0.73-0.202,1.371,0.527,1.078,1.226l-5.208,12.409c-0.3,0.714,0.376,1.451,1.113,1.215l2.999-0.96
		c0.728-0.233,1.4,0.484,1.121,1.195l-6.297,16.053C157.975,88.777,157.639,89.006,157.266,89.006z"/>
	<path fill-rule="evenodd" clip-rule="evenodd" fill="#E0464E" d="M139.242,205.146c0-0.163,0-15.1,0-15.182
		s-3.293-4.358-3.293-4.358l1.28,8.412l-8.131,7.745l-0.04,1.025L139.242,205.146z"/>
	<path fill-rule="evenodd" clip-rule="evenodd" fill="#D12A3A" d="M139.251,204.106c0,0,0-15.1,0-15.182s-3.333-3.333-3.333-3.333
		l1.32,7.387l-8.141,8.785L139.251,204.106z"/>
	<path fill-rule="evenodd" clip-rule="evenodd" fill="#E0464E" d="M160.466,205.146c0-0.163,0-15.1,0-15.182
		s3.333-4.225,3.333-4.225l-1.32,8.279l8.171,7.878v0.892L160.466,205.146z"/>
	<path fill-rule="evenodd" clip-rule="evenodd" fill="#D12A3A" d="M160.466,204.254c0-0.163,0-15.1,0-15.182
		s3.333-3.333,3.333-3.333l-1.32,7.387l8.171,8.77L160.466,204.254z"/>
	<rect x="141.318" y="218.161" fill-rule="evenodd" clip-rule="evenodd" fill="#0C0B0C" width="17.73" height="7.714"/>
	<rect x="141.318" y="216.078" fill-rule="evenodd" clip-rule="evenodd" fill="#363538" width="17.73" height="7.714"/>
	<g>
		<g>
			<g>
				<path fill="#3F3F3F" d="M146.651,219.917c-0.326,0-0.592-0.307-0.592-0.687V79.21c0-0.38,0.265-0.687,0.592-0.687
					s0.592,0.307,0.592,0.687v140.02C147.243,219.61,146.977,219.917,146.651,219.917z"/>
			</g>
		</g>
		<g>
			<g>
				<path fill="#3F3F3F" d="M149.892,219.917c-0.326,0-0.592-0.307-0.592-0.687V68.058c0-0.38,0.265-0.687,0.592-0.687
					c0.326,0,0.592,0.307,0.592,0.687V219.23C150.484,219.61,150.219,219.917,149.892,219.917z"/>
			</g>
		</g>
		<g>
			<g>
				<path fill="#3F3F3F" d="M153.134,219.917c-0.326,0-0.592-0.307-0.592-0.687V86.78c0-0.38,0.265-0.687,0.592-0.687
					c0.326,0,0.592,0.307,0.592,0.687v132.45C153.725,219.61,153.46,219.917,153.134,219.917z"/>
			</g>
		</g>
	</g>
	<circle fill="#3F3F3F" cx="146.163" cy="77.967" r="2.396"/>
	<circle fill="#3F3F3F" cx="150.076" cy="66.945" r="2.396"/>
	<circle fill="#3F3F3F" cx="153.59" cy="85.075" r="2.396"/>
	<rect x="145.311" y="218.74" fill-rule="evenodd" clip-rule="evenodd" fill="#0C0B0C" width="2.449" height="2.449"/>
	<rect x="148.586" y="218.74" fill-rule="evenodd" clip-rule="evenodd" fill="#0C0B0C" width="2.449" height="2.449"/>
	<rect x="151.833" y="218.74" fill-rule="evenodd" clip-rule="evenodd" fill="#0C0B0C" width="2.449" height="2.449"/>
</g>
<circle fill="#363538" cx="168.355" cy="209.194" r="2.806"/>
<circle fill="#A8A8A8" cx="168.333" cy="208.544" r="2.161"/>
<circle fill="#363538" cx="172.516" cy="215.387" r="2.806"/>
<circle fill="#A8A8A8" cx="172.479" cy="214.734" r="2.161"/>
</svg>
