<?xml version="1.0" encoding="utf-8"?>
<!-- Generator: Adobe Illustrator 23.0.6, SVG Export Plug-In . SVG Version: 6.00 Build 0)  -->
<svg version="1.0" id="Camada_1" xmlns="http://www.w3.org/2000/svg" xmlns:xlink="http://www.w3.org/1999/xlink" x="0px" y="0px"
	 viewBox="0 0 300 300" enable-background="new 0 0 300 300" xml:space="preserve">
<ellipse fill="#FFFFFF" cx="150" cy="150" rx="150" ry="150"/>
<circle fill="#DC5063" cx="150" cy="150" r="140.8"/>
<path fill="#110709" d="M178.645,176.539c-2.301-4.309-2.743-9.551-0.825-14.072c1.928-4.546,2.993-9.566,2.997-14.763
	c0.003-3.246,0-10.259,0-10.259s-5.812-1.946-7.636,0.559c-2.932,4.03-5.079,7.163-11.261,7.163c-7.552,0-11.33-8.853-13.304-15.126
	c-0.87-2.764-0.432-7.911-0.432-7.911c-0.634,0.008-0.955,0.012-1.581,0.019c0,0-1.517,14.824-11.454,14.824
	c-4.314,0-6.782-2.959-8.158-6.309c-1.488-3.627-12.06,6.749-12.06,6.749s0,3.151,0,10.259c0,5.248,1.066,10.227,2.976,14.705
	c1.941,4.552,1.525,9.829-0.793,14.173c-2.298,4.308-7.377,8.036-7.377,8.036s0,7.513,0,10.259
	c0.004,21.635,19.541,28.965,38.137,28.965c16.947,0,38.137-7.329,38.137-28.965c0-2.574,0-10.259,0-10.259
	S181.13,181.194,178.645,176.539L178.645,176.539z"/>
<radialGradient id="SVGID_1_" cx="147.874" cy="162.7135" r="44.9399" gradientUnits="userSpaceOnUse">
	<stop  offset="0.0242" style="stop-color:#E9C300"/>
	<stop  offset="1" style="stop-color:#7F0003"/>
</radialGradient>
<path fill="url(#SVGID_1_)" d="M178.645,166.281c-2.3-4.31-2.198-9.357-0.825-14.072c1.42-4.874,2.993-9.566,2.997-14.763
	c0.003-3.246-0.979-8.49-5.169-8.49c-5.998,0-6.705,5.954-12.423,5.954c-7.552,0-12.635-8.853-14.609-15.126
	c-0.87-2.764-0.432-7.911-0.432-7.911c-0.634,0.008-0.955,0.012-1.581,0.019c0,0-1.517,14.824-11.454,14.824
	c-4.314,0-6.782-2.959-8.158-6.309c-1.488-3.627-6.169-3.921-7.911-0.426c-2.203,4.415-4.149,10.328-4.149,17.435
	c0,5.248,1.39,10.193,2.976,14.705c1.64,4.668,1.525,9.829-0.793,14.173c-5.315,9.965-7.377,13.457-7.377,18.295
	c0.004,21.635,19.541,28.965,38.137,28.965c16.947,0,38.137-7.329,38.137-28.965C186.01,179.751,183.957,176.23,178.645,166.281z"/>
<path fill="#110709" d="M154.428,67.097c1.783-1.194,2.951-3.303,2.951-5.726c0-1.382-0.023-4.226-0.023-4.226
	s-4.033-2.536-6.295-2.536c-2.86,0-5.381,1.934-6.253,4.603c-0.009-0.008-0.014-0.012-0.024-0.019
	c-2.643,7.985-3.904,11.977-6.416,19.963v2.841c0,1.4,0.318,2.649,1.437,3.208c0.516,0.257,0.774,0.386,1.294,0.643
	c0.695,0.344,1.455,0.522,2.235,0.522h10.514c0.506,0,0.913-0.438,0.913-0.979c0-0.256,0-0.384,0-0.64
	c0-0.208,0.102-0.398,0.268-0.503c0.678-0.425,1.016-0.639,1.686-1.064c0.397-0.252,0.531-0.737,0.531-1.254
	c0-1.362,0-2.044,0-3.407C156.127,73.952,155.566,71.667,154.428,67.097z"/>
<radialGradient id="SVGID_2_" cx="152.4194" cy="42.2258" r="10.9312" gradientUnits="userSpaceOnUse">
	<stop  offset="0.0242" style="stop-color:#E9C300"/>
	<stop  offset="1" style="stop-color:#7F0003"/>
</radialGradient>
<path fill="url(#SVGID_2_)" d="M154.428,63.439c2.209-1.479,3.48-4.363,2.741-7.508c-0.545-2.32-2.266-4.19-4.464-4.765
	c-3.499-0.916-6.86,1.217-7.896,4.388c-0.009-0.008-0.014-0.012-0.024-0.019c-2.6,9.121-3.842,13.682-6.314,22.804
	c-0.348,1.283,0.216,2.649,1.336,3.208c0.293,0.146,0.439,0.22,0.733,0.366c1.06,0.527,2.223,0.799,3.425,0.799h9.883
	c0.506,0,0.913-0.438,0.913-0.979c0-0.256,0-0.383,0-0.64c0-0.208,0.102-0.398,0.268-0.503c0.678-0.425,1.016-0.639,1.686-1.064
	c0.397-0.252,0.601-0.752,0.51-1.242C156.114,72.346,155.557,69.377,154.428,63.439L154.428,63.439z"/>
<path fill="#282022" stroke="#FFE5C5" stroke-width="0.5" stroke-miterlimit="10" d="M141.732,141.217
	c3.85-0.414,7.72,0.46,11.174,2.21c2.737,1.387,6.751,3.08,10.038,3.08c4.999,0,6.243-4.798,8.795-4.798
	c2.246,0,2.785,2.269,2.785,4.073c0,5.019-3.666,10.902-3.666,16.955c0,5.494,4.583,9.447,6.824,18.294
	c0.399,1.574,0.599,3.195,0.617,4.819c0.076,6.829,0.305,14.161-4.331,15.861c-9.771,3.581,4.358-19.126-25.065-20.191
	c-2.559-0.093-4.497,0.315-6.603,0.275c-3.981-0.074-7.084-3.446-6.734-7.413c0.38-4.299,3.009-9.119,3.009-14.183
	c0-6.542-6.506-12.196-2.1-16.89C137.678,142.027,139.661,141.44,141.732,141.217z"/>
<path fill="#FFE7C5" d="M153.184,85.647v59.822c0,0.551-0.234,0.986-0.532,0.986c-3.724,0-5.833,0-9.557,0
	c-0.298,0-0.532-0.435-0.532-0.986c0-18.847,0-40.975,0-59.822c0-0.537,0.234-0.986,0.532-0.986h9.557
	C152.95,84.659,153.184,85.109,153.184,85.647z"/>
<g>
	<path fill="none" stroke="#3F3F3F" stroke-width="1.0428" stroke-linecap="round" stroke-miterlimit="10" d="M146.642,197.581
		c0-40.829,0-85.384,0-126.213"/>
	<path fill="none" stroke="#3F3F3F" stroke-width="1.0428" stroke-linecap="round" stroke-miterlimit="10" d="M149.469,197.581
		c0-40.829,0-95.437,0-136.265"/>
</g>
<path fill="#918E8B" d="M155.034,177.349h-14.487c-0.997,0-1.805-0.808-1.805-1.805v-4.053c0-0.997,0.808-1.805,1.805-1.805h14.487
	c0.997,0,1.805,0.808,1.805,1.805v4.053C156.839,176.541,156.031,177.349,155.034,177.349z"/>
<path fill="#918E8B" d="M139.323,193.54c0,0-4.452,5.734-2.927,7.911c1.524,2.177,7.089-0.121,7.089-0.121L139.323,193.54z"/>
<path fill="#918E8B" d="M156.448,193.54c0,0,4.452,5.734,2.927,7.911s-7.089-0.121-7.089-0.121L156.448,193.54z"/>
<path fill="#CCCCCC" d="M155.034,202.678h-14.39c-0.997,0-1.805-0.808-1.805-1.805v-7.746c0-0.997,0.808-1.805,1.805-1.805h14.39
	c0.997,0,1.805,0.808,1.805,1.805v7.746C156.839,201.87,156.031,202.678,155.034,202.678z"/>
<path fill="#CCCCCC" d="M153.526,178.502H141.79c-0.997,0-1.805-0.808-1.805-1.805v-6.072c0-0.997,0.808-1.805,1.805-1.805h11.737
	c0.997,0,1.805,0.808,1.805,1.805v6.072C155.331,177.694,154.523,178.502,153.526,178.502z"/>
<g>
	<g>
		<circle fill="#DBC8CC" cx="171.645" cy="187.403" r="2.283"/>
		<path fill="#4F4F4F" d="M173.465,186.937v0.466c0,1.005-0.815,1.82-1.82,1.82s-1.82-0.815-1.82-1.82v-0.466
			c0-0.357,0.102-0.689,0.281-0.971h0.425c0.308-0.24,0.694-0.383,1.114-0.383s0.806,0.143,1.114,0.383h0.425
			C173.363,186.247,173.465,186.58,173.465,186.937z"/>
		<path fill="#686868" d="M173.465,186.937c0,1.005-0.815,1.82-1.82,1.82s-1.82-0.815-1.82-1.82c0-0.357,0.102-0.689,0.281-0.971
			c0.32-0.51,0.891-0.849,1.539-0.849c0.648,0,1.218,0.34,1.539,0.849C173.363,186.247,173.465,186.58,173.465,186.937z"/>
	</g>
	<g>
		<circle fill="#DBC8CC" cx="169.363" cy="181.132" r="2.283"/>
		<path fill="#4F4F4F" d="M171.183,180.666v0.466c0,1.005-0.815,1.82-1.82,1.82s-1.82-0.815-1.82-1.82v-0.466
			c0-0.357,0.102-0.689,0.281-0.971h0.425c0.308-0.24,0.694-0.383,1.114-0.383s0.806,0.143,1.114,0.383h0.425
			C171.081,179.977,171.183,180.309,171.183,180.666z"/>
		<path fill="#686868" d="M171.183,180.666c0,1.005-0.815,1.82-1.82,1.82s-1.82-0.815-1.82-1.82c0-0.357,0.102-0.689,0.281-0.971
			c0.32-0.51,0.891-0.849,1.539-0.849s1.218,0.34,1.539,0.849C171.081,179.977,171.183,180.309,171.183,180.666z"/>
	</g>
	<g>
		<circle fill="#DBC8CC" cx="173.928" cy="193.671" r="2.283"/>
		<path fill="#4F4F4F" d="M175.748,193.206v0.466c0,1.005-0.815,1.82-1.82,1.82c-1.005,0-1.82-0.815-1.82-1.82v-0.466
			c0-0.357,0.102-0.689,0.281-0.971h0.425c0.308-0.24,0.694-0.383,1.114-0.383s0.806,0.143,1.114,0.383h0.425
			C175.646,192.516,175.748,192.849,175.748,193.206z"/>
		<path fill="#686868" d="M175.748,193.206c0,1.005-0.815,1.82-1.82,1.82c-1.005,0-1.82-0.815-1.82-1.82
			c0-0.357,0.102-0.689,0.281-0.971c0.32-0.51,0.891-0.849,1.539-0.849c0.648,0,1.218,0.34,1.539,0.849
			C175.646,192.516,175.748,192.849,175.748,193.206z"/>
	</g>
</g>
</svg>
