<svg viewBox="0 0 300 300" xmlns="http://www.w3.org/2000/svg"><ellipse cx="150.241" cy="149.584" fill="#fff" rx="149.758" ry="149.758" transform="matrix(.70709444 -.70711912 .70711912 .70709444 -61.76899 150.052148)"/><circle cx="150.242" cy="149.584" fill="#86bf5a" r="140.585"/><path d="m196.273 129.705-1.257 56.073 12.992-3.481 6.548-14.761c6.899-15.551-1.812-33.574-18.283-37.831" fill="#e59623"/><path d="m214.735 80.287 16.262 60.689a1.813 1.813 0 0 1 -1.283 2.22l-134.959 36.161a1.813 1.813 0 0 1 -2.221-1.281l-16.262-60.689a1.813 1.813 0 0 1 1.282-2.221l134.958-36.162a1.815 1.815 0 0 1 2.223 1.283" fill="#9e9e9e"/><path d="m212.588 72.297 16.262 60.69a1.813 1.813 0 0 1 -1.281 2.221l-134.96 36.162a1.819 1.819 0 0 1 -2.22-1.283l-16.262-60.69a1.817 1.817 0 0 1 1.281-2.22l134.96-36.162a1.812 1.812 0 0 1 2.22 1.282" fill="#d1d1d1"/><path d="m216.914 88.44.404 1.508-138.461 37.1-.404-1.508z" fill="#9e9e9e"/><path d="m70.232 126.621 161.38-43.242a1.36 1.36 0 0 0 -.703-2.627l-161.38 43.242a1.358 1.358 0 0 0 -.961 1.665 1.357 1.357 0 0 0 1.664.962" fill="#494949"/><g fill="#969696"><path d="m117.679 141.162a6.864 6.864 0 0 0 -1.359.524c-3.237 1.646-4.726 5.649-3.601 9.636l3.254 11.581.876 1.972 17.039-4.566-2.19-2.745-1.48-1.949-2.133-7.613c-1.4-4.969-6.203-7.967-10.406-6.84m21.274-18.355-9.18 2.46a8.957 8.957 0 0 0 -2.397 6.533l16.926-4.535a8.978 8.978 0 0 0 -5.349-4.458m-4.917-.091a9.046 9.046 0 0 0 -1.238.43 8.905 8.905 0 0 0 -3.025 2.12l9.18-2.46a8.887 8.887 0 0 0 -4.917-.09m11.682 10.215-17.379 4.657 1.31 7.292 1.737 4.8 3.718 10.303 18.861-5.054-7.405-17.303zm-.553-3.082-17.38 4.657.277 1.54 17.379-4.657z"/><path d="m145.441 131.389-17.379 4.657.277 1.541 17.379-4.656zm-1.14-4.124-16.926 4.535c.019.389.063.78.134 1.172l.276 1.534 17.38-4.657-.01-.056a8.996 8.996 0 0 0 -.854-2.528m20.17-11.296-16.554 4.436a8.59 8.59 0 0 0 0 .642l.179 5.202 17.784-4.765-.044-1.052a8.908 8.908 0 0 0 -1.365-4.463m-2.166-2.365-13.7 3.671a8.976 8.976 0 0 0 -.468 1.455l15.303-4.1a9.113 9.113 0 0 0 -1.135-1.026m-7.752-1.525a8.947 8.947 0 0 0 -3.292 1.668l6.993-1.874a8.961 8.961 0 0 0 -3.701.206"/><path d="m163.439 114.63-15.303 4.1a8.94 8.94 0 0 0 -.219 1.675l16.554-4.436a8.918 8.918 0 0 0 -1.032-1.339m-5.185-2.756-6.993 1.874a8.986 8.986 0 0 0 -2.656 3.527l13.7-3.671a8.973 8.973 0 0 0 -4.051-1.73m7.878 15.587-17.83 4.777.031.907 1.033 5.006 6.412 16.292 20.383-5.462-9.992-20.616zm-.135-3.194-17.805 4.771.055 1.6 17.818-4.774z"/><path d="m166.065 125.863-17.818 4.774.055 1.601 17.83-4.777zm-.185-4.38-17.784 4.765.096 2.79 17.805-4.771zm28.237-13.458-17.85 4.783a59.353 59.353 0 0 1 1.908 5.38l18.738-5.021a85.08 85.08 0 0 0 -.479-.955l-.002-.009-.009.002a75.374 75.374 0 0 0 -2.306-4.18m-1.566-2.526-17.439 4.673c.184.393.364.789.539 1.185l17.622-4.722c-.237-.38-.478-.758-.722-1.136m-4.981-7.581-15.878 4.255c.112.847.36 1.693.756 2.512l1.458 2.995 17.073-4.575zm-1.623-2.302-14.147 3.79a8.225 8.225 0 0 0 -.161 1.165l15.027-4.027a8.313 8.313 0 0 0 -.719-.928m-8.242-2.447a8.14 8.14 0 0 0 -4.465 3.036l9.857-2.641a8.203 8.203 0 0 0 -5.392-.395"/><path d="m193.273 106.636-17.622 4.722c.212.481.418.964.617 1.45l17.85-4.783a85.65 85.65 0 0 0 -.845-1.389"/></g><path d="m186.666 96.545-15.027 4.027a8.124 8.124 0 0 0 .053 1.602l15.878-4.255-.88-1.338a.562.562 0 0 0 -.024-.036" fill="#717171"/><path d="m190.98 103.105-17.073 4.575.858 1.762c.118.243.233.486.348.731l17.439-4.673-.301-.462zm8.348 15.461-19.743 5.29c.096.489.186.979.27 1.47l3.539 21.717 24.272-6.504-7.794-20.577a74.501 74.501 0 0 0 -.544-1.396m-1.235-2.899-19.192 5.142c.127.504.248 1.01.361 1.518l19.463-5.215a68.63 68.63 0 0 0 -.632-1.445" fill="#969696"/><path d="m198.726 117.111-19.463 5.215c.114.508.221 1.018.322 1.529l19.743-5.29a72.985 72.985 0 0 0 -.602-1.454m-1.812-3.944-18.738 5.021c.262.867.503 1.742.725 2.621l19.192-5.142a76.932 76.932 0 0 0 -1.179-2.5" fill="#969696"/><path d="m183.097 93.564-9.857 2.641a8.28 8.28 0 0 0 -1.44 3.201l14.146-3.791a8.186 8.186 0 0 0 -2.849-2.051" fill="#343434"/><path d="m192.312 116.675a76.231 76.231 0 0 0 -3.44-7.749l-.007-.015h-.001a76.307 76.307 0 0 0 -4.177-7.168l-5.561-8.45a8.206 8.206 0 0 0 -8.98-3.415c-4.979 1.334-7.51 6.876-5.258 11.513l2.31 4.757a58.916 58.916 0 0 1 5.093 15.891l4.101 25.172-.015.021a5.089 5.089 0 0 1 -6.228 1.652l-11.538-23.812-.338-7.931c-.199-5.764-5.71-9.844-11.281-8.351a8.966 8.966 0 0 0 -6.64 8.969l.418 12.093 1.033 5.005 7.695 19.56-1.712.459-8.788-20.546-1.407-7.827c-1.021-5.676-7.059-8.926-12.359-6.653a8.965 8.965 0 0 0 -5.289 9.826l2.141 11.91 1.738 4.806 4.913 13.589-.032.008-4.565-5.716-1.48-1.952-2.139-7.608c-1.552-5.518-7.3-8.607-11.766-6.323-3.231 1.653-4.724 5.65-3.601 9.642l3.256 11.576 2.476 5.582.049.088 21.392 47.197c5.413 11.944 18.675 18.216 31.342 14.822l26.074-6.987c13.258-3.553 21.688-16.549 19.527-30.104l-7.922-49.682z" fill="#ffb031"/></svg>