<?xml version="1.0" encoding="utf-8"?>
<!-- Generator: Adobe Illustrator 27.0.1, SVG Export Plug-In . SVG Version: 6.00 Build 0)  -->
<svg version="1.1" id="Camada_1" xmlns="http://www.w3.org/2000/svg" xmlns:xlink="http://www.w3.org/1999/xlink" x="0px" y="0px"
	 viewBox="0 0 736.45 736.45" style="enable-background:new 0 0 736.45 736.45;" xml:space="preserve">
<style type="text/css">
	.st0{fill:#FBBC4B;}
	.st1{fill:#932A2A;}
	.st2{fill:#EAC28C;}
	.st3{fill:#FFD9A1;}
	.st4{fill:#F43D3D;}
	.st5{fill:#FFEEF0;}
	.st6{fill:#565656;}
	.st7{fill:#E0E0E0;}
	.st8{fill:#4C4C4C;}
	.st9{fill:#DBC8CC;}
	.st10{fill:#F2DADE;}
	.st11{fill:#4F4F4F;}
	.st12{fill:#686868;}
	.st13{fill:#3F3F3F;}
</style>
<path class="st0" d="M736.45,368.22c0,6.03-0.15,12.05-0.44,18.07s-0.74,12.03-1.33,18.02c-0.59,6-1.33,11.98-2.21,17.94
	c-0.88,5.96-1.91,11.9-3.09,17.81c-1.18,5.91-2.5,11.79-3.96,17.63c-1.46,5.85-3.07,11.65-4.82,17.42
	c-1.75,5.77-3.64,11.49-5.67,17.16c-2.03,5.67-4.2,11.29-6.5,16.86c-2.31,5.57-4.75,11.08-7.32,16.52
	c-2.58,5.45-5.29,10.83-8.13,16.14c-2.84,5.31-5.81,10.56-8.91,15.73c-3.1,5.17-6.32,10.26-9.67,15.27
	c-3.35,5.01-6.82,9.94-10.41,14.78s-7.3,9.59-11.12,14.25c-3.82,4.66-7.76,9.22-11.8,13.69c-4.05,4.47-8.2,8.83-12.46,13.09
	c-4.26,4.26-8.62,8.42-13.09,12.46s-9.03,7.98-13.69,11.8s-9.41,7.53-14.25,11.12c-4.84,3.59-9.77,7.06-14.78,10.41
	c-5.01,3.35-10.1,6.57-15.27,9.67c-5.17,3.1-10.41,6.07-15.73,8.91c-5.31,2.84-10.7,5.55-16.14,8.13
	c-5.45,2.58-10.96,5.02-16.52,7.32c-5.57,2.31-11.19,4.47-16.86,6.5c-5.67,2.03-11.39,3.92-17.16,5.67
	c-5.77,1.75-11.57,3.36-17.42,4.82c-5.85,1.46-11.72,2.78-17.63,3.96c-5.91,1.18-11.85,2.21-17.81,3.09
	c-5.96,0.88-11.94,1.62-17.94,2.21c-6,0.59-12.01,1.03-18.02,1.33c-6.02,0.3-12.04,0.44-18.07,0.44s-12.05-0.15-18.07-0.44
	c-6.02-0.3-12.03-0.74-18.02-1.33c-6-0.59-11.98-1.33-17.94-2.21c-5.96-0.88-11.9-1.91-17.81-3.09c-5.91-1.18-11.79-2.5-17.63-3.96
	c-5.85-1.46-11.65-3.07-17.42-4.82c-5.77-1.75-11.49-3.64-17.16-5.67c-5.67-2.03-11.29-4.2-16.86-6.5
	c-5.57-2.31-11.08-4.75-16.52-7.32c-5.45-2.58-10.83-5.29-16.14-8.13c-5.31-2.84-10.56-5.81-15.73-8.91
	c-5.17-3.1-10.26-6.32-15.27-9.67c-5.01-3.35-9.94-6.82-14.78-10.41c-4.84-3.59-9.59-7.3-14.25-11.12
	c-4.66-3.82-9.22-7.76-13.69-11.81c-4.47-4.05-8.83-8.2-13.09-12.46c-4.26-4.26-8.42-8.62-12.46-13.09
	c-4.05-4.47-7.98-9.03-11.8-13.69c-3.82-4.66-7.53-9.41-11.12-14.25c-3.59-4.84-7.06-9.77-10.41-14.78
	c-3.35-5.01-6.57-10.1-9.67-15.27s-6.07-10.41-8.91-15.73c-2.84-5.31-5.55-10.7-8.13-16.14s-5.02-10.96-7.32-16.52
	c-2.31-5.57-4.47-11.19-6.5-16.86c-2.03-5.67-3.92-11.39-5.67-17.16s-3.36-11.57-4.82-17.42c-1.46-5.85-2.78-11.72-3.96-17.63
	c-1.18-5.91-2.21-11.85-3.09-17.81c-0.88-5.96-1.62-11.94-2.21-17.94c-0.59-6-1.03-12.01-1.33-18.02C0.15,380.27,0,374.25,0,368.22
	c0-6.03,0.15-12.05,0.44-18.07c0.3-6.02,0.74-12.03,1.33-18.02c0.59-6,1.33-11.98,2.21-17.94c0.88-5.96,1.91-11.9,3.09-17.81
	c1.18-5.91,2.5-11.79,3.96-17.63c1.46-5.85,3.07-11.65,4.82-17.42c1.75-5.77,3.64-11.49,5.67-17.16c2.03-5.67,4.2-11.29,6.5-16.86
	c2.31-5.57,4.75-11.08,7.32-16.52c2.58-5.45,5.29-10.83,8.13-16.14c2.84-5.31,5.81-10.56,8.91-15.73c3.1-5.17,6.32-10.26,9.67-15.27
	c3.35-5.01,6.82-9.94,10.41-14.78c3.59-4.84,7.3-9.59,11.12-14.25c3.82-4.66,7.76-9.22,11.8-13.69c4.05-4.47,8.2-8.83,12.46-13.09
	c4.26-4.26,8.62-8.42,13.09-12.46s9.03-7.98,13.69-11.8c4.66-3.82,9.41-7.53,14.25-11.12c4.84-3.59,9.77-7.06,14.78-10.41
	c5.01-3.35,10.1-6.57,15.27-9.67c5.17-3.1,10.41-6.07,15.73-8.91c5.31-2.84,10.7-5.55,16.14-8.13c5.45-2.58,10.96-5.02,16.52-7.32
	c5.57-2.31,11.19-4.47,16.86-6.5c5.67-2.03,11.39-3.92,17.16-5.67c5.77-1.75,11.57-3.36,17.42-4.82c5.85-1.46,11.72-2.78,17.63-3.96
	s11.85-2.21,17.81-3.09c5.96-0.88,11.94-1.62,17.94-2.21c6-0.59,12.01-1.03,18.02-1.33S362.2,0,368.22,0s12.05,0.15,18.07,0.44
	s12.03,0.74,18.02,1.33c6,0.59,11.98,1.33,17.94,2.21c5.96,0.88,11.9,1.91,17.81,3.09c5.91,1.18,11.79,2.5,17.63,3.96
	c5.85,1.46,11.65,3.07,17.42,4.82c5.77,1.75,11.49,3.64,17.16,5.67c5.67,2.03,11.29,4.2,16.86,6.5c5.57,2.31,11.08,4.75,16.52,7.32
	c5.45,2.58,10.83,5.29,16.14,8.13c5.31,2.84,10.56,5.81,15.73,8.91c5.17,3.1,10.26,6.32,15.27,9.67c5.01,3.35,9.94,6.82,14.78,10.41
	s9.59,7.3,14.25,11.12c4.66,3.82,9.22,7.76,13.69,11.8s8.83,8.2,13.09,12.46c4.26,4.26,8.42,8.62,12.46,13.09
	c4.05,4.47,7.98,9.03,11.8,13.69c3.82,4.66,7.53,9.41,11.12,14.25c3.59,4.84,7.06,9.77,10.41,14.78c3.35,5.01,6.57,10.1,9.67,15.27
	s6.07,10.41,8.91,15.73s5.55,10.7,8.13,16.14c2.58,5.45,5.02,10.96,7.32,16.52s4.47,11.19,6.5,16.86
	c2.03,5.67,3.92,11.39,5.67,17.16c1.75,5.77,3.36,11.57,4.82,17.42c1.46,5.85,2.78,11.72,3.96,17.63
	c1.18,5.91,2.21,11.85,3.09,17.81c0.88,5.96,1.62,11.94,2.21,17.94c0.59,6,1.03,12.01,1.33,18.02
	C736.3,356.17,736.45,362.2,736.45,368.22z"/>
<path class="st1" d="M480.56,468.16c-12.29-23-20.87-24.14-10.81-47.87c3.36-7.94-3.9-21.45-2.19-29.91c1.72-8.45,8.27-19.7,0-22.16
	c-5.22-1.56-16.37,7.64,1.91-25.48c0,0-1.3-14.18-7.5-5.66c-9.97,13.71-17.28,24.36-38.31,24.36c-25.69,0-38.54-30.11-45.25-51.45
	c-2.96-9.4-1.47-26.91-1.47-26.91l-5.38,0.07c0,0-16.08,55.23-37.96,80.99c-22.5,26.48-45.26-37.81-56.86-30.37
	c-11.23,7.2-12.91,1.31-12.91,1.31l8.99,36.45c0,17.85,5.69,30.24,12.19,45.47c6.6,15.48-5.87,36.42-13.75,51.2
	c-7.82,14.65,7.15,30.29,7.15,30.29l-32.24,31.94c0.01,73.59,66.47,97.52,129.72,97.52c82.27,0,131.12-37.69,126.24-117.57
	l-5.52-15.85C496.61,494.53,489.01,483.99,480.56,468.16L480.56,468.16z"/>
<path class="st2" d="M395.19,117.88c6.07-4.06,10.04-11.23,10.04-19.48c0-4.7-0.08-14.37-0.08-14.37s-13.72-8.63-21.41-8.63
	c-9.73,0-18.3,6.58-21.27,15.66c-0.03-0.02-0.05-0.04-0.08-0.07c-8.99,27.16-13.28,40.74-21.83,67.9v9.66
	c0,4.76,1.08,9.01,4.89,10.91l4.4,2.19c2.39,1.19,4.93,1.78,7.6,1.78h35.76c1.72,0,3.11-1.49,3.11-3.33v-2.18
	c-0.01-0.74,0.3-1.31,0.91-1.71c2.31-1.45,3.45-2.17,5.74-3.62c1.35-0.86,1.81-2.51,1.81-4.26v-11.59
	C400.97,141.2,399.06,133.43,395.19,117.88z"/>
<path class="st3" d="M395.19,105.44c7.51-5.03,11.84-14.84,9.32-25.54c-1.85-7.89-7.71-14.25-15.18-16.21
	c-11.9-3.12-23.33,4.14-26.86,14.93c-0.03-0.02-0.05-0.04-0.08-0.07c-8.84,31.03-13.07,46.54-21.48,77.57
	c-1.18,4.36,0.74,9.01,4.55,10.91l2.49,1.25c3.67,1.82,7.55,2.73,11.65,2.72h33.62c1.72,0,3.11-1.49,3.11-3.33v-2.18
	c-0.01-0.74,0.3-1.31,0.91-1.71c2.31-1.45,3.45-2.17,5.74-3.62c1.35-0.86,2.04-2.56,1.74-4.22
	C400.92,135.74,399.03,125.64,395.19,105.44L395.19,105.44z"/>
<path class="st4" d="M477.56,455.26c-7.82-14.66-7.48-31.83-2.81-47.87c4.83-16.58,10.18-32.54,10.19-50.22
	c0.01-11.04-3.33-28.88-17.58-28.88c-20.4,0-22.81,20.25-42.26,20.25c-25.69,0-42.98-30.11-49.69-51.45
	c-2.96-9.4-1.47-26.91-1.47-26.91l-5.38,0.07c0,0-18.38,76.17-52.18,76.17c-14.67,0-23.07-10.07-27.75-21.46
	c-5.06-12.34-20.48-13.07-26.91-1.45c-5.28,9.54-8.31,17.16-4.9,33.56c3.69,17.77,8.39,30.74,14.12,51.02
	c4.58,16.2,5.19,32.43-2.7,47.21c-18.08,33.9-25.09,45.77-25.09,62.23c0.01,73.59,66.47,98.52,129.72,98.52
	c57.65,0,129.72-24.93,129.72-98.52C502.61,501.08,495.63,489.1,477.56,455.26z"/>
<path class="st5" d="M415.59,399.84c-2.97-13.61-4.88-30.7,3.56-36.7c2.32-1.65,3.72-2.26,7.97-2.26c20.5,0,25.6-20.21,36.07-20.21
	c9.21,0,11.42,9.56,11.42,17.16c0,21.14-15.03,45.93-15.03,71.42c0,25.5,30.46,61.72,30.46,89.11c0,30.84-13.62,47.83-34.48,55.68
	c-4.36,1.64-10.34,1.61-14.25,0.62c-5.09-1.29-19.69-8.33-25.72-80.23C413.61,470.87,412.41,438.61,415.59,399.84z"/>
<path class="st6" d="M390.95,180.98v203.48c0,1.88-0.79,3.36-1.81,3.36h-32.51c-1.01,0-1.81-1.48-1.81-3.36V180.98
	c0-1.83,0.79-3.36,1.81-3.36h32.51C390.16,177.63,390.95,179.15,390.95,180.98z"/>
<path class="st7" d="M390.95,180.98v11.15h-36.13v-11.15c0-1.83,0.79-3.36,1.81-3.36h32.51
	C390.16,177.63,390.95,179.15,390.95,180.98z"/>
<path class="st8" d="M406.17,523.97H339.6c-5.22,0-9.41-4.63-9.41-10.34v-7.77h85.39v7.77
	C415.59,519.34,411.39,523.97,406.17,523.97z"/>
<path class="st9" d="M398.9,419.8h-52.01c-4.08,0-7.35-0.86-7.35-8.08v-7.81h66.72v7.81C406.25,418.95,402.98,419.8,398.9,419.8z"/>
<path class="st10" d="M398.9,416.99h-52.01c-4.08,0-7.35-5.86-7.35-13.08c0-7.22,3.27-13.08,7.35-13.08h52.01
	c4.08,0,7.35,5.86,7.35,13.08C406.25,411.14,402.98,416.99,398.9,416.99z"/>
<path class="st6" d="M406.17,516.19H339.6c-5.22,0-9.41-4.63-9.41-10.34c0-5.71,4.19-10.34,9.41-10.34h66.57
	c5.22,0,9.41,4.63,9.41,10.34C415.59,511.56,411.39,516.19,406.17,516.19z"/>
<path class="st9" d="M460.07,514.92c0,0.62-0.06,1.23-0.18,1.84c-0.12,0.61-0.3,1.19-0.54,1.77c-0.24,0.57-0.53,1.11-0.87,1.63
	c-0.34,0.51-0.73,0.99-1.17,1.43c-0.44,0.44-0.91,0.83-1.43,1.17c-0.51,0.34-1.06,0.63-1.63,0.87c-0.57,0.24-1.16,0.41-1.77,0.54
	c-0.61,0.12-1.22,0.18-1.84,0.18c-0.62,0-1.23-0.06-1.84-0.18c-0.61-0.12-1.19-0.3-1.77-0.54c-0.57-0.24-1.11-0.53-1.63-0.87
	c-0.51-0.34-0.99-0.73-1.43-1.17c-0.44-0.44-0.83-0.91-1.17-1.43c-0.34-0.51-0.63-1.06-0.87-1.63c-0.24-0.57-0.41-1.16-0.54-1.77
	c-0.12-0.61-0.18-1.22-0.18-1.84c0-0.62,0.06-1.23,0.18-1.84c0.12-0.61,0.3-1.19,0.54-1.77c0.24-0.57,0.53-1.11,0.87-1.63
	c0.34-0.51,0.73-0.99,1.17-1.43c0.44-0.44,0.91-0.83,1.43-1.17c0.51-0.34,1.06-0.63,1.63-0.87c0.57-0.24,1.16-0.41,1.77-0.54
	c0.61-0.12,1.22-0.18,1.84-0.18c0.62,0,1.23,0.06,1.84,0.18c0.61,0.12,1.19,0.3,1.77,0.54c0.57,0.24,1.11,0.53,1.63,0.87
	c0.51,0.34,0.99,0.73,1.43,1.17c0.44,0.44,0.83,0.91,1.17,1.43c0.34,0.51,0.63,1.06,0.87,1.63c0.24,0.57,0.42,1.16,0.54,1.77
	C460.01,513.69,460.07,514.3,460.07,514.92z"/>
<path class="st11" d="M458.16,513v1.92c-0.01,0.48-0.08,0.96-0.18,1.43c-0.11,0.47-0.26,0.93-0.45,1.37
	c-0.2,0.44-0.43,0.86-0.71,1.26c-0.28,0.4-0.59,0.76-0.93,1.1c-0.35,0.34-0.72,0.64-1.13,0.9c-0.4,0.26-0.83,0.49-1.28,0.67
	c-0.45,0.18-0.91,0.32-1.38,0.41c-0.47,0.09-0.95,0.14-1.44,0.14c-0.48,0-0.96-0.05-1.44-0.14c-0.47-0.09-0.94-0.23-1.38-0.41
	c-0.45-0.18-0.87-0.4-1.28-0.67c-0.4-0.26-0.78-0.56-1.13-0.9c-0.35-0.34-0.66-0.7-0.93-1.1c-0.28-0.4-0.51-0.82-0.71-1.26
	c-0.2-0.44-0.35-0.9-0.45-1.37c-0.11-0.47-0.17-0.95-0.18-1.43V513c0-1.47,0.42-2.84,1.16-4h1.75c0.66-0.51,1.38-0.91,2.16-1.18
	c0.79-0.27,1.6-0.41,2.43-0.41s1.64,0.14,2.43,0.41c0.79,0.27,1.51,0.66,2.16,1.18H457C457.74,510.16,458.16,511.53,458.16,513z"/>
<path class="st12" d="M458.16,513c-0.01,0.48-0.08,0.96-0.18,1.43c-0.11,0.47-0.26,0.93-0.45,1.37c-0.2,0.44-0.43,0.86-0.71,1.26
	c-0.28,0.4-0.59,0.76-0.93,1.1c-0.35,0.34-0.72,0.64-1.13,0.9c-0.4,0.26-0.83,0.49-1.28,0.67c-0.45,0.18-0.91,0.32-1.38,0.41
	c-0.47,0.09-0.95,0.14-1.44,0.14c-0.48,0-0.96-0.05-1.44-0.14c-0.47-0.09-0.94-0.23-1.38-0.41c-0.45-0.18-0.87-0.4-1.28-0.67
	c-0.4-0.26-0.78-0.56-1.13-0.9c-0.35-0.34-0.66-0.7-0.93-1.1c-0.28-0.4-0.51-0.82-0.71-1.26c-0.2-0.44-0.35-0.9-0.45-1.37
	c-0.11-0.47-0.17-0.95-0.18-1.43c0-1.47,0.42-2.84,1.16-4c0.17-0.27,0.35-0.52,0.55-0.77c0.2-0.24,0.41-0.47,0.64-0.69
	c0.23-0.22,0.47-0.42,0.73-0.6c0.25-0.19,0.52-0.36,0.8-0.51c0.28-0.15,0.56-0.29,0.85-0.4c0.29-0.12,0.59-0.21,0.9-0.29
	c0.31-0.08,0.61-0.14,0.93-0.18c0.31-0.04,0.63-0.06,0.94-0.06c0.32,0,0.63,0.02,0.94,0.06c0.31,0.04,0.62,0.1,0.93,0.18
	c0.31,0.08,0.6,0.18,0.9,0.29c0.29,0.12,0.58,0.25,0.85,0.4c0.28,0.15,0.54,0.32,0.8,0.51c0.25,0.19,0.5,0.39,0.73,0.6
	c0.23,0.22,0.44,0.45,0.64,0.69c0.2,0.24,0.38,0.5,0.55,0.77C457.74,510.16,458.16,511.53,458.16,513L458.16,513z"/>
<path class="st9" d="M450.66,489.07c0,0.62-0.06,1.23-0.18,1.84c-0.12,0.61-0.3,1.19-0.54,1.77c-0.24,0.57-0.53,1.11-0.87,1.63
	c-0.34,0.51-0.73,0.99-1.17,1.43c-0.44,0.44-0.91,0.83-1.43,1.17c-0.51,0.34-1.06,0.63-1.63,0.87c-0.57,0.24-1.16,0.42-1.77,0.54
	c-0.61,0.12-1.22,0.18-1.84,0.18c-0.62,0-1.23-0.06-1.84-0.18c-0.61-0.12-1.19-0.3-1.77-0.54c-0.57-0.24-1.11-0.53-1.63-0.87
	c-0.51-0.34-0.99-0.73-1.43-1.17c-0.44-0.44-0.83-0.91-1.17-1.43c-0.34-0.51-0.63-1.06-0.87-1.63c-0.24-0.57-0.41-1.16-0.54-1.77
	c-0.12-0.61-0.18-1.22-0.18-1.84c0-0.62,0.06-1.23,0.18-1.84c0.12-0.61,0.3-1.19,0.54-1.77c0.24-0.57,0.53-1.11,0.87-1.63
	c0.34-0.51,0.73-0.99,1.17-1.43c0.44-0.44,0.91-0.83,1.43-1.17c0.51-0.34,1.06-0.63,1.63-0.87c0.57-0.24,1.16-0.42,1.77-0.54
	c0.61-0.12,1.22-0.18,1.84-0.18c0.62,0,1.23,0.06,1.84,0.18c0.61,0.12,1.19,0.3,1.77,0.54c0.57,0.24,1.11,0.53,1.63,0.87
	c0.51,0.34,0.99,0.73,1.43,1.17c0.44,0.44,0.83,0.91,1.17,1.43c0.34,0.51,0.63,1.06,0.87,1.63s0.42,1.16,0.54,1.77
	C450.6,487.84,450.66,488.45,450.66,489.07z"/>
<path class="st11" d="M448.75,487.15v1.92c-0.01,0.48-0.08,0.96-0.18,1.43c-0.11,0.47-0.26,0.93-0.45,1.37
	c-0.2,0.44-0.43,0.86-0.71,1.26c-0.28,0.4-0.59,0.76-0.93,1.1c-0.35,0.34-0.72,0.64-1.13,0.9c-0.4,0.26-0.83,0.49-1.28,0.67
	c-0.45,0.18-0.91,0.32-1.38,0.41c-0.47,0.09-0.95,0.14-1.44,0.14c-0.48,0-0.96-0.05-1.44-0.14c-0.47-0.09-0.93-0.23-1.38-0.41
	c-0.45-0.18-0.87-0.4-1.28-0.67c-0.4-0.26-0.78-0.56-1.13-0.9c-0.35-0.34-0.66-0.7-0.93-1.1c-0.28-0.4-0.51-0.82-0.71-1.26
	c-0.2-0.44-0.35-0.9-0.45-1.37c-0.11-0.47-0.17-0.95-0.18-1.43v-1.92c0-1.47,0.42-2.84,1.16-4h1.75c0.66-0.51,1.38-0.91,2.16-1.18
	c0.79-0.27,1.6-0.41,2.43-0.41c0.83,0,1.64,0.14,2.43,0.41c0.79,0.27,1.51,0.66,2.16,1.18h1.75
	C448.33,484.31,448.75,485.68,448.75,487.15z"/>
<path class="st12" d="M448.75,487.15c-0.01,0.48-0.08,0.96-0.18,1.43c-0.11,0.47-0.26,0.93-0.45,1.37c-0.2,0.44-0.43,0.86-0.71,1.26
	c-0.28,0.4-0.59,0.76-0.93,1.1c-0.35,0.34-0.72,0.64-1.13,0.9c-0.4,0.26-0.83,0.49-1.28,0.67c-0.45,0.18-0.91,0.32-1.38,0.41
	c-0.47,0.09-0.95,0.14-1.44,0.14c-0.48,0-0.96-0.05-1.44-0.14c-0.47-0.09-0.93-0.23-1.38-0.41c-0.45-0.18-0.87-0.4-1.28-0.67
	c-0.4-0.26-0.78-0.56-1.13-0.9c-0.35-0.34-0.66-0.7-0.93-1.1c-0.28-0.4-0.51-0.82-0.71-1.26c-0.2-0.44-0.35-0.9-0.45-1.37
	c-0.11-0.47-0.17-0.95-0.18-1.43c0-1.47,0.42-2.84,1.16-4c0.17-0.27,0.35-0.52,0.55-0.77c0.2-0.24,0.41-0.47,0.64-0.69
	c0.23-0.22,0.47-0.42,0.73-0.6c0.25-0.19,0.52-0.36,0.8-0.51c0.28-0.15,0.56-0.29,0.85-0.4c0.29-0.12,0.59-0.21,0.9-0.29
	c0.31-0.08,0.61-0.14,0.93-0.18c0.31-0.04,0.63-0.06,0.94-0.06c0.32,0,0.63,0.02,0.94,0.06c0.31,0.04,0.62,0.1,0.93,0.18
	c0.31,0.08,0.6,0.18,0.9,0.29c0.29,0.12,0.58,0.25,0.85,0.4c0.28,0.15,0.54,0.32,0.8,0.51c0.25,0.19,0.5,0.39,0.73,0.6
	c0.23,0.22,0.44,0.45,0.64,0.69c0.2,0.24,0.38,0.5,0.55,0.77C448.33,484.31,448.75,485.68,448.75,487.15L448.75,487.15z"/>
<path class="st9" d="M469.48,540.76c0,0.62-0.06,1.23-0.18,1.84c-0.12,0.61-0.3,1.19-0.54,1.77c-0.24,0.57-0.53,1.11-0.87,1.63
	c-0.34,0.51-0.73,0.99-1.17,1.43c-0.44,0.44-0.91,0.83-1.43,1.17c-0.51,0.34-1.06,0.63-1.63,0.87c-0.57,0.24-1.16,0.41-1.77,0.54
	c-0.61,0.12-1.22,0.18-1.84,0.18c-0.62,0-1.23-0.06-1.84-0.18s-1.19-0.3-1.77-0.54c-0.57-0.24-1.11-0.53-1.63-0.87
	c-0.51-0.34-0.99-0.73-1.43-1.17c-0.44-0.44-0.83-0.91-1.17-1.43c-0.34-0.51-0.63-1.06-0.87-1.63c-0.24-0.57-0.42-1.16-0.54-1.77
	c-0.12-0.61-0.18-1.22-0.18-1.84c0-0.62,0.06-1.23,0.18-1.84c0.12-0.61,0.3-1.19,0.54-1.77c0.24-0.57,0.53-1.11,0.87-1.63
	c0.34-0.51,0.73-0.99,1.17-1.43c0.44-0.44,0.91-0.83,1.43-1.17c0.51-0.34,1.06-0.63,1.63-0.87c0.57-0.24,1.16-0.41,1.77-0.54
	c0.61-0.12,1.22-0.18,1.84-0.18c0.62,0,1.23,0.06,1.84,0.18c0.61,0.12,1.19,0.3,1.77,0.54c0.57,0.24,1.11,0.53,1.63,0.87
	s0.99,0.73,1.43,1.17c0.44,0.44,0.83,0.91,1.17,1.43c0.34,0.51,0.63,1.06,0.87,1.63c0.24,0.57,0.42,1.16,0.54,1.77
	C469.42,539.53,469.48,540.14,469.48,540.76z"/>
<path class="st11" d="M467.57,538.84v1.92c-0.02,0.48-0.08,0.96-0.18,1.43c-0.11,0.47-0.26,0.93-0.45,1.37
	c-0.2,0.44-0.43,0.86-0.71,1.26c-0.28,0.4-0.59,0.76-0.93,1.1c-0.35,0.34-0.72,0.64-1.13,0.9c-0.4,0.26-0.83,0.49-1.28,0.67
	c-0.45,0.18-0.91,0.32-1.38,0.41c-0.47,0.09-0.95,0.14-1.44,0.14c-0.48,0-0.96-0.05-1.44-0.14c-0.47-0.09-0.93-0.23-1.38-0.41
	c-0.45-0.18-0.87-0.4-1.28-0.67c-0.4-0.26-0.78-0.56-1.13-0.9c-0.35-0.34-0.66-0.7-0.93-1.1c-0.28-0.4-0.51-0.82-0.71-1.26
	c-0.2-0.44-0.35-0.9-0.45-1.37c-0.11-0.47-0.17-0.95-0.18-1.43v-1.92c0-1.47,0.42-2.84,1.16-4h1.75c0.65-0.51,1.38-0.91,2.16-1.18
	c0.79-0.27,1.6-0.41,2.43-0.41c0.83,0,1.64,0.14,2.43,0.41s1.51,0.66,2.16,1.18h1.75C467.15,536,467.57,537.37,467.57,538.84z"/>
<path class="st12" d="M467.57,538.84c-0.02,0.48-0.08,0.96-0.18,1.43c-0.11,0.47-0.26,0.93-0.45,1.37s-0.43,0.86-0.71,1.26
	c-0.28,0.4-0.59,0.76-0.93,1.1c-0.35,0.34-0.72,0.64-1.13,0.9c-0.4,0.26-0.83,0.49-1.28,0.67c-0.45,0.18-0.91,0.32-1.38,0.41
	c-0.47,0.09-0.95,0.14-1.44,0.14c-0.48,0-0.96-0.05-1.44-0.14c-0.47-0.09-0.93-0.23-1.38-0.41c-0.45-0.18-0.87-0.4-1.28-0.67
	c-0.4-0.26-0.78-0.56-1.13-0.9c-0.35-0.34-0.66-0.7-0.93-1.1c-0.28-0.4-0.51-0.82-0.71-1.26c-0.2-0.44-0.35-0.9-0.45-1.37
	c-0.11-0.47-0.17-0.95-0.18-1.43c0-1.47,0.42-2.84,1.16-4c0.17-0.27,0.35-0.52,0.55-0.77c0.2-0.24,0.41-0.47,0.64-0.69
	c0.23-0.22,0.47-0.42,0.73-0.6c0.25-0.19,0.52-0.36,0.8-0.51c0.28-0.15,0.56-0.29,0.85-0.4c0.29-0.12,0.59-0.21,0.9-0.29
	c0.31-0.08,0.61-0.14,0.93-0.18c0.31-0.04,0.63-0.06,0.94-0.06c0.32,0,0.63,0.02,0.94,0.06c0.31,0.04,0.62,0.1,0.93,0.18
	c0.31,0.08,0.6,0.18,0.9,0.29s0.58,0.25,0.85,0.4c0.28,0.15,0.54,0.32,0.8,0.51c0.25,0.19,0.5,0.39,0.73,0.6
	c0.23,0.22,0.44,0.45,0.64,0.69c0.2,0.24,0.38,0.5,0.55,0.77C467.15,536,467.57,537.37,467.57,538.84L467.57,538.84z"/>
<path class="st9" d="M397.06,477.35h-52.01c-4.08,0-7.35-0.86-7.35-8.08v-7.81h66.72v7.81
	C404.42,476.49,401.15,477.35,397.06,477.35z"/>
<path class="st10" d="M397.07,474.54h-52.01c-4.08,0-7.35-5.86-7.35-13.08c0-7.22,3.27-13.08,7.35-13.08h52.01
	c4.08,0,7.35,5.86,7.35,13.08C404.42,468.68,401.15,474.54,397.07,474.54z"/>
<path class="st13" d="M360.29,507.68c-0.24,0-0.48-0.05-0.7-0.14c-0.22-0.09-0.42-0.23-0.59-0.4c-0.17-0.17-0.3-0.37-0.4-0.59
	c-0.09-0.22-0.14-0.46-0.14-0.7V140.53c0-0.24,0.05-0.48,0.14-0.7c0.09-0.22,0.23-0.42,0.4-0.59c0.17-0.17,0.37-0.3,0.59-0.4
	c0.22-0.09,0.46-0.14,0.7-0.14c0.24,0,0.48,0.05,0.7,0.14c0.22,0.09,0.42,0.23,0.59,0.4c0.17,0.17,0.3,0.37,0.4,0.59
	c0.09,0.22,0.14,0.46-0.86,0.7v365.32c1,0.24,0.95,0.48,0.86,0.7c-0.09,0.22-0.23,0.42-0.4,0.59c-0.17,0.17-0.37,0.3-0.59,0.4
	C360.76,507.64,360.53,507.68,360.29,507.68L360.29,507.68z"/>
<path class="st13" d="M368.27,507.68c-0.24,0-0.48-0.05-0.7-0.14c-0.22-0.09-0.42-0.23-0.59-0.4c-0.17-0.17-0.3-0.37-0.4-0.59
	c-0.09-0.22-0.14-0.46-0.14-0.7V127.53c0-0.24,0.05-0.48,0.14-0.7c0.09-0.22,0.23-0.42,0.4-0.59c0.17-0.17,0.37-0.3,0.59-0.4
	c0.22-0.09,0.46-0.14,0.7-0.14c0.24,0,0.48,0.05,0.7,0.14c0.22,0.09,0.42,0.23,0.59,0.4c0.17,0.17,0.3,0.37,0.4,0.59
	c0.09,0.22,0.14,0.46-0.86,0.7v378.32c1,0.24,0.95,0.48,0.86,0.7c-0.09,0.22-0.23,0.42-0.4,0.59c-0.17,0.17-0.37,0.3-0.59,0.4
	C368.75,507.64,368.51,507.68,368.27,507.68L368.27,507.68z"/>
<path class="st13" d="M377.58,507.68c-0.24,0-0.48-0.05-0.7-0.14c-0.22-0.09-0.42-0.23-0.59-0.4c-0.17-0.17-0.3-0.37-0.4-0.59
	c-0.09-0.22-0.14-0.46-0.14-0.7V115.53c0-0.24,0.05-0.48,0.14-0.7c0.09-0.22,0.23-0.42,0.4-0.59c0.17-0.17,0.37-0.3,0.59-0.4
	c0.22-0.09,0.46-0.14,0.7-0.14c0.24,0,0.48,0.05,0.7,0.14c0.22,0.09,0.42,0.23,0.59,0.4c0.17,0.17,0.3,0.37,0.4,0.59
	c0.09,0.22,0.14,0.46-0.86,0.7v390.32c1,0.24,0.95,0.48,0.86,0.7c-0.09,0.22-0.23,0.42-0.4,0.59c-0.17,0.17-0.37,0.3-0.59,0.4
	C378.05,507.64,377.82,507.68,377.58,507.68L377.58,507.68z"/>
<path class="st13" d="M385.56,507.68c-0.24,0-0.48-0.05-0.7-0.14c-0.22-0.09-0.42-0.23-0.59-0.4c-0.17-0.17-0.3-0.37-0.4-0.59
	c-0.09-0.22-0.14-0.46-0.14-0.7V105.53c0-0.24,0.05-0.48,0.14-0.7c0.09-0.22,0.23-0.42,0.4-0.59c0.17-0.17,0.37-0.3,0.59-0.4
	c0.22-0.09,0.46-0.14,0.7-0.14c0.24,0,0.48,0.05,0.7,0.14c0.22,0.09,0.42,0.23,0.59,0.4c0.17,0.17,0.3,0.37,0.4,0.59
	c0.09,0.22,0.14,0.46-0.86,0.7v400.32c1,0.24,0.95,0.48,0.86,0.7c-0.09,0.22-0.23,0.42-0.4,0.59c-0.17,0.17-0.37,0.3-0.59,0.4
	C386.03,507.64,385.8,507.68,385.56,507.68L385.56,507.68z"/>
</svg>
