<svg xmlns="http://www.w3.org/2000/svg" version="1.0" viewBox="0 0 300 300"><ellipse cx="150" cy="150" fill="#FFF" rx="149.727" ry="149.726" transform="rotate(-45.001 149.999 150.002)"/><circle cx="150" cy="150" r="140.555" fill="#FBBC4B"/><path fill="#141414" d="M166.834 87.318v-.054h-.21c-.579 0-1.096.293-1.481.726a2.016 2.016 0 01-3.19-.22c-.201-.3-.514-.506-.875-.506h-.708c-.361 0-.674.206-.875.506a2.02 2.02 0 01-3.191.22c-.385-.433-.901-.727-1.481-.727h-.21v.024l2.568 19.107c.073.542.535.946 1.082.946h4.926c.547 0 1.009-.404 1.082-.946l2.563-19.076z"/><path fill="#2D2D2D" d="M167.216 84.415v-.057c-.693 0-1.353.291-1.823.801a2.143 2.143 0 01-3.318-.197 1.447 1.447 0 00-1.17-.603h-.364c-.465 0-.897.227-1.17.603a2.143 2.143 0 01-3.318.197 2.477 2.477 0 00-1.823-.801v.025l2.705 20.126a1.363 1.363 0 001.351 1.182h4.878c.683 0 1.26-.505 1.351-1.182l2.701-20.094z"/><path fill="#141414" d="M150.582 72.577v-.064h-1.104c-.403 0-.76.19-.964.481-.501.71-1.418 1.189-2.476 1.189-.898 0-1.694-.344-2.221-.882-.461-.471-1.058-.787-1.718-.787h-.386c-.66 0-1.256.315-1.718.787-.527.538-1.323.882-2.221.882-1.058 0-1.975-.478-2.476-1.189a1.176 1.176 0 00-.964-.481h-1.104v.028l3.54 22.021a2.116 2.116 0 002.089 1.78h6.099a2.116 2.116 0 002.089-1.78l3.535-21.985z"/><path fill="#2D2D2D" d="M151.125 69.132v-.068h-1.173a1.25 1.25 0 00-1.025.511c-.532.755-1.507 1.263-2.631 1.263-.929 0-1.756-.347-2.316-.894-.603-.589-1.436-.88-2.28-.88-.701 0-1.335.335-1.825.836-.56.572-1.406.938-2.36.938-1.125 0-2.099-.508-2.631-1.263a1.25 1.25 0 00-1.025-.511h-1.173v.03l3.722 23.149a2.544 2.544 0 002.513 2.141h5.975c1.25 0 2.315-.907 2.513-2.141l3.716-23.111z"/><path fill="#4C1E1E" d="M179.5 184.39c-1.626-3.422-1.707-7.487-.556-11.164 1.112-3.555 2.088-7.45 2.088-11.584a33.73 33.73 0 00-2.912-13.734c-1.223-2.752-4.508-2.521-5.553.336-.965 2.638-2.698 4.97-5.725 4.97-6.974 0-8.039-11.677-8.039-11.677l-1.11-.015s.308 4.054-.303 6.232a27.742 27.742 0 01-.623 1.936c-1.823 5.018-8.229 5.018-10.051 0a26.561 26.561 0 01-.623-1.936c-.611-2.178-.303-6.232-.303-6.232l-1.11.015s-1.065 11.677-8.039 11.677c-3.027 0-4.76-2.331-5.725-4.97-1.045-2.857-4.329-3.088-5.553-.336a33.73 33.73 0 00-2.912 13.734c0 4.134.976 8.029 2.088 11.584 1.151 3.678 1.07 7.743-.556 11.164-3.73 7.849-5.178 10.601-5.177 14.411.003 17.042 13.715 22.816 26.766 22.816 1.1 0 2.857.062 4.214.118 1.303.054 2.607.054 3.91 0 1.358-.056 3.114-.118 4.214-.118 13.051 0 26.763-5.773 26.766-22.816.002-3.811-1.445-6.562-5.176-14.411z"/><path fill="#B53E3E" d="M179.484 179.008c-1.62-3.038-1.701-6.647-.554-9.912 1.108-3.156 2.081-6.614 2.081-10.284 0-4.971-1.361-9.105-2.902-12.193-1.219-2.443-4.492-2.238-5.533.299-.962 2.342-2.688 4.412-5.705 4.412-6.949 0-8.01-10.367-8.01-10.367l-1.106-.014s.307 3.599-.302 5.533c-.173.55-.38 1.128-.621 1.718-1.816 4.455-8.199 4.455-10.015 0a22.237 22.237 0 01-.621-1.718c-.609-1.933-.302-5.533-.302-5.533l-1.106.014s-1.061 10.367-8.01 10.367c-3.017 0-4.743-2.07-5.705-4.412-1.041-2.536-4.314-2.742-5.533-.299-1.541 3.088-2.902 7.222-2.902 12.193 0 3.67.972 7.128 2.081 10.284 1.147 3.265 1.066 6.874-.554 9.912-3.717 6.969-5.159 9.411-5.159 12.794.003 15.13 13.666 20.256 26.671 20.256 1.096 0 2.846.055 4.199.105 1.298.048 2.598.048 3.896 0 1.353-.05 3.103-.105 4.199-.105 13.005 0 26.668-5.126 26.671-20.256.002-3.383-1.441-5.825-5.158-12.794z"/><path fill="#2D2D2D" d="M154.28 180.849c0-1.885.852-3.569 2.192-4.692 1.001-.839 1.606-2.057 1.606-3.363v-14.74c0-2.741 2.726-4.743.031-4.246-.496.091-2.563 2.107-6.597 2.107-4.188 0-5.274-2-5.683-2.061-2.686-.402-.867 1.547-.867 4.263v14.677c0 1.306.604 2.524 1.606 3.363a6.103 6.103 0 012.192 4.692 6.105 6.105 0 01-2.192 4.692c-1.001.839-1.606 2.057-1.606 3.363v5.375a4.337 4.337 0 004.337 4.337h4.442a4.337 4.337 0 004.337-4.337v-5.375c0-1.306-.604-2.524-1.606-3.363a6.11 6.11 0 01-2.192-4.692z"/><path fill="#212121" d="M149.218 168.089h-14.574a.935.935 0 01-.935-.935v-6.411c0-.517.419-.935.935-.935h14.574c.517 0 .935.419.935.935v6.411a.934.934 0 01-.935.935zm18.913 0h-14.574a.935.935 0 01-.935-.935v-6.411c0-.517.419-.935.935-.935h14.574c.517 0 .935.419.935.935v6.411a.935.935 0 01-.935.935z"/><path fill="#2D2D2D" d="M162.092 155.739c-.355-.32-.03-.9.426-.759 2.72.841 7.162 2.039 9.701-.798.253-.282 1.568-1.678 1.872-1.905.742-.556 2.78-.942 3.299 2.31.709 4.441-2.604 11.516-3.734 14.989-.81 2.49-.935 5.178-.193 7.689.185.626.428 1.262.744 1.885.184.363-.153.768-.536.631-2.206-.789-6.928-2.15-9.097-.27a.443.443 0 01-.73-.339v-21.653a.448.448 0 00-.147-.331l-1.605-1.449z"/><path fill="#EFEFEF" d="M146.474 95.992V160.5c0 .594-.2 1.064-.455 1.064h-8.175c-.255 0-.455-.469-.455-1.064V95.992c0-.579.2-1.064.455-1.064h8.175c.255 0 .455.485.455 1.064zm17.465 11.014v53.252c0 .491-.136.878-.31.878h-5.57c-.174 0-.31-.387-.31-.878v-53.252c0-.478.136-.879.31-.879h5.57c.174.001.31.401.31.879z"/><path fill="#212121" d="M149.218 175.303h-14.574a.935.935 0 01-.935-.935V170.9c0-.517.419-.935.935-.935h14.574c.517 0 .935.419.935.935v3.468a.934.934 0 01-.935.935zm18.913 0h-14.574a.935.935 0 01-.935-.935V170.9c0-.517.419-.935.935-.935h14.574c.517 0 .935.419.935.935v3.468a.935.935 0 01-.935.935zm-19.364 15.388h-13.672a.935.935 0 01-.935-.935v-2.851c0-.517.419-.935.935-.935h13.672c.517 0 .935.419.935.935v2.851a.934.934 0 01-.935.935zm18.913 0h-13.672a.935.935 0 01-.935-.935v-2.851c0-.517.419-.935.935-.935h13.672c.517 0 .935.419.935.935v2.851a.935.935 0 01-.935.935z"/><path fill="#A8A8A8" d="M148.694 167.401h-13.526c-.272 0-.491-.163-.491-.364v-5.356c0-.201.22-.364.491-.364h13.526c.272 0 .491.163.491.364v5.356c0 .201-.219.364-.491.364z"/><path fill="#EFEFEF" d="M148.694 166.555h-13.526c-.272 0-.491-.163-.491-.364v-5.356c0-.201.22-.364.491-.364h13.526c.272 0 .491.163.491.364v5.356c0 .202-.219.364-.491.364z"/><path fill="#A8A8A8" d="M148.694 174.472h-13.526c-.272 0-.491-.086-.491-.192v-2.825c0-.106.22-.192.491-.192h13.526c.272 0 .491.086.491.192v2.825c0 .106-.219.192-.491.192z"/><path fill="#EFEFEF" d="M148.694 174.026h-13.526c-.272 0-.491-.086-.491-.192v-2.825c0-.106.22-.192.491-.192h13.526c.272 0 .491.086.491.192v2.825c0 .107-.219.192-.491.192z"/><path fill="#A8A8A8" d="M167.607 167.401h-13.526c-.272 0-.491-.163-.491-.364v-5.356c0-.201.22-.364.491-.364h13.526c.272 0 .491.163.491.364v5.356c0 .201-.22.364-.491.364z"/><path fill="#EFEFEF" d="M167.607 166.555h-13.526c-.272 0-.491-.163-.491-.364v-5.356c0-.201.22-.364.491-.364h13.526c.272 0 .491.163.491.364v5.356c0 .202-.22.364-.491.364z"/><path fill="#A8A8A8" d="M167.607 174.472h-13.526c-.272 0-.491-.086-.491-.192v-2.825c0-.106.22-.192.491-.192h13.526c.272 0 .491.086.491.192v2.825c0 .106-.22.192-.491.192z"/><path fill="#EFEFEF" d="M167.607 174.026h-13.526c-.272 0-.491-.086-.491-.192v-2.825c0-.106.22-.192.491-.192h13.526c.272 0 .491.086.491.192v2.825c0 .107-.22.192-.491.192z"/><path fill="#A8A8A8" d="M148.694 190.205h-13.526c-.272 0-.491-.086-.491-.192v-2.825c0-.106.22-.192.491-.192h13.526c.272 0 .491.086.491.192v2.825c0 .106-.219.192-.491.192z"/><path fill="#EFEFEF" d="M148.694 189.759h-13.526c-.272 0-.491-.086-.491-.192v-2.825c0-.106.22-.192.491-.192h13.526c.272 0 .491.086.491.192v2.825c0 .106-.219.192-.491.192z"/><path fill="#A8A8A8" d="M167.607 190.205h-13.526c-.272 0-.491-.086-.491-.192v-2.825c0-.106.22-.192.491-.192h13.526c.272 0 .491.086.491.192v2.825c0 .106-.22.192-.491.192z"/><path fill="#EFEFEF" d="M167.607 189.759h-13.526c-.272 0-.491-.086-.491-.192v-2.825c0-.106.22-.192.491-.192h13.526c.272 0 .491.086.491.192v2.825c0 .106-.22.192-.491.192z"/><path fill="none" stroke="#3F3F3F" stroke-linecap="round" stroke-miterlimit="10" stroke-width=".75" d="M141.931 188.186V89.217m18.913 99.006v-84.21"/><circle cx="177.211" cy="190.587" r="1.82" fill="#EFEFEF"/><path fill="#4F4F4F" d="M178.662 190.215v.372a1.451 1.451 0 01-2.902 0v-.372c0-.284.081-.55.224-.774h.339a1.438 1.438 0 011.776 0h.339c.143.225.224.49.224.774z"/><path fill="#686868" d="M178.662 190.215a1.451 1.451 0 11-2.903 0 1.451 1.451 0 012.903 0z"/><circle cx="172.297" cy="190.587" r="1.82" fill="#EFEFEF"/><path fill="#4F4F4F" d="M173.748 190.215v.372a1.451 1.451 0 01-2.902 0v-.372c0-.284.081-.55.224-.774h.339a1.436 1.436 0 011.776 0h.339c.143.225.224.49.224.774z"/><path fill="#686868" d="M173.748 190.215a1.451 1.451 0 11-2.903 0 1.451 1.451 0 012.903 0z"/><circle cx="172.513" cy="185.586" r="1.82" fill="#EFEFEF"/><path fill="#4F4F4F" d="M173.964 185.215v.372a1.451 1.451 0 01-2.902 0v-.372c0-.284.081-.55.224-.774h.339a1.438 1.438 0 011.776 0h.339c.143.224.224.489.224.774z"/><path fill="#686868" d="M173.964 185.215a1.451 1.451 0 11-2.903 0 1.451 1.451 0 012.903 0z"/><circle cx="175.773" cy="195.586" r="1.82" fill="#EFEFEF"/><path fill="#4F4F4F" d="M177.225 195.214v.372a1.451 1.451 0 01-2.902 0v-.372c0-.284.081-.55.224-.774h.339a1.438 1.438 0 011.776 0H177c.143.225.225.49.225.774z"/><path fill="#686868" d="M177.225 195.214a1.451 1.451 0 11-2.903 0 1.451 1.451 0 012.903 0z"/><circle cx="151.611" cy="196.275" r=".925" fill="#EFEFEF"/><path fill="#4F4F4F" d="M152.349 196.086v.189a.739.739 0 01-1.476 0v-.189a.73.73 0 01.114-.394h.172a.733.733 0 01.904 0h.172a.727.727 0 01.114.394z"/><path fill="#686868" d="M152.349 196.086a.739.739 0 11-1.478-.002.739.739 0 011.478.002z"/><circle cx="146.699" cy="168.848" r=".374" fill="#A8A8A8"/><circle cx="145.881" cy="194.138" r=".374" fill="#A8A8A8"/><circle cx="157.378" cy="194.138" r=".374" fill="#A8A8A8"/><circle cx="153.712" cy="181.004" r=".374" fill="#A8A8A8"/><circle cx="149.511" cy="181.004" r=".374" fill="#A8A8A8"/><circle cx="157.111" cy="168.848" r=".374" fill="#A8A8A8"/><circle cx="174.665" cy="155.56" r="1.139" fill="#EFEFEF"/><path fill="#4F4F4F" d="M175.573 155.328v.232a.909.909 0 01-1.816 0v-.232c0-.178.051-.344.14-.484h.212a.9.9 0 011.112 0h.212c.089.14.14.306.14.484z"/><path fill="#686868" d="M175.573 155.328a.909.909 0 11-1.817-.001.909.909 0 011.817.001z"/><circle cx="165.826" cy="159.072" r=".374" fill="#A8A8A8"/><circle cx="175.424" cy="160.946" r=".374" fill="#A8A8A8"/><circle cx="172.624" cy="170.011" r=".374" fill="#A8A8A8"/><circle cx="173.389" cy="178.886" r=".374" fill="#A8A8A8"/><circle cx="164.553" cy="178.563" r=".374" fill="#A8A8A8"/><circle cx="155.729" cy="159.072" r=".374" fill="#A8A8A8"/><circle cx="147.85" cy="159.072" r=".374" fill="#A8A8A8"/><circle cx="163.307" cy="99.805" r=".712" fill="#EFEFEF"/><path fill="#4F4F4F" d="M163.886 99.716l-.014.145a.568.568 0 01-1.13-.112l.014-.145a.564.564 0 01.117-.293l.132.013a.562.562 0 01.691.068l.132.013a.559.559 0 01.058.311z"/><path fill="#686868" d="M163.886 99.716a.568.568 0 11-1.13-.112.568.568 0 011.13.112z"/><circle cx="163.702" cy="95.802" r=".712" fill="#EFEFEF"/><path fill="#4F4F4F" d="M164.281 95.714l-.014.145a.568.568 0 01-1.13-.112l.014-.145a.564.564 0 01.117-.293l.132.013a.562.562 0 01.691.068l.132.013c.047.094.069.2.058.311z"/><path fill="#686868" d="M164.281 95.714a.568.568 0 11-1.13-.112.568.568 0 011.13.112z"/><circle cx="164.096" cy="91.8" r=".712" fill="#EFEFEF"/><path fill="#4F4F4F" d="M164.676 91.711l-.014.145a.568.568 0 01-1.13-.112l.014-.145a.564.564 0 01.117-.293l.132.013a.562.562 0 01.691.068l.132.013c.047.094.069.2.058.311z"/><path fill="#686868" d="M164.676 91.711a.568.568 0 11-1.13-.112.568.568 0 011.13.112z"/><circle cx="158.579" cy="99.805" r=".712" fill="#EFEFEF"/><path fill="#4F4F4F" d="M158 99.716l.014.145a.568.568 0 001.13-.112l-.014-.145a.564.564 0 00-.117-.293l-.132.013a.562.562 0 00-.691.068l-.132.013a.568.568 0 00-.058.311z"/><path fill="#686868" d="M158 99.716a.568.568 0 101.13-.112.568.568 0 00-1.13.112z"/><circle cx="158.185" cy="95.802" r=".712" fill="#EFEFEF"/><path fill="#4F4F4F" d="M157.605 95.714l.014.145a.568.568 0 001.13-.112l-.014-.145a.564.564 0 00-.117-.293l-.132.013a.562.562 0 00-.691.068l-.132.013a.566.566 0 00-.058.311z"/><path fill="#686868" d="M157.605 95.714a.568.568 0 101.13-.112.568.568 0 00-1.13.112z"/><circle cx="157.79" cy="91.8" r=".712" fill="#EFEFEF"/><path fill="#4F4F4F" d="M157.211 91.711l.014.145a.568.568 0 001.13-.112l-.014-.145a.564.564 0 00-.117-.293l-.132.013a.562.562 0 00-.691.068l-.132.013a.557.557 0 00-.058.311z"/><path fill="#686868" d="M157.211 91.711a.568.568 0 101.13-.112.568.568 0 00-1.13.112z"/><circle cx="137.91" cy="90.39" r=".651" fill="#EFEFEF"/><path fill="#4F4F4F" d="M137.376 90.35l.023.131a.52.52 0 001.023-.18l-.023-.131a.523.523 0 00-.127-.259l-.119.021c-.098-.052-.214-.073-.332-.052a.516.516 0 00-.294.163l-.119.021a.493.493 0 00-.032.286z"/><path fill="#686868" d="M137.376 90.35a.52.52 0 101.022-.18.52.52 0 00-1.022.18z"/><circle cx="137.281" cy="86.927" r=".651" fill="#EFEFEF"/><path fill="#4F4F4F" d="M136.747 86.887l.023.131a.52.52 0 001.022-.18l-.023-.131a.523.523 0 00-.127-.259l-.119.021c-.098-.052-.214-.073-.332-.052s-.219.08-.294.163l-.119.021a.501.501 0 00-.031.286z"/><path fill="#686868" d="M136.747 86.887a.52.52 0 101.023-.181.52.52 0 00-1.023.181z"/><circle cx="136.652" cy="83.464" r=".651" fill="#EFEFEF"/><path fill="#4F4F4F" d="M136.118 83.424l.023.131a.52.52 0 001.023-.18l-.023-.131a.523.523 0 00-.127-.259l-.119.021c-.098-.052-.214-.073-.332-.052a.516.516 0 00-.294.163l-.119.021a.501.501 0 00-.032.286z"/><path fill="#686868" d="M136.118 83.424a.52.52 0 101.022-.18.52.52 0 00-1.022.18z"/><circle cx="136.162" cy="79.99" r=".651" fill="#EFEFEF"/><path fill="#4F4F4F" d="M135.628 79.95l.023.131a.52.52 0 001.022-.18l-.023-.131a.523.523 0 00-.127-.259l-.119.021c-.098-.052-.214-.073-.332-.052a.516.516 0 00-.294.163l-.119.021a.502.502 0 00-.031.286z"/><path fill="#686868" d="M135.628 79.95a.52.52 0 101.023-.181.52.52 0 00-1.023.181z"/><circle cx="135.534" cy="76.527" r=".651" fill="#EFEFEF"/><path fill="#4F4F4F" d="M134.999 76.487l.023.131a.52.52 0 001.022-.18l-.023-.131a.523.523 0 00-.127-.259l-.119.021c-.098-.052-.214-.073-.332-.052a.516.516 0 00-.294.163l-.119.02a.525.525 0 00-.031.287z"/><path fill="#686868" d="M134.999 76.487a.52.52 0 101.022-.18.52.52 0 00-1.022.18z"/><circle cx="134.905" cy="73.064" r=".651" fill="#EFEFEF"/><path fill="#4F4F4F" d="M134.371 73.024l.023.131a.52.52 0 001.023-.18l-.023-.131a.523.523 0 00-.127-.259l-.119.021c-.098-.052-.214-.073-.332-.052a.516.516 0 00-.294.163l-.119.021a.494.494 0 00-.032.286z"/><path fill="#686868" d="M134.371 73.024a.52.52 0 101.022-.18.52.52 0 00-1.022.18z"/><circle cx="145.634" cy="90.397" r=".651" fill="#EFEFEF"/><path fill="#4F4F4F" d="M146.168 90.354l-.023.131a.52.52 0 01-1.023-.176l.023-.131a.51.51 0 01.126-.259l.119.021a.515.515 0 01.626.108l.119.021c.037.086.05.185.033.285z"/><path fill="#686868" d="M146.168 90.354a.52.52 0 11-1.023-.177.52.52 0 011.023.177z"/><g><circle cx="146.246" cy="86.931" r=".651" fill="#EFEFEF"/><path fill="#4F4F4F" d="M146.78 86.888l-.023.131a.52.52 0 01-1.023-.177l.023-.131a.51.51 0 01.126-.259l.119.021a.515.515 0 01.626.108l.119.021c.038.088.05.186.033.286z"/><path fill="#686868" d="M146.78 86.888a.52.52 0 11-1.023-.177.52.52 0 011.023.177z"/></g><g><circle cx="146.858" cy="83.465" r=".651" fill="#EFEFEF"/><path fill="#4F4F4F" d="M147.392 83.422l-.023.131a.519.519 0 11-1.022-.177l.023-.131a.51.51 0 01.126-.259l.119.021a.515.515 0 01.626.108l.119.021c.037.088.05.186.032.286z"/><path fill="#686868" d="M147.392 83.422a.519.519 0 11-1.022-.176.519.519 0 011.022.176z"/></g><g><circle cx="147.332" cy="79.989" r=".651" fill="#EFEFEF"/><path fill="#4F4F4F" d="M147.866 79.946l-.023.131a.52.52 0 01-1.023-.177l.023-.131a.51.51 0 01.126-.259l.119.021a.515.515 0 01.626.108l.119.021c.038.088.05.186.033.286z"/><path fill="#686868" d="M147.866 79.946a.52.52 0 11-1.023-.177.52.52 0 011.023.177z"/></g><g><circle cx="147.944" cy="76.523" r=".651" fill="#EFEFEF"/><path fill="#4F4F4F" d="M148.478 76.48l-.023.131a.52.52 0 01-1.023-.177l.023-.131a.51.51 0 01.126-.259l.119.021a.515.515 0 01.626.108l.119.021a.495.495 0 01.033.286z"/><path fill="#686868" d="M148.478 76.48a.52.52 0 11-1.023-.177.52.52 0 011.023.177z"/></g><g><circle cx="148.557" cy="73.057" r=".651" fill="#EFEFEF"/><path fill="#4F4F4F" d="M149.091 73.014l-.023.131a.52.52 0 01-1.023-.177l.023-.131a.51.51 0 01.126-.259l.119.021a.515.515 0 01.626.108l.119.021c.037.088.05.186.033.286z"/><path fill="#686868" d="M149.091 73.014a.52.52 0 11-1.023-.177.52.52 0 011.023.177z"/></g></svg>