<svg xmlns="http://www.w3.org/2000/svg" version="1.0" viewBox="0 0 300 300"><ellipse cx="149.998" cy="150" fill="#FFF" rx="150" ry="150"/><circle cx="150" cy="150" r="140.812" fill="#86BF5A"/><path fill="#962C2C" d="M149.932 143.585l14.122 11.088 25.702-5.714v5.766l-16.999 26.831 14.145 37.725-1.737 2.089-35.233-23.235-32.356 22.028-4.614-.882 14.121-37.747-16.839-27.348v-5.227l25.567 5.714 14.121-11.088z"/><path fill="#B53E3E" d="M149.932 137.469l14.122 11.49h25.702l-16.975 26.861 14.121 43.461-36.97-26.861-36.97 26.861 14.121-43.461-16.839-26.861h25.567l14.121-11.49z"/><path fill="#FFF" d="M143.493 150.702l-5.462 4.198h-12.302l11.123 18.654-7.426 18.989 20.506-11.21 20.441 11.21-7.361-18.989 11.259-18.654h-12.433l-5.462-4.113"/><circle cx="166.321" cy="182.48" r="1.811" fill="#F2DADE"/><path fill="#4F4F4F" d="M167.765 182.11v.37a1.444 1.444 0 0 1-2.888 0v-.37c0-.283.081-.547.223-.77h.337a1.438 1.438 0 0 1 1.768 0h.337c.142.223.223.487.223.77z"/><path fill="#686868" d="M167.765 182.11a1.445 1.445 0 0 1-2.89 0v-.002a1.446 1.446 0 0 1 2.89.002z"/><circle cx="164.509" cy="177.503" r="1.811" fill="#F2DADE"/><path fill="#4F4F4F" d="M165.954 177.134v.37a1.444 1.444 0 0 1-2.888 0v-.37c0-.283.081-.547.223-.77h.337a1.438 1.438 0 0 1 1.768 0h.337c.142.223.223.486.223.77z"/><path fill="#686868" d="M165.954 177.134a1.445 1.445 0 0 1-2.89 0v-.002a1.446 1.446 0 0 1 2.89.002z"/><circle cx="168.132" cy="187.455" r="1.811" fill="#F2DADE"/><path fill="#4F4F4F" d="M169.577 187.085v.37a1.444 1.444 0 0 1-2.888 0v-.37c0-.283.081-.547.223-.77h.337a1.438 1.438 0 0 1 1.768 0h.337c.142.223.223.487.223.77z"/><path fill="#686868" d="M169.577 187.085a1.445 1.445 0 0 1-2.89 0v-.002a1.446 1.446 0 0 1 2.89.002z"/><path fill="#E5B36A" d="M159.617 97.027v-2.314l-5.741-19.409h-7.898l-5.74 19.368v2.355c0 .757.139 1.104.608 1.406l1.001.646c.223.144.482.22.748.22h14.668c.265 0 .525-.077.748-.22l1.001-.646c.466-.302.605-.83.605-1.406z"/><path fill="#DBC8CC" d="M156.49 157.959h-13.121a.373.373 0 0 1-.374-.374v-7.386c0-.207.168-.374.374-.374h13.121c.207 0 .375.168.375.374v7.386a.375.375 0 0 1-.375.374z"/><path fill="#F2DADE" d="M156.49 156.829h-13.121a.373.373 0 0 1-.374-.374v-7.386c0-.207.168-.374.374-.374h13.121c.207 0 .375.168.375.374v7.386a.375.375 0 0 1-.375.374z"/><path fill="#DBC8CC" d="M155.233 168.684h-10.612a1.126 1.126 0 0 1-1.126-1.126v-1.211h12.864v1.211c0 .622-.504 1.126-1.126 1.126z"/><path fill="#F2DADE" d="M155.233 167.811h-10.612a1.126 1.126 0 0 1-1.126-1.126v-.674c0-.622.504-1.126 1.126-1.126h10.612c.622 0 1.126.504 1.126 1.126v.674c0 .621-.504 1.126-1.126 1.126z"/><path fill="#DBC8CC" d="M157.369 183.226h-14.884a1.58 1.58 0 0 1-1.58-1.58v-1.699h18.044v1.699a1.58 1.58 0 0 1-1.58 1.58z"/><path fill="#F2DADE" d="M157.369 182.001h-14.884a1.58 1.58 0 0 1-1.58-1.58v-.946c0-.873.707-1.58 1.58-1.58h14.884c.873 0 1.58.707 1.58 1.58v.946a1.58 1.58 0 0 1-1.58 1.58z"/><path fill="#FFCD7D" d="M159.617 93.549l-5.535-21.762a1.445 1.445 0 0 0-1.401-1.089h-5.509c-.661 0-1.238.449-1.401 1.089l-5.534 21.762a1.376 1.376 0 0 0 .608 1.406l1.001.646c.223.144.482.22.748.22h14.668c.265 0 .525-.077.748-.22l1.001-.646a1.38 1.38 0 0 0 .606-1.406zm-5.461 5.064v53.775c0 .524-.192.938-.435.938h-7.583c-.243 0-.435-.414-.435-.938V98.613c0-.511.192-.938.435-.938h7.583c.243-.001.435.427.435.938z"/><path fill="#E2BB81" d="M154.156 98.613v1.588h-8.452v-1.588c0-.511.192-.938.435-.938h7.583c.242-.001.434.427.434.938z"/><path fill="none" stroke="#3F3F3F" stroke-linecap="round" stroke-miterlimit="10" d="M149.927 180.158V78.521m3.898 101.637V89.35m-7.796 90.808V83.881"/></svg>