<?xml version="1.0" encoding="utf-8"?>
<!-- Generator: Adobe Illustrator 24.3.0, SVG Export Plug-In . SVG Version: 6.00 Build 0)  -->
<svg version="1.0" id="Layer_1" xmlns="http://www.w3.org/2000/svg" xmlns:xlink="http://www.w3.org/1999/xlink" x="0px" y="0px"
	 viewBox="0 0 300 300" enable-background="new 0 0 300 300" xml:space="preserve">
<ellipse transform="matrix(0.7071 -0.7071 0.7071 0.7071 -62.1321 149.9998)" fill="#FFFFFF" cx="150" cy="150" rx="149.727" ry="149.726"/>
<circle fill="#FBBC4B" cx="150" cy="150" r="140.555"/>
<g>
	<path fill="#141414" d="M166.834,87.318v-0.054h-0.21c-0.579,0-1.096,0.293-1.481,0.726c-0.37,0.417-0.908,0.68-1.51,0.68
		c-0.703,0-1.317-0.358-1.68-0.9c-0.201-0.3-0.514-0.506-0.875-0.506h-0.708c-0.361,0-0.674,0.206-0.875,0.506
		c-0.364,0.542-0.978,0.9-1.681,0.9c-0.602,0-1.14-0.263-1.51-0.68c-0.385-0.433-0.901-0.727-1.481-0.727h-0.21v0.024l2.568,19.107
		c0.073,0.542,0.535,0.946,1.082,0.946h4.926c0.547,0,1.009-0.404,1.082-0.946L166.834,87.318z"/>
	<path fill="#2D2D2D" d="M167.216,84.415v-0.057h0c-0.693,0-1.353,0.291-1.823,0.801c-0.392,0.426-0.952,0.694-1.578,0.694
		c-0.718,0-1.349-0.352-1.74-0.891c-0.273-0.376-0.705-0.603-1.17-0.603h-0.364c-0.465,0-0.897,0.227-1.17,0.603
		c-0.391,0.539-1.022,0.891-1.74,0.891c-0.626,0-1.186-0.268-1.578-0.694c-0.469-0.51-1.13-0.801-1.823-0.801l0,0v0.025
		l2.705,20.126c0.091,0.677,0.668,1.182,1.351,1.182h4.878c0.683,0,1.26-0.505,1.351-1.182L167.216,84.415z"/>
	<path fill="#141414" d="M150.582,72.577v-0.064h-1.104c-0.403,0-0.76,0.19-0.964,0.481c-0.501,0.71-1.418,1.189-2.476,1.189
		c-0.898,0-1.694-0.344-2.221-0.882c-0.461-0.471-1.058-0.787-1.718-0.787h-0.386c-0.66,0-1.256,0.315-1.718,0.787
		c-0.527,0.538-1.323,0.882-2.221,0.882c-1.058,0-1.975-0.478-2.476-1.189c-0.205-0.29-0.561-0.481-0.964-0.481h-1.104v0.028
		l3.54,22.021c0.165,1.026,1.05,1.78,2.089,1.78h6.099c1.039,0,1.924-0.754,2.089-1.78L150.582,72.577z"/>
	<path fill="#2D2D2D" d="M151.125,69.132v-0.068h-1.173c-0.428,0-0.807,0.202-1.025,0.511c-0.532,0.755-1.507,1.263-2.631,1.263
		c-0.929,0-1.756-0.347-2.316-0.894c-0.603-0.589-1.436-0.88-2.28-0.88l0,0c-0.701,0-1.335,0.335-1.825,0.836
		c-0.56,0.572-1.406,0.938-2.36,0.938c-1.125,0-2.099-0.508-2.631-1.263c-0.217-0.308-0.596-0.511-1.025-0.511h-1.173v0.03
		l3.722,23.149c0.198,1.234,1.263,2.141,2.513,2.141h5.975c1.25,0,2.315-0.907,2.513-2.141L151.125,69.132z"/>
	<path fill="#4C1E1E" d="M179.5,184.39c-1.626-3.422-1.707-7.487-0.556-11.164c1.112-3.555,2.088-7.45,2.088-11.584
		c0-5.599-1.366-10.256-2.912-13.734c-1.223-2.752-4.508-2.521-5.553,0.336c-0.965,2.638-2.698,4.97-5.725,4.97
		c-6.974,0-8.039-11.677-8.039-11.677c-0.439-0.006-0.665-0.009-1.11-0.015c0,0,0.308,4.054-0.303,6.232
		c-0.174,0.619-0.382,1.271-0.623,1.936c-1.823,5.018-8.229,5.018-10.051,0c-0.242-0.665-0.45-1.316-0.623-1.936
		c-0.611-2.178-0.303-6.232-0.303-6.232c-0.445,0.006-0.67,0.009-1.11,0.015c0,0-1.065,11.677-8.039,11.677
		c-3.027,0-4.76-2.331-5.725-4.97c-1.045-2.857-4.329-3.088-5.553-0.336c-1.546,3.478-2.912,8.135-2.912,13.734
		c0,4.134,0.976,8.029,2.088,11.584c1.151,3.678,1.07,7.743-0.556,11.164c-3.73,7.849-5.178,10.601-5.177,14.411
		c0.003,17.042,13.715,22.816,26.766,22.816c1.1,0,2.857,0.062,4.214,0.118c1.303,0.054,2.607,0.054,3.91,0
		c1.358-0.056,3.114-0.118,4.214-0.118c13.051,0,26.763-5.773,26.766-22.816C184.678,194.99,183.231,192.239,179.5,184.39z"/>
	<path fill="#B53E3E" d="M179.484,179.008c-1.62-3.038-1.701-6.647-0.554-9.912c1.108-3.156,2.081-6.614,2.081-10.284
		c0-4.971-1.361-9.105-2.902-12.193c-1.219-2.443-4.492-2.238-5.533,0.299c-0.962,2.342-2.688,4.412-5.705,4.412
		c-6.949,0-8.01-10.367-8.01-10.367c-0.438-0.005-0.662-0.008-1.106-0.014c0,0,0.307,3.599-0.302,5.533
		c-0.173,0.55-0.38,1.128-0.621,1.718c-1.816,4.455-8.199,4.455-10.015,0c-0.241-0.59-0.448-1.169-0.621-1.718
		c-0.609-1.933-0.302-5.533-0.302-5.533c-0.444,0.005-0.668,0.008-1.106,0.014c0,0-1.061,10.367-8.01,10.367
		c-3.017,0-4.743-2.07-5.705-4.412c-1.041-2.536-4.314-2.742-5.533-0.299c-1.541,3.088-2.902,7.222-2.902,12.193
		c0,3.67,0.972,7.128,2.081,10.284c1.147,3.265,1.066,6.874-0.554,9.912c-3.717,6.969-5.159,9.411-5.159,12.794
		c0.003,15.13,13.666,20.256,26.671,20.256c1.096,0,2.846,0.055,4.199,0.105c1.298,0.048,2.598,0.048,3.896,0
		c1.353-0.05,3.103-0.105,4.199-0.105c13.005,0,26.668-5.126,26.671-20.256C184.644,188.419,183.201,185.977,179.484,179.008z"/>
	<path fill="#2D2D2D" d="M154.28,180.849c0-1.885,0.852-3.569,2.192-4.692c1.001-0.839,1.606-2.057,1.606-3.363v-14.74
		c0-2.741,2.726-4.743,0.031-4.246c-0.496,0.091-2.563,2.107-6.597,2.107c-4.188,0-5.274-2-5.683-2.061
		c-2.686-0.402-0.867,1.547-0.867,4.263v14.677c0,1.306,0.604,2.524,1.606,3.363c1.34,1.122,2.192,2.807,2.192,4.692
		c0,1.885-0.852,3.569-2.192,4.692c-1.001,0.839-1.606,2.057-1.606,3.363v5.375c0,2.395,1.942,4.337,4.337,4.337h4.442
		c2.395,0,4.337-1.942,4.337-4.337v-5.375c0-1.306-0.604-2.524-1.606-3.363C155.133,184.418,154.28,182.733,154.28,180.849z"/>
	<path fill="#212121" d="M149.218,168.089h-14.574c-0.517,0-0.935-0.419-0.935-0.935v-6.411c0-0.517,0.419-0.935,0.935-0.935h14.574
		c0.517,0,0.935,0.419,0.935,0.935v6.411C150.154,167.67,149.735,168.089,149.218,168.089z"/>
	<path fill="#212121" d="M168.131,168.089h-14.574c-0.517,0-0.935-0.419-0.935-0.935v-6.411c0-0.517,0.419-0.935,0.935-0.935h14.574
		c0.517,0,0.935,0.419,0.935,0.935v6.411C169.066,167.67,168.647,168.089,168.131,168.089z"/>
	<path fill="#2D2D2D" d="M162.092,155.739c-0.355-0.32-0.03-0.9,0.426-0.759c2.72,0.841,7.162,2.039,9.701-0.798
		c0.253-0.282,1.568-1.678,1.872-1.905c0.742-0.556,2.78-0.942,3.299,2.31c0.709,4.441-2.604,11.516-3.734,14.989
		c-0.81,2.49-0.935,5.178-0.193,7.689c0.185,0.626,0.428,1.262,0.744,1.885c0.184,0.363-0.153,0.768-0.536,0.631
		c-2.206-0.789-6.928-2.15-9.097-0.27c-0.286,0.248-0.73,0.04-0.73-0.339l0-21.653c0-0.126-0.054-0.247-0.147-0.331L162.092,155.739
		z"/>
	<path fill="#EFEFEF" d="M146.474,95.992c0,20.324,0,44.184,0,64.508c0,0.594-0.2,1.064-0.455,1.064c-3.185,0-4.99,0-8.175,0
		c-0.255,0-0.455-0.469-0.455-1.064c0-20.324,0-44.184,0-64.508c0-0.579,0.2-1.064,0.455-1.064c3.185,0,4.99,0,8.175,0
		C146.274,94.928,146.474,95.413,146.474,95.992z"/>
	<path fill="#EFEFEF" d="M163.939,107.006c0,16.778,0,36.474,0,53.252c0,0.491-0.136,0.878-0.31,0.878c-2.171,0-3.4,0-5.57,0
		c-0.174,0-0.31-0.387-0.31-0.878c0-16.778,0-36.474,0-53.252c0-0.478,0.136-0.879,0.31-0.879c2.171,0,3.4,0,5.57,0
		C163.803,106.128,163.939,106.528,163.939,107.006z"/>
	<path fill="#212121" d="M149.218,175.303h-14.574c-0.517,0-0.935-0.419-0.935-0.935v-3.468c0-0.517,0.419-0.935,0.935-0.935h14.574
		c0.517,0,0.935,0.419,0.935,0.935v3.468C150.154,174.884,149.735,175.303,149.218,175.303z"/>
	<path fill="#212121" d="M168.131,175.303h-14.574c-0.517,0-0.935-0.419-0.935-0.935v-3.468c0-0.517,0.419-0.935,0.935-0.935h14.574
		c0.517,0,0.935,0.419,0.935,0.935v3.468C169.066,174.884,168.647,175.303,168.131,175.303z"/>
	<path fill="#212121" d="M148.767,190.691h-13.672c-0.517,0-0.935-0.419-0.935-0.935v-2.851c0-0.517,0.419-0.935,0.935-0.935h13.672
		c0.517,0,0.935,0.419,0.935,0.935v2.851C149.703,190.273,149.284,190.691,148.767,190.691z"/>
	<path fill="#212121" d="M167.68,190.691h-13.672c-0.517,0-0.935-0.419-0.935-0.935v-2.851c0-0.517,0.419-0.935,0.935-0.935h13.672
		c0.517,0,0.935,0.419,0.935,0.935v2.851C168.615,190.273,168.196,190.691,167.68,190.691z"/>
	<g>
		<path fill="#A8A8A8" d="M148.694,167.401c-5.215,0-8.311,0-13.526,0c-0.272,0-0.491-0.163-0.491-0.364c0-2.142,0-3.214,0-5.356
			c0-0.201,0.22-0.364,0.491-0.364c5.215,0,8.311,0,13.526,0c0.272,0,0.491,0.163,0.491,0.364c0,2.142,0,3.214,0,5.356
			C149.185,167.238,148.966,167.401,148.694,167.401z"/>
		<path fill="#EFEFEF" d="M148.694,166.555c-5.215,0-8.311,0-13.526,0c-0.272,0-0.491-0.163-0.491-0.364c0-2.142,0-3.214,0-5.356
			c0-0.201,0.22-0.364,0.491-0.364c5.215,0,8.311,0,13.526,0c0.272,0,0.491,0.163,0.491,0.364c0,2.142,0,3.214,0,5.356
			C149.185,166.393,148.966,166.555,148.694,166.555z"/>
	</g>
	<g>
		<path fill="#A8A8A8" d="M148.694,174.472c-5.215,0-8.311,0-13.526,0c-0.272,0-0.491-0.086-0.491-0.192c0-1.13,0-1.695,0-2.825
			c0-0.106,0.22-0.192,0.491-0.192c5.215,0,8.311,0,13.526,0c0.272,0,0.491,0.086,0.491,0.192c0,1.13,0,1.695,0,2.825
			C149.185,174.386,148.966,174.472,148.694,174.472z"/>
		<path fill="#EFEFEF" d="M148.694,174.026c-5.215,0-8.311,0-13.526,0c-0.272,0-0.491-0.086-0.491-0.192c0-1.13,0-1.695,0-2.825
			c0-0.106,0.22-0.192,0.491-0.192c5.215,0,8.311,0,13.526,0c0.272,0,0.491,0.086,0.491,0.192c0,1.13,0,1.695,0,2.825
			C149.185,173.941,148.966,174.026,148.694,174.026z"/>
	</g>
	<g>
		<path fill="#A8A8A8" d="M167.607,167.401c-5.215,0-8.311,0-13.526,0c-0.272,0-0.491-0.163-0.491-0.364c0-2.142,0-3.214,0-5.356
			c0-0.201,0.22-0.364,0.491-0.364c5.215,0,8.311,0,13.526,0c0.272,0,0.491,0.163,0.491,0.364c0,2.142,0,3.214,0,5.356
			C168.098,167.238,167.878,167.401,167.607,167.401z"/>
		<path fill="#EFEFEF" d="M167.607,166.555c-5.215,0-8.311,0-13.526,0c-0.272,0-0.491-0.163-0.491-0.364c0-2.142,0-3.214,0-5.356
			c0-0.201,0.22-0.364,0.491-0.364c5.215,0,8.311,0,13.526,0c0.272,0,0.491,0.163,0.491,0.364c0,2.142,0,3.214,0,5.356
			C168.098,166.393,167.878,166.555,167.607,166.555z"/>
	</g>
	<g>
		<path fill="#A8A8A8" d="M167.607,174.472c-5.215,0-8.311,0-13.526,0c-0.272,0-0.491-0.086-0.491-0.192c0-1.13,0-1.695,0-2.825
			c0-0.106,0.22-0.192,0.491-0.192c5.215,0,8.311,0,13.526,0c0.272,0,0.491,0.086,0.491,0.192c0,1.13,0,1.695,0,2.825
			C168.098,174.386,167.878,174.472,167.607,174.472z"/>
		<path fill="#EFEFEF" d="M167.607,174.026c-5.215,0-8.311,0-13.526,0c-0.272,0-0.491-0.086-0.491-0.192c0-1.13,0-1.695,0-2.825
			c0-0.106,0.22-0.192,0.491-0.192c5.215,0,8.311,0,13.526,0c0.272,0,0.491,0.086,0.491,0.192c0,1.13,0,1.695,0,2.825
			C168.098,173.941,167.878,174.026,167.607,174.026z"/>
	</g>
	<g>
		<path fill="#A8A8A8" d="M148.694,190.205c-5.215,0-8.311,0-13.526,0c-0.272,0-0.491-0.086-0.491-0.192c0-1.13,0-1.695,0-2.825
			c0-0.106,0.22-0.192,0.491-0.192c5.215,0,8.311,0,13.526,0c0.272,0,0.491,0.086,0.491,0.192c0,1.13,0,1.695,0,2.825
			C149.185,190.119,148.966,190.205,148.694,190.205z"/>
		<path fill="#EFEFEF" d="M148.694,189.759c-5.215,0-8.311,0-13.526,0c-0.272,0-0.491-0.086-0.491-0.192c0-1.13,0-1.695,0-2.825
			c0-0.106,0.22-0.192,0.491-0.192c5.215,0,8.311,0,13.526,0c0.272,0,0.491,0.086,0.491,0.192c0,1.13,0,1.695,0,2.825
			C149.185,189.673,148.966,189.759,148.694,189.759z"/>
	</g>
	<g>
		<path fill="#A8A8A8" d="M167.607,190.205c-5.215,0-8.311,0-13.526,0c-0.272,0-0.491-0.086-0.491-0.192c0-1.13,0-1.695,0-2.825
			c0-0.106,0.22-0.192,0.491-0.192c5.215,0,8.311,0,13.526,0c0.272,0,0.491,0.086,0.491,0.192c0,1.13,0,1.695,0,2.825
			C168.098,190.119,167.878,190.205,167.607,190.205z"/>
		<path fill="#EFEFEF" d="M167.607,189.759c-5.215,0-8.311,0-13.526,0c-0.272,0-0.491-0.086-0.491-0.192c0-1.13,0-1.695,0-2.825
			c0-0.106,0.22-0.192,0.491-0.192c5.215,0,8.311,0,13.526,0c0.272,0,0.491,0.086,0.491,0.192c0,1.13,0,1.695,0,2.825
			C168.098,189.673,167.878,189.759,167.607,189.759z"/>
	</g>
	<g>
		<path fill="none" stroke="#3F3F3F" stroke-width="0.75" stroke-linecap="round" stroke-miterlimit="10" d="M141.931,188.186
			c0-32.015,0-66.954,0-98.969"/>
	</g>
	<g>
		<path fill="none" stroke="#3F3F3F" stroke-width="0.75" stroke-linecap="round" stroke-miterlimit="10" d="M160.844,188.223
			c0-27.241,0-56.97,0-84.21"/>
	</g>
	<g>
		<g>
			<circle fill="#EFEFEF" cx="177.211" cy="190.587" r="1.82"/>
			<path fill="#4F4F4F" d="M178.662,190.215v0.372c0,0.801-0.65,1.451-1.451,1.451c-0.801,0-1.451-0.65-1.451-1.451v-0.372
				c0-0.284,0.081-0.55,0.224-0.774h0.339c0.246-0.192,0.554-0.306,0.888-0.306c0.335,0,0.643,0.114,0.888,0.306h0.339
				C178.581,189.666,178.662,189.931,178.662,190.215z"/>
			<path fill="#686868" d="M178.662,190.215c0,0.801-0.65,1.451-1.451,1.451c-0.801,0-1.451-0.65-1.451-1.451
				c0-0.284,0.081-0.55,0.224-0.774c0.255-0.406,0.71-0.677,1.227-0.677c0.517,0,0.972,0.271,1.227,0.677
				C178.581,189.666,178.662,189.931,178.662,190.215z"/>
		</g>
		<g>
			<circle fill="#EFEFEF" cx="172.297" cy="190.587" r="1.82"/>
			<path fill="#4F4F4F" d="M173.748,190.215v0.372c0,0.801-0.65,1.451-1.451,1.451c-0.801,0-1.451-0.65-1.451-1.451v-0.372
				c0-0.284,0.081-0.55,0.224-0.774h0.339c0.246-0.192,0.553-0.306,0.888-0.306c0.335,0,0.643,0.114,0.888,0.306h0.339
				C173.667,189.666,173.748,189.931,173.748,190.215z"/>
			<path fill="#686868" d="M173.748,190.215c0,0.801-0.65,1.451-1.451,1.451c-0.801,0-1.451-0.65-1.451-1.451
				c0-0.284,0.081-0.55,0.224-0.774c0.255-0.406,0.71-0.677,1.227-0.677c0.517,0,0.972,0.271,1.227,0.677
				C173.667,189.666,173.748,189.931,173.748,190.215z"/>
		</g>
		<g>
			<circle fill="#EFEFEF" cx="172.513" cy="185.586" r="1.82"/>
			<path fill="#4F4F4F" d="M173.964,185.215v0.372c0,0.801-0.65,1.451-1.451,1.451c-0.801,0-1.451-0.65-1.451-1.451v-0.372
				c0-0.284,0.081-0.55,0.224-0.774h0.339c0.246-0.192,0.554-0.306,0.888-0.306s0.643,0.114,0.888,0.306h0.339
				C173.883,184.665,173.964,184.93,173.964,185.215z"/>
			<path fill="#686868" d="M173.964,185.215c0,0.801-0.65,1.451-1.451,1.451c-0.801,0-1.451-0.65-1.451-1.451
				c0-0.284,0.081-0.55,0.224-0.774c0.255-0.406,0.71-0.677,1.227-0.677c0.517,0,0.971,0.271,1.227,0.677
				C173.883,184.665,173.964,184.93,173.964,185.215z"/>
		</g>
		<g>
			<circle fill="#EFEFEF" cx="175.773" cy="195.586" r="1.82"/>
			<path fill="#4F4F4F" d="M177.225,195.214v0.372c0,0.801-0.65,1.451-1.451,1.451c-0.801,0-1.451-0.65-1.451-1.451v-0.372
				c0-0.284,0.081-0.55,0.224-0.774h0.339c0.246-0.192,0.554-0.306,0.888-0.306s0.643,0.114,0.888,0.306H177
				C177.143,194.665,177.225,194.93,177.225,195.214z"/>
			<path fill="#686868" d="M177.225,195.214c0,0.801-0.65,1.451-1.451,1.451c-0.801,0-1.451-0.65-1.451-1.451
				c0-0.284,0.081-0.55,0.224-0.774c0.255-0.406,0.71-0.677,1.227-0.677c0.517,0,0.971,0.271,1.227,0.677
				C177.143,194.665,177.225,194.93,177.225,195.214z"/>
		</g>
	</g>
	<g>
		<circle fill="#EFEFEF" cx="151.611" cy="196.275" r="0.925"/>
		<path fill="#4F4F4F" d="M152.349,196.086v0.189c0,0.407-0.331,0.738-0.738,0.738s-0.738-0.331-0.738-0.738v-0.189
			c0-0.145,0.041-0.279,0.114-0.394h0.172c0.125-0.097,0.281-0.155,0.452-0.155c0.17,0,0.327,0.058,0.452,0.155h0.172
			C152.308,195.806,152.349,195.941,152.349,196.086z"/>
		<path fill="#686868" d="M152.349,196.086c0,0.407-0.331,0.738-0.738,0.738s-0.738-0.331-0.738-0.738
			c0-0.145,0.041-0.279,0.114-0.394c0.13-0.207,0.361-0.344,0.624-0.344c0.263,0,0.494,0.138,0.624,0.344
			C152.308,195.806,152.349,195.941,152.349,196.086z"/>
	</g>
	<circle fill="#A8A8A8" cx="146.699" cy="168.848" r="0.374"/>
	<circle fill="#A8A8A8" cx="145.881" cy="194.138" r="0.374"/>
	<circle fill="#A8A8A8" cx="157.378" cy="194.138" r="0.374"/>
	<circle fill="#A8A8A8" cx="153.712" cy="181.004" r="0.374"/>
	<circle fill="#A8A8A8" cx="149.511" cy="181.004" r="0.374"/>
	<circle fill="#A8A8A8" cx="157.111" cy="168.848" r="0.374"/>
	<g>
		<circle fill="#EFEFEF" cx="174.665" cy="155.56" r="1.139"/>
		<path fill="#4F4F4F" d="M175.573,155.328v0.232c0,0.501-0.407,0.908-0.908,0.908c-0.501,0-0.908-0.407-0.908-0.908v-0.232
			c0-0.178,0.051-0.344,0.14-0.484h0.212c0.154-0.12,0.346-0.191,0.556-0.191c0.209,0,0.402,0.071,0.556,0.191h0.212
			C175.522,154.984,175.573,155.15,175.573,155.328z"/>
		<path fill="#686868" d="M175.573,155.328c0,0.501-0.407,0.908-0.908,0.908c-0.501,0-0.908-0.407-0.908-0.908
			c0-0.178,0.051-0.344,0.14-0.484c0.16-0.254,0.444-0.424,0.768-0.424c0.323,0,0.608,0.17,0.768,0.424
			C175.522,154.984,175.573,155.15,175.573,155.328z"/>
	</g>
	<circle fill="#A8A8A8" cx="165.826" cy="159.072" r="0.374"/>
	<circle fill="#A8A8A8" cx="175.424" cy="160.946" r="0.374"/>
	<circle fill="#A8A8A8" cx="172.624" cy="170.011" r="0.374"/>
	<circle fill="#A8A8A8" cx="173.389" cy="178.886" r="0.374"/>
	<circle fill="#A8A8A8" cx="164.553" cy="178.563" r="0.374"/>
	<circle fill="#A8A8A8" cx="155.729" cy="159.072" r="0.374"/>
	<circle fill="#A8A8A8" cx="147.85" cy="159.072" r="0.374"/>
	<g>
		<circle fill="#EFEFEF" cx="163.307" cy="99.805" r="0.712"/>
		<path fill="#4F4F4F" d="M163.886,99.716l-0.014,0.145c-0.031,0.312-0.309,0.54-0.621,0.509s-0.54-0.309-0.509-0.621l0.014-0.145
			c0.011-0.111,0.053-0.211,0.117-0.293l0.132,0.013c0.103-0.065,0.227-0.098,0.357-0.085c0.13,0.013,0.246,0.069,0.334,0.153
			l0.132,0.013C163.876,99.499,163.897,99.606,163.886,99.716z"/>
		<path fill="#686868" d="M163.886,99.716c-0.031,0.312-0.309,0.54-0.621,0.509c-0.312-0.031-0.54-0.309-0.509-0.621
			c0.011-0.111,0.053-0.211,0.117-0.293c0.115-0.148,0.302-0.236,0.504-0.217c0.201,0.02,0.368,0.143,0.452,0.311
			C163.876,99.499,163.897,99.606,163.886,99.716z"/>
	</g>
	<g>
		<circle fill="#EFEFEF" cx="163.702" cy="95.802" r="0.712"/>
		<path fill="#4F4F4F" d="M164.281,95.714l-0.014,0.145c-0.031,0.312-0.309,0.54-0.621,0.509s-0.54-0.309-0.509-0.621l0.014-0.145
			c0.011-0.111,0.053-0.211,0.117-0.293l0.132,0.013c0.103-0.065,0.227-0.098,0.357-0.085c0.13,0.013,0.246,0.069,0.334,0.153
			l0.132,0.013C164.27,95.497,164.292,95.603,164.281,95.714z"/>
		<path fill="#686868" d="M164.281,95.714c-0.031,0.312-0.309,0.54-0.621,0.509c-0.312-0.031-0.54-0.309-0.509-0.621
			c0.011-0.111,0.053-0.211,0.117-0.293c0.115-0.148,0.302-0.236,0.504-0.217c0.201,0.02,0.368,0.143,0.452,0.311
			C164.27,95.497,164.292,95.603,164.281,95.714z"/>
	</g>
	<g>
		<circle fill="#EFEFEF" cx="164.096" cy="91.8" r="0.712"/>
		<path fill="#4F4F4F" d="M164.676,91.711l-0.014,0.145c-0.031,0.312-0.309,0.54-0.621,0.509c-0.312-0.031-0.54-0.309-0.509-0.621
			l0.014-0.145c0.011-0.111,0.053-0.211,0.117-0.293l0.132,0.013c0.103-0.065,0.227-0.098,0.357-0.085
			c0.13,0.013,0.246,0.069,0.334,0.153l0.132,0.013C164.665,91.494,164.687,91.6,164.676,91.711z"/>
		<path fill="#686868" d="M164.676,91.711c-0.031,0.312-0.309,0.54-0.621,0.509c-0.312-0.031-0.54-0.309-0.509-0.621
			c0.011-0.111,0.053-0.211,0.117-0.293c0.115-0.148,0.302-0.236,0.504-0.217s0.368,0.143,0.452,0.311
			C164.665,91.494,164.687,91.6,164.676,91.711z"/>
	</g>
	<g>
		<circle fill="#EFEFEF" cx="158.579" cy="99.805" r="0.712"/>
		<path fill="#4F4F4F" d="M158,99.716l0.014,0.145c0.031,0.312,0.309,0.54,0.621,0.509c0.312-0.031,0.54-0.309,0.509-0.621
			l-0.014-0.145c-0.011-0.111-0.053-0.211-0.117-0.293l-0.132,0.013c-0.103-0.065-0.227-0.098-0.357-0.085
			c-0.13,0.013-0.246,0.069-0.334,0.153l-0.132,0.013C158.011,99.499,157.989,99.606,158,99.716z"/>
		<path fill="#686868" d="M158,99.716c0.031,0.312,0.309,0.54,0.621,0.509s0.54-0.309,0.509-0.621
			c-0.011-0.111-0.053-0.211-0.117-0.293c-0.115-0.148-0.302-0.236-0.504-0.217c-0.201,0.02-0.368,0.143-0.452,0.311
			C158.011,99.499,157.989,99.606,158,99.716z"/>
	</g>
	<g>
		<circle fill="#EFEFEF" cx="158.185" cy="95.802" r="0.712"/>
		<path fill="#4F4F4F" d="M157.605,95.714l0.014,0.145c0.031,0.312,0.309,0.54,0.621,0.509s0.54-0.309,0.509-0.621l-0.014-0.145
			c-0.011-0.111-0.053-0.211-0.117-0.293l-0.132,0.013c-0.103-0.065-0.227-0.098-0.357-0.085c-0.13,0.013-0.246,0.069-0.334,0.153
			l-0.132,0.013C157.616,95.497,157.594,95.603,157.605,95.714z"/>
		<path fill="#686868" d="M157.605,95.714c0.031,0.312,0.309,0.54,0.621,0.509s0.54-0.309,0.509-0.621
			c-0.011-0.111-0.053-0.211-0.117-0.293c-0.115-0.148-0.302-0.236-0.504-0.217c-0.201,0.02-0.368,0.143-0.452,0.311
			C157.616,95.497,157.594,95.603,157.605,95.714z"/>
	</g>
	<g>
		<circle fill="#EFEFEF" cx="157.79" cy="91.8" r="0.712"/>
		<path fill="#4F4F4F" d="M157.211,91.711l0.014,0.145c0.031,0.312,0.309,0.54,0.621,0.509s0.54-0.309,0.509-0.621l-0.014-0.145
			c-0.011-0.111-0.053-0.211-0.117-0.293l-0.132,0.013c-0.103-0.065-0.227-0.098-0.357-0.085c-0.13,0.013-0.246,0.069-0.334,0.153
			l-0.132,0.013C157.221,91.494,157.2,91.6,157.211,91.711z"/>
		<path fill="#686868" d="M157.211,91.711c0.031,0.312,0.309,0.54,0.621,0.509s0.54-0.309,0.509-0.621
			c-0.011-0.111-0.053-0.211-0.117-0.293c-0.115-0.148-0.302-0.236-0.504-0.217c-0.201,0.02-0.368,0.143-0.452,0.311
			C157.221,91.494,157.2,91.6,157.211,91.711z"/>
	</g>
	<g>
		<circle fill="#EFEFEF" cx="137.91" cy="90.39" r="0.651"/>
		<path fill="#4F4F4F" d="M137.376,90.35l0.023,0.131c0.05,0.282,0.319,0.471,0.602,0.421c0.282-0.05,0.471-0.319,0.421-0.601
			l-0.023-0.131c-0.018-0.1-0.063-0.188-0.127-0.259l-0.119,0.021c-0.098-0.052-0.214-0.073-0.332-0.052
			c-0.118,0.021-0.219,0.08-0.294,0.163l-0.119,0.021C137.37,90.151,137.358,90.249,137.376,90.35z"/>
		<path fill="#686868" d="M137.376,90.35c0.05,0.282,0.319,0.471,0.601,0.421c0.282-0.05,0.471-0.319,0.421-0.601
			c-0.018-0.1-0.063-0.188-0.127-0.259c-0.115-0.127-0.292-0.194-0.474-0.162s-0.325,0.156-0.39,0.315
			C137.37,90.151,137.358,90.249,137.376,90.35z"/>
	</g>
	<g>
		<circle fill="#EFEFEF" cx="137.281" cy="86.927" r="0.651"/>
		<path fill="#4F4F4F" d="M136.747,86.887l0.023,0.131c0.05,0.282,0.319,0.471,0.601,0.421c0.282-0.05,0.471-0.319,0.421-0.601
			l-0.023-0.131c-0.018-0.1-0.063-0.188-0.127-0.259l-0.119,0.021c-0.098-0.052-0.214-0.073-0.332-0.052s-0.219,0.08-0.294,0.163
			l-0.119,0.021C136.741,86.688,136.729,86.786,136.747,86.887z"/>
		<path fill="#686868" d="M136.747,86.887c0.05,0.282,0.319,0.471,0.602,0.421c0.282-0.05,0.471-0.319,0.421-0.601
			c-0.018-0.1-0.063-0.188-0.127-0.259c-0.115-0.127-0.292-0.194-0.474-0.162c-0.182,0.032-0.325,0.156-0.39,0.315
			C136.741,86.688,136.729,86.786,136.747,86.887z"/>
	</g>
	<g>
		<circle fill="#EFEFEF" cx="136.652" cy="83.464" r="0.651"/>
		<path fill="#4F4F4F" d="M136.118,83.424l0.023,0.131c0.05,0.282,0.319,0.471,0.602,0.421c0.282-0.05,0.471-0.319,0.421-0.601
			l-0.023-0.131c-0.018-0.1-0.063-0.188-0.127-0.259l-0.119,0.021c-0.098-0.052-0.214-0.073-0.332-0.052
			c-0.118,0.021-0.219,0.08-0.294,0.163l-0.119,0.021C136.113,83.225,136.1,83.323,136.118,83.424z"/>
		<path fill="#686868" d="M136.118,83.424c0.05,0.282,0.319,0.471,0.601,0.421c0.282-0.05,0.471-0.319,0.421-0.601
			c-0.018-0.1-0.063-0.188-0.127-0.259c-0.115-0.127-0.292-0.194-0.474-0.162s-0.325,0.156-0.39,0.315
			C136.113,83.225,136.1,83.323,136.118,83.424z"/>
	</g>
	<g>
		<circle fill="#EFEFEF" cx="136.162" cy="79.99" r="0.651"/>
		<path fill="#4F4F4F" d="M135.628,79.95l0.023,0.131c0.05,0.282,0.319,0.471,0.601,0.421c0.282-0.05,0.471-0.319,0.421-0.601
			l-0.023-0.131c-0.018-0.1-0.063-0.188-0.127-0.259l-0.119,0.021c-0.098-0.052-0.214-0.073-0.332-0.052
			c-0.118,0.021-0.219,0.08-0.294,0.163l-0.119,0.021C135.622,79.751,135.61,79.85,135.628,79.95z"/>
		<path fill="#686868" d="M135.628,79.95c0.05,0.282,0.319,0.471,0.602,0.421c0.282-0.05,0.471-0.319,0.421-0.601
			c-0.018-0.1-0.063-0.188-0.127-0.259c-0.115-0.127-0.292-0.194-0.474-0.162c-0.182,0.032-0.325,0.156-0.39,0.315
			C135.622,79.751,135.61,79.85,135.628,79.95z"/>
	</g>
	<g>
		<circle fill="#EFEFEF" cx="135.534" cy="76.527" r="0.651"/>
		<path fill="#4F4F4F" d="M134.999,76.487l0.023,0.131c0.05,0.282,0.319,0.471,0.601,0.421c0.282-0.05,0.471-0.319,0.421-0.601
			l-0.023-0.131c-0.018-0.1-0.063-0.188-0.127-0.259l-0.119,0.021c-0.098-0.052-0.214-0.073-0.332-0.052
			c-0.118,0.021-0.219,0.08-0.294,0.163L135.03,76.2C134.994,76.288,134.982,76.387,134.999,76.487z"/>
		<path fill="#686868" d="M134.999,76.487c0.05,0.282,0.319,0.471,0.601,0.421c0.282-0.05,0.471-0.319,0.421-0.601
			c-0.018-0.1-0.063-0.188-0.127-0.259c-0.115-0.127-0.292-0.194-0.474-0.162c-0.182,0.032-0.325,0.156-0.39,0.315
			C134.994,76.288,134.982,76.387,134.999,76.487z"/>
	</g>
	<g>
		<circle fill="#EFEFEF" cx="134.905" cy="73.064" r="0.651"/>
		<path fill="#4F4F4F" d="M134.371,73.024l0.023,0.131c0.05,0.282,0.319,0.471,0.602,0.421c0.282-0.05,0.471-0.319,0.421-0.601
			l-0.023-0.131c-0.018-0.1-0.063-0.188-0.127-0.259l-0.119,0.021c-0.098-0.052-0.214-0.073-0.332-0.052
			c-0.118,0.021-0.219,0.08-0.294,0.163l-0.119,0.021C134.365,72.825,134.353,72.924,134.371,73.024z"/>
		<path fill="#686868" d="M134.371,73.024c0.05,0.282,0.319,0.471,0.601,0.421c0.282-0.05,0.471-0.319,0.421-0.601
			c-0.018-0.1-0.063-0.188-0.127-0.259c-0.115-0.127-0.292-0.194-0.474-0.162s-0.325,0.156-0.39,0.315
			C134.365,72.825,134.353,72.924,134.371,73.024z"/>
	</g>
	<g>
		<circle fill="#EFEFEF" cx="145.634" cy="90.397" r="0.651"/>
		<path fill="#4F4F4F" d="M146.168,90.354l-0.023,0.131c-0.049,0.282-0.317,0.472-0.6,0.423c-0.282-0.049-0.472-0.317-0.423-0.599
			l0.023-0.131c0.017-0.1,0.062-0.189,0.126-0.259l0.119,0.021c0.098-0.053,0.214-0.074,0.332-0.054
			c0.118,0.02,0.219,0.079,0.294,0.162l0.119,0.021C146.172,90.155,146.185,90.254,146.168,90.354z"/>
		<path fill="#686868" d="M146.168,90.354c-0.049,0.282-0.317,0.472-0.6,0.423c-0.282-0.049-0.472-0.317-0.423-0.6
			c0.017-0.1,0.062-0.189,0.126-0.259c0.115-0.128,0.291-0.196,0.473-0.164c0.182,0.031,0.326,0.154,0.391,0.313
			C146.172,90.155,146.185,90.254,146.168,90.354z"/>
	</g>
	<g>
		<circle fill="#EFEFEF" cx="146.246" cy="86.931" r="0.651"/>
		<path fill="#4F4F4F" d="M146.78,86.888l-0.023,0.131c-0.049,0.282-0.317,0.472-0.6,0.423c-0.282-0.049-0.472-0.317-0.423-0.6
			l0.023-0.131c0.017-0.1,0.062-0.189,0.126-0.259l0.119,0.021c0.098-0.053,0.214-0.074,0.332-0.054
			c0.118,0.02,0.219,0.079,0.294,0.162l0.119,0.021C146.785,86.69,146.797,86.788,146.78,86.888z"/>
		<path fill="#686868" d="M146.78,86.888c-0.049,0.282-0.317,0.472-0.6,0.423c-0.282-0.049-0.472-0.317-0.423-0.6
			c0.017-0.1,0.062-0.189,0.126-0.259c0.115-0.128,0.291-0.196,0.473-0.164c0.182,0.031,0.326,0.154,0.391,0.313
			C146.785,86.69,146.797,86.788,146.78,86.888z"/>
	</g>
	<g>
		<circle fill="#EFEFEF" cx="146.858" cy="83.465" r="0.651"/>
		<path fill="#4F4F4F" d="M147.392,83.422l-0.023,0.131c-0.049,0.282-0.317,0.472-0.599,0.423c-0.282-0.049-0.472-0.317-0.423-0.6
			l0.023-0.131c0.017-0.1,0.062-0.189,0.126-0.259l0.119,0.021c0.098-0.053,0.214-0.074,0.332-0.054
			c0.118,0.02,0.219,0.079,0.294,0.162l0.119,0.021C147.397,83.224,147.41,83.322,147.392,83.422z"/>
		<path fill="#686868" d="M147.392,83.422c-0.049,0.282-0.317,0.472-0.599,0.423c-0.282-0.049-0.472-0.317-0.423-0.6
			c0.017-0.1,0.062-0.189,0.126-0.259c0.115-0.128,0.291-0.196,0.473-0.164c0.182,0.031,0.326,0.154,0.391,0.313
			C147.397,83.224,147.41,83.322,147.392,83.422z"/>
	</g>
	<g>
		<circle fill="#EFEFEF" cx="147.332" cy="79.989" r="0.651"/>
		<path fill="#4F4F4F" d="M147.866,79.946l-0.023,0.131c-0.049,0.282-0.317,0.472-0.6,0.423c-0.282-0.049-0.472-0.317-0.423-0.6
			l0.023-0.131c0.017-0.1,0.062-0.189,0.126-0.259l0.119,0.021c0.098-0.053,0.214-0.074,0.332-0.054
			c0.118,0.02,0.219,0.079,0.294,0.162l0.119,0.021C147.871,79.748,147.883,79.846,147.866,79.946z"/>
		<path fill="#686868" d="M147.866,79.946c-0.049,0.282-0.317,0.472-0.6,0.423c-0.282-0.049-0.472-0.317-0.423-0.6
			c0.017-0.1,0.062-0.189,0.126-0.259c0.115-0.128,0.291-0.196,0.473-0.164c0.182,0.031,0.326,0.154,0.391,0.313
			C147.871,79.748,147.883,79.846,147.866,79.946z"/>
	</g>
	<g>
		<circle fill="#EFEFEF" cx="147.944" cy="76.523" r="0.651"/>
		<path fill="#4F4F4F" d="M148.478,76.48l-0.023,0.131c-0.049,0.282-0.317,0.472-0.6,0.423c-0.282-0.049-0.472-0.317-0.423-0.6
			l0.023-0.131c0.017-0.1,0.062-0.189,0.126-0.259l0.119,0.021c0.098-0.053,0.214-0.074,0.332-0.054
			c0.118,0.02,0.219,0.079,0.294,0.162l0.119,0.021C148.483,76.282,148.496,76.38,148.478,76.48z"/>
		<path fill="#686868" d="M148.478,76.48c-0.049,0.282-0.317,0.472-0.6,0.423c-0.282-0.049-0.472-0.317-0.423-0.6
			c0.017-0.1,0.062-0.189,0.126-0.259c0.115-0.128,0.291-0.196,0.473-0.164c0.182,0.031,0.326,0.154,0.391,0.313
			C148.483,76.282,148.496,76.38,148.478,76.48z"/>
	</g>
	<g>
		<circle fill="#EFEFEF" cx="148.557" cy="73.057" r="0.651"/>
		<path fill="#4F4F4F" d="M149.091,73.014l-0.023,0.131c-0.049,0.282-0.317,0.472-0.6,0.423c-0.282-0.049-0.472-0.317-0.423-0.6
			l0.023-0.131c0.017-0.1,0.062-0.189,0.126-0.259l0.119,0.021c0.098-0.053,0.214-0.074,0.332-0.054
			c0.118,0.02,0.219,0.079,0.294,0.162l0.119,0.021C149.095,72.816,149.108,72.914,149.091,73.014z"/>
		<path fill="#686868" d="M149.091,73.014c-0.049,0.282-0.317,0.472-0.6,0.423c-0.282-0.049-0.472-0.317-0.423-0.599
			c0.017-0.1,0.062-0.189,0.126-0.259c0.115-0.128,0.291-0.196,0.473-0.164c0.182,0.031,0.326,0.154,0.391,0.313
			C149.095,72.816,149.108,72.914,149.091,73.014z"/>
	</g>
</g>
</svg>
