<?xml version="1.0" encoding="utf-8"?>
<!-- Generator: Adobe Illustrator 26.3.1, SVG Export Plug-In . SVG Version: 6.00 Build 0)  -->
<svg version="1.1" id="Camada_1" xmlns="http://www.w3.org/2000/svg" xmlns:xlink="http://www.w3.org/1999/xlink" x="0px" y="0px"
	 viewBox="0 0 300 300" enable-background="new 0 0 300 300" xml:space="preserve">
<ellipse fill="#FFFFFF" cx="150.114" cy="149.532" rx="149.999" ry="149.999"/>
<circle fill="#5EC2D7" cx="150.116" cy="149.532" r="140.812"/>
<path fill="#64B283" d="M178.574,185.895c-2.137-4.001-2.547-8.869-0.766-13.067c1.79-4.221,2.779-8.883,2.783-13.709
	c0.003-3.014,0-9.526,0-9.526s-5.397-1.807-7.091,0.519c-2.723,3.742-4.716,6.651-10.457,6.651c-7.013,0-10.521-8.221-12.354-14.046
	c-0.808-2.567-0.401-7.346-0.401-7.346c-0.589,0.007-0.887,0.011-1.468,0.018c0,0-1.409,13.765-10.636,13.765
	c-4.006,0-6.298-2.748-7.575-5.858c-1.382-3.368-11.199,6.267-11.199,6.267s0,2.926,0,9.526c0,4.873,0.99,9.497,2.763,13.655
	c1.802,4.227,1.416,9.127-0.736,13.161c-2.134,4-6.85,7.462-6.85,7.462s0,6.976,0,9.526c0.004,20.09,18.145,26.896,35.413,26.896
	c15.737,0,35.413-6.806,35.413-26.896c0-2.39,0-9.526,0-9.526S180.881,190.216,178.574,185.895z"/>
<path fill="#EAC28C" d="M156.086,84.268c1.656-1.109,2.74-3.067,2.74-5.317c0-1.283-0.021-3.924-0.021-3.924
	s-3.745-2.355-5.845-2.355c-2.656,0-4.997,1.796-5.806,4.274c-0.008-0.007-0.013-0.011-0.022-0.018
	c-2.454,7.415-3.625,11.122-5.958,18.537c0,1.055,0,1.583,0,2.638c0,1.3,0.295,2.46,1.334,2.979
	c0.479,0.239,0.719,0.358,1.202,0.597c0.645,0.319,1.351,0.485,2.075,0.485c3.824,0,5.988,0,9.763,0c0.47,0,0.848-0.407,0.848-0.909
	c0-0.238,0-0.357,0-0.594c0-0.193,0.095-0.37,0.249-0.467c0.63-0.395,0.943-0.593,1.566-0.988c0.369-0.234,0.493-0.684,0.493-1.164
	c0-1.265,0-1.898,0-3.164C157.664,90.634,157.143,88.512,156.086,84.268z"/>
<path fill="#FFD9A1" d="M156.086,80.872c2.051-1.373,3.231-4.051,2.545-6.972c-0.506-2.154-2.104-3.891-4.145-4.425
	c-3.249-0.851-6.37,1.13-7.332,4.075c-0.008-0.007-0.013-0.011-0.022-0.018c-2.414,8.47-3.568,12.705-5.863,21.175
	c-0.323,1.191,0.201,2.46,1.241,2.979c0.272,0.136,0.408,0.204,0.681,0.34c0.984,0.489,2.064,0.742,3.18,0.742
	c3.614,0,5.633,0,9.177,0c0.47,0,0.848-0.407,0.848-0.909c0-0.238,0-0.356,0-0.594c0-0.193,0.095-0.37,0.249-0.467
	c0.63-0.395,0.943-0.593,1.566-0.988c0.369-0.234,0.558-0.698,0.474-1.153C157.652,89.142,157.135,86.386,156.086,80.872z"/>
<path fill="#87C5A2" d="M178.574,176.369c-2.136-4.002-2.041-8.689-0.766-13.067c1.319-4.526,2.779-8.883,2.783-13.709
	c0.003-3.014-0.909-7.884-4.8-7.884c-5.57,0-6.226,5.529-11.536,5.529c-7.013,0-11.733-8.221-13.566-14.046
	c-0.808-2.567-0.401-7.346-0.401-7.346c-0.589,0.007-0.887,0.011-1.468,0.018c0,0-1.409,13.765-10.636,13.765
	c-4.006,0-6.298-2.748-7.575-5.858c-1.382-3.368-5.728-3.641-7.346-0.396c-2.046,4.1-3.853,9.59-3.853,16.19
	c0,4.873,1.291,9.465,2.763,13.655c1.523,4.335,1.416,9.127-0.736,13.161c-4.935,9.253-6.85,12.496-6.85,16.988
	c0.004,20.09,18.145,26.896,35.413,26.896c15.737,0,35.413-6.806,35.413-26.896C185.413,188.876,183.506,185.607,178.574,176.369z"
	/>
<path fill="#FFEEF0" d="M150,145.018c0,0,8.57,5.586,14.803,5.586c5.597,0,6.989-5.518,9.847-5.518c2.514,0,3.118,2.61,3.118,4.684
	c0,5.772-4.104,12.538-4.104,19.498s8.315,16.848,8.315,24.325c0,8.418-3.719,13.057-9.412,15.2
	c-10.939,4.118-17.265-16.199-22.567-18.614c-4.343-1.978-14.936,6.046-17.936,2.823c-6.031-6.478,5.457-17.669,5.457-26.652
	c0-7.523-7.284-14.026-2.351-19.424C139.017,142.716,150,145.018,150,145.018z"/>
<path fill="#565656" d="M154.931,101.493c0,17.501,0,38.048,0,55.549c0,0.512-0.217,0.916-0.494,0.916c-3.458,0-5.416,0-8.874,0
	c-0.277,0-0.494-0.404-0.494-0.916c0-17.501,0-38.048,0-55.549c0-0.499,0.217-0.916,0.494-0.916c3.458,0,5.416,0,8.874,0
	C154.714,100.577,154.931,100.994,154.931,101.493z"/>
<path fill="#E0E0E0" d="M154.931,101.493c0,1.218,0,1.827,0,3.045c-3.834,0-6.027,0-9.862,0c0-1.218,0-1.827,0-3.045
	c0-0.499,0.217-0.916,0.494-0.916c3.458,0,5.416,0,8.874,0C154.714,100.577,154.931,100.994,154.931,101.493z"/>
<path fill="#4C4C4C" d="M159.086,195.124c-7.005,0-11.168,0-18.173,0c-1.425,0-2.569-1.264-2.569-2.824c0-0.849,0-1.272,0-2.121
	c9.014,0,14.297,0,23.311,0c0,0.849,0,1.272,0,2.121C161.656,193.86,160.511,195.124,159.086,195.124z"/>
<g>
	<path fill="#DBC8CC" d="M155.678,184.731c-5.188-1.78-8.243-2.828-13.431-4.608c-1.055-0.362-1.581-1.577-1.189-2.719
		c0.169-0.494,0.254-0.741,0.424-1.235c6.64,2.278,10.588,3.633,17.228,5.911c-0.169,0.494-0.254,0.741-0.424,1.235
		C157.894,184.457,156.733,185.093,155.678,184.731z"/>
	<path fill="#F2DADE" d="M156.102,183.497c-5.188-1.78-8.243-2.828-13.431-4.608c-1.055-0.362-1.581-1.577-1.189-2.719l0,0
		c0.392-1.142,1.553-1.778,2.608-1.416c5.188,1.78,8.243,2.828,13.431,4.608c1.055,0.362,1.581,1.577,1.189,2.719l0,0
		C158.318,183.223,157.156,183.859,156.102,183.497z"/>
</g>
<g>
	<path fill="#DBC8CC" d="M157.1,164.729c-5.485,0-8.715,0-14.199,0c-1.115,0-2.007-0.979-2.007-2.186c0-0.522,0-0.783,0-1.305
		c7.02,0,11.194,0,18.214,0c0,0.522,0,0.783,0,1.305C159.107,163.75,158.215,164.729,157.1,164.729z"/>
	<path fill="#F2DADE" d="M157.1,163.424c-5.485,0-8.715,0-14.199,0c-1.115,0-2.007-0.979-2.007-2.186l0,0
		c0-1.207,0.892-2.186,2.007-2.186c5.485,0,8.715,0,14.199,0c1.115,0,2.007,0.979,2.007,2.186l0,0
		C159.107,162.445,158.215,163.424,157.1,163.424z"/>
</g>
<path fill="#565656" d="M159.086,193.002c-7.005,0-11.168,0-18.173,0c-1.425,0-2.569-1.264-2.569-2.823l0,0
	c0-1.56,1.145-2.824,2.569-2.824c7.005,0,11.168,0,18.173,0c1.425,0,2.569,1.264,2.569,2.824l0,0
	C161.656,191.738,160.511,193.002,159.086,193.002z"/>
<g>
	<path fill="#3F3F3F" d="M150,190.679c-0.276,0-0.5-0.224-0.5-0.5V90.451c0-0.276,0.224-0.5,0.5-0.5s0.5,0.224,0.5,0.5v99.728
		C150.5,190.455,150.276,190.679,150,190.679z"/>
</g>
<g>
	<g>
		<circle fill="#DBC8CC" cx="171.23" cy="192.654" r="2.569"/>
		<path fill="#4F4F4F" d="M173.278,192.13v0.524c0,1.131-0.918,2.048-2.048,2.048c-1.131,0-2.048-0.918-2.048-2.048v-0.524
			c0-0.401,0.115-0.776,0.317-1.092h0.478c0.347-0.27,0.781-0.431,1.253-0.431s0.907,0.161,1.253,0.431h0.478
			C173.163,191.354,173.278,191.729,173.278,192.13z"/>
		<path fill="#686868" d="M173.278,192.13c0,1.131-0.918,2.048-2.048,2.048c-1.131,0-2.048-0.918-2.048-2.048
			c0-0.401,0.115-0.776,0.317-1.092c0.36-0.573,1.002-0.956,1.731-0.956s1.371,0.382,1.731,0.956
			C173.163,191.354,173.278,191.729,173.278,192.13z"/>
	</g>
	<g>
		<circle fill="#DBC8CC" cx="168.661" cy="185.598" r="2.569"/>
		<path fill="#4F4F4F" d="M170.709,185.074v0.524c0,1.131-0.918,2.048-2.048,2.048s-2.048-0.918-2.048-2.048v-0.524
			c0-0.401,0.115-0.776,0.317-1.092h0.478c0.347-0.27,0.781-0.431,1.253-0.431s0.907,0.161,1.253,0.431h0.478
			C170.595,184.298,170.709,184.673,170.709,185.074z"/>
		<path fill="#686868" d="M170.709,185.074c0,1.131-0.918,2.048-2.048,2.048s-2.048-0.918-2.048-2.048
			c0-0.401,0.115-0.776,0.317-1.092c0.36-0.573,1.002-0.956,1.731-0.956s1.371,0.382,1.731,0.956
			C170.595,184.298,170.709,184.673,170.709,185.074z"/>
	</g>
	<g>
		<circle fill="#DBC8CC" cx="173.798" cy="199.708" r="2.569"/>
		<path fill="#4F4F4F" d="M175.846,199.184v0.524c0,1.131-0.918,2.048-2.048,2.048c-1.131,0-2.048-0.918-2.048-2.048v-0.524
			c0-0.401,0.115-0.776,0.317-1.092h0.478c0.347-0.27,0.781-0.431,1.253-0.431s0.907,0.161,1.253,0.431h0.478
			C175.732,198.409,175.846,198.783,175.846,199.184z"/>
		<path fill="#686868" d="M175.846,199.184c0,1.131-0.918,2.048-2.048,2.048c-1.131,0-2.048-0.918-2.048-2.048
			c0-0.401,0.115-0.776,0.317-1.092c0.36-0.573,1.002-0.956,1.731-0.956s1.371,0.382,1.731,0.956
			C175.732,198.409,175.846,198.783,175.846,199.184z"/>
	</g>
</g>
</svg>
