<svg xmlns="http://www.w3.org/2000/svg" version="1.0" viewBox="0 0 300 300"><path fill="#FFF" d="M299.548 149.774a150.087 150.087 0 01-.721 14.68 149.13 149.13 0 01-2.157 14.539 149.123 149.123 0 01-3.572 14.258 149.92 149.92 0 01-11.236 27.126 150.04 150.04 0 01-7.556 12.607 150.312 150.312 0 01-8.756 11.805 149.501 149.501 0 01-9.871 10.89 149.832 149.832 0 01-35.302 26.183 149.75 149.75 0 01-48.627 16.065 149.13 149.13 0 01-14.627 1.441 150.087 150.087 0 01-22.029-.541 149.13 149.13 0 01-14.539-2.157 149.123 149.123 0 01-14.258-3.572 149.92 149.92 0 01-27.126-11.236 148.962 148.962 0 01-12.607-7.556 149.593 149.593 0 01-22.695-18.627 149.832 149.832 0 01-26.183-35.302A149.628 149.628 0 016.45 193.251a149.726 149.726 0 01-4.829-65.453 150.32 150.32 0 012.868-14.416 149.726 149.726 0 0113.197-34.211 148.962 148.962 0 017.556-12.607 150.312 150.312 0 018.756-11.805 149.501 149.501 0 019.871-10.89 149.832 149.832 0 0135.302-26.183A149.628 149.628 0 01106.297 6.45a149.726 149.726 0 0165.453-4.829 150.32 150.32 0 0114.416 2.868 149.726 149.726 0 0134.211 13.197 149.571 149.571 0 0124.412 16.312 149.501 149.501 0 0110.89 9.871 149.832 149.832 0 0126.183 35.302 149.628 149.628 0 0111.236 27.126 149.726 149.726 0 016.45 43.477z"/><path fill="#FBBC4B" d="M290.375 149.774a140.458 140.458 0 01-6.055 40.813 141.046 141.046 0 01-4.649 12.992 140.756 140.756 0 01-12.994 24.307 139.934 139.934 0 01-8.22 11.082 139.969 139.969 0 01-9.267 10.224 140.275 140.275 0 01-10.224 9.266 140.981 140.981 0 01-11.082 8.22 141.291 141.291 0 01-11.834 7.094 140.322 140.322 0 01-18.912 8.384 141.046 141.046 0 01-13.204 4.006 141.008 141.008 0 01-13.532 2.692 140.661 140.661 0 01-27.529 1.353 140.143 140.143 0 01-13.731-1.353 140.757 140.757 0 01-26.736-6.698 139.718 139.718 0 01-12.748-5.281 140.322 140.322 0 01-17.999-10.197 139.934 139.934 0 01-11.082-8.22 139.969 139.969 0 01-10.224-9.266 141.206 141.206 0 01-9.267-10.223 140.981 140.981 0 01-8.22-11.082 141.291 141.291 0 01-7.094-11.834 140.322 140.322 0 01-8.384-18.912 141.046 141.046 0 01-4.006-13.204 141.008 141.008 0 01-2.692-13.532 140.661 140.661 0 01-1.353-27.529 140.143 140.143 0 011.353-13.731 140.757 140.757 0 016.698-26.736 139.718 139.718 0 015.281-12.748 140.322 140.322 0 0110.197-17.999 139.934 139.934 0 018.22-11.082 139.969 139.969 0 019.267-10.224 141.206 141.206 0 0110.224-9.267 140.981 140.981 0 0111.082-8.22 141.291 141.291 0 0111.835-7.094 140.322 140.322 0 0118.912-8.384 141.046 141.046 0 0113.204-4.006 141.008 141.008 0 0113.532-2.692 140.661 140.661 0 0127.529-1.353 140.143 140.143 0 0113.731 1.353 140.757 140.757 0 0126.736 6.698 139.718 139.718 0 0112.748 5.281 140.322 140.322 0 0117.998 10.197 139.934 139.934 0 0111.082 8.22 139.969 139.969 0 0110.224 9.267 140.909 140.909 0 0117.487 21.306 141.291 141.291 0 017.094 11.835 140.322 140.322 0 018.384 18.912 141.046 141.046 0 014.006 13.204 141.008 141.008 0 012.692 13.532 140.661 140.661 0 011.522 20.629z"/><path fill="#3F3F3F" d="M166.035 88.65s-3.698 5.135-16.403 8.732c-12.705 3.597-18.546 1.162-18.546 1.162l-.299-19.648c-.03-1.948 2.044-3.758 4.539-3.962l7.771-.635 6.952-3.533c2.232-1.134 4.947-.679 5.942.996l10.044 16.888z"/><path fill="#494949" d="M174.302 87.372c.086.302.13.615.133.939.003.324-.034.657-.113 1a5.72 5.72 0 01-.358 1.05 8.04 8.04 0 01-.6 1.091c-.24.37-.519.743-.836 1.121-.318.378-.672.758-1.065 1.14-.392.382-.82.765-1.282 1.149-.463.383-.959.765-1.488 1.146a34.25 34.25 0 01-1.679 1.132c-.59.374-1.208.743-1.854 1.107-.646.364-1.316.722-2.011 1.072-.695.351-1.411.693-2.149 1.026a65.72 65.72 0 01-4.627 1.877 73.395 73.395 0 01-7.425 2.245 67.935 67.935 0 01-4.995 1.033c-.823.138-1.636.258-2.439.361-.803.102-1.592.186-2.368.252-.776.066-1.534.113-2.275.141-.741.028-1.461.038-2.159.029a34.16 34.16 0 01-2.023-.084 27.642 27.642 0 01-1.868-.196 21.345 21.345 0 01-1.694-.306 15.827 15.827 0 01-1.504-.413 11.357 11.357 0 01-1.3-.516 8.145 8.145 0 01-1.083-.614 5.703 5.703 0 01-.856-.707c-.247-.25-.453-.514-.62-.792s-.293-.568-.379-.87a3.532 3.532 0 01-.133-.939 4.268 4.268 0 01.113-1 5.72 5.72 0 01.358-1.05c.16-.358.36-.721.6-1.091s.519-.743.836-1.121c.318-.378.672-.758 1.065-1.14.392-.382.82-.765 1.282-1.149.463-.383.959-.765 1.488-1.146a34.25 34.25 0 011.679-1.132c.59-.374 1.208-.743 1.854-1.107a48.895 48.895 0 012.011-1.072 54.367 54.367 0 012.149-1.026 65.72 65.72 0 014.627-1.877 73.395 73.395 0 017.425-2.245 67.935 67.935 0 014.995-1.033 63.936 63.936 0 012.439-.361 57.386 57.386 0 012.368-.252 48.426 48.426 0 012.275-.141 42.668 42.668 0 012.159-.029c.699.009 1.373.037 2.023.084s1.273.112 1.868.196c.595.084 1.16.186 1.694.306s1.036.258 1.504.413c.468.155.902.327 1.3.516s.759.394 1.083.614c.324.221.609.456.856.707s.453.514.62.792c.168.278.294.568.379.87z"/><path fill="#3F3F3F" d="M164.712 90.339c.041.151.056.308.046.472a1.886 1.886 0 01-.11.51 2.87 2.87 0 01-.264.543 4.55 4.55 0 01-.416.57 7.256 7.256 0 01-.563.592 10.69 10.69 0 01-.705.608c-.258.205-.539.411-.841.619-.302.208-.625.415-.968.623-.343.208-.705.415-1.086.622-.381.207-.779.411-1.194.614a43.292 43.292 0 01-2.663 1.183 50.046 50.046 0 01-2.944 1.084 57.912 57.912 0 01-4.694 1.351 55.645 55.645 0 01-3.138.666 48.528 48.528 0 01-3.006.449c-.484.055-.956.101-1.416.137-.461.036-.907.061-1.34.076s-.85.02-1.252.015c-.401-.005-.785-.02-1.151-.046a14.608 14.608 0 01-1.039-.107 11.053 11.053 0 01-.917-.166 7.338 7.338 0 01-.786-.224 4.708 4.708 0 01-.647-.28 2.948 2.948 0 01-.503-.334 1.882 1.882 0 01-.353-.384 1.412 1.412 0 01-.246-.902c.011-.164.047-.334.11-.51a2.87 2.87 0 01.264-.543 4.55 4.55 0 01.416-.57c.164-.194.351-.392.563-.592.212-.201.447-.403.705-.608.258-.205.539-.411.841-.619.302-.208.625-.415.968-.623.343-.208.705-.415 1.086-.622.381-.207.779-.411 1.194-.614a43.292 43.292 0 012.663-1.183 50.046 50.046 0 012.944-1.084 57.912 57.912 0 014.694-1.351 55.645 55.645 0 013.138-.666 48.528 48.528 0 013.006-.449c.484-.056.956-.101 1.416-.137.461-.036.907-.061 1.34-.076.433-.015.85-.02 1.251-.015.401.005.785.02 1.151.046.366.025.712.061 1.039.107.327.046.632.101.917.166.284.065.546.14.786.224.239.084.455.178.647.28.192.103.36.214.503.334.143.12.261.248.353.384.093.136.16.279.201.43z"/><path fill="#4C4C4C" d="M154.816 95.72c1.627-1.089 2.691-3.012 2.691-5.223 0-1.26-.02-3.854-.02-3.854s-3.678-2.314-5.741-2.314c-2.609 0-4.909 1.763-5.702 4.198l-.022-.018c-2.41 7.283-3.561 10.925-5.852 18.208v2.591c0 1.277.291 2.416 1.311 2.927l1.18.587a4.517 4.517 0 002.038.476h9.59c.461 0 .833-.4.833-.894v-.584a.54.54 0 01.245-.459c.619-.388.926-.582 1.538-.971.362-.23.484-.672.484-1.143v-3.107c-.851-3.476-1.708-6.949-2.573-10.42zm22.088 99.819c-2.099-3.93-2.501-8.711-.752-12.835a34.223 34.223 0 002.733-13.465c.003-2.961 0-9.357 0-9.357s-5.302-1.774-6.965.51c-2.675 3.675-4.632 6.533-10.272 6.533-6.889 0-10.333-8.075-12.134-13.796-.794-2.521-.393-7.215-.393-7.215l-1.442.018s-1.384 13.52-10.447 13.52c-3.934 0-6.186-2.699-7.441-5.754-1.358-3.308-11 6.156-11 6.156v9.357c0 4.787.972 9.328 2.714 13.413 1.77 4.152 1.391 8.964-.723 12.926-2.096 3.929-6.728 7.329-6.728 7.329v9.357c.004 19.732 17.823 26.417 34.784 26.417 15.458 0 34.784-6.685 34.784-26.417v-9.357s-4.452-3.095-6.718-7.34z"/><path fill="#565656" d="M176.904 186.183c-2.099-3.93-2.005-8.534-.752-12.835 1.295-4.446 2.73-8.725 2.733-13.465.003-2.961-.893-7.743-4.715-7.743-5.471 0-6.116 5.431-11.331 5.431-6.889 0-11.525-8.075-13.325-13.796-.794-2.521-.393-7.215-.393-7.215l-1.442.018s-1.384 13.52-10.447 13.52c-3.934 0-6.186-2.699-7.441-5.754-1.358-3.308-5.627-3.576-7.216-.389-2.009 4.027-3.784 9.42-3.784 15.902 0 4.787 1.268 9.297 2.714 13.413 1.496 4.259 1.391 8.964-.723 12.926-4.848 9.088-6.729 12.274-6.728 16.686.004 19.732 17.823 26.417 34.784 26.417 15.458 0 34.784-6.685 34.784-26.417 0-4.414-1.873-7.625-6.718-16.699zm-22.088-93.8c2.015-1.349 3.174-3.979 2.499-6.849-.496-2.116-2.067-3.822-4.071-4.346-3.191-.836-6.258 1.11-7.201 4.003l-.022-.018c-2.371 8.319-3.505 12.479-5.759 20.799-.318 1.169.198 2.416 1.219 2.927l.669.333c.967.48 2.028.729 3.123.729h9.013c.461 0 .833-.399.833-.894v-.583a.54.54 0 01.245-.459c.619-.388.926-.582 1.538-.971.362-.23.548-.685.465-1.132-.842-4.515-1.693-9.028-2.551-13.539z"/><path fill="#FFEEF0" d="M148.839 155.39s8.417 5.487 14.54 5.487c5.498 0 6.866-5.42 9.671-5.42 2.469 0 3.062 2.563 3.062 4.6 0 5.669-4.031 12.314-4.031 19.152 0 6.837 8.168 16.549 8.168 23.892 0 8.269-3.653 12.825-9.244 14.929-10.745 4.045-16.958-15.911-22.166-18.283-4.266-1.943-14.671 5.938-17.617 2.773-5.924-6.362 5.36-17.356 5.36-26.179 0-7.39-7.155-13.776-2.31-19.078 3.779-4.135 14.567-1.873 14.567-1.873z"/><path fill="#DBC8CC" d="M157.178 175.173h-16.679c-.335 0-.605-.297-.605-.662v-9.745c0-.365.271-.662.605-.662h16.679c.335 0 .605.297.605.662v9.745c0 .365-.27.662-.605.662z"/><path fill="#F2DADE" d="M157.178 173.634h-16.679c-.335 0-.605-.297-.605-.662v-9.745c0-.365.271-.662.605-.662h16.679c.335 0 .605.297.605.662v9.745c0 .367-.27.662-.605.662z"/><path fill="#FFCD7D" d="M153.681 112.638V167.2c0 .502-.214.9-.485.9h-8.716c-.272 0-.485-.396-.485-.9v-54.562c0-.49.214-.901.485-.901h8.716c.272.001.485.411.485.901z"/><path fill="#E0E0E0" d="M153.681 112.638v2.99h-9.686v-2.99c0-.49.214-.901.485-.901h8.716c.272.001.485.411.485.901z"/><path fill="#DBC8CC" d="M155.812 186.769h-13.947c-1.095 0-1.972-.962-1.972-2.147v-1.282h17.89v1.282c0 1.186-.876 2.147-1.971 2.147zm1.951 17.836h-17.85c-1.399 0-2.523-1.242-2.523-2.774v-2.083h22.897v2.083c-.001 1.532-1.125 2.774-2.524 2.774z"/><path fill="#F2DADE" d="M157.763 202.521h-17.85c-1.399 0-2.523-1.242-2.523-2.773 0-1.532 1.124-2.774 2.523-2.774h17.85c1.399 0 2.523 1.242 2.523 2.774s-1.124 2.773-2.523 2.773zm-1.951-17.034h-13.947c-1.095 0-1.972-.962-1.972-2.147 0-1.186.877-2.147 1.972-2.147h13.947c1.095 0 1.972.962 1.972 2.147-.001 1.187-.877 2.147-1.972 2.147z"/><path fill="#DBC8CC" d="M171.461 199.751a2.91 2.91 0 01-.224 1.126 2.998 2.998 0 01-.638.955 2.896 2.896 0 01-.955.638 2.901 2.901 0 01-1.126.224 2.91 2.91 0 01-1.126-.224 2.998 2.998 0 01-.955-.638 2.896 2.896 0 01-.638-.955 2.91 2.91 0 01-.167-1.7 2.998 2.998 0 01.805-1.507 2.896 2.896 0 01.955-.638 2.901 2.901 0 011.126-.224 2.91 2.91 0 011.126.224 2.998 2.998 0 01.955.638 2.896 2.896 0 01.638.955 2.901 2.901 0 01.224 1.126z"/><path fill="#4F4F4F" d="M170.865 199.151v.601a2.326 2.326 0 01-.198.877c-.123.28-.294.526-.513.738-.219.213-.47.376-.753.491a2.32 2.32 0 01-.882.172 2.34 2.34 0 01-2.148-1.401 2.326 2.326 0 01-.198-.877v-.601c0-.46.132-.889.362-1.251h.547a2.303 2.303 0 011.436-.495 2.31 2.31 0 011.436.495h.547c.233.362.364.79.364 1.251z"/><path fill="#686868" d="M170.865 199.151a2.326 2.326 0 01-.198.877 2.322 2.322 0 01-.513.738c-.219.213-.47.376-.753.491a2.32 2.32 0 01-.882.172 2.34 2.34 0 01-2.148-1.401 2.326 2.326 0 01-.198-.877c0-.46.132-.889.362-1.251a2.308 2.308 0 01.85-.804 2.311 2.311 0 011.718-.218 2.34 2.34 0 011.398 1.022c.233.362.364.79.364 1.251z"/><path fill="#DBC8CC" d="M168.518 191.667a2.91 2.91 0 01-.224 1.126 2.96 2.96 0 01-1.084 1.321 2.96 2.96 0 01-1.635.496 2.91 2.91 0 01-1.126-.224 2.998 2.998 0 01-.955-.638 2.896 2.896 0 01-.638-.955 2.91 2.91 0 01-.167-1.7 2.96 2.96 0 011.251-1.873 2.96 2.96 0 011.635-.496 2.91 2.91 0 011.126.224 2.96 2.96 0 011.321 1.084 2.96 2.96 0 01.496 1.635z"/><path fill="#4F4F4F" d="M167.923 191.066v.601a2.326 2.326 0 01-.198.877c-.123.28-.294.526-.513.738-.219.213-.47.377-.753.491a2.32 2.32 0 01-.882.172 2.34 2.34 0 01-2.149-1.401 2.33 2.33 0 01-.198-.877v-.601c0-.46.132-.889.362-1.251h.547a2.303 2.303 0 011.436-.495 2.31 2.31 0 011.436.495h.547c.233.362.365.792.365 1.251z"/><path fill="#686868" d="M167.923 191.066a2.326 2.326 0 01-.198.877c-.123.28-.294.526-.513.738-.219.213-.47.377-.753.491a2.32 2.32 0 01-.882.172 2.34 2.34 0 01-2.149-1.401 2.33 2.33 0 01-.198-.877c0-.46.132-.889.362-1.251a2.308 2.308 0 01.85-.804 2.313 2.313 0 011.133-.292 2.357 2.357 0 011.133.292 2.355 2.355 0 011.215 2.055z"/><path fill="#DBC8CC" d="M174.404 207.833a2.91 2.91 0 01-.224 1.126 2.998 2.998 0 01-.638.955 2.896 2.896 0 01-.955.638 2.901 2.901 0 01-1.126.224 2.91 2.91 0 01-1.126-.224 2.998 2.998 0 01-.955-.638 2.896 2.896 0 01-.638-.955 2.901 2.901 0 01-.224-1.126 2.91 2.91 0 01.224-1.126 2.96 2.96 0 011.084-1.321 2.96 2.96 0 011.635-.496 2.91 2.91 0 011.126.224 2.998 2.998 0 01.955.638 2.896 2.896 0 01.638.955 2.901 2.901 0 01.224 1.126z"/><path fill="#4F4F4F" d="M173.808 207.233v.601a2.326 2.326 0 01-.198.877c-.123.28-.294.526-.513.738-.219.213-.47.376-.753.491a2.32 2.32 0 01-.882.172 2.34 2.34 0 01-2.148-1.401 2.326 2.326 0 01-.198-.877v-.601c0-.46.132-.889.362-1.251h.547a2.303 2.303 0 011.436-.495 2.344 2.344 0 011.436.495h.547c.232.362.364.79.364 1.251z"/><path fill="#686868" d="M173.808 207.233a2.326 2.326 0 01-.198.877c-.123.28-.294.526-.513.738-.219.213-.47.376-.753.491a2.32 2.32 0 01-.882.172 2.34 2.34 0 01-2.148-1.401 2.326 2.326 0 01-.198-.877c0-.46.132-.889.362-1.251a2.308 2.308 0 01.85-.804 2.311 2.311 0 011.718-.218 2.34 2.34 0 011.398 1.022c.232.362.364.79.364 1.251z"/><path fill="none" stroke="#3F3F3F" stroke-linecap="round" stroke-miterlimit="10" stroke-width="1.345" d="M148.839 199.748V98.509"/><path fill="#494949" d="M162.112 88.663s-11.298-1.794-21.943 4.002l2.107-6.074 6.598-1.99c.6-.181 1.211-.32 1.83-.413l6.974-1.066 4.434 5.541z"/><path fill="#3F3F3F" d="M162.112 82.871s-10.971.25-22.506 4.704l2.67-5.756 6.598-1.99c.6-.181 1.211-.32 1.83-.413l6.974-1.066 4.434 4.521z"/></svg>