<svg xmlns="http://www.w3.org/2000/svg" xmlns:xlink="http://www.w3.org/1999/xlink" version="1.0" viewBox="0 0 300 300"><circle cx="150" cy="150" r="150" fill="#FFF" transform="rotate(-45.001 149.999 150.002)"/><circle cx="150" cy="150" r="140.812" fill="#FAE040"/><path fill="#3D3D3D" d="M157.464 138.566l32.295 81.132v7.929c0 1.307-1.434 1.79-2.834 1.13L150 211.345l-36.925 17.413c-1.4.66-2.834-.269-2.834-1.547v-7.608l32.295-81.036c2.492-5.963 12.436-5.963 14.928-.001z"/><path fill="#515151" d="M157.464 130.637l32.235 88.742c.411 1.176-1.374 2.109-2.774 1.449L150 203.415l-36.925 17.413c-1.4.66-3.185-.272-2.774-1.449l32.235-88.742c2.492-5.963 12.436-5.963 14.928 0z"/><path fill="#FFF" d="M145.734 140.297c3.919-1.568 10.01-.691 11.732 3.427l20.59 56.688a.655.655 0 01-.864.829l-30.655-9.404a1.136 1.136 0 01-.803-1.087v-50.453"/><path fill="#D6D6D6" d="M156.633 160.374h-13.261a.374.374 0 01-.374-.374v-4.485c0-.207.168-.374.374-.374h13.261c.207 0 .374.168.374.374V160a.373.373 0 01-.374.374z"/><path fill="#E2E2E2" d="M156.633 159.646h-13.261a.374.374 0 01-.374-.375v-4.485c0-.207.168-.374.374-.374h13.261c.207 0 .374.168.374.374v4.485a.373.373 0 01-.374.375z"/><path fill="#D6D6D6" d="M156.631 172.638H143.37a.375.375 0 01-.375-.375v-4.485c0-.207.168-.374.375-.374h13.261c.207 0 .374.168.374.374v4.485a.375.375 0 01-.374.375z"/><path fill="#E2E2E2" d="M156.631 171.911h-13.259a.374.374 0 01-.374-.374v-4.485c0-.207.168-.375.374-.375h13.259c.207 0 .374.168.374.375v4.485a.375.375 0 01-.374.374z"/><path fill="#D6D6D6" d="M158.133 184.614h-16.266a.98.98 0 01-.98-.98v-2.332h18.226v2.332a.98.98 0 01-.98.98z"/><path fill="#E2E2E2" d="M158.499 183.376H141.5a.614.614 0 01-.614-.614v-2.92c0-.339.275-.614.614-.614h16.999c.339 0 .614.275.614.614v2.92a.614.614 0 01-.614.614z"/><path fill="#FFCD7D" d="M154.271 99.146v54.318c0 .529-.193.948-.439.948h-7.66c-.245 0-.439-.418-.439-.948V99.146c0-.516.193-.948.439-.948h7.66c.246.001.439.432.439.948z"/><path fill="#C6C6C6" d="M154.271 99.146v1.604h-8.538v-1.604c0-.516.193-.948.439-.948h7.66c.246.001.439.432.439.948z"/><circle cx="165.995" cy="184.616" r="2.088" fill="#E2E2E2"/><path fill="#4F4F4F" d="M167.66 184.19v.426a1.666 1.666 0 01-3.33 0v-.426c0-.326.093-.631.258-.888h.389a1.65 1.65 0 012.038 0h.389c.163.257.256.561.256.888z"/><path fill="#686868" d="M167.66 184.19a1.666 1.666 0 01-3.33 0c0-.326.093-.631.258-.888a1.662 1.662 0 012.816 0c.163.257.256.561.256.888z"/><circle cx="163.907" cy="178.879" r="2.088" fill="#E2E2E2"/><path fill="#4F4F4F" d="M165.572 178.453v.426a1.666 1.666 0 01-3.33 0v-.426c0-.326.093-.631.258-.888h.389a1.65 1.65 0 012.038 0h.389c.163.257.256.561.256.888z"/><path fill="#686868" d="M165.572 178.453a1.666 1.666 0 01-3.33 0c0-.326.093-.631.258-.888a1.662 1.662 0 012.816 0c.163.257.256.561.256.888z"/><circle cx="168.084" cy="190.352" r="2.088" fill="#E2E2E2"/><path fill="#4F4F4F" d="M169.749 189.925v.426a1.666 1.666 0 01-3.33 0v-.426c0-.326.093-.631.258-.888h.389a1.65 1.65 0 012.038 0h.389c.163.258.256.562.256.888z"/><path fill="#686868" d="M169.749 189.925a1.666 1.666 0 01-3.33 0c0-.326.093-.631.258-.888a1.662 1.662 0 012.816 0c.163.258.256.562.256.888z"/><defs><path id="a" d="M160.615 71.519v1.745a.282.282 0 01-.015.089v-1.745c.01-.03.015-.06.015-.089z"/></defs><clipPath id="b"><use overflow="visible" xlink:href="#a"/></clipPath><g clip-path="url(#b)"><path fill="#2F2F2F" d="M160.615 71.519v1.745a.253.253 0 01-.003.038v-1.745a.243.243 0 00.003-.038"/><path fill="#2D2D2D" d="M160.612 71.557v1.745a.266.266 0 01-.011.047v-1.745a.266.266 0 00.011-.047"/><path fill="#2C2C2C" d="M160.601 71.604v1.745l-.001.004v-1.745l.001-.004"/></g><defs><path id="c" d="M139.39 73.291v-1.745c0 .029.005.059.015.089v1.745a.282.282 0 01-.015-.089z"/></defs><clipPath id="d"><use overflow="visible" xlink:href="#c"/></clipPath><g clip-path="url(#d)"><path fill="#2A2A2A" d="M139.405 71.635v1.745a.282.282 0 01-.015-.089v-1.745c0 .029.005.059.015.089"/></g><path fill="#3D3D3D" d="M145.759 99.005h8.532v1.745h-8.532zm0 0v1.745l-6.354-27.37v-1.745zM160.6 71.608v1.745l-6.309 27.397v-1.745z"/><path fill="#515151" d="M160.123 71.167c.297 0 .558.198.477.441l-6.309 27.397h-8.532l-6.354-27.37c-.081-.243.18-.441.477-.441l.261.054 9.864 4.632 9.855-4.659.261-.054z"/><path fill="#3F3F3F" d="M147.278 182.015c-.276 0-.5-.248-.5-.555V91.748c0-.307.224-.555.5-.555s.5.248.5.555v89.712c0 .306-.224.555-.5.555zm2.722 0c-.276 0-.5-.26-.5-.582V87.374c0-.322.224-.582.5-.582s.5.26.5.582v94.059c0 .321-.224.582-.5.582zm2.722 0c-.276 0-.5-.269-.5-.602V84.13c0-.333.224-.602.5-.602s.5.269.5.602v97.283c0 .332-.223.602-.5.602z"/></svg>