<svg xmlns="http://www.w3.org/2000/svg" id="Camada_1" x="0" y="0" version="1.1" viewBox="0 0 736.45 736.45" xml:space="preserve"><style>.st6{fill:#565656}.st9{fill:#dbc8cc}.st10{fill:#f2dade}.st11{fill:#4f4f4f}.st12{fill:#686868}</style><path fill="#fbbc4b" d="M736.45 368.22c0 6.03-.15 12.05-.44 18.07s-.74 12.03-1.33 18.02c-.59 6-1.33 11.98-2.21 17.94-.88 5.96-1.91 11.9-3.09 17.81-1.18 5.91-2.5 11.79-3.96 17.63a362.04 362.04 0 01-4.82 17.42c-1.75 5.77-3.64 11.49-5.67 17.16s-4.2 11.29-6.5 16.86a374.85 374.85 0 01-7.32 16.52c-2.58 5.45-5.29 10.83-8.13 16.14a366.933 366.933 0 01-18.58 31c-3.35 5.01-6.82 9.94-10.41 14.78s-7.3 9.59-11.12 14.25c-3.82 4.66-7.76 9.22-11.8 13.69-4.05 4.47-8.2 8.83-12.46 13.09-4.26 4.26-8.62 8.42-13.09 12.46s-9.03 7.98-13.69 11.8-9.41 7.53-14.25 11.12a370.46 370.46 0 01-14.78 10.41c-5.01 3.35-10.1 6.57-15.27 9.67a363 363 0 01-15.73 8.91c-5.31 2.84-10.7 5.55-16.14 8.13-5.45 2.58-10.96 5.02-16.52 7.32-5.57 2.31-11.19 4.47-16.86 6.5-5.67 2.03-11.39 3.92-17.16 5.67a362.04 362.04 0 01-17.42 4.82c-5.85 1.46-11.72 2.78-17.63 3.96-5.91 1.18-11.85 2.21-17.81 3.09-5.96.88-11.94 1.62-17.94 2.21-6 .59-12.01 1.03-18.02 1.33-6.02.3-12.04.44-18.07.44s-12.05-.15-18.07-.44a373.5 373.5 0 01-18.02-1.33c-6-.59-11.98-1.33-17.94-2.21-5.96-.88-11.9-1.91-17.81-3.09-5.91-1.18-11.79-2.5-17.63-3.96a362.04 362.04 0 01-17.42-4.82c-5.77-1.75-11.49-3.64-17.16-5.67s-11.29-4.2-16.86-6.5a374.85 374.85 0 01-16.52-7.32c-5.45-2.58-10.83-5.29-16.14-8.13a366.933 366.933 0 01-31-18.58 370.46 370.46 0 01-14.78-10.41c-4.84-3.59-9.59-7.3-14.25-11.12-4.66-3.82-9.22-7.76-13.69-11.81-4.47-4.05-8.83-8.2-13.09-12.46-4.26-4.26-8.42-8.62-12.46-13.09a365.12 365.12 0 01-11.8-13.69 372.94 372.94 0 01-11.12-14.25 370.46 370.46 0 01-10.41-14.78c-3.35-5.01-6.57-10.1-9.67-15.27s-6.07-10.41-8.91-15.73c-2.84-5.31-5.55-10.7-8.13-16.14s-5.02-10.96-7.32-16.52c-2.31-5.57-4.47-11.19-6.5-16.86-2.03-5.67-3.92-11.39-5.67-17.16s-3.36-11.57-4.82-17.42c-1.46-5.85-2.78-11.72-3.96-17.63-1.18-5.91-2.21-11.85-3.09-17.81a372.12 372.12 0 01-2.21-17.94c-.59-6-1.03-12.01-1.33-18.02-.3-6.01-.45-12.03-.45-18.06 0-6.03.15-12.05.44-18.07.3-6.02.74-12.03 1.33-18.02.59-6 1.33-11.98 2.21-17.94.88-5.96 1.91-11.9 3.09-17.81 1.18-5.91 2.5-11.79 3.96-17.63a362.04 362.04 0 014.82-17.42c1.75-5.77 3.64-11.49 5.67-17.16s4.2-11.29 6.5-16.86a374.85 374.85 0 017.32-16.52c2.58-5.45 5.29-10.83 8.13-16.14a366.933 366.933 0 0118.58-31c3.35-5.01 6.82-9.94 10.41-14.78s7.3-9.59 11.12-14.25c3.82-4.66 7.76-9.22 11.8-13.69 4.05-4.47 8.2-8.83 12.46-13.09 4.26-4.26 8.62-8.42 13.09-12.46s9.03-7.98 13.69-11.8c4.66-3.82 9.41-7.53 14.25-11.12 4.84-3.59 9.77-7.06 14.78-10.41 5.01-3.35 10.1-6.57 15.27-9.67a363 363 0 0115.73-8.91c5.31-2.84 10.7-5.55 16.14-8.13 5.45-2.58 10.96-5.02 16.52-7.32 5.57-2.31 11.19-4.47 16.86-6.5 5.67-2.03 11.39-3.92 17.16-5.67a362.04 362.04 0 0117.42-4.82c5.85-1.46 11.72-2.78 17.63-3.96s11.85-2.21 17.81-3.09c5.96-.88 11.94-1.62 17.94-2.21 6-.59 12.01-1.03 18.02-1.33S362.2 0 368.22 0s12.05.15 18.07.44 12.03.74 18.02 1.33c6 .59 11.98 1.33 17.94 2.21 5.96.88 11.9 1.91 17.81 3.09 5.91 1.18 11.79 2.5 17.63 3.96a362.04 362.04 0 0117.42 4.82c5.77 1.75 11.49 3.64 17.16 5.67s11.29 4.2 16.86 6.5a374.85 374.85 0 0116.52 7.32c5.45 2.58 10.83 5.29 16.14 8.13a366.933 366.933 0 0131 18.58c5.01 3.35 9.94 6.82 14.78 10.41s9.59 7.3 14.25 11.12c4.66 3.82 9.22 7.76 13.69 11.8s8.83 8.2 13.09 12.46c4.26 4.26 8.42 8.62 12.46 13.09 4.05 4.47 7.98 9.03 11.8 13.69 3.82 4.66 7.53 9.41 11.12 14.25 3.59 4.84 7.06 9.77 10.41 14.78 3.35 5.01 6.57 10.1 9.67 15.27s6.07 10.41 8.91 15.73 5.55 10.7 8.13 16.14c2.58 5.45 5.02 10.96 7.32 16.52s4.47 11.19 6.5 16.86c2.03 5.67 3.92 11.39 5.67 17.16a362.04 362.04 0 014.82 17.42c1.46 5.85 2.78 11.72 3.96 17.63 1.18 5.91 2.21 11.85 3.09 17.81.88 5.96 1.62 11.94 2.21 17.94.59 6 1.03 12.01 1.33 18.02.3 6.02.45 12.05.45 18.07z"/><path fill="#932a2a" d="M480.56 468.16c-12.29-23-20.87-24.14-10.81-47.87 3.36-7.94-3.9-21.45-2.19-29.91 1.72-8.45 8.27-19.7 0-22.16-5.22-1.56-16.37 7.64 1.91-25.48 0 0-1.3-14.18-7.5-5.66-9.97 13.71-17.28 24.36-38.31 24.36-25.69 0-38.54-30.11-45.25-51.45-2.96-9.4-1.47-26.91-1.47-26.91l-5.38.07s-16.08 55.23-37.96 80.99c-22.5 26.48-45.26-37.81-56.86-30.37-11.23 7.2-12.91 1.31-12.91 1.31l8.99 36.45c0 17.85 5.69 30.24 12.19 45.47 6.6 15.48-5.87 36.42-13.75 51.2-7.82 14.65 7.15 30.29 7.15 30.29l-32.24 31.94c.01 73.59 66.47 97.52 129.72 97.52 82.27 0 131.12-37.69 126.24-117.57l-5.52-15.85s-7.6-10.54-16.05-26.37z"/><path fill="#eac28c" d="M395.19 117.88c6.07-4.06 10.04-11.23 10.04-19.48 0-4.7-.08-14.37-.08-14.37s-13.72-8.63-21.41-8.63c-9.73 0-18.3 6.58-21.27 15.66a.5.5 0 01-.08-.07c-8.99 27.16-13.28 40.74-21.83 67.9v9.66c0 4.76 1.08 9.01 4.89 10.91l4.4 2.19c2.39 1.19 4.93 1.78 7.6 1.78h35.76c1.72 0 3.11-1.49 3.11-3.33v-2.18c-.01-.74.3-1.31.91-1.71 2.31-1.45 3.45-2.17 5.74-3.62 1.35-.86 1.81-2.51 1.81-4.26v-11.59c-3.81-15.54-5.72-23.31-9.59-38.86z"/><path fill="#ffd9a1" d="M395.19 105.44c7.51-5.03 11.84-14.84 9.32-25.54-1.85-7.89-7.71-14.25-15.18-16.21-11.9-3.12-23.33 4.14-26.86 14.93a.5.5 0 01-.08-.07c-8.84 31.03-13.07 46.54-21.48 77.57-1.18 4.36.74 9.01 4.55 10.91l2.49 1.25A25.73 25.73 0 00359.6 171h33.62c1.72 0 3.11-1.49 3.11-3.33v-2.18c-.01-.74.3-1.31.91-1.71 2.31-1.45 3.45-2.17 5.74-3.62 1.35-.86 2.04-2.56 1.74-4.22-3.8-20.2-5.69-30.3-9.53-50.5z"/><path fill="#f43d3d" d="M477.56 455.26c-7.82-14.66-7.48-31.83-2.81-47.87 4.83-16.58 10.18-32.54 10.19-50.22.01-11.04-3.33-28.88-17.58-28.88-20.4 0-22.81 20.25-42.26 20.25-25.69 0-42.98-30.11-49.69-51.45-2.96-9.4-1.47-26.91-1.47-26.91l-5.38.07s-18.38 76.17-52.18 76.17c-14.67 0-23.07-10.07-27.75-21.46-5.06-12.34-20.48-13.07-26.91-1.45-5.28 9.54-8.31 17.16-4.9 33.56 3.69 17.77 8.39 30.74 14.12 51.02 4.58 16.2 5.19 32.43-2.7 47.21-18.08 33.9-25.09 45.77-25.09 62.23.01 73.59 66.47 98.52 129.72 98.52 57.65 0 129.72-24.93 129.72-98.52.02-16.45-6.96-28.43-25.03-62.27z"/><path fill="#ffeef0" d="M415.59 399.84c-2.97-13.61-4.88-30.7 3.56-36.7 2.32-1.65 3.72-2.26 7.97-2.26 20.5 0 25.6-20.21 36.07-20.21 9.21 0 11.42 9.56 11.42 17.16 0 21.14-15.03 45.93-15.03 71.42 0 25.5 30.46 61.72 30.46 89.11 0 30.84-13.62 47.83-34.48 55.68-4.36 1.64-10.34 1.61-14.25.62-5.09-1.29-19.69-8.33-25.72-80.23-1.98-23.56-3.18-55.82 0-94.59z"/><path d="M390.95 180.98v203.48c0 1.88-.79 3.36-1.81 3.36h-32.51c-1.01 0-1.81-1.48-1.81-3.36V180.98c0-1.83.79-3.36 1.81-3.36h32.51c1.02.01 1.81 1.53 1.81 3.36z" class="st6"/><path fill="#e0e0e0" d="M390.95 180.98v11.15h-36.13v-11.15c0-1.83.79-3.36 1.81-3.36h32.51c1.02.01 1.81 1.53 1.81 3.36z"/><path fill="#4c4c4c" d="M406.17 523.97H339.6c-5.22 0-9.41-4.63-9.41-10.34v-7.77h85.39v7.77c.01 5.71-4.19 10.34-9.41 10.34z"/><path d="M398.9 419.8h-52.01c-4.08 0-7.35-.86-7.35-8.08v-7.81h66.72v7.81c-.01 7.23-3.28 8.08-7.36 8.08z" class="st9"/><path d="M398.9 416.99h-52.01c-4.08 0-7.35-5.86-7.35-13.08s3.27-13.08 7.35-13.08h52.01c4.08 0 7.35 5.86 7.35 13.08 0 7.23-3.27 13.08-7.35 13.08z" class="st10"/><path d="M406.17 516.19H339.6c-5.22 0-9.41-4.63-9.41-10.34s4.19-10.34 9.41-10.34h66.57c5.22 0 9.41 4.63 9.41 10.34.01 5.71-4.19 10.34-9.41 10.34z" class="st6"/><path d="M460.07 514.92c0 .62-.06 1.23-.18 1.84-.12.61-.3 1.19-.54 1.77-.24.57-.53 1.11-.87 1.63-.34.51-.73.99-1.17 1.43-.44.44-.91.83-1.43 1.17-.51.34-1.06.63-1.63.87-.57.24-1.16.41-1.77.54a9.485 9.485 0 01-3.68 0c-.61-.12-1.19-.3-1.77-.54-.57-.24-1.11-.53-1.63-.87-.51-.34-.99-.73-1.43-1.17a8.91 8.91 0 01-1.17-1.43c-.34-.51-.63-1.06-.87-1.63-.24-.57-.41-1.16-.54-1.77a9.485 9.485 0 010-3.68c.12-.61.3-1.19.54-1.77.24-.57.53-1.11.87-1.63.34-.51.73-.99 1.17-1.43.44-.44.91-.83 1.43-1.17.51-.34 1.06-.63 1.63-.87.57-.24 1.16-.41 1.77-.54a9.485 9.485 0 013.68 0c.61.12 1.19.3 1.77.54.57.24 1.11.53 1.63.87.51.34.99.73 1.43 1.17.44.44.83.91 1.17 1.43.34.51.63 1.06.87 1.63.24.57.42 1.16.54 1.77.12.61.18 1.22.18 1.84z" class="st9"/><path d="M458.16 513v1.92c-.01.48-.08.96-.18 1.43-.11.47-.26.93-.45 1.37-.2.44-.43.86-.71 1.26-.28.4-.59.76-.93 1.1-.35.34-.72.64-1.13.9a7.414 7.414 0 01-2.66 1.08c-.47.09-.95.14-1.44.14-.48 0-.96-.05-1.44-.14-.47-.09-.94-.23-1.38-.41-.45-.18-.87-.4-1.28-.67-.4-.26-.78-.56-1.13-.9-.35-.34-.66-.7-.93-1.1-.28-.4-.51-.82-.71-1.26-.2-.44-.35-.9-.45-1.37-.11-.47-.17-.95-.18-1.43V513c0-1.47.42-2.84 1.16-4h1.75a7.58 7.58 0 012.16-1.18c.79-.27 1.6-.41 2.43-.41s1.64.14 2.43.41c.79.27 1.51.66 2.16 1.18H457a7.402 7.402 0 011.16 4z" class="st11"/><path d="M458.16 513c-.01.48-.08.96-.18 1.43-.11.47-.26.93-.45 1.37-.2.44-.43.86-.71 1.26-.28.4-.59.76-.93 1.1-.35.34-.72.64-1.13.9a7.414 7.414 0 01-2.66 1.08c-.47.09-.95.14-1.44.14-.48 0-.96-.05-1.44-.14-.47-.09-.94-.23-1.38-.41-.45-.18-.87-.4-1.28-.67-.4-.26-.78-.56-1.13-.9-.35-.34-.66-.7-.93-1.1-.28-.4-.51-.82-.71-1.26-.2-.44-.35-.9-.45-1.37-.11-.47-.17-.95-.18-1.43 0-1.47.42-2.84 1.16-4 .17-.27.35-.52.55-.77.2-.24.41-.47.64-.69.23-.22.47-.42.73-.6.25-.19.52-.36.8-.51a7.28 7.28 0 011.75-.69 7.272 7.272 0 011.87-.24 7.3 7.3 0 011.87.24c.31.08.6.18.9.29.29.12.58.25.85.4.28.15.54.32.8.51.25.19.5.39.73.6.23.22.44.45.64.69.2.24.38.5.55.77a7.402 7.402 0 011.16 4z" class="st12"/><path d="M450.66 489.07c0 .62-.06 1.23-.18 1.84-.12.61-.3 1.19-.54 1.77-.24.57-.53 1.11-.87 1.63-.34.51-.73.99-1.17 1.43-.44.44-.91.83-1.43 1.17-.51.34-1.06.63-1.63.87-.57.24-1.16.42-1.77.54a9.485 9.485 0 01-3.68 0c-.61-.12-1.19-.3-1.77-.54-.57-.24-1.11-.53-1.63-.87-.51-.34-.99-.73-1.43-1.17a8.91 8.91 0 01-1.17-1.43c-.34-.51-.63-1.06-.87-1.63-.24-.57-.41-1.16-.54-1.77a9.485 9.485 0 010-3.68c.12-.61.3-1.19.54-1.77.24-.57.53-1.11.87-1.63.34-.51.73-.99 1.17-1.43.44-.44.91-.83 1.43-1.17.51-.34 1.06-.63 1.63-.87.57-.24 1.16-.42 1.77-.54a9.485 9.485 0 013.68 0c.61.12 1.19.3 1.77.54.57.24 1.11.53 1.63.87.51.34.99.73 1.43 1.17.44.44.83.91 1.17 1.43.34.51.63 1.06.87 1.63s.42 1.16.54 1.77c.12.61.18 1.22.18 1.84z" class="st9"/><path d="M448.75 487.15v1.92c-.01.48-.08.96-.18 1.43-.11.47-.26.93-.45 1.37-.2.44-.43.86-.71 1.26-.28.4-.59.76-.93 1.1-.35.34-.72.64-1.13.9a7.414 7.414 0 01-2.66 1.08c-.47.09-.95.14-1.44.14a7.529 7.529 0 01-5.23-2.12c-.35-.34-.66-.7-.93-1.1-.28-.4-.51-.82-.71-1.26-.2-.44-.35-.9-.45-1.37-.11-.47-.17-.95-.18-1.43v-1.92c0-1.47.42-2.84 1.16-4h1.75a7.58 7.58 0 012.16-1.18c.79-.27 1.6-.41 2.43-.41.83 0 1.64.14 2.43.41.79.27 1.51.66 2.16 1.18h1.75a7.402 7.402 0 011.16 4z" class="st11"/><path d="M448.75 487.15c-.01.48-.08.96-.18 1.43-.11.47-.26.93-.45 1.37-.2.44-.43.86-.71 1.26-.28.4-.59.76-.93 1.1-.35.34-.72.64-1.13.9a7.414 7.414 0 01-2.66 1.08c-.47.09-.95.14-1.44.14a7.529 7.529 0 01-5.23-2.12c-.35-.34-.66-.7-.93-1.1-.28-.4-.51-.82-.71-1.26-.2-.44-.35-.9-.45-1.37-.11-.47-.17-.95-.18-1.43 0-1.47.42-2.84 1.16-4 .17-.27.35-.52.55-.77.2-.24.41-.47.64-.69.23-.22.47-.42.73-.6.25-.19.52-.36.8-.51a7.28 7.28 0 011.75-.69 7.272 7.272 0 011.87-.24 7.3 7.3 0 011.87.24c.31.08.6.18.9.29.29.12.58.25.85.4.28.15.54.32.8.51.25.19.5.39.73.6.23.22.44.45.64.69.2.24.38.5.55.77a7.402 7.402 0 011.16 4z" class="st12"/><path d="M469.48 540.76c0 .62-.06 1.23-.18 1.84-.12.61-.3 1.19-.54 1.77-.24.57-.53 1.11-.87 1.63-.34.51-.73.99-1.17 1.43-.44.44-.91.83-1.43 1.17-.51.34-1.06.63-1.63.87-.57.24-1.16.41-1.77.54a9.485 9.485 0 01-3.68 0c-.61-.12-1.19-.3-1.77-.54-.57-.24-1.11-.53-1.63-.87-.51-.34-.99-.73-1.43-1.17a8.91 8.91 0 01-1.17-1.43c-.34-.51-.63-1.06-.87-1.63-.24-.57-.42-1.16-.54-1.77a9.485 9.485 0 010-3.68c.12-.61.3-1.19.54-1.77.24-.57.53-1.11.87-1.63.34-.51.73-.99 1.17-1.43.44-.44.91-.83 1.43-1.17.51-.34 1.06-.63 1.63-.87.57-.24 1.16-.41 1.77-.54a9.485 9.485 0 013.68 0c.61.12 1.19.3 1.77.54.57.24 1.11.53 1.63.87s.99.73 1.43 1.17c.44.44.83.91 1.17 1.43.34.51.63 1.06.87 1.63.24.57.42 1.16.54 1.77.12.61.18 1.22.18 1.84z" class="st9"/><path d="M467.57 538.84v1.92c-.02.48-.08.96-.18 1.43-.11.47-.26.93-.45 1.37-.2.44-.43.86-.71 1.26-.28.4-.59.76-.93 1.1-.35.34-.72.64-1.13.9a7.414 7.414 0 01-2.66 1.08c-.47.09-.95.14-1.44.14a7.529 7.529 0 01-5.23-2.12c-.35-.34-.66-.7-.93-1.1-.28-.4-.51-.82-.71-1.26-.2-.44-.35-.9-.45-1.37-.11-.47-.17-.95-.18-1.43v-1.92c0-1.47.42-2.84 1.16-4h1.75a7.45 7.45 0 014.59-1.59c.83 0 1.64.14 2.43.41s1.51.66 2.16 1.18h1.75a7.402 7.402 0 011.16 4z" class="st11"/><path d="M467.57 538.84c-.02.48-.08.96-.18 1.43-.11.47-.26.93-.45 1.37s-.43.86-.71 1.26c-.28.4-.59.76-.93 1.1-.35.34-.72.64-1.13.9a7.414 7.414 0 01-2.66 1.08c-.47.09-.95.14-1.44.14a7.529 7.529 0 01-5.23-2.12c-.35-.34-.66-.7-.93-1.1-.28-.4-.51-.82-.71-1.26-.2-.44-.35-.9-.45-1.37-.11-.47-.17-.95-.18-1.43 0-1.47.42-2.84 1.16-4 .17-.27.35-.52.55-.77.2-.24.41-.47.64-.69.23-.22.47-.42.73-.6.25-.19.52-.36.8-.51a7.28 7.28 0 011.75-.69 7.272 7.272 0 011.87-.24 7.3 7.3 0 011.87.24c.31.08.6.18.9.29s.58.25.85.4c.28.15.54.32.8.51.25.19.5.39.73.6.23.22.44.45.64.69.2.24.38.5.55.77a7.402 7.402 0 011.16 4z" class="st12"/><path d="M397.06 477.35h-52.01c-4.08 0-7.35-.86-7.35-8.08v-7.81h66.72v7.81c0 7.22-3.27 8.08-7.36 8.08z" class="st9"/><path d="M397.07 474.54h-52.01c-4.08 0-7.35-5.86-7.35-13.08s3.27-13.08 7.35-13.08h52.01c4.08 0 7.35 5.86 7.35 13.08s-3.27 13.08-7.35 13.08z" class="st10"/><path fill="#3f3f3f" d="M360.29 507.68a1.814 1.814 0 01-1.29-.54c-.17-.17-.3-.37-.4-.59a1.86 1.86 0 01-.14-.7V140.53a1.814 1.814 0 01.54-1.29c.17-.17.37-.3.59-.4.22-.09.46-.14.7-.14a1.814 1.814 0 011.29.54c.17.17.3.37.4.59.09.22.14.46-.86.7v365.32c1 .24.95.48.86.7-.09.22-.23.42-.4.59-.17.17-.37.3-.59.4-.23.1-.46.14-.7.14zm7.98 0a1.814 1.814 0 01-1.29-.54c-.17-.17-.3-.37-.4-.59a1.86 1.86 0 01-.14-.7V127.53a1.814 1.814 0 01.54-1.29c.17-.17.37-.3.59-.4.22-.09.46-.14.7-.14a1.814 1.814 0 011.29.54c.17.17.3.37.4.59.09.22.14.46-.86.7v378.32c1 .24.95.48.86.7-.09.22-.23.42-.4.59-.17.17-.37.3-.59.4-.22.1-.46.14-.7.14zm9.31 0a1.814 1.814 0 01-1.29-.54c-.17-.17-.3-.37-.4-.59a1.86 1.86 0 01-.14-.7V115.53a1.814 1.814 0 01.54-1.29c.17-.17.37-.3.59-.4.22-.09.46-.14.7-.14a1.814 1.814 0 011.29.54c.17.17.3.37.4.59.09.22.14.46-.86.7v390.32c1 .24.95.48.86.7-.09.22-.23.42-.4.59-.17.17-.37.3-.59.4-.23.1-.46.14-.7.14zm7.98 0a1.814 1.814 0 01-1.29-.54c-.17-.17-.3-.37-.4-.59a1.86 1.86 0 01-.14-.7V105.53a1.814 1.814 0 01.54-1.29c.17-.17.37-.3.59-.4.22-.09.46-.14.7-.14a1.814 1.814 0 011.29.54c.17.17.3.37.4.59.09.22.14.46-.86.7v400.32c1 .24.95.48.86.7-.09.22-.23.42-.4.59-.17.17-.37.3-.59.4-.23.1-.46.14-.7.14z"/></svg>