<svg enable-background="new 0 0 300 300" viewBox="0 0 300 300" xmlns="http://www.w3.org/2000/svg"><ellipse cx="150" cy="150" fill="#fff" rx="150" ry="150" transform="matrix(.7071 -.7071 .7071 .7071 -62.1321 149.9998)"/><circle cx="150" cy="150" fill="#fbbc4b" r="140.812"/><g fill="#3d3d3d"><path d="m182.858 79.697h-24.063c-3.25 0-5.91-2.659-5.91-5.91v-7.803c0-3.25 2.659-5.91 5.91-5.91h24.063c3.25 0 5.91 2.659 5.91 5.91v7.803c0 3.251-2.659 5.91-5.91 5.91z"/><path d="m98.24 130.285h-7.564c-2.854 0-5.189-2.335-5.189-5.189v-24.01c0-2.854 2.335-5.189 5.189-5.189h7.564c2.854 0 5.189 2.335 5.189 5.189v24.01c0 2.854-2.335 5.189-5.189 5.189z"/><path d="m98.24 175.285h-7.564c-2.854 0-5.189-2.335-5.189-5.189v-24.01c0-2.854 2.335-5.189 5.189-5.189h7.564c2.854 0 5.189 2.335 5.189 5.189v24.01c0 2.854-2.335 5.189-5.189 5.189z"/><path d="m209.324 130.285h-7.564c-2.854 0-5.189-2.335-5.189-5.189v-24.01c0-2.854 2.335-5.189 5.189-5.189h7.564c2.854 0 5.189 2.335 5.189 5.189v24.01c-.001 2.854-2.336 5.189-5.189 5.189z"/><path d="m209.324 175.285h-7.564c-2.854 0-5.189-2.335-5.189-5.189v-24.01c0-2.854 2.335-5.189 5.189-5.189h7.564c2.854 0 5.189 2.335 5.189 5.189v24.01c-.001 2.854-2.336 5.189-5.189 5.189z"/></g><path d="m188.052 239.926h-76.152c-9.587 0-17.43-7.844-17.43-17.43v-121.005c0-9.587 7.844-17.43 17.43-17.43h76.152c9.587 0 17.43 7.844 17.43 17.43v121.005c0 9.587-7.843 17.43-17.43 17.43z" fill="#1f7f76"/><path d="m184.962 223.106h-69.972c-11.286 0-20.52-9.234-20.52-20.52v-114.825c0-11.286 9.234-20.52 20.52-20.52h69.972c11.286 0 20.52 9.234 20.52 20.52v114.825c0 11.286-9.234 20.52-20.52 20.52z" fill="#5ebcb5"/><path d="m173.438 213.388h-46.923c-6.832 0-12.421-5.59-12.421-12.421v-46.923c0-6.832 5.59-12.421 12.421-12.421h46.923c6.832 0 12.421 5.59 12.421 12.421v46.923c0 6.831-5.59 12.421-12.421 12.421z" fill="#b7b7b7"/><path d="m172.989 206.286h-46.024c-7.079 0-12.87-5.792-12.87-12.87v-46.024c0-7.079 5.792-12.87 12.87-12.87h46.024c7.079 0 12.87 5.792 12.87 12.87v46.024c0 7.079-5.792 12.87-12.87 12.87z" fill="#fff"/><g fill="#3d3d3d"><path d="m172.11 191.335h-44.48c-1.439 0-2.616-1.177-2.616-2.616s1.177-2.616 2.616-2.616h44.479c1.439 0 2.616 1.177 2.616 2.616.001 1.439-1.176 2.616-2.615 2.616z"/><path d="m172.11 178.253h-44.48c-1.439 0-2.616-1.177-2.616-2.616s1.177-2.616 2.616-2.616h44.479c1.439 0 2.616 1.177 2.616 2.616.001 1.439-1.176 2.616-2.615 2.616z"/><path d="m172.11 166.292h-44.48c-1.439 0-2.616-1.177-2.616-2.616s1.177-2.616 2.616-2.616h44.479c1.439 0 2.616 1.177 2.616 2.616.001 1.439-1.176 2.616-2.615 2.616z"/><path d="m172.11 153.21h-44.48c-1.439 0-2.616-1.177-2.616-2.616s1.177-2.616 2.616-2.616h44.479c1.439 0 2.616 1.177 2.616 2.616.001 1.438-1.176 2.616-2.615 2.616z"/></g><path d="m178.105 131.291h-56.257c-6.282 0-11.421-5.139-11.421-11.421v-20.89c0-6.281 5.139-11.421 11.421-11.421h56.257c6.281 0 11.421 5.139 11.421 11.421v20.89c0 6.281-5.14 11.421-11.421 11.421z" fill="#b7b7b7"/><path d="m177.985 128.541h-56.257c-6.282 0-11.421-5.139-11.421-11.421v-20.89c0-6.281 5.139-11.421 11.421-11.421h56.257c6.281 0 11.421 5.139 11.421 11.421v20.89c0 6.281-5.139 11.421-11.421 11.421z" fill="#fff"/><circle cx="149.857" cy="114.955" fill="#3d3d3d" r="8.726"/><path d="m156.148 109.969c-1.133-1.585-2.849-2.724-4.836-3.103v-3.717l-3.2-.006v3.784c-1.863.43-3.468 1.533-4.545 3.041h-1.438v4.737h.006c.132 4.153 3.538 7.48 7.723 7.48s7.591-3.327 7.723-7.48h.006v-4.737h-1.439z" fill="#c13a41"/><path d="m150.576 102.198c.002.023.007.046.007.069v6.69c0 .4-.327.727-.727.727s-.727-.327-.727-.727v-6.69c0-.024.005-.046.007-.069-3.931.363-7.009 3.669-7.009 7.694 0 4.268 3.46 7.729 7.729 7.729 4.268 0 7.729-3.46 7.729-7.729 0-4.025-3.078-7.33-7.009-7.694z" fill="#eb595b"/><circle cx="129.635" cy="96.28" fill="#3d3d3d" r="11.213"/><path d="m137.719 89.872c-1.456-2.037-3.661-3.5-6.215-3.987v-4.775l-4.112-.008v4.863c-2.394.553-4.456 1.97-5.841 3.908h-1.848v6.087h.008c.17 5.337 4.546 9.611 9.924 9.611s9.754-4.275 9.924-9.611h.008v-6.087h-1.848z" fill="#c13a41"/><path d="m130.56 79.887c.003.03.009.059.009.089v8.597c0 .514-.42.934-.934.934s-.934-.42-.934-.934v-8.597c0-.03.006-.059.009-.089-5.051.467-9.006 4.714-9.006 9.887 0 5.485 4.446 9.932 9.932 9.932 5.485 0 9.932-4.447 9.932-9.932-.002-5.172-3.957-9.42-9.008-9.887z" fill="#eb595b"/><circle cx="170.079" cy="96.28" fill="#3d3d3d" r="11.213"/><path d="m178.162 89.872c-1.456-2.037-3.661-3.5-6.215-3.987v-4.775l-4.112-.008v4.863c-2.394.553-4.456 1.97-5.841 3.908h-1.848v6.087h.008c.17 5.337 4.546 9.611 9.924 9.611s9.754-4.275 9.924-9.611h.008v-6.087h-1.848z" fill="#c13a41"/><path d="m171.003 79.887c.003.03.009.059.009.089v8.597c0 .514-.42.934-.934.934s-.934-.42-.934-.934v-8.597c0-.03.006-.059.009-.089-5.051.467-9.006 4.714-9.006 9.887 0 5.485 4.447 9.932 9.932 9.932s9.932-4.447 9.932-9.932c-.002-5.172-3.957-9.42-9.008-9.887z" fill="#eb595b"/></svg>