<svg xmlns="http://www.w3.org/2000/svg" version="1.0" viewBox="0 0 300 300"><path fill="#FFF" d="M300 150a150.056 150.056 0 01-2.882 29.263 149.441 149.441 0 01-3.577 14.279 149.796 149.796 0 01-11.253 27.167 150.444 150.444 0 01-7.567 12.626 150.434 150.434 0 01-8.769 11.823 149.464 149.464 0 01-9.886 10.906 149.867 149.867 0 01-16.711 14.415 149.94 149.94 0 01-67.344 27.897 150.06 150.06 0 01-65.551-4.836 149.796 149.796 0 01-27.167-11.253 149.326 149.326 0 01-12.626-7.567 149.439 149.439 0 01-22.729-18.655 149.867 149.867 0 01-14.415-16.711 149.94 149.94 0 01-26.987-61.897 149.662 149.662 0 01-2.128-16.421 149.795 149.795 0 011.217-33.044 150.55 150.55 0 012.872-14.438 149.422 149.422 0 0113.217-34.263 149.326 149.326 0 017.567-12.626 150.434 150.434 0 018.769-11.823 149.464 149.464 0 019.886-10.906 149.867 149.867 0 0116.711-14.415 149.94 149.94 0 0161.897-26.987 149.905 149.905 0 0149.465-.91 150.55 150.55 0 0114.438 2.872 149.397 149.397 0 0134.262 13.217 149.413 149.413 0 0124.449 16.337 149.464 149.464 0 0110.906 9.886 149.762 149.762 0 0114.415 16.711 149.94 149.94 0 0127.897 67.342A149.716 149.716 0 01300 150z"/><path fill="#86BF5A" d="M290.813 150a139.91 139.91 0 01-6.064 40.874 140.629 140.629 0 01-17.67 37.356 140.347 140.347 0 01-8.232 11.099 139.932 139.932 0 01-9.281 10.239 140.966 140.966 0 01-33.19 24.617 140.42 140.42 0 01-18.94 8.397 141.007 141.007 0 01-26.776 6.708 140.572 140.572 0 01-27.57 1.355c-4.606-.226-9.19-.677-13.752-1.355a140.64 140.64 0 01-39.543-11.997 140.382 140.382 0 01-18.026-10.212 140.347 140.347 0 01-11.099-8.232 139.919 139.919 0 01-10.239-9.28 141.23 141.23 0 01-9.281-10.238 141.217 141.217 0 01-8.232-11.099 141.418 141.418 0 01-7.105-11.852 140.376 140.376 0 01-8.397-18.941 141.007 141.007 0 01-6.708-26.776 140.572 140.572 0 01-1.355-27.57c.226-4.606.677-9.19 1.355-13.752a140.64 140.64 0 0111.997-39.543 140.382 140.382 0 0110.212-18.026 140.347 140.347 0 018.232-11.099 139.932 139.932 0 019.281-10.239 141.456 141.456 0 0110.239-9.281 141.217 141.217 0 0111.099-8.232 141.436 141.436 0 0111.853-7.105 140.42 140.42 0 0118.94-8.397 141.007 141.007 0 0126.776-6.708 140.572 140.572 0 0127.57-1.355c4.606.226 9.19.677 13.752 1.355a140.64 140.64 0 0139.543 11.997 140.37 140.37 0 0118.025 10.212 140.347 140.347 0 0111.099 8.232 140.744 140.744 0 0134.857 42.472 140.42 140.42 0 018.397 18.94 141.007 141.007 0 016.708 26.776 140.584 140.584 0 011.525 20.66z"/><path fill="#3F3F3F" d="M166.286 88.784s-3.704 5.143-16.428 8.745c-12.724 3.602-18.574 1.164-18.574 1.164l-.299-19.678c-.03-1.951 2.047-3.764 4.546-3.968l7.783-.636 6.962-3.538c2.235-1.136 4.954-.68 5.951.998l10.059 16.913z"/><path fill="#494949" d="M174.565 87.505c.086.302.13.616.133.94a4.29 4.29 0 01-.113 1.002 5.676 5.676 0 01-.359 1.052c-.172.38-.372.744-.601 1.093-.24.371-.52.744-.837 1.123a15.42 15.42 0 01-1.067 1.142c-.393.383-.821.766-1.284 1.151-.464.384-.96.766-1.49 1.148a34.83 34.83 0 01-1.682 1.134c-.591.375-1.21.744-1.857 1.109s-1.318.723-2.014 1.074a54.52 54.52 0 01-2.152 1.028 65.941 65.941 0 01-4.634 1.88 73.304 73.304 0 01-7.436 2.248 68.695 68.695 0 01-5.003 1.035 65.91 65.91 0 01-2.443.362c-.804.102-1.594.186-2.372.252a48.55 48.55 0 01-2.278.141c-.742.028-1.463.038-2.162.029a34.23 34.23 0 01-2.026-.084 27.97 27.97 0 01-1.871-.196 21.237 21.237 0 01-1.697-.306 15.67 15.67 0 01-1.506-.414 11.23 11.23 0 01-1.302-.517 8.113 8.113 0 01-1.085-.615 5.648 5.648 0 01-.857-.708 4.227 4.227 0 01-.621-.793 3.516 3.516 0 01-.513-1.811 4.284 4.284 0 01.113-1.002c.085-.362.205-.713.359-1.052.16-.359.361-.722.601-1.093s.52-.744.837-1.123a15.42 15.42 0 011.067-1.142c.393-.383.821-.766 1.284-1.151.464-.384.96-.766 1.49-1.148.549-.395 1.11-.772 1.682-1.134.591-.375 1.21-.744 1.857-1.109a49.127 49.127 0 012.014-1.074c.71-.358 1.427-.701 2.152-1.028a65.941 65.941 0 014.634-1.88 73.304 73.304 0 017.436-2.248 68.169 68.169 0 015.003-1.035 64.758 64.758 0 012.443-.362 55.411 55.411 0 012.372-.252 48.166 48.166 0 012.278-.141c.72-.028 1.441-.038 2.162-.029.7.009 1.375.037 2.026.084.651.047 1.275.112 1.871.196a20.97 20.97 0 011.697.307c.535.12 1.038.258 1.506.414.469.155.903.327 1.302.517.399.189.76.395 1.085.615.325.221.61.457.857.708s.454.515.621.793c.169.277.295.567.38.87z"/><path fill="#3F3F3F" d="M164.961 90.476c.041.151.056.308.046.473-.013.175-.05.346-.11.511a2.877 2.877 0 01-.264.544 4.558 4.558 0 01-.417.571 7.346 7.346 0 01-.564.593c-.227.213-.462.416-.706.609-.258.205-.54.412-.842.62a19.94 19.94 0 01-.969.624c-.344.208-.706.416-1.088.623-.382.207-.78.412-1.196.615a43.43 43.43 0 01-2.667 1.185c-.971.393-1.954.755-2.948 1.086a58.097 58.097 0 01-4.701 1.353 55.184 55.184 0 01-3.143.667 49.21 49.21 0 01-3.011.45c-.485.055-.957.101-1.418.137-.462.036-.908.061-1.342.076-.434.015-.851.02-1.254.015-.402-.005-.786-.02-1.153-.046a14.564 14.564 0 01-1.041-.107 11.385 11.385 0 01-.918-.166 7.358 7.358 0 01-.787-.224 4.762 4.762 0 01-.648-.28 3.017 3.017 0 01-.504-.334 1.876 1.876 0 01-.354-.385 1.37 1.37 0 01-.246-.903c.011-.164.047-.335.11-.511.069-.191.157-.372.264-.544.124-.201.263-.391.417-.571.164-.194.352-.393.564-.593.212-.201.448-.404.706-.609.258-.205.54-.412.842-.62.302-.208.626-.416.969-.624.344-.208.706-.416 1.088-.623.382-.207.78-.412 1.196-.615a43.43 43.43 0 012.667-1.185 49.765 49.765 0 012.948-1.086 58.097 58.097 0 014.701-1.353 55.184 55.184 0 013.143-.667 49.21 49.21 0 013.011-.45c.485-.056.957-.101 1.418-.137.462-.036.908-.061 1.342-.076.434-.015.851-.02 1.253-.015.402.005.786.02 1.153.046.367.025.713.061 1.041.107.328.046.633.101.918.166.284.065.547.14.787.224.239.084.456.178.648.28.192.103.361.214.504.334.143.12.261.248.354.385.093.136.16.279.201.43z"/><path fill="#4C4C4C" d="M177.171 195.834c-2.102-3.936-2.505-8.724-.753-12.854a33.93 33.93 0 002.737-13.485c.003-2.965 0-9.371 0-9.371s-5.31-1.777-6.975.511c-2.679 3.681-4.639 6.543-10.287 6.543-6.899 0-10.349-8.087-12.152-13.817-.795-2.525-.394-7.226-.394-7.226l-1.444.018s-1.386 13.54-10.463 13.54c-3.94 0-6.195-2.703-7.452-5.763-1.36-3.313-11.017 6.165-11.017 6.165v9.371c0 4.794.973 9.342 2.718 13.433 1.773 4.158 1.393 8.977-.724 12.945-2.099 3.935-6.738 7.34-6.738 7.34v9.371c.004 19.762 17.85 26.457 34.836 26.457 15.481 0 34.836-6.695 34.836-26.457v-9.371c0 .001-4.458-3.098-6.728-7.35zM155.05 95.865c1.629-1.091 2.695-3.017 2.695-5.231 0-1.262-.02-3.86-.02-3.86s-3.684-2.318-5.75-2.318c-2.613 0-4.916 1.766-5.711 4.204l-.022-.018c-2.414 7.294-3.566 10.941-5.861 18.235v2.595c0 1.279.291 2.42 1.313 2.931l1.182.588c.643.321 1.323.48 2.041.477h9.604c.462 0 .834-.401.834-.895v-.585a.512.512 0 01.245-.46c.62-.389.927-.583 1.54-.972.363-.23.485-.673.485-1.145v-3.112c-.85-3.479-1.709-6.958-2.575-10.434z"/><path fill="#565656" d="M155.05 92.523c2.018-1.351 3.179-3.985 2.503-6.859-.497-2.119-2.07-3.828-4.077-4.353-3.196-.837-6.267 1.112-7.212 4.009l-.022-.018c-2.375 8.332-3.51 12.498-5.768 20.83-.318 1.171.198 2.42 1.221 2.931l.67.333c.968.481 2.031.73 3.128.73h9.027c.462 0 .834-.4.834-.895v-.584a.512.512 0 01.245-.46c.62-.389.927-.583 1.54-.972.363-.23.549-.686.466-1.134-.843-4.52-1.696-9.04-2.555-13.558zm22.121 93.941c-2.102-3.936-2.008-8.547-.753-12.854 1.297-4.453 2.734-8.738 2.737-13.485.003-2.965-.894-7.755-4.722-7.755-5.479 0-6.125 5.439-11.348 5.439-6.899 0-11.542-8.087-13.345-13.817-.795-2.525-.394-7.226-.394-7.226l-1.444.018s-1.386 13.54-10.463 13.54c-3.94 0-6.195-2.703-7.452-5.763-1.36-3.313-5.635-3.581-7.227-.39-2.012 4.033-3.79 9.434-3.79 15.926 0 4.794 1.27 9.311 2.718 13.433 1.498 4.265 1.393 8.977-.724 12.945-4.855 9.102-6.739 12.292-6.738 16.711.004 19.762 17.85 26.457 34.836 26.457 15.481 0 34.836-6.695 34.836-26.457.001-4.418-1.874-7.634-6.727-16.722z"/><path fill="#FFEEF0" d="M149.064 155.625s8.43 5.495 14.562 5.495c5.506 0 6.876-5.428 9.686-5.428 2.473 0 3.067 2.567 3.067 4.607 0 5.678-4.037 12.333-4.037 19.181 0 6.847 8.18 16.574 8.18 23.928 0 8.281-3.659 12.844-9.258 14.951-10.761 4.051-16.984-15.935-22.199-18.311-4.272-1.946-14.693 5.947-17.644 2.777-5.933-6.372 5.368-17.382 5.368-26.218 0-7.401-7.166-13.797-2.313-19.107 3.784-4.14 14.588-1.875 14.588-1.875z"/><path fill="#DBC8CC" d="M157.416 175.438h-16.704c-.336 0-.606-.297-.606-.663v-9.76c0-.366.271-.663.606-.663h16.704c.336 0 .606.297.606.663v9.76c0 .365-.271.663-.606.663z"/><path fill="#F2DADE" d="M157.416 173.896h-16.704c-.336 0-.606-.297-.606-.663v-9.76c0-.366.271-.663.606-.663h16.704c.336 0 .606.297.606.663v9.76c0 .368-.271.663-.606.663z"/><path fill="#FFCD7D" d="M153.913 112.809v54.644c0 .503-.214.901-.486.901h-8.729c-.272 0-.486-.397-.486-.901v-54.644c0-.491.214-.902.486-.902h8.729c.273 0 .486.411.486.902z"/><path fill="#E0E0E0" d="M153.913 112.809v2.994h-9.701v-2.994c0-.491.214-.902.486-.902h8.729c.273 0 .486.411.486.902z"/><path fill="#DBC8CC" d="M158.002 204.914h-17.877c-1.401 0-2.527-1.244-2.527-2.778v-2.086h22.931v2.086c-.001 1.534-1.126 2.778-2.527 2.778zm-1.954-17.863H142.08c-1.097 0-1.975-.963-1.975-2.15v-1.284h17.917v1.284c0 1.188-.878 2.15-1.974 2.15z"/><path fill="#F2DADE" d="M156.048 185.767H142.08c-1.097 0-1.975-.963-1.975-2.15 0-1.188.878-2.15 1.975-2.15h13.968c1.097 0 1.975.963 1.975 2.15-.001 1.189-.879 2.15-1.975 2.15zm1.954 17.06h-17.877c-1.401 0-2.527-1.244-2.527-2.777 0-1.534 1.126-2.778 2.527-2.778h17.877c1.401 0 2.527 1.244 2.527 2.778-.001 1.534-1.126 2.777-2.527 2.777z"/><path fill="#DBC8CC" d="M171.72 200.053c.001.391-.074.767-.224 1.128-.151.36-.364.679-.639.956-.276.277-.595.49-.956.639a2.875 2.875 0 01-1.128.224 2.892 2.892 0 01-1.128-.224 2.982 2.982 0 01-.956-.639 2.897 2.897 0 01-.639-.956 2.848 2.848 0 01-.167-1.703 2.94 2.94 0 011.762-2.148 2.875 2.875 0 011.128-.224c.391-.001.767.074 1.128.224.36.151.679.364.956.639.277.276.49.595.639.956.15.361.225.737.224 1.128z"/><path fill="#4F4F4F" d="M171.123 199.452v.602a2.308 2.308 0 01-.198.878c-.123.28-.294.527-.514.739a2.33 2.33 0 01-.754.492 2.37 2.37 0 01-2.168-.208 2.358 2.358 0 01-1.065-1.901v-.602c0-.461.132-.89.363-1.253h.548a2.244 2.244 0 011.438-.496 2.25 2.25 0 011.438.496h.548c.233.362.364.791.364 1.253z"/><path fill="#686868" d="M171.123 199.452a2.308 2.308 0 01-.198.878c-.123.28-.294.527-.514.739a2.33 2.33 0 01-.754.492 2.37 2.37 0 01-2.168-.208 2.358 2.358 0 01-1.065-1.901c0-.461.132-.89.363-1.253.213-.343.497-.611.851-.805a2.232 2.232 0 011.721-.218 2.259 2.259 0 011.4 1.024c.233.361.364.79.364 1.252z"/><path fill="#DBC8CC" d="M168.773 191.957c.001.391-.074.767-.224 1.128-.229.55-.591.991-1.086 1.323a2.904 2.904 0 01-1.637.497 2.892 2.892 0 01-1.128-.224 2.982 2.982 0 01-.956-.639 2.897 2.897 0 01-.639-.956 2.848 2.848 0 01-.167-1.703c.077-.383.224-.737.441-1.062a2.94 2.94 0 013.577-1.087c.55.229.991.591 1.323 1.086.329.495.495 1.041.496 1.637z"/><path fill="#4F4F4F" d="M168.177 191.355v.602a2.308 2.308 0 01-.198.878c-.123.28-.294.527-.514.739a2.314 2.314 0 01-.754.492 2.288 2.288 0 01-.883.172 2.346 2.346 0 01-2.351-2.281v-.602c0-.461.132-.89.363-1.253h.548a2.244 2.244 0 011.438-.496 2.25 2.25 0 011.438.496h.548c.233.362.365.793.365 1.253z"/><path fill="#686868" d="M168.177 191.355a2.308 2.308 0 01-.198.878c-.123.28-.294.527-.514.739a2.314 2.314 0 01-.754.492 2.288 2.288 0 01-.883.172 2.346 2.346 0 01-2.351-2.281c0-.461.132-.89.363-1.253.213-.343.497-.611.851-.805a2.278 2.278 0 011.135-.292c.403.001.781.098 1.135.292.375.207.671.495.889.863.216.368.326.767.327 1.195z"/><path fill="#DBC8CC" d="M174.668 208.147c.001.391-.074.767-.224 1.128-.151.36-.364.679-.639.956-.276.278-.595.49-.956.639a2.875 2.875 0 01-1.128.224 2.892 2.892 0 01-1.128-.224 2.982 2.982 0 01-.956-.639 2.897 2.897 0 01-.639-.956 2.875 2.875 0 01-.224-1.128 2.892 2.892 0 01.224-1.128c.229-.55.591-.991 1.086-1.323a2.904 2.904 0 011.637-.497c.391-.001.767.074 1.128.224.36.151.679.364.956.639.277.276.49.594.639.956a2.9 2.9 0 01.224 1.129z"/><path fill="#4F4F4F" d="M174.071 207.546v.602a2.308 2.308 0 01-.198.878c-.123.28-.294.527-.514.739a2.33 2.33 0 01-.754.492 2.37 2.37 0 01-2.168-.208 2.358 2.358 0 01-1.065-1.901v-.602c0-.461.132-.89.363-1.253h.548a2.244 2.244 0 011.438-.496 2.282 2.282 0 011.438.496h.548c.231.363.364.791.364 1.253z"/><path fill="#686868" d="M174.071 207.546a2.308 2.308 0 01-.198.878c-.123.28-.294.527-.514.739a2.33 2.33 0 01-.754.492 2.37 2.37 0 01-2.168-.208 2.358 2.358 0 01-1.065-1.9c0-.461.132-.89.363-1.253.213-.343.497-.611.851-.805a2.232 2.232 0 011.721-.218 2.259 2.259 0 011.4 1.024c.231.361.364.789.364 1.251z"/><path fill="#3F3F3F" d="M147.064 201.05a1 1 0 01-1-1V98.658a1 1 0 012 0V200.05a1 1 0 01-1 1zm3.934 0a1 1 0 01-1-1V98.658a1 1 0 012 0V200.05a1 1 0 01-1 1z"/><path fill="#494949" d="M162.357 88.797S151.042 87 140.381 92.805l2.11-6.083 6.608-1.993c.601-.181 1.213-.32 1.833-.414l6.985-1.068 4.44 5.55z"/><path fill="#3F3F3F" d="M162.357 82.997s-10.987.25-22.54 4.711l2.674-5.765 6.608-1.993c.601-.181 1.213-.32 1.833-.414l6.985-1.068 4.44 4.529z"/></svg>