<?xml version="1.0" encoding="utf-8"?>
<!-- Generator: Adobe Illustrator 23.0.6, SVG Export Plug-In . SVG Version: 6.00 Build 0)  -->
<svg version="1.0" id="Layer_1" xmlns="http://www.w3.org/2000/svg" xmlns:xlink="http://www.w3.org/1999/xlink" x="0px" y="0px"
	 viewBox="0 0 300 300" enable-background="new 0 0 300 300" xml:space="preserve">
<g>
	<path fill="#FFFFFF" d="M299.548,149.774c0,2.451-0.06,4.901-0.18,7.349c-0.12,2.448-0.301,4.892-0.541,7.331
		c-0.24,2.439-0.54,4.871-0.9,7.296c-0.36,2.425-0.779,4.839-1.257,7.243c-0.478,2.404-1.015,4.795-1.611,7.173
		c-0.596,2.378-1.249,4.739-1.961,7.085c-0.712,2.346-1.48,4.672-2.306,6.98c-0.826,2.308-1.708,4.594-2.646,6.859
		c-0.938,2.265-1.931,4.505-2.979,6.721c-1.048,2.216-2.15,4.405-3.305,6.566c-1.156,2.162-2.363,4.294-3.623,6.396
		c-1.26,2.102-2.571,4.173-3.933,6.211c-1.362,2.038-2.773,4.041-4.233,6.01c-1.46,1.969-2.968,3.901-4.523,5.795
		c-1.555,1.895-3.156,3.75-4.802,5.566c-1.646,1.816-3.336,3.591-5.069,5.324c-1.733,1.733-3.508,3.423-5.324,5.069
		c-1.816,1.646-3.672,3.247-5.566,4.802c-1.895,1.555-3.827,3.063-5.795,4.523c-1.969,1.46-3.972,2.871-6.01,4.233
		c-2.038,1.362-4.108,2.673-6.211,3.933c-2.102,1.26-4.235,2.468-6.396,3.623c-2.162,1.156-4.351,2.257-6.566,3.305
		c-2.216,1.048-4.456,2.041-6.721,2.979c-2.265,0.938-4.551,1.82-6.859,2.646c-2.308,0.826-4.635,1.594-6.98,2.306
		c-2.346,0.712-4.707,1.365-7.085,1.961c-2.378,0.596-4.769,1.132-7.173,1.611c-2.404,0.478-4.818,0.897-7.243,1.257
		c-2.425,0.36-4.857,0.66-7.296,0.9c-2.439,0.24-4.883,0.42-7.331,0.541c-2.448,0.12-4.898,0.18-7.349,0.18
		c-2.451,0-4.901-0.06-7.349-0.18c-2.448-0.12-4.892-0.301-7.331-0.541c-2.439-0.24-4.871-0.54-7.296-0.9
		c-2.425-0.36-4.839-0.779-7.243-1.257c-2.404-0.478-4.795-1.015-7.173-1.611c-2.378-0.596-4.739-1.249-7.085-1.961
		c-2.346-0.712-4.672-1.48-6.98-2.306c-2.308-0.826-4.594-1.708-6.859-2.646c-2.265-0.938-4.505-1.931-6.721-2.979
		c-2.216-1.048-4.405-2.15-6.566-3.305c-2.162-1.155-4.294-2.363-6.396-3.623c-2.102-1.26-4.173-2.571-6.211-3.933
		c-2.038-1.362-4.042-2.773-6.01-4.233c-1.969-1.46-3.901-2.968-5.795-4.523c-1.895-1.555-3.75-3.156-5.566-4.802
		s-3.591-3.336-5.324-5.069c-1.733-1.733-3.423-3.508-5.069-5.324c-1.646-1.816-3.247-3.672-4.802-5.566
		c-1.555-1.895-3.063-3.827-4.523-5.795c-1.46-1.969-2.871-3.972-4.233-6.01c-1.362-2.038-2.673-4.108-3.933-6.211
		c-1.26-2.102-2.468-4.235-3.623-6.396c-1.155-2.162-2.257-4.351-3.305-6.566c-1.048-2.216-2.041-4.456-2.979-6.721
		c-0.938-2.265-1.82-4.551-2.646-6.859c-0.826-2.308-1.594-4.635-2.306-6.98c-0.712-2.346-1.365-4.707-1.961-7.085
		c-0.596-2.378-1.132-4.769-1.611-7.173c-0.478-2.404-0.897-4.818-1.257-7.243c-0.36-2.425-0.66-4.857-0.9-7.296
		c-0.24-2.439-0.421-4.883-0.541-7.331C0.06,154.675,0,152.225,0,149.774s0.06-4.901,0.18-7.349c0.12-2.448,0.301-4.892,0.541-7.331
		c0.24-2.439,0.54-4.871,0.9-7.296c0.36-2.425,0.779-4.839,1.257-7.243c0.478-2.404,1.015-4.795,1.611-7.173
		c0.596-2.378,1.249-4.739,1.961-7.085c0.712-2.346,1.48-4.672,2.306-6.98c0.826-2.308,1.708-4.594,2.646-6.859
		c0.938-2.265,1.931-4.505,2.979-6.721c1.048-2.216,2.15-4.405,3.305-6.566c1.155-2.162,2.363-4.294,3.623-6.396
		c1.26-2.102,2.571-4.173,3.933-6.211c1.362-2.038,2.773-4.041,4.233-6.01c1.46-1.969,2.968-3.901,4.523-5.795
		c1.555-1.895,3.156-3.75,4.802-5.566c1.646-1.816,3.336-3.591,5.069-5.324c1.733-1.733,3.508-3.423,5.324-5.069
		c1.816-1.646,3.672-3.247,5.566-4.802c1.895-1.555,3.827-3.063,5.795-4.523c1.969-1.46,3.972-2.871,6.01-4.233
		c2.038-1.362,4.108-2.673,6.211-3.933c2.102-1.26,4.235-2.468,6.396-3.623c2.162-1.155,4.351-2.257,6.566-3.305
		c2.216-1.048,4.456-2.041,6.721-2.979c2.265-0.938,4.551-1.82,6.859-2.646c2.308-0.826,4.635-1.594,6.98-2.306
		c2.346-0.712,4.707-1.365,7.085-1.961c2.378-0.596,4.769-1.132,7.173-1.611c2.404-0.478,4.818-0.897,7.243-1.257
		c2.425-0.36,4.857-0.66,7.296-0.9c2.439-0.24,4.883-0.421,7.331-0.541c2.448-0.12,4.898-0.18,7.349-0.18
		c2.451,0,4.901,0.06,7.349,0.18c2.448,0.12,4.892,0.301,7.331,0.541c2.439,0.24,4.871,0.54,7.296,0.9
		c2.425,0.36,4.839,0.779,7.243,1.257c2.404,0.478,4.795,1.015,7.173,1.611c2.378,0.596,4.739,1.249,7.085,1.961
		s4.672,1.48,6.98,2.306c2.308,0.826,4.594,1.708,6.859,2.646c2.265,0.938,4.505,1.931,6.721,2.979
		c2.216,1.048,4.405,2.15,6.566,3.305s4.294,2.363,6.396,3.623c2.102,1.26,4.173,2.571,6.211,3.933
		c2.038,1.362,4.041,2.773,6.01,4.233c1.969,1.46,3.901,2.968,5.795,4.523c1.895,1.555,3.75,3.156,5.566,4.802
		c1.816,1.646,3.591,3.336,5.324,5.069c1.733,1.733,3.423,3.508,5.069,5.324s3.247,3.672,4.802,5.566
		c1.555,1.895,3.063,3.827,4.523,5.795c1.46,1.969,2.871,3.972,4.233,6.01c1.362,2.038,2.673,4.108,3.933,6.211
		c1.26,2.102,2.468,4.235,3.623,6.396c1.155,2.162,2.257,4.351,3.305,6.566c1.048,2.216,2.041,4.456,2.979,6.721
		c0.938,2.265,1.82,4.551,2.646,6.859c0.826,2.308,1.594,4.635,2.306,6.98c0.712,2.346,1.365,4.707,1.961,7.085
		c0.596,2.378,1.132,4.769,1.611,7.173c0.478,2.404,0.897,4.818,1.257,7.243s0.66,4.857,0.9,7.296
		c0.24,2.439,0.421,4.883,0.541,7.331C299.488,144.873,299.548,147.323,299.548,149.774z"/>
	<path fill="#FBBC4B" d="M290.375,149.774c0,2.301-0.056,4.601-0.169,6.899c-0.113,2.298-0.282,4.592-0.508,6.882
		c-0.225,2.29-0.507,4.573-0.845,6.849c-0.338,2.276-0.731,4.543-1.18,6.799c-0.449,2.257-0.953,4.501-1.512,6.733
		c-0.559,2.232-1.173,4.449-1.841,6.651c-0.668,2.202-1.39,4.386-2.165,6.553c-0.775,2.167-1.603,4.313-2.484,6.439
		c-0.881,2.126-1.813,4.229-2.797,6.309c-0.984,2.08-2.018,4.135-3.103,6.164c-1.085,2.029-2.219,4.031-3.402,6.004
		c-1.183,1.974-2.414,3.917-3.692,5.83c-1.278,1.913-2.603,3.794-3.974,5.642c-1.371,1.848-2.786,3.662-4.246,5.44
		c-1.46,1.779-2.962,3.521-4.508,5.226c-1.545,1.705-3.131,3.371-4.759,4.998c-1.627,1.627-3.293,3.213-4.998,4.758
		c-1.705,1.545-3.447,3.048-5.226,4.508c-1.779,1.46-3.592,2.875-5.44,4.246c-1.848,1.371-3.729,2.695-5.642,3.974
		c-1.913,1.278-3.857,2.509-5.83,3.692c-1.974,1.183-3.975,2.317-6.004,3.402c-2.029,1.085-4.084,2.119-6.164,3.103
		c-2.08,0.984-4.183,1.916-6.309,2.797c-2.126,0.881-4.272,1.708-6.439,2.484c-2.167,0.775-4.351,1.497-6.553,2.165
		c-2.202,0.668-4.419,1.281-6.651,1.841c-2.232,0.559-4.477,1.063-6.733,1.512s-4.523,0.842-6.799,1.18
		c-2.276,0.338-4.559,0.619-6.849,0.845c-2.29,0.225-4.584,0.395-6.882,0.508c-2.298,0.113-4.598,0.169-6.899,0.169
		c-2.301,0-4.601-0.056-6.899-0.169c-2.298-0.113-4.592-0.282-6.882-0.508c-2.29-0.226-4.573-0.507-6.849-0.845
		c-2.276-0.338-4.543-0.731-6.799-1.18c-2.257-0.449-4.501-0.953-6.733-1.512c-2.232-0.559-4.449-1.173-6.651-1.841
		c-2.202-0.668-4.386-1.39-6.553-2.165s-4.313-1.603-6.439-2.484c-2.126-0.881-4.229-1.813-6.309-2.797
		c-2.08-0.984-4.135-2.018-6.164-3.103c-2.029-1.085-4.031-2.219-6.005-3.402c-1.974-1.183-3.917-2.414-5.83-3.692
		c-1.913-1.278-3.794-2.603-5.642-3.974c-1.848-1.371-3.662-2.786-5.44-4.246c-1.779-1.46-3.521-2.962-5.226-4.508
		c-1.705-1.545-3.371-3.131-4.998-4.758c-1.627-1.627-3.213-3.293-4.759-4.998c-1.545-1.705-3.048-3.447-4.508-5.225
		c-1.46-1.779-2.875-3.592-4.246-5.44c-1.371-1.848-2.695-3.729-3.974-5.642c-1.278-1.913-2.509-3.857-3.692-5.83
		c-1.183-1.974-2.317-3.975-3.402-6.004c-1.085-2.029-2.119-4.084-3.103-6.164c-0.984-2.08-1.916-4.183-2.797-6.309
		c-0.881-2.126-1.708-4.272-2.484-6.439c-0.775-2.167-1.497-4.351-2.165-6.553c-0.668-2.202-1.281-4.419-1.841-6.651
		c-0.559-2.232-1.063-4.477-1.512-6.733c-0.449-2.257-0.842-4.523-1.18-6.799c-0.338-2.276-0.619-4.559-0.845-6.849
		c-0.226-2.29-0.395-4.584-0.508-6.882c-0.113-2.298-0.169-4.598-0.169-6.899c0-2.301,0.056-4.601,0.169-6.899
		c0.113-2.298,0.282-4.592,0.508-6.882c0.226-2.29,0.507-4.573,0.845-6.849c0.338-2.276,0.731-4.543,1.18-6.799
		c0.449-2.257,0.953-4.501,1.512-6.733c0.559-2.232,1.173-4.449,1.841-6.651c0.668-2.202,1.39-4.386,2.165-6.553
		c0.775-2.167,1.603-4.313,2.484-6.439c0.881-2.126,1.813-4.229,2.797-6.309c0.984-2.08,2.018-4.135,3.103-6.164
		c1.085-2.029,2.219-4.031,3.402-6.005c1.183-1.974,2.414-3.917,3.692-5.83c1.278-1.913,2.603-3.794,3.974-5.642
		c1.371-1.848,2.786-3.662,4.246-5.44c1.46-1.779,2.962-3.521,4.508-5.226c1.545-1.705,3.131-3.371,4.759-4.998
		c1.627-1.627,3.293-3.213,4.998-4.759c1.705-1.545,3.447-3.048,5.226-4.508c1.779-1.46,3.592-2.875,5.44-4.246
		c1.848-1.371,3.729-2.695,5.642-3.974c1.913-1.278,3.857-2.509,5.83-3.692c1.974-1.183,3.975-2.317,6.005-3.402
		c2.029-1.085,4.084-2.119,6.164-3.103c2.08-0.984,4.183-1.916,6.309-2.797c2.126-0.881,4.272-1.708,6.439-2.484
		c2.167-0.775,4.351-1.497,6.553-2.165c2.202-0.668,4.419-1.282,6.651-1.841c2.232-0.559,4.477-1.063,6.733-1.512
		c2.257-0.449,4.523-0.842,6.799-1.18c2.276-0.338,4.559-0.619,6.849-0.845c2.29-0.226,4.584-0.395,6.882-0.508
		c2.298-0.113,4.598-0.169,6.899-0.169c2.301,0,4.601,0.056,6.899,0.169c2.298,0.113,4.592,0.282,6.882,0.508
		c2.29,0.226,4.573,0.507,6.849,0.845c2.276,0.338,4.543,0.731,6.799,1.18c2.257,0.449,4.501,0.953,6.733,1.512
		c2.232,0.559,4.449,1.173,6.651,1.841c2.202,0.668,4.386,1.39,6.553,2.165c2.167,0.775,4.313,1.603,6.439,2.484
		c2.126,0.881,4.229,1.813,6.309,2.797c2.08,0.984,4.135,2.018,6.164,3.103c2.029,1.085,4.031,2.219,6.004,3.402
		c1.974,1.183,3.917,2.414,5.83,3.692c1.913,1.278,3.794,2.603,5.642,3.974c1.848,1.371,3.662,2.786,5.44,4.246
		c1.779,1.46,3.521,2.962,5.226,4.508c1.705,1.545,3.371,3.131,4.998,4.759s3.213,3.293,4.759,4.998
		c1.545,1.705,3.048,3.447,4.508,5.226c1.46,1.779,2.875,3.592,4.246,5.44c1.371,1.848,2.695,3.729,3.974,5.642
		c1.278,1.913,2.509,3.857,3.692,5.83c1.183,1.974,2.317,3.975,3.402,6.005c1.085,2.029,2.119,4.084,3.103,6.164
		c0.984,2.08,1.916,4.183,2.797,6.309c0.881,2.126,1.708,4.272,2.484,6.439c0.775,2.167,1.497,4.351,2.165,6.553
		c0.668,2.202,1.281,4.419,1.841,6.651c0.559,2.232,1.063,4.477,1.512,6.733c0.449,2.257,0.842,4.523,1.18,6.799
		c0.338,2.276,0.619,4.559,0.845,6.849c0.226,2.29,0.395,4.584,0.508,6.882C290.319,145.174,290.375,147.473,290.375,149.774z"/>
	<path fill="#3F3F3F" d="M166.035,88.65c0,0-3.698,5.135-16.403,8.732c-12.705,3.597-18.546,1.162-18.546,1.162l-0.299-19.648
		c-0.03-1.948,2.044-3.758,4.539-3.962l7.771-0.635l6.952-3.533c2.232-1.134,4.947-0.679,5.942,0.996L166.035,88.65L166.035,88.65z"
		/>
	<path fill="#494949" d="M174.302,87.372c0.086,0.302,0.13,0.615,0.133,0.939c0.003,0.324-0.034,0.657-0.113,1
		c-0.079,0.342-0.198,0.693-0.358,1.05c-0.16,0.358-0.36,0.721-0.6,1.091c-0.24,0.37-0.519,0.743-0.836,1.121
		c-0.318,0.378-0.672,0.758-1.065,1.14c-0.392,0.382-0.82,0.765-1.282,1.149c-0.463,0.383-0.959,0.765-1.488,1.146
		c-0.529,0.381-1.089,0.758-1.679,1.132c-0.59,0.374-1.208,0.743-1.854,1.107c-0.646,0.364-1.316,0.722-2.011,1.072
		c-0.695,0.351-1.411,0.693-2.149,1.026c-0.738,0.334-1.493,0.657-2.266,0.971c-0.773,0.314-1.56,0.616-2.361,0.906
		c-0.801,0.29-1.612,0.568-2.434,0.832c-0.821,0.264-1.649,0.515-2.483,0.751c-0.834,0.236-1.67,0.457-2.508,0.662
		c-0.838,0.205-1.674,0.394-2.509,0.567c-0.834,0.172-1.663,0.328-2.486,0.466c-0.823,0.138-1.636,0.258-2.439,0.361
		c-0.803,0.102-1.592,0.186-2.368,0.252c-0.776,0.066-1.534,0.113-2.275,0.141c-0.741,0.028-1.461,0.038-2.159,0.029
		c-0.699-0.009-1.373-0.037-2.023-0.084c-0.65-0.047-1.273-0.112-1.868-0.196c-0.595-0.084-1.16-0.186-1.694-0.306
		c-0.534-0.12-1.036-0.258-1.504-0.413c-0.468-0.155-0.902-0.327-1.3-0.516c-0.398-0.189-0.759-0.394-1.083-0.614
		c-0.324-0.221-0.609-0.456-0.856-0.707c-0.247-0.25-0.453-0.514-0.62-0.792s-0.293-0.568-0.379-0.87
		c-0.086-0.302-0.13-0.615-0.133-0.939c-0.003-0.324,0.034-0.657,0.113-1c0.079-0.342,0.198-0.693,0.358-1.05
		c0.16-0.358,0.36-0.721,0.6-1.091c0.24-0.37,0.519-0.743,0.836-1.121c0.318-0.378,0.672-0.758,1.065-1.14
		c0.392-0.382,0.82-0.765,1.282-1.149c0.463-0.383,0.959-0.765,1.488-1.146c0.529-0.381,1.089-0.758,1.679-1.132
		c0.59-0.374,1.208-0.743,1.854-1.107c0.646-0.364,1.316-0.722,2.011-1.072c0.695-0.351,1.411-0.693,2.149-1.026
		c0.738-0.334,1.493-0.657,2.266-0.971c0.773-0.314,1.56-0.616,2.361-0.906c0.801-0.29,1.612-0.568,2.434-0.832
		c0.821-0.264,1.649-0.515,2.483-0.751c0.834-0.236,1.67-0.457,2.508-0.662s1.674-0.394,2.509-0.567
		c0.834-0.172,1.663-0.328,2.486-0.466c0.823-0.138,1.636-0.258,2.439-0.361c0.803-0.102,1.592-0.186,2.368-0.252
		c0.776-0.066,1.534-0.113,2.275-0.141c0.741-0.028,1.461-0.038,2.159-0.029c0.699,0.009,1.373,0.037,2.023,0.084
		s1.273,0.112,1.868,0.196c0.595,0.084,1.16,0.186,1.694,0.306c0.534,0.12,1.036,0.258,1.504,0.413
		c0.468,0.155,0.902,0.327,1.3,0.516c0.398,0.189,0.759,0.394,1.083,0.614c0.324,0.221,0.609,0.456,0.856,0.707
		s0.453,0.514,0.62,0.792C174.091,86.78,174.217,87.07,174.302,87.372z"/>
	<path fill="#3F3F3F" d="M164.712,90.339c0.041,0.151,0.056,0.308,0.046,0.472c-0.011,0.164-0.047,0.334-0.11,0.51
		c-0.062,0.176-0.15,0.357-0.264,0.543c-0.113,0.186-0.252,0.376-0.416,0.57c-0.164,0.194-0.351,0.392-0.563,0.592
		c-0.212,0.201-0.447,0.403-0.705,0.608c-0.258,0.205-0.539,0.411-0.841,0.619c-0.302,0.208-0.625,0.415-0.968,0.623
		c-0.343,0.208-0.705,0.415-1.086,0.622c-0.381,0.207-0.779,0.411-1.194,0.614c-0.415,0.203-0.845,0.403-1.29,0.601
		c-0.445,0.198-0.903,0.392-1.373,0.582c-0.471,0.19-0.952,0.376-1.444,0.557c-0.492,0.181-0.992,0.357-1.5,0.527
		c-0.508,0.17-1.022,0.334-1.542,0.492c-0.52,0.158-1.043,0.308-1.57,0.452c-0.526,0.144-1.054,0.279-1.582,0.407
		c-0.528,0.128-1.054,0.248-1.578,0.359c-0.524,0.111-1.044,0.214-1.56,0.307c-0.516,0.094-1.025,0.178-1.527,0.253
		c-0.502,0.075-0.995,0.14-1.479,0.196c-0.484,0.055-0.956,0.101-1.416,0.137c-0.461,0.036-0.907,0.061-1.34,0.076
		s-0.85,0.02-1.252,0.015c-0.401-0.005-0.785-0.02-1.151-0.046c-0.366-0.025-0.712-0.061-1.039-0.107
		c-0.327-0.046-0.632-0.101-0.917-0.166c-0.284-0.065-0.546-0.14-0.786-0.224c-0.239-0.084-0.455-0.178-0.647-0.28
		c-0.192-0.103-0.36-0.214-0.503-0.334c-0.143-0.12-0.261-0.248-0.353-0.384c-0.093-0.136-0.159-0.279-0.2-0.43
		c-0.041-0.151-0.056-0.308-0.046-0.472c0.011-0.164,0.047-0.334,0.11-0.51c0.062-0.176,0.15-0.357,0.264-0.543
		c0.113-0.186,0.252-0.376,0.416-0.57c0.164-0.194,0.351-0.392,0.563-0.592c0.212-0.201,0.447-0.403,0.705-0.608
		c0.258-0.205,0.539-0.411,0.841-0.619c0.302-0.208,0.625-0.415,0.968-0.623c0.343-0.208,0.705-0.415,1.086-0.622
		c0.381-0.207,0.779-0.411,1.194-0.614c0.415-0.203,0.845-0.403,1.29-0.601c0.445-0.198,0.903-0.392,1.373-0.582
		c0.471-0.19,0.952-0.376,1.444-0.557s0.992-0.357,1.5-0.527c0.508-0.17,1.022-0.334,1.542-0.492c0.52-0.158,1.043-0.308,1.57-0.452
		c0.526-0.144,1.054-0.279,1.582-0.407c0.528-0.128,1.054-0.248,1.578-0.359c0.524-0.111,1.044-0.214,1.56-0.307
		c0.516-0.094,1.025-0.178,1.527-0.253c0.502-0.075,0.995-0.14,1.479-0.196c0.484-0.056,0.956-0.101,1.416-0.137
		c0.461-0.036,0.907-0.061,1.34-0.076c0.433-0.015,0.85-0.02,1.251-0.015c0.401,0.005,0.785,0.02,1.151,0.046
		c0.366,0.025,0.712,0.061,1.039,0.107c0.327,0.046,0.632,0.101,0.917,0.166c0.284,0.065,0.546,0.14,0.786,0.224
		c0.239,0.084,0.455,0.178,0.647,0.28c0.192,0.103,0.36,0.214,0.503,0.334c0.143,0.12,0.261,0.248,0.353,0.384
		C164.604,90.045,164.671,90.188,164.712,90.339z"/>
	<path fill="#4C4C4C" d="M154.816,95.72c1.627-1.089,2.691-3.012,2.691-5.223c0-1.26-0.02-3.854-0.02-3.854
		s-3.678-2.314-5.741-2.314c-2.609,0-4.909,1.763-5.702,4.198c-0.007-0.006-0.014-0.012-0.022-0.018
		c-2.41,7.283-3.561,10.925-5.852,18.208v2.591c0,1.277,0.291,2.416,1.311,2.927l1.18,0.587c0.642,0.318,1.321,0.477,2.038,0.476
		h9.59c0.461,0,0.833-0.4,0.833-0.894v-0.584c0-0.189,0.093-0.363,0.245-0.459c0.619-0.388,0.926-0.582,1.538-0.971
		c0.362-0.23,0.484-0.672,0.484-1.143v-3.107C156.538,102.664,155.681,99.191,154.816,95.72L154.816,95.72z M176.904,195.539
		c-2.099-3.93-2.501-8.711-0.752-12.835c1.822-4.307,2.733-8.796,2.733-13.465c0.003-2.961,0-9.357,0-9.357s-5.302-1.774-6.965,0.51
		c-2.675,3.675-4.632,6.533-10.272,6.533c-6.889,0-10.333-8.075-12.134-13.796c-0.794-2.521-0.393-7.215-0.393-7.215l-1.442,0.018
		c0,0-1.384,13.52-10.447,13.52c-3.934,0-6.186-2.699-7.441-5.754c-1.358-3.308-11,6.156-11,6.156v9.357
		c0,4.787,0.972,9.328,2.714,13.413c1.77,4.152,1.391,8.964-0.723,12.926c-2.096,3.929-6.728,7.329-6.728,7.329v9.357
		c0.004,19.732,17.823,26.417,34.784,26.417c15.458,0,34.784-6.685,34.784-26.417v-9.357
		C183.622,202.879,179.17,199.784,176.904,195.539L176.904,195.539z"/>
	<path fill="#565656" d="M176.904,186.183c-2.099-3.93-2.005-8.534-0.752-12.835c1.295-4.446,2.73-8.725,2.733-13.465
		c0.003-2.961-0.893-7.743-4.715-7.743c-5.471,0-6.116,5.431-11.331,5.431c-6.889,0-11.525-8.075-13.325-13.796
		c-0.794-2.521-0.393-7.215-0.393-7.215l-1.442,0.018c0,0-1.384,13.52-10.447,13.52c-3.934,0-6.186-2.699-7.441-5.754
		c-1.358-3.308-5.627-3.576-7.216-0.389c-2.009,4.027-3.784,9.42-3.784,15.902c0,4.787,1.268,9.297,2.714,13.413
		c1.496,4.259,1.391,8.964-0.723,12.926c-4.848,9.088-6.729,12.274-6.728,16.686c0.004,19.732,17.823,26.417,34.784,26.417
		c15.458,0,34.784-6.685,34.784-26.417C183.622,198.468,181.749,195.257,176.904,186.183L176.904,186.183z M154.816,92.383
		c2.015-1.349,3.174-3.979,2.499-6.849c-0.496-2.116-2.067-3.822-4.071-4.346c-3.191-0.836-6.258,1.11-7.201,4.003
		c-0.007-0.006-0.014-0.012-0.022-0.018c-2.371,8.319-3.505,12.479-5.759,20.799c-0.318,1.169,0.198,2.416,1.219,2.927l0.669,0.333
		c0.967,0.48,2.028,0.729,3.123,0.729h9.013c0.461,0,0.833-0.399,0.833-0.894v-0.583c0-0.189,0.093-0.363,0.245-0.459
		c0.619-0.388,0.926-0.582,1.538-0.971c0.362-0.23,0.548-0.685,0.465-1.132C156.525,101.407,155.674,96.894,154.816,92.383
		L154.816,92.383z"/>
	<path fill="#FFEEF0" d="M148.839,155.39c0,0,8.417,5.487,14.54,5.487c5.498,0,6.866-5.42,9.671-5.42c2.469,0,3.062,2.563,3.062,4.6
		c0,5.669-4.031,12.314-4.031,19.152c0,6.837,8.168,16.549,8.168,23.892c0,8.269-3.653,12.825-9.244,14.929
		c-10.745,4.045-16.958-15.911-22.166-18.283c-4.266-1.943-14.671,5.938-17.617,2.773c-5.924-6.362,5.36-17.356,5.36-26.179
		c0-7.39-7.155-13.776-2.31-19.078C138.051,153.128,148.839,155.39,148.839,155.39L148.839,155.39z"/>
	<path fill="#DBC8CC" d="M157.178,175.173h-16.679c-0.335,0-0.605-0.297-0.605-0.662v-9.745c0-0.365,0.271-0.662,0.605-0.662h16.679
		c0.335,0,0.605,0.297,0.605,0.662v9.745C157.783,174.876,157.513,175.173,157.178,175.173z"/>
	<path fill="#F2DADE" d="M157.178,173.634h-16.679c-0.335,0-0.605-0.297-0.605-0.662v-9.745c0-0.365,0.271-0.662,0.605-0.662h16.679
		c0.335,0,0.605,0.297,0.605,0.662v9.745C157.783,173.339,157.513,173.634,157.178,173.634z"/>
	<path fill="#FFCD7D" d="M153.681,112.638V167.2c0,0.502-0.214,0.9-0.485,0.9h-8.716c-0.272,0-0.485-0.396-0.485-0.9v-54.562
		c0-0.49,0.214-0.901,0.485-0.901h8.716C153.468,111.738,153.681,112.148,153.681,112.638z"/>
	<path fill="#E0E0E0" d="M153.681,112.638v2.99h-9.686v-2.99c0-0.49,0.214-0.901,0.485-0.901h8.716
		C153.468,111.738,153.681,112.148,153.681,112.638L153.681,112.638z"/>
	<path fill="#DBC8CC" d="M155.812,186.769h-13.947c-1.095,0-1.972-0.962-1.972-2.147v-1.282h17.89v1.282
		C157.783,185.808,156.907,186.769,155.812,186.769L155.812,186.769z M157.763,204.605h-17.85c-1.399,0-2.523-1.242-2.523-2.774
		v-2.083h22.897v2.083C160.286,203.363,159.162,204.605,157.763,204.605L157.763,204.605z"/>
	<path fill="#F2DADE" d="M157.763,202.521h-17.85c-1.399,0-2.523-1.242-2.523-2.773c0-1.532,1.124-2.774,2.523-2.774h17.85
		c1.399,0,2.523,1.242,2.523,2.774C160.286,201.28,159.162,202.521,157.763,202.521z M155.812,185.487h-13.947
		c-1.095,0-1.972-0.962-1.972-2.147c0-1.186,0.877-2.147,1.972-2.147h13.947c1.095,0,1.972,0.962,1.972,2.147
		C157.783,184.527,156.907,185.487,155.812,185.487z"/>
	<path fill="#DBC8CC" d="M171.461,199.751c0,0.193-0.019,0.385-0.057,0.574c-0.038,0.189-0.094,0.373-0.167,0.552
		c-0.074,0.178-0.165,0.348-0.272,0.509c-0.107,0.161-0.229,0.309-0.366,0.446c-0.137,0.137-0.285,0.259-0.446,0.366
		c-0.161,0.107-0.33,0.198-0.509,0.272c-0.179,0.074-0.363,0.13-0.552,0.167c-0.189,0.038-0.381,0.057-0.574,0.057
		s-0.385-0.019-0.574-0.057c-0.189-0.038-0.374-0.094-0.552-0.167c-0.178-0.074-0.348-0.165-0.509-0.272
		c-0.161-0.107-0.309-0.229-0.446-0.366c-0.137-0.137-0.259-0.285-0.366-0.446c-0.107-0.161-0.198-0.33-0.272-0.509
		c-0.074-0.179-0.13-0.362-0.167-0.552c-0.038-0.189-0.057-0.381-0.057-0.574c0-0.193,0.019-0.385,0.057-0.574
		c0.038-0.19,0.094-0.374,0.167-0.552c0.074-0.178,0.165-0.348,0.272-0.509c0.107-0.161,0.229-0.309,0.366-0.446
		s0.285-0.259,0.446-0.366c0.161-0.107,0.33-0.198,0.509-0.272c0.179-0.074,0.363-0.13,0.552-0.167
		c0.19-0.038,0.381-0.057,0.574-0.057s0.385,0.019,0.574,0.057c0.189,0.038,0.373,0.094,0.552,0.167
		c0.178,0.074,0.348,0.165,0.509,0.272c0.161,0.107,0.309,0.229,0.446,0.366c0.137,0.137,0.259,0.285,0.366,0.446
		c0.107,0.161,0.198,0.33,0.272,0.509c0.074,0.179,0.13,0.363,0.167,0.552C171.443,199.366,171.461,199.558,171.461,199.751z"/>
	<path fill="#4F4F4F" d="M170.865,199.151v0.601c-0.009,0.305-0.075,0.598-0.198,0.877c-0.123,0.28-0.294,0.526-0.513,0.738
		c-0.219,0.213-0.47,0.376-0.753,0.491c-0.283,0.115-0.577,0.172-0.882,0.172c-0.305,0-0.6-0.057-0.882-0.172
		c-0.283-0.115-0.534-0.279-0.753-0.491c-0.219-0.213-0.39-0.459-0.513-0.738c-0.123-0.279-0.189-0.572-0.198-0.877v-0.601
		c0-0.46,0.132-0.889,0.362-1.251h0.547c0.205-0.161,0.43-0.283,0.676-0.368c0.246-0.085,0.499-0.127,0.76-0.127
		s0.514,0.042,0.76,0.127c0.246,0.085,0.471,0.208,0.676,0.368h0.547C170.734,198.262,170.865,198.69,170.865,199.151
		L170.865,199.151z"/>
	<path fill="#686868" d="M170.865,199.151c-0.009,0.305-0.075,0.598-0.198,0.877c-0.123,0.279-0.294,0.526-0.513,0.738
		c-0.219,0.213-0.47,0.376-0.753,0.491c-0.283,0.115-0.577,0.172-0.882,0.172c-0.305,0-0.6-0.057-0.882-0.172
		c-0.283-0.115-0.534-0.279-0.753-0.491c-0.219-0.213-0.39-0.459-0.513-0.738c-0.123-0.279-0.189-0.572-0.198-0.877
		c0-0.46,0.132-0.889,0.362-1.251c0.105-0.168,0.23-0.32,0.374-0.456c0.144-0.136,0.303-0.252,0.476-0.348
		c0.173-0.096,0.356-0.169,0.548-0.218c0.192-0.05,0.387-0.074,0.585-0.074c0.198,0,0.393,0.025,0.585,0.074
		c0.192,0.05,0.375,0.122,0.548,0.218c0.173,0.096,0.332,0.212,0.476,0.348c0.144,0.136,0.269,0.288,0.374,0.456
		C170.734,198.262,170.865,198.69,170.865,199.151L170.865,199.151z"/>
	<path fill="#DBC8CC" d="M168.518,191.667c0,0.193-0.019,0.385-0.057,0.574c-0.038,0.189-0.094,0.373-0.167,0.552
		c-0.074,0.179-0.165,0.348-0.272,0.509c-0.107,0.161-0.229,0.309-0.366,0.446c-0.137,0.137-0.285,0.259-0.446,0.366
		c-0.161,0.107-0.33,0.198-0.509,0.272c-0.179,0.074-0.363,0.13-0.552,0.167c-0.189,0.038-0.381,0.057-0.574,0.057
		c-0.193,0-0.385-0.019-0.574-0.057c-0.189-0.038-0.374-0.094-0.552-0.167c-0.178-0.074-0.348-0.165-0.509-0.272
		c-0.161-0.107-0.309-0.229-0.446-0.366c-0.137-0.137-0.259-0.285-0.366-0.446c-0.107-0.161-0.198-0.33-0.272-0.509
		c-0.074-0.178-0.13-0.362-0.167-0.552c-0.038-0.189-0.057-0.381-0.057-0.574c0-0.193,0.019-0.385,0.057-0.574
		c0.038-0.189,0.094-0.374,0.167-0.552c0.074-0.179,0.165-0.348,0.272-0.509c0.107-0.161,0.229-0.309,0.366-0.446
		c0.137-0.137,0.285-0.259,0.446-0.366c0.161-0.107,0.33-0.198,0.509-0.272c0.179-0.074,0.363-0.13,0.552-0.167
		c0.189-0.038,0.381-0.057,0.574-0.057s0.385,0.019,0.574,0.057c0.189,0.038,0.373,0.093,0.552,0.167
		c0.179,0.074,0.348,0.165,0.509,0.272c0.161,0.107,0.309,0.229,0.446,0.366c0.137,0.137,0.259,0.285,0.366,0.446
		c0.107,0.161,0.198,0.33,0.272,0.509c0.074,0.178,0.13,0.363,0.167,0.552C168.499,191.282,168.518,191.474,168.518,191.667z"/>
	<path fill="#4F4F4F" d="M167.923,191.066v0.601c-0.009,0.305-0.075,0.598-0.198,0.877c-0.123,0.28-0.294,0.526-0.513,0.738
		c-0.219,0.213-0.47,0.377-0.753,0.491c-0.283,0.115-0.577,0.172-0.882,0.172c-0.305,0-0.6-0.057-0.883-0.172
		c-0.283-0.115-0.534-0.279-0.753-0.491c-0.219-0.213-0.39-0.459-0.513-0.738c-0.123-0.28-0.189-0.572-0.198-0.877v-0.601
		c0-0.46,0.132-0.889,0.362-1.251h0.547c0.205-0.161,0.43-0.283,0.676-0.368c0.246-0.085,0.499-0.127,0.76-0.127
		s0.514,0.042,0.76,0.127c0.246,0.085,0.472,0.208,0.676,0.368h0.547C167.791,190.177,167.923,190.607,167.923,191.066
		L167.923,191.066z"/>
	<path fill="#686868" d="M167.923,191.066c-0.009,0.305-0.075,0.598-0.198,0.877c-0.123,0.28-0.294,0.526-0.513,0.738
		c-0.219,0.213-0.47,0.377-0.753,0.491c-0.283,0.115-0.577,0.172-0.882,0.172c-0.305,0-0.6-0.057-0.883-0.172
		c-0.283-0.115-0.534-0.279-0.753-0.491c-0.219-0.213-0.39-0.459-0.513-0.738c-0.123-0.28-0.189-0.572-0.198-0.877
		c0-0.46,0.132-0.889,0.362-1.251c0.105-0.168,0.23-0.32,0.374-0.456c0.144-0.136,0.303-0.252,0.476-0.348
		c0.174-0.096,0.356-0.169,0.548-0.218c0.192-0.05,0.387-0.074,0.585-0.074c0.198,0,0.393,0.025,0.585,0.074
		c0.192,0.05,0.375,0.122,0.548,0.218c0.173,0.096,0.332,0.212,0.476,0.348s0.269,0.288,0.374,0.456
		C167.791,190.177,167.923,190.607,167.923,191.066L167.923,191.066z"/>
	<path fill="#DBC8CC" d="M174.404,207.833c0,0.193-0.019,0.385-0.057,0.574c-0.038,0.189-0.094,0.373-0.167,0.552
		c-0.074,0.178-0.165,0.348-0.272,0.509c-0.107,0.161-0.229,0.309-0.366,0.446c-0.137,0.137-0.285,0.259-0.446,0.366
		c-0.161,0.107-0.33,0.198-0.509,0.272s-0.363,0.13-0.552,0.167c-0.189,0.038-0.381,0.057-0.574,0.057
		c-0.193,0-0.385-0.019-0.574-0.057c-0.19-0.038-0.374-0.094-0.552-0.167c-0.178-0.074-0.348-0.165-0.509-0.272
		c-0.161-0.107-0.309-0.229-0.446-0.366c-0.137-0.137-0.259-0.285-0.366-0.446c-0.107-0.161-0.198-0.33-0.272-0.509
		c-0.074-0.179-0.13-0.363-0.167-0.552c-0.038-0.189-0.057-0.381-0.057-0.574c0-0.193,0.019-0.385,0.057-0.574
		s0.094-0.373,0.167-0.552c0.074-0.179,0.165-0.348,0.272-0.509c0.107-0.161,0.229-0.309,0.366-0.446
		c0.137-0.137,0.285-0.259,0.446-0.366c0.161-0.107,0.33-0.198,0.509-0.272c0.179-0.074,0.363-0.13,0.552-0.167
		c0.189-0.038,0.381-0.057,0.574-0.057c0.193,0,0.385,0.019,0.574,0.057c0.19,0.038,0.374,0.094,0.552,0.167
		c0.178,0.074,0.348,0.165,0.509,0.272c0.161,0.107,0.309,0.229,0.446,0.366c0.137,0.137,0.259,0.285,0.366,0.446
		c0.107,0.161,0.198,0.33,0.272,0.509c0.074,0.179,0.13,0.363,0.167,0.552C174.385,207.448,174.404,207.639,174.404,207.833z"/>
	<path fill="#4F4F4F" d="M173.808,207.233v0.601c-0.009,0.305-0.075,0.598-0.198,0.877c-0.123,0.28-0.294,0.526-0.513,0.738
		c-0.219,0.213-0.47,0.376-0.753,0.491c-0.283,0.115-0.577,0.172-0.882,0.172c-0.305,0-0.6-0.057-0.882-0.172
		c-0.283-0.115-0.534-0.279-0.753-0.491s-0.39-0.459-0.513-0.738s-0.189-0.572-0.198-0.877v-0.601c0-0.46,0.132-0.889,0.362-1.251
		h0.547c0.205-0.161,0.43-0.283,0.676-0.368c0.246-0.085,0.499-0.127,0.76-0.127c0.26,0,0.513,0.043,0.76,0.127
		c0.246,0.085,0.471,0.208,0.676,0.368h0.547C173.676,206.344,173.808,206.772,173.808,207.233L173.808,207.233z"/>
	<path fill="#686868" d="M173.808,207.233c-0.009,0.305-0.075,0.598-0.198,0.877c-0.123,0.28-0.294,0.526-0.513,0.738
		c-0.219,0.213-0.47,0.376-0.753,0.491c-0.283,0.115-0.577,0.172-0.882,0.172c-0.305,0-0.6-0.057-0.882-0.172
		c-0.283-0.115-0.534-0.279-0.753-0.491c-0.219-0.213-0.39-0.459-0.513-0.738c-0.123-0.279-0.189-0.572-0.198-0.877
		c0-0.46,0.132-0.889,0.362-1.251c0.105-0.168,0.23-0.32,0.374-0.456c0.144-0.136,0.303-0.252,0.476-0.348
		c0.173-0.096,0.356-0.169,0.548-0.218c0.192-0.05,0.387-0.074,0.585-0.074c0.198,0,0.393,0.025,0.585,0.074
		c0.192,0.05,0.375,0.122,0.548,0.218c0.174,0.096,0.332,0.212,0.476,0.348c0.144,0.136,0.269,0.288,0.374,0.456
		C173.676,206.344,173.808,206.772,173.808,207.233L173.808,207.233z"/>
	
		<line fill="none" stroke="#3F3F3F" stroke-width="1.345" stroke-linecap="round" stroke-miterlimit="10" x1="148.839" y1="199.748" x2="148.839" y2="98.509"/>
	<path fill="#494949" d="M162.112,88.663c0,0-11.298-1.794-21.943,4.002l2.107-6.074l6.598-1.99c0.6-0.181,1.211-0.32,1.83-0.413
		l6.974-1.066L162.112,88.663z"/>
	<path fill="#3F3F3F" d="M162.112,82.871c0,0-10.971,0.25-22.506,4.704l2.67-5.756l6.598-1.99c0.6-0.181,1.211-0.32,1.83-0.413
		l6.974-1.066L162.112,82.871z"/>
</g>
</svg>
