<?xml version="1.0" encoding="utf-8"?>
<!-- Generator: Adobe Illustrator 26.3.1, SVG Export Plug-In . SVG Version: 6.00 Build 0)  -->
<svg version="1.0" id="Camada_1" xmlns="http://www.w3.org/2000/svg" xmlns:xlink="http://www.w3.org/1999/xlink" x="0px" y="0px"
	 viewBox="0 0 300 300" enable-background="new 0 0 300 300" xml:space="preserve">
<ellipse transform="matrix(0.7071 -0.7071 0.7071 0.7071 -62.1321 149.9998)" fill="#FFFFFF" cx="150" cy="150" rx="150" ry="150"/>
<circle fill="#FAE040" cx="150" cy="150" r="140.812"/>
<path fill="#3D3D3D" d="M157.464,138.566l32.295,81.132v7.929c0,1.307-1.434,1.79-2.834,1.13L150,211.345l-36.925,17.413
	c-1.4,0.66-2.834-0.269-2.834-1.547v-7.608l32.295-81.036C145.028,132.604,154.972,132.604,157.464,138.566z"/>
<path fill="#515151" d="M157.464,130.637l32.235,88.742c0.411,1.176-1.374,2.109-2.774,1.449L150,203.415l-36.925,17.413
	c-1.4,0.66-3.185-0.272-2.774-1.449l32.235-88.742C145.028,124.674,154.972,124.674,157.464,130.637z"/>
<path fill="#FFFFFF" d="M145.734,140.297c3.919-1.568,10.01-0.691,11.732,3.427l20.59,56.688c0.194,0.534-0.338,1.045-0.864,0.829
	l-30.655-9.404c-0.477-0.146-0.803-0.587-0.803-1.087V140.297"/>
<g>
	<path fill="#D6D6D6" d="M156.633,160.374h-13.261c-0.207,0-0.374-0.168-0.374-0.374v-4.485c0-0.207,0.168-0.374,0.374-0.374h13.261
		c0.207,0,0.374,0.168,0.374,0.374v4.485C157.008,160.206,156.84,160.374,156.633,160.374z"/>
	<path fill="#E2E2E2" d="M156.633,159.646h-13.261c-0.207,0-0.374-0.168-0.374-0.375v-4.485c0-0.207,0.168-0.374,0.374-0.374h13.261
		c0.207,0,0.374,0.168,0.374,0.374v4.485C157.008,159.479,156.84,159.646,156.633,159.646z"/>
</g>
<g>
	<path fill="#D6D6D6" d="M156.631,172.638h-13.261c-0.207,0-0.375-0.168-0.375-0.375v-4.485c0-0.207,0.168-0.374,0.375-0.374h13.261
		c0.207,0,0.374,0.168,0.374,0.374v4.485C157.005,172.47,156.837,172.638,156.631,172.638z"/>
	<path fill="#E2E2E2" d="M156.631,171.911h-13.259c-0.207,0-0.374-0.168-0.374-0.374v-4.485c0-0.207,0.168-0.375,0.374-0.375h13.259
		c0.207,0,0.374,0.168,0.374,0.375v4.485C157.005,171.743,156.837,171.911,156.631,171.911z"/>
</g>
<path fill="#D6D6D6" d="M158.133,184.614h-16.266c-0.541,0-0.98-0.439-0.98-0.98v-2.332h18.226v2.332
	C159.113,184.175,158.674,184.614,158.133,184.614z"/>
<path fill="#E2E2E2" d="M158.499,183.376h-16.999c-0.339,0-0.614-0.275-0.614-0.614v-2.92c0-0.339,0.275-0.614,0.614-0.614h16.999
	c0.339,0,0.614,0.275,0.614,0.614v2.92C159.113,183.101,158.838,183.376,158.499,183.376z"/>
<path fill="#FFCD7D" d="M154.271,99.146v54.318c0,0.529-0.193,0.948-0.439,0.948c-1.915,0-7.66,0-7.66,0
	c-0.245,0-0.439-0.418-0.439-0.948V99.146c0-0.516,0.193-0.948,0.439-0.948h7.66C154.078,98.199,154.271,98.63,154.271,99.146z"/>
<path fill="#C6C6C6" d="M154.271,99.146v1.604h-8.538v-1.604c0-0.516,0.193-0.948,0.439-0.948h7.66
	C154.078,98.199,154.271,98.63,154.271,99.146z"/>
<g>
	<circle fill="#E2E2E2" cx="165.995" cy="184.616" r="2.088"/>
	<path fill="#4F4F4F" d="M167.66,184.19v0.426c0,0.919-0.746,1.665-1.665,1.665c-0.919,0-1.665-0.746-1.665-1.665v-0.426
		c0-0.326,0.093-0.631,0.258-0.888h0.389c0.282-0.22,0.635-0.351,1.019-0.351c0.384,0,0.737,0.131,1.019,0.351h0.389
		C167.567,183.559,167.66,183.863,167.66,184.19z"/>
	<path fill="#686868" d="M167.66,184.19c0,0.919-0.746,1.665-1.665,1.665c-0.919,0-1.665-0.746-1.665-1.665
		c0-0.326,0.093-0.631,0.258-0.888c0.293-0.466,0.815-0.777,1.408-0.777c0.593,0,1.115,0.311,1.408,0.777
		C167.567,183.559,167.66,183.863,167.66,184.19z"/>
</g>
<g>
	<circle fill="#E2E2E2" cx="163.907" cy="178.879" r="2.088"/>
	<path fill="#4F4F4F" d="M165.572,178.453v0.426c0,0.919-0.746,1.665-1.665,1.665c-0.919,0-1.665-0.746-1.665-1.665v-0.426
		c0-0.326,0.093-0.631,0.258-0.888h0.389c0.282-0.22,0.635-0.351,1.019-0.351c0.384,0,0.737,0.131,1.019,0.351h0.389
		C165.479,177.822,165.572,178.126,165.572,178.453z"/>
	<path fill="#686868" d="M165.572,178.453c0,0.919-0.746,1.665-1.665,1.665c-0.919,0-1.665-0.746-1.665-1.665
		c0-0.326,0.093-0.631,0.258-0.888c0.293-0.466,0.815-0.777,1.408-0.777c0.593,0,1.115,0.311,1.408,0.777
		C165.479,177.822,165.572,178.126,165.572,178.453z"/>
</g>
<g>
	<circle fill="#E2E2E2" cx="168.084" cy="190.352" r="2.088"/>
	<path fill="#4F4F4F" d="M169.749,189.925v0.426c0,0.919-0.746,1.665-1.665,1.665c-0.919,0-1.665-0.746-1.665-1.665v-0.426
		c0-0.326,0.093-0.631,0.258-0.888h0.389c0.282-0.22,0.635-0.351,1.019-0.351s0.737,0.131,1.019,0.351h0.389
		C169.656,189.295,169.749,189.599,169.749,189.925z"/>
	<path fill="#686868" d="M169.749,189.925c0,0.919-0.746,1.665-1.665,1.665c-0.919,0-1.665-0.746-1.665-1.665
		c0-0.326,0.093-0.631,0.258-0.888c0.293-0.466,0.815-0.777,1.408-0.777c0.593,0,1.115,0.311,1.408,0.777
		C169.656,189.295,169.749,189.599,169.749,189.925z"/>
</g>
<g>
	<g enable-background="new    ">
		<g enable-background="new    ">
			<defs>
				<path id="SVGID_1_" enable-background="new    " d="M160.615,71.519v1.745c0,0.029-0.005,0.059-0.015,0.089v-1.745
					C160.61,71.578,160.615,71.548,160.615,71.519z"/>
			</defs>
			<clipPath id="SVGID_00000005266596241563357440000006873549239388401846_">
				<use xlink:href="#SVGID_1_"  overflow="visible"/>
			</clipPath>
			<g clip-path="url(#SVGID_00000005266596241563357440000006873549239388401846_)" enable-background="new    ">
				<path fill="#2F2F2F" d="M160.615,71.519v1.745c0,0.012-0.001,0.025-0.003,0.038v-1.745
					C160.614,71.544,160.615,71.532,160.615,71.519"/>
				<path fill="#2D2D2D" d="M160.612,71.557v1.745c-0.002,0.016-0.006,0.031-0.011,0.047v-1.745
					C160.606,71.588,160.61,71.573,160.612,71.557"/>
				<polyline fill="#2C2C2C" points="160.601,71.604 160.601,73.349 160.6,73.353 160.6,71.608 160.601,71.604 				"/>
			</g>
		</g>
		<g enable-background="new    ">
			<defs>
				<path id="SVGID_00000044892146556140783040000007613366775692329141_" enable-background="new    " d="M139.39,73.291v-1.745
					c0,0.029,0.005,0.059,0.015,0.089v1.745C139.395,73.35,139.39,73.32,139.39,73.291z"/>
			</defs>
			<clipPath id="SVGID_00000014597300305265930690000001083392004162905476_">
				<use xlink:href="#SVGID_00000044892146556140783040000007613366775692329141_"  overflow="visible"/>
			</clipPath>
			<g clip-path="url(#SVGID_00000014597300305265930690000001083392004162905476_)" enable-background="new    ">
				<path fill="#2A2A2A" d="M139.405,71.635v1.745c-0.01-0.03-0.015-0.06-0.015-0.089v-1.745
					C139.39,71.575,139.395,71.605,139.405,71.635"/>
			</g>
		</g>
		<g>
			<rect x="145.759" y="99.005" fill="#3D3D3D" width="8.532" height="1.745"/>
		</g>
		<g>
			<polygon fill="#3D3D3D" points="145.759,99.005 145.759,100.75 139.405,73.38 139.405,71.635 			"/>
		</g>
		<g>
			<polygon fill="#3D3D3D" points="160.6,71.608 160.6,73.353 154.291,100.75 154.291,99.005 			"/>
		</g>
		<g>
			<path fill="#515151" d="M160.123,71.167c0.297,0,0.558,0.198,0.477,0.441l-6.309,27.397h-8.532l-6.354-27.37
				c-0.081-0.243,0.18-0.441,0.477-0.441l0.261,0.054l9.864,4.632l9.855-4.659L160.123,71.167z"/>
		</g>
	</g>
</g>
<g>
	<path fill="#3F3F3F" d="M147.278,182.015c-0.276,0-0.5-0.248-0.5-0.555V91.748c0-0.307,0.224-0.555,0.5-0.555s0.5,0.248,0.5,0.555
		v89.712C147.778,181.766,147.554,182.015,147.278,182.015z"/>
</g>
<g>
	<path fill="#3F3F3F" d="M150,182.015c-0.276,0-0.5-0.26-0.5-0.582V87.374c0-0.322,0.224-0.582,0.5-0.582s0.5,0.26,0.5,0.582v94.059
		C150.5,181.754,150.276,182.015,150,182.015z"/>
</g>
<g>
	<path fill="#3F3F3F" d="M152.722,182.015c-0.276,0-0.5-0.269-0.5-0.602V84.13c0-0.333,0.224-0.602,0.5-0.602s0.5,0.269,0.5,0.602
		v97.283C153.222,181.745,152.999,182.015,152.722,182.015z"/>
</g>
</svg>
