<?xml version="1.0" encoding="utf-8"?>
<!-- Generator: Adobe Illustrator 23.0.6, SVG Export Plug-In . SVG Version: 6.00 Build 0)  -->
<svg version="1.0" id="Camada_1" xmlns="http://www.w3.org/2000/svg" xmlns:xlink="http://www.w3.org/1999/xlink" x="0px" y="0px"
	 viewBox="0 0 300 300" enable-background="new 0 0 300 300" xml:space="preserve">
<ellipse fill="#FFFFFF" cx="150" cy="150" rx="150" ry="150"/>
<circle fill="#EB595B" cx="150" cy="150" r="140.813"/>
<g>
	<path fill="#56370F" d="M153.751,79.677h-12.358c-0.813,0-1.493-0.615-1.575-1.424l-2.599-26.624l20.654-0.13l-2.547,26.755
		C155.244,79.062,154.564,79.677,153.751,79.677z"/>
	<path fill="#AA6C1A" d="M155.278,49.384h-15.413c-0.034,0-0.068,0.012-0.094,0.034l-2.5,2.081c-0.038,0.032-0.058,0.081-0.052,0.13
		l2.743,23.674h15.221l2.743-23.674c0.006-0.049-0.014-0.098-0.052-0.13l-2.5-2.081C155.346,49.396,155.313,49.384,155.278,49.384z"
		/>
	<path fill="#E59623" d="M188.161,187.391c0,0-6.886-10.992-11.052-16.38l0,0c-1.344-1.712-1.623-4.156-0.704-6.186
		c1.929-4.261,3.101-8.804,3.101-13.426c0-2.053,0-7.096,0-7.096s-1.391-2.804-2.137-4.602c-1.584-3.816-5.853-5.393-9.039-3.129
		c-2.107,1.498-4.611,2.366-7.299,2.366c-7.499,0-13.579-6.756-13.579-15.09c-15.854,0.002-32.044,19.576-32.044,19.576
		s-0.01,5.921-0.01,7.974c0,4.61,1.167,9.143,3.087,13.395c0.918,2.033,0.652,4.477-0.675,6.209l-0.005,0.007
		c-1.562,2.014-3.019,0.923-4.329,3.132c-1.726,2.909-3.197,5.968-4.321,9.124c-0.775,2.178-2.414,6.205-2.414,6.205
		s0,2.743,0,7.096c0,24.987,18.23,34.992,40.716,34.992c22.473,0,40.704-10.005,40.704-34.992
		C188.161,192.946,188.161,187.391,188.161,187.391z"/>
	<path fill="#FFB031" d="M186.582,179.492c0-0.012,0-0.012,0-0.012c-1.881-6.508-5.307-9.455-9.473-14.843l0,0
		c-1.344-1.712-1.623-4.156-0.704-6.186c1.929-4.261,3.101-8.804,3.101-13.426c0-2.053-0.157-3.982-0.47-5.786
		c-0.358-2.145-0.966-4.095-1.667-5.911c-2.501-6.48-10.124-12.171-11.773-8.627c-2.83,6.081-11.823,5.72-14.511,5.72
		c-7.499,0-4.034,3.517-4.034-4.817c-12.042-10.838-28.606-1.818-31.182,13.635c-0.314,1.804-0.47,3.733-0.47,5.786
		c0,4.61,1.167,9.143,3.087,13.395c0.918,2.033,0.652,4.477-0.675,6.209l-0.005,0.007c-5.039,6.496-8.98,10.91-10.448,18.912
		c-0.402,2.19-0.616,4.417-0.616,6.645c0,24.987,18.23,34.992,40.716,34.992c22.473,0,40.704-10.005,40.704-34.992
		C188.161,186.573,187.59,182.989,186.582,179.492z"/>
	<path fill="#56370F" d="M158.075,171.938h-21.251c-0.462,0-0.836-0.374-0.836-0.836v-3.544c0-0.462,0.374-0.836,0.836-0.836h21.251
		c0.462,0,0.836,0.374,0.836,0.836v3.544C158.91,171.564,158.536,171.938,158.075,171.938z"/>
	<path fill="#AA6C1A" d="M158.075,169.979h-21.251c-0.462,0-0.836-0.374-0.836-0.836v-3.544c0-0.462,0.374-0.836,0.836-0.836h21.251
		c0.462,0,0.836,0.374,0.836,0.836v3.544C158.91,169.605,158.536,169.979,158.075,169.979z"/>
	<path fill="#56370F" d="M155.564,139.982h-16.23c-0.353,0-0.638-0.286-0.638-0.638v-2.707c0-0.353,0.286-0.638,0.638-0.638h16.23
		c0.353,0,0.638,0.286,0.638,0.638v2.707C156.202,139.696,155.917,139.982,155.564,139.982z"/>
	<path fill="#AA6C1A" d="M155.564,138.485h-16.23c-0.353,0-0.638-0.286-0.638-0.638v-2.707c0-0.353,0.286-0.638,0.638-0.638h16.23
		c0.353,0,0.638,0.286,0.638,0.638v2.707C156.202,138.199,155.917,138.485,155.564,138.485z"/>
	<g>
		<circle fill="#F9BD67" cx="165.023" cy="180.677" r="2.96"/>
		<path fill="#56370F" d="M167.385,180.073v0.605c-0.038,1.304-1.126,2.33-2.43,2.292c-1.25-0.037-2.255-1.041-2.292-2.292v-0.605
			c0-0.463,0.133-0.894,0.365-1.259h0.55c0.848-0.665,2.041-0.665,2.889,0h0.55C167.252,179.179,167.385,179.611,167.385,180.073
			L167.385,180.073z"/>
		<path fill="#AA6C1A" d="M167.385,180.073c-0.038,1.304-1.126,2.33-2.43,2.292c-1.25-0.037-2.255-1.041-2.292-2.292
			c0-0.463,0.133-0.894,0.365-1.259c0.692-1.102,2.147-1.435,3.249-0.743c0.3,0.189,0.555,0.443,0.743,0.743
			C167.252,179.179,167.385,179.611,167.385,180.073L167.385,180.073z"/>
	</g>
	<g>
		<circle fill="#F9BD67" cx="168.776" cy="190.331" r="2.96"/>
		<path fill="#56370F" d="M171.138,189.726v0.605c-0.038,1.304-1.126,2.33-2.43,2.292c-1.25-0.037-2.255-1.041-2.292-2.292v-0.605
			c0-0.463,0.133-0.894,0.365-1.259h0.55c0.848-0.665,2.041-0.665,2.889,0h0.55C171.005,188.832,171.138,189.264,171.138,189.726
			L171.138,189.726z"/>
		<path fill="#AA6C1A" d="M171.138,189.726c-0.038,1.304-1.126,2.33-2.43,2.292c-1.25-0.036-2.255-1.041-2.292-2.292
			c0-0.463,0.133-0.894,0.365-1.259c0.692-1.102,2.147-1.435,3.249-0.743c0.3,0.189,0.555,0.443,0.743,0.743
			C171.005,188.832,171.138,189.264,171.138,189.726L171.138,189.726z"/>
	</g>
	<g>
		<circle fill="#F9BD67" cx="175.058" cy="182.444" r="2.96"/>
		<path fill="#56370F" d="M177.42,181.839v0.605c-0.038,1.304-1.126,2.33-2.43,2.292c-1.25-0.037-2.255-1.041-2.292-2.292v-0.605
			c0-0.463,0.133-0.894,0.365-1.259h0.55c0.848-0.665,2.041-0.665,2.889,0h0.55C177.287,180.945,177.42,181.377,177.42,181.839
			L177.42,181.839z"/>
		<path fill="#AA6C1A" d="M177.42,181.839c-0.038,1.304-1.126,2.33-2.43,2.292c-1.25-0.037-2.255-1.041-2.292-2.292
			c0-0.463,0.133-0.894,0.365-1.259c0.692-1.102,2.147-1.435,3.249-0.743c0.3,0.189,0.555,0.443,0.743,0.743
			C177.287,180.945,177.42,181.377,177.42,181.839L177.42,181.839z"/>
	</g>
	<g>
		<circle fill="#F9BD67" cx="179.976" cy="192.398" r="2.96"/>
		<path fill="#56370F" d="M182.337,191.794v0.605c-0.038,1.304-1.126,2.33-2.43,2.292c-1.25-0.036-2.255-1.041-2.292-2.292v-0.605
			c0-0.463,0.133-0.894,0.365-1.259h0.55c0.848-0.665,2.041-0.665,2.889,0h0.55C182.205,190.9,182.337,191.332,182.337,191.794
			L182.337,191.794z"/>
		<path fill="#AA6C1A" d="M182.337,191.794c-0.038,1.304-1.126,2.33-2.43,2.292c-1.25-0.036-2.255-1.041-2.292-2.292
			c0-0.463,0.133-0.894,0.365-1.259c0.692-1.102,2.147-1.435,3.249-0.743c0.3,0.189,0.555,0.443,0.743,0.743
			C182.205,190.9,182.337,191.332,182.337,191.794L182.337,191.794z"/>
	</g>
	<path fill="#F2A12C" d="M152.66,78.776v52.265c0,0.73-0.24,1.307-0.544,1.307h-9.487c-0.304,0-0.544-0.577-0.544-1.307V78.776
		c0-0.712,0.24-1.307,0.544-1.307h9.487C152.421,77.469,152.66,78.065,152.66,78.776z"/>
	<path fill="#E0E0E0" d="M152.66,78.315v2.812h-10.574v-2.812c0-0.461,0.24-0.846,0.544-0.846h9.487
		C152.421,77.469,152.66,77.854,152.66,78.315z"/>
	<path fill="#382109" d="M151.993,233.121h-9.107c-0.582,0-1.085-0.406-1.208-0.974l-1.478-6.82c-0.167-0.77,0.42-1.498,1.208-1.498
		H153.4c0.783,0,1.369,0.719,1.211,1.486l-1.407,6.82C153.085,232.709,152.58,233.121,151.993,233.121z"/>
	<path fill="#56370F" d="M131.385,155.494c-1.367,0.322-2.305,1.482-2.429,2.807c-1.753,4.088-6.312,5.723-6.312,5.723
		c1.485,1.437,1.224,4.619,0.709,7.131c-0.342-0.034-0.693-0.027-1.046,0.056c-1.714,0.404-2.776,2.12-2.372,3.834
		c0.404,1.714,2.12,2.776,3.834,2.372c1.081-0.255,1.9-1.033,2.259-2.002l0.013,0.008c1.306-5.339,5.149-7.763,5.149-7.763
		c-1.457-1.26-0.744-3.958,0.105-5.997c0.493,0.133,1.02,0.163,1.552,0.037c1.714-0.404,2.776-2.12,2.372-3.834
		C134.815,156.153,133.099,155.091,131.385,155.494z"/>
	<path fill="#56370F" d="M163.41,156.829c1.201,0.283,2.024,1.302,2.134,2.465c1.54,3.59,5.543,5.026,5.543,5.026
		c-1.304,1.262-1.075,4.056-0.623,6.263c0.3-0.03,0.608-0.024,0.918,0.049c1.505,0.354,2.438,1.862,2.083,3.367
		c-0.354,1.505-1.862,2.438-3.367,2.083c-0.95-0.224-1.669-0.907-1.984-1.758l-0.011,0.007c-1.147-4.689-4.522-6.818-4.522-6.818
		c1.28-1.106,0.654-3.476-0.093-5.267c-0.433,0.117-0.896,0.143-1.363,0.033c-1.505-0.354-2.438-1.862-2.083-3.367
		C160.397,157.407,161.905,156.474,163.41,156.829z"/>
	<path fill="#382109" d="M156.935,157.821c0,0-0.003-18.741,0.001-22.282c0-0.324,0.267-0.578,0.6-0.569
		c2.725,0.071,13.639,0.84,9.635,7.861c-0.435,0.762-0.579,2.009,0.248,2.344c5.964,2.414,4.608,11.521,5.606,14.913
		c0.172,0.585-0.281,1.162-0.907,1.162h-13.147c-1.124,0-2.036-0.887-2.036-1.982V157.821z"/>
	<path fill="#56370F" d="M153.229,226.297h-11.697c-0.641,0-1.192-0.456-1.312-1.085l-5.875-30.76
		c-0.156-0.818,0.467-1.579,1.3-1.586l22.586-0.211c0.828-0.008,1.464,0.732,1.331,1.549l-5.014,30.971
		C154.443,225.822,153.884,226.297,153.229,226.297z"/>
	<path fill="#AA6C1A" d="M158.249,198.56h-22.88c-1.729,0-3.131-1.402-3.131-3.131v0c0-1.729,1.402-3.131,3.131-3.131h22.88
		c1.729,0,3.131,1.402,3.131,3.131v0C161.38,197.158,159.979,198.56,158.249,198.56z"/>
	<g>
		<g>
			<g>
				<path fill="#3F3F3F" d="M149.599,199.986c-0.411,0-0.744-0.333-0.744-0.744V59.937c0-0.411,0.333-0.744,0.744-0.744
					s0.744,0.333,0.744,0.744v139.306C150.343,199.653,150.01,199.986,149.599,199.986z"/>
			</g>
		</g>
		<g>
			<g>
				<path fill="#3F3F3F" d="M146.147,199.986c-0.411,0-0.744-0.333-0.744-0.744V59.937c0-0.411,0.333-0.744,0.744-0.744
					s0.744,0.333,0.744,0.744v139.306C146.891,199.653,146.558,199.986,146.147,199.986z"/>
			</g>
		</g>
	</g>
</g>
</svg>
