<svg xmlns="http://www.w3.org/2000/svg" version="1.0" viewBox="0 0 300 300"><path fill="#FFF" d="M300 150a149.295 149.295 0 01-.723 14.702 150.663 150.663 0 01-2.16 14.561 150.48 150.48 0 01-3.577 14.279 149.469 149.469 0 01-7.943 20.591 150.761 150.761 0 01-6.939 12.982 149.407 149.407 0 01-8.178 12.239 148.345 148.345 0 01-4.53 5.804 149.029 149.029 0 01-9.886 10.907 150.293 150.293 0 01-16.711 14.416 150.754 150.754 0 01-12.239 8.178 149.435 149.435 0 01-12.982 6.939 150.083 150.083 0 01-27.687 9.907 150.754 150.754 0 01-14.437 2.872 149.427 149.427 0 01-14.649 1.443 150.538 150.538 0 01-14.72 0 150.663 150.663 0 01-21.903-2.702 150.48 150.48 0 01-14.279-3.577 149.469 149.469 0 01-20.591-7.943 150.761 150.761 0 01-12.982-6.939 149.407 149.407 0 01-12.239-8.178 149.097 149.097 0 01-5.804-4.53 149.029 149.029 0 01-10.907-9.886 150.293 150.293 0 01-14.416-16.711 150.754 150.754 0 01-8.178-12.239 150.046 150.046 0 01-18.459-47.853 149.427 149.427 0 01-2.702-21.903A151.727 151.727 0 010 150a149.295 149.295 0 01.723-14.702 150.663 150.663 0 012.16-14.561 150.48 150.48 0 013.577-14.279 149.469 149.469 0 017.943-20.591 150.761 150.761 0 016.939-12.982 149.407 149.407 0 018.178-12.239 149.097 149.097 0 014.53-5.804 149.029 149.029 0 019.886-10.907 150.293 150.293 0 0116.711-14.416 150.754 150.754 0 0112.239-8.178 150.046 150.046 0 0147.852-18.459A149.427 149.427 0 01142.641.18a150.465 150.465 0 0114.719.001 150.663 150.663 0 0121.903 2.702 150.48 150.48 0 0114.279 3.577 149.469 149.469 0 0120.591 7.943 150.761 150.761 0 0112.982 6.939 149.407 149.407 0 0112.239 8.178 149.097 149.097 0 015.804 4.53 149.029 149.029 0 0110.907 9.886 150.293 150.293 0 0114.416 16.711 150.754 150.754 0 018.178 12.239 150.046 150.046 0 0118.459 47.852 149.427 149.427 0 012.702 21.903c.12 2.451.18 4.904.18 7.359z"/><path fill="#86BF5A" d="M290.813 150a140.836 140.836 0 01-68.421 120.781 141.114 141.114 0 01-12.188 6.514 141.158 141.158 0 01-12.766 5.288 141.08 141.08 0 01-19.968 5.525 141.214 141.214 0 01-13.669 2.028 140.498 140.498 0 01-13.802.678 140.836 140.836 0 01-53.887-10.718 140.561 140.561 0 01-18.506-9.315 140.015 140.015 0 01-11.49-7.678 141.422 141.422 0 01-10.682-8.766 140.735 140.735 0 01-22.518-26.105 141.114 141.114 0 01-10.212-18.027 141.158 141.158 0 01-5.288-12.766 141.08 141.08 0 01-5.525-19.968 141.214 141.214 0 01-2.028-13.669A140.498 140.498 0 019.185 150a140.866 140.866 0 0120.033-72.393 140.015 140.015 0 017.678-11.49 141.422 141.422 0 018.766-10.682 140.735 140.735 0 0126.105-22.518 141.114 141.114 0 0118.026-10.212 140.69 140.69 0 0132.735-10.813 141.214 141.214 0 0113.669-2.028 140.498 140.498 0 0113.802-.678A140.836 140.836 0 01270.78 77.607a141.114 141.114 0 019.315 18.505 140.547 140.547 0 016.498 19.672 141.214 141.214 0 013.542 20.413 140.498 140.498 0 01.678 13.803z"/><path fill="#56370F" d="M153.751 79.677h-12.358a1.578 1.578 0 01-1.575-1.424l-2.599-26.624 20.654-.13-2.547 26.755a1.594 1.594 0 01-1.007 1.318c-.182.07-.372.105-.568.105z"/><path fill="#AA6C1A" d="M155.278 49.384h-15.413a.141.141 0 00-.094.034l-2.5 2.081a.138.138 0 00-.052.13l2.743 23.674h15.221l2.743-23.674a.138.138 0 00-.052-.13l-2.5-2.081a.147.147 0 00-.096-.034z"/><path fill="#E59623" d="M188.161 187.391s-6.886-10.992-11.052-16.38c-1.344-1.712-1.623-4.156-.704-6.186 1.929-4.261 3.101-8.804 3.101-13.426v-7.096s-1.391-2.804-2.137-4.602c-1.584-3.816-5.853-5.393-9.039-3.129-2.107 1.498-4.611 2.366-7.299 2.366-7.499 0-13.579-6.756-13.579-15.09-15.854.002-32.044 19.576-32.044 19.576s-.01 5.921-.01 7.974c0 4.61 1.167 9.143 3.087 13.395.918 2.033.652 4.477-.675 6.209l-.005.007c-1.562 2.014-3.019.923-4.329 3.132-1.726 2.909-3.197 5.968-4.321 9.124-.775 2.178-2.414 6.205-2.414 6.205v7.096c0 24.987 18.23 34.992 40.716 34.992 22.473 0 40.704-10.005 40.704-34.992v-9.175z"/><path fill="#FFB031" d="M186.582 179.492v-.012c-1.881-6.508-5.307-9.455-9.473-14.843-1.344-1.712-1.623-4.156-.704-6.186 1.929-4.261 3.101-8.804 3.101-13.426 0-2.053-.157-3.982-.47-5.786-.358-2.145-.966-4.095-1.667-5.911-2.501-6.48-10.124-12.171-11.773-8.627-2.83 6.081-11.823 5.72-14.511 5.72-7.499 0-4.034 3.517-4.034-4.817-12.042-10.838-28.606-1.818-31.182 13.635-.314 1.804-.47 3.733-.47 5.786 0 4.61 1.167 9.143 3.087 13.395.918 2.033.652 4.477-.675 6.209l-.005.007c-5.039 6.496-8.98 10.91-10.448 18.912a36.75 36.75 0 00-.616 6.645c0 24.987 18.23 34.992 40.716 34.992 22.473 0 40.704-10.005 40.704-34.992-.001-3.62-.572-7.204-1.58-10.701z"/><path fill="#56370F" d="M158.075 171.938h-21.251a.826.826 0 01-.772-.516.835.835 0 01-.064-.32v-3.544c0-.462.374-.836.836-.836h21.251c.462 0 .836.374.836.836v3.544a.826.826 0 01-.516.772.82.82 0 01-.32.064z"/><path fill="#AA6C1A" d="M158.075 169.979h-21.251a.842.842 0 01-.772-.516.835.835 0 01-.064-.32v-3.544c0-.462.374-.836.836-.836h21.251c.462 0 .836.374.836.836v3.544a.832.832 0 01-.836.836z"/><path fill="#56370F" d="M155.564 139.982h-16.23a.626.626 0 01-.589-.394.64.64 0 01-.049-.244v-2.707c0-.353.286-.638.638-.638h16.23c.353 0 .638.286.638.638v2.707a.626.626 0 01-.394.589.618.618 0 01-.244.049z"/><path fill="#AA6C1A" d="M155.564 138.485h-16.23a.626.626 0 01-.589-.394.64.64 0 01-.049-.244v-2.707c0-.353.286-.638.638-.638h16.23c.353 0 .638.286.638.638v2.707a.626.626 0 01-.394.589.618.618 0 01-.244.049z"/><path fill="#F9BD67" d="M167.983 180.677a2.94 2.94 0 01-.225 1.132 2.93 2.93 0 01-.642.961 2.942 2.942 0 01-.961.642 2.933 2.933 0 01-1.132.225 2.94 2.94 0 01-1.132-.225 2.93 2.93 0 01-.961-.642 2.942 2.942 0 01-.642-.961 2.933 2.933 0 01-.225-1.132 2.958 2.958 0 011.828-2.736 3.008 3.008 0 011.132-.225 2.94 2.94 0 011.132.225 2.93 2.93 0 01.961.642 2.942 2.942 0 01.642.961 2.933 2.933 0 01.225 1.133z"/><path fill="#56370F" d="M167.385 180.073v.605a2.352 2.352 0 01-1.473 2.12 2.352 2.352 0 01-2.534-.494 2.336 2.336 0 01-.516-.743 2.334 2.334 0 01-.199-.883v-.605c0-.463.133-.894.365-1.259h.55a2.332 2.332 0 012.208-.371c.248.085.474.209.68.371h.55c.236.365.369.797.369 1.259z"/><path fill="#AA6C1A" d="M167.385 180.073a2.352 2.352 0 01-1.473 2.12 2.352 2.352 0 01-2.534-.494 2.336 2.336 0 01-.516-.743 2.334 2.334 0 01-.199-.883 2.372 2.372 0 011.22-2.068 2.39 2.39 0 011.73-.219 2.319 2.319 0 011.407 1.028c.232.365.365.797.365 1.259z"/><path fill="#F9BD67" d="M171.736 190.331a2.94 2.94 0 01-.225 1.132 2.93 2.93 0 01-.642.961 2.942 2.942 0 01-.961.642 3.008 3.008 0 01-1.132.225 2.94 2.94 0 01-1.132-.225 2.93 2.93 0 01-.961-.642 2.942 2.942 0 01-.642-.961 3.008 3.008 0 01-.225-1.132 2.94 2.94 0 01.225-1.132 2.93 2.93 0 01.642-.961 2.942 2.942 0 01.961-.642 2.933 2.933 0 011.132-.225 2.94 2.94 0 011.132.225 2.93 2.93 0 01.961.642 2.942 2.942 0 01.642.961 2.933 2.933 0 01.225 1.132z"/><path fill="#56370F" d="M171.138 189.726v.605a2.352 2.352 0 01-1.473 2.12 2.352 2.352 0 01-2.534-.494 2.352 2.352 0 01-.715-1.626v-.605c0-.463.133-.894.365-1.259h.55a2.332 2.332 0 012.208-.371c.248.085.474.209.68.371h.55c.236.365.369.797.369 1.259z"/><path fill="#AA6C1A" d="M171.138 189.726a2.352 2.352 0 01-1.473 2.12 2.352 2.352 0 01-2.534-.494 2.352 2.352 0 01-.715-1.626 2.372 2.372 0 011.22-2.068 2.39 2.39 0 011.73-.219 2.364 2.364 0 011.772 2.287z"/><path fill="#F9BD67" d="M178.018 182.444a2.94 2.94 0 01-.225 1.132 2.93 2.93 0 01-.642.961 2.942 2.942 0 01-.961.642 2.933 2.933 0 01-1.132.225 2.94 2.94 0 01-1.132-.225 2.93 2.93 0 01-.961-.642 2.942 2.942 0 01-.642-.961 2.933 2.933 0 01-.225-1.132 2.94 2.94 0 01.225-1.132 2.93 2.93 0 01.642-.961 2.942 2.942 0 01.961-.642 2.933 2.933 0 011.132-.225 2.94 2.94 0 011.132.225 2.93 2.93 0 01.961.642 2.942 2.942 0 01.642.961 2.933 2.933 0 01.225 1.132z"/><path fill="#56370F" d="M177.42 181.839v.605a2.352 2.352 0 01-1.473 2.12 2.352 2.352 0 01-2.534-.494 2.336 2.336 0 01-.516-.743 2.334 2.334 0 01-.199-.883v-.605c0-.463.133-.894.365-1.259h.55a2.332 2.332 0 012.208-.371c.248.085.474.209.68.371h.55c.236.365.369.797.369 1.259z"/><path fill="#AA6C1A" d="M177.42 181.839a2.352 2.352 0 01-1.473 2.12 2.352 2.352 0 01-2.534-.494 2.32 2.32 0 01-.516-.743 2.334 2.334 0 01-.199-.883 2.372 2.372 0 011.22-2.068 2.338 2.338 0 011.14-.294 2.337 2.337 0 011.14.294 2.319 2.319 0 01.855.809c.234.365.367.797.367 1.259z"/><path fill="#F9BD67" d="M182.936 192.398a2.94 2.94 0 01-.225 1.132 2.93 2.93 0 01-.642.961 2.942 2.942 0 01-.961.642 2.933 2.933 0 01-1.132.225 2.94 2.94 0 01-1.132-.225 2.93 2.93 0 01-.961-.642 2.942 2.942 0 01-.642-.961 3.008 3.008 0 01-.225-1.132 2.94 2.94 0 01.225-1.132 2.93 2.93 0 01.642-.961 2.942 2.942 0 011.516-.809 2.947 2.947 0 012.221.442 2.991 2.991 0 01.817.817 2.997 2.997 0 01.442 1.067c.038.189.057.382.057.576z"/><path fill="#56370F" d="M182.337 191.794v.605a2.352 2.352 0 01-1.473 2.12 2.352 2.352 0 01-2.534-.494 2.336 2.336 0 01-.516-.743 2.334 2.334 0 01-.199-.883v-.605c0-.463.133-.894.365-1.259h.55a2.332 2.332 0 012.208-.371c.248.085.474.209.68.371h.55a2.3 2.3 0 01.369 1.259z"/><path fill="#AA6C1A" d="M182.337 191.794a2.352 2.352 0 01-1.473 2.12 2.352 2.352 0 01-2.534-.494 2.336 2.336 0 01-.516-.743 2.334 2.334 0 01-.199-.883 2.372 2.372 0 011.22-2.068 2.338 2.338 0 011.14-.294 2.343 2.343 0 011.141.294 2.319 2.319 0 01.855.809c.234.365.366.797.366 1.259z"/><path fill="#F2A12C" d="M152.66 78.776v52.265c0 .73-.24 1.307-.544 1.307h-9.487c-.304 0-.544-.577-.544-1.307V78.776c0-.712.24-1.307.544-1.307h9.487c.305 0 .544.596.544 1.307z"/><path fill="#AA6C1A" d="M152.66 78.315v2.812h-10.574v-2.812c0-.461.24-.846.544-.846h9.487c.304 0 .543.385.543.846z"/><path fill="#382109" d="M151.993 233.121h-9.107a1.224 1.224 0 01-.776-.273 1.23 1.23 0 01-.432-.7l-1.478-6.82a1.197 1.197 0 01.005-.547 1.195 1.195 0 01.241-.491 1.278 1.278 0 01.428-.34 1.256 1.256 0 01.533-.121H153.4c.783 0 1.369.719 1.211 1.486l-1.407 6.82a1.224 1.224 0 01-.43.708c-.11.09-.232.159-.367.206a1.219 1.219 0 01-.414.072z"/><path fill="#56370F" d="M163.41 156.829a2.798 2.798 0 011.923 1.624c.114.269.185.549.211.841 1.54 3.59 5.543 5.026 5.543 5.026-1.304 1.262-1.075 4.056-.623 6.263.3-.03.608-.024.918.049a2.697 2.697 0 01.981.444 2.785 2.785 0 01.914 1.098 2.687 2.687 0 01.218.686 2.88 2.88 0 01.036.72 2.87 2.87 0 01-.149.704 2.925 2.925 0 01-.324.643 2.78 2.78 0 01-1.409 1.077 2.797 2.797 0 01-3.534-1.681l-.011.007c-1.147-4.689-4.522-6.818-4.522-6.818 1.28-1.106.654-3.476-.093-5.267a2.714 2.714 0 01-1.883-.144 2.808 2.808 0 01-1.463-1.567 2.847 2.847 0 01-.176-1.079 2.77 2.77 0 01.251-1.064 2.747 2.747 0 01.639-.887 2.833 2.833 0 01.93-.574 2.769 2.769 0 011.079-.174c.183.006.365.031.544.073zm-32.025-1.335a3.153 3.153 0 00-1.667 1.012 3.173 3.173 0 00-.762 1.796c-1.753 4.088-6.312 5.723-6.312 5.723 1.485 1.437 1.224 4.619.709 7.131-.352-.04-.7-.021-1.046.056a3.233 3.233 0 00-1.118.505 3.309 3.309 0 00-.602.557 3.313 3.313 0 00-.59 1.075 3.06 3.06 0 00-.146.807 3.133 3.133 0 00.176 1.214 3.125 3.125 0 00.621 1.057 3.197 3.197 0 002.158 1.068 3.132 3.132 0 00.819-.047 3.231 3.231 0 001.139-.454 3.13 3.13 0 00.626-.53 3.062 3.062 0 00.47-.672c.064-.122.119-.247.166-.376l.013.008c1.306-5.339 5.149-7.763 5.149-7.763-1.457-1.26-.744-3.958.105-5.997a3.092 3.092 0 001.552.037 3.153 3.153 0 001.612-.925 3.172 3.172 0 00.822-1.666 3.186 3.186 0 00-3.894-3.616z"/><path fill="#382109" d="M156.935 157.821s-.003-18.741.001-22.282c0-.324.267-.578.6-.569 2.725.071 13.639.84 9.635 7.861-.435.762-.579 2.009.248 2.344 5.964 2.414 4.608 11.521 5.606 14.913.172.585-.281 1.162-.907 1.162h-13.147c-1.124 0-2.036-.887-2.036-1.982v-1.447z"/><path fill="#56370F" d="M153.229 226.297h-11.697a1.34 1.34 0 01-1.312-1.084l-5.875-30.76a1.35 1.35 0 01.12-.853 1.311 1.311 0 01.367-.448 1.35 1.35 0 01.813-.285l22.586-.211a1.332 1.332 0 011.332 1.549l-5.014 30.971c-.025.157-.077.304-.155.442s-.177.259-.298.361a1.327 1.327 0 01-.867.318z"/><path fill="#AA6C1A" d="M158.249 198.56h-22.88a3.133 3.133 0 01-2.602-1.39 3.088 3.088 0 01-.467-1.128 3.133 3.133 0 012.458-3.68c.202-.04.405-.06.611-.06h22.88a3.133 3.133 0 012.602 1.39 3.088 3.088 0 01.467 1.128 3.133 3.133 0 01-2.458 3.68c-.202.04-.405.06-.611.06z"/><path fill="#3F3F3F" d="M146.147 199.986a.732.732 0 01-.526-.218.732.732 0 01-.218-.526V59.937a.732.732 0 01.218-.526.732.732 0 01.811-.161.744.744 0 01.459.687v139.306c0 .41-.333.743-.744.743zm3.452 0a.732.732 0 01-.526-.218.732.732 0 01-.218-.526V59.937a.732.732 0 01.218-.526.732.732 0 01.811-.161.744.744 0 01.459.687v139.306c0 .41-.333.743-.744.743z"/></svg>