<?xml version="1.0" encoding="utf-8"?>
<!-- Generator: Adobe Illustrator 24.3.0, SVG Export Plug-In . SVG Version: 6.00 Build 0)  -->
<svg version="1.0" id="Layer_1" xmlns="http://www.w3.org/2000/svg" xmlns:xlink="http://www.w3.org/1999/xlink" x="0px" y="0px"
	 viewBox="0 0 300 300" enable-background="new 0 0 300 300" xml:space="preserve">
<g>
	
		<ellipse transform="matrix(0.7071 -0.7071 0.7071 0.7071 -62.1321 149.9998)" fill="#FFFFFF" cx="150" cy="150" rx="150" ry="150"/>
	<circle fill="#86BF5A" cx="150" cy="150" r="140.812"/>
</g>
<g>
	<g>
		<g>
			<path fill="#FFFFFF" d="M220.901,69.815v160.37c0,4.659-3.765,8.441-8.441,8.441H87.54c-4.659,0-8.441-3.781-8.441-8.441V69.815
				c0-1.671,0.49-3.241,1.334-4.541c1.486-2.347,4.119-3.9,7.107-3.9h124.92c3.005,0,5.621,1.553,7.124,3.9
				C220.411,66.574,220.901,68.144,220.901,69.815z"/>
		</g>
		<g>
			<g>
				<g>
					<path fill="#EDEDED" d="M209.034,215.83H90.982c-1.398,0-2.532-1.134-2.532-2.532s1.134-2.532,2.532-2.532h118.052
						c1.398,0,2.532,1.134,2.532,2.532S210.432,215.83,209.034,215.83z"/>
				</g>
				<g>
					<path fill="#EDEDED" d="M209.034,173.627H90.982c-1.398,0-2.532-1.134-2.532-2.532s1.134-2.532,2.532-2.532h118.052
						c1.398,0,2.532,1.134,2.532,2.532S210.432,173.627,209.034,173.627z"/>
				</g>
			</g>
			<g>
				<path fill="#EDEDED" d="M209.034,131.424H90.982c-1.398,0-2.532-1.134-2.532-2.532c0-1.398,1.134-2.532,2.532-2.532h118.052
					c1.398,0,2.532,1.134,2.532,2.532C211.566,130.29,210.432,131.424,209.034,131.424z"/>
			</g>
			<g>
				<path fill="#EDEDED" d="M209.034,89.221H90.982c-1.398,0-2.532-1.134-2.532-2.532s1.134-2.532,2.532-2.532h118.052
					c1.398,0,2.532,1.134,2.532,2.532S210.432,89.221,209.034,89.221z"/>
			</g>
			<g>
				<g>
					<path fill="#EDEDED" d="M209.034,102.726H90.982c-0.467,0-0.844-0.378-0.844-0.844s0.378-0.844,0.844-0.844h118.052
						c0.467,0,0.844,0.378,0.844,0.844S209.5,102.726,209.034,102.726z"/>
				</g>
				<g>
					<path fill="#EDEDED" d="M209.034,114.543H90.982c-0.467,0-0.844-0.378-0.844-0.844s0.378-0.844,0.844-0.844h118.052
						c0.467,0,0.844,0.378,0.844,0.844S209.5,114.543,209.034,114.543z"/>
				</g>
			</g>
			<g>
				<g>
					<path fill="#EDEDED" d="M209.034,144.929H90.982c-0.467,0-0.844-0.378-0.844-0.844s0.378-0.844,0.844-0.844h118.052
						c0.467,0,0.844,0.378,0.844,0.844S209.5,144.929,209.034,144.929z"/>
				</g>
				<g>
					<path fill="#EDEDED" d="M209.034,156.746H90.982c-0.467,0-0.844-0.378-0.844-0.844s0.378-0.844,0.844-0.844h118.052
						c0.467,0,0.844,0.378,0.844,0.844S209.5,156.746,209.034,156.746z"/>
				</g>
			</g>
			<g>
				<g>
					<path fill="#EDEDED" d="M209.034,187.132H90.982c-0.467,0-0.844-0.378-0.844-0.844s0.378-0.844,0.844-0.844h118.052
						c0.467,0,0.844,0.378,0.844,0.844S209.5,187.132,209.034,187.132z"/>
				</g>
				<g>
					<path fill="#EDEDED" d="M209.034,198.949H90.982c-0.467,0-0.844-0.378-0.844-0.844s0.378-0.844,0.844-0.844h118.052
						c0.467,0,0.844,0.378,0.844,0.844S209.5,198.949,209.034,198.949z"/>
				</g>
			</g>
		</g>
	</g>
</g>
<g>
	<circle fill="#3D3D3D" cx="150" cy="150" r="58.355"/>
	<circle fill="#515151" cx="150" cy="150" r="53.295"/>
	<circle fill="#3D3D3D" cx="150" cy="150" r="47.288"/>
	<circle fill="#515151" cx="148.853" cy="150" r="36.533"/>
	<circle fill="#FFFFFF" cx="150" cy="150" r="22.303"/>
	<circle fill="#3D3D3D" cx="150" cy="150" r="2.585"/>
</g>
</svg>
