<svg version="1" xmlns="http://www.w3.org/2000/svg" viewBox="0 0 300 300"><ellipse transform="rotate(-45.001 149.999 150.002)" fill="#FFF" cx="150" cy="150" rx="150" ry="150"/><ellipse transform="rotate(-45.001 149.999 150.003)" fill="#5EC2D7" cx="150" cy="150" rx="140.812" ry="140.812"/><path fill="#FFF" d="M205.126 87.655v124.69a6.557 6.557 0 0 1-6.563 6.563h-97.127a6.565 6.565 0 0 1-6.563-6.563V87.655c0-1.299.381-2.52 1.037-3.531a6.528 6.528 0 0 1 5.526-3.032h97.127a6.55 6.55 0 0 1 6.563 6.563z"/><path fill="#EDEDED" d="M195.899 201.184h-91.787a1.97 1.97 0 0 1 0-3.938h91.787a1.969 1.969 0 1 1 0 3.938zm0-32.813h-91.787a1.97 1.97 0 0 1 0-3.938h91.787a1.969 1.969 0 1 1 0 3.938zm0-32.814h-91.787a1.969 1.969 0 1 1 0-3.938h91.787a1.97 1.97 0 0 1 0 3.938zm0-32.813h-91.787a1.969 1.969 0 1 1 0-3.938h91.787a1.97 1.97 0 0 1 0 3.938zm0 10.5h-91.787a.656.656 0 1 1 0-1.312h91.787a.656.656 0 1 1 0 1.312zm0 9.188h-91.787a.656.656 0 1 1 0-1.312h91.787a.656.656 0 1 1 0 1.312zm0 23.625h-91.787a.656.656 0 1 1 0-1.312h91.787a.656.656 0 1 1 0 1.312zm0 9.189h-91.787a.656.656 0 0 1 0-1.312h91.787a.656.656 0 1 1 0 1.312zm0 23.625h-91.787a.656.656 0 0 1 0-1.312h91.787a.656.656 0 1 1 0 1.312zm0 9.188h-91.787a.656.656 0 0 1 0-1.312h91.787a.656.656 0 1 1 0 1.312z"/><path fill="#565656" d="M173.766 111.241a1.599 1.599 0 0 0-1.966-1.794l-14.931 3.715a4.245 4.245 0 0 0-3.26 4.13V154.4a18.957 18.957 0 0 0-11.94-1.592c-7.958 1.507-14.224 8.099-15.284 16.13-1.602 12.149 8.244 22.449 20.256 21.617 9.764-.677 17.709-9.772 17.709-19.56v-47.258l6.728-1.575a1.6 1.6 0 0 0 1.216-1.315l1.472-9.606z"/></svg>