<svg xmlns="http://www.w3.org/2000/svg" version="1.0" viewBox="0 0 300 300"><circle cx="150" cy="150" r="149.532" fill="#FFF" transform="rotate(-45.001 149.999 150.002)"/><circle cx="150" cy="150" r="140.373" fill="#FAE040"/><path fill="#CD4058" d="M224.379 112.915h-66.786v1.595c0-1.19-.962-2.139-2.139-2.139h-10.91a2.135 2.135 0 00-2.138 2.139v-1.595H75.621a2.539 2.539 0 00-2.531 2.531v90.338a2.533 2.533 0 002.518 2.518h66.798v-.228c0 .342.076.671.228.949a2.12 2.12 0 001.91 1.19h10.91a2.136 2.136 0 002.139-2.139v.228h66.798a2.533 2.533 0 002.518-2.518v-90.338a2.538 2.538 0 00-2.53-2.531z"/><path fill="#E56C86" d="M142.406 110.871v95.388H75.608a2.533 2.533 0 01-2.518-2.519v-90.338a2.539 2.539 0 012.531-2.531h66.785zm15.187 0v95.388h66.798a2.533 2.533 0 002.518-2.519v-90.338a2.539 2.539 0 00-2.531-2.531h-66.785z"/><path fill="#F2F2F2" d="M157.593 110.871v1.595c0-1.19-.962-2.139-2.139-2.139h-10.91a2.136 2.136 0 00-2.139 2.139v-1.595H76.811v79.745c0 3.088 2.215 5.708 5.29 6.252l50.307 8.404 5.897.987h4.101v-.228c0 .342.076.671.228.949l4.834.806v.384h5.062v-.384l4.834-.806c.152-.278.228-.608.228-.949v.228h4.101l5.897-.987 50.307-8.404c3.076-.544 5.29-3.164 5.29-6.252v-79.745h-65.594z"/><path fill="#AA2D4B" d="M157.593 114.51v93.565c0 1.19-.962 2.139-2.139 2.139h-10.91a2.12 2.12 0 01-1.911-1.19 1.984 1.984 0 01-.228-.949V114.51c0-1.19.962-2.139 2.139-2.139h10.91c1.178 0 2.139.949 2.139 2.139z"/><path fill="#BC3753" d="M157.593 112.466v93.565c0 1.19-.962 2.139-2.139 2.139h-10.91a2.12 2.12 0 01-1.911-1.19 1.984 1.984 0 01-.228-.949v-93.565c0-1.19.962-2.139 2.139-2.139h10.91c1.178 0 2.139.949 2.139 2.139z"/><path fill="#EFEFEF" d="M150 110.871v93.489l-7.594-1.266-9.365-1.569-50.32-8.404a2.54 2.54 0 01-2.113-2.506v-88.351a2.522 2.522 0 012.949-2.493l2.316.392 60.875 10.163 3.252.545z"/><path fill="#EFEFEF" d="M150 110.871v93.489l7.594-1.266 9.365-1.569 50.32-8.404a2.54 2.54 0 002.113-2.506v-88.351a2.522 2.522 0 00-2.949-2.493l-2.316.392-60.875 10.163-3.252.545z"/><path fill="#F7F7F7" d="M153.252 110.327h-6.504l-60.875-10.163v82.377a5.057 5.057 0 003.493 4.809l43.676 14.175 9.365 3.037 5.062 1.645 2.531.823 2.531-.823 5.062-1.645 9.365-3.037 43.676-14.175a5.057 5.057 0 003.493-4.809v-82.377l-60.875 10.163z"/><path fill="#FFF" d="M150 204.364l-59.847-19.428a2.525 2.525 0 01-1.745-2.401v-88.18a2.524 2.524 0 013.303-2.401L150 110.877v93.487zm0 0l59.847-19.428a2.525 2.525 0 001.745-2.401v-88.18a2.524 2.524 0 00-3.303-2.401L150 110.877v93.487z"/><path fill="none" stroke="#EFEFEF" stroke-miterlimit="10" stroke-width=".654" d="M150 110.877v93.487"/><path fill="#CD4058" d="M148.747 143.359h-8.772v9.621h8.772v4.81l11.278-9.608-11.278-9.634z"/><circle cx="190.258" cy="150" r="26.355" fill="#CD4058"/><path fill="#FFF" d="M195.618 162.734h-2.211v-25.469h2.211c1.597 0 1.559-4.298 0-4.298h-10.726c-1.597 0-1.54 4.298 0 4.298h2.217v25.469h-2.217c-1.597 0-1.54 4.298 0 4.298h10.726c1.597 0 1.558-4.298 0-4.298z"/><circle cx="109.355" cy="150" r="26.355" fill="#CD4058" transform="rotate(-13.286 109.328 149.972)"/><path fill="#FFF" d="M95.278 150.023c0-8.87 5.56-16.497 16.13-16.497 3.998 0 7.169 1.194 10.523 4.09 1.24 1.149 1.377 3.171.137 4.456-1.24 1.104-3.124.965-4.228-.137-1.884-1.977-3.813-2.527-6.432-2.527-7.077 0-10.477 5.008-10.477 10.615 0 5.697 3.354 10.935 10.477 10.935 2.619 0 5.055-1.055 7.169-2.941 1.424-1.102 3.399-.55 4.226.552.735 1.012 1.104 2.711-.505 4.32-3.216 2.988-7.077 3.585-10.89 3.585-11.119 0-16.13-7.583-16.13-16.451z"/></svg>