<?xml version="1.0" encoding="utf-8"?>
<!-- Generator: Adobe Illustrator 23.0.6, SVG Export Plug-In . SVG Version: 6.00 Build 0)  -->
<svg version="1.0" id="Camada_1" xmlns="http://www.w3.org/2000/svg" xmlns:xlink="http://www.w3.org/1999/xlink" x="0px" y="0px"
	 viewBox="0 0 300 300" enable-background="new 0 0 300 300" xml:space="preserve">
<g>
	
		<ellipse transform="matrix(0.7071 -0.7071 0.7071 0.7071 -62.1321 149.9998)" fill="#FFFFFF" cx="150" cy="150" rx="149.532" ry="149.532"/>
	<circle fill="#FAE040" cx="150" cy="150" r="140.373"/>
	<g>
		<g>
			<path fill="#CD4058" d="M224.379,112.915h-66.786v1.595c0-1.19-0.962-2.139-2.139-2.139h-10.91c-1.177,0-2.138,0.949-2.138,2.139
				v-1.595H75.621c-1.392,0-2.531,1.139-2.531,2.531v90.338c0,1.379,1.139,2.518,2.518,2.518h66.798v-0.228
				c0,0.342,0.076,0.671,0.228,0.949c0.342,0.709,1.076,1.19,1.91,1.19h10.91c1.177,0,2.139-0.949,2.139-2.139v0.228h66.798
				c1.379,0,2.518-1.139,2.518-2.518v-90.338C226.91,114.055,225.771,112.915,224.379,112.915z"/>
			<path fill="#E56C86" d="M142.406,110.871v95.388H75.608c-1.379,0-2.518-1.139-2.518-2.519v-90.338
				c0-1.392,1.139-2.531,2.531-2.531H142.406z"/>
			<path fill="#E56C86" d="M157.593,110.871v95.388h66.798c1.379,0,2.518-1.139,2.518-2.519v-90.338
				c0-1.392-1.139-2.531-2.531-2.531H157.593z"/>
			<path fill="#F2F2F2" d="M157.593,110.871v1.595c0-1.19-0.962-2.139-2.139-2.139h-2.924h-5.062h-2.924
				c-1.177,0-2.139,0.949-2.139,2.139v-1.595H76.811v79.745c0,3.088,2.215,5.708,5.29,6.252l50.307,8.404l5.897,0.987h4.101v-0.228
				c0,0.342,0.076,0.671,0.228,0.949l4.834,0.806v0.384h2.303h0.456h2.303v-0.384l4.834-0.806c0.152-0.278,0.228-0.608,0.228-0.949
				v0.228h4.101l5.897-0.987l50.307-8.404c3.076-0.544,5.29-3.164,5.29-6.252v-79.745H157.593z"/>
			<path fill="#AA2D4B" d="M157.593,114.51v93.565c0,1.19-0.962,2.139-2.139,2.139h-10.91c-0.835,0-1.569-0.481-1.911-1.19
				c-0.152-0.278-0.228-0.608-0.228-0.949V114.51c0-1.19,0.962-2.139,2.139-2.139h10.91
				C156.632,112.371,157.593,113.32,157.593,114.51z"/>
			<path fill="#BC3753" d="M157.593,112.466v93.565c0,1.19-0.962,2.139-2.139,2.139h-10.91c-0.835,0-1.569-0.481-1.911-1.19
				c-0.152-0.278-0.228-0.608-0.228-0.949v-93.565c0-1.19,0.962-2.139,2.139-2.139h10.91
				C156.632,110.327,157.593,111.276,157.593,112.466z"/>
			<path fill="#EFEFEF" d="M150,110.871v93.489l-7.594-1.266l-9.365-1.569l-50.32-8.404c-1.227-0.215-2.113-1.266-2.113-2.506
				v-88.351c0-1.569,1.405-2.759,2.949-2.493l2.316,0.392l60.875,10.163L150,110.871z"/>
			<path fill="#EFEFEF" d="M150,110.871v93.489l7.594-1.266l9.365-1.569l50.32-8.404c1.227-0.215,2.113-1.266,2.113-2.506v-88.351
				c0-1.569-1.405-2.759-2.949-2.493l-2.316,0.392l-60.875,10.163L150,110.871z"/>
			<path fill="#F7F7F7" d="M153.252,110.327h-0.721h-5.062h-0.721l-60.875-10.163v82.377c0,2.189,1.405,4.126,3.493,4.809
				l43.676,14.175l9.365,3.037l5.062,1.645l2.531,0.823l2.531-0.823l5.062-1.645l9.365-3.037l43.676-14.175
				c2.088-0.683,3.493-2.62,3.493-4.809v-82.377L153.252,110.327z"/>
			<path fill="#FFFFFF" d="M150,204.364l-59.847-19.428c-1.04-0.338-1.745-1.307-1.745-2.401v-88.18c0-1.714,1.673-2.93,3.303-2.401
				L150,110.877V204.364z"/>
			<path fill="#FFFFFF" d="M150,204.364l59.847-19.428c1.04-0.338,1.745-1.307,1.745-2.401v-88.18c0-1.714-1.673-2.93-3.303-2.401
				L150,110.877V204.364z"/>
			<line fill="none" stroke="#EFEFEF" stroke-width="0.6542" stroke-miterlimit="10" x1="150" y1="110.877" x2="150" y2="204.364"/>
		</g>
	</g>
</g>
<polygon fill="#CD4058" points="148.747,143.359 139.975,143.359 139.975,152.98 148.747,152.98 148.747,157.79 160.025,148.182 
	148.747,138.548 "/>
<g>
	<circle fill="#CD4058" cx="190.258" cy="150" r="26.355"/>
	<path fill="#FFFFFF" d="M195.618,162.734h-2.211v-25.469h2.211c1.597,0,1.559-4.298,0-4.298h-10.726c-1.597,0-1.54,4.298,0,4.298
		h2.217v25.469h-2.217c-1.597,0-1.54,4.298,0,4.298h10.726C197.215,167.032,197.176,162.734,195.618,162.734z"/>
</g>
<g>
	
		<ellipse transform="matrix(0.9732 -0.2298 0.2298 0.9732 -31.5376 29.1373)" fill="#CD4058" cx="109.355" cy="150" rx="26.355" ry="26.355"/>
	<g>
		<path fill="#FFFFFF" d="M95.278,150.023c0-8.87,5.56-16.497,16.13-16.497c3.998,0,7.169,1.194,10.523,4.09
			c1.24,1.149,1.377,3.171,0.137,4.456c-1.24,1.104-3.124,0.965-4.228-0.137c-1.884-1.977-3.813-2.527-6.432-2.527
			c-7.077,0-10.477,5.008-10.477,10.615c0,5.697,3.354,10.935,10.477,10.935c2.619,0,5.055-1.055,7.169-2.941
			c1.424-1.102,3.399-0.55,4.226,0.552c0.735,1.012,1.104,2.711-0.505,4.32c-3.216,2.988-7.077,3.585-10.89,3.585
			C100.289,166.474,95.278,158.891,95.278,150.023z"/>
	</g>
</g>
</svg>
