<?xml version="1.0" encoding="utf-8"?>
<!-- Generator: Adobe Illustrator 23.0.6, SVG Export Plug-In . SVG Version: 6.00 Build 0)  -->
<svg version="1.0" id="Camada_1" xmlns="http://www.w3.org/2000/svg" xmlns:xlink="http://www.w3.org/1999/xlink" x="0px" y="0px"
	 viewBox="0 0 300 300" enable-background="new 0 0 300 300" xml:space="preserve">
<ellipse fill="#FFFFFF" cx="150" cy="150" rx="150" ry="150"/>
<circle fill="#EB595B" cx="150" cy="150" r="140.8"/>
<g>
	<g>
		<g>
			<g>
				<g>
					<path fill="#EFEFEF" d="M96.815,150.86l-0.3-5.2c0-0.2-0.1-0.3-0.2-0.3h-1.6c-0.1,0-0.2,0.1-0.2,0.3l-0.3,5.2
						c0,0.2,0.1,0.3,0.2,0.3l0,0c0.1,0,0.3,0.1,0.3,0.3v25.4c0,0.2,0.1,0.3,0.3,0.3h1.1c0.1,0,0.3-0.1,0.3-0.3v-25.4
						c0-0.2,0.1-0.3,0.3-0.3l0,0C96.715,151.16,96.815,150.96,96.815,150.86z"/>
					<path fill="#C9C9C9" d="M95.315,175.36c0.1-0.1,0.1-0.2,0.1-0.3v-24.3c0,0-0.1-0.3-0.3-0.3c-0.1,0-0.1-0.2-0.1-0.3l0.2-4.1
						l-0.5,0.1l-0.2,4.4c0,0.1,0,0.2,0.2,0.2s0.3,0,0.3,0.3c0,0.4,0,24.6,0,24.6S95.215,175.46,95.315,175.36z"/>
				</g>
				<path fill="#FFB031" d="M100.515,206.56v-16.2c0-2.5-0.5-5.1-1.4-7.4l-1.5-4h1c0.4,0,0.8-0.4,0.8-0.8l-1.2-1.5
					c0-0.4,0.1,0-0.3,0l-4.3,0.2c-0.4,0-1.7-0.3-1.7,0.1v1.2c0,0.4,0.4,0.8,0.8,0.8h0.6l-1.5,4c-0.9,2.4-1.4,4.9-1.4,7.4v16.7l0,0
					c0,2.8,2.3,5,5.1,5c2.8,0,5.1-2.3,5.1-5.1C100.515,206.86,100.515,206.66,100.515,206.56z M96.615,201.16c0,0.6-0.5,1.1-1.1,1.1
					s-1.1-0.5-1.1-1.1v-2.8c0-0.6,0.5-1.1,1.1-1.1s1.1,0.5,1.1,1.1V201.16z"/>
				<ellipse fill="#FFB031" cx="95.615" cy="179.06" rx="4.3" ry="0.9"/>
				<path fill="#FFB031" d="M91.315,179.06v-3c0,0,1-1.4,4.1-1.4s4.5,1.2,4.5,1.2l0.1,3.2"/>
				<path fill="#F2A12C" d="M95.515,212.16v-9.8c0,0-1.1,0-1.1-1.1v-2.8c0,0-0.1-1,1.1-1.1v-22.6c0,0-3-0.3-4.2,1.4v3
					c0,0,0,0.5,1.7,0.7c0,0-2.7,5.7-2.6,10.6v16.7C90.415,207.16,90.415,211.86,95.515,212.16z"/>
			</g>
			<ellipse fill="#E59623" cx="95.515" cy="209.96" rx="3" ry="1.8"/>
		</g>
		<g>
			<g>
				<g>
					<path fill="#EFEFEF" d="M116.215,137.36l-0.3-6.3c0-0.2-0.1-0.3-0.3-0.3h-1.9c-0.2,0-0.3,0.2-0.3,0.3l-0.3,6.3
						c0,0.2,0.1,0.4,0.3,0.4l0,0c0.2,0,0.3,0.2,0.3,0.4v31c0,0.2,0.1,0.4,0.3,0.4h1.4c0.2,0,0.3-0.2,0.3-0.4v-31
						c0-0.2,0.1-0.4,0.3-0.4l0,0C116.115,137.76,116.215,137.56,116.215,137.36z"/>
					<path fill="#C9C9C9" d="M114.315,167.36c0.1-0.1,0.2-0.2,0.2-0.4v-29.7c0,0-0.1-0.4-0.3-0.4c-0.2,0-0.1-0.2-0.1-0.4l0.2-5
						l-0.6,0.2l-0.3,5.3c0,0.2,0.1,0.2,0.2,0.2c0.2,0,0.4,0,0.4,0.3c0,0.5,0,30,0,30S114.215,167.46,114.315,167.36z"/>
				</g>
				<path fill="#FFB031" d="M120.715,205.26v-19.7c0-3.1-0.6-6.2-1.7-9.1l-1.9-4.9h1.2c0.5,0,1-0.4,1-1l-1.4-1.8c0-0.6,0.1,0-0.4,0
					l-5.2,0.3c-0.5,0-2.1-0.4-2.1,0.2v1.4c0,0.5,0.4,1,1,1h0.8l-1.9,4.9c-1.1,2.9-1.7,6-1.7,9.1v20.4l0,0c0,3.4,2.8,6.1,6.2,6.1
					c3.4,0,6.2-2.8,6.2-6.2C120.815,205.76,120.715,205.46,120.715,205.26z M115.915,198.76c0,0.8-0.6,1.4-1.4,1.4s-1.4-0.6-1.4-1.4
					v-3.4c0-0.8,0.6-1.4,1.4-1.4s1.4,0.6,1.4,1.4V198.76z"/>
				<ellipse fill="#FFB031" cx="114.715" cy="171.76" rx="5.3" ry="1.2"/>
				<path fill="#FFB031" d="M109.515,171.76v-3.6c0,0,1.2-1.8,5-1.7s5.5,1.5,5.5,1.5l0.1,3.8"/>
				<path fill="#F2A12C" d="M114.615,212.16v-12c0,0-1.3,0.1-1.4-1.4v-3.4c0,0-0.1-1.2,1.4-1.4v-27.6c0,0-3.6-0.3-5.1,1.7v3.7
					c0,0,0,0.6,2.1,0.9c0,0-3.3,7-3.1,12.9v20.4C108.415,205.96,108.415,211.76,114.615,212.16z"/>
			</g>
			<ellipse fill="#E59623" cx="114.615" cy="209.96" rx="3" ry="1.8"/>
		</g>
		<g>
			<g>
				<g>
					<path fill="#EFEFEF" d="M138.615,116.46l-0.4-8.1c0-0.3-0.2-0.4-0.4-0.4h-2.5c-0.2,0-0.4,0.2-0.4,0.4l-0.4,8.1
						c0,0.3,0.2,0.5,0.4,0.5l0,0c0.2,0,0.4,0.2,0.4,0.5v39.6c0,0.3,0.2,0.5,0.4,0.5h1.7c0.2,0,0.4-0.2,0.4-0.5v-39.6
						c0-0.3,0.2-0.5,0.4-0.5l0,0C138.515,116.96,138.615,116.76,138.615,116.46z"/>
					<path fill="#C9C9C9" d="M136.215,154.86c0.1-0.1,0.2-0.3,0.2-0.4v-38c0,0-0.1-0.5-0.4-0.5c-0.2,0-0.1-0.3-0.1-0.5l0.3-6.4
						l-0.7,0.2l-0.4,6.8c0,0.2,0.1,0.3,0.3,0.3s0.5,0,0.5,0.4c0.1,0.7,0,38.4,0,38.4S136.115,155.06,136.215,154.86z"/>
				</g>
				<path fill="#FFB031" d="M144.415,203.36v-25.2c0-4-0.7-7.9-2.1-11.6l-2.4-6.2h1.5c0.7,0,1.3-0.6,1.3-1.3l-1.8-2.3
					c0-0.7,0.2,0-0.5,0l-6.7,0.3c-0.7,0-2.7-0.5-2.7,0.2v1.8c0,0.7,0.6,1.3,1.3,1.3h1l-2.4,6.2c-1.4,3.7-2.1,7.6-2.1,11.6v26.1l0,0
					c0.1,4.3,3.6,7.8,7.9,7.8c4.4,0,7.9-3.5,7.9-7.9C144.515,203.96,144.415,203.66,144.415,203.36z M138.315,195.06
					c0,1-0.8,1.7-1.7,1.7s-1.7-0.8-1.7-1.7v-4.4c0-1,0.8-1.7,1.7-1.7s1.7,0.8,1.7,1.7V195.06z"/>
				<ellipse fill="#FFB031" cx="136.815" cy="160.46" rx="6.8" ry="1.5"/>
				<path fill="#FFB031" d="M130.015,160.46v-4.7c0,0,1.5-2.3,6.3-2.2c4.8,0.1,7.1,1.9,7.1,1.9l0.1,4.9"/>
				<path fill="#F2A12C" d="M136.615,212.16v-15.3c0,0-1.6,0.1-1.7-1.7v-4.4c0,0-0.1-1.5,1.7-1.7v-35.3c0,0-4.7-0.4-6.5,2.2v4.7
					c0,0,0,0.8,2.6,1.1c0,0-4.2,8.9-4,16.5v26.1C128.615,204.26,128.715,211.66,136.615,212.16z"/>
			</g>
			<ellipse fill="#E59623" cx="136.615" cy="209.96" rx="3" ry="1.8"/>
		</g>
	</g>
	<g>
		<path fill="#DBA658" d="M204.291,178.163c-1.655-3.099-1.973-6.869-0.593-10.121c1.386-3.269,2.152-6.88,2.155-10.618
			c0.002-2.334,0-7.378,0-7.378s-4.18-1.4-5.492,0.402c-2.109,2.898-3.653,5.151-8.099,5.151c-5.432,0-8.149-6.367-9.568-10.879
			c-0.626-1.988-0.311-5.69-0.311-5.69c-0.456,0.005-0.687,0.009-1.137,0.014c0,0-1.091,10.661-8.238,10.661
			c-3.103,0-4.878-2.128-5.867-4.537c-1.07-2.609-8.674,4.854-8.674,4.854s0,2.266,0,7.378c0,3.774,0.767,7.356,2.14,10.576
			c1.396,3.274,1.097,7.069-0.57,10.193c-1.653,3.098-5.305,5.779-5.305,5.779s0,5.403,0,7.378
			c0.003,15.56,14.054,20.831,27.428,20.831c12.189,0,27.428-5.271,27.428-20.831c0-1.851,0-7.378,0-7.378
			S206.078,181.511,204.291,178.163L204.291,178.163z"/>
		<path fill="#DBA658" d="M186.874,99.452c1.283-0.859,2.122-2.375,2.122-4.118c0-0.994-0.016-3.039-0.016-3.039
			s-2.901-1.824-4.527-1.824c-2.057,0-3.87,1.391-4.497,3.31c-0.006-0.005-0.01-0.009-0.017-0.014
			c-1.901,5.743-2.808,8.614-4.615,14.357v2.043c0,1.007,0.228,1.905,1.033,2.307c0.371,0.185,0.557,0.277,0.931,0.462
			c0.5,0.247,1.046,0.376,1.607,0.376h7.562c0.364,0,0.657-0.315,0.657-0.704c0-0.184,0-0.277,0-0.46
			c0-0.149,0.074-0.287,0.193-0.362c0.488-0.306,0.73-0.459,1.213-0.765c0.286-0.181,0.382-0.53,0.382-0.902c0-0.98,0-1.47,0-2.451
			C188.096,104.383,187.692,102.739,186.874,99.452z"/>
		<path fill="#FFCD7D" d="M186.874,96.821c1.589-1.063,2.502-3.138,1.971-5.4c-0.392-1.668-1.63-3.014-3.21-3.427
			c-2.516-0.659-4.934,0.875-5.679,3.156c-0.006-0.005-0.01-0.009-0.017-0.014c-1.87,6.56-2.763,9.84-4.541,16.4
			c-0.25,0.922,0.156,1.905,0.961,2.307c0.211,0.105,0.316,0.158,0.527,0.263c0.762,0.379,1.599,0.575,2.463,0.575h7.108
			c0.364,0,0.657-0.315,0.657-0.704c0-0.184,0-0.276,0-0.46c0-0.149,0.074-0.287,0.193-0.362c0.488-0.306,0.73-0.459,1.213-0.765
			c0.286-0.181,0.432-0.541,0.367-0.893C188.086,103.227,187.686,101.092,186.874,96.821L186.874,96.821z"/>
		<path fill="#FFCD7D" d="M204.291,170.785c-1.654-3.1-1.581-6.73-0.593-10.121c1.022-3.505,2.152-6.88,2.155-10.618
			c0.002-2.334-0.704-6.106-3.718-6.106c-4.314,0-4.822,4.282-8.935,4.282c-5.432,0-9.087-6.367-10.507-10.879
			c-0.626-1.988-0.311-5.69-0.311-5.69c-0.456,0.005-0.687,0.009-1.137,0.014c0,0-1.091,10.661-8.238,10.661
			c-3.103,0-4.878-2.128-5.867-4.537c-1.07-2.609-4.436-2.82-5.69-0.307c-1.585,3.176-2.984,7.428-2.984,12.539
			c0,3.774,1,7.331,2.14,10.576c1.18,3.358,1.097,7.069-0.57,10.193c-3.822,7.167-5.305,9.678-5.305,13.157
			c0.003,15.56,14.054,20.831,27.428,20.831c12.189,0,27.428-5.271,27.428-20.831C209.588,180.473,208.111,177.941,204.291,170.785z
			"/>
		<path fill="#FFEEF0" d="M182.16,146.504c0,0,6.638,4.326,11.465,4.326c4.335,0,5.413-4.274,7.627-4.274
			c1.947,0,2.415,2.021,2.415,3.628c0,4.471-3.179,9.711-3.179,15.102s6.44,13.049,6.44,18.84c0,6.52-2.88,10.113-7.29,11.773
			c-8.472,3.189-13.372-12.546-17.479-14.417c-3.364-1.532-11.568,4.683-13.892,2.186c-4.671-5.017,4.227-13.685,4.227-20.642
			c0-5.827-5.642-10.863-1.821-15.044C173.653,144.721,182.16,146.504,182.16,146.504L182.16,146.504z"/>
		<path fill="#DBC8CC" d="M188.736,162.104c-5.071,0-8.081,0-13.152,0c-0.264,0-0.478-0.234-0.478-0.522c0-3.074,0-4.611,0-7.685
			c0-0.288,0.214-0.522,0.478-0.522h13.152c0.264,0,0.478,0.234,0.478,0.522v7.685C189.213,161.87,189,162.104,188.736,162.104z"/>
		<path fill="#F2DADE" d="M188.736,160.891c-5.071,0-8.081,0-13.152,0c-0.264,0-0.478-0.234-0.478-0.522c0-3.074,0-4.611,0-7.685
			c0-0.288,0.214-0.522,0.478-0.522h13.152c0.264,0,0.478,0.234,0.478,0.522v7.685C189.213,160.657,189,160.891,188.736,160.891z"/>
		<path fill="#FFE7C5" d="M185.979,112.793v43.024c0,0.397-0.168,0.709-0.383,0.709c-2.678,0-4.195,0-6.873,0
			c-0.215,0-0.383-0.313-0.383-0.709c0-13.555,0-29.469,0-43.024c0-0.386,0.168-0.709,0.383-0.709h6.873
			C185.811,112.083,185.979,112.407,185.979,112.793z"/>
		<path fill="#E0E0E0" d="M185.979,112.793v2.358c-2.969,0-4.668,0-7.638,0c0-0.943,0-1.415,0-2.358
			c0-0.386,0.168-0.709,0.383-0.709h6.873C185.811,112.083,185.979,112.407,185.979,112.793z"/>
		<path fill="#DBC8CC" d="M189.197,185.311c-5.425,0-8.65,0-14.075,0c-1.104,0-1.99-0.979-1.99-2.187c0-0.658,0-0.985,0-1.643
			h18.055v1.643C191.188,184.332,190.301,185.311,189.197,185.311z"/>
		<path fill="#DBC8CC" d="M187.659,171.248c-4.248,0-6.75,0-10.997,0c-0.864,0-1.554-0.758-1.554-1.693c0-0.404,0-0.606,0-1.011
			h14.107v1.011C189.213,170.49,188.523,171.248,187.659,171.248z"/>
		<path fill="#F2DADE" d="M187.659,170.237c-4.248,0-6.75,0-10.997,0c-0.864,0-1.554-0.758-1.554-1.693s0.691-1.693,1.554-1.693
			h10.997c0.864,0,1.554,0.758,1.554,1.693C189.213,169.479,188.523,170.237,187.659,170.237z"/>
		<path fill="#F2DADE" d="M189.197,183.668c-5.425,0-8.65,0-14.075,0c-1.104,0-1.99-0.979-1.99-2.186
			c0-1.208,0.887-2.187,1.99-2.187h14.075c1.104,0,1.99,0.979,1.99,2.187C191.188,182.689,190.301,183.668,189.197,183.668z"/>
		<circle fill="#DBC8CC" cx="197.679" cy="181.484" r="2.32"/>
		<path fill="#4F4F4F" d="M199.529,181.01v0.474c0,1.022-0.829,1.85-1.85,1.85s-1.85-0.829-1.85-1.85v-0.474
			c0-0.362,0.104-0.701,0.286-0.987h0.431c0.314-0.244,0.706-0.39,1.132-0.39c0.427,0,0.819,0.146,1.132,0.39h0.431
			C199.425,180.31,199.529,180.648,199.529,181.01L199.529,181.01z"/>
		<path fill="#686868" d="M199.529,181.01c0,1.022-0.829,1.85-1.85,1.85s-1.85-0.829-1.85-1.85c0-0.362,0.104-0.701,0.286-0.987
			c0.325-0.518,0.905-0.864,1.565-0.864c0.658,0,1.238,0.345,1.565,0.864C199.425,180.31,199.529,180.648,199.529,181.01z"/>
		<circle fill="#DBC8CC" cx="195.358" cy="175.11" r="2.32"/>
		<path fill="#4F4F4F" d="M197.209,174.636v0.474c0,1.022-0.829,1.85-1.85,1.85s-1.85-0.829-1.85-1.85v-0.474
			c0-0.362,0.104-0.701,0.286-0.987h0.431c0.314-0.244,0.706-0.39,1.132-0.39c0.427,0,0.819,0.146,1.132,0.39h0.431
			C197.105,173.935,197.209,174.274,197.209,174.636L197.209,174.636z"/>
		<path fill="#686868" d="M197.209,174.636c0,1.022-0.829,1.85-1.85,1.85s-1.85-0.829-1.85-1.85c0-0.362,0.104-0.701,0.286-0.987
			c0.325-0.518,0.905-0.864,1.565-0.864c0.658,0,1.238,0.345,1.565,0.864C197.105,173.935,197.209,174.274,197.209,174.636
			L197.209,174.636z"/>
		<circle fill="#DBC8CC" cx="199.999" cy="187.857" r="2.32"/>
		<path fill="#4F4F4F" d="M201.85,187.384v0.474c0,1.022-0.829,1.85-1.85,1.85c-1.022,0-1.85-0.829-1.85-1.85v-0.474
			c0-0.362,0.104-0.701,0.286-0.987h0.431c0.314-0.244,0.706-0.39,1.132-0.39c0.427,0,0.819,0.146,1.132,0.39h0.431
			C201.746,186.683,201.85,187.021,201.85,187.384L201.85,187.384z"/>
		<path fill="#686868" d="M201.85,187.384c0,1.022-0.829,1.85-1.85,1.85c-1.022,0-1.85-0.829-1.85-1.85
			c0-0.362,0.104-0.701,0.286-0.987c0.325-0.518,0.905-0.864,1.565-0.864c0.658,0,1.238,0.345,1.565,0.864
			C201.746,186.683,201.85,187.021,201.85,187.384z"/>
		<g>
			<path fill="none" stroke="#3F3F3F" stroke-width="0.75" stroke-linecap="round" stroke-miterlimit="10" d="M180.127,181.482
				c0-25.824,0-54.005,0-79.829"/>
			<path fill="none" stroke="#3F3F3F" stroke-width="0.75" stroke-linecap="round" stroke-miterlimit="10" d="M182.16,181.482
				c0-25.824,0-60.363,0-86.187"/>
			<path fill="none" stroke="#3F3F3F" stroke-width="0.75" stroke-linecap="round" stroke-miterlimit="10" d="M184.193,181.482
				c0-25.824,0-49.69,0-75.514"/>
		</g>
	</g>
</g>
</svg>
