<?xml version="1.0" encoding="utf-8"?>
<!-- Generator: Adobe Illustrator 23.0.6, SVG Export Plug-In . SVG Version: 6.00 Build 0)  -->
<svg version="1.0" id="Camada_1" xmlns="http://www.w3.org/2000/svg" xmlns:xlink="http://www.w3.org/1999/xlink" x="0px" y="0px"
	 viewBox="0 0 300 300" enable-background="new 0 0 300 300" xml:space="preserve">
<ellipse fill="#FFFFFF" cx="148.66" cy="150" rx="150" ry="150"/>
<circle fill="#EB595B" cx="148.66" cy="150" r="140.8"/>
<g>
	<g>
		<g>
			<g>
				<path fill="#EFEFEF" d="M97.08,147.3l-0.3-5.2c0-0.2-0.1-0.3-0.2-0.3h-1.6c-0.1,0-0.2,0.1-0.2,0.3l-0.3,5.2
					c0,0.2,0.1,0.3,0.2,0.3l0,0c0.1,0,0.3,0.1,0.3,0.3v25.4c0,0.2,0.1,0.3,0.3,0.3h1.1c0.1,0,0.3-0.1,0.3-0.3v-25.4
					c0-0.2,0.1-0.3,0.3-0.3l0,0C96.98,147.6,97.08,147.4,97.08,147.3z"/>
				<path fill="#C9C9C9" d="M95.58,171.8c0.1-0.1,0.1-0.2,0.1-0.3v-24.3c0,0-0.1-0.3-0.3-0.3c-0.1,0-0.1-0.2-0.1-0.3l0.2-4.1
					l-0.5,0.1l-0.2,4.4c0,0.1,0,0.2,0.2,0.2s0.3,0,0.3,0.3c0,0.4,0,24.6,0,24.6S95.48,171.9,95.58,171.8z"/>
			</g>
			<path fill="#FFB031" d="M100.78,203v-16.2c0-2.5-0.5-5.1-1.4-7.4l-1.5-4h1c0.4,0,0.8-0.4,0.8-0.8l-1.2-1.5c0-0.4,0.1,0-0.3,0
				l-4.3,0.2c-0.4,0-1.7-0.3-1.7,0.1v1.2c0,0.4,0.4,0.8,0.8,0.8h0.6l-1.5,4c-0.9,2.4-1.4,4.9-1.4,7.4v16.7l0,0c0,2.8,2.3,5,5.1,5
				c2.8,0,5.1-2.3,5.1-5.1C100.78,203.3,100.78,203.1,100.78,203z M96.88,197.6c0,0.6-0.5,1.1-1.1,1.1s-1.1-0.5-1.1-1.1v-2.8
				c0-0.6,0.5-1.1,1.1-1.1s1.1,0.5,1.1,1.1V197.6z"/>
			<ellipse fill="#FFB031" cx="95.88" cy="175.5" rx="4.3" ry="0.9"/>
			<path fill="#FFB031" d="M91.58,175.5v-3c0,0,1-1.4,4.1-1.4s4.5,1.2,4.5,1.2l0.1,3.2"/>
			<path fill="#F2A12C" d="M95.78,208.6v-9.8c0,0-1.1,0-1.1-1.1v-2.8c0,0-0.1-1,1.1-1.1v-22.6c0,0-3-0.3-4.2,1.4v3
				c0,0,0,0.5,1.7,0.7c0,0-2.7,5.7-2.6,10.6v16.7C90.68,203.6,90.68,208.3,95.78,208.6z"/>
		</g>
		<ellipse fill="#E59623" cx="95.78" cy="206.4" rx="3" ry="1.8"/>
	</g>
	<g>
		<g>
			<g>
				<path fill="#EFEFEF" d="M116.48,133.8l-0.3-6.3c0-0.2-0.1-0.3-0.3-0.3h-1.9c-0.2,0-0.3,0.2-0.3,0.3l-0.3,6.3
					c0,0.2,0.1,0.4,0.3,0.4l0,0c0.2,0,0.3,0.2,0.3,0.4v31c0,0.2,0.1,0.4,0.3,0.4h1.4c0.2,0,0.3-0.2,0.3-0.4v-31
					c0-0.2,0.1-0.4,0.3-0.4l0,0C116.38,134.2,116.48,134,116.48,133.8z"/>
				<path fill="#C9C9C9" d="M114.58,163.8c0.1-0.1,0.2-0.2,0.2-0.4v-29.7c0,0-0.1-0.4-0.3-0.4c-0.2,0-0.1-0.2-0.1-0.4l0.2-5
					l-0.6,0.2l-0.3,5.3c0,0.2,0.1,0.2,0.2,0.2c0.2,0,0.4,0,0.4,0.3c0,0.5,0,30,0,30S114.48,163.9,114.58,163.8z"/>
			</g>
			<path fill="#FFB031" d="M120.98,201.7V182c0-3.1-0.6-6.2-1.7-9.1l-1.9-4.9h1.2c0.5,0,1-0.4,1-1l-1.4-1.8c0-0.6,0.1,0-0.4,0
				l-5.2,0.3c-0.5,0-2.1-0.4-2.1,0.2v1.4c0,0.5,0.4,1,1,1h0.8l-1.9,4.9c-1.1,2.9-1.7,6-1.7,9.1v20.4l0,0c0,3.4,2.8,6.1,6.2,6.1
				c3.4,0,6.2-2.8,6.2-6.2C121.08,202.2,120.98,201.9,120.98,201.7z M116.18,195.2c0,0.8-0.6,1.4-1.4,1.4s-1.4-0.6-1.4-1.4v-3.4
				c0-0.8,0.6-1.4,1.4-1.4s1.4,0.6,1.4,1.4V195.2z"/>
			<ellipse fill="#FFB031" cx="114.98" cy="168.2" rx="5.3" ry="1.2"/>
			<path fill="#FFB031" d="M109.78,168.2v-3.6c0,0,1.2-1.8,5-1.7s5.5,1.5,5.5,1.5l0.1,3.8"/>
			<path fill="#F2A12C" d="M114.88,208.6v-12c0,0-1.3,0.1-1.4-1.4v-3.4c0,0-0.1-1.2,1.4-1.4v-27.6c0,0-3.6-0.3-5.1,1.7v3.7
				c0,0,0,0.6,2.1,0.9c0,0-3.3,7-3.1,12.9v20.4C108.68,202.4,108.68,208.2,114.88,208.6z"/>
		</g>
		<ellipse fill="#E59623" cx="114.88" cy="206.4" rx="3" ry="1.8"/>
	</g>
	<g>
		<g>
			<g>
				<path fill="#EFEFEF" d="M138.88,112.9l-0.4-8.1c0-0.3-0.2-0.4-0.4-0.4h-2.5c-0.2,0-0.4,0.2-0.4,0.4l-0.4,8.1
					c0,0.3,0.2,0.5,0.4,0.5l0,0c0.2,0,0.4,0.2,0.4,0.5v39.6c0,0.3,0.2,0.5,0.4,0.5h1.7c0.2,0,0.4-0.2,0.4-0.5v-39.6
					c0-0.3,0.2-0.5,0.4-0.5l0,0C138.78,113.4,138.88,113.2,138.88,112.9z"/>
				<path fill="#C9C9C9" d="M136.48,151.3c0.1-0.1,0.2-0.3,0.2-0.4v-38c0,0-0.1-0.5-0.4-0.5c-0.2,0-0.1-0.3-0.1-0.5l0.3-6.4
					l-0.7,0.2l-0.4,6.8c0,0.2,0.1,0.3,0.3,0.3s0.5,0,0.5,0.4c0.1,0.7,0,38.4,0,38.4S136.38,151.5,136.48,151.3z"/>
			</g>
			<path fill="#FFB031" d="M144.68,199.8v-25.2c0-4-0.7-7.9-2.1-11.6l-2.4-6.2h1.5c0.7,0,1.3-0.6,1.3-1.3l-1.8-2.3
				c0-0.7,0.2,0-0.5,0l-6.7,0.3c-0.7,0-2.7-0.5-2.7,0.2v1.8c0,0.7,0.6,1.3,1.3,1.3h1l-2.4,6.2c-1.4,3.7-2.1,7.6-2.1,11.6v26.1l0,0
				c0.1,4.3,3.6,7.8,7.9,7.8c4.4,0,7.9-3.5,7.9-7.9C144.78,200.4,144.68,200.1,144.68,199.8z M138.58,191.5c0,1-0.8,1.7-1.7,1.7
				s-1.7-0.8-1.7-1.7v-4.4c0-1,0.8-1.7,1.7-1.7s1.7,0.8,1.7,1.7V191.5z"/>
			<ellipse fill="#FFB031" cx="137.08" cy="156.9" rx="6.8" ry="1.5"/>
			<path fill="#FFB031" d="M130.28,156.9v-4.7c0,0,1.5-2.3,6.3-2.2c4.8,0.1,7.1,1.9,7.1,1.9l0.1,4.9"/>
			<path fill="#F2A12C" d="M136.88,208.6v-15.3c0,0-1.6,0.1-1.7-1.7v-4.4c0,0-0.1-1.5,1.7-1.7v-35.3c0,0-4.7-0.4-6.5,2.2v4.7
				c0,0,0,0.8,2.6,1.1c0,0-4.2,8.9-4,16.5v26.1C128.88,200.7,128.98,208.1,136.88,208.6z"/>
		</g>
		<ellipse fill="#E59623" cx="136.88" cy="206.4" rx="3" ry="1.8"/>
	</g>
	<g>
		<path fill="#962C2C" d="M201.431,177.704c-1.628-3.049-1.94-6.757-0.583-9.955c1.364-3.216,2.117-6.768,2.12-10.445
			c0.002-2.297,0-7.258,0-7.258s-4.112-1.376-5.402,0.396c-2.075,2.851-3.593,5.068-7.967,5.068c-5.343,0-8.016-6.263-9.412-10.701
			c-0.616-1.956-0.305-5.597-0.305-5.597c-0.449,0.005-0.676,0.008-1.119,0.014c0,0-1.074,10.487-8.104,10.487
			c-3.052,0-4.798-2.094-5.771-4.463c-1.053-2.566-8.533,4.775-8.533,4.775s0,2.229,0,7.258c0,3.713,0.754,7.236,2.105,10.404
			c1.373,3.22,1.079,6.954-0.561,10.027c-1.626,3.048-5.219,5.685-5.219,5.685s0,5.315,0,7.258
			c0.003,15.306,13.825,20.491,26.981,20.491c11.99,0,26.981-5.185,26.981-20.491c0-1.821,0-7.258,0-7.258
			S203.189,180.997,201.431,177.704z"/>
		<path fill="#EAC28C" d="M184.298,100.276c1.262-0.845,2.087-2.337,2.087-4.051c0-0.978-0.016-2.99-0.016-2.99
			s-2.854-1.794-4.453-1.794c-2.024,0-3.807,1.368-4.423,3.256c-0.006-0.005-0.01-0.008-0.017-0.014
			c-1.87,5.649-2.762,8.474-4.539,14.124c0,0.804,0,1.206,0,2.01c0,0.991,0.225,1.875,1.017,2.27
			c0.365,0.182,0.548,0.273,0.916,0.455c0.491,0.243,1.029,0.369,1.581,0.369c2.914,0,4.562,0,7.438,0
			c0.358,0,0.646-0.31,0.646-0.693c0-0.181,0-0.272,0-0.453c0-0.147,0.072-0.282,0.189-0.356c0.48-0.301,0.718-0.452,1.193-0.753
			c0.281-0.178,0.376-0.521,0.376-0.886c0-0.964,0-1.446,0-2.41C185.501,105.126,185.103,103.509,184.298,100.276z"/>
		<path fill="#FFD9A1" d="M184.298,97.688c1.563-1.046,2.462-3.086,1.939-5.312c-0.385-1.641-1.603-2.965-3.158-3.372
			c-2.476-0.648-4.854,0.861-5.586,3.105c-0.006-0.005-0.01-0.008-0.017-0.014c-1.839,6.453-2.719,9.68-4.467,16.133
			c-0.246,0.907,0.153,1.875,0.945,2.27c0.207,0.104,0.311,0.155,0.519,0.259c0.75,0.372,1.573,0.565,2.423,0.565
			c2.753,0,4.292,0,6.992,0c0.358,0,0.646-0.31,0.646-0.693c0-0.181,0-0.271,0-0.453c0-0.147,0.072-0.282,0.189-0.356
			c0.48-0.301,0.718-0.452,1.193-0.753c0.281-0.178,0.425-0.531,0.361-0.878C185.491,103.989,185.097,101.889,184.298,97.688z"/>
		<path fill="#B53E3E" d="M201.431,170.446c-1.628-3.049-1.555-6.62-0.583-9.955c1.005-3.449,2.117-6.768,2.12-10.445
			c0.002-2.297-0.693-6.007-3.657-6.007c-4.244,0-4.744,4.212-8.789,4.212c-5.343,0-8.939-6.263-10.336-10.701
			c-0.616-1.956-0.305-5.597-0.305-5.597c-0.449,0.005-0.676,0.008-1.119,0.014c0,0-1.074,10.487-8.104,10.487
			c-3.052,0-4.798-2.094-5.771-4.463c-1.053-2.566-4.364-2.774-5.597-0.302c-1.559,3.124-2.936,7.306-2.936,12.335
			c0,3.713,0.984,7.211,2.105,10.404c1.16,3.303,1.079,6.954-0.561,10.027c-3.76,7.05-5.219,9.521-5.219,12.943
			c0.003,15.306,13.825,20.491,26.981,20.491c11.99,0,26.981-5.185,26.981-20.491C206.642,179.976,205.189,177.485,201.431,170.446z
			"/>
		<path fill="#FFEEF0" d="M179.661,146.561c0,0,6.529,4.256,11.278,4.256c4.264,0,5.325-4.204,7.502-4.204
			c1.916,0,2.375,1.988,2.375,3.568c0,4.398-3.127,9.552-3.127,14.856s6.335,12.836,6.335,18.533c0,6.414-2.834,9.948-7.171,11.581
			c-8.334,3.138-13.154-12.342-17.193-14.182c-3.309-1.507-11.38,4.606-13.666,2.151c-4.595-4.936,4.158-13.462,4.158-20.306
			c0-5.732-5.55-10.686-1.792-14.799C171.294,144.807,179.661,146.561,179.661,146.561z"/>
		<path fill="#DBC8CC" d="M186.13,161.906c-4.988,0-7.95,0-12.938,0c-0.26,0-0.47-0.23-0.47-0.513c0-3.024,0-4.536,0-7.559
			c0-0.284,0.21-0.514,0.47-0.514c4.988,0,7.95,0,12.938,0c0.26,0,0.47,0.23,0.47,0.514c0,3.024,0,4.536,0,7.559
			C186.6,161.676,186.39,161.906,186.13,161.906z"/>
		<path fill="#F2DADE" d="M186.13,160.713c-4.988,0-7.95,0-12.938,0c-0.26,0-0.47-0.23-0.47-0.513c0-3.024,0-4.536,0-7.559
			c0-0.284,0.21-0.514,0.47-0.514c4.988,0,7.95,0,12.938,0c0.26,0,0.47,0.23,0.47,0.514c0,3.024,0,4.536,0,7.559
			C186.6,160.483,186.39,160.713,186.13,160.713z"/>
		<path fill="#565656" d="M183.418,113.399c0,13.334,0,28.988,0,42.323c0,0.39-0.166,0.698-0.376,0.698c-2.634,0-4.126,0-6.761,0
			c-0.211,0-0.376-0.308-0.376-0.698c0-13.334,0-28.988,0-42.323c0-0.38,0.166-0.698,0.376-0.698c2.634,0,4.126,0,6.761,0
			C183.253,112.701,183.418,113.019,183.418,113.399z"/>
		<path fill="#4C4C4C" d="M183.418,113.399c0,0.928,0,1.392,0,2.32c-2.921,0-4.592,0-7.514,0c0-0.928,0-1.392,0-2.32
			c0-0.38,0.166-0.698,0.376-0.698c2.634,0,4.126,0,6.761,0C183.253,112.701,183.418,113.019,183.418,113.399z"/>
		<path fill="#4C4C4C" d="M186.584,184.736c-5.337,0-8.509,0-13.846,0c-1.085,0-1.958-0.963-1.958-2.151c0-0.646,0-0.969,0-1.616
			c6.868,0,10.893,0,17.761,0c0,0.646,0,0.969,0,1.616C188.542,183.773,187.67,184.736,186.584,184.736z"/>
		<path fill="#DBC8CC" d="M185.07,170.901c-4.179,0-6.64,0-10.818,0c-0.85,0-1.529-0.746-1.529-1.666c0-0.398,0-0.597,0-0.994
			c5.349,0,8.528,0,13.877,0c0,0.398,0,0.597,0,0.994C186.6,170.156,185.92,170.901,185.07,170.901z"/>
		<path fill="#F2DADE" d="M185.07,169.907c-4.179,0-6.64,0-10.818,0c-0.85,0-1.529-0.746-1.529-1.666l0,0
			c0-0.92,0.68-1.666,1.529-1.666c4.179,0,6.64,0,10.818,0c0.85,0,1.529,0.746,1.529,1.666l0,0
			C186.6,169.161,185.92,169.907,185.07,169.907z"/>
		<path fill="#565656" d="M186.584,183.119c-5.337,0-8.509,0-13.846,0c-1.085,0-1.958-0.963-1.958-2.151l0,0
			c0-1.188,0.872-2.151,1.958-2.151c5.337,0,8.509,0,13.846,0c1.085,0,1.958,0.963,1.958,2.151l0,0
			C188.542,182.156,187.67,183.119,186.584,183.119z"/>
		<g>
			<g>
				<circle fill="#DBC8CC" cx="194.927" cy="180.971" r="2.283"/>
				<path fill="#4F4F4F" d="M196.747,180.505v0.466c0,1.005-0.815,1.82-1.82,1.82s-1.82-0.815-1.82-1.82v-0.466
					c0-0.357,0.102-0.689,0.281-0.971h0.425c0.308-0.24,0.694-0.383,1.114-0.383s0.806,0.143,1.114,0.383h0.425
					C196.645,179.816,196.747,180.148,196.747,180.505z"/>
				<path fill="#686868" d="M196.747,180.505c0,1.005-0.815,1.82-1.82,1.82s-1.82-0.815-1.82-1.82c0-0.357,0.102-0.689,0.281-0.971
					c0.32-0.51,0.891-0.849,1.539-0.849c0.648,0,1.218,0.34,1.539,0.849C196.645,179.816,196.747,180.148,196.747,180.505z"/>
			</g>
			<g>
				<circle fill="#DBC8CC" cx="192.644" cy="174.7" r="2.283"/>
				<path fill="#4F4F4F" d="M194.464,174.234v0.466c0,1.005-0.815,1.82-1.82,1.82s-1.82-0.815-1.82-1.82v-0.466
					c0-0.357,0.102-0.689,0.281-0.971h0.425c0.308-0.24,0.694-0.383,1.114-0.383s0.806,0.143,1.114,0.383h0.425
					C194.363,173.545,194.464,173.878,194.464,174.234z"/>
				<path fill="#686868" d="M194.464,174.234c0,1.005-0.815,1.82-1.82,1.82s-1.82-0.815-1.82-1.82c0-0.357,0.102-0.689,0.281-0.971
					c0.32-0.51,0.891-0.849,1.539-0.849s1.218,0.34,1.539,0.849C194.363,173.545,194.464,173.878,194.464,174.234z"/>
			</g>
			<g>
				<circle fill="#DBC8CC" cx="197.21" cy="187.24" r="2.283"/>
				<path fill="#4F4F4F" d="M199.03,186.774v0.466c0,1.005-0.815,1.82-1.82,1.82c-1.005,0-1.82-0.815-1.82-1.82v-0.466
					c0-0.357,0.102-0.689,0.281-0.971h0.425c0.308-0.24,0.694-0.383,1.114-0.383c0.42,0,0.806,0.143,1.114,0.383h0.425
					C198.928,186.085,199.03,186.417,199.03,186.774z"/>
				<path fill="#686868" d="M199.03,186.774c0,1.005-0.815,1.82-1.82,1.82c-1.005,0-1.82-0.815-1.82-1.82
					c0-0.357,0.102-0.689,0.281-0.971c0.32-0.51,0.891-0.849,1.539-0.849c0.648,0,1.218,0.34,1.539,0.849
					C198.928,186.085,199.03,186.417,199.03,186.774z"/>
			</g>
		</g>
		<g>
			<path fill="none" stroke="#3F3F3F" stroke-width="0.75" stroke-linecap="round" stroke-miterlimit="10" d="M176.661,180.968
				c0-25.403,0-53.125,0-78.528"/>
			<path fill="none" stroke="#3F3F3F" stroke-width="0.75" stroke-linecap="round" stroke-miterlimit="10" d="M180.661,180.968
				c0-25.403,0-48.747,0-74.15"/>
			<path fill="none" stroke="#3F3F3F" stroke-width="0.75" stroke-linecap="round" stroke-miterlimit="10" d="M182.661,180.968
				c0-27.975,0-53.683,0-81.658"/>
			<path fill="none" stroke="#3F3F3F" stroke-width="0.75" stroke-linecap="round" stroke-miterlimit="10" d="M178.661,180.968
				c0-25.403,0-58.627,0-84.029"/>
		</g>
	</g>
</g>
</svg>
