<svg viewBox="0 0 300 300" xmlns="http://www.w3.org/2000/svg"><path d="m149.999 300c-82.709 0-149.999-67.29-149.999-150s67.29-150 149.999-150c82.711 0 150.001 67.29 150.001 150s-67.29 150-150.001 150" fill="#fff"/><path d="m290.812 150c0 77.769-63.043 140.812-140.812 140.812-77.768 0-140.812-63.043-140.812-140.812 0-77.768 63.044-140.812 140.812-140.812s140.812 63.044 140.812 140.812" fill="#5ec2d7"/><path d="m224.612 112.799h-66.994v1.6a2.143 2.143 0 0 0 -2.146-2.145h-10.944c-1.18 0-2.145.952-2.145 2.145v-1.6h-66.994a2.547 2.547 0 0 0 -2.539 2.539v90.621a2.542 2.542 0 0 0 2.526 2.526h67.007v-.229c0 .344.076.673.229.952a2.126 2.126 0 0 0 1.916 1.193h10.944a2.143 2.143 0 0 0 2.146-2.146v.229h67.007a2.541 2.541 0 0 0 2.526-2.526v-90.621a2.547 2.547 0 0 0 -2.539-2.538" fill="#cd4058"/><path d="m142.382 110.749v95.687h-67.006a2.541 2.541 0 0 1 -2.526-2.526v-90.621a2.547 2.547 0 0 1 2.539-2.539h66.993m15.236-.001v95.687h67.007a2.541 2.541 0 0 0 2.526-2.526v-90.621a2.547 2.547 0 0 0 -2.539-2.539h-66.994" fill="#ea4f5c"/><path d="m80.391 110.749h-3.809v79.994c0 3.098 2.222 5.726 5.307 6.272l50.464 8.43 5.916.991h4.113v-1.702l-9.394-3.047-50.478-8.43a2.547 2.547 0 0 1 -2.12-2.514v-79.994m143.028 0h-3.809v79.994a2.548 2.548 0 0 1 -2.12 2.514l-50.478 8.43-9.394 3.047v1.702h4.113l5.916-.991 50.464-8.43c3.085-.546 5.307-3.174 5.307-6.272v-79.994" fill="#de4b57"/><path d="m157.618 114.399v93.858a2.144 2.144 0 0 1 -2.146 2.146h-10.944a2.126 2.126 0 0 1 -1.917-1.193 1.993 1.993 0 0 1 -.229-.952v-93.858c0-1.193.964-2.145 2.146-2.145h10.944a2.141 2.141 0 0 1 2.146 2.144" fill="#aa2d4b"/><path d="m157.618 112.348v93.858a2.144 2.144 0 0 1 -2.146 2.146h-10.944a2.126 2.126 0 0 1 -1.917-1.193 1.993 1.993 0 0 1 -.229-.952v-93.858c0-1.193.964-2.145 2.146-2.145h10.944a2.141 2.141 0 0 1 2.146 2.144" fill="#bc3753"/><path d="m150 110.749v93.782l-7.617-1.27-9.394-1.574-50.478-8.43a2.547 2.547 0 0 1 -2.12-2.514v-88.627a2.53 2.53 0 0 1 2.958-2.501l2.324.394 61.065 10.194zm0 0v93.782l7.618-1.27 9.394-1.574 50.478-8.43a2.547 2.547 0 0 0 2.12-2.514v-88.627a2.53 2.53 0 0 0 -2.958-2.501l-2.324.394-61.065 10.194z" fill="#efefef"/><path d="m167.011 201.686-9.393 1.574v1.473zm-34.023 0 9.394 3.047v-1.473z" fill="#d74954"/><path d="m157.618 203.26-7.289 1.215v.059h-.657v-.059l-7.289-1.215v1.473l5.078 1.651 2.539.825 2.539-.825 5.078-1.651v-1.473m-5.917-93.057h-3.4l1.659.539.04.007v.006-.006l.04-.007z" fill="#b63550"/><path d="m149.959 110.742.04.013v-.006zm-64.287-10.733v82.634a5.073 5.073 0 0 0 3.504 4.825l43.812 14.219 9.394 1.574 7.289 1.215v-.048l-59.706-19.381a2.534 2.534 0 0 1 -1.75-2.408v-82.205zm64.368 10.733-.04.007v.006zm64.288-10.733-2.543.425v82.205a2.533 2.533 0 0 1 -1.75 2.408l-59.706 19.381v.048l7.289-1.215 9.394-1.574 43.813-14.219a5.073 5.073 0 0 0 3.504-4.825v-82.634" fill="#e8e8e8"/><path d="m150 204.534-60.034-19.488a2.534 2.534 0 0 1 -1.75-2.408v-88.455c0-1.72 1.678-2.94 3.314-2.408l58.47 18.98zm0 0 60.035-19.488a2.534 2.534 0 0 0 1.75-2.408v-88.455c0-1.72-1.678-2.94-3.314-2.408l-58.471 18.98z" fill="#fff"/><path d="m150.328 204.534h-.656v-93.779h.656z" fill="#efefef"/><path d="m130.162 157.948c-2.179 0-3.532.348-3.746 1.081-.631 2.161 8.904 6.846 21.299 10.464a7.975 7.975 0 0 0 1.957.328v-9.13a28.751 28.751 0 0 1 -6.254-.762c-5.471-1.287-10.184-1.98-13.256-1.981m39.676 0c-3.072 0-7.785.693-13.256 1.981a28.759 28.759 0 0 1 -6.254.762v9.13a7.936 7.936 0 0 0 1.957-.328c12.395-3.618 21.93-8.303 21.299-10.464-.214-.732-1.567-1.081-3.746-1.081" fill="#e8e8e8"/><path d="m149.672 160.692v9.13a7.178 7.178 0 0 0 .656 0v-9.13a35.864 35.864 0 0 1 -.656 0" fill="#d9d9d9"/><path d="m133.897 82.737v64.813c0 3.345 7.248 6.059 16.188 6.059s16.187-2.713 16.187-6.059v-64.813z" fill="#f7ecd5"/><path d="m141.008 77.72c-4.292 1.089-7.549 2.93-7.549 5.017 0 5.148-.192 16.112 1.586 17.89.877.876 1.043-1.923 1.25-4.722.213-2.877.469-5.754 1.582-4.641 1.541 1.541.504 11.332 1.816 12.645 2.953 2.953 1.203 9.789 4.484 13.07 4.785 4.785 2.278-21.383 5.906-21.383s1.969 12.852 4.594 12.852 2.051-6.316 3.938-8.203c.931-.931 1.869.142 2.833 1.215.99 1.102 2.007 2.203 3.074 1.137 2.105-2.106 2.023-17.501 2.023-20.126s-6.945-5.792-16.461-5.792c-4.593-.001-9.076 1.041-9.076 1.041" fill="#ead9bb"/><path d="m166.273 82.737c0 3.346-7.248 6.059-16.188 6.059s-16.188-2.713-16.188-6.059 7.248-6.059 16.188-6.059 16.188 2.713 16.188 6.059" fill="#ead9bb"/><path d="m150.085 84.05a1.313 1.313 0 0 1 -1.313-1.313v-7.868a1.312 1.312 0 0 1 2.626 0v7.868a1.314 1.314 0 0 1 -1.313 1.313" fill="#565656"/><path d="m156.454 57.436c.42 1.313.683 2.468.683 3.334 0 .148-.027.205-.072.205-.071 0-.188-.144-.312-.287-.124-.144-.255-.287-.356-.287-.06 0-.109.05-.14.181-.041.175-.129.241-.246.241-.179 0-.427-.154-.683-.308s-.521-.308-.733-.308c-.125 0-.231.053-.307.191-.913 1.657-1.627 4.162-3.302 5.045a.264.264 0 0 1 -.126.033c-.198 0-.378-.238-.563-.475-.185-.238-.374-.475-.591-.475a.319.319 0 0 0 -.095.015c-.94.304-1.707 2.892-2.748 2.892-.907 0-.85-.895-1.682-1.128a.184.184 0 0 0 -.047-.006c-.189 0-.399.301-.606.601-.208.301-.413.601-.593.601a.15.15 0 0 1 -.062-.013.04.04 0 0 0 -.019-.004c-.155 0-.415.743-.673 1.486s-.515 1.486-.664 1.486a.043.043 0 0 1 -.022-.006c-.874-.487-1.393-2.326-2.068-3.051-.026-.131-.026-.263-.026-.394 0 .131 0 .263.026.394.168 4.717 3.739 8.567 8.344 9.191v-1.721a1.312 1.312 0 0 1 2.626 0v1.722c4.723-.639 8.365-4.687 8.365-9.586 0-2.113-1.496-5.828-3.308-9.569m-4.251-7.949a157.67 157.67 0 0 1 1.837 3.303c.8 1.457 1.628 3.032 2.402 4.607-1.408-2.872-3.001-5.749-4.239-7.91m-2.521-2.944" fill="#c7b979"/><path d="m150.085 73.556c-.725 0-1.313.588-1.313 1.312v1.721a9.864 9.864 0 0 0 2.625.001v-1.722c0-.724-.588-1.312-1.312-1.312" fill="#c59e58"/><path d="m140.403 66.946v.006a.006.006 0 0 1 0-.006m.001-.057v.007zm.005-.13v.006a.006.006 0 0 1 0-.006m.002-.042v.007zm.001-.014v.007a.009.009 0 0 1 0-.007m.001-.028-.001.008zm.002-.022-.001.019zm.001-.013-.001.008zm.001-.014-.001.008zm.001-.014-.001.008zm.001-.014-.001.009zm.001-.015-.001.009zm.001-.014-.001.011zm.006-.068-.006.066zm.001-.013-.001.013zm.696-2.923c-.369 1.109-.618 2.105-.696 2.921.079-.816.327-1.811.696-2.921m.006-.016-.001.004z" fill="#c7b979"/><path d="m140.405 66.853v.008zm.001-.027v.007a.009.009 0 0 1 0-.007m.001-.029v.01zm.003-.059v.007zm.004-.066v.003zm.015-.185v.001zm.7-2.934-.004.013a.05.05 0 0 1 .004-.013m2.528-5.998c-1.015 2.105-1.928 4.197-2.527 5.994.599-1.797 1.514-3.89 2.534-5.992z" fill="#92c3b8"/><path d="m152.832 52.439c-.602 0 .656 4.047-.054 4.047-.711 0-1.16-.93-1.969-.93s-1.241 2.195-1.96 2.195-1.102-2.414-1.813-2.414-1.846 4.484-2.516 4.484c-.667 0-.235-2.122-.856-2.266-1.02 2.103-1.934 4.195-2.534 5.992l-.001.004-.004.013c-.369 1.109-.617 2.105-.696 2.921v.001l-.001.013-.006.066v.001l-.001.011v.004l-.001.009v.005l-.001.009v.005l-.001.008v.006l-.001.008v.006l-.001.008v.006l-.001.019v.003l-.001.008v.322c0 .131 0 .263.026.394.674.725 1.194 2.564 2.068 3.051a.043.043 0 0 0 .022.006c.149 0 .406-.743.664-1.486s.518-1.486.673-1.486c.006 0 .013.001.019.004a.15.15 0 0 0 .062.013c.181 0 .386-.301.593-.601.207-.301.417-.602.606-.601a.19.19 0 0 1 .047.006c.832.233.774 1.128 1.682 1.128 1.041 0 1.809-2.587 2.748-2.892a.319.319 0 0 1 .095-.015c.217 0 .406.238.591.475.185.238.365.475.563.475.041 0 .083-.01.126-.033 1.675-.883 2.389-3.388 3.302-5.045.076-.138.182-.191.307-.191.212 0 .477.154.733.308s.504.308.683.308c.117 0 .205-.066.246-.241.031-.131.08-.181.14-.181.101 0 .232.144.356.287.124.144.241.287.312.287.045 0 .072-.056.072-.205 0-.866-.262-2.021-.683-3.334l-.013-.039a115.936 115.936 0 0 0 -2.402-4.607c-.081.146-.159.202-.237.202-.262.002-.526-.551-.983-.551" fill="#d6bd7b"/><path d="m145.74 53.496a120.121 120.121 0 0 0 -2.083 4.059l.006.001a118.328 118.328 0 0 1 2.077-4.06m4.342-7.18a.467.467 0 0 1 .4.226.465.465 0 0 0 -.4-.226" fill="#b6c8ab"/><path d="m150.082 46.316a.464.464 0 0 0 -.4.226 178.438 178.438 0 0 0 -3.942 6.953 115.726 115.726 0 0 0 -2.077 4.061c.621.145.189 2.266.856 2.266.67 0 1.805-4.484 2.516-4.484s1.093 2.414 1.813 2.414 1.152-2.195 1.96-2.195c.809 0 1.257.93 1.969.93.711 0-.547-4.047.054-4.047.457 0 .721.553.97.553.079 0 .156-.056.237-.202a155.67 155.67 0 0 0 -1.837-3.303 211.9 211.9 0 0 0 -1.72-2.944.46.46 0 0 0 -.399-.228" fill="#e2c483"/></svg>