<svg version="1" xmlns="http://www.w3.org/2000/svg" viewBox="0 0 300 300"><path fill="#FFF" d="M150 300C67.29 300 0 232.71 0 150S67.29 0 150 0s150 67.29 150 150-67.29 150-150 150"/><path fill="#5EC2D7" d="M290.812 150c0 77.768-63.044 140.812-140.812 140.812S9.188 227.768 9.188 150 72.23 9.188 150 9.188 290.812 72.232 290.812 150"/><path fill="#EFAD43" d="M224.612 112.8h-66.994v1.6a2.143 2.143 0 0 0-2.146-2.146h-10.944a2.142 2.142 0 0 0-2.145 2.145v-1.6H75.388a2.547 2.547 0 0 0-2.54 2.536v90.62a2.54 2.54 0 0 0 2.527 2.526h67.007v-.23c0 .344.076.674.23.953a2.126 2.126 0 0 0 1.915 1.193h10.944a2.143 2.143 0 0 0 2.15-2.147v.23h67.006a2.54 2.54 0 0 0 2.526-2.526v-90.62a2.546 2.546 0 0 0-2.537-2.538"/><path fill="#FBBC4B" d="M142.383 110.75v95.685H75.376a2.54 2.54 0 0 1-2.526-2.526v-90.62a2.546 2.546 0 0 1 2.54-2.54h66.993m15.234 0v95.683h67.007a2.54 2.54 0 0 0 2.526-2.526v-90.62a2.546 2.546 0 0 0-2.54-2.54h-66.993"/><path fill="#EEB247" d="M80.39 110.75h-3.81v79.993c0 3.098 2.223 5.726 5.308 6.272l50.465 8.43 5.916.99h4.11v-1.7l-9.394-3.048-50.478-8.43a2.548 2.548 0 0 1-2.12-2.514V110.75m143.027 0h-3.81v79.993a2.548 2.548 0 0 1-2.12 2.514l-50.477 8.43-9.394 3.047v1.702h4.114l5.916-.99 50.465-8.43c3.086-.546 5.31-3.174 5.31-6.272V110.75"/><path fill="#CE8D38" d="M157.617 114.4v93.857a2.143 2.143 0 0 1-2.145 2.146h-10.944a2.126 2.126 0 0 1-1.917-1.193 1.982 1.982 0 0 1-.226-.952V114.4c0-1.193.965-2.145 2.145-2.145h10.943a2.14 2.14 0 0 1 2.147 2.144"/><path fill="#E09D3C" d="M157.617 112.348v93.858a2.143 2.143 0 0 1-2.145 2.146h-10.944a2.126 2.126 0 0 1-1.917-1.193 1.982 1.982 0 0 1-.226-.955V112.35c0-1.194.965-2.146 2.145-2.146h10.943a2.14 2.14 0 0 1 2.147 2.144"/><path fill="#EFEFEF" d="M150 110.75v93.78l-7.617-1.27-9.395-1.573-50.478-8.43a2.548 2.548 0 0 1-2.12-2.514v-88.627a2.53 2.53 0 0 1 2.958-2.5l2.323.393 61.068 10.19 3.264.547m0 0v93.78l7.618-1.27 9.395-1.573 50.478-8.43a2.548 2.548 0 0 0 2.12-2.514v-88.626a2.53 2.53 0 0 0-2.957-2.5l-2.323.393-61.066 10.193-3.264.546"/><path fill="#E7AC45" d="M167.012 201.686l-9.395 1.575v1.475l9.395-3.047m-34.024 0l9.395 3.047v-1.472l-9.395-1.574"/><path fill="#D9983A" d="M153.263 110.203h-6.526l3.263.546v93.78l-7.617-1.27v1.47l5.078 1.65 2.54.827 2.54-.826 5.08-1.65v-1.472L150 204.53v-93.78l3.263-.547"/><path fill="#E8E8E8" d="M85.672 100.008v82.635a5.072 5.072 0 0 0 3.504 4.824l43.812 14.22 9.395 1.573 7.617 1.27v-93.782l-3.263-.546-61.065-10.194m128.656 0l-61.065 10.194-3.263.547v93.78l7.617-1.27 9.395-1.575 43.812-14.22a5.073 5.073 0 0 0 3.504-4.823v-82.636"/><path fill="#FFF" d="M150 204.534l-60.034-19.488a2.53 2.53 0 0 1-1.75-2.408V94.182a2.532 2.532 0 0 1 3.314-2.408l58.47 18.98v93.78zm61.786-110.352v88.45a2.543 2.543 0 0 1-1.746 2.416l-52.422 17.024-7.534 2.44-.08.027v-93.78l.08-.028 1.614-.525 3.885-1.262 5.263-1.706 47.618-15.476c1.642-.524 3.322.696 3.322 2.415z"/><path fill="#EFEFEF" d="M149.672 110.755h.656v93.78h-.656zm33.934 5.907l-7.407 2.376a.918.918 0 0 0-.64.875v58.734a.918.918 0 0 0 1.2.875l7.405-2.376a.918.918 0 0 0 .638-.875v-58.73a.92.92 0 0 0-1.2-.875z"/><path fill="#EFEFEF" d="M196.624 122.066l-33.47 11.305a.92.92 0 0 0-.626.87v5.865a.918.918 0 0 0 1.212.87l33.47-11.305a.92.92 0 0 0 .626-.87v-5.863a.918.918 0 0 0-1.212-.87z"/><path fill="#FF7182" d="M160.847 107.242v13.48a.27.27 0 0 1-.374.247l-2.12-.907-2.31 2.31a.268.268 0 0 1-.46-.19v-13.238l5.264-1.705z"/><path fill="#EFEFEF" d="M102.666 122.066l11.82 3.992v-8.522a.918.918 0 0 1 1.2-.874l7.406 2.376a.92.92 0 0 1 .638.875v9.268l12.407 4.194a.92.92 0 0 1 .625.87v5.862a.918.918 0 0 1-1.212.87l-11.82-3.992v41.666a.92.92 0 0 1-1.2.874l-7.406-2.376a.92.92 0 0 1-.638-.875V133.86l-12.407-4.19a.92.92 0 0 1-.628-.87v-5.863a.92.92 0 0 1 1.212-.87z"/></svg>