<?xml version="1.0" encoding="utf-8"?>
<!-- Generator: Adobe Illustrator 23.0.6, SVG Export Plug-In . SVG Version: 6.00 Build 0)  -->
<svg version="1.0" id="Camada_1" xmlns="http://www.w3.org/2000/svg" xmlns:xlink="http://www.w3.org/1999/xlink" x="0px" y="0px"
	 viewBox="0 0 300 300" enable-background="new 0 0 300 300" xml:space="preserve">
<ellipse fill="#FFFFFF" cx="149.998" cy="150" rx="149.999" ry="149.999"/>
<circle fill="#EB595B" cx="150" cy="150" r="140.812"/>
<path fill="#D6D6D6" d="M193.199,211.787H110.56c-11.421,0-20.68-9.259-20.68-20.68V115.95c0-11.421,9.259-20.68,20.68-20.68h82.639
	c11.421,0,20.68,9.259,20.68,20.68v75.156C213.879,202.528,204.62,211.787,193.199,211.787L193.199,211.787z"/>
<path fill="#EFEFEF" d="M193.199,198.73H110.56c-11.421,0-20.68-9.259-20.68-20.68v-75.156c0-11.421,9.259-20.68,20.68-20.68h82.639
	c11.421,0,20.68,9.259,20.68,20.68v75.156C213.879,189.471,204.62,198.73,193.199,198.73L193.199,198.73z"/>
<path fill="#3D3D3D" d="M203.114,118.17H100.645c-1.136,0-2.066-0.93-2.066-2.066s0.93-2.066,2.066-2.066h102.469
	c1.136,0,2.066,0.93,2.066,2.066S204.25,118.17,203.114,118.17z"/>
<circle fill="#3D3D3D" cx="197.87" cy="151.855" r="2.524"/>
<path fill="#515151" d="M199.69,150.412c-0.328-0.458-0.824-0.788-1.399-0.897v-1.075l-0.925-0.002v1.094
	c-0.539,0.124-1.003,0.443-1.315,0.88h-0.416v1.37h0.002c0.038,1.201,1.023,2.163,2.234,2.163s2.195-0.962,2.234-2.163h0.002v-1.37
	H199.69z"/>
<path fill="#D6D6D6" d="M198.079,148.165c0.001,0.007,0.002,0.013,0.002,0.02v1.935c0,0.116-0.095,0.21-0.21,0.21
	s-0.21-0.095-0.21-0.21v-1.935c0-0.007,0.001-0.013,0.002-0.02c-1.137,0.105-2.027,1.061-2.027,2.225
	c0,1.234,1.001,2.235,2.235,2.235s2.235-1.001,2.235-2.235C200.106,149.226,199.215,148.27,198.079,148.165z"/>
<circle fill="#3D3D3D" cx="197.87" cy="143.847" r="2.524"/>
<path fill="#515151" d="M199.69,142.404c-0.328-0.458-0.824-0.788-1.399-0.897v-1.075l-0.925-0.002v1.094
	c-0.539,0.124-1.003,0.443-1.315,0.88h-0.416v1.37h0.002c0.038,1.201,1.023,2.163,2.234,2.163s2.195-0.962,2.234-2.163h0.002v-1.37
	H199.69z"/>
<path fill="#D6D6D6" d="M198.079,140.157c0.001,0.007,0.002,0.013,0.002,0.02v1.935c0,0.116-0.095,0.21-0.21,0.21
	s-0.21-0.095-0.21-0.21v-1.935c0-0.007,0.001-0.013,0.002-0.02c-1.137,0.105-2.027,1.061-2.027,2.225
	c0,1.234,1.001,2.235,2.235,2.235s2.235-1.001,2.235-2.235C200.106,141.218,199.215,140.262,198.079,140.157z"/>
<circle fill="#3D3D3D" cx="197.87" cy="136.294" r="2.524"/>
<path fill="#515151" d="M199.69,134.852c-0.328-0.458-0.824-0.788-1.399-0.897v-1.075l-0.925-0.002v1.094
	c-0.539,0.124-1.003,0.443-1.315,0.88h-0.416v1.37h0.002c0.038,1.201,1.023,2.163,2.234,2.163s2.195-0.962,2.234-2.163h0.002v-1.37
	H199.69z"/>
<path fill="#D6D6D6" d="M198.079,132.605c0.001,0.007,0.002,0.013,0.002,0.02v1.935c0,0.116-0.095,0.21-0.21,0.21
	s-0.21-0.095-0.21-0.21v-1.935c0-0.007,0.001-0.013,0.002-0.02c-1.137,0.105-2.027,1.061-2.027,2.225
	c0,1.234,1.001,2.235,2.235,2.235s2.235-1.001,2.235-2.235C200.106,133.666,199.215,132.71,198.079,132.605z"/>
<circle fill="#3D3D3D" cx="197.87" cy="128.847" r="2.524"/>
<path fill="#515151" d="M199.69,127.404c-0.328-0.458-0.824-0.788-1.399-0.897v-1.075l-0.925-0.002v1.094
	c-0.539,0.124-1.003,0.443-1.315,0.88h-0.416v1.37h0.002c0.038,1.201,1.023,2.163,2.234,2.163s2.195-0.962,2.234-2.163h0.002v-1.37
	H199.69z"/>
<path fill="#D6D6D6" d="M198.079,125.157c0.001,0.007,0.002,0.013,0.002,0.02v1.935c0,0.116-0.095,0.21-0.21,0.21
	s-0.21-0.095-0.21-0.21v-1.935c0-0.007,0.001-0.013,0.002-0.02c-1.137,0.105-2.027,1.061-2.027,2.225
	c0,1.234,1.001,2.235,2.235,2.235s2.235-1.001,2.235-2.235C200.106,126.218,199.215,125.262,198.079,125.157z"/>
<g>
	<circle fill="#3D3D3D" cx="117.107" cy="100.801" r="4.99"/>
	<path fill="#3D3D3D" d="M112.117,97.708h1.663v3.307h-1.663V97.708z"/>
	<path fill="#3D3D3D" d="M120.434,97.708h1.663v3.307h-1.663V97.708z"/>
</g>
<circle fill="#515151" cx="117.123" cy="97.715" r="4.99"/>
<g>
	<circle fill="#3D3D3D" cx="134.461" cy="100.801" r="4.99"/>
	<path fill="#3D3D3D" d="M129.471,97.708h1.663v3.307h-1.663V97.708z"/>
	<path fill="#3D3D3D" d="M137.788,97.708h1.663v3.307h-1.663V97.708z"/>
</g>
<circle fill="#515151" cx="134.476" cy="97.715" r="4.99"/>
<circle fill="#3D3D3D" cx="152.461" cy="100.801" r="4.99"/>
<path fill="#3D3D3D" d="M147.471,97.708h1.663v3.307h-1.663V97.708z"/>
<path fill="#3D3D3D" d="M155.788,97.708h1.663v3.307h-1.663V97.708z"/>
<circle fill="#515151" cx="152.476" cy="97.715" r="4.99"/>
<circle fill="#3D3D3D" cx="169.461" cy="100.801" r="4.99"/>
<path fill="#3D3D3D" d="M164.471,97.708h1.663v3.307h-1.663V97.708z"/>
<path fill="#3D3D3D" d="M172.788,97.708h1.663v3.307h-1.663V97.708z"/>
<circle fill="#515151" cx="169.476" cy="97.715" r="4.99"/>
<path fill="#515151" d="M203.114,116.965H100.645c-1.136,0-2.066-0.93-2.066-2.066s0.93-2.066,2.066-2.066h102.469
	c1.136,0,2.066,0.93,2.066,2.066S204.25,116.965,203.114,116.965z"/>
<path fill="#3D3D3D" d="M181.759,187.132v-63.265c0-0.477,0.39-0.868,0.868-0.868c0.477,0,0.868,0.39,0.868,0.868v63.265
	c0,0.477-0.39,0.868-0.868,0.868S181.759,187.61,181.759,187.132z"/>
<path fill="#515151" d="M182.265,187.132v-63.265c0-0.477,0.39-0.868,0.868-0.868c0.477,0,0.868,0.39,0.868,0.868v63.265
	c0,0.477-0.39,0.868-0.868,0.868S182.265,187.61,182.265,187.132z"/>
<path fill="#515151" d="M116.76,187.913V157c0-0.55,0.45-1,1-1h0.479c0.55,0,1,0.45,1,1v30.913c0,0.55-0.45,1-1,1h-0.479
	C117.21,188.913,116.76,188.463,116.76,187.913z"/>
<path fill="#3D3D3D" d="M117.535,187.85v-30.786c0-0.256,0.209-0.465,0.465-0.465s0.465,0.209,0.465,0.465v30.786
	c0,0.256-0.209,0.465-0.465,0.465S117.535,188.105,117.535,187.85z"/>
<circle fill="#5EBCB5" cx="117.996" cy="127.845" r="2.479"/>
<path fill="#5EBCB5" d="M115.517,126.309h0.826v1.643h-0.826V126.309z"/>
<path fill="#5EBCB5" d="M119.649,126.309h0.826v1.643h-0.826V126.309z"/>
<circle fill="#6DE2DE" cx="118.004" cy="126.312" r="2.479"/>
<circle fill="#E59623" cx="117.996" cy="142.845" r="2.479"/>
<path fill="#E59623" d="M115.517,141.309h0.826v1.643h-0.826V141.309z"/>
<path fill="#E59623" d="M119.649,141.309h0.826v1.643h-0.826V141.309z"/>
<circle fill="#FFB031" cx="118.004" cy="141.312" r="2.479"/>
<circle fill="#D6566E" cx="117.996" cy="134.845" r="2.479"/>
<path fill="#D6566E" d="M115.517,133.309h0.826v1.643h-0.826V133.309z"/>
<path fill="#D6566E" d="M119.649,133.309h0.826v1.643h-0.826V133.309z"/>
<circle fill="#FF7182" cx="118.004" cy="133.312" r="2.479"/>
<circle fill="#57DD50" cx="117.996" cy="150.845" r="2.479"/>
<path fill="#57DD50" d="M115.517,149.309h0.826v1.643h-0.826V149.309z"/>
<path fill="#57DD50" d="M119.649,149.309h0.826v1.643h-0.826V149.309z"/>
<circle fill="#68F964" cx="118.004" cy="149.312" r="2.479"/>
<path fill="#3D3D3D" d="M115.5,161h5v8h-5V161z"/>
<path fill="#515151" d="M115.5,160h5v8h-5V160z"/>
<path fill="#515151" d="M148.76,187.913V157c0-0.55,0.45-1,1-1h0.479c0.55,0,1,0.45,1,1v30.913c0,0.55-0.45,1-1,1h-0.479
	C149.21,188.913,148.76,188.463,148.76,187.913z"/>
<path fill="#3D3D3D" d="M149.535,187.85v-30.786c0-0.256,0.209-0.465,0.465-0.465s0.465,0.209,0.465,0.465v30.786
	c0,0.256-0.209,0.465-0.465,0.465S149.535,188.105,149.535,187.85z"/>
<circle fill="#5EBCB5" cx="149.996" cy="127.845" r="2.479"/>
<path fill="#5EBCB5" d="M147.517,126.309h0.826v1.643h-0.826V126.309z"/>
<path fill="#5EBCB5" d="M151.649,126.309h0.826v1.643h-0.826V126.309z"/>
<circle fill="#6DE2DE" cx="150.004" cy="126.312" r="2.479"/>
<circle fill="#E59623" cx="149.996" cy="142.845" r="2.479"/>
<path fill="#E59623" d="M147.517,141.309h0.826v1.643h-0.826V141.309z"/>
<path fill="#E59623" d="M151.649,141.309h0.826v1.643h-0.826V141.309z"/>
<circle fill="#FFB031" cx="150.004" cy="141.312" r="2.479"/>
<circle fill="#D6566E" cx="149.996" cy="134.845" r="2.479"/>
<path fill="#D6566E" d="M147.517,133.309h0.826v1.643h-0.826V133.309z"/>
<path fill="#D6566E" d="M151.649,133.309h0.826v1.643h-0.826V133.309z"/>
<circle fill="#FF7182" cx="150.004" cy="133.312" r="2.479"/>
<circle fill="#57DD50" cx="149.996" cy="150.845" r="2.479"/>
<path fill="#57DD50" d="M147.517,149.309h0.826v1.643h-0.826V149.309z"/>
<path fill="#57DD50" d="M151.649,149.309h0.826v1.643h-0.826V149.309z"/>
<circle fill="#68F964" cx="150.004" cy="149.312" r="2.479"/>
<path fill="#3D3D3D" d="M147.5,161h5v8h-5V161z"/>
<path fill="#515151" d="M147.5,160h5v8h-5V160z"/>
<path fill="#515151" d="M165.76,187.913V157c0-0.55,0.45-1,1-1h0.479c0.55,0,1,0.45,1,1v30.913c0,0.55-0.45,1-1,1h-0.479
	C166.21,188.913,165.76,188.463,165.76,187.913z"/>
<path fill="#3D3D3D" d="M166.535,187.85v-30.786c0-0.256,0.209-0.465,0.465-0.465s0.465,0.209,0.465,0.465v30.786
	c0,0.256-0.209,0.465-0.465,0.465S166.535,188.105,166.535,187.85z"/>
<circle fill="#5EBCB5" cx="166.996" cy="127.845" r="2.479"/>
<path fill="#5EBCB5" d="M164.517,126.309h0.826v1.643h-0.826V126.309z"/>
<path fill="#5EBCB5" d="M168.649,126.309h0.826v1.643h-0.826V126.309z"/>
<circle fill="#6DE2DE" cx="167.004" cy="126.312" r="2.479"/>
<circle fill="#E59623" cx="166.996" cy="142.845" r="2.479"/>
<path fill="#E59623" d="M164.517,141.309h0.826v1.643h-0.826V141.309z"/>
<path fill="#E59623" d="M168.649,141.309h0.826v1.643h-0.826V141.309z"/>
<circle fill="#FFB031" cx="167.004" cy="141.312" r="2.479"/>
<circle fill="#D6566E" cx="166.996" cy="134.845" r="2.479"/>
<path fill="#D6566E" d="M164.517,133.309h0.826v1.643h-0.826V133.309z"/>
<path fill="#D6566E" d="M168.649,133.309h0.826v1.643h-0.826V133.309z"/>
<circle fill="#FF7182" cx="167.004" cy="133.312" r="2.479"/>
<circle fill="#57DD50" cx="166.996" cy="150.845" r="2.479"/>
<path fill="#57DD50" d="M164.517,149.309h0.826v1.643h-0.826V149.309z"/>
<path fill="#57DD50" d="M168.649,149.309h0.826v1.643h-0.826V149.309z"/>
<circle fill="#68F964" cx="167.004" cy="149.312" r="2.479"/>
<path fill="#3D3D3D" d="M164.5,161h5v8h-5V161z"/>
<path fill="#515151" d="M164.5,160h5v8h-5V160z"/>
<path fill="#515151" d="M196.631,187.913V157c0-0.55,0.45-1,1-1h0.479c0.55,0,1,0.45,1,1v30.913c0,0.55-0.45,1-1,1h-0.479
	C197.081,188.913,196.631,188.463,196.631,187.913z"/>
<path fill="#3D3D3D" d="M197.406,187.85v-30.786c0-0.256,0.209-0.465,0.465-0.465s0.465,0.209,0.465,0.465v30.786
	c0,0.256-0.209,0.465-0.465,0.465S197.406,188.105,197.406,187.85z"/>
<path fill="#3D3D3D" d="M195.37,161h5v8h-5V161z"/>
<path fill="#515151" d="M195.37,160h5v8h-5V160z"/>
<path fill="#3D3D3D" d="M130.5,161h5v8h-5V161z"/>
<path fill="#515151" d="M131.76,187.913V157c0-0.55,0.45-1,1-1h0.479c0.55,0,1,0.45,1,1v30.913c0,0.55-0.45,1-1,1h-0.479
	C132.21,188.913,131.76,188.463,131.76,187.913z"/>
<path fill="#3D3D3D" d="M132.535,187.85v-30.786c0-0.256,0.209-0.465,0.465-0.465s0.465,0.209,0.465,0.465v30.786
	c0,0.256-0.209,0.465-0.465,0.465S132.535,188.105,132.535,187.85z"/>
<circle fill="#5EBCB5" cx="132.996" cy="127.845" r="2.479"/>
<path fill="#5EBCB5" d="M130.517,126.309h0.826v1.643h-0.826V126.309z"/>
<path fill="#5EBCB5" d="M134.649,126.309h0.826v1.643h-0.826V126.309z"/>
<circle fill="#6DE2DE" cx="133.004" cy="126.312" r="2.479"/>
<circle fill="#E59623" cx="132.996" cy="142.845" r="2.479"/>
<path fill="#E59623" d="M130.517,141.309h0.826v1.643h-0.826V141.309z"/>
<path fill="#E59623" d="M134.649,141.309h0.826v1.643h-0.826V141.309z"/>
<circle fill="#FFB031" cx="133.004" cy="141.312" r="2.479"/>
<circle fill="#D6566E" cx="132.996" cy="134.845" r="2.479"/>
<path fill="#D6566E" d="M130.517,133.309h0.826v1.643h-0.826V133.309z"/>
<path fill="#D6566E" d="M134.649,133.309h0.826v1.643h-0.826V133.309z"/>
<circle fill="#FF7182" cx="133.004" cy="133.312" r="2.479"/>
<circle fill="#57DD50" cx="132.996" cy="150.845" r="2.479"/>
<path fill="#57DD50" d="M130.517,149.309h0.826v1.643h-0.826V149.309z"/>
<path fill="#57DD50" d="M134.649,149.309h0.826v1.643h-0.826V149.309z"/>
<circle fill="#68F964" cx="133.004" cy="149.312" r="2.479"/>
<path fill="#515151" d="M130.5,160h5v8h-5V160z"/>
<path fill="#3D3D3D" d="M200.313,108h-17.958c-0.928,0-1.688-0.759-1.688-1.688V92.688c0-0.928,0.759-1.688,1.688-1.688h17.958
	c0.928,0,1.688,0.759,1.688,1.688v13.625C202,107.241,201.241,108,200.313,108L200.313,108z"/>
</svg>
