<svg xmlns="http://www.w3.org/2000/svg" version="1.0" viewBox="0 0 300 300"><circle cx="149.998" cy="150" r="149.999" fill="#FFF"/><circle cx="150" cy="150" r="140.812" fill="#EB595B"/><path fill="#D6D6D6" d="M193.199 211.787H110.56c-11.421 0-20.68-9.259-20.68-20.68V115.95c0-11.421 9.259-20.68 20.68-20.68h82.639c11.421 0 20.68 9.259 20.68 20.68v75.156c0 11.422-9.259 20.681-20.68 20.681z"/><path fill="#EFEFEF" d="M193.199 198.73H110.56c-11.421 0-20.68-9.259-20.68-20.68v-75.156c0-11.421 9.259-20.68 20.68-20.68h82.639c11.421 0 20.68 9.259 20.68 20.68v75.156c0 11.421-9.259 20.68-20.68 20.68z"/><path fill="#3D3D3D" d="M203.114 118.17H100.645c-1.136 0-2.066-.93-2.066-2.066s.93-2.066 2.066-2.066h102.469c1.136 0 2.066.93 2.066 2.066s-.93 2.066-2.066 2.066z"/><circle cx="197.87" cy="151.855" r="2.524" fill="#3D3D3D"/><path fill="#515151" d="M199.69 150.412a2.235 2.235 0 00-1.399-.897v-1.075l-.925-.002v1.094a2.232 2.232 0 00-1.315.88h-.416v1.37h.002a2.235 2.235 0 004.468 0h.002v-1.37h-.417z"/><path fill="#D6D6D6" d="M198.079 148.165l.002.02v1.935c0 .116-.095.21-.21.21s-.21-.095-.21-.21v-1.935l.002-.02a2.235 2.235 0 10.416 0z"/><circle cx="197.87" cy="143.847" r="2.524" fill="#3D3D3D"/><path fill="#515151" d="M199.69 142.404a2.235 2.235 0 00-1.399-.897v-1.075l-.925-.002v1.094a2.232 2.232 0 00-1.315.88h-.416v1.37h.002a2.235 2.235 0 004.468 0h.002v-1.37h-.417z"/><path fill="#D6D6D6" d="M198.079 140.157l.002.02v1.935c0 .116-.095.21-.21.21s-.21-.095-.21-.21v-1.935l.002-.02a2.235 2.235 0 10.416 0z"/><circle cx="197.87" cy="136.294" r="2.524" fill="#3D3D3D"/><path fill="#515151" d="M199.69 134.852a2.235 2.235 0 00-1.399-.897v-1.075l-.925-.002v1.094a2.232 2.232 0 00-1.315.88h-.416v1.37h.002a2.235 2.235 0 004.468 0h.002v-1.37h-.417z"/><path fill="#D6D6D6" d="M198.079 132.605l.002.02v1.935c0 .116-.095.21-.21.21s-.21-.095-.21-.21v-1.935l.002-.02a2.235 2.235 0 10.416 0z"/><circle cx="197.87" cy="128.847" r="2.524" fill="#3D3D3D"/><path fill="#515151" d="M199.69 127.404a2.235 2.235 0 00-1.399-.897v-1.075l-.925-.002v1.094a2.232 2.232 0 00-1.315.88h-.416v1.37h.002a2.235 2.235 0 004.468 0h.002v-1.37h-.417z"/><path fill="#D6D6D6" d="M198.079 125.157l.002.02v1.935c0 .116-.095.21-.21.21s-.21-.095-.21-.21v-1.935l.002-.02a2.235 2.235 0 10.416 0z"/><g fill="#3D3D3D"><circle cx="117.107" cy="100.801" r="4.99"/><path d="M112.117 97.708h1.663v3.307h-1.663v-3.307zm8.317 0h1.663v3.307h-1.663v-3.307z"/></g><circle cx="117.123" cy="97.715" r="4.99" fill="#515151"/><g fill="#3D3D3D"><circle cx="134.461" cy="100.801" r="4.99"/><path d="M129.471 97.708h1.663v3.307h-1.663v-3.307zm8.317 0h1.663v3.307h-1.663v-3.307z"/></g><circle cx="134.476" cy="97.715" r="4.99" fill="#515151"/><circle cx="152.461" cy="100.801" r="4.99" fill="#3D3D3D"/><path fill="#3D3D3D" d="M147.471 97.708h1.663v3.307h-1.663v-3.307zm8.317 0h1.663v3.307h-1.663v-3.307z"/><circle cx="152.476" cy="97.715" r="4.99" fill="#515151"/><circle cx="169.461" cy="100.801" r="4.99" fill="#3D3D3D"/><path fill="#3D3D3D" d="M164.471 97.708h1.663v3.307h-1.663v-3.307zm8.317 0h1.663v3.307h-1.663v-3.307z"/><circle cx="169.476" cy="97.715" r="4.99" fill="#515151"/><path fill="#515151" d="M203.114 116.965H100.645c-1.136 0-2.066-.93-2.066-2.066s.93-2.066 2.066-2.066h102.469c1.136 0 2.066.93 2.066 2.066s-.93 2.066-2.066 2.066z"/><path fill="#3D3D3D" d="M181.759 187.132v-63.265a.87.87 0 01.868-.868.87.87 0 01.868.868v63.265c0 .477-.39.868-.868.868s-.868-.39-.868-.868z"/><path fill="#515151" d="M182.265 187.132v-63.265a.87.87 0 01.868-.868.87.87 0 01.868.868v63.265c0 .477-.39.868-.868.868s-.868-.39-.868-.868zm-65.505.781V157c0-.55.45-1 1-1h.479c.55 0 1 .45 1 1v30.913c0 .55-.45 1-1 1h-.479c-.55 0-1-.45-1-1z"/><path fill="#3D3D3D" d="M117.535 187.85v-30.786a.466.466 0 01.93 0v30.786a.466.466 0 01-.93 0z"/><circle cx="117.996" cy="127.845" r="2.479" fill="#5EBCB5"/><path fill="#5EBCB5" d="M115.517 126.309h.826v1.643h-.826v-1.643zm4.132 0h.826v1.643h-.826v-1.643z"/><circle cx="118.004" cy="126.312" r="2.479" fill="#6DE2DE"/><circle cx="117.996" cy="142.845" r="2.479" fill="#E59623"/><path fill="#E59623" d="M115.517 141.309h.826v1.643h-.826v-1.643zm4.132 0h.826v1.643h-.826v-1.643z"/><circle cx="118.004" cy="141.312" r="2.479" fill="#FFB031"/><circle cx="117.996" cy="134.845" r="2.479" fill="#D6566E"/><path fill="#D6566E" d="M115.517 133.309h.826v1.643h-.826v-1.643zm4.132 0h.826v1.643h-.826v-1.643z"/><circle cx="118.004" cy="133.312" r="2.479" fill="#FF7182"/><circle cx="117.996" cy="150.845" r="2.479" fill="#57DD50"/><path fill="#57DD50" d="M115.517 149.309h.826v1.643h-.826v-1.643zm4.132 0h.826v1.643h-.826v-1.643z"/><circle cx="118.004" cy="149.312" r="2.479" fill="#68F964"/><path fill="#3D3D3D" d="M115.5 161h5v8h-5v-8z"/><path fill="#515151" d="M115.5 160h5v8h-5v-8zm33.26 27.913V157c0-.55.45-1 1-1h.479c.55 0 1 .45 1 1v30.913c0 .55-.45 1-1 1h-.479c-.55 0-1-.45-1-1z"/><path fill="#3D3D3D" d="M149.535 187.85v-30.786a.466.466 0 01.93 0v30.786a.466.466 0 01-.93 0z"/><circle cx="149.996" cy="127.845" r="2.479" fill="#5EBCB5"/><path fill="#5EBCB5" d="M147.517 126.309h.826v1.643h-.826v-1.643zm4.132 0h.826v1.643h-.826v-1.643z"/><circle cx="150.004" cy="126.312" r="2.479" fill="#6DE2DE"/><circle cx="149.996" cy="142.845" r="2.479" fill="#E59623"/><path fill="#E59623" d="M147.517 141.309h.826v1.643h-.826v-1.643zm4.132 0h.826v1.643h-.826v-1.643z"/><circle cx="150.004" cy="141.312" r="2.479" fill="#FFB031"/><circle cx="149.996" cy="134.845" r="2.479" fill="#D6566E"/><path fill="#D6566E" d="M147.517 133.309h.826v1.643h-.826v-1.643zm4.132 0h.826v1.643h-.826v-1.643z"/><circle cx="150.004" cy="133.312" r="2.479" fill="#FF7182"/><circle cx="149.996" cy="150.845" r="2.479" fill="#57DD50"/><path fill="#57DD50" d="M147.517 149.309h.826v1.643h-.826v-1.643zm4.132 0h.826v1.643h-.826v-1.643z"/><circle cx="150.004" cy="149.312" r="2.479" fill="#68F964"/><path fill="#3D3D3D" d="M147.5 161h5v8h-5v-8z"/><path fill="#515151" d="M147.5 160h5v8h-5v-8zm18.26 27.913V157c0-.55.45-1 1-1h.479c.55 0 1 .45 1 1v30.913c0 .55-.45 1-1 1h-.479c-.55 0-1-.45-1-1z"/><path fill="#3D3D3D" d="M166.535 187.85v-30.786a.466.466 0 01.93 0v30.786a.466.466 0 01-.93 0z"/><circle cx="166.996" cy="127.845" r="2.479" fill="#5EBCB5"/><path fill="#5EBCB5" d="M164.517 126.309h.826v1.643h-.826v-1.643zm4.132 0h.826v1.643h-.826v-1.643z"/><circle cx="167.004" cy="126.312" r="2.479" fill="#6DE2DE"/><circle cx="166.996" cy="142.845" r="2.479" fill="#E59623"/><path fill="#E59623" d="M164.517 141.309h.826v1.643h-.826v-1.643zm4.132 0h.826v1.643h-.826v-1.643z"/><circle cx="167.004" cy="141.312" r="2.479" fill="#FFB031"/><circle cx="166.996" cy="134.845" r="2.479" fill="#D6566E"/><path fill="#D6566E" d="M164.517 133.309h.826v1.643h-.826v-1.643zm4.132 0h.826v1.643h-.826v-1.643z"/><circle cx="167.004" cy="133.312" r="2.479" fill="#FF7182"/><circle cx="166.996" cy="150.845" r="2.479" fill="#57DD50"/><path fill="#57DD50" d="M164.517 149.309h.826v1.643h-.826v-1.643zm4.132 0h.826v1.643h-.826v-1.643z"/><circle cx="167.004" cy="149.312" r="2.479" fill="#68F964"/><path fill="#3D3D3D" d="M164.5 161h5v8h-5v-8z"/><path fill="#515151" d="M164.5 160h5v8h-5v-8zm32.131 27.913V157c0-.55.45-1 1-1h.479c.55 0 1 .45 1 1v30.913c0 .55-.45 1-1 1h-.479c-.55 0-1-.45-1-1z"/><path fill="#3D3D3D" d="M197.406 187.85v-30.786a.466.466 0 01.93 0v30.786a.466.466 0 01-.93 0z"/><path fill="#3D3D3D" d="M195.37 161h5v8h-5v-8z"/><path fill="#515151" d="M195.37 160h5v8h-5v-8z"/><path fill="#3D3D3D" d="M130.5 161h5v8h-5v-8z"/><path fill="#515151" d="M131.76 187.913V157c0-.55.45-1 1-1h.479c.55 0 1 .45 1 1v30.913c0 .55-.45 1-1 1h-.479c-.55 0-1-.45-1-1z"/><path fill="#3D3D3D" d="M132.535 187.85v-30.786a.466.466 0 01.93 0v30.786a.466.466 0 01-.93 0z"/><circle cx="132.996" cy="127.845" r="2.479" fill="#5EBCB5"/><path fill="#5EBCB5" d="M130.517 126.309h.826v1.643h-.826v-1.643zm4.132 0h.826v1.643h-.826v-1.643z"/><circle cx="133.004" cy="126.312" r="2.479" fill="#6DE2DE"/><circle cx="132.996" cy="142.845" r="2.479" fill="#E59623"/><path fill="#E59623" d="M130.517 141.309h.826v1.643h-.826v-1.643zm4.132 0h.826v1.643h-.826v-1.643z"/><circle cx="133.004" cy="141.312" r="2.479" fill="#FFB031"/><circle cx="132.996" cy="134.845" r="2.479" fill="#D6566E"/><path fill="#D6566E" d="M130.517 133.309h.826v1.643h-.826v-1.643zm4.132 0h.826v1.643h-.826v-1.643z"/><circle cx="133.004" cy="133.312" r="2.479" fill="#FF7182"/><circle cx="132.996" cy="150.845" r="2.479" fill="#57DD50"/><path fill="#57DD50" d="M130.517 149.309h.826v1.643h-.826v-1.643zm4.132 0h.826v1.643h-.826v-1.643z"/><circle cx="133.004" cy="149.312" r="2.479" fill="#68F964"/><path fill="#515151" d="M130.5 160h5v8h-5v-8z"/><path fill="#3D3D3D" d="M200.313 108h-17.958a1.693 1.693 0 01-1.688-1.688V92.688c0-.928.759-1.688 1.688-1.688h17.958c.928 0 1.688.759 1.688 1.688v13.625a1.693 1.693 0 01-1.688 1.687z"/></svg>