<svg xmlns="http://www.w3.org/2000/svg" version="1.0" viewBox="0 0 300 300"><path fill="#D6566E" d="M-1873.979 5969.248h-182.787c-5.523 0-10-4.477-10-10v-182.787c0-5.523 4.477-10 10-10h182.787c5.523 0 10 4.477 10 10v182.787c0 5.523-4.477 10-10 10z"/><path fill="#ED6979" d="M-1975.373 5969.248h-182.787c-5.523 0-10-4.477-10-10v-182.787c0-5.523 4.477-10 10-10h182.787c5.523 0 10 4.477 10 10v182.787c0 5.523-4.477 10-10 10z"/><path fill="#FF7182" d="M-2076.766 5969.248h-182.787c-5.523 0-10-4.477-10-10v-182.787c0-5.523 4.477-10 10-10h182.787c5.523 0 10 4.477 10 10v182.787c0 5.523-4.477 10-10 10z"/><path fill="#E59623" d="M-1267.012 5969.248h-182.787c-5.523 0-10-4.477-10-10v-182.787c0-5.523 4.477-10 10-10h182.787c5.523 0 10 4.477 10 10v182.787c0 5.523-4.477 10-10 10z"/><path fill="#F2A12C" d="M-1368.405 5969.248h-182.787c-5.523 0-10-4.477-10-10v-182.787c0-5.523 4.477-10 10-10h182.787c5.523 0 10 4.477 10 10v182.787c0 5.523-4.478 10-10 10z"/><path fill="#FFB031" d="M-1469.799 5969.248h-182.787c-5.523 0-10-4.477-10-10v-182.787c0-5.523 4.477-10 10-10h182.787c5.523 0 10 4.477 10 10v182.787c0 5.523-4.477 10-10 10z"/><path fill="#A8A8A8" d="M-1772.586 6284.519h-182.787c-5.523 0-10-4.477-10-10v-182.787c0-5.523 4.477-10 10-10h182.787c5.523 0 10 4.477 10 10v182.787c0 5.523-4.477 10-10 10z"/><path fill="#B7B7B7" d="M-1873.979 6284.519h-182.787c-5.523 0-10-4.477-10-10v-182.787c0-5.523 4.477-10 10-10h182.787c5.523 0 10 4.477 10 10v182.787c0 5.523-4.477 10-10 10z"/><path fill="#BFBFBF" d="M-1975.373 6284.519h-182.787c-5.523 0-10-4.477-10-10v-182.787c0-5.523 4.477-10 10-10h182.787c5.523 0 10 4.477 10 10v182.787c0 5.523-4.477 10-10 10z"/><path fill="#C9C9C9" d="M-2076.766 6284.519h-182.787c-5.523 0-10-4.477-10-10v-182.787c0-5.523 4.477-10 10-10h182.787c5.523 0 10 4.477 10 10v182.787c0 5.523-4.477 10-10 10z"/><path fill="#D6D6D6" d="M-1165.619 6284.519h-182.787c-5.523 0-10-4.477-10-10v-182.787c0-5.523 4.477-10 10-10h182.787c5.523 0 10 4.477 10 10v182.787c0 5.523-4.477 10-10 10z"/><path fill="#E2E2E2" d="M-1267.012 6284.519h-182.787c-5.523 0-10-4.477-10-10v-182.787c0-5.523 4.477-10 10-10h182.787c5.523 0 10 4.477 10 10v182.787c0 5.523-4.477 10-10 10z"/><path fill="#EFEFEF" d="M-1368.405 6284.519h-182.787c-5.523 0-10-4.477-10-10v-182.787c0-5.523 4.477-10 10-10h182.787c5.523 0 10 4.477 10 10v182.787c0 5.523-4.478 10-10 10z"/><path fill="#FFF" d="M-1469.799 6284.519h-182.787c-5.523 0-10-4.477-10-10v-182.787c0-5.523 4.477-10 10-10h182.787c5.523 0 10 4.477 10 10v182.787c0 5.523-4.477 10-10 10z"/><path fill="#5EBCB5" d="M-761.438 5969.248h-182.787c-5.523 0-10-4.477-10-10v-182.787c0-5.523 4.477-10 10-10h182.787c5.523 0 10 4.477 10 10v182.787c0 5.523-4.477 10-10 10z"/><path fill="#6DE2DE" d="M-862.832 5969.248h-182.787c-5.523 0-10-4.477-10-10v-182.787c0-5.523 4.477-10 10-10h182.787c5.523 0 10 4.477 10 10v182.787c0 5.523-4.477 10-10 10z"/><path fill="#57DD50" d="M-761.438 6284.519h-182.787c-5.523 0-10-4.477-10-10v-182.787c0-5.523 4.477-10 10-10h182.787c5.523 0 10 4.477 10 10v182.787c0 5.523-4.477 10-10 10z"/><path fill="#68F964" d="M-862.832 6284.519h-182.787c-5.523 0-10-4.477-10-10v-182.787c0-5.523 4.477-10 10-10h182.787c5.523 0 10 4.477 10 10v182.787c0 5.523-4.477 10-10 10z"/><path fill="#3D3D3D" d="M-154.471 5969.248h-182.787c-5.523 0-10-4.477-10-10v-182.787c0-5.523 4.477-10 10-10h182.787c5.523 0 10 4.477 10 10v182.787c0 5.523-4.477 10-10 10z"/><path fill="#515151" d="M-255.865 5969.248h-182.787c-5.523 0-10-4.477-10-10v-182.787c0-5.523 4.477-10 10-10h182.787c5.523 0 10 4.477 10 10v182.787c0 5.523-4.477 10-10 10z"/><path fill="#5E5E5E" d="M-357.258 5969.248h-182.787c-5.523 0-10-4.477-10-10v-182.787c0-5.523 4.477-10 10-10h182.787c5.523 0 10 4.477 10 10v182.787c0 5.523-4.477 10-10 10z"/><circle cx="149.998" cy="150" r="149.999" fill="#FFF"/><circle cx="150" cy="150" r="140.812" fill="#86BF5A"/><path fill="#BFBFBF" d="M68.123 123.662l3.285-1.978v6.197l-3.22-2.76zm50.707.048l-3.285-1.978v6.197l3.22-2.76z"/><path fill="#D1D1D1" d="M117.979 125.695c0 7.671-3.533 14.512-9.054 18.988a17.36 17.36 0 01-1.106.85c-.973.574-2.324 1.075-3.953 1.495l-.041.85c-3.134 1.464-6.626 2.284-10.313 2.284s-7.179-.819-10.313-2.284l-.041-.85c-1.629-.42-2.98-.922-3.953-1.495a17.36 17.36 0 01-1.106-.85c-5.52-4.475-9.054-11.317-9.054-18.988 0-13.519 10.958-24.467 24.467-24.467s24.467 10.948 24.467 24.467z"/><path fill="#EDEDED" d="M114.732 137.851a24.494 24.494 0 01-5.807 6.831 17.36 17.36 0 01-1.106.85c-.973.574-2.324 1.075-3.953 1.495l-.041.85a24.295 24.295 0 01-10.313 2.284 24.28 24.28 0 01-10.313-2.284l-.041-.85c-1.629-.42-2.98-.922-3.953-1.495a17.36 17.36 0 01-1.106-.85 24.494 24.494 0 01-5.807-6.831c4.23-3.328 12.146-5.571 21.22-5.571s16.991 2.243 21.22 5.571z"/><path fill="#9E9E9E" d="M109.54 143.361c0 .461-.215.901-.615 1.321-.276.297-.655.584-1.106.85-.973.574-2.324 1.075-3.953 1.495-2.796.707-6.401 1.137-10.354 1.137s-7.558-.43-10.354-1.137c-1.629-.42-2.98-.922-3.953-1.495-.451-.266-.83-.553-1.106-.85-.4-.42-.615-.86-.615-1.321 0-2.652 7.179-4.803 16.028-4.803s16.028 2.151 16.028 4.803z"/><path fill="#BFBFBF" d="M119.025 124.747a.456.456 0 01-.682.412c-2.553-1.452-11.796-6.134-24.83-6.134-13.019 0-22.256 4.672-24.821 6.129a.462.462 0 01-.691-.416l.087-2.451c.023-.646.379-1.23.948-1.537 2.788-1.504 11.783-5.749 24.477-5.749 12.685 0 21.677 4.24 24.471 5.746.573.309.931.897.954 1.547l.087 2.453z"/><path fill="#565656" d="M103.887 146.546l-.021.481-.041.85-2.12 44.376H85.319l-2.12-44.376-.041-.85-.021-.481c0-1.761 4.639-3.185 10.374-3.185 5.737 0 10.376 1.424 10.376 3.185z"/><path fill="#EDEDED" d="M83.199 147.878l.204 4.266c1.048-1.419 5.168-2.477 10.109-2.477 4.942 0 9.061 1.058 10.109 2.477l.204-4.266.041-.85.021-.481c0-1.761-4.639-3.185-10.374-3.185s-10.374 1.424-10.374 3.185l.021.481.039.85z"/><ellipse cx="93.512" cy="192.249" fill="#4C4C4C" rx="8.193" ry="3.236"/><path fill="#262525" d="M142.383 216.979l3.571-4.121-5.494-.275v4.4zm41.209-.005l3.571-4.121-5.494-.274v4.4z"/><path fill="#3D3D3D" d="M127.823 213.132h14.56v3.846h-14.56zm41.208 0h14.56v3.846h-14.56z"/><path fill="#3D3D3D" d="M210.862 213.68h-80.679c-11.674 0-21.138-10.057-21.138-22.463V105.48c0-12.406 9.464-22.463 21.138-22.463h67.97c11.674 0 33.847 7.708 33.847 52.485v55.714c0 12.407-9.464 22.464-21.138 22.464z"/><path fill="#515151" d="M190.684 213.68H126.87c-11.061 0-20.028-8.967-20.028-20.028v-90.607c0-11.061 8.967-20.028 20.028-20.028h63.814c11.061 0 20.028 8.967 20.028 20.028v90.607c0 11.061-8.967 20.028-20.028 20.028z"/><circle cx="157.018" cy="151.539" r="32.733" fill="#3D3D3D"/><circle cx="157.018" cy="151.539" r="25.504" fill="#FFB031"/><circle cx="157.018" cy="151.539" r="16.039" fill="#3D3D3D"/><circle cx="157.018" cy="151.539" r="11.457" fill="#515151"/><circle cx="157.018" cy="151.539" r="7.817" fill="#5E5E5E"/><circle cx="128.865" cy="99.9" r="5.138" fill="#515151"/><path fill="#3D3D3D" d="M187.589 201.201H130.7c-1.744 0-8.368-1.414-8.368-3.157v-3.962a3.157 3.157 0 013.157-3.157h67.679a3.157 3.157 0 013.157 3.157v3.962c0 1.743-6.992 3.157-8.736 3.157z"/><circle cx="124.901" cy="184.317" r="2.569" fill="#3D3D3D"/><circle cx="192.728" cy="184.317" r="2.569" fill="#3D3D3D"/><circle cx="124.901" cy="108.342" r="2.569" fill="#3D3D3D"/><circle cx="192.728" cy="108.342" r="2.569" fill="#3D3D3D"/><circle cx="156.025" cy="104.305" r="9.176" fill="#3D3D3D"/><circle cx="156.025" cy="104.305" r="7.708" fill="#515151"/><circle cx="156.025" cy="104.305" r="6.607" fill="#5E5E5E"/></svg>