<svg xmlns="http://www.w3.org/2000/svg" version="1.0" viewBox="0 0 300 300"><path fill="#FFF" d="M300 150a149.295 149.295 0 01-.723 14.702 150.663 150.663 0 01-2.16 14.561 150.48 150.48 0 01-3.577 14.279 149.469 149.469 0 01-7.943 20.591 150.761 150.761 0 01-6.939 12.982 149.407 149.407 0 01-8.178 12.239 148.345 148.345 0 01-4.53 5.804 149.029 149.029 0 01-9.886 10.907 150.293 150.293 0 01-16.711 14.416 150.754 150.754 0 01-12.239 8.178 149.435 149.435 0 01-12.982 6.939 150.083 150.083 0 01-27.687 9.907 150.754 150.754 0 01-14.437 2.872 149.427 149.427 0 01-14.649 1.443 150.538 150.538 0 01-14.72 0 150.663 150.663 0 01-21.903-2.702 150.48 150.48 0 01-14.279-3.577 149.469 149.469 0 01-20.591-7.943 150.761 150.761 0 01-12.982-6.939 149.407 149.407 0 01-12.239-8.178 149.097 149.097 0 01-5.804-4.53 149.029 149.029 0 01-10.907-9.886 150.293 150.293 0 01-14.416-16.711 150.754 150.754 0 01-8.178-12.239 150.046 150.046 0 01-18.459-47.853 149.427 149.427 0 01-2.702-21.903A151.727 151.727 0 010 150a149.295 149.295 0 01.723-14.702 150.663 150.663 0 012.16-14.561 150.48 150.48 0 013.577-14.279 149.469 149.469 0 017.943-20.591 150.761 150.761 0 016.939-12.982 149.407 149.407 0 018.178-12.239 149.097 149.097 0 014.53-5.804 149.029 149.029 0 019.886-10.907 150.293 150.293 0 0116.711-14.416 150.754 150.754 0 0112.239-8.178 150.046 150.046 0 0147.852-18.459A149.427 149.427 0 01142.641.18a150.465 150.465 0 0114.719.001 150.663 150.663 0 0121.903 2.702 150.48 150.48 0 0114.279 3.577 149.469 149.469 0 0120.591 7.943 150.761 150.761 0 0112.982 6.939 149.407 149.407 0 0112.239 8.178 149.097 149.097 0 015.804 4.53 149.029 149.029 0 0110.907 9.886 150.293 150.293 0 0114.416 16.711 150.754 150.754 0 018.178 12.239 150.046 150.046 0 0118.459 47.852A149.761 149.761 0 01300 150z"/><path fill="#5EC2D7" d="M290.813 150a140.836 140.836 0 01-68.421 120.781 141.114 141.114 0 01-12.188 6.514 141.158 141.158 0 01-12.766 5.288 141.08 141.08 0 01-19.968 5.525 141.214 141.214 0 01-13.669 2.028 140.498 140.498 0 01-13.802.678 140.836 140.836 0 01-53.887-10.718 140.561 140.561 0 01-18.506-9.315 140.015 140.015 0 01-11.49-7.678 141.422 141.422 0 01-10.682-8.766 140.735 140.735 0 01-22.518-26.105 141.114 141.114 0 01-10.212-18.027 141.158 141.158 0 01-5.288-12.766 141.08 141.08 0 01-5.525-19.968 141.214 141.214 0 01-2.028-13.669A140.498 140.498 0 019.185 150a140.866 140.866 0 0120.033-72.393 140.015 140.015 0 017.678-11.49 141.422 141.422 0 018.766-10.682 140.735 140.735 0 0126.105-22.518 141.114 141.114 0 0118.026-10.212 140.69 140.69 0 0132.735-10.813 141.214 141.214 0 0113.669-2.028 140.498 140.498 0 0113.802-.678A140.836 140.836 0 01270.78 77.607a141.114 141.114 0 019.315 18.505 140.547 140.547 0 016.498 19.672 141.214 141.214 0 013.542 20.413 140.498 140.498 0 01.678 13.803z"/><path fill="#EFEFEF" d="M157.438 97.329v-.021a87.179 87.179 0 00-1.141-8.481c-1.708-5.486-4.751-10.357-5.626-11.686a.281.281 0 00-.476 0c-.875 1.33-3.919 6.186-5.619 11.672a84.963 84.963 0 00-1.009 7.073c-.048-.084-.087-.164-.136-.248-3.889-6.736-13.182-11.684-15.186-12.694a.285.285 0 00-.413.238c-.127 2.24-.489 12.763 3.4 19.499 4.371 7.571 9.089 9.437 12.458 7.492a5.264 5.264 0 002.309-2.699c2.028 1.8 4.434 2.367 4.434 2.367s7.187-1.686 7.187-8.516a51.15 51.15 0 00-.182-3.996z"/><path fill="#FF7182" d="M137.509 111.366c0 3.254-1.659 6.193-5.143 8.327-3.492 2.134-8.81 3.457-16.129 3.457-13.009 0-27.956-9.328-31.091-11.385a.477.477 0 010-.798c2.631-1.728 13.569-8.565 24.702-10.72 2.141-.42 4.29-.665 6.389-.665 14.624 0 21.272 5.276 21.272 11.784z"/><path fill="#E86076" d="M133.829 112.789c-1.134 4.233-7.876 6.863-17.593 6.863-8.987 0-19.232-4.988-25.018-8.283 5.787-3.296 16.03-8.284 25.018-8.284 7.842 0 12.103 1.598 14.298 2.937 2.307 1.41 3.477 3.208 3.477 5.346-.001.492-.062.97-.182 1.421z"/><path fill="#EFEFEF" d="M137.509 111.366c0 3.254-1.659 6.193-5.143 8.327-1.687-.098-3.534-.567-5.528-1.4a30.255 30.255 0 01-3.597-1.791c-5.318-3.072-9.475-9.139-11.728-13.002a48.39 48.39 0 01-1.512-2.771 1.498 1.498 0 01-.154-.483c2.141-.42 4.29-.665 6.389-.665 14.625.001 21.273 5.277 21.273 11.785z"/><path fill="#FF7182" d="M144.612 100.254c-6.284 1.686-13.1-3.373-16.885-17.501a28.333 28.333 0 01-.273-1.106c-2.799-12.428 2.085-28.41 3.226-31.867a.474.474 0 01.77-.21c2.722 2.428 14.975 13.869 18.74 26.059.112.343.21.686.301 1.029 3.784 14.128.411 21.91-5.879 23.596z"/><path fill="#E86076" d="M142.29 97.067c-4.382 0-8.668-5.831-11.183-15.217-2.326-8.681-.16-19.867 1.526-26.31 4.682 4.737 12.15 13.34 14.476 22.021 2.03 7.575 1.59 12.104.863 14.571-.765 2.594-2.199 4.189-4.264 4.743a5.492 5.492 0 01-1.418.192z"/><path fill="#FF7182" d="M134.486 106.342c-4.597 4.604-13.029 3.632-23.372-6.711a30.821 30.821 0 01-.812-.84c-8.621-9.363-12.379-25.632-13.127-29.194a.476.476 0 01.567-.56c3.555.735 19.726 4.472 29.103 13.051.322.287.63.581.931.882 10.342 10.342 11.314 18.774 6.71 23.372z"/><path fill="#E86076" d="M130.881 104.747c-3.795 2.191-10.422-.716-17.293-7.587-6.355-6.355-10.072-17.125-11.833-23.548 6.423 1.762 17.192 5.478 23.548 11.833 5.545 5.545 7.429 9.688 8.033 12.187.635 2.629.19 4.728-1.321 6.239a5.54 5.54 0 01-1.134.876z"/><path fill="#EFEFEF" d="M144.612 100.254c-6.284 1.686-13.1-3.373-16.885-17.501a28.333 28.333 0 01-.273-1.106c.203-.084.434-.133.665-.133.259 0 .525.063.763.182.588.301 1.49.77 2.575 1.4 3.142 1.812 7.844 4.947 11.168 8.964.168-1.176.364-2.358.574-3.506l.014-.077.028-.077c1.155-3.73 2.904-7.166 4.219-9.468a53.28 53.28 0 011.568-2.561 1.682 1.682 0 011.161-.742c.112.343.21.686.301 1.029 3.785 14.128.412 21.91-5.878 23.596z"/><path fill="#EFEFEF" d="M134.486 106.342c-4.597 4.604-13.029 3.632-23.372-6.711a30.821 30.821 0 01-.812-.84 1.686 1.686 0 011.106-.497c.588-.035 1.54-.077 2.771-.077h.497c3.506.035 9.132.42 13.96 2.232-1.826-4.73-2.239-10.224-2.274-13.918a48.77 48.77 0 01.07-3.429c.021-.392.175-.742.413-1.015.322.287.63.581.931.882 10.342 10.343 11.314 18.775 6.71 23.373z"/><path fill="#FF7182" d="M163.647 111.366c0 3.254 1.659 6.193 5.143 8.327 3.492 2.134 8.81 3.457 16.129 3.457 13.009 0 27.956-9.328 31.091-11.385a.477.477 0 000-.798c-2.631-1.728-13.569-8.565-24.702-10.72-2.141-.42-4.29-.665-6.389-.665-14.624 0-21.272 5.276-21.272 11.784z"/><path fill="#E86076" d="M167.327 112.789c1.134 4.233 7.876 6.863 17.593 6.863 8.987 0 19.232-4.988 25.018-8.283-5.787-3.296-16.03-8.284-25.018-8.284-7.842 0-12.103 1.598-14.298 2.937-2.307 1.41-3.477 3.208-3.477 5.346.001.492.062.97.182 1.421z"/><path fill="#EFEFEF" d="M163.647 111.366c0 3.254 1.659 6.193 5.143 8.327 1.687-.098 3.534-.567 5.528-1.4a30.255 30.255 0 003.597-1.791c5.318-3.072 9.475-9.139 11.728-13.002a48.39 48.39 0 001.512-2.771c.077-.154.133-.315.154-.483-2.141-.42-4.29-.665-6.389-.665-14.625.001-21.273 5.277-21.273 11.785z"/><path fill="#FF7182" d="M156.544 100.254c6.284 1.686 13.1-3.373 16.885-17.501.098-.364.189-.735.273-1.106 2.799-12.428-2.085-28.41-3.226-31.867a.474.474 0 00-.77-.21c-2.722 2.428-14.975 13.869-18.74 26.059-.112.343-.21.686-.301 1.029-3.784 14.128-.411 21.91 5.879 23.596z"/><path fill="#E86076" d="M158.866 97.067c4.382 0 8.668-5.831 11.183-15.217 2.326-8.681.16-19.867-1.526-26.31-4.682 4.737-12.15 13.34-14.476 22.021-2.03 7.575-1.589 12.104-.863 14.571.765 2.594 2.199 4.189 4.264 4.743.474.127.952.192 1.418.192z"/><path fill="#FF7182" d="M166.67 106.342c4.597 4.604 13.029 3.632 23.372-6.711.273-.273.546-.553.812-.84 8.621-9.363 12.379-25.632 13.127-29.194a.476.476 0 00-.567-.56c-3.555.735-19.726 4.472-29.103 13.051-.322.287-.63.581-.931.882-10.342 10.342-11.314 18.774-6.71 23.372z"/><path fill="#E86076" d="M170.275 104.747c3.795 2.191 10.422-.716 17.293-7.587 6.355-6.355 10.072-17.125 11.833-23.548-6.423 1.762-17.192 5.478-23.548 11.833-5.545 5.545-7.429 9.688-8.033 12.187-.635 2.629-.19 4.728 1.321 6.239a5.54 5.54 0 001.134.876z"/><path fill="#EFEFEF" d="M156.544 100.254c6.284 1.686 13.1-3.373 16.885-17.501.098-.364.189-.735.273-1.106a1.761 1.761 0 00-.665-.133c-.259 0-.525.063-.763.182-.588.301-1.49.77-2.575 1.4-3.142 1.812-7.844 4.947-11.168 8.964a91.523 91.523 0 00-.574-3.506l-.014-.077-.028-.077c-1.155-3.73-2.904-7.166-4.219-9.468a53.28 53.28 0 00-1.568-2.561 1.682 1.682 0 00-1.161-.742c-.112.343-.21.686-.301 1.029-3.785 14.128-.412 21.91 5.878 23.596z"/><path fill="#EFEFEF" d="M166.67 106.342c4.597 4.604 13.029 3.632 23.372-6.711.273-.273.546-.553.812-.84a1.686 1.686 0 00-1.106-.497 47.018 47.018 0 00-2.771-.077h-.497c-3.506.035-9.132.42-13.96 2.232 1.826-4.73 2.239-10.224 2.274-13.918a48.77 48.77 0 00-.07-3.429 1.674 1.674 0 00-.413-1.015c-.322.287-.63.581-.931.882-10.342 10.343-11.314 18.775-6.71 23.373z"/><path fill="#86BF5A" d="M130.986 103.09c7.571 4.371 9.437 9.09 7.492 12.458-1.945 3.369-6.964 4.113-14.535-.259-6.736-3.889-11.684-13.183-12.694-15.186a.285.285 0 01.238-.413c2.241-.127 12.763-.489 19.499 3.4z"/><path fill="#76A849" d="M130.986 103.09c7.571 4.371 9.437 9.09 7.492 12.458-1.945 3.369-6.964 4.113-14.535-.259-3.592-2.074-6.675-5.684-8.924-8.906-.424-.608-.279-2.496.038-3.045.512-.887 2.655-.734 3.026-1.377.547-.948-.286-2.234.745-2.145 3.911.338 8.572 1.203 12.158 3.274z"/><path fill="#86BF5A" d="M169.878 103.09c-7.571 4.371-9.437 9.09-7.492 12.458 1.945 3.369 6.964 4.113 14.535-.259 6.736-3.889 11.684-13.183 12.694-15.186a.285.285 0 00-.238-.413c-2.24-.127-12.763-.489-19.499 3.4z"/><path fill="#76A849" d="M169.878 103.09c-7.571 4.371-9.437 9.09-7.492 12.458 1.945 3.369 6.964 4.113 14.535-.259 3.592-2.074 6.675-5.684 8.924-8.906.424-.608.279-2.496-.038-3.045-.512-.887-2.655-.734-3.026-1.377-.547-.948.286-2.234-.745-2.145-3.911.338-8.571 1.203-12.158 3.274z"/><path fill="#EFEFEF" d="M139.118 112.024c-3.17-.875-6.34-3.863-9.097-8.642-.203-.35-.399-.714-.581-1.085.532.238 1.05.504 1.546.791 5.194 2.995 7.698 6.158 8.132 8.936z"/><path fill="#86BF5A" d="M143.432 95.638c4.371 7.571 3.628 12.59.259 14.535-3.369 1.945-8.087.08-12.458-7.492-3.889-6.736-3.527-17.258-3.4-19.499a.284.284 0 01.413-.238c2.003 1.01 11.297 5.958 15.186 12.694z"/><path fill="#86BF5A" d="M157.477 95.727c0 8.743-3.153 12.717-7.043 12.717s-7.043-3.974-7.043-12.717c0-7.778 5.575-16.709 6.805-18.586a.285.285 0 01.477 0c1.23 1.876 6.804 10.808 6.804 18.586z"/><path fill="#76A849" d="M143.432 95.638c4.371 7.571 3.628 12.59.259 14.535-3.369 1.945-8.087.08-12.458-7.492-2.074-3.592-2.939-8.26-3.275-12.175-.063-.738 1.006-2.301 1.555-2.618.887-.512 2.666.692 3.309.32.948-.547.87-2.078 1.718-1.485 3.218 2.248 6.821 5.328 8.892 8.915z"/><path fill="#EFEFEF" d="M171.427 102.297c-.182.371-.378.735-.581 1.085-2.757 4.779-5.934 7.767-9.104 8.642.434-2.778 2.946-5.934 8.138-8.936a16.906 16.906 0 011.547-.791z"/><path fill="#86BF5A" d="M157.433 95.638c-4.371 7.571-3.628 12.59-.259 14.535 3.369 1.945 8.087.08 12.458-7.492 3.889-6.736 3.527-17.258 3.4-19.499a.284.284 0 00-.413-.238c-2.004 1.01-11.297 5.958-15.186 12.694z"/><path fill="#76A849" d="M157.433 95.638c-4.371 7.571-3.628 12.59-.259 14.535 3.369 1.945 8.087.08 12.458-7.492 2.074-3.592 2.939-8.26 3.275-12.175.063-.738-1.006-2.301-1.555-2.618-.887-.512-2.666.692-3.309.32-.948-.547-.87-2.078-1.718-1.485-3.218 2.248-6.821 5.328-8.892 8.915z"/><path fill="#EFEFEF" d="M157.62 101.325c0 6.83-7.187 8.516-7.187 8.516s-7.187-1.686-7.187-8.516c0-1.141.063-2.484.182-3.94.203-2.631.602-5.64 1.148-8.572 1.7-5.486 4.744-10.343 5.619-11.672a.281.281 0 01.476 0c.875 1.33 3.918 6.2 5.626 11.686a87.488 87.488 0 011.141 8.481v.021a51.15 51.15 0 01.182 3.996z"/><path fill="#76A849" d="M157.476 95.727c0 8.743-3.153 12.717-7.043 12.717s-7.043-3.974-7.043-12.717c0-4.147 1.585-8.622 3.251-12.181.314-.671 2.022-1.49 2.656-1.49 1.025 0 1.963 1.932 2.705 1.932 1.094 0 1.792-1.364 2.23-.428 1.663 3.557 3.244 8.025 3.244 12.167z"/><path fill="#FBBC4B" d="M149.341 111.489l-6.988-11.208a1.23 1.23 0 010-1.303l6.988-11.208a1.23 1.23 0 012.089 0l6.988 11.208a1.23 1.23 0 010 1.303l-6.988 11.208a1.23 1.23 0 01-2.089 0z"/><path fill="#FBBC4B" d="M150.422 105.664c-11.477-.018-20.79 9.28-20.79 20.753l.001.19c.006.599.841.726 1.028.157 2.635-8.041 10.052-13.914 18.888-14.266.09-.004.15.094.106.173l-2.698 4.8a1.05 1.05 0 00.192 1.274l2.516 2.391c.405.385 1.04.385 1.445 0l2.516-2.391c.348-.331.427-.855.192-1.274l-2.698-4.801a.117.117 0 01.106-.173c8.84.35 16.258 6.227 18.891 14.273.186.567 1.02.426 1.025-.171l.001-.181c-.002-11.427-9.294-20.735-20.721-20.754z"/><path fill="#EFAA56" d="M130.905 123.438c1.441-9.456 9.629-16.725 19.484-16.725 9.863.016 18.037 7.282 19.479 16.722-3.522-6.977-10.646-11.669-18.602-11.984l-.046-.001c-.316 0-.616.13-.833.352a1.171 1.171 0 00-.833-.352l-.047.001c-7.956.317-15.081 5.01-18.602 11.987z"/><path fill="#E09D3C" d="M149.915 119.937l-1.642-1.561a.683.683 0 01-.125-.831l1.932-3.438a.353.353 0 01.614 0l1.932 3.438a.683.683 0 01-.125.831l-1.642 1.561a.686.686 0 01-.944 0zm6.721-20.306a.456.456 0 01-.071.244l-5.773 9.269a.473.473 0 01-.404.22.458.458 0 01-.404-.22l-5.773-9.263a.459.459 0 010-.505l5.773-9.257a.474.474 0 01.809 0l5.773 9.257c.047.076.07.165.07.255z"/><path fill="#D39139" d="M156.636 99.631a.456.456 0 01-.071.244l-5.773 9.269a.473.473 0 01-.404.22v-9.733h6.248z"/><path fill="#D89748" d="M144.139 99.631c0 .083.024.172.071.244l5.773 9.269c.095.149.25.22.404.22v-9.733h-6.248z"/><path fill="#E5A551" d="M144.139 99.631c0-.083.024-.172.071-.244l5.773-9.269a.473.473 0 01.404-.22v9.733h-6.248z"/><path fill="#4C4C4C" d="M156.923 127.076h-13.846c-1.085 0-1.958-.963-1.958-2.151v-1.616h17.761v1.616c0 1.188-.872 2.151-1.957 2.151z"/><path fill="#DBC8CC" d="M155.409 113.242h-10.818c-.85 0-1.529-.746-1.529-1.666v-.994h13.877v.994c0 .921-.68 1.666-1.53 1.666z"/><path fill="#F2DADE" d="M155.409 112.248h-10.818c-.85 0-1.529-.746-1.529-1.666 0-.92.68-1.666 1.529-1.666h10.818c.85 0 1.529.746 1.529 1.666.001.92-.679 1.666-1.529 1.666z"/><path fill="#565656" d="M156.923 125.46h-13.846c-1.085 0-1.958-.963-1.958-2.151 0-1.188.872-2.151 1.958-2.151h13.846c1.085 0 1.958.963 1.958 2.151-.001 1.188-.873 2.151-1.958 2.151z"/><path fill="#303030" d="M188.904 230.39h-77.808c-10.753 0-19.471-8.718-19.471-19.471v-70.764c0-10.753 8.718-19.471 19.471-19.471h77.808c10.753 0 19.471 8.718 19.471 19.471v70.763c0 10.755-8.718 19.472-19.471 19.472z"/><path fill="#515151" d="M188.904 218.097h-77.808c-10.753 0-19.471-8.718-19.471-19.471v-70.763c0-10.753 8.718-19.471 19.471-19.471h77.808c10.753 0 19.471 8.718 19.471 19.471v70.763c0 10.753-8.718 19.471-19.471 19.471z"/><path fill="#D6D6D6" d="M198.24 142.246h-96.48a1.951 1.951 0 01-1.945-1.945c0-1.069.876-1.945 1.945-1.945h96.479c1.07 0 1.945.876 1.945 1.945a1.95 1.95 0 01-1.944 1.945z"/><path fill="#3D3D3D" d="M195.678 173.962a2.333 2.333 0 01-.181.91 2.388 2.388 0 01-1.286 1.286 2.41 2.41 0 01-1.374.135 2.317 2.317 0 01-.857-.355 2.376 2.376 0 011.786-4.308 2.39 2.39 0 01.857.355 2.324 2.324 0 01.655.656 2.388 2.388 0 01.355.857c.03.153.045.308.045.464z"/><path fill="#515151" d="M195.016 172.603a2.033 2.033 0 00-1.317-.845v-1.012l-.871-.002v1.03c-.517.12-.93.396-1.238.829h-.392v1.29h.002a2.092 2.092 0 001.312 1.885c.253.103.517.154.79.154s.537-.051.79-.154a2.093 2.093 0 001.134-1.1c.11-.25.17-.512.178-.785h.002v-1.29h-.39z"/><path fill="#D6D6D6" d="M193.499 170.487l.002.019v1.822a.19.19 0 01-.058.14.19.19 0 01-.14.058.19.19 0 01-.14-.058.19.19 0 01-.058-.14v-1.822l.002-.019a2.102 2.102 0 10.725 4.129 2.117 2.117 0 00.924-.514 2.087 2.087 0 00.557-.899 2.08 2.08 0 00.049-1.056 2.085 2.085 0 00-.471-.946 2.103 2.103 0 00-1.392-.714z"/><path fill="#3D3D3D" d="M195.678 166.422a2.333 2.333 0 01-.181.91 2.388 2.388 0 01-1.286 1.286 2.41 2.41 0 01-1.374.135 2.39 2.39 0 01-1.217-.65 2.388 2.388 0 01-.696-1.681 2.333 2.333 0 01.181-.91 2.388 2.388 0 011.287-1.286 2.41 2.41 0 011.374-.135 2.317 2.317 0 01.857.355 2.376 2.376 0 011.055 1.976z"/><path fill="#515151" d="M195.016 165.063a2.033 2.033 0 00-1.317-.845v-1.012l-.871-.002v1.03c-.517.12-.93.396-1.238.829h-.392v1.29h.002a2.092 2.092 0 001.312 1.885c.253.103.517.154.79.154s.537-.051.79-.154a2.093 2.093 0 001.134-1.1c.11-.251.17-.512.178-.785h.002v-1.29h-.39z"/><path fill="#D6D6D6" d="M193.499 162.948l.002.019v1.822a.19.19 0 01-.058.14c-.039.039-.085.058-.14.058s-.101-.019-.14-.058a.19.19 0 01-.058-.14v-1.822l.002-.019a2.105 2.105 0 00-1.863 1.661 2.103 2.103 0 003.512 1.955 2.087 2.087 0 00.557-.899 2.08 2.08 0 00.049-1.056 2.085 2.085 0 00-.471-.946 2.103 2.103 0 00-1.392-.715z"/><path fill="#3D3D3D" d="M195.678 159.31a2.333 2.333 0 01-.181.91 2.388 2.388 0 01-1.286 1.286 2.41 2.41 0 01-1.374.135 2.39 2.39 0 01-1.217-.65 2.388 2.388 0 01-.696-1.681 2.333 2.333 0 01.181-.91 2.388 2.388 0 011.287-1.286 2.41 2.41 0 011.374-.135 2.317 2.317 0 01.857.355 2.376 2.376 0 011.055 1.976z"/><path fill="#515151" d="M195.016 157.953a2.033 2.033 0 00-1.317-.845v-1.012l-.871-.002v1.03c-.517.12-.93.396-1.238.829h-.392v1.29h.002a2.092 2.092 0 001.312 1.885c.253.103.517.154.79.154s.537-.051.79-.154a2.093 2.093 0 001.134-1.1c.11-.25.17-.512.178-.785h.002v-1.29h-.39z"/><path fill="#D6D6D6" d="M193.499 155.837l.002.019v1.822a.19.19 0 01-.058.14.19.19 0 01-.14.058.19.19 0 01-.14-.058.19.19 0 01-.058-.14v-1.822l.002-.019a2.105 2.105 0 00-1.863 1.66 2.103 2.103 0 003.512 1.955 2.087 2.087 0 00.557-.899 2.08 2.08 0 00.049-1.056 2.085 2.085 0 00-.471-.946 2.103 2.103 0 00-1.392-.714z"/><path fill="#3D3D3D" d="M195.678 152.299a2.333 2.333 0 01-.181.91 2.388 2.388 0 01-1.286 1.286 2.41 2.41 0 01-1.374.135 2.39 2.39 0 01-1.217-.65 2.388 2.388 0 01-.696-1.681 2.333 2.333 0 01.181-.91 2.388 2.388 0 011.287-1.286 2.41 2.41 0 011.374-.135 2.317 2.317 0 01.857.355 2.376 2.376 0 011.055 1.976z"/><path fill="#515151" d="M195.016 150.94a2.033 2.033 0 00-1.317-.845v-1.012l-.871-.002v1.03c-.517.12-.93.396-1.238.829h-.392v1.29h.002a2.092 2.092 0 001.312 1.885c.253.103.517.154.79.154s.537-.051.79-.154a2.093 2.093 0 001.134-1.1c.11-.251.17-.512.178-.785h.002v-1.29h-.39z"/><path fill="#D6D6D6" d="M193.499 148.824l.002.019v1.822a.19.19 0 01-.058.14.19.19 0 01-.14.058.19.19 0 01-.14-.058.19.19 0 01-.058-.14v-1.822l.002-.019a2.105 2.105 0 00-1.863 1.66 2.103 2.103 0 003.512 1.955 2.087 2.087 0 00.557-.899 2.08 2.08 0 00.049-1.056 2.085 2.085 0 00-.471-.946 2.103 2.103 0 00-1.392-.714zm-71.541-22.932a4.712 4.712 0 01-.791 2.61 4.688 4.688 0 01-3.906 2.087 4.712 4.712 0 01-2.61-.791 4.688 4.688 0 01-2.087-3.906 4.712 4.712 0 01.791-2.61 4.688 4.688 0 013.906-2.087 4.712 4.712 0 012.61.791 4.688 4.688 0 012.087 3.906z"/><path fill="#D6D6D6" d="M120.393 122.98h1.566v3.114h-1.566v-3.114zm-7.831 0h1.566v3.114h-1.566v-3.114z"/><path fill="#EFEFEF" d="M121.973 122.987a4.712 4.712 0 01-.791 2.61 4.688 4.688 0 01-3.906 2.087 4.712 4.712 0 01-2.61-.791 4.688 4.688 0 01-2.087-3.906 4.712 4.712 0 01.791-2.61 4.688 4.688 0 013.906-2.087 4.712 4.712 0 012.61.791 4.688 4.688 0 012.087 3.906z"/><path fill="#D6D6D6" d="M138.298 125.892a4.712 4.712 0 01-.791 2.61 4.688 4.688 0 01-3.906 2.087 4.712 4.712 0 01-2.61-.791 4.688 4.688 0 01-2.087-3.906 4.712 4.712 0 01.791-2.61 4.688 4.688 0 013.906-2.087 4.712 4.712 0 012.61.791 4.688 4.688 0 012.087 3.906z"/><path fill="#D6D6D6" d="M136.732 122.98h1.566v3.114h-1.566v-3.114zm-7.831 0h1.566v3.114h-1.566v-3.114z"/><path fill="#EFEFEF" d="M138.312 122.987a4.712 4.712 0 01-.791 2.61 4.688 4.688 0 01-3.906 2.087 4.705 4.705 0 01-3.322-1.375 4.64 4.64 0 01-1.018-1.524 4.685 4.685 0 01-.267-2.715 4.663 4.663 0 01.701-1.693 4.688 4.688 0 013.906-2.087 4.712 4.712 0 012.61.791 4.64 4.64 0 011.296 1.296 4.725 4.725 0 01.701 1.693c.06.303.09.609.09.917z"/><path fill="#D6D6D6" d="M155.246 125.892a4.712 4.712 0 01-.791 2.61 4.688 4.688 0 01-3.905 2.087 4.712 4.712 0 01-2.61-.791 4.688 4.688 0 01-2.087-3.906 4.712 4.712 0 01.791-2.61 4.688 4.688 0 013.906-2.087 4.694 4.694 0 014.696 4.697z"/><path fill="#D6D6D6" d="M153.68 122.98h1.566v3.114h-1.566v-3.114zm-7.831 0h1.566v3.114h-1.566v-3.114z"/><path fill="#EFEFEF" d="M155.26 122.987a4.712 4.712 0 01-.791 2.61 4.688 4.688 0 01-3.906 2.087 4.712 4.712 0 01-2.61-.791 4.688 4.688 0 01-2.087-3.906 4.712 4.712 0 01.791-2.61 4.688 4.688 0 013.906-2.087 4.712 4.712 0 012.61.791 4.688 4.688 0 012.087 3.906z"/><path fill="#D6D6D6" d="M171.252 125.892a4.712 4.712 0 01-.791 2.61 4.688 4.688 0 01-3.906 2.087 4.712 4.712 0 01-2.61-.791 4.688 4.688 0 01-2.087-3.906 4.712 4.712 0 01.791-2.61 4.688 4.688 0 013.906-2.087 4.712 4.712 0 012.61.791 4.64 4.64 0 011.296 1.296 4.725 4.725 0 01.701 1.693c.06.303.09.609.09.917z"/><path fill="#D6D6D6" d="M169.686 122.98h1.566v3.114h-1.566v-3.114zm-7.831 0h1.566v3.114h-1.566v-3.114z"/><path fill="#EFEFEF" d="M171.266 122.987a4.712 4.712 0 01-.791 2.61 4.688 4.688 0 01-3.906 2.087 4.705 4.705 0 01-3.322-1.375 4.64 4.64 0 01-1.018-1.524 4.685 4.685 0 01-.267-2.715 4.663 4.663 0 01.701-1.693 4.688 4.688 0 013.906-2.087 4.712 4.712 0 012.61.791 4.688 4.688 0 012.087 3.906zm-54.333 84.925v-29.106c0-.518.424-.942.942-.942h.451c.518 0 .942.424.942.942v29.106a.939.939 0 01-.942.942h-.451a.939.939 0 01-.942-.942zm81.307-66.801h-96.48a1.951 1.951 0 01-1.945-1.945c0-1.069.876-1.945 1.945-1.945h96.479c1.07 0 1.945.876 1.945 1.945a1.95 1.95 0 01-1.944 1.945z"/><path fill="#5EBCB5" d="M120.431 151.355a2.317 2.317 0 01-.394 1.297 2.297 2.297 0 01-1.048.86 2.328 2.328 0 01-2.19-.216 2.345 2.345 0 01-.86-1.048 2.328 2.328 0 01.216-2.19 2.297 2.297 0 011.048-.86 2.328 2.328 0 012.19.216 2.297 2.297 0 01.86 1.048 2.328 2.328 0 01.178.893z"/><path fill="#5EBCB5" d="M119.654 149.909h.778v1.547h-.778v-1.547zm-3.891 0h.778v1.547h-.778v-1.547z"/><path fill="#6DE2DE" d="M120.439 149.912a2.317 2.317 0 01-.394 1.297 2.297 2.297 0 01-1.048.86 2.328 2.328 0 01-2.19-.216 2.297 2.297 0 01-.86-1.048 2.328 2.328 0 01.216-2.19 2.297 2.297 0 011.048-.86 2.328 2.328 0 012.19.216 2.297 2.297 0 01.86 1.048 2.328 2.328 0 01.178.893z"/><path fill="#E59623" d="M120.431 165.478a2.317 2.317 0 01-.394 1.297 2.345 2.345 0 01-1.048.86 2.328 2.328 0 01-2.19-.216 2.297 2.297 0 01-.86-1.048 2.328 2.328 0 01.216-2.19 2.297 2.297 0 011.048-.86 2.328 2.328 0 012.19.216 2.297 2.297 0 01.86 1.048 2.328 2.328 0 01.178.893z"/><path fill="#E59623" d="M119.654 164.032h.778v1.547h-.778v-1.547zm-3.891 0h.778v1.547h-.778v-1.547z"/><path fill="#FFB031" d="M120.439 164.035a2.317 2.317 0 01-.394 1.297 2.297 2.297 0 01-1.048.86 2.328 2.328 0 01-2.19-.216 2.297 2.297 0 01-.86-1.047 2.306 2.306 0 01-.178-.893 2.317 2.317 0 01.394-1.297 2.297 2.297 0 011.048-.86 2.328 2.328 0 012.19.216 2.297 2.297 0 01.86 1.048 2.328 2.328 0 01.178.892z"/><path fill="#D6566E" d="M120.431 157.946a2.317 2.317 0 01-.394 1.296 2.297 2.297 0 01-1.048.86 2.328 2.328 0 01-2.19-.216 2.297 2.297 0 01-.86-1.047 2.328 2.328 0 01.216-2.19 2.297 2.297 0 011.048-.86 2.328 2.328 0 012.19.216 2.297 2.297 0 01.86 1.047 2.328 2.328 0 01.178.894z"/><path fill="#D6566E" d="M119.654 156.5h.778v1.547h-.778V156.5zm-3.891 0h.778v1.547h-.778V156.5z"/><path fill="#FF7182" d="M120.439 156.503a2.317 2.317 0 01-.394 1.297 2.297 2.297 0 01-1.048.86 2.328 2.328 0 01-2.19-.216 2.297 2.297 0 01-.86-1.047 2.306 2.306 0 01-.178-.893 2.317 2.317 0 01.394-1.297 2.297 2.297 0 011.048-.86 2.328 2.328 0 012.19.216 2.297 2.297 0 01.86 1.048 2.328 2.328 0 01.178.892z"/><path fill="#57DD50" d="M120.431 173.011a2.317 2.317 0 01-.394 1.297 2.297 2.297 0 01-1.048.86 2.328 2.328 0 01-2.19-.216 2.297 2.297 0 01-.86-1.048 2.328 2.328 0 01.216-2.19 2.297 2.297 0 011.048-.86 2.328 2.328 0 012.19.216 2.297 2.297 0 01.86 1.048 2.328 2.328 0 01.178.893z"/><path fill="#57DD50" d="M119.654 171.565h.778v1.547h-.778v-1.547zm-3.891 0h.778v1.547h-.778v-1.547z"/><path fill="#68F964" d="M120.439 171.567a2.317 2.317 0 01-.394 1.297 2.297 2.297 0 01-1.048.86 2.328 2.328 0 01-2.19-.216 2.297 2.297 0 01-.86-1.048 2.328 2.328 0 01.216-2.19 2.297 2.297 0 011.048-.86 2.328 2.328 0 012.19.216 2.297 2.297 0 01.86 1.048 2.328 2.328 0 01.178.893z"/><path fill="#EFEFEF" d="M147.063 207.912v-29.106c0-.518.424-.942.942-.942h.451c.518 0 .942.424.942.942v29.106a.944.944 0 01-.941.941h-.451a.944.944 0 01-.943-.941z"/><path fill="#5EBCB5" d="M150.561 151.355a2.317 2.317 0 01-.394 1.297 2.297 2.297 0 01-1.048.86 2.328 2.328 0 01-2.19-.216 2.345 2.345 0 01-.86-1.048 2.328 2.328 0 01.216-2.19 2.297 2.297 0 011.048-.86 2.328 2.328 0 012.19.216 2.297 2.297 0 01.86 1.048 2.328 2.328 0 01.178.893z"/><path fill="#5EBCB5" d="M149.783 149.909h.778v1.547h-.778v-1.547zm-3.89 0h.778v1.547h-.778v-1.547z"/><path fill="#6DE2DE" d="M150.568 149.912a2.317 2.317 0 01-.394 1.297 2.297 2.297 0 01-1.048.86 2.328 2.328 0 01-2.543-.506 2.297 2.297 0 01-.506-.758 2.328 2.328 0 01.216-2.19 2.297 2.297 0 011.048-.86 2.328 2.328 0 012.19.216 2.297 2.297 0 01.86 1.048 2.328 2.328 0 01.177.893z"/><path fill="#E59623" d="M150.561 165.478a2.317 2.317 0 01-.394 1.297 2.345 2.345 0 01-1.048.86 2.328 2.328 0 01-2.19-.216 2.297 2.297 0 01-.86-1.048 2.328 2.328 0 01.216-2.19 2.297 2.297 0 011.048-.86 2.328 2.328 0 012.19.216 2.297 2.297 0 01.86 1.048 2.328 2.328 0 01.178.893z"/><path fill="#E59623" d="M149.783 164.032h.778v1.547h-.778v-1.547zm-3.89 0h.778v1.547h-.778v-1.547z"/><path fill="#FFB031" d="M150.568 164.035a2.317 2.317 0 01-.394 1.297 2.297 2.297 0 01-1.048.86 2.328 2.328 0 01-2.543-.506 2.297 2.297 0 01-.506-.757 2.328 2.328 0 01.216-2.19 2.297 2.297 0 011.048-.86 2.328 2.328 0 012.19.216 2.297 2.297 0 01.86 1.048 2.328 2.328 0 01.177.892z"/><path fill="#D6566E" d="M150.561 157.946a2.317 2.317 0 01-.394 1.296 2.297 2.297 0 01-1.048.86 2.328 2.328 0 01-2.19-.216 2.297 2.297 0 01-.86-1.047 2.328 2.328 0 01.216-2.19 2.297 2.297 0 011.048-.86 2.328 2.328 0 012.19.216 2.297 2.297 0 01.86 1.047 2.328 2.328 0 01.178.894z"/><path fill="#D6566E" d="M149.783 156.5h.778v1.547h-.778V156.5zm-3.89 0h.778v1.547h-.778V156.5z"/><path fill="#FF7182" d="M150.568 156.503a2.317 2.317 0 01-.394 1.297 2.345 2.345 0 01-1.048.86 2.328 2.328 0 01-2.543-.506 2.297 2.297 0 01-.506-.757 2.328 2.328 0 01.216-2.19 2.297 2.297 0 011.048-.86 2.328 2.328 0 012.19.216 2.297 2.297 0 01.86 1.048 2.328 2.328 0 01.177.892z"/><path fill="#57DD50" d="M150.561 173.011a2.317 2.317 0 01-.394 1.297 2.297 2.297 0 01-1.048.86 2.328 2.328 0 01-2.19-.216 2.297 2.297 0 01-.86-1.048 2.328 2.328 0 01.216-2.19 2.297 2.297 0 011.048-.86 2.328 2.328 0 012.19.216 2.297 2.297 0 01.86 1.048 2.328 2.328 0 01.178.893z"/><path fill="#57DD50" d="M149.783 171.565h.778v1.547h-.778v-1.547zm-3.89 0h.778v1.547h-.778v-1.547z"/><path fill="#68F964" d="M150.568 171.567a2.317 2.317 0 01-.394 1.297 2.297 2.297 0 01-1.048.86 2.328 2.328 0 01-2.543-.506 2.297 2.297 0 01-.506-.758 2.328 2.328 0 01.216-2.19 2.297 2.297 0 011.048-.86 2.328 2.328 0 012.19.216 2.297 2.297 0 01.86 1.048 2.328 2.328 0 01.177.893z"/><path fill="#5EBCB5" d="M166.567 151.355a2.317 2.317 0 01-.394 1.297 2.297 2.297 0 01-1.048.86 2.328 2.328 0 01-2.19-.216 2.345 2.345 0 01-.86-1.048 2.328 2.328 0 01.216-2.19 2.297 2.297 0 011.048-.86 2.328 2.328 0 012.19.216 2.297 2.297 0 01.86 1.048 2.328 2.328 0 01.178.893z"/><path fill="#5EBCB5" d="M165.789 149.909h.778v1.547h-.778v-1.547zm-3.89 0h.778v1.547h-.778v-1.547z"/><path fill="#6DE2DE" d="M166.574 149.912a2.317 2.317 0 01-.394 1.297 2.297 2.297 0 01-1.048.86 2.328 2.328 0 01-2.19-.216 2.345 2.345 0 01-.86-1.048 2.328 2.328 0 01.216-2.19 2.297 2.297 0 011.048-.86 2.328 2.328 0 012.19.216 2.345 2.345 0 01.86 1.048 2.328 2.328 0 01.178.893z"/><path fill="#E59623" d="M166.567 165.478a2.317 2.317 0 01-.394 1.297 2.297 2.297 0 01-1.048.86 2.328 2.328 0 01-2.19-.216 2.297 2.297 0 01-.86-1.048 2.328 2.328 0 01.216-2.19 2.297 2.297 0 011.048-.86 2.328 2.328 0 012.19.216 2.297 2.297 0 01.86 1.048 2.328 2.328 0 01.178.893z"/><path fill="#E59623" d="M165.789 164.032h.778v1.547h-.778v-1.547zm-3.89 0h.778v1.547h-.778v-1.547z"/><path fill="#FFB031" d="M166.574 164.035a2.317 2.317 0 01-.394 1.297 2.297 2.297 0 01-1.048.86 2.328 2.328 0 01-2.19-.216 2.297 2.297 0 01-.86-1.047 2.306 2.306 0 01-.178-.893 2.317 2.317 0 01.394-1.297 2.297 2.297 0 011.048-.86 2.328 2.328 0 012.19.216 2.297 2.297 0 01.86 1.048 2.328 2.328 0 01.178.892z"/><path fill="#D6566E" d="M166.567 157.946a2.317 2.317 0 01-.394 1.296 2.297 2.297 0 01-1.048.86 2.328 2.328 0 01-2.19-.216 2.297 2.297 0 01-.86-1.047 2.328 2.328 0 01.216-2.19 2.297 2.297 0 011.048-.86 2.328 2.328 0 012.19.216 2.297 2.297 0 01.86 1.047 2.328 2.328 0 01.178.894z"/><path fill="#D6566E" d="M165.789 156.5h.778v1.547h-.778V156.5zm-3.89 0h.778v1.547h-.778V156.5z"/><path fill="#FF7182" d="M166.574 156.503a2.317 2.317 0 01-.394 1.297 2.345 2.345 0 01-1.048.86 2.328 2.328 0 01-2.19-.216 2.297 2.297 0 01-.86-1.047 2.306 2.306 0 01-.178-.893 2.317 2.317 0 01.394-1.297 2.297 2.297 0 011.048-.86 2.328 2.328 0 012.19.216 2.297 2.297 0 01.86 1.048 2.328 2.328 0 01.178.892z"/><path fill="#57DD50" d="M166.567 173.011a2.317 2.317 0 01-.394 1.297 2.297 2.297 0 01-1.048.86 2.328 2.328 0 01-2.19-.216 2.297 2.297 0 01-.86-1.048 2.328 2.328 0 01.216-2.19 2.297 2.297 0 011.048-.86 2.328 2.328 0 012.19.216 2.297 2.297 0 01.86 1.048 2.328 2.328 0 01.178.893z"/><path fill="#57DD50" d="M165.789 171.565h.778v1.547h-.778v-1.547zm-3.89 0h.778v1.547h-.778v-1.547z"/><path fill="#68F964" d="M166.574 171.567a2.317 2.317 0 01-.394 1.297 2.297 2.297 0 01-1.048.86 2.328 2.328 0 01-2.19-.216 2.297 2.297 0 01-.86-1.048 2.328 2.328 0 01.216-2.19 2.297 2.297 0 011.048-.86 2.328 2.328 0 012.19.216 2.297 2.297 0 01.86 1.048 2.328 2.328 0 01.178.893z"/><path fill="#5EBCB5" d="M134.554 151.355a2.317 2.317 0 01-.394 1.297 2.297 2.297 0 01-1.048.86 2.328 2.328 0 01-2.19-.216 2.345 2.345 0 01-.86-1.048 2.328 2.328 0 01.216-2.19 2.297 2.297 0 011.048-.86 2.328 2.328 0 012.19.216 2.297 2.297 0 01.86 1.048 2.328 2.328 0 01.178.893z"/><path fill="#5EBCB5" d="M133.777 149.909h.778v1.547h-.778v-1.547zm-3.891 0h.778v1.547h-.778v-1.547z"/><path fill="#6DE2DE" d="M134.562 149.912a2.317 2.317 0 01-.394 1.297 2.297 2.297 0 01-1.048.86 2.328 2.328 0 01-2.19-.216 2.297 2.297 0 01-.86-1.048 2.328 2.328 0 01.216-2.19 2.297 2.297 0 011.048-.86 2.328 2.328 0 012.19.216 2.345 2.345 0 01.86 1.048 2.328 2.328 0 01.178.893z"/><path fill="#E59623" d="M134.554 165.478a2.317 2.317 0 01-.394 1.297 2.297 2.297 0 01-1.048.86 2.328 2.328 0 01-2.19-.216 2.297 2.297 0 01-.86-1.048 2.328 2.328 0 01.216-2.19 2.297 2.297 0 011.048-.86 2.328 2.328 0 012.19.216c.127.085.245.182.354.29s.205.226.29.354a2.337 2.337 0 01.394 1.297z"/><path fill="#E59623" d="M133.777 164.032h.778v1.547h-.778v-1.547zm-3.891 0h.778v1.547h-.778v-1.547z"/><path fill="#FFB031" d="M134.562 164.035a2.317 2.317 0 01-.394 1.297 2.297 2.297 0 01-1.048.86 2.328 2.328 0 01-2.19-.216 2.297 2.297 0 01-.86-1.047 2.328 2.328 0 01.216-2.19 2.297 2.297 0 011.048-.86 2.328 2.328 0 012.19.216 2.297 2.297 0 01.86 1.048 2.328 2.328 0 01.178.892z"/><path fill="#D6566E" d="M134.554 157.946a2.317 2.317 0 01-.394 1.296 2.297 2.297 0 01-1.048.86 2.328 2.328 0 01-2.19-.216 2.297 2.297 0 01-.86-1.047 2.328 2.328 0 01.216-2.19 2.297 2.297 0 011.048-.86 2.328 2.328 0 012.19.216 2.297 2.297 0 01.86 1.047 2.328 2.328 0 01.178.894z"/><path fill="#D6566E" d="M133.777 156.5h.778v1.547h-.778V156.5zm-3.891 0h.778v1.547h-.778V156.5z"/><path fill="#FF7182" d="M134.562 156.503a2.317 2.317 0 01-.394 1.297c-.085.127-.182.245-.29.354s-.226.205-.354.29a2.337 2.337 0 01-2.948-.29 2.297 2.297 0 01-.506-.757 2.328 2.328 0 01.216-2.19 2.297 2.297 0 011.048-.86 2.328 2.328 0 012.19.216 2.297 2.297 0 01.86 1.048 2.328 2.328 0 01.178.892z"/><path fill="#57DD50" d="M134.554 173.011a2.317 2.317 0 01-.394 1.297c-.085.127-.182.245-.29.354s-.226.205-.354.29a2.337 2.337 0 01-2.948-.29 2.297 2.297 0 01-.506-.758 2.328 2.328 0 01.216-2.19 2.297 2.297 0 011.048-.86 2.328 2.328 0 012.19.216 2.297 2.297 0 01.86 1.048 2.328 2.328 0 01.178.893z"/><path fill="#57DD50" d="M133.777 171.565h.778v1.547h-.778v-1.547zm-3.891 0h.778v1.547h-.778v-1.547z"/><path fill="#68F964" d="M134.562 171.567a2.317 2.317 0 01-.394 1.297 2.297 2.297 0 01-1.048.86 2.328 2.328 0 01-2.19-.216 2.297 2.297 0 01-.86-1.048 2.328 2.328 0 01.216-2.19 2.297 2.297 0 011.048-.86 2.328 2.328 0 012.19.216 2.297 2.297 0 01.86 1.048 2.328 2.328 0 01.178.893z"/><path fill="#D6D6D6" d="M129.87 182.572h4.708v7.532h-4.708z"/><path fill="#EFEFEF" d="M131.057 207.912v-29.106c0-.518.424-.942.942-.942h.451c.518 0 .942.424.942.942v29.106a.944.944 0 01-.941.941H132a.939.939 0 01-.869-.581.893.893 0 01-.074-.36z"/><path fill="#D6D6D6" d="M131.786 207.853v-28.986c0-.241.197-.438.438-.438s.438.197.438.438v28.986c0 .241-.197.438-.438.438s-.438-.198-.438-.438z"/><path fill="#EFEFEF" d="M129.87 181.631h4.708v7.532h-4.708z"/><path fill="#D6D6D6" d="M115.87 182.572h4.708v7.532h-4.708z"/><path fill="#EFEFEF" d="M117.057 207.912v-29.106c0-.518.424-.942.942-.942h.451c.518 0 .942.424.942.942v29.106a.939.939 0 01-.942.942h-.451a.939.939 0 01-.942-.942z"/><path fill="#D6D6D6" d="M117.786 207.853v-28.986a.426.426 0 01.129-.309.426.426 0 01.309-.129.426.426 0 01.309.129.426.426 0 01.129.309v28.986a.422.422 0 01-.129.309.426.426 0 01-.309.129c-.121-.001-.224-.044-.309-.129s-.128-.188-.129-.309z"/><path fill="#EFEFEF" d="M115.87 181.631h4.708v7.532h-4.708z"/><path fill="#D6D6D6" d="M145.87 182.572h4.708v7.532h-4.708z"/><path fill="#EFEFEF" d="M147.057 207.912v-29.106c0-.518.424-.942.942-.942h.451c.518 0 .942.424.942.942v29.106a.939.939 0 01-.942.942h-.451a.939.939 0 01-.942-.942z"/><path fill="#D6D6D6" d="M147.786 207.853v-28.986a.44.44 0 01.438-.438.44.44 0 01.438.438v28.986a.44.44 0 01-.438.438.44.44 0 01-.438-.438z"/><path fill="#EFEFEF" d="M145.87 181.631h4.708v7.532h-4.708z"/><path fill="#D6D6D6" d="M161.87 182.572h4.708v7.532h-4.708z"/><path fill="#EFEFEF" d="M163.057 207.912v-29.106c0-.518.424-.942.942-.942h.451c.518 0 .942.424.942.942v29.106a.944.944 0 01-.941.942H164a.939.939 0 01-.869-.581.9.9 0 01-.074-.361z"/><path fill="#D6D6D6" d="M163.786 207.853v-28.986c0-.241.197-.438.438-.438s.438.197.438.438v28.986c0 .241-.197.438-.438.438s-.438-.198-.438-.438z"/><path fill="#EFEFEF" d="M161.87 181.631h4.708v7.532h-4.708z"/><path fill="#D6D6D6" d="M190.883 182.63h4.683v7.492h-4.683z"/><path fill="#EFEFEF" d="M192.063 207.834v-28.951a.932.932 0 01.579-.865.92.92 0 01.358-.072h.449a.932.932 0 01.865.579.92.92 0 01.072.358v28.951a.943.943 0 01-.937.937H193a.943.943 0 01-.937-.937z"/><path fill="#D6D6D6" d="M192.789 207.775v-28.832a.425.425 0 01.137-.289.423.423 0 01.298-.117c.115 0 .214.039.298.117.084.078.13.175.137.289v28.832a.425.425 0 01-.137.289.423.423 0 01-.298.117.423.423 0 01-.298-.117.425.425 0 01-.137-.289z"/><path fill="#EFEFEF" d="M190.883 181.693h4.683v7.492h-4.683z"/><path fill="#D6D6D6" d="M177.883 157.299h4.683v8.648h-4.683z"/><path fill="#EFEFEF" d="M179.063 206.953v-56.189c0-1 .421-1.818.937-1.818h.449c.515 0 .937.818.937 1.818v56.189c0 1-.421 1.818-.937 1.818H180c-.516 0-.937-.818-.937-1.818z"/><path fill="#D6D6D6" d="M179.789 206.839v-55.958c0-.465.196-.845.435-.845s.435.38.435.845v55.958c0 .465-.196.845-.435.845s-.435-.382-.435-.845z"/><path fill="#EFEFEF" d="M195.602 132.67h-16.908a1.578 1.578 0 01-1.122-.467 1.576 1.576 0 01-.467-1.122v-12.828c0-.874.715-1.589 1.589-1.589h16.908c.874 0 1.589.715 1.589 1.589v12.829c0 .874-.715 1.588-1.589 1.588zm-17.719 23.548h4.683v8.648h-4.683v-8.648z"/></svg>