<svg version="1" xmlns="http://www.w3.org/2000/svg" viewBox="0 0 300 300"><path fill="#FFF" d="M149.999 300C67.29 300 0 232.71 0 150S67.29 0 149.999 0C232.71 0 300 67.29 300 150s-67.29 150-150.001 150"/><path fill="#FAE040" d="M290.812 150c0 77.768-63.045 140.812-140.813 140.812C72.232 290.812 9.188 227.769 9.188 150 9.188 72.232 72.232 9.188 150 9.188c77.768 0 140.812 63.044 140.812 140.812"/><path fill="#E5B36A" d="M159.787 97.545v-2.337l-5.799-19.604h-7.978l-5.799 19.563v2.379c0 .765.141 1.115.614 1.421l1.011.652c.224.146.487.223.755.223h14.816c.268 0 .529-.078.755-.223l1.011-.652c.474-.307.614-.84.614-1.422"/><path fill="#962C2C" d="M157.463 138.566l32.295 81.132v7.929c0 1.306-1.434 1.789-2.834 1.129l-36.925-17.411-36.924 17.411c-1.4.66-2.834-.269-2.834-1.547v-7.607l32.295-81.036c2.493-5.962 12.435-5.962 14.927 0z"/><path fill="#B53E3E" d="M157.463 130.637l32.236 88.743c.41 1.177-1.375 2.109-2.775 1.448l-36.925-17.413-36.924 17.413c-1.4.66-3.185-.272-2.774-1.448l32.235-88.743c2.493-5.962 12.435-5.962 14.927 0z"/><path fill="#FFEEF0" d="M177.192 201.241l-22.126-9.086-5.071-10.64h-19.97a.85.85 0 0 1-.799-1.141l13.311-36.65c2.496-5.965 12.433-5.965 14.927 0l20.59 56.688a.653.653 0 0 1-.862.829z"/><path fill="#DBC8CC" d="M156.516 159.092h-13.027a.492.492 0 0 1-.492-.492v-7.234c0-.272.22-.492.492-.492h13.027c.272 0 .492.22.492.492v7.234c0 .271-.22.492-.492.492z"/><path fill="#F2DADE" d="M156.516 157.95h-13.027a.491.491 0 0 1-.492-.491v-7.234c0-.272.22-.492.492-.492h13.027c.272 0 .492.22.492.492v7.234c0 .271-.22.491-.492.491z"/><path fill="#DBC8CC" d="M155.019 166.969h-10.037a1.48 1.48 0 0 1-1.479-1.479v-.882h12.994v.882c0 .817-.662 1.479-1.478 1.479z"/><path fill="#F2DADE" d="M155.019 166.086h-10.037a1.479 1.479 0 1 1 0-2.957h10.037a1.479 1.479 0 0 1 0 2.957z"/><path fill="#DBC8CC" d="M157.039 184.614H142.96a2.074 2.074 0 0 1-2.073-2.074v-1.238h18.225v1.238a2.072 2.072 0 0 1-2.073 2.074z"/><path fill="#F2DADE" d="M157.039 183.376H142.96a2.073 2.073 0 0 1 0-4.148h14.079a2.074 2.074 0 1 1 0 4.148z"/><path fill="#FFCD7D" d="M159.787 94.031l-5.59-21.982a1.46 1.46 0 0 0-1.415-1.1h-5.565a1.46 1.46 0 0 0-1.415 1.1l-5.59 21.982a1.395 1.395 0 0 0 .614 1.421l1.011.653c.224.145.487.222.755.222h14.816c.268 0 .529-.077.755-.222l1.011-.653c.473-.306.715-.867.613-1.421zm-5.515 5.115v54.318c0 .53-.194.948-.44.948h-7.66c-.245 0-.438-.418-.438-.948V99.146c0-.516.194-.948.438-.948h7.66c.246.001.44.433.44.948"/><path fill="#C69F61" d="M153.832 98.199h-7.66c-.245 0-.438.432-.438.948v1.604h8.538v-1.604c0-.516-.194-.948-.44-.948"/><path fill="#3F3F3F" d="M150.656 181.515V78.852a.656.656 0 0 0-1.312 0v102.663a.656.656 0 0 0 1.312 0m3.937 0V89.79a.656.656 0 0 0-1.312 0v91.725a.656.656 0 0 0 1.312 0m-7.875 0v-97.25a.656.656 0 0 0-1.312 0v97.25a.656.656 0 0 0 1.312 0"/><path fill="#F2DADE" d="M168.102 181.925a2.996 2.996 0 1 1-5.991-.001 2.996 2.996 0 0 1 5.991.001z"/><path fill="#4F4F4F" d="M167.494 181.314v.611a2.39 2.39 0 0 1-4.778 0v-.611c0-.469.135-.905.369-1.275h.558c.405-.315.911-.502 1.462-.502s1.057.187 1.462.502h.558c.236.37.369.806.369 1.275z"/><path fill="#686868" d="M167.494 181.314a2.39 2.39 0 1 1-4.779-.003 2.39 2.39 0 0 1 4.779.003z"/><path fill="#F2DADE" d="M165.105 173.694a2.996 2.996 0 1 1-5.992 0 2.996 2.996 0 0 1 5.992 0z"/><path fill="#4F4F4F" d="M164.497 173.083v.611a2.39 2.39 0 0 1-4.777 0v-.611c0-.468.133-.905.369-1.274h.558a2.372 2.372 0 0 1 2.923 0h.558c.236.369.369.805.369 1.274z"/><path fill="#686868" d="M164.497 173.083a2.39 2.39 0 1 1-2.388-2.389c.85 0 1.598.446 2.019 1.115.236.369.369.805.369 1.274z"/><path fill="#F2DADE" d="M171.097 190.153a2.997 2.997 0 1 1-5.994 0 2.997 2.997 0 0 1 5.994 0z"/><path fill="#4F4F4F" d="M170.49 189.541v.611a2.39 2.39 0 0 1-4.777 0v-.611c0-.468.133-.905.369-1.274h.558a2.37 2.37 0 0 1 2.923 0h.558c.235.369.369.807.369 1.274z"/><path fill="#686868" d="M170.49 189.541a2.39 2.39 0 1 1-4.779 0 2.39 2.39 0 0 1 4.779 0z"/></svg>