<svg version="1" xmlns="http://www.w3.org/2000/svg" viewBox="0 0 300 300"><path fill="#FFF" d="M149.999 300C67.29 300 0 232.71 0 150S67.29 0 149.999 0C232.71 0 300 67.29 300 150s-67.29 150-150.001 150"/><path fill="#86BF5A" d="M290.812 150c0 77.769-63.043 140.812-140.812 140.812S9.188 227.769 9.188 150C9.188 72.232 72.232 9.188 150 9.188S290.812 72.232 290.812 150"/><path fill="#606060" d="M144.843 94.29c-2.978-.636-5.797.074-7.382 1.618L77.786 81.221l-.246-.053a4.186 4.186 0 1 0-1.507 8.233l60.452 11.064c.813 2.059 3.099 3.859 6.08 4.496 4.127.881 7.982-.794 8.611-3.741.629-2.947-2.207-6.05-6.333-6.93zm12.75-5.871c2.867.612 5.581-.071 7.107-1.558l57.457 14.141.237.051a4.03 4.03 0 1 0 1.45-7.927L165.64 82.472c-.783-1.982-2.983-3.716-5.854-4.329-3.973-.848-7.685.765-8.291 3.602-.605 2.838 2.125 5.826 6.098 6.674z"/><path fill="#565656" d="M202.595 175.773a.985.985 0 0 1-.984-.984V124.19a.985.985 0 0 1 1.968 0v50.599a.983.983 0 0 1-.984.984z"/><path fill="#3F3F3F" d="M204.106 123.048h-1.247a.265.265 0 0 0-.264.264v3.667l-.003 1.02s1.777-.552 1.777-1.02v-3.667a.264.264 0 0 0-.263-.264z"/><path fill="#4C4C4C" d="M204.106 122.884h-1.247a.264.264 0 0 0-.264.264v3.667c0 .145.119.263.264.263h1.247a.263.263 0 0 0 .263-.263v-3.667a.264.264 0 0 0-.263-.264z"/><path fill="#3F3F3F" d="M203.922 172.152h-1.093a.231.231 0 0 0-.231.231v3.216l-.003 2.299s1.558 0 1.558-2.299v-3.216a.231.231 0 0 0-.231-.231z"/><path fill="#4C4C4C" d="M203.922 172.007h-1.093a.231.231 0 0 0-.231.231v3.216c0 .128.104.231.231.231h1.093a.23.23 0 0 0 .231-.231v-3.216a.231.231 0 0 0-.231-.231z"/><path fill="#565656" d="M97.405 175.773a.985.985 0 0 1-.984-.984V124.19a.985.985 0 0 1 1.968 0v50.599a.985.985 0 0 1-.984.984z"/><path fill="#3F3F3F" d="M95.894 123.048h1.246c.146 0 .264.119.264.264v3.667l.003 1.02s-1.777-.552-1.777-1.02v-3.667c0-.145.118-.264.264-.264z"/><path fill="#4C4C4C" d="M95.894 122.884h1.246c.146 0 .264.118.264.264v3.667a.264.264 0 0 1-.264.263h-1.246a.264.264 0 0 1-.264-.263v-3.667c0-.146.118-.264.264-.264z"/><path fill="#3F3F3F" d="M96.078 172.152h1.093c.128 0 .231.104.231.231v3.216l.003 2.299s-1.559 0-1.559-2.299v-3.216c0-.127.104-.231.232-.231z"/><path fill="#4C4C4C" d="M96.078 172.007h1.093c.128 0 .231.104.231.231v3.216a.23.23 0 0 1-.231.231h-1.093a.23.23 0 0 1-.231-.231v-3.216a.23.23 0 0 1 .231-.231z"/><path fill="#FFF" d="M203.291 121.255v5.548H96.709v-5.548c0-11.624 23.859-21.047 53.291-21.047s53.291 9.423 53.291 21.047"/><path fill="#E2E2E2" d="M203.291 127.239c0 11.624-23.859 21.047-53.291 21.047s-53.291-9.423-53.291-21.047 23.859-21.046 53.291-21.046 53.291 9.422 53.291 21.046"/><path fill="#FF7182" d="M199.002 130.097c-.003-10.541-21.94-19.085-49.002-19.085-27.059 0-48.995 8.544-49.002 19.085l.003 41.935.927 3.435 96.154-.008.917-3.416.003-41.946"/><path fill="#80B756" d="M199.002 135.525l-.001 2.787.001.089v-2.876"/><path fill="#D8D8D8" d="M150 111.012c-27.059 0-48.995 8.544-49.002 19.085.007-10.541 21.943-19.085 49.002-19.085 27.062 0 48.999 8.544 49.002 19.085v5.429-5.429c-.003-10.541-21.94-19.085-49.002-19.085"/><path fill="#F46C7C" d="M150 111.012c-27.059 0-48.995 8.544-49.002 19.085l.001 8.305c.013-10.539 21.947-19.08 49.002-19.08 26.982 0 48.868 8.493 49.001 18.99v-8.215c-.003-10.541-21.94-19.085-49.002-19.085"/><path fill="#FFF" d="M203.29 172.69v5.547H96.709v-5.547c0-11.623 23.859-21.047 53.291-21.047s53.29 9.424 53.29 21.047z"/><ellipse fill="#E2E2E2" cx="150" cy="178.745" rx="53.291" ry="21.047"/><path fill="#565656" d="M150 155.749a1.313 1.313 0 0 1-1.313-1.313v-51.151a1.313 1.313 0 0 1 2.626 0v51.151c0 .726-.588 1.313-1.313 1.313z"/><path fill="#4C4C4C" d="M150.252 152.333l1.699 1.047v.491l-.463 1.837a.47.47 0 0 1-.45.296h-2.077a.472.472 0 0 1-.45-.296l-.461-1.852v-.468l1.698-1.055a.43.43 0 0 1 .504 0z"/><path fill="#606060" d="M150.252 151.944l1.521 1.106a.428.428 0 0 1 .156.479l-.581 1.789a.429.429 0 0 1-.408.296h-1.881a.429.429 0 0 1-.408-.296l-.581-1.789a.426.426 0 0 1 .156-.479l1.522-1.106a.43.43 0 0 1 .504 0z"/><path fill="#4C4C4C" d="M149.748 105.575l-1.699-1.233v-.871l.602-1.27a.43.43 0 0 1 .408-.296h1.881c.186 0 .351.12.408.296l.601 1.27v.871l-1.697 1.233a.43.43 0 0 1-.504 0z"/><path fill="#606060" d="M149.748 104.956l-1.522-1.106a.43.43 0 0 1-.156-.479l.581-1.789a.429.429 0 0 1 .408-.296h1.881c.186 0 .351.119.408.296l.581 1.789a.428.428 0 0 1-.155.479l-1.522 1.106a.43.43 0 0 1-.504 0z"/><path fill="#565656" d="M114.16 161.315a1.313 1.313 0 0 1-1.313-1.313v-51.151a1.313 1.313 0 0 1 2.626 0v51.151c0 .726-.588 1.313-1.313 1.313z"/><path fill="#4C4C4C" d="M113.898 157.699l-.856 1.761a.5.5 0 0 0-.097.482l-.024 1.486s.736.144 1.012.144l1.5-.524a.497.497 0 0 0 .311-.318l.474-1.459a.5.5 0 0 0-.182-.559l-1.202-.872c-.254 0-.936-.141-.936-.141z"/><path fill="#606060" d="M113.488 157.866l-1.251 1.448a.5.5 0 0 0-.097.482l.418 1.286c.087.267.376.41.641.318l1.429-.499a.5.5 0 0 0 .311-.318l.474-1.459a.499.499 0 0 0-.182-.559l-1.07-.778a.501.501 0 0 0-.673.079z"/><path fill="#4C4C4C" d="M113.92 106.991l-.847 1.792a.502.502 0 0 0-.097.482l.191 1.432s.521.197.797.197l1.499-.524a.497.497 0 0 0 .311-.318l.474-1.459a.5.5 0 0 0-.181-.559l-1.202-.871-.945-.172z"/><path fill="#606060" d="M113.488 107.156l-1.251 1.448a.498.498 0 0 0-.097.481l.418 1.286c.087.267.376.41.641.318l1.429-.498a.502.502 0 0 0 .311-.318l.474-1.459c.067-.206-.006-.432-.152-.538l-1.07-.777c-.241-.173-.533-.139-.703.057z"/><path fill="#565656" d="M185.84 161.315a1.313 1.313 0 0 1-1.313-1.313v-51.151a1.313 1.313 0 0 1 2.626 0v51.151a1.313 1.313 0 0 1-1.313 1.313z"/><path fill="#4C4C4C" d="M186.101 157.627l.857 1.761a.502.502 0 0 1 .097.482l.025 1.486s-.737.144-1.013.144l-1.499-.524a.497.497 0 0 1-.311-.318l-.474-1.459a.5.5 0 0 1 .181-.559l1.202-.872c.254 0 .935-.141.935-.141z"/><path fill="#606060" d="M186.512 157.794l1.251 1.448a.502.502 0 0 1 .097.482l-.418 1.286a.5.5 0 0 1-.64.318l-1.429-.499a.5.5 0 0 1-.311-.318l-.474-1.459a.499.499 0 0 1 .182-.559l1.07-.778a.501.501 0 0 1 .672.079z"/><path fill="#4C4C4C" d="M186.079 106.991l.847 1.792a.5.5 0 0 1 .097.482l-.191 1.432s-.521.197-.797.197l-1.5-.524a.5.5 0 0 1-.311-.318l-.474-1.459a.499.499 0 0 1 .182-.559l1.202-.871.945-.172z"/><path fill="#606060" d="M186.512 107.156l1.251 1.448a.5.5 0 0 1 .097.481l-.418 1.286a.5.5 0 0 1-.64.318l-1.429-.498a.502.502 0 0 1-.311-.318l-.474-1.459c-.067-.206.006-.432.153-.538l1.07-.777c.239-.173.531-.139.701.057z"/></svg>