<svg version="1" xmlns="http://www.w3.org/2000/svg" viewBox="0 0 300 300"><path fill="#FFF" d="M149.999 300C67.29 300 0 232.71 0 150S67.29 0 149.999 0C232.71 0 300 67.29 300 150s-67.29 150-150.001 150"/><path fill="#FBBC4B" d="M290.812 150c0 77.768-63.044 140.813-140.812 140.813C72.232 290.813 9.188 227.768 9.188 150 9.188 72.231 72.232 9.188 150 9.188c77.768 0 140.812 63.043 140.812 140.812"/><path fill="#874C32" d="M183.242 178.818v5.76c0 18.36-14.886 25.712-33.237 25.712-18.36 0-33.246-7.352-33.246-25.712v-5.76c0-1.637.174-3.274.502-4.884l7.141-8.813a50.444 50.444 0 0 1 3.32-3.804 29.545 29.545 0 0 1-1.93-3.639c-1.235-2.771-1.966-5.696-1.966-8.65v-5.76c0-1.509.128-2.926.384-4.252h51.579c.256 1.326.384 2.743.384 4.252v5.76c0 2.954-.732 5.879-1.957 8.65a29.614 29.614 0 0 1-1.939 3.639c1.646 1.701 4.563 5.459 4.563 5.459l5.111 4.17v.009c.825 2.568 1.291 5.202 1.291 7.863z"/><path fill="#9B5F3E" d="M183.242 178.818c0 18.36-14.886 25.712-33.237 25.712-18.36 0-33.246-7.352-33.246-25.712 0-1.637.174-3.274.502-4.884 1.198-5.879 4.416-11.483 8.531-16.257l.023-.027c1.063-1.248 1.313-2.997.572-4.461-1.592-3.147-2.562-6.506-2.562-9.923 0-1.509.128-2.926.384-4.252 2.103-11.356 12.847-15.992 25.794-15.992 12.938 0 23.682 4.635 25.785 15.992.256 1.326.384 2.743.384 4.252 0 3.414-.968 6.771-2.558 9.916a4.028 4.028 0 0 0 .582 4.472l.019.022c3.402 3.959 6.199 8.485 7.735 13.268v.009c.826 2.57 1.292 5.204 1.292 7.865z"/><path fill="#4C4C4C" d="M164.375 180.233h-28.756a.995.995 0 0 1-.994-.995v-3.513c0-.549.445-.995.994-.995h28.756c.549 0 .994.446.994.995v3.513a.995.995 0 0 1-.994.995z"/><path fill="#565656" d="M164.375 178.275h-28.756a.995.995 0 0 1-.994-.995v-3.513c0-.549.445-.995.994-.995h28.756c.549 0 .994.446.994.995v3.513a.995.995 0 0 1-.994.995z"/><path fill="#874C32" d="M156.965 179.253H143.03a.702.702 0 0 1-.702-.702v-4.096c0-.388.314-.702.702-.702h13.935c.388 0 .702.314.702.702v4.096a.702.702 0 0 1-.702.702z"/><path fill="#965A3C" d="M156.965 177.187H143.03a.702.702 0 0 1-.702-.702v-4.098c0-.387.314-.701.702-.701h13.935c.388 0 .702.314.702.701v4.098a.702.702 0 0 1-.702.702z"/><path fill="#874C32" d="M154.975 97.442h-9.955a1.275 1.275 0 0 1-1.268-1.147l-1.815-17.986h16.121l-1.815 17.986a1.275 1.275 0 0 1-1.268 1.147"/><path fill="#9B5F3E" d="M155.155 74.043H144.84a3.021 3.021 0 0 0-3.001 3.369l1.898 16.381a1.274 1.274 0 0 0 1.266 1.128h9.989c.647 0 1.191-.485 1.266-1.128l1.898-16.381a3.021 3.021 0 0 0-3.001-3.369z"/><circle fill="#565656" cx="149.878" cy="146.565" r="11.404"/><path fill="#4C4C4C" d="M149.879 139.965c5.473 0 10.041 3.858 11.145 9.001.166-.775.258-1.577.258-2.402 0-6.298-5.106-11.403-11.403-11.403-6.299 0-11.404 5.105-11.404 11.403 0 .825.092 1.627.258 2.402 1.104-5.142 5.672-9.001 11.146-9.001z"/><path fill="#874C32" d="M154.544 136.152a11.242 11.242 0 0 0-4.66-.997c-1.575 0-3.071.315-4.436.892L146.682 97v-.013c0-.354.079-.67.21-.814l.131-.065h5.945l.197.144.092.249c.026.144.053.315.053.499l.013.42 1.221 38.732"/><path fill="#47170A" d="M152.976 96.098h-5.957c-.191 0-.341.407-.341.893v.133l.004-.124v-.013c0-.354.079-.67.21-.814l.131-.065h5.945l.197.144.092.249c.026.144.053.315.053.499l.007.23v-.239c0-.486-.15-.893-.341-.893"/><path fill="#47170A" d="M152.969 96.107h-5.945l-.131.065c-.131.144-.21.459-.21.814V97l-.004.124v2.833h6.64V97.23l-.009-.23c0-.184-.026-.354-.053-.499l-.092-.249-.196-.145"/><path fill="#3F3F3F" d="M148.029 175.308a.656.656 0 0 1-.656-.656V84.841a.656.656 0 1 1 1.312 0v89.811a.656.656 0 0 1-.656.656zm3.937 0a.656.656 0 0 1-.656-.656V89.233a.656.656 0 1 1 1.312 0v85.419a.655.655 0 0 1-.656.656z"/></svg>