<?xml version="1.0" encoding="utf-8"?>
<!-- Generator: Adobe Illustrator 26.0.0, SVG Export Plug-In . SVG Version: 6.00 Build 0)  -->
<svg version="1.0" id="Camada_1" xmlns="http://www.w3.org/2000/svg" xmlns:xlink="http://www.w3.org/1999/xlink" x="0px" y="0px"
	 viewBox="0 0 300 300" enable-background="new 0 0 300 300" xml:space="preserve">
<ellipse transform="matrix(0.7071 -0.7071 0.7071 0.7071 -62.1321 149.9998)" fill="#FFFFFF" cx="150" cy="150" rx="150" ry="150"/>
<circle fill="#EB595B" cx="150" cy="150" r="140.812"/>
<g>
	<path fill="#633C1C" d="M210.839,216.626H89.161c-1.23,0-2.226-0.939-2.226-2.099V109.923h126.129v104.604
		C213.065,215.687,212.069,216.626,210.839,216.626z"/>
	<path fill="#7C4923" d="M210.839,207.912H89.294c-1.304,0-2.359-1.266-2.359-2.827V99.645c0-6.215,5.038-11.253,11.253-11.253
		h103.622c6.215,0,11.253,5.038,11.253,11.253v105.6C213.065,206.719,212.069,207.912,210.839,207.912z"/>
	<g>
		<rect x="97.319" y="120.054" fill="#0A0A0A" width="105.362" height="88.237"/>
		<g>
			<g>
				<g>
					<path fill="#E2E2E2" d="M158.88,212.275h-18.564c-0.424,0-0.767-0.322-0.767-0.721v-48.28h20.099v48.279
						C159.648,211.952,159.304,212.275,158.88,212.275z"/>
					<path fill="#FFFFFF" d="M158.88,207.813h-18.564c-0.424,0-0.767-0.322-0.767-0.721v-43.818h20.099v43.817
						C159.648,207.49,159.304,207.813,158.88,207.813z"/>
				</g>
				<g>
					<path fill="#E2E2E2" d="M180.396,212.275h-18.564c-0.424,0-0.767-0.322-0.767-0.721v-48.28h20.099v48.279
						C181.164,211.952,180.82,212.275,180.396,212.275z"/>
					<path fill="#FFFFFF" d="M180.396,207.813h-18.564c-0.424,0-0.767-0.322-0.767-0.721v-43.818h20.099v43.817
						C181.164,207.49,180.82,207.813,180.396,207.813z"/>
				</g>
				<g>
					<path fill="#E2E2E2" d="M201.914,212.275H183.35c-0.424,0-0.767-0.322-0.767-0.721v-48.28h20.099v48.279
						C202.681,211.952,202.337,212.275,201.914,212.275z"/>
					<path fill="#FFFFFF" d="M201.914,207.813H183.35c-0.424,0-0.767-0.322-0.767-0.721v-43.818h20.099v43.817
						C202.681,207.49,202.337,207.813,201.914,207.813z"/>
				</g>
			</g>
			<g>
				<path fill="#0A0A0A" d="M166.199,192.448h-11.674c-0.081,0-0.146-0.063-0.146-0.141v-23.959h11.965v23.959
					C166.344,192.384,166.279,192.448,166.199,192.448z"/>
				<path fill="#212121" d="M166.199,187.862h-11.674c-0.081,0-0.146-0.063-0.146-0.141v-25.402h11.965v25.402
					C166.344,187.799,166.279,187.862,166.199,187.862z"/>
			</g>
			<g>
				<path fill="#0A0A0A" d="M187.481,192.448h-11.674c-0.081,0-0.146-0.063-0.146-0.141v-23.959h11.965v23.959
					C187.627,192.384,187.561,192.448,187.481,192.448z"/>
				<path fill="#212121" d="M187.481,187.862h-11.674c-0.081,0-0.146-0.063-0.146-0.141v-25.402h11.965v25.402
					C187.627,187.799,187.561,187.862,187.481,187.862z"/>
			</g>
		</g>
		<g>
			<g>
				<g>
					<path fill="#E2E2E2" d="M158.88,169.054h-18.564c-0.424,0-0.767-0.322-0.767-0.721v-48.28h20.099v48.279
						C159.648,168.731,159.304,169.054,158.88,169.054z"/>
					<path fill="#FFFFFF" d="M158.88,164.592h-18.564c-0.424,0-0.767-0.322-0.767-0.721v-43.818h20.099v43.817
						C159.648,164.269,159.304,164.592,158.88,164.592z"/>
				</g>
				<g>
					<path fill="#E2E2E2" d="M180.396,169.054h-18.564c-0.424,0-0.767-0.322-0.767-0.721v-48.28h20.099v48.279
						C181.164,168.731,180.82,169.054,180.396,169.054z"/>
					<path fill="#FFFFFF" d="M180.396,164.592h-18.564c-0.424,0-0.767-0.322-0.767-0.721v-43.818h20.099v43.817
						C181.164,164.269,180.82,164.592,180.396,164.592z"/>
				</g>
				<g>
					<path fill="#E2E2E2" d="M201.914,169.054H183.35c-0.424,0-0.767-0.322-0.767-0.721v-48.28h20.099v48.279
						C202.681,168.731,202.337,169.054,201.914,169.054z"/>
					<path fill="#FFFFFF" d="M201.914,164.592H183.35c-0.424,0-0.767-0.322-0.767-0.721v-43.818h20.099v43.817
						C202.681,164.269,202.337,164.592,201.914,164.592z"/>
				</g>
			</g>
			<g>
				<path fill="#0A0A0A" d="M166.199,149.227h-11.674c-0.081,0-0.146-0.063-0.146-0.141v-23.959h11.965v23.959
					C166.344,149.164,166.279,149.227,166.199,149.227z"/>
				<path fill="#212121" d="M166.199,144.641h-11.674c-0.081,0-0.146-0.063-0.146-0.141v-25.402h11.965v25.402
					C166.344,144.579,166.279,144.641,166.199,144.641z"/>
			</g>
			<g>
				<path fill="#0A0A0A" d="M187.481,149.227h-11.674c-0.081,0-0.146-0.063-0.146-0.141v-23.959h11.965v23.959
					C187.627,149.164,187.561,149.227,187.481,149.227z"/>
				<path fill="#212121" d="M187.481,144.641h-11.674c-0.081,0-0.146-0.063-0.146-0.141v-25.402h11.965v25.402
					C187.627,144.579,187.561,144.641,187.481,144.641z"/>
			</g>
		</g>
		<g>
			<g>
				<g>
					<path fill="#0A0A0A" d="M116.65,212.362H98.086c-0.424,0-0.767-0.322-0.767-0.721v-48.28h20.099v48.279
						C117.418,212.039,117.074,212.362,116.65,212.362z"/>
					<path fill="#212121" d="M116.65,207.9H98.086c-0.424,0-0.767-0.322-0.767-0.721v-43.818h20.099v43.817
						C117.418,207.577,117.074,207.9,116.65,207.9z"/>
				</g>
				<g>
					<path fill="#0A0A0A" d="M137.688,212.362h-18.564c-0.424,0-0.767-0.322-0.767-0.721v-48.28h20.099v48.279
						C138.455,212.039,138.111,212.362,137.688,212.362z"/>
					<path fill="#212121" d="M137.688,207.9h-18.564c-0.424,0-0.767-0.322-0.767-0.721v-43.818h20.099v43.817
						C138.455,207.577,138.111,207.9,137.688,207.9z"/>
				</g>
			</g>
			<g>
				<path fill="#E2E2E2" d="M123.255,193.49h-11.674c-0.081,0-0.146-0.063-0.146-0.141V169.39H123.4v23.959
					C123.401,193.427,123.335,193.49,123.255,193.49z"/>
				<path fill="#FFFFFF" d="M123.255,188.904h-11.674c-0.081,0-0.146-0.063-0.146-0.141v-25.402H123.4v25.402
					C123.401,188.842,123.335,188.904,123.255,188.904z"/>
			</g>
		</g>
		<g>
			<g>
				<g>
					<path fill="#0A0A0A" d="M116.65,169.054H98.086c-0.424,0-0.767-0.322-0.767-0.721v-48.28h20.099v48.279
						C117.418,168.731,117.074,169.054,116.65,169.054z"/>
					<path fill="#212121" d="M116.65,164.592H98.086c-0.424,0-0.767-0.322-0.767-0.721v-43.818h20.099v43.817
						C117.418,164.269,117.074,164.592,116.65,164.592z"/>
				</g>
				<g>
					<path fill="#0A0A0A" d="M137.688,169.054h-18.564c-0.424,0-0.767-0.322-0.767-0.721v-48.28h20.099v48.279
						C138.455,168.731,138.111,169.054,137.688,169.054z"/>
					<path fill="#212121" d="M137.688,164.592h-18.564c-0.424,0-0.767-0.322-0.767-0.721v-43.818h20.099v43.817
						C138.455,164.269,138.111,164.592,137.688,164.592z"/>
				</g>
			</g>
			<g>
				<path fill="#E2E2E2" d="M123.255,150.182h-11.674c-0.081,0-0.146-0.063-0.146-0.141v-23.959H123.4v23.959
					C123.401,150.119,123.335,150.182,123.255,150.182z"/>
				<path fill="#FFFFFF" d="M123.255,145.596h-11.674c-0.081,0-0.146-0.063-0.146-0.141v-25.402H123.4v25.402
					C123.401,145.534,123.335,145.596,123.255,145.596z"/>
			</g>
		</g>
	</g>
	<g>
		<path fill="#D8D8D8" d="M97.024,119.939V99.467c0-1.021,0.827-1.848,1.848-1.848h102.256c1.021,0,1.848,0.827,1.848,1.848v20.472
			H97.024z"/>
		<circle fill="#EDEDED" cx="111.132" cy="108.651" r="6.72"/>
		<path fill="#4F4F4F" d="M116.491,107.279v1.372c0,2.958-2.4,5.358-5.358,5.358c-2.958,0-5.358-2.4-5.358-5.358v-1.372
			c0-1.05,0.3-2.029,0.829-2.858h1.25c0.907-0.707,2.043-1.129,3.279-1.129c1.236,0,2.372,0.422,3.279,1.129h1.25
			C116.191,105.25,116.491,106.229,116.491,107.279z"/>
		<path fill="#686868" d="M116.491,107.279c0,2.958-2.4,5.358-5.358,5.358c-2.958,0-5.358-2.4-5.358-5.358
			c0-1.05,0.3-2.029,0.829-2.858c0.943-1.5,2.622-2.5,4.529-2.5s3.586,1,4.529,2.5C116.191,105.25,116.491,106.229,116.491,107.279z
			"/>
		<g>
			<g>
				<path fill="#EDEDED" d="M132.68,116.518c-0.892,0-1.618-0.726-1.618-1.618v-12.508c0-0.892,0.726-1.618,1.618-1.618
					s1.618,0.726,1.618,1.618V114.9C134.297,115.792,133.572,116.518,132.68,116.518z"/>
				<path fill="#D8D8D8" d="M132.68,115.439c-0.298,0-0.539-0.241-0.539-0.539v-12.508c0-0.298,0.241-0.539,0.539-0.539
					s0.539,0.241,0.539,0.539V114.9C133.219,115.198,132.978,115.439,132.68,115.439z"/>
				<g>
					<path fill="#4F4F4F" d="M134.546,105.531v0.478c0,1.03-0.836,1.866-1.866,1.866s-1.866-0.836-1.866-1.866v-0.478
						c0-0.366,0.104-0.707,0.289-0.995h0.435c0.316-0.246,0.712-0.393,1.142-0.393s0.826,0.147,1.142,0.393h0.435
						C134.441,104.825,134.546,105.166,134.546,105.531z"/>
					<path fill="#686868" d="M134.546,105.531c0,1.03-0.836,1.866-1.866,1.866s-1.866-0.836-1.866-1.866
						c0-0.366,0.104-0.707,0.289-0.995c0.328-0.523,0.913-0.871,1.578-0.871s1.249,0.348,1.578,0.871
						C134.441,104.825,134.546,105.166,134.546,105.531z"/>
				</g>
			</g>
			<g>
				<path fill="#EDEDED" d="M125.935,100.774c0.892,0,1.618,0.726,1.618,1.618V114.9c0,0.892-0.726,1.618-1.618,1.618
					s-1.618-0.726-1.618-1.618v-12.508C124.317,101.5,125.042,100.774,125.935,100.774z"/>
				<path fill="#D8D8D8" d="M125.935,101.852c0.298,0,0.539,0.241,0.539,0.539V114.9c0,0.298-0.241,0.539-0.539,0.539
					s-0.539-0.241-0.539-0.539v-12.508C125.395,102.094,125.637,101.852,125.935,101.852z"/>
				<g>
					<path fill="#4F4F4F" d="M124.068,111.76v-0.478c0-1.03,0.836-1.866,1.866-1.866s1.866,0.836,1.866,1.866v0.478
						c0,0.366-0.104,0.707-0.289,0.995h-0.435c-0.316,0.246-0.712,0.393-1.142,0.393s-0.826-0.147-1.142-0.393h-0.435
						C124.173,112.467,124.068,112.126,124.068,111.76z"/>
					<path fill="#686868" d="M124.068,111.76c0-1.03,0.836-1.866,1.866-1.866s1.866,0.836,1.866,1.866
						c0,0.366-0.104,0.707-0.289,0.995c-0.328,0.523-0.913,0.871-1.578,0.871s-1.249-0.348-1.578-0.871
						C124.173,112.467,124.068,112.126,124.068,111.76z"/>
				</g>
			</g>
			<g>
				<path fill="#EDEDED" d="M139.424,100.774c0.892,0,1.618,0.726,1.618,1.618V114.9c0,0.892-0.726,1.618-1.618,1.618
					c-0.892,0-1.618-0.726-1.618-1.618v-12.508C137.806,101.5,138.532,100.774,139.424,100.774z"/>
				<path fill="#D8D8D8" d="M139.424,101.852c0.298,0,0.539,0.241,0.539,0.539V114.9c0,0.298-0.241,0.539-0.539,0.539
					c-0.298,0-0.539-0.241-0.539-0.539v-12.508C138.885,102.094,139.126,101.852,139.424,101.852z"/>
				<g>
					<path fill="#4F4F4F" d="M137.558,111.76v-0.478c0-1.03,0.836-1.866,1.866-1.866c1.03,0,1.866,0.836,1.866,1.866v0.478
						c0,0.366-0.104,0.707-0.289,0.995h-0.435c-0.316,0.246-0.712,0.393-1.142,0.393c-0.43,0-0.826-0.147-1.142-0.393h-0.435
						C137.663,112.467,137.558,112.126,137.558,111.76z"/>
					<path fill="#686868" d="M137.558,111.76c0-1.03,0.836-1.866,1.866-1.866c1.03,0,1.866,0.836,1.866,1.866
						c0,0.366-0.104,0.707-0.289,0.995c-0.328,0.523-0.913,0.871-1.578,0.871c-0.664,0-1.249-0.348-1.578-0.871
						C137.663,112.467,137.558,112.126,137.558,111.76z"/>
				</g>
			</g>
			<g>
				<path fill="#EDEDED" d="M146.169,116.518c-0.892,0-1.618-0.726-1.618-1.618v-12.508c0-0.892,0.726-1.618,1.618-1.618
					s1.618,0.726,1.618,1.618V114.9C147.787,115.792,147.061,116.518,146.169,116.518z"/>
				<path fill="#D8D8D8" d="M146.169,115.439c-0.298,0-0.539-0.241-0.539-0.539v-12.508c0-0.298,0.241-0.539,0.539-0.539
					s0.539,0.241,0.539,0.539V114.9C146.709,115.198,146.467,115.439,146.169,115.439z"/>
				<g>
					<path fill="#4F4F4F" d="M148.036,105.531v0.478c0,1.03-0.836,1.866-1.866,1.866s-1.866-0.836-1.866-1.866v-0.478
						c0-0.366,0.104-0.707,0.289-0.995h0.435c0.316-0.246,0.712-0.393,1.142-0.393s0.826,0.147,1.142,0.393h0.435
						C147.931,104.825,148.036,105.166,148.036,105.531z"/>
					<path fill="#686868" d="M148.036,105.531c0,1.03-0.836,1.866-1.866,1.866s-1.866-0.836-1.866-1.866
						c0-0.366,0.104-0.707,0.289-0.995c0.328-0.523,0.913-0.871,1.578-0.871s1.249,0.348,1.578,0.871
						C147.931,104.825,148.036,105.166,148.036,105.531z"/>
				</g>
			</g>
			<g>
				<path fill="#EDEDED" d="M152.914,100.774c0.892,0,1.618,0.726,1.618,1.618V114.9c0,0.892-0.726,1.618-1.618,1.618
					c-0.892,0-1.618-0.726-1.618-1.618v-12.508C151.296,101.5,152.022,100.774,152.914,100.774z"/>
				<path fill="#D8D8D8" d="M152.914,101.852c0.298,0,0.539,0.241,0.539,0.539V114.9c0,0.298-0.241,0.539-0.539,0.539
					c-0.298,0-0.539-0.241-0.539-0.539v-12.508C152.375,102.094,152.616,101.852,152.914,101.852z"/>
				<g>
					<path fill="#4F4F4F" d="M151.048,111.76v-0.478c0-1.03,0.836-1.866,1.866-1.866c1.03,0,1.866,0.836,1.866,1.866v0.478
						c0,0.366-0.104,0.707-0.289,0.995h-0.435c-0.316,0.246-0.712,0.393-1.142,0.393c-0.43,0-0.826-0.147-1.142-0.393h-0.435
						C151.152,112.467,151.048,112.126,151.048,111.76z"/>
					<path fill="#686868" d="M151.048,111.76c0-1.03,0.836-1.866,1.866-1.866c1.03,0,1.866,0.836,1.866,1.866
						c0,0.366-0.104,0.707-0.289,0.995c-0.328,0.523-0.913,0.871-1.578,0.871c-0.664,0-1.249-0.348-1.578-0.871
						C151.152,112.467,151.048,112.126,151.048,111.76z"/>
				</g>
			</g>
		</g>
		<g>
			<path fill="#4F4F4F" d="M164.851,115.395h-0.828c-2.769,0-5.034-2.265-5.034-5.034v-0.828c0-2.769,2.265-5.034,5.034-5.034h0.828
				c2.769,0,5.034,2.265,5.034,5.034v0.828C169.886,113.129,167.62,115.395,164.851,115.395z"/>
			<path fill="#686868" d="M164.851,113.763h-0.828c-2.769,0-5.034-2.265-5.034-5.034v-0.828c0-2.769,2.265-5.034,5.034-5.034h0.828
				c2.769,0,5.034,2.265,5.034,5.034v0.828C169.886,111.498,167.62,113.763,164.851,113.763z"/>
		</g>
		<g>
			<path fill="#4F4F4F" d="M178.117,115.395h-0.828c-2.769,0-5.034-2.265-5.034-5.034v-0.828c0-2.769,2.265-5.034,5.034-5.034h0.828
				c2.769,0,5.034,2.265,5.034,5.034v0.828C183.151,113.129,180.886,115.395,178.117,115.395z"/>
			<path fill="#686868" d="M178.117,113.763h-0.828c-2.769,0-5.034-2.265-5.034-5.034v-0.828c0-2.769,2.265-5.034,5.034-5.034h0.828
				c2.769,0,5.034,2.265,5.034,5.034v0.828C183.151,111.498,180.886,113.763,178.117,113.763z"/>
		</g>
		<g>
			<path fill="#4F4F4F" d="M191.383,115.395h-0.828c-2.769,0-5.034-2.265-5.034-5.034v-0.828c0-2.769,2.265-5.034,5.034-5.034h0.828
				c2.769,0,5.034,2.265,5.034,5.034v0.828C196.417,113.129,194.152,115.395,191.383,115.395z"/>
			<path fill="#686868" d="M191.383,113.763h-0.828c-2.769,0-5.034-2.265-5.034-5.034v-0.828c0-2.769,2.265-5.034,5.034-5.034h0.828
				c2.769,0,5.034,2.265,5.034,5.034v0.828C196.417,111.498,194.152,113.763,191.383,113.763z"/>
		</g>
	</g>
</g>
</svg>
