<svg viewBox="0 0 300 300" xmlns="http://www.w3.org/2000/svg"><path d="m150 300c-82.71 0-150-67.29-150-150s67.29-150 150-150 150 67.29 150 150-67.29 150-150 150" fill="#fff"/><path d="m290.812 150c0 77.768-63.044 140.812-140.812 140.812s-140.812-63.044-140.812-140.812 63.044-140.812 140.812-140.812 140.812 63.044 140.812 140.812" fill="#fbbc4b"/><path d="m184.98 112.104c0 10.967-5.052 20.748-12.944 27.146a25.5 25.5 0 0 1 -1.58 1.215c-1.392.82-3.324 1.537-5.653 2.138l-.06 1.215c-4.48 2.094-9.472 3.265-14.743 3.265s-10.264-1.17-14.744-3.265l-.06-1.215c-2.328-.6-4.26-1.318-5.65-2.138a25.333 25.333 0 0 1 -1.583-1.215c-7.892-6.4-12.944-16.18-12.944-27.146 0-19.327 15.664-34.98 34.98-34.98 19.31 0 34.98 15.652 34.98 34.98" fill="#565656"/><path d="m150 121.518c-12.973 0-24.29 3.207-30.338 7.965a35.02 35.02 0 0 0 8.302 9.766c-.57-.6-.88-1.23-.88-1.89 0-3.794 10.265-6.87 22.916-6.87s22.915 3.076 22.915 6.868c0 .66-.307 1.29-.88 1.89a35.033 35.033 0 0 0 8.303-9.768c-6.047-4.758-17.365-7.965-30.338-7.965" fill="#505050"/><path d="m172.914 137.36c0 .66-.307 1.29-.88 1.89-.394.424-.935.835-1.58 1.215-1.39.82-3.323 1.537-5.652 2.138-3.997 1.01-9.15 1.625-14.803 1.625-5.655 0-10.81-.615-14.806-1.625-2.33-.6-4.26-1.318-5.652-2.138-.645-.38-1.187-.79-1.582-1.215-.57-.6-.88-1.23-.88-1.89 0-3.79 10.266-6.866 22.917-6.866 12.653 0 22.916 3.075 22.916 6.867" fill="#d6566e"/><path d="m186.432 109.55c.04 1.138-1.05 1.975-2.133 1.628-4.85-1.55-17.328-4.913-34.3-4.913s-29.45 3.364-34.3 4.913a1.638 1.638 0 0 1 -2.134-1.627l.093-2.635a1.64 1.64 0 0 1 1.14-1.507c3.73-1.2 16.726-4.894 35.2-4.894s31.467 3.695 35.2 4.894a1.64 1.64 0 0 1 1.14 1.507l.09 2.638z" fill="#4c4c4c"/><path d="m164.832 141.915-.03.688-.058 1.215-3.03 63.443h-23.428l-3.03-63.44-.06-1.215-.03-.688c0-2.518 6.633-4.554 14.833-4.554s14.83 2.036 14.83 4.555" fill="#ff7182"/><path d="m135.256 143.818.29 6.1v-.002zm29.488 0-.29 6.098z" fill="#e9af46"/><path d="m150 137.36c-8.2 0-14.832 2.036-14.832 4.555l.03.688.058 1.215.29 6.098c1.5-2.03 7.39-3.54 14.454-3.54 7.065 0 12.954 1.51 14.453 3.54l.29-6.098.06-1.215.03-.688c0-2.52-6.633-4.554-14.833-4.554" fill="#ed6979"/><ellipse cx="150" cy="207.255" fill="#d6566e" rx="11.714" ry="4.626"/></svg>