<svg version="1" xmlns="http://www.w3.org/2000/svg" viewBox="0 0 300 300"><path fill="#FFF" d="M149.999 300C67.29 300 0 232.71 0 150S67.29 0 149.999 0C232.71 0 300 67.29 300 150s-67.29 150-150.001 150"/><path fill="#5EC2D7" d="M290.812 150c0 77.769-63.044 140.812-140.812 140.812C72.232 290.812 9.189 227.769 9.189 150c0-77.768 63.043-140.812 140.812-140.812 77.768 0 140.811 63.044 140.811 140.812"/><path fill="#874C32" d="M183.242 178.817v5.76c0 18.361-14.885 25.712-33.237 25.712-18.36 0-33.245-7.351-33.245-25.712v-5.76c0-1.637.173-3.274.502-4.882l7.141-8.815a50.84 50.84 0 0 1 3.32-3.804 29.537 29.537 0 0 1-1.929-3.639c-1.234-2.77-1.966-5.696-1.966-8.65v-5.76c0-1.509.128-2.926.385-4.252h51.578c.256 1.326.385 2.743.385 4.252v5.76c0 2.954-.732 5.88-1.957 8.65a29.337 29.337 0 0 1-1.938 3.639c1.646 1.701 4.563 5.459 4.563 5.459l5.11 4.17v.009c.823 2.57 1.288 5.202 1.288 7.863z"/><path fill="#9B5F3E" d="M183.242 178.817c0 18.36-14.885 25.712-33.237 25.712-18.36 0-33.245-7.352-33.245-25.712 0-1.637.173-3.274.502-4.882 1.197-5.879 4.417-11.485 8.531-16.258l.023-.027c1.064-1.248 1.313-2.995.572-4.459-1.592-3.149-2.561-6.507-2.561-9.924 0-1.509.128-2.926.385-4.252 2.102-11.356 12.846-15.993 25.793-15.993 12.938 0 23.682 4.636 25.785 15.993.256 1.326.385 2.743.385 4.252 0 3.415-.968 6.771-2.558 9.918a4.03 4.03 0 0 0 .582 4.471l.019.022c3.402 3.959 6.2 8.485 7.735 13.268v.009c.824 2.569 1.289 5.201 1.289 7.862z"/><path fill="#4C4C4C" d="M164.376 180.232H135.62a.993.993 0 0 1-.993-.995v-3.513c0-.549.445-.993.993-.993h28.756c.549 0 .993.445.993.993v3.513a.993.993 0 0 1-.993.995z"/><path fill="#565656" d="M164.376 178.275H135.62a.993.993 0 0 1-.993-.995v-3.513c0-.549.445-.993.993-.993h28.756c.549 0 .993.445.993.993v3.513c0 .55-.445.995-.993.995z"/><path fill="#874C32" d="M156.966 179.253H143.03a.701.701 0 0 1-.702-.701v-4.098c0-.388.314-.702.702-.702h13.935c.387 0 .702.314.702.702v4.098a.7.7 0 0 1-.701.701z"/><path fill="#965A3C" d="M156.966 177.187H143.03a.702.702 0 0 1-.702-.702v-4.097c0-.388.314-.702.702-.702h13.935c.387 0 .702.314.702.702v4.097a.7.7 0 0 1-.701.702z"/><path fill="#874C32" d="M154.975 97.441h-9.955a1.275 1.275 0 0 1-1.268-1.147l-1.815-17.986h16.121l-1.815 17.986a1.274 1.274 0 0 1-1.268 1.147"/><path fill="#9B5F3E" d="M155.155 74.043H144.84a3.02 3.02 0 0 0-3.001 3.368l1.897 16.382a1.274 1.274 0 0 0 1.266 1.128h9.989c.647 0 1.192-.485 1.266-1.128l1.898-16.382a3.02 3.02 0 0 0-3-3.368z"/><circle fill="#565656" cx="149.879" cy="146.565" r="11.404"/><path fill="#4C4C4C" d="M149.879 139.965c5.473 0 10.041 3.858 11.145 9.002.167-.775.259-1.577.259-2.402 0-6.298-5.105-11.404-11.404-11.404s-11.404 5.106-11.404 11.404c0 .825.092 1.627.259 2.402 1.104-5.144 5.672-9.002 11.145-9.002z"/><path fill="#874C32" d="M154.545 136.152a11.242 11.242 0 0 0-4.66-.997c-1.574 0-3.071.315-4.436.892L146.682 97v-.013c0-.355.078-.67.21-.814l.131-.065h5.946l.196.144.092.249c.027.144.052.315.052.499l.013.42 1.223 38.732"/><path fill="#47170A" d="M152.976 96.098h-5.956c-.191 0-.341.406-.341.892v.13l.003-.12v-.013c0-.355.078-.67.21-.814l.131-.065h5.946l.196.144.092.249c.027.144.052.315.052.499l.008.251v-.26c.001-.486-.15-.893-.341-.893"/><path fill="#47170A" d="M152.969 96.108h-5.946l-.131.065c-.132.144-.21.459-.21.814V97l-.004.121v2.836h6.639v-2.706L153.31 97c0-.184-.026-.354-.052-.499l-.092-.249-.197-.144"/><path fill="#3F3F3F" d="M150.001 175.309a.656.656 0 0 1-.656-.656V84.84a.656.656 0 1 1 1.312 0v89.812a.656.656 0 0 1-.656.657z"/></svg>