<svg viewBox="0 0 300 300" xmlns="http://www.w3.org/2000/svg"><path d="m149.999 300c-82.709 0-149.999-67.29-149.999-150s67.29-150 149.999-150c82.711 0 150.001 67.29 150.001 150s-67.29 150-150.001 150" fill="#fff"/><path d="m290.812 150c0 77.768-63.044 140.812-140.812 140.812s-140.812-63.044-140.812-140.812 63.044-140.812 140.812-140.812 140.812 63.044 140.812 140.812" fill="#86bf5a"/><path d="m183.242 178.817v5.761c0 18.36-14.886 25.712-33.237 25.712-18.36 0-33.246-7.351-33.246-25.712v-5.761a24.4 24.4 0 0 1 .503-4.883l7.141-8.814a50.628 50.628 0 0 1 3.319-3.804 29.617 29.617 0 0 1 -1.93-3.639c-1.234-2.771-1.966-5.697-1.966-8.65v-5.76c0-1.509.128-2.926.384-4.252h51.579c.256 1.326.384 2.743.384 4.252v5.76c0 2.953-.732 5.879-1.957 8.65a29.479 29.479 0 0 1 -1.939 3.639c1.646 1.701 4.563 5.459 4.563 5.459l5.111 4.17v.009c.824 2.569 1.291 5.202 1.291 7.863z" fill="#e09d3c"/><path d="m183.242 178.817c0 18.36-14.886 25.712-33.237 25.712-18.36 0-33.246-7.351-33.246-25.712a24.4 24.4 0 0 1 .503-4.883c1.198-5.879 4.416-11.484 8.531-16.257l.023-.027c1.064-1.249 1.313-2.996.572-4.46-1.592-3.148-2.561-6.507-2.561-9.923 0-1.509.128-2.926.384-4.252 2.103-11.356 12.847-15.992 25.794-15.992 12.938 0 23.682 4.636 25.785 15.992.256 1.326.384 2.743.384 4.252 0 3.414-.968 6.771-2.558 9.917a4.029 4.029 0 0 0 .582 4.471l.019.022c3.402 3.959 6.2 8.485 7.735 13.267v.009c.823 2.57 1.29 5.203 1.29 7.864z" fill="#fbbc4b"/><path d="m164.375 180.232h-28.756a.994.994 0 0 1 -.994-.994v-3.513c0-.549.445-.994.994-.994h28.756c.549 0 .994.445.994.994v3.513a.994.994 0 0 1 -.994.994z" fill="#4c4c4c"/><path d="m164.375 178.275h-28.756a.994.994 0 0 1 -.994-.994v-3.513c0-.549.445-.994.994-.994h28.756c.549 0 .994.445.994.994v3.513a.994.994 0 0 1 -.994.994z" fill="#565656"/><path d="m156.965 179.253h-13.935a.702.702 0 0 1 -.702-.702v-4.097c0-.388.314-.702.702-.702h13.935c.388 0 .702.314.702.702v4.097a.702.702 0 0 1 -.702.702z" fill="#e09d3c"/><path d="m156.965 177.187h-13.935a.702.702 0 0 1 -.702-.702v-4.097c0-.388.314-.702.702-.702h13.935c.388 0 .702.314.702.702v4.097a.702.702 0 0 1 -.702.702z" fill="#edab4a"/><path d="m154.974 97.442h-9.955a1.274 1.274 0 0 1 -1.268-1.147l-1.815-17.986h16.121l-1.815 17.986a1.274 1.274 0 0 1 -1.268 1.147" fill="#e09d3c"/><path d="m155.155 74.043h-10.315a3.021 3.021 0 0 0 -3.001 3.369l1.898 16.381a1.275 1.275 0 0 0 1.266 1.128h9.989c.647 0 1.192-.485 1.266-1.128l1.898-16.381a3.023 3.023 0 0 0 -3.001-3.369z" fill="#fbbc4b"/><path d="m149.878 161.606c-8.294 0-15.041-6.748-15.041-15.042s6.747-15.042 15.041-15.042 15.042 6.748 15.042 15.042-6.747 15.042-15.042 15.042z" fill="#934c16"/><path d="m149.878 159.281c-7.012 0-12.716-5.704-12.716-12.716s5.704-12.716 12.716-12.716 12.716 5.704 12.716 12.716c.001 7.011-5.704 12.716-12.716 12.716z" fill="#fbbc4b"/><circle cx="149.878" cy="146.565" fill="#565656" r="11.404"/><path d="m149.878 139.965c5.473 0 10.041 3.858 11.145 9.002.166-.775.258-1.577.258-2.402 0-6.298-5.106-11.403-11.404-11.403s-11.404 5.106-11.404 11.403c0 .825.092 1.627.258 2.402 1.106-5.144 5.674-9.002 11.147-9.002z" fill="#4c4c4c"/><path d="m154.544 136.152a11.241 11.241 0 0 0 -4.659-.997c-1.575 0-3.071.315-4.436.892l1.233-39.047v-.013c0-.354.079-.67.21-.814l.131-.065h5.946l.197.144.092.249c.026.144.052.315.052.499l.013.42z" fill="#e09d3c"/><path d="m152.975 96.098h-5.957c-.191 0-.341.407-.341.893v.143l.005-.134v-.013c0-.354.079-.67.21-.814l.131-.065h5.946l.197.144.092.249c.026.144.052.315.052.499l.007.227v-.237c0-.485-.151-.892-.342-.892" fill="#d29338"/><path d="m152.969 96.107h-5.946l-.131.065c-.131.144-.21.459-.21.814v.014l-.004.134v2.823h6.639v-2.73l-.007-.227c0-.184-.026-.354-.052-.499l-.092-.249z" fill="#d29338"/><path d="m150 175.308a.656.656 0 0 1 -.656-.656v-89.811a.656.656 0 1 1 1.312 0v89.811a.655.655 0 0 1 -.656.656z" fill="#3f3f3f"/></svg>