<svg enable-background="new 0 0 300 300" viewBox="0 0 300 300" xmlns="http://www.w3.org/2000/svg"><ellipse cx="150" cy="150" fill="#fff" rx="150" ry="150"/><circle cx="150" cy="150" fill="#86bf5a" r="140.8"/><g fill="#515151"><circle cx="151.6" cy="100" r="2.8"/><path d="m95.6 121.4c0 1.5-2.3 3.1-3.8 3.1s-1.8-1.4-1.8-2.9 1.4-2.9 2.9-2.9 2.7 1.2 2.7 2.7z"/><path d="m204.6 121.4c0 1.5 2.3 3.1 3.8 3.1s1.8-1.4 1.8-2.9-1.4-2.9-2.9-2.9-2.7 1.2-2.7 2.7z"/></g><path d="m-538.3 7143.5c0 .7-.9 1.6-1.6 1.6s-1.3-.7-1.3-1.4.9-1.6 1.6-1.6 1.3.6 1.3 1.4z" fill="#4c4c4c"/><ellipse cx="-539.9" cy="7143.8" fill="#606060" rx="1.3" ry="1.3"/><g fill="#515151"><path d="m207.3 148.2c-.9 0-1.6-1.1-1.6-2.5v-22c0-1.4.7-2.5 1.6-2.5s1.6 1.1 1.6 2.5v22c0 1.4-.7 2.5-1.6 2.5z"/><path d="m92.7 146.3c-.9 0-1.6-1.1-1.6-2.5v-22c0-1.4.7-2.5 1.6-2.5s1.6 1.1 1.6 2.5v22c.1 1.4-.7 2.5-1.6 2.5z"/><path d="m151.6 125.1c-.9 0-1.6-1.1-1.6-2.5v-22c0-1.4.7-2.5 1.6-2.5s1.6 1.1 1.6 2.5v22c0 1.4-.7 2.5-1.6 2.5z"/></g><ellipse cx="149.9" cy="158.2" fill="#e59623" rx="63" ry="39.8"/><path d="m188.9 139.8h24v18.3h-24z" fill="#e59623"/><path d="m86.9 139.8h24v18.3h-24z" fill="#e59623"/><ellipse cx="119.4" cy="182.7" fill="#e2e2e2" rx="7.9" ry="14.9" transform="matrix(.3703 -.9289 .9289 .3703 -94.465 225.964)"/><ellipse cx="119.4" cy="181.7" fill="#5e5e5e" rx="6.8" ry="12.9" transform="matrix(.3703 -.9289 .9289 .3703 -93.5361 225.3343)"/><path d="m140 185.2c-.9 2.3-12.8 1.9-23.3-2.3s-15.5-10.6-14.6-12.9 10.1-.7 20.6 3.5c10.4 4.2 18.2 9.5 17.3 11.7z" fill="#e59623"/><ellipse cx="179.7" cy="183" fill="#e2e2e2" rx="14.9" ry="7.9" transform="matrix(.9289 -.3703 .3703 .9289 -55.0027 79.5598)"/><ellipse cx="179.7" cy="182" fill="#5e5e5e" rx="12.9" ry="6.8" transform="matrix(.9289 -.3703 .3703 .9289 -54.6324 79.4887)"/><path d="m159.2 185.6c.9 2.3 12.8 1.9 23.3-2.3s15.5-10.6 14.6-12.9-10.1-.7-20.6 3.5-18.2 9.4-17.3 11.7z" fill="#e59623"/><path d="m86.6 156.9c.6 2.9 2.5 5 1.6 5.2s-3.6-2.1-4.2-4.9c-.6-2.9 1.7-5.3 2.6-5.5s-.6 2.3 0 5.2z" fill="#e2e2e2"/><path d="m87.5 156.9c.6 2.9 2.5 5 1.6 5.2s-3.6-2.1-4.2-4.9c-.6-2.9 1.7-5.3 2.6-5.5s-.6 2.3 0 5.2z" fill="#5e5e5e"/><path d="m213.4 156.9c-.6 2.9-2.5 5-1.6 5.2s3.6-2.1 4.2-4.9c.6-2.9-1.7-5.3-2.6-5.5s.6 2.3 0 5.2z" fill="#e2e2e2"/><path d="m212.5 156.9c-.6 2.9-2.5 5-1.6 5.2s3.6-2.1 4.2-4.9c.6-2.9-1.7-5.3-2.6-5.5s.6 2.3 0 5.2z" fill="#5e5e5e"/><path d="m89.6 163.8s-4.8-5.7-2.2-13l1.3.7 1.8 11.2z" fill="#e59623"/><path d="m210.7 163.8s4.8-5.7 2.2-13l-1.3.7-1.8 11.2z" fill="#e59623"/><ellipse cx="149.9" cy="145.6" fill="#d37c09" rx="63" ry="39.8"/><ellipse cx="149.9" cy="139.8" fill="#e2e2e2" rx="63" ry="39.8"/><ellipse cx="149.9" cy="138.8" fill="#fff" rx="59" ry="36.7"/><path d="m96.6 183.8c-.9 0-1.6-1.1-1.6-2.5v-22c0-1.4.7-2.5 1.6-2.5s1.6 1.1 1.6 2.5v22c0 1.4-.8 2.5-1.6 2.5z" fill="#515151"/><path d="m150 203.1c-.9 0-1.6-1.1-1.6-2.5v-22c0-1.4.7-2.5 1.6-2.5s1.6 1.1 1.6 2.5v22c0 1.3-.7 2.5-1.6 2.5z" fill="#515151"/><path d="m205.4 183c-.9 0-1.6-1.1-1.6-2.5v-22c0-1.4.7-2.5 1.6-2.5s1.6 1.1 1.6 2.5v22c0 1.4-.8 2.5-1.6 2.5z" fill="#515151"/><path d="m152.8 179.7v1.1h-5.6v-1.1c0-1.6 1.3-2.8 2.8-2.8 1.6 0 2.8 1.2 2.8 2.8z" fill="#4c4c4c"/><circle cx="150" cy="180.8" fill="#606060" r="2.8"/><path d="m154.1 191.4v1.6h-8.2v-1.6c0-2.3 1.8-4.1 4.1-4.1s4.1 1.8 4.1 4.1z" fill="#4c4c4c"/><circle cx="150" cy="193" fill="#606060" r="4.1"/><path d="m202 170.9c0 2.1 2.2 4.6 4 4.6s3.3-1.9 3.3-4-2.2-4.4-4-4.4-3.3 1.7-3.3 3.8z" fill="#4c4c4c"/><ellipse cx="206" cy="171.7" fill="#606060" rx="3.3" ry="3.8"/><path d="m202.8 158.2c0 1.5 1.6 3.3 2.9 3.3s2.4-1.3 2.4-2.8-1.6-3.1-2.9-3.1-2.4 1.1-2.4 2.6z" fill="#4c4c4c"/><ellipse cx="205.6" cy="158.7" fill="#606060" rx="2.4" ry="2.7"/><path d="m100.4 170.4c0 2.2-2.6 4.8-4.7 4.8s-3.9-2-3.9-4.1c0-2.2 2.6-4.6 4.7-4.6s3.9 1.8 3.9 3.9z" fill="#4c4c4c"/><ellipse cx="95.7" cy="171.3" fill="#606060" rx="3.9" ry="3.9"/><path d="m98.9 158.5c0 1.3-1.5 2.9-2.8 2.9s-2.3-1.2-2.3-2.5 1.5-2.7 2.8-2.7 2.3 1 2.3 2.3z" fill="#4c4c4c"/><ellipse cx="96.1" cy="159" fill="#606060" rx="2.3" ry="2.3"/></svg>