<svg xmlns="http://www.w3.org/2000/svg" version="1.0" viewBox="0 0 300 300"><circle cx="150" cy="150" r="150" fill="#FDEFF1" transform="rotate(-45.001 149.999 150.002)"/><circle cx="150" cy="150" r="140.812" fill="#EB595B"/><path fill="#FFF" d="M144.121 65.785a3.774 3.774 0 01-4.986-1.906l-5.292-11.839a3.774 3.774 0 116.892-3.08l5.292 11.839a3.774 3.774 0 01-1.906 4.986zm79.911 64.436a3.774 3.774 0 014.381-3.049l12.764 2.289a3.774 3.774 0 11-1.332 7.43l-12.764-2.289a3.773 3.773 0 01-3.049-4.381zm-24.544-51.709a3.775 3.775 0 010-5.338l9.17-9.17a3.775 3.775 0 015.338 5.338l-9.17 9.17a3.775 3.775 0 01-5.338 0z"/><path fill="#D19033" d="M167.649 181.245c.485-.159.947-.384 1.35-.725l31.336-26.489c1.975-1.67 1.967-4.927-.019-7.276-1.985-2.349-5.196-2.899-7.171-1.23l-10.021 6.998 23.525-19.887a5.86 5.86 0 00.692-8.261l-.685-.81a5.862 5.862 0 00-8.261-.692l-16.829 14.226 28.116-25.495c2.581-2.182 2.57-6.44-.024-9.509-2.595-3.07-6.791-3.789-9.373-1.607l-32.735 25.599 23.975-20.267a6.317 6.317 0 00.746-8.902l-.738-.873a6.317 6.317 0 00-8.902-.746l-53.198 44.97c.934-6.734 1.173-17.141-.327-23.233a16.914 16.914 0 00-5.941-8.778c-3.262-2.38-6.677-2.307-9.135.191-1.725 1.753-1.639 4.449-1.518 8.179v.004l-.142 4.662-.004.001-.186 4.575a26.16 26.16 0 01-2.415 9.962l-3.069 6.604c-2.134 4.718-3.099 27.663-3.484 40.935a5.1 5.1 0 01-1.804 3.746s-10.988 10.246-11.052 11.894a5.922 5.922 0 001.744 4.424l21.898 21.715c.91.902 24.92-19.993 25.424-20.632 1.282-1.625 5.947-5.058 7.721-5.948 4.362-2.187 12.638-9.29 20.506-17.325z"/><path fill="#FFB031" d="M173.519 166.606c.314-.402.573-.846.719-1.353l11.303-39.445c.712-2.486-1.107-5.188-4.063-6.035-2.956-.847-5.931.481-6.643 2.968l-4.434 11.39 8.485-29.613a5.862 5.862 0 00-4.02-7.25l-1.02-.292a5.862 5.862 0 00-7.25 4.02l-6.07 21.183 9.18-36.827c.931-3.249-1.447-6.781-5.311-7.888-3.864-1.107-7.751.629-8.682 3.879l-12.96 39.483 8.648-30.179a6.317 6.317 0 00-4.332-7.812l-1.099-.315a6.317 6.317 0 00-7.812 4.332l-19.188 66.963c-2.97-6.115-8.562-14.896-13.196-19.124a16.917 16.917 0 00-9.82-3.989c-4.034-.163-6.831 1.798-7.484 5.241-.458 2.416 1.113 4.608 3.289 7.641l.002.003 2.476 3.953-.003.003 2.391 3.905a26.178 26.178 0 013.536 9.621l1.124 7.195c.851 5.108 12.815 24.711 19.879 35.954a5.1 5.1 0 01.585 4.116s-3.431 14.627-2.566 16.032a5.926 5.926 0 003.91 2.706l30.277 5.861c1.258.243 9.585-30.478 9.648-31.288.161-2.064 2.128-7.512 3.107-9.238 2.401-4.241 5.326-14.747 7.394-25.801z"/></svg>
