<svg xmlns="http://www.w3.org/2000/svg" version="1.0" viewBox="0 0 300 300"><path fill="#EB595B" d="M299.976 150.004c0 8.611-.736 17.159-2.21 25.643a149.141 149.141 0 01-12.191 38.488c-3.68 7.786-8 15.199-12.96 22.238a149.236 149.236 0 01-16.573 19.694 149.67 149.67 0 01-16.709 14.417 149.743 149.743 0 01-18.644 11.807 149.1 149.1 0 01-27.164 11.25 149.438 149.438 0 01-17.898 4.25 149.015 149.015 0 01-18.282 2.027c-6.136.303-12.267.228-18.393-.225a149.757 149.757 0 01-18.227-2.473 149.456 149.456 0 01-34.866-11.521 149.241 149.241 0 01-22.236-12.96 149.276 149.276 0 01-19.692-16.572 149.958 149.958 0 01-14.414-16.712 149.94 149.94 0 01-29.11-78.317c-.361-4.899-.481-9.804-.361-14.715a150.16 150.16 0 013.599-29.183 150.144 150.144 0 019.221-27.921 149.91 149.91 0 0114.49-25.586A149.426 149.426 0 0143.928 43.94a148.97 148.97 0 0116.709-14.415 149.21 149.21 0 0125.22-15.118 149.837 149.837 0 0127.684-9.905A150.23 150.23 0 01135.283.728a149.079 149.079 0 0140.346 1.487 149.38 149.38 0 0124.887 6.558 149.076 149.076 0 0113.598 5.633c7.785 3.68 15.197 8 22.236 12.96a149.36 149.36 0 0119.692 16.573 149.085 149.085 0 0114.414 16.711 149.572 149.572 0 0111.808 18.645 149.258 149.258 0 0111.252 27.165 149.195 149.195 0 016.46 43.544"/><path fill="#FFF" d="M201.044 87.168v116.456a6.09 6.09 0 01-.465 2.346 6.128 6.128 0 01-5.663 3.782H104.21a6.163 6.163 0 01-2.346-.467 6.176 6.176 0 01-2.75-2.258 6.152 6.152 0 01-1.034-3.405V87.168a5.94 5.94 0 01.968-3.298 6.1 6.1 0 015.162-2.832h90.706a6.002 6.002 0 012.95.751 6.054 6.054 0 012.223 2.08 5.932 5.932 0 01.955 3.299"/><path fill="none" stroke="#EDEDED" stroke-linecap="round" stroke-miterlimit="10" stroke-width="9.637" d="M106.708 99.423h85.719m-85.719 30.646h85.719m-85.719 30.646h85.719m-85.719 30.646h85.719"/><path fill="none" stroke="#EDEDED" stroke-linecap="round" stroke-miterlimit="10" stroke-width="3.212" d="M106.708 180.329h85.719m-85.719-8.582h85.719m-85.719-22.065h85.719m-85.719-8.58h85.719m-85.719-22.066h85.719m-85.719-8.581h85.719"/><path fill="#FFB031" d="M161.051 140.96c-1.032 1.032-2.685 1.032-3.511-.207-.62-.826-.62-2.272.207-3.098 5.782-5.988 3.511-16.521-4.75-19.204-7.227-2.478-14.455 2.478-15.487 9.499v.207c-.207 1.033.62 2.272 1.652 2.478 3.717 1.239 7.021 3.717 9.086 7.021 4.75 7.641 1.239 14.662.826 15.694v.207c-1.239 3.717-5.162 5.989-8.879 5.37-4.13-.62-7.02-3.924-7.227-8.054 0-2.066-.206-4.13-.206-5.989-.206-6.195-.62-11.978.206-17.554 1.446-10.119 11.564-16.521 21.475-13.423 11.564 4.131 14.661 18.793 6.608 27.053zm-8.259-40.269c-14.867-1.859-28.496 9.086-30.561 23.955-1.032 7.64-.62 15.694-.206 23.335.413 8.26.826 16.727-.413 24.987-1.239 8.467 4.543 16.108 13.009 17.347 8.26 1.239 15.9-4.75 17.139-13.217.206-1.033.206-2.272.206-3.304-.62-9.706 6.814-18.998 14.042-24.368 5.783-4.337 9.499-10.738 10.531-17.966 1.858-15.074-8.674-28.91-23.747-30.769z"/><path fill="#FFB031" d="M186.09 160.314l.44-.44c.44-.44.44-1.211 0-1.651l-7.485-7.486c-.44-.44-1.211-.44-1.651 0l-.44.44c-.44.44-.44 1.211 0 1.651l7.485 7.486c.55.55 1.21.55 1.651 0m-4.033-28.512v-.55c0-.661.55-1.211 1.211-1.211h10.568c.66 0 1.211.55 1.211 1.211v.55c0 .334-.119.619-.357.854-.236.236-.52.355-.854.357h-10.568c-.66-.11-1.211-.551-1.211-1.211m-4.664-21.578l-.44-.44c-.44-.44-.44-1.211 0-1.651l7.485-7.486c.44-.44 1.211-.44 1.651 0l.44.44c.44.441.44 1.211 0 1.651l-7.485 7.486c-.439.44-1.21.44-1.651 0m-40.089 34.66c0 2.065.207 4.13.207 6.195 0 1.859 1.446 3.304 3.098 3.511 1.652.206 3.304-.62 3.924-2.272v-.206c.206-1.032 2.891-5.989-.413-11.565a9.37 9.37 0 00-3.511-3.511c-1.652-1.033-3.717.207-3.717 2.066.206 1.652.412 3.717.412 5.782"/></svg>