<?xml version="1.0" encoding="utf-8"?>
<!-- Generator: Adobe Illustrator 23.0.6, SVG Export Plug-In . SVG Version: 6.00 Build 0)  -->
<svg version="1.0" id="Camada_1" xmlns="http://www.w3.org/2000/svg" xmlns:xlink="http://www.w3.org/1999/xlink" x="0px" y="0px"
	 viewBox="0 0 300 300" enable-background="new 0 0 300 300" xml:space="preserve">
<circle fill="#FFFFFF" cx="149.998" cy="150" r="150"/>
<circle fill="#FBBC4B" cx="150" cy="150" r="140.812"/>
<g>
	<path fill="#FFFFFF" d="M155.852,84.992c-23.55-2.944-45.138,14.392-48.409,37.942c-1.635,12.102-0.981,24.859-0.327,36.961
		c0.654,13.083,1.308,26.494-0.654,39.577c-1.963,13.411,7.196,25.513,20.606,27.475c13.083,1.963,25.186-7.523,27.148-20.933
		c0.327-1.635,0.327-3.598,0.327-5.233c-0.981-15.373,10.794-30.092,22.242-38.596c9.158-6.869,15.046-17.008,16.681-28.456
		C196.41,109.851,179.729,87.936,155.852,84.992z M168.935,148.774c-1.635,1.635-4.252,1.635-5.56-0.327
		c-0.981-1.308-0.981-3.598,0.327-4.906c9.158-9.485,5.56-26.167-7.523-30.419c-11.448-3.925-22.896,3.925-24.531,15.046v0.327
		c-0.327,1.635,0.981,3.598,2.617,3.925c5.888,1.963,11.121,5.888,14.392,11.121c7.523,12.102,1.963,23.223,1.308,24.859v0.327
		c-1.963,5.888-8.177,9.485-14.065,8.504c-6.542-0.981-11.121-6.215-11.448-12.756c0-3.271-0.327-6.542-0.327-9.485
		c-0.327-9.813-0.981-18.971,0.327-27.802c2.29-16.027,18.317-26.167,34.017-21.261
		C176.785,112.467,181.691,135.691,168.935,148.774z"/>
	<path fill="#FFFFFF" d="M131.32,154.989c0,3.271,0.327,6.542,0.327,9.813c0,2.944,2.29,5.233,4.906,5.56
		c2.617,0.327,5.233-0.981,6.215-3.598v-0.327c0.327-1.635,4.579-9.485-0.654-18.317c-1.308-2.29-3.271-4.252-5.56-5.56
		c-2.617-1.635-5.888,0.327-5.888,3.271C130.993,148.447,131.32,151.718,131.32,154.989z"/>
</g>
<g>
	<path fill="#FFFFFF" d="M193.142,100.989l-0.668-0.668c-0.668-0.668-0.668-1.836,0-2.504l11.349-11.349
		c0.668-0.668,1.836-0.668,2.504,0l0.668,0.668c0.668,0.668,0.668,1.836,0,2.504l-11.349,11.349
		C194.978,101.657,193.81,101.657,193.142,100.989z"/>
	<path fill="#FFFFFF" d="M200.801,134.815v-0.835c0-1.001,0.835-1.836,1.836-1.836h16.023c1.001,0,1.836,0.835,1.836,1.836v0.835
		c0,1.001-0.835,1.836-1.836,1.836h-16.023C201.636,136.484,200.801,135.816,200.801,134.815z"/>
	<path fill="#FFFFFF" d="M206.714,179.188l0.668-0.668c0.668-0.668,0.668-1.836,0-2.504l-11.349-11.349
		c-0.668-0.668-1.836-0.668-2.504,0l-0.668,0.668c-0.668,0.668-0.668,1.836,0,2.504l11.349,11.349
		C205.045,180.022,206.047,180.022,206.714,179.188z"/>
</g>
</svg>
