<svg xmlns="http://www.w3.org/2000/svg" version="1.0" viewBox="0 0 300 300"><circle cx="150" cy="150" r="150" fill="#FFF" transform="rotate(-45.001 149.999 150.002)"/><circle cx="150" cy="150" r="140.812" fill="#86BF5A"/><path fill="#FFF" d="M199.41 78.582a3.726 3.726 0 01-1.025-1.919 3.738 3.738 0 01.213-2.167 3.766 3.766 0 01.812-1.216l9.11-9.11a3.698 3.698 0 011.215-.788 3.685 3.685 0 011.424-.269 3.746 3.746 0 013.451 5.144 3.732 3.732 0 01-.788 1.215l-9.11 9.11a3.726 3.726 0 01-1.919 1.025 3.746 3.746 0 01-3.383-1.025zm24.385 51.373a3.7 3.7 0 01.534-1.362 3.788 3.788 0 011.014-1.054 3.737 3.737 0 012.071-.672c.246-.005.49.015.733.058l12.681 2.274a3.7 3.7 0 011.362.534 3.788 3.788 0 011.054 1.014 3.737 3.737 0 01.672 2.071 3.757 3.757 0 01-1.047 2.672 3.798 3.798 0 01-1.201.836 3.754 3.754 0 01-2.162.255l-12.681-2.274a3.7 3.7 0 01-1.362-.534 3.788 3.788 0 01-1.054-1.014 3.737 3.737 0 01-.672-2.071 3.67 3.67 0 01.058-.733zm-79.392-64.017a3.73 3.73 0 01-2.159.273 3.703 3.703 0 01-1.367-.523 3.72 3.72 0 01-1.063-1.006 3.736 3.736 0 01-.364-.639l-5.258-11.762a3.73 3.73 0 01-.274-2.161 3.774 3.774 0 01.973-1.948 3.691 3.691 0 011.194-.846 3.789 3.789 0 011.428-.325 3.756 3.756 0 013.164 1.582c.142.201.264.414.364.639l5.258 11.762a3.73 3.73 0 01.079 2.868 3.71 3.71 0 01-.78 1.239 3.749 3.749 0 01-1.195.847z"/><path fill="#D19033" d="M167.778 180.647c.482-.158.941-.382 1.341-.72l31.132-26.317c1.962-1.659 1.954-4.895-.019-7.229-1.972-2.334-5.162-2.88-7.124-1.222l-9.956 6.952 23.372-19.758a5.87 5.87 0 001.417-1.777 5.798 5.798 0 00.611-3.326 5.824 5.824 0 00-1.34-3.104l-.681-.805a5.807 5.807 0 00-2.838-1.836 5.798 5.798 0 00-2.265-.189 5.824 5.824 0 00-3.104 1.339l-16.72 14.133 27.933-25.329c2.564-2.168 2.553-6.398-.024-9.447-2.578-3.05-6.747-3.764-9.312-1.597l-32.522 25.433 23.819-20.135a6.222 6.222 0 001.525-1.916 6.257 6.257 0 00.658-3.583 6.275 6.275 0 00-1.443-3.346l-.733-.867a6.268 6.268 0 00-6.701-1.925 6.275 6.275 0 00-2.143 1.185l-52.852 44.677c.928-6.69 1.165-17.03-.325-23.082a16.7 16.7 0 00-2.25-4.835 16.69 16.69 0 00-3.652-3.886c-3.241-2.364-6.634-2.292-9.076.19-1.714 1.742-1.628 4.42-1.508 8.126v.004l-.141 4.632-.004.001-.185 4.545a25.742 25.742 0 01-2.399 9.897l-3.049 6.561c-2.12 4.687-3.079 27.483-3.461 40.669a5.008 5.008 0 01-.5 2.052 5.009 5.009 0 01-1.293 1.67s-10.917 10.179-10.98 11.817a5.813 5.813 0 00.406 2.379 5.811 5.811 0 001.327 2.016l21.756 21.574c.904.896 24.758-19.863 25.259-20.498 1.274-1.614 5.908-5.025 7.671-5.909 4.334-2.175 12.557-9.231 20.373-17.214z"/><path fill="#FFB031" d="M173.61 166.103c.312-.399.569-.84.714-1.344l11.229-39.188c.707-2.47-1.1-5.154-4.037-5.996-2.937-.841-5.892.478-6.6 2.949l-4.405 11.316 8.43-29.42a5.796 5.796 0 00.187-2.264 5.892 5.892 0 00-.693-2.164 5.77 5.77 0 00-1.469-1.734 5.797 5.797 0 00-2.02-1.041l-1.013-.29a5.796 5.796 0 00-2.265-.187 5.892 5.892 0 00-2.164.693 5.727 5.727 0 00-.939.649 5.797 5.797 0 00-1.836 2.84l-6.031 21.045 9.12-36.587c.925-3.228-1.438-6.737-5.276-7.837-3.839-1.1-7.701.625-8.626 3.854l-12.876 39.226 8.592-29.983a6.287 6.287 0 00-.545-4.772 6.283 6.283 0 00-3.759-2.989l-1.092-.313a6.287 6.287 0 00-4.772.545 6.283 6.283 0 00-2.989 3.759l-19.063 66.527c-2.951-6.075-8.506-14.799-13.11-19a16.691 16.691 0 00-4.56-2.765 16.69 16.69 0 00-5.196-1.198c-4.008-.162-6.787 1.786-7.435 5.207-.455 2.4 1.106 4.578 3.268 7.591l.002.003 2.46 3.927-.003.003 2.375 3.88a25.757 25.757 0 013.513 9.558l1.117 7.148c.845 5.075 12.732 24.55 19.75 35.72.383.609.625 1.27.726 1.983a5.018 5.018 0 01-.145 2.107s-3.409 14.532-2.549 15.928c.431.7.985 1.283 1.661 1.751.676.468 1.417.78 2.224.938l30.08 5.823c1.25.241 9.523-30.28 9.585-31.084.16-2.051 2.114-7.463 3.087-9.178 2.388-4.216 5.294-14.654 7.348-25.636z"/></svg>