<?xml version="1.0" encoding="utf-8"?>
<!-- Generator: Adobe Illustrator 23.0.6, SVG Export Plug-In . SVG Version: 6.00 Build 0)  -->
<svg version="1.0" id="Camada_1" xmlns="http://www.w3.org/2000/svg" xmlns:xlink="http://www.w3.org/1999/xlink" x="0px" y="0px"
	 viewBox="0 0 300 300" enable-background="new 0 0 300 300" xml:space="preserve">
<g>
	<g>
		
			<ellipse transform="matrix(0.7071 -0.7071 0.7071 0.7071 -62.1321 149.9998)" fill="#FDEFF1" cx="150" cy="150" rx="150" ry="150"/>
		<circle fill="#EB595B" cx="150" cy="150" r="140.812"/>
	</g>
</g>
<path fill="#FFFFFF" d="M144.121,65.785L144.121,65.785c-1.903,0.851-4.135-0.003-4.986-1.906l-5.292-11.839
	c-0.851-1.903,0.003-4.135,1.906-4.986v0c1.903-0.851,4.135,0.003,4.986,1.906l5.292,11.839
	C146.878,62.702,146.024,64.934,144.121,65.785z"/>
<path fill="#FFFFFF" d="M224.032,130.221L224.032,130.221c0.368-2.052,2.329-3.417,4.381-3.049l12.764,2.289
	c2.052,0.368,3.417,2.329,3.049,4.381l0,0c-0.368,2.052-2.329,3.417-4.381,3.049l-12.764-2.289
	C225.029,134.235,223.664,132.273,224.032,130.221z"/>
<path fill="#FFFFFF" d="M199.488,78.512L199.488,78.512c-1.474-1.474-1.474-3.864,0-5.338l9.17-9.17
	c1.474-1.474,3.864-1.474,5.338,0v0c1.474,1.474,1.474,3.864,0,5.338l-9.17,9.17C203.352,79.986,200.962,79.986,199.488,78.512z"/>
<g>
	<path fill="#D19033" d="M167.649,181.245c0.485-0.159,0.947-0.384,1.35-0.725l31.336-26.489c1.975-1.67,1.967-4.927-0.019-7.276
		c-1.985-2.349-5.196-2.899-7.171-1.23l-10.021,6.998l23.525-19.887c2.473-2.09,2.783-5.789,0.692-8.261l-0.685-0.81
		c-2.09-2.472-5.789-2.782-8.261-0.692l-16.829,14.226l28.116-25.495c2.581-2.182,2.57-6.44-0.024-9.509
		c-2.595-3.07-6.791-3.789-9.373-1.607l-32.735,25.599l23.975-20.267c2.664-2.252,2.998-6.238,0.746-8.902l-0.738-0.873
		c-2.252-2.664-6.238-2.998-8.902-0.746l-53.198,44.97c0.934-6.734,1.173-17.141-0.327-23.233c-0.969-3.453-3.066-6.561-5.941-8.778
		c-3.262-2.38-6.677-2.307-9.135,0.191c-1.725,1.753-1.639,4.449-1.518,8.179c0,0.001,0,0.003,0,0.004l-0.142,4.662l-0.004,0.001
		l-0.186,4.575c-0.14,3.447-0.961,6.833-2.415,9.962l-3.069,6.604c-2.134,4.718-3.099,27.663-3.484,40.935
		c-0.042,1.451-0.697,2.806-1.804,3.746c0,0-10.988,10.246-11.052,11.894c-0.064,1.65,0.572,3.262,1.744,4.424l21.898,21.715
		c0.91,0.902,24.92-19.993,25.424-20.632c1.282-1.625,5.947-5.058,7.721-5.948C151.505,196.383,159.781,189.28,167.649,181.245z"/>
	<path fill="#FFB031" d="M173.519,166.606c0.314-0.402,0.573-0.846,0.719-1.353l11.303-39.445c0.712-2.486-1.107-5.188-4.063-6.035
		c-2.956-0.847-5.931,0.481-6.643,2.968l-4.434,11.39l8.485-29.613c0.892-3.112-0.908-6.358-4.02-7.25l-1.02-0.292
		c-3.112-0.892-6.358,0.908-7.25,4.02l-6.07,21.183l9.18-36.827c0.931-3.249-1.447-6.781-5.311-7.888
		c-3.864-1.107-7.751,0.629-8.682,3.879l-12.96,39.483l8.648-30.179c0.961-3.354-0.979-6.851-4.332-7.812l-1.099-0.315
		c-3.354-0.961-6.851,0.979-7.812,4.332l-19.188,66.963c-2.97-6.115-8.562-14.896-13.196-19.124c-2.726-2.33-6.198-3.746-9.82-3.989
		c-4.034-0.163-6.831,1.798-7.484,5.241c-0.458,2.416,1.113,4.608,3.289,7.641c0.001,0.001,0.002,0.002,0.002,0.003l2.476,3.953
		l-0.003,0.003l2.391,3.905c1.801,2.943,3.003,6.212,3.536,9.621l1.124,7.195c0.851,5.108,12.815,24.711,19.879,35.954
		c0.772,1.229,0.982,2.72,0.585,4.116c0,0-3.431,14.627-2.566,16.032c0.865,1.406,2.29,2.392,3.91,2.706l30.277,5.861
		c1.258,0.243,9.585-30.478,9.648-31.288c0.161-2.064,2.128-7.512,3.107-9.238C168.526,188.166,171.451,177.66,173.519,166.606z"/>
</g>
</svg>
