<?xml version="1.0" encoding="utf-8"?>
<!-- Generator: Adobe Illustrator 23.0.6, SVG Export Plug-In . SVG Version: 6.00 Build 0)  -->
<svg version="1.0" id="Camada_1" xmlns="http://www.w3.org/2000/svg" xmlns:xlink="http://www.w3.org/1999/xlink" x="0px" y="0px"
	 viewBox="0 0 300 300" enable-background="new 0 0 300 300" xml:space="preserve">
<ellipse transform="matrix(0.7071 -0.7071 0.7071 0.7071 -62.1321 149.9998)" fill="#FFFFFF" cx="150" cy="150" rx="150" ry="150"/>
<circle fill="#5EC2D7" cx="150" cy="150" r="140.812"/>
<g>
	<path fill="#FFFFFF" d="M199.41,78.582c-0.174-0.174-0.33-0.364-0.466-0.568c-0.137-0.205-0.252-0.421-0.346-0.648
		s-0.165-0.462-0.213-0.703c-0.048-0.241-0.072-0.485-0.072-0.732c0-0.246,0.024-0.49,0.072-0.732
		c0.048-0.241,0.119-0.476,0.213-0.703c0.094-0.227,0.21-0.444,0.346-0.648c0.137-0.205,0.292-0.394,0.466-0.568l9.11-9.11
		c0.175-0.17,0.365-0.321,0.569-0.453c0.205-0.133,0.42-0.244,0.646-0.335c0.226-0.091,0.459-0.159,0.699-0.204
		c0.24-0.045,0.481-0.067,0.725-0.065c0.244,0.002,0.485,0.027,0.724,0.076c0.239,0.049,0.471,0.121,0.695,0.215
		c0.225,0.094,0.438,0.209,0.641,0.345c0.202,0.136,0.39,0.29,0.562,0.462c0.172,0.172,0.326,0.36,0.462,0.562
		c0.136,0.202,0.251,0.416,0.345,0.641c0.094,0.225,0.166,0.457,0.215,0.695c0.049,0.239,0.074,0.48,0.076,0.724
		c0.002,0.244-0.02,0.485-0.065,0.725s-0.113,0.472-0.204,0.699c-0.091,0.226-0.202,0.442-0.335,0.646
		c-0.133,0.204-0.284,0.394-0.453,0.569l-9.11,9.11c-0.174,0.174-0.364,0.33-0.568,0.466c-0.205,0.137-0.421,0.252-0.648,0.346
		c-0.227,0.094-0.462,0.165-0.703,0.213c-0.242,0.048-0.485,0.072-0.732,0.072c-0.246,0-0.49-0.024-0.732-0.072
		c-0.242-0.048-0.476-0.119-0.703-0.213c-0.227-0.094-0.444-0.21-0.648-0.346C199.774,78.912,199.584,78.756,199.41,78.582z
		 M223.795,129.955c0.043-0.242,0.11-0.478,0.2-0.707c0.09-0.229,0.201-0.447,0.334-0.655c0.133-0.207,0.285-0.4,0.455-0.577
		c0.171-0.177,0.357-0.336,0.559-0.477c0.202-0.141,0.416-0.26,0.642-0.359c0.226-0.099,0.459-0.174,0.699-0.227
		c0.241-0.053,0.484-0.081,0.73-0.086c0.246-0.005,0.49,0.015,0.733,0.058l12.681,2.274c0.242,0.043,0.478,0.11,0.707,0.2
		c0.229,0.09,0.447,0.201,0.655,0.334c0.207,0.133,0.4,0.285,0.577,0.455c0.177,0.171,0.336,0.357,0.477,0.559
		c0.141,0.202,0.26,0.416,0.359,0.642c0.099,0.226,0.174,0.459,0.227,0.699c0.053,0.241,0.081,0.484,0.086,0.73
		c0.005,0.246-0.015,0.49-0.058,0.733c-0.043,0.242-0.11,0.478-0.2,0.707c-0.09,0.229-0.201,0.447-0.334,0.655
		c-0.133,0.207-0.285,0.4-0.455,0.577c-0.171,0.177-0.357,0.336-0.559,0.477c-0.202,0.141-0.416,0.26-0.642,0.359
		c-0.226,0.099-0.459,0.174-0.699,0.227c-0.241,0.053-0.484,0.081-0.73,0.086c-0.246,0.005-0.49-0.015-0.733-0.058l-12.681-2.274
		c-0.242-0.043-0.478-0.11-0.707-0.2c-0.229-0.09-0.448-0.201-0.655-0.334c-0.207-0.133-0.4-0.285-0.577-0.455
		c-0.177-0.171-0.336-0.357-0.477-0.559c-0.141-0.202-0.26-0.416-0.359-0.642c-0.098-0.226-0.174-0.459-0.227-0.699
		c-0.053-0.241-0.081-0.484-0.086-0.73C223.732,130.441,223.751,130.197,223.795,129.955L223.795,129.955z M144.403,65.938
		c-0.225,0.101-0.457,0.178-0.697,0.233c-0.24,0.055-0.483,0.085-0.729,0.092c-0.246,0.007-0.491-0.01-0.733-0.052
		c-0.243-0.041-0.479-0.106-0.709-0.194c-0.23-0.088-0.449-0.197-0.658-0.329c-0.208-0.131-0.402-0.281-0.581-0.451
		c-0.179-0.169-0.339-0.354-0.482-0.555c-0.142-0.201-0.264-0.414-0.364-0.639l-5.258-11.762c-0.101-0.225-0.178-0.457-0.233-0.697
		c-0.055-0.24-0.086-0.483-0.093-0.73c-0.007-0.246,0.01-0.491,0.052-0.734c0.041-0.243,0.106-0.479,0.194-0.709
		c0.088-0.23,0.197-0.449,0.328-0.658c0.131-0.209,0.281-0.402,0.451-0.581c0.169-0.179,0.354-0.34,0.555-0.482
		c0.201-0.142,0.414-0.264,0.639-0.364c0.225-0.1,0.457-0.178,0.698-0.233c0.24-0.055,0.483-0.085,0.73-0.092
		s0.491,0.011,0.734,0.052c0.243,0.041,0.479,0.106,0.709,0.194c0.23,0.088,0.449,0.198,0.658,0.329
		c0.208,0.131,0.402,0.282,0.581,0.451c0.179,0.169,0.339,0.355,0.482,0.556c0.142,0.201,0.264,0.414,0.364,0.639l5.258,11.762
		c0.1,0.225,0.178,0.457,0.233,0.697c0.055,0.24,0.085,0.483,0.092,0.729c0.007,0.246-0.01,0.491-0.052,0.733
		c-0.041,0.243-0.106,0.479-0.194,0.709c-0.088,0.23-0.197,0.449-0.329,0.658c-0.131,0.208-0.281,0.402-0.451,0.581
		c-0.169,0.179-0.354,0.339-0.555,0.482C144.841,65.716,144.628,65.837,144.403,65.938z"/>
	<path fill="#D19033" d="M167.778,180.647c0.482-0.158,0.941-0.382,1.341-0.72l31.132-26.317c1.962-1.659,1.954-4.895-0.019-7.229
		c-1.972-2.334-5.162-2.88-7.124-1.222l-9.956,6.952l23.372-19.758c0.292-0.247,0.557-0.52,0.796-0.819
		c0.238-0.299,0.445-0.619,0.621-0.958c0.175-0.34,0.316-0.694,0.422-1.061c0.106-0.368,0.174-0.742,0.206-1.123
		c0.032-0.381,0.026-0.762-0.017-1.142c-0.043-0.38-0.123-0.752-0.239-1.116c-0.116-0.364-0.267-0.714-0.453-1.048
		c-0.185-0.335-0.401-0.648-0.648-0.94l-0.681-0.805c-0.247-0.292-0.52-0.557-0.819-0.795c-0.299-0.238-0.619-0.445-0.958-0.62
		c-0.34-0.175-0.694-0.316-1.061-0.421c-0.368-0.106-0.742-0.174-1.123-0.206c-0.381-0.032-0.762-0.026-1.142,0.017
		c-0.38,0.043-0.752,0.123-1.116,0.239c-0.364,0.116-0.714,0.267-1.048,0.452c-0.335,0.185-0.648,0.401-0.94,0.648l-16.72,14.133
		l27.933-25.329c2.564-2.168,2.553-6.398-0.024-9.447c-2.578-3.05-6.747-3.764-9.312-1.597l-32.522,25.433l23.819-20.135
		c0.315-0.266,0.6-0.56,0.857-0.883c0.257-0.322,0.48-0.667,0.668-1.033c0.189-0.366,0.34-0.747,0.454-1.143
		c0.114-0.396,0.188-0.799,0.222-1.21c0.034-0.411,0.028-0.821-0.018-1.23c-0.046-0.409-0.132-0.81-0.258-1.203
		c-0.125-0.393-0.288-0.769-0.487-1.13c-0.199-0.361-0.432-0.698-0.698-1.013l-0.733-0.867c-0.266-0.315-0.56-0.6-0.882-0.857
		c-0.322-0.257-0.667-0.48-1.033-0.668c-0.366-0.189-0.747-0.34-1.143-0.454c-0.396-0.114-0.799-0.188-1.21-0.222
		c-0.411-0.034-0.821-0.028-1.23,0.018c-0.409,0.046-0.81,0.132-1.203,0.258c-0.393,0.125-0.769,0.288-1.13,0.487
		c-0.361,0.2-0.698,0.432-1.013,0.698l-52.852,44.677c0.928-6.69,1.165-17.03-0.325-23.082c-0.491-1.732-1.241-3.344-2.25-4.835
		c-1.009-1.491-2.226-2.786-3.652-3.886c-3.241-2.364-6.634-2.292-9.076,0.19c-1.714,1.742-1.628,4.42-1.508,8.126v0.004
		l-0.141,4.632l-0.004,0.001l-0.185,4.545c-0.141,3.459-0.94,6.758-2.399,9.897l-3.049,6.561c-2.12,4.687-3.079,27.483-3.461,40.669
		c-0.021,0.719-0.187,1.403-0.5,2.052c-0.312,0.648-0.743,1.205-1.293,1.67c0,0-10.917,10.179-10.98,11.817
		c-0.031,0.821,0.104,1.614,0.406,2.379c0.301,0.765,0.744,1.437,1.327,2.016l21.756,21.574
		c0.904,0.896,24.758-19.863,25.259-20.498c1.274-1.614,5.908-5.025,7.671-5.909C151.739,195.686,159.962,188.63,167.778,180.647
		L167.778,180.647z"/>
	<path fill="#FFB031" d="M173.61,166.103c0.312-0.399,0.569-0.84,0.714-1.344l11.229-39.188c0.707-2.47-1.1-5.154-4.037-5.996
		c-2.937-0.841-5.892,0.478-6.6,2.949l-4.405,11.316l8.43-29.42c0.105-0.368,0.174-0.742,0.205-1.123
		c0.032-0.381,0.026-0.762-0.018-1.141c-0.043-0.38-0.123-0.752-0.24-1.116c-0.117-0.364-0.268-0.713-0.453-1.048
		c-0.185-0.334-0.402-0.648-0.649-0.939c-0.247-0.292-0.52-0.557-0.82-0.795c-0.299-0.238-0.619-0.445-0.959-0.62
		c-0.34-0.175-0.694-0.315-1.061-0.421l-1.013-0.29c-0.368-0.105-0.742-0.174-1.123-0.205c-0.381-0.032-0.762-0.026-1.142,0.018
		c-0.38,0.043-0.752,0.123-1.116,0.24c-0.364,0.117-0.713,0.268-1.048,0.453s-0.648,0.402-0.939,0.649
		c-0.292,0.247-0.557,0.52-0.795,0.82c-0.238,0.299-0.445,0.619-0.62,0.959c-0.175,0.34-0.315,0.694-0.421,1.061l-6.031,21.045
		l9.12-36.587c0.925-3.228-1.438-6.737-5.276-7.837c-3.839-1.1-7.701,0.625-8.626,3.854l-12.876,39.226l8.592-29.983
		c0.113-0.396,0.187-0.799,0.221-1.21c0.034-0.411,0.028-0.821-0.019-1.23c-0.047-0.409-0.133-0.81-0.259-1.203
		c-0.126-0.392-0.288-0.769-0.488-1.129c-0.2-0.36-0.433-0.698-0.699-1.012c-0.266-0.314-0.561-0.6-0.883-0.856
		s-0.667-0.479-1.033-0.668c-0.366-0.189-0.748-0.34-1.144-0.453l-1.092-0.313c-0.396-0.113-0.799-0.187-1.21-0.221
		c-0.411-0.034-0.821-0.028-1.23,0.019c-0.409,0.047-0.81,0.133-1.203,0.259c-0.392,0.126-0.769,0.288-1.129,0.488
		c-0.36,0.2-0.698,0.433-1.012,0.699c-0.314,0.266-0.6,0.561-0.856,0.883c-0.256,0.322-0.479,0.667-0.668,1.033
		s-0.34,0.748-0.453,1.144l-19.063,66.527c-2.951-6.075-8.506-14.799-13.11-19c-1.372-1.166-2.892-2.088-4.56-2.765
		c-1.668-0.678-3.4-1.077-5.196-1.198c-4.008-0.162-6.787,1.786-7.435,5.207c-0.455,2.4,1.106,4.578,3.268,7.591l0.002,0.003
		l2.46,3.927l-0.003,0.003l2.375,3.88c1.807,2.952,2.978,6.138,3.513,9.558l1.117,7.148c0.845,5.075,12.732,24.55,19.75,35.72
		c0.383,0.609,0.625,1.27,0.726,1.983c0.101,0.712,0.053,1.415-0.145,2.107c0,0-3.409,14.532-2.549,15.928
		c0.431,0.7,0.985,1.283,1.661,1.751c0.676,0.468,1.417,0.78,2.224,0.938l30.08,5.823c1.25,0.241,9.523-30.28,9.585-31.084
		c0.16-2.051,2.114-7.463,3.087-9.178C168.65,187.523,171.556,177.085,173.61,166.103L173.61,166.103z"/>
</g>
</svg>
