<svg xmlns="http://www.w3.org/2000/svg" version="1.0" viewBox="0 0 300 300"><path fill="#86BF5A" d="M300 150.01a149.856 149.856 0 01-2.21 25.645 149.843 149.843 0 01-12.192 38.491 149.533 149.533 0 01-12.961 22.24 149.61 149.61 0 01-16.574 19.696 149.909 149.909 0 01-35.356 26.226 149.536 149.536 0 01-27.166 11.251 149.545 149.545 0 01-17.899 4.25 149.047 149.047 0 01-18.284 2.027c-6.137.303-12.268.228-18.395-.225a149.932 149.932 0 01-18.229-2.473 150.052 150.052 0 01-34.869-11.522c-7.785-3.679-15.197-8-22.238-12.961a149.584 149.584 0 01-19.694-16.573 150.162 150.162 0 01-26.224-35.359 149.897 149.897 0 01-15.502-45.068A150.045 150.045 0 0127.358 63.633a149.747 149.747 0 0116.573-19.695 149.27 149.27 0 0116.71-14.416 149.576 149.576 0 0125.222-15.119 150.189 150.189 0 0127.686-9.906A150.28 150.28 0 01135.293.723a149.753 149.753 0 0140.349 1.487 149.698 149.698 0 0124.889 6.559 149.379 149.379 0 0113.599 5.633 149.702 149.702 0 0122.238 12.961 149.746 149.746 0 0119.694 16.574 149.296 149.296 0 0114.415 16.712 149.792 149.792 0 0111.809 18.647 149.624 149.624 0 0111.253 27.167A149.282 149.282 0 01300 150.01"/><path fill="#FFF" d="M201.06 87.169v116.466a6.162 6.162 0 01-.465 2.346 6.126 6.126 0 01-5.663 3.782h-90.714a6.133 6.133 0 01-6.13-6.13V87.169a6.06 6.06 0 01.968-3.298 6.1 6.1 0 015.162-2.832h90.714a6.102 6.102 0 012.95.751 6.146 6.146 0 012.223 2.08 6.046 6.046 0 01.955 3.299"/><path fill="none" stroke="#EDEDED" stroke-linecap="round" stroke-miterlimit="10" stroke-width="5.374" d="M106.716 191.37h85.726m-85.726-30.648h85.726m-85.726-30.649h85.726m-85.726-30.648h85.726"/><path fill="none" stroke="#EDEDED" stroke-linecap="round" stroke-miterlimit="10" stroke-width="1.791" d="M106.716 110.458h85.726m-85.726 8.581h85.726m-85.726 22.068h85.726m-85.726 8.581h85.726m-85.726 22.067h85.726m-85.726 8.582h85.726"/><g fill="#FFB031"><path d="M152.804 100.693c-14.868-1.859-28.498 9.087-30.564 23.957-1.032 7.641-.62 15.695-.206 23.337.413 8.261.826 16.728-.413 24.989-1.239 8.468 4.543 16.109 13.01 17.348 8.261 1.239 15.901-4.75 17.14-13.218.206-1.033.206-2.272.206-3.304-.62-9.707 6.815-19 14.043-24.37 5.783-4.337 9.5-10.739 10.532-17.967 1.859-15.076-8.673-28.913-23.748-30.772zm8.26 40.272c-1.032 1.032-2.685 1.032-3.511-.207-.62-.826-.62-2.272.207-3.098 5.782-5.989 3.511-16.522-4.75-19.206-7.228-2.478-14.456 2.478-15.488 9.5v.207c-.207 1.033.62 2.272 1.652 2.478 3.717 1.239 7.022 3.717 9.087 7.022 4.75 7.642 1.239 14.663.826 15.695v.207c-1.239 3.717-5.162 5.989-8.88 5.37-4.13-.62-7.021-3.924-7.228-8.055 0-2.066-.206-4.13-.206-5.989-.206-6.196-.62-11.979.206-17.555 1.446-10.12 11.565-16.522 21.477-13.424 11.564 4.131 14.662 18.794 6.608 27.055z"/><path d="M137.315 144.889c0 2.065.207 4.13.207 6.196 0 1.859 1.446 3.304 3.098 3.511 1.652.206 3.304-.62 3.924-2.272v-.206c.206-1.032 2.891-5.989-.413-11.566a9.526 9.526 0 00-3.511-3.511c-1.652-1.033-3.717.207-3.717 2.066.206 1.652.412 3.717.412 5.782m40.092-34.663l-.44-.44c-.44-.44-.44-1.211 0-1.651l7.486-7.487c.44-.44 1.211-.44 1.651 0l.44.44c.44.441.44 1.211 0 1.651l-7.486 7.487c-.439.441-1.21.441-1.651 0m4.665 21.58v-.55c0-.661.55-1.211 1.211-1.211h10.569c.66 0 1.211.55 1.211 1.211v.55a1.203 1.203 0 01-.357.854 1.213 1.213 0 01-.854.357h-10.569c-.66-.11-1.211-.551-1.211-1.211m4.033 28.515l.44-.44c.44-.44.44-1.211 0-1.651l-7.486-7.487c-.44-.44-1.211-.44-1.651 0l-.44.44c-.44.44-.44 1.211 0 1.651l7.486 7.487c.55.55 1.21.55 1.651 0"/></g></svg>