<svg xmlns="http://www.w3.org/2000/svg" version="1.0" viewBox="0 0 300 300"><circle cx="149.998" cy="150" r="150" fill="#FFF"/><circle cx="150" cy="150" r="140.812" fill="#FBBC4B"/><g fill="#FFF"><path d="M155.852 84.992c-23.55-2.944-45.138 14.392-48.409 37.942-1.635 12.102-.981 24.859-.327 36.961.654 13.083 1.308 26.494-.654 39.577-1.963 13.411 7.196 25.513 20.606 27.475 13.083 1.963 25.186-7.523 27.148-20.933.327-1.635.327-3.598.327-5.233-.981-15.373 10.794-30.092 22.242-38.596 9.158-6.869 15.046-17.008 16.681-28.456 2.944-23.878-13.737-45.793-37.614-48.737zm13.083 63.782c-1.635 1.635-4.252 1.635-5.56-.327-.981-1.308-.981-3.598.327-4.906 9.158-9.485 5.56-26.167-7.523-30.419-11.448-3.925-22.896 3.925-24.531 15.046v.327c-.327 1.635.981 3.598 2.617 3.925 5.888 1.963 11.121 5.888 14.392 11.121 7.523 12.102 1.963 23.223 1.308 24.859v.327c-1.963 5.888-8.177 9.485-14.065 8.504-6.542-.981-11.121-6.215-11.448-12.756 0-3.271-.327-6.542-.327-9.485-.327-9.813-.981-18.971.327-27.802 2.29-16.027 18.317-26.167 34.017-21.261 18.316 6.54 23.222 29.764 10.466 42.847z"/><path d="M131.32 154.989c0 3.271.327 6.542.327 9.813 0 2.944 2.29 5.233 4.906 5.56 2.617.327 5.233-.981 6.215-3.598v-.327c.327-1.635 4.579-9.485-.654-18.317a15.108 15.108 0 00-5.56-5.56c-2.617-1.635-5.888.327-5.888 3.271.327 2.616.654 5.887.654 9.158z"/></g><path fill="#FFF" d="M193.142 100.989l-.668-.668c-.668-.668-.668-1.836 0-2.504l11.349-11.349c.668-.668 1.836-.668 2.504 0l.668.668c.668.668.668 1.836 0 2.504l-11.349 11.349c-.668.668-1.836.668-2.504 0zm7.659 33.826v-.835c0-1.001.835-1.836 1.836-1.836h16.023c1.001 0 1.836.835 1.836 1.836v.835a1.853 1.853 0 01-1.836 1.836h-16.023c-1.001-.167-1.836-.835-1.836-1.836zm5.913 44.373l.668-.668c.668-.668.668-1.836 0-2.504l-11.349-11.349c-.668-.668-1.836-.668-2.504 0l-.668.668c-.668.668-.668 1.836 0 2.504l11.349 11.349c.835.834 1.837.834 2.504 0z"/></svg>