<?xml version="1.0" encoding="utf-8"?>
<!-- Generator: Adobe Illustrator 23.0.6, SVG Export Plug-In . SVG Version: 6.00 Build 0)  -->
<svg version="1.0" id="Camada_1" xmlns="http://www.w3.org/2000/svg" xmlns:xlink="http://www.w3.org/1999/xlink" x="0px" y="0px"
	 viewBox="0 0 300 300" enable-background="new 0 0 300 300" xml:space="preserve">
<g>
	
		<ellipse transform="matrix(0.7071 -0.7071 0.7071 0.7071 -62.1321 149.9998)" fill="#FFFFFF" cx="150" cy="150" rx="150" ry="150"/>
	<circle fill="#FBBC4B" cx="150" cy="150" r="140.812"/>
</g>
<path fill="#DB8819" d="M204.22,135.703c-13.708,0-25.873,6.601-33.491,16.798c3.496-13.031,5.794-28.959,5.794-46.159
	c0-44.075-26.758-79.804-26.758-79.804s-26.758,35.73-26.758,79.804c0,16.797,2.193,32.378,5.552,45.235
	c-7.652-9.669-19.491-15.874-32.779-15.874c-23.074,0-41.78,18.706-41.78,41.78c0,6.092,1.314,11.873,3.658,17.092
	c6.534-14.55,21.139-24.688,38.122-24.688c14.991,0,28.126,7.903,35.495,19.763H120.66c-3.098,0-5.633,2.535-5.633,5.633v13.648
	c0,3.098,2.535,5.633,5.633,5.633h8.518c-4.593,4.214-10.712,6.79-17.437,6.79c-10.495,0-19.521-6.265-23.558-15.257
	c-1.448,3.225-2.261,6.798-2.261,10.562c0,14.259,11.56,25.819,25.819,25.819c10.494,0,19.52-6.265,23.558-15.256
	c0.694,4.116,1.475,8.041,2.301,11.74c-1.267,1.552-2.554,3.218-3.835,4.977c-7.629,10.48-10.019,21.739-10.019,21.739
	s9.269-5.327,16.77-15.094c3.943,14.146,7.841,22.876,7.841,22.876s3.825-8.565,7.729-22.476
	c7.444,9.512,16.459,14.694,16.459,14.694s-2.39-11.259-10.019-21.739c-1.169-1.606-2.344-3.135-3.503-4.57
	c0.677-3.004,1.326-6.158,1.921-9.445c4.513,7.519,12.743,12.553,22.151,12.553c14.259,0,25.819-11.56,25.819-25.819
	c0-3.764-0.812-7.337-2.261-10.562c-4.038,8.991-13.063,15.257-23.558,15.257c-6.725,0-12.844-2.576-17.437-6.79h7.579
	c3.098,0,5.633-2.535,5.633-5.633v-13.648c0-3.098-2.535-5.633-5.633-5.633h-4.512c7.37-11.86,20.504-19.763,35.495-19.763
	c16.983,0,31.588,10.139,38.122,24.688c2.344-5.219,3.658-11,3.658-17.092C246,154.409,227.294,135.703,204.22,135.703z"/>
<g>
	<path fill="#3F3F3F" d="M187.975,200.007h-75.951c-3.166,0-5.732-2.566-5.732-5.732v-44.599c0-1.475,1.196-2.671,2.671-2.671
		h82.075c1.475,0,2.671,1.196,2.671,2.671v44.599C193.707,197.441,191.141,200.007,187.975,200.007z"/>
	<path fill="#494949" d="M193.708,149.26v40.902c0,2.678-2.169,4.839-4.839,4.839h-77.737c-2.677,0-4.839-2.161-4.839-4.839V149.26
		c0-1.247,1.009-2.256,2.249-2.256h82.909C192.699,147.004,193.708,148.013,193.708,149.26z"/>
	<rect x="118.015" y="160.164" fill="#3D3D3D" width="63.969" height="39.843"/>
	<g>
		<g>
			<path fill="#E2E2E2" d="M127.255,205h-8.591c-2.167,0-3.923-1.757-3.923-3.923v-40.913h16.438v40.913
				C131.178,203.243,129.421,205,127.255,205z"/>
			<path fill="#FFFFFF" d="M127.255,200.007h-8.591c-2.167,0-3.923-1.757-3.923-3.923v-35.92h16.438v35.92
				C131.178,198.251,129.421,200.007,127.255,200.007z"/>
		</g>
		<g>
			<path fill="#E2E2E2" d="M145.281,205h-8.591c-2.167,0-3.923-1.757-3.923-3.923v-40.913h16.438v40.913
				C149.205,203.243,147.448,205,145.281,205z"/>
			<path fill="#FFFFFF" d="M145.281,200.007h-8.591c-2.167,0-3.923-1.757-3.923-3.923v-35.92h16.438v35.92
				C149.205,198.251,147.448,200.007,145.281,200.007z"/>
		</g>
		<g>
			<path fill="#E2E2E2" d="M163.308,205h-8.591c-2.167,0-3.923-1.757-3.923-3.923v-40.913h16.438v40.913
				C167.231,203.243,165.475,205,163.308,205z"/>
			<path fill="#FFFFFF" d="M163.308,200.007h-8.591c-2.167,0-3.923-1.757-3.923-3.923v-35.92h16.438v35.92
				C167.231,198.251,165.475,200.007,163.308,200.007z"/>
		</g>
		<g>
			<path fill="#E2E2E2" d="M181.335,205h-8.591c-2.167,0-3.923-1.757-3.923-3.923v-40.913h16.438v40.913
				C185.258,203.243,183.501,205,181.335,205z"/>
			<path fill="#FFFFFF" d="M181.335,200.007h-8.591c-2.167,0-3.923-1.757-3.923-3.923v-35.92h16.438v35.92
				C185.258,198.251,183.501,200.007,181.335,200.007z"/>
		</g>
		<g>
			<path fill="#4C4C4C" d="M133.508,186.389h-3.072c-1.587,0-2.874-1.287-2.874-2.874v-16.788h8.819v16.788
				C136.382,185.102,135.095,186.389,133.508,186.389z"/>
			<path fill="#565656" d="M133.508,181.396h-3.072c-1.587,0-2.874-1.287-2.874-2.874v-18.359h8.819v18.359
				C136.382,180.11,135.095,181.396,133.508,181.396z"/>
		</g>
		<g>
			<path fill="#4C4C4C" d="M151.535,186.389h-3.072c-1.587,0-2.874-1.287-2.874-2.874v-16.788h8.819v16.788
				C154.409,185.102,153.122,186.389,151.535,186.389z"/>
			<path fill="#565656" d="M151.535,181.396h-3.072c-1.587,0-2.874-1.287-2.874-2.874v-18.359h8.819v18.359
				C154.409,180.11,153.122,181.396,151.535,181.396z"/>
		</g>
	</g>
	<path fill="#E5E5E5" d="M193.708,149.26v14.683h-87.414V149.26c0-1.247,1.009-2.256,2.249-2.256h82.909
		C192.699,147.004,193.708,148.013,193.708,149.26z"/>
	<path fill="#353535" d="M193.708,135.932v24.232h-87.414v-24.232c0-1.247,1.009-2.256,2.249-2.256h82.909
		C192.699,133.675,193.708,134.685,193.708,135.932z"/>
	<path fill="#282828" d="M185.258,140.098v13.642c0,0.957-0.776,1.733-1.733,1.733h-67.047c-0.957,0-1.733-0.776-1.733-1.733
		v-13.642c0-0.957,0.776-1.733,1.733-1.733h67.047C184.482,138.366,185.258,139.141,185.258,140.098z"/>
	<g>
		<g>
			<path fill="#494949" d="M110.828,148.614c0-5.69,0-8.536,0-14.226c0.438-8.608,9.049-13.734,16.896-13.989
				c2.827-0.092,5.127-2.596,8.449-6.987c6.438-8.508,15.253-16.795,26.296-18.192c19.199-2.43,31.318,15.681,31.239,33.133
				c0,10.604,0,21.207,0,31.81C166.082,156.314,138.455,152.464,110.828,148.614z"/>
		</g>
	</g>
</g>
</svg>
