<?xml version="1.0" encoding="utf-8"?>
<!-- Generator: Adobe Illustrator 23.0.6, SVG Export Plug-In . SVG Version: 6.00 Build 0)  -->
<svg version="1.0" id="Camada_1" xmlns="http://www.w3.org/2000/svg" xmlns:xlink="http://www.w3.org/1999/xlink" x="0px" y="0px"
	 viewBox="0 0 300 300" enable-background="new 0 0 300 300" xml:space="preserve">
<g>
	
		<ellipse transform="matrix(0.7071 -0.7071 0.7071 0.7071 -62.1321 149.9998)" fill="#FDEFF1" cx="150" cy="150" rx="150" ry="150"/>
	<circle fill="#EB595B" cx="150" cy="150" r="140.812"/>
</g>
<g>
	<path fill="#4C4C4C" d="M162.757,127.619c-1.146,0.645-2.303,1.142-3.453,1.52c-3.914,1.065-10.748,2.031-17.061-1.52
		c-8.858-4.983-68.848-8.769-89.33-3.434c-2.385,0.621-4.017,2.809-3.908,5.271l0.296,6.711c0.082,1.858,1.15,3.532,2.802,4.388
		l0.131,0.068c1.546,0.802,2.596,2.32,2.776,4.052c1.05,10.11,7.567,44.983,47.5,44.983c39.874,0,43.237-32.446,43.368-41.936
		c0.026-1.883,1.072-3.607,2.736-4.486c0.813-0.429,1.759-0.826,2.778-1.06c0.726-0.167,1.488-0.167,2.215,0
		c1.019,0.234,1.966,0.631,2.778,1.06c1.665,0.879,2.711,2.603,2.736,4.486c0.131,9.489,3.494,41.936,43.368,41.936
		c39.934,0,46.45-34.873,47.5-44.983c0.18-1.732,1.229-3.251,2.776-4.052l0.131-0.068c1.651-0.856,2.72-2.529,2.802-4.388
		l0.296-6.711c0.109-2.462-1.523-4.65-3.908-5.271C231.605,118.85,171.615,122.636,162.757,127.619z"/>
	<path fill="#FFFFFF" d="M250.865,137.813l0.442,0.026c0.927,0.055,1.731-0.66,1.785-1.587l0.363-6.164
		c0.055-0.927-0.66-1.731-1.587-1.785l-0.442-0.026c-0.927-0.055-1.731,0.66-1.785,1.587l-0.363,6.164
		C249.224,136.955,249.938,137.758,250.865,137.813z"/>
	<path fill="#FFFFFF" d="M54.135,137.813l-0.442,0.026c-0.927,0.055-1.731-0.66-1.785-1.587l-0.363-6.164
		c-0.055-0.927,0.66-1.731,1.587-1.785l0.442-0.026c0.927-0.055,1.731,0.66,1.785,1.587l0.363,6.164
		C55.776,136.955,55.062,137.758,54.135,137.813z"/>
</g>
<path fill="#353535" d="M109.027,177.554H90.984C65,177.554,61,132.446,75,132.446h48C144,132.446,134,177.554,109.027,177.554z"/>
<path fill="#353535" d="M195.419,177.554h18.043c25.984,0,29.984-45.107,15.984-45.107h-48
	C160.446,132.446,170.446,177.554,195.419,177.554z"/>
</svg>
