<svg xmlns="http://www.w3.org/2000/svg" version="1.0" viewBox="0 0 300 300"><circle cx="150" cy="150" r="150" fill="#FDEFF1" transform="rotate(-45.001 149.999 150.002)"/><circle cx="150" cy="150" r="140.812" fill="#EB595B"/><path fill="#4C4C4C" d="M162.757 127.619a19.326 19.326 0 01-3.453 1.52c-3.914 1.065-10.748 2.031-17.061-1.52-8.858-4.983-68.848-8.769-89.33-3.434a5.211 5.211 0 00-3.908 5.271l.296 6.711a5.2 5.2 0 002.802 4.388l.131.068a5.176 5.176 0 012.776 4.052c1.05 10.11 7.567 44.983 47.5 44.983 39.874 0 43.237-32.446 43.368-41.936a5.15 5.15 0 012.736-4.486c.813-.429 1.759-.826 2.778-1.06a4.96 4.96 0 012.215 0c1.019.234 1.966.631 2.778 1.06a5.147 5.147 0 012.736 4.486c.131 9.489 3.494 41.936 43.368 41.936 39.934 0 46.45-34.873 47.5-44.983a5.172 5.172 0 012.776-4.052l.131-.068a5.201 5.201 0 002.802-4.388l.296-6.711a5.211 5.211 0 00-3.908-5.271c-20.481-5.335-80.471-1.549-89.329 3.434z"/><path fill="#FFF" d="M250.865 137.813l.442.026a1.694 1.694 0 001.785-1.587l.363-6.164a1.694 1.694 0 00-1.587-1.785l-.442-.026a1.694 1.694 0 00-1.785 1.587l-.363 6.164c-.054.927.66 1.73 1.587 1.785zm-196.73 0l-.442.026a1.694 1.694 0 01-1.785-1.587l-.363-6.164a1.694 1.694 0 011.587-1.785l.442-.026a1.694 1.694 0 011.785 1.587l.363 6.164c.054.927-.66 1.73-1.587 1.785z"/><path fill="#353535" d="M109.027 177.554H90.984C65 177.554 61 132.446 75 132.446h48c21 0 11 45.108-13.973 45.108zm86.392 0h18.043c25.984 0 29.984-45.107 15.984-45.107h-48c-21-.001-11 45.107 13.973 45.107z"/></svg>