<?xml version="1.0" encoding="utf-8"?>
<!-- Generator: Adobe Illustrator 23.0.6, SVG Export Plug-In . SVG Version: 6.00 Build 0)  -->
<svg version="1.0" id="Camada_1" xmlns="http://www.w3.org/2000/svg" xmlns:xlink="http://www.w3.org/1999/xlink" x="0px" y="0px"
	 viewBox="0 0 300 300" enable-background="new 0 0 300 300" xml:space="preserve">
<ellipse fill="#FFFFFF" cx="149.998" cy="150" rx="150" ry="150"/>
<circle fill="#5EC2D7" cx="150" cy="150" r="140.812"/>
<g>
	<path fill="#FFFBF3" d="M216.464,234.329l7.357-1.602v-5.932l-3.881-2.912l3.881-7.979v-50.48l-1.231-0.952l-0.904-4.888
		l-3.1-4.324l5.236-5.26v-19.874l-1.231-3.809l1.231-9.519v-13.696l-1.817-6.372l1.817-21.531V61.239
		c0-1.942-1.574-3.515-3.515-3.515h-28.841l-10.106,5.391l-4.208-3.677l-12.04-1.714h-33.177l-20.222,2.974l-8.792-2.974H79.694
		c-1.941,0-3.515,1.574-3.515,3.515v10.005l1.259,18.015l-1.259,8.129v21.97l4.115,4.395l-4.115,15.16v17.232l4.335,6.496
		l-4.335,4.175v20.967l2.431,21.436l-2.431,16.698v12.844c0,1.941,1.574,3.515,3.515,3.515l24.112-0.009l7.832-4.267l3.901,2.561
		l18.272,0.096l4.394-1.428l-0.349,2.067l1.391,0.961l79.901-0.031l-1.979-3.127l0.773-1.874L216.464,234.329z"/>
	<g>
		<g>
			
				<line fill="none" stroke="#DDD6CA" stroke-width="3" stroke-linecap="round" stroke-miterlimit="10" x1="88.551" y1="215.905" x2="211.465" y2="215.905"/>
			
				<line fill="none" stroke="#DDD6CA" stroke-width="3" stroke-linecap="round" stroke-miterlimit="10" x1="88.551" y1="171.964" x2="211.465" y2="171.964"/>
		</g>
		
			<line fill="none" stroke="#DDD6CA" stroke-width="3" stroke-linecap="round" stroke-miterlimit="10" x1="88.551" y1="128.022" x2="211.465" y2="128.022"/>
		
			<line fill="none" stroke="#DDD6CA" stroke-width="3" stroke-linecap="round" stroke-miterlimit="10" x1="88.551" y1="84.081" x2="211.465" y2="84.081"/>
		<g>
			
				<line fill="none" stroke="#DDD6CA" stroke-linecap="round" stroke-miterlimit="10" x1="88.551" y1="99.9" x2="211.465" y2="99.9"/>
			
				<line fill="none" stroke="#DDD6CA" stroke-linecap="round" stroke-miterlimit="10" x1="88.551" y1="112.204" x2="211.465" y2="112.204"/>
		</g>
		<g>
			
				<line fill="none" stroke="#DDD6CA" stroke-linecap="round" stroke-miterlimit="10" x1="88.551" y1="143.841" x2="211.465" y2="143.841"/>
			
				<line fill="none" stroke="#DDD6CA" stroke-linecap="round" stroke-miterlimit="10" x1="88.551" y1="156.145" x2="211.465" y2="156.145"/>
		</g>
		<g>
			
				<line fill="none" stroke="#DDD6CA" stroke-linecap="round" stroke-miterlimit="10" x1="88.551" y1="187.782" x2="211.465" y2="187.782"/>
			
				<line fill="none" stroke="#DDD6CA" stroke-linecap="round" stroke-miterlimit="10" x1="88.551" y1="200.086" x2="211.465" y2="200.086"/>
		</g>
	</g>
</g>
<path fill="#3F3F3F" d="M196.41,215.837h-92.82c-3.363,0-6.09-2.727-6.09-6.09l0,0v-64.665c0-1.567,1.27-2.837,2.837-2.837l0,0
	h99.326c1.567,0,2.837,1.27,2.837,2.837c0,0,0,0,0,0v64.665C202.5,213.11,199.773,215.837,196.41,215.837z"/>
<path fill="#494949" d="M196.41,209.827h-92.82c-3.363,0-6.09-2.727-6.09-6.09l0,0v-58.655c0-1.567,1.27-2.837,2.837-2.837l0,0
	h99.326c1.567,0,2.837,1.27,2.837,2.837c0,0,0,0,0,0v58.655C202.5,207.1,199.773,209.827,196.41,209.827z"/>
<path fill="#3D3D3D" d="M111.582,155.982h76.837v59.856h-76.837L111.582,155.982z"/>
<path fill="#E2E2E2" d="M119.278,221.834h-8.096c-2.038,0-3.69-1.652-3.69-3.69l0,0v-62.162h15.476v62.162
	C122.968,220.182,121.316,221.834,119.278,221.834C119.278,221.834,119.278,221.834,119.278,221.834z"/>
<path fill="#FFFFFF" d="M119.278,215.837h-8.096c-2.038,0-3.69-1.652-3.69-3.69l0,0v-56.165h15.476v56.165
	C122.968,214.185,121.316,215.837,119.278,215.837C119.278,215.837,119.278,215.837,119.278,215.837z"/>
<path fill="#E2E2E2" d="M136.663,221.834h-8.096c-2.038,0-3.69-1.652-3.69-3.69l0,0v-62.162h15.476v62.162
	C140.353,220.182,138.701,221.834,136.663,221.834L136.663,221.834z"/>
<path fill="#FFFFFF" d="M136.663,215.837h-8.096c-2.038,0-3.69-1.652-3.69-3.69l0,0v-56.165h15.476v56.165
	C140.353,214.185,138.701,215.837,136.663,215.837L136.663,215.837z"/>
<path fill="#E2E2E2" d="M154.048,221.834h-8.096c-2.038,0-3.69-1.652-3.69-3.69l0,0v-62.162h15.476v62.162
	C157.738,220.182,156.086,221.834,154.048,221.834L154.048,221.834z"/>
<path fill="#FFFFFF" d="M154.048,215.837h-8.096c-2.038,0-3.69-1.652-3.69-3.69l0,0v-56.165h15.476v56.165
	C157.738,214.185,156.086,215.837,154.048,215.837L154.048,215.837z"/>
<path fill="#E2E2E2" d="M171.433,221.834h-8.096c-2.038,0-3.69-1.652-3.69-3.69l0,0v-62.162h15.476v62.162
	C175.123,220.182,173.471,221.834,171.433,221.834L171.433,221.834z"/>
<path fill="#FFFFFF" d="M171.433,215.837h-8.096c-2.038,0-3.69-1.652-3.69-3.69l0,0v-56.165h15.476v56.165
	C175.123,214.185,173.471,215.837,171.433,215.837L171.433,215.837z"/>
<g>
	<path fill="#E2E2E2" d="M188.818,221.834h-8.096c-2.038,0-3.69-1.652-3.69-3.69l0,0v-62.162h15.476v62.162
		C192.508,220.182,190.856,221.834,188.818,221.834L188.818,221.834z"/>
	<path fill="#FFFFFF" d="M188.818,215.837h-8.096c-2.038,0-3.69-1.652-3.69-3.69l0,0v-56.165h15.476v56.165
		C192.508,214.185,190.856,215.837,188.818,215.837L188.818,215.837z"/>
</g>
<g>
	<path fill="#4C4C4C" d="M126.166,195.385h-4.487c-1.686,0-3.053-1.367-3.053-3.053v-28.467h10.593v28.467
		C129.219,194.018,127.852,195.385,126.166,195.385z"/>
	<path fill="#565656" d="M126.166,189.388h-4.487c-1.686,0-3.053-1.367-3.053-3.053v-30.353h10.593v30.353
		C129.219,188.021,127.852,189.388,126.166,189.388z"/>
</g>
<g>
	<path fill="#4C4C4C" d="M143.551,195.385h-4.487c-1.686,0-3.053-1.367-3.053-3.053v-28.467h10.593v28.467
		C146.604,194.018,145.237,195.385,143.551,195.385L143.551,195.385z"/>
	<path fill="#565656" d="M143.551,189.388h-4.487c-1.686,0-3.053-1.367-3.053-3.053v-30.353h10.593v30.353
		C146.604,188.021,145.237,189.388,143.551,189.388L143.551,189.388z"/>
</g>
<g>
	<path fill="#4C4C4C" d="M178.321,195.385h-4.487c-1.686,0-3.053-1.367-3.053-3.053v-28.467h10.593v28.467
		C181.374,194.018,180.007,195.385,178.321,195.385L178.321,195.385z"/>
	<path fill="#565656" d="M178.321,189.388h-4.487c-1.686,0-3.053-1.367-3.053-3.053v-30.353h10.593v30.353
		C181.374,188.021,180.007,189.388,178.321,189.388L178.321,189.388z"/>
</g>
<path opacity="0.59" fill="#353535" enable-background="new    " d="M97.5,160.569v-11.344c0-1.322,1.371-2.393,3.063-2.393h98.874
	c1.692,0,3.063,1.072,3.063,2.393v11.344H97.5L97.5,160.569z"/>
<path fill="#353535" d="M97.5,155.982v-17.43c0-11.858,17.342-11.858,19.033-11.858h82.903c1.692,0,3.063,2.285,3.063,5.103v24.185
	H97.5z"/>
<path fill="#282828" d="M191.366,131.579v16.582c0,1.163-0.943,2.106-2.106,2.106l0,0h-81.494c-1.163,0-2.106-0.943-2.106-2.106l0,0
	v-16.582c0-1.163,0.943-2.106,2.106-2.106h81.494c1.163-0.001,2.105,0.941,2.106,2.104
	C191.366,131.578,191.366,131.578,191.366,131.579z"/>
<g>
	<path fill="#494949" d="M103.528,142.19v-16.988c0.523-10.279,10.806-16.401,20.176-16.705c3.376-0.109,6.122-3.1,10.09-8.344
		c7.688-10.16,18.215-20.056,31.402-21.725c22.926-2.901,37.399,18.725,37.304,39.566v37.987L103.528,142.19L103.528,142.19z"/>
</g>
</svg>
