<svg xmlns="http://www.w3.org/2000/svg" version="1.0" viewBox="0 0 300 300"><circle cx="150" cy="150" r="150" fill="#FFF" transform="rotate(-45.001 149.999 150.002)"/><circle cx="150" cy="150" r="140.812" fill="#FBBC4B"/><path fill="#DB8819" d="M204.22 135.703c-13.708 0-25.873 6.601-33.491 16.798 3.496-13.031 5.794-28.959 5.794-46.159 0-44.075-26.758-79.804-26.758-79.804s-26.758 35.73-26.758 79.804c0 16.797 2.193 32.378 5.552 45.235-7.652-9.669-19.491-15.874-32.779-15.874-23.074 0-41.78 18.706-41.78 41.78a41.605 41.605 0 003.658 17.092c6.534-14.55 21.139-24.688 38.122-24.688 14.991 0 28.126 7.903 35.495 19.763H120.66c-3.098 0-5.633 2.535-5.633 5.633v13.648c0 3.098 2.535 5.633 5.633 5.633h8.518a25.705 25.705 0 01-17.437 6.79c-10.495 0-19.521-6.265-23.558-15.257a25.72 25.72 0 00-2.261 10.562c0 14.259 11.56 25.819 25.819 25.819 10.494 0 19.52-6.265 23.558-15.256a227.367 227.367 0 002.301 11.74 114.148 114.148 0 00-3.835 4.977c-7.629 10.48-10.019 21.739-10.019 21.739s9.269-5.327 16.77-15.094c3.943 14.146 7.841 22.876 7.841 22.876s3.825-8.565 7.729-22.476c7.444 9.512 16.459 14.694 16.459 14.694s-2.39-11.259-10.019-21.739a114.992 114.992 0 00-3.503-4.57 226.36 226.36 0 001.921-9.445c4.513 7.519 12.743 12.553 22.151 12.553 14.259 0 25.819-11.56 25.819-25.819 0-3.764-.812-7.337-2.261-10.562-4.038 8.991-13.063 15.257-23.558 15.257a25.705 25.705 0 01-17.437-6.79h7.579c3.098 0 5.633-2.535 5.633-5.633v-13.648c0-3.098-2.535-5.633-5.633-5.633h-4.512c7.37-11.86 20.504-19.763 35.495-19.763 16.983 0 31.588 10.139 38.122 24.688A41.605 41.605 0 00246 177.482c0-23.073-18.706-41.779-41.78-41.779z"/><path fill="#3F3F3F" d="M187.975 200.007h-75.951a5.732 5.732 0 01-5.732-5.732v-44.599a2.671 2.671 0 012.671-2.671h82.075a2.671 2.671 0 012.671 2.671v44.599a5.735 5.735 0 01-5.734 5.732z"/><path fill="#494949" d="M193.708 149.26v40.902a4.837 4.837 0 01-4.839 4.839h-77.737a4.833 4.833 0 01-4.839-4.839V149.26a2.253 2.253 0 012.249-2.256h82.909a2.255 2.255 0 012.257 2.256z"/><path fill="#3D3D3D" d="M118.015 160.164h63.969v39.843h-63.969z"/><path fill="#E2E2E2" d="M127.255 205h-8.591a3.923 3.923 0 01-3.923-3.923v-40.913h16.438v40.913a3.925 3.925 0 01-3.924 3.923z"/><path fill="#FFF" d="M127.255 200.007h-8.591a3.923 3.923 0 01-3.923-3.923v-35.92h16.438v35.92a3.925 3.925 0 01-3.924 3.923z"/><path fill="#E2E2E2" d="M145.281 205h-8.591a3.923 3.923 0 01-3.923-3.923v-40.913h16.438v40.913a3.924 3.924 0 01-3.924 3.923z"/><path fill="#FFF" d="M145.281 200.007h-8.591a3.923 3.923 0 01-3.923-3.923v-35.92h16.438v35.92a3.923 3.923 0 01-3.924 3.923z"/><path fill="#E2E2E2" d="M163.308 205h-8.591a3.923 3.923 0 01-3.923-3.923v-40.913h16.438v40.913a3.925 3.925 0 01-3.924 3.923z"/><path fill="#FFF" d="M163.308 200.007h-8.591a3.923 3.923 0 01-3.923-3.923v-35.92h16.438v35.92a3.924 3.924 0 01-3.924 3.923z"/><path fill="#E2E2E2" d="M181.335 205h-8.591a3.923 3.923 0 01-3.923-3.923v-40.913h16.438v40.913a3.925 3.925 0 01-3.924 3.923z"/><path fill="#FFF" d="M181.335 200.007h-8.591a3.923 3.923 0 01-3.923-3.923v-35.92h16.438v35.92a3.925 3.925 0 01-3.924 3.923z"/><path fill="#4C4C4C" d="M133.508 186.389h-3.072a2.874 2.874 0 01-2.874-2.874v-16.788h8.819v16.788a2.873 2.873 0 01-2.873 2.874z"/><path fill="#565656" d="M133.508 181.396h-3.072a2.874 2.874 0 01-2.874-2.874v-18.359h8.819v18.359a2.872 2.872 0 01-2.873 2.874z"/><path fill="#4C4C4C" d="M151.535 186.389h-3.072a2.874 2.874 0 01-2.874-2.874v-16.788h8.819v16.788a2.873 2.873 0 01-2.873 2.874z"/><path fill="#565656" d="M151.535 181.396h-3.072a2.874 2.874 0 01-2.874-2.874v-18.359h8.819v18.359a2.872 2.872 0 01-2.873 2.874z"/><path fill="#E5E5E5" d="M193.708 149.26v14.683h-87.414V149.26a2.253 2.253 0 012.249-2.256h82.909a2.255 2.255 0 012.256 2.256z"/><path fill="#353535" d="M193.708 135.932v24.232h-87.414v-24.232a2.253 2.253 0 012.249-2.256h82.909a2.254 2.254 0 012.256 2.256z"/><path fill="#282828" d="M185.258 140.098v13.642c0 .957-.776 1.733-1.733 1.733h-67.047a1.733 1.733 0 01-1.733-1.733v-13.642c0-.957.776-1.733 1.733-1.733h67.047a1.734 1.734 0 011.733 1.733z"/><path fill="#494949" d="M110.828 148.614v-14.226c.438-8.608 9.049-13.734 16.896-13.989 2.827-.092 5.127-2.596 8.449-6.987 6.438-8.508 15.253-16.795 26.296-18.192 19.199-2.43 31.318 15.681 31.239 33.133v31.81l-82.88-11.549z"/></svg>