<svg xmlns="http://www.w3.org/2000/svg" version="1.0" viewBox="0 0 300 300"><path fill="#FFF" d="M300 150a149.295 149.295 0 01-.723 14.702 150.663 150.663 0 01-2.16 14.561 150.48 150.48 0 01-3.577 14.279 149.469 149.469 0 01-7.943 20.591 150.761 150.761 0 01-6.939 12.982 149.407 149.407 0 01-8.178 12.239 149.097 149.097 0 01-4.53 5.804 149.029 149.029 0 01-9.886 10.907 150.293 150.293 0 01-16.711 14.416 150.754 150.754 0 01-12.239 8.178 150.046 150.046 0 01-47.852 18.459 149.427 149.427 0 01-21.903 2.702 150.538 150.538 0 01-14.72 0 150.663 150.663 0 01-21.903-2.702 150.48 150.48 0 01-14.279-3.577 149.469 149.469 0 01-20.591-7.943 150.761 150.761 0 01-12.982-6.939 149.407 149.407 0 01-12.239-8.178 149.097 149.097 0 01-5.804-4.53 149.029 149.029 0 01-10.907-9.886 150.293 150.293 0 01-14.416-16.711 150.754 150.754 0 01-8.178-12.239 150.046 150.046 0 01-18.459-47.852A149.427 149.427 0 01.179 157.36 151.8 151.8 0 010 150a149.295 149.295 0 01.723-14.702 150.663 150.663 0 012.16-14.561 150.48 150.48 0 013.577-14.279 149.469 149.469 0 017.943-20.591 150.761 150.761 0 016.939-12.982 149.407 149.407 0 018.178-12.239 149.097 149.097 0 014.53-5.804 149.029 149.029 0 019.886-10.907 150.293 150.293 0 0116.711-14.416 150.754 150.754 0 0112.239-8.178 150.046 150.046 0 0147.852-18.459A149.427 149.427 0 01142.641.18a150.465 150.465 0 0114.719.001 150.663 150.663 0 0121.903 2.702 150.48 150.48 0 0114.279 3.577 149.469 149.469 0 0120.591 7.943 150.761 150.761 0 0112.982 6.939 149.407 149.407 0 0112.239 8.178 149.097 149.097 0 015.804 4.53 149.029 149.029 0 0110.907 9.886 150.293 150.293 0 0114.416 16.711 150.754 150.754 0 018.178 12.239 150.046 150.046 0 0118.459 47.852 149.427 149.427 0 012.702 21.903c.12 2.451.18 4.904.18 7.359z"/><path fill="#FAE040" d="M290.812 150a140.836 140.836 0 01-51.482 108.849 140.654 140.654 0 01-16.939 11.93 140.5 140.5 0 01-18.505 9.315 140.547 140.547 0 01-19.672 6.498c-2.235.56-4.483 1.065-6.743 1.514s-4.53.843-6.81 1.182a141.224 141.224 0 01-13.752 1.354 140.897 140.897 0 01-27.57-1.354 140.202 140.202 0 01-13.553-2.696 140.857 140.857 0 01-32.163-12.406 140.644 140.644 0 01-17.504-11.085 141.422 141.422 0 01-10.682-8.766 140.735 140.735 0 01-22.518-26.105 141.063 141.063 0 01-7.105-11.853 140.723 140.723 0 01-12.406-32.163 141.214 141.214 0 01-3.542-20.412A140.498 140.498 0 019.188 150a140.866 140.866 0 0116.626-66.377 140.644 140.644 0 0111.085-17.504 141.422 141.422 0 018.766-10.682 141.598 141.598 0 019.772-9.772 141.155 141.155 0 0110.682-8.766 141.392 141.392 0 0111.49-7.678 141.114 141.114 0 0118.505-9.315 140.547 140.547 0 0119.672-6.498 141.214 141.214 0 0120.412-3.542A140.498 140.498 0 01150 9.188 140.836 140.836 0 01258.849 60.67a140.654 140.654 0 0111.93 16.939 141.114 141.114 0 019.315 18.505 140.547 140.547 0 016.498 19.672 141.214 141.214 0 013.542 20.412 140.498 140.498 0 01.678 13.802z"/><path fill="#FF7182" d="M97.321 65.294c49.084 31.7 56.75 33.693 96.268-3.762-2.428 45.344 16.912 84.357 70.418 76.963-49.345 29.905-63.695 43.328-54.284 99.529-49.747-37.378-91.21-41.045-132.394-20.962 22.823-47.451 15.142-64.218-33.766-89.938 44.077-8.423 63.438-13.065 53.758-61.83z"/><path fill="#3F3F3F" d="M221.953 191.563H77.467a4.352 4.352 0 01-1.655-.329 4.334 4.334 0 01-2.341-2.341 4.262 4.262 0 01-.329-1.655v-53.95a2 2 0 01.59-1.425 2 2 0 011.425-.59h149.105a2 2 0 011.425.59 2 2 0 01.59 1.425v53.95a4.334 4.334 0 01-.729 2.402 4.33 4.33 0 01-3.595 1.923z"/><path fill="#494949" d="M226.844 133.84v46.525c0 3.046-3.8 5.504-8.477 5.504H82.189c-4.69 0-8.477-2.458-8.477-5.504V133.84c0-1.419 1.768-2.566 3.939-2.566H222.89c2.186 0 3.954 1.148 3.954 2.566z"/><path fill="#3D3D3D" d="M83.611 140.906h62.681v48.828H83.611z"/><path fill="#E2E2E2" d="M89.89 194.626h-6.605a2.96 2.96 0 01-1.152-.229 2.964 2.964 0 01-1.176-.87 2.955 2.955 0 01-.624-1.323 2.958 2.958 0 01-.058-.587v-50.71H92.9v50.71a3.034 3.034 0 01-.228 1.152 2.957 2.957 0 01-.871 1.176c-.389.319-.83.527-1.324.624a3.114 3.114 0 01-.587.057z"/><path fill="#FFF" d="M89.89 189.734h-6.605c-.399 0-.783-.076-1.152-.23a2.964 2.964 0 01-1.176-.87 2.955 2.955 0 01-.624-1.323 2.958 2.958 0 01-.058-.587v-45.817H92.9v45.817a3.034 3.034 0 01-.228 1.152 2.957 2.957 0 01-.871 1.176 3.035 3.035 0 01-1.911.682z"/><path fill="#E2E2E2" d="M104.073 194.626h-6.605a2.96 2.96 0 01-1.152-.229 2.964 2.964 0 01-1.176-.87 2.955 2.955 0 01-.624-1.323 2.958 2.958 0 01-.058-.587v-50.71h12.625v50.71a2.96 2.96 0 01-.229 1.152 2.964 2.964 0 01-.87 1.176c-.389.319-.83.527-1.323.624-.194.038-.39.057-.588.057z"/><path fill="#FFF" d="M104.073 189.734h-6.605c-.399 0-.783-.076-1.152-.23a2.964 2.964 0 01-1.176-.87 2.955 2.955 0 01-.624-1.323 2.958 2.958 0 01-.058-.587v-45.817h12.625v45.817a2.96 2.96 0 01-.229 1.152 2.964 2.964 0 01-.87 1.176c-.389.319-.83.527-1.323.624-.194.038-.39.058-.588.058z"/><path fill="#E2E2E2" d="M118.255 194.626h-6.605a2.96 2.96 0 01-1.152-.229 2.944 2.944 0 01-.977-.652 2.97 2.97 0 01-.652-.977 2.979 2.979 0 01-.229-1.152v-50.71h12.625v50.71a2.96 2.96 0 01-.229 1.152 2.964 2.964 0 01-.87 1.176c-.389.319-.83.527-1.323.624a2.983 2.983 0 01-.588.058z"/><path fill="#FFF" d="M118.255 189.734h-6.605a2.96 2.96 0 01-1.152-.229 2.964 2.964 0 01-1.176-.87 2.955 2.955 0 01-.624-1.323 2.958 2.958 0 01-.058-.587v-45.817h12.625v45.817a2.96 2.96 0 01-.229 1.152c-.192.465-.482.857-.87 1.176s-.83.527-1.323.624a3.141 3.141 0 01-.588.057z"/><path fill="#E2E2E2" d="M132.436 194.626h-6.605a2.96 2.96 0 01-1.152-.229c-.465-.192-.857-.482-1.176-.87s-.527-.83-.624-1.323a2.958 2.958 0 01-.058-.587v-50.71h12.625v50.71a2.96 2.96 0 01-.229 1.152 2.964 2.964 0 01-.87 1.176c-.389.319-.83.527-1.323.624-.194.038-.39.057-.588.057z"/><path fill="#FFF" d="M132.436 189.734h-6.605c-.399 0-.783-.076-1.152-.23a2.964 2.964 0 01-1.176-.87 2.955 2.955 0 01-.624-1.323 2.958 2.958 0 01-.058-.587v-45.817h12.625v45.817a2.96 2.96 0 01-.229 1.152 2.964 2.964 0 01-.87 1.176c-.389.319-.83.527-1.323.624a3.22 3.22 0 01-.588.058z"/><path fill="#E2E2E2" d="M146.618 194.626h-6.605a2.96 2.96 0 01-1.152-.229c-.465-.192-.857-.482-1.176-.87s-.527-.83-.624-1.323a2.958 2.958 0 01-.058-.587v-50.71h12.625v50.71a2.96 2.96 0 01-.229 1.152 2.964 2.964 0 01-.87 1.176c-.389.319-.83.527-1.323.624-.194.038-.39.057-.588.057z"/><path fill="#FFF" d="M146.618 189.734h-6.605c-.399 0-.783-.076-1.152-.23a2.964 2.964 0 01-1.176-.87 2.955 2.955 0 01-.624-1.323 2.958 2.958 0 01-.058-.587v-45.817h12.625v45.817a2.96 2.96 0 01-.229 1.152 2.964 2.964 0 01-.87 1.176c-.389.319-.83.527-1.323.624-.194.038-.39.058-.588.058z"/><path fill="#4C4C4C" d="M95.509 173.049h-3.661a2.437 2.437 0 01-.953-.189 2.41 2.41 0 01-1.347-1.347 2.437 2.437 0 01-.189-.953v-23.223H98v23.223c.001.33-.062.648-.189.953a2.41 2.41 0 01-1.347 1.347c-.306.127-.624.19-.955.189z"/><path fill="#565656" d="M95.509 168.157h-3.661a2.437 2.437 0 01-.953-.189 2.41 2.41 0 01-1.347-1.347 2.437 2.437 0 01-.189-.953v-24.761H98v24.761c.001.33-.062.648-.189.953-.194.464-.5.836-.917 1.117a2.505 2.505 0 01-1.385.419z"/><path fill="#4C4C4C" d="M109.691 173.049h-3.661a2.437 2.437 0 01-.953-.189 2.41 2.41 0 01-1.347-1.347 2.437 2.437 0 01-.189-.953v-23.223h8.642v23.223c.001.33-.063.648-.19.953a2.41 2.41 0 01-1.347 1.347 2.483 2.483 0 01-.955.189z"/><path fill="#565656" d="M109.691 168.157h-3.661a2.437 2.437 0 01-.953-.189 2.41 2.41 0 01-1.347-1.347 2.437 2.437 0 01-.189-.953v-24.761h8.642v24.761c.001.33-.063.648-.19.953a2.41 2.41 0 01-1.347 1.347 2.483 2.483 0 01-.955.189z"/><path fill="#4C4C4C" d="M138.055 173.049h-3.661a2.437 2.437 0 01-.953-.189 2.41 2.41 0 01-1.347-1.347 2.437 2.437 0 01-.189-.953v-23.223h8.642v23.223c.001.33-.062.648-.189.953a2.41 2.41 0 01-1.347 1.347c-.307.127-.625.19-.956.189z"/><path fill="#565656" d="M138.055 168.157h-3.661a2.437 2.437 0 01-.953-.189 2.41 2.41 0 01-1.347-1.347 2.437 2.437 0 01-.189-.953v-24.761h8.642v24.761c.001.33-.062.648-.189.953a2.41 2.41 0 01-1.347 1.347c-.307.127-.625.19-.956.189z"/><path fill="#3D3D3D" d="M154.264 140.906h62.681v48.828h-62.681z"/><path fill="#E2E2E2" d="M160.542 194.626h-6.605a2.96 2.96 0 01-1.152-.229 2.964 2.964 0 01-1.176-.87 2.955 2.955 0 01-.624-1.323 2.958 2.958 0 01-.058-.587v-50.71h12.625v50.71a3.034 3.034 0 01-.228 1.152 2.957 2.957 0 01-.871 1.176c-.389.319-.83.527-1.324.624a3.05 3.05 0 01-.587.057z"/><path fill="#FFF" d="M160.542 189.734h-6.605a2.96 2.96 0 01-1.152-.229 2.955 2.955 0 01-1.176-.87 2.955 2.955 0 01-.624-1.323 2.958 2.958 0 01-.058-.587v-45.817h12.625v45.817a3.043 3.043 0 01-.228 1.153 2.957 2.957 0 01-.871 1.176c-.389.319-.83.527-1.324.624-.193.036-.39.055-.587.056z"/><path fill="#E2E2E2" d="M174.724 194.626h-6.605a2.96 2.96 0 01-1.152-.229c-.369-.152-.695-.369-.977-.652s-.5-.608-.652-.977a3.017 3.017 0 01-.23-1.152v-50.71h12.625v50.71a2.96 2.96 0 01-.229 1.152 2.964 2.964 0 01-.87 1.176c-.389.319-.83.527-1.323.624a2.958 2.958 0 01-.587.058z"/><path fill="#FFF" d="M174.724 189.734h-6.605c-.399 0-.783-.076-1.152-.23a2.954 2.954 0 01-.977-.652 3.017 3.017 0 01-.882-2.129v-45.817h12.625v45.817a2.96 2.96 0 01-.229 1.152 2.964 2.964 0 01-.87 1.176c-.389.319-.83.527-1.323.624a2.96 2.96 0 01-.587.059z"/><path fill="#E2E2E2" d="M188.906 194.626h-6.605a2.96 2.96 0 01-1.152-.229 2.964 2.964 0 01-1.176-.87 2.955 2.955 0 01-.624-1.323 2.958 2.958 0 01-.058-.587v-50.71h12.625v50.71a2.96 2.96 0 01-.229 1.152 2.964 2.964 0 01-.87 1.176c-.389.319-.83.527-1.323.624-.194.038-.39.057-.588.057z"/><path fill="#FFF" d="M188.906 189.734h-6.605c-.399 0-.783-.076-1.152-.23a2.964 2.964 0 01-1.176-.87 2.955 2.955 0 01-.624-1.323 3.05 3.05 0 01-.058-.587v-45.817h12.625v45.817a2.96 2.96 0 01-.229 1.152 2.964 2.964 0 01-.87 1.176c-.389.319-.83.527-1.323.624-.194.038-.39.058-.588.058z"/><path fill="#E2E2E2" d="M203.088 194.626h-6.605a2.96 2.96 0 01-1.152-.229 2.964 2.964 0 01-1.176-.87 2.955 2.955 0 01-.624-1.323 2.958 2.958 0 01-.058-.587v-50.71h12.625v50.71a2.96 2.96 0 01-.229 1.152 2.964 2.964 0 01-.87 1.176c-.389.319-.83.527-1.323.624-.194.038-.39.057-.588.057z"/><path fill="#FFF" d="M203.088 189.734h-6.605c-.399 0-.783-.076-1.152-.23a2.964 2.964 0 01-1.176-.87 2.955 2.955 0 01-.624-1.323 2.958 2.958 0 01-.058-.587v-45.817h12.625v45.817a2.96 2.96 0 01-.229 1.152 2.964 2.964 0 01-.87 1.176c-.389.319-.83.527-1.323.624a3.22 3.22 0 01-.588.058z"/><path fill="#E2E2E2" d="M217.271 194.626h-6.605a2.96 2.96 0 01-1.152-.229c-.465-.192-.857-.482-1.176-.87s-.527-.83-.624-1.323a2.958 2.958 0 01-.058-.587v-50.71h12.625v50.71a2.96 2.96 0 01-.229 1.152 2.957 2.957 0 01-.871 1.176c-.389.319-.83.527-1.324.624a3.031 3.031 0 01-.586.057z"/><path fill="#FFF" d="M217.271 189.734h-6.605a2.96 2.96 0 01-1.152-.229 2.955 2.955 0 01-1.176-.87 2.955 2.955 0 01-.624-1.323 2.958 2.958 0 01-.058-.587v-45.817h12.625v45.817c.001.399-.076.784-.229 1.153a2.957 2.957 0 01-.871 1.176c-.389.319-.83.527-1.324.624a3.196 3.196 0 01-.586.056z"/><path fill="#4C4C4C" d="M166.162 173.049h-3.661a2.437 2.437 0 01-.953-.189 2.41 2.41 0 01-1.347-1.347 2.437 2.437 0 01-.189-.953v-23.223h8.642v23.223c.001.33-.063.648-.19.953a2.41 2.41 0 01-1.347 1.347 2.49 2.49 0 01-.955.189z"/><path fill="#565656" d="M166.162 168.157h-3.661a2.437 2.437 0 01-.953-.189 2.41 2.41 0 01-1.347-1.347 2.437 2.437 0 01-.189-.953v-24.761h8.642v24.761c.001.33-.063.648-.19.953a2.41 2.41 0 01-1.347 1.347 2.49 2.49 0 01-.955.189z"/><path fill="#4C4C4C" d="M180.344 173.049h-3.661a2.437 2.437 0 01-.953-.189 2.41 2.41 0 01-1.347-1.347 2.437 2.437 0 01-.189-.953v-23.223h8.642v23.223c-.001.33-.065.648-.19.953a2.41 2.41 0 01-1.347 1.347 2.49 2.49 0 01-.955.189z"/><path fill="#565656" d="M180.344 168.157h-3.661a2.437 2.437 0 01-.953-.189 2.41 2.41 0 01-1.347-1.347 2.437 2.437 0 01-.189-.953v-24.761h8.642v24.761c-.001.33-.065.648-.19.953a2.41 2.41 0 01-1.347 1.347 2.49 2.49 0 01-.955.189z"/><path fill="#4C4C4C" d="M208.708 173.049h-3.661a2.437 2.437 0 01-.953-.189 2.41 2.41 0 01-1.347-1.347 2.437 2.437 0 01-.189-.953v-23.223h8.642v23.223c.001.33-.063.648-.19.953a2.41 2.41 0 01-1.347 1.347 2.483 2.483 0 01-.955.189z"/><path fill="#565656" d="M208.708 168.157h-3.661a2.437 2.437 0 01-.953-.189 2.41 2.41 0 01-1.347-1.347 2.437 2.437 0 01-.189-.953v-24.761h8.642v24.761c.001.33-.063.648-.19.953a2.41 2.41 0 01-1.347 1.347 2.483 2.483 0 01-.955.189z"/><path fill="#996022" d="M148.571 178.673c-1.46-1.109-2.429.224-2.429.224l-2.227 3.388a7.744 7.744 0 01-1.534 1.717 7.751 7.751 0 01-1.969 1.194l-.498.209 2-12.038c.109-1.168.154-2.342.134-3.514v-.007h-.001a31.785 31.785 0 00-.247-3.433l-.529-4.163a3.392 3.392 0 00-1.208-2.19 3.374 3.374 0 00-2.697-.74c-.319.05-.624.144-.915.281a3.34 3.34 0 00-1.032.745 3.334 3.334 0 00-.686 1.073 3.363 3.363 0 00-.244 1.249l-.007 2.194a24.25 24.25 0 01-1.003 6.849l-2.153 9.371-.925.761a2.095 2.095 0 01-1.404.208 2.1 2.1 0 01-1.218-.729l.048-10.976 1.322-3.016a3.743 3.743 0 00.324-1.414 3.69 3.69 0 00-.243-1.43 3.715 3.715 0 00-5.451-1.826 3.676 3.676 0 00-1.417 1.629l-2.053 4.581-.529 2.053-.704 8.692-.722-.142.477-9.258.904-3.173a3.687 3.687 0 00.135-1.457 3.76 3.76 0 00-.437-1.396 3.744 3.744 0 00-.941-1.12 3.728 3.728 0 00-4.751.092 3.752 3.752 0 00-.897 1.155c-.11.22-.197.449-.261.687l-1.376 4.827-.23 2.107-.65 5.959-.014-.003-.807-1.079-.865-3.159.549-3.868c.429-2.338-.284-3.615-2.365-3.58-1.505.026-2.792 1.242-3.101 2.935l-.9 4.906-.097 2.532.002.042-.646 21.487c-.01.326-.006.652.014.977.055.982.239 1.94.552 2.872a11.093 11.093 0 004.78 5.985 11.122 11.122 0 003.627 1.406l10.988 2.157a11.083 11.083 0 004.054.042 10.902 10.902 0 001.965-.532 11.375 11.375 0 001.835-.882 11.243 11.243 0 001.643-1.202 10.883 10.883 0 001.396-1.482 10.95 10.95 0 001.103-1.711 11.061 11.061 0 00.772-1.884l.534-1.834 6.775-8.062c.176-.209.362-.409.559-.599l2.054-1.98c.163-.158.32-.322.469-.493l1.176-1.349a7.65 7.65 0 001.329-2.147c.711-1.726 1.968-4.776 2.12-5.166.208-.55.202-2.444-1.257-3.552zm56.316 4.736c-1.991-.605-4.111 1.078-4.34 3.444l-.317 3.264-.461.905-1.444 2.668-.015-.001 1.011-5.909.357-2.09.002-5.02a3.756 3.756 0 00-.207-1.225 3.635 3.635 0 00-1.027-1.543 3.674 3.674 0 00-1.645-.856 3.732 3.732 0 00-2.446.269 3.723 3.723 0 00-2.019 2.524 3.672 3.672 0 00-.094.829l-.002 3.299-2.083 9.033-.732-.062 1.709-8.55.055-2.119-.716-4.969a3.664 3.664 0 00-.38-1.184 3.716 3.716 0 00-4.63-1.76c-.261.1-.508.228-.741.383s-.445.335-.637.539a3.741 3.741 0 00-.84 1.429 3.747 3.747 0 00-.136 1.653l.443 3.264-2.967 10.568a2.105 2.105 0 01-2.068.187 2.086 2.086 0 01-.596-.404l-.007-.007-.17-10.579a24.33 24.33 0 01.916-6.861l.596-2.112a3.324 3.324 0 00-.013-1.898 3.384 3.384 0 00-.586-1.132 3.385 3.385 0 00-2.163-1.263 3.408 3.408 0 00-2.932.97 3.34 3.34 0 00-.711 1.058l-1.652 3.858a31.68 31.68 0 00-1.18 3.232h-.001l-.002.006a31.8 31.8 0 00-.837 3.416l-1.304 13.732a7.7 7.7 0 01-1.544-1.679 7.694 7.694 0 01-.993-2.054l-.399-3.767s-1.379-1.651-3.087-.986c-1.708.666-2.233 2.484-2.178 3.07.039.417.41 3.694.621 5.549.096.843.328 1.661.688 2.429l.76 1.621c.097.206.202.407.316.604l1.431 2.468c.138.236.261.48.373.73l3.792 8.476-.012 1.076a11.375 11.375 0 00.476 3.011 11.298 11.298 0 00.767 1.886 10.923 10.923 0 001.098 1.715 11.091 11.091 0 003.927 3.179 10.943 10.943 0 002.899.94c.335.06.672.104 1.01.132l11.159.943a11.174 11.174 0 003.874-.354 11.184 11.184 0 003.515-1.668 11.15 11.15 0 002.725-2.777 11.129 11.129 0 001.6-3.546l5.278-20.838.014-.039.602-2.461.481-4.966c.162-1.72-.741-3.243-2.181-3.68z"/><path fill="#494949" d="M226.857 119.916v21.657H73.218v-21.657c0-1.115 1.774-2.017 3.952-2.017h145.721c2.192 0 3.966.901 3.966 2.017z"/><path fill="#3F3F3F" d="M191.871 118.714c0 .287-.017.574-.052.86a7.544 7.544 0 01-.416 1.712 8.62 8.62 0 01-.364.848 9.852 9.852 0 01-.466.839c-.172.278-.361.555-.567.829s-.428.547-.667.817c-.239.27-.494.538-.765.803s-.559.527-.862.787c-.303.259-.622.515-.956.768-.334.253-.684.503-1.048.749a28.258 28.258 0 01-2.363 1.43 37.05 37.05 0 01-2.697 1.329 48.056 48.056 0 01-3.007 1.216c-.525.193-1.062.38-1.61.562a60.245 60.245 0 01-3.416 1.024 71.288 71.288 0 01-3.647.884 83.82 83.82 0 01-5.828 1.046 90.983 90.983 0 01-4.069.499 102.702 102.702 0 01-8.402.503 107.559 107.559 0 01-8.484-.168 102.202 102.202 0 01-6.22-.565 89.423 89.423 0 01-7.847-1.316 77.496 77.496 0 01-3.647-.884 61.324 61.324 0 01-3.416-1.024 53.954 53.954 0 01-3.15-1.155 42.913 42.913 0 01-2.855-1.274c-.45-.222-.886-.448-1.308-.678a28.258 28.258 0 01-2.363-1.43 23.319 23.319 0 01-1.048-.749 20.807 20.807 0 01-.956-.768c-.303-.259-.59-.522-.862-.787a14.998 14.998 0 01-.765-.803c-.239-.27-.461-.542-.667-.817a11.303 11.303 0 01-.567-.829 9.852 9.852 0 01-.466-.839 8.76 8.76 0 01-.364-.848 7.804 7.804 0 01-.416-1.712 7.089 7.089 0 010-1.72 7.504 7.504 0 01.416-1.712 8.62 8.62 0 01.364-.848c.138-.281.294-.561.466-.839s.361-.555.567-.829c.206-.275.428-.547.667-.817.239-.27.494-.538.765-.803s.559-.527.862-.787c.303-.259.622-.515.956-.768.334-.253.684-.503 1.048-.749a28.258 28.258 0 012.363-1.43 37.05 37.05 0 012.697-1.329 48.056 48.056 0 013.006-1.216c.525-.193 1.062-.38 1.61-.562a60.245 60.245 0 013.416-1.024 71.288 71.288 0 013.647-.884 83.82 83.82 0 015.828-1.046 90.983 90.983 0 014.069-.499 102.702 102.702 0 018.402-.503 107.559 107.559 0 018.484.168 102.202 102.202 0 016.22.564 89.423 89.423 0 017.847 1.316 77.496 77.496 0 013.647.884 61.324 61.324 0 013.416 1.024 53.954 53.954 0 013.15 1.155 42.913 42.913 0 012.856 1.274c.45.222.886.448 1.308.678a28.258 28.258 0 012.363 1.43c.365.246.714.496 1.048.749.334.253.653.509.956.768.303.259.59.522.862.787.271.265.527.533.765.803.239.27.461.542.667.817.206.275.395.551.567.829.172.278.328.558.466.839.138.281.26.564.364.848a7.804 7.804 0 01.416 1.712c.034.288.052.575.052.861z"/><path fill="#494949" d="M191.871 116.569c0 .287-.017.574-.052.86a7.504 7.504 0 01-.416 1.712 8.62 8.62 0 01-.364.848 9.852 9.852 0 01-.466.839c-.172.278-.361.555-.567.829-.206.275-.428.547-.667.817-.239.27-.494.538-.765.803s-.559.527-.862.787c-.303.259-.622.515-.956.768-.334.253-.684.503-1.048.749s-.744.488-1.138.727c-.394.239-.802.473-1.225.703a39.046 39.046 0 01-2.697 1.329 48.988 48.988 0 01-3.007 1.216c-.525.193-1.062.38-1.61.562a60.245 60.245 0 01-3.416 1.024 71.288 71.288 0 01-3.647.884 83.82 83.82 0 01-5.828 1.046 90.983 90.983 0 01-4.069.499 99.275 99.275 0 01-4.17.336 104.64 104.64 0 01-6.358.189 107.559 107.559 0 01-6.358-.189 102.202 102.202 0 01-6.22-.565 89.423 89.423 0 01-7.847-1.316 77.496 77.496 0 01-3.647-.884 64.037 64.037 0 01-3.416-1.024 53.954 53.954 0 01-3.15-1.155 42.913 42.913 0 01-2.855-1.274c-.45-.222-.886-.448-1.308-.678-.422-.23-.831-.465-1.225-.703s-.773-.481-1.138-.727a23.319 23.319 0 01-1.048-.749 20.807 20.807 0 01-.956-.768c-.303-.259-.59-.522-.862-.787-.271-.265-.527-.533-.765-.803s-.461-.542-.667-.817a11.303 11.303 0 01-.567-.829 9.852 9.852 0 01-.466-.839 8.76 8.76 0 01-.364-.848 7.804 7.804 0 01-.416-1.712 7.089 7.089 0 010-1.72 7.504 7.504 0 01.416-1.712 8.62 8.62 0 01.364-.848c.138-.281.294-.561.466-.839.172-.278.361-.555.567-.829.206-.275.428-.547.667-.817.239-.27.494-.538.765-.803s.559-.527.862-.787c.303-.259.622-.515.956-.768.334-.253.684-.503 1.048-.749a28.258 28.258 0 012.363-1.43 37.05 37.05 0 012.697-1.329 48.056 48.056 0 013.006-1.216c.525-.193 1.062-.38 1.61-.562a60.245 60.245 0 013.416-1.024 71.288 71.288 0 013.647-.884 83.82 83.82 0 015.828-1.046 101.886 101.886 0 016.144-.688 102.702 102.702 0 016.327-.315 107.559 107.559 0 018.484.168 102.202 102.202 0 016.22.565 89.423 89.423 0 017.847 1.316 77.496 77.496 0 013.647.884 64.037 64.037 0 013.416 1.024 53.954 53.954 0 013.15 1.155 42.913 42.913 0 012.856 1.274c.45.222.886.448 1.308.678a28.258 28.258 0 012.363 1.43c.365.246.714.496 1.048.749.334.253.653.509.956.768.303.259.59.521.862.787.271.265.527.533.765.803.239.27.461.542.667.817.206.275.395.551.567.829.172.278.328.558.466.839.138.281.26.564.364.848a7.804 7.804 0 01.416 1.712c.034.287.052.573.052.86z"/><path fill="#3F3F3F" d="M173.66 114.704s-6.856 7.189-25.12 7.189-25.12-7.189-25.12-7.189l7.005-34.702a6.115 6.115 0 013.865-4.523 6.077 6.077 0 012.44-.373c.415.022.824.084 1.226.189l10.582 2.751 10.581-2.752a6.05 6.05 0 012.465-.126 6.147 6.147 0 012.314.858 6.067 6.067 0 011.786 1.704 6.111 6.111 0 01.967 2.271l7.009 34.703z"/></svg>