<svg enable-background="new 0 0 300 300" viewBox="0 0 300 300" xmlns="http://www.w3.org/2000/svg"><ellipse cx="150" cy="150" fill="#fff" rx="150" ry="150" transform="matrix(.7071 -.7071 .7071 .7071 -62.1321 149.9998)"/><circle cx="150" cy="150" fill="#eb595b" r="140.812"/><path d="m82.962 220.124c-4.052-4.052-4.052-10.623 0-14.675l123.094-123.094c4.052-4.052 18.888-18.32 22.941-14.267 4.052 4.052-4.213 24.89-8.265 28.943l-123.095 123.093c-4.052 4.053-10.623 4.053-14.675 0z" fill="#ffe5bb"/><path d="m228.999 67.573c-4.052-4.052-18.888 10.215-22.941 14.267l-123.094 123.095c-4.052 4.052-4.052 10.623 0 14.675l147.079-147.079c.155-2.253-.126-4.039-1.044-4.958z" fill="#ffedd4"/><path d="m103.121 215.332c0 8.161-8.763 17.736-16.924 17.736s-15.188-9.575-15.188-17.736 9.175-14.777 17.336-14.777 14.776 6.616 14.776 14.777z" fill="#fcd4a4"/><circle cx="84.691" cy="218.367" fill="#ffc477" r="14.777"/><circle cx="85.363" cy="218.367" fill="#606060" r="8.223"/><circle cx="123.581" cy="179.584" fill="#fcd4a4" r="15.25"/><circle cx="122.352" cy="180.814" fill="#ffc477" r="15.25"/><path d="m102.832 200.458-.452-.452c-3.98-3.98-3.98-10.492 0-14.471l11.928-11.928c3.98-3.98 10.492-3.98 14.471 0l.452.452c3.98 3.98 3.98 10.492 0 14.471l-11.928 11.928c-3.979 3.98-10.491 3.98-14.471 0z" fill="#ffe5bb"/><path d="m128.794 173.622c-3.98-3.98-10.492-3.98-14.471 0l-11.927 11.927c-3.98 3.98-3.98 10.492 0 14.471l.094.094 26.399-26.399z" fill="#ffedd4"/><circle cx="200.617" cy="102.548" fill="#fcd4a4" r="12.911"/><circle cx="199.448" cy="103.717" fill="#ffc477" r="12.911"/><path d="m180.012 123.278-.452-.452c-3.98-3.98-3.98-10.492 0-14.471l11.928-11.928c3.98-3.98 10.492-3.98 14.471 0l.452.452c3.98 3.98 3.98 10.492 0 14.471l-11.928 11.928c-3.98 3.98-10.492 3.98-14.471 0z" fill="#ffe5bb"/><path d="m205.973 96.443c-3.98-3.98-10.492-3.98-14.471 0l-11.927 11.927c-3.98 3.98-3.98 10.492 0 14.471l.094.094 26.399-26.399z" fill="#ffedd4"/><circle cx="179.197" cy="123.968" fill="#fcd4a4" r="12.911"/><circle cx="178.156" cy="125.009" fill="#ffc477" r="12.911"/><path d="m158.667 144.623-.452-.452c-3.98-3.98-3.98-10.492 0-14.471l11.928-11.928c3.98-3.98 10.492-3.98 14.471 0l.452.452c3.98 3.98 3.98 10.492 0 14.471l-11.928 11.928c-3.979 3.98-10.492 3.98-14.471 0z" fill="#ffe5bb"/><path d="m184.628 117.787c-3.98-3.98-10.492-3.98-14.471 0l-11.927 11.927c-3.98 3.98-3.98 10.492 0 14.471l.094.094 26.399-26.399z" fill="#ffedd4"/><g fill="#606060"><circle cx="152.711" cy="140.581" r="2.572"/><circle cx="129.644" cy="161.546" r="1.481"/><circle cx="132.758" cy="163.179" r=".816"/><circle cx="114.177" cy="177.522" r="1.481"/><circle cx="117.623" cy="178.768" r=".816"/><path d="m191.65 104.748c-2.226-1.411-4.601-2.015-6.687-1.813.568-.517 1.157-.973 1.759-1.37.136-.263.273-.524.411-.781 2.194-.173 4.527.435 6.579 1.823-.663.633-1.355 1.346-2.062 2.141z"/><path d="m186.325 102.548-1.362.378 2.143-2.143h.067l.662.73z"/></g></svg>