<svg version="1" xmlns="http://www.w3.org/2000/svg" viewBox="0 0 300 300"><path fill="#FFF" d="M150 300C67.29 300 0 232.71 0 150S67.29 0 150 0s150 67.29 150 150-67.29 150-150 150z"/><circle fill="#5EC2D7" cx="150" cy="150" r="140.812"/><path fill="#D6566E" d="M199.35 196.482h-98.7a7.065 7.065 0 0 1-7.065-7.065V98.562a3.292 3.292 0 0 1 3.292-3.292h106.247a3.292 3.292 0 0 1 3.292 3.292v90.855a7.066 7.066 0 0 1-7.066 7.065z"/><path fill="#FF7182" d="M199.35 188.216h-98.7a7.065 7.065 0 0 1-7.065-7.065V98.565a3.292 3.292 0 0 1 3.292-3.292h106.247a3.292 3.292 0 0 1 3.292 3.293v82.588a7.067 7.067 0 0 1-7.066 7.067"/><path fill="#3D3D3D" d="M141.797 160.106h16.407v36.376h-16.407z"/><path fill="#E2E2E2" d="M142.57 204.73h-22.482a6.2 6.2 0 0 1-6.2-6.2v-84.367h34.883v84.367a6.202 6.202 0 0 1-6.2 6.2"/><path fill="#FFF" d="M142.57 196.482h-22.482a6.2 6.2 0 0 1-6.2-6.2v-76.12h34.883v76.12a6.202 6.202 0 0 1-6.2 6.2"/><path fill="#E2E2E2" d="M179.913 204.73H157.43a6.2 6.2 0 0 1-6.2-6.2v-84.367h34.882v84.367a6.2 6.2 0 0 1-6.2 6.2"/><path fill="#FFF" d="M179.913 196.482H157.43a6.2 6.2 0 0 1-6.2-6.2v-76.12h34.882v76.12a6.2 6.2 0 0 1-6.2 6.2"/><path fill="#4C4C4C" d="M155.6 168.354h-11.2a4.784 4.784 0 0 1-4.784-4.784v-38.565h20.767v38.565a4.784 4.784 0 0 1-4.784 4.784z"/><path fill="#565656" d="M155.6 160.106h-11.2a4.784 4.784 0 0 1-4.784-4.784v-41.16h20.767v41.16a4.783 4.783 0 0 1-4.784 4.784"/><path fill="#ED6979" d="M203.123 101.58H96.877a3.292 3.292 0 0 0-3.292 3.29v15.602h20.302v-6.31h72.227v6.31h20.302v-15.6a3.294 3.294 0 0 0-3.293-3.293"/><path fill="#EDEDED" d="M139.617 114.163h-25.73v6.31h25.73v-6.31m46.496 0h-25.73v6.31h25.73v-6.31"/><path fill="#505050" d="M160.383 114.163h-20.766v6.31h20.766v-6.31"/><path fill="#FF8095" d="M93.585 114.163v-15.6a3.292 3.292 0 0 1 3.292-3.293h106.247a3.292 3.292 0 0 1 3.292 3.292v15.6H93.586z"/></svg>