<?xml version="1.0" encoding="utf-8"?>
<!-- Generator: Adobe Illustrator 24.3.0, SVG Export Plug-In . SVG Version: 6.00 Build 0)  -->
<svg version="1.0" id="Layer_1" xmlns="http://www.w3.org/2000/svg" xmlns:xlink="http://www.w3.org/1999/xlink" x="0px" y="0px"
	 viewBox="0 0 300 300" enable-background="new 0 0 300 300" xml:space="preserve">
<g>
	<path fill="#FFFFFF" d="M256.062,43.934c5.215,5.216,10.021,10.786,14.415,16.71c4.395,5.924,8.331,12.138,11.807,18.644
		c2.316,4.332,4.414,8.768,6.294,13.307c1.88,4.539,3.533,9.159,4.96,13.86c2.862,9.424,4.775,19.037,5.737,28.839
		c0.724,7.341,0.906,14.694,0.544,22.062c-0.362,7.367-1.263,14.668-2.703,21.902c-0.96,4.818-2.152,9.578-3.577,14.28
		c-2.138,7.06-4.786,13.923-7.942,20.59c-2.101,4.441-4.414,8.768-6.939,12.982c-2.525,4.214-5.251,8.294-8.178,12.239
		c-3.292,4.44-6.819,8.686-10.581,12.736s-7.736,7.881-11.921,11.492c-4.186,3.611-8.558,6.98-13.116,10.107
		c-4.558,3.127-9.275,5.993-14.151,8.599c-4.332,2.316-8.768,4.414-13.307,6.294c-4.539,1.88-9.159,3.533-13.86,4.96
		c-9.424,2.862-19.037,4.774-28.839,5.737c-7.341,0.724-14.695,0.906-22.062,0.544c-7.367-0.362-14.668-1.263-21.902-2.703
		c-4.818-0.96-9.578-2.152-14.28-3.577c-7.06-2.138-13.923-4.785-20.59-7.942c-4.441-2.101-8.768-4.414-12.982-6.939
		c-4.214-2.525-8.294-5.251-12.239-8.178c-7.912-5.865-15.175-12.447-21.787-19.746c-3.298-3.641-6.411-7.434-9.339-11.379
		c-4.395-5.924-8.331-12.138-11.807-18.644c-2.316-4.332-4.414-8.768-6.294-13.307c-1.88-4.539-3.533-9.159-4.96-13.86
		c-2.862-9.424-4.774-19.037-5.737-28.839C0,157.364-0.181,150.01,0.181,142.643s1.263-14.668,2.703-21.902
		c0.96-4.818,2.152-9.578,3.577-14.28c2.138-7.06,4.786-13.923,7.942-20.59c2.101-4.441,4.414-8.768,6.939-12.982
		c2.525-4.214,5.251-8.294,8.178-12.239c3.292-4.44,6.819-8.686,10.581-12.736c3.762-4.05,7.736-7.881,11.921-11.492
		c4.186-3.611,8.558-6.98,13.116-10.107c4.558-3.127,9.275-5.993,14.151-8.599c4.332-2.316,8.768-4.414,13.307-6.294
		c4.539-1.88,9.159-3.533,13.86-4.96c9.424-2.862,19.037-4.775,28.839-5.737c7.34-0.726,14.693-0.907,22.06-0.542
		c12.319,0.604,24.38,2.697,36.182,6.278c8.241,2.498,16.208,5.683,23.9,9.555s14.996,8.373,21.912,13.504
		c3.947,2.925,7.74,6.038,11.379,9.338C252.548,40.506,254.326,42.198,256.062,43.934L256.062,43.934z"/>
	<path fill="#5EC2D7" d="M290.811,150c0.001,4.9-0.255,9.787-0.766,14.66c-0.51,4.874-1.272,9.708-2.288,14.502
		c-1.016,4.794-2.278,9.522-3.786,14.185c-2.267,7.001-5.064,13.783-8.392,20.346c-3.329,6.562-7.149,12.826-11.459,18.79
		c-2.871,3.971-5.941,7.782-9.208,11.434c-3.269,3.651-6.718,7.122-10.348,10.414c-3.418,3.096-6.978,6.018-10.682,8.766
		c-3.705,2.747-7.535,5.306-11.49,7.678c-5.936,3.565-12.103,6.673-18.501,9.323c-6.398,2.65-12.956,4.813-19.674,6.49
		c-6.717,1.682-13.52,2.862-20.411,3.542c-3.441,0.338-6.889,0.55-10.346,0.634c-3.456,0.085-6.911,0.042-10.365-0.128
		c-3.453-0.17-6.896-0.466-10.327-0.89c-3.431-0.423-6.843-0.972-10.234-1.647c-3.391-0.674-6.753-1.473-10.085-2.395
		c-3.332-0.922-6.626-1.965-9.881-3.13c-3.255-1.165-6.464-2.447-9.625-3.848c-3.161-1.401-6.266-2.916-9.316-4.545
		c-6.108-3.263-11.942-6.958-17.503-11.085c-3.703-2.748-7.264-5.67-10.682-8.766c-8.584-7.772-16.089-16.473-22.517-26.104
		c-2.561-3.835-4.93-7.786-7.105-11.852c-5.463-10.209-9.598-20.929-12.406-32.162c-1.682-6.717-2.862-13.52-3.542-20.411
		c-0.338-3.441-0.55-6.889-0.634-10.346c-0.085-3.456-0.042-6.911,0.128-10.365c0.17-3.453,0.466-6.896,0.89-10.327
		c0.423-3.431,0.972-6.843,1.647-10.234c0.675-3.391,1.473-6.753,2.395-10.085c0.922-3.332,1.965-6.626,3.13-9.881
		c1.165-3.255,2.447-6.464,3.848-9.625c1.401-3.161,2.916-6.266,4.545-9.316c3.263-6.108,6.958-11.942,11.085-17.503
		c2.748-3.703,5.67-7.264,8.766-10.682c7.771-8.584,16.473-16.09,26.104-22.517c3.835-2.562,7.786-4.93,11.853-7.105
		c10.209-5.463,20.929-9.598,32.162-12.406c6.717-1.682,13.52-2.862,20.411-3.542c3.441-0.338,6.889-0.55,10.346-0.634
		c3.456-0.085,6.911-0.042,10.365,0.128c3.453,0.17,6.896,0.466,10.327,0.89c3.431,0.423,6.843,0.972,10.234,1.647
		c3.391,0.674,6.753,1.473,10.085,2.395c3.332,0.922,6.626,1.965,9.881,3.13c3.255,1.165,6.464,2.447,9.625,3.848
		s6.266,2.916,9.316,4.545c4.068,2.173,8.019,4.541,11.852,7.105c3.835,2.562,7.535,5.306,11.1,8.232
		c3.565,2.926,6.978,6.02,10.239,9.28c8.192,8.183,15.262,17.242,21.209,27.177c3.559,5.939,6.664,12.107,9.315,18.504
		c2.651,6.397,4.817,12.954,6.498,19.671c1.682,6.717,2.862,13.52,3.542,20.411C290.585,140.777,290.811,145.378,290.811,150
		L290.811,150z"/>
	<path fill="#FFFFFF" d="M191.813,196.452h0.287c-12.156,0.06-9.015-10.977-9.015-10.977h-7.968v-6.557h-31.044
		c-3.247-5.184-9.137-8.542-15.785-8.177c-5.64,0.31-1.611,4.986-1.411,10.631c0.353,9.967-5.67,17.062,2.75,17.062l64.975,7.187
		v-6.379c0.001-0.37-0.07-0.726-0.212-1.068c-0.142-0.342-0.343-0.644-0.605-0.905c-0.261-0.262-0.562-0.464-0.904-0.606
		C192.539,196.521,192.183,196.451,191.813,196.452C191.814,196.452,191.813,196.452,191.813,196.452L191.813,196.452z"/>
	<path fill="#5EC2D7" d="M163.251,182.438c0.004,1.478-0.344,2.868-1.044,4.169c-0.693,1.305-1.655,2.367-2.886,3.184
		c-0.726,0.487-1.508,0.857-2.346,1.109c-0.556,0.167-1.122,0.28-1.7,0.338c-0.87,0.085-1.735,0.042-2.592-0.128
		c-0.858-0.17-1.673-0.461-2.445-0.873c-1.305-0.693-2.367-1.655-3.184-2.886c-0.487-0.726-0.857-1.508-1.109-2.346
		c-0.167-0.556-0.28-1.123-0.338-1.701c-0.085-0.87-0.042-1.735,0.128-2.592c0.17-0.858,0.461-1.673,0.873-2.445
		c0.693-1.305,1.655-2.367,2.886-3.184c0.726-0.487,1.508-0.857,2.346-1.109c0.556-0.167,1.123-0.28,1.701-0.338
		c0.578-0.056,1.156-0.056,1.734,0c1.168,0.113,2.268,0.447,3.302,1.001c1.305,0.693,2.367,1.655,3.184,2.886
		c0.487,0.726,0.857,1.508,1.109,2.346C163.121,180.707,163.248,181.563,163.251,182.438z"/>
	<path fill="#E2E2E2" d="M194.921,198.227c-0.004-0.981-0.664-1.762-1.454-1.762h-51.605c-2.866,0.07-5.218-0.101-7.142-0.454
		c-7.098-2.241-4.782-10.409-4.782-10.409h-2.798c0.661-2.557-1.089-5.768-1.089-5.768c-1.436,1.505-2.626,3.52-3.524,5.768h-0.557
		l-1.793-1.07c0,0-4.645,19.274,11.955,21.215h62.786v-7.487C194.921,198.25,194.921,198.238,194.921,198.227z"/>
	<path fill="#BFBFBF" d="M197.485,185.902H96.244c-8.024,0-14.528-6.504-14.528-14.528v-56.457c0-8.024,6.504-14.528,14.528-14.528
		h101.242c8.024,0,14.528,6.504,14.528,14.528v56.457C212.013,179.398,205.509,185.902,197.485,185.902L197.485,185.902z"/>
	<path fill="#A8A8A8" d="M212.013,164.824H81.716v-61.417c0-5.057,8.456-9.156,13.513-9.156h107.628
		c0.601,0.001,1.196,0.059,1.786,0.176c0.59,0.118,1.162,0.292,1.718,0.521c0.555,0.231,1.083,0.513,1.583,0.846
		c1.011,0.673,1.853,1.515,2.526,2.526c0.848,1.272,1.347,2.669,1.499,4.19c0.029,0.298,0.044,0.598,0.044,0.897L212.013,164.824
		L212.013,164.824z"/>
	<path fill="#EFEFEF" d="M206.209,185.902H100.068c-6.67,0-12.078-5.407-12.078-12.078v-61.357c0-6.67,5.407-12.078,12.078-12.078
		H206.21c6.67,0,12.078,5.407,12.078,12.078v61.357C218.287,180.495,212.879,185.902,206.209,185.902L206.209,185.902z"/>
	<path fill="#3D3D3D" d="M218.287,164.824H87.99v-63.783c0-3.75,3.04-6.791,6.791-6.791h116.715c3.75,0,6.791,3.04,6.791,6.791
		L218.287,164.824L218.287,164.824z"/>
	<path fill="#3D3D3D" d="M211.333,164.824H95.555v-58.209c-0.005-1.26,0.344-2.413,1.049-3.458c0.457-0.688,1.029-1.26,1.717-1.717
		c0.685-0.461,1.433-0.771,2.243-0.929c0.401-0.08,0.805-0.12,1.214-0.12h103.331c0.825,0.001,1.619,0.159,2.381,0.475
		c0.762,0.316,1.436,0.765,2.02,1.348c0.583,0.584,1.032,1.257,1.348,2.019c0.316,0.762,0.474,1.556,0.475,2.381V164.824
		L211.333,164.824z"/>
	<rect x="99.146" y="104.44" fill="#ECF0F1" width="110.522" height="58.714"/>
	<rect x="99.146" y="104.423" fill="#9B9B9B" width="110.522" height="4.251"/>
	<path fill="#68F964" d="M108.794,106.482c0.001,0.294-0.102,0.545-0.311,0.752c-0.205,0.213-0.456,0.317-0.752,0.311
		c-0.296,0.006-0.547-0.098-0.752-0.311c-0.213-0.205-0.317-0.456-0.311-0.752c-0.006-0.296,0.098-0.547,0.311-0.752
		c0.207-0.209,0.458-0.312,0.752-0.311c0.294-0.001,0.545,0.102,0.752,0.311C108.692,105.938,108.796,106.188,108.794,106.482z"/>
	<path fill="#FFB031" d="M105.581,106.482c0.001,0.294-0.102,0.545-0.311,0.752c-0.205,0.213-0.456,0.317-0.752,0.311
		c-0.296,0.006-0.547-0.098-0.752-0.311c-0.213-0.205-0.317-0.456-0.311-0.752c-0.006-0.296,0.098-0.547,0.311-0.752
		c0.207-0.209,0.458-0.312,0.752-0.311c0.294-0.001,0.545,0.102,0.752,0.311C105.479,105.938,105.583,106.188,105.581,106.482z"/>
	<path fill="#D6566E" d="M102.605,106.482c0.001,0.294-0.102,0.545-0.311,0.752c-0.205,0.213-0.456,0.317-0.752,0.311
		c-0.296,0.006-0.547-0.098-0.752-0.311c-0.213-0.205-0.317-0.456-0.311-0.752c-0.006-0.296,0.098-0.547,0.311-0.752
		c0.207-0.209,0.458-0.312,0.752-0.311c0.294-0.001,0.545,0.102,0.752,0.311C102.502,105.938,102.606,106.188,102.605,106.482z"/>
	<path fill="#9B9B9B" d="M135.259,136.547c0,0.406-0.02,0.81-0.06,1.214c-0.04,0.404-0.099,0.805-0.178,1.202
		c-0.079,0.398-0.178,0.791-0.295,1.179c-0.118,0.388-0.254,0.77-0.41,1.145c-0.155,0.375-0.328,0.741-0.52,1.099
		c-0.191,0.358-0.4,0.705-0.625,1.043c-0.225,0.337-0.467,0.663-0.724,0.976c-0.257,0.314-0.529,0.614-0.816,0.901
		c-0.287,0.287-0.587,0.559-0.901,0.816c-0.314,0.257-0.639,0.499-0.976,0.724c-0.337,0.225-0.685,0.434-1.043,0.625
		c-0.358,0.191-0.724,0.364-1.099,0.52c-0.375,0.155-0.756,0.292-1.145,0.41c-0.388,0.118-0.781,0.216-1.179,0.295
		c-0.398,0.079-0.799,0.139-1.202,0.178c-0.404,0.04-0.808,0.06-1.214,0.06c-0.406,0-0.81-0.02-1.214-0.06
		c-0.404-0.04-0.805-0.099-1.202-0.178c-0.398-0.079-0.791-0.178-1.179-0.295c-0.388-0.118-0.77-0.254-1.145-0.41
		c-0.375-0.155-0.741-0.328-1.099-0.52c-0.358-0.191-0.705-0.4-1.043-0.625c-0.337-0.225-0.663-0.467-0.976-0.724
		c-0.314-0.257-0.614-0.529-0.901-0.816c-0.287-0.287-0.559-0.587-0.816-0.901c-0.257-0.314-0.499-0.639-0.724-0.976
		c-0.225-0.337-0.434-0.685-0.625-1.043c-0.191-0.358-0.365-0.724-0.52-1.099c-0.155-0.375-0.292-0.756-0.41-1.145
		c-0.118-0.388-0.216-0.781-0.295-1.179c-0.079-0.398-0.139-0.799-0.178-1.202c-0.04-0.404-0.06-0.808-0.06-1.214
		s0.02-0.81,0.06-1.214c0.04-0.404,0.099-0.805,0.178-1.202c0.079-0.398,0.178-0.791,0.295-1.179s0.254-0.77,0.41-1.145
		c0.155-0.375,0.329-0.741,0.52-1.099c0.191-0.358,0.4-0.705,0.625-1.043c0.225-0.337,0.467-0.663,0.724-0.976
		c0.257-0.314,0.529-0.614,0.816-0.901c0.287-0.287,0.587-0.559,0.901-0.816c0.314-0.257,0.639-0.499,0.976-0.724
		c0.337-0.225,0.685-0.434,1.043-0.625c0.358-0.191,0.724-0.364,1.099-0.52c0.375-0.155,0.756-0.292,1.145-0.41
		c0.388-0.118,0.781-0.216,1.179-0.295c0.398-0.079,0.799-0.139,1.202-0.178c0.404-0.04,0.808-0.06,1.214-0.06
		c0.406,0,0.81,0.02,1.214,0.06c0.404,0.04,0.805,0.099,1.202,0.178s0.791,0.178,1.179,0.295c0.388,0.118,0.77,0.254,1.145,0.41
		c0.375,0.155,0.741,0.329,1.099,0.52c0.358,0.191,0.705,0.4,1.043,0.625c0.337,0.225,0.663,0.467,0.976,0.724
		c0.314,0.257,0.614,0.529,0.901,0.816c0.287,0.287,0.559,0.587,0.816,0.901c0.257,0.314,0.499,0.639,0.724,0.976
		c0.225,0.337,0.434,0.685,0.625,1.043c0.191,0.358,0.364,0.724,0.52,1.099c0.155,0.375,0.292,0.756,0.41,1.145
		c0.118,0.388,0.216,0.781,0.295,1.179c0.079,0.398,0.139,0.799,0.178,1.202C135.24,135.736,135.259,136.141,135.259,136.547z"/>
	<path fill="#9B9B9B" d="M199.647,136.547c0,0.406-0.02,0.81-0.06,1.214c-0.04,0.404-0.099,0.805-0.178,1.202
		c-0.079,0.398-0.178,0.791-0.295,1.179c-0.118,0.388-0.254,0.77-0.41,1.145c-0.155,0.375-0.328,0.741-0.52,1.099
		c-0.191,0.358-0.4,0.705-0.625,1.043c-0.225,0.337-0.467,0.663-0.724,0.976c-0.257,0.314-0.529,0.614-0.816,0.901
		c-0.287,0.287-0.587,0.559-0.901,0.816c-0.314,0.257-0.639,0.499-0.976,0.724c-0.337,0.225-0.685,0.434-1.043,0.625
		c-0.358,0.191-0.724,0.364-1.099,0.52c-0.375,0.155-0.756,0.292-1.145,0.41c-0.388,0.118-0.781,0.216-1.179,0.295
		c-0.398,0.079-0.799,0.139-1.202,0.178c-0.404,0.04-0.808,0.06-1.214,0.06c-0.406,0-0.81-0.02-1.214-0.06
		c-0.404-0.04-0.805-0.099-1.202-0.178c-0.398-0.079-0.791-0.178-1.179-0.295c-0.388-0.118-0.77-0.254-1.145-0.41
		c-0.375-0.155-0.741-0.328-1.099-0.52c-0.358-0.191-0.705-0.4-1.043-0.625c-0.337-0.225-0.663-0.467-0.976-0.724
		c-0.314-0.257-0.614-0.529-0.901-0.816c-0.287-0.287-0.559-0.587-0.816-0.901c-0.257-0.314-0.499-0.639-0.724-0.976
		c-0.225-0.337-0.434-0.685-0.625-1.043c-0.191-0.358-0.364-0.724-0.52-1.099c-0.155-0.375-0.292-0.756-0.41-1.145
		c-0.118-0.388-0.216-0.781-0.295-1.179c-0.079-0.398-0.139-0.799-0.178-1.202c-0.04-0.404-0.06-0.808-0.06-1.214
		s0.02-0.81,0.06-1.214c0.04-0.404,0.099-0.805,0.178-1.202c0.079-0.398,0.178-0.791,0.295-1.179c0.118-0.388,0.254-0.77,0.41-1.145
		c0.155-0.375,0.328-0.741,0.52-1.099c0.191-0.358,0.4-0.705,0.625-1.043c0.225-0.337,0.467-0.663,0.724-0.976
		c0.257-0.314,0.529-0.614,0.816-0.901c0.287-0.287,0.587-0.559,0.901-0.816c0.314-0.257,0.639-0.499,0.976-0.724
		c0.337-0.225,0.685-0.434,1.043-0.625c0.358-0.191,0.724-0.364,1.099-0.52c0.375-0.155,0.756-0.292,1.145-0.41
		c0.388-0.118,0.781-0.216,1.179-0.295c0.398-0.079,0.799-0.139,1.202-0.178c0.404-0.04,0.808-0.06,1.214-0.06
		c0.406,0,0.81,0.02,1.214,0.06c0.404,0.04,0.805,0.099,1.202,0.178c0.398,0.079,0.791,0.178,1.179,0.295s0.77,0.254,1.145,0.41
		c0.375,0.155,0.741,0.329,1.099,0.52c0.358,0.191,0.705,0.4,1.043,0.625c0.337,0.225,0.663,0.467,0.976,0.724
		c0.314,0.257,0.614,0.529,0.901,0.816c0.287,0.287,0.559,0.587,0.816,0.901c0.257,0.314,0.499,0.639,0.724,0.976
		c0.225,0.337,0.434,0.685,0.625,1.043c0.191,0.358,0.365,0.724,0.52,1.099c0.155,0.375,0.292,0.756,0.41,1.145
		c0.118,0.388,0.216,0.781,0.295,1.179c0.079,0.398,0.139,0.799,0.178,1.202C199.627,135.736,199.647,136.141,199.647,136.547z"/>
</g>
<g>
	<path fill="#5EC2D7" d="M156.793,118.331c4.534,0,9.781,1.942,9.781,6.049c0,1.931-1.587,3.475-3.518,3.475
		c-2.983,0-3.496-3.604-6.564-3.604c-3.046,0-5.834,3.261-5.834,9.01h0.086c1.673-1.888,3.689-3.003,7.421-3.003
		c5.534,0,10.383,3.132,10.383,10.339c0,6.221-4.719,11.369-12.527,11.369c-7.98,0-13.214-4.719-13.214-15.145
		C142.808,124.037,148.9,118.331,156.793,118.331z M156.064,145.96c2.917,0,4.805-2.016,4.805-4.934
		c0-2.917-1.887-4.976-4.805-4.976c-2.917,0-4.805,2.059-4.805,4.976C151.259,143.944,153.019,145.96,156.064,145.96z"/>
</g>
</svg>
