<svg xmlns="http://www.w3.org/2000/svg" version="1.0" viewBox="0 0 300 300"><path fill="#FFF" d="M256.062 43.935a149.946 149.946 0 0132.516 48.661 150.234 150.234 0 014.96 13.86 149.132 149.132 0 015.737 28.839c.724 7.341.906 14.694.544 22.062a149.66 149.66 0 01-2.703 21.902 150.82 150.82 0 01-3.577 14.28 148.974 148.974 0 01-7.942 20.59 150.27 150.27 0 01-6.939 12.982 149.407 149.407 0 01-8.178 12.239 149.75 149.75 0 01-22.502 24.228 149.832 149.832 0 01-27.267 18.706 150.234 150.234 0 01-27.167 11.254 149.207 149.207 0 01-28.839 5.737c-7.341.724-14.695.906-22.062.544s-14.668-1.263-21.902-2.703a150.82 150.82 0 01-14.28-3.577 148.847 148.847 0 01-20.59-7.942 150.27 150.27 0 01-12.982-6.939 149.407 149.407 0 01-12.239-8.178 149.257 149.257 0 01-21.787-19.746 150.93 150.93 0 01-9.339-11.379 149.438 149.438 0 01-11.807-18.644 150.234 150.234 0 01-11.254-27.167 149.207 149.207 0 01-5.737-28.839 149.66 149.66 0 012.158-43.963 150.82 150.82 0 013.577-14.28 148.974 148.974 0 017.942-20.59 150.27 150.27 0 016.939-12.982 149.407 149.407 0 018.178-12.239 149.75 149.75 0 0122.502-24.228 149.832 149.832 0 0127.267-18.706 150.234 150.234 0 0127.167-11.254A149.132 149.132 0 01135.295.726c7.34-.726 14.693-.907 22.06-.542a149.336 149.336 0 0136.182 6.278c8.241 2.498 16.208 5.683 23.9 9.555s14.996 8.373 21.912 13.504a148.928 148.928 0 0111.379 9.338c1.82 1.648 3.598 3.34 5.334 5.076z"/><path fill="#EB595B" d="M290.808 150.001c.001 4.9-.255 9.787-.766 14.66a140.345 140.345 0 01-2.288 14.502 140.88 140.88 0 01-32.845 64.755 141.21 141.21 0 01-10.348 10.414 141.388 141.388 0 01-10.682 8.766 141.327 141.327 0 01-11.49 7.678 139.864 139.864 0 01-38.175 15.813 140.852 140.852 0 01-30.757 4.176 140.502 140.502 0 01-20.692-1.018 140.417 140.417 0 01-20.319-4.042 140.531 140.531 0 01-19.506-6.978 141.283 141.283 0 01-9.316-4.545 140.107 140.107 0 01-17.503-11.085 141.587 141.587 0 01-10.682-8.766 139.689 139.689 0 01-22.517-26.104 141.58 141.58 0 01-7.105-11.852 139.73 139.73 0 01-12.406-32.162 140.852 140.852 0 01-4.176-30.757 140.502 140.502 0 011.018-20.692 140.417 140.417 0 014.042-20.319 140.531 140.531 0 016.978-19.506 141.283 141.283 0 014.545-9.316A140.107 140.107 0 0136.903 66.12a141.587 141.587 0 018.766-10.682 139.62 139.62 0 0126.104-22.517 141.167 141.167 0 0111.853-7.105 139.73 139.73 0 0132.162-12.406 140.852 140.852 0 0130.757-4.176 140.502 140.502 0 0120.692 1.018 140.417 140.417 0 0120.319 4.042 140.531 140.531 0 0119.506 6.978 141.283 141.283 0 019.316 4.545 139.613 139.613 0 0111.852 7.105 140.548 140.548 0 0121.339 17.512 139.64 139.64 0 0121.209 27.177 140.86 140.86 0 0115.813 38.175 140.852 140.852 0 013.542 20.411c.449 4.581.675 9.183.675 13.804z"/><path fill="#FFF" d="M191.813 196.452h.287c-12.156.06-9.015-10.977-9.015-10.977h-7.968v-6.557h-31.044c-3.247-5.184-9.137-8.542-15.785-8.177-5.64.31-1.611 4.986-1.411 10.631.353 9.967-5.67 17.062 2.75 17.062l64.975 7.187v-6.379c.001-.37-.07-.726-.212-1.068s-.343-.644-.605-.905a2.754 2.754 0 00-1.972-.817c.001 0 0 0 0 0z"/><path fill="#EB595B" d="M163.251 182.438a8.618 8.618 0 01-1.044 4.169 8.61 8.61 0 01-2.886 3.184 8.67 8.67 0 01-2.346 1.109 8.84 8.84 0 01-4.292.21 8.796 8.796 0 01-2.445-.873 8.61 8.61 0 01-3.184-2.886 8.67 8.67 0 01-1.109-2.346 8.84 8.84 0 01-.21-4.293c.17-.858.461-1.673.873-2.445a8.61 8.61 0 012.886-3.184 8.67 8.67 0 012.346-1.109 9.037 9.037 0 011.701-.338 8.97 8.97 0 011.734 0 8.696 8.696 0 013.302 1.001 8.61 8.61 0 013.184 2.886 8.67 8.67 0 011.109 2.346c.251.838.378 1.694.381 2.569z"/><path fill="#E2E2E2" d="M194.921 198.227c-.004-.981-.664-1.762-1.454-1.762h-51.605c-2.866.07-5.218-.101-7.142-.454-7.098-2.241-4.782-10.409-4.782-10.409h-2.798c.661-2.557-1.089-5.768-1.089-5.768-1.436 1.505-2.626 3.52-3.524 5.768h-.557l-1.793-1.07s-4.645 19.274 11.955 21.215h62.786v-7.487c.003-.01.003-.022.003-.033z"/><path fill="#BFBFBF" d="M197.485 185.902H96.244c-8.024 0-14.528-6.504-14.528-14.528v-56.457c0-8.024 6.504-14.528 14.528-14.528h101.242c8.024 0 14.528 6.504 14.528 14.528v56.457c-.001 8.024-6.505 14.528-14.529 14.528z"/><path fill="#A8A8A8" d="M212.013 164.824H81.716v-61.417c0-5.057 8.456-9.156 13.513-9.156h107.628a9.236 9.236 0 011.786.176c.59.118 1.162.292 1.718.521a9.289 9.289 0 011.583.846 8.989 8.989 0 012.526 2.526 9.069 9.069 0 011.499 4.19c.029.298.044.598.044.897v61.417z"/><path fill="#EFEFEF" d="M206.209 185.902H100.068c-6.67 0-12.078-5.407-12.078-12.078v-61.357c0-6.67 5.407-12.078 12.078-12.078H206.21c6.67 0 12.078 5.407 12.078 12.078v61.357c-.001 6.671-5.409 12.078-12.079 12.078z"/><path fill="#3D3D3D" d="M218.287 164.824H87.99v-63.783c0-3.75 3.04-6.791 6.791-6.791h116.715c3.75 0 6.791 3.04 6.791 6.791v63.783z"/><path fill="#3D3D3D" d="M211.333 164.824H95.555v-58.209a6.007 6.007 0 011.049-3.458 6.077 6.077 0 011.717-1.717 6.056 6.056 0 012.243-.929c.401-.08.805-.12 1.214-.12h103.331c.825.001 1.619.159 2.381.475s1.436.765 2.02 1.348a6.182 6.182 0 011.348 2.019c.316.762.474 1.556.475 2.381v58.21z"/><path fill="#ECF0F1" d="M99.146 104.44h110.522v58.714H99.146z"/><path fill="#9B9B9B" d="M99.146 104.423h110.522v4.251H99.146z"/><path fill="#68F964" d="M108.794 106.482c.001.294-.102.545-.311.752a.975.975 0 01-.752.311.975.975 0 01-.752-.311.975.975 0 01-.311-.752.975.975 0 01.311-.752c.207-.209.458-.312.752-.311.294-.001.545.102.752.311.209.208.313.458.311.752z"/><path fill="#FFB031" d="M105.581 106.482c.001.294-.102.545-.311.752a.975.975 0 01-.752.311.975.975 0 01-.752-.311.975.975 0 01-.311-.752.975.975 0 01.311-.752c.207-.209.458-.312.752-.311.294-.001.545.102.752.311.209.208.313.458.311.752z"/><path fill="#D6566E" d="M102.605 106.482c.001.294-.102.545-.311.752a.975.975 0 01-.752.311.975.975 0 01-.752-.311.975.975 0 01-.311-.752.975.975 0 01.311-.752c.207-.209.458-.312.752-.311.294-.001.545.102.752.311.208.208.312.458.311.752z"/><path fill="#9B9B9B" d="M135.259 136.547a12.304 12.304 0 01-.238 2.416 12.538 12.538 0 01-.705 2.324 12.501 12.501 0 01-1.869 3.118 12.211 12.211 0 01-1.717 1.717 12.5 12.5 0 01-2.019 1.349 12.473 12.473 0 01-3.423 1.225 12.22 12.22 0 01-2.416.238 12.304 12.304 0 01-2.416-.238 12.538 12.538 0 01-2.324-.705 12.501 12.501 0 01-3.118-1.869 12.211 12.211 0 01-1.717-1.717 12.5 12.5 0 01-1.349-2.019 12.384 12.384 0 0112.138-18.166 12.434 12.434 0 013.526.883 12.384 12.384 0 016.704 6.704 12.473 12.473 0 01.705 2.324 12.22 12.22 0 01.238 2.416zm64.388 0a12.304 12.304 0 01-.238 2.416 12.538 12.538 0 01-.705 2.324 12.501 12.501 0 01-1.869 3.118 12.211 12.211 0 01-1.717 1.717 12.5 12.5 0 01-2.019 1.349 12.473 12.473 0 01-3.423 1.225 12.22 12.22 0 01-2.416.238 12.304 12.304 0 01-2.416-.238 12.538 12.538 0 01-2.324-.705 12.501 12.501 0 01-3.118-1.869 12.211 12.211 0 01-1.717-1.717 12.5 12.5 0 01-1.349-2.019 12.473 12.473 0 01-1.225-3.423 12.22 12.22 0 01-.238-2.416 12.304 12.304 0 01.238-2.416 12.538 12.538 0 01.705-2.324 12.501 12.501 0 011.869-3.118 12.211 12.211 0 011.717-1.717 12.5 12.5 0 012.019-1.349 12.473 12.473 0 013.423-1.225 12.22 12.22 0 012.416-.238 12.304 12.304 0 012.416.238 12.538 12.538 0 012.324.705 12.384 12.384 0 016.704 6.704 12.473 12.473 0 01.705 2.324 12.22 12.22 0 01.238 2.416z"/><path fill="#EB595B" d="M146.246 118.331h16.929c2.071 0 3.791 1.719 3.791 3.834 0 .574-.133 1.102-.352 1.587l-12.036 25.968a3.867 3.867 0 01-3.525 2.247 3.838 3.838 0 01-3.837-3.834c0-.617.133-1.192.355-1.676l10.094-21.204h-11.419a3.445 3.445 0 01-3.439-3.439c0-1.943 1.544-3.483 3.439-3.483z"/></svg>