<svg xmlns="http://www.w3.org/2000/svg" version="1.0" viewBox="0 0 300 300"><path fill="#FFF" d="M256.064 43.932a150.293 150.293 0 0114.416 16.711 149.733 149.733 0 0111.807 18.645 149.646 149.646 0 016.294 13.307 150.63 150.63 0 014.96 13.86 149.859 149.859 0 015.737 28.84 150.245 150.245 0 01.723 14.702 150.15 150.15 0 01-2.882 29.263 150.794 150.794 0 01-3.577 14.28 149.469 149.469 0 01-7.942 20.591 150.761 150.761 0 01-6.939 12.982 149.407 149.407 0 01-8.178 12.239 149.286 149.286 0 01-9.338 11.379 150.293 150.293 0 01-21.788 19.748 149.733 149.733 0 01-18.645 11.807 149.646 149.646 0 01-13.307 6.294 150.63 150.63 0 01-13.86 4.96 149.859 149.859 0 01-28.84 5.737 150.245 150.245 0 01-14.702.723 150.15 150.15 0 01-29.263-2.882 150.794 150.794 0 01-14.28-3.577 149.469 149.469 0 01-20.591-7.942 150.761 150.761 0 01-12.982-6.939 149.407 149.407 0 01-12.239-8.178 150.048 150.048 0 01-21.788-19.747 151.062 151.062 0 01-9.339-11.379 149.733 149.733 0 01-11.807-18.645 149.646 149.646 0 01-6.294-13.307 150.63 150.63 0 01-4.96-13.86 149.859 149.859 0 01-5.737-28.84A150.245 150.245 0 010 150.003a150.15 150.15 0 012.882-29.263 150.794 150.794 0 013.577-14.28 149.469 149.469 0 017.942-20.591 150.761 150.761 0 016.939-12.982 149.407 149.407 0 018.178-12.239 149.286 149.286 0 019.338-11.379 150.293 150.293 0 0121.788-19.748 149.733 149.733 0 0118.645-11.807 149.646 149.646 0 0113.307-6.294 150.63 150.63 0 0113.86-4.96 149.859 149.859 0 0128.84-5.737 149.254 149.254 0 0122.061-.542 150.15 150.15 0 0121.903 2.701 150.794 150.794 0 0114.28 3.577 149.025 149.025 0 0113.86 4.959 150.066 150.066 0 0119.713 9.922 149.407 149.407 0 0112.239 8.178 149.286 149.286 0 0111.379 9.338c1.82 1.648 3.597 3.34 5.333 5.076z"/><path fill="#FBBC4B" d="M290.814 150a140.836 140.836 0 01-46.249 104.334 141.155 141.155 0 01-10.682 8.766 141.392 141.392 0 01-11.49 7.678 140.723 140.723 0 01-38.176 15.813 141.214 141.214 0 01-20.412 3.542 140.498 140.498 0 01-13.802.678 140.866 140.866 0 01-66.377-16.626A140.644 140.644 0 0166.122 263.1a141.422 141.422 0 01-10.682-8.766 140.735 140.735 0 01-22.518-26.105 141.734 141.734 0 01-7.105-11.852 140.723 140.723 0 01-12.406-32.163 141.214 141.214 0 01-3.542-20.412A140.498 140.498 0 019.191 150a140.866 140.866 0 0116.626-66.377 140.644 140.644 0 0111.085-17.504 141.422 141.422 0 018.766-10.682 140.735 140.735 0 0126.105-22.518 141.063 141.063 0 0111.853-7.105 140.723 140.723 0 0132.163-12.406 141.214 141.214 0 0120.412-3.542 140.498 140.498 0 0113.802-.678 140.866 140.866 0 0166.377 16.626 140 140 0 0111.852 7.105 140.373 140.373 0 0111.1 8.232 141.286 141.286 0 0110.239 9.28 140.735 140.735 0 0121.21 27.178 141.114 141.114 0 019.315 18.505 140.547 140.547 0 016.498 19.672 141.214 141.214 0 013.542 20.412 140.498 140.498 0 01.678 13.802z"/><path fill="#FFF" d="M191.814 196.455h.287c-12.156.06-9.015-10.977-9.015-10.977h-7.968v-6.557h-31.045c-3.247-5.184-9.137-8.542-15.785-8.177-5.64.31-1.611 4.986-1.411 10.631.353 9.967-5.67 17.063 2.75 17.063l64.977 7.187v-6.379a2.834 2.834 0 00-.212-1.068 2.801 2.801 0 00-1.51-1.511 2.817 2.817 0 00-1.068-.212c.001 0 0 0 0 0z"/><path fill="#86BF5A" d="M163.251 182.44a8.871 8.871 0 01-1.044 4.169 8.869 8.869 0 01-2.886 3.184 8.763 8.763 0 01-2.346 1.109 9.01 9.01 0 01-1.7.338 8.955 8.955 0 01-1.734 0 8.938 8.938 0 01-1.701-.338 9.015 9.015 0 01-1.602-.663 8.869 8.869 0 01-3.184-2.886 8.763 8.763 0 01-1.109-2.346 9.01 9.01 0 01-.338-1.701 8.955 8.955 0 010-1.734 8.938 8.938 0 01.338-1.701 9.015 9.015 0 01.663-1.602 8.869 8.869 0 012.886-3.184 8.763 8.763 0 012.346-1.109 9.01 9.01 0 011.701-.338 8.971 8.971 0 011.734 0 8.871 8.871 0 013.302 1.001 8.869 8.869 0 013.184 2.886 8.763 8.763 0 011.109 2.346 9.01 9.01 0 01.338 1.701c.029.29.043.578.043.868z"/><path fill="#E2E2E2" d="M194.922 198.23c-.004-.981-.664-1.762-1.454-1.762h-51.606c-2.866.07-5.218-.101-7.142-.454-7.098-2.241-4.782-10.409-4.782-10.409h-2.798c.661-2.557-1.089-5.768-1.089-5.768-1.436 1.505-2.626 3.52-3.524 5.768h-.557l-1.793-1.07s-4.645 19.275 11.955 21.216h62.788v-7.487c.002-.011.002-.023.002-.034z"/><path fill="#BFBFBF" d="M197.487 185.904H96.243c-8.024 0-14.528-6.504-14.528-14.528v-56.459c0-8.024 6.504-14.528 14.528-14.528h101.244c8.024 0 14.528 6.504 14.528 14.528v56.459c0 8.024-6.504 14.528-14.528 14.528z"/><path fill="#A8A8A8" d="M212.015 164.825h-130.3v-61.419c0-5.057 8.456-9.156 13.513-9.156h107.631a9.256 9.256 0 011.786.176 9.336 9.336 0 011.718.521 9.26 9.26 0 011.583.846 9.417 9.417 0 011.388 1.138 9.055 9.055 0 011.138 1.388 9.26 9.26 0 011.149 2.429 8.96 8.96 0 01.35 1.761c.029.298.044.598.044.897v61.419z"/><path fill="#EFEFEF" d="M206.211 185.904H100.067c-6.67 0-12.078-5.407-12.078-12.078v-61.359c0-6.67 5.407-12.078 12.078-12.078h106.144c6.67 0 12.078 5.407 12.078 12.078v61.359c0 6.671-5.408 12.078-12.078 12.078z"/><path fill="#3D3D3D" d="M218.289 164.825h-130.3V101.04c0-3.75 3.04-6.791 6.791-6.791h116.718c3.75 0 6.791 3.04 6.791 6.791v63.785z"/><path fill="#3D3D3D" d="M211.335 164.825H95.554v-58.211a6.268 6.268 0 011.049-3.458 6.195 6.195 0 011.717-1.717 6.176 6.176 0 012.243-.929c.401-.08.805-.12 1.214-.12H205.11a6.29 6.29 0 012.382.474 6.176 6.176 0 012.019 1.349 6.195 6.195 0 011.349 2.019 6.28 6.28 0 01.474 2.381l.001 58.212z"/><path fill="#ECF0F1" d="M99.145 104.44H209.67v58.716H99.145z"/><path fill="#9B9B9B" d="M99.145 104.423H209.67v4.251H99.145z"/><path fill="#68F964" d="M108.794 106.482a1.052 1.052 0 01-.311.752 1.054 1.054 0 01-.752.311 1.052 1.052 0 01-.752-.311 1.054 1.054 0 01-.311-.752 1.052 1.052 0 01.311-.752 1.054 1.054 0 01.752-.311 1.052 1.052 0 01.752.311 1.054 1.054 0 01.311.752z"/><path fill="#FFB031" d="M105.581 106.482a1.052 1.052 0 01-.311.752 1.054 1.054 0 01-.752.311 1.052 1.052 0 01-.752-.311 1.054 1.054 0 01-.311-.752 1.052 1.052 0 01.311-.752 1.054 1.054 0 01.752-.311 1.052 1.052 0 01.752.311 1.054 1.054 0 01.311.752z"/><path fill="#D6566E" d="M102.604 106.482a1.052 1.052 0 01-.311.752 1.054 1.054 0 01-.752.311 1.052 1.052 0 01-.752-.311 1.054 1.054 0 01-.311-.752 1.052 1.052 0 01.311-.752 1.054 1.054 0 01.752-.311 1.052 1.052 0 01.752.311 1.054 1.054 0 01.311.752z"/><path fill="#FFB031" d="M165.999 138.767a9.909 9.909 0 01-.756 3.802 9.84 9.84 0 01-.918 1.717 10.032 10.032 0 01-1.958 2.16 9.91 9.91 0 01-5.328 2.207 9.894 9.894 0 01-3.858-.38 10.025 10.025 0 01-1.799-.745 9.672 9.672 0 01-1.619-1.082 9.94 9.94 0 01-1.377-13.981 9.94 9.94 0 0113.981-1.377 9.94 9.94 0 013.632 7.679z"/><path fill="#57DD50" d="M155.63 126.399c.112.133.2.283.265.45s.106.349.122.545c.016.196.008.402-.026.618-.033.216-.091.439-.173.668s-.186.459-.313.692a6.136 6.136 0 01-.441.689 7.186 7.186 0 01-.552.661 7.682 7.682 0 01-1.349 1.135c-.245.161-.493.305-.746.431s-.504.231-.755.316-.496.148-.735.189-.469.06-.688.055a2.587 2.587 0 01-.613-.081c-.19-.049-.362-.121-.516-.214s-.286-.206-.398-.338-.2-.283-.265-.45c-.065-.167-.106-.349-.122-.545s-.008-.402.026-.618c.033-.216.091-.439.173-.668s.186-.459.313-.692c.127-.232.274-.462.441-.69.167-.227.351-.447.552-.661a7.682 7.682 0 011.349-1.135c.245-.161.493-.305.746-.431s.504-.231.755-.316.496-.148.735-.189.469-.06.688-.055c.219.004.423.031.613.081.19.049.362.121.516.214.154.093.287.206.398.339zm7.312 1.172c.21.21.406.43.588.659.182.23.346.465.493.706s.274.482.38.725c.106.243.19.481.252.716s.1.462.115.68a2.66 2.66 0 01-.027.618c-.033.194-.089.371-.168.532s-.18.303-.303.426-.264.224-.426.303a1.948 1.948 0 01-.532.168 2.61 2.61 0 01-.618.027 3.73 3.73 0 01-.68-.114 4.907 4.907 0 01-.716-.252 6.002 6.002 0 01-.725-.38 7.069 7.069 0 01-.706-.493 7.607 7.607 0 01-1.74-1.953 6.002 6.002 0 01-.38-.725c-.106-.243-.19-.481-.252-.716s-.1-.462-.115-.68a2.664 2.664 0 01.027-.618c.033-.194.089-.371.168-.532a1.585 1.585 0 01.729-.729c.161-.079.338-.135.532-.168s.4-.042.618-.027.445.053.68.114c.235.062.474.146.716.252.243.106.484.233.725.38s.476.311.706.493c.229.183.449.378.659.588z"/><path fill="#57DD50" d="M159.421 130.154a7.594 7.594 0 01-.201 1.73 6.04 6.04 0 01-.244.781c-.096.247-.206.475-.328.685s-.256.397-.4.562-.296.304-.456.418c-.16.114-.325.199-.495.257a1.587 1.587 0 01-1.03 0 1.95 1.95 0 01-.495-.257c-.16-.114-.312-.253-.456-.418s-.277-.352-.4-.562-.232-.438-.328-.685a6.088 6.088 0 01-.244-.781 7.594 7.594 0 010-3.46 6.04 6.04 0 01.244-.781c.096-.247.206-.475.328-.685.123-.21.256-.397.4-.562.144-.165.296-.304.456-.418.16-.114.325-.199.495-.257a1.587 1.587 0 011.03 0c.17.058.335.144.495.257.16.114.312.253.456.418s.277.352.4.562.232.438.328.685c.096.247.178.507.244.781s.116.557.15.848c.034.292.051.585.051.882z"/><path fill="#3D3D3D" d="M137.752 130.957h-29.438c-.326 0-.594-.267-.594-.594s.267-.594.594-.594h29.438c.326 0 .594.267.594.594s-.267.594-.594.594zm-.781 9.677a.71.71 0 01-.212.512.718.718 0 01-.512.212.71.71 0 01-.512-.212.718.718 0 01-.212-.512.71.71 0 01.212-.512.718.718 0 01.512-.212.71.71 0 01.512.212.718.718 0 01.212.512z"/><path fill="#515151" d="M136.769 140.219a.62.62 0 00-.402-.258v-.309l-.266-.001v.314a.624.624 0 00-.378.253h-.12v.394h.001a.632.632 0 00.188.454.633.633 0 00.454.188.632.632 0 00.454-.188.633.633 0 00.188-.454h.001v-.394h-.12v.001z"/><path fill="#D6D6D6" d="M136.306 139.574l.001.006v.556c0 .04-.02.06-.06.06s-.06-.02-.06-.06v-.556l.001-.006a.676.676 0 00-.304.109.654.654 0 00-.211.243.645.645 0 00.131.749.613.613 0 00.282.156.63.63 0 00.473-.06.647.647 0 00.315-.692.63.63 0 00-.264-.396.676.676 0 00-.304-.109z"/><path fill="#3D3D3D" d="M136.971 138.333a.71.71 0 01-.212.512.718.718 0 01-.512.212.71.71 0 01-.512-.212.718.718 0 01-.212-.512.71.71 0 01.212-.512.718.718 0 01.512-.212.71.71 0 01.512.212.718.718 0 01.212.512z"/><path fill="#515151" d="M136.769 137.919a.628.628 0 00-.402-.258v-.309l-.266-.001v.314a.624.624 0 00-.378.253h-.12v.394h.001a.632.632 0 00.188.454.633.633 0 00.454.188.632.632 0 00.454-.188.633.633 0 00.188-.454h.001v-.394l-.12.001z"/><path fill="#D6D6D6" d="M136.306 137.273l.001.006v.556c0 .04-.02.06-.06.06s-.06-.02-.06-.06v-.556l.001-.006a.676.676 0 00-.304.109.654.654 0 00-.211.243.645.645 0 00.131.749.613.613 0 00.282.156.63.63 0 00.473-.06.647.647 0 00.315-.692.63.63 0 00-.264-.396.676.676 0 00-.304-.109z"/><path fill="#3D3D3D" d="M136.971 136.163a.71.71 0 01-.212.512.718.718 0 01-.512.212.71.71 0 01-.512-.212.718.718 0 01-.212-.512.71.71 0 01.212-.512.718.718 0 01.512-.212.71.71 0 01.512.212.718.718 0 01.212.512z"/><path fill="#515151" d="M136.769 135.749a.62.62 0 00-.402-.258v-.309l-.266-.001v.314a.624.624 0 00-.378.253h-.12v.394h.001a.632.632 0 00.188.454.633.633 0 00.454.188.632.632 0 00.454-.188.633.633 0 00.188-.454h.001v-.394h-.12v.001z"/><path fill="#D6D6D6" d="M136.306 135.104l.001.006v.556c0 .04-.02.06-.06.06s-.06-.02-.06-.06v-.556l.001-.006a.676.676 0 00-.304.109.654.654 0 00-.211.243.645.645 0 00.131.749.613.613 0 00.282.156.63.63 0 00.473-.06.647.647 0 00.315-.692.63.63 0 00-.264-.396.676.676 0 00-.304-.109z"/><path fill="#3D3D3D" d="M136.971 134.024a.71.71 0 01-.212.512.718.718 0 01-.512.212.71.71 0 01-.512-.212.718.718 0 01-.212-.512.71.71 0 01.212-.512.718.718 0 01.512-.212.71.71 0 01.512.212.718.718 0 01.212.512z"/><path fill="#515151" d="M136.769 133.609a.624.624 0 00-.402-.258v-.309l-.266-.001v.314a.624.624 0 00-.378.253h-.12v.394h.001a.632.632 0 00.188.454.633.633 0 00.454.188.632.632 0 00.454-.188.633.633 0 00.188-.454h.001v-.394h-.12v.001z"/><path fill="#D6D6D6" d="M136.306 132.964l.001.006v.556c0 .04-.02.06-.06.06s-.06-.02-.06-.06v-.556l.001-.006a.676.676 0 00-.304.109.654.654 0 00-.211.243.645.645 0 00.131.749.613.613 0 00.282.156.63.63 0 00.473-.06.647.647 0 00.315-.692.63.63 0 00-.264-.396.64.64 0 00-.304-.109z"/><path fill="#3D3D3D" d="M114.478 125.967a1.419 1.419 0 01-.42 1.014 1.433 1.433 0 11-1.563-2.339c.176-.073.359-.109.549-.109s.373.036.549.109.331.176.465.311a1.433 1.433 0 01.42 1.014z"/><path fill="#3D3D3D" d="M113.999 125.078h.478v.95h-.478v-.95zm-2.389 0h.478v.95h-.478v-.95z"/><path fill="#515151" d="M114.482 125.08a1.419 1.419 0 01-.42 1.014 1.444 1.444 0 01-1.014.42 1.419 1.419 0 01-1.014-.42 1.433 1.433 0 112.448-1.014z"/><path fill="#3D3D3D" d="M119.463 125.967a1.419 1.419 0 01-.42 1.014 1.433 1.433 0 11-1.563-2.339c.176-.073.359-.109.549-.109s.373.036.549.109.331.176.465.311a1.433 1.433 0 01.42 1.014z"/><path fill="#3D3D3D" d="M118.985 125.078h.478v.95h-.478v-.95zm-2.389 0h.478v.95h-.478v-.95z"/><path fill="#515151" d="M119.468 125.08a1.419 1.419 0 01-.42 1.014 1.433 1.433 0 11-1.563-2.339c.176-.073.359-.109.549-.109s.373.036.549.109.331.176.465.311a1.433 1.433 0 01.42 1.014z"/><path fill="#3D3D3D" d="M124.634 125.967a1.419 1.419 0 01-.42 1.014 1.433 1.433 0 11-1.563-2.339c.176-.073.359-.109.549-.109s.373.036.549.109.331.176.465.311a1.433 1.433 0 01.42 1.014z"/><path fill="#3D3D3D" d="M124.156 125.078h.478v.95h-.478v-.95zm-2.389 0h.478v.95h-.478v-.95z"/><path fill="#515151" d="M124.639 125.08a1.419 1.419 0 01-.42 1.014 1.433 1.433 0 11-1.563-2.339c.176-.073.359-.109.549-.109s.373.036.549.109.331.176.465.311a1.433 1.433 0 01.42 1.014z"/><path fill="#3D3D3D" d="M129.518 125.967a1.419 1.419 0 01-.42 1.014 1.433 1.433 0 11-1.563-2.339c.176-.073.359-.109.549-.109s.373.036.549.109.331.176.465.311a1.433 1.433 0 01.42 1.014z"/><path fill="#3D3D3D" d="M129.04 125.078h.478v.95h-.478v-.95zm-2.389 0h.478v.95h-.478v-.95z"/><path fill="#515151" d="M129.523 125.08a1.419 1.419 0 01-.42 1.014 1.433 1.433 0 11-1.563-2.339c.176-.073.359-.109.549-.109s.373.036.549.109.331.176.465.311a1.433 1.433 0 01.42 1.014zm8.229 5.53h-29.438c-.326 0-.594-.267-.594-.594s.267-.594.594-.594h29.438c.326 0 .594.267.594.594s-.267.594-.594.594z"/><path fill="#3D3D3D" d="M131.617 150.768v-18.175c0-.069.025-.127.073-.176.049-.049.107-.073.176-.073s.127.025.176.073a.239.239 0 01.073.176v18.175c0 .069-.024.127-.073.176s-.107.073-.176.073-.127-.024-.176-.073a.237.237 0 01-.073-.176z"/><path fill="#515151" d="M112.944 150.993v-8.881c0-.158.129-.287.287-.287h.138c.158 0 .287.129.287.287v8.881c0 .079-.028.147-.084.203s-.123.084-.203.084h-.138c-.079 0-.147-.028-.203-.084s-.084-.124-.084-.203zm18.819-.225v-18.175c0-.069.025-.127.073-.176.049-.049.107-.073.176-.073s.127.025.176.073a.239.239 0 01.073.176v18.175c0 .069-.024.127-.073.176s-.107.073-.176.073-.127-.024-.176-.073-.073-.107-.073-.176z"/><path fill="#3D3D3D" d="M113.167 150.975v-8.844c0-.089.045-.134.134-.134.089 0 .134.045.134.134v8.844c0 .089-.045.134-.134.134-.09 0-.134-.045-.134-.134z"/><path fill="#5EBCB5" d="M114.011 133.736a.706.706 0 01-.439.657.706.706 0 01-.544 0 .72.72 0 01-.385-.385.706.706 0 010-.544.72.72 0 01.385-.385.706.706 0 01.544 0 .72.72 0 01.385.385.706.706 0 01.054.272z"/><path fill="#5EBCB5" d="M113.774 133.295h.237v.472h-.237v-.472zm-1.187 0h.237v.472h-.237v-.472z"/><path fill="#6DE2DE" d="M114.013 133.296a.706.706 0 01-.439.657.706.706 0 01-.544 0 .72.72 0 01-.385-.385.706.706 0 010-.544.72.72 0 01.385-.385.706.706 0 01.544 0 .72.72 0 01.385.385.706.706 0 01.054.272z"/><path fill="#E59623" d="M114.011 138.045a.706.706 0 01-.439.657.706.706 0 01-.544 0 .72.72 0 01-.385-.385.706.706 0 010-.544.72.72 0 01.385-.385.706.706 0 01.544 0 .72.72 0 01.385.385.706.706 0 01.054.272z"/><path fill="#E59623" d="M113.774 137.604h.237v.472h-.237v-.472zm-1.187 0h.237v.472h-.237v-.472z"/><path fill="#FFB031" d="M114.013 137.605a.706.706 0 01-.439.657.706.706 0 01-.544 0 .72.72 0 01-.385-.385.706.706 0 010-.544.72.72 0 01.385-.385.706.706 0 01.544 0 .72.72 0 01.385.385.706.706 0 01.054.272z"/><path fill="#D6566E" d="M114.011 135.747a.706.706 0 01-.439.657.706.706 0 01-.544 0 .72.72 0 01-.385-.385.706.706 0 010-.544.72.72 0 01.385-.385.706.706 0 01.544 0 .72.72 0 01.385.385.706.706 0 01.054.272z"/><path fill="#D6566E" d="M113.774 135.306h.237v.472h-.237v-.472zm-1.187 0h.237v.472h-.237v-.472z"/><path fill="#FF7182" d="M114.013 135.307a.706.706 0 01-.439.657.706.706 0 01-.544 0 .72.72 0 01-.385-.385.706.706 0 010-.545.72.72 0 01.385-.385.706.706 0 01.544 0 .72.72 0 01.385.385.714.714 0 01.054.273z"/><path fill="#57DD50" d="M114.011 140.344a.706.706 0 01-.439.657.706.706 0 01-.544 0 .72.72 0 01-.385-.385.706.706 0 010-.545.72.72 0 01.385-.385.706.706 0 01.544 0 .72.72 0 01.385.385.714.714 0 01.054.273z"/><path fill="#57DD50" d="M113.774 139.902h.237v.472h-.237v-.472zm-1.187 0h.237v.472h-.237v-.472z"/><path fill="#68F964" d="M114.013 139.903a.706.706 0 01-.439.657.706.706 0 01-.544 0 .72.72 0 01-.385-.385.706.706 0 010-.544.72.72 0 01.385-.385.706.706 0 01.544 0 .72.72 0 01.385.385.706.706 0 01.054.272z"/><path fill="#3D3D3D" d="M112.582 143.261h1.436v2.298h-1.436z"/><path fill="#515151" d="M122.137 150.993v-8.881c0-.158.129-.287.287-.287h.138c.158 0 .287.129.287.287v8.881c0 .079-.028.147-.084.203s-.124.084-.203.084h-.138c-.079 0-.147-.028-.203-.084s-.084-.124-.084-.203zm-9.555-8.019h1.436v2.298h-1.436v-2.298z"/><path fill="#3D3D3D" d="M122.36 150.975v-8.844c0-.089.045-.134.134-.134.089 0 .134.045.134.134v8.844c0 .089-.045.134-.134.134-.09 0-.134-.045-.134-.134z"/><path fill="#5EBCB5" d="M123.204 133.736a.706.706 0 01-.439.657.706.706 0 01-.544 0 .72.72 0 01-.385-.385.706.706 0 010-.544.72.72 0 01.385-.385.706.706 0 01.544 0 .72.72 0 01.385.385.706.706 0 01.054.272z"/><path fill="#5EBCB5" d="M122.967 133.295h.237v.472h-.237v-.472zm-1.187 0h.237v.472h-.237v-.472z"/><path fill="#6DE2DE" d="M123.206 133.296a.706.706 0 01-.439.657.706.706 0 01-.544 0 .72.72 0 01-.385-.385.706.706 0 010-.544.72.72 0 01.385-.385.706.706 0 01.544 0 .72.72 0 01.385.385.706.706 0 01.054.272z"/><path fill="#E59623" d="M123.204 138.045a.706.706 0 01-.439.657.706.706 0 01-.544 0 .72.72 0 01-.385-.385.706.706 0 010-.544.72.72 0 01.385-.385.706.706 0 01.544 0 .72.72 0 01.385.385.706.706 0 01.054.272z"/><path fill="#E59623" d="M122.967 137.604h.237v.472h-.237v-.472zm-1.187 0h.237v.472h-.237v-.472z"/><path fill="#FFB031" d="M123.206 137.605a.706.706 0 01-.439.657.706.706 0 01-.544 0 .72.72 0 01-.385-.385.706.706 0 010-.544.72.72 0 01.385-.385.706.706 0 01.544 0 .72.72 0 01.385.385.706.706 0 01.054.272z"/><path fill="#D6566E" d="M123.204 135.747a.706.706 0 01-.439.657.706.706 0 01-.544 0 .72.72 0 01-.385-.385.706.706 0 010-.544.72.72 0 01.385-.385.706.706 0 01.544 0 .72.72 0 01.385.385.706.706 0 01.054.272z"/><path fill="#D6566E" d="M122.967 135.306h.237v.472h-.237v-.472zm-1.187 0h.237v.472h-.237v-.472z"/><path fill="#FF7182" d="M123.206 135.307a.706.706 0 01-.439.657.706.706 0 01-.544 0 .72.72 0 01-.385-.385.706.706 0 010-.545.72.72 0 01.385-.385.706.706 0 01.544 0 .72.72 0 01.385.385.714.714 0 01.054.273z"/><path fill="#57DD50" d="M123.204 140.344a.706.706 0 01-.439.657.706.706 0 01-.544 0 .72.72 0 01-.385-.385.706.706 0 010-.545.72.72 0 01.385-.385.706.706 0 01.544 0 .72.72 0 01.385.385.714.714 0 01.054.273z"/><path fill="#57DD50" d="M122.967 139.902h.237v.472h-.237v-.472zm-1.187 0h.237v.472h-.237v-.472z"/><path fill="#68F964" d="M123.206 139.903a.706.706 0 01-.439.657.706.706 0 01-.544 0 .72.72 0 01-.385-.385.706.706 0 010-.544.72.72 0 01.385-.385.706.706 0 01.544 0 .72.72 0 01.385.385.706.706 0 01.054.272z"/><path fill="#3D3D3D" d="M121.775 143.261h1.436v2.298h-1.436z"/><path fill="#515151" d="M127.021 150.993v-8.881c0-.158.129-.287.287-.287h.138c.158 0 .287.129.287.287v8.881c0 .079-.028.147-.084.203s-.124.084-.203.084h-.138c-.079 0-.147-.028-.203-.084s-.084-.124-.084-.203zm-5.246-8.019h1.436v2.298h-1.436v-2.298z"/><path fill="#3D3D3D" d="M127.244 150.975v-8.844c0-.089.045-.134.134-.134.089 0 .134.045.134.134v8.844c0 .089-.045.134-.134.134-.09 0-.134-.045-.134-.134z"/><path fill="#5EBCB5" d="M128.088 133.736a.706.706 0 01-.439.657.706.706 0 01-.544 0 .72.72 0 01-.385-.385.706.706 0 010-.544.72.72 0 01.385-.385.706.706 0 01.544 0 .72.72 0 01.385.385.706.706 0 01.054.272z"/><path fill="#5EBCB5" d="M127.851 133.295h.237v.472h-.237v-.472zm-1.187 0h.237v.472h-.237v-.472z"/><path fill="#6DE2DE" d="M128.09 133.296a.706.706 0 01-.439.657.706.706 0 01-.544 0 .72.72 0 01-.385-.385.706.706 0 010-.544.72.72 0 01.385-.385.706.706 0 01.544 0 .72.72 0 01.385.385.706.706 0 01.054.272z"/><path fill="#E59623" d="M128.088 138.045a.706.706 0 01-.439.657.706.706 0 01-.544 0 .72.72 0 01-.385-.385.706.706 0 010-.544.72.72 0 01.385-.385.706.706 0 01.544 0 .72.72 0 01.385.385.706.706 0 01.054.272z"/><path fill="#E59623" d="M127.851 137.604h.237v.472h-.237v-.472zm-1.187 0h.237v.472h-.237v-.472z"/><path fill="#FFB031" d="M128.09 137.605a.706.706 0 01-.439.657.706.706 0 01-.544 0 .72.72 0 01-.385-.385.706.706 0 010-.544.72.72 0 01.385-.385.706.706 0 01.544 0 .72.72 0 01.385.385.706.706 0 01.054.272z"/><path fill="#D6566E" d="M128.088 135.747a.706.706 0 01-.439.657.706.706 0 01-.544 0 .72.72 0 01-.385-.385.706.706 0 010-.544.72.72 0 01.385-.385.706.706 0 01.544 0 .72.72 0 01.385.385.706.706 0 01.054.272z"/><path fill="#D6566E" d="M127.851 135.306h.237v.472h-.237v-.472zm-1.187 0h.237v.472h-.237v-.472z"/><path fill="#FF7182" d="M128.09 135.307a.706.706 0 01-.439.657.706.706 0 01-.544 0 .72.72 0 01-.385-.385.706.706 0 010-.545.72.72 0 01.385-.385.706.706 0 01.544 0 .72.72 0 01.385.385.714.714 0 01.054.273z"/><path fill="#57DD50" d="M128.088 140.344a.706.706 0 01-.439.657.706.706 0 01-.544 0 .72.72 0 01-.385-.385.706.706 0 010-.545.72.72 0 01.385-.385.706.706 0 01.544 0 .72.72 0 01.385.385.714.714 0 01.054.273z"/><path fill="#57DD50" d="M127.851 139.902h.237v.472h-.237v-.472zm-1.187 0h.237v.472h-.237v-.472z"/><path fill="#68F964" d="M128.09 139.903a.706.706 0 01-.439.657.706.706 0 01-.544 0 .72.72 0 01-.385-.385.706.706 0 010-.544.72.72 0 01.385-.385.706.706 0 01.544 0 .72.72 0 01.385.385.706.706 0 01.054.272z"/><path fill="#3D3D3D" d="M126.659 143.261h1.436v2.298h-1.436z"/><path fill="#515151" d="M135.89 150.993v-8.881c0-.158.129-.287.287-.287h.138c.158 0 .287.129.287.287v8.881c0 .079-.028.147-.084.203s-.124.084-.203.084h-.138c-.079 0-.147-.028-.203-.084s-.084-.124-.084-.203zm-9.231-8.019h1.436v2.298h-1.436v-2.298z"/><path fill="#3D3D3D" d="M136.112 150.975v-8.844c0-.089.045-.134.134-.134s.134.045.134.134v8.844c0 .089-.045.134-.134.134-.09 0-.134-.045-.134-.134z"/><path fill="#3D3D3D" d="M135.527 143.261h1.436v2.298h-1.436z"/><path fill="#515151" d="M135.527 142.974h1.436v2.298h-1.436z"/><path fill="#3D3D3D" d="M116.891 143.261h1.436v2.298h-1.436z"/><path fill="#515151" d="M117.253 150.993v-8.881c0-.158.129-.287.287-.287h.138c.158 0 .287.129.287.287v8.881c0 .079-.028.147-.084.203s-.124.084-.203.084h-.138c-.079 0-.147-.028-.203-.084s-.084-.124-.084-.203z"/><path fill="#3D3D3D" d="M117.476 150.975v-8.844c0-.089.045-.134.134-.134s.134.045.134.134v8.844c0 .089-.045.134-.134.134s-.134-.045-.134-.134z"/><path fill="#5EBCB5" d="M118.32 133.736a.706.706 0 01-.439.657.706.706 0 01-.544 0 .72.72 0 01-.385-.385.706.706 0 010-.544.72.72 0 01.385-.385.706.706 0 01.544 0 .72.72 0 01.385.385.706.706 0 01.054.272z"/><path fill="#5EBCB5" d="M118.083 133.295h.237v.472h-.237v-.472zm-1.187 0h.237v.472h-.237v-.472z"/><path fill="#6DE2DE" d="M118.323 133.296a.706.706 0 01-.439.657.706.706 0 01-.544 0 .72.72 0 01-.385-.385.706.706 0 010-.544.72.72 0 01.385-.385.706.706 0 01.544 0 .72.72 0 01.385.385.706.706 0 01.054.272z"/><path fill="#E59623" d="M118.32 138.045a.706.706 0 01-.439.657.706.706 0 01-.544 0 .72.72 0 01-.385-.385.706.706 0 010-.544.72.72 0 01.385-.385.706.706 0 01.544 0 .72.72 0 01.385.385.706.706 0 01.054.272z"/><path fill="#E59623" d="M118.083 137.604h.237v.472h-.237v-.472zm-1.187 0h.237v.472h-.237v-.472z"/><path fill="#FFB031" d="M118.323 137.605a.706.706 0 01-.439.657.706.706 0 01-.544 0 .72.72 0 01-.385-.385.706.706 0 010-.544.72.72 0 01.385-.385.706.706 0 01.544 0 .72.72 0 01.385.385.706.706 0 01.054.272z"/><path fill="#D6566E" d="M118.32 135.747a.706.706 0 01-.439.657.706.706 0 01-.544 0 .72.72 0 01-.385-.385.706.706 0 010-.544.72.72 0 01.385-.385.706.706 0 01.544 0 .72.72 0 01.385.385.706.706 0 01.054.272z"/><path fill="#D6566E" d="M118.083 135.306h.237v.472h-.237v-.472zm-1.187 0h.237v.472h-.237v-.472z"/><path fill="#FF7182" d="M118.323 135.307a.706.706 0 01-.439.657.706.706 0 01-.544 0 .72.72 0 01-.385-.385.706.706 0 010-.545.72.72 0 01.385-.385.706.706 0 01.544 0 .72.72 0 01.385.385.714.714 0 01.054.273z"/><path fill="#57DD50" d="M118.32 140.344a.706.706 0 01-.439.657.706.706 0 01-.544 0 .72.72 0 01-.385-.385.706.706 0 010-.545.72.72 0 01.385-.385.706.706 0 01.544 0 .72.72 0 01.385.385.714.714 0 01.054.273z"/><path fill="#57DD50" d="M118.083 139.902h.237v.472h-.237v-.472zm-1.187 0h.237v.472h-.237v-.472z"/><path fill="#68F964" d="M118.323 139.903a.706.706 0 01-.439.657.706.706 0 01-.544 0 .72.72 0 01-.385-.385.706.706 0 010-.544.72.72 0 01.385-.385.706.706 0 01.544 0 .72.72 0 01.385.385.706.706 0 01.054.272z"/><path fill="#515151" d="M116.891 142.974h1.436v2.298h-1.436z"/><path fill="#3D3D3D" d="M200.72 130.957h-29.438c-.326 0-.594-.267-.594-.594s.267-.594.594-.594h29.438c.326 0 .594.267.594.594s-.268.594-.594.594zm-63.772-2.922h-5.159a.47.47 0 01-.343-.142.467.467 0 01-.142-.343v-3.914c0-.267.218-.485.485-.485h5.159c.267 0 .485.218.485.485v3.914a.468.468 0 01-.143.342.465.465 0 01-.342.143zm62.99 12.599a.71.71 0 01-.212.512.718.718 0 01-.512.212.71.71 0 01-.512-.212.718.718 0 01-.212-.512.71.71 0 01.212-.512.718.718 0 01.512-.212.71.71 0 01.512.212.718.718 0 01.212.512z"/><path fill="#515151" d="M199.736 140.219a.624.624 0 00-.402-.258v-.309l-.266-.001v.314a.624.624 0 00-.378.253h-.12v.394h.001a.632.632 0 00.188.454.633.633 0 00.454.188.632.632 0 00.454-.188.633.633 0 00.188-.454h.001v-.394h-.12v.001z"/><path fill="#D6D6D6" d="M199.273 139.574l.001.006v.556c0 .04-.02.06-.06.06s-.06-.02-.06-.06v-.556l.001-.006a.676.676 0 00-.304.109.654.654 0 00-.211.243.645.645 0 00.131.749c.039.038.083.07.131.096a.63.63 0 00.624 0 .649.649 0 00.233-.222.617.617 0 00.095-.308.626.626 0 00-.066-.315.611.611 0 00-.211-.243.676.676 0 00-.304-.109z"/><path fill="#3D3D3D" d="M199.938 138.333a.71.71 0 01-.212.512.718.718 0 01-.512.212.71.71 0 01-.512-.212.718.718 0 01-.212-.512.71.71 0 01.212-.512.718.718 0 01.512-.212.71.71 0 01.512.212.718.718 0 01.212.512z"/><path fill="#515151" d="M199.736 137.919a.628.628 0 00-.402-.258v-.309l-.266-.001v.314a.624.624 0 00-.378.253h-.12v.394h.001a.632.632 0 00.188.454.633.633 0 00.454.188.632.632 0 00.454-.188.633.633 0 00.188-.454h.001v-.394l-.12.001z"/><path fill="#D6D6D6" d="M199.273 137.273l.001.006v.556c0 .04-.02.06-.06.06s-.06-.02-.06-.06v-.556l.001-.006a.676.676 0 00-.304.109.654.654 0 00-.211.243.645.645 0 00.131.749c.039.038.083.07.131.096a.63.63 0 00.624 0 .647.647 0 00.315-.692.63.63 0 00-.264-.396.676.676 0 00-.304-.109z"/><path fill="#3D3D3D" d="M199.938 136.163a.71.71 0 01-.212.512.718.718 0 01-.512.212.71.71 0 01-.512-.212.718.718 0 01-.212-.512.71.71 0 01.212-.512.718.718 0 01.512-.212.71.71 0 01.512.212.718.718 0 01.212.512z"/><path fill="#515151" d="M199.736 135.749a.624.624 0 00-.402-.258v-.309l-.266-.001v.314a.624.624 0 00-.378.253h-.12v.394h.001a.632.632 0 00.188.454.633.633 0 00.454.188.632.632 0 00.454-.188.633.633 0 00.188-.454h.001v-.394h-.12v.001z"/><path fill="#D6D6D6" d="M199.273 135.104l.001.006v.556c0 .04-.02.06-.06.06s-.06-.02-.06-.06v-.556l.001-.006a.676.676 0 00-.304.109.654.654 0 00-.211.243.645.645 0 00.131.749c.039.038.083.07.131.096a.63.63 0 00.624 0c.048-.027.091-.059.131-.096s.074-.08.102-.126a.617.617 0 00.095-.308.626.626 0 00-.066-.315.611.611 0 00-.211-.243.676.676 0 00-.304-.109z"/><path fill="#3D3D3D" d="M199.938 134.024a.71.71 0 01-.212.512.718.718 0 01-.512.212.71.71 0 01-.512-.212.718.718 0 01-.212-.512.71.71 0 01.212-.512.718.718 0 01.512-.212.71.71 0 01.512.212.718.718 0 01.212.512z"/><path fill="#515151" d="M199.736 133.609a.628.628 0 00-.402-.258v-.309l-.266-.001v.314a.624.624 0 00-.378.253h-.12v.394h.001a.632.632 0 00.188.454.633.633 0 00.454.188.632.632 0 00.454-.188.633.633 0 00.188-.454h.001v-.394h-.12v.001z"/><path fill="#D6D6D6" d="M199.273 132.964l.001.006v.556c0 .04-.02.06-.06.06s-.06-.02-.06-.06v-.556l.001-.006a.676.676 0 00-.304.109.654.654 0 00-.211.243.645.645 0 00.131.749c.039.038.083.07.131.096a.63.63 0 00.624 0 .647.647 0 00.315-.692.63.63 0 00-.264-.396.64.64 0 00-.304-.109z"/><path fill="#3D3D3D" d="M177.445 125.967a1.419 1.419 0 01-.42 1.014 1.433 1.433 0 11-1.563-2.339c.176-.073.359-.109.549-.109s.373.036.549.109.331.176.465.311a1.433 1.433 0 01.42 1.014z"/><path fill="#3D3D3D" d="M176.967 125.078h.478v.95h-.478v-.95zm-2.389 0h.478v.95h-.478v-.95z"/><path fill="#515151" d="M177.45 125.08a1.419 1.419 0 01-.42 1.014 1.433 1.433 0 11-1.563-2.339c.176-.073.359-.109.549-.109s.373.036.549.109.331.176.465.311a1.433 1.433 0 01.42 1.014z"/><path fill="#3D3D3D" d="M182.431 125.967a1.419 1.419 0 01-.42 1.014 1.433 1.433 0 11-1.563-2.339c.176-.073.359-.109.549-.109s.373.036.549.109.331.176.465.311a1.433 1.433 0 01.42 1.014z"/><path fill="#3D3D3D" d="M181.953 125.078h.478v.95h-.478v-.95zm-2.39 0h.478v.95h-.478v-.95z"/><path fill="#515151" d="M182.435 125.08a1.419 1.419 0 01-.42 1.014 1.433 1.433 0 11-1.563-2.339c.176-.073.359-.109.549-.109s.373.036.549.109.331.176.465.311a1.433 1.433 0 01.42 1.014z"/><path fill="#3D3D3D" d="M187.602 125.967a1.419 1.419 0 01-.42 1.014 1.433 1.433 0 11-1.563-2.339c.176-.073.359-.109.549-.109s.373.036.549.109.331.176.465.311a1.433 1.433 0 01.42 1.014z"/><path fill="#3D3D3D" d="M187.124 125.078h.478v.95h-.478v-.95zm-2.389 0h.478v.95h-.478v-.95z"/><path fill="#515151" d="M187.606 125.08a1.419 1.419 0 01-.42 1.014 1.433 1.433 0 11-1.563-2.339c.176-.073.359-.109.549-.109s.373.036.549.109.331.176.465.311a1.433 1.433 0 01.42 1.014z"/><path fill="#3D3D3D" d="M192.486 125.967a1.419 1.419 0 01-.42 1.014 1.433 1.433 0 11-1.563-2.339c.176-.073.359-.109.549-.109s.373.036.549.109.331.176.465.311a1.433 1.433 0 01.42 1.014z"/><path fill="#3D3D3D" d="M192.008 125.078h.478v.95h-.478v-.95zm-2.39 0h.478v.95h-.478v-.95z"/><path fill="#515151" d="M192.49 125.08a1.419 1.419 0 01-.42 1.014 1.433 1.433 0 11-1.563-2.339c.176-.073.359-.109.549-.109s.373.036.549.109.331.176.465.311a1.433 1.433 0 01.42 1.014zm8.23 5.53h-29.438c-.326 0-.594-.267-.594-.594s.267-.594.594-.594h29.438c.326 0 .594.267.594.594s-.268.594-.594.594z"/><path fill="#3D3D3D" d="M194.585 150.768v-18.175c0-.069.025-.127.073-.176.049-.049.107-.073.176-.073s.127.025.176.073a.239.239 0 01.073.176v18.175c0 .069-.024.127-.073.176s-.107.073-.176.073-.127-.024-.176-.073a.237.237 0 01-.073-.176z"/><path fill="#515151" d="M175.912 150.993v-8.881c0-.158.129-.287.287-.287h.138c.158 0 .287.129.287.287v8.881c0 .079-.028.147-.084.203s-.124.084-.203.084h-.138c-.079 0-.147-.028-.203-.084s-.084-.124-.084-.203zm18.818-.225v-18.175c0-.069.025-.127.073-.176.049-.049.107-.073.176-.073s.127.025.176.073a.239.239 0 01.073.176v18.175c0 .069-.024.127-.073.176s-.107.073-.176.073-.127-.024-.176-.073-.073-.107-.073-.176z"/><path fill="#3D3D3D" d="M176.134 150.975v-8.844c0-.089.045-.134.134-.134s.134.045.134.134v8.844c0 .089-.045.134-.134.134-.09 0-.134-.045-.134-.134z"/><path fill="#5EBCB5" d="M176.979 133.736a.706.706 0 01-.439.657.706.706 0 01-.545 0 .72.72 0 01-.385-.385.706.706 0 010-.544.72.72 0 01.385-.385.707.707 0 01.545 0 .72.72 0 01.385.385.706.706 0 01.054.272z"/><path fill="#5EBCB5" d="M176.742 133.295h.237v.472h-.237v-.472zm-1.187 0h.237v.472h-.237v-.472z"/><path fill="#6DE2DE" d="M176.981 133.296a.706.706 0 01-.439.657.706.706 0 01-.544 0 .72.72 0 01-.385-.385.706.706 0 010-.544.72.72 0 01.385-.385.706.706 0 01.544 0 .72.72 0 01.385.385.706.706 0 01.054.272z"/><path fill="#E59623" d="M176.979 138.045a.706.706 0 01-.439.657.706.706 0 01-.545 0 .72.72 0 01-.385-.385.706.706 0 010-.544.72.72 0 01.385-.385.707.707 0 01.545 0 .72.72 0 01.385.385.706.706 0 01.054.272z"/><path fill="#E59623" d="M176.742 137.604h.237v.472h-.237v-.472zm-1.187 0h.237v.472h-.237v-.472z"/><path fill="#FFB031" d="M176.981 137.605a.706.706 0 01-.439.657.706.706 0 01-.544 0 .72.72 0 01-.385-.385.706.706 0 010-.544.72.72 0 01.385-.385.706.706 0 01.544 0 .72.72 0 01.385.385.706.706 0 01.054.272z"/><path fill="#D6566E" d="M176.979 135.747a.706.706 0 01-.439.657.706.706 0 01-.545 0 .709.709 0 01-.385-.929.72.72 0 01.385-.385.707.707 0 01.545 0 .72.72 0 01.385.385.706.706 0 01.054.272z"/><path fill="#D6566E" d="M176.742 135.306h.237v.472h-.237v-.472zm-1.187 0h.237v.472h-.237v-.472z"/><path fill="#FF7182" d="M176.981 135.307a.706.706 0 01-.439.657.706.706 0 01-.544 0 .72.72 0 01-.385-.385.706.706 0 010-.545.72.72 0 01.385-.385.706.706 0 01.544 0 .72.72 0 01.385.385.714.714 0 01.054.273z"/><path fill="#57DD50" d="M176.979 140.344a.706.706 0 01-.439.657.706.706 0 01-.545 0 .709.709 0 01-.385-.93.72.72 0 01.385-.385.707.707 0 01.545 0 .72.72 0 01.385.385.714.714 0 01.054.273z"/><path fill="#57DD50" d="M176.742 139.902h.237v.472h-.237v-.472zm-1.187 0h.237v.472h-.237v-.472z"/><path fill="#68F964" d="M176.981 139.903a.706.706 0 01-.439.657.706.706 0 01-.544 0 .72.72 0 01-.385-.385.706.706 0 010-.544.72.72 0 01.385-.385.706.706 0 01.544 0 .72.72 0 01.385.385.706.706 0 01.054.272z"/><path fill="#3D3D3D" d="M175.55 143.261h1.436v2.298h-1.436z"/><path fill="#515151" d="M185.105 150.993v-8.881c0-.158.129-.287.287-.287h.138c.158 0 .287.129.287.287v8.881c0 .079-.028.147-.084.203s-.124.084-.203.084h-.138c-.079 0-.147-.028-.203-.084s-.084-.124-.084-.203zm-9.555-8.019h1.436v2.298h-1.436v-2.298z"/><path fill="#3D3D3D" d="M185.327 150.975v-8.844c0-.089.045-.134.134-.134s.134.045.134.134v8.844c0 .089-.045.134-.134.134-.09 0-.134-.045-.134-.134z"/><path fill="#5EBCB5" d="M186.172 133.736a.706.706 0 01-.439.657.706.706 0 01-.544 0 .72.72 0 01-.385-.385.706.706 0 010-.544.72.72 0 01.385-.385.706.706 0 01.544 0 .72.72 0 01.385.385.706.706 0 01.054.272z"/><path fill="#5EBCB5" d="M185.935 133.295h.237v.472h-.237v-.472zm-1.187 0h.237v.472h-.237v-.472z"/><path fill="#6DE2DE" d="M186.174 133.296a.706.706 0 01-.439.657.706.706 0 01-.544 0 .72.72 0 01-.385-.385.706.706 0 010-.544.72.72 0 01.385-.385.707.707 0 01.545 0 .72.72 0 01.385.385.724.724 0 01.053.272z"/><path fill="#E59623" d="M186.172 138.045a.706.706 0 01-.439.657.706.706 0 01-.544 0 .72.72 0 01-.385-.385.706.706 0 010-.544.72.72 0 01.385-.385.706.706 0 01.544 0 .72.72 0 01.385.385.706.706 0 01.054.272z"/><path fill="#E59623" d="M185.935 137.604h.237v.472h-.237v-.472zm-1.187 0h.237v.472h-.237v-.472z"/><path fill="#FFB031" d="M186.174 137.605a.706.706 0 01-.439.657.706.706 0 01-.544 0 .72.72 0 01-.385-.385.706.706 0 010-.544.72.72 0 01.385-.385.707.707 0 01.545 0 .72.72 0 01.385.385.724.724 0 01.053.272z"/><path fill="#D6566E" d="M186.172 135.747a.706.706 0 01-.439.657.706.706 0 01-.544 0 .72.72 0 01-.385-.385.706.706 0 010-.544.72.72 0 01.385-.385.706.706 0 01.544 0 .72.72 0 01.385.385.706.706 0 01.054.272z"/><path fill="#D6566E" d="M185.935 135.306h.237v.472h-.237v-.472zm-1.187 0h.237v.472h-.237v-.472z"/><path fill="#FF7182" d="M186.174 135.307a.706.706 0 01-.439.657.706.706 0 01-.544 0 .72.72 0 01-.385-.385.706.706 0 010-.545.72.72 0 01.385-.385.707.707 0 01.545 0 .72.72 0 01.385.385.733.733 0 01.053.273z"/><path fill="#57DD50" d="M186.172 140.344a.706.706 0 01-.439.657.706.706 0 01-.544 0 .72.72 0 01-.385-.385.706.706 0 010-.545.72.72 0 01.385-.385.706.706 0 01.544 0 .72.72 0 01.385.385.714.714 0 01.054.273z"/><path fill="#57DD50" d="M185.935 139.902h.237v.472h-.237v-.472zm-1.187 0h.237v.472h-.237v-.472z"/><path fill="#68F964" d="M186.174 139.903a.706.706 0 01-.439.657.706.706 0 01-.544 0 .72.72 0 01-.385-.385.706.706 0 010-.544.72.72 0 01.385-.385.707.707 0 01.545 0 .72.72 0 01.385.385.724.724 0 01.053.272z"/><path fill="#3D3D3D" d="M184.743 143.261h1.436v2.298h-1.436z"/><path fill="#515151" d="M189.989 150.993v-8.881c0-.158.129-.287.287-.287h.138c.158 0 .287.129.287.287v8.881c0 .079-.028.147-.084.203s-.124.084-.203.084h-.138c-.079 0-.147-.028-.203-.084s-.084-.124-.084-.203zm-5.246-8.019h1.436v2.298h-1.436v-2.298z"/><path fill="#3D3D3D" d="M190.211 150.975v-8.844c0-.089.045-.134.134-.134s.134.045.134.134v8.844c0 .089-.045.134-.134.134-.09 0-.134-.045-.134-.134z"/><path fill="#5EBCB5" d="M191.056 133.736a.706.706 0 01-.439.657.706.706 0 01-.544 0 .72.72 0 01-.385-.385.706.706 0 010-.544.72.72 0 01.385-.385.706.706 0 01.544 0 .72.72 0 01.385.385.706.706 0 01.054.272z"/><path fill="#5EBCB5" d="M190.819 133.295h.237v.472h-.237v-.472zm-1.187 0h.237v.472h-.237v-.472z"/><path fill="#6DE2DE" d="M191.058 133.296a.706.706 0 01-.439.657.706.706 0 01-.545 0 .72.72 0 01-.385-.385.706.706 0 010-.544.72.72 0 01.385-.385.707.707 0 01.545 0 .72.72 0 01.385.385.706.706 0 01.054.272z"/><path fill="#E59623" d="M191.056 138.045a.706.706 0 01-.439.657.706.706 0 01-.544 0 .72.72 0 01-.385-.385.706.706 0 010-.544.72.72 0 01.385-.385.706.706 0 01.544 0 .72.72 0 01.385.385.706.706 0 01.054.272z"/><path fill="#E59623" d="M190.819 137.604h.237v.472h-.237v-.472zm-1.187 0h.237v.472h-.237v-.472z"/><path fill="#FFB031" d="M191.058 137.605a.706.706 0 01-.439.657.706.706 0 01-.545 0 .72.72 0 01-.385-.385.706.706 0 010-.544.72.72 0 01.385-.385.707.707 0 01.545 0 .72.72 0 01.385.385.706.706 0 01.054.272z"/><path fill="#D6566E" d="M191.056 135.747a.706.706 0 01-.439.657.706.706 0 01-.544 0 .72.72 0 01-.385-.385.706.706 0 010-.544.72.72 0 01.385-.385.706.706 0 01.544 0 .72.72 0 01.385.385.706.706 0 01.054.272z"/><path fill="#D6566E" d="M190.819 135.306h.237v.472h-.237v-.472zm-1.187 0h.237v.472h-.237v-.472z"/><path fill="#FF7182" d="M191.058 135.307a.706.706 0 01-.439.657.706.706 0 01-.545 0 .72.72 0 01-.385-.385.706.706 0 010-.545.72.72 0 01.385-.385.707.707 0 01.545 0 .72.72 0 01.385.385.714.714 0 01.054.273z"/><path fill="#57DD50" d="M191.056 140.344a.706.706 0 01-.439.657.706.706 0 01-.544 0 .72.72 0 01-.385-.385.706.706 0 010-.545.72.72 0 01.385-.385.706.706 0 01.544 0 .72.72 0 01.385.385.714.714 0 01.054.273z"/><path fill="#57DD50" d="M190.819 139.902h.237v.472h-.237v-.472zm-1.187 0h.237v.472h-.237v-.472z"/><path fill="#68F964" d="M191.058 139.903a.706.706 0 01-.439.657.706.706 0 01-.545 0 .72.72 0 01-.385-.385.706.706 0 010-.544.72.72 0 01.385-.385.707.707 0 01.545 0 .72.72 0 01.385.385.706.706 0 01.054.272z"/><path fill="#3D3D3D" d="M189.627 143.261h1.436v2.298h-1.436z"/><path fill="#515151" d="M198.857 150.993v-8.881c0-.158.129-.287.287-.287h.138c.158 0 .287.129.287.287v8.881c0 .079-.028.147-.084.203s-.123.084-.203.084h-.138c-.079 0-.147-.028-.203-.084s-.084-.124-.084-.203zm-9.23-8.019h1.436v2.298h-1.436v-2.298z"/><path fill="#3D3D3D" d="M199.08 150.975v-8.844c0-.089.045-.134.134-.134s.134.045.134.134v8.844c0 .089-.045.134-.134.134-.09 0-.134-.045-.134-.134z"/><path fill="#3D3D3D" d="M198.495 143.261h1.436v2.298h-1.436z"/><path fill="#515151" d="M198.495 142.974h1.436v2.298h-1.436z"/><path fill="#3D3D3D" d="M179.859 143.261h1.436v2.298h-1.436z"/><path fill="#515151" d="M180.221 150.993v-8.881c0-.158.129-.287.287-.287h.138c.158 0 .287.129.287.287v8.881c0 .079-.028.147-.084.203s-.124.084-.203.084h-.138c-.079 0-.147-.028-.203-.084s-.084-.124-.084-.203z"/><path fill="#3D3D3D" d="M180.444 150.975v-8.844c0-.089.045-.134.134-.134s.134.045.134.134v8.844c0 .089-.045.134-.134.134-.09 0-.134-.045-.134-.134z"/><path fill="#5EBCB5" d="M181.288 133.736a.706.706 0 01-.439.657.706.706 0 01-.545 0 .72.72 0 01-.385-.385.706.706 0 010-.544.72.72 0 01.385-.385.707.707 0 01.545 0 .72.72 0 01.385.385.706.706 0 01.054.272z"/><path fill="#5EBCB5" d="M181.051 133.295h.237v.472h-.237v-.472zm-1.187 0h.237v.472h-.237v-.472z"/><path fill="#6DE2DE" d="M181.29 133.296a.706.706 0 01-.439.657.706.706 0 01-.544 0 .72.72 0 01-.385-.385.706.706 0 010-.544.72.72 0 01.385-.385.706.706 0 01.544 0 .72.72 0 01.385.385.706.706 0 01.054.272z"/><path fill="#E59623" d="M181.288 138.045a.706.706 0 01-.439.657.706.706 0 01-.545 0 .72.72 0 01-.385-.385.706.706 0 010-.544.72.72 0 01.385-.385.707.707 0 01.545 0 .72.72 0 01.385.385.706.706 0 01.054.272z"/><path fill="#E59623" d="M181.051 137.604h.237v.472h-.237v-.472zm-1.187 0h.237v.472h-.237v-.472z"/><path fill="#FFB031" d="M181.29 137.605a.706.706 0 01-.439.657.706.706 0 01-.544 0 .72.72 0 01-.385-.385.706.706 0 010-.544.72.72 0 01.385-.385.706.706 0 01.544 0 .72.72 0 01.385.385.706.706 0 01.054.272z"/><path fill="#D6566E" d="M181.288 135.747a.706.706 0 01-.439.657.706.706 0 01-.545 0 .72.72 0 01-.385-.385.706.706 0 010-.544.72.72 0 01.385-.385.707.707 0 01.545 0 .72.72 0 01.385.385.706.706 0 01.054.272z"/><path fill="#D6566E" d="M181.051 135.306h.237v.472h-.237v-.472zm-1.187 0h.237v.472h-.237v-.472z"/><path fill="#FF7182" d="M181.29 135.307a.706.706 0 01-.439.657.706.706 0 01-.544 0 .72.72 0 01-.385-.385.706.706 0 010-.545.72.72 0 01.385-.385.706.706 0 01.544 0 .72.72 0 01.385.385.714.714 0 01.054.273z"/><path fill="#57DD50" d="M181.288 140.344a.706.706 0 01-.439.657.706.706 0 01-.545 0 .72.72 0 01-.385-.385.706.706 0 010-.545.72.72 0 01.385-.385.707.707 0 01.545 0 .72.72 0 01.385.385.714.714 0 01.054.273z"/><path fill="#57DD50" d="M181.051 139.902h.237v.472h-.237v-.472zm-1.187 0h.237v.472h-.237v-.472z"/><path fill="#68F964" d="M181.29 139.903a.706.706 0 01-.439.657.706.706 0 01-.544 0 .72.72 0 01-.385-.385.706.706 0 010-.544.72.72 0 01.385-.385.706.706 0 01.544 0 .72.72 0 01.385.385.706.706 0 01.054.272z"/><path fill="#515151" d="M179.859 142.974h1.436v2.298h-1.436z"/><path fill="#3D3D3D" d="M199.915 128.035h-5.159a.47.47 0 01-.343-.142.467.467 0 01-.142-.343v-3.914c0-.267.218-.485.485-.485h5.159c.267 0 .485.218.485.485v3.914a.47.47 0 01-.142.343.47.47 0 01-.343.142z"/></svg>