<svg xmlns="http://www.w3.org/2000/svg" version="1.0" viewBox="0 0 300 300"><path fill="#FFF" d="M256.06 43.936a150.141 150.141 0 0114.415 16.71 149.627 149.627 0 0111.807 18.644 149.746 149.746 0 016.294 13.307 150.529 150.529 0 014.96 13.86 149.524 149.524 0 015.737 28.839 149.808 149.808 0 01-2.159 43.964 150.82 150.82 0 01-3.577 14.28 149.15 149.15 0 01-7.942 20.59 150.564 150.564 0 01-6.939 12.982 149.407 149.407 0 01-8.178 12.239 149.917 149.917 0 01-49.769 42.933 149.746 149.746 0 01-13.307 6.294 150.529 150.529 0 01-13.86 4.96 149.539 149.539 0 01-28.839 5.737 149.808 149.808 0 01-43.964-2.159 150.82 150.82 0 01-14.28-3.577 149.15 149.15 0 01-20.59-7.942 150.564 150.564 0 01-12.982-6.939 149.407 149.407 0 01-12.239-8.178 149.64 149.64 0 01-21.787-19.746 150.93 150.93 0 01-9.339-11.379 149.627 149.627 0 01-11.807-18.644 149.746 149.746 0 01-6.294-13.307 150.529 150.529 0 01-4.96-13.86 149.539 149.539 0 01-5.737-28.839 149.808 149.808 0 012.159-43.963 150.82 150.82 0 013.577-14.28 149.15 149.15 0 017.942-20.59 150.564 150.564 0 016.939-12.982 149.407 149.407 0 018.178-12.239 149.917 149.917 0 0149.769-42.933 149.746 149.746 0 0113.307-6.294 150.529 150.529 0 0113.86-4.96A149.524 149.524 0 01135.294.727a149.07 149.07 0 0122.06-.542 149.93 149.93 0 0136.182 6.278 149.83 149.83 0 0145.811 23.059 149.123 149.123 0 0111.379 9.338 147.74 147.74 0 015.334 5.076z"/><path fill="#EB595B" d="M290.809 150.001a140.354 140.354 0 01-.766 14.66 140.451 140.451 0 01-2.288 14.502 141.178 141.178 0 01-3.786 14.185 141.022 141.022 0 01-8.392 20.346 140.95 140.95 0 01-11.459 18.79 141.535 141.535 0 01-9.208 11.434 141.204 141.204 0 01-10.348 10.414 141.19 141.19 0 01-10.682 8.766 141.327 141.327 0 01-11.49 7.678 139.97 139.97 0 01-38.175 15.812 141.012 141.012 0 01-20.411 3.542 140.865 140.865 0 01-80.177-15.948 140.412 140.412 0 01-17.503-11.085 141.587 141.587 0 01-10.682-8.766 140.208 140.208 0 01-22.517-26.104 141.688 141.688 0 01-7.105-11.852 140.239 140.239 0 01-12.406-32.162 141.012 141.012 0 01-3.542-20.411A140.865 140.865 0 0125.82 83.625a140.412 140.412 0 0111.085-17.503 141.587 141.587 0 018.766-10.682 140.176 140.176 0 0126.104-22.517 141.167 141.167 0 0111.853-7.105 140.239 140.239 0 0132.162-12.406 141.012 141.012 0 0120.411-3.542 140.865 140.865 0 0180.177 15.948 139.77 139.77 0 0111.852 7.105 140.3 140.3 0 0111.1 8.232 141.21 141.21 0 0110.239 9.28 140.19 140.19 0 0121.209 27.177 140.984 140.984 0 019.315 18.504 140.379 140.379 0 016.498 19.671 141.012 141.012 0 013.542 20.411c.45 4.58.676 9.181.676 13.803z"/><path fill="#FFF" d="M191.811 196.453h.287c-12.156.06-9.015-10.977-9.015-10.977h-7.968v-6.557h-31.044c-3.247-5.184-9.137-8.542-15.785-8.177-5.64.31-1.611 4.986-1.411 10.631.353 9.967-5.67 17.062 2.75 17.062l64.975 7.187v-6.379a2.782 2.782 0 00-.817-1.973 2.769 2.769 0 00-1.972-.817c.001 0 0 0 0 0z"/><path fill="#EB595B" d="M163.249 182.439a8.742 8.742 0 01-1.044 4.169 8.743 8.743 0 01-2.886 3.184 8.73 8.73 0 01-2.346 1.109 9.027 9.027 0 01-1.7.338 8.88 8.88 0 01-5.037-1.001 8.743 8.743 0 01-3.184-2.886 8.73 8.73 0 01-1.109-2.346 9.037 9.037 0 01-.338-1.701 8.88 8.88 0 011.001-5.037 8.735 8.735 0 012.886-3.184 8.73 8.73 0 012.346-1.109 9.037 9.037 0 011.701-.338 8.97 8.97 0 011.734 0 8.779 8.779 0 013.302 1.001 8.743 8.743 0 013.184 2.886 8.73 8.73 0 011.109 2.346 9.037 9.037 0 01.381 2.569z"/><path fill="#E2E2E2" d="M194.919 198.228c-.004-.981-.664-1.762-1.454-1.762H141.86c-2.866.07-5.218-.101-7.142-.454-7.098-2.241-4.782-10.409-4.782-10.409h-2.798c.661-2.557-1.089-5.768-1.089-5.768-1.436 1.505-2.626 3.52-3.524 5.768h-.557l-1.793-1.07s-4.645 19.274 11.955 21.215h62.786v-7.487c.003-.01.003-.022.003-.033z"/><path fill="#BFBFBF" d="M197.483 185.903H96.243c-8.024 0-14.528-6.504-14.528-14.528v-56.457c0-8.024 6.504-14.528 14.528-14.528h101.241c8.024 0 14.528 6.504 14.528 14.528v56.457c-.001 8.024-6.505 14.528-14.529 14.528z"/><path fill="#A8A8A8" d="M212.011 164.825H81.715v-61.417c0-5.057 8.456-9.156 13.513-9.156h107.627a9.236 9.236 0 011.786.176 9.3 9.3 0 011.718.521 9.289 9.289 0 011.583.846 9.07 9.07 0 012.526 2.526 9.2 9.2 0 011.499 4.19c.029.298.044.598.044.897v61.417z"/><path fill="#EFEFEF" d="M206.207 185.903h-106.14c-6.67 0-12.078-5.407-12.078-12.078v-61.357c0-6.67 5.407-12.078 12.078-12.078h106.141c6.67 0 12.078 5.407 12.078 12.078v61.357c-.001 6.671-5.409 12.078-12.079 12.078z"/><path fill="#3D3D3D" d="M218.285 164.825H87.989v-63.783c0-3.75 3.04-6.791 6.791-6.791h116.714c3.75 0 6.791 3.04 6.791 6.791v63.783z"/><path fill="#3D3D3D" d="M211.331 164.825H95.554v-58.209a6.137 6.137 0 011.049-3.458 6.13 6.13 0 011.717-1.717 6.113 6.113 0 012.243-.929c.401-.08.805-.12 1.214-.12h103.33a6.24 6.24 0 014.401 1.823 6.236 6.236 0 011.823 4.4v58.21z"/><path fill="#ECF0F1" d="M99.145 104.441h110.521v58.714H99.145z"/><path fill="#9B9B9B" d="M99.145 104.424h110.521v4.251H99.145z"/><path fill="#68F964" d="M108.793 106.483c.001.294-.102.545-.311.752a1.014 1.014 0 01-.752.311 1.014 1.014 0 01-.752-.311 1.014 1.014 0 01-.311-.752 1.014 1.014 0 01.311-.752c.207-.209.458-.312.752-.311.294-.001.545.102.752.311.209.208.313.458.311.752z"/><path fill="#FFB031" d="M105.58 106.483c.001.294-.102.545-.311.752a1.014 1.014 0 01-.752.311 1.014 1.014 0 01-.752-.311 1.014 1.014 0 01-.311-.752 1.014 1.014 0 01.311-.752c.207-.209.458-.312.752-.311.294-.001.545.102.752.311.209.208.313.458.311.752z"/><path fill="#D6566E" d="M102.604 106.483c.001.294-.102.545-.311.752a1.014 1.014 0 01-.752.311 1.014 1.014 0 01-.752-.311 1.014 1.014 0 01-.311-.752 1.014 1.014 0 01.311-.752c.207-.209.458-.312.752-.311.294-.001.545.102.752.311.208.208.312.458.311.752z"/><path fill="#EB595B" d="M148.179 141.037c2.76 0 2.722 3.738 6.277 3.738 2.504 0 4.028-1.633 4.028-4.391 0-2.504-1.488-4.028-3.811-4.028-2.237 0-3.198 1.379-5.08 1.379-2.141 0-3.882-1.597-3.882-3.882 0-.254.037-.544.073-.762l1.633-8.491c.35-1.817 1.487-2.758 3.338-2.758h10.45c1.561 0 2.831 1.27 2.831 2.867 0 1.56-1.271 2.83-2.831 2.83h-8.817l-1.052 5.661h.072c1.451-1.27 2.939-1.669 5.008-1.669 5.08 0 8.636 3.048 8.636 8.745 0 5.769-4.281 9.507-10.414 9.507-4.645 0-7.511-1.524-9.071-3.919-.327-.508-.472-1.088-.472-1.742a3.082 3.082 0 013.084-3.085z"/><circle cx="122.871" cy="136.548" r="12.387" fill="#9B9B9B"/><circle cx="187.258" cy="136.548" r="12.387" fill="#9B9B9B"/></svg>