<svg version="1" xmlns="http://www.w3.org/2000/svg" viewBox="0 0 300 300"><path fill="#FFF" d="M149.999 300C67.29 300 0 232.71 0 150S67.29 0 149.999 0C232.71 0 300 67.29 300 150s-67.29 150-150.001 150"/><path fill="#5EC2D7" d="M290.812 150c0 77.768-63.044 140.812-140.812 140.812S9.188 227.768 9.188 150 72.232 9.188 150 9.188 290.812 72.231 290.812 150"/><path fill="#E5B36A" d="M159.787 97.544v-2.337l-5.799-19.605h-7.978l-5.798 19.564v2.378c0 .765.14 1.115.614 1.421l1.011.653c.225.146.487.222.755.222h14.816c.268 0 .53-.077.755-.222l1.011-.653c.473-.306.613-.839.613-1.421"/><path fill="#962C2C" d="M157.464 138.566l32.295 81.132v7.929c0 1.306-1.434 1.791-2.834 1.131L150 211.345l-36.925 17.413c-1.4.66-2.834-.27-2.834-1.547v-7.609l32.295-81.035c2.492-5.963 12.435-5.963 14.928-.001z"/><path fill="#B53E3E" d="M157.464 130.636l32.235 88.743c.411 1.177-1.374 2.108-2.774 1.448L150 203.415l-36.925 17.413c-1.4.66-3.185-.272-2.774-1.448l32.235-88.743c2.492-5.962 12.435-5.962 14.928-.001z"/><path fill="#FFEEF0" d="M177.192 201.241l-22.126-9.086-5.07-10.64h-19.969a.851.851 0 0 1-.8-1.141l13.312-36.649c2.495-5.965 12.432-5.965 14.927 0l20.591 56.687a.655.655 0 0 1-.865.829z"/><path fill="#DBC8CC" d="M156.516 159.091h-13.028a.492.492 0 0 1-.492-.491v-7.234c0-.272.22-.492.492-.492h13.028c.271 0 .492.22.492.492v7.234c0 .271-.22.491-.492.491z"/><path fill="#F2DADE" d="M156.516 157.949h-13.028a.491.491 0 0 1-.492-.491v-7.234c0-.272.22-.492.492-.492h13.028c.271 0 .492.22.492.492v7.234a.49.49 0 0 1-.492.491z"/><path fill="#DBC8CC" d="M155.019 166.968h-10.037a1.479 1.479 0 0 1-1.479-1.478v-.883h12.994v.883c0 .816-.662 1.478-1.478 1.478z"/><path fill="#F2DADE" d="M155.019 166.086h-10.037a1.479 1.479 0 0 1 0-2.957h10.037a1.479 1.479 0 1 1 0 2.957z"/><path fill="#DBC8CC" d="M157.039 184.614H142.96a2.074 2.074 0 0 1-2.074-2.074v-1.238h18.227v1.238a2.073 2.073 0 0 1-2.074 2.074z"/><path fill="#F2DADE" d="M157.039 183.375H142.96a2.074 2.074 0 1 1 0-4.148h14.079a2.075 2.075 0 0 1 0 4.148z"/><path fill="#FFCD7D" d="M159.787 94.031l-5.59-21.982a1.46 1.46 0 0 0-1.415-1.1h-5.565a1.46 1.46 0 0 0-1.415 1.1l-5.59 21.982a1.39 1.39 0 0 0 .614 1.42l1.011.653c.225.145.487.223.755.223h14.816c.268 0 .53-.078.755-.223l1.011-.653a1.39 1.39 0 0 0 .613-1.42zm-5.516 5.115v54.318c0 .529-.194.947-.439.947h-7.66c-.245 0-.439-.418-.439-.947V99.146c0-.515.194-.947.439-.947h7.66c.246 0 .439.432.439.947"/><path fill="#C69F61" d="M153.832 98.199h-7.66c-.245 0-.439.432-.439.947v1.604h8.538v-1.604c0-.515-.193-.947-.439-.947"/><path fill="#3F3F3F" d="M150.003 182.171a.656.656 0 0 1-.656-.656v-97.25a.656.656 0 1 1 1.312 0v97.249a.657.657 0 0 1-.656.657z"/><circle fill="#F2DADE" cx="165.105" cy="181.924" r="2.996"/><path fill="#4F4F4F" d="M167.494 181.313v.611a2.39 2.39 0 0 1-4.778 0v-.611c0-.469.133-.905.369-1.274h.558a2.37 2.37 0 0 1 2.924 0h.557c.236.369.37.805.37 1.274z"/><path fill="#686868" d="M167.494 181.313a2.39 2.39 0 1 1-2.39-2.389c.85 0 1.599.446 2.019 1.115.237.369.371.805.371 1.274z"/><circle fill="#F2DADE" cx="162.109" cy="173.694" r="2.996"/><path fill="#4F4F4F" d="M164.498 173.083v.611a2.39 2.39 0 0 1-4.778 0v-.611c0-.469.133-.905.369-1.274h.558a2.358 2.358 0 0 1 1.462-.504c.551 0 1.058.187 1.462.504h.558c.235.369.369.805.369 1.274z"/><path fill="#686868" d="M164.498 173.083a2.39 2.39 0 1 1-4.779-.003 2.39 2.39 0 0 1 4.779.003z"/><circle fill="#F2DADE" cx="168.101" cy="190.152" r="2.996"/><path fill="#4F4F4F" d="M170.49 189.541v.611a2.39 2.39 0 0 1-4.778 0v-.611c0-.468.134-.905.37-1.274h.558a2.37 2.37 0 0 1 2.924 0h.557c.235.369.369.806.369 1.274z"/><path fill="#686868" d="M170.49 189.541a2.39 2.39 0 0 1-4.778 0c0-.468.134-.905.37-1.274a2.383 2.383 0 0 1 4.038 0c.236.369.37.806.37 1.274z"/></svg>