<?xml version="1.0" encoding="utf-8"?>
<!-- Generator: Adobe Illustrator 23.0.6, SVG Export Plug-In . SVG Version: 6.00 Build 0)  -->
<svg version="1.0" id="Camada_1" xmlns="http://www.w3.org/2000/svg" xmlns:xlink="http://www.w3.org/1999/xlink" x="0px" y="0px"
	 viewBox="0 0 300 300" enable-background="new 0 0 300 300" xml:space="preserve">
<circle fill="#FFFFFF" cx="150" cy="150" r="149.957"/>
<circle fill="#EB595B" cx="150" cy="150" r="140.772"/>
<g>
	<path fill="#FFFBF3" d="M199.653,214.52l5.496-1.197v-4.432l-2.899-2.175l2.899-5.961v-37.712l-0.92-0.711l-0.676-3.652
		l-2.316-3.23l3.911-3.929v-14.847l-0.92-2.846l0.92-7.111v-10.232l-1.357-4.76l1.357-16.085V85.211
		c0-1.451-1.176-2.626-2.626-2.626h-21.546l-7.55,4.027l-3.144-2.747l-8.994-1.28h-24.785l-15.107,2.222l-6.568-2.222H97.477
		c-1.45,0-2.626,1.176-2.626,2.626v7.475l0.941,13.459l-0.941,6.073v16.413l3.074,3.283l-3.074,11.326v12.873l3.238,4.853
		l-3.238,3.119v15.663l1.816,16.014l-1.816,12.474v9.595c0,1.45,1.176,2.626,2.626,2.626l18.013-0.007l5.851-3.188l2.914,1.913
		l13.65,0.072l3.283-1.067l-0.261,1.544l1.04,0.718l59.691-0.023l-1.478-2.336l0.578-1.4L199.653,214.52z"/>
	<g>
		<g>
			
				<line fill="none" stroke="#DDD6CA" stroke-width="3.9392" stroke-linecap="round" stroke-miterlimit="10" x1="104.094" y1="200.756" x2="195.918" y2="200.756"/>
			
				<line fill="none" stroke="#DDD6CA" stroke-width="3.9392" stroke-linecap="round" stroke-miterlimit="10" x1="104.094" y1="167.929" x2="195.918" y2="167.929"/>
		</g>
		
			<line fill="none" stroke="#DDD6CA" stroke-width="3.9392" stroke-linecap="round" stroke-miterlimit="10" x1="104.094" y1="135.103" x2="195.918" y2="135.103"/>
		
			<line fill="none" stroke="#DDD6CA" stroke-width="3.9392" stroke-linecap="round" stroke-miterlimit="10" x1="104.094" y1="102.276" x2="195.918" y2="102.276"/>
		<g>
			
				<line fill="none" stroke="#DDD6CA" stroke-width="1.3131" stroke-linecap="round" stroke-miterlimit="10" x1="104.094" y1="114.094" x2="195.918" y2="114.094"/>
			
				<line fill="none" stroke="#DDD6CA" stroke-width="1.3131" stroke-linecap="round" stroke-miterlimit="10" x1="104.094" y1="123.285" x2="195.918" y2="123.285"/>
		</g>
		<g>
			
				<line fill="none" stroke="#DDD6CA" stroke-width="1.3131" stroke-linecap="round" stroke-miterlimit="10" x1="104.094" y1="146.92" x2="195.918" y2="146.92"/>
			
				<line fill="none" stroke="#DDD6CA" stroke-width="1.3131" stroke-linecap="round" stroke-miterlimit="10" x1="104.094" y1="156.112" x2="195.918" y2="156.112"/>
		</g>
		<g>
			
				<line fill="none" stroke="#DDD6CA" stroke-width="1.3131" stroke-linecap="round" stroke-miterlimit="10" x1="104.094" y1="179.747" x2="195.918" y2="179.747"/>
			
				<line fill="none" stroke="#DDD6CA" stroke-width="1.3131" stroke-linecap="round" stroke-miterlimit="10" x1="104.094" y1="188.939" x2="195.918" y2="188.939"/>
		</g>
	</g>
</g>
<path fill="#86BF5A" d="M0,0"/>
<path fill="#F2A12C" d="M129.797,130.594l7.262,0.727l-7.225,72.178l-7.262-0.727L129.797,130.594L129.797,130.594z"/>
<path fill="#E59623" d="M141.389,118.496l7.293,0.29l-3.486,87.968l-7.293-0.289C137.903,206.465,141.389,118.496,141.389,118.496z"
	/>
<path fill="#FFCE54" d="M158.831,129.9c0,0-13.414,42.292-7.286,78.292c0,0-1.915,14.936-6.894,0s8.043-150.894,8.043-150.894
	s-9.191-9.957-18,0s-18.766,6.879-18.766,6.879v5.376c0,0,15.319,8.3,26.043-6.957l-17.938,153.057
	c-1.474,12.58,5.368,24.888,17.095,29.676c5.882,2.401,12.751,2.837,20.004-1.448c8.843-5.224,13.839-15.115,13.414-25.376
	c-0.825-19.96-0.812-60.781,22.269-62.738"/>
<ellipse transform="matrix(0.5714 -0.8207 0.8207 0.5714 -40.713 207.2995)" fill="#E59623" cx="178.11" cy="142.628" rx="5.617" ry="23.202"/>
<path fill="#F2A12C" d="M176.892,142.959c4.441,3.092,7.35,6.852,6.575,7.964s-4.939-0.845-9.379-3.937
	c-4.441-3.092-8.39-7.097-7.615-8.209C167.247,137.665,172.451,139.868,176.892,142.959L176.892,142.959z"/>
<circle fill="#F2A12C" cx="144.119" cy="134.916" r="4.539"/>
<circle fill="#F2A12C" cx="146.342" cy="119.406" r="4.539"/>
<circle fill="#F2A12C" cx="142.257" cy="150.614" r="4.539"/>
<circle fill="#F2A12C" cx="142.257" cy="165.894" r="4.539"/>
<circle fill="#F2A12C" cx="141.013" cy="183.496" r="4.539"/>
<circle fill="#F2A12C" cx="141.053" cy="198.199" r="4.539"/>
<ellipse fill="#F2A12C" cx="139.826" cy="80.887" rx="2.431" ry="1.632"/>
<path fill="#5E5E5E" d="M102.966,63.678l8.748,0.811l-0.384,4.15l-8.749-0.81L102.966,63.678z"/>
<path fill="#3D3D3D" d="M106.984,64.05l8.748,0.811l-0.384,4.15l-8.749-0.81L106.984,64.05z"/>
<path fill="#5E5E5E" d="M108.626,62.876l8.748,0.81l-0.652,7.037l-8.749-0.81C107.973,69.913,108.626,62.876,108.626,62.876z"/>
<circle fill="#F2A12C" cx="154.802" cy="191.107" r="6.503"/>
<circle fill="#F2A12C" cx="155.1" cy="172.744" r="6.503"/>
<path fill="#F2A12C" d="M0,0"/>
<path fill="#F2A12C" d="M0,0"/>
</svg>
