<svg xmlns="http://www.w3.org/2000/svg" version="1.0" viewBox="0 0 300 300"><circle cx="150" cy="150" r="149.957" fill="#FFF"/><circle cx="150" cy="150" r="140.772" fill="#EB595B"/><path fill="#FFFBF3" d="M199.653 214.52l5.496-1.197v-4.432l-2.899-2.175 2.899-5.961v-37.712l-.92-.711-.676-3.652-2.316-3.23 3.911-3.929v-14.847l-.92-2.846.92-7.111v-10.232l-1.357-4.76 1.357-16.085V85.211a2.626 2.626 0 00-2.626-2.626h-21.546l-7.55 4.027-3.144-2.747-8.994-1.28h-24.785l-15.107 2.222-6.568-2.222H97.477a2.626 2.626 0 00-2.626 2.626v7.475l.941 13.459-.941 6.073v16.413l3.074 3.283-3.074 11.326v12.873l3.238 4.853-3.238 3.119v15.663l1.816 16.014-1.816 12.474v9.595a2.626 2.626 0 002.626 2.626l18.013-.007 5.851-3.188 2.914 1.913 13.65.072 3.283-1.067-.261 1.544 1.04.718 59.691-.023-1.478-2.336.578-1.4-1.105-2.163z"/><g fill="none" stroke="#DDD6CA" stroke-linecap="round" stroke-miterlimit="10"><path stroke-width="3.939" d="M104.094 200.756h91.824m-91.824-32.827h91.824m-91.824-32.826h91.824m-91.824-32.827h91.824"/><path stroke-width="1.313" d="M104.094 114.094h91.824m-91.824 9.191h91.824m-91.824 23.635h91.824m-91.824 9.192h91.824m-91.824 23.635h91.824m-91.824 9.192h91.824"/></g><path fill="#F2A12C" d="M129.797 130.594l7.262.727-7.225 72.178-7.262-.727 7.225-72.178z"/><path fill="#E59623" d="M141.389 118.496l7.293.29-3.486 87.968-7.293-.289 3.486-87.969z"/><path fill="#FFCE54" d="M158.831 129.9s-13.414 42.292-7.286 78.292c0 0-1.915 14.936-6.894 0s8.043-150.894 8.043-150.894-9.191-9.957-18 0-18.766 6.879-18.766 6.879v5.376s15.319 8.3 26.043-6.957l-17.938 153.057c-1.474 12.58 5.368 24.888 17.095 29.676 5.882 2.401 12.751 2.837 20.004-1.448 8.843-5.224 13.839-15.115 13.414-25.376-.825-19.96-.812-60.781 22.269-62.738"/><ellipse cx="178.11" cy="142.628" fill="#E59623" rx="5.617" ry="23.202" transform="rotate(-55.152 178.106 142.621)"/><path fill="#F2A12C" d="M176.892 142.959c4.441 3.092 7.35 6.852 6.575 7.964s-4.939-.845-9.379-3.937c-4.441-3.092-8.39-7.097-7.615-8.209.774-1.112 5.978 1.091 10.419 4.182z"/><circle cx="144.119" cy="134.916" r="4.539" fill="#F2A12C"/><circle cx="146.342" cy="119.406" r="4.539" fill="#F2A12C"/><circle cx="142.257" cy="150.614" r="4.539" fill="#F2A12C"/><circle cx="142.257" cy="165.894" r="4.539" fill="#F2A12C"/><circle cx="141.013" cy="183.496" r="4.539" fill="#F2A12C"/><circle cx="141.053" cy="198.199" r="4.539" fill="#F2A12C"/><ellipse cx="139.826" cy="80.887" fill="#F2A12C" rx="2.431" ry="1.632"/><path fill="#5E5E5E" d="M102.966 63.678l8.748.811-.384 4.15-8.749-.81.385-4.151z"/><path fill="#3D3D3D" d="M106.984 64.05l8.748.811-.384 4.15-8.749-.81.385-4.151z"/><path fill="#5E5E5E" d="M108.626 62.876l8.748.81-.652 7.037-8.749-.81.653-7.037z"/><circle cx="154.802" cy="191.107" r="6.503" fill="#F2A12C"/><circle cx="155.1" cy="172.744" r="6.503" fill="#F2A12C"/></svg>