<svg xmlns="http://www.w3.org/2000/svg" version="1.0" viewBox="0 0 300 300"><circle cx="150" cy="150" r="149.957" fill="#FFF"/><circle cx="150" cy="150" r="140.772" fill="#86BF5A"/><path fill="#FFFBF3" d="M191.743 202.963l4.621-1.006v-3.726l-2.437-1.829 2.437-5.011v-31.704l-.773-.598-.568-3.07-1.947-2.716 3.288-3.303v-12.482l-.773-2.392.773-5.978v-8.602l-1.141-4.002 1.141-13.523v-8.767c0-1.22-.989-2.208-2.208-2.208h-18.113l-6.347 3.386-2.643-2.31-7.561-1.076h-20.837l-12.7 1.868-5.522-1.868h-14.587a2.208 2.208 0 00-2.208 2.208v6.284l.791 11.315-.791 5.106v13.798l2.585 2.76-2.585 9.521v10.822l2.723 4.08-2.723 2.622v13.168l1.527 13.463-1.527 10.487v8.067c0 1.219.989 2.208 2.208 2.208l15.144-.005 4.919-2.68 2.45 1.608 11.476.06 2.76-.897-.219 1.298.874.603 50.182-.019-1.243-1.964.486-1.177-.932-1.819z"/><g fill="none" stroke="#DDD6CA" stroke-linecap="round" stroke-miterlimit="10"><path stroke-width="3" d="M111.407 191.391h77.196m-77.196-27.597h77.196m-77.196-27.597h77.196M111.407 108.6h77.196"/><path d="M111.407 118.535h77.196m-77.196 7.727h77.196m-77.196 19.87h77.196m-77.196 7.727h77.196m-77.196 19.87h77.196m-77.196 7.727h77.196"/></g><path fill="#F2A12C" d="M129.797 130.594l7.262.727-7.225 72.178-7.262-.727 7.225-72.178z"/><path fill="#E59623" d="M141.389 118.496l7.293.29-3.486 87.968-7.293-.289 3.486-87.969z"/><path fill="#FFCE54" d="M158.831 129.9s-13.414 42.292-7.286 78.292c0 0-1.915 14.936-6.894 0s8.043-150.894 8.043-150.894-9.191-9.957-18 0-18.766 6.879-18.766 6.879v5.376s15.319 8.3 26.043-6.957l-17.938 153.057c-1.474 12.58 5.368 24.888 17.095 29.676 5.882 2.401 12.751 2.837 20.004-1.448 8.843-5.224 13.839-15.115 13.414-25.376-.825-19.96-.812-60.781 22.269-62.738"/><ellipse cx="178.106" cy="142.633" fill="#E59623" rx="5.617" ry="23.202" transform="rotate(-55.152 178.103 142.627)"/><path fill="#F2A12C" d="M176.892 142.959c4.441 3.092 7.35 6.852 6.575 7.964s-4.939-.845-9.379-3.937c-4.441-3.092-8.39-7.097-7.615-8.209.774-1.112 5.978 1.091 10.419 4.182z"/><circle cx="144.119" cy="134.916" r="4.539" fill="#F2A12C"/><circle cx="146.342" cy="119.406" r="4.539" fill="#F2A12C"/><circle cx="142.257" cy="150.614" r="4.539" fill="#F2A12C"/><circle cx="142.257" cy="165.894" r="4.539" fill="#F2A12C"/><circle cx="141.013" cy="183.496" r="4.539" fill="#F2A12C"/><circle cx="141.053" cy="198.199" r="4.539" fill="#F2A12C"/><ellipse cx="139.826" cy="80.887" fill="#F2A12C" rx="2.431" ry="1.632"/><path fill="#5E5E5E" d="M102.966 63.678l8.748.811-.384 4.15-8.749-.81.385-4.151z"/><path fill="#3D3D3D" d="M106.984 64.05l8.748.811-.384 4.15-8.749-.81.385-4.151z"/><path fill="#5E5E5E" d="M108.626 62.876l8.748.81-.652 7.037-8.749-.81.653-7.037z"/><circle cx="154.802" cy="191.107" r="6.503" fill="#F2A12C"/><circle cx="155.1" cy="172.744" r="6.503" fill="#F2A12C"/><path fill="#FFCE54" d="M154.812 193.603a2.01 2.01 0 01-2.144-1.866v-.002l-.494-7.185 4.012-.276.494 7.185a2.01 2.01 0 01-1.867 2.144h-.001zm-1.591-19.352c-.837-.73-.924-2-.195-2.837l4.731-5.429 3.032 2.642-4.731 5.429c-.73.837-2 .924-2.837.195z"/><path fill="#E59623" d="M135.978 123.861l-1.58-.158a2.242 2.242 0 01-2.008-2.454l.316-3.16a2.242 2.242 0 012.454-2.008l1.58.158-.762 7.622zm.833-9.485l-1.58-.158a2.242 2.242 0 01-2.008-2.454l.316-3.16a2.242 2.242 0 012.454-2.008l1.58.158-.762 7.622z"/></svg>