<svg xmlns="http://www.w3.org/2000/svg" version="1.0" viewBox="0 0 300 300"><ellipse cx="149.89" cy="149.868" fill="#FFF" rx="149.917" ry="149.916" transform="rotate(-45.001 149.889 149.87)"/><circle cx="149.892" cy="149.869" r="140.734" fill="#5EC2D7"/><path fill="#F2A12C" d="M135.678 126.798l7.262.727-7.225 72.178-7.262-.727 7.225-72.178z"/><path fill="#E59623" d="M147.27 114.7l7.293.29-3.486 87.968-7.293-.289 3.486-87.969z"/><path fill="#FFCE54" d="M164.712 126.104s-13.414 42.292-7.286 78.292c0 0-1.915 14.936-6.894 0s8.043-150.894 8.043-150.894-9.191-9.957-18 0-18.766 6.879-18.766 6.879v5.376s15.319 8.3 26.043-6.957l-17.938 153.057c-1.474 12.58 5.368 24.888 17.095 29.676 5.882 2.401 12.751 2.837 20.004-1.448 8.843-5.224 13.839-15.115 13.414-25.376-.825-19.96-.812-60.781 22.269-62.738"/><ellipse cx="183.983" cy="138.842" fill="#E59623" rx="5.617" ry="23.202" transform="rotate(-55.152 183.98 138.836)"/><path fill="#F2A12C" d="M182.773 139.163c4.441 3.092 7.35 6.852 6.575 7.964s-4.939-.845-9.379-3.937c-4.441-3.092-8.39-7.097-7.615-8.209.774-1.112 5.978 1.091 10.419 4.182z"/><circle cx="150" cy="131.12" r="4.539" fill="#F2A12C"/><circle cx="152.223" cy="115.61" r="4.539" fill="#F2A12C"/><circle cx="148.138" cy="146.818" r="4.539" fill="#F2A12C"/><circle cx="148.138" cy="162.098" r="4.539" fill="#F2A12C"/><circle cx="146.894" cy="179.7" r="4.539" fill="#F2A12C"/><circle cx="146.934" cy="194.403" r="4.539" fill="#F2A12C"/><ellipse cx="145.707" cy="77.091" fill="#F2A12C" rx="2.431" ry="1.632"/><path fill="#5E5E5E" d="M108.847 59.882l8.748.811-.384 4.15-8.749-.81.385-4.151z"/><path fill="#3D3D3D" d="M112.865 60.254l8.748.811-.384 4.15-8.749-.81.385-4.151z"/><path fill="#5E5E5E" d="M114.507 59.08l8.748.81-.652 7.037-8.749-.81.653-7.037z"/><circle cx="160.683" cy="187.311" r="6.503" fill="#F2A12C"/><circle cx="160.981" cy="168.948" r="6.503" fill="#F2A12C"/><path fill="#FFCE54" d="M160.693 189.807a2.01 2.01 0 0 1-2.144-1.867v-.001l-.494-7.185 4.012-.276.494 7.185a2.01 2.01 0 0 1-1.868 2.144zm-1.591-19.352c-.837-.73-.924-2-.195-2.837l4.731-5.429 3.032 2.642-4.731 5.429c-.73.837-2 .924-2.837.195z"/><path fill="#E59623" d="M141.859 120.065l-1.58-.158a2.242 2.242 0 0 1-2.008-2.454l.316-3.16a2.242 2.242 0 0 1 2.454-2.008l1.58.158-.762 7.622zm.833-9.485l-1.58-.158a2.242 2.242 0 0 1-2.008-2.454l.316-3.16a2.242 2.242 0 0 1 2.454-2.008l1.58.158-.762 7.622z"/></svg>