<?xml version="1.0" encoding="utf-8"?>
<!-- Generator: Adobe Illustrator 23.0.6, SVG Export Plug-In . SVG Version: 6.00 Build 0)  -->
<svg version="1.0" id="Camada_1" xmlns="http://www.w3.org/2000/svg" xmlns:xlink="http://www.w3.org/1999/xlink" x="0px" y="0px"
	 viewBox="0 0 300 300" enable-background="new 0 0 300 300" xml:space="preserve">
<g>
	<path fill="#FFFFFF" d="M300,150c0,2.455-0.06,4.908-0.181,7.36c-0.12,2.452-0.301,4.899-0.542,7.342s-0.541,4.879-0.901,7.307
		c-0.36,2.428-0.78,4.846-1.259,7.254s-1.017,4.802-1.613,7.183s-1.251,4.747-1.964,7.096c-0.713,2.349-1.482,4.679-2.309,6.991
		c-0.827,2.311-1.71,4.601-2.65,6.869c-0.939,2.268-1.934,4.512-2.984,6.731c-1.05,2.219-2.153,4.411-3.31,6.576
		c-1.157,2.165-2.367,4.3-3.629,6.406s-2.575,4.179-3.939,6.22c-1.364,2.041-2.777,4.048-4.239,6.019
		c-1.462,1.972-2.972,3.906-4.53,5.804c-1.557,1.898-3.16,3.756-4.809,5.575s-3.341,3.596-5.077,5.332
		c-1.736,1.736-3.513,3.428-5.332,5.077s-3.677,3.252-5.575,4.809c-1.898,1.557-3.832,3.067-5.804,4.53
		c-1.972,1.462-3.978,2.875-6.019,4.239s-4.115,2.677-6.22,3.939c-2.106,1.262-4.241,2.472-6.406,3.629
		c-2.165,1.157-4.357,2.261-6.576,3.31c-2.219,1.05-4.463,2.044-6.731,2.984c-2.268,0.939-4.558,1.823-6.869,2.65
		s-4.642,1.597-6.991,2.309c-2.349,0.713-4.714,1.367-7.096,1.964c-2.381,0.596-4.776,1.134-7.183,1.613
		c-2.408,0.479-4.826,0.898-7.254,1.259c-2.428,0.36-4.864,0.661-7.307,0.901c-2.443,0.241-4.891,0.421-7.342,0.542
		c-2.452,0.12-4.905,0.181-7.36,0.181s-4.908-0.06-7.36-0.181c-2.452-0.12-4.899-0.301-7.342-0.542s-4.879-0.541-7.307-0.901
		c-2.428-0.36-4.846-0.78-7.254-1.259s-4.802-1.017-7.183-1.613s-4.747-1.251-7.096-1.964c-2.349-0.713-4.679-1.482-6.991-2.309
		c-2.311-0.827-4.601-1.71-6.869-2.65c-2.268-0.939-4.512-1.934-6.731-2.984c-2.219-1.05-4.411-2.153-6.576-3.31
		c-2.165-1.157-4.3-2.367-6.406-3.629s-4.179-2.575-6.22-3.939c-2.041-1.364-4.048-2.777-6.019-4.239
		c-1.972-1.462-3.906-2.972-5.804-4.53c-1.898-1.557-3.756-3.16-5.575-4.809s-3.596-3.341-5.332-5.077s-3.428-3.513-5.077-5.332
		s-3.252-3.677-4.809-5.575c-1.557-1.898-3.067-3.832-4.53-5.804c-1.462-1.972-2.875-3.978-4.239-6.019s-2.677-4.114-3.939-6.22
		s-2.472-4.241-3.629-6.406c-1.157-2.165-2.261-4.357-3.31-6.576c-1.05-2.219-2.044-4.463-2.984-6.731
		c-0.939-2.268-1.823-4.558-2.65-6.869s-1.597-4.642-2.309-6.991c-0.713-2.349-1.367-4.714-1.964-7.096
		c-0.596-2.381-1.134-4.776-1.613-7.183c-0.479-2.408-0.898-4.826-1.259-7.254c-0.36-2.428-0.661-4.864-0.901-7.307
		c-0.241-2.443-0.421-4.891-0.542-7.342C0.06,154.908,0,152.455,0,150s0.06-4.908,0.181-7.36c0.12-2.452,0.301-4.899,0.542-7.342
		s0.541-4.879,0.901-7.307s0.78-4.846,1.259-7.254s1.017-4.802,1.613-7.183s1.251-4.747,1.964-7.096s1.482-4.679,2.309-6.991
		c0.827-2.311,1.71-4.601,2.65-6.869c0.939-2.268,1.934-4.512,2.984-6.731s2.153-4.411,3.31-6.576s2.367-4.3,3.629-6.406
		c1.262-2.106,2.575-4.179,3.939-6.22c1.364-2.041,2.777-4.048,4.239-6.019c1.462-1.972,2.972-3.906,4.53-5.804
		c1.557-1.898,3.16-3.756,4.809-5.575c1.649-1.819,3.341-3.596,5.077-5.332s3.513-3.428,5.332-5.077s3.677-3.252,5.575-4.809
		c1.898-1.557,3.832-3.067,5.804-4.53c1.972-1.462,3.978-2.875,6.019-4.239s4.115-2.677,6.22-3.939s4.241-2.472,6.406-3.629
		s4.357-2.261,6.576-3.31s4.463-2.044,6.731-2.984c2.268-0.939,4.558-1.823,6.869-2.65c2.311-0.827,4.642-1.597,6.991-2.309
		c2.349-0.713,4.714-1.367,7.096-1.964c2.381-0.596,4.776-1.134,7.183-1.613c2.408-0.479,4.826-0.898,7.254-1.259
		c2.428-0.36,4.864-0.661,7.307-0.901c2.443-0.241,4.891-0.421,7.342-0.542C145.092,0.06,147.545,0,150,0s4.908,0.06,7.36,0.181
		c2.452,0.12,4.899,0.301,7.342,0.542s4.879,0.541,7.307,0.901c2.428,0.36,4.846,0.78,7.254,1.259s4.802,1.017,7.183,1.613
		s4.746,1.251,7.096,1.964c2.349,0.713,4.679,1.482,6.991,2.309c2.311,0.827,4.601,1.71,6.869,2.65
		c2.268,0.939,4.512,1.934,6.731,2.984s4.411,2.153,6.576,3.31c2.165,1.157,4.3,2.367,6.406,3.629s4.179,2.575,6.22,3.939
		s4.048,2.777,6.019,4.239c1.972,1.462,3.906,2.972,5.804,4.53c1.898,1.557,3.756,3.16,5.575,4.809
		c1.819,1.649,3.596,3.341,5.332,5.077c1.736,1.736,3.428,3.513,5.077,5.332s3.252,3.677,4.809,5.575
		c1.557,1.898,3.067,3.832,4.53,5.804c1.462,1.972,2.875,3.978,4.239,6.019s2.677,4.115,3.939,6.22
		c1.262,2.106,2.472,4.241,3.629,6.406s2.261,4.357,3.31,6.576c1.05,2.219,2.044,4.463,2.984,6.731
		c0.939,2.268,1.823,4.558,2.65,6.869c0.827,2.311,1.597,4.642,2.309,6.991c0.713,2.349,1.367,4.714,1.964,7.096
		c0.596,2.381,1.134,4.776,1.613,7.183s0.898,4.826,1.259,7.254c0.36,2.428,0.661,4.864,0.901,7.307
		c0.241,2.443,0.421,4.891,0.542,7.342C299.94,145.092,300,147.545,300,150z"/>
	<path fill="#EB595B" d="M290.812,150c0,2.305-0.057,4.608-0.17,6.909c-0.113,2.302-0.283,4.599-0.508,6.893
		c-0.226,2.293-0.508,4.58-0.846,6.859c-0.338,2.28-0.732,4.549-1.182,6.81c-0.45,2.26-0.954,4.508-1.514,6.743
		s-1.174,4.456-1.843,6.661s-1.392,4.393-2.168,6.563s-1.606,4.319-2.487,6.448c-0.882,2.129-1.815,4.235-2.801,6.318
		c-0.985,2.083-2.021,4.141-3.107,6.173s-2.222,4.037-3.407,6.014c-1.185,1.977-2.417,3.923-3.698,5.839
		c-1.28,1.916-2.607,3.8-3.98,5.651c-1.373,1.851-2.79,3.667-4.252,5.449c-1.462,1.781-2.967,3.526-4.514,5.233
		c-1.548,1.708-3.136,3.376-4.766,5.006c-1.63,1.63-3.298,3.218-5.006,4.766s-3.452,3.052-5.233,4.514s-3.598,2.879-5.449,4.252
		c-1.851,1.373-3.735,2.699-5.651,3.98s-3.863,2.513-5.839,3.698s-3.981,2.32-6.014,3.407c-2.032,1.086-4.09,2.122-6.173,3.107
		c-2.083,0.985-4.189,1.919-6.318,2.801s-4.279,1.711-6.448,2.487c-2.17,0.776-4.357,1.499-6.563,2.168
		c-2.205,0.669-4.426,1.283-6.661,1.843s-4.483,1.065-6.743,1.514s-4.53,0.843-6.81,1.182c-2.28,0.338-4.566,0.62-6.859,0.846
		s-4.591,0.395-6.893,0.508s-4.605,0.17-6.909,0.17c-2.305,0-4.608-0.057-6.909-0.17c-2.302-0.113-4.599-0.283-6.893-0.508
		c-2.293-0.226-4.58-0.508-6.859-0.846c-2.28-0.338-4.549-0.732-6.81-1.182c-2.26-0.45-4.508-0.954-6.743-1.514
		c-2.235-0.56-4.456-1.174-6.661-1.843c-2.205-0.669-4.393-1.392-6.563-2.168c-2.17-0.776-4.319-1.605-6.448-2.487
		s-4.235-1.816-6.318-2.801s-4.141-2.021-6.173-3.107s-4.037-2.222-6.014-3.407c-1.977-1.185-3.923-2.417-5.839-3.698
		c-1.916-1.28-3.8-2.607-5.651-3.98c-1.851-1.373-3.667-2.79-5.449-4.252c-1.781-1.462-3.526-2.967-5.233-4.514
		c-1.708-1.548-3.376-3.136-5.006-4.766c-1.63-1.629-3.218-3.298-4.766-5.006s-3.052-3.452-4.514-5.233s-2.879-3.598-4.252-5.449
		c-1.373-1.851-2.699-3.735-3.98-5.651c-1.28-1.916-2.513-3.862-3.698-5.839s-2.32-3.981-3.407-6.014
		c-1.086-2.032-2.122-4.09-3.107-6.173c-0.985-2.083-1.919-4.189-2.801-6.318s-1.711-4.279-2.487-6.448
		c-0.776-2.17-1.499-4.357-2.168-6.563c-0.669-2.205-1.283-4.426-1.843-6.661s-1.065-4.483-1.514-6.743
		c-0.45-2.26-0.843-4.53-1.182-6.81c-0.338-2.28-0.62-4.566-0.846-6.859s-0.395-4.591-0.508-6.893s-0.17-4.605-0.17-6.909
		s0.057-4.608,0.17-6.909c0.113-2.302,0.283-4.599,0.508-6.893c0.226-2.293,0.508-4.58,0.846-6.859
		c0.338-2.28,0.732-4.549,1.182-6.81c0.45-2.26,0.954-4.508,1.514-6.743c0.56-2.235,1.174-4.456,1.843-6.661
		c0.669-2.205,1.392-4.393,2.168-6.563c0.776-2.17,1.605-4.319,2.487-6.448s1.815-4.235,2.801-6.318
		c0.985-2.083,2.021-4.141,3.107-6.173s2.222-4.037,3.407-6.014s2.417-3.923,3.698-5.839c1.28-1.916,2.607-3.8,3.98-5.651
		s2.79-3.667,4.252-5.449c1.462-1.781,2.967-3.526,4.514-5.233c1.548-1.707,3.136-3.376,4.766-5.006s3.298-3.218,5.006-4.766
		s3.452-3.052,5.233-4.514c1.781-1.462,3.598-2.879,5.449-4.252s3.735-2.699,5.651-3.98c1.916-1.28,3.863-2.513,5.839-3.698
		c1.977-1.185,3.981-2.32,6.014-3.407c2.032-1.086,4.09-2.122,6.173-3.107c2.083-0.985,4.189-1.919,6.318-2.801
		s4.279-1.711,6.448-2.487c2.17-0.776,4.357-1.499,6.563-2.168c2.205-0.669,4.426-1.283,6.661-1.843s4.483-1.065,6.743-1.514
		c2.26-0.45,4.53-0.843,6.81-1.182c2.28-0.338,4.566-0.62,6.859-0.846s4.591-0.395,6.893-0.508s4.605-0.17,6.909-0.17
		c2.305,0,4.608,0.057,6.909,0.17s4.599,0.283,6.893,0.508c2.293,0.226,4.58,0.508,6.859,0.846c2.28,0.338,4.549,0.732,6.81,1.182
		c2.26,0.45,4.508,0.954,6.743,1.514s4.456,1.174,6.661,1.843c2.205,0.669,4.393,1.392,6.563,2.168s4.319,1.605,6.448,2.487
		s4.235,1.815,6.318,2.801c2.083,0.985,4.141,2.021,6.173,3.107s4.037,2.222,6.014,3.407s3.923,2.417,5.839,3.698
		c1.916,1.28,3.8,2.607,5.651,3.98s3.667,2.79,5.449,4.252c1.781,1.462,3.526,2.967,5.233,4.514
		c1.708,1.548,3.376,3.136,5.006,4.766c1.63,1.63,3.218,3.298,4.766,5.006s3.052,3.452,4.514,5.233s2.879,3.598,4.252,5.449
		c1.373,1.851,2.699,3.735,3.98,5.651c1.28,1.916,2.513,3.862,3.698,5.839s2.32,3.981,3.407,6.014
		c1.086,2.032,2.122,4.09,3.107,6.173c0.985,2.083,1.919,4.189,2.801,6.318s1.711,4.279,2.487,6.448
		c0.776,2.17,1.499,4.357,2.168,6.563c0.669,2.205,1.283,4.426,1.843,6.661s1.065,4.483,1.514,6.743
		c0.45,2.26,0.843,4.53,1.182,6.81c0.338,2.28,0.62,4.566,0.846,6.859s0.395,4.591,0.508,6.893
		C290.756,145.392,290.812,147.695,290.812,150z"/>
	<g>
		<path fill="#307A84" d="M206.846,128.979h-51.042v1.219c0-0.909-0.735-1.635-1.635-1.635h-8.338c-0.899,0-1.634,0.725-1.634,1.635
			v-1.219H93.154c-1.064,0-1.935,0.871-1.935,1.935v69.043c0,1.054,0.871,1.925,1.925,1.925h51.052v-0.174
			c0,0.261,0.058,0.513,0.174,0.725c0.261,0.542,0.822,0.909,1.46,0.909h8.338c0.9,0,1.635-0.725,1.635-1.635v0.174h51.052
			c1.054,0,1.924-0.871,1.924-1.925v-69.043C208.78,129.85,207.91,128.979,206.846,128.979z"/>
		<path fill="#5EC2D7" d="M144.197,127.417v72.902H93.144c-1.054,0-1.925-0.871-1.925-1.925v-69.043c0-1.064,0.87-1.935,1.935-1.935
			L144.197,127.417L144.197,127.417z"/>
		<path fill="#5EC2D7" d="M155.804,127.417v72.902h51.052c1.054,0,1.925-0.871,1.925-1.925v-69.043c0-1.064-0.87-1.935-1.935-1.935
			L155.804,127.417L155.804,127.417z"/>
		<path fill="#F2F2F2" d="M155.804,127.417v1.219c0-0.909-0.735-1.635-1.635-1.635h-2.234h-3.869h-2.234
			c-0.9,0-1.635,0.725-1.635,1.635v-1.219H94.064v60.947c0,2.36,1.693,4.362,4.043,4.778l38.448,6.423l4.507,0.754h3.134v-0.174
			c0,0.261,0.058,0.513,0.174,0.725l3.695,0.616v0.293h1.76h0.349h1.76v-0.293l3.695-0.616c0.116-0.213,0.174-0.464,0.174-0.725
			v0.174h3.134l4.507-0.754l38.448-6.423c2.351-0.416,4.043-2.418,4.043-4.778v-60.947H155.804z"/>
		<path fill="#AA2D4B" d="M155.804,130.198v71.509c0,0.909-0.735,1.635-1.635,1.635h-8.338c-0.638,0-1.199-0.368-1.46-0.909
			c-0.116-0.213-0.174-0.464-0.174-0.725v-71.509c0-0.909,0.735-1.635,1.635-1.635h8.338
			C155.069,128.563,155.804,129.289,155.804,130.198z"/>
		<path fill="#BC3753" d="M155.804,128.635v71.509c0,0.909-0.735,1.635-1.635,1.635h-8.338c-0.638,0-1.199-0.368-1.46-0.909
			c-0.116-0.213-0.174-0.464-0.174-0.725v-71.509c0-0.909,0.735-1.635,1.635-1.635h8.338
			C155.069,127.001,155.804,127.726,155.804,128.635z"/>
		<path fill="#EFEFEF" d="M150,127.417v71.451l-5.804-0.967l-7.158-1.199l-38.458-6.423c-0.938-0.164-1.615-0.967-1.615-1.915
			V120.84c0-1.199,1.074-2.109,2.254-1.905l1.77,0.3l46.525,7.767L150,127.417z"/>
		<path fill="#EFEFEF" d="M150,127.417v71.451l5.804-0.967l7.158-1.199l38.458-6.423c0.938-0.164,1.615-0.967,1.615-1.915V120.84
			c0-1.199-1.074-2.109-2.254-1.905l-1.77,0.3l-46.525,7.767L150,127.417z"/>
		<path fill="#F7F7F7" d="M152.486,127.001h-0.551h-3.869h-0.551l-46.525-7.767v62.959c0,1.673,1.074,3.153,2.669,3.676
			l33.38,10.833l7.158,2.321l3.869,1.257l1.935,0.629l1.935-0.629l3.869-1.257l7.158-2.321l33.38-10.833
			c1.596-0.522,2.669-2.002,2.669-3.676v-62.959L152.486,127.001z"/>
		<path fill="#FFFFFF" d="M150,198.871l-45.74-14.848c-0.795-0.258-1.333-0.999-1.333-1.835v-67.394c0-1.31,1.278-2.239,2.525-1.835
			L150,127.421V198.871z"/>
		<path fill="#FFFFFF" d="M150,198.871l45.74-14.848c0.795-0.258,1.333-0.999,1.333-1.835v-67.394c0-1.31-1.278-2.239-2.525-1.835
			L150,127.421V198.871z"/>
		<line fill="none" stroke="#EFEFEF" stroke-width="0.5" stroke-miterlimit="10" x1="150" y1="127.421" x2="150" y2="198.871"/>
		<path fill="#E8E8E8" d="M188.617,160.184c-0.973-3.337-16.4-1.807-35.173,3.345c-2.251,0.618-4.638,0.618-6.889,0
			c-18.773-5.152-34.2-6.682-35.173-3.345c-1.034,3.539,14.581,11.21,34.876,17.135l0,0c2.441,0.729,5.041,0.729,7.481,0l0,0
			C174.036,171.394,189.651,163.723,188.617,160.184z"/>
		<path fill="#565656" d="M184.529,96.728l-54.06,15.245c-1.128,0.269-1.924,1.277-1.924,2.437v23.371
			c-2.072-1.009-4.488-1.423-7.044-0.939c-4.695,0.889-8.392,4.779-9.017,9.516c-0.946,7.167,4.863,13.244,11.949,12.753
			c5.761-0.399,10.448-5.765,10.448-11.539v-29.36l20.031-5.747v17.117c-2.072-1.009-4.487-1.423-7.042-0.94
			c-4.695,0.888-8.392,4.777-9.018,9.514c-0.947,7.168,4.862,13.246,11.949,12.755c5.761-0.399,10.448-5.758,10.448-11.533
			c0-7.245,0-21.173,0-28.732l20.031-5.747v16.442c-2.072-1.009-4.488-1.423-7.042-0.94c-4.695,0.888-8.392,4.777-9.018,9.514
			c-0.947,7.168,4.862,13.246,11.948,12.755c5.761-0.399,10.448-5.758,10.448-11.533c0-8.418,0-25.343,0-31.979
			C187.616,97.538,186.104,96.352,184.529,96.728z"/>
	</g>
	<g>
		<polygon fill="#F2A12C" points="129.79,130.588 137.054,131.316 129.827,203.514 122.563,202.787 		"/>
		<polygon fill="#E59623" points="141.386,118.487 148.681,118.777 145.194,206.77 137.899,206.481 		"/>
		<path fill="#FFCE54" d="M158.833,129.894c0,0-13.418,42.304-7.288,78.314c0,0-1.916,14.94-6.896,0s8.045-150.937,8.045-150.937
			s-9.194-9.96-18.005,0c-8.812,9.96-18.771,6.881-18.771,6.881v5.378c0,0,15.323,8.302,26.05-6.959l-17.943,153.101
			c-1.474,12.584,5.37,24.895,17.1,29.685c5.884,2.402,12.755,2.838,20.01-1.448c8.846-5.225,13.843-15.119,13.418-25.383
			c-0.825-19.966-0.812-60.798,22.275-62.756"/>
		<path fill="#E59623" d="M181.332,138.009c0.624,0.434,1.241,0.875,1.851,1.322s1.211,0.898,1.803,1.354
			c0.591,0.455,1.17,0.913,1.737,1.372c0.566,0.459,1.118,0.919,1.654,1.378c0.536,0.459,1.054,0.916,1.555,1.37
			c0.501,0.454,0.981,0.904,1.441,1.349c0.46,0.445,0.898,0.883,1.314,1.315s0.807,0.854,1.173,1.268
			c0.367,0.414,0.707,0.817,1.022,1.209c0.314,0.392,0.601,0.772,0.86,1.139s0.489,0.719,0.691,1.057
			c0.201,0.338,0.373,0.66,0.514,0.965c0.142,0.306,0.253,0.594,0.333,0.865c0.08,0.271,0.13,0.522,0.149,0.755
			s0.006,0.446-0.037,0.639c-0.043,0.193-0.118,0.365-0.223,0.516c-0.105,0.151-0.241,0.28-0.406,0.388
			c-0.166,0.108-0.361,0.193-0.586,0.257c-0.225,0.063-0.478,0.104-0.76,0.123c-0.282,0.018-0.59,0.014-0.926-0.012
			c-0.336-0.027-0.697-0.076-1.084-0.147c-0.387-0.072-0.797-0.165-1.231-0.281c-0.434-0.116-0.889-0.253-1.366-0.412
			c-0.477-0.159-0.973-0.338-1.489-0.539c-0.515-0.2-1.048-0.42-1.597-0.66s-1.112-0.499-1.689-0.776
			c-0.577-0.277-1.165-0.572-1.765-0.884s-1.208-0.64-1.824-0.983c-0.617-0.343-1.239-0.701-1.866-1.073s-1.257-0.756-1.89-1.152
			c-0.632-0.397-1.264-0.803-1.895-1.221c-0.631-0.417-1.259-0.843-1.882-1.278c-0.624-0.434-1.241-0.875-1.851-1.322
			c-0.611-0.447-1.211-0.898-1.803-1.354c-0.591-0.455-1.17-0.913-1.737-1.372c-0.566-0.459-1.118-0.919-1.654-1.378
			c-0.536-0.459-1.054-0.916-1.555-1.37c-0.501-0.454-0.981-0.904-1.441-1.349c-0.46-0.445-0.898-0.883-1.314-1.315
			c-0.415-0.432-0.807-0.854-1.173-1.268c-0.367-0.414-0.707-0.817-1.022-1.209c-0.314-0.392-0.601-0.772-0.86-1.139
			s-0.489-0.719-0.691-1.057c-0.201-0.338-0.373-0.66-0.514-0.965c-0.142-0.306-0.253-0.594-0.333-0.864
			c-0.08-0.271-0.13-0.522-0.149-0.755s-0.006-0.446,0.037-0.639c0.044-0.193,0.118-0.365,0.223-0.516
			c0.105-0.151,0.241-0.28,0.406-0.388c0.166-0.108,0.361-0.193,0.586-0.257c0.225-0.063,0.478-0.104,0.76-0.123
			s0.59-0.014,0.926,0.012c0.336,0.027,0.697,0.076,1.084,0.147c0.387,0.072,0.797,0.165,1.231,0.281
			c0.434,0.116,0.89,0.253,1.367,0.412s0.973,0.338,1.489,0.539c0.515,0.2,1.048,0.42,1.597,0.66s1.112,0.499,1.689,0.776
			c0.577,0.277,1.166,0.572,1.765,0.884c0.6,0.312,1.208,0.639,1.824,0.983c0.617,0.343,1.239,0.701,1.866,1.073
			s1.257,0.756,1.89,1.152c0.632,0.397,1.264,0.803,1.895,1.221C180.08,137.148,180.708,137.574,181.332,138.009z"/>
		<path fill="#F2A12C" d="M176.899,142.957c4.442,3.093,7.352,6.854,6.577,7.966c-0.775,1.112-4.94-0.845-9.382-3.938
			s-8.392-7.099-7.617-8.211C167.251,137.661,172.456,139.865,176.899,142.957L176.899,142.957z"/>
		<path fill="#F2A12C" d="M148.657,134.912c0,0.298-0.029,0.593-0.087,0.886c-0.058,0.292-0.144,0.576-0.258,0.852
			c-0.114,0.275-0.254,0.537-0.42,0.785s-0.354,0.477-0.565,0.688s-0.44,0.399-0.688,0.565s-0.51,0.305-0.785,0.42
			c-0.275,0.114-0.559,0.2-0.852,0.258c-0.292,0.058-0.588,0.087-0.886,0.087s-0.593-0.029-0.886-0.087
			c-0.292-0.058-0.576-0.144-0.852-0.258c-0.275-0.114-0.537-0.254-0.785-0.42s-0.477-0.354-0.688-0.565s-0.399-0.44-0.565-0.688
			s-0.305-0.51-0.42-0.785c-0.114-0.275-0.2-0.559-0.258-0.852c-0.058-0.292-0.087-0.588-0.087-0.886s0.029-0.593,0.087-0.886
			c0.058-0.292,0.144-0.576,0.258-0.852s0.254-0.537,0.42-0.785s0.354-0.477,0.565-0.688s0.44-0.399,0.688-0.565
			s0.51-0.305,0.785-0.42c0.275-0.114,0.559-0.2,0.852-0.258c0.292-0.058,0.588-0.087,0.886-0.087s0.593,0.029,0.886,0.087
			c0.292,0.058,0.576,0.144,0.852,0.258c0.275,0.114,0.537,0.254,0.785,0.42s0.477,0.354,0.688,0.565s0.399,0.44,0.565,0.688
			s0.305,0.51,0.42,0.785c0.114,0.275,0.2,0.559,0.258,0.852C148.628,134.318,148.657,134.614,148.657,134.912z"/>
		<path fill="#F2A12C" d="M150.88,119.397c0,0.298-0.029,0.593-0.087,0.886c-0.058,0.292-0.144,0.576-0.258,0.852
			c-0.114,0.275-0.254,0.537-0.42,0.785s-0.354,0.477-0.565,0.688c-0.211,0.211-0.44,0.399-0.688,0.565s-0.51,0.305-0.785,0.42
			c-0.275,0.114-0.559,0.2-0.852,0.258c-0.292,0.058-0.588,0.087-0.886,0.087s-0.593-0.029-0.886-0.087
			c-0.292-0.058-0.576-0.144-0.852-0.258c-0.275-0.114-0.537-0.254-0.785-0.42s-0.477-0.354-0.688-0.565
			c-0.211-0.211-0.399-0.44-0.565-0.688s-0.305-0.51-0.42-0.785c-0.114-0.275-0.2-0.559-0.258-0.852
			c-0.058-0.292-0.087-0.588-0.087-0.886s0.029-0.593,0.087-0.886c0.058-0.292,0.144-0.576,0.258-0.852
			c0.114-0.275,0.254-0.537,0.42-0.785s0.354-0.477,0.565-0.688c0.211-0.211,0.44-0.399,0.688-0.565s0.509-0.305,0.785-0.42
			c0.275-0.114,0.559-0.2,0.852-0.258c0.292-0.058,0.588-0.087,0.886-0.087s0.593,0.029,0.886,0.087
			c0.292,0.058,0.576,0.144,0.852,0.258c0.275,0.114,0.537,0.254,0.785,0.42s0.477,0.354,0.688,0.565
			c0.211,0.211,0.399,0.44,0.565,0.688s0.305,0.51,0.42,0.785c0.114,0.275,0.2,0.559,0.258,0.852S150.88,119.099,150.88,119.397z"/>
		<path fill="#F2A12C" d="M146.794,150.614c0,0.298-0.029,0.593-0.087,0.886c-0.058,0.292-0.144,0.576-0.258,0.852
			c-0.114,0.275-0.254,0.537-0.42,0.785s-0.354,0.477-0.565,0.688s-0.44,0.399-0.688,0.565s-0.51,0.305-0.785,0.42
			c-0.275,0.114-0.559,0.2-0.852,0.258c-0.292,0.058-0.588,0.087-0.886,0.087s-0.593-0.029-0.886-0.087
			c-0.292-0.058-0.576-0.144-0.852-0.258c-0.275-0.114-0.537-0.254-0.785-0.42s-0.477-0.354-0.688-0.565s-0.399-0.44-0.565-0.688
			s-0.305-0.51-0.42-0.785c-0.114-0.275-0.2-0.559-0.258-0.852c-0.058-0.292-0.087-0.588-0.087-0.886s0.029-0.593,0.087-0.886
			c0.058-0.292,0.144-0.576,0.258-0.852c0.114-0.275,0.254-0.537,0.42-0.785s0.354-0.477,0.565-0.688s0.44-0.399,0.688-0.565
			s0.51-0.305,0.785-0.42c0.275-0.114,0.559-0.2,0.852-0.258c0.292-0.058,0.588-0.087,0.886-0.087s0.593,0.029,0.886,0.087
			c0.292,0.058,0.576,0.144,0.852,0.258c0.275,0.114,0.537,0.254,0.785,0.42s0.477,0.354,0.688,0.565s0.399,0.44,0.565,0.688
			s0.305,0.51,0.42,0.785c0.114,0.275,0.2,0.559,0.258,0.852S146.794,150.316,146.794,150.614z"/>
		<path fill="#F2A12C" d="M146.794,165.899c0,0.298-0.029,0.593-0.087,0.886c-0.058,0.292-0.144,0.576-0.258,0.852
			c-0.114,0.275-0.254,0.537-0.42,0.785s-0.354,0.477-0.565,0.688s-0.44,0.399-0.688,0.565s-0.51,0.305-0.785,0.42
			s-0.559,0.2-0.852,0.258s-0.588,0.087-0.886,0.087s-0.593-0.029-0.886-0.087c-0.292-0.058-0.576-0.144-0.852-0.258
			c-0.275-0.114-0.537-0.254-0.785-0.42s-0.477-0.354-0.688-0.565s-0.399-0.44-0.565-0.688s-0.305-0.51-0.42-0.785
			c-0.114-0.275-0.2-0.559-0.258-0.852c-0.058-0.292-0.087-0.588-0.087-0.886s0.029-0.593,0.087-0.886
			c0.058-0.292,0.144-0.576,0.258-0.852c0.114-0.275,0.254-0.537,0.42-0.785s0.354-0.477,0.565-0.688s0.44-0.399,0.688-0.565
			s0.51-0.305,0.785-0.42c0.275-0.114,0.559-0.2,0.852-0.258c0.292-0.058,0.588-0.087,0.886-0.087s0.593,0.029,0.886,0.087
			c0.292,0.058,0.576,0.144,0.852,0.258c0.275,0.114,0.537,0.254,0.785,0.42s0.477,0.354,0.688,0.565s0.399,0.44,0.565,0.688
			s0.305,0.51,0.42,0.785c0.114,0.275,0.2,0.559,0.258,0.852C146.765,165.305,146.794,165.6,146.794,165.899z"/>
		<path fill="#F2A12C" d="M145.55,183.506c0,0.298-0.029,0.593-0.087,0.886c-0.058,0.292-0.144,0.576-0.258,0.852
			c-0.114,0.275-0.254,0.537-0.42,0.785s-0.354,0.477-0.565,0.688s-0.44,0.399-0.688,0.565s-0.51,0.306-0.785,0.42
			c-0.275,0.114-0.559,0.2-0.852,0.258c-0.292,0.058-0.588,0.087-0.886,0.087s-0.593-0.029-0.886-0.087
			c-0.292-0.058-0.576-0.144-0.852-0.258c-0.275-0.114-0.537-0.254-0.785-0.42s-0.477-0.354-0.688-0.565s-0.399-0.44-0.565-0.688
			s-0.305-0.51-0.42-0.785c-0.114-0.275-0.2-0.559-0.258-0.852c-0.058-0.292-0.087-0.588-0.087-0.886s0.029-0.593,0.087-0.886
			c0.058-0.292,0.144-0.576,0.258-0.852c0.114-0.275,0.254-0.537,0.42-0.785s0.354-0.477,0.565-0.688s0.44-0.399,0.688-0.565
			s0.51-0.305,0.785-0.42c0.275-0.114,0.559-0.2,0.852-0.258c0.292-0.058,0.588-0.087,0.886-0.087s0.593,0.029,0.886,0.087
			c0.292,0.058,0.576,0.144,0.852,0.258c0.275,0.114,0.537,0.254,0.785,0.42s0.477,0.354,0.688,0.565s0.399,0.44,0.565,0.688
			s0.305,0.51,0.42,0.785c0.114,0.275,0.2,0.559,0.258,0.852C145.521,182.912,145.55,183.207,145.55,183.506z"/>
		<path fill="#F2A12C" d="M145.59,198.213c0,0.298-0.029,0.593-0.087,0.886c-0.058,0.292-0.144,0.576-0.258,0.852
			c-0.114,0.275-0.254,0.537-0.42,0.785s-0.354,0.477-0.565,0.688s-0.44,0.399-0.688,0.565s-0.51,0.305-0.785,0.42
			c-0.275,0.114-0.559,0.2-0.852,0.258c-0.292,0.058-0.588,0.087-0.886,0.087s-0.593-0.029-0.886-0.087
			c-0.292-0.058-0.576-0.144-0.852-0.258c-0.275-0.114-0.537-0.254-0.785-0.42s-0.477-0.354-0.688-0.565s-0.399-0.44-0.565-0.688
			s-0.305-0.51-0.42-0.785c-0.114-0.275-0.2-0.559-0.258-0.852c-0.058-0.292-0.087-0.588-0.087-0.886s0.029-0.593,0.087-0.886
			c0.058-0.292,0.144-0.576,0.258-0.852c0.114-0.275,0.254-0.537,0.42-0.785s0.354-0.477,0.565-0.688s0.44-0.399,0.688-0.565
			s0.51-0.305,0.785-0.42c0.275-0.114,0.559-0.2,0.852-0.258c0.292-0.058,0.588-0.087,0.886-0.087s0.593,0.029,0.886,0.087
			c0.292,0.058,0.576,0.144,0.852,0.258c0.275,0.114,0.537,0.254,0.785,0.42s0.477,0.354,0.688,0.565s0.399,0.44,0.565,0.688
			s0.305,0.51,0.42,0.785c0.114,0.275,0.2,0.559,0.258,0.852C145.561,197.619,145.59,197.915,145.59,198.213z"/>
		<path fill="#F2A12C" d="M142.254,80.867c0,0.216-0.062,0.425-0.185,0.625s-0.299,0.377-0.527,0.53s-0.491,0.271-0.789,0.354
			c-0.298,0.083-0.608,0.124-0.931,0.124c-0.322,0-0.633-0.041-0.931-0.124s-0.561-0.201-0.789-0.354s-0.404-0.33-0.527-0.53
			c-0.123-0.2-0.185-0.408-0.185-0.625c0-0.216,0.062-0.425,0.185-0.625s0.299-0.377,0.527-0.53s0.491-0.271,0.789-0.354
			c0.298-0.083,0.608-0.124,0.931-0.124c0.322,0,0.633,0.041,0.931,0.124s0.561,0.201,0.789,0.354s0.404,0.33,0.527,0.53
			C142.192,80.442,142.254,80.651,142.254,80.867z"/>
		
			<rect x="105.044" y="61.747" transform="matrix(0.0923 -0.9957 0.9957 0.0923 31.3821 166.707)" fill="#5E5E5E" width="4.169" height="8.788"/>
		
			<rect x="109.064" y="62.119" transform="matrix(0.0923 -0.9957 0.9957 0.0923 34.6598 171.0474)" fill="#3D3D3D" width="4.169" height="8.788"/>
		
			<rect x="109.121" y="62.392" transform="matrix(0.0922 -0.9957 0.9957 0.0922 35.7672 172.803)" fill="#5E5E5E" width="7.069" height="8.788"/>
		<path fill="#F2A12C" d="M161.307,191.119c0,0.427-0.042,0.85-0.125,1.269c-0.083,0.419-0.207,0.826-0.37,1.22
			c-0.163,0.395-0.364,0.769-0.601,1.125c-0.237,0.355-0.507,0.684-0.809,0.986c-0.302,0.302-0.631,0.572-0.986,0.809
			s-0.73,0.438-1.125,0.601s-0.801,0.287-1.22,0.37s-0.842,0.125-1.269,0.125s-0.85-0.042-1.269-0.125
			c-0.419-0.083-0.826-0.207-1.22-0.37c-0.395-0.163-0.769-0.364-1.125-0.601c-0.355-0.237-0.684-0.507-0.986-0.809
			c-0.302-0.302-0.572-0.631-0.809-0.986s-0.438-0.73-0.601-1.125s-0.287-0.801-0.37-1.22s-0.125-0.842-0.125-1.269
			s0.042-0.85,0.125-1.269c0.083-0.419,0.207-0.826,0.37-1.22c0.163-0.395,0.364-0.769,0.601-1.125
			c0.237-0.355,0.507-0.684,0.809-0.986c0.302-0.302,0.631-0.572,0.986-0.809s0.73-0.438,1.125-0.601s0.801-0.287,1.22-0.37
			s0.842-0.125,1.269-0.125s0.85,0.042,1.269,0.125c0.419,0.083,0.826,0.207,1.22,0.37s0.769,0.364,1.125,0.601
			c0.355,0.237,0.684,0.507,0.986,0.809c0.302,0.302,0.572,0.631,0.809,0.986s0.438,0.73,0.601,1.125s0.287,0.801,0.37,1.22
			C161.266,190.269,161.307,190.692,161.307,191.119z"/>
		<path fill="#F2A12C" d="M161.605,172.751c0,0.427-0.042,0.85-0.125,1.269c-0.083,0.419-0.207,0.826-0.37,1.22
			c-0.163,0.395-0.364,0.769-0.601,1.125c-0.237,0.355-0.507,0.684-0.809,0.986c-0.302,0.302-0.631,0.572-0.986,0.809
			s-0.73,0.438-1.125,0.601s-0.801,0.287-1.22,0.37s-0.842,0.125-1.269,0.125s-0.85-0.042-1.269-0.125
			c-0.419-0.083-0.826-0.207-1.22-0.37c-0.395-0.163-0.769-0.364-1.125-0.601c-0.355-0.237-0.684-0.507-0.986-0.809
			c-0.302-0.302-0.572-0.631-0.809-0.986s-0.438-0.73-0.601-1.125s-0.287-0.801-0.37-1.22s-0.125-0.842-0.125-1.269
			s0.042-0.85,0.125-1.269c0.083-0.419,0.207-0.826,0.37-1.22c0.163-0.395,0.364-0.769,0.601-1.125
			c0.237-0.355,0.507-0.684,0.809-0.986c0.302-0.302,0.631-0.572,0.986-0.809s0.73-0.438,1.125-0.601s0.801-0.287,1.22-0.37
			s0.842-0.125,1.269-0.125s0.85,0.042,1.269,0.125c0.419,0.083,0.826,0.207,1.22,0.37c0.395,0.163,0.769,0.364,1.125,0.601
			c0.355,0.237,0.684,0.507,0.986,0.809c0.302,0.302,0.572,0.631,0.809,0.986s0.438,0.73,0.601,1.125s0.287,0.801,0.37,1.22
			C161.564,171.9,161.605,172.323,161.605,172.751z"/>
	</g>
</g>
</svg>
