<?xml version="1.0" encoding="utf-8"?>
<!-- Generator: Adobe Illustrator 23.0.0, SVG Export Plug-In . SVG Version: 6.00 Build 0)  -->
<svg version="1.0" id="Camada_1" xmlns="http://www.w3.org/2000/svg" xmlns:xlink="http://www.w3.org/1999/xlink" x="0px" y="0px"
	 viewBox="0 0 300 300" enable-background="new 0 0 300 300" xml:space="preserve">
<ellipse transform="matrix(0.7071 -0.7071 0.7071 0.7071 -62.0713 149.8823)" fill="#FFFFFF" cx="149.888" cy="149.868" rx="149.917" ry="149.916"/>
<circle fill="#86BF5A" cx="149.892" cy="149.869" r="140.734"/>
<path fill="#F2A12C" d="M135.678,126.798l7.262,0.727l-7.225,72.178l-7.262-0.727L135.678,126.798z"/>
<path fill="#E59623" d="M147.27,114.7l7.293,0.29l-3.486,87.968l-7.293-0.289L147.27,114.7L147.27,114.7z"/>
<path fill="#FFCE54" d="M164.712,126.104c0,0-13.414,42.292-7.286,78.292c0,0-1.915,14.936-6.894,0s8.043-150.894,8.043-150.894
	s-9.191-9.957-18,0s-18.766,6.879-18.766,6.879v5.376c0,0,15.319,8.3,26.043-6.957l-17.938,153.057
	c-1.474,12.58,5.368,24.888,17.095,29.676c5.882,2.401,12.751,2.837,20.004-1.448c8.843-5.224,13.839-15.115,13.414-25.376
	c-0.825-19.96-0.812-60.781,22.269-62.738"/>
<ellipse transform="matrix(0.5714 -0.8207 0.8207 0.5714 -35.083 210.4978)" fill="#E59623" cx="183.987" cy="138.837" rx="5.617" ry="23.202"/>
<path fill="#F2A12C" d="M182.773,139.163c4.441,3.092,7.35,6.852,6.575,7.964s-4.939-0.845-9.379-3.937
	c-4.441-3.092-8.39-7.097-7.615-8.209C173.128,133.869,178.332,136.072,182.773,139.163L182.773,139.163z"/>
<circle fill="#F2A12C" cx="150" cy="131.12" r="4.539"/>
<circle fill="#F2A12C" cx="152.223" cy="115.61" r="4.539"/>
<circle fill="#F2A12C" cx="148.138" cy="146.818" r="4.539"/>
<circle fill="#F2A12C" cx="148.138" cy="162.098" r="4.539"/>
<circle fill="#F2A12C" cx="146.894" cy="179.7" r="4.539"/>
<circle fill="#F2A12C" cx="146.934" cy="194.403" r="4.539"/>
<ellipse fill="#F2A12C" cx="145.707" cy="77.091" rx="2.431" ry="1.632"/>
<path fill="#5E5E5E" d="M108.847,59.882l8.748,0.811l-0.384,4.15l-8.749-0.81C108.462,64.033,108.847,59.882,108.847,59.882z"/>
<path fill="#3D3D3D" d="M112.865,60.254l8.748,0.811l-0.384,4.15l-8.749-0.81C112.48,64.405,112.865,60.254,112.865,60.254z"/>
<path fill="#5E5E5E" d="M114.507,59.08l8.748,0.81l-0.652,7.037l-8.749-0.81C113.854,66.117,114.507,59.08,114.507,59.08z"/>
<circle fill="#F2A12C" cx="160.683" cy="187.311" r="6.503"/>
<circle fill="#F2A12C" cx="160.981" cy="168.948" r="6.503"/>
<path fill="#FFCE54" d="M160.693,189.807c-1.107,0.077-2.067-0.759-2.144-1.866c0,0,0,0,0-0.001v-0.001l-0.494-7.185l4.012-0.276
	l0.494,7.185c0.077,1.107-0.759,2.067-1.867,2.144C160.694,189.807,160.693,189.807,160.693,189.807L160.693,189.807z
	 M159.102,170.455c-0.837-0.73-0.924-2-0.195-2.837l4.731-5.429l3.032,2.642l-4.731,5.429
	C161.209,171.097,159.939,171.184,159.102,170.455L159.102,170.455z"/>
<path fill="#E59623" d="M141.859,120.065l-1.58-0.158c-1.232-0.123-2.131-1.222-2.008-2.454c0,0,0,0,0,0l0.316-3.16
	c0.123-1.232,1.222-2.131,2.454-2.008c0,0,0,0,0,0l1.58,0.158C142.621,112.443,141.859,120.065,141.859,120.065z M142.692,110.58
	l-1.58-0.158c-1.232-0.123-2.131-1.222-2.008-2.454c0,0,0,0,0,0l0.316-3.16c0.123-1.232,1.222-2.131,2.454-2.008c0,0,0,0,0,0
	l1.58,0.158C143.454,102.958,142.692,110.58,142.692,110.58z"/>
</svg>
