<svg xmlns="http://www.w3.org/2000/svg" version="1.0" viewBox="0 0 300 300"><path fill="#FFF" d="M300 150a149.295 149.295 0 01-.723 14.702 150.663 150.663 0 01-2.16 14.561 150.48 150.48 0 01-3.577 14.279 149.469 149.469 0 01-7.943 20.591 150.761 150.761 0 01-6.939 12.982 149.407 149.407 0 01-8.178 12.239 149.097 149.097 0 01-4.53 5.804 149.029 149.029 0 01-9.886 10.907 150.293 150.293 0 01-16.711 14.416 150.754 150.754 0 01-12.239 8.178 150.046 150.046 0 01-47.852 18.459 149.427 149.427 0 01-21.903 2.702 150.538 150.538 0 01-14.72 0 150.663 150.663 0 01-21.903-2.702 150.48 150.48 0 01-14.279-3.577 149.469 149.469 0 01-20.591-7.943 150.761 150.761 0 01-12.982-6.939 149.407 149.407 0 01-12.239-8.178 149.097 149.097 0 01-5.804-4.53 149.029 149.029 0 01-10.907-9.886 150.293 150.293 0 01-14.416-16.711 150.754 150.754 0 01-8.178-12.239 150.046 150.046 0 01-18.459-47.852A149.427 149.427 0 01.179 157.36 151.8 151.8 0 010 150a149.295 149.295 0 01.723-14.702 150.663 150.663 0 012.16-14.561 150.48 150.48 0 013.577-14.279 149.469 149.469 0 017.943-20.591 150.761 150.761 0 016.939-12.982 149.407 149.407 0 018.178-12.239 149.097 149.097 0 014.53-5.804 149.029 149.029 0 019.886-10.907 150.293 150.293 0 0116.711-14.416 150.754 150.754 0 0112.239-8.178 149.435 149.435 0 0112.982-6.939 150.63 150.63 0 0120.591-7.943 149.859 149.859 0 0128.84-5.737A150.245 150.245 0 01150 0a149.295 149.295 0 0114.702.723 150.663 150.663 0 0114.561 2.16 150.48 150.48 0 0114.279 3.577 149.469 149.469 0 0120.591 7.943 150.761 150.761 0 0112.982 6.939 149.407 149.407 0 0112.239 8.178 149.097 149.097 0 015.804 4.53 149.029 149.029 0 0110.907 9.886 150.293 150.293 0 0114.416 16.711 150.754 150.754 0 018.178 12.239 150.046 150.046 0 0118.459 47.852 150.778 150.778 0 012.16 14.561A150.245 150.245 0 01300 150z"/><path fill="#FBBC4B" d="M290.812 150a140.836 140.836 0 01-51.482 108.849 140.654 140.654 0 01-16.939 11.93 140.5 140.5 0 01-18.505 9.315 140.547 140.547 0 01-19.672 6.498c-2.235.56-4.483 1.065-6.743 1.514s-4.53.843-6.81 1.182a141.224 141.224 0 01-13.752 1.354 140.897 140.897 0 01-27.57-1.354 140.202 140.202 0 01-13.553-2.696 140.857 140.857 0 01-32.163-12.406 140.644 140.644 0 01-17.504-11.085 141.422 141.422 0 01-10.682-8.766 140.735 140.735 0 01-22.518-26.105 141.063 141.063 0 01-7.105-11.853 140.723 140.723 0 01-12.406-32.163 141.214 141.214 0 01-3.542-20.412A140.498 140.498 0 019.188 150a140.866 140.866 0 0116.626-66.377 140.644 140.644 0 0111.085-17.504 141.422 141.422 0 018.766-10.682 141.598 141.598 0 019.772-9.772 141.155 141.155 0 0110.682-8.766 141.392 141.392 0 0111.49-7.678 141.114 141.114 0 0118.505-9.315 140.547 140.547 0 0119.672-6.498 141.214 141.214 0 0120.412-3.542A140.498 140.498 0 01150 9.188 140.836 140.836 0 01258.849 60.67a140.654 140.654 0 0111.93 16.939 141.114 141.114 0 019.315 18.505 140.547 140.547 0 016.498 19.672 141.214 141.214 0 013.542 20.412 140.498 140.498 0 01.678 13.802z"/><path fill="#FFFBF3" d="M199.667 214.539l5.498-1.197v-4.433l-2.9-2.176 2.9-5.963v-37.723l-.92-.711-.676-3.653-2.317-3.231 3.912-3.93V136.67l-.92-2.847.92-7.113v-10.235l-1.357-4.761 1.357-16.09V85.192a2.595 2.595 0 00-.443-1.46 2.653 2.653 0 00-1.179-.968 2.57 2.57 0 00-1.005-.199h-21.552l-7.552 4.028-3.145-2.748-8.997-1.28h-24.792l-15.111 2.223-6.57-2.223H97.462a2.668 2.668 0 00-1.005.2 2.606 2.606 0 00-.852.57 2.653 2.653 0 00-.57.852 2.57 2.57 0 00-.199 1.006v7.477l.941 13.463-.941 6.075v16.418l3.075 3.284-3.075 11.329v12.877l3.239 4.854-3.239 3.12v15.667l1.817 16.019-1.817 12.478v9.598a2.668 2.668 0 00.199 1.005 2.606 2.606 0 00.57.852 2.653 2.653 0 00.852.57 2.647 2.647 0 001.005.2l18.018-.007 5.853-3.189 2.915 1.914 13.654.072 3.284-1.067-.261 1.544 1.04.718 59.708-.023-1.478-2.337.578-1.4-1.106-2.165z"/><path fill="none" stroke="#DDD6CA" stroke-linecap="round" stroke-miterlimit="10" stroke-width="7.064" d="M104.081 102.262h91.85m-91.85 32.837h91.85m-91.85 32.835h91.85m-91.85 32.837h91.85"/><path fill="none" stroke="#DDD6CA" stroke-linecap="round" stroke-miterlimit="10" stroke-width="2.355" d="M104.081 188.95h91.85m-91.85-9.194h91.85m-91.85-23.642h91.85m-91.85-9.195h91.85m-91.85-23.642h91.85m-91.85-9.193h91.85"/><path fill="#F2A12C" d="M129.791 130.588l7.264.728-7.227 72.198-7.264-.727z"/><path fill="#E59623" d="M141.387 118.487l7.295.29-3.487 87.993-7.295-.289z"/><path fill="#FFD98D" d="M158.834 129.894s-13.418 42.304-7.288 78.314c0 0-1.916 14.94-6.896 0s8.045-150.937 8.045-150.937-9.194-9.96-18.005 0c-8.812 9.96-18.771 6.881-18.771 6.881v5.378s15.323 8.302 26.05-6.959l-17.943 153.101c-1.474 12.584 5.37 24.895 17.1 29.685 5.884 2.402 12.755 2.838 20.01-1.448 8.846-5.225 13.843-15.119 13.418-25.383-.825-19.966-.812-60.798 22.275-62.756"/><path fill="#E59623" d="M181.333 138.009a92.152 92.152 0 013.654 2.676 80.449 80.449 0 013.391 2.75c.536.459 1.054.916 1.555 1.37.501.454.981.904 1.441 1.349.46.445.898.883 1.314 1.315s.807.854 1.173 1.268c.367.414.707.817 1.022 1.209.314.392.601.772.86 1.139s.489.719.691 1.057c.201.338.373.66.514.965.142.306.253.594.333.865.08.271.13.522.149.755s.006.446-.037.639a1.445 1.445 0 01-.223.516c-.105.151-.241.28-.406.388a2.141 2.141 0 01-.586.257 3.762 3.762 0 01-.76.123c-.282.018-.59.014-.926-.012a10.845 10.845 0 01-1.084-.147 16.372 16.372 0 01-1.231-.281 23.588 23.588 0 01-1.366-.412 31.869 31.869 0 01-1.489-.539c-.515-.2-1.048-.42-1.597-.66s-1.112-.499-1.689-.776-1.165-.572-1.765-.884-1.208-.64-1.824-.983c-.617-.343-1.239-.701-1.866-1.073s-1.257-.756-1.89-1.152a93.105 93.105 0 01-3.777-2.499 92.152 92.152 0 01-3.654-2.676 80.449 80.449 0 01-3.391-2.75 73.846 73.846 0 01-1.555-1.37 60.541 60.541 0 01-1.441-1.349c-.46-.445-.898-.883-1.314-1.315a41.871 41.871 0 01-1.173-1.268 32.734 32.734 0 01-1.022-1.209c-.314-.392-.601-.772-.86-1.139s-.489-.719-.691-1.057c-.201-.338-.373-.66-.514-.965a6.36 6.36 0 01-.333-.864c-.08-.271-.13-.522-.149-.755s-.006-.446.037-.639c.044-.193.118-.365.223-.516.105-.151.241-.28.406-.388.166-.108.361-.193.586-.257.225-.063.478-.104.76-.123s.59-.014.926.012c.336.027.697.076 1.084.147.387.072.797.165 1.231.281.434.116.89.253 1.367.412s.973.338 1.489.539c.515.2 1.048.42 1.597.66s1.112.499 1.689.776a69.537 69.537 0 013.589 1.867c.617.343 1.239.701 1.866 1.073s1.257.756 1.89 1.152a93.105 93.105 0 013.776 2.498z"/><path fill="#F2A12C" d="M176.9 142.957c4.442 3.093 7.352 6.854 6.577 7.966-.775 1.112-4.94-.845-9.382-3.938s-8.392-7.099-7.617-8.211c.774-1.113 5.979 1.091 10.422 4.183zm-28.242-8.045a4.55 4.55 0 01-.765 2.523 4.546 4.546 0 01-6.299 1.253 4.546 4.546 0 01-1.253-6.299 4.546 4.546 0 016.299-1.253 4.546 4.546 0 012.018 3.776zm2.223-15.515a4.55 4.55 0 01-.765 2.523 4.546 4.546 0 01-6.299 1.253 4.546 4.546 0 01-1.253-6.299 4.546 4.546 0 016.299-1.253 4.546 4.546 0 012.018 3.776zm-4.086 31.217a4.55 4.55 0 01-.765 2.523 4.546 4.546 0 01-6.299 1.253 4.546 4.546 0 01-1.253-6.299 4.546 4.546 0 016.299-1.253 4.546 4.546 0 012.018 3.776zm0 15.285a4.55 4.55 0 01-.765 2.523 4.546 4.546 0 01-6.299 1.253 4.546 4.546 0 01-1.253-6.299 4.546 4.546 0 016.299-1.253 4.546 4.546 0 012.018 3.776zm-1.244 17.607a4.55 4.55 0 01-.765 2.523 4.546 4.546 0 01-6.299 1.253 4.546 4.546 0 01-1.253-6.299 4.546 4.546 0 016.299-1.253 4.546 4.546 0 012.018 3.776zm.04 14.707a4.55 4.55 0 01-.765 2.523 4.546 4.546 0 01-6.299 1.253 4.546 4.546 0 01-1.253-6.299 4.546 4.546 0 016.299-1.253 4.546 4.546 0 012.018 3.776zm-3.336-117.346c0 .216-.062.425-.185.625s-.299.377-.527.53-.491.271-.789.354a3.452 3.452 0 01-.931.124c-.322 0-.633-.041-.931-.124s-.561-.201-.789-.354-.404-.33-.527-.53a1.176 1.176 0 01-.185-.625c0-.216.062-.425.185-.625s.299-.377.527-.53.491-.271.789-.354c.298-.083.608-.124.931-.124.322 0 .633.041.931.124s.561.201.789.354.404.33.527.53.185.409.185.625z"/><path fill="#5E5E5E" d="M102.562 67.81l.384-4.15 8.75.81-.384 4.152z"/><path fill="#3D3D3D" d="M106.582 68.183l.385-4.15 8.75.81-.385 4.152z"/><path fill="#5E5E5E" d="M107.956 69.899l.652-7.039 8.75.81-.652 7.04z"/><path fill="#F2A12C" d="M161.308 191.119a6.516 6.516 0 01-1.905 4.6 6.48 6.48 0 01-2.111 1.41 6.502 6.502 0 01-7.898-2.396 6.462 6.462 0 01-.971-2.345 6.516 6.516 0 01.971-4.883 6.48 6.48 0 012.92-2.396 6.502 6.502 0 017.898 2.396 6.462 6.462 0 01.971 2.345c.084.419.125.842.125 1.269zm.298-18.368a6.516 6.516 0 01-1.905 4.6 6.48 6.48 0 01-2.111 1.41 6.502 6.502 0 01-7.898-2.396 6.462 6.462 0 01-.971-2.345 6.516 6.516 0 01.971-4.883 6.48 6.48 0 012.92-2.396 6.502 6.502 0 017.898 2.396 6.462 6.462 0 01.971 2.345c.084.418.125.841.125 1.269z"/></svg>