<svg viewBox="0 0 300 300" xmlns="http://www.w3.org/2000/svg"><path d="m149.999 300c-82.709 0-149.999-67.29-149.999-150s67.29-150 149.999-150c82.711 0 150.001 67.29 150.001 150s-67.29 150-150.001 150" fill="#fff"/><path d="m290.812 150c0 77.769-63.043 140.812-140.813 140.812-77.768 0-140.811-63.043-140.811-140.812 0-77.768 63.044-140.812 140.812-140.812 77.769 0 140.812 63.044 140.812 140.812" fill="#fae040"/><path d="m224.612 112.8h-66.995v1.6a2.142 2.142 0 0 0 -2.146-2.145h-10.944a2.142 2.142 0 0 0 -2.145 2.145v-1.6h-66.994a2.547 2.547 0 0 0 -2.539 2.539v90.621a2.543 2.543 0 0 0 2.527 2.527h67.008v-.229c0 .343.076.673.228.952a2.127 2.127 0 0 0 1.916 1.193h10.944a2.142 2.142 0 0 0 2.146-2.146v.229h67.008a2.541 2.541 0 0 0 2.525-2.527v-90.621a2.547 2.547 0 0 0 -2.539-2.538" fill="#cd4058"/><path d="m142.383 110.749v95.687h-67.008a2.54 2.54 0 0 1 -2.525-2.526v-90.621a2.546 2.546 0 0 1 2.539-2.539h66.994m15.234-.001v95.687h67.008a2.542 2.542 0 0 0 2.526-2.526v-90.621a2.547 2.547 0 0 0 -2.539-2.539h-66.995" fill="#ea4f5c"/><path d="m80.391 110.749h-3.808v79.994c0 3.098 2.221 5.726 5.306 6.271l50.464 8.43 5.915.991h4.114v-1.702l-9.395-3.047-50.477-8.43a2.546 2.546 0 0 1 -2.12-2.514v-79.993m143.029 0h-3.809v79.994a2.548 2.548 0 0 1 -2.12 2.514l-50.477 8.43-9.395 3.047v1.702h4.114l5.915-.991 50.464-8.43c3.085-.546 5.308-3.174 5.308-6.271z" fill="#de4b57"/><path d="m157.617 114.399v93.858a2.143 2.143 0 0 1 -2.144 2.146h-10.944a2.126 2.126 0 0 1 -1.917-1.193 1.981 1.981 0 0 1 -.228-.952v-93.858c0-1.193.964-2.145 2.146-2.145h10.944a2.14 2.14 0 0 1 2.143 2.144" fill="#aa2d4b"/><path d="m157.617 112.348v93.858a2.143 2.143 0 0 1 -2.144 2.146h-10.944a2.126 2.126 0 0 1 -1.917-1.193 1.984 1.984 0 0 1 -.228-.952v-93.858c0-1.193.964-2.145 2.146-2.145h10.944a2.14 2.14 0 0 1 2.143 2.144" fill="#bc3753"/><path d="m150.001 110.749v93.782l-7.618-1.27-9.395-1.574-50.477-8.43a2.546 2.546 0 0 1 -2.12-2.514v-88.627a2.53 2.53 0 0 1 2.958-2.501l2.322.394 61.066 10.195zm0 0v93.782l7.616-1.27 9.395-1.574 50.477-8.43a2.546 2.546 0 0 0 2.12-2.514v-88.627a2.53 2.53 0 0 0 -2.958-2.501l-2.323.394-61.066 10.195z" fill="#efefef"/><path d="m167.012 201.686-9.395 1.574v1.473zm-34.024 0 9.395 3.047v-1.473z" fill="#d74954"/><path d="m157.617 203.26-7.288 1.216v.058h-.656v-.058l-7.29-1.216v1.473l5.078 1.651 2.539.825 2.539-.825 5.077-1.651v-1.473m-5.916-93.057h-3.399l1.659.539.041.007v.006-.006l.041-.007z" fill="#b63550"/><path d="m149.96 110.742.041.013v-.006zm-64.288-10.734v82.635a5.072 5.072 0 0 0 3.504 4.824l43.812 14.219 9.395 1.574 7.29 1.216v-.048l-59.707-19.381a2.534 2.534 0 0 1 -1.75-2.409v-82.205z" fill="#e8e8e8"/><path d="m150.041 110.742-.041.007v.006zm64.287-10.734-2.543.425v82.205a2.536 2.536 0 0 1 -1.751 2.409l-59.706 19.381v.048l7.288-1.216 9.395-1.574 43.812-14.219a5.074 5.074 0 0 0 3.504-4.824v-82.635" fill="#e8e8e8"/><path d="m150.001 204.534-60.035-19.488a2.534 2.534 0 0 1 -1.75-2.409v-88.454c0-1.72 1.678-2.94 3.313-2.409l58.471 18.981v93.779m.001 0 60.034-19.488a2.535 2.535 0 0 0 1.751-2.409v-88.454c0-1.72-1.679-2.94-3.315-2.409l-58.47 18.981z" fill="#fff"/><path d="m149.673 110.755v93.779h.656v-93.779z" fill="#efefef"/><path d="m122.103 155.536c-3.064 0-4.967.49-5.267 1.52-.888 3.039 12.522 9.627 29.951 14.716a11.18 11.18 0 0 0 2.885.465v-12.842a40.363 40.363 0 0 1 -8.929-1.074c-7.692-1.811-14.32-2.785-18.64-2.785m55.794 0c-4.32 0-10.947.974-18.641 2.785a40.347 40.347 0 0 1 -8.928 1.074v12.842a11.259 11.259 0 0 0 2.884-.465c17.429-5.089 30.839-11.677 29.952-14.716-.299-1.03-2.204-1.52-5.267-1.52" fill="#e8e8e8"/><path d="m150.329 159.395-.329.001-.327-.001v12.842a11.898 11.898 0 0 0 .657 0v-12.842" fill="#d9d9d9"/><path d="m104.936 112.994a16.523 16.523 0 0 1 -.554-4.269c.002-2.367.484-5.201 2.034-8.387 1.551-3.184 4.183-6.73 8.553-10.444 7.005-5.959 17.108-10.975 28.332-13.977 7.268-1.948 14.548-2.937 21.235-2.936 3.639 0 7.103.292 10.29.875 7.651 1.402 12.373 4.119 15.365 6.956 2.988 2.841 4.288 5.859 4.873 8.032l3.803-1.019c-.724-2.711-2.363-6.448-5.964-9.867-3.597-3.423-9.114-6.472-17.37-7.975-3.453-.631-7.148-.939-10.998-.939-7.073.001-14.673 1.039-22.254 3.07-11.706 3.141-22.27 8.338-29.862 14.78-4.718 4.007-7.727 7.988-9.544 11.72-1.819 3.73-2.433 7.201-2.431 10.111 0 2.073.307 3.863.688 5.288z" fill="#76a849"/><path d="m113.779 110.624a7.182 7.182 0 0 1 -.243-1.87c-.003-1.885.71-4.008 2.192-6.249 2.213-3.357 6.132-6.883 11.291-9.996 5.157-3.12 11.54-5.846 18.651-7.75 6.654-1.784 13.115-2.626 18.855-2.625 6-.004 11.213.93 14.987 2.576 1.889.82 3.412 1.81 4.525 2.905 1.115 1.099 1.829 2.282 2.184 3.598l3.803-1.019c-.549-2.058-1.687-3.879-3.228-5.389-2.318-2.269-5.508-3.889-9.288-4.978-3.784-1.085-8.181-1.631-12.983-1.632-6.123.001-12.904.892-19.874 2.759-9.932 2.665-18.54 6.841-24.774 11.672-3.116 2.42-5.644 5.005-7.433 7.706-1.783 2.696-2.843 5.542-2.846 8.421 0 .972.123 1.941.377 2.889z" fill="#ff7182"/><path d="m152.471 110.137-.51-1.902c-6.375 1.708-11.863 2.323-16.34 2.323-4.346.001-7.747-.583-10.047-1.29-1.147-.351-2.021-.736-2.563-1.053a3.365 3.365 0 0 1 -.539-.372l-.043-.041-.006-.007-.553.459.654-.281c-.055-.126-.097-.171-.101-.178l-.553.459.654-.281-1.808.779 1.956-.226-1.008.116h1.015l-.007-.116-1.008.116h1.015-.545l.539.094.006-.094h-.545l.539.094.011-.042c.035-.126.183-.465.459-.892.482-.756 1.343-1.804 2.589-2.974 3.744-3.525 10.94-8.185 22.307-11.228 6.375-1.708 11.863-2.323 16.34-2.323 4.346-.001 7.747.583 10.047 1.29 1.147.351 2.021.736 2.563 1.053.27.156.456.296.539.372l.043.041.006.007.552-.459-.653.281c.055.126.097.171.101.178l.552-.459-.653.281 1.808-.779-1.956.224.999-.114h-1.005l.007.114.999-.114h-1.005.545l-.538-.094-.006.094h.545l-.538-.094-.011.042c-.035.126-.183.465-.459.892-.482.756-1.343 1.804-2.589 2.974-3.744 3.525-10.94 8.185-22.307 11.227l.506 1.903.51 1.902c9.692-2.597 16.626-6.336 21.188-9.806 2.282-1.737 3.971-3.402 5.134-4.866.582-.734 1.034-1.416 1.367-2.072.324-.666.572-1.27.589-2.1l-.019-.333-.033-.288-.115-.267c-.25-.562-.579-.916-.928-1.238-.617-.549-1.362-.987-2.297-1.414-2.787-1.254-7.314-2.306-13.487-2.313-4.837 0-10.666.664-17.359 2.457-9.692 2.597-16.626 6.337-21.188 9.806-2.282 1.738-3.971 3.402-5.134 4.866-.582.734-1.034 1.416-1.367 2.072-.324.666-.572 1.27-.589 2.1l.019.335.033.287.114.265c.25.562.579.916.928 1.238.617.549 1.362.987 2.297 1.414 2.787 1.254 7.314 2.306 13.487 2.313 4.837 0 10.666-.664 17.359-2.457z" fill="#fbbc4b"/><path d="m122.672 108.526-1.008.116h1.015l-.007-.116-1.008.116h1.015-.545l.539.094.006-.094h-.545l.539.094.011-.042c.035-.126.183-.465.459-.892.482-.756 1.343-1.804 2.589-2.974 3.744-3.525 10.94-8.185 22.307-11.228 6.375-1.708 11.863-2.323 16.34-2.323 4.346-.001 7.747.583 10.047 1.29 1.147.351 2.021.736 2.563 1.053.27.156.456.296.539.372l.043.041.006.007.552-.459-.653.281c.055.126.097.171.101.178l.552-.459-.653.281 3.616-1.558c-.25-.562-.579-.916-.928-1.238-.617-.549-1.362-.987-2.297-1.414-2.787-1.254-7.314-2.306-13.487-2.313-4.837 0-10.666.664-17.359 2.457-9.692 2.597-16.626 6.337-21.188 9.806-2.282 1.738-3.971 3.402-5.134 4.866-.582.734-1.034 1.416-1.367 2.072-.324.666-.572 1.27-.589 2.1l.019.335z" fill="#fbbc4b"/><path d="m122.672 108.526-1.008.116h1.015l-.007-.116-1.008.116h1.015-.545l.539.094.006-.094h-.545l.539.094.011-.042c.035-.126.183-.465.459-.892.482-.756 1.343-1.804 2.589-2.974 3.744-3.525 10.94-8.185 22.307-11.228 6.375-1.708 11.863-2.323 16.34-2.323 4.346-.001 7.747.583 10.047 1.29 1.147.351 2.021.736 2.563 1.053.27.156.456.296.539.372l.043.041.006.007.552-.459-.653.281c.055.126.097.171.101.178l.552-.459-.653.281 3.616-1.558c-.25-.562-.579-.916-.928-1.238-.617-.549-1.362-.987-2.297-1.414-2.787-1.254-7.314-2.306-13.487-2.313-4.837 0-10.666.664-17.359 2.457-9.692 2.597-16.626 6.337-21.188 9.806-2.282 1.738-3.971 3.402-5.134 4.866-.582.734-1.034 1.416-1.367 2.072-.324.666-.572 1.27-.589 2.1l.019.335z" fill="#e09d3c"/><path d="m113.779 110.624a7.182 7.182 0 0 1 -.243-1.87c-.003-1.885.71-4.008 2.192-6.249 2.213-3.357 6.132-6.883 11.291-9.996 5.157-3.12 11.54-5.846 18.651-7.75 6.654-1.784 13.115-2.626 18.855-2.625 6-.004 11.213.93 14.987 2.576 1.889.82 3.412 1.81 4.525 2.905 1.115 1.099 1.829 2.282 2.184 3.598l3.803-1.019c-.549-2.058-1.687-3.879-3.228-5.389-2.318-2.269-5.508-3.889-9.288-4.978-3.784-1.085-8.181-1.631-12.983-1.632-6.123.001-12.904.892-19.874 2.759-9.932 2.665-18.54 6.841-24.774 11.672-3.116 2.42-5.644 5.005-7.433 7.706-1.783 2.696-2.843 5.542-2.846 8.421 0 .972.123 1.941.377 2.889z" fill="#dd5771"/><path d="m162.585 147.884-.51-1.902a46.57 46.57 0 0 1 -12.065 1.595c-20.592 0-39.503-13.769-45.075-34.584a46.57 46.57 0 0 1 -1.595-12.065c0-20.591 13.768-39.503 34.584-45.075a46.563 46.563 0 0 1 12.064-1.595c20.592 0 39.504 13.768 45.076 34.584a46.569 46.569 0 0 1 1.595 12.064c0 20.591-13.769 39.503-34.584 45.075l.51 1.903.51 1.902c22.58-6.056 37.502-26.537 37.502-48.878a50.51 50.51 0 0 0 -1.729-13.084c-6.055-22.58-26.536-37.503-48.879-37.503-4.324 0-8.717.559-13.083 1.729-22.58 6.056-37.502 26.536-37.502 48.878 0 4.324.559 8.717 1.73 13.084 6.055 22.58 26.536 37.503 48.878 37.503a50.51 50.51 0 0 0 13.084-1.729z" fill="#86bf5a"/><path d="m188.123 90.704-1.902.509a37.536 37.536 0 0 1 1.287 9.729c-.001 16.551-11.049 31.712-27.803 36.197a37.588 37.588 0 0 1 -9.73 1.288c-16.551-.001-31.712-11.049-36.197-27.803a37.553 37.553 0 0 1 -1.288-9.731c.001-16.551 11.05-31.711 27.803-36.196a37.536 37.536 0 0 1 9.729-1.287c16.551.001 31.712 11.049 36.197 27.804l1.904-.51 1.902-.51c-4.964-18.513-21.699-30.723-40.001-30.722-3.551 0-7.16.46-10.748 1.422-18.512 4.964-30.723 21.699-30.722 40 0 3.551.46 7.161 1.422 10.75 4.964 18.512 21.699 30.723 40 30.722 3.551 0 7.161-.46 10.749-1.422 18.512-4.965 30.722-21.7 30.721-40.001 0-3.551-.46-7.16-1.421-10.748z" fill="#ff7182"/><path d="m157.845 130.199-.51-1.902a28.3 28.3 0 0 1 -7.329.969c-12.508 0-24.002-8.367-27.385-21.011a28.263 28.263 0 0 1 -.969-7.329c0-12.508 8.366-24.002 21.012-27.385a28.31 28.31 0 0 1 7.33-.97c12.507 0 24.001 8.366 27.384 21.012.657 2.45.969 4.909.969 7.329 0 12.507-8.366 24.002-21.012 27.385l.51 1.902.51 1.902c14.41-3.867 23.93-16.93 23.93-31.188a32.24 32.24 0 0 0 -1.103-8.348c-3.867-14.409-16.93-23.93-31.188-23.93a32.2 32.2 0 0 0 -8.349 1.104c-14.41 3.866-23.93 16.93-23.93 31.188 0 2.76.357 5.563 1.103 8.349 3.866 14.409 16.93 23.93 31.188 23.93a32.24 32.24 0 0 0 8.348-1.103z" fill="#fbbc4b"/><path d="m155.475 121.353c-9.731 2.608-19.737-2.043-24.227-10.619a21.675 21.675 0 0 1 -1.688-4.336c-3.02-11.274 3.691-22.894 14.965-25.915a21.11 21.11 0 0 1 15.318 1.712c5.048 2.656 9.012 7.324 10.595 13.243 3.02 11.274-3.69 22.895-14.963 25.915z" fill="#565656"/><path d="m186.221 91.213c.163.609.243 1.228.243 1.869.003 1.885-.71 4.008-2.192 6.248-2.213 3.357-6.133 6.883-11.291 9.997-5.157 3.12-11.54 5.846-18.65 7.751-6.653 1.783-13.114 2.625-18.854 2.625-6 .004-11.213-.93-14.988-2.576-1.889-.82-3.412-1.81-4.525-2.905-1.115-1.099-1.829-2.282-2.183-3.598l-.509-1.902-3.803 1.019.509 1.902c.549 2.058 1.687 3.879 3.228 5.388 2.318 2.269 5.508 3.889 9.289 4.977 3.784 1.085 8.182 1.631 12.983 1.632 6.123-.001 12.904-.892 19.873-2.759 9.931-2.665 18.539-6.841 24.773-11.672 3.116-2.42 5.644-5.005 7.433-7.706 1.783-2.696 2.843-5.542 2.846-8.421 0-.971-.123-1.941-.377-2.888l-.509-1.902-3.803 1.019z" fill="#ff808c"/><path d="m177.328 93.309.999-.114h-1.005l.006.114.999-.114h-1.005.545l-.538-.094-.006.094h.545l-.538-.094-.011.042c-.035.126-.183.465-.459.892-.482.756-1.343 1.804-2.589 2.974-3.744 3.525-10.94 8.185-22.307 11.227-6.375 1.708-11.863 2.323-16.34 2.323-4.346.001-7.747-.583-10.047-1.29-1.147-.351-2.021-.736-2.563-1.053a3.365 3.365 0 0 1 -.539-.372l-.043-.041-.006-.007-.553.459.654-.281c-.055-.126-.097-.171-.101-.178l-.553.459-.125-2.09-3.616 1.557c1.029 2.37 1.358 2.724 1.707 3.046.617.549 1.362.987 2.297 1.414 2.787 1.254 7.314 2.306 13.487 2.313 4.837 0 10.666-.664 17.359-2.457 9.692-2.597 16.626-6.336 21.188-9.806 2.282-1.737 3.971-3.402 5.134-4.866.582-.734 1.034-1.416 1.367-2.072.324-.666.572-1.27.589-2.1l-.019-.333-.224-1.956-3.912.447z" fill="#ffc76c"/><path d="m195.064 88.843c.305 1.139.554 2.585.554 4.269-.002 2.367-.484 5.201-2.034 8.387-1.551 3.184-4.183 6.73-8.553 10.444-7.005 5.959-17.108 10.975-28.332 13.978-7.268 1.948-14.547 2.936-21.235 2.935-3.64 0-7.103-.292-10.291-.875-7.652-1.402-12.373-4.119-15.365-6.956-2.988-2.841-4.288-5.859-4.873-8.032l-.51-1.902-3.803 1.019.51 1.902c.723 2.711 2.363 6.448 5.964 9.867 3.597 3.423 9.114 6.472 17.37 7.975 3.453.631 7.148.939 10.998.939 7.073-.001 14.673-1.039 22.254-3.069 11.706-3.142 22.27-8.338 29.863-14.781 4.718-4.007 7.726-7.988 9.543-11.72 1.819-3.73 2.433-7.201 2.431-10.111 0-2.073-.306-3.863-.688-5.288l-.51-1.902-3.803 1.019z" fill="#9ecc72"/></svg>