<svg version="1" xmlns="http://www.w3.org/2000/svg" viewBox="0 0 300 300"><path fill="#FFF" d="M150 300C67.29 300 0 232.71 0 150S67.29 0 150 0s150 67.29 150 150-67.29 150-150 150"/><path fill="#86BF5A" d="M290.812 150c0 77.768-63.044 140.812-140.812 140.812S9.188 227.768 9.188 150 72.232 9.188 150 9.188 290.812 72.232 290.812 150"/><path fill="#4C4C4C" d="M159.787 97.545v-2.337l-5.8-19.605h-7.977l-5.798 19.563v2.38c0 .764.14 1.114.614 1.42l1.01.652a1.4 1.4 0 0 0 .756.223h14.816c.268 0 .53-.074.755-.22l1.01-.653c.474-.305.614-.84.614-1.42m-2.323 41.02L189.76 219.7v7.93c0 1.306-1.435 1.79-2.835 1.13L150 211.344l-36.925 17.412c-1.4.66-2.834-.27-2.834-1.547v-7.61l32.298-81.036c2.492-5.962 12.436-5.962 14.928 0z"/><path fill="#565656" d="M157.464 130.637L189.7 219.38c.41 1.175-1.375 2.108-2.775 1.448L150 203.415l-36.925 17.413c-1.4.66-3.185-.272-2.774-1.45l32.238-88.74c2.492-5.964 12.436-5.964 14.928 0z"/><path fill="#FFEEF0" d="M177.2 201.244l-22.135-9.09-5.07-10.64h-19.97a.85.85 0 0 1-.798-1.14l13.312-36.65c2.492-5.965 12.43-5.965 14.924 0l20.593 56.695a.65.65 0 0 1-.86.822z"/><path fill="#DBC8CC" d="M156.516 159.09H143.49a.492.492 0 0 1-.493-.49v-7.235c0-.27.22-.492.492-.492h13.024c.27 0 .492.22.492.492v7.234c0 .27-.22.49-.492.49z"/><path fill="#F2DADE" d="M156.516 157.95H143.49a.492.492 0 0 1-.493-.492v-7.234c0-.27.22-.492.492-.492h13.024c.27 0 .492.22.492.492v7.234c0 .272-.22.492-.492.492z"/><path fill="#DBC8CC" d="M155.02 166.968h-10.04a1.478 1.478 0 0 1-1.478-1.478v-.883h12.994v.883a1.48 1.48 0 0 1-1.48 1.478z"/><path fill="#F2DADE" d="M155.02 166.086h-10.04a1.478 1.478 0 1 1 0-2.956h10.037a1.478 1.478 0 1 1 0 2.956z"/><path fill="#DBC8CC" d="M157.04 184.614h-14.08a2.074 2.074 0 0 1-2.074-2.074v-1.238h18.226v1.238a2.072 2.072 0 0 1-2.073 2.074z"/><path fill="#F2DADE" d="M157.04 183.376h-14.08a2.074 2.074 0 1 1 0-4.148h14.08a2.074 2.074 0 1 1 0 4.148z"/><path fill="#565656" d="M159.788 94.03l-5.59-21.98a1.46 1.46 0 0 0-1.416-1.1h-5.565a1.46 1.46 0 0 0-1.415 1.1l-5.59 21.98a1.39 1.39 0 0 0 .614 1.422l1.01.653a1.4 1.4 0 0 0 .756.223h14.816c.268 0 .53-.077.755-.223l1.01-.653c.474-.306.716-.867.615-1.42z"/><path fill="#FFCD7D" d="M154.27 99.146v54.318c0 .53-.193.948-.438.948h-7.66c-.245 0-.44-.418-.44-.948V99.146c0-.516.194-.948.44-.948h7.66c.246 0 .44.433.44.948"/><path fill="#E0B46E" d="M153.832 98.2h-7.66c-.245 0-.44.43-.44.947v1.604h8.54V99.15c0-.515-.194-.947-.44-.947"/><path fill="#3F3F3F" d="M153.94 182.17a.656.656 0 0 1-.656-.655V89.763a.656.656 0 1 1 1.312 0v91.752a.656.656 0 0 1-.656.656zm-3.937 0a.656.656 0 0 1-.656-.655V80.33a.656.656 0 1 1 1.312 0v101.184a.657.657 0 0 1-.66.657zm-3.938 0a.656.656 0 0 1-.656-.655V85.087a.656.656 0 1 1 1.31 0v96.427a.656.656 0 0 1-.657.657z"/></svg>