<?xml version="1.0" encoding="utf-8"?>
<!-- Generator: Adobe Illustrator 23.0.6, SVG Export Plug-In . SVG Version: 6.00 Build 0)  -->
<svg version="1.0" id="Camada_1" xmlns="http://www.w3.org/2000/svg" xmlns:xlink="http://www.w3.org/1999/xlink" x="0px" y="0px"
	 viewBox="0 0 300 300" enable-background="new 0 0 300 300" xml:space="preserve">
<path fill="#D6566E" d="M-1873.979,5969.248h-182.787c-5.523,0-10-4.477-10-10v-182.787c0-5.523,4.477-10,10-10h182.787
	c5.523,0,10,4.477,10,10v182.787C-1863.979,5964.771-1868.456,5969.248-1873.979,5969.248z"/>
<path fill="#ED6979" d="M-1975.373,5969.248h-182.787c-5.523,0-10-4.477-10-10v-182.787c0-5.523,4.477-10,10-10h182.787
	c5.523,0,10,4.477,10,10v182.787C-1965.373,5964.771-1969.85,5969.248-1975.373,5969.248z"/>
<path fill="#FF7182" d="M-2076.766,5969.248h-182.787c-5.523,0-10-4.477-10-10v-182.787c0-5.523,4.477-10,10-10h182.787
	c5.523,0,10,4.477,10,10v182.787C-2066.766,5964.771-2071.243,5969.248-2076.766,5969.248z"/>
<g>
	<path fill="#E59623" d="M-1267.012,5969.248h-182.787c-5.523,0-10-4.477-10-10v-182.787c0-5.523,4.477-10,10-10h182.787
		c5.523,0,10,4.477,10,10v182.787C-1257.012,5964.771-1261.489,5969.248-1267.012,5969.248z"/>
	<path fill="#F2A12C" d="M-1368.405,5969.248h-182.787c-5.523,0-10-4.477-10-10v-182.787c0-5.523,4.477-10,10-10h182.787
		c5.523,0,10,4.477,10,10v182.787C-1358.405,5964.771-1362.883,5969.248-1368.405,5969.248z"/>
	<path fill="#FFB031" d="M-1469.799,5969.248h-182.787c-5.523,0-10-4.477-10-10v-182.787c0-5.523,4.477-10,10-10h182.787
		c5.523,0,10,4.477,10,10v182.787C-1459.799,5964.771-1464.276,5969.248-1469.799,5969.248z"/>
</g>
<g>
	<path fill="#A8A8A8" d="M-1772.586,6284.519h-182.787c-5.523,0-10-4.477-10-10v-182.787c0-5.523,4.477-10,10-10h182.787
		c5.523,0,10,4.477,10,10v182.787C-1762.586,6280.042-1767.063,6284.519-1772.586,6284.519z"/>
	<path fill="#B7B7B7" d="M-1873.979,6284.519h-182.787c-5.523,0-10-4.477-10-10v-182.787c0-5.523,4.477-10,10-10h182.787
		c5.523,0,10,4.477,10,10v182.787C-1863.979,6280.042-1868.456,6284.519-1873.979,6284.519z"/>
	<path fill="#BFBFBF" d="M-1975.373,6284.519h-182.787c-5.523,0-10-4.477-10-10v-182.787c0-5.523,4.477-10,10-10h182.787
		c5.523,0,10,4.477,10,10v182.787C-1965.373,6280.042-1969.85,6284.519-1975.373,6284.519z"/>
	<path fill="#C9C9C9" d="M-2076.766,6284.519h-182.787c-5.523,0-10-4.477-10-10v-182.787c0-5.523,4.477-10,10-10h182.787
		c5.523,0,10,4.477,10,10v182.787C-2066.766,6280.042-2071.243,6284.519-2076.766,6284.519z"/>
</g>
<g>
	<path fill="#D6D6D6" d="M-1165.619,6284.519h-182.787c-5.523,0-10-4.477-10-10v-182.787c0-5.523,4.477-10,10-10h182.787
		c5.523,0,10,4.477,10,10v182.787C-1155.619,6280.042-1160.096,6284.519-1165.619,6284.519z"/>
	<path fill="#E2E2E2" d="M-1267.012,6284.519h-182.787c-5.523,0-10-4.477-10-10v-182.787c0-5.523,4.477-10,10-10h182.787
		c5.523,0,10,4.477,10,10v182.787C-1257.012,6280.042-1261.489,6284.519-1267.012,6284.519z"/>
	<path fill="#EFEFEF" d="M-1368.405,6284.519h-182.787c-5.523,0-10-4.477-10-10v-182.787c0-5.523,4.477-10,10-10h182.787
		c5.523,0,10,4.477,10,10v182.787C-1358.405,6280.042-1362.883,6284.519-1368.405,6284.519z"/>
	<path fill="#FFFFFF" d="M-1469.799,6284.519h-182.787c-5.523,0-10-4.477-10-10v-182.787c0-5.523,4.477-10,10-10h182.787
		c5.523,0,10,4.477,10,10v182.787C-1459.799,6280.042-1464.276,6284.519-1469.799,6284.519z"/>
</g>
<g>
	<path fill="#5EBCB5" d="M-761.438,5969.248h-182.787c-5.523,0-10-4.477-10-10v-182.787c0-5.523,4.477-10,10-10h182.787
		c5.523,0,10,4.477,10,10v182.787C-751.438,5964.771-755.915,5969.248-761.438,5969.248z"/>
	<path fill="#6DE2DE" d="M-862.832,5969.248h-182.787c-5.523,0-10-4.477-10-10v-182.787c0-5.523,4.477-10,10-10h182.787
		c5.523,0,10,4.477,10,10v182.787C-852.832,5964.771-857.309,5969.248-862.832,5969.248z"/>
</g>
<g>
	<path fill="#57DD50" d="M-761.438,6284.519h-182.787c-5.523,0-10-4.477-10-10v-182.787c0-5.523,4.477-10,10-10h182.787
		c5.523,0,10,4.477,10,10v182.787C-751.438,6280.042-755.915,6284.519-761.438,6284.519z"/>
	<path fill="#68F964" d="M-862.832,6284.519h-182.787c-5.523,0-10-4.477-10-10v-182.787c0-5.523,4.477-10,10-10h182.787
		c5.523,0,10,4.477,10,10v182.787C-852.832,6280.042-857.309,6284.519-862.832,6284.519z"/>
</g>
<g>
	<path fill="#3D3D3D" d="M-154.471,5969.248h-182.787c-5.523,0-10-4.477-10-10v-182.787c0-5.523,4.477-10,10-10h182.787
		c5.523,0,10,4.477,10,10v182.787C-144.471,5964.771-148.948,5969.248-154.471,5969.248z"/>
	<path fill="#515151" d="M-255.865,5969.248h-182.787c-5.523,0-10-4.477-10-10v-182.787c0-5.523,4.477-10,10-10h182.787
		c5.523,0,10,4.477,10,10v182.787C-245.865,5964.771-250.342,5969.248-255.865,5969.248z"/>
	<path fill="#5E5E5E" d="M-357.258,5969.248h-182.787c-5.523,0-10-4.477-10-10v-182.787c0-5.523,4.477-10,10-10h182.787
		c5.523,0,10,4.477,10,10v182.787C-347.258,5964.771-351.735,5969.248-357.258,5969.248z"/>
</g>
<g>
	
		<ellipse transform="matrix(0.7071 -0.7071 0.7071 0.7071 -62.1321 149.9998)" fill="#FFFFFF" cx="150" cy="150" rx="150" ry="150"/>
	<circle fill="#FF7182" cx="150" cy="150" r="140.812"/>
</g>
<g>
	<g>
		<polygon fill="#BFBFBF" points="91.821,131.285 94.155,129.88 94.155,134.283 91.867,132.322 		"/>
		<polygon fill="#BFBFBF" points="127.851,131.319 125.517,129.914 125.517,134.317 127.805,132.356 		"/>
		<path fill="#D1D1D1" d="M127.247,132.73c0,5.451-2.511,10.312-6.433,13.492c-0.254,0.211-0.517,0.415-0.786,0.604
			c-0.691,0.408-1.652,0.764-2.809,1.062l-0.029,0.604c-2.227,1.041-4.708,1.623-7.328,1.623c-2.62,0-5.101-0.582-7.328-1.623
			l-0.029-0.604c-1.157-0.298-2.118-0.655-2.809-1.062c-0.269-0.189-0.532-0.393-0.786-0.604c-3.922-3.18-6.433-8.041-6.433-13.492
			c0-9.606,7.787-17.385,17.385-17.385S127.247,123.124,127.247,132.73z"/>
		<path fill="#EDEDED" d="M124.94,141.368c-1.062,1.863-2.474,3.508-4.126,4.854c-0.254,0.211-0.517,0.415-0.786,0.604
			c-0.691,0.408-1.652,0.764-2.809,1.062l-0.029,0.604c-2.227,1.041-4.708,1.623-7.328,1.623c-2.62,0-5.101-0.582-7.328-1.623
			l-0.029-0.604c-1.157-0.298-2.118-0.655-2.809-1.062c-0.269-0.189-0.532-0.393-0.786-0.604c-1.652-1.346-3.064-2.991-4.126-4.854
			c3.005-2.365,8.631-3.959,15.078-3.959S121.935,139.002,124.94,141.368z"/>
		<path fill="#9E9E9E" d="M121.251,145.283c0,0.328-0.153,0.64-0.437,0.939c-0.196,0.211-0.465,0.415-0.786,0.604
			c-0.691,0.408-1.652,0.764-2.809,1.062c-1.987,0.502-4.548,0.808-7.357,0.808s-5.37-0.306-7.357-0.808
			c-1.157-0.298-2.118-0.655-2.809-1.062c-0.321-0.189-0.59-0.393-0.786-0.604c-0.284-0.298-0.437-0.611-0.437-0.939
			c0-1.885,5.101-3.413,11.389-3.413C116.149,141.87,121.251,143.398,121.251,145.283z"/>
		<path fill="#BFBFBF" d="M127.99,132.056c0.009,0.254-0.264,0.418-0.485,0.293c-1.814-1.032-8.382-4.359-17.643-4.359
			c-9.251,0-15.814,3.32-17.637,4.355c-0.224,0.127-0.5-0.038-0.491-0.295l0.062-1.742c0.016-0.459,0.27-0.874,0.674-1.092
			c1.981-1.068,8.373-4.085,17.393-4.085c9.014,0,15.403,3.013,17.388,4.083c0.407,0.219,0.662,0.637,0.678,1.099L127.99,132.056z"
			/>
		<path fill="#565656" d="M117.234,147.546l-0.015,0.342l-0.029,0.604l-1.506,31.532H104.04l-1.506-31.532l-0.029-0.604
			l-0.015-0.342c0-1.252,3.296-2.263,7.372-2.263S117.234,146.294,117.234,147.546z"/>
		<path fill="#EDEDED" d="M102.534,148.492l0.145,3.031c0.745-1.008,3.672-1.76,7.183-1.76c3.511,0,6.439,0.752,7.183,1.76
			l0.145-3.031l0.029-0.604l0.015-0.342c0-1.252-3.296-2.263-7.372-2.263s-7.372,1.012-7.372,2.263l0.015,0.342L102.534,148.492z"/>
		<ellipse fill="#4C4C4C" cx="109.862" cy="180.02" rx="5.822" ry="2.299"/>
	</g>
	<g>
		<polygon fill="#262525" points="144.588,197.593 147.125,194.664 143.221,194.469 143.221,197.596 		"/>
		<polygon fill="#262525" points="173.869,197.59 176.407,194.661 172.503,194.466 172.503,197.593 		"/>
		<g>
			<rect x="134.242" y="194.86" fill="#3D3D3D" width="10.346" height="2.733"/>
			<rect x="163.523" y="194.86" fill="#3D3D3D" width="10.346" height="2.733"/>
		</g>
		<g>
			<path fill="#3D3D3D" d="M193.246,195.249h-57.328c-8.295,0-15.02-7.146-15.02-15.961v-60.921c0-8.815,6.725-15.961,15.02-15.961
				h48.297c8.295,0,24.051,5.477,24.051,37.294v39.589C208.266,188.102,201.542,195.249,193.246,195.249z"/>
			<path fill="#515151" d="M178.909,195.249h-45.344c-7.86,0-14.231-6.371-14.231-14.231v-64.382c0-7.86,6.372-14.231,14.231-14.231
				h45.344c7.86,0,14.231,6.371,14.231,14.231v64.382C193.14,188.877,186.768,195.249,178.909,195.249z"/>
			<g>
				<circle fill="#3D3D3D" cx="154.986" cy="151.094" r="23.259"/>
				<circle fill="#FFB031" cx="154.986" cy="151.094" r="18.122"/>
				<circle fill="#3D3D3D" cx="154.986" cy="151.094" r="11.397"/>
				<circle fill="#515151" cx="154.986" cy="151.094" r="8.141"/>
				<circle fill="#5E5E5E" cx="154.986" cy="151.094" r="5.554"/>
			</g>
			<circle fill="#515151" cx="134.982" cy="114.401" r="3.651"/>
			<path fill="#3D3D3D" d="M176.71,186.381h-40.424c-1.239,0-5.946-1.004-5.946-2.243v-2.816c0-1.239,1.004-2.243,2.243-2.243h48.09
				c1.239,0,2.243,1.004,2.243,2.243v2.816C182.917,185.377,177.949,186.381,176.71,186.381z"/>
			<circle fill="#3D3D3D" cx="132.165" cy="174.385" r="1.826"/>
			<circle fill="#3D3D3D" cx="180.361" cy="174.385" r="1.826"/>
			<circle fill="#3D3D3D" cx="132.165" cy="120.399" r="1.826"/>
			<circle fill="#3D3D3D" cx="180.361" cy="120.399" r="1.826"/>
			<g>
				<circle fill="#3D3D3D" cx="154.281" cy="117.531" r="6.52"/>
				<circle fill="#515151" cx="154.281" cy="117.531" r="5.477"/>
				<circle fill="#5E5E5E" cx="154.281" cy="117.531" r="4.694"/>
			</g>
		</g>
	</g>
</g>
</svg>
