<?xml version="1.0" encoding="utf-8"?>
<!-- Generator: Adobe Illustrator 23.0.6, SVG Export Plug-In . SVG Version: 6.00 Build 0)  -->
<svg version="1.0" id="Camada_1" xmlns="http://www.w3.org/2000/svg" xmlns:xlink="http://www.w3.org/1999/xlink" x="0px" y="0px"
	 viewBox="0 0 300 300" enable-background="new 0 0 300 300" xml:space="preserve">
<path fill="#D6566E" d="M-1873.979,5969.248h-182.787c-5.523,0-10-4.477-10-10v-182.787c0-5.523,4.477-10,10-10h182.787
	c5.523,0,10,4.477,10,10v182.787C-1863.979,5964.771-1868.456,5969.248-1873.979,5969.248z"/>
<path fill="#ED6979" d="M-1975.373,5969.248h-182.787c-5.523,0-10-4.477-10-10v-182.787c0-5.523,4.477-10,10-10h182.787
	c5.523,0,10,4.477,10,10v182.787C-1965.373,5964.771-1969.85,5969.248-1975.373,5969.248z"/>
<path fill="#FF7182" d="M-2076.766,5969.248h-182.787c-5.523,0-10-4.477-10-10v-182.787c0-5.523,4.477-10,10-10h182.787
	c5.523,0,10,4.477,10,10v182.787C-2066.766,5964.771-2071.243,5969.248-2076.766,5969.248z"/>
<g>
	<path fill="#E59623" d="M-1267.012,5969.248h-182.787c-5.523,0-10-4.477-10-10v-182.787c0-5.523,4.477-10,10-10h182.787
		c5.523,0,10,4.477,10,10v182.787C-1257.012,5964.771-1261.489,5969.248-1267.012,5969.248z"/>
	<path fill="#F2A12C" d="M-1368.405,5969.248h-182.787c-5.523,0-10-4.477-10-10v-182.787c0-5.523,4.477-10,10-10h182.787
		c5.523,0,10,4.477,10,10v182.787C-1358.405,5964.771-1362.883,5969.248-1368.405,5969.248z"/>
	<path fill="#FFB031" d="M-1469.799,5969.248h-182.787c-5.523,0-10-4.477-10-10v-182.787c0-5.523,4.477-10,10-10h182.787
		c5.523,0,10,4.477,10,10v182.787C-1459.799,5964.771-1464.276,5969.248-1469.799,5969.248z"/>
</g>
<g>
	<path fill="#A8A8A8" d="M-1772.586,6284.519h-182.787c-5.523,0-10-4.477-10-10v-182.787c0-5.523,4.477-10,10-10h182.787
		c5.523,0,10,4.477,10,10v182.787C-1762.586,6280.042-1767.063,6284.519-1772.586,6284.519z"/>
	<path fill="#B7B7B7" d="M-1873.979,6284.519h-182.787c-5.523,0-10-4.477-10-10v-182.787c0-5.523,4.477-10,10-10h182.787
		c5.523,0,10,4.477,10,10v182.787C-1863.979,6280.042-1868.456,6284.519-1873.979,6284.519z"/>
	<path fill="#BFBFBF" d="M-1975.373,6284.519h-182.787c-5.523,0-10-4.477-10-10v-182.787c0-5.523,4.477-10,10-10h182.787
		c5.523,0,10,4.477,10,10v182.787C-1965.373,6280.042-1969.85,6284.519-1975.373,6284.519z"/>
	<path fill="#C9C9C9" d="M-2076.766,6284.519h-182.787c-5.523,0-10-4.477-10-10v-182.787c0-5.523,4.477-10,10-10h182.787
		c5.523,0,10,4.477,10,10v182.787C-2066.766,6280.042-2071.243,6284.519-2076.766,6284.519z"/>
</g>
<g>
	<path fill="#D6D6D6" d="M-1165.619,6284.519h-182.787c-5.523,0-10-4.477-10-10v-182.787c0-5.523,4.477-10,10-10h182.787
		c5.523,0,10,4.477,10,10v182.787C-1155.619,6280.042-1160.096,6284.519-1165.619,6284.519z"/>
	<path fill="#E2E2E2" d="M-1267.012,6284.519h-182.787c-5.523,0-10-4.477-10-10v-182.787c0-5.523,4.477-10,10-10h182.787
		c5.523,0,10,4.477,10,10v182.787C-1257.012,6280.042-1261.489,6284.519-1267.012,6284.519z"/>
	<path fill="#EFEFEF" d="M-1368.405,6284.519h-182.787c-5.523,0-10-4.477-10-10v-182.787c0-5.523,4.477-10,10-10h182.787
		c5.523,0,10,4.477,10,10v182.787C-1358.405,6280.042-1362.883,6284.519-1368.405,6284.519z"/>
	<path fill="#FFFFFF" d="M-1469.799,6284.519h-182.787c-5.523,0-10-4.477-10-10v-182.787c0-5.523,4.477-10,10-10h182.787
		c5.523,0,10,4.477,10,10v182.787C-1459.799,6280.042-1464.276,6284.519-1469.799,6284.519z"/>
</g>
<g>
	<path fill="#5EBCB5" d="M-761.438,5969.248h-182.787c-5.523,0-10-4.477-10-10v-182.787c0-5.523,4.477-10,10-10h182.787
		c5.523,0,10,4.477,10,10v182.787C-751.438,5964.771-755.915,5969.248-761.438,5969.248z"/>
	<path fill="#6DE2DE" d="M-862.832,5969.248h-182.787c-5.523,0-10-4.477-10-10v-182.787c0-5.523,4.477-10,10-10h182.787
		c5.523,0,10,4.477,10,10v182.787C-852.832,5964.771-857.309,5969.248-862.832,5969.248z"/>
</g>
<g>
	<path fill="#57DD50" d="M-761.438,6284.519h-182.787c-5.523,0-10-4.477-10-10v-182.787c0-5.523,4.477-10,10-10h182.787
		c5.523,0,10,4.477,10,10v182.787C-751.438,6280.042-755.915,6284.519-761.438,6284.519z"/>
	<path fill="#68F964" d="M-862.832,6284.519h-182.787c-5.523,0-10-4.477-10-10v-182.787c0-5.523,4.477-10,10-10h182.787
		c5.523,0,10,4.477,10,10v182.787C-852.832,6280.042-857.309,6284.519-862.832,6284.519z"/>
</g>
<g>
	<path fill="#3D3D3D" d="M-154.471,5969.248h-182.787c-5.523,0-10-4.477-10-10v-182.787c0-5.523,4.477-10,10-10h182.787
		c5.523,0,10,4.477,10,10v182.787C-144.471,5964.771-148.948,5969.248-154.471,5969.248z"/>
	<path fill="#515151" d="M-255.865,5969.248h-182.787c-5.523,0-10-4.477-10-10v-182.787c0-5.523,4.477-10,10-10h182.787
		c5.523,0,10,4.477,10,10v182.787C-245.865,5964.771-250.342,5969.248-255.865,5969.248z"/>
	<path fill="#5E5E5E" d="M-357.258,5969.248h-182.787c-5.523,0-10-4.477-10-10v-182.787c0-5.523,4.477-10,10-10h182.787
		c5.523,0,10,4.477,10,10v182.787C-347.258,5964.771-351.735,5969.248-357.258,5969.248z"/>
</g>
<g>
	
		<ellipse transform="matrix(0.7071 -0.7071 0.7071 0.7071 -62.1321 149.9998)" fill="#FFFFFF" cx="150" cy="150" rx="150" ry="150"/>
	<circle fill="#FF7182" cx="150" cy="150" r="140.812"/>
</g>
<g>
	<g>
		<polygon fill="#BFBFBF" points="68.123,123.662 71.408,121.684 71.408,127.881 68.188,125.121 		"/>
		<polygon fill="#BFBFBF" points="118.83,123.71 115.545,121.732 115.545,127.929 118.765,125.169 		"/>
		<path fill="#D1D1D1" d="M117.979,125.695c0,7.671-3.533,14.512-9.054,18.988c-0.358,0.297-0.727,0.584-1.106,0.85
			c-0.973,0.574-2.324,1.075-3.953,1.495l-0.041,0.85c-3.134,1.464-6.626,2.284-10.313,2.284c-3.687,0-7.179-0.819-10.313-2.284
			l-0.041-0.85c-1.629-0.42-2.98-0.922-3.953-1.495c-0.379-0.266-0.748-0.553-1.106-0.85c-5.52-4.475-9.054-11.317-9.054-18.988
			c0-13.519,10.958-24.467,24.467-24.467S117.979,112.176,117.979,125.695z"/>
		<path fill="#EDEDED" d="M114.732,137.851c-1.495,2.622-3.482,4.936-5.807,6.831c-0.358,0.297-0.727,0.584-1.106,0.85
			c-0.973,0.574-2.324,1.075-3.953,1.495l-0.041,0.85c-3.134,1.464-6.626,2.284-10.313,2.284c-3.687,0-7.179-0.819-10.313-2.284
			l-0.041-0.85c-1.629-0.42-2.98-0.922-3.953-1.495c-0.379-0.266-0.748-0.553-1.106-0.85c-2.325-1.895-4.312-4.209-5.807-6.831
			c4.23-3.328,12.146-5.571,21.22-5.571S110.503,134.523,114.732,137.851z"/>
		<path fill="#9E9E9E" d="M109.54,143.361c0,0.461-0.215,0.901-0.615,1.321c-0.276,0.297-0.655,0.584-1.106,0.85
			c-0.973,0.574-2.324,1.075-3.953,1.495c-2.796,0.707-6.401,1.137-10.354,1.137c-3.953,0-7.558-0.43-10.354-1.137
			c-1.629-0.42-2.98-0.922-3.953-1.495c-0.451-0.266-0.83-0.553-1.106-0.85c-0.4-0.42-0.615-0.86-0.615-1.321
			c0-2.652,7.179-4.803,16.028-4.803S109.54,140.709,109.54,143.361z"/>
		<path fill="#BFBFBF" d="M119.025,124.747c0.013,0.358-0.371,0.589-0.682,0.412c-2.553-1.452-11.796-6.134-24.83-6.134
			c-13.019,0-22.256,4.672-24.821,6.129c-0.315,0.179-0.703-0.054-0.691-0.416l0.087-2.451c0.023-0.646,0.379-1.23,0.948-1.537
			c2.788-1.504,11.783-5.749,24.477-5.749c12.685,0,21.677,4.24,24.471,5.746c0.573,0.309,0.931,0.897,0.954,1.547L119.025,124.747z
			"/>
		<path fill="#565656" d="M103.887,146.546l-0.021,0.481l-0.041,0.85l-2.12,44.376H85.319l-2.12-44.376l-0.041-0.85l-0.021-0.481
			c0-1.761,4.639-3.185,10.374-3.185C99.248,143.361,103.887,144.785,103.887,146.546z"/>
		<path fill="#EDEDED" d="M83.199,147.878l0.204,4.266c1.048-1.419,5.168-2.477,10.109-2.477c4.942,0,9.061,1.058,10.109,2.477
			l0.204-4.266l0.041-0.85l0.021-0.481c0-1.761-4.639-3.185-10.374-3.185c-5.735,0-10.374,1.424-10.374,3.185l0.021,0.481
			L83.199,147.878z"/>
		<ellipse fill="#4C4C4C" cx="93.512" cy="192.249" rx="8.193" ry="3.236"/>
	</g>
	<g>
		<polygon fill="#262525" points="142.383,216.979 145.954,212.858 140.46,212.583 140.46,216.983 		"/>
		<polygon fill="#262525" points="183.592,216.974 187.163,212.853 181.669,212.579 181.669,216.979 		"/>
		<g>
			<rect x="127.823" y="213.132" fill="#3D3D3D" width="14.56" height="3.846"/>
			<rect x="169.031" y="213.132" fill="#3D3D3D" width="14.56" height="3.846"/>
		</g>
		<g>
			<path fill="#3D3D3D" d="M210.862,213.68h-80.679c-11.674,0-21.138-10.057-21.138-22.463V105.48
				c0-12.406,9.464-22.463,21.138-22.463h67.97c11.674,0,33.847,7.708,33.847,52.485v55.714
				C232,203.623,222.536,213.68,210.862,213.68z"/>
			<path fill="#515151" d="M190.684,213.68h-63.814c-11.061,0-20.028-8.967-20.028-20.028v-90.607
				c0-11.061,8.967-20.028,20.028-20.028h63.814c11.061,0,20.028,8.967,20.028,20.028v90.607
				C210.712,204.713,201.745,213.68,190.684,213.68z"/>
			<g>
				<circle fill="#3D3D3D" cx="157.018" cy="151.539" r="32.733"/>
				<circle fill="#FFB031" cx="157.018" cy="151.539" r="25.504"/>
				<circle fill="#3D3D3D" cx="157.018" cy="151.539" r="16.039"/>
				<circle fill="#515151" cx="157.018" cy="151.539" r="11.457"/>
				<circle fill="#5E5E5E" cx="157.018" cy="151.539" r="7.817"/>
			</g>
			<circle fill="#515151" cx="128.865" cy="99.9" r="5.138"/>
			<path fill="#3D3D3D" d="M187.589,201.201H130.7c-1.744,0-8.368-1.414-8.368-3.157v-3.962c0-1.744,1.414-3.157,3.157-3.157h67.679
				c1.744,0,3.157,1.414,3.157,3.157v3.962C196.325,199.787,189.333,201.201,187.589,201.201z"/>
			<circle fill="#3D3D3D" cx="124.901" cy="184.317" r="2.569"/>
			<circle fill="#3D3D3D" cx="192.728" cy="184.317" r="2.569"/>
			<circle fill="#3D3D3D" cx="124.901" cy="108.342" r="2.569"/>
			<circle fill="#3D3D3D" cx="192.728" cy="108.342" r="2.569"/>
			<g>
				<circle fill="#3D3D3D" cx="156.025" cy="104.305" r="9.176"/>
				<circle fill="#515151" cx="156.025" cy="104.305" r="7.708"/>
				<circle fill="#5E5E5E" cx="156.025" cy="104.305" r="6.607"/>
			</g>
		</g>
	</g>
</g>
</svg>
