<svg version="1" xmlns="http://www.w3.org/2000/svg" viewBox="0 0 300 300"><path fill="#FFF" d="M150 300C67.29 300 0 232.71 0 150S67.29 0 150 0s150 67.29 150 150-67.29 150-150 150z"/><circle fill="#EB595B" cx="150" cy="150" r="140.812"/><path fill="#D7FAFF" d="M216.395 150c0 .34 0 .688-.01 1.027a65.96 65.96 0 0 1-8.3 31.148c-.38.7-.77 1.377-1.183 2.055-7.304 12.122-18.39 21.728-31.61 27.172-7.797 3.226-16.334 4.993-25.293 4.993-8.98 0-17.55-1.777-25.357-5.013-13.2-5.455-24.255-15.04-31.55-27.152a40.725 40.725 0 0 1-1.18-2.055c-5.148-9.246-8.137-19.858-8.302-31.148-.01-.34-.01-.688-.01-1.027s0-.688.01-1.027c.165-11.29 3.155-21.892 8.29-31.138.38-.688.78-1.377 1.193-2.055 7.283-12.102 18.327-21.687 31.508-27.142C132.42 85.392 141 83.605 150 83.605c8.967 0 17.525 1.777 25.332 5.013 13.2 5.445 24.265 15.04 31.57 27.162.41.678.81 1.366 1.19 2.055 5.138 9.246 8.127 19.848 8.29 31.138.012.34.012.688.012 1.027z"/><path fill="#FFF" d="M209.255 148.974H197.95c-.122-11.258-2.204-21.86-5.805-31.143h9.427c4.75 9.23 7.523 19.84 7.683 31.146zm-44.134-33.197h-30.25c4.927-18.845 12.53-31.143 15.127-31.143 2.597 0 10.2 12.298 15.126 31.143zm-11.41-30.91c14.953 1.712 27.907 13.655 35.387 30.91H167.26c-1.396-5.466-2.887-9.913-4.075-13.084-2.665-7.12-6.233-14.282-9.478-17.827zm-23.254 64.107c.09-11.4 1.66-21.984 3.902-31.143h31.28c2.24 9.16 3.81 19.746 3.9 31.146h-39.082zm39.083 2.055c-.09 11.4-1.66 21.98-3.903 31.14h-31.28c-2.24-9.16-3.81-19.744-3.9-31.14h39.082zm-32.733-48.34c-1.188 3.17-2.68 7.62-4.076 13.084h-21.834c7.48-17.255 20.434-29.198 35.388-30.91-3.244 3.545-6.812 10.707-9.478 17.826zm-4.58 15.14c-2.028 8.47-3.73 19.12-3.824 31.142H104.1c.122-11.305 2.27-21.918 5.95-31.143h22.18zm-3.824 33.197c.095 12.022 1.797 22.67 3.825 31.14H110.05c-3.68-9.224-5.828-19.837-5.95-31.14h24.3zm4.33 33.196c1.396 5.466 2.887 9.913 4.075 13.084 2.666 7.12 6.234 14.28 9.48 17.827-14.955-1.713-27.91-13.656-35.39-30.91h21.834zm2.14 0h30.25c-4.924 18.844-12.528 31.143-15.125 31.143-2.596 0-10.2-12.3-15.125-31.144zm28.316 13.084c1.187-3.17 2.68-7.618 4.075-13.084H189.1c-7.48 17.255-20.435 29.198-35.39 30.91 3.245-3.545 6.813-10.706 9.48-17.826zm4.58-15.14c2.027-8.47 3.73-19.118 3.823-31.14h24.305c-.123 11.304-2.27 21.916-5.95 31.14h-22.18zm3.823-33.196c-.094-12.022-1.796-22.67-3.824-31.142h22.176c3.68 9.225 5.828 19.84 5.95 31.143H171.59zm28.887-33.196h-9.175c-5.154-12.24-12.976-22.003-22.34-27.69 13.193 4.926 24.317 14.83 31.514 27.69zm-69.45-27.69c-9.364 5.687-17.186 15.45-22.34 27.69h-9.174c7.197-12.86 18.32-22.764 31.513-27.69zM98.42 117.83h9.427c-3.602 9.285-5.683 19.886-5.804 31.144H90.736c.16-11.305 2.932-21.917 7.684-31.143zm-7.684 33.2h11.306c.12 11.257 2.203 21.858 5.804 31.14H98.42c-4.752-9.224-7.525-19.836-7.684-31.14zm8.778 33.196h9.174c5.154 12.24 12.976 22.003 22.34 27.69-13.193-4.926-24.317-14.83-31.514-27.69zm69.45 27.69c9.363-5.687 17.185-15.45 22.34-27.69h9.173c-7.197 12.86-18.32 22.764-31.513 27.69zm32.607-29.745h-9.424c3.602-9.28 5.683-19.882 5.804-31.14h11.305c-.16 11.306-2.93 21.918-7.683 31.14zm14.817-33.195h-5.075c-.153-11.26-2.814-21.86-7.416-31.138h4.202a59.105 59.105 0 0 0-1.192-2.055h-4.09c-6.39-11.875-15.984-21.42-27.48-27.16-7.725-3.884-16.303-6.04-25.333-6.04-9.05 0-17.66 2.166-25.394 6.06-11.466 5.752-21.05 15.285-27.43 27.14H93.1a58.188 58.188 0 0 0-1.192 2.056h4.202c-4.613 9.277-7.273 19.878-7.427 31.138H83.62c-.01.34-.01.688-.01 1.027s0 .69.01 1.028h5.064c.155 11.26 2.816 21.86 7.428 31.15H91.92c.37.7.77 1.376 1.182 2.054h4.078c6.39 11.866 15.985 21.4 27.47 27.153 7.725 3.883 16.314 6.04 25.354 6.04 9.02 0 17.577-2.156 25.293-6.02 11.516-5.742 21.132-15.296 27.52-27.17h4.09c.41-.68.802-1.357 1.182-2.056h-4.194c4.602-9.286 7.263-19.89 7.417-31.147h5.075c.01-.34.01-.69.01-1.028s0-.688-.01-1.027z"/><path fill="#F7F7F7" d="M146.284 215.137c-3.245-3.545-6.813-10.707-9.48-17.827-1.187-3.17-2.678-7.618-4.075-13.084h-21.837c7.48 17.255 20.434 29.198 35.39 30.91z"/><path fill="#E5E5E5" d="M168.964 88.086c9.363 5.688 17.185 15.45 22.34 27.69h9.173c-7.197-12.86-18.32-22.763-31.513-27.69zm-18.97 127.283c2.597 0 10.2-12.3 15.127-31.146h-30.25c4.927 18.844 12.53 31.143 15.127 31.143z"/><path fill="#A5A5A5" d="M189.095 184.226H167.26c-1.396 5.466-2.887 9.913-4.075 13.084-2.666 7.12-6.234 14.28-9.48 17.827 14.957-1.713 27.91-13.656 35.39-30.91z"/><path fill="#E5E5E5" d="M189.943 117.83h-22.177c2.028 8.47 3.73 19.12 3.824 31.144h24.305c-.124-11.305-2.272-21.917-5.952-31.143z"/><path fill="#F7F7F7" d="M203.892 182.175h4.192a65.96 65.96 0 0 0 8.3-31.148h-5.074c-.154 11.26-2.815 21.862-7.418 31.148zm-7.998-31.146H171.59c-.094 12.02-1.796 22.67-3.824 31.14h22.177c3.68-9.226 5.828-19.838 5.95-31.14z"/><path fill="#E5E5E5" d="M110.048 182.17h22.177c-2.028-8.47-3.73-19.118-3.824-31.14H104.1c.124 11.304 2.272 21.916 5.952 31.14zm24.308 0h31.28c2.24-9.158 3.81-19.742 3.9-31.14h-39.082c.09 11.4 1.66 21.982 3.902 31.14z"/><path fill="#F7F7F7" d="M165.635 117.83h-31.28c-2.24 9.16-3.81 19.744-3.9 31.144h39.082c-.09-11.4-1.66-21.983-3.902-31.143z"/><path fill="#E5E5E5" d="M211.31 148.973h5.075c-.165-11.29-3.154-21.892-8.29-31.138h-4.202c4.602 9.276 7.263 19.878 7.417 31.138zm-100.415-33.196h21.834c1.394-5.466 2.885-9.913 4.073-13.084 2.666-7.12 6.234-14.28 9.48-17.827-14.956 1.713-27.91 13.656-35.39 30.91z"/><path fill="#E5E5E5" d="M149.995 84.634c-2.596 0-10.2 12.298-15.125 31.143h30.25c-4.924-18.845-12.528-31.143-15.125-31.143z"/><path fill="#A5A5A5" d="M153.707 84.866c3.245 3.545 6.813 10.707 9.48 17.827 1.187 3.17 2.678 7.618 4.075 13.084h21.834c-7.48-17.255-20.434-29.198-35.39-30.91z"/><path fill="#CECECE" d="M104.097 148.974h24.305c.094-12.023 1.796-22.672 3.824-31.143H110.05c-3.682 9.23-5.83 19.84-5.953 31.146z"/><path fill="#E5E5E5" d="M96.107 117.835h-4.202c-5.137 9.246-8.126 19.848-8.29 31.138h5.065c.153-11.26 2.814-21.862 7.427-31.138z"/><path fill="#CECECE" d="M88.68 151.027h-5.066c.164 11.29 3.154 21.902 8.3 31.148h4.193c-4.613-9.286-7.274-19.888-7.428-31.148z"/><path fill="#E5E5E5" d="M124.605 88.64c-13.18 5.454-24.224 15.04-31.508 27.14h4.078c6.38-11.855 15.965-21.388 27.43-27.14zm78.21 27.14h4.088c-7.304-12.122-18.368-21.717-31.57-27.162 11.496 5.743 21.09 15.287 27.48 27.162zm-105.64 68.45h-4.078c7.294 12.112 18.348 21.697 31.55 27.152-11.487-5.753-21.082-15.286-27.472-27.152zm78.117 27.172c13.22-5.445 24.306-15.05 31.61-27.172h-4.09c-6.388 11.876-16.004 21.43-27.52 27.172z"/><path fill="#E5E5E5" d="M131.027 211.917c-9.363-5.688-17.185-15.45-22.34-27.69h-9.173c7.197 12.858 18.32 22.763 31.513 27.69z"/><path fill="#F7F7F7" d="M201.57 117.83h-9.426c3.602 9.285 5.683 19.886 5.804 31.144h11.306c-.16-11.305-2.93-21.917-7.683-31.143z"/><path fill="#A5A5A5" d="M90.736 148.974h11.306c.12-11.258 2.203-21.86 5.804-31.143H98.42c-4.752 9.23-7.525 19.84-7.684 31.146z"/><path fill="#CECECE" d="M99.514 115.777h9.174c5.154-12.24 12.976-22.003 22.34-27.69-13.193 4.926-24.317 14.83-31.514 27.69z"/><path fill="#A5A5A5" d="M98.42 182.17h9.427c-3.602-9.282-5.683-19.884-5.804-31.14H90.736c.16 11.304 2.932 21.916 7.684 31.14z"/><path fill="#CECECE" d="M200.477 184.226h-9.174c-5.154 12.24-12.976 22.003-22.34 27.69 13.193-4.926 24.317-14.83 31.514-27.69zm8.778-33.197H197.95c-.122 11.255-2.204 21.856-5.805 31.14h9.427c4.75-9.226 7.523-19.838 7.683-31.14z"/><path d="M79.885 107.564l4.22 1.66c1.246.49 1.457 2.163.373 2.947l-3.676 2.66-1.66 4.22c-.49 1.247-2.163 1.458-2.947.374l-2.658-3.676-4.22-1.66c-1.246-.49-1.457-2.163-.373-2.947l3.676-2.66 1.66-4.22c.49-1.244 2.163-1.455 2.947-.37l2.658 3.675zm12.996 9.717l.86 2.325a.923.923 0 0 1-1.066 1.22l-2.417-.53-2.322.855a.923.923 0 0 1-1.22-1.066l.53-2.417-.855-2.322a.923.923 0 0 1 1.064-1.22l2.417.53 2.324-.855a.923.923 0 0 1 1.22 1.064l-.53 2.417zm102.976 26.814l2.184-.518a.838.838 0 0 1 .983 1.092l-.742 2.12.52 2.183a.838.838 0 0 1-1.092.984l-2.12-.742-2.183.52a.838.838 0 0 1-.984-1.092l.74-2.12-.516-2.183a.838.838 0 0 1 1.092-.984l2.12.743zm-8.868-6.876l2.132-1.99a1.088 1.088 0 0 1 1.812.6l.526 2.87 1.99 2.13a1.088 1.088 0 0 1-.6 1.814l-2.87.526-2.13 1.99a1.088 1.088 0 0 1-1.814-.6l-.525-2.87-1.99-2.13a1.088 1.088 0 0 1 .6-1.814l2.87-.524zm-85.85-6.47l.356 2.945a1.106 1.106 0 0 1-1.58 1.13l-2.67-1.29-2.945.357a1.106 1.106 0 0 1-1.13-1.58l1.29-2.67-.357-2.946a1.106 1.106 0 0 1 1.58-1.13l2.67 1.29 2.946-.356a1.106 1.106 0 0 1 1.13 1.58l-1.29 2.67zm107.903-39.72l2.38-1.89a1.134 1.134 0 0 1 1.835.772l.31 3.023 1.89 2.38a1.134 1.134 0 0 1-.772 1.834l-3.025.31-2.38 1.89a1.134 1.134 0 0 1-1.834-.772l-.31-3.025-1.89-2.38a1.134 1.134 0 0 1 .772-1.833l3.025-.31zm9.196 11.21l2.06-.587a.8.8 0 0 1 .984 1l-.617 2.05.59 2.06a.8.8 0 0 1-1 .985l-2.05-.615-2.06.587a.8.8 0 0 1-.985-.998l.614-2.054-.59-2.06a.8.8 0 0 1 1-.984l2.05.615z" fill="#FBBC4B"/></svg>
