<svg viewBox="0 0 300 300" xmlns="http://www.w3.org/2000/svg" xmlns:xlink="http://www.w3.org/1999/xlink"><clipPath id="a"><path d="m217.99 101.58h-135.98c-2.327 0-4.213 1.473-4.213 3.29v15.602h13.743v-6.31h116.92v6.31h13.742v-15.6c0-1.82-1.887-3.293-4.214-3.293"/></clipPath><path d="m150 300c-82.71 0-150-67.29-150-150s67.29-150 150-150 150 67.29 150 150-67.29 150-150 150z" fill="#fff"/><circle cx="150" cy="150" fill="#fae040" r="140.812"/><path d="m214.21 196.482h-128.42a7.994 7.994 0 0 1 -7.993-7.993v-89.499a3.724 3.724 0 0 1 3.724-3.724h136.96a3.724 3.724 0 0 1 3.726 3.723v89.496a7.994 7.994 0 0 1 -7.994 7.992" fill="#d6566e"/><path d="m214.21 188.216h-128.42a7.994 7.994 0 0 1 -7.993-7.993v-81.23a3.724 3.724 0 0 1 3.724-3.723h136.96a3.724 3.724 0 0 1 3.726 3.724v81.23a7.994 7.994 0 0 1 -7.994 7.992" fill="#ff7182"/><path d="m97.163 114.163h105.674v82.32h-105.674z" fill="#3d3d3d"/><path d="m107.98 204.73h-11.598a4.843 4.843 0 0 1 -4.843-4.843v-85.724h21.28v85.724a4.843 4.843 0 0 1 -4.842 4.843" fill="#e2e2e2"/><path d="m107.98 196.482h-11.598a4.843 4.843 0 0 1 -4.843-4.843v-77.48h21.28v77.476a4.843 4.843 0 0 1 -4.842 4.842" fill="#fff"/><path d="m131.89 204.73h-11.6a4.843 4.843 0 0 1 -4.842-4.843v-85.724h21.284v85.724a4.843 4.843 0 0 1 -4.843 4.843" fill="#e2e2e2"/><path d="m131.89 196.482h-11.6a4.843 4.843 0 0 1 -4.842-4.843v-77.48h21.284v77.476a4.842 4.842 0 0 1 -4.843 4.842" fill="#fff"/><path d="m155.8 204.73h-11.6a4.843 4.843 0 0 1 -4.842-4.843v-85.724h21.284v85.724a4.843 4.843 0 0 1 -4.843 4.843" fill="#e2e2e2"/><path d="m155.8 196.482h-11.6a4.843 4.843 0 0 1 -4.842-4.843v-77.48h21.284v77.476a4.843 4.843 0 0 1 -4.843 4.842" fill="#fff"/><path d="m179.708 204.73h-11.598a4.843 4.843 0 0 1 -4.843-4.843v-85.724h21.284v85.724a4.843 4.843 0 0 1 -4.84 4.843" fill="#e2e2e2"/><path d="m179.708 196.482h-11.598a4.843 4.843 0 0 1 -4.843-4.843v-77.48h21.284v77.476a4.842 4.842 0 0 1 -4.84 4.842" fill="#fff"/><path d="m203.618 204.73h-11.598a4.843 4.843 0 0 1 -4.843-4.843v-85.724h21.284v85.724a4.843 4.843 0 0 1 -4.84 4.843" fill="#e2e2e2"/><path d="m203.618 196.482h-11.598a4.843 4.843 0 0 1 -4.843-4.843v-77.48h21.284v77.476a4.843 4.843 0 0 1 -4.84 4.842" fill="#fff"/><path d="m117.413 168.354h-6.555a4.007 4.007 0 0 1 -4.007-4.007v-39.342h14.57v39.342a4.007 4.007 0 0 1 -4.005 4.007z" fill="#4c4c4c"/><path d="m117.413 160.106h-6.555a4.007 4.007 0 0 1 -4.007-4.007v-41.94h14.57v41.94a4.007 4.007 0 0 1 -4.005 4.005" fill="#565656"/><path d="m141.323 168.354h-6.555a4.007 4.007 0 0 1 -4.007-4.007v-39.342h14.57v39.342a4.007 4.007 0 0 1 -4.005 4.007z" fill="#4c4c4c"/><path d="m141.323 160.106h-6.555a4.007 4.007 0 0 1 -4.007-4.007v-41.94h14.57v41.94a4.007 4.007 0 0 1 -4.005 4.005" fill="#565656"/><path d="m189.142 168.354h-6.555a4.007 4.007 0 0 1 -4.007-4.007v-39.342h14.57v39.342a4.007 4.007 0 0 1 -4.008 4.007z" fill="#4c4c4c"/><path d="m189.142 160.106h-6.555a4.007 4.007 0 0 1 -4.007-4.007v-41.94h14.57v41.94a4.007 4.007 0 0 1 -4.008 4.005" fill="#565656"/><path clip-path="url(#a)" d="m77.797 101.58h144.407v18.89h-144.407z" fill="#ed6979"/><path d="m163.267 114.163h-2.625v6.31h2.625z" fill="#393939"/><path d="m106.85 114.163h-15.31v6.31h15.31zm23.91 0h-9.34v6.31h9.34zm29.882 0h-15.312v6.31h15.312zm17.938 0h-15.313v6.31h15.313zm29.88 0h-15.31v6.31h15.31z" fill="#ededed"/><path d="m121.42 114.163h-14.57v6.31h14.57zm23.91 0h-14.57v6.31h14.57zm47.82 0h-14.57v6.31h14.57z" fill="#505050"/><path d="m77.797 114.163v-15.6c0-1.82 1.886-3.293 4.213-3.293h135.98c2.327 0 4.213 1.474 4.213 3.292v15.6h-144.406z" fill="#ff8095"/></svg>
