<?xml version="1.0" encoding="utf-8"?>
<!-- Generator: Adobe Illustrator 26.3.1, SVG Export Plug-In . SVG Version: 6.00 Build 0)  -->
<svg version="1.0" id="Camada_1" xmlns="http://www.w3.org/2000/svg" xmlns:xlink="http://www.w3.org/1999/xlink" x="0px" y="0px"
	 viewBox="0 0 300 300" enable-background="new 0 0 300 300" xml:space="preserve">
<path fill="#FFFFFF" d="M150.002,300C67.27,300,0,232.695,0,149.998C0,67.305,67.27,0,150.002,0C232.73,0,300,67.305,300,149.998
	C300,232.695,232.73,300,150.002,300z"/>
<path fill="#86BF5A" d="M290.832,150c0,2.276-0.067,4.615-0.201,6.892c-0.067,2.343-0.267,4.615-0.468,6.892
	c-0.271,2.276-0.539,4.615-0.873,6.892c-0.334,2.272-0.735,4.549-1.203,6.758c-0.401,2.272-0.94,4.549-1.474,6.754
	c-0.602,2.276-1.203,4.486-1.871,6.691c-0.672,2.21-1.408,4.348-2.143,6.558c-0.806,2.143-1.608,4.281-2.477,6.424
	c-0.94,2.139-1.875,4.281-2.811,6.353c-1.007,2.076-2.009,4.152-3.145,6.157c-1.073,2.009-2.21,4.014-3.417,6.023
	c-1.136,1.938-2.41,3.88-3.68,5.818c-1.27,1.942-2.611,3.813-3.947,5.689c-1.408,1.804-2.815,3.613-4.285,5.417
	c-1.474,1.809-2.945,3.546-4.486,5.221c-1.537,1.738-3.145,3.412-4.749,5.016c-1.675,1.604-3.35,3.212-5.021,4.749
	c-1.742,1.541-3.484,3.078-5.221,4.553c-1.809,1.403-3.617,2.874-5.488,4.214c-1.875,1.403-3.751,2.74-5.622,4.014
	c-1.942,1.27-3.885,2.473-5.894,3.68c-1.938,1.203-3.947,2.339-5.956,3.412c-2.076,1.069-4.081,2.139-6.224,3.078
	c-2.076,1.002-4.152,1.938-6.29,2.807c-2.143,0.873-4.286,1.742-6.428,2.477c-2.21,0.802-4.348,1.537-6.558,2.21
	c-2.21,0.668-4.486,1.27-6.696,1.804c-2.21,0.601-4.482,1.069-6.758,1.537c-2.21,0.472-4.486,0.806-6.762,1.207
	c-2.343,0.334-4.616,0.601-6.892,0.802c-2.276,0.267-4.62,0.401-6.896,0.535c-2.276,0.067-4.62,0.134-6.892,0.134
	c-2.343,0-4.62-0.067-6.896-0.134c-2.343-0.134-4.62-0.267-6.892-0.535c-2.343-0.2-4.62-0.468-6.896-0.802
	c-2.276-0.401-4.553-0.735-6.829-1.207c-2.205-0.468-4.482-0.936-6.691-1.537c-2.276-0.535-4.486-1.136-6.696-1.804
	c-2.205-0.672-4.415-1.408-6.558-2.21c-2.143-0.735-4.286-1.604-6.424-2.477c-2.143-0.869-4.286-1.804-6.361-2.807
	c-2.072-0.94-4.148-2.009-6.157-3.078c-2.009-1.073-4.014-2.21-6.023-3.412c-1.942-1.207-3.885-2.41-5.823-3.68
	c-1.942-1.274-3.818-2.611-5.622-4.014c-1.875-1.341-3.684-2.811-5.488-4.214c-1.809-1.474-3.55-3.011-5.221-4.553
	c-1.742-1.537-3.417-3.145-5.021-4.749c-1.608-1.604-3.212-3.279-4.753-5.016c-1.541-1.675-3.078-3.412-4.553-5.221
	c-1.403-1.804-2.878-3.613-4.215-5.417c-1.408-1.875-2.677-3.747-4.018-5.689c-1.27-1.938-2.477-3.88-3.68-5.818
	c-1.14-2.009-2.276-4.014-3.413-6.023c-1.073-2.005-2.076-4.081-3.083-6.157c-1.002-2.072-1.938-4.214-2.811-6.353
	c-0.869-2.143-1.738-4.281-2.477-6.424c-0.802-2.21-1.537-4.348-2.205-6.558c-0.672-2.205-1.274-4.415-1.809-6.691
	c-0.535-2.205-1.069-4.482-1.541-6.754c-0.401-2.21-0.802-4.486-1.136-6.758c-0.334-2.276-0.668-4.615-0.869-6.892
	c-0.2-2.276-0.401-4.549-0.539-6.892c-0.067-2.276-0.134-4.615-0.134-6.892c0-2.339,0.067-4.615,0.134-6.892
	c0.138-2.339,0.338-4.615,0.539-6.888c0.2-2.343,0.535-4.62,0.869-6.892c0.334-2.276,0.735-4.553,1.136-6.825
	c0.472-2.21,1.007-4.482,1.541-6.691c0.535-2.276,1.136-4.482,1.809-6.691c0.668-2.205,1.403-4.415,2.205-6.558
	c0.739-2.139,1.608-4.348,2.477-6.42c0.873-2.143,1.809-4.281,2.811-6.357c1.007-2.076,2.009-4.148,3.083-6.157
	c1.136-2.005,2.272-4.014,3.413-6.019c1.203-1.942,2.41-3.947,3.68-5.822c1.341-1.938,2.611-3.813,4.018-5.685
	c1.337-1.809,2.811-3.613,4.215-5.422c1.474-1.804,3.012-3.546,4.553-5.217c1.541-1.742,3.145-3.412,4.753-5.021
	c1.604-1.604,3.279-3.208,5.021-4.749c1.671-1.537,3.413-3.078,5.221-4.549c1.804-1.47,3.613-2.878,5.488-4.214
	c1.804-1.408,3.68-2.744,5.622-4.014c1.938-1.274,3.88-2.477,5.823-3.68c2.009-1.207,4.014-2.343,6.023-3.412
	c2.009-1.069,4.085-2.143,6.157-3.078c2.076-1.002,4.219-1.942,6.361-2.811c2.139-0.869,4.281-1.738,6.424-2.473
	c2.143-0.806,4.352-1.541,6.558-2.21c2.21-0.668,4.419-1.27,6.696-1.809c2.21-0.601,4.486-1.069,6.691-1.537
	c2.276-0.468,4.553-0.869,6.829-1.203c2.276-0.334,4.553-0.601,6.896-0.802c2.272-0.271,4.549-0.405,6.892-0.539
	c2.276-0.134,4.553-0.134,6.896-0.134c2.272,0,4.615,0,6.892,0.134c2.276,0.134,4.62,0.267,6.896,0.539
	c2.276,0.2,4.549,0.468,6.892,0.802c2.276,0.334,4.553,0.735,6.762,1.203c2.276,0.468,4.549,0.936,6.758,1.537
	c2.21,0.539,4.486,1.14,6.696,1.809c2.21,0.668,4.348,1.403,6.558,2.21c2.143,0.735,4.286,1.604,6.428,2.473
	c2.139,0.869,4.215,1.809,6.29,2.811c2.143,0.936,4.148,2.009,6.224,3.078c2.009,1.069,4.018,2.205,5.956,3.412
	c2.009,1.203,3.951,2.406,5.894,3.68c1.871,1.27,3.747,2.606,5.622,4.014c1.871,1.337,3.68,2.744,5.488,4.214
	c1.738,1.47,3.479,3.011,5.221,4.549c1.671,1.541,3.346,3.145,5.021,4.749c1.604,1.608,3.212,3.279,4.749,5.021
	c1.541,1.671,3.012,3.412,4.486,5.217c1.47,1.809,2.878,3.613,4.285,5.422c1.337,1.871,2.677,3.747,3.947,5.685
	c1.27,1.875,2.544,3.88,3.68,5.822c1.207,2.005,2.343,4.014,3.417,6.019c1.136,2.009,2.139,4.081,3.145,6.157
	c0.936,2.076,1.871,4.214,2.811,6.357c0.869,2.072,1.671,4.281,2.477,6.42c0.735,2.143,1.47,4.352,2.143,6.558
	c0.668,2.21,1.27,4.415,1.871,6.691c0.535,2.21,1.073,4.482,1.474,6.691c0.468,2.272,0.869,4.549,1.203,6.825
	c0.334,2.272,0.602,4.549,0.873,6.892c0.201,2.272,0.401,4.549,0.468,6.888C290.765,145.385,290.832,147.661,290.832,150z"/>
<g>
	<path fill="#383838" d="M241.307,193.271H58.602c-0.509,0-1.103,0-1.697-0.102c-0.594-0.051-1.193-0.155-1.703-0.308
		c-0.509-0.102-1.018-0.254-1.528-0.457c-0.509-0.203-0.934-0.457-1.363-0.66c-0.424-0.254-0.764-0.558-1.103-0.812
		c-0.339-0.304-0.594-0.609-0.849-0.967c-0.255-0.304-0.424-0.66-0.509-1.015c-0.085-0.304-0.17-0.66-0.17-1.015v-84.832
		c0-0.152,0-0.308,0.085-0.46c0-0.152,0.085-0.304,0.255-0.457c0.085-0.152,0.17-0.304,0.339-0.457
		c0.17-0.152,0.339-0.254,0.509-0.355c0.255-0.152,0.424-0.254,0.679-0.355c0.17-0.051,0.424-0.152,0.679-0.203
		c0.26-0.051,0.514-0.101,0.854-0.152c0.255-0.051,0.509-0.051,0.764-0.051H246.15c0.255,0,0.509,0,0.769,0.051
		c0.255,0.051,0.509,0.101,0.764,0.152c0.255,0.051,0.509,0.152,0.764,0.203c0.255,0.101,0.424,0.203,0.594,0.355
		c0.255,0.101,0.424,0.203,0.509,0.355c0.17,0.152,0.339,0.304,0.424,0.457c0.085,0.152,0.17,0.304,0.26,0.457
		c0,0.152,0.085,0.308,0.085,0.46v84.832c0,0.355-0.085,0.71-0.175,1.015c-0.17,0.355-0.339,0.71-0.509,1.015
		c-0.255,0.358-0.509,0.24-0.849,0.544c-0.339,0.254-0.679,0.981-1.103,1.235c-0.424,0.203-0.849,0.457-1.363,0.66
		c-0.509,0.203-1.018,0.355-1.528,0.457c-0.594,0.152-1.103,0.257-1.703,0.308C242.496,193.271,241.902,193.271,241.307,193.271z"/>
	<path fill="#F44A4A" d="M241.307,187.02H58.602c-0.509,0-1.103-0.051-1.697-0.101c-0.594-0.051-1.193-0.152-1.703-0.304
		c-0.509-0.152-1.018-0.304-1.528-0.507c-0.509-0.203-0.934-0.406-1.363-0.66c-0.424-0.254-0.764-0.507-1.103-0.812
		c-0.339-0.308-0.594-0.612-0.849-0.917c-0.255-0.355-0.424-0.66-0.509-1.015c-0.085-0.355-0.17-0.71-0.17-1.069v-78.531
		c0-0.152,0-0.308,0.085-0.46c0-0.152,0.085-0.304,0.255-0.457c0.085-0.152,0.17-0.304,0.339-0.457
		c0.17-0.152,0.339-0.254,0.509-0.355c0.255-0.152,0.424-0.254,0.679-0.355c0.17-0.051,0.424-0.152,0.679-0.203
		c0.26-0.051,0.514-0.101,0.854-0.152c0.255-0.051,0.509-0.051,0.764-0.051H246.15c0.255,0,0.509,0,0.769,0.051
		c0.255,0.051,0.509,0.101,0.764,0.152c0.255,0.051,0.509,0.152,0.764,0.203c0.255,0.101,0.424,0.203,0.594,0.355
		c0.255,0.101,0.424,0.203,0.509,0.355c0.17,0.152,0.339,0.304,0.424,0.457c0.085,0.152,0.17,0.304,0.26,0.457
		c0,0.152,0.085,0.308,0.085,0.46v78.531c0,0.358-0.085,0.714-0.175,1.069c-0.17,0.355-0.339,0.66-0.509,1.015
		c-0.255,0.304-0.509,0.609-0.849,0.917c-0.339,0.304-0.679,0.558-1.103,0.812c-0.424,0.254-0.849,0.457-1.363,0.66
		c-0.509,0.203-1.018,0.355-1.528,0.507c-0.594,0.152-1.103,0.254-1.703,0.304C242.496,186.969,241.902,187.02,241.307,187.02z"/>
	<path fill="#383838" d="M246.15,105.387H53.845c-0.255,0-0.509,0.051-0.764,0.051c-0.339,0.051-0.594,0.101-0.854,0.152
		c-0.255,0.051-0.509,0.155-0.679,0.257c-0.255,0.102-0.424,0.203-0.679,0.304c-0.17,0.101-0.339,0.254-0.509,0.355
		c-0.17,0.152-0.255,0.304-0.339,0.457c-0.17,0.152-0.255,0.304-0.255,0.457c-0.085,0.152-0.085,0.304-0.085,0.507v27.686h25.752
		v-4.827h91.714v4.827h83.173v-27.686c0-0.203-0.085-0.355-0.085-0.507c-0.09-0.152-0.175-0.304-0.26-0.457
		c-0.085-0.152-0.255-0.304-0.424-0.457c-0.085-0.101-0.255-0.254-0.509-0.355c-0.17-0.101-0.339-0.203-0.594-0.304
		c-0.255-0.101-0.509-0.206-0.764-0.257c-0.255-0.051-0.509-0.101-0.764-0.152C246.659,105.438,246.405,105.387,246.15,105.387z"/>
	<rect x="84.645" y="130.786" fill="#505050" width="15.752" height="4.827"/>
	<path fill="#8E8E8E" d="M49.681,130.786v-27.682c0-0.152,0-0.308,0.085-0.46c0-0.152,0.085-0.304,0.255-0.457
		c0.085-0.152,0.17-0.304,0.339-0.457c0.17-0.152,0.339-0.254,0.509-0.355c0.255-0.152,0.424-0.254,0.679-0.355
		c0.17-0.051,0.424-0.152,0.679-0.203c0.26-0.051,0.514-0.101,0.854-0.152c0.255-0.051,0.509-0.051,0.764-0.051H246.15
		c0.255,0,0.509,0,0.769,0.051c0.255,0.051,0.509,0.101,0.764,0.152c0.255,0.051,0.509,0.152,0.764,0.203
		c0.255,0.101,0.424,0.203,0.594,0.355c0.255,0.101,0.424,0.203,0.509,0.355c0.17,0.152,0.339,0.304,0.424,0.457
		c0.085,0.152,0.17,0.304,0.26,0.457c0,0.152,0.085,0.308,0.085,0.46v27.682H49.681z"/>
	<path fill="#F44A4A" d="M75.8,115.548c0,0.304-0.051,0.558-0.051,0.863c-0.051,0.304-0.101,0.612-0.152,0.917
		c-0.051,0.254-0.101,0.558-0.203,0.863c-0.101,0.254-0.203,0.558-0.304,0.812c-0.101,0.304-0.254,0.558-0.355,0.815
		c-0.152,0.254-0.304,0.507-0.457,0.761c-0.203,0.254-0.355,0.507-0.561,0.71c-0.203,0.254-0.406,0.457-0.609,0.66
		c-0.203,0.203-0.406,0.406-0.66,0.609c-0.203,0.206-0.457,0.358-0.714,0.511c-0.254,0.203-0.507,0.355-0.761,0.507
		c-0.254,0.101-0.507,0.254-0.812,0.355c-0.254,0.101-0.561,0.203-0.815,0.304c-0.304,0.101-0.558,0.152-0.863,0.203
		c-0.304,0.051-0.609,0.101-0.917,0.152c-0.254,0-0.558,0.051-0.863,0.051c-0.304,0-0.609-0.051-0.913-0.051
		c-0.257-0.051-0.561-0.101-0.866-0.152c-0.304-0.051-0.558-0.101-0.863-0.203c-0.304-0.101-0.561-0.203-0.866-0.304
		c-0.254-0.101-0.507-0.254-0.761-0.355c-0.304-0.152-0.558-0.304-0.761-0.507c-0.257-0.152-0.511-0.304-0.764-0.511
		c-0.203-0.203-0.406-0.406-0.66-0.609c-0.203-0.203-0.406-0.406-0.558-0.66c-0.203-0.203-0.409-0.457-0.561-0.71
		c-0.152-0.254-0.304-0.507-0.457-0.761c-0.152-0.257-0.254-0.511-0.355-0.815c-0.152-0.254-0.254-0.558-0.304-0.812
		c-0.101-0.304-0.152-0.609-0.203-0.863c-0.101-0.304-0.101-0.612-0.152-0.917c-0.051-0.304-0.051-0.558-0.051-0.863
		c0-0.304,0-0.609,0.051-0.913c0.051-0.304,0.051-0.561,0.152-0.866c0.051-0.304,0.101-0.609,0.203-0.863
		c0.051-0.304,0.152-0.558,0.304-0.863c0.101-0.254,0.203-0.507,0.355-0.815c0.152-0.254,0.304-0.507,0.457-0.761
		c0.152-0.203,0.358-0.457,0.561-0.71c0.152-0.203,0.355-0.457,0.558-0.66c0.254-0.203,0.457-0.406,0.66-0.558
		c0.254-0.206,0.507-0.409,0.764-0.561c0.203-0.152,0.457-0.304,0.761-0.457c0.254-0.152,0.507-0.254,0.761-0.355
		c0.304-0.152,0.561-0.254,0.866-0.304c0.304-0.101,0.558-0.152,0.863-0.254c0.304-0.051,0.609-0.102,0.866-0.102
		c0.304-0.051,0.609-0.051,0.913-0.051c0.304,0,0.609,0,0.863,0.051c0.308,0,0.612,0.051,0.917,0.102
		c0.304,0.101,0.558,0.152,0.863,0.254c0.254,0.051,0.561,0.152,0.815,0.304c0.304,0.101,0.558,0.203,0.812,0.355
		c0.254,0.152,0.507,0.304,0.761,0.457c0.257,0.152,0.511,0.355,0.714,0.561c0.254,0.152,0.457,0.355,0.66,0.558
		c0.203,0.203,0.406,0.457,0.609,0.66c0.206,0.254,0.358,0.507,0.561,0.71c0.152,0.254,0.304,0.507,0.457,0.761
		c0.101,0.308,0.254,0.561,0.355,0.815c0.101,0.304,0.203,0.558,0.304,0.863c0.101,0.254,0.152,0.558,0.203,0.863
		c0.051,0.304,0.101,0.561,0.152,0.866C75.75,114.939,75.8,115.244,75.8,115.548z"/>
	<path fill="#4F4F4F" d="M73.923,113.668v1.881c0,3.961-3.203,7.215-7.218,7.215s-7.269-3.254-7.269-7.215v-1.881
		c0-1.37,0.409-2.692,1.12-3.86h1.728c0.609-0.507,1.322-0.863,2.084-1.116c0.761-0.257,1.525-0.409,2.337-0.409
		c1.678,0,3.203,0.561,4.421,1.525h1.678C73.565,110.975,73.974,112.298,73.923,113.668z"/>
	<path fill="#686868" d="M73.923,113.668c0,4.015-3.203,7.265-7.218,7.265s-7.269-3.251-7.269-7.265c0-1.37,0.409-2.692,1.12-3.86
		c0.355-0.507,0.71-0.964,1.17-1.373c0.457-0.457,0.964-0.812,1.472-1.116c0.561-0.254,1.119-0.507,1.678-0.66
		c0.609-0.152,3.051-0.152,3.609,0c0.609,0.152,1.167,0.406,1.728,0.66c0.507,0.304,1.015,0.66,1.472,1.116
		c0.409,0.409,0.815,0.866,1.12,1.373C73.565,110.975,73.974,112.298,73.923,113.668z"/>
	<g>
		<path fill="#FFDAA9" d="M99.992,124.64c-0.101,0-0.254,0-0.355-0.051c-0.152,0-0.254-0.051-0.355-0.101
			c-0.101-0.051-0.203-0.101-0.304-0.152c-0.101-0.051-0.203-0.152-0.304-0.254c-0.101-0.051-0.152-0.152-0.254-0.254
			c-0.054-0.101-0.105-0.203-0.155-0.355c-0.051-0.101-0.101-0.203-0.101-0.355c-0.051-0.101-0.051-0.203-0.051-0.355v-14.48
			c0-0.101,0-0.254,0.051-0.355c0-0.152,0.051-0.254,0.101-0.355c0.051-0.101,0.101-0.203,0.155-0.304
			c0.101-0.101,0.152-0.203,0.254-0.304c0.101-0.102,0.203-0.152,0.304-0.254c0.101-0.051,0.203-0.101,0.304-0.152
			c0.101-0.051,0.203-0.101,0.355-0.101c0.101-0.051,0.254-0.051,0.355-0.051c0.101,0,0.254,0,0.355,0.051
			c0.155,0,0.257,0.051,0.358,0.101c0.101,0.051,0.254,0.101,0.355,0.152c0.101,0.102,0.152,0.152,0.254,0.254
			c0.101,0.101,0.152,0.203,0.254,0.304c0.051,0.101,0.101,0.203,0.152,0.304s0.101,0.203,0.101,0.355
			c0.051,0.102,0.051,0.254,0.051,0.355v14.48c0,0.152,0,0.254-0.051,0.355c0,0.152-0.051,0.254-0.101,0.355
			c-0.051,0.152-0.101,0.254-0.152,0.355c-0.101,0.101-0.152,0.203-0.254,0.254c-0.101,0.101-0.152,0.203-0.254,0.254
			c-0.101,0.051-0.254,0.101-0.355,0.152c-0.101,0.051-0.203,0.101-0.358,0.101C100.245,124.64,100.093,124.64,99.992,124.64z"/>
		<path fill="#383838" d="M99.992,123.423c-0.101,0-0.152-0.051-0.254-0.051c-0.051-0.051-0.152-0.101-0.203-0.152
			c-0.051-0.051-0.101-0.152-0.101-0.203c-0.051-0.101-0.051-0.152-0.051-0.254v-14.48c0-0.101,0-0.152,0.051-0.254
			c0-0.051,0.051-0.152,0.101-0.203c0.051-0.051,0.152-0.101,0.203-0.152c0.101,0,0.152-0.051,0.254-0.051
			c0.101,0,0.152,0.051,0.254,0.051c0.051,0.051,0.152,0.101,0.203,0.152c0.054,0.051,0.105,0.152,0.105,0.203
			c0.051,0.101,0.051,0.152,0.051,0.254v14.48c0,0.101,0,0.152-0.051,0.254c0,0.051-0.051,0.152-0.105,0.203
			c-0.051,0.051-0.152,0.101-0.203,0.152C100.144,123.372,100.093,123.423,99.992,123.423z"/>
		<path fill="#4F4F4F" d="M102.177,111.943v0.558c-0.051,0.101-0.051,0.254-0.051,0.406c-0.051,0.101-0.101,0.254-0.152,0.355
			c-0.051,0.152-0.152,0.254-0.203,0.355c-0.101,0.152-0.152,0.254-0.254,0.355c-0.101,0.101-0.254,0.155-0.355,0.257
			c-0.101,0.051-0.254,0.101-0.355,0.152c-0.152,0.051-0.254,0.101-0.409,0.152c-0.152,0-0.254,0.051-0.406,0.051
			c-0.152,0-0.254-0.051-0.406-0.051c-0.152-0.051-0.254-0.101-0.406-0.152c-0.101-0.051-0.254-0.101-0.355-0.152
			c-0.101-0.101-0.254-0.155-0.355-0.257c-0.051-0.101-0.155-0.203-0.257-0.355c-0.051-0.101-0.152-0.203-0.203-0.355
			c-0.051-0.101-0.101-0.254-0.101-0.355c-0.051-0.152-0.051-0.304-0.101-0.406v-0.558c0-0.457,0.152-0.815,0.355-1.17h0.511
			c0.203-0.152,0.406-0.254,0.609-0.355c0.254-0.051,0.457-0.101,0.71-0.101c0.254,0,0.457,0.051,0.714,0.101
			c0.203,0.101,0.406,0.203,0.609,0.355h0.507C102.025,111.127,102.177,111.486,102.177,111.943z"/>
		<path fill="#686868" d="M102.177,111.943c-0.051,0.101-0.051,0.254-0.051,0.406c-0.051,0.101-0.101,0.254-0.152,0.355
			c-0.051,0.152-0.152,0.254-0.203,0.406c-0.101,0.101-0.152,0.203-0.254,0.304c-0.101,0.101-0.254,0.152-0.355,0.254
			c-0.101,0.051-0.254,0.152-0.355,0.203c-0.152,0.051-0.254,0.051-0.409,0.101c-0.152,0-0.254,0.051-0.406,0.051
			c-0.152,0-0.254-0.051-0.406-0.051c-0.152-0.051-0.254-0.051-0.406-0.101c-0.101-0.051-0.254-0.152-0.355-0.203
			c-0.101-0.101-0.254-0.152-0.355-0.254c-0.051-0.101-0.155-0.203-0.257-0.304c-0.051-0.152-0.152-0.254-0.203-0.406
			c-0.051-0.101-0.101-0.254-0.101-0.355c-0.051-0.152-0.051-0.304-0.101-0.406c0-0.457,0.152-0.815,0.355-1.17
			c0.051-0.101,0.101-0.152,0.152-0.203c0.051-0.101,0.155-0.152,0.206-0.203c0.051-0.101,0.152-0.152,0.203-0.203
			c0.051-0.051,0.152-0.101,0.203-0.152c0.101-0.051,0.203-0.051,0.254-0.101c0.101-0.051,0.203-0.051,0.254-0.102
			c0.101,0,0.203,0,0.304-0.051c0.051,0,0.152,0,0.254,0c0.101,0,0.203,0,0.254,0c0.101,0.051,0.203,0.051,0.308,0.051
			c0.051,0.051,0.152,0.051,0.254,0.102c0.051,0.051,0.152,0.051,0.254,0.101c0.051,0.051,0.152,0.101,0.203,0.152
			c0.101,0.051,0.152,0.102,0.203,0.203c0.101,0.051,0.152,0.101,0.203,0.203c0.051,0.051,0.101,0.101,0.152,0.203
			C102.025,111.127,102.177,111.486,102.177,111.943z"/>
	</g>
	<g>
		<path fill="#FFDAA9" d="M110.334,124.64c-0.101,0-0.254,0-0.355-0.051c-0.101,0-0.254-0.051-0.355-0.101
			c-0.101-0.051-0.203-0.101-0.304-0.152c-0.101-0.051-0.203-0.152-0.304-0.254c-0.101-0.051-0.152-0.152-0.254-0.254
			c-0.051-0.101-0.101-0.203-0.152-0.355c-0.051-0.101-0.101-0.203-0.101-0.355c-0.051-0.101-0.051-0.203-0.051-0.355v-14.48
			c0-1.015,0.863-1.877,1.877-1.877c1.018,0,1.881,0.863,1.881,1.877v14.48c0,0.152,0,0.254-0.051,0.355
			c0,0.152-0.051,0.254-0.101,0.355c-0.051,0.152-0.101,0.254-0.152,0.355c-0.101,0.101-0.152,0.203-0.254,0.254
			c-0.101,0.101-0.152,0.203-0.254,0.254c-0.101,0.051-0.254,0.101-0.355,0.152c-0.101,0.051-0.203,0.101-0.355,0.101
			C110.591,124.64,110.49,124.64,110.334,124.64z"/>
		<path fill="#383838" d="M110.334,123.423c-0.101,0-0.152-0.051-0.254-0.051c-0.051-0.051-0.101-0.101-0.203-0.152
			c-0.051-0.051-0.101-0.152-0.101-0.203c-0.051-0.101-0.051-0.152-0.051-0.254v-14.48c0-0.101,0-0.152,0.051-0.254
			c0-0.051,0.051-0.102,0.101-0.203c0.101-0.051,0.152-0.101,0.203-0.101c0.101-0.051,0.152-0.051,0.254-0.051
			c0.101,0,0.155,0,0.257,0.051c0.051,0,0.152,0.051,0.203,0.101c0.051,0.101,0.101,0.152,0.101,0.203
			c0.051,0.101,0.051,0.152,0.051,0.254v14.48c0,0.101,0,0.152-0.051,0.254c0,0.051-0.051,0.152-0.101,0.203
			c-0.051,0.051-0.152,0.101-0.203,0.152C110.49,123.372,110.436,123.423,110.334,123.423z"/>
		<path fill="#4F4F4F" d="M112.519,119.611v0.561c0,0.152-0.051,0.254-0.051,0.406c-0.051,0.152-0.101,0.254-0.152,0.406
			c-0.051,0.101-0.152,0.254-0.203,0.355c-0.101,0.101-0.152,0.203-0.254,0.304c-0.101,0.101-0.203,0.203-0.355,0.254
			c-0.101,0.101-0.203,0.152-0.355,0.203c-0.152,0.051-0.254,0.101-0.406,0.101c-0.101,0.051-0.254,0.051-0.409,0.051
			c-0.152,0-0.254,0-0.406-0.051c-0.152,0-0.254-0.051-0.406-0.101c-0.101-0.051-0.254-0.101-0.355-0.203
			c-0.101-0.051-0.203-0.152-0.304-0.254c-0.101-0.101-0.203-0.203-0.304-0.304c-0.051-0.101-0.155-0.254-0.206-0.355
			c-0.051-0.152-0.101-0.254-0.101-0.406c-0.051-0.152-0.051-0.254-0.051-0.406v-0.561c0-0.406,0.101-0.812,0.308-1.167h0.507
			c0.406-0.304,0.812-0.457,1.319-0.457c0.511,0,0.967,0.203,1.322,0.457h0.507C112.367,118.799,112.519,119.205,112.519,119.611z"
			/>
		<path fill="#686868" d="M112.519,119.611c0,0.155-0.051,0.257-0.051,0.409c-0.051,0.152-0.101,0.254-0.152,0.406
			c-0.051,0.101-0.152,0.254-0.203,0.355c-0.101,0.101-0.152,0.203-0.254,0.304c-0.101,0.101-0.203,0.203-0.355,0.254
			c-0.101,0.101-0.203,0.152-0.355,0.203c-0.152,0.051-0.254,0.101-0.406,0.101c-0.101,0.051-0.254,0.051-0.409,0.051
			c-0.152,0-0.254,0-0.406-0.051c-0.152,0-0.254-0.051-0.406-0.101c-0.101-0.051-0.254-0.101-0.355-0.203
			c-0.101-0.051-0.203-0.152-0.304-0.254c-0.101-0.101-0.203-0.203-0.304-0.304c-0.051-0.101-0.155-0.254-0.206-0.355
			c-0.051-0.152-0.101-0.254-0.101-0.406c-0.051-0.152-0.051-0.254-0.051-0.409c0-0.406,0.101-0.812,0.308-1.167
			c0.203-0.304,0.457-0.558,0.812-0.71c0.304-0.203,0.66-0.304,1.015-0.254c0.358-0.051,0.714,0.051,1.069,0.254
			c0.304,0.152,0.558,0.406,0.761,0.71C112.367,118.799,112.519,119.205,112.519,119.611z"/>
	</g>
	<g>
		<path fill="#FFDAA9" d="M120.702,124.64c-0.101,0-0.257,0-0.358-0.051c-0.101,0-0.254-0.051-0.355-0.101
			c-0.101-0.051-0.203-0.101-0.304-0.152c-0.101-0.051-0.203-0.152-0.304-0.254c-0.101-0.051-0.152-0.152-0.254-0.254
			c-0.051-0.101-0.101-0.203-0.152-0.355c-0.051-0.101-0.101-0.203-0.101-0.355c-0.051-0.101-0.051-0.203-0.051-0.355v-14.48
			c0-0.101,0-0.254,0.051-0.355c0-0.152,0.051-0.254,0.101-0.355c0.051-0.101,0.101-0.203,0.152-0.304
			c0.101-0.101,0.152-0.203,0.254-0.304c0.101-0.102,0.203-0.152,0.304-0.254c0.101-0.051,0.203-0.101,0.304-0.152
			c0.101-0.051,0.254-0.101,0.355-0.101c0.101-0.051,0.257-0.051,0.358-0.051c0.152,0,0.254,0,0.355,0.051
			c0.152,0,0.254,0.051,0.355,0.101c0.101,0.051,0.254,0.101,0.355,0.152c0.101,0.102,0.203,0.152,0.254,0.254
			c0.101,0.101,0.152,0.203,0.254,0.304c0.051,0.101,0.101,0.203,0.152,0.304c0.051,0.101,0.101,0.203,0.101,0.355
			c0.054,0.102,0.054,0.254,0.054,0.355v14.48c0,0.152,0,0.254-0.054,0.355c0,0.152-0.051,0.254-0.101,0.355
			c-0.051,0.152-0.101,0.254-0.152,0.355c-0.101,0.101-0.152,0.203-0.254,0.254c-0.101,0.101-0.152,0.203-0.254,0.254
			c-0.101,0.051-0.254,0.101-0.355,0.152c-0.101,0.051-0.203,0.101-0.355,0.101C120.956,124.64,120.854,124.64,120.702,124.64z"/>
		<path fill="#383838" d="M120.702,123.423c-0.101,0-0.152-0.051-0.257-0.051c-0.051-0.051-0.101-0.101-0.203-0.152
			c-0.051-0.051-0.101-0.152-0.101-0.203c-0.051-0.101-0.051-0.152-0.051-0.254v-14.48c0-0.101,0-0.152,0.051-0.254
			c0-0.051,0.051-0.102,0.101-0.203c0.101-0.051,0.152-0.101,0.203-0.101c0.105-0.051,0.206-0.051,0.257-0.051
			c0.101,0,0.152,0,0.254,0.051c0.051,0,0.152,0.051,0.203,0.101c0.051,0.101,0.101,0.152,0.101,0.203
			c0.051,0.101,0.051,0.152,0.051,0.254v14.48c0,0.101,0,0.152,0,0.254c-0.051,0.051-0.101,0.152-0.152,0.203
			c-0.051,0.051-0.152,0.101-0.203,0.152C120.854,123.372,120.804,123.423,120.702,123.423z"/>
		<path fill="#4F4F4F" d="M122.887,114.381v0.558c0,0.101-0.051,0.254-0.051,0.406c-0.051,0.101-0.101,0.254-0.152,0.355
			c-0.051,0.152-0.101,0.254-0.206,0.406c-0.101,0.101-0.152,0.203-0.254,0.304c-0.101,0.101-0.203,0.152-0.355,0.254
			c-0.101,0.051-0.203,0.152-0.355,0.203c-0.101,0.051-0.254,0.051-0.406,0.105c-0.101,0.051-0.254,0.051-0.406,0.051
			c-0.152,0-0.257,0-0.409-0.051c-0.152-0.054-0.254-0.054-0.406-0.105c-0.101-0.051-0.254-0.152-0.355-0.203
			c-0.101-0.101-0.254-0.152-0.304-0.254c-0.101-0.101-0.203-0.203-0.304-0.304c-0.051-0.152-0.152-0.254-0.203-0.406
			c-0.051-0.101-0.101-0.254-0.101-0.355c-0.051-0.152-0.051-0.304-0.051-0.406v-0.558c0-0.46,0.101-0.815,0.304-1.17h0.507
			c0.203-0.152,0.406-0.254,0.609-0.355c0.254-0.051,0.457-0.101,0.714-0.101c0.254,0,0.457,0.051,0.71,0.101
			c0.203,0.101,0.406,0.203,0.609,0.355h0.507C122.735,113.566,122.887,113.921,122.887,114.381z"/>
		<path fill="#686868" d="M122.887,114.381c0,0.101-0.051,0.254-0.051,0.406c-0.051,0.101-0.101,0.254-0.152,0.406
			c-0.051,0.101-0.101,0.203-0.206,0.355c-0.101,0.101-0.152,0.203-0.254,0.304c-0.101,0.101-0.203,0.152-0.355,0.254
			c-0.101,0.051-0.203,0.152-0.355,0.203c-0.101,0.051-0.254,0.101-0.406,0.101c-0.101,0.051-0.254,0.051-0.406,0.051
			c-0.152,0-0.257,0-0.409-0.051c-0.152,0-0.254-0.051-0.406-0.101c-0.101-0.051-0.254-0.152-0.355-0.203
			c-0.101-0.101-0.254-0.152-0.304-0.254c-0.101-0.101-0.203-0.203-0.304-0.304c-0.051-0.152-0.152-0.254-0.203-0.355
			c-0.051-0.152-0.101-0.304-0.101-0.406c-0.051-0.152-0.051-0.304-0.051-0.406c0-0.46,0.101-0.815,0.304-1.17
			c0.051-0.101,0.101-0.152,0.152-0.203c0.051-0.101,0.152-0.152,0.203-0.203c0.051-0.101,0.152-0.152,0.203-0.203
			c0.101-0.051,0.152-0.101,0.254-0.152c0.051-0.051,0.152-0.051,0.203-0.101c0.101-0.051,0.203-0.051,0.304-0.101
			c0.051,0,0.152,0,0.254-0.051c0.105,0,0.155,0,0.257,0c0.101,0,0.203,0,0.254,0c0.101,0.051,0.203,0.051,0.304,0.051
			c0.051,0.051,0.152,0.051,0.254,0.101c0.051,0.051,0.152,0.051,0.254,0.101c0.051,0.051,0.152,0.101,0.203,0.152
			c0.101,0.051,0.152,0.101,0.203,0.203c0.101,0.051,0.152,0.101,0.203,0.203c0.051,0.051,0.101,0.101,0.152,0.203
			C122.735,113.566,122.887,113.921,122.887,114.381z"/>
	</g>
	<g>
		<path fill="#4F4F4F" d="M82.022,118.839h-2.66c-0.147,0-0.369-0.074-0.516-0.148c-0.221-0.074-0.369-0.147-0.516-0.295
			c-0.147-0.148-0.221-0.295-0.295-0.442c-0.074-0.226-0.074-0.373-0.074-0.595v-2.655c0-0.737,0.59-1.406,1.401-1.406h2.66
			c0.811,0,1.475,0.668,1.475,1.406v2.655c0,0.221-0.074,0.369-0.148,0.595c-0.074,0.147-0.147,0.295-0.295,0.442
			c-0.147,0.147-0.295,0.221-0.442,0.295C82.391,118.766,82.243,118.839,82.022,118.839z"/>
		<path fill="#686868" d="M82.022,118.176h-2.66c-0.147,0-0.369-0.074-0.516-0.147c-0.221-0.074-0.369-0.148-0.516-0.3
			c-0.074-0.148-0.221-0.295-0.295-0.516c-0.074-0.147-0.074-0.295-0.074-0.516v-2.655c0-0.816,0.59-1.48,1.401-1.48h2.66
			c0.221,0,0.369,0.074,0.59,0.147c0.147,0.074,0.295,0.148,0.442,0.295c0.148,0.147,0.221,0.295,0.295,0.442
			c0.074,0.226,0.148,0.373,0.148,0.595v2.655c0,0.147-0.074,0.369-0.148,0.516c-0.074,0.221-0.147,0.369-0.295,0.516
			c-0.147,0.152-0.295,0.226-0.442,0.3C82.391,118.102,82.243,118.176,82.022,118.176z"/>
	</g>
	<g>
		<path fill="#4F4F4F" d="M91.048,119.208h-2.66c-0.147,0-0.369-0.074-0.516-0.148c-0.221-0.074-0.369-0.147-0.516-0.295
			c-0.147-0.148-0.221-0.295-0.295-0.442c-0.074-0.226-0.074-0.373-0.074-0.595v-2.655c0-0.737,0.59-1.406,1.401-1.406h2.66
			c0.811,0,1.475,0.668,1.475,1.406v2.655c0,0.221-0.074,0.369-0.148,0.595c-0.074,0.147-0.147,0.295-0.295,0.442
			c-0.147,0.147-0.295,0.221-0.442,0.295C91.417,119.134,91.269,119.208,91.048,119.208z"/>
		<path fill="#686868" d="M91.048,118.544h-2.66c-0.147,0-0.369-0.074-0.516-0.147c-0.221-0.074-0.369-0.148-0.516-0.3
			c-0.074-0.148-0.221-0.295-0.295-0.516c-0.074-0.147-0.074-0.295-0.074-0.516v-2.655c0-0.816,0.59-1.48,1.401-1.48h2.66
			c0.221,0,0.369,0.074,0.59,0.147c0.147,0.074,0.295,0.148,0.442,0.295c0.148,0.147,0.221,0.295,0.295,0.442
			c0.074,0.226,0.148,0.373,0.148,0.595v2.655c0,0.147-0.074,0.369-0.148,0.516c-0.074,0.221-0.147,0.369-0.295,0.516
			c-0.147,0.152-0.295,0.226-0.442,0.3C91.417,118.471,91.269,118.544,91.048,118.544z"/>
	</g>
	<g>
		<path fill="#4F4F4F" d="M173.552,118.839h-2.66c-0.147,0-0.369-0.074-0.516-0.148c-0.221-0.074-0.369-0.147-0.516-0.295
			c-0.147-0.148-0.221-0.295-0.295-0.442c-0.074-0.226-0.074-0.373-0.074-0.595v-2.655c0-0.737,0.59-1.406,1.401-1.406h2.66
			c0.811,0,1.475,0.668,1.475,1.406v2.655c0,0.221-0.074,0.369-0.148,0.595c-0.074,0.147-0.147,0.295-0.295,0.442
			c-0.147,0.147-0.295,0.221-0.442,0.295C173.92,118.766,173.773,118.839,173.552,118.839z"/>
		<path fill="#686868" d="M173.552,118.176h-2.66c-0.147,0-0.369-0.074-0.516-0.147c-0.221-0.074-0.369-0.148-0.516-0.3
			c-0.074-0.148-0.221-0.295-0.295-0.516c-0.074-0.147-0.074-0.295-0.074-0.516v-2.655c0-0.816,0.59-1.48,1.401-1.48h2.66
			c0.221,0,0.369,0.074,0.59,0.147c0.147,0.074,0.295,0.148,0.442,0.295c0.148,0.147,0.221,0.295,0.295,0.442
			c0.074,0.226,0.148,0.373,0.148,0.595v2.655c0,0.147-0.074,0.369-0.148,0.516c-0.074,0.221-0.147,0.369-0.295,0.516
			c-0.147,0.152-0.295,0.226-0.442,0.3C173.92,118.102,173.773,118.176,173.552,118.176z"/>
	</g>
	<g>
		<path fill="#4F4F4F" d="M182.578,119.208h-2.66c-0.147,0-0.369-0.074-0.516-0.148c-0.221-0.074-0.369-0.147-0.516-0.295
			c-0.147-0.148-0.221-0.295-0.295-0.442c-0.074-0.226-0.074-0.373-0.074-0.595v-2.655c0-0.737,0.59-1.406,1.401-1.406h2.66
			c0.811,0,1.475,0.668,1.475,1.406v2.655c0,0.221-0.074,0.369-0.148,0.595c-0.074,0.147-0.147,0.295-0.295,0.442
			c-0.147,0.147-0.295,0.221-0.442,0.295C182.946,119.134,182.799,119.208,182.578,119.208z"/>
		<path fill="#686868" d="M182.578,118.544h-2.66c-0.147,0-0.369-0.074-0.516-0.147c-0.221-0.074-0.369-0.148-0.516-0.3
			c-0.074-0.148-0.221-0.295-0.295-0.516c-0.074-0.147-0.074-0.295-0.074-0.516v-2.655c0-0.816,0.59-1.48,1.401-1.48h2.66
			c0.221,0,0.369,0.074,0.59,0.147c0.147,0.074,0.295,0.148,0.442,0.295c0.148,0.147,0.221,0.295,0.295,0.442
			c0.074,0.226,0.148,0.373,0.148,0.595v2.655c0,0.147-0.074,0.369-0.148,0.516c-0.074,0.221-0.147,0.369-0.295,0.516
			c-0.147,0.152-0.295,0.226-0.442,0.3C182.946,118.471,182.799,118.544,182.578,118.544z"/>
	</g>
	
		<line fill="#FFDAA9" stroke="#FFDAA9" stroke-width="2" stroke-miterlimit="10" x1="66.682" y1="112.196" x2="66.705" y2="106.456"/>
	<path fill="#EDEDED" d="M233.578,130.786h-168.5v4.827h168.5V130.786z"/>
	<g>
		<path fill="#E2E2E2" d="M143.697,199.385h-17.192c-0.31,0-0.616-0.047-0.923-0.094s-0.613-0.141-0.92-0.235
			c-0.255-0.141-0.565-0.282-0.821-0.423c-0.255-0.144-0.46-0.332-0.715-0.52c-0.204-0.235-0.409-0.423-0.562-0.659
			c-0.153-0.282-0.31-0.517-0.463-0.753c-0.102-0.282-0.204-0.565-0.255-0.85c-0.051-0.282-0.102-0.565-0.102-0.847v-59.391h26.659
			v59.391c0,0.282,0,0.565-0.051,0.847c-0.102,0.285-0.153,0.567-0.307,0.803c-0.102,0.282-0.255,0.518-0.409,0.753
			c-0.204,0.282-0.358,0.47-0.616,0.706c-0.204,0.188-0.46,0.376-0.715,0.52c-0.255,0.141-0.511,0.282-0.817,0.423
			c-0.255,0.094-0.565,0.188-0.872,0.235C144.31,199.338,144.003,199.385,143.697,199.385z"/>
		<path fill="#FFFFFF" d="M143.697,193.546h-17.192c-0.31,0-0.616,0-0.923-0.047c-0.307-0.094-0.613-0.144-0.92-0.285
			c-0.255-0.094-0.565-0.235-0.821-0.376c-0.255-0.188-0.46-0.329-0.715-0.565c-0.204-0.188-0.409-0.423-0.562-0.659
			c-0.153-0.235-0.31-0.47-0.463-0.753c-0.102-0.238-0.204-0.52-0.255-0.803c-0.051-0.282-0.102-0.565-0.102-0.847v-53.599h26.659
			v53.599c0,0.282,0,0.565-0.051,0.847c-0.102,0.282-0.153,0.565-0.307,0.803c-0.102,0.282-0.255,0.518-0.409,0.753
			c-0.204,0.235-0.358,0.47-0.616,0.659c-0.204,0.235-0.46,0.376-0.715,0.565c-0.255,0.141-0.511,0.282-0.817,0.376
			c-0.255,0.141-0.565,0.191-0.872,0.285C144.31,193.546,144.003,193.546,143.697,193.546z"/>
	</g>
	<g>
		<path fill="#E2E2E2" d="M172.065,199.385H154.87c-0.307,0-0.613-0.047-0.92-0.094c-0.307-0.047-0.613-0.141-0.923-0.235
			c-0.255-0.141-0.562-0.282-0.817-0.423c-0.255-0.144-0.46-0.332-0.715-0.52c-0.204-0.235-0.409-0.423-0.565-0.659
			c-0.204-0.282-0.307-0.517-0.46-0.753c-0.102-0.282-0.204-0.565-0.255-0.85c-0.051-0.282-0.102-0.565-0.102-0.847v-59.391h26.659
			v59.391c0,0.282,0,0.565-0.051,0.847c-0.102,0.285-0.153,0.567-0.307,0.803c-0.102,0.282-0.255,0.518-0.409,0.753
			c-0.204,0.282-0.361,0.47-0.616,0.706c-0.204,0.188-0.46,0.376-0.715,0.52c-0.255,0.141-0.511,0.282-0.817,0.423
			c-0.259,0.094-0.565,0.188-0.872,0.235C172.678,199.338,172.372,199.385,172.065,199.385z"/>
		<path fill="#FFFFFF" d="M172.065,193.546H154.87c-0.307,0-0.613,0-0.92-0.047c-0.307-0.094-0.613-0.144-0.923-0.285
			c-0.255-0.094-0.562-0.235-0.817-0.376c-0.255-0.188-0.46-0.329-0.715-0.565c-0.204-0.188-0.409-0.423-0.565-0.659
			c-0.204-0.235-0.307-0.47-0.46-0.753c-0.102-0.238-0.204-0.52-0.255-0.803c-0.051-0.282-0.102-0.565-0.102-0.847v-53.599h26.659
			v53.599c0,0.282,0,0.565-0.051,0.847c-0.102,0.282-0.153,0.565-0.307,0.803c-0.102,0.282-0.255,0.518-0.409,0.753
			c-0.204,0.235-0.361,0.47-0.616,0.659c-0.204,0.235-0.46,0.376-0.715,0.565c-0.255,0.141-0.511,0.282-0.817,0.376
			c-0.259,0.141-0.565,0.191-0.872,0.285C172.678,193.546,172.372,193.546,172.065,193.546z"/>
	</g>
	<g>
		<path fill="#E2E2E2" d="M200.433,199.385h-17.195c-0.307,0-0.613-0.047-0.92-0.094c-0.307-0.047-0.613-0.141-0.923-0.235
			c-0.255-0.141-0.562-0.282-0.817-0.423c-0.255-0.144-0.46-0.332-0.715-0.52c-0.204-0.235-0.409-0.423-0.565-0.659
			c-0.204-0.282-0.307-0.518-0.46-0.753c-0.102-0.282-0.204-0.565-0.255-0.85c-0.051-0.282-0.102-0.565-0.102-0.847v-59.391h26.659
			v59.391c0,0.282,0,0.565-0.051,0.847c-0.102,0.285-0.153,0.567-0.307,0.803c-0.102,0.282-0.255,0.518-0.409,0.753
			c-0.204,0.282-0.361,0.47-0.616,0.706c-0.204,0.188-0.46,0.376-0.715,0.52c-0.255,0.141-0.511,0.282-0.817,0.423
			c-0.259,0.094-0.565,0.188-0.872,0.235C201.046,199.338,200.74,199.385,200.433,199.385z"/>
		<path fill="#FFFFFF" d="M178.481,135.613h26.659v53.599c0,0.282,0,0.565-0.051,0.847c-0.102,0.282-0.153,0.565-0.307,0.803
			c-0.102,0.282-0.255,0.517-0.409,0.753c-0.204,0.235-0.361,0.47-0.616,0.659c-0.204,0.235-0.46,0.376-0.715,0.565
			c-0.255,0.141-0.511,0.282-0.817,0.376c-0.259,0.141-0.565,0.191-0.872,0.285c-0.307,0.047-0.613,0.047-0.92,0.047h-17.195
			c-0.307,0-0.613,0-0.92-0.047c-0.307-0.094-0.613-0.144-0.923-0.285c-0.255-0.094-0.562-0.235-0.817-0.376
			c-0.255-0.188-0.46-0.329-0.715-0.565c-0.204-0.188-0.409-0.423-0.565-0.659c-0.204-0.235-0.307-0.47-0.46-0.753
			c-0.102-0.238-0.204-0.52-0.255-0.803c-0.051-0.282-0.102-0.565-0.102-0.847"/>
	</g>
	<path fill="#E2E2E2" d="M228.802,199.215h-17.195c-0.307,0-0.613-0.047-0.92-0.094c-0.307-0.047-0.613-0.141-0.923-0.235
		c-0.255-0.141-0.562-0.282-0.817-0.422c-0.255-0.144-0.46-0.331-0.715-0.519c-0.204-0.235-0.409-0.422-0.565-0.657
		c-0.204-0.282-0.307-0.516-0.46-0.751c-0.102-0.282-0.204-0.563-0.255-0.848c-0.051-0.282-0.102-0.563-0.102-0.845v-59.233h26.659
		v59.233c0,0.282,0,0.563-0.051,0.845c-0.102,0.284-0.153,0.566-0.307,0.801c-0.102,0.282-0.255,0.516-0.409,0.751
		c-0.204,0.282-0.361,0.469-0.616,0.704c-0.204,0.188-0.46,0.375-0.715,0.519c-0.255,0.141-0.511,0.282-0.817,0.422
		c-0.259,0.094-0.565,0.188-0.872,0.235C229.415,199.168,229.108,199.215,228.802,199.215z"/>
	<path fill="#FFFFFF" d="M206.849,135.613h26.659v53.599c0,0.282,0,0.565-0.051,0.847c-0.102,0.282-0.153,0.565-0.307,0.803
		c-0.102,0.282-0.255,0.518-0.409,0.753c-0.204,0.235-0.361,0.47-0.616,0.659c-0.204,0.235-0.46,0.376-0.715,0.565
		c-0.255,0.141-0.511,0.282-0.817,0.376c-0.259,0.141-0.565,0.191-0.872,0.285c-0.307,0.047-0.613,0.047-0.92,0.047h-17.195
		c-0.307,0-0.613,0-0.92-0.047c-0.307-0.094-0.613-0.144-0.923-0.285c-0.255-0.094-0.562-0.235-0.817-0.376
		c-0.255-0.188-0.46-0.329-0.715-0.565c-0.204-0.188-0.409-0.423-0.565-0.659c-0.204-0.235-0.307-0.47-0.46-0.753
		c-0.102-0.238-0.204-0.52-0.255-0.803c-0.051-0.282-0.102-0.565-0.102-0.847"/>
	<path fill="#4C4C4C" d="M153.489,171.751h-8.596c-0.259,0-0.463,0-0.718-0.051c-0.204-0.051-0.46-0.152-0.664-0.202
		c-0.255-0.101-0.46-0.202-0.664-0.354c-0.156-0.152-0.361-0.303-0.514-0.455c-0.204-0.152-0.358-0.357-0.46-0.559
		c-0.153-0.202-0.255-0.404-0.358-0.606c-0.102-0.202-0.153-0.455-0.204-0.657c-0.051-0.253-0.051-0.505-0.051-0.707v-29.182h15.86
		v29.182c0,0.202,0,0.455-0.051,0.707c-0.051,0.202-0.153,0.455-0.204,0.657c-0.102,0.202-0.204,0.404-0.358,0.606
		c-0.153,0.202-0.307,0.407-0.46,0.559c-0.153,0.152-0.358,0.303-0.562,0.455c-0.204,0.152-0.412,0.253-0.616,0.354
		c-0.204,0.051-0.46,0.152-0.715,0.202c-0.204,0.051-0.46,0.051-0.715,0.051H153.489z"/>
	<path fill="#565656" d="M153.489,165.531h-8.596c-0.259,0-0.463-0.051-0.718-0.101c-0.204,0-0.46-0.101-0.664-0.202
		c-0.255-0.051-0.46-0.202-0.664-0.303c-0.156-0.152-0.361-0.306-0.514-0.458c-0.204-0.152-0.358-0.354-0.46-0.556
		c-0.153-0.202-0.255-0.404-0.358-0.606c-0.102-0.253-0.153-0.455-0.204-0.707c-0.051-0.202-0.051-0.455-0.051-0.71v-31.101h15.86
		v31.101c0,0.256,0,0.508-0.051,0.71c-0.051,0.253-0.153,0.455-0.204,0.707c-0.102,0.202-0.204,0.404-0.358,0.606
		c-0.153,0.202-0.307,0.404-0.46,0.556c-0.153,0.152-0.358,0.306-0.562,0.458c-0.204,0.101-0.412,0.253-0.616,0.303
		c-0.204,0.101-0.46,0.202-0.715,0.202c-0.204,0.051-0.46,0.101-0.715,0.101H153.489z"/>
	<path fill="#4C4C4C" d="M181.657,171.751h-8.596c-0.259,0-0.463,0-0.718-0.051c-0.204-0.051-0.46-0.152-0.664-0.202
		c-0.255-0.101-0.46-0.202-0.664-0.354c-0.156-0.152-0.361-0.303-0.514-0.455c-0.204-0.152-0.358-0.357-0.46-0.559
		c-0.153-0.202-0.255-0.404-0.358-0.606c-0.102-0.202-0.153-0.455-0.204-0.657c-0.051-0.253-0.051-0.505-0.051-0.707v-29.182h15.86
		v29.182c0,0.202,0,0.455-0.051,0.707c-0.051,0.202-0.153,0.455-0.204,0.657c-0.102,0.202-0.204,0.404-0.358,0.606
		c-0.153,0.202-0.307,0.407-0.46,0.559c-0.153,0.152-0.358,0.303-0.562,0.455c-0.204,0.152-0.412,0.253-0.616,0.354
		c-0.204,0.051-0.46,0.152-0.715,0.202c-0.204,0.051-0.46,0.051-0.715,0.051H181.657z"/>
	<path fill="#565656" d="M181.657,165.531h-8.596c-0.259,0-0.463-0.051-0.718-0.101c-0.204,0-0.46-0.101-0.664-0.202
		c-0.255-0.051-0.46-0.202-0.664-0.303c-0.156-0.152-0.361-0.306-0.514-0.458c-0.204-0.152-0.358-0.354-0.46-0.556
		c-0.153-0.202-0.255-0.404-0.358-0.606c-0.102-0.253-0.153-0.455-0.204-0.707c-0.051-0.202-0.051-0.455-0.051-0.71v-31.101h15.86
		v31.101c0,0.256,0,0.508-0.051,0.71c-0.051,0.253-0.153,0.455-0.204,0.707c-0.102,0.202-0.204,0.404-0.358,0.606
		c-0.153,0.202-0.307,0.404-0.46,0.556c-0.153,0.152-0.358,0.306-0.562,0.458c-0.204,0.101-0.412,0.253-0.616,0.303
		c-0.204,0.101-0.46,0.202-0.715,0.202c-0.204,0.05-0.46,0.101-0.715,0.101H181.657z"/>
	<path fill="#4C4C4C" d="M210.081,171.568h-8.596c-0.259,0-0.463,0-0.718-0.051c-0.204-0.05-0.46-0.152-0.664-0.202
		c-0.255-0.101-0.46-0.202-0.664-0.354c-0.156-0.152-0.361-0.303-0.514-0.455c-0.204-0.152-0.358-0.357-0.46-0.559
		c-0.153-0.202-0.255-0.404-0.358-0.606c-0.102-0.202-0.153-0.455-0.204-0.657c-0.051-0.253-0.051-0.505-0.051-0.707v-29.182h15.86
		v29.182c0,0.202,0,0.455-0.051,0.707c-0.051,0.202-0.153,0.455-0.204,0.657c-0.102,0.202-0.204,0.404-0.358,0.606
		c-0.153,0.202-0.307,0.407-0.46,0.559c-0.153,0.152-0.358,0.303-0.562,0.455c-0.204,0.152-0.412,0.253-0.616,0.354
		c-0.204,0.051-0.46,0.152-0.715,0.202c-0.204,0.051-0.46,0.051-0.715,0.051H210.081z"/>
	<path fill="#565656" d="M210.081,165.348h-8.596c-0.259,0-0.463-0.05-0.718-0.1c-0.204,0-0.46-0.101-0.664-0.201
		c-0.255-0.05-0.46-0.201-0.664-0.301c-0.156-0.151-0.361-0.305-0.514-0.455c-0.204-0.151-0.358-0.352-0.46-0.553
		c-0.153-0.201-0.255-0.402-0.358-0.603c-0.102-0.251-0.153-0.452-0.204-0.703c-0.051-0.201-0.051-0.452-0.051-0.707v-30.938h15.86
		v30.938c0,0.254,0,0.506-0.051,0.707c-0.051,0.251-0.153,0.452-0.204,0.703c-0.102,0.201-0.204,0.402-0.358,0.603
		c-0.153,0.201-0.307,0.402-0.46,0.553c-0.153,0.151-0.358,0.305-0.562,0.455c-0.204,0.101-0.412,0.251-0.616,0.301
		c-0.204,0.101-0.46,0.201-0.715,0.201c-0.204,0.05-0.46,0.1-0.715,0.1H210.081z"/>
	<g>
		<g>
			<path fill="#E2E2E2" d="M86.962,199.385H69.767c-0.307,0-0.613-0.047-0.92-0.094c-0.307-0.047-0.613-0.141-0.923-0.235
				c-0.255-0.141-0.562-0.282-0.817-0.423c-0.255-0.144-0.46-0.332-0.715-0.52c-0.204-0.235-0.409-0.423-0.565-0.659
				c-0.204-0.282-0.307-0.518-0.46-0.753c-0.102-0.282-0.204-0.565-0.255-0.85c-0.051-0.282-0.102-0.565-0.102-0.847v-59.391h26.659
				v59.391c0,0.282,0,0.565-0.051,0.847c-0.102,0.285-0.153,0.567-0.307,0.803c-0.102,0.282-0.255,0.518-0.409,0.753
				c-0.204,0.282-0.361,0.47-0.616,0.706c-0.204,0.188-0.46,0.376-0.715,0.52c-0.255,0.141-0.511,0.282-0.817,0.423
				c-0.259,0.094-0.565,0.188-0.872,0.235C87.575,199.338,87.269,199.385,86.962,199.385z"/>
			<path fill="#FFFFFF" d="M65.009,135.613h26.659v53.599c0,0.282,0,0.565-0.051,0.847c-0.102,0.282-0.153,0.565-0.307,0.803
				c-0.102,0.282-0.255,0.518-0.409,0.753c-0.204,0.235-0.361,0.47-0.616,0.659c-0.204,0.235-0.46,0.376-0.715,0.565
				c-0.255,0.141-0.511,0.282-0.817,0.376c-0.259,0.141-0.565,0.191-0.872,0.285c-0.307,0.047-0.613,0.047-0.92,0.047H69.767
				c-0.307,0-0.613,0-0.92-0.047c-0.307-0.094-0.613-0.144-0.923-0.285c-0.255-0.094-0.562-0.235-0.817-0.376
				c-0.255-0.188-0.46-0.329-0.715-0.565c-0.204-0.188-0.409-0.423-0.565-0.659c-0.204-0.235-0.307-0.47-0.46-0.753
				c-0.102-0.238-0.204-0.52-0.255-0.803c-0.051-0.282-0.102-0.565-0.102-0.847"/>
		</g>
		<g>
			<path fill="#E2E2E2" d="M115.33,199.215H98.135c-0.307,0-0.613-0.047-0.92-0.094c-0.307-0.047-0.613-0.141-0.923-0.235
				c-0.255-0.141-0.562-0.282-0.817-0.422c-0.255-0.144-0.46-0.331-0.715-0.519c-0.204-0.235-0.409-0.422-0.565-0.657
				c-0.204-0.282-0.307-0.516-0.46-0.751c-0.102-0.282-0.204-0.563-0.255-0.848c-0.051-0.282-0.102-0.563-0.102-0.845v-59.233
				h26.659v59.233c0,0.282,0,0.563-0.051,0.845c-0.102,0.284-0.153,0.566-0.307,0.801c-0.102,0.282-0.255,0.516-0.409,0.751
				c-0.204,0.282-0.361,0.469-0.616,0.704c-0.204,0.188-0.46,0.375-0.715,0.519c-0.255,0.141-0.511,0.282-0.817,0.422
				c-0.259,0.094-0.565,0.188-0.872,0.235C115.943,199.168,115.637,199.215,115.33,199.215z"/>
			<path fill="#FFFFFF" d="M93.378,135.913h26.659v53.321c0,0.281,0,0.562-0.051,0.842c-0.102,0.281-0.153,0.562-0.307,0.799
				c-0.102,0.281-0.255,0.515-0.409,0.749c-0.204,0.234-0.361,0.468-0.616,0.655c-0.204,0.234-0.46,0.374-0.715,0.562
				c-0.255,0.14-0.511,0.281-0.817,0.374c-0.259,0.14-0.565,0.19-0.872,0.284c-0.307,0.047-0.613,0.047-0.92,0.047H98.135
				c-0.307,0-0.613,0-0.92-0.047c-0.307-0.094-0.613-0.143-0.923-0.284c-0.255-0.094-0.562-0.234-0.817-0.374
				c-0.255-0.187-0.46-0.328-0.715-0.562c-0.204-0.187-0.409-0.421-0.565-0.655c-0.204-0.234-0.307-0.468-0.46-0.749
				c-0.102-0.237-0.204-0.518-0.255-0.799c-0.051-0.281-0.102-0.562-0.102-0.842"/>
		</g>
		<path fill="#4C4C4C" d="M96.82,171.568h-8.596c-0.259,0-0.463,0-0.718-0.051c-0.204-0.05-0.46-0.152-0.664-0.202
			c-0.255-0.101-0.46-0.202-0.664-0.354c-0.156-0.152-0.361-0.303-0.514-0.455c-0.204-0.152-0.358-0.357-0.46-0.559
			c-0.153-0.202-0.255-0.404-0.358-0.606c-0.102-0.202-0.153-0.455-0.204-0.657c-0.051-0.253-0.051-0.505-0.051-0.707v-29.182h15.86
			v29.182c0,0.202,0,0.455-0.051,0.707c-0.051,0.202-0.153,0.455-0.204,0.657c-0.102,0.202-0.204,0.404-0.358,0.606
			c-0.153,0.202-0.307,0.407-0.46,0.559c-0.153,0.152-0.358,0.303-0.562,0.455c-0.204,0.152-0.412,0.253-0.616,0.354
			c-0.204,0.051-0.46,0.152-0.715,0.202c-0.204,0.051-0.46,0.051-0.715,0.051H96.82z"/>
		<path fill="#565656" d="M96.82,165.348h-8.596c-0.259,0-0.463-0.05-0.718-0.1c-0.204,0-0.46-0.101-0.664-0.201
			c-0.255-0.05-0.46-0.201-0.664-0.301c-0.156-0.151-0.361-0.305-0.514-0.455c-0.204-0.151-0.358-0.352-0.46-0.553
			c-0.153-0.201-0.255-0.402-0.358-0.603c-0.102-0.251-0.153-0.452-0.204-0.703c-0.051-0.201-0.051-0.452-0.051-0.707v-30.938h15.86
			v30.938c0,0.254,0,0.506-0.051,0.707c-0.051,0.251-0.153,0.452-0.204,0.703c-0.102,0.201-0.204,0.402-0.358,0.603
			c-0.153,0.201-0.307,0.402-0.46,0.553c-0.153,0.151-0.358,0.305-0.562,0.455c-0.204,0.101-0.412,0.251-0.616,0.301
			c-0.204,0.101-0.46,0.201-0.715,0.201c-0.204,0.05-0.46,0.1-0.715,0.1H96.82z"/>
	</g>
	<g>
		<path fill="#FFDAA9" d="M131.094,124.64c-0.101,0-0.254,0-0.355-0.051c-0.152,0-0.254-0.051-0.355-0.101
			c-0.101-0.051-0.203-0.101-0.304-0.152c-0.101-0.051-0.203-0.152-0.304-0.254c-0.102-0.051-0.152-0.152-0.254-0.254
			c-0.054-0.101-0.105-0.203-0.155-0.355c-0.051-0.101-0.101-0.203-0.101-0.355c-0.051-0.101-0.051-0.203-0.051-0.355v-14.48
			c0-0.101,0-0.254,0.051-0.355c0-0.152,0.051-0.254,0.101-0.355c0.051-0.101,0.101-0.203,0.155-0.304
			c0.101-0.101,0.152-0.203,0.254-0.304c0.101-0.102,0.203-0.152,0.304-0.254c0.101-0.051,0.203-0.101,0.304-0.152
			c0.102-0.051,0.203-0.101,0.355-0.101c0.101-0.051,0.254-0.051,0.355-0.051c0.101,0,0.254,0,0.355,0.051
			c0.155,0,0.257,0.051,0.358,0.101c0.101,0.051,0.254,0.101,0.355,0.152c0.101,0.102,0.152,0.152,0.254,0.254
			c0.101,0.101,0.152,0.203,0.254,0.304c0.051,0.101,0.102,0.203,0.152,0.304s0.101,0.203,0.101,0.355
			c0.051,0.102,0.051,0.254,0.051,0.355v14.48c0,0.152,0,0.254-0.051,0.355c0,0.152-0.051,0.254-0.101,0.355
			c-0.051,0.152-0.101,0.254-0.152,0.355c-0.101,0.101-0.152,0.203-0.254,0.254c-0.102,0.101-0.152,0.203-0.254,0.254
			c-0.101,0.051-0.254,0.101-0.355,0.152c-0.101,0.051-0.203,0.101-0.358,0.101C131.348,124.64,131.195,124.64,131.094,124.64z"/>
		<path fill="#383838" d="M131.094,123.423c-0.101,0-0.152-0.051-0.254-0.051c-0.051-0.051-0.152-0.101-0.203-0.152
			c-0.051-0.051-0.102-0.152-0.102-0.203c-0.051-0.101-0.051-0.152-0.051-0.254v-14.48c0-0.101,0-0.152,0.051-0.254
			c0-0.051,0.051-0.152,0.102-0.203c0.051-0.051,0.152-0.101,0.203-0.152c0.101,0,0.152-0.051,0.254-0.051
			c0.101,0,0.152,0.051,0.254,0.051c0.051,0.051,0.152,0.101,0.203,0.152c0.054,0.051,0.105,0.152,0.105,0.203
			c0.051,0.101,0.051,0.152,0.051,0.254v14.48c0,0.101,0,0.152-0.051,0.254c0,0.051-0.051,0.152-0.105,0.203
			c-0.051,0.051-0.152,0.101-0.203,0.152C131.246,123.372,131.195,123.423,131.094,123.423z"/>
		<path fill="#4F4F4F" d="M133.255,117.238v0.558c0,0.101-0.051,0.254-0.051,0.406c-0.051,0.101-0.102,0.254-0.152,0.355
			c-0.051,0.152-0.102,0.254-0.206,0.406c-0.101,0.101-0.152,0.203-0.254,0.304c-0.101,0.101-0.203,0.152-0.355,0.254
			c-0.101,0.051-0.203,0.152-0.355,0.203c-0.101,0.051-0.254,0.051-0.406,0.105c-0.101,0.051-0.254,0.051-0.406,0.051
			c-0.152,0-0.257,0-0.409-0.051c-0.152-0.054-0.254-0.054-0.406-0.105c-0.101-0.051-0.254-0.152-0.355-0.203
			c-0.101-0.101-0.254-0.152-0.304-0.254c-0.101-0.101-0.203-0.203-0.304-0.304c-0.051-0.152-0.152-0.254-0.203-0.406
			c-0.051-0.101-0.101-0.254-0.101-0.355c-0.051-0.152-0.051-0.304-0.051-0.406v-0.558c0-0.46,0.101-0.815,0.304-1.17h0.507
			c0.203-0.152,0.406-0.254,0.609-0.355c0.254-0.051,0.457-0.101,0.714-0.101c0.254,0,0.457,0.051,0.71,0.101
			c0.203,0.101,0.406,0.203,0.609,0.355h0.507C133.103,116.423,133.255,116.779,133.255,117.238z"/>
		<path fill="#686868" d="M133.255,117.238c0,0.101-0.051,0.254-0.051,0.406c-0.051,0.101-0.102,0.254-0.152,0.406
			c-0.051,0.101-0.102,0.203-0.206,0.355c-0.101,0.101-0.152,0.203-0.254,0.304c-0.101,0.101-0.203,0.152-0.355,0.254
			c-0.101,0.051-0.203,0.152-0.355,0.203c-0.101,0.051-0.254,0.101-0.406,0.101c-0.101,0.051-0.254,0.051-0.406,0.051
			c-0.152,0-0.257,0-0.409-0.051c-0.152,0-0.254-0.051-0.406-0.101c-0.101-0.051-0.254-0.152-0.355-0.203
			c-0.101-0.101-0.254-0.152-0.304-0.254c-0.101-0.101-0.203-0.203-0.304-0.304c-0.051-0.152-0.152-0.254-0.203-0.355
			c-0.051-0.152-0.101-0.304-0.101-0.406c-0.051-0.152-0.051-0.304-0.051-0.406c0-0.46,0.101-0.815,0.304-1.17
			c0.051-0.101,0.101-0.152,0.152-0.203c0.051-0.101,0.152-0.152,0.203-0.203c0.051-0.101,0.152-0.152,0.203-0.203
			c0.101-0.051,0.152-0.101,0.254-0.152c0.051-0.051,0.152-0.051,0.203-0.101c0.102-0.051,0.203-0.051,0.304-0.101
			c0.051,0,0.152,0,0.254-0.051c0.105,0,0.155,0,0.257,0c0.101,0,0.203,0,0.254,0c0.102,0.051,0.203,0.051,0.304,0.051
			c0.051,0.051,0.152,0.051,0.254,0.101c0.051,0.051,0.152,0.051,0.254,0.101c0.051,0.051,0.152,0.101,0.203,0.152
			c0.101,0.051,0.152,0.101,0.203,0.203c0.101,0.051,0.152,0.101,0.203,0.203c0.051,0.051,0.101,0.101,0.152,0.203
			C133.103,116.423,133.255,116.779,133.255,117.238z"/>
	</g>
	<g>
		<path fill="#FFDAA9" d="M141.462,124.64c-0.102,0-0.254,0-0.355-0.051c-0.101,0-0.254-0.051-0.355-0.101
			c-0.102-0.051-0.203-0.101-0.304-0.152c-0.101-0.051-0.203-0.152-0.304-0.254c-0.101-0.051-0.152-0.152-0.254-0.254
			c-0.051-0.101-0.101-0.203-0.152-0.355c-0.051-0.101-0.101-0.203-0.101-0.355c-0.051-0.101-0.051-0.203-0.051-0.355v-14.48
			c0-1.015,0.863-1.877,1.877-1.877c1.018,0,1.881,0.863,1.881,1.877v14.48c0,0.152,0,0.254-0.051,0.355
			c0,0.152-0.051,0.254-0.101,0.355c-0.051,0.152-0.101,0.254-0.152,0.355c-0.101,0.101-0.152,0.203-0.254,0.254
			c-0.101,0.101-0.152,0.203-0.254,0.254c-0.102,0.051-0.254,0.101-0.355,0.152c-0.102,0.051-0.203,0.101-0.355,0.101
			C141.719,124.64,141.617,124.64,141.462,124.64z"/>
		<path fill="#383838" d="M141.462,123.423c-0.102,0-0.152-0.051-0.254-0.051c-0.051-0.051-0.101-0.101-0.203-0.152
			c-0.051-0.051-0.101-0.152-0.101-0.203c-0.051-0.101-0.051-0.152-0.051-0.254v-14.48c0-0.101,0-0.152,0.051-0.254
			c0-0.051,0.051-0.102,0.101-0.203c0.101-0.051,0.152-0.101,0.203-0.101c0.102-0.051,0.152-0.051,0.254-0.051
			c0.101,0,0.155,0,0.257,0.051c0.051,0,0.152,0.051,0.203,0.101c0.051,0.101,0.101,0.152,0.101,0.203
			c0.051,0.101,0.051,0.152,0.051,0.254v14.48c0,0.101,0,0.152-0.051,0.254c0,0.051-0.051,0.152-0.101,0.203
			c-0.051,0.051-0.152,0.101-0.203,0.152C141.617,123.372,141.563,123.423,141.462,123.423z"/>
		<path fill="#4F4F4F" d="M143.623,109.859v0.558c0,0.101-0.051,0.254-0.051,0.406c-0.051,0.101-0.102,0.254-0.152,0.355
			c-0.051,0.152-0.102,0.254-0.206,0.406c-0.101,0.101-0.152,0.203-0.254,0.304c-0.101,0.101-0.203,0.152-0.355,0.254
			c-0.101,0.051-0.203,0.152-0.355,0.203c-0.101,0.051-0.254,0.051-0.406,0.105c-0.101,0.051-0.254,0.051-0.406,0.051
			c-0.152,0-0.257,0-0.409-0.051c-0.152-0.054-0.254-0.054-0.406-0.105c-0.101-0.051-0.254-0.152-0.355-0.203
			c-0.101-0.101-0.254-0.152-0.304-0.254c-0.101-0.101-0.203-0.203-0.304-0.304c-0.051-0.152-0.152-0.254-0.203-0.406
			c-0.051-0.101-0.101-0.254-0.101-0.355c-0.051-0.152-0.051-0.304-0.051-0.406v-0.558c0-0.46,0.101-0.815,0.304-1.17h0.507
			c0.203-0.152,0.406-0.254,0.609-0.355c0.254-0.051,0.457-0.101,0.714-0.101c0.254,0,0.457,0.051,0.71,0.101
			c0.203,0.101,0.406,0.203,0.609,0.355h0.507C143.471,109.044,143.623,109.399,143.623,109.859z"/>
		<path fill="#686868" d="M143.623,109.859c0,0.101-0.051,0.254-0.051,0.406c-0.051,0.101-0.102,0.254-0.152,0.406
			c-0.051,0.101-0.102,0.203-0.206,0.355c-0.101,0.101-0.152,0.203-0.254,0.304c-0.101,0.101-0.203,0.152-0.355,0.254
			c-0.101,0.051-0.203,0.152-0.355,0.203c-0.101,0.051-0.254,0.101-0.406,0.101c-0.101,0.051-0.254,0.051-0.406,0.051
			c-0.152,0-0.257,0-0.409-0.051c-0.152,0-0.254-0.051-0.406-0.101c-0.101-0.051-0.254-0.152-0.355-0.203
			c-0.101-0.101-0.254-0.152-0.304-0.254c-0.101-0.101-0.203-0.203-0.304-0.304c-0.051-0.152-0.152-0.254-0.203-0.355
			c-0.051-0.152-0.101-0.304-0.101-0.406c-0.051-0.152-0.051-0.304-0.051-0.406c0-0.46,0.101-0.815,0.304-1.17
			c0.051-0.101,0.101-0.152,0.152-0.203c0.051-0.101,0.152-0.152,0.203-0.203c0.051-0.101,0.152-0.152,0.203-0.203
			c0.101-0.051,0.152-0.101,0.254-0.152c0.051-0.051,0.152-0.051,0.203-0.101c0.102-0.051,0.203-0.051,0.304-0.101
			c0.051,0,0.152,0,0.254-0.051c0.105,0,0.155,0,0.257,0c0.101,0,0.203,0,0.254,0c0.102,0.051,0.203,0.051,0.304,0.051
			c0.051,0.051,0.152,0.051,0.254,0.101c0.051,0.051,0.152,0.051,0.254,0.101c0.051,0.051,0.152,0.101,0.203,0.152
			c0.101,0.051,0.152,0.101,0.203,0.203c0.101,0.051,0.152,0.101,0.203,0.203c0.051,0.051,0.101,0.101,0.152,0.203
			C143.471,109.044,143.623,109.399,143.623,109.859z"/>
	</g>
	<g>
		<path fill="#FFDAA9" d="M151.831,124.64c-0.101,0-0.257,0-0.358-0.051c-0.101,0-0.254-0.051-0.355-0.101
			c-0.101-0.051-0.203-0.101-0.304-0.152c-0.101-0.051-0.203-0.152-0.304-0.254c-0.101-0.051-0.152-0.152-0.254-0.254
			c-0.051-0.101-0.101-0.203-0.152-0.355c-0.051-0.101-0.101-0.203-0.101-0.355c-0.051-0.101-0.051-0.203-0.051-0.355v-14.48
			c0-0.101,0-0.254,0.051-0.355c0-0.152,0.051-0.254,0.101-0.355c0.051-0.101,0.101-0.203,0.152-0.304
			c0.101-0.101,0.152-0.203,0.254-0.304c0.101-0.102,0.203-0.152,0.304-0.254c0.101-0.051,0.203-0.101,0.304-0.152
			c0.101-0.051,0.254-0.101,0.355-0.101c0.101-0.051,0.257-0.051,0.358-0.051c0.152,0,0.254,0,0.355,0.051
			c0.152,0,0.254,0.051,0.355,0.101c0.101,0.051,0.254,0.101,0.355,0.152c0.102,0.102,0.203,0.152,0.254,0.254
			c0.101,0.101,0.152,0.203,0.254,0.304c0.051,0.101,0.102,0.203,0.152,0.304c0.051,0.101,0.102,0.203,0.102,0.355
			c0.054,0.102,0.054,0.254,0.054,0.355v14.48c0,0.152,0,0.254-0.054,0.355c0,0.152-0.051,0.254-0.102,0.355
			c-0.051,0.152-0.101,0.254-0.152,0.355c-0.101,0.101-0.152,0.203-0.254,0.254c-0.101,0.101-0.152,0.203-0.254,0.254
			c-0.101,0.051-0.254,0.101-0.355,0.152c-0.101,0.051-0.203,0.101-0.355,0.101C152.085,124.64,151.984,124.64,151.831,124.64z"/>
		<path fill="#383838" d="M151.831,123.423c-0.101,0-0.152-0.051-0.257-0.051c-0.051-0.051-0.101-0.101-0.203-0.152
			c-0.051-0.051-0.101-0.152-0.101-0.203c-0.051-0.101-0.051-0.152-0.051-0.254v-14.48c0-0.101,0-0.152,0.051-0.254
			c0-0.051,0.051-0.102,0.101-0.203c0.101-0.051,0.152-0.101,0.203-0.101c0.105-0.051,0.206-0.051,0.257-0.051
			c0.101,0,0.152,0,0.254,0.051c0.051,0,0.152,0.051,0.203,0.101c0.051,0.101,0.101,0.152,0.101,0.203
			c0.051,0.101,0.051,0.152,0.051,0.254v14.48c0,0.101,0,0.152,0,0.254c-0.051,0.051-0.102,0.152-0.152,0.203
			c-0.051,0.051-0.152,0.101-0.203,0.152C151.984,123.372,151.933,123.423,151.831,123.423z"/>
		<path fill="#4F4F4F" d="M153.991,119.208v0.558c0,0.101-0.051,0.254-0.051,0.406c-0.051,0.101-0.102,0.254-0.152,0.355
			c-0.051,0.152-0.101,0.254-0.206,0.406c-0.101,0.101-0.152,0.203-0.254,0.304c-0.101,0.101-0.203,0.152-0.355,0.254
			c-0.101,0.051-0.203,0.152-0.355,0.203c-0.101,0.051-0.254,0.051-0.406,0.105c-0.101,0.051-0.254,0.051-0.406,0.051
			c-0.152,0-0.257,0-0.409-0.051c-0.152-0.054-0.254-0.054-0.406-0.105c-0.101-0.051-0.254-0.152-0.355-0.203
			c-0.101-0.101-0.254-0.152-0.304-0.254c-0.101-0.101-0.203-0.203-0.304-0.304c-0.051-0.152-0.152-0.254-0.203-0.406
			c-0.051-0.101-0.101-0.254-0.101-0.355c-0.051-0.152-0.051-0.304-0.051-0.406v-0.558c0-0.46,0.101-0.815,0.304-1.17h0.507
			c0.203-0.152,0.406-0.254,0.609-0.355c0.254-0.051,0.457-0.101,0.714-0.101c0.254,0,0.457,0.051,0.71,0.101
			c0.203,0.101,0.406,0.203,0.609,0.355h0.507C153.839,118.393,153.991,118.748,153.991,119.208z"/>
		<path fill="#686868" d="M153.991,119.208c0,0.101-0.051,0.254-0.051,0.406c-0.051,0.101-0.102,0.254-0.152,0.406
			c-0.051,0.101-0.101,0.203-0.206,0.355c-0.101,0.101-0.152,0.203-0.254,0.304c-0.101,0.101-0.203,0.152-0.355,0.254
			c-0.101,0.051-0.203,0.152-0.355,0.203c-0.101,0.051-0.254,0.101-0.406,0.101c-0.101,0.051-0.254,0.051-0.406,0.051
			c-0.152,0-0.257,0-0.409-0.051c-0.152,0-0.254-0.051-0.406-0.101c-0.101-0.051-0.254-0.152-0.355-0.203
			c-0.101-0.101-0.254-0.152-0.304-0.254c-0.101-0.101-0.203-0.203-0.304-0.304c-0.051-0.152-0.152-0.254-0.203-0.355
			c-0.051-0.152-0.101-0.304-0.101-0.406c-0.051-0.152-0.051-0.304-0.051-0.406c0-0.46,0.101-0.815,0.304-1.17
			c0.051-0.101,0.101-0.152,0.152-0.203c0.051-0.101,0.152-0.152,0.203-0.203c0.051-0.101,0.152-0.152,0.203-0.203
			c0.101-0.051,0.152-0.101,0.254-0.152c0.051-0.051,0.152-0.051,0.203-0.101c0.102-0.051,0.203-0.051,0.304-0.101
			c0.051,0,0.152,0,0.254-0.051c0.105,0,0.155,0,0.257,0c0.101,0,0.203,0,0.254,0c0.102,0.051,0.203,0.051,0.304,0.051
			c0.051,0.051,0.152,0.051,0.254,0.101c0.051,0.051,0.152,0.051,0.254,0.101c0.051,0.051,0.152,0.101,0.203,0.152
			c0.101,0.051,0.152,0.101,0.203,0.203c0.101,0.051,0.152,0.101,0.203,0.203c0.051,0.051,0.101,0.101,0.152,0.203
			C153.839,118.393,153.991,118.748,153.991,119.208z"/>
	</g>
</g>
</svg>
