<svg xmlns="http://www.w3.org/2000/svg" viewBox="0 0 300 300"><ellipse cx="150" cy="150" fill="#fff" rx="150" ry="150"/><circle cx="150" cy="150" r="140.812" fill="#fbbc4b"/><path fill="#d6566e" d="M196.282 213.844h-92.564a4.64 4.64 0 0 1-4.64-4.64v-79.29c0-1.194.968-2.161 2.162-2.161h97.521c1.194 0 2.162.968 2.162 2.161v79.29a4.642 4.642 0 0 1-4.641 4.64z"/><path fill="#ed6979" d="M196.282 208.014h-92.564a4.64 4.64 0 0 1-4.64-4.64v-73.46c0-1.194.968-2.161 2.162-2.161h97.521c1.194 0 2.162.968 2.162 2.161v73.46a4.642 4.642 0 0 1-4.641 4.64z"/><path fill="#3d3d3d" d="M112.736 155.787h74.527v58.057h-74.527z"/><path fill="#e2e2e2" d="M124.897 219.66h-12.8a3.176 3.176 0 0 1-3.176-3.176v-60.697h19.151v60.697a3.174 3.174 0 0 1-3.175 3.176z"/><path fill="#fff" d="M124.897 213.844h-12.8a3.176 3.176 0 0 1-3.176-3.176v-54.881h19.151v54.881a3.175 3.175 0 0 1-3.175 3.176z"/><path fill="#e2e2e2" d="M145.899 219.66h-12.8a3.176 3.176 0 0 1-3.176-3.176v-60.697h19.151v60.697a3.175 3.175 0 0 1-3.175 3.176z"/><path fill="#fff" d="M145.899 213.844h-12.8a3.176 3.176 0 0 1-3.176-3.176v-54.881h19.151v54.881a3.175 3.175 0 0 1-3.175 3.176z"/><path fill="#e2e2e2" d="M166.901 219.66h-12.8a3.176 3.176 0 0 1-3.176-3.176v-60.697h19.151v60.697a3.175 3.175 0 0 1-3.175 3.176z"/><path fill="#fff" d="M166.901 213.844h-12.8a3.176 3.176 0 0 1-3.176-3.176v-54.881h19.151v54.881a3.175 3.175 0 0 1-3.175 3.176z"/><path fill="#e2e2e2" d="M187.903 219.66h-12.8a3.176 3.176 0 0 1-3.176-3.176v-60.697h19.151v60.697a3.175 3.175 0 0 1-3.175 3.176z"/><path fill="#fff" d="M187.903 213.844h-12.8a3.176 3.176 0 0 1-3.176-3.176v-54.881h19.151v54.881a3.175 3.175 0 0 1-3.175 3.176z"/><path fill="#4c4c4c" d="M131.81 194.006h-5.623a2.326 2.326 0 0 1-2.326-2.326v-28.247h10.275v28.247a2.327 2.327 0 0 1-2.326 2.326z"/><path fill="#565656" d="M131.81 188.189h-5.623a2.326 2.326 0 0 1-2.326-2.326v-30.076h10.275v30.076a2.327 2.327 0 0 1-2.326 2.326z"/><path fill="#4c4c4c" d="M152.811 194.006h-5.623a2.326 2.326 0 0 1-2.326-2.326v-28.247h10.275v28.247a2.326 2.326 0 0 1-2.326 2.326z"/><path fill="#565656" d="M152.811 188.189h-5.623a2.326 2.326 0 0 1-2.326-2.326v-30.076h10.275v30.076a2.326 2.326 0 0 1-2.326 2.326z"/><path fill="#ededed" d="M99.078 160.237v-25.713c0-1.282 1.33-2.322 2.971-2.322h95.902c1.641 0 2.971 1.039 2.971 2.322v25.713z"/><path fill="#d6566e" d="M99.104 155.829v-28.875c0-1.44 1.33-2.607 2.97-2.607h95.867c1.64 0 2.97 1.167 2.97 2.607v28.875z"/><path fill="#fff" d="M108.834 141.112c-.438-.672-1.198-1.14-2.075-1.14s-1.637.468-2.075 1.14c-.263.38-.38.848-.38 1.315 0 .117 0 .264.059.38.146 1.169 1.14 2.075 2.397 2.075 1.198 0 2.222-.877 2.397-2.017.059-.146.059-.293.059-.439a2.572 2.572 0 0 0-.382-1.314z"/><path fill="#686868" d="M108.311 141.442c-.328-.503-.897-.853-1.553-.853s-1.225.35-1.553.853a1.728 1.728 0 0 0-.284.984c0 .088 0 .197.043.285.109.875.853 1.553 1.794 1.553.897 0 1.662-.656 1.794-1.509.043-.11.043-.219.043-.328.001-.35-.108-.7-.284-.985z"/><path fill="#4f4f4f" d="M108.596 142.427c0 .11 0 .219-.043.328 0-.285-.11-.547-.241-.766-.328-.503-.897-.853-1.553-.853s-1.225.35-1.553.853a1.244 1.244 0 0 0-.241.722c-.043-.088-.043-.197-.043-.285 0-.35.088-.699.284-.984.328-.503.897-.853 1.553-.853s1.225.35 1.553.853c.175.285.284.635.284.985z"/><circle cx="120.684" cy="142.431" r="5.82" fill="#fff"/><path fill="#4f4f4f" d="M125.325 141.244v1.188c0 2.562-2.079 4.641-4.641 4.641s-4.641-2.079-4.641-4.641v-1.188c0-.91.26-1.758.718-2.475h1.083c.786-.613 1.77-.978 2.84-.978s2.055.365 2.84.978h1.083c.458.717.718 1.565.718 2.475z"/><path fill="#686868" d="M125.325 141.244c0 2.562-2.079 4.641-4.641 4.641s-4.641-2.079-4.641-4.641c0-.91.26-1.758.718-2.475a4.63 4.63 0 0 1 3.923-2.166c1.653 0 3.106.866 3.923 2.166.458.717.718 1.565.718 2.475z"/><ellipse cx="135.539" cy="142.431" fill="#fff" rx="5.82" ry="5.82" transform="rotate(-85.268 135.542 142.43)"/><path fill="#4f4f4f" d="M140.18 141.244v1.188c0 2.562-2.079 4.641-4.641 4.641s-4.641-2.079-4.641-4.641v-1.188c0-.91.26-1.758.718-2.475h1.083c.786-.613 1.77-.978 2.84-.978s2.055.365 2.84.978h1.083c.458.717.718 1.565.718 2.475z"/><path fill="#686868" d="M140.18 141.244c0 2.562-2.079 4.641-4.641 4.641s-4.641-2.079-4.641-4.641c0-.91.26-1.758.718-2.475a4.63 4.63 0 0 1 3.923-2.166c1.653 0 3.106.866 3.923 2.166.458.717.718 1.565.718 2.475z"/><circle cx="179.398" cy="135.814" r="3.83" fill="#fff"/><circle cx="179.398" cy="135.814" r="3.83" fill="#fff"/><path fill="#4f4f4f" d="M182.452 133.275v2.539a3.055 3.055 0 0 1-6.108 0v-2.539c0-.599 1.185-1.784 1.185-1.784a3.03 3.03 0 0 1 3.738 0s1.185 1.185 1.185 1.784z"/><g fill="#686868"><path d="M182.452 133.351a3.055 3.055 0 0 1-6.108 0c0-.599.171-1.157.472-1.629a3.05 3.05 0 0 1 5.164 0c.301.472.472 1.031.472 1.629z"/><path d="M179.309 131.118h.177v.714h-.177zm-2.345.67l.154-.088.357.618-.154.089zm-2.45 1.332l.24-.418.95.548-.241.417zm-.616 2.292h1.096v.482h-1.096zm.602 2.778l.95-.548.24.417-.95.548zm1.928 2.114l.547-.948.417.24-.547.949zm2.728-.245h.482v1.095h-.482zm2.227-.478l.417-.24.548.949-.417.24zm1.704-1.506l.241-.417.948.547-.24.418zm.715-2.663h1.096v.482h-1.096zm-.708-2.165l.949-.548.241.417-.949.549zm-1.791-.927l.357-.618.153.089-.357.618z"/></g><path fill="#fff" d="M167.547 133.655c-.438-.672-1.198-1.14-2.075-1.14s-1.637.468-2.075 1.14c-.263.38-.38.848-.38 1.315 0 .117 0 .264.059.38.146 1.169 1.14 2.075 2.397 2.075 1.198 0 2.222-.877 2.397-2.017.059-.146.059-.293.059-.439a2.556 2.556 0 0 0-.382-1.314z"/><path fill="#686868" d="M167.025 133.986c-.328-.503-.897-.853-1.553-.853s-1.225.35-1.553.853a1.728 1.728 0 0 0-.284.984c0 .088 0 .197.043.285.109.875.853 1.553 1.794 1.553.897 0 1.662-.656 1.794-1.509.043-.11.043-.219.043-.328.001-.351-.108-.7-.284-.985z"/><path fill="#4f4f4f" d="M167.31 134.971c0 .11 0 .219-.043.328 0-.285-.11-.547-.241-.766-.328-.503-.897-.853-1.553-.853s-1.225.35-1.553.853a1.244 1.244 0 0 0-.241.722c-.043-.088-.043-.197-.043-.285 0-.35.088-.699.284-.984.328-.503.897-.853 1.553-.853s1.225.35 1.553.853c.175.285.284.634.284.985z"/><circle cx="193.241" cy="134.974" r="2.453" fill="#fff"/><path fill="#4f4f4f" d="M195.197 133.348v1.626a1.955 1.955 0 0 1-3.91 0v-1.626c0-.383.759-1.142.759-1.142a1.94 1.94 0 0 1 2.394 0c-.002 0 .757.759.757 1.142z"/><path fill="#686868" d="M195.197 133.398a1.955 1.955 0 1 1-3.91 0 1.955 1.955 0 0 1 3.91 0z"/><path fill="#4f4f4f" d="M194.579 131.767v1.112a1.338 1.338 0 0 1-2.674 0v-1.112c0-.262.519-.781.519-.781a1.322 1.322 0 0 1 1.636 0s.519.519.519.781z"/><path fill="#686868" d="M194.579 131.801a1.338 1.338 0 1 1-2.675-.001 1.338 1.338 0 0 1 2.675.001z"/><circle cx="165.473" cy="147.104" r="2.453" fill="#fff"/><path fill="#4f4f4f" d="M167.428 145.478v1.626a1.955 1.955 0 0 1-3.91 0v-1.626c0-.383.759-1.142.759-1.142a1.94 1.94 0 0 1 2.394 0c-.002 0 .757.759.757 1.142z"/><path fill="#686868" d="M167.428 145.528a1.955 1.955 0 1 1-3.91 0 1.955 1.955 0 0 1 3.91 0z"/><path fill="#4f4f4f" d="M166.81 143.897v1.112a1.338 1.338 0 0 1-2.674 0v-1.112c0-.262.519-.781.519-.781a1.322 1.322 0 0 1 1.636 0s.519.519.519.781z"/><path fill="#686868" d="M166.81 143.931a1.338 1.338 0 1 1-2.675-.001 1.338 1.338 0 0 1 2.675.001z"/><circle cx="179.398" cy="147.944" r="3.83" fill="#fff"/><circle cx="179.398" cy="147.944" r="3.83" fill="#fff"/><path fill="#4f4f4f" d="M182.452 145.405v2.539a3.055 3.055 0 0 1-6.108 0v-2.539c0-.599 1.185-1.784 1.185-1.784a3.03 3.03 0 0 1 3.738 0s1.185 1.185 1.185 1.784z"/><path fill="#686868" d="M182.452 145.481a3.055 3.055 0 0 1-6.108 0c0-.599.171-1.157.472-1.629a3.05 3.05 0 0 1 5.164 0 3.02 3.02 0 0 1 .472 1.629z"/><path fill="#686868" d="M179.309 143.248h.177v.714h-.177zm-2.345.67l.154-.088.357.618-.154.089zm-2.451 1.331l.241-.417.95.548-.242.417zm-.615 2.293h1.096v.482h-1.096zm.602 2.778l.949-.548.24.417-.948.548zm1.926 2.114l.548-.948.417.241-.547.948zm2.73-.245h.482v1.095h-.482zm2.227-.479l.418-.24.548.949-.418.24zm1.703-1.504l.24-.418.95.548-.242.417zm.716-2.664h1.096v.482h-1.096zm-.709-2.164l.949-.549.241.418-.949.548zm-1.79-.928l.357-.618.153.089-.357.618z"/><path fill="#fff" d="M195.317 145.785c-.438-.672-1.198-1.14-2.075-1.14s-1.637.468-2.075 1.14c-.263.38-.38.848-.38 1.315 0 .117 0 .264.059.38.146 1.169 1.14 2.075 2.397 2.075 1.198 0 2.222-.877 2.397-2.017.059-.146.059-.293.059-.439a2.575 2.575 0 0 0-.382-1.314z"/><path fill="#686868" d="M194.794 146.117c-.328-.503-.897-.853-1.553-.853s-1.225.35-1.553.853a1.728 1.728 0 0 0-.284.984c0 .088 0 .197.043.285.109.875.853 1.553 1.794 1.553.897 0 1.662-.656 1.794-1.509.043-.11.043-.219.043-.328a1.901 1.901 0 0 0-.284-.985z"/><path fill="#4f4f4f" d="M195.079 147.1c0 .11 0 .219-.043.328 0-.285-.11-.547-.241-.766-.328-.503-.897-.853-1.553-.853s-1.225.35-1.553.853a1.244 1.244 0 0 0-.241.722c-.043-.088-.043-.197-.043-.285 0-.35.088-.699.284-.984.328-.503.897-.853 1.553-.853s1.225.35 1.553.853c.174.286.284.636.284.985z"/><path fill="#e5e5e5" d="M175.366 161.233c-5.972 0-12.017-5.112-12.017-14.882 0-1.762.629-2.456 1.004-2.714a1.33 1.33 0 0 1 1.244-.156.286.286 0 0 1-.205.534.753.753 0 0 0-.715.094c-.481.33-.756 1.147-.756 2.242 0 9.395 5.758 14.311 11.445 14.311 3.912 0 7.732-2.238 10.484-6.139 3.3-4.68 5.044-11.55 5.044-19.87 0-1.451.334-2.428.991-2.904.411-.298.921-.369 1.438-.2a.286.286 0 0 1-.178.543c-.196-.063-.574-.133-.926.12-.344.25-.754.875-.754 2.442 0 8.438-1.781 15.422-5.149 20.199-2.86 4.054-6.85 6.38-10.95 6.38z"/><path fill="#fcd200" d="M174.483 159.931c-5.972 0-12.017-5.112-12.017-14.882 0-.937.174-1.68.52-2.207.318-.485.763-.752 1.253-.752.747 0 1.52.686 1.52 1.835a.286.286 0 1 1-.572 0c0-.791-.482-1.263-.949-1.263-.597 0-1.201.738-1.201 2.388 0 9.395 5.758 14.311 11.445 14.311 3.912 0 7.732-2.238 10.484-6.139 3.3-4.68 5.044-11.55 5.044-19.87 0-1.115.199-1.982.59-2.574.346-.523.837-.811 1.381-.811.837 0 1.544.676 1.544 1.475a.286.286 0 1 1-.572 0c0-.482-.455-.904-.973-.904-.245 0-.602.096-.905.555-.325.49-.495 1.27-.495 2.258 0 8.438-1.781 15.422-5.149 20.199-2.858 4.055-6.848 6.381-10.948 6.381z"/><path fill="#d6566e" d="M172.236 121.319h-44.472c-4.315 0-7.846-3.531-7.846-7.846v-7.798c0-4.315 3.531-7.846 7.846-7.846h44.472c4.315 0 7.846 3.531 7.846 7.846v7.798c0 4.316-3.531 7.846-7.846 7.846z"/><path fill="#ed6979" d="M172.236 115.511h-44.472c-4.315 0-7.846-3.531-7.846-7.846v-7.798c0-4.315 3.531-7.846 7.846-7.846h44.472c4.315 0 7.846 3.531 7.846 7.846v7.798c0 4.315-3.531 7.846-7.846 7.846z"/><path fill="#fff" stroke="#fff" stroke-miterlimit="10" d="M132.079 99.037c0-.58.492-1.071 1.106-1.071.562 0 1.036.492 1.036 1.071v8.799h4.777c1.721 0 1.756 2.301 0 2.301h-5.813c-.615 0-1.106-.439-1.106-1.071zm10.154 0c0-1.44 2.318-1.493 2.318 0v10.028c0 1.458-2.318 1.493-2.318 0zm8.887 10.309l-4.636-9.712c-.685-1.388 1.388-2.529 2.16-1.071l1.563 3.53 2.02 4.637 1.984-4.637 1.563-3.53c.702-1.335 2.739-.492 2.143.966l-4.479 9.817c-.404 1.107-1.65 1.37-2.318 0zm9.628.791a1.073 1.073 0 0 1-1.089-1.089v-9.976c0-.632.475-1.089 1.089-1.089h6.305c1.616 0 1.581 2.283 0 2.283h-5.058v2.634h4.426c1.563 0 1.563 2.301 0 2.301h-4.426v2.634h5.356c1.599 0 1.722 2.301 0 2.301h-6.603z"/><path fill="#d6566e" d="M150 85.83c-.55 0-1-.45-1-1v-6.298c0-.55.45-1 1-1s1 .45 1 1v6.298c0 .55-.45 1-1 1zm-30.374 2.134a1.003 1.003 0 0 1-1.414 0l-4.454-4.454a1.003 1.003 0 0 1 0-1.414 1.003 1.003 0 0 1 1.414 0l4.454 4.454a1.003 1.003 0 0 1 0 1.414zm-5.711 16.802c0 .55-.45 1-1 1h-6.298c-.55 0-1-.45-1-1s.45-1 1-1h6.298c.55 0 1 .45 1 1zm80.468 0c0 .55-.45 1-1 1h-6.298c-.55 0-1-.45-1-1s.45-1 1-1h6.298c.55 0 1 .45 1 1zm-14.009-16.802a1.003 1.003 0 0 1 0-1.414l4.454-4.454a1.003 1.003 0 0 1 1.414 0 1.003 1.003 0 0 1 0 1.414l-4.454 4.454a1.003 1.003 0 0 1-1.414 0z"/></svg>