<?xml version="1.0" encoding="utf-8"?>
<!-- Generator: Adobe Illustrator 24.3.0, SVG Export Plug-In . SVG Version: 6.00 Build 0)  -->
<svg version="1.0" id="Layer_1" xmlns="http://www.w3.org/2000/svg" xmlns:xlink="http://www.w3.org/1999/xlink" x="0px" y="0px"
	 viewBox="0 0 300 300" enable-background="new 0 0 300 300" xml:space="preserve">
<g>
	
		<ellipse transform="matrix(0.7071 -0.7071 0.7071 0.7071 -62.1335 150.003)" fill="#FFFFFF" cx="150.003" cy="150.003" rx="150.003" ry="150.003"/>
	<circle fill="#FBBC4B" cx="150.003" cy="150.003" r="140.815"/>
	<g>
		<path fill="#5E0902" d="M204.428,203.921H95.578c-1.1,0-1.991-0.891-1.991-1.991v-99.223h112.832v99.223
			C206.419,203.03,205.528,203.921,204.428,203.921z"/>
		<path fill="#841803" d="M204.428,195.655H95.697c-1.166,0-2.11-0.945-2.11-2.11v-90.837h112.832v90.957
			C206.419,194.764,205.528,195.655,204.428,195.655z"/>
		<rect x="141.799" y="167.545" fill="#5E0902" width="16.407" height="36.376"/>
		<g>
			<g>
				<path fill="#E2E2E2" d="M147.441,212.169h-32.22c-0.736,0-1.332-0.596-1.332-1.332V121.6h34.884v89.237
					C148.773,211.573,148.177,212.169,147.441,212.169z"/>
				<path fill="#FFFFFF" d="M147.441,203.921h-32.22c-0.736,0-1.332-0.596-1.332-1.332V121.6h34.884v80.989
					C148.773,203.325,148.177,203.921,147.441,203.921z"/>
			</g>
			<g>
				<path fill="#E2E2E2" d="M184.785,212.169h-32.22c-0.736,0-1.332-0.596-1.332-1.332V121.6h34.884v89.237
					C186.117,211.573,185.52,212.169,184.785,212.169z"/>
				<path fill="#FFFFFF" d="M184.785,203.921h-32.22c-0.736,0-1.332-0.596-1.332-1.332V121.6h34.884v80.989
					C186.117,203.325,185.52,203.921,184.785,203.921z"/>
			</g>
		</g>
		<g>
			<path fill="#4C4C4C" d="M160.134,175.793h-20.262c-0.14,0-0.253-0.113-0.253-0.253v-43.097h20.767v43.097
				C160.387,175.68,160.273,175.793,160.134,175.793z"/>
			<path fill="#565656" d="M160.134,167.545h-20.262c-0.14,0-0.253-0.113-0.253-0.253V121.6h20.767v45.692
				C160.387,167.432,160.273,167.545,160.134,167.545z"/>
		</g>
		<path fill="#841803" d="M93.587,124.419V82.136c0-2.113,1.713-3.826,3.826-3.826h105.18c2.113,0,3.826,1.713,3.826,3.826v42.284
			H93.587z"/>
	</g>
</g>
<g>
	<path fill="#3D3D3D" d="M102.591,94.188h94.817c0.906,0,1.64,0.734,1.64,1.64v27.376c0,0.906-0.734,1.64-1.64,1.64h-94.817
		c-0.906,0-1.64-0.734-1.64-1.64V95.828C100.952,94.922,101.686,94.188,102.591,94.188z"/>
	<path fill="#3D3D3D" d="M102.591,94.188h94.817c0.906,0,1.64,0.734,1.64,1.64v27.376c0,0.906-0.734,1.64-1.64,1.64h-94.817
		c-0.906,0-1.64-0.734-1.64-1.64V95.828C100.952,94.922,101.686,94.188,102.591,94.188z"/>
	<path fill="#232323" d="M102.591,94.188h94.817c0.906,0,1.64,0.734,1.64,1.64v27.376c0,0.906-0.734,1.64-1.64,1.64h-94.817
		c-0.906,0-1.64-0.734-1.64-1.64V95.828C100.952,94.922,101.686,94.188,102.591,94.188z"/>
</g>
<g>
	<g>
		<g>
			<path fill="#FFFFFF" d="M110.859,108.333c-0.41-0.629-1.121-1.066-1.941-1.066c-0.82,0-1.531,0.437-1.941,1.066
				c-0.246,0.356-0.355,0.793-0.355,1.23c0,0.109,0,0.246,0.055,0.356c0.136,1.093,1.066,1.941,2.241,1.941
				c1.121,0,2.078-0.82,2.242-1.886c0.055-0.137,0.055-0.274,0.055-0.41C111.215,109.126,111.078,108.689,110.859,108.333z"/>
			<path fill="#686868" d="M110.371,108.642c-0.307-0.47-0.839-0.798-1.452-0.798c-0.614,0-1.145,0.327-1.452,0.798
				c-0.184,0.266-0.266,0.593-0.266,0.92c0,0.082,0,0.184,0.041,0.266c0.102,0.818,0.798,1.452,1.677,1.452
				c0.839,0,1.555-0.614,1.678-1.411c0.041-0.102,0.041-0.205,0.041-0.307C110.637,109.236,110.534,108.909,110.371,108.642z"/>
			<g>
				<path fill="#4F4F4F" d="M110.637,109.563c0,0.102,0,0.205-0.041,0.307c0-0.266-0.102-0.511-0.225-0.716
					c-0.307-0.47-0.839-0.798-1.452-0.798c-0.614,0-1.145,0.327-1.452,0.798c-0.143,0.205-0.225,0.43-0.225,0.675
					c-0.041-0.082-0.041-0.184-0.041-0.266c0-0.327,0.082-0.654,0.266-0.92c0.307-0.47,0.839-0.798,1.452-0.798
					c0.614,0,1.146,0.327,1.452,0.798C110.534,108.909,110.637,109.236,110.637,109.563z"/>
			</g>
		</g>
		<g>
			<circle fill="#FFFFFF" cx="121.941" cy="109.567" r="5.443"/>
			<path fill="#4F4F4F" d="M126.281,108.456v1.111c0,2.396-1.944,4.34-4.34,4.34s-4.34-1.944-4.34-4.34v-1.111
				c0-0.851,0.243-1.644,0.671-2.315h1.013c0.735-0.573,1.655-0.914,2.656-0.914s1.921,0.341,2.656,0.914h1.013
				C126.038,106.813,126.281,107.606,126.281,108.456z"/>
			<path fill="#686868" d="M126.281,108.456c0,2.396-1.944,4.34-4.34,4.34s-4.34-1.944-4.34-4.34c0-0.851,0.243-1.644,0.671-2.315
				c0.764-1.215,2.124-2.025,3.669-2.025c1.545,0,2.905,0.81,3.669,2.025C126.038,106.813,126.281,107.606,126.281,108.456z"/>
		</g>
		<g>
			<circle fill="#FFFFFF" cx="135.833" cy="109.567" r="5.443"/>
			<path fill="#4F4F4F" d="M140.174,108.456v1.111c0,2.396-1.944,4.34-4.34,4.34c-2.396,0-4.34-1.944-4.34-4.34v-1.111
				c0-0.851,0.243-1.644,0.671-2.315h1.013c0.735-0.573,1.655-0.914,2.656-0.914c1.001,0,1.921,0.341,2.656,0.914h1.013
				C139.931,106.813,140.174,107.606,140.174,108.456z"/>
			<path fill="#686868" d="M140.174,108.456c0,2.396-1.944,4.34-4.34,4.34c-2.396,0-4.34-1.944-4.34-4.34
				c0-0.851,0.243-1.644,0.671-2.315c0.764-1.215,2.124-2.025,3.669-2.025c1.545,0,2.905,0.81,3.669,2.025
				C139.931,106.813,140.174,107.606,140.174,108.456z"/>
		</g>
	</g>
	<g>
		<g>
			<circle fill="#FFFFFF" cx="176.849" cy="103.379" r="3.582"/>
			<circle fill="#FFFFFF" cx="176.849" cy="103.379" r="3.582"/>
			<path fill="#4F4F4F" d="M179.706,101.004v2.375c0,1.577-1.28,2.856-2.856,2.856c-1.577,0-2.856-1.28-2.856-2.856v-2.375
				c0-0.56,1.108-1.668,1.108-1.668c0.484-0.377,1.089-0.602,1.748-0.602c0.659,0,1.264,0.225,1.748,0.602
				C178.598,99.336,179.706,100.444,179.706,101.004z"/>
			<path fill="#686868" d="M179.706,101.076c0,1.577-1.28,2.856-2.856,2.856c-1.577,0-2.856-1.28-2.856-2.856
				c0-0.56,0.16-1.082,0.442-1.523c0.503-0.8,1.398-1.333,2.415-1.333c1.017,0,1.912,0.533,2.415,1.333
				C179.546,99.994,179.706,100.516,179.706,101.076z"/>
			<rect x="176.767" y="98.987" fill="#686868" width="0.165" height="0.667"/>
			
				<rect x="174.738" y="99.531" transform="matrix(0.866 -0.5 0.5 0.866 -26.5108 100.7896)" fill="#686868" width="0.165" height="0.667"/>
			<g>
				
					<rect x="172.613" y="100.401" transform="matrix(0.5002 -0.8659 0.8659 0.5002 -0.9939 200.1042)" fill="#686868" width="0.451" height="1.025"/>
				<rect x="171.706" y="103.003" fill="#686868" width="1.025" height="0.451"/>
				
					<rect x="172.326" y="105.319" transform="matrix(0.8661 -0.4998 0.4998 0.8661 -29.6151 100.5138)" fill="#686868" width="1.025" height="0.451"/>
				
					<rect x="174.022" y="107.014" transform="matrix(0.4998 -0.8661 0.8661 0.4998 -5.5835 204.8112)" fill="#686868" width="1.024" height="0.451"/>
				<rect x="176.624" y="107.348" fill="#686868" width="0.451" height="1.024"/>
				
					<rect x="178.94" y="106.728" transform="matrix(0.866 -0.5 0.5 0.866 -29.6162 103.9441)" fill="#686868" width="0.451" height="1.024"/>
				
					<rect x="180.635" y="105.032" transform="matrix(0.5 -0.866 0.866 0.5 -0.971 209.4069)" fill="#686868" width="0.451" height="1.024"/>
				<rect x="180.969" y="103.003" fill="#686868" width="1.025" height="0.451"/>
				
					<rect x="180.348" y="100.688" transform="matrix(0.8658 -0.5004 0.5004 0.8658 -26.2244 104.0503)" fill="#686868" width="1.024" height="0.451"/>
			</g>
			
				<rect x="178.796" y="99.531" transform="matrix(0.866 0.5 -0.5 0.866 73.8974 -76.0599)" fill="#686868" width="0.165" height="0.667"/>
		</g>
		<g>
			<path fill="#FFFFFF" d="M165.767,101.36c-0.41-0.629-1.121-1.066-1.941-1.066c-0.82,0-1.531,0.437-1.941,1.066
				c-0.246,0.356-0.355,0.793-0.355,1.23c0,0.109,0,0.246,0.055,0.356c0.136,1.093,1.066,1.941,2.241,1.941
				c1.121,0,2.078-0.82,2.242-1.886c0.055-0.137,0.055-0.274,0.055-0.41C166.123,102.153,165.986,101.715,165.767,101.36z"/>
			<path fill="#686868" d="M165.279,101.669c-0.307-0.47-0.839-0.798-1.452-0.798c-0.614,0-1.145,0.327-1.452,0.798
				c-0.184,0.266-0.266,0.593-0.266,0.92c0,0.082,0,0.184,0.041,0.266c0.102,0.818,0.798,1.452,1.677,1.452
				c0.839,0,1.555-0.614,1.678-1.411c0.041-0.102,0.041-0.205,0.041-0.307C165.545,102.263,165.443,101.936,165.279,101.669z"/>
			<g>
				<path fill="#4F4F4F" d="M165.545,102.59c0,0.102,0,0.205-0.041,0.307c0-0.266-0.102-0.511-0.225-0.716
					c-0.307-0.47-0.839-0.798-1.452-0.798c-0.614,0-1.145,0.327-1.452,0.798c-0.143,0.205-0.225,0.43-0.225,0.675
					c-0.041-0.082-0.041-0.184-0.041-0.266c0-0.327,0.082-0.654,0.266-0.92c0.307-0.47,0.839-0.798,1.452-0.798
					c0.614,0,1.146,0.327,1.452,0.798C165.443,101.936,165.545,102.263,165.545,102.59z"/>
			</g>
		</g>
		<g>
			<circle fill="#FFFFFF" cx="189.796" cy="103.379" r="3.582"/>
			<path fill="#4F4F4F" d="M192.652,101.004v2.375c0,1.577-1.28,2.856-2.856,2.856s-2.856-1.28-2.856-2.856v-2.375
				c0-0.56,1.108-1.668,1.108-1.668c0.484-0.377,1.089-0.602,1.748-0.602s1.264,0.225,1.748,0.602
				C191.544,99.336,192.652,100.444,192.652,101.004z"/>
			<path fill="#686868" d="M192.652,101.076c0,1.577-1.28,2.856-2.856,2.856s-2.856-1.28-2.856-2.856c0-0.56,0.16-1.082,0.442-1.523
				c0.503-0.8,1.398-1.333,2.415-1.333s1.912,0.533,2.415,1.333C192.492,99.994,192.652,100.516,192.652,101.076z"/>
		</g>
		<g>
			<circle fill="#FFFFFF" cx="176.849" cy="114.723" r="3.582"/>
			<circle fill="#FFFFFF" cx="176.849" cy="114.723" r="3.582"/>
			<path fill="#4F4F4F" d="M179.706,112.348v2.375c0,1.577-1.28,2.856-2.856,2.856c-1.577,0-2.856-1.28-2.856-2.856v-2.375
				c0-0.56,1.108-1.668,1.108-1.668c0.484-0.377,1.089-0.602,1.748-0.602c0.659,0,1.264,0.225,1.748,0.602
				C178.598,110.68,179.706,111.788,179.706,112.348z"/>
			<path fill="#686868" d="M179.706,112.42c0,1.577-1.28,2.856-2.856,2.856c-1.577,0-2.856-1.28-2.856-2.856
				c0-0.56,0.16-1.082,0.442-1.523c0.503-0.8,1.398-1.333,2.415-1.333c1.017,0,1.912,0.533,2.415,1.333
				C179.546,111.338,179.706,111.86,179.706,112.42z"/>
			<rect x="176.767" y="110.331" fill="#686868" width="0.165" height="0.667"/>
			
				<rect x="174.738" y="110.875" transform="matrix(0.866 -0.5 0.5 0.866 -32.1827 102.3093)" fill="#686868" width="0.165" height="0.667"/>
			<g>
				
					<rect x="172.613" y="111.745" transform="matrix(0.5002 -0.8659 0.8659 0.5002 -10.8169 205.7742)" fill="#686868" width="0.451" height="1.025"/>
				<rect x="171.706" y="114.347" fill="#686868" width="1.025" height="0.451"/>
				
					<rect x="172.326" y="116.663" transform="matrix(0.8661 -0.4998 0.4998 0.8661 -35.2848 102.0323)" fill="#686868" width="1.025" height="0.451"/>
				
					<rect x="174.022" y="118.358" transform="matrix(0.4998 -0.8661 0.8661 0.4998 -15.4089 210.4853)" fill="#686868" width="1.024" height="0.451"/>
				<rect x="176.624" y="118.692" fill="#686868" width="0.451" height="1.024"/>
				
					<rect x="178.94" y="118.072" transform="matrix(0.866 -0.5 0.5 0.866 -35.2879 105.4637)" fill="#686868" width="0.451" height="1.024"/>
				
					<rect x="180.635" y="116.376" transform="matrix(0.5 -0.866 0.866 0.5 -10.7952 215.0791)" fill="#686868" width="0.451" height="1.024"/>
				<rect x="180.969" y="114.347" fill="#686868" width="1.025" height="0.451"/>
				
					<rect x="180.348" y="112.031" transform="matrix(0.8658 -0.5004 0.5004 0.8658 -31.9011 105.5728)" fill="#686868" width="1.024" height="0.451"/>
			</g>
			
				<rect x="178.796" y="110.875" transform="matrix(0.866 0.5 -0.5 0.866 79.5694 -74.5401)" fill="#686868" width="0.165" height="0.667"/>
		</g>
		<g>
			<path fill="#FFFFFF" d="M165.767,112.704c-0.41-0.629-1.121-1.066-1.941-1.066c-0.82,0-1.531,0.437-1.941,1.066
				c-0.246,0.356-0.355,0.793-0.355,1.23c0,0.109,0,0.246,0.055,0.356c0.136,1.093,1.066,1.941,2.241,1.941
				c1.121,0,2.078-0.82,2.242-1.886c0.055-0.137,0.055-0.274,0.055-0.41C166.123,113.497,165.986,113.059,165.767,112.704z"/>
			<path fill="#686868" d="M165.279,113.013c-0.307-0.47-0.839-0.798-1.452-0.798c-0.614,0-1.145,0.327-1.452,0.798
				c-0.184,0.266-0.266,0.593-0.266,0.92c0,0.082,0,0.184,0.041,0.266c0.102,0.818,0.798,1.452,1.677,1.452
				c0.839,0,1.555-0.614,1.678-1.411c0.041-0.102,0.041-0.205,0.041-0.307C165.545,113.607,165.443,113.279,165.279,113.013z"/>
			<g>
				<path fill="#4F4F4F" d="M165.545,113.934c0,0.102,0,0.205-0.041,0.307c0-0.266-0.102-0.511-0.225-0.716
					c-0.307-0.47-0.839-0.798-1.452-0.798c-0.614,0-1.145,0.327-1.452,0.798c-0.143,0.205-0.225,0.43-0.225,0.675
					c-0.041-0.082-0.041-0.184-0.041-0.266c0-0.327,0.082-0.654,0.266-0.92c0.307-0.47,0.839-0.798,1.452-0.798
					c0.614,0,1.146,0.327,1.452,0.798C165.443,113.279,165.545,113.607,165.545,113.934z"/>
			</g>
		</g>
		<g>
			<circle fill="#FFFFFF" cx="189.796" cy="114.723" r="3.582"/>
			<path fill="#4F4F4F" d="M192.652,112.348v2.375c0,1.577-1.28,2.856-2.856,2.856s-2.856-1.28-2.856-2.856v-2.375
				c0-0.56,1.108-1.668,1.108-1.668c0.484-0.377,1.089-0.602,1.748-0.602s1.264,0.225,1.748,0.602
				C191.544,110.68,192.652,111.788,192.652,112.348z"/>
			<path fill="#686868" d="M192.652,112.42c0,1.577-1.28,2.856-2.856,2.856s-2.856-1.28-2.856-2.856c0-0.56,0.16-1.082,0.442-1.523
				c0.503-0.8,1.398-1.333,2.415-1.333s1.912,0.533,2.415,1.333C192.492,111.338,192.652,111.86,192.652,112.42z"/>
		</g>
	</g>
</g>
</svg>
