<svg version="1" xmlns="http://www.w3.org/2000/svg" viewBox="0 0 300 300"><path fill="#FFF" d="M150 300C67.29 300 0 232.71 0 150S67.29 0 150 0s150 67.29 150 150-67.29 150-150 150z"/><circle fill="#EB595B" cx="150" cy="150" r="140.812"/><path fill="#E09D3C" d="M199.35 206.912h-98.7a7.065 7.065 0 0 1-7.065-7.065V88.132a3.292 3.292 0 0 1 3.292-3.292h106.247a3.292 3.292 0 0 1 3.292 3.292v111.714a7.067 7.067 0 0 1-7.066 7.066"/><path fill="#FBBC4B" d="M199.35 198.645h-98.7a7.065 7.065 0 0 1-7.065-7.065V88.132a3.292 3.292 0 0 1 3.292-3.292h106.247a3.292 3.292 0 0 1 3.292 3.292V191.58a7.066 7.066 0 0 1-7.066 7.065"/><path fill="#3D3D3D" d="M141.797 170.536h16.407v36.376h-16.407z"/><path fill="#E2E2E2" d="M142.57 215.16h-22.482a6.2 6.2 0 0 1-6.2-6.2v-84.37h34.883v84.367a6.202 6.202 0 0 1-6.2 6.2"/><path fill="#FFF" d="M142.57 206.912h-22.482a6.2 6.2 0 0 1-6.2-6.2v-76.12h34.883v76.12a6.202 6.202 0 0 1-6.2 6.2"/><path fill="#E2E2E2" d="M179.913 215.16H157.43a6.2 6.2 0 0 1-6.2-6.2v-84.37h34.883v84.367a6.2 6.2 0 0 1-6.2 6.2"/><path fill="#FFF" d="M179.913 206.912H157.43a6.2 6.2 0 0 1-6.2-6.2v-76.12h34.883v76.12a6.2 6.2 0 0 1-6.2 6.2"/><path fill="#4C4C4C" d="M155.6 178.784h-11.2a4.784 4.784 0 0 1-4.784-4.784v-38.565h20.767V174a4.784 4.784 0 0 1-4.784 4.784z"/><path fill="#565656" d="M155.6 170.536h-11.2a4.784 4.784 0 0 1-4.784-4.784v-41.16h20.767v41.16a4.784 4.784 0 0 1-4.784 4.784"/><path fill="#E9AF46" d="M203.123 91.15H96.877a3.292 3.292 0 0 0-3.292 3.292v36.46h20.302v-6.31h72.227v6.31h20.302v-36.46a3.293 3.293 0 0 0-3.293-3.292"/><path fill="#EDEDED" d="M139.617 124.592h-25.73v6.31h25.73v-6.31m46.496 0h-25.73v6.31h25.73v-6.31"/><path fill="#505050" d="M160.383 124.592h-20.766v6.31h20.766v-6.31"/><path fill="#FFCD7D" d="M93.585 124.592v-36.46a3.292 3.292 0 0 1 3.292-3.292h106.247a3.292 3.292 0 0 1 3.292 3.292v36.46H93.586z"/><circle fill="#FFDAA9" cx="116.004" cy="104.489" r="11.967"/><path fill="#4F4F4F" d="M125.547 102.046v2.443c0 5.265-4.275 9.54-9.542 9.54-5.267 0-9.542-4.276-9.542-9.54v-2.446a9.41 9.41 0 0 1 1.476-5.09h2.224a9.458 9.458 0 0 1 5.84-2.01c2.2 0 4.224.752 5.84 2.01h2.227a9.43 9.43 0 0 1 1.475 5.09z"/><path fill="#686868" d="M125.547 102.046c0 5.267-4.275 9.542-9.542 9.542-5.267 0-9.542-4.275-9.542-9.542a9.41 9.41 0 0 1 1.476-5.09 9.523 9.523 0 0 1 8.064-4.452 9.523 9.523 0 0 1 8.067 4.453 9.43 9.43 0 0 1 1.475 5.09z"/><path fill="#FFDAA9" d="M159.852 116.49a2.472 2.472 0 0 1-2.47-2.468V94.937a2.472 2.472 0 0 1 2.47-2.47 2.472 2.472 0 0 1 2.47 2.47v19.085a2.47 2.47 0 0 1-2.47 2.47z"/><path fill="#F4BE71" d="M159.852 114.846a.822.822 0 0 1-.823-.823V94.937a.822.822 0 1 1 1.643 0v19.085a.823.823 0 0 1-.823.824z"/><path fill="#4F4F4F" d="M162.7 99.728v.73a2.85 2.85 0 0 1-5.696 0v-.73c0-.558.16-1.078.44-1.52h.664a2.83 2.83 0 0 1 3.487 0h.664c.28.442.44.962.44 1.52z"/><path fill="#686868" d="M162.7 99.728a2.85 2.85 0 0 1-5.696 0c0-.558.16-1.078.44-1.52a2.843 2.843 0 0 1 4.814 0c.282.442.442.962.442 1.52z"/><path fill="#FFDAA9" d="M173.777 116.49a2.472 2.472 0 0 1-2.47-2.468V94.937c0-1.36 1.108-2.47 2.47-2.47s2.47 1.108 2.47 2.47v19.085a2.472 2.472 0 0 1-2.47 2.47z"/><path fill="#F4BE71" d="M173.777 114.846a.822.822 0 0 1-.823-.823V94.937a.822.822 0 1 1 1.646 0v19.085a.823.823 0 0 1-.823.824z"/><path fill="#4F4F4F" d="M176.624 109.86v.73a2.85 2.85 0 0 1-5.696 0v-.73c0-.558.16-1.078.44-1.52h.664a2.823 2.823 0 0 1 1.743-.6c.657 0 1.26.225 1.743.6h.664c.283.442.442.962.442 1.52z"/><path fill="#686868" d="M176.624 109.86a2.85 2.85 0 0 1-5.696 0c0-.558.16-1.078.44-1.52a2.84 2.84 0 0 1 2.407-1.328 2.84 2.84 0 0 1 2.407 1.33c.283.44.442.96.442 1.518z"/><path fill="#FFDAA9" d="M187.7 116.49a2.472 2.472 0 0 1-2.468-2.468V94.937a2.472 2.472 0 0 1 2.47-2.47 2.472 2.472 0 0 1 2.468 2.47v19.085a2.472 2.472 0 0 1-2.47 2.47z"/><path fill="#F4BE71" d="M187.7 114.846a.822.822 0 0 1-.822-.823V94.937a.822.822 0 1 1 1.646 0v19.085a.823.823 0 0 1-.823.824z"/><path fill="#4F4F4F" d="M190.55 102.94v.73a2.85 2.85 0 0 1-5.697 0v-.73c0-.558.16-1.078.44-1.52h.664a2.83 2.83 0 0 1 3.486 0h.664c.282.442.442.962.442 1.52z"/><path fill="#686868" d="M190.55 102.94a2.85 2.85 0 0 1-5.697 0c0-.558.16-1.078.44-1.52a2.843 2.843 0 0 1 4.814 0c.282.442.442.962.442 1.52z"/><path fill="#FFDAA9" d="M149.13 116.49h-4.638a1.313 1.313 0 0 1-1.313-1.312V93.78a1.31 1.31 0 0 1 1.31-1.312h4.637c.724 0 1.312.588 1.312 1.313v21.4a1.31 1.31 0 0 1-1.314 1.31z"/><path fill="#CD4058" d="M148.014 99.68h-2.406a1.313 1.313 0 0 1-1.313-1.312v-2.406c0-.725.588-1.313 1.313-1.313h2.406a1.31 1.31 0 0 1 1.313 1.31v2.406a1.314 1.314 0 0 1-1.313 1.313z"/><path fill="#EA4F5C" d="M148.014 99.052h-2.406a1.313 1.313 0 0 1-1.313-1.313v-2.41c0-.725.588-1.313 1.313-1.313h2.406c.725 0 1.313.587 1.313 1.312v2.405a1.313 1.313 0 0 1-1.313 1.312z"/><path fill="#44AAB2" d="M148.014 107.31h-2.406a1.313 1.313 0 0 1-1.313-1.313v-2.406c0-.722.588-1.31 1.313-1.31h2.406c.725 0 1.313.588 1.313 1.313V106a1.314 1.314 0 0 1-1.313 1.312z"/><path fill="#5EC2D7" d="M148.014 106.68h-2.406a1.313 1.313 0 0 1-1.313-1.312v-2.406c0-.725.588-1.313 1.313-1.313h2.406a1.31 1.31 0 0 1 1.313 1.31v2.406a1.313 1.313 0 0 1-1.313 1.313z"/><path fill="#76A849" d="M148.014 114.94h-2.406a1.313 1.313 0 0 1-1.313-1.314v-2.406c0-.725.588-1.313 1.313-1.313h2.406c.725 0 1.313.588 1.313 1.313v2.406a1.313 1.313 0 0 1-1.313 1.313z"/><path fill="#86BF5A" d="M148.014 114.31h-2.406a1.313 1.313 0 0 1-1.313-1.313v-2.406c0-.722.588-1.31 1.313-1.31h2.406c.725 0 1.313.588 1.313 1.313V113a1.313 1.313 0 0 1-1.313 1.312z"/></svg>
