<?xml version="1.0" encoding="UTF-8"?><svg id="Camada_1" xmlns="http://www.w3.org/2000/svg" viewBox="0 0 538.6 538.7"><defs><style>.cls-1{fill:#fff;}.cls-2,.cls-3{fill:#ffdaa9;}.cls-4{fill:#3d3d3d;}.cls-5{fill:#4c4c4c;}.cls-6{fill:#e2e2e2;}.cls-7{fill:#83c0d4;}.cls-8{fill:#8e8e8e;}.cls-9{fill:#383839;}.cls-10{fill:#4f4f4f;}.cls-11{fill:#999;}.cls-12{fill:#383838;}.cls-13{fill:#f44a4a;}.cls-3{stroke:#ffdaa9;stroke-miterlimit:10;stroke-width:2px;}.cls-14{fill:#686868;}.cls-15{fill:#ededed;}</style></defs><path class="cls-1" d="M269.3,538.7C120.8,538.7,0,417.8,0,269.3S120.8,0,269.3,0s269.3,120.8,269.3,269.3-120.7,269.4-269.3,269.4Z"/><ellipse class="cls-7" cx="270" cy="265.3" rx="252.8" ry="252.9"/><path class="cls-1" d="M405.8,95.5V421.7c0,9.5-7.2,17.2-16.2,17.2H149.2c-9,0-16.2-7.7-16.2-17.2V95.5c0-3.4,.9-6.6,2.6-9.2,3-4.9,8.1-7.9,13.7-7.9h240.3c5.6,0,10.7,3,13.7,7.9,1.6,2.7,2.5,5.9,2.5,9.2"/><path class="cls-15" d="M156.9,367.7h227.1c2.7,.1,4.9-2.1,5-5,.1-2.8-2-5.2-4.7-5.3H156.9c-2.7-.1-4.9,2.1-5,5-.1,2.8,2,5.2,4.7,5.3h.3m0-85.8h227.1c2.7,.1,5-2,5.1-4.9,.1-2.8-1.9-5.3-4.6-5.4H156.9c-2.7-.1-4.9,2.1-5,5-.1,2.8,2,5.2,4.7,5.3h.3m0-85.8h227.1c2.7,.1,5-2.1,5.1-4.9,.1-2.8-2-5.2-4.7-5.4H156.9c-2.7-.1-4.9,2.1-5,5s2,5.2,4.7,5.3c.1,0,.2,0,.3,0m0-85.8h227.1c2.7,.1,4.9-2.1,5-5,.1-2.8-2-5.2-4.7-5.3H156.9c-2.7-.1-5,2.1-5.1,4.9s2,5.2,4.7,5.4h.4m0,27.4h227.1c.9,0,1.6-.8,1.6-1.7s-.7-1.7-1.6-1.7H156.9c-.9,0-1.6,.8-1.6,1.7,0,1,.7,1.7,1.6,1.7m0,24.1h227.1c.9,0,1.6-.8,1.6-1.7s-.7-1.7-1.6-1.7H156.9c-.9,0-1.6,.8-1.6,1.7s.7,1.7,1.6,1.7m0,61.8h227.1c.9-.1,1.6-.9,1.5-1.8,0-.9-.7-1.6-1.5-1.6H156.9c-.9,.1-1.6,.9-1.5,1.8,0,.8,.7,1.5,1.5,1.6m0,24h227.1c.9,0,1.6-.8,1.6-1.7s-.7-1.7-1.6-1.7H156.9c-.9,0-1.6,.8-1.6,1.7s.7,1.7,1.6,1.7m0,61.8h227.1c.9,0,1.6-.8,1.6-1.7s-.7-1.7-1.6-1.7H156.9c-.9,0-1.6,.8-1.6,1.7,0,.9,.7,1.7,1.6,1.7m0,24h227.1c.9,0,1.6-.8,1.6-1.7s-.7-1.7-1.6-1.7H156.9c-.9,.1-1.6,.9-1.5,1.8,0,.9,.7,1.6,1.5,1.6"/><g><g><path class="cls-11" d="M165.8,169.1c0,2.4-1.8,4.3-4.1,4.3s-4.1-1.9-4.1-4.3c0-.3,0-.5,.1-.8-1.5,2-1.3,4.1-.1,5.4,2.3,2.9,7.8,2.2,9.9-.6,1.4-1.8,1.6-4.6,1.7-6.9,.1-2.4,0-4.8-.1-7.2-7.8,.3-14.5-4.5-16.2-12.4-3-13.6,6.8-23.7,14.4-30.7,.1-2.4,.2-4.7,.4-6.8,1.1-10.2,3.3-15.6,5.4-17.9,4-4.1,10.1-1.4,11.4,4.3,1.1,4.7,.1,11.6-4.5,16.7-1.9,2-6,4.1-8,6-.1,3.9,.1,8.2,.3,12.5,4.7,.2,8.6,3.6,10.1,8.3,2.2,6.8,.1,12.4-3.8,16-1.4,1.3-3,2.2-4.7,2.9,.1,2.8,.3,5.7,.1,8.4-.1,3.6-.6,7.1-2.8,10-2.9,3.6-7.8,5-12,3.8-5-1.3-8.8-6-7.3-11.5,1.3-4.7,5.5-5.9,8.1-5.6,3.3,.5,5.8,3,5.8,6.1h0Z"/><path class="cls-11" d="M172.4,111.4c.9-.8,1.7-1.6,2.4-2.4,3.4-3.6,3.9-8.5,3.1-11.9-2-8.2-5.3,11.9-5.5,14.3h0Z"/><path class="cls-11" d="M174.1,136.3c-.5-.2-1-.3-1.5-.4,.2,3.4,.4,6.6,.6,9.8,.1,2.4,.3,4.7,.4,6.9,.6-.3,1.3-.8,1.8-1.3,2.5-2.3,3.9-6.1,2.4-10.6-.5-2-1.9-3.6-3.7-4.4h0Z"/><path class="cls-11" d="M162.8,145.9c-3.6-5.8-.1-12.2,4.7-14.2-.1-3-.3-6-.3-8.9-5.5,5.7-10.3,12.9-8.3,21.9,1.2,5.3,4.5,9.4,10,9.3-.1-2.5-.3-5.2-.5-7.9-.2-2.9-.3-5.9-.6-8.9-3.7,1.8-5.1,5.8-5,8.7h0Z"/></g><g><path d="M167.7,169.1c0,2.4-1.8,4.3-4.1,4.3s-4.1-1.9-4.1-4.3c0-.3,0-.5,.1-.8-1.5,2-1.3,4.1-.1,5.4,2.3,2.9,7.8,2.2,9.9-.6,1.4-1.8,1.6-4.6,1.7-6.9,.1-2.4,0-4.8-.1-7.2-7.8,.3-14.5-4.5-16.2-12.4-3-13.6,6.8-23.7,14.4-30.7,.1-2.4,.2-4.7,.4-6.8,1.1-10.2,3.3-15.6,5.4-17.9,4-4.1,10.1-1.4,11.4,4.3,1.1,4.7,.1,11.6-4.5,16.7-1.9,2-6,4.1-8,6-.1,3.9,.1,8.2,.3,12.5,4.7,.2,8.6,3.6,10.1,8.3,2.2,6.8,.1,12.4-3.8,16-1.4,1.3-3,2.2-4.7,2.9,.1,2.8,.3,5.7,.1,8.4-.1,3.6-.6,7.1-2.8,10-2.9,3.6-7.8,5-12,3.8-5-1.3-8.8-6-7.3-11.5,1.3-4.7,5.5-5.9,8.1-5.6,3.3,.5,5.8,3,5.8,6.1h0Z"/><path class="cls-1" d="M174.3,111.4c.9-.8,1.7-1.6,2.4-2.4,3.4-3.6,3.9-8.5,3.1-11.9-1.9-8.2-5.3,11.9-5.5,14.3h0Z"/><path class="cls-1" d="M176,136.3c-.5-.2-1-.3-1.5-.4,.2,3.4,.4,6.6,.6,9.8,.1,2.4,.3,4.7,.4,6.9,.6-.3,1.3-.8,1.8-1.3,2.5-2.3,3.9-6.1,2.4-10.6-.5-2-1.9-3.6-3.7-4.4h0Z"/><path class="cls-1" d="M164.8,145.9c-3.6-5.8-.1-12.2,4.7-14.2-.1-3-.3-6-.3-8.9-5.5,5.7-10.3,12.9-8.3,21.9,1.2,5.3,4.5,9.4,10,9.3-.1-2.5-.3-5.2-.5-7.9-.2-2.9-.3-5.9-.6-8.9-3.8,1.8-5.3,5.8-5,8.7h0Z"/></g></g><path class="cls-12" d="M420.3,424.2H123.8c-1.2,0-2.6,0-4-.2-1.4-.1-2.8-.4-4-.7-1.2-.2-2.4-.6-3.6-1.1s-2.2-1.1-3.2-1.6c-1-.6-1.8-1.3-2.6-1.9-.8-.7-1.4-1.4-2-2.3-.6-.7-1-1.6-1.2-2.4-.2-.7-.4-1.6-.4-2.4V211c0-.4,0-.7,.2-1.1,0-.4,.2-.7,.6-1.1,.2-.4,.4-.7,.8-1.1s.8-.6,1.2-.8c.6-.4,1-.6,1.6-.8,.4-.1,1-.4,1.6-.5s1.2-.2,2-.4c.6-.1,1.2-.1,1.8-.1H431.8c.6,0,1.2,0,1.8,.1l1.8,.4c.6,.1,1.2,.4,1.8,.5,.6,.2,1,.5,1.4,.8,.6,.2,1,.5,1.2,.8,.4,.4,.8,.7,1,1.1s.4,.7,.6,1.1c0,.4,.2,.7,.2,1.1v200.6c0,.8-.2,1.7-.4,2.4-.4,.8-.8,1.7-1.2,2.4-.6,.9-1.2,.6-2,1.3-.8,.6-1.6,2.3-2.6,2.9-1,.5-2,1.1-3.2,1.6s-2.4,.8-3.6,1.1c-1.4,.4-2.6,.6-4,.7-1.5,.3-2.9,.3-4.3,.2h0Z"/><path class="cls-13" d="M420.3,409.5H123.8c-1.2,0-2.6-.1-4-.2s-2.8-.4-4-.7-2.4-.7-3.6-1.2-2.2-1-3.2-1.6-1.8-1.2-2.6-1.9c-.8-.7-1.4-1.5-2-2.2-.6-.8-1-1.6-1.2-2.4s-.4-1.7-.4-2.5V211c0-.4,0-.7,.2-1.1,0-.4,.2-.7,.6-1.1,.2-.4,.4-.7,.8-1.1s.8-.6,1.2-.8c.6-.4,1-.6,1.6-.8,.4-.1,1-.4,1.6-.5s1.2-.2,2-.4c.6-.1,1.2-.1,1.8-.1H431.8c.6,0,1.2,0,1.8,.1l1.8,.4c.6,.1,1.2,.4,1.8,.5,.6,.2,1,.5,1.4,.8,.6,.2,1,.5,1.2,.8,.4,.4,.8,.7,1,1.1s.4,.7,.6,1.1c0,.4,.2,.7,.2,1.1v185.7c0,.9-.2,1.7-.4,2.5-.4,.8-.8,1.6-1.2,2.4-.6,.7-1.2,1.4-2,2.2-.8,.7-1.6,1.3-2.6,1.9s-2,1.1-3.2,1.6-2.4,.8-3.6,1.2c-1.4,.4-2.6,.6-4,.7-1.5,.1-2.9,.3-4.3,.3h0Z"/><path class="cls-12" d="M431.7,216.4H112.5c-.6,0-1.2,.1-1.8,.1-.8,.1-1.4,.2-2,.4-.6,.1-1.2,.4-1.6,.6-.6,.2-1,.5-1.6,.7-.4,.2-.8,.6-1.2,.8-.4,.4-.6,.7-.8,1.1-.4,.4-.6,.7-.6,1.1-.2,.4-.2,.7-.2,1.2v65.5h60.9v-11.4h216.9v11.4h61.1v-65.5c0-.5-.2-.8-.2-1.2-.2-.4-.4-.7-.6-1.1s-.6-.7-1-1.1c-.2-.2-.6-.6-1.2-.8-.4-.2-.8-.5-1.4-.7s-1.2-.5-1.8-.6l-1.8-.4c-.7,0-1.3-.1-1.9-.1h0Z"/><path class="cls-15" d="M268.8,276.5h-46.2v11.4h46.2v-11.4Zm-83.5,0h-46.3v11.4h46.3v-11.4Z"/><path class="cls-8" d="M102.7,276.5v-65.5c0-.4,0-.7,.2-1.1,0-.4,.2-.7,.6-1.1,.2-.4,.4-.7,.8-1.1s.8-.6,1.2-.8c.6-.4,1-.6,1.6-.8,.4-.1,1-.4,1.6-.5s1.2-.2,2-.4c.6-.1,1.2-.1,1.8-.1H431.7c.6,0,1.2,0,1.8,.1l1.8,.4c.6,.1,1.2,.4,1.8,.5,.6,.2,1,.5,1.4,.8,.6,.2,1,.5,1.2,.8,.4,.4,.8,.7,1,1.1s.4,.7,.6,1.1c0,.4,.2,.7,.2,1.1v65.5H102.7Z"/><ellipse class="cls-13" cx="142.9" cy="238.9" rx="20.7" ry="21.4"/><path class="cls-10" d="M160,236v4.4c0,9.4-7.6,17.1-17.1,17.1s-17.2-7.7-17.2-17.1v-4.4c0-3.2,1-6.4,2.6-9.1h4.1c1.4-1.2,3.1-2,4.9-2.6,1.8-.6,3.6-1,5.5-1,4,0,7.6,1.3,10.5,3.6h4c1.9,2.7,2.8,5.8,2.7,9.1h0Z"/><path class="cls-14" d="M160,236c0,9.5-7.6,17.2-17.1,17.2s-17.2-7.7-17.2-17.2c0-3.2,1-6.4,2.6-9.1,.8-1.2,1.7-2.3,2.8-3.2,1.1-1.1,2.3-1.9,3.5-2.6,1.3-.6,2.6-1.2,4-1.6,1.4-.4,7.2-.4,8.5,0,1.4,.4,2.8,1,4.1,1.6,1.2,.7,2.4,1.6,3.5,2.6,1,1,1.9,2.1,2.6,3.2,1.9,2.7,2.8,5.8,2.7,9.1h0Z"/><g><path class="cls-2" d="M221.6,261.9c-.2,0-.6,0-.8-.1-.4,0-.6-.1-.8-.2l-.7-.4c-.2-.1-.5-.4-.7-.6-.2-.1-.4-.4-.6-.6-.1-.2-.2-.5-.4-.8-.1-.2-.2-.5-.2-.8-.1-.2-.1-.5-.1-.8v-34.2c0-.2,0-.6,.1-.8,0-.4,.1-.6,.2-.8s.2-.5,.4-.7,.4-.5,.6-.7,.5-.4,.7-.6l.7-.4c.2-.1,.5-.2,.8-.2,.2-.1,.6-.1,.8-.1s.6,0,.8,.1c.4,0,.6,.1,.9,.2s.6,.2,.8,.4l.6,.6c.2,.2,.4,.5,.6,.7l.4,.7c.1,.2,.2,.5,.2,.8,.1,.2,.1,.6,.1,.8v34.2c0,.4,0,.6-.1,.8,0,.4-.1,.6-.2,.8-.1,.4-.2,.6-.4,.8-.2,.2-.4,.5-.6,.6-.2,.2-.4,.5-.6,.6-.2,.1-.6,.2-.8,.4s-.5,.2-.9,.2c-.2,.1-.5,.1-.8,.1Z"/><path class="cls-12" d="M221.6,259.1c-.2,0-.4-.1-.6-.1-.1-.1-.4-.2-.5-.4s-.2-.4-.2-.5c-.1-.2-.1-.4-.1-.6v-34.2c0-.2,0-.4,.1-.6,0-.1,.1-.4,.2-.5s.4-.2,.5-.4c.2,0,.4-.1,.6-.1s.4,.1,.6,.1c.1,.1,.4,.2,.5,.4,.1,.1,.2,.4,.2,.5,.1,.2,.1,.4,.1,.6v34.2c0,.2,0,.4-.1,.6,0,.1-.1,.4-.2,.5-.1,.1-.4,.2-.5,.4-.2-.1-.3,.1-.6,.1Z"/><path class="cls-10" d="M226.8,231.9v1.3c-.1,.2-.1,.6-.1,1-.1,.2-.2,.6-.4,.8-.1,.4-.4,.6-.5,.8-.2,.4-.4,.6-.6,.8s-.6,.4-.8,.6c-.2,.1-.6,.2-.8,.4-.4,.1-.6,.2-1,.4-.4,0-.6,.1-1,.1s-.6-.1-1-.1c-.4-.1-.6-.2-1-.4-.2-.1-.6-.2-.8-.4s-.6-.4-.8-.6c-.1-.2-.4-.5-.6-.8-.1-.2-.4-.5-.5-.8-.1-.2-.2-.6-.2-.8-.1-.4-.1-.7-.2-1v-1.3c0-1.1,.4-1.9,.8-2.8h1.2c.5-.4,1-.6,1.4-.8,.6-.1,1.1-.2,1.7-.2s1.1,.1,1.7,.2c.5,.2,1,.5,1.4,.8h1.2c.5,.9,.9,1.7,.9,2.8h0Z"/><path class="cls-14" d="M226.8,231.9c-.1,.2-.1,.6-.1,1-.1,.2-.2,.6-.4,.8-.1,.4-.4,.6-.5,1-.2,.2-.4,.5-.6,.7s-.6,.4-.8,.6c-.2,.1-.6,.4-.8,.5-.4,.1-.6,.1-1,.2-.4,0-.6,.1-1,.1s-.6-.1-1-.1c-.4-.1-.6-.1-1-.2-.2-.1-.6-.4-.8-.5-.2-.2-.6-.4-.8-.6-.1-.2-.4-.5-.6-.7-.1-.4-.4-.6-.5-1-.1-.2-.2-.6-.2-.8-.1-.4-.1-.7-.2-1,0-1.1,.4-1.9,.8-2.8,.1-.2,.2-.4,.4-.5,.1-.2,.4-.4,.5-.5,.1-.2,.4-.4,.5-.5s.4-.2,.5-.4c.2-.1,.5-.1,.6-.2,.2-.1,.5-.1,.6-.2,.2,0,.5,0,.7-.1h1.2c.2,.1,.5,.1,.7,.1,.1,.1,.4,.1,.6,.2,.1,.1,.4,.1,.6,.2,.1,.1,.4,.2,.5,.4,.2,.1,.4,.2,.5,.5,.2,.1,.4,.2,.5,.5,.1,.1,.2,.2,.4,.5,.3,.9,.7,1.7,.7,2.8h0Z"/></g><g><path class="cls-2" d="M244.98,261.9c-.2,0-.6,0-.8-.1-.2,0-.6-.1-.8-.2l-.7-.4c-.2-.1-.5-.4-.7-.6-.2-.1-.4-.4-.6-.6-.1-.2-.2-.5-.4-.8-.1-.2-.2-.5-.2-.8-.1-.2-.1-.5-.1-.8v-34.2c0-2.4,2-4.4,4.4-4.4s4.5,2,4.5,4.4v34.2c0,.4,0,.6-.1,.8,0,.4-.1,.6-.2,.8-.1,.4-.2,.6-.4,.8-.2,.2-.4,.5-.6,.6-.2,.2-.4,.5-.6,.6-.2,.1-.6,.2-.8,.4s-.5,.2-.8,.2c-.5,.1-.7,.1-1.1,.1h0Z"/><path class="cls-12" d="M244.98,259.1c-.2,0-.4-.1-.6-.1-.1-.1-.2-.2-.5-.4-.1-.1-.2-.4-.2-.5-.1-.2-.1-.4-.1-.6v-34.2c0-.2,0-.4,.1-.6,0-.1,.1-.2,.2-.5,.2-.1,.4-.2,.5-.2,.2-.1,.4-.1,.6-.1s.4,0,.6,.1c.1,0,.4,.1,.5,.2,.1,.2,.2,.4,.2,.5,.1,.2,.1,.4,.1,.6v34.2c0,.2,0,.4-.1,.6,0,.1-.1,.4-.2,.5s-.4,.2-.5,.4c-.2-.1-.3,.1-.6,.1Z"/><path class="cls-10" d="M250.18,250v1.3c0,.4-.1,.6-.1,1-.1,.4-.2,.6-.4,1-.1,.2-.4,.6-.5,.8-.2,.2-.4,.5-.6,.7s-.5,.5-.8,.6c-.2,.2-.5,.4-.8,.5-.4,.1-.6,.2-1,.2-.2,.1-.6,.1-1,.1s-.6,0-1-.1c-.4,0-.6-.1-1-.2-.2-.1-.6-.2-.8-.5-.2-.1-.5-.4-.7-.6l-.7-.7c-.1-.2-.4-.6-.5-.8-.1-.4-.2-.6-.2-1-.1-.4-.1-.6-.1-1v-1.3c0-1,.2-1.9,.7-2.8h1.2c1-.7,1.9-1.1,3.1-1.1s2.3,.5,3.1,1.1h1.2c.5,.9,.9,1.9,.9,2.8h0Z"/><path class="cls-14" d="M250.18,250c0,.4-.1,.6-.1,1-.1,.4-.2,.6-.4,1-.1,.2-.4,.6-.5,.8-.2,.2-.4,.5-.6,.7s-.5,.5-.8,.6c-.2,.2-.5,.4-.8,.5s-.6,.2-1,.2c-.2,.1-.6,.1-1,.1s-.6,0-1-.1c-.4,0-.6-.1-1-.2-.2-.1-.6-.2-.8-.5-.2-.1-.5-.4-.7-.6l-.7-.7c-.1-.2-.4-.6-.5-.8-.1-.4-.2-.6-.2-1-.1-.4-.1-.6-.1-1,0-1,.2-1.9,.7-2.8,.5-.7,1.1-1.3,1.9-1.7,.7-.5,1.6-.7,2.4-.6,.9-.1,1.7,.1,2.5,.6,.7,.4,1.3,1,1.8,1.7,.5,.9,.9,1.9,.9,2.8h0Z"/></g><g><path class="cls-2" d="M268.42,261.9c-.2,0-.6,0-.9-.1-.2,0-.6-.1-.8-.2l-.7-.4c-.2-.1-.5-.4-.7-.6-.2-.1-.4-.4-.6-.6-.1-.2-.2-.5-.4-.8-.1-.2-.2-.5-.2-.8-.1-.2-.1-.5-.1-.8v-34.2c0-.2,0-.6,.1-.8,0-.4,.1-.6,.2-.8l.4-.7c.2-.2,.4-.5,.6-.7s.5-.4,.7-.6l.7-.4c.2-.1,.6-.2,.8-.2,.2-.1,.6-.1,.9-.1,.4,0,.6,0,.8,.1,.4,0,.6,.1,.8,.2s.6,.2,.8,.4c.2,.2,.5,.4,.6,.6,.2,.2,.4,.5,.6,.7l.4,.7c.1,.2,.2,.5,.2,.8,.1,.2,.1,.6,.1,.8v34.2c0,.4,0,.6-.1,.8,0,.4-.1,.6-.2,.8-.1,.4-.2,.6-.4,.8s-.4,.5-.6,.6c-.2,.2-.4,.5-.6,.6s-.6,.2-.8,.4-.5,.2-.8,.2c-.2,.1-.4,.1-.8,.1Z"/><path class="cls-12" d="M268.42,259.1c-.2,0-.4-.1-.6-.1-.1-.1-.2-.2-.5-.4-.1-.1-.2-.4-.2-.5-.1-.2-.1-.4-.1-.6v-34.2c0-.2,0-.4,.1-.6,0-.1,.1-.2,.2-.5,.2-.1,.4-.2,.5-.2,.2-.1,.5-.1,.6-.1,.2,0,.4,0,.6,.1,.1,0,.4,.1,.5,.2,.1,.2,.2,.4,.2,.5,.1,.2,.1,.4,.1,.6v34.9c-.1,.1-.2,.4-.4,.5s-.4,.2-.5,.4c-.1-.2-.2,0-.5,0h0Z"/><path class="cls-10" d="M273.62,237.7v1.3c0,.2-.1,.6-.1,1-.1,.2-.2,.6-.4,.8-.1,.4-.2,.6-.5,1-.2,.2-.4,.5-.6,.7s-.5,.4-.8,.6c-.2,.1-.5,.4-.8,.5-.2,.1-.6,.1-1,.2-.2,.1-.6,.1-1,.1s-.6,0-1-.1-.6-.1-1-.2c-.2-.1-.6-.4-.8-.5-.2-.2-.6-.4-.7-.6l-.7-.7c-.1-.4-.4-.6-.5-1-.1-.2-.2-.6-.2-.8-.1-.4-.1-.7-.1-1v-1.3c0-1.1,.2-1.9,.7-2.8h1.2c.5-.4,1-.6,1.4-.8,.6-.1,1.1-.2,1.7-.2s1.1,.1,1.7,.2c.5,.2,1,.5,1.4,.8h1.2c.5,.8,.9,1.7,.9,2.8h0Z"/><path class="cls-14" d="M273.62,237.7c0,.2-.1,.6-.1,1-.1,.2-.2,.6-.4,1-.1,.2-.2,.5-.5,.8-.2,.2-.4,.5-.6,.7s-.5,.4-.8,.6c-.2,.1-.5,.4-.8,.5-.2,.1-.6,.2-1,.2-.2,.1-.6,.1-1,.1s-.6,0-1-.1c-.4,0-.6-.1-1-.2-.2-.1-.6-.4-.8-.5-.2-.2-.6-.4-.7-.6l-.7-.7c-.1-.4-.4-.6-.5-.8-.1-.4-.2-.7-.2-1-.1-.4-.1-.7-.1-1,0-1.1,.2-1.9,.7-2.8,.1-.2,.2-.4,.4-.5,.1-.2,.4-.4,.5-.5,.1-.2,.4-.4,.5-.5,.2-.1,.4-.2,.6-.4,.1-.1,.4-.1,.5-.2,.2-.1,.5-.1,.7-.2,.1,0,.4,0,.6-.1h1.2c.2,.1,.5,.1,.7,.1,.1,.1,.4,.1,.6,.2,.1,.1,.4,.1,.6,.2,.1,.1,.4,.2,.5,.4,.2,.1,.4,.2,.5,.5,.2,.1,.4,.2,.5,.5,.1,.1,.2,.2,.4,.5,.3,.8,.7,1.7,.7,2.8h0Z"/></g><path class="cls-2" d="M291.85,261.9c-.2,0-.6,0-.9-.1-.2,0-.6-.1-.8-.2l-.7-.4c-.2-.1-.5-.4-.7-.6-.2-.1-.4-.4-.6-.6-.1-.2-.2-.5-.4-.8-.1-.2-.2-.5-.2-.8-.1-.2-.1-.5-.1-.8v-34.2c0-.2,0-.6,.1-.8,0-.4,.1-.6,.2-.8l.4-.7c.2-.2,.4-.5,.6-.7s.5-.4,.7-.6l.7-.4c.2-.1,.6-.2,.8-.2,.2-.1,.6-.1,.9-.1,.4,0,.6,0,.8,.1,.4,0,.6,.1,.8,.2s.6,.2,.8,.4c.2,.2,.5,.4,.6,.6,.2,.2,.4,.5,.6,.7l.4,.7c.1,.2,.2,.5,.2,.8,.1,.2,.1,.6,.1,.8v34.2c0,.4,0,.6-.1,.8,0,.4-.1,.6-.2,.8-.1,.4-.2,.6-.4,.8s-.4,.5-.6,.6c-.2,.2-.4,.5-.6,.6s-.6,.2-.8,.4-.5,.2-.8,.2c-.2,.1-.4,.1-.8,.1Z"/><path class="cls-12" d="M291.85,259.1c-.2,0-.4-.1-.6-.1-.1-.1-.2-.2-.5-.4-.1-.1-.2-.4-.2-.5-.1-.2-.1-.4-.1-.6v-34.2c0-.2,0-.4,.1-.6,0-.1,.1-.2,.2-.5,.2-.1,.4-.2,.5-.2,.2-.1,.5-.1,.6-.1,.2,0,.4,0,.6,.1,.1,0,.4,.1,.5,.2,.1,.2,.2,.4,.2,.5,.1,.2,.1,.4,.1,.6v34.9c-.1,.1-.2,.4-.4,.5s-.4,.2-.5,.4c-.1-.2-.2,0-.5,0h0Z"/><path class="cls-10" d="M297.05,246.6v1.3c0,.2-.1,.6-.1,1-.1,.2-.2,.6-.4,.8-.1,.4-.2,.6-.5,1-.2,.2-.4,.5-.6,.7s-.5,.4-.8,.6c-.2,.1-.5,.4-.8,.5-.2,.1-.6,.1-1,.2-.2,.1-.6,.1-1,.1s-.6,0-1-.1-.6-.1-1-.2c-.2-.1-.6-.4-.8-.5-.2-.2-.6-.4-.7-.6l-.7-.7c-.1-.4-.4-.6-.5-1-.1-.2-.2-.6-.2-.8-.1-.4-.1-.7-.1-1v-1.3c0-1.1,.2-1.9,.7-2.8h1.2c.5-.4,1-.6,1.4-.8,.6-.1,1.1-.2,1.7-.2s1.1,.1,1.7,.2c.5,.2,1,.5,1.4,.8h1.2c.5,.8,.9,1.7,.9,2.8h0Z"/><path class="cls-14" d="M297.05,246.6c0,.2-.1,.6-.1,1-.1,.2-.2,.6-.4,1-.1,.2-.2,.5-.5,.8-.2,.2-.4,.5-.6,.7s-.5,.4-.8,.6c-.2,.1-.5,.4-.8,.5-.2,.1-.6,.2-1,.2-.2,.1-.6,.1-1,.1s-.6,0-1-.1c-.4,0-.6-.1-1-.2-.2-.1-.6-.4-.8-.5-.2-.2-.6-.4-.7-.6l-.7-.7c-.1-.4-.4-.6-.5-.8-.1-.4-.2-.7-.2-1-.1-.4-.1-.7-.1-1,0-1.1,.2-1.9,.7-2.8,.1-.2,.2-.4,.4-.5,.1-.2,.4-.4,.5-.5,.1-.2,.4-.4,.5-.5,.2-.1,.4-.2,.6-.4,.1-.1,.4-.1,.5-.2,.2-.1,.5-.1,.7-.2,.1,0,.4,0,.6-.1h1.2c.2,.1,.5,.1,.7,.1,.1,.1,.4,.1,.6,.2,.1,.1,.4,.1,.6,.2,.1,.1,.4,.2,.5,.4,.2,.1,.4,.2,.5,.5,.2,.1,.4,.2,.5,.5,.1,.1,.2,.2,.4,.5,.3,.8,.7,1.7,.7,2.8h0Z"/><path class="cls-10" d="M179.1,248.85h-6.3c-.4,0-.9-.2-1.2-.4-.5-.2-.9-.4-1.2-.7s-.5-.7-.7-1.1c-.2-.5-.2-.9-.2-1.4v-6.3c0-1.7,1.4-3.3,3.3-3.3h6.3c1.9,0,3.5,1.6,3.5,3.3v6.3c0,.5-.2,.9-.4,1.4-.2,.4-.4,.7-.7,1.1s-.7,.5-1.1,.7c-.4,.2-.7,.4-1.3,.4h0Z"/><path class="cls-14" d="M179.1,247.25h-6.3c-.4,0-.9-.2-1.2-.4-.5-.2-.9-.4-1.2-.7-.2-.4-.5-.7-.7-1.2-.2-.4-.2-.7-.2-1.2v-6.3c0-1.9,1.4-3.5,3.3-3.5h6.3c.5,0,.9,.2,1.4,.4,.4,.2,.7,.4,1.1,.7,.4,.4,.5,.7,.7,1.1,.2,.5,.4,.9,.4,1.4v6.3c0,.4-.2,.9-.4,1.2-.2,.5-.4,.9-.7,1.2-.4,.4-.7,.5-1.1,.7-.5,.2-.8,.4-1.4,.3h0Z"/><path class="cls-10" d="M201.98,248.85h-6.3c-.4,0-.9-.2-1.2-.4-.5-.2-.9-.4-1.2-.7s-.5-.7-.7-1.1c-.2-.5-.2-.9-.2-1.4v-6.3c0-1.7,1.4-3.3,3.3-3.3h6.3c1.9,0,3.5,1.6,3.5,3.3v6.3c0,.5-.2,.9-.4,1.4-.2,.4-.4,.7-.7,1.1s-.7,.5-1.1,.7c-.4,.2-.8,.4-1.3,.4h0Z"/><path class="cls-14" d="M201.98,247.25h-6.3c-.4,0-.9-.2-1.2-.4-.5-.2-.9-.4-1.2-.7-.2-.4-.5-.7-.7-1.2-.2-.4-.2-.7-.2-1.2v-6.3c0-1.9,1.4-3.5,3.3-3.5h6.3c.5,0,.9,.2,1.4,.4,.4,.2,.7,.4,1.1,.7,.4,.4,.5,.7,.7,1.1,.2,.5,.4,.9,.4,1.4v6.3c0,.4-.2,.9-.4,1.2-.2,.5-.4,.9-.7,1.2-.4,.4-.7,.5-1.1,.7-.5,.2-.9,.3-1.4,.3h0Z"/><path class="cls-10" d="M326.16,248.85h-6.3c-.4,0-.9-.2-1.2-.4-.5-.2-.9-.4-1.2-.7s-.5-.7-.7-1.1c-.2-.5-.2-.9-.2-1.4v-6.3c0-1.7,1.4-3.3,3.3-3.3h6.3c1.9,0,3.5,1.6,3.5,3.3v6.3c0,.5-.2,.9-.4,1.4-.2,.4-.4,.7-.7,1.1s-.7,.5-1.1,.7c-.4,.2-.8,.4-1.3,.4h0Z"/><path class="cls-14" d="M326.16,247.25h-6.3c-.4,0-.9-.2-1.2-.4-.5-.2-.9-.4-1.2-.7-.2-.4-.5-.7-.7-1.2-.2-.4-.2-.7-.2-1.2v-6.3c0-1.9,1.4-3.5,3.3-3.5h6.3c.5,0,.9,.2,1.4,.4,.4,.2,.7,.4,1.1,.7,.4,.4,.5,.7,.7,1.1,.2,.5,.4,.9,.4,1.4v6.3c0,.4-.2,.9-.4,1.2-.2,.5-.4,.9-.7,1.2-.4,.4-.7,.5-1.1,.7-.5,.2-.9,.3-1.4,.3h0Z"/><path class="cls-3" d="M142.9,232.5l.1-13.6"/><path class="cls-4" d="M281.19,286h16.75v117.55h-16.75v-117.55Zm39.23,0h16.75v117.55h-16.75v-117.55Z"/><path class="cls-4" d="M165.28,286h16.75v117.55h-16.75v-117.55Zm39.23,0h16.75v117.55h-16.75v-117.55Z"/><path class="cls-4" d="M196.84,286h16.75v117.55h-16.75v-117.55Zm39.23,0h16.75v117.55h-16.75v-117.55Z"/><path class="cls-6" d="M282.04,415.23h-22.93c-.4,0-.79-.08-1.25-.16s-.79-.32-1.25-.48c-.34-.32-.74-.56-1.08-.87-.34-.32-.62-.72-.97-1.03-.28-.48-.57-.87-.74-1.35-.23-.56-.4-1.03-.62-1.51-.11-.56-.28-1.11-.34-1.75-.06-.56-.11-1.11-.11-1.75v-120.33h35.54v120.41c0,.56,0,1.11-.06,1.75-.11,.56-.23,1.19-.4,1.59-.11,.56-.34,1.03-.57,1.51-.28,.56-.45,.95-.79,1.43-.28,.4-.62,.79-.97,1.03-.34,.32-.68,.56-1.08,.87-.34,.16-.74,.4-1.19,.48s-.79,.16-1.19,.16h0Z"/><path class="cls-1" d="M282.04,403.39h-22.93c-.4,0-.79,0-1.25-.08-.4-.16-.79-.32-1.25-.56-.34-.16-.74-.48-1.08-.79-.34-.4-.62-.64-.97-1.11-.28-.4-.57-.87-.74-1.35s-.4-.95-.62-1.51c-.11-.48-.28-1.03-.34-1.59s-.11-1.11-.11-1.75v-108.65h35.54v108.65c0,.56,0,1.11-.06,1.75-.11,.56-.23,1.11-.4,1.59-.11,.56-.34,1.03-.57,1.51-.28,.48-.45,.95-.79,1.35-.28,.48-.62,.79-.97,1.11-.34,.32-.68,.56-1.08,.79-.34,.32-.74,.4-1.19,.56-.34,.16-.79,.16-1.19,.08h0Z"/><path class="cls-6" d="M244.17,414.87h-22.93c-.4,0-.79-.08-1.25-.16s-.79-.32-1.25-.48c-.34-.32-.74-.56-1.08-.87-.34-.32-.62-.72-.97-1.03-.28-.48-.57-.87-.74-1.35-.23-.56-.4-1.03-.62-1.51-.11-.56-.28-1.11-.34-1.75-.06-.56-.11-1.11-.11-1.75v-120.33h35.54v120.41c0,.56,0,1.11-.06,1.75-.11,.56-.23,1.19-.4,1.59-.11,.56-.34,1.03-.57,1.51-.28,.56-.45,.95-.79,1.43-.28,.4-.62,.79-.97,1.03-.34,.32-.68,.56-1.08,.87-.34,.16-.74,.4-1.19,.48s-.79,.16-1.19,.16h0Z"/><path class="cls-1" d="M244.17,403.03h-22.93c-.4,0-.79,0-1.25-.08-.4-.16-.79-.32-1.25-.56-.34-.16-.74-.48-1.08-.79-.34-.4-.62-.64-.97-1.11-.28-.4-.57-.87-.74-1.35s-.4-.95-.62-1.51c-.11-.48-.28-1.03-.34-1.59s-.11-1.11-.11-1.75v-108.65h35.54v108.65c0,.56,0,1.11-.06,1.75-.11,.56-.23,1.11-.4,1.59-.11,.56-.34,1.03-.57,1.51-.28,.48-.45,.95-.79,1.35-.28,.48-.62,.79-.97,1.11-.34,.32-.68,.56-1.08,.79-.34,.32-.74,.4-1.19,.56-.34,.16-.79,.16-1.19,.08h0Z"/><path class="cls-6" d="M206.29,415.23h-22.93c-.4,0-.79-.08-1.25-.16s-.79-.32-1.25-.48c-.34-.32-.74-.56-1.08-.87-.34-.32-.62-.72-.97-1.03-.28-.48-.57-.87-.74-1.35-.23-.56-.4-1.03-.62-1.51-.11-.56-.28-1.11-.34-1.75-.06-.56-.11-1.11-.11-1.75v-120.33h35.54v120.41c0,.56,0,1.11-.06,1.75-.11,.56-.23,1.19-.4,1.59-.11,.56-.34,1.03-.57,1.51-.28,.56-.45,.95-.79,1.43-.28,.4-.62,.79-.97,1.03-.34,.32-.68,.56-1.08,.87-.34,.16-.74,.4-1.19,.48s-.79,.16-1.19,.16h0Z"/><path class="cls-1" d="M206.29,403.39h-22.93c-.4,0-.79,0-1.25-.08-.4-.16-.79-.32-1.25-.56-.34-.16-.74-.48-1.08-.79-.34-.4-.62-.64-.97-1.11-.28-.4-.57-.87-.74-1.35s-.4-.95-.62-1.51c-.11-.48-.28-1.03-.34-1.59s-.11-1.11-.11-1.75v-108.65h35.54v108.65c0,.56,0,1.11-.06,1.75-.11,.56-.23,1.11-.4,1.59-.11,.56-.34,1.03-.57,1.51-.28,.48-.45,.95-.79,1.35-.28,.48-.62,.79-.97,1.11-.34,.32-.68,.56-1.08,.79-.34,.32-.74,.4-1.19,.56-.34,.16-.79,.16-1.19,.08h0Z"/><path class="cls-6" d="M168.39,415.23h-22.93c-.4,0-.79-.08-1.25-.16s-.79-.32-1.25-.48c-.34-.32-.74-.56-1.08-.87-.34-.32-.62-.72-.97-1.03-.28-.48-.57-.87-.74-1.35-.23-.56-.4-1.03-.62-1.51-.11-.56-.28-1.11-.34-1.75-.06-.56-.11-1.11-.11-1.75v-120.33h35.54v120.41c0,.56,0,1.11-.06,1.75-.11,.56-.23,1.19-.4,1.59-.11,.56-.34,1.03-.57,1.51-.28,.56-.45,.95-.79,1.43-.28,.4-.62,.79-.97,1.03-.34,.32-.68,.56-1.08,.87-.34,.16-.74,.4-1.19,.48s-.79,.16-1.19,.16h0Z"/><path class="cls-1" d="M168.39,403.39h-22.93c-.4,0-.79,0-1.25-.08-.4-.16-.79-.32-1.25-.56-.34-.16-.74-.48-1.08-.79-.34-.4-.62-.64-.97-1.11-.28-.4-.57-.87-.74-1.35s-.4-.95-.62-1.51c-.11-.48-.28-1.03-.34-1.59s-.11-1.11-.11-1.75v-108.65h35.54v108.65c0,.56,0,1.11-.06,1.75-.11,.56-.23,1.11-.4,1.59-.11,.56-.34,1.03-.57,1.51-.28,.48-.45,.95-.79,1.35-.28,.48-.62,.79-.97,1.11-.34,.32-.68,.56-1.08,.79-.34,.32-.74,.4-1.19,.56-.34,.16-.79,.16-1.19,.08h0Z"/><path class="cls-6" d="M319.91,415.23h-22.93c-.4,0-.79-.08-1.25-.16s-.79-.32-1.25-.48c-.34-.32-.74-.56-1.08-.87-.34-.32-.62-.72-.97-1.03-.28-.48-.57-.87-.74-1.35-.28-.56-.4-1.03-.62-1.51-.11-.56-.28-1.11-.34-1.75-.06-.56-.11-1.11-.11-1.75v-120.33h35.54v120.41c0,.56,0,1.11-.06,1.75-.11,.56-.23,1.19-.4,1.59-.11,.56-.34,1.03-.57,1.51-.28,.56-.51,.95-.85,1.43-.28,.4-.62,.79-.97,1.03-.34,.32-.68,.56-1.08,.87-.34,.16-.74,.4-1.14,.48s-.79,.16-1.19,.16h0Z"/><path class="cls-1" d="M319.91,403.39h-22.93c-.4,0-.79,0-1.25-.08-.4-.16-.79-.32-1.25-.56-.34-.16-.74-.48-1.08-.79-.34-.4-.62-.64-.97-1.11-.28-.4-.57-.87-.74-1.35-.28-.48-.4-.95-.62-1.51-.11-.48-.28-1.03-.34-1.59s-.11-1.11-.11-1.75v-108.65h35.54v108.65c0,.56,0,1.11-.06,1.75-.11,.56-.23,1.11-.4,1.59-.11,.56-.34,1.03-.57,1.51-.28,.48-.51,.95-.85,1.35-.28,.48-.62,.79-.97,1.11s-.68,.56-1.08,.79c-.34,.32-.74,.4-1.14,.56-.4,.16-.79,.16-1.19,.08h0Z"/><path class="cls-5" d="M295.33,357.92h-11.47c-.34,0-.62,0-.97-.08-.28-.08-.62-.32-.91-.4-.34-.24-.62-.4-.91-.79-.23-.32-.51-.64-.68-.95-.28-.32-.45-.79-.62-1.19-.23-.4-.34-.87-.45-1.27s-.23-.95-.28-1.43c-.06-.56-.06-1.11-.06-1.51v-62.39h21.12v62.39c0,.4,0,.95-.06,1.51-.06,.4-.23,.95-.28,1.43-.11,.4-.28,.87-.45,1.27s-.4,.87-.62,1.19c-.23,.32-.45,.64-.74,.95-.28,.32-.57,.56-.79,.79-.28,.08-.62,.32-.97,.4-.28,.08-.62,.08-.97,.08h.11Z"/><path class="cls-5" d="M218.18,357.92h-11.47c-.34,0-.62,0-.97-.08-.28-.08-.62-.32-.91-.4-.34-.24-.62-.4-.91-.79-.23-.32-.51-.64-.68-.95-.28-.32-.45-.79-.62-1.19-.23-.4-.34-.87-.45-1.27s-.23-.95-.28-1.43c-.06-.56-.06-1.11-.06-1.51v-62.39h21.12v62.39c0,.4,0,.95-.06,1.51-.06,.4-.23,.95-.28,1.43-.11,.4-.28,.87-.45,1.27s-.4,.87-.62,1.19c-.23,.32-.45,.64-.74,.95-.28,.32-.57,.56-.79,.79-.28,.08-.62,.32-.97,.4-.28,.08-.62,.08-.97,.08h.11Z"/><path class="cls-5" d="M180.43,357.92h-11.47c-.34,0-.62,0-.97-.08-.28-.08-.62-.32-.91-.4-.34-.24-.62-.4-.91-.79-.23-.32-.51-.64-.68-.95-.28-.32-.45-.79-.62-1.19-.23-.4-.34-.87-.45-1.27s-.23-.95-.28-1.43c-.06-.56-.06-1.11-.06-1.51v-62.39h21.12v62.39c0,.4,0,.95-.06,1.51-.06,.4-.23,.95-.28,1.43-.11,.4-.28,.87-.45,1.27s-.4,.87-.62,1.19c-.23,.32-.45,.64-.74,.95-.28,.32-.57,.56-.79,.79-.28,.08-.62,.32-.97,.4-.28,.08-.62,.08-.97,.08h.11Z"/><path class="cls-4" d="M356.81,286h16.8v117.55h-16.75v-117.55h-.06Z"/><path class="cls-6" d="M357.83,415.23h-22.93c-.4,0-.79-.08-1.25-.16s-.79-.32-1.25-.48c-.34-.32-.74-.56-1.08-.87s-.62-.72-.97-1.03c-.28-.48-.57-.87-.74-1.35-.28-.56-.4-1.03-.62-1.51-.11-.56-.28-1.11-.34-1.75-.06-.56-.11-1.11-.11-1.75v-120.33h35.54v120.41c0,.56,0,1.11-.06,1.75-.11,.56-.23,1.19-.4,1.59-.11,.56-.34,1.03-.57,1.51-.28,.56-.51,.95-.85,1.43-.28,.4-.62,.79-.97,1.03-.34,.32-.68,.56-1.08,.87-.34,.16-.74,.4-1.14,.48s-.79,.16-1.19,.16h0Z"/><path class="cls-1" d="M328.54,286h35.54v108.65c0,.56,0,1.11-.06,1.75-.11,.56-.23,1.11-.4,1.59-.11,.56-.34,1.03-.57,1.51-.28,.48-.51,.95-.85,1.35-.28,.48-.62,.79-.97,1.11s-.68,.56-1.08,.79c-.34,.32-.74,.4-1.14,.56-.4,.08-.79,.08-1.25,.08h-22.93c-.4,0-.79,0-1.25-.08-.4-.16-.79-.32-1.25-.56-.34-.16-.74-.48-1.08-.79-.34-.4-.62-.64-.97-1.11-.28-.4-.57-.87-.74-1.35-.28-.48-.4-.95-.62-1.51-.11-.48-.28-1.03-.34-1.59s-.11-1.11-.11-1.75"/><path class="cls-5" d="M333.02,357.92h-11.47c-.34,0-.62,0-.97-.08-.28-.08-.62-.33-.91-.42-.34-.25-.62-.42-.91-.75-.23-.33-.51-.67-.68-1-.28-.33-.45-.75-.62-1.26-.23-.42-.34-.92-.45-1.34s-.23-1-.28-1.42c-.06-.59-.06-1.09-.06-1.59v-64.06h21.18v64.06c0,.42,0,1-.06,1.59-.06,.42-.23,1-.28,1.42-.11,.42-.28,.92-.45,1.34-.23,.42-.4,.92-.62,1.26s-.45,.67-.74,1-.57,.59-.85,.75c-.28,.08-.62,.33-.97,.42-.28,.08-.62,.08-.97,.08h.11Z"/><path class="cls-6" d="M395.7,414.91h-22.93c-.4,0-.79-.08-1.25-.16s-.79-.32-1.25-.48c-.34-.32-.74-.56-1.08-.87s-.62-.72-.97-1.03c-.28-.48-.57-.87-.74-1.35-.28-.56-.4-1.03-.62-1.51-.11-.56-.28-1.11-.34-1.75-.06-.56-.11-1.11-.11-1.75v-120.41h35.59v120.41c0,.56,0,1.11-.06,1.75-.11,.56-.23,1.19-.4,1.59-.11,.56-.34,1.03-.57,1.51-.28,.56-.51,.95-.85,1.43-.28,.4-.62,.79-.97,1.03-.34,.32-.68,.56-1.08,.87-.34,.16-.74,.4-1.14,.48s-.85,.24-1.25,.24h0Z"/><path class="cls-1" d="M366.46,286h35.54v108.65c0,.56,0,1.11-.06,1.75-.11,.56-.23,1.11-.4,1.59-.11,.56-.34,1.03-.57,1.51-.28,.48-.51,.95-.85,1.35-.28,.48-.62,.79-.97,1.11s-.68,.56-1.08,.79c-.34,.32-.74,.4-1.14,.56-.4,.08-.79,.08-1.25,.08h-22.93c-.4,0-.79,0-1.25-.08-.4-.16-.79-.32-1.25-.56-.34-.16-.74-.48-1.08-.79-.34-.4-.62-.64-.97-1.11-.28-.4-.57-.87-.74-1.35-.28-.48-.4-.95-.62-1.51-.11-.48-.28-1.03-.34-1.59s-.11-1.11-.11-1.75"/><path class="cls-5" d="M370.95,357.92h-11.47c-.34,0-.62,0-.97-.08-.28-.08-.62-.32-.91-.4-.34-.24-.62-.4-.91-.72-.23-.32-.51-.64-.68-.96-.28-.32-.45-.8-.62-1.2-.23-.4-.34-.88-.45-1.28-.11-.4-.23-.96-.28-1.44-.06-.56-.06-1.12-.06-1.52v-62.36h21.12v62.36c0,.4,0,.96-.06,1.52-.06,.4-.23,.96-.28,1.44-.11,.4-.28,.88-.45,1.28-.23,.4-.4,.88-.62,1.2s-.45,.64-.74,.96c-.28,.32-.57,.56-.85,.72-.28,.08-.62,.32-.97,.4-.28,.08-.62,.08-.97,.08h.17Z"/><path class="cls-9" d="M138.69,276.5H402v11.4H138.69v-11.4Z"/></svg>