<svg xmlns="http://www.w3.org/2000/svg" id="Camada_1" viewBox="0 0 538.67 538.69"><defs><style>.cls-1{fill:#fff}.cls-2{fill:#ffdaa9}.cls-5{fill:#3d3d3d}.cls-6{fill:#4c4c4c}.cls-7{fill:#565656}.cls-8{fill:#e2e2e2}.cls-11{fill:#4f4f4f}.cls-12{fill:#383838}.cls-13{fill:#f44a4a}.cls-14{fill:#686868}</style></defs><path d="M269.34 538.69C120.79 538.69 0 417.83 0 269.34S120.79 0 269.34 0s269.33 120.85 269.33 269.34-120.79 269.35-269.33 269.35z" class="cls-1"/><path fill="#5ec2d7" d="M522.21 269.34c0 4.09-.12 8.29-.36 12.38-.12 4.21-.48 8.29-.84 12.38-.49 4.09-.97 8.29-1.57 12.38-.6 4.08-1.32 8.17-2.16 12.14-.72 4.08-1.69 8.17-2.65 12.13-1.08 4.09-2.16 8.05-3.36 12.01-1.21 3.97-2.53 7.81-3.85 11.77-1.45 3.85-2.89 7.69-4.45 11.54-1.69 3.84-3.37 7.69-5.05 11.41-1.81 3.73-3.61 7.46-5.65 11.05-1.93 3.61-3.97 7.21-6.14 10.81-2.04 3.48-4.33 6.97-6.61 10.45-2.28 3.49-4.69 6.85-7.09 10.22-2.53 3.24-5.05 6.49-7.69 9.73-2.65 3.25-5.29 6.37-8.06 9.38-2.76 3.12-5.65 6.13-8.53 9.01-3.01 2.88-6.01 5.77-9.01 8.53-3.13 2.77-6.26 5.53-9.38 8.17-3.25 2.52-6.5 5.16-9.86 7.57-3.37 2.52-6.73 4.92-10.1 7.21-3.49 2.28-6.97 4.44-10.58 6.61-3.48 2.16-7.09 4.2-10.7 6.13-3.73 1.92-7.33 3.84-11.17 5.53-3.73 1.8-7.46 3.48-11.3 5.04-3.85 1.57-7.69 3.13-11.54 4.45-3.97 1.44-7.81 2.76-11.77 3.97-3.97 1.2-8.05 2.28-12.02 3.24-3.97 1.08-8.05 1.92-12.14 2.76-3.97.85-8.05 1.45-12.14 2.17-4.21.6-8.29 1.08-12.38 1.44-4.09.48-8.3.72-12.38.96-4.09.12-8.3.24-12.38.24s-8.3-.12-12.38-.24c-4.21-.24-8.3-.48-12.38-.96-4.21-.36-8.3-.84-12.38-1.44-4.09-.72-8.18-1.32-12.26-2.17-3.96-.84-8.05-1.68-12.02-2.76a196.5 196.5 0 01-12.02-3.24c-3.96-1.21-7.93-2.53-11.77-3.97-3.85-1.32-7.7-2.88-11.54-4.45-3.85-1.56-7.7-3.24-11.42-5.04-3.72-1.69-7.45-3.61-11.06-5.53-3.61-1.93-7.21-3.97-10.82-6.13-3.49-2.17-6.98-4.33-10.46-6.61a157.21 157.21 0 01-10.1-7.21c-3.37-2.41-6.61-5.05-9.85-7.57-3.25-2.65-6.38-5.41-9.38-8.17-3.13-2.76-6.13-5.65-9.01-8.53-2.89-2.88-5.77-5.89-8.54-9.01-2.77-3.01-5.53-6.13-8.17-9.38-2.52-3.24-5.17-6.49-7.57-9.73-2.53-3.37-4.81-6.73-7.22-10.22-2.28-3.48-4.45-6.97-6.61-10.45-2.05-3.61-4.09-7.21-6.13-10.81-1.93-3.6-3.73-7.33-5.54-11.05-1.8-3.72-3.48-7.57-5.05-11.41-1.56-3.85-3.12-7.69-4.45-11.54-1.44-3.97-2.76-7.81-3.96-11.77-1.21-3.96-2.29-7.93-3.25-12.01-.96-3.96-1.92-8.05-2.77-12.13-.72-3.97-1.44-8.05-2.04-12.14-.6-4.09-1.2-8.29-1.56-12.38-.36-4.09-.72-8.17-.97-12.38-.12-4.09-.24-8.29-.24-12.38s.12-8.29.24-12.38c.25-4.2.61-8.29.97-12.37.36-4.21.96-8.29 1.56-12.38.6-4.09 1.32-8.17 2.04-12.25.85-3.97 1.81-8.05 2.77-12.01.96-4.09 2.04-8.05 3.25-12.02 1.2-3.96 2.52-7.93 3.96-11.77 1.33-3.84 2.89-7.81 4.45-11.53 1.57-3.85 3.25-7.69 5.05-11.42 1.81-3.73 3.61-7.45 5.54-11.05 2.04-3.6 4.08-7.21 6.13-10.81 2.16-3.49 4.33-7.09 6.61-10.46 2.41-3.48 4.69-6.85 7.22-10.21 2.4-3.25 5.05-6.49 7.57-9.74 2.65-3.24 5.41-6.37 8.17-9.37 2.77-3.13 5.65-6.13 8.54-9.02 2.88-2.88 5.89-5.76 9.01-8.53 3-2.76 6.13-5.53 9.38-8.17 3.24-2.64 6.49-5.17 9.85-7.57 3.24-2.53 6.61-4.93 10.1-7.21 3.48-2.29 6.97-4.45 10.46-6.61 3.61-2.17 7.21-4.21 10.82-6.13 3.61-1.92 7.33-3.85 11.06-5.53 3.73-1.8 7.57-3.49 11.42-5.05 3.84-1.56 7.69-3.12 11.54-4.44 3.85-1.45 7.81-2.77 11.77-3.97 3.97-1.2 7.94-2.28 12.02-3.25 3.97-1.08 8.06-1.92 12.02-2.76 4.09-.84 8.17-1.56 12.26-2.16 4.09-.6 8.17-1.08 12.38-1.44 4.08-.49 8.17-.73 12.38-.97 4.09-.24 8.17-.24 12.38-.24s8.29 0 12.38.24c4.09.24 8.29.48 12.38.97 4.09.36 8.17.84 12.38 1.44 4.09.6 8.17 1.32 12.14 2.16 4.09.84 8.17 1.68 12.14 2.76 3.97.97 8.05 2.05 12.02 3.25 3.97 1.2 7.81 2.52 11.77 3.97 3.85 1.32 7.7 2.88 11.54 4.44 3.84 1.56 7.57 3.25 11.3 5.05 3.85 1.68 7.45 3.61 11.17 5.53 3.61 1.92 7.21 3.96 10.7 6.13 3.61 2.16 7.1 4.32 10.58 6.61 3.36 2.28 6.73 4.68 10.1 7.21 3.36 2.4 6.61 4.93 9.86 7.57 3.12 2.64 6.25 5.41 9.38 8.17 3 2.77 6.01 5.65 9.01 8.53 2.88 2.89 5.77 5.89 8.53 9.02 2.77 3 5.41 6.13 8.06 9.37 2.64 3.25 5.17 6.49 7.69 9.74 2.4 3.36 4.81 6.73 7.09 10.21 2.28 3.37 4.57 6.97 6.61 10.46 2.17 3.6 4.21 7.21 6.14 10.81 2.04 3.61 3.84 7.33 5.65 11.05 1.68 3.73 3.36 7.57 5.05 11.42 1.56 3.72 3 7.69 4.45 11.53 1.32 3.85 2.64 7.81 3.85 11.77 1.2 3.97 2.28 7.93 3.36 12.02.96 3.97 1.93 8.05 2.65 12.01.84 4.08 1.56 8.17 2.16 12.25.6 4.08 1.08 8.17 1.57 12.38.36 4.08.72 8.17.84 12.37.24 4.09.36 8.18.36 12.38z"/><path d="M426.62 371.46h-296.5c-1.2 0-2.61 0-4.01-.24-1.4-.12-2.82-.37-4.03-.73-1.2-.24-2.41-.6-3.61-1.08-1.2-.48-2.21-1.08-3.22-1.56-1-.6-1.81-1.32-2.61-1.92-.8-.72-1.4-1.44-2.01-2.29-.6-.72-1-1.56-1.2-2.4-.2-.72-.4-1.56-.4-2.4V158.22c0-.36 0-.73.2-1.09 0-.36.2-.72.6-1.08.2-.36.4-.72.8-1.08.4-.36.8-.6 1.2-.84.6-.36 1-.6 1.61-.84.4-.12 1-.36 1.61-.48.61-.12 1.22-.24 2.02-.36.6-.12 1.2-.12 1.81-.12h319.19c.6 0 1.2 0 1.82.12l1.81.36c.6.12 1.2.36 1.81.48.6.24 1 .48 1.4.84.6.24 1 .48 1.2.84.4.36.8.72 1 1.08s.4.72.61 1.08c0 .36.2.73.2 1.09v200.63c0 .84-.2 1.68-.41 2.4-.4.84-.8 1.68-1.2 2.4-.6.85-1.2.57-2.01 1.29-.8.6-1.61 2.32-2.61 2.92-1 .48-2.01 1.08-3.22 1.56-1.2.48-2.41.84-3.61 1.08-1.4.36-2.61.61-4.03.73-1.4.24-2.81.24-4.21.24z" class="cls-12"/><path d="M426.62 356.68h-296.5c-1.2 0-2.61-.12-4.01-.24s-2.82-.36-4.03-.72-2.41-.72-3.61-1.2c-1.2-.48-2.21-.96-3.22-1.56-1-.6-1.81-1.2-2.61-1.92-.8-.73-1.4-1.45-2.01-2.17-.6-.84-1-1.56-1.2-2.4-.2-.84-.4-1.68-.4-2.53V158.22c0-.36 0-.73.2-1.09 0-.36.2-.72.6-1.08.2-.36.4-.72.8-1.08.4-.36.8-.6 1.2-.84.6-.36 1-.6 1.61-.84.4-.12 1-.36 1.61-.48.61-.12 1.22-.24 2.02-.36.6-.12 1.2-.12 1.81-.12h319.19c.6 0 1.2 0 1.82.12l1.81.36c.6.12 1.2.36 1.81.48.6.24 1 .48 1.4.84.6.24 1 .48 1.2.84.4.36.8.72 1 1.08s.4.72.61 1.08c0 .36.2.73.2 1.09v185.72c0 .85-.2 1.69-.41 2.53-.4.84-.8 1.56-1.2 2.4-.6.72-1.2 1.44-2.01 2.17-.8.72-1.61 1.32-2.61 1.92-1 .6-2.01 1.08-3.22 1.56-1.2.48-2.41.84-3.61 1.2-1.4.36-2.61.6-4.03.72-1.4.12-2.81.24-4.21.24z" class="cls-13"/><path d="M195.59 306.19h29.52v65.4h-29.52zm69.09 0h29.52v65.4h-29.52z" class="cls-5"/><path d="M197 386.35h-40.38c-.73 0-1.45-.12-2.17-.24s-1.44-.36-2.16-.6c-.6-.36-1.33-.72-1.93-1.08-.6-.37-1.08-.85-1.68-1.33-.48-.6-.96-1.08-1.32-1.68-.36-.72-.73-1.32-1.09-1.92-.24-.72-.48-1.44-.6-2.17-.12-.72-.24-1.44-.24-2.16V223.69h62.62v151.49c0 .72 0 1.44-.12 2.16-.24.73-.36 1.45-.72 2.05-.24.72-.6 1.32-.96 1.92-.48.72-.84 1.2-1.45 1.8-.48.48-1.08.96-1.68 1.33-.6.36-1.2.72-1.92 1.08-.6.24-1.33.48-2.05.6s-1.44.24-2.16.24z" class="cls-8"/><path d="M197 371.46h-40.38c-.73 0-1.45 0-2.17-.12-.72-.24-1.44-.37-2.16-.73-.6-.24-1.33-.6-1.93-.96-.6-.48-1.08-.84-1.68-1.44-.48-.48-.96-1.08-1.32-1.68-.36-.6-.73-1.2-1.09-1.92-.24-.61-.48-1.33-.6-2.05-.12-.72-.24-1.44-.24-2.16V223.69h62.62v136.72c0 .72 0 1.44-.12 2.16-.24.72-.36 1.44-.72 2.05-.24.72-.6 1.32-.96 1.92-.48.6-.84 1.2-1.45 1.68-.48.6-1.08.96-1.68 1.44-.6.36-1.2.72-1.92.96-.6.36-1.33.49-2.05.73-.72.12-1.44.12-2.16.12z" class="cls-1"/><path d="M264.06 386.35h-40.39c-.72 0-1.44-.12-2.16-.24s-1.44-.36-2.17-.6c-.6-.36-1.32-.72-1.92-1.08-.6-.37-1.08-.85-1.68-1.33-.48-.6-.96-1.08-1.33-1.68-.48-.72-.72-1.32-1.08-1.92-.24-.72-.48-1.44-.6-2.17-.12-.72-.24-1.44-.24-2.16V223.69h62.62v151.49c0 .72 0 1.44-.12 2.16-.24.73-.36 1.45-.72 2.05-.24.72-.6 1.32-.96 1.92-.48.72-.85 1.2-1.45 1.8-.48.48-1.08.96-1.68 1.33-.6.36-1.2.72-1.92 1.08-.61.24-1.33.48-2.05.6-.72.12-1.44.24-2.16.24z" class="cls-8"/><path d="M264.06 371.46h-40.39c-.72 0-1.44 0-2.16-.12-.72-.24-1.44-.37-2.17-.73-.6-.24-1.32-.6-1.92-.96-.6-.48-1.08-.84-1.68-1.44-.48-.48-.96-1.08-1.33-1.68-.48-.6-.72-1.2-1.08-1.92-.24-.61-.48-1.33-.6-2.05-.12-.72-.24-1.44-.24-2.16V223.69h62.62v136.72c0 .72 0 1.44-.12 2.16-.24.72-.36 1.44-.72 2.05-.24.72-.6 1.32-.96 1.92-.48.6-.85 1.2-1.45 1.68-.48.6-1.08.96-1.68 1.44-.6.36-1.2.72-1.92.96-.61.36-1.33.49-2.05.73-.72.12-1.44.12-2.16.12z" class="cls-1"/><path d="M220.44 321h-20.19c-.61 0-1.09 0-1.69-.12-.48-.12-1.08-.36-1.56-.48-.6-.24-1.08-.48-1.56-.84-.37-.36-.85-.72-1.21-1.08-.48-.36-.84-.85-1.08-1.33-.36-.48-.6-.96-.84-1.44s-.36-1.08-.48-1.56c-.12-.6-.12-1.2-.12-1.68v-69.32h37.25v69.32c0 .48 0 1.08-.12 1.68-.12.48-.36 1.08-.48 1.56-.24.48-.48.96-.84 1.44s-.72.97-1.08 1.33c-.36.36-.84.72-1.32 1.08-.48.36-.97.6-1.45.84-.48.12-1.08.36-1.68.48-.48.12-1.08.12-1.68.12h.12z" class="cls-6"/><path d="M220.44 306.22h-20.19c-.61 0-1.09-.12-1.69-.24-.48 0-1.08-.24-1.56-.48-.6-.12-1.08-.48-1.56-.72-.37-.36-.85-.73-1.21-1.09-.48-.36-.84-.84-1.08-1.32-.36-.48-.6-.96-.84-1.44a8.84 8.84 0 01-.48-1.68c-.12-.48-.12-1.08-.12-1.69v-73.88h37.25v73.88c0 .61 0 1.21-.12 1.69-.12.6-.36 1.08-.48 1.68-.24.48-.48.96-.84 1.44s-.72.96-1.08 1.32c-.36.36-.84.73-1.32 1.09-.48.24-.97.6-1.45.72-.48.24-1.08.48-1.68.48-.48.12-1.08.24-1.68.24h.12z" class="cls-7"/><path d="M438.07 163.62h-319.2c-.6 0-1.2.12-1.81.12-.8.12-1.4.24-2.02.36-.6.12-1.2.37-1.61.61-.6.24-1 .48-1.61.72-.4.24-.8.6-1.2.84-.4.36-.6.72-.8 1.08-.4.36-.6.72-.6 1.08-.2.36-.2.72-.2 1.2v65.48h60.9V223.7h216.89v11.41h61.11v-65.48c0-.48-.2-.84-.2-1.2-.21-.36-.41-.72-.61-1.08s-.6-.72-1-1.08c-.2-.24-.6-.6-1.2-.84-.4-.24-.8-.48-1.4-.72-.6-.24-1.2-.49-1.81-.61l-1.81-.36c-.61 0-1.22-.12-1.82-.12z" class="cls-12"/><path fill="#ededed" d="M275.12 223.69h-46.16v11.41h46.16v-11.41zm-83.41 0h-46.28v11.41h46.28v-11.41z"/><path fill="#505050" d="M191.71 223.69h37.25v11.42h-37.25z"/><path fill="#8e8e8e" d="M109.02 223.69v-65.47c0-.36 0-.73.2-1.09 0-.36.2-.72.6-1.08.2-.36.4-.72.8-1.08s.8-.6 1.2-.84c.6-.36 1-.6 1.61-.84.4-.12 1-.36 1.61-.48.61-.12 1.22-.24 2.02-.36.6-.12 1.2-.12 1.81-.12h319.2c.6 0 1.2 0 1.82.12l1.81.36c.6.12 1.2.36 1.81.48.6.24 1 .48 1.4.84.6.24 1 .48 1.2.84.4.36.8.72 1 1.08s.4.72.61 1.08c0 .36.2.73.2 1.09v65.47h-338.9z"/><path d="M170.79 187.65c0 .72-.12 1.32-.12 2.04l-.36 2.17c-.12.6-.24 1.32-.48 2.04-.24.6-.48 1.32-.72 1.92-.24.72-.6 1.32-.84 1.93l-1.08 1.8c-.48.6-.84 1.2-1.33 1.68-.48.6-.96 1.08-1.44 1.56s-.96.96-1.56 1.44c-.48.49-1.08.85-1.69 1.21-.6.48-1.2.84-1.8 1.2-.6.24-1.2.6-1.92.84-.6.24-1.33.48-1.93.72-.72.24-1.32.36-2.04.48s-1.44.24-2.17.36c-.6 0-1.32.12-2.04.12s-1.44-.12-2.16-.12c-.61-.12-1.33-.24-2.05-.36-.72-.12-1.32-.24-2.04-.48s-1.33-.48-2.05-.72c-.6-.24-1.2-.6-1.8-.84-.72-.36-1.32-.72-1.8-1.2-.61-.36-1.21-.72-1.81-1.21-.48-.48-.96-.96-1.56-1.44-.48-.48-.96-.96-1.32-1.56a9.11 9.11 0 01-1.33-1.68l-1.08-1.8c-.36-.61-.6-1.21-.84-1.93-.36-.6-.6-1.32-.72-1.92-.24-.72-.36-1.44-.48-2.04-.24-.72-.24-1.45-.36-2.17s-.12-1.32-.12-2.04 0-1.44.12-2.16c.12-.72.12-1.33.36-2.05.12-.72.24-1.44.48-2.04.12-.72.36-1.32.72-2.04.24-.6.48-1.2.84-1.93l1.08-1.8c.36-.48.85-1.08 1.33-1.68.36-.48.84-1.08 1.32-1.56.6-.48 1.08-.96 1.56-1.32.6-.49 1.2-.97 1.81-1.33.48-.36 1.08-.72 1.8-1.08.6-.36 1.2-.6 1.8-.84.72-.36 1.33-.6 2.05-.72.72-.24 1.32-.36 2.04-.6.72-.12 1.44-.24 2.05-.24.72-.12 1.44-.12 2.16-.12s1.44 0 2.04.12c.73 0 1.45.12 2.17.24.72.24 1.32.36 2.04.6.6.12 1.33.36 1.93.72.72.24 1.32.48 1.92.84l1.8 1.08c.61.36 1.21.84 1.69 1.33.6.36 1.08.84 1.56 1.32.48.48.96 1.08 1.44 1.56.49.6.85 1.2 1.33 1.68l1.08 1.8c.24.73.6 1.33.84 1.93.24.72.48 1.32.72 2.04.24.6.36 1.32.48 2.04s.24 1.33.36 2.05c0 .72.12 1.44.12 2.16z" class="cls-13"/><path d="M166.35 183.2v4.45c0 9.37-7.57 17.06-17.07 17.06s-17.19-7.7-17.19-17.06v-4.45c0-3.24.97-6.37 2.65-9.13h4.09c1.44-1.2 3.13-2.04 4.93-2.64 1.8-.61 3.61-.97 5.53-.97 3.97 0 7.57 1.33 10.46 3.61h3.97c1.8 2.76 2.77 5.89 2.65 9.13z" class="cls-11"/><path d="M166.35 183.2c0 9.49-7.57 17.18-17.07 17.18s-17.19-7.69-17.19-17.18c0-3.24.97-6.37 2.65-9.13.84-1.2 1.68-2.28 2.77-3.25 1.08-1.08 2.28-1.92 3.48-2.64 1.33-.6 2.65-1.2 3.97-1.56 1.44-.36 7.22-.36 8.54 0 1.44.36 2.76.96 4.09 1.56 1.2.72 2.4 1.56 3.48 2.64.97.97 1.93 2.05 2.65 3.25 1.8 2.76 2.77 5.89 2.65 9.13z" class="cls-14"/><path d="M228 209.15c-.24 0-.6 0-.84-.12-.36 0-.6-.12-.84-.24l-.72-.36c-.24-.12-.48-.36-.72-.6-.24-.12-.36-.36-.6-.6-.13-.24-.25-.48-.37-.84-.12-.24-.24-.48-.24-.84-.12-.24-.12-.48-.12-.84v-34.24c0-.24 0-.6.12-.84 0-.36.12-.6.24-.84s.24-.48.37-.72c.24-.24.36-.48.6-.72s.48-.36.72-.6l.72-.36c.24-.12.48-.24.84-.24.24-.12.6-.12.84-.12s.6 0 .84.12c.37 0 .61.12.85.24s.6.24.84.36l.6.6c.24.24.36.48.6.72l.36.72c.12.24.24.48.24.84.12.24.12.6.12.84v34.24c0 .36 0 .6-.12.84 0 .36-.12.6-.24.84-.12.36-.24.6-.36.84-.24.24-.36.48-.6.6-.24.24-.36.48-.6.6s-.6.24-.84.36-.48.24-.85.24c-.24.12-.6.12-.84.12z" class="cls-2"/><path d="M228 206.27c-.24 0-.36-.12-.6-.12-.12-.12-.36-.24-.48-.36s-.24-.36-.24-.48c-.12-.24-.12-.36-.12-.6v-34.24c0-.24 0-.36.12-.6 0-.12.12-.36.24-.48s.36-.24.48-.36c.24 0 .36-.12.6-.12s.36.12.6.12c.12.12.36.24.48.36.13.12.25.36.25.48.12.24.12.36.12.6v34.24c0 .24 0 .36-.12.6 0 .12-.12.36-.25.48-.12.12-.36.24-.48.36-.24 0-.36.12-.6.12z" class="cls-12"/><path d="M233.17 179.12v1.32c-.12.24-.12.6-.12.96-.12.24-.24.6-.36.84-.12.36-.36.6-.48.84-.24.36-.36.6-.6.84s-.6.37-.84.61c-.24.12-.6.24-.84.36-.36.12-.6.24-.97.36-.36 0-.6.12-.96.12s-.6-.12-.96-.12c-.36-.12-.6-.24-.96-.36-.24-.12-.6-.24-.84-.36-.24-.24-.6-.37-.84-.61-.12-.24-.37-.48-.61-.84-.12-.24-.36-.48-.48-.84-.12-.24-.24-.6-.24-.84-.12-.36-.12-.72-.24-.96v-1.32c0-1.08.36-1.93.84-2.77h1.21c.48-.36.96-.6 1.44-.84.6-.12 1.08-.24 1.68-.24s1.08.12 1.69.24c.48.24.96.48 1.44.84h1.2c.48.84.84 1.69.84 2.77z" class="cls-11"/><path d="M233.17 179.12c-.12.24-.12.6-.12.96-.12.24-.24.6-.36.84-.12.36-.36.6-.48.96-.24.24-.36.48-.6.72s-.6.36-.84.6c-.24.12-.6.36-.84.48-.36.12-.6.12-.97.24-.36 0-.6.12-.96.12s-.6-.12-.96-.12c-.36-.12-.6-.12-.96-.24-.24-.12-.6-.36-.84-.48-.24-.24-.6-.36-.84-.6-.12-.24-.37-.48-.61-.72-.12-.36-.36-.6-.48-.96-.12-.24-.24-.6-.24-.84-.12-.36-.12-.72-.24-.96 0-1.08.36-1.93.84-2.77.12-.24.24-.36.36-.48.12-.24.37-.36.49-.48.12-.24.36-.36.48-.48s.36-.24.48-.36c.24-.12.48-.12.6-.24.24-.12.48-.12.6-.24.24 0 .48 0 .72-.12h1.2c.24.12.48.12.73.12.12.12.36.12.6.24.12.12.36.12.6.24.12.12.36.24.48.36.24.12.36.24.48.48.24.12.36.24.48.48.12.12.24.24.36.48.48.84.84 1.69.84 2.77z" class="cls-14"/><path d="M253 209.15c-.24 0-.6 0-.84-.12-.24 0-.6-.12-.84-.24l-.72-.36c-.24-.12-.48-.36-.72-.6-.24-.12-.36-.36-.6-.6-.12-.24-.24-.48-.36-.84-.12-.24-.24-.48-.24-.84-.12-.24-.12-.48-.12-.84v-34.24c0-2.4 2.04-4.44 4.44-4.44s4.45 2.04 4.45 4.44v34.24c0 .36 0 .6-.12.84 0 .36-.12.6-.24.84-.12.36-.24.6-.36.84-.24.24-.36.48-.6.6-.24.24-.36.48-.6.6s-.6.24-.84.36-.48.24-.84.24c-.24.12-.48.12-.85.12z" class="cls-2"/><path d="M253 206.27c-.24 0-.36-.12-.6-.12-.12-.12-.24-.24-.48-.36-.12-.12-.24-.36-.24-.48-.12-.24-.12-.36-.12-.6v-34.24c0-.24 0-.36.12-.6 0-.12.12-.24.24-.48.24-.12.36-.24.48-.24.24-.12.36-.12.6-.12s.37 0 .61.12c.12 0 .36.12.48.24.12.24.24.36.24.48.12.24.12.36.12.6v34.24c0 .24 0 .36-.12.6 0 .12-.12.36-.24.48s-.36.24-.48.36c-.24 0-.37.12-.61.12z" class="cls-12"/><path d="M258.17 197.26v1.33c0 .36-.12.6-.12.96-.12.36-.24.6-.36.96-.12.24-.36.6-.48.84-.24.24-.36.48-.6.72s-.48.48-.84.6c-.24.24-.48.36-.84.48s-.6.24-.96.24c-.24.12-.6.12-.97.12s-.6 0-.96-.12c-.36 0-.6-.12-.96-.24-.24-.12-.6-.24-.84-.48-.24-.12-.48-.36-.72-.6l-.72-.72c-.12-.24-.37-.6-.49-.84-.12-.36-.24-.6-.24-.96-.12-.36-.12-.6-.12-.96v-1.33c0-.96.24-1.92.73-2.76h1.2c.96-.72 1.92-1.08 3.12-1.08s2.29.48 3.13 1.08h1.2c.48.84.84 1.8.84 2.76z" class="cls-11"/><path d="M258.17 197.26c0 .37-.12.61-.12.97-.12.36-.24.6-.36.96-.12.24-.36.6-.48.84-.24.24-.36.48-.6.72s-.48.48-.84.6c-.24.24-.48.36-.84.48s-.6.24-.96.24c-.24.12-.6.12-.97.12s-.6 0-.96-.12c-.36 0-.6-.12-.96-.24-.24-.12-.6-.24-.84-.48-.24-.12-.48-.36-.72-.6l-.72-.72c-.12-.24-.37-.6-.49-.84-.12-.36-.24-.6-.24-.96-.12-.36-.12-.6-.12-.97 0-.96.24-1.92.73-2.76.48-.72 1.08-1.32 1.92-1.68.72-.48 1.56-.72 2.4-.6.85-.12 1.69.12 2.53.6.72.36 1.32.96 1.8 1.68.48.84.84 1.8.84 2.76z" class="cls-14"/><path d="M278.01 209.15c-.24 0-.61 0-.85-.12-.24 0-.6-.12-.84-.24l-.72-.36c-.24-.12-.48-.36-.72-.6-.24-.12-.36-.36-.6-.6-.12-.24-.24-.48-.36-.84-.12-.24-.24-.48-.24-.84-.12-.24-.12-.48-.12-.84v-34.24c0-.24 0-.6.12-.84 0-.36.12-.6.24-.84l.36-.72c.24-.24.36-.48.6-.72s.48-.36.72-.6l.72-.36c.24-.12.6-.24.84-.24.24-.12.61-.12.85-.12.36 0 .6 0 .84.12.36 0 .6.12.84.24s.6.24.84.36c.24.24.48.36.6.6.24.24.36.48.6.72l.36.72c.12.24.24.48.24.84.13.24.13.6.13.84v34.24c0 .36 0 .6-.13.84 0 .36-.12.6-.24.84-.12.36-.24.6-.36.84-.24.24-.36.48-.6.6-.24.24-.36.48-.6.6s-.6.24-.84.36-.48.24-.84.24c-.24.12-.48.12-.84.12z" class="cls-2"/><path d="M278.01 206.27c-.24 0-.36-.12-.61-.12-.12-.12-.24-.24-.48-.36-.12-.12-.24-.36-.24-.48-.12-.24-.12-.36-.12-.6v-34.24c0-.24 0-.36.12-.6 0-.12.12-.24.24-.48.24-.12.36-.24.48-.24.25-.12.49-.12.61-.12.24 0 .36 0 .6.12.12 0 .36.12.48.24.12.24.24.36.24.48.12.24.12.36.12.6v34.85c-.12.12-.24.36-.36.48s-.36.24-.48.36c-.24 0-.36.12-.6.12z" class="cls-12"/><path d="M283.17 184.89v1.32c0 .24-.12.6-.12.96-.12.24-.24.6-.36.84-.12.36-.24.6-.49.96-.24.24-.36.48-.6.72s-.48.36-.84.6c-.24.12-.48.36-.84.48-.24.12-.6.12-.96.25-.24.12-.6.12-.96.12s-.61 0-.97-.12c-.36-.13-.6-.13-.96-.25-.24-.12-.6-.36-.84-.48-.24-.24-.6-.36-.72-.6l-.72-.72c-.12-.36-.36-.6-.48-.96-.12-.24-.24-.6-.24-.84-.12-.36-.12-.72-.12-.96v-1.32c0-1.09.24-1.93.72-2.77h1.2c.48-.36.96-.6 1.44-.84.6-.12 1.08-.24 1.69-.24s1.08.12 1.68.24c.48.24.96.48 1.44.84h1.2c.49.84.85 1.68.85 2.77z" class="cls-11"/><path d="M283.17 184.89c0 .24-.12.6-.12.96-.12.24-.24.6-.36.96-.12.24-.24.48-.49.84-.24.24-.36.48-.6.72s-.48.36-.84.6c-.24.12-.48.36-.84.48-.24.12-.6.24-.96.24-.24.12-.6.12-.96.12s-.61 0-.97-.12c-.36 0-.6-.12-.96-.24-.24-.12-.6-.36-.84-.48-.24-.24-.6-.36-.72-.6l-.72-.72c-.12-.36-.36-.6-.48-.84-.12-.36-.24-.72-.24-.96-.12-.36-.12-.72-.12-.96 0-1.09.24-1.93.72-2.77.12-.24.24-.36.36-.48.12-.24.36-.36.48-.48.12-.24.36-.36.48-.48.24-.12.36-.24.6-.36.12-.12.36-.12.48-.24.24-.12.48-.12.72-.24.12 0 .36 0 .6-.12h1.21c.24.12.48.12.72.12.12.12.36.12.6.24.12.12.36.12.6.24.12.12.36.24.48.36.24.12.36.24.48.48.24.12.36.24.48.48.12.12.24.24.36.48.49.84.85 1.68.85 2.77z" class="cls-14"/><path d="M185.51 195.43h-6.29c-.35 0-.87-.17-1.22-.35-.52-.17-.87-.35-1.22-.7s-.52-.7-.7-1.05c-.17-.53-.17-.88-.17-1.41v-6.28c0-1.74 1.4-3.32 3.31-3.32h6.29c1.92 0 3.49 1.58 3.49 3.32v6.28c0 .52-.17.87-.35 1.41-.17.35-.35.7-.7 1.05s-.7.52-1.05.7c-.52.17-.87.35-1.4.35z" class="cls-11"/><path d="M185.51 193.86h-6.29c-.35 0-.87-.17-1.22-.35-.52-.17-.87-.35-1.22-.71-.17-.35-.52-.7-.7-1.22-.17-.35-.17-.7-.17-1.22v-6.28c0-1.93 1.4-3.5 3.31-3.5h6.29c.52 0 .87.17 1.4.35.35.17.7.35 1.05.7.35.35.52.7.7 1.05.17.53.35.88.35 1.41v6.28c0 .35-.17.87-.35 1.22-.17.52-.35.87-.7 1.22-.35.36-.7.53-1.05.71-.52.17-.87.35-1.4.35z" class="cls-14"/><path d="M206.85 196.31h-6.29c-.35 0-.87-.17-1.22-.35-.52-.17-.87-.35-1.22-.7s-.52-.7-.7-1.05c-.17-.53-.17-.88-.17-1.41v-6.28c0-1.74 1.4-3.32 3.31-3.32h6.29c1.92 0 3.49 1.58 3.49 3.32v6.28c0 .52-.17.87-.35 1.41-.17.35-.35.7-.7 1.05s-.7.52-1.05.7c-.52.17-.87.35-1.4.35z" class="cls-11"/><path d="M206.85 194.74h-6.29c-.35 0-.87-.17-1.22-.35-.52-.17-.87-.35-1.22-.71-.17-.35-.52-.7-.7-1.22-.17-.35-.17-.7-.17-1.22v-6.28c0-1.93 1.4-3.5 3.31-3.5h6.29c.52 0 .87.17 1.4.35.35.17.7.35 1.05.7.35.35.52.7.7 1.05.17.53.35.88.35 1.41v6.28c0 .35-.17.87-.35 1.22-.17.52-.35.87-.7 1.22-.35.36-.7.53-1.05.71-.52.17-.87.35-1.4.35z" class="cls-14"/><path fill="#ffdaa9" stroke="#ffdaa9" stroke-miterlimit="10" stroke-width="2" d="M149.23 179.72l.05-13.57"/><path d="M328.8 306.19h29.52v65.4H328.8z" class="cls-5"/><path d="M330.52 386.35h-40.39c-.72 0-1.44-.12-2.16-.24s-1.44-.36-2.17-.6c-.6-.36-1.32-.72-1.92-1.08-.6-.37-1.08-.85-1.68-1.33-.48-.6-.96-1.08-1.33-1.68-.48-.72-.72-1.32-1.08-1.92-.24-.72-.48-1.44-.6-2.17-.12-.72-.24-1.44-.24-2.16V223.69h62.62v151.49c0 .72 0 1.44-.12 2.16-.24.73-.36 1.45-.72 2.05-.24.72-.6 1.32-.96 1.92-.48.72-.85 1.2-1.45 1.8-.48.48-1.08.96-1.68 1.33-.6.36-1.2.72-1.92 1.08-.61.24-1.33.48-2.05.6-.72.12-1.44.24-2.16.24z" class="cls-8"/><path d="M278.96 223.69h62.62v136.72c0 .72 0 1.44-.12 2.16-.24.72-.36 1.44-.72 2.05-.24.72-.6 1.32-.96 1.92-.48.6-.85 1.2-1.45 1.68-.48.6-1.08.96-1.68 1.44-.6.36-1.2.72-1.92.96-.61.36-1.33.49-2.05.73-.72.12-1.44.12-2.16.12h-40.39c-.72 0-1.44 0-2.16-.12-.72-.24-1.44-.37-2.17-.73-.6-.24-1.32-.6-1.92-.96-.6-.48-1.08-.84-1.68-1.44-.48-.48-.96-1.08-1.33-1.68-.48-.6-.72-1.2-1.08-1.92-.24-.61-.48-1.33-.6-2.05-.12-.72-.24-1.44-.24-2.16" class="cls-1"/><path d="M286.89 321H266.7c-.61 0-1.09 0-1.69-.12-.48-.12-1.08-.36-1.56-.48-.6-.24-1.08-.48-1.56-.84-.37-.36-.85-.72-1.21-1.08-.48-.36-.84-.85-1.08-1.33-.36-.48-.6-.96-.84-1.44s-.36-1.08-.48-1.56c-.12-.6-.12-1.2-.12-1.68v-69.32h37.25v69.32c0 .48 0 1.08-.12 1.68-.12.48-.36 1.08-.48 1.56-.24.48-.48.96-.84 1.44s-.72.97-1.08 1.33c-.36.36-.84.72-1.32 1.08-.48.36-.97.6-1.45.84-.48.12-1.08.36-1.68.48-.48.12-1.08.12-1.68.12h.12z" class="cls-6"/><path d="M286.89 306.22H266.7c-.61 0-1.09-.12-1.69-.24-.48 0-1.08-.24-1.56-.48-.6-.12-1.08-.48-1.56-.72-.37-.36-.85-.73-1.21-1.09-.48-.36-.84-.84-1.08-1.32-.36-.48-.6-.96-.84-1.44a8.84 8.84 0 01-.48-1.68c-.12-.48-.12-1.08-.12-1.69v-73.88h37.25v73.88c0 .61 0 1.21-.12 1.69-.12.6-.36 1.08-.48 1.68-.24.48-.48.96-.84 1.44s-.72.96-1.08 1.32c-.36.36-.84.73-1.32 1.09-.48.24-.97.6-1.45.72-.48.24-1.08.48-1.68.48-.48.12-1.08.24-1.68.24h.12z" class="cls-7"/><path d="M397.28 385.92h-40.39c-.72 0-1.44-.12-2.16-.24s-1.44-.36-2.17-.6c-.6-.36-1.32-.72-1.92-1.08-.6-.37-1.08-.85-1.68-1.33-.48-.6-.96-1.08-1.33-1.68-.48-.72-.72-1.32-1.08-1.92-.24-.72-.48-1.44-.6-2.17-.12-.72-.24-1.44-.24-2.16V223.25h62.62v151.49c0 .72 0 1.44-.12 2.16-.24.73-.36 1.45-.72 2.05-.24.72-.6 1.32-.96 1.92-.48.72-.85 1.2-1.45 1.8-.48.48-1.08.96-1.68 1.33-.6.36-1.2.72-1.92 1.08-.61.24-1.33.48-2.05.6-.72.12-1.44.24-2.16.24z" class="cls-8"/><path d="M353.66 320.57h-20.19c-.61 0-1.09 0-1.69-.12-.48-.12-1.08-.36-1.56-.48-.6-.24-1.08-.48-1.56-.84-.37-.36-.85-.72-1.21-1.08-.48-.36-.84-.85-1.08-1.33-.36-.48-.6-.96-.84-1.44s-.36-1.08-.48-1.56c-.12-.6-.12-1.2-.12-1.68v-69.32h37.25v69.32c0 .48 0 1.08-.12 1.68-.12.48-.36 1.08-.48 1.56-.24.48-.48.96-.84 1.44s-.72.97-1.08 1.33c-.36.36-.84.72-1.32 1.08-.48.36-.97.6-1.45.84-.48.12-1.08.36-1.68.48-.48.12-1.08.12-1.68.12h.12z" class="cls-6"/><path d="M353.66 305.79h-20.19c-.61 0-1.09-.12-1.69-.24-.48 0-1.08-.24-1.56-.48-.6-.12-1.08-.48-1.56-.72-.37-.36-.85-.73-1.21-1.09-.48-.36-.84-.84-1.08-1.32-.36-.48-.6-.96-.84-1.44a8.84 8.84 0 01-.48-1.68c-.12-.48-.12-1.08-.12-1.69v-73.88h37.25v73.88c0 .61 0 1.21-.12 1.69-.12.6-.36 1.08-.48 1.68-.24.48-.48.96-.84 1.44s-.72.96-1.08 1.32c-.36.36-.84.73-1.32 1.09-.48.24-.97.6-1.45.72-.48.24-1.08.48-1.68.48-.48.12-1.08.24-1.68.24h.12z" class="cls-7"/></svg>