<svg enable-background="new 0 0 300 300" viewBox="0 0 300 300" xmlns="http://www.w3.org/2000/svg"><path d="m149.999 300c-82.709 0-149.999-67.29-149.999-150s67.29-150 149.999-150c82.711 0 150.001 67.29 150.001 150s-67.29 150-150.001 150" fill="#fff"/><path d="m290.812 150c0 77.768-63.044 140.812-140.812 140.812-77.768-.001-140.812-63.044-140.812-140.812s63.044-140.812 140.812-140.812 140.812 63.043 140.812 140.812" fill="#86bf5a"/><path d="m199.35 206.911h-98.7c-3.902 0-7.065-3.163-7.065-7.065v-95.052h112.829v95.052c.001 3.902-3.162 7.065-7.064 7.065" fill="#cd4058"/><path d="m199.35 198.645h-98.7c-3.902 0-7.065-3.163-7.065-7.065v-86.785h112.829v86.785c.001 3.902-3.162 7.065-7.064 7.065" fill="#ea4f5c"/><path d="m141.797 170.536h16.407v36.375h-16.407z" fill="#3d3d3d"/><path d="m142.57 215.159h-22.482c-3.425 0-6.201-2.776-6.201-6.201v-84.366h34.883v84.366c0 3.425-2.776 6.201-6.2 6.201" fill="#e2e2e2"/><path d="m142.57 206.911h-22.482c-3.425 0-6.201-2.776-6.201-6.2v-76.119h34.883v76.119c0 3.424-2.776 6.2-6.2 6.2" fill="#fff"/><path d="m179.912 215.159h-22.482c-3.424 0-6.2-2.776-6.2-6.201v-84.366h34.883v84.366c0 3.425-2.776 6.201-6.201 6.201" fill="#e2e2e2"/><path d="m179.912 206.911h-22.482c-3.424 0-6.2-2.776-6.2-6.2v-76.119h34.883v76.119c0 3.424-2.776 6.2-6.201 6.2" fill="#fff"/><path d="m155.599 178.784h-11.199c-2.642 0-4.784-2.143-4.784-4.785v-38.565h20.767v38.565c.001 2.642-2.141 4.785-4.784 4.785z" fill="#4c4c4c"/><path d="m155.599 170.536h-11.199c-2.642 0-4.784-2.142-4.784-4.785v-41.159h20.767v41.159c.001 2.643-2.141 4.785-4.784 4.785" fill="#565656"/><path d="m206.415 104.795h-112.83v26.106h20.302v-6.309h25.73 20.767 25.729v6.309h20.302z" fill="#d94956"/><path d="m139.617 124.592h-25.73v6.309h25.73z" fill="#ededed"/><path d="m186.113 124.592h-25.729v6.309h25.729z" fill="#ededed"/><path d="m160.384 124.592h-20.767v6.309h20.767z" fill="#505050"/><path d="m93.585 124.592v-36.46c0-1.818 1.473-3.292 3.292-3.292h106.246c1.818 0 3.292 1.473 3.292 3.292v36.46z" fill="#d8d8d8"/><path d="m130.868 104.489c0 6.609-5.358 11.967-11.968 11.967-6.609 0-11.967-5.358-11.967-11.967s5.358-11.967 11.967-11.967c6.61 0 11.968 5.357 11.968 11.967z" fill="#ededed"/><path d="m128.443 102.046v2.443c0 5.267-4.275 9.543-9.543 9.543-5.267 0-9.542-4.275-9.542-9.543v-2.443c0-1.87.534-3.613 1.476-5.089h2.226c1.616-1.259 3.639-2.01 5.84-2.01s4.225.751 5.84 2.01h2.226c.943 1.476 1.477 3.219 1.477 5.089z" fill="#4f4f4f"/><path d="m128.443 102.046c0 5.268-4.275 9.543-9.543 9.543-5.267 0-9.542-4.275-9.542-9.543 0-1.87.534-3.613 1.476-5.089 1.679-2.672 4.669-4.453 8.066-4.453s6.388 1.781 8.067 4.453c.942 1.476 1.476 3.219 1.476 5.089z" fill="#686868"/><path d="m193.067 112.173c0 2.048-1.666 3.713-3.714 3.713h-50.883c-2.048 0-3.714-1.666-3.714-3.713 0-2.048 1.666-3.714 3.714-3.714h50.883c2.048 0 3.714 1.666 3.714 3.714z" fill="#ededed"/><path d="m190.591 112.173c0 .684-.554 1.238-1.238 1.238h-50.883c-.684 0-1.238-.554-1.238-1.238s.554-1.238 1.238-1.238h50.883c.684 0 1.238.554 1.238 1.238z" fill="#d8d8d8"/><path d="m180.903 108.459h6.678c.364 0 .659.295.659.66v6.677c0 .364-.295.659-.659.659h-6.678c-.364 0-.659-.295-.659-.659v-6.677c0-.364.295-.66.659-.66z" fill="#4f4f4f"/><path d="m180.903 106.793h6.678c.364 0 .659.295.659.66v6.677c0 .364-.295.659-.659.659h-6.678c-.364 0-.659-.295-.659-.659v-6.677c0-.365.295-.66.659-.66z" fill="#686868"/><path d="m193.067 97.901c0 2.048-1.666 3.714-3.714 3.714h-50.883c-2.048 0-3.714-1.666-3.714-3.714s1.666-3.713 3.714-3.713h50.883c2.048 0 3.714 1.666 3.714 3.713z" fill="#ededed"/><path d="m190.591 97.901c0 .684-.554 1.238-1.238 1.238h-50.883c-.684 0-1.238-.554-1.238-1.238s.554-1.238 1.238-1.238h50.883c.684.001 1.238.554 1.238 1.238z" fill="#d8d8d8"/><path d="m149.43 94.188h6.677c.365 0 .66.295.66.659v6.677c0 .365-.295.66-.66.66h-6.677c-.364 0-.659-.295-.659-.66v-6.677c-.001-.364.295-.659.659-.659z" fill="#4f4f4f"/><path d="m149.43 92.522h6.677c.365 0 .66.295.66.659v6.677c0 .365-.295.66-.66.66h-6.677c-.364 0-.659-.295-.659-.66v-6.677c-.001-.364.295-.659.659-.659z" fill="#686868"/></svg>
