<svg xmlns="http://www.w3.org/2000/svg" version="1.0" viewBox="0 0 300 300"><circle cx="150.003" cy="150.003" r="150.003" fill="#FFF" transform="rotate(-45.001 150.002 150.006)"/><circle cx="150.003" cy="150.003" r="140.815" fill="#EB595B"/><path fill="#5E0902" d="M204.428 203.921H95.578a1.99 1.99 0 01-1.991-1.991v-99.223h112.832v99.223a1.99 1.99 0 01-1.991 1.991z"/><path fill="#841803" d="M204.428 195.655H95.697a2.11 2.11 0 01-2.11-2.11v-90.837h112.832v90.957a1.99 1.99 0 01-1.991 1.99z"/><path fill="#5E0902" d="M141.799 167.545h16.407v36.376h-16.407z"/><path fill="#E2E2E2" d="M147.441 212.169h-32.22a1.332 1.332 0 01-1.332-1.332V121.6h34.884v89.237c0 .736-.596 1.332-1.332 1.332z"/><path fill="#FFF" d="M147.441 203.921h-32.22a1.332 1.332 0 01-1.332-1.332V121.6h34.884v80.989c0 .736-.596 1.332-1.332 1.332z"/><path fill="#E2E2E2" d="M184.785 212.169h-32.22a1.332 1.332 0 01-1.332-1.332V121.6h34.884v89.237c0 .736-.597 1.332-1.332 1.332z"/><path fill="#FFF" d="M184.785 203.921h-32.22a1.332 1.332 0 01-1.332-1.332V121.6h34.884v80.989c0 .736-.597 1.332-1.332 1.332z"/><path fill="#4C4C4C" d="M160.134 175.793h-20.262a.253.253 0 01-.253-.253v-43.097h20.767v43.097a.252.252 0 01-.252.253z"/><path fill="#565656" d="M160.134 167.545h-20.262a.253.253 0 01-.253-.253V121.6h20.767v45.692a.252.252 0 01-.252.253z"/><path fill="#841803" d="M93.587 124.419V82.136a3.826 3.826 0 013.826-3.826h105.18a3.826 3.826 0 013.826 3.826v42.284H93.587z"/><path fill="#3D3D3D" d="M102.591 94.188h94.817c.906 0 1.64.734 1.64 1.64v27.376a1.64 1.64 0 01-1.64 1.64h-94.817a1.64 1.64 0 01-1.64-1.64V95.828a1.641 1.641 0 011.64-1.64z"/><path fill="#3D3D3D" d="M102.591 94.188h94.817c.906 0 1.64.734 1.64 1.64v27.376a1.64 1.64 0 01-1.64 1.64h-94.817a1.64 1.64 0 01-1.64-1.64V95.828a1.641 1.641 0 011.64-1.64z"/><path fill="#232323" d="M102.591 94.188h94.817c.906 0 1.64.734 1.64 1.64v27.376a1.64 1.64 0 01-1.64 1.64h-94.817a1.64 1.64 0 01-1.64-1.64V95.828a1.641 1.641 0 011.64-1.64z"/><path fill="#FFF" d="M110.859 108.333a2.323 2.323 0 00-1.941-1.066c-.82 0-1.531.437-1.941 1.066-.246.356-.355.793-.355 1.23 0 .109 0 .246.055.356.136 1.093 1.066 1.941 2.241 1.941 1.121 0 2.078-.82 2.242-1.886.055-.137.055-.274.055-.41 0-.438-.137-.875-.356-1.231z"/><path fill="#686868" d="M110.371 108.642a1.74 1.74 0 00-1.452-.798c-.614 0-1.145.327-1.452.798a1.615 1.615 0 00-.266.92c0 .082 0 .184.041.266a1.666 1.666 0 001.677 1.452c.839 0 1.555-.614 1.678-1.411.041-.102.041-.205.041-.307a1.81 1.81 0 00-.267-.92z"/><path fill="#4F4F4F" d="M110.637 109.563c0 .102 0 .205-.041.307 0-.266-.102-.511-.225-.716a1.74 1.74 0 00-1.452-.798c-.614 0-1.145.327-1.452.798-.143.205-.225.43-.225.675-.041-.082-.041-.184-.041-.266 0-.327.082-.654.266-.92a1.74 1.74 0 011.452-.798c.614 0 1.146.327 1.452.798.163.266.266.593.266.92z"/><circle cx="121.941" cy="109.567" r="5.443" fill="#FFF"/><path fill="#4F4F4F" d="M126.281 108.456v1.111a4.341 4.341 0 01-8.68 0v-1.111c0-.851.243-1.644.671-2.315h1.013c.735-.573 1.655-.914 2.656-.914s1.921.341 2.656.914h1.013a4.29 4.29 0 01.671 2.315z"/><path fill="#686868" d="M126.281 108.456a4.341 4.341 0 01-8.68 0c0-.851.243-1.644.671-2.315a4.331 4.331 0 013.669-2.025c1.545 0 2.905.81 3.669 2.025a4.29 4.29 0 01.671 2.315z"/><circle cx="135.833" cy="109.567" r="5.443" fill="#FFF"/><path fill="#4F4F4F" d="M140.174 108.456v1.111a4.341 4.341 0 01-8.68 0v-1.111c0-.851.243-1.644.671-2.315h1.013a4.302 4.302 0 012.656-.914c1.001 0 1.921.341 2.656.914h1.013a4.29 4.29 0 01.671 2.315z"/><path fill="#686868" d="M140.174 108.456a4.341 4.341 0 01-8.68 0c0-.851.243-1.644.671-2.315a4.331 4.331 0 013.669-2.025c1.545 0 2.905.81 3.669 2.025a4.29 4.29 0 01.671 2.315z"/><circle cx="176.849" cy="103.379" r="3.582" fill="#FFF"/><circle cx="176.849" cy="103.379" r="3.582" fill="#FFF"/><path fill="#4F4F4F" d="M179.706 101.004v2.375a2.857 2.857 0 01-5.712 0v-2.375c0-.56 1.108-1.668 1.108-1.668a2.832 2.832 0 011.748-.602c.659 0 1.264.225 1.748.602 0 0 1.108 1.108 1.108 1.668z"/><path fill="#686868" d="M179.706 101.076a2.857 2.857 0 01-5.712 0c0-.56.16-1.082.442-1.523a2.85 2.85 0 012.415-1.333 2.85 2.85 0 012.855 2.856z"/><path fill="#686868" d="M176.767 98.987h.165v.667h-.165zm-2.189.627l.143-.082.333.578-.143.082zm-2.294 1.246l.226-.391.887.512-.225.39zm-.578 2.143h1.025v.451h-1.025zm.569 2.599l.888-.512.225.39-.888.513zm1.803 1.974l.511-.887.39.226-.51.887zm2.546-.228h.451v1.024h-.451zm2.086-.448l.39-.225.512.887-.39.225zm1.594-1.407l.226-.39.886.511-.225.391zm.665-2.49h1.025v.451h-1.025zm-.664-2.023l.887-.513.225.39-.886.513zm-1.335-1.448l.142.082-.333.578-.143-.082z"/><path fill="#FFF" d="M165.767 101.36a2.323 2.323 0 00-1.941-1.066c-.82 0-1.531.437-1.941 1.066-.246.356-.355.793-.355 1.23 0 .109 0 .246.055.356.136 1.093 1.066 1.941 2.241 1.941 1.121 0 2.078-.82 2.242-1.886.055-.137.055-.274.055-.41 0-.438-.137-.876-.356-1.231z"/><path fill="#686868" d="M165.279 101.669a1.74 1.74 0 00-1.452-.798c-.614 0-1.145.327-1.452.798a1.615 1.615 0 00-.266.92c0 .082 0 .184.041.266a1.666 1.666 0 001.677 1.452c.839 0 1.555-.614 1.678-1.411.041-.102.041-.205.041-.307a1.8 1.8 0 00-.267-.92z"/><path fill="#4F4F4F" d="M165.545 102.59c0 .102 0 .205-.041.307 0-.266-.102-.511-.225-.716a1.74 1.74 0 00-1.452-.798c-.614 0-1.145.327-1.452.798-.143.205-.225.43-.225.675-.041-.082-.041-.184-.041-.266 0-.327.082-.654.266-.92a1.74 1.74 0 011.452-.798c.614 0 1.146.327 1.452.798.164.266.266.593.266.92z"/><circle cx="189.796" cy="103.379" r="3.582" fill="#FFF"/><path fill="#4F4F4F" d="M192.652 101.004v2.375a2.857 2.857 0 01-5.712 0v-2.375c0-.56 1.108-1.668 1.108-1.668.484-.377 1.089-.602 1.748-.602s1.264.225 1.748.602c0 0 1.108 1.108 1.108 1.668z"/><path fill="#686868" d="M192.652 101.076a2.857 2.857 0 01-5.712 0c0-.56.16-1.082.442-1.523a2.85 2.85 0 012.415-1.333 2.85 2.85 0 012.855 2.856z"/><circle cx="176.849" cy="114.723" r="3.582" fill="#FFF"/><circle cx="176.849" cy="114.723" r="3.582" fill="#FFF"/><path fill="#4F4F4F" d="M179.706 112.348v2.375a2.857 2.857 0 01-5.712 0v-2.375c0-.56 1.108-1.668 1.108-1.668a2.832 2.832 0 011.748-.602c.659 0 1.264.225 1.748.602 0 0 1.108 1.108 1.108 1.668z"/><path fill="#686868" d="M179.706 112.42a2.857 2.857 0 01-5.712 0c0-.56.16-1.082.442-1.523a2.85 2.85 0 012.415-1.333 2.85 2.85 0 012.855 2.856z"/><path fill="#686868" d="M176.767 110.331h.165v.667h-.165zm-2.189.627l.143-.082.333.577-.143.083zm-2.294 1.245l.226-.39.887.513-.225.39zm-.578 2.144h1.025v.451h-1.025zm.569 2.599l.888-.513.225.39-.888.513zm1.802 1.974l.512-.887.39.226-.511.887zm2.547-.228h.451v1.024h-.451zm2.086-.448l.39-.225.513.886-.39.226zm1.594-1.407l.225-.39.887.512-.225.39zm.665-2.49h1.025v.451h-1.025zm-.664-2.024l.886-.512.226.39-.887.513zm-1.335-1.447l.142.082-.333.578-.143-.083z"/><path fill="#FFF" d="M165.767 112.704a2.323 2.323 0 00-1.941-1.066c-.82 0-1.531.437-1.941 1.066-.246.356-.355.793-.355 1.23 0 .109 0 .246.055.356.136 1.093 1.066 1.941 2.241 1.941 1.121 0 2.078-.82 2.242-1.886.055-.137.055-.274.055-.41 0-.438-.137-.876-.356-1.231z"/><path fill="#686868" d="M165.279 113.013a1.74 1.74 0 00-1.452-.798c-.614 0-1.145.327-1.452.798a1.615 1.615 0 00-.266.92c0 .082 0 .184.041.266a1.666 1.666 0 001.677 1.452c.839 0 1.555-.614 1.678-1.411.041-.102.041-.205.041-.307a1.798 1.798 0 00-.267-.92z"/><path fill="#4F4F4F" d="M165.545 113.934c0 .102 0 .205-.041.307 0-.266-.102-.511-.225-.716a1.74 1.74 0 00-1.452-.798c-.614 0-1.145.327-1.452.798-.143.205-.225.43-.225.675-.041-.082-.041-.184-.041-.266 0-.327.082-.654.266-.92a1.74 1.74 0 011.452-.798c.614 0 1.146.327 1.452.798.164.265.266.593.266.92z"/><g><circle cx="189.796" cy="114.723" r="3.582" fill="#FFF"/><path fill="#4F4F4F" d="M192.652 112.348v2.375a2.857 2.857 0 01-5.712 0v-2.375c0-.56 1.108-1.668 1.108-1.668.484-.377 1.089-.602 1.748-.602s1.264.225 1.748.602c0 0 1.108 1.108 1.108 1.668z"/><path fill="#686868" d="M192.652 112.42a2.857 2.857 0 01-5.712 0c0-.56.16-1.082.442-1.523a2.85 2.85 0 012.415-1.333 2.85 2.85 0 012.855 2.856z"/></g></svg>