<?xml version="1.0" encoding="utf-8"?>
<!-- Generator: Adobe Illustrator 23.0.6, SVG Export Plug-In . SVG Version: 6.00 Build 0)  -->
<svg version="1.0" id="Camada_1" xmlns="http://www.w3.org/2000/svg" xmlns:xlink="http://www.w3.org/1999/xlink" x="0px" y="0px"
	 viewBox="0 0 300 300" enable-background="new 0 0 300 300" xml:space="preserve">
<g>
	
		<ellipse transform="matrix(0.7071 -0.7071 0.7071 0.7071 -62.1321 149.9998)" fill="#FFFFFF" cx="150" cy="150" rx="150" ry="150"/>
	<circle fill="#5EC2D7" cx="150" cy="150" r="140.812"/>
	<g>
		<path fill="#D7FAFF" d="M216.395,150c0,0.339,0,0.688-0.01,1.027c-0.165,11.29-3.164,21.902-8.301,31.148
			c-0.38,0.699-0.77,1.377-1.182,2.055c-7.304,12.122-18.389,21.728-31.61,27.172c-7.797,3.226-16.334,4.993-25.293,4.993
			c-8.979,0-17.546-1.777-25.354-5.013c-13.201-5.455-24.255-15.04-31.549-27.152c-0.411-0.678-0.812-1.356-1.182-2.055
			c-5.147-9.246-8.136-19.858-8.301-31.148c-0.01-0.339-0.01-0.688-0.01-1.027s0-0.688,0.01-1.027
			c0.164-11.29,3.154-21.892,8.29-31.138c0.38-0.688,0.781-1.377,1.192-2.055c7.283-12.102,18.327-21.687,31.508-27.142
			C132.422,85.392,141,83.605,150,83.605c8.968,0,17.526,1.777,25.333,5.013c13.201,5.445,24.265,15.04,31.569,27.162
			c0.411,0.678,0.812,1.366,1.192,2.055c5.137,9.246,8.126,19.848,8.29,31.138C216.395,149.312,216.395,149.661,216.395,150z"/>
		<g>
			<path fill="#FFFFFF" d="M209.255,148.974h-11.306c-0.121-11.258-2.203-21.859-5.804-31.143h9.427
				C206.323,127.057,209.095,137.669,209.255,148.974z M165.121,115.777H134.87c4.925-18.845,12.529-31.143,15.125-31.143
				C152.592,84.634,160.196,96.932,165.121,115.777z M153.707,84.866c14.954,1.713,27.908,13.656,35.388,30.911h-21.834
				c-1.397-5.466-2.888-9.913-4.076-13.084C160.52,95.573,156.952,88.411,153.707,84.866z M130.454,148.974
				c0.09-11.4,1.661-21.984,3.902-31.143h31.279c2.241,9.159,3.812,19.743,3.902,31.143H130.454z M169.537,151.029
				c-0.09,11.4-1.661,21.983-3.902,31.142h-31.279c-2.241-9.159-3.812-19.743-3.902-31.142H169.537z M136.805,102.692
				c-1.188,3.171-2.679,7.618-4.076,13.084h-21.834c7.48-17.255,20.434-29.198,35.388-30.911
				C143.039,88.411,139.471,95.573,136.805,102.692z M132.225,117.831c-2.028,8.47-3.73,19.119-3.824,31.143h-24.305
				c0.123-11.305,2.271-21.918,5.951-31.143H132.225z M128.401,151.029c0.094,12.023,1.796,22.672,3.824,31.142h-22.177
				c-3.68-9.225-5.828-19.838-5.951-31.142H128.401z M132.729,184.226c1.397,5.466,2.888,9.913,4.076,13.084
				c2.666,7.12,6.234,14.281,9.479,17.827c-14.954-1.713-27.908-13.656-35.388-30.911H132.729z M134.87,184.226h30.251
				c-4.925,18.844-12.529,31.143-15.126,31.143C147.399,215.369,139.795,203.07,134.87,184.226z M163.186,197.31
				c1.188-3.171,2.679-7.618,4.076-13.084h21.834c-7.48,17.255-20.434,29.198-35.388,30.911
				C156.952,211.591,160.52,204.43,163.186,197.31z M167.766,182.171c2.028-8.47,3.73-19.119,3.824-31.142h24.305
				c-0.123,11.305-2.271,21.917-5.951,31.142H167.766z M171.59,148.974c-0.094-12.023-1.796-22.672-3.824-31.143h22.177
				c3.68,9.225,5.828,19.838,5.951,31.143H171.59z M200.477,115.777h-9.174c-5.154-12.24-12.976-22.003-22.339-27.691
				C182.156,93.013,193.28,102.917,200.477,115.777z M131.027,88.086c-9.363,5.688-17.185,15.451-22.339,27.691h-9.174
				C106.711,102.917,117.835,93.013,131.027,88.086z M98.42,117.831h9.427c-3.602,9.284-5.683,19.885-5.804,31.143H90.736
				C90.895,137.669,93.668,127.057,98.42,117.831z M90.736,151.029h11.306c0.121,11.258,2.203,21.859,5.804,31.142H98.42
				C93.668,172.946,90.895,162.334,90.736,151.029z M99.514,184.226h9.174c5.154,12.24,12.976,22.003,22.339,27.691
				C117.835,206.99,106.711,197.085,99.514,184.226z M168.964,211.917c9.363-5.688,17.185-15.451,22.339-27.691h9.174
				C193.28,197.085,182.156,206.99,168.964,211.917z M201.571,182.171h-9.427c3.602-9.283,5.683-19.885,5.804-31.142h11.306
				C209.095,162.334,206.323,172.946,201.571,182.171z M216.385,148.973h-5.075c-0.154-11.259-2.815-21.861-7.417-31.138h4.202
				c-0.38-0.688-0.781-1.377-1.192-2.055h-4.089c-6.39-11.876-15.985-21.419-27.481-27.162c-7.725-3.883-16.303-6.041-25.333-6.041
				c-9.051,0-17.659,2.168-25.395,6.061c-11.465,5.753-21.05,15.286-27.429,27.142h-4.078c-0.411,0.678-0.812,1.366-1.192,2.055
				h4.202c-4.613,9.277-7.273,19.878-7.427,31.138h-5.065c-0.01,0.339-0.01,0.688-0.01,1.027s0,0.688,0.01,1.027h5.065
				c0.154,11.259,2.815,21.861,7.427,31.148h-4.192c0.37,0.699,0.77,1.377,1.182,2.055h4.078
				c6.39,11.865,15.985,21.399,27.47,27.152c7.725,3.883,16.314,6.041,25.354,6.041c9.02,0,17.577-2.157,25.293-6.02
				c11.516-5.743,21.132-15.297,27.521-27.172h4.089c0.411-0.678,0.802-1.356,1.182-2.055h-4.192
				c4.602-9.287,7.263-19.889,7.417-31.148h5.075c0.01-0.339,0.01-0.688,0.01-1.027S216.395,149.312,216.385,148.973z"/>
		</g>
		<g>
			<path fill="#F7F7F7" d="M146.284,215.137c-3.245-3.545-6.813-10.707-9.479-17.827c-1.188-3.171-2.679-7.618-4.076-13.084h-21.834
				C118.375,201.481,131.329,213.424,146.284,215.137z"/>
			<path fill="#E5E5E5" d="M168.964,88.086c9.363,5.688,17.185,15.451,22.339,27.691h9.174
				C193.28,102.917,182.156,93.013,168.964,88.086z"/>
			<path fill="#E5E5E5" d="M149.995,215.369c2.596,0,10.2-12.298,15.126-31.143H134.87
				C139.795,203.07,147.399,215.369,149.995,215.369z"/>
			<path fill="#A5A5A5" d="M189.095,184.226h-21.834c-1.397,5.466-2.888,9.913-4.076,13.084c-2.666,7.12-6.234,14.281-9.479,17.827
				C168.662,213.424,181.616,201.481,189.095,184.226z"/>
			<path fill="#E5E5E5" d="M189.943,117.831h-22.177c2.028,8.47,3.73,19.119,3.824,31.143h24.305
				C195.771,137.669,193.623,127.057,189.943,117.831z"/>
			<path fill="#F7F7F7" d="M203.892,182.175h4.192c5.137-9.246,8.136-19.858,8.301-31.148h-5.075
				C211.156,162.287,208.495,172.889,203.892,182.175z"/>
			<path fill="#F7F7F7" d="M195.894,151.029H171.59c-0.094,12.023-1.796,22.672-3.824,31.142h22.177
				C193.623,172.946,195.771,162.334,195.894,151.029z"/>
			<path fill="#E5E5E5" d="M110.048,182.171h22.177c-2.028-8.47-3.73-19.119-3.824-31.142h-24.305
				C104.22,162.334,106.368,172.946,110.048,182.171z"/>
			<path fill="#E5E5E5" d="M134.356,182.171h31.279c2.241-9.159,3.812-19.743,3.902-31.142h-39.083
				C130.544,162.429,132.115,173.012,134.356,182.171z"/>
			<path fill="#F7F7F7" d="M165.635,117.831h-31.279c-2.241,9.159-3.812,19.743-3.902,31.143h39.083
				C169.447,137.574,167.876,126.991,165.635,117.831z"/>
			<path fill="#E5E5E5" d="M211.31,148.973h5.075c-0.165-11.29-3.154-21.892-8.29-31.138h-4.202
				C208.495,127.111,211.156,137.713,211.31,148.973z"/>
			<path fill="#E5E5E5" d="M110.895,115.777h21.834c1.397-5.466,2.888-9.913,4.076-13.084c2.666-7.12,6.234-14.281,9.479-17.827
				C131.329,86.579,118.375,98.522,110.895,115.777z"/>
			<path fill="#E5E5E5" d="M149.995,84.634c-2.596,0-10.2,12.298-15.125,31.143h30.251
				C160.196,96.932,152.592,84.634,149.995,84.634z"/>
			<path fill="#A5A5A5" d="M153.707,84.866c3.245,3.545,6.813,10.707,9.479,17.827c1.188,3.171,2.679,7.618,4.076,13.084h21.834
				C181.615,98.522,168.662,86.579,153.707,84.866z"/>
			<path fill="#CECECE" d="M104.097,148.974h24.305c0.094-12.023,1.796-22.672,3.824-31.143h-22.177
				C106.368,127.057,104.22,137.669,104.097,148.974z"/>
			<path fill="#E5E5E5" d="M96.107,117.835h-4.202c-5.137,9.246-8.126,19.848-8.29,31.138h5.065
				C88.833,137.713,91.494,127.111,96.107,117.835z"/>
			<path fill="#CECECE" d="M88.679,151.027h-5.065c0.164,11.29,3.154,21.902,8.301,31.148h4.192
				C91.494,172.889,88.833,162.287,88.679,151.027z"/>
			<path fill="#E5E5E5" d="M124.605,88.639c-13.18,5.455-24.224,15.04-31.508,27.142h4.078
				C103.555,103.925,113.14,94.392,124.605,88.639z"/>
			<path fill="#E5E5E5" d="M202.814,115.78h4.089c-7.304-12.122-18.368-21.717-31.569-27.162
				C186.829,94.361,196.424,103.905,202.814,115.78z"/>
			<path fill="#E5E5E5" d="M97.175,184.23h-4.078c7.294,12.112,18.348,21.697,31.549,27.152
				C113.16,205.629,103.565,196.096,97.175,184.23z"/>
			<path fill="#E5E5E5" d="M175.292,211.402c13.221-5.445,24.306-15.05,31.61-27.172h-4.089
				C196.424,196.106,186.808,205.66,175.292,211.402z"/>
			<path fill="#E5E5E5" d="M131.027,211.917c-9.363-5.688-17.185-15.451-22.339-27.691h-9.174
				C106.711,197.085,117.835,206.99,131.027,211.917z"/>
			<path fill="#F7F7F7" d="M201.571,117.831h-9.427c3.602,9.284,5.683,19.885,5.804,31.143h11.306
				C209.095,137.669,206.323,127.057,201.571,117.831z"/>
			<path fill="#A5A5A5" d="M90.736,148.974h11.306c0.121-11.258,2.203-21.859,5.804-31.143H98.42
				C93.668,127.057,90.895,137.669,90.736,148.974z"/>
			<path fill="#CECECE" d="M99.514,115.777h9.174c5.154-12.24,12.976-22.003,22.339-27.691
				C117.835,93.013,106.711,102.917,99.514,115.777z"/>
			<path fill="#A5A5A5" d="M98.42,182.171h9.427c-3.602-9.283-5.683-19.885-5.804-31.142H90.736
				C90.895,162.334,93.668,172.946,98.42,182.171z"/>
			<path fill="#CECECE" d="M200.477,184.226h-9.174c-5.154,12.24-12.976,22.003-22.339,27.691
				C182.156,206.99,193.28,197.085,200.477,184.226z"/>
			<path fill="#CECECE" d="M209.255,151.029h-11.306c-0.121,11.258-2.203,21.859-5.804,31.142h9.427
				C206.323,172.946,209.095,162.334,209.255,151.029z"/>
		</g>
	</g>
	<g>
		<path fill="#FBBC4B" d="M79.885,107.564l4.221,1.661c1.245,0.49,1.456,2.162,0.372,2.946l-3.676,2.658l-1.661,4.221
			c-0.49,1.245-2.162,1.456-2.946,0.372l-2.658-3.676l-4.221-1.661c-1.245-0.49-1.456-2.162-0.372-2.946l3.676-2.658l1.661-4.221
			c0.49-1.245,2.162-1.456,2.946-0.372L79.885,107.564z"/>
		<path fill="#FBBC4B" d="M92.881,117.281l0.856,2.322c0.252,0.685-0.352,1.378-1.065,1.221l-2.417-0.532l-2.322,0.856
			c-0.685,0.252-1.378-0.352-1.221-1.065l0.532-2.417l-0.856-2.322c-0.252-0.685,0.352-1.378,1.065-1.221l2.417,0.532l2.322-0.856
			c0.685-0.252,1.378,0.352,1.221,1.065L92.881,117.281z"/>
		<path fill="#FBBC4B" d="M195.854,144.092l2.184-0.518c0.644-0.153,1.202,0.467,0.984,1.092l-0.742,2.119l0.518,2.184
			c0.153,0.644-0.467,1.202-1.092,0.984l-2.119-0.742l-2.184,0.518c-0.644,0.153-1.202-0.467-0.984-1.092l0.742-2.119l-0.518-2.184
			c-0.153-0.644,0.467-1.202,1.092-0.984L195.854,144.092z"/>
		<path fill="#FBBC4B" d="M186.986,137.216l2.132-1.99c0.629-0.587,1.658-0.247,1.813,0.6l0.525,2.869l1.99,2.132
			c0.587,0.629,0.247,1.658-0.6,1.813l-2.869,0.525l-2.132,1.99c-0.629,0.587-1.658,0.247-1.813-0.6l-0.525-2.869l-1.99-2.132
			c-0.587-0.629-0.247-1.658,0.6-1.813L186.986,137.216z"/>
		<path fill="#FBBC4B" d="M101.136,130.746l0.356,2.945c0.105,0.868-0.791,1.509-1.579,1.129l-2.671-1.289l-2.945,0.356
			c-0.868,0.105-1.509-0.791-1.129-1.579l1.289-2.671l-0.356-2.945c-0.105-0.868,0.791-1.509,1.579-1.129l2.671,1.289l2.945-0.356
			c0.868-0.105,1.509,0.791,1.129,1.579L101.136,130.746z"/>
		<path fill="#FBBC4B" d="M209.04,91.028l2.38-1.892c0.702-0.558,1.743-0.119,1.834,0.773l0.309,3.025l1.892,2.38
			c0.558,0.702,0.119,1.743-0.773,1.834l-3.025,0.309l-2.38,1.892c-0.702,0.558-1.743,0.119-1.834-0.773l-0.309-3.025l-1.892-2.38
			c-0.558-0.702-0.119-1.743,0.773-1.834L209.04,91.028z"/>
		<path fill="#FBBC4B" d="M218.235,102.239l2.059-0.589c0.607-0.174,1.166,0.393,0.985,0.998l-0.615,2.052l0.589,2.059
			c0.174,0.607-0.393,1.166-0.998,0.985l-2.052-0.615l-2.059,0.589c-0.607,0.174-1.166-0.393-0.985-0.998l0.615-2.052l-0.589-2.059
			c-0.174-0.607,0.393-1.166,0.998-0.985L218.235,102.239z"/>
	</g>
</g>
</svg>
