<?xml version="1.0" encoding="utf-8"?>
<!-- Generator: Adobe Illustrator 23.0.0, SVG Export Plug-In . SVG Version: 6.00 Build 0)  -->
<svg version="1.0" id="Camada_1" xmlns="http://www.w3.org/2000/svg" xmlns:xlink="http://www.w3.org/1999/xlink" x="0px" y="0px"
	 viewBox="0 0 300 300" enable-background="new 0 0 300 300" xml:space="preserve">
<ellipse fill="#FFFFFF" cx="150" cy="150" rx="149.957" ry="149.957"/>
<circle fill="#EB595B" cx="150" cy="150" r="140.772"/>
<path fill="#FFB031" d="M89.766,221.404"/>
<path fill="#3F3F3F" d="M245.378,183.602H53.853c-3.166,0-5.732-2.566-5.732-5.732v-71.513c0-1.475,1.196-2.671,2.671-2.671h197.648
	c1.475,0,2.671,1.196,2.671,2.671v71.513C251.11,181.036,248.544,183.602,245.378,183.602z"/>
<path fill="#494949" d="M251.861,107.087v61.672c0,4.037-5.037,7.296-11.236,7.296H60.112c-6.217,0-11.236-3.259-11.236-7.296
	v-61.672c0-1.881,2.343-3.402,5.221-3.402h192.524C249.518,103.685,251.861,105.206,251.861,107.087z"/>
<path fill="#FFB031" d="M169.156,191.517"/>
<g>
	<g>
		<path fill="#3D3D3D" d="M61.998,116.453h83.088v64.725H61.998L61.998,116.453z"/>
		<path fill="#E2E2E2" d="M70.32,187.662h-8.755c-2.204,0-3.99-1.786-3.99-3.99l0,0v-67.219h16.735v67.219
			C74.311,185.876,72.524,187.662,70.32,187.662L70.32,187.662z"/>
		<path fill="#FFFFFF" d="M70.32,181.177h-8.755c-2.204,0-3.99-1.786-3.99-3.99l0,0v-60.734h16.735v60.734
			C74.311,179.391,72.524,181.177,70.32,181.177L70.32,181.177z"/>
		<path fill="#E2E2E2" d="M89.12,187.662h-8.755c-2.204,0-3.99-1.786-3.99-3.99l0,0v-67.219H93.11v67.219
			C93.11,185.876,91.323,187.662,89.12,187.662L89.12,187.662z"/>
		<path fill="#FFFFFF" d="M89.12,181.177h-8.755c-2.204,0-3.99-1.786-3.99-3.99l0,0v-60.734H93.11v60.734
			C93.11,179.391,91.323,181.177,89.12,181.177L89.12,181.177z"/>
		<path fill="#E2E2E2" d="M107.919,187.662h-8.755c-2.204,0-3.99-1.786-3.99-3.99l0,0v-67.219h16.735v67.219
			C111.909,185.876,110.123,187.662,107.919,187.662L107.919,187.662z"/>
		<path fill="#FFFFFF" d="M107.919,181.177h-8.755c-2.204,0-3.99-1.786-3.99-3.99l0,0v-60.734h16.735v60.734
			C111.909,179.391,110.123,181.177,107.919,181.177L107.919,181.177z"/>
		<path fill="#E2E2E2" d="M126.718,187.662h-8.755c-2.204,0-3.99-1.786-3.99-3.99l0,0v-67.219h16.735v67.219
			C130.708,185.876,128.922,187.662,126.718,187.662L126.718,187.662z"/>
		<path fill="#FFFFFF" d="M126.718,181.177h-8.755c-2.204,0-3.99-1.786-3.99-3.99l0,0v-60.734h16.735v60.734
			C130.708,179.391,128.922,181.177,126.718,181.177L126.718,181.177z"/>
		<g>
			<path fill="#E2E2E2" d="M145.517,187.662h-8.755c-2.204,0-3.99-1.786-3.99-3.99l0,0v-67.219h16.735v67.219
				C149.507,185.876,147.721,187.662,145.517,187.662L145.517,187.662z"/>
			<path fill="#FFFFFF" d="M145.517,181.177h-8.755c-2.204,0-3.99-1.786-3.99-3.99l0,0v-60.734h16.735v60.734
				C149.507,179.391,147.721,181.177,145.517,181.177L145.517,181.177z"/>
		</g>
		<g>
			<path fill="#4C4C4C" d="M77.769,159.061h-4.852c-1.823,0-3.301-1.478-3.301-3.301v-30.783H81.07v30.783
				C81.07,157.583,79.592,159.061,77.769,159.061z"/>
			<path fill="#565656" d="M77.769,152.577h-4.852c-1.823,0-3.301-1.478-3.301-3.301v-32.822H81.07v32.822
				C81.07,151.099,79.592,152.577,77.769,152.577z"/>
		</g>
		<g>
			<path fill="#4C4C4C" d="M96.568,159.061h-4.852c-1.823,0-3.301-1.478-3.301-3.301v-30.783h11.455v30.783
				C99.869,157.583,98.391,159.061,96.568,159.061L96.568,159.061z"/>
			<path fill="#565656" d="M96.568,152.577h-4.852c-1.823,0-3.301-1.478-3.301-3.301v-32.822h11.455v32.822
				C99.869,151.099,98.391,152.577,96.568,152.577L96.568,152.577z"/>
		</g>
		<g>
			<path fill="#4C4C4C" d="M134.166,159.061h-4.852c-1.823,0-3.301-1.478-3.301-3.301v-30.783h11.455v30.783
				C137.468,157.583,135.99,159.061,134.166,159.061L134.166,159.061z"/>
			<path fill="#565656" d="M134.166,152.577h-4.852c-1.823,0-3.301-1.478-3.301-3.301v-32.822h11.455v32.822
				C137.468,151.099,135.99,152.577,134.166,152.577L134.166,152.577z"/>
		</g>
	</g>
	<g>
		<path fill="#3D3D3D" d="M155.652,116.453h83.088v64.725h-83.088L155.652,116.453z"/>
		<path fill="#E2E2E2" d="M163.974,187.662h-8.755c-2.204,0-3.99-1.786-3.99-3.99l0,0v-67.219h16.735v67.219
			C167.965,185.876,166.178,187.662,163.974,187.662L163.974,187.662z"/>
		<path fill="#FFFFFF" d="M163.974,181.177h-8.755c-2.204,0-3.99-1.786-3.99-3.99l0,0v-60.734h16.735v60.734
			C167.965,179.391,166.178,181.177,163.974,181.177L163.974,181.177z"/>
		<path fill="#E2E2E2" d="M182.774,187.662h-8.755c-2.204,0-3.99-1.786-3.99-3.99l0,0v-67.219h16.735v67.219
			C186.764,185.876,184.977,187.662,182.774,187.662L182.774,187.662z"/>
		<path fill="#FFFFFF" d="M182.774,181.177h-8.755c-2.204,0-3.99-1.786-3.99-3.99l0,0v-60.734h16.735v60.734
			C186.764,179.391,184.977,181.177,182.774,181.177L182.774,181.177z"/>
		<path fill="#E2E2E2" d="M201.573,187.662h-8.755c-2.204,0-3.99-1.786-3.99-3.99l0,0v-67.219h16.735v67.219
			C205.563,185.876,203.777,187.662,201.573,187.662L201.573,187.662z"/>
		<path fill="#FFFFFF" d="M201.573,181.177h-8.755c-2.204,0-3.99-1.786-3.99-3.99l0,0v-60.734h16.735v60.734
			C205.563,179.391,203.777,181.177,201.573,181.177L201.573,181.177z"/>
		<path fill="#E2E2E2" d="M220.372,187.662h-8.755c-2.204,0-3.99-1.786-3.99-3.99l0,0v-67.219h16.735v67.219
			C224.362,185.876,222.576,187.662,220.372,187.662L220.372,187.662z"/>
		<path fill="#FFFFFF" d="M220.372,181.177h-8.755c-2.204,0-3.99-1.786-3.99-3.99l0,0v-60.734h16.735v60.734
			C224.362,179.391,222.576,181.177,220.372,181.177L220.372,181.177z"/>
		<g>
			<path fill="#E2E2E2" d="M239.171,187.662h-8.755c-2.204,0-3.99-1.786-3.99-3.99l0,0v-67.219h16.735v67.219
				C243.162,185.876,241.375,187.662,239.171,187.662L239.171,187.662z"/>
			<path fill="#FFFFFF" d="M239.171,181.177h-8.755c-2.204,0-3.99-1.786-3.99-3.99l0,0v-60.734h16.735v60.734
				C243.162,179.391,241.375,181.177,239.171,181.177L239.171,181.177z"/>
		</g>
		<g>
			<path fill="#4C4C4C" d="M171.423,159.061h-4.852c-1.823,0-3.301-1.478-3.301-3.301v-30.783h11.455v30.783
				C174.724,157.583,173.246,159.061,171.423,159.061z"/>
			<path fill="#565656" d="M171.423,152.577h-4.852c-1.823,0-3.301-1.478-3.301-3.301v-32.822h11.455v32.822
				C174.724,151.099,173.246,152.577,171.423,152.577z"/>
		</g>
		<g>
			<path fill="#4C4C4C" d="M190.222,159.061h-4.852c-1.823,0-3.301-1.478-3.301-3.301v-30.783h11.455v30.783
				C193.523,157.583,192.045,159.061,190.222,159.061L190.222,159.061z"/>
			<path fill="#565656" d="M190.222,152.577h-4.852c-1.823,0-3.301-1.478-3.301-3.301v-32.822h11.455v32.822
				C193.523,151.099,192.045,152.577,190.222,152.577L190.222,152.577z"/>
		</g>
		<g>
			<path fill="#4C4C4C" d="M227.821,159.061h-4.852c-1.823,0-3.301-1.478-3.301-3.301v-30.783h11.455v30.783
				C231.122,157.583,229.644,159.061,227.821,159.061L227.821,159.061z"/>
			<path fill="#565656" d="M227.821,152.577h-4.852c-1.823,0-3.301-1.478-3.301-3.301v-32.822h11.455v32.822
				C231.122,151.099,229.644,152.577,227.821,152.577L227.821,152.577z"/>
		</g>
	</g>
</g>
<path fill="#F7BC6D" d="M148.106,166.516c-1.935-1.47-3.22,0.298-3.22,0.298l-2.952,4.491c-1.13,1.719-2.747,3.062-4.644,3.858
	l-0.66,0.277l2.652-15.958c0.145-1.548,0.204-3.104,0.177-4.658l0-0.01l-0.001,0c-0.027-1.522-0.136-3.041-0.328-4.55l-0.702-5.518
	c-0.245-1.93-1.699-3.485-3.608-3.859c-2.782-0.546-5.373,1.579-5.383,4.413l-0.01,2.908c-0.011,3.074-0.459,6.131-1.33,9.079
	l-2.853,12.421l-1.226,1.009c-1.175,0.626-2.629,0.337-3.475-0.691l0.064-14.55l1.753-3.998c1.297-2.895-0.438-6.243-3.55-6.853
	c-2.252-0.442-4.511,0.728-5.449,2.822l-2.721,6.073l-0.701,2.721l-0.933,11.521l-0.957-0.188l0.632-12.272l1.199-4.206
	c0.869-3.05-1.325-6.115-4.493-6.275c-2.292-0.115-4.36,1.366-4.99,3.573l-1.824,6.399l-0.305,2.794l-0.862,7.899l-0.018-0.004
	l-1.07-1.43l-1.147-4.188l0.727-5.128c0.569-3.1-0.377-4.793-3.135-4.746c-1.995,0.034-3.7,1.647-4.111,3.89l-1.193,6.504
	l-0.128,3.356l0.003,0.055l-0.857,28.482c-0.217,7.208,4.815,13.514,11.891,14.903l14.566,2.859
	c7.407,1.454,14.714-2.924,16.927-10.141l0.708-2.431l8.98-10.687c0.233-0.277,0.48-0.542,0.741-0.794l2.723-2.625
	c0.217-0.209,0.424-0.427,0.622-0.654l1.558-1.789c0.739-0.848,1.332-1.806,1.761-2.846c0.943-2.288,2.609-6.331,2.81-6.848
	C150.048,170.495,150.041,167.985,148.106,166.516z"/>
<path fill="#F7BC6D" d="M222.756,172.793c-2.639-0.802-5.45,1.428-5.754,4.565l-0.42,4.326l-0.611,1.2l-1.915,3.537l-0.019-0.001
	l1.34-7.833l0.474-2.77l0.003-6.654c0.001-2.295-1.582-4.287-3.817-4.805c-3.09-0.716-6.042,1.629-6.043,4.801l-0.002,4.373
	l-2.762,11.974l-0.971-0.082l2.266-11.334l0.073-2.809l-0.949-6.587c-0.327-2.271-2.178-4.017-4.465-4.21
	c-3.16-0.267-5.747,2.476-5.295,5.615l0.588,4.326l-3.933,14.009c-1.096,0.756-2.573,0.635-3.531-0.289l-0.01-0.01l-0.225-14.023
	c-0.029-3.074,0.38-6.136,1.214-9.095l0.789-2.799c0.769-2.728-1.139-5.483-3.964-5.721c-1.938-0.164-3.763,0.932-4.529,2.72
	l-2.19,5.114c-0.599,1.399-1.121,2.83-1.565,4.285l-0.001,0l-0.002,0.009c-0.453,1.488-0.823,2.999-1.109,4.528v0l-1.729,18.203
	c-1.583-1.282-2.754-3.002-3.363-4.947l-0.529-4.993c0,0-1.828-2.189-4.092-1.307c-2.264,0.882-2.96,3.293-2.887,4.069
	c0.052,0.552,0.543,4.897,0.822,7.356c0.127,1.117,0.434,2.202,0.912,3.22l1.007,2.148c0.128,0.273,0.268,0.54,0.419,0.8
	l1.898,3.272c0.182,0.313,0.347,0.636,0.495,0.967l5.026,11.235l-0.016,1.426c0.146,7.547,5.971,13.763,13.492,14.399l14.792,1.25
	c7.186,0.607,13.755-4.075,15.526-11.065l6.996-27.623l0.018-0.052l0.798-3.262l0.638-6.582
	C225.862,175.392,224.665,173.373,222.756,172.793z"/>
<path fill="#494949" d="M251.879,88.629v28.708H48.221V88.629c0-1.478,2.351-2.673,5.239-2.673h193.162
	C249.528,85.956,251.879,87.151,251.879,88.629z"/>
</svg>
