<svg xmlns="http://www.w3.org/2000/svg" viewBox="0 0 300 300"><path fill="#fff" d="M149.999 300C67.29 300 0 232.71 0 150S67.29 0 149.999 0c82.711 0 150 67.29 150 150 .001 82.71-67.289 150-150 150"/><path fill="#fbbc4b" d="M290.812 150c0 77.768-63.044 140.811-140.812 140.811S9.188 227.768 9.188 150 72.232 9.188 150 9.188 290.812 72.231 290.812 150"/><path fill="#efefef" d="M168.039 189.205c1.575 2.281.772 5.453-1.725 6.659-3.148 1.521-8.306 3.052-16.314 3.052s-13.166-1.531-16.314-3.052c-2.497-1.206-3.301-4.377-1.725-6.659l9.396-13.607h17.286z"/><path fill="#e8e8e8" d="M132.402 100.547c8.165 8.166 0 34.615 0 34.615s-4.59 21.835-17.523 21.835c-41.462 0-65.532-60.455-56.522-69.466 9.962-9.96 32.938 13.016 74.045 13.016zm35.196 0c-8.165 8.166 0 34.615 0 34.615s4.59 21.835 17.523 21.835c41.462 0 65.532-60.455 56.522-69.466-9.962-9.96-32.938 13.016-74.045 13.016z"/><path fill="#efefef" d="M169.297 83.55a19.926 19.926 0 0 0-.087-2.241c-.857-8.992-8.039-16.299-17.017-17.288C140.551 62.739 130.7 71.819 130.7 83.2c0 .261.005.52.016.779.347 8.726-2.424 17.215-7.175 24.542a31.344 31.344 0 0 0-5.048 17.107c0 17.401 14.106 54.04 31.506 54.04 17.401 0 31.506-36.64 31.506-54.04a31.335 31.335 0 0 0-5.239-17.398c-4.851-7.307-7.125-15.909-6.969-24.68"/><path fill="#e5e5e5" d="M174.691 128.066c0 13.637-11.055 42.35-24.691 42.35s-24.691-28.713-24.691-42.35c0-13.636 11.055-24.691 24.691-24.691s24.691 11.055 24.691 24.691z"/><path fill="#fae040" d="M149.458 95.649l-5.327-6.939c-.646-.841-.567-2.047.211-2.767 3.379-3.124 7.937-3.124 11.316 0 .778.72.857 1.925.211 2.767l-5.327 6.939a.684.684 0 0 1-1.084 0z"/><path fill="#eacc35" d="M150.725 93.76c-.365.356-1.084.356-1.45 0l-5.03-4.901 5.213 6.79a.684.684 0 0 0 1.084 0l5.213-6.79z"/><path fill="#3f3f3f" d="M177.351 230.176h-54.702a7.066 7.066 0 0 1-7.066-7.066v-51.387a3.292 3.292 0 0 1 3.292-3.292h62.249a3.292 3.292 0 0 1 3.292 3.292v51.387a7.065 7.065 0 0 1-7.065 7.066"/><path fill="#494949" d="M177.351 225.132h-54.702a7.066 7.066 0 0 1-7.066-7.065v-46.345a3.292 3.292 0 0 1 3.292-3.292h62.249a3.292 3.292 0 0 1 3.292 3.292v46.345a7.065 7.065 0 0 1-7.065 7.065"/><path fill="#3d3d3d" d="M144.995 207.985h10.009v22.191h-10.009z"/><path fill="#e2e2e2" d="M143.049 235.207h-8.879a6.2 6.2 0 0 1-6.2-6.2v-49.05h21.28v49.05a6.2 6.2 0 0 1-6.201 6.2"/><path fill="#fff" d="M143.049 230.176h-8.879a6.2 6.2 0 0 1-6.2-6.201v-44.018h21.28v44.018a6.2 6.2 0 0 1-6.201 6.201"/><path fill="#e2e2e2" d="M165.83 235.207h-8.879a6.2 6.2 0 0 1-6.201-6.2v-49.05h21.28v49.05a6.199 6.199 0 0 1-6.2 6.2"/><path fill="#fff" d="M165.83 230.176h-8.879a6.2 6.2 0 0 1-6.201-6.201v-44.018h21.28v44.018a6.2 6.2 0 0 1-6.2 6.201"/><path fill="#4c4c4c" d="M151.55 213.016h-3.101a4.784 4.784 0 0 1-4.784-4.784V186.57h12.669v21.662a4.784 4.784 0 0 1-4.784 4.784z"/><path fill="#565656" d="M151.55 207.985h-3.101a4.785 4.785 0 0 1-4.784-4.785v-23.243h12.669V203.2a4.784 4.784 0 0 1-4.784 4.785"/><path fill="#444" d="M182.408 172.28h-64.816a2.008 2.008 0 0 0-2.009 2.007v9.517h12.386v-3.848h44.061v3.848h12.386v-9.517a2.008 2.008 0 0 0-2.008-2.007"/><path fill="#ededed" d="M143.666 179.957h-15.697v3.848h15.697zm28.365 0h-15.697v3.848h15.697z"/><path fill="#505050" d="M156.334 179.957h-12.668v3.848h12.668z"/><path fill="#494949" d="M115.584 179.957v-9.518c0-1.109.899-2.007 2.009-2.007h64.816c1.109 0 2.009.899 2.009 2.007v9.518z"/></svg>