<svg xmlns="http://www.w3.org/2000/svg" version="1.0" viewBox="0 0 300 300"><circle cx="150" cy="150" r="149.957" fill="#FFF"/><circle cx="150" cy="150" r="140.772" fill="#EB595B"/><path fill="#3F3F3F" d="M245.378 183.602H53.853a5.732 5.732 0 01-5.732-5.732v-71.513a2.671 2.671 0 012.671-2.671H248.44a2.671 2.671 0 012.671 2.671v71.513a5.733 5.733 0 01-5.733 5.732z"/><path fill="#494949" d="M251.861 107.087v61.672c0 4.037-5.037 7.296-11.236 7.296H60.112c-6.217 0-11.236-3.259-11.236-7.296v-61.672c0-1.881 2.343-3.402 5.221-3.402h192.524c2.897 0 5.24 1.521 5.24 3.402z"/><path fill="#3D3D3D" d="M61.998 116.453h83.088v64.725H61.998v-64.725z"/><path fill="#E2E2E2" d="M70.32 187.662h-8.755a3.99 3.99 0 01-3.99-3.99v-67.219H74.31v67.219a3.989 3.989 0 01-3.99 3.99z"/><path fill="#FFF" d="M70.32 181.177h-8.755a3.99 3.99 0 01-3.99-3.99v-60.734H74.31v60.734a3.989 3.989 0 01-3.99 3.99z"/><path fill="#E2E2E2" d="M89.12 187.662h-8.755a3.99 3.99 0 01-3.99-3.99v-67.219H93.11v67.219a3.99 3.99 0 01-3.99 3.99z"/><path fill="#FFF" d="M89.12 181.177h-8.755a3.99 3.99 0 01-3.99-3.99v-60.734H93.11v60.734a3.99 3.99 0 01-3.99 3.99z"/><path fill="#E2E2E2" d="M107.919 187.662h-8.755a3.99 3.99 0 01-3.99-3.99v-67.219h16.735v67.219a3.99 3.99 0 01-3.99 3.99z"/><path fill="#FFF" d="M107.919 181.177h-8.755a3.99 3.99 0 01-3.99-3.99v-60.734h16.735v60.734a3.99 3.99 0 01-3.99 3.99z"/><path fill="#E2E2E2" d="M126.718 187.662h-8.755a3.99 3.99 0 01-3.99-3.99v-67.219h16.735v67.219a3.99 3.99 0 01-3.99 3.99z"/><path fill="#FFF" d="M126.718 181.177h-8.755a3.99 3.99 0 01-3.99-3.99v-60.734h16.735v60.734a3.99 3.99 0 01-3.99 3.99z"/><path fill="#E2E2E2" d="M145.517 187.662h-8.755a3.99 3.99 0 01-3.99-3.99v-67.219h16.735v67.219a3.99 3.99 0 01-3.99 3.99z"/><path fill="#FFF" d="M145.517 181.177h-8.755a3.99 3.99 0 01-3.99-3.99v-60.734h16.735v60.734a3.99 3.99 0 01-3.99 3.99z"/><path fill="#4C4C4C" d="M77.769 159.061h-4.852a3.301 3.301 0 01-3.301-3.301v-30.783H81.07v30.783a3.301 3.301 0 01-3.301 3.301z"/><path fill="#565656" d="M77.769 152.577h-4.852a3.301 3.301 0 01-3.301-3.301v-32.822H81.07v32.822a3.301 3.301 0 01-3.301 3.301z"/><path fill="#4C4C4C" d="M96.568 159.061h-4.852a3.301 3.301 0 01-3.301-3.301v-30.783H99.87v30.783a3.303 3.303 0 01-3.302 3.301z"/><path fill="#565656" d="M96.568 152.577h-4.852a3.301 3.301 0 01-3.301-3.301v-32.822H99.87v32.822a3.303 3.303 0 01-3.302 3.301z"/><path fill="#4C4C4C" d="M134.166 159.061h-4.852a3.301 3.301 0 01-3.301-3.301v-30.783h11.455v30.783a3.301 3.301 0 01-3.302 3.301z"/><path fill="#565656" d="M134.166 152.577h-4.852a3.301 3.301 0 01-3.301-3.301v-32.822h11.455v32.822a3.301 3.301 0 01-3.302 3.301z"/><path fill="#3D3D3D" d="M155.652 116.453h83.088v64.725h-83.088v-64.725z"/><path fill="#E2E2E2" d="M163.974 187.662h-8.755a3.99 3.99 0 01-3.99-3.99v-67.219h16.735v67.219a3.989 3.989 0 01-3.99 3.99z"/><path fill="#FFF" d="M163.974 181.177h-8.755a3.99 3.99 0 01-3.99-3.99v-60.734h16.735v60.734a3.989 3.989 0 01-3.99 3.99z"/><path fill="#E2E2E2" d="M182.774 187.662h-8.755a3.99 3.99 0 01-3.99-3.99v-67.219h16.735v67.219a3.99 3.99 0 01-3.99 3.99z"/><path fill="#FFF" d="M182.774 181.177h-8.755a3.99 3.99 0 01-3.99-3.99v-60.734h16.735v60.734a3.99 3.99 0 01-3.99 3.99z"/><path fill="#E2E2E2" d="M201.573 187.662h-8.755a3.99 3.99 0 01-3.99-3.99v-67.219h16.735v67.219a3.99 3.99 0 01-3.99 3.99z"/><path fill="#FFF" d="M201.573 181.177h-8.755a3.99 3.99 0 01-3.99-3.99v-60.734h16.735v60.734a3.99 3.99 0 01-3.99 3.99z"/><path fill="#E2E2E2" d="M220.372 187.662h-8.755a3.99 3.99 0 01-3.99-3.99v-67.219h16.735v67.219a3.99 3.99 0 01-3.99 3.99z"/><path fill="#FFF" d="M220.372 181.177h-8.755a3.99 3.99 0 01-3.99-3.99v-60.734h16.735v60.734a3.99 3.99 0 01-3.99 3.99z"/><path fill="#E2E2E2" d="M239.171 187.662h-8.755a3.99 3.99 0 01-3.99-3.99v-67.219h16.735v67.219a3.989 3.989 0 01-3.99 3.99z"/><path fill="#FFF" d="M239.171 181.177h-8.755a3.99 3.99 0 01-3.99-3.99v-60.734h16.735v60.734a3.989 3.989 0 01-3.99 3.99z"/><path fill="#4C4C4C" d="M171.423 159.061h-4.852a3.301 3.301 0 01-3.301-3.301v-30.783h11.455v30.783a3.303 3.303 0 01-3.302 3.301z"/><path fill="#565656" d="M171.423 152.577h-4.852a3.301 3.301 0 01-3.301-3.301v-32.822h11.455v32.822a3.303 3.303 0 01-3.302 3.301z"/><path fill="#4C4C4C" d="M190.222 159.061h-4.852a3.301 3.301 0 01-3.301-3.301v-30.783h11.455v30.783a3.303 3.303 0 01-3.302 3.301z"/><path fill="#565656" d="M190.222 152.577h-4.852a3.301 3.301 0 01-3.301-3.301v-32.822h11.455v32.822a3.303 3.303 0 01-3.302 3.301z"/><path fill="#4C4C4C" d="M227.821 159.061h-4.852a3.301 3.301 0 01-3.301-3.301v-30.783h11.455v30.783a3.303 3.303 0 01-3.302 3.301z"/><path fill="#565656" d="M227.821 152.577h-4.852a3.301 3.301 0 01-3.301-3.301v-32.822h11.455v32.822a3.303 3.303 0 01-3.302 3.301z"/><path fill="#F7BC6D" d="M148.106 166.516c-1.935-1.47-3.22.298-3.22.298l-2.952 4.491a10.35 10.35 0 01-4.644 3.858l-.66.277 2.652-15.958c.145-1.548.204-3.104.177-4.658v-.01h-.001a41.943 41.943 0 00-.328-4.55l-.702-5.518a4.514 4.514 0 00-8.991.554l-.01 2.908a32.453 32.453 0 01-1.33 9.079l-2.853 12.421-1.226 1.009a2.797 2.797 0 01-3.475-.691l.064-14.55 1.753-3.998c1.297-2.895-.438-6.243-3.55-6.853a4.93 4.93 0 00-5.449 2.822l-2.721 6.073-.701 2.721-.933 11.521-.957-.188.632-12.272 1.199-4.206c.869-3.05-1.325-6.115-4.493-6.275a4.932 4.932 0 00-4.99 3.573l-1.824 6.399-.305 2.794-.862 7.899-.018-.004-1.07-1.43-1.147-4.188.727-5.128c.569-3.1-.377-4.793-3.135-4.746-1.995.034-3.7 1.647-4.111 3.89l-1.193 6.504-.128 3.356.003.055-.857 28.482a14.736 14.736 0 0011.891 14.903l14.566 2.859c7.407 1.454 14.714-2.924 16.927-10.141l.708-2.431 8.98-10.687c.233-.277.48-.542.741-.794l2.723-2.625c.217-.209.424-.427.622-.654l1.558-1.789a10.307 10.307 0 001.761-2.846c.943-2.288 2.609-6.331 2.81-6.848.284-.729.277-3.239-1.658-4.708zm74.65 6.277c-2.639-.802-5.45 1.428-5.754 4.565l-.42 4.326-.611 1.2-1.915 3.537-.019-.001 1.34-7.833.474-2.77.003-6.654a4.93 4.93 0 00-3.817-4.805c-3.09-.716-6.042 1.629-6.043 4.801l-.002 4.373-2.762 11.974-.971-.082 2.266-11.334.073-2.809-.949-6.587a4.93 4.93 0 00-4.465-4.21c-3.16-.267-5.747 2.476-5.295 5.615l.588 4.326-3.933 14.009a2.798 2.798 0 01-3.531-.289l-.01-.01-.225-14.023a32.398 32.398 0 011.214-9.095l.789-2.799a4.513 4.513 0 00-8.493-3.001l-2.19 5.114a42.122 42.122 0 00-1.565 4.285h-.001l-.002.009a42.16 42.16 0 00-1.109 4.528l-1.729 18.203a10.344 10.344 0 01-3.363-4.947l-.529-4.993s-1.828-2.189-4.092-1.307c-2.264.882-2.96 3.293-2.887 4.069.052.552.543 4.897.822 7.356.127 1.117.434 2.202.912 3.22l1.007 2.148c.128.273.268.54.419.8l1.898 3.272c.182.313.347.636.495.967l5.026 11.235-.016 1.426c.146 7.547 5.971 13.763 13.492 14.399l14.792 1.25a14.737 14.737 0 0015.526-11.065l6.996-27.623.018-.052.798-3.262.638-6.582c.218-2.275-.979-4.294-2.888-4.874z"/><path fill="#494949" d="M251.879 88.629v28.708H48.221V88.629c0-1.478 2.351-2.673 5.239-2.673h193.162c2.906 0 5.257 1.195 5.257 2.673z"/></svg>