<?xml version="1.0" encoding="utf-8"?>
<!-- Generator: Adobe Illustrator 26.0.0, SVG Export Plug-In . SVG Version: 6.00 Build 0)  -->
<svg version="1.0" id="Camada_1" xmlns="http://www.w3.org/2000/svg" xmlns:xlink="http://www.w3.org/1999/xlink" x="0px" y="0px"
	 viewBox="0 0 300 300" enable-background="new 0 0 300 300" xml:space="preserve">
<ellipse fill="#FFFFFF" cx="153.515" cy="150" rx="150.002" ry="150.002"/>
<circle fill="#EB595B" cx="153.515" cy="150" r="140.815"/>
<g>
	<path fill="#5E0902" d="M229.828,207.271H77.968c-1.535,0-2.778-0.891-2.778-1.991v-99.223h157.416v99.223
		C232.606,206.38,231.363,207.271,229.828,207.271z"/>
	<path fill="#841803" d="M229.828,199.005H78.134c-1.627,0-2.944-0.945-2.944-2.11v-90.837h157.416v90.957
		C232.606,198.115,231.363,199.005,229.828,199.005z"/>
	<g>
		<g>
			<g>
				<path fill="#E2E2E2" d="M132.663,218.34h-32.22c-0.736,0-1.332-0.596-1.332-1.332V127.77h34.884v89.237
					C133.995,217.743,133.399,218.34,132.663,218.34z"/>
				<path fill="#FFFFFF" d="M132.663,210.092h-32.22c-0.736,0-1.332-0.596-1.332-1.332V127.77h34.884v80.989
					C133.995,209.495,133.399,210.092,132.663,210.092z"/>
			</g>
			<g>
				<path fill="#E2E2E2" d="M170.007,218.34h-32.22c-0.736,0-1.332-0.596-1.332-1.332V127.77h34.884v89.237
					C171.339,217.743,170.742,218.34,170.007,218.34z"/>
				<path fill="#FFFFFF" d="M170.007,210.092h-32.22c-0.736,0-1.332-0.596-1.332-1.332V127.77h34.884v80.989
					C171.339,209.495,170.742,210.092,170.007,210.092z"/>
			</g>
			<g>
				<path fill="#E2E2E2" d="M207.353,218.34h-32.22c-0.736,0-1.332-0.596-1.332-1.332V127.77h34.884v89.237
					C208.685,217.743,208.088,218.34,207.353,218.34z"/>
				<path fill="#FFFFFF" d="M207.353,210.092h-32.22c-0.736,0-1.332-0.596-1.332-1.332V127.77h34.884v80.989
					C208.685,209.495,208.088,210.092,207.353,210.092z"/>
			</g>
		</g>
		<g>
			<path fill="#4C4C4C" d="M145.356,181.964h-20.262c-0.14,0-0.253-0.113-0.253-0.253v-43.097h20.767v43.097
				C145.609,181.85,145.495,181.964,145.356,181.964z"/>
			<path fill="#565656" d="M145.356,173.715h-20.262c-0.14,0-0.253-0.113-0.253-0.253V127.77h20.767v45.692
				C145.609,173.603,145.495,173.715,145.356,173.715z"/>
		</g>
		<g>
			<path fill="#4C4C4C" d="M182.294,181.964h-20.262c-0.14,0-0.253-0.113-0.253-0.253v-43.097h20.767v43.097
				C182.547,181.85,182.433,181.964,182.294,181.964z"/>
			<path fill="#565656" d="M182.294,173.715h-20.262c-0.14,0-0.253-0.113-0.253-0.253V127.77h20.767v45.692
				C182.547,173.603,182.433,173.715,182.294,173.715z"/>
		</g>
	</g>
	<path fill="#841803" d="M75.19,127.769V85.486c0-2.113,2.39-3.826,5.338-3.826h146.74c2.948,0,5.338,1.713,5.338,3.826v42.284
		L75.19,127.769L75.19,127.769z"/>
	<g>
		<path fill="#3D3D3D" d="M85.778,97.538h136.241c1.302,0,2.356,0.734,2.356,1.64v27.376c0,0.906-1.055,1.64-2.356,1.64H85.778
			c-1.302,0-2.356-0.734-2.356-1.64V99.178C83.423,98.272,84.477,97.538,85.778,97.538z"/>
		<path fill="#3D3D3D" d="M85.778,97.538h136.241c1.302,0,2.356,0.734,2.356,1.64v27.376c0,0.906-1.055,1.64-2.356,1.64H85.778
			c-1.302,0-2.356-0.734-2.356-1.64V99.178C83.423,98.272,84.477,97.538,85.778,97.538z"/>
		<path fill="#232323" d="M85.778,97.538h136.241c1.302,0,2.356,0.734,2.356,1.64v27.376c0,0.906-1.055,1.64-2.356,1.64H85.778
			c-1.302,0-2.356-0.734-2.356-1.64V99.178C83.423,98.272,84.477,97.538,85.778,97.538z"/>
	</g>
	<g>
		<g>
			<g>
				<path fill="#FFFFFF" d="M114.757,111.683c-0.41-0.629-1.121-1.066-1.941-1.066s-1.531,0.437-1.941,1.066
					c-0.246,0.356-0.355,0.793-0.355,1.23c0,0.109,0,0.246,0.055,0.356c0.136,1.093,1.066,1.941,2.241,1.941
					c1.121,0,2.078-0.82,2.242-1.886c0.055-0.137,0.055-0.274,0.055-0.41C115.113,112.476,114.976,112.039,114.757,111.683z"/>
				<path fill="#686868" d="M114.269,111.992c-0.307-0.47-0.839-0.798-1.452-0.798c-0.614,0-1.145,0.327-1.452,0.798
					c-0.184,0.266-0.266,0.593-0.266,0.92c0,0.082,0,0.184,0.041,0.266c0.102,0.818,0.798,1.452,1.677,1.452
					c0.839,0,1.555-0.614,1.678-1.411c0.041-0.102,0.041-0.205,0.041-0.307C114.535,112.586,114.432,112.259,114.269,111.992z"/>
				<g>
					<path fill="#4F4F4F" d="M114.535,112.913c0,0.102,0,0.205-0.041,0.307c0-0.266-0.102-0.511-0.225-0.716
						c-0.307-0.47-0.839-0.798-1.452-0.798c-0.614,0-1.145,0.327-1.452,0.798c-0.143,0.205-0.225,0.43-0.225,0.675
						c-0.041-0.082-0.041-0.184-0.041-0.266c0-0.327,0.082-0.654,0.266-0.92c0.307-0.47,0.839-0.798,1.452-0.798
						c0.614,0,1.146,0.327,1.452,0.798C114.432,112.259,114.535,112.586,114.535,112.913z"/>
				</g>
			</g>
			<g>
				<circle fill="#FFFFFF" cx="125.839" cy="112.917" r="5.443"/>
				<path fill="#4F4F4F" d="M130.179,111.806v1.111c0,2.396-1.944,4.34-4.34,4.34s-4.34-1.944-4.34-4.34v-1.111
					c0-0.851,0.243-1.644,0.671-2.315h1.013c0.735-0.573,1.655-0.914,2.656-0.914s1.921,0.341,2.656,0.914h1.013
					C129.936,110.163,130.179,110.956,130.179,111.806z"/>
				<path fill="#686868" d="M130.179,111.806c0,2.396-1.944,4.34-4.34,4.34s-4.34-1.944-4.34-4.34c0-0.851,0.243-1.644,0.671-2.315
					c0.764-1.215,2.124-2.025,3.669-2.025s2.905,0.81,3.669,2.025C129.936,110.163,130.179,110.956,130.179,111.806z"/>
			</g>
			<g>
				<circle fill="#FFFFFF" cx="139.731" cy="112.917" r="5.443"/>
				<path fill="#4F4F4F" d="M144.072,111.806v1.111c0,2.396-1.944,4.34-4.34,4.34s-4.34-1.944-4.34-4.34v-1.111
					c0-0.851,0.243-1.644,0.671-2.315h1.013c0.735-0.573,1.655-0.914,2.656-0.914s1.921,0.341,2.656,0.914h1.013
					C143.829,110.163,144.072,110.956,144.072,111.806z"/>
				<path fill="#686868" d="M144.072,111.806c0,2.396-1.944,4.34-4.34,4.34s-4.34-1.944-4.34-4.34c0-0.851,0.243-1.644,0.671-2.315
					c0.764-1.215,2.124-2.025,3.669-2.025c1.545,0,2.905,0.81,3.669,2.025C143.829,110.163,144.072,110.956,144.072,111.806z"/>
			</g>
		</g>
		<g>
			<g>
				<circle fill="#FFFFFF" cx="180.747" cy="106.729" r="3.582"/>
				<circle fill="#FFFFFF" cx="180.747" cy="106.729" r="3.582"/>
				<path fill="#4F4F4F" d="M183.604,104.354v2.375c0,1.577-1.28,2.856-2.856,2.856c-1.577,0-2.856-1.28-2.856-2.856v-2.375
					c0-0.56,1.108-1.668,1.108-1.668c0.484-0.377,1.089-0.602,1.748-0.602s1.264,0.225,1.748,0.602
					C182.496,102.686,183.604,103.794,183.604,104.354z"/>
				<path fill="#686868" d="M183.604,104.426c0,1.577-1.28,2.856-2.856,2.856c-1.577,0-2.856-1.28-2.856-2.856
					c0-0.56,0.16-1.082,0.442-1.523c0.503-0.8,1.398-1.333,2.415-1.333s1.912,0.533,2.415,1.333
					C183.444,103.344,183.604,103.866,183.604,104.426z"/>
				<rect x="180.665" y="102.337" fill="#686868" width="0.165" height="0.667"/>
				
					<rect x="178.632" y="102.879" transform="matrix(0.866 -0.5 0.5 0.866 -27.6631 103.1876)" fill="#686868" width="0.165" height="0.667"/>
				<g>
					
						<rect x="176.514" y="103.758" transform="matrix(0.5002 -0.8659 0.8659 0.5002 -1.9554 205.1538)" fill="#686868" width="0.451" height="1.025"/>
					<rect x="175.604" y="106.353" fill="#686868" width="1.025" height="0.451"/>
					
						<rect x="176.217" y="108.666" transform="matrix(0.8661 -0.4998 0.4998 0.8661 -30.7673 102.9099)" fill="#686868" width="1.025" height="0.451"/>
					
						<rect x="177.915" y="110.371" transform="matrix(0.4998 -0.8661 0.8661 0.4998 -6.5447 209.8592)" fill="#686868" width="1.024" height="0.451"/>
					<rect x="180.522" y="110.698" fill="#686868" width="0.451" height="1.024"/>
					
						<rect x="182.834" y="110.07" transform="matrix(0.866 -0.5 0.5 0.866 -30.7656 106.3475)" fill="#686868" width="0.451" height="1.024"/>
					
						<rect x="184.533" y="108.392" transform="matrix(0.5 -0.866 0.866 0.5 -1.9359 214.4553)" fill="#686868" width="0.451" height="1.024"/>
					<rect x="184.867" y="106.353" fill="#686868" width="1.025" height="0.451"/>
					
						<rect x="184.247" y="104.044" transform="matrix(0.8658 -0.5004 0.5004 0.8658 -27.3806 106.4466)" fill="#686868" width="1.024" height="0.451"/>
				</g>
				
					<rect x="182.439" y="103.13" transform="matrix(0.5 -0.866 0.866 0.5 2 209.8892)" fill="#686868" width="0.667" height="0.165"/>
			</g>
			<g>
				<path fill="#FFFFFF" d="M169.665,104.71c-0.41-0.629-1.121-1.066-1.941-1.066c-0.82,0-1.531,0.437-1.941,1.066
					c-0.246,0.356-0.355,0.793-0.355,1.23c0,0.109,0,0.246,0.055,0.356c0.136,1.093,1.066,1.941,2.241,1.941
					c1.121,0,2.078-0.82,2.242-1.886c0.055-0.137,0.055-0.274,0.055-0.41C170.021,105.503,169.884,105.065,169.665,104.71z"/>
				<path fill="#686868" d="M169.177,105.019c-0.307-0.47-0.839-0.798-1.452-0.798c-0.614,0-1.145,0.327-1.452,0.798
					c-0.184,0.266-0.266,0.593-0.266,0.92c0,0.082,0,0.184,0.041,0.266c0.102,0.818,0.798,1.452,1.677,1.452
					c0.839,0,1.555-0.614,1.678-1.411c0.041-0.102,0.041-0.205,0.041-0.307C169.443,105.613,169.341,105.286,169.177,105.019z"/>
				<g>
					<path fill="#4F4F4F" d="M169.443,105.94c0,0.102,0,0.205-0.041,0.307c0-0.266-0.102-0.511-0.225-0.716
						c-0.307-0.47-0.839-0.798-1.452-0.798c-0.614,0-1.145,0.327-1.452,0.798c-0.143,0.205-0.225,0.43-0.225,0.675
						c-0.041-0.082-0.041-0.184-0.041-0.266c0-0.327,0.082-0.654,0.266-0.92c0.307-0.47,0.839-0.798,1.452-0.798
						c0.614,0,1.146,0.327,1.452,0.798C169.341,105.286,169.443,105.613,169.443,105.94z"/>
				</g>
			</g>
			<g>
				<circle fill="#FFFFFF" cx="193.694" cy="106.729" r="3.582"/>
				<path fill="#4F4F4F" d="M196.55,104.354v2.375c0,1.577-1.28,2.856-2.856,2.856s-2.856-1.28-2.856-2.856v-2.375
					c0-0.56,1.108-1.668,1.108-1.668c0.484-0.377,1.089-0.602,1.748-0.602s1.264,0.225,1.748,0.602
					C195.442,102.686,196.55,103.794,196.55,104.354z"/>
				<path fill="#686868" d="M196.55,104.426c0,1.577-1.28,2.856-2.856,2.856s-2.856-1.28-2.856-2.856c0-0.56,0.16-1.082,0.442-1.523
					c0.503-0.8,1.398-1.333,2.415-1.333s1.912,0.533,2.415,1.333C196.39,103.344,196.55,103.866,196.55,104.426z"/>
			</g>
			<g>
				<circle fill="#FFFFFF" cx="180.747" cy="118.073" r="3.582"/>
				<circle fill="#FFFFFF" cx="180.747" cy="118.073" r="3.582"/>
				<path fill="#4F4F4F" d="M183.604,115.698v2.375c0,1.577-1.28,2.856-2.856,2.856c-1.577,0-2.856-1.28-2.856-2.856v-2.375
					c0-0.56,1.108-1.668,1.108-1.668c0.484-0.377,1.089-0.602,1.748-0.602s1.264,0.225,1.748,0.602
					C182.496,114.03,183.604,115.138,183.604,115.698z"/>
				<path fill="#686868" d="M183.604,115.77c0,1.577-1.28,2.856-2.856,2.856c-1.577,0-2.856-1.28-2.856-2.856
					c0-0.56,0.16-1.082,0.442-1.523c0.503-0.8,1.398-1.333,2.415-1.333s1.912,0.533,2.415,1.333
					C183.444,114.688,183.604,115.21,183.604,115.77z"/>
				<rect x="180.665" y="113.681" fill="#686868" width="0.165" height="0.667"/>
				
					<rect x="178.632" y="114.223" transform="matrix(0.866 -0.5 0.5 0.866 -33.335 104.7074)" fill="#686868" width="0.165" height="0.667"/>
				<g>
					
						<rect x="176.513" y="115.103" transform="matrix(0.5002 -0.8659 0.8659 0.5002 -11.7786 210.8234)" fill="#686868" width="0.451" height="1.025"/>
					<rect x="175.604" y="117.697" fill="#686868" width="1.025" height="0.451"/>
					
						<rect x="176.217" y="120.01" transform="matrix(0.8661 -0.4998 0.4998 0.8661 -36.437 104.4284)" fill="#686868" width="1.025" height="0.451"/>
					
						<rect x="177.915" y="121.714" transform="matrix(0.4998 -0.8661 0.8661 0.4998 -16.3701 215.5329)" fill="#686868" width="1.024" height="0.451"/>
					<rect x="180.522" y="122.042" fill="#686868" width="0.451" height="1.024"/>
					
						<rect x="182.834" y="121.413" transform="matrix(0.866 -0.5 0.5 0.866 -36.4374 107.8675)" fill="#686868" width="0.451" height="1.024"/>
					
						<rect x="184.533" y="119.736" transform="matrix(0.5 -0.866 0.866 0.5 -11.7603 220.127)" fill="#686868" width="0.451" height="1.024"/>
					<rect x="184.867" y="117.697" fill="#686868" width="1.025" height="0.451"/>
					
						<rect x="184.247" y="115.387" transform="matrix(0.8658 -0.5004 0.5004 0.8658 -33.0569 107.9686)" fill="#686868" width="1.024" height="0.451"/>
				</g>
				
					<rect x="182.439" y="114.474" transform="matrix(0.5 -0.866 0.866 0.5 -7.8238 215.561)" fill="#686868" width="0.667" height="0.165"/>
			</g>
			<g>
				<path fill="#FFFFFF" d="M169.665,116.054c-0.41-0.629-1.121-1.066-1.941-1.066c-0.82,0-1.531,0.437-1.941,1.066
					c-0.246,0.356-0.355,0.793-0.355,1.23c0,0.109,0,0.246,0.055,0.356c0.136,1.093,1.066,1.941,2.241,1.941
					c1.121,0,2.078-0.82,2.242-1.886c0.055-0.137,0.055-0.274,0.055-0.41C170.021,116.847,169.884,116.409,169.665,116.054z"/>
				<path fill="#686868" d="M169.177,116.363c-0.307-0.47-0.839-0.798-1.452-0.798c-0.614,0-1.145,0.327-1.452,0.798
					c-0.184,0.266-0.266,0.593-0.266,0.92c0,0.082,0,0.184,0.041,0.266c0.102,0.818,0.798,1.452,1.677,1.452
					c0.839,0,1.555-0.614,1.678-1.411c0.041-0.102,0.041-0.205,0.041-0.307C169.443,116.957,169.341,116.629,169.177,116.363z"/>
				<g>
					<path fill="#4F4F4F" d="M169.443,117.284c0,0.102,0,0.205-0.041,0.307c0-0.266-0.102-0.511-0.225-0.716
						c-0.307-0.47-0.839-0.798-1.452-0.798c-0.614,0-1.145,0.327-1.452,0.798c-0.143,0.205-0.225,0.43-0.225,0.675
						c-0.041-0.082-0.041-0.184-0.041-0.266c0-0.327,0.082-0.654,0.266-0.92c0.307-0.47,0.839-0.798,1.452-0.798
						c0.614,0,1.146,0.327,1.452,0.798C169.341,116.629,169.443,116.957,169.443,117.284z"/>
				</g>
			</g>
			<g>
				<circle fill="#FFFFFF" cx="193.694" cy="118.073" r="3.582"/>
				<path fill="#4F4F4F" d="M196.55,115.698v2.375c0,1.577-1.28,2.856-2.856,2.856s-2.856-1.28-2.856-2.856v-2.375
					c0-0.56,1.108-1.668,1.108-1.668c0.484-0.377,1.089-0.602,1.748-0.602s1.264,0.225,1.748,0.602
					C195.442,114.03,196.55,115.138,196.55,115.698z"/>
				<path fill="#686868" d="M196.55,115.77c0,1.577-1.28,2.856-2.856,2.856s-2.856-1.28-2.856-2.856c0-0.56,0.16-1.082,0.442-1.523
					c0.503-0.8,1.398-1.333,2.415-1.333s1.912,0.533,2.415,1.333C196.39,114.688,196.55,115.21,196.55,115.77z"/>
			</g>
		</g>
	</g>
</g>
</svg>
