<svg xmlns="http://www.w3.org/2000/svg" version="1.0" viewBox="0 0 300 300"><path fill="#FFF" d="M150.002 300C67.27 300 0 232.695 0 149.998 0 67.305 67.27 0 150.002 0 232.73 0 300 67.305 300 149.998 300 232.695 232.73 300 150.002 300z"/><path fill="#86BF5A" d="M290.832 150c0 2.276-.067 4.615-.201 6.892-.067 2.343-.267 4.615-.468 6.892-.271 2.276-.539 4.615-.873 6.892a109.882 109.882 0 01-1.203 6.758c-.401 2.272-.94 4.549-1.474 6.754a194.611 194.611 0 01-1.871 6.691c-.672 2.21-1.408 4.348-2.143 6.558-.806 2.143-1.608 4.281-2.477 6.424-.94 2.139-1.875 4.281-2.811 6.353-1.007 2.076-2.009 4.152-3.145 6.157a137.159 137.159 0 01-3.417 6.023c-1.136 1.938-2.41 3.88-3.68 5.818-1.27 1.942-2.611 3.813-3.947 5.689-1.408 1.804-2.815 3.613-4.285 5.417-1.474 1.809-2.945 3.546-4.486 5.221a112.996 112.996 0 01-4.749 5.016c-1.675 1.604-3.35 3.212-5.021 4.749a344.328 344.328 0 01-5.221 4.553c-1.809 1.403-3.617 2.874-5.488 4.214a154.947 154.947 0 01-5.622 4.014 181.002 181.002 0 01-5.894 3.68 106.077 106.077 0 01-5.956 3.412c-2.076 1.069-4.081 2.139-6.224 3.078a107.813 107.813 0 01-6.29 2.807c-2.143.873-4.286 1.742-6.428 2.477-2.21.802-4.348 1.537-6.558 2.21-2.21.668-4.486 1.27-6.696 1.804-2.21.601-4.482 1.069-6.758 1.537-2.21.472-4.486.806-6.762 1.207a129.05 129.05 0 01-6.892.802c-2.276.267-4.62.401-6.896.535-2.276.067-4.62.134-6.892.134-2.343 0-4.62-.067-6.896-.134-2.343-.134-4.62-.267-6.892-.535-2.343-.2-4.62-.468-6.896-.802-2.276-.401-4.553-.735-6.829-1.207-2.205-.468-4.482-.936-6.691-1.537a111.667 111.667 0 01-13.254-4.014c-2.143-.735-4.286-1.604-6.424-2.477a107.42 107.42 0 01-6.361-2.807c-2.072-.94-4.148-2.009-6.157-3.078a142.322 142.322 0 01-6.023-3.412c-1.942-1.207-3.885-2.41-5.823-3.68a85.932 85.932 0 01-5.622-4.014c-1.875-1.341-3.684-2.811-5.488-4.214a112.711 112.711 0 01-5.221-4.553 110.97 110.97 0 01-5.021-4.749 113.624 113.624 0 01-4.753-5.016 116.093 116.093 0 01-4.553-5.221c-1.403-1.804-2.878-3.613-4.215-5.417-1.408-1.875-2.677-3.747-4.018-5.689a278.992 278.992 0 01-3.68-5.818c-1.14-2.009-2.276-4.014-3.413-6.023-1.073-2.005-2.076-4.081-3.083-6.157a110.915 110.915 0 01-2.811-6.353c-.869-2.143-1.738-4.281-2.477-6.424a125.65 125.65 0 01-2.205-6.558 106.233 106.233 0 01-1.809-6.691 209.598 209.598 0 01-1.541-6.754c-.401-2.21-.802-4.486-1.136-6.758-.334-2.276-.668-4.615-.869-6.892-.2-2.276-.401-4.549-.539-6.892-.067-2.276-.134-4.615-.134-6.892 0-2.339.067-4.615.134-6.892.138-2.339.338-4.615.539-6.888.2-2.343.535-4.62.869-6.892.334-2.276.735-4.553 1.136-6.825.472-2.21 1.007-4.482 1.541-6.691a106.289 106.289 0 011.809-6.691 108.743 108.743 0 012.205-6.558 108.58 108.58 0 012.477-6.42 111.034 111.034 0 012.811-6.357c1.007-2.076 2.009-4.148 3.083-6.157 1.136-2.005 2.272-4.014 3.413-6.019 1.203-1.942 2.41-3.947 3.68-5.822 1.341-1.938 2.611-3.813 4.018-5.685 1.337-1.809 2.811-3.613 4.215-5.422a115.893 115.893 0 014.553-5.217 113.763 113.763 0 014.753-5.021 113.261 113.261 0 015.021-4.749 114.39 114.39 0 015.221-4.549 106.758 106.758 0 015.488-4.214 82.666 82.666 0 015.622-4.014c1.938-1.274 3.88-2.477 5.823-3.68a133.042 133.042 0 016.023-3.412c2.009-1.069 4.085-2.143 6.157-3.078a108.715 108.715 0 016.361-2.811c2.139-.869 4.281-1.738 6.424-2.473a106.492 106.492 0 016.558-2.21 112.95 112.95 0 016.696-1.809c2.21-.601 4.486-1.069 6.691-1.537 2.276-.468 4.553-.869 6.829-1.203 2.276-.334 4.553-.601 6.896-.802 2.272-.271 4.549-.405 6.892-.539 2.276-.134 4.553-.134 6.896-.134 2.272 0 4.615 0 6.892.134 2.276.134 4.62.267 6.896.539 2.276.2 4.549.468 6.892.802 2.276.334 4.553.735 6.762 1.203 2.276.468 4.549.936 6.758 1.537a127.8 127.8 0 016.696 1.809c2.21.668 4.348 1.403 6.558 2.21 2.143.735 4.286 1.604 6.428 2.473 2.139.869 4.215 1.809 6.29 2.811 2.143.936 4.148 2.009 6.224 3.078a101.33 101.33 0 015.956 3.412 169.107 169.107 0 015.894 3.68 144.629 144.629 0 015.622 4.014 110.96 110.96 0 015.488 4.214c1.738 1.47 3.479 3.011 5.221 4.549a370.072 370.072 0 015.021 4.749c1.604 1.608 3.212 3.279 4.749 5.021 1.541 1.671 3.012 3.412 4.486 5.217a322.085 322.085 0 014.285 5.422c1.337 1.871 2.677 3.747 3.947 5.685 1.27 1.875 2.544 3.88 3.68 5.822a138.073 138.073 0 013.417 6.019c1.136 2.009 2.139 4.081 3.145 6.157.936 2.076 1.871 4.214 2.811 6.357.869 2.072 1.671 4.281 2.477 6.42.735 2.143 1.47 4.352 2.143 6.558.668 2.21 1.27 4.415 1.871 6.691.535 2.21 1.073 4.482 1.474 6.691.468 2.272.869 4.549 1.203 6.825.334 2.272.602 4.549.873 6.892.201 2.272.401 4.549.468 6.888.134 2.277.201 4.553.201 6.892z"/><path fill="#383838" d="M241.307 193.271H58.602c-.509 0-1.103 0-1.697-.102a8.672 8.672 0 01-1.703-.308 8.805 8.805 0 01-1.528-.457c-.509-.203-.934-.457-1.363-.66-.424-.254-.764-.558-1.103-.812a5.608 5.608 0 01-.849-.967 2.49 2.49 0 01-.509-1.015c-.085-.304-.17-.66-.17-1.015v-84.832c0-.152 0-.308.085-.46 0-.152.085-.304.255-.457a1.62 1.62 0 01.339-.457c.17-.152.339-.254.509-.355.255-.152.424-.254.679-.355.17-.051.424-.152.679-.203.26-.051.514-.101.854-.152.255-.051.509-.051.764-.051H246.15c.255 0 .509 0 .769.051l.764.152c.255.051.509.152.764.203.255.101.424.203.594.355.255.101.424.203.509.355.17.152.339.304.424.457.085.152.17.304.26.457 0 .152.085.308.085.46v84.832c0 .355-.085.71-.175 1.015-.17.355-.339.71-.509 1.015-.255.358-.509.24-.849.544-.339.254-.679.981-1.103 1.235-.424.203-.849.457-1.363.66a8.753 8.753 0 01-1.528.457 9.957 9.957 0 01-1.703.308c-.593.102-1.187.102-1.782.102z"/><path fill="#F44A4A" d="M241.307 187.02H58.602c-.509 0-1.103-.051-1.697-.101a8.75 8.75 0 01-1.703-.304 17.973 17.973 0 01-1.528-.507 9.474 9.474 0 01-1.363-.66 6.851 6.851 0 01-1.103-.812 8.734 8.734 0 01-.849-.917c-.255-.355-.424-.66-.509-1.015-.085-.355-.17-.71-.17-1.069v-78.531c0-.152 0-.308.085-.46 0-.152.085-.304.255-.457a1.62 1.62 0 01.339-.457c.17-.152.339-.254.509-.355.255-.152.424-.254.679-.355.17-.051.424-.152.679-.203.26-.051.514-.101.854-.152.255-.051.509-.051.764-.051H246.15c.255 0 .509 0 .769.051l.764.152c.255.051.509.152.764.203.255.101.424.203.594.355.255.101.424.203.509.355.17.152.339.304.424.457.085.152.17.304.26.457 0 .152.085.308.085.46v78.531c0 .358-.085.714-.175 1.069-.17.355-.339.66-.509 1.015-.255.304-.509.609-.849.917a6.911 6.911 0 01-1.103.812 8.989 8.989 0 01-1.363.66c-.509.203-1.018.355-1.528.507a9.85 9.85 0 01-1.703.304c-.593.05-1.187.101-1.782.101z"/><path fill="#383838" d="M246.15 105.387H53.845c-.255 0-.509.051-.764.051-.339.051-.594.101-.854.152a2.264 2.264 0 00-.679.257c-.255.102-.424.203-.679.304-.17.101-.339.254-.509.355-.17.152-.255.304-.339.457-.17.152-.255.304-.255.457-.085.152-.085.304-.085.507v27.686h25.752v-4.827h91.714v4.827h83.173v-27.686c0-.203-.085-.355-.085-.507-.09-.152-.175-.304-.26-.457-.085-.152-.255-.304-.424-.457a1.31 1.31 0 00-.509-.355c-.17-.101-.339-.203-.594-.304-.255-.101-.509-.206-.764-.257l-.764-.152c-.261 0-.515-.051-.77-.051z"/><path fill="#505050" d="M84.645 130.786h15.752v4.827H84.645z"/><path fill="#8E8E8E" d="M49.681 130.786v-27.682c0-.152 0-.308.085-.46 0-.152.085-.304.255-.457a1.62 1.62 0 01.339-.457c.17-.152.339-.254.509-.355.255-.152.424-.254.679-.355.17-.051.424-.152.679-.203.26-.051.514-.101.854-.152.255-.051.509-.051.764-.051H246.15c.255 0 .509 0 .769.051l.764.152c.255.051.509.152.764.203.255.101.424.203.594.355.255.101.424.203.509.355.17.152.339.304.424.457.085.152.17.304.26.457 0 .152.085.308.085.46v27.682H49.681z"/><path fill="#F44A4A" d="M75.8 115.548c0 .304-.051.558-.051.863l-.152.917c-.051.254-.101.558-.203.863-.101.254-.203.558-.304.812-.101.304-.254.558-.355.815l-.457.761c-.203.254-.355.507-.561.71-.203.254-.406.457-.609.66a7.772 7.772 0 01-.66.609c-.203.206-.457.358-.714.511a6.571 6.571 0 01-.761.507c-.254.101-.507.254-.812.355-.254.101-.561.203-.815.304a5.366 5.366 0 01-.863.203l-.917.152c-.254 0-.558.051-.863.051-.304 0-.609-.051-.913-.051-.257-.051-.561-.101-.866-.152a5.31 5.31 0 01-.863-.203c-.304-.101-.561-.203-.866-.304-.254-.101-.507-.254-.761-.355-.304-.152-.558-.304-.761-.507a5.88 5.88 0 01-.764-.511 7.772 7.772 0 00-.66-.609c-.203-.203-.406-.406-.558-.66a3.857 3.857 0 01-.561-.71l-.457-.761a4.03 4.03 0 01-.355-.815 2.639 2.639 0 01-.304-.812c-.101-.304-.152-.609-.203-.863-.101-.304-.101-.612-.152-.917-.051-.304-.051-.558-.051-.863 0-.304 0-.609.051-.913.051-.304.051-.561.152-.866.051-.304.101-.609.203-.863.051-.304.152-.558.304-.863.101-.254.203-.507.355-.815l.457-.761c.152-.203.358-.457.561-.71.152-.203.355-.457.558-.66.254-.203.457-.406.66-.558.254-.206.507-.409.764-.561.203-.152.457-.304.761-.457.254-.152.507-.254.761-.355.304-.152.561-.254.866-.304.304-.101.558-.152.863-.254.304-.051.609-.102.866-.102.304-.051.609-.051.913-.051.304 0 .609 0 .863.051.308 0 .612.051.917.102.304.101.558.152.863.254.254.051.561.152.815.304.304.101.558.203.812.355l.761.457c.257.152.511.355.714.561.254.152.457.355.66.558.203.203.406.457.609.66.206.254.358.507.561.71l.457.761c.101.308.254.561.355.815.101.304.203.558.304.863.101.254.152.558.203.863.051.304.101.561.152.866.001.304.051.609.051.913z"/><path fill="#4F4F4F" d="M73.923 113.668v1.881c0 3.961-3.203 7.215-7.218 7.215s-7.269-3.254-7.269-7.215v-1.881c0-1.37.409-2.692 1.12-3.86h1.728c.609-.507 1.322-.863 2.084-1.116.761-.257 1.525-.409 2.337-.409 1.678 0 3.203.561 4.421 1.525h1.678c.761 1.167 1.17 2.49 1.119 3.86z"/><path fill="#686868" d="M73.923 113.668c0 4.015-3.203 7.265-7.218 7.265s-7.269-3.251-7.269-7.265c0-1.37.409-2.692 1.12-3.86.355-.507.71-.964 1.17-1.373a7.472 7.472 0 011.472-1.116c.561-.254 1.119-.507 1.678-.66.609-.152 3.051-.152 3.609 0 .609.152 1.167.406 1.728.66.507.304 1.015.66 1.472 1.116.409.409.815.866 1.12 1.373.76 1.167 1.169 2.49 1.118 3.86z"/><path fill="#FFDAA9" d="M99.992 124.64c-.101 0-.254 0-.355-.051-.152 0-.254-.051-.355-.101l-.304-.152a1.339 1.339 0 01-.304-.254c-.101-.051-.152-.152-.254-.254a2.066 2.066 0 01-.155-.355.729.729 0 01-.101-.355c-.051-.101-.051-.203-.051-.355v-14.48c0-.101 0-.254.051-.355 0-.152.051-.254.101-.355.051-.101.101-.203.155-.304.101-.101.152-.203.254-.304.101-.102.203-.152.304-.254l.304-.152a.729.729 0 01.355-.101c.101-.051.254-.051.355-.051.101 0 .254 0 .355.051.155 0 .257.051.358.101.101.051.254.101.355.152l.254.254c.101.101.152.203.254.304l.152.304a.729.729 0 01.101.355c.051.102.051.254.051.355v14.48c0 .152 0 .254-.051.355 0 .152-.051.254-.101.355a2.46 2.46 0 01-.152.355c-.101.101-.152.203-.254.254-.101.101-.152.203-.254.254-.101.051-.254.101-.355.152a.731.731 0 01-.358.101c-.102.051-.254.051-.355.051z"/><path fill="#383838" d="M99.992 123.423c-.101 0-.152-.051-.254-.051-.051-.051-.152-.101-.203-.152a.382.382 0 01-.101-.203c-.051-.101-.051-.152-.051-.254v-14.48c0-.101 0-.152.051-.254a.39.39 0 01.101-.203c.051-.051.152-.101.203-.152.101 0 .152-.051.254-.051.101 0 .152.051.254.051.051.051.152.101.203.152a.37.37 0 01.105.203c.051.101.051.152.051.254v14.48c0 .101 0 .152-.051.254a.37.37 0 01-.105.203c-.051.051-.152.101-.203.152-.102 0-.153.051-.254.051z"/><path fill="#4F4F4F" d="M102.177 111.943v.558c-.051.101-.051.254-.051.406-.051.101-.101.254-.152.355-.051.152-.152.254-.203.355-.101.152-.152.254-.254.355-.101.101-.254.155-.355.257-.101.051-.254.101-.355.152-.152.051-.254.101-.409.152-.152 0-.254.051-.406.051-.152 0-.254-.051-.406-.051-.152-.051-.254-.101-.406-.152-.101-.051-.254-.101-.355-.152-.101-.101-.254-.155-.355-.257-.051-.101-.155-.203-.257-.355-.051-.101-.152-.203-.203-.355a.934.934 0 01-.101-.355c-.051-.152-.051-.304-.101-.406v-.558c0-.457.152-.815.355-1.17h.511c.203-.152.406-.254.609-.355.254-.051.457-.101.71-.101.254 0 .457.051.714.101.203.101.406.203.609.355h.507c.202.354.354.713.354 1.17z"/><path fill="#686868" d="M102.177 111.943c-.051.101-.051.254-.051.406-.051.101-.101.254-.152.355-.051.152-.152.254-.203.406-.101.101-.152.203-.254.304-.101.101-.254.152-.355.254-.101.051-.254.152-.355.203-.152.051-.254.051-.409.101-.152 0-.254.051-.406.051-.152 0-.254-.051-.406-.051-.152-.051-.254-.051-.406-.101-.101-.051-.254-.152-.355-.203-.101-.101-.254-.152-.355-.254-.051-.101-.155-.203-.257-.304-.051-.152-.152-.254-.203-.406a.934.934 0 01-.101-.355c-.051-.152-.051-.304-.101-.406 0-.457.152-.815.355-1.17a.711.711 0 01.152-.203c.051-.101.155-.152.206-.203.051-.101.152-.152.203-.203.051-.051.152-.101.203-.152.101-.051.203-.051.254-.101.101-.051.203-.051.254-.102.101 0 .203 0 .304-.051h.508c.101.051.203.051.308.051.051.051.152.051.254.102.051.051.152.051.254.101.051.051.152.101.203.152a.402.402 0 01.203.203.398.398 0 01.203.203c.051.051.101.101.152.203.201.354.353.713.353 1.17z"/><path fill="#FFDAA9" d="M110.334 124.64c-.101 0-.254 0-.355-.051a.953.953 0 01-.355-.101l-.304-.152a1.339 1.339 0 01-.304-.254c-.101-.051-.152-.152-.254-.254a2.46 2.46 0 01-.152-.355.729.729 0 01-.101-.355c-.051-.101-.051-.203-.051-.355v-14.48c0-1.015.863-1.877 1.877-1.877 1.018 0 1.881.863 1.881 1.877v14.48c0 .152 0 .254-.051.355 0 .152-.051.254-.101.355a2.46 2.46 0 01-.152.355c-.101.101-.152.203-.254.254-.101.101-.152.203-.254.254-.101.051-.254.101-.355.152a.729.729 0 01-.355.101c-.103.051-.204.051-.36.051z"/><path fill="#383838" d="M110.334 123.423c-.101 0-.152-.051-.254-.051-.051-.051-.101-.101-.203-.152a.382.382 0 01-.101-.203c-.051-.101-.051-.152-.051-.254v-14.48c0-.101 0-.152.051-.254 0-.051.051-.102.101-.203.101-.051.152-.101.203-.101.101-.051.152-.051.254-.051.101 0 .155 0 .257.051a.39.39 0 01.203.101c.051.101.101.152.101.203.051.101.051.152.051.254v14.48c0 .101 0 .152-.051.254a.39.39 0 01-.101.203c-.051.051-.152.101-.203.152-.101 0-.155.051-.257.051z"/><path fill="#4F4F4F" d="M112.519 119.611v.561c0 .152-.051.254-.051.406-.051.152-.101.254-.152.406-.051.101-.152.254-.203.355-.101.101-.152.203-.254.304-.101.101-.203.203-.355.254a.823.823 0 01-.355.203c-.152.051-.254.101-.406.101-.101.051-.254.051-.409.051-.152 0-.254 0-.406-.051-.152 0-.254-.051-.406-.101-.101-.051-.254-.101-.355-.203a1.339 1.339 0 01-.304-.254l-.304-.304c-.051-.101-.155-.254-.206-.355-.051-.152-.101-.254-.101-.406-.051-.152-.051-.254-.051-.406v-.561c0-.406.101-.812.308-1.167h.507c.406-.304.812-.457 1.319-.457.511 0 .967.203 1.322.457h.507c.203.355.355.761.355 1.167z"/><path fill="#686868" d="M112.519 119.611c0 .155-.051.257-.051.409-.051.152-.101.254-.152.406-.051.101-.152.254-.203.355-.101.101-.152.203-.254.304-.101.101-.203.203-.355.254a.823.823 0 01-.355.203c-.152.051-.254.101-.406.101-.101.051-.254.051-.409.051-.152 0-.254 0-.406-.051-.152 0-.254-.051-.406-.101-.101-.051-.254-.101-.355-.203a1.339 1.339 0 01-.304-.254l-.304-.304c-.051-.101-.155-.254-.206-.355-.051-.152-.101-.254-.101-.406-.051-.152-.051-.254-.051-.409 0-.406.101-.812.308-1.167.203-.304.457-.558.812-.71.304-.203.66-.304 1.015-.254.358-.051.714.051 1.069.254.304.152.558.406.761.71.201.355.353.761.353 1.167z"/><path fill="#FFDAA9" d="M120.702 124.64c-.101 0-.257 0-.358-.051a.953.953 0 01-.355-.101l-.304-.152a1.339 1.339 0 01-.304-.254c-.101-.051-.152-.152-.254-.254a2.46 2.46 0 01-.152-.355.729.729 0 01-.101-.355c-.051-.101-.051-.203-.051-.355v-14.48c0-.101 0-.254.051-.355 0-.152.051-.254.101-.355l.152-.304c.101-.101.152-.203.254-.304.101-.102.203-.152.304-.254l.304-.152a.934.934 0 01.355-.101c.101-.051.257-.051.358-.051.152 0 .254 0 .355.051.152 0 .254.051.355.101.101.051.254.101.355.152.101.102.203.152.254.254.101.101.152.203.254.304l.152.304a.729.729 0 01.101.355c.054.102.054.254.054.355v14.48c0 .152 0 .254-.054.355 0 .152-.051.254-.101.355a2.46 2.46 0 01-.152.355c-.101.101-.152.203-.254.254-.101.101-.152.203-.254.254-.101.051-.254.101-.355.152a.729.729 0 01-.355.101c-.101.051-.203.051-.355.051z"/><path fill="#383838" d="M120.702 123.423c-.101 0-.152-.051-.257-.051-.051-.051-.101-.101-.203-.152a.382.382 0 01-.101-.203c-.051-.101-.051-.152-.051-.254v-14.48c0-.101 0-.152.051-.254 0-.051.051-.102.101-.203.101-.051.152-.101.203-.101.105-.051.206-.051.257-.051.101 0 .152 0 .254.051a.39.39 0 01.203.101c.051.101.101.152.101.203.051.101.051.152.051.254v14.734c-.051.051-.101.152-.152.203-.051.051-.152.101-.203.152-.102 0-.152.051-.254.051z"/><path fill="#4F4F4F" d="M122.887 114.381v.558c0 .101-.051.254-.051.406-.051.101-.101.254-.152.355a1.441 1.441 0 01-.206.406c-.101.101-.152.203-.254.304-.101.101-.203.152-.355.254-.101.051-.203.152-.355.203-.101.051-.254.051-.406.105-.101.051-.254.051-.406.051-.152 0-.257 0-.409-.051-.152-.054-.254-.054-.406-.105-.101-.051-.254-.152-.355-.203-.101-.101-.254-.152-.304-.254l-.304-.304c-.051-.152-.152-.254-.203-.406a.934.934 0 01-.101-.355c-.051-.152-.051-.304-.051-.406v-.558c0-.46.101-.815.304-1.17h.507c.203-.152.406-.254.609-.355.254-.051.457-.101.714-.101.254 0 .457.051.71.101.203.101.406.203.609.355h.507c.206.355.358.71.358 1.17z"/><path fill="#686868" d="M122.887 114.381c0 .101-.051.254-.051.406-.051.101-.101.254-.152.406-.051.101-.101.203-.206.355-.101.101-.152.203-.254.304-.101.101-.203.152-.355.254-.101.051-.203.152-.355.203a.952.952 0 01-.406.101c-.101.051-.254.051-.406.051-.152 0-.257 0-.409-.051-.152 0-.254-.051-.406-.101-.101-.051-.254-.152-.355-.203-.101-.101-.254-.152-.304-.254l-.304-.304c-.051-.152-.152-.254-.203-.355-.051-.152-.101-.304-.101-.406-.051-.152-.051-.304-.051-.406 0-.46.101-.815.304-1.17a.711.711 0 01.152-.203c.051-.101.152-.152.203-.203.051-.101.152-.152.203-.203.101-.051.152-.101.254-.152.051-.051.152-.051.203-.101.101-.051.203-.051.304-.101.051 0 .152 0 .254-.051h.511c.101.051.203.051.304.051.051.051.152.051.254.101.051.051.152.051.254.101.051.051.152.101.203.152a.398.398 0 01.203.203.398.398 0 01.203.203c.051.051.101.101.152.203.205.355.357.71.357 1.17z"/><path fill="#4F4F4F" d="M82.022 118.839h-2.66c-.147 0-.369-.074-.516-.148-.221-.074-.369-.147-.516-.295a1.57 1.57 0 01-.295-.442c-.074-.226-.074-.373-.074-.595v-2.655c0-.737.59-1.406 1.401-1.406h2.66c.811 0 1.475.668 1.475 1.406v2.655c0 .221-.074.369-.148.595-.074.147-.147.295-.295.442-.147.147-.295.221-.442.295-.221.075-.369.148-.59.148z"/><path fill="#686868" d="M82.022 118.176h-2.66c-.147 0-.369-.074-.516-.147-.221-.074-.369-.148-.516-.3-.074-.148-.221-.295-.295-.516-.074-.147-.074-.295-.074-.516v-2.655c0-.816.59-1.48 1.401-1.48h2.66c.221 0 .369.074.59.147.147.074.295.148.442.295.148.147.221.295.295.442.074.226.148.373.148.595v2.655c0 .147-.074.369-.148.516-.074.221-.147.369-.295.516-.147.152-.295.226-.442.3-.221.074-.369.148-.59.148z"/><path fill="#4F4F4F" d="M91.048 119.208h-2.66c-.147 0-.369-.074-.516-.148-.221-.074-.369-.147-.516-.295a1.57 1.57 0 01-.295-.442c-.074-.226-.074-.373-.074-.595v-2.655c0-.737.59-1.406 1.401-1.406h2.66c.811 0 1.475.668 1.475 1.406v2.655c0 .221-.074.369-.148.595-.074.147-.147.295-.295.442-.147.147-.295.221-.442.295-.221.074-.369.148-.59.148z"/><path fill="#686868" d="M91.048 118.544h-2.66c-.147 0-.369-.074-.516-.147-.221-.074-.369-.148-.516-.3-.074-.148-.221-.295-.295-.516-.074-.147-.074-.295-.074-.516v-2.655c0-.816.59-1.48 1.401-1.48h2.66c.221 0 .369.074.59.147.147.074.295.148.442.295.148.147.221.295.295.442.074.226.148.373.148.595v2.655c0 .147-.074.369-.148.516-.074.221-.147.369-.295.516-.147.152-.295.226-.442.3-.221.075-.369.148-.59.148z"/><path fill="#4F4F4F" d="M173.552 118.839h-2.66c-.147 0-.369-.074-.516-.148-.221-.074-.369-.147-.516-.295a1.57 1.57 0 01-.295-.442c-.074-.226-.074-.373-.074-.595v-2.655c0-.737.59-1.406 1.401-1.406h2.66c.811 0 1.475.668 1.475 1.406v2.655c0 .221-.074.369-.148.595-.074.147-.147.295-.295.442-.147.147-.295.221-.442.295-.222.075-.369.148-.59.148z"/><path fill="#686868" d="M173.552 118.176h-2.66c-.147 0-.369-.074-.516-.147-.221-.074-.369-.148-.516-.3-.074-.148-.221-.295-.295-.516-.074-.147-.074-.295-.074-.516v-2.655c0-.816.59-1.48 1.401-1.48h2.66c.221 0 .369.074.59.147.147.074.295.148.442.295.148.147.221.295.295.442.074.226.148.373.148.595v2.655c0 .147-.074.369-.148.516-.074.221-.147.369-.295.516-.147.152-.295.226-.442.3-.222.074-.369.148-.59.148z"/><path fill="#4F4F4F" d="M182.578 119.208h-2.66c-.147 0-.369-.074-.516-.148-.221-.074-.369-.147-.516-.295a1.57 1.57 0 01-.295-.442c-.074-.226-.074-.373-.074-.595v-2.655c0-.737.59-1.406 1.401-1.406h2.66c.811 0 1.475.668 1.475 1.406v2.655c0 .221-.074.369-.148.595-.074.147-.147.295-.295.442-.147.147-.295.221-.442.295-.222.074-.369.148-.59.148z"/><path fill="#686868" d="M182.578 118.544h-2.66c-.147 0-.369-.074-.516-.147-.221-.074-.369-.148-.516-.3-.074-.148-.221-.295-.295-.516-.074-.147-.074-.295-.074-.516v-2.655c0-.816.59-1.48 1.401-1.48h2.66c.221 0 .369.074.59.147.147.074.295.148.442.295.148.147.221.295.295.442.074.226.148.373.148.595v2.655c0 .147-.074.369-.148.516-.074.221-.147.369-.295.516-.147.152-.295.226-.442.3-.222.075-.369.148-.59.148z"/><path fill="#FFDAA9" stroke="#FFDAA9" stroke-miterlimit="10" stroke-width="2" d="M66.682 112.196l.023-5.74"/><path fill="#EDEDED" d="M233.578 130.786h-168.5v4.827h168.5v-4.827z"/><path fill="#E2E2E2" d="M143.697 199.385h-17.192c-.31 0-.616-.047-.923-.094s-.613-.141-.92-.235c-.255-.141-.565-.282-.821-.423-.255-.144-.46-.332-.715-.52-.204-.235-.409-.423-.562-.659-.153-.282-.31-.517-.463-.753a5.29 5.29 0 01-.255-.85 4.8 4.8 0 01-.102-.847v-59.391h26.659v59.391c0 .282 0 .565-.051.847-.102.285-.153.567-.307.803-.102.282-.255.518-.409.753-.204.282-.358.47-.616.706-.204.188-.46.376-.715.52a12.02 12.02 0 01-.817.423 4.621 4.621 0 01-.872.235 6.093 6.093 0 01-.919.094z"/><path fill="#FFF" d="M143.697 193.546h-17.192c-.31 0-.616 0-.923-.047-.307-.094-.613-.144-.92-.285a6.43 6.43 0 01-.821-.376c-.255-.188-.46-.329-.715-.565a3.588 3.588 0 01-.562-.659c-.153-.235-.31-.47-.463-.753a3.812 3.812 0 01-.255-.803 4.8 4.8 0 01-.102-.847v-53.599h26.659v53.599c0 .282 0 .565-.051.847-.102.282-.153.565-.307.803-.102.282-.255.518-.409.753-.204.235-.358.47-.616.659-.204.235-.46.376-.715.565-.255.141-.511.282-.817.376-.255.141-.565.191-.872.285-.306.047-.613.047-.919.047z"/><path fill="#E2E2E2" d="M172.065 199.385H154.87c-.307 0-.613-.047-.92-.094-.307-.047-.613-.141-.923-.235-.255-.141-.562-.282-.817-.423-.255-.144-.46-.332-.715-.52-.204-.235-.409-.423-.565-.659-.204-.282-.307-.517-.46-.753a5.29 5.29 0 01-.255-.85 4.8 4.8 0 01-.102-.847v-59.391h26.659v59.391c0 .282 0 .565-.051.847-.102.285-.153.567-.307.803-.102.282-.255.518-.409.753-.204.282-.361.47-.616.706-.204.188-.46.376-.715.52a12.02 12.02 0 01-.817.423 4.705 4.705 0 01-.872.235c-.307.047-.613.094-.92.094z"/><path fill="#FFF" d="M172.065 193.546H154.87c-.307 0-.613 0-.92-.047-.307-.094-.613-.144-.923-.285a6.321 6.321 0 01-.817-.376c-.255-.188-.46-.329-.715-.565a3.724 3.724 0 01-.565-.659c-.204-.235-.307-.47-.46-.753a3.812 3.812 0 01-.255-.803 4.8 4.8 0 01-.102-.847v-53.599h26.659v53.599c0 .282 0 .565-.051.847-.102.282-.153.565-.307.803-.102.282-.255.518-.409.753-.204.235-.361.47-.616.659-.204.235-.46.376-.715.565-.255.141-.511.282-.817.376-.259.141-.565.191-.872.285-.307.047-.613.047-.92.047z"/><path fill="#E2E2E2" d="M200.433 199.385h-17.195c-.307 0-.613-.047-.92-.094-.307-.047-.613-.141-.923-.235-.255-.141-.562-.282-.817-.423-.255-.144-.46-.332-.715-.52-.204-.235-.409-.423-.565-.659-.204-.282-.307-.518-.46-.753a5.29 5.29 0 01-.255-.85 4.8 4.8 0 01-.102-.847v-59.391h26.659v59.391c0 .282 0 .565-.051.847-.102.285-.153.567-.307.803-.102.282-.255.518-.409.753-.204.282-.361.47-.616.706-.204.188-.46.376-.715.52a12.02 12.02 0 01-.817.423 4.705 4.705 0 01-.872.235c-.307.047-.613.094-.92.094z"/><path fill="#FFF" d="M178.481 135.613h26.659v53.599c0 .282 0 .565-.051.847-.102.282-.153.565-.307.803-.102.282-.255.517-.409.753-.204.235-.361.47-.616.659-.204.235-.46.376-.715.565-.255.141-.511.282-.817.376-.259.141-.565.191-.872.285-.307.047-.613.047-.92.047h-17.195c-.307 0-.613 0-.92-.047-.307-.094-.613-.144-.923-.285a6.321 6.321 0 01-.817-.376c-.255-.188-.46-.329-.715-.565a3.724 3.724 0 01-.565-.659c-.204-.235-.307-.47-.46-.753a3.812 3.812 0 01-.255-.803 4.8 4.8 0 01-.102-.847"/><path fill="#E2E2E2" d="M228.802 199.215h-17.195c-.307 0-.613-.047-.92-.094-.307-.047-.613-.141-.923-.235-.255-.141-.562-.282-.817-.422-.255-.144-.46-.331-.715-.519-.204-.235-.409-.422-.565-.657-.204-.282-.307-.516-.46-.751-.102-.282-.204-.563-.255-.848-.051-.282-.102-.563-.102-.845v-59.233h26.659v59.233c0 .282 0 .563-.051.845-.102.284-.153.566-.307.801-.102.282-.255.516-.409.751a4.22 4.22 0 01-.616.704 3.98 3.98 0 01-.715.519c-.255.141-.511.282-.817.422a4.705 4.705 0 01-.872.235 6.119 6.119 0 01-.92.094z"/><path fill="#FFF" d="M206.849 135.613h26.659v53.599c0 .282 0 .565-.051.847-.102.282-.153.565-.307.803-.102.282-.255.518-.409.753-.204.235-.361.47-.616.659-.204.235-.46.376-.715.565-.255.141-.511.282-.817.376-.259.141-.565.191-.872.285-.307.047-.613.047-.92.047h-17.195c-.307 0-.613 0-.92-.047-.307-.094-.613-.144-.923-.285a6.321 6.321 0 01-.817-.376c-.255-.188-.46-.329-.715-.565a3.724 3.724 0 01-.565-.659c-.204-.235-.307-.47-.46-.753a3.812 3.812 0 01-.255-.803 4.8 4.8 0 01-.102-.847"/><path fill="#4C4C4C" d="M153.489 171.751h-8.596c-.259 0-.463 0-.718-.051-.204-.051-.46-.152-.664-.202a2.747 2.747 0 01-.664-.354c-.156-.152-.361-.303-.514-.455a1.6 1.6 0 01-.46-.559c-.153-.202-.255-.404-.358-.606-.102-.202-.153-.455-.204-.657-.051-.253-.051-.505-.051-.707v-29.182h15.86v29.182c0 .202 0 .455-.051.707-.051.202-.153.455-.204.657a3.694 3.694 0 01-.358.606c-.153.202-.307.407-.46.559-.153.152-.358.303-.562.455-.204.152-.412.253-.616.354-.204.051-.46.152-.715.202-.204.051-.46.051-.715.051h.05z"/><path fill="#565656" d="M153.489 165.531h-8.596c-.259 0-.463-.051-.718-.101-.204 0-.46-.101-.664-.202-.255-.051-.46-.202-.664-.303-.156-.152-.361-.306-.514-.458a1.59 1.59 0 01-.46-.556c-.153-.202-.255-.404-.358-.606a3.713 3.713 0 01-.204-.707c-.051-.202-.051-.455-.051-.71v-31.101h15.86v31.101c0 .256 0 .508-.051.71-.051.253-.153.455-.204.707a3.694 3.694 0 01-.358.606 5.443 5.443 0 01-.46.556 5.435 5.435 0 01-.562.458c-.204.101-.412.253-.616.303-.204.101-.46.202-.715.202a3.02 3.02 0 01-.715.101h.05z"/><path fill="#4C4C4C" d="M181.657 171.751h-8.596c-.259 0-.463 0-.718-.051-.204-.051-.46-.152-.664-.202a2.747 2.747 0 01-.664-.354c-.156-.152-.361-.303-.514-.455a1.6 1.6 0 01-.46-.559c-.153-.202-.255-.404-.358-.606-.102-.202-.153-.455-.204-.657-.051-.253-.051-.505-.051-.707v-29.182h15.86v29.182c0 .202 0 .455-.051.707-.051.202-.153.455-.204.657a3.694 3.694 0 01-.358.606c-.153.202-.307.407-.46.559-.153.152-.358.303-.562.455-.204.152-.412.253-.616.354-.204.051-.46.152-.715.202-.204.051-.46.051-.715.051h.05z"/><path fill="#565656" d="M181.657 165.531h-8.596c-.259 0-.463-.051-.718-.101-.204 0-.46-.101-.664-.202-.255-.051-.46-.202-.664-.303-.156-.152-.361-.306-.514-.458a1.59 1.59 0 01-.46-.556c-.153-.202-.255-.404-.358-.606a3.713 3.713 0 01-.204-.707c-.051-.202-.051-.455-.051-.71v-31.101h15.86v31.101c0 .256 0 .508-.051.71-.051.253-.153.455-.204.707a3.694 3.694 0 01-.358.606 5.443 5.443 0 01-.46.556 5.435 5.435 0 01-.562.458c-.204.101-.412.253-.616.303-.204.101-.46.202-.715.202-.204.05-.46.101-.715.101h.05z"/><path fill="#4C4C4C" d="M210.081 171.568h-8.596c-.259 0-.463 0-.718-.051-.204-.05-.46-.152-.664-.202a2.747 2.747 0 01-.664-.354c-.156-.152-.361-.303-.514-.455a1.6 1.6 0 01-.46-.559c-.153-.202-.255-.404-.358-.606-.102-.202-.153-.455-.204-.657-.051-.253-.051-.505-.051-.707v-29.182h15.86v29.182c0 .202 0 .455-.051.707-.051.202-.153.455-.204.657a3.694 3.694 0 01-.358.606c-.153.202-.307.407-.46.559-.153.152-.358.303-.562.455-.204.152-.412.253-.616.354-.204.051-.46.152-.715.202-.204.051-.46.051-.715.051h.05z"/><path fill="#565656" d="M210.081 165.348h-8.596c-.259 0-.463-.05-.718-.1-.204 0-.46-.101-.664-.201-.255-.05-.46-.201-.664-.301-.156-.151-.361-.305-.514-.455a1.582 1.582 0 01-.46-.553c-.153-.201-.255-.402-.358-.603a3.655 3.655 0 01-.204-.703c-.051-.201-.051-.452-.051-.707v-30.938h15.86v30.938c0 .254 0 .506-.051.707-.051.251-.153.452-.204.703a3.672 3.672 0 01-.358.603 5.391 5.391 0 01-.46.553 5.3 5.3 0 01-.562.455c-.204.101-.412.251-.616.301-.204.101-.46.201-.715.201-.204.05-.46.1-.715.1h.05z"/><path fill="#E2E2E2" d="M86.962 199.385H69.767c-.307 0-.613-.047-.92-.094-.307-.047-.613-.141-.923-.235-.255-.141-.562-.282-.817-.423-.255-.144-.46-.332-.715-.52-.204-.235-.409-.423-.565-.659-.204-.282-.307-.518-.46-.753a5.29 5.29 0 01-.255-.85 4.8 4.8 0 01-.102-.847v-59.391h26.659v59.391c0 .282 0 .565-.051.847-.102.285-.153.567-.307.803-.102.282-.255.518-.409.753-.204.282-.361.47-.616.706-.204.188-.46.376-.715.52a12.02 12.02 0 01-.817.423 4.705 4.705 0 01-.872.235c-.307.047-.613.094-.92.094z"/><path fill="#FFF" d="M65.009 135.613h26.659v53.599c0 .282 0 .565-.051.847-.102.282-.153.565-.307.803-.102.282-.255.518-.409.753-.204.235-.361.47-.616.659-.204.235-.46.376-.715.565-.255.141-.511.282-.817.376-.259.141-.565.191-.872.285-.307.047-.613.047-.92.047H69.767c-.307 0-.613 0-.92-.047-.307-.094-.613-.144-.923-.285a6.321 6.321 0 01-.817-.376c-.255-.188-.46-.329-.715-.565a3.724 3.724 0 01-.565-.659c-.204-.235-.307-.47-.46-.753a3.812 3.812 0 01-.255-.803 4.8 4.8 0 01-.102-.847"/><path fill="#E2E2E2" d="M115.33 199.215H98.135c-.307 0-.613-.047-.92-.094-.307-.047-.613-.141-.923-.235-.255-.141-.562-.282-.817-.422-.255-.144-.46-.331-.715-.519-.204-.235-.409-.422-.565-.657-.204-.282-.307-.516-.46-.751-.102-.282-.204-.563-.255-.848-.051-.282-.102-.563-.102-.845v-59.233h26.659v59.233c0 .282 0 .563-.051.845-.102.284-.153.566-.307.801-.102.282-.255.516-.409.751a4.22 4.22 0 01-.616.704 3.98 3.98 0 01-.715.519c-.255.141-.511.282-.817.422a4.705 4.705 0 01-.872.235c-.307.047-.613.094-.92.094z"/><path fill="#FFF" d="M93.378 135.913h26.659v53.321c0 .281 0 .562-.051.842-.102.281-.153.562-.307.799-.102.281-.255.515-.409.749-.204.234-.361.468-.616.655-.204.234-.46.374-.715.562-.255.14-.511.281-.817.374-.259.14-.565.19-.872.284-.307.047-.613.047-.92.047H98.135c-.307 0-.613 0-.92-.047-.307-.094-.613-.143-.923-.284a6.44 6.44 0 01-.817-.374c-.255-.187-.46-.328-.715-.562a3.733 3.733 0 01-.565-.655c-.204-.234-.307-.468-.46-.749a3.794 3.794 0 01-.255-.799c-.051-.281-.102-.562-.102-.842"/><path fill="#4C4C4C" d="M96.82 171.568h-8.596c-.259 0-.463 0-.718-.051-.204-.05-.46-.152-.664-.202a2.747 2.747 0 01-.664-.354c-.156-.152-.361-.303-.514-.455a1.6 1.6 0 01-.46-.559c-.153-.202-.255-.404-.358-.606-.102-.202-.153-.455-.204-.657-.051-.253-.051-.505-.051-.707v-29.182h15.86v29.182c0 .202 0 .455-.051.707-.051.202-.153.455-.204.657a3.694 3.694 0 01-.358.606c-.153.202-.307.407-.46.559-.153.152-.358.303-.562.455-.204.152-.412.253-.616.354-.204.051-.46.152-.715.202-.204.051-.46.051-.715.051h.05z"/><path fill="#565656" d="M96.82 165.348h-8.596c-.259 0-.463-.05-.718-.1-.204 0-.46-.101-.664-.201-.255-.05-.46-.201-.664-.301-.156-.151-.361-.305-.514-.455a1.582 1.582 0 01-.46-.553c-.153-.201-.255-.402-.358-.603a3.655 3.655 0 01-.204-.703c-.051-.201-.051-.452-.051-.707v-30.938h15.86v30.938c0 .254 0 .506-.051.707-.051.251-.153.452-.204.703a3.672 3.672 0 01-.358.603 5.391 5.391 0 01-.46.553 5.3 5.3 0 01-.562.455c-.204.101-.412.251-.616.301-.204.101-.46.201-.715.201-.204.05-.46.1-.715.1h.05z"/><path fill="#FFDAA9" d="M131.094 124.64c-.101 0-.254 0-.355-.051-.152 0-.254-.051-.355-.101l-.304-.152a1.339 1.339 0 01-.304-.254c-.102-.051-.152-.152-.254-.254a2.066 2.066 0 01-.155-.355.729.729 0 01-.101-.355c-.051-.101-.051-.203-.051-.355v-14.48c0-.101 0-.254.051-.355 0-.152.051-.254.101-.355.051-.101.101-.203.155-.304.101-.101.152-.203.254-.304.101-.102.203-.152.304-.254l.304-.152a.732.732 0 01.355-.101c.101-.051.254-.051.355-.051.101 0 .254 0 .355.051.155 0 .257.051.358.101.101.051.254.101.355.152l.254.254c.101.101.152.203.254.304l.152.304c.05.101.101.203.101.355.051.102.051.254.051.355v14.48c0 .152 0 .254-.051.355 0 .152-.051.254-.101.355a2.46 2.46 0 01-.152.355c-.101.101-.152.203-.254.254-.102.101-.152.203-.254.254-.101.051-.254.101-.355.152a.731.731 0 01-.358.101c-.101.051-.254.051-.355.051z"/><path fill="#383838" d="M131.094 123.423c-.101 0-.152-.051-.254-.051-.051-.051-.152-.101-.203-.152a.384.384 0 01-.102-.203c-.051-.101-.051-.152-.051-.254v-14.48c0-.101 0-.152.051-.254 0-.051.051-.152.102-.203.051-.051.152-.101.203-.152.101 0 .152-.051.254-.051.101 0 .152.051.254.051.051.051.152.101.203.152a.37.37 0 01.105.203c.051.101.051.152.051.254v14.48c0 .101 0 .152-.051.254a.37.37 0 01-.105.203c-.051.051-.152.101-.203.152-.102 0-.153.051-.254.051z"/><path fill="#4F4F4F" d="M133.255 117.238v.558c0 .101-.051.254-.051.406-.051.101-.102.254-.152.355a1.468 1.468 0 01-.206.406c-.101.101-.152.203-.254.304-.101.101-.203.152-.355.254-.101.051-.203.152-.355.203-.101.051-.254.051-.406.105-.101.051-.254.051-.406.051-.152 0-.257 0-.409-.051-.152-.054-.254-.054-.406-.105-.101-.051-.254-.152-.355-.203-.101-.101-.254-.152-.304-.254l-.304-.304c-.051-.152-.152-.254-.203-.406a.934.934 0 01-.101-.355c-.051-.152-.051-.304-.051-.406v-.558c0-.46.101-.815.304-1.17h.507c.203-.152.406-.254.609-.355.254-.051.457-.101.714-.101.254 0 .457.051.71.101.203.101.406.203.609.355h.507c.206.355.358.711.358 1.17z"/><path fill="#686868" d="M133.255 117.238c0 .101-.051.254-.051.406a3.31 3.31 0 00-.152.406c-.051.101-.102.203-.206.355-.101.101-.152.203-.254.304-.101.101-.203.152-.355.254-.101.051-.203.152-.355.203a.952.952 0 01-.406.101c-.101.051-.254.051-.406.051-.152 0-.257 0-.409-.051-.152 0-.254-.051-.406-.101-.101-.051-.254-.152-.355-.203-.101-.101-.254-.152-.304-.254l-.304-.304c-.051-.152-.152-.254-.203-.355-.051-.152-.101-.304-.101-.406-.051-.152-.051-.304-.051-.406 0-.46.101-.815.304-1.17a.711.711 0 01.152-.203c.051-.101.152-.152.203-.203.051-.101.152-.152.203-.203.101-.051.152-.101.254-.152.051-.051.152-.051.203-.101.102-.051.203-.051.304-.101.051 0 .152 0 .254-.051h.511c.102.051.203.051.304.051.051.051.152.051.254.101.051.051.152.051.254.101.051.051.152.101.203.152a.398.398 0 01.203.203.398.398 0 01.203.203c.051.051.101.101.152.203.205.355.357.711.357 1.17z"/><path fill="#FFDAA9" d="M141.462 124.64c-.102 0-.254 0-.355-.051a.953.953 0 01-.355-.101l-.304-.152a1.339 1.339 0 01-.304-.254c-.101-.051-.152-.152-.254-.254a2.46 2.46 0 01-.152-.355.729.729 0 01-.101-.355c-.051-.101-.051-.203-.051-.355v-14.48c0-1.015.863-1.877 1.877-1.877 1.018 0 1.881.863 1.881 1.877v14.48c0 .152 0 .254-.051.355 0 .152-.051.254-.101.355a2.46 2.46 0 01-.152.355c-.101.101-.152.203-.254.254-.101.101-.152.203-.254.254-.102.051-.254.101-.355.152a.732.732 0 01-.355.101c-.103.051-.205.051-.36.051z"/><path fill="#383838" d="M141.462 123.423c-.102 0-.152-.051-.254-.051-.051-.051-.101-.101-.203-.152a.382.382 0 01-.101-.203c-.051-.101-.051-.152-.051-.254v-14.48c0-.101 0-.152.051-.254 0-.051.051-.102.101-.203.101-.051.152-.101.203-.101.102-.051.152-.051.254-.051.101 0 .155 0 .257.051a.39.39 0 01.203.101c.051.101.101.152.101.203.051.101.051.152.051.254v14.48c0 .101 0 .152-.051.254a.39.39 0 01-.101.203c-.051.051-.152.101-.203.152-.102 0-.156.051-.257.051z"/><path fill="#4F4F4F" d="M143.623 109.859v.558c0 .101-.051.254-.051.406-.051.101-.102.254-.152.355a1.468 1.468 0 01-.206.406c-.101.101-.152.203-.254.304-.101.101-.203.152-.355.254-.101.051-.203.152-.355.203-.101.051-.254.051-.406.105-.101.051-.254.051-.406.051-.152 0-.257 0-.409-.051-.152-.054-.254-.054-.406-.105-.101-.051-.254-.152-.355-.203-.101-.101-.254-.152-.304-.254l-.304-.304c-.051-.152-.152-.254-.203-.406a.934.934 0 01-.101-.355c-.051-.152-.051-.304-.051-.406v-.558c0-.46.101-.815.304-1.17h.507c.203-.152.406-.254.609-.355.254-.051.457-.101.714-.101.254 0 .457.051.71.101.203.101.406.203.609.355h.507c.206.355.358.71.358 1.17z"/><path fill="#686868" d="M143.623 109.859c0 .101-.051.254-.051.406a3.31 3.31 0 00-.152.406c-.051.101-.102.203-.206.355-.101.101-.152.203-.254.304-.101.101-.203.152-.355.254-.101.051-.203.152-.355.203a.952.952 0 01-.406.101c-.101.051-.254.051-.406.051-.152 0-.257 0-.409-.051-.152 0-.254-.051-.406-.101-.101-.051-.254-.152-.355-.203-.101-.101-.254-.152-.304-.254l-.304-.304c-.051-.152-.152-.254-.203-.355-.051-.152-.101-.304-.101-.406-.051-.152-.051-.304-.051-.406 0-.46.101-.815.304-1.17a.711.711 0 01.152-.203c.051-.101.152-.152.203-.203.051-.101.152-.152.203-.203.101-.051.152-.101.254-.152.051-.051.152-.051.203-.101.102-.051.203-.051.304-.101.051 0 .152 0 .254-.051h.511c.102.051.203.051.304.051.051.051.152.051.254.101.051.051.152.051.254.101.051.051.152.101.203.152a.398.398 0 01.203.203.398.398 0 01.203.203c.051.051.101.101.152.203.205.355.357.71.357 1.17z"/><g><path fill="#FFDAA9" d="M151.831 124.64c-.101 0-.257 0-.358-.051a.953.953 0 01-.355-.101l-.304-.152a1.339 1.339 0 01-.304-.254c-.101-.051-.152-.152-.254-.254a2.46 2.46 0 01-.152-.355.729.729 0 01-.101-.355c-.051-.101-.051-.203-.051-.355v-14.48c0-.101 0-.254.051-.355 0-.152.051-.254.101-.355l.152-.304c.101-.101.152-.203.254-.304.101-.102.203-.152.304-.254l.304-.152a.934.934 0 01.355-.101c.101-.051.257-.051.358-.051.152 0 .254 0 .355.051.152 0 .254.051.355.101.101.051.254.101.355.152.102.102.203.152.254.254.101.101.152.203.254.304l.152.304a.729.729 0 01.102.355c.054.102.054.254.054.355v14.48c0 .152 0 .254-.054.355a.729.729 0 01-.102.355 2.46 2.46 0 01-.152.355c-.101.101-.152.203-.254.254-.101.101-.152.203-.254.254-.101.051-.254.101-.355.152a.729.729 0 01-.355.101c-.101.051-.202.051-.355.051z"/><path fill="#383838" d="M151.831 123.423c-.101 0-.152-.051-.257-.051-.051-.051-.101-.101-.203-.152a.382.382 0 01-.101-.203c-.051-.101-.051-.152-.051-.254v-14.48c0-.101 0-.152.051-.254 0-.051.051-.102.101-.203.101-.051.152-.101.203-.101.105-.051.206-.051.257-.051.101 0 .152 0 .254.051a.39.39 0 01.203.101c.051.101.101.152.101.203.051.101.051.152.051.254v14.734c-.051.051-.102.152-.152.203-.051.051-.152.101-.203.152-.101 0-.152.051-.254.051z"/><path fill="#4F4F4F" d="M153.991 119.208v.558c0 .101-.051.254-.051.406-.051.101-.102.254-.152.355a1.441 1.441 0 01-.206.406c-.101.101-.152.203-.254.304-.101.101-.203.152-.355.254-.101.051-.203.152-.355.203-.101.051-.254.051-.406.105-.101.051-.254.051-.406.051-.152 0-.257 0-.409-.051-.152-.054-.254-.054-.406-.105-.101-.051-.254-.152-.355-.203-.101-.101-.254-.152-.304-.254l-.304-.304c-.051-.152-.152-.254-.203-.406a.934.934 0 01-.101-.355c-.051-.152-.051-.304-.051-.406v-.558c0-.46.101-.815.304-1.17h.507c.203-.152.406-.254.609-.355.254-.051.457-.101.714-.101.254 0 .457.051.71.101.203.101.406.203.609.355h.507c.206.355.358.71.358 1.17z"/><path fill="#686868" d="M153.991 119.208c0 .101-.051.254-.051.406a3.31 3.31 0 00-.152.406c-.051.101-.101.203-.206.355-.101.101-.152.203-.254.304-.101.101-.203.152-.355.254-.101.051-.203.152-.355.203a.952.952 0 01-.406.101c-.101.051-.254.051-.406.051-.152 0-.257 0-.409-.051-.152 0-.254-.051-.406-.101-.101-.051-.254-.152-.355-.203-.101-.101-.254-.152-.304-.254l-.304-.304c-.051-.152-.152-.254-.203-.355-.051-.152-.101-.304-.101-.406-.051-.152-.051-.304-.051-.406 0-.46.101-.815.304-1.17a.711.711 0 01.152-.203c.051-.101.152-.152.203-.203.051-.101.152-.152.203-.203.101-.051.152-.101.254-.152.051-.051.152-.051.203-.101.102-.051.203-.051.304-.101.051 0 .152 0 .254-.051h.511c.102.051.203.051.304.051.051.051.152.051.254.101.051.051.152.051.254.101.051.051.152.101.203.152a.398.398 0 01.203.203.398.398 0 01.203.203c.051.051.101.101.152.203.205.355.357.71.357 1.17z"/></g></svg>