<svg xmlns="http://www.w3.org/2000/svg" version="1.0" viewBox="0 0 300 300"><circle cx="153.515" cy="150" r="150.002" fill="#FFF"/><circle cx="153.515" cy="150" r="140.815" fill="#EB595B"/><path fill="#5E0902" d="M229.828 207.271H77.968c-1.535 0-2.778-.891-2.778-1.991v-99.223h157.416v99.223c0 1.1-1.243 1.991-2.778 1.991z"/><path fill="#841803" d="M229.828 199.005H78.134c-1.627 0-2.944-.945-2.944-2.11v-90.837h157.416v90.957c0 1.1-1.243 1.99-2.778 1.99z"/><path fill="#E2E2E2" d="M132.663 218.34h-32.22a1.332 1.332 0 01-1.332-1.332V127.77h34.884v89.237c0 .736-.596 1.333-1.332 1.333z"/><path fill="#FFF" d="M132.663 210.092h-32.22a1.332 1.332 0 01-1.332-1.332v-80.99h34.884v80.989c0 .736-.596 1.333-1.332 1.333z"/><path fill="#E2E2E2" d="M170.007 218.34h-32.22a1.332 1.332 0 01-1.332-1.332V127.77h34.884v89.237c0 .736-.597 1.333-1.332 1.333z"/><path fill="#FFF" d="M170.007 210.092h-32.22a1.332 1.332 0 01-1.332-1.332v-80.99h34.884v80.989c0 .736-.597 1.333-1.332 1.333z"/><path fill="#E2E2E2" d="M207.353 218.34h-32.22a1.332 1.332 0 01-1.332-1.332V127.77h34.884v89.237c0 .736-.597 1.333-1.332 1.333z"/><path fill="#FFF" d="M207.353 210.092h-32.22a1.332 1.332 0 01-1.332-1.332v-80.99h34.884v80.989c0 .736-.597 1.333-1.332 1.333z"/><path fill="#4C4C4C" d="M145.356 181.964h-20.262a.253.253 0 01-.253-.253v-43.097h20.767v43.097a.252.252 0 01-.252.253z"/><path fill="#565656" d="M145.356 173.715h-20.262a.253.253 0 01-.253-.253V127.77h20.767v45.692a.251.251 0 01-.252.253z"/><path fill="#4C4C4C" d="M182.294 181.964h-20.262a.253.253 0 01-.253-.253v-43.097h20.767v43.097a.252.252 0 01-.252.253z"/><path fill="#565656" d="M182.294 173.715h-20.262a.253.253 0 01-.253-.253V127.77h20.767v45.692a.251.251 0 01-.252.253z"/><path fill="#841803" d="M75.19 127.769V85.486c0-2.113 2.39-3.826 5.338-3.826h146.74c2.948 0 5.338 1.713 5.338 3.826v42.284l-157.416-.001z"/><path fill="#3D3D3D" d="M85.778 97.538h136.241c1.302 0 2.356.734 2.356 1.64v27.376c0 .906-1.055 1.64-2.356 1.64H85.778c-1.302 0-2.356-.734-2.356-1.64V99.178c.001-.906 1.055-1.64 2.356-1.64z"/><path fill="#3D3D3D" d="M85.778 97.538h136.241c1.302 0 2.356.734 2.356 1.64v27.376c0 .906-1.055 1.64-2.356 1.64H85.778c-1.302 0-2.356-.734-2.356-1.64V99.178c.001-.906 1.055-1.64 2.356-1.64z"/><path fill="#232323" d="M85.778 97.538h136.241c1.302 0 2.356.734 2.356 1.64v27.376c0 .906-1.055 1.64-2.356 1.64H85.778c-1.302 0-2.356-.734-2.356-1.64V99.178c.001-.906 1.055-1.64 2.356-1.64z"/><path fill="#FFF" d="M114.757 111.683c-.41-.629-1.121-1.066-1.941-1.066s-1.531.437-1.941 1.066c-.246.356-.355.793-.355 1.23 0 .109 0 .246.055.356.136 1.093 1.066 1.941 2.241 1.941 1.121 0 2.078-.82 2.242-1.886.055-.137.055-.274.055-.41 0-.438-.137-.875-.356-1.231z"/><path fill="#686868" d="M114.269 111.992a1.74 1.74 0 00-1.452-.798c-.614 0-1.145.327-1.452.798a1.615 1.615 0 00-.266.92c0 .082 0 .184.041.266a1.666 1.666 0 001.677 1.452c.839 0 1.555-.614 1.678-1.411.041-.102.041-.205.041-.307a1.81 1.81 0 00-.267-.92z"/><path fill="#4F4F4F" d="M114.535 112.913c0 .102 0 .205-.041.307 0-.266-.102-.511-.225-.716a1.74 1.74 0 00-1.452-.798c-.614 0-1.145.327-1.452.798-.143.205-.225.43-.225.675-.041-.082-.041-.184-.041-.266 0-.327.082-.654.266-.92a1.74 1.74 0 011.452-.798c.614 0 1.146.327 1.452.798.163.266.266.593.266.92z"/><circle cx="125.839" cy="112.917" r="5.443" fill="#FFF"/><path fill="#4F4F4F" d="M130.179 111.806v1.111a4.341 4.341 0 01-8.68 0v-1.111c0-.851.243-1.644.671-2.315h1.013c.735-.573 1.655-.914 2.656-.914s1.921.341 2.656.914h1.013a4.29 4.29 0 01.671 2.315z"/><path fill="#686868" d="M130.179 111.806a4.341 4.341 0 01-8.68 0c0-.851.243-1.644.671-2.315.764-1.215 2.124-2.025 3.669-2.025s2.905.81 3.669 2.025a4.29 4.29 0 01.671 2.315z"/><circle cx="139.731" cy="112.917" r="5.443" fill="#FFF"/><path fill="#4F4F4F" d="M144.072 111.806v1.111a4.341 4.341 0 01-8.68 0v-1.111c0-.851.243-1.644.671-2.315h1.013c.735-.573 1.655-.914 2.656-.914s1.921.341 2.656.914h1.013a4.29 4.29 0 01.671 2.315z"/><path fill="#686868" d="M144.072 111.806a4.341 4.341 0 01-8.68 0c0-.851.243-1.644.671-2.315a4.331 4.331 0 013.669-2.025c1.545 0 2.905.81 3.669 2.025a4.29 4.29 0 01.671 2.315z"/><circle cx="180.747" cy="106.729" r="3.582" fill="#FFF"/><circle cx="180.747" cy="106.729" r="3.582" fill="#FFF"/><path fill="#4F4F4F" d="M183.604 104.354v2.375a2.857 2.857 0 01-5.712 0v-2.375c0-.56 1.108-1.668 1.108-1.668.484-.377 1.089-.602 1.748-.602s1.264.225 1.748.602c0 0 1.108 1.108 1.108 1.668z"/><path fill="#686868" d="M183.604 104.426a2.857 2.857 0 01-5.712 0c0-.56.16-1.082.442-1.523a2.85 2.85 0 012.415-1.333 2.85 2.85 0 012.855 2.856z"/><path fill="#686868" d="M180.665 102.337h.165v.667h-.165zm-2.193.628l.143-.083.333.578-.143.082zm-2.291 1.245l.226-.39.887.512-.225.39zm-.577 2.143h1.025v.451h-1.025zm.562 2.599l.887-.512.226.39-.888.513zm1.804 1.978l.511-.886.39.225-.51.887zm2.552-.232h.451v1.024h-.451zm2.082-.447l.39-.225.512.886-.39.226zm1.594-1.405l.226-.39.886.511-.225.39zm.669-2.493h1.025v.451h-1.025zm-.663-2.023l.887-.512.225.39-.886.513zm-1.674-.868l.334-.578.142.083-.333.578z"/><path fill="#FFF" d="M169.665 104.71a2.323 2.323 0 00-1.941-1.066c-.82 0-1.531.437-1.941 1.066-.246.356-.355.793-.355 1.23 0 .109 0 .246.055.356.136 1.093 1.066 1.941 2.241 1.941 1.121 0 2.078-.82 2.242-1.886.055-.137.055-.274.055-.41 0-.438-.137-.876-.356-1.231z"/><path fill="#686868" d="M169.177 105.019a1.74 1.74 0 00-1.452-.798c-.614 0-1.145.327-1.452.798a1.615 1.615 0 00-.266.92c0 .082 0 .184.041.266a1.666 1.666 0 001.677 1.452c.839 0 1.555-.614 1.678-1.411.041-.102.041-.205.041-.307a1.8 1.8 0 00-.267-.92z"/><path fill="#4F4F4F" d="M169.443 105.94c0 .102 0 .205-.041.307 0-.266-.102-.511-.225-.716a1.74 1.74 0 00-1.452-.798c-.614 0-1.145.327-1.452.798-.143.205-.225.43-.225.675-.041-.082-.041-.184-.041-.266 0-.327.082-.654.266-.92a1.74 1.74 0 011.452-.798c.614 0 1.146.327 1.452.798.164.266.266.593.266.92z"/><circle cx="193.694" cy="106.729" r="3.582" fill="#FFF"/><path fill="#4F4F4F" d="M196.55 104.354v2.375a2.857 2.857 0 01-5.712 0v-2.375c0-.56 1.108-1.668 1.108-1.668.484-.377 1.089-.602 1.748-.602s1.264.225 1.748.602c0 0 1.108 1.108 1.108 1.668z"/><path fill="#686868" d="M196.55 104.426a2.857 2.857 0 01-5.712 0c0-.56.16-1.082.442-1.523a2.85 2.85 0 012.415-1.333 2.85 2.85 0 012.855 2.856z"/><circle cx="180.747" cy="118.073" r="3.582" fill="#FFF"/><circle cx="180.747" cy="118.073" r="3.582" fill="#FFF"/><path fill="#4F4F4F" d="M183.604 115.698v2.375a2.857 2.857 0 01-5.712 0v-2.375c0-.56 1.108-1.668 1.108-1.668.484-.377 1.089-.602 1.748-.602s1.264.225 1.748.602c0 0 1.108 1.108 1.108 1.668z"/><path fill="#686868" d="M183.604 115.77a2.857 2.857 0 01-5.712 0c0-.56.16-1.082.442-1.523a2.85 2.85 0 012.415-1.333 2.85 2.85 0 012.855 2.856z"/><path fill="#686868" d="M180.665 113.681h.165v.667h-.165zm-2.193.628l.143-.083.333.578-.143.082zm-2.292 1.246l.226-.39.888.512-.226.391zm-.576 2.142h1.025v.451h-1.025zm.562 2.599l.887-.512.226.39-.888.512zm1.802 1.977l.512-.887.39.226-.511.887zm2.554-.231h.451v1.024h-.451zm2.081-.448l.39-.225.513.886-.39.226zm1.595-1.404l.225-.391.887.512-.226.39zm.669-2.493h1.025v.451h-1.025zm-.663-2.024l.886-.512.226.39-.887.513zm-1.674-.867l.334-.578.143.083-.334.577z"/><path fill="#FFF" d="M169.665 116.054a2.323 2.323 0 00-1.941-1.066c-.82 0-1.531.437-1.941 1.066-.246.356-.355.793-.355 1.23 0 .109 0 .246.055.356.136 1.093 1.066 1.941 2.241 1.941 1.121 0 2.078-.82 2.242-1.886.055-.137.055-.274.055-.41 0-.438-.137-.876-.356-1.231z"/><path fill="#686868" d="M169.177 116.363a1.74 1.74 0 00-1.452-.798c-.614 0-1.145.327-1.452.798a1.615 1.615 0 00-.266.92c0 .082 0 .184.041.266a1.666 1.666 0 001.677 1.452c.839 0 1.555-.614 1.678-1.411.041-.102.041-.205.041-.307a1.798 1.798 0 00-.267-.92z"/><path fill="#4F4F4F" d="M169.443 117.284c0 .102 0 .205-.041.307 0-.266-.102-.511-.225-.716a1.74 1.74 0 00-1.452-.798c-.614 0-1.145.327-1.452.798-.143.205-.225.43-.225.675-.041-.082-.041-.184-.041-.266 0-.327.082-.654.266-.92a1.74 1.74 0 011.452-.798c.614 0 1.146.327 1.452.798.164.265.266.593.266.92z"/><g><circle cx="193.694" cy="118.073" r="3.582" fill="#FFF"/><path fill="#4F4F4F" d="M196.55 115.698v2.375a2.857 2.857 0 01-5.712 0v-2.375c0-.56 1.108-1.668 1.108-1.668.484-.377 1.089-.602 1.748-.602s1.264.225 1.748.602c0 0 1.108 1.108 1.108 1.668z"/><path fill="#686868" d="M196.55 115.77a2.857 2.857 0 01-5.712 0c0-.56.16-1.082.442-1.523a2.85 2.85 0 012.415-1.333 2.85 2.85 0 012.855 2.856z"/></g></svg>