<svg viewBox="0 0 300 300" xmlns="http://www.w3.org/2000/svg"><path d="m149.999 300c-82.709 0-149.999-67.29-149.999-150s67.29-150 149.999-150c82.711 0 150.001 67.29 150.001 150s-67.29 150-150.001 150z" fill="#fff"/><circle cx="150" cy="150" fill="#eb595b" r="140.812"/><path d="m199.632 212.973 5.494-1.196v-4.43l-2.898-2.175 2.898-5.958v-37.697l-.919-.711-.675-3.65-2.316-3.229 3.91-3.927v-14.841l-.919-2.845.919-7.108v-10.228l-1.357-4.758 1.357-16.078v-10.425a2.625 2.625 0 0 0 -2.625-2.625h-21.537l-7.547 4.026-3.142-2.746-8.991-1.28h-24.775l-15.1 2.221-6.565-2.221h-17.345a2.625 2.625 0 0 0 -2.625 2.625v7.471l.94 13.453-.94 6.07v16.406l3.073 3.282-3.073 11.321v12.868l3.237 4.851-3.237 3.117v15.657l1.815 16.008-1.815 12.469v9.591a2.625 2.625 0 0 0 2.625 2.625l18.006-.006 5.849-3.186 2.913 1.912 13.645.072 3.281-1.066-.261 1.543 1.039.717 59.666-.022-1.477-2.335.577-1.4z" fill="#fffbf3"/><path d="m104.113 201.183h91.786a1.969 1.969 0 1 0 0-3.938h-91.786a1.969 1.969 0 1 0 0 3.938m0-32.813h91.786a1.969 1.969 0 1 0 0-3.938h-91.786a1.969 1.969 0 1 0 0 3.938m0-32.813h91.786a1.969 1.969 0 1 0 0-3.938h-91.786a1.969 1.969 0 1 0 0 3.938m0-32.813h91.786a1.969 1.969 0 1 0 0-3.938h-91.786a1.969 1.969 0 1 0 0 3.938m0 10.5h91.786a.656.656 0 0 0 0-1.312h-91.786a.656.656 0 0 0 0 1.312m0 9.188h91.786a.656.656 0 0 0 0-1.312h-91.786a.656.656 0 0 0 0 1.312m0 23.625h91.786a.656.656 0 0 0 0-1.312h-91.786a.656.656 0 0 0 0 1.312m0 9.188h91.786a.656.656 0 0 0 0-1.312h-91.786a.656.656 0 0 0 0 1.312m0 23.625h91.786a.656.656 0 0 0 0-1.312h-91.786a.656.656 0 0 0 0 1.312m0 9.188h91.786a.656.656 0 0 0 0-1.312h-91.786a.656.656 0 0 0 0 1.312" fill="#ddd6ca"/><path d="m130.224 114.487c2.547 1.165 3.652 5.216 3.315 12.152v25.844c.038 2.72-2.415 5.619-7.36 8.698l12.36-.041-5.843 8.324-15.45.041 6.517-8.448-.056-26.761c.599-5.715-.299-8.435-2.697-8.157l-5.337 4.537-1.517-1.29zm-1.629 11.362c-4.532 1.443-6.798 4.619-6.798 9.531v22.39c.075 5.049-2.472 7.574-7.641 7.574 3.633-.443 5.374-3.01 5.224-7.7l-.056-22.473c.226-5.16 3.316-8.268 9.271-9.322zm21.293-11.362c2.547 1.165 3.652 5.77 3.315 13.817l15.225-13.068c3.97 2.969 5.918 8.31 5.843 16.023l-.112 19.144c.824 9.377-4.307 17.132-15.394 23.264 4.682-.582 8.745.347 12.191 2.789 3.446 2.44 6.292 3.55 8.54 3.329l4.438-3.995 1.91.998-10.787 10.613c-3.071-.472-6.517-1.832-10.337-4.079s-8.277-2.885-13.371-1.915c9.139-10.737 13.352-21.239 12.641-31.504v-15.232c.449-7.214-.562-10.613-3.034-10.196l-7.753 6.867v21.183c-.412 3.69-2.809 6.561-7.191 8.615h13.427l-6.236 8.324-15.731.041 5.956-8.032-.056-27.177c.599-5.993-.3-8.989-2.697-8.989l-6.461 5.785.169-2.955z" fill="#565656"/></svg>
