<svg xmlns="http://www.w3.org/2000/svg" version="1.0" viewBox="0 0 300 300"><circle cx="150" cy="150" r="149" fill="#FFF"/><circle cx="150" cy="150" r="139.873" fill="#EB595B"/><path fill="#A8A8A8" d="M92.038 180.517l11.926 28.996 107.303-2.438-21.368-50.405z"/><path fill="#1C1C1C" d="M192.015 161.836l13.009 29.983-17.019 8.317-18.677-41.543 21.141-.006z"/><path fill="#1C1C1C" d="M176.415 109.535l14.808-.227.803 52.522-14.807.226z"/><circle cx="184.268" cy="114.472" r="13.021" fill="#3D3D3D"/><path fill="#BFBFBF" d="M87.122 207.156l.236 2.112c.035 1.273 2.151 3.513 3.618 3.503l117.46-1.203c1.273-.008 2.316-.812 2.469-1.902l.363-2.591"/><path fill="#515151" d="M117.485 209.182l-24.958 3.564a8.73 8.73 0 01-9.97-7.282l-2.908-18.667a8.73 8.73 0 017.282-9.97l25.81-4.021 4.744 36.376z"/><path fill="#3D3D3D" d="M197.858 202.767l-19.527.436 9.279-15.9 9.812-4.063z"/><path fill="#515151" d="M198.772 207.294l-19.528.436 9.279-15.9 9.813-4.063z"/><path fill="#1C1C1C" d="M184.105 187.473c-.614-.215-20.011 3.902-20.011 3.902l-7.121-15.434 30.782-12.707 3.505 7.194-7.155 17.045z"/><path fill="#3D3D3D" d="M178.331 203.203l.913 4.527 9.279-15.9 9.813-4.063-.914-4.527-9.812 4.063-9.306 15.6"/><path fill="#3D3D3D" d="M195.673 154.769l14.808-.227.804 52.522-14.808.226z"/><path fill="#515151" d="M117.485 209.182l-8.627-35.517 66.699-33.794 12.583 31.667-70.655 37.644"/><circle cx="191.586" cy="186.589" r="2.683" fill="#E2E2E2"/><path fill="#E2E2E2" d="M187.156 182.094l5.055-1.805 1.968 5.515-5.054 1.805z"/><circle cx="189.68" cy="181.194" r="2.683" fill="#3D3D3D"/><path fill="#3D3D3D" d="M125.147 209.04l-7.662.142 70.662-37.637-1.366 4.502z"/><path fill="#515151" d="M179.252 150.314l9.267-4.504.008 4.545 4.422 4.325-17.507 8.12-4.706-10.584z"/><circle cx="184.433" cy="114.592" r="10.293" fill="#D6D6D6"/><path fill="#3D3D3D" d="M177.661 114.707s19.286 30.285 19.237 32.018c-.049 1.733 13.051-.687 13.051-.687l-18.816-33.184-13.472 1.853z"/><circle cx="184.386" cy="114.923" r="7.085" fill="#3D3D3D"/><path fill="#3D3D3D" d="M105.786 189.716l-1.001-4.191a3.303 3.303 0 012.445-3.98l14.993-3.582a3.303 3.303 0 013.98 2.445l1.001 4.191a3.303 3.303 0 01-2.445 3.98l-14.993 3.582a3.303 3.303 0 01-3.98-2.445z"/><path fill="#515151" d="M191.419 112.851c-4.729-.662-9.165 1.895-11.096 6l-6.469 11.09.482 4.027 5.08-9.168c.619 4.609 4.224 8.435 9.056 9.111 5.816.814 11.19-3.241 12.004-9.056.813-5.815-3.242-11.19-9.057-12.004z"/><path fill="#E2E2E2" d="M102.3 91.27l2.324-4.831 78.538 37.792-2.325 4.831z"/><circle cx="103.959" cy="88.876" r="8.936" fill="#EFEFEF"/><path fill="#EFEFEF" d="M92.872 93.439l7.776-16.092 7.2 3.479-7.777 16.092z"/><circle cx="96.956" cy="85.54" r="9.008" fill="#FFF"/><circle cx="96.387" cy="84.909" r="6.32" fill="#D6D6D6"/><circle cx="96.344" cy="84.993" r="2.683" fill="#E2E2E2"/><path fill="#E2E2E2" d="M90.031 84.866l2.359-4.821 5.26 2.573-2.358 4.821z"/><circle cx="91.212" cy="82.462" r="2.683" fill="#3D3D3D"/><path fill="#B7B7B7" d="M201.227 127.772c.814-5.816-3.241-11.19-9.056-12.004a10.628 10.628 0 00-10.022 4.205l-.044-.025-.291.526c-.3.457-.57.936-.799 1.441l-6.679 12.053 18.461 10.23 6.339-11.439a10.594 10.594 0 002.091-4.987z"/><circle cx="193.496" cy="129.363" r="6.67" fill="#3D3D3D"/><path fill="#E2E2E2" d="M193.818 136.417a2.952 2.952 0 001.226-2.004 2.969 2.969 0 00-5.879-.823 2.951 2.951 0 00.629 2.263 2.952 2.952 0 00-1.226 2.004c-.096.683.06 1.337.38 1.89a2.945 2.945 0 00-.885 1.713 2.96 2.96 0 00.272 1.714 2.937 2.937 0 00-.33 3.498 2.938 2.938 0 00-.915 1.741 2.969 2.969 0 005.879.823 2.937 2.937 0 00-.402-1.925 2.943 2.943 0 00.643-3.455 2.938 2.938 0 00.352-3.463c.46-.444.789-1.031.885-1.713a2.954 2.954 0 00-.629-2.263zm-4.038 14.194a1.628 1.628 0 11.452-3.224 1.628 1.628 0 01-.452 3.224zm.524-3.745a1.628 1.628 0 11.452-3.224 1.628 1.628 0 01-.452 3.224zm.478-3.414a1.628 1.628 0 11.452-3.224 1.628 1.628 0 01-.452 3.224zm.531-3.792a1.628 1.628 0 11.452-3.224 1.628 1.628 0 01-.452 3.224zm.591-4.22a1.628 1.628 0 11.452-3.224 1.628 1.628 0 01-.452 3.224z"/><path fill="#3D3D3D" d="M187.372 132.075l7.967 14.046 10.893-7.37-7.091-12.884z"/><circle cx="203.283" cy="147.619" r="13.021" fill="#515151"/><circle cx="205.77" cy="149.192" r="13.021" fill="#E2E2E2"/><circle cx="205.865" cy="149.205" r="9.638" fill="#3D3D3D"/><circle cx="205.773" cy="149.512" r="3.967" fill="#E2E2E2"/><path fill="#E2E2E2" d="M202.309 151.494l6.683-4.276 4.666 7.294-6.684 4.276z"/><circle cx="210.309" cy="156.653" r="3.967" fill="#3D3D3D"/><ellipse cx="148.254" cy="169.629" fill="#3D3D3D" rx="20.043" ry="7.149" transform="rotate(-26.773 148.237 169.631)"/><ellipse cx="163.152" cy="151.831" fill="#3D3D3D" rx="3.214" ry="1.609" transform="rotate(-27.349 163.153 151.833)"/><ellipse cx="169.289" cy="152.883" fill="#3D3D3D" rx="3.214" ry="1.609" transform="rotate(-27.349 169.29 152.886)"/><ellipse cx="171.904" cy="156.725" fill="#3D3D3D" rx="3.214" ry="1.609" transform="rotate(-27.349 171.906 156.728)"/><ellipse cx="173.292" cy="160.888" fill="#3D3D3D" rx="3.214" ry="1.609" transform="rotate(-27.349 173.294 160.89)"/><ellipse cx="171.916" cy="167.269" fill="#3D3D3D" rx="4.708" ry="2.357" transform="rotate(-27.349 171.917 167.272)"/></svg>