<svg version="1" xmlns="http://www.w3.org/2000/svg" viewBox="0 0 300 300"><path fill="#FFF" d="M149.999 300C67.29 300 0 232.71 0 150S67.29 0 149.999 0C232.71 0 300 67.29 300 150s-67.29 150-150.001 150"/><path fill="#FBBC4B" d="M290.812 150c0 77.768-63.043 140.812-140.812 140.812C72.231 290.811 9.188 227.768 9.188 150S72.231 9.188 150 9.188c77.768 0 140.812 63.043 140.812 140.812"/><path fill="#3F3F3F" d="M199.349 203.917H100.65a7.065 7.065 0 0 1-7.065-7.065v-90.855a3.292 3.292 0 0 1 3.292-3.292h106.246a3.292 3.292 0 0 1 3.292 3.292v90.855a7.066 7.066 0 0 1-7.066 7.065"/><path fill="#494949" d="M199.349 195.651h-98.542a7.222 7.222 0 0 1-7.222-7.223v-82.431a3.292 3.292 0 0 1 3.292-3.292h106.246a3.292 3.292 0 0 1 3.292 3.292v82.589a7.067 7.067 0 0 1-7.066 7.065"/><path fill="#3D3D3D" d="M141.796 167.542h16.407v36.375h-16.407z"/><path fill="#E2E2E2" d="M142.569 212.165h-22.482a6.2 6.2 0 0 1-6.201-6.201v-84.366h34.883v84.366a6.2 6.2 0 0 1-6.2 6.201"/><path fill="#FFF" d="M142.569 203.917h-22.482a6.2 6.2 0 0 1-6.201-6.2v-76.119h34.883v76.119a6.2 6.2 0 0 1-6.2 6.2"/><path fill="#E2E2E2" d="M179.912 212.165H157.43a6.2 6.2 0 0 1-6.2-6.201v-84.366h34.883v84.366a6.201 6.201 0 0 1-6.201 6.201"/><path fill="#FFF" d="M179.912 203.917H157.43a6.2 6.2 0 0 1-6.2-6.2v-76.119h34.883v76.119a6.201 6.201 0 0 1-6.201 6.2"/><path fill="#4C4C4C" d="M155.599 175.789H144.4a4.784 4.784 0 0 1-4.784-4.784V132.44h20.767v38.566a4.784 4.784 0 0 1-4.784 4.783z"/><path fill="#565656" d="M155.599 167.542H144.4a4.784 4.784 0 0 1-4.784-4.785v-41.159h20.767v41.159a4.784 4.784 0 0 1-4.784 4.785"/><path fill="#444" d="M203.123 109.014H96.876a3.292 3.292 0 0 0-3.292 3.292v15.601h20.302v-6.309h72.225v6.309h20.302v-15.601a3.29 3.29 0 0 0-3.29-3.292"/><path fill="#EDEDED" d="M139.616 121.598h-25.73v6.309h25.73v-6.309m46.496 0h-25.729v6.309h25.729v-6.309"/><path fill="#505050" d="M160.383 121.598h-20.767v6.309h20.767v-6.309"/><path fill="#353535" d="M93.585 121.598V93.655a7.218 7.218 0 0 1 7.218-7.218h98.394a7.219 7.219 0 0 1 7.218 7.218v27.943H93.585z"/><path fill="#D8D8D8" d="M199.758 92.722h-99.513a4.618 4.618 0 0 0-4.511 3.632l-2.146 9.821v15.423h112.825l-.001-15.423-2.145-9.821a4.613 4.613 0 0 0-4.509-3.632z"/><path fill="#C4C4C4" d="M203.633 94.85H96.373c.144-.236.315-.446.499-.656h106.262c.183.21.354.419.499.656zm1.22 4.213H95.139l.145-.656h109.425zm.932 4.213H94.22l.145-.656h111.276zM93.59 106.833h112.824v.656H93.59zm0 4.213h112.824v.656H93.59zm0 4.213h112.824v.656H93.59zm0 4.201h112.824v.656H93.59z"/><path fill="#D8D8D8" d="M104.005 99.226h37.749a2.625 2.625 0 0 1 2.625 2.625v10.617a2.625 2.625 0 0 1-2.625 2.625h-37.749a2.625 2.625 0 0 1-2.625-2.625v-10.617a2.624 2.624 0 0 1 2.625-2.625z"/><path fill="#FFF" d="M111.797 105.93c-.41-.629-1.12-1.066-1.941-1.066s-1.531.437-1.941 1.066c-.245.356-.355.793-.355 1.23l.054.356c.137 1.093 1.066 1.941 2.242 1.941 1.121 0 2.077-.82 2.242-1.886.054-.137.054-.274.054-.41a2.375 2.375 0 0 0-.355-1.231z"/><path fill="#686868" d="M111.309 106.239a1.74 1.74 0 0 0-1.452-.798c-.614 0-1.146.327-1.452.798a1.607 1.607 0 0 0-.266.92l.041.266a1.666 1.666 0 0 0 1.677 1.453c.839 0 1.555-.614 1.677-1.412l.041-.307c0-.326-.102-.654-.266-.92z"/><path fill="#4F4F4F" d="M111.575 107.159l-.041.307c0-.266-.102-.511-.225-.716a1.74 1.74 0 0 0-1.452-.798c-.614 0-1.146.327-1.452.798a1.154 1.154 0 0 0-.225.675l-.041-.266c0-.327.081-.654.266-.92.306-.47.838-.798 1.452-.798s1.145.327 1.452.798c.164.266.266.594.266.92z"/><circle fill="#FFF" cx="122.879" cy="107.164" r="5.443"/><path fill="#4F4F4F" d="M127.219 106.053v1.111a4.341 4.341 0 0 1-8.681 0v-1.111c0-.85.243-1.643.672-2.315h1.013a4.303 4.303 0 0 1 2.656-.915c1.001 0 1.921.342 2.656.915h1.013c.428.671.671 1.464.671 2.315z"/><path fill="#686868" d="M127.219 106.053a4.341 4.341 0 0 1-8.681 0c0-.85.243-1.643.672-2.315a4.331 4.331 0 0 1 3.669-2.025c1.545 0 2.905.81 3.669 2.025.428.671.671 1.464.671 2.315z"/><circle fill="#FFF" cx="136.771" cy="107.164" r="5.443"/><path fill="#4F4F4F" d="M141.111 106.053v1.111a4.341 4.341 0 0 1-8.68 0v-1.111c0-.85.243-1.643.671-2.315h1.013c.735-.573 1.655-.915 2.656-.915s1.921.342 2.656.915h1.013c.428.671.671 1.464.671 2.315z"/><path fill="#686868" d="M141.111 106.053a4.341 4.341 0 0 1-8.68 0c0-.85.243-1.643.671-2.315.764-1.215 2.124-2.025 3.669-2.025s2.905.81 3.669 2.025c.428.671.671 1.464.671 2.315z"/><path fill="#D8D8D8" d="M158.911 94.86h37.749a2.625 2.625 0 0 1 2.625 2.625v19.35a2.625 2.625 0 0 1-2.625 2.625h-37.749a2.625 2.625 0 0 1-2.625-2.625v-19.35a2.625 2.625 0 0 1 2.625-2.625z"/><ellipse transform="rotate(-60 177.794 100.98)" fill="#FFF" cx="177.786" cy="100.975" rx="3.582" ry="3.582"/><circle fill="#FFF" cx="177.786" cy="100.975" r="3.582"/><path fill="#4F4F4F" d="M180.642 98.6v2.375a2.857 2.857 0 0 1-5.712 0V98.6c0-.559 1.108-1.668 1.108-1.668a2.83 2.83 0 0 1 1.748-.601c.659 0 1.264.224 1.748.601 0 0 1.108 1.109 1.108 1.668z"/><path fill="#686868" d="M180.642 98.672a2.857 2.857 0 0 1-5.712 0c0-.56.16-1.082.442-1.523a2.849 2.849 0 0 1 2.414-1.333 2.85 2.85 0 0 1 2.415 1.333c.282.441.441.963.441 1.523z"/><path fill="#686868" d="M177.703 96.584h.165v.668h-.165zm-2.041.547l-.143.083.333.578.143-.083zm-2.442 1.324l.226-.39.888.512-.226.39zm-.578 2.144h1.025v.451h-1.025zm.57 2.599l.887-.512.226.39-.888.513zm1.802 1.975l.511-.887.39.225-.51.887zm2.546-.229h.451v1.024h-.451zm2.086-.447l.39-.226.512.887-.39.226zm1.595-1.407l.226-.39.886.511-.225.391zm.664-2.491h1.025v.451h-1.025zm-.664-2.023l.887-.512.225.39-.886.513zm-1.671-.869l.335-.578.143.082-.334.579z"/><path fill="#FFF" d="M166.705 98.956a2.323 2.323 0 0 0-1.941-1.066c-.82 0-1.53.437-1.941 1.066-.246.356-.355.793-.355 1.23l.054.356c.137 1.093 1.066 1.941 2.241 1.941 1.121 0 2.078-.82 2.242-1.886.055-.137.055-.274.055-.41a2.4 2.4 0 0 0-.355-1.231z"/><path fill="#686868" d="M166.216 99.266a1.74 1.74 0 0 0-1.453-.797 1.74 1.74 0 0 0-1.452.797 1.618 1.618 0 0 0-.266.921l.041.266a1.667 1.667 0 0 0 1.677 1.452c.839 0 1.555-.613 1.678-1.411l.041-.307c0-.328-.102-.655-.266-.921z"/><path fill="#4F4F4F" d="M166.482 100.187l-.041.307c0-.266-.103-.511-.225-.717a1.74 1.74 0 0 0-1.453-.797 1.74 1.74 0 0 0-1.452.797c-.143.205-.225.43-.225.675l-.041-.266c0-.327.082-.654.266-.921a1.74 1.74 0 0 1 1.452-.797 1.74 1.74 0 0 1 1.453.797c.164.267.266.594.266.922z"/><circle fill="#FFF" cx="190.732" cy="100.975" r="3.582"/><path fill="#4F4F4F" d="M193.589 98.6v2.375a2.857 2.857 0 0 1-5.712 0V98.6c0-.559 1.109-1.668 1.109-1.668.483-.377 1.089-.601 1.748-.601s1.264.224 1.748.601c-.001 0 1.107 1.109 1.107 1.668z"/><path fill="#686868" d="M193.589 98.672a2.857 2.857 0 0 1-5.712 0c0-.56.16-1.082.442-1.523a2.849 2.849 0 0 1 2.414-1.333 2.85 2.85 0 0 1 2.415 1.333c.281.441.441.963.441 1.523z"/><ellipse transform="rotate(-60 177.794 112.324)" fill="#FFF" cx="177.786" cy="112.319" rx="3.582" ry="3.582"/><circle fill="#FFF" cx="177.786" cy="112.319" r="3.582"/><path fill="#4F4F4F" d="M180.642 109.944v2.375a2.857 2.857 0 0 1-5.712 0v-2.375c0-.559 1.108-1.668 1.108-1.668a2.83 2.83 0 0 1 1.748-.602c.659 0 1.264.224 1.748.602 0 0 1.108 1.108 1.108 1.668z"/><path fill="#686868" d="M180.642 110.016a2.857 2.857 0 0 1-5.712 0c0-.559.16-1.082.442-1.523a2.849 2.849 0 0 1 2.414-1.333 2.85 2.85 0 0 1 2.415 1.333c.282.441.441.963.441 1.523z"/><path fill="#686868" d="M177.703 107.928h.165v.667h-.165zm-2.041.546l-.143.083.333.578.143-.082zm-2.442 1.326l.226-.391.888.512-.226.39zm-.578 2.143h1.025v.451h-1.025zm.57 2.598l.888-.512.225.39-.888.513zm1.801 1.976l.512-.887.39.225-.51.887zm2.547-.229h.451v1.024h-.451zm2.086-.448l.39-.225.513.887-.39.225zm1.594-1.406l.226-.391.886.512-.225.39zm.665-2.491h1.025v.451h-1.025zm-.664-2.023l.887-.512.225.39-.886.513zm-1.671-.87l.335-.578.143.082-.335.578z"/><path fill="#FFF" d="M166.705 110.3a2.323 2.323 0 0 0-1.941-1.066c-.82 0-1.53.437-1.941 1.066-.246.356-.355.793-.355 1.23l.054.356c.137 1.093 1.066 1.941 2.241 1.941 1.121 0 2.078-.82 2.242-1.886.055-.137.055-.274.055-.41 0-.438-.137-.876-.355-1.231z"/><path fill="#686868" d="M166.216 110.61a1.738 1.738 0 0 0-1.453-.798c-.613 0-1.145.327-1.452.798a1.615 1.615 0 0 0-.266.92l.041.266a1.667 1.667 0 0 0 1.677 1.452c.839 0 1.555-.613 1.678-1.411l.041-.307c0-.327-.102-.654-.266-.92z"/><path fill="#4F4F4F" d="M166.482 111.53l-.041.307c0-.266-.103-.511-.225-.716a1.738 1.738 0 0 0-1.453-.798c-.613 0-1.145.327-1.452.798a1.16 1.16 0 0 0-.225.675l-.041-.266c0-.327.082-.654.266-.92a1.738 1.738 0 0 1 1.452-.798c.614 0 1.146.327 1.453.798.164.266.266.593.266.92z"/><circle fill="#FFF" cx="190.732" cy="112.319" r="3.582"/><path fill="#4F4F4F" d="M193.589 109.944v2.375a2.857 2.857 0 0 1-5.712 0v-2.375c0-.559 1.109-1.668 1.109-1.668.483-.377 1.089-.602 1.748-.602s1.264.224 1.748.602c-.001 0 1.107 1.108 1.107 1.668z"/><path fill="#686868" d="M193.589 110.016a2.857 2.857 0 0 1-5.712 0c0-.559.16-1.082.442-1.523a2.849 2.849 0 0 1 2.414-1.333 2.85 2.85 0 0 1 2.415 1.333c.281.441.441.963.441 1.523z"/></svg>
