<svg version="1" xmlns="http://www.w3.org/2000/svg" viewBox="0 0 300 300"><path fill="#FFF" d="M149.999 300C67.29 300 0 232.71 0 150S67.29 0 149.999 0C232.71 0 300 67.29 300 150s-67.29 150-150.001 150"/><path fill="#FAE040" d="M290.812 150c0 77.769-63.043 140.812-140.812 140.812S9.188 227.769 9.188 150C9.188 72.232 72.231 9.188 150 9.188c77.768 0 140.812 63.044 140.812 140.812"/><path fill="#606060" d="M144.843 94.29c-2.978-.636-5.797.074-7.382 1.618L77.786 81.221l-.246-.053a4.186 4.186 0 1 0-1.507 8.233l60.452 11.064c.813 2.059 3.099 3.859 6.079 4.496 4.127.881 7.982-.794 8.612-3.741.629-2.947-2.207-6.05-6.333-6.93zm12.75-5.871c2.867.612 5.581-.071 7.107-1.558l57.457 14.141.237.051a4.03 4.03 0 1 0 1.45-7.927L165.64 82.472c-.783-1.982-2.983-3.716-5.854-4.329-3.973-.848-7.685.765-8.291 3.602-.605 2.838 2.125 5.826 6.098 6.674z"/><path fill="#565656" d="M203.509 175.808a.985.985 0 0 1-.984-.984v-50.599a.985.985 0 0 1 1.968 0v50.599c0 .543-.44.984-.984.984z"/><path fill="#3F3F3F" d="M205.02 123.084h-1.246a.264.264 0 0 0-.264.264v3.666l-.003 1.02s1.777-.552 1.777-1.02v-3.666a.264.264 0 0 0-.264-.264z"/><path fill="#4C4C4C" d="M205.02 122.918h-1.246a.264.264 0 0 0-.264.264v3.667c0 .145.118.264.264.264h1.246a.264.264 0 0 0 .264-.264v-3.667a.264.264 0 0 0-.264-.264z"/><path fill="#3F3F3F" d="M204.836 172.187h-1.093a.231.231 0 0 0-.231.232v3.215l-.003 2.299s1.559 0 1.559-2.299v-3.215a.232.232 0 0 0-.232-.232z"/><path fill="#4C4C4C" d="M204.836 172.042h-1.093a.231.231 0 0 0-.231.232v3.215c0 .128.104.232.231.232h1.093a.231.231 0 0 0 .231-.232v-3.215a.23.23 0 0 0-.231-.232z"/><path fill="#565656" d="M98.319 175.808a.985.985 0 0 1-.984-.984v-50.599a.985.985 0 0 1 1.968 0v50.599a.985.985 0 0 1-.984.984z"/><path fill="#3F3F3F" d="M96.809 123.084h1.246c.145 0 .264.118.264.264v3.666l.003 1.02s-1.777-.552-1.777-1.02v-3.666c0-.146.118-.264.264-.264z"/><path fill="#4C4C4C" d="M96.809 122.918h1.246c.145 0 .264.119.264.264v3.667a.265.265 0 0 1-.264.264h-1.246a.264.264 0 0 1-.264-.264v-3.667c0-.145.118-.264.264-.264z"/><path fill="#3F3F3F" d="M96.992 172.187h1.093c.128 0 .231.104.231.232v3.215l.003 2.299s-1.558 0-1.558-2.299v-3.215a.23.23 0 0 1 .231-.232z"/><path fill="#4C4C4C" d="M96.992 172.042h1.093c.128 0 .231.104.231.232v3.215a.232.232 0 0 1-.231.232h-1.093a.231.231 0 0 1-.231-.232v-3.215c0-.128.103-.232.231-.232z"/><path fill="#FFF" d="M204.205 121.289v5.548H97.623v-5.548c0-11.624 23.859-21.047 53.29-21.047 29.433.001 53.292 9.423 53.292 21.047"/><path fill="#E2E2E2" d="M204.205 127.274c0 11.624-23.859 21.047-53.291 21.047-29.431 0-53.29-9.423-53.29-21.047s23.859-21.047 53.29-21.047c29.432 0 53.291 9.423 53.291 21.047"/><path fill="#FF7182" d="M199.916 130.131c-.003-10.541-21.94-19.084-49.002-19.084-27.059 0-48.995 8.544-49.002 19.084l.003 41.936.927 3.434 96.153-.006.917-3.417.004-41.947"/><path fill="#FF7182" d="M197.459 147.687a.51.51 0 0 0 .065.735v.013a46.057 46.057 0 0 1 2.389 2.139v21.5l-.918 3.426h-96.156l-.918-3.439-.013-24.453v-17.483c.013-10.539 21.946-19.084 49.009-19.084 27.064 0 48.997 8.544 48.997 19.084v18.861a43.954 43.954 0 0 0-1.732-1.378.52.52 0 0 0-.723.079"/><path fill="#EFD63D" d="M199.916 135.56l-.001 2.786.001.09v-2.876"/><path fill="#D8D8D8" d="M199.916 130.131v5.43-5.429"/><path fill="#F46C7C" d="M199.449 127.488a7.84 7.84 0 0 1 .464 2.637v8.099l.003.122v-8.214c0-.897-.159-1.78-.467-2.644"/><path fill="#F46C7C" d="M150.914 111.047c-27.059 0-48.995 8.544-49.002 19.085v8.304c.014-10.539 21.948-19.08 49.002-19.08 26.877 0 48.697 8.426 48.999 18.867v-8.099a7.84 7.84 0 0 0-.464-2.637c-3.306-9.289-23.775-16.44-48.535-16.44"/><path fill="#FFF" d="M204.205 172.726v5.547H97.623v-5.547c0-11.624 23.859-21.048 53.29-21.048 29.433 0 53.292 9.424 53.292 21.048z"/><ellipse fill="#E2E2E2" cx="150.914" cy="178.78" rx="53.291" ry="21.047"/><path fill="#565656" d="M150.914 155.784a1.313 1.313 0 0 1-1.313-1.313V103.32a1.313 1.313 0 0 1 2.626 0v51.151a1.313 1.313 0 0 1-1.313 1.313z"/><path fill="#4C4C4C" d="M151.166 152.369l1.7 1.046v.491l-.463 1.837a.47.47 0 0 1-.45.296h-2.076a.471.471 0 0 1-.45-.296l-.462-1.852v-.468l1.698-1.054a.428.428 0 0 1 .503 0z"/><path fill="#606060" d="M151.166 151.98l1.522 1.105a.43.43 0 0 1 .156.479l-.581 1.789a.429.429 0 0 1-.408.296h-1.881a.428.428 0 0 1-.408-.296l-.581-1.789a.427.427 0 0 1 .155-.479l1.522-1.105a.423.423 0 0 1 .504 0z"/><path fill="#4C4C4C" d="M150.662 105.61l-1.698-1.233v-.87l.602-1.271a.428.428 0 0 1 .408-.295h1.881c.186 0 .351.119.408.295l.601 1.271v.871l-1.698 1.232a.426.426 0 0 1-.504 0z"/><path fill="#606060" d="M150.662 104.991l-1.521-1.106a.428.428 0 0 1-.156-.479l.581-1.789a.429.429 0 0 1 .408-.296h1.881c.186 0 .351.12.408.296l.581 1.789a.426.426 0 0 1-.156.479l-1.522 1.106a.43.43 0 0 1-.504 0z"/><path fill="#565656" d="M115.074 161.349a1.313 1.313 0 0 1-1.313-1.313v-51.151a1.313 1.313 0 0 1 2.626 0v51.151a1.313 1.313 0 0 1-1.313 1.313z"/><path fill="#4C4C4C" d="M114.812 157.733l-.857 1.761a.502.502 0 0 0-.097.482l-.025 1.486s.737.144 1.013.144l1.499-.523a.502.502 0 0 0 .311-.318l.474-1.459a.502.502 0 0 0-.181-.56l-1.202-.872c-.252 0-.935-.141-.935-.141z"/><path fill="#606060" d="M114.402 157.9l-1.25 1.448a.5.5 0 0 0-.097.482l.418 1.286c.087.267.376.41.641.318l1.429-.497a.504.504 0 0 0 .311-.318l.474-1.46a.5.5 0 0 0-.182-.559l-1.07-.777a.501.501 0 0 0-.674.077z"/><path fill="#4C4C4C" d="M114.835 107.026l-.847 1.792a.498.498 0 0 0-.097.481l.192 1.432s.521.197.797.197l1.499-.524a.5.5 0 0 0 .311-.318l.474-1.459a.5.5 0 0 0-.181-.559l-1.202-.872-.946-.17z"/><path fill="#606060" d="M114.402 107.191l-1.25 1.448a.5.5 0 0 0-.097.482l.418 1.286a.5.5 0 0 0 .641.317l1.429-.498a.5.5 0 0 0 .311-.318l.474-1.459c.067-.206-.006-.432-.152-.538l-1.07-.777c-.242-.173-.534-.14-.704.057z"/><path fill="#565656" d="M186.754 161.349a1.313 1.313 0 0 1-1.313-1.313v-51.151a1.313 1.313 0 0 1 2.626 0v51.151a1.313 1.313 0 0 1-1.313 1.313z"/><path fill="#4C4C4C" d="M187.016 157.662l.857 1.761a.502.502 0 0 1 .097.482l.024 1.486s-.736.144-1.012.144l-1.5-.523a.504.504 0 0 1-.311-.318l-.474-1.46a.5.5 0 0 1 .182-.559l1.202-.872c.252 0 .935-.141.935-.141z"/><path fill="#606060" d="M187.427 157.828l1.25 1.448a.5.5 0 0 1 .097.482l-.418 1.286a.501.501 0 0 1-.641.318l-1.429-.499a.498.498 0 0 1-.311-.317l-.474-1.46a.5.5 0 0 1 .182-.559l1.07-.777a.504.504 0 0 1 .674.078z"/><path fill="#4C4C4C" d="M186.994 107.026l.847 1.792a.5.5 0 0 1 .097.481l-.192 1.432s-.521.197-.797.197l-1.499-.524a.5.5 0 0 1-.311-.318l-.474-1.459a.5.5 0 0 1 .181-.559l1.202-.872.946-.17z"/><path fill="#606060" d="M187.427 107.191l1.25 1.448a.5.5 0 0 1 .097.482l-.418 1.286a.5.5 0 0 1-.641.317l-1.429-.498a.5.5 0 0 1-.311-.318l-.474-1.459c-.067-.206.006-.432.152-.538l1.07-.777c.241-.173.533-.14.704.057z"/><path fill="#4C4C4C" d="M110.799 138.623l-1.214-1.246-1.65 2.322-3.345 1.646a.65.65 0 0 0-.363.583v2.989l-1.129 1.589 1.364 1.364.01-.014a.63.63 0 0 0 .693.095l5.589-2.75a.652.652 0 0 0 .363-.584v-5.44a.64.64 0 0 0-.318-.554z"/><path fill="#606060" d="M109.42 143.87l-5.589 2.751a.65.65 0 0 1-.938-.584v-5.44c0-.248.141-.474.363-.584l5.59-2.751a.65.65 0 0 1 .938.584v5.44a.651.651 0 0 1-.364.584z"/><path fill="#5EC2D7" d="M212.855 190.685c-1.903 5.172-4.857 9.911-8.427 14.057-7.14 8.348-16.511 14.517-26.579 18.625-10.106 4.108-21.027 6.169-31.933 6.182-5.46-.026-10.921-.499-16.289-1.483-5.381-.932-10.749-2.48-15.829-4.764-5.092-2.271-9.883-5.368-13.965-9.293-4.082-3.912-7.455-8.584-9.844-13.716-2.389-5.132-3.832-10.658-4.371-16.249a52.243 52.243 0 0 1 1.037-16.722c1.26-5.46 3.439-10.723 6.615-15.382 2.323-3.374 5.224-6.458 8.637-8.729a23.708 23.708 0 0 1 3.938-2.126.994.994 0 0 1 1.3.538.99.99 0 0 1-.302 1.155l-.013.013a32.25 32.25 0 0 0-4.922 4.817c-1.759 2.113-3.268 4.424-4.541 6.839-2.362 4.409-3.964 9.213-4.975 14.122-.512 2.442-.8 4.935-.971 7.429-.158 2.493-.145 5 .092 7.494.433 4.975 1.68 9.857 3.741 14.358a39.923 39.923 0 0 0 8.518 12.063c3.557 3.452 7.77 6.261 12.325 8.401 4.568 2.112 9.45 3.635 14.503 4.567 5.053 1.011 10.198 1.523 15.357 1.628 10.29.183 20.672-1.47 30.319-5.145 9.634-3.649 18.625-9.28 25.502-16.932 3.426-3.82 6.301-8.138 8.269-12.85 1.943-4.712 2.913-9.844 2.546-14.936-.342-5.092-2.074-10.08-4.764-14.503-2.126-3.544-4.857-6.733-7.915-9.569v-1.588c3.583 2.914 6.878 6.261 9.463 10.186 2.993 4.516 5.041 9.766 5.631 15.252.59 5.485-.237 11.103-2.153 16.261z"/><path fill="#44AAB2" d="M185.475 215.138c-.59.354-1.181.669-1.785.97-.63.342-1.26.656-1.89.959-.472.236-.945.459-1.43.669a58.213 58.213 0 0 1-3.098 1.365c-9.66 3.925-20.108 5.906-30.529 5.906a87.29 87.29 0 0 1-15.58-1.418c-5.145-.879-10.277-2.362-15.133-4.554-4.869-2.166-9.45-5.132-13.362-8.886-3.898-3.74-7.127-8.203-9.411-13.111-2.284-4.909-3.662-10.186-4.174-15.541a50.326 50.326 0 0 1 .984-15.986c1.207-5.223 3.295-10.25 6.327-14.714 2.231-3.215 5-6.168 8.269-8.334.683-.46 1.391-.893 2.126-1.273a.959.959 0 0 1 .354.433.99.99 0 0 1-.302 1.155l-.013.013a32.25 32.25 0 0 0-4.922 4.817c-1.759 2.113-3.268 4.424-4.541 6.839-2.362 4.409-3.964 9.213-4.975 14.122-.512 2.442-.8 4.935-.971 7.429-.158 2.493-.145 5 .092 7.494.433 4.975 1.68 9.857 3.741 14.358a39.923 39.923 0 0 0 8.518 12.063c3.557 3.452 7.77 6.261 12.325 8.401 4.568 2.112 9.45 3.635 14.503 4.567 5.053 1.011 10.198 1.523 15.357 1.628 10.29.183 20.672-1.47 30.319-5.145a58.647 58.647 0 0 0 2.1-.827c.197-.079.394-.17.59-.25a65.933 65.933 0 0 0 1.982-.879 51.444 51.444 0 0 0 1.955-.932l.709-.354c.197-.092.394-.197.591-.303.421-.222.855-.445 1.274-.681zm25.266-27.287a33.263 33.263 0 0 1-1.299 3.084c.21-.446.407-.892.604-1.352 1.943-4.712 2.913-9.844 2.546-14.936-.342-5.092-2.074-10.08-4.764-14.503-2.126-3.544-4.857-6.733-7.915-9.569v-1.286c2.822 2.469 5.408 5.25 7.508 8.428 2.861 4.318 4.817 9.344 5.381 14.581.564 5.249-.223 10.617-2.061 15.553z"/><path fill="#565656" d="M203.506 162.518a.985.985 0 0 1-.984-.984v-18.26a.985.985 0 0 1 1.968 0v18.26a.983.983 0 0 1-.984.984z"/></svg>