<svg viewBox="0 0 300 300" xmlns="http://www.w3.org/2000/svg"><path d="m149.999 300c-82.709 0-149.999-67.29-149.999-150s67.29-150 149.999-150c82.711 0 150.001 67.29 150.001 150s-67.29 150-150.001 150z" fill="#fff"/><circle cx="150" cy="150" fill="#fae040" r="140.812"/><path d="m102.884 88.729-9.096 116.339a7.175 7.175 0 0 0 .278 2.481l1.885 6.4 9.103-72.44zm94.231 0 9.096 116.339a7.175 7.175 0 0 1 -.278 2.481l-1.885 6.4-9.103-72.44z" fill="#e09d3c"/><path d="m197.136 143.881h-94.28v-54.511a7.175 7.175 0 0 1 7.175-7.175h79.93a7.175 7.175 0 0 1 7.175 7.175z" fill="#fbbc4b"/><path d="m197.686 217.805h-95.379a7.175 7.175 0 0 1 -7.161-7.631l7.283-87.217a7.176 7.176 0 0 1 7.161-6.72h80.813a7.176 7.176 0 0 1 7.161 6.72l7.283 87.217c.262 4.134-3.02 7.631-7.161 7.631z" fill="#efefef"/><g fill="#535253"><circle cx="111.443" cy="125.44" r="3.339"/><circle cx="104.496" cy="208.603" r="3.339"/><circle cx="188.55" cy="125.44" r="3.339"/><circle cx="195.497" cy="208.617" r="3.339"/></g><path d="m107.16 106.193v-13.953a5.74 5.74 0 0 1 5.74-5.74h74.191a5.74 5.74 0 0 1 5.74 5.74v13.953a5.74 5.74 0 0 1 -5.74 5.74h-74.191a5.74 5.74 0 0 1 -5.74-5.74z" fill="#e59623"/></svg>