<svg viewBox="0 0 300 300" xmlns="http://www.w3.org/2000/svg"><path d="m150 300c-82.71 0-150-67.29-150-150s67.29-150 150-150 150 67.29 150 150-67.29 150-150 150" fill="#fff"/><path d="m290.812 150c0 77.768-63.044 140.812-140.812 140.812s-140.812-63.044-140.812-140.812 63.044-140.812 140.812-140.812 140.812 63.044 140.812 140.812" fill="#fbbc4b"/><path d="m159.788 97.545v-2.337l-5.8-19.605h-7.976l-5.798 19.563v2.38c0 .764.14 1.114.614 1.42l1.01.653c.226.142.488.22.756.22h14.816c.268 0 .53-.077.755-.223l1.01-.654c.472-.306.613-.84.613-1.42m-2.324 41.02 32.295 81.132v7.93c0 1.306-1.437 1.79-2.837 1.13l-36.922-17.409-36.925 17.412c-1.4.66-2.834-.27-2.834-1.547v-7.607l32.298-81.036c2.492-5.963 12.436-5.963 14.928 0z" fill="#4c4c4c"/><path d="m157.464 130.637 32.236 88.743c.41 1.175-1.375 2.108-2.775 1.448l-36.925-17.413-36.925 17.413c-1.4.66-3.185-.272-2.774-1.45l32.238-88.74c2.492-5.964 12.436-5.964 14.928 0z" fill="#565656"/><path d="m177.176 201.234-22.11-9.08-5.07-10.64h-19.97a.85.85 0 0 1 -.798-1.14l13.312-36.65c2.495-5.965 12.432-5.965 14.927 0l20.584 56.672a.662.662 0 0 1 -.872.838z" fill="#ffeef0"/><path d="m156.516 159.09h-13.026a.492.492 0 0 1 -.493-.49v-7.235c0-.27.22-.492.492-.492h13.024c.27 0 .492.22.492.492v7.234c0 .27-.22.49-.492.49z" fill="#dbc8cc"/><path d="m156.516 157.95h-13.026a.492.492 0 0 1 -.493-.492v-7.234c0-.27.22-.492.492-.492h13.024c.27 0 .492.22.492.492v7.234c0 .272-.22.492-.492.492z" fill="#f2dade"/><path d="m155.02 166.968h-10.04a1.478 1.478 0 0 1 -1.478-1.478v-.883h12.994v.883a1.48 1.48 0 0 1 -1.48 1.478z" fill="#dbc8cc"/><path d="m155.02 166.086h-10.04a1.478 1.478 0 0 1 0-2.956h10.037a1.478 1.478 0 0 1 0 2.956z" fill="#f2dade"/><path d="m157.04 184.614h-14.08a2.074 2.074 0 0 1 -2.074-2.074v-1.238h18.226v1.238a2.072 2.072 0 0 1 -2.073 2.074z" fill="#dbc8cc"/><path d="m157.04 183.376h-14.08a2.074 2.074 0 1 1 0-4.148h14.08a2.074 2.074 0 1 1 0 4.148z" fill="#f2dade"/><path d="m159.787 94.03-5.59-21.98a1.46 1.46 0 0 0 -1.416-1.1h-5.562a1.46 1.46 0 0 0 -1.415 1.1l-5.59 21.98a1.39 1.39 0 0 0 .615 1.422l1.01.653a1.4 1.4 0 0 0 .756.223h14.817c.27 0 .53-.077.756-.223l1.01-.653a1.39 1.39 0 0 0 .615-1.42z" fill="#565656"/><path d="m154.27 99.146v54.318c0 .53-.193.948-.438.948h-7.66c-.245 0-.44-.418-.44-.948v-54.318c0-.516.195-.948.44-.948h7.66c.246 0 .44.433.44.948" fill="#ffcd7d"/><path d="m153.833 98.2h-7.66c-.245 0-.44.43-.44.947v1.604h8.54v-1.601c-.002-.515-.195-.947-.44-.947" fill="#e0b46e"/><path d="m151.97 182.17a.656.656 0 0 1 -.657-.655v-101.185a.656.656 0 1 1 1.312 0v101.184a.657.657 0 0 1 -.656.657zm-3.94 0a.656.656 0 0 1 -.655-.655v-96.428a.656.656 0 1 1 1.312 0v96.427a.656.656 0 0 1 -.656.657z" fill="#3f3f3f"/></svg>