<svg version="1" xmlns="http://www.w3.org/2000/svg" viewBox="0 0 300 300"><path fill="#FFF" d="M149.999 300C67.29 300 0 232.71 0 150S67.29 0 149.999 0C232.71 0 300 67.29 300 150s-67.29 150-150.001 150"/><path fill="#EB595B" d="M290.812 150c0 77.769-63.044 140.812-140.812 140.812S9.188 227.769 9.188 150C9.188 72.232 72.232 9.188 150 9.188S290.812 72.232 290.812 150"/><path fill="#565656" d="M98.389 175.81v-50.598a.984.984 0 1 0-1.968 0v50.598a.984.984 0 1 0 1.968 0"/><path fill="#3F3F3F" d="M95.894 176.951h1.247a.263.263 0 0 0 .263-.263v-3.667l.004-1.02s-1.778.552-1.778 1.02v3.667c0 .145.119.263.264.263z"/><path fill="#4C4C4C" d="M95.894 177.116h1.247a.264.264 0 0 0 .263-.264v-3.667a.264.264 0 0 0-.263-.264h-1.247a.265.265 0 0 0-.264.264v3.667c0 .146.119.264.264.264z"/><path fill="#3F3F3F" d="M96.078 127.849h1.092a.232.232 0 0 0 .232-.231v-3.215l.003-2.3s-1.559 0-1.559 2.3v3.215c0 .127.104.231.232.231z"/><path fill="#4C4C4C" d="M96.078 127.993h1.092a.232.232 0 0 0 .232-.232v-3.215a.232.232 0 0 0-.232-.232h-1.092a.232.232 0 0 0-.232.232v3.215c0 .129.104.232.232.232z"/><path fill="#565656" d="M203.58 175.81v-50.598a.984.984 0 1 0-1.968 0v50.598a.984.984 0 1 0 1.968 0"/><path fill="#3F3F3F" d="M204.106 176.951h-1.246a.264.264 0 0 1-.264-.263v-3.667l-.004-1.02s1.778.552 1.778 1.02v3.667a.264.264 0 0 1-.264.263z"/><path fill="#4C4C4C" d="M204.106 177.116h-1.246a.264.264 0 0 1-.264-.264v-3.667c0-.145.118-.264.264-.264h1.246c.145 0 .264.119.264.264v3.667a.264.264 0 0 1-.264.264z"/><path fill="#3F3F3F" d="M203.922 127.849h-1.092a.232.232 0 0 1-.232-.231v-3.215l-.003-2.3s1.559 0 1.559 2.3v3.215a.232.232 0 0 1-.232.231z"/><path fill="#4C4C4C" d="M203.922 127.993h-1.092a.232.232 0 0 1-.232-.232v-3.215c0-.128.104-.232.232-.232h1.092c.128 0 .232.104.232.232v3.215a.232.232 0 0 1-.232.232z"/><path fill="#E2E2E2" d="M96.709 178.745v-5.547h106.582v5.547c0 11.624-23.859 21.047-53.291 21.047s-53.291-9.422-53.291-21.047z"/><path fill="#FFF" d="M96.709 172.761c0-11.624 23.859-21.046 53.291-21.046s53.291 9.422 53.291 21.046c0 11.624-23.859 21.047-53.291 21.047s-53.291-9.423-53.291-21.047"/><path fill="#FBBC4B" d="M199.008 169.904c-.013 10.539-21.946 19.084-49.009 19.084-27.064 0-48.997-8.545-48.997-19.084v-41.909h97.993v13.834l.013 28.075"/><path fill="#F0B448" d="M198.995 127.995h-97.993v13.834c8.151 7.494 27.025 12.758 48.997 12.758 21.985 0 40.859-5.25 48.997-12.758v-13.834"/><path fill="#E2E2E2" d="M96.709 127.309v-5.547h106.582v5.547c0 11.624-23.859 21.047-53.291 21.047s-53.291-9.423-53.291-21.047z"/><ellipse fill="#FFF" cx="150" cy="121.255" rx="53.291" ry="21.047"/><path fill="#565656" d="M151.313 196.714v-51.151a1.313 1.313 0 0 0-2.626 0v51.151a1.313 1.313 0 0 0 2.626 0m35.839-5.565v-51.151a1.313 1.313 0 0 0-2.626 0v51.151a1.313 1.313 0 0 0 2.626 0m-71.679 0v-51.151a1.313 1.313 0 0 0-2.626 0v51.151a1.313 1.313 0 0 0 2.626 0"/><path fill="#4C4C4C" d="M152.133 145.153v.82h-4.266v-.82a2.133 2.133 0 0 1 4.266 0z"/><circle fill="#606060" cx="150" cy="145.973" r="2.133"/><path fill="#4C4C4C" d="M152.133 196.304v.82h-4.266v-.82a2.133 2.133 0 0 1 4.266 0z"/><circle fill="#606060" cx="150" cy="197.125" r="2.133"/><path fill="#4C4C4C" d="M116.083 139.805c0 .978-1.15 2.155-2.109 2.155-.959 0-1.736-.877-1.736-1.855s1.15-2.07 2.109-2.07c.958 0 1.736.793 1.736 1.77z"/><ellipse fill="#606060" cx="113.974" cy="140.19" rx="1.736" ry="1.77"/><path fill="#4C4C4C" d="M116.083 191.249c0 .978-1.15 2.155-2.109 2.155-.959 0-1.736-.877-1.736-1.855s1.15-2.07 2.109-2.07c.958 0 1.736.792 1.736 1.77z"/><ellipse fill="#606060" cx="113.974" cy="191.633" rx="1.736" ry="1.77"/><path fill="#4C4C4C" d="M184.104 191.249c0 .978 1.15 2.155 2.109 2.155s1.736-.877 1.736-1.855-1.15-2.07-2.109-2.07c-.959 0-1.736.792-1.736 1.77z"/><ellipse fill="#606060" cx="186.213" cy="191.633" rx="1.736" ry="1.77"/><path fill="#4C4C4C" d="M183.917 139.805c0 .978 1.15 2.155 2.109 2.155s1.736-.877 1.736-1.855-1.15-2.07-2.109-2.07-1.736.793-1.736 1.77z"/><ellipse fill="#606060" cx="186.026" cy="140.19" rx="1.736" ry="1.77"/></svg>