<svg version="1" xmlns="http://www.w3.org/2000/svg" viewBox="0 0 300 300"><path fill="#FFF" d="M149.999 300C67.29 300 0 232.71 0 150S67.29 0 149.999 0C232.71 0 300 67.29 300 150s-67.29 150-150.001 150"/><path fill="#5EC2D7" d="M290.812 150c0 77.768-63.044 140.812-140.812 140.812S9.188 227.769 9.188 150 72.232 9.188 150 9.188 290.812 72.232 290.812 150"/><path fill="#4C4C4C" d="M159.787 97.545v-2.337l-5.799-19.605h-7.977l-5.799 19.563v2.379c0 .765.14 1.115.614 1.421l1.011.652c.225.145.487.223.755.223h14.816c.268 0 .53-.078.755-.223l1.011-.652c.473-.306.613-.839.613-1.421m-2.323 41.021l32.295 81.132v7.929c0 1.306-1.434 1.789-2.834 1.129L150 211.345l-36.924 17.411c-1.4.66-2.835-.269-2.835-1.547v-7.607l32.295-81.036c2.493-5.962 12.436-5.962 14.928 0z"/><path fill="#565656" d="M157.464 130.637L189.7 219.38c.411 1.177-1.375 2.108-2.774 1.448L150 203.415l-36.924 17.413c-1.4.66-3.185-.272-2.774-1.448l32.235-88.743c2.492-5.962 12.435-5.962 14.927 0z"/><path fill="#FFEEF0" d="M177.2 201.244l-22.133-9.089-5.071-10.64h-19.969a.85.85 0 0 1-.799-1.141l13.312-36.65c2.495-5.965 12.432-5.965 14.927 0l20.593 56.695a.652.652 0 0 1-.86.825z"/><path fill="#DBC8CC" d="M156.516 159.092h-13.027a.492.492 0 0 1-.492-.492v-7.234c0-.27.22-.491.492-.491h13.027c.271 0 .492.22.492.491v7.234c0 .271-.22.492-.492.492z"/><path fill="#F2DADE" d="M156.516 157.95h-13.027a.49.49 0 0 1-.492-.491v-7.234c0-.272.22-.492.492-.492h13.027c.271 0 .492.22.492.492v7.234a.49.49 0 0 1-.492.491z"/><path fill="#DBC8CC" d="M155.019 166.968h-10.037a1.479 1.479 0 0 1-1.479-1.478v-.883h12.994v.883c0 .817-.662 1.478-1.478 1.478z"/><path fill="#F2DADE" d="M155.019 166.086h-10.037a1.479 1.479 0 0 1 0-2.957h10.037a1.479 1.479 0 1 1 0 2.957z"/><path fill="#DBC8CC" d="M157.039 184.614H142.96a2.074 2.074 0 0 1-2.073-2.074v-1.238h18.226v1.238a2.074 2.074 0 0 1-2.074 2.074z"/><path fill="#F2DADE" d="M157.039 183.376H142.96a2.073 2.073 0 0 1 0-4.148h14.079a2.075 2.075 0 0 1 0 4.148z"/><path fill="#565656" d="M159.788 94.031l-5.59-21.982a1.46 1.46 0 0 0-1.415-1.1h-5.565a1.46 1.46 0 0 0-1.415 1.1l-5.59 21.982c-.102.554.14 1.115.614 1.421l1.011.653c.225.145.487.222.755.222h14.816c.268 0 .53-.077.755-.222l1.011-.653c.472-.306.714-.867.613-1.421z"/><path fill="#FFCD7D" d="M154.271 99.146v54.318c0 .529-.194.947-.439.947h-7.66c-.246 0-.439-.418-.439-.947V99.146c0-.516.194-.948.439-.948h7.66c.246.001.439.433.439.948"/><path fill="#E0B46E" d="M153.832 98.199h-7.66c-.246 0-.439.432-.439.948v1.604h8.538v-1.604c0-.516-.193-.948-.439-.948"/><path fill="#3F3F3F" d="M151.971 181.515V89.763a.656.656 0 0 0-1.312 0v91.752a.656.656 0 0 0 1.312 0m2.638 0v-95.2a.668.668 0 1 0-1.336 0v95.2a.668.668 0 1 0 1.336 0m-5.263 0V80.329a.656.656 0 0 0-1.312 0v101.186a.656.656 0 0 0 1.312 0m-2.625 0V85.087a.656.656 0 0 0-1.312 0v96.428a.656.656 0 0 0 1.312 0"/></svg>