<svg xmlns="http://www.w3.org/2000/svg" version="1" viewBox="0 0 300 300"><path fill="#FFF" d="M150 300C67.29 300 0 232.71 0 150S67.29 0 150 0s150 67.29 150 150-67.29 150-150 150z"/><circle cx="150" cy="150" r="140.812" fill="#FBBC4B"/><path fill="#D6566E" d="M199.35 196.482h-98.7a7.065 7.065 0 0 1-7.065-7.065V98.562a3.292 3.292 0 0 1 3.292-3.292h106.247a3.292 3.292 0 0 1 3.292 3.292v90.855a7.066 7.066 0 0 1-7.066 7.065"/><path fill="#FF7182" d="M199.35 188.216h-98.7a7.065 7.065 0 0 1-7.065-7.065V98.565a3.292 3.292 0 0 1 3.292-3.292h106.247a3.292 3.292 0 0 1 3.292 3.293v82.588a7.067 7.067 0 0 1-7.066 7.067"/><path fill="#3D3D3D" d="M113.122 160.106h73.756v36.376h-73.756z"/><path fill="#E2E2E2" d="M128.327 204.73h-16.213a5.47 5.47 0 0 1-5.47-5.47v-85.1h27.153v85.097a5.47 5.47 0 0 1-5.47 5.47"/><path fill="#FFF" d="M128.327 196.482h-16.213a5.47 5.47 0 0 1-5.47-5.47v-76.85h27.153v76.85a5.47 5.47 0 0 1-5.47 5.47"/><path fill="#E2E2E2" d="M158.107 204.73h-16.213a5.47 5.47 0 0 1-5.47-5.47v-85.1h27.153v85.097a5.47 5.47 0 0 1-5.47 5.47"/><path fill="#FFF" d="M158.107 196.482h-16.213a5.47 5.47 0 0 1-5.47-5.47v-76.85h27.153v76.85a5.47 5.47 0 0 1-5.47 5.47"/><path fill="#E2E2E2" d="M187.886 204.73h-16.213a5.47 5.47 0 0 1-5.47-5.47v-85.1h27.153v85.097a5.47 5.47 0 0 1-5.47 5.47"/><path fill="#FFF" d="M187.886 196.482h-16.213a5.47 5.47 0 0 1-5.47-5.47v-76.85h27.153v76.85a5.47 5.47 0 0 1-5.47 5.47"/><path fill="#4C4C4C" d="M138.388 168.354h-6.555a4.007 4.007 0 0 1-4.007-4.007v-39.342h14.57v39.342a4.007 4.007 0 0 1-4.008 4.007z"/><path fill="#565656" d="M138.388 160.106h-6.555a4.007 4.007 0 0 1-4.007-4.007v-41.94h14.57v41.94a4.007 4.007 0 0 1-4.008 4.005"/><path fill="#4C4C4C" d="M168.167 168.354h-6.555a4.007 4.007 0 0 1-4.007-4.007v-39.342h14.57v39.342a4.007 4.007 0 0 1-4.008 4.007z"/><path fill="#565656" d="M168.167 160.106h-6.555a4.007 4.007 0 0 1-4.007-4.007v-41.94h14.57v41.94a4.007 4.007 0 0 1-4.008 4.005"/><path fill="#ED6979" d="M203.123 101.58H96.877a3.292 3.292 0 0 0-3.292 3.29v15.602h13.06v-6.31h86.71v6.31h13.06v-15.6a3.292 3.292 0 0 0-3.292-3.293"/><path fill="#EDEDED" d="M127.826 114.163h-21.182v6.31h21.182v-6.31m29.78 0h-15.21v6.31h15.21v-6.31m35.75 0h-21.182v6.31h21.182v-6.31"/><path fill="#505050" d="M142.395 114.163h-14.57v6.31h14.57v-6.31m29.78 0h-14.57v6.31h14.57v-6.31"/><path fill="#FF8095" d="M93.585 114.163v-15.6a3.292 3.292 0 0 1 3.292-3.293h106.247a3.292 3.292 0 0 1 3.292 3.292v15.6H93.586z"/></svg>