<svg version="1" xmlns="http://www.w3.org/2000/svg" viewBox="0 0 300 300"><path fill="#FFF" d="M149.999 300C67.29 300 0 232.71 0 150S67.29 0 149.999 0C232.71 0 300 67.29 300 150s-67.29 150-150.001 150"/><path fill="#EB595B" d="M290.812 150c0 77.768-63.044 140.812-140.812 140.812S9.188 227.768 9.188 150 72.232 9.188 150 9.188 290.812 72.232 290.812 150"/><path fill="#962C2C" d="M178.574 186.362c-2.137-4.001-2.547-8.869-.766-13.067a35.214 35.214 0 0 0 2.783-13.709c.003-3.014 0-9.526 0-9.526s-5.398-1.807-7.091.519c-2.723 3.742-4.716 6.651-10.457 6.651-7.013 0-10.521-8.221-12.354-14.046-.808-2.567-.401-7.346-.401-7.346l-1.468.018s-1.409 13.765-10.636 13.765c-4.006 0-6.298-2.748-7.575-5.858-1.382-3.368-11.199 6.267-11.199 6.267v9.526c0 4.873.99 9.497 2.763 13.655 1.802 4.227 1.416 9.127-.736 13.161-2.134 4-6.85 7.462-6.85 7.462v9.526c.004 20.09 18.145 26.896 35.413 26.896 15.737 0 35.413-6.806 35.413-26.896v-9.526s-4.532-3.15-6.839-7.472z"/><path fill="#EAC28C" d="M156.086 84.736c1.656-1.109 2.74-3.067 2.74-5.317 0-1.283-.021-3.924-.021-3.924s-3.745-2.355-5.845-2.355c-2.656 0-4.997 1.796-5.806 4.274l-.022-.018c-2.454 7.415-3.626 11.122-5.958 18.537v2.638c0 1.3.295 2.46 1.334 2.979l1.202.597a4.667 4.667 0 0 0 2.074.485h9.763c.47 0 .848-.407.848-.909v-.594a.55.55 0 0 1 .249-.467c.63-.395.943-.593 1.566-.988.369-.234.493-.684.493-1.164v-3.164c-1.039-4.244-1.56-6.366-2.617-10.61"/><path fill="#FFD9A1" d="M156.086 81.339c2.051-1.373 3.231-4.051 2.545-6.972-.506-2.154-2.104-3.891-4.145-4.425-3.249-.851-6.37 1.13-7.332 4.075l-.022-.018c-2.414 8.47-3.568 12.705-5.863 21.175-.323 1.191.201 2.46 1.241 2.979l.681.34a7.116 7.116 0 0 0 3.18.742h9.177c.47 0 .848-.407.848-.909v-.594a.55.55 0 0 1 .249-.467c.63-.395.943-.593 1.566-.988.369-.234.558-.698.474-1.153-1.033-5.514-1.55-8.271-2.599-13.785z"/><path fill="#B53E3E" d="M178.574 176.836c-2.136-4.002-2.042-8.689-.766-13.067 1.319-4.526 2.779-8.883 2.783-13.709.003-3.014-.909-7.884-4.8-7.884-5.57 0-6.226 5.529-11.536 5.529-7.013 0-11.733-8.221-13.566-14.046-.808-2.567-.401-7.346-.401-7.346l-1.468.018s-1.409 13.765-10.636 13.765c-4.006 0-6.298-2.748-7.575-5.858-1.382-3.368-5.728-3.641-7.346-.396-2.046 4.1-3.853 9.59-3.853 16.19 0 4.873 1.291 9.465 2.763 13.655 1.523 4.335 1.416 9.127-.736 13.161-4.935 9.253-6.85 12.496-6.85 16.988.004 20.09 18.145 26.896 35.413 26.896 15.737 0 35.413-6.806 35.413-26.896 0-4.492-1.907-7.761-6.839-17z"/><path fill="#FFEEF0" d="M150 145.486s8.57 5.586 14.803 5.586c5.597 0 6.989-5.518 9.847-5.518 2.514 0 3.118 2.61 3.118 4.684 0 5.772-4.104 12.538-4.104 19.498s8.315 16.848 8.315 24.325c0 8.418-3.719 13.057-9.412 15.2-10.939 4.118-17.265-16.199-22.567-18.614-4.343-1.978-14.936 6.046-17.936 2.823-6.031-6.478 5.457-17.669 5.457-26.652 0-7.523-7.284-14.026-2.351-19.424 3.847-4.21 14.83-1.908 14.83-1.908z"/><path fill="#DBC8CC" d="M158.49 165.627h-16.981c-.341 0-.617-.302-.617-.674v-9.922c0-.372.276-.674.617-.674h16.981c.341 0 .617.302.617.674v9.922c0 .372-.276.674-.617.674z"/><path fill="#F2DADE" d="M158.49 164.061h-16.981c-.341 0-.617-.302-.617-.674v-9.922c0-.372.276-.674.617-.674h16.981c.341 0 .617.302.617.674v9.922c0 .372-.276.674-.617.674z"/><path fill="#565656" d="M154.931 101.961v55.549c0 .512-.217.916-.494.916h-8.874c-.277 0-.494-.404-.494-.916v-55.549c0-.499.217-.916.494-.916h8.874c.277-.001.494.417.494.916"/><path fill="#4C4C4C" d="M154.437 101.044h-8.874c-.277 0-.494.418-.494.916v3.045h9.862v-3.044c0-.499-.217-.917-.494-.917m4.65 94.547h-18.173c-1.425 0-2.569-1.264-2.569-2.824v-2.121h23.311v2.121c0 1.56-1.145 2.824-2.569 2.824z"/><path fill="#DBC8CC" d="M157.1 177.434h-14.199c-1.115 0-2.007-.979-2.007-2.186v-1.305h18.214v1.305c-.001 1.207-.893 2.186-2.008 2.186z"/><path fill="#F2DADE" d="M157.1 176.128h-14.199c-1.115 0-2.007-.979-2.007-2.186 0-1.207.892-2.186 2.007-2.186H157.1c1.115 0 2.007.979 2.007 2.186 0 1.208-.892 2.186-2.007 2.186z"/><path fill="#565656" d="M159.087 193.47h-18.173c-1.425 0-2.569-1.264-2.569-2.823 0-1.56 1.145-2.824 2.569-2.824h18.173c1.425 0 2.569 1.264 2.569 2.824 0 1.559-1.145 2.823-2.569 2.823z"/><circle fill="#DBC8CC" cx="170.037" cy="190.65" r="2.996"/><path fill="#4F4F4F" d="M172.426 190.038v.612a2.39 2.39 0 0 1-4.778 0v-.612c0-.468.134-.905.369-1.274h.557a2.371 2.371 0 0 1 2.924 0h.557c.237.37.371.806.371 1.274z"/><path fill="#686868" d="M172.426 190.038a2.39 2.39 0 1 1-4.779-.001 2.39 2.39 0 0 1 4.779.001z"/><circle fill="#DBC8CC" cx="167.041" cy="182.42" r="2.996"/><path fill="#4F4F4F" d="M169.43 181.808v.612a2.39 2.39 0 0 1-4.778 0v-.612c0-.468.134-.905.369-1.274h.557a2.371 2.371 0 0 1 2.924 0h.557c.237.369.371.806.371 1.274z"/><path fill="#686868" d="M169.43 181.808a2.39 2.39 0 1 1-4.779-.001 2.39 2.39 0 0 1 4.779.001z"/><circle fill="#DBC8CC" cx="173.033" cy="198.878" r="2.996"/><path fill="#4F4F4F" d="M175.422 198.267v.612a2.39 2.39 0 0 1-4.778 0v-.612c0-.468.134-.905.369-1.274h.557a2.371 2.371 0 0 1 2.924 0h.557c.237.369.371.805.371 1.274z"/><path fill="#686868" d="M175.422 198.267a2.39 2.39 0 1 1-4.779-.001 2.39 2.39 0 0 1 4.779.001z"/><path fill="#3F3F3F" d="M148.031 191.303a.656.656 0 0 1-.656-.656V87.576a.656.656 0 1 1 1.312 0v103.071a.654.654 0 0 1-.656.656zm3.938 0a.656.656 0 0 1-.656-.656V80.356a.656.656 0 1 1 1.312 0v110.291a.655.655 0 0 1-.656.656z"/></svg>