<svg xmlns="http://www.w3.org/2000/svg" id="Camada_1" viewBox="0 0 538.54 538.58"><defs><style>.cls-3{fill:#4c4c4c}.cls-5{fill:#9b5f3e}.cls-6{fill:#565656}.cls-8{fill:#47170a}.cls-9{fill:#874c32}</style></defs><ellipse cx="269.27" cy="269.29" fill="#fff" rx="269.27" ry="269.29"/><ellipse cx="269.27" cy="269.29" fill="#5ec2d7" rx="252.81" ry="252.71"/><path d="M307.15 399.03s20.61-10.26 25.6-35.44c2.91-23.78 5.41-68.08-12.8-107.96-9.47-13.52-20.79-29.61-48.75-27.28-4.44-.24-35.46-3.5-51.9 27.98-11.66 27.79-28.93 109.01 4.79 136.87 27.8 23.59 63.22 14.85 83.06 5.83z" class="cls-9"/><path d="M307.65 393.51s20.05-9.98 24.91-34.48c2.84-23.14 5.27-66.23-12.45-105.02-9.21-13.16-20.22-28.81-47.42-26.54-4.32-.23-34.49-3.4-50.49 27.22-7.9 18.83-31.59 103.21 4.66 133.15 8.71 11.11 46.37 21.32 80.8 5.67z" class="cls-5"/><path d="M308.71 362.11h-73.38c-.34 0-.68-.17-1.02-.17-.35-.17-.52-.34-.86-.68-.17-.17-.34-.51-.51-.68 0-.34-.17-.68-.17-1.02v-9.04c0-1.36 1.19-2.39 2.57-2.39h73.38c1.36 0 2.39 1.02 2.39 2.39v9.04c0 .34 0 .68-.17 1.02 0 .17-.17.51-.51.68-.17.34-.51.51-.85.68-.34 0-.51.17-.85.17z" class="cls-3"/><path d="M308.71 356.99h-73.38c-.34 0-.68 0-1.02-.17-.35 0-.52-.17-.86-.51-.17-.17-.34-.51-.51-.85 0-.34-.17-.51-.17-.85v-9.04c0-1.36 1.19-2.56 2.57-2.56h73.38c1.36 0 2.39 1.19 2.39 2.56v9.04c0 1.36-1.02 2.39-2.39 2.39z" class="cls-6"/><path d="M289.76 359.56h-35.49c-.34 0-.51 0-.68-.17-.34 0-.51-.17-.68-.34-.17-.17-.17-.35-.34-.52-.17-.34-.17-.51-.17-.68v-10.58c0-.85.85-1.7 1.87-1.7h35.49c1.02 0 1.71.85 1.71 1.7v11.26c-.17.17-.34.35-.51.52-.18.17-.35.34-.52.34-.17.17-.51.17-.68.17z" class="cls-9"/><path fill="#965a3c" d="M289.76 354.26h-35.49c-.34 0-.51 0-.68-.17-.34 0-.51-.17-.68-.34-.17-.17-.17-.34-.34-.51-.17-.34-.17-.51-.17-.68v-10.41c0-1.02.85-1.87 1.87-1.87h35.49c1.02 0 1.71.85 1.71 1.87v11.09l-.51.51c-.18.17-.35.34-.52.34-.17.17-.51.17-.68.17z"/><path d="M284.65 131.04h-25.43c-.34 0-.68 0-1.03-.17-.51-.17-.85-.34-1.02-.51-.34-.34-.68-.68-.85-1.02s-.17-.68-.34-1.19l-4.6-45.72h41.13l-4.61 45.72c0 .51-.17.85-.34 1.19s-.34.68-.68 1.02l-1.02.51c-.34.17-.68.17-1.19.17z" class="cls-9"/><path d="M285.16 71.51h-26.28c-.52 0-1.2 0-1.71.17-.51 0-1.02.17-1.53.51-.51.17-.85.51-1.36.85-.51.17-.85.68-1.19 1.02-.34.35-.68.86-1.02 1.37-.17.34-.34.85-.51 1.36s-.34 1.02-.34 1.7c-.17.51 0 1.02 0 1.53l4.77 41.8c.17.34.17.68.34 1.19.17.34.51.51.68.85.34.34.68.51 1.02.68.52 0 .86.17 1.2.17h25.43c1.7 0 3.07-1.19 3.24-2.9l4.95-41.8v-1.53c-.17-.68-.17-1.19-.34-1.7s-.34-1.02-.68-1.36c-.17-.51-.51-1.02-.85-1.37-.52-.34-.86-.85-1.2-1.02-.51-.34-1.02-.68-1.53-.85-.51-.34-1.02-.51-1.53-.51-.51-.17-1.02-.17-1.53-.17z" class="cls-5"/><path d="M290.79 299.5v1.93c-.12.72-.24 1.32-.36 2.05-.12.6-.24 1.32-.48 1.92s-.37 1.32-.73 1.92c-.24.6-.48 1.2-.84 1.81-.24.6-.6 1.2-.96 1.68-.36.6-.84 1.08-1.2 1.68-.48.48-.96.96-1.32 1.44-.48.48-1.09.96-1.57 1.32-.48.48-1.08.84-1.56 1.2-.6.36-1.2.73-1.8 1.09s-1.2.6-1.8.84c-.61.24-1.21.48-1.93.72-.6.12-1.2.36-1.92.48-.6.12-1.32.24-1.93.24-.72.12-1.32.12-2.05.12s-1.32 0-2.05-.12c-.6 0-1.32-.12-1.93-.24-.72-.12-1.32-.36-1.92-.48-.72-.24-1.32-.48-1.92-.72-.6-.24-1.2-.48-1.81-.84-.6-.36-1.2-.73-1.8-1.09-.48-.36-1.08-.72-1.56-1.2-.48-.36-1.08-.84-1.44-1.32-.48-.48-.97-.96-1.45-1.44-.36-.6-.84-1.08-1.2-1.68a7.65 7.65 0 01-.96-1.68c-.36-.61-.6-1.21-.84-1.81-.36-.6-.48-1.32-.72-1.92-.24-.6-.36-1.32-.48-1.92-.12-.72-.24-1.32-.36-2.05v-3.98c.12-.72.24-1.32.36-2.05.12-.6.24-1.32.48-1.92.24-.6.36-1.21.72-1.93.24-.6.48-1.2.84-1.8.24-.6.6-1.08.96-1.68.36-.6.84-1.08 1.2-1.68.48-.48.97-.96 1.45-1.44.36-.49.96-.97 1.44-1.33.48-.48 1.08-.84 1.56-1.2l1.8-1.08c.61-.24 1.21-.6 1.81-.84.6-.24 1.2-.48 1.92-.6.6-.24 1.2-.36 1.92-.6.61-.12 1.33-.12 1.93-.24.72-.12 1.32-.12 2.05-.12s1.32 0 2.05.12c.61.12 1.33.12 1.93.24.72.24 1.32.36 1.92.6.72.12 1.32.36 1.93.6.6.24 1.2.6 1.8.84l1.8 1.08c.48.36 1.08.72 1.56 1.2.48.36 1.09.84 1.57 1.33.36.48.84.96 1.32 1.44.36.6.84 1.08 1.2 1.68.36.6.72 1.08.96 1.68.36.6.6 1.2.84 1.8.36.72.49 1.33.73 1.93.24.6.36 1.32.48 1.92.12.72.24 1.32.36 2.05v2.05z" class="cls-6"/><path d="M270.31 287.58c9.88 0 18.07 6.98 20.12 16.14.24-1.32.36-2.77.36-4.22 0-11.44-9.16-20.59-20.48-20.59s-20.47 9.15-20.47 20.59c0 1.45.12 2.89.48 4.22 1.92-9.15 10.11-16.14 19.99-16.14z" class="cls-3"/><path d="M283.63 228.68c-3.25.28-7.85-1.14-11.95-1.14s-7.39 1.14-11.26.8l3.07-100.87c0-1.02.17-1.7.51-2.05l.34-.17h15.19l.51.34.17.51c.17.51.17.85.17 1.36v1.02l3.25 100.19z" class="cls-9"/><path d="M279.52 127.63h-15.19c-.51 0-.85 1.02-.85 2.39 0-1.02.17-1.7.51-2.05l.34-.17h15.19l.51.34.17.51c.17.51.17.85.17 1.36 0-1.36-.34-2.39-.85-2.39z" class="cls-8"/><path d="M279.52 127.8h-15.19l-.34.17c-.34.34-.51 1.02-.51 2.05v7.51h16.89v-8.87l-.34-.51-.51-.34z" class="cls-8"/><path fill="#3f3f3f" d="M272.02 349.49c-.17 0-.51 0-.68-.17-.17 0-.34-.17-.51-.34-.17-.17-.34-.34-.34-.51-.17-.17-.17-.34-.17-.68V98.98c0-.17 0-.34.17-.68 0-.17.17-.34.34-.51.17-.17.34-.17.51-.34.17 0 .51-.18.68-.18s.34.18.68.18c.17.17.34.17.51.34s.17.34.34.51c0 .34.17.51.17.68v248.8c0 .34-.17.51-.17.68-.17.17-.17.34-.34.51-.17.17-.34.34-.51.34-.34.17-.51.17-.68.17z"/></svg>