<svg xmlns="http://www.w3.org/2000/svg" version="1.0" viewBox="0 0 300 300"><circle cx="150" cy="150" r="150" fill="#FFF"/><circle cx="150" cy="150" r="140.8" fill="#FAE040"/><path fill="#BF7F2C" d="M183.2 186.7v5.8c0 18.4-14.9 25.7-33.2 25.7-18.4 0-33.2-7.4-33.2-25.7v-5.8c0-1.6.2-3.3.5-4.9l7.1-8.8c1-1.3 2.2-2.6 3.3-3.8-.7-1.2-1.4-2.4-1.9-3.6-1.2-2.8-2-5.7-2-8.6v-5.8c0-1.5.1-2.9.4-4.3h51.6c.3 1.3.4 2.7.4 4.3v5.8c0 3-.7 5.9-2 8.6-.5 1.2-1.2 2.5-1.9 3.6 1.6 1.7 4.6 5.5 4.6 5.5l5.1 4.2c.8 2.5 1.2 5.1 1.2 7.8z"/><path fill="#FBBC4B" d="M183.2 186.7c0 18.4-14.9 25.7-33.2 25.7-18.4 0-33.2-7.4-33.2-25.7 0-1.6.2-3.3.5-4.9 1.2-5.9 4.4-11.5 8.5-16.3 1.1-1.2 1.3-3 .6-4.5-1.6-3.1-2.6-6.5-2.6-9.9 0-1.5.1-2.9.4-4.3 2.1-11.4 12.8-16 25.8-16 12.9 0 23.7 4.6 25.8 16 .3 1.3.4 2.7.4 4.3 0 3.4-1 6.8-2.6 9.9-.7 1.5-.5 3.2.6 4.5 3.4 4 6.2 8.5 7.7 13.3.9 2.6 1.3 5.2 1.3 7.9z"/><path fill="#4C4C4C" d="M164.6 188.1h-29.2c-.4 0-.8-.3-.8-.8v-4c0-.4.3-.8.8-.8h29.2c.4 0 .8.3.8.8v4c0 .4-.4.8-.8.8z"/><path fill="#565656" d="M164.6 186.1h-29.2c-.4 0-.8-.3-.8-.8v-4c0-.4.3-.8.8-.8h29.2c.4 0 .8.3.8.8v4c0 .5-.4.8-.8.8z"/><path fill="#BF7F2C" d="M157.1 187.1h-14.3c-.3 0-.5-.2-.5-.5v-4.4c0-.3.2-.5.5-.5h14.3c.3 0 .5.2.5.5v4.4c.1.2-.2.5-.5.5z"/><path fill="#EDAB4A" d="M157.1 185h-14.3c-.3 0-.5-.2-.5-.5v-4.4c0-.3.2-.5.5-.5h14.3c.3 0 .5.2.5.5v4.4c.1.3-.2.5-.5.5z"/><path fill="#BF7F2C" d="M155 105.3h-10c-.7 0-1.2-.5-1.3-1.1l-1.8-18H158l-1.8 18c0 .6-.6 1.1-1.2 1.1z"/><path fill="#FBBC4B" d="M155.2 81.9h-10.3c-.7 0-1.4.2-1.9.7-.8.7-1.2 1.7-1.1 2.7l1.9 16.4c.1.6.6 1.1 1.3 1.1h10c.6 0 1.2-.5 1.3-1.1l1.9-16.4c.1-1-.3-2-1.1-2.7-.7-.5-1.3-.7-2-.7z"/><circle cx="149.9" cy="154.4" r="11.4" fill="#565656"/><path fill="#4C4C4C" d="M149.9 147.8c5.5 0 10 3.9 11.1 9 .2-.8.3-1.6.3-2.4 0-6.3-5.1-11.4-11.4-11.4s-11.4 5.1-11.4 11.4c0 .8.1 1.6.3 2.4 1-5.1 5.6-9 11.1-9z"/><path fill="#EDAB4A" d="M154.5 144c-1.4-.6-3-1-4.7-1-1.6 0-3.1.3-4.4.9l1.2-39c0-.4.1-.7.2-.8l.1-.1h5.9c.1 0 .1.1.2.1 0 .1.1.2.1.2 0 .1.1.3.1.5v.4l1.3 38.8z"/><path fill="#3F3F3F" d="M149.1 182c-.2 0-.3-.2-.3-.5V88.8c0-.3.2-.5.3-.5s.3.2.3.5v92.7c.1.3-.1.5-.3.5zm-1.7 0c-.2 0-.3-.2-.3-.5V94.7c0-.3.1-.5.3-.5s.3.2.3.5v86.8c0 .3-.1.5-.3.5zm3.5 0c-.2 0-.3-.2-.3-.5V93.2c0-.3.2-.5.3-.5.2 0 .3.2.3.5v88.3c0 .3-.2.5-.3.5zm1.7 0c-.2 0-.3-.2-.3-.5V97.4c0-.3.1-.5.3-.5s.3.2.3.5v84.2c0 .2-.1.4-.3.4z"/></svg>