<?xml version="1.0" encoding="utf-8"?>
<!-- Generator: Adobe Illustrator 24.3.0, SVG Export Plug-In . SVG Version: 6.00 Build 0)  -->
<svg version="1.0" id="Layer_1" xmlns="http://www.w3.org/2000/svg" xmlns:xlink="http://www.w3.org/1999/xlink" x="0px" y="0px"
	 viewBox="0 0 300 300" enable-background="new 0 0 300 300" xml:space="preserve">
<g>
	<g>
		
			<ellipse transform="matrix(0.7071 -0.7071 0.7071 0.7071 -62.1321 149.9998)" fill="#FFFFFF" cx="150" cy="150" rx="150" ry="150"/>
		<circle fill="#5EC2D7" cx="150" cy="150" r="140.812"/>
	</g>
</g>
<g>
	<path fill="#0A0500" d="M165.981,170.933c0-8.73,4.607-16.49,11.397-20.855v-7.032c0-18.066-14.792-32.858-32.858-32.858h-8.366
		c-18.066,0-32.858,14.792-32.858,32.858v7.032c6.911,4.486,11.397,12.125,11.397,20.855c0,12.731-9.579,23.158-21.946,24.613
		c-1.819,5.214-2.789,10.67-2.789,16.49c0,27.766,24.977,40.618,50.318,40.618s50.318-12.973,50.318-40.618
		c0-5.699-0.97-11.397-2.789-16.49C175.559,194.213,165.981,183.785,165.981,170.933L165.981,170.933z"/>
	<path fill="#663003" d="M165.981,164.628c0-8.73,4.607-16.49,11.397-20.855v-7.032c0-18.066-14.792-32.858-32.858-32.858h-8.366
		c-18.066,0-32.858,14.792-32.858,32.858v7.032c6.911,4.486,11.397,12.125,11.397,20.855c0,12.731-9.579,23.158-21.946,24.613
		c-1.819,5.214-2.789,10.67-2.789,16.49c0,27.766,24.977,40.618,50.318,40.618s50.318-12.974,50.318-40.618
		c0-5.699-0.97-11.397-2.789-16.49C175.559,187.787,165.981,177.359,165.981,164.628L165.981,164.628z"/>
	<polygon fill="#2D1302" points="148.764,139.166 131.91,139.166 134.941,82.18 136.033,61.568 144.52,61.568 	"/>
	<polygon fill="#683A02" points="135.79,82.18 145.733,82.18 144.641,61.568 136.154,61.568 135.063,82.18 135.79,82.18 	"/>
	<rect x="132.032" y="139.166" fill="#0A0500" width="16.853" height="2.546"/>
	<rect x="132.032" y="139.166" fill="#0A0500" width="16.853" height="2.546"/>
	<rect x="132.032" y="139.166" fill="#0A0500" width="16.853" height="2.546"/>
	<rect x="132.032" y="139.166" fill="#0A0500" width="16.853" height="2.546"/>
	<rect x="132.032" y="139.166" fill="#0A0500" width="16.853" height="2.546"/>
	<rect x="132.032" y="139.166" fill="#0A0500" width="16.853" height="2.546"/>
	<rect x="132.032" y="139.166" fill="#0A0500" width="16.853" height="2.546"/>
	<rect x="132.032" y="139.166" fill="#0A0500" width="16.853" height="2.546"/>
	<rect x="132.032" y="139.166" fill="#0A0500" width="16.853" height="2.546"/>
	<rect x="132.032" y="139.166" fill="#0A0500" width="16.853" height="2.546"/>
	<rect x="132.032" y="139.166" fill="#0A0500" width="16.853" height="2.546"/>
	<rect x="132.032" y="139.166" fill="#0A0500" width="16.853" height="2.546"/>
	<rect x="132.032" y="139.166" fill="#0A0500" width="16.853" height="2.546"/>
	<rect x="132.032" y="139.166" fill="#0A0500" width="16.853" height="2.546"/>
	<rect x="132.032" y="139.166" fill="#0A0500" width="16.853" height="2.546"/>
	<rect x="132.032" y="139.166" fill="#0A0500" width="16.853" height="2.546"/>
	<rect x="132.032" y="139.166" fill="#0A0500" width="16.853" height="2.546"/>
	<rect x="132.032" y="139.166" fill="#0A0500" width="16.853" height="2.546"/>
	<rect x="132.032" y="139.166" fill="#0A0500" width="16.853" height="2.546"/>
	<rect x="132.032" y="139.166" fill="#0A0500" width="16.853" height="2.546"/>
	<rect x="132.032" y="139.166" fill="#0A0500" width="16.853" height="2.546"/>
	<rect x="132.032" y="139.166" fill="#0A0500" width="16.853" height="2.546"/>
	<rect x="132.032" y="139.166" fill="#0A0500" width="16.853" height="2.546"/>
	<rect x="132.032" y="139.166" fill="#0A0500" width="16.853" height="2.546"/>
	<rect x="132.032" y="139.166" fill="#0A0500" width="16.853" height="2.546"/>
	<rect x="132.032" y="139.166" fill="#0A0500" width="16.853" height="2.546"/>
	<rect x="132.032" y="139.166" fill="#0A0500" width="16.853" height="2.546"/>
	<rect x="132.032" y="139.166" fill="#0A0500" width="16.853" height="2.546"/>
	<rect x="132.032" y="139.166" fill="#0A0500" width="16.853" height="2.546"/>
	<rect x="132.032" y="139.166" fill="#0A0500" width="16.853" height="2.546"/>
	<rect x="132.032" y="139.166" fill="#0A0500" width="16.853" height="2.546"/>
	<rect x="132.032" y="139.166" fill="#0A0500" width="16.853" height="2.546"/>
	<rect x="132.032" y="139.166" fill="#0A0500" width="16.853" height="2.546"/>
	<rect x="132.032" y="139.166" fill="#0A0500" width="16.853" height="2.546"/>
	<rect x="132.032" y="139.166" fill="#0A0500" width="16.853" height="2.546"/>
	<rect x="132.032" y="139.166" fill="#0A0500" width="16.853" height="2.546"/>
	<rect x="132.032" y="139.166" fill="#0A0500" width="16.853" height="2.546"/>
	<rect x="132.032" y="139.166" fill="#0A0500" width="16.853" height="2.546"/>
	<rect x="132.032" y="139.166" fill="#0A0500" width="16.853" height="2.546"/>
	<rect x="132.032" y="139.166" fill="#0A0500" width="16.853" height="2.546"/>
	<rect x="132.032" y="139.166" fill="#0A0500" width="16.853" height="2.546"/>
	<rect x="132.032" y="139.166" fill="#0A0500" width="16.853" height="2.546"/>
	<rect x="132.032" y="139.166" fill="#0A0500" width="16.853" height="2.546"/>
	<rect x="132.032" y="139.166" fill="#0A0500" width="16.853" height="2.546"/>
	<rect x="132.032" y="139.166" fill="#0A0500" width="16.853" height="2.546"/>
	<rect x="132.032" y="139.166" fill="#0A0500" width="16.853" height="2.546"/>
	<rect x="132.032" y="139.166" fill="#0A0500" width="16.853" height="2.546"/>
	<rect x="132.032" y="139.166" fill="#0A0500" width="16.853" height="2.546"/>
	<rect x="132.032" y="139.166" fill="#0A0500" width="16.853" height="2.546"/>
	<rect x="132.032" y="139.166" fill="#0A0500" width="16.853" height="2.546"/>
	<rect x="132.032" y="139.166" fill="#0A0500" width="16.853" height="2.546"/>
	<rect x="132.032" y="139.166" fill="#0A0500" width="16.853" height="2.546"/>
	<rect x="132.032" y="139.166" fill="#0A0500" width="16.853" height="2.546"/>
	<rect x="132.032" y="139.166" fill="#0A0500" width="16.853" height="2.546"/>
	<rect x="132.032" y="139.166" fill="#0A0500" width="16.853" height="2.546"/>
	<rect x="132.032" y="139.166" fill="#0A0500" width="16.853" height="2.546"/>
	<rect x="132.032" y="139.166" fill="#0A0500" width="16.853" height="2.546"/>
	<rect x="132.032" y="139.166" fill="#0A0500" width="16.853" height="2.546"/>
	<rect x="132.032" y="139.166" fill="#0A0500" width="16.853" height="2.546"/>
	<rect x="132.032" y="139.166" fill="#0A0500" width="16.853" height="2.546"/>
	<rect x="132.032" y="139.166" fill="#0A0500" width="16.853" height="2.546"/>
	<rect x="132.032" y="139.166" fill="#0A0500" width="16.853" height="2.546"/>
	<rect x="136.033" y="50.777" fill="#4C2502" width="8.487" height="10.791"/>
	<path fill="#4C2502" d="M139.257,47.346h2.04c1.781,0,3.224,1.443,3.224,3.224v4.343c0,1.781-1.443,3.224-3.224,3.224h-2.04
		c-1.781,0-3.224-1.443-3.224-3.224V50.57C136.033,48.789,137.476,47.346,139.257,47.346z"/>
	<path fill="#0A0500" d="M150.704,160.506c6.426,0.485,7.032,5.214,7.154,10.549c0.121,2.91,0.121,5.82,0.606,8.609
		c0.606,2.91,1.334,4.607,4.244,2.91c2.182-1.334,4.122,2.182,1.94,3.274c-4.971,2.91-8.73,0.606-9.942-4.85
		c-0.606-2.91-0.606-5.941-0.728-8.851c-0.121-3.031,0.728-7.517-3.274-7.76C148.157,164.265,148.157,160.385,150.704,160.506z
		 M130.092,160.506c2.546-0.243,2.546,3.637,0,3.88c-4.122,0.243-3.274,4.85-3.274,7.76c-0.121,2.91-0.243,5.941-0.728,8.851
		c-1.091,5.456-4.85,7.76-9.942,4.85c-2.182-1.334-0.242-4.607,1.94-3.274c3.031,1.697,3.637,0,4.244-2.91
		c0.606-2.91,0.485-5.699,0.606-8.609C123.059,165.72,123.544,160.991,130.092,160.506z"/>
	<g opacity="0.349" enable-background="new    ">
		<g>
			<defs>
				<rect id="SVGID_1_" x="135.422" y="60.751" width="9.898" height="2.596"/>
			</defs>
			<clipPath id="SVGID_2_">
				<use xlink:href="#SVGID_1_"  overflow="visible"/>
			</clipPath>
			<polygon clip-path="url(#SVGID_2_)" fill="#4C2502" points="136.033,62.901 144.763,62.901 144.641,61.568 136.033,61.568 
				136.033,62.901 			"/>
		</g>
	</g>
	<path fill="#93918F" d="M147.672,183.058h-14.55c-0.606,0-1.212,0.485-1.212,1.212v3.395c0,0.606,0.485,1.212,1.212,1.212h14.55
		c0.606,0,1.212-0.485,1.212-1.212v-3.395C148.764,183.543,148.279,183.058,147.672,183.058z"/>
	<path fill="#FCFCFC" d="M147.672,182.331h-14.55c-0.606,0-1.212,0.485-1.212,1.212v3.395c0,0.606,0.485,1.212,1.212,1.212h14.55
		c0.606,0,1.212-0.485,1.212-1.212v-3.395C148.764,182.815,148.279,182.331,147.672,182.331z"/>
	<g>
		<path fill="#F9C900" d="M145.395,185.125l-2.182-122.824l0.676-0.012l2.182,122.824L145.395,185.125z M135.158,185.123
			l-0.676-0.008l1.455-122.824l0.676,0.008L135.158,185.123z M141.757,185.122l-0.97-122.824l0.676-0.005l0.97,122.824
			L141.757,185.122z M138.796,185.12l-0.676-0.001l0.243-122.824l0.676,0.001L138.796,185.12z"/>
	</g>
	<path fill="#2D1302" d="M143.308,246.411l2.667-33.222h-11.034l2.667,33.222c0.97,0,1.94,0.121,2.91,0.121
		C141.489,246.533,142.338,246.411,143.308,246.411L143.308,246.411z"/>
	<path fill="#0A0500" d="M137.609,246.411c0,0-24.994,0.193-38.673-15.921c0,0,23.708-16.733,36.821-7.145L137.609,246.411z"/>
	<path fill="#0A0500" d="M98.936,230.491l-0.397,5.85c0,0,14.008,16.984,38.675,16.25l0.395-6.179"/>
	<path fill="#4C2502" d="M145.905,53.45h-11.069c-0.344,0-0.626-0.282-0.626-0.626l0,0c0-0.344,0.282-0.626,0.626-0.626h11.069
		c0.344,0,0.626,0.282,0.626,0.626l0,0C146.531,53.169,146.249,53.45,145.905,53.45z"/>
	<path fill="#4C2502" d="M145.811,60.07h-11.069c-0.344,0-0.626-0.282-0.626-0.626v0c0-0.344,0.282-0.626,0.626-0.626h11.069
		c0.344,0,0.626,0.282,0.626,0.626v0C146.437,59.788,146.155,60.07,145.811,60.07z"/>
	<circle fill="#0A0500" cx="133.285" cy="52.825" r="2.136"/>
	<circle fill="#0A0500" cx="133.285" cy="59.136" r="2.136"/>
	<circle fill="#0A0500" cx="147.456" cy="59.444" r="2.136"/>
	<circle fill="#0A0500" cx="147.456" cy="52.741" r="2.136"/>
	<g>
		<path fill="#0A0500" d="M208.841,217.609l-1.614,1.535c-0.279,0.279-0.732,0.279-1.011,0l-0.448-0.448
			c-0.45-0.45-1.22-0.131-1.22,0.506v5.572c0,0.395,0.32,0.715,0.715,0.715h2.8c0.395,0,0.715-0.32,0.715-0.715L208.841,217.609z"/>
		
			<rect x="207.997" y="64.65" transform="matrix(-1 -7.204787e-09 7.204787e-09 -1 418.0114 291.3889)" fill="#663003" width="2.017" height="162.089"/>
		<path fill="#663003" d="M208.968,64.647c-0.415-0.033-4.07-0.408-4.704-3.337c-0.012-0.055-0.091-0.049-0.091,0.007v6.704
			c0,0.045,0.054,0.066,0.081,0.03c0.349-0.474,1.769-2.185,3.156-0.694c1.508,1.62,1.592-2.237,1.596-2.669
			C209.006,64.665,208.992,64.649,208.968,64.647z"/>
		
			<rect x="203.932" y="61.273" transform="matrix(1 -0.0079 0.0079 1 -1.1103 1.6183)" fill="#F9C900" width="0.882" height="160.275"/>
		<polygon fill="#663003" points="207.997,226.65 207.997,227.93 209.006,226.66 210.014,227.93 210.014,226.65 		"/>
		<circle fill="#0A0500" cx="209.006" cy="227.747" r="1.036"/>
	</g>
</g>
</svg>
