<svg xmlns="http://www.w3.org/2000/svg" version="1.0" viewBox="0 0 300 300"><path fill="#FFF" d="M153.375 299.963C68.001 301.848-1.848 232 .037 146.625 1.801 66.744 66.748 1.798 146.63.037 232.001-1.845 301.846 68 299.963 153.371c-1.762 79.881-66.707 144.827-146.588 146.592z"/><circle cx="150" cy="150" r="140.812" fill="#86BF5A"/><path fill="#FAE040" d="M221.187 91.32l-69.67 52.834a4.166 4.166 0 0 1-5.035 0L76.813 91.32c-2.198-1.667-2.198-4.972 0-6.639l69.67-52.834a4.166 4.166 0 0 1 5.035 0l69.67 52.834c2.198 1.667 2.198 4.971-.001 6.639z"/><circle cx="149" cy="88" r="32.982" fill="#5EC2D7"/><path fill="#EFF5E0" d="M181.5 82.354a62.95 62.95 0 0 0-21.693-3.833c-16.588 0-31.68 6.402-42.946 16.879a31.777 31.777 0 0 1-.732-4.731c11.341-10.868 26.724-17.553 43.678-17.553a63.066 63.066 0 0 1 20.064 3.259 32.608 32.608 0 0 1 1.629 5.979z"/><path fill="#E59623" d="M197.678 153.73l-2.082 57.88 13.429-3.435L216 192.976c7.39-15.823-1.458-34.561-18.322-39.246"/><path fill="#AF874E" d="M217.353 102.93l15.927 62.876c.208 1.041-.312 1.978-1.353 2.29L92.12 203.698c-1.041.208-1.978-.312-2.29-1.353l-15.927-62.876c-.208-1.041.312-1.978 1.353-2.29l139.91-35.498c.937-.313 1.978.312 2.187 1.249"/><path fill="#D6B67F" d="M215.271 94.706l15.927 62.876c.208 1.041-.312 1.978-1.353 2.29L90.038 195.37c-1.041.208-1.978-.312-2.29-1.353l-15.927-62.876c-.208-1.041.312-1.978 1.353-2.29l139.91-35.498c.937-.313 1.874.312 2.187 1.353"/><path fill="#AF874E" d="M148.022 141.759L78.9 159.352l.416 1.562 49.656-12.596c.833-.937 1.978-1.666 3.123-2.186.416-.208.833-.312 1.249-.416 1.77-.416 3.435-.312 5.101.208l9.265-2.394c.104-.626.208-1.146.312-1.771m28.523-7.183l-12.7 3.227c.416.416.729.937 1.041 1.353l12.18-3.123a5.98 5.98 0 0 0-.521-1.457m45.908-11.659l-27.586 6.975c.312.52.625.937.833 1.457l27.17-6.871-.417-1.561zm-70.683 33.312l-69.122 17.593.416 1.561 49.656-12.596c.833-.937 1.978-1.666 3.123-2.186.416-.208.833-.312 1.249-.416 1.77-.416 3.435-.312 5.101.208l9.265-2.394c-.001-.625.103-1.25.312-1.77m28.523-7.287l-18.009 4.58c.416.416 1.145.833 1.457 1.353l17.176-4.372-.624-1.561m45.804-11.555l-27.586 6.975c.312.52.625.937.833 1.457l27.17-6.871-.417-1.561z"/><path fill="#AF874E" d="M116.272 164.557c-.521.104-.937.312-1.457.52-3.331 1.666-4.997 5.725-3.852 9.889l3.227 11.971.833 2.082 17.697-4.476-2.186-2.915-1.457-2.082-2.082-7.912c-1.458-4.995-6.351-8.222-10.723-7.077m22.277-18.634l-9.473 2.394c-1.978 2.082-2.915 4.997-2.394 7.912l2.082 12.284 1.77 4.997 3.748 10.722 19.571-4.997-7.391-18.009-1.353-8.12c-.834-3.54-3.437-6.246-6.56-7.183"/><path fill="#896233" d="M133.448 145.715c-.416.104-.833.208-1.249.416-1.249.521-2.29 1.249-3.123 2.186l9.473-2.394c-1.666-.521-3.331-.625-5.101-.208"/><path fill="#AF874E" d="M164.935 139.116l-17.121 4.413v.625l.312 12.492 1.041 5.205 6.35 16.864 21.132-5.413-9.994-21.445-.208-8.224c-.208-1.561-.625-3.123-1.457-4.476m-2.186-2.499l-14.158 3.643c-.208.521-.416.937-.521 1.457l15.823-4.06c-.415-.311-.727-.728-1.144-1.04m-6.766-.52c-1.249.312-2.394.937-3.435 1.666l7.287-1.874c-1.25-.209-2.499-.105-3.852.208"/><path fill="#896233" d="M163.949 137.803l-15.823 4.06c-.104.52-.208 1.145-.208 1.77l17.047-4.499c-.416-.625-.599-.914-1.016-1.331"/><path fill="#AF874E" d="M195.7 131.349l-18.53 4.684c1.666 4.164 2.811 8.536 3.539 13.012l3.331 22.486 24.662-6.263-7.278-21.428a109.248 109.248 0 0 0-3.435-8.016c-.728-1.56-1.456-3.018-2.289-4.475m-1.562-2.603l-18.113 4.58c.208.416.416.833.52 1.249l18.217-4.684c-.207-.416-.415-.832-.624-1.145m-17.575-16.361c-5.205 1.353-7.807 6.975-5.621 11.867l5.257 9.254 17.09-5.812-7.565-11.562c-1.874-3.122-5.621-4.58-9.161-3.747"/><path fill="#896233" d="M194.867 129.892l-18.217 4.684c.208.521.416 1.041.625 1.457l18.53-4.684c-.417-.521-.626-.937-.938-1.457"/><path fill="#494949" d="M103.467 193.392l-.625.104c-.416.104-.833-.104-.937-.625L85.25 125.103c-.104-.416.104-.833.625-.937l.625-.104c.416-.104.833.104.937.625l16.656 67.769c-.001.416-.209.832-.626.936zm26.962-1.145l-.416.104c-.416.104-.833-.104-.937-.625l-18.009-73.286c-.104-.416.104-.833.625-.937l.416-.104c.416-.104.833.104.937.625l18.009 73.286c.104.417-.208.833-.625.937zm25.296-6.142l-.416.104c-.416.104-.833-.104-.937-.625l-18.009-73.286c-.104-.416.104-.833.625-.937l.416-.104c.416-.104.833.104.937.625l18.009 73.286c.104.417-.208.833-.625.937zm27.587-6.974l-.416.104c-.416.104-.833-.104-.937-.625l-18.009-73.286c-.104-.416.104-.833.625-.937l.416-.104c.416-.104.833.104.937.625l18.009 73.286c0 .416-.209.833-.625.937zm26.65-13.533l-.416.104c-.416.104-.729-.104-.833-.52L192.16 97.829c-.104-.416.104-.729.521-.833l.416-.104c.416-.104.729.104.833.521l16.552 67.353c.104.311-.104.728-.52.832z"/><path fill="#494949" d="M63.077 163.412l174.575-44.347c.729-.208 1.249-.937 1.041-1.666-.208-.729-.937-1.249-1.666-1.041l-174.68 44.347c-.729.208-1.249.937-1.041 1.666a1.429 1.429 0 0 0 1.771 1.041"/><path fill="#3A3A3A" d="M92.745 155.812l.416 1.561 2.082-.52-.312-1.562-2.186.521zm3.539 14.47l.416 1.561 2.082-.521-.312-1.561-2.186.521zm22.278-21.028l.416 1.561 1.978-.52-.416-1.561-1.978.52zm27.274-6.87l-1.978.416.416 1.562 1.978-.416-.416-1.562zm27.482-6.975l-1.978.416.416 1.562 1.978-.416-.416-1.562zm28.211-7.183l-1.77.416.312 1.562 1.874-.416-.416-1.562zm-41.64 7.703l-7.287 1.874c-1.249.937-2.186 2.186-2.811 3.643l14.158-3.643c-1.145-.937-2.602-1.561-4.06-1.874m33.417-8.536l-17.697 4.476.833 1.874c.104.208.208.521.312.729l18.113-4.58c-.104-.208-.208-.312-.312-.521l-1.249-1.978z"/><path fill="#896233" d="M201.946 145.194l-9.057 2.394-.416-1.457 9.057-2.394.416 1.457zm-34.457 8.641l-8.016 2.186-1.457-1.77 8.953-1.666.52 1.25zm-31.334 7.703l13.325-2.915-2.707-1.457-11.451 3.331.833 1.041zm-24.984 6.246l13.741-3.123-3.123-.729-11.451 3.331.833.521z"/><path fill="#494949" d="M68.49 177.569l163.645-41.536c.729-.208 1.145-.937.937-1.562-.208-.729-.937-1.145-1.562-.937L67.865 175.071c-.729.208-1.145.937-.937 1.561.209.729.833 1.145 1.562.937"/><path fill="#3A3A3A" d="M166.968 152.585l-.521-2.603-7.495 1.874 1.77 2.29 6.246-1.561zm-23.839 6.142l-.52-2.707-7.599 1.978 1.874 2.29 6.245-1.561zm-21.236 5.309l-.416-2.602-7.599 1.874 1.77 2.29 6.245-1.562z"/><path fill="#AA7739" d="M209.944 173.629l-1.25-8.384-8.682 2.615 3.209 7.677 6.723-1.908z"/><path fill="#AF874E" d="M75.201 144.614l143.375-36.959-.781-3.123-143.261 37.259.667 2.823z"/><path fill="#3A3A3A" d="M89.153 141.022l-.449-1.878 2.229-.482.391 1.805-2.171.555zm25.833-6.663l-.474-1.846 1.964-.502.462 1.85-1.952.498zm25.205-6.487l-.473-1.846 1.964-.502.462 1.849-1.953.499zm55.816-14.396l-.474-1.845 1.832-.4.401 1.804-1.759.441z"/><path fill="#494949" d="M67.91 144.901l157.503-40.599c.729-.208 1.041-.833.937-1.561-.208-.729-.833-1.145-1.561-.937L67.285 142.402c-.729.208-1.041.833-.937 1.561.209.729.937 1.146 1.562.938"/><path d="M185.724 116.133l-6.379 1.966-3.356-3.735 5.94-1.506c-.001 0 2.152 1.064 3.795 3.275z" opacity=".23"/><path fill="#FFB031" d="M210.274 216.399l-7.495-51.425-9.057-24.776a109.248 109.248 0 0 0-3.435-8.016c-1.249-2.603-2.707-5.101-4.268-7.495l-5.621-8.848a8.41 8.41 0 0 0-9.265-3.643c-5.205 1.353-7.807 6.975-5.621 11.867l2.29 4.997c2.498 5.205 4.164 10.826 4.997 16.448l3.852 26.025c-1.457 1.978-4.164 2.707-6.454 1.666l-11.555-24.776-.208-8.224c-.104-5.934-5.725-10.202-11.555-8.744-4.164 1.041-7.079 4.893-6.975 9.161l.312 12.492 1.041 5.205 7.703 20.299-1.77.416-8.848-21.34-1.353-8.12c-.937-5.83-7.183-9.265-12.7-7.079-3.956 1.666-6.35 5.83-5.621 10.098l2.082 12.284 1.77 4.997 4.893 14.053-4.684-5.934-1.457-2.082-2.082-7.912c-1.562-5.725-7.391-8.953-12.076-6.662-3.331 1.666-4.997 5.725-3.852 9.889l3.227 11.971 2.498 5.83v.104l21.445 49.031c5.413 12.388 19.05 19.05 32.167 15.719l27.066-6.871c13.738-3.227 22.587-16.552 20.609-30.605z"/></svg>