<svg xmlns="http://www.w3.org/2000/svg" version="1.0" viewBox="0 0 300 300"><path fill="#FFF" d="M300 150a149.295 149.295 0 01-.723 14.702 150.663 150.663 0 01-2.16 14.561 150.48 150.48 0 01-3.577 14.279 149.469 149.469 0 01-7.943 20.591 150.761 150.761 0 01-6.939 12.982 149.407 149.407 0 01-8.178 12.239 149.097 149.097 0 01-4.53 5.804 149.029 149.029 0 01-9.886 10.907 150.293 150.293 0 01-16.711 14.416 150.754 150.754 0 01-12.239 8.178 150.046 150.046 0 01-47.852 18.459 149.427 149.427 0 01-21.903 2.702 150.538 150.538 0 01-14.72 0 150.663 150.663 0 01-21.903-2.702 150.48 150.48 0 01-14.279-3.577 149.469 149.469 0 01-20.591-7.943 150.761 150.761 0 01-12.982-6.939 149.407 149.407 0 01-12.239-8.178 149.097 149.097 0 01-5.804-4.53 149.029 149.029 0 01-10.907-9.886 150.293 150.293 0 01-14.416-16.711 150.754 150.754 0 01-8.178-12.239 150.046 150.046 0 01-18.459-47.852A149.427 149.427 0 01.179 157.36 151.8 151.8 0 010 150a149.295 149.295 0 01.723-14.702 150.663 150.663 0 012.16-14.561 150.48 150.48 0 013.577-14.279 149.469 149.469 0 017.943-20.591 150.761 150.761 0 016.939-12.982 149.407 149.407 0 018.178-12.239 149.097 149.097 0 014.53-5.804 149.029 149.029 0 019.886-10.907 150.293 150.293 0 0116.711-14.416 150.754 150.754 0 0112.239-8.178 150.046 150.046 0 0147.852-18.459A149.427 149.427 0 01142.641.18a150.465 150.465 0 0114.719.001 150.663 150.663 0 0121.903 2.702 150.48 150.48 0 0114.279 3.577 149.469 149.469 0 0120.591 7.943 150.761 150.761 0 0112.982 6.939 149.407 149.407 0 0112.239 8.178 149.097 149.097 0 015.804 4.53 149.029 149.029 0 0110.907 9.886 150.293 150.293 0 0114.416 16.711 150.754 150.754 0 018.178 12.239 150.046 150.046 0 0118.459 47.852 149.427 149.427 0 012.702 21.903c.121 2.451.18 4.904.18 7.359z"/><path fill="#5EC2D7" d="M290.883 150a141.03 141.03 0 01-4.222 34.232 140.654 140.654 0 01-6.502 19.681 140.69 140.69 0 01-9.319 18.516 140.14 140.14 0 01-7.681 11.496 140.768 140.768 0 01-18.547 20.463 141.459 141.459 0 01-10.687 8.771 140.82 140.82 0 01-43.03 21.658 140.985 140.985 0 01-33.983 5.896 141.03 141.03 0 01-20.722-.509 141.233 141.233 0 01-13.676-2.028 141.594 141.594 0 01-13.411-3.359 140.418 140.418 0 01-13.018-4.658 140.69 140.69 0 01-18.516-9.319 140.14 140.14 0 01-11.495-7.681 140.768 140.768 0 01-20.463-18.547 141.459 141.459 0 01-8.771-10.687 140.82 140.82 0 01-21.658-43.029 140.985 140.985 0 01-5.896-33.983 141.03 141.03 0 01.509-20.722 141.233 141.233 0 012.028-13.676 141.594 141.594 0 013.359-13.411 140.418 140.418 0 014.658-13.018 140.69 140.69 0 019.319-18.516 140.14 140.14 0 017.681-11.495 140.768 140.768 0 0118.547-20.463 141.459 141.459 0 0110.687-8.771 141.506 141.506 0 0111.495-7.681 141.24 141.24 0 0118.516-9.319 141.444 141.444 0 0113.018-4.658 140.985 140.985 0 0133.983-5.896 141.03 141.03 0 0120.722.509 141.233 141.233 0 0113.676 2.028 141.594 141.594 0 0113.411 3.359 140.418 140.418 0 0113.018 4.658 140.69 140.69 0 0118.516 9.319 140.14 140.14 0 0111.496 7.681 140.768 140.768 0 0120.463 18.547 141.459 141.459 0 018.771 10.687 141.506 141.506 0 017.681 11.495 141.24 141.24 0 019.319 18.516 141.444 141.444 0 014.658 13.018 140.985 140.985 0 015.896 33.983c.113 2.303.17 4.607.17 6.913z"/><path fill="#633B0B" d="M224.772 127.584h-67.139v1.603c0-.285-.054-.56-.163-.823a2.122 2.122 0 00-.466-.698 2.135 2.135 0 00-1.521-.629h-10.967c-.285 0-.56.054-.823.163-.264.109-.496.264-.698.466s-.357.434-.466.698a2.135 2.135 0 00-.163.823v-1.603H75.228a2.506 2.506 0 00-.973.195 2.57 2.57 0 00-.824.551 2.613 2.613 0 00-.552.824 2.553 2.553 0 00-.196.973v90.815a2.554 2.554 0 00.747 1.787 2.578 2.578 0 00.82.55 2.6 2.6 0 00.967.197h67.152v-.228c0 .344.076.674.229.954.179.367.442.658.789.874a2.09 2.09 0 001.132.322h10.967c.285 0 .56-.054.823-.163.264-.109.496-.264.698-.466a2.135 2.135 0 00.629-1.521v.229h67.152a2.554 2.554 0 001.403-.432 2.506 2.506 0 00.698-.698 2.52 2.52 0 00.43-1.404v-90.815a2.583 2.583 0 00-.196-.973 2.57 2.57 0 00-.551-.824 2.528 2.528 0 00-.824-.551 2.553 2.553 0 00-.976-.196z"/><path fill="#9E6212" d="M157.633 125.529v95.891h67.151a2.554 2.554 0 001.403-.432 2.506 2.506 0 00.698-.698 2.52 2.52 0 00.43-1.404v-90.815a2.506 2.506 0 00-.196-.973 2.57 2.57 0 00-.551-.824 2.539 2.539 0 00-1.797-.746h-67.138zm-15.266 0v95.891H75.215a2.554 2.554 0 01-1.403-.432 2.506 2.506 0 01-.698-.698 2.52 2.52 0 01-.43-1.404v-90.815a2.506 2.506 0 01.195-.973 2.57 2.57 0 01.551-.824 2.539 2.539 0 011.797-.746h67.14v.001z"/><path fill="#F2F2F2" d="M157.633 125.529v1.603c0-.285-.054-.56-.163-.823a2.122 2.122 0 00-.466-.698 2.135 2.135 0 00-1.521-.629h-10.967c-.285 0-.56.054-.823.163a2.122 2.122 0 00-.698.466 2.135 2.135 0 00-.629 1.521v-1.603H76.423v80.166c0 3.104 2.226 5.738 5.319 6.285l50.573 8.448 5.929.992h4.122v-.229c0 .344.076.674.229.954l4.86.81v.386h5.09v-.386l4.86-.81c.153-.28.229-.611.229-.954v.229h4.122l5.928-.992 50.574-8.448c3.092-.547 5.319-3.18 5.319-6.285v-80.166h-65.944z"/><path fill="#633B0B" d="M157.633 129.187v94.06c0 .285-.054.56-.163.823a2.132 2.132 0 01-1.164 1.164 2.135 2.135 0 01-.823.163h-10.967a2.088 2.088 0 01-1.132-.322 2.095 2.095 0 01-.789-.874 1.954 1.954 0 01-.229-.954v-94.06c0-1.195.967-2.15 2.15-2.15h10.967c1.184 0 2.15.955 2.15 2.15z"/><path fill="#9E6212" d="M157.633 127.132v94.06c0 .285-.054.56-.163.823a2.122 2.122 0 01-.466.698 2.135 2.135 0 01-1.521.629h-10.967a2.088 2.088 0 01-1.132-.322 2.095 2.095 0 01-.789-.874 1.957 1.957 0 01-.229-.954v-94.06c0-1.195.967-2.15 2.15-2.15h10.967c1.184 0 2.15.955 2.15 2.15z"/><path fill="#EFEFEF" d="M150 125.529v93.983l7.633-1.273 9.415-1.577 50.587-8.448a2.542 2.542 0 001.523-.871 2.567 2.567 0 00.602-1.648v-88.817a2.535 2.535 0 00-2.966-2.507l-2.329.395-61.197 10.216-3.268.547zm0 0v93.983l-7.633-1.273-9.415-1.577-50.587-8.448a2.542 2.542 0 01-1.523-.871 2.542 2.542 0 01-.602-1.648v-88.817a2.535 2.535 0 012.966-2.507l2.329.395 61.197 10.216 3.268.547z"/><path fill="#F7F7F7" d="M153.27 124.982h-6.54l-61.197-10.216v82.812a5.08 5.08 0 003.511 4.835l43.906 14.25 9.415 3.053 5.089 1.654 2.544.827 2.544-.827 5.089-1.654 9.415-3.053 43.906-14.25a5.085 5.085 0 003.512-4.835v-82.812l-61.194 10.216z"/><path fill="#FFFBF3" d="M211.919 108.928v88.641a2.54 2.54 0 01-1.749 2.419l-52.534 17.06-7.55 2.446-.079.026v-93.98l.079-.026 1.618-.526 3.894-1.264 5.275-1.709 47.721-15.508c1.641-.525 3.325.697 3.325 2.421zM150 219.517l-60.164-19.53a2.544 2.544 0 01-1.27-.922 2.49 2.49 0 01-.36-.708 2.516 2.516 0 01-.124-.784v-88.646a2.538 2.538 0 013.321-2.414L150 125.535v93.982z"/><path fill="none" stroke="#EFEFEF" stroke-miterlimit="10" stroke-width="1.176" d="M150 125.535v93.982"/><path fill="#DDD6CA" d="M157.839 200.137l47.317-13.962.852 2.883-47.318 13.962-.851-2.883zm-.003-9.692l47.318-13.962.852 2.883-47.319 13.962-.851-2.883zm0-10.731l47.318-13.962.852 2.883-47.319 13.963-.851-2.884zm.001-9.698l47.318-13.962.852 2.884-47.32 13.962-.85-2.884zm.001-10.086l47.318-13.961.852 2.883-47.319 13.962-.851-2.884zm-.001-9.306l47.318-13.962.852 2.883-47.319 13.962-.851-2.883zm.001-9.694l47.319-13.962.851 2.883-47.319 13.962-.851-2.883zm0-10.085l47.319-13.962.851 2.883-47.319 13.962-.851-2.883zM94.227 189.07l.851-2.883 47.317 13.962-.851 2.883-47.317-13.962zm-.001-9.701l.851-2.883 47.318 13.962-.852 2.884-47.317-13.963zm.001-10.731l.851-2.883 47.318 13.962-.851 2.883-47.318-13.962zm0-9.696l.851-2.883 47.318 13.962-.851 2.883-47.318-13.962zm.001-10.083l.852-2.883 47.318 13.962-.851 2.884-47.319-13.963zm0-9.31l.852-2.884 47.317 13.962-.851 2.884-47.318-13.962zm.001-9.695l.852-2.884 47.318 13.962-.852 2.884-47.318-13.962zm0-10.086l.852-2.883 47.317 13.962-.851 2.883-47.318-13.962z"/><path fill="#565656" d="M162.067 197.815v3.492a1.731 1.731 0 00-1.123-.15 1.774 1.774 0 00-.626.25 1.771 1.771 0 00-.49.463 1.76 1.76 0 00-.284.611 1.79 1.79 0 001.868 2.228c.919-.064 1.666-.92 1.666-1.841v-4.447l3.503-.821v2.387a1.731 1.731 0 00-1.123-.15 1.765 1.765 0 00-.632.246c-.195.122-.36.277-.495.463a1.77 1.77 0 00-.288.613c-.057.223-.07.448-.04.677a1.785 1.785 0 001.249 1.48c.22.068.444.093.674.074.919-.063 1.666-.919 1.666-1.84v-4.865a.39.39 0 00-.152-.313.4.4 0 00-.341-.074l-4.724 1.128a.393.393 0 00-.221.142.382.382 0 00-.087.247zm10.505-4.17v3.492a1.731 1.731 0 00-1.123-.15 1.774 1.774 0 00-.626.25 1.771 1.771 0 00-.49.463 1.76 1.76 0 00-.284.611c-.056.222-.069.446-.039.673s.1.44.212.64c.111.2.256.372.433.516a1.783 1.783 0 001.262.399c.919-.064 1.666-.92 1.666-1.841v-4.447l3.503-.821v2.387a1.744 1.744 0 00-1.123-.15 1.765 1.765 0 00-.632.246 1.773 1.773 0 00-.783 1.075c-.057.223-.07.448-.04.677.03.228.101.443.214.643.112.201.258.373.437.518.179.145.378.251.598.319.22.068.444.093.674.074.919-.063 1.666-.919 1.666-1.84v-4.865a.39.39 0 00-.152-.313.392.392 0 00-.34-.074l-4.724 1.128a.39.39 0 00-.221.142.386.386 0 00-.088.248zm10.473-3.2v3.492a1.731 1.731 0 00-1.123-.15 1.774 1.774 0 00-.626.25 1.771 1.771 0 00-.49.463 1.76 1.76 0 00-.284.611c-.056.222-.069.446-.039.673s.1.44.212.64c.111.2.256.372.433.516a1.783 1.783 0 001.262.399c.919-.064 1.666-.92 1.666-1.841v-4.447l3.503-.821v2.387a1.731 1.731 0 00-1.123-.15 1.765 1.765 0 00-.632.246c-.195.122-.36.277-.495.463s-.232.39-.288.613a1.795 1.795 0 001.883 2.231c.919-.063 1.666-.919 1.666-1.84v-4.865a.39.39 0 00-.152-.313.392.392 0 00-.34-.074l-4.724 1.128c-.09.022-.164.069-.221.142s-.088.154-.088.247zm18.531-4.717l-8.013 2.26a.367.367 0 00-.206.131.364.364 0 00-.08.23v3.464a1.61 1.61 0 00-1.044-.139 1.664 1.664 0 00-1.143 2.45 1.66 1.66 0 001.578.849c.854-.059 1.548-.855 1.548-1.71v-4.352l2.969-.852v2.537a1.677 1.677 0 00-1.15-.117 1.665 1.665 0 00-.795 2.755 1.644 1.644 0 00.608.412 1.713 1.713 0 00.727.111c.854-.059 1.549-.854 1.549-1.709v-4.259l2.969-.852v2.437a1.677 1.677 0 00-1.15-.117 1.665 1.665 0 00-.795 2.755 1.644 1.644 0 00.608.412 1.697 1.697 0 00.727.111c.854-.059 1.549-.854 1.549-1.709v-4.741a.363.363 0 00-.141-.291.37.37 0 00-.15-.071.384.384 0 00-.165.005zm-39.218 1.226v3.492a1.731 1.731 0 00-1.123-.15 1.774 1.774 0 00-.626.25 1.771 1.771 0 00-.49.463 1.76 1.76 0 00-.284.611 1.775 1.775 0 00-.039.673c.03.227.1.44.212.64.111.2.256.372.433.516a1.783 1.783 0 001.262.399c.919-.064 1.666-.92 1.666-1.841v-4.447l3.503-.821v2.387a1.731 1.731 0 00-1.123-.15 1.765 1.765 0 00-.632.246c-.195.122-.36.277-.495.463a1.77 1.77 0 00-.288.613c-.057.223-.07.448-.04.677.03.228.101.443.214.643.112.201.258.373.437.518.179.145.378.251.598.319.22.068.444.093.674.074.919-.063 1.666-.919 1.666-1.84v-4.865a.39.39 0 00-.152-.313.4.4 0 00-.341-.074l-4.724 1.128a.393.393 0 00-.221.142.384.384 0 00-.087.247zm10.214-3.103v3.492a1.731 1.731 0 00-1.123-.15 1.774 1.774 0 00-.626.25 1.771 1.771 0 00-.49.463 1.76 1.76 0 00-.284.611 1.775 1.775 0 00-.039.673c.03.227.1.44.212.64.111.2.256.372.433.516a1.783 1.783 0 001.262.399c.919-.064 1.666-.92 1.666-1.841v-4.447l3.503-.821v2.387a1.731 1.731 0 00-1.123-.15 1.765 1.765 0 00-.632.246c-.195.122-.36.277-.495.463a1.77 1.77 0 00-.288.613c-.057.223-.07.448-.04.677.03.228.101.443.214.643.112.201.258.373.437.518.179.145.378.251.598.319.22.068.444.093.674.074.919-.063 1.666-.919 1.666-1.84v-4.865a.39.39 0 00-.152-.313.392.392 0 00-.34-.074l-4.724 1.128a.39.39 0 00-.221.142.383.383 0 00-.088.247zm10.473-3.199v3.492a1.731 1.731 0 00-1.123-.15c-.225.043-.433.127-.626.25s-.356.277-.49.463a1.76 1.76 0 00-.284.611 1.775 1.775 0 00-.039.673c.03.227.1.44.212.64.111.2.256.372.433.516a1.783 1.783 0 001.262.399c.919-.064 1.666-.92 1.666-1.841v-4.447l3.503-.821v2.387a1.744 1.744 0 00-1.123-.15 1.765 1.765 0 00-.632.246c-.195.122-.36.277-.495.463a1.77 1.77 0 00-.288.613c-.057.223-.07.448-.04.677.03.228.101.443.214.643.112.201.258.373.437.518.179.145.378.251.598.319.22.068.444.093.674.074.919-.063 1.666-.919 1.666-1.84v-4.865a.39.39 0 00-.152-.313.392.392 0 00-.34-.074l-4.724 1.128a.39.39 0 00-.221.142.376.376 0 00-.088.247zm18.531-4.719l-8.013 2.26a.362.362 0 00-.206.131.362.362 0 00-.08.23v3.464a1.61 1.61 0 00-1.044-.139 1.664 1.664 0 00-1.143 2.45 1.649 1.649 0 00.955.777c.203.064.411.088.623.072.854-.059 1.548-.855 1.548-1.71v-4.352l2.969-.852v2.537a1.677 1.677 0 00-1.15-.117 1.665 1.665 0 00-.795 2.755 1.644 1.644 0 00.608.412 1.713 1.713 0 00.727.111c.854-.059 1.549-.854 1.549-1.709v-4.259l2.969-.852v2.437a1.677 1.677 0 00-1.15-.117 1.665 1.665 0 00-.514 2.994 1.647 1.647 0 00.684.268c.123.019.246.024.37.015.854-.059 1.549-.854 1.549-1.709v-4.741a.373.373 0 00-.292-.361.414.414 0 00-.164.005zm-38.959 1.098v3.492a1.731 1.731 0 00-1.123-.15 1.774 1.774 0 00-.626.25 1.771 1.771 0 00-.49.463 1.76 1.76 0 00-.284.611 1.79 1.79 0 001.868 2.228c.919-.064 1.666-.92 1.666-1.841v-4.447l3.503-.821v2.387a1.744 1.744 0 00-1.123-.15 1.765 1.765 0 00-.632.246c-.195.122-.36.277-.495.463a1.77 1.77 0 00-.288.613c-.057.223-.07.448-.04.677.03.228.101.443.214.643.112.201.258.373.437.518.179.145.378.251.598.319.22.068.444.093.674.074.919-.063 1.666-.919 1.666-1.84v-4.865a.39.39 0 00-.152-.313.4.4 0 00-.341-.074l-4.724 1.128a.39.39 0 00-.221.142.384.384 0 00-.087.247zm9.955-3.749v3.492a1.731 1.731 0 00-1.123-.15 1.774 1.774 0 00-.626.25 1.771 1.771 0 00-.49.463 1.76 1.76 0 00-.284.611 1.775 1.775 0 00-.039.673c.03.227.1.44.212.64.111.2.256.372.433.516a1.783 1.783 0 001.262.399c.919-.064 1.666-.92 1.666-1.841v-4.447l3.503-.821v2.387a1.731 1.731 0 00-1.123-.15 1.765 1.765 0 00-.632.246c-.195.122-.36.277-.495.463a1.77 1.77 0 00-.288.613c-.057.223-.07.448-.04.677.03.228.101.442.214.643.112.201.258.373.437.518.179.145.378.251.598.319.22.068.444.093.674.074.919-.063 1.666-.919 1.666-1.84v-4.865a.39.39 0 00-.152-.313.392.392 0 00-.34-.074l-4.724 1.128a.39.39 0 00-.221.142.376.376 0 00-.088.247zm10.473-3.201v3.492a1.731 1.731 0 00-1.123-.15 1.774 1.774 0 00-.626.25 1.771 1.771 0 00-.49.463 1.76 1.76 0 00-.284.611 1.775 1.775 0 00-.039.673c.03.227.1.44.212.64.111.2.256.372.433.516a1.783 1.783 0 001.262.399c.919-.064 1.666-.92 1.666-1.841v-4.447l3.503-.821v2.387a1.744 1.744 0 00-1.123-.15 1.765 1.765 0 00-.632.246c-.195.122-.36.277-.495.463a1.77 1.77 0 00-.288.613c-.057.223-.07.448-.04.677.03.228.101.443.214.643.112.201.258.373.437.518.179.145.378.251.598.319.22.068.444.093.674.074.919-.063 1.666-.919 1.666-1.84v-4.865a.39.39 0 00-.152-.313.392.392 0 00-.34-.074l-4.724 1.128a.39.39 0 00-.221.142.38.38 0 00-.088.247zm18.531-4.717l-8.013 2.26a.362.362 0 00-.206.131.362.362 0 00-.08.23v3.464a1.61 1.61 0 00-1.044-.139 1.664 1.664 0 00-1.143 2.45 1.649 1.649 0 00.955.777c.203.064.411.088.623.072.854-.059 1.548-.855 1.548-1.71v-4.352l2.969-.852v2.537a1.677 1.677 0 00-1.15-.117 1.665 1.665 0 00-.514 2.994 1.647 1.647 0 00.684.268c.123.019.246.024.37.015.854-.059 1.549-.854 1.549-1.709v-4.259l2.969-.852v2.437a1.677 1.677 0 00-1.15-.117 1.665 1.665 0 00-.514 2.994 1.647 1.647 0 00.684.268c.123.019.246.024.37.015.854-.059 1.549-.854 1.549-1.709v-4.741a.372.372 0 00-.291-.361.419.419 0 00-.165.006zm-29.004-1.585v3.492a1.731 1.731 0 00-1.123-.15 1.774 1.774 0 00-.626.25 1.771 1.771 0 00-.49.463 1.76 1.76 0 00-.284.611 1.775 1.775 0 00-.039.673c.03.227.1.44.212.64.111.2.256.372.433.516a1.783 1.783 0 001.262.399c.919-.064 1.666-.92 1.666-1.841v-4.447l3.503-.821v2.387a1.731 1.731 0 00-1.123-.15 1.765 1.765 0 00-.632.246c-.195.122-.36.277-.495.463a1.77 1.77 0 00-.288.613c-.057.223-.07.448-.04.677.03.228.101.442.214.643.112.201.258.373.437.518.179.145.378.251.598.319.22.068.444.093.674.074.919-.063 1.666-.919 1.666-1.84v-4.865a.39.39 0 00-.152-.313.392.392 0 00-.34-.074l-4.724 1.128a.39.39 0 00-.221.142.376.376 0 00-.088.247zm10.473-3.201v3.492a1.731 1.731 0 00-1.123-.15 1.774 1.774 0 00-.626.25 1.771 1.771 0 00-.49.463 1.76 1.76 0 00-.284.611 1.775 1.775 0 00-.039.673c.03.227.1.44.212.64.111.2.256.372.433.516a1.783 1.783 0 001.262.399c.919-.064 1.666-.92 1.666-1.841v-4.447l3.503-.821v2.387a1.744 1.744 0 00-1.123-.15 1.765 1.765 0 00-.632.246c-.195.122-.36.277-.495.463a1.77 1.77 0 00-.288.613c-.057.223-.07.448-.04.677.03.228.101.443.214.643.112.201.258.373.437.518.179.145.378.251.598.319.22.068.444.093.674.074.919-.063 1.666-.919 1.666-1.84v-4.865a.39.39 0 00-.152-.313.392.392 0 00-.34-.074l-4.724 1.128c-.09.022-.164.069-.221.142s-.088.155-.088.247zm18.531-4.717l-8.013 2.26c-.084.02-.152.063-.206.131s-.08.144-.08.23v3.464a1.61 1.61 0 00-1.044-.139 1.664 1.664 0 00-1.143 2.45 1.649 1.649 0 00.955.777c.203.064.411.088.623.072.854-.059 1.548-.855 1.548-1.71v-4.352l2.969-.852v2.537a1.677 1.677 0 00-1.15-.117 1.665 1.665 0 00-.795 2.755 1.644 1.644 0 00.608.412 1.713 1.713 0 00.727.111c.854-.059 1.549-.854 1.549-1.709v-4.259l2.969-.852v2.437a1.677 1.677 0 00-1.15-.117 1.665 1.665 0 00-.514 2.994 1.647 1.647 0 00.684.268c.123.019.246.024.37.015.854-.059 1.549-.854 1.549-1.709v-4.741a.372.372 0 00-.141-.29.363.363 0 00-.315-.066zm-29.004-1.973v3.492a1.731 1.731 0 00-1.123-.15 1.774 1.774 0 00-.626.25 1.771 1.771 0 00-.49.463 1.76 1.76 0 00-.284.611 1.775 1.775 0 00-.039.673c.03.227.1.44.212.64.111.2.256.372.433.516a1.783 1.783 0 001.262.399c.919-.064 1.666-.92 1.666-1.841v-4.447l3.503-.821v2.387a1.731 1.731 0 00-1.123-.15 1.765 1.765 0 00-.632.246 1.773 1.773 0 00-.783 1.075c-.057.223-.07.448-.04.677.03.228.101.443.214.643.112.201.258.373.437.518.179.145.378.251.598.319.22.068.444.093.674.074.919-.063 1.666-.919 1.666-1.84v-4.865a.39.39 0 00-.152-.313.392.392 0 00-.34-.074l-4.724 1.128c-.09.022-.164.069-.221.142s-.088.155-.088.248zm10.473-3.201v3.492a1.731 1.731 0 00-1.123-.15 1.774 1.774 0 00-.626.25 1.771 1.771 0 00-.49.463 1.76 1.76 0 00-.284.611 1.775 1.775 0 00-.039.673c.03.227.1.44.212.64.111.2.256.372.433.516a1.783 1.783 0 001.262.399c.919-.064 1.666-.92 1.666-1.841v-4.447l3.503-.821v2.387a1.744 1.744 0 00-1.123-.15 1.765 1.765 0 00-.632.246c-.195.122-.36.277-.495.463a1.77 1.77 0 00-.288.613c-.057.223-.07.448-.04.677.03.228.101.443.214.643.112.201.258.373.437.518.179.145.378.251.598.319.22.068.444.093.674.074.919-.063 1.666-.919 1.666-1.84v-4.865a.39.39 0 00-.152-.313.392.392 0 00-.34-.074l-4.724 1.128a.39.39 0 00-.221.142.38.38 0 00-.088.247zm18.531-4.717l-8.013 2.26a.362.362 0 00-.206.131.362.362 0 00-.08.23v3.464a1.61 1.61 0 00-1.044-.139 1.664 1.664 0 00-1.143 2.45 1.649 1.649 0 00.955.777c.203.064.411.088.623.072.854-.059 1.548-.855 1.548-1.71v-4.352l2.969-.852v2.537a1.677 1.677 0 00-1.15-.117 1.665 1.665 0 00-.795 2.755 1.644 1.644 0 00.608.412 1.713 1.713 0 00.727.111c.854-.059 1.549-.854 1.549-1.709v-4.259l2.969-.852v2.437a1.677 1.677 0 00-1.15-.117 1.665 1.665 0 00-.795 2.755 1.644 1.644 0 00.608.412 1.697 1.697 0 00.727.111c.854-.059 1.549-.854 1.549-1.709v-4.741a.372.372 0 00-.141-.29.369.369 0 00-.315-.067zm-29.004-1.973v3.492a1.731 1.731 0 00-1.123-.15 1.774 1.774 0 00-.626.25 1.771 1.771 0 00-.49.463 1.76 1.76 0 00-.284.611 1.775 1.775 0 00-.039.673c.03.227.1.44.212.64.111.2.256.372.433.516a1.783 1.783 0 001.262.399c.919-.064 1.666-.92 1.666-1.841v-4.447l3.503-.821v2.387a1.744 1.744 0 00-1.123-.15 1.765 1.765 0 00-.632.246c-.195.122-.36.277-.495.463a1.77 1.77 0 00-.288.613c-.057.223-.07.448-.04.677.03.228.101.442.214.643.112.201.258.373.437.518.179.145.378.251.598.319.22.068.444.093.674.074.919-.063 1.666-.919 1.666-1.84v-4.865a.39.39 0 00-.152-.313.392.392 0 00-.34-.074l-4.724 1.128a.39.39 0 00-.221.142.378.378 0 00-.088.247zm10.473-3.199v3.492a1.731 1.731 0 00-1.123-.15c-.225.043-.433.127-.626.25s-.356.277-.49.463a1.76 1.76 0 00-.284.611 1.775 1.775 0 00-.039.673c.03.227.1.44.212.64.111.2.256.372.433.516a1.783 1.783 0 001.262.399c.919-.064 1.666-.92 1.666-1.841v-4.447l3.503-.821v2.387a1.731 1.731 0 00-1.123-.15 1.765 1.765 0 00-.632.246c-.195.122-.36.277-.495.463a1.77 1.77 0 00-.288.613c-.057.223-.07.448-.04.677.03.228.101.443.214.643.112.201.258.373.437.518.179.145.378.251.598.319.22.068.444.093.674.074.919-.063 1.666-.919 1.666-1.84v-4.865a.39.39 0 00-.152-.313.392.392 0 00-.34-.074l-4.724 1.128a.39.39 0 00-.222.141.385.385 0 00-.087.248zm18.531-4.719l-8.013 2.26a.367.367 0 00-.206.131.364.364 0 00-.08.23v3.464a1.61 1.61 0 00-1.044-.139 1.664 1.664 0 00-1.143 2.45 1.649 1.649 0 00.955.777c.203.064.411.088.623.072.854-.059 1.548-.855 1.548-1.71v-4.352l2.969-.852v2.537a1.677 1.677 0 00-1.15-.117 1.665 1.665 0 00-.795 2.755 1.644 1.644 0 00.608.412 1.697 1.697 0 00.727.111c.854-.059 1.549-.854 1.549-1.709v-4.259l2.969-.852v2.437a1.677 1.677 0 00-1.15-.117 1.665 1.665 0 00-.514 2.994 1.647 1.647 0 00.684.268c.123.019.246.024.37.015.854-.059 1.549-.854 1.549-1.709v-4.741a.363.363 0 00-.141-.291.37.37 0 00-.15-.071.438.438 0 00-.165.006zm-29.004-1.003v3.492a1.731 1.731 0 00-1.123-.15 1.774 1.774 0 00-.626.25 1.771 1.771 0 00-.49.463 1.76 1.76 0 00-.284.611 1.775 1.775 0 00-.039.673c.03.227.1.44.212.64.111.2.256.372.433.516a1.783 1.783 0 001.262.399c.919-.064 1.666-.92 1.666-1.841v-4.447l3.503-.821v2.387a1.744 1.744 0 00-1.123-.15 1.765 1.765 0 00-.632.246c-.195.122-.36.277-.495.463a1.77 1.77 0 00-.288.613c-.057.223-.07.448-.04.677.03.228.101.443.214.643.112.201.258.373.437.518.179.145.378.251.598.319.22.068.444.093.674.074.919-.063 1.666-.919 1.666-1.84v-4.865a.39.39 0 00-.152-.313.392.392 0 00-.34-.074l-4.724 1.128a.39.39 0 00-.221.142.378.378 0 00-.088.247zm10.473-3.2v3.492a1.731 1.731 0 00-1.123-.15 1.774 1.774 0 00-.626.25c-.193.123-.356.277-.49.463s-.229.389-.284.611a1.775 1.775 0 00-.039.673c.03.227.1.44.212.64.111.2.256.372.433.516a1.783 1.783 0 001.262.399c.919-.064 1.666-.92 1.666-1.841v-4.447l3.503-.821v2.387a1.731 1.731 0 00-1.123-.15 1.765 1.765 0 00-.632.246c-.195.122-.36.277-.495.463a1.77 1.77 0 00-.288.613c-.057.223-.07.448-.04.677.03.228.101.443.214.643.112.201.258.373.437.518.179.145.378.251.598.319.22.068.444.093.674.074.919-.063 1.666-.919 1.666-1.84v-4.865a.39.39 0 00-.152-.313.392.392 0 00-.34-.074l-4.724 1.128c-.09.022-.164.069-.221.142s-.088.154-.088.247zm18.531-4.718l-8.013 2.26a.367.367 0 00-.206.131.364.364 0 00-.08.23v3.464a1.61 1.61 0 00-1.044-.139 1.664 1.664 0 00-1.143 2.45 1.66 1.66 0 001.578.849c.854-.059 1.548-.855 1.548-1.71v-4.352l2.969-.852v2.537a1.677 1.677 0 00-1.15-.117 1.665 1.665 0 00-.514 2.994 1.647 1.647 0 00.684.268c.122.019.246.024.37.015.854-.059 1.549-.854 1.549-1.709v-4.259l2.969-.852v2.437a1.677 1.677 0 00-1.15-.117 1.665 1.665 0 00-.796 2.754 1.644 1.644 0 00.608.412 1.713 1.713 0 00.727.111c.854-.059 1.549-.854 1.549-1.709v-4.741a.363.363 0 00-.141-.291.37.37 0 00-.15-.071.456.456 0 00-.164.007zm-92.463 64.084l-.817 3.395a1.793 1.793 0 00-2.331.042 1.805 1.805 0 00-.597 1.472 1.787 1.787 0 00.464 1.079 1.824 1.824 0 00.649.453c.124.051.251.087.383.109.908.153 1.836-.504 2.051-1.4l1.041-4.324 3.597.022-.558 2.321a1.77 1.77 0 00-.754-.37 1.805 1.805 0 00-.839.014 1.82 1.82 0 00-.74.396 1.79 1.79 0 00-.597 1.472 1.795 1.795 0 001.495 1.641c.908.153 1.836-.503 2.051-1.399l1.138-4.73a.4.4 0 00-.213-.452.39.39 0 00-.174-.04l-4.858-.009a.402.402 0 00-.391.308zm-10.861-3.62l-.817 3.395a1.793 1.793 0 00-2.331.042 1.805 1.805 0 00-.597 1.472 1.787 1.787 0 00.464 1.079 1.824 1.824 0 00.649.453c.124.05.251.087.383.109.908.153 1.836-.504 2.051-1.4l1.041-4.324 3.597.022-.558 2.321a1.77 1.77 0 00-.754-.37 1.8 1.8 0 00-1.233.168 1.776 1.776 0 00-.626.558 1.755 1.755 0 00-.198.373 1.766 1.766 0 00-.119.783 1.795 1.795 0 001.495 1.642c.908.153 1.836-.503 2.051-1.399l1.138-4.729a.4.4 0 00-.213-.452.39.39 0 00-.174-.04l-4.858-.009a.393.393 0 00-.249.085.387.387 0 00-.142.221zm42.655 10.04l-8.293-.74a.359.359 0 00-.239.05.358.358 0 00-.156.187l-1.233 3.238a1.615 1.615 0 00-.926-.502 1.658 1.658 0 00-1.199.254 1.66 1.66 0 00-.729 1.628 1.65 1.65 0 00.609 1.064c.165.132.349.23.551.292.819.248 1.752-.248 2.056-1.047l1.549-4.067 3.078.261-.903 2.371a1.627 1.627 0 00-1.548-.487 1.66 1.66 0 00-1.301 1.867c.03.209.097.405.202.589a1.673 1.673 0 00.953.767c.819.249 1.752-.247 2.056-1.046l1.516-3.98 3.078.261-.868 2.278a1.612 1.612 0 00-.926-.502 1.648 1.648 0 00-.622.015 1.66 1.66 0 00-1.301 1.867c.03.209.097.405.202.589a1.663 1.663 0 00.952.767c.819.248 1.752-.247 2.056-1.046l1.687-4.43a.367.367 0 00-.145-.44.357.357 0 00-.156-.058zm-12.752-3.539l-8.293-.74a.359.359 0 00-.239.05.355.355 0 00-.156.187l-1.233 3.237a1.615 1.615 0 00-.926-.502 1.658 1.658 0 00-1.2.254 1.664 1.664 0 00-.73 1.63 1.65 1.65 0 00.609 1.064c.165.132.349.23.552.292.819.248 1.752-.247 2.056-1.047l1.549-4.067 3.078.261-.903 2.371a1.612 1.612 0 00-.926-.502 1.648 1.648 0 00-.622.015 1.66 1.66 0 00-1.301 1.867c.03.209.097.405.202.589a1.655 1.655 0 00.952.767c.819.248 1.752-.247 2.056-1.046l1.516-3.98 3.078.261-.868 2.278a1.612 1.612 0 00-.926-.502 1.648 1.648 0 00-.622.015 1.66 1.66 0 00-1.301 1.867c.03.209.097.405.202.589a1.663 1.663 0 00.952.767c.819.248 1.752-.247 2.056-1.046l1.687-4.43a.368.368 0 00-.143-.44.325.325 0 00-.156-.059zm-19.171-12.837l-.817 3.395a1.793 1.793 0 00-2.331.042 1.805 1.805 0 00-.597 1.472 1.787 1.787 0 00.464 1.079 1.824 1.824 0 00.649.453c.124.051.251.087.383.109.908.153 1.836-.504 2.051-1.4l1.041-4.324 3.597.022-.558 2.321a1.77 1.77 0 00-.754-.37 1.8 1.8 0 00-1.233.168 1.776 1.776 0 00-.626.558 1.78 1.78 0 00-.301.758 1.828 1.828 0 00.056.79 1.795 1.795 0 001.423 1.25c.908.153 1.836-.503 2.051-1.399l1.138-4.729a.4.4 0 00-.213-.452.39.39 0 00-.174-.04l-4.858-.009a.393.393 0 00-.249.085.385.385 0 00-.142.221zm-10.861-3.62l-.817 3.395a1.793 1.793 0 00-2.331.042 1.805 1.805 0 00-.597 1.472 1.787 1.787 0 00.464 1.079 1.824 1.824 0 00.649.453c.124.05.251.087.383.109.908.153 1.836-.504 2.051-1.4l1.041-4.324 3.597.022-.558 2.321a1.77 1.77 0 00-.754-.37 1.8 1.8 0 00-1.233.168 1.776 1.776 0 00-.626.558 1.78 1.78 0 00-.301.758 1.828 1.828 0 00.056.79 1.795 1.795 0 001.423 1.25c.908.153 1.836-.503 2.051-1.399l1.138-4.729a.4.4 0 00-.213-.452.39.39 0 00-.174-.04l-4.858-.009a.392.392 0 00-.248.086.381.381 0 00-.143.22zm43.188 9.361l-8.293-.74a.359.359 0 00-.239.05.355.355 0 00-.156.187l-1.233 3.238a1.615 1.615 0 00-.926-.502 1.658 1.658 0 00-1.199.254 1.66 1.66 0 00-.729 1.628 1.65 1.65 0 00.609 1.064c.165.132.349.23.551.292.819.248 1.752-.247 2.056-1.047l1.549-4.067 3.078.261-.903 2.371a1.612 1.612 0 00-.926-.502 1.648 1.648 0 00-.622.015 1.66 1.66 0 00-1.301 1.867c.03.209.097.405.202.589a1.663 1.663 0 00.952.767c.819.248 1.752-.247 2.056-1.046l1.516-3.98 3.078.261-.868 2.278a1.612 1.612 0 00-.926-.502 1.648 1.648 0 00-.622.015 1.66 1.66 0 00-1.301 1.867c.03.209.097.405.202.589a1.673 1.673 0 00.952.767c.819.248 1.752-.246 2.056-1.046l1.687-4.43a.367.367 0 00-.145-.44.353.353 0 00-.155-.058zm-13.285-2.86l-8.293-.74a.359.359 0 00-.239.05.355.355 0 00-.156.187l-1.233 3.237a1.615 1.615 0 00-.926-.502 1.658 1.658 0 00-1.199.254 1.66 1.66 0 00-.729 1.628 1.65 1.65 0 00.609 1.064c.165.132.349.23.551.292.819.249 1.752-.247 2.056-1.047l1.549-4.067 3.078.261-.903 2.371a1.612 1.612 0 00-.926-.502 1.648 1.648 0 00-.622.015 1.66 1.66 0 00-1.301 1.867c.03.209.097.405.202.589a1.663 1.663 0 00.952.767c.819.248 1.752-.246 2.056-1.046l1.516-3.98 3.078.261-.868 2.278a1.612 1.612 0 00-.926-.502 1.648 1.648 0 00-.622.015 1.66 1.66 0 00-1.301 1.867c.03.209.097.405.202.589a1.655 1.655 0 00.952.767c.819.249 1.752-.246 2.056-1.046l1.687-4.43a.367.367 0 00-.145-.44.36.36 0 00-.155-.057zm-19.689-13.612l-.817 3.395a1.793 1.793 0 00-2.331.042 1.795 1.795 0 00.899 3.113c.908.153 1.836-.504 2.051-1.4l1.041-4.324 3.597.022-.558 2.321a1.77 1.77 0 00-.754-.37 1.8 1.8 0 00-1.233.168 1.776 1.776 0 00-.626.558 1.78 1.78 0 00-.301.758 1.828 1.828 0 00.056.79 1.795 1.795 0 001.423 1.25c.908.153 1.836-.503 2.051-1.399l1.138-4.729a.4.4 0 00-.213-.452.39.39 0 00-.174-.04l-4.858-.009a.395.395 0 00-.391.306zm-10.86-3.62l-.817 3.395a1.793 1.793 0 00-2.331.042 1.805 1.805 0 00-.597 1.472 1.787 1.787 0 00.464 1.079 1.824 1.824 0 00.649.453c.124.051.251.087.383.109.908.153 1.836-.504 2.051-1.4l1.041-4.324 3.597.022-.558 2.321a1.77 1.77 0 00-.754-.37 1.8 1.8 0 00-1.233.168 1.813 1.813 0 00-.627.558 1.78 1.78 0 00-.301.758 1.828 1.828 0 00.056.79 1.795 1.795 0 001.423 1.25c.908.153 1.836-.503 2.051-1.399l1.138-4.729a.4.4 0 00-.213-.452.39.39 0 00-.174-.04l-4.858-.009a.393.393 0 00-.39.306zm43.382 8.634l-8.293-.74c-.085-.011-.165.005-.239.05s-.126.106-.156.187l-1.233 3.237a1.615 1.615 0 00-.926-.502 1.658 1.658 0 00-1.199.254 1.66 1.66 0 00-.729 1.628 1.65 1.65 0 00.609 1.064c.165.132.349.23.551.292.819.248 1.752-.248 2.056-1.047l1.549-4.067 3.078.26-.903 2.371a1.612 1.612 0 00-.926-.502 1.648 1.648 0 00-.622.015 1.66 1.66 0 00-1.301 1.867c.03.209.097.405.202.589a1.663 1.663 0 00.952.767c.819.248 1.752-.247 2.056-1.046l1.516-3.98 3.078.26-.868 2.278a1.612 1.612 0 00-.926-.502 1.648 1.648 0 00-.622.015 1.66 1.66 0 00-1.301 1.867c.03.209.097.405.202.589a1.663 1.663 0 00.952.767c.819.249 1.752-.246 2.056-1.046l1.687-4.43a.367.367 0 00-.3-.495zm-13.479-2.133l-8.293-.74a.359.359 0 00-.239.05.355.355 0 00-.156.187l-1.233 3.238a1.615 1.615 0 00-.926-.502 1.658 1.658 0 00-1.2.254 1.664 1.664 0 00-.73 1.63 1.65 1.65 0 00.609 1.064c.165.132.349.23.552.292.819.249 1.752-.247 2.056-1.047l1.549-4.067 3.078.26-.903 2.371a1.612 1.612 0 00-.926-.502 1.648 1.648 0 00-.622.015 1.66 1.66 0 00-1.301 1.867c.03.209.097.405.202.589a1.655 1.655 0 00.952.767c.819.249 1.752-.246 2.056-1.046l1.516-3.98 3.078.261-.868 2.278a1.612 1.612 0 00-.926-.502 1.648 1.648 0 00-.622.015 1.66 1.66 0 00-1.301 1.867c.03.209.097.405.202.589a1.655 1.655 0 00.952.767c.819.249 1.752-.246 2.056-1.046l1.687-4.43a.367.367 0 00-.145-.44.335.335 0 00-.154-.059zm-19.689-12.837l-.817 3.395a1.793 1.793 0 00-2.331.042 1.805 1.805 0 00-.597 1.472 1.787 1.787 0 00.464 1.079 1.824 1.824 0 00.649.453c.124.05.251.087.383.109.908.153 1.836-.504 2.051-1.4l1.041-4.324 3.597.022-.558 2.321a1.77 1.77 0 00-.754-.37 1.8 1.8 0 00-1.233.168 1.776 1.776 0 00-.626.558 1.78 1.78 0 00-.301.758 1.828 1.828 0 00.056.79 1.795 1.795 0 001.423 1.25c.908.153 1.836-.503 2.051-1.399l1.138-4.729a.4.4 0 00-.213-.452.39.39 0 00-.174-.04l-4.858-.009a.393.393 0 00-.249.085.39.39 0 00-.142.221zm-10.861-3.62l-.817 3.395a1.793 1.793 0 00-2.331.042 1.831 1.831 0 00-.582 1.074 1.767 1.767 0 00.058.789 1.795 1.795 0 001.423 1.25c.908.153 1.836-.504 2.051-1.4l1.041-4.324 3.597.022-.558 2.321a1.77 1.77 0 00-.754-.37 1.8 1.8 0 00-1.233.168 1.79 1.79 0 00-.943 1.714 1.795 1.795 0 001.495 1.642c.908.153 1.836-.503 2.051-1.399l1.138-4.729a.4.4 0 00-.213-.452.39.39 0 00-.174-.04l-4.858-.009a.393.393 0 00-.249.085.39.39 0 00-.142.221zm29.903 6.501l-8.293-.74a.359.359 0 00-.239.05.355.355 0 00-.156.187l-1.233 3.238a1.615 1.615 0 00-.926-.502 1.658 1.658 0 00-1.199.254 1.66 1.66 0 00-.729 1.628 1.65 1.65 0 00.609 1.064c.165.132.349.23.551.292.819.248 1.752-.247 2.056-1.047l1.549-4.067 3.078.261-.903 2.371a1.612 1.612 0 00-.926-.502 1.648 1.648 0 00-.622.015 1.66 1.66 0 00-1.301 1.867c.03.209.097.405.202.589a1.673 1.673 0 00.952.767c.819.249 1.752-.246 2.056-1.046l1.516-3.98 3.078.261-.868 2.278a1.612 1.612 0 00-.926-.502 1.648 1.648 0 00-.622.015 1.66 1.66 0 00-1.301 1.867 1.656 1.656 0 001.154 1.356c.819.249 1.752-.246 2.056-1.046l1.687-4.43a.367.367 0 00-.145-.44.349.349 0 00-.155-.058zm-18.913-12.965l-.817 3.395a1.793 1.793 0 00-2.331.042 1.805 1.805 0 00-.597 1.472 1.787 1.787 0 00.464 1.079 1.824 1.824 0 00.649.453c.124.051.251.087.383.109.908.153 1.836-.504 2.051-1.4l1.041-4.324 3.597.022-.558 2.321a1.77 1.77 0 00-.754-.37 1.8 1.8 0 00-1.233.168 1.776 1.776 0 00-.626.558 1.78 1.78 0 00-.301.758 1.828 1.828 0 00.056.79 1.795 1.795 0 001.423 1.25c.908.153 1.836-.503 2.051-1.399l1.138-4.729a.4.4 0 00-.213-.452.39.39 0 00-.174-.04l-4.858-.009a.395.395 0 00-.391.306zm-10.86-3.62l-.817 3.395a1.793 1.793 0 00-2.331.042 1.805 1.805 0 00-.597 1.472 1.787 1.787 0 00.464 1.079 1.824 1.824 0 00.649.453c.124.05.251.087.383.109.908.153 1.836-.504 2.051-1.4l1.041-4.324 3.597.022-.558 2.321a1.77 1.77 0 00-.754-.37 1.805 1.805 0 00-.839.014 1.82 1.82 0 00-.74.396 1.79 1.79 0 00-.597 1.472 1.795 1.795 0 001.495 1.642c.908.153 1.836-.503 2.051-1.399l1.138-4.729a.4.4 0 00-.213-.452.39.39 0 00-.174-.04l-4.858-.009a.393.393 0 00-.249.085.385.385 0 00-.142.221zm29.903 6.501l-8.293-.74a.359.359 0 00-.239.05.358.358 0 00-.156.187l-1.233 3.238a1.615 1.615 0 00-.926-.502 1.658 1.658 0 00-1.199.254 1.66 1.66 0 00-.729 1.628 1.65 1.65 0 00.609 1.064c.165.132.349.23.551.292.819.249 1.752-.247 2.056-1.047l1.549-4.067 3.078.261-.903 2.371a1.612 1.612 0 00-.926-.502 1.648 1.648 0 00-.622.015 1.66 1.66 0 00-1.301 1.867c.03.209.097.405.202.589a1.655 1.655 0 00.952.767c.819.249 1.752-.246 2.056-1.046l1.516-3.98 3.078.261-.868 2.278a1.612 1.612 0 00-.926-.502 1.648 1.648 0 00-.622.015 1.66 1.66 0 00-1.301 1.867c.03.209.097.405.202.589.104.184.239.342.403.474.164.133.348.23.549.293.819.249 1.752-.246 2.056-1.046l1.687-4.43a.367.367 0 00-.145-.44.353.353 0 00-.155-.058zm-18.655-12.191l-.817 3.395a1.793 1.793 0 00-2.331.042 1.805 1.805 0 00-.597 1.472 1.787 1.787 0 00.464 1.079 1.824 1.824 0 00.649.453c.124.05.251.087.383.109.908.153 1.836-.504 2.051-1.4l1.041-4.324 3.597.022-.558 2.321a1.77 1.77 0 00-.754-.37 1.8 1.8 0 00-1.233.168 1.776 1.776 0 00-.626.558 1.78 1.78 0 00-.301.758 1.828 1.828 0 00.056.79 1.795 1.795 0 001.423 1.25c.908.153 1.836-.503 2.051-1.399l1.138-4.729a.4.4 0 00-.213-.452.39.39 0 00-.174-.04l-4.858-.009a.393.393 0 00-.249.085.393.393 0 00-.142.221zm-10.861-3.62l-.817 3.395a1.793 1.793 0 00-2.331.042 1.805 1.805 0 00-.597 1.472 1.787 1.787 0 00.464 1.079 1.824 1.824 0 00.649.453c.124.05.251.087.383.109.908.153 1.836-.504 2.051-1.4l1.041-4.324 3.597.022-.558 2.321a1.77 1.77 0 00-.754-.37 1.8 1.8 0 00-1.233.168 1.776 1.776 0 00-.626.558 1.755 1.755 0 00-.198.373 1.766 1.766 0 00-.119.783 1.795 1.795 0 001.495 1.641c.908.153 1.836-.503 2.051-1.399l1.138-4.729a.4.4 0 00-.213-.452.39.39 0 00-.174-.04l-4.858-.009a.392.392 0 00-.248.086.395.395 0 00-.143.221zm29.903 6.501l-8.293-.74a.359.359 0 00-.239.05.355.355 0 00-.156.187l-1.233 3.237a1.615 1.615 0 00-.926-.502 1.658 1.658 0 00-1.199.254 1.66 1.66 0 00-.729 1.628 1.65 1.65 0 00.609 1.064c.165.132.349.23.551.292.819.249 1.752-.247 2.056-1.047l1.549-4.067 3.078.261-.903 2.371a1.612 1.612 0 00-.926-.502 1.648 1.648 0 00-.622.015 1.66 1.66 0 00-1.301 1.867c.03.209.097.405.202.589a1.663 1.663 0 00.952.767c.819.248 1.752-.247 2.056-1.046l1.516-3.98 3.078.261-.868 2.278a1.612 1.612 0 00-.926-.502 1.648 1.648 0 00-.622.015 1.66 1.66 0 00-1.301 1.867c.03.209.097.405.202.589a1.673 1.673 0 00.952.767c.819.248 1.752-.247 2.056-1.046l1.687-4.43a.367.367 0 00-.145-.44.36.36 0 00-.155-.057zm-18.008-12.965l-.817 3.395a1.793 1.793 0 00-2.331.042 1.805 1.805 0 00-.597 1.472 1.787 1.787 0 00.464 1.079 1.824 1.824 0 00.649.453c.124.05.251.087.383.109.908.153 1.836-.504 2.051-1.4l1.041-4.324 3.597.022-.558 2.321a1.77 1.77 0 00-.754-.37 1.8 1.8 0 00-1.233.168 1.776 1.776 0 00-.626.558 1.78 1.78 0 00-.301.758 1.828 1.828 0 00.056.79 1.795 1.795 0 001.423 1.25c.908.153 1.836-.503 2.051-1.399l1.138-4.729a.4.4 0 00-.213-.452.39.39 0 00-.174-.04l-4.858-.009a.393.393 0 00-.249.085.39.39 0 00-.142.221zm-10.861-3.62l-.817 3.395a1.793 1.793 0 00-2.331.042 1.805 1.805 0 00-.597 1.472 1.787 1.787 0 00.464 1.079 1.824 1.824 0 00.649.453c.124.05.251.087.383.109.908.153 1.836-.504 2.051-1.4l1.041-4.324 3.597.022-.558 2.321a1.77 1.77 0 00-.754-.37 1.805 1.805 0 00-.839.014 1.82 1.82 0 00-.74.396 1.79 1.79 0 00-.597 1.472 1.795 1.795 0 001.495 1.642c.908.153 1.836-.503 2.051-1.399l1.138-4.729a.4.4 0 00-.213-.452.39.39 0 00-.174-.04l-4.858-.009a.395.395 0 00-.391.306zm29.903 6.501l-8.293-.74a.359.359 0 00-.239.05.355.355 0 00-.156.187l-1.233 3.238a1.615 1.615 0 00-.926-.502 1.658 1.658 0 00-1.199.254 1.66 1.66 0 00-.729 1.628 1.65 1.65 0 00.609 1.064c.165.132.349.23.551.292.819.248 1.752-.247 2.056-1.047l1.549-4.067 3.078.261-.903 2.371a1.627 1.627 0 00-1.548-.487 1.66 1.66 0 00-1.301 1.867c.03.209.097.405.202.589a1.673 1.673 0 00.952.767c.819.248 1.752-.247 2.056-1.046l1.516-3.98 3.078.261-.868 2.278a1.612 1.612 0 00-.926-.502 1.648 1.648 0 00-.622.015 1.66 1.66 0 00-1.301 1.867c.03.209.097.405.202.589a1.673 1.673 0 00.952.767c.819.249 1.751-.247 2.056-1.046l1.687-4.43a.367.367 0 00-.145-.44.344.344 0 00-.155-.058zm-17.62-13.095l-.817 3.395a1.793 1.793 0 00-2.331.042 1.805 1.805 0 00-.597 1.472 1.787 1.787 0 00.464 1.079 1.824 1.824 0 00.649.453c.124.05.251.087.383.109.908.153 1.836-.504 2.051-1.4l1.041-4.324 3.597.022-.558 2.321a1.77 1.77 0 00-.754-.37 1.8 1.8 0 00-1.233.168 1.776 1.776 0 00-.626.558 1.78 1.78 0 00-.301.758 1.828 1.828 0 00.056.79 1.795 1.795 0 001.423 1.25c.908.153 1.836-.503 2.051-1.399l1.138-4.729a.4.4 0 00-.213-.452.39.39 0 00-.174-.04l-4.858-.009a.384.384 0 00-.248.086.381.381 0 00-.143.22zm-10.86-3.621l-.817 3.395a1.793 1.793 0 00-2.331.042 1.805 1.805 0 00-.597 1.472 1.787 1.787 0 00.464 1.079 1.824 1.824 0 00.649.453c.124.05.251.087.383.109.908.153 1.836-.504 2.051-1.4l1.041-4.324 3.597.022-.558 2.321a1.77 1.77 0 00-.754-.37 1.8 1.8 0 00-1.233.168 1.776 1.776 0 00-.626.558 1.78 1.78 0 00-.301.758 1.828 1.828 0 00.056.79 1.795 1.795 0 001.423 1.25c.908.153 1.836-.503 2.051-1.399l1.138-4.729a.4.4 0 00-.213-.452.39.39 0 00-.174-.04l-4.858-.009a.393.393 0 00-.249.085.39.39 0 00-.142.221zm72.768 7.899v3.492a1.731 1.731 0 00-1.123-.15 1.774 1.774 0 00-.626.25 1.771 1.771 0 00-.49.463 1.76 1.76 0 00-.284.611 1.79 1.79 0 001.868 2.228c.919-.064 1.666-.92 1.666-1.841v-4.447l3.503-.821v2.387a1.744 1.744 0 00-1.123-.15 1.777 1.777 0 00-1.127.709 1.77 1.77 0 00-.288.613c-.057.223-.07.448-.04.677a1.785 1.785 0 001.249 1.48c.22.068.444.093.674.074.919-.063 1.666-.919 1.666-1.84v-4.865a.39.39 0 00-.152-.313.392.392 0 00-.34-.074l-4.725 1.128a.39.39 0 00-.221.142.382.382 0 00-.087.247zm10.473-3.2v3.492a1.731 1.731 0 00-1.123-.15 1.774 1.774 0 00-.626.25 1.771 1.771 0 00-.49.463 1.76 1.76 0 00-.284.611 1.79 1.79 0 001.868 2.228c.919-.064 1.666-.92 1.666-1.841v-4.447l3.503-.821v2.387a1.744 1.744 0 00-1.123-.15 1.765 1.765 0 00-.632.246c-.195.122-.36.277-.495.463a1.77 1.77 0 00-.288.613c-.057.223-.07.448-.04.677.03.228.101.442.214.643.112.201.258.373.437.518.179.145.378.251.598.319.22.068.444.093.674.074.919-.063 1.666-.919 1.666-1.84v-4.865a.39.39 0 00-.152-.313.392.392 0 00-.34-.074l-4.724 1.128a.39.39 0 00-.221.142.376.376 0 00-.088.247zm-53.339 1.802l-8.293-.74a.359.359 0 00-.239.05.355.355 0 00-.156.187l-1.233 3.237a1.615 1.615 0 00-.926-.502 1.679 1.679 0 00-1.2.253 1.664 1.664 0 00-.73 1.63 1.65 1.65 0 00.609 1.064c.165.132.349.23.552.292.819.249 1.752-.247 2.056-1.047l1.549-4.067 3.078.261-.903 2.371a1.612 1.612 0 00-.926-.502 1.648 1.648 0 00-.622.015 1.66 1.66 0 00-1.301 1.867c.03.209.097.405.202.589a1.673 1.673 0 00.953.767c.819.248 1.752-.246 2.056-1.046l1.516-3.98 3.078.261-.868 2.278a1.612 1.612 0 00-.926-.502 1.648 1.648 0 00-.622.015 1.66 1.66 0 00-1.301 1.867c.03.209.097.405.202.589a1.673 1.673 0 00.952.767c.819.249 1.751-.246 2.056-1.046l1.687-4.43a.368.368 0 00-.3-.498zm71.871-6.52l-8.013 2.26a.362.362 0 00-.206.131.362.362 0 00-.08.23v3.464a1.61 1.61 0 00-1.044-.139 1.664 1.664 0 00-1.143 2.45 1.66 1.66 0 001.578.849c.854-.059 1.548-.855 1.548-1.71v-4.352l2.969-.852v2.537a1.677 1.677 0 00-1.15-.117 1.665 1.665 0 00-.186 3.166 1.713 1.713 0 00.727.111c.854-.059 1.549-.854 1.549-1.709v-4.259l2.969-.852v2.437a1.677 1.677 0 00-1.15-.117 1.665 1.665 0 00-1.017 2.459 1.69 1.69 0 00.502.536 1.647 1.647 0 00.684.268c.123.019.246.024.37.015.854-.059 1.549-.854 1.549-1.709v-4.741a.372.372 0 00-.291-.361.417.417 0 00-.165.005z"/><path fill="#633B0B" d="M187.355 167.027v6.751c0 21.39-17.323 29.929-38.713 29.929s-38.713-8.539-38.713-29.929v-6.751c0-1.871.162-3.823.569-5.693l8.296-10.248a50.189 50.189 0 013.904-4.392c-.814-1.383-1.626-2.766-2.278-4.229-1.464-3.254-2.278-6.669-2.278-10.085v-6.751c0-1.79.162-3.416.488-4.961h60.103c.326 1.545.488 3.171.488 4.961v6.751c0 3.416-.814 6.832-2.278 10.085a30.154 30.154 0 01-2.278 4.229c1.952 1.952 5.287 6.344 5.287 6.344l5.937 4.88c.978 3.01 1.466 6.019 1.466 9.109z"/><path fill="#9E6212" d="M187.355 167.027c0 21.39-17.323 29.929-38.713 29.929s-38.713-8.539-38.713-29.929c0-1.871.162-3.823.569-5.693 1.383-6.832 5.123-13.419 9.922-18.95 1.219-1.464 1.545-3.497.65-5.205-1.871-3.659-3.009-7.563-3.009-11.549 0-1.79.162-3.416.488-4.961 2.44-13.257 14.965-18.624 30.091-18.624 15.046 0 27.57 5.368 30.01 18.624.326 1.545.488 3.171.488 4.961 0 3.985-1.138 7.889-3.009 11.549-.895 1.707-.569 3.741.65 5.205 3.985 4.635 7.239 9.922 9.027 15.453 1.061 3.091 1.549 6.1 1.549 9.19z"/><path fill="#6B3D07" d="M161.655 167.191H135.63a.553.553 0 01-.569-.569v-4.717c0-.326.243-.569.569-.569h26.025c.326 0 .569.243.569.569v4.717a.537.537 0 01-.04.22.543.543 0 01-.31.31.578.578 0 01-.219.039z"/><path fill="#633B0B" d="M153.929 77.891h-10.573c-.731 0-1.302-.488-1.383-1.219l-1.952-19.112h17.16l-1.952 19.112c0 .731-.569 1.219-1.3 1.219zm7.726 87.103H135.63a.553.553 0 01-.569-.569v-4.717c0-.326.243-.569.569-.569h26.025c.326 0 .569.243.569.569v4.717a.537.537 0 01-.04.22.543.543 0 01-.31.31.548.548 0 01-.219.039z"/><path fill="#6B3D07" d="M153.196 74.393v46.358c0 .65-.243 1.219-.488 1.219h-8.133c-.243 0-.488-.569-.488-1.219V74.393c0-.65.244-1.219.488-1.219h8.133c.245 0 .488.569.488 1.219z"/><circle cx="148.642" cy="131.812" r="17.486" fill="#FBBC4B"/><path fill="#565656" d="M160.761 131.813a12.083 12.083 0 01-1.431 5.713 12.22 12.22 0 01-1.319 1.975 12.114 12.114 0 01-7.004 4.197 11.99 11.99 0 01-2.364.232 12.083 12.083 0 01-4.638-.922 12.119 12.119 0 01-5.438-4.462 12.22 12.22 0 01-1.52-3.215 12.014 12.014 0 01-.521-3.518 12.083 12.083 0 01.922-4.638 12.119 12.119 0 014.462-5.438 12.22 12.22 0 013.215-1.52 12.014 12.014 0 013.518-.521 12.083 12.083 0 014.638.922 12.119 12.119 0 015.438 4.462 11.954 11.954 0 011.119 2.095 12.332 12.332 0 01.69 2.274 12.256 12.256 0 01.233 2.364z"/><path fill="#4C4C4C" d="M148.642 124.817c5.775 0 10.654 4.066 11.793 9.515a13.29 13.29 0 00.243-2.521c0-6.669-5.449-12.118-12.118-12.118-6.669 0-12.118 5.449-12.118 12.118 0 .895.081 1.707.243 2.521 1.303-5.447 6.183-9.515 11.957-9.515z"/><path fill="#9E6212" d="M154.091 53.086h-10.979c-.731 0-1.464.243-2.033.731-.4.36-.701.791-.901 1.291-.2.5-.279 1.019-.238 1.556l2.033 17.405a1.403 1.403 0 001.382 1.219h10.654c.65 0 1.302-.488 1.383-1.219l2.033-17.405c.162-1.057-.326-2.114-1.138-2.847a3.47 3.47 0 00-2.196-.731z"/><path fill="#FFF" d="M153.278 98.612h-9.353c-.162 0-.326-.162-.326-.326a.35.35 0 01.326-.326h9.353c.087.006.162.04.224.102s.096.136.102.224c.08.163-.082.326-.326.326zm0-4.329h-9.353a.34.34 0 01-.224-.102.339.339 0 01-.102-.224.34.34 0 01.102-.224.339.339 0 01.224-.102h9.353a.34.34 0 01.224.102.339.339 0 01.102.224c.08.163-.082.326-.326.326zm0-4.4h-9.353a.34.34 0 01-.224-.102.339.339 0 01-.102-.224.34.34 0 01.102-.224.339.339 0 01.224-.102h9.353a.34.34 0 01.224.102.339.339 0 01.102.224c.08.163-.082.326-.326.326zm0-4.258h-9.353a.34.34 0 01-.224-.102.339.339 0 01-.102-.224c.006-.087.04-.162.102-.224s.136-.096.224-.102h9.353c.087.006.162.04.224.102s.096.136.102.224c.08.164-.082.326-.326.326zm0-4.4h-9.353c-.087-.006-.162-.04-.224-.102s-.096-.136-.102-.224a.34.34 0 01.102-.224.339.339 0 01.224-.102h9.353a.34.34 0 01.224.102.339.339 0 01.102.224c.08.164-.082.326-.326.326z"/></svg>