<svg xmlns="http://www.w3.org/2000/svg" xmlns:xlink="http://www.w3.org/1999/xlink" version="1.0" viewBox="0 0 300 300"><circle cx="150" cy="150" r="150" fill="#FFF"/><circle cx="150" cy="150" r="140.8" fill="#86BF5A"/><path fill="#2D1302" d="M170.659 165.512c0-7.085 3.729-13.35 9.247-16.855v-5.668c0-14.617-11.932-26.55-26.55-26.55h-6.712c-14.617 0-26.55 11.932-26.55 26.55v5.668c5.593 3.58 9.247 9.77 9.247 16.855 0 10.292-7.756 18.719-17.75 19.838-1.492 4.177-2.238 8.651-2.238 13.35 0 22.374 20.211 32.814 40.645 32.814s40.645-10.441 40.645-32.814c0-4.624-.82-9.173-2.238-13.35-9.99-1.118-17.746-9.546-17.746-19.838z"/><path fill="#663003" d="M170.659 160.367c0-7.085 3.729-13.35 9.247-16.855v-5.668c0-14.617-11.932-26.55-26.55-26.55h-6.712c-14.617 0-26.55 11.932-26.55 26.55v5.668c5.593 3.58 9.247 9.77 9.247 16.855 0 10.292-7.756 18.719-17.75 19.838-1.492 4.177-2.238 8.651-2.238 13.35 0 22.374 20.211 32.814 40.645 32.814s40.645-10.441 40.645-32.814c0-4.624-.82-9.173-2.238-13.35-9.99-1.119-17.746-9.547-17.746-19.838z"/><path fill="#2D1302" d="M156.787 139.858h-13.572l2.46-46.016.895-16.63h6.861z"/><path fill="#683A02" d="M146.272 93.843h8.055l-.895-16.63h-6.861l-.895 16.63h.596z"/><path fill="#2D1302" d="M157.533 193.778h-14.99a.587.587 0 01-.597-.597v-4.624c0-.299.224-.597.597-.597h14.99c.299 0 .597.224.597.597v4.624c-.075.373-.298.597-.597.597z"/><path fill="#472003" d="M157.533 192.361h-14.99a.587.587 0 01-.597-.597v-4.624c0-.299.224-.597.597-.597h14.99c.299 0 .597.224.597.597v4.624c-.075.373-.298.597-.597.597z"/><path fill="#999" d="M154.848 170.285h-9.77a1.819 1.819 0 01-.717-.137c-.23-.094-.432-.228-.608-.404s-.31-.378-.404-.608a1.833 1.833 0 01-.137-.717V167.3c0-1.044.82-1.865 1.865-1.865h9.77c1.044 0 1.865.82 1.865 1.865v1.119c.075 1.046-.819 1.866-1.864 1.866z"/><path fill="#FFF" d="M154.848 169.465h-9.77a1.819 1.819 0 01-.717-.137 1.833 1.833 0 01-1.149-1.729v-1.119c0-1.044.82-1.865 1.865-1.865h9.77c1.044 0 1.865.82 1.865 1.865v1.119c.075.971-.819 1.866-1.864 1.866z"/><path fill="#0A0500" d="M143.215 139.858h13.573v2.088h-13.573z"/><path fill="#0A0500" d="M143.215 139.858h13.573v2.088h-13.573z"/><path fill="#0A0500" d="M143.215 139.858h13.573v2.088h-13.573z"/><path fill="#0A0500" d="M143.215 139.858h13.573v2.088h-13.573z"/><path fill="#0A0500" d="M143.215 139.858h13.573v2.088h-13.573z"/><path fill="#0A0500" d="M143.215 139.858h13.573v2.088h-13.573z"/><path fill="#0A0500" d="M143.215 139.858h13.573v2.088h-13.573z"/><path fill="#0A0500" d="M143.215 139.858h13.573v2.088h-13.573z"/><path fill="#0A0500" d="M143.215 139.858h13.573v2.088h-13.573z"/><path fill="#0A0500" d="M143.215 139.858h13.573v2.088h-13.573z"/><path fill="#0A0500" d="M143.215 139.858h13.573v2.088h-13.573z"/><path fill="#0A0500" d="M143.215 139.858h13.573v2.088h-13.573z"/><path fill="#0A0500" d="M143.215 139.858h13.573v2.088h-13.573z"/><path fill="#0A0500" d="M143.215 139.858h13.573v2.088h-13.573z"/><path fill="#0A0500" d="M143.215 139.858h13.573v2.088h-13.573z"/><path fill="#0A0500" d="M143.215 139.858h13.573v2.088h-13.573z"/><path fill="#0A0500" d="M143.215 139.858h13.573v2.088h-13.573z"/><path fill="#0A0500" d="M143.215 139.858h13.573v2.088h-13.573z"/><path fill="#0A0500" d="M143.215 139.858h13.573v2.088h-13.573z"/><path fill="#0A0500" d="M143.215 139.858h13.573v2.088h-13.573z"/><path fill="#0A0500" d="M143.215 139.858h13.573v2.088h-13.573z"/><path fill="#0A0500" d="M143.215 139.858h13.573v2.088h-13.573z"/><path fill="#0A0500" d="M143.215 139.858h13.573v2.088h-13.573z"/><path fill="#0A0500" d="M143.215 139.858h13.573v2.088h-13.573z"/><path fill="#0A0500" d="M143.215 139.858h13.573v2.088h-13.573z"/><path fill="#0A0500" d="M143.215 139.858h13.573v2.088h-13.573z"/><path fill="#0A0500" d="M143.215 139.858h13.573v2.088h-13.573z"/><path fill="#0A0500" d="M143.215 139.858h13.573v2.088h-13.573z"/><path fill="#0A0500" d="M143.215 139.858h13.573v2.088h-13.573z"/><path fill="#0A0500" d="M143.215 139.858h13.573v2.088h-13.573z"/><path fill="#0A0500" d="M143.215 139.858h13.573v2.088h-13.573z"/><path fill="#0A0500" d="M143.215 139.858h13.573v2.088h-13.573z"/><path fill="#0A0500" d="M143.215 139.858h13.573v2.088h-13.573z"/><path fill="#0A0500" d="M143.215 139.858h13.573v2.088h-13.573z"/><path fill="#0A0500" d="M143.215 139.858h13.573v2.088h-13.573z"/><path fill="#0A0500" d="M143.215 139.858h13.573v2.088h-13.573z"/><path fill="#0A0500" d="M143.215 139.858h13.573v2.088h-13.573z"/><path fill="#0A0500" d="M143.215 139.858h13.573v2.088h-13.573z"/><path fill="#0A0500" d="M143.215 139.858h13.573v2.088h-13.573z"/><path fill="#0A0500" d="M143.215 139.858h13.573v2.088h-13.573z"/><path fill="#0A0500" d="M143.215 139.858h13.573v2.088h-13.573z"/><path fill="#0A0500" d="M143.215 139.858h13.573v2.088h-13.573z"/><path fill="#0A0500" d="M143.215 139.858h13.573v2.088h-13.573z"/><path fill="#0A0500" d="M143.215 139.858h13.573v2.088h-13.573z"/><path fill="#0A0500" d="M143.215 139.858h13.573v2.088h-13.573z"/><path fill="#0A0500" d="M143.215 139.858h13.573v2.088h-13.573z"/><path fill="#0A0500" d="M143.215 139.858h13.573v2.088h-13.573z"/><path fill="#0A0500" d="M143.215 139.858h13.573v2.088h-13.573z"/><path fill="#0A0500" d="M143.215 139.858h13.573v2.088h-13.573z"/><path fill="#0A0500" d="M143.215 139.858h13.573v2.088h-13.573z"/><path fill="#0A0500" d="M143.215 139.858h13.573v2.088h-13.573z"/><path fill="#0A0500" d="M143.215 139.858h13.573v2.088h-13.573z"/><path fill="#0A0500" d="M143.215 139.858h13.573v2.088h-13.573z"/><path fill="#0A0500" d="M143.215 139.858h13.573v2.088h-13.573z"/><path fill="#0A0500" d="M143.215 139.858h13.573v2.088h-13.573z"/><path fill="#0A0500" d="M143.215 139.858h13.573v2.088h-13.573z"/><path fill="#0A0500" d="M143.215 139.858h13.573v2.088h-13.573z"/><path fill="#0A0500" d="M143.215 139.858h13.573v2.088h-13.573z"/><path fill="#0A0500" d="M143.215 139.858h13.573v2.088h-13.573z"/><path fill="#0A0500" d="M143.215 139.858h13.573v2.088h-13.573z"/><path fill="#0A0500" d="M143.215 139.858h13.573v2.088h-13.573z"/><path fill="#0A0500" d="M143.215 139.858h13.573v2.088h-13.573z"/><path fill="#F9FF00" d="M152.462 167.377a.312.312 0 01-.205-.093.308.308 0 01-.093-.205V73.782c0-.149.149-.299.299-.299.149 0 .299.149.299.299v93.298c-.002.148-.15.297-.3.297zm-1.641 0a.312.312 0 01-.205-.093.308.308 0 01-.093-.205V73.782c0-.149.149-.299.299-.299a.32.32 0 01.299.299v93.298c-.001.148-.151.297-.3.297zm-1.715 0a.312.312 0 01-.205-.093.308.308 0 01-.093-.205V73.782c0-.149.149-.299.299-.299.149 0 .299.149.299.299v93.298c-.002.148-.077.297-.3.297zm-1.64 0a.312.312 0 01-.205-.093.308.308 0 01-.093-.205V73.782c0-.149.149-.299.299-.299a.32.32 0 01.299.299v93.298c-.003.148-.152.297-.3.297z"/><path fill="#4C2502" d="M146.496 68.486h6.861v8.726h-6.861z"/><path fill="#0A0500" d="M158.279 157.085c5.22.373 5.668 4.177 5.817 8.502.074 2.312.074 4.699.522 6.936.447 2.312 1.044 3.729 3.431 2.312 1.79-1.044 3.356 1.715 1.566 2.685-4.027 2.386-7.085.447-8.054-3.953-.522-2.312-.522-4.773-.597-7.159-.074-2.461.597-6.041-2.685-6.265-2.013-.074-2.013-3.206 0-3.058zm-16.631 0c2.014-.149 2.014 2.984 0 3.132-3.281.224-2.611 3.878-2.685 6.265-.074 2.386-.149 4.773-.597 7.159-.895 4.4-3.953 6.265-8.054 3.953-1.715-1.044-.149-3.728 1.566-2.685 2.461 1.417 2.984 0 3.431-2.312.447-2.312.373-4.624.522-6.936.149-4.399.597-8.203 5.817-8.576z"/><g opacity=".349"><defs><path id="a" d="M145.984 76.514h7.991v2.096h-7.991z"/></defs><clipPath id="b"><use overflow="visible" xlink:href="#a"/></clipPath><path fill="#4C2502" d="M146.496 78.256h7.01l-.074-1.044h-6.936z" clip-path="url(#b)"/></g><path fill="#2D1302" d="M152.313 226.294l2.162-26.848h-8.95l2.162 26.848c.746 0 1.566.074 2.312.074s1.568-.074 2.314-.074z"/></svg>