<?xml version="1.0" encoding="utf-8"?>
<!-- Generator: Adobe Illustrator 26.0.0, SVG Export Plug-In . SVG Version: 6.00 Build 0)  -->
<svg version="1.0" id="Camada_1" xmlns="http://www.w3.org/2000/svg" xmlns:xlink="http://www.w3.org/1999/xlink" x="0px" y="0px"
	 viewBox="0 0 300 300" enable-background="new 0 0 300 300" xml:space="preserve">
<g>
	<path fill="#FFFFFF" d="M300,150c0,2.455-0.06,4.908-0.181,7.36c-0.12,2.452-0.301,4.899-0.542,7.342
		c-0.241,2.443-0.541,4.879-0.901,7.307c-0.36,2.428-0.78,4.846-1.259,7.254c-0.479,2.408-1.017,4.802-1.613,7.183
		s-1.251,4.747-1.964,7.096c-0.713,2.349-1.482,4.679-2.309,6.991c-0.827,2.311-1.71,4.601-2.65,6.869s-1.934,4.512-2.984,6.731
		c-1.05,2.219-2.153,4.411-3.31,6.576c-1.157,2.165-2.367,4.3-3.629,6.406c-1.262,2.106-2.575,4.179-3.939,6.22
		c-1.364,2.041-2.777,4.048-4.239,6.019c-1.462,1.972-2.972,3.907-4.53,5.804c-1.557,1.898-3.16,3.756-4.809,5.575
		s-3.341,3.596-5.077,5.332c-1.736,1.736-3.513,3.428-5.332,5.077c-1.819,1.649-3.677,3.252-5.575,4.809
		c-1.898,1.557-3.832,3.067-5.804,4.53c-1.972,1.462-3.978,2.875-6.019,4.239c-2.041,1.364-4.115,2.677-6.22,3.939
		c-2.106,1.262-4.241,2.472-6.406,3.629c-2.165,1.157-4.357,2.261-6.576,3.31c-2.219,1.05-4.463,2.044-6.731,2.984
		c-2.268,0.939-4.558,1.823-6.869,2.65c-2.311,0.827-4.642,1.597-6.991,2.309c-2.349,0.713-4.714,1.367-7.096,1.964
		c-2.381,0.596-4.776,1.134-7.183,1.613c-2.408,0.479-4.826,0.899-7.254,1.259c-2.428,0.36-4.864,0.661-7.307,0.901
		c-2.443,0.241-4.891,0.421-7.342,0.542c-2.452,0.12-4.905,0.181-7.36,0.181c-2.455,0-4.908-0.06-7.36-0.181
		c-2.452-0.12-4.899-0.301-7.342-0.542c-2.443-0.241-4.879-0.541-7.307-0.901c-2.428-0.36-4.846-0.78-7.254-1.259
		c-2.408-0.479-4.802-1.017-7.183-1.613c-2.381-0.596-4.747-1.251-7.096-1.964c-2.349-0.713-4.679-1.482-6.991-2.309
		c-2.311-0.827-4.601-1.71-6.869-2.65c-2.268-0.939-4.512-1.934-6.731-2.984c-2.219-1.05-4.411-2.153-6.576-3.31
		c-2.165-1.157-4.3-2.367-6.406-3.629c-2.106-1.262-4.179-2.575-6.22-3.939c-2.041-1.364-4.048-2.777-6.019-4.239
		c-1.972-1.462-3.906-2.972-5.804-4.53c-1.898-1.557-3.756-3.16-5.575-4.809s-3.596-3.341-5.332-5.077
		c-1.736-1.736-3.428-3.513-5.077-5.332c-1.649-1.819-3.252-3.677-4.809-5.575c-1.557-1.898-3.067-3.832-4.53-5.804
		c-1.462-1.972-2.875-3.978-4.239-6.019c-1.364-2.041-2.677-4.115-3.939-6.22c-1.262-2.106-2.472-4.241-3.629-6.406
		c-1.157-2.165-2.261-4.357-3.31-6.576c-1.05-2.219-2.044-4.463-2.984-6.731c-0.939-2.268-1.823-4.558-2.65-6.869
		c-0.827-2.311-1.597-4.642-2.309-6.991c-0.713-2.349-1.367-4.714-1.964-7.096c-0.596-2.381-1.134-4.776-1.613-7.184
		c-0.479-2.408-0.898-4.826-1.259-7.254c-0.36-2.428-0.661-4.864-0.901-7.307c-0.241-2.443-0.421-4.891-0.542-7.342
		C0.06,154.908,0,152.455,0,150c0-2.455,0.06-4.908,0.181-7.36c0.12-2.452,0.301-4.899,0.542-7.342
		c0.241-2.443,0.541-4.879,0.901-7.307c0.36-2.428,0.78-4.846,1.259-7.254c0.479-2.408,1.017-4.802,1.613-7.183
		c0.596-2.381,1.251-4.747,1.964-7.096c0.713-2.349,1.482-4.679,2.309-6.991c0.827-2.311,1.71-4.601,2.65-6.869
		c0.939-2.268,1.934-4.512,2.984-6.731c1.05-2.219,2.153-4.411,3.31-6.576c1.157-2.165,2.367-4.3,3.629-6.406
		c1.262-2.106,2.575-4.179,3.939-6.22c1.364-2.041,2.777-4.048,4.239-6.019c1.462-1.972,2.972-3.906,4.53-5.804
		c1.557-1.898,3.16-3.756,4.809-5.575c1.649-1.819,3.341-3.596,5.077-5.332c1.736-1.736,3.513-3.428,5.332-5.077
		c1.819-1.649,3.677-3.252,5.575-4.809c1.898-1.557,3.832-3.067,5.804-4.53c1.972-1.462,3.978-2.875,6.019-4.239
		c2.041-1.364,4.115-2.677,6.22-3.939c2.106-1.262,4.241-2.472,6.406-3.629c2.165-1.157,4.357-2.261,6.576-3.31
		c2.219-1.05,4.463-2.044,6.731-2.984c2.268-0.939,4.558-1.823,6.869-2.65c2.311-0.827,4.642-1.597,6.991-2.309
		c2.349-0.713,4.714-1.367,7.096-1.964c2.381-0.596,4.776-1.134,7.183-1.613c2.408-0.479,4.826-0.898,7.254-1.259
		c2.428-0.36,4.864-0.661,7.307-0.901c2.443-0.241,4.891-0.421,7.342-0.542C145.092,0.06,147.545,0,150,0
		c2.455,0,4.908,0.06,7.36,0.181c2.452,0.12,4.899,0.301,7.342,0.542c2.443,0.241,4.879,0.541,7.307,0.901
		c2.428,0.36,4.846,0.78,7.254,1.259c2.408,0.479,4.802,1.017,7.183,1.613c2.381,0.596,4.747,1.251,7.096,1.964
		c2.349,0.713,4.679,1.482,6.991,2.309s4.601,1.71,6.869,2.65c2.268,0.939,4.512,1.934,6.731,2.984
		c2.219,1.05,4.411,2.153,6.576,3.31c2.165,1.157,4.3,2.367,6.406,3.629c2.106,1.262,4.179,2.575,6.22,3.939
		c2.041,1.364,4.048,2.777,6.019,4.239c1.972,1.462,3.906,2.972,5.804,4.53c1.898,1.557,3.756,3.16,5.575,4.809
		c1.819,1.649,3.596,3.341,5.332,5.077c1.736,1.736,3.428,3.513,5.077,5.332c1.649,1.819,3.252,3.677,4.809,5.575
		c1.557,1.898,3.067,3.832,4.53,5.804c1.462,1.972,2.875,3.978,4.239,6.019c1.364,2.041,2.677,4.114,3.939,6.22
		c1.262,2.106,2.472,4.241,3.629,6.406c1.157,2.165,2.261,4.357,3.31,6.576c1.05,2.219,2.044,4.463,2.984,6.731
		c0.939,2.268,1.823,4.558,2.65,6.869c0.827,2.311,1.597,4.642,2.309,6.991c0.713,2.349,1.367,4.714,1.964,7.096
		c0.596,2.381,1.134,4.776,1.613,7.183c0.479,2.408,0.898,4.826,1.259,7.254c0.36,2.428,0.661,4.864,0.901,7.307
		c0.241,2.443,0.421,4.891,0.542,7.342C299.94,145.092,300,147.545,300,150z"/>
	<path fill="#FAE040" d="M290.812,150c0,2.305-0.057,4.608-0.17,6.909c-0.113,2.302-0.283,4.599-0.508,6.893
		c-0.226,2.293-0.508,4.58-0.846,6.859c-0.338,2.28-0.732,4.549-1.182,6.81c-0.45,2.26-0.954,4.508-1.514,6.743
		c-0.56,2.235-1.174,4.456-1.843,6.661c-0.669,2.205-1.392,4.393-2.168,6.563c-0.776,2.17-1.605,4.319-2.487,6.448
		c-0.882,2.129-1.816,4.235-2.801,6.318c-0.985,2.083-2.021,4.141-3.107,6.173c-1.086,2.032-2.222,4.037-3.407,6.013
		c-1.185,1.977-2.417,3.923-3.698,5.839c-1.28,1.916-2.607,3.8-3.98,5.651c-1.373,1.851-2.79,3.667-4.252,5.449
		c-1.462,1.781-2.967,3.526-4.514,5.233c-1.548,1.708-3.136,3.376-4.766,5.006c-1.63,1.63-3.298,3.218-5.006,4.766
		c-1.708,1.548-3.452,3.052-5.233,4.514c-1.781,1.462-3.598,2.879-5.449,4.252c-1.851,1.373-3.735,2.699-5.651,3.98
		c-1.916,1.28-3.863,2.513-5.839,3.698c-1.977,1.185-3.981,2.32-6.013,3.407c-2.032,1.086-4.09,2.122-6.173,3.107
		c-2.083,0.985-4.189,1.919-6.318,2.801c-2.129,0.882-4.279,1.711-6.448,2.487c-2.17,0.776-4.357,1.499-6.563,2.168
		c-2.205,0.669-4.426,1.283-6.661,1.843c-2.235,0.56-4.483,1.065-6.743,1.514c-2.26,0.45-4.53,0.843-6.81,1.182
		c-2.28,0.338-4.566,0.62-6.859,0.846c-2.293,0.226-4.591,0.395-6.893,0.508c-2.302,0.113-4.605,0.17-6.909,0.17
		c-2.304,0-4.608-0.057-6.909-0.17c-2.302-0.113-4.599-0.283-6.893-0.508c-2.293-0.226-4.58-0.508-6.859-0.846
		c-2.28-0.338-4.549-0.732-6.81-1.182c-2.26-0.45-4.508-0.954-6.743-1.514c-2.235-0.56-4.456-1.174-6.661-1.843
		c-2.205-0.669-4.393-1.392-6.563-2.168c-2.17-0.776-4.319-1.605-6.448-2.487c-2.129-0.882-4.235-1.816-6.318-2.801
		c-2.083-0.985-4.141-2.021-6.173-3.107c-2.032-1.086-4.037-2.222-6.014-3.407c-1.977-1.185-3.923-2.417-5.839-3.698
		c-1.916-1.28-3.8-2.607-5.651-3.98c-1.851-1.373-3.667-2.79-5.449-4.252c-1.781-1.462-3.526-2.967-5.233-4.514
		c-1.708-1.548-3.376-3.136-5.006-4.766c-1.63-1.63-3.218-3.298-4.766-5.006c-1.548-1.708-3.052-3.452-4.514-5.233
		c-1.462-1.781-2.879-3.598-4.252-5.449s-2.699-3.735-3.98-5.651c-1.28-1.916-2.513-3.863-3.698-5.839
		c-1.185-1.977-2.32-3.981-3.407-6.013c-1.086-2.032-2.122-4.09-3.107-6.173c-0.985-2.083-1.919-4.189-2.801-6.318
		c-0.882-2.129-1.711-4.279-2.487-6.448c-0.776-2.17-1.499-4.357-2.168-6.563c-0.669-2.205-1.283-4.426-1.843-6.661
		c-0.56-2.235-1.065-4.483-1.514-6.743c-0.45-2.26-0.843-4.53-1.182-6.81c-0.338-2.28-0.62-4.566-0.846-6.859
		c-0.226-2.293-0.395-4.591-0.508-6.893c-0.113-2.302-0.17-4.605-0.17-6.909c0-2.304,0.057-4.608,0.17-6.909
		c0.113-2.302,0.283-4.599,0.508-6.893c0.226-2.293,0.508-4.58,0.846-6.859c0.338-2.28,0.732-4.549,1.182-6.81
		c0.45-2.26,0.954-4.508,1.514-6.743c0.56-2.235,1.174-4.456,1.843-6.661c0.669-2.205,1.392-4.393,2.168-6.563
		c0.776-2.17,1.605-4.319,2.487-6.448c0.882-2.129,1.815-4.235,2.801-6.318c0.985-2.083,2.021-4.141,3.107-6.173
		c1.086-2.032,2.222-4.037,3.407-6.014c1.185-1.977,2.417-3.923,3.698-5.839c1.28-1.916,2.607-3.8,3.98-5.651
		c1.373-1.851,2.79-3.667,4.252-5.449c1.462-1.781,2.967-3.526,4.514-5.233c1.548-1.708,3.136-3.376,4.766-5.006
		s3.298-3.218,5.006-4.766c1.708-1.548,3.452-3.052,5.233-4.514c1.781-1.462,3.598-2.879,5.449-4.252
		c1.851-1.373,3.735-2.699,5.651-3.98c1.916-1.28,3.862-2.513,5.839-3.698s3.981-2.32,6.014-3.407
		c2.032-1.086,4.09-2.122,6.173-3.107s4.189-1.919,6.318-2.801c2.129-0.882,4.279-1.711,6.448-2.487
		c2.17-0.776,4.357-1.499,6.563-2.168c2.205-0.669,4.426-1.283,6.661-1.843c2.235-0.56,4.483-1.065,6.743-1.514
		c2.26-0.45,4.53-0.843,6.81-1.182c2.28-0.338,4.566-0.62,6.859-0.846c2.293-0.226,4.591-0.395,6.893-0.508
		c2.302-0.113,4.605-0.17,6.909-0.17s4.608,0.057,6.909,0.17c2.302,0.113,4.599,0.283,6.893,0.508
		c2.293,0.226,4.58,0.508,6.859,0.846c2.28,0.338,4.549,0.732,6.81,1.182c2.26,0.45,4.508,0.954,6.743,1.514
		c2.235,0.56,4.456,1.174,6.661,1.843c2.205,0.669,4.393,1.392,6.563,2.168c2.17,0.776,4.319,1.605,6.448,2.487
		c2.129,0.882,4.235,1.815,6.318,2.801c2.083,0.985,4.141,2.021,6.173,3.107c2.032,1.086,4.037,2.222,6.013,3.407
		c1.977,1.185,3.923,2.417,5.839,3.698c1.916,1.28,3.8,2.607,5.651,3.98c1.851,1.373,3.667,2.79,5.449,4.252
		c1.781,1.462,3.526,2.967,5.233,4.514c1.708,1.548,3.376,3.136,5.006,4.766c1.63,1.63,3.218,3.298,4.766,5.006
		c1.548,1.708,3.052,3.452,4.514,5.233c1.462,1.781,2.879,3.598,4.252,5.449c1.373,1.851,2.699,3.735,3.98,5.651
		c1.28,1.916,2.513,3.863,3.698,5.839c1.185,1.977,2.32,3.981,3.407,6.014c1.086,2.032,2.122,4.09,3.107,6.173
		c0.985,2.083,1.919,4.189,2.801,6.318c0.882,2.129,1.711,4.279,2.487,6.448c0.776,2.17,1.499,4.357,2.168,6.563
		c0.669,2.205,1.283,4.426,1.843,6.661c0.56,2.235,1.065,4.483,1.514,6.743c0.45,2.26,0.843,4.53,1.182,6.81
		c0.338,2.28,0.62,4.566,0.846,6.859c0.226,2.293,0.395,4.591,0.508,6.893C290.755,145.392,290.812,147.696,290.812,150z"/>
</g>
<g>
	<g>
		<g>
			<g>
				<path fill="#FFFFFF" d="M212.635,90.559v141.61c0.001,0.489-0.047,0.974-0.142,1.454c-0.095,0.48-0.236,0.946-0.423,1.399
					c-0.187,0.452-0.417,0.882-0.688,1.289c-0.272,0.407-0.581,0.784-0.927,1.13c-0.346,0.346-0.723,0.655-1.13,0.927
					c-0.407,0.272-0.837,0.501-1.289,0.688c-0.452,0.187-0.919,0.328-1.399,0.423c-0.48,0.095-0.965,0.142-1.454,0.142H94.876
					c-0.489,0-0.974-0.048-1.454-0.144c-0.48-0.096-0.946-0.237-1.398-0.424c-0.452-0.187-0.881-0.417-1.288-0.689
					c-0.407-0.272-0.783-0.581-1.129-0.927c-0.346-0.346-0.655-0.722-0.927-1.129c-0.272-0.407-0.501-0.836-0.689-1.288
					c-0.187-0.452-0.329-0.918-0.424-1.398c-0.096-0.48-0.143-0.964-0.144-1.454V90.559c0-1.475,0.432-2.863,1.176-4.011
					c0.681-1.074,1.579-1.918,2.695-2.53c1.115-0.612,2.309-0.917,3.581-0.914h110.306c0.49-0.001,0.975,0.046,1.455,0.141
					c0.48,0.095,0.947,0.236,1.399,0.423c0.453,0.187,0.883,0.416,1.29,0.688c0.407,0.272,0.784,0.581,1.13,0.927
					c0.346,0.346,0.655,0.723,0.927,1.131c0.272,0.407,0.501,0.837,0.688,1.29c0.187,0.453,0.328,0.919,0.422,1.4
					C212.589,89.584,212.636,90.069,212.635,90.559L212.635,90.559z"/>
				<path fill="#EDEDED" d="M202.156,204.585H97.914c-0.206,0-0.381-0.073-0.527-0.218c-0.145-0.145-0.218-0.321-0.218-0.527
					c0-0.206,0.073-0.381,0.218-0.527c0.145-0.145,0.321-0.218,0.527-0.218h104.242c0.206,0,0.381,0.073,0.527,0.218
					c0.145,0.145,0.218,0.321,0.218,0.527c0,0.206-0.073,0.381-0.218,0.527C202.537,204.513,202.361,204.585,202.156,204.585
					L202.156,204.585z M202.156,194.152H97.914c-0.206,0-0.381-0.073-0.527-0.218c-0.145-0.145-0.218-0.321-0.218-0.527
					c0-0.206,0.073-0.381,0.218-0.527c0.145-0.145,0.321-0.218,0.527-0.218h104.242c0.206,0,0.381,0.073,0.527,0.218
					c0.145,0.145,0.218,0.321,0.218,0.527c0,0.206-0.073,0.381-0.218,0.527C202.537,194.079,202.361,194.152,202.156,194.152
					L202.156,194.152z M202.156,167.321H97.914c-0.206,0-0.381-0.073-0.527-0.218c-0.145-0.145-0.218-0.321-0.218-0.527
					c0-0.206,0.073-0.381,0.218-0.527c0.145-0.145,0.321-0.218,0.527-0.218h104.242c0.206,0,0.381,0.073,0.527,0.218
					c0.145,0.145,0.218,0.321,0.218,0.527c0,0.206-0.073,0.381-0.218,0.527C202.537,167.248,202.361,167.321,202.156,167.321
					L202.156,167.321z M202.156,156.885H97.914c-0.206,0-0.381-0.073-0.527-0.218c-0.145-0.145-0.218-0.321-0.218-0.527
					c0-0.206,0.073-0.381,0.218-0.527c0.145-0.145,0.321-0.218,0.527-0.218h104.242c0.206,0,0.381,0.073,0.527,0.218
					c0.145,0.145,0.218,0.321,0.218,0.527c0,0.206-0.073,0.381-0.218,0.527C202.537,156.812,202.361,156.884,202.156,156.885
					L202.156,156.885z M202.156,130.054H97.914c-0.206,0-0.381-0.073-0.527-0.218c-0.145-0.145-0.218-0.321-0.218-0.527
					c0-0.206,0.073-0.381,0.218-0.527c0.145-0.145,0.321-0.218,0.527-0.218h104.242c0.206,0,0.381,0.073,0.527,0.218
					c0.145,0.145,0.218,0.321,0.218,0.527c0,0.206-0.073,0.381-0.218,0.527C202.537,129.981,202.361,130.054,202.156,130.054
					L202.156,130.054z M202.156,119.62H97.914c-0.206,0-0.381-0.073-0.527-0.218c-0.145-0.145-0.218-0.321-0.218-0.527
					c0-0.206,0.073-0.381,0.218-0.527c0.145-0.145,0.321-0.218,0.527-0.218h104.242c0.206,0,0.381,0.073,0.527,0.218
					c0.145,0.145,0.218,0.321,0.218,0.527c0,0.206-0.073,0.381-0.218,0.526C202.537,119.548,202.361,119.62,202.156,119.62
					L202.156,119.62z M202.156,107.694H97.914c-0.297,0-0.582-0.057-0.856-0.17c-0.274-0.113-0.516-0.275-0.726-0.485
					c-0.21-0.21-0.371-0.452-0.485-0.726c-0.114-0.274-0.17-0.559-0.17-0.856c0-0.297,0.057-0.582,0.17-0.856
					c0.114-0.274,0.275-0.516,0.485-0.726c0.21-0.21,0.452-0.371,0.726-0.485c0.274-0.113,0.559-0.17,0.856-0.17h104.242
					c0.297,0,0.582,0.057,0.856,0.17c0.274,0.114,0.516,0.275,0.726,0.485c0.21,0.21,0.371,0.452,0.485,0.726
					c0.113,0.274,0.17,0.559,0.17,0.856c0,0.297-0.057,0.582-0.17,0.856c-0.114,0.274-0.275,0.516-0.485,0.726
					s-0.452,0.371-0.726,0.485C202.737,107.638,202.452,107.694,202.156,107.694L202.156,107.694z M202.156,144.961H97.914
					c-0.297,0-0.582-0.057-0.856-0.17c-0.274-0.114-0.516-0.275-0.726-0.485c-0.21-0.21-0.371-0.452-0.485-0.726
					c-0.114-0.274-0.17-0.559-0.17-0.856c0-0.297,0.057-0.582,0.17-0.856c0.114-0.274,0.275-0.516,0.485-0.726
					c0.21-0.21,0.452-0.371,0.726-0.485c0.274-0.113,0.559-0.17,0.856-0.17h104.242c0.297,0,0.582,0.057,0.856,0.17
					c0.274,0.113,0.516,0.275,0.726,0.485c0.21,0.21,0.371,0.452,0.485,0.726c0.113,0.274,0.17,0.559,0.17,0.856
					c0,0.297-0.057,0.582-0.17,0.856c-0.114,0.274-0.275,0.516-0.485,0.726c-0.21,0.21-0.452,0.371-0.726,0.485
					C202.737,144.905,202.452,144.961,202.156,144.961L202.156,144.961z M202.156,182.226H97.914c-0.297,0-0.582-0.057-0.856-0.17
					c-0.274-0.114-0.516-0.275-0.726-0.485c-0.21-0.21-0.371-0.452-0.485-0.726c-0.114-0.274-0.17-0.559-0.17-0.856
					c0-0.297,0.057-0.582,0.17-0.856c0.114-0.274,0.275-0.516,0.485-0.726c0.21-0.21,0.452-0.371,0.726-0.485
					c0.274-0.113,0.559-0.17,0.856-0.17h104.242c0.297,0,0.582,0.057,0.856,0.17c0.274,0.114,0.516,0.275,0.726,0.485
					c0.21,0.21,0.371,0.452,0.485,0.726c0.113,0.274,0.17,0.559,0.17,0.856c0,0.297-0.057,0.582-0.17,0.856
					c-0.114,0.274-0.275,0.516-0.485,0.726s-0.452,0.371-0.726,0.485C202.737,182.169,202.452,182.226,202.156,182.226
					L202.156,182.226z M202.156,219.493H97.914c-0.297,0-0.582-0.057-0.856-0.17c-0.274-0.113-0.516-0.275-0.726-0.485
					c-0.21-0.21-0.371-0.452-0.485-0.726c-0.114-0.274-0.17-0.559-0.17-0.856c0-0.297,0.057-0.582,0.17-0.856
					c0.114-0.274,0.275-0.516,0.485-0.726c0.21-0.21,0.452-0.371,0.726-0.485c0.274-0.114,0.559-0.17,0.856-0.17h104.242
					c0.297,0,0.582,0.057,0.856,0.17c0.274,0.114,0.516,0.275,0.726,0.485c0.21,0.21,0.371,0.452,0.485,0.726
					c0.113,0.274,0.17,0.559,0.17,0.856c0,0.297-0.057,0.582-0.17,0.856c-0.114,0.274-0.275,0.516-0.485,0.726
					s-0.452,0.371-0.726,0.485C202.737,219.436,202.452,219.493,202.156,219.493L202.156,219.493z"/>
			</g>
		</g>
	</g>
	<g>
		<g>
			<path fill="#565656" d="M181.687,116.25c-0.06,0-0.119-0.001-0.179-0.004c-1.992-0.098-3.528-1.791-3.431-3.783l0.684-14.014
				c0.097-1.992,1.792-3.527,3.783-3.431c1.992,0.097,3.528,1.791,3.431,3.783l-0.684,14.014
				C185.197,114.746,183.601,116.25,181.687,116.25z"/>
			<path fill="#565656" d="M199.657,102.236h-17.289c-1.994,0-3.611-1.617-3.611-3.611c0-1.994,1.617-3.611,3.611-3.611h17.289
				c1.994,0,3.611,1.617,3.611,3.611C203.268,100.619,201.652,102.236,199.657,102.236L199.657,102.236z"/>
			<path fill="#565656" d="M200.769,124.599c-0.071,0-0.142-0.002-0.213-0.006c-1.991-0.116-3.511-1.824-3.395-3.815
				c0.036-0.63,0.016-2.798-1.79-4.261c-2.31-1.871-6.832-2.012-12.733-0.396c-1.923,0.526-3.91-0.606-4.437-2.529
				c-0.527-1.923,0.606-3.91,2.529-4.437c8.443-2.312,14.898-1.723,19.186,1.749c3.022,2.448,4.687,6.295,4.454,10.293
				C204.259,123.117,202.668,124.599,200.769,124.599z"/>
			<path fill="#565656" d="M189.271,133.656c-1.994,0-3.611-1.617-3.611-3.611s1.617-3.611,3.611-3.611
				c4.098,0,7.711-2.59,7.889-5.656c0.116-1.991,1.827-3.514,3.815-3.395c1.991,0.116,3.511,1.824,3.395,3.815
				c-0.202,3.46-1.963,6.667-4.96,9.028C196.603,132.438,193.002,133.656,189.271,133.656z"/>
			<path fill="#565656" d="M189.271,133.656c-4.572,0-8.741-2.24-11.153-5.993c-1.078-1.678-0.592-3.912,1.086-4.99
				c1.678-1.078,3.912-0.592,4.99,1.086c1.077,1.675,2.975,2.676,5.077,2.676c1.995,0,3.611,1.617,3.611,3.611
				S191.266,133.656,189.271,133.656z"/>
			<path fill="#565656" d="M182.389,95.014h-0.02c-0.182,0-0.362,0.014-0.537,0.04c-0.001,0-0.002,0-0.003,0.001
				c-0.001,0-0.002,0-0.003,0.001c-1.665,0.252-2.978,1.648-3.064,3.394l-0.001,0.009c-0.002,0.055-0.004,0.111-0.004,0.167
				c0,1.994,1.617,3.611,3.611,3.611h3.439l0.168-3.435c0.097-1.992-1.439-3.686-3.431-3.783
				C182.492,95.015,182.44,95.014,182.389,95.014"/>
			<path fill="#565656" d="M185.521,108.121c-1.517,0.231-3.115,0.575-4.79,1.034c-1.518,0.416-2.544,1.741-2.649,3.227l-0.004,0.08
				c-0.009,0.188-0.004,0.374,0.015,0.556c0.02,0.191,0.056,0.382,0.109,0.573c0.063,0.229,0.146,0.448,0.248,0.653
				c0.22,0.441,0.528,0.833,0.902,1.15c0.447,0.377,0.981,0.643,1.555,0.77c0.195,0.043,0.396,0.07,0.601,0.08
				c0.06,0.003,0.12,0.004,0.179,0.004c0.145,0,0.288-0.009,0.429-0.025c0.174-0.021,0.348-0.055,0.522-0.103
				c0.024-0.007,0.048-0.013,0.072-0.02c1.43-0.424,2.504-1.713,2.581-3.287L185.521,108.121"/>
			<path fill="#565656" d="M200.759,117.376c-1.891,0-3.482,1.479-3.597,3.394c0,0.003,0,0.005,0,0.008
				c-0.116,1.991,1.404,3.699,3.395,3.815c0.071,0.004,0.142,0.007,0.213,0.007c1.898,0,3.49-1.482,3.602-3.402
				c0-0.004,0-0.008,0.001-0.012c0.109-1.986-1.409-3.687-3.396-3.803C200.903,117.378,200.831,117.376,200.759,117.376"/>
			<path fill="#565656" d="M189.271,126.433L189.271,126.433c-1.994,0-3.611,1.617-3.611,3.611s1.617,3.611,3.611,3.611l0,0
				c1.995,0,3.611-1.617,3.611-3.611S191.266,126.433,189.271,126.433"/>
		</g>
	</g>
</g>
<g>
	<path fill="#633B0B" d="M194.444,194.322v7.745c0,24.541-19.875,34.337-44.415,34.337c-24.541,0-44.415-9.797-44.415-34.337v-7.745
		c0-2.147,0.186-4.386,0.653-6.532l9.518-11.757c1.395-1.767,2.888-3.447,4.479-5.039c-0.934-1.587-1.866-3.173-2.614-4.852
		c-1.68-3.733-2.614-7.651-2.614-11.57v-7.745c0-2.054,0.186-3.919,0.56-5.692h68.956c0.374,1.773,0.56,3.638,0.56,5.692v7.745
		c0,3.919-0.934,7.838-2.614,11.57c-0.742,1.687-1.613,3.305-2.614,4.852c2.24,2.239,6.066,7.278,6.066,7.278l6.811,5.599
		C193.884,187.325,194.444,190.777,194.444,194.322L194.444,194.322z"/>
	<path fill="#FBBC4B" d="M194.444,194.322c0,24.541-19.875,34.337-44.415,34.337c-24.541,0-44.415-9.797-44.415-34.337
		c0-2.147,0.186-4.386,0.653-6.532c1.587-7.838,5.878-15.396,11.383-21.741c1.399-1.68,1.773-4.012,0.746-5.972
		c-2.147-4.198-3.452-8.677-3.452-13.25c0-2.054,0.186-3.919,0.56-5.692c2.799-15.21,17.169-21.367,34.523-21.367
		c17.262,0,31.631,6.159,34.43,21.367c0.374,1.773,0.56,3.638,0.56,5.692c0,4.572-1.306,9.051-3.452,13.25
		c-1.027,1.958-0.653,4.292,0.746,5.972c4.572,5.318,8.305,11.383,10.357,17.729C193.884,187.325,194.444,190.777,194.444,194.322
		L194.444,194.322z"/>
	<path fill="#6B3D07" d="M164.959,194.51h-29.858c-0.088,0.003-0.172-0.012-0.253-0.045c-0.125-0.048-0.224-0.128-0.298-0.24
		s-0.108-0.235-0.102-0.368v-5.412c0-0.374,0.279-0.653,0.653-0.653h29.858c0.374,0,0.653,0.279,0.653,0.653v5.412
		c0.003,0.087-0.012,0.171-0.046,0.252c-0.064,0.174-0.182,0.292-0.356,0.356C165.13,194.497,165.046,194.512,164.959,194.51
		L164.959,194.51z"/>
	<path fill="#633B0B" d="M156.095,92.057h-12.13c-0.839,0-1.494-0.56-1.587-1.399l-2.24-21.927h19.688l-2.24,21.927
		C157.586,91.497,156.933,92.057,156.095,92.057L156.095,92.057z M164.959,191.99h-29.858c-0.183,0.007-0.338-0.055-0.467-0.185
		c-0.131-0.128-0.193-0.284-0.186-0.467v-5.412c0-0.374,0.279-0.653,0.653-0.653h29.858c0.374,0,0.653,0.279,0.653,0.653v5.412
		c0.003,0.087-0.012,0.171-0.046,0.252c-0.064,0.174-0.182,0.292-0.356,0.356C165.129,191.977,165.046,191.992,164.959,191.99
		L164.959,191.99z"/>
	<path fill="#6B3D07" d="M155.254,88.043v53.186c0,0.746-0.279,1.399-0.56,1.399h-9.331c-0.279,0-0.56-0.653-0.56-1.399V88.043
		c0-0.746,0.28-1.399,0.56-1.399h9.331C154.975,86.645,155.254,87.298,155.254,88.043z"/>
	<path fill="#633B0B" d="M170.091,153.92c0.001,1.317-0.128,2.621-0.386,3.913c-0.258,1.292-0.638,2.546-1.141,3.764
		c-0.503,1.218-1.121,2.374-1.854,3.469c-0.548,0.82-1.154,1.595-1.816,2.326c-0.663,0.731-1.375,1.409-2.138,2.035
		c-0.763,0.626-1.567,1.192-2.413,1.699c-0.846,0.507-1.725,0.949-2.636,1.327c-0.911,0.377-1.845,0.686-2.802,0.926
		c-0.957,0.24-1.926,0.408-2.908,0.505c-0.982,0.097-1.965,0.121-2.95,0.073c-0.985-0.048-1.962-0.168-2.929-0.361
		c-1.292-0.258-2.546-0.638-3.764-1.141c-1.218-0.503-2.374-1.121-3.469-1.854c-0.82-0.548-1.595-1.154-2.326-1.816
		c-0.731-0.663-1.409-1.375-2.035-2.138c-0.626-0.763-1.192-1.567-1.699-2.413c-0.507-0.846-0.949-1.725-1.327-2.636
		c-0.377-0.911-0.686-1.846-0.926-2.802c-0.24-0.957-0.408-1.926-0.505-2.908c-0.097-0.982-0.121-1.965-0.073-2.951
		c0.048-0.985,0.168-1.962,0.361-2.929c0.258-1.292,0.638-2.546,1.141-3.764c0.503-1.218,1.121-2.374,1.854-3.469
		c0.548-0.82,1.154-1.595,1.816-2.326c0.663-0.731,1.375-1.409,2.138-2.035c0.763-0.626,1.567-1.192,2.413-1.699
		c0.846-0.507,1.725-0.949,2.636-1.327c0.911-0.378,1.846-0.686,2.802-0.926c0.957-0.24,1.926-0.408,2.908-0.505
		c0.982-0.097,1.965-0.121,2.951-0.073c0.985,0.048,1.962,0.168,2.929,0.361c1.292,0.258,2.546,0.638,3.764,1.141
		c1.218,0.503,2.374,1.121,3.469,1.854c1.096,0.731,2.109,1.563,3.04,2.495c0.931,0.932,1.763,1.945,2.495,3.04
		c0.732,1.095,1.35,2.252,1.854,3.469c0.504,1.217,0.885,2.471,1.142,3.763C169.963,151.298,170.091,152.603,170.091,153.92
		L170.091,153.92z"/>
	<path fill="#565656" d="M163.933,153.921c0.01,2.324-0.537,4.509-1.642,6.554c-0.431,0.805-0.935,1.56-1.513,2.266
		c-1.019,1.245-2.219,2.28-3.6,3.105c-1.379,0.829-2.858,1.399-4.436,1.71c-0.895,0.179-1.799,0.267-2.712,0.266
		c-1.845,0.005-3.618-0.348-5.321-1.058c-1.271-0.525-2.437-1.224-3.499-2.097c-1.064-0.871-1.977-1.878-2.74-3.022
		c-0.763-1.144-1.344-2.374-1.744-3.689c-0.402-1.315-0.601-2.661-0.598-4.036c-0.005-1.845,0.348-3.618,1.058-5.321
		c0.525-1.271,1.224-2.437,2.097-3.499c0.871-1.064,1.878-1.977,3.022-2.74c1.144-0.763,2.374-1.344,3.689-1.744
		c1.315-0.402,2.661-0.601,4.036-0.598c1.845-0.005,3.618,0.348,5.321,1.058c1.271,0.525,2.437,1.224,3.499,2.097
		c1.064,0.871,1.977,1.878,2.74,3.022c0.508,0.758,0.936,1.56,1.284,2.404c0.348,0.844,0.612,1.714,0.792,2.609
		C163.843,152.104,163.932,153.008,163.933,153.921L163.933,153.921z"/>
	<path fill="#4C4C4C" d="M150.029,145.895c6.626,0,12.223,4.665,13.53,10.917c0.185-0.955,0.278-1.919,0.279-2.892
		c0-7.651-6.252-13.903-13.903-13.903c-7.651,0-13.903,6.252-13.903,13.903c0,1.027,0.093,1.958,0.279,2.892
		C137.806,150.562,143.404,145.895,150.029,145.895L150.029,145.895z"/>
	<path fill="#9E6212" d="M156.281,63.598h-12.596c-0.839,0-1.68,0.279-2.332,0.839c-0.461,0.413-0.805,0.906-1.034,1.481
		c-0.231,0.574-0.322,1.169-0.273,1.785l2.332,19.969c0.051,0.399,0.228,0.731,0.531,0.996c0.301,0.267,0.653,0.401,1.055,0.403
		h12.223c0.746,0,1.494-0.56,1.587-1.399l2.332-19.969c0.186-1.213-0.374-2.425-1.306-3.266
		C158.063,63.851,157.223,63.571,156.281,63.598L156.281,63.598z"/>
	<path fill="#BCBCBC" d="M157.553,95.29h-15.048c-0.439,0-0.798-0.359-0.798-0.798l0,0c0-0.439,0.359-0.798,0.798-0.798h15.048
		c0.439,0,0.798,0.359,0.798,0.798l0,0C158.352,94.931,157.992,95.29,157.553,95.29z"/>
	<path fill="#BCBCBC" d="M157.553,100.374h-15.048c-0.439,0-0.798-0.359-0.798-0.798l0,0c0-0.439,0.359-0.798,0.798-0.798h15.048
		c0.439,0,0.798,0.359,0.798,0.798l0,0C158.352,100.015,157.992,100.374,157.553,100.374z"/>
	<path fill="#BCBCBC" d="M157.553,105.458h-15.048c-0.439,0-0.798-0.359-0.798-0.798l0,0c0-0.439,0.359-0.798,0.798-0.798h15.048
		c0.439,0,0.798,0.359,0.798,0.798l0,0C158.352,105.098,157.992,105.458,157.553,105.458z"/>
	<path fill="#BCBCBC" d="M157.553,110.721h-15.048c-0.439,0-0.798-0.359-0.798-0.798l0,0c0-0.439,0.359-0.798,0.798-0.798h15.048
		c0.439,0,0.798,0.359,0.798,0.798l0,0C158.352,110.362,157.992,110.721,157.553,110.721z"/>
	<path fill="#BCBCBC" d="M157.553,115.434h-15.048c-0.439,0-0.798-0.359-0.798-0.798v0c0-0.439,0.359-0.798,0.798-0.798h15.048
		c0.439,0,0.798,0.359,0.798,0.798v0C158.352,115.075,157.992,115.434,157.553,115.434z"/>
</g>
<path opacity="0.75" fill="#EB595B" d="M226.884,171.818l-12.848-17.196c-0.7-0.936-2.103-0.936-2.803,0l-12.848,17.196
	c-0.862,1.154-0.039,2.797,1.402,2.797h5.753v11.761c0,0.966,0.783,1.749,1.749,1.749h10.691c0.966,0,1.749-0.783,1.749-1.749
	v-11.761h5.753C226.923,174.615,227.746,172.972,226.884,171.818z"/>
</svg>
