<svg xmlns="http://www.w3.org/2000/svg" version="1.0" viewBox="0 0 300 300"><circle cx="150" cy="150" r="149.724" fill="#FFF" transform="rotate(-45.001 149.999 150.002)"/><circle cx="150" cy="150" r="140.553" fill="#86BF5A"/><path fill="#9E6212" d="M197.629 197.548v8.254c0 26.307-21.329 36.84-47.623 36.84-26.307 0-47.635-10.533-47.635-36.84v-8.254c0-2.345.249-4.69.72-6.996l10.232-12.629a72.557 72.557 0 014.756-5.45 42.408 42.408 0 01-2.765-5.214c-1.769-3.97-2.817-8.162-2.817-12.394v-8.254c0-2.162.184-4.192.55-6.092h73.903c.367 1.9.55 3.93.55 6.092v8.254c0 4.232-1.048 8.424-2.804 12.394a42.3 42.3 0 01-2.778 5.214c2.359 2.437 6.538 7.821 6.538 7.821l7.323 5.974v.013c1.182 3.682 1.85 7.455 1.85 11.267z"/><path fill="#FBBC4B" d="M197.629 197.548c0 26.307-21.329 36.84-47.623 36.84-26.307 0-47.635-10.533-47.635-36.84 0-2.345.249-4.69.72-6.996 1.716-8.424 6.328-16.455 12.223-23.294l.033-.039c1.524-1.789 1.881-4.293.82-6.39-2.281-4.511-3.67-9.323-3.67-14.218 0-2.162.184-4.192.55-6.092 3.014-16.271 18.407-22.914 36.958-22.914 18.538 0 33.932 6.642 36.945 22.914.367 1.9.55 3.93.55 6.092 0 4.892-1.387 9.701-3.665 14.209-1.064 2.105-.717 4.631.834 6.407l.027.031c4.874 5.673 8.883 12.158 11.083 19.01v.013c1.182 3.682 1.85 7.455 1.85 11.267z"/><path fill="#6B3D07" d="M166.012 197.691h-32.024a.672.672 0 01-.672-.672v-5.844c0-.371.301-.672.672-.672h32.024c.371 0 .672.301.672.672v5.844a.672.672 0 01-.672.672z"/><path fill="#9E6212" d="M166.012 194.991h-32.024a.672.672 0 01-.672-.672v-5.844c0-.371.301-.672.672-.672h32.024c.371 0 .672.301.672.672v5.844a.672.672 0 01-.672.672zm-9.506-107.049h-13.011a1.666 1.666 0 01-1.658-1.499l-2.372-23.51h21.071l-2.372 23.51a1.667 1.667 0 01-1.658 1.499z"/><path fill="#6B3D07" d="M155.566 83.593v56.963c0 .836-.252 1.497-.572 1.497h-9.988c-.32 0-.572-.661-.572-1.497V83.593c0-.815.252-1.497.572-1.497h9.988c.32-.001.572.682.572 1.497z"/><path fill="#9E6212" d="M149.999 175.67c-11.835 0-21.462-9.628-21.462-21.463s9.627-21.463 21.462-21.463c11.835 0 21.464 9.628 21.464 21.463s-9.629 21.463-21.464 21.463z"/><circle cx="150" cy="154.207" r="14.867" fill="#565656"/><path fill="#4C4C4C" d="M150 145.603c7.136 0 13.092 5.03 14.53 11.736a14.9 14.9 0 00.337-3.132c0-8.211-6.656-14.867-14.867-14.867-8.211 0-14.867 6.656-14.867 14.867 0 1.075.12 2.121.337 3.132 1.438-6.707 7.394-11.736 14.53-11.736z"/><path fill="#FBBC4B" d="M156.741 57.358h-13.483a3.947 3.947 0 00-3.922 4.404l2.481 21.411c.097.84.809 1.475 1.655 1.475h13.056c.846 0 1.558-.634 1.655-1.475l2.481-21.411a3.95 3.95 0 00-3.923-4.404z"/><path fill="#FFF" d="M155.745 91.989h-11.489a.447.447 0 110-.894h11.489a.448.448 0 010 .894z"/></svg>