<svg xmlns="http://www.w3.org/2000/svg" version="1.0" viewBox="0 0 300 300"><circle cx="150" cy="150" r="149.699" fill="#FFF"/><circle cx="150" cy="150" r="140.6" fill="#FBBC4B"/><path fill="#633B0B" d="M224.622 127.629h-67.004v1.6a2.144 2.144 0 00-2.146-2.146h-10.945a2.142 2.142 0 00-2.145 2.146v-1.6H75.378a2.547 2.547 0 00-2.54 2.539v90.633a2.542 2.542 0 002.527 2.527h67.017v-.228c0 .343.076.673.229.952a2.127 2.127 0 001.917 1.194h10.945a2.143 2.143 0 002.146-2.146v.229h67.017a2.541 2.541 0 002.526-2.527v-90.633a2.548 2.548 0 00-2.54-2.54z"/><path fill="#9E6212" d="M142.382 125.578v95.699H75.365a2.541 2.541 0 01-2.526-2.527v-90.633a2.546 2.546 0 012.539-2.539h67.004zm15.236 0v95.699h67.016a2.541 2.541 0 002.526-2.527v-90.633a2.546 2.546 0 00-2.539-2.539h-67.003z"/><path fill="#F2F2F2" d="M157.618 125.578v1.6a2.144 2.144 0 00-2.146-2.146h-10.945a2.143 2.143 0 00-2.146 2.146v-1.6h-65.81v80.005c0 3.098 2.222 5.726 5.308 6.272l50.472 8.431 5.917.99h4.114v-.229c0 .343.076.673.229.952l4.85.808v.385h5.08v-.385l4.85-.808c.153-.279.229-.61.229-.952v.229h4.114l5.916-.99 50.472-8.431c3.086-.546 5.308-3.174 5.308-6.272v-80.005h-65.812z"/><path fill="#633B0B" d="M157.618 129.229V223.1a2.143 2.143 0 01-2.146 2.146h-10.945a2.127 2.127 0 01-1.917-1.194 1.985 1.985 0 01-.229-.952v-93.871c0-1.193.965-2.146 2.146-2.146h10.945c1.182 0 2.146.953 2.146 2.146z"/><path fill="#9E6212" d="M157.618 127.178v93.871a2.143 2.143 0 01-2.146 2.146h-10.945a2.127 2.127 0 01-1.917-1.194 1.985 1.985 0 01-.229-.952v-93.871c0-1.193.965-2.146 2.146-2.146h10.945c1.182 0 2.146.953 2.146 2.146z"/><path fill="#EFEFEF" d="M150 125.578v93.794l-7.618-1.27-9.396-1.574-50.485-8.431a2.548 2.548 0 01-2.12-2.514v-88.639a2.53 2.53 0 012.959-2.501l2.324.394 61.074 10.196 3.262.545zm0 0v93.794l7.618-1.27 9.396-1.574 50.485-8.431a2.548 2.548 0 002.12-2.514v-88.639a2.53 2.53 0 00-2.959-2.501l-2.324.394-61.074 10.196-3.262.545z"/><path fill="#F7F7F7" d="M153.263 125.032h-6.527l-61.074-10.196v82.646a5.073 5.073 0 003.504 4.825l43.818 14.221 9.396 3.047 5.079 1.651 2.539.825 2.539-.825 5.079-1.651 9.396-3.047 43.818-14.221a5.073 5.073 0 003.504-4.825v-82.646l-61.071 10.196z"/><path fill="#FFFBF3" d="M150 219.377l-60.043-19.491a2.532 2.532 0 01-1.75-2.409v-88.468c0-1.72 1.678-2.94 3.314-2.409L150 125.584v93.793zm61.795-110.367v88.463a2.543 2.543 0 01-1.746 2.415l-52.429 17.026-7.535 2.441-.079.026V125.59l.079-.026 1.615-.525 3.886-1.261 5.264-1.706 47.625-15.477c1.639-.525 3.32.695 3.32 2.415z"/><path fill="none" stroke="#EFEFEF" stroke-miterlimit="10" stroke-width=".656" d="M150 125.584v93.793"/><path fill="#DDD6CA" d="M94.344 119.827l.849-2.877 47.224 13.934-.85 2.877zm0 10.065l.849-2.878 47.224 13.935-.85 2.877zm-.001 9.676l.85-2.877 47.223 13.934-.849 2.878zm.001 9.292l.85-2.877 47.223 13.934-.849 2.878zm-.001 10.062l.849-2.877 47.224 13.935-.85 2.877zm-.001 9.678l.85-2.877 47.223 13.934-.849 2.877zm-.001 10.71l.85-2.878 47.224 13.934-.85 2.878zm.002 9.681l.849-2.877 47.223 13.934-.849 2.877zm63.483-58.107l47.224-13.934.849 2.877-47.224 13.935zm0 10.066l47.224-13.935.849 2.877-47.224 13.934zm-.001 9.675l47.224-13.934.85 2.877-47.225 13.934zm.001 9.288l47.224-13.935.85 2.878-47.225 13.934zm-.001 10.065l47.224-13.934.85 2.877-47.225 13.935zm-.001 9.678l47.224-13.934.85 2.877-47.225 13.935zm0 10.71l47.224-13.934.85 2.877-47.225 13.934zm.003 9.673l47.223-13.934.85 2.877-47.224 13.934z"/><path fill="#565656" d="M201.473 117.333l-7.997 2.255a.37.37 0 00-.285.36v3.457a1.654 1.654 0 00-1.042-.139 1.664 1.664 0 00.434 3.294c.852-.059 1.545-.853 1.545-1.707v-4.343l2.963-.85v2.532a1.66 1.66 0 00-2.376 1.268 1.666 1.666 0 001.768 1.887c.852-.059 1.546-.852 1.546-1.706v-4.25l2.963-.85v2.432a1.66 1.66 0 00-2.376 1.268 1.665 1.665 0 001.767 1.887c.852-.059 1.546-.852 1.546-1.706v-4.731a.369.369 0 00-.456-.358zm-71.726 6.507l-8.276-.739a.37.37 0 00-.394.236l-1.231 3.231a1.655 1.655 0 00-.924-.501 1.665 1.665 0 00-.768 3.233c.817.248 1.748-.247 2.052-1.045l1.546-4.059 3.072.26-.901 2.366a1.652 1.652 0 00-.924-.501 1.665 1.665 0 00-.768 3.232c.817.248 1.748-.246 2.052-1.044l1.513-3.972 3.072.26-.866 2.273a1.652 1.652 0 00-.924-.501 1.665 1.665 0 00-.768 3.232c.817.248 1.748-.246 2.052-1.044l1.684-4.421a.368.368 0 00-.299-.496zm53.232-1.799v3.485a1.778 1.778 0 00-1.121-.15 1.791 1.791 0 00.467 3.545c.917-.064 1.663-.918 1.663-1.837v-4.438l3.496-.819v2.382a1.784 1.784 0 00-1.121-.15 1.79 1.79 0 00.466 3.545c.917-.063 1.663-.917 1.663-1.836v-4.855a.398.398 0 00-.491-.387l-4.715 1.126a.4.4 0 00-.307.389zm-10.452 3.194v3.485a1.778 1.778 0 00-1.121-.15 1.791 1.791 0 00.467 3.545c.917-.064 1.663-.918 1.663-1.837v-4.438l3.496-.819v2.382a1.784 1.784 0 00-1.121-.15 1.79 1.79 0 00.466 3.545c.917-.063 1.663-.917 1.663-1.836v-4.855a.398.398 0 00-.491-.387l-4.715 1.126a.4.4 0 00-.307.389zm-72.622-7.883l-.815 3.388a1.788 1.788 0 00-2.805.729 1.792 1.792 0 001.374 2.419c.906.153 1.832-.503 2.047-1.397l1.039-4.315 3.59.022-.557 2.316a1.785 1.785 0 00-2.805.729 1.791 1.791 0 001.374 2.419c.906.153 1.832-.502 2.047-1.396l1.136-4.72a.398.398 0 00-.387-.491l-4.848-.009a.4.4 0 00-.39.306zm10.838 3.613l-.815 3.388a1.788 1.788 0 00-2.805.729 1.792 1.792 0 001.374 2.419c.906.153 1.832-.503 2.047-1.397l1.039-4.315 3.59.022-.557 2.316a1.785 1.785 0 00-2.805.729 1.791 1.791 0 001.374 2.419c.906.153 1.832-.502 2.047-1.396l1.136-4.72a.398.398 0 00-.387-.491l-4.848-.009a.401.401 0 00-.39.306zm17.585 13.069l-8.276-.739a.37.37 0 00-.394.236l-1.231 3.231a1.655 1.655 0 00-.924-.501 1.665 1.665 0 00-.767 3.233c.817.248 1.748-.247 2.052-1.045l1.546-4.059 3.072.26-.901 2.366a1.652 1.652 0 00-.924-.501 1.665 1.665 0 00-.768 3.232c.817.248 1.748-.246 2.052-1.044l1.513-3.972 3.072.26-.866 2.273a1.652 1.652 0 00-.924-.501 1.665 1.665 0 00-.768 3.232c.817.248 1.748-.246 2.052-1.044l1.684-4.421a.37.37 0 00-.3-.496zm-29.843-6.488l-.815 3.388a1.788 1.788 0 00-2.805.729 1.792 1.792 0 001.374 2.419c.906.153 1.832-.503 2.047-1.397l1.039-4.315 3.59.022-.557 2.316a1.785 1.785 0 00-2.805.729 1.791 1.791 0 001.374 2.419c.906.153 1.832-.502 2.047-1.396l1.136-4.72a.398.398 0 00-.387-.491l-4.848-.009a.4.4 0 00-.39.306zm10.839 3.613l-.815 3.388a1.788 1.788 0 00-2.805.729 1.792 1.792 0 001.374 2.419c.906.153 1.832-.503 2.047-1.397l1.039-4.315 3.59.022-.557 2.316a1.785 1.785 0 00-2.805.729 1.791 1.791 0 001.374 2.419c.906.153 1.832-.502 2.047-1.396l1.136-4.72a.398.398 0 00-.387-.491l-4.848-.009a.4.4 0 00-.39.306zm17.972 12.939l-8.276-.739a.37.37 0 00-.394.236l-1.231 3.231a1.655 1.655 0 00-.924-.501 1.665 1.665 0 00-.767 3.233c.817.248 1.748-.247 2.052-1.045l1.546-4.059 3.072.26-.901 2.366a1.652 1.652 0 00-.924-.501 1.665 1.665 0 00-.768 3.232c.817.248 1.748-.246 2.052-1.044l1.513-3.972 3.072.26-.866 2.273a1.652 1.652 0 00-.924-.501 1.665 1.665 0 00-.768 3.232c.817.248 1.748-.246 2.052-1.044l1.684-4.421a.37.37 0 00-.3-.496zm-29.843-6.488l-.815 3.388a1.788 1.788 0 00-2.805.729 1.792 1.792 0 001.374 2.419c.906.153 1.832-.503 2.047-1.397l1.039-4.315 3.59.022-.557 2.316a1.785 1.785 0 00-2.805.729 1.791 1.791 0 001.374 2.419c.906.153 1.832-.502 2.047-1.396l1.136-4.72a.398.398 0 00-.387-.491l-4.848-.009a.402.402 0 00-.39.306zm10.839 3.613l-.815 3.388a1.788 1.788 0 00-2.805.729 1.792 1.792 0 001.374 2.419c.906.153 1.832-.503 2.047-1.397l1.039-4.315 3.59.022-.557 2.316a1.785 1.785 0 00-2.805.729 1.791 1.791 0 001.374 2.419c.906.153 1.832-.502 2.047-1.396l1.136-4.72a.398.398 0 00-.387-.491l-4.848-.009a.4.4 0 00-.39.306zm18.617 12.166l-8.276-.739a.37.37 0 00-.394.236l-1.231 3.231a1.655 1.655 0 00-.924-.501 1.665 1.665 0 00-.767 3.233c.817.248 1.748-.247 2.052-1.045l1.546-4.059 3.072.26-.901 2.366a1.652 1.652 0 00-.924-.501 1.665 1.665 0 00-.768 3.232c.817.248 1.748-.246 2.052-1.044l1.513-3.972 3.072.26-.866 2.273a1.652 1.652 0 00-.924-.501 1.665 1.665 0 00-.768 3.232c.817.248 1.748-.246 2.052-1.044l1.684-4.421a.37.37 0 00-.3-.496zm-29.843-6.488l-.815 3.388a1.788 1.788 0 00-2.805.729 1.792 1.792 0 001.374 2.419c.906.153 1.832-.503 2.047-1.397l1.039-4.315 3.59.022-.557 2.316a1.785 1.785 0 00-2.805.729 1.791 1.791 0 001.374 2.419c.906.153 1.832-.502 2.047-1.396l1.136-4.72a.398.398 0 00-.387-.491l-4.848-.009a.4.4 0 00-.39.306zm10.839 3.613l-.815 3.388a1.788 1.788 0 00-2.805.729 1.792 1.792 0 001.374 2.419c.906.153 1.832-.503 2.047-1.397l1.039-4.315 3.59.022-.557 2.316a1.785 1.785 0 00-2.805.729 1.791 1.791 0 001.374 2.419c.906.153 1.832-.502 2.047-1.396l1.136-4.72a.398.398 0 00-.387-.491l-4.848-.009a.4.4 0 00-.39.306zm18.875 12.939l-8.276-.739a.37.37 0 00-.394.236l-1.231 3.231a1.655 1.655 0 00-.924-.501 1.665 1.665 0 00-.767 3.233c.817.248 1.748-.247 2.052-1.045l1.546-4.059 3.072.26-.901 2.366a1.652 1.652 0 00-.924-.501 1.665 1.665 0 00-.768 3.232c.817.248 1.748-.246 2.052-1.044l1.513-3.972 3.072.26-.866 2.273a1.652 1.652 0 00-.924-.501 1.665 1.665 0 00-.768 3.232c.817.248 1.748-.246 2.052-1.044l1.684-4.421a.37.37 0 00-.3-.496zm-29.843-6.488l-.815 3.388a1.788 1.788 0 00-2.805.729 1.792 1.792 0 001.374 2.419c.906.153 1.832-.503 2.047-1.397l1.039-4.315 3.59.022-.557 2.316a1.785 1.785 0 00-2.805.729 1.791 1.791 0 001.374 2.419c.906.153 1.832-.502 2.047-1.396l1.136-4.72a.398.398 0 00-.387-.491l-4.848-.009a.4.4 0 00-.39.306zm10.839 3.613l-.815 3.388a1.788 1.788 0 00-2.805.729 1.792 1.792 0 001.374 2.419c.906.153 1.832-.503 2.047-1.397l1.039-4.315 3.59.022-.557 2.316a1.785 1.785 0 00-2.805.729 1.791 1.791 0 001.374 2.419c.906.153 1.832-.502 2.047-1.396l1.136-4.72a.398.398 0 00-.387-.491l-4.848-.009a.4.4 0 00-.39.306zm19.649 12.811l-8.276-.739a.37.37 0 00-.394.236l-1.231 3.231a1.655 1.655 0 00-.924-.501 1.665 1.665 0 00-.768 3.233c.817.248 1.748-.247 2.052-1.045l1.546-4.059 3.072.26-.901 2.366a1.652 1.652 0 00-.924-.501 1.665 1.665 0 00-.768 3.232c.817.248 1.748-.246 2.052-1.044l1.513-3.972 3.072.26-.866 2.273a1.652 1.652 0 00-.924-.501 1.665 1.665 0 00-.768 3.232c.817.248 1.748-.246 2.052-1.044l1.684-4.421a.369.369 0 00-.299-.496zm13.452 2.129l-8.276-.739a.37.37 0 00-.394.236l-1.231 3.231a1.655 1.655 0 00-.924-.501 1.665 1.665 0 00-.767 3.233c.817.248 1.748-.247 2.052-1.045l1.546-4.059 3.072.26-.901 2.366a1.652 1.652 0 00-.924-.501 1.665 1.665 0 00-.768 3.232c.817.248 1.748-.246 2.052-1.044l1.513-3.972 3.072.26-.866 2.273a1.652 1.652 0 00-.924-.501 1.665 1.665 0 00-.768 3.232c.817.248 1.748-.246 2.052-1.044l1.684-4.421a.37.37 0 00-.3-.496zm-43.295-8.617l-.815 3.388a1.788 1.788 0 00-2.805.729 1.792 1.792 0 001.374 2.419c.906.153 1.832-.503 2.047-1.397l1.039-4.315 3.59.022-.557 2.316a1.785 1.785 0 00-2.805.729 1.791 1.791 0 001.374 2.419c.906.153 1.832-.502 2.047-1.396l1.136-4.72a.398.398 0 00-.387-.491l-4.848-.009a.4.4 0 00-.39.306zm10.839 3.613l-.815 3.388a1.788 1.788 0 00-2.805.729 1.792 1.792 0 001.374 2.419c.906.153 1.832-.503 2.047-1.397l1.039-4.315 3.59.022-.557 2.316a1.785 1.785 0 00-2.805.729 1.791 1.791 0 001.374 2.419c.906.153 1.832-.502 2.047-1.396l1.136-4.72a.398.398 0 00-.387-.491l-4.848-.009a.4.4 0 00-.39.306zm19.649 13.584l-8.276-.739a.37.37 0 00-.394.236l-1.231 3.231a1.655 1.655 0 00-.924-.501 1.665 1.665 0 00-.767 3.233c.817.248 1.748-.247 2.052-1.045l1.546-4.059 3.072.26-.901 2.366a1.652 1.652 0 00-.924-.501 1.665 1.665 0 00-.768 3.232c.817.248 1.748-.246 2.052-1.044l1.513-3.972 3.072.26-.866 2.273a1.652 1.652 0 00-.924-.501 1.665 1.665 0 00-.768 3.232c.817.248 1.748-.246 2.052-1.044l1.684-4.421a.37.37 0 00-.3-.496zm13.258 2.855l-8.276-.739a.37.37 0 00-.394.236l-1.231 3.231a1.655 1.655 0 00-.924-.501 1.665 1.665 0 00-.767 3.233c.817.248 1.748-.247 2.052-1.045l1.546-4.059 3.072.26-.901 2.366a1.652 1.652 0 00-.924-.501 1.665 1.665 0 00-.768 3.232c.817.248 1.748-.246 2.052-1.044l1.513-3.972 3.072.26-.866 2.273a1.652 1.652 0 00-.924-.501 1.665 1.665 0 00-.768 3.232c.817.248 1.748-.246 2.052-1.044l1.684-4.421a.37.37 0 00-.3-.496zm-43.101-9.343l-.815 3.388a1.788 1.788 0 00-2.805.729 1.792 1.792 0 001.374 2.419c.906.153 1.832-.503 2.047-1.397l1.039-4.315 3.59.022-.557 2.316a1.785 1.785 0 00-2.805.729 1.791 1.791 0 001.374 2.419c.906.153 1.832-.502 2.047-1.396l1.136-4.72a.398.398 0 00-.387-.491l-4.848-.009a.402.402 0 00-.39.306zm10.839 3.613l-.815 3.388a1.788 1.788 0 00-2.805.729 1.792 1.792 0 001.374 2.419c.906.153 1.832-.503 2.047-1.397l1.039-4.315 3.59.022-.557 2.316a1.785 1.785 0 00-2.805.729 1.791 1.791 0 001.374 2.419c.906.153 1.832-.502 2.047-1.396l1.136-4.72a.398.398 0 00-.387-.491l-4.848-.009a.4.4 0 00-.39.306zm19.133 12.811l-8.276-.739a.37.37 0 00-.394.236l-1.231 3.231a1.655 1.655 0 00-.924-.501 1.665 1.665 0 00-.768 3.233c.817.248 1.748-.247 2.052-1.045l1.546-4.059 3.072.26-.901 2.366a1.652 1.652 0 00-.924-.501 1.665 1.665 0 00-.768 3.232c.817.248 1.748-.246 2.052-1.044l1.513-3.972 3.072.26-.866 2.273a1.652 1.652 0 00-.924-.501 1.665 1.665 0 00-.768 3.232c.817.248 1.748-.246 2.052-1.044l1.684-4.421a.368.368 0 00-.299-.496zm12.726 3.532l-8.276-.739a.37.37 0 00-.394.236l-1.231 3.231a1.655 1.655 0 00-.924-.501 1.665 1.665 0 00-.767 3.233c.817.248 1.748-.247 2.052-1.045l1.546-4.059 3.072.26-.901 2.366a1.652 1.652 0 00-.924-.501 1.665 1.665 0 00-.768 3.232c.817.248 1.748-.246 2.052-1.044l1.513-3.972 3.072.26-.866 2.273a1.652 1.652 0 00-.924-.501 1.665 1.665 0 00-.768 3.232c.817.248 1.748-.246 2.052-1.044l1.684-4.421a.37.37 0 00-.3-.496zm-42.569-10.02l-.815 3.388a1.788 1.788 0 00-2.805.729 1.792 1.792 0 001.374 2.419c.906.153 1.832-.503 2.047-1.397l1.039-4.315 3.59.022-.557 2.316a1.785 1.785 0 00-2.805.729 1.791 1.791 0 001.374 2.419c.906.153 1.832-.502 2.047-1.396l1.136-4.72a.398.398 0 00-.387-.491l-4.848-.009a.4.4 0 00-.39.306zm10.839 3.613l-.815 3.388a1.788 1.788 0 00-2.805.729 1.792 1.792 0 001.374 2.419c.906.153 1.832-.503 2.047-1.397l1.039-4.315 3.59.022-.557 2.316a1.785 1.785 0 00-2.805.729 1.791 1.791 0 001.374 2.419c.906.153 1.832-.502 2.047-1.396l1.136-4.72a.398.398 0 00-.387-.491l-4.848-.009a.4.4 0 00-.39.306zm92.278-63.955l-7.997 2.255a.371.371 0 00-.285.361v3.457a1.654 1.654 0 00-1.042-.139 1.664 1.664 0 00.434 3.294c.852-.059 1.545-.853 1.545-1.707v-4.343l2.963-.85v2.532a1.66 1.66 0 00-2.376 1.268 1.666 1.666 0 001.768 1.887c.852-.059 1.546-.852 1.546-1.706v-4.25l2.963-.85v2.432a1.66 1.66 0 00-2.376 1.268 1.665 1.665 0 001.767 1.887c.852-.059 1.546-.852 1.546-1.706v-4.731a.369.369 0 00-.456-.359zm-18.494 4.708v3.485a1.778 1.778 0 00-1.121-.15 1.791 1.791 0 00.467 3.545c.917-.064 1.663-.918 1.663-1.837v-4.438l3.496-.819v2.382a1.777 1.777 0 00-1.121-.15 1.79 1.79 0 00.466 3.545c.917-.063 1.663-.917 1.663-1.836v-4.855a.398.398 0 00-.491-.387l-4.715 1.126a.4.4 0 00-.307.389zm-10.452 3.194v3.485a1.778 1.778 0 00-1.121-.15 1.791 1.791 0 00.467 3.545c.917-.064 1.663-.918 1.663-1.837v-4.438l3.496-.819v2.382a1.784 1.784 0 00-1.121-.15 1.79 1.79 0 00.466 3.545c.917-.063 1.663-.917 1.663-1.836v-4.855a.398.398 0 00-.491-.387l-4.715 1.126a.4.4 0 00-.307.389zm28.946 1.001l-7.997 2.255a.371.371 0 00-.285.361v3.457a1.654 1.654 0 00-1.042-.139 1.664 1.664 0 00.434 3.294c.852-.059 1.545-.853 1.545-1.707v-4.343l2.963-.85v2.532a1.66 1.66 0 00-2.376 1.268 1.666 1.666 0 001.768 1.887c.852-.059 1.546-.852 1.546-1.706v-4.25l2.963-.85v2.432a1.66 1.66 0 00-2.376 1.268 1.665 1.665 0 001.767 1.887c.852-.059 1.546-.852 1.546-1.706v-4.731a.369.369 0 00-.456-.359zm-18.494 4.709v3.485a1.778 1.778 0 00-1.121-.15 1.791 1.791 0 00.467 3.545c.917-.064 1.663-.918 1.663-1.837v-4.438l3.496-.819v2.382a1.777 1.777 0 00-1.121-.15 1.79 1.79 0 00.466 3.545c.917-.063 1.663-.917 1.663-1.836v-4.855a.398.398 0 00-.491-.387l-4.715 1.126a.399.399 0 00-.307.389zm-10.452 3.193v3.485a1.778 1.778 0 00-1.121-.15 1.791 1.791 0 00.467 3.545c.917-.064 1.663-.918 1.663-1.837v-4.438l3.496-.819v2.382a1.784 1.784 0 00-1.121-.15 1.79 1.79 0 00.466 3.545c.917-.063 1.663-.917 1.663-1.836v-4.855a.398.398 0 00-.491-.387l-4.715 1.126a.4.4 0 00-.307.389zm28.946 1.969l-7.997 2.255a.37.37 0 00-.285.36v3.457a1.654 1.654 0 00-1.042-.139 1.664 1.664 0 00.434 3.294c.852-.059 1.545-.853 1.545-1.707v-4.343l2.963-.85v2.532a1.66 1.66 0 00-2.376 1.268 1.666 1.666 0 001.768 1.887c.852-.059 1.546-.852 1.546-1.706v-4.25l2.963-.85v2.432a1.66 1.66 0 00-2.376 1.268 1.665 1.665 0 001.767 1.887c.852-.059 1.546-.852 1.546-1.706v-4.731a.369.369 0 00-.456-.358zm-18.494 4.708v3.485a1.778 1.778 0 00-1.121-.15 1.791 1.791 0 00.467 3.545c.917-.064 1.663-.918 1.663-1.837v-4.438l3.496-.819v2.382a1.784 1.784 0 00-1.121-.15 1.79 1.79 0 00.466 3.545c.917-.063 1.663-.917 1.663-1.836v-4.855a.398.398 0 00-.491-.387l-4.715 1.126a.4.4 0 00-.307.389zm-10.452 3.194v3.485a1.778 1.778 0 00-1.121-.15 1.791 1.791 0 00.467 3.545c.917-.064 1.663-.918 1.663-1.837v-4.438l3.496-.819v2.382a1.777 1.777 0 00-1.121-.15 1.79 1.79 0 00.466 3.545c.917-.063 1.663-.917 1.663-1.836v-4.855a.398.398 0 00-.491-.387l-4.715 1.126a.4.4 0 00-.307.389zm28.946 1.969l-7.997 2.255a.37.37 0 00-.285.36v3.457a1.654 1.654 0 00-1.042-.139 1.664 1.664 0 00.434 3.294c.852-.059 1.545-.853 1.545-1.707v-4.343l2.963-.85v2.532a1.66 1.66 0 00-2.376 1.268 1.666 1.666 0 001.768 1.887c.852-.059 1.546-.852 1.546-1.706v-4.25l2.963-.85v2.432a1.66 1.66 0 00-2.376 1.268 1.665 1.665 0 001.767 1.887c.852-.059 1.546-.852 1.546-1.706v-4.731a.369.369 0 00-.456-.358zm-18.494 4.708v3.485a1.778 1.778 0 00-1.121-.15 1.791 1.791 0 00.467 3.545c.917-.064 1.663-.918 1.663-1.837v-4.438l3.496-.819v2.382a1.784 1.784 0 00-1.121-.15 1.79 1.79 0 00.466 3.545c.917-.063 1.663-.917 1.663-1.836v-4.855a.398.398 0 00-.491-.387l-4.715 1.126a.4.4 0 00-.307.389zm-10.452 3.194v3.485a1.778 1.778 0 00-1.121-.15 1.791 1.791 0 00.467 3.545c.917-.064 1.663-.918 1.663-1.837v-4.438l3.496-.819v2.382a1.777 1.777 0 00-1.121-.15 1.79 1.79 0 00.466 3.545c.917-.063 1.663-.917 1.663-1.836v-4.855a.398.398 0 00-.491-.387l-4.715 1.126a.4.4 0 00-.307.389zm28.946 1.582l-7.997 2.255a.37.37 0 00-.285.36v3.457a1.654 1.654 0 00-1.042-.139 1.664 1.664 0 00.434 3.294c.852-.059 1.545-.853 1.545-1.707v-4.343l2.963-.85v2.532a1.66 1.66 0 00-2.376 1.268 1.666 1.666 0 001.768 1.887c.852-.059 1.546-.852 1.546-1.706v-4.25l2.963-.85v2.432a1.66 1.66 0 00-2.376 1.268 1.665 1.665 0 001.767 1.887c.852-.059 1.546-.852 1.546-1.706v-4.731a.369.369 0 00-.456-.358zm-18.494 4.708v3.485a1.778 1.778 0 00-1.121-.15 1.791 1.791 0 00.467 3.545c.917-.064 1.663-.918 1.663-1.837v-4.438l3.496-.819v2.382a1.784 1.784 0 00-1.121-.15 1.79 1.79 0 00.466 3.545c.917-.063 1.663-.917 1.663-1.836v-4.855a.398.398 0 00-.491-.387l-4.715 1.126a.4.4 0 00-.307.389zm-10.452 3.194v3.485a1.778 1.778 0 00-1.121-.15 1.791 1.791 0 00.467 3.545c.917-.064 1.663-.918 1.663-1.837v-4.438l3.496-.819v2.382a1.777 1.777 0 00-1.121-.15 1.79 1.79 0 00.466 3.545c.917-.063 1.663-.917 1.663-1.836v-4.855a.398.398 0 00-.491-.387l-4.715 1.126a.4.4 0 00-.307.389zm-9.935 3.742v3.485a1.778 1.778 0 00-1.121-.15 1.791 1.791 0 00.467 3.545c.917-.064 1.663-.918 1.663-1.837v-4.438l3.496-.819v2.382a1.784 1.784 0 00-1.121-.15 1.79 1.79 0 00.466 3.545c.917-.063 1.663-.917 1.663-1.836v-4.855a.398.398 0 00-.492-.387l-4.715 1.126a.4.4 0 00-.306.389zm38.881-1.096l-7.997 2.255a.37.37 0 00-.285.36v3.457a1.654 1.654 0 00-1.042-.139 1.664 1.664 0 00.434 3.294c.852-.059 1.545-.853 1.545-1.707v-4.343l2.963-.85v2.532a1.66 1.66 0 00-2.376 1.268 1.666 1.666 0 001.768 1.887c.852-.059 1.546-.852 1.546-1.706v-4.25l2.963-.85v2.432a1.66 1.66 0 00-2.376 1.268 1.665 1.665 0 001.767 1.887c.852-.059 1.546-.852 1.546-1.706v-4.731a.37.37 0 00-.456-.358zm-18.494 4.709v3.485a1.778 1.778 0 00-1.121-.15 1.791 1.791 0 00.467 3.545c.917-.064 1.663-.918 1.663-1.837v-4.438l3.496-.819v2.382a1.784 1.784 0 00-1.121-.15 1.79 1.79 0 00.466 3.545c.917-.063 1.663-.917 1.663-1.836v-4.855a.398.398 0 00-.491-.387l-4.715 1.126a.4.4 0 00-.307.389zm-10.452 3.193v3.485a1.778 1.778 0 00-1.121-.15 1.791 1.791 0 00.467 3.545c.917-.064 1.663-.918 1.663-1.837v-4.438l3.496-.819v2.382a1.777 1.777 0 00-1.121-.15 1.79 1.79 0 00.466 3.545c.917-.063 1.663-.917 1.663-1.836v-4.855a.398.398 0 00-.491-.387l-4.715 1.126a.402.402 0 00-.307.389zm-10.194 3.097v3.485a1.778 1.778 0 00-1.121-.15 1.791 1.791 0 00.467 3.545c.917-.064 1.663-.918 1.663-1.837v-4.438l3.496-.819v2.382a1.777 1.777 0 00-1.121-.15 1.79 1.79 0 00.466 3.545c.917-.063 1.663-.917 1.663-1.836v-4.855a.398.398 0 00-.492-.387l-4.715 1.126a.401.401 0 00-.306.389zm39.14-1.224l-7.997 2.255a.371.371 0 00-.285.361v3.457a1.654 1.654 0 00-1.042-.139 1.664 1.664 0 00.434 3.294c.852-.059 1.545-.853 1.545-1.707v-4.343l2.963-.85v2.532a1.66 1.66 0 00-2.376 1.268 1.666 1.666 0 001.768 1.887c.852-.059 1.546-.852 1.546-1.706v-4.25l2.963-.85v2.432a1.66 1.66 0 00-2.376 1.268 1.665 1.665 0 001.767 1.887c.852-.059 1.546-.852 1.546-1.706v-4.731a.368.368 0 00-.456-.359zm-18.494 4.708v3.485a1.778 1.778 0 00-1.121-.15 1.791 1.791 0 00.467 3.545c.917-.064 1.663-.918 1.663-1.837v-4.438l3.496-.819v2.382a1.777 1.777 0 00-1.121-.15 1.79 1.79 0 00.466 3.545c.917-.063 1.663-.917 1.663-1.836v-4.855a.398.398 0 00-.491-.387l-4.715 1.126a.4.4 0 00-.307.389zm-10.452 3.193v3.485a1.778 1.778 0 00-1.121-.15 1.791 1.791 0 00.467 3.545c.917-.064 1.663-.918 1.663-1.837v-4.438l3.496-.819v2.382a1.784 1.784 0 00-1.121-.15 1.79 1.79 0 00.466 3.545c.917-.063 1.663-.917 1.663-1.836v-4.855a.398.398 0 00-.491-.387l-4.715 1.126a.402.402 0 00-.307.389zm-10.484 4.162v3.485a1.778 1.778 0 00-1.121-.15 1.791 1.791 0 00.467 3.545c.917-.064 1.663-.918 1.663-1.837v-4.438l3.496-.819v2.382a1.777 1.777 0 00-1.121-.15 1.79 1.79 0 00.466 3.545c.917-.063 1.663-.917 1.663-1.836v-4.855a.398.398 0 00-.492-.387l-4.715 1.126a.401.401 0 00-.306.389z"/><path fill="#9E6212" d="M187.28 166.993v6.737c0 21.347-17.288 29.869-38.635 29.869s-38.635-8.522-38.635-29.869v-6.737c0-1.867.162-3.815.568-5.682l8.279-10.227a50.001 50.001 0 013.896-4.383c-.812-1.38-1.623-2.76-2.273-4.221-1.461-3.247-2.273-6.656-2.273-10.065v-6.737c0-1.786.162-3.409.487-4.951h59.982c.325 1.542.487 3.165.487 4.951v6.737c0 3.409-.812 6.818-2.273 10.065a30.299 30.299 0 01-2.273 4.221c1.948 1.948 5.276 6.331 5.276 6.331l5.925 4.87c.975 3.004 1.462 6.007 1.462 9.091z"/><path fill="#FBBC4B" d="M187.28 166.993c0 21.347-17.288 29.869-38.635 29.869s-38.635-8.522-38.635-29.869c0-1.867.162-3.815.568-5.682 1.38-6.818 5.113-13.392 9.902-18.912 1.217-1.461 1.542-3.49.649-5.195-1.867-3.652-3.003-7.548-3.003-11.526 0-1.786.162-3.409.487-4.951 2.435-13.23 14.935-18.587 30.031-18.587 15.016 0 27.515 5.357 29.95 18.587.325 1.542.487 3.165.487 4.951 0 3.977-1.136 7.873-3.003 11.526-.893 1.704-.568 3.734.649 5.195 3.977 4.626 7.224 9.902 9.009 15.422 1.057 3.085 1.544 6.088 1.544 9.172z"/><path fill="#6B3D07" d="M161.632 167.156h-25.973a.554.554 0 01-.568-.568v-4.708c0-.325.243-.568.568-.568h25.973c.325 0 .568.243.568.568v4.708a.555.555 0 01-.568.568z"/><path fill="#633B0B" d="M161.632 164.964h-25.973a.554.554 0 01-.568-.568v-4.708c0-.325.243-.568.568-.568h25.973c.325 0 .568.243.568.568v4.708a.555.555 0 01-.568.568zm-7.711-86.928h-10.552c-.73 0-1.299-.487-1.38-1.217l-1.948-19.074h17.126l-1.948 19.074c0 .73-.568 1.217-1.298 1.217z"/><path fill="#6B3D07" d="M153.19 74.545v46.265c0 .649-.243 1.217-.487 1.217h-8.117c-.243 0-.487-.568-.487-1.217V74.545c0-.649.244-1.217.487-1.217h8.117c.244 0 .487.568.487 1.217z"/><path fill="#9E6212" d="M148.645 149.299c-9.578 0-17.451-7.792-17.451-17.451s7.792-17.451 17.451-17.451c9.578 0 17.451 7.792 17.451 17.451s-7.873 17.451-17.451 17.451z"/><circle cx="148.645" cy="131.849" r="12.094" fill="#565656"/><path fill="#4C4C4C" d="M148.645 124.868c5.763 0 10.633 4.058 11.769 9.496.162-.812.243-1.704.243-2.516 0-6.656-5.438-12.094-12.094-12.094s-12.094 5.438-12.094 12.094c0 .893.081 1.704.243 2.516 1.3-5.437 6.17-9.496 11.933-9.496z"/><path fill="#9E6212" d="M154.083 53.28h-10.957c-.73 0-1.461.243-2.029.73a3.463 3.463 0 00-1.136 2.841l2.029 17.37a1.402 1.402 0 001.38 1.217h10.633c.649 0 1.299-.487 1.38-1.217l2.029-17.37c.162-1.055-.325-2.11-1.136-2.841a3.568 3.568 0 00-2.193-.73z"/><path fill="#FFF" d="M153.271 81.363h-9.334a.35.35 0 01-.325-.325.35.35 0 01.325-.325h9.334a.35.35 0 01.325.325c.081.163-.081.325-.325.325zm0 4.391h-9.334a.35.35 0 01-.325-.325.35.35 0 01.325-.325h9.334a.35.35 0 01.325.325c.081.163-.081.325-.325.325zm0 4.25h-9.334a.35.35 0 01-.325-.325.35.35 0 01.325-.325h9.334a.35.35 0 01.325.325c.081.162-.081.325-.325.325zm0 4.391h-9.334a.35.35 0 01-.325-.325.35.35 0 01.325-.325h9.334a.35.35 0 01.325.325c.081.162-.081.325-.325.325zm0 4.32h-9.334c-.162 0-.325-.162-.325-.325s.162-.325.325-.325h9.334a.35.35 0 01.325.325c.081.162-.081.325-.325.325z"/></svg>