<svg xmlns="http://www.w3.org/2000/svg" version="1.0" viewBox="0 0 300 300"><ellipse cx="149.998" cy="150" fill="#FFF" rx="149.999" ry="149.999"/><circle cx="150" cy="150" r="140.812" fill="#5EC2D7"/><path fill="#EFEFEF" d="M163.501 148.184c1.179 1.708.578 4.081-1.291 4.984-2.356 1.139-6.216 2.285-12.21 2.285s-9.854-1.146-12.21-2.285c-1.869-.903-2.47-3.276-1.291-4.984L143.531 138h12.938l7.032 10.184z"/><path fill="#E8E8E8" d="M136.828 81.828c6.112 6.112 0 25.908 0 25.908s-3.435 16.343-13.115 16.343c-31.033 0-49.049-45.249-42.304-51.993 7.455-7.455 24.652 9.742 55.419 9.742zm26.344 0c-6.112 6.112 0 25.908 0 25.908s3.435 16.343 13.115 16.343c31.033 0 49.049-45.249 42.304-51.993-7.455-7.455-24.652 9.742-55.419 9.742z"/><path fill="#EFEFEF" d="M164.443 69.106c.01-.552-.011-1.112-.065-1.677-.641-6.73-6.017-12.199-12.737-12.939-8.713-.96-16.086 5.836-16.086 14.355 0 .195.004.39.012.583.26 6.531-1.814 12.885-5.37 18.369a23.46 23.46 0 0 0-3.778 12.804c0 13.024 10.558 40.447 23.581 40.447s23.581-27.423 23.581-40.447c0-4.815-1.443-9.291-3.921-13.022-3.632-5.47-5.334-11.909-5.217-18.473z"/><path fill="#E5E5E5" d="M168.48 102.424c0 10.206-8.274 31.697-18.48 31.697s-18.48-21.491-18.48-31.697 8.274-18.48 18.48-18.48 18.48 8.274 18.48 18.48z"/><path fill="#FAE040" d="M149.594 78.161l-3.987-5.194c-.483-.629-.425-1.532.158-2.071 2.529-2.338 5.941-2.338 8.47 0 .583.539.641 1.441.158 2.071l-3.987 5.194a.512.512 0 0 1-.812 0z"/><path fill="#EACC35" d="M150.543 76.748c-.274.267-.812.267-1.085 0l-3.765-3.668 3.901 5.082a.512.512 0 0 0 .812 0l3.901-5.082-3.764 3.668z"/><path fill="#E59623" d="M192.685 197.69s-7.22-11.526-11.589-17.175c-1.41-1.795-1.701-4.357-.738-6.486 2.022-4.468 3.251-9.232 3.251-14.077v-7.44s-1.458-2.94-2.241-4.825c-1.661-4.001-6.136-5.655-9.477-3.281-2.21 1.57-4.835 2.481-7.653 2.481-7.863 0-14.238-7.084-14.238-15.822-16.623.002-33.598 20.525-33.598 20.525s-.011 6.208-.011 8.361c0 4.834 1.224 9.586 3.237 14.045.962 2.131.684 4.695-.707 6.51l-.006.007c-1.638 2.111-3.165.968-4.539 3.284-1.809 3.05-3.352 6.257-4.53 9.567-.813 2.283-2.531 6.506-2.531 6.506v7.44c0 26.199 19.115 36.689 42.691 36.689 23.564 0 42.678-10.49 42.678-36.689l.001-9.62z"/><path fill="#FFB031" d="M191.029 188.65v-.013c-1.972-6.824-5.564-9.913-9.933-15.563-1.41-1.795-1.701-4.357-.738-6.486 2.022-4.468 3.251-9.232 3.251-14.077 0-2.153-.165-4.175-.493-6.067-.375-2.249-.965-4.312-1.748-6.198-1.661-4.001-6.136-5.655-9.477-3.281-2.21 1.57-4.835 2.481-7.653 2.481-7.863 0-14.238-7.084-14.238-15.822-16.623.002-30.416 6.617-33.116 22.82-.329 1.892-.493 3.914-.493 6.067 0 4.834 1.224 9.586 3.237 14.045.962 2.131.684 4.695-.707 6.51l-.006.007c-5.283 6.811-9.416 11.44-10.955 19.829a38.586 38.586 0 0 0-.646 6.967c0 26.199 19.115 36.689 42.691 36.689 23.564 0 42.678-10.49 42.678-36.689.002-3.795-.596-7.553-1.654-11.219z"/><path fill="#E59623" d="M160.345 95.791l-.81 15.97c-.086 1.464-1.126 2.601-2.38 2.601h-14.407c-1.254 0-2.295-1.137-2.38-2.601l-.826-15.97h20.803z"/><path fill="#FFB031" d="M160.577 87.127c.183.652.254 1.331.21 2.006l-1.251 19.182c-.086 1.464-1.126 2.601-2.38 2.601h-14.407c-1.254 0-2.295-1.137-2.38-2.601l-1.158-16.39a3.458 3.458 0 0 1 1.975-3.372l11.077-5.223c3.348-1.58 7.314.231 8.314 3.797z"/><path fill="#E59623" d="M161.343 201.058h-22.691a.672.672 0 0 1-.672-.672v-4.126c0-.371.301-.672.672-.672h22.691c.371 0 .672.301.672.672v4.126a.672.672 0 0 1-.672.672z"/><path fill="#F2A12C" d="M161.343 199.004h-22.691a.672.672 0 0 1-.672-.672v-4.126c0-.371.301-.672.672-.672h22.691c.371 0 .672.301.672.672v4.126a.672.672 0 0 1-.672.672z"/><path fill="#56370F" d="M165.699 151.897l-.014.012c-1.262-1.359-3.05-2.223-5.051-2.223a6.912 6.912 0 0 0-6.912 6.912c0 1.662.611 3.167 1.588 4.359l-.023.02c.156.156.295.321.438.484.011.01.019.022.029.032 3.52 3.999 3.504 9.849 3.501 15.32v.34c0 .171.016.334.042.489.419 4.646 4.32 8.289 9.075 8.289a9.117 9.117 0 0 0 9.117-9.117c0-11.026-3.805-16.932-11.79-24.917z"/><path fill="#F2A12C" d="M155.462 113.331V148.8c0 .496-.251.887-.57.887h-9.947c-.319 0-.57-.391-.57-.887v-35.469c0-.483.251-.887.57-.887h9.947c.319 0 .57.404.57.887z"/><path fill="#E0E0E0" d="M155.462 113.331v2.949h-11.087v-2.949c0-.483.251-.887.57-.887h9.947c.319 0 .57.404.57.887z"/><path fill="#E59623" d="M149.88 175.803c-8.672 0-15.727-7.055-15.727-15.726s7.055-15.726 15.727-15.726c8.671 0 15.726 7.055 15.726 15.726s-7.055 15.726-15.726 15.726z"/><circle cx="149.88" cy="160.076" r="13.117" fill="#565656"/><path fill="#4C4C4C" d="M149.88 152.485c6.296 0 11.55 4.438 12.82 10.354.191-.892.297-1.814.297-2.763 0-7.244-5.873-13.117-13.117-13.117-7.245 0-13.117 5.873-13.117 13.117 0 .949.106 1.872.297 2.763 1.27-5.916 6.524-10.354 12.82-10.354z"/><path fill="none" stroke="#3F3F3F" stroke-linecap="round" stroke-miterlimit="10" d="M149.998 196.27V94.061"/></svg>