<svg xmlns="http://www.w3.org/2000/svg" xmlns:xlink="http://www.w3.org/1999/xlink" version="1.0" viewBox="0 0 300 300"><circle cx="150" cy="150" r="150" fill="#FFF" transform="rotate(-45.001 149.999 150.002)"/><circle cx="150" cy="150" r="140.812" fill="#5EC2D7"/><path fill="#0A0500" d="M165.981 170.933c0-8.73 4.607-16.49 11.397-20.855v-7.032c0-18.066-14.792-32.858-32.858-32.858h-8.366c-18.066 0-32.858 14.792-32.858 32.858v7.032c6.911 4.486 11.397 12.125 11.397 20.855 0 12.731-9.579 23.158-21.946 24.613a49.557 49.557 0 00-2.789 16.49c0 27.766 24.977 40.618 50.318 40.618s50.318-12.973 50.318-40.618c0-5.699-.97-11.397-2.789-16.49-12.246-1.333-21.824-11.761-21.824-24.613z"/><path fill="#663003" d="M165.981 164.628c0-8.73 4.607-16.49 11.397-20.855v-7.032c0-18.066-14.792-32.858-32.858-32.858h-8.366c-18.066 0-32.858 14.792-32.858 32.858v7.032c6.911 4.486 11.397 12.125 11.397 20.855 0 12.731-9.579 23.158-21.946 24.613a49.557 49.557 0 00-2.789 16.49c0 27.766 24.977 40.618 50.318 40.618s50.318-12.974 50.318-40.618c0-5.699-.97-11.397-2.789-16.49-12.246-1.454-21.824-11.882-21.824-24.613z"/><path fill="#2D1302" d="M148.764 139.166H131.91l3.031-56.986 1.092-20.612h8.487z"/><path fill="#683A02" d="M135.79 82.18h9.943l-1.092-20.612h-8.487l-1.091 20.612h.727z"/><path fill="#0A0500" d="M132.032 139.166h16.853v2.546h-16.853z"/><path fill="#0A0500" d="M132.032 139.166h16.853v2.546h-16.853z"/><path fill="#0A0500" d="M132.032 139.166h16.853v2.546h-16.853z"/><path fill="#0A0500" d="M132.032 139.166h16.853v2.546h-16.853z"/><path fill="#0A0500" d="M132.032 139.166h16.853v2.546h-16.853z"/><path fill="#0A0500" d="M132.032 139.166h16.853v2.546h-16.853z"/><path fill="#0A0500" d="M132.032 139.166h16.853v2.546h-16.853z"/><path fill="#0A0500" d="M132.032 139.166h16.853v2.546h-16.853z"/><path fill="#0A0500" d="M132.032 139.166h16.853v2.546h-16.853z"/><path fill="#0A0500" d="M132.032 139.166h16.853v2.546h-16.853z"/><path fill="#0A0500" d="M132.032 139.166h16.853v2.546h-16.853z"/><path fill="#0A0500" d="M132.032 139.166h16.853v2.546h-16.853z"/><path fill="#0A0500" d="M132.032 139.166h16.853v2.546h-16.853z"/><path fill="#0A0500" d="M132.032 139.166h16.853v2.546h-16.853z"/><path fill="#0A0500" d="M132.032 139.166h16.853v2.546h-16.853z"/><path fill="#0A0500" d="M132.032 139.166h16.853v2.546h-16.853z"/><path fill="#0A0500" d="M132.032 139.166h16.853v2.546h-16.853z"/><path fill="#0A0500" d="M132.032 139.166h16.853v2.546h-16.853z"/><path fill="#0A0500" d="M132.032 139.166h16.853v2.546h-16.853z"/><path fill="#0A0500" d="M132.032 139.166h16.853v2.546h-16.853z"/><path fill="#0A0500" d="M132.032 139.166h16.853v2.546h-16.853z"/><path fill="#0A0500" d="M132.032 139.166h16.853v2.546h-16.853z"/><path fill="#0A0500" d="M132.032 139.166h16.853v2.546h-16.853z"/><path fill="#0A0500" d="M132.032 139.166h16.853v2.546h-16.853z"/><path fill="#0A0500" d="M132.032 139.166h16.853v2.546h-16.853z"/><path fill="#0A0500" d="M132.032 139.166h16.853v2.546h-16.853z"/><path fill="#0A0500" d="M132.032 139.166h16.853v2.546h-16.853z"/><path fill="#0A0500" d="M132.032 139.166h16.853v2.546h-16.853z"/><path fill="#0A0500" d="M132.032 139.166h16.853v2.546h-16.853z"/><path fill="#0A0500" d="M132.032 139.166h16.853v2.546h-16.853z"/><path fill="#0A0500" d="M132.032 139.166h16.853v2.546h-16.853z"/><path fill="#0A0500" d="M132.032 139.166h16.853v2.546h-16.853z"/><path fill="#0A0500" d="M132.032 139.166h16.853v2.546h-16.853z"/><path fill="#0A0500" d="M132.032 139.166h16.853v2.546h-16.853z"/><path fill="#0A0500" d="M132.032 139.166h16.853v2.546h-16.853z"/><path fill="#0A0500" d="M132.032 139.166h16.853v2.546h-16.853z"/><path fill="#0A0500" d="M132.032 139.166h16.853v2.546h-16.853z"/><path fill="#0A0500" d="M132.032 139.166h16.853v2.546h-16.853z"/><path fill="#0A0500" d="M132.032 139.166h16.853v2.546h-16.853z"/><path fill="#0A0500" d="M132.032 139.166h16.853v2.546h-16.853z"/><path fill="#0A0500" d="M132.032 139.166h16.853v2.546h-16.853z"/><path fill="#0A0500" d="M132.032 139.166h16.853v2.546h-16.853z"/><path fill="#0A0500" d="M132.032 139.166h16.853v2.546h-16.853z"/><path fill="#0A0500" d="M132.032 139.166h16.853v2.546h-16.853z"/><path fill="#0A0500" d="M132.032 139.166h16.853v2.546h-16.853z"/><path fill="#0A0500" d="M132.032 139.166h16.853v2.546h-16.853z"/><path fill="#0A0500" d="M132.032 139.166h16.853v2.546h-16.853z"/><path fill="#0A0500" d="M132.032 139.166h16.853v2.546h-16.853z"/><path fill="#0A0500" d="M132.032 139.166h16.853v2.546h-16.853z"/><path fill="#0A0500" d="M132.032 139.166h16.853v2.546h-16.853z"/><path fill="#0A0500" d="M132.032 139.166h16.853v2.546h-16.853z"/><path fill="#0A0500" d="M132.032 139.166h16.853v2.546h-16.853z"/><path fill="#0A0500" d="M132.032 139.166h16.853v2.546h-16.853z"/><path fill="#0A0500" d="M132.032 139.166h16.853v2.546h-16.853z"/><path fill="#0A0500" d="M132.032 139.166h16.853v2.546h-16.853z"/><path fill="#0A0500" d="M132.032 139.166h16.853v2.546h-16.853z"/><path fill="#0A0500" d="M132.032 139.166h16.853v2.546h-16.853z"/><path fill="#0A0500" d="M132.032 139.166h16.853v2.546h-16.853z"/><path fill="#0A0500" d="M132.032 139.166h16.853v2.546h-16.853z"/><path fill="#0A0500" d="M132.032 139.166h16.853v2.546h-16.853z"/><path fill="#0A0500" d="M132.032 139.166h16.853v2.546h-16.853z"/><path fill="#0A0500" d="M132.032 139.166h16.853v2.546h-16.853z"/><path fill="#4C2502" d="M136.033 50.777h8.487v10.791h-8.487z"/><path fill="#4C2502" d="M139.257 47.346h2.04a3.223 3.223 0 013.224 3.224v4.343a3.223 3.223 0 01-3.224 3.224h-2.04a3.223 3.223 0 01-3.224-3.224V50.57a3.223 3.223 0 013.224-3.224z"/><path fill="#0A0500" d="M150.704 160.506c6.426.485 7.032 5.214 7.154 10.549.121 2.91.121 5.82.606 8.609.606 2.91 1.334 4.607 4.244 2.91 2.182-1.334 4.122 2.182 1.94 3.274-4.971 2.91-8.73.606-9.942-4.85-.606-2.91-.606-5.941-.728-8.851-.121-3.031.728-7.517-3.274-7.76-2.547-.122-2.547-4.002 0-3.881zm-20.612 0c2.546-.243 2.546 3.637 0 3.88-4.122.243-3.274 4.85-3.274 7.76-.121 2.91-.243 5.941-.728 8.851-1.091 5.456-4.85 7.76-9.942 4.85-2.182-1.334-.242-4.607 1.94-3.274 3.031 1.697 3.637 0 4.244-2.91.606-2.91.485-5.699.606-8.609.121-5.334.606-10.063 7.154-10.548z"/><g opacity=".349"><defs><path id="a" d="M135.422 60.751h9.898v2.596h-9.898z"/></defs><clipPath id="b"><use overflow="visible" xlink:href="#a"/></clipPath><path fill="#4C2502" d="M136.033 62.901h8.73l-.122-1.333h-8.608v1.333z" clip-path="url(#b)"/></g><path fill="#93918F" d="M147.672 183.058h-14.55c-.606 0-1.212.485-1.212 1.212v3.395c0 .606.485 1.212 1.212 1.212h14.55c.606 0 1.212-.485 1.212-1.212v-3.395c-.12-.727-.605-1.212-1.212-1.212z"/><path fill="#FCFCFC" d="M147.672 182.331h-14.55c-.606 0-1.212.485-1.212 1.212v3.395c0 .606.485 1.212 1.212 1.212h14.55c.606 0 1.212-.485 1.212-1.212v-3.395c-.12-.728-.605-1.212-1.212-1.212z"/><path fill="#F9C900" d="M145.395 185.125l-2.182-122.824.676-.012 2.182 122.824-.676.012zm-10.237-.002l-.676-.008 1.455-122.824.676.008-1.455 122.824zm6.599-.001l-.97-122.824.676-.005.97 122.824-.676.005zm-2.961-.002l-.676-.001.243-122.824.676.001-.243 122.824z"/><path fill="#2D1302" d="M143.308 246.411l2.667-33.222h-11.034l2.667 33.222c.97 0 1.94.121 2.91.121.971.001 1.82-.121 2.79-.121z"/><path fill="#0A0500" d="M137.609 246.411s-24.994.193-38.673-15.921c0 0 23.708-16.733 36.821-7.145l1.852 23.066z"/><path fill="#0A0500" d="M98.936 230.491l-.397 5.85s14.008 16.984 38.675 16.25l.395-6.179"/><path fill="#4C2502" d="M145.905 53.45h-11.069a.628.628 0 01-.626-.626c0-.344.282-.626.626-.626h11.069c.344 0 .626.282.626.626a.628.628 0 01-.626.626zm-.094 6.62h-11.069a.628.628 0 01-.626-.626c0-.344.282-.626.626-.626h11.069c.344 0 .626.282.626.626a.628.628 0 01-.626.626z"/><circle cx="133.285" cy="52.825" r="2.136" fill="#0A0500"/><circle cx="133.285" cy="59.136" r="2.136" fill="#0A0500"/><circle cx="147.456" cy="59.444" r="2.136" fill="#0A0500"/><circle cx="147.456" cy="52.741" r="2.136" fill="#0A0500"/><path fill="#0A0500" d="M208.841 217.609l-1.614 1.535a.715.715 0 01-1.011 0l-.448-.448a.715.715 0 00-1.22.506v5.572c0 .395.32.715.715.715h2.8c.395 0 .715-.32.715-.715l.063-7.165z"/><path fill="#663003" d="M210.014 226.739h-2.017V64.649h2.017z"/><path fill="#663003" d="M208.968 64.647c-.415-.033-4.07-.408-4.704-3.337-.012-.055-.091-.049-.091.007v6.704c0 .045.054.066.081.03.349-.474 1.769-2.185 3.156-.694 1.508 1.62 1.592-2.237 1.596-2.669 0-.023-.014-.039-.038-.041z"/><path fill="#F9C900" d="M203.306 61.28l.882-.007 1.266 160.275-.882.007z"/><path fill="#663003" d="M207.997 226.65v1.28l1.009-1.27 1.008 1.27v-1.28z"/><circle cx="209.006" cy="227.747" r="1.036" fill="#0A0500"/></svg>