<?xml version="1.0" encoding="utf-8"?>
<!-- Generator: Adobe Illustrator 23.0.6, SVG Export Plug-In . SVG Version: 6.00 Build 0)  -->
<svg version="1.1" id="Camada_1" xmlns="http://www.w3.org/2000/svg" xmlns:xlink="http://www.w3.org/1999/xlink" x="0px" y="0px"
	 viewBox="0 0 300 300" style="enable-background:new 0 0 300 300;" xml:space="preserve">
<style type="text/css">
	.st0{fill:#FFFFFF;}
	.st1{fill:#EB595B;}
	.st2{fill:#2D1302;}
	.st3{fill:#663003;}
	.st4{fill:#683A02;}
	.st5{fill:#0A0500;}
	.st6{fill:#4C2502;}
	.st7{opacity:0.35;fill:#4C2502;enable-background:new    ;}
	.st8{fill:#FBBC4B;}
	.st9{fill:#5EC2D7;}
	.st10{fill:#86BF5A;}
	.st11{fill:#FAE040;}
	.st12{fill:#93918F;}
	.st13{fill:#FCFCFC;}
	.st14{fill:none;stroke:#F9C900;stroke-width:0.75;stroke-miterlimit:10;}
</style>
<circle class="st0" cx="150" cy="150" r="150"/>
<circle class="st1" cx="150" cy="150" r="140.8"/>
<path class="st2" d="M171.1,165.8c0-7.2,3.8-13.6,9.4-17.2v-5.8c0-14.9-12.2-27.1-27.1-27.1h-6.9c-14.9,0-27.1,12.2-27.1,27.1v5.8
	c5.7,3.7,9.4,10,9.4,17.2c0,10.5-7.9,19.1-18.1,20.3c-1.5,4.3-2.3,8.8-2.3,13.6c0,22.9,20.6,33.5,41.5,33.5s41.5-10.7,41.5-33.5
	c0-4.7-0.8-9.4-2.3-13.6C179,185,171.1,176.4,171.1,165.8L171.1,165.8z"/>
<path class="st3" d="M171.1,160.6c0-7.2,3.8-13.6,9.4-17.2v-5.8c0-14.9-12.2-27.1-27.1-27.1h-6.9c-14.9,0-27.1,12.2-27.1,27.1v5.8
	c5.7,3.7,9.4,10,9.4,17.2c0,10.5-7.9,19.1-18.1,20.3c-1.5,4.3-2.3,8.8-2.3,13.6c0,22.9,20.6,33.5,41.5,33.5s41.5-10.7,41.5-33.5
	c0-4.7-0.8-9.4-2.3-13.6C179,179.7,171.1,171.1,171.1,160.6L171.1,160.6z"/>
<path class="st2" d="M156.9,139.6h-13.9l2.5-47l0.9-17h7L156.9,139.6z"/>
<path class="st4" d="M146.2,92.6h8.2l-0.9-17h-7l-0.9,17H146.2L146.2,92.6z"/>
<path class="st4" d="M0,0"/>
<path class="st4" d="M0,0"/>
<path class="st4" d="M0,0"/>
<path class="st4" d="M0,0"/>
<g>
	<path class="st5" d="M143.1,139.6h13.9v2.1h-13.9V139.6z"/>
	<path class="st5" d="M143.1,139.6h13.9v2.1h-13.9V139.6z"/>
	<path class="st5" d="M143.1,139.6h13.9v2.1h-13.9V139.6z"/>
	<path class="st5" d="M143.1,139.6h13.9v2.1h-13.9V139.6z"/>
	<path class="st5" d="M143.1,139.6h13.9v2.1h-13.9V139.6z"/>
	<path class="st5" d="M143.1,139.6h13.9v2.1h-13.9V139.6z"/>
	<path class="st5" d="M143.1,139.6h13.9v2.1h-13.9V139.6z"/>
	<path class="st5" d="M143.1,139.6h13.9v2.1h-13.9V139.6z"/>
	<path class="st5" d="M143.1,139.6h13.9v2.1h-13.9V139.6z"/>
	<path class="st5" d="M143.1,139.6h13.9v2.1h-13.9V139.6z"/>
	<path class="st5" d="M143.1,139.6h13.9v2.1h-13.9V139.6z"/>
	<path class="st5" d="M143.1,139.6h13.9v2.1h-13.9V139.6z"/>
	<path class="st5" d="M143.1,139.6h13.9v2.1h-13.9V139.6z"/>
	<path class="st5" d="M143.1,139.6h13.9v2.1h-13.9V139.6z"/>
	<path class="st5" d="M143.1,139.6h13.9v2.1h-13.9V139.6z"/>
	<path class="st5" d="M143.1,139.6h13.9v2.1h-13.9V139.6z"/>
	<path class="st5" d="M143.1,139.6h13.9v2.1h-13.9V139.6z"/>
	<path class="st5" d="M143.1,139.6h13.9v2.1h-13.9V139.6z"/>
	<path class="st5" d="M143.1,139.6h13.9v2.1h-13.9V139.6z"/>
	<path class="st5" d="M143.1,139.6h13.9v2.1h-13.9V139.6z"/>
	<path class="st5" d="M143.1,139.6h13.9v2.1h-13.9V139.6z"/>
	<path class="st5" d="M143.1,139.6h13.9v2.1h-13.9V139.6z"/>
	<path class="st5" d="M143.1,139.6h13.9v2.1h-13.9V139.6z"/>
	<path class="st5" d="M143.1,139.6h13.9v2.1h-13.9V139.6z"/>
	<path class="st5" d="M143.1,139.6h13.9v2.1h-13.9V139.6z"/>
	<path class="st5" d="M143.1,139.6h13.9v2.1h-13.9V139.6z"/>
	<path class="st5" d="M143.1,139.6h13.9v2.1h-13.9V139.6z"/>
	<path class="st5" d="M143.1,139.6h13.9v2.1h-13.9V139.6z"/>
	<path class="st5" d="M143.1,139.6h13.9v2.1h-13.9V139.6z"/>
	<path class="st5" d="M143.1,139.6h13.9v2.1h-13.9V139.6z"/>
	<path class="st5" d="M143.1,139.6h13.9v2.1h-13.9V139.6z"/>
	<path class="st5" d="M143.1,139.6h13.9v2.1h-13.9V139.6z"/>
	<path class="st5" d="M143.1,139.6h13.9v2.1h-13.9V139.6z"/>
	<path class="st5" d="M143.1,139.6h13.9v2.1h-13.9V139.6z"/>
	<path class="st5" d="M143.1,139.6h13.9v2.1h-13.9V139.6z"/>
	<path class="st5" d="M143.1,139.6h13.9v2.1h-13.9V139.6z"/>
	<path class="st5" d="M143.1,139.6h13.9v2.1h-13.9V139.6z"/>
	<path class="st5" d="M143.1,139.6h13.9v2.1h-13.9V139.6z"/>
	<path class="st5" d="M143.1,139.6h13.9v2.1h-13.9V139.6z"/>
	<path class="st5" d="M143.1,139.6h13.9v2.1h-13.9V139.6z"/>
	<path class="st5" d="M143.1,139.6h13.9v2.1h-13.9V139.6z"/>
	<path class="st5" d="M143.1,139.6h13.9v2.1h-13.9V139.6z"/>
	<path class="st5" d="M143.1,139.6h13.9v2.1h-13.9V139.6z"/>
	<path class="st5" d="M143.1,139.6h13.9v2.1h-13.9V139.6z"/>
	<path class="st5" d="M143.1,139.6h13.9v2.1h-13.9V139.6z"/>
	<path class="st5" d="M143.1,139.6h13.9v2.1h-13.9V139.6z"/>
	<path class="st5" d="M143.1,139.6h13.9v2.1h-13.9V139.6z"/>
	<path class="st5" d="M143.1,139.6h13.9v2.1h-13.9V139.6z"/>
	<path class="st5" d="M143.1,139.6h13.9v2.1h-13.9V139.6z"/>
	<path class="st5" d="M143.1,139.6h13.9v2.1h-13.9V139.6z"/>
	<path class="st5" d="M143.1,139.6h13.9v2.1h-13.9V139.6z"/>
	<path class="st5" d="M143.1,139.6h13.9v2.1h-13.9V139.6z"/>
	<path class="st5" d="M143.1,139.6h13.9v2.1h-13.9V139.6z"/>
	<path class="st5" d="M143.1,139.6h13.9v2.1h-13.9V139.6z"/>
	<path class="st5" d="M143.1,139.6h13.9v2.1h-13.9V139.6z"/>
	<path class="st5" d="M143.1,139.6h13.9v2.1h-13.9V139.6z"/>
	<path class="st5" d="M143.1,139.6h13.9v2.1h-13.9V139.6z"/>
	<path class="st5" d="M143.1,139.6h13.9v2.1h-13.9V139.6z"/>
	<path class="st5" d="M143.1,139.6h13.9v2.1h-13.9V139.6z"/>
	<path class="st5" d="M143.1,139.6h13.9v2.1h-13.9V139.6z"/>
	<path class="st5" d="M143.1,139.6h13.9v2.1h-13.9V139.6z"/>
	<path class="st5" d="M143.1,139.6h13.9v2.1h-13.9V139.6z"/>
</g>
<path class="st5" d="M0,0"/>
<path class="st6" d="M146.4,66.7h7v8.9h-7V66.7z"/>
<path class="st5" d="M141.5,157.2c2.1-0.2,2.1,3,0,3.2c-3.4,0.2-2.7,4-2.7,6.4c-0.1,2.4-0.2,4.9-0.6,7.3c-0.9,4.5-4,6.4-8.2,4
	c-1.8-1.1-0.2-3.8,1.6-2.7c2.5,1.4,3,0,3.5-2.4s0.4-4.7,0.5-7.1C135.7,161.5,136.1,157.6,141.5,157.2L141.5,157.2z M158.5,157.2
	c5.3,0.4,5.8,4.3,5.9,8.7c0.1,2.4,0.1,4.8,0.5,7.1c0.5,2.4,1.1,3.8,3.5,2.4c1.8-1.1,3.4,1.8,1.6,2.7c-4.1,2.4-7.2,0.5-8.2-4
	c-0.5-2.4-0.5-4.9-0.6-7.3c-0.1-2.5,0.6-6.2-2.7-6.4C156.4,160.3,156.4,157.1,158.5,157.2L158.5,157.2z"/>
<path class="st7" d="M146.4,76.7h7.2l-0.1-1.1h-7.1V76.7z"/>
<path class="st2" d="M152.4,227.9l2.2-27.4h-9.1l2.2,27.4c0.8,0,1.6,0.1,2.4,0.1S151.6,227.9,152.4,227.9z"/>
<path class="st8" d="M297.1,831.1H114.3c-5.5,0-10-4.5-10-10V638.3c0-5.5,4.5-10,10-10h182.8c5.5,0,10,4.5,10,10v182.8
	C307.1,826.6,302.6,831.1,297.1,831.1z"/>
<path class="st9" d="M751.3,831.1H568.5c-5.5,0-10-4.5-10-10V638.3c0-5.5,4.5-10,10-10h182.8c5.5,0,10,4.5,10,10v182.8
	C761.3,826.6,756.8,831.1,751.3,831.1z"/>
<path class="st10" d="M1205.5,831.1h-182.8c-5.5,0-10-4.5-10-10V638.3c0-5.5,4.5-10,10-10h182.8c5.5,0,10,4.5,10,10v182.8
	C1215.5,826.6,1211,831.1,1205.5,831.1z"/>
<path class="st1" d="M-157.1,831.1h-182.8c-5.5,0-10-4.5-10-10V638.3c0-5.5,4.5-10,10-10h182.8c5.5,0,10,4.5,10,10v182.8
	C-147.1,826.6-151.6,831.1-157.1,831.1L-157.1,831.1z"/>
<path class="st11" d="M-611.3,831.1H-794c-5.5,0-10-4.5-10-10V638.3c0-5.5,4.5-10,10-10h182.8c5.5,0,10,4.5,10,10v182.8
	C-601.3,826.6-605.7,831.1-611.3,831.1z"/>
<path class="st12" d="M156,175.8H144c-0.5,0-1,0.4-1,1v2.8c0,0.5,0.4,1,1,1H156c0.5,0,1-0.4,1-1v-2.8
	C156.9,176.2,156.5,175.8,156,175.8z"/>
<path class="st13" d="M156,175.2H144c-0.5,0-1,0.4-1,1v2.8c0,0.5,0.4,1,1,1H156c0.5,0,1-0.4,1-1v-2.8
	C156.9,175.6,156.5,175.2,156,175.2z"/>
<line class="st14" x1="146.6" y1="76.2" x2="145.4" y2="177.5"/>
<line class="st14" x1="148.6" y1="76.2" x2="148.4" y2="177.5"/>
<line class="st14" x1="150.6" y1="76.2" x2="151.4" y2="177.5"/>
<line class="st14" x1="152.6" y1="76.2" x2="154.4" y2="177.5"/>
</svg>
