<?xml version="1.0" encoding="utf-8"?>
<!-- Generator: Adobe Illustrator 25.0.1, SVG Export Plug-In . SVG Version: 6.00 Build 0)  -->
<svg version="1.0" id="Camada_1" xmlns="http://www.w3.org/2000/svg" xmlns:xlink="http://www.w3.org/1999/xlink" x="0px" y="0px"
	 viewBox="0 0 300 300" enable-background="new 0 0 300 300" xml:space="preserve">
<ellipse fill="#FFFFFF" cx="150" cy="150" rx="150" ry="150"/>
<circle fill="#86BF5A" cx="150" cy="150" r="140.8"/>
<g>
	<path fill="#2D1302" d="M170.659,165.512c0-7.085,3.729-13.35,9.247-16.855v-5.668c0-14.617-11.932-26.55-26.55-26.55h-6.712
		c-14.617,0-26.55,11.932-26.55,26.55v5.668c5.593,3.58,9.247,9.77,9.247,16.855c0,10.292-7.756,18.719-17.75,19.838
		c-1.492,4.177-2.238,8.651-2.238,13.35c0,22.374,20.211,32.814,40.645,32.814s40.645-10.441,40.645-32.814
		c0-4.624-0.82-9.173-2.238-13.35C178.415,184.232,170.659,175.804,170.659,165.512L170.659,165.512z"/>
	<path fill="#663003" d="M170.659,160.367c0-7.085,3.729-13.35,9.247-16.855v-5.668c0-14.617-11.932-26.55-26.55-26.55h-6.712
		c-14.617,0-26.55,11.932-26.55,26.55v5.668c5.593,3.58,9.247,9.77,9.247,16.855c0,10.292-7.756,18.719-17.75,19.838
		c-1.492,4.177-2.238,8.651-2.238,13.35c0,22.374,20.211,32.814,40.645,32.814s40.645-10.441,40.645-32.814
		c0-4.624-0.82-9.173-2.238-13.35C178.415,179.086,170.659,170.658,170.659,160.367L170.659,160.367z"/>
	<polygon fill="#2D1302" points="156.787,139.858 143.215,139.858 145.675,93.842 146.57,77.212 153.431,77.212 	"/>
	<polygon fill="#683A02" points="146.272,93.843 154.327,93.843 153.432,77.213 146.571,77.213 145.676,93.843 146.272,93.843 	"/>
	<path fill="#2D1302" d="M157.533,193.778h-14.99c-0.079,0.001-0.156-0.013-0.23-0.043c-0.074-0.03-0.139-0.073-0.195-0.129
		c-0.056-0.056-0.099-0.121-0.129-0.195c-0.03-0.074-0.044-0.15-0.043-0.23v-4.624c0-0.299,0.224-0.597,0.597-0.597h14.99
		c0.299,0,0.597,0.224,0.597,0.597v4.624C158.055,193.554,157.832,193.778,157.533,193.778z"/>
	<path fill="#472003" d="M157.533,192.361h-14.99c-0.079,0.001-0.156-0.013-0.23-0.043c-0.074-0.03-0.139-0.073-0.195-0.129
		c-0.056-0.056-0.099-0.121-0.129-0.195c-0.03-0.074-0.044-0.15-0.043-0.23v-4.624c0-0.299,0.224-0.597,0.597-0.597h14.99
		c0.299,0,0.597,0.224,0.597,0.597v4.624C158.055,192.137,157.832,192.361,157.533,192.361z"/>
	<path fill="#999999" d="M154.848,170.285h-9.77c-0.248,0.003-0.487-0.043-0.717-0.137c-0.23-0.094-0.432-0.228-0.608-0.404
		s-0.31-0.378-0.404-0.608c-0.094-0.23-0.139-0.468-0.137-0.717v-1.119c0-1.044,0.82-1.865,1.865-1.865h9.77
		c1.044,0,1.865,0.82,1.865,1.865v1.119C156.787,169.465,155.893,170.285,154.848,170.285z"/>
	<path fill="#FFFFFF" d="M154.848,169.465h-9.77c-0.248,0.003-0.487-0.043-0.717-0.137c-0.23-0.094-0.432-0.228-0.608-0.404
		c-0.175-0.175-0.31-0.378-0.404-0.608c-0.094-0.23-0.139-0.468-0.137-0.717v-1.119c0-1.044,0.82-1.865,1.865-1.865h9.77
		c1.044,0,1.865,0.82,1.865,1.865v1.119C156.787,168.57,155.893,169.465,154.848,169.465z"/>
	<rect x="143.215" y="139.858" fill="#0A0500" width="13.573" height="2.088"/>
	<rect x="143.215" y="139.858" fill="#0A0500" width="13.573" height="2.088"/>
	<rect x="143.215" y="139.858" fill="#0A0500" width="13.573" height="2.088"/>
	<rect x="143.215" y="139.858" fill="#0A0500" width="13.573" height="2.088"/>
	<rect x="143.215" y="139.858" fill="#0A0500" width="13.573" height="2.088"/>
	<rect x="143.215" y="139.858" fill="#0A0500" width="13.573" height="2.088"/>
	<rect x="143.215" y="139.858" fill="#0A0500" width="13.573" height="2.088"/>
	<rect x="143.215" y="139.858" fill="#0A0500" width="13.573" height="2.088"/>
	<rect x="143.215" y="139.858" fill="#0A0500" width="13.573" height="2.088"/>
	<rect x="143.215" y="139.858" fill="#0A0500" width="13.573" height="2.088"/>
	<rect x="143.215" y="139.858" fill="#0A0500" width="13.573" height="2.088"/>
	<rect x="143.215" y="139.858" fill="#0A0500" width="13.573" height="2.088"/>
	<rect x="143.215" y="139.858" fill="#0A0500" width="13.573" height="2.088"/>
	<rect x="143.215" y="139.858" fill="#0A0500" width="13.573" height="2.088"/>
	<rect x="143.215" y="139.858" fill="#0A0500" width="13.573" height="2.088"/>
	<rect x="143.215" y="139.858" fill="#0A0500" width="13.573" height="2.088"/>
	<rect x="143.215" y="139.858" fill="#0A0500" width="13.573" height="2.088"/>
	<rect x="143.215" y="139.858" fill="#0A0500" width="13.573" height="2.088"/>
	<rect x="143.215" y="139.858" fill="#0A0500" width="13.573" height="2.088"/>
	<rect x="143.215" y="139.858" fill="#0A0500" width="13.573" height="2.088"/>
	<rect x="143.215" y="139.858" fill="#0A0500" width="13.573" height="2.088"/>
	<rect x="143.215" y="139.858" fill="#0A0500" width="13.573" height="2.088"/>
	<rect x="143.215" y="139.858" fill="#0A0500" width="13.573" height="2.088"/>
	<rect x="143.215" y="139.858" fill="#0A0500" width="13.573" height="2.088"/>
	<rect x="143.215" y="139.858" fill="#0A0500" width="13.573" height="2.088"/>
	<rect x="143.215" y="139.858" fill="#0A0500" width="13.573" height="2.088"/>
	<rect x="143.215" y="139.858" fill="#0A0500" width="13.573" height="2.088"/>
	<rect x="143.215" y="139.858" fill="#0A0500" width="13.573" height="2.088"/>
	<rect x="143.215" y="139.858" fill="#0A0500" width="13.573" height="2.088"/>
	<rect x="143.215" y="139.858" fill="#0A0500" width="13.573" height="2.088"/>
	<rect x="143.215" y="139.858" fill="#0A0500" width="13.573" height="2.088"/>
	<rect x="143.215" y="139.858" fill="#0A0500" width="13.573" height="2.088"/>
	<rect x="143.215" y="139.858" fill="#0A0500" width="13.573" height="2.088"/>
	<rect x="143.215" y="139.858" fill="#0A0500" width="13.573" height="2.088"/>
	<rect x="143.215" y="139.858" fill="#0A0500" width="13.573" height="2.088"/>
	<rect x="143.215" y="139.858" fill="#0A0500" width="13.573" height="2.088"/>
	<rect x="143.215" y="139.858" fill="#0A0500" width="13.573" height="2.088"/>
	<rect x="143.215" y="139.858" fill="#0A0500" width="13.573" height="2.088"/>
	<rect x="143.215" y="139.858" fill="#0A0500" width="13.573" height="2.088"/>
	<rect x="143.215" y="139.858" fill="#0A0500" width="13.573" height="2.088"/>
	<rect x="143.215" y="139.858" fill="#0A0500" width="13.573" height="2.088"/>
	<rect x="143.215" y="139.858" fill="#0A0500" width="13.573" height="2.088"/>
	<rect x="143.215" y="139.858" fill="#0A0500" width="13.573" height="2.088"/>
	<rect x="143.215" y="139.858" fill="#0A0500" width="13.573" height="2.088"/>
	<rect x="143.215" y="139.858" fill="#0A0500" width="13.573" height="2.088"/>
	<rect x="143.215" y="139.858" fill="#0A0500" width="13.573" height="2.088"/>
	<rect x="143.215" y="139.858" fill="#0A0500" width="13.573" height="2.088"/>
	<rect x="143.215" y="139.858" fill="#0A0500" width="13.573" height="2.088"/>
	<rect x="143.215" y="139.858" fill="#0A0500" width="13.573" height="2.088"/>
	<rect x="143.215" y="139.858" fill="#0A0500" width="13.573" height="2.088"/>
	<rect x="143.215" y="139.858" fill="#0A0500" width="13.573" height="2.088"/>
	<rect x="143.215" y="139.858" fill="#0A0500" width="13.573" height="2.088"/>
	<rect x="143.215" y="139.858" fill="#0A0500" width="13.573" height="2.088"/>
	<rect x="143.215" y="139.858" fill="#0A0500" width="13.573" height="2.088"/>
	<rect x="143.215" y="139.858" fill="#0A0500" width="13.573" height="2.088"/>
	<rect x="143.215" y="139.858" fill="#0A0500" width="13.573" height="2.088"/>
	<rect x="143.215" y="139.858" fill="#0A0500" width="13.573" height="2.088"/>
	<rect x="143.215" y="139.858" fill="#0A0500" width="13.573" height="2.088"/>
	<rect x="143.215" y="139.858" fill="#0A0500" width="13.573" height="2.088"/>
	<rect x="143.215" y="139.858" fill="#0A0500" width="13.573" height="2.088"/>
	<rect x="143.215" y="139.858" fill="#0A0500" width="13.573" height="2.088"/>
	<rect x="143.215" y="139.858" fill="#0A0500" width="13.573" height="2.088"/>
	<path fill="#F9FF00" d="M152.462,167.377c-0.08-0.005-0.148-0.037-0.205-0.093c-0.057-0.057-0.088-0.125-0.093-0.205V73.782
		c0-0.149,0.149-0.299,0.299-0.299c0.149,0,0.299,0.149,0.299,0.299v93.298C152.76,167.228,152.612,167.377,152.462,167.377z
		 M150.821,167.377c-0.08-0.005-0.148-0.037-0.205-0.093c-0.057-0.057-0.088-0.125-0.093-0.205V73.782
		c0-0.149,0.149-0.299,0.299-0.299c0.15,0,0.299,0.149,0.299,0.299v93.298C151.12,167.228,150.97,167.377,150.821,167.377z
		 M149.106,167.377c-0.08-0.005-0.148-0.037-0.205-0.093c-0.057-0.057-0.088-0.125-0.093-0.205V73.782
		c0-0.149,0.149-0.299,0.299-0.299c0.149,0,0.299,0.149,0.299,0.299v93.298C149.404,167.228,149.329,167.377,149.106,167.377z
		 M147.466,167.377c-0.08-0.005-0.148-0.037-0.205-0.093c-0.057-0.057-0.088-0.125-0.093-0.205V73.782
		c0-0.149,0.149-0.299,0.299-0.299c0.15,0,0.299,0.149,0.299,0.299v93.298C147.763,167.228,147.614,167.377,147.466,167.377z"/>
	<rect x="146.496" y="68.486" fill="#4C2502" width="6.861" height="8.726"/>
	<path fill="#0A0500" d="M158.279,157.085c5.22,0.373,5.668,4.177,5.817,8.502c0.074,2.312,0.074,4.699,0.522,6.936
		c0.447,2.312,1.044,3.729,3.431,2.312c1.79-1.044,3.356,1.715,1.566,2.685c-4.027,2.386-7.085,0.447-8.054-3.953
		c-0.522-2.312-0.522-4.773-0.597-7.159c-0.074-2.461,0.597-6.041-2.685-6.265C156.266,160.069,156.266,156.937,158.279,157.085
		L158.279,157.085z M141.648,157.085c2.014-0.149,2.014,2.984,0,3.132c-3.281,0.224-2.611,3.878-2.685,6.265
		c-0.074,2.386-0.149,4.773-0.597,7.159c-0.895,4.4-3.953,6.265-8.054,3.953c-1.715-1.044-0.149-3.728,1.566-2.685
		c2.461,1.417,2.984,0,3.431-2.312c0.447-2.312,0.373-4.624,0.522-6.936C135.98,161.262,136.428,157.458,141.648,157.085
		L141.648,157.085z"/>
	<g opacity="0.349" enable-background="new    ">
		<g>
			<defs>
				<rect id="SVGID_1_" x="145.984" y="76.514" width="7.991" height="2.096"/>
			</defs>
			<clipPath id="SVGID_2_">
				<use xlink:href="#SVGID_1_"  overflow="visible"/>
			</clipPath>
			<polygon clip-path="url(#SVGID_2_)" fill="#4C2502" points="146.496,78.256 153.506,78.256 153.432,77.212 146.496,77.212 			"/>
		</g>
	</g>
	<path fill="#2D1302" d="M152.313,226.294l2.162-26.848h-8.95l2.162,26.848c0.746,0,1.566,0.074,2.312,0.074
		S151.567,226.294,152.313,226.294z"/>
</g>
</svg>
