<?xml version="1.0" encoding="utf-8"?>
<!-- Generator: Adobe Illustrator 23.0.0, SVG Export Plug-In . SVG Version: 6.00 Build 0)  -->
<svg version="1.0" id="Camada_1" xmlns="http://www.w3.org/2000/svg" xmlns:xlink="http://www.w3.org/1999/xlink" x="0px" y="0px"
	 viewBox="0 0 300 300" enable-background="new 0 0 300 300" xml:space="preserve">
<g>
	<g>
		
			<ellipse transform="matrix(0.7071 -0.7071 0.7071 0.7071 -62.2337 150.0418)" fill="#FFFFFF" cx="150" cy="150.144" rx="149.847" ry="149.847"/>
		<circle fill="#86BF5A" cx="150" cy="150.144" r="140.668"/>
	</g>
	<g>
		<path fill="#E5CA93" d="M192.896,184.625c0,0-7.256-11.583-11.646-17.26v0c-1.417-1.803-1.71-4.379-0.742-6.518
			c2.032-4.49,3.268-9.277,3.268-14.147c0-2.164,0-7.477,0-7.477s-1.466-2.954-2.252-4.849c-1.669-4.021-6.167-5.683-9.524-3.297
			c-2.221,1.578-4.859,2.493-7.691,2.493c-7.902,0-14.308-7.119-14.308-15.9c-16.705,0.002-33.764,20.627-33.764,20.627
			s-0.011,6.239-0.011,8.403c0,4.858,1.23,9.634,3.253,14.115c0.967,2.142,0.687,4.718-0.711,6.542l-0.006,0.007
			c-1.646,2.122-3.181,0.973-4.561,3.3c-1.818,3.065-3.369,6.288-4.553,9.614c-0.817,2.295-2.544,6.538-2.544,6.538s0,2.891,0,7.477
			c0,26.329,19.209,36.871,42.902,36.871c23.68,0,42.889-10.542,42.889-36.871C192.896,190.479,192.896,184.625,192.896,184.625z"/>
		<path fill="#F2DBA7" d="M191.232,175.541c0-0.013,0-0.013,0-0.013c-1.982-6.858-5.592-9.962-9.982-15.64l0,0
			c-1.417-1.803-1.71-4.379-0.742-6.518c2.032-4.49,3.268-9.277,3.268-14.147c0-2.164-0.166-4.196-0.495-6.097
			c-0.377-2.261-0.97-4.334-1.757-6.229c-1.669-4.021-6.167-5.683-9.524-3.297c-2.221,1.578-4.859,2.493-7.691,2.493
			c-7.902,0-14.308-7.119-14.308-15.9c-16.705,0.002-30.566,6.65-33.28,22.932c-0.331,1.901-0.495,3.934-0.495,6.097
			c0,4.858,1.23,9.634,3.253,14.115c0.967,2.142,0.687,4.718-0.711,6.542l-0.006,0.007c-5.31,6.844-9.462,11.496-11.009,19.927
			c-0.424,2.308-0.649,4.655-0.649,7.002c0,26.329,19.209,36.871,42.902,36.871c23.68,0,42.889-10.542,42.889-36.871
			C192.896,183.002,192.294,179.226,191.232,175.541z"/>
		<path fill="#E5CA93" d="M160.396,82.223l-0.814,16.049c-0.086,1.471-1.131,2.613-2.392,2.613h-14.479
			c-1.261,0-2.306-1.142-2.392-2.613l-0.83-16.049H160.396z"/>
		<path fill="#F2DBA7" d="M160.629,73.516c0.184,0.655,0.255,1.337,0.211,2.016l-1.258,19.277c-0.086,1.471-1.131,2.613-2.392,2.613
			h-14.479c-1.261,0-2.306-1.142-2.392-2.613l-1.164-16.471c-0.101-1.431,0.687-2.777,1.985-3.389l11.131-5.249
			C155.638,68.113,159.624,69.932,160.629,73.516L160.629,73.516z"/>
		<path fill="#D6B67F" d="M161.402,188.011h-22.81c-0.371,0-0.672-0.301-0.672-0.672v-4.153c0-0.371,0.301-0.672,0.672-0.672h22.81
			c0.371,0,0.672,0.301,0.672,0.672v4.153C162.074,187.71,161.773,188.011,161.402,188.011z"/>
		<path fill="#E5CA93" d="M161.402,185.946h-22.81c-0.371,0-0.672-0.301-0.672-0.672v-4.153c0-0.371,0.301-0.672,0.672-0.672h22.81
			c0.371,0,0.672,0.301,0.672,0.672v4.153C162.074,185.646,161.773,185.946,161.402,185.946z"/>
		<path fill="#56370F" d="M165.776,138.606l-0.014,0.012c-1.268-1.366-3.065-2.234-5.076-2.234c-3.837,0-6.946,3.11-6.946,6.946
			c0,1.67,0.614,3.182,1.596,4.38l-0.023,0.02c0.156,0.157,0.296,0.323,0.44,0.486c0.011,0.01,0.019,0.022,0.029,0.032
			c3.537,4.019,3.521,9.898,3.518,15.396v0.001c0,0.001,0,0.002,0,0.002c0,0.113,0,0.227,0,0.339c0,0.172,0.016,0.335,0.042,0.492
			c0.421,4.669,4.341,8.33,9.12,8.33c5.06,0,9.162-4.102,9.162-9.162C177.624,152.566,173.801,146.631,165.776,138.606z"/>
		<path fill="#D6B67F" d="M155.488,99.849v35.644c0,0.498-0.252,0.892-0.573,0.892h-9.996c-0.32,0-0.573-0.393-0.573-0.892V99.849
			c0-0.485,0.252-0.892,0.573-0.892h9.996C155.236,98.958,155.488,99.364,155.488,99.849z"/>
		<path fill="#D6B67F" d="M149.879,162.63c-8.715,0-15.805-7.09-15.805-15.804c0-8.714,7.09-15.804,15.805-15.804
			c8.713,0,15.803,7.09,15.803,15.804C165.682,155.54,158.592,162.63,149.879,162.63z"/>
		<circle fill="#565656" cx="149.879" cy="146.826" r="13.182"/>
		<path fill="#4C4C4C" d="M149.879,139.197c6.327,0,11.607,4.46,12.883,10.405c0.192-0.896,0.299-1.823,0.299-2.777
			c0-7.28-5.902-13.182-13.182-13.182c-7.28,0-13.182,5.902-13.182,13.182c0,0.953,0.106,1.881,0.299,2.777
			C138.272,143.657,143.552,139.197,149.879,139.197z"/>
		<g>
			<path fill="#3F3F3F" d="M146.167,183.698c-0.276,0-0.5-0.224-0.5-0.5V80.484c0-0.276,0.224-0.5,0.5-0.5s0.5,0.224,0.5,0.5
				v102.714C146.667,183.474,146.444,183.698,146.167,183.698z"/>
		</g>
		<g>
			<path fill="#3F3F3F" d="M148.657,183.698c-0.276,0-0.5-0.224-0.5-0.5V80.484c0-0.276,0.224-0.5,0.5-0.5s0.5,0.224,0.5,0.5
				v102.714C149.157,183.474,148.933,183.698,148.657,183.698z"/>
		</g>
		<g>
			<path fill="#3F3F3F" d="M151.146,183.698c-0.276,0-0.5-0.224-0.5-0.5V80.484c0-0.276,0.224-0.5,0.5-0.5s0.5,0.224,0.5,0.5
				v102.714C151.646,183.474,151.423,183.698,151.146,183.698z"/>
		</g>
		<g>
			<path fill="#3F3F3F" d="M153.508,183.698c-0.276,0-0.5-0.224-0.5-0.5V80.484c0-0.276,0.224-0.5,0.5-0.5s0.5,0.224,0.5,0.5
				v102.714C154.008,183.474,153.784,183.698,153.508,183.698z"/>
		</g>
	</g>
</g>
</svg>
