<svg xmlns="http://www.w3.org/2000/svg" version="1.0" viewBox="0 0 300 300"><ellipse cx="150.261" cy="149.9" fill="#FFF" rx="150.1" ry="150.1"/><circle cx="150.261" cy="149.9" r="140.894" fill="#EB595B"/><path fill="#565656" d="M113.236 141.794c-.801 0-1.401-.7-1.401-1.501V64.242c0-.801.6-1.501 1.401-1.501s1.401.7 1.401 1.501v76.051c0 .801-.6 1.501-1.401 1.501z"/><path fill="#FFB031" d="M149.261 83.455c0 2.802-15.711 7.505-35.023 7.505s-35.023-4.703-35.023-7.505 15.711-5.103 35.023-5.103 35.023 2.301 35.023 5.103z"/><path fill="#E28A0C" d="M149.261 83.355c0 2.802-15.711 6.104-35.023 6.104s-35.023-3.302-35.023-6.104 15.61-6.404 35.023-6.404 35.023 3.602 35.023 6.404z"/><path fill="#FFB031" d="M149.261 81.354c0 2.802-15.711 5.103-35.023 5.103s-35.023-2.302-35.023-5.103c0-2.802 22.815-5.704 35.023-5.704 7.404 0 35.023 2.902 35.023 5.704z"/><path fill="#FFB031" d="M129.147 77.051c0 2.201-7.105 3.903-15.811 3.903s-15.811-1.701-15.811-3.903 7.105-5.103 15.811-5.103 15.811 2.901 15.811 5.103z"/><g fill="#565656"><ellipse cx="113.236" cy="66.043" rx="1.401" ry=".5"/><ellipse cx="113.236" cy="71.947" rx="1.401" ry=".3"/><path d="M195.091 171.914c-.3 0-.5-.2-.5-.5v-42.929c0-.3.2-.5.5-.5s.5.2.5.5v42.929c.001.3-.3.5-.5.5z"/></g><path fill="#3F3F3F" d="M196.292 172.415h-1.101c-.1 0-.2-.1-.2-.2v-4.003s1.501.5 1.501.901v3.102c.1.1 0 .2-.2.2z"/><path fill="#4C4C4C" d="M196.392 172.515h-1.201c-.1 0-.2-.1-.2-.2v-3.202c0-.1.1-.2.2-.2h1.201c.1 0 .2.1.2.2v3.202c0 .1-.1.2-.2.2z"/><path fill="#3F3F3F" d="M196.192 130.687h-.901c-.1 0-.2-.1-.2-.2v-4.703s1.301 0 1.301 2.001v2.702c0 .1-.1.2-.2.2z"/><path fill="#4C4C4C" d="M196.192 130.787h-1.001c-.1 0-.1-.1-.1-.1v-2.802c0-.1.1-.1.1-.1h1.001c.1 0 .1.1.1.1v2.802c.1.1 0 .1-.1.1z"/><path fill="#565656" d="M104.931 171.414v-42.929c0-.3.2-.5.5-.5s.5.2.5.5v42.929c0 .3-.2.5-.5.5-.2 0-.5-.2-.5-.5z"/><path fill="#3F3F3F" d="M104.03 172.214v-3.102c0-.4 1.501-.901 1.501-.901v4.003c0 .1-.1.2-.2.2h-1.101c-.2.001-.3-.1-.2-.2z"/><path fill="#4C4C4C" d="M103.93 172.314v-3.202c0-.1.1-.2.2-.2h1.201c.1 0 .2.1.2.2v3.202c0 .1-.1.2-.2.2h-1.201c-.1.001-.2-.099-.2-.2z"/><path fill="#3F3F3F" d="M104.13 130.487v-2.702c0-2.001 1.301-2.001 1.301-2.001v4.703c0 .1-.1.2-.2.2h-.901c-.1 0-.2-.1-.2-.2z"/><path fill="#4C4C4C" d="M104.23 130.687v-2.802s0-.1.1-.1h1.001s.1 0 .1.1v2.802s0 .1-.1.1h-1.001c-.1 0-.2 0-.1-.1z"/><path fill="#EFEFEF" d="M105.131 175.016v-4.703h90.461v4.703c0 9.907-20.214 17.912-45.23 17.912s-45.231-8.105-45.231-17.912z"/><ellipse cx="150.361" cy="168.812" fill="#D6D6D6" rx="45.23" ry="17.912"/><path fill="#FBBC4B" d="M191.989 166.411c0 8.906-18.612 16.211-41.628 16.211s-41.628-7.305-41.628-16.211v-35.624h83.156v11.708l.1 23.916z"/><path fill="#E59623" d="M191.989 130.787v11.708c-6.905 6.404-22.915 10.807-41.628 10.807-18.612 0-34.723-4.503-41.628-10.807v-11.708h83.256z"/><path fill="#EFEFEF" d="M105.131 130.887v-6.805h90.461v6.805c0 9.907-20.214 17.912-45.23 17.912s-45.231-8.106-45.231-17.912z"/><ellipse cx="150.361" cy="124.783" fill="#FFF" rx="45.23" ry="17.912"/><path fill="#565656" d="M150.361 190.126c-.6 0-1.001-.4-1.001-1.001v-43.429c0-.6.4-1.001 1.001-1.001.6 0 1.001.4 1.001 1.001v43.429c0 .601-.4 1.001-1.001 1.001zm30.521-4.703c-.6 0-1.001-.4-1.001-1.001v-43.429c0-.6.4-1.001 1.001-1.001.6 0 1.001.4 1.001 1.001v43.429a1.005 1.005 0 0 1-1.001 1.001zm-60.941 0c-.6 0-1.001-.4-1.001-1.001v-43.429c0-.6.4-1.001 1.001-1.001.6 0 1.001.4 1.001 1.001v43.429c0 .601-.401 1.001-1.001 1.001z"/><path fill="#4C4C4C" d="M152.263 145.396v.7h-3.602v-.7c0-1.001.801-1.801 1.801-1.801.9 0 1.801.801 1.801 1.801z"/><circle cx="150.361" cy="146.097" r="1.801" fill="#606060"/><path fill="#4C4C4C" d="M152.263 188.826v.7h-3.602v-.7c0-1.001.801-1.801 1.801-1.801.9-.001 1.801.8 1.801 1.801z"/><circle cx="150.361" cy="189.526" r="1.801" fill="#606060"/><path fill="#4C4C4C" d="M121.642 140.893c0 .801-1.001 1.801-1.801 1.801s-1.501-.7-1.501-1.601 1.001-1.801 1.801-1.801c.801.1 1.501.701 1.501 1.601z"/><ellipse cx="119.841" cy="141.194" fill="#606060" rx="1.501" ry="1.501"/><path fill="#4C4C4C" d="M121.642 184.523c0 .801-1.001 1.801-1.801 1.801s-1.501-.7-1.501-1.601 1.001-1.801 1.801-1.801c.801.1 1.501.8 1.501 1.601z"/><ellipse cx="119.841" cy="184.823" fill="#606060" rx="1.501" ry="1.501"/><path fill="#4C4C4C" d="M179.381 184.523c0 .801 1.001 1.801 1.801 1.801s1.501-.7 1.501-1.601-1.001-1.801-1.801-1.801-1.501.8-1.501 1.601z"/><ellipse cx="181.182" cy="184.823" fill="#606060" rx="1.501" ry="1.501"/><path fill="#4C4C4C" d="M179.181 140.893c0 .801 1.001 1.801 1.801 1.801s1.501-.7 1.501-1.601-1.001-1.801-1.801-1.801-1.501.701-1.501 1.601z"/><ellipse cx="180.982" cy="141.194" fill="#606060" rx="1.501" ry="1.501"/></svg>