<svg version="1" xmlns="http://www.w3.org/2000/svg" viewBox="0 0 300 300"><path fill="#FFF" d="M149.999 299.999C67.29 299.999 0 232.709 0 150 0 67.29 67.29 0 149.999 0 232.71 0 300 67.29 300 150c0 82.709-67.29 149.999-150.001 149.999"/><path fill="#EB595B" d="M290.812 150c0 77.768-63.045 140.812-140.812 140.812C72.232 290.812 9.188 227.768 9.188 150 9.188 72.232 72.232 9.188 150 9.188c77.768 0 140.812 63.044 140.812 140.812"/><path fill="#E5B36A" d="M160.442 97.545v-2.337l-5.799-19.604h-7.978l-5.798 19.563v2.379c0 .765.14 1.115.613 1.421l1.011.652c.225.145.487.223.755.223h14.816c.268 0 .529-.078.755-.223l1.011-.652c.474-.307.614-.841.614-1.422"/><path fill="#962C2C" d="M158.118 138.566l32.295 81.132v7.929c0 1.306-1.434 1.789-2.834 1.129l-36.924-17.411-36.925 17.411c-1.4.66-2.834-.269-2.834-1.547v-7.607l32.295-81.036c2.492-5.963 12.435-5.963 14.927 0z"/><path fill="#B53E3E" d="M158.118 130.636l32.236 88.743c.41 1.177-1.375 2.108-2.775 1.448l-36.924-17.413-36.925 17.413c-1.4.66-3.185-.272-2.774-1.448l32.236-88.743c2.491-5.962 12.434-5.962 14.926 0z"/><path fill="#FFEEF0" d="M177.847 201.241l-22.126-9.086-5.071-10.64h-19.969a.851.851 0 0 1-.8-1.141l13.312-36.65c2.495-5.965 12.433-5.965 14.927 0l20.59 56.688a.654.654 0 0 1-.863.829z"/><path fill="#DBC8CC" d="M157.171 159.091h-13.027a.492.492 0 0 1-.492-.492v-7.234c0-.27.22-.491.492-.491h13.027c.272 0 .492.22.492.491v7.234a.492.492 0 0 1-.492.492z"/><path fill="#F2DADE" d="M157.171 157.949h-13.027a.491.491 0 0 1-.492-.491v-7.234c0-.272.22-.492.492-.492h13.027c.272 0 .492.22.492.492v7.234a.491.491 0 0 1-.492.491z"/><path fill="#DBC8CC" d="M155.674 166.968h-10.037a1.479 1.479 0 0 1-1.479-1.478v-.883h12.994v.883a1.478 1.478 0 0 1-1.478 1.478z"/><path fill="#F2DADE" d="M155.674 166.086h-10.037a1.479 1.479 0 0 1 0-2.957h10.037a1.478 1.478 0 1 1 0 2.957z"/><path fill="#DBC8CC" d="M157.694 184.614h-14.078a2.075 2.075 0 0 1-2.074-2.074v-1.238h18.226v1.238a2.075 2.075 0 0 1-2.074 2.074z"/><path fill="#F2DADE" d="M157.694 183.376h-14.078a2.074 2.074 0 1 1 0-4.148h14.078a2.074 2.074 0 1 1 0 4.148z"/><path fill="#FFCD7D" d="M160.442 94.031l-5.59-21.982a1.46 1.46 0 0 0-1.415-1.1h-5.565a1.46 1.46 0 0 0-1.415 1.1l-5.59 21.982c-.102.554.14 1.115.613 1.421l1.011.653c.225.145.487.222.755.222h14.816c.268 0 .529-.077.755-.222l1.011-.653c.474-.306.716-.867.614-1.421zm-5.516 5.115v54.319c0 .529-.194.947-.44.947h-7.659c-.245 0-.439-.418-.439-.947V99.146c0-.516.194-.948.439-.948h7.659c.247 0 .44.432.44.948"/><path fill="#C69F61" d="M154.487 98.198h-7.659c-.245 0-.439.432-.439.948v1.604h8.538v-1.604c-.001-.516-.194-.948-.44-.948"/><path fill="#3F3F3F" d="M153.279 181.515V89.79a.656.656 0 0 0-1.312 0v91.725a.656.656 0 0 0 1.312 0m-3.937 0v-97.25a.656.656 0 0 0-1.312 0v97.25a.656.656 0 0 0 1.312 0"/><path fill="#F2DADE" d="M168.756 181.925a2.996 2.996 0 1 1-5.991-.001 2.996 2.996 0 0 1 5.991.001z"/><path fill="#4F4F4F" d="M168.149 181.313v.611a2.39 2.39 0 0 1-4.778 0v-.611c0-.469.135-.905.369-1.275h.558c.405-.315.911-.502 1.462-.502s1.057.187 1.462.502h.558c.236.37.369.806.369 1.275z"/><path fill="#686868" d="M168.149 181.313a2.39 2.39 0 1 1-4.779-.003 2.39 2.39 0 0 1 4.779.003z"/><path fill="#F2DADE" d="M165.76 173.695a2.996 2.996 0 1 1-5.992-.002 2.996 2.996 0 0 1 5.992.002z"/><path fill="#4F4F4F" d="M165.152 173.082v.613a2.39 2.39 0 0 1-4.777 0v-.613c0-.468.133-.904.369-1.274h.558a2.37 2.37 0 0 1 1.462-.502c.551 0 1.057.187 1.461.502h.558c.236.37.369.806.369 1.274z"/><path fill="#686868" d="M165.152 173.082a2.39 2.39 0 1 1-4.779 0 2.39 2.39 0 0 1 4.779 0z"/><path fill="#F2DADE" d="M171.752 190.152a2.997 2.997 0 1 1-5.994 0 2.997 2.997 0 0 1 5.994 0z"/><path fill="#4F4F4F" d="M171.144 189.541v.611a2.39 2.39 0 0 1-4.777 0v-.611c0-.468.133-.905.369-1.274h.558a2.37 2.37 0 0 1 2.923 0h.558c.236.369.369.806.369 1.274z"/><path fill="#686868" d="M171.144 189.541a2.39 2.39 0 1 1-4.779 0 2.39 2.39 0 0 1 4.779 0z"/></svg>