<svg version="1.1" id="main" xmlns="http://www.w3.org/2000/svg" x="0" y="0" viewBox="0 0 604.5 460" xml:space="preserve"><style>.st1{fill:#fff}.st2,.st3{fill:#e5e5e5}.st3{opacity:.2}.st5{fill:#f7f7f7}.st6{fill:#50b6ef}.st17{fill:#e8e8e8}</style><path fill="#5a949e" d="M2723.6-795.9v3.6l-1.9-1.9z"/><path class="st1" d="M524.3 180.9h-75l-.2-.4-37.3-64.8 37.5-65.3h75l.2.4 37.3 64.8-37.5 65.3zm-74-1.7h73l36.5-63.6L523.3 52h-73l-36.5 63.6 36.5 63.6z"/><path class="st1" d="M459.9 51.3c0 5.6-4.5 10.2-10.1 10.2s-10.1-4.6-10.1-10.2 4.5-10.2 10.1-10.2 10.1 4.6 10.1 10.2zM533.8 51.3c0 5.6-4.5 10.2-10.1 10.2s-10.1-4.6-10.1-10.2 4.5-10.2 10.1-10.2 10.1 4.6 10.1 10.2zM571 115.7c0 5.6-4.5 10.2-10.1 10.2s-10.1-4.6-10.1-10.2 4.5-10.2 10.1-10.2 10.1 4.6 10.1 10.2zM533.8 180.1c0 5.6-4.5 10.2-10.1 10.2s-10.1-4.6-10.1-10.2 4.5-10.2 10.1-10.2 10.1 4.6 10.1 10.2zM459.9 180.1c0 5.6-4.5 10.2-10.1 10.2s-10.1-4.6-10.1-10.2 4.5-10.2 10.1-10.2 10.1 4.6 10.1 10.2zM423 115.7c0 5.6-4.5 10.2-10.1 10.2s-10.1-4.6-10.1-10.2 4.5-10.2 10.1-10.2 10.1 4.6 10.1 10.2z"/><g><path class="st1" d="M509.6 153.7h-43.4l-.1-.2-21.5-37.5 21.7-37.7h43.4l.1.2 21.5 37.5-21.7 37.7zm-42.8-1H509l21.1-36.8L509 79.2h-42.2L445.7 116l21.1 36.7z"/><path class="st1" d="M472.4 78.7c0 3.3-2.6 5.9-5.9 5.9-3.2 0-5.9-2.6-5.9-5.9s2.6-5.9 5.9-5.9c3.2 0 5.9 2.7 5.9 5.9zM515.1 78.7c0 3.3-2.6 5.9-5.9 5.9-3.2 0-5.9-2.6-5.9-5.9s2.6-5.9 5.9-5.9c3.3 0 5.9 2.7 5.9 5.9zM536.6 115.9c0 3.3-2.6 5.9-5.9 5.9-3.2 0-5.9-2.6-5.9-5.9 0-3.3 2.6-5.9 5.9-5.9 3.3 0 5.9 2.7 5.9 5.9zM515.1 153.2c0 3.3-2.6 5.9-5.9 5.9-3.2 0-5.9-2.6-5.9-5.9s2.6-5.9 5.9-5.9c3.3 0 5.9 2.6 5.9 5.9zM472.4 153.2c0 3.3-2.6 5.9-5.9 5.9-3.2 0-5.9-2.6-5.9-5.9s2.6-5.9 5.9-5.9c3.2 0 5.9 2.6 5.9 5.9zM451 115.9c0 3.3-2.6 5.9-5.9 5.9-3.2 0-5.9-2.6-5.9-5.9 0-3.3 2.6-5.9 5.9-5.9 3.2 0 5.9 2.7 5.9 5.9z"/></g><g><path class="st2" d="M156.9 152.1c.1-1 .4-2 .8-2.9-.4.9-.6 1.9-.8 2.9zM157.7 149.2c.5-1.3 1.3-2.4 2.2-3.4-.9 1-1.6 2.2-2.2 3.4z"/><path class="st2" d="M512.3 352.8v10.6c0 7.9-5.6 14.3-12.6 14.3H139.2c-7 0-12.6-6.4-12.6-14.3v-10.6h30.2V153.9c0-.4 0-.8.1-1.2 0-.2 0-.4.1-.6.2-1 .4-1.9.8-2.9.5-1.3 1.3-2.4 2.2-3.4l.4-.4c.3-.3.6-.5.8-.8.3-.2.6-.4.9-.7.3-.2.7-.5 1-.6.7-.4 1.4-.7 2.2-.9.8-.2 1.5-.4 2.4-.5.4 0 .8-.1 1.2-.1h302.2c1.1 0 2.2.2 3.3.5.1 0 .2 0 .3.1 2 .6 3.7 1.6 5 3.2 2 2.2 3.3 5.1 3.3 8.3v198.9h29.3z"/><path class="st3" d="M163.1 143.3zM167.6 141.9c-.8.1-1.6.2-2.4.5.8-.3 1.6-.4 2.4-.5z"/><g><path class="st1" d="M164.6 353V153.9c0-6.7 5.4-12 12-12h301.9c6.7 0 12 5.4 12 12V353H164.6z"/><path class="st1" d="M134.4 352.8h385.7v10.6H134.4z"/><path class="st1" d="M520.1 363.4c0 7.9-5.6 14.2-12.6 14.2H147c-7 0-12.6-6.4-12.6-14.2h385.7z"/><path class="st2" d="M292.3 352.8v1.8c0 3.3 5.6 6.6 12.6 6.6H327v-8.4h-34.7zM327 352.8v8.4h22c7 0 12.6-3.3 12.6-6.6v-1.8H327z"/></g><path d="M476 352.8H179.9V164c0-2.6 2.2-4.8 4.8-4.8h286.4c2.6 0 4.8 2.2 4.8 4.8.4.4.3 133.6.1 188.8z" fill="#d4d4d4"/><path class="st5" d="M470.8 353.2H184.6v-184c0-2.6 2.1-4.7 4.6-4.7h276.9c2.5 0 4.6 2.1 4.6 4.7.3.3.2 130.1.1 184z"/></g><g><path class="st2" d="M202.2 98.3h259v236.1h-259z"/><path class="st1" d="M197.4 94h259v236.1h-259z"/><path class="st1" d="M199 116.4h2.7v2.9H199z"/></g><g><path class="st1" d="M463.6 388.6v18.7c.1 6.4 17.8 11.5 39.7 11.5 21.9 0 39.7-5.1 39.7-11.5v-18.7h-79.4z"/><ellipse class="st1" cx="503.3" cy="388.6" rx="39.7" ry="11.5"/><path class="st6" d="M465.7 378v8c.1 6 16.9 10.9 37.7 10.9 20.8 0 37.6-4.9 37.7-10.9v-8h-75.4z"/><ellipse cx="503.3" cy="378" rx="37.7" ry="10.9" fill="#06b4e9"/><path class="st1" d="M463.6 358.7v18.7c.1 6.4 17.8 11.5 39.7 11.5 21.9 0 39.7-5.1 39.7-11.5v-18.7h-79.4z"/><ellipse class="st1" cx="503.3" cy="358.7" rx="39.7" ry="11.5"/><path class="st6" d="M465.7 348.1v8c.1 6 16.9 10.9 37.7 10.9 20.8 0 37.6-4.9 37.7-10.9v-8h-75.4z"/><path class="st1" d="M463.6 328.7v18.7c.1 6.4 17.8 11.5 39.7 11.5 21.9 0 39.7-5.1 39.7-11.5v-18.7h-79.4z"/><ellipse cx="503.3" cy="328.7" rx="39.7" ry="11.5" fill="#e1ecee"/></g><g><path fill="#e89282" d="M237.8 238.5h35.1V295h-35.1z"/><path fill="#f4ca60" d="M286.5 204.2h35.1V295h-35.1z"/><path class="st6" d="M335.1 182.1h35.1V295h-35.1z"/><path fill="#2fb78f" d="M383.7 118.3h35.1V295h-35.1z"/><path fill="#dfeaea" d="M228.5 295h196.9v13.1H228.5z"/></g><g><path class="st5" d="M146.4 393.4H41.5c-1.9 0-3.4-1.5-3.4-3.4v-52.8c0-1.9 1.5-3.4 3.4-3.4h104.8c1.9 0 3.4 1.5 3.4 3.4V390c0 1.9-1.5 3.4-3.3 3.4z"/><path d="M49.4 377.2c0 3.5 2.8 6.3 6.3 6.3s6.3-2.8 6.3-6.3v-41.8H49.4v41.8z" fill="#8cb6dc"/><path class="st1" d="M65.4 302.1c0-.8-.6-1.4-1.4-1.4H47.4c-.8 0-1.4.6-1.4 1.4 0 .7.5 1.2 1.1 1.4v75c0 4.7 3.8 8.6 8.6 8.6 4.7 0 8.6-3.8 8.6-8.6v-75c.6-.2 1.1-.7 1.1-1.4zM62 377.2c0 3.5-2.8 6.3-6.3 6.3s-6.3-2.8-6.3-6.3v-41.8H62v41.8zM90.5 302.1c0-.8-.6-1.4-1.4-1.4H72.5c-.8 0-1.4.6-1.4 1.4 0 .7.5 1.2 1.1 1.4v75c0 4.7 3.8 8.6 8.6 8.6 4.7 0 8.6-3.8 8.6-8.6v-75c.6-.2 1.1-.7 1.1-1.4z"/><path d="M74.5 368.3v8.9c0 3.5 2.8 6.3 6.3 6.3s6.3-2.8 6.3-6.3v-8.9H74.5z" fill="#fcf463"/><g><path class="st1" d="M115.4 302.1c0-.8-.6-1.4-1.4-1.4H97.4c-.8 0-1.4.6-1.4 1.4 0 .7.5 1.2 1.1 1.4v75c0 4.7 3.8 8.6 8.6 8.6 4.7 0 8.6-3.8 8.6-8.6v-75c.6-.2 1.1-.7 1.1-1.4z"/><path d="M99.4 341.5v35.7c0 3.5 2.8 6.3 6.3 6.3s6.3-2.8 6.3-6.3v-35.7H99.4z" fill="#7670ce"/></g><g><path class="st1" d="M141 302.1c0-.8-.6-1.4-1.4-1.4h-16.5c-.8 0-1.4.6-1.4 1.4 0 .7.5 1.2 1.1 1.4v75c0 4.7 3.8 8.6 8.6 8.6 4.7 0 8.6-3.8 8.6-8.6v-75c.5-.2 1-.7 1-1.4z"/><path d="M125 358.5v18.8c0 3.5 2.8 6.3 6.3 6.3s6.3-2.8 6.3-6.3v-18.8H125z" fill="#ffb74b"/></g><path class="st17" d="M150.6 337.9H36.2c-1.5 0-2.7-1.2-2.7-2.7v-2.7c0-1.5 1.2-2.7 2.7-2.7h114.4c1.5 0 2.7 1.2 2.7 2.7v2.7c-.1 1.5-1.3 2.7-2.7 2.7zM150.6 397.5H36.2c-1.5 0-2.7-1.2-2.7-2.7v-2.7c0-1.5 1.2-2.7 2.7-2.7h114.4c1.5 0 2.7 1.2 2.7 2.7v2.7c-.1 1.5-1.3 2.7-2.7 2.7z"/></g></svg>