<svg id="main" xmlns="http://www.w3.org/2000/svg" viewBox="0 0 604.5 460"><style>.st0{fill:none}.st1{fill:#e5e5e5}.st2{fill:#f4ca60}.st3{fill:#825ead}.st4{fill:#fff}.st5{fill:#ffdb79}.st6{fill:#50b6ef}.st7{fill:#f2eeee}.st8{fill:#e89282}.st11{fill:#dbdbdb}</style><path class="st0" d="M216.7 140.4v-3m0 9.1v-3.1"/><path class="st1" d="M258.6 129.8h2.2v27.1h-43.4v-27.1h2.1V119c-14.2-7.2-23.8-21.8-23.8-38.7 0-23.8 19.1-43 42.7-43.3h.6c23.9 0 43.4 19.5 43.4 43.4 0 16.9-9.8 31.7-23.8 38.7v10.5h-.1l.1.2z"/><path class="st2" d="M262.2 128.5v.3h-39V118c-14.2-7.2-23.8-21.8-23.8-38.7 0-23.8 19.1-43 42.7-43.3v45H227v2h15.1v45.7h20.1v-.2z"/><path class="st2" d="M227.1 80.9h15.1v1.9h-15.1z"/><path class="st3" d="M221 128.8h43.3v27.1H221z"/><path class="st4" d="M235.4 82.8h1.9v46h-1.9zm12.7 0h1.9v46h-1.9z"/><path class="st4" d="M227.1 80.9h31.2v1.9h-31.2z"/><path class="st0" d="M219 137.9v-3.1m0 9.1v-3"/><path class="st5" d="M286.1 79.5c0 16.9-9.8 31.7-23.8 38.7v10.5h-20.2 20.1v.1h-39v-10.7c-14.2-7.2-23.8-21.8-23.8-38.7 0-23.8 19.1-43 42.7-43.3h.6c23.9 0 43.4 19.5 43.4 43.4z"/><path class="st6" d="M221.1 128.8h43.3v27.1h-43.3z"/><path class="st4" d="M234.7 82.8h1.9v46h-1.9zm12.8 0h1.9v46h-1.9z"/><path class="st4" d="M226.4 81.3h30.2v1.6h-30.2z"/><path class="st3" d="M267.7 156.5h27.7v7.3h-27.7z"/><path class="st3" d="M267.7 156.5h27.7v7.3h-27.7z"/><g id="XMLID_14_"><path class="st1" d="M553.1 129.4v214.7c0 .1-.1.2-.2.2h-40c-.1 0-.2-.1-.2-.2V129.4c0-.1.1-.2.2-.2h40c.1.1.2.1.2.2z" id="XMLID_34_"/></g><g id="XMLID_8_"><g id="XMLID_12_"><path class="st1" d="M494.4 151.7v123.8h-28.8V151.7l5.9-9.2 7.5-11.6c.5-1.1 2-1.1 2.5 0l7.2 11.6 5.7 9.2z"/><path class="st1" d="M477.4 275.4h5.1v1.3h-5.1z"/></g></g><g id="XMLID_5_"><g id="XMLID_6_"><path class="st1" d="M88.4 218.1v62.5H51.3v-62.5c0-.6.4-1.1.8-1.1h4.4l-7.8-35.8c10-11.6 13.8-27.8 13.8-27.8h5v-.1h4.6v.1h5s3.8 16.3 13.8 27.8l-7 35.8h3.7c.5 0 .8.5.8 1.1z" id="XMLID_7_"/></g></g><path class="st7" d="M148.6 417.8c.5 0 1-.4 1-1V273.3c0-.5-.4-1-1-1H5.7c-.5 0-1 .4-1 1v143.6c0 .5.4 1 1 1h142.9v-.1z" id="XMLID_2_"/><path class="st4" d="M153.4 413.5c.5 0 1-.4 1-1V269c0-.5-.4-1-1-1h-143c-.5 0-1 .4-1 1v143.6c0 .5.4 1 1 1h143v-.1z" id="XMLID_642_"/><path class="st4" d="M15.5 299.8h132.7V407H15.5z"/><g id="XMLID_148_"><path class="st4" d="M60.9 217.3L53 181.2c10-11.6 13.8-27.8 13.8-27.8h14.7s3.8 16.3 13.8 27.8l-7.2 36.1H60.9z" id="XMLID_272_"/><path class="st5" d="M91.9 217H56.5c-.5 0-.8.5-.8 1.1v62.5h37.1v-62.5c-.1-.6-.4-1.1-.9-1.1z" id="XMLID_268_"/><g id="XMLID_151_"><g id="XMLID_176_"><path id="XMLID_1248_" class="st1" d="M71.9 153.2h4.6v33.6h-4.6z"/></g><g id="XMLID_175_"><path id="XMLID_1245_" class="st1" d="M74.2 199.3c-4.1 0-7.4-3.3-7.4-7.4 0-4.1 3.3-7.4 7.4-7.4s7.4 3.3 7.4 7.4-3.3 7.4-7.4 7.4zm0-10.1c-1.5 0-2.8 1.2-2.8 2.8 0 1.5 1.2 2.8 2.8 2.8 1.5 0 2.8-1.2 2.8-2.8s-1.3-2.8-2.8-2.8z"/></g></g></g><path class="st4" d="M153.4 293.4c.5 0 1-.1 1-.2v-25c0-.1-.4-.2-1-.2h-143c-.5 0-1 .1-1 .2v25c0 .1.4.2 1 .2h143z" id="XMLID_426_"/><g id="XMLID_550_"><path class="st8" d="M93 346.4c0 11.1-9 20.2-20.2 20.2-11.1 0-20.2-9-20.2-20.2 0-11.1 9-20.2 20.2-20.2 11.1.1 20.2 9.1 20.2 20.2z" id="XMLID_618_"/><g id="XMLID_617_"><path id="XMLID_1232_" class="st8" d="M72.8 368.8c-12.3 0-22.3-10-22.3-22.3s10-22.3 22.3-22.3 22.3 10 22.3 22.3-10 22.3-22.3 22.3zm0-40.4c-9.9 0-18 8.1-18 18s8.1 18 18 18 18-8.1 18-18-8.1-18-18-18z"/></g><g id="XMLID_616_"><path id="XMLID_1229_" class="st8" d="M50.9 323.7H38.7v-12.2h12.2v12.2zm-7.9-4.3h3.6v-3.6H43v3.6z"/></g><g id="XMLID_615_"><path id="XMLID_1226_" class="st8" d="M106.8 323.7H94.6v-12.2h12.2v12.2zm-7.9-4.3h3.6v-3.6h-3.6v3.6z"/></g><g id="XMLID_614_"><path id="XMLID_1223_" class="st8" d="M50.9 379.6H38.7v-12.2h12.2v12.2zm-7.9-4.3h3.6v-3.6H43v3.6z"/></g><g id="XMLID_613_"><path id="XMLID_1220_" class="st8" d="M106.8 379.6H94.6v-12.2h12.2v12.2zm-7.9-4.3h3.6v-3.6h-3.6v3.6z"/></g><g id="XMLID_605_"><g id="XMLID_612_"><path id="XMLID_1219_" class="st8" d="M51.1 371.9H55v4.3h-3.9z"/></g><g id="XMLID_611_"><path id="XMLID_1218_" class="st8" d="M57.9 371.9h3.9v4.3h-3.9z"/></g><g id="XMLID_610_"><path id="XMLID_1217_" class="st8" d="M64.6 371.9h4v4.3h-4z"/></g><g id="XMLID_609_"><path id="XMLID_1216_" class="st8" d="M71.4 371.9h3.9v4.3h-3.9z"/></g><g id="XMLID_608_"><path id="XMLID_1215_" class="st8" d="M78.1 371.9h4v4.3h-4z"/></g><g id="XMLID_607_"><path id="XMLID_1214_" class="st8" d="M84.9 371.9h3.9v4.3h-3.9z"/></g><g id="XMLID_606_"><path id="XMLID_1213_" class="st8" d="M91.6 371.9h3.9v4.3h-3.9z"/></g></g><g id="XMLID_597_"><g id="XMLID_604_"><path id="XMLID_1212_" class="st8" d="M51.1 315.1H55v4.3h-3.9z"/></g><g id="XMLID_603_"><path id="XMLID_1211_" class="st8" d="M57.9 315.1h3.9v4.3h-3.9z"/></g><g id="XMLID_602_"><path id="XMLID_1210_" class="st8" d="M64.6 315.1h4v4.3h-4z"/></g><g id="XMLID_601_"><path id="XMLID_1209_" class="st8" d="M71.4 315.1h3.9v4.3h-3.9z"/></g><g id="XMLID_600_"><path id="XMLID_1208_" class="st8" d="M78.1 315.1h4v4.3h-4z"/></g><g id="XMLID_599_"><path id="XMLID_1207_" class="st8" d="M84.9 315.1h3.9v4.3h-3.9z"/></g><g id="XMLID_598_"><path id="XMLID_1206_" class="st8" d="M91.6 315.1h3.9v4.3h-3.9z"/></g></g><g id="XMLID_589_"><g id="XMLID_596_"><path id="XMLID_1205_" class="st8" d="M43.2 363.5h4.3v3.9h-4.3z"/></g><g id="XMLID_595_"><path id="XMLID_1204_" class="st8" d="M43.2 356.8h4.3v3.9h-4.3z"/></g><g id="XMLID_594_"><path id="XMLID_1203_" class="st8" d="M43.2 350h4.3v3.9h-4.3z"/></g><g id="XMLID_593_"><path id="XMLID_1202_" class="st8" d="M43.2 343.3h4.3v4h-4.3z"/></g><g id="XMLID_592_"><path id="XMLID_1201_" class="st8" d="M43.2 336.5h4.3v3.9h-4.3z"/></g><g id="XMLID_591_"><path id="XMLID_1200_" class="st8" d="M43.2 329.8h4.3v3.9h-4.3z"/></g><g id="XMLID_590_"><path id="XMLID_1199_" class="st8" d="M43.2 323h4.3v3.9h-4.3z"/></g></g><g id="XMLID_565_"><g id="XMLID_588_"><path id="XMLID_1198_" class="st8" d="M98.4 363.5h4.3v3.9h-4.3z"/></g><g id="XMLID_587_"><path id="XMLID_1197_" class="st8" d="M98.4 356.8h4.3v3.9h-4.3z"/></g><g id="XMLID_586_"><path id="XMLID_1196_" class="st8" d="M98.4 350h4.3v3.9h-4.3z"/></g><g id="XMLID_585_"><path id="XMLID_1195_" class="st8" d="M98.4 343.3h4.3v4h-4.3z"/></g><g id="XMLID_570_"><path id="XMLID_1194_" class="st8" d="M98.4 336.5h4.3v3.9h-4.3z"/></g><g id="XMLID_569_"><path id="XMLID_1193_" class="st8" d="M98.4 329.8h4.3v3.9h-4.3z"/></g><g id="XMLID_567_"><path id="XMLID_1192_" class="st8" d="M98.4 323h4.3v3.9h-4.3z"/></g></g></g><circle class="st8" cx="20.3" cy="280" r="3.2"/><ellipse transform="rotate(-88.939 29.9 280) scale(.99997)" class="st5" cx="29.9" cy="280" rx="3.2" ry="3.2"/><circle cx="39.4" cy="280" r="3.2" fill="#83e588"/><path class="st7" d="M423.5 377.4h-291c-.1 0-.2-.1-.2-.2V156.6c0-.1.1-.2.2-.2h291c.1 0 .2.1.2.2v220.6c0 .1-.1.2-.2.2z" id="XMLID_1_"/><g id="XMLID_224_"><path class="st4" d="M498.4 151.7v123.8h-28.8V151.7l5.9-9.2 7.5-11.6c.5-1.1 2-1.1 2.5 0l7.2 11.6 5.7 9.2z" id="XMLID_266_"/><path d="M492.7 142.4h-17.2l7.5-11.6c.5-1.1 2-1.1 2.5 0l7.2 11.6z" fill="#a759ff" id="XMLID_215_"/><path class="st1" d="M481.5 153.1h5.1v123.6h-5.1z" id="XMLID_423_"/></g><g id="XMLID_222_"><path class="st4" d="M556.5 126.9v214.7c0 .1-.1.2-.2.2h-40c-.1 0-.2-.1-.2-.2V126.9c0-.1.1-.2.2-.2h40c.1 0 .2.1.2.2z" id="XMLID_265_"/><g id="XMLID_177_"><g id="XMLID_190_"><path id="XMLID_1257_" class="st8" d="M515.2 318.6h16.6v5.1h-16.6z"/></g><g id="XMLID_185_"><path id="XMLID_1256_" class="st8" d="M515.2 297.1h16.6v5.1h-16.6z"/></g><g id="XMLID_184_"><path id="XMLID_1255_" class="st8" d="M515.2 275.6h16.6v5.1h-16.6z"/></g><g id="XMLID_183_"><path id="XMLID_1254_" class="st8" d="M516.1 254.1h15.6v5.1h-15.6z"/></g><g id="XMLID_182_"><path id="XMLID_1253_" class="st8" d="M516.1 232.6h15.6v5.1h-15.6z"/></g><g id="XMLID_181_"><path id="XMLID_1252_" class="st8" d="M516.1 211.1h15.6v5.1h-15.6z"/></g><g id="XMLID_180_"><path id="XMLID_1251_" class="st8" d="M516.1 189.6h15.6v5.1h-15.6z"/></g><g id="XMLID_179_"><path id="XMLID_1250_" class="st8" d="M516.1 168.1h15.6v5.1h-15.6z"/></g><g id="XMLID_178_"><path id="XMLID_1249_" class="st8" d="M516.1 146.6h15.6v5.1h-15.6z"/></g></g></g><path class="st4" d="M429.3 373.1h-291c-.1 0-.2-.1-.2-.2V152.2c0-.1.1-.2.2-.2h291c.1 0 .2.1.2.2v220.6c0 .2-.1.3-.2.3z" id="XMLID_541_"/><path class="st4" d="M397.3 348.8h-204c-.1 0-.2-.1-.2-.2V176.5c0-.1.1-.2.2-.2h204c.1 0 .2.1.2.2v172.2s-.1.1-.2.1z" id="XMLID_538_"/><g id="XMLID_83_"><path id="XMLID_1170_" class="st1" d="M400.1 352.9H190.5V173.8h209.6v179.1zm-204.5-5.2h199.3V178.9H195.6v168.8z"/></g><g id="XMLID_82_"><path id="XMLID_1169_" class="st1" d="M190.5 152h5.1v221h-5.1z"/></g><g id="XMLID_81_"><path id="XMLID_1168_" class="st1" d="M162.3 294.8h5.1V345h-5.1z"/></g><g id="XMLID_80_"><path id="XMLID_1167_" class="st1" d="M162.3 186.8h5.1V237h-5.1z"/></g><g id="XMLID_78_"><path id="XMLID_19_" class="st6" d="M219.9 216.7h-5.1v-23.2h20.9v5.1h-15.8z"/></g><g id="XMLID_77_"><path id="XMLID_20_" class="st6" d="M376.9 331.6H356v-5.1h15.7v-18.1h5.2z"/></g><g id="XMLID_73_"><path id="XMLID_1159_" class="st1" d="M164.9 280.5c-7.6 0-13.8-6.2-13.8-13.8 0-7.6 6.2-13.8 13.8-13.8s13.8 6.2 13.8 13.8c0 7.6-6.2 13.8-13.8 13.8zm0-22.5c-4.8 0-8.7 3.9-8.7 8.7 0 4.8 3.9 8.7 8.7 8.7s8.7-3.9 8.7-8.7c-.1-4.8-4-8.7-8.7-8.7z"/></g><g id="XMLID_3_"><path class="st7" d="M383.4 273.8h212.1V424H383.4z" id="XMLID_4_"/></g><g id="XMLID_549_"><path class="st4" d="M599.4 418.3H388.1c-.2 0-.3-.2-.3-.3V268.5c0-.2.2-.3.3-.3h211.4c.2 0 .3.2.3.3V418c0 .2-.2.3-.4.3z" id="XMLID_583_"/><path class="st4" d="M531.8 268.2h68v150.2h-68z" id="XMLID_581_"/><path class="st1" d="M531.8 329.4h68v37.7h-68z" id="XMLID_579_"/><path class="st11" d="M387.7 268.2h18.4v150.2h-18.4z" id="XMLID_578_"/><path class="st11" d="M387.7 283.9h212.1v10.6H387.7z" id="XMLID_575_"/><path class="st4" d="M387.7 268.2h212.1v15.7H387.7z" id="XMLID_572_"/><path class="st4" d="M395.2 300.5h4.7v4.7h-4.7z" id="XMLID_548_"/><path class="st1" d="M535.3 298.2h4.7v4.7h-4.7z" id="XMLID_540_"/><path class="st1" d="M542.5 298.2h4.7v4.7h-4.7z" id="XMLID_536_"/><path class="st1" d="M549.6 298.2h4.7v4.7h-4.7z" id="XMLID_527_"/><path class="st1" d="M556.8 298.2h4.7v4.7h-4.7z" id="XMLID_525_"/><path class="st1" d="M564 298.2h4.7v4.7H564z" id="XMLID_523_"/><path class="st1" d="M571.2 298.2h4.7v4.7h-4.7z" id="XMLID_522_"/><path class="st1" d="M578.4 298.2h4.7v4.7h-4.7z" id="XMLID_521_"/><path class="st1" d="M585.6 298.2h4.7v4.7h-4.7z" id="XMLID_520_"/><g id="XMLID_508_"><path class="st1" d="M535.3 305.1h4.7v4.7h-4.7z" id="XMLID_518_"/><path class="st1" d="M542.5 305.1h4.7v4.7h-4.7z" id="XMLID_516_"/><path class="st1" d="M549.6 305.1h4.7v4.7h-4.7z" id="XMLID_515_"/><path class="st1" d="M556.8 305.1h4.7v4.7h-4.7z" id="XMLID_514_"/><path class="st1" d="M564 305.1h4.7v4.7H564z" id="XMLID_513_"/><path class="st1" d="M571.2 305.1h4.7v4.7h-4.7z" id="XMLID_512_"/><path class="st1" d="M578.4 305.1h4.7v4.7h-4.7z" id="XMLID_511_"/><path class="st1" d="M585.6 305.1h4.7v4.7h-4.7z" id="XMLID_510_"/></g><g id="XMLID_492_"><path class="st1" d="M535.3 311.7h4.7v4.7h-4.7z" id="XMLID_507_"/><path class="st1" d="M542.5 311.7h4.7v4.7h-4.7z" id="XMLID_505_"/><path class="st1" d="M549.6 311.7h4.7v4.7h-4.7z" id="XMLID_504_"/><path class="st1" d="M556.8 311.7h4.7v4.7h-4.7z" id="XMLID_501_"/><path class="st1" d="M564 311.7h4.7v4.7H564z" id="XMLID_500_"/><path class="st1" d="M571.2 311.7h4.7v4.7h-4.7z" id="XMLID_497_"/><path class="st1" d="M578.4 311.7h4.7v4.7h-4.7z" id="XMLID_495_"/><path class="st1" d="M585.6 311.7h4.7v4.7h-4.7z" id="XMLID_494_"/></g><path class="st1" d="M535.3 318.3h4.7v4.7h-4.7z" id="XMLID_436_"/><path class="st1" d="M542.5 318.3h4.7v4.7h-4.7z" id="XMLID_434_"/><path class="st1" d="M556.8 318.3h4.7v4.7h-4.7z" id="XMLID_433_"/><path class="st1" d="M549.6 318.3h4.7v4.7h-4.7z" id="XMLID_432_"/><path class="st1" d="M398.9 273.7H409v4.7h-10.1z" id="XMLID_430_"/><path class="st1" d="M419.5 273.7h10.1v4.7h-10.1z" id="XMLID_429_"/><path class="st1" d="M440.2 273.7h10.1v4.7h-10.1z" id="XMLID_428_"/><path class="st1" d="M460.9 273.7H471v4.7h-10.1z" id="XMLID_427_"/><path class="st1" d="M481.5 273.7h10.1v4.7h-10.1z" id="XMLID_411_"/><path class="st1" d="M502.2 273.7h10.1v4.7h-10.1z" id="XMLID_410_"/><path class="st4" d="M395.2 309.4h4.7v4.7h-4.7z" id="XMLID_409_"/><path class="st4" d="M395.2 318.2h4.7v4.7h-4.7z" id="XMLID_400_"/><path class="st4" d="M395.2 327h4.7v4.7h-4.7z" id="XMLID_398_"/><path class="st4" d="M395.2 335.9h4.7v4.7h-4.7z" id="XMLID_396_"/><path class="st4" d="M395.2 344.7h4.7v4.7h-4.7z" id="XMLID_394_"/><path class="st4" d="M395.2 353.6h4.7v4.7h-4.7z" id="XMLID_393_"/><path class="st4" d="M395.2 362.4h4.7v4.7h-4.7z" id="XMLID_392_"/><path class="st4" d="M395.2 371.3h4.7v4.7h-4.7z" id="XMLID_380_"/><path class="st4" d="M395.2 380.1h4.7v4.7h-4.7z" id="XMLID_379_"/><path class="st5" d="M414.5 307.5h105.3v79.2H414.5z" id="XMLID_370_"/></g><g id="XMLID_43_"><g id="XMLID_542_"><path d="M177.5 351l-5.1-6.2 11.3-13.4.8-.8 124.4-101.8 13.5-3.2c1-.2 1.9.8 1.4 1.7L318 240 193.7 341.8c-.3.3-.6.5-1 .7l-15.2 8.5z" fill="#efefef" id="XMLID_91_"/></g></g><path class="st6" d="M317.9 240.1l-9.1-11.1.1-.1 13.5-3.2c1-.2 1.9.8 1.4 1.7l-5.9 12.7z"/></svg>