<svg version="1" xmlns="http://www.w3.org/2000/svg" viewBox="0 0 300 300"><path fill="#436B78" d="M249.072 54.208c-14.616 1.58-25.169 14.729-23.589 29.345s14.729 25.169 29.345 23.589c14.616-1.58 25.169-14.729 23.589-29.345-1.58-14.673-14.729-25.169-29.345-23.589zm3.555 32.336c-3.273.339-6.151-1.975-6.546-5.248-.339-3.273 1.975-6.151 5.248-6.546 3.273-.339 6.151 1.975 6.546 5.248s-1.975 6.207-5.248 6.546z"/><path fill="#436B78" d="M245.002 49.257l7.068-.773.613 5.61-7.068.773-.613-5.61zM230.205 57.003l5.736-4.202 3.335 4.552-5.736 4.202-3.335-4.552zM221.288 71.01l2.862-6.509 5.166 2.271-2.862 6.509-5.166-2.271zM219.811 80.615l5.61-.613.773 7.068-5.61.613-.773-7.068zM224.162 96.698l4.552-3.335 4.203 5.736-4.552 3.335-4.203-5.736zM235.866 108.497l6.49 2.822 2.314-5.192-6.546-2.822-2.258 5.192zM251.324 107.215l7.068-.773.613 5.61-7.068.773-.613-5.61zM264.654 103.959l5.737-4.201 3.334 4.553-5.737 4.201-3.334-4.553zM274.625 94.537l2.864-6.508 5.165 2.273-2.864 6.508-5.165-2.273zM277.707 74.243l5.61-.613.773 7.068-5.61.613-.773-7.068zM271.124 62.265l4.553-3.335 4.202 5.736-4.553 3.335-4.202-5.736zM268.146 52.797l-6.546-2.822-2.257 5.135 6.49 2.878 2.313-5.191z"/><path fill="#81ABB5" d="M250.539 67.583c-7.223.79-12.472 7.336-11.682 14.56.79 7.223 7.336 12.472 14.56 11.682 7.223-.79 12.472-7.336 11.682-14.56-.734-7.281-7.28-12.529-14.56-11.682zm2.088 18.961c-3.273.339-6.151-1.975-6.546-5.248-.339-3.273 1.975-6.151 5.248-6.546 3.273-.339 6.151 1.975 6.546 5.248.395 3.273-1.975 6.207-5.248 6.546z"/><circle fill="#FFF" cx="251.893" cy="80.675" r="6.095"/><path fill="#E5E5E5" d="M38.35 102.515a8.966 8.966 0 0 1 .508-1.862c-.226.62-.395 1.241-.508 1.862zm.508-1.863c.339-.847.846-1.58 1.411-2.257-.564.677-1.072 1.467-1.411 2.257z"/><path fill="#E5E5E5" d="M270.008 233.383v6.941c0 5.135-3.668 9.311-8.239 9.311H26.781c-4.515 0-8.239-4.176-8.239-9.311v-6.941h19.695V103.7c0-.282 0-.564.056-.79 0-.113.056-.282.056-.395.113-.621.282-1.298.508-1.862.339-.847.846-1.58 1.411-2.257.056-.113.169-.169.282-.282.169-.169.339-.339.564-.508.169-.169.395-.282.564-.451a4.24 4.24 0 0 1 .677-.395c.451-.226.903-.451 1.411-.621a7.451 7.451 0 0 1 1.524-.339c.226 0 .508-.056.79-.056h196.952c.734 0 1.467.113 2.144.339.056 0 .113.056.169.056 1.298.395 2.427 1.072 3.273 2.088 1.354 1.411 2.144 3.273 2.144 5.418v129.683h19.244l.002.055z"/><path opacity=".2" fill="#E5E5E5" d="M42.357 96.815c.451-.226.903-.451 1.411-.621-.508.169-.96.339-1.411.621z"/><path fill="#FFF" d="M43.316 233.496V103.7a7.828 7.828 0 0 1 7.844-7.844h196.839a7.828 7.828 0 0 1 7.844 7.844v129.796H43.316z"/><path fill="#FFF" d="M23.678 233.383h251.41v6.941H23.678v-6.941zm251.409 6.942c0 5.135-3.668 9.311-8.239 9.311H31.86c-4.515 0-8.239-4.176-8.239-9.311h251.466z"/><path fill="#E5E5E5" d="M126.612 233.383v1.185c0 2.144 3.668 4.289 8.239 4.289h14.39v-5.474h-22.629zM149.241 233.383v5.474h14.334c4.515 0 8.239-2.144 8.239-4.289v-1.185h-22.573z"/><path fill="#D4D4D4" d="M246.363 233.383H53.361V110.302c0-1.693 1.411-3.104 3.104-3.104h186.737c1.693 0 3.104 1.411 3.104 3.104.226.283.113 87.077.057 123.081z"/><path fill="#F7F7F7" d="M242.92 233.609H56.352V113.632c0-1.693 1.354-3.047 2.991-3.047h180.473c1.637 0 2.991 1.354 2.991 3.047.283.282.226 84.876.113 119.977z"/><g><path fill="#E5E5E5" d="M67.865 67.47h168.848v153.893H67.865V67.47z"/><path fill="#FFF" d="M64.761 64.704h168.848v153.893H64.761V64.704z"/><path fill="#FFF" d="M65.777 79.264h1.806v1.919h-1.806v-1.919z"/></g><g><path fill="#F7F7F7" d="M73.113 73.79h151.975v79.797H73.113V73.79z"/><path fill="#D7C6E5" d="M207.029 84.343c-1.693-.339-4.289-.169-7.393 2.539l-2.652 2.37-2.709-2.37c-3.047-2.709-5.7-2.878-7.393-2.539a8.05 8.05 0 0 0-6.49 7.901c0 3.837 2.709 7.167 6.49 7.844 1.693.339 4.289.169 7.393-2.539l2.652-2.37 2.709 2.37c3.047 2.709 5.7 2.878 7.393 2.539 3.725-.734 6.49-4.007 6.49-7.844 0-3.894-2.709-7.167-6.49-7.901zm-15.688 9.82c-1.298 1.129-2.596 1.693-3.555 1.524-1.637-.282-2.822-1.749-2.822-3.442s1.185-3.16 2.822-3.499c.959-.169 2.257.339 3.555 1.467l2.257 1.975-2.257 1.975zm14.841 1.523c-.959.169-2.257-.339-3.612-1.467l-2.257-1.975 2.257-1.975c1.298-1.129 2.596-1.693 3.555-1.467 1.637.282 2.822 1.749 2.822 3.442.114 1.636-1.128 3.104-2.765 3.442z"/><path fill="#B781EA" d="M207.819 84.343c-1.693-.339-4.289-.169-7.393 2.539l-2.652 2.37-2.709-2.37c-3.047-2.709-5.7-2.878-7.393-2.539a8.05 8.05 0 0 0-6.49 7.901c0 3.837 2.709 7.167 6.49 7.844 1.693.339 4.289.169 7.393-2.539l2.652-2.37 2.709 2.37c3.047 2.709 5.7 2.878 7.393 2.539 3.725-.734 6.49-4.007 6.49-7.844-.057-3.894-2.765-7.167-6.49-7.901zm-15.688 9.82c-1.298 1.129-2.596 1.693-3.555 1.524-1.637-.282-2.822-1.749-2.822-3.442s1.185-3.16 2.822-3.499c.959-.169 2.257.339 3.555 1.467l2.257 1.975-2.257 1.975zm14.842 1.523c-.959.169-2.257-.339-3.612-1.467l-2.257-1.975 2.257-1.975c1.298-1.129 2.596-1.693 3.555-1.467 1.637.282 2.822 1.749 2.822 3.442.056 1.636-1.129 3.104-2.765 3.442z"/><path fill="#393947" d="M73.113 134.625h151.975v74.887H73.113v-74.887z"/><path fill="#2E2D3A" d="M98.847 129.151h126.185v5.53H98.847v-5.53z"/><path fill="#2E2D3A" d="M73.113 129.151h26.129v76.806H73.113v-76.806z"/><path fill="#5F6882" d="M103.418 142.469h1.411v2.765h-1.411v-2.765zm-.734 4.91h2.088v2.765h-2.088v-2.765zm0 4.515h2.088v2.765h-2.088v-2.765zm0 4.853h2.088v2.765h-2.088v-2.765zm0 4.515h2.088v2.765h-2.088v-2.765zm0 4.909h2.088v2.765h-2.088v-2.765zm0 4.854h2.088v2.765h-2.088v-2.765zm0 4.514h2.088v2.765h-2.088v-2.765zm0 4.571h2.088v2.765h-2.088v-2.765zm-1.016 4.854h3.16v2.765h-3.16v-2.765z"/><path fill="#B781EA" d="M132.989 144.219a.686.686 0 0 1-.677.677H110.02a.686.686 0 0 1-.677-.677v-.339c0-.395.339-.677.677-.677h22.291c.395 0 .677.339.677.677v.339z"/><path fill="#E89282" d="M124.298 148.733a.686.686 0 0 1-.677.677h-13.6a.686.686 0 0 1-.677-.677v-.339c0-.395.339-.677.677-.677h13.6c.395 0 .677.339.677.677v.339z"/><path fill="#F4CA60" d="M175.821 148.733a.686.686 0 0 1-.677.677h-44.582a.686.686 0 0 1-.677-.677v-.339c0-.395.339-.677.677-.677h44.582c.395 0 .677.339.677.677v.339z"/><path fill="#E89282" d="M195.009 148.733a.686.686 0 0 1-.677.677h-13.6a.686.686 0 0 1-.677-.677v-.339c0-.395.339-.677.677-.677h13.6c.395 0 .677.339.677.677v.339z"/><path fill="#B781EA" d="M212.39 148.733a.686.686 0 0 1-.677.677h-6.264a.686.686 0 0 1-.677-.677v-.339c0-.395.339-.677.677-.677h6.264c.395 0 .677.339.677.677v.339z"/><path fill="#00C3FF" d="M157.706 181.803a.686.686 0 0 1-.677.677h-3.837a.686.686 0 0 1-.677-.677v-.339c0-.395.339-.677.677-.677h3.837c.395 0 .677.339.677.677v.339zm33.804 4.571a.686.686 0 0 1-.677.677h-4.515a.686.686 0 0 1-.677-.677v-.339c0-.395.339-.677.677-.677h4.515c.395 0 .677.339.677.677v.339z"/><path fill="#B781EA" d="M131.239 153.643a.686.686 0 0 1-.677.677h-14.278a.686.686 0 0 1-.677-.677v-.339c0-.395.339-.677.677-.677h14.278c.395 0 .677.339.677.677v.339z"/><path fill="#E89282" d="M124.975 172.435a.686.686 0 0 1-.677.677h-8.014a.686.686 0 0 1-.677-.677v-.339c0-.395.339-.677.677-.677h8.014c.395 0 .677.339.677.677v.339z"/><path fill="#F4CA60" d="M132.989 176.95a.686.686 0 0 1-.677.677h-16.027a.686.686 0 0 1-.677-.677v-.339c0-.395.339-.677.677-.677h16.027c.395 0 .677.339.677.677v.339z"/><path fill="#00C3FF" d="M176.555 176.95a.686.686 0 0 1-.677.677h-37.98a.686.686 0 0 1-.677-.677v-.339c0-.395.339-.677.677-.677h37.923c.395 0 .677.339.677.677v.339h.057z"/><path fill="#B781EA" d="M150.088 181.803a.686.686 0 0 1-.677.677h-25.395a.686.686 0 0 1-.677-.677v-.339c0-.395.339-.677.677-.677h25.395c.395 0 .677.339.677.677v.339z"/><path fill="#F4CA60" d="M144.501 186.374a.686.686 0 0 1-.677.677h-13.262a.686.686 0 0 1-.677-.677v-.339c0-.395.339-.677.677-.677h13.262c.395 0 .677.339.677.677v.339z"/><path fill="#B781EA" d="M164.365 186.374a.686.686 0 0 1-.677.677h-14.955a.686.686 0 0 1-.677-.677v-.339c0-.395.339-.677.677-.677h14.955c.395 0 .677.339.677.677v.339z"/><path fill="#F4CA60" d="M182.085 186.374a.686.686 0 0 1-.677.677h-12.19a.686.686 0 0 1-.677-.677v-.339c0-.395.339-.677.677-.677h12.19c.395 0 .677.339.677.677v.339z"/><path fill="#00C3FF" d="M142.752 158.158a.686.686 0 0 1-.677.677H123.96a.686.686 0 0 1-.677-.677v-.339c0-.395.339-.677.677-.677h18.115c.395 0 .677.339.677.677v.339z"/><path fill="#B781EA" d="M157.029 158.158a.686.686 0 0 1-.677.677h-9.029a.686.686 0 0 1-.677-.677v-.339c0-.395.339-.677.677-.677h9.029c.395 0 .677.339.677.677v.339z"/><path fill="#5F6882" d="M102.684 190.72h2.088v2.765h-2.088v-2.765zm0 4.514h2.088V198h-2.088v-2.766zm0 4.91h2.088v2.765h-2.088v-2.765z"/><path fill="#E89282" d="M124.298 192.131a.686.686 0 0 1-.677.677h-13.6a.686.686 0 0 1-.677-.677v-.339c0-.395.339-.677.677-.677h13.6c.395 0 .677.339.677.677v.339z"/><path fill="#00C3FF" d="M175.821 192.131a.686.686 0 0 1-.677.677h-44.582a.686.686 0 0 1-.677-.677v-.339c0-.395.339-.677.677-.677h44.582c.395 0 .677.339.677.677v.339z"/><path fill="#E89282" d="M195.009 192.131a.686.686 0 0 1-.677.677h-13.6a.686.686 0 0 1-.677-.677v-.339c0-.395.339-.677.677-.677h13.6c.395 0 .677.339.677.677v.339z"/><path fill="#B781EA" d="M212.39 192.131a.686.686 0 0 1-.677.677h-6.264a.686.686 0 0 1-.677-.677v-.339c0-.395.339-.677.677-.677h6.264c.395 0 .677.339.677.677v.339zm-81.151 4.853a.686.686 0 0 1-.677.677h-14.278a.686.686 0 0 1-.677-.677v-.339c0-.395.339-.677.677-.677h14.278c.395 0 .677.339.677.677v.339z"/><path fill="#00C3FF" d="M142.752 201.555a.686.686 0 0 1-.677.677H123.96a.686.686 0 0 1-.677-.677v-.339c0-.395.339-.677.677-.677h18.115c.395 0 .677.339.677.677v.339z"/><path fill="#B781EA" d="M157.029 201.555a.686.686 0 0 1-.677.677h-9.029a.686.686 0 0 1-.677-.677v-.339c0-.395.339-.677.677-.677h9.029c.395 0 .677.339.677.677v.339z"/><path fill="#E89282" d="M138.576 163.011a.686.686 0 0 1-.677.677H123.96a.686.686 0 0 1-.677-.677v-.339c0-.395.339-.677.677-.677h13.939c.395 0 .677.339.677.677v.339z"/><path fill="#F4CA60" d="M182.085 163.011a.686.686 0 0 1-.677.677h-37.98a.686.686 0 0 1-.677-.677v-.339c0-.395.339-.677.677-.677h37.98c.395 0 .677.339.677.677v.339z"/><path fill="#E89282" d="M212.39 163.011a.686.686 0 0 1-.677.677h-16.704a.686.686 0 0 1-.677-.677v-.339c0-.395.339-.677.677-.677h16.704c.395 0 .677.339.677.677v.339z"/><path fill="#00C3FF" d="M192.921 163.011a.686.686 0 0 1-.677.677h-5.248a.686.686 0 0 1-.677-.677v-.339c0-.395.339-.677.677-.677h5.248c.395 0 .677.339.677.677v.339z"/><path fill="#B781EA" d="M164.365 167.526a.686.686 0 0 1-.677.677h-39.729a.686.686 0 0 1-.677-.677v-.339c0-.395.339-.677.677-.677h39.729c.395 0 .677.339.677.677v.339z"/><path fill="#5F6882" d="M77.289 161.657h3.16v2.765h-3.16v-2.765zm4.176.733h9.989v1.072h-9.989v-1.072zm-4.176 5.756h3.16v2.765h-3.16v-2.765zm4.176.734h9.989v1.072h-9.989v-1.072zm-4.176-20.203h3.16v2.765h-3.16v-2.765zm4.176.734h9.989v1.072h-9.989v-1.072zm-4.176-7.224h3.16v2.765h-3.16v-2.765zm4.176.734h9.989v1.072h-9.989v-1.072zM77.289 155.167h3.16v2.765h-3.16v-2.765zm4.176.733h9.989v1.072h-9.989V155.9zM77.289 174.693h3.16v2.765h-3.16v-2.765zm4.176.677h9.989v1.072h-9.989v-1.072zM77.289 181.183h3.16v2.765h-3.16v-2.765zm4.176.677h9.989v1.072h-9.989v-1.072zM77.289 187.503h3.499v3.104h-3.499v-3.104zm4.628 1.185h6.941v1.185h-6.941v-1.185z"/></g><g><path fill="#E5E5E5" d="M291.792 269.444l-1.806-1.524c-.282-.226-.621-.226-.846.056l-.056.113-19.582-16.93.056-.113c.226-.282.226-.621-.056-.846l-1.806-1.524c-.282-.226-.621-.226-.846.056l-1.411 1.637-7.223-6.208c7.223-10.327 5.53-24.718-4.289-33.183-10.553-9.086-26.354-7.788-35.327 2.652-9.086 10.553-7.788 26.354 2.652 35.327 9.763 8.409 24.097 7.957 33.296-.508l7.223 6.264-1.298 1.524c-.226.282-.226.621.056.846l1.806 1.58c.282.226.621.226.846-.056l.056-.113 19.639 16.874-.056.113c-.226.282-.226.621.056.846l1.806 1.524c.282.226.621.226.846-.056l6.433-7.449c.169-.338.113-.676-.169-.902zm-38.431-25.79c-7.506 8.747-20.767 9.707-29.458 2.201-8.747-7.506-9.707-20.767-2.201-29.458 7.506-8.747 20.767-9.707 29.458-2.201s9.706 20.767 2.201 29.458z"/></g><g><path fill="#00C3FF" d="M253.831 246.134l3.719-4.319 9.109 7.843-3.719 4.319-9.109-7.843z"/><path fill="#B781EA" d="M264.361 257.72l6.26-7.27 19.629 16.901-6.26 7.27-19.629-16.901z"/><path fill="#436B78" d="M285.753 277.119c.282.226.621.226.846-.056l6.433-7.449c.226-.282.226-.621-.056-.846l-1.806-1.524c-.282-.226-.621-.226-.846.056l-6.433 7.393c-.226.282-.226.621.056.846l1.806 1.58zm-22.291-19.244c.282.226.621.226.846-.056l6.433-7.449c.226-.282.226-.621-.056-.846L268.879 248c-.282-.226-.621-.226-.846.056l-6.433 7.449c-.226.282-.226.621.056.846l1.806 1.524z"/><path fill="#474F59" d="M230.054 221.702c0 .112 0 .112 0 0-1.467.846-3.273.846-4.628 0-.113-.113-.113-.226 0-.226.113-.113.226-.113.226 0 1.242.847 2.935.847 4.289.056.113 0 .226 0 .226.113 0-.113 0 .057-.113.057zm.903-.903s-.113.113-.226 0c-.113 0-.113-.113-.113-.226.621-1.467.226-2.991-.677-4.232-.113-.113 0-.226 0-.226.113-.113.226 0 .226 0a4.58 4.58 0 0 1 .79 4.684z"/><path fill="#353F49" d="M240.066 220.061l3.499-4.062.641.552-3.499 4.062-.641-.552z"/><path fill="#353F49" d="M240.256 214.219l.552-.642 3.507 3.019-.552.642-3.507-3.019zM227.359 235.035l3.498-4.063.642.552-3.499 4.064-.641-.553z"/><path fill="#353F49" d="M224.555 232.439l.552-.642 3.507 3.019-.552.642-3.507-3.019zM243.994 223.415l3.498-4.063.642.552-3.498 4.063-.642-.552zM231.179 238.283l3.497-4.064.642.552-3.497 4.064-.642-.552zM247.522 226.431l3.497-4.064.642.552-3.497 4.064-.642-.552z"/><path fill="#353F49" d="M250.582 223.063l.552-.642 3.507 3.019-.552.642-3.507-3.019z"/><g fill="#353F49"><path d="M234.676 241.367l3.498-4.063.641.552-3.498 4.063-.641-.552z"/><path d="M234.666 241.337l.552-.642 3.507 3.019-.552.642-3.507-3.019z"/></g><path fill="#353F49" d="M236.826 218.316a944.441 944.441 0 0 1-8.352 9.65c.677 2.596 2.144 5.079 4.458 7.167 4.684 4.063 11.061 4.515 15.124 1.354 2.539-4.458 1.129-10.666-3.612-14.729-2.257-2.032-4.966-3.273-7.618-3.442z"/><path fill="#474F59" d="M229.884 220.629c-1.749 2.032-2.144 4.797-1.354 7.223 2.54.508 5.192-.395 6.941-2.427s2.144-4.797 1.354-7.223c-2.539-.394-5.191.396-6.941 2.427z"/><path fill="#353F49" d="M228.304 223.733l4.402-5.079c-1.354-.282-2.709.226-3.725 1.242-.846 1.128-1.128 2.539-.677 3.837z"/><path fill="#E89282" d="M236.826 218.316c3.273-.846 6.885-.282 10.045 1.862 5.135 3.555 6.828 10.102 4.402 15.632l-14.898-10.102c1.466-2.313 1.579-5.192.451-7.392z"/><path fill="#474F59" d="M237.164 225.426c.564-.282 1.185-.113 1.467.508.282.451.169.959-.169 1.185l-1.749-1.185c.113-.226.226-.339.451-.508zm6.829 2.258c.282.564 1.016.734 1.467.508.564-.282.734-1.016.508-1.467-.282-.564-1.016-.734-1.467-.508-.621.281-.79 1.015-.508 1.467zm.451-5.192c.282.564 1.016.734 1.467.508.564-.282.734-1.016.508-1.467-.282-.564-1.016-.734-1.467-.508-.621.338-.79.902-.508 1.467zm4.458 5.869c.282.564 1.016.734 1.467.508.564-.282.734-1.016.508-1.467-.282-.564-1.016-.734-1.467-.508-.564.282-.79 1.015-.508 1.467z"/><path fill="#E89282" d="M228.53 227.853c-.339 3.386.734 6.828 3.33 9.65 4.289 4.571 11.004 5.248 16.083 2.032l-12.19-13.262c-2.088 1.806-4.796 2.37-7.223 1.58z"/><path fill="#474F59" d="M235.753 227.232c-.169.621.113 1.185.677 1.354.508.226.959.056 1.185-.339l-1.411-1.58c-.281.17-.507.339-.451.565zm3.161 6.321c.621.169.903.903.677 1.354-.169.621-.903.903-1.354.677-.621-.169-.903-.903-.677-1.354a.992.992 0 0 1 1.354-.677zm-5.136 1.185c.621.169.903.903.677 1.354-.169.621-.903.903-1.354.677-.621-.169-.903-.903-.677-1.354.169-.564.846-.847 1.354-.677zm6.603 3.668c.621.169.903.903.677 1.354-.169.621-.903.903-1.354.677-.621-.169-.903-.903-.677-1.354.169-.677.733-.959 1.354-.677z"/><path fill="#FFF" d="M233.158 218.485c0 .339.282.564.564.903.621.564 1.58.451 2.144-.169.226-.282.339-.621.395-.959a6.45 6.45 0 0 0-3.103.225zm-5.023 5.869c.339 0 .621.169.959.395.621.564.734 1.467.169 2.144-.226.282-.564.508-.903.564a6.57 6.57 0 0 1-.225-3.103z"/><path fill="#436B78" d="M255.11 210.246c-10.553-9.086-26.354-7.788-35.327 2.652-9.086 10.553-7.788 26.354 2.652 35.327 10.553 9.086 26.354 7.788 35.327-2.652 9.03-10.327 7.845-26.242-2.652-35.327zm-30.079 34.932c-8.747-7.506-9.707-20.767-2.201-29.458 7.506-8.747 20.767-9.707 29.458-2.201 8.691 7.506 9.706 20.767 2.201 29.458-7.505 8.691-20.711 9.706-29.458 2.201z"/><g opacity=".2"><path fill="#FFF" d="M239.704 250.144c-5.192.226-10.44-1.298-14.673-4.966-.282-.226-.451-.395-.734-.621l-2.088-27.991c.226-.282.395-.451.621-.734 3.668-4.232 8.691-6.603 13.77-7.111l3.104 41.423zm8.86-2.427c-1.862 1.072-3.894 1.806-5.982 2.032l-3.104-41.366c2.088.113 4.232.508 6.208 1.129l2.878 38.205z"/></g></g><g><path fill="#ECEAEF" d="M59.23 228.417v2.483c.903.734 1.354 1.58 1.354 2.427v12.246c0 .846-.508 1.637-1.354 2.37v2.483c.903.734 1.354 1.58 1.354 2.427v12.246c-.056 4.12-11.625 7.506-25.903 7.506-7.167 0-13.6-.847-18.284-2.201-4.684-1.354-7.618-3.217-7.618-5.305v-12.246c0-.846.451-1.637 1.354-2.427v-2.539c-.846-.734-1.354-1.524-1.354-2.37V233.27c0-.846.451-1.637 1.354-2.427v-2.427c-.846-.734-1.354-1.524-1.354-2.37V213.8c0-4.176 11.569-7.506 25.903-7.506s25.903 3.386 25.903 7.506v12.246c-.057.847-.508 1.638-1.355 2.371z"/></g><g><path fill="#FFF" d="M6.804 252.853v12.19c.056 4.12 11.625 7.506 25.903 7.506s25.846-3.33 25.903-7.506v-12.19H6.804z"/><ellipse fill="#FFF" cx="32.707" cy="252.853" rx="25.903" ry="7.506"/><path fill="#B781EA" d="M8.158 245.968v5.192c.056 3.95 11.004 7.111 24.548 7.111s24.492-3.16 24.548-7.111v-5.192H8.158z"/><ellipse fill="#06B4E9" cx="32.707" cy="245.968" rx="24.548" ry="7.111"/><path fill="#FFF" d="M6.804 233.327v12.19c.056 4.12 11.625 7.506 25.903 7.506s25.846-3.33 25.903-7.506v-12.19H6.804z"/><ellipse fill="#FFF" cx="32.707" cy="233.327" rx="25.903" ry="7.506"/><path fill="#B781EA" d="M8.158 226.442v5.192c.056 3.95 11.004 7.111 24.548 7.111s24.492-3.16 24.548-7.111v-5.192H8.158z"/><path fill="#FFF" d="M6.804 213.801v12.19c.056 4.12 11.625 7.506 25.903 7.506s25.846-3.33 25.903-7.506v-12.19H6.804z"/><ellipse fill="#E1ECEE" cx="32.707" cy="213.801" rx="25.903" ry="7.506"/></g><g><path fill="#FFF" d="M87.221 72.323c-1.354-2.539-3.555-4.515-6.264-5.53-.846-6.941-6.772-12.359-13.995-12.359-5.869 0-10.892 3.612-13.036 8.691a11.911 11.911 0 0 0-3.499-.508c-5.869 0-10.779 4.176-11.851 9.707h-2.201c-7.111 0-12.867 5.756-12.867 12.867 0 7.111 5.756 12.867 12.867 12.867h50c7.111 0 12.867-5.756 12.867-12.867 0-6.83-5.305-12.417-12.021-12.868z"/><path fill="#CCE3EF" d="M79.038 66.002l1.919.79c-.959-7.28-6.885-12.359-13.995-12.359h-.282c6.377.113 11.681 5.136 12.358 11.569zm5.644 4.628c.508 1.016.564 1.524.564 1.524l1.919.226s-1.862-3.725-5.418-5.192c1.242.902 2.201 2.088 2.935 3.442zm6.828 2.765c2.483 2.144 4.063 5.305 4.063 8.804a11.609 11.609 0 0 1-11.625 11.625H38.802a11.609 11.609 0 0 1-11.625-11.625c0-3.499 1.58-6.659 4.063-8.804a12.853 12.853 0 0 0-7.731 11.795c0 7.111 5.756 12.867 12.867 12.867h50c7.111 0 12.867-5.756 12.867-12.867a12.797 12.797 0 0 0-7.733-11.795zm-51.128-1.072c.734-4.063 2.596-6.941 4.853-8.521-2.765 1.298-4.853 3.499-6.095 6.49a15.9 15.9 0 0 0-.621 2.032h1.863z"/></g><g><path fill="#FFF" d="M133.948 35.021c-.959-1.806-2.596-3.273-4.515-4.007a10.201 10.201 0 0 0-10.158-8.973c-4.289 0-7.901 2.596-9.481 6.321-.79-.226-1.637-.395-2.539-.395-4.289 0-7.844 3.047-8.634 7.054h-1.58c-5.192 0-9.368 4.176-9.368 9.368s4.176 9.368 9.368 9.368h36.343a9.345 9.345 0 0 0 9.368-9.368c-.057-5.023-3.894-9.086-8.804-9.368z"/><path fill="#CCE3EF" d="M128.022 30.393l1.411.564c-.677-5.305-5.023-8.973-10.158-8.973h-.226c4.628.113 8.522 3.725 8.973 8.409zm4.12 3.33c.339.734.395 1.129.395 1.129l1.411.169s-1.354-2.709-3.95-3.781a7.503 7.503 0 0 1 2.144 2.483zm4.966 2.031a8.338 8.338 0 0 1 2.935 6.377 8.454 8.454 0 0 1-8.465 8.465H98.79a8.454 8.454 0 0 1-8.465-8.465 8.546 8.546 0 0 1 2.935-6.433c-3.33 1.467-5.643 4.74-5.643 8.578a9.345 9.345 0 0 0 9.368 9.368h36.343a9.345 9.345 0 0 0 9.368-9.368c-.001-3.781-2.315-7.055-5.588-8.522zm-37.189-.733c.564-2.935 1.919-5.079 3.555-6.208-2.032.959-3.555 2.539-4.402 4.74-.282.734-.451 1.467-.451 1.467h1.298z"/></g></svg>