<svg id="main" xmlns="http://www.w3.org/2000/svg" viewBox="0 0 604.5 460"><style>.st0{fill:#9ee1e8}.st1{fill:#fff}.st2{fill:#f2eeee}.st4{fill:#f4ca60}.st6{fill:#b781ea}.st10{fill:#e89282}.st12{fill:#ddd}.st13{opacity:.2}.st15{fill:#f4f4f4}.st16{fill:#50b6ef}.st19{fill:#bcbec0}.st20{fill:#dfeaea}</style><path class="st0" d="M386 132.3c0 1.2 1 2.2 2.2 2.2h8.8c1.2 0 2.2-1 2.2-2.2V92.8c0-1.2-1-2.2-2.2-2.2h-8.8c-1.2 0-2.2 1-2.2 2.2v39.5z"/><path class="st1" d="M350.2 1.5v60.8h84.7V1.5h4v64.8h-44.4v24.4h-3.9V66.3h-44.3V1.5z"/><path class="st2" d="M103.1 110.3h325.8v296.9H103.1z"/><path class="st1" d="M110.6 103.6h325.8v296.9H110.6z"/><path class="st1" d="M112.7 131.7h3.4v3.7h-3.4z"/><path fill="#f7f7f7" d="M126.9 119.8h293.2v264.4H126.9z"/><path class="st1" d="M226.4 158.4h3.2V357h-3.2zM325.2 158.4h3.2V357h-3.2z"/><path class="st4" d="M303.3 224.5v-35.7h-41.6V235h31.2c5.7 0 10.4-4.7 10.4-10.5z"/><path class="st1" d="M265.7 196.8h33.5v6.4h-33.5zM265.7 209.2h33.5v6.4h-33.5z"/><path d="M292.9 235c-3.1 0-5.9-1.4-7.8-3.6h-41.7c1.9 2.2 4.6 3.6 7.8 3.6h41.7z" fill="#ffe69f"/><path class="st6" d="M303.3 291v-35.7h-41.6v46.1h31.2c5.7.1 10.4-4.6 10.4-10.4z"/><path class="st1" d="M265.7 263.3h33.5v6.4h-33.5zM265.7 275.7h33.5v6.4h-33.5z"/><path d="M292.9 301.5c-3.1 0-5.9-1.4-7.8-3.6h-41.7c1.9 2.2 4.6 3.6 7.8 3.6h41.7z" fill="#d3b1fc"/><path d="M402.1 272.5v-35.7h-41.6V283h31.2c5.7 0 10.4-4.6 10.4-10.5z" fill="#a9d8db"/><path class="st1" d="M364.5 244.9H398v6.4h-33.5zM364.5 257.2H398v6.4h-33.5z"/><path d="M391.7 283c-3.1 0-5.9-1.4-7.8-3.6h-41.7c1.9 2.2 4.6 3.6 7.8 3.6h41.7z" fill="#c4edf1"/><path class="st10" d="M402.1 339.1v-35.7h-41.6v46.1h31.2c5.7 0 10.4-4.7 10.4-10.4z"/><path class="st1" d="M364.5 311.4H398v6.4h-33.5zM364.5 323.8H398v6.4h-33.5z"/><path d="M391.7 349.5c-3.1 0-5.9-1.4-7.8-3.6h-41.7c1.9 2.2 4.6 3.6 7.8 3.6h41.7z" fill="#f4a398"/><path class="st1" d="M383 13.4c-12.7 7.9-20 25.2-17.4 29.4 2.6 4.2 21.3 5.4 34.1-2.4 14.1-8.7 20.1-24.9 17.4-29.4-2.8-4.6-20-6.4-34.1 2.4z"/><path class="st12" d="M382.3 45.9c-.8.1-1.6.1-2.3.2-1.1.1-2.2.1-3.2 0-.9-1.1-1.7-2.3-2.5-3.6-.8-1.3-1.5-2.5-2.1-3.8-.9-1.1-1.7-2.3-2.5-3.5-.8-1.2-1.5-2.5-2.1-3.8.4-.9.9-1.9 1.5-2.9.4-.7.8-1.4 1.2-2 .8 2.1 1.9 4.2 3.2 6.3.8 1.3 1.6 2.4 2.5 3.5.6 1.3 1.3 2.5 2.1 3.8 1.2 2.1 2.7 4.1 4.2 5.8zM413.1 26.8c.4-.7.8-1.3 1.2-2 .5-1 1-1.9 1.5-2.9-.6-1.3-1.3-2.6-2.1-3.8-.8-1.3-1.6-2.4-2.5-3.5-.6-1.3-1.3-2.5-2.1-3.8-.8-1.2-1.6-2.4-2.5-3.5h-3.2c-.8 0-1.6.1-2.4.2 1.5 1.7 3 3.6 4.3 5.7.8 1.3 1.5 2.5 2.1 3.8.9 1.1 1.7 2.3 2.5 3.5 1.3 2 2.4 4.1 3.2 6.3z"/><path transform="rotate(-31.767 391.368 26.817)" class="st12" d="M361.1 26.6h60.5v.4h-60.5z"/><path transform="rotate(-31.767 391.45 26.046)" class="st1" d="M377.5 25.5h27.8v1.1h-27.8z"/><path class="st12" d="M380.5 30.3c-.2-.3-.6-.4-1-.2-.3.2-.4.6-.2 1 .2.3.6.4 1 .2.3-.2.4-.6.2-1zM383.4 35c-.2-.3-.6-.4-1-.2-.3.2-.4.6-.2 1 .2.3.6.4 1 .2.3-.2.4-.7.2-1z"/><path transform="rotate(-31.767 381.38 33.056)" class="st12" d="M380.7 30.4h1.4v5.4h-1.4z"/><path class="st12" d="M383.5 28.5c-.2-.3-.6-.4-1-.2-.3.2-.4.6-.2 1 .2.3.6.4 1 .2.3-.3.4-.7.2-1zM386.4 33.2c-.2-.3-.6-.4-1-.2-.3.2-.4.6-.2 1 .2.3.6.4 1 .2.3-.3.4-.7.2-1z"/><path transform="rotate(-31.767 384.356 31.212)" class="st12" d="M383.6 28.5h1.4v5.4h-1.4z"/><path class="st12" d="M386.4 26.6c-.2-.3-.6-.4-1-.2-.3.2-.4.6-.2 1 .2.3.6.4 1 .2.3-.2.4-.6.2-1zM389.3 31.3c-.2-.3-.6-.4-1-.2-.3.2-.4.6-.2 1 .2.3.6.4 1 .2.3-.2.4-.6.2-1z"/><path transform="rotate(-31.767 387.332 29.369)" class="st12" d="M386.6 26.7h1.4v5.4h-1.4z"/><g><path class="st12" d="M389.4 24.8c-.2-.3-.6-.4-1-.2-.3.2-.4.6-.2 1 .2.3.6.4 1 .2.3-.2.4-.7.2-1z"/><g class="st13"><path class="st12" d="M392.3 29.5c-.2-.3-.6-.4-1-.2-.3.2-.4.6-.2 1 .2.3.6.4 1 .2.3-.3.4-.7.2-1z"/></g><path transform="rotate(-31.767 390.309 27.526)" class="st12" d="M389.6 24.8h1.4v5.4h-1.4z"/></g><g><path class="st12" d="M392.4 23c-.2-.3-.6-.4-1-.2-.3.2-.4.6-.2 1 .2.3.6.4 1 .2.3-.3.4-.7.2-1z"/><g class="st13"><path class="st12" d="M395.3 27.6c-.2-.3-.6-.4-1-.2-.3.2-.4.6-.2 1 .2.3.6.4 1 .2.3-.2.4-.6.2-1z"/></g><path transform="rotate(-31.767 393.285 25.682)" class="st12" d="M392.6 23h1.4v5.4h-1.4z"/></g><g><path class="st12" d="M395.4 21.1c-.2-.3-.6-.4-1-.2-.3.2-.4.6-.2 1 .2.3.6.4 1 .2.3-.2.4-.7.2-1zM398.3 25.8c-.2-.3-.6-.4-1-.2-.3.2-.4.6-.2 1 .2.3.6.4 1 .2.3-.2.4-.7.2-1z"/><path transform="rotate(-31.767 396.261 23.839)" class="st12" d="M395.6 21.1h1.4v5.4h-1.4z"/></g><g><path class="st12" d="M398.3 19.3c-.2-.3-.6-.4-1-.2-.3.2-.4.6-.2 1 .2.3.6.4 1 .2.4-.3.5-.7.2-1zM401.3 24c-.2-.3-.6-.4-1-.2-.3.2-.4.6-.2 1 .2.3.6.4 1 .2.3-.3.4-.7.2-1z"/><path transform="rotate(-31.767 399.238 21.996)" class="st12" d="M398.5 19.3h1.4v5.4h-1.4z"/></g><g><path class="st12" d="M401.3 17.4c-.2-.3-.6-.4-1-.2-.3.2-.4.6-.2 1 .2.3.6.4 1 .2.3-.2.4-.7.2-1zM404.2 22.1c-.2-.3-.6-.4-1-.2-.3.2-.4.6-.2 1 .2.3.6.4 1 .2.3-.2.4-.7.2-1z"/><path transform="rotate(-31.767 402.214 20.152)" class="st12" d="M401.5 17.5h1.4v5.4h-1.4z"/></g><g><path class="st12" d="M394.8 31.9l-.1.1-.1-.2.1-.1c.2-.1.4-.2.6-.4l.2.2c-.3.1-.5.2-.7.4zm-.7.4c-.2.1-.5.2-.8.4l-.1-.2c.3-.1.5-.2.8-.4l.1.2zM396 31l-.2-.2c.2-.2.4-.4.7-.6l.2.2c-.3.2-.5.4-.7.6zm-3.4 1.9c-.3.1-.5.2-.8.3l-.1-.2c.3-.1.6-.2.8-.3l.1.2zm4.5-2.9l-.2-.2.6-.6.2.2c-.1.1-.3.4-.6.6zm6.8-4.5c-.1.1-.3.2-.4.3l-.1-.2c.3-.2.5-.3.7-.4l.2.2c-.1-.1-.2 0-.4.1zm-18.7 11.6l-.1-.2c.2-.1.4-.3.7-.5l.2.2c-.4.2-.6.4-.8.5zm5.9-3.7c-.3.1-.6.2-.8.2l-.1-.3c.3-.1.6-.2.8-.2l.1.3zm-6.5 4c-.3.1-.6.2-.8.3l-.1-.3c.3-.1.5-.2.8-.3l.1.3zM402.9 26c-.2.1-.5.2-.8.4l-.1-.2c.3-.1.5-.2.8-.4l.1.2zm1.9-1.2l-.2-.2.6-.6.2.2-.6.6zm-18.3 11.4l-.2-.2c.2-.2.4-.4.7-.5l.2.2c-.3.1-.5.3-.7.5zm11.8-7.4l-.2-.2.6-.6.2.2c-.3.2-.5.4-.6.6zm3.1-2.1c-.3.1-.5.2-.8.3l-.1-.2c.3-.1.5-.2.8-.3l.1.2zm-13.7 8.5l-.2-.2c.2-.2.4-.4.7-.6l.2.2c-.3.2-.5.4-.7.6zm1.9-1.4c-.2 0-.4.1-.5.1l-.2.2-.2-.2.2-.2c.2 0 .4-.1.6-.1l.1.2zm-6.6 4.1c-.3 0-.6.1-.9 0v-.3h.8l.1.3zm17-10.6c-.2.1-.3.1-.5.2l-.2.2-.2-.2.2-.2c.2-.1.4-.1.6-.2l.1.2zm5.8-3.7l-.2-.1c.1-.2.3-.5.4-.8l.2.1c-.1.2-.2.5-.4.8zm-24.4 14.2c-.3 0-.6-.1-.9-.2l.1-.2c.3.1.5.2.8.2v.2zm25-15.7l-.3-.1c.1-.3.1-.6.1-.8h.3c0 .3 0 .6-.1.9zm-26.5 15.2c-.3-.1-.5-.3-.8-.5l.2-.2c.2.2.5.3.7.4l-.1.3zm26.6-16.8h-.3c0-.3-.1-.6-.1-.8l.3-.1c.1.3.1.6.1.9zm-27.9 15.9c-.2-.2-.4-.4-.6-.7l.2-.2.6.6-.2.3zm27.6-17.5l-.2.1c-.1-.3-.2-.5-.4-.8l.2-.1c.2.3.3.5.4.8zM377.8 35l-.2.1c-.1-.3-.3-.5-.4-.8l.2-.1c.1.3.3.6.4.8zm27.4-17.3l-.6-.6.2-.2c.2.2.4.4.6.7l-.2.1zm-28 15.9l-.3.1c-.1-.3-.1-.6-.1-.9h.3c0 .3.1.6.1.8zm26.9-17c-.2-.2-.5-.3-.7-.4l.1-.2c.3.1.5.3.8.5l-.2.1zm-27 15.5h-.3c0-.3.1-.6.1-.9l.3.1c0 .2-.1.5-.1.8zm25.7-16.2c-.3-.1-.5-.2-.8-.2v-.3c.3 0 .6.1.9.2l-.1.3zm-25.4 14.7l-.2-.1c.1-.3.2-.6.4-.8l.2.1c-.1.3-.3.6-.4.8zm23.9-15h-.8v-.3c.3 0 .6-.1.9 0l-.1.3zm-6.9 4.1c-.2 0-.3.1-.5.1l-.1-.3c.1 0 .3-.1.4-.1.1-.1.2-.2.3-.2l.2.2c-.1.1-.2.1-.3.3zm-10.1 6.2c-.3.1-.6.2-.8.3l-.1-.2c.2-.1.5-.2.7-.3l.2.2zm10.9-7l-.2-.2c.2-.2.4-.4.7-.6l.2.2c-.2.2-.5.4-.7.6zm-10.4 6.4l-.2-.2c.2-.2.4-.4.6-.7l.2.2c-.2.3-.4.5-.6.7zm-2 1.2c-.3.1-.5.2-.8.3l-.1-.2c.3-.1.5-.2.8-.3l.1.2zm10.4-6.5c-.3.1-.6.2-.8.2l-.1-.3c.3-.1.6-.2.8-.2l.1.3zm-15 9.3l-.2-.2c.2-.2.4-.5.6-.7l.2.2c-.3.2-.5.5-.6.7zm18.2-11.4l-.2-.2c.2-.2.5-.4.7-.6l.2.2c-.2.2-.5.4-.7.6zm3.3-2.1c-.3.1-.5.2-.8.3l-.1-.2c.3-.1.6-.2.8-.3l.1.2zm-18.3 11.3c-.3.1-.5.3-.8.4l-.1-.2c.2-.1.5-.2.8-.4l.1.2zm16.2-10.2l-.2-.2c.3-.2.5-.4.7-.5l.1.1v.1c-.1.1-.3.3-.6.5zm-11.8 7.3l-.2-.2.6-.6.2.2c-.2.1-.4.4-.6.6zm-5.8 3.6c-.3.2-.5.3-.7.4l-.2-.2c.2-.2.4-.3.8-.5l.1.3zm11.7-7.4c-.3.1-.6.2-.8.3l-.1-.2c.3-.1.5-.2.8-.3l.1.2zm-4.7 2.7l-.2-.2c.2-.2.5-.4.7-.6l.2.2c-.3.2-.5.4-.7.6zm3.3-2.1c-.3.1-.5.2-.8.4l-.1-.2c.2-.1.5-.2.8-.4l.1.2zm-2.1 1.1l-.2-.2c.3-.2.5-.3.7-.5l.1.2c-.2.2-.4.3-.6.5z"/></g><g><path d="M454.4 410l-1.4.6c-2.8 1.2-5.5 4.7-5.7 7.9l-.2 1.6c-.2 3.1-3 5-6 4.4h-.2v28.9L425.6 438l-15.4 15.4v-28.9h-.2c-3 .8-5.8-1.3-6-4.4l-.2-1.6c-.2-3.2-2.8-6.6-5.7-7.9l-1.4-.6c-2.8-1.3-3.9-4.4-2.4-7.1l.8-1.3c1.6-2.7 1.6-7.1 0-9.8l-.8-1.3c-1.7-2.7-.6-5.8 2.2-7.1l1.4-.6c2.8-1.3 5.5-4.7 5.7-7.9l.2-1.6c.2-3.1 3-5 6-4.4l1.6.3c3 .8 7.3-.6 9.3-3l1.1-1.3c2.1-2.4 5.4-2.4 7.4 0l.9 1.3c2 2.4 6.1 3.8 9.3 3l1.6-.3c3-.8 5.8 1.3 6 4.4l.2 1.6c.2 3.2 2.8 6.6 5.7 7.9l1.4.6c2.8 1.3 3.9 4.4 2.4 7.1l-.8 1.3c-1.7 2.7-1.7 7.1 0 9.8l.8 1.3c1.8 2.7.7 5.9-2.3 7.1z" fill="#d6d6d6"/><path class="st1" d="M412.2 451.9v-30.7h30.7z"/><path class="st15" d="M442.9 451.9v-30.7h-30.7z"/><path class="st1" d="M423.8 363.7c2-2.4 5.4-2.4 7.4 0l.9 1.3c2 2.4 6.1 3.8 9.3 3l1.6-.3c3-.8 5.8 1.3 6 4.4l.2 1.6c.2 3.2 2.8 6.6 5.7 7.9l1.4.6c2.8 1.3 3.9 4.4 2.4 7.1l-.8 1.3c-1.7 2.7-1.7 7.1 0 9.8l.8 1.3c1.7 2.7.6 5.8-2.4 7.1l-1.4.6c-2.8 1.3-5.5 4.7-5.7 7.9l-.2 1.6c-.2 3.2-3 5-6 4.4l-1.6-.3c-3-.8-7.3.6-9.3 3l-.9 1.3c-2 2.4-5.4 2.4-7.4 0l-.9-1.3c-2-2.4-6.1-3.8-9.3-3l-1.6.3c-3 .8-5.8-1.3-6-4.4l-.2-1.6c-.2-3.2-2.8-6.6-5.7-7.9l-1.4-.6c-2.8-1.3-3.9-4.4-2.4-7.1l.8-1.3c1.6-2.7 1.6-7.1 0-9.8l-.8-1.3c-1.7-2.7-.6-5.8 2.2-7.1l1.4-.6c2.8-1.3 5.5-4.7 5.7-7.9l.2-1.6c.2-3.2 3-5 6-4.4l1.6.3c3 .8 7.3-.6 9.3-3l1.1-1.3z"/><path class="st15" d="M451.4 395.2c0 13.2-10.7 23.8-23.8 23.8-13.2 0-23.8-10.7-23.8-23.8 0-13.1 10.7-23.8 23.8-23.8 13.1 0 23.8 10.6 23.8 23.8z"/><path class="st1" d="M427.4 414.1c-10.4 0-18.9-8.5-18.9-18.9 0-10.4 8.5-18.9 18.9-18.9 10.4 0 18.9 8.5 18.9 18.9.1 10.4-8.3 18.9-18.9 18.9z"/><path class="st12" d="M410.1 396.6c0-10.4 8.5-18.9 18.9-18.9 4.9 0 9.3 1.9 12.6 4.7-3.5-3.9-8.5-6.3-14-6.3-10.4 0-18.9 8.5-18.9 18.9 0 5.7 2.4 10.6 6.3 14-3-3.1-4.9-7.5-4.9-12.4z"/><path class="st16" d="M427.4 383.2l4 7.9 8.7 1.3-6.3 6.1 1.5 8.7-7.9-4.1-7.7 4.1 1.4-8.7-6.3-6.1 8.9-1.3z"/></g><g><path d="M203.4 386.4l-3.7 29.7-6.8-15.5h-1.7c-.4 2.7-2.7 4.7-5.5 4.7h-2.5c1.8 4.6 3 9.6 3 14.9-.1 19.9-17.2 36-17.5 36.2 0 0-1.1-1-2.7-2.9-4.9-5.5-14.6-18.5-14.5-33.5 0-5.3 1.2-10.3 3.1-14.9h-2.5c-2.8 0-5.1-2.1-5.5-4.8H145l-6.9 15.4-3.5-29.7c-.8-4.4 2.1-8.7 6.5-9.5v-2c.2-17.8 4.9-34.6 13-49.1 4.2-7.5 9.3-14.4 15.1-20.6 5.8 6.2 10.9 13.2 15 20.7 8 14.6 12.6 31.4 12.7 49.2v2c4.4 1 7.4 5.3 6.5 9.7z" fill="#e2e2e2"/></g><g><path class="st15" d="M171.9 383.9l-.2 60.8c.5-.5 11.8-11.2 11.8-24.5 0-5.6-2-10.8-4.3-14.9h6.9c1.8 4.6 3 9.6 3 14.9-.1 19.9-17.2 36-17.5 36.2 0 0-1.1-1-2.7-2.9-4.9-5.5-14.6-18.5-14.5-33.5 0-5.3 1.2-10.3 3-14.9.7-1.7 1.4-3.2 2.2-4.8.2-.3.3-.6.5-.9 2.6-4.8 5.5-8.7 7.8-11.4 2.4-2.5 4-4.1 4-4.1z"/><path class="st1" d="M171.9 395.6l-.1 21c.1-.1 2.6-4.7 4-11.3h3.4c2.3 4.1 4.3 9.3 4.3 14.9 0 13.5-11.6 24.4-11.8 24.5 0 0-.7-.7-1.8-1.9-3.3-3.7-9.9-12.5-9.8-22.7 0-5.6 2-10.7 4.4-14.9.9-1.6 1.8-3 2.8-4.2.1-.2.3-.3.4-.5.2-.3.5-.6.7-.9 1.9-2.5 3.5-4 3.5-4z"/><path class="st6" d="M141.1 415.9l7.4-16.5-4.1-22.8h-.2c-4.5.8-7.5 5.1-6.7 9.6l3.6 29.7z"/><path class="st15" d="M171.9 399.6v5.7l-16.9-.1c-2.8 0-5.1-2.1-5.5-4.8 0-.3-.1-.5-.1-.8v-.1l22.5.1z"/><path class="st1" d="M187.2 325.6h-15.1l-15.1-.1c-8.2 14.6-12.9 31.3-13 49.1v2c.1 8.2 1.1 16.2 3.1 23.9l24.8.1.1-23.6c.1.2 2.5 4.7 3.9 11.2.5 2.6.9 5.6.9 8.7 0 .9 0 1.9-.1 2.8 0 .3-.1.6-.1.9H196.7c2-7.6 3.1-15.6 3.2-23.8v-2c0-17.9-4.6-34.6-12.7-49.2zM172 367.7l.1-24.6c6.8 0 12.3 5.6 12.2 12.3 0 6.9-5.5 12.4-12.3 12.3z"/><path class="st6" d="M187.2 325.6h-15.1l-15.1-.1c4.2-7.5 9.3-14.4 15.1-20.5 5.9 6.1 11 13.1 15.1 20.6z"/><path d="M172.1 343.1c-6.8 0-12.3 5.5-12.3 12.2 0 3.4 1.4 6.5 3.6 8.7 2.2 2.2 5.3 3.6 8.7 3.6 6.8 0 12.3-5.5 12.3-12.2 0-6.7-5.5-12.2-12.3-12.3zm-.1 22.1l.1-19.4c5.4 0 9.7 4.4 9.7 9.8-.1 5.2-4.4 9.6-9.8 9.6z" fill="#e5e5e5"/><path class="st1" d="M181.8 355.5c0 5.4-4.4 9.7-9.7 9.7-2.9 0-5.5-1.3-7.3-3.3-1.5-1.7-2.4-4-2.4-6.4 0-5.4 4.4-9.7 9.7-9.7 5.3-.1 9.7 4.3 9.7 9.7z"/><path class="st6" d="M172 377c.1.2 2.5 4.7 3.9 11.2.6 2.6.9 5.6.9 8.7 0 .9 0 1.9-.1 2.8 0 .3 0 .6-.1.9 0 .2 0 .3-.1.5-.2 1.5-.4 2.9-.7 4.3-1.4 6.6-3.9 11.2-4 11.3s-2.5-4.6-3.9-11.3c-.3-1.3-.5-2.8-.7-4.3v-.5c0-.3-.1-.6-.1-.9-.1-.9-.1-1.9-.1-2.8 0-3.1.4-6 1-8.7 1.4-6.6 4-11.2 4-11.2z"/><path class="st15" d="M184.1 400.6h-7.5c0 .2 0 .3-.1.5-.2 1.5-.4 2.9-.7 4.2h12.8c2.8 0 5.1-2.1 5.5-4.7h-10z"/><path class="st6" d="M206.5 386.4l-3.7 29.7-6.8-15.5h.7c2-7.6 3.1-15.6 3.2-23.8 4.5.9 7.4 5.2 6.6 9.6z"/></g><path class="st2" d="M420.3 139h-72v74.7h150.4V139z"/><path class="st1" d="M423 136.5H350.9v74.7h150.5v-74.7z"/><g><path class="st12" d="M428.1 154h38.6v2.7h-38.6z"/></g><g><path class="st12" d="M428.1 160h38.6v2.7h-38.6z"/></g><g><path class="st12" d="M428.1 166h38.6v2.7h-38.6z"/></g><g><path class="st12" d="M428.1 172h38.6v2.7h-38.6z"/></g><g><path class="st19" d="M428.1 177.9h38.6v2.7h-38.6z"/></g><g><path class="st19" d="M428.1 183.9h38.6v2.7h-38.6z"/></g><g><path class="st19" d="M428.1 189.9h38.6v2.7h-38.6z"/></g><g><path class="st12" d="M401.4 164.1h10v3.8h-10zM401.4 158.5h10v3.8h-10z"/></g><g><path class="st16" d="M477.7 153.6l-4-4.5 1.8-1.5 2.1 2.3 3.5-4.2 1.8 1.5zM477.7 165.3l-4-4.5 1.8-1.5 2.1 2.3 3.5-4.2 1.8 1.5zM477.7 177l-4-4.5 1.8-1.5 2.1 2.3 3.5-4.2 1.8 1.5z"/></g><g><path class="st16" d="M372.8 194h7.2v6h-7.2zM382.8 190.3h7.2v9.6h-7.2zM392.8 188h7.2v11.9h-7.2zM402.8 181.3h7.2v18.6h-7.2z"/><path class="st20" d="M370.9 199.9h40.5v2.7h-40.5z"/></g><g><path class="st20" d="M386.6 175c.3-.3.6-.7.9-1l.3-.3c.3-.4.6-.8.8-1.1.1-.1.1-.2.2-.3.3-.4.5-.8.8-1.3.1-.1.1-.2.2-.3.2-.5.5-.9.7-1.4 0-.1.1-.2.1-.3l.6-1.5c0-.1 0-.1.1-.2.2-.5.3-1.1.4-1.7v-.1l.3-1.8v-.1c.1-.6.1-1.3.1-1.9 0-10.6-8.7-19.1-19.3-19.1-10.6 0-19.1 8.7-19.1 19.3 0 10.6 8.7 19.1 19.3 19.1 5.2 0 9.8-2.1 13.2-5.4l.1-.1c.1-.2.2-.3.3-.5z"/><path d="M392 158.2c0 10.6-8.5 19.2-19.1 19.3-10.6 0-19.2-8.5-19.3-19.1 0-10.6 8.5-19.2 19.1-19.3 10.6-.1 19.2 8.5 19.3 19.1z" fill="#f9e23a"/><path class="st16" d="M353.6 158.3c0 10.6 8.7 19.1 19.3 19.1l-.2-38.3c-10.6 0-19.1 8.6-19.1 19.2z"/><path d="M372.7 139.1l.1 19.2 19.2-.1c-.1-10.6-8.7-19.2-19.3-19.1z" fill="#129cb2"/><path class="st0" d="M392 158.2c0 5.4-2.2 10.3-5.8 13.9l-13.3-13.2v-.6l19.1-.1z"/></g><g><path class="st10" d="M196.5 194.8c-3.5-.3-6.1-3.4-5.7-6.9.3-3.5 3.4-6.1 6.9-5.7 3.5.3 6.1 3.4 5.7 6.9-.3 3.5-3.4 6.1-6.9 5.7zm.9-10c-2.1-.2-3.9 1.3-4.1 3.4-.2 2.1 1.3 3.9 3.4 4.1 2.1.2 3.9-1.3 4.1-3.4.3-2.1-1.3-3.9-3.4-4.1zM155 248.8c-3.5-.3-6.1-3.4-5.7-6.9.3-3.5 3.4-6.1 6.9-5.7 3.5.3 6.1 3.4 5.7 6.9-.3 3.5-3.4 6-6.9 5.7zm.9-10.1c-2.1-.2-3.9 1.3-4.1 3.4-.2 2.1 1.3 3.9 3.4 4.1 2.1.2 3.9-1.3 4.1-3.4.2-2-1.3-3.9-3.4-4.1z"/><path class="st4" d="M193.5 238.2l-1.6-2-4.5 3.8-3.8-4.5-2 1.6 3.8 4.5-4.5 3.8 1.6 2 4.5-3.8 3.8 4.5 2-1.6-3.8-4.5zM170.8 196.2l-1.6-2-4.5 3.8-3.8-4.6-2 1.7 3.8 4.5-4.5 3.8 1.6 1.9 4.5-3.7 3.8 4.5 2-1.7-3.8-4.5z"/><path class="st16" d="M202.4 205.2l-6.2-7.4-7.2 6 1.6 2 3.9-3.2-.6 6.8c-.5 5-4.9 8.8-10 8.3l-15.5-1.4c-6.5-.6-12.2 4.2-12.8 10.6l-.5 5.9 2.6.2.5-5.9c.5-5 4.9-8.8 10-8.3l15.5 1.4c6.5.6 12.2-4.2 12.8-10.6l.6-6.8 3.4 4 1.9-1.6z"/></g></svg>