<svg xmlns="http://www.w3.org/2000/svg" viewBox="0 0 300 300"><path fill="#436B78" d="M244.564 151.23c-18.454 2.007-31.727 18.583-29.72 37.037 2.007 18.454 18.583 31.727 37.037 29.72 18.454-2.007 31.727-18.583 29.72-37.037-2.008-18.453-18.583-31.727-37.037-29.72zm4.468 40.792c-4.079.453-7.77-2.525-8.223-6.604-.453-4.079 2.525-7.77 6.604-8.223 4.079-.453 7.77 2.525 8.223 6.604.518 4.079-2.396 7.77-6.604 8.223z"/><path fill="#436B78" d="M239.41 145.015l8.882-.971.774 7.08-8.882.971-.774-7.08zM220.734 154.759l7.208-5.28 4.209 5.746-7.208 5.28-4.209-5.746zM209.517 172.413l3.597-8.18 6.52 2.867-3.597 8.18-6.52-2.867zM207.643 184.544l7.08-.774.971 8.882-7.08.774-.971-8.882zM213.145 204.839l5.745-4.21 5.281 7.208-5.745 4.21-5.281-7.208zM227.923 219.735l8.158 3.561 2.914-6.54-8.223-3.561-2.849 6.54zM247.434 218.115l8.882-.971.774 7.08-8.882.971-.774-7.08zM264.234 214.066l7.209-5.279 4.208 5.746-7.209 5.279-4.208-5.746zM276.841 202.154l3.599-8.179 6.519 2.869-3.599 8.179-6.519-2.869zM280.742 176.519l7.08-.774.971 8.882-7.08.774-.971-8.882zM272.409 161.391l5.746-4.209 5.28 7.209-5.746 4.209-5.28-7.209zM268.651 149.482l-8.223-3.561-2.914 6.475 8.223 3.626 2.914-6.54z"/><path fill="#81ABB5" d="M246.442 168.065c-9.13.971-15.734 9.259-14.763 18.324.971 9.13 9.259 15.734 18.324 14.763 9.13-.971 15.734-9.259 14.763-18.324-.907-9.13-9.13-15.734-18.324-14.763zm2.59 23.957c-4.079.453-7.77-2.525-8.223-6.604-.453-4.079 2.525-7.77 6.604-8.223 4.079-.453 7.77 2.525 8.223 6.604.518 4.079-2.396 7.77-6.604 8.223z"/><circle fill="#FFF" cx="248.125" cy="184.576" r="7.64"/><path fill="#436B78" d="M141.029 20.566h1.489v34.382h-1.489V20.566zM65.982 25.569l1.557-1.557 11.309 11.309-1.557 1.557-11.309-11.309z"/><path fill="#436B78" d="M65.981 35.268l11.31-11.308 1.557 1.557-11.31 11.308-1.557-1.557z"/><path fill="#436B78" d="M65.945 36.85l1.557-1.557 11.309 11.309-1.557 1.557L65.945 36.85z"/><path fill="#436B78" d="M65.991 46.602L77.3 35.293l1.557 1.557-11.309 11.309-1.557-1.557z"/><path fill="#436B78" d="M65.954 48.178l1.557-1.557L78.82 57.93l-1.557 1.557-11.309-11.309z"/><path fill="#436B78" d="M66 57.93l11.309-11.309 1.557 1.557-11.309 11.308L66 57.93z"/><path fill="#436B78" d="M65.963 59.505l1.557-1.557 11.309 11.309-1.557 1.557-11.309-11.309z"/><path fill="#436B78" d="M66.009 69.257l11.309-11.309 1.557 1.557-11.309 11.309-1.557-1.557z"/><path fill="#436B78" d="M65.972 70.832l1.557-1.557 11.309 11.309-1.557 1.557-11.309-11.309z"/><path fill="#436B78" d="M65.973 80.539L77.281 69.23l1.557 1.557-11.309 11.308-1.556-1.556z"/><path fill="#436B78" d="M65.981 82.159l1.557-1.557 11.309 11.309-1.557 1.557-11.309-11.309z"/><path fill="#436B78" d="M65.982 91.866L77.29 80.557l1.557 1.557-11.309 11.308-1.556-1.556z"/><path fill="#5090A7" d="M65.945 93.441l1.557-1.557 11.309 11.309-1.557 1.557-11.309-11.309z"/><path fill="#5090A7" d="M65.991 103.193L77.3 91.884l1.557 1.557-11.31 11.309-1.556-1.557z"/><g fill="#5090A7"><path d="M65.954 104.769l1.557-1.557 11.309 11.309-1.557 1.557-11.309-11.309z"/><path d="M66 114.521l11.309-11.309 1.557 1.557-11.309 11.309L66 114.521z"/></g><g fill="#5090A7"><path d="M65.963 116.096l1.557-1.557 11.309 11.309-1.557 1.557-11.309-11.309z"/><path d="M66.014 125.841l11.308-11.31 1.557 1.557-11.308 11.31-1.557-1.557z"/></g><g fill="#5090A7"><path d="M65.972 127.424l1.557-1.557 11.309 11.309-1.557 1.557-11.309-11.309z"/><path d="M65.972 137.129l11.309-11.309 1.557 1.557-11.309 11.309-1.557-1.557z"/></g><path fill="#436B78" d="M79.194 142.683H65.596V22.184h13.597v120.499h.001zM68.51 139.77h7.77V25.163h-7.77V139.77z"/><g fill="#436B78"><path d="M80.772 19.587L92.081 8.278l1.557 1.557-11.309 11.309-1.557-1.557z"/><path d="M80.727 9.835l1.557-1.557 11.309 11.309-1.557 1.557L80.727 9.835z"/></g><g fill="#436B78"><path d="M92.059 19.629L103.367 8.32l1.557 1.557-11.309 11.309-1.556-1.557z"/><path d="M92.054 9.826l1.557-1.557 11.309 11.309-1.557 1.557L92.054 9.826z"/></g><g fill="#436B78"><path d="M103.384 19.618l11.309-11.309 1.557 1.557-11.309 11.309-1.557-1.557z"/><path d="M103.382 9.817l1.557-1.557 11.309 11.309-1.557 1.557-11.309-11.309z"/></g><g fill="#436B78"><path d="M141.418 21.472h-14.892v-2.201h11.655l-11.59-8.806-10.619 10.684-1.554-1.554 11.331-11.331c.389-.388.971-.453 1.424-.129l14.957 11.331c.389.259.518.777.389 1.23-.195.452-.583.776-1.101.776z"/><path d="M114.394 9.83l1.557-1.557 11.309 11.309-1.557 1.557L114.394 9.83z"/></g><path fill="#436B78" d="M127.95 21.537H78.935V7.939h49.015v13.598zm-46.102-2.979h43.188v-7.77H81.848v7.77z"/><g fill="#436B78"><path d="M38.376 19.621L49.685 8.312l1.557 1.557-11.309 11.309-1.557-1.557z"/><path d="M38.376 9.823l1.557-1.557 11.309 11.309-1.557 1.557L38.376 9.823z"/></g><g fill="#436B78"><path d="M49.703 19.612L61.012 8.303l1.557 1.557L51.26 21.168l-1.557-1.556z"/><path d="M49.703 9.814l1.557-1.557 11.309 11.309-1.557 1.557L49.703 9.814z"/></g><path fill="#436B78" d="M63.265 21.537H37.883V7.939h25.382v13.598zm-22.468-2.979h19.49v-7.77h-19.49v7.77z"/><path fill="#868686" d="M51.027 137.374h42.735v7.64H51.027v-7.64z"/><path fill="#575756" d="M61.258 133.877h22.274v3.561H61.258v-3.561z"/><path fill="#73A1FB" d="M60.222 2.5h24.346v24.346H60.222V2.5zM141.806 65.761a3.62 3.62 0 0 1-3.626-3.626 3.556 3.556 0 0 1 2.525-3.432v-3.755c0-.583.518-1.101 1.101-1.101s1.101.518 1.101 1.101v5.763h-1.101c-.777 0-1.424.647-1.424 1.424s.648 1.424 1.424 1.424c.777 0 1.424-.647 1.424-1.424 0-.583.518-1.101 1.101-1.101s1.101.518 1.101 1.101c-.064 2.007-1.683 3.626-3.626 3.626z"/><path fill="#436B78" d="M150.418 70.747l-7.899-7.899-7.899 7.899-.971-.971 8.417-8.417a.704.704 0 0 1 .971 0l8.417 8.417-1.036.971z"/><path fill="#73A1FB" d="M144.267 61.034c-.583 0-1.101.518-1.101 1.101 0 .518-.324 1.036-.777 1.23.388.518.906 1.23 1.36 1.748.971-.647 1.619-1.748 1.619-2.978 0-.583-.454-1.101-1.101-1.101z"/><g fill="#E5E5E5"><path d="M235.111 121.963H37.689c-5.504 0-9.907 4.468-9.907 9.907v122.247c0 5.504 4.468 9.907 9.907 9.907H235.11c5.504 0 9.907-4.468 9.907-9.907V131.87c.065-5.504-4.403-9.907-9.906-9.907z"/><path d="M40.668 132.971h191.464v120.046H40.668V132.971z"/><path d="M261.658 251.527v9.518l-1.748 2.719a16.877 16.877 0 0 1-14.18 7.705H27.07c-5.698 0-11.007-2.914-14.115-7.705l-1.748-2.719v-9.518h250.451z"/><path d="M112.41 251.527h47.979v5.439H112.41v-5.439z"/></g><g><path fill="#FFF" d="M239.513 121.963H42.092c-5.504 0-9.907 4.468-9.907 9.907v122.247c0 5.504 4.468 9.907 9.907 9.907h197.421c5.504 0 9.907-4.468 9.907-9.907V131.87c.065-5.504-4.403-9.907-9.907-9.907z"/><path fill="#B0D49E" d="M45.071 132.971h191.464v120.046H45.071V132.971z"/><path fill="#FFF" d="M266.061 251.527v9.518l-1.748 2.719a16.877 16.877 0 0 1-14.18 7.705H31.473c-5.698 0-11.007-2.914-14.115-7.705l-1.748-2.719v-9.518h250.451z"/><path fill="#E5E5E5" d="M116.813 251.527h47.979v5.439h-47.979v-5.439z"/></g><g><path fill="#D4D4D4" d="M237.701 251.463H43.905V135.431c0-1.489 1.23-2.655 2.655-2.655h188.356c1.489 0 2.655 1.23 2.655 2.655.259.195.194 85.081.13 116.032z"/><path fill="#F7F7F7" d="M234.722 251.657H46.495V138.28a2.598 2.598 0 0 1 2.59-2.59h182.982a2.598 2.598 0 0 1 2.59 2.59c.195.195.13 83.204.065 113.377z"/></g><g><path fill="#E5E5E5" d="M57.179 88.747h170.874V244.47H57.179V88.747z"/><path fill="#FFF" d="M53.617 85.574h170.874v155.723H53.617V85.574z"/><path fill="#FFF" d="M55.819 99.949h1.813v1.942h-1.813v-1.942z"/></g><g><path fill="#E5E5E5" d="M165.893 71.718h-45.325c-1.748 0-3.108 1.36-3.108 3.108v45.519c0 1.748 1.36 3.108 3.108 3.108h45.325c1.748 0 3.108-1.36 3.108-3.108V74.826a3.109 3.109 0 0 0-3.108-3.108z"/><path fill="#FFF" d="M164.404 70.229h-45.325c-1.748 0-3.108 1.36-3.108 3.108v45.519c0 1.748 1.36 3.108 3.108 3.108h45.325c1.748 0 3.108-1.36 3.108-3.108V73.337a3.109 3.109 0 0 0-3.108-3.108z"/><path fill="#F7F7F7" d="M118.756 75.344h45.972v44.289h-45.972V75.344z"/><ellipse transform="rotate(-80.781 120.894 73.335)" fill="#F68360" cx="120.892" cy="73.337" rx="1.101" ry="1.101"/><circle fill="#FFDB79" cx="124.713" cy="73.337" r="1.101"/><circle fill="#2DAB66" cx="128.468" cy="73.337" r="1.101"/></g><g><path fill="#FF7D6C" d="M143.684 100.078c.13 2.784-2.137 4.921-6.151 4.856-3.82-.065-7.64-.971-7.64-4.597 0-2.525 2.007-3.561 6.604-4.144 4.273-.518 7.058.907 7.187 3.885z"/><path fill="#FFF" d="M133.195 101.567c-.194 0-.389 0-.583-.065-.389-.065-.647-.453-.583-.842.065-.388.453-.647.842-.583.518.065.712 0 2.201-.583l.194-.065c.13-.065.324-.129.453-.259.971-.583 2.525-1.489 4.986.324.324.194.388.647.194.971-.194.324-.647.388-.971.194-1.748-1.23-2.59-.712-3.496-.194-.259.129-.453.259-.647.324l-.194.065c-1.231.454-1.814.713-2.396.713z"/><path fill="#73A1FB" d="M141.029 108.042c-1.489-1.683-1.036-4.662 2.201-7.058 3.302-2.396 6.669-3.95 8.547-1.619 1.295 1.619.194 5.827-2.46 8.158-2.978 2.591-6.669 2.332-8.288.519z"/><path fill="#FFF" d="M142.324 107.006a.758.758 0 0 1-.712-.583c-.065-.388.194-.777.583-.842 2.655-.453 3.237-1.683 3.82-2.978.453-.971.971-2.072 2.396-2.59a.7.7 0 0 1 .906.453.7.7 0 0 1-.453.906c-.842.259-1.165.842-1.619 1.878-.647 1.425-1.489 3.238-4.921 3.756.065-.064.065 0 0 0z"/></g><g><path fill="#656A73" d="M137.339 91.207c-.194 0-.389-.065-.518-.259a.651.651 0 0 1 .065-.971c.065-.065.906-.971-.13-3.302-1.554-3.367.13-4.856.194-4.921.324-.259.712-.259.971.065s.259.712-.065.971c0 0-.906.906.194 3.237 1.554 3.367-.13 4.856-.194 4.921-.194.195-.388.259-.517.259z"/></g><g><path fill="#656A73" d="M142.324 91.207c-.194 0-.389-.065-.518-.259a.651.651 0 0 1 .065-.971c.065-.065.906-.971-.13-3.302-1.554-3.367.13-4.856.194-4.921.324-.259.712-.259.971.065s.259.712-.065.971c0 0-.906.906.194 3.302 1.554 3.367-.13 4.856-.194 4.921-.193.13-.322.194-.517.194z"/></g><g><path fill="#656A73" d="M147.31 91.207c-.194 0-.389-.065-.518-.259a.651.651 0 0 1 .065-.971c.065-.065.906-.971-.13-3.302-1.554-3.367.13-4.856.194-4.921.324-.259.712-.259.971.065s.259.712-.065.971c0 0-.906.906.194 3.302 1.554 3.367-.13 4.856-.194 4.921-.193.13-.323.194-.517.194z"/></g><g><path fill="#F68360" d="M67.668 129.798h10.619v1.942H67.668v-1.942zm0 13.339h10.619v1.942H67.668v-1.942z"/><path fill="#73A1FB" d="M81.395 129.798h12.173v1.942H81.395v-1.942zm0 13.339h38.914v1.942H81.395v-1.942z"/><path fill="#F68360" d="M95.057 129.798h9.712v1.942h-9.712v-1.942z"/><path fill="#73A1FB" d="M78.676 134.849h17.029v1.942H78.676v-1.942zm0 23.568h17.029v1.942H78.676v-1.942z"/><path fill="#F68360" d="M78.676 188.785h17.029v1.942H78.676v-1.942z"/><path fill="#73A1FB" d="M78.676 163.468h6.993v1.942h-6.993v-1.942z"/><path fill="#F68360" d="M99.654 158.417h44.742v1.942H99.654v-1.942z"/><path fill="#73A1FB" d="M96.87 173.698h15.54v1.942H96.87v-1.942zm.324 10.101h15.54v1.942h-15.54v-1.942zm0 40.598h15.54v1.942h-15.54v-1.942z"/><path fill="#F68360" d="M116.36 173.698h25.252v1.942H116.36v-1.942zm0 10.101h10.943v1.942H116.36v-1.942zm-6.669 10.036h12.756v1.942h-12.756v-1.942z"/><path fill="#73A1FB" d="M109.691 214.167h24.67v1.942h-24.67v-1.942z"/><path fill="#F68360" d="M117.914 224.397h9.13v1.942h-9.13v-1.942zm61.512-20.331h12.82l1.101 1.942h-12.82l-1.101-1.942z"/><path fill="#73A1FB" d="M146.015 173.698h13.986v1.942h-13.986v-1.942z"/><path fill="#F68360" d="M162.461 173.698h5.568l1.101 1.942h-6.669v-1.942z"/><path fill="#73A1FB" d="M149.512 158.417h32.245v1.942h-32.245v-1.942z"/><path fill="#F68360" d="M186.678 158.417h19.749v1.942h-19.749v-1.942zm-108.002-10.23h25.576v1.942H78.676v-1.942zm0 5.245h36.195v1.942H78.676v-1.942zm9.388 10.036h41.375v1.942H88.064v-1.942z"/><path fill="#73A1FB" d="M88.064 199.08h41.375v1.942H88.064v-1.942zm13.403 4.986h24.929v1.942h-24.929v-1.942z"/><path fill="#F68360" d="M101.467 219.412h11.849v1.942h-11.849v-1.942zm25.512 0h25.252v1.942h-25.252v-1.942z"/><path fill="#73A1FB" d="M134.619 224.397h17.612v1.942h-17.612v-1.942zm3.95-20.331h39.562v1.942h-39.562v-1.942z"/><path fill="#F68360" d="M138.569 214.167h39.562v1.942h-39.562v-1.942zm-50.505-45.649h5.763v1.942h-5.763v-1.942zm0 10.231h14.569v1.942H88.064v-1.942z"/><path fill="#73A1FB" d="M88.064 193.835h14.569v1.942H88.064v-1.942z"/><path fill="#F68360" d="M88.064 204.066h9.712v1.942h-9.712v-1.942zm0 10.101h16.705v1.942H88.064v-1.942z"/><path fill="#73A1FB" d="M88.064 219.412h9.13v1.942h-9.13v-1.942zm28.296 0h7.576v1.942h-7.576v-1.942z"/><path fill="#F68360" d="M129.115 204.066h6.669v1.942h-6.669v-1.942z"/><path fill="#73A1FB" d="M96.87 168.518H106v1.942h-9.13v-1.942zm0 40.598h25.835v1.942H96.87v-1.942z"/><path fill="#F68360" d="M125.684 209.116h20.655v1.942h-20.655v-1.942z"/><path fill="#73A1FB" d="M148.735 209.116h45.325v1.942h-45.325v-1.942z"/><path fill="#F68360" d="M107.23 168.518h7.317v1.942h-7.317v-1.942z"/><path fill="#73A1FB" d="M116.36 168.518h25.252v1.942H116.36v-1.942zm15.54-5.05h7.317v1.942H131.9v-1.942z"/><path fill="#F68360" d="M143.49 163.468h13.986v1.942H143.49v-1.942z"/><path fill="#73A1FB" d="M118.497 153.432h36.195v1.942h-36.195v-1.942z"/><path fill="#F68360" d="M191.599 153.432h11.266l1.101 1.878H192.7l-1.101-1.878zm-35.612 0h22.533v1.942h-22.533v-1.942z"/><path fill="#73A1FB" d="M181.433 153.432h7.317v1.942h-7.317v-1.942zm25.252 0h7.317v1.942h-7.317v-1.942z"/><path fill="#F68360" d="M112.41 148.187h39.238v1.942H112.41v-1.942z"/><path fill="#73A1FB" d="M105.741 148.187h4.856v1.942h-4.856v-1.942z"/><path fill="#F68360" d="M97.777 134.849h6.993v1.942h-6.993v-1.942z"/><path fill="#73A1FB" d="M106.324 134.849h5.504v1.942h-5.504v-1.942z"/></g><g><path fill="#FFF" d="M182.34 89.718l-1.683-2.396 16.576-12.238L217.5 57.472l18 16.705 18.13-10.489 19.49-18.324 2.007 2.137-19.878 18.713-20.202 11.59-17.612-16.382-18.389 15.993-16.706 12.303z"/><circle fill="#FFF" cx="198.074" cy="76.315" r="4.986"/><path fill="#73A1FB" d="M200.534 76.445a2.37 2.37 0 0 1-2.59 2.266 2.37 2.37 0 0 1-2.266-2.59 2.37 2.37 0 0 1 2.59-2.266c1.295.129 2.331 1.23 2.266 2.59z"/><path fill="#FFF" d="M222.42 59.739c-.13 2.719-2.525 4.856-5.245 4.662-2.719-.129-4.856-2.525-4.662-5.245.13-2.719 2.525-4.856 5.245-4.662 2.719.195 4.856 2.526 4.662 5.245z"/><path fill="#F68360" d="M219.894 59.61a2.37 2.37 0 0 1-2.59 2.266 2.37 2.37 0 0 1-2.266-2.59c.065-1.36 1.23-2.396 2.59-2.266s2.331 1.23 2.266 2.59z"/><path fill="#FFF" d="M240.226 76.25c-.13 2.719-2.525 4.856-5.245 4.662-2.719-.129-4.856-2.525-4.662-5.245.13-2.719 2.525-4.856 5.245-4.662 2.719.195 4.856 2.526 4.662 5.245z"/><path fill="#73A1FB" d="M237.701 76.121a2.37 2.37 0 0 1-2.59 2.266 2.37 2.37 0 0 1-2.266-2.59 2.37 2.37 0 0 1 2.59-2.266c1.294.129 2.33 1.23 2.266 2.59z"/><path fill="#FFF" d="M259.456 65.178c-.13 2.719-2.525 4.856-5.245 4.662-2.719-.129-4.856-2.525-4.662-5.245.13-2.719 2.525-4.856 5.245-4.662a5.026 5.026 0 0 1 4.662 5.245z"/><path fill="#F68360" d="M256.931 65.049a2.37 2.37 0 0 1-2.59 2.266 2.37 2.37 0 0 1-2.266-2.59 2.37 2.37 0 0 1 2.59-2.266c1.295.129 2.331 1.23 2.266 2.59z"/><g><path fill="#FFF" d="M279.075 46.724c-.13 2.719-2.525 4.856-5.245 4.662-2.72-.129-4.856-2.525-4.662-5.245.13-2.719 2.525-4.856 5.245-4.662s4.857 2.526 4.662 5.245z"/><path fill="#73A1FB" d="M276.55 46.595a2.37 2.37 0 0 1-2.59 2.266 2.37 2.37 0 0 1-2.266-2.59 2.37 2.37 0 0 1 2.59-2.266c1.295.065 2.331 1.23 2.266 2.59z"/></g></g><g><path fill="#EAE3E1" d="M22.797 259.038v29.267c0 1.878.712 3.755 2.137 5.18s3.237 2.137 5.18 2.137h25.123a7.302 7.302 0 0 0 5.18-2.137 7.351 7.351 0 0 0 2.137-5.18v-29.267H22.797z"/><path fill="#EAE3E1" d="M55.107 259.038v29.267a7.302 7.302 0 0 1-2.137 5.18c-1.489 1.489-3.302 2.137-5.18 2.137h7.381a7.302 7.302 0 0 0 5.18-2.137c1.489-1.489 2.137-3.302 2.137-5.18v-29.267h-7.381zm11.59 24.735h-4.144v-2.784h4.144c.583 0 1.036-.259 1.489-.583.389-.388.583-.906.583-1.489v-9.971c0-.583-.259-1.036-.583-1.489-.388-.389-.906-.583-1.489-.583h-4.144v-2.784h4.144a5.08 5.08 0 0 1 3.432 1.36c.907.842 1.36 2.137 1.36 3.432v9.971a5.08 5.08 0 0 1-1.36 3.432c-1.036.97-2.267 1.488-3.432 1.488zm-36.584 11.849h24.993v1.878H30.113v-1.878zM26.487 247.124a5.5 5.5 0 0 0 5.504 5.504h2.266c1.683 0 3.173 1.424 3.173 3.237v3.237h12.756v-4.209 1.036a3.205 3.205 0 0 1 3.237-3.237h22.209c3.043 0 5.504-2.46 5.504-5.504s-2.46-5.504-5.504-5.504h-2.978c-1.683 0-3.173-1.424-3.173-3.237a3.205 3.205 0 0 1 3.237-3.237h13.079c4.079 0 7.446-3.302 7.446-7.446 0-4.079-3.302-7.446-7.446-7.446H42.934c-4.079 0-7.446 3.302-7.446 7.446 0 4.079 3.302 7.446 7.446 7.446h10.684a3.205 3.205 0 0 1 3.237 3.237 3.42 3.42 0 0 1-.453 1.684l-1.165 1.036c-.453.194-.971.389-1.424.389H31.991c-3.043.065-5.504 2.525-5.504 5.568z"/></g><g><path fill="#FF7D6C" d="M24.674 259.038v29.267c0 1.878.712 3.755 2.137 5.18s3.237 2.137 5.18 2.137h25.123a7.302 7.302 0 0 0 5.18-2.137 7.351 7.351 0 0 0 2.137-5.18v-29.267H24.674z"/><path fill="#FF8C83" d="M56.984 259.038v29.267a7.302 7.302 0 0 1-2.137 5.18c-1.489 1.489-3.302 2.137-5.18 2.137h7.381a7.302 7.302 0 0 0 5.18-2.137c1.489-1.489 2.137-3.302 2.137-5.18v-29.267h-7.381zm11.526 24.735h-4.144v-2.784h4.144c.583 0 1.036-.259 1.489-.583.389-.388.583-.906.583-1.489v-9.971c0-.583-.259-1.036-.583-1.489-.389-.389-.906-.583-1.489-.583h-4.144v-2.784h4.144a5.08 5.08 0 0 1 3.432 1.36c.906.842 1.36 2.137 1.36 3.432v9.971a5.08 5.08 0 0 1-1.36 3.432c-.972.97-2.202 1.488-3.432 1.488z"/><path fill="#E86D64" d="M31.926 295.622H56.92v1.878H31.926v-1.878z"/><path fill="#EAEAEA" d="M28.3 247.124a5.5 5.5 0 0 0 5.504 5.504h2.266c1.683 0 3.173 1.424 3.173 3.237v3.237h12.756v-4.209 1.036a3.205 3.205 0 0 1 3.237-3.237h22.209c3.043 0 5.504-2.46 5.504-5.504s-2.46-5.504-5.504-5.504h-2.978c-1.683 0-3.173-1.424-3.173-3.237a3.205 3.205 0 0 1 3.237-3.237H87.61c4.079 0 7.446-3.302 7.446-7.446 0-4.079-3.302-7.446-7.446-7.446H44.747c-4.079 0-7.446 3.302-7.446 7.446 0 4.079 3.302 7.446 7.446 7.446H55.43a3.205 3.205 0 0 1 3.237 3.237 3.42 3.42 0 0 1-.453 1.684l-1.165 1.036c-.453.194-.971.389-1.424.389H33.804c-3.043.065-5.504 2.525-5.504 5.568z"/></g></svg>