<svg version="1.1" id="main" xmlns="http://www.w3.org/2000/svg" x="0" y="0" viewBox="0 0 604.5 460" xml:space="preserve"><style>.st0{fill:#fff}.st1{fill:#83e588}.st3{fill:#e1ecee}.st4{fill:#ccc}.st5{fill:#666}.st8{fill:#ddd}.st9{fill:#999}.st11{fill:gray}.st12{fill:#d2dbdb}.st13{fill:#f4ca60}.st14{fill:#00c3ff}.st15{fill:#b781ea}.st17{fill:#e89282}.st18{fill:#2fb78f}</style><path class="st0" d="M142.5 402.5v34.7c.1 11.8 33 21.3 73.5 21.3s73.4-9.5 73.5-21.3v-34.7h-147z"/><ellipse class="st0" cx="216" cy="402.5" rx="73.5" ry="21.4"/><path class="st1" d="M146.3 382.9v14.7c.1 11.1 31.3 20.2 69.7 20.2 38.4 0 69.5-9 69.7-20.2v-14.7H146.3z"/><ellipse cx="216" cy="382.9" rx="69.7" ry="20.2" fill="#06b4e9"/><path class="st0" d="M142.5 347.1v34.7c.1 11.8 33 21.3 73.5 21.3s73.4-9.5 73.5-21.3v-34.7h-147z"/><ellipse class="st0" cx="216" cy="347.1" rx="73.5" ry="21.4"/><path class="st1" d="M146.3 327.6v14.7c.1 11.1 31.3 20.2 69.7 20.2 38.4 0 69.5-9 69.7-20.2v-14.7H146.3z"/><path class="st0" d="M142.5 291.8v34.7c.1 11.8 33 21.3 73.5 21.3s73.4-9.5 73.5-21.3v-34.7h-147z"/><ellipse class="st3" cx="216" cy="291.8" rx="73.5" ry="21.4"/><path class="st4" d="M317.9 69.7c5.2-.8 11.6-12.9 11.7-13 6.4-12.3 2.6-26.7-2.9-36.1C322.2 13 314.3 11 308 9.5c-1.1-.3-2.1-.6-3.2-.9-2.8-.8-5.7-1.6-9-1.8-2.1-.1-4 .2-5.9.5-1.8.3-3.5.5-5.1.4l-.3 4.6c2.1.1 4.2-.2 6.1-.5 1.7-.3 3.3-.5 4.9-.5 2.7.1 5.2.8 7.9 1.6l3.3.9c7.2 1.8 12.5 3.5 15.8 9 5 8.3 8.3 21 2.8 31.6-2.2 4.2-6.7 10.2-8.3 10.5l.9 4.8z"/><path class="st0" d="M160.6 333.5l3.9-2.5c-4.1-6.4-8.1-13.1-11.2-18.8-6.1-11.1-9.8-20.2-9.8-31.2 0-9.1 1.4-15.7 4.8-21.9 2.9-5.3 7.2-9.4 10.6-12.4.8-.7 1.7-1.5 2.6-2.3 4.7-4.2 10.5-9.5 15.5-10.6l-1-4.5c-6.2 1.4-12.5 7.1-17.6 11.7-.9.8-1.8 1.6-2.6 2.3-3.7 3.3-8.4 7.7-11.6 13.7-3.8 6.9-5.4 14.1-5.4 24.1 0 13.3 5.4 24.2 10.4 33.5 3.2 5.6 7.2 12.4 11.4 18.9z"/><path class="st0" d="M169.1 319.5l3.5-3c-1.2-1.4-2.3-2.6-3.4-3.8-3.1-3.3-5.4-5.7-6.8-10.7-1.4-4.8-1.7-10.4-.9-16.7 1.6-12.3 7.8-23.3 13.7-34 2.2-4 4.5-8.1 6.5-12.2l-4.2-2.1c-2 4-4.2 8.1-6.4 12-6.2 11.1-12.5 22.5-14.3 35.7-.9 6.9-.5 13.1 1 18.5 1.8 6.1 4.6 9.1 7.9 12.6 1.2 1.2 2.3 2.3 3.4 3.7z"/><path transform="rotate(-180 305.742 85.17)" class="st0" d="M280.1 75.2h51.2v20h-51.2z"/><path class="st5" d="M289.2 75.2h33.1V65c0-5.3-4.3-9.5-9.5-9.5h-14c-5.3 0-9.5 4.3-9.5 9.5v10.2zm6.5 50.9h20.1c7.5 0 13.6-6.1 13.6-13.6V95.2H282v17.3c0 7.5 6.1 13.6 13.7 13.6z"/><path transform="rotate(146.731 106.186 174.531)" fill="#e6e6e6" d="M99.1 141.2h14.2v66.7H99.1z"/><path class="st0" d="M140.8 238.7l10.4-6.8c3.9-2.6 5-7.8 2.4-11.7l-15.9-24.3c-2.6-3.9-7.8-5-11.7-2.4l-10.4 6.8c-3.9 2.6-5 7.8-2.4 11.7l15.9 24.3c2.6 3.8 7.8 4.9 11.7 2.4z"/><path d="M61 119l22.6 39.1c1.5 2.6 4.7 3.4 7.3 2l6.8-3.9c2.6-1.5 3.4-4.7 2-7.3l-22.6-39.1c-1.5-2.6-4.7-3.4-7.3-2l-6.8 3.9c-2.6 1.4-3.4 4.7-2 7.3z" fill="#f7f7f7"/><path class="st0" d="M79.2 134.5l208.5-99.9c8.5-4.1 12.1-14.3 8-22.8l-.2-.5c-4.1-8.5-14.3-12.1-22.8-8L64.2 103.2c-8.5 4.1-12.1 14.3-8 22.8l.2.5c4.1 8.5 14.3 12.1 22.8 8zm117.2 100.3h35.2c13.2 0 23.8 10.7 23.8 23.8v39.5h-82.8v-39.5c-.1-13.1 10.6-23.8 23.8-23.8z"/><path class="st8" d="M93.1 114.2l105 160.8c5.5 8.5 16.9 10.9 25.4 5.3 8.5-5.5 10.9-16.9 5.3-25.4l-105-160.8c-5.5-8.5-16.9-10.9-25.4-5.3-8.4 5.5-10.8 16.9-5.3 25.4z"/><ellipse transform="rotate(-86.579 213.032 264.396) scale(.99998)" class="st9" cx="213" cy="264.4" rx="12.5" ry="12.5"/><circle class="st5" cx="213" cy="264.4" r="5.9"/><ellipse transform="rotate(-83.638 108.847 104.758)" class="st9" cx="108.8" cy="104.8" rx="12.5" ry="12.5"/><ellipse transform="rotate(-78.042 108.845 104.754)" class="st5" cx="108.8" cy="104.8" rx="5.9" ry="5.9"/><path class="st8" d="M267.2 23.5L299 72.2c1.9 3 5.9 3.8 8.9 1.9l8-5.2c3-1.9 3.8-5.9 1.9-8.9L286 11.3c-1.9-3-5.9-3.8-8.9-1.9l-8 5.2c-3 1.9-3.8 5.9-1.9 8.9z"/><ellipse transform="rotate(-78.036 305.747 62.854)" class="st9" cx="305.7" cy="62.9" rx="6" ry="6"/><ellipse transform="rotate(-76.927 305.746 62.855)" class="st5" cx="305.7" cy="62.9" rx="2.8" ry="2.8"/><ellipse transform="rotate(-78.253 279.002 19.483)" class="st9" cx="279" cy="19.5" rx="6" ry="6"/><ellipse transform="rotate(-76.256 278.99 19.493)" class="st5" cx="279" cy="19.5" rx="2.8" ry="2.8"/><circle class="st4" cx="71.2" cy="118.4" r="7.7"/><circle class="st5" cx="71.2" cy="118.4" r="2.5"/><circle class="st9" cx="90" cy="150.5" r="4.6"/><path class="st5" d="M88.5 150.5c0 .8.7 1.5 1.5 1.5s1.5-.7 1.5-1.5-.7-1.5-1.5-1.5c-.8.1-1.5.7-1.5 1.5z"/><path d="M131.6 231.4h58.7c3 0 5.3-2.4 5.3-5.3v-7.9c0-3-2.4-5.3-5.3-5.3h-58.7c-3 0-5.3 2.4-5.3 5.3v7.9c0 2.9 2.3 5.3 5.3 5.3z" fill="#cecece"/><ellipse transform="rotate(-9.213 187.26 222.09)" class="st11" cx="187.3" cy="222.1" rx="5" ry="5"/><ellipse transform="rotate(-45.001 134.611 222.132)" class="st11" cx="134.6" cy="222.1" rx="5" ry="5"/><path class="st8" d="M346.5 154.6c3-2.1 3.6-6.3 1.5-9.2l-26.4-36.6c-2.1-3-6.3-3.6-9.2-1.5-3 2.1-3.6 6.3-1.5 9.2l26.4 36.6c2.2 3 6.3 3.7 9.2 1.5z"/><path class="st0" d="M346.5 143.9c3 2.1 3.6 6.3 1.5 9.2l-26.4 36.6c-2.1 3-6.3 3.6-9.2 1.5-3-2.1-3.6-6.3-1.5-9.2l26.4-36.6c2.2-3 6.3-3.7 9.2-1.5z"/><path class="st9" d="M340.3 145.6c-2 1.3-2.6 4-1.3 6s4 2.6 6 1.3 2.6-4 1.3-6-4-2.6-6-1.3z"/><path class="st5" d="M341.5 147.5c-.9.6-1.2 1.9-.6 2.8.6.9 1.9 1.2 2.8.6.9-.6 1.2-1.9.6-2.8-.6-.9-1.8-1.2-2.8-.6z"/><g><path class="st8" d="M264.9 154.6c-3-2.1-3.6-6.3-1.5-9.2l26.4-36.6c2.1-3 6.3-3.6 9.2-1.5 3 2.1 3.6 6.3 1.5 9.2l-26.4 36.6c-2.1 3-6.2 3.7-9.2 1.5z"/><path class="st0" d="M264.9 143.9c-3 2.1-3.6 6.3-1.5 9.2l26.4 36.6c2.1 3 6.3 3.6 9.2 1.5 3-2.1 3.6-6.3 1.5-9.2l-26.4-36.6c-2.1-3-6.2-3.7-9.2-1.5z"/><ellipse transform="rotate(-34.895 268.854 149.234)" class="st9" cx="268.8" cy="149.2" rx="4.3" ry="4.3"/><path class="st5" d="M270 147.5c.9.6 1.2 1.9.6 2.8-.6.9-1.9 1.2-2.8.6-.9-.6-1.2-1.9-.6-2.8.5-.9 1.8-1.2 2.8-.6z"/></g><g><path class="st12" d="M545.1 255.5c0 41.5-33.7 75.2-75.2 75.2s-75.2-33.7-75.2-75.2 33.7-75.2 75.2-75.2 75.2 33.6 75.2 75.2z"/><path class="st12" d="M394.7 255.5h39.6v59.4h-39.6z"/><path class="st12" d="M402.6 314.8h-27.7l19.8-51.4z"/><path class="st12" d="M495.6 358.4h-97l-3.9-43.6 110.8-7.9z"/><path class="st12" d="M531.2 401.9h-95v-49.5l81.2-33.6z"/><path class="st12" d="M489.7 344.6l29.6-12 21.8-53.4-51.4 7.9z"/></g><g><path class="st3" d="M550 249.7c0 41.5-33.7 75.2-75.2 75.2s-75.2-33.7-75.2-75.2 33.7-75.2 75.2-75.2 75.2 33.7 75.2 75.2z"/><path class="st3" d="M399.6 249.7h39.6v59.4h-39.6z"/><path class="st3" d="M407.5 309.1h-27.7l19.8-51.5z"/><path class="st3" d="M500.5 352.6h-96.9l-4-43.5 110.8-7.9z"/><path class="st3" d="M536.2 396.2h-95v-49.5l81.1-33.7z"/><path class="st3" d="M494.6 338.8l29.7-11.9 21.8-53.4-51.5 7.9z"/></g><g><path class="st0" d="M502.4 378.3h-3.7v-91.1h-31.6v-23.6h3.6v19.9h31.7z"/><path class="st0" d="M494.5 424.4H285.8v-3.7h205V277.3h-33.6v-15.9h-33.7v-9.7h3.7v6.1h33.6v15.8h33.7zm12.1-156.9h3.6v73.2h-3.6z"/><path class="st0" d="M524.1 269.4h-23.6v-3.7h20v-6.1h3.6z"/><path class="st0" d="M530.1 261.4h-41.4v-3.6h37.7v-8.1h3.7z"/><circle class="st13" cx="498.6" cy="267.5" r="4"/><circle class="st14" cx="488.7" cy="259.6" r="4"/><circle class="st15" cx="468.9" cy="261.6" r="4"/><path class="st0" d="M486.5 354.6h-3.6v-59.5H477v-63.2h3.6v59.5h5.9zm29.7-95h-3.6v-11.7h17.8v-12h3.6v15.6h-17.8z"/><path class="st0" d="M508.3 251.5h-23.4v-11.8h-6.1V236h9.7v11.9h16.2v-8.1h3.6zm-59.4 8.1h-3.6v-6.1h-29.7v-11.7h3.7v8.1h29.6zm27.9-6.1h-21.6v-15.6h3.6v12h18z"/><path class="st0" d="M433.1 251.7h-3.6V242h11.8v-20h3.7v23.6h-11.9zm93.2-29.8h-7.8V212h-12v-3.7h15.7v9.9h4.1z"/><path class="st0" d="M443.2 233.7h-21.6V220h3.6v10.1h18z"/><path class="st0" d="M435.1 231.9h-3.7v-23.6h19.7v3.7h-16zm41.7 13.7h-11.7v-15.8h-21.9v-3.7h25.5V242h8.1zm47.3-5.8h-3.6v-10h-17.8v-29.5h3.6v25.8h17.8z"/><path class="st0" d="M474.8 212h-15.6v-9.9H441v8.1h-3.6v-11.8h25.4v9.9h12zm31.7 0h-23.6v-17.7h3.6v14h20zm-8.1 19.9h-3.6v-15.7h19.4V228h-3.6v-8.1h-12.2zm-39.6-3.9h-3.6v-9.8h31.5v3.7h-27.9z"/><path class="st0" d="M496.4 210.2h-3.6v-8.1h-25.7v-9.8h3.6v6.1h25.7zm-13.5 148.4h3.6v4h-3.6zm0 7.9h3.6v4h-3.6zm0 7.9h3.6v9.9h-3.6zm15.8 7.9h3.6v4h-3.6zm7.9-37.6h3.6v4h-3.6zm0 7.9h3.6v4h-3.6z"/><circle class="st15" cx="496.6" cy="233.9" r="4"/><circle class="st15" cx="443.2" cy="220" r="4"/><circle class="st15" cx="468.9" cy="192.3" r="4"/><circle class="st14" cx="474.8" cy="210.2" r="4"/><circle class="st14" cx="417.4" cy="239.8" r="4"/><circle class="st14" cx="532.2" cy="233.9" r="4"/><circle class="st13" cx="486.7" cy="220" r="4"/><circle class="st13" cx="504.5" cy="198.3" r="4"/><circle class="st13" cx="423.4" cy="218.1" r="4"/><circle class="st17" cx="506.5" cy="237.9" r="4"/><circle class="st17" cx="528.2" cy="220" r="4"/><circle class="st17" cx="457" cy="237.9" r="4"/><circle class="st18" cx="484.7" cy="192.3" r="4"/><circle class="st18" cx="522.3" cy="239.8" r="4"/><circle class="st18" cx="478.8" cy="229.9" r="4"/><circle class="st18" cx="451.1" cy="210.2" r="4"/></g><g><circle class="st0" cx="374.1" cy="422.8" r="31"/><path class="st1" d="M357.8 423l3.1-3.1 8.7 8.7 17.7-17.7 3.1 3.1-20.8 20.8z"/></g></svg>