<svg version="1" xmlns="http://www.w3.org/2000/svg" viewBox="0 0 300 300"><path fill="#E9F4F2" d="M288.395 61.28l-10.883 4.374h.051l2.746-1.119-2.746 8.29v23.546h.763l.356 114.783h-1.17v36.871h-3.357v-36.871h-.712l-.356-114.783h1.017V73.384h-.051l-1.373-2.187-1.831-2.848 3.255-1.322-14.341 5.747-1.78-4.424-1.271.509.61 1.475-14.189 15.664-5.899-14.748-1.627-4.119-5.899-14.748 21.004 1.373.661 1.678 1.271-.509-1.729-4.374 28.581-11.494c3.916-1.577 8.34.356 9.917 4.221l3.255 8.137c1.525 3.915-.357 8.339-4.273 9.865z"/><path fill="#FFF" d="M272.375 65.654h3.357v182.421h-3.357V65.654z"/><path fill="#FFF" d="M276.952 211.204h-5.289l-.305-114.783h5.238l.356 114.783z"/><path fill="#5B5B7C" d="M245.076 57.187l6.705-2.682 5.383 13.457-6.705 2.682-5.383-13.457z"/><path fill="#FFF" d="M257.983 72.774l28.683-11.494a7.605 7.605 0 0 0 4.221-9.917l-3.255-8.137a7.605 7.605 0 0 0-9.917-4.221l-28.683 11.494 8.951 22.275z"/><path fill="#8585C1" d="M266.763 58.801l19.168-7.675 2.533 6.326-19.168 7.675-2.533-6.326zM241.353 85.996l-5.899-14.748-1.627-4.119-5.95-14.748 21.054 1.373 2.492 6.306 1.678 4.119 2.441 6.154-14.189 15.663zm22.682-21.156a.543.543 0 0 0 .763.305.543.543 0 0 0 .305-.763l-5.238-13.121a.543.543 0 0 0-.763-.305.543.543 0 0 0-.305.763l5.238 13.121zm-1.627.661a.543.543 0 0 0 .763.305.543.543 0 0 0 .305-.763l-5.289-13.172a.543.543 0 0 0-.763-.305.543.543 0 0 0-.305.763l5.289 13.172zm-1.628.661a.543.543 0 0 0 .763.305.543.543 0 0 0 .305-.763l-5.289-13.172a.543.543 0 0 0-.763-.305.543.543 0 0 0-.305.763l5.289 13.172zm-1.627.661a.543.543 0 0 0 .763.305.543.543 0 0 0 .305-.763l-5.289-13.172a.543.543 0 0 0-.763-.305.543.543 0 0 0-.305.763l5.289 13.172z"/><path fill="#FFF" d="M269.07 68.4l9.561-3.814-3.001 8.849h-3.306L269.07 68.4z"/><path fill="#EAEAEA" d="M269.07 68.4l9.561-3.814-7.73 6.662-1.831-2.848z"/><path fill="#3C3C68" d="M188.157 102.626l-22.275-5.543-31.124 5.543v-55.28s13.579-8.29 31.327-1.983c12.307 4.374 22.072 1.983 22.072 1.983v55.28z"/><path fill="#FFF" d="M181.75 48.82h5.136v3.102h-5.136V48.82zm0 6.815h5.136v3.102h-5.136v-3.102zm0 6.764h5.136v3.102h-5.136v-3.102zm0 6.815h5.136v3.102h-5.136v-3.102zm0 6.814h5.136v3.102h-5.136v-3.102zm0 6.764h5.136v3.102h-5.136v-3.102zm0 6.815h5.136v3.102h-5.136v-3.102zm0 6.764h5.136v3.102h-5.136v-3.102zM136.487 48.82h5.136v3.102h-5.136V48.82zm0 6.815h5.136v3.102h-5.136v-3.102zm0 6.764h5.136v3.102h-5.136v-3.102zm0 6.815h5.136v3.102h-5.136v-3.102zm0 6.814h5.136v3.102h-5.136v-3.102zm0 6.764h5.136v3.102h-5.136v-3.102zm0 6.815h5.136v3.102h-5.136v-3.102zm0 6.764h5.136v3.102h-5.136v-3.102z"/><path fill="#8585C1" d="M143.353 61.992h36.261v25.276h-36.261V61.992z"/><path fill="#9AAAE5" d="M179.563 105.423V92.608h-36.261v9.51s8.646-.407 17.698 2.746c8.798 3.051 18.563.559 18.563.559zM179.563 56.906v-9.002s-8.849-1.221-17.037-3.814c-8.188-2.594-19.173-.153-19.173-.153v12.968h36.21v.001z"/><path fill="#FFF" d="M153.677 74.706v-9.002l7.781 4.526 7.781 4.475-7.781 4.526-7.781 4.475v-9z"/><path fill="#E5E5E5" d="M249.999 119.307v-.153c-.153-1.933-1.271-3.56-2.95-4.374-.051-.051-.153-.102-.203-.102s-.051-.051-.102-.051-.102-.051-.153-.051c-.051 0-.102-.051-.102-.051l-.458-.153c-.153-.051-.305-.051-.458-.102-.254-.051-.559-.051-.814-.051H87.004c-.254 0-.559 0-.814.051-.153.051-.305.051-.458.102l-.458.153c-.051 0-.102.051-.153.051 0 0-.051 0-.051.051-.051 0-.102.051-.153.051h-.051c-.051.051-.153.051-.203.102 0 0-.051 0-.051.051a5.305 5.305 0 0 0-2.899 4.323v105.832c0 2.95 2.39 5.289 5.289 5.289h55.891l-2.797 9.968c0 2.39-2.746 3.407-4.628 3.662h-6.255c-.559 0-1.017.203-1.373.509a1.624 1.624 0 0 0-.559 1.221c0 .966.865 1.729 1.933 1.729h73.182c1.068 0 1.933-.763 1.933-1.729 0-.966-.865-1.729-1.933-1.729h-7.069c-2.594-.305-4.323-1.322-4.323-3.662l-2.797-9.968h56.45c2.95 0 5.289-2.39 5.289-5.289V119.511c.104-.102.053-.153.053-.204zm-74.606 116.308c0 1.831-1.119 3.306-2.543 3.306h-23.089c-1.424 0-2.543-1.475-2.543-3.306v-5.34h28.174v5.34z"/><path fill="#FFF" d="M81.207 114.222c-2.543.407-4.526 2.695-4.526 5.391v-.153c.05-2.645 1.983-4.832 4.526-5.238zm163.859 5.289v.153c0-2.746-1.933-4.984-4.475-5.391 2.542.355 4.475 2.542 4.475 5.238z"/><path fill="#DDD" d="M240.082 124.494v78.522c0 2.492-1.729 4.577-4.068 5.136V128.41c0-3.001-2.289-5.391-5.086-5.391H89.445c-2.797 0-5.086 2.39-5.086 5.391v79.234a5.283 5.283 0 0 1-2.695-4.628v-78.522c0-2.95 2.39-5.289 5.289-5.289h147.839c2.95 0 5.29 2.34 5.29 5.289z"/><path fill="#F7F7F7" d="M236.929 127.546v81.268a5.111 5.111 0 0 1-1.271.153H87.004c-.966 0-1.831-.254-2.645-.712v-80.709c0-3.051 2.289-5.492 5.086-5.492h142.347c2.848-.001 5.137 2.491 5.137 5.492z"/><path fill="#F7F7F7" d="M236.064 208.153v.153H84.36v-.712c.763.458 1.678.661 2.594.661h147.839c.457.051.864 0 1.271-.102z"/><path fill="#FFF" d="M245.066 119.205c0-.153-.051-.305-.051-.458 0-.051-.051-.153-.051-.203 0-.051-.051-.153-.051-.203v-.051c-.051-.102-.051-.203-.102-.305 0-.051-.051-.102-.051-.153-.051-.102-.051-.153-.102-.254v-.051c0-.051-.051-.102-.051-.153l-.153-.305s0-.051-.051-.051a1.105 1.105 0 0 0-.153-.254c-.051-.051-.051-.102-.102-.153s-.102-.102-.153-.203c-.051-.051-.102-.153-.153-.203l-.051-.051-.051-.051c-.051-.102-.153-.153-.203-.254 0 0 0-.051-.051-.051l-.051-.051c-.102-.102-.203-.203-.305-.254a1.099 1.099 0 0 0-.254-.203l-.051-.051c-.051-.051-.102-.102-.153-.102-.102-.051-.203-.153-.305-.203-.102-.051-.153-.102-.254-.153-.051-.051-.153-.102-.203-.102s-.051-.051-.102-.051-.102-.051-.153-.051-.102-.051-.102-.051l-.458-.153c-.153-.051-.305-.051-.458-.102-.254-.051-.559-.051-.814-.051H82.02c-.254 0-.559 0-.814.051-.153.051-.305.051-.458.102l-.458.153c-.051 0-.102.051-.153.051 0 0-.051 0-.051.051-.051 0-.102.051-.153.051h-.051c-.051.051-.153.051-.203.102-.102.051-.153.102-.254.153-.102.051-.203.153-.305.203-.051.051-.102.051-.153.102 0 0-.051 0-.051.051-.102.051-.153.102-.254.203-.102.102-.203.203-.305.254l-.051.051-.051.051c-.102.051-.153.153-.203.254l-.051.051-.051.051c-.051.051-.102.153-.153.203-.051.051-.102.102-.153.203-.051.051-.102.153-.153.203-.051.051-.051.102-.102.153-.051.102-.153.254-.203.356-.051.102-.102.203-.153.356v.051c0 .051-.051.102-.051.153-.051.051-.051.102-.051.153-.051.102-.051.203-.102.305v.051c-.051.102-.051.203-.051.305v.102c-.051.153-.051.305-.051.458v105.781c0 2.95 2.39 5.289 5.289 5.289h55.891l-2.797 9.968c0 2.39-2.746 3.407-4.628 3.662h-6.255c-.559 0-1.017.203-1.373.509a1.624 1.624 0 0 0-.559 1.221c0 .966.865 1.729 1.933 1.729h73.182c1.068 0 1.933-.763 1.933-1.729 0-.966-.865-1.729-1.933-1.729h-7.069c-2.594-.305-4.323-1.322-4.323-3.662l-2.695-10.019h56.45c2.95 0 5.289-2.39 5.289-5.289V119.205zm-70.335 116.41c0 1.831-1.119 3.306-2.543 3.306H149.1c-1.424 0-2.543-1.475-2.543-3.306v-5.34h28.174v5.34zm65.351-32.598c0 2.187-1.271 4.018-3.153 4.831a3.22 3.22 0 0 1-.915.305 5.111 5.111 0 0 1-1.271.153H87.004a5.453 5.453 0 0 1-2.594-.661 5.283 5.283 0 0 1-2.695-4.628v-78.522c0-2.95 2.39-5.289 5.289-5.289h147.839c2.95 0 5.289 2.39 5.289 5.289l-.05 78.522z"/><g><path fill="#E5E5E5" d="M97.532 100.795h129.734v97.898H97.532v-97.898z"/><path fill="#FFF" d="M95.141 98.659h129.734v97.898H95.141V98.659z"/><path fill="#FFF" d="M95.955 109.848h1.373v1.475h-1.373v-1.475z"/><path fill="#EFF7E9" d="M109.839 167.824h108.68v24.614h-108.68v-24.614z"/><path fill="#D7DFD3" d="M111.67 169.96h12.968v7.883H111.67v-7.883zm13.68 0h12.968v7.883H125.35v-7.883zm13.629 0h12.968v7.883h-12.968v-7.883zm13.681 0h8.035v7.883h-8.035v-7.883zm12.816 0h13.985v7.883h-13.985v-7.883zm-53.908 10.629h6.204v7.883h-6.204v-7.883zm6.764 0h6.204v7.883h-6.204v-7.883zm6.764 0h6.204v7.883h-6.204v-7.883zm40.837 0h2.492v7.883h-2.492v-7.883zm3.102 0h1.119v7.883h-1.119v-7.883zm1.73 0h.509v7.883h-.509v-7.883zm1.169 0h2.39v7.883h-2.39v-7.883zm2.95 0h13.528v7.883h-13.528v-7.883zm-43.024 0h13.223v7.883H131.86v-7.883zm13.68 0h19.783v7.883H145.54v-7.883zm15.613-10.629h2.339v7.883h-2.339v-7.883zm2.797 0h1.119v7.883h-1.119v-7.883z"/><path fill="#EFF7E9" d="M101.448 167.824h7.628v24.614h-7.628v-24.614z"/><path fill="#D7DFD3" d="M101.448 169.045h7.628v2.034h-7.628v-2.034z"/><path fill="#8D8DCE" d="M102.16 171.689h4.984v1.322h-4.984v-1.322z"/><path fill="#94C7FF" d="M102.16 174.944h6.357v1.322h-6.357v-1.322z"/><path fill="#73EC8A" d="M102.16 178.148h2.746v1.322h-2.746v-1.322z"/><path fill="#8D8DCE" d="M102.16 183.386h4.984v1.322h-4.984v-1.322z"/><path fill="#94C7FF" d="M102.16 186.59h6.357v1.322h-6.357v-1.322z"/><path fill="#73EC8A" d="M102.16 190.455h2.746v1.322h-2.746v-1.322z"/><path fill="#D7DFD3" d="M101.448 180.538h7.628v2.034h-7.628v-2.034z"/></g><g><path fill="#353F49" d="M121.892 103.491h76.386v47.754h-76.386v-47.754z"/><path fill="#F7F7F7" d="M121.892 151.194h76.386v11.697h-76.386v-11.697z"/><path fill="#FFF" d="M160.136 137.514c-5.594 0-10.171-4.577-10.171-10.171s4.577-10.171 10.171-10.171c5.594.051 10.171 4.628 10.171 10.171 0 5.594-4.577 10.171-10.171 10.171zm0-19.631c-5.238 0-9.459 4.272-9.459 9.459 0 5.238 4.272 9.459 9.459 9.459s9.459-4.272 9.459-9.459c0-5.187-4.221-9.408-9.459-9.459z"/><path fill="#FFF" d="M158.254 124.088l5.645 3.255-5.645 3.255v-6.51z"/><path fill="#CCCBCA" d="M180.987 156.686h-26.903v1.271h26.903c.356 0 .61-.254.61-.61 0-.355-.254-.661-.61-.661z"/><path fill="#76D0DE" d="M154.745 157.348c0 .356-.254.61-.61.61h-14.341a.587.587 0 0 1-.61-.61c0-.356.254-.61.61-.61h14.341c.305-.052.61.254.61.61z"/><path fill="#353F49" d="M155.864 157.348c0 .966-.763 1.729-1.729 1.729s-1.729-.763-1.729-1.729c0-.966.763-1.729 1.729-1.729s1.729.762 1.729 1.729z"/><path fill="#CCCBCA" d="M126.164 155.415l3.357 1.933-3.357 1.933v-3.866zm64.536.763h1.627v2.289H190.7v-2.289zm3.408 3.662l-1.78-1.373v-2.289l1.78-1.373v5.035z"/></g><g><path fill="#D9D9FF" d="M56.948 163.044c-.356 0-.661-.153-.865-.458l-2.95-4.78h-8.747c-.559 0-1.017-.458-1.017-1.017s.458-1.017 1.017-1.017h9.866l3.56 5.696c.305.458.153 1.119-.305 1.424-.203.101-.355.152-.559.152z"/></g><g><path fill="#5B5B7C" d="M57.813 163.044c-.356 0-.661-.153-.865-.458l-2.95-4.78h-8.747c-.559 0-1.017-.458-1.017-1.017s.458-1.017 1.017-1.017h9.866l3.56 5.696c.305.458.153 1.119-.305 1.424-.203.101-.356.152-.559.152z"/></g><g><path fill="#E1E1F4" d="M87.106 163.501v21.716l-11.85-5.442v-.051h-6.154v-.763H66v5.543a3.539 3.539 0 0 1-3.56 3.56h-9.256v4.475h-4.069c0 .051 0 .051.051.102a4.538 4.538 0 0 1-1.526 4.17v3.204h1.933v4.628h-.051l14.545 56.908h-1.17L46.37 207.543l-.865 30.361.203 23.648h-1.424l-.712-23.648-.865-30.361-16.325 54.009H24.96l14.545-56.908h-.051v-4.628h1.983v-3.204c-.763-.712-1.322-1.678-1.475-2.797-.102-.509-.051-1.017 0-1.526h-4.069v-4.424h-8.595c-1.933 0-3.56-1.577-3.56-3.56v-6.001h-4.17a1.715 1.715 0 0 1-1.729-1.729v-.153h-4.424l-5.035 1.882v-.051H6.804v-9.561h1.577l5.035 1.933h4.424v-.102c0-.966.763-1.729 1.729-1.729h4.221v-5.289a3.539 3.539 0 0 1 3.56-3.56h35.142c1.933 0 3.56 1.577 3.56 3.56v6.052h3.102v-.763h6.306l11.646-5.493z"/></g><g><path fill="#8585C1" d="M15.094 170.875h5.187v5.848h-5.187v-5.848z"/><path fill="#99E0FF" d="M10.059 168.943v9.612l5.035-1.882v-5.798l-5.035-1.932z"/><path fill="#5B5B7C" d="M8.482 168.943h1.577v9.612H8.482v-9.612z"/><path fill="#9AAAE5" d="M19.518 176.826c0 .966.763 1.729 1.729 1.729h26.649c.966 0 1.729-.763 1.729-1.729v-6.103c0-.966-.763-1.729-1.729-1.729H21.247c-.966 0-1.729.763-1.729 1.729v6.103z"/><path fill="#474768" d="M43.115 194.269h6.204v6.001h-6.204v-6.001z"/><path fill="#9AAAE5" d="M62.186 169.757h8.595v9.205h-8.595v-9.205z"/><path fill="#6F6FA3" d="M70.781 168.994h6.306v10.731h-6.306v-10.731z"/><path fill="#5B5B7C" d="M25.468 184.556c0 1.933 1.577 3.56 3.56 3.56H64.17c1.933 0 3.56-1.577 3.56-3.56v-20.8c0-1.933-1.577-3.56-3.56-3.56H28.977c-1.933 0-3.56 1.577-3.56 3.56l.051 20.8z"/><path fill="#79C7F2" d="M88.784 163.501v21.716l-11.799-5.442v-10.731l11.799-5.543z"/><path fill="#FFF" d="M35.741 181.301v-14.596a4.32 4.32 0 0 1 4.323-4.323h20.088a4.32 4.32 0 0 1 4.323 4.323v14.596a4.32 4.32 0 0 1-4.323 4.323H40.064a4.32 4.32 0 0 1-4.323-4.323zm4.323-17.342a2.735 2.735 0 0 0-2.746 2.746v14.596a2.735 2.735 0 0 0 2.746 2.746h20.088a2.735 2.735 0 0 0 2.746-2.746v-14.596a2.735 2.735 0 0 0-2.746-2.746H40.064z"/><path fill="#5B5B7C" d="M60.152 185.98H40.064a4.666 4.666 0 0 1-4.679-4.679v-14.596a4.666 4.666 0 0 1 4.679-4.679h20.088a4.666 4.666 0 0 1 4.679 4.679v14.596a4.666 4.666 0 0 1-4.679 4.679zm-20.088-23.242a3.972 3.972 0 0 0-3.967 3.967v14.596a3.972 3.972 0 0 0 3.967 3.967h20.088a3.972 3.972 0 0 0 3.967-3.967v-14.596a3.972 3.972 0 0 0-3.967-3.967H40.064zm20.088 21.665H40.064a3.082 3.082 0 0 1-3.102-3.102v-14.596a3.082 3.082 0 0 1 3.102-3.102h20.088a3.082 3.082 0 0 1 3.102 3.102v14.596a3.082 3.082 0 0 1-3.102 3.102zm-20.088-20.088a2.442 2.442 0 0 0-2.441 2.441v14.596a2.442 2.442 0 0 0 2.441 2.441h20.088a2.442 2.442 0 0 0 2.441-2.441v-14.596a2.442 2.442 0 0 0-2.441-2.441H40.064z"/><path fill="#FFF" d="M58.016 166.959c-.305.865.153 1.78 1.017 2.085.865.305 1.78-.153 2.085-1.017.305-.865-.153-1.78-1.017-2.085-.864-.254-1.78.204-2.085 1.017z"/><path fill="#8585C1" d="M37.623 187.912h17.24v4.628h-17.24v-4.628z"/><path fill="#8585C1" d="M41.641 194.066a4.684 4.684 0 0 0 5.289 3.916 4.684 4.684 0 0 0 3.916-5.289 4.684 4.684 0 0 0-5.289-3.916c-2.543.356-4.323 2.746-3.916 5.289z"/><g fill="#474768"><path d="M47.591 206.119l.458 1.424-.865 30.361.203 23.648h-1.424l-.712-23.648-.865-30.361.458-1.424.051-1.526h-.559v-.203h3.814v.203h-.559v1.526z"/><path d="M48.048 207.543l-.458-1.424v-1.526h.559l3.051-.051 14.596 57.01h-1.17l-16.578-54.009zm-3.204-1.424l-.458 1.424-16.274 54.009h-1.424l14.545-57.01 3.102.051h.559l-.05 1.526z"/></g><path fill="#8585C1" d="M41.183 200.016h10.07v4.628h-10.07v-4.628z"/></g><g><circle fill="#FFF" cx="46.218" cy="193.354" r="1.729"/></g></svg>