<svg xmlns="http://www.w3.org/2000/svg" xmlns:xlink="http://www.w3.org/1999/xlink" id="main" viewBox="0 0 604.5 460"><style>.st0{fill:#fff}.st3{fill:#8585c1}.st4{fill:#e5e5e5}.st5{fill:#f7f7f7}.st6{fill:#b781ea}.st7{fill:#e89282}.st8{fill:#f4ca60}.st9{fill:#00c3ff}.st16{fill:#d33c44}</style><path d="M480.5 64.7l1.8-.1.1 121.4h-1.8z" class="st0"/><path d="M396.7 67.1h2.6v19.2h-2.6z" class="st0" transform="rotate(-45.122 397.988 76.718)"/><path d="M388.4 75.3h19.2v2.6h-19.2z" class="st0" transform="rotate(-45.114 398.034 76.65)"/><path d="M396.7 80.7h2.6v19.2h-2.6z" class="st0" transform="rotate(-45.122 397.972 90.29)"/><path d="M388.4 89h19.2v2.6h-19.2z" class="st0" transform="rotate(-45.122 398.027 90.29)"/><path d="M396.7 94.3h2.6v19.2h-2.6z" class="st0" transform="rotate(-45.122 398.011 103.916)"/><path d="M388.5 102.6h19.2v2.6h-19.2z" class="st0" transform="rotate(-45.122 398.067 103.916)"/><path d="M396.7 107.9h2.6v19.2h-2.6z" class="st0" transform="rotate(-45.122 398.05 117.543)"/><path d="M388.5 116.2h19.2v2.6h-19.2z" class="st0" transform="rotate(-45.122 398.105 117.543)"/><path d="M396.8 121.5h2.6v19.2h-2.6z" class="st0" transform="rotate(-45.122 398.09 131.17)"/><path d="M388.5 129.8h19.2v2.6h-19.2z" class="st0" transform="rotate(-45.122 398.09 131.115)"/><path d="M396.8 135.2h2.6v19.2h-2.6z" class="st0" transform="rotate(-45.122 398.128 144.796)"/><path d="M388.5 143.4h19.2v2.6h-19.2z" class="st0" transform="rotate(-45.122 398.128 144.742)"/><path d="M396.8 148.7h2.6v19.2h-2.6z" class="st0" transform="rotate(-45.122 398.112 158.369)"/><path d="M388.6 157h19.2v2.6h-19.2z" class="st0" transform="rotate(-45.122 398.167 158.369)"/><path d="M396.8 162.4h2.6v19.2h-2.6z" class="st0" transform="rotate(-45.122 398.151 171.997)"/><path d="M388.6 170.7h19.2v2.6h-19.2z" class="st0" transform="rotate(-45.122 398.206 171.995)"/><path d="M396.9 176h2.6v19.2h-2.6z" class="st0" transform="rotate(-45.122 398.19 185.622)"/><path d="M388.7 184.3h19.2v2.6h-19.2z" class="st0" transform="rotate(-45.122 398.3 185.625)"/><path d="M396.9 189.6h2.6v19.2h-2.6z" class="st0" transform="rotate(-45.122 398.23 199.25)"/><path d="M388.6 197.9h19.2v2.6h-19.2z" class="st0" transform="rotate(-45.122 398.23 199.194)"/><path d="M406.4 211.7H390l-.3-145h16.4l.3 145zm-12.8-3.5h9.3l-.3-137.9h-9.3l.3 137.9z" class="st0"/><path d="M406.1 56.4h19.2V59h-19.2z" class="st0" transform="rotate(-45.122 415.743 57.754)"/><path d="M414.4 48.1h2.6v19.2h-2.6z" class="st0" transform="rotate(-45.122 415.688 57.754)"/><path d="M419.7 56.4h19.2V59h-19.2z" class="st0" transform="rotate(-45.122 429.32 57.776)"/><path d="M428 48.1h2.6v19.2H428z" class="st0" transform="rotate(-45.122 429.315 57.715)"/><path d="M433.3 56.4h19.2V59h-19.2z" class="st0" transform="rotate(-45.122 442.944 57.735)"/><path d="M441.6 48h2.6v19.2h-2.6z" class="st0" transform="rotate(-45.122 442.942 57.676)"/><path d="M481 65.7h-17.9v-2.6h14l-14-10.6-12.7 12.9-1.9-1.9 13.6-13.7c.5-.5 1.2-.5 1.7-.2l18 13.6c.5.3.6.9.5 1.5-.2.7-.7 1-1.3 1z" class="st0"/><path d="M454.9 48h2.6v19.2h-2.6z" class="st0" transform="rotate(-45.122 456.19 57.665)"/><path d="M464.8 65.9l-59 .1V49.6l59-.1v16.4zm-55.5-3.5l52-.1V53l-52 .1v9.3z" class="st0"/><path d="M355.1 56.6h19.2v2.6h-19.2z" class="st0" transform="rotate(-45.122 364.74 57.9)"/><path d="M363.4 48.2h2.6v19.2h-2.6z" class="st0" transform="rotate(-45.122 364.74 57.844)"/><path d="M368.8 56.5H388v2.6h-19.2z" class="st0" transform="rotate(-45.122 378.366 57.86)"/><path d="M377.1 48.2h2.6v19.2h-2.6z" class="st0" transform="rotate(-45.122 378.366 57.805)"/><path d="M387 66l-30.5.1V49.7l30.5-.1V66zm-27.1-3.5h23.4v-9.3h-23.4v9.3z" class="st0"/><path fill="#868686" d="M372.6 205.4H424v9.2h-51.4z" transform="translate(-.437 .83)"/><path fill="#575756" d="M384.8 201.1h26.8v4.3h-26.8z" transform="translate(-.423 .83)"/><path d="M383.3 43.1h29.3v29.3h-29.3z" class="st3" transform="translate(-.12 .83)"/><path d="M481.5 195.2c-1.9 0-3.5-1.5-3.5-3.5 0-1.6 1-2.9 2.4-3.3v-3.6c0-.6.5-1.1 1.1-1.1.6 0 1.1.5 1.1 1.1v5.5h-1.1c-.7 0-1.4.6-1.4 1.4s.6 1.4 1.4 1.4c.7 0 1.4-.6 1.4-1.4 0-.6.5-1.1 1.1-1.1.6 0 1.1.5 1.1 1.1-.1 1.9-1.7 3.5-3.6 3.5z" class="st3"/><path d="M490 200l-7.6-7.6-7.6 7.6-.9-.9 8.1-8.1c.2-.2.7-.3.7 0l8.1 8.1-.8.9z" class="st0"/><path d="M483.9 190.6c-.6 0-1.1.5-1.1 1.1 0 .5-.3 1-.7 1.2.4.5.9 1.2 1.3 1.7.9-.6 1.6-1.7 1.5-2.9.1-.6-.4-1.1-1-1.1z" class="st3"/><path d="M177.7 130h268.6v244.8H177.7z" class="st4"/><path d="M182.9 125.6h268.6v244.8H182.9z" class="st0"/><path d="M184.6 148.8h2.8v3.1h-2.8z" class="st0"/><path d="M196.3 139.7h241.8v216.7H196.3z" class="st5"/><path d="M253.6 160.1c0 .6-.5 1.1-1.1 1.1H217c-.6 0-1.1-.5-1.1-1.1v-.6c0-.6.5-1.1 1.1-1.1h35.5c.6 0 1.1.5 1.1 1.1v.6z" class="st6"/><path d="M239.8 167.3c0 .6-.5 1.1-1.1 1.1h-21.6c-.6 0-1.1-.5-1.1-1.1v-.6c0-.6.5-1.1 1.1-1.1h21.6c.6 0 1.1.5 1.1 1.1v.6z" class="st7"/><path d="M321.8 167.3c0 .6-.5 1.1-1.1 1.1h-70.9c-.6 0-1.1-.5-1.1-1.1v-.6c0-.6.5-1.1 1.1-1.1h70.9c.6 0 1.1.5 1.1 1.1v.6z" class="st8"/><path d="M352.2 167.3c0 .6-.5 1.1-1.1 1.1h-21.6c-.6 0-1.1-.5-1.1-1.1v-.6c0-.6.5-1.1 1.1-1.1h21.6c.6 0 1.1.5 1.1 1.1v.6z" class="st7"/><path d="M379.9 167.3c0 .6-.5 1.1-1.1 1.1h-10c-.6 0-1.1-.5-1.1-1.1v-.6c0-.6.5-1.1 1.1-1.1h10c.6 0 1.1.5 1.1 1.1v.6z" class="st6"/><path d="M293 219.9c0 .6-.5 1.1-1.1 1.1h-6.1c-.6 0-1.1-.5-1.1-1.1v-.6c0-.6.5-1.1 1.1-1.1h6.1c.6 0 1.1.5 1.1 1.1v.6zm53.7 7.2c0 .6-.5 1.1-1.1 1.1h-7.2c-.6 0-1.1-.5-1.1-1.1v-.6c0-.6.5-1.1 1.1-1.1h7.2c.6 0 1.1.5 1.1 1.1v.6z" class="st9"/><path d="M250.9 175c0 .6-.5 1.1-1.1 1.1H227c-.6 0-1.1-.5-1.1-1.1v-.6c0-.6.5-1.1 1.1-1.1h22.7c.6 0 1.1.5 1.1 1.1v.6z" class="st6"/><path d="M240.9 204.9c0 .6-.5 1.1-1.1 1.1H227c-.6 0-1.1-.5-1.1-1.1v-.6c0-.6.5-1.1 1.1-1.1h12.7c.6 0 1.1.5 1.1 1.1v.6z" class="st7"/><path d="M253.6 212.1c0 .6-.5 1.1-1.1 1.1H227c-.6 0-1.1-.5-1.1-1.1v-.6c0-.6.5-1.1 1.1-1.1h25.5c.6 0 1.1.5 1.1 1.1v.6z" class="st8"/><path d="M322.9 212.1c0 .6-.5 1.1-1.1 1.1h-60.4c-.6 0-1.1-.5-1.1-1.1v-.6c0-.6.5-1.1 1.1-1.1h60.4c.6 0 1.1.5 1.1 1.1v.6z" class="st9"/><path d="M280.8 219.9c0 .6-.5 1.1-1.1 1.1h-40.4c-.6 0-1.1-.5-1.1-1.1v-.6c0-.6.5-1.1 1.1-1.1h40.4c.6 0 1.1.5 1.1 1.1v.6z" class="st6"/><path d="M271.9 227.1c0 .6-.5 1.1-1.1 1.1h-21.1c-.6 0-1.1-.5-1.1-1.1v-.6c0-.6.5-1.1 1.1-1.1h21.1c.6 0 1.1.5 1.1 1.1v.6z" class="st8"/><path d="M303.5 227.1c0 .6-.5 1.1-1.1 1.1h-23.8c-.6 0-1.1-.5-1.1-1.1v-.6c0-.6.5-1.1 1.1-1.1h23.8c.6 0 1.1.5 1.1 1.1v.6z" class="st6"/><path d="M331.7 227.1c0 .6-.5 1.1-1.1 1.1h-19.4c-.6 0-1.1-.5-1.1-1.1v-.6c0-.6.5-1.1 1.1-1.1h19.4c.6 0 1.1.5 1.1 1.1v.6z" class="st8"/><path d="M269.1 182.2c0 .6-.5 1.1-1.1 1.1h-28.8c-.6 0-1.1-.5-1.1-1.1v-.6c0-.6.5-1.1 1.1-1.1H268c.6 0 1.1.5 1.1 1.1v.6z" class="st9"/><path d="M291.9 182.2c0 .6-.5 1.1-1.1 1.1h-14.4c-.6 0-1.1-.5-1.1-1.1v-.6c0-.6.5-1.1 1.1-1.1h14.4c.6 0 1.1.5 1.1 1.1v.6z" class="st6"/><path d="M239.8 236.3c0 .6-.5 1.1-1.1 1.1h-21.6c-.6 0-1.1-.5-1.1-1.1v-.6c0-.6.5-1.1 1.1-1.1h21.6c.6 0 1.1.5 1.1 1.1v.6z" class="st7"/><path d="M321.8 236.3c0 .6-.5 1.1-1.1 1.1h-70.9c-.6 0-1.1-.5-1.1-1.1v-.6c0-.6.5-1.1 1.1-1.1h70.9c.6 0 1.1.5 1.1 1.1v.6z" class="st9"/><path d="M352.2 236.3c0 .6-.5 1.1-1.1 1.1h-21.6c-.6 0-1.1-.5-1.1-1.1v-.6c0-.6.5-1.1 1.1-1.1h21.6c.6 0 1.1.5 1.1 1.1v.6z" class="st7"/><path d="M379.9 236.3c0 .6-.5 1.1-1.1 1.1h-10c-.6 0-1.1-.5-1.1-1.1v-.6c0-.6.5-1.1 1.1-1.1h10c.6 0 1.1.5 1.1 1.1v.6zm-129 7.7c0 .6-.5 1.1-1.1 1.1H227c-.6 0-1.1-.5-1.1-1.1v-.6c0-.6.5-1.1 1.1-1.1h22.7c.6 0 1.1.5 1.1 1.1v.6z" class="st6"/><path d="M269.1 251.2c0 .6-.5 1.1-1.1 1.1h-28.8c-.6 0-1.1-.5-1.1-1.1v-.6c0-.6.5-1.1 1.1-1.1H268c.6 0 1.1.5 1.1 1.1v.6z" class="st9"/><path d="M291.9 251.2c0 .6-.5 1.1-1.1 1.1h-14.4c-.6 0-1.1-.5-1.1-1.1v-.6c0-.6.5-1.1 1.1-1.1h14.4c.6 0 1.1.5 1.1 1.1v.6z" class="st6"/><path d="M262.5 190c0 .6-.5 1.1-1.1 1.1h-22.2c-.6 0-1.1-.5-1.1-1.1v-.6c0-.6.5-1.1 1.1-1.1h22.2c.6 0 1.1.5 1.1 1.1v.6z" class="st7"/><path d="M331.7 190c0 .6-.5 1.1-1.1 1.1h-60.4c-.6 0-1.1-.5-1.1-1.1v-.6c0-.6.5-1.1 1.1-1.1h60.4c.6 0 1.1.5 1.1 1.1v.6z" class="st8"/><path d="M379.9 190c0 .6-.5 1.1-1.1 1.1h-26.6c-.6 0-1.1-.5-1.1-1.1v-.6c0-.6.5-1.1 1.1-1.1h26.6c.6 0 1.1.5 1.1 1.1v.6z" class="st7"/><path d="M348.9 190c0 .6-.5 1.1-1.1 1.1h-8.3c-.6 0-1.1-.5-1.1-1.1v-.6c0-.6.5-1.1 1.1-1.1h8.3c.6 0 1.1.5 1.1 1.1v.6z" class="st9"/><path d="M303.5 197.2c0 .6-.5 1.1-1.1 1.1h-63.2c-.6 0-1.1-.5-1.1-1.1v-.6c0-.6.5-1.1 1.1-1.1h63.2c.6 0 1.1.5 1.1 1.1v.6zM253.6 266.1c0 .6-.5 1.1-1.1 1.1H217c-.6 0-1.1-.5-1.1-1.1v-.6c0-.6.5-1.1 1.1-1.1h35.5c.6 0 1.1.5 1.1 1.1v.6z" class="st6"/><path d="M239.8 273.3c0 .6-.5 1.1-1.1 1.1h-21.6c-.6 0-1.1-.5-1.1-1.1v-.6c0-.6.5-1.1 1.1-1.1h21.6c.6 0 1.1.5 1.1 1.1v.6z" class="st7"/><path d="M321.8 273.3c0 .6-.5 1.1-1.1 1.1h-70.9c-.6 0-1.1-.5-1.1-1.1v-.6c0-.6.5-1.1 1.1-1.1h70.9c.6 0 1.1.5 1.1 1.1v.6z" class="st8"/><path d="M352.2 273.3c0 .6-.5 1.1-1.1 1.1h-21.6c-.6 0-1.1-.5-1.1-1.1v-.6c0-.6.5-1.1 1.1-1.1h21.6c.6 0 1.1.5 1.1 1.1v.6z" class="st7"/><path d="M379.9 273.3c0 .6-.5 1.1-1.1 1.1h-10c-.6 0-1.1-.5-1.1-1.1v-.6c0-.6.5-1.1 1.1-1.1h10c.6 0 1.1.5 1.1 1.1v.6z" class="st6"/><path d="M293 326c0 .6-.5 1.1-1.1 1.1h-6.1c-.6 0-1.1-.5-1.1-1.1v-.6c0-.6.5-1.1 1.1-1.1h6.1c.6 0 1.1.5 1.1 1.1v.6zm53.7 7.2c0 .6-.5 1.1-1.1 1.1h-7.2c-.6 0-1.1-.5-1.1-1.1v-.6c0-.6.5-1.1 1.1-1.1h7.2c.6 0 1.1.5 1.1 1.1v.6z" class="st9"/><path d="M250.9 281.1c0 .6-.5 1.1-1.1 1.1H227c-.6 0-1.1-.5-1.1-1.1v-.6c0-.6.5-1.1 1.1-1.1h22.7c.6 0 1.1.5 1.1 1.1v.6z" class="st6"/><path d="M240.9 311c0 .6-.5 1.1-1.1 1.1H227c-.6 0-1.1-.5-1.1-1.1v-.6c0-.6.5-1.1 1.1-1.1h12.7c.6 0 1.1.5 1.1 1.1v.6z" class="st7"/><path d="M253.6 318.2c0 .6-.5 1.1-1.1 1.1H227c-.6 0-1.1-.5-1.1-1.1v-.6c0-.6.5-1.1 1.1-1.1h25.5c.6 0 1.1.5 1.1 1.1v.6z" class="st8"/><path d="M322.9 318.2c0 .6-.5 1.1-1.1 1.1h-60.4c-.6 0-1.1-.5-1.1-1.1v-.6c0-.6.5-1.1 1.1-1.1h60.4c.6 0 1.1.5 1.1 1.1v.6z" class="st9"/><path d="M280.8 326c0 .6-.5 1.1-1.1 1.1h-40.4c-.6 0-1.1-.5-1.1-1.1v-.6c0-.6.5-1.1 1.1-1.1h40.4c.6 0 1.1.5 1.1 1.1v.6z" class="st6"/><path d="M271.9 333.2c0 .6-.5 1.1-1.1 1.1h-21.1c-.6 0-1.1-.5-1.1-1.1v-.6c0-.6.5-1.1 1.1-1.1h21.1c.6 0 1.1.5 1.1 1.1v.6z" class="st8"/><path d="M303.5 333.2c0 .6-.5 1.1-1.1 1.1h-23.8c-.6 0-1.1-.5-1.1-1.1v-.6c0-.6.5-1.1 1.1-1.1h23.8c.6 0 1.1.5 1.1 1.1v.6z" class="st6"/><path d="M331.7 333.2c0 .6-.5 1.1-1.1 1.1h-19.4c-.6 0-1.1-.5-1.1-1.1v-.6c0-.6.5-1.1 1.1-1.1h19.4c.6 0 1.1.5 1.1 1.1v.6z" class="st8"/><path d="M269.1 288.3c0 .6-.5 1.1-1.1 1.1h-28.8c-.6 0-1.1-.5-1.1-1.1v-.6c0-.6.5-1.1 1.1-1.1H268c.6 0 1.1.5 1.1 1.1v.6z" class="st9"/><path d="M291.9 288.3c0 .6-.5 1.1-1.1 1.1h-14.4c-.6 0-1.1-.5-1.1-1.1v-.6c0-.6.5-1.1 1.1-1.1h14.4c.6 0 1.1.5 1.1 1.1v.6z" class="st6"/><path d="M262.5 296c0 .6-.5 1.1-1.1 1.1h-22.2c-.6 0-1.1-.5-1.1-1.1v-.6c0-.6.5-1.1 1.1-1.1h22.2c.6 0 1.1.5 1.1 1.1v.6z" class="st7"/><path d="M331.7 296c0 .6-.5 1.1-1.1 1.1h-60.4c-.6 0-1.1-.5-1.1-1.1v-.6c0-.6.5-1.1 1.1-1.1h60.4c.6 0 1.1.5 1.1 1.1v.6z" class="st8"/><path d="M379.9 296c0 .6-.5 1.1-1.1 1.1h-26.6c-.6 0-1.1-.5-1.1-1.1v-.6c0-.6.5-1.1 1.1-1.1h26.6c.6 0 1.1.5 1.1 1.1v.6z" class="st7"/><path d="M348.9 296c0 .6-.5 1.1-1.1 1.1h-8.3c-.6 0-1.1-.5-1.1-1.1v-.6c0-.6.5-1.1 1.1-1.1h8.3c.6 0 1.1.5 1.1 1.1v.6z" class="st9"/><path d="M303.5 303.2c0 .6-.5 1.1-1.1 1.1h-63.2c-.6 0-1.1-.5-1.1-1.1v-.6c0-.6.5-1.1 1.1-1.1h63.2c.6 0 1.1.5 1.1 1.1v.6z" class="st6"/><circle cx="199.2" cy="133.4" r="2.2" class="st7"/><circle cx="205.4" cy="133.4" r="2.2" class="st8"/><circle cx="211.6" cy="133.4" r="2.2" fill="#46db9e"/><g><path d="M217.1 325l-68.6.1c-2.6 0-4.7 2.1-4.7 4.7l.1 68.9c0 2.6 2.1 4.7 4.7 4.7l68.6-.1c2.6 0 4.7-2.1 4.7-4.7l-.1-68.9c0-2.7-2.2-4.8-4.7-4.7z" class="st4"/><path d="M219.3 322.7l-68.6.1c-2.6 0-4.7 2.1-4.7 4.7l.1 68.9c0 2.6 2.1 4.7 4.7 4.7l68.6-.1c2.6 0 4.7-2.1 4.7-4.7l-.1-68.9c0-2.5-2.1-4.7-4.7-4.7z" class="st0"/><path d="M150.3 330.5h69.6v67h-69.6z" class="st5" transform="translate(-.758 .387)"/><path d="M189 341.8c4 .1 6.8-2.8 10.5-2.8 3.6 0 11.3 13.8 11.3 15.3 0 5.2-5.5 3.8-8 8.8-1.6 3.2-4.8 4.8-5.6 4.8l-10.5-13.7 2.3-12.4m-6.4 0c-4 .1-6.8-2.8-10.5-2.8-3.6 0-11.3 13.8-11.3 15.3 0 5.2 5.5 3.8 8 8.8 1.6 3.2 4.8 4.8 5.6 4.8l10.5-13.7-2.3-12.4" class="st3"/><path d="M175.3 351.2s-.8 9.6 5.6 12.9v-12.9h-5.6zm20.9 0s.8 9.6-5.6 12.9v-12.9h5.6z" fill="#696996"/><path d="M178.6 374.2c.2-1.3.8-3.8 3.2-7l-2.4-2.4c-.6 1.3-2.1 6.8-1.3 9.4 0 .4.4.3.5 0z" class="st0"/><defs><path id="SVGID_1_" d="M160.8 339.1h49.8v49.8h-49.8z"/></defs><clipPath id="SVGID_2_"><use overflow="visible" xlink:href="#SVGID_1_"/></clipPath><path fill="#fff" d="M192.3 364.8l-2.4 2.4c2.4 3.2 3 5.6 3.2 7 0 .3.5.4.6.1.6-2.7-.9-8.2-1.4-9.5z" clip-path="url(#SVGID_2_)"/><path fill="#9999d1" d="M197 350.3c0-1.6.8-8.8-11.3-8.8-12.1 0-11.3 7.2-11.3 8.8 0 1.6 4 1.6 4.8 3.6v5.6c0 .9-.8 5.2-.8 5.2l3.3 3.3c.4 6.1.8 16.4 2.3 19.2 1.1 1.9 3.8 2.6 7.2-.8 1.4-1.4 2.2-2.9 2.8-4 .2-.5 0-1-.4-1.3-.4-.2-.9-.1-1.2.3-.9 1.3-3.1 4.2-3.6 3.4-.4-.7.5-13.4.7-16.8l3.3-3.3s-.8-4.3-.8-5.2v-5.6c1-1.9 5-1.9 5-3.6z" clip-path="url(#SVGID_2_)"/><path d="M178.1 352.8c.7 0 1.2.5 1.2 1.2s-.5 1.2-1.2 1.2-1.2-.5-1.2-1.2.6-1.2 1.2-1.2zm15.3 0c.7 0 1.2.5 1.2 1.2s-.5 1.2-1.2 1.2-1.2-.5-1.2-1.2.5-1.2 1.2-1.2z" fill="#464655"/></g><g><path d="M219.2 77.5c-1.2-2.3-3.3-4.1-5.7-5.1-.8-6.4-6.2-11.3-12.8-11.3-5.4 0-9.9 3.3-11.9 7.9-1-.3-2.1-.5-3.2-.5-5.3 0-9.8 3.8-10.8 8.8h-2c-6.5 0-11.7 5.3-11.7 11.7 0 6.5 5.3 11.7 11.7 11.7h45.6c6.5 0 11.7-5.3 11.7-11.7.1-6-4.8-11.1-10.9-11.5z" class="st0"/><path d="M211.8 71.7l1.7.7c-.9-6.6-6.3-11.3-12.8-11.3h-.3c5.9.2 10.8 4.8 11.4 10.6zm5.1 4.2c.4.9.5 1.4.5 1.4l1.8.2s-1.7-3.4-4.9-4.7c1.1.9 2 1.9 2.6 3.1zm6.2 2.6c2.3 1.9 3.7 4.8 3.7 8 0 5.9-4.7 10.6-10.6 10.6H175c-5.9 0-10.6-4.7-10.6-10.6 0-3.2 1.4-6.1 3.7-8-4.2 1.8-7.1 6-7.1 10.8 0 6.5 5.3 11.7 11.7 11.7h45.6c6.5 0 11.7-5.3 11.7-11.7.2-4.9-2.7-9-6.9-10.8zm-46.6-1c.7-3.7 2.4-6.3 4.5-7.8-2.5 1.2-4.5 3.2-5.5 5.9-.4.9-.6 1.9-.6 1.9h1.6z" class="st5"/></g><g><path d="M152.6 126c-1.4-2.6-3.6-4.6-6.3-5.6-.9-7.1-6.9-12.5-14.2-12.5-6 0-11.1 3.6-13.2 8.8-1.1-.3-2.3-.5-3.5-.5-6 0-10.9 4.2-12.1 9.8H101c-7.2 0-13.1 5.9-13.1 13.1 0 7.2 5.9 13.1 13.1 13.1h50.8c7.2 0 13.1-5.9 13.1-13.1-.1-6.9-5.5-12.6-12.3-13.1z" class="st0"/><path d="M144.3 119.6l1.9.8c-.9-7.4-7-12.5-14.2-12.5h-.3c6.5.1 11.9 5.2 12.6 11.7zm5.7 4.7c.5 1 .6 1.6.6 1.6l2 .2s-1.9-3.8-5.5-5.3c1.2.9 2.2 2.1 2.9 3.5zm7 2.8c2.5 2.2 4.1 5.4 4.1 8.9 0 6.5-5.3 11.8-11.8 11.8h-45.8c-6.5 0-11.8-5.3-11.8-11.8 0-3.6 1.6-6.8 4.1-9-4.6 2-7.9 6.6-7.9 12 0 7.2 5.9 13.1 13.1 13.1h50.8c7.2 0 13.1-5.9 13.1-13.1-.1-5.3-3.3-9.9-7.9-11.9zm-51.9-1.1c.7-4.1 2.7-7.1 5-8.7-2.8 1.3-5 3.6-6.2 6.6-.4 1-.6 2.1-.6 2.1h1.8z" class="st5"/></g><path d="M508 327.4c0 6.1-2.7 11.6-6.9 15.4-.3.3-.7.6-1.1.9-.8.6-1.7 1.2-2.6 1.7l-1.2.6c-2.6 1.2-5.5 1.9-8.6 1.9H410c-11.3 0-20.5-9.2-20.5-20.5 0-8.4 5.1-15.6 12.3-18.8-3-3.5-4.8-8-4.8-13 0-11.1 9-20 20-20 1.3 0 2.5.1 3.7.4v-.2c.1-.5.2-.9.4-1.4.1-.5.3-.9.5-1.3.3-.7.6-1.3 1-1.9.1-.2.2-.4.4-.6.3-.4.5-.8.8-1.1.4-.5.9-1.1 1.4-1.6 1.1-1.1 2.4-2.1 3.8-2.9l1.2-.6c.4-.2.8-.4 1.3-.5.4-.2.9-.3 1.3-.4.6-.2 1.3-.3 1.9-.4h.2c.4 0 .9-.1 1.3-.1h.1c1.2 0 2.4 0 3.6.2.3.1.6.1 1 .2 6.3 1.5 11 6.5 12.4 12.4.3-.1.6-.1.9-.2.9-.2 1.9-.2 2.9-.2s1.9.1 2.8.2c.3.1.6.1 1 .2 5.6 1.3 9.9 5.3 11.8 10.4 2.2-1 4.5-1.5 7-1.5 1.3 0 2.6.1 3.9.5 9.2 2.2 14.8 11.4 12.7 20.5-.2 1-.6 2-1 2.9 7.4 2.9 12.7 10.2 12.7 18.8z" class="st4"/><g><path d="M478.8 416.3v-28c0-1-.8-1.8-1.8-1.8h-63.4c-1 0-1.8.8-1.8 1.8v28h67z" class="st4"/></g><g><path d="M470.3 384.6h-1v-11.5c0-.2-.1-.9.4-1.5.2-.2.6-.5 1.2-.5h8.4s1.6.2 2.6-.7c.5-.4.7-1 .7-1.8 0-2.9-1.6-3.1-3.3-3.1h-63.5c-1.3 0-3.7-.8-3.8-3.5-.1-1.5.2-2.6.9-3.3.7-.7 1.6-1 2.9-1h18.5v1h-18.5c-1 0-1.7.2-2.2.7-.5.5-.7 1.4-.6 2.5.1 2.3 2.6 2.5 2.8 2.5h63.4c1.3 0 4.3 0 4.3 4.2 0 1.1-.3 1.9-1 2.5-1.2 1.1-3.1.9-3.3.9h-8.3c-.3 0-.4.1-.4.1-.2.2-.2.6-.2.7v11.8z" class="st4"/><path d="M479.7 358.8h-45.3v-1h45.3c.2 0 2.7-.1 2.8-2.5.1-1.2-.2-2-.6-2.5-.5-.5-1.2-.7-2.2-.7h-18.5v-1h18.5c1.3 0 2.3.3 2.9 1 .7.7 1 1.8.9 3.3-.1 2.6-2.5 3.4-3.8 3.4z" class="st4"/><path fill="#cdcccf" d="M470.8 385.6v-2.4c0-.1-.1-.2-.2-.2h-1.8c-.1 0-.2.1-.2.2v2.4h2.2z"/><path d="M480.2 415.1v-28c0-1-.8-1.8-1.8-1.8H415c-1 0-1.8.8-1.8 1.8v28h67z" class="st0"/><path d="M420.5 390.6c0 .1-.1.2-.2.2h-4.7c-.1 0-.2-.1-.2-.2V388c0-.1.1-.2.2-.2h4.7c.1 0 .2.1.2.2v2.6zm5.8 0c0 .1-.1.2-.2.2h-4.7c-.1 0-.2-.1-.2-.2V388c0-.1.1-.2.2-.2h4.7c.1 0 .2.1.2.2v2.6zm5.7 0c0 .1-.1.2-.2.2h-4.7c-.1 0-.2-.1-.2-.2V388c0-.1.1-.2.2-.2h4.7c.1 0 .2.1.2.2v2.6zm5.8 0c0 .1-.1.2-.2.2h-4.7c-.1 0-.2-.1-.2-.2V388c0-.1.1-.2.2-.2h4.7c.1 0 .2.1.2.2v2.6zm5.8 0c0 .1-.1.2-.2.2h-4.7c-.1 0-.2-.1-.2-.2V388c0-.1.1-.2.2-.2h4.7c.1 0 .2.1.2.2v2.6zm5.7 0c0 .1-.1.2-.2.2h-4.7c-.1 0-.2-.1-.2-.2V388c0-.1.1-.2.2-.2h4.7c.1 0 .2.1.2.2v2.6zm5.8 0c0 .1-.1.2-.2.2h-4.7c-.1 0-.2-.1-.2-.2V388c0-.1.1-.2.2-.2h4.7c.1 0 .2.1.2.2v2.6zm5.7 0c0 .1-.1.2-.2.2h-4.7c-.1 0-.2-.1-.2-.2V388c0-.1.1-.2.2-.2h4.7c.1 0 .2.1.2.2v2.6zm5.8 0c0 .1-.1.2-.2.2h-4.7c-.1 0-.2-.1-.2-.2V388c0-.1.1-.2.2-.2h4.7c.1 0 .2.1.2.2v2.6zm5.8 0c0 .1-.1.2-.2.2h-4.7c-.1 0-.2-.1-.2-.2V388c0-.1.1-.2.2-.2h4.7c.1 0 .2.1.2.2v2.6zm5.7 0c0 .1-.1.2-.2.2h-4.7c-.1 0-.2-.1-.2-.2V388c0-.1.1-.2.2-.2h4.7c.1 0 .2.1.2.2v2.6zm-57.6 3.6c0 .1-.1.2-.2.2h-4.7c-.1 0-.2-.1-.2-.2v-2.3c0-.1.1-.2.2-.2h4.7c.1 0 .2.1.2.2v2.3zm5.8 0c0 .1-.1.2-.2.2h-4.7c-.1 0-.2-.1-.2-.2v-2.3c0-.1.1-.2.2-.2h4.7c.1 0 .2.1.2.2v2.3zm5.7 0c0 .1-.1.2-.2.2h-4.7c-.1 0-.2-.1-.2-.2v-2.3c0-.1.1-.2.2-.2h4.7c.1 0 .2.1.2.2v2.3zm5.8 0c0 .1-.1.2-.2.2h-4.7c-.1 0-.2-.1-.2-.2v-2.3c0-.1.1-.2.2-.2h4.7c.1 0 .2.1.2.2v2.3zm5.8 0c0 .1-.1.2-.2.2h-4.7c-.1 0-.2-.1-.2-.2v-2.3c0-.1.1-.2.2-.2h4.7c.1 0 .2.1.2.2v2.3zm5.7 0c0 .1-.1.2-.2.2h-4.7c-.1 0-.2-.1-.2-.2v-2.3c0-.1.1-.2.2-.2h4.7c.1 0 .2.1.2.2v2.3zm5.8 0c0 .1-.1.2-.2.2h-4.7c-.1 0-.2-.1-.2-.2v-2.3c0-.1.1-.2.2-.2h4.7c.1 0 .2.1.2.2v2.3zm5.7 0c0 .1-.1.2-.2.2h-4.7c-.1 0-.2-.1-.2-.2v-2.3c0-.1.1-.2.2-.2h4.7c.1 0 .2.1.2.2v2.3zm5.8 0c0 .1-.1.2-.2.2h-4.7c-.1 0-.2-.1-.2-.2v-2.3c0-.1.1-.2.2-.2h4.7c.1 0 .2.1.2.2v2.3zm5.8 0c0 .1-.1.2-.2.2h-4.7c-.1 0-.2-.1-.2-.2v-2.3c0-.1.1-.2.2-.2h4.7c.1 0 .2.1.2.2v2.3zm5.7 0c0 .1-.1.2-.2.2h-4.7c-.1 0-.2-.1-.2-.2v-2.3c0-.1.1-.2.2-.2h4.7c.1 0 .2.1.2.2v2.3zm-57.6 7.1c0 .1-.1.2-.2.2h-4.7c-.1 0-.2-.1-.2-.2v-4.7c0-.1.1-.2.2-.2h4.7c.1 0 .2.1.2.2v4.7zm5.8 0c0 .1-.1.2-.2.2h-4.7c-.1 0-.2-.1-.2-.2v-4.7c0-.1.1-.2.2-.2h4.7c.1 0 .2.1.2.2v4.7zm5.7 0c0 .1-.1.2-.2.2h-4.7c-.1 0-.2-.1-.2-.2v-4.7c0-.1.1-.2.2-.2h4.7c.1 0 .2.1.2.2v4.7zm5.8 0c0 .1-.1.2-.2.2h-4.7c-.1 0-.2-.1-.2-.2v-4.7c0-.1.1-.2.2-.2h4.7c.1 0 .2.1.2.2v4.7zm5.8 0c0 .1-.1.2-.2.2h-4.7c-.1 0-.2-.1-.2-.2v-4.7c0-.1.1-.2.2-.2h4.7c.1 0 .2.1.2.2v4.7zm5.7 0c0 .1-.1.2-.2.2h-4.7c-.1 0-.2-.1-.2-.2v-4.7c0-.1.1-.2.2-.2h4.7c.1 0 .2.1.2.2v4.7zm5.8 0c0 .1-.1.2-.2.2h-4.7c-.1 0-.2-.1-.2-.2v-4.7c0-.1.1-.2.2-.2h4.7c.1 0 .2.1.2.2v4.7zm5.7 0c0 .1-.1.2-.2.2h-4.7c-.1 0-.2-.1-.2-.2v-4.7c0-.1.1-.2.2-.2h4.7c.1 0 .2.1.2.2v4.7zm5.8 0c0 .1-.1.2-.2.2h-4.7c-.1 0-.2-.1-.2-.2v-4.7c0-.1.1-.2.2-.2h4.7c.1 0 .2.1.2.2v4.7zm5.8 0c0 .1-.1.2-.2.2h-4.7c-.1 0-.2-.1-.2-.2v-4.7c0-.1.1-.2.2-.2h4.7c.1 0 .2.1.2.2v4.7zm5.7 0c0 .1-.1.2-.2.2h-4.7c-.1 0-.2-.1-.2-.2v-4.7c0-.1.1-.2.2-.2h4.7c.1 0 .2.1.2.2v4.7zm-57.6 6c0 .1-.1.2-.2.2h-4.7c-.1 0-.2-.1-.2-.2v-4.7c0-.1.1-.2.2-.2h4.7c.1 0 .2.1.2.2v4.7zm5.8 0c0 .1-.1.2-.2.2h-4.7c-.1 0-.2-.1-.2-.2v-4.7c0-.1.1-.2.2-.2h4.7c.1 0 .2.1.2.2v4.7zm5.7 0c0 .1-.1.2-.2.2h-4.7c-.1 0-.2-.1-.2-.2v-4.7c0-.1.1-.2.2-.2h4.7c.1 0 .2.1.2.2v4.7zm5.8 0c0 .1-.1.2-.2.2h-4.7c-.1 0-.2-.1-.2-.2v-4.7c0-.1.1-.2.2-.2h4.7c.1 0 .2.1.2.2v4.7zm5.8 0c0 .1-.1.2-.2.2h-4.7c-.1 0-.2-.1-.2-.2v-4.7c0-.1.1-.2.2-.2h4.7c.1 0 .2.1.2.2v4.7zm5.7 0c0 .1-.1.2-.2.2h-4.7c-.1 0-.2-.1-.2-.2v-4.7c0-.1.1-.2.2-.2h4.7c.1 0 .2.1.2.2v4.7zm5.8 0c0 .1-.1.2-.2.2h-4.7c-.1 0-.2-.1-.2-.2v-4.7c0-.1.1-.2.2-.2h4.7c.1 0 .2.1.2.2v4.7zm5.7 0c0 .1-.1.2-.2.2h-4.7c-.1 0-.2-.1-.2-.2v-4.7c0-.1.1-.2.2-.2h4.7c.1 0 .2.1.2.2v4.7zm5.8 0c0 .1-.1.2-.2.2h-4.7c-.1 0-.2-.1-.2-.2v-4.7c0-.1.1-.2.2-.2h4.7c.1 0 .2.1.2.2v4.7zm5.8 0c0 .1-.1.2-.2.2h-4.7c-.1 0-.2-.1-.2-.2v-4.7c0-.1.1-.2.2-.2h4.7c.1 0 .2.1.2.2v4.7zm5.7 0c0 .1-.1.2-.2.2h-4.7c-.1 0-.2-.1-.2-.2v-4.7c0-.1.1-.2.2-.2h4.7c.1 0 .2.1.2.2v4.7zm-57.6 6c0 .1-.1.2-.2.2h-4.7c-.1 0-.2-.1-.2-.2v-4.7c0-.1.1-.2.2-.2h4.7c.1 0 .2.1.2.2v4.7zm5.8 0c0 .1-.1.2-.2.2h-4.7c-.1 0-.2-.1-.2-.2v-4.7c0-.1.1-.2.2-.2h4.7c.1 0 .2.1.2.2v4.7zm28.8 0c0 .1-.1.2-.2.2h-27.8c-.1 0-.2-.1-.2-.2v-4.7c0-.1.1-.2.2-.2h27.8c.1 0 .2.1.2.2v4.7zm5.7 0c0 .1-.1.2-.2.2h-4.7c-.1 0-.2-.1-.2-.2v-4.7c0-.1.1-.2.2-.2h4.7c.1 0 .2.1.2.2v4.7zm5.8 0c0 .1-.1.2-.2.2h-4.7c-.1 0-.2-.1-.2-.2v-4.7c0-.1.1-.2.2-.2h4.7c.1 0 .2.1.2.2v4.7zm5.8 0c0 .1-.1.2-.2.2h-4.7c-.1 0-.2-.1-.2-.2v-4.7c0-.1.1-.2.2-.2h4.7c.1 0 .2.1.2.2v4.7zm5.7 0c0 .1-.1.2-.2.2h-4.7c-.1 0-.2-.1-.2-.2v-4.7c0-.1.1-.2.2-.2h4.7c.1 0 .2.1.2.2v4.7zM502.3 367.7h-1v-1.1c0-.2 0-.8.3-1.2.2-.2.5-.4 1-.4h6.4s1.2.1 1.8-.5c.3-.3.5-.7.5-1.2 0-2.1-1.1-2.3-2.4-2.3h-14.4c-1 0-2.9-.6-3-2.7-.1-1.1.2-2 .7-2.6.5-.6 1.3-.8 2.3-.8h14.7c.2 0 1.9-.1 2-1.8 0-.8-.1-1.5-.5-1.8-.3-.3-.8-.5-1.6-.5h-42.7v-1h42.7c1 0 1.8.3 2.3.8.6.6.8 1.5.7 2.6-.1 2.1-2 2.7-3 2.7h-14.7c-.7 0-1.3.2-1.6.5-.3.4-.5 1-.5 1.8.1 1.7 1.9 1.7 2 1.8h14.4c.9 0 3.4 0 3.4 3.3 0 .9-.3 1.5-.8 2-.9.8-2.4.7-2.6.7h-6.3c-.2 0-.2 0-.2.1-.1.1-.1.3-.1.4v1.2z" class="st4"/><path d="M508.2 380.2c0 3.2-2.6 5.8-5.8 5.8h-1.3c-3.2 0-5.8-2.6-5.8-5.8v-7.1c0-3.2 2.6-5.8 5.8-5.8h1.3c3.2 0 5.8 2.6 5.8 5.8v7.1z" class="st0"/><path d="M502.4 374.7c0 .3-.3.6-.6.6s-.6-.3-.6-.6v-2.8c0-.3.3-.6.6-.6s.6.3.6.6v2.8z" class="st4"/></g><g><path d="M511.2 328.3c0 6.1-2.7 11.6-6.9 15.4-.3.3-.7.6-1.1.9-.8.6-1.7 1.2-2.6 1.7l-1.2.6c-2.6 1.2-5.5 1.9-8.6 1.9h-77.6c-1.2 0-2.5-.1-3.7-.3-9.6-1.7-16.8-10.1-16.8-20.1 0-8.4 5.1-15.6 12.3-18.8-3-3.5-4.8-8-4.8-13 0-11.1 9-20 20-20 1.3 0 2.5.1 3.7.4v-.2c.1-.5.2-.9.4-1.4.1-.5.3-.9.5-1.3.3-.7.6-1.3 1-1.9.1-.2.2-.4.4-.6.3-.4.5-.8.8-1.1.4-.5.9-1.1 1.4-1.6 1.1-1.1 2.4-2.1 3.8-2.9l1.2-.6c.4-.2.8-.4 1.3-.5.4-.2.9-.3 1.3-.4.6-.2 1.3-.3 1.9-.4h.2c.4 0 .9-.1 1.3-.1h.1c1.2 0 2.4 0 3.6.2.3.1.6.1 1 .2 6.3 1.5 11 6.5 12.4 12.4.3-.1.6-.1.9-.2.9-.2 1.9-.2 2.9-.2s1.9.1 2.8.2c.3.1.6.1 1 .2 5.6 1.3 9.9 5.3 11.8 10.4 2.2-1 4.5-1.5 7-1.5 1.3 0 2.6.1 3.9.5 9.2 2.2 14.8 11.4 12.7 20.5-.2 1-.6 2-1 2.9 7.4 2.8 12.7 10.1 12.7 18.7z" class="st0"/></g><path d="M466.1 349.3h1.9v.9h-1.9z" class="st4" transform="rotate(90 467.078 349.746)"/><path d="M459.9 350h3.3v.9h-3.3z" class="st4" transform="rotate(90 461.55 350.435)"/><g><path d="M498.2 210.8h-31.6c-2 0-3.6-1.6-3.6-3.6v-5.5c0-2 1.6-3.6 3.6-3.6h31.6c2 0 3.6 1.6 3.6 3.6v5.5c0 1.9-1.6 3.6-3.6 3.6z" class="st0"/><path d="M498.2 223.5h-31.6c-2 0-3.6-1.6-3.6-3.6v-5.5c0-2 1.6-3.6 3.6-3.6h31.6c2 0 3.6 1.6 3.6 3.6v5.5c0 2-1.6 3.6-3.6 3.6z" class="st5"/><path d="M498.2 236.2h-31.6c-2 0-3.6-1.6-3.6-3.6v-5.5c0-2 1.6-3.6 3.6-3.6h31.6c2 0 3.6 1.6 3.6 3.6v5.5c0 2-1.6 3.6-3.6 3.6z" class="st0"/><circle cx="469.3" cy="204.4" r="2.3" class="st9"/><circle cx="495.8" cy="203.4" r=".7" class="st9"/><circle cx="493.1" cy="203.4" r=".7" class="st9"/><circle cx="497.1" cy="205.4" r=".7" class="st9"/><circle cx="494.4" cy="205.4" r=".7" class="st9"/><circle cx="490.4" cy="203.4" r=".7" class="st9"/><circle cx="491.8" cy="205.4" r=".7" class="st9"/><circle cx="487.7" cy="203.4" r=".7" class="st9"/><circle cx="489.1" cy="205.4" r=".7" class="st9"/><circle cx="485.1" cy="203.4" r=".7" class="st9"/><circle cx="486.4" cy="205.4" r=".7" class="st9"/><circle cx="469.3" cy="217.1" r="2.3" class="st6"/><circle cx="495.8" cy="216.1" r=".7" class="st6"/><circle cx="493.1" cy="216.1" r=".7" class="st6"/><circle cx="497.1" cy="218.1" r=".7" class="st6"/><circle cx="494.4" cy="218.1" r=".7" class="st6"/><circle cx="490.4" cy="216.1" r=".7" class="st6"/><circle cx="491.8" cy="218.1" r=".7" class="st6"/><circle cx="487.7" cy="216.1" r=".7" class="st6"/><circle cx="489.1" cy="218.1" r=".7" class="st6"/><circle cx="485.1" cy="216.1" r=".7" class="st6"/><circle cx="486.4" cy="218.1" r=".7" class="st6"/><circle cx="469.3" cy="229.8" r="2.3" class="st16"/><circle cx="495.8" cy="228.8" r=".7" class="st16"/><circle cx="493.1" cy="228.8" r=".7" class="st16"/><circle cx="497.1" cy="230.8" r=".7" class="st16"/><circle cx="494.4" cy="230.8" r=".7" class="st16"/><circle cx="490.4" cy="228.8" r=".7" class="st16"/><circle cx="491.8" cy="230.8" r=".7" class="st16"/><circle cx="487.7" cy="228.8" r=".7" class="st16"/><circle cx="489.1" cy="230.8" r=".7" class="st16"/><circle cx="485.1" cy="228.8" r=".7" class="st16"/><circle cx="486.4" cy="230.8" r=".7" class="st16"/></g><g><path d="M439.5 337.6h-31.6c-2 0-3.6-1.6-3.6-3.6v-5.5c0-2 1.6-3.6 3.6-3.6h31.6c2 0 3.6 1.6 3.6 3.6v5.5c0 1.9-1.6 3.6-3.6 3.6z" class="st0"/><circle cx="410.6" cy="331.2" r="2.3" class="st16"/><circle cx="437" cy="330.2" r=".7" class="st16"/><circle cx="434.4" cy="330.2" r=".7" class="st16"/><circle cx="438.4" cy="332.2" r=".7" class="st16"/><circle cx="435.7" cy="332.2" r=".7" class="st16"/><circle cx="431.7" cy="330.2" r=".7" class="st16"/><circle cx="433" cy="332.2" r=".7" class="st16"/><circle cx="429" cy="330.2" r=".7" class="st16"/><circle cx="430.3" cy="332.2" r=".7" class="st16"/><circle cx="426.3" cy="330.2" r=".7" class="st16"/><circle cx="427.7" cy="332.2" r=".7" class="st16"/></g><g><path d="M469 318.8h-31.6c-2 0-3.6-1.6-3.6-3.6v-5.5c0-2 1.6-3.6 3.6-3.6H469c2 0 3.6 1.6 3.6 3.6v5.5c0 2-1.6 3.6-3.6 3.6z" class="st0"/><circle cx="440.1" cy="312.4" r="2.3" class="st9"/><circle cx="466.6" cy="311.4" r=".7" class="st9"/><circle cx="463.9" cy="311.4" r=".7" class="st9"/><circle cx="467.9" cy="313.5" r=".7" class="st9"/><circle cx="465.2" cy="313.5" r=".7" class="st9"/><circle cx="461.2" cy="311.4" r=".7" class="st9"/><circle cx="462.5" cy="313.5" r=".7" class="st9"/><circle cx="458.5" cy="311.4" r=".7" class="st9"/><circle cx="459.9" cy="313.5" r=".7" class="st9"/><circle cx="455.9" cy="311.4" r=".7" class="st9"/><circle cx="457.2" cy="313.5" r=".7" class="st9"/></g><g><path d="M451 296.9h-31.6c-2 0-3.6-1.6-3.6-3.6v-5.5c0-2 1.6-3.6 3.6-3.6H451c2 0 3.6 1.6 3.6 3.6v5.5c0 1.9-1.6 3.6-3.6 3.6z" class="st0"/><circle cx="422.2" cy="290.5" r="2.3" class="st6"/><circle cx="448.6" cy="289.5" r=".7" class="st6"/><circle cx="445.9" cy="289.5" r=".7" class="st6"/><circle cx="449.9" cy="291.5" r=".7" class="st6"/><circle cx="447.3" cy="291.5" r=".7" class="st6"/><circle cx="443.3" cy="289.5" r=".7" class="st6"/><circle cx="444.6" cy="291.5" r=".7" class="st6"/><circle cx="440.6" cy="289.5" r=".7" class="st6"/><circle cx="441.9" cy="291.5" r=".7" class="st6"/><circle cx="437.9" cy="289.5" r=".7" class="st6"/><circle cx="439.2" cy="291.5" r=".7" class="st6"/></g><g><path d="M496.8 341.2h-31.6c-2 0-3.6-1.6-3.6-3.6v-5.5c0-2 1.6-3.6 3.6-3.6h31.6c2 0 3.6 1.6 3.6 3.6v5.5c0 2-1.6 3.6-3.6 3.6z" class="st0"/><circle cx="467.9" cy="334.9" r="2.3" class="st8"/><circle cx="494.4" cy="333.9" r=".7" class="st8"/><circle cx="491.7" cy="333.9" r=".7" class="st8"/><circle cx="495.7" cy="335.9" r=".7" class="st8"/><circle cx="493" cy="335.9" r=".7" class="st8"/><circle cx="489" cy="333.9" r=".7" class="st8"/><circle cx="490.3" cy="335.9" r=".7" class="st8"/><circle cx="486.3" cy="333.9" r=".7" class="st8"/><circle cx="487.7" cy="335.9" r=".7" class="st8"/><circle cx="483.7" cy="333.9" r=".7" class="st8"/><circle cx="485" cy="335.9" r=".7" class="st8"/></g></svg>