<svg xmlns="http://www.w3.org/2000/svg" id="main" x="0" y="0" version="1.1" viewBox="0 0 604.5 460" xml:space="preserve"><style>.st0{fill:#fff}.st1{fill:#4fc0ff}.st2{fill:#f2eeee}.st3{fill:#e89282}.st4{fill:#e5e5e5}.st5{fill:#f4ca60}.st6{fill:#3be29e}.st7{fill:#50b6ef}.st8{fill:#fbb766}.st9{fill:#b781ea}.st10{fill:#e8e8e8}</style><path d="M445.3 42.6h3.3v38.8h-3.3z" class="st0" transform="rotate(-45.001 446.966 62.05)"/><path d="M434.5 50.1h3.3v2.3h-3.3z" class="st1" transform="rotate(-45.001 436.137 51.22)"/><path d="M437.6 53.3h3.3v2.1h-3.3z" class="st1" transform="rotate(-45.001 439.293 54.376)"/><path d="M487.1 42.6h3.3v38.8h-3.3z" class="st0" transform="rotate(-134.999 488.74 62.046)"/><path d="M497.9 50.1h3.3v2.3h-3.3z" class="st1" transform="rotate(-134.999 499.568 51.216)"/><path d="M494.8 53.3h3.3v2.1h-3.3z" class="st1" transform="rotate(-134.999 496.415 54.368)"/><path d="M502.2 78.1v17.1h-69V78.1c0-3.1 2.5-5.7 5.7-5.7h57.6c3.2.1 5.7 2.6 5.7 5.7z" class="st0"/><path d="M457.3 89.1h21.6c5.6 0 10.1-4.4 10.1-9.9h-41.8c0 5.5 4.5 9.9 10.1 9.9z" class="st2"/><path d="M433.3 79.2h69v2.9h-69z" class="st2"/><path d="M456.3 83.5c0 .8-.7 1.5-1.5 1.5s-1.5-.7-1.5-1.5.7-1.5 1.5-1.5 1.5.7 1.5 1.5z" class="st3"/><path d="M462.9 83.5c0 .8-.7 1.5-1.5 1.5s-1.5-.7-1.5-1.5.7-1.5 1.5-1.5 1.5.7 1.5 1.5zm6.6 0c0 .8-.7 1.5-1.5 1.5s-1.5-.7-1.5-1.5.7-1.5 1.5-1.5 1.5.7 1.5 1.5zm6.6 0c0 .8-.7 1.5-1.5 1.5s-1.5-.7-1.5-1.5.7-1.5 1.5-1.5 1.5.7 1.5 1.5zm6.6 0c0 .8-.7 1.5-1.5 1.5s-1.5-.7-1.5-1.5.7-1.5 1.5-1.5c.9 0 1.5.7 1.5 1.5z" class="st1"/><path d="M445.6 98.6H440c-.9 0-1.5-.7-1.5-1.5v-1.8h8.7V97c0 .9-.7 1.6-1.6 1.6zm44.3 0h5.6c.9 0 1.5-.7 1.5-1.5v-1.8h-8.7V97c0 .9.7 1.6 1.6 1.6z" class="st2"/><path d="M489.6 42.3c-.4 0-.9-.2-1.2-.5-11.2-11.2-29.5-11.2-40.7 0-.7.7-1.8.7-2.4 0-.7-.7-.7-1.8 0-2.4 12.6-12.6 33-12.6 45.6 0 .7.7.7 1.8 0 2.4-.4.4-.9.5-1.3.5z" class="st0"/><path d="M451.8 47.7c-.4 0-.9-.2-1.2-.5-.7-.7-.7-1.8 0-2.4 9.6-9.6 25.3-9.6 34.9 0 .7.7.7 1.8 0 2.4-.7.7-1.8.7-2.4 0-8.3-8.3-21.7-8.3-30 0-.4.3-.9.5-1.3.5z" class="st0"/><path d="M479.1 52.8c-.4 0-.9-.2-1.2-.5-2.6-2.6-6.2-4.1-9.9-4.1s-7.2 1.5-9.9 4.1c-.7.7-1.8.7-2.4 0-.7-.7-.7-1.8 0-2.4 3.3-3.3 7.7-5.1 12.3-5.1 4.7 0 9 1.8 12.3 5.1.7.7.7 1.8 0 2.4-.3.3-.7.5-1.2.5z" class="st0"/><path d="M474.2 57.7c-.4 0-.9-.2-1.2-.5-1.3-1.3-3.1-2.1-5-2.1s-3.7.7-5 2.1c-.7.7-1.8.7-2.4 0-.7-.7-.7-1.8 0-2.4 2-2 4.6-3.1 7.4-3.1 2.8 0 5.5 1.1 7.4 3.1.7.7.7 1.8 0 2.4-.3.3-.7.5-1.2.5z" class="st0"/><circle cx="468" cy="62.2" r="4.3" class="st0"/><path d="M158.6 272.2l-2.2-2.2 8.6-8.6h16.6v3.1h-15.4z" class="st0"/><path d="M154.9 280.4c-3.3 0-6-2.7-6-6s2.7-6 6-6 6 2.7 6 6-2.7 6-6 6zm0-8.9c-1.6 0-2.9 1.3-2.9 2.9s1.3 2.9 2.9 2.9c1.6 0 2.9-1.3 2.9-2.9s-1.3-2.9-2.9-2.9zm26.4-26.1h-12.8l-8.6-8.6 2.2-2.1 7.7 7.6h11.5z" class="st0"/><path d="M189.7 251.7H146l-8.6-8.6 2.2-2.2 7.7 7.7h42.4zm-31.3-13.3c-3.3 0-6-2.7-6-6s2.7-6 6-6 6 2.7 6 6-2.7 6-6 6zm0-8.9c-1.6 0-2.9 1.3-2.9 2.9 0 1.6 1.3 2.9 2.9 2.9 1.6 0 2.9-1.3 2.9-2.9 0-1.6-1.3-2.9-2.9-2.9z" class="st0"/><path d="M136.7 244.8c-3.3 0-6-2.7-6-6s2.7-6 6-6 6 2.7 6 6-2.7 6-6 6zm0-8.9c-1.6 0-2.9 1.3-2.9 2.9 0 1.6 1.3 2.9 2.9 2.9s2.9-1.3 2.9-2.9c0-1.6-1.3-2.9-2.9-2.9zm-7.4 28.6c-3.3 0-6-2.7-6-6s2.7-6 6-6 6 2.7 6 6c.1 3.3-2.6 6-6 6zm0-8.9c-1.6 0-2.9 1.3-2.9 2.9 0 1.6 1.3 2.9 2.9 2.9 1.6 0 2.9-1.3 2.9-2.9.1-1.6-1.2-2.9-2.9-2.9z" class="st0"/><path d="M163.4 260.1h-31.2V257h29.9l8-8 2.1 2.2z" class="st0"/><path d="M464.2 102.4v307.4h-69v37.1H250v-37.1h-72.6V102.4H250V65.3h145.2v37.1z" class="st4"/><path d="M350.7 98.5h117V406h-117z" class="st0"/><path d="M363.2 113h92v246.2h-92z" class="st2"/><path d="M368.8 119.6h80.8V136h-80.8zm0 19.7h80.8v16.4h-80.8zm0 19.7h80.8v16.4h-80.8zm0 19.7h80.8v16.4h-80.8zm0 19.7h80.8v16.4h-80.8zm0 19.7h80.8v16.4h-80.8zm0 19.7h80.8v16.4h-80.8zm0 19.7h80.8v16.4h-80.8zm0 19.7h80.8v16.4h-80.8zm0 19.6h80.8v16.4h-80.8zm0 19.7h80.8v16.4h-80.8zm0 19.7h80.8v16.4h-80.8z" class="st0"/><path d="M379.9 366.8H442v39.1h-62.1z" class="st2"/><path d="M388.7 379.9H433v4.6h-44.3zm0 9.5H433v4.6h-44.3z" class="st0"/><circle cx="376.2" cy="127.8" r="1.9" class="st3"/><circle cx="383.2" cy="127.8" r="1.9" class="st5"/><path d="M431.9 124.8h13.2v2h-13.2zm0 4h13.2v2h-13.2z" class="st6"/><path d="M413.4 124.8h13.2v2h-13.2zm0 4h13.2v2h-13.2z" class="st7"/><circle cx="376.2" cy="147.5" r="1.9" class="st3"/><circle cx="383.2" cy="147.5" r="1.9" class="st5"/><path d="M431.9 144.5h13.2v2h-13.2zm0 4h13.2v2h-13.2z" class="st6"/><path d="M413.4 144.5h13.2v2h-13.2zm0 4h13.2v2h-13.2z" class="st7"/><circle cx="376.2" cy="167.2" r="1.9" class="st3"/><circle cx="383.2" cy="167.2" r="1.9" class="st5"/><path d="M431.9 164.2h13.2v2h-13.2zm0 4h13.2v2h-13.2z" class="st6"/><path d="M413.4 164.2h13.2v2h-13.2zm0 4h13.2v2h-13.2z" class="st7"/><circle cx="376.2" cy="186.9" r="1.9" class="st3"/><circle cx="383.2" cy="186.9" r="1.9" class="st5"/><path d="M431.9 183.9h13.2v2h-13.2zm0 4h13.2v2h-13.2z" class="st6"/><path d="M413.4 183.9h13.2v2h-13.2zm0 4h13.2v2h-13.2z" class="st7"/><circle cx="376.2" cy="206.6" r="1.9" class="st3"/><circle cx="383.2" cy="206.6" r="1.9" class="st5"/><path d="M431.9 203.6h13.2v2h-13.2zm0 4h13.2v2h-13.2z" class="st6"/><path d="M413.4 203.6h13.2v2h-13.2zm0 4h13.2v2h-13.2z" class="st7"/><circle cx="376.2" cy="226.3" r="1.9" class="st3"/><circle cx="383.2" cy="226.3" r="1.9" class="st5"/><path d="M431.9 223.3h13.2v2h-13.2zm0 4h13.2v2h-13.2z" class="st6"/><path d="M413.4 223.3h13.2v2h-13.2zm0 4h13.2v2h-13.2z" class="st7"/><circle cx="376.2" cy="246" r="1.9" class="st3"/><circle cx="383.2" cy="246" r="1.9" class="st5"/><path d="M431.9 243h13.2v2h-13.2zm0 4h13.2v2h-13.2z" class="st6"/><path d="M413.4 243h13.2v2h-13.2zm0 4h13.2v2h-13.2z" class="st7"/><circle cx="376.2" cy="265.7" r="1.9" class="st3"/><circle cx="383.2" cy="265.7" r="1.9" class="st5"/><path d="M431.9 262.6h13.2v2h-13.2zm0 4.1h13.2v2h-13.2z" class="st6"/><path d="M413.4 262.6h13.2v2h-13.2zm0 4.1h13.2v2h-13.2z" class="st7"/><circle cx="376.2" cy="285.4" r="1.9" class="st3"/><circle cx="383.2" cy="285.4" r="1.9" class="st5"/><path d="M431.9 282.3h13.2v2h-13.2zm0 4.1h13.2v2h-13.2z" class="st6"/><path d="M413.4 282.3h13.2v2h-13.2zm0 4.1h13.2v2h-13.2z" class="st7"/><circle cx="376.2" cy="305" r="1.9" class="st3"/><circle cx="383.2" cy="305" r="1.9" class="st5"/><path d="M431.9 302h13.2v2h-13.2zm0 4.1h13.2v2h-13.2z" class="st6"/><path d="M413.4 302h13.2v2h-13.2zm0 4.1h13.2v2h-13.2z" class="st7"/><circle cx="376.2" cy="324.7" r="1.9" class="st3"/><circle cx="383.2" cy="324.7" r="1.9" class="st5"/><path d="M431.9 321.7h13.2v2h-13.2zm0 4h13.2v2h-13.2z" class="st6"/><path d="M413.4 321.7h13.2v2h-13.2zm0 4h13.2v2h-13.2z" class="st7"/><circle cx="376.2" cy="344.4" r="1.9" class="st3"/><circle cx="383.2" cy="344.4" r="1.9" class="st5"/><path d="M431.9 341.4h13.2v2h-13.2zm0 4h13.2v2h-13.2z" class="st6"/><path d="M413.4 341.4h13.2v2h-13.2zm0 4h13.2v2h-13.2z" class="st7"/><path d="M180.9 98.5h117V406h-117z" class="st0"/><path d="M193.4 113h92v246.2h-92z" class="st2"/><path d="M199 119.6h80.8V136H199zm0 19.7h80.8v16.4H199zm0 19.7h80.8v16.4H199zm0 19.7h80.8v16.4H199zm0 19.7h80.8v16.4H199zm0 19.7h80.8v16.4H199zm0 19.7h80.8v16.4H199zm0 19.7h80.8v16.4H199zm0 19.7h80.8v16.4H199zm0 19.6h80.8v16.4H199zm0 19.7h80.8v16.4H199zm0 19.7h80.8v16.4H199z" class="st0"/><path d="M210.1 366.8h62.1v39.1h-62.1z" class="st2"/><path d="M218.9 379.9h44.3v4.6h-44.3zm0 9.5h44.3v4.6h-44.3z" class="st0"/><circle cx="206.3" cy="127.8" r="1.9" class="st3"/><circle cx="213.3" cy="127.8" r="1.9" class="st5"/><path d="M262.1 124.8h13.2v2h-13.2zm-.1 4h13.2v2H262z" class="st6"/><path d="M243.6 124.8h13.2v2h-13.2zm-.1 4h13.2v2h-13.2z" class="st7"/><circle cx="206.3" cy="147.5" r="1.9" class="st3"/><circle cx="213.3" cy="147.5" r="1.9" class="st5"/><path d="M262.1 144.5h13.2v2h-13.2zm-.1 4h13.2v2H262z" class="st6"/><path d="M243.6 144.5h13.2v2h-13.2zm-.1 4h13.2v2h-13.2z" class="st7"/><circle cx="206.3" cy="167.2" r="1.9" class="st3"/><circle cx="213.3" cy="167.2" r="1.9" class="st5"/><path d="M262.1 164.2h13.2v2h-13.2zm-.1 4h13.2v2H262z" class="st6"/><path d="M243.6 164.2h13.2v2h-13.2zm-.1 4h13.2v2h-13.2z" class="st7"/><circle cx="206.3" cy="186.9" r="1.9" class="st3"/><circle cx="213.3" cy="186.9" r="1.9" class="st5"/><path d="M262.1 183.9h13.2v2h-13.2zm-.1 4h13.2v2H262z" class="st6"/><path d="M243.6 183.9h13.2v2h-13.2zm-.1 4h13.2v2h-13.2z" class="st7"/><circle cx="206.3" cy="206.6" r="1.9" class="st3"/><circle cx="213.3" cy="206.6" r="1.9" class="st5"/><path d="M262.1 203.6h13.2v2h-13.2zm-.1 4h13.2v2H262z" class="st6"/><path d="M243.6 203.6h13.2v2h-13.2zm-.1 4h13.2v2h-13.2z" class="st7"/><circle cx="206.3" cy="226.3" r="1.9" class="st3"/><circle cx="213.3" cy="226.3" r="1.9" class="st5"/><path d="M262.1 223.3h13.2v2h-13.2zm-.1 4h13.2v2H262z" class="st6"/><path d="M243.6 223.3h13.2v2h-13.2zm-.1 4h13.2v2h-13.2z" class="st7"/><circle cx="206.3" cy="246" r="1.9" class="st3"/><circle cx="213.3" cy="246" r="1.9" class="st5"/><path d="M262.1 243h13.2v2h-13.2zm-.1 4h13.2v2H262z" class="st6"/><path d="M243.6 243h13.2v2h-13.2zm-.1 4h13.2v2h-13.2z" class="st7"/><circle cx="206.3" cy="265.7" r="1.9" class="st3"/><circle cx="213.3" cy="265.7" r="1.9" class="st5"/><path d="M262.1 262.6h13.2v2h-13.2zm-.1 4.1h13.2v2H262z" class="st6"/><path d="M243.6 262.6h13.2v2h-13.2zm-.1 4.1h13.2v2h-13.2z" class="st7"/><circle cx="206.3" cy="285.4" r="1.9" class="st3"/><circle cx="213.3" cy="285.4" r="1.9" class="st5"/><path d="M262.1 282.3h13.2v2h-13.2zm-.1 4.1h13.2v2H262z" class="st6"/><path d="M243.6 282.3h13.2v2h-13.2zm-.1 4.1h13.2v2h-13.2z" class="st7"/><circle cx="206.3" cy="305" r="1.9" class="st3"/><circle cx="213.3" cy="305" r="1.9" class="st5"/><g><path d="M262.1 302h13.2v2h-13.2zm-.1 4.1h13.2v2H262z" class="st6"/><path d="M243.6 302h13.2v2h-13.2zm-.1 4.1h13.2v2h-13.2z" class="st7"/></g><g><circle cx="206.3" cy="324.7" r="1.9" class="st3"/><circle cx="213.3" cy="324.7" r="1.9" class="st5"/></g><g><path d="M262.1 321.7h13.2v2h-13.2zm-.1 4h13.2v2H262z" class="st6"/><path d="M243.6 321.7h13.2v2h-13.2zm-.1 4h13.2v2h-13.2z" class="st7"/></g><g><circle cx="206.3" cy="344.4" r="1.9" class="st3"/><circle cx="213.3" cy="344.4" r="1.9" class="st5"/></g><g><path d="M262.1 341.4h13.2v2h-13.2zm-.1 4h13.2v2H262z" class="st6"/><path d="M243.6 341.4h13.2v2h-13.2zm-.1 4h13.2v2h-13.2z" class="st7"/></g><g><path d="M486.5 272.2l2.2-2.2-8.6-8.6h-16.7v3.1h15.4z" class="st0"/><path d="M484.2 274.4c0-3.3 2.7-6 6-6s6 2.7 6 6-2.7 6-6 6-6-2.7-6-6zm3.1 0c0 1.6 1.3 2.9 2.9 2.9 1.6 0 2.9-1.3 2.9-2.9s-1.3-2.9-2.9-2.9c-1.6 0-2.9 1.3-2.9 2.9zm-23.5-29h12.8l8.6-8.6-2.2-2.1-7.7 7.6h-11.5z" class="st0"/><path d="M455.4 251.7h43.7l8.5-8.6-2.2-2.2-7.6 7.7h-42.4zm25.3-19.3c0-3.3 2.7-6 6-6s6 2.7 6 6-2.7 6-6 6-6-2.7-6-6zm3 0c0 1.6 1.3 2.9 2.9 2.9 1.6 0 2.9-1.3 2.9-2.9 0-1.6-1.3-2.9-2.9-2.9-1.5 0-2.9 1.3-2.9 2.9z" class="st0"/><path d="M502.4 238.8c0-3.3 2.7-6 6-6s6 2.7 6 6-2.7 6-6 6-6-2.7-6-6zm3.1 0c0 1.6 1.3 2.9 2.9 2.9s2.9-1.3 2.9-2.9c0-1.6-1.3-2.9-2.9-2.9s-2.9 1.3-2.9 2.9zm4.2 19.7c0-3.3 2.7-6 6-6s6 2.7 6 6-2.7 6-6 6-6-2.7-6-6zm3.1 0c0 1.6 1.3 2.9 2.9 2.9 1.6 0 2.9-1.3 2.9-2.9 0-1.6-1.3-2.9-2.9-2.9-1.6 0-2.9 1.3-2.9 2.9z" class="st0"/><path d="M481.6 260.1h31.3V257h-30l-7.9-8-2.2 2.2z" class="st0"/></g><g><path d="M182.4 94.7c-2.1-3.9-5.6-7-9.8-8.7-1.3-10.9-10.6-19.3-21.9-19.3-9.2 0-17 5.6-20.4 13.6-1.7-.5-3.6-.8-5.5-.8-9.2 0-16.8 6.5-18.6 15.2h-3.5c-11.1 0-20.1 9-20.1 20.1 0 11.1 9 20.1 20.1 20.1h78.2c11.1 0 20.1-9 20.1-20.1.2-10.7-8.1-19.4-18.6-20.1z" class="st0"/><path d="M169.7 84.8l3 1.2c-1.5-11.4-10.8-19.3-21.9-19.3h-.5c10 .2 18.3 8 19.4 18.1zm8.8 7.2c.8 1.6.9 2.4.9 2.4l3 .3s-2.9-5.8-8.5-8.1c1.9 1.4 3.5 3.3 4.6 5.4zm10.7 4.3c3.9 3.3 6.3 8.3 6.3 13.8 0 10-8.1 18.2-18.2 18.2h-70.6c-10 0-18.2-8.1-18.2-18.2 0-5.5 2.5-10.5 6.3-13.8-7.1 3.1-12.1 10.2-12.1 18.5 0 11.1 9 20.1 20.1 20.1H181c11.1 0 20.1-9 20.1-20.1.1-8.3-4.8-15.4-11.9-18.5zm-80-1.7c1.2-6.4 4.1-10.9 7.6-13.3-4.3 2.1-7.6 5.5-9.5 10.2-.6 1.6-1 3.2-1 3.2h2.9z" class="st2"/></g><g><path d="M227.3 31.5c-1.4-2.6-3.7-4.6-6.4-5.7-.9-7.1-7-12.7-14.3-12.7-6 0-11.2 3.7-13.3 8.9-1.1-.3-2.3-.5-3.6-.5-6 0-11 4.3-12.2 9.9h-2.3c-7.3 0-13.2 5.9-13.2 13.2 0 7.3 5.9 13.2 13.2 13.2h51.2c7.3 0 13.2-5.9 13.2-13.2 0-7-5.4-12.7-12.3-13.1z" class="st0"/><path d="M218.9 25l2 .8c-1-7.4-7-12.7-14.3-12.7h-.3c6.5.1 11.9 5.2 12.6 11.9zm5.8 4.7c.5 1 .6 1.6.6 1.6l2 .2s-1.9-3.8-5.6-5.3c1.3.9 2.3 2.1 3 3.5zm7 2.8c2.5 2.2 4.1 5.4 4.1 9 0 6.6-5.3 11.9-11.9 11.9h-46.3c-6.6 0-11.9-5.3-11.9-11.9 0-3.6 1.6-6.9 4.2-9-4.7 2-7.9 6.7-7.9 12.1 0 7.3 5.9 13.2 13.2 13.2h51.2c7.3 0 13.2-5.9 13.2-13.2 0-5.4-3.2-10-7.9-12.1zm-52.4-1.1c.8-4.2 2.7-7.1 5-8.7-2.8 1.3-5 3.6-6.2 6.7-.4 1-.6 2.1-.6 2.1h1.8z" class="st2"/></g><g><path d="M141.2 109.2h-26.6L127.8 96l.1-.1zm-19.2 0h11.6v34.3H122z" class="st7"/></g><g><path d="M170.2 143.5l-13.3 13.3-13.3-13.3zm-19.1-34.3h11.6v34.3h-11.6z" class="st6"/></g><g><path d="M188.3 388.4v.2c0 20.6-16.7 37.2-37.2 37.2-20.6 0-37.2-16.7-37.2-37.2v-.2c.1-20.5 16.7-37.1 37.2-37.1 20.5.1 37.2 16.6 37.2 37.1z" class="st2"/><path d="M151.1 408.8c-11.1 0-20.2-9.1-20.2-20.2s9.1-20.2 20.2-20.2 20.2 9.1 20.2 20.2-9.1 20.2-20.2 20.2zm0-39c-10.4 0-18.8 8.4-18.8 18.8s8.4 18.8 18.8 18.8 18.8-8.4 18.8-18.8-8.4-18.8-18.8-18.8z" class="st7"/><path d="M147.6 350.8c-21.7 0-39.3 17.6-39.3 39.3 0 21.7 17.6 39.3 39.3 39.3 21.7 0 39.3-17.6 39.3-39.3 0-21.6-17.6-39.3-39.3-39.3zm0 74.5c-19.4 0-35.2-15.8-35.2-35.2 0-19.4 15.8-35.1 35.1-35.2 19.4 0 35.2 15.8 35.2 35.2.1 19.4-15.7 35.2-35.1 35.2z" class="st4"/><path d="M149.6 349.8h3v7.1h-3z" class="st7"/><path d="M149.6 420.4h3v7.1h-3z" class="st8"/><path d="M184.9 385.1h3v7.1h-3z" class="st7" transform="rotate(90 186.406 388.595)"/><path d="M114.3 385.1h3v7.1h-3z" class="st7" transform="rotate(90 115.802 388.595)"/><path d="M124.6 360.1h3v7.1h-3z" class="st7" transform="rotate(-45.001 126.138 363.636)"/><path d="M174.5 410h3v7.1h-3z" class="st8" transform="rotate(-45.001 176.062 413.561)"/><path d="M174.5 360.1h3v7.1h-3z" class="st7" transform="rotate(45.001 176.071 363.632)"/><path d="M124.6 410h3v7.1h-3z" class="st8" transform="rotate(45.001 126.147 413.557)"/><path d="M136.4 352.3h3v7.1h-3z" class="st7" transform="rotate(-21.863 137.958 355.83)"/><path d="M162.7 417.8h3v7.1h-3z" class="st8" transform="rotate(-21.863 164.27 421.382)"/><path d="M182.3 371.9h3v7.1h-3z" class="st7" transform="rotate(68.137 183.864 375.425)"/><path d="M116.8 398.2h3v7.1h-3z" class="st8" transform="rotate(68.137 118.343 401.719)"/><path d="M117.1 371.2h3v7.1h-3z" class="st7" transform="rotate(-66.865 118.644 374.719)"/><path d="M182 398.9h3v7.1h-3z" class="st8" transform="rotate(-66.865 183.57 402.458)"/><path d="M163.5 352.6h3v7.1h-3z" class="st7" transform="rotate(23.132 164.962 356.152)"/><path d="M135.7 417.5h3v7.1h-3z" class="st8" transform="rotate(23.132 137.217 421.078)"/><path d="M150.3 368.8h1.6v3.6h-1.6z" class="st7"/><path d="M150.3 404.8h1.6v3.6h-1.6z" class="st8"/><path d="M168.4 386.8h1.6v3.6h-1.6z" class="st7" transform="rotate(90 169.137 388.595)"/><path d="M132.3 386.8h1.6v3.6h-1.6z" class="st7" transform="rotate(90 133.07 388.595)"/><path d="M137.6 374h1.6v3.6h-1.6z" class="st7" transform="rotate(-45.001 138.349 375.847)"/><path d="M163.1 399.5h1.6v3.6h-1.6z" class="st8" transform="rotate(-45.001 163.835 401.333)"/><path d="M163.1 374h1.6v3.6h-1.6z" class="st8" transform="rotate(45.001 163.86 375.843)"/><path d="M137.6 399.5h1.6v3.6h-1.6z" class="st8" transform="rotate(45.001 138.36 401.326)"/><path d="M143.6 370.1h1.6v3.6h-1.6z" class="st7" transform="rotate(-21.863 144.412 371.894)"/><path d="M157 403.5h1.6v3.6H157z" class="st8" transform="rotate(-21.863 157.813 405.316)"/><path d="M167.1 380.1h1.6v3.6h-1.6z" class="st7" transform="rotate(68.137 167.834 381.878)"/><path d="M133.6 393.5h1.6v3.6h-1.6z" class="st8" transform="rotate(68.137 134.367 395.29)"/><path d="M133.7 379.7h1.6v3.6h-1.6z" class="st7" transform="rotate(-66.865 134.535 381.512)"/><path d="M166.9 393.9h1.6v3.6h-1.6z" class="st8" transform="rotate(-66.865 167.684 395.67)"/><path d="M157.4 370.2h1.6v3.6h-1.6z" class="st7" transform="rotate(23.132 158.176 372.035)"/><path d="M143.2 403.4h1.6v3.6h-1.6z" class="st8" transform="rotate(23.132 144.003 405.202)"/><path d="M188.3 388.4v.2c0 20.6-16.7 37.2-37.2 37.2-20.6 0-37.2-16.7-37.2-37.2v-.2h74.4z" class="st0"/><path d="M151.1 349.3c-21.7 0-39.3 17.6-39.3 39.3 0 21.7 17.6 39.3 39.3 39.3 21.7 0 39.3-17.6 39.3-39.3 0-21.7-17.6-39.3-39.3-39.3zm0 74.4c-19.4 0-35.2-15.8-35.2-35.2 0-19.4 15.8-35.1 35.1-35.2 19.4 0 35.2 15.8 35.2 35.2.1 19.5-15.7 35.2-35.1 35.2z" class="st0"/><path d="M137.3 398.1h27.5v5.9h-27.5z" class="st7"/><path d="M168.4 371.7l-20.5 14.2 5.9 5.9z" class="st9"/><circle cx="151.1" cy="388.6" r="4.2" class="st0"/></g><g><path d="M253.5 61.4h145.2V443H253.5z" class="st0"/><path d="M269 79.5h114.1V385H269z" class="st2"/><path d="M275.9 87.6h100.3V108H275.9zm0 24.5h100.3v20.4H275.9zm0 24.4h100.3v20.4H275.9zm0 24.5h100.3v20.4H275.9zm0 24.4h100.3v20.4H275.9zm0 24.5h100.3v20.4H275.9zm0 24.4h100.3v20.4H275.9zm0 24.4h100.3v20.4H275.9zm0 24.5h100.3v20.4H275.9zm0 24.4h100.3V328H275.9zm0 24.5h100.3v20.4H275.9zm0 24.4h100.3v20.4H275.9z" class="st0"/><path d="M289.7 394.4h77.1v48.5h-77.1z" class="st2"/><path d="M300.7 410.7h54.9v5.7h-54.9zm0 11.8h54.9v5.7h-54.9z" class="st0"/><circle cx="285.1" cy="97.8" r="2.4" class="st3"/><circle cx="293.8" cy="97.8" r="2.4" class="st5"/><path d="M354.3 94.1h16.3v2.5h-16.3zm-.1 5h16.3v2.5h-16.3z" class="st6"/><path d="M331.3 94.1h16.3v2.5h-16.3zm-.1 5h16.3v2.5h-16.3z" class="st7"/><circle cx="285.1" cy="122.3" r="2.4" class="st3"/><circle cx="293.8" cy="122.3" r="2.4" class="st5"/><path d="M354.3 118.5h16.3v2.5h-16.3zm-.1 5h16.3v2.5h-16.3z" class="st6"/><path d="M331.3 118.5h16.3v2.5h-16.3zm-.1 5h16.3v2.5h-16.3z" class="st7"/><circle cx="285.1" cy="146.7" r="2.4" class="st3"/><circle cx="293.8" cy="146.7" r="2.4" class="st5"/><path d="M354.3 143h16.3v2.5h-16.3zm-.1 5h16.3v2.5h-16.3z" class="st6"/><path d="M331.3 143h16.3v2.5h-16.3zm-.1 5h16.3v2.5h-16.3z" class="st7"/><circle cx="285.1" cy="171.1" r="2.4" class="st3"/><circle cx="293.8" cy="171.1" r="2.4" class="st5"/><path d="M354.3 167.4h16.3v2.5h-16.3zm-.1 5h16.3v2.5h-16.3z" class="st6"/><path d="M331.3 167.4h16.3v2.5h-16.3zm-.1 5h16.3v2.5h-16.3z" class="st7"/><circle cx="285.1" cy="195.6" r="2.4" class="st3"/><circle cx="293.8" cy="195.6" r="2.4" class="st5"/><path d="M354.3 191.8h16.3v2.5h-16.3zm-.1 5h16.3v2.5h-16.3z" class="st6"/><path d="M331.3 191.8h16.3v2.5h-16.3zm-.1 5h16.3v2.5h-16.3z" class="st7"/><circle cx="285.1" cy="220" r="2.4" class="st3"/><circle cx="293.8" cy="220" r="2.4" class="st5"/><path d="M354.3 216.3h16.3v2.5h-16.3zm-.1 5h16.3v2.5h-16.3z" class="st6"/><path d="M331.3 216.3h16.3v2.5h-16.3zm-.1 5h16.3v2.5h-16.3z" class="st7"/><circle cx="285.1" cy="244.5" r="2.4" class="st3"/><circle cx="293.8" cy="244.5" r="2.4" class="st5"/><path d="M354.3 240.7h16.3v2.5h-16.3zm-.1 5h16.3v2.5h-16.3z" class="st6"/><path d="M331.3 240.7h16.3v2.5h-16.3zm-.1 5h16.3v2.5h-16.3z" class="st7"/><circle cx="285.1" cy="268.9" r="2.4" class="st3"/><circle cx="293.8" cy="268.9" r="2.4" class="st5"/><path d="M354.3 265.2h16.3v2.5h-16.3zm-.1 5h16.3v2.5h-16.3z" class="st6"/><path d="M331.3 265.2h16.3v2.5h-16.3zm-.1 5h16.3v2.5h-16.3z" class="st7"/><circle cx="285.1" cy="293.4" r="2.4" class="st3"/><circle cx="293.8" cy="293.4" r="2.4" class="st5"/><path d="M354.3 289.6h16.3v2.5h-16.3zm-.1 5h16.3v2.5h-16.3z" class="st6"/><path d="M331.3 289.6h16.3v2.5h-16.3zm-.1 5h16.3v2.5h-16.3z" class="st7"/><circle cx="285.1" cy="317.8" r="2.4" class="st3"/><circle cx="293.8" cy="317.8" r="2.4" class="st5"/><g><path d="M354.3 314h16.3v2.5h-16.3zm-.1 5h16.3v2.5h-16.3z" class="st6"/><path d="M331.3 314h16.3v2.5h-16.3zm-.1 5h16.3v2.5h-16.3z" class="st7"/></g><g><circle cx="285.1" cy="342.2" r="2.4" class="st3"/><circle cx="293.8" cy="342.2" r="2.4" class="st5"/></g><g><path d="M354.3 338.5h16.3v2.5h-16.3zm-.1 5h16.3v2.5h-16.3z" class="st6"/><path d="M331.3 338.5h16.3v2.5h-16.3zm-.1 5h16.3v2.5h-16.3z" class="st7"/></g><g><circle cx="285.1" cy="366.7" r="2.4" class="st3"/><circle cx="293.8" cy="366.7" r="2.4" class="st5"/></g><g><path d="M354.3 362.9h16.3v2.5h-16.3zm-.1 5h16.3v2.5h-16.3z" class="st6"/><path d="M331.3 362.9h16.3v2.5h-16.3zm-.1 5h16.3v2.5h-16.3z" class="st7"/></g></g><g><path d="M450.8 375.9h60.9v60.2h-60.9zm56.1 0h-8.6c0-10.9-7.6-19.9-17.1-20h-.3c-9.6 0-17.4 9-17.4 20H455c0-15.8 11.6-28.6 25.9-28.6h.3c14.2.1 25.7 12.9 25.7 28.6z" class="st4"/><path d="M484.1 419.2h-6.5c-3.3 0-5.9-2.7-5.9-5.9v-19.6c0-3.3 2.7-5.9 5.9-5.9h6.5c3.3 0 5.9 2.7 5.9 5.9v19.6c.1 3.3-2.6 5.9-5.9 5.9z" class="st10"/><ellipse cx="480.9" cy="399.3" class="st10" rx="6.1" ry="6.1" transform="rotate(-76.779 480.92 399.319)"/><path d="M478.4 401.9h5v11.9h-5z" class="st10"/><path d="M453.5 373.2h60.9v60.2h-60.9zm56.1-.1H501c0-10.9-7.6-19.9-17.1-20h-.3c-9.6 0-17.4 9-17.4 20h-8.6c0-15.8 11.6-28.6 25.9-28.6h.3c14.3.2 25.8 12.9 25.8 28.6z" class="st0"/><path d="M486.9 419.2h-6.5c-3.3 0-5.9-2.7-5.9-5.9v-19.6c0-3.3 2.7-5.9 5.9-5.9h6.5c3.3 0 5.9 2.7 5.9 5.9v19.6c0 3.3-2.6 5.9-5.9 5.9z" class="st2"/><ellipse cx="483.7" cy="399.3" class="st9" rx="6.1" ry="6.1" transform="rotate(-76.779 483.68 399.319)"/><path d="M481.2 401.9h5v11.9h-5z" class="st9"/></g><path d="M467.7 98.5h48.8v5h-48.8z" class="st0"/><path d="M462 109h21.6v2.2H462z" class="st0" transform="rotate(-45.001 472.846 110.157)"/></svg>