<svg version="1.1" id="main" xmlns="http://www.w3.org/2000/svg" x="0" y="0" viewBox="0 0 604.5 460" xml:space="preserve"><style>.st1{fill:#fdca5c}.st2{fill:#f7f7f7}.st3{fill:#fff}.st4{fill:#d6d6d6}.st5{fill:#eaeaea}.st6{fill:#e89282}.st7{fill:#f4ca60}.st8{fill:#50b6ef}.st11{fill:none;stroke:#fff;stroke-linecap:round;stroke-miterlimit:10}.st16{fill:#65ceae}.st21{fill:#ddd}.st23{fill:#bcbec0}.st24{fill:#2fb78f}</style><path d="M225.8 87.5c0 14-11.3 25.3-25.3 25.3s-25.3-11.3-25.3-25.3 11.3-25.3 25.3-25.3c13.9 0 25.3 11.3 25.3 25.3z" fill="#ffdb79"/><path class="st1" d="M200.5 107.4c-5.6 0-11-2.4-14.8-6.6-.4-.5-.3-1.1.1-1.5.5-.4 1.1-.3 1.5.1 3.4 3.7 8.2 5.9 13.2 5.9 9.8 0 17.8-8 17.8-17.8 0-.6.5-1.1 1.1-1.1s1.1.5 1.1 1.1c-.1 11-9 19.9-20 19.9zM181.6 88.6c-.6 0-1.1-.5-1.1-1.1 0-11 8.9-19.9 19.9-19.9.6 0 1.1.5 1.1 1.1s-.5 1.1-1.1 1.1c-9.8 0-17.8 8-17.8 17.8.1.5-.4 1-1 1zM189.1 110h22.7v6.3h-22.7z"/><path class="st2" d="M187.8 116.4h25.3v15.8h-25.3z"/><path class="st2" d="M192.4 132.1h16.1v4.3h-16.1z"/><path class="st3" d="M196.2 89.5h1.1v26.8h-1.1zM203.7 89.5h1.1v26.8h-1.1zM191.4 88.4h18.2v1.1h-18.2z"/><path class="st4" d="M393.9 448.7l-56.5-135.2-15.6 6.8L375 448.7zM260.2 448.7l53.4-128.4-15.8-6.8-56.6 135.2z"/><path class="st5" d="M217.7 351.6h199.8v8H217.7zM277.4 127.5H358v8h-80.6z"/><path class="st4" d="M309 110.5h17.2v25H309z"/><path class="st3" d="M165.8 135.5h303.9v216H165.8z"/><path class="st6" d="M350.2 206.9c-8-4.5-10.9-14.7-6.4-22.8 4.5-8 14.7-10.9 22.8-6.4 8 4.5 10.9 14.7 6.4 22.8s-14.7 11-22.8 6.4zm13.1-23.2c-4.8-2.7-10.9-1-13.6 3.8s-1 10.9 3.8 13.6c4.8 2.7 10.9 1 13.6-3.8s1-10.9-3.8-13.6z"/><path class="st7" d="M454.4 223l-1.8-6.5-14.9 4.2-4.2-14.9-6.5 1.8 4.2 14.9-15 4.2 1.9 6.5L433 229l4.2 14.9 6.5-1.8-4.2-14.9zM445.2 97.3l-1.8-6.5-14.9 4.2-4.2-14.9-6.5 1.8 4.2 14.9-14.9 4.2 1.8 6.5 14.9-4.2 4.2 15 6.5-1.9-4.2-14.9z"/><path class="st8" d="M511.4 153.3l-6.8-24.4-23.8 6.7 1.8 6.5 12.7-3.6-8.8 15.7c-6.6 11.7-21.4 15.8-33 9.2l-35.8-20.1c-14.9-8.4-33.8-3.1-42.2 11.8l-7.7 13.6 5.9 3.3 7.6-13.6c6.6-11.7 21.4-15.8 33-9.2l35.8 20.1c14.9 8.4 33.8 3.1 42.2-11.8l8.8-15.7 3.7 13.3 6.6-1.8z"/><g><path fill="#d3b1fc" d="M257.7 162.7h57.6v42.9h-57.6z"/><path fill="#c5abed" d="M257.7 162.7h57.6v10h-57.6z"/><path class="st11" d="M271.4 182.7h30.3M271.4 190h30.3M271.4 197.4h30.3"/><g><path fill="#f4a398" d="M257.7 220.9h57.6v42.9h-57.6z"/><path fill="#ea9c94" d="M257.7 220.9h57.6v10h-57.6z"/><path class="st11" d="M271.4 240.8h30.3M271.4 248.2h30.3M271.4 255.6h30.3"/></g><g><path fill="#7cd1f7" d="M328.1 220.9h57.6v42.9h-57.6z"/><path fill="#77c8e5" d="M328.1 220.9h57.6v10h-57.6z"/><path class="st11" d="M341.8 240.8h30.3M341.8 248.2h30.3M341.8 255.6h30.3"/></g><g><path class="st16" d="M328.1 279.1h57.6V322h-57.6z"/><path fill="#66c6a6" d="M328.1 279.1h57.6v10h-57.6z"/><path class="st11" d="M341.8 299h30.3M341.8 306.4h30.3M341.8 313.8h30.3"/></g><g><path class="st7" d="M257.7 279.1h57.6V322h-57.6z"/><path fill="#edc262" d="M257.7 279.1h57.6v10h-57.6z"/><path class="st11" d="M271.4 299h30.3M271.4 306.4h30.3M271.4 313.8h30.3"/></g></g><g><path class="st4" d="M239.9 335.4l-1.5.7c-3 1.3-5.8 5-6 8.3l-.2 1.7c-.2 3.3-3.2 5.3-6.3 4.6h-.2V381l-16.1-16.1-16 16.1v-30.3h-.2c-3.1.8-6.1-1.3-6.3-4.6l-.2-1.7c-.2-3.3-3-7-6-8.3l-1.5-.7c-3-1.3-4.1-4.6-2.5-7.4l.8-1.3c1.7-2.8 1.7-7.5 0-10.3l-.8-1.3c-1.8-2.8-.7-6.1 2.3-7.4l1.5-.7c3-1.3 5.8-5 6-8.3l.2-1.7c.2-3.3 3.1-5.3 6.3-4.6l1.7.3c3.2.8 7.6-.7 9.8-3.1l1.1-1.3c2.2-2.5 5.6-2.5 7.8 0l1 1.3c2.1 2.5 6.4 4 9.8 3.1l1.7-.3c3.1-.8 6.1 1.3 6.3 4.6l.2 1.7c.2 3.3 3 6.9 6 8.3l1.5.7c3 1.3 4.1 4.6 2.5 7.4l-.8 1.3c-1.8 2.8-1.8 7.5 0 10.3l.8 1.3c1.6 2.8.4 6.1-2.7 7.4z"/><path class="st3" d="M195.5 379.5v-32.3h32.3z"/><path fill="#f9f9f9" d="M227.8 379.5v-32.3h-32.3z"/><path d="M207.8 286.8c2.2-2.5 5.6-2.5 7.8 0l1 1.3c2.2 2.5 6.5 4 9.8 3.1l1.7-.3c3.1-.8 6.1 1.3 6.3 4.6l.2 1.7c.2 3.3 3 7 6 8.3l1.5.7c3 1.3 4.1 4.6 2.5 7.4l-.8 1.3c-1.8 2.8-1.8 7.4 0 10.3l.8 1.3c1.8 2.8.7 6.1-2.5 7.4l-1.5.7c-3 1.3-5.8 5-6 8.3l-.2 1.7c-.2 3.3-3.1 5.3-6.3 4.6l-1.7-.3c-3.1-.8-7.6.7-9.8 3.1l-1 1.3c-2.2 2.5-5.6 2.5-7.8 0l-1-1.3c-2.2-2.5-6.5-4-9.8-3.1l-1.7.3c-3.1.8-6.1-1.3-6.3-4.6l-.2-1.7c-.2-3.3-3-7-6-8.3l-1.5-.7c-3-1.3-4.1-4.6-2.5-7.4l.8-1.3c1.7-2.8 1.7-7.4 0-10.3l-.8-1.3c-1.8-2.8-.7-6.1 2.3-7.4l1.5-.7c3-1.3 5.8-5 6-8.3l.2-1.7c.2-3.3 3.1-5.3 6.3-4.6l1.7.3c3.1.8 7.6-.7 9.8-3.1l1.2-1.3z" fill="#f4f4f4"/><path class="st5" d="M236.7 319.9c0 13.9-11.3 25-25 25-13.9 0-25-11.3-25-25s11.3-25 25-25c13.8 0 25 11.1 25 25z"/><path class="st3" d="M211.6 339.8c-10.9 0-19.9-8.9-19.9-19.9 0-10.9 8.9-19.9 19.9-19.9 10.9 0 19.9 8.9 19.9 19.9-.1 10.9-8.8 19.9-19.9 19.9z"/><path class="st21" d="M193.4 321.4c0-10.9 8.9-19.9 19.9-19.9 5.1 0 9.8 2 13.2 5-3.6-4.1-8.9-6.6-14.7-6.6-10.9 0-19.9 8.9-19.9 19.9 0 6 2.5 11.1 6.6 14.7-3.1-3.4-5.1-8-5.1-13.1z"/><path class="st8" d="M211.6 307.3l4.1 8.3 9.1 1.3-6.6 6.5 1.7 9.1-8.3-4.3-8.1 4.3 1.5-9.1-6.7-6.5 9.3-1.3z"/></g><path fill="#f2eeee" d="M141.8 168.4h-77v79.8h160.7v-79.8z"/><path class="st3" d="M146.3 164h-77v79.8h160.8V164z"/><g><path class="st21" d="M151.8 182.7H193v2.9h-41.2z"/></g><g><path class="st21" d="M151.8 190H193v2.9h-41.2z"/></g><g><path class="st21" d="M151.8 197.3H193v2.9h-41.2z"/></g><g><path class="st21" d="M151.8 204.6H193v2.9h-41.2z"/></g><g><path class="st23" d="M151.8 211.9H193v2.9h-41.2z"/></g><g><path class="st23" d="M151.8 219.2H193v2.9h-41.2z"/></g><g><path class="st23" d="M151.8 226.5H193v2.9h-41.2z"/></g><g><path class="st24" d="M204.8 189.2l-4.3-4.7 1.9-1.7 2.3 2.5 3.7-4.6 2 1.6zM204.8 201.7l-4.3-4.7 1.9-1.7 2.3 2.5 3.7-4.6 2 1.6zM204.8 214.2l-4.3-4.7 1.9-1.7 2.3 2.5 3.7-4.6 2 1.6z"/></g><g><path class="st6" d="M84.5 212h8.9v14.2h-8.9z"/><path class="st7" d="M96.8 203.4h8.9v22.9h-8.9z"/><path class="st8" d="M109 197.8h8.9v28.4H109z"/><path class="st24" d="M121.3 181.7h8.9v44.5h-8.9z"/><path fill="#dfeaea" d="M82.2 226.3h49.6v3.3H82.2z"/></g><g><path class="st16" d="M539.7 113.4h-32c-1.1 0-2.1-.6-2.6-1.6s-.5-2.2.2-3.1L522.7 83c.6-.9 1.6-1.4 2.6-1.3 1 0 2 .6 2.5 1.5l14.6 25.7c.5.9.5 2.1 0 3-.6.9-1.6 1.5-2.7 1.5zm-26.3-6h21.2l-9.7-17-11.5 17z"/></g></svg>