<svg xmlns="http://www.w3.org/2000/svg" version="1" viewBox="0 0 300 300"><path fill="#D5C1F4" d="M184.665 74.309h14.892v9.32h-14.892v-9.32z"/><path fill="#D5C1F4" d="M183.876 75.345h16.469v1.036h-16.469v-1.036zm0 2.071h16.469v1.036h-16.469v-1.036zm0 2.071h16.469v1.036h-16.469v-1.036zm0 2.022h16.469v1.036h-16.469v-1.036zm3.501 2.071h9.517v2.515h-9.517V83.58z"/><path fill="#FFEFCA" d="M207.249 57.297c0 5.868-3.353 10.897-8.185 13.363v3.6h-6.953V42.356h.197c8.235 0 14.941 6.707 14.941 14.941z"/><path fill="#FFDB79" d="M205.72 57.297c0 5.819-3.353 10.897-8.185 13.314v3.6h-6.953V42.356h.197c8.235 0 14.941 6.707 14.941 14.941z"/><path fill="#E5E5E5" d="M192.111 226.48a4.03 4.03 0 0 1-1.183 2.86 4.03 4.03 0 0 1-2.86 1.183H15.088a4.03 4.03 0 0 1-2.86-1.183 4.03 4.03 0 0 1-1.183-2.86v-12.081h181.017v12.081h.049zm0-115.139a4.03 4.03 0 0 0-1.183-2.86 4.03 4.03 0 0 0-2.86-1.183H15.088a4.03 4.03 0 0 0-2.86 1.183 4.03 4.03 0 0 0-1.183 2.86v103.058h181.017V111.341h.049z"/><path fill="#E5E5E5" d="M17.11 113.363h168.936v95.02H17.11v-95.02zm109.616 141.273H76.43l2.761-24.113h44.823l2.712 24.113zm10.059 2.81H66.37v-1.183c0-.394.148-.838.493-1.134.296-.296.74-.493 1.134-.493h67.16c.394 0 .838.148 1.134.493.296.296.493.74.493 1.134l.001 1.183z"/><path fill="#FFF" d="M187.821 226.48a4.03 4.03 0 0 1-1.183 2.86 4.03 4.03 0 0 1-2.86 1.183H10.847a4.03 4.03 0 0 1-2.86-1.183 4.03 4.03 0 0 1-1.183-2.86v-12.081h181.017v12.081zm0-115.139a4.03 4.03 0 0 0-1.183-2.86 4.03 4.03 0 0 0-2.86-1.183H10.847a4.03 4.03 0 0 0-2.86 1.183 4.03 4.03 0 0 0-1.183 2.86v103.058h181.017V111.341z"/><path fill="#DDD" d="M12.82 208.383v-91.519a3.536 3.536 0 0 1 3.55-3.55h161.884a3.536 3.536 0 0 1 3.55 3.55v91.47H12.82v.049z"/><path fill="#F7F7F7" d="M14.891 208.383v-88.906a3.409 3.409 0 0 1 3.402-3.402h157.989a3.409 3.409 0 0 1 3.402 3.402v88.906H14.891z"/><path fill="#FFF" d="M122.485 254.636H72.189l2.712-24.113h44.823l2.761 24.113zm10.01 2.81H62.13v-1.183c0-.394.148-.838.493-1.134.296-.296.74-.493 1.134-.493h67.16c.394 0 .838.148 1.134.493.296.296.493.74.493 1.134v1.183h-.049z"/><path fill="#FFDB79" d="M151.923 76.38v132.003h21.746V76.38h-21.746zm10.898 10.799a2.756 2.756 0 0 1-2.761-2.761c0-1.529 1.233-2.761 2.761-2.761s2.761 1.233 2.761 2.761c-.049 1.528-1.282 2.761-2.761 2.761z"/><path fill="#FFF" d="M169.477 92.554h4.191v.641h-4.191v-.641zm0 10.996h4.191v.641h-4.191v-.641zm0 10.996h4.191v.641h-4.191v-.641zm0 10.996h4.191v.641h-4.191v-.641zm0 10.996h4.191v.641h-4.191v-.641zm0 10.997h4.191v.641h-4.191v-.641zm0 10.996h4.191v.641h-4.191v-.641zm0 10.996h4.191v.641h-4.191v-.641zm0 10.996h4.191v.641h-4.191v-.641zm0 10.996h4.191v.641h-4.191v-.641zm0 11.045h4.191v.641h-4.191v-.641zm0-5.473h4.191v.542h-4.191v-.542zm0-10.996h4.191v.542h-4.191v-.542zm0-10.996h4.191v.542h-4.191v-.542zm0-10.996h4.191v.542h-4.191v-.542zm0-10.996h4.191v.542h-4.191v-.542zm0-10.997h4.191v.542h-4.191v-.542zm0-10.996h4.191v.542h-4.191v-.542zm0-10.996h4.191v.542h-4.191v-.542zm0-11.045h4.191v.542h-4.191v-.542zm0-10.996h4.191v.542h-4.191v-.542z"/><path fill="#E5E5E5" d="M211.095 85.552h65.04v95.612h-78.008V98.52c-.001-7.149 5.818-12.968 12.968-12.968z"/><path fill="#FFF" d="M215.138 85.552h65.04v95.612H202.17V98.52c0-7.149 5.818-12.968 12.968-12.968z"/><path fill="#825EAD" d="M280.178 85.552a13.006 13.006 0 0 1 13.018 13.018h-65.04a13.006 13.006 0 0 0-13.018-13.018h65.04z"/><path fill="#FFE69F" d="M213.215 118.885h55.917v1.627h-55.917v-1.627z"/><path fill="#825EAD" d="M213.215 110.256h55.917v6.213h-55.917v-6.213z"/><path fill="#C4EDF1" d="M246.352 139.744h-29.29v-4.389h.937v3.452h27.416v-3.452h.937v4.389z"/><path fill="#C4EDF1" d="M235.996 135.355h.937v3.895h-.937v-3.895zm-9.467 0h.937v3.895h-.937v-3.895zm4.734 3.945h.937v3.895h-.937V139.3z"/><path fill="#D3B1FC" d="M246.352 165.286h-.937v-3.452h-27.416v3.452h-.937v-4.389h29.29v4.389z"/><path fill="#D3B1FC" d="M235.996 161.341h.937v3.895h-.937v-3.895zm-9.467 0h.937v3.895h-.937v-3.895zm4.734-3.895h.937v3.895h-.937v-3.895z"/><path fill="#E89282" d="M258.482 157.199h-5.227v-13.757h5.227v.888h-4.29v11.982h4.29v.887z"/><path fill="#E89282" d="M248.965 149.852h4.783v.937h-4.783v-.937z"/><path fill="#E89282" d="M238.856 149.852h10.256v.937h-10.256v-.937zm25.839 10.552h-7.347v-7.347h7.347v7.347zm0-12.869h-7.347v-7.347h7.347v7.347z"/><path fill="#D3B1FC" d="M249.557 172.14h-7.347v-7.347h7.347v7.347zm-9.418 0h-7.347v-7.347h7.347v7.347zm-9.468 0h-7.347v-7.347h7.347v7.347zm-9.467 0h-7.347v-7.347h7.347v7.347z"/><path fill="#C4EDF1" d="M249.557 135.848h-7.347v-7.347h7.347v7.347zm-9.418 0h-7.347v-7.347h7.347v7.347zm-9.468 0h-7.347v-7.347h7.347v7.347zm-9.467 0h-7.347v-7.347h7.347v7.347z"/><path fill="#FFDB79" d="M231.707 157.89c-4.191 0-7.594-3.402-7.594-7.594s3.402-7.594 7.594-7.594 7.594 3.402 7.594 7.594-3.403 7.594-7.594 7.594z"/><path fill="#6F598E" d="M181.312 238.166v-17.308h-20.217v22.337h15.138c2.86.001 5.079-2.268 5.079-5.029z"/><path fill="#FFF" d="M163.116 224.705h16.223v3.107h-16.223v-3.107zm0 6.015h16.223v3.107h-16.223v-3.107z"/><path fill="#8B6ABA" d="M176.282 243.196a4.934 4.934 0 0 1-3.797-1.726h-20.217c.937 1.036 2.268 1.726 3.797 1.726h20.217z"/><path fill="#6F598E" d="M152.12 238.166v-17.308h-20.217v22.337h15.138c2.811.001 5.079-2.268 5.079-5.029z"/><path fill="#FFF" d="M133.876 224.705h16.223v3.107h-16.223v-3.107zm0 6.015h16.223v3.107h-16.223v-3.107z"/><path fill="#8B6ABA" d="M147.041 243.196a4.934 4.934 0 0 1-3.797-1.726h-20.217c.937 1.036 2.268 1.726 3.797 1.726h20.217z"/><path fill="#E5E5E5" d="M22.583 69.428h99.951v133.235H22.583V69.428z"/><path fill="#FFF" d="M20.315 66.962h99.951v133.235H20.315V66.962zm122.19 21.154l-6.114-12.327-6.164 12.327h12.278z"/><path fill="#FFDB79" d="M130.227 88.116h12.278v120.218h-12.278V88.116z"/><path fill="#F4CA60" d="M130.227 88.116h6.164v120.218h-6.164V88.116z"/><path fill="#6F598E" d="M138.807 80.621l-2.416-4.832-2.416 4.832h4.832z"/><g fill="#FFEFCA"><path d="M22.534 234.123v17.752c0 1.134.444 2.268 1.282 3.156.838.888 1.972 1.282 3.156 1.282h15.237c1.134 0 2.268-.444 3.156-1.282.838-.838 1.282-1.972 1.282-3.156v-17.752H22.534z"/><path d="M42.159 234.123v17.752c0 1.134-.444 2.268-1.282 3.156-.888.888-2.022 1.282-3.156 1.282h4.487c1.134 0 2.268-.444 3.156-1.282.888-.888 1.282-2.022 1.282-3.156v-17.752h-4.487z"/><path d="M49.112 249.113h-2.515v-1.677h2.515c.345 0 .641-.148.888-.345.247-.247.345-.542.345-.888v-6.065c0-.345-.148-.641-.345-.888-.247-.247-.542-.345-.888-.345h-2.515v-1.677h2.515c.789 0 1.529.296 2.071.838.542.542.838 1.282.838 2.071v6.065c0 .789-.296 1.529-.838 2.071a2.9 2.9 0 0 1-2.071.84zm-22.19 7.249H42.11v1.134H26.922v-1.134z"/></g><path fill="#F9D375" d="M21.35 234.32v17.752c0 1.134.444 2.268 1.282 3.156.838.888 1.972 1.282 3.156 1.282h15.237c1.134 0 2.268-.444 3.156-1.282.838-.838 1.282-1.972 1.282-3.156V234.32H21.35z"/><path fill="#FFDB79" d="M40.976 234.32v17.752c0 1.134-.444 2.268-1.282 3.156-.888.888-2.022 1.282-3.156 1.282h4.487c1.134 0 2.268-.444 3.156-1.282.888-.888 1.282-2.022 1.282-3.156V234.32h-4.487zm7.002 14.99h-2.515v-1.677h2.515c.345 0 .641-.148.888-.345.247-.247.345-.542.345-.888v-6.065c0-.345-.148-.641-.345-.888-.247-.247-.542-.345-.888-.345h-2.515v-1.677h2.515c.789 0 1.529.296 2.071.838.542.542.838 1.282.838 2.071v6.065c0 .789-.296 1.529-.838 2.071-.592.544-1.332.84-2.071.84z"/><path fill="#E5BB5C" d="M25.788 256.509h15.187v1.134H25.788v-1.134z"/><path fill="#EAEAEA" d="M24.457 228.156a2.862 2.862 0 0 0 2.86 2.86H28.5c.888 0 1.627.74 1.627 1.677v1.677h6.608v-2.17.542c0-.937.74-1.677 1.677-1.677h11.489a2.862 2.862 0 0 0 2.86-2.86 2.862 2.862 0 0 0-2.86-2.86h-1.529c-.888 0-1.627-.74-1.627-1.677s.74-1.677 1.677-1.677h6.755a3.851 3.851 0 0 0 3.846-3.846 3.851 3.851 0 0 0-3.846-3.846H32.988a3.851 3.851 0 0 0-3.846 3.846 3.851 3.851 0 0 0 3.846 3.846h5.523c.937 0 1.677.74 1.677 1.677 0 .345-.099.641-.247.888l-.592.542c-.247.099-.493.197-.74.197H27.317a2.863 2.863 0 0 0-2.86 2.861z"/><path fill="#F4CA60" d="M197.485 74.211v.099h-13.412v-3.698a14.87 14.87 0 0 1-8.185-13.314c0-8.185 6.558-14.793 14.694-14.892v15.483h-5.178v.641h5.178v15.73h6.903v-.049z"/><path fill="#F4CA60" d="M185.405 57.84h5.178v.641h-5.178v-.641z"/><path fill="#825EAD" d="M183.333 74.309h14.892v9.32h-14.892v-9.32z"/><path fill="#6F598E" d="M182.545 75.345h16.47v1.036h-16.47v-1.036zm0 2.071h16.47v1.036h-16.47v-1.036zm0 2.071h16.47v1.036h-16.47v-1.036zm0 2.022h16.47v1.036h-16.47v-1.036z"/><path fill="#825EAD" d="M186.046 83.58h9.517v2.515h-9.517V83.58z"/><path fill="#FFF" d="M188.264 58.481h.641v15.828h-.641V58.481zm4.389 0h.641v15.828h-.641V58.481zm-7.248-.641h10.75v.641h-10.75v-.641z"/><path fill="#CCCBCA" d="M95.463 176.825H70.562c-.69 0-1.282-.592-1.282-1.282v-.937c0-.69.592-1.282 1.282-1.282h24.902c.69 0 1.282.592 1.282 1.282v.937c.049.739-.543 1.282-1.283 1.282zm6.411-5.868H70.562c-.69 0-1.282-.592-1.282-1.282v-.937c0-.69.592-1.282 1.282-1.282h31.312c.69 0 1.282.592 1.282 1.282v.937c.049.69-.543 1.282-1.282 1.282zm-15.78 11.785H70.562c-.69 0-1.282-.592-1.282-1.282v-.937c0-.69.592-1.282 1.282-1.282h15.533c.69 0 1.282.592 1.282 1.282v.937a1.307 1.307 0 0 1-1.283 1.282z"/><path fill="#F4CA60" d="M67.406 100.887V83.086h-20.76v23.028h15.582c2.86 0 5.178-2.317 5.178-5.227z"/><path fill="#FFF" d="M48.668 87.081h16.716v3.205H48.668v-3.205zm0 6.163h16.716v3.205H48.668v-3.205z"/><path fill="#FFE69F" d="M62.228 106.114a5.182 5.182 0 0 1-3.895-1.775H37.524a5.108 5.108 0 0 0 3.895 1.775h20.809z"/><path fill="#A9D8DB" d="M103.895 111.094v-17.8H83.086v22.978h15.582c2.91.049 5.227-2.318 5.227-5.178z"/><path fill="#FFF" d="M85.108 97.288h16.716v3.205H85.108v-3.205zm0 6.163h16.716v3.205H85.108v-3.205z"/><path fill="#C4EDF1" d="M98.668 116.321a5.182 5.182 0 0 1-3.895-1.775H73.964a5.108 5.108 0 0 0 3.895 1.775h20.809z"/><path fill="#B781EA" d="M67.406 134.073v-17.801h-20.76v22.978h15.582c2.86.05 5.178-2.317 5.178-5.177z"/><path fill="#FFF" d="M48.668 120.266h16.716v3.205H48.668v-3.205zm0 6.164h16.716v3.205H48.668v-3.205z"/><path fill="#D3B1FC" d="M62.228 139.3a5.182 5.182 0 0 1-3.895-1.775H37.524a5.108 5.108 0 0 0 3.895 1.775h20.809z"/><path fill="#E89282" d="M103.895 144.28v-17.801H83.086v22.978h15.582c2.91.001 5.227-2.317 5.227-5.177z"/><path fill="#FFF" d="M85.108 130.424h16.716v3.205H85.108v-3.205zm0 6.213h16.716v3.205H85.108v-3.205z"/><path fill="#F4A398" d="M98.668 149.458a5.182 5.182 0 0 1-3.895-1.775H73.964a5.108 5.108 0 0 0 3.895 1.775h20.809z"/><path fill="#ECF0F1" d="M45.907 180.819l-3.55 1.923c-.197.099-.394.247-.592.394 2.071 1.775 4.734 2.811 7.692 2.811 2.909 0 5.572-1.036 7.643-2.761a7.113 7.113 0 0 0-.641-.444l-3.797-1.923a1.423 1.423 0 0 1-.789-1.282v-1.479c.099-.099.247-.296.345-.444a7.62 7.62 0 0 0 1.183-2.367c.493-.148.838-.592.838-1.134v-1.578c0-.345-.148-.641-.394-.888v-2.318s.493-3.6-4.389-3.6-4.389 3.6-4.389 3.6v2.318c-.247.197-.394.542-.394.888v1.578c0 .444.197.789.542.986.394 1.726 1.43 3.008 1.43 3.008v1.479a1.45 1.45 0 0 1-.738 1.233z"/><path fill="#825EAD" d="M49.654 162.13c-6.608-.099-12.032 5.128-12.13 11.736-.049 3.748 1.578 7.101 4.241 9.32.197-.148.345-.296.542-.394l3.55-1.923c.444-.247.74-.74.74-1.282v-1.479s-1.036-1.233-1.43-3.008c-.345-.197-.542-.592-.542-.986v-1.578c0-.345.148-.641.394-.888v-2.318s-.493-3.6 4.389-3.6 4.389 3.6 4.389 3.6v2.318c.247.197.394.542.394.888v1.578c0 .542-.345.986-.838 1.134-.296.838-.69 1.677-1.183 2.367-.148.197-.247.345-.345.444v1.479c0 .542.296 1.036.789 1.282l3.797 1.923c.247.099.444.247.641.444a11.886 11.886 0 0 0 4.29-8.974c.147-6.56-5.08-11.984-11.688-12.083z"/><circle cx="231.707" cy="150.296" r="3.156" fill="#FFDB79"/><g fill="#D5C1F4"><path d="M184.665 74.309h14.892v9.32h-14.892v-9.32z"/><path d="M183.876 75.345h16.469v1.036h-16.469v-1.036zm0 2.071h16.469v1.036h-16.469v-1.036zm0 2.071h16.469v1.036h-16.469v-1.036zm0 2.022h16.469v1.036h-16.469v-1.036zm3.501 2.071h9.517v2.515h-9.517V83.58z"/></g><path fill="#FFEFCA" d="M207.249 57.297c0 5.868-3.353 10.897-8.185 13.363v3.6h-6.953V42.356h.197c8.235 0 14.941 6.707 14.941 14.941z"/><path fill="#FFDB79" d="M205.72 57.297c0 5.819-3.353 10.897-8.185 13.314v3.6h-6.953V42.356h.197c8.235 0 14.941 6.707 14.941 14.941z"/><g fill="#E5E5E5"><path d="M192.111 226.48a4.03 4.03 0 0 1-1.183 2.86 4.03 4.03 0 0 1-2.86 1.183H15.088a4.03 4.03 0 0 1-2.86-1.183 4.03 4.03 0 0 1-1.183-2.86v-12.081h181.017v12.081h.049zm0-115.139a4.03 4.03 0 0 0-1.183-2.86 4.03 4.03 0 0 0-2.86-1.183H15.088a4.03 4.03 0 0 0-2.86 1.183 4.03 4.03 0 0 0-1.183 2.86v103.058h181.017V111.341h.049z"/><path d="M17.11 113.363h168.936v95.02H17.11v-95.02zm109.616 141.273H76.43l2.761-24.113h44.823l2.712 24.113zm10.059 2.81H66.37v-1.183c0-.394.148-.838.493-1.134.296-.296.74-.493 1.134-.493h67.16c.394 0 .838.148 1.134.493.296.296.493.74.493 1.134l.001 1.183z"/></g><path fill="#FFF" d="M187.821 226.48a4.03 4.03 0 0 1-1.183 2.86 4.03 4.03 0 0 1-2.86 1.183H10.847a4.03 4.03 0 0 1-2.86-1.183 4.03 4.03 0 0 1-1.183-2.86v-12.081h181.017v12.081zm0-115.139a4.03 4.03 0 0 0-1.183-2.86 4.03 4.03 0 0 0-2.86-1.183H10.847a4.03 4.03 0 0 0-2.86 1.183 4.03 4.03 0 0 0-1.183 2.86v103.058h181.017V111.341z"/><path fill="#DDD" d="M12.82 208.383v-91.519a3.536 3.536 0 0 1 3.55-3.55h161.884a3.536 3.536 0 0 1 3.55 3.55v91.47H12.82v.049z"/><path fill="#F7F7F7" d="M14.891 208.383v-88.906a3.409 3.409 0 0 1 3.402-3.402h157.989a3.409 3.409 0 0 1 3.402 3.402v88.906H14.891z"/><path fill="#FFF" d="M122.485 254.636H72.189l2.712-24.113h44.823l2.761 24.113zm10.01 2.81H62.13v-1.183c0-.394.148-.838.493-1.134.296-.296.74-.493 1.134-.493h67.16c.394 0 .838.148 1.134.493.296.296.493.74.493 1.134v1.183h-.049z"/><path fill="#FFDB79" d="M151.923 76.38v132.003h21.746V76.38h-21.746zm10.898 10.799a2.756 2.756 0 0 1-2.761-2.761c0-1.529 1.233-2.761 2.761-2.761s2.761 1.233 2.761 2.761c-.049 1.528-1.282 2.761-2.761 2.761z"/><path fill="#FFF" d="M169.477 92.554h4.191v.641h-4.191v-.641zm0 10.996h4.191v.641h-4.191v-.641zm0 10.996h4.191v.641h-4.191v-.641zm0 10.996h4.191v.641h-4.191v-.641zm0 10.996h4.191v.641h-4.191v-.641zm0 10.997h4.191v.641h-4.191v-.641zm0 10.996h4.191v.641h-4.191v-.641zm0 10.996h4.191v.641h-4.191v-.641zm0 10.996h4.191v.641h-4.191v-.641zm0 10.996h4.191v.641h-4.191v-.641zm0 11.045h4.191v.641h-4.191v-.641zm0-5.473h4.191v.542h-4.191v-.542zm0-10.996h4.191v.542h-4.191v-.542zm0-10.996h4.191v.542h-4.191v-.542zm0-10.996h4.191v.542h-4.191v-.542zm0-10.996h4.191v.542h-4.191v-.542zm0-10.997h4.191v.542h-4.191v-.542zm0-10.996h4.191v.542h-4.191v-.542zm0-10.996h4.191v.542h-4.191v-.542zm0-11.045h4.191v.542h-4.191v-.542zm0-10.996h4.191v.542h-4.191v-.542z"/><path fill="#E5E5E5" d="M211.095 85.552h65.04v95.612h-78.008V98.52c-.001-7.149 5.818-12.968 12.968-12.968z"/><path fill="#FFF" d="M215.138 85.552h65.04v95.612H202.17V98.52c0-7.149 5.818-12.968 12.968-12.968z"/><path fill="#825EAD" d="M280.178 85.552a13.006 13.006 0 0 1 13.018 13.018h-65.04a13.006 13.006 0 0 0-13.018-13.018h65.04z"/><path fill="#FFE69F" d="M213.215 118.885h55.917v1.627h-55.917v-1.627z"/><path fill="#825EAD" d="M213.215 110.256h55.917v6.213h-55.917v-6.213z"/><path fill="#C4EDF1" d="M246.352 139.744h-29.29v-4.389h.937v3.452h27.416v-3.452h.937v4.389z"/><path fill="#C4EDF1" d="M235.996 135.355h.937v3.895h-.937v-3.895zm-9.467 0h.937v3.895h-.937v-3.895zm4.734 3.945h.937v3.895h-.937V139.3z"/><path fill="#D3B1FC" d="M246.352 165.286h-.937v-3.452h-27.416v3.452h-.937v-4.389h29.29v4.389z"/><path fill="#D3B1FC" d="M235.996 161.341h.937v3.895h-.937v-3.895zm-9.467 0h.937v3.895h-.937v-3.895zm4.734-3.895h.937v3.895h-.937v-3.895z"/><path fill="#E89282" d="M258.482 157.199h-5.227v-13.757h5.227v.888h-4.29v11.982h4.29v.887z"/><path fill="#E89282" d="M248.965 149.852h4.783v.937h-4.783v-.937z"/><path fill="#E89282" d="M238.856 149.852h10.256v.937h-10.256v-.937zm25.839 10.552h-7.347v-7.347h7.347v7.347zm0-12.869h-7.347v-7.347h7.347v7.347z"/><path fill="#D3B1FC" d="M249.557 172.14h-7.347v-7.347h7.347v7.347zm-9.418 0h-7.347v-7.347h7.347v7.347zm-9.468 0h-7.347v-7.347h7.347v7.347zm-9.467 0h-7.347v-7.347h7.347v7.347z"/><path fill="#C4EDF1" d="M249.557 135.848h-7.347v-7.347h7.347v7.347zm-9.418 0h-7.347v-7.347h7.347v7.347zm-9.468 0h-7.347v-7.347h7.347v7.347zm-9.467 0h-7.347v-7.347h7.347v7.347z"/><path fill="#FFDB79" d="M231.707 157.89c-4.191 0-7.594-3.402-7.594-7.594s3.402-7.594 7.594-7.594 7.594 3.402 7.594 7.594-3.403 7.594-7.594 7.594z"/><path fill="#6F598E" d="M181.312 238.166v-17.308h-20.217v22.337h15.138c2.86.001 5.079-2.268 5.079-5.029z"/><path fill="#FFF" d="M163.116 224.705h16.223v3.107h-16.223v-3.107zm0 6.015h16.223v3.107h-16.223v-3.107z"/><path fill="#8B6ABA" d="M176.282 243.196a4.934 4.934 0 0 1-3.797-1.726h-20.217c.937 1.036 2.268 1.726 3.797 1.726h20.217z"/><path fill="#6F598E" d="M152.12 238.166v-17.308h-20.217v22.337h15.138c2.811.001 5.079-2.268 5.079-5.029z"/><path fill="#FFF" d="M133.876 224.705h16.223v3.107h-16.223v-3.107zm0 6.015h16.223v3.107h-16.223v-3.107z"/><path fill="#8B6ABA" d="M147.041 243.196a4.934 4.934 0 0 1-3.797-1.726h-20.217c.937 1.036 2.268 1.726 3.797 1.726h20.217z"/><path fill="#E5E5E5" d="M22.583 69.428h99.951v133.235H22.583V69.428z"/><path fill="#FFF" d="M20.315 66.962h99.951v133.235H20.315V66.962zm122.19 21.154l-6.114-12.327-6.164 12.327h12.278z"/><path fill="#FFDB79" d="M130.227 88.116h12.278v120.218h-12.278V88.116z"/><path fill="#F4CA60" d="M130.227 88.116h6.164v120.218h-6.164V88.116z"/><path fill="#6F598E" d="M138.807 80.621l-2.416-4.832-2.416 4.832h4.832z"/><g fill="#FFEFCA"><path d="M22.534 234.123v17.752c0 1.134.444 2.268 1.282 3.156.838.888 1.972 1.282 3.156 1.282h15.237c1.134 0 2.268-.444 3.156-1.282.838-.838 1.282-1.972 1.282-3.156v-17.752H22.534z"/><path d="M42.159 234.123v17.752c0 1.134-.444 2.268-1.282 3.156-.888.888-2.022 1.282-3.156 1.282h4.487c1.134 0 2.268-.444 3.156-1.282.888-.888 1.282-2.022 1.282-3.156v-17.752h-4.487z"/><path d="M49.112 249.113h-2.515v-1.677h2.515c.345 0 .641-.148.888-.345.247-.247.345-.542.345-.888v-6.065c0-.345-.148-.641-.345-.888-.247-.247-.542-.345-.888-.345h-2.515v-1.677h2.515c.789 0 1.529.296 2.071.838.542.542.838 1.282.838 2.071v6.065c0 .789-.296 1.529-.838 2.071a2.9 2.9 0 0 1-2.071.84zm-22.19 7.249H42.11v1.134H26.922v-1.134z"/></g><path fill="#F9D375" d="M21.35 234.32v17.752c0 1.134.444 2.268 1.282 3.156.838.888 1.972 1.282 3.156 1.282h15.237c1.134 0 2.268-.444 3.156-1.282.838-.838 1.282-1.972 1.282-3.156V234.32H21.35z"/><path fill="#FFDB79" d="M40.976 234.32v17.752c0 1.134-.444 2.268-1.282 3.156-.888.888-2.022 1.282-3.156 1.282h4.487c1.134 0 2.268-.444 3.156-1.282.888-.888 1.282-2.022 1.282-3.156V234.32h-4.487zm7.002 14.99h-2.515v-1.677h2.515c.345 0 .641-.148.888-.345.247-.247.345-.542.345-.888v-6.065c0-.345-.148-.641-.345-.888-.247-.247-.542-.345-.888-.345h-2.515v-1.677h2.515c.789 0 1.529.296 2.071.838.542.542.838 1.282.838 2.071v6.065c0 .789-.296 1.529-.838 2.071-.592.544-1.332.84-2.071.84z"/><path fill="#E5BB5C" d="M25.788 256.509h15.187v1.134H25.788v-1.134z"/><path fill="#EAEAEA" d="M24.457 228.156a2.862 2.862 0 0 0 2.86 2.86H28.5c.888 0 1.627.74 1.627 1.677v1.677h6.608v-2.17.542c0-.937.74-1.677 1.677-1.677h11.489a2.862 2.862 0 0 0 2.86-2.86 2.862 2.862 0 0 0-2.86-2.86h-1.529c-.888 0-1.627-.74-1.627-1.677s.74-1.677 1.677-1.677h6.755a3.851 3.851 0 0 0 3.846-3.846 3.851 3.851 0 0 0-3.846-3.846H32.988a3.851 3.851 0 0 0-3.846 3.846 3.851 3.851 0 0 0 3.846 3.846h5.523c.937 0 1.677.74 1.677 1.677 0 .345-.099.641-.247.888l-.592.542c-.247.099-.493.197-.74.197H27.317a2.863 2.863 0 0 0-2.86 2.861z"/><path fill="#F4CA60" d="M197.485 74.211v.099h-13.412v-3.698a14.87 14.87 0 0 1-8.185-13.314c0-8.185 6.558-14.793 14.694-14.892v15.483h-5.178v.641h5.178v15.73h6.903v-.049z"/><path fill="#F4CA60" d="M185.405 57.84h5.178v.641h-5.178v-.641z"/><path fill="#825EAD" d="M183.333 74.309h14.892v9.32h-14.892v-9.32z"/><path fill="#6F598E" d="M182.545 75.345h16.47v1.036h-16.47v-1.036zm0 2.071h16.47v1.036h-16.47v-1.036zm0 2.071h16.47v1.036h-16.47v-1.036zm0 2.022h16.47v1.036h-16.47v-1.036z"/><path fill="#825EAD" d="M186.046 83.58h9.517v2.515h-9.517V83.58z"/><path fill="#FFF" d="M188.264 58.481h.641v15.828h-.641V58.481zm4.389 0h.641v15.828h-.641V58.481zm-7.248-.641h10.75v.641h-10.75v-.641z"/><path fill="#CCCBCA" d="M95.463 176.825H70.562c-.69 0-1.282-.592-1.282-1.282v-.937c0-.69.592-1.282 1.282-1.282h24.902c.69 0 1.282.592 1.282 1.282v.937c.049.739-.543 1.282-1.283 1.282zm6.411-5.868H70.562c-.69 0-1.282-.592-1.282-1.282v-.937c0-.69.592-1.282 1.282-1.282h31.312c.69 0 1.282.592 1.282 1.282v.937c.049.69-.543 1.282-1.282 1.282zm-15.78 11.785H70.562c-.69 0-1.282-.592-1.282-1.282v-.937c0-.69.592-1.282 1.282-1.282h15.533c.69 0 1.282.592 1.282 1.282v.937a1.307 1.307 0 0 1-1.283 1.282z"/><path fill="#F4CA60" d="M67.406 100.887V83.086h-20.76v23.028h15.582c2.86 0 5.178-2.317 5.178-5.227z"/><path fill="#FFF" d="M48.668 87.081h16.716v3.205H48.668v-3.205zm0 6.163h16.716v3.205H48.668v-3.205z"/><path fill="#FFE69F" d="M62.228 106.114a5.182 5.182 0 0 1-3.895-1.775H37.524a5.108 5.108 0 0 0 3.895 1.775h20.809z"/><path fill="#A9D8DB" d="M103.895 111.094v-17.8H83.086v22.978h15.582c2.91.049 5.227-2.318 5.227-5.178z"/><path fill="#FFF" d="M85.108 97.288h16.716v3.205H85.108v-3.205zm0 6.163h16.716v3.205H85.108v-3.205z"/><path fill="#C4EDF1" d="M98.668 116.321a5.182 5.182 0 0 1-3.895-1.775H73.964a5.108 5.108 0 0 0 3.895 1.775h20.809z"/><path fill="#B781EA" d="M67.406 134.073v-17.801h-20.76v22.978h15.582c2.86.05 5.178-2.317 5.178-5.177z"/><path fill="#FFF" d="M48.668 120.266h16.716v3.205H48.668v-3.205zm0 6.164h16.716v3.205H48.668v-3.205z"/><path fill="#D3B1FC" d="M62.228 139.3a5.182 5.182 0 0 1-3.895-1.775H37.524a5.108 5.108 0 0 0 3.895 1.775h20.809z"/><path fill="#E89282" d="M103.895 144.28v-17.801H83.086v22.978h15.582c2.91.001 5.227-2.317 5.227-5.177z"/><path fill="#FFF" d="M85.108 130.424h16.716v3.205H85.108v-3.205zm0 6.213h16.716v3.205H85.108v-3.205z"/><path fill="#F4A398" d="M98.668 149.458a5.182 5.182 0 0 1-3.895-1.775H73.964a5.108 5.108 0 0 0 3.895 1.775h20.809z"/><path fill="#ECF0F1" d="M45.907 180.819l-3.55 1.923c-.197.099-.394.247-.592.394 2.071 1.775 4.734 2.811 7.692 2.811 2.909 0 5.572-1.036 7.643-2.761a7.113 7.113 0 0 0-.641-.444l-3.797-1.923a1.423 1.423 0 0 1-.789-1.282v-1.479c.099-.099.247-.296.345-.444a7.62 7.62 0 0 0 1.183-2.367c.493-.148.838-.592.838-1.134v-1.578c0-.345-.148-.641-.394-.888v-2.318s.493-3.6-4.389-3.6-4.389 3.6-4.389 3.6v2.318c-.247.197-.394.542-.394.888v1.578c0 .444.197.789.542.986.394 1.726 1.43 3.008 1.43 3.008v1.479a1.45 1.45 0 0 1-.738 1.233z"/><path fill="#825EAD" d="M49.654 162.13c-6.608-.099-12.032 5.128-12.13 11.736-.049 3.748 1.578 7.101 4.241 9.32.197-.148.345-.296.542-.394l3.55-1.923c.444-.247.74-.74.74-1.282v-1.479s-1.036-1.233-1.43-3.008c-.345-.197-.542-.592-.542-.986v-1.578c0-.345.148-.641.394-.888v-2.318s-.493-3.6 4.389-3.6 4.389 3.6 4.389 3.6v2.318c.247.197.394.542.394.888v1.578c0 .542-.345.986-.838 1.134-.296.838-.69 1.677-1.183 2.367-.148.197-.247.345-.345.444v1.479c0 .542.296 1.036.789 1.282l3.797 1.923c.247.099.444.247.641.444a11.886 11.886 0 0 0 4.29-8.974c.147-6.56-5.08-11.984-11.688-12.083z"/><circle cx="231.707" cy="150.296" r="3.156" fill="#FFDB79"/></svg>