<svg xmlns="http://www.w3.org/2000/svg" viewBox="0 0 130 170"><path d="M117.7 21.9l-109.2.2c-4.2 0-7.5 3.3-7.5 7.5l.2 114.7c0 4.2 3.3 7.5 7.5 7.5l109.2-.2c4.2 0 7.5-3.3 7.5-7.5l-.2-114.7c0-4.3-3.4-7.6-7.5-7.5z" fill="#e5e5e4"/><path d="M121.2 18.3L12 18.5c-4.2 0-7.5 3.3-7.5 7.5l.2 114.7c0 4.2 3.3 7.5 7.5 7.5l109.2-.2c4.2 0 7.5-3.3 7.5-7.5l-.2-114.7c0-4.1-3.3-7.5-7.5-7.5z" fill="#f8f7f7"/><path fill="#fff" d="M11.3 30.8l110.7-.2.3 111-110.8-.1z"/><g><path fill="#e89282" d="M27.1 98.4h15.6v25.1H27.1z"/><path fill="#f3ca60" d="M48.8 83.1h15.6v40.4H48.8z"/><path fill="#56b4e6" d="M70.4 73.2H86v50.3H70.4z"/><path fill="#3cb28d" d="M92.1 44.8h15.6v78.7H92.1z"/><path fill="#e0ebea" d="M23 123.5h87.6v5.8H23z"/></g></svg>