<svg id="Layer_1" xmlns="http://www.w3.org/2000/svg" viewBox="0 0 130 170"><style>.st0{fill:#eaeaea}.st2{fill:#fff}</style><path class="st0" d="M105.4 15.4V12c0-5.9-4.8-10.6-10.6-10.6H29.9C24 1.4 19.4 6.2 19.4 12V27.2h-.9v22.3h.9v109c0 5.9 4.8 10.6 10.6 10.6h64.9c5.9 0 10.6-4.8 10.6-10.6v-17.9l-.1-125.2z"/><path d="M99.8 168.6h-70c-4.4 0-8-3.6-8-8V9c0-4.4 3.6-8 8-8h70.1c4.4 0 8 3.6 8 8v151.6c-.1 4.4-3.7 8-8.1 8z" fill="#f8f7f7"/><path class="st2" d="M21.8 15h86v125.1h-86z"/><path fill="#e5e5e4" d="M20.9 26.8h.9v22.3h-.9z"/><path class="st2" d="M73.6 9.8H60.1c-.6 0-.9-.5-.9-.9 0-.6.5-.9.9-.9h13.6c.6 0 .9.5.9.9 0 .6-.4.9-1 .9zM55 8.9c0-.6.5-1 1-1 .6 0 1 .5 1 1s-.5 1-1 1-1-.4-1-1zM57.1 153.9c0-4.3 3.5-7.8 7.8-7.8s7.8 3.5 7.8 7.8-3.5 7.8-7.8 7.8-7.8-3.5-7.8-7.8z"/><path class="st0" d="M47.1 34.4h68.5v26.9H47.1z"/><path fill="#67abde" d="M45.4 32.8h68.5v26.9H45.4z"/><path class="st0" d="M47.1 69.2h68.5v26.9H47.1z"/><path fill="#a6a3d1" d="M45.4 67.6h68.5v26.9H45.4z"/><path class="st0" d="M47.1 102.6h68.5v26.9H47.1z"/><path fill="#77bb5d" d="M45.4 101h68.5v26.9H45.4z"/><circle class="st2" cx="59.1" cy="45.8" r="7.2"/><circle class="st2" cx="59.1" cy="81.4" r="7.2"/><circle class="st2" cx="59.1" cy="115.2" r="7.2"/><path class="st2" d="M71.2 43.5H88v2.1H71.2zM71.2 48.1h27.6v2.1H71.2zM71.2 78.2H88v2.1H71.2zM71.2 82.8h27.6v2.1H71.2zM71.2 112.3H88v2.1H71.2zM71.2 116.8h27.6v2.1H71.2z"/></svg>