<svg id="Layer_1" xmlns="http://www.w3.org/2000/svg" viewBox="0 0 130 170"><style>.st0{fill:#fff}.st1{fill:#9f83bb}.st2{fill:#13b4e9}.st3{fill:#e1ecee}.st4{fill:#3abff0}.st5{fill:#456c79}.st6{fill:#474f5a}.st7{fill:#363f49}.st8{fill:#e89282}.st9{opacity:.2}</style><path class="st0" d="M1.5 95.7v25c.1 8.5 23.8 15.3 53 15.3s52.9-6.9 53-15.3v-25H1.5z"/><ellipse class="st0" cx="54.5" cy="95.7" rx="53" ry="15.4"/><path class="st1" d="M4.3 81.6v10.6c.1 8 22.5 14.5 50.2 14.5 27.7 0 50.1-6.5 50.2-14.5V81.6H4.3z"/><ellipse class="st2" cx="54.5" cy="81.6" rx="50.2" ry="14.6"/><path class="st0" d="M1.5 55.8v25c.1 8.5 23.8 15.3 53 15.3s52.9-6.9 53-15.3v-25H1.5z"/><ellipse class="st0" cx="54.5" cy="55.8" rx="53" ry="15.4"/><path class="st1" d="M4.3 41.7v10.6c.1 8 22.5 14.5 50.2 14.5 27.7 0 50.1-6.5 50.2-14.5V41.7H4.3z"/><path class="st0" d="M1.5 15.9v25c.1 8.5 23.8 15.3 53 15.3s52.9-6.9 53-15.3v-25H1.5z"/><ellipse class="st3" cx="54.5" cy="15.9" rx="53" ry="15.4"/><g><path transform="rotate(-49.27 96.482 138.78)" class="st4" d="M93.7 132.9h5.6v11.7h-5.6z"/><path transform="rotate(-49.27 113.193 153.094)" class="st1" d="M108.5 140.4h9.4v25.3h-9.4z"/><path class="st5" d="M121.5 167.3c.3.2.6.2.8-.1l6.3-7.3c.2-.3.2-.6-.1-.8l-1.8-1.5c-.3-.2-.6-.2-.8.1l-6.3 7.3c-.2.3-.2.6.1.8l1.8 1.5zM99.6 148.6c.3.2.6.2.8-.1l6.3-7.3c.2-.3.2-.6-.1-.8l-1.8-1.5c-.3-.2-.6-.2-.8.1l-6.3 7.3c-.2.3-.2.6.1.8l1.8 1.5z"/><path class="st6" d="M67 113.2c0 .1 0 .1 0 0-1.5.8-3.2.8-4.5 0-.1-.1-.1-.2 0-.2.1-.1.2-.1.2 0 1.2.8 2.9.8 4.2 0 .1 0 .2 0 .2.1 0-.1 0 .1-.1.1zM67.9 112.3s-.1.1-.2 0c-.1 0-.1-.1-.1-.2.6-1.4.2-2.9-.7-4.1-.1-.1 0-.2 0-.2.1-.1.2 0 .2 0 1.1 1.2 1.4 2.9.8 4.5z"/><path transform="rotate(-49.262 78.782 109.91)" class="st7" d="M76.2 109.5h5.2v.8h-5.2z"/><path transform="rotate(-49.277 78.918 107.037)" class="st7" d="M78.5 104.8h.8v4.5h-.8z"/><path transform="rotate(-49.277 66.354 124.496)" class="st7" d="M63.7 124.1h5.2v.8h-5.2z"/><path transform="rotate(-49.277 63.564 124.87)" class="st7" d="M63.2 122.6h.8v4.5h-.8z"/><path transform="rotate(-49.277 82.63 113.146)" class="st7" d="M80 112.7h5.2v.8H80z"/><path transform="rotate(-49.286 70.076 127.7)" class="st7" d="M67.5 127.3h5.2v.8h-5.2z"/><path transform="rotate(-49.286 86.064 116.137)" class="st7" d="M83.5 115.7h5.2v.8h-5.2z"/><path transform="rotate(-49.277 88.998 115.694)" class="st7" d="M88.6 113.4h.8v4.5h-.8z"/><g><path transform="rotate(-49.27 73.53 130.699)" class="st7" d="M70.9 130.3h5.2v.8h-5.2z"/><path transform="rotate(-49.277 73.486 133.54)" class="st7" d="M73.1 131.3h.8v4.5h-.8z"/></g><path class="st7" d="M73.6 109.9c-1.9 2.2-5.7 6.6-8.1 9.5.7 2.5 2.1 5 4.4 7 4.6 4 10.8 4.4 14.8 1.3 2.5-4.4 1.1-10.4-3.5-14.4-2.3-2.1-5-3.3-7.6-3.4z"/><path class="st6" d="M66.8 112.1c-1.7 2-2.1 4.7-1.3 7.1 2.5.5 5.1-.4 6.8-2.4 1.7-2 2.1-4.7 1.3-7.1-2.5-.3-5.1.4-6.8 2.4z"/><path class="st7" d="M65.3 115.2l4.3-5c-1.3-.3-2.7.2-3.6 1.2-.9 1.1-1.2 2.5-.7 3.8z"/><g><path class="st8" d="M73.6 109.9c3.2-.8 6.7-.3 9.8 1.8 5 3.5 6.7 9.9 4.3 15.3l-14.6-9.9c1.5-2.3 1.6-5.1.5-7.2z"/><path class="st6" d="M73.9 116.8c.6-.3 1.2-.1 1.4.5.3.4.2.9-.1 1.2l-1.7-1.2c.1-.2.2-.3.4-.5zM80.6 119c.3.6 1 .7 1.4.5.6-.3.7-1 .5-1.4-.3-.6-1-.7-1.4-.5-.6.3-.8 1-.5 1.4zM81 114c.3.6 1 .7 1.4.5.6-.3.7-1 .5-1.4-.3-.6-1-.7-1.4-.5-.5.2-.7.8-.5 1.4zM85.4 119.7c.3.6 1 .7 1.4.5.6-.3.7-1 .5-1.4-.3-.6-1-.7-1.4-.5-.6.3-.7 1-.5 1.4z"/></g><g><path class="st8" d="M65.5 119.2c-.3 3.3.7 6.7 3.3 9.4 4.2 4.5 10.7 5.1 15.7 2l-11.9-13c-2.1 1.8-4.7 2.4-7.1 1.6z"/><path class="st6" d="M72.5 118.6c-.2.6.1 1.2.7 1.3.5.2.9 0 1.1-.3l-1.4-1.5c-.2.1-.4.2-.4.5zM75.7 124.8c.6.2.9.9.7 1.3-.2.6-.9.9-1.3.7-.6-.2-.9-.9-.7-1.3.1-.7.7-.9 1.3-.7zM70.6 125.9c.6.2.9.9.7 1.3-.2.6-.9.9-1.3.7-.6-.2-.9-.9-.7-1.3.2-.6.9-.9 1.3-.7zM77.1 129.5c.6.2.9.9.7 1.3-.2.6-.9.9-1.3.7-.6-.2-.9-.9-.7-1.3.1-.7.7-1 1.3-.7z"/></g><path class="st0" d="M70 110c0 .3.3.6.5.9.6.5 1.5.5 2.1-.2.2-.2.3-.6.4-1-1 0-1.9 0-3 .3zM65.1 115.8c.3 0 .6.2 1 .4.6.5.7 1.5.2 2.1-.2.2-.5.5-.9.5-.4-1.1-.5-2.1-.3-3z"/><path class="st5" d="M91.5 102c-10.3-8.9-25.8-7.6-34.6 2.6-8.9 10.3-7.6 25.8 2.6 34.6 10.3 8.9 25.8 7.6 34.6-2.6s7.7-25.7-2.6-34.6zm-29.4 34.1c-8.5-7.3-9.5-20.3-2.2-28.8s20.3-9.5 28.8-2.2 9.5 20.3 2.2 28.8-20.3 9.6-28.8 2.2z"/><g class="st9"><path class="st0" d="M76.4 141c-5.1.2-10.2-1.3-14.4-4.9-.3-.2-.4-.4-.7-.6l-2-27.3c.2-.3.4-.4.6-.7 3.6-4.1 8.5-6.5 13.5-6.9l3 40.4zM85.1 138.6c-1.8 1-3.8 1.8-5.9 2l-3-40.4c2.1.1 4.2.5 6.1 1.1l2.8 37.3z"/></g></g></svg>