<svg id="Layer_1" xmlns="http://www.w3.org/2000/svg" viewBox="0 0 130 170"><style>.st1{fill:#f9f9f9}.st2{fill:#e89282}</style><path d="M123.6 152c.4 0 .8-.3.8-.8V22.4c0-.4-.3-.8-.8-.8H2.3c-.4 0-.8.3-.8.8v128.8c0 .4.3.8.8.8h121.3z" fill="#f2eeee" id="XMLID_2_"/><path class="st1" d="M127.7 148.4c.4 0 .8-.3.8-.8V18.8c0-.4-.3-.8-.8-.8H6.3c-.4 0-.8.3-.8.8v128.8c0 .4.3.8.8.8h121.4z" id="XMLID_642_"/><path class="st1" d="M127.7 39.5c.4 0 .8-.1.8-.2V18.1c0-.1-.3-.2-.8-.2H6.3c-.4 0-.8.1-.8.2v21.2c0 .1.3.2.8.2h121.4z" id="XMLID_426_"/><g id="XMLID_550_"><path class="st2" d="M88 89.6c0 11.6-9.4 21-21 21s-21-9.4-21-21 9.4-21 21-21 21 9.4 21 21z" id="XMLID_618_"/><g id="XMLID_616_"><path id="XMLID_1229_" class="st2" d="M46.5 68.2H35V56.7h11.5v11.5zM39 64.1h3.4v-3.4H39v3.4z"/></g><g id="XMLID_615_"><path id="XMLID_1226_" class="st2" d="M99 68.2H87.5V56.7H99v11.5zm-7.4-4.1H95v-3.4h-3.4v3.4z"/></g><g id="XMLID_614_"><path id="XMLID_1223_" class="st2" d="M46.5 120.7H35v-11.5h11.5v11.5zm-7.5-4h3.4v-3.4H39v3.4z"/></g><g id="XMLID_613_"><path id="XMLID_1220_" class="st2" d="M99 120.7H87.5v-11.5H99v11.5zm-7.4-4H95v-3.4h-3.4v3.4z"/></g><g id="XMLID_605_"><g id="XMLID_612_"><path id="XMLID_1219_" class="st2" d="M46.6 113.5h3.7v4h-3.7z"/></g><g id="XMLID_611_"><path id="XMLID_1218_" class="st2" d="M53 113.5h3.7v4H53z"/></g><g id="XMLID_610_"><path id="XMLID_1217_" class="st2" d="M59.3 113.5h3.8v4h-3.8z"/></g><g id="XMLID_609_"><path id="XMLID_1216_" class="st2" d="M65.7 113.5h3.7v4h-3.7z"/></g><g id="XMLID_608_"><path id="XMLID_1215_" class="st2" d="M72 113.5h3.8v4H72z"/></g><g id="XMLID_607_"><path id="XMLID_1214_" class="st2" d="M78.4 113.5h3.7v4h-3.7z"/></g><g id="XMLID_606_"><path id="XMLID_1213_" class="st2" d="M84.7 113.5h3.7v4h-3.7z"/></g></g><g id="XMLID_597_"><g id="XMLID_604_"><path id="XMLID_1212_" class="st2" d="M46.6 60.1h3.7v4h-3.7z"/></g><g id="XMLID_603_"><path id="XMLID_1211_" class="st2" d="M53 60.1h3.7v4H53z"/></g><g id="XMLID_602_"><path id="XMLID_1210_" class="st2" d="M59.3 60.1h3.8v4h-3.8z"/></g><g id="XMLID_601_"><path id="XMLID_1209_" class="st2" d="M65.7 60.1h3.7v4h-3.7z"/></g><g id="XMLID_600_"><path id="XMLID_1208_" class="st2" d="M72 60.1h3.8v4H72z"/></g><g id="XMLID_599_"><path id="XMLID_1207_" class="st2" d="M78.4 60.1h3.7v4h-3.7z"/></g><g id="XMLID_598_"><path id="XMLID_1206_" class="st2" d="M84.7 60.1h3.7v4h-3.7z"/></g></g><g id="XMLID_589_"><g id="XMLID_596_"><path id="XMLID_1205_" class="st2" d="M39.2 105.6h4v3.7h-4z"/></g><g id="XMLID_595_"><path id="XMLID_1204_" class="st2" d="M39.2 99.3h4v3.7h-4z"/></g><g id="XMLID_594_"><path id="XMLID_1203_" class="st2" d="M39.2 92.9h4v3.7h-4z"/></g><g id="XMLID_593_"><path id="XMLID_1202_" class="st2" d="M39.2 86.6h4v3.8h-4z"/></g><g id="XMLID_592_"><path id="XMLID_1201_" class="st2" d="M39.2 80.2h4v3.7h-4z"/></g><g id="XMLID_591_"><path id="XMLID_1200_" class="st2" d="M39.2 73.9h4v3.7h-4z"/></g><g id="XMLID_590_"><path id="XMLID_1199_" class="st2" d="M39.2 67.5h4v3.7h-4z"/></g></g><g id="XMLID_565_"><g id="XMLID_588_"><path id="XMLID_1198_" class="st2" d="M91.1 105.6h4v3.7h-4z"/></g><g id="XMLID_587_"><path id="XMLID_1197_" class="st2" d="M91.1 99.3h4v3.7h-4z"/></g><g id="XMLID_586_"><path id="XMLID_1196_" class="st2" d="M91.1 92.9h4v3.7h-4z"/></g><g id="XMLID_585_"><path id="XMLID_1195_" class="st2" d="M91.1 86.6h4v3.8h-4z"/></g><g id="XMLID_570_"><path id="XMLID_1194_" class="st2" d="M91.1 80.2h4v3.7h-4z"/></g><g id="XMLID_569_"><path id="XMLID_1193_" class="st2" d="M91.1 73.9h4v3.7h-4z"/></g><g id="XMLID_567_"><path id="XMLID_1192_" class="st2" d="M91.1 67.5h4v3.7h-4z"/></g></g></g><circle class="st2" cx="14.7" cy="28.1" r="2.7"/><ellipse transform="rotate(-88.939 22.879 28.096) scale(.99997)" cx="22.9" cy="28.1" rx="2.7" ry="2.7" fill="#ffdb79"/><circle cx="30.9" cy="28.1" r="2.7" fill="#83e588"/></svg>