<svg id="Layer_1" xmlns="http://www.w3.org/2000/svg" viewBox="0 0 130 170"><style>.st0{fill:#e5e5e4}.st1{fill:#fff}.st2{fill:#c6e6ec}.st3{fill:#7c8ea3}.st4{fill:#707f91}.st5{fill:#e89282}.st6{fill:#f4a399}.st7{fill:#1fb7eb}.st8{opacity:.5;fill-rule:evenodd;clip-rule:evenodd}.st10,.st8,.st9{fill:#eaeaea}.st9{fill-rule:evenodd;clip-rule:evenodd}.st10{opacity:.5}.st11,.st12{fill-rule:evenodd;clip-rule:evenodd;fill:#ffe7a0}.st12{fill:#eacd8a}.st13{fill:#3cb28d}</style><path class="st0" d="M118.5 6.4c0-3.1-2.6-5.7-5.7-5.7H9.9C6.8.7 4.2 3.3 4.2 6.4v142.8c0 3.1 2.6 5.7 5.7 5.7h102.8c3.1 0 5.7-2.6 5.7-5.7V6.4z"/><path class="st1" d="M126.8 6.6c0-3.2-2.6-5.8-5.8-5.8H16.9c-3.2 0-5.8 2.6-5.8 5.8v142.8c0 3.2 2.6 5.8 5.8 5.8h104.2c3.2 0 5.8-2.6 5.8-5.8V6.6z"/><path class="st2" d="M115.3 74.8c0 4.2-3.5 7.7-7.7 7.7H30.4c-4.2 0-7.7-3.5-7.7-7.7v-54c0-4.2 3.5-7.7 7.7-7.7h77.2c4.2 0 7.7 3.5 7.7 7.7v54z"/><path class="st3" d="M103.7 69c0 1.8-1.4 3.2-3.2 3.2H72.2c-1.8 0-3.2-1.4-3.2-3.2V27.8c0-1.8 1.4-3.2 3.2-3.2h28.3c1.8 0 3.2 1.4 3.2 3.2V69z"/><path class="st4" d="M77.3 31h6.4v34.7h-6.4zM88.9 31h6.4v34.7h-6.4z"/><path class="st5" d="M101.1 42.6c0 1.8-1.4 3.2-3.2 3.2H74.7c-1.8 0-3.2-1.4-3.2-3.2v-4.5c0-1.8 1.4-3.2 3.2-3.2h23.2c1.8 0 3.2 1.4 3.2 3.2v4.5z"/><path class="st6" d="M101.1 45.2c0 1.8-1.4 3.2-3.2 3.2H74.7c-1.8 0-3.2-1.4-3.2-3.2v-4.5c0-1.8 1.4-3.2 3.2-3.2h23.2c1.8 0 3.2 1.4 3.2 3.2v4.5zM29.1 24.6h20.6v5.8H29.1zM29.1 32.9h20.6v5.8H29.1zM29.1 41.3h20.6v5.8H29.1zM29.1 49.7h20.6v5.8H29.1zM29.1 58h20.6v5.8H29.1z"/><circle class="st7" cx="120.1" cy="148.7" r="2.6"/><circle class="st7" cx="17.8" cy="148.7" r="2.6"/><circle class="st7" cx="17.8" cy="148.7" r="1.2"/><circle class="st7" cx="120.1" cy="7.9" r="2.6"/><circle class="st7" cx="17.8" cy="7.9" r="2.6"/><circle class="st1" cx="54.4" cy="27.7" r="2.4"/><circle class="st3" cx="54.4" cy="27.7" r="1.5"/><circle class="st1" cx="54.4" cy="36" r="2.4"/><circle class="st3" cx="54.4" cy="36" r="1.5"/><g><circle class="st1" cx="54.4" cy="44.4" r="2.4"/><circle class="st3" cx="54.4" cy="44.4" r="1.5"/></g><g><circle class="st1" cx="54.4" cy="52.8" r="2.4"/><circle class="st3" cx="54.4" cy="52.8" r="1.5"/></g><g><circle class="st1" cx="54.4" cy="61.1" r="2.4"/><circle class="st3" cx="54.4" cy="61.1" r="1.5"/></g><g><path class="st8" d="M44 108.2v57c0 2.3-1.9 4.1-4.1 4.1-1.1 0-2.2-.5-2.9-1.2-.8-.8-1.2-1.8-1.2-2.9V95.5c.3.2.6.3.9.3H44v11.6c-.1.2-.1.5 0 .8z"/><path class="st9" d="M78.2 85.2v10.4c-.2.1-.4.1-.6.1h-7.4v11.6c0 .5-.1 1.1-.3 1.6V85.2c0-2.3 1.9-4.1 4.1-4.1 2.3-.1 4.2 1.8 4.2 4.1z"/><path class="st8" d="M78.2 95.6v69.6c0 2.3-1.9 4.1-4.1 4.1-1.1 0-2.2-.5-2.9-1.2-.8-.8-1.2-1.8-1.2-2.9v-16.1H44v-5.3h25.9v-10.5H72c.7 0 1.4-.3 1.9-.8s.8-1.1.8-1.9c0-1.5-1.2-2.7-2.7-2.7h-2.1v-10.5H44v-5.3h4c.2 0 .5.1.7.1.2 0 .5 0 .7-.1h15.1c.2 0 .5.1.7.1.2 0 .5 0 .7-.1h3.9v-3.2c.2-.5.3-1 .3-1.6V95.7h7.4c.3 0 .5 0 .7-.1z"/><path class="st9" d="M48 112.1h1.4c-.2 0-.5.1-.7.1-.2 0-.4 0-.7-.1zM66 112.1c-.2 0-.5.1-.7.1-.2 0-.5 0-.7-.1H66zM74.7 130.6c0 .7-.3 1.4-.8 1.9s-1.1.8-1.9.8H44V128h28c1.5-.1 2.7 1.1 2.7 2.6z"/><g><path class="st10" d="M32.9 62.9v19.8c0 1.3-.5 2.6-1.4 3.4-.9.9-2.1 1.4-3.4 1.4-2.7 0-4.9-2.2-4.9-4.9V62.9c0-2.7 2.2-4.9 4.9-4.9 2.6.1 4.8 2.2 4.8 4.9zM79.2 59.7v34.4c0 .7-.4 1.3-1 1.5-.2.1-.4.1-.6.1h-7.4v11.6c0 .5-.1 1.1-.3 1.6-.2.7-.6 1.3-1.2 1.9-.7.7-1.7 1.2-2.7 1.4-.2 0-.5.1-.7.1-.2 0-.5 0-.7-.1-2.4-.3-4.2-2.4-4.2-4.8V95.7h-6.8v11.6c0 1.3-.5 2.6-1.4 3.4-.7.7-1.7 1.2-2.7 1.4-.2 0-.5.1-.7.1-.2 0-.5 0-.7-.1-2.1-.3-3.7-1.9-4.1-4-.1-.3-.1-.6-.1-.8V95.7h-7.3c-.3 0-.6-.1-.9-.3-.5-.3-.8-.8-.8-1.4V59.7c0-.9.7-1.6 1.7-1.6h41c.9 0 1.6.7 1.6 1.6zM35.3 53.7c1.3-6.3 5.4-11.7 10.8-14.8l-3.4-6.2c-.2-.4-.1-1 .3-1.2.4-.2.9-.1 1.2.3l3.5 6.3c2.8-1.3 6-2.1 9.3-2.1 3.3 0 6.5.7 9.3 2.1l3.5-6.3c.2-.4.8-.6 1.2-.3.4.2.6.8.3 1.2l-3.4 6.2c5.5 3.1 9.5 8.4 10.8 14.8.2 1-.6 2-1.6 2H36.9c-1 0-1.8-1-1.6-2zM91 31.8v19.8c0 1.3-.5 2.6-1.4 3.4-.9.9-2.1 1.4-3.4 1.4-2.7 0-4.9-2.2-4.9-4.9V31.8c0-2.7 2.2-4.9 4.9-4.9 2.6.1 4.8 2.2 4.8 4.9z"/></g></g><g><path class="st11" d="M41.5 81c2.3 0 4.1 1.9 4.1 4.1v80c0 2.3-1.9 4.1-4.1 4.1-2.3 0-4.1-1.9-4.1-4.1v-80c-.1-2.2 1.8-4.1 4.1-4.1zM75.7 81c2.3 0 4.1 1.9 4.1 4.1v80c0 2.3-1.9 4.1-4.1 4.1-2.3 0-4.1-1.9-4.1-4.1v-80c-.1-2.2 1.8-4.1 4.1-4.1z"/><path class="st12" d="M44.5 112.1h29.1c1.5 0 2.7 1.2 2.7 2.7 0 1.5-1.2 2.7-2.7 2.7H44.5c-1.5 0-2.7-1.2-2.7-2.7.1-1.5 1.3-2.7 2.7-2.7zM44.5 127.9h29.1c1.5 0 2.7 1.2 2.7 2.7 0 1.5-1.2 2.7-2.7 2.7H44.5c-1.5 0-2.7-1.2-2.7-2.7.1-1.5 1.3-2.7 2.7-2.7zM44.5 143.7h29.1c1.5 0 2.7 1.2 2.7 2.7 0 1.5-1.2 2.7-2.7 2.7H44.5c-1.5 0-2.7-1.2-2.7-2.7.1-1.5 1.3-2.7 2.7-2.7z"/><g><path class="st13" d="M50.7 41.1l-.5.1-5.5 1.3s-.3 3.1 0 4 11.7 3.5 12.5 3.9 9 1.2 10.5.9c1.5-.3 3.8-5.4 3.8-5.4s-.8-1.2-1.3-2.4c-.6-1.2-3.3-2.9-3.3-2.9s-6.5-1.9-8.9-1.2M79.2 58.1h-41c-.9 0-1.7.7-1.7 1.7v34.4c0 .9.7 1.7 1.7 1.7h7.3v11.6c0 2.7 2.2 4.9 4.9 4.9s4.9-2.2 4.9-4.9V95.7h6.8v11.6c0 2.7 2.2 4.9 4.9 4.9s4.9-2.2 4.9-4.9V95.7h7.4c.9 0 1.7-.7 1.7-1.7V59.7c-.1-.9-.9-1.6-1.8-1.6zM29.7 58.1c-2.7 0-4.9 2.2-4.9 4.9v19.8c0 2.7 2.2 4.9 4.9 4.9s4.9-2.2 4.9-4.9V62.9c-.1-2.6-2.3-4.8-4.9-4.8zM87.8 27c-2.7 0-4.9 2.2-4.9 4.9v19.8c0 2.7 2.2 4.9 4.9 4.9s4.9-2.2 4.9-4.9V31.8c0-2.7-2.2-4.8-4.9-4.8z"/><path class="st13" d="M38.6 55.7h40.2c1 0 1.8-1 1.6-2C79.1 47.3 75 42 69.6 38.9l3.4-6.2c.2-.4.1-.9-.3-1.2-.4-.2-.9-.1-1.2.3L68 38.1c-2.8-1.3-6-2.1-9.3-2.1-3.3 0-6.5.7-9.3 2.1l-3.5-6.2c-.2-.4-.8-.6-1.2-.3-.4.2-.6.8-.3 1.2l3.4 6.2c-5.5 3-9.5 8.3-10.8 14.7-.3 1 .5 2 1.6 2zm32.1-9.3c0 1-.8 1.9-1.9 1.9-1 0-1.9-.8-1.9-1.9 0-1 .8-1.9 1.9-1.9 1 .1 1.9.9 1.9 1.9zm-22.1-1.8c1 0 1.9.8 1.9 1.9 0 1-.8 1.9-1.9 1.9-1 0-1.9-.8-1.9-1.9 0-1.1.8-1.9 1.9-1.9z"/></g></g></svg>