<svg xmlns="http://www.w3.org/2000/svg" fill="none" viewBox="0 0 65 65"><g clip-path="url(#clip0_5175_247)"><path fill="#7B71FF" d="M32.5 65C50.45 65 65 50.45 65 32.5S50.45 0 32.5 0 0 14.55 0 32.5 14.55 65 32.5 65z"/><rect width="27.999" height="29.646" x="18.647" y="21.275" fill="#F2F0FF" rx="5.49"/><path fill="#7B71FF" d="M27.916 14.618h-3.168v7.604h3.168v-7.604zm6.337-6.971h-3.168v12.674h3.168V7.647zm6.971 5.07h-3.168v9.505h3.168v-9.505z"/><path fill="#7B71FF" fill-rule="evenodd" d="M31.35 19.494V7.647h3.28v11.847" clip-rule="evenodd"/><path stroke="#242938" stroke-linecap="square" stroke-width="2.089" d="M31.35 19.494V7.647h3.28v11.847"/><path fill="#7B71FF" fill-rule="evenodd" d="M24.787 21.962V14.21h3.281v6.016" clip-rule="evenodd"/><path stroke="#242938" stroke-linecap="square" stroke-width="2.089" d="M24.787 21.962V14.21h3.281v6.016"/><path fill="#7B71FF" fill-rule="evenodd" d="M37.912 20.226v-8.204h3.282v9.94" clip-rule="evenodd"/><path stroke="#242938" stroke-linecap="square" stroke-width="2.089" d="M37.912 20.226v-8.204h3.282v9.94"/><circle cx="23.862" cy="36.372" r="2.47" fill="#7B71FF"/><circle cx="30.45" cy="42.411" r="2.47" fill="#7B71FF"/><circle cx="30.45" cy="29.784" r="2.47" fill="#7B71FF"/><circle cx="40.332" cy="29.784" r="2.47" fill="#7B71FF"/><path fill="#242938" d="M41.98 20.177H23.862A6.87 6.87 0 0017 27.039v18.118a6.87 6.87 0 006.862 6.862H41.98a6.87 6.87 0 006.862-6.862V27.039a6.87 6.87 0 00-6.862-6.862zm3.98 24.98a3.985 3.985 0 01-3.98 3.98H23.862a3.985 3.985 0 01-3.981-3.98v-7.778h1.017a3.567 3.567 0 003.323 2.28c.514 0 1.002-.11 1.443-.306l1.779 1.778a3.537 3.537 0 00.158 3.203 3.54 3.54 0 002.15 1.676 3.542 3.542 0 002.706-.336 3.54 3.54 0 001.675-2.151 3.565 3.565 0 00-2.486-4.38 3.546 3.546 0 00-2.39.179l-1.78-1.78a3.544 3.544 0 00-.001-2.888l1.778-1.778a3.638 3.638 0 001.443.306A3.57 3.57 0 0034.02 30.9h2.55c.064.164.14.323.228.478a3.541 3.541 0 002.15 1.676 3.542 3.542 0 002.706-.336 3.541 3.541 0 001.675-2.15 3.565 3.565 0 00-2.486-4.381 3.567 3.567 0 00-4.27 2.153H34.02a3.558 3.558 0 00-2.375-2.153 3.566 3.566 0 00-4.38 2.486 3.533 3.533 0 00.178 2.392l-1.779 1.779a3.542 3.542 0 00-1.444-.307 3.567 3.567 0 00-3.322 2.281H19.88V27.04a3.985 3.985 0 013.98-3.981h18.12a3.985 3.985 0 013.98 3.98v18.118zm-20.419-9.059c0 .729-.593 1.321-1.32 1.321a1.322 1.322 0 01-.001-2.642c.728 0 1.321.593 1.321 1.321zm4.506 5.33a1.312 1.312 0 011.003-.125 1.323 1.323 0 01.301 2.422 1.314 1.314 0 01-1.003.125 1.314 1.314 0 01-.798-.621 1.314 1.314 0 01-.125-1.003c.094-.34.315-.624.622-.799zm-.622-12.16a1.323 1.323 0 011.625-.922c.702.194 1.116.923.922 1.625a1.323 1.323 0 01-2.422.302 1.316 1.316 0 01-.125-1.004zm9.197 0a1.323 1.323 0 011.625-.922 1.323 1.323 0 01.302 2.423 1.313 1.313 0 01-1.003.125 1.314 1.314 0 01-.798-.621 1.313 1.313 0 01-.126-1.004z"/><path fill="#7B71FF" stroke="#000" stroke-width=".436" d="M39.825 44.53c.509-.219 1.614-.917 1.963-1.964l2.836-.873c.218.291 1.222.916 3.49 1.091 2.27.175 2.255 2.981 1.964 4.363l1.09 2.4-1.308 1.963-1.527.436-1.745 2.181h-1.964l-1.745-1.09h-1.963l-1.527-1.527.436-1.964-1.09-2.617 1.09-2.4z"/><path fill="#000" d="M44.026 42.435c.453 0 .872.144 1.215.388-.902.47-1.731 1.061-2.611 1.57l.698 1.208c1.1-.635 2.13-1.43 3.323-1.889a2.095 2.095 0 012.832 2.157c-.858-.546-1.785-.97-2.665-1.477l-.698 1.21c1.1.635 2.305 1.129 3.297 1.933a2.095 2.095 0 01-.452 3.53c.045-1.016-.053-2.03-.053-3.046h-1.396c0 1.27.175 2.561-.026 3.823a2.095 2.095 0 01-3.284 1.373c.902-.47 1.733-1.06 2.612-1.568l-.698-1.21c-1.1.636-2.13 1.432-3.323 1.89a2.095 2.095 0 01-2.832-2.157c.859.545 1.785.968 2.665 1.477l.698-1.21c-1.1-.635-2.305-1.129-3.298-1.933a2.096 2.096 0 01.453-3.531c-.045 1.016.052 2.03.052 3.046h1.397c0-1.269-.175-2.56.025-3.822a2.095 2.095 0 012.069-1.762zm2.648-.18a3.491 3.491 0 00-5.968 1.193 3.49 3.49 0 00-1.95 5.765 3.492 3.492 0 004.019 4.571 3.49 3.49 0 005.967-1.194 3.491 3.491 0 001.95-5.764 3.491 3.491 0 00-4.018-4.571z"/></g><defs><clipPath id="clip0_5175_247"><path fill="#fff" d="M0 0h65v65H0z"/></clipPath></defs></svg>