<svg xmlns="http://www.w3.org/2000/svg" fill="none" viewBox="0 0 30 30"><g clip-path="url(#clip0_4858_1518)"><path fill="#7B71FF" d="M23.535 0H6.465A6.472 6.472 0 000 6.465v17.07C0 27.1 2.9 30 6.465 30h17.07C27.1 30 30 27.1 30 23.535V6.465C30 2.9 27.1 0 23.535 0zm3.75 23.535a3.755 3.755 0 01-3.75 3.75H6.465a3.755 3.755 0 01-3.75-3.75v-7.328h.957a3.36 3.36 0 003.13 2.149c.485 0 .945-.104 1.361-.29l1.676 1.676a3.332 3.332 0 00.149 3.018 3.336 3.336 0 002.026 1.578 3.337 3.337 0 002.55-.317 3.336 3.336 0 001.578-2.025 3.36 3.36 0 00-2.343-4.127 3.342 3.342 0 00-2.253.168L9.87 16.36a3.338 3.338 0 00-.001-2.72l1.675-1.676a3.424 3.424 0 001.36.289 3.364 3.364 0 003.132-2.15h2.402c.06.154.131.304.215.45a3.336 3.336 0 002.026 1.58 3.336 3.336 0 002.55-.317 3.336 3.336 0 001.578-2.027 3.36 3.36 0 00-2.343-4.127 3.36 3.36 0 00-4.024 2.029h-2.404a3.352 3.352 0 00-2.238-2.029 3.36 3.36 0 00-4.127 2.343 3.329 3.329 0 00.168 2.254l-1.676 1.675a3.336 3.336 0 00-1.36-.289 3.36 3.36 0 00-3.13 2.15h-.959v-7.33a3.755 3.755 0 013.751-3.75h17.07a3.755 3.755 0 013.75 3.75v17.07zM8.048 15c0 .687-.558 1.245-1.244 1.245A1.246 1.246 0 015.558 15a1.246 1.246 0 012.489 0zm4.245 5.021a1.236 1.236 0 01.945-.117 1.246 1.246 0 01.284 2.282 1.238 1.238 0 01-.945.118 1.238 1.238 0 01-.752-.585 1.238 1.238 0 01-.117-.946c.088-.32.296-.588.585-.752zm-.586-11.455a1.247 1.247 0 011.531-.87c.662.183 1.052.87.87 1.532a1.247 1.247 0 01-2.283.284 1.24 1.24 0 01-.118-.946zm8.666 0a1.246 1.246 0 011.53-.87 1.246 1.246 0 01.285 2.283 1.238 1.238 0 01-.945.118 1.238 1.238 0 01-.752-.585 1.237 1.237 0 01-.118-.946z"/></g><defs><clipPath id="clip0_4858_1518"><path fill="#fff" d="M0 0h30v30H0z"/></clipPath></defs></svg>