<svg version="1" xmlns="http://www.w3.org/2000/svg" viewBox="0 0 300 300"><path fill="#FFF" d="M293.075 145.575c0 67.26-46.61 123.9-109.445 139.24-10.915 2.655-22.125 4.13-33.925 4.13s-23.01-1.475-33.925-4.13C53.535 269.475 6.925 213.13 6.925 145.575 6.925 66.81 70.94 2.5 150 2.5s143.075 64.31 143.075 143.075"/><path fill="#2DA6BA" d="M284.225 145.575c0 74.045-60.18 134.225-134.225 134.225S15.775 219.62 15.775 145.575 75.955 11.645 150 11.645s134.225 59.885 134.225 133.93"/><path fill="#73D8F4" d="M116.37 275.375c-59-15.045-101.775-69.915-100.89-132.16.295-34.515 13.865-66.965 38.35-92.04 24.19-24.78 56.345-39.235 90.86-40.71H150c74.34 0 134.52 60.475 134.52 134.52 0 32.45-11.8 63.72-33.04 88.205-17.995 20.65-41.89 35.4-68.145 42.185 1.77-4.13 2.36-8.555 2.36-13.275 0-7.965-2.655-15.34-7.375-21.535 41.89-12.39 71.095-51.035 71.095-95.58 0-55.165-44.84-99.71-99.71-99.71-2.655 0-5.605 0-8.555.295-49.56 4.13-88.795 44.545-91.155 94.4-2.36 46.02 27.73 87.615 70.8 100.595-4.72 6.195-7.375 13.865-7.375 21.535.59 4.72 1.475 9.145 2.95 13.275z"/><path fill="#8FEAFF" d="M150 263.575c-64.9 0-118-52.805-118-118 0-64.9 52.805-118 118-118 64.9 0 118 52.805 118 118s-53.1 118-118 118zm0-233.05c-63.425 0-115.05 51.625-115.05 115.05S86.575 260.625 150 260.625 265.05 209 265.05 145.575 213.425 30.525 150 30.525z"/><path fill="#AA57EA" d="M221.39 238.5H78.61c-5.31 0-9.44-4.13-9.44-9.44v-90.565c0-5.31 4.13-9.44 9.44-9.44h142.78c5.31 0 9.44 4.13 9.44 9.44v90.86c0 5.015-4.13 9.145-9.44 9.145"/><path fill="#B866ED" d="M221.39 234.96H78.61c-5.31 0-9.44-4.13-9.44-9.44v-90.565c0-5.31 4.13-9.44 9.44-9.44h142.78c5.31 0 9.44 4.13 9.44 9.44v90.86c0 5.015-4.13 9.145-9.44 9.145"/><path fill="#9836DD" d="M99.26 161.505H88.05c-2.065 0-3.835-1.77-3.835-3.835v-11.21c0-2.065 1.77-3.835 3.835-3.835h11.21c2.065 0 3.835 1.77 3.835 3.835v11.21c0 2.36-1.475 3.835-3.835 3.835m28.32 0h-11.21c-2.065 0-3.835-1.77-3.835-3.835v-11.21c0-2.065 1.77-3.835 3.835-3.835h11.21c2.065 0 3.835 1.77 3.835 3.835v11.21c-.295 2.36-1.77 3.835-3.835 3.835m28.025 0h-11.21c-2.065 0-3.835-1.77-3.835-3.835v-11.21c0-2.065 1.77-3.835 3.835-3.835h11.21c2.065 0 3.835 1.77 3.835 3.835v11.21c0 2.36-1.77 3.835-3.835 3.835m28.025 0h-11.21c-2.065 0-3.835-1.77-3.835-3.835v-11.21c0-2.065 1.77-3.835 3.835-3.835h11.21c2.065 0 3.835 1.77 3.835 3.835v11.21c0 2.36-1.77 3.835-3.835 3.835m28.32 0h-11.21c-2.065 0-3.835-1.77-3.835-3.835v-11.21c0-2.065 1.77-3.835 3.835-3.835h11.21c2.065 0 3.835 1.77 3.835 3.835v11.21c-.295 2.36-1.77 3.835-3.835 3.835m-112.69 28.32H88.05c-2.065 0-3.835-1.77-3.835-3.835v-11.21c0-2.065 1.77-3.835 3.835-3.835h11.21c2.065 0 3.835 1.77 3.835 3.835v11.21c0 2.065-1.475 3.835-3.835 3.835m28.32 0h-11.21c-2.065 0-3.835-1.77-3.835-3.835v-11.21c0-2.065 1.77-3.835 3.835-3.835h11.21c2.065 0 3.835 1.77 3.835 3.835v11.21c-.295 2.065-1.77 3.835-3.835 3.835m28.025 0h-11.21c-2.065 0-3.835-1.77-3.835-3.835v-11.21c0-2.065 1.77-3.835 3.835-3.835h11.21c2.065 0 3.835 1.77 3.835 3.835v11.21c0 2.065-1.77 3.835-3.835 3.835m28.025 0h-11.21c-2.065 0-3.835-1.77-3.835-3.835v-11.21c0-2.065 1.77-3.835 3.835-3.835h11.21c2.065 0 3.835 1.77 3.835 3.835v11.21c0 2.065-1.77 3.835-3.835 3.835m28.32 0h-11.21c-2.065 0-3.835-1.77-3.835-3.835v-11.21c0-2.065 1.77-3.835 3.835-3.835h11.21c2.065 0 3.835 1.77 3.835 3.835v11.21c-.295 2.065-1.77 3.835-3.835 3.835m-28.32 9.145h-67.26c-2.065 0-3.835 1.77-3.835 3.835v11.21c0 2.065 1.77 3.835 3.835 3.835h67.26c2.065 0 3.835-1.77 3.835-3.835v-11.21c0-2.065-1.77-3.835-3.835-3.835"/><path fill="#A844E2" d="M99.26 160.03H88.05c-2.065 0-3.835-1.77-3.835-3.835v-11.21c0-2.065 1.77-3.835 3.835-3.835h11.21c2.065 0 3.835 1.77 3.835 3.835v11.21c0 2.065-1.475 3.835-3.835 3.835m28.32 0h-11.21c-2.065 0-3.835-1.77-3.835-3.835v-11.21c0-2.065 1.77-3.835 3.835-3.835h11.21c2.065 0 3.835 1.77 3.835 3.835v11.21c-.295 2.065-1.77 3.835-3.835 3.835m28.025 0h-11.21c-2.065 0-3.835-1.77-3.835-3.835v-11.21c0-2.065 1.77-3.835 3.835-3.835h11.21c2.065 0 3.835 1.77 3.835 3.835v11.21c0 2.065-1.77 3.835-3.835 3.835m28.025 0h-11.21c-2.065 0-3.835-1.77-3.835-3.835v-11.21c0-2.065 1.77-3.835 3.835-3.835h11.21c2.065 0 3.835 1.77 3.835 3.835v11.21c0 2.065-1.77 3.835-3.835 3.835m28.32 0h-11.21c-2.065 0-3.835-1.77-3.835-3.835v-11.21c0-2.065 1.77-3.835 3.835-3.835h11.21c2.065 0 3.835 1.77 3.835 3.835v11.21c-.295 2.065-1.77 3.835-3.835 3.835M99.26 188.055H88.05c-2.065 0-3.835-1.77-3.835-3.835v-11.21c0-2.065 1.77-3.835 3.835-3.835h11.21c2.065 0 3.835 1.77 3.835 3.835v11.21c0 2.36-1.475 3.835-3.835 3.835m28.32 0h-11.21c-2.065 0-3.835-1.77-3.835-3.835v-11.21c0-2.065 1.77-3.835 3.835-3.835h11.21c2.065 0 3.835 1.77 3.835 3.835v11.21c-.295 2.36-1.77 3.835-3.835 3.835m28.025 0h-11.21c-2.065 0-3.835-1.77-3.835-3.835v-11.21c0-2.065 1.77-3.835 3.835-3.835h11.21c2.065 0 3.835 1.77 3.835 3.835v11.21c0 2.36-1.77 3.835-3.835 3.835m28.025 0h-11.21c-2.065 0-3.835-1.77-3.835-3.835v-11.21c0-2.065 1.77-3.835 3.835-3.835h11.21c2.065 0 3.835 1.77 3.835 3.835v11.21c0 2.36-1.77 3.835-3.835 3.835m28.32 0h-11.21c-2.065 0-3.835-1.77-3.835-3.835v-11.21c0-2.065 1.77-3.835 3.835-3.835h11.21c2.065 0 3.835 1.77 3.835 3.835v11.21c-.295 2.36-1.77 3.835-3.835 3.835m-28.32 9.44h-67.26c-2.065 0-3.835 1.77-3.835 3.835v11.21c0 2.065 1.77 3.835 3.835 3.835h67.26c2.065 0 3.835-1.77 3.835-3.835v-11.21c0-2.065-1.77-3.835-3.835-3.835"/><path fill="#CD94F2" d="M99.26 141.445H88.05c-2.065 0-3.835 1.77-3.835 3.835v.59-.59c0-2.065 1.77-3.835 3.835-3.835h11.21c1.475 0 2.95.885 3.54 2.36-.59-1.475-1.77-2.36-3.54-2.36"/><path fill="#C27CEB" d="M99.26 141.445H88.05c-2.065 0-3.835 1.77-3.835 3.835v.59c0-2.065 1.77-3.54 3.835-3.54h11.21c2.065 0 3.835 1.77 3.835 3.835v-.59c0-.59 0-.885-.295-1.475-.59-1.77-1.77-2.655-3.54-2.655"/><path fill="#CD94F2" d="M127.58 141.445h-11.21c-2.065 0-3.835 1.77-3.835 3.835v.59-.59c0-2.065 1.77-3.835 3.835-3.835h11.21c1.475 0 2.95.885 3.54 2.36-.885-1.475-2.065-2.36-3.54-2.36"/><path fill="#C27CEB" d="M127.58 141.445h-11.21c-2.065 0-3.835 1.77-3.835 3.835v.59c0-2.065 1.77-3.54 3.835-3.54h11.21c2.065 0 3.835 1.77 3.835 3.835v-.59c0-.59 0-.885-.295-1.475-.885-1.77-2.065-2.655-3.54-2.655"/><path fill="#CD94F2" d="M155.605 141.445h-11.21c-2.065 0-3.835 1.77-3.835 3.835v.59-.59c0-2.065 1.77-3.835 3.835-3.835h11.21c1.475 0 2.655.885 3.245 2.065-.59-1.18-1.77-2.065-3.245-2.065"/><path fill="#C27CEB" d="M155.605 141.445h-11.21c-2.065 0-3.835 1.77-3.835 3.835v.59c0-2.065 1.77-3.54 3.835-3.54h11.21c2.065 0 3.835 1.77 3.835 3.835v-.59c0-.59 0-1.18-.295-1.77-.885-1.475-2.065-2.36-3.54-2.36"/><path fill="#CD94F2" d="M183.63 141.445h-11.21c-2.065 0-3.835 1.77-3.835 3.835v.59-.59c0-2.065 1.77-3.835 3.835-3.835h11.21c1.475 0 2.95.885 3.54 2.36-.59-1.475-1.77-2.36-3.54-2.36"/><path fill="#C27CEB" d="M183.63 141.445h-11.21c-2.065 0-3.835 1.77-3.835 3.835v.59c0-2.065 1.77-3.54 3.835-3.54h11.21c2.065 0 3.835 1.77 3.835 3.835v-.59c0-.59 0-1.18-.295-1.475-.59-1.77-1.77-2.655-3.54-2.655"/><path fill="#CD94F2" d="M211.95 141.445h-11.21c-2.065 0-3.835 1.77-3.835 3.835v.59-.59c0-2.065 1.77-3.835 3.835-3.835h11.21c1.475 0 2.655.885 3.245 2.065-.59-1.475-1.77-2.065-3.245-2.065"/><path fill="#C27CEB" d="M211.95 141.445h-11.21c-2.065 0-3.835 1.77-3.835 3.835v.59c0-2.065 1.77-3.54 3.835-3.54h11.21c2.065 0 3.835 1.77 3.835 3.835v-.59c0-.59-.295-1.18-.295-1.77-.885-1.77-2.065-2.36-3.54-2.36"/><path fill="#CD94F2" d="M99.26 169.47H88.05c-2.065 0-3.835 1.77-3.835 3.835v.59-.59c0-2.065 1.77-3.835 3.835-3.835h11.21c1.475 0 2.95.885 3.54 2.36-.59-1.475-1.77-2.36-3.54-2.36"/><path fill="#C27CEB" d="M99.26 169.47H88.05c-2.065 0-3.835 1.77-3.835 3.835v.59c0-2.065 1.77-3.54 3.835-3.54h11.21c2.065 0 3.835 1.77 3.835 3.835v-.59c0-.59 0-.885-.295-1.475-.59-1.77-1.77-2.655-3.54-2.655"/><path fill="#CD94F2" d="M127.58 169.47h-11.21c-2.065 0-3.835 1.77-3.835 3.835v.59-.59c0-2.065 1.77-3.835 3.835-3.835h11.21c1.475 0 2.95.885 3.54 2.36-.885-1.475-2.065-2.36-3.54-2.36"/><path fill="#C27CEB" d="M127.58 169.47h-11.21c-2.065 0-3.835 1.77-3.835 3.835v.59c0-2.065 1.77-3.54 3.835-3.54h11.21c2.065 0 3.835 1.77 3.835 3.835v-.59c0-.59 0-.885-.295-1.475-.885-1.77-2.065-2.655-3.54-2.655"/><path fill="#CD94F2" d="M155.605 169.47h-11.21c-2.065 0-3.835 1.77-3.835 3.835v.59-.59c0-2.065 1.77-3.835 3.835-3.835h11.21c1.475 0 2.655.885 3.245 2.065-.59-1.18-1.77-2.065-3.245-2.065"/><path fill="#C27CEB" d="M155.605 169.47h-11.21c-2.065 0-3.835 1.77-3.835 3.835v.59c0-2.065 1.77-3.54 3.835-3.54h11.21c2.065 0 3.835 1.77 3.835 3.835v-.59c0-.59 0-1.18-.295-1.77-.885-1.475-2.065-2.36-3.54-2.36"/><path fill="#CD94F2" d="M183.63 169.47h-11.21c-2.065 0-3.835 1.77-3.835 3.835v.59-.59c0-2.065 1.77-3.835 3.835-3.835h11.21c1.475 0 2.95.885 3.54 2.36-.59-1.475-1.77-2.36-3.54-2.36"/><path fill="#C27CEB" d="M183.63 169.47h-11.21c-2.065 0-3.835 1.77-3.835 3.835v.59c0-2.065 1.77-3.54 3.835-3.54h11.21c2.065 0 3.835 1.77 3.835 3.835v-.59c0-.59 0-1.18-.295-1.475-.59-1.77-1.77-2.655-3.54-2.655"/><path fill="#CD94F2" d="M211.95 169.47h-11.21c-2.065 0-3.835 1.77-3.835 3.835v.59-.59c0-2.065 1.77-3.835 3.835-3.835h11.21c1.475 0 2.655.885 3.245 2.065-.59-1.18-1.77-2.065-3.245-2.065"/><path fill="#C27CEB" d="M211.95 169.47h-11.21c-2.065 0-3.835 1.77-3.835 3.835v.59c0-2.065 1.77-3.54 3.835-3.54h11.21c2.065 0 3.835 1.77 3.835 3.835v-.59c0-.59-.295-1.18-.295-1.77-.885-1.475-2.065-2.36-3.54-2.36"/><path fill="#CD94F2" d="M183.63 197.495h-67.26c-2.065 0-3.835 1.77-3.835 3.835v.59-.59c0-2.065 1.77-3.835 3.835-3.835h67.26c1.77 0 2.95 1.18 3.54 2.655-.295-1.475-1.77-2.655-3.54-2.655"/><path fill="#C27CEB" d="M183.63 197.495h-67.26c-2.065 0-3.835 1.77-3.835 3.835v.59c0-2.065 1.77-3.54 3.835-3.54h67.555c2.065 0 3.835 1.77 3.835 3.835v-.59c0-.295 0-.885-.295-1.18-.59-1.77-2.065-2.95-3.835-2.95"/><path fill="#363838" d="M199.265 155.9L150 178.32l-49.265-22.42c-5.9-2.655-9.44-8.555-9.44-15.045v-87.32c0-9.145 7.375-16.52 16.52-16.52h84.665c9.145 0 16.52 7.375 16.52 16.52v87.32c-.295 6.49-4.13 12.39-9.735 15.045z"/><path fill="#444" d="M208.705 53.535v3.54c0-9.145-7.375-16.52-16.52-16.52H107.52A16.493 16.493 0 0 0 91 57.075v-3.54c0-9.145 7.375-16.52 16.52-16.52h84.665c9.145 0 16.52 7.375 16.52 16.52z"/><path fill="#363838" d="M208.705 57.075v83.78c0 6.49-3.835 12.095-9.44 14.75L150 178.32l-49.265-22.42c-5.9-2.655-9.44-8.555-9.44-14.75V57.075c0-9.145 7.375-16.52 16.52-16.52h84.665c8.85.295 16.225 7.67 16.225 16.52z"/><path fill="#F8FFF9" d="M135.84 101.915l-19.765 7.375 19.765 7.375c.295.295.59.59.59.885v8.85c0 .885-.885 1.475-1.475.885l-30.68-12.685c-.295-.295-.59-.59-.59-.885v-7.965c0-.295.295-.885.59-.885l30.68-13.275c.59-.295 1.475.295 1.475.885v8.85c.295.295 0 .59-.59.59zm27.435-.885v-8.85c0-.885.885-1.475 1.475-.885l30.68 13.275c.295.295.59.59.59.885v7.965c0 .295-.295.885-.59.885l-30.68 13.275c-.59.295-1.475-.295-1.475-.885v-8.85c0-.59.295-.885.59-.885l19.765-7.375-19.765-7.375c-.295-.295-.59-.59-.59-1.18zm-18.29 36.58h-.59l-3.245-.885c-1.18-.295-1.77-1.475-1.475-2.36l13.57-51.035c.295-.885.885-1.475 1.77-1.475h.59l3.245.885c1.18.295 1.77 1.475 1.475 2.36l-13.57 51.035c-.295.59-.885 1.475-1.77 1.475z"/><circle fill="#5CC7E0" cx="150" cy="260.33" r="37.17"/><path fill="#2DA6BA" d="M156.195 260.035c0 .59-.295.885-.59 1.18-.295.295-.59.295-1.18.59s-1.475.59-2.36.885-1.77.59-2.36.885c-.885.295-1.77.59-2.36.885l-1.77.885c-.59.295-.885.885-1.18 1.475s-.59 1.475-.59 2.36c0 1.77.295 3.245 1.18 3.835.885.885 2.36 1.18 4.72 1.18s4.13-.59 5.015-1.475 1.18-2.36 1.18-3.835l.295-8.85zM150 241.45c4.13 0 7.375.885 9.145 2.36 2.065 1.475 2.95 3.54 2.95 6.195v20.65c0 .885-.295 1.77-.59 2.655s-.885 2.065-1.77 2.655c-.885.885-2.065 1.475-3.835 2.065-1.475.59-3.54.885-6.195.885s-4.72-.295-6.195-.885-2.95-1.18-3.835-2.065c-.885-.885-1.475-1.77-1.77-2.655s-.59-2.065-.59-2.655v-3.245c0-1.77.59-3.54 1.475-4.72.885-1.475 2.36-2.36 4.13-3.245.885-.295 1.77-.59 2.95-.885s2.065-.885 3.245-1.18c1.18-.295 2.065-.59 2.655-.885s.885-.295 1.475-.59l.885-.295c.295-.295.59-.295.885-.885.295-.295.59-.59.885-1.18s.295-.885.295-1.475v-1.475c0-.59 0-.885-.295-1.475s-.59-.885-.885-1.475c-.59-.295-1.18-.885-1.77-.885-.885-.295-1.77-.295-2.95-.295-2.36 0-4.13.59-4.72 1.475-.59.885-1.18 1.77-1.18 2.95l-.59.295h-5.31l-.59-.59v-1.18c0-1.18.295-2.36.59-3.245.59-1.18 1.18-2.065 2.065-2.655.885-.885 2.36-1.475 3.835-1.77 1.475 0 3.54-.295 5.605-.295z"/></svg>