<svg version="1" xmlns="http://www.w3.org/2000/svg" viewBox="0 0 300 300"><path fill="#FFF" d="M293.075 145.575c0 67.26-46.61 123.9-109.445 139.24-10.915 2.655-22.125 4.13-33.925 4.13s-23.01-1.475-33.925-4.13C53.535 269.475 6.925 213.13 6.925 145.575 6.925 66.81 70.94 2.5 150 2.5s143.075 64.31 143.075 143.075"/><path fill="#893CD3" d="M284.225 145.575c0 74.045-60.18 134.225-134.225 134.225S15.775 219.62 15.775 145.575 75.955 11.645 150 11.645s134.225 59.885 134.225 133.93"/><path fill="#B866ED" d="M116.37 275.375c-59-15.045-101.775-69.915-100.89-132.16.295-34.515 13.865-66.965 38.35-92.04 24.19-24.78 56.345-39.235 90.86-40.71H150c74.34 0 134.52 60.475 134.52 134.52 0 32.45-11.8 63.72-33.04 88.205-17.995 20.65-41.89 35.4-68.145 42.185 1.77-4.13 2.36-8.555 2.36-13.275 0-7.965-2.655-15.34-7.375-21.535 41.89-12.39 71.095-51.035 71.095-95.58 0-55.165-44.84-99.71-99.71-99.71-2.655 0-5.605 0-8.555.295-49.56 4.13-88.795 44.545-91.155 94.4-2.36 46.02 27.73 87.615 70.8 100.595-4.72 6.195-7.375 13.865-7.375 21.535.59 4.72 1.475 9.145 2.95 13.275z"/><path fill="#BD79F2" d="M150 263.575c-64.9 0-118-52.805-118-118 0-64.9 52.805-118 118-118s118 52.805 118 118-53.1 118-118 118zm0-233.05c-63.425 0-115.05 51.625-115.05 115.05S86.575 260.625 150 260.625 265.05 209 265.05 145.575 213.425 30.525 150 30.525z"/><path fill="#73D8F4" d="M244.99 145.575c0 36.875-45.135 83.78-94.99 83.78s-94.99-47.495-94.99-83.78S100.145 62.09 150 62.09s94.99 46.905 94.99 83.485"/><path fill="#5CC7E0" d="M212.835 145.575c0 34.81-28.32 62.835-62.835 62.835-34.81 0-62.835-28.32-62.835-62.835 0-34.81 28.32-62.835 62.835-62.835 34.81 0 62.835 28.32 62.835 62.835"/><path fill="#2DA6BA" d="M185.99 145.575c0 19.765-16.225 35.99-35.99 35.99s-35.99-16.225-35.99-35.99 16.225-35.99 35.99-35.99 35.99 16.225 35.99 35.99"/><path fill="#1496A3" d="M185.99 145.575c0 19.765-16.225 35.99-35.99 35.99-15.34 0-28.32-9.44-33.63-23.01 4.13 1.475 8.555 2.36 12.98 2.36 19.765 0 35.99-16.225 35.99-35.99 0-4.72-.885-9.145-2.36-12.98 13.57 5.31 23.01 18.585 23.01 33.63z"/><path fill="#84CFE0" d="M132.005 109.585c-7.965 0-14.455 6.49-14.455 14.455 0 1.475.295 3.245.59 4.425a36.47 36.47 0 0 1 20.65-17.405c-2.065-.59-4.425-1.475-6.785-1.475"/><path fill="#63B8C5" d="M138.79 111.355a36.47 36.47 0 0 0-20.65 17.405c1.77 5.9 7.375 10.03 13.865 10.03 7.965 0 14.455-6.49 14.455-14.455 0-5.605-2.95-10.325-7.67-12.98"/><circle fill="#AA57EA" cx="150" cy="260.33" r="37.17"/><path fill="#893CD3" d="M156.195 260.035c0 .59-.295.885-.59 1.18-.295.295-.59.295-1.18.59s-1.475.59-2.36.885-1.77.59-2.36.885c-.885.295-1.77.59-2.36.885l-1.77.885c-.59.295-.885.885-1.18 1.475-.295.59-.59 1.475-.59 2.36 0 1.77.295 3.245 1.18 3.835.885.885 2.36 1.18 4.72 1.18s4.13-.59 5.015-1.475c.885-.885 1.18-2.36 1.18-3.835l.295-8.85zM150 241.45c4.13 0 7.375.885 9.145 2.36 2.065 1.475 2.95 3.54 2.95 6.195v20.65c0 .885-.295 1.77-.59 2.655-.295.885-.885 2.065-1.77 2.655-.885.885-2.065 1.475-3.835 2.065-1.475.59-3.54.885-6.195.885s-4.72-.295-6.195-.885c-1.475-.59-2.95-1.18-3.835-2.065-.885-.885-1.475-1.77-1.77-2.655s-.59-2.065-.59-2.655v-3.245c0-1.77.59-3.54 1.475-4.72.885-1.475 2.36-2.36 4.13-3.245.885-.295 1.77-.59 2.95-.885 1.18-.295 2.065-.885 3.245-1.18 1.18-.295 2.065-.59 2.655-.885.59-.295.885-.295 1.475-.59l.885-.295c.295-.295.59-.295.885-.885.295-.295.59-.59.885-1.18.295-.59.295-.885.295-1.475v-1.475c0-.59 0-.885-.295-1.475s-.59-.885-.885-1.475c-.295-.59-1.18-.295-2.065-.59s-1.77-.295-2.95-.295c-2.36 0-4.13.59-4.72 1.475s-1.18 1.77-1.18 2.95l-.59.295h-5.31l-.59-.59v-1.18c0-1.18.295-2.36.59-3.245.59-1.18 1.18-2.065 2.065-2.655.885-.885 2.36-1.475 3.835-1.77 1.77-.295 3.835-.59 5.9-.59z"/></svg>