<svg version="1" xmlns="http://www.w3.org/2000/svg" viewBox="0 0 300 300"><path fill="#FFF" d="M293.196 145.699c0 67.287-46.645 123.876-109.306 139.146a143.163 143.163 0 0 1-33.893 4.044c-11.67 0-23.013-1.398-33.884-4.044C53.458 269.584 6.804 212.985 6.804 145.699 6.804 66.733 71.037 2.5 149.994 2.5c78.969 0 143.202 64.233 143.202 143.199z"/><circle fill="#479630" cx="149.997" cy="145.696" r="134.107"/><path fill="#84D171" d="M116.512 275.434c-59.283-15.24-101.911-69.826-101.091-132.175.454-34.45 14.048-67.127 38.276-92.01 24.234-24.886 56.534-39.329 90.949-40.669 1.779-.068 3.578-.103 5.351-.103 74.213 0 134.588 60.375 134.588 134.588 0 32.367-11.706 63.67-32.96 88.143-18.036 20.768-41.869 35.459-68.139 42.223a35.918 35.918 0 0 0 2.478-13.181 35.972 35.972 0 0 0-7.245-21.638c41.757-12.508 71.06-51.115 71.06-95.548 0-55.02-44.76-99.781-99.781-99.781-2.788 0-5.62.118-8.416.348-49.516 4.086-88.742 44.636-91.238 94.32-2.316 46.123 27.591 87.612 70.936 100.657a35.969 35.969 0 0 0-7.251 21.641 35.971 35.971 0 0 0 2.483 13.185z"/><path fill="#9CDD8A" d="M149.997 263.599c-65.012 0-117.903-52.891-117.903-117.906 0-65.012 52.891-117.903 117.903-117.903s117.906 52.891 117.906 117.903c0 65.015-52.891 117.906-117.906 117.906zm0-233.083c-63.508 0-115.177 51.669-115.177 115.177 0 63.511 51.669 115.177 115.177 115.177 63.511 0 115.177-51.669 115.177-115.177.003-63.508-51.666-115.177-115.177-115.177z"/><path fill="#414444" d="M78.07 36.393h141.801a8.421 8.421 0 0 1 8.422 8.422v177.236a8.421 8.421 0 0 1-8.422 8.422H78.07a8.421 8.421 0 0 1-8.422-8.422V44.815c.003-4.652 3.773-8.422 8.422-8.422z"/><path fill="#686B6B" d="M77.203 45.782v175.304h143.535V45.782H77.203z"/><path fill="#363838" d="M77.203 45.782h143.535v175.304H77.203z"/><path fill="#626868" d="M226.081 39.145l-1.564 1.944H73.427l-1.564-1.944c1.369-1.699 3.257-2.749 5.342-2.749H220.74c2.084 0 3.972 1.05 5.341 2.749zm2.212 6.637v175.304c0 2.59-.847 4.938-2.212 6.637l-1.564-1.944V41.089l1.564-1.944c1.365 1.699 2.212 4.047 2.212 6.637zm-3.776 179.998H73.427l3.776-4.694h143.535z"/><path fill="#626868" d="M77.203 45.782v175.304l-3.776 4.694V41.089z"/><g fill="#323333"><path d="M177.895 111.606v-8.298a7.096 7.096 0 0 0-2.097-5.059l-21.55-21.553c-.54-.54-.54-1.481 0-2.024l1.879-1.879a1.433 1.433 0 0 1 2.024 0l35.975 35.975h25.851a1.43 1.43 0 1 0 0-2.862h-24.668l-35.135-35.137a4.3 4.3 0 0 0-6.071 0l-1.879 1.879c-.811.811-1.257 1.888-1.257 3.036s.445 2.224 1.257 3.036l21.55 21.553a4.263 4.263 0 0 1 1.257 3.036v8.298a4.295 4.295 0 0 1-4.289 4.292h-7.906a4.254 4.254 0 0 1-3.027-1.254l-13.251-13.251a5.307 5.307 0 0 0 .602-2.451c0-2.947-2.398-5.345-5.345-5.345s-5.345 2.398-5.345 5.345 2.398 5.345 5.345 5.345a5.292 5.292 0 0 0 2.791-.797l13.184 13.175a7.099 7.099 0 0 0 5.05 2.094h7.906c3.94-.001 7.149-3.21 7.149-7.154zm-38.562-12.671c0-1.369 1.112-2.481 2.481-2.481s2.481 1.112 2.481 2.481-1.112 2.481-2.481 2.481a2.484 2.484 0 0 1-2.481-2.481z"/><path d="M159.826 105.836c0 2.947 2.398 5.345 5.345 5.345s5.345-2.398 5.345-5.345-2.398-5.345-5.345-5.345c-.953 0-1.85.254-2.626.696L140.078 78.72a4.3 4.3 0 0 1 0-6.071L154.1 58.627c.811-.811 1.888-1.257 3.036-1.257s2.224.445 3.036 1.257l38.66 38.66h21.143a1.43 1.43 0 1 0 0-2.862h-19.957l-37.819-37.822a7.107 7.107 0 0 0-5.059-2.094 7.105 7.105 0 0 0-5.059 2.094L138.06 70.624c-1.395 1.395-2.092 3.227-2.092 5.059s.696 3.664 2.092 5.059l22.467 22.467a5.274 5.274 0 0 0-.701 2.627zm7.827 0c0 1.369-1.112 2.481-2.481 2.481s-2.481-1.112-2.481-2.481 1.112-2.481 2.481-2.481a2.483 2.483 0 0 1 2.481 2.481zm.383 32.618c0-.761-.162-1.487-.451-2.142l17.134-17.134a1.422 1.422 0 0 1 1.012-.419h34.244a1.43 1.43 0 1 0 0-2.862h-34.241a4.26 4.26 0 0 0-3.036 1.257l-16.933 16.933a5.302 5.302 0 0 0-3.071-.976c-2.947 0-5.345 2.398-5.345 5.345s2.398 5.345 5.345 5.345a5.352 5.352 0 0 0 5.342-5.347zm-7.823 0c0-1.369 1.112-2.481 2.481-2.481s2.481 1.112 2.481 2.481-1.112 2.481-2.481 2.481-2.481-1.113-2.481-2.481z"/><path d="M128.784 158.8h32.385a4.26 4.26 0 0 0 3.036-1.257l21.152-21.152a1.422 1.422 0 0 1 1.012-.419h33.612a1.43 1.43 0 1 0 0-2.862h-33.615a4.26 4.26 0 0 0-3.036 1.257l-21.152 21.152a1.417 1.417 0 0 1-1.012.419h-32.382a5.348 5.348 0 0 0-5.145-3.912c-2.947 0-5.345 2.398-5.345 5.345s2.398 5.345 5.345 5.345a5.36 5.36 0 0 0 5.145-3.916zm-7.626-1.431c0-1.369 1.112-2.481 2.481-2.481s2.481 1.112 2.481 2.481-1.112 2.481-2.481 2.481-2.481-1.112-2.481-2.481z"/></g><g fill="#5A5E5E"><path d="M73.427 41.089V225.78l-1.564 1.944c-1.366-1.699-2.212-4.047-2.212-6.638V45.782c0-2.59.847-4.938 2.212-6.637l1.564 1.944z"/><path d="M226.081 227.724c-1.369 1.699-3.257 2.749-5.339 2.749H77.203c-2.086 0-3.974-1.05-5.342-2.749l1.563-1.944h151.093l1.564 1.944zm-1.564-186.635V225.78l-3.779-4.694V45.782z"/><path d="M224.517 41.089l-3.779 4.693H77.203l-3.776-4.693z"/></g><path fill="#F8FFF9" d="M148.451 119.963v11.021a1.88 1.88 0 0 1-1.13 1.723l-42.923 18.6a1.879 1.879 0 0 1-2.625-1.723v-11.821c0-.782.484-1.481 1.212-1.755l27.83-10.529-27.83-10.537a1.88 1.88 0 0 1-1.212-1.755v-11.821a1.878 1.878 0 0 1 2.625-1.723l42.923 18.6c.688.295 1.13.971 1.13 1.72z"/><circle fill="#74C661" cx="149.997" cy="260.359" r="37.14"/><path fill="#479630" d="M156.189 260.088a1.476 1.476 0 0 1-.729 1.053c-.389.251-.729.378-1.074.501-.735.254-1.504.507-2.322.799-.861.295-1.634.587-2.322.799-.858.295-1.676.546-2.451.841a7.254 7.254 0 0 0-1.631.968c-.463.422-.87.903-1.204 1.431-.345.587-.56 1.345-.56 2.23 0 1.77.431 3.115 1.292 3.956.858.885 2.451 1.304 4.814 1.304 2.407 0 4.042-.463 4.906-1.389.858-.926 1.286-2.23 1.286-3.912l-.005-8.581zm-6.192-18.647c4.216 0 7.31.799 9.287 2.443 1.979 1.602 2.968 3.661 2.968 6.101v20.795c0 .841-.171 1.767-.469 2.776-.304 1.012-.903 1.938-1.85 2.776-.903.844-2.148 1.561-3.741 2.106-1.59.546-3.655.841-6.192.841-2.534 0-4.599-.295-6.189-.841s-2.838-1.263-3.741-2.106a6.762 6.762 0 0 1-1.85-2.776c-.304-1.006-.475-1.932-.475-2.773v-3.325c0-1.77.472-3.41 1.419-4.844.947-1.472 2.277-2.481 3.997-3.112.858-.295 1.85-.587 2.965-.968 1.118-.381 2.148-.761 3.183-1.094a55.62 55.62 0 0 0 2.708-.974 18.08 18.08 0 0 1 1.419-.501l.773-.378c.304-.168.602-.422.903-.758.301-.333.558-.714.773-1.136.23-.457.348-.962.345-1.472v-1.348c.003-.493-.1-.982-.304-1.434-.171-.507-.513-.968-.988-1.389-.472-.422-1.118-.758-1.891-1.012-.773-.248-1.802-.378-2.968-.378-2.407 0-3.997.466-4.859 1.431-.729.844-1.159 1.894-1.245 3.071 0 .254-.215.422-.475.422l-5.242.086a.472.472 0 0 1-.475-.466v-1.215c0-1.183.218-2.274.69-3.328.475-1.053 1.207-1.935 2.192-2.696.988-.755 2.28-1.386 3.826-1.808 1.505-.507 3.354-.717 5.502-.717h.003v.001h.001z"/><path fill="#F8FFF9" d="M150.33 152.443h43.961c1.038 0 1.876.841 1.876 1.876v11.183a1.875 1.875 0 0 1-1.876 1.876H150.33a1.875 1.875 0 0 1-1.876-1.876v-11.183a1.873 1.873 0 0 1 1.876-1.876z"/></svg>