<svg version="1" xmlns="http://www.w3.org/2000/svg" viewBox="0 0 300 300"><path fill="#FFF" d="M293.196 145.699c0 67.287-46.645 123.876-109.306 139.146a143.163 143.163 0 0 1-33.893 4.044c-11.67 0-23.013-1.398-33.884-4.044C53.458 269.584 6.804 212.985 6.804 145.699 6.804 66.733 71.037 2.5 149.994 2.5c78.969 0 143.202 64.233 143.202 143.199z"/><circle fill="#D8AC55" cx="149.997" cy="145.696" r="134.107"/><path fill="#FFD773" d="M116.512 275.434c-59.283-15.24-101.911-69.826-101.091-132.175.454-34.45 14.048-67.127 38.276-92.01 24.234-24.886 56.534-39.329 90.949-40.669 1.779-.068 3.578-.103 5.351-.103 74.213 0 134.588 60.375 134.588 134.588 0 32.367-11.706 63.67-32.96 88.143-18.036 20.768-41.869 35.459-68.139 42.223a35.918 35.918 0 0 0 2.478-13.181 35.972 35.972 0 0 0-7.245-21.638c41.757-12.508 71.06-51.115 71.06-95.548 0-55.02-44.76-99.781-99.781-99.781-2.788 0-5.62.118-8.416.348-49.516 4.086-88.742 44.636-91.238 94.32-2.316 46.123 27.591 87.612 70.936 100.657a35.969 35.969 0 0 0-7.251 21.641 35.971 35.971 0 0 0 2.483 13.185z"/><path fill="#FFE5AB" d="M149.997 263.599c-65.012 0-117.903-52.891-117.903-117.906 0-65.012 52.891-117.903 117.903-117.903s117.906 52.891 117.906 117.903c0 65.015-52.891 117.906-117.906 117.906zm0-233.083c-63.508 0-115.177 51.669-115.177 115.177 0 63.511 51.669 115.177 115.177 115.177 63.511 0 115.177-51.669 115.177-115.177.003-63.508-51.666-115.177-115.177-115.177z"/><path fill="#E5E5E5" d="M214.894 75.005a2.952 2.952 0 0 1-2.95-2.95V61.134a2.952 2.952 0 0 1 2.95-2.95 2.952 2.952 0 0 1 2.95 2.95v10.921a2.95 2.95 0 0 1-2.95 2.95zM85.1 80.896a2.952 2.952 0 0 1-2.95-2.95V61.131a2.952 2.952 0 0 1 2.95-2.95 2.952 2.952 0 0 1 2.95 2.95v16.815a2.947 2.947 0 0 1-2.95 2.95zm0 24.636a2.952 2.952 0 0 1-2.95-2.95V85.767a2.952 2.952 0 0 1 2.95-2.95 2.952 2.952 0 0 1 2.95 2.95v16.815a2.95 2.95 0 0 1-2.95 2.95z"/><path fill="#F4F4F4" d="M198.501 237.83h-97.005c-9.054 0-16.396-7.34-16.396-16.396V44.785c0-9.054 7.34-16.396 16.396-16.396h97.005c9.054 0 16.396 7.34 16.396 16.396v176.649c-.003 9.057-7.342 16.396-16.396 16.396z"/><path fill="#474949" d="M93.979 212.44V51.06a2.952 2.952 0 0 1 2.95-2.95h106.138a2.952 2.952 0 0 1 2.95 2.95v161.38a2.952 2.952 0 0 1-2.95 2.95H96.929a2.952 2.952 0 0 1-2.95-2.95z"/><path fill="#D1CFCB" d="M161.797 41.201h-23.6a2.952 2.952 0 0 1-2.95-2.95 2.952 2.952 0 0 1 2.95-2.95h23.6a2.95 2.95 0 1 1 0 5.9z"/><circle fill="#D1CFCB" cx="171.458" cy="38.251" r="2.95"/><path fill="#434444" d="M176.317 176.47a3.871 3.871 0 0 0-2.761-1.142h-27.727a3.908 3.908 0 0 1-2.761-1.142l-5.337-5.345a3.903 3.903 0 0 1 0-5.516l5.089-5.089a3.84 3.84 0 0 1 2.752-1.142h17.045a4.874 4.874 0 0 0 1.195 1.971 4.877 4.877 0 0 0 6.879-.009c1.897-1.888 1.897-4.971 0-6.871a4.869 4.869 0 0 0-6.879 0 4.86 4.86 0 0 0-1.283 2.307h-16.957a6.495 6.495 0 0 0-4.599 1.897l-5.089 5.089a6.511 6.511 0 0 0 0 9.204l5.337 5.337a6.471 6.471 0 0 0 4.605 1.906h27.727c.696 0 1.301.605 1.301 1.301v2.422c0 .714-.578 1.301-1.301 1.301h-46.285L95.32 214.906a2.924 2.924 0 0 0 1.614.481h1.587l29.827-29.83h45.209a3.915 3.915 0 0 0 3.912-3.903v-2.422a3.89 3.89 0 0 0-1.152-2.762zm-10.664-22.446a2.269 2.269 0 0 1 3.189 0c.882.882.882 2.316 0 3.198s-2.307.882-3.189 0a2.263 2.263 0 0 1 0-3.198z"/><path fill="#434444" d="M185.966 166.821a6.467 6.467 0 0 0-4.596-1.906h-28.904a4.86 4.86 0 0 0-8.119-2.139 4.869 4.869 0 0 0 0 6.879 4.86 4.86 0 0 0 8.119-2.139h28.904a3.915 3.915 0 0 1 3.912 3.903l-.009 18.042a3.85 3.85 0 0 1-1.142 2.761c-.74.74-1.72 1.15-2.761 1.15h-49.746l-22.016 22.016h3.688l19.405-19.414h48.666a6.484 6.484 0 0 0 4.605-1.906 6.463 6.463 0 0 0 1.906-4.605v-18.048a6.423 6.423 0 0 0-1.912-4.594zm-36.583.988c-.882.882-2.316.882-3.198 0s-.882-2.307 0-3.189 2.316-.882 3.198 0a2.267 2.267 0 0 1 0 3.189zm-17.552-27.612a4.869 4.869 0 0 0-6.879 0 4.869 4.869 0 0 0 0 6.879c.49.49 1.059.847 1.676 1.089v22.042c0 .348-.142.676-.384.917l-32.261 32.261v3.679l34.099-34.099c.74-.74 1.15-1.72 1.15-2.761v-21.786a4.897 4.897 0 0 0 2.602-1.345 4.868 4.868 0 0 0-.003-6.876zm-1.847 5.033c-.882.882-2.307.882-3.189 0s-.882-2.316 0-3.189a2.252 2.252 0 0 1 3.189 0 2.247 2.247 0 0 1 0 3.189z"/><path fill="#434444" d="M144.784 102.9a4.869 4.869 0 0 0-6.879 0 4.87 4.87 0 0 0-.785 5.826l-20.842 20.83a3.872 3.872 0 0 0-1.139 2.761v27.22c0 .348-.133.676-.384.917l-20.777 20.777v3.679l22.621-22.615a3.875 3.875 0 0 0 1.142-2.761v-27.22c0-.348.133-.67.384-.917l20.83-20.83c1.853 1.041 4.251.785 5.826-.794a4.853 4.853 0 0 0 .003-6.873zm-1.834 5.033a2.267 2.267 0 0 1-3.201 0c-.882-.882-.882-2.307 0-3.189s2.316-.882 3.201 0a2.269 2.269 0 0 1 0 3.189z"/><circle fill="#F4C867" cx="149.997" cy="260.359" r="37.14"/><path fill="#D8AC55" d="M156.189 260.088a1.476 1.476 0 0 1-.729 1.053c-.389.251-.729.378-1.074.501-.735.254-1.504.507-2.322.799-.861.295-1.634.587-2.322.799-.858.295-1.676.546-2.451.841a7.254 7.254 0 0 0-1.631.968c-.463.422-.87.903-1.204 1.431-.345.587-.56 1.345-.56 2.23 0 1.77.431 3.115 1.292 3.956.858.885 2.451 1.304 4.814 1.304 2.407 0 4.042-.463 4.906-1.389.858-.926 1.286-2.23 1.286-3.912l-.005-8.581zm-6.192-18.647c4.216 0 7.31.799 9.287 2.443 1.979 1.602 2.968 3.661 2.968 6.101v20.795c0 .841-.171 1.767-.469 2.776-.304 1.012-.903 1.938-1.85 2.776-.903.844-2.148 1.561-3.741 2.106-1.59.546-3.655.841-6.192.841-2.534 0-4.599-.295-6.189-.841s-2.838-1.263-3.741-2.106a6.762 6.762 0 0 1-1.85-2.776c-.304-1.006-.475-1.932-.475-2.773v-3.325c0-1.77.472-3.41 1.419-4.844.947-1.472 2.277-2.481 3.997-3.112.858-.295 1.85-.587 2.965-.968 1.118-.381 2.148-.761 3.183-1.094a55.62 55.62 0 0 0 2.708-.974 18.08 18.08 0 0 1 1.419-.501l.773-.378c.304-.168.602-.422.903-.758.301-.333.558-.714.773-1.136.23-.457.348-.962.345-1.472v-1.348c.003-.493-.1-.982-.304-1.434-.171-.507-.513-.968-.988-1.389-.472-.422-1.118-.758-1.891-1.012-.773-.248-1.802-.378-2.968-.378-2.407 0-3.997.466-4.859 1.431-.729.844-1.159 1.894-1.245 3.071 0 .254-.215.422-.475.422l-5.242.086a.472.472 0 0 1-.475-.466v-1.215c0-1.183.218-2.274.69-3.328.475-1.053 1.207-1.935 2.192-2.696.988-.755 2.28-1.386 3.826-1.808 1.505-.507 3.354-.717 5.502-.717h.003v.001h.001z"/></svg>