<svg xmlns="http://www.w3.org/2000/svg" id="Camada_1" version="1.1" viewBox="0 0 50 50"><defs><style>.st1{fill:none;stroke:#444;stroke-linecap:round;stroke-linejoin:round}</style></defs><path fill="#ff6b6b" d="M44.6 4.5H5.4C4.1 4.5 4 8.3 4 9.7l-.2 12.9-.5 10.2 1.2 11.8 11.8.6 30.6-11.4V7.1c0-1.4-1.1-2.6-2.4-2.6z"/><path fill="none" stroke="#444" stroke-linecap="round" stroke-linejoin="round" stroke-width="2.5" d="M32.6 46H6.8c-1.8 0-3.2-1.6-3.2-3.5v-35C3.6 5.6 5 4 6.8 4H44c1.8 0 3.2 1.6 3.2 3.5V36"/><path d="M28.7 11.5v13.7H15c0 7.8 6.6 14.1 14.5 13.7s12.6-6 13-13c.4-7.9-5.9-14.5-13.7-14.5z" class="st1"/><path d="M26.6 21.9V8.2c-3.5 0-6.7 1.3-9.2 3.5l9 10.2h.1zm-15 1.2h13.6l-9-10.2c-2.8 2.5-4.6 6.2-4.6 10.2z" class="st1"/><path fill="none" stroke="#444" stroke-linecap="round" stroke-linejoin="round" stroke-width=".5" d="M9.5 8.5v32.3H42"/><path fill="#444" d="M7.5 10.2l.3.3 1.7-1.8 1.7 1.8.4-.3L9.5 8l-2 2.2zm32.9 32.6l-.4-.3 1.8-1.7-1.8-1.7.4-.4 2.2 2.1-2.2 2z"/></svg>