<svg xmlns="http://www.w3.org/2000/svg" id="Layer_1" x="0" y="0" version="1.1" viewBox="0 0 50 50" xml:space="preserve"><style>.st3{fill:none;stroke:#444;stroke-linecap:round;stroke-linejoin:round;stroke-miterlimit:10}</style><path fill="#35d3c3" d="M29.9 21.1l7.9 2.4-6.7 4.8.1 8.2-6.6-4.9-7.8 2.6 2.7-7.8-4.9-6.5 8.2.1 4.7-6.7z"/><path fill="#7df4eb" d="M45.4 12.5l-5.6-3.6-7.7-4.4-6-2.8c-3.2 0-21.5 8.9-21.5 12.1l-.5 7.8.5 15.1 11.5 7.6 31-11c.8-.5-.7-18.9-1.7-20.8z"/><path fill="none" stroke="#444" stroke-linecap="round" stroke-linejoin="round" stroke-miterlimit="10" stroke-width="2.5" d="M30.6 46.5l-2.2 1.3c-1.7 1-3.8 1-5.5 0l-15.6-9c-1.7-1-2.7-2.8-2.7-4.7v-18c0-2 1-3.8 2.7-4.7l15.6-9c1.7-1 3.8-1 5.5 0l15.6 9c1.7 1 2.7 2.8 2.7 4.7v18c0 2-1 3.8-2.7 4.7l-2.5 1.4"/><path d="M17.1 18.9c0-4.1 5.6-7.3 12.5-7.3S42 14.8 42 18.9s-5.6 7.3-12.5 7.3c-1.1 0-2.8-.1-3.8-.2M22 27.8h3.7" class="st3"/><path d="M42 28.3c0 4.1-5.6 7.3-12.5 7.3-1.4 0-2.5-.1-3.8-.3v-9.4l4.3-7.2-12.9.1v4.3m25-4.4l-.1 9.6" class="st3"/><path d="M17.6 39.2s-6.8-.6-8.4-6.6v-9.5h12.7v9.5l-4.3 6.6z" class="st3"/><path d="M9.2 23.1s1.3 5.4 8.5 7.2l4.2-7.2m-4.3 16.1v-8.9" class="st3"/><path fill="none" stroke="#444" stroke-linecap="round" stroke-linejoin="round" stroke-miterlimit="10" stroke-width=".5" d="M31.7 14.9L27.5 8h-7.3m-.9 25l3.4 8.9h9.7"/></svg>