<svg xmlns="http://www.w3.org/2000/svg" id="Camada_3" data-name="Camada 3" version="1.1" viewBox="0 0 50 50"><defs><style>.cls-1{stroke-width:.5px}.cls-1,.cls-2{stroke:#414141;stroke-miterlimit:10;fill:none}</style></defs><path fill="#a475ef" stroke-width="0" d="M44.1 28.1l1.4-5.1 1-6v-6.3c-3.4 0-14.1-3.8-21.9-9.2l-9.4 7-12.6 3.1.5 6.8 3.5 13.5 4.4 7.4 6.8 5.7 23.9-9.9c.8-.4 2.5-4.7 2.5-7z"/><path fill="none" stroke="#444" stroke-linecap="round" stroke-linejoin="round" stroke-width="2" d="M24.5 48.4c-6.3-2-21.9-10-22-36.7 0 0 13.9-1.8 22-10.1 5.3 3.6 14.8 9.7 21.9 10.1 0 3.3.8 16.2-7.4 26.5"/><circle cx="17.6" cy="13.1" r="1.5" class="cls-2"/><circle cx="13.6" cy="17.2" r="1.5" class="cls-2"/><circle cx="12.5" cy="21.5" r="1.5" class="cls-2"/><circle cx="17.7" cy="18.6" r="1.5" class="cls-2"/><circle cx="32.5" cy="12.8" r="1.5" class="cls-2"/><circle cx="36.8" cy="16.9" r="1.5" class="cls-2"/><circle cx="37" cy="27.5" r="1.5" class="cls-2"/><circle cx="32.8" cy="18.3" r="1.5" class="cls-2"/><path d="M14.4 16l1.8-2m3.1-1.3l11.5-.3m2.9 1.3l2.3 2m.8 2.7L37 26m-5.5-8.9l-1.8-1.2-9.2.2-2.1 1.5" class="cls-1"/><circle cx="31.8" cy="36" r="1.5" class="cls-2"/><circle cx="35.9" cy="31.9" r="1.5" class="cls-2"/><circle cx="31.8" cy="30.5" r="1.5" class="cls-2"/><circle cx="17" cy="36.2" r="1.5" class="cls-2"/><circle cx="12.7" cy="32.2" r="1.5" class="cls-2"/><circle cx="16.7" cy="30.8" r="1.5" class="cls-2"/><path d="M35.1 33l-1.8 2.1m-3.1 1.3l-11.6.2m-2.8-1.2l-2.3-2.1m-.9-2.6l-.1-7.7m5.5 9l1.7 1.2L29 33l2-1.5" class="cls-1"/><path fill="none" stroke="#444" stroke-miterlimit="10" d="M27.1 21.5c0-1.6-1.3-2.9-2.9-2.9s-2.8 1.4-2.7 3"/><path fill="#444" stroke-width="0" d="M27.6 21.5h-6.4c-.7.2-1.2.7-1.2 1.3V28c.1.6.7 1.1 1.4 1.1h6.3c.7-.1 1.3-.7 1.2-1.3v-5.2c-.1-.6-.7-1.1-1.3-1.1zm-2.9 4.1v1.2h-.9v-1.2c-.4-.2-.6-.5-.6-.8 0-.5.4-1 1-1s1 .4 1.1 1-.2.7-.5.9z"/></svg>