<svg xmlns="http://www.w3.org/2000/svg" viewBox="0 0 50 50"><path fill="#dc5e82" d="M5.3 13.8l-3.1 5.4c-2.4 3.5 2.9 9.2 3 9.4l3 2.7-1 8.6 5.5 5.6v.2c.1.2.3.3.6.3l30-10.9c.2-.1.3-.3.3-.5l-.5-4.5V30l2.4-1.4 2.6-5.4c-.1 0 .2-4.9-2.1-6.4l-.7-2.1c.1-.6-1.5-.9-1.9-1.3l-2.1-1.2c-.2-.2-.3-.4-.6-.6l-1-1.5c-.2-.2-1.1-3.8-1.3-4l-6.6-3.3c-.4-.6-6.3 1.8-7 1.8l-3.9-2c-.5 0-4.2-.1-4.6.3L13 5.8c-.4.4-2.8 4.5-2.8 5.1"/><path fill="none" stroke="#444" stroke-linecap="round" stroke-linejoin="round" stroke-miterlimit="10" stroke-width=".5" d="M36.1 29.8c-1.9-1.3-4.9-5.8-5.7-6.4-3-2.8-7-2.9-10-.1-1.8 1.8-2.9 4-4.9 5.8-4.6 4.1-5.2 10.5 1.4 12.3 4.5.9 7.2-3.5 11.8-.9 1.2.6 2.5 1 3.8 1.2 6.4 1 8.3-8.6 3.6-11.9zm-5.4-10.3c1.2 0 2.2-.4 3-1.2 2.1-2 2.6-5.9 1.1-8.4-1.9-3-5.4-3.1-7.3-.1-1.5 2.4-1.5 5-.3 7.5.6 1.5 1.9 2.2 3.5 2.2zm-15.2 2.6c.1-1.3-.4-2.7-1.3-3.9-1.9-2.5-5.3-2.3-6.9.5-1.2 2.1-.9 5.2.8 7.1.8.9 1.7 1.5 2.9 1.5 2.8.1 4.5-1.7 4.5-5.2zm25.2-5.5c-1.8-.4-3.5.4-4.6 2.3-1 1.7-1.2 3.5-.6 5.4.9 3.1 4.4 4 6.8 1.9 1.3-1.2 1.9-2.8 1.9-4.5 0-.3 0-.7-.1-1-.3-2-1.7-3.7-3.4-4.1zm-23.6 1.7c.8.8 1.8 1.2 3 1.2 1.6-.1 2.9-.7 3.6-2.2 1.2-2.5 1.2-5.1-.3-7.5-1.9-3-5.4-3-7.3.1-1.7 2.5-1.2 6.4 1 8.4z"/><path fill="none" stroke="#444" stroke-linecap="round" stroke-linejoin="round" stroke-miterlimit="10" stroke-width="2.5" d="M42.2 41.8c3.3-5.5.2-10.5.2-10.5l3.2-3.1c4.5-4.3 3.5-11.7-2-14.7l-3.3-1.8-.4-2C38.8 4.3 33 1.3 28 3.6l-2.6 1.2-1.1-.8c-4.5-3.3-11-1.3-12.7 4.1l-1.2 3.6-3.9 2c-5.4 2.8-6.3 10-1.9 14.1l3.7 3.4s-5.2 11.7 6.9 14.9c0 0 7.9 1.9 15 .9"/><path fill="#444" d="M20.2 34.4c-.5 0-.9-.4-.9-.9v-2.6c0-.5.4-.9.9-.9s.9.4.9.9v2.6c.1.5-.3.9-.9.9zm3.2 1.1c-.5 0-.9-.4-.9-.9v-4.8c0-.5.4-.9.9-.9s.9.4.9.9v4.8c.1.5-.4.9-.9.9zm3.2 1.1c-.5 0-.9-.4-.9-.9v-7c0-.5.4-.9.9-.9s.9.4.9.9v7c0 .5-.4.9-.9.9zm3.2 1.2c-.5 0-.9-.4-.9-.9v-9.5c0-.5.4-.9.9-.9s.9.4.9.9v9.5c0 .5-.4.9-.9.9z"/></svg>