<svg xmlns="http://www.w3.org/2000/svg" viewBox="0 0 50 50"><defs><style>.cls-2{fill:none;stroke:#444;stroke-linecap:round;stroke-linejoin:round}</style></defs><g id="Camada_1"><g id="Camada_1-2" data-name="Camada_1"><path fill="#ff6b6b" d="M42.7 21.3c-.4-.7 2.4-4.5 1.8-5.1l-1-2.9-5.2.2-2.3-1.7-.7-4.4-2.9-1.2L29 9.1l-4.3-1c0-1.5-1.7-3.1-5-.5-1.3.9-1.4 4.8-2.8 5.6s-3.2-1-4-.5c-1.3.9-2.2 2.1-2.7 3.8-.7 2.1-3.9 1.5-5.5 1.3l-.6 14.8 7 .4-2.2 3.4c.8-.2 3.1 3.2 3.8 3 5.8-1 5.5.5 5 .9l.3 3.5 3.9 2.2 21.5-16.9c.5-.3 4.8.1 3.9-3.4-.6-2.3-3.8-2.8-4.7-4.5h.1z"/><path fill="none" stroke="#444" stroke-linecap="round" stroke-linejoin="round" stroke-width="2.5" d="M42.1 32.6c.4-1.1.5-1.6.9-2.7l4-1.7V24l-4-1.7c-.4-1.1-.5-1.6-.9-2.7l2.2-3.7c-1.2-1.6-1.3-1.8-2.5-3.4l-4.2 1c-.9-.7-1.4-1-2.3-1.7l-.4-4.3c-1.9-.6-2.1-.7-4-1.3l-2.8 3.2h-2.8l-2.8-3.2c-1.9.6-2.1.7-4 1.3l-.4 4.3c-.9.7-1.4 1-2.3 1.7l-4.2-1c-1.2 1.6-1.3 1.8-2.5 3.4l.9 1.5H5c-.7 0-1.3.6-1.3 1.3v13c0 .7.6 1.3 1.3 1.3h6l-1.9 3.2c1.2 1.6 1.3 1.8 2.5 3.4l4.2-1c.9.7 1.4 1 2.3 1.7l.4 4.3c1.9.6 2.1.7 4 1.3l2.8-3.2h2.8"/><path fill="#444" d="M8.6 21.7c.6 0 1.3-.2 2.2-.2s2 .3 2.5.7c.5.4.8 1.1.8 1.9s-.2 1.4-.7 1.9-1.6 1-2.7 1h-.9v3.5H8.7v-8.8h-.1zm1.1 4.2h.9c1.4 0 2.2-.7 2.2-1.9s-.8-1.7-2.1-1.7H9.6v3.6z"/><path d="M28.4 26.7c.6 4.6 1.2 9.2 1.9 13.9 0 0 .1-.2.2-.2.9-1.1 1.8-2.1 2.7-3.2.4-.5.9-.5 1.3 0 1.2 1.8 2.4 3.7 3.6 5.5v.2c.4-.3.8-.5 1.2-.7V42c-1.3-1.8-2.5-3.7-3.7-5.5-.4-.6-.2-1 .5-1.2 1.3-.4 2.7-.8 4-1.1h.3c-4-2.5-7.9-4.9-11.9-7.4h-.2z" class="cls-2"/><rect width="16.1" height="14.5" x="3.7" y="18" class="cls-2" rx="1.9" ry="1.9"/><path d="M26 29.4l-1 .8m.2-3.4l-1.3-.1m2.5-2.3l-.9-1m3.5.2l.1-1.3m2.2 2.6l1-.9" class="cls-2"/></g></g></svg>