<svg xmlns="http://www.w3.org/2000/svg" id="Camada_1" x="0" y="0" version="1.1" viewBox="0 0 50 50" xml:space="preserve"><style>.st2{stroke-width:2.5;stroke-linecap:round;stroke-linejoin:round}.st2,.st3,.st5{fill:none;stroke:#444;stroke-miterlimit:10}.st5{stroke-width:.5}</style><path fill="#04ad49" d="M29.2 19.3l8.1 2.6-7 4.9.1 8.6-6.9-5.1-8 2.7 2.7-8.1-5.1-6.8 8.5.1 5-7.1z"/><path fill="#22dd6d" d="M48.4 20.5c-.2-.8-2.7-7.5-3.2-8.1l-3-3.5-.2.1-7.6-5.8-7.8-.7c-3.2 0-14.5.3-21.4 10.2l-4 10.6-.2.1 4 13.4c.1.4 4.5 5.7 4.9 5.9l5.6 3L47.7 34c.6-.5 1.6-8.7.7-13.5z"/><path d="M32.8 47.4c-7 2.3-15 1.2-21.3-3.6C1.1 36.1-1 21.4 6.8 11" class="st2"/><path d="M6.6 11.2c2-3 4.7-4.7 4.7-4.7L12 6C20.1.3 31.3.1 39.6 6.4 50 14.2 52 28.9 44.3 39.1" class="st2"/><path d="M25.7 40.5c-3.6-1.2-6.1-4.6-6.1-8.6 0-5 4.1-9 9-9s9 4.1 9 9c0 1.7-.5 3.2-1.3 4.6" class="st3"/><g id="XMLID_00000071545928938835848020000004877406053305917105_"><circle id="XMLID_00000132070508515558552460000002188843966192088206_" cx="28.8" cy="29.9" r="2.4" class="st3"/></g><g id="XMLID_00000021094405736693786170000001512315542325305229_"><path id="XMLID_00000088835856209283200120000000377417159494705064_" d="M28.8 32.4c-2.1 0-3.8 1.7-3.8 3.8h7.6c.1-2.1-1.7-3.8-3.8-3.8z" class="st3"/></g><path fill="none" stroke="#444" stroke-linecap="round" stroke-miterlimit="10" d="M22.4 38.7l-4.6 4.5"/><path d="M22.6 25.1h-6.8c-2.8 0-5.1-2.3-5.1-5.1v-5.5c0-2.8 2.3-5.1 5.1-5.1h9.9c2.8 0 5.1 2.3 5.1 5.1v2.2m-16.1 2.5v5.6m2.5-5.6v5.6m2.5-5.6v5.6" class="st5"/><circle cx="25.5" cy="14.6" r="1.7" class="st5"/><circle cx="39.1" cy="19.1" r="1.3" class="st5"/><circle cx="39.1" cy="24" r="1.3" class="st5"/><path d="M40.3 21.4H30.1c-1.4 0-2.5-1.1-2.5-2.5s1.1-2.5 2.5-2.5h10.2c1.4 0 2.5 1.1 2.5 2.5s-1.1 2.5-2.5 2.5zm-12.4 1.5c.4-.8 1.2-1.4 2.2-1.4h10.2c1.4 0 2.5 1.1 2.5 2.5s-1.1 2.5-2.5 2.5h-4.4" class="st5"/></svg>