<svg xmlns="http://www.w3.org/2000/svg" fill="none" viewBox="0 0 119 119"><path fill="#67605B" d="M60.22 56.226c-2.426 0-4.263-.735-5.55-2.205-1.286-1.47-1.947-3.565-1.947-6.284 0-2.72.661-4.814 1.947-6.284 1.287-1.47 3.161-2.205 5.55-2.205s4.226.735 5.549 2.205c1.286 1.47 1.948 3.564 1.948 6.284 0 2.72-.662 4.814-1.948 6.284-1.286 1.47-3.16 2.205-5.55 2.205zm0-2.425c3.087 0 4.63-2.022 4.63-6.1 0-1.985-.404-3.529-1.176-4.521-.771-1.03-1.947-1.544-3.454-1.544-1.507 0-2.683.515-3.455 1.544-.772 1.029-1.176 2.536-1.176 4.52 0 4.08 1.544 6.1 4.63 6.1zm10.327 2.133V39.508h2.646l7.864 11.797V39.507h2.793v16.428h-2.646l-7.864-11.76v11.76h-2.793zm16.719 0V39.508h10.4v2.426h-7.57v4.52h6.946v2.389h-6.946v4.704h7.828v2.389H87.266zM56.761 70.302c-.956 0-1.727-.294-2.242-.918-.514-.588-.772-1.47-.772-2.61 0-1.139.258-1.984.772-2.609.515-.625 1.287-.919 2.242-.919.956 0 1.727.294 2.242.92.514.624.772 1.47.772 2.608 0 1.14-.258 1.985-.772 2.61-.551.624-1.286.918-2.242.918zm0-.771c.698 0 1.213-.22 1.58-.699.368-.477.551-1.139.551-2.058 0-.918-.183-1.58-.55-2.058-.368-.477-.883-.698-1.581-.698-1.433 0-2.132.919-2.132 2.756 0 .92.184 1.58.552 2.058.33.478.882.699 1.58.699zm4.189.665v-4.888h.589l.183.919c.331-.625.772-.92 1.36-.92.11 0 .22 0 .331.038v.735h-.22c-.368 0-.662.11-.883.294-.22.183-.404.477-.477.882v2.94h-.882zm6.317-.002l-.147-.772c-.404.588-.956.883-1.617.883-.478 0-.882-.148-1.176-.405a1.496 1.496 0 01-.441-1.102c0-.515.184-.92.514-1.176.368-.294.846-.441 1.47-.441h1.14v-.294c0-.368-.074-.588-.22-.735-.148-.147-.405-.22-.773-.22-.22 0-.477.036-.771.073-.257.036-.588.147-.919.257v-.698c.22-.11.514-.184.808-.258.294-.073.588-.073.846-.073 1.213 0 1.837.551 1.837 1.654v3.344h-.551v-.037zm-1.69-.551c.294 0 .55-.073.808-.257.257-.184.441-.405.588-.662v-.919h-1.066c-.44 0-.735.074-.955.22-.22.148-.294.405-.294.7 0 .293.073.514.22.66.22.148.441.258.698.258zm7.066-.365v.698c-.405.22-.882.33-1.47.33-.772 0-1.323-.22-1.69-.66-.368-.442-.589-1.103-.589-1.948 0-.809.22-1.397.625-1.838.404-.441.992-.662 1.727-.662.478 0 .882.11 1.287.295v.698a2.387 2.387 0 00-1.14-.294c-1.066 0-1.617.588-1.617 1.8 0 .662.11 1.14.368 1.434.257.294.624.478 1.176.478.22 0 .44-.037.661-.074.147-.073.404-.147.662-.257zm.985.916v-6.358l-.478-.294v-.33h1.323v7.019h-.845v-.037zm5.957-.254c-.184.11-.404.183-.698.257-.294.073-.625.11-.956.11-.772 0-1.36-.22-1.764-.662-.404-.44-.588-1.066-.588-1.947 0-.809.184-1.434.551-1.875.368-.44.919-.624 1.617-.624 1.36 0 2.058.734 2.058 2.241v.552h-3.38c.036.55.183.955.44 1.212.258.258.625.368 1.14.368.294 0 .55-.037.808-.074.257-.073.514-.147.772-.257v.698zm-1.838-4.043c-.404 0-.735.11-.955.367-.22.258-.368.588-.368 1.066h2.573c0-.514-.11-.882-.294-1.102-.184-.221-.515-.331-.956-.331zm5.434 4.295v-6.798h.809l3.638 5.365v-5.365h.846v6.798h-.81l-3.637-5.365v5.365h-.846zm10.481-.252c-.184.11-.405.183-.699.257a4.02 4.02 0 01-.955.11c-.772 0-1.36-.22-1.764-.662-.404-.44-.588-1.066-.588-1.947 0-.809.184-1.434.551-1.875.368-.44.919-.624 1.617-.624 1.36 0 2.058.734 2.058 2.241v.552h-3.38c.036.55.183.955.44 1.212.258.258.625.368 1.14.368.294 0 .55-.037.808-.074.257-.073.514-.147.772-.257v.698zm-1.838-4.043c-.404 0-.735.11-.955.367-.22.258-.368.588-.368 1.066h2.573c0-.514-.11-.882-.294-1.102-.184-.221-.515-.331-.956-.331zm2.529 4.299l1.764-2.499-1.69-2.352h.955l1.25 1.838 1.286-1.838h.845l-1.69 2.352 1.764 2.536h-.956l-1.36-2.022-1.396 2.022h-.772v-.037zm5.699-1.472v-2.72h-.845v-.44l.845-.295.331-1.323h.514v1.36h1.066v.698h-1.066v2.683c0 .551.221.809.699.809h.22c.074 0 .147 0 .184-.037v.735c-.074.037-.184.037-.257.037h-.294c-.478 0-.846-.11-1.066-.368-.184-.257-.331-.625-.331-1.14zM54.007 81.038v-6.8h4.19v.736h-3.308v2.242h3.05v.735h-3.05v2.315h3.418V81h-4.3v.037zm8.931-.003l-.147-.772a1.988 1.988 0 01-.699.662c-.294.147-.588.22-.955.22-.625 0-1.14-.22-1.507-.661-.367-.441-.551-1.066-.551-1.874 0-.809.184-1.434.551-1.875.368-.44.882-.661 1.544-.661.257 0 .55.037.808.147a2.8 2.8 0 01.698.44v-2.645h.846v7.02h-.588zM59.96 78.61c0 .588.11 1.065.33 1.36.221.33.552.477.993.477.294 0 .551-.073.808-.22.258-.147.441-.368.588-.662v-2.168c-.367-.441-.845-.662-1.36-.662-.44 0-.771.147-1.028.478-.22.33-.331.772-.331 1.397zm4.889.553V76.15h.845v2.976c0 .405.074.735.257.956.184.22.441.33.809.33.294 0 .551-.11.845-.293a2.19 2.19 0 00.588-.809v-3.197h.845V81h-.588l-.147-.846c-.183.294-.44.515-.735.699-.294.183-.624.257-.992.257-.551 0-.955-.184-1.25-.515-.33-.294-.477-.771-.477-1.433zm9.003.953v.699c-.404.22-.882.33-1.47.33-.772 0-1.323-.22-1.69-.661-.368-.441-.589-1.103-.589-1.948 0-.808.22-1.396.625-1.837.404-.441.992-.662 1.727-.662.478 0 .882.11 1.287.294v.698a2.387 2.387 0 00-1.14-.294c-1.065 0-1.617.588-1.617 1.801 0 .662.11 1.14.368 1.433.257.294.625.478 1.176.478.22 0 .44-.037.661-.073.184-.074.405-.147.662-.258zm4.073.919l-.147-.772c-.404.588-.955.882-1.617.882-.477 0-.882-.147-1.176-.404a1.496 1.496 0 01-.44-1.103c0-.514.183-.918.514-1.175.367-.294.845-.441 1.47-.441h1.14v-.294c0-.368-.074-.588-.221-.735-.147-.147-.405-.221-.772-.221-.22 0-.478.037-.772.073-.257.037-.588.148-.919.258v-.698c.22-.11.515-.184.809-.258.294-.073.588-.073.845-.073 1.213 0 1.838.551 1.838 1.654v3.344h-.552v-.037zm-1.653-.551c.294 0 .55-.074.808-.257.257-.184.441-.405.588-.662v-.919h-1.066c-.44 0-.735.074-.955.22-.22.148-.294.405-.294.699 0 .294.073.514.22.662.184.147.405.257.699.257zm3.75-.918v-2.72h-.846v-.44l.846-.295.33-1.323h.515v1.36h1.066v.698H80.83v2.683c0 .551.22.809.698.809h.22c.074 0 .148 0 .185-.037v.735c-.074.037-.184.037-.258.037h-.294c-.477 0-.845-.11-1.065-.368-.184-.257-.294-.625-.294-1.14zm3.166 1.471V76.81l-.477-.294v-.33h1.323v4.887h-.846v-.036zm-.22-6.028v-.735h1.029v.772h-1.03v-.037zm4.445 6.136c-.735 0-1.323-.22-1.727-.661-.405-.441-.625-1.066-.625-1.874 0-.809.22-1.434.624-1.875.405-.44.993-.661 1.728-.661s1.323.22 1.727.661c.404.441.625 1.066.625 1.874 0 .809-.22 1.397-.625 1.875-.404.44-.992.661-1.727.661zm0-.698c.478 0 .845-.147 1.102-.478.258-.33.368-.771.368-1.396 0-.625-.11-1.066-.368-1.397-.257-.33-.624-.478-1.102-.478-.478 0-.845.148-1.103.478-.257.331-.367.772-.367 1.397s.11 1.066.367 1.396c.258.331.625.478 1.103.478zm3.417.588v-4.888h.588l.147.846c.22-.294.44-.515.771-.699a1.958 1.958 0 011.03-.257c.55 0 .992.184 1.286.515.294.33.44.808.44 1.47v3.013h-.845v-2.977c0-.845-.367-1.286-1.102-1.286-.294 0-.588.11-.845.294-.258.184-.441.441-.588.772v3.197h-.882z"/><path fill="#81A378" d="M37.323 64.682C32.913 65.27 17 64.315 17 64.315l1.066-6.615c0-.074.073-.147.147-.184.514-.11 2.682-.551 8.526-.551 5.733 0 12.605.404 14.774.55.404.038.698.148.698.552v2.168c.037 2.463.44 3.712-4.888 4.447z"/><path fill="#82B1B4" d="M42.616 54.83c-.037.074-.11.11-.22.11-.81.148-5.403.883-9.997.442-4.079-.404-6.946-.478-7.901-.478-.184 0-.33-.184-.33-.368l.256-4.336c.11-1.47 2.352-2.573 3.823-2.646l14.994-.625c.147 0 .294.074.33.22.147.405.441 1.324.478 3.014.074 2.573-1.102 4.263-1.433 4.668z"/><path fill="#DA8A40" d="M43.162 45.093l-10.547.551c-1.14.11-2.095-1.102-1.911-2.425L31.439 38h10.878c1.8.037.845 7.093.845 7.093z"/><rect width="117" height="117" x="1" y="1" stroke="#DA8A40" stroke-width=".5" rx="58.5"/></svg>