<?xml version="1.0" encoding="utf-8"?>
<!-- Generator: Adobe Illustrator 24.3.0, SVG Export Plug-In . SVG Version: 6.00 Build 0)  -->
<svg version="1.1" id="Layer_1" xmlns="http://www.w3.org/2000/svg" xmlns:xlink="http://www.w3.org/1999/xlink" x="0px" y="0px"
	 viewBox="0 0 300 300" style="enable-background:new 0 0 300 300;" xml:space="preserve">
<style type="text/css">
	.st0{fill:#E8E8E8;}
	.st1{fill:#D5D5D5;}
	.st2{fill:#424242;}
	.st3{fill:#383838;}
	.st4{fill:#303030;}
	.st5{fill:#D3464E;}
	.st6{fill:#C63442;}
	.st7{fill:#2E3544;}
	.st8{fill:#E8EBF0;}
	.st9{fill:#174569;}
	.st10{fill:#D8DBE1;}
	.st11{fill:#FFA200;}
	.st12{fill:#F9CE62;}
	.st13{fill:#FBE4A0;}
	.st14{fill:#BFC2C8;}
</style>
<path class="st0" d="M283.7,165.2L236,212.9l-70.8,70.8c-0.9,0.9-2,1.8-3.1,2.5c-8.4,5.7-19.9,4.9-27.3-2.5l-2.5-2.5l-72.1-72.1
	l-43.9-43.9c-8.4-8.4-8.4-22,0-30.4L134.8,16.3c8.4-8.4,22-8.4,30.4,0l118.5,118.5C292.1,143.2,292.1,156.8,283.7,165.2"/>
<path class="st1" d="M244.2,219.7c4.2-64.4,6.6-111.8,6.1-117.3c-0.3-3.7-2.1-6.4-2.1-6.4c-1.7-2.6-4-3.9-5.1-4.5c-3-1.7-6-2-7.6-2
	c-2.4-0.1-4.8-0.2-7.1-0.3c0.4-8.1,0.8-16.1,1.3-24.2c0-0.7,0.4-7.1-4.1-10.4c-1.2-0.9-2.4-1.3-3.5-1.6c-0.4,1.5-0.8,3-1.2,4.5
	c-8.3-0.5-126.5-6.9-129.6-6.8c-1.7,0.1-2.7,1-2.7,1c-0.7,0.6-1.2,1.6-1.2,2.6l-0.6,11.3l-1.1,20.6l-15-0.8c-4.1-0.2-7.7,3-7.9,7.1
	l-6.4,121.9l71.7,3.7l-98-5.1c-1.5,1.8-3.1,3.5-4.6,5.3c1.1,1.8,3.5,5.5,8.2,8c2.7,1.4,5.1,2,6.9,2.3l217.6,11.3
	c3.6,0.2,11.4-2.4,11.6-6l0.4-8.4c-1.5-1.6-3.1-3.2-4.6-4.9C258.5,220.5,251.4,220.1,244.2,219.7z"/>
<g>
	<g>
		<path class="st2" d="M253.6,235.2L36.1,223.9c-3.6-0.2-11.1-3.5-10.9-7.2l0.4-8.4l240.1,12.5l-0.4,8.4
			C265,232.9,257.2,235.4,253.6,235.2z"/>
		<path class="st3" d="M265.2,229.3c-0.2,3.6-8,6.2-11.6,6L36.1,223.9c-3.6-0.2-11.1-3.5-10.9-7.2L265.2,229.3z"/>
		<path class="st4" d="M161.7,221.1l-32.8-1.7c-3.1-0.2-5.5-2.8-5.3-5.9l0,0l44.1,2.3l0,0C167.5,218.8,164.8,221.2,161.7,221.1z"/>
		<path class="st4" d="M239.4,219.5l-187.5-9.8l6.4-121.9c0.2-4.1,3.7-7.3,7.9-7.1l172.5,9c4.1,0.2,7.3,3.7,7.1,7.9L239.4,219.5z"/>
		
			<rect x="91.7" y="63.5" transform="matrix(5.207052e-02 -0.9986 0.9986 5.207052e-02 -8.4371 290.8531)" class="st5" width="114.6" height="172.8"/>
	</g>
	<g>
		<path class="st6" d="M223.2,96.4l-4,76.9c-0.1,2.1-1.9,3.7-3.9,3.6L84,170l-0.2,3.8c-0.1,2.1,1.5,3.8,3.6,3.9l135,7
			c2.1,0.1,3.8-1.5,3.9-3.6l4.4-84.4L223.2,96.4z"/>
		
			<rect x="223.4" y="89.1" transform="matrix(5.207052e-02 -0.9986 0.9986 5.207052e-02 122.6495 314.8726)" class="st7" width="7.5" height="7.5"/>
	</g>
	<g>
		<path class="st8" d="M215.3,176.8l-135-7c-2.1-0.1-3.7-1.9-3.6-3.9l6.1-116.3c0.1-2.1,1.9-3.7,3.9-3.6l135,7
			c2.1,0.1,3.7,1.9,3.6,3.9l-6.1,116.3C219.1,175.4,217.4,176.9,215.3,176.8z"/>
		<path class="st9" d="M224.7,68.3L82.2,60.8l0.6-11.3c0.1-2.1,1.9-3.7,3.9-3.6l135,7c2.1,0.1,3.7,1.9,3.6,3.9L224.7,68.3z"/>
		<g>
			
				<rect x="176" y="51.8" transform="matrix(5.207052e-02 -0.9986 0.9986 5.207052e-02 85.9885 256.064)" class="st10" width="3.8" height="62"/>
			
				<rect x="175.5" y="61.1" transform="matrix(5.207052e-02 -0.9986 0.9986 5.207052e-02 76.1606 264.4646)" class="st10" width="3.8" height="62"/>
			
				<rect x="175" y="70.5" transform="matrix(5.207052e-02 -0.9986 0.9986 5.207052e-02 66.3326 272.8652)" class="st10" width="3.8" height="62"/>
			
				<rect x="174.5" y="79.9" transform="matrix(5.207052e-02 -0.9986 0.9986 5.207052e-02 56.5047 281.2659)" class="st10" width="3.8" height="62"/>
		</g>
		
			<rect x="101.2" y="72.1" transform="matrix(5.207052e-02 -0.9986 0.9986 5.207052e-02 17.4826 205.7661)" class="st10" width="31.9" height="43.2"/>
		<g>
			
				<rect x="173.6" y="98.6" transform="matrix(5.207052e-02 -0.9986 0.9986 5.207052e-02 36.8488 298.0671)" class="st10" width="3.8" height="62"/>
			
				<rect x="173.1" y="108" transform="matrix(5.207052e-02 -0.9986 0.9986 5.207052e-02 27.0209 306.4677)" class="st10" width="3.8" height="62"/>
			
				<rect x="172.6" y="117.4" transform="matrix(5.207052e-02 -0.9986 0.9986 5.207052e-02 17.193 314.8684)" class="st10" width="3.8" height="62"/>
			
				<rect x="172.1" y="126.8" transform="matrix(5.207052e-02 -0.9986 0.9986 5.207052e-02 7.365 323.269)" class="st10" width="3.8" height="62"/>
		</g>
		
			<rect x="98.7" y="119" transform="matrix(5.207052e-02 -0.9986 0.9986 5.207052e-02 -31.6571 247.7693)" class="st10" width="31.9" height="43.2"/>
		<circle class="st11" cx="93.8" cy="53.9" r="3.8"/>
		<circle class="st12" cx="105.1" cy="54.5" r="3.8"/>
		<circle class="st13" cx="116.3" cy="55.1" r="3.8"/>
	</g>
	<g>
		<polygon class="st14" points="180,169 166.1,153.6 174,148.9 151.3,141.5 156.3,164.8 161.8,157.5 175.7,172.9 		"/>
		
			<rect x="144.4" y="120" transform="matrix(0.9426 -0.334 0.334 0.9426 -33.3106 55.7146)" class="st14" width="1.9" height="9.4"/>
		
			<rect x="134.3" y="129.2" transform="matrix(0.4303 -0.9027 0.9027 0.4303 -43.8012 198.3064)" class="st14" width="1.9" height="9.4"/>
		
			<rect x="129.8" y="146.6" transform="matrix(0.9426 -0.334 0.334 0.9426 -41.5342 53.3815)" class="st14" width="9.4" height="1.9"/>
		
			<rect x="163.4" y="134.6" transform="matrix(0.9426 -0.334 0.334 0.9426 -35.6242 63.9336)" class="st14" width="9.4" height="1.9"/>
		
			<rect x="138.9" y="156.7" transform="matrix(0.4302 -0.9027 0.9027 0.4302 -60.4612 219.4821)" class="st14" width="9.4" height="1.9"/>
		
			<rect x="154.3" y="124.5" transform="matrix(0.4302 -0.9027 0.9027 0.4302 -22.6377 214.9837)" class="st14" width="9.4" height="1.9"/>
	</g>
	<g>
		<polygon class="st9" points="178.2,167.1 164.3,151.6 172.2,146.9 149.5,139.6 154.5,162.9 160,155.5 173.9,170.9 		"/>
		<rect x="142.6" y="118" transform="matrix(0.9426 -0.334 0.334 0.9426 -32.7536 55.0075)" class="st9" width="1.9" height="9.4"/>
		
			<rect x="132.5" y="127.2" transform="matrix(0.4303 -0.9027 0.9027 0.4303 -43.0327 195.5775)" class="st9" width="1.9" height="9.4"/>
		<rect x="128" y="144.6" transform="matrix(0.9426 -0.334 0.334 0.9426 -40.9773 52.6745)" class="st9" width="9.4" height="1.9"/>
		
			<rect x="161.6" y="132.7" transform="matrix(0.9426 -0.334 0.334 0.9426 -35.0673 63.2265)" class="st9" width="9.4" height="1.9"/>
		
			<rect x="137.2" y="154.7" transform="matrix(0.4302 -0.9027 0.9027 0.4302 -59.6928 216.7529)" class="st9" width="9.4" height="1.9"/>
		
			<rect x="152.5" y="122.5" transform="matrix(0.4302 -0.9027 0.9027 0.4302 -21.8693 212.2546)" class="st9" width="9.4" height="1.9"/>
	</g>
</g>
</svg>
