<svg version="1" xmlns="http://www.w3.org/2000/svg" viewBox="0 0 300 300"><path fill="#E8E8E8" d="M283.704 165.195l-71.702 71.702-13.674 13.674-26.379 26.379-5.04 5.04-1.717 1.717c-8.391 8.391-21.993 8.391-30.384 0l-14.097-14.097-8.727-8.726-49.786-49.787-45.901-45.901c-8.391-8.391-8.391-21.999 0-30.39l87.418-87.417 3.219-3.219 21.487-21.487 6.388-6.388c8.391-8.392 21.993-8.392 30.384 0l22.191 22.191 61.347 61.347 34.973 34.974c8.391 8.389 8.391 21.997 0 30.388"/><path fill="#D5D5D5" d="M112.892 261.791l7.819 7.818 46.199 12.381 4.516-4.515-58.534-15.684M240.914 92.015l-42.448 158.419 13.536-13.536 36.729-137.066-7.817-7.817"/><path fill="#E5E5E5" d="M227.97 95.836l-48.092 179.483a4.27 4.27 0 0 1-5.231 3.02L56.725 246.741a4.271 4.271 0 0 1-3.02-5.231l48.092-179.483a4.271 4.271 0 0 1 5.231-3.02L224.95 90.605a4.27 4.27 0 0 1 3.02 5.231"/><path fill="#EDEDED" d="M236.475 79.609l-51.049 190.518a4.534 4.534 0 0 1-5.552 3.206l-125.173-33.54a4.535 4.535 0 0 1-3.206-5.553l51.049-190.518a4.534 4.534 0 0 1 5.552-3.206l125.173 33.54a4.535 4.535 0 0 1 3.206 5.553"/><path fill="#F4F4F4" d="M250.841 54.965l-56.57 211.123a5.024 5.024 0 0 1-6.153 3.553l-138.71-37.167a5.024 5.024 0 0 1-3.552-6.153l56.57-211.123a5.025 5.025 0 0 1 6.153-3.553l138.71 37.168a5.022 5.022 0 0 1 3.552 6.152"/><path fill="#EDEDED" d="M128.645 236.184c-.157.278-.577.959-1.258 2.041l1.336.358c-.047-1.198-.073-1.875-.078-2.032s-.004-.278 0-.367z"/><path fill="#EDEDED" d="M163.553 246.675l-27.281-7.311a5.884 5.884 0 0 0-4.305-6.469l-15.56-4.169a5.883 5.883 0 0 0-6.963 3.45l-27.281-7.31a.62.62 0 1 0-.32 1.196l27.253 7.303a5.884 5.884 0 0 0 4.264 6.732l15.56 4.17a5.884 5.884 0 0 0 7.059-3.698l27.254 7.303a.618.618 0 0 0 .758-.438.618.618 0 0 0-.438-.759zm-46.629-8.968l-1.185-.317-.365-5.592 1.097.294.147 3.309c.006.195.005.419-.002.674a7.378 7.378 0 0 1-.027.529c.083-.209.272-.561.565-1.059l1.789-2.791 1.098.294-3.117 4.659zm3.475.931l-1.087-.292 1.374-5.126 1.087.291-1.374 5.127zm3.905.694c-.404.177-.904.186-1.497.027-.547-.147-1.003-.38-1.369-.698l.271-1.01c.304.247.568.434.791.562.223.127.433.217.632.27.239.064.434.068.585.01.152-.057.252-.176.3-.356.027-.101.023-.198-.012-.291s-.097-.19-.187-.292a6.71 6.71 0 0 0-.572-.525c-.274-.231-.471-.436-.591-.613-.12-.178-.203-.369-.248-.574s-.036-.428.029-.668c.122-.453.371-.769.747-.946.377-.177.837-.193 1.379-.048.266.072.512.171.737.299.225.129.454.285.688.47l-.577.751a5.09 5.09 0 0 0-.616-.417 2.262 2.262 0 0 0-.51-.208c-.206-.055-.376-.049-.512.017a.49.49 0 0 0-.265.331.47.47 0 0 0 0 .268.75.75 0 0 0 .156.264c.079.093.277.274.593.544.418.358.685.675.801.953.116.278.129.584.04.918-.124.464-.388.784-.793.962zm4.479 1.553l-.045-1.32-1.869-.5-.699 1.12-1.17-.314 3.188-4.662 1.329.356.437 5.634-1.171-.314z"/><path fill="#D3464E" d="M73.229 193.579c-.773 2.885.742 5.988 3.578 6.925a5.58 5.58 0 0 0 6.478-2.322 5.578 5.578 0 0 0 10.293 2.758 5.577 5.577 0 0 0 10.293 2.758 5.577 5.577 0 0 0 10.294 2.758 5.58 5.58 0 0 0 10.294 2.758 5.577 5.577 0 0 0 10.293 2.758 5.577 5.577 0 0 0 10.293 2.758 5.58 5.58 0 0 0 10.294 2.758 5.577 5.577 0 0 0 10.294 2.758 5.578 5.578 0 0 0 10.293 2.758 5.577 5.577 0 0 0 4.449 5.249c2.925.608 5.788-1.322 6.561-4.208l40.359-150.62a6.195 6.195 0 0 0-4.381-7.588l-101.737-27.26a6.196 6.196 0 0 0-7.588 4.381l-40.36 150.621"/><path fill="#FFF" d="M220.59 74.505l-25.7 95.913a3.014 3.014 0 0 1-3.692 2.131l-95.913-25.7a3.014 3.014 0 0 1-2.131-3.692l25.7-95.913a3.014 3.014 0 0 1 3.692-2.131l95.913 25.7a3.014 3.014 0 0 1 2.131 3.692z"/><path fill="#F4EAEB" d="M192.169 172.809l-19.41-5.201 27.26-101.737 19.411 5.201a2.013 2.013 0 0 1 1.418 2.47l-26.215 97.837a2.013 2.013 0 0 1-2.464 1.43z"/><path fill="#EAD6D9" d="M185.89 166.042l.33-1.232 4.218 1.13-.33 1.23zM187.228 160.992l.33-1.233 4.217 1.13-.33 1.233zM187.903 158.466l.33-1.232 4.218 1.13-.33 1.233zM188.562 155.95l.33-1.233 4.217 1.13-.33 1.232zM190.61 148.368l.33-1.232 4.217 1.13-.33 1.232zM191.287 145.843l.33-1.232 4.217 1.13-.33 1.233zM191.945 143.327l.33-1.233 4.218 1.13-.33 1.233zM192.622 140.802l.33-1.232 4.217 1.13-.33 1.232zM194.652 133.228l.33-1.233 4.217 1.13-.33 1.233zM195.327 130.704l.33-1.232 4.218 1.13-.33 1.232zM196.022 128.17l.33-1.23 4.218 1.13-.33 1.231zM196.7 125.584l.33-1.232 4.218 1.13-.33 1.232zM197.378 123.06l.33-1.232 4.217 1.13-.33 1.233zM198.75 117.988l.33-1.232 4.217 1.13-.33 1.23zM199.406 115.487l.33-1.233 4.218 1.13-.33 1.233zM200.084 112.962l.33-1.233 4.217 1.13-.33 1.233zM202.132 105.364l.33-1.232 4.217 1.13-.33 1.231zM202.79 102.865l.33-1.233 4.218 1.13-.33 1.233zM203.468 100.34l.33-1.233 4.217 1.13-.33 1.232zM204.159 97.805l.33-1.232 4.217 1.13-.33 1.232zM204.836 95.28l.33-1.233 4.217 1.13-.33 1.233zM205.513 92.755l.33-1.232 4.217 1.13-.33 1.233zM206.203 90.226l.33-1.232 4.217 1.13-.33 1.231zM206.865 87.705l.33-1.231 4.217 1.13-.33 1.232zM209.587 77.549l.33-1.233 4.218 1.13-.33 1.233zM210.277 75.02l.33-1.233 4.217 1.129-.33 1.232zM201.103 82.97l.33-1.232 4.218 1.13-.33 1.233zM201.795 80.44l.33-1.232 4.218 1.13-.33 1.232zM202.442 77.933l.33-1.233 4.218 1.13-.33 1.233zM203.133 75.396l.33-1.231 4.218 1.13-.33 1.232zM203.81 72.872l.33-1.232 4.217 1.13-.33 1.232zM179.217 164.665l.33-1.233 4.217 1.13-.33 1.232zM179.885 162.154l.33-1.233 4.218 1.13-.33 1.233zM180.543 159.635l.33-1.232 4.217 1.13-.33 1.232zM181.22 157.111l.33-1.232 4.218 1.13-.33 1.232zM183.274 149.516l.33-1.232 4.217 1.13-.33 1.231zM183.927 147.012l.33-1.232 4.218 1.13-.33 1.232zM184.621 144.48l.33-1.231 4.217 1.13-.33 1.232zM185.975 139.432l.33-1.232 4.217 1.13-.33 1.233zM186.634 136.915l.33-1.232 4.217 1.13-.33 1.232zM187.343 134.38l.33-1.23 4.217 1.128-.33 1.232zM188.005 131.857l.33-1.232 4.217 1.13-.33 1.232zM189.357 126.808l.33-1.233 4.218 1.13-.33 1.233zM190.23 123.553l.33-1.232 4.218 1.129-.33 1.233zM190.916 121.04l.33-1.231 4.218 1.129-.33 1.231zM191.563 118.527l.33-1.233 4.217 1.13-.33 1.232zM192.255 115.993l.33-1.232 4.217 1.13-.33 1.232zM194.3 108.416l.33-1.232 4.218 1.13-.33 1.231zM194.961 105.894l.33-1.231 4.218 1.13-.33 1.232zM195.637 103.37l.33-1.233 4.218 1.13-.33 1.232zM196.976 98.33l.33-1.232 4.217 1.13-.33 1.232zM197.653 95.805l.33-1.233 4.217 1.13-.33 1.233zM198.346 93.256l.33-1.232 4.217 1.13-.33 1.231zM199.02 90.747l.33-1.232 4.218 1.13-.33 1.232zM200.359 85.707l.33-1.233 4.217 1.13-.33 1.233z"/><path fill="#FFF" d="M107.62 171.846c.361.16.629.476.728.859.125.387.154.704.182 1.025.048.68.088 1.392.151 2.152.054.797.127 1.519.151 2.152.054.796.083 1.546.156 2.271.079.552.231 1.092.451 1.604.251.489.567.942.94 1.346.42.426 1.014.782 1.763.983 1.501.402 2.74.344 3.649-.196.947-.528 1.665-1.784 2.201-3.786.547-2.043.527-3.533-.063-4.476-.591-.938-1.599-1.598-3.026-1.981l-7.286-1.952.003-.001zm-17.224 1.014c.958-3.576 2.341-6.019 4.182-7.322 1.808-1.314 3.779-1.685 5.85-1.131l17.639 4.726c.713.191 1.46.546 2.249 1.03.79.488 1.438 1.207 1.935 2.201.512.957.836 2.177.938 3.651.102 1.474-.117 3.291-.694 5.443-.576 2.149-1.295 3.836-2.12 5.059s-1.716 2.12-2.638 2.693a5.922 5.922 0 0 1-2.775.937c-.924.029-1.748-.035-2.462-.227l-2.819-.756c-1.501-.402-2.786-1.176-3.786-2.304-1.033-1.137-1.587-2.496-1.732-4.099-.054-.796-.079-1.702-.146-2.735-.069-1.036-.156-1.995-.205-2.948a49.044 49.044 0 0 0-.21-2.518 16.568 16.568 0 0 1-.104-1.317l-.145-.743c-.073-.296-.221-.606-.437-.939a4.762 4.762 0 0 0-.787-.915 2.85 2.85 0 0 0-1.17-.627l-1.143-.306a3.01 3.01 0 0 0-1.284-.068c-.469.029-.939.216-1.402.522-.465.305-.897.777-1.289 1.374-.387.6-.73 1.445-.994 2.431-.547 2.042-.513 3.498.109 4.446.549.811 1.344 1.414 2.324 1.754.215.058.309.278.25.498l-1.12 4.467a.414.414 0 0 1-.503.296l-1.031-.276c-1.002-.269-1.881-.702-2.666-1.341-.786-.642-1.368-1.463-1.788-2.473-.417-1.011-.657-2.249-.664-3.657-.087-1.392.155-3.008.644-4.83l-.006.004z"/><path fill="#F4F4F4" d="M117.08 105.621l-9.384 35.02a4.185 4.185 0 1 1-8.086-2.166l9.384-35.02a4.186 4.186 0 0 1 8.086 2.166z"/><path fill="#EDEDED" d="M132.27 92.918l-13.577 50.67a4.186 4.186 0 0 1-8.086-2.166l13.577-50.67a4.186 4.186 0 0 1 8.086 2.166z"/><path fill="#F4F4F4" d="M136.66 132.171l-4.057 15.143a4.186 4.186 0 0 1-8.086-2.166l4.057-15.143a4.186 4.186 0 0 1 8.086 2.166z"/><path fill="#EDEDED" d="M151.882 119.354l-8.282 30.908a4.186 4.186 0 0 1-8.086-2.166l8.282-30.908a4.186 4.186 0 0 1 8.086 2.166z"/><path fill="#F4F4F4" d="M163.215 132.697l-5.705 21.292a4.186 4.186 0 0 1-8.086-2.166l5.705-21.292a4.186 4.186 0 0 1 8.086 2.166z"/><path fill="#EDEDED" d="M184.405 97.603l-15.898 59.333a4.186 4.186 0 0 1-8.086-2.166l15.898-59.333a4.186 4.186 0 0 1 8.086 2.166z"/><path fill="#F4F4F4" d="M149.974 81.375l-5.417 20.217a4.185 4.185 0 1 1-8.086-2.166l5.417-20.217a4.186 4.186 0 0 1 8.086 2.166z"/><path fill="#EDEDED" d="M158.101 95.037l-2.546 9.502a4.185 4.185 0 1 1-8.086-2.166l2.546-9.502a4.186 4.186 0 0 1 8.086 2.166z"/><path fill="#F4F4F4" d="M128.211 64.079l-3.282 12.251a4.186 4.186 0 0 1-8.086-2.166l3.283-12.251a4.186 4.186 0 0 1 8.085 2.166z"/><path fill="#EDEDED" d="M141.187 59.642l-5.261 19.634a4.186 4.186 0 0 1-8.086-2.166l5.261-19.634a4.185 4.185 0 1 1 8.086 2.166z"/><path fill="#A4363D" d="M171.944 203.653l-.742 2.767 7.034 4.51c1.254.74 2.144 1.215 2.669 1.425-.245-.028-.689-.05-1.332-.068-.355-.01-.686-.015-.994-.015-.25 0-.486.003-.705.009l-8.342.37-.742 2.767 14.099-.921.8-2.988-11.745-7.856M173.114 199.287l-.734 2.74 12.923 3.463.735-2.741-12.924-3.462M176.738 188.661a13.812 13.812 0 0 0-1.185 1.734 7.83 7.83 0 0 0-.754 1.859c-.366 1.367-.326 2.526.121 3.476.446.95 1.241 1.579 2.384 1.885.357.096.698.143 1.023.143.229 0 .45-.024.663-.071a4.163 4.163 0 0 0 1.447-.626c.448-.303.963-.8 1.546-1.49.627-.735 1.068-1.215 1.324-1.44.256-.225.502-.382.737-.471a1.15 1.15 0 0 1 .408-.075c.107 0 .215.015.325.044.454.122.753.374.896.757.144.383.135.875-.026 1.476a6.763 6.763 0 0 1-.683 1.593c-.321.562-.793 1.226-1.415 1.994l2.546.682c.803-.922 1.389-2.072 1.759-3.451.401-1.497.378-2.755-.069-3.775s-1.253-1.686-2.42-1.998a4.113 4.113 0 0 0-1.061-.148c-.441 0-.859.083-1.254.247-.7.292-1.501.965-2.402 2.018-.681.797-1.138 1.295-1.372 1.494-.234.2-.455.331-.665.395a1.095 1.095 0 0 1-.324.047 1.34 1.34 0 0 1-.353-.049c-.389-.104-.667-.327-.834-.669-.167-.342-.181-.772-.043-1.29a5.75 5.75 0 0 1 .524-1.286c.233-.421.583-.938 1.05-1.552l-1.893-1.453M180.219 181.97c.162 0 .349-.003.56-.009.395-.011 2.102-.076 5.121-.196l-.902 3.368c-2.729-1.717-4.445-2.773-5.148-3.17.104.005.227.007.369.007m12.273-3.308l-14.204 1.102-.898 3.35 11.755 8.038.791-2.953-2.825-1.761 1.262-4.711 3.327-.113.792-2.952M163.717 212.14l-.33 1.232 2.109.565.33-1.233-2.109-.564M164.394 209.615l-.33 1.232 2.108.565.33-1.232-2.108-.565M165.07 207.09l-.33 1.233 2.109.565.33-1.232-2.109-.566M165.747 204.566l-.331 1.232 2.109.565.33-1.232-2.108-.565M166.423 202.041l-.33 1.232 2.109.565.33-1.232-2.109-.565M167.1 199.516l-.33 1.232 2.108.565.33-1.232-2.108-.565M167.776 196.992l-.33 1.232 2.109.565.33-1.232-2.109-.565M168.453 194.467l-.33 1.232 2.108.565.33-1.232-2.108-.565M169.129 191.942l-.33 1.232 2.109.565.33-1.232-2.109-.565M169.806 189.418l-.331 1.232 2.109.565.33-1.232-2.108-.565M170.482 186.893l-.33 1.232 2.109.565.33-1.232-2.109-.565M171.159 184.368l-.33 1.232 2.108.565.33-1.232-2.108-.565M171.835 181.843l-.33 1.233 2.109.565.33-1.233-2.109-.565M172.512 179.319l-.33 1.232 2.108.565.33-1.232-2.108-.565M173.188 176.794l-.33 1.232 2.109.565.33-1.232-2.109-.565M173.865 174.269l-.331 1.232 2.109.566.33-1.233-2.108-.565M131.163 179.825c-.665 0-1.274.444-1.455 1.117l-5.461 20.381a1.507 1.507 0 1 0 2.912.78l5.461-20.381a1.508 1.508 0 0 0-1.457-1.897M137.315 176.273c-.665 0-1.274.444-1.455 1.117l-6.761 25.234a1.507 1.507 0 1 0 2.912.78l6.761-25.234a1.508 1.508 0 0 0-1.457-1.897M139.308 188.249c-.666 0-1.275.444-1.455 1.118l-3.901 14.558a1.507 1.507 0 0 0 2.912.781l3.901-14.558a1.508 1.508 0 0 0-1.457-1.899"/><path fill="#F9CE62" d="M123.685 50.109l-.033.081.033-.081zM124.063 49.636c.038-.052.06-.13.047-.259-.053.07-.109.138-.156.21l.109.049zM123.738 49.979c.152-.051.049-.214.176-.3l.013-.055a3.265 3.265 0 0 0-.189.355zM124.031 70.376a.605.605 0 0 0 .158-1.143 14.243 14.243 0 0 1-2.286-1.386c-.017.085-.105.114-.043.234.296.102-.022.38.124.503.003.023.03.16-.073.173l.068.075c-.04.146-.291.214-.266.317l-.027.029c.632.423 1.287.818 1.986 1.149.115.054.24.069.359.049zM123.604 50.308l-.032.078.032-.078z"/><path fill="#F9CE62" d="M126.398 33.312a23.152 23.152 0 0 0-7.989 2.954l.039.006c.091.071.227.219.165.369-.014.083-.068.22-.166.279-.273-.012-.229-.314-.341-.464l.026.02.078-.098c-.354.215-.698.442-1.039.675l.032.079.105-.013c-.075.162.169.51-.109.638-.213.085-.277-.144-.375-.272.068-.066.015-.118-.012-.178-7.058 5.026-11.056 13.787-9.516 22.888.086.508.214.998.331 1.492l.313-.106c.348.218.641.718.826.831-.018.162-.388.179-.055.521.001.205-.172.281-.438.18-.415-.289-.363-.651-.536-.935 1.968 7.576 7.549 13.428 14.542 16.003.047.02.094.042.109-.037l-.065-.132.147.028c.03-.039.113-.121.025-.169-.03-.055.138.076.165-.081l-.013-.104c.065.039.112.139.233.075l-.025-.197c.05.029.084.106.152.074l.035-.181c.046.076.05.206.166.202.101.045.142-.09.149-.125l.148.039.02-.119c.075.036-.017.236.129.182l.05-.066.075.132.095-.095c-.014.073.065.239.201.198l.131-.076-.026.062c.038.123.239-.068.192.116.166-.071.345.036.445 0-.022.097.091.058.131.088l-.021.122c.151-.02-.035.098.075.13-.022.097-.151.198-.046.289-.164-.083-.183.129-.286.157.047.181.205-.052.29.067-.113.088-.269.02-.3.165a23.175 23.175 0 0 0 17.949-2.827.275.275 0 0 1 .129-.182c.079-.024.146-.026.21-.029 7.578-4.913 11.94-14.018 10.34-23.473-2.148-12.678-14.21-21.248-26.89-19.102zm23.64 11.142l.081.06-.181.106.1-.166zm-3.067-3.124l.299-.028c.188.251-.094.524-.245.566-.29-.086-.139-.404-.054-.538zm-13.376-7.772l.01.166-.024-.133.014-.033zm-19.806 8.062l-.035.051-.06-.035c-.001-.044.082-.087.095-.016zm-.27.085l.055.04-.073.083-.064-.078.082-.045zm-1.46 3.326c-.133-.062-.131-.219-.145-.294l.035.003-.009-.038c.095-.002.172.025.224.1l-.028.109-.043.014-.034.106zm.08.561l-.02.003-.002-.04.022.037zm-.169-1.221l-.08-.019-.03-.085.046.017-.025.007.019.061.026-.008-.014-.043.058.07zm-.124-.542l-.045-.016.017-.001.001-.015-.047-.001-.014-.034.015.018.011-.008.001.012.038-.009-.054-.064.086.092-.009.026zm-.273-1.066l.024.024.036.021-.01.006.038.039-.02.04-.079-.079h-.002l.001-.003-.012-.029.025.01h.001-.001l-.009-.001-.004.019.001.003.039.011.022-.011-.026-.027-.025-.014.001-.009zm-.015-.018l.004.006-.019.015.015-.021zm-.185 1.041l.007-.046.01.001-.003-.03.047.007c.046.044.107.062.082.136l-.099-.004-.054-.064h.01zm.303 1.599l-.006.005-.016-.019.006-.005.016.019zm-.882.64l.047.007-.002-.068.097.061.006-.047c.014-.011.048.143.098.051.029.1.137.189.093.295l.028.023-.001-.046c.051.044.136.074.147.153l-.036.044c-.152-.001-.109-.249-.299-.181a.306.306 0 0 1-.158-.176l-.069-.043.08-.036-.031-.037zm-.347-.846l.029.008-.001-.04.145.108-.054.077-.074-.035.01-.054-.06-.006.029.008-.024-.066zm-.313-.132l.035.026-.001.003.045.039-.028.033-.084-.063.053.025.014-.033-.034-.03zm.415 3.43l.066.044-.072-.007.006-.037zm-.324.599c-.006.037.086.17-.006.098-.06-.082-.008-.083.006-.098zm-1.456 8.358l-.289-.17c.027-.067-.014-.176.097-.159.111.017.299.288.192.329zm20.62 20.577a.21.21 0 0 1-.252-.115c.028-.064.116-.12.202-.119.083.057.164.171.05.234zm13.355-4.941l.055.091-.197.009a20.751 20.751 0 0 1-8.824 3.748c-5.069.858-10.022-.205-14.132-2.644a.375.375 0 0 1-.054.22c.005.129-.195.131-.131.277l-.064-.05c-.122.063-.151.291-.341.186l-.132.077c-.094-.094-.227-.112-.391-.126-.067-.062-.069-.251-.213-.197.05-.171-.158-.121-.227-.195l.052-.065-.101-.069.111-.039c-.016-.127-.107-.186-.198-.256l.083.012c.085-.082-.071-.107-.057-.193l.057-.008-.013-.104.036.018c.107-.084-.022-.174-.032-.255.048.006.118.09.166.014l.091-.118c-4.414-3.099-7.641-7.885-8.61-13.61a20.772 20.772 0 0 1 .336-8.533c-.08-.138-.264-.27-.378-.364l.237.084c-.282-.277-.34-.513-.443-.786l.139.05c-.072-.341-.529-.562-.685-.834.273.194.73.81.789.496-.094-.527.461-.211.579-.504.059.097.15.177.237.214 2.393-7.045 8.475-12.597 16.31-13.923 11.365-1.923 22.176 5.758 24.099 17.123 1.356 8-2.058 15.709-8.154 20.254zm-33.725-23.236l.207.152.006.022-.213-.174zm41.565-1.838c-.176.05-.195-.331.054-.208.082.06.002.137-.054.208z"/><path fill="#F9CE62" d="M120.06 44.688l-.01.009.005.006zM136.485 63.313c.394-.49.612-.993.677-1.515.064-.52.07-.988 0-1.4l-1.725-10.195c-.203-1.196-.858-2.124-1.961-2.745-1.105-.641-2.688-.776-4.754-.427-1.053.178-1.942.434-2.638.807-.723.335-1.304.751-1.726 1.204-.088.095-.145.201-.222.299.123.18.29.094.174-.073.321.317.513.374.789.709.048.202-.023.441.25.637-.102.046-.223.204-.061.401-.29-.064-.432-.056-.764-.219-.064-.052-.14-.204-.223-.329-.094.174-.026.383-.251.466-.197.037-.326-.135-.403-.29l-.084-.233-.055.136a3.968 3.968 0 0 0-.062 1.689l.101.596a.234.234 0 0 0 .271.189l2.563-.477c.127-.022.219-.122.198-.246a2.588 2.588 0 0 1 .355-1.609c.342-.544 1.083-.905 2.263-1.104a5.562 5.562 0 0 1 1.089-.077l-.007-.025c.061-.086.041-.494.239-.144l.187-.014a.823.823 0 0 0 .036.212c.373.063.7.167.952.326.267.166.474.364.599.599.137.204.228.435.268.677l.112.661c.044.25.028.507-.047.75a2.664 2.664 0 0 1-.285.621c-.12.19-.245.339-.38.447l-.348.25a9.073 9.073 0 0 0-.654.364c-.354.209-.768.45-1.247.702-.479.25-.952.521-1.469.801-.516.278-.977.505-1.374.72-.791.453-1.36 1.058-1.702 1.858a4.31 4.31 0 0 0-.294 2.492l.276 1.63c.07.412.231.852.464 1.321.271.491.663.907 1.136 1.208.512.339 1.184.587 2.008.723.825.136 1.862.109 3.104-.101 1.244-.21 2.231-.526 2.966-.926.735-.403 1.287-.857 1.659-1.346zm-.063-2.792l.082.06-.137.013.055-.073zm-11.901-11.325l-.028-.113.037.019-.009.094zm-.208 2.924c-.27-.228-.325-.567-.18-.634.071-.102.241.059.388.19.115.134.086.335.246.394-.069.045-.161.31-.454.05zm2.947-1.847c-.124.015-.218-.252-.307-.357.117.022.151-.179.327.031.027.114.133.366-.02.326zm2.523-1.725l.022-.048.036.02-.058.028zm.251-.02l.085.028.023.033-.108-.061zm.412.688l-.014-.067.032.078-.018-.011zm1.229.458c.022-.048.026-.105.102-.041.111.163-.026.185-.102.041zm2.335 2.391c.08.086.068.178-.011.092l.011-.092zm-.437.549l.018.01-.006.114-.012-.124zm-.131-.117l.012-.012-.016.069.004-.057zm.025.191l-.003.012c.015.039.058.126-.012.057l.012-.057.003-.012zm-.167-.353c-.05.128.161.467-.04.388-.061-.211-.037-.315.04-.388zm-6.608 9.075c.115.08.158-.137.278-.036.018.057.043.159.133.123-.007.131.096.284-.093.378-.153.008-.459.001-.369-.234l-.067-.051.118-.18zm.272 1.036l.057-.007.06.274-.109-.209.033-.004-.041-.054zm-.837 1.685l-.003-.021.094-.012-.091.033zm1.817-.436c-.076.152-.241.315-.159.504-.087.07-.086-.118-.143-.005-.056.113-.25.161-.369.247-.126-.159-.223-.1-.38-.126-.064-.039-.071-.19-.19-.117l.081-.093c-.071-.097-.178-.012-.262-.026l.098-.152c-.136-.054-.129-.278-.187-.364.146-.149-.084-.296-.189-.376.098-.072.301.149.42-.032l-.068-.073c.11-.155.23.147.302-.039l-.256-.249c.276.129.433.345.73.187l.015-.061.074.108.04-.147c.036.113.125.148.224.194l.021-.025c.185.153.222.442.198.645zm-.32-6.131c.09.045.158.118.23.154.146.245.287.467.15.584-.084-.025-.13.083-.282-.069-.08-.115-.231-.268-.245-.368.022-.14-.004-.341.147-.301zm6.084 4.331c-.346.526-1.109.888-2.289 1.088-1.158.196-1.974.122-2.469-.241l-.154-.141c.012.074.011.139.114.275-.129.116-.177.201-.464-.035-.111-.111-.152-.241-.234-.354-.154-.297.078-.235.077-.382.077.049.134.092.196.137-.232-.344-.404-.783-.497-1.332a2.192 2.192 0 0 1 .09-1.14c.12-.287.279-.556.472-.801a3.56 3.56 0 0 1 .72-.61c.356-.209.736-.401 1.132-.616.32-.162.674-.369 1.072-.585.376-.212.733-.4 1.072-.585.159-.09.315-.18.485-.336a.733.733 0 0 0 .27-.574l.712 4.208c.141.824.039 1.499-.305 2.024zM121.557 67.731c.054.063.188 0 .16.144.072.065.105-.008.148-.054-.096-.071-.196-.136-.29-.209l-.018.119zM145.212 57.339c-.654-.127-1.199-.045-1.636.248-.437.294-.72.771-.847 1.429l-.255 1.298 1.976.385.01-.002.015.007 2.235.435.15-.769-.163.008c.018-.088.011-.169.123-.173l.06.062.059-.302c.14-.712.061-1.294-.235-1.747-.294-.449-.791-.742-1.492-.879zm1.287 2.627l-.118.599-3.383-.661.14-.715c.106-.547.326-.932.661-1.154.335-.223.776-.28 1.33-.172.565.11.965.341 1.196.693.229.353.289.823.174 1.41z"/><path fill="#F9CE62" d="M116.189 49.909l-.021.019a15.455 15.455 0 0 0-.933 2.707c.03.065.102.093.105.169l.015.091-.025-.002-.053.104-.019.042-.116.034a15.391 15.391 0 0 0-.137 5.821 15.509 15.509 0 0 0 5.374 9.321l-.04-.076-.094-.07c.096-.083.145.134.225.006.032-.122-.091-.082-.126-.159.037.007.284.186.298-.064l-.083-.188c.073.025.152.086.235.087.143-.065-.071-.192.036-.18.043.053.066.144.154.096l.089-.212c.033.161.256.051.307.184.069.073.104.068.167.014l.028-.037a14.302 14.302 0 0 1-2.931-3.057l-.053-.008a.368.368 0 0 1-.112-.234l.003-.002c-1.134-1.672-1.938-3.574-2.284-5.62a14.175 14.175 0 0 1 .357-6.273l-.101-.058-.014-.053-.025-.001.033-.015-.048-.028.029-.093.049-.02c-.028-.089.104-.051.108-.12l.071.017.005.002.017-.057-.042-.04-.01.009-.014-.035-.044-.05.025-.013-.022-.035-.011-.002.01.001v.001l.012.002.008-.054.025.001-.009-.025.035.002.061-.032.044.03c.17-.503.371-.993.595-1.472-.167-.224-.364-.44-.201-.472-.208-.322.075-.52-.24-.989.032.115.172.265.202.35.093-.072.486.237.555.01l.152.193a14.28 14.28 0 0 1 7.937-6.596l-.016-.068.042.06.084-.028c.069-.204.137-.354.238-.583.237-.062.552.13.845.275.161-.039.324-.075.487-.108l-.069-.154.076.152c.158-.032.31-.077.471-.104a14.246 14.246 0 0 1 15.522 8.453.605.605 0 0 0 1.112-.476 15.548 15.548 0 0 0-2.079-3.497 1.078 1.078 0 0 1-.225-.129 2.978 2.978 0 0 1-.464-.689 15.457 15.457 0 0 0-14.069-4.855 15.384 15.384 0 0 0-7.422 3.474c.083.151.191.289.176.497-.026.157-.179.165-.292.119-.022-.091-.122-.136-.145-.229.023-.003.198-.014.126-.132-.03.075-.08.027-.117-.035a15.606 15.606 0 0 0-3.828 5.144l-.011.042zm-.594 2.653l-.017-.018.037-.033-.03.003.051-.022.019.063-.06.007zm.65-1.788l-.042-.057.066.011-.024.046zm8.939-8.574l.026.02.103-.118.025.021.048-.09c.01.083.092.166.118.104.05.204.187.364-.014.531-.126.04-.227-.101-.271-.19l-.035-.278zm-7.524 6.858l-.052-.003-.023-.089.075.092zM138.618 66.716c-.504-.147-1.017-.054-1.543.277-.537.341-.85.767-.937 1.279-.086.512.058 1.064.434 1.658.379.598.817.971 1.318 1.114.499.144 1.016.046 1.555-.293.526-.332.829-.759.914-1.28.084-.521-.058-1.073-.426-1.657-.372-.584-.809-.951-1.315-1.098zm1.266 2.703c-.046.385-.271.706-.675.961-.4.253-.787.319-1.16.197-.352-.115-.675-.411-.973-.861l-.034.031.033-.032-.051-.063c-.065-.104-.09-.196-.14-.295l-.017-.001-.003-.042c-.167-.351-.266-.682-.228-.976.048-.388.275-.71.678-.965.403-.253.786-.32 1.154-.196.366.125.703.432 1.013.923.313.495.449.935.403 1.319zM135.459 69.338c-.111-.392-.314-.652-.612-.778-.299-.128-.703-.119-1.213.023l-1.141.32.156.556.015.054.687 2.445.057-.018-.039.086.175.622a.42.42 0 0 0 .46-.14c0 .152.05.289.115.421l.023-.007-.484-1.727.865-.245 1.491 1.446.572-.16-1.651-1.55c.504-.35.678-.799.524-1.348zm-2.27 1.473l-.007-.08.057-.129-.05.209zm1.017-.217l-.663.186-.446-1.589.629-.177c.358-.1.635-.112.831-.036s.332.25.41.526c.077.271.053.497-.068.676-.122.181-.352.318-.693.414zM128.008 73.255l.509.112-.729-4.596-.412-.091-2.596 3.867.495.108.814-1.226 1.689.372.23 1.454zm-1.65-2.23l.782-1.198a5.2 5.2 0 0 0 .316-.569c.014.256.036.473.062.652l.203 1.414-1.363-.299zM143.258 53.232c-.349.393-.484.898-.407 1.514.078.632.332 1.096.758 1.392.427.297.987.401 1.685.314.703-.088 1.226-.327 1.569-.718s.475-.901.396-1.533c-.077-.617-.332-1.073-.767-1.372-.436-.297-.996-.404-1.683-.317-.688.086-1.205.326-1.551.72zm3.564 1.024c.06.472-.046.848-.315 1.133-.269.284-.694.462-1.273.535-.572.071-1.023.002-1.355-.208-.33-.21-.524-.552-.584-1.027-.058-.473.044-.848.313-1.126.268-.279.69-.453 1.265-.525.583-.072 1.037-.007 1.367.198.33.207.523.547.582 1.02zM140.686 63.758l1.436 2.57c.163.295.34.575.534.838a7.85 7.85 0 0 0-.883-.414l-2.753-1.095-.352.4 3.688 1.454.011-.029c.088-.055.186-.027.257.006l.055.15.255.101.328-.373-2.22-4.015-.356.407zM141.551 62.198l3.107 3.471.23-.455-.991-1.091.777-1.546 1.467.136.232-.464-4.634-.428-.188.377zm1.229.165l1.42.151-.626 1.248-.967-1.054a5.861 5.861 0 0 0-.473-.446c.249.049.465.084.646.101zM128.721 47.031h.001zM131.658 71.275c.291-.241.435-.58.424-1.017-.017-.839-.565-1.245-1.644-1.223l-1.118.023.091 4.315.502-.011-.036-1.697.507-.011c.556-.011.978-.138 1.274-.379zm-.722.113c-.087.058-.16-.062-.202-.115.006-.116.039-.04.076-.106a2.708 2.708 0 0 1-.491.057l-.451.009-.037-1.753.56-.011c.396-.008.688.055.878.19.191.136.289.346.295.631.007.317-.088.55-.282.697-.106.08-.254.136-.432.175l.131.102-.045.124zM116.858 37.277l-.007.005.006.001z"/><path fill="#924BDD" d="M119.267 129.323c.323.73.749 1.215 1.282 1.458.532.243 1.124.22 1.78-.069.639-.283 1.049-.707 1.227-1.275.18-.566.113-1.203-.2-1.914-.315-.714-.741-1.193-1.28-1.439-.537-.247-1.125-.228-1.764.053-.655.292-1.074.714-1.254 1.27-.181.554-.11 1.193.209 1.916zm1.25-2.724c.489-.218.928-.228 1.315-.028.387.197.713.596.976 1.193.267.604.343 1.115.229 1.535-.115.422-.417.741-.909.959-.488.215-.928.224-1.323.026-.394-.197-.723-.596-.989-1.198-.263-.593-.334-1.102-.215-1.526.119-.422.424-.744.916-.961zM116.895 137.093l-1.811-.609.183-.541c.199-.593.226-1.089.083-1.49-.144-.404-.45-.683-.916-.839-.893-.3-1.533.124-1.92 1.274l-.402 1.193 4.603 1.548.18-.536zm-1.632-1.737l-.061.011-.006-.028.067.017zm-1.2-1.351l-.071.029-.009-.04.08.011zm-1.308 1.695l.201-.598c.142-.422.322-.708.537-.857.216-.149.476-.172.781-.07.336.114.547.302.629.566.082.263.043.631-.116 1.106l-.161.481-1.871-.628zM116.904 142.01l-1.602-.415-.224-1.935 1.464-.779-.066-.58-4.625 2.457.055.471 5.063 1.347-.065-.566zm-3.69-.949a5.93 5.93 0 0 0-.72-.128c.266-.109.489-.21.67-.305l1.429-.735.181 1.561-1.56-.393z"/><ellipse transform="rotate(-53.044 114.857 144.51)" fill="#924BDD" cx="114.857" cy="144.511" rx="1.02" ry="1.02"/><path fill="#924BDD" d="M118.401 133.792l-1.533-1.315.66-.768 2.297.423.435-.507-2.514-.421c.252-.64.136-1.17-.353-1.588-.347-.299-.7-.415-1.059-.347-.359.069-.732.327-1.121.779l-.866 1.011 3.684 3.161.37-.428zm-1.9-1.631l-1.41-1.21.479-.556c.273-.318.524-.503.756-.554.23-.051.467.028.711.237.241.206.36.431.359.674-.001.244-.13.519-.391.82l-.504.589zm1.356 1.195l.013.001-.001.019-.012-.02zM151.99 166.829l-.053.054.053-.054zM152.599 165.529c-.035.053-.064.106.032.126l-.093.162.073.065-.078.08.094.036c-.084.042-.141.108-.152.201l.082.059-.188.124c.117.136-.161.078-.077.25-.104-.041-.138.017-.149.089.115.075.26.115.338.103l.03-.215c.178.389.462.828.136 1.175-.269.257-.429-.001-.702.111 8.441 3.043 16.34 1.221 18.178.712a1.227 1.227 0 0 0-.655-2.363c-1.701.471-9.064 2.172-16.869-.715zM126.69 158.506l.008.013.071-.001zM128.329 129.453c.024.082.035.231-.028.328-.137.059-.227 0-.307-.08l-.04.041.525.226 1.157-1.184 1.79.767-.053 1.657.537.23.165-5.234-.437-.186-3.344 3.38.035.055zm2.809-2.216a6.49 6.49 0 0 0 .468-.562 7.343 7.343 0 0 0-.068.732l-.074 1.607-1.444-.619 1.118-1.158zM126.626 129.825l1.821-4.829-.609-.01-1.154 3.106a9.011 9.011 0 0 0-.327 1.068 8.754 8.754 0 0 0-.291-1.057l-1.071-3.158-.599-.007 1.672 4.88.558.007zM135.015 134.121c.603.076 1.217-.136 1.845-.636l.128-.119-.115-.02.035-.037.082.055c.411-.36.672-.755.786-1.185l-.274-.336.14.077c-.044-.28-.041-.446-.051-.741l.169-.065a2.867 2.867 0 0 0-.527-.982l-.929-1.165-3.796 3.028.838 1.053c.51.64 1.067.997 1.669 1.073zm1.26-4.406l.512.642c.387.486.554.951.507 1.396l-.028.162-.009.001c-.091.392-.346.764-.785 1.113-.508.404-.996.577-1.466.519s-.914-.35-1.334-.877l-.428-.538 3.031-2.418zM138.004 141.56l.166-.003c-.191-.051-.069.163-.143.2.433.28-.084.414.266.694-.173-.027-.25.003-.304.049.342.032.691-.09.912-.384a1.02 1.02 0 0 0-1.618-1.238c.161.229.458.456.721.682zM137.34 134.491c-.776.18-1.334.509-1.671.987-.339.478-.428 1.064-.266 1.761.159.681.5 1.164 1.021 1.446.522.284 1.161.336 1.918.16.228-.053.43-.124.621-.204l-.028-.053.072.032.169-.081-.074-.076.146.042c.309-.172.562-.384.747-.645.343-.484.436-1.064.279-1.742-.162-.699-.5-1.19-1.011-1.471-.512-.283-1.152-.334-1.923-.156zm1.891 3.72l.033.091-.075-.091h.042zm-.875-3.223l-.006-.052c.129.013.236.053.339.099l.004.001.087.031c.079.024.158.048.229.083.394.195.652.555.774 1.08.12.522.047.954-.22 1.296-.266.342-.718.588-1.354.737-.643.148-1.16.128-1.552-.064-.393-.191-.649-.548-.769-1.072-.121-.52-.048-.956.22-1.306s.722-.598 1.362-.747c.327-.075.622-.103.886-.086z"/><path fill="#924BDD" d="M129.292 157.453c.182-.011.199-.104.043-.264l.266-.262c.414.046.902.373 1.121.394.055.156-.275.334.179.5l.026.12a19.654 19.654 0 0 0 6.226-2.747c1.76 3.254 4.088 6.009 7.065 8.378.061-.124-.097-.149-.142-.219.046-.016.147.03.158-.061l.035-.165-.074-.05.192-.028c.029-.133-.178-.081-.165-.19.172.156.215-.084.389-.03l-.003-.053c.104-.055.289.036.393-.088.11.17.361-.053.408.171.071.066.177-.073.16.095l.098-.022c.06.244.299.371.268.631.062.116-.12.206.003.31l-.081-.017c-.083.111-.009.332-.229.32l-.086.129c-.098-.034-.202-.01-.315.027a26.763 26.763 0 0 0 6.674 3.544c.113-.162-.277-.166-.171-.303-.243-.087-.128-.28-.08-.48-.081-.009-.206-.066-.189.083l-.061-.032c-.105.014-.054.137-.112.175-.039-.017.08-.309-.136-.209l-.204.164.108-.199c-.253-.218-.493.238-.706-.046.116-.062.058-.194.009-.248-.09-.139-.256.041-.322-.128.207-.094.085-.369-.032-.418-.093-.054-.181.048-.245-.008.055-.066.274-.011.286-.189l-.147-.075c.075.008.146-.081.169-.152l-.108-.058c.055-.022.167.019.138-.091l-.118-.092c.043-.043.111.039.146-.04.01-.048.05-.16-.051-.165-.052-.037.159.009.115-.147l-.058-.089c.076.007.163.077.245-.035l-.109-.168h.171l-.048-.18c.075.05.136.165.241.111.075-.003.088-.066.087-.119a24.352 24.352 0 0 1-4.371-2.607c-3.114-2.343-5.475-5.117-7.213-8.443a19.59 19.59 0 0 0 1.818-1.847 22.332 22.332 0 0 0 3.193 4.89l.043-.015-.012-.233c.101.133.256-.066.361.033.095.036.125.017.159-.061l.009-.047v-.003.003l.036.116c.077.033.172-.083.21.061.12.035.082-.11.135-.159.087.113-.047.187.085.284.315-.037.148.356.335.404.012.019.098.132.01.19l.095.039c.028.151-.171.324-.102.407.005.095-.071.13-.071.216l-.069.08a23.78 23.78 0 0 0 2.453 2.128 21.94 21.94 0 0 0 2.427 1.566c.1-.018.206-.032.228-.141.06.003.123.189.228.092l.108.055.05-.032.034.119.112-.045-.004.145.097.064-.036.096c.078.038.089.093.084.152 7.886 3.987 15.947 2.11 17.665 1.636a1.224 1.224 0 0 0 .855-1.507 1.221 1.221 0 0 0-1.507-.856c-1.282.355-6.481 1.56-12.243-.053-.166.107-.319.223-.383.415-.043-.551-1.089-.083-.931-.569-.191-.04-.274-.218-.378-.399a19.65 19.65 0 0 1-4.931-2.697 20.483 20.483 0 0 1-3.833-3.738l-.068.019c-.128-.044-.075-.05-.18-.124.009-.068.006-.135.02-.195a20.584 20.584 0 0 1-2.595-4.57c.18-.278.337-.565.502-.849l-.057-.09.083.046c.379-.657.732-1.324 1.027-2.009.717 2.266 1.88 5.02 4.398 7.613l.019.001-.11-.169.116.066.036-.094.094.036.037-.095.101.048c.021-.1-.014-.176.104-.209l-.115-.265.095.037-.029-.151-.032-.008.101.005-.09-.182c.091-.031.271.177.295-.024l-.032-.049c.065.056.16.051.248.077l-.008-.117-.039-.021.033.007.006.014c.043.04.091.117.157.02v-.043c.112.239.336.148.435.366.291.035.202.377.302.509-.085.041-.058.151-.091.229l-.406.266c-.09-.054-.196-.04-.331-.052.018.158-.006.359-.1.477l-.068.054c.444.408.924.81 1.448 1.204 7.107 5.348 15.775 3.165 16.739 2.899a1.227 1.227 0 0 0-.651-2.363c-.513.141-3.511.893-7.163.435a.324.324 0 0 0 .187.212c-.414.238-.239.554-.386.912h.04c-.257.644-1.104.624-1.508 1.076-.214-.316-.627-.076-.863-.446l-.358.113c-.066-.158.296-.165.087-.374-.084-.07-.223-.014-.32.041.249-.308-.296-.35-.462-.489.245-.414-.034-.889.026-1.388l-.098.053.098-.055v.002c.175-.084.273-.224.345-.384a14.756 14.756 0 0 1-4.237-2.201c-1.559-1.173-2.68-2.408-3.529-3.648-.027.115-.146.231-.21.349-.185-.09-.248.008-.403.053-.076-.007-.149-.142-.224-.023l.033-.12c-.107-.057-.168.067-.251.092l.022-.182c-.148.011-.24-.197-.331-.25.068-.201-.206-.233-.339-.26.058-.108.341.003.369-.215l-.094-.036c.032-.19.275.032.258-.169l-.343-.114c.309-.004.547.123.749-.152l-.013-.062.115.066-.014-.076c-.853-1.521-1.356-3.017-1.757-4.394l-.109-.021c-.123-.07-.329-.142-.386-.228-.041-.137-.154-.31.002-.34.102.002.196.038.278.039l.069.046-.073-.253a37.231 37.231 0 0 0-.589-1.924c.275-1.514.382-3.045.3-4.568 1.511 1.893 2.079 3.818 2.647 5.823.318 1.12.645 2.256 1.132 3.385a.51.51 0 0 1 .203.14c.166.138.087.202.084.284l-.084.004c.771 1.637 1.918 3.256 3.962 4.794 5.317 4.001 12.199 2.17 12.49 2.089a1.223 1.223 0 0 0 .855-1.505 1.216 1.216 0 0 0-.645-.764c-.24.141-.519.275-.746.324l.038-.036c-.166-.07-.215-.214-.268-.355-.826.196-6.231 1.312-10.25-1.712-2.97-2.235-3.638-4.589-4.412-7.316-.817-2.879-1.766-6.13-5.659-9.202a19.579 19.579 0 0 0-4.609-8.329c-.107-.019-.259-.084-.349-.082-.183.016-.329-.084-.523-.233-.375-.372-.718-.773-.736-1.121l.059-.028c-.315-.27-.63-.541-.966-.794-8.641-6.502-20.961-4.762-27.463 3.879s-4.762 20.961 3.879 27.463a19.438 19.438 0 0 0 7.87 3.525l.059-.008-.266-.233c.089-.056.195.037.291.076-.011-.323.33-.316.36-.647l.311.207c.165-.032.149-.181.311-.194.214.3.529.088.854.197.127.089.461.272.555.443.11-.059.374-.07.594-.074l-.055.105c.186.097.328.089.36.008-.035.101.299.151.369.213.162-.142-.078-.417.297-.504.225-.022.473.065.786.122-.03.171.358.421.321.519-.178-.001-.258.09-.379.14a19.802 19.802 0 0 0 3.263-.416c-.422-.2-.481-.635-1.025-.642zm17.79 5.219c.009.079.084.129.03.22l-.203-.008-.045-.069c.019-.083.169.088.138-.091l-.101-.004c.066-.03.113-.087.181-.048zm-6.429-4.356l-.028-.152c.04.102.132.112.229.133l.05-.075c.026.082.101.09.159.137l.058-.109c.121.277.56.583.304.992l-.408.197.007-.033c-.224.047-.331-.095-.526-.095l-.05.033.012-.178c-.107-.014.019-.055-.035-.117l-.221-.126.101.004c.063-.097-.045-.112-.097-.148.104-.011.119-.163.183-.347l-.071-.066.133.055.02-.013-.079-.19c.098-.024.135.207.259.098zm15.625 3.941c.102.016.226.084.149.192a.21.21 0 0 1-.281.006c-.003-.071.054-.16.132-.198zm-5.647-1.508l.081.017-.015-.089.114.024a.641.641 0 0 1 .22-.074c.17.046.26.183.357.332-.035.251.006.379-.201.473-.001.128-.19-.032-.149.141-.068-.04-.175-.183-.226-.021.083-.026-.077-.162-.123-.189l-.039.026-.026-.125c-.151.029-.021-.142-.122-.188l.092-.032-.054-.128-.037-.012.033.007.003.005.035.011.057-.178zm5.379-2.457c-.1.018-.224-.05-.344-.049.075-.143.265.085.344.049zm-8.619-7.14l-.068.071-.012-.018.08-.053zm0-1.868l.176.224-.192-.142.028-.019-.061-.031.049-.032zm-.516-.95c.042.043.109.126.175.054.052.122.213.216.082.386-.136.075-.419.203-.441-.05l-.083-.017.029-.217c.141.022.083-.195.238-.156zm14.248 4.101c.18-.021.311.262.465.083-.014.16.123.619-.275.766-.357.147-.65-.169-.6-.472-.028-.23.211-.304.41-.377zm-5.46.944c-.081.002-.242-.031-.167-.14.178-.127.203.033.167.14zm-12.185-7.565c.216.029.017.286.137.363-.082.266-.163.333-.417.401-.223.004-.094-.038-.353-.067l-.121-.034c.126-.153-.253-.018-.136-.209-.062-.072-.154-.082-.191-.184l.088-.016c.018-.082-.058-.133-.08-.188l.083-.025-.028-.152.089-.017-.03-.09c.086-.129.217.097.236-.115-.015-.088.107.101.113-.045.071.109.176.012.248.079l.006-.033c.039.214.33-.033.356.332zm1.254-3.57c.492.15.19.385.491.617a4.617 4.617 0 0 1-.827-.209h.041c-.199-.16-.14-.28-.22-.421.211-.012.234-.08.515.013zm2.129-6.13c.154.098.015.07-.032.085.013-.034-.106-.113.032-.085zm-.559-.092c-.078-.076-.093-.147-.025-.16.27.072.192.276.025.16zm-2.228 2.491c.015.088.094.037.144.048l-.004-.096.174.055c.125-.221.242.111.361.033.161.205.186.33.153.606-.151.183-.189.123-.343.295-.119-.134-.362.25-.457-.07-.195-.041-.09-.251-.251-.345.077.077.068-.113.075-.189l-.038-.102c.146.032.168-.11.186-.235zm-.26.902c-.19-.059-.246-.202-.207-.253.066-.017.16.023.23.06.145.129.1.196-.023.193zm2.264-3.917c.174.1.058.179-.075.082-.001-.053-.023-.107.075-.082zm-1.115.189c.136.255.261.263.459.521-.145-.009-.073.187-.378.099-.096-.022-.335-.178-.401-.288.018-.105-.181-.469.155-.237l.165-.095zm-.262.02l-.022-.002-.042-.055.064.057zm-.611-.461l.036.02-.126-.008.09-.012zm-.311.088l.042.003-.041.051-.001-.054zm-13.564-13.849l.05.077-.027.018-.05-.077.027-.018zm-4.321-.755l.071.009-.042-.105c.191.009.273.155.439.269.004.129.059.273-.065.386-.105.102-.201-.004-.302-.017-.126-.074-.04-.285-.198-.347h.038l.026-.306.033.111zm-7.223 34.631c-.408-.093-.803-.147-1.08-.424-.374-.178.306-.144-.079-.261.167-.035.206-.141.396-.18.485.117.827.457.963.744.047.089-.082.135-.2.121zm-2.783-2.703c-7.561-5.689-9.084-16.469-3.395-24.03 4.284-5.693 11.454-7.959 17.963-6.304l.004-.014.012.018a17.06 17.06 0 0 1 6.052 2.905c6.621 4.982 8.611 13.866 5.184 21.076l.042.043.045.07-.09-.109a17.094 17.094 0 0 1-1.787 2.95c-.111.147-.236.277-.35.42l.143.06c-.057.151-.039.309.07.323.011.234-.028.569-.244.711-.075.148-.157.062-.321.14l.013-.05c-.058.024-.153-.015-.163.077-.071-.067-.163-.121-.262-.098a.191.191 0 0 1-.231-.02c-5.923 6.173-15.681 7.101-22.685 1.832zm11.754 5.27c-.345.003-.834-.32-.705-.491.09-.052.145-.135.322-.109.247.087.494.175.594.307-.006.147.111.293-.211.293z"/><path fill="#924BDD" d="M126.433 146.426l.254-.028c-.38-.129-.536-.318-.751-.522l.149-.016c-.217-.279-.731-.279-.994-.458.335.057 1.024.417.939.104a.384.384 0 0 1-.079-.184 6.35 6.35 0 0 1-3.587-1.27c-2.816-2.119-3.383-6.133-1.264-8.949s6.133-3.383 8.949-1.264a6.399 6.399 0 0 1 1.265 8.95c-.165.219-.36.4-.546.591l.066.033-.033.079h-.066l-.018-.055a6.373 6.373 0 0 1-.778.661c.084.237.157.479-.146.518-.185.015-.291-.058-.41-.127-.454.259-.94.44-1.437.58.28.199.58.418.806.558l.054-.011.038.065.069.04c.137.025-.055-.107.119-.067-.078.072-.047.211-.003.357a7.515 7.515 0 0 0 1.202-.605l-.017-.097-.029-.004.043-.009.003-.007-.052-.034.082-.019-.033-.033.08-.005v-.027l.063.007-.004-.037.163.071a7.557 7.557 0 0 0 1.766-1.687l.087-.129-.036-.034.066-.019v.009c.227-.319.426-.649.597-.989-.177-.09-.309-.172-.208-.248-.332-.202-.162-.508-.656-.797.08.091.274.166.339.23.053-.107.548.002.51-.237.147.072.269.133.39.191a7.585 7.585 0 0 0 .43-2.344l-.036-.029.036.02a7.686 7.686 0 0 0-.414-2.707l-.146-.091.082-.07-.034-.085c-.019.071-.14-.007-.19-.063l.094.037c.039-.095-.056-.134-.052-.235l.052.021a7.562 7.562 0 0 0-2.419-3.1c-3.356-2.525-8.14-1.85-10.666 1.507-.336.447-.612.92-.836 1.41l.014-.008.028.04-.052.042-.011-.022c-1.425 3.172-.529 7.026 2.364 9.203a7.583 7.583 0 0 0 5.195 1.495c-.13-.045-.283-.071-.391-.097zm4.496-3.019l-.009-.042.039.016-.03.026zm.19.671c.073-.062.097.064.152.044l.035.046.03-.007.043.118.019.065v.047c-.065.008.036.073-.035.066l.013.052-.056-.024c.041.079-.068.033-.072.108h-.046l-.007.016-.098-.006-.123-.04c-.037.004.001-.104-.072-.077l-.033.014.036-.058-.062.008.029-.088-.062-.007.059-.048-.042-.037.049-.026-.042-.056.096-.053.029-.042-.006-.014.029.023.063-.02.007-.062.067.058zm.437-1.523l-.017-.007.075-.023-.021-.025-.014-.001.009-.004.004.005.042-.024-.007-.011c.068.04.108-.02.17.017.078-.04.114.06.161.075l.016.072-.057.134-.091.043.055.135c-.002.088-.087.06-.128.104l-.109-.026-.022.007-.08-.095-.023-.01.053-.016-.056-.024.04-.003-.007-.029.03-.007-.007-.03.033-.005-.009-.069-.073-.046.03-.007-.033-.032-.009.003.026-.016-.053-.03.072-.055zm1.385-1.35l-.048.02-.061-.071.109.051zm-.676-5.731l-.106-.101c.1.047.231.118.236.255l-.107.098c-.133-.012-.185-.133-.256-.243.078.033.055.106.166.104l.067-.113zm-7.704-3.78l-.032-.049c.138.192.436.281.436.564-.055.108-.279.069-.36-.034-.133-.14-.158-.309-.209-.472l.126.087.039-.096zm-4.74 3.304l.032-.024.012.046-.044-.022zm.054.488l-.014.053-.03-.035.044-.018zm-.271.363l.054-.029-.012.041-.042-.012zm.097-.02l.041-.028.047.082-.088-.054zm1.534-1.743l.031.015-.006.013-.025-.028zm-2.334 3.27l.013-.002.022.011-.035-.009zm2.233-3.036l.057-.003-.036.003.032.062-.053-.062zm.083.076l.035-.006v-.011l-.035-.039-.001.019-.032-.007.03-.005-.006-.012.043.009.001.035.008.01-.008.001v.014l-.035-.008zm-1.369 2.339l.033.1-.009.035-.024-.135zm.016.26l.099-.033-.029.141-.07-.108zm-.259.796l-.093-.044.014-.013-.027-.041.146.015.018.036-.058.047zm1.782 5.394l.025.02.003.01-.028-.03zm.046.064l.02-.024.015.04-.035-.016zm3.965 2.479c.032-.041.176.037.256.047l.015.017-.271-.064z"/><path fill="#78CDEF" d="M196.516 111.293l.018.016.036-.043zM178.734 94.082a.594.594 0 0 0 .377.05l-.511-.47c-.031.128-.076.266.134.42zM205.012 111.183c.658-.715.962-1.463.911-2.247-.051-.782-.453-1.52-1.208-2.214l-1.451-1.336-4.255 4.622 1.309 1.205c.817.753 1.629 1.126 2.435 1.12.806-.006 1.559-.389 2.259-1.15zm-3.857-.695l-.421-.387 2.77-3.01.522.48c.876.807.857 1.707-.057 2.7-.932 1.013-1.87 1.086-2.814.217zM200.888 117.263a.503.503 0 0 0-.421-.573l-3.704-.563-.031.057c-.026.15.219.149.253.219-.041.065-.606.027-.585.364l.271.27c-.206-.031-.307-.307-.542-.154l-.083.152 4.268.649a.502.502 0 0 0 .574-.421zM185.179 111.724l.088.009.618-.672.022-.075-.602-3.584 1.464-1.539c.316-.33.349-.872.025-1.194a.825.825 0 0 0-1.216.038l-1.442 1.619-3.622-.304-.073.028-.618.672.016.086 2.803 1.22-1.169 1.322-1.395-.091-.073.028-.398.433.022.092 1.73.661.052.048.796 1.663.094.015.398-.433.022-.076-.206-1.37 1.221-1.275 1.443 2.679zM187.587 91.589c-.09-.506-.45-1.048-1.078-1.626l-1.346-1.24-4.254 4.622.98.902 1.633-1.774.522.481-.53 2.789 1.087 1.001c.053-.378.161-1.105.325-2.17l-.157-.101-.005.006-.076-.049.08.043.054-.074-.254-.081c.098-.027.244.061.303-.044.022-.101-.082-.134-.128-.198l.086.043c.043-.11-.156-.158-.129-.297.198.047.228-.094.239-.239l-.123-.238c.05.096.162.163.276.155l.003-.02.065.014c.121-.045-.033-.163-.001-.238.075.024.017.179.147.162.029-.066.027-.19-.062-.243l-.011-.022c.144.064.179.372.408.329l.092-.111c.072.122.191.143.292.205l.108-.007.001-.005.003.005.052-.003c.345-.075.643-.247.893-.519.428-.465.596-.952.505-1.458zm-2.188.855c-.242-.032-.519-.191-.829-.476l-.316-.291 1.15-1.249.298.274c.316.291.507.552.572.784.066.231-.003.456-.205.676-.204.22-.427.315-.67.282zM186.748 102.243l-.012-.145c.028.099.113.118.202.146l.053-.066c.017.08.086.094.136.143l.065-.097c.069.215.31.465.275.738l7.487 6.892c.017-.05.039-.122-.042-.134-.045-.039.148.023.122-.127l-.046-.089c.071.014.146.088.233-.01l-.087-.167.16.016-.029-.173c.066.054.112.167.215.126l.068-.032-14.425-13.279c-.121.125-.266.239-.378.369l.178.116a1.64 1.64 0 0 0-.553-.04l6.326 5.823.052-.01zm5.614 4.676c.001.075.066.128.008.209l-.19-.026-.035-.069c.025-.076.149.098.138-.072l-.095-.014.174-.028zM195.017 106.333l.728-.428-.033-.164.089-.021-.039-.125-.033-.015.03.01.003.005.032.014.068-.161.075.023-.006-.084.104.033a.62.62 0 0 1 .213-.049c.153.058.224.192.3.339l1.502 1.382-.678 1.409 1.056.972 1.238-2.89c-.123-.034-.2-.091-.135-.238-.304-.095-.266-.553-.586-.767l-.122-.051-.251.529-1.205-1.109c1.309-.762 2.123-1.245 2.44-1.451-.053.091-.12.22-.202.387-.069.141-.336.704-.78 1.639l.119.056c.074.019.146.034.184.066.031-.205.522-.353.444-.708.293.036.493.072.769.071l.599-1.399-.132-.036.149-.004.104-.242-1.198-1.102-5.903 3.139 1.057.97zm4.489-1.537l-.043.064-.07-.073.113.009zM194.008 96.865l-2.686 6.065 1.068.984 5.826-3.175-.99-.911-3.407 1.944c-.581.36-.972.627-1.175.799.065-.096.171-.276.318-.539.148-.264.272-.5.372-.706l1.663-3.551-.989-.91zm1.689 5.112c-.044.035-.043.11-.111.122-.126.002-.119-.152-.084-.208.116.052.134-.058.195.086zM175.205 88.095l.335.308c.138.065.278.122.394.129.127.107.267.231.405.353l2.555-5.966-1.198-1.102-5.903 3.139 1.056.972 1.243-.731-.061-.051-.076-.016.06-.058-.041-.024.044-.009-.024-.06.107.022-.01-.044c.008-.015.09.112.105.013.059.08.184.125.18.234l.033.011-.016-.04.182.089-.018.051c-.112.04-.164-.102-.261-.088l.811.746.004-.001-.08-.084.064-.064-.007-.023c.054.001.13-.052.206-.002l.097.108c-.018.086-.071.106-.146.129l-.124-.048.76.7-.676 1.407zm.779.189h.039l-.025.071-.014-.071zm.495-1.258l.005-.043.145.008-.012-.026.136.068.092-.014.06.072.034.21-.062.077-.004-.014-.03.041-.079.01-.078.022-.017.017-.044-.005c-.07-.012-.139-.047-.228-.027h.027l.001-.03-.078.022.069-.061-.065-.029.029-.003-.082-.053.02-.099-.071-.039.108-.013-.037-.066.064.017-.056-.051-.007-.003.16.012zm-.133-.539l-.06-.108c.047-.017.107-.069.227.039.071.125-.048.123-.167.069zm.527-.593l.032.011.021.011-.053-.022zm.261-.388c.039.048.079-.051.133.036l.082.072c.015.077.003.105-.051.155-.055.03-.029.003-.097.03l-.035.007-.062-.034-.072-.021.02-.016-.045-.036.018-.018-.027-.034.02-.016-.02-.018.044-.06.022-.026.072-.013-.002-.008zm-4.088-1.072l.055.005.002-.037-.04-.012.093.034-.014.038-.096-.028zm.42.063l-.008-.051-.055.015.028-.003-.043-.053.028-.003-.014-.036.165.05-.023.087-.078-.006zm1.09-.97l.032-.009-.021-.031c.084-.033.162-.034.234.015l.011.107-.035.027.004.107c-.138-.012-.188-.153-.225-.216zm-.024.653l.003-.006.021.012-.003.006-.021-.012zm.489.048l.006-.018-.021-.017.021.017.011.009-.017.009zm.179.312l.067-.039-.03-.066-.018-.022.052-.025-.001-.012.04-.023.08.076c.424-.247.784-.458 1.095-.642l-.015-.042-.023-.021.016-.083.042-.007-.013-.024.051-.009c.003-.071.075-.004.095-.039l.078.088c.443-.263.757-.454.924-.562a6.11 6.11 0 0 0-.201.387c-.081.166-.426.891-1.034 2.173L175.2 84.54z"/><path fill="#78CDEF" d="M220.542 122.155l-9.703-40.799a3 3 0 0 0-2.48-2.283l-41.462-6.301a3.01 3.01 0 0 0-2.67.939 3.007 3.007 0 0 0-.714 2.739l9.704 40.799a3.001 3.001 0 0 0 2.479 2.282l22.642 3.44-.028-.013c.098-.077.303-.015.252-.168-.117-.394-.039-.875-.52-1.141.167.062.291.287.538.253a.766.766 0 0 0 .158-.577c.066.205.249-.068.325-.063.048-.061.059-.131.075-.2l-23.139-3.516a1.003 1.003 0 0 1-.827-.762l-3.548-14.921c-.061.053.075.179-.302.043-.246-.325-.949-.517-1.298-.746-.402-.241.133-.296-.377-.491-.037.145-.14-.056-.27-.078-.126-.111-.096-.149-.023-.21l-.15-.091c.064-.025.334.125.423.08l-.227-.243c.089-.044.179.053.265.098.02-.303.338-.265.398-.572l.271.223c.158-.015.156-.156.31-.153.122.212.315.191.521.207l-1.514-6.366c-.338-.196-.546.184-.888-.155-.229-.147-.228-.346-.277-.507.094-.242.443.024.749.112.058.196.201.227.346.253l-2.063-8.672 10.411 9.583c.072-.042.127-.097.131-.195.033.136.234.066.302.1.234-.055.133-.325.175-.483l-11.366-10.462-1.701-7.153a.99.99 0 0 1 .238-.913.993.993 0 0 1 .89-.313l7.269 1.105.181.167c-.016-.071-.027-.141-.041-.212l.11.093.045-.087-.025-.048c.112.193.382.304.356.569l-.06.039 7.866 7.24.072-.035-.072-.139.141.054.04-.21c.036.069.113.242.259.255l.052-.14c.05-.026.048.477.268.225.015.271.186.555.133.813l.756.696.162.008c-.146-.183-.051-.314-.003-.379l.034.209c.154.115.248.277.43.325-.018-.053.002-.103.094-.078l.01.12c.238.156.382.15.468.089.065.279.406.579.686.873l.156.013c-.174-.065-.08.146-.152.174.267.213.103.316.086.459l3.824 3.521c.072.001.139.097.168-.055-.006-.084.091.104.11-.032.056.109.164.028.224.097l.009-.03c.018.205.314.001.304.345.199.047-.011.27.094.353l-.065.1 2.657 2.446.024-.099c.129.034.096-.175.237-.124.035.044.091.129.159.067.037.119.18.222.041.369l-.172.053.857.788-.003-.029.102.073-.012-.145c.07.089.16.092.265.1l.01-.029c.215.075.343.322.389.511l-.032.18 6.834 6.291.029-.04c.04.288.284.006.383-.069-.199-.168-.143-.466-.115-.614l.095.31c.187.049.327.229.523.144l-.004-.032-27.501-25.316 11.298 1.717-.051-.051.071.027-.405-.613.124.086c-.015-.266.003-.421.021-.699.296-.206.969.079 1.289-.049.321.15-.012.104.089.275.101.048.294.286.26.107.093.187.258.316.359.487l.164.006c.065.201.004.278.257.523.146.004.006-.172.192-.128-.176.039-.139.215-.149.367l19.192 2.916c.203.031.386.121.53.253.144.133.249.308.297.508l1.337 5.623c.059.036.122.08.2.162-.071.052-.077.143-.106.235l6.223 26.168-11.721-10.79c-.368.174-.285.458-.416.756l12.484 11.492 1.701 7.153a.991.991 0 0 1-.238.913.992.992 0 0 1-.89.313l-7.269-1.105-13.092-12.051-.016.031.071.064-.187.098c.097.138-.158.058-.096.227-.094-.048-.131.003-.149.069.101.081.233.132.307.128l.048-.198c.098.285.247.6.176.864l11.455 10.544-6.788-1.031c.154.206.302.412.439.593-.075.412-.263.818-.373 1.23.056.02.13.059.205.063a1.3 1.3 0 0 0-.286.144l15.251 2.318.001.001a3.01 3.01 0 0 0 2.67-.939 3.032 3.032 0 0 0 .71-2.743zm-50.364-35.824l.011.039-.032-.018.021-.021zm-.038-.022l.003.01-.024-.031.021.021zm-4.655-7.499l-.074.043-.013-.073.087.03zm-.191-.448l-.005.021-.031-.026.036.005zm-.18.027l-.058.005-.003-.026.061.021zm-.997-1.376l-.069.021-.004-.038.073.017zm20.447 7.916l-.022.049-.037-.054.059.005zm-.372-.512c.052.076-.029.101-.065.145l-.007.073.007-.073c-.011-.071-.047-.153.065-.145zm-7.621-8.994c.048-.101-.062-.119-.097-.188l.06-.006c-.056-.133.058-.08.037-.219l.03.01-.001-.125c.081.134.149-.077.195.087l.09-.046c-.014.17.319.401.112.607-.164.147-.296-.037-.426-.12zm3.419.701c-.004.039.098-.027.093-.112l.032.109-.039.046-.086-.043zm6.041 1.09c-.1.077-.236-.015-.305-.08l-.123-.237.029.01.054-.14.029.01.014-.097c.036.071.137.119.14.054.113.166.288.265.162.48zm1.509-1.061l.126.123-.126-.123zm1.155 1.144c-.037-.092-.096-.223.01-.224.126.123.064-.043.092-.056.185.253-.178.06-.102.28zm22.144 8.811c-.013-.085-.046-.155.053-.195.188.018.095.243-.053.195zm.382.472c-.091-.059-.12-.162-.059-.24.274-.107.244.292.059.24zm.554-.313c.169.033.03.102-.012.166.005-.066-.126-.096.012-.166zm-.137 5.5c-.131-.029-.139-.18-.152-.264.086-.126.234-.078.345-.035.084.158-.057.261-.193.299zm4.446 15.043c-.153.02-.26-.087-.391-.115-.294-.156-.07-.421-.154-.61.177-.101.272-.11.488-.242.282.04.172.28.454.319-.039.346-.03.529-.397.648z"/><path fill="#78CDEF" d="M205.736 111.907c-.708.769-1.061 1.534-1.061 2.294.001.76.356 1.466 1.064 2.118s1.441.947 2.199.886c.758-.063 1.489-.476 2.193-1.241.706-.767 1.059-1.529 1.059-2.283.001-.756-.355-1.46-1.064-2.113-.71-.654-1.443-.953-2.196-.897-.755.055-1.487.467-2.194 1.236zm2.394.057c.439-.08.855.06 1.244.419.778.716.688 1.594-.271 2.635-.956 1.039-1.826 1.198-2.608.479-.39-.359-.563-.76-.518-1.201.044-.442.304-.922.779-1.438.476-.515.933-.814 1.374-.894zM210.203 106.536a.503.503 0 0 0 .829-.487l-5.177-21.767-9.025-1.371-.064.006-.009-.017-13.018-1.978a.503.503 0 0 0-.152.994l19.213 2.92c.116-.104.218-.216.287-.348.366-.082.025.172.183.339.115-.023.386.156.291-.089.102.131.224.193.342.267l.28.043.061-.057.031.071.757.115 5.021 21.109a.517.517 0 0 0 .15.25zm-13.808-23.08l-.016-.052.007-.015.009.067zm-10.942-1.368l-.036-.069.02-.01.036.069-.02.01zm10.838 1.578c-.125-.169-.136-.27-.092-.361-.002.132.297.366.092.361zm.183-.032l-.007-.055-.002-.012.002.012c.026.031.092.095.007.055zm.061-.169l.02.004.032.104-.052-.108zm6.28.625c.041-.03.134-.004.166.067l-.166-.067zm1.458.279c.166.067.047-.13.071-.178.268.211-.153.271-.003.538-.068-.107-.171-.252-.068-.36zm1.696 3.947c.19-.015.158.166.076.26-.071-.074-.121-.164-.076-.26zm1.342 4.873c.105-.141.01-.418.275-.427.09.092.325.231.181.402-.088.193-.323.021-.456.025zM187.116 94.767c-.708.769-1.061 1.534-1.061 2.294.001.76.356 1.467 1.064 2.118.708.652 1.441.947 2.199.886.715-.059 1.405-.441 2.073-1.126.011-.091-.004-.187.096-.228l.015.029.11-.041c.631-.724.958-1.444.958-2.158.001-.756-.355-1.46-1.064-2.113-.71-.654-1.443-.953-2.196-.897-.755.054-1.486.467-2.194 1.236zm-.075 4.305a.347.347 0 0 1-.177-.173c.028-.04.037-.121.118-.062l.004-.041c.079.01.145.088.18.181-.042.038-.041.138-.125.095zm3.965-4.358l.013.017-.173-.013-.012-.017.172.013zm-1.496.11c.439-.08.855.06 1.244.419.778.716.688 1.594-.271 2.635-.956 1.039-1.826 1.198-2.608.479-.39-.359-.563-.76-.518-1.201l.013-.061-.016-.026.021.003.013-.061a.599.599 0 0 1 .027-.186l.011.014c.111-.352.346-.725.71-1.121.477-.515.934-.814 1.374-.894zM182.963 89.362c.441-.479.625-.973.556-1.483-.07-.509-.385-1.023-.945-1.539l-1.477-1.359-.616.669c.069.051.143.098.175.138.06-.095.513.053.5-.174.339.209.528.34.952.537-.009.12.081.298.263.446l.066-.014c-.055.186-.186.213.1.505l.072.021c-.158-.009-.143-.094-.333-.173.045.089-.165.06-.028.17-.176-.021-.384-.085-.548-.088l.084.077c.267.246.414.482.437.707.025.225-.069.453-.28.682a.879.879 0 0 1-.527.282c-.043.033-.022.091-.104.12l-.018-.017-.031.044-.019-.036-.12-.018-.03-.043-.023.007.025-.025-.052-.009.016-.048a1.617 1.617 0 0 1-.662-.388l-.322-.297 1.214-1.319c-.234-.159-.534-.302-.388-.391-.255-.193-.167-.425-.426-.692l-1.56 1.694.025.028-.039.071-.061-.007-.004-.007-.787.856-.065.07-.996 1.082c-.006.096.023.219.046.335l.788.725 1.513-1.644.421.387c.109.101.219.184.328.267l.012.008.021-.019c.048.053.126.051.154.12l.012.033c.392.257.779.401 1.162.418.556.025 1.062-.211 1.519-.709zm-1.891-3.839l-.05-.071.097.057-.047.014zm1.471.946l-.006-.035.039.002-.033.033zm-3.512.913l-.004-.04.035.019-.031.021zm.686-.291l-.065-.096-.021-.011.051-.01-.05-.027.038.001-.004-.028.029-.004-.004-.028.032-.002-.002-.066-.064-.05.029-.004-.028-.033-.009.002.026-.012-.047-.033.07-.046-.014-.008.072-.014-.018-.026-.013-.002.009-.003.004.005.042-.018-.006-.01.158.032c.077-.03.101.066.144.086l.008.069-.065.121-.089.032.039.131c-.01.082-.087.048-.13.085l-.1-.035-.022.002zm-1.242 2.162l-.145.047-.008.015-.021-.046-.025-.025-.072-.002.026-.012-.044-.024-.002-.111-.027-.007.041-.004.003-.006-.046-.037.079-.01-.028-.034.076.003.002-.025.058.013v-.035c.068.053.22.07.212.206l-.075.104-.004-.01zm.744-.73l-.044-.005-.008.015-.091-.015-.111-.048c-.035 0 .01-.097-.061-.079l-.032.01.039-.051-.058.002.035-.08-.058-.012.06-.04-.036-.039.048-.019-.035-.056.094-.04.032-.036-.004-.014.025.025.061-.013.012-.057.06.059c.073-.051.085.069.138.055l.028.046.029-.003.029.115.012.063-.004.043-.039.059.008.05-.05-.027c.03.076-.068.023-.079.092zm1.141-1.05l.063-.012-.007.049-.056-.037zm.061 1.851l-.021-.011.022-.042-.026.013.038-.036.038.05-.051.026zm1.233.406l-.062.031.045-.086-.047.001.021-.061h-.035l.022-.041-.042-.007.031-.03-.036-.034.008-.052-.026-.014.056-.042-.05-.026.043-.023-.037-.038.075-.006-.005-.055.034-.028-.025-.024h.064l-.007-.022.043.004-.007-.038.08-.015.004-.043.01.016.059-.026.074-.104.042-.016.025.025.043.004.06.058-.01.093.064-.057v.109l.032-.01.026.051-.001.053.027.006-.008.03.028-.004-.01.071.028.003-.029.056.015.072-.004.081-.04.005.023.058-.045-.016-.025.062.009.005-.047.054h-.02l-.004.059-.062-.033-.028.068-.001-.064c-.093-.019-.089.126-.181.086l-.032-.062-.098.012-.067-.096zM193.936 116.715c-.105-.074-.2-.163-.305-.253l.139-.109c-.25-.321-.738-.033-1.016-.17.327-.097 1.038.087.908-.361l-.095-.181-14.545-2.21-5.021-21.109a.503.503 0 0 0-.977.234l1.118 4.699c.118.085.333.156.464.257.118.212.022.432-.295.456l3.89 16.357 15.735 2.39zm-.589-.256l.017.019-.267.049c.023-.083.173-.039.25-.068z"/></svg>