<?xml version="1.0" encoding="utf-8"?>
<!-- Generator: Adobe Illustrator 21.1.0, SVG Export Plug-In . SVG Version: 6.00 Build 0)  -->
<svg version="1.0" id="Layer_1" xmlns="http://www.w3.org/2000/svg" xmlns:xlink="http://www.w3.org/1999/xlink" x="0px" y="0px"
	 viewBox="0 0 300 300" enable-background="new 0 0 300 300" xml:space="preserve">
<g>
	<path fill="#E8E8E8" d="M283.707,165.194l-47.73,47.73l-70.785,70.785c-0.957,0.957-1.981,1.805-3.054,2.536
		c-8.364,5.745-19.897,4.898-27.331-2.536l-2.536-2.537l-72.073-72.073l-43.905-43.905c-8.391-8.392-8.391-21.994,0-30.385
		L134.807,16.293c8.392-8.391,21.994-8.391,30.385,0l118.515,118.515C292.099,143.199,292.099,156.802,283.707,165.194"/>
	<path fill="#D5D5D5" d="M118.723,267.623l13.548,13.548c1.106,0.198,2.234,0.396,3.384,0.6c10.312,1.822,19.077,3.291,26.484,4.474
		c1.073-0.732,2.097-1.579,3.054-2.536l7.202-7.202c-9.338-1.321-23.142-3.469-42.82-6.939
		C125.734,268.891,122.119,268.242,118.723,267.623 M195.9,246.377l-1.295,7.344c-0.045,0.254-0.102,0.503-0.171,0.746l7.097-7.097
		L195.9,246.377 M227.246,192.042c-0.009,0.148-0.022,0.295-0.04,0.444c-0.654,5.422-1.834,13.955-3.862,25.458
		c-0.595,3.376-1.172,6.488-1.721,9.333l14.355-14.355c0.716-4.754,1.227-8.634,1.585-11.61c0.495-4.1-2.305-7.858-6.366-8.573
		L227.246,192.042 M97.096,71.723c0.643,1.755,2.189,3.102,4.123,3.443l3.83,0.677c-3.313,0.616-5.965,3.346-6.312,6.873
		l-3.943,40.13l119.182,21.015l-6.696,37.973l3.663,0.646l6.967,1.228l4.569-25.921l0.688-3.89c2.262-0.891,4.044-2.817,4.677-5.294
		l10.582-41.258c0.88-3.428-0.671-6.906-3.577-8.617l3.83,0.677c0.316,0.056,0.63,0.083,0.942,0.083
		c2.245,0,4.303-1.403,5.067-3.588l0.028-0.083l-9.183-9.183c-0.552,1.992-1.06,3.594-1.5,4.859
		c-0.73,2.093-2.704,3.439-4.856,3.439c-0.298,0-0.6-0.026-0.902-0.079L97.096,71.723 M137.179,26.704
		c-0.607,0-1.142,0.348-1.397,0.872l14.223,2.508c-0.06-0.583-0.447-1.096-1.023-1.3c-1.029-0.369-2.834-0.88-5.827-1.409
		c-2.999-0.528-4.87-0.66-5.965-0.671C137.186,26.704,137.182,26.704,137.179,26.704"/>
	<path fill="#383838" d="M243.881,72.123c-1.092,6.194-2.483,9.945-3.519,12.061c-0.686,1.399-3.15,2.073-5.805,1.605L93.779,60.966
		c-2.655-0.468-4.74-1.945-4.906-3.494c-0.249-2.342-0.28-6.344,0.812-12.538c1.093-6.198,2.49-9.944,3.526-12.063
		c0.686-1.399,3.15-2.074,5.805-1.606l140.778,24.823c2.655,0.468,4.74,1.945,4.906,3.494
		C244.949,61.929,244.974,65.926,243.881,72.123"/>
	<path fill="#F9CE62" d="M238.905,71.247c-1.818,10.308-3.617,16.642-4.872,20.246c-0.831,2.383-3.275,3.798-5.758,3.36
		L96.582,71.632c-2.483-0.438-4.296-2.603-4.262-5.127c0.053-3.816,0.522-10.384,2.34-20.692c1.819-10.314,3.623-16.641,4.88-20.251
		c0.831-2.382,3.274-3.798,5.758-3.36l131.692,23.22c2.484,0.438,4.296,2.604,4.262,5.127
		C241.198,54.372,240.723,60.933,238.905,71.247"/>
	<path fill="#BCBCBC" d="M237.083,45.44c0.004,0.001,0.007,0.001,0.011,0.002C237.09,45.441,237.086,45.44,237.083,45.44
		 M225.686,43.429l11.305,1.993c0.028,0.005,0.056,0.01,0.084,0.016c-0.027-0.005-0.055-0.01-0.082-0.015L225.686,43.429"/>
	<path fill="#FAD87E" d="M230.138,53.993c-0.157,0-0.317-0.014-0.477-0.042L109.263,32.722c-1.484-0.261-2.475-1.676-2.213-3.16
		c0.233-1.323,1.384-2.255,2.683-2.255c0.157,0,0.317,0.014,0.477,0.042l120.398,21.229c1.484,0.261,2.475,1.676,2.213,3.16
		C232.588,53.062,231.437,53.993,230.138,53.993 M104.427,22.125c-0.117,0-0.234,0.004-0.349,0.012
		c-0.607,2.628-1.244,5.726-1.881,9.338c-1.696,9.62-2.134,15.746-2.18,19.304c-0.037,2.35,1.654,4.371,3.969,4.779l122.829,21.658
		c0.282,0.05,0.563,0.074,0.841,0.074c2.007,0,3.849-1.256,4.524-3.207c1.174-3.359,2.85-9.266,4.546-18.886
		c0.637-3.612,1.098-6.742,1.427-9.419c-0.334-0.149-0.688-0.263-1.06-0.337c-0.004-0.001-0.007-0.001-0.011-0.002
		c-0.003-0.001-0.006-0.001-0.008-0.002c-0.028-0.005-0.056-0.011-0.084-0.016l-11.305-1.993L105.297,22.202
		C105.006,22.15,104.714,22.125,104.427,22.125"/>
	<path fill="#FBE4A0" d="M109.733,27.307c-1.299,0-2.45,0.931-2.683,2.255c-0.261,1.484,0.729,2.899,2.213,3.16l120.398,21.229
		c0.16,0.028,0.32,0.042,0.477,0.042c1.299,0,2.45-0.931,2.683-2.255c0.262-1.484-0.729-2.899-2.213-3.16L110.21,27.349
		C110.05,27.321,109.89,27.307,109.733,27.307"/>
	<path fill="#C63442" d="M134.257,80.177l-13.738-2.422l9.05-51.323c0.126-0.717,0.747-1.237,1.476-1.231
		c1.049,0.01,2.84,0.14,5.71,0.646c2.87,0.506,4.598,0.997,5.586,1.346c0.687,0.243,1.093,0.944,0.966,1.661L134.257,80.177z"/>
	<path fill="#C63442" d="M203.681,92.418l-13.738-2.422l9.05-51.323c0.126-0.717,0.747-1.237,1.476-1.23
		c1.049,0.01,2.84,0.139,5.71,0.645c2.87,0.506,4.598,0.997,5.586,1.346c0.687,0.243,1.093,0.944,0.966,1.661L203.681,92.418z"/>
	<path fill="#D3464E" d="M87.441,160.703L76.06,225.246l-14.705-2.593c-3.891-0.686-6.572-4.286-6.099-8.214
		c0.654-5.423,1.826-13.957,3.855-25.46c2.027-11.496,3.844-19.917,5.084-25.235c0.899-3.854,4.65-6.32,8.541-5.633L87.441,160.703"
		/>
	<path fill="#D3464E" d="M223.344,217.945c-2.027,11.496-3.837,19.918-5.077,25.237c-0.898,3.853-4.65,6.319-8.541,5.634
		l-14.713-2.595l11.381-64.543l14.713,2.594c3.89,0.686,6.572,4.287,6.099,8.215C226.552,197.909,225.372,206.442,223.344,217.945"
		/>
	<path fill="#C63442" d="M190.988,272.264c-0.887,3.659-4.366,6.07-8.105,5.624c-7.964-0.951-24.219-3.192-53.308-8.321
		c-29.142-5.138-45.187-8.595-52.981-10.423c-3.673-0.862-6.119-4.327-5.692-8.076c0.306-2.681,1.212-8.579,2.017-13.142
		c0.837-4.751,1.653-8.556,2.338-11.436c0.912-3.838,4.648-6.302,8.533-5.617l105.471,18.598c3.879,0.684,6.55,4.268,6.099,8.181
		c-0.327,2.834-0.833,6.501-1.617,10.948C192.911,263.316,191.675,269.43,190.988,272.264"/>
	<polyline fill="#B73D44" points="82.898,159.902 71.518,224.445 75.181,225.091 86.562,160.548 82.898,159.902 	"/>
	<polyline fill="#B73D44" points="207.281,181.834 195.9,246.377 199.564,247.023 210.944,182.479 207.281,181.834 	"/>
	<path fill="#D3464E" d="M213.977,143.86l-19.372,109.861c-0.687,3.898-4.31,6.576-8.244,6.094
		c-11.629-1.446-35.419-4.53-53.7-7.754c-18.288-3.224-41.698-8.463-53.113-11.08c-3.862-0.893-6.35-4.648-5.663-8.546
		l19.372-109.861L213.977,143.86"/>
	<path fill="#C63442" d="M196,175.629l-11.498,65.209c-0.713,4.045-4.574,6.749-8.619,6.036l-82.062-14.47
		c-4.045-0.713-6.748-4.574-6.035-8.618l11.498-65.21c0.713-4.045,4.574-6.748,8.619-6.035l82.062,14.47
		C194.01,167.723,196.714,171.585,196,175.629"/>
	<path fill="#B73D44" d="M93.258,122.574l-1.221,6.924c0.724,0.649,1.58,1.148,2.542,1.476
		c11.358,3.839,37.634,12.363,56.662,15.718c19.021,3.354,46.635,4.332,58.621,4.61c0.053,0.001,0.106,0.002,0.16,0.002
		c0.959,0,1.879-0.176,2.734-0.519l1.221-6.924L94.795,122.845L93.258,122.574"/>
	<path fill="#D3464E" d="M217.897,141.989c-0.86,3.354-3.918,5.67-7.38,5.59c-11.985-0.277-39.596-1.259-58.619-4.614
		c-19.024-3.354-45.305-11.875-56.662-15.714c-3.28-1.109-5.362-4.33-5.023-7.777l3.993-40.613c0.401-4.086,4.032-7.072,8.119-6.678
		c8.387,0.808,25.695,3.053,60.436,9.178c34.741,6.126,51.772,9.936,59.93,12.046c3.975,1.028,6.365,5.075,5.345,9.052
		L217.897,141.989z"/>
	<path fill="#383838" d="M155.648,145.112l-8.01-1.412c-1.427-0.252-2.38-1.612-2.128-3.039L147.742,128
		c0.252-1.427,1.612-2.38,3.039-2.128l8.01,1.412c1.427,0.252,2.38,1.612,2.128,3.039l-2.232,12.661
		C158.436,144.411,157.075,145.364,155.648,145.112z"/>
	<path fill="#383838" d="M152.918,150.517l-4.563-0.805c-1.183-0.208-1.972-1.336-1.764-2.519l2.461-13.957
		c0.209-1.183,1.336-1.972,2.519-1.764l4.563,0.805c1.183,0.208,1.972,1.336,1.764,2.519l-2.461,13.957
		C155.229,149.936,154.101,150.726,152.918,150.517z"/>
	<path fill="#383838" d="M102.65,181.743l-1.307-0.231l-3.066,4.073l-1.495,8.477c-0.276,1.561,0.662,3.132,2.202,3.507
		c1.687,0.411,3.345-0.69,3.641-2.373l1.512-8.577L102.65,181.743"/>
	<path fill="#B8303D" d="M106.604,152.426c-3.542,0-6.684,2.541-7.32,6.149l-4.816,27.315c0.238,0.064,0.477,0.122,0.726,0.166
		l2.909,0.513l0.173-0.984l3.066-4.073l1.307,0.231l1.488,4.876l-0.173,0.984l86.48,15.249c0.249,0.043,0.493,0.072,0.739,0.093
		L196,175.629c0.077-0.435,0.114-0.867,0.114-1.293c0.003-3.545-2.539-6.689-6.149-7.326l-82.062-14.47
		C107.467,152.463,107.032,152.426,106.604,152.426"/>
	<polyline fill="#343434" points="101.342,181.512 98.276,185.585 98.103,186.569 103.964,187.603 104.138,186.619 102.65,181.743 
		101.342,181.512 	"/>
	<path fill="#C63442" d="M95.84,182.395c-2.023-0.357-3.374-2.286-3.017-4.309l3.531-20.027c0.999-5.665,6.401-9.448,12.067-8.449
		l82.062,14.47c5.665,0.999,9.448,6.401,8.449,12.067l-3.531,20.027c-0.357,2.024-2.286,3.375-4.31,3.018L95.84,182.395z"/>
</g>
</svg>
