<?xml version="1.0" encoding="utf-8"?>
<!-- Generator: Adobe Illustrator 22.0.1, SVG Export Plug-In . SVG Version: 6.00 Build 0)  -->
<svg version="1.1" id="Layer_1" xmlns="http://www.w3.org/2000/svg" xmlns:xlink="http://www.w3.org/1999/xlink" x="0px" y="0px"
	 viewBox="0 0 300 300" style="enable-background:new 0 0 300 300;" xml:space="preserve">
<style type="text/css">
	.st0{fill:#E8E8E8;}
	.st1{fill:#D5D5D5;}
	.st2{fill:#FFCF59;}
	.st3{fill:#F0C055;}
	.st4{fill:#FFFFFF;}
	.st5{fill:#F3444D;}
	.st6{fill:#F2F2F2;}
	.st7{fill:#FFCF59;stroke:#F0C055;stroke-width:1.3289;stroke-miterlimit:10;}
</style>
<g>
	<path class="st0" d="M283.6,165.2L165.2,283.6c-1,1-2,1.8-3.1,2.5c-8.4,5.7-19.9,4.9-27.3-2.5l-2.5-2.5l-7.5-7.5l-53.3-53.3
		L60.2,209l-11.5-11.5l-32.4-32.4c-8.4-8.4-8.4-22,0-30.4L134.8,16.3c8.4-8.4,22-8.4,30.4,0l118.5,118.5
		C292,143.2,292,156.8,283.6,165.2z"/>
	<path class="st1" d="M200.4,203.7c0.2,0.7,0.1,1.5-0.1,2.3c0,0-0.3,3.5-7.1,6.7l2.3-0.5c0.4-0.1,0.8-0.2,1.2-0.2
		c2.1-0.2,7.6-0.1,6.9,5.4c-0.4,3-2.4,5.6-5.2,6.9l-7.9,3.3c1.8-0.5,3.7-0.5,5.5,0c3,0.8,6.1,3.1,2.4,9.6
		c-6.1,10.6-49.5,20.9-49.5,20.9s-5.5,7.9-20.1,14.7c-1.4,0.4-2.8,0.7-4.1,0.9l-53.3-53.3c0.8-2.8,2.2-5.9,4.1-9.1
		c7.2-11.9,10.5-18.3,12-21.9c0.9-2.2,2.6-4,4.7-5.1c-9-12.8-14.4-28.4-14.4-45.2c0-43.2,35.1-78.3,78.3-78.3
		c43.2,0,78.3,35.1,78.3,78.3C234.5,165.9,221,189.6,200.4,203.7z"/>
	<g>
		<g id="XMLID_1_">
			<g>
				<path class="st2" d="M70.7,239.6c3.1,3.6,6.3,5.6,6.7,5.8C77,245.1,73.3,242.4,70.7,239.6z M70.6,239.6
					c-0.6-0.7-1.3-1.6-1.9-2.4C69.2,237.9,69.9,238.8,70.6,239.6z M110.1,269.2c-0.2,0.1-5.8,4.1-9.8,8.6c-3,3.5-7.7,4.9-12.2,3.8
					c-16.9-4.3-28.4-14.5-33.9-20.5c-2.3-2.5-2.5-6.4-0.5-9.2c9.9-13.2,15-14.9,15-14.9c-4.4-6.4-7.2-16.5,1-30
					c7.2-11.9,10.5-18.3,12-21.9c1.2-2.7,3.5-4.8,6.3-5.7c8.6-2.8,25.5-9.5,30.4-21c4.2-9.8,8.6-8.9,11.3-6.8
					c1.7,1.3,2.8,3.2,3.4,5.2c1.7,5.9,3.9,22.2-15.4,34.5l-9,5.6c0.9-0.3,70.9-24,66.1-1c-19.4,2.5-46.1,10.9-46.9,10.7c0,0,0,0,0,0
					c0,0,0,0,0,0c5.9,2.9,12.3,6.9,17.8,11.9l0.4-0.5l41.4-9.5l2.3-0.5c0.4-0.1,0.8-0.2,1.2-0.2c2.1-0.2,7.6-0.1,6.9,5.4
					c-0.4,3-2.4,5.6-5.2,6.9l-7.9,3.3c1.8-0.5,3.7-0.5,5.5,0c3,0.8,6.1,3.1,2.4,9.6c-6.1,10.6-49.5,20.9-49.5,20.9
					s-5.5,7.9-20.1,14.7c-4.9,1.4-9.1,1.5-12.7,0.7C110.3,269.3,110.2,269.2,110.1,269.2L110.1,269.2z"/>
				<path class="st2" d="M194.5,201.9c0,0-0.3,3.5-7.1,6.7l-41.4,9.5l-0.4,0.5c-5.5-5.1-11.9-9-17.8-11.9
					c0.7,0.2,27.5-8.2,46.9-10.7C186.9,194.5,196.1,195.3,194.5,201.9z"/>
				<path class="st2" d="M127.9,206.7C127.9,206.7,127.9,206.7,127.9,206.7C127.9,206.7,127.9,206.7,127.9,206.7z"/>
				<path class="st2" d="M70.7,239.6c2.6,2.8,6.3,5.5,6.7,5.8C77,245.2,73.8,243.3,70.7,239.6z"/>
				<path class="st2" d="M70.6,239.6c-0.8-0.8-1.4-1.7-1.9-2.4C69.4,238,70,238.8,70.6,239.6z"/>
			</g>
			<g>
			</g>
		</g>
		<g>
			<path class="st3" d="M131,208.7c0.2,0,0.4,0.1,0.5,0.2l0.2,0.1l0.4,0.3c0.3,0.2,0.6,0.4,0.8,0.6c0.5,0.4,1.1,0.8,1.6,1.2
				c1,0.8,2,1.8,3,2.7c1.9,1.9,3.6,4,5.1,6.3c1.5,2.3,2.7,4.7,3.6,7.3c1,2.6,1.3,5.3,1.6,8c0,0.5-0.3,0.9-0.8,1
				c-0.5,0-0.9-0.3-1-0.8c0,0,0,0,0,0l0-0.1c-0.2-2.6-0.4-5.2-1.3-7.6c-0.8-2.5-1.8-4.9-3.2-7.1c-1.4-2.2-3-4.3-4.8-6.2
				c-0.9-0.9-1.9-1.9-2.9-2.7c-0.5-0.4-1-0.9-1.5-1.3c-0.3-0.2-0.5-0.4-0.8-0.6l-0.4-0.3l-0.2-0.1c-0.1,0,0,0,0.1-0.1
				c-0.2,0-0.5-0.2-0.5-0.4C130.5,209,130.7,208.7,131,208.7z"/>
		</g>
		<g>
			<circle class="st4" cx="150" cy="134.7" r="78.8"/>
			<g>
				<g>
					<path class="st5" d="M170.5,115.4l2.5,0.5C172.3,115.6,171.4,115.5,170.5,115.4z"/>
					<path class="st5" d="M152.2,57.2c-1.1,0-2.2,0.1-3.3,0.2c-3.5,0.3-4.9,1.9-8,3.3c-1.9,0.8-1.3,0.5-3.5,0.4
						c-1.4-0.1-2.9-0.6-4.5-0.1c-3,1.1-4.4,4.1-7.6,4.9c-3.7,0.9-7.8-0.5-11.5,0.8c-3.1,1.1-5.8,3.2-8.2,5.3c-2.3,2-6,2.9-6.1,6.3
						c5.5,1.1,10.3-7.9,11.3,1.8c0.3,2.7,1.5,5.2,1.7,7.9c0.2,2.6-0.9,4.7-1,7.3c-0.3,6,4.9,10.4,8.2,15.1
						c2.2,3.1,5.3,11.6,9.7,11.1c3-5.7-9.7-8.5-9.2-14.3c4.9-1.2,10.8,10.7,13.1,14.4c3.7,6,9.8,6.8,16.5,7.2
						c3.2,0.2,4.4,1.5,6.9,2.4c1.6,0.6,3.8,0.3,5.4,1.1c1.1,0.6,2.1,1.9,3.2,2.6c1.4,0.9,15.4,9.9,13,2.2c-2.2-0.4-6.5-1-7.8-2.9
						c-1.3-1.9-8.3-6.9-8.6-11.9l-0.4-4c-3-1.9-4.5,3.7-6.6,4.6c-6.1,2.6-11.1-4.9-8.8-10.1c1.9-4.5,14.6-7.8,18.9-6.5
						c3.1,0.9,4.3,4.5,7.1,5c1-3.3-4.4-4.3-2.6-8.4c1.4-3.3,4.5-4.3,5.1-8.6c0.4-2.9,1.7-6.3,4.5-7.9c2.8-1.6,7,0.4,6.9-4.8
						c1.8,0.2,3.7,0.1,3.4-2c-1.6-0.6-4-1-4.5-2.8c-0.8,0.1-2.5,5.5-3,3.5c-0.6-2.4,2.7-3.4,0.6-5.8c-0.7-0.8-2.4-0.4-3.3-0.9
						c-1.5-0.8-2.3-2.7-3.9-3.3c-1.8-0.6-5-0.1-6.5,0.6c-1-1.6-1.2-3.8-1.1-5.7c-1.9-0.8-4.2-0.2-6.2-0.7c-1.8-0.5-3.1-1.7-5.1-1.4
						c-0.9-5.2,8.1-2.4,10.1-1c1.5,1.1,2,2.6,3.3,3.7c1.5,1.3,3.5,1.9,5.4,2.6c1.7,0.7,9.1,3,6.3-1.8c-1.4-2.3-6.9-4.2-9.3-5.3
						c-2.2-1-4.9-1.9-6.8-2.4C160.7,57.5,152.2,57.2,152.2,57.2z"/>
					<path class="st5" d="M165.1,208h0.7c1.4-2,4.4-2.5,6.5-3.9c2.3-1.4,4.3-3.1,6.3-4.7c4.1-3.2,9.5-5.7,13.9-8.5
						c5.6-3.5,9.2-9.5,14.3-13.6l0,0c3.4-2.8,4.7-6,6.6-10.1c1.7-3.9,8.9-11.3,7.2-15c-3.8-1.5-6-2.1-7.7-6.1
						c-1.1-2.5-1.8-5.1-4.7-6.3c-1.2-0.5-3,0.1-4.1-0.5c-2.4-1.2-2.1-3.4-3.5-5c-2.9-3.2-7.8-3.4-12-3.5c-4.2-0.1-6,0.9-8.1,4.3
						c-1.9,3-0.7,5.2-1.6,8.4c-0.8,2.9-3.3,4-4.7,6.5c-1.4,2.4-1.4,5.7-0.4,8.6c2.7,8.3,13.8,17.1,9.5,25.8
						C178.7,193.5,170.2,199.7,165.1,208z"/>
					<path class="st5" d="M194.4,122.3c0.2-0.5,0.1-1.3,0-1.9c-0.5-0.2-1.1-0.4-1.7-0.4l0.7,0.4
						C191.6,121.2,192.6,122.3,194.4,122.3z"/>
					<path class="st5" d="M176.5,123c0.8,0.2,2.2,0.2,3,0c-0.2-1-0.9-1.3-2-1.7l0.8,0.6c-0.5-0.3-1.1-0.4-1.8-0.2
						C176.5,122.2,176.5,122.6,176.5,123L176.5,123z"/>
					<path class="st5" d="M172.8,116c0.1,0,0.1,0,0.2,0c0.4,2.6,2.1,1.5,3.8,2.4c1.6,0.9,0.6,3,3.8,2.2c0,0,0-0.9,0-0.9
						c-0.3-0.1-0.3,0.4-0.5,0.3c-0.1-0.5-0.7-1.4-0.8-2c-2.2,0.4-3.3-1.5-5-1.1c-0.3-0.5-0.7-0.7-1.2-0.8c0,0,0,0,0-0.1
						C172.9,116,172.9,116,172.8,116c-1.1-0.2-2.3,0.1-3.1-0.7c0.3,0,0.5,0.1,0.8,0.1l-0.9-0.2c0,0,0.1,0.1,0.1,0.1
						c-0.5,0-1-0.1-1.5-0.1c-0.1,0.4,0,0.8,0,1.3C169.8,116.7,171.4,116.3,172.8,116z"/>
				</g>
			</g>
			<path class="st6" d="M213.9,180.8c-12.9,17.9-33.3,30.3-57,32.4c-43.3,3.8-81.5-28.3-85.3-71.6c-2.3-26.7,8.9-51.4,28.1-67.4
				c-6.7,13.1-9.9,28.2-8.5,43.9c3.9,44.7,43.3,77.8,88.1,73.9C191.9,190.9,203.6,187,213.9,180.8z"/>
		</g>
		<g id="XMLID_3_">
			<g>
				<path class="st2" d="M105.9,199.1L105.9,199.1c0,0,26.7,12.8-0.9,33.6l-26.7,12.7c0,0-22.9-13.1-7.6-38.4
					c7.2-11.9,10.5-18.3,12-21.9c1.2-2.7,3.5-4.8,6.3-5.7c8.6-2.8,25.5-9.5,30.4-21c4.2-9.8,8.6-8.9,11.3-6.8
					c1.7,1.3,2.8,3.2,3.4,5.2c1.7,5.9,3.9,22.2-15.4,34.5L105.9,199.1z"/>
			</g>
			<g>
			</g>
		</g>
		<g>
			<path class="st3" d="M185.4,223.4l-28.3,8.4c-0.4,0.1-0.7-0.1-0.8-0.4c-0.1-0.4,0.1-0.7,0.4-0.8c0,0,0,0,0,0l28.5-7.5
				c0.1,0,0.2,0,0.2,0.1C185.5,223.3,185.5,223.4,185.4,223.4z"/>
		</g>
		<g>
			<path class="st3" d="M187.7,208.6l-41.4,10.3c-0.4,0.1-0.7-0.1-0.8-0.5s0.1-0.7,0.5-0.8c0,0,0,0,0,0l41.7-9.1c0,0,0.1,0,0.1,0.1
				C187.8,208.6,187.7,208.6,187.7,208.6z"/>
		</g>
		<path class="st7" d="M68.8,237.1c0,0,6,7.8,9.8,8.6"/>
		<path class="st7" d="M92.9,253.6c0,0,4.7,12.5,17.1,15.6"/>
		<g>
			<path class="st3" d="M116.4,208.7c0.8,2.3,1.2,4.7,1.1,7.2c-0.1,2.4-0.5,4.9-1.5,7.1c-0.2,0.6-0.5,1.1-0.8,1.7l-0.4,0.8l-0.5,0.8
				c-0.3,0.5-0.7,1-1,1.5l-1.2,1.4c-0.2,0.2-0.4,0.5-0.6,0.7l-0.7,0.6l-1.3,1.3c-0.9,0.8-2,1.5-2.9,2.2c-0.4,0.3-0.9,0.2-1.2-0.2
				c-0.3-0.4-0.2-0.9,0.2-1.2c0,0,0,0,0,0l0.1-0.1c1-0.7,1.9-1.3,2.9-2l1.3-1.1l0.7-0.6c0.2-0.2,0.4-0.4,0.6-0.6l1.2-1.3
				c0.4-0.4,0.7-0.9,1-1.4l0.5-0.7l0.4-0.8c0.3-0.5,0.6-1,0.8-1.5c1-2.1,1.6-4.4,1.7-6.7c0.2-2.3-0.1-4.7-0.7-7l0,0
				c0-0.1,0-0.3,0.2-0.3C116.2,208.5,116.4,208.6,116.4,208.7z"/>
		</g>
	</g>
</g>
</svg>
