<svg xmlns="http://www.w3.org/2000/svg" id="Layer_1" x="0" y="0" version="1.1" viewBox="0 0 300 300" xml:space="preserve"><style>.st2{fill:#ffcf59}.st3{fill:#f0c055}.st5{fill:#f3444d}.st7{fill:#ffcf59;stroke:#f0c055;stroke-width:1.3289;stroke-miterlimit:10}</style><path fill="#e8e8e8" d="M283.6 165.2L165.2 283.6c-1 1-2 1.8-3.1 2.5-8.4 5.7-19.9 4.9-27.3-2.5l-2.5-2.5-7.5-7.5-53.3-53.3L60.2 209l-11.5-11.5-32.4-32.4c-8.4-8.4-8.4-22 0-30.4L134.8 16.3c8.4-8.4 22-8.4 30.4 0l118.5 118.5c8.3 8.4 8.3 22-.1 30.4z"/><path fill="#d5d5d5" d="M200.4 203.7c.2.7.1 1.5-.1 2.3 0 0-.3 3.5-7.1 6.7l2.3-.5c.4-.1.8-.2 1.2-.2 2.1-.2 7.6-.1 6.9 5.4-.4 3-2.4 5.6-5.2 6.9l-7.9 3.3c1.8-.5 3.7-.5 5.5 0 3 .8 6.1 3.1 2.4 9.6-6.1 10.6-49.5 20.9-49.5 20.9s-5.5 7.9-20.1 14.7c-1.4.4-2.8.7-4.1.9l-53.3-53.3c.8-2.8 2.2-5.9 4.1-9.1 7.2-11.9 10.5-18.3 12-21.9.9-2.2 2.6-4 4.7-5.1-9-12.8-14.4-28.4-14.4-45.2 0-43.2 35.1-78.3 78.3-78.3 43.2 0 78.3 35.1 78.3 78.3.1 26.8-13.4 50.5-34 64.6z"/><g id="XMLID_1_"><path d="M70.7 239.6c3.1 3.6 6.3 5.6 6.7 5.8-.4-.3-4.1-3-6.7-5.8zm-.1 0c-.6-.7-1.3-1.6-1.9-2.4.5.7 1.2 1.6 1.9 2.4zm39.5 29.6c-.2.1-5.8 4.1-9.8 8.6-3 3.5-7.7 4.9-12.2 3.8-16.9-4.3-28.4-14.5-33.9-20.5-2.3-2.5-2.5-6.4-.5-9.2 9.9-13.2 15-14.9 15-14.9-4.4-6.4-7.2-16.5 1-30 7.2-11.9 10.5-18.3 12-21.9 1.2-2.7 3.5-4.8 6.3-5.7 8.6-2.8 25.5-9.5 30.4-21 4.2-9.8 8.6-8.9 11.3-6.8 1.7 1.3 2.8 3.2 3.4 5.2 1.7 5.9 3.9 22.2-15.4 34.5l-9 5.6c.9-.3 70.9-24 66.1-1-19.4 2.5-46.1 10.9-46.9 10.7 5.9 2.9 12.3 6.9 17.8 11.9l.4-.5 41.4-9.5 2.3-.5c.4-.1.8-.2 1.2-.2 2.1-.2 7.6-.1 6.9 5.4-.4 3-2.4 5.6-5.2 6.9l-7.9 3.3c1.8-.5 3.7-.5 5.5 0 3 .8 6.1 3.1 2.4 9.6-6.1 10.6-49.5 20.9-49.5 20.9s-5.5 7.9-20.1 14.7c-4.9 1.4-9.1 1.5-12.7.7-.1 0-.2-.1-.3-.1z" class="st2"/><path d="M194.5 201.9s-.3 3.5-7.1 6.7l-41.4 9.5-.4.5c-5.5-5.1-11.9-9-17.8-11.9.7.2 27.5-8.2 46.9-10.7 12.2-1.5 21.4-.7 19.8 5.9zM127.9 206.7zM70.7 239.6c2.6 2.8 6.3 5.5 6.7 5.8-.4-.2-3.6-2.1-6.7-5.8zM70.6 239.6c-.8-.8-1.4-1.7-1.9-2.4.7.8 1.3 1.6 1.9 2.4z" class="st2"/></g><path d="M131 208.7c.2 0 .4.1.5.2l.2.1.4.3c.3.2.6.4.8.6.5.4 1.1.8 1.6 1.2 1 .8 2 1.8 3 2.7 1.9 1.9 3.6 4 5.1 6.3 1.5 2.3 2.7 4.7 3.6 7.3 1 2.6 1.3 5.3 1.6 8 0 .5-.3.9-.8 1-.5 0-.9-.3-1-.8v-.1c-.2-2.6-.4-5.2-1.3-7.6-.8-2.5-1.8-4.9-3.2-7.1-1.4-2.2-3-4.3-4.8-6.2-.9-.9-1.9-1.9-2.9-2.7-.5-.4-1-.9-1.5-1.3-.3-.2-.5-.4-.8-.6l-.4-.3-.2-.1c-.1 0 0 0 .1-.1-.2 0-.5-.2-.5-.4 0-.1.2-.4.5-.4z" class="st3"/><circle cx="150" cy="134.7" r="78.8" fill="#fff"/><path d="M170.5 115.4l2.5.5c-.7-.3-1.6-.4-2.5-.5z" class="st5"/><path d="M152.2 57.2c-1.1 0-2.2.1-3.3.2-3.5.3-4.9 1.9-8 3.3-1.9.8-1.3.5-3.5.4-1.4-.1-2.9-.6-4.5-.1-3 1.1-4.4 4.1-7.6 4.9-3.7.9-7.8-.5-11.5.8-3.1 1.1-5.8 3.2-8.2 5.3-2.3 2-6 2.9-6.1 6.3 5.5 1.1 10.3-7.9 11.3 1.8.3 2.7 1.5 5.2 1.7 7.9.2 2.6-.9 4.7-1 7.3-.3 6 4.9 10.4 8.2 15.1 2.2 3.1 5.3 11.6 9.7 11.1 3-5.7-9.7-8.5-9.2-14.3 4.9-1.2 10.8 10.7 13.1 14.4 3.7 6 9.8 6.8 16.5 7.2 3.2.2 4.4 1.5 6.9 2.4 1.6.6 3.8.3 5.4 1.1 1.1.6 2.1 1.9 3.2 2.6 1.4.9 15.4 9.9 13 2.2-2.2-.4-6.5-1-7.8-2.9-1.3-1.9-8.3-6.9-8.6-11.9l-.4-4c-3-1.9-4.5 3.7-6.6 4.6-6.1 2.6-11.1-4.9-8.8-10.1 1.9-4.5 14.6-7.8 18.9-6.5 3.1.9 4.3 4.5 7.1 5 1-3.3-4.4-4.3-2.6-8.4 1.4-3.3 4.5-4.3 5.1-8.6.4-2.9 1.7-6.3 4.5-7.9 2.8-1.6 7 .4 6.9-4.8 1.8.2 3.7.1 3.4-2-1.6-.6-4-1-4.5-2.8-.8.1-2.5 5.5-3 3.5-.6-2.4 2.7-3.4.6-5.8-.7-.8-2.4-.4-3.3-.9-1.5-.8-2.3-2.7-3.9-3.3-1.8-.6-5-.1-6.5.6-1-1.6-1.2-3.8-1.1-5.7-1.9-.8-4.2-.2-6.2-.7-1.8-.5-3.1-1.7-5.1-1.4-.9-5.2 8.1-2.4 10.1-1 1.5 1.1 2 2.6 3.3 3.7 1.5 1.3 3.5 1.9 5.4 2.6 1.7.7 9.1 3 6.3-1.8-1.4-2.3-6.9-4.2-9.3-5.3-2.2-1-4.9-1.9-6.8-2.4-4.7-1.4-13.2-1.7-13.2-1.7z" class="st5"/><path d="M165.1 208h.7c1.4-2 4.4-2.5 6.5-3.9 2.3-1.4 4.3-3.1 6.3-4.7 4.1-3.2 9.5-5.7 13.9-8.5 5.6-3.5 9.2-9.5 14.3-13.6 3.4-2.8 4.7-6 6.6-10.1 1.7-3.9 8.9-11.3 7.2-15-3.8-1.5-6-2.1-7.7-6.1-1.1-2.5-1.8-5.1-4.7-6.3-1.2-.5-3 .1-4.1-.5-2.4-1.2-2.1-3.4-3.5-5-2.9-3.2-7.8-3.4-12-3.5-4.2-.1-6 .9-8.1 4.3-1.9 3-.7 5.2-1.6 8.4-.8 2.9-3.3 4-4.7 6.5-1.4 2.4-1.4 5.7-.4 8.6 2.7 8.3 13.8 17.1 9.5 25.8-4.6 9.1-13.1 15.3-18.2 23.6zM194.4 122.3c.2-.5.1-1.3 0-1.9-.5-.2-1.1-.4-1.7-.4l.7.4c-1.8.8-.8 1.9 1 1.9zM176.5 123c.8.2 2.2.2 3 0-.2-1-.9-1.3-2-1.7l.8.6c-.5-.3-1.1-.4-1.8-.2v1.3zM172.8 116h.2c.4 2.6 2.1 1.5 3.8 2.4 1.6.9.6 3 3.8 2.2v-.9c-.3-.1-.3.4-.5.3-.1-.5-.7-1.4-.8-2-2.2.4-3.3-1.5-5-1.1-.3-.5-.7-.7-1.2-.8v-.1h-.3c-1.1-.2-2.3.1-3.1-.7.3 0 .5.1.8.1l-.9-.2.1.1c-.5 0-1-.1-1.5-.1-.1.4 0 .8 0 1.3 1.6.2 3.2-.2 4.6-.5z" class="st5"/><path fill="#f2f2f2" d="M213.9 180.8c-12.9 17.9-33.3 30.3-57 32.4-43.3 3.8-81.5-28.3-85.3-71.6-2.3-26.7 8.9-51.4 28.1-67.4-6.7 13.1-9.9 28.2-8.5 43.9 3.9 44.7 43.3 77.8 88.1 73.9 12.6-1.1 24.3-5 34.6-11.2z"/><g id="XMLID_3_"><path d="M105.9 199.1s26.7 12.8-.9 33.6l-26.7 12.7s-22.9-13.1-7.6-38.4c7.2-11.9 10.5-18.3 12-21.9 1.2-2.7 3.5-4.8 6.3-5.7 8.6-2.8 25.5-9.5 30.4-21 4.2-9.8 8.6-8.9 11.3-6.8 1.7 1.3 2.8 3.2 3.4 5.2 1.7 5.9 3.9 22.2-15.4 34.5l-12.8 7.8z" class="st2"/></g><g><path d="M185.4 223.4l-28.3 8.4c-.4.1-.7-.1-.8-.4-.1-.4.1-.7.4-.8l28.5-7.5c.1 0 .2 0 .2.1.1.1.1.2 0 .2z" class="st3"/></g><g><path d="M187.7 208.6l-41.4 10.3c-.4.1-.7-.1-.8-.5s.1-.7.5-.8l41.7-9.1s.1 0 .1.1h-.1z" class="st3"/></g><path d="M68.8 237.1s6 7.8 9.8 8.6M92.9 253.6s4.7 12.5 17.1 15.6" class="st7"/><g><path d="M116.4 208.7c.8 2.3 1.2 4.7 1.1 7.2-.1 2.4-.5 4.9-1.5 7.1-.2.6-.5 1.1-.8 1.7l-.4.8-.5.8c-.3.5-.7 1-1 1.5l-1.2 1.4c-.2.2-.4.5-.6.7l-.7.6-1.3 1.3c-.9.8-2 1.5-2.9 2.2-.4.3-.9.2-1.2-.2-.3-.4-.2-.9.2-1.2l.1-.1c1-.7 1.9-1.3 2.9-2l1.3-1.1.7-.6.6-.6 1.2-1.3c.4-.4.7-.9 1-1.4l.5-.7.4-.8c.3-.5.6-1 .8-1.5 1-2.1 1.6-4.4 1.7-6.7.2-2.3-.1-4.7-.7-7 0-.1 0-.3.2-.3-.1 0 .1.1.1.2z" class="st3"/></g></svg>