<svg width="16" height="25" xmlns="http://www.w3.org/2000/svg"><path d="M14.942 10.953c-.343 0-.622.25-.622.56v1.756h-.06a1.168 1.168 0 0 0-.432-.39v-7.5C13.828 2.49 11.214.136 8 .136 4.79.137 2.175 2.49 2.175 5.38v7.5a1.16 1.16 0 0 0-.43.388H1.68V11.51c0-.308-.278-.56-.622-.56-.343 0-.62.25-.62.56v2.316c0 3.155 2.4 5.807 5.64 6.575v.848c0 .757.546 1.396 1.3 1.63v.366H5.29c-.342 0-.62.25-.62.56 0 .308.277.56.62.56l5.42-.002c.342 0 .62-.25.62-.56 0-.306-.278-.557-.62-.557H8.62v-.366c.756-.235 1.303-.874 1.303-1.63v-.85c3.24-.767 5.64-3.42 5.64-6.574V11.51c0-.31-.28-.56-.62-.56zm-2.55 3.994c-.546 1.73-2.298 3.007-4.392 3.007-2.094 0-3.846-1.278-4.392-3.007h8.784zM8 1.257c2.315 0 4.215 1.557 4.522 3.566h-3.22c-.343 0-.622.25-.622.56 0 .308.28.558.62.558h3.284v1.385H9.3c-.34 0-.62.25-.62.56 0 .308.28.558.62.558h3.284v1.38H9.3c-.34 0-.62.25-.62.56 0 .31.28.56.62.56h3.284v1.77H3.416v-1.77H6.7c.34 0 .62-.25.62-.56 0-.31-.278-.56-.62-.56H3.415V8.44H6.7c.34 0 .62-.25.62-.56 0-.308-.278-.558-.62-.558H3.415v-1.38H6.7c.34 0 .62-.25.62-.56 0-.31-.278-.56-.62-.56H3.477C3.785 2.812 5.685 1.257 8 1.257zm.68 19.99c0 .34-.305.613-.68.613-.375 0-.68-.274-.68-.612v-.644c.225.018.45.03.68.03.23 0 .455-.012.68-.03v.644zM8 19.517c-3.275 0-5.976-2.254-6.288-5.13h.03c.13.198.31.36.543.457.527 2.408 2.888 4.23 5.716 4.23 2.83 0 5.19-1.822 5.72-4.23.23-.095.413-.26.543-.455h.03c-.313 2.87-3.014 5.13-6.29 5.13z" fill-rule="evenodd" opacity=".9"/></svg>