<svg width="17" height="22" xmlns="http://www.w3.org/2000/svg"><path d="M16.17 1.31c0-.48-.288-.868-.644-.868H.976C.62.442.33.832.33 1.31v17.74c0 1.466.888 2.66 1.98 2.66h1.996c.59 0 1.12-.35 1.484-.904.363.553.892.903 1.482.903h1.996c.59 0 1.12-.355 1.484-.908.364.553.894.904 1.486.904h1.95c1.093 0 1.982-1.194 1.982-2.66V1.306zm-14.847.466h13.855V4.43H1.323V1.775zm2.983 18.6H2.31c-.544 0-.988-.596-.988-1.327V5.76h2.934v7.108c0 .11.067.2.15.2h.888v5.98c0 .73-.443 1.326-.988 1.326zm4.962 0H7.272c-.543 0-.985-.596-.985-1.327v-5.98h.79c.083 0 .15-.09.15-.2V5.76H9.27v7.108c0 .11.065.2.146.2h.84v5.98c0 .73-.444 1.326-.99 1.326zm5.91-1.327c0 .73-.444 1.323-.99 1.323h-1.95c-.546 0-.99-.596-.99-1.327v-5.98h.84c.083 0 .15-.09.15-.2V5.762h2.94V19.05z" fill-rule="evenodd" opacity=".9"/></svg>