<svg width="16" height="22" xmlns="http://www.w3.org/2000/svg"><g fill-rule="evenodd" opacity=".9"><path d="M15.197 19.874l-.59-5.57-1.364-12.916c-.057-.547-.492-.96-1.012-.96H3.24c-.52 0-.954.412-1.013.96L2 3.498l-.81-1.484a.593.593 0 0 0-.838-.237.667.667 0 0 0-.223.884l1.49 2.736-1.09.664a.32.32 0 0 0-.03.51l1.08.88L.27 19.873c-.034.306.06.61.252.84.193.226.47.358.76.358h12.903a1 1 0 0 0 .76-.356 1.106 1.106 0 0 0 .252-.838zM3.42 1.724h8.627l1.33 12.58h-5.48L6.7 12.112h2.37c.337 0 .61-.29.61-.647 0-.358-.274-.647-.61-.647H6.396a.583.583 0 0 0-.342.11L4.732 8.505l-.526-4.193c-.028-.22-.256-.338-.438-.228l-.64.39.29-2.75zm.25 7.426l2.813 5.154H2.088l.627-5.93.957.777zM1.51 19.776l.44-4.178h11.56l.443 4.178H1.51z"/><path d="M6.397 5.21h2.67c.34 0 .613-.29.613-.647 0-.357-.275-.646-.612-.646h-2.67c-.34 0-.613.29-.613.646 0 .357.274.647.612.647zm0 3.45h2.67c.34 0 .613-.288.613-.646 0-.357-.275-.647-.612-.647h-2.67c-.34 0-.613.29-.613.647 0 .358.274.647.612.647z"/></g></svg>