<?xml version="1.0" encoding="utf-8"?>
<!-- Generator: Adobe Illustrator 22.0.1, SVG Export Plug-In . SVG Version: 6.00 Build 0)  -->
<svg version="1.1" id="Layer_1" xmlns="http://www.w3.org/2000/svg" xmlns:xlink="http://www.w3.org/1999/xlink" x="0px" y="0px"
	 viewBox="0 0 50 50" style="enable-background:new 0 0 50 50;" xml:space="preserve">
<style type="text/css">
	.st0{fill:#AFE55D;}
	.st1{fill:#C3FF68;}
	.st2{fill:#444444;}
</style>
<g>
	<g>
		<polygon class="st0" points="37,17.3 1.9,30.1 1.9,30.4 13.9,33.6 17.4,32.8 14.3,39.3 20.7,42.4 45,33.6 		"/>
	</g>
	<g>
		<polygon class="st1" points="31,4.8 25.6,15.9 25.2,15.8 13.9,11.7 1.9,15.4 1.9,30.1 37,17.3 		"/>
	</g>
	<path class="st2" d="M31.1,1.9L25,14.5l-11.1-4l-13.3,4v16.9l13.2,3.6l1.4-0.3l-2.5,5.2l7.9,3.8c0.6,0.3,1.4,0,1.7-0.6
		c0.3-0.6,0-1.4-0.6-1.7l-5.6-2.7l15-5.9L46,38.6l-15.4,6.8L27.3,44c-0.6-0.3-1.4,0-1.6,0.7c-0.3,0.6,0,1.4,0.7,1.6l4.3,1.8
		l18.9-8.3L31.1,1.9z M13.8,13.2l9.9,3.5l-10,2.9L3,16.6v-0.1L13.8,13.2z M3,16.8l10.5,3.1l0.1,12.6L3,29.5V16.8z M13.9,32.5
		l-0.1-12.6l10-2.9l-7.2,14.8L13.9,32.5z M30.9,32.6l-14.8,5.9L30.9,7.9V32.6z M31.2,32.6V7.9L46,38.3L31.2,32.6z"/>
</g>
</svg>
