<svg xmlns="http://www.w3.org/2000/svg" viewBox="0 0 50 50"><path fill="#afe55d" d="M37 17.3L1.9 30.1v.3l12 3.2 3.5-.8-3.1 6.5 6.4 3.1L45 33.6z"/><path fill="#c3ff68" d="M31 4.8l-5.4 11.1-.4-.1-11.3-4.1-12 3.7v14.7L37 17.3z"/><path fill="#444" d="M31.1 1.9L25 14.5l-11.1-4-13.3 4v16.9L13.8 35l1.4-.3-2.5 5.2 7.9 3.8c.6.3 1.4 0 1.7-.6.3-.6 0-1.4-.6-1.7l-5.6-2.7 15-5.9L46 38.6l-15.4 6.8-3.3-1.4c-.6-.3-1.4 0-1.6.7-.3.6 0 1.4.7 1.6l4.3 1.8 18.9-8.3L31.1 1.9zM13.8 13.2l9.9 3.5-10 2.9-10.7-3v-.1l10.8-3.3zM3 16.8l10.5 3.1.1 12.6-10.6-3V16.8zm10.9 15.7l-.1-12.6 10-2.9-7.2 14.8-2.7.7zm17 .1l-14.8 5.9L30.9 7.9v24.7zm.3 0V7.9L46 38.3l-14.8-5.7z"/></svg>