<svg xmlns="http://www.w3.org/2000/svg" id="Layer_1" x="0" y="0" version="1.1" viewBox="0 0 50 50" xml:space="preserve"><style>.st0{fill:#4ecdc4}.st2{fill:#031326}</style><circle cx="25" cy="3" r="2.2" class="st0"/><path fill="#46b8b0" d="M43.7 7.5H7.1v40.7l36.6-13.8z"/><path d="M19.2 4.6h12.3v6.1H19.2z" class="st0"/><path d="M33.2 44l.7-.1c0 .2.1.4.3.5.1.1.3.2.5.2s.4 0 .5-.2c.1-.1.2-.2.2-.3 0-.1 0-.2-.1-.2-.1-.1-.2-.1-.3-.2l-.6-.2c-.3-.1-.6-.2-.8-.4-.2-.2-.3-.4-.3-.7 0-.2.1-.4.2-.5.1-.2.3-.3.5-.4.2-.1.5-.1.7-.1.4 0 .7.1 1 .3.2.2.4.5.4.8h-.7c0-.2-.1-.3-.2-.4-.1-.1-.3-.1-.5-.1s-.4 0-.5.1c-.2.2-.2.3-.2.3 0 .1 0 .2.1.2.2.1.4.2.7.2.3.1.5.1.8.3.2.1.3.2.4.4.2.4.2.8 0 1.2-.1.2-.3.3-.5.4-.2.1-.5.1-.8.1-.4 0-.7-.1-1-.3-.3-.2-.5-.6-.5-.9zm6.7 1.2h-.8l-.3-.8h-1.5l-.3.8h-.8l1.4-3.6h.8l1.5 3.6zm-1.3-1.4l-.5-1.3-.5 1.3h1zm1.7 1.4v-3.6h1.2c.3 0 .6 0 .9.1.2.1.4.2.5.3.1.2.2.4.2.7 0 .2 0 .4-.1.6-.1.1-.2.3-.3.3-.1.1-.2.1-.4.2-.2 0-.5.1-.8 0H41v1.3l-.7.1zm.7-3v1h.4c.2 0 .4 0 .6-.1.2-.1.3-.3.3-.5 0-.1 0-.2-.1-.3-.1-.1-.2-.1-.3-.2H41z" class="st2"/><path d="M7.3 8.3l-.7 10.9.1.1L37.5 8.1l-.1-.5z" class="st0"/><path d="M41.2 6.5H32V5.3c0-.7-.6-1.3-1.3-1.3H28v-.6C28 1.7 26.6.3 24.9.3c-1.7 0-3.1 1.4-3.1 3.1V4h-2.7c-.7 0-1.3.6-1.3 1.3v1.2h-9C7 6.5 5.5 8 5.5 9.9v36.4c0 1.9 1.5 3.4 3.4 3.4h22.5c.7 0 1.2-.6 1.2-1.2s-.6-1.2-1.2-1.2H8.8c-.5 0-.9-.4-.9-.9V9.9c.1-.5.5-.9.9-.9h9.1v1.2c0 .7.6 1.3 1.3 1.3h11.5c.7 0 1.3-.6 1.3-1.3V9h9.1c.5 0 .9.4.9.9V37c0 .7.6 1.2 1.2 1.2s1.2-.6 1.2-1.2V9.9c.1-1.9-1.4-3.4-3.2-3.4zM23.4 3.4c0-.9.7-1.6 1.6-1.6s1.6.7 1.6 1.6V4h-3.2v-.6zm7.1 6.6h-11V5.5h11.1l-.1 4.5z" class="st2"/><path d="M31.3 45.3H11.8c-1.1 0-2-.9-2-2V12.5c0-1.1.9-2 2-2h7.9v.5h-7.9c-.8 0-1.5.7-1.5 1.5v30.6c0 .8.7 1.5 1.5 1.5h19.5v.7zm8.9-8.4h-.5V12.5c0-.8-.7-1.5-1.5-1.5h-8.1v-.5h8.1c1.1 0 2 .9 2 2v24.4z" class="st2"/><path d="M24.3 24.2c-2.7 0-4.9-2.2-4.9-4.9s2.2-4.9 4.9-4.9h.5v4.4h4.4v.5c0 2.7-2.2 4.9-4.9 4.9zm-.5-8.8c-2.1.3-3.7 2.2-3.4 4.4.3 2.1 2.2 3.7 4.4 3.4 1.8-.2 3.2-1.6 3.4-3.4h-4.4v-4.4z" class="st2"/><path d="M30.6 18.4h-5.5V13h.5c2.7 0 4.9 2.2 4.9 4.9l.1.5zm-4.4-1h3.4c-.3-1.8-1.6-3.1-3.4-3.4v3.4zm3 20.2H13.5c-.3 0-.5-.2-.5-.5s.2-.5.5-.5h15.7c.3 0 .5.2.5.5s-.2.5-.5.5zm4.8-3.2H13.5c-.3 0-.5-.2-.5-.5s.2-.5.5-.5H34c.3 0 .5.2.5.5s-.2.5-.5.5zm2.5-6.3h-23c-.3 0-.5-.2-.5-.5s.2-.5.5-.5h22.9c.3 0 .5.2.5.5s-.2.5-.4.5zm-1.1 3.1H13.5c-.3 0-.5-.2-.5-.5s.2-.5.5-.5h21.8c.3 0 .5.2.5.5s-.2.5-.4.5zM27 8h-4.7c-.3 0-.5-.2-.5-.5s.2-.5.5-.5H27c.3 0 .5.2.5.5s-.3.5-.5.5z" class="st2"/></svg>