<svg xmlns="http://www.w3.org/2000/svg" viewBox="0 0 50 50"><defs><style>.cls-1{fill:#fdcf72;}.cls-2{fill:#fcc34f;}.cls-3{fill:#444;}</style></defs><title>abap</title><g id="ICONES"><circle class="cls-1" cx="24.84" cy="2.93" r="2.2"/><polygon class="cls-2" points="43.51 7.42 6.93 7.42 6.93 48.13 43.51 34.3 43.51 7.42"/><rect class="cls-1" x="19.07" y="4.48" width="12.29" height="6.14"/><path class="cls-3" d="M33,43.9l.7-.07a.83.83,0,0,0,.26.52.77.77,0,0,0,.52.17.82.82,0,0,0,.53-.15.44.44,0,0,0,.18-.35.32.32,0,0,0-.08-.21.68.68,0,0,0-.26-.16l-.58-.15a2,2,0,0,1-.82-.36,1,1,0,0,1-.32-.72,1,1,0,0,1,.15-.51.91.91,0,0,1,.45-.36,1.65,1.65,0,0,1,.7-.13,1.51,1.51,0,0,1,1,.3,1.09,1.09,0,0,1,.36.79l-.73,0a.57.57,0,0,0-.2-.4.71.71,0,0,0-.45-.12.82.82,0,0,0-.5.13.28.28,0,0,0-.11.22.27.27,0,0,0,.1.22,1.9,1.9,0,0,0,.67.24,3.33,3.33,0,0,1,.78.26,1.07,1.07,0,0,1,.4.36,1.15,1.15,0,0,1,0,1.15,1.08,1.08,0,0,1-.49.4,2.19,2.19,0,0,1-.78.13,1.54,1.54,0,0,1-1-.32A1.33,1.33,0,0,1,33,43.9Z"/><path class="cls-3" d="M39.75,45.06H39l-.31-.81H37.21l-.29.81h-.77l1.4-3.58h.76Zm-1.34-1.41-.49-1.33-.48,1.33Z"/><path class="cls-3" d="M40.13,45.06V41.48h1.16a3.76,3.76,0,0,1,.86.06.92.92,0,0,1,.52.35,1.15,1.15,0,0,1,.2.69,1.19,1.19,0,0,1-.12.56,1,1,0,0,1-.3.35,1,1,0,0,1-.38.17,3.64,3.64,0,0,1-.75.05h-.47v1.35Zm.72-3v1h.4a1.74,1.74,0,0,0,.57-.06.47.47,0,0,0,.31-.46.45.45,0,0,0-.12-.32.49.49,0,0,0-.29-.16l-.52,0Z"/><polygon class="cls-1" points="7.1 8.19 6.49 19.08 6.54 19.22 37.37 8 37.2 7.54 7.1 8.19"/><path class="cls-3" d="M41,6.38H31.89V5.18A1.28,1.28,0,0,0,30.6,3.9H27.94V3.3a3.1,3.1,0,0,0-6.2,0v.6H19.07a1.28,1.28,0,0,0-1.28,1.28V6.43a1,1,0,0,0-.23,0H8.68A3.39,3.39,0,0,0,5.3,9.76V46.21a3.39,3.39,0,0,0,3.38,3.38H31.14a1.25,1.25,0,0,0,0-2.5H8.68a.88.88,0,0,1-.88-.88V9.76a.88.88,0,0,1,.88-.88h8.88a1.85,1.85,0,0,0,.23,0v1.25a1.29,1.29,0,0,0,1.28,1.28H30.6a1.29,1.29,0,0,0,1.29-1.28V8.88H41a.88.88,0,0,1,.88.88V36.83a1.25,1.25,0,0,0,2.5,0V9.76A3.39,3.39,0,0,0,41,6.38ZM23.24,3.3a1.6,1.6,0,0,1,3.2,0v.6h-3.2Zm7.15,6.57H19.29V5.4h11.1Z"/><path class="cls-3" d="M31.13,45.15H11.61a2,2,0,0,1-2-2V12.44a2,2,0,0,1,2-2h7.88v.5H11.61a1.52,1.52,0,0,0-1.5,1.54V43.11a1.52,1.52,0,0,0,1.5,1.54H31.13Z"/><path class="cls-3" d="M40.06,36.83h-.5V12.44a1.52,1.52,0,0,0-1.49-1.54H30v-.5h8.08a2,2,0,0,1,2,2Z"/><path class="cls-3" d="M24.14,24.12a4.92,4.92,0,0,1,0-9.84h.5V18.7h4.42v.5A4.93,4.93,0,0,1,24.14,24.12Zm-.5-8.81A3.92,3.92,0,1,0,28,19.7H23.64Z"/><path class="cls-3" d="M30.46,18.3H25V12.88h.5a4.93,4.93,0,0,1,4.92,4.92ZM26,17.3h3.39A4,4,0,0,0,26,13.91Z"/><path class="cls-3" d="M29.05,37.53H13.37a.51.51,0,0,1-.5-.5.5.5,0,0,1,.5-.5H29.05a.5.5,0,0,1,.5.5A.5.5,0,0,1,29.05,37.53Z"/><path class="cls-3" d="M33.87,34.33H13.37a.5.5,0,0,1-.5-.5.51.51,0,0,1,.5-.5h20.5a.5.5,0,0,1,.5.5A.5.5,0,0,1,33.87,34.33Z"/><path class="cls-3" d="M36.3,28H13.37a.5.5,0,0,1,0-1H36.3a.5.5,0,0,1,0,1Z"/><path class="cls-3" d="M35.2,31.14H13.37a.5.5,0,0,1-.5-.5.51.51,0,0,1,.5-.5H35.2a.5.5,0,0,1,.5.5A.5.5,0,0,1,35.2,31.14Z"/><path class="cls-3" d="M26.8,7.92H22.13a.5.5,0,0,1-.5-.5.5.5,0,0,1,.5-.5H26.8a.51.51,0,0,1,.5.5A.5.5,0,0,1,26.8,7.92Z"/></g></svg>