<svg xmlns="http://www.w3.org/2000/svg" viewBox="0 0 50 50"><defs><style>.cls-2{fill:#444}.cls-3,.cls-4{fill:none;stroke:#444}.cls-3{stroke-miterlimit:10}.cls-4{stroke-linecap:round;stroke-linejoin:round;stroke-width:.5px}</style></defs><g id="Camada_1"><path fill="#d1bd00" d="M30 18.4l7.8 2.5-6.7 4.7.1 8.2-6.6-4.9-7.7 2.6 2.6-7.7-4.9-6.6 8.2.1 4.7-6.7 2.5 7.8z"/><path fill="#f9f941" d="M39.4 7.7h-3.7c.8-2.8-4.9-3.7-4.9-2.3l-1.4-2.8-4.6.2c-.7 0-2.5 1.7-2.8 2.3h-4.1c-.8 0 1.3 3.1-6.6 3.6v32.9c1.5 0-.7 6.5.6 6.1L42 37V10.3c0-1.4-1.1-2.6-2.5-2.6z"/><path d="M16.4 15.7l1.7 1.7 2.8-3.3m-4.5 7.5l1.7 1.8 2.4-2.6m3.5-4.7h13m-13 5.8h13" class="cls-4"/><circle cx="26.7" cy="6.2" r=".8" class="cls-2"/><path d="M40.1 6.8H37V5.6c0-1-.8-1.8-1.8-1.8h-3.4C31.5 2.2 30.1 1 28.3 1h-3.4c-1.8 0-3.3 1.2-3.6 2.9h-3.4c-1 0-1.8.8-1.8 1.8v1.1h-3c-1.6 0-2.9 1.3-2.9 2.9v36.9c0 1.6 1.3 2.8 2.8 2.8h20.3c.7 0 1.2-.6 1.2-1.2s-.6-1.2-1.2-1.2h-20c-.2 0-.3-.2-.3-.3v-37c0-.2.2-.4.4-.4h5.5V6.4h3.4c1 0 1.8-.8 1.7-1.8s.5-1.1 1.2-1.1h3.4c.6 0 1 .5 1 1.1 0 .9.8 1.7 1.7 1.7h3.4v3h5.5c.2 0 .4.2.4.4v28.6c0 .7.6 1.2 1.2 1.2s1.2-.6 1.2-1.2V9.7c0-1.6-1.3-2.8-2.8-2.8z" class="cls-2"/><path d="M18.6 5.9v4.9h16.1V5.9" class="cls-4"/><path d="M25.7 35.8c2.9.7 5.5-1.9 4.8-4.8s-1.5-2.5-2.9-2.8c-2.9-.7-5.5 1.9-4.8 4.8s1.5 2.5 2.8 2.9z" class="cls-3"/><path d="M32 48.7v-.2c0-3.6.8-7.2 2.4-10.5l4.1-8.5c.4-.8 0-1.7-.7-2.1-.8-.4-1.7 0-2.1.7l-3.9 8c-.7 1.4-1.8 2.5-3.3 3-2.8 1-5.7-.4-6.9-2.9l-3.9-8.1c-.4-.8-1.3-1.1-2.1-.7-.8.4-1.1 1.3-.7 2.1L19 38c1.6 3.3 2.4 6.9 2.4 10.5" class="cls-3"/></g></svg>