<?xml version="1.0" encoding="utf-8"?>
<!-- Generator: Adobe Illustrator 22.1.0, SVG Export Plug-In . SVG Version: 6.00 Build 0)  -->
<svg version="1.1" id="Layer_1" xmlns="http://www.w3.org/2000/svg" xmlns:xlink="http://www.w3.org/1999/xlink" x="0px" y="0px"
	 viewBox="0 0 50 50" style="enable-background:new 0 0 50 50;" xml:space="preserve">
<style type="text/css">
	.st0{fill:#B9D7D9;}
	.st1{fill:#A6C1C2;}
	.st2{fill:#444444;}
	.st3{fill:#494949;}
	.st4{fill:none;stroke:#494949;stroke-width:1.5;stroke-linecap:round;stroke-miterlimit:10;}
</style>
<g>
	<g>
		<path class="st0" d="M43.7,11.8L27.3,2.3c-1.4-0.8-3-0.8-4.4,0L6.5,11.8c-1.4,0.8-2.2,2.2-2.2,3.8v11.5l40.3-14.7
			C44.3,12.2,44.1,11.9,43.7,11.8z"/>
	</g>
	<g>
		<path class="st1" d="M46,15.6c0-1.2-0.5-2.4-1.4-3.2L4.3,27.1v7.5c0,1.6,0.8,3,2.2,3.8l6.7,3.8l32.8-12V15.6z"/>
	</g>
	<g>
		<g>
			<g>
				<circle class="st2" cx="25" cy="16.6" r="2.5"/>
			</g>
		</g>
		<g>
			<g>
				<path class="st2" d="M32.4,19.2c0,0-3.3,0.6-6.4,0.6H24c-3.1,0-6.4-0.6-6.4-0.6c-0.5-0.1-1,0.3-1.1,0.8c-0.1,0.5,0.3,1,0.8,1.1
					c0.1,0,2.8,0.5,5.7,0.6l-0.4,6.2c-0.5,3.5-1.8,6.9-1.8,6.9c-0.2,0.5,0.1,1,0.5,1.2c0.1,0,0.2,0.1,0.3,0.1c0.4,0,0.7-0.2,0.9-0.6
					c0.1-0.1,1-2.6,1.6-5.6c0.1-0.4,0.4-0.6,0.8-0.6l0,0c0.4,0,0.7,0.3,0.8,0.6c0.6,3.1,1.5,5.5,1.6,5.6c0.1,0.4,0.5,0.6,0.9,0.6
					c0.1,0,0.2,0,0.3-0.1c0.5-0.2,0.7-0.7,0.5-1.2c0,0-1.3-3.4-1.8-6.9L27,21.7c2.9-0.1,5.6-0.6,5.7-0.6c0.5-0.1,0.9-0.6,0.8-1.1
					C33.4,19.4,32.9,19.1,32.4,19.2z"/>
			</g>
		</g>
	</g>
	<g>
		<path class="st3" d="M24.9,49.6c-1,0-2-0.3-2.8-0.8L5.6,39.4c-1.7-1-2.8-2.9-2.8-4.9l0-19c0-2,1.1-3.9,2.8-4.9l16.4-9.5
			c1.7-1,3.9-1,5.7,0l16.4,9.5c1.7,1,2.8,2.9,2.8,4.9v15.2c0,0.7-0.6,1.2-1.2,1.2s-1.2-0.6-1.2-1.2V15.5c0-1.1-0.6-2.2-1.6-2.7
			L26.5,3.3c-1-0.6-2.2-0.6-3.2,0L6.9,12.8c-1,0.6-1.6,1.6-1.6,2.7l0,19c0,1.1,0.6,2.2,1.6,2.7l16.4,9.5c1,0.6,2.2,0.6,3.2,0
			l11.4-6.6c0.6-0.3,1.4-0.1,1.7,0.5c0.3,0.6,0.1,1.4-0.5,1.7l-11.4,6.6C26.9,49.4,25.9,49.6,24.9,49.6z"/>
	</g>
	<g>
		<path class="st3" d="M25,44.4c-0.6,0-1.2-0.2-1.8-0.5L9.5,36c-1.1-0.6-1.8-1.8-1.8-3.1V17.2c0-1.3,0.7-2.4,1.8-3.1
			c0.1-0.1,0.3,0,0.3,0.1c0.1,0.1,0,0.3-0.1,0.3c-0.9,0.5-1.5,1.5-1.5,2.6V33c0,1.1,0.6,2.1,1.5,2.6l13.7,7.9c0.9,0.5,2.1,0.5,3,0
			l13.7-7.9c0.9-0.5,1.5-1.5,1.5-2.6V17.2c0-1.1-0.6-2.1-1.5-2.6L26.5,6.6c-0.9-0.5-2.1-0.5-3,0c-0.1,0.1-0.3,0-0.3-0.1
			c-0.1-0.1,0-0.3,0.1-0.3c1.1-0.6,2.4-0.6,3.5,0l13.7,7.9c1.1,0.6,1.8,1.8,1.8,3.1V33c0,1.3-0.7,2.4-1.8,3.1l-13.7,7.9
			C26.2,44.3,25.6,44.4,25,44.4z"/>
	</g>
	<g>
		<path class="st4" d="M46,30.3"/>
	</g>
</g>
</svg>
