<?xml version="1.0" encoding="UTF-8"?>
<svg xmlns="http://www.w3.org/2000/svg" version="1.1" viewBox="0 0 50 50">
  <defs>
    <style>
      .cls-1 {
        fill: #f9f941;
      }

      .cls-2 {
        fill: #444;
      }

      .cls-3 {
        stroke-miterlimit: 10;
      }

      .cls-3, .cls-4 {
        fill: none;
        stroke: #444;
      }

      .cls-5 {
        fill: #d1bd00;
      }

      .cls-4 {
        stroke-linecap: round;
        stroke-linejoin: round;
        stroke-width: .5px;
      }
    </style>
  </defs>
  <!-- Generator: Adobe Illustrator 28.7.1, SVG Export Plug-In . SVG Version: 1.2.0 Build 142)  -->
  <g>
    <g id="Camada_1">
      <g>
        <polygon class="cls-5" points="30 18.4 37.8 20.9 31.1 25.6 31.2 33.8 24.6 28.9 16.9 31.5 19.5 23.8 14.6 17.2 22.8 17.3 27.5 10.6 30 18.4"/>
        <g>
          <path class="cls-1" d="M39.4,7.7h-3.7c.8-2.8-4.9-3.7-4.9-2.3l-1.4-2.8-4.6.2c-.7,0-2.5,1.7-2.8,2.3h-4.1c-.8,0,1.3,3.1-6.6,3.6v32.9c1.5,0-.7,6.5.6,6.1l30.1-10.7V10.3h0c0-1.4-1.1-2.6-2.5-2.6Z"/>
          <g>
            <path class="cls-4" d="M16.4,15.7l1.7,1.7,2.8-3.3M16.4,21.6l1.7,1.8,2.4-2.6M24,16.1h13M24,21.9h13"/>
            <circle class="cls-2" cx="26.7" cy="6.2" r=".8"/>
            <g>
              <line class="cls-2" x1="34.6" y1="9.3" x2="34.6" y2="9.3"/>
              <path class="cls-2" d="M40.1,6.8h-3.1v-1.2c0-1-.8-1.8-1.8-1.8h-3.4c-.3-1.6-1.7-2.8-3.5-2.8h-3.4c-1.8,0-3.3,1.2-3.6,2.9h-3.4c-1,0-1.8.8-1.8,1.8v1.1h-3c-1.6,0-2.9,1.3-2.9,2.9v36.9c0,1.6,1.3,2.8,2.8,2.8h20.3c.7,0,1.2-.6,1.2-1.2s-.6-1.2-1.2-1.2H13.3c-.2,0-.3-.2-.3-.3V9.7c0-.2.2-.4.4-.4h5.5v-2.9h3.4c1,0,1.8-.8,1.7-1.8s.5-1.1,1.2-1.1h3.4c.6,0,1,.5,1,1.1,0,.9.8,1.7,1.7,1.7h3.4v3h5.5c.2,0,.4.2.4.4v28.6c0,.7.6,1.2,1.2,1.2s1.2-.6,1.2-1.2V9.7c0-1.6-1.3-2.8-2.8-2.8Z"/>
            </g>
            <path class="cls-4" d="M18.6,5.9v4.9h16.1v-4.9"/>
            <g>
              <path class="cls-3" d="M25.7,35.8c2.9.7,5.5-1.9,4.8-4.8s-1.5-2.5-2.9-2.8c-2.9-.7-5.5,1.9-4.8,4.8s1.5,2.5,2.8,2.9Z"/>
              <path class="cls-3" d="M32,48.7v-.2c0-3.6.8-7.2,2.4-10.5l4.1-8.5c.4-.8,0-1.7-.7-2.1-.8-.4-1.7,0-2.1.7l-3.9,8c-.7,1.4-1.8,2.5-3.3,3-2.8,1-5.7-.4-6.9-2.9l-3.9-8.1c-.4-.8-1.3-1.1-2.1-.7h0c-.8.4-1.1,1.3-.7,2.1l4.1,8.5c1.6,3.3,2.4,6.9,2.4,10.5"/>
            </g>
          </g>
        </g>
      </g>
    </g>
  </g>
</svg>