<svg xmlns="http://www.w3.org/2000/svg" version="1" viewBox="0 0 50 50"><path fill="#00C8E2" d="M12.394 43.158l33.938-12.352c.503-1.851.776-3.796.776-5.806C47.108 12.79 37.21 2.892 25 2.892S2.892 12.79 2.892 25c0 7.524 3.761 14.165 9.502 18.158z"/><path fill="#00DFFC" d="M37.116 6.457a22.003 22.003 0 00-12.032-3.565c-9.959 0-18.378 6.586-21.144 15.64L37.116 6.457z"/><path fill="#031326" d="M25 48.358C12.121 48.358 1.642 37.88 1.642 25 1.642 12.121 12.121 1.642 25 1.642c12.88 0 23.358 10.479 23.358 23.358 0 2.079-.273 4.143-.814 6.133a1.25 1.25 0 11-2.412-.654c.482-1.777.727-3.621.727-5.479 0-11.501-9.357-20.858-20.858-20.858S4.142 13.499 4.142 25 13.499 45.858 25 45.858a1.25 1.25 0 010 2.5z"/><path fill="#031326" d="M25 42.477c-9.637 0-17.477-7.84-17.477-17.477S15.363 7.523 25 7.523 42.477 15.363 42.477 25 34.637 42.477 25 42.477zm0-34.454C15.639 8.023 8.023 15.639 8.023 25S15.639 41.977 25 41.977 41.977 34.362 41.977 25c0-9.361-7.616-16.977-16.977-16.977z"/><circle cx="25" cy="17.194" r="2.348" fill="#031326"/><path fill="#031326" d="M31.811 19.558c-.03.006-3.057.547-5.93.547h-1.764c-2.872 0-5.899-.54-5.929-.547a.882.882 0 00-.313 1.735c.117.021 2.612.467 5.317.558l-.359 5.716c-.454 3.218-1.643 6.356-1.656 6.39a.882.882 0 001.646.633c.05-.131.918-2.37 1.468-5.214a.726.726 0 01.709-.593c.348 0 .643.251.709.593.55 2.844 1.418 5.082 1.468 5.214a.88.88 0 101.646-.633c-.013-.034-1.203-3.166-1.656-6.388l-.359-5.718a41.31 41.31 0 005.317-.558.883.883 0 00-.314-1.735z"/></svg>