<?xml version="1.0" encoding="utf-8"?>
<!-- Generator: Adobe Illustrator 28.1.0, SVG Export Plug-In . SVG Version: 6.00 Build 0)  -->
<svg version="1.1" id="Layer_1" xmlns="http://www.w3.org/2000/svg" xmlns:xlink="http://www.w3.org/1999/xlink" x="0px" y="0px"
	 viewBox="0 0 50 50" style="enable-background:new 0 0 50 50;" xml:space="preserve">
<style type="text/css">
	.st0{fill:#FCC34F;}
	.st1{fill:none;stroke:#444444;stroke-width:2.5;stroke-linecap:round;stroke-linejoin:round;stroke-miterlimit:10;}
	.st2{fill:#444444;stroke:#444444;stroke-width:0.5;stroke-miterlimit:10;}
	.st3{fill:#444444;}
	.st4{fill:none;stroke:#444444;stroke-width:2;stroke-linecap:round;stroke-linejoin:round;stroke-miterlimit:10;}
	.st5{fill:#444444;stroke:#444444;stroke-miterlimit:10;}
	.st6{fill:none;stroke:#444444;stroke-linecap:round;stroke-linejoin:round;stroke-miterlimit:10;}
</style>
<g>
	<g>
		<g>
			<path class="st0" d="M48,19.8c-0.2-0.8-2.7-7.5-3.2-8.1l-3-3.5l-0.2,0.1L34,2.5l-7.8-0.7C23,1.8,11.7,2.1,4.8,12L0.8,22.6
				l-0.2,0.1l4,13.4c0.1,0.4,4.5,5.7,4.9,5.9l5.6,3l32.2-11.7C47.9,32.8,49,24.5,48,19.8z"/>
			<g>
				<g>
					<g>
						<path class="st1" d="M32.3,47.1c-7,2.3-15,1.2-21.3-3.6C0.6,35.7-1.5,21,6.3,10.7"/>
						<path class="st1" d="M6.2,10.8c2-3,4.7-4.7,4.7-4.7l0.7-0.5C19.7-0.1,30.8-0.2,39.2,6c10.4,7.8,12.4,22.5,4.7,32.8"/>
					</g>
				</g>
			</g>
		</g>
	</g>
	<g>
		<path class="st2" d="M25.3,42.1c-9.6,0-17.4-7.8-17.4-17.4S15.7,7.4,25.3,7.4c9.6,0,17.4,7.8,17.4,17.4S34.9,42.1,25.3,42.1z
			 M25.3,7.6c-9.4,0-17.1,7.7-17.1,17.1s7.7,17.1,17.1,17.1s17.1-7.7,17.1-17.1S34.7,7.6,25.3,7.6z"/>
		<g>
			<circle class="st3" cx="25.3" cy="16.6" r="2.4"/>
			<polyline class="st4" points="17.6,20.4 20.9,21.1 25.4,22 25.4,27.6 23.7,27.6 21.3,35.2 			"/>
			<polyline class="st4" points="33.2,20.4 25.4,22 25.4,27.6 27.1,27.6 29.5,35.2 			"/>
			<rect x="23.2" y="21.8" class="st5" width="4.2" height="5.4"/>
			<path class="st4" d="M29.8,21.1c0,0-4.1,1.2-8.9,0"/>
			<path class="st6" d="M23,30.8c0,0,0.3-2.6,2.4-2.6s2.5,2.6,2.5,2.6"/>
			<g>
				<polyline class="st4" points="14.6,22.6 11.4,25.9 14.6,29.1 				"/>
				<polyline class="st4" points="36,22.6 39.3,25.9 36.1,29.1 				"/>
			</g>
		</g>
	</g>
</g>
</svg>
