<?xml version="1.0" encoding="UTF-8"?>
<svg xmlns="http://www.w3.org/2000/svg" version="1.1" viewBox="0 0 50 50">
  <defs>
    <style>
      .cls-1 {
        stroke-miterlimit: 10;
      }

      .cls-1, .cls-2, .cls-3 {
        fill: none;
        stroke: #444;
      }

      .cls-1, .cls-3 {
        stroke-width: .5px;
      }

      .cls-2 {
        stroke-width: 2.5px;
      }

      .cls-2, .cls-3 {
        stroke-linecap: round;
        stroke-linejoin: round;
      }

      .cls-4 {
        fill: #444;
      }

      .cls-5 {
        fill: #e589ef;
      }
    </style>
  </defs>
  <!-- Generator: Adobe Illustrator 28.7.1, SVG Export Plug-In . SVG Version: 1.2.0 Build 142)  -->
  <g>
    <g id="Camada_1">
      <g>
        <g>
          <path class="cls-5" d="M47.4,27.2l-.5-4.1L29.7,5.6l-4.4-1.8c-4.1,0-17.8,12.9-17.8,15.5l-4.3,4-.2,5.9,14.2,14.5,24.8-8.8c.6-.3,6.2-6,5.4-7.6Z"/>
          <path class="cls-2" d="M29.3,46.5c-2.4,2.4-6.3,2.4-8.7,0L4.4,30.3c-2.4-2.4-2.4-6.3,0-8.7L20.6,5.3c2.4-2.4,6.3-2.4,8.7,0l16.2,16.2c2.4,2.4,2.4,6.3,0,8.7l-7.4,7.4"/>
        </g>
        <path class="cls-3" d="M13.7,25.2"/>
      </g>
      <circle class="cls-1" cx="24.3" cy="24.8" r="13.1"/>
      <path class="cls-4" d="M36.4,20.4c1.4,0,2.8.4,3.8,1.5.6.6,1,1.4,1.2,2.3.3,1.5-.2,2.7-1.2,3.8-.5.6-1.2,1-2,1.2-.7.2-1.3.4-2,.3-.2,0-.2,0-.2.2,0,.3,0,.5,0,.8,0,.3-.2.4-.5.3-.6-.3-1.1-.7-1.5-1.1-.9-.8-1.7-1.7-2.2-2.8-.5-1.2-.6-2.4,0-3.6.7-1.7,2-2.5,3.8-2.8.2,0,.3,0,.5,0,.2,0,.3,0,.5,0ZM33.3,24.9c0,.3.3.7.7.7.3,0,.8-.4.7-.8,0-.3-.3-.6-.7-.6-.3,0-.7.3-.7.7ZM36.3,24.2c-.3,0-.7.4-.7.7,0,.3.4.7.7.7.3,0,.7-.4.7-.7,0-.3-.4-.7-.7-.7ZM38,24.9c0,.4.3.7.7.7.3,0,.7-.4.7-.7,0-.3-.4-.7-.7-.7-.4,0-.7.3-.7.7Z"/>
      <ellipse class="cls-5" cx="24.7" cy="12.9" rx="3.5" ry="3.7"/>
      <path class="cls-4" d="M24.9,17.5c-1.4,0-2.7-.6-3.9-1.6-1-.8-1.7-1.8-2.3-2.8,0,0-.1-.2,0-.3.9-1.6,2.1-3,3.8-3.9.6-.3,1.2-.5,1.8-.5.4,0,.9-.1,1.3,0,.3,0,.6.1.9.2.4.1.9.2,1.3.5,1,.5,1.8,1.3,2.5,2.1.4.4.7.9,1,1.3.2.3.2.7,0,1-.6.9-1.2,1.7-2,2.4-.9.8-2,1.4-3.2,1.6-.3,0-.6,0-1,0ZM25.1,10.4c-1.2-.1-2.7,1.1-2.6,2.6,0,1.4,1.4,2.5,2.6,2.5,1.5,0,2.5-1.1,2.6-2.6,0-.7-.3-1.3-.8-1.8-.5-.5-1.1-.8-1.8-.7Z"/>
      <path class="cls-4" d="M14.8,26.7c.3,0,.6-.2.9-.4.5-.2.9-.5,1.4-.4.5,0,.9.3,1.1.8.1.3,0,.9-.3,1.1-.4.2-.7.5-1,.8-.8.5-1.5,1.1-2.2,1.6-.6.5-1.3.8-2.1.8-.7,0-1.4,0-2.1,0-1,0-1.8-.8-2-1.7,0-.3,0-.6,0-1,0-1,0-1.9,0-2.9,0-.5.2-.9.6-1.2.2-.2.5-.3.8-.2.2,0,.3,0,.4-.1.4-.4.9-.5,1.4-.2.1,0,.2,0,.3,0,0,0,.2-.1.3-.1.4,0,.5-.2.4-.5,0-.5,0-1,0-1.4,0-.7.8-1.3,1.4-1,.7.2.9.5.9,1.2,0,1.5,0,2.9,0,4.4,0,.2,0,.4,0,.6Z"/>
      <path class="cls-4" d="M22.1,37c0-1.3,0-2.7,0-4,0-.5.2-.6.6-.6.2,0,.3,0,.5,0,.5,0,.7.2.7.7,0,.9,0,1.8,0,2.7,0,.3,0,.3.3.3,1.1,0,2.2,0,3.4,0,.3,0,.3,0,.3-.3,0-.9,0-1.8,0-2.8,0-.3.3-.7.6-.7.2,0,.4,0,.6,0,.4,0,.6.3.6.8,0,2.4,0,4.9,0,7.3,0,.3,0,.6,0,.9-.1.3-.3.5-.6.4-.1,0-.2,0-.3,0-.8,0-.9-.1-.9-.9,0-.9,0-1.8,0-2.6,0-.2,0-.3-.3-.3-1.1,0-2.3,0-3.4,0-.2,0-.3,0-.3.3,0,.9,0,1.8,0,2.6,0,.6-.2.9-.8.9-.1,0-.3,0-.4,0-.4,0-.6-.2-.6-.6,0-1.4,0-2.7,0-4.1,0,0,0,0,0,0Z"/>
      <path class="cls-4" d="M30.2,37c0-1.1,0-2.2,0-3.3,0-.2,0-.3.3-.3.1,0,.3,0,.5,0,.5,0,.8.2.8.8,0,1.8,0,3.6,0,5.5,0,.6-.3.8-.9.8-.7,0-.7,0-.7-.7,0-.9,0-1.9,0-2.8Z"/>
      <path class="cls-4" d="M20,37c0-1,0-1.9,0-2.9,0-.4.2-.6.6-.6.8,0,.8,0,.8.8,0,2,0,4,0,5.9,0,.3,0,.4-.4.3-.2,0-.5,0-.7,0-.3-.1-.4-.3-.4-.6,0-1,0-1.9,0-2.9Z"/>
      <path class="cls-4" d="M32.2,37c0-.1,0-.3,0-.4,0-.5,0-.6.6-.5.2,0,.3.1.3.4,0,.4,0,.8,0,1.2,0,.2,0,.3-.3.3-.6,0-.6,0-.6-.6,0-.1,0-.2,0-.3Z"/>
      <path class="cls-4" d="M19.5,37c0,.1,0,.3,0,.4,0,.5.1.5-.5.5-.3,0-.4-.1-.4-.4,0-.3,0-.7,0-1,0-.3.1-.4.4-.4.5,0,.5,0,.5.5,0,.1,0,.3,0,.4Z"/>
      <path class="cls-4" d="M25.1,14.7c-1.1,0-1.6-.7-1.7-1.8,0-.9.8-1.8,1.8-1.7.9,0,1.7.5,1.7,1.9,0,.8-.7,1.6-1.8,1.6ZM26.4,12.1c0-.2-.3-.5-.6-.5-.2,0-.5.3-.5.5,0,.2.3.6.6.6.2,0,.5-.3.6-.6Z"/>
    </g>
  </g>
</svg>