<svg xmlns="http://www.w3.org/2000/svg" id="Layer_1" x="0" y="0" version="1.1" viewBox="0 0 50 50" xml:space="preserve"><style>.st1,.st2{fill:none;stroke:#363636;stroke-linecap:round;stroke-miterlimit:10}.st1{stroke-width:2.5}.st2{stroke-linejoin:round}.st3{stroke-width:.5}.st3,.st4{fill:none;stroke:#363636;stroke-linecap:round;stroke-miterlimit:10}</style><path fill="#dc5e82" d="M45 16.3l.5-11-1.9-3.8-31.3 1c-3.2 0-.8 23.8-.8 27l-7.7 8L6.2 46l7.5 1.7 31-11c.8-.5 1.2-18.4.3-20.4z"/><path d="M44.7 38.8V3.3c0-.7-.6-1.3-1.3-1.3H12.2c-.7 0-1.2.6-1.2 1.3V30m9.7 14h17.1" class="st1"/><path d="M33.6 20.4h5.2v5.2h-5.2z" class="st2" transform="rotate(-180 36.176 23.058)"/><path d="M29 20.4H16.1M29 23.6h-6.1" class="st3"/><path d="M33.6 31.2h5.2v5.2h-5.2z" class="st2" transform="rotate(-180 36.176 33.773)"/><path d="M29 31.2h-8.1m8.1 3.1h-4.1M29 9.4H16.1M29 12.6h-9.7M18.3 44.7c-3 3-7.8 3-10.8 0-3-3-3-7.8 0-10.8 3-3 7.8-3 10.8 0 3 2.9 3 7.8 0 10.8z" class="st3"/><path d="M8.7 39.6l3.1 2.7 4.9-5.5M39.4 11h-6.5m3.2-3.2v6.5" class="st4"/><path d="M20.7 44l-.4.5c-.3.4-.6.7-1.1 1.1-3.5 3.5-9.2 3.3-12.7-.1C3 42 3 36.4 6.5 32.9c1.2-1.2 2.8-2 4.4-2.4" class="st1"/><path d="M11.4 31.5h.8V2.4m6.9 42.1l.8-1.5h17.8" class="st3"/></svg>