<svg xmlns="http://www.w3.org/2000/svg" id="Layer_1" x="0" y="0" version="1.1" viewBox="0 0 50 50" xml:space="preserve"><style>.st2{fill:none;stroke:#414141;stroke-width:.5;stroke-linecap:round;stroke-linejoin:round;stroke-miterlimit:10}</style><path fill="#00dffc" d="M46 8.5H3.6c-1.4 0-1.5 4-1.5 5.4l-.1 6-.6 10.4 1.3 12.1 12.8.6 33.1-11.8V11c0-1.3-1.2-2.5-2.6-2.5z"/><path fill="none" stroke="#414141" stroke-linecap="round" stroke-linejoin="round" stroke-miterlimit="10" stroke-width="2.5" d="M37.4 42.7H4.9c-1.9 0-3.5-1.6-3.5-3.5v-27c0-1.9 1.6-3.5 3.5-3.5h40.2c1.9 0 3.5 1.6 3.5 3.5v22.5"/><path d="M1.4 17.6h46" class="st2"/><path fill="none" stroke="#414141" stroke-linecap="round" stroke-linejoin="round" stroke-miterlimit="10" stroke-width=".75" d="M15 13.9h27.6M17.7 34l-4.8-4.9 4.8-4.8m13.6 9.4l4.9-4.9-4.9-4.8m-6.7-.4L21.9 34m5.8-14.1l-4.8 17.8m-.6-13.6L20 32.3m-.6-6.9L18 30.5m8.7-5c1.6 0 2.9 1.3 2.9 2.9s-1.3 2.9-2.9 2.9c0 0-1.4.1-1.9-1"/><path d="M11.2 16.1h-5c-.5 0-.8-.4-.8-.8V12c0-.5.4-.8.8-.8h5c.5 0 .8.4.8.8v3.2c.1.5-.3.9-.8.9z" class="st2"/><path d="M9.8 13.7l-2.2-1.3v2.5z" class="st2"/></svg>