<svg xmlns="http://www.w3.org/2000/svg" viewBox="0 0 50 50"><defs><style>.cls-2{fill:none;stroke:#444;stroke-linecap:round;stroke-linejoin:round}.cls-5{fill:#444}</style></defs><g id="Camada_1"><path fill="#d1bd00" d="M31.3 22.3l7.8 2.4-6.7 4.7.1 8.3-6.6-5-7.7 2.7 2.6-7.8-4.9-6.6 8.2.1 4.7-6.7 2.5 7.9z"/><path fill="#f9f941" d="M38.4 3.6L14.9 3c-1.5 0-.6 10.3-.6 11.9H6.6l-.7 25-3.6.8c-.8.2.7 4.5 1.4 4.9 7.8 2.4 10-.4 28.1.8l17-5.8.4-22.7-1.1-2.9-8.4-1.1c0-1.5.4-10.2-1.2-10.2z"/><path fill="none" fill-rule="evenodd" stroke="#444" stroke-linecap="round" stroke-linejoin="round" d="M45.3 14.1c1.9 0 3.4 1.5 3.4 3.4v22.8m-43.2 0V17.5c0-1.9 1.5-3.4 3.4-3.4m39.8 27h-17l-.2.7c0 .3-.2.5-.6.5h-7.7c-.3 0-.6-.2-.6-.5v-.6H1.4c0 2.8 2.8 5 6.2 5h36.2"/><path fill="none" fill-rule="evenodd" stroke="#444" stroke-linecap="round" stroke-linejoin="round" stroke-width="2.5" d="M48.7 40.3V17.5c0-1.9-1.5-3.4-3.4-3.4H39V4.3c0-.9-.7-1.6-1.6-1.6H15.6c-.9 0-1.6.8-1.6 1.7V14H8.9c-1.9 0-3.4 1.5-3.4 3.4v22.8H1.4c0 3.3 2.8 5.9 6.2 5.9h36.2"/><rect width="23.1" height="21.1" x="15.1" y="3.2" class="cls-2" rx="1.9" ry="1.9"/><path d="M14.6 9h23.9" class="cls-2"/><circle cx="33" cy="6.4" r=".9" class="cls-5"/><circle cx="35.4" cy="6.4" r=".9" class="cls-5"/><circle cx="30.4" cy="6.4" r=".9" class="cls-5"/><circle cx="26.5" cy="15.1" r="3" class="cls-5"/><path d="M35.3 18.2s-3.9.7-7.6.7h-2.4c-3.7 0-7.6-.7-7.6-.7-.6-.1-1.2.4-1.3.9-.1.6.4 1.2.9 1.3.1 0 3.3.6 6.8.7l-.5 7.4c-.6 4.2-2.1 8.2-2.1 8.2-.2.6.1 1.2.6 1.4.1 0 .2.1.4.1.5 0 .8-.2 1.1-.7.1-.1 1.2-3.1 1.9-6.7.1-.5.5-.7.9-.7s.8.4.9.7c.7 3.7 1.8 6.6 1.9 6.7.1.5.6.7 1.1.7s.2 0 .4-.1c.6-.2.8-.8.6-1.4 0 0-1.5-4.1-2.1-8.2l-.2-7.4c3.5-.1 6.7-.7 6.8-.7.6-.1 1.1-.7.9-1.3-.1-.7-.7-1.1-1.3-.9z" class="cls-5"/></g></svg>