<svg xmlns="http://www.w3.org/2000/svg" id="Layer_1" x="0" y="0" version="1.1" viewBox="0 0 50 50" xml:space="preserve"><style>.st2{fill:#444}.st3{fill:#494949}</style><path fill="#b9d7d9" d="M43.7 11.8L27.3 2.3c-1.4-.8-3-.8-4.4 0L6.5 11.8c-1.4.8-2.2 2.2-2.2 3.8v11.5l40.3-14.7c-.3-.2-.5-.5-.9-.6z"/><path fill="#a6c1c2" d="M46 15.6c0-1.2-.5-2.4-1.4-3.2L4.3 27.1v7.5c0 1.6.8 3 2.2 3.8l6.7 3.8 32.8-12V15.6z"/><circle cx="25" cy="16.6" r="2.5" class="st2"/><path d="M32.4 19.2s-3.3.6-6.4.6h-2c-3.1 0-6.4-.6-6.4-.6-.5-.1-1 .3-1.1.8-.1.5.3 1 .8 1.1.1 0 2.8.5 5.7.6l-.4 6.2c-.5 3.5-1.8 6.9-1.8 6.9-.2.5.1 1 .5 1.2.1 0 .2.1.3.1.4 0 .7-.2.9-.6.1-.1 1-2.6 1.6-5.6.1-.4.4-.6.8-.6s.7.3.8.6c.6 3.1 1.5 5.5 1.6 5.6.1.4.5.6.9.6.1 0 .2 0 .3-.1.5-.2.7-.7.5-1.2 0 0-1.3-3.4-1.8-6.9l-.2-6.2c2.9-.1 5.6-.6 5.7-.6.5-.1.9-.6.8-1.1-.1-.6-.6-.9-1.1-.8z" class="st2"/><path d="M24.9 49.6c-1 0-2-.3-2.8-.8L5.6 39.4c-1.7-1-2.8-2.9-2.8-4.9v-19c0-2 1.1-3.9 2.8-4.9L22 1.1c1.7-1 3.9-1 5.7 0l16.4 9.5c1.7 1 2.8 2.9 2.8 4.9v15.2c0 .7-.6 1.2-1.2 1.2s-1.2-.6-1.2-1.2V15.5c0-1.1-.6-2.2-1.6-2.7L26.5 3.3c-1-.6-2.2-.6-3.2 0L6.9 12.8c-1 .6-1.6 1.6-1.6 2.7v19c0 1.1.6 2.2 1.6 2.7l16.4 9.5c1 .6 2.2.6 3.2 0l11.4-6.6c.6-.3 1.4-.1 1.7.5.3.6.1 1.4-.5 1.7l-11.4 6.6c-.8.5-1.8.7-2.8.7z" class="st3"/><path d="M25 44.4c-.6 0-1.2-.2-1.8-.5L9.5 36c-1.1-.6-1.8-1.8-1.8-3.1V17.2c0-1.3.7-2.4 1.8-3.1.1-.1.3 0 .3.1.1.1 0 .3-.1.3-.9.5-1.5 1.5-1.5 2.6V33c0 1.1.6 2.1 1.5 2.6l13.7 7.9c.9.5 2.1.5 3 0l13.7-7.9c.9-.5 1.5-1.5 1.5-2.6V17.2c0-1.1-.6-2.1-1.5-2.6l-13.6-8c-.9-.5-2.1-.5-3 0-.1.1-.3 0-.3-.1-.1-.1 0-.3.1-.3 1.1-.6 2.4-.6 3.5 0l13.7 7.9c1.1.6 1.8 1.8 1.8 3.1V33c0 1.3-.7 2.4-1.8 3.1L26.8 44c-.6.3-1.2.4-1.8.4z" class="st3"/></svg>