<svg xmlns="http://www.w3.org/2000/svg" id="Camada_1" x="0" y="0" version="1.1" viewBox="0 0 50 50" xml:space="preserve"><style>.st3{fill:#444}</style><path fill="#35d3c3" d="M28 18.1l7.8 2.5-6.7 4.7.1 8.2-6.5-4.9-7.8 2.7 2.6-7.8-4.9-6.6 8.2.1 4.8-6.7z"/><path fill="#7df4eb" d="M43.7 12.7L38 9.1l-7.7-4.4-6-2.8C21.2 1.9 3 10.8 3 14l-.5 7.8.5 15.1 11.5 7.6 31-11c.7-.5-.8-18.8-1.8-20.8z"/><path fill="none" stroke="#444" stroke-linecap="round" stroke-linejoin="round" stroke-miterlimit="10" stroke-width="2.5" d="M26.7 48c-1.7 1-3.8 1-5.5 0L5.7 39C4 38.1 3 36.3 3 34.3v-18c0-2 1-3.8 2.7-4.7l15.6-9c1.7-1 3.8-1 5.5 0l15.6 9c1.7 1 2.7 2.8 2.7 4.7v18c0 2-1 3.8-2.7 4.7l-6.5 4"/><circle cx="21.8" cy="15" r="4" class="st3"/><path d="M35.5 13.8c-.7-.9-1.9-1.1-2.8-.4l-7.9 5.9s-.1 0-.2.1c-.8.5-1.7.8-2.7.8-1 0-2-.3-2.8-.9-.1 0-.1-.1-.1-.1l-7.9-5.9c-.9-.7-2.1-.5-2.8.4-.7.9-.5 2.1.4 2.8l9.3 7c.1.1.1.1.2.1v6.1c-.1.1-.1.2-.2.3l-6 12.7c0 .1 0 .1-.1.2h.1c1.8 0 3 .7 3.8 1.8l.1-.1 5.3-11.1s.3-.5.8-.5.8.5.8.5L28 44.7c.4.8 1.3 1.3 2.2 1.3.3 0 .5-.1.8-.2.5-.2.9-.7 1.1-1.2s.2-1.1-.1-1.7l-6-12.7c-.1-.1-.1-.2-.2-.3v-6.2l9.3-7c.9-.8 1-2 .4-2.9z" class="st3"/></svg>