<svg xmlns="http://www.w3.org/2000/svg" viewBox="0 0 300 300"><defs><style>.cls-20{fill:#4d5152}.cls-21{fill:#138e44}.cls-22{fill:#979a9b}</style></defs><g id="Camada_1"><path id="Camada_10" fill="#008dd3" d="M288.2 149.4c.1 20.8-4.3 40.5-12.2 58.4-22.1 49.9-71.9 84.7-130 84.9-15.4.1-30.3-2.4-44.2-6.8-26.2-8.4-49-24.1-66.1-44.9-17.8-21.4-29.4-48.2-32.3-77.6-.4-4.2-.6-8.6-.6-12.9-.2-48.4 23.8-91.4 60.7-117.3 4.8-3.5 9.9-6.5 15.1-9.2 7.3-4 15.1-7.1 23.1-9.9 7.5-2.4 15.4-4.2 23.5-5.4 6.5-.8 13.1-1.4 19.8-1.5 26.2-.1 50.8 6.9 72.1 19.2 3.9 2.2 7.4 4.5 11 7.1 17 12.1 31.2 27.8 41.6 46 1.2 2.1 2.3 4.1 3.4 6.3.8 1.9 1.8 3.7 2.6 5.6 2.7 6.1 5 12.3 6.9 18.7 2.1 7.1 3.7 14.6 4.5 22 .7 5.7 1.2 11.4 1.2 17.3z"/><g id="Camada_2"><path fill="#708080" d="M59.6 123.2l-24.5-6.8 230.1-4.4 2 .3 24.1 6.7-231.7 4.2z"/><path fill="#9ea8a9" d="M56.1 235.5l21.3 4.4 5.9-8.1-23.7-4.3-3.5 8z"/><path fill="#ccc" d="M38.9 115.1s-2.8.1-3.5 1.5c0 .2-.2.5-.2.9.2 2.9.4 99 .4 99s1.3 7.5 6.2 11.3c0 0 8 6.9 14.4 7.7 6.4.8 188.1-2 188.1-2s13.8.6 22.1-7.8c5.1-4.5 5.9-9.5 5.9-9.5V113.8s.2-1.8-3.4-1.8c-3.9.1-230 3.1-230 3.1z"/><path fill="#aeb9ba" d="M278.4 113.8l-8.3-1.6-3.5 2.3 3.5.2v3.5s24.3.7 24.3.5c0-.3.3-1.6.3-1.6l-16.3-3.3z"/><path d="M77.2 239.9c1 .2 2.1.3 3.2.3l-3.8-.7-15.4-10.8c-1.5-3.9-1.3-7.3-1.3-7.3l-24.4-4.8s1.3 7.3 6.1 11.1c0 0 2 1.7 4.8 3.5s6.4 3.8 9.6 4.2l20 4.2c.3.1.6.2.9.2h.3z" class="cls-22"/><path fill="#f4f4f4" d="M63.3 119.8s-3.9.1-3.8 2.4c.2 2.9.4 99 .4 99s-.3 6.9 3.8 11.6c0 0 6 7 16.8 7.5 7.2 0 188.1-2 188.1-2s13.8.6 22.1-7.8c5.1-4.5 5.9-9.5 5.9-9.5V118.7s.2-1.8-3.4-1.8c-3.8-.1-229.9 2.9-229.9 2.9z"/><path d="M67 235.6l-19.8-3.8s3.4 2.8 10 4c6.6 1.2 18.9 3.8 18.9 3.8s-4.6-.9-9.1-4z" class="cls-22"/><path style="isolation:isolate" fill="#fff" d="M288.6 194.9s-4.2-10.6-11.7 0c0 0-2.1 12.2-3 13.9-.9 1.8-5.3 15-28.3 15.6-23 .6-32.6 2.2-32.6 2.2s-5.4 4.4 0 6.2 58.8 0 58.8 0 16.7-4.1 16.7-13.4.1-24.5.1-24.5z" opacity=".2"/><path fill="#c4cbcc" d="M86.2 102.6l8.2-4.1c0-.1-.5 9.9-8.2 4.1z"/><path d="M274.7 111V83.7s-1-6.9-6.4-13c-9-11.3-22.7-9.8-22.7-9.8S60.7 64 54.3 65.4c-6.4 1.4-13.9 11.5-13.9 11.5-4.4 5.5-5.3 16-5.3 16v21.3c0 1.8 1.3 2.6 2.3 2.9l21.4 6.2 3.3-4.2 3.1-2.4c53-.9 203.5-3.1 206.5-3.5 3.8 0 3-2.2 3-2.2z" class="cls-21"/><path fill="#c17842" d="M55.5 64.2c6.4-1.5 191.9-4.5 191.9-4.5"/><path fill="#57e250" d="M61 123.4s-4 0-3.9-3.2V98.3s.9-10.8 5.3-16.5c0 0 7.4-10.3 13.8-11.7 6.4-1.5 191.2-4.6 191.2-4.6s13.7-1.5 22.7 10.1c5.3 6.2 6.5 13.3 6.5 13.3v25.7s.7 4.5-2.9 4.6c-3.6.2-232.8 4.2-232.8 4.2z"/><path d="M247.5 59.7s3.9 0 7.5.9c3.5 1 20.1 5.5 20.1 5.5l-3.8-.6h-3.1c-9.2.2-184.8 3.3-191.1 4.5L56 64.1s16-.8 18.7-.8c2.7 0 16.8-.4 16.8-.4l156-3.1z" class="cls-21"/><path fill="#86d18f" d="M57.2 97.5l-21.3-4.6c-.4 0-.8-.4-.8-.9.8-3.6.4-11.9 10.3-20.8 3-3 6.7-6 10.6-6.9l21.2 5.8s-7 2.7-10.8 7.3c-3.8 4.6-6.9 8.8-8.1 14.4-1.2 4.5-1.1 5.7-1.1 5.7z"/></g><path fill="#444" d="M81.5 195.7c-2.6-2.3-4-5.4-4-9.3v-2.9c0-3.8 1.4-6.9 4.1-9.2 2.7-2.3 6.3-3.5 10.8-3.5h5.8c2 0 4.1.3 6.2.9 2.1.6 3.9 1.4 5.5 2.5v-7.5c0-2.5-.8-4.6-2.4-6.2-1.6-1.6-3.7-2.4-6.3-2.4h-7.3c-2.6 0-4.7.6-6.3 1.8-1.6 1.2-2.4 2.8-2.4 4.8h-6.5c0-3.7 1.4-6.7 4.2-8.9 2.8-2.3 6.5-3.4 11-3.4h7.3c4.5 0 8.1 1.3 10.9 4 2.8 2.6 4.1 6.1 4.1 10.4v31.7H110v-6.4c-1.4 2.2-3.2 3.9-5.5 5.2-2.3 1.3-4.6 1.9-7 1.9H92c-4.4 0-7.9-1.1-10.6-3.5zm16.3-2.2c2.8 0 5.4-.9 7.6-2.6 2.2-1.8 3.8-4.1 4.5-7v-3.4c-1.2-1.2-2.9-2.1-5-2.8-2.2-.7-4.3-1-6.6-1h-5.8c-2.5 0-4.5.6-6 1.9-1.5 1.3-2.3 2.9-2.3 5v2.9c0 2.1.7 3.8 2.2 5.1 1.5 1.3 3.4 1.9 5.8 1.9h5.6zm66.8-9.8h-23.9l-8.2 14.8H119l36.1-63.6h5.6c3.9 0 6.3 1.8 7.1 5.5l12.4 58.1h-12.6l-2.9-14.8zM146 173.1h17.1l-4.4-22.9-12.6 22.9z"/><path fill="#ff8da4" d="M238.7 150.9l-7.5-13.5c-.8-1.4-2.9-.8-2.8.8l.3 15.4c0 1.2-1.3 1.9-2.3 1.3l-13.2-7.9c-1.4-.8-2.9.7-2.1 2.1l7.9 13.2c.6 1-.1 2.3-1.3 2.3l-15.4-.3c-1.6 0-2.1 2.1-.8 2.8l13.5 7.5c1 .6 1 2.1 0 2.7l-13.5 7.5c-1.4.8-.8 2.9.8 2.8l15.4-.3c1.2 0 1.9 1.3 1.3 2.3l-7.9 13.2c-.8 1.4.7 2.9 2.1 2.1l13.2-7.9c1-.6 2.3.1 2.3 1.3l-.3 15.4c0 1.6 2.1 2.1 2.8.8l7.5-13.5c.3-.5.8-.8 1.3-.8v-48.6c-.5 0-1-.3-1.3-.8z"/><path fill="#d32a53" d="M278.6 184.8l-13.5-7.5c-1-.6-1-2.1 0-2.7l13.5-7.5c1.4-.8.8-2.9-.8-2.8l-15.4.3c-1.2 0-1.9-1.3-1.3-2.3l7.9-13.2c.8-1.4-.7-2.9-2.1-2.1l-13.2 7.9c-1 .6-2.3-.1-2.3-1.3l.3-15.4c0-1.6-2.1-2.1-2.8-.8l-7.5 13.5c-.3.5-.8.8-1.3.8v48.6c.5 0 1 .3 1.3.8l7.5 13.5c.8 1.4 2.9.8 2.8-.8l-.3-15.4c0-1.2 1.3-1.9 2.3-1.3l13.2 7.9c1.4.8 2.9-.7 2.1-2.1l-7.9-13.2c-.6-1 .1-2.3 1.3-2.3l15.4.3c1.6 0 2.1-2.1.8-2.8z"/><path fill="none" stroke="#444" stroke-linecap="round" stroke-linejoin="round" stroke-width="2" d="M81.8 211h61.9m-61.9 10.6h61.9"/><path fill="#ddd" stroke="#515759" stroke-miterlimit="10" stroke-width="4" d="M114.9 89.8c-2.5 6.8-8.2 11.8-8.2 11.8L92.2 84.2c-.2-.3-.6-.5-.9-.5h0c-.4 0-.7 0-1 .3l-8.4 7.3c-.3.3-.4.6-.4 1.1h0c0 .3.1.6.3.8l14.9 17s-6.2 4.4-13.4 5.4c-6.1.8 31.6 17.6 42.8 22.5 1.3.6 2.7-.5 2.4-1.9-2.6-12.1-11.4-52.2-13.6-46.4z"/><path style="isolation:isolate" fill="#fff" d="M111.9 111.9c2.2 3.8 5.2 10.5 6.8 13.4 2 3.6 3.6 6 4.7 7.1.5.5 1.2 0 1-.8-.3-1.8-1.1-5.5-3.1-13-.6-3.2-4.9-20.4-5.6-21.8-.7-3.9-3 5.6-6.9 8.4h-.1" opacity=".4"/><path style="isolation:isolate" fill="#fff" d="M113.8 108.1c1.1 2.2 2.5 6.1 3.4 7.9 1 2.1 1.7 3.5 2.3 4.2.3.3.5 0 .5-.5-.2-1-.6-3.2-1.6-7.6-.3-1.9-2.5-11.9-2.8-12.8-.4-2.3-1.3 3.2-3.2 4.9" opacity=".6"/><g><circle cx="276.1" cy="96.1" r="9.7" class="cls-20" transform="rotate(-.9 285.723 97.741)"/><circle cx="244.4" cy="96.6" r="9.7" class="cls-20" transform="rotate(-.9 253.893 97.491)"/><circle cx="212.7" cy="97.2" r="9.7" class="cls-20" transform="rotate(-.9 215.696 97.191)"/></g></g></svg>