<?xml version="1.0" encoding="utf-8"?>
<!-- Generator: Adobe Illustrator 28.1.0, SVG Export Plug-In . SVG Version: 6.00 Build 0)  -->
<svg version="1.1" id="Layer_1" xmlns="http://www.w3.org/2000/svg" xmlns:xlink="http://www.w3.org/1999/xlink" x="0px" y="0px"
	 viewBox="0 0 50 50" style="enable-background:new 0 0 50 50;" xml:space="preserve">
<style type="text/css">
	.st0{fill:#DC5E82;}
	.st1{fill:none;stroke:#363636;stroke-width:2.5;stroke-linecap:round;stroke-miterlimit:10;}
	.st2{fill:none;stroke:#363636;stroke-linecap:round;stroke-linejoin:round;stroke-miterlimit:10;}
	.st3{fill:none;stroke:#363636;stroke-width:0.5;stroke-linecap:round;stroke-miterlimit:10;}
	.st4{fill:none;stroke:#363636;stroke-linecap:round;stroke-miterlimit:10;}
</style>
<g>
	<path class="st0" d="M45,16.3l0.5-11l-1.9-3.8l-31.3,1c-3.2,0-0.8,23.8-0.8,27l-7.7,8L6.2,46l7.5,1.7l31-11
		C45.5,36.2,45.9,18.3,45,16.3z"/>
	<g>
		<g>
			<path class="st1" d="M44.7,38.8V3.3c0-0.7-0.6-1.3-1.3-1.3h-4.4h-9.5H12.2C11.5,2,11,2.6,11,3.3V30"/>
			<path class="st1" d="M20.7,44h17.1"/>
		</g>
		<g>
			<g>
				
					<rect x="33.6" y="20.4" transform="matrix(-1 -4.516266e-11 4.516266e-11 -1 72.3527 46.1158)" class="st2" width="5.2" height="5.2"/>
				<g>
					<g>
						<line class="st3" x1="29" y1="20.4" x2="16.1" y2="20.4"/>
						<line class="st3" x1="29" y1="23.6" x2="22.9" y2="23.6"/>
					</g>
				</g>
			</g>
			<g>
				
					<rect x="33.6" y="31.2" transform="matrix(-1 -4.446811e-11 4.446811e-11 -1 72.3527 67.5457)" class="st2" width="5.2" height="5.2"/>
				<g>
					<g>
						<line class="st3" x1="29" y1="31.2" x2="20.9" y2="31.2"/>
						<line class="st3" x1="29" y1="34.3" x2="24.9" y2="34.3"/>
					</g>
				</g>
			</g>
			<g>
				<g>
					<g>
						<g>
							<line class="st3" x1="29" y1="9.4" x2="16.1" y2="9.4"/>
							<line class="st3" x1="29" y1="12.6" x2="19.3" y2="12.6"/>
						</g>
					</g>
				</g>
			</g>
		</g>
		<g>
			<path class="st3" d="M18.3,44.7c-3,3-7.8,3-10.8,0c-3-3-3-7.8,0-10.8c3-3,7.8-3,10.8,0C21.3,36.8,21.3,41.7,18.3,44.7z"/>
			<polyline class="st4" points="8.7,39.6 11.8,42.3 16.7,36.8 			"/>
		</g>
	</g>
	<line class="st4" x1="39.4" y1="11" x2="32.9" y2="11"/>
	<line class="st4" x1="36.1" y1="7.8" x2="36.1" y2="14.3"/>
	<path class="st1" d="M20.7,44l-0.4,0.5c-0.3,0.4-0.6,0.7-1.1,1.1c-3.5,3.5-9.2,3.3-12.7-0.1c-3.5-3.5-3.5-9.1,0-12.6
		c1.2-1.2,2.8-2,4.4-2.4"/>
	<polyline class="st3" points="11.4,31.5 12.2,31.5 12.2,2.4 	"/>
	<polyline class="st3" points="19.1,44.5 19.9,43 37.7,43 	"/>
</g>
</svg>
