<svg xmlns="http://www.w3.org/2000/svg" id="Camada_3" x="0" y="0" version="1.1" viewBox="0 0 50 50" xml:space="preserve"><style>.st2{fill:none;stroke:#444;stroke-width:2.5;stroke-linecap:round;stroke-linejoin:round;stroke-miterlimit:10}.st3{fill:#444}</style><path fill="#fdcf72" d="M33.92 2.72l-7.78-.67c-3.2 0-14.54.27-21.43 10.21L.7 23.06 41.75 8.62l-7.83-5.9z"/><path fill="#fcc34f" d="M.58 22.93l3.96 13.41c.11.36 4.55 5.65 4.86 5.85l5.62 2.97 32.19-11.74c.65-.37 1.7-8.64.75-13.41-.16-.79-2.69-7.49-3.21-8.1l-3-3.51L.58 22.93z"/><path d="M36.72 45.32c-7.89 4.54-18.06 4.24-25.79-1.58C.57 35.96-1.52 21.26 6.27 10.91" class="st2"/><path d="M6.14 11.08c2.03-2.99 4.73-4.73 4.73-4.73l.66-.54C19.61.12 30.77-.01 39.1 6.26c10.36 7.78 12.44 22.48 4.65 32.83" class="st2"/><path d="M18.72 25.09c-.02 1.15.12 2.28.39 3.35.26.33.54.64.89.89.44.33.93.53 1.48.62.47.08.94.1 1.42.02.44-.07.85-.21 1.21-.48.81-.63.79-1.8.13-2.44-.23-.22-.49-.4-.78-.54-.62-.29-1.24-.58-1.86-.85-.61-.27-1.23-.53-1.81-.86-.37-.21-.72-.43-1.04-.69-.03.32-.03.65-.03.98z" class="st3"/><path d="M32.12 12.05a13.01 13.01 0 00-8.99 3.26c.3.04.6.09.9.17.64.17 1.22.46 1.75.86.57.44 1.01.98 1.39 1.59.03.05.07.11.1.16.04.06.02.09-.03.13l-1.98 1.26c-.23.14-.45.29-.67.44-.08.05-.12.04-.17-.04-.18-.3-.38-.59-.64-.84-.39-.38-.86-.56-1.4-.59-.38-.03-.75 0-1.1.17-.57.28-.84.74-.85 1.36-.01.61.25 1.07.74 1.41.39.27.82.47 1.25.67.44.19.88.38 1.31.57.62.27 1.24.57 1.82.91.68.4 1.31.88 1.81 1.5.53.65.83 1.41.94 2.24.1.71.1 1.42-.06 2.12a4.367 4.367 0 01-1.54 2.52c-.68.56-1.47.91-2.33 1.11-.67.16-1.35.23-2.14.22-.23 0-.49-.01-.75-.03 2.34 2.96 5.95 4.9 10 4.97 7.56.14 13.34-5.91 13.35-13.03 0-7.48-6.03-12.95-12.71-13.11zm-.96 5.51c.04-1.35 1.04-2.42 2.39-2.4 1.59.02 2.4 1.41 2.33 2.44 0 1.3-1.08 2.39-2.36 2.39-1.26.01-2.41-1.14-2.36-2.43zm9.61 4.37c-.75.14-1.51.25-2.26.33-.84.09-1.68.13-2.51.21-.53.04-.77.32-.78.84-.05 2.6.41 5.14 1.04 7.64.22.86.48 1.7.72 2.56.13.47-.03.87-.41 1.05-.47.22-.96.01-1.12-.54-.32-1.1-.61-2.2-.9-3.3-.18-.71-.33-1.42-.5-2.13-.04-.15-.09-.3-.17-.43-.14-.22-.4-.23-.55-.02-.09.12-.14.27-.18.42l-1.32 5.25c-.03.13-.08.25-.14.37-.2.39-.59.55-.97.41-.41-.15-.64-.56-.53-.98.34-1.29.74-2.58 1.04-3.88.48-2.06.8-4.15.73-6.28-.02-.62-.26-.92-.88-.96-1.12-.08-2.23-.13-3.35-.21-.44-.03-.88-.08-1.32-.14-.41-.06-.74-.48-.7-.84.05-.45.39-.75.85-.75h.11c1.05.09 2.06.17 3.06.25.07.01.13.01.2.01 1.8.02 3.6.12 5.39.05 1.7-.07 3.39-.3 5.09-.48.42-.04.83.2.93.62.09.39-.14.85-.57.93zm-24.75 0v5.96c0 .83-.12 1.63-.43 2.41-.44 1.13-1.22 1.93-2.32 2.43-.63.28-1.3.42-1.99.48-.6.05-1.19.03-1.78-.06-1.7-.26-3.04-1.08-3.96-2.54-.12-.19-.22-.39-.34-.59-.04-.07-.03-.11.04-.15.82-.49 1.64-.98 2.46-1.48.11-.07.22-.13.33-.2.06-.04.1-.03.15.04.21.32.4.66.64.96.4.53.95.8 1.62.79.39 0 .78-.03 1.13-.23.31-.17.5-.42.62-.74.12-.3.18-.6.18-.92.01-.86.02-1.71.02-2.57v-9.37c0-.2 0-.4-.01-.6 0-.09.03-.11.11-.11h3.42c.09 0 .12.02.12.12-.01 2.13-.01 4.25-.01 6.37z" class="st3"/></svg>