<svg xmlns="http://www.w3.org/2000/svg" viewBox="0 0 50 50"><defs><style>.cls-2{fill:#444}</style></defs><g id="Camada_1"><path fill="#ff6b6b" d="M34.4 6l-8.3-3.1c-1.1-.4-2.3-.4-3.4.1l-7.1 3.3c-.9.4-1.7 1.2-2.1 2.1L12 11.5c-.5 1-1.4 1.8-2.5 2.2-2.3.8-5.3 3.1-6.9 5.4s-1.1 3.1-.4 4.6l2.3 4.7c.3.6.4 1.2.4 1.8L5.4 43c0 2.3 1.9 4.1 4.2 4.3l2.7.2c.6 0 1.2 0 1.8-.2l28.2-10c1.4-.5 3-1 2.5-2.4-1.6-4.9 4.3-10.6 2.4-16.7s-5.5-2.9-7.9-5.3-4.2-6.6-4.7-6.8z"/><path d="M20.5 15l1.7-1.7v8c0 .3.2.5.5.5s.5-.2.5-.5v-9.1c0-.1 0-.2-.1-.3-.2-.2-.5-.2-.7 0l-2.5 2.5c-.2.2-.2.5 0 .6s.5.2.7 0zm5.7 6.6c.2.2.5.2.7 0l2.5-2.5c.2-.2.2-.5 0-.6-.2-.2-.5-.2-.7 0L27 20.2v-8c0-.3-.2-.5-.5-.5s-.5.2-.5.5v9.1c0 .1 0 .2.1.3zM12.5 44.3c.7 0 1.3-.3 1.8-.7.5-.5.7-1.1.7-1.8s-.3-1.3-.7-1.8c-.5-.5-1.1-.7-1.8-.7s-1.3.3-1.8.7c-.5.5-.7 1.1-.7 1.8s.3 1.3.7 1.8c.5.5 1.1.7 1.8.7zm-1.2-3.6c.3-.3.7-.5 1.1-.5s.8.2 1.1.5c.3.3.5.7.5 1.1s-.2.8-.5 1.1c-.3.3-.7.5-1.1.5s-.8-.2-1.1-.5c-.3-.3-.5-.7-.5-1.1s.2-.8.5-1.1z" class="cls-2"/><path d="M43.2 36.7c.2 0-1-.4-.8-.6.5-.5.8-1.2.8-1.9V29c1.2-.7 2.1-1.7 2.8-2.8.7-1.2 1.1-2.6 1.1-4.1 0-2.2-.9-4.2-2.4-5.7S41.2 14 39 14h-.9c-.6-3.1-2.3-5.7-4.6-7.7-2.4-2-5.5-3.2-8.9-3.2s-6.5 1.2-8.9 3.2c-2.3 1.9-4 4.6-4.6 7.7h-.9c-2.2 0-4.3.9-5.7 2.4-1.5 1.5-2.4 3.5-2.4 5.7s.4 2.9 1.1 4.1c.7 1.2 1.7 2.1 2.8 2.8v5.2c0 .7.3 1.4.8 1.9.1.1.3.2.4.3-.2 0-.3.2-.4.3-.5.5-.8 1.2-.8 1.9v6.1a2.732 2.732 0 002.7 2.7h10.1c0-.3 0 .9.1.6V36.8h21.4c.5 0 2.4.3 2.4 2.2m-.5-4.8c0 .5-.2.9-.5 1.3s-.8.5-1.3.5H19v-9.7h21.4c.5 0 1 .2 1.3.5s.5.8.5 1.3v6.1zM6 28c-.8-.6-1.5-1.3-2-2.2-.6-1.1-1-2.3-1-3.6 0-2 .8-3.7 2.1-5s3.1-2.1 5.1-2.1 1.8.2 2.6.5c.9.3 1.6.8 2.3 1.4.2.2.5.2.7 0 .2-.2.2-.5 0-.6-.7-.7-1.6-1.2-2.6-1.6-.4-.1-.8-.3-1.2-.4.6-2.8 2.2-5.3 4.3-7.1 2.2-1.9 5.1-3 8.3-3s6 1.1 8.3 3c2.2 1.8 3.7 4.3 4.3 7.1-.4 0-.8.2-1.2.4-1 .4-1.8.9-2.6 1.6-.2.2-.2.5 0 .6s.5.2.7 0c.7-.6 1.4-1.1 2.3-1.4.8-.3 1.7-.5 2.6-.5 2 0 3.8.8 5.1 2.1s2.1 3.1 2.1 5-.4 2.6-1 3.6c-.5.9-1.2 1.6-2 2.2 0-.7-.3-1.3-.8-1.7-.5-.5-1.2-.8-1.9-.8H8.7c-.8 0-1.4.3-1.9.8S6 27.4 6 28zm12 18.6H8.7c-.5 0-1-.2-1.3-.5-.3-.3-.5-.8-.5-1.3v-6.1c0-.5.2-.9.5-1.3.3-.3.8-.5 1.3-.5H18v9.7zM18 36H8.7c-.5 0-1-.2-1.3-.5-.3-.3-.5-.8-.5-1.3v-6.1c0-.5.2-.9.5-1.3.3-.3.8-.5 1.3-.5H18V36z" class="cls-2"/><path d="M12.5 33.7c.7 0 1.3-.3 1.8-.7.5-.5.7-1.1.7-1.8s-.3-1.3-.7-1.8c-.5-.5-1.1-.7-1.8-.7s-1.3.3-1.8.7c-.5.5-.7 1.1-.7 1.8s.3 1.3.7 1.8c.5.5 1.1.7 1.8.7zm-1.2-3.6c.3-.3.7-.5 1.1-.5s.8.2 1.1.5c.3.3.5.7.5 1.1s-.2.8-.5 1.1c-.3.3-.7.5-1.1.5s-.8-.2-1.1-.5c-.3-.3-.5-.7-.5-1.1s.2-.8.5-1.1z" class="cls-2"/><path d="M46.1 14.7c-1.6-1.5-3.5-2.6-5.7-2.9s-.8-.4-1-.8c-1-2.4-2.6-4.6-4.6-6.3C31.9 2.3 28.2 1 24.4 1S16.9 2.3 14 4.7c-2 1.7-3.6 3.9-4.6 6.3s-.6.7-1 .8c-2.1.4-4.1 1.4-5.7 2.9-2 2-3.1 4.6-3.1 7.4s.5 3.7 1.5 5.3c.6.9 1.2 1.7 2 2.4s.4.6.4 1V34c0 .7.1 1.4.4 2s0 .7 0 1-.3.9-.3 1.5v6c0 1.4.6 2.7 1.6 3.7s2.3 1.5 3.7 1.5h26.6c.8 0 1.5-.8 1.2-1.6-.2-.6-.6-1-1.2-1H8.8a2.732 2.732 0 01-2.7-2.7v-6c0-.7 1-1 1.5-1.5l.5-.5c-.2-.1-1.1-.5-1.2-.6-.5-.5-.8-1.2-.8-1.9v-4.4c0-.4-.2-.8-.6-1-.9-.6-1.7-1.5-2.2-2.4-.7-1.2-1.1-2.6-1.1-4 0-2.2.9-4.2 2.3-5.6 1.4-1.4 3.5-2.3 5.7-2.3h.9c.6-3 2.3-5.6 4.6-7.6 2.4-2 5.4-3.1 8.8-3.1s6.4 1.2 8.8 3.1c2.3 1.9 3.9 4.5 4.6 7.6h.9c2.2 0 4.2.9 5.7 2.3s2.3 3.4 2.3 5.6-.4 2.8-1.1 4c-.6.9-1.3 1.8-2.2 2.4s-.6.6-.6 1v4.4c0 .7-.3 1.4-.8 1.9-.1.1-.3.2-.4.3.2.1.3.2.4.3.5.5.8 1.2.8 1.9v2.2c0 .5.3.9.7 1.1.8.4 1.8-.2 1.8-1.1v-2.2c0-.6-.1-1.2-.3-1.8s-.1-.6 0-1c.2-.6.3-1.2.3-1.8v-3.2c0-.4.2-.7.4-1 .8-.7 1.4-1.5 2-2.4 1-1.6 1.5-3.5 1.5-5.3 0-2.8-1.1-5.4-3.1-7.4z" class="cls-2"/></g></svg>