<?xml version="1.0" encoding="utf-8"?>
<!-- Generator: Adobe Illustrator 26.5.0, SVG Export Plug-In . SVG Version: 6.00 Build 0)  -->
<svg version="1.1" id="Camada_3" xmlns="http://www.w3.org/2000/svg" xmlns:xlink="http://www.w3.org/1999/xlink" x="0px" y="0px"
	 viewBox="0 0 50 50" style="enable-background:new 0 0 50 50;" xml:space="preserve">
<style type="text/css">
	.st0{fill:#FDCE74;}
	.st1{fill:#FBC14F;}
	.st2{fill:none;stroke:#454444;stroke-width:2.5;stroke-linecap:round;stroke-linejoin:round;stroke-miterlimit:10;}
	.st3{fill:none;stroke:#454444;stroke-width:0.25;stroke-linecap:round;stroke-linejoin:round;stroke-miterlimit:10;}
	.st4{fill:#454444;}
	.st5{fill:none;stroke:#454444;stroke-width:0.25;stroke-miterlimit:10;}
</style>
<g>
	<g>
		<path class="st0" d="M34.46,2.05L13.42,1.31c-2.96,0-5.37,2.4-5.37,5.37V21.4L42.19,9.25L34.46,2.05z"/>
		<polygon class="st1" points="8.05,21.4 8.05,48.22 43.74,35.52 44.5,30.45 44.5,11.36 42.81,9.03 		"/>
	</g>
	<path class="st2" d="M34.92,48.95h-24.8c-0.76,0-1.37-0.64-1.37-1.42V3.5c0-0.78,0.61-1.42,1.37-1.42l24.34-0.03
		c1.8,1.94,9.29,9.24,10.05,10.21V41"/>
	<path class="st3" d="M33.87,2.05L33.87,2.05l-0.01,10.8H44.5C43.67,11.81,35.76,4.1,33.87,2.05z"/>
	<g>
		<path class="st4" d="M14.67,10.6h-0.03c-0.14,0.57-0.3,1.15-0.48,1.73l-0.94,2.76h2.88l-0.94-2.75
			C14.95,11.72,14.81,11.16,14.67,10.6z"/>
		<path class="st4" d="M3.25,11.18v6.29c0,1.53,1.24,2.76,2.76,2.76h23.11c1.53,0,2.76-1.24,2.76-2.76v-6.29
			c0-1.53-1.24-2.76-2.76-2.76H6.01C4.48,8.42,3.25,9.66,3.25,11.18z M17.38,19.06l-1.02-3h-3.39l-0.99,3H10.7l3.24-9.55h1.49
			l3.26,9.55H17.38z M21.33,19.06H20.1V9.51h1.23V19.06z"/>
	</g>
	<g>
		<g>
			<path class="st4" d="M26.04,33.43c-1.65,0-2.99-1.34-2.99-2.99c0-1.65,1.34-2.99,2.99-2.99c1.65,0,2.99,1.34,2.99,2.99
				C29.03,32.09,27.69,33.43,26.04,33.43z M26.04,28.84c-0.88,0-1.6,0.72-1.6,1.6c0,0.88,0.72,1.6,1.6,1.6c0.88,0,1.6-0.72,1.6-1.6
				C27.64,29.56,26.93,28.84,26.04,28.84z"/>
		</g>
		<g>
			<path class="st4" d="M16.61,40.51c-1.65,0-2.99-1.34-2.99-2.99c0-1.65,1.34-2.99,2.99-2.99c1.65,0,2.99,1.34,2.99,2.99
				C19.6,39.17,18.26,40.51,16.61,40.51z M16.61,35.92c-0.88,0-1.6,0.72-1.6,1.6c0,0.88,0.72,1.6,1.6,1.6c0.88,0,1.6-0.72,1.6-1.6
				C18.21,36.64,17.49,35.92,16.61,35.92z"/>
		</g>
		<g>
			<path class="st4" d="M36.31,26.36c-1.65,0-2.99-1.34-2.99-2.99c0-1.65,1.34-2.99,2.99-2.99c1.65,0,2.99,1.34,2.99,2.99
				C39.3,25.02,37.96,26.36,36.31,26.36z M36.31,21.77c-0.88,0-1.6,0.72-1.6,1.6c0,0.88,0.72,1.6,1.6,1.6c0.88,0,1.6-0.72,1.6-1.6
				C37.92,22.49,37.2,21.77,36.31,21.77z"/>
		</g>
		<g>
			<path class="st4" d="M19.06,32.78h-1.74c-0.84,0-1.53-0.69-1.53-1.53v-1.63c0-0.84,0.69-1.53,1.53-1.53h1.74
				c0.84,0,1.53,0.69,1.53,1.53v1.63C20.59,32.1,19.9,32.78,19.06,32.78z M17.32,29.49c-0.08,0-0.14,0.06-0.14,0.14v1.63
				c0,0.08,0.06,0.14,0.14,0.14h1.74c0.08,0,0.14-0.06,0.14-0.14v-1.63c0-0.08-0.06-0.14-0.14-0.14H17.32z"/>
		</g>
		<g>
			<path class="st4" d="M34.78,32.78h-1.74c-0.84,0-1.53-0.69-1.53-1.53v-1.63c0-0.84,0.69-1.53,1.53-1.53h1.74
				c0.84,0,1.53,0.69,1.53,1.53v1.63C36.31,32.1,35.63,32.78,34.78,32.78z M33.05,29.49c-0.08,0-0.14,0.06-0.14,0.14v1.63
				c0,0.08,0.06,0.14,0.14,0.14h1.74c0.08,0,0.14-0.06,0.14-0.14v-1.63c0-0.08-0.06-0.14-0.14-0.14H33.05z"/>
		</g>
	</g>
	<path class="st5" d="M18.69,36.95c0,0,4.73,0.57,5.07-6.04"/>
	<path class="st5" d="M28.26,29.98c0,0-0.05-5.4,5.3-6.03"/>
	<line class="st5" x1="19.86" y1="30.44" x2="23.76" y2="30.44"/>
	<line class="st5" x1="27.98" y1="30.44" x2="31.88" y2="30.44"/>
</g>
</svg>
