<?xml version="1.0" encoding="utf-8"?>
<!-- Generator: Adobe Illustrator 24.0.0, SVG Export Plug-In . SVG Version: 6.00 Build 0)  -->
<svg version="1.1" id="Layer_1" xmlns="http://www.w3.org/2000/svg" xmlns:xlink="http://www.w3.org/1999/xlink" x="0px" y="0px"
	 viewBox="0 0 50 50" style="enable-background:new 0 0 50 50;" xml:space="preserve">
<style type="text/css">
	.st0{fill:#A475EF;}
	.st1{fill:#BF94F7;}
	.st2{fill:#031326;}
</style>
<g>
	<polygon class="st0" points="47.7,26.3 48.2,30.6 1.8,47.5 1.9,38.4 2.3,33.2 48.5,16.4 47.7,20.1 	"/>
</g>
<g>
	<polygon class="st1" points="47.7,9.7 47.2,17.4 1.9,33.9 1.9,24.1 2.3,19.6 47.9,3 	"/>
</g>
<g>
	<path class="st2" d="M32.9,49.5H1.6c-0.7,0-1.2-0.6-1.2-1.2V1.7c0-0.7,0.6-1.2,1.2-1.2h46.9c0.7,0,1.2,0.6,1.2,1.2v36.1
		c0,0.7-0.6,1.2-1.2,1.2s-1.2-0.6-1.2-1.2V3H2.8V47h30.1c0.7,0,1.2,0.6,1.2,1.2S33.6,49.5,32.9,49.5z"/>
</g>
<g>
	<polygon class="st2" points="25.7,25.2 25.7,25.2 25.6,25.2 	"/>
</g>
<g>
	<path class="st2" d="M41.2,8.8c-1.8,0-3.2,1.4-3.2,3.2c0,0.6,0.2,1.1,0.5,1.6L25.7,25.2v0h-0.1L12.5,37.1c-0.5-0.3-1-0.4-1.6-0.4
		c-1.8,0-3.2,1.4-3.2,3.2c0,1.8,1.4,3.2,3.2,3.2s3.2-1.4,3.2-3.2c0-0.6-0.2-1.2-0.5-1.7l26-23.5c0.5,0.3,1.1,0.5,1.7,0.5
		c1.8,0,3.2-1.4,3.2-3.2C44.4,10.2,43,8.8,41.2,8.8z M10.9,41.5c-0.9,0-1.7-0.8-1.7-1.7c0-0.9,0.8-1.7,1.7-1.7s1.7,0.8,1.7,1.7
		C12.6,40.8,11.8,41.5,10.9,41.5z M41.2,13.6c-0.9,0-1.7-0.8-1.7-1.7c0-0.9,0.8-1.7,1.7-1.7s1.7,0.8,1.7,1.7
		C42.9,12.9,42.2,13.6,41.2,13.6z"/>
</g>
<g>
	<polygon class="st2" points="25.7,25.2 25.6,25.2 21.1,25.5 20.8,21 25.4,20.7 	"/>
	<polygon class="st2" points="25.7,25.2 25.7,25.2 25.6,25.2 	"/>
</g>
</svg>
