<?xml version="1.0" encoding="utf-8"?>
<!-- Generator: Adobe Illustrator 22.0.1, SVG Export Plug-In . SVG Version: 6.00 Build 0)  -->
<svg version="1.1" id="Layer_1" xmlns="http://www.w3.org/2000/svg" xmlns:xlink="http://www.w3.org/1999/xlink" x="0px" y="0px"
	 viewBox="0 0 50 50" style="enable-background:new 0 0 50 50;" xml:space="preserve">
<style type="text/css">
	.st0{fill:#9674EA;}
	.st1{fill:#B292F3;}
	.st2{fill:#462826;}
	.st3{fill:#754C29;}
	.st4{fill:#444444;}
	.st5{fill:none;}
</style>
<g>
	<g>
		<path class="st0" d="M13.5,39.4c1.1,0.2,2.4-0.2,3.2-0.9c0.4-0.4,0.8-0.9,1-1.6c0.8,0.6,1.6,1.1,2.4,1.5l28.1-10.2
			c-0.2-1.9-1.5-3.5-3.4-3.8c-0.1,0-0.1,0-0.2,0c0-0.2,0-0.5,0-0.7c0.4-0.5,0.8-0.9,1.2-1.4c4.4-4.9,2.2-10.9-2.9-15.1l-30.4,11
			c-0.4,1-0.7,2-0.9,3.1c-0.8,4.2,0.2,8.3,2.3,11.6c-0.5,0.1-1.1,0.2-1.6,0.7c-1,0.7-1.5,2-1.3,3.2c-2.4,1.6-5.6,4.1-7.6,6.2
			c-0.7,0.7-1.1,1.4-1.4,2l9.6-3.5C12.3,40.8,12.9,40,13.5,39.4z"/>
	</g>
	<g>
		<path class="st1" d="M31.6,2c-9.3-1.7-18,4.6-19.4,14c-0.1,0.9-0.2,1.9-0.2,2.8c-0.1,0.2-0.1,0.3-0.2,0.5l32-11.7
			C40.5,4.9,36.2,2.8,31.6,2z"/>
	</g>
	<g>
		<path class="st2" d="M38.2,5.3"/>
	</g>
	<g>
		<path class="st3" d="M34.6,27.5"/>
	</g>
	<g>
		<path class="st4" d="M36.9,33.4c-0.1,0.5-0.8,0.7-1.7,0.6c-0.8-0.1-1.4-0.6-1.4-1.1c0.1-0.5,0.8-0.7,1.7-0.6
			C36.4,32.5,37,32.9,36.9,33.4z"/>
	</g>
	<g>
		<path class="st4" d="M17.3,30.1c-0.1,0.5-0.8,0.7-1.7,0.6c-0.8-0.1-1.4-0.6-1.4-1.1c0.1-0.5,0.8-0.7,1.7-0.6
			C16.8,29.2,17.4,29.7,17.3,30.1z"/>
	</g>
	<g>
		<g>
			<polygon class="st4" points="35.1,29 36.3,29.4 35.5,28.5 			"/>
		</g>
		<g>
			<path class="st4" d="M29.1,27.2L29,27.3L29.1,27.2L29.1,27.2L29,27.3L29.1,27.2c0,0,0.3,0.5,0.7,0.9c0.2,0.2,0.5,0.5,0.8,0.7
				s0.7,0.4,1.1,0.5c0.2,0.1,0.5,0.1,0.8,0.1c0.4,0,0.9-0.1,1.4-0.4s1.1-0.7,1.7-1.2c0.2-0.2,0.5-0.2,0.6,0s0.2,0.4,0,0.6
				c-0.9,0.8-1.7,1.4-2.5,1.7c-0.4,0.1-0.8,0.2-1.2,0.2s-0.7,0-1.1-0.1c-0.5-0.1-1-0.3-1.4-0.6c-0.6-0.4-1.1-0.9-1.4-1.2
				c-0.3-0.4-0.5-0.7-0.5-0.7c-0.1-0.2,0-0.5,0.2-0.6C28.7,26.9,29,27,29.1,27.2L29.1,27.2z"/>
		</g>
	</g>
	<g>
		<g>
			<polygon class="st4" points="14.2,25.3 12.9,25.2 14,24.6 			"/>
		</g>
		<g>
			<path class="st4" d="M20.9,26L20.9,26L20.9,26L20.9,26L20.9,26L20.9,26c0,0-0.5,0.3-1.1,0.6c-0.3,0.1-0.7,0.3-1.1,0.3
				c-0.4,0.1-0.8,0.1-1.3,0c-0.3-0.1-0.5-0.1-0.8-0.3c-0.4-0.2-0.8-0.5-1.2-1s-0.8-1.1-1.1-1.9c-0.1-0.2-0.4-0.4-0.6-0.3
				c-0.3,0.1-0.4,0.3-0.3,0.6c0.5,1.2,1.1,2.1,1.7,2.7c0.3,0.3,0.7,0.5,1,0.7c0.4,0.2,0.7,0.3,1.1,0.4c0.6,0.1,1.2,0.1,1.7,0
				c0.8-0.1,1.4-0.4,1.9-0.7c0.5-0.2,0.8-0.5,0.8-0.5c0.2-0.2,0.2-0.4,0.1-0.6C21.5,25.9,21.2,25.9,20.9,26L20.9,26z"/>
		</g>
	</g>
	<g>
		<g>
			<path class="st4" d="M25.2,34.8h-0.1c-0.8,0-1.7-0.3-2.4-0.9c-0.6-0.4-0.9-0.8-0.9-0.8c-0.1-0.1-0.2-0.3-0.1-0.5
				c0-0.2,0.1-0.3,0.2-0.4c0.1-0.1,0.3-0.2,0.5-0.1c0.2,0,0.3,0.1,0.4,0.2c0.1,0.1,0.1,0.1,0.2,0.2c0.1,0.1,0.3,0.3,0.5,0.4
				c0.4,0.3,1,0.6,1.7,0.6c0.3,0,0.7,0,1-0.2c0.4-0.1,0.8-0.4,1.2-0.7c0.3-0.2,0.7-0.2,0.9,0.1c0.2,0.3,0.2,0.7-0.1,0.9
				c-0.5,0.4-1,0.7-1.6,0.9C26.1,34.7,25.7,34.8,25.2,34.8z M22,32.9L22,32.9L22,32.9z M22.5,32.4l-0.4,0.3L22.5,32.4L22.5,32.4
				L22.5,32.4z"/>
		</g>
	</g>
	<path class="st4" d="M48.5,25.3c-0.4-0.5-0.8-1-1.3-1.3c0.1-0.1,0.2-0.3,0.2-0.4c0.9-2.3,2.8-8.2,0.1-13.5
		c-1.9-3.8-5.7-6.5-11.2-7.9C28.3,0,22,0.5,17.5,3.6c-4,2.8-6.4,7.8-7,14.3l-0.1,1.2l0.5,0.1c-0.2,0.6-0.3,1.3-0.5,1.9
		c-0.7,3.8-0.1,7.8,1.7,11.2c-0.2,0.1-0.4,0.2-0.5,0.4c-1.1,0.8-1.8,2.2-1.9,3.6c-1.6,1.1-5.1,3.7-7.2,6c-1.3,1.4-1.9,2.6-2,3.6
		c-0.1,0.9,0.2,1.8,0.7,2.4l0,0l0,0c0.6,0.6,1.4,1,2.2,1h0.1c1.1,0,2.3-0.6,3.8-1.7c2.6-2,5.4-5.2,6.7-6.8c1.3,0.1,2.5-0.4,3.5-1.3
		c0.2-0.2,0.4-0.4,0.6-0.7c2,1.3,4.4,2.2,6.8,2.5c6.7,1,13.4-1.7,17.5-7.1c0.2,0.1,0.5,0.1,0.7,0.2c2.9,0.5,5.8-1.7,6.3-4.7
		C49.7,28.1,49.4,26.5,48.5,25.3z M18.9,5.7c3.9-2.7,9.5-3.1,16.7-1.2c4.8,1.3,8.1,3.5,9.6,6.6c2.2,4.3,0.6,9.4-0.1,11.2L43.4,22
		v0.5L42,22.3c-0.1,0-0.2-0.1-0.2-0.1L40,17.1l-3.2,4.1c-0.1,0.1-0.2,0.2-0.4,0.2l-5.5-0.9c-0.1,0-0.2-0.1-0.2-0.2l-1.5-4.5
		l-2.9,3.7c-0.1,0.1-0.2,0.1-0.3,0.1l-7.1-1.2c-0.1,0-0.2-0.1-0.2-0.2l-1.4-4.1l-2.8,3.5l-0.4-0.1l0.2-0.5h-1.2
		C13.8,11.7,15.7,7.9,18.9,5.7z M11.5,38.3c0.2,0.2,0.3,0.4,0.5,0.6c-0.1,0.1-0.2,0.2-0.3,0.3l-0.6-0.7
		C11.2,38.4,11.3,38.3,11.5,38.3z M5.8,45.5c-1.4,1-2.1,1.2-2.4,1.2c-0.2,0-0.3,0-0.4-0.1c0-0.1,0-0.3,0-0.4c0-0.4,0.3-1.1,1.4-2.3
		c1.3-1.5,3.4-3.2,5.3-4.6l1.2,1.2C9.3,42.3,7.4,44.3,5.8,45.5z M16.8,35.9l-0.2,0.5c-0.2,0.5-0.5,0.9-0.7,1.1
		c-0.6,0.5-1.4,0.8-2.1,0.6h-0.1h-0.1c-0.5-0.3-0.9-0.7-1.1-1.2v-0.1v-0.1c-0.1-0.8,0.2-1.6,0.9-2.1c0.6-0.4,1.1-0.5,1.8-0.5
		c0.6,0,1.3,0,2-0.4C17,34.5,17,35.2,16.8,35.9z M47,29.1c-0.3,1.7-1.9,3-3.5,2.7c-0.3,0-0.6-0.2-0.9-0.3l-1-0.6l-0.6,1
		c-3.4,5.1-9.6,7.8-15.6,6.8c-2.2-0.3-4.3-1.1-6.1-2.4c0.4-1.5,0.4-3.1-0.2-4.5c-0.2-0.5-0.7-0.9-1.2-1c-0.6-0.1-1.1,0-1.5,0.4
		c-0.3,0.3-0.7,0.3-1.4,0.4c-0.1,0-0.1,0-0.2,0c-1.8-3-2.5-6.6-1.8-10.1c0.1-0.8,0.4-1.6,0.7-2.4l1.6,0.3l1.6-2l0.5,1.5
		c0.2,0.6,0.7,1.1,1.4,1.2l7.1,1.2c0.7,0.1,1.3-0.2,1.8-0.7l1.2-1.5l0.6,1.9c0.2,0.6,0.7,1.1,1.4,1.2l5.5,0.9
		c0.7,0.1,1.4-0.2,1.8-0.7l1.5-2l0.8,2.5c0.2,0.6,0.7,1,1.4,1.1l1.8,0.3c0,0.1,0,0.1,0,0.2l-0.1,1.2l1.2,0.1H45
		c0.7,0.1,1.3,0.5,1.7,1.1C47,27.4,47.2,28.3,47,29.1z"/>
	<g>
		<path class="st5" d="M16.7,38.5c-0.8,0.8-2.1,1.2-3.2,0.9c-0.5,0.7-1.1,1.4-1.8,2.1l8.5-3.1c-0.9-0.4-1.7-0.9-2.4-1.5
			C17.5,37.5,17.1,38.1,16.7,38.5z"/>
	</g>
</g>
<g>
	<g>
		<path class="st4" d="M42.9,27.8L42.9,27.8c0,0,0.3-0.4,0.6-0.7c0.2-0.2,0.4-0.3,0.6-0.4c0.2-0.1,0.4-0.2,0.7-0.2
			c0.2,0,0.5,0.1,0.7,0.3c0.3,0.2,0.5,0.6,0.8,1.1c0,0.1,0.1,0.1,0.2,0.1c0.1,0,0.1-0.1,0.1-0.2c-0.3-0.6-0.5-0.9-0.8-1.2
			c-0.3-0.3-0.6-0.4-0.9-0.4c-0.3,0-0.6,0.1-0.9,0.2c-0.4,0.2-0.7,0.5-1,0.8c-0.2,0.3-0.4,0.5-0.4,0.5c0,0.1,0,0.2,0.1,0.2
			C42.8,27.9,42.9,27.9,42.9,27.8L42.9,27.8z"/>
	</g>
</g>
<g>
	<path class="st4" d="M45.1,29.4c-0.2,1.1-1,1.8-1.9,1.7C42.3,31,41.8,30,42,28.9s1-1.8,1.9-1.7C44.7,27.3,45.3,28.3,45.1,29.4z"/>
</g>
</svg>
