<svg xmlns="http://www.w3.org/2000/svg" id="Layer_1" x="0" y="0" version="1.1" viewBox="0 0 50 50" xml:space="preserve"><style>.st3{fill:#464646}</style><path fill="none" d="M39.8 2.7H10.2c-4.5 0-8.1 3.6-8.1 8.1v11.6L46.5 6.3c-1.5-2.2-3.9-3.6-6.7-3.6z"/><path fill="#d4ff73" d="M40.1 3.5H9.9c-4.6 0-8.3 3.7-8.3 8.3v11.8L46.9 7.1c-1.5-2.2-4-3.6-6.8-3.6z"/><path fill="#bee367" d="M48.1 10.7c0-1.7-.5-3.3-1.4-4.6L1.9 22.4v16.9c0 3.1 1.7 5.8 4.3 7.2l41.9-15.2V10.7z"/><path d="M39.8 48.6H10.2C5 48.6.8 44.4.8 39.2V10.8c0-5.2 4.2-9.4 9.4-9.4h29.6c5.2 0 9.4 4.2 9.4 9.4v28.4c-.1 5.2-4.3 9.4-9.4 9.4zM10.2 3.9c-3.8 0-6.9 3.1-6.9 6.9v28.4c0 3.8 3.1 6.9 6.9 6.9h29.6c3.8 0 6.9-3.1 6.9-6.9V10.8c0-3.8-3.1-6.9-6.9-6.9H10.2z" class="st3"/><path d="M38.5 45.2h-27c-4 0-7.2-3.2-7.2-7.2V12c0-4 3.2-7.2 7.2-7.2h27.1c4 0 7.2 3.2 7.2 7.2v26c-.1 3.9-3.3 7.2-7.3 7.2zm-27-39.4c-3.4 0-6.2 2.8-6.2 6.2v26c0 3.4 2.8 6.2 6.2 6.2h27.1c3.4 0 6.2-2.8 6.2-6.2V12c0-3.4-2.8-6.2-6.2-6.2H11.5z" class="st3"/><path id="_256" d="M18.5 33.9c0 .2-.1.2-.2.2h-2.9c-.2 0-.2-.1-.2-.3V13.9c0-.1.1-.2.2-.2h10.3c.2 0 .2.1.2.2l.3 2.6c0 .2-.1.2-.3.3h-7.4v6h6.6c.2 0 .2 0 .2.2v2.4c0 .2-.1.2-.2.2h-6.7v8.3zM29 22.2c0-.2 0-.8-.1-1.8 0-.2 0-.2.2-.2 2.2-.8 4.4-1.3 6.7-1.3.2 0 .2 0 .2.2v2.7c0 .2-.1.2-.2.2-1.2-.1-2.8.2-3.4.4V34c0 .2-.1.2-.2.2l-3-.1c-.2 0-.2-.1-.2-.2V22.2z" class="st3"/></svg>