<?xml version="1.0" encoding="UTF-8"?>
<svg id="Layer_1" xmlns="http://www.w3.org/2000/svg" version="1.1" viewBox="0 0 50 50">
  <!-- Generator: Adobe Illustrator 29.2.1, SVG Export Plug-In . SVG Version: 2.1.0 Build 116)  -->
  <defs>
    <style>
      .st0 {
        stroke-miterlimit: 10;
      }

      .st0, .st1, .st2, .st3 {
        fill: none;
        stroke: #444;
      }

      .st0, .st3 {
        stroke-width: .5px;
      }

      .st1, .st2, .st3 {
        stroke-linecap: round;
        stroke-linejoin: round;
      }

      .st2 {
        stroke-width: 2.5px;
      }

      .st4 {
        fill: #46b8b0;
      }
    </style>
  </defs>
  <path class="st4" d="M44.9,6.3H3.8c-1.4,0-1.4,3.8-1.4,5.2l-.2,12.9-.5,10.2,1.2,11.8,12.4.6,32.1-11.4V8.8h0c0-1.4-1.1-2.6-2.5-2.6Z"/>
  <path class="st2" d="M32.2,47.7H5.2c-1.9,0-3.4-1.6-3.4-3.5V9.3c0-1.9,1.5-3.5,3.4-3.5h39c1.9,0,3.4,1.6,3.4,3.5v28.5"/>
  <line class="st0" x1="10.2" y1="6.9" x2="10.2" y2="46.7"/>
  <line class="st3" x1="40.9" y1="6.9" x2="40.9" y2="41.7"/>
  <line class="st3" x1="10.2" y1="12.7" x2="3.2" y2="12.7"/>
  <line class="st3" x1="10.2" y1="19.4" x2="3.2" y2="19.4"/>
  <line class="st3" x1="10.2" y1="26.2" x2="3.2" y2="26.2"/>
  <line class="st3" x1="10.2" y1="32.9" x2="3.2" y2="32.9"/>
  <line class="st3" x1="9.8" y1="39.6" x2="2.7" y2="39.6"/>
  <line class="st3" x1="48.4" y1="13.4" x2="41.3" y2="13.4"/>
  <line class="st3" x1="48.4" y1="20" x2="41.3" y2="20"/>
  <line class="st3" x1="47.9" y1="26.9" x2="40.9" y2="26.9"/>
  <line class="st3" x1="47.9" y1="33.5" x2="40.9" y2="33.5"/>
  <line class="st1" x1="33.4" y1="42.3" x2="24.7" y2="25.6"/>
  <polygon class="st1" points="28.2 25.5 24.2 25.1 22.6 28.6 21.8 24.8 17.9 24.3 21.3 22.4 20.5 18.5 23.4 21.2 26.9 19.2 25.2 22.8 28.2 25.5"/>
  <g>
    <line class="st3" x1="18.4" y1="26.7" x2="17.6" y2="27.6"/>
    <line class="st3" x1="16.2" y1="21.4" x2="15.1" y2="21.4"/>
    <line class="st3" x1="19" y1="16.5" x2="18.4" y2="15.5"/>
    <line class="st3" x1="24.6" y1="15.6" x2="25" y2="14.5"/>
    <line class="st3" x1="28.8" y1="19.4" x2="29.9" y2="19"/>
  </g>
</svg>