<?xml version="1.0" encoding="utf-8"?>
<!-- Generator: Adobe Illustrator 27.3.1, SVG Export Plug-In . SVG Version: 6.00 Build 0)  -->
<svg version="1.1" id="Camada_3" xmlns="http://www.w3.org/2000/svg" xmlns:xlink="http://www.w3.org/1999/xlink" x="0px" y="0px"
	 viewBox="0 0 50 50" style="enable-background:new 0 0 50 50;" xml:space="preserve">
<style type="text/css">
	.st0{fill:#BF94F7;}
	.st1{fill:#A475EF;}
	.st2{fill:none;stroke:#454444;stroke-width:2.5;stroke-linecap:round;stroke-linejoin:round;stroke-miterlimit:10;}
	.st3{fill:none;stroke:#444444;stroke-linejoin:round;stroke-miterlimit:10;}
	.st4{fill:none;stroke:#444444;stroke-linecap:round;stroke-linejoin:round;stroke-miterlimit:10;}
	.st5{fill:none;stroke:#444444;stroke-width:0.5;stroke-linecap:round;stroke-linejoin:round;stroke-miterlimit:10;}
	.st6{fill:#444444;}
	.st7{fill:none;stroke:#444444;stroke-width:2.5;stroke-linecap:round;stroke-linejoin:round;stroke-miterlimit:10;}
</style>
<g>
	<g>
		<path class="st0" d="M36.02,6.41l-11.5-5c-12.5,5.5-17.75,5.75-22,7.5L1.89,23.5L47.67,7.21l-1.65,0.45
			C46.02,6.54,37.14,6.41,36.02,6.41z"/>
		<path class="st1" d="M1.89,23.5l0.13,11.91c0.29,2,3.38,3.19,5.38,3.47l10.62,1.28c0.25,0.03-2.99,3.34-2.75,3.25l32.4-11.51
			V10.06c0-1.39-1.38-2.37-2.69-1.9L1.89,23.5z"/>
	</g>
	<g>
		<polyline class="st2" points="32.04,42.04 32.04,39.08 39.02,39.08 		"/>
		<path class="st2" d="M48.27,33.41l0.02-20.15c0-3.8-3.08-6.89-6.89-6.89h-4.55L25.63,1.69c-0.7-0.29-1.48-0.29-2.17,0.02
			L12.71,6.38H8.6c-3.8,0-6.89,3.08-6.89,6.89v19.51c0,3.8,3.08,6.89,6.89,6.89l9.67,0.25l0.06,2.13c-4.61,0-4.73,4.37-4.73,4.37
			h22.8c0,0,0.83-4.37-4.36-4.37"/>
	</g>
	<g>
		<polyline class="st3" points="24.78,27.29 13.2,22.23 13.2,7.02 18.99,9.44 		"/>
		<polyline class="st3" points="31.06,9.44 36.37,7.02 36.37,22.23 24.78,27.29 24.78,21.02 		"/>
		<polyline class="st4" points="13.2,7.02 24.86,2.18 36.37,7.02 		"/>
	</g>
	<g>
		<polygon class="st5" points="24.87,21.26 18.2,18.34 18.2,9.59 24.92,12.51 		"/>
		<polygon class="st5" points="24.87,21.26 31.54,18.34 31.54,9.59 24.92,12.51 		"/>
		<polyline class="st5" points="18.2,9.59 24.92,6.8 31.54,9.59 		"/>
	</g>
	<line class="st4" x1="5.96" y1="32.12" x2="44.09" y2="32.12"/>
	<path class="st4" d="M25,34.92"/>
	<path class="st6" d="M27.16,36.71h-4.27c-0.55,0-1-0.45-1-1v-0.41c0-0.55,0.45-1,1-1h4.27c0.55,0,1,0.45,1,1v0.41
		C28.16,36.26,27.71,36.71,27.16,36.71z"/>
	<path class="st7" d="M37.27,39.66"/>
	<path class="st7" d="M15.02,42.41"/>
</g>
</svg>
