<?xml version="1.0" encoding="utf-8"?>
<!-- Generator: Adobe Illustrator 26.0.3, SVG Export Plug-In . SVG Version: 6.00 Build 0)  -->
<svg version="1.1" id="Camada_1" xmlns="http://www.w3.org/2000/svg" xmlns:xlink="http://www.w3.org/1999/xlink" x="0px" y="0px"
	 viewBox="0 0 50 50" style="enable-background:new 0 0 50 50;" xml:space="preserve">
<style type="text/css">
	.st0{fill:#AFE55D;}
	.st1{fill:#C3FF68;}
	.st2{fill:none;stroke:#444444;stroke-width:2.5;stroke-linecap:round;stroke-linejoin:round;stroke-miterlimit:10;}
	.st3{fill:none;stroke:#494949;stroke-linecap:round;stroke-linejoin:round;stroke-miterlimit:10;}
	.st4{fill:none;stroke:#494949;stroke-width:0.5;stroke-linecap:round;stroke-linejoin:round;stroke-miterlimit:10;}
</style>
<g>
	<g>
		<g>
			<polygon class="st0" points="46.7,26.2 47.1,30.3 2.8,46.4 3,37.8 3.3,32.8 47.4,16.8 46.7,20.3 			"/>
			<polygon class="st1" points="46.7,10.4 46.2,17.7 3,33.5 3,24.1 3.3,19.9 46.8,4 			"/>
			<polyline class="st2" points="32.6,47.2 2.6,47.2 2.6,2.8 47.4,2.8 47.4,37.2 			"/>
		</g>
	</g>
	<g>
		<g>
			<rect x="14" y="32" class="st3" width="3.8" height="3.8"/>
			<rect x="35.4" y="10.7" class="st3" width="3.8" height="3.8"/>
			
				<rect x="18.6" y="15.3" transform="matrix(0.7576 -0.6527 0.6527 0.7576 -6.2391 17.5592)" class="st3" width="3.8" height="3.8"/>
			<path class="st3" d="M12.1,24"/>
			<line class="st3" x1="21.8" y1="15.5" x2="28.7" y2="8.9"/>
			<path class="st3" d="M11.4,25.4l7.6-7.2L11.4,25.4z"/>
			<circle class="st3" cx="29.7" cy="8" r="1.3"/>
			<circle class="st3" cx="10.4" cy="26.4" r="1.3"/>
			<path class="st3" d="M19.3,18.8c-2.1,2.7-3.4,6.2-3.4,9.9V32"/>
			<path class="st3" d="M35.4,12.6H32c-3.7,0-7.2,1.3-10,3.5"/>
		</g>
		<g>
			<g>
				<line class="st4" x1="27.2" y1="40.3" x2="40.9" y2="40.3"/>
				<line class="st4" x1="27.2" y1="25.9" x2="40.9" y2="25.9"/>
				<path class="st3" d="M28.9,23.2h10.3c0.9,0,1.7,0.8,1.7,1.7V42c0,0.9-0.8,1.7-1.7,1.7H28.9c-0.9,0-1.7-0.8-1.7-1.7V24.9
					C27.2,23.9,27.9,23.2,28.9,23.2z"/>
			</g>
		</g>
	</g>
</g>
</svg>
