<?xml version="1.0" encoding="utf-8"?>
<!-- Generator: Adobe Illustrator 27.3.1, SVG Export Plug-In . SVG Version: 6.00 Build 0)  -->
<svg version="1.1" id="Camada_3" xmlns="http://www.w3.org/2000/svg" xmlns:xlink="http://www.w3.org/1999/xlink" x="0px" y="0px"
	 viewBox="0 0 50 50" style="enable-background:new 0 0 50 50;" xml:space="preserve">
<style type="text/css">
	.st0{fill:#F56991;}
	.st1{fill:#DC5E82;}
	.st2{fill:none;stroke:#444444;stroke-width:2.5;stroke-linecap:round;stroke-linejoin:round;stroke-miterlimit:10;}
	.st3{fill:none;stroke:#444444;stroke-width:0.5;stroke-linecap:round;stroke-linejoin:round;stroke-miterlimit:10;}
	.st4{fill:none;stroke:#444444;stroke-linecap:round;stroke-linejoin:round;stroke-miterlimit:10;}
</style>
<g>
	<g>
		<polygon class="st0" points="34.53,7.71 34.53,2.99 6.91,2.99 6.91,21.65 34.53,11.82 		"/>
		<path class="st1" d="M6.08,31.09l0.24,15.46l28.51-10.14l-0.67-5.7l7.25-7.05l2.14-3.8c0.06-0.69-0.46-6.62-1.08-6.92l-4.79-0.61
			l-3.44,1.01l-0.31-1.51L6.33,21.65l0.18,3.14"/>
		<path class="st2" d="M34.16,12.32V4.26c0-1.24-1-2.24-2.24-2.24H8.44C7.2,2.02,6.2,3.03,6.2,4.26v8.07v12.47v5.85v16.1
			c0,1.24,1,2.24,2.24,2.24h23.48c1.24,0,2.24-1,2.24-2.24v-3.39V32.23"/>
		<polyline class="st3" points="30.99,15.34 30.99,7.35 9.37,7.35 9.39,14.93 9.45,40.27 9.45,45.62 21.99,45.62 30.99,45.62 
			30.99,40.09 30.99,34.05 		"/>
		<path class="st3" d="M22.32,5.79h-4.27c-0.38,0-0.69-0.31-0.69-0.69l0,0c0-0.38,0.31-0.69,0.69-0.69h4.27
			c0.38,0,0.69,0.31,0.69,0.69l0,0C23.01,5.48,22.7,5.79,22.32,5.79z"/>
	</g>
	<path class="st3" d="M34.53,29.94"/>
	<line class="st3" x1="35.14" y1="32.17" x2="35.14" y2="29.93"/>
	<line class="st3" x1="35.14" y1="12.89" x2="35.14" y2="10.65"/>
	<line class="st3" x1="33.16" y1="14.06" x2="33.16" y2="11.82"/>
	<line class="st3" x1="34.83" y1="32.15" x2="34.83" y2="30.17"/>
	<line class="st3" x1="33.42" y1="14.12" x2="33.42" y2="11.88"/>
	<g>
		<line class="st3" x1="12.73" y1="39.12" x2="10.78" y2="38.84"/>
		<line class="st3" x1="16.05" y1="35.91" x2="16.26" y2="34.45"/>
		<line class="st3" x1="19.97" y1="39.82" x2="21.92" y2="40.09"/>
		<line class="st3" x1="17.84" y1="41.63" x2="19.03" y2="43.2"/>
		<line class="st3" x1="15.65" y1="42.2" x2="15.38" y2="44.15"/>
		<line class="st3" x1="13.7" y1="41.05" x2="12.13" y2="42.23"/>
	</g>
	<line class="st4" x1="15.87" y1="39.85" x2="42.47" y2="13.26"/>
	<path class="st4" d="M19.84,35.89l-0.47-2.28c-0.65-3.14,0.32-6.39,2.58-8.66l9.73-9.73c2.13-2.13,5.15-3.13,8.14-2.68l3.1,0.47
		L19.84,35.89z"/>
	<path class="st4" d="M20.1,36.22l2.28,0.47c3.14,0.65,6.39-0.32,8.66-2.58l9.73-9.73c2.13-2.13,3.13-5.15,2.68-8.14l-0.47-3.1
		L20.1,36.22z"/>
	<line class="st3" x1="33.65" y1="13.71" x2="35.52" y2="20.34"/>
	<line class="st3" x1="29.6" y1="17.76" x2="31.47" y2="24.39"/>
	<line class="st3" x1="27.6" y1="19.86" x2="29.46" y2="26.49"/>
	<line class="st3" x1="22.02" y1="25.44" x2="23.88" y2="32.07"/>
	<line class="st3" x1="35.69" y1="28.72" x2="29.17" y2="26.49"/>
	<line class="st3" x1="40.17" y1="24.77" x2="33.65" y2="22.54"/>
	<line class="st3" x1="30.48" y1="34.46" x2="23.97" y2="32.23"/>
	<line class="st3" x1="43.15" y1="20.38" x2="37.69" y2="18.51"/>
	<path class="st3" d="M19.34,24.98"/>
	<path class="st3" d="M12.15,10.65c7.9,1.12,9.18,2.7,9.84,3.49c1.9,2.26,1.01,6.94-4.72,8.7c-6.3,1.94-5.67,5.56-5.63,6.22
		c0.12,1.79,0.68,3.17,1.78,4.04c0,0,1.39,1.14,2.09,0.25c0.88-1.11-0.91-1.92-0.91-1.92s-4.94-2.09,0.01,7.21"/>
</g>
</svg>
