<?xml version="1.0" encoding="utf-8"?>
<!-- Generator: Adobe Illustrator 22.1.0, SVG Export Plug-In . SVG Version: 6.00 Build 0)  -->
<svg version="1.1" id="Layer_1" xmlns="http://www.w3.org/2000/svg" xmlns:xlink="http://www.w3.org/1999/xlink" x="0px" y="0px"
	 viewBox="0 0 50 50" style="enable-background:new 0 0 50 50;" xml:space="preserve">
<style type="text/css">
	.st0{fill:#E589EF;}
	.st1{fill:#F799FF;}
	.st2{fill:#494949;}
</style>
<g>
	<g>
		<path class="st0" d="M48.3,13L1.7,29.9V38c0,4.4,2.8,8.1,6.7,9.5l39.8-14.5V13z"/>
	</g>
	<g>
		<path class="st1" d="M48.1,11.9c0-5.6-4.5-10.1-10.1-10.1H12C6.4,1.8,1.9,6.3,1.9,11.9v18l46.2-16.8V11.9z"/>
	</g>
	<g>
		<g>
			<path class="st2" d="M14.4,35.1c0,0.2-0.1,0.2-0.2,0.2h-2.9c-0.2,0-0.3-0.1-0.3-0.3V14.6c0-0.2,0.1-0.3,0.2-0.3
				c1.6-0.1,3-0.1,5.4-0.1c4.5,0,7.3,2,7.3,5.9c0,3.2-2.1,5-4,5.7c0.9,1.6,4,7.2,5,9.1c0.1,0.2,0.1,0.3-0.1,0.3h-3.3
				c-0.2,0-0.3-0.1-0.4-0.2c-0.7-1.3-3-5.6-4.5-8.3h-2.2V35.1z M16.4,23.8c2.3,0,4-0.9,4-3.3c0-2.3-1.5-3.4-3.9-3.4
				c-0.8,0-1.6,0-2.1,0.1v6.6H16.4z"/>
		</g>
		<g>
			<path class="st2" d="M38.8,32.1c0,0.2,0,0.9,0.1,2c0,0.1,0,0.2-0.2,0.2c-1.7,0.6-3.5,1.3-5.9,1.3c-2.9,0-5.6-1.1-5.6-5.5v-10
				c0-0.2,0.1-0.3,0.2-0.3h3c0.2,0,0.2,0.1,0.2,0.3v9.6c0,1.9,0.7,2.9,2.7,2.9c0.8,0,1.5-0.2,2-0.4V20.1c0-0.2,0.1-0.3,0.2-0.3h3
				c0.2,0,0.2,0.1,0.2,0.3L38.8,32.1L38.8,32.1z"/>
		</g>
	</g>
	<g>
		<path class="st2" d="M37.9,49.4H11.8c-6.2,0-11.3-5.1-11.3-11.3V12c0-6.2,5.1-11.3,11.3-11.3h26.1c6.2,0,11.3,5.1,11.3,11.3v21.8
			c0,0.7-0.6,1.2-1.2,1.2s-1.2-0.6-1.2-1.2V12c0-4.9-4-8.8-8.8-8.8H11.8C6.9,3.2,3,7.2,3,12v26.1c0,4.9,4,8.8,8.8,8.8h26.1
			c1,0,2.1-0.2,3-0.5c0.6-0.2,1.4,0.1,1.6,0.7c0.2,0.6-0.1,1.4-0.7,1.6C40.5,49.2,39.2,49.4,37.9,49.4z"/>
	</g>
	<g>
		<path class="st2" d="M47.9,39.4c-0.7,0-1.2-0.6-1.2-1.2v-4.3c0-0.7,0.6-1.2,1.2-1.2s1.2,0.6,1.2,1.2v4.3
			C49.2,38.8,48.6,39.4,47.9,39.4z"/>
	</g>
	<g>
		<path class="st2" d="M36.5,46H13.1c-5.1,0-9.2-4.1-9.2-9.2V13.4c0-5.1,4.1-9.2,9.2-9.2h23.4c5.1,0,9.2,4.1,9.2,9.2v23.4
			C45.8,41.9,41.6,46,36.5,46z M13.1,5.1c-4.5,0-8.2,3.7-8.2,8.2v23.4c0,4.5,3.7,8.2,8.2,8.2h23.4c4.5,0,8.2-3.7,8.2-8.2V13.4
			c0-4.5-3.7-8.2-8.2-8.2H13.1z"/>
	</g>
</g>
</svg>
