<?xml version="1.0" encoding="utf-8"?>
<!-- Generator: Adobe Illustrator 24.0.0, SVG Export Plug-In . SVG Version: 6.00 Build 0)  -->
<svg version="1.1" id="Layer_1" xmlns="http://www.w3.org/2000/svg" xmlns:xlink="http://www.w3.org/1999/xlink" x="0px" y="0px"
	 viewBox="0 0 50 50" style="enable-background:new 0 0 50 50;" xml:space="preserve">
<style type="text/css">
	.st0{fill:#A475EF;}
	.st1{fill:#BF94F7;}
	.st2{fill:#444444;}
</style>
<g>
	<g>
		<path class="st0" d="M46.2,34.3v-27c0-1.9-1.6-3.5-3.5-3.5H7.2c-1.9,0-3.5,1.6-3.5,3.5v35.5c0,1.9,1.6,3.5,3.5,3.5h6.1L46.2,34.3"
			/>
	</g>
	<g>
		<path class="st1" d="M39.3,3.7h-32c-1.9,0-3.5,1.6-3.5,3.5v9.4L39.3,3.7z"/>
	</g>
	<g>
		<path class="st2" d="M42.8,2.5H7.2c-2.6,0-4.7,2.1-4.7,4.7v35.5c0,2.6,2.1,4.7,4.7,4.7h30.3c0.7,0,1.2-0.6,1.2-1.2
			S38.2,45,37.6,45H7.2C6,45,5,44,5,42.8V7.2C5,6,6,5,7.2,5h35.5C44,5,45,6,45,7.2v27c0,0.7,0.6,1.2,1.2,1.2s1.2-0.6,1.2-1.2v-27
			C47.5,4.6,45.4,2.5,42.8,2.5z"/>
		<path class="st2" d="M40.4,7.3H9.6c-1.2,0-2.2,1-2.2,2.2v30.9c0,1.2,1,2.2,2.2,2.2h30.9c1.2,0,2.2-1,2.2-2.2V9.6
			C42.7,8.3,41.7,7.3,40.4,7.3z M42.2,40.4c0,0.9-0.8,1.7-1.7,1.7H9.6c-0.9,0-1.7-0.8-1.7-1.7V9.6c0-0.9,0.8-1.7,1.7-1.7h30.9
			c0.9,0,1.7,0.8,1.7,1.7L42.2,40.4L42.2,40.4z"/>
		<path class="st2" d="M34.5,20.6c-2.6,0-4.9,0.7-5.9,1.1c-0.1,0-0.1,0.1-0.1,0.2c0.1,0.9,0.1,1.4,0.1,1.6l0,0v10.3
			c0,0.1,0.1,0.2,0.2,0.2h2.5c0.1,0,0.2-0.1,0.2-0.2V23.5c0.6-0.2,2-0.4,3.1-0.3c0.1,0,0.2,0,0.2-0.2v-2.3
			C34.7,20.6,34.6,20.6,34.5,20.6z"/>
		<path class="st2" d="M19.6,16.1c-1.6,0-3.1,0-4.2,0.1c-0.1,0-0.2,0.1-0.2,0.2h0v17.4c0,0.1,0.1,0.2,0.2,0.2H18
			c0.1,0,0.2-0.1,0.2-0.2v-6.2c0.4,0,0.6,0,1.3,0c3.7,0,6.6-1.8,6.6-5.9C26.1,18.5,24.1,16.1,19.6,16.1z M19.5,25
			c-0.6,0-0.9,0-1.3,0v-6.3c0.3,0,0.9,0,1.6,0c2.2,0,3.4,1,3.4,3.1C23.2,24.3,21.4,25,19.5,25z"/>
	</g>
</g>
</svg>
