<?xml version="1.0" encoding="utf-8"?>
<!-- Generator: Adobe Illustrator 24.0.1, SVG Export Plug-In . SVG Version: 6.00 Build 0)  -->
<svg version="1.1" id="Camada_1" xmlns="http://www.w3.org/2000/svg" xmlns:xlink="http://www.w3.org/1999/xlink" x="0px" y="0px"
	 viewBox="0 0 50 50" style="enable-background:new 0 0 50 50;" xml:space="preserve">
<style type="text/css">
	.st0{fill:#FDCF72;}
	.st1{fill:#FCC34F;}
	.st2{fill:#444444;}
</style>
<title>abap</title>
<g>
	<g>
		<path class="st0" d="M48.1,3.3c0-0.8-0.6-1.4-1.4-1.4H3.3c-0.8,0-1.4,0.6-1.4,1.4v17.6L48.1,4V3.3z"/>
	</g>
	<g>
		<path class="st1" d="M48.1,4L1.9,20.9v25.9c0,0.8,0.6,1.4,1.4,1.4H4l44.1-16.1V4z"/>
	</g>
	<path class="st2" d="M46.7,0.6H3.3c-1.5,0-2.6,1.2-2.6,2.6v43.5c0,1.5,1.2,2.6,2.6,2.6h43.5c1.5,0,2.6-1.2,2.6-2.6V3.3
		C49.4,1.8,48.2,0.6,46.7,0.6z M32.4,23.4L21.5,4.6l0.8-1.3H44L32.4,23.4z M45.7,3.2h1v27.4H29.9L45.7,3.2z M28.3,20.6
		c0.5,0.8,0.9,1.6,1.4,2.3l0.6,1.1c0.3,0.5,0.3,1.1,0,1.7c-0.5,0.8-0.9,1.6-1.4,2.4l-0.6,1.1c-0.3,0.5-0.8,0.8-1.4,0.8h-3.8
		c-0.6,0-1.1-0.3-1.5-0.8c-0.5-0.8-0.9-1.6-1.4-2.3l-0.6-1.1c-0.3-0.5-0.3-1.1,0-1.7c0.4-0.7,0.8-1.5,1.3-2.2l0.7-1.3
		c0.3-0.5,0.8-0.8,1.4-0.8c0.6,0,1.3,0,1.9,0c0.6,0,1.3,0,1.9,0C27.5,19.8,28,20.1,28.3,20.6z M20.4,30.1c0.1,0.2,0.3,0.4,0.5,0.6
		h-0.1l9.3,16.2l-23.5,0l11.8-20.4c0,0,0,0.1,0,0.1l0.6,1.1C19.5,28.4,19.9,29.2,20.4,30.1z M23.3,32.1h23.5l0,14.7l-14.9,0h-0.1
		L23.3,32.1z M27.3,17.7l-13.4,0l6.7-11.6L27.3,17.7z M20.4,19.8C20.4,19.8,20.4,19.8,20.4,19.8l-0.8,1.4c-0.2,0.4-0.5,0.8-0.7,1.2
		l0,0L4.8,46.8l-1.6,0l0-10.6l9.5-16.4H20.4z M3.3,3.1h17.3l-0.8,1.4v0l-7.9,13.7h0L3.1,33.3v-30C3.1,3.2,3.2,3.1,3.3,3.1z"/>
</g>
</svg>
