<?xml version="1.0" encoding="utf-8"?>
<!-- Generator: Adobe Illustrator 24.0.0, SVG Export Plug-In . SVG Version: 6.00 Build 0)  -->
<svg version="1.1" id="Layer_1" xmlns="http://www.w3.org/2000/svg" xmlns:xlink="http://www.w3.org/1999/xlink" x="0px" y="0px"
	 viewBox="0 0 50 50" style="enable-background:new 0 0 50 50;" xml:space="preserve">
<style type="text/css">
	.st0{fill:#FF6B6B;}
	.st1{fill:#E56060;}
	.st2{fill:#444444;}
</style>
<polygon class="st0" points="42.9,12.5 42.7,19.4 6.8,32.5 6.4,23.7 6.5,19.8 42.7,6.6 "/>
<polygon class="st1" points="43.3,27.4 43.8,31.3 7.1,44.6 6.9,36.5 7,31.9 43.5,18.6 43.1,21.9 "/>
<g id="surface1">
	<g>
		<path class="st2" d="M31.1,15.7c0,0.2-0.1,0.4-0.3,0.6c-0.2,0.2-0.4,0.3-0.7,0.3c-0.5,0-0.9-0.4-1-1c0-0.2,0.1-0.4,0.3-0.6
			c0.2-0.2,0.4-0.3,0.7-0.3C30.7,14.8,31.1,15.2,31.1,15.7z"/>
	</g>
	<g>
		<path class="st2" d="M20.6,10.8v16.4h17.2V10.8H20.6z M22,20.2l3.2-2.2l3.3,3L22,25.2V20.2z M36.4,25.8H23.7l8.5-5.5l4.2,3.9V25.8
			z M36.4,22.3l-4.1-3.7l-2.6,1.7l-4.4-4L22,18.5v-6.4h14.4V22.3z"/>
	</g>
	<g>
		<rect x="20.7" y="31.4" class="st2" width="17" height="1.4"/>
	</g>
	<g>
		<rect x="20.7" y="36.6" class="st2" width="17" height="1.4"/>
	</g>
	<g>
		<path class="st2" d="M16.7,4.6l-0.1-0.2c-0.6-2.3-2.8-4-5.2-4C8.4,0.4,6,2.9,6,5.9l0.1,36.3l0,0.3C6,42.8,6,43,6,43.3
			c0,3.4,2.8,6.2,6.2,6.2h28.7v-5.2H44V4.6H16.7z M8.4,5.9c0-1.7,1.4-3,3-3c1.7,0,3,1.4,3,3v33L14,38.6c-1.6-0.9-3.7-0.9-5.3,0
			l-0.4,0.2V5.9z M38.4,47.1H12.2c-2.1,0-3.8-1.7-3.8-3.8c0-1.7,1.4-3,3-3c1.7,0,3,1.4,3,3v1h24V47.1z M41.6,42H16.8V7h24.8V42z"/>
	</g>
</g>
</svg>
