<?xml version="1.0" encoding="utf-8"?>
<!-- Generator: Adobe Illustrator 24.0.0, SVG Export Plug-In . SVG Version: 6.00 Build 0)  -->
<svg version="1.1" id="Layer_1" xmlns="http://www.w3.org/2000/svg" xmlns:xlink="http://www.w3.org/1999/xlink" x="0px" y="0px"
	 viewBox="0 0 50 50" style="enable-background:new 0 0 50 50;" xml:space="preserve">
<style type="text/css">
	.st0{fill:#E589EF;}
	.st1{fill:#F799FF;}
	.st2{fill:#444444;}
</style>
<path class="st0" d="M49.7,8.7v11l-1.6,0.6l-1.6,0.6l-1.6,0.6l-3.2,1.2l-1.6,0.6l-1.6,0.6l-5.5,2l-4.4,1.6l-4.4,1.6L20,30.5
	l-4.3,1.6L3.2,36.6l-1.8,0.6c-0.7-0.7-1.1-1.7-1.1-2.8v-7.8l1.6-0.6l9.5-3.5l1.6-0.6l1.6-0.6l1.6-0.6l3.2-1.2l3.2-1.2l3.2-1.2
	l1.6-0.6l1.6-0.6l2.5-0.9l1.3-0.5l1.6-0.6l3.8-1.4l1.9-0.7l4.7-1.7l1.6-0.6l1.6-0.6L49.7,8.7z"/>
<path class="st1" d="M49.7,4.3v4.9l-1.6,0.6l-1.6,0.6l-1.6,0.6l-4.6,1.7l-2.2,0.8l-3.4,1.2h0l-1.6,0.6L30.7,16L29,16.7l-1.6,0.6
	l-1.6,0.6L22.6,19l-1.1,0.4L21,19.6l-1.6,0.6l-3.2,1.2l-1.6,0.6l-1.6,0.6L11.5,23l-9.5,3.5l-1.6,0.6v-9.3L0.8,16l1.2-0.4l9.5-3.5
	l1.6-0.6l1.6-0.6l1.6-0.6l1.4-0.5L22,8.2l4.4-1.6L30.7,5l8.7-3.2l4.4-1.6h1.8C47.9,0.3,49.7,2.1,49.7,4.3z"/>
<g id="Layer_22">
	<path class="st2" d="M45.7,0.3H15.4c-2.2,0-4,1.8-4,4v2.4H4.3c-2.2,0-4,1.8-4,4v23.9c0,1.1,0.4,2.1,1.1,2.8
		c0.7,0.7,1.7,1.2,2.9,1.2h11.1v4.8h-1.6c-2.2,0-4,1.8-4,4v1.6c0,0.4,0.3,0.8,0.8,0.8h20.7c0.4,0,0.8-0.4,0.8-0.8v-1.6
		c0-2.2-1.8-4-4-4h-1.6v-4.8h11.1c2.2,0,4-1.8,4-4v-5.6h4c2.2,0,4-1.8,4-4V4.3C49.7,2.1,47.9,0.3,45.7,0.3z M13.1,4.3
		c0-1.3,1.1-2.4,2.4-2.4h30.2c1.3,0,2.4,1.1,2.4,2.4V5h-35V4.3z M28.2,44.8c1.3,0,2.4,1.1,2.4,2.4V48H11.5v-0.8
		c0-1.3,1.1-2.4,2.4-2.4H28.2z M17,43.2v-4.8h8v4.8H17z M40.1,34.5c0,1.3-1.1,2.4-2.4,2.4H4.3c-0.4,0-0.8-0.1-1.1-0.3
		c-0.8-0.4-1.3-1.2-1.3-2.1v-2.4h38.2V34.5z M40.1,30.5H1.9V10.6c0-1.3,1.1-2.4,2.4-2.4h7.2v16.7c0,2.2,1.8,4,4,4h24.7V30.5z
		 M48.1,24.9c0,1.3-1.1,2.4-2.4,2.4H15.4c-1.3,0-2.4-1.1-2.4-2.4V6.6h35V24.9z"/>
	<path class="st2" d="M36.9,33.7h1.6v1.6h-1.6V33.7z"/>
	<path class="st2" d="M33.7,33.7h1.6v1.6h-1.6V33.7z"/>
	<path class="st2" d="M30.6,33.7h1.6v1.6h-1.6V33.7z"/>
	<path class="st2" d="M45.7,8.2H15.4c-0.4,0-0.8,0.4-0.8,0.8v15.9c0,0.4,0.4,0.8,0.8,0.8h30.2c0.4,0,0.8-0.4,0.8-0.8V9
		C46.5,8.6,46.1,8.2,45.7,8.2z M21,22.6h3.2V21H21v-1.6h1.6v-1.6H21v-1.6h1.6v-1.6H21V13h4.8v11.1H21V22.6z M33,17.6
		c-0.2,0.1-0.4,0.1-0.6,0.1h-0.6c-0.2,0-0.4,0-0.6-0.1c-0.4-0.2-0.7-0.7-0.7-1.2c0-0.4,0.2-0.7,0.5-0.9c0.6-0.3,1-0.9,1.1-1.5
		l1.1,1.1c0.3,0.3,0.5,0.8,0.5,1.3C33.7,17,33.5,17.4,33,17.6L33,17.6z M31.4,19.3c0.2,0,0.3,0,0.5,0.1h0.6c0.2,0,0.3,0,0.5-0.1v4.8
		h-1.6L31.4,19.3z M38.5,17.8h1.6v6.4h-1.6V17.8z M38.8,16.2l0.5-1.5l0.5,1.5H38.8z M44.9,24.1h-3.2V17c0-0.1,0-0.2,0-0.3L40.1,12
		c-0.1-0.4-0.6-0.6-1-0.5c-0.2,0.1-0.4,0.3-0.5,0.5L37,16.7c0,0.1-0.1,0.2-0.1,0.3v7.2h-2.4v-5.7c0.5-0.5,0.8-1.2,0.8-2
		c0-0.9-0.4-1.8-1-2.4l-2.4-2.4c-0.2-0.2-0.6-0.3-0.9-0.2c-0.3,0.1-0.5,0.4-0.5,0.7v1.7c0,0.1-0.1,0.2-0.2,0.3
		c-0.9,0.4-1.4,1.3-1.4,2.3c0,0.7,0.3,1.4,0.8,2v5.7h-2.4V12.2c0-0.4-0.4-0.8-0.8-0.8h-6.4c-0.4,0-0.8,0.4-0.8,0.8v11.9h-3.2V9.8
		h28.6V24.1z"/>
</g>
</svg>
