<svg xmlns="http://www.w3.org/2000/svg" id="Camada_1" x="0" y="0" version="1.1" viewBox="0 0 50 50" xml:space="preserve"><style>.st3{fill:#031326}</style><path fill="#fcc34f" d="M47.2 25l.5 4.1L2 44.3l-.1-8.7.2-5 45.6-15.1-.6 3.5z"/><path fill="#fdcf72" d="M48.1 8.6l-.4 7.4L3.1 30.9l-.2-9.4.2-4.3 45-14.9z"/><path fill="none" stroke="#031326" stroke-linecap="round" stroke-linejoin="round" stroke-miterlimit="10" stroke-width="2.5" d="M10.5 48.4H2.3V1.6h45.6V29"/><path d="M28.5 38.5h-1.1v-5.6c0-.3-.3-.6-.6-.6s-.6.3-.6.6v5.6H11.3V27h4.8c.3 0 .6-.3.6-.6s-.3-.6-.6-.6h-5.4c-.3 0-.6.3-.6.6v12.1H9c-.3 0-.6.3-.6.6v1.1c0 1.6 1.3 2.9 2.9 2.9h14.9c1.6 0 2.9-1.3 2.9-2.9v-1.1c0-.3-.3-.6-.6-.6zm-.5 1.8c0 1-.8 1.7-1.7 1.7h-1.1v-.6c0-.3-.3-.6-.6-.6s-.6.3-.6.6v.6H13.6v-.6c0-.3-.3-.6-.6-.6s-.6.3-.6.6v.6h-1.1c-1 0-1.7-.8-1.7-1.7v-.6H28v.6zm10.3-28.2h1.1c.3 0 .6-.3.6-.6s-.3-.6-.6-.6h-1.1c-1 0-1.7.8-1.7 1.7v.6H36c-.3 0-.6.3-.6.6s.3.6.6.6h.6v1.7c0 .3.3.6.6.6s.6-.3.6-.6v-1.7h.6c.3 0 .6-.3.6-.6s-.3-.6-.6-.6h-.6v-.6c-.1-.2.2-.5.5-.5z" class="st3"/><path d="M41.2 8.7h-6.9c-1 0-1.7.8-1.7 1.7v1.1c0 .3.3.6.6.6s.6-.3.6-.6v-1.1c0-.3.3-.6.6-.6h6.9c.3 0 .6.3.6.6v6.9c0 .3-.3.6-.6.6h-6.9c-.3 0-.6-.3-.6-.6v-3.4c0-.3-.3-.6-.6-.6s-.6.3-.6.6v3.4c0 1 .8 1.7 1.7 1.7h6.9c1 0 1.7-.8 1.7-1.7v-6.9c0-1-.8-1.7-1.7-1.7zm-5.8 22.9c0 1.3 1 2.3 2.3 2.3 1.3 0 2.3-1 2.3-2.3 0-1.3-1-2.3-2.3-2.3-1.3 0-2.3 1.1-2.3 2.3zm3.5 0c0 .6-.5 1.1-1.1 1.1s-1.1-.5-1.1-1.1.5-1.1 1.1-1.1 1.1.5 1.1 1.1z" class="st3"/><path d="M41.2 26.5h-6.9c-1 0-1.7.8-1.7 1.7v6.9c0 1 .8 1.7 1.7 1.7h6.9c1 0 1.7-.8 1.7-1.7V34c0-.3-.3-.6-.6-.6s-.6.3-.6.6v1.1c0 .3-.3.6-.6.6h-6.9c-.3 0-.6-.3-.6-.6v-6.9c0-.3.3-.6.6-.6h6.9c.3 0 .6.3.6.6v3.4c0 .3.3.6.6.6s.6-.3.6-.6v-3.4c0-1-.8-1.7-1.7-1.7zm-19.9-11c.1.1.2.1.3.1.1 0 .2 0 .3-.1l3.4-1.7c.3-.1.4-.5.2-.8-.1-.1-.1-.2-.2-.2L21.9 11c-.3-.1-.6 0-.8.3 0 .1-.1.2-.1.3V15c.1.2.2.4.3.5zm.9-3l1.6.8-1.6.8v-1.6z" class="st3"/><path d="M22.8 18.4c2.9 0 5.2-2.3 5.2-5.2S25.7 8 22.8 8s-5.2 2.3-5.2 5.2 2.3 5.2 5.2 5.2zm0-9.2c2.2 0 4 1.8 4 4s-1.8 4-4 4-4-1.8-4-4 1.8-4 4-4zm5.7 11.5c.2 0 .4-.1.5-.2l1.7-2.3c.2-.3.1-.6-.1-.8-.3-.2-.6-.1-.8.1l-1.7 2.3c-.2.3-.1.6.1.8.1.1.2.1.3.1zm1.3 2.1c.1.1.3.2.5.2.1 0 .2 0 .3-.1l2.3-1.7c.3-.2.3-.6.1-.8-.2-.3-.6-.3-.8-.1L29.9 22c-.2.2-.3.5-.1.8zm5.6 1.3c-.1-.3-.4-.5-.7-.5l-2.9.6c-.3 0-.5.3-.5.6s.3.5.6.5h.1l2.9-.6c.4 0 .6-.3.5-.6zM9 24.2h6.9c.3 0 .6-.3.6-.6v-9.2c0-.3-.3-.6-.6-.6H9c-.3 0-.6.3-.6.6v9.2c0 .3.3.6.6.6zm.6-9.2h5.7v8H9.6v-8z" class="st3"/><path d="M13.6 16.1h-1.1c-.3 0-.6.3-.6.6s.3.6.6.6h1.1c.3 0 .6-.3.6-.6s-.3-.6-.6-.6zm0 2.3h-2.3c-.3 0-.6.3-.6.6s.3.6.6.6h2.3c.3 0 .6-.3.6-.6s-.3-.6-.6-.6zm0 2.3h-2.3c-.3 0-.6.3-.6.6s.3.6.6.6h2.3c.3 0 .6-.3.6-.6s-.3-.6-.6-.6zM28 24c-.2-.3-.5-.4-.8-.2-.2.2-.3.5-.2.8l2.5 4.4-9.2 3.4-1.5.9-1 .6c-.3.1-.6.1-.9.1-.3-.1-.5-.3-.7-.5l-1.1-2c-.3-.5-.1-1.2.4-1.5l2-1.1 1.4 2.5c.1.2.3.3.5.3.3 0 .6-.3.6-.6 0-.1 0-.2-.1-.3l-1.5-2.6 7.2-5.9.2.4c.2.3.5.4.8.2.3-.2.4-.5.2-.8l-.6-1c-.1-.1-.2-.2-.4-.3-.2 0-.3 0-.5.1l-8 6.6-2.3 1.4c-.9.5-1.3 1.6-1.1 2.6l-.6.3c-.8.5-1.1 1.5-.6 2.4.2.4.6.7 1 .8.1 0 .3.1.4.1.3 0 .6-.1.9-.2l.6-.3c.3.3.6.5 1 .6.2.1.4.1.6.1.4 0 .8-.1 1.1-.3l.5-.3 1.1 2c.5.8 1.5 1.1 2.3.6.8-.5 1.1-1.5.6-2.4L22 33l8.6-3.2c.2-.1.3-.2.3-.3.1-.2 0-.3 0-.5L28 24zm-13.5 9.8c-.1.1-.3.1-.4.1-.1 0-.3-.1-.4-.3-.1-.1-.1-.3-.1-.4 0-.1.1-.3.3-.4l.5-.3.6 1-.5.3zm7.5 1.6c.1.1.1.3.1.4 0 .1-.1.3-.3.3-.3.2-.6.1-.8-.2l-1.1-2 1-.5 1.1 2z" class="st3"/></svg>