<?xml version="1.0" encoding="utf-8"?>
<!-- Generator: Adobe Illustrator 24.0.0, SVG Export Plug-In . SVG Version: 6.00 Build 0)  -->
<svg version="1.1" id="Layer_1" xmlns="http://www.w3.org/2000/svg" xmlns:xlink="http://www.w3.org/1999/xlink" x="0px" y="0px"
	 viewBox="0 0 50 50" style="enable-background:new 0 0 50 50;" xml:space="preserve">
<style type="text/css">
	.st0{fill:#A475EF;}
	.st1{fill:#BF94F7;}
	.st2{fill:#444444;}
</style>
<g>
	<g>
		<polygon class="st0" points="47.5,26.3 47.9,30.5 2.1,47.2 2.2,38.2 2.6,33.1 48.2,16.5 47.5,20.1 		"/>
	</g>
	<g>
		<polygon class="st1" points="47.5,9.8 46.9,17.5 2.2,33.7 2.2,24.1 2.5,19.7 47.6,3.3 		"/>
	</g>
	<g>
		<path class="st2" d="M32.9,49.3h-31c-0.7,0-1.2-0.6-1.2-1.2V2c0-0.7,0.6-1.2,1.2-1.2h46.3c0.7,0,1.2,0.6,1.2,1.2v35.7
			c0,0.7-0.6,1.2-1.2,1.2s-1.2-0.6-1.2-1.2V3.2H3.1v43.5h29.8c0.7,0,1.2,0.6,1.2,1.2S33.5,49.3,32.9,49.3z"/>
	</g>
</g>
<g>
	<g>
		<g>
			<g>
				<path class="st2" d="M40.6,11.6c1.2,0,2.2-1,2.2-2.2s-1-2.2-2.2-2.2c-1.2,0-2.2,1-2.2,2.2C38.4,10.6,39.4,11.6,40.6,11.6z
					 M40.6,8.3c0.6,0,1.1,0.5,1.1,1.1c0,0.6-0.5,1.1-1.1,1.1c-0.6,0-1.1-0.5-1.1-1.1C39.4,8.8,40,8.3,40.6,8.3z"/>
			</g>
			<g>
				<path class="st2" d="M14.7,40.1H13c-0.3,0-0.5,0.2-0.5,0.5c0,0.3,0.2,0.5,0.5,0.5h1.7c0.3,0,0.5-0.2,0.5-0.5
					C15.2,40.3,15,40.1,14.7,40.1z"/>
			</g>
			<g>
				<path class="st2" d="M28.1,40.1h-1.7c-0.3,0-0.5,0.2-0.5,0.5c0,0.3,0.2,0.5,0.5,0.5h1.7c0.3,0,0.5-0.2,0.5-0.5
					C28.6,40.3,28.4,40.1,28.1,40.1z"/>
			</g>
			<g>
				<path class="st2" d="M19.2,40.1h-1.7c-0.3,0-0.5,0.2-0.5,0.5c0,0.3,0.2,0.5,0.5,0.5h1.7c0.3,0,0.5-0.2,0.5-0.5
					C19.7,40.3,19.5,40.1,19.2,40.1z"/>
			</g>
			<g>
				<path class="st2" d="M23.6,40.1h-1.7c-0.3,0-0.5,0.2-0.5,0.5c0,0.3,0.2,0.5,0.5,0.5h1.7c0.3,0,0.5-0.2,0.5-0.5
					C24.2,40.3,23.9,40.1,23.6,40.1z"/>
			</g>
			<g>
				<path class="st2" d="M37,40.1h-1.7c-0.3,0-0.5,0.2-0.5,0.5c0,0.3,0.2,0.5,0.5,0.5H37c0.3,0,0.5-0.2,0.5-0.5
					C37.5,40.3,37.3,40.1,37,40.1z"/>
			</g>
			<g>
				<path class="st2" d="M32.6,40.1h-1.7c-0.3,0-0.5,0.2-0.5,0.5c0,0.3,0.2,0.5,0.5,0.5h1.7c0.3,0,0.5-0.2,0.5-0.5
					C33.1,40.3,32.9,40.1,32.6,40.1z"/>
			</g>
			<g>
				<path class="st2" d="M9.9,26.4c0-0.3-0.2-0.5-0.5-0.5s-0.5,0.2-0.5,0.5v1.7c0,0.3,0.2,0.5,0.5,0.5s0.5-0.2,0.5-0.5V26.4z"/>
			</g>
			<g>
				<path class="st2" d="M9.9,21.9c0-0.3-0.2-0.5-0.5-0.5s-0.5,0.2-0.5,0.5v1.7c0,0.3,0.2,0.5,0.5,0.5s0.5-0.2,0.5-0.5V21.9z"/>
			</g>
			<g>
				<path class="st2" d="M9.9,30.8c0-0.3-0.2-0.5-0.5-0.5s-0.5,0.2-0.5,0.5v1.7c0,0.3,0.2,0.5,0.5,0.5s0.5-0.2,0.5-0.5V30.8z"/>
			</g>
			<g>
				<path class="st2" d="M9.4,34.8c-0.3,0-0.5,0.2-0.5,0.5V37c0,0.3,0.2,0.5,0.5,0.5c0.3,0,0.5-0.2,0.5-0.5v-1.7
					C9.9,35,9.7,34.8,9.4,34.8z"/>
			</g>
			<g>
				<path class="st2" d="M9.9,13c0-0.3-0.2-0.5-0.5-0.5S8.9,12.7,8.9,13v1.7c0,0.3,0.2,0.5,0.5,0.5s0.5-0.2,0.5-0.5V13z"/>
			</g>
			<g>
				<path class="st2" d="M9.9,17.4c0-0.3-0.2-0.5-0.5-0.5s-0.5,0.2-0.5,0.5v1.7c0,0.3,0.2,0.5,0.5,0.5s0.5-0.2,0.5-0.5V17.4z"/>
			</g>
			<g>
				<path class="st2" d="M17.5,9.9h1.7c0.3,0,0.5-0.2,0.5-0.5s-0.2-0.5-0.5-0.5h-1.7c-0.3,0-0.5,0.2-0.5,0.5S17.2,9.9,17.5,9.9z"/>
			</g>
			<g>
				<path class="st2" d="M35.3,9.9H37c0.3,0,0.5-0.2,0.5-0.5S37.3,8.9,37,8.9h-1.7c-0.3,0-0.5,0.2-0.5,0.5S35,9.9,35.3,9.9z"/>
			</g>
			<g>
				<path class="st2" d="M21.9,9.9h1.7c0.3,0,0.5-0.2,0.5-0.5s-0.2-0.5-0.5-0.5h-1.7c-0.3,0-0.5,0.2-0.5,0.5S21.6,9.9,21.9,9.9z"/>
			</g>
			<g>
				<path class="st2" d="M26.4,9.9h1.7c0.3,0,0.5-0.2,0.5-0.5s-0.2-0.5-0.5-0.5h-1.7c-0.3,0-0.5,0.2-0.5,0.5S26.1,9.9,26.4,9.9z"/>
			</g>
			<g>
				<path class="st2" d="M30.8,9.9h1.7c0.3,0,0.5-0.2,0.5-0.5s-0.2-0.5-0.5-0.5h-1.7c-0.3,0-0.5,0.2-0.5,0.5S30.6,9.9,30.8,9.9z"/>
			</g>
			<g>
				<path class="st2" d="M13,9.9h1.7c0.3,0,0.5-0.2,0.5-0.5S15,8.9,14.7,8.9H13c-0.3,0-0.5,0.2-0.5,0.5S12.7,9.9,13,9.9z"/>
			</g>
			<g>
				<path class="st2" d="M41.2,26.4c0-0.3-0.2-0.5-0.5-0.5s-0.5,0.2-0.5,0.5v1.7c0,0.3,0.2,0.5,0.5,0.5s0.5-0.2,0.5-0.5V26.4z"/>
			</g>
			<g>
				<path class="st2" d="M41.2,21.9c0-0.3-0.2-0.5-0.5-0.5s-0.5,0.2-0.5,0.5v1.7c0,0.3,0.2,0.5,0.5,0.5s0.5-0.2,0.5-0.5V21.9z"/>
			</g>
			<g>
				<path class="st2" d="M40.6,34.8c-0.3,0-0.5,0.2-0.5,0.5V37c0,0.3,0.2,0.5,0.5,0.5s0.5-0.2,0.5-0.5v-1.7
					C41.2,35,40.9,34.8,40.6,34.8z"/>
			</g>
			<g>
				<path class="st2" d="M41.2,30.8c0-0.3-0.2-0.5-0.5-0.5s-0.5,0.2-0.5,0.5v1.7c0,0.3,0.2,0.5,0.5,0.5s0.5-0.2,0.5-0.5V30.8z"/>
			</g>
			<g>
				<path class="st2" d="M41.2,17.4c0-0.3-0.2-0.5-0.5-0.5s-0.5,0.2-0.5,0.5v1.7c0,0.3,0.2,0.5,0.5,0.5s0.5-0.2,0.5-0.5V17.4z"/>
			</g>
			<g>
				<path class="st2" d="M41.2,13c0-0.3-0.2-0.5-0.5-0.5s-0.5,0.2-0.5,0.5v1.7c0,0.3,0.2,0.5,0.5,0.5s0.5-0.2,0.5-0.5V13z"/>
			</g>
			<g>
				<path class="st2" d="M9.5,11.6c1.2,0,2.2-1,2.2-2.2s-1-2.2-2.2-2.2s-2.2,1-2.2,2.2C7.3,10.6,8.3,11.6,9.5,11.6z M9.5,8.3
					c0.6,0,1.1,0.5,1.1,1.1c0,0.6-0.5,1.1-1.1,1.1c-0.6,0-1.1-0.5-1.1-1.1C8.3,8.8,8.8,8.3,9.5,8.3z"/>
			</g>
			<g>
				<path class="st2" d="M40.6,38.4c-1.2,0-2.2,1-2.2,2.2s1,2.2,2.2,2.2s2.2-1,2.2-2.2C42.7,39.4,41.8,38.4,40.6,38.4L40.6,38.4z
					 M40.6,41.7c-0.6,0-1.1-0.5-1.1-1.1s0.5-1.1,1.1-1.1c0.6,0,1.1,0.5,1.1,1.1C41.7,41.2,41.2,41.7,40.6,41.7z"/>
			</g>
			<g>
				<path class="st2" d="M9.5,38.4c-1.2,0-2.2,1-2.2,2.2s1,2.2,2.2,2.2c1.2,0,2.2-1,2.2-2.2C11.6,39.4,10.6,38.4,9.5,38.4L9.5,38.4z
					 M9.5,41.7c-0.6,0-1.1-0.5-1.1-1.1s0.5-1.1,1.1-1.1c0.6,0,1.1,0.5,1.1,1.1C10.6,41.2,10.1,41.7,9.5,41.7z"/>
			</g>
			<g>
				<path class="st2" d="M38.7,13.7c0-1-0.8-1.8-1.8-1.8H13.2c-1,0-1.8,0.8-1.8,1.8v1.8c0,0.3,0.2,0.5,0.5,0.5s0.5-0.2,0.5-0.5v-1.8
					c0-0.4,0.4-0.8,0.8-0.8h23.7c0.4,0,0.8,0.4,0.8,0.8v12.9l-2.2-1.4c-0.2-0.2-0.6-0.1-0.7,0.2c-0.2,0.2-0.1,0.6,0.2,0.7l2.7,1.7
					v8.4c0,0.4-0.4,0.8-0.8,0.8h-4v-4c0-1.1-0.5-2.2-1.4-2.9L26,26l3.5-2c0.6-0.4,1.4-0.4,2.1,0l1.3,0.8c0.2,0.2,0.6,0.1,0.7-0.2
					c0.2-0.2,0.1-0.6-0.2-0.7l-1.3-0.8c-1-0.6-2.2-0.6-3.1-0.1l-3.9,2.2l-4.6-3.6c-1-0.7-2.3-0.8-3.3-0.3l-4.8,2.7V18
					c0-0.3-0.2-0.5-0.5-0.5s-0.5,0.2-0.5,0.5v18.3c0,1,0.8,1.8,1.8,1.8h23.7c1,0,1.8-0.8,1.8-1.8L38.7,13.7z M31.8,37.1H13.2
					c-0.4,0-0.8-0.4-0.8-0.8v-11l5.3-2.9c0.7-0.4,1.6-0.3,2.2,0.2L30.8,31c0.6,0.5,1,1.3,1,2.1V37.1z"/>
			</g>
			<g>
				<path class="st2" d="M32.1,20.7c1.7,0,3.1-1.4,3.1-3.1c0-1.7-1.4-3.1-3.1-3.1c-1.7,0-3.1,1.4-3.1,3.1
					C29,19.3,30.4,20.7,32.1,20.7L32.1,20.7z M32.1,15.5c1.1,0,2.1,0.9,2.1,2.1c0,1.1-0.9,2.1-2.1,2.1c-1.1,0-2.1-0.9-2.1-2.1
					C30,16.4,31,15.5,32.1,15.5z"/>
			</g>
		</g>
	</g>
</g>
</svg>
