<?xml version="1.0" encoding="utf-8"?>
<!-- Generator: Adobe Illustrator 22.1.0, SVG Export Plug-In . SVG Version: 6.00 Build 0)  -->
<svg version="1.1" id="Layer_1" xmlns="http://www.w3.org/2000/svg" xmlns:xlink="http://www.w3.org/1999/xlink" x="0px" y="0px"
	 viewBox="0 0 50 50" style="enable-background:new 0 0 50 50;" xml:space="preserve">
<style type="text/css">
	.st0{fill:#F799FF;}
	.st1{fill:#E589EF;}
	.st2{fill:#444444;}
</style>
<g>
	<path class="st0" d="M40,7.3C30.8-0.6,17.1,0.1,8.7,8.7L48,23.5C47.7,17.4,45,11.5,40,7.3z"/>
</g>
<g>
	<path class="st1" d="M42.5,39.6c4-4.7,5.8-10.5,5.5-16.2L8.7,8.7C8.4,9,8,9.4,7.7,9.8C3.1,15.1,1.4,22,2.5,28.4l37.1,14
		C40.7,41.6,41.6,40.7,42.5,39.6z"/>
</g>
<path class="st2" d="M47.1,15.7c-0.3-0.6-1-0.9-1.6-0.7c-0.6,0.3-0.9,1-0.7,1.6c3.3,7.7,2,16.4-3.5,22.7c-1.4,1.6-3,3.1-4.8,4.2
	c-0.2-0.1-0.4-0.2-0.6-0.3c-0.5-0.1-1-0.1-1.5,0.1c-0.5-1.2-1.6-2-2.8-2.2c-1.3-0.3-2.5,0.1-3.5,0.9c-0.5-0.6-1.2-1.1-2.1-1.2
	c-0.7-0.1-1.4,0.1-2,0.4c-0.1-1.1-0.8-2-1.8-2.4c-1-0.4-2-0.4-2.9,0.2c0.3-1.5,1.3-3.4,2.3-4.6l0.2-0.3l-5.4-4.7l-0.2,0.3
	c-1,1.1-2.8,2.5-4.3,3c0.2-0.7,0.1-1.5-0.4-2c0.6-0.8,0.9-1.9,0.7-2.9c-0.1-1-0.7-1.9-1.5-2.6c1-1.3,1-3.1,0.1-4.5
	c-0.9-1.3-2.3-2-3.8-1.8c0.2-0.8,0.2-1.7,0-2.5c-0.2-0.7-0.6-1.2-1.1-1.7c0.7-1.3,1.6-2.5,2.6-3.7c5.2-6.1,13.3-8.8,21.2-7
	c0.7,0.1,1.3-0.3,1.5-0.9c0.2-0.7-0.3-1.3-0.9-1.5C21.4-0.2,12.4,2.8,6.6,9.6c-4.2,5-6.3,11.3-5.7,17.8c0.5,6.4,3.5,12.2,8.4,16.3
	c4.4,3.8,9.9,5.8,15.7,5.8c0.6,0,1.3,0,1.9-0.1c6.4-0.5,12.3-3.5,16.5-8.4C49.3,34,50.8,24.3,47.1,15.7z M6.3,16.8
	c0.3,0.8,0.2,1.8-0.2,2.6l-0.4,0.8l0.8-0.3c1.8-0.5,3.1,0.4,3.7,1.4c0.8,1.3,0.7,2.8-0.3,3.9l-0.3,0.3l0.4,0.2
	c0.8,0.5,1.3,1.3,1.5,2.3c0.1,0.9-0.1,1.9-0.8,2.6L10.5,31l0.3,0.2c0.6,0.5,0.7,1.4,0.2,2.1L10.3,34l1-0.1c1.7-0.2,4.1-1.9,5.3-3.2
	l4.3,3.7c-1.2,1.5-2.4,4-2.3,5.7l0,1l0.6-0.7c0.8-1,2-0.9,2.8-0.6c0.7,0.3,1.6,1.2,1.4,2.5l-0.1,1.1l0.8-0.8c0.5-0.6,1.3-0.8,2-0.7
	c0.8,0.1,1.4,0.5,1.8,1.2l0.3,0.5l0.3-0.4c0.8-0.9,2-1.3,3.1-1c1.2,0.2,2.1,1.1,2.5,2.2l0.2,0.5l0.4-0.3c0.4-0.3,0.8-0.4,1.2-0.2
	c-2.8,1.6-5.9,2.6-9.2,2.9c-5.8,0.4-11.4-1.4-15.8-5.2c-4.4-3.7-7-8.9-7.5-14.7c-0.3-4,0.5-8,2.2-11.5C5.9,15.9,6.2,16.3,6.3,16.8z"
	/>
<path class="st2" d="M44.8,3l0-0.8l-0.8,0.1c-0.6,0.1-14,2-22.4,11.7c-0.4,0.5-0.8,1-1.2,1.5c-5.1,1-9.7,4.8-11.3,10.4
	c2.1-1.3,4.5-2,6.9-2.1c-0.4,1-0.7,2-1,3l-0.1,0.5l1.6,1.3l-1.1,0.5l3.6,3.1c-0.2,0.3-0.3,0.4-0.3,0.4s0.1-0.1,0.4-0.4l3.6,3.1
	l0.3-1.2l1.6,1.3l0.4-0.2c1-0.4,1.9-0.9,2.8-1.4c0.2,2.4-0.1,4.8-1,7.1c5.3-2.4,8.3-7.5,8.6-12.7c0.5-0.5,0.9-0.9,1.3-1.4
	C45,17.2,44.8,3.6,44.8,3z M35.5,25.9c-2.7,3.2-6.4,5.8-10.8,7.9l-3.9-3.4c3-3.1,8.1-8.4,8.4-8.7c0.3-0.4,0.3-1-0.1-1.3
	c-0.4-0.3-1-0.3-1.3,0.1c-0.2,0.3-4.7,6.1-7.3,9.6l-3.9-3.4c1.4-4.7,3.4-8.7,6.1-11.9c4-4.7,9.3-7.4,13.7-9.1C37.1,7,38,8,39,8.9
	c1,0.9,2.2,1.6,3.3,2.2C41.4,15.6,39.5,21.3,35.5,25.9z"/>
<g>
	<path class="st2" d="M33.7,20c-1.1,0-2.3-0.4-3.2-1.2c-2.1-1.8-2.3-4.9-0.5-7c0.9-1,2.1-1.6,3.4-1.7c1.3-0.1,2.6,0.3,3.6,1.2
		c1,0.9,1.6,2.1,1.7,3.4c0.1,1.3-0.3,2.6-1.2,3.6l0,0C36.5,19.4,35.1,20,33.7,20z M33.7,10.3c-0.1,0-0.2,0-0.4,0
		C32.1,10.5,31,11,30.2,12c-1.7,2-1.5,4.9,0.5,6.6c2,1.7,4.9,1.5,6.6-0.5l0,0c0.8-1,1.2-2.2,1.1-3.4s-0.7-2.4-1.6-3.2
		C35.9,10.7,34.8,10.3,33.7,10.3z"/>
</g>
<g>
	<circle class="st2" cx="33.7" cy="15" r="3.7"/>
</g>
</svg>
