<?xml version="1.0" encoding="utf-8"?>
<!-- Generator: Adobe Illustrator 27.8.1, SVG Export Plug-In . SVG Version: 6.00 Build 0)  -->
<svg version="1.1" id="Camada_3" xmlns="http://www.w3.org/2000/svg" xmlns:xlink="http://www.w3.org/1999/xlink" x="0px" y="0px"
	 viewBox="0 0 50 50" style="enable-background:new 0 0 50 50;" xml:space="preserve">
<style type="text/css">
	.st0{fill:#FF6B6B;}
	.st1{fill:none;stroke:#444444;stroke-linecap:round;stroke-linejoin:round;stroke-miterlimit:10;}
	.st2{fill:none;stroke:#444444;stroke-width:2.5;stroke-linecap:round;stroke-linejoin:round;stroke-miterlimit:10;}
	.st3{fill:none;stroke:#444444;stroke-width:0.5;stroke-linecap:round;stroke-linejoin:round;stroke-miterlimit:10;}
</style>
<g>
	<g>
		<g>
			<path class="st0" d="M40.72,14.26l-10.1,1.58l-6.39-2.04l-6.58,1.85c-3.29,0-12.6-2.83-12.6,0.46l-3.43,7.32l1.3,7.32l4.82,4.45
				c1.97,1.3,11.12-1.3,12.97,1.24l28.4-10.11C49.87,25.91,49.06,15.75,40.72,14.26z"/>
		</g>
	</g>
	<path class="st1" d="M23.97,24.99c0-2.97,1.62-5.55,4.01-6.94c-1.18-0.68-2.55-1.08-4.01-1.08c-4.43,0-8.02,3.59-8.02,8.02
		s3.59,8.02,8.02,8.02c1.46,0,2.83-0.4,4.01-1.08C25.58,30.54,23.97,27.96,23.97,24.99z"/>
	<circle class="st1" cx="37.8" cy="24.99" r="8.02"/>
	<path class="st1" d="M12.52,33.14c0.95,0,1.85-0.17,2.69-0.47c-3.11-1.11-5.33-4.06-5.33-7.55s2.23-6.44,5.33-7.55
		c-0.84-0.3-1.74-0.47-2.69-0.47c-4.43,0-8.02,3.59-8.02,8.02S8.08,33.14,12.52,33.14z"/>
	<path class="st2" d="M47.37,30.11c0.81-1.53,1.27-3.27,1.27-5.12c0-6.02-4.88-10.89-10.89-10.89c-2.66,0-5.09,0.96-6.98,2.54
		c-1.89-1.58-4.33-2.54-6.98-2.54c-2.12,0-4.09,0.62-5.77,1.66c-1.67-1.05-3.65-1.66-5.77-1.66c-6.02,0-10.89,4.88-10.89,10.89
		c0,6.02,4.88,10.89,10.89,10.89c2.12,0,4.09-0.62,5.77-1.66c1.67,1.05,3.65,1.66,5.77,1.66c2.66,0,5.09-0.96,6.98-2.54
		c1.89,1.58,4.33,2.54,6.98,2.54"/>
	<line class="st3" x1="16.73" y1="27.7" x2="39.8" y2="27.7"/>
	<line class="st3" x1="9.78" y1="25.1" x2="29.78" y2="25.1"/>
	<line class="st3" x1="5.24" y1="22.05" x2="27.94" y2="22.05"/>
</g>
</svg>
