<?xml version="1.0" encoding="utf-8"?>
<!-- Generator: Adobe Illustrator 24.0.0, SVG Export Plug-In . SVG Version: 6.00 Build 0)  -->
<svg version="1.1" id="Camada_1" xmlns="http://www.w3.org/2000/svg" xmlns:xlink="http://www.w3.org/1999/xlink" x="0px" y="0px"
	 viewBox="0 0 50 50" style="enable-background:new 0 0 50 50;" xml:space="preserve">
<style type="text/css">
	.st0{fill:#A475EF;}
	.st1{fill:#BF94F7;}
	.st2{fill:#444444;}
	.st3{fill:none;stroke:#444444;stroke-miterlimit:10;}
</style>
<g>
	<path class="st0" d="M49.3,13.1v10.4l-1.6,0.6l-1.6,0.6l-1.6,0.6l-1.6,0.6l-1.6,0.6l-11.6,4.2l-4.5,1.6l-8.9,3.2l-4.4,1.6H5.5
		c-2.7,0-4.9-2.2-4.9-4.9v-1.5l1.6-0.6l38.9-14.2l1.6-0.6l0.5-0.2l2.7-1v0l1.6-0.6L49.3,13.1z"/>
	<path class="st1" d="M49.3,7.2v6.4l-1.6,0.6l-1.6,0.6l-1.6,0.6v0l-1.6,0.6l-1.6,0.6L2.3,30.6l-1.6,0.6V20.8l1.6-0.6L4,19.6L7,18.5
		L44.9,4.7l2.6-1C48.6,4.5,49.3,5.7,49.3,7.2z"/>
	<g id="Outline">
		<path class="st2" d="M48.5,24.2c-0.5,0-0.8,0.4-0.8,0.8v8.1c0,1.3-1.1,2.4-2.4,2.4H5.5c-1.8,0-3.2-1.5-3.2-3.2V7.2
			c0-1.3,1.1-2.4,2.4-2.4h13.8c0.5,0,0.8-0.4,0.8-0.8c0-0.5-0.4-0.8-0.8-0.8H4.7c-2.2,0-4.1,1.8-4.1,4.1v25.1c0,2.7,2.2,4.9,4.9,4.9
			h10.2c-0.8,1.9-2.4,3.3-4.3,4.1l-2,0.8H8c-1.3,0-2.4,1.1-2.4,2.4v1.6c0,0.5,0.4,0.8,0.8,0.8h37.3c0.4,0,0.8-0.4,0.8-0.8v-1.6
			c0-1.3-1.1-2.4-2.4-2.4h-1.5l-2-0.8c-1.9-0.8-3.4-2.2-4.3-4.1h11c2.2,0,4.1-1.8,4.1-4.1V25C49.3,24.6,49,24.2,48.5,24.2z M42,43.7
			c0.5,0,0.8,0.4,0.8,0.8v0.8H7.2v-0.8c0-0.5,0.4-0.8,0.8-0.8H42z M36.5,42H13.5c1.9-1.1,3.3-2.8,4-4.9h15.1
			C33.3,39.2,34.7,40.9,36.5,42z"/>
		<path class="st2" d="M49.3,7.2v19.7c0,0.5-0.4,0.8-0.8,0.8s-0.8-0.4-0.8-0.8V7.2c0-1.3-1.1-2.4-2.4-2.4h-7.2
			c-0.5,0-0.8-0.4-0.8-0.8c0-0.5,0.4-0.8,0.8-0.8h7.2c0.8,0,1.6,0.3,2.2,0.7C48.6,4.5,49.3,5.7,49.3,7.2z"/>
		<path class="st2" d="M16.9,29.1c-1,0-1.9,0.7-2.3,1.6h-5c-0.4,0-0.8,0.4-0.8,0.8c0,0.4,0.4,0.8,0.8,0.8h5c0.4,1.3,1.8,1.9,3.1,1.5
			c0.7-0.2,1.2-0.8,1.5-1.5H42c0.4,0,0.8-0.4,0.8-0.8c0-0.4-0.4-0.8-0.8-0.8H19.2C18.8,29.7,17.9,29.1,16.9,29.1z M16.9,32.3
			c-0.4,0-0.8-0.4-0.8-0.8c0-0.4,0.4-0.8,0.8-0.8c0.4,0,0.8,0.4,0.8,0.8C17.7,31.9,17.3,32.3,16.9,32.3z"/>
		<path class="st2" d="M45.3,28.2c0.4,0,0.8-0.4,0.8-0.8v-13c0-0.4-0.4-0.8-0.8-0.8H42c-0.4,0-0.8,0.4-0.8,0.8v13
			c0,0.4,0.4,0.8,0.8,0.8H45.3z M42.8,21.8h1.6v1.6h-1.6V21.8z M44.5,20.1h-1.6v-1.6h1.6V20.1z M44.5,26.6h-1.6V25h1.6V26.6z
			 M42.8,15.3h1.6v1.6h-1.6V15.3z"/>
		<path class="st2" d="M4.7,13.7H8c0.4,0,0.8-0.4,0.8-0.8C8.8,12.4,8.4,12,8,12H4.7c-0.4,0-0.8,0.4-0.8,0.8
			C3.9,13.3,4.3,13.7,4.7,13.7z"/>
		<path class="st2" d="M4.7,16.9H8c0.4,0,0.8-0.4,0.8-0.8c0-0.4-0.4-0.8-0.8-0.8H4.7c-0.4,0-0.8,0.4-0.8,0.8
			C3.9,16.5,4.3,16.9,4.7,16.9z"/>
		<path class="st2" d="M8.8,19.3c0-0.4-0.4-0.8-0.8-0.8H4.7c-0.4,0-0.8,0.4-0.8,0.8c0,0.4,0.4,0.8,0.8,0.8H8
			C8.4,20.1,8.8,19.8,8.8,19.3z"/>
		<path class="st2" d="M8,22.6c0-0.4-0.4-0.8-0.8-0.8H4.7c-0.4,0-0.8,0.4-0.8,0.8c0,0.4,0.4,0.8,0.8,0.8h2.4C7.6,23.4,8,23,8,22.6z"
			/>
		<path class="st2" d="M4.7,25c-0.4,0-0.8,0.4-0.8,0.8s0.4,0.8,0.8,0.8h1.6c0.4,0,0.8-0.4,0.8-0.8S6.8,25,6.3,25H4.7z"/>
	</g>
	<rect x="13.4" y="10.9" class="st2" width="3.8" height="1.8"/>
	<rect x="33.1" y="11.4" class="st2" width="3.8" height="0.7"/>
	<rect x="28.6" y="11.4" class="st2" width="3.8" height="0.7"/>
	<rect x="24.1" y="11.4" class="st2" width="3.8" height="0.7"/>
	<rect x="19.5" y="11.4" class="st2" width="3.8" height="0.7"/>
	<rect x="13.9" y="14.8" class="st3" width="22.4" height="8.3"/>
</g>
</svg>
