<svg xmlns="http://www.w3.org/2000/svg" fill="none" viewBox="0 0 120 120"><path fill="#DC5E82" d="M60 10c-30 0-45 25-45 45s15 40 30 45v10h10v-10s5 2 10 0v10h10v-10c15-5 30-25 30-45S90 10 60 10z"/><path fill="url(#paint0_linear_1643_12)" d="M60 10c-30 0-45 25-45 45s15 40 30 45v10h10v-10s5 2 10 0v10h10v-10c15-5 30-25 30-45S90 10 60 10z"/><path fill="url(#paint1_linear_1643_12)" d="M20 45C5 40 0 50 5 60s15 5 20-5c3-7 0-10-5-10z"/><path fill="url(#paint2_linear_1643_12)" d="M100 45c15-5 20 5 15 15s-15 5-20-5c-3-7 0-10 5-10z"/><path stroke="#FF4D4D" stroke-linecap="round" stroke-width="3" d="M45 15c-6.667-6.667-11.667-9-15-7m45 7c6.667-6.667 11.667-9 15-7"/><path fill="#050810" d="M45 41a6 6 0 100-12 6 6 0 000 12zm30 0a6 6 0 100-12 6 6 0 000 12z"/><path fill="#00E5CC" d="M46 36.5a2.5 2.5 0 100-5 2.5 2.5 0 000 5zm30 0a2.5 2.5 0 100-5 2.5 2.5 0 000 5z"/><defs><linearGradient id="paint0_linear_1643_12" x1="15" x2="114.448" y1="10" y2="99.503" gradientUnits="userSpaceOnUse"><stop stop-color="#FF4D4D"/><stop offset="1" stop-color="#991B1B"/></linearGradient><linearGradient id="paint1_linear_1643_12" x1="3.125" x2="24.87" y1="43.67" y2="66.704" gradientUnits="userSpaceOnUse"><stop stop-color="#FF4D4D"/><stop offset="1" stop-color="#991B1B"/></linearGradient><linearGradient id="paint2_linear_1643_12" x1="93.803" x2="115.548" y1="43.67" y2="66.704" gradientUnits="userSpaceOnUse"><stop stop-color="#FF4D4D"/><stop offset="1" stop-color="#991B1B"/></linearGradient></defs></svg>