<?xml version="1.0" encoding="utf-8"?>
<!-- Generator: Adobe Illustrator 24.0.0, SVG Export Plug-In . SVG Version: 6.00 Build 0)  -->
<svg version="1.1" id="Layer_1" xmlns="http://www.w3.org/2000/svg" xmlns:xlink="http://www.w3.org/1999/xlink" x="0px" y="0px"
	 viewBox="0 0 50 50" style="enable-background:new 0 0 50 50;" xml:space="preserve">
<style type="text/css">
	.st0{fill:#F799FF;}
	.st1{fill:#E589EF;}
	.st2{fill:none;stroke:#444444;stroke-width:1.5;stroke-linecap:round;stroke-linejoin:round;stroke-miterlimit:10;}
	.st3{fill:none;stroke:#444444;stroke-width:2.5;stroke-linecap:round;stroke-linejoin:round;stroke-miterlimit:10;}
</style>
<path class="st0" d="M39.6,10.8c0,0,3.4,2.6,5.2,7.6c0.5,1.3-0.8,1.9-0.8,1.9L39.6,10.8z"/>
<path class="st1" d="M12.5,43.3c0,0-3.8-1.9-6.6-6.4c-0.7-1.2,0.4-2.1,0.4-2.1L12.5,43.3z"/>
<path class="st1" d="M9.8,41.8l0.9-2.1l-4.2-2.6"/>
<polygon class="st1" points="46.1,27.2 46.1,27.6 9.8,41 10.2,42.1 5.4,35.1 45.3,20.4 46.1,22.6 "/>
<polygon class="st0" points="44.4,18.5 45.4,21 6,35.4 3.8,28.6 4.3,25.2 40.5,12.2 "/>
<polygon class="st2" points="31.7,38.4 20.2,38.4 14.5,32.7 14.5,21.2 31.7,21.2 "/>
<polyline class="st2" points="17.8,21.2 17.8,18 34.9,18 34.9,35.1 31.7,35.1 "/>
<polyline class="st2" points="20.2,38.4 20.2,32.7 14.5,32.7 "/>
<line class="st2" x1="18.6" y1="25.3" x2="23.5" y2="25.3"/>
<line class="st2" x1="18.6" y1="28.6" x2="26.8" y2="28.6"/>
<path class="st3" d="M18.6,47C10.1,44.2,3.9,36.2,3.9,26.8c0-11.7,9.5-21.2,21.2-21.2"/>
<path class="st3" d="M33.5,7.3c7.6,3.2,12.9,10.8,12.9,19.5c0,11.7-9.5,21.2-21.2,21.2"/>
<polyline class="st3" points="21.2,9.5 25.2,5.5 21.2,1.6 "/>
<path class="st3" d="M18.6,47c0,0,3.5,1.2,6.7,1"/>
</svg>
