<svg xmlns="http://www.w3.org/2000/svg" version="1" viewBox="0 0 50 50"><path fill="#AFE55D" d="M44.314 13.38c-2.407-4.314-6.279-7.814-10.911-9.565-1.203-.455-2.401-.696-3.579-.852-1.399-.143-3.787-.143-5.348.631L17 7.856a8.5 8.5 0 00-1.113.774c-.273.215-.768.898-.989 1.353a14.703 14.703 0 00-1.464 4.125c-1.607 7.587 1.288 13.625 7.053 18.674l-8.036-4.659-9.129 5.199 5.27 3.025c2.909 1.666 5.745 3.598 8.953 4.652.397.13.794.247 1.204.345l.911-.332 13.469-4.899.058-.02 4.724-1.718 1.132-.416 2.473-.898c.625-.377 1.21-.8 1.705-1.334 4.62-4.969 4.216-12.745 1.093-18.347zm-9.155 18.336c-5.596-2.765-9.337-5.003-11.27-10.027-1.932-5.017-.514-11.341-.429-11.634 5.283 2.049 9.356 6.585 11.178 11.757 1.107 3.156 1.38 6.67.521 9.904z"/><path fill="#C3FF68" d="M33.405 3.818c-1.203-.456-2.401-.696-3.579-.852-1.399-.143-3.787-.143-5.348.631l-7.476 4.262a8.5 8.5 0 00-1.113.774c-.273.214-.768.897-.989 1.353a14.703 14.703 0 00-1.464 4.125 19.485 19.485 0 00-.423 3.266l9.935-3.618c.137-2.069.475-3.566.514-3.702a18.367 18.367 0 013.891 2.095l12.362-4.496c-1.853-1.639-3.987-2.96-6.31-3.838z"/><path fill="#031326" d="M45.435 46.313l-13.911-7.979 6.17-3.547 5.899 3.146a1.247 1.247 0 001.69-.515 1.248 1.248 0 00-.515-1.69l-2.482-1.324.035-.022.003-.001c.56-.334 1.383-.865 2.077-1.612 5.313-5.727 4.383-14.345 1.27-19.93-2.636-4.73-6.766-8.347-11.626-10.186-1.148-.434-2.382-.729-3.919-.932-.885-.092-3.931-.302-6.127.793l-7.502 4.274c-.409.22-1.12.727-1.298.896-.518.405-1.11 1.312-1.325 1.755a16.187 16.187 0 00-1.597 4.484c-1.005 4.749-.368 9.181 1.894 13.252l-1.119-.641L.805 33.516l7.204 4.135c.627.36 1.251.732 1.876 1.105 2.312 1.379 4.704 2.806 7.363 3.679 4.95 1.624 10.219 1.083 13.978-1.39l12.965 7.436a1.25 1.25 0 001.244-2.168zm.028-21.156a15.33 15.33 0 01-.268 1.161c-.033.119-.069.237-.106.355a11.349 11.349 0 01-2.519 4.394c-.367.396-.839.756-1.527 1.167v.001h-.001a.091.091 0 00-.013.008l-.709.427c-.395.24-.785.479-1.191.71l-1.968 1.123.01.005-4.288 2.464c.299-.399.569-.83.824-1.262l.248-.435c.019-.034.039-.067.057-.101.315-.543.592-1.114.83-1.71.023-.056.043-.112.065-.169.158-.411.296-.832.42-1.263.022-.078.075-.258.119-.457.773-3.083.601-6.521-.567-9.849-1.901-5.387-6.053-9.785-11.117-11.822v-.001l-.068-.027c-.074-.03-.147-.064-.222-.092a17.817 17.817 0 00-1.018-.357c-1.271-.404-2.528-.582-3.662-.642a14.915 14.915 0 00-.694-.034l7.076-4.034c1.221-.607 3.292-.655 4.661-.515 1.305.173 2.361.423 3.325.788 4.311 1.63 7.978 4.85 10.327 9.064 1.577 2.829 2.513 6.537 2.125 10.092-.044.337-.086.672-.149 1.011zM16.812 9.59c.064-.057.23-.18.411-.306.18-.008.354-.023.539-.023.148-.001.296-.002.451.001 1.675.051 3.465.38 4.955.946-.255 1.182-1.324 6.87.487 11.572 1.974 5.126 5.89 7.429 11.206 10.066-.124.442-.266.877-.432 1.301l-.046.117c-.187.464-.395.918-.632 1.356l-.142.258c-.095.166-.188.334-.29.495a18.615 18.615 0 01-4.972.077 19.283 19.283 0 01-3.701-.821 11.78 11.78 0 01-3.57-2.108c-5.92-5.181-7.765-11.421-6.353-18.093a13.81 13.81 0 011.373-3.848c.164-.334.525-.821.716-.99zm17.594 12.303c1.121 3.198 1.296 6.494.578 9.455-5.161-2.566-8.965-4.822-10.86-9.747-1.701-4.416-.75-9.895-.484-11.192 4.912 2.009 8.925 6.264 10.766 11.484zM20.533 33.28c.73.432 1.476.856 2.271 1.197.541.233 1.094.432 1.653.615 1.044.393 2.177.676 3.433.847a18.077 18.077 0 002.83.161c.063-.001.166-.002.298-.001.85.001 1.525-.122 1.947-.18a13.354 13.354 0 01-2.254 2.411l-.313.239c-3.14 2.392-7.881 2.965-12.37 1.49-2.396-.787-4.667-2.142-6.862-3.451-.637-.38-1.273-.76-1.913-1.126l-3.412-1.959 7.548-4.307 7.144 4.064z"/><path fill="none" d="M13.389 26.327l2.197 1.249"/></svg>