<?xml version="1.0" encoding="utf-8"?>
<!-- Generator: Adobe Illustrator 22.0.1, SVG Export Plug-In . SVG Version: 6.00 Build 0)  -->
<svg version="1.1" id="Layer_1" xmlns="http://www.w3.org/2000/svg" xmlns:xlink="http://www.w3.org/1999/xlink" x="0px" y="0px"
	 viewBox="0 0 50 50" style="enable-background:new 0 0 50 50;" xml:space="preserve">
<style type="text/css">
	.st0{fill:#4ECDC4;}
	.st1{fill:#46B8B0;}
	.st2{fill:#444444;}
	.st3{fill:none;stroke:#444444;stroke-width:2.5;stroke-linecap:round;stroke-miterlimit:10;}
	.st4{fill:none;stroke:#444444;stroke-miterlimit:10;}
</style>
<g>
	<path class="st0" d="M22.3,7.1C12,7.1,3.7,15.4,3.7,25.6c0,0.6,0,1.2,0.1,1.8l33.7-12.3C34.2,10.3,28.6,7.1,22.3,7.1z"/>
</g>
<g>
	<path class="st1" d="M40.8,25.6c0-3.9-1.2-7.5-3.3-10.5L3.8,27.4c0.4,4.6,2.5,8.7,5.7,11.6l31.2-11.3C40.7,27,40.8,26.3,40.8,25.6z
		"/>
</g>
<path class="st2" d="M16.5,7.5c-0.3-0.7-1.1-1-1.8-0.7c-1.5,0.6-2.9,1.5-4.2,2.5c-5.1,3.8-8,9.6-8,16c0,5,1.8,9.7,5.1,13.4
	C8,38.8,8.3,39,8.7,39c0.3,0,0.6-0.1,0.9-0.3c0.6-0.5,0.6-1.3,0.1-1.9c-2.9-3.2-4.4-7.3-4.4-11.6c0-5.5,2.5-10.5,6.9-13.8
	c1.1-0.9,2.4-1.6,3.7-2.1C16.5,8.9,16.8,8.1,16.5,7.5z"/>
<g>
	<path class="st2" d="M15.6,38.6c0,0-0.1,0-0.1,0c-5.1-2.6-8.2-7.8-8.2-13.5c0-7.4,5.2-13.7,12.5-15c0.1,0,0.3,0.1,0.3,0.2
		c0,0.1-0.1,0.3-0.2,0.3c-7,1.3-12,7.4-12,14.5c0,5.5,3,10.5,7.9,13.1c0.1,0.1,0.2,0.2,0.1,0.4C15.8,38.6,15.7,38.6,15.6,38.6z"/>
</g>
<g>
	<path class="st2" d="M22.6,40.3c-0.1,0-0.3-0.1-0.3-0.3c0-0.1,0.1-0.3,0.3-0.3c8.1,0,14.7-6.6,14.7-14.7c0-7.2-5.2-13.4-12.3-14.5
		c-0.1,0-0.2-0.2-0.2-0.3c0-0.1,0.2-0.2,0.3-0.2c7.4,1.2,12.8,7.5,12.8,15.1C37.8,33.5,31,40.3,22.6,40.3z"/>
</g>
<path class="st2" d="M45.5,40c-0.5-0.5-1.4-0.5-1.9,0c-0.5,0.5-0.5,1.4,0,1.9l0.8,0.8h-8.9c-0.7,0-1.3,0.6-1.3,1.3s0.6,1.3,1.3,1.3
	h8.7l-0.8,0.8c-0.5,0.5-0.5,1.4,0,1.9c0.3,0.3,0.6,0.4,1,0.4c0.3,0,0.7-0.1,1-0.4l4.1-4.1L45.5,40z"/>
<g>
	<path class="st2" d="M13.9,39.3c-0.1,0-0.2-0.1-0.3-0.2c0-0.1,0.1-0.3,0.2-0.3l1.8-0.4l-0.3-1.7c0-0.1,0.1-0.3,0.2-0.3
		c0.1,0,0.3,0.1,0.3,0.2l0.4,2.2L13.9,39.3C14,39.3,14,39.3,13.9,39.3z"/>
</g>
<path class="st2" d="M40.5,16.3C37.1,9.4,30.2,5.2,22.6,5.2c0,0,0,0,0,0l0.8-0.8c0.5-0.5,0.5-1.4,0-1.9C22.8,2,22,2,21.4,2.5
	l-3.9,3.9l4.1,4.1c0.3,0.3,0.6,0.4,1,0.4s0.7-0.1,1-0.4c0.5-0.5,0.5-1.4,0-1.9l-0.8-0.8c6.6,0.1,12.4,3.7,15.4,9.6
	c1.2,2.4,1.8,5,1.8,7.7c0,2.5-0.5,4.8-1.5,7.1c-2.7,6-8.7,10.1-15.4,10.2c-0.1,0-0.3,0-0.4,0H1.9c-0.7,0-1.3,0.6-1.3,1.3
	s0.6,1.3,1.3,1.3H23c0,0,0,0,0,0c0,0,0,0,0,0c7.7-0.2,14.6-4.8,17.8-11.8c1.2-2.6,1.7-5.3,1.7-8.2C42.6,22.1,41.9,19.1,40.5,16.3z"
	/>
<g>
	<path class="st3" d="M22,14.5"/>
</g>
<g>
	<circle class="st2" cx="18.3" cy="27" r="2.8"/>
</g>
<g>
	<path class="st4" d="M24.2,23.8"/>
</g>
<path class="st2" d="M26.7,22.2L26.7,22.2l-0.6,0v0.9h-1.2v-0.9h-0.6v0h-6c-2.6,0-4.8,2.1-4.8,4.8c0,2.6,2.1,4.8,4.8,4.8
	c2.5,0,4.5-1.9,4.7-4.4c0.3-0.5,1.6-1.1,3.3-1.5c1.8-0.4,3.7-0.5,3.7-0.5l0.4,0l0.6-3.2H26.7z M18.3,30.7c-2,0-3.7-1.7-3.7-3.7
	c0-2,1.7-3.7,3.7-3.7c2,0,3.7,1.7,3.7,3.7C22,29,20.4,30.7,18.3,30.7z M29.6,24.4c-0.7,0-2.1,0.2-3.5,0.5c-1,0.2-2.2,0.7-3.1,1.2
	c-0.2-1.1-0.9-2.1-1.7-2.8h2.5v0.9h3.3v-0.9h2.6L29.6,24.4z"/>
<g>
	<path class="st2" d="M25.5,19.9c-0.3,0-0.5-0.2-0.5-0.5v-2.6c0-0.3,0.2-0.5,0.5-0.5s0.5,0.2,0.5,0.5v2.6
		C26,19.6,25.8,19.9,25.5,19.9z"/>
</g>
<g>
	<path class="st2" d="M23.7,21c-0.2,0-0.3-0.1-0.5-0.2l-1.4-2.2c-0.2-0.2-0.1-0.6,0.2-0.7c0.2-0.2,0.6-0.1,0.7,0.2l1.4,2.2
		c0.2,0.2,0.1,0.6-0.2,0.7C23.9,21,23.8,21,23.7,21z"/>
</g>
<g>
	<path class="st2" d="M27.3,21c-0.1,0-0.2,0-0.3-0.1c-0.2-0.2-0.3-0.5-0.2-0.7l1.4-2.2c0.2-0.3,0.5-0.3,0.7-0.2
		c0.2,0.2,0.3,0.5,0.2,0.7l-1.4,2.2C27.6,20.9,27.5,21,27.3,21z"/>
</g>
</svg>
