<?xml version="1.0" encoding="UTF-8"?>
<svg id="Camada_1" xmlns="http://www.w3.org/2000/svg" version="1.1" viewBox="0 0 50 50">
  <!-- Generator: Adobe Illustrator 29.0.1, SVG Export Plug-In . SVG Version: 2.1.0 Build 192)  -->
  <defs>
    <style>
      .st0, .st1 {
        stroke: #444;
      }

      .st0, .st1, .st2 {
        fill: none;
        stroke-linecap: round;
        stroke-linejoin: round;
      }

      .st1 {
        stroke-width: 2.5px;
      }

      .st3 {
        fill: #7df4eb;
      }

      .st2 {
        stroke: #2c2c2c;
      }

      .st4 {
        fill: #35d3c3;
      }
    </style>
  </defs>
  <polyline class="st4" points="14 23.7 19.1 16.5 21.7 24.9"/>
  <g>
    <path class="st3" d="M43.3,23.6l-3.9-.2h-5.1c0,0-.2-19.9-.2-19.9-2.1,0-27-2-27,.2l-.5,37.6,15.9.8,1.1,2.8,20.8-7.4c.5-.3-.5-12.6-1.2-13.9Z"/>
    <g>
      <path class="st1" d="M44,41.6v-15.9c0-1-.8-1.9-1.9-1.9h-7.1V5.9c0-1.6-1.3-3-3-3H9.2c-1.6,0-3,1.3-3,3v33.1c0,1.6,1.3,3,3,3h14.3v4.6c0,1,.8,1.9,1.9,1.9h10.1"/>
      <line class="st0" x1="11" y1="26.9" x2="21.4" y2="26.9"/>
      <line class="st0" x1="11" y1="31.2" x2="21.4" y2="31.2"/>
      <line class="st0" x1="11" y1="35.2" x2="21.4" y2="35.2"/>
      <polyline class="st2" points="11.5 22.3 11.5 12.3 21.3 12.3"/>
      <polyline class="st2" points="21.2 22.3 21.2 6.6 30.1 6.6 30.1 22.3"/>
      <line class="st0" x1="33.7" y1="24.7" x2="33.7" y2="48.1"/>
      <line class="st0" x1="24.6" y1="36.1" x2="44" y2="36.1"/>
      <line class="st0" x1="26.8" y1="30.4" x2="31.2" y2="30.4"/>
      <g>
        <line class="st0" x1="36.1" y1="41.2" x2="40.9" y2="41.2"/>
        <line class="st0" x1="36.1" y1="43.5" x2="40.9" y2="43.5"/>
      </g>
      <line class="st0" x1="35.8" y1="30.4" x2="40.9" y2="30.4"/>
      <line class="st0" x1="38.4" y1="33" x2="38.4" y2="27.8"/>
      <line class="st0" x1="27.1" y1="43.9" x2="30.8" y2="40.2"/>
      <line class="st0" x1="30.8" y1="43.9" x2="27.1" y2="40.2"/>
      <path class="st0" d="M36.1,48.4h-9.9c-1,0-1.9-.8-1.9-1.9v-20c0-1,.8-1.9,1.9-1.9h15.9c1,0,1.9.8,1.9,1.9v14.8"/>
    </g>
  </g>
</svg>
