<?xml version="1.0" encoding="UTF-8"?>
<svg id="Camada_1" data-name="Camada 1" xmlns="http://www.w3.org/2000/svg" viewBox="0 0 300 300">
  <defs>
    <style>
      .cls-1 {
        fill: #efb000;
      }

      .cls-1, .cls-2, .cls-3, .cls-4, .cls-5, .cls-6, .cls-7, .cls-8, .cls-9 {
        stroke-width: 0px;
      }

      .cls-2 {
        fill: #f9b4c4;
      }

      .cls-3 {
        fill: #ff4a75;
      }

      .cls-4 {
        fill: #bf8c9a;
      }

      .cls-5 {
        fill: #ef3030;
      }

      .cls-6 {
        fill: #ffdcdf;
      }

      .cls-7 {
        fill: #54c654;
      }

      .cls-10 {
        fill: none;
        isolation: isolate;
        opacity: .24;
        stroke: #fff;
        stroke-linecap: round;
        stroke-linejoin: round;
        stroke-width: 9px;
      }

      .cls-8 {
        fill: #008dd3;
      }

      .cls-9 {
        fill: #fff;
      }
    </style>
  </defs>
  <circle class="cls-8" cx="140" cy="150" r="140"/>
  <path class="cls-4" d="M252.05,65.62H59.97c-5.83,0-10.55,4.72-10.55,10.55v141.59c0,5.83,4.72,10.55,10.55,10.55h192.09c5.83,0,10.55-4.72,10.55-10.55V76.18c0-5.83-4.72-10.55-10.55-10.55Z"/>
  <polygon class="cls-4" points="276 215.27 257.69 226.69 247.31 220.05 254.22 211.82 270.34 211.82 276 215.27"/>
  <polygon class="cls-4" points="72.22 56.47 54.49 67.15 54.54 79.91 72.96 92.08 81.84 71.64 72.22 56.47"/>
  <rect class="cls-2" x="68.98" y="53.52" width="213.19" height="162.7" rx="10.55" ry="10.55"/>
  <rect class="cls-3" x="78.71" y="82.54" width="196.55" height="127" rx="15.4" ry="15.4"/>
  <path class="cls-6" d="M282.17,64.07v12.34H68.98v-12.34c0-5.83,4.72-10.55,10.55-10.55h192.09c5.83,0,10.55,4.72,10.55,10.55Z"/>
  <circle class="cls-7" cx="84.14" cy="66.21" r="5.43"/>
  <circle class="cls-1" cx="99.93" cy="66.21" r="5.43"/>
  <circle class="cls-5" cx="115.72" cy="66.21" r="5.43"/>
  <path class="cls-9" d="M166.53,190.97l1.95-30.19-25.28,16.93-10.45-18.41,27.23-13.26-27.23-13.26,10.45-18.41,25.28,16.93-1.95-30.19h20.99l-2.03,30.19,25.28-16.93,10.45,18.41-27.15,13.26,27.15,13.26-10.45,18.41-25.28-16.93,2.03,30.19h-20.99Z"/>
  <path class="cls-10" d="M239.69,93.71h18.93c6.11,0,11.06,4.95,11.06,11.06v30.3"/>
</svg>