<svg xmlns="http://www.w3.org/2000/svg" xmlns:xlink="http://www.w3.org/1999/xlink" id="Camada_1" data-name="Camada 1" viewBox="0 0 300 300"><defs><linearGradient id="linear-gradient" x1="120.47" x2="176.26" y1="124.49" y2="124.49" gradientUnits="userSpaceOnUse"><stop offset=".49" stop-color="#ebeff2"/><stop offset="1" stop-color="#fff"/></linearGradient><linearGradient id="linear-gradient-2" x1="138.31" x2="179.5" y1="115.66" y2="115.66" xlink:href="#linear-gradient"/><linearGradient id="linear-gradient-3" x1="117.39" x2="138.23" y1="89.45" y2="89.45" xlink:href="#linear-gradient"/><style>.cls-1{fill:#ccc}.cls-1,.cls-2,.cls-3,.cls-8{stroke-width:0}.cls-2{fill:#ff4a75}.cls-3{fill:#f4f4f4}.cls-8{fill:#af375f}</style></defs><circle cx="140" cy="150" r="140" fill="#008dd3" stroke-width="0"/><path d="M122.49 197.19L143.7 268l78.56 6.59 65.81-49.35-22.48-73.06-74.3 9.59-68.8 35.42z" class="cls-2"/><path d="M193.58 193.98l-71.09 3.21 68.8-35.42 74.3-9.59-72.01 41.8z" class="cls-2"/><path stroke-width="0" d="M130.78 194.97l60.67-31.36 65.32-8.43-63.73 36.98-62.26 2.81zm91.48 79.62l-28.68-80.61 72.01-41.8 22.48 73.06-65.81 49.35z" opacity=".2"/><path stroke-width="0" d="M191.45 163.61l7.99 24.84 57.33-33.27-65.32 8.43z" opacity=".3"/><path fill="#d13f69" stroke-width="0" d="M123.85 197.23l-1.36-.04-16.24 25.54 69.16-1.37 18.17-27.38-69.73 3.25z"/><path fill="#a53459" stroke-width="0" d="M193.58 193.98l29.08 18.72 70.88-46.85-27.95-13.67-72.01 41.8z"/><path d="M191.29 161.77l11.67-17.17 78.53-10.25-15.9 17.83-74.3 9.59z" class="cls-8"/><path fill="#007cff" stroke-width="0" d="M191.29 161.77l-24.82-10.49-71.33 30.75s26.65 15.19 27.34 15.16c1.05-.05 69.25-35.15 68.81-35.42z"/><path d="M191.29 161.77l-24.82-10.49-71.33 30.75s26.65 15.19 27.34 15.16c1.05-.05 69.25-35.15 68.81-35.42z" class="cls-8"/><path fill="#f4f7fa" stroke-width="0" d="M169.35 59.36c-17.1-20.46-48.38-22.5-69.87-4.54-21.49 17.95-25.05 49.1-7.96 69.56 10.38 12.42 25.97 18.05 41.44 16.54 6.56-.64 13.02 1.95 17.25 7l2.37 2.84c5.15 6.16 14.31 6.98 20.47 1.84l9.56-7.99c6.16-5.15 6.98-14.31 1.84-20.47l-2.37-2.84c-4.23-5.06-5.62-11.88-3.82-18.22 4.23-14.95 1.47-31.3-8.91-43.72z" opacity=".75"/><ellipse cx="191.64" cy="165.13" class="cls-1" rx="11.25" ry="5.95" transform="rotate(-39.88 191.617 165.12)"/><path d="M173.35 166.54l3.9 4.67a5.344 5.344 0 005.42 1.76c2.77-.71 6.92-2.42 11.6-6.54 3.8-3.34 5.8-6.09 6.85-8.09 1.02-1.94.73-4.31-.68-5.99l-2.16-2.58-24.93 16.77z" class="cls-3"/><path d="M176.76 170.63c.63.05 1.28 0 1.92-.17 3.1-.8 19.62-10.58 22.03-14.83.31-.55.53-1.12.66-1.7-.21-.57-.52-1.11-.93-1.59l-2.16-2.58-24.93 16.77 3.42 4.09z" class="cls-1"/><path d="M171.72 162.52c-1.4.94-1.68 2.9-.6 4.2l.11.13a6 6 0 006.08 1.98c3.1-.8 19.62-10.58 22.03-14.83 1.21-2.14 1.04-4.57-.54-6.45l-.09-.11a2.86 2.86 0 00-3.78-.54l-23.21 15.62z" class="cls-3"/><path d="M194.93 146.9l-23.21 15.62c-.92.62-1.35 1.66-1.24 2.67 1.27.65 2.76.85 4.2.48 3.1-.8 20.5-10.79 22.25-14.56.68-1.47.82-3.1.38-4.58-.78-.22-1.65-.11-2.37.37z" class="cls-1"/><path d="M164.56 155.65a2.06 2.06 0 00-.26 2.9l3.05 3.66a6 6 0 006.08 1.98c3.1-.8 20.5-10.79 22.25-14.56 1.03-2.23.82-4.83-.76-6.72l-4.89-5.85a2.06 2.06 0 00-2.9-.26l-22.57 18.86z" class="cls-3"/><ellipse cx="176.8" cy="147.36" class="cls-1" rx="16.35" ry="3.87" transform="rotate(-39.88 176.788 147.357)"/><path fill="#ffbe00" stroke-width="0" d="M169.35 59.36c-17.1-20.46-48.38-22.5-69.87-4.54-21.49 17.95-25.05 49.1-7.96 69.56 10.38 12.42 25.97 18.05 41.44 16.54 6.56-.64 13.02 1.95 17.25 7l2.37 2.84c5.15 6.16 14.31 6.98 20.47 1.84l9.56-7.99c6.16-5.15 6.98-14.31 1.84-20.47l-2.37-2.84c-4.23-5.06-5.62-11.88-3.82-18.22 4.23-14.95 1.47-31.3-8.91-43.72z"/><path fill="none" stroke="#fff" stroke-linecap="round" stroke-linejoin="round" stroke-width="9" style="isolation:isolate" d="M98.6 82.25s-15.38 37.2 26.39 48.91m21.74 96.42l3.54 23.32c.61 4 3.9 7.05 7.93 7.35l39.35 2.92" opacity=".24"/><path fill="none" stroke="#ffbe00" stroke-linecap="round" stroke-miterlimit="10" stroke-width="3" d="M107.2 41.45l1.68-18.01M93.12 48.47l-14.8-17.79m5.09 30.66l-18.36-1.62"/><path fill="none" stroke="url(#linear-gradient)" stroke-linecap="round" stroke-miterlimit="10" stroke-width="3" d="M174.76 148.51l-52.79-48.05"/><path fill="none" stroke="url(#linear-gradient-2)" stroke-linecap="round" stroke-miterlimit="10" stroke-width="3" d="M178 145.76l-38.19-60.2"/><path fill="none" stroke="url(#linear-gradient-3)" stroke-linecap="round" stroke-miterlimit="10" stroke-width="3" d="M119.35 96.65l-.46-6.03c-.03-.44.38-.78.81-.66l5.31 1.48c.43.12.85-.23.81-.68l-.43-4.03c-.05-.43.34-.78.77-.69l4.24.89c.4.08.77-.22.77-.63v-3.41c0-.44.44-.75.85-.6l4.72 1.66"/></svg>