<?xml version="1.0" encoding="UTF-8"?>
<svg id="Camada_1" data-name="Camada 1" xmlns="http://www.w3.org/2000/svg" viewBox="0 0 300 300">
  <defs>
    <style>
      .cls-1, .cls-2 {
        font-family: Inter-Bold, Inter;
        font-size: 30.17px;
        font-variation-settings: 'wght' 700, 'slnt' 0;
        font-weight: 700;
      }

      .cls-1, .cls-3 {
        fill: #008e43;
      }

      .cls-4 {
        fill: #ed6e6e;
      }

      .cls-4, .cls-5, .cls-6, .cls-7, .cls-3, .cls-8, .cls-9, .cls-10 {
        stroke-width: 0px;
      }

      .cls-2, .cls-10 {
        fill: #c12929;
      }

      .cls-5 {
        fill: #00bf5f;
      }

      .cls-6 {
        fill: #ef3030;
      }

      .cls-7 {
        fill: #72c472;
      }

      .cls-11 {
        opacity: .24;
      }

      .cls-11, .cls-12, .cls-13 {
        fill: none;
        isolation: isolate;
        stroke: #fff;
        stroke-linecap: round;
        stroke-linejoin: round;
      }

      .cls-11, .cls-13 {
        stroke-width: 9px;
      }

      .cls-8 {
        fill: #008dd3;
      }

      .cls-12 {
        stroke-width: 6px;
      }

      .cls-12, .cls-13 {
        opacity: .17;
      }

      .cls-9 {
        fill: #fff;
      }
    </style>
  </defs>
  <circle class="cls-8" cx="140" cy="150" r="140"/>
  <text class="cls-2" transform="translate(104.68 196.53) rotate(-9.55)"><tspan x="0" y="0">CSS</tspan></text>
  <line class="cls-11" x1="77.51" y1="67.59" x2="87.31" y2="126.41"/>
  <text class="cls-1" transform="translate(192.86 222.52) rotate(6.58)"><tspan x="0" y="0">HTML</tspan></text>
  <path class="cls-10" d="M184.48,186.35l-5.73-34.04h0l-8.45-50.26-64.33-52.31h-.03s-51.37,8.65-51.37,8.65c-10.78,1.81-18.05,12.03-16.24,22.8l21.22,126.17c1.81,10.78,12.02,18.05,22.8,16.24l85.89-14.45c10.78-1.81,18.05-12.02,16.24-22.8Z"/>
  <path class="cls-4" d="M179.92,94.84l14.18,84.3c1.81,10.78-5.45,20.99-16.24,22.8l-85.89,14.45c-10.78,1.81-20.99-5.45-22.8-16.24l-21.22-126.17c-1.81-10.78,5.45-20.99,16.24-22.8l51.41-8.65,64.33,52.31Z"/>
  <path class="cls-6" d="M179.92,94.84l.34,2.03-34.52,5.81c-10.78,1.81-20.99-5.46-22.8-16.24l-7.39-43.9h.03s64.33,52.3,64.33,52.3Z"/>
  <g>
    <path class="cls-9" d="M87.43,147.03l-.69-4.13c2.37-.4,3.93-1.15,4.69-2.25s.96-2.7.61-4.81l-.76-4.54c-.43-2.53-.42-4.62.03-6.27s1.24-2.97,2.38-3.96,2.55-1.77,4.25-2.32,3.58-1,5.65-1.35l1.1,6.53c-1.62.27-2.81.69-3.58,1.25s-1.24,1.3-1.39,2.22-.12,2.05.1,3.37l1.01,6c.18,1.04.15,2.06-.08,3.07s-.8,1.95-1.72,2.85-2.31,1.71-4.17,2.46-4.33,1.37-7.42,1.89ZM88.06,150.79l-1.33-7.89,7.38-1.24,1.33,7.89-7.38,1.24ZM112.33,169.41c-2.07.35-3.99.54-5.78.57-1.78.03-3.37-.24-4.77-.8s-2.58-1.56-3.54-2.96-1.66-3.38-2.08-5.91l-.77-4.56c-.35-2.11-1.07-3.56-2.15-4.35s-2.8-.99-5.17-.59l-.69-4.13c3.08-.52,5.62-.73,7.63-.64s3.58.41,4.75.96,2.01,1.25,2.56,2.13.9,1.84,1.08,2.89l1.01,6c.22,1.32.56,2.38,1,3.2s1.13,1.37,2.04,1.64,2.18.28,3.79,0l1.1,6.55Z"/>
    <path class="cls-9" d="M133.08,112.44c2.08-.35,4.01-.54,5.79-.57s3.36.24,4.76.8,2.58,1.56,3.54,2.96,1.66,3.38,2.08,5.91l.76,4.54c.35,2.11,1.07,3.56,2.16,4.35s2.8.99,5.16.59l.69,4.13c-3.08.52-5.62.73-7.63.64s-3.58-.41-4.75-.96-2.01-1.25-2.56-2.13-.9-1.83-1.07-2.87l-1.01-6c-.22-1.33-.56-2.4-1.01-3.22s-1.13-1.37-2.04-1.64-2.18-.28-3.79,0l-1.1-6.53ZM157.97,134.79l.69,4.13c-2.36.4-3.92,1.14-4.68,2.25s-.97,2.71-.62,4.82l.77,4.56c.43,2.53.42,4.62-.03,6.27s-1.24,2.97-2.38,3.96-2.55,1.77-4.24,2.32-3.57,1-5.66,1.35l-1.1-6.55c1.62-.27,2.81-.69,3.58-1.25s1.24-1.3,1.39-2.22.12-2.04-.1-3.35l-1.01-6c-.18-1.06-.15-2.08.07-3.09s.8-1.95,1.72-2.85,2.31-1.71,4.17-2.46,4.33-1.37,7.42-1.89ZM157.34,131.03l1.33,7.89-7.38,1.24-1.33-7.89,7.38-1.24Z"/>
  </g>
  <path class="cls-3" d="M290.38,155.03l-47.26-68.12h-.03s-51.75-5.98-51.75-5.98c-10.86-1.25-20.68,6.54-21.93,17.39l-14.67,127.1c-1.25,10.86,6.53,20.68,17.39,21.93l86.52,9.99c10.86,1.25,20.68-6.53,21.93-17.39l3.96-34.29h0l5.84-50.63Z"/>
  <path class="cls-7" d="M300,147.81l-9.8,84.92c-1.25,10.86-11.07,18.65-21.93,17.39l-86.52-9.99c-10.86-1.25-18.65-11.07-17.39-21.93l14.67-127.1c1.25-10.86,11.07-18.65,21.93-17.39l51.78,5.98,47.26,68.12Z"/>
  <path class="cls-5" d="M300,147.81l-.24,2.04-34.77-4.01c-10.86-1.25-18.65-11.08-17.39-21.93l5.1-44.23h.03s47.26,68.13,47.26,68.13Z"/>
  <g>
    <path class="cls-9" d="M185.91,176.29l.84-7.29,30.65-9.48-.97,8.39-20.89,5.71.32-.4-.12,1.04-.22-.47,19.04,10.32-.97,8.39-27.68-16.21Z"/>
    <path class="cls-9" d="M245.9,151.71l-19.53,49.21-7.6-.88,19.53-49.21,7.6.88Z"/>
    <path class="cls-9" d="M277.47,186.86l-30.65,9.48.97-8.39,20.89-5.71-.32.4.12-1.04.22.47-19.04-10.32.97-8.39,27.68,16.21-.84,7.29Z"/>
  </g>
  <line class="cls-13" x1="63.44" y1="87.34" x2="73.24" y2="148.28"/>
  <line class="cls-12" x1="196.36" y1="99.8" x2="188.37" y2="145.1"/>
</svg>