<svg xmlns="http://www.w3.org/2000/svg" id="Camada_1" data-name="Camada 1" viewBox="0 0 300 300"><defs><style>.cls-9{stroke-width:0;fill:#fff}</style></defs><circle cx="140" cy="150" r="140" fill="#008dd3" stroke-width="0"/><text style="font-variation-settings:'wght' 700,'slnt' 0" fill="#c12929" font-family="Inter-Bold,Inter" font-size="30.17" font-weight="700" transform="rotate(-9.55 1228.702 -528.314)"><tspan x="0" y="0">CSS</tspan></text><path style="isolation:isolate" fill="none" stroke="#fff" stroke-linecap="round" stroke-linejoin="round" stroke-width="9" d="M77.51 67.59l9.8 58.82" opacity=".24"/><text style="font-variation-settings:'wght' 700,'slnt' 0" fill="#008e43" font-family="Inter-Bold,Inter" font-size="30.17" font-weight="700" transform="rotate(6.58 -1839.047 1788.755)"><tspan x="0" y="0">HTML</tspan></text><path fill="#c12929" stroke-width="0" d="M184.48 186.35l-5.73-34.04-8.45-50.26-64.33-52.31h-.03l-51.37 8.65c-10.78 1.81-18.05 12.03-16.24 22.8l21.22 126.17c1.81 10.78 12.02 18.05 22.8 16.24l85.89-14.45c10.78-1.81 18.05-12.02 16.24-22.8z"/><path fill="#ed6e6e" stroke-width="0" d="M179.92 94.84l14.18 84.3c1.81 10.78-5.45 20.99-16.24 22.8l-85.89 14.45c-10.78 1.81-20.99-5.45-22.8-16.24L47.95 73.98c-1.81-10.78 5.45-20.99 16.24-22.8l51.41-8.65 64.33 52.31z"/><path fill="#ef3030" stroke-width="0" d="M179.92 94.84l.34 2.03-34.52 5.81c-10.78 1.81-20.99-5.46-22.8-16.24l-7.39-43.9h.03l64.33 52.3z"/><path d="M87.43 147.03l-.69-4.13c2.37-.4 3.93-1.15 4.69-2.25s.96-2.7.61-4.81l-.76-4.54c-.43-2.53-.42-4.62.03-6.27s1.24-2.97 2.38-3.96 2.55-1.77 4.25-2.32 3.58-1 5.65-1.35l1.1 6.53c-1.62.27-2.81.69-3.58 1.25s-1.24 1.3-1.39 2.22-.12 2.05.1 3.37l1.01 6c.18 1.04.15 2.06-.08 3.07s-.8 1.95-1.72 2.85-2.31 1.71-4.17 2.46-4.33 1.37-7.42 1.89zm.63 3.76l-1.33-7.89 7.38-1.24 1.33 7.89-7.38 1.24zm24.27 18.62c-2.07.35-3.99.54-5.78.57-1.78.03-3.37-.24-4.77-.8s-2.58-1.56-3.54-2.96-1.66-3.38-2.08-5.91l-.77-4.56c-.35-2.11-1.07-3.56-2.15-4.35s-2.8-.99-5.17-.59l-.69-4.13c3.08-.52 5.62-.73 7.63-.64s3.58.41 4.75.96 2.01 1.25 2.56 2.13.9 1.84 1.08 2.89l1.01 6c.22 1.32.56 2.38 1 3.2s1.13 1.37 2.04 1.64 2.18.28 3.79 0l1.1 6.55zm20.75-56.97c2.08-.35 4.01-.54 5.79-.57s3.36.24 4.76.8 2.58 1.56 3.54 2.96 1.66 3.38 2.08 5.91l.76 4.54c.35 2.11 1.07 3.56 2.16 4.35s2.8.99 5.16.59l.69 4.13c-3.08.52-5.62.73-7.63.64s-3.58-.41-4.75-.96-2.01-1.25-2.56-2.13-.9-1.83-1.07-2.87l-1.01-6c-.22-1.33-.56-2.4-1.01-3.22s-1.13-1.37-2.04-1.64-2.18-.28-3.79 0l-1.1-6.53zm24.89 22.35l.69 4.13c-2.36.4-3.92 1.14-4.68 2.25s-.97 2.71-.62 4.82l.77 4.56c.43 2.53.42 4.62-.03 6.27s-1.24 2.97-2.38 3.96-2.55 1.77-4.24 2.32-3.57 1-5.66 1.35l-1.1-6.55c1.62-.27 2.81-.69 3.58-1.25s1.24-1.3 1.39-2.22.12-2.04-.1-3.35l-1.01-6c-.18-1.06-.15-2.08.07-3.09s.8-1.95 1.72-2.85 2.31-1.71 4.17-2.46 4.33-1.37 7.42-1.89zm-.63-3.76l1.33 7.89-7.38 1.24-1.33-7.89 7.38-1.24z" class="cls-9"/><path fill="#008e43" stroke-width="0" d="M290.38 155.03l-47.26-68.12h-.03l-51.75-5.98c-10.86-1.25-20.68 6.54-21.93 17.39l-14.67 127.1c-1.25 10.86 6.53 20.68 17.39 21.93l86.52 9.99c10.86 1.25 20.68-6.53 21.93-17.39l3.96-34.29 5.84-50.63z"/><path fill="#72c472" stroke-width="0" d="M300 147.81l-9.8 84.92c-1.25 10.86-11.07 18.65-21.93 17.39l-86.52-9.99c-10.86-1.25-18.65-11.07-17.39-21.93l14.67-127.1c1.25-10.86 11.07-18.65 21.93-17.39l51.78 5.98L300 147.81z"/><path fill="#00bf5f" stroke-width="0" d="M300 147.81l-.24 2.04-34.77-4.01c-10.86-1.25-18.65-11.08-17.39-21.93l5.1-44.23h.03l47.26 68.13z"/><path d="M185.91 176.29l.84-7.29 30.65-9.48-.97 8.39-20.89 5.71.32-.4-.12 1.04-.22-.47 19.04 10.32-.97 8.39-27.68-16.21zm59.99-24.58l-19.53 49.21-7.6-.88 19.53-49.21 7.6.88zm31.57 35.15l-30.65 9.48.97-8.39 20.89-5.71-.32.4.12-1.04.22.47-19.04-10.32.97-8.39 27.68 16.21-.84 7.29z" class="cls-9"/><path style="isolation:isolate" fill="none" stroke="#fff" stroke-linecap="round" stroke-linejoin="round" stroke-width="9" d="M63.44 87.34l9.8 60.94" opacity=".17"/><path style="isolation:isolate" fill="none" stroke="#fff" stroke-linecap="round" stroke-linejoin="round" stroke-width="6" d="M196.36 99.8l-7.99 45.3" opacity=".17"/></svg>