<svg xmlns="http://www.w3.org/2000/svg" id="Camada_1" data-name="Camada 1" viewBox="0 0 300 300"><defs><style>.cls-4{stroke-width:0;fill:#bf8c9a}</style></defs><circle cx="140" cy="150" r="140" fill="#008dd3" stroke-width="0"/><path d="M252.05 65.62H59.97c-5.83 0-10.55 4.72-10.55 10.55v141.59c0 5.83 4.72 10.55 10.55 10.55h192.09c5.83 0 10.55-4.72 10.55-10.55V76.18c0-5.83-4.72-10.55-10.55-10.55z" class="cls-4"/><path d="M276 215.27l-18.31 11.42-10.38-6.64 6.91-8.23h16.12l5.66 3.45zM72.22 56.47L54.49 67.15l.05 12.76 18.42 12.17 8.88-20.44-9.62-15.17z" class="cls-4"/><rect width="213.19" height="162.7" x="68.98" y="53.52" fill="#f9b4c4" stroke-width="0" rx="10.55" ry="10.55"/><rect width="196.55" height="127" x="78.71" y="82.54" fill="#ff4a75" stroke-width="0" rx="15.4" ry="15.4"/><path fill="#ffdcdf" stroke-width="0" d="M282.17 64.07v12.34H68.98V64.07c0-5.83 4.72-10.55 10.55-10.55h192.09c5.83 0 10.55 4.72 10.55 10.55z"/><circle cx="84.14" cy="66.21" r="5.43" fill="#54c654" stroke-width="0"/><circle cx="99.93" cy="66.21" r="5.43" fill="#efb000" stroke-width="0"/><circle cx="115.72" cy="66.21" r="5.43" fill="#ef3030" stroke-width="0"/><path fill="#fff" stroke-width="0" d="M166.53 190.97l1.95-30.19-25.28 16.93-10.45-18.41 27.23-13.26-27.23-13.26 10.45-18.41 25.28 16.93-1.95-30.19h20.99l-2.03 30.19 25.28-16.93 10.45 18.41-27.15 13.26 27.15 13.26-10.45 18.41-25.28-16.93 2.03 30.19h-20.99z"/><path style="isolation:isolate" fill="none" stroke="#fff" stroke-linecap="round" stroke-linejoin="round" stroke-width="9" d="M239.69 93.71h18.93c6.11 0 11.06 4.95 11.06 11.06v30.3" opacity=".24"/></svg>