<?xml version="1.0" encoding="utf-8"?>
<!-- Generator: Adobe Illustrator 22.0.1, SVG Export Plug-In . SVG Version: 6.00 Build 0)  -->
<svg version="1.1" id="Layer_1" xmlns="http://www.w3.org/2000/svg" xmlns:xlink="http://www.w3.org/1999/xlink" x="0px" y="0px"
	 viewBox="0 0 50 50" style="enable-background:new 0 0 50 50;" xml:space="preserve">
<style type="text/css">
	.st0{fill:#ACBFC0;}
	.st1{fill:#C0D5D7;}
	.st2{fill:#444444;}
</style>
<g>
	<g>
		<polygon class="st0" points="47.2,25.9 47.5,30 2.8,46.3 2.9,37.6 3.3,32.7 47.9,16.5 47.2,20 		"/>
	</g>
	<g>
		<polygon class="st1" points="47.4,10 46.8,17.4 3,33.3 3.1,24 3.4,19.7 47.5,3.7 		"/>
	</g>
	<g>
		<path class="st2" d="M47.4,48.5H31.8c-0.7,0-1.2-0.6-1.2-1.2s0.6-1.2,1.2-1.2h14.3V4H3.7v42h3c0.6,0,1.2,0.6,1.2,1.3
			s-0.6,1.2-1.2,1.2H2.5c-0.7,0-1.2-0.6-1.2-1.2V2.7c0-0.7,0.6-1.2,1.2-1.2h44.9c0.7,0,1.2,0.6,1.2,1.2v44.6
			C48.7,48,48,48.5,47.4,48.5z"/>
	</g>
	<g>
		<g>
			<path class="st2" d="M40,38.5c0,0.4-0.3,0.8-0.8,0.8H38v0.6c0,0.4-0.3,0.8-0.8,0.8c-0.4,0-0.8-0.3-0.8-0.8v-0.6H23.1v0.6
				c0,0.4-0.3,0.8-0.8,0.8c-0.4,0-0.8-0.3-0.8-0.8v-0.6H11.1c-0.4,0-0.8-0.3-0.8-0.8V28H9.8c-0.4,0-0.8-0.4-0.8-0.8s0.3-0.8,0.8-0.8
				h0.6v-11H9.8c-0.4,0-0.8-0.3-0.8-0.8c0-0.3,0.4-0.6,0.8-0.6h0.6v-2.8c0-0.4,0.3-0.8,0.8-0.8c0.4,0,0.8,0.3,0.8,0.8V14h0.8
				c0.4,0,0.8,0.3,0.8,0.8c0,0.4-0.3,0.8-0.8,0.8H12v11h0.8c0.4,0,0.8,0.3,0.8,0.8c0,0.4-0.3,0.8-0.8,0.8H12v9.7h9.8v-1
				c0-0.4,0.3-0.8,0.8-0.8c0.4,0,0.8,0.3,0.8,0.8v1h13.3v-1c0-0.4,0.3-0.8,0.8-0.8c0.4,0,0.8,0.3,0.8,0.8v1h1.3
				C39.8,37.7,40,38,40,38.5z"/>
		</g>
		<g>
			<path class="st2" d="M21.6,32.8c0-0.4,0.3-0.8,0.8-0.8l0,0c0.4,0,0.7,0.3,0.7,0.8l0,0c0,0.4-0.3,0.8-0.7,0.8l0,0
				C21.9,33.5,21.6,33.2,21.6,32.8z M21.6,29.8c0-0.4,0.3-0.8,0.8-0.8l0,0c0.4,0,0.7,0.3,0.7,0.8l0,0c0,0.4-0.3,0.8-0.7,0.8l0,0
				C21.9,30.5,21.6,30.2,21.6,29.8z M18.1,27.3c0-0.4,0.3-0.8,0.8-0.8l0,0c0.4,0,0.7,0.3,0.7,0.8l0,0c0,0.4-0.3,0.8-0.7,0.8l0,0
				C18.4,28.1,18.1,27.7,18.1,27.3z M15.1,27.3c0-0.4,0.3-0.8,0.7-0.8l0,0c0.4,0,0.8,0.3,0.8,0.8l0,0c0,0.4-0.3,0.8-0.8,0.8l0,0
				C15.4,28.1,15.1,27.7,15.1,27.3z"/>
		</g>
		<g>
			<path class="st2" d="M36.5,31.9c0-0.4,0.3-0.8,0.8-0.8l0,0c0.4,0,0.8,0.3,0.8,0.8l0,0c0,0.4-0.3,0.8-0.8,0.8l0,0
				C37,32.6,36.5,32.3,36.5,31.9z M36.5,28.9c0-0.4,0.3-0.8,0.8-0.8l0,0c0.4,0,0.8,0.3,0.8,0.8l0,0c0,0.4-0.3,0.8-0.8,0.8l0,0
				C37,29.6,36.5,29.3,36.5,28.9z M36.5,25.9c0-0.4,0.3-0.8,0.8-0.8l0,0c0.4,0,0.8,0.3,0.8,0.8l0,0c0,0.4-0.3,0.8-0.8,0.8l0,0
				C37,26.6,36.5,26.3,36.5,25.9z M36.5,22.9c0-0.4,0.3-0.8,0.8-0.8l0,0c0.4,0,0.8,0.3,0.8,0.8l0,0c0,0.4-0.3,0.8-0.8,0.8l0,0
				C37,23.6,36.5,23.3,36.5,22.9z M29.6,14.8c0-0.4,0.3-0.8,0.8-0.8l0,0c0.4,0,0.8,0.3,0.8,0.8l0,0c0,0.4-0.3,0.8-0.8,0.8l0,0
				C29.9,15.6,29.6,15.2,29.6,14.8z M26.6,14.8c0-0.4,0.3-0.8,0.8-0.8l0,0c0.4,0,0.8,0.3,0.8,0.8l0,0c0,0.4-0.3,0.8-0.8,0.8l0,0
				C26.9,15.6,26.6,15.2,26.6,14.8z M23.6,14.8c0-0.4,0.3-0.8,0.8-0.8l0,0c0.4,0,0.8,0.3,0.8,0.8l0,0c0,0.4-0.3,0.8-0.8,0.8l0,0
				C23.9,15.6,23.6,15.2,23.6,14.8z M20.6,14.8c0-0.4,0.3-0.8,0.8-0.8l0,0c0.4,0,0.8,0.3,0.8,0.8l0,0c0,0.4-0.3,0.8-0.8,0.8l0,0
				C20.9,15.6,20.6,15.2,20.6,14.8z M17.6,14.8c0-0.4,0.3-0.8,0.8-0.8l0,0c0.4,0,0.8,0.3,0.8,0.8l0,0c0,0.4-0.3,0.8-0.8,0.8l0,0
				C17.9,15.6,17.6,15.2,17.6,14.8z M14.6,14.8c0-0.4,0.3-0.8,0.8-0.8l0,0c0.4,0,0.8,0.3,0.8,0.8l0,0c0,0.4-0.3,0.8-0.8,0.8l0,0
				C14.9,15.6,14.6,15.2,14.6,14.8z"/>
		</g>
		<g>
			<path class="st2" d="M38.2,17.8c0,0.4-0.3,0.8-0.7,0.8l0,0c-0.4,0-0.8-0.3-0.8-0.8v-1.1L22.3,27.9c-0.1,0.1-0.3,0.2-0.5,0.2
				s-0.4-0.1-0.6-0.3c-0.3-0.3-0.2-0.8,0.1-1l14.4-11.1h-1.2c-0.4,0-0.8-0.3-0.8-0.7s0.3-0.8,0.7-0.8h3c0.4,0,0.8,0.3,0.8,0.7V17.8z
				"/>
		</g>
	</g>
</g>
</svg>
