<?xml version="1.0" encoding="UTF-8"?>
<svg xmlns="http://www.w3.org/2000/svg" version="1.1" viewBox="0 0 300 300">
  <defs>
    <style>
      .cls-1 {
        fill: #fff;
      }

      .cls-2 {
        fill: none;
        stroke: #a54fc9;
        stroke-miterlimit: 10;
        stroke-width: 2px;
      }

      .cls-3 {
        fill: #5b5b5b;
      }

      .cls-4 {
        fill: #7a2a9b;
      }

      .cls-5 {
        fill: #005cff;
      }

      .cls-6 {
        fill: #ef3030;
      }

      .cls-7 {
        fill: #008dd3;
      }

      .cls-8 {
        fill: #a54fc9;
      }

      .cls-9 {
        isolation: isolate;
        opacity: .2;
      }

      .cls-10 {
        fill: #ccc;
      }

      .cls-11 {
        fill: #979a9b;
      }

      .cls-12 {
        fill: #ed9751;
      }

      .cls-13 {
        fill: #57e250;
      }

      .cls-14 {
        fill: #ffda00;
        fill-rule: evenodd;
      }
    </style>
  </defs>
  <!-- Generator: Adobe Illustrator 28.7.1, SVG Export Plug-In . SVG Version: 1.2.0 Build 142)  -->
  <g>
    <g id="Camada_1">
      <path class="cls-7" d="M292.8,150.5c.1,20.7-4.3,40.4-12.1,58.2-22,49.7-71.6,84.3-129.5,84.5-15.4.1-30.2-2.4-44.1-6.8-26.1-8.3-48.9-24-65.9-44.7-17.7-21.4-29.4-48-32.1-77.3-.4-4.2-.6-8.5-.6-12.8-.2-48.2,23.7-91,60.4-116.8,4.8-3.4,9.8-6.5,15-9.2,7.3-3.9,15-7.2,23-9.8,7.5-2.4,15.4-4.2,23.4-5.4,6.5-.9,13-1.4,19.7-1.5,26.2,0,50.6,6.9,71.8,19.1,3.8,2.2,7.4,4.5,11,7.1,16.9,12,31.1,27.6,41.4,45.8,1.2,2.1,2.3,4.1,3.3,6.3.9,1.9,1.8,3.6,2.6,5.5,2.7,6.1,5,12.2,6.9,18.6,2.1,7.2,3.6,14.5,4.5,21.9h0c.9,5.8,1.3,11.5,1.3,17.3Z"/>
      <g>
        <g id="Camada_1-2" data-name="Camada_1">
          <g>
            <path class="cls-3" d="M209.5,219.1h0c0,0,0,0,0,0,0,0,0,0,0,0Z"/>
            <path class="cls-3" d="M233,44.3c-1.3-1.2-3.3-1-4.5.3l-5.5,5.7c-.6.6-.9,1.5-1,2.3,0-.9.4-1.7,1-2.4l5.5-5.7c1.2-1.3,3.2-1.4,4.5-.3,0,0,0,0,0,.1h0Z"/>
            <path class="cls-3" d="M275.9,118h0s.1,0,.1,0h0Z"/>
            <path class="cls-3" d="M237.6,190.6h.1c0,0,.2,0,.2-.1-.1,0-.2,0-.4.1ZM237.6,190.6h.1c0,0,.2,0,.2-.1-.1,0-.2,0-.4.1ZM237.6,190.6h.1c0,0,.2,0,.2-.1-.1,0-.2,0-.4.1Z"/>
            <path class="cls-3" d="M227.1,241.3l-16.1,16.5-1,1.1c-4.4,4.5-11.4,4.5-15.8,0l-9.6-9.9h0s-2.3-2.5-2.3-2.5c0,0,0,0,0,0l-7.1-7.3h.6s-.6,0-.6,0l-8.2-8.4c-1.9,1.5-4.4,2-6.7,1.5l-17.4,56.4-35.1-35-72.7,41.5,41.6-72.7-35.1-35,56.7-17.5c-1.9-2.9-1.8-6.8.4-9.6l-14-14.4-.4-.2-3.4-3.7-9.6-9.9c-2.1-2.2-3.3-4.9-3.3-7.7h0c0-3.2,1-6.2,3.3-8.5-.1.5-.1,1.1.2,1.6h0c-.2-.5-.3-1.2-.2-1.7l1-1.1s0,0,0,0l16.1-16.5c0,.5,0,1.1.2,1.6h0c-.2-.4-.3-1.1-.2-1.6l1-1.1s0,0,0,0c4.2-4.3,9.7-7,15.5-7.8l9.1-1.2,5.3-.7h0s14.5-1.9,14.5-1.9h0s0,0,0,0c0,0,0,0,0,0h0c0,0,3.6-.4,3.6-.4h0s8.6-1.1,8.6-1.1l5.6-.7,24.4-3.2,28.6-29.4c.9-.9,2-1.9,3.1-2.8h0c6.6-5.4,17.2-11.2,27.8-14.6l.2.2c18.2-5.9,38.8-6.8,49.9,4.7,11.2,11.4,10.3,32.6,4.6,51.4h0c-3.4,11.1-9.2,21.4-14.6,28.3h0c-1,1.2-1.9,2.2-2.8,3.2l-28.3,29.1-3.1,25.6h0c0,.1-.7,5.9-.7,5.9l-3.5,27.4h0c0,0-.7,5.6-.7,5.6,0,0,0,0,0,0h0c0,0-1.2,9.5-1.2,9.5-.7,6.1-3.4,11.7-7.6,16"/>
            <path class="cls-3" d="M185,249.1s0,0,0,0h0c0,0,0,0,0,0Z"/>
          </g>
        </g>
        <g>
          <polygon class="cls-12" points="170.8 198.7 146.2 184.4 131.8 159.8 41.8 187.5 76.9 222.5 35.3 295.2 108 253.7 143.1 288.7 170.8 198.7"/>
          <polygon class="cls-6" points="152.7 206.2 133.3 197.2 124.3 177.9 72.3 192.1 100.2 213.8 75.4 255.1 116.8 230.3 138.5 258.2 152.7 206.2"/>
          <g>
            <g>
              <g>
                <path class="cls-4" d="M136.6,206.6l-31.2-32.2-3.8,3.9c-3.7,3.8-5,9-4.1,13.9,5-2.4,16.5-3.4,39.2,14.4h-.1Z"/>
                <path class="cls-8" d="M136.6,206.6c-22.6-17.8-34.2-16.8-39.2-14.4.5,2.9,1.9,5.7,4.1,8l27,27.8c5.9,6,15.4,6,21.2,0l3.8-3.9-17-17.5h.1Z"/>
              </g>
              <g>
                <g>
                  <g>
                    <path class="cls-11" d="M227.8,238.6c-.9-1.1-8.2-8.9-15.7-16.9,5.7-5.7,11.4-11.3,16.2-16.1,3.2,3.3,6.3,6.5,8.9,9.2l-1.2,9.4c-.7,6.1-3.4,11.7-7.6,16h0c0-.4-.1-1-.6-1.6h0Z"/>
                    <path class="cls-11" d="M238,190.6c-.5.3-4.1,3.9-9.3,9-7.6-7.9-14.8-15.4-15.7-16-.3-.2-.7-.3-1-.4l16.1-16.6c0,.5.2,1,.5,1.5.6.8,6.1,6.8,12.6,13.6l-1.1,8.9c-.6-.4-1.4-.4-2.2,0h0Z"/>
                    <path class="cls-11" d="M239.7,194.2l-1.9,15.1c-2-2.1-4.2-4.5-6.5-6.8l8.3-8.3h0Z"/>
                    <path class="cls-11" d="M231.1,164.9c-.3-.2-.7-.3-1-.4l15.2-15.6-3.3,27c-5.6-5.8-10.1-10.4-10.9-11Z"/>
                    <path class="cls-11" d="M191.5,206.2c.5.6,7.6,7.9,15.3,15.7-5.2,5.3-10.2,10.4-14.4,14.6-7-7.4-13.6-14.3-14.9-15.4-.6-.5-1.1-.7-1.6-.7l15.2-15.7c0,.5,0,1.1.4,1.4h0Z"/>
                    <path class="cls-11" d="M210.5,186.7c.6,1,7.6,8.3,15,16.1-4.8,4.8-10.4,10.5-16,16.2-7.1-7.5-13.7-14.4-15-15.5-.6-.5-1.1-.7-1.6-.7l17.1-17.6c0,.5.2,1,.5,1.5Z"/>
                    <path class="cls-13" d="M209.5,219c-.9,1-1.9,1.9-2.8,2.9-7.6-7.8-14.7-15.1-15.3-15.7-.3-.3-.4-.9-.4-1.4l1.9-1.9c.5,0,1,.2,1.6.7,1.2,1,7.9,8,15,15.5h0Z"/>
                    <path class="cls-13" d="M225.8,241.1c-.7-.4-8.5-8.4-16.6-16.6l2.8-2.8c7.5,8,14.8,15.8,15.7,16.9.5.6.7,1.2.6,1.6l-1,1.1c-.5.1-1.1,0-1.6-.2h.1Z"/>
                    <path class="cls-13" d="M192.3,236.5c-1,1-1.9,2-2.8,2.9-7.6-7.8-14.6-15-15.2-15.6-.3-.3-.4-.9-.4-1.4l1.9-1.9c.5,0,1,.2,1.6.7,1.2,1,7.9,7.9,14.9,15.4h0Z"/>
                    <path class="cls-13" d="M208.7,258.7c-.7-.4-8.7-8.6-16.8-16.9l2.8-2.8c7.6,8.1,15.1,16.1,16,17.2.5.6.7,1.2.6,1.6l-1,1.1c-.5.1-1.1,0-1.6-.2Z"/>
                    <path class="cls-13" d="M228.7,199.6l-3.2,3.2c-7.4-7.8-14.4-15.2-15-16.1-.3-.5-.5-1-.5-1.5l2-2c.3,0,.6.2,1,.4,1,.7,8.2,8.1,15.7,16h0Z"/>
                    <path class="cls-13" d="M228.3,205.6c1.1-1.1,2.2-2.2,3.2-3.1,2.2,2.4,4.4,4.7,6.5,6.8l-.7,5.5c-2.7-2.7-5.8-5.9-8.9-9.2h-.1Z"/>
                    <path class="cls-13" d="M228.2,166.6l2-2c.3,0,.6.2,1,.4.8.5,5.3,5.2,10.9,11l-.7,5.8c-6.5-6.8-12.1-12.8-12.6-13.6-.3-.5-.5-1-.5-1.5h0Z"/>
                    <path class="cls-13" d="M191.9,241.8c-3.6,3.6-6.1,6.2-7,7.2l-2.4-2.5c1.1-1.2,3.7-3.7,7-7.2l2.4,2.4h0Z"/>
                    <path class="cls-13" d="M228.7,199.6c5.1-5.2,8.8-8.7,9.3-9,.8-.5,1.6-.4,2.2,0l-.4,3.7-8.3,8.3c-.9-.9-1.8-1.9-2.7-2.8v-.2Z"/>
                    <path class="cls-13" d="M212.1,221.7c-.8-.9-1.7-1.8-2.5-2.7,5.6-5.7,11.3-11.4,16-16.2.9.9,1.8,1.9,2.7,2.8-4.8,4.8-10.5,10.4-16.2,16.1h0Z"/>
                    <path class="cls-13" d="M194.7,239c-.8-.8-1.6-1.7-2.4-2.5,4.2-4.2,9.2-9.4,14.4-14.6.8.9,1.7,1.7,2.5,2.6-5.3,5.2-10.4,10.3-14.6,14.5h.1Z"/>
                    <path class="cls-13" d="M209.3,224.5c-.9-.9-1.7-1.7-2.5-2.6.9-1,1.9-1.9,2.8-2.9.8.9,1.7,1.8,2.5,2.7l-2.8,2.8Z"/>
                    <path class="cls-13" d="M191.9,241.8l-2.4-2.4c.9-.9,1.8-1.9,2.8-2.9.8.8,1.6,1.7,2.4,2.5l-2.8,2.8h0Z"/>
                    <path class="cls-13" d="M231.4,202.5c-1,1-2.1,2-3.2,3.1-.9-.9-1.8-1.9-2.7-2.8l3.2-3.2c.9.9,1.8,1.9,2.7,2.8h0Z"/>
                  </g>
                  <g>
                    <path class="cls-11" d="M199.8,244.4c5.6,6,10.2,11,10.9,11.8.5.6.7,1.2.6,1.6l16.1-16.5c-.5.1-1.1,0-1.6-.2l-.6-.6c-8.8,3.3-17.5,4.3-25.4,3.9h0Z"/>
                    <path class="cls-11" d="M194.7,239c1.7,1.8,3.4,3.6,5.1,5.4,7.9.4,16.6-.5,25.4-3.9-2.1-2-9-8.9-15.9-16-5.3,5.2-10.4,10.3-14.6,14.5Z"/>
                    <path class="cls-11" d="M184.9,249l9.6,9.9c4.4,4.5,11.4,4.5,15.8,0h0c-.5.1-1.1,0-1.6-.2-.6-.4-7.4-7.3-14.8-14.8-1.2-.2-2.4-.3-3.5-.5-2.8,2.8-4.7,4.8-5.5,5.7h0Z"/>
                    <path class="cls-11" d="M190.4,243.4c1.1.2,2.3.4,3.5.5-.7-.7-1.3-1.4-2-2.1l-1.5,1.5h0Z"/>
                    <path class="cls-11" d="M174.4,223.8c-.3-.3-.4-.9-.4-1.4l-7.5,7.7,8.9,9.1c3,1.1,6.7,2.3,11,3.3.9-.9,2-2,3.1-3.2-7.6-7.8-14.6-15-15.2-15.6h0Z"/>
                    <path class="cls-11" d="M182.5,246.6c.8-.8,2.1-2.2,3.9-4-4.3-1-8-2.2-11-3.3l7.1,7.3Z"/>
                  </g>
                  <g>
                    <path class="cls-11" d="M107.7,114.1c5.5-5.9,11-11.7,15.6-16.7-3.2-3.3-6.3-6.5-8.9-9.2l-9.1,1.2c-5.9.8-11.4,3.5-15.6,7.9.4,0,.9,0,1.5.7,1.1.9,8.7,8.4,16.4,16.2h0Z"/>
                    <path class="cls-11" d="M90.8,132c4.1-4.3,9-9.6,14.1-15-8-8.3-15.7-16.4-16.1-17.1-.3-.5-.3-1.1-.2-1.6l-16.1,16.5c.4,0,.9,0,1.5.7,1.1.9,8.9,8.6,16.7,16.5h0Z"/>
                    <path class="cls-11" d="M145,114.1l.3-.3s-.2.2-.3.2h0Z"/>
                    <path class="cls-11" d="M146.5,84l-8.6,1.1c.4.6.4,1.4,0,2.3-.3.5-3.7,4.2-8.7,9.5,7.7,7.8,14.9,15.2,15.6,16.2.2.3.3.6.4.9,0,0,.2-.2.3-.2l15.9-16.3c-.5,0-1-.2-1.4-.5-.8-.6-6.6-6.3-13.2-13h-.3Z"/>
                    <path class="cls-11" d="M134.3,85.6l-14.6,1.9,6.6,6.6c3.9-4.1,6.8-7.2,8-8.6h0Z"/>
                    <path class="cls-11" d="M152.1,83.3c5.6,5.7,10.1,10.4,10.6,11.2.2.3.3.7.4,1l15.2-15.6-26.2,3.4Z"/>
                    <path class="cls-11" d="M71.7,117.6c-.3-.5-.3-1.1-.2-1.6-2.3,2.3-3.3,5.4-3.3,8.5,4.6,3.1,10.5,6.2,17.5,8-7.2-7.5-13.6-14.2-14-14.9Z"/>
                    <path class="cls-3" d="M88.1,134.9c-.8-.8-1.6-1.6-2.4-2.5-7-1.8-12.9-4.9-17.5-8,0,2.8,1.2,5.6,3.3,7.8l9.6,9.9c1-.9,3.5-3.5,7-7.2Z"/>
                    <path class="cls-3" d="M105.6,153c-.6-.6-7.6-7.8-15.1-15.6-3.3,3.5-5.8,6.1-7,7.2l16,16.5,7.5-7.7c-.5,0-1,0-1.4-.4Z"/>
                    <path class="cls-11" d="M107.5,119.6c-4.9,5.1-9.6,10-13.6,14.2,7.1.6,15.2-.2,24-3.4-2.8-2.9-6.5-6.8-10.4-10.7h0Z"/>
                    <path class="cls-3" d="M122.7,135.3c-.3-.3-2.1-2.2-4.8-5-8.8,3.2-16.9,4.1-24,3.4-.2.2-.4.4-.6.6,7.2,7.2,13.9,14.1,14.9,15.3.5.6.7,1.2.7,1.6l15.2-15.7c-.5,0-1,0-1.4-.4v.2Z"/>
                    <path class="cls-3" d="M122.1,128.7c1.7,1.7,2.8,3,3.2,3.4.5.6.7,1.2.7,1.6l17.1-17.6h-.5c-7.2,5.7-14,9.8-20.5,12.6Z"/>
                    <path class="cls-11" d="M126,100.2c-4.6,4.9-10.2,10.7-15.7,16.5,4.6,4.6,8.9,9,11.8,12,6.4-2.8,13.3-6.9,20.5-12.6-.3,0-.6-.2-.9-.4-.9-.6-8.1-7.8-15.6-15.5h0Z"/>
                    <path class="cls-13" d="M110.3,116.7c-.9,1-1.9,1.9-2.8,2.9,3.9,4,7.6,7.8,10.4,10.7,1.4-.5,2.8-1.1,4.2-1.7-2.9-3-7.2-7.4-11.8-12h0Z"/>
                    <path class="cls-13" d="M122.1,128.7c-1.4.6-2.8,1.2-4.2,1.7,2.7,2.8,4.6,4.7,4.8,5,.3.3.8.4,1.4.4l1.9-1.9c0-.5-.2-1-.7-1.6-.4-.5-1.5-1.7-3.2-3.4v-.2Z"/>
                    <path class="cls-13" d="M88.8,99.9c.4.7,8.1,8.8,16.1,17.1.9-1,1.8-1.9,2.7-2.9-7.8-7.8-15.4-15.3-16.4-16.2-.6-.5-1.1-.7-1.5-.7l-1,1.1c0,.5,0,1.2.2,1.6h0Z"/>
                    <path class="cls-13" d="M93.3,134.4c-1,1-1.9,2-2.8,2.9,7.5,7.8,14.6,15.1,15.1,15.6s.8.4,1.4.4l1.9-1.9c0-.5-.2-1-.7-1.6-1-1.3-7.7-8.1-14.9-15.3h0Z"/>
                    <path class="cls-13" d="M85.8,132.4c.8.8,1.6,1.6,2.4,2.5.5-.5,1-1.1,1.5-1.6-1.3-.2-2.6-.5-3.9-.8h0Z"/>
                    <path class="cls-13" d="M71.7,117.6c.4.6,6.8,7.4,14,14.9,1.3.3,2.6.6,3.9.8.4-.4.8-.8,1.2-1.3-7.9-7.9-15.6-15.5-16.7-16.5-.6-.5-1.1-.7-1.5-.7l-1,1.1c0,.5,0,1.2.2,1.6h0Z"/>
                    <path class="cls-13" d="M141.6,115.7c.3.2.6.3.9.4.8-.6,1.6-1.3,2.5-2,0-.3-.2-.6-.4-.9-.6-1-7.9-8.4-15.6-16.2-1,1-2,2.1-3.1,3.3,7.5,7.7,14.7,14.8,15.6,15.5h.1Z"/>
                    <path class="cls-13" d="M142.5,116.1h.5l2-2h0c-.8.7-1.6,1.4-2.5,2Z"/>
                    <path class="cls-13" d="M123.3,97.4c1.1-1.1,2.1-2.2,3.1-3.3-2.3-2.3-4.5-4.6-6.6-6.6l-5.4.7c2.6,2.7,5.7,6,8.9,9.2Z"/>
                    <path class="cls-13" d="M152.1,83.3l-5.6.7c6.6,6.7,12.4,12.4,13.2,13,.5.3,1,.5,1.4.5l2-2c0-.3-.2-.6-.4-1-.5-.8-5-5.5-10.6-11.2h0Z"/>
                    <path class="cls-13" d="M88.1,134.9c-3.5,3.7-6,6.3-7,7.2l2.4,2.5c1.1-1.2,3.6-3.8,7-7.2-.8-.8-1.6-1.6-2.4-2.5Z"/>
                    <path class="cls-13" d="M129.1,96.9c5-5.3,8.4-9,8.7-9.5.5-.8.4-1.7,0-2.3l-3.6.5c-1.3,1.3-4.2,4.4-8,8.6.9.9,1.8,1.9,2.8,2.8h.1Z"/>
                    <path class="cls-13" d="M126,100.2c-.9-.9-1.8-1.9-2.7-2.8-4.6,4.9-10.1,10.8-15.6,16.7l2.6,2.6c5.5-5.8,11.1-11.6,15.7-16.5Z"/>
                    <path class="cls-13" d="M104.9,117c-5.1,5.4-10,10.7-14.1,15,.6.6,1.1,1.1,1.7,1.7.4,0,.9.1,1.4.1,4-4.2,8.7-9.1,13.6-14.2-.8-.9-1.7-1.7-2.5-2.6h0Z"/>
                    <path class="cls-13" d="M93.3,134.4c.2-.2.4-.4.6-.6-.5,0-.9,0-1.4-.1l.8.8h0Z"/>
                    <path class="cls-13" d="M110.3,116.7l-2.6-2.6c-.9,1-1.8,1.9-2.7,2.9.8.9,1.7,1.8,2.5,2.6.9-1,1.9-1.9,2.8-2.9Z"/>
                    <path class="cls-13" d="M89.6,133.3c-.5.6-1,1.1-1.5,1.6.8.8,1.6,1.6,2.4,2.5.9-.9,1.8-1.9,2.8-2.9l-.8-.8c-1-.1-1.9-.2-2.9-.4h0Z"/>
                    <path class="cls-13" d="M90.8,132c-.4.4-.8.9-1.2,1.3.9.2,1.9.3,2.9.4-.6-.6-1.1-1.1-1.7-1.7Z"/>
                    <path class="cls-13" d="M123.3,97.4c.9.9,1.8,1.9,2.7,2.8,1.1-1.1,2.1-2.2,3.1-3.3-.9-.9-1.8-1.9-2.8-2.8-1,1-2,2.1-3.1,3.3h0Z"/>
                  </g>
                </g>
                <path class="cls-5" d="M107.8,138c5.9-6.1,5.9-16,0-22.1s-15.5-6.1-21.5,0c-5.9,6.1-5.9,16,0,22.1s15.5,6.1,21.5,0Z"/>
              </g>
              <g>
                <path class="cls-11" d="M248.3,54.7l-1.6,1.7c-2.2,2.3-2.2,6,0,8.3l15.2,15.6c2.2,2.3,5.8,2.3,8,0l.7-.7.8-.8c2.2-2.3,5.8-2.3,8,0l10.9,11.1c5.8-18.9,6.7-40.2-4.5-51.7h0c-11.2-11.5-31.9-10.6-50.2-4.6l12.6,13c2.2,2.3,2.2,6,0,8.3v-.2ZM262.7,61.9h0Z"/>
                <path class="cls-10" d="M290.3,89.8l-10.9-11.1c-2.2-2.3-5.8-2.3-8,0l-.8.8-.7.7c-2.2,2.3-5.8,2.3-8,0l-15.2-15.6c-2.2-2.3-2.2-6,0-8.3l1.6-1.7c2.2-2.3,2.2-6,0-8.3l-12.6-13c-10.8,3.5-20.8,8.9-27.4,14.5l68.1,70.1c5.4-6.9,10.6-17.1,14-28.3v.2ZM227.4,54.9c-1.3,1.3-3.4,1.3-4.6,0s-1-3.4.2-4.7l5.5-5.7c1.2-1.3,3.2-1.4,4.5-.3,1.4,1.3,1.4,3.5.1,4.8l-5.8,6h.1ZM233.4,61.2c-1.3,1.3-3.4,1.3-4.6,0s-1-3.4.2-4.7l5.5-5.7c1.2-1.3,3.2-1.4,4.5-.3s1.4,3.5.1,4.8l-5.8,6h.1ZM268,96.8c-1.3,1.3-3.4,1.3-4.6,0s-1-3.4.2-4.7l5.5-5.7c1.2-1.3,3.2-1.4,4.5-.3s1.4,3.5.1,4.8l-5.8,6h0ZM269.1,102.5c-.9-1.3-.6-3.1.5-4.2l5.6-5.7c1.2-1.3,3.2-1.4,4.5-.3s1.4,3.5.1,4.8l-5.8,6c-1.4,1.4-3.8,1.3-4.9-.5h0Z"/>
                <path class="cls-8" d="M233,44.2c-1.3-1.2-3.3-1-4.5.3l-5.5,5.7c-1.2,1.3-1.4,3.3-.2,4.7s3.4,1.5,4.6,0l5.8-6c1.3-1.3,1.2-3.5-.1-4.8h-.1Z"/>
                <path class="cls-8" d="M239.1,50.4c-1.3-1.2-3.3-1-4.5.3l-5.5,5.7c-1.2,1.3-1.4,3.3-.2,4.7,1.2,1.4,3.4,1.5,4.6,0l5.8-6c1.3-1.3,1.2-3.5-.1-4.8h-.1Z"/>
                <path class="cls-8" d="M273.6,86c-1.3-1.2-3.3-1-4.5.3l-5.5,5.7c-1.2,1.3-1.4,3.3-.2,4.7s3.4,1.5,4.6,0l5.8-6c1.3-1.3,1.2-3.5-.1-4.8h0Z"/>
                <path class="cls-8" d="M279.7,92.2c-1.3-1.2-3.3-1-4.5.3l-5.6,5.7c-1.1,1.1-1.4,2.9-.5,4.2s3.5,1.9,4.9.5l5.8-6c1.3-1.3,1.2-3.5-.1-4.8h0Z"/>
                <g>
                  <path class="cls-1" d="M276.3,118l-68.1-70.1c-1.1.9-2.2,1.9-3.1,2.8l-100.1,103.1c18.9,15.5,67.6,45.6,128,9l40.4-41.6c.9-1,1.8-2,2.8-3.2h.1Z"/>
                  <path class="cls-10" d="M105.1,153.9l-5.6,5.8c-3.1,3.2-3.1,8.4,0,11.6l57.1,58.8c3.1,3.2,8.2,3.2,11.3,0l65.3-67.3c-60.4,36.7-109.2,6.5-128-9h-.1Z"/>
                </g>
              </g>
              <line class="cls-2" x1="262.7" y1="61.9" x2="262.7" y2="61.9"/>
              <g>
                <g>
                  <path class="cls-10" d="M231.7,124c2-8.2,0-17.2-6.3-23.7-9.4-9.7-24.6-9.7-34,0-1.9,2-3.5,4.2-4.6,6.6,5.3,12.5,17.7,27.7,44.9,17h0Z"/>
                  <path class="cls-11" d="M186.8,107c-4.4,9.2-2.9,20.7,4.6,28.4,9.4,9.7,24.6,9.7,34,0,3.2-3.3,5.3-7.2,6.3-11.4-27.2,10.7-39.5-4.5-44.9-17h0Z"/>
                </g>
                <path class="cls-8" d="M220.8,130.6c6.8-7.1,6.8-18.5,0-25.6s-18-7.1-24.8,0-6.8,18.5,0,25.6c6.8,7.1,18,7.1,24.8,0Z"/>
              </g>
              <g>
                <path class="cls-14" d="M253.4,106c-3.4-4.7-9.7.2-6.6,4.8,3.1,4.6,9.6-.7,6.6-4.8Z"/>
                <path class="cls-14" d="M234.9,88.8c-3.1-3.2-9.5,1-5.3,5.6s8.6-2.2,5.3-5.6Z"/>
                <path class="cls-14" d="M220.8,71.9c-3.5-4.9-9,2.1-5.8,5.7s9.2-1,5.8-5.7Z"/>
              </g>
            </g>
            <g class="cls-9">
              <path class="cls-1" d="M279,40c9.5,3.3,14.5,14.7,12.5,24.2-.5,3-4.1,12.1-8.1,8.8-.5-.5-.8-1.1-.9-1.7-.9-4.3-1.3-8.2-2.4-12.3-1.2-5-3.2-10.1-4.4-15.2v-1c-.4-1.9,1.6-3.4,3.3-2.8h0Z"/>
            </g>
            <g class="cls-9">
              <path class="cls-1" d="M216.2,106c5.9,3.1,8.5,10.7,6.4,16.9-.9,3.1-4.4,8.4-7.8,5.1-.7-.7-.8-1.6-.9-2.5-.1-2.6,0-5.2-.4-7.7-.2-1.7-.7-3.8-1.1-5.5,0-.5-.4-1.5-.4-2l.5-2.5c.3-1.7,2.3-2.6,3.8-1.8h-.1Z"/>
            </g>
            <g class="cls-9">
              <path class="cls-1" d="M128.7,219.5c2.8,1.1,5.5,2.5,8.3,3.2,2.9.6,4.7.6,8,.6s1.6.8,1.6,1.7c-.4,1.8-2,3.2-3.6,4.1-2.5,1.3-5.7,1.3-8.2.4-3.9-1.5-6.9-4.2-8.4-8-.5-1.4,1-2.7,2.3-2h0Z"/>
            </g>
            <g>
              <path class="cls-3" d="M199.8,244.4c5.6,6,10.2,11,10.9,11.8.5.6.7,1.2.6,1.6l16.1-16.5c-.5.1-1.1,0-1.6-.2l-.6-.6c-8.8,3.3-17.5,4.3-25.4,3.9h0Z"/>
              <path class="cls-3" d="M184.9,249l9.6,9.9c4.4,4.5,11.4,4.5,15.8,0h0c-.5.1-1.1,0-1.6-.2-.6-.4-7.4-7.3-14.8-14.8-1.2-.2-2.4-.3-3.5-.5-2.8,2.8-4.7,4.8-5.5,5.7h0Z"/>
              <path class="cls-3" d="M182.5,246.6c.8-.8,2.1-2.2,3.9-4-4.3-1-8-2.2-11-3.3l7.1,7.3Z"/>
            </g>
          </g>
        </g>
      </g>
    </g>
  </g>
</svg>
