<svg xmlns="http://www.w3.org/2000/svg" viewBox="0 0 300 300"><defs><style>.st1{fill:#a1a1b2}.st2{fill:#ffda00}.st4{fill:#e9e9ff;mix-blend-mode:multiply}.st4,.st7{isolation:isolate}.st10{fill:#c2c2d3}.st13{fill:#414042}</style></defs><g class="st7"><g id="Camada_1"><path id="Camada_10" fill="#008dd3" d="M272.7 148.4c.1 19.8-4.1 38.6-11.6 55.7-21.1 47.6-68.6 80.8-124 81-14.7.1-28.9-2.3-42.2-6.5-25-8-46.8-23-63.1-42.8-17-20.4-28.1-46-30.8-74-.4-4-.6-8.2-.6-12.3-.2-46.2 22.7-87.2 57.9-111.9 4.6-3.3 9.4-6.2 14.4-8.8 7-3.8 14.4-6.8 22-9.4 7.2-2.3 14.7-4 22.4-5.2 6.2-.8 12.5-1.3 18.9-1.4 25-.1 48.5 6.6 68.8 18.3 3.7 2.1 7.1 4.3 10.5 6.8 16.2 11.5 29.8 26.5 39.7 43.9 1.1 2 2.2 3.9 3.2 6 .8 1.8 1.7 3.5 2.5 5.3 2.6 5.8 4.8 11.7 6.6 17.8 2 6.8 3.5 13.9 4.3 21 .7 5.4 1.1 10.9 1.1 16.5z"/><g class="st7"><g id="Camada_11" data-name="Camada_1"><path fill="#646464" d="M81 53.3h186.1c8.8 0 15.9 7.1 15.9 15.9v133c0 2.9-2.4 5.3-5.3 5.3H70.4c-2.9 0-5.3-2.4-5.3-5.3v-133c0-8.8 7.1-15.9 15.9-15.9z" transform="rotate(22 174.026 130.345)"/><path fill="#cccce5" d="M114.5 34.9l166.4 65.4c6 2.4 9.2 8.9 7.2 14.5l-39.9 101c-2.1 5.8-8.7 8.5-14.9 6L67.7 156.4c-6.2-2.4-9.5-9.1-7.4-14.9L99.9 40.7c2-5.6 8.5-8.3 14.5-5.9z"/><path d="M143.3 133l21.5-15.7-.4 24 18 12.5-37.1 6.6-15.2-27.2 13.2-.2z" class="st1"/><path d="M136.8 115.1c0 5.7-.2 11.3-.7 16.9l-.3-1.3c2 2.3 3.8 4.8 5.7 7.2 1.1 1.5 6.1 7.9 7.1 9.2-4.4 2.7-9 5.4-13.5 8l.5-.5c-4.5 5.6-9.2 12.4-14.5 16.8l12.6-18.1s11.2-7.1 11.3-7.1v.4c-.2-.2-10.8-14.6-10.8-14.9l2.5-16.6h.3v.1zm98.1-32.7c0 5.7-.2 11.3-.7 16.9l-.3-1.3c2 2.3 3.8 4.8 5.7 7.2 1.1 1.5 6.1 7.9 7.1 9.2-4.4 2.7-9 5.4-13.5 8l.5-.5c-4.5 5.6-9.2 12.4-14.5 16.8l12.6-18.1s11.2-7.1 11.3-7.1v.4c-.2-.2-10.8-14.6-10.8-14.9l2.5-16.6h.3v.1zm-6.5 109.9c-.8-8.9-1.2-17.8-1.4-26.6l1.2 2c-15.1-7.4-30.2-14.9-44.7-23.4l1.1-1.3c3.1-4 8-9.4 11.5-13.3h.2c0 .1-10.2 14.3-10.2 14.3v-.3s43.1 22 43.2 22c0 .2-.7 26.4-.7 26.5h-.2zM161.5 117c-.8-8.9-1.2-17.7-1.4-26.6l1.2 2c-10.5-5.1-22.1-10.9-32.4-16.5-3.6-1.9-7-4-10.5-6l2.2-1.2c-.4 5.2-.4 11.4-1.5 16.1l-.2-16.2v-.3s43.1 22 43.4 22.1h.1v.2c-.2 0-.2 27-1 26.4z" class="st1"/><path d="M201.7 210l-59-23.3L92.6 61.1l7.5-21.1c1.9-5.2 7.9-7.7 13.5-5.5l21.3 8.4 66.7 167zm72.5-63.7L251.3 89l-23.2-9.2 36.8 92.3 9.3-25.8z" class="st4"/><path fill="#ccc" d="M254.7 240L38 152.1c-3.4-1.4-7.3.8-7.7 4.4L257.5 248c1.7-2.9.4-6.7-2.8-8.1z"/><path d="M30.3 156.5c-1 10.5 4.2 21.8 14.1 25.8l184.9 75c9.9 4 21.3-.4 27.8-8.6.1-.2.3-.4.4-.6L30.3 156.5z" class="st13"/><path fill="#f9b4c4" d="M118.9 195.8h48.7c1.8 0 3.2 1.5 3.2 3.2 0 1.8-1.5 3.2-3.2 3.2h-48.7v-6.5z" transform="rotate(22 144.977 199.258)"/></g><path fill="#515759" d="M289.1 93.8l-10.7-4.3c-7.7 71.3-98.3 110.2-150.4 126.8l101.2 41c9.9 4 21.3-.4 27.8-8.6.1-.2.3-.4.4-.6 1.7-2.9.4-6.7-2.8-8.1l-6.4-2.6 49.7-122.9c3.3-8.1-.6-17.4-8.8-20.7z" opacity=".3"/></g><rect width="119.4" height="69.1" x="36.3" y="169.6" fill="#57e250" rx="12.3" ry="12.3" transform="rotate(-99.5 96.083 204.141)"/><path fill="#e9e9ff" stroke="#646464" stroke-miterlimit="10" d="M116.7 154l13.7 84.3c.6 3.6-1.8 6.9-5.4 7.6l-43.6 7.6c-3.6.6-6.9-1.7-7.5-5.3l-13.7-84.3c-.4-2.5.6-4.9 2.6-6.3.8-.6 1.8-1.1 2.8-1.3l43.6-7.6c3.6-.6 6.9 1.8 7.5 5.3h0z"/><circle cx="71.8" cy="151.7" r="1.6" class="st2"/><circle cx="105.4" cy="256.8" r="3.7" class="st13" transform="rotate(-37.4 105.385 256.786)"/><circle cx="202.2" cy="64.4" r="3.2" class="st13"/><path d="M78.2 204.6l1.8-28.2 14.6 25.4 15.9 1.4.7 15.7-23.2 9.8L69.9 210l8.3-5.4zm26.5-11c2.7-4.7 5.5-9.2 8.5-13.6v1.5c-5.2-8.2-10.1-16.6-14.2-25.2l1.1-.4c3-1 7.4-2.1 10.4-3v.2l-10 3.9v-.2l13.9 23.9c0 .1-9.7 12.8-9.7 12.9h-.1c0-.1 0 0 0 0zm10 3.3c4.9 8.4 8.1 18 11 27.3l-1.6.2c-3.1.2-8.1 1.2-10.9.6l10.6-2c-3.1-7.5-6.7-17.8-9.1-25.9z" class="st10"/><path d="M104.8 228.9c-4.5 5.5-9.1 10.9-14.2 15.9-5.1-8.4-10.1-16.9-14.4-25.7l-.5-1.1c3.7-1.2 8-2.8 11.6-3.2l-10.1 3.9v-.2l13.9 23.9h-.3s13.9-14.1 14-13.5z" class="st10"/><path d="M127 212.8l4.5 26.6-69-58.6-2.8-16.5c-.4-2.5.6-5 2.6-6.4l64.8 54.9zm-7.4-44.1l1.7 10.5-31.5-26.8 8.8-1.4 21 17.7z" class="st4"/><rect width="27.4" height="3.2" x="73.9" y="147.4" class="st13" rx="1.6" ry="1.6" transform="rotate(-8.9 87.942 149.045)"/><path d="M125.8 157.1v10.3c-1.1 0-2-.9-2-2v-6.3c0-1.1.9-2 2-2z" class="st2" transform="rotate(170.8 124.785 162.219)"/><path d="M128 170.5v10.3c-1.1 0-2-.9-2-2v-6.3c0-1.1.9-2 2-2z" class="st2" transform="rotate(170.8 127.027 175.634)"/><path fill="#515759" d="M129.3 194c-12.6 35.8-43 55.5-59.3 63.8 1.7 6 7.6 9.9 13.9 8.8l43.9-7.4c6.7-1.1 11.2-7.5 10.1-14.2l-8.6-51.1z" opacity=".3"/></g></g></svg>