<svg xmlns="http://www.w3.org/2000/svg" id="Camada_1" version="1.1" viewBox="0 0 300 300"><defs><style>.st0{fill:#54c654}.st7{stroke-linecap:round;stroke-linejoin:round;stroke:#d1990a;stroke-width:3px;fill:none}.st10{opacity:.2}.st11{fill:#138e44}.st10{fill:#d1990a}</style></defs><path fill="#008dd3" d="M290.3 145.6c.1 20.7-4.3 40.4-12.1 58.2-22 49.7-71.6 84.3-129.5 84.5-15.4.1-30.2-2.4-44.1-6.8-26.1-8.3-48.9-24-65.9-44.7-17.7-21.4-29.4-48-32.1-77.3-.4-4.2-.6-8.5-.6-12.8-.2-48.2 23.7-91 60.4-116.8 4.8-3.4 9.8-6.5 15-9.2 7.3-3.9 15-7.2 23-9.8 7.5-2.4 15.4-4.2 23.4-5.4 6.5-.9 13-1.4 19.7-1.5 26.2 0 50.6 6.9 71.8 19.1 3.8 2.2 7.4 4.5 11 7.1 16.9 12 31.1 27.6 41.4 45.8 1.2 2.1 2.3 4.1 3.3 6.3.9 1.9 1.8 3.6 2.6 5.5 2.7 6.1 5 12.2 6.9 18.6 2.1 7.2 3.6 14.5 4.5 21.9.9 5.8 1.3 11.5 1.3 17.3z"/><rect width="119.4" height="58.3" x="75.4" y="215.6" class="st11" rx="15.9" ry="15.9" transform="rotate(30.1 135.126 245.216)"/><path fill="#ffd200" d="M285.6 66.8c-16-8.9-36.3 24.8-47.1 36.4-.7.8-2-.2-1.4-1.1 8.7-12.9 37.4-48.8 24.7-61.3-7.3-7.2-19-6-30.3 9.2-1.4 1.9-16.3 24.2-23.8 34.8s-2 0-1.5-.9c18-37.1 21.2-53.3 11.9-57.7S202.4 24.3 189 46c-8.3 13.4-18.6 36.9-27.1 52.3-4.7-6.9 1.6-25.9-10.1-34.4-7.8-5.7-21.4-2-25.7 12.3-10.7 35.6.8 62.1 5.8 69.8-6.8 13.4-15.6 26.3-25.8 38.6-1.7 2-3.3 4-5.1 5.9 15.5 19.7 48.3 53.5 95.6 61 2.6-4.4 5-8.6 7.2-12.6 13.3-24.1 19.6-40 19.6-40 12-2.3 64.5-44.5 72.3-78.7 1.1-5 0-7.7-4.1-10.5-8.3-5.6-26.5 15.9-32.5 20.4s-1.8-.3-1.3-1.2C261 123 275 108 283.7 98.1c11.9-13.5 9.7-27 1.8-31.4z"/><path d="M159.9 186.7l14.4-4.9s33.9 22.2 49.2 17.1l-7.2 16.1-56.3-28.4z" class="st10"/><rect width="138.2" height="58.3" x="85.5" y="181.5" class="st0" rx="15.9" ry="15.9" transform="rotate(30.1 154.839 211.003)"/><path d="M188.4 160c10.6-6.3 30.7-16.6 49.8-8.7m-72.2-46s28.4 25.5 13 58.2" class="st7"/><path fill="#ffd200" stroke="#d1990a" stroke-linecap="round" stroke-linejoin="round" stroke-width="3" d="M190.8 103.6l42.7 30.9"/><path d="M131.9 146l5.5 8.4m86 44.6l-8.7.7" class="st7"/><path d="M112.9 202.6l-24.5-15.9 1.6-2.5 24.5 15.9c.7.5.9 1.4.4 2.1-.5.7-1.4.9-2.1.4zm104.9 36.5l-36-22.9c-.7-.4-.9-1.4-.5-2.1.4-.7 1.4-.9 2.1-.5l36 22.9-1.6 2.5zm-11.2 19.2l-17-10.9c-.7-.4-.9-1.4-.5-2.1.4-.7 1.4-.9 2.1-.5l17 10.9-1.6 2.5z" class="st11"/><rect width="3" height="23.4" x="131.4" y="184.9" class="st11" rx="1.5" ry="1.5" transform="rotate(-58.4 133.091 196.722)"/><path d="M86.5 250.2l-2.6-1.6 9.9-16.1c.4-.7 1.4-.9 2.1-.5.7.4.9 1.4.5 2.1l-9.9 16.1zm57.5 33.6l-2.5-1.6 12.4-19.7c.4-.7 1.4-.9 2.1-.5.7.4.9 1.4.5 2.1l-12.4 19.7zm9.9 5.6l-2.6-1.6 11.4-18.5c.4-.7 1.4-.9 2.1-.5.7.4.9 1.4.5 2.1l-11.4 18.5z" class="st0"/><path d="M179.2 164.4s9.2-20.4 0-41.9c0 0 26.8 4.6 41.3 25.3 0 0-26.4 7.7-41.2 16.6z" class="st10"/><path fill="#07682a" d="M215 211.9L167.1 184l-46.8 85.8 21.1 12.3 2.4 1.5 14.2 8.2c7.6 4.4 17.4 1.8 21.8-5.8l12.5-21.5c6 .5 12-2.3 15.2-7.9l13.3-22.9c4.4-7.6 1.8-17.4-5.8-21.8z" opacity=".2"/><path fill="none" stroke="#f14e70" stroke-linecap="round" stroke-linejoin="round" stroke-width="5" d="M85 87.5l27.4.1m-27-30.4l26.1 8.5m63.1-34.1l-11.4 25.1m-16.4-37.3l-3 27.4m-36.1-19l15.9 22.5"/><path fill="#ddd" stroke="#646464" stroke-miterlimit="10" stroke-width="4" d="M66.4 106.9c6.5 7.5 8.8 17.7 8.8 17.7l-30.5 6c-.5 0-1 .4-1.2.8h0c-.3.5-.3.9-.3 1.4l3.3 14.9c.2.6.5.9 1.1 1.2h0c.4.2.8.3 1.2.2l30.3-6.7s1.2 10.4-2.3 19.7c-3.1 7.9 42.1-26.5 55.4-36.7 1.6-1.2 1.2-3.6-.7-4.1-16.3-4.9-70.4-20.7-64.9-14.2z"/><path style="isolation:isolate" fill="#fff" d="M91 125.1c6-.1 16.1.7 20.6.6 5.7 0 9.6-.4 11.7-1 .9-.3.7-1.5-.3-1.7-2.4-.8-7.4-2.3-17.7-4.8h-.1c-4.1-1.4-27.7-7.6-29.9-7.6-5.2-1.7 4.8 7.3 5.6 13.9" opacity=".4"/><path style="isolation:isolate" fill="#fff" d="M87.7 120.3c3.4.1 9 1 11.8 1.1 3.2.2 5.3.3 6.6 0 .6-.2.3-.6-.3-.9-1.3-.4-4.3-1.4-10.2-3.1h-.1c-2.4-.9-15.9-4.8-17.2-5.1-3-1 3 3.7 3.8 7.1" opacity=".6"/></svg>