<?xml version="1.0" encoding="UTF-8"?>
<svg id="Camada_1" data-name="Camada 1" xmlns="http://www.w3.org/2000/svg" viewBox="0 0 300 300">
  <defs>
    <style>
      .cls-1 {
        fill: #ccc;
      }

      .cls-1, .cls-2, .cls-3, .cls-4, .cls-5, .cls-6, .cls-7, .cls-8, .cls-9, .cls-10, .cls-11, .cls-12, .cls-13, .cls-14 {
        stroke-width: 0px;
      }

      .cls-2 {
        fill: #979a9b;
      }

      .cls-3 {
        fill: #ffda00;
      }

      .cls-4 {
        fill: #aeb9ba;
      }

      .cls-5 {
        fill: #f4f4f4;
      }

      .cls-6 {
        fill: #ffe45f;
      }

      .cls-7 {
        fill: #c9a700;
      }

      .cls-8 {
        fill: #5c4033;
      }

      .cls-9 {
        fill: #9ea8a9;
      }

      .cls-10 {
        fill: #c17842;
      }

      .cls-11 {
        fill: #fff;
        isolation: isolate;
        opacity: .2;
      }

      .cls-12 {
        fill: #008dd3;
      }

      .cls-13 {
        fill: #c4cbcc;
      }

      .cls-14 {
        fill: #708080;
      }
    </style>
  </defs>
  <circle class="cls-12" cx="140" cy="150" r="140"/>
  <g>
    <g id="Camada_2" data-name="Camada 2">
      <g>
        <polygon class="cls-14" points="62.85 123.2 38.35 116.4 268.45 112 270.45 112.3 294.55 119 62.85 123.2"/>
        <g>
          <g>
            <g>
              <polygon class="cls-9" points="59.35 235.5 80.65 239.9 86.55 231.8 62.85 227.5 59.35 235.5"/>
              <path class="cls-1" d="M42.15,115.1s-2.8.1-3.5,1.5c-.1.2-.2.5-.2.9.2,2.9.4,99,.4,99,0,0,1.3,7.5,6.2,11.3,0,0,8,6.9,14.4,7.7s188.1-2,188.1-2c0,0,13.8.6,22.1-7.8,5.1-4.5,5.9-9.5,5.9-9.5v-102.4s.2-1.8-3.4-1.8c-3.9.1-230,3.1-230,3.1Z"/>
            </g>
            <path class="cls-4" d="M281.65,113.8l-8.3-1.6-3.5,2.3,3.5.2v3.5s24.3.7,24.3.5c0-.3.3-1.6.3-1.6l-16.3-3.3Z"/>
          </g>
          <path class="cls-2" d="M80.45,239.9h0c1,.2,2.1.3,3.2.3l-3.8-.7-15.4-10.8c-1.5-3.9-1.3-7.3-1.3-7.3l-24.4-4.8s1.3,7.3,6.1,11.1c0,0,2,1.7,4.8,3.5,2.8,1.8,6.4,3.8,9.6,4.2l20,4.2c.3.1.6.2.9.2l.3.1Z"/>
          <path class="cls-5" d="M66.55,119.8s-3.9.1-3.8,2.4c.2,2.9.4,99,.4,99,0,0-.3,6.9,3.8,11.6,0,0,6,7,16.8,7.5,7.2,0,188.1-2,188.1-2,0,0,13.8.6,22.1-7.8,5.1-4.5,5.9-9.5,5.9-9.5v-102.3s.2-1.8-3.4-1.8c-3.8-.1-229.9,2.9-229.9,2.9Z"/>
          <path class="cls-2" d="M70.25,235.6l-19.8-3.8s3.4,2.8,10,4c6.6,1.2,18.9,3.8,18.9,3.8,0,0-4.6-.9-9.1-4Z"/>
          <path class="cls-11" d="M291.85,194.9s-4.2-10.6-11.7,0c0,0-2.1,12.2-3,13.9-.9,1.8-5.3,15-28.3,15.6-23,.6-32.6,2.2-32.6,2.2,0,0-5.4,4.4,0,6.2s58.8,0,58.8,0c0,0,16.7-4.1,16.7-13.4s.1-24.5.1-24.5Z"/>
        </g>
        <g>
          <path class="cls-13" d="M89.45,102.6l8.2-4.1c-.1-.1-.5,9.9-8.2,4.1Z"/>
          <path class="cls-7" d="M277.95,111v-27.3s-1-6.9-6.4-13c-9-11.3-22.7-9.8-22.7-9.8,0,0-184.9,3.1-191.3,4.5-6.4,1.4-13.9,11.5-13.9,11.5-4.4,5.5-5.3,16-5.3,16v21.3c0,1.76,1.26,2.55,2.34,2.91l-.04.09,21.4,6.1,3.3-4.2,3.13-2.44c53.03-.89,203.47-3.13,206.47-3.46,3.8-.1,3-2.2,3-2.2Z"/>
          <path class="cls-10" d="M58.75,64.2c6.4-1.5,191.9-4.5,191.9-4.5"/>
          <path class="cls-3" d="M64.25,123.4s-4,0-3.9-3.2c0-4.1.1-21.9.1-21.9,0,0,.9-10.8,5.3-16.5,0,0,7.4-10.3,13.8-11.7,6.4-1.5,191.2-4.6,191.2-4.6,0,0,13.7-1.5,22.7,10.1,5.3,6.2,6.5,13.3,6.5,13.3v25.7s.7,4.5-2.9,4.6c-3.6.2-232.8,4.2-232.8,4.2Z"/>
          <g>
            <path class="cls-7" d="M250.75,59.7s3.9-.1,7.5.9c3.5,1,20.1,5.5,20.1,5.5l-3.8-.6c-.2,0-2.9,0-3.1-.1-9.2.2-184.8,3.3-191.1,4.5l-21.1-5.9s16-.8,18.7-.8c2.7-.1,16.8-.4,16.8-.4l156-3.1Z"/>
            <path class="cls-6" d="M60.45,97.5l-21.3-4.6c-.4-.1-.8-.4-.8-.9.8-3.6.4-11.9,10.3-20.8,3-3,6.7-6,10.6-6.9l21.2,5.8s-7,2.7-10.8,7.3c-3.8,4.6-6.9,8.8-8.1,14.4-1.2,4.5-1.1,5.7-1.1,5.7Z"/>
          </g>
        </g>
      </g>
    </g>
    <g>
      <path class="cls-8" d="M138.69,221.88c-2.98-3.87-5.6-8.04-7.85-12.51s-3.98-9.47-5.18-14.98c-1.21-5.52-1.81-11.73-1.81-18.64s.65-13.08,1.95-18.5c1.3-5.42,3.09-10.29,5.37-14.6,2.28-4.31,4.91-8.28,7.9-11.89h16.93c-3.23,4.12-6.15,8.48-8.75,13.08-2.6,4.6-4.63,9.53-6.09,14.79-1.46,5.26-2.19,10.97-2.19,17.12s.57,11.91,1.71,17.27c1.14,5.36,2.98,10.42,5.52,15.17,2.53,4.75,5.8,9.32,9.8,13.7h-17.31Z"/>
      <path class="cls-8" d="M156.39,204.56l16.17-27.97-.38,2.38-15.22-26.54h16.46l9.42,17.69h1.52l8.85-17.69h15.51l-14.55,26.73.38-2,17.12,27.4h-16.55l-11.23-18.93h-1.52l-10.56,18.93h-15.41Z"/>
      <path class="cls-8" d="M211.65,221.88c4-4.38,7.26-8.94,9.8-13.7,2.54-4.76,4.38-9.81,5.52-15.17,1.14-5.36,1.71-11.11,1.71-17.27s-.73-11.86-2.19-17.12c-1.46-5.26-3.49-10.19-6.09-14.79s-5.52-8.96-8.75-13.08h16.93c2.98,3.62,5.61,7.58,7.89,11.89,2.28,4.31,4.07,9.18,5.37,14.6,1.3,5.42,1.95,11.59,1.95,18.5s-.6,13.13-1.81,18.64c-1.2,5.52-2.93,10.51-5.18,14.98-2.25,4.47-4.87,8.64-7.85,12.51h-17.31Z"/>
    </g>
  </g>
  <circle class="cls-7" cx="234.34" cy="93.68" r="6.61"/>
  <circle class="cls-7" cx="255.15" cy="93.68" r="6.61"/>
  <circle class="cls-7" cx="275.95" cy="93.68" r="6.61"/>
</svg>