<?xml version="1.0" encoding="UTF-8"?>
<svg xmlns="http://www.w3.org/2000/svg" version="1.1" viewBox="0 0 300 300">
  <defs>
    <style>
      .cls-1, .cls-2, .cls-3, .cls-4 {
        fill: #fff;
      }

      .cls-1, .cls-5, .cls-6, .cls-3 {
        isolation: isolate;
      }

      .cls-1, .cls-6 {
        opacity: .3;
      }

      .cls-7 {
        fill: #ffda00;
      }

      .cls-8 {
        fill: #78d9ff;
      }

      .cls-9 {
        fill: #005cff;
      }

      .cls-10 {
        fill: #ef3030;
      }

      .cls-11 {
        fill: #008dd3;
      }

      .cls-12 {
        fill: #444;
      }

      .cls-13 {
        fill: #515759;
      }

      .cls-5 {
        opacity: .5;
      }

      .cls-3 {
        opacity: .3;
      }

      .cls-14 {
        fill: #1a00d6;
      }

      .cls-15 {
        fill: #50afeb;
      }

      .cls-16 {
        fill: #979a9b;
      }

      .cls-4 {
        stroke: #1a00d6;
        stroke-miterlimit: 10;
        stroke-width: 2px;
      }
    </style>
  </defs>
  <!-- Generator: Adobe Illustrator 28.7.1, SVG Export Plug-In . SVG Version: 1.2.0 Build 142)  -->
  <g>
    <g id="Camada_1">
      <g>
        <path class="cls-11" d="M289.8,149c.1,20.7-4.3,40.4-12.1,58.2-22,49.7-71.6,84.3-129.5,84.5-15.4.1-30.2-2.4-44.1-6.8-26.1-8.3-48.9-24-65.9-44.7-17.7-21.4-29.4-48-32.1-77.3-.4-4.2-.6-8.5-.6-12.8-.2-48.2,23.7-91,60.4-116.8,4.8-3.4,9.8-6.5,15-9.2,7.3-3.9,15-7.2,23-9.8,7.5-2.4,15.4-4.2,23.4-5.4,6.5-.9,13-1.4,19.7-1.5,26.2,0,50.6,6.9,71.8,19.1,3.8,2.2,7.4,4.5,11,7.1,16.9,12,31.1,27.6,41.4,45.8,1.2,2.1,2.3,4.1,3.3,6.3.9,1.9,1.8,3.6,2.6,5.5,2.7,6.1,5,12.2,6.9,18.6,2.1,7.2,3.6,14.5,4.5,21.9h0c.9,5.8,1.3,11.5,1.3,17.3Z"/>
        <g>
          <g>
            <path class="cls-14" d="M67,148.6c-1.2,0-2.4-.4-3.5-1.1l-6-4.3c-2.7-1.9-3.3-5.7-1.4-8.4s5.7-3.3,8.4-1.4l6,4.3c2.7,1.9,3.3,5.7,1.4,8.4-1.2,1.6-3,2.5-4.9,2.5Z"/>
            <path class="cls-14" d="M271.5,148.6c-1.9,0-3.7-.9-4.9-2.5-1.9-2.7-1.3-6.4,1.4-8.4l6-4.3c2.7-1.9,6.4-1.3,8.4,1.4,1.9,2.7,1.3,6.4-1.4,8.4l-6,4.3c-1.1.8-2.3,1.1-3.5,1.1Z"/>
            <g>
              <g>
                <path class="cls-12" d="M67.1,215.7v17.2c0,6.8,4.1,12.6,9.9,15.2,2.1.9,4.3,1.4,6.7,1.4h2.9c9.2,0,16.6-7.5,16.6-16.6v-17.2h-36.2Z"/>
                <path class="cls-12" d="M241.3,215.7h-7.2v17.2c0,9.2,7.5,16.6,16.6,16.6h2.9c2.4,0,4.7-.5,6.7-1.4,5.8-2.6,9.9-8.4,9.9-15.2v-17.2h-29Z"/>
              </g>
              <g>
                <path class="cls-13" d="M96.1,215.7h-29v17.2c0,6.8,4.1,12.6,9.9,15.2,7.1-4.4,16.6-13.7,19-32.4Z"/>
                <path class="cls-12" d="M96.1,215.7c-2.5,18.7-11.9,28-19,32.4,2.1.9,4.3,1.4,6.7,1.4h2.9c9.2,0,16.6-7.5,16.6-16.6v-17.2h-7.2Z"/>
              </g>
              <g>
                <path class="cls-13" d="M241.3,215.7h29v17.2c0,6.8-4.1,12.6-9.9,15.2-7.1-4.4-16.6-13.7-19-32.4Z"/>
                <path class="cls-12" d="M241.3,215.7c2.5,18.7,11.9,28,19,32.4-2.1.9-4.3,1.4-6.7,1.4h-2.9c-9.2,0-16.6-7.5-16.6-16.6v-17.2h7.2Z"/>
              </g>
              <path class="cls-8" d="M267.6,132.4c-7.6-18.8-18.2-38.1-24.6-49.4-4-6.9-10.6-11.9-18.4-13.8-10.8-2.6-28.9-5.6-55.4-5.6s-44.5,3-55.4,5.6c-7.8,1.9-14.4,6.9-18.4,13.8-6.4,11.2-16.9,30.5-24.5,49.2-4.6,11.3-8.2,22.4-9.2,31.5v44.6c0,7.5,6.1,13.5,13.5,13.5h187.8c7.5,0,13.5-6.1,13.5-13.5v-44.6c-1-9-4.5-20-9.1-31.2Z"/>
              <path class="cls-1" d="M235.4,143.6l32.2-11.2c-7.6-18.8-18.2-38.1-24.6-49.4-4-6.9-10.6-11.9-18.4-13.8-10.8-2.6-28.9-5.6-55.4-5.6s-44.5,3-55.4,5.6c-7.8,1.9-14.4,6.9-18.4,13.8-6.4,11.2-16.9,30.5-24.5,49.2l32.9,11.4c42.6,14.8,88.9,14.8,131.4,0Z"/>
              <path class="cls-7" d="M97.8,162.5c-1.7-5.1-7.5-9-8.3-9.5-2.5-2-5.1-2.2-6.8-1.9-2.5.3-4.9,1.7-6.3,3.6-3.7,5.2-4.3,15.7.1,20.3,3.1,3.2,10.5,5.4,15.5,5.4s1.2,0,1.7-.1c1.9-.2,3.2-.9,3.8-2.1,2.2-3.9,1.7-11,.1-15.8Z"/>
              <path class="cls-9" d="M169.3,184.5c-12.1,0-52.1-5.1-53.8-5.3-2.2-.3-3.7-2.3-3.5-4.5.3-2.2,2.3-3.7,4.5-3.5.4,0,41.2,5.2,52.8,5.2s52.4-5.2,52.8-5.2c2.2-.3,4.2,1.3,4.5,3.5.3,2.2-1.3,4.2-3.5,4.5-1.7.2-41.7,5.3-53.8,5.3Z"/>
              <path class="cls-9" d="M169.3,166.8c-12.1,0-52.1-5.1-53.8-5.3-2.2-.3-3.7-2.3-3.5-4.5.3-2.2,2.3-3.7,4.5-3.5.4,0,41.2,5.2,52.8,5.2s52.4-5.2,52.8-5.2c2.2-.3,4.2,1.3,4.5,3.5.3,2.2-1.3,4.2-3.5,4.5-1.7.2-41.7,5.3-53.8,5.3Z"/>
              <path class="cls-14" d="M222.5,202.4v2.1c0,2.8-2,5.1-4.4,5.1h-97.7c-2.4,0-4.4-2.3-4.4-5.1v-2.1c0-2.8,2-5.1,4.4-5.1h29.6c2.4,0,4.4,2.3,4.4,5.1h0c0,2.8,2,5.1,4.4,5.1h20.7c2.4,0,4.4-2.3,4.4-5.1h0c0-2.8,2-5.1,4.4-5.1h29.6c2.4,0,4.4,2.3,4.4,5.1Z"/>
              <rect class="cls-4" x="147.3" y="193.2" width="43.9" height="14.3" rx="3.7" ry="3.7"/>
              <path class="cls-10" d="M80.4,197.1c-3.5,0-6.3,2.8-6.3,6.3s2.8,6.3,6.3,6.3,6.3-2.8,6.3-6.3-2.8-6.3-6.3-6.3Z"/>
              <path class="cls-10" d="M258.1,197.1c-3.5,0-6.3,2.8-6.3,6.3s2.8,6.3,6.3,6.3,6.3-2.8,6.3-6.3-2.8-6.3-6.3-6.3Z"/>
              <g>
                <path class="cls-15" d="M64.4,129.9c0-2.5-2-4.5-4.5-4.5h-10.6c-2.9,0-5.4,1.9-6.2,4.6,3.6,1.9,10.5,4.6,21.3,5.3v-5.4Z"/>
                <path class="cls-9" d="M43,130c-.2.6-.3,1.3-.3,1.9v1.8c0,3.6,2.9,6.5,6.5,6.5h10.6c2.5,0,4.5-2,4.5-4.5v-.5c-10.9-.7-17.7-3.4-21.3-5.3Z"/>
              </g>
              <g>
                <path class="cls-15" d="M273.1,129.9c0-2.5,2-4.5,4.5-4.5h10.6c2.9,0,5.4,1.9,6.2,4.6-3.6,1.9-10.5,4.6-21.3,5.3v-5.4Z"/>
                <path class="cls-9" d="M294.4,130c.2.6.3,1.3.3,1.9v1.8c0,3.6-2.9,6.5-6.5,6.5h-10.6c-2.5,0-4.5-2-4.5-4.5v-.5c10.9-.7,17.7-3.4,21.3-5.3Z"/>
              </g>
              <path class="cls-7" d="M265.1,164c-.2-3.5-1.3-6.9-2.9-9.3-1.3-1.9-3.7-3.3-6.3-3.6-1.7-.2-4.3,0-6.8,1.9-.8.5-6.6,4.4-8.3,9.5-.8,2.3-1.3,5.1-1.3,7.8,0,3,.3,5.9,1.5,7.9.6,1.1,1.9,1.8,3.8,2.1.5,0,1.1.1,1.7.1,5,0,12.4-2.2,15.5-5.4,2.5-2.5,3.4-6.8,3.1-11Z"/>
              <path class="cls-16" d="M237.1,92.1c-57.9-14.8-107.5-6.7-136.6,1.5-8.3,15.1-15.2,32.5-15.5,33.3-.8,2-.5,4.3.7,6,1.2,1.8,3.2,2.8,5.4,2.8h156.3c2.1,0,4.2-1.1,5.4-2.8,1.2-1.8,1.5-4,.7-6-.3-.9-7.6-19.4-16.3-34.8Z"/>
            </g>
          </g>
          <g class="cls-6">
            <path class="cls-2" d="M219.8,81.5c11.5,7.4,18.7,20.5,21.2,33.7.5,3,.8,6.1.6,9.2-.2,3.4-3.2,6-6.6,5.8-4.4-.2-6-4.8-7.7-8-.6-1.1-1.2-2.4-1.7-3.6-2.8-5.8-6.4-13.8-9.4-19.5-1-2.1-2.4-4.6-3.5-6.7-.1-.3-.7-1.3-.8-1.6,0-.1-.2-.4-.1-.4-5.7-5.5,1.9-14,8-8.9h0Z"/>
          </g>
        </g>
      </g>
      <g class="cls-5">
        <path class="cls-2" d="M128.9,138.5c19.2.7,38.2,1.8,57.4,1,6.4-.2,12.7-.7,19.3-1,1.4,0,2.6,1,2.6,2.4,0,1-.5,2-1.4,2.4-1.5.7-3.1,1.4-4.7,2.1-11,4.3-23.1,5.8-34.9,5.6-10.1-.2-20.1-1.5-29.8-4.3-3.2-.9-6.4-1.9-9.6-3.3-1.3-.6-1.9-2.1-1.3-3.3.4-1,1.4-1.6,2.5-1.5h0Z"/>
      </g>
      <path class="cls-2" d="M237.1,92.1c-.9-1.5-1.7-3-2.6-4.5-4.1-6.7-10.6-11.2-17.8-12.2-10.9-1.5-28-3.3-47.4-3.3s-36.5,1.8-47.4,3.3c-7.2,1-13.7,5.4-17.8,12.2-1.2,1.9-2.3,3.9-3.4,5.9,29.1-8.2,78.7-16.3,136.6-1.5Z"/>
      <path class="cls-3" d="M237.1,92.1c-57.9-14.8-107.5-6.7-136.6,1.5-8.3,15.1-15.2,32.5-15.5,33.3-.8,2-.5,4.3.7,6,1.2,1.8,3.2,2.8,5.4,2.8h156.3c2.1,0,4.2-1.1,5.4-2.8,1.2-1.8,1.5-4,.7-6-.3-.9-7.6-19.4-16.3-34.8Z"/>
      <path class="cls-3" d="M265.1,164c-.2-3.5-1.3-6.9-2.9-9.3-1.3-1.9-3.7-3.3-6.3-3.6-1.7-.2-4.3,0-6.8,1.9-.8.5-6.6,4.4-8.3,9.5-.8,2.3-1.3,5.1-1.3,7.8,4.1,2.2,12.7,4.1,25.6-6.4Z"/>
      <path class="cls-3" d="M73.4,164c.2-3.5,1.3-6.9,2.9-9.3,1.3-1.9,3.7-3.3,6.3-3.6,1.7-.2,4.3,0,6.8,1.9.8.5,6.6,4.4,8.3,9.5.8,2.3,1.3,5.1,1.3,7.8-4.1,2.2-12.7,4.1-25.6-6.4Z"/>
      <g class="cls-5">
        <path class="cls-2" d="M84,152.7c5.8,1.6,10.5,6.4,12.2,12.2.6,2.3-2.2,4.2-4.1,2.7-1.9-1.4-4-3.5-5.7-5.1-1.8-1.8-3.8-3.7-5.2-5.9-1.3-1.9.6-4.5,2.8-3.9h0Z"/>
      </g>
      <g class="cls-5">
        <path class="cls-2" d="M257,157c-1.4,2-3.2,3.8-4.9,5.5-1.6,1.5-3.7,3.6-5.5,4.9-1.9,1.7-4.9-.1-4.3-2.6,1.6-5.8,6.3-10.6,12.2-12.2,2.5-.6,4.2,2.4,2.5,4.3h0Z"/>
      </g>
    </g>
  </g>
</svg>