<?xml version="1.0" encoding="utf-8"?>
<!-- Generator: Adobe Illustrator 27.7.0, SVG Export Plug-In . SVG Version: 6.00 Build 0)  -->
<svg version="1.1" xmlns="http://www.w3.org/2000/svg" xmlns:xlink="http://www.w3.org/1999/xlink" x="0px" y="0px"
	 viewBox="0 0 300 300" style="enable-background:new 0 0 300 300;" xml:space="preserve">
<style type="text/css">
	.st0{fill:#008DD3;}
	.st1{fill:#3A8257;}
	.st2{fill:none;}
	.st3{fill:#61E061;}
	.st4{fill:#FAC900;}
	.st5{fill:#F6543B;}
	.st6{fill:#C75EEB;}
	.st7{fill:#4EBFE9;}
	.st8{fill:#FF8DA4;}
	.st9{opacity:0.3;fill:#FFFFFF;enable-background:new    ;}
	.st10{fill:#998014;}
	.st11{fill:#DDDDDD;stroke:#515759;stroke-width:4;stroke-miterlimit:10;}
	.st12{opacity:0.36;fill:#FFFFFF;enable-background:new    ;}
	.st13{opacity:0.61;fill:#FFFFFF;enable-background:new    ;}
	.st14{fill:#F14E70;}
	.st15{fill:#DDDDDD;stroke:#515759;stroke-width:4;stroke-linecap:round;stroke-linejoin:round;stroke-miterlimit:10;}
	.st16{display:none;}
	.st17{display:inline;}
	.st18{fill:#EF3030;}
	.st19{fill:#D12C2C;}
	.st20{fill:#FF4D4D;}
	.st21{fill:#E32E2E;}
	.st22{fill:#1F9959;}
	.st23{fill:#65AA82;}
	.st24{fill:#86D18F;}
	.st25{fill:#4B5459;}
	.st26{fill:none;stroke:#4B5459;stroke-miterlimit:10;}
	.st27{fill:none;stroke:#145616;stroke-miterlimit:10;}
	.st28{fill:#EAEAEA;stroke:#515759;stroke-width:6;stroke-miterlimit:10;}
	.st29{opacity:0.32;fill:#FFFFFF;enable-background:new    ;}
	.st30{fill:#EAE9E4;}
	.st31{fill:#B7B7B7;}
	.st32{display:inline;fill:#61E061;}
	.st33{display:inline;fill:#C75EEB;}
	.st34{display:inline;fill:#4EBFE9;}
	.st35{display:inline;fill:#FAC900;}
	.st36{display:inline;fill:none;stroke:#B7B7B7;stroke-miterlimit:10;}
	.st37{fill:#4D5152;}
	.st38{fill:#F3BD00;}
	.st39{fill:#EAEAEA;}
	.st40{fill:#828D8E;}
	.st41{opacity:0.2;fill:#FFFFFF;enable-background:new    ;}
	.st42{fill:#EAEAEA;stroke:#646464;stroke-width:3;stroke-miterlimit:10;}
	.st43{fill:#646464;}
	.st44{fill:#C4CBCC;}
	.st45{fill:#828D8E;stroke:#828D8E;stroke-miterlimit:10;}
	.st46{fill:none;stroke:#828D8E;stroke-miterlimit:10;}
	.st47{fill:none;stroke:#646464;stroke-miterlimit:10;}
	.st48{fill:#9EA8A9;}
	.st49{fill:#AEB9BA;}
	.st50{fill:#708080;}
	.st51{fill:#ED4F79;}
	.st52{fill:#309FD6;}
	.st53{fill:#50AFEB;}
	.st54{fill:#C9854D;}
	.st55{fill:#C17842;}
	.st56{fill:#AD7149;}
	.st57{fill:#BA784A;}
	.st58{fill:#ED9751;}
	.st59{fill:#EF5555;}
	.st60{fill:#E2B700;}
	.st61{fill:#FCD206;}
	.st62{fill:#00BF5F;}
	.st63{fill:#07E570;}
	.st64{opacity:0.4;fill:#FDFFFF;enable-background:new    ;}
	.st65{opacity:0.4;fill:#FFFFFF;enable-background:new    ;}
</style>
<g id="Camada_18">
	<path class="st0" d="M274.4,148.7c0.1,19.8-4.1,38.6-11.6,55.7c-21.1,47.6-68.6,80.8-124,81c-14.7,0.1-28.9-2.3-42.2-6.5
		c-25-8-46.8-23-63.1-42.8c-17-20.4-28.1-46-30.8-74c-0.4-4-0.6-8.2-0.6-12.3C1.9,103.6,24.8,62.6,60,37.9c4.6-3.3,9.4-6.2,14.4-8.8
		c7-3.8,14.4-6.8,22-9.4c7.2-2.3,14.7-4,22.4-5.2c6.2-0.8,12.5-1.3,18.9-1.4c25-0.1,48.5,6.6,68.8,18.3c3.7,2.1,7.1,4.3,10.5,6.8
		c16.2,11.5,29.8,26.5,39.7,43.9c1.1,2,2.2,3.9,3.2,6c0.8,1.8,1.7,3.5,2.5,5.3c2.6,5.8,4.8,11.7,6.6,17.8c2,6.8,3.5,13.9,4.3,21l0,0
		C274,137.6,274.4,143.1,274.4,148.7z"/>
</g>
<g id="Camada_2">
	<g>
		<g>
			<path class="st1" d="M174,162.2l1.8,0.9l15.2,7.6l1.7,0.9l26.5,13.3c0.8,0.4,1.7,0.7,2.5,0.9c0.7,0.1-4.3,2.6-3.6,2.6
				c3.7,0,12.9-4.5,14.7-8l7.5-14.9c4.3-8.5,2.7-10.3-2-12.6c-3.8-1.9-10.8,0.3-16.8-2.5c-0.7-0.3-1.4-0.7-2.1-1.2
				c-1.2-0.9-2.4-2.1-3.4-3.6c-3.4-4.9-2.8-13.1,0.6-20.4c0.3-0.6,0.5-1.1,0.8-1.7c0.2-0.5,0.4-0.9,0.7-1.3
				c3.9-7.2,10.2-12.7,16.2-12.9c11.6-0.4,9.2,13.8,14.3,16.4c4.6,2.3,12-0.3,16.2-8.8l0.3-0.6l1-2L277,92.8c1.8-3.6,1.3-7.8-1-10.8
				c-0.5-0.7-1.1-1.3-1.8-1.8c-0.5-0.4-1.1-0.8-1.7-1.1l-9-4.6l-2.7-1.4l-10.8-5.5c-8.5-4.3-8.3-6.7-6-11.3
				c2.6-5.1,13.9-7.6,13.5-19.2c0-0.6-0.1-1.2-0.2-1.8c-0.1-0.6-0.3-1.3-0.5-1.9c-1.9-5.2-7.2-10.2-13.5-13.3
				c-3.5-1.8-7.3-3-10.9-3.5c-0.8-0.1-1.6-0.2-2.4-0.2c-3.4-0.1-12.5,2.5-14.8,4.1c-9.6,6.6,1.2,15.4-1.4,20.5
				c-1.5,2.9-2.7,4.6-5.5,4.4c-0.7,0-1.6-0.2-2.6-0.5c-1.3-0.4-2.8-1-4.6-1.9l-5.2-2.6l-7.3-3.7c-0.4-0.2-0.8-0.4-1.3-0.6l-2.7-1.4
				c-3-1.5-12.8,0.8-15.5,2.1c-1.9,0.9,2.9,0.3,1.8,2.4l-10.4,20.7l-1.2,2.3l-8.7,17.3l-1,1.9l-10.3,20.4l-1.1,2.1L127,127.1
				c-2.5,5-0.5,11.2,4.5,13.7l32,16.1l6.9,3.5"/>
			<g>
				<path class="st2" d="M167.5,164.3l-3.7-1.8l3.1,2.7C167.1,164.9,167.3,164.6,167.5,164.3z"/>
				<g>
					<path class="st3" d="M215.9,156.6l10,18l-8.4,13.6c3.7,0,7.2-2.1,9-5.6l7.5-14.9c4.3-8.5,2.7-10.3-2-12.6
						c-3.8-1.9-10.8,0.3-16.8-2.5c-12.4,5.7-27.2,1.2-33.7-10.6L181,141l30.7-16.8c3.9-7.2,10.2-12.7,16.2-12.9
						c11.6-0.4,14.1,11,19.2,13.6c4.6,2.3,7,2.6,11.3-6l0.3-0.6l-22.7-33.5l31.6-2.4c-0.5-0.4-1.1-0.8-1.7-1.1l-9-4.6
						c-9.4,2.7-19.7-1.1-24.5-9.8c-5.6-10.1-1.7-22.9,8.7-28.6c2.9-1.6,6.1-2.4,9.2-2.6c-1.9-5.2-7.2-10.2-13.5-13.3
						c-3.5-1.8-7.3-3-10.9-3.5l9.6,17.2L202.9,54l-3.7-6.7c-1.3-0.4-2.8-1-4.6-1.9l-5.2-2.6c0.6,0.8,1.3,1.7,1.8,2.6
						c5.6,10.1,1.7,22.9-8.7,28.6c-10.4,5.7-23.4,2.1-29-8c-0.3-0.5-0.5-0.9-0.7-1.4L144.3,82l16.2,0.2l10,18L159.4,118l-21.1-0.2
						l-6.3-11.4l-11.5,22.8c-2.5,5-0.5,11.2,4.5,13.7l32,16.1l-29.3-25.5l0.6-0.7c9.4-10.6,25.8-11.4,36.7-1.9
						c10.2,8.9,11.9,23.9,4.3,34.4l15.2,7.6l10.3-16.5L215.9,156.6z M197.6,65l20.1-6.3l15.1,14.1l-5,20.4l-20.1,6.3l-15.1-14.1
						L197.6,65z M172,88.4l47.4,19.8l-41.7,30.1L172,88.4z"/>
					<g>
						<path class="st3" d="M169.2,37.1c-1.9,0.9-3.6,2.5-4.7,4.6l-10.4,20.7c0.3,1,0.7,1.9,1.2,2.8c5.1,9.1,16.9,12.4,26.3,7.2
							c9.4-5.2,13-16.8,7.9-25.9c-1.8-3.2-4.4-5.6-7.4-7.3c-0.4-0.2-0.8-0.4-1.3-0.6C177.3,36.9,173.2,36.3,169.2,37.1z"/>
						<path class="st3" d="M237.5,58.6c2.6-5.1,13.9-7.6,13.5-19.2c0-0.6-0.1-1.2-0.2-1.8c-3,0.1-6,0.9-8.8,2.4
							c-9.4,5.2-13,16.8-7.9,25.9c4,7.2,12.2,10.7,20.1,9.4L243.4,70C234.9,65.7,235.1,63.3,237.5,58.6z"/>
						<path class="st3" d="M207.3,43.5c-1.5,2.9-2.7,4.6-5.5,4.4l1.9,3.5l29-15.9l-9.2-16.6c-3.4-0.1-6.5,0.6-8.8,2.2
							C205.1,27.8,209.9,38.4,207.3,43.5z"/>
						<path class="st3" d="M269.5,84.2l-29.8,2.3l20.2,29.8L270.5,95C272.3,91.4,271.8,87.2,269.5,84.2z"/>
						<polygon class="st3" points="226.2,91.6 230.7,73.5 217.2,60.9 199.2,66.5 194.7,84.7 208.2,97.3 						"/>
						<path class="st3" d="M209.7,147.6c-3.4-4.9-2.8-13.1,0.6-20.4l-26.5,14.5c6,9.9,18.5,13.7,29.4,9.5
							C211.9,150.3,210.7,149.2,209.7,147.6z"/>
						<polygon class="st3" points="179.3,134.8 215.5,108.6 174.3,91.5 						"/>
						<path class="st3" d="M163.7,132.3c-9.8-8.6-24.5-8-33.3,1.1l33.4,29.2l3.7,1.8C174.8,154.6,173.3,140.6,163.7,132.3z"/>
						<polygon class="st3" points="139.5,115.8 158.3,116 168.2,100.1 159.3,84 143.3,83.9 133,104.2 						"/>
						<path class="st3" d="M214.7,158.5l-18.8-0.2l-9.6,15.4l26.5,13.3c0.8,0.4,1.7,0.7,2.5,0.9l8.3-13.4L214.7,158.5z"/>
					</g>
				</g>
				<path class="st4" d="M182.6,74c10.4-5.7,14.3-18.5,8.7-28.6c-0.5-0.9-1.1-1.8-1.8-2.6l-7.3-3.7c3,1.6,5.6,4.1,7.4,7.3
					c5.1,9.1,1.6,20.8-7.9,25.9c-9.4,5.2-21.2,1.9-26.3-7.2c-0.5-0.9-0.9-1.9-1.2-2.8l-1.2,2.3c0.2,0.5,0.4,0.9,0.7,1.4
					C159.3,76.1,172.3,79.7,182.6,74z"/>
				<path class="st4" d="M181,38.5l-2.7-1.4c-3-1.5-6.3-1.4-9-0.1C173.2,36.3,177.3,36.9,181,38.5z"/>
				<path class="st4" d="M232.4,67c4.8,8.7,15.1,12.5,24.5,9.8l-2.7-1.4c-7.9,1.4-16.1-2.2-20.1-9.4c-5.1-9.1-1.6-20.8,7.9-25.9
					c2.8-1.5,5.8-2.3,8.8-2.4c-0.1-0.6-0.3-1.3-0.5-1.9c-3.1,0.2-6.2,1-9.2,2.6C230.7,44.1,226.8,56.9,232.4,67z"/>
				<path class="st5" d="M181.5,141.9c6.5,11.8,21.3,16.2,33.7,10.6c-0.7-0.3-1.4-0.7-2.1-1.2c-10.9,4.3-23.4,0.4-29.4-9.5
					l26.5-14.5c0.3-0.6,0.5-1.1,0.8-1.7c0.2-0.5,0.4-0.9,0.7-1.3L181,141L181.5,141.9z"/>
				<path class="st6" d="M165,130.8c-10.9-9.5-27.3-8.6-36.7,1.9l-0.6,0.7L157,159l6.9,3.5l-33.4-29.2c8.7-9.1,23.5-9.6,33.3-1.1
					c9.5,8.3,11,22.3,3.8,32.1l1.8,0.9C177,154.7,175.3,139.8,165,130.8z"/>
				<path class="st5" d="M235.4,36.2l-9.6-17.2c-0.8-0.1-1.6-0.2-2.4-0.2l9.2,16.6l-29,15.9l-1.9-3.5c-0.7,0-1.6-0.2-2.6-0.5
					l3.7,6.7L235.4,36.2z"/>
				<path class="st7" d="M172,88.4l5.7,49.9l41.7-30.1L172,88.4z M179.3,134.8l-5-43.3l41.1,17.1L179.3,134.8z"/>
				<path class="st7" d="M258.8,118.3l1-2l-20.2-29.8l29.8-2.3c-0.5-0.7-1.1-1.3-1.8-1.8l-31.6,2.4L258.8,118.3z"/>
				<polygon class="st8" points="159.4,118 170.5,100.1 160.5,82.1 144.3,82 143.3,83.9 159.3,84 168.2,100.1 158.3,116 
					139.5,115.8 133,104.2 132,106.4 138.3,117.8 				"/>
				<path class="st8" d="M227.8,93.2l5-20.4l-15.1-14.1L197.6,65l-5,20.4l15.1,14.1L227.8,93.2z M194.7,84.7l4.5-18.2l18-5.6
					l13.5,12.6l-4.5,18.2l-18,5.6L194.7,84.7z"/>
				<path class="st8" d="M195.8,158.3l18.8,0.2l8.9,16.1l-8.3,13.4c0.7,0.1,1.4,0.2,2.2,0.2l8.4-13.6l-10-18l-21.1-0.2l-10.3,16.5
					l1.7,0.9L195.8,158.3z"/>
			</g>
		</g>
		<path class="st9" d="M129.5,117.9l-5.7,11.2c-2.3,4.4-0.5,9.8,4,12l13.3,6.6c2.1,1,4.3-1,3.5-3.2l-4.5-6.5
			c-3.1-4.5-5-9.7-5.5-15.1l-0.4-4.8C133.4,116.1,130.5,115.9,129.5,117.9z"/>
		<path class="st9" d="M201.6,178.5l11.2,5.7c4.4,2.3,9.8,0.5,12-4l6.6-13.3c1-2.1-1-4.3-3.2-3.5l-6.5,4.5c-4.5,3.1-9.7,5-15.1,5.5
			l-4.8,0.4C199.8,174.7,199.7,177.5,201.6,178.5z"/>
		<path class="st9" d="M222.1,21.4c-6,1.2-14.6,5.1-10.7,18.1c0.3,1.1,2,1.2,2.3,0.1c1.4-4.4,4.5-12,9.6-16.3
			C224.1,22.6,223.3,21.2,222.1,21.4z"/>
	</g>
	<path class="st10" d="M61.1,16.4l-38.5,87.9c-2.1,4.1-0.4,9.1,3.7,11.1l11.2,14.5c8.5,4.3,15.7-3.4,18-8c2.6-5.1-2.2-15.7,7.4-22.3
		c5.3-3.6,14.4-2.7,22.1,1.4c7.8,3.8,14,10.5,14.2,16.9c0.4,11.6-11,14.1-13.6,19.2c-2.3,4.6-2.6,7,6,11.3l18.1,17.7
		c4.1,2.1,16.5-4.3,18.6-8.4l12.2-24.3c4.3-8.5,6.7-8.3,11.3-6c5.1,2.6,0.8,18.7,12.4,18.3c6.4-0.2,19.9-11.2,23.7-19
		c4-7.7,5-16.8,1.4-22.1c-6.6-9.6-17.2-4.8-22.3-7.4c-4.6-2.3-6.2-4.1-1.9-12.6l9.2-18.1c2.1-4.1,0.4-9.1-3.7-11.1l-91-45.8
		C72.7,6.8,63.1,12.3,61.1,16.4z"/>
	<g>
		<path class="st11" d="M198.8,271.1c4.8-10.8,14.7-18.5,14.7-18.5l22,30c0.3,0.5,0.9,0.8,1.5,0.9h0c0.6,0.1,1.2-0.1,1.6-0.4
			l14.5-11c0.5-0.4,0.8-1,0.8-1.7l0,0c0-0.5-0.1-1-0.4-1.3l-22.6-29.3c0,0,10.6-6.6,22.4-7.5c10.1-0.7-49.9-32-67.7-41.2
			c-2.1-1.1-4.4,0.6-4.1,2.9C184.4,213.8,194.6,280.3,198.8,271.1z"/>
		<path class="st12" d="M206,235.3c-3.2-6.4-7.4-17.7-9.7-22.6c-2.9-6.1-5.2-10.2-7-12.1c-0.7-0.8-1.9,0-1.7,1.2
			c0.3,3,1.2,9.1,3.7,21.6c0,0,0,0.1,0,0.1c0.6,5.2,5.9,33.7,6.9,36.1c0.8,6.4,5.4-8.8,12.2-13.1c0,0,0.1,0,0.1,0"/>
		<path class="st13" d="M202.5,241.3c-1.5-3.7-3.5-10.3-4.7-13.2c-1.4-3.5-2.5-5.9-3.4-7.1c-0.4-0.5-0.9,0-0.8,0.7
			c0.2,1.7,0.6,5.3,1.8,12.6c0,0,0,0,0,0.1c0.3,3,2.9,19.6,3.3,21.1c0.4,3.8,2.5-5.1,5.8-7.6c0,0,0,0,0,0"/>
	</g>
	<g>
		<g>
			<path class="st14" d="M135.8,263l44.2-87.7c2.5-5,0.5-11.2-4.5-13.7l-14.9-7.5c-8.5-4.3-17.3-2.3-19.7,2.3
				c-2.6,5.1,9.3,15.3-0.3,21.9c-5.3,3.6-14.4,2.7-22.1-1.4c-7.8-3.8-14-10.5-14.2-16.9c-0.4-11.6,11-14.1,13.6-19.2
				c2.3-4.6,2.6-7-6-11.3l-23.9-12c-5-2.5-18.2,0.6-20.7,5.7l-4.4,21.4c-4.3,8.5-6.7,8.3-11.3,6c-5.1-2.6-7.5-14-19.2-13.6
				c-6.4,0.2-17.8,4.4-21.6,12.2c-4,7.7-0.4,18.8,3.3,24.1c6.6,9.6,17.2,4.8,22.3,7.4c4.6,2.3,6.2,4.1,1.9,12.6L30,209.7
				c-2.5,5-0.5,11.2,4.5,13.7l81.5,48.2C121,274.1,133.2,268,135.8,263z"/>
			<g>
				<path class="st8" d="M141,175.1l18-10l13.6,8.5c0-3.7-2.1-7.2-5.6-9l-14.9-7.5c-8.5-4.3-10.3-2.7-12.6,1.9
					c-1.9,3.8,0.3,10.8-2.5,16.8c5.7,12.4,1.2,27.2-10.6,33.7l-0.8,0.5l-16.8-30.7C101.5,175.3,96,169,95.7,163
					c-0.4-11.6,11-14.1,13.6-19.2c2.3-4.6,2.6-7-6-11.3l-0.6-0.3l-33.5,22.6l-2.4-31.6c-0.4,0.5-0.8,1.1-1.1,1.7l-4.6,9
					c2.7,9.4-1.1,19.7-9.8,24.5c-10.1,5.6-22.9,1.7-28.6-8.7c-1.6-2.9-2.4-6.1-2.6-9.2C15,142.5,10,147.8,7,154.1
					c-1.8,3.5-3,7.3-3.5,10.9l17.2-9.5L38.4,188l-6.7,3.7c-0.4,1.3-1,2.8-1.9,4.6l-2.6,5.1c0.8-0.6,1.7-1.3,2.6-1.8
					c10.1-5.6,22.9-1.7,28.6,8.7c5.7,10.4,2.1,23.4-8,29c-0.5,0.3-0.9,0.5-1.4,0.7l17.3,8.7l0.2-16.2l18-10l17.8,11.1l-0.2,21.1
					L90.8,259l22.8,11.5c5,2.5,11.2,0.5,13.7-4.5l16.1-32l-25.6,29.3l-0.7-0.6c-10.5-9.4-11.4-25.8-1.9-36.7
					c8.9-10.2,23.9-11.9,34.4-4.3l7.6-15.2l-16.5-10.3L141,175.1z M49.4,193.4l-6.3-20.1l14.1-15.1l20.4,5l6.3,20.1l-14.1,15.1
					L49.4,193.4z M72.8,218.9l19.8-47.4l30.1,41.7L72.8,218.9z"/>
				<path class="st8" d="M21.5,221.7c0.9,1.9,2.5,3.6,4.6,4.7l20.7,10.4c1-0.3,1.9-0.7,2.8-1.2c9.1-5.1,12.4-16.9,7.2-26.3
					c-5.2-9.4-16.8-13-25.9-7.9c-3.2,1.8-5.6,4.3-7.3,7.4c-0.2,0.4-0.4,0.8-0.6,1.3C21.3,213.6,20.7,217.7,21.5,221.7z"/>
				<path class="st8" d="M43.1,153.5c-5.1-2.6-7.5-14-19.2-13.6c-0.6,0-1.2,0.1-1.8,0.2c0.1,3,0.9,6,2.4,8.8
					c5.2,9.4,16.8,13,25.9,7.9c7.2-4,10.7-12.2,9.4-20.1l-5.5,10.8C50.1,156,47.7,155.8,43.1,153.5z"/>
				<path class="st8" d="M27.9,183.6c2.9,1.5,4.6,2.7,4.4,5.5l3.5-1.9l-15.9-29l-16.6,9.2c-0.1,3.4,0.6,6.5,2.2,8.8
					C12.2,185.8,22.8,181,27.9,183.6z"/>
				<path class="st8" d="M68.7,121.5l2.3,29.8l29.8-20.1l-21.3-10.7C75.9,118.6,71.7,119.1,68.7,121.5z"/>
				<polygon class="st8" points="76.1,164.7 57.9,160.3 45.4,173.8 51,191.7 69.1,196.2 81.7,182.7 				"/>
				<path class="st8" d="M132.1,181.3c-4.9,3.4-13.1,2.8-20.4-0.6l14.5,26.5c9.9-6,13.8-18.5,9.5-29.4
					C134.8,179.1,133.6,180.2,132.1,181.3z"/>
				<polygon class="st8" points="119.2,211.6 93.1,175.5 75.9,216.6 				"/>
				<path class="st2" d="M148.7,223.4l-1.8,3.7l2.7-3.1C149.3,223.8,149,223.7,148.7,223.4z"/>
				<path class="st8" d="M116.7,227.2c-8.6,9.8-8,24.5,1,33.3l29.2-33.4l1.8-3.7C139,216.2,125,217.7,116.7,227.2z"/>
				<polygon class="st8" points="100.2,251.5 100.4,232.6 84.5,222.7 68.4,231.7 68.3,247.6 88.6,257.9 				"/>
				<path class="st8" d="M142.9,176.3l-0.2,18.8l15.4,9.6l13.4-26.5c0.4-0.8,0.7-1.7,0.9-2.5l-13.4-8.3L142.9,176.3z"/>
				<path class="st4" d="M58.4,208.3c-5.7-10.4-18.5-14.3-28.6-8.7c-0.9,0.5-1.8,1.1-2.6,1.8l-3.7,7.3c1.6-3,4.1-5.6,7.3-7.4
					c9.1-5.1,20.8-1.5,25.9,7.9c5.2,9.4,1.9,21.2-7.2,26.3c-0.9,0.5-1.9,0.9-2.8,1.2l2.3,1.2c0.5-0.2,0.9-0.4,1.4-0.7
					C60.5,231.7,64.1,218.7,58.4,208.3z"/>
				<path class="st4" d="M22.9,209.9l-1.4,2.7c-1.5,3-1.4,6.3-0.1,9C20.7,217.7,21.3,213.6,22.9,209.9z"/>
				<path class="st4" d="M51.4,158.5c8.7-4.8,12.5-15.1,9.8-24.5l-1.4,2.7c1.4,7.9-2.2,16.1-9.4,20.1c-9.1,5.1-20.8,1.5-25.9-7.9
					c-1.5-2.8-2.3-5.8-2.4-8.8c-0.6,0.1-1.3,0.3-1.9,0.5c0.2,3.1,1,6.2,2.6,9.2C28.5,160.2,41.4,164.1,51.4,158.5z"/>
				<path class="st6" d="M126.3,209.5c11.8-6.5,16.3-21.3,10.6-33.7c-0.3,0.7-0.7,1.4-1.2,2.1c4.3,10.9,0.4,23.4-9.5,29.4
					l-14.5-26.5c-0.6-0.3-1.1-0.5-1.7-0.8c-0.5-0.2-0.9-0.4-1.3-0.7l16.8,30.7L126.3,209.5z"/>
				<path class="st6" d="M115.2,225.9c-9.5,10.9-8.7,27.3,1.9,36.7l0.7,0.6l25.6-29.3l3.5-6.9l-29.2,33.4c-9.1-8.8-9.6-23.5-1-33.3
					c8.3-9.5,22.3-11,32.1-3.8l0.9-1.8C139.1,214,124.2,215.7,115.2,225.9z"/>
				<path class="st5" d="M20.7,155.5L3.5,165c-0.1,0.8-0.2,1.6-0.2,2.4l16.6-9.2l15.9,29l-3.5,1.9c0,0.7-0.2,1.6-0.5,2.6l6.7-3.7
					L20.7,155.5z"/>
				<path class="st7" d="M72.8,218.9l49.9-5.7l-30.1-41.7L72.8,218.9z M119.2,211.6l-43.3,4.9l17.2-41.1L119.2,211.6z"/>
				<path class="st7" d="M102.8,132.2l-2-1l-29.8,20.1l-2.3-29.8c-0.7,0.5-1.3,1.1-1.8,1.8l2.4,31.6L102.8,132.2z"/>
				<polygon class="st3" points="102.4,231.5 84.5,220.4 66.5,230.5 66.3,246.7 68.3,247.6 68.4,231.7 84.5,222.7 100.4,232.6 
					100.2,251.5 88.6,257.9 90.8,259 102.2,252.7 				"/>
				<path class="st3" d="M77.6,163.1l-20.4-5l-14.1,15.1l6.3,20.1l20.4,5l14.1-15.1L77.6,163.1z M69.1,196.2L51,191.7l-5.6-18
					l12.6-13.5l18.2,4.5l5.6,18L69.1,196.2z"/>
				<path class="st3" d="M142.7,195.1l0.2-18.8l16.1-8.9l13.4,8.3c0.1-0.7,0.2-1.4,0.2-2.2l-13.6-8.5l-18,10l-0.2,21.1l16.5,10.3
					l0.9-1.7L142.7,195.1z"/>
			</g>
		</g>
		<path class="st9" d="M30.2,201.5l-5.7,11.2c-2.3,4.4-0.5,9.8,4,12l13.3,6.6c2.1,1,4.3-1,3.5-3.2l-4.5-6.5c-3.1-4.5-5-9.7-5.5-15.1
			l-0.4-4.8C34,199.7,31.2,199.5,30.2,201.5z"/>
		<path class="st9" d="M102.1,262.2l11.2,5.7c4.4,2.3,9.8,0.5,12-4l6.6-13.3c1-2.1-1-4.3-3.2-3.5l-6.5,4.5c-4.5,3.1-9.7,5-15.1,5.5
			l-4.8,0.4C100.3,258.4,100.2,261.2,102.1,262.2z"/>
		<path class="st9" d="M5.1,168.4c1.2,6,5.1,14.6,18.1,10.7c1.1-0.3,1.2-2,0.1-2.3c-4.4-1.4-12-4.5-16.3-9.6
			C6.3,166.4,4.9,167.2,5.1,168.4z"/>
	</g>
	<g>
		<g>
			<path class="st4" d="M45.9,110.5l-18,10L14.3,112c0,3.7,2.1,7.2,5.6,9l14.9,7.5c8.5,4.3,10.3,2.7,12.6-2
				c1.9-3.8-0.3-10.8,2.5-16.8c-5.7-12.4-1.2-27.2,10.6-33.7l0.8-0.5l16.8,30.7c7.2,3.9,12.7,10.2,12.9,16.2
				c0.4,11.6-11,14.1-13.6,19.2c-2.3,4.6-2.6,7,6,11.3l0.6,0.3l33.5-22.7l2.4,31.6c0.4-0.5,0.8-1.1,1.1-1.7l4.6-9
				c-2.7-9.4,1.1-19.7,9.8-24.5c10.1-5.6,22.9-1.7,28.6,8.7c1.6,2.9,2.4,6.1,2.6,9.2c5.2-1.9,10.2-7.2,13.3-13.5
				c1.8-3.5,3-7.3,3.5-10.9l-17.2,9.6l-17.8-32.5l6.7-3.7c0.4-1.3,1-2.8,1.9-4.6l2.6-5.2c-0.8,0.6-1.7,1.3-2.6,1.8
				c-10.1,5.6-22.9,1.7-28.6-8.7c-5.7-10.4-2.1-23.4,8-29c0.5-0.3,0.9-0.5,1.4-0.7l-17.3-8.7l-0.2,16.2l-18,10L84.5,54l0.2-21.1
				l11.4-6.3L73.2,15.1c-5-2.5-11.2-0.5-13.7,4.5l-16.1,32L69,22.3l0.7,0.6c10.6,9.4,11.4,25.8,1.9,36.7
				c-8.9,10.2-23.9,11.9-34.4,4.3l-7.6,15.2l16.5,10.3L45.9,110.5z M137.4,92.1l6.3,20.1l-14.1,15.1l-20.4-5l-6.3-20.1l14.1-15.1
				L137.4,92.1z M114,66.6L94.3,114L64.1,72.3L114,66.6z"/>
			<path class="st4" d="M165.4,63.8c-0.9-1.9-2.5-3.6-4.6-4.7l-20.7-10.4c-1,0.3-1.9,0.7-2.8,1.2c-9.1,5.1-12.4,16.9-7.2,26.3
				c5.2,9.4,16.8,13,25.9,7.9c3.2-1.8,5.6-4.4,7.3-7.4c0.2-0.4,0.4-0.8,0.6-1.3C165.6,71.9,166.1,67.8,165.4,63.8z"/>
			<path class="st4" d="M143.8,132c5.1,2.6,7.6,13.9,19.2,13.5c0.6,0,1.2-0.1,1.8-0.2c-0.1-3-0.9-6-2.4-8.8
				c-5.2-9.4-16.8-13-25.9-7.9c-7.2,4-10.7,12.2-9.4,20.1l5.5-10.8C136.8,129.5,139.2,129.7,143.8,132z"/>
			<path class="st4" d="M159,101.9c-2.9-1.5-4.6-2.7-4.4-5.5l-3.5,1.9l15.9,29l16.6-9.2c0.1-3.4-0.6-6.5-2.2-8.8
				C174.7,99.7,164.1,104.5,159,101.9z"/>
			<path class="st4" d="M118.3,164.1l-2.3-29.8l-29.8,20.2l21.3,10.7C111.1,166.9,115.2,166.4,118.3,164.1z"/>
			<polygon class="st4" points="110.8,120.8 129,125.3 141.5,111.7 135.9,93.8 117.8,89.3 105.2,102.8 			"/>
			<path class="st4" d="M54.8,104.3c4.9-3.4,13.1-2.8,20.4,0.6L60.7,78.3c-9.9,6-13.7,18.5-9.5,29.4
				C52.1,106.5,53.3,105.3,54.8,104.3z"/>
			<polygon class="st4" points="67.7,73.9 93.8,110.1 111,68.9 			"/>
			<path class="st2" d="M38.1,62.1l1.8-3.7l-2.7,3.1C37.6,61.7,37.9,61.9,38.1,62.1z"/>
			<path class="st4" d="M70.2,58.3c8.6-9.8,8-24.5-1.1-33.3L40,58.5l-1.8,3.7C47.9,69.4,61.9,67.9,70.2,58.3z"/>
			<polygon class="st4" points="86.6,34.1 86.4,52.9 102.3,62.8 118.4,53.9 118.6,37.9 98.2,27.6 			"/>
			<path class="st4" d="M44,109.3l0.2-18.8l-15.4-9.6l-13.3,26.5c-0.4,0.8-0.7,1.7-0.9,2.5l13.4,8.3L44,109.3z"/>
			<path class="st8" d="M128.4,77.2c5.7,10.4,18.5,14.3,28.6,8.7c0.9-0.5,1.8-1.1,2.6-1.8l3.7-7.3c-1.6,3-4.1,5.6-7.3,7.4
				c-9.1,5.1-20.8,1.6-25.9-7.9c-5.2-9.4-1.9-21.2,7.2-26.3c0.9-0.5,1.9-0.9,2.8-1.2l-2.3-1.2c-0.5,0.2-0.9,0.4-1.4,0.7
				C126.3,53.8,122.8,66.8,128.4,77.2z"/>
			<path class="st4" d="M164,75.5l1.4-2.7c1.5-3,1.4-6.3,0.1-9C166.1,67.8,165.6,71.9,164,75.5z"/>
			<path class="st8" d="M135.5,127c-8.7,4.8-12.5,15.1-9.8,24.5l1.4-2.7c-1.4-7.9,2.2-16.1,9.4-20.1c9.1-5.1,20.8-1.6,25.9,7.9
				c1.5,2.8,2.3,5.8,2.4,8.8c0.6-0.1,1.3-0.3,1.9-0.5c-0.2-3.1-1-6.2-2.6-9.2C158.4,125.3,145.5,121.4,135.5,127z"/>
			<path class="st6" d="M60.6,76.1C48.8,82.6,44.3,97.4,50,109.8c0.3-0.7,0.7-1.4,1.2-2.1c-4.3-10.9-0.4-23.4,9.5-29.4l14.5,26.5
				c0.6,0.3,1.1,0.5,1.7,0.8c0.5,0.2,0.9,0.4,1.3,0.7L61.4,75.6L60.6,76.1z"/>
			<path class="st6" d="M71.6,59.6c9.5-10.9,8.6-27.3-1.9-36.7L69,22.3L43.5,51.5L40,58.5L69.1,25c9.1,8.7,9.6,23.5,1.1,33.3
				c-8.3,9.5-22.3,11-32.1,3.8l-0.9,1.8C47.7,71.5,62.7,69.8,71.6,59.6z"/>
			<path class="st5" d="M166.2,130l17.2-9.6c0.1-0.8,0.2-1.6,0.2-2.4l-16.6,9.2l-15.9-29l3.5-1.9c0-0.7,0.2-1.6,0.5-2.6l-6.7,3.7
				L166.2,130z"/>
			<path class="st7" d="M114,66.6l-49.9,5.7L94.3,114L114,66.6z M67.7,73.9l43.3-5l-17.1,41.1L67.7,73.9z"/>
			<path class="st7" d="M84.1,153.4l2,1l29.8-20.2l2.3,29.8c0.7-0.5,1.3-1.1,1.8-1.8l-2.4-31.6L84.1,153.4z"/>
			<polygon class="st3" points="84.5,54 102.3,65.1 120.4,55.1 120.5,38.8 118.6,37.9 118.4,53.9 102.3,62.8 86.4,52.9 86.6,34.1 
				98.2,27.6 96.1,26.6 84.7,32.9 			"/>
			<path class="st3" d="M109.3,122.4l20.4,5l14.1-15.1l-6.3-20.1l-20.4-5L103,102.3L109.3,122.4z M117.8,89.3l18.2,4.5l5.6,18
				L129,125.3l-18.2-4.5l-5.6-18L117.8,89.3z"/>
			<path class="st3" d="M44.1,90.4L44,109.3l-16.1,8.9l-13.4-8.3c-0.1,0.7-0.2,1.4-0.2,2.2l13.6,8.4l18-10l0.2-21.1L29.6,79.1
				l-0.9,1.7L44.1,90.4z"/>
		</g>
		<path class="st9" d="M107.6,162.8l-21.1-11.3c-3.6-2.6-7.9-4.7-5.7-8.6l5.2-4.4c2.2-1.6,4.1-3.7,5.3-6.1l2.4-4.7
			c1.3-2.3,3.2-2.5,4,0l14.5,31.8C113,162.2,109.9,164.5,107.6,162.8z"/>
		<path class="st9" d="M24.1,96.9l-5.7,11.2c-2.3,4.4-0.5,9.8,4,12l13.3,6.6c2.1,1,4.3-1,3.5-3.2l-4.5-6.5c-3.1-4.5-5-9.7-5.5-15.1
			l-0.4-4.8C27.9,95.1,25.1,95,24.1,96.9z"/>
		<path class="st9" d="M150.6,136c3,5.3,9.5,12.2,20.6,4.3c0.9-0.7,0.5-2.2-0.6-2.2c-4.6,0.1-12.8-0.4-18.5-3.8
			C151,133.7,150,134.9,150.6,136z"/>
	</g>
	<g>
		<line class="st15" x1="140.4" y1="221" x2="167.7" y2="220.3"/>
		<line class="st15" x1="140" y1="190.8" x2="166.2" y2="198.6"/>
		<line class="st15" x1="228" y1="162.9" x2="217.4" y2="188.2"/>
		<line class="st15" x1="200" y1="151.6" x2="197.8" y2="178.9"/>
		<line class="st15" x1="161.4" y1="161" x2="177.8" y2="182.9"/>
	</g>
</g>
<g id="Camada_3" class="st16">
	<g id="Camada_17" class="st17">
		<g>
			<path class="st18" d="M55,411.7c2.3-4.5,4-9.1,5.1-13.8c0.1-0.4,0.2-0.8,0.3-1.1C73.1,346.9,35.8,294.3-23,279.3
				c-57.7-14.7-114.6,12.3-128.7,60.5v-0.1c-3.4,9.4-4,19.9-2.8,30.7c0.3,3.2,0.8,6.5,1.5,9.7c4.3,21.3,14.3,42.5,22,56.5
				c1.9,6.4,5.4,12,9.9,16.7l0,0l0,0c10.4,10.7,26.5,16.3,42.3,13.2c3-0.6,7.8,0.6,7.8,0.6s4.9,1.3,7.2,3.3
				c10.3,8.5,24.6,12.6,38.8,9.9c9-1.8,16.6-6,22.2-11.9c11.9-7.7,27.6-19.2,40.5-33C44.9,428.5,50.7,420.6,55,411.7z"/>
			<path class="st19" d="M-6.1,318.8c0,0,34.2-4.2-32.1-15.9c-55.8-9.9-36.5-7.2-36.5-7.2S-54.8,337.6-6.1,318.8z"/>
			<path class="st20" d="M35.6,405.2c0,0-8.4,35-42.2,55.5c0,0-13.1,7.5-21.4-1.1c-8.2-8.6,4.5-19.3,4.5-19.3S8.3,414.7,12,401.5
				c4.3-15.2,15.9-10.9,15.9-10.9S38.9,393.1,35.6,405.2z"/>
			<path class="st21" d="M-61.3,305c0,0-1.8-4.6,14.5-3.5c3.4,0.2,8.6,1.4,8.6,1.4s-33.6-28-51.8-22.2c-22.3,7-30.3,11.1-50.1,35.2
				c-19.8,24.1-2,94.3,1.2,81.5s-15.2-43,17.3-82C-108.1,300.3-61.3,305-61.3,305L-61.3,305"/>
			<path class="st21" d="M-6.4,318.5c0,0,3.8-3.1-10.9-10.1c-3.1-1.5-8.2-3-8.2-3s45.6-8.8,58.6,5c16,17.1,25.9,30.7,29.8,61.2
				c5.9,46.3-40.7,78.5-40.7,78.5c3.5-12.7,49.7-44.2,22.4-100.8C26.9,323.6-6.4,318.5-6.4,318.5L-6.4,318.5"/>
			<path class="st20" d="M-124.7,426.8c4.8,26.4,26.4,31.6,30.8,31.5c12.5-0.3,8.6-12.6,8.6-12.6s-12.3-73.9,18.8-101.2
				c21.4-18.8,66.3-9.8,60.4-25.8c0,0-41.9-3.5-55.2-13.8c0,0-52.5-19.5-73.7,30.2C-135,335.2-145.7,358.7-124.7,426.8z"/>
			<path class="st22" d="M29.3,352.6"/>
			<path class="st22" d="M29,351.3"/>
			<path class="st22" d="M-7.6,336.8"/>
			<path class="st22" d="M-30.9,339.7"/>
			<path class="st20" d="M-101,382.1"/>
			<path class="st20" d="M-135,335.2c0,0-26,32.7,12.7,99.6c13.8,23.9,24.1,23.6,28.5,23.5"/>
			<path class="st23" d="M-105.2,250.7c-4.5-14.6,45.8,7.4,45.8,7.4c-0.5-3.7,4.7-0.2,4.7-0.2c16.3,8.6,10.4,33.6,14.9,39.6
				c2,2.7,3.9,6.7,4,10.1c0.2,1.1,1.4,2.1,1.4,2.9L-35,311c-0.1,1.2,4.2,2.1,0.7,1.8l-3.3,1.2c0,0-1.2-12.6-5.3-11.5
				c-3.8,1.1-23.1,15.2-27.8,7.6c0,0-31.9,10.1-30.3,3.2c0,0-39.2,5.1-36.8-10.2c-8.4-2.5-8-6.1-8.3-7.9c-0.7-3.5,1.3-6.3,1.3-6.3
				c-16.8-7.5,15.8-26.1,15.8-26.1C-138.7,255.7-105.2,250.7-105.2,250.7z"/>
			<g>
				<path class="st24" d="M-43.4,296.1c-12.1-4.3-25.1,12.2-25.1,12.2c4.4,7.1,22.2-8.2,26.1-7.3c3.8,0.8,4.9,8.9,5,9.2
					c-0.1,0.1,0,0,0,0l0,0C-37.3,307.6-38.1,302.7-43.4,296.1z"/>
				<path class="st24" d="M-102.6,309.7c0,0,19-32.8,39-29c-12.1-7.8-25.3-10.5-39.8-7.4h-0.1c-0.3,0.1-0.7,0.1-1,0.2
					c-0.1,0-0.1,0-0.1,0c-10.5,3.1-28,26.8-28,26.8C-141,312-102.6,309.7-102.6,309.7z"/>
				<path class="st24" d="M-100.2,252c0,0,9.6,9.9,33.9,23.8c0.6,0.3,1.2,0.7,1.8,1c0.1,0.1,0.2,0.1,0.3,0.2c0.5,0.3,1,0.6,1.5,0.9
					c7.2,4.6,12.2,8.9,15.8,12.7c-9.9-13.3-14.4-30.7-14.4-30.7S-106.3,242.8-100.2,252z"/>
				<path class="st24" d="M-124.7,277.1c6.6-2.7,19.8-8.3,29.5-7.3c-5.3-1.6-31.4-4.9-31.4-4.9s-29.6,15.5-15.4,22.3
					C-142,287.2-126.9,278-124.7,277.1z"/>
			</g>
			<path class="st25" d="M-8.8,267.2c0,0-0.8-6-4.8-3.7c-4.1,2.3-4.7-2.7-6.3,5.1c-1.6,7.8-2.4,6.9-5,12s-12.2,26-12.7,33.4l5.3,1.1
				c0,0,1.2-9.3,4.1-15.1c2.9-5.8,6.6-16.5,11.9-21.2c5.3-4.7,5.5-2.9,8.3-6.5C-5.4,268.6-6,266.8-8.8,267.2z"/>
			<path class="st26" d="M-78,305.4"/>
			<path class="st27" d="M56.1,332.5"/>
			<path class="st24" d="M-46.1,294.2c0,0-13.6-11.6-14.6-11.7c-1-0.1-7.2-1.8-18.4,5.3c0,0-10.4,6.5-17.6,18.9
				c-2.4,3.5-1.7,3.5-1.7,3.5s-1.3,3.7,8.9,2.2c10.7-1.6,18.9-5.7,18.9-5.7s0.8-1.2,4.8-4.8C-61.6,298.2-53,291-46.1,294.2z"/>
			<path class="st24" d="M-110,273.7c0,0-5.8,0-31.4,15.6c0,0-2.9,4.5-0.7,6.8c2.1,2.3,6.3,3.8,6.3,3.8S-126.1,285.6-110,273.7z"/>
			<g>
				<path class="st28" d="M-157.1,301.2c-1.3,14.2-9.5,26.8-9.5,26.8l-46.6-33.7l-2.2,0.4l-13.5,20.1l0.7,2l46.9,32.4
					c0,0-9.5,11.7-22.6,17.2c-13.1,5.6,99.6,21.4,99.6,21.4S-155.8,287-157.1,301.2z"/>
				<path class="st23" d="M-133.7,363.7c-3.3,6.7-15.6,20-15.6,20l-4.3-0.6c0.3,6.5,12.9,7,21.6,8c4.8,0.6-0.8,12.1,1.7,18.6
					c0,0,1.8,3.9,5.8,3.2c4.3-0.8,4.1-5.9,4.1-5.9c0.3-6.7-6.1-14.1-2.4-14.9c3.6-0.7,6.3,0.1,8.7,1.8c4,2.9-0.7,18.3,1.6,22.3
					c0,0,2,3.3,5.9,2.6c4.3-0.8,4.4-3.9,4.5-4.4c0.7-4.5-5.6-17.5-3.2-16.8c7.7,2.3,11.9,2.1,12.3-5.4s-29.6-58.9-31.6-60.9
					c-2-1.9-6.1,1.1-6.1,1.1l2.4,4.3C-128.3,336.8-128.4,352.8-133.7,363.7z"/>
				<path class="st29" d="M-105.9,415.6c0.1-0.6-1.5-2.5-1.9-4.9c-0.9-4.7-0.6-9-0.6-9s0.2-1.4-1.2-1.4c-1.2,0-1.2,1.4-1.2,1.4
					c-2.1,11.5-0.2,14.2-0.2,14.2s1,2.6,3.8,2C-105.9,417.5-105.9,415.6-105.9,415.6z"/>
				<path class="st29" d="M-125.6,407.7c-0.8-2.5-0.8-2.4-0.9-4.4c-0.2-2.8-0.1-4.4-0.1-5.3c0-1.3-1.1-1.1-1.1-1.1s-1.1-0.1-1.3,1
					c-1.2,8.3-0.5,9.6-0.5,9.6s0.6,3.5,2.9,3.5C-124.7,410.9-125.6,407.7-125.6,407.7z"/>
				<path class="st29" d="M-125.6,350.2L-125.6,350.2c0,0,3.8,2.4,2.2,9.2c-3.2,13.2,0.1,20-0.3,24.6c-0.3,4.7-3.3,4.5-3.3,4.5
					s-7.4-1-12.3-1.4c-5-0.5-5-1-5-1s-2.4-1.1-0.6-3.5c10-13.3,14.5-14.9,17.6-31.1C-127,349.8-125.6,350.2-125.6,350.2z"/>
			</g>
			<path class="st23" d="M-96.7,315.7c0,0,7.2-0.7,9.1,3.7c1.9,4.5-4.3,12.2-4.3,18.7c0,7.6,7.4,7.6,7.4,7.6s7.7,0,7.7-7.5
				c0-6.4-9.5-19.2,3.2-27.2"/>
			<path class="st29" d="M-84.3,338.9c0,0,0.1,3.6-2.7,3.6c-2.5,0-2.8-3.1-2.8-3.1s-1-2.8,3-11.6c0.5-1.7,0.9,0,0.9,0L-84.3,338.9z"
				/>
			<path class="st24" d="M-42.9,293.4c0,0-9.3-13.6-14.1-28c-3.1-9.2,2.7-2.9,2.7-2.9s6.4,6.1,8.3,15.5
				C-44.1,287.4-42.9,293.4-42.9,293.4z"/>
			<path class="st24" d="M-91.5,268.7c0,0,12.8,2.6,15.7,3.7c0,0-11.3-5.5-26.7-19.3c0,0-30.6,3.8-24.6,8.7c0,0,3.8,1.5,10,1.8
				C-105,264.2-91.5,268.7-91.5,268.7z"/>
			<path id="XMLID_00000008143773266059952240000006646935264521187765_" class="st20" d="M35.9,363.5c-1.9-4.2-3.8-7.9-3.8-7.9
				l-1-1.9l-1.3,1.7c0,0-2.6,3.3-5.1,7.2c-3.6,5.4-5.4,9.1-5.6,11.4c-0.5,5.6,3.7,10.6,9.3,11c5.6,0.5,10.6-3.7,11-9.3
				C39.6,373.3,38.5,369.4,35.9,363.5z"/>
			<path id="XMLID_00000011737199486872418070000001742304438659982513_" class="st29" d="M24.9,381.1c-5.4-3.4-2.6-8.8-2.6-8.8
				l2.9-6c0,0,1.5-2.4,1.8,2.2c0.3,4.6,2,9.1,2,9.1S30.9,383.1,24.9,381.1z"/>
			<path class="st29" d="M-123.6,421.3l7.7,15c0,0,6.1,16.9,22.3,17.5c0,0,7.4-1.3,3.2-10c-2.3-4.8-8-8-8-8
				S-112.6,430.6-123.6,421.3z"/>
		</g>
	</g>
	<g id="Camada_18_00000017486386151836411220000008560852346363373711_" class="st17">
		<path class="st29" d="M-5,429.9l-15.9,15c0,0-7.7,6-3.1,12.8c0,0,4.2,4.7,8.2,2.5c4-2.2,4.3-13.8,4.3-13.8S-11.8,437.9-5,429.9z"
			/>
	</g>
	<g class="st17">
		<path class="st30" d="M76.5,277.9l-5.7,20.2c-1.5,5.2-0.9,10.8,1.8,15.5l85.1,152.5c4.9,8.9,15.3,14.9,23.2,13.4l102.8-19.1
			c6.4-1.2,11.8-5.3,14.6-11.2l11.1-23.3c2.7-5.6,2.5-12.1-0.6-17.5L218.3,251c-4.1-7.1-12.3-10.8-20.4-9.1L90.1,265.1
			C83.6,266.6,78.3,271.5,76.5,277.9z"/>
		<g>
			<g>
				<path class="st31" d="M70.2,306.5l88.4,158.1c4.9,8.8,15.3,14.8,23.1,13.3l108.2-19.9l0.4-0.1l-0.5,0.3l-108,19.8
					c-0.8,0.1-1.6,0.2-2.5,0.2c-7.5,0-16.4-5.7-20.9-13.7l-88-157.6"/>
			</g>
			<g>
				<path class="st31" d="M70,303l89.3,160.1c4.9,8.8,15.3,14.8,23.1,13.4l110.9-20.6l-0.3,0.3l-110.6,20.6
					c-0.8,0.2-1.6,0.2-2.5,0.2c-7.5,0-16.4-5.7-20.9-13.7L70,303.4"/>
			</g>
			<g>
				<path class="st31" d="M70.2,300.8l89.9,160.7c4.9,8.8,15.3,14.8,23.1,13.3L295,454.1l-0.3,0.3l-111.5,20.8
					c-0.8,0.1-1.6,0.2-2.5,0.2c-7.5,0-16.4-5.7-20.9-13.7L70.1,301.2"/>
			</g>
			<g>
				<path class="st31" d="M70.6,298.7L160.8,460c4.9,8.8,15.3,14.8,23.1,13.3l112.3-20.8l-0.2,0.2L184,473.6
					c-0.8,0.2-1.6,0.2-2.5,0.2c-7.5,0-16.4-5.7-20.9-13.7L70.5,299"/>
			</g>
			<g>
				<path class="st31" d="M71.2,296.8l90.5,161.7c4.9,8.8,15.3,14.8,23.1,13.3L297.3,451l-0.1,0.2l-112.4,20.9
					c-0.8,0.2-1.6,0.2-2.5,0.2c-7.5,0-16.4-5.7-20.9-13.7L71.1,297.1"/>
			</g>
			<g>
				<path class="st31" d="M71.7,295l90.7,162c4.9,8.8,15.3,14.8,23.1,13.3l112.7-20.9l-0.1,0.3l-112.5,20.9
					c-0.8,0.1-1.6,0.2-2.5,0.2c-7.5,0-16.4-5.7-20.9-13.7L71.6,295.3"/>
			</g>
			<g>
				<path class="st31" d="M72.2,293.4l91,162.1c4.9,8.8,15.3,14.8,23.1,13.4l112.6-20.9l-0.1,0.3l-112.4,20.9
					c-0.8,0.2-1.6,0.2-2.5,0.2c-7.5,0-16.4-5.7-20.9-13.7L72.1,293.7"/>
			</g>
			<g>
				<path class="st31" d="M72.7,291.5L164,454c4.9,8.8,15.3,14.8,23.1,13.3l112.5-20.9l-0.1,0.3l-112.4,20.9
					c-0.8,0.1-1.6,0.2-2.5,0.2c-7.5,0-16.4-5.7-20.9-13.7L72.6,291.8"/>
			</g>
			<g>
				<path class="st31" d="M73.2,289.8l91.5,162.6c4.9,8.8,15.3,14.8,23.1,13.4l112.5-20.9l-0.1,0.3l-112.3,20.8
					c-0.8,0.2-1.6,0.2-2.5,0.2c-7.5,0-16.4-5.7-20.9-13.7L73.1,290.1"/>
			</g>
			<g>
				<path class="st31" d="M73.8,287.7l91.7,163.2c4.9,8.8,15.3,14.8,23.1,13.3L301,443.4l-0.1,0.3l-112.2,20.8
					c-0.8,0.2-1.6,0.2-2.5,0.2c-7.5,0-16.4-5.7-20.9-13.7L73.8,288"/>
			</g>
			<g>
				<path class="st31" d="M74.4,285.6l91.9,163.8c4.9,8.8,15.3,14.8,23.1,13.3l112.4-20.9l-0.1,0.3L189.4,463
					c-0.8,0.1-1.6,0.2-2.5,0.2c-7.5,0-16.4-5.7-20.9-13.7L74.3,285.9"/>
			</g>
			<g>
				<path class="st31" d="M75,283.7l92.1,164.2c4.9,8.8,15.3,14.8,23.1,13.4l112.3-20.8l-0.1,0.3l-112.1,20.8
					c-0.8,0.2-1.6,0.2-2.5,0.2c-7.5,0-16.4-5.7-20.9-13.7L74.9,284"/>
			</g>
			<g>
				<path class="st31" d="M75.5,282l92.2,164.5c4.5,8,13.4,13.7,20.9,13.7c0.8,0,1.7-0.1,2.5-0.2L303,439.2l0.1-0.3l-112.2,20.8
					c-7.8,1.5-18.2-4.5-23.1-13.3L75.6,281.7"/>
			</g>
			<g>
				<path class="st31" d="M76.2,279.5l92.4,165.3c4.9,8.8,15.3,14.8,23.1,13.4l112.2-20.8l-0.1,0.3l-112,20.8
					c-0.8,0.2-1.6,0.2-2.5,0.2c-7.5,0-16.4-5.7-20.9-13.7L76.1,279.8"/>
			</g>
			<g>
				<path class="st31" d="M76.9,277.2l92.5,166.2c4.9,8.8,15.3,14.8,23.1,13.3l112.1-20.8l-0.1,0.3L192.5,457
					c-0.8,0.2-1.6,0.2-2.5,0.2c-7.5,0-16.4-5.7-20.9-13.7l-92.4-166"/>
			</g>
			<g>
				<path class="st31" d="M77.4,275.5l92.8,166.4c4.9,8.8,15.3,14.8,23.1,13.3l112.1-20.8l-0.1,0.3l-111.9,20.8
					c-0.8,0.1-1.6,0.2-2.5,0.2c-7.5,0-16.4-5.7-20.9-13.7L77.3,275.8"/>
			</g>
			<g>
				<path class="st31" d="M78,274.2l92.7,166.3c4.5,8,13.4,13.7,20.9,13.7c0.8,0,1.7-0.1,2.5-0.2l111.8-20.8l0.1-0.3l-112,20.8
					c-7.8,1.5-18.2-4.5-23.1-13.4L78.2,273.9"/>
			</g>
			<g>
				<path class="st31" d="M79.4,271.9l92.3,166.9c4.9,8.8,15.3,14.8,23.1,13.3l111.9-20.8l-0.1,0.3l-111.8,20.8
					c-0.8,0.1-1.6,0.2-2.5,0.2c-7.5,0-16.4-5.7-20.9-13.7L79.1,272.3"/>
			</g>
			<g>
				<path class="st31" d="M80.8,270.4l91.8,166.9c4.9,8.8,15.3,14.8,23.1,13.4l111.9-20.8l-0.1,0.3v0l-111.7,20.7
					c-0.8,0.2-1.6,0.2-2.5,0.2c-7.5,0-16.4-5.7-20.9-13.7L80.5,270.8"/>
			</g>
			<g>
				<path class="st31" d="M82.1,269.1l91.2,166.7c4.9,8.8,15.3,14.8,23.1,13.3l111.8-20.8l-0.1,0.3l-111.6,20.7
					c-0.8,0.2-1.6,0.2-2.5,0.2c-7.5,0-16.4-5.7-20.9-13.7L81.8,269.4"/>
			</g>
		</g>
	</g>
	<g class="st17">
		<polyline class="st5" points="225.1,275.2 222.7,319.5 156.6,315.9 159.9,256.8 171.6,254.2 214.9,256.6 220.6,267.3 225.1,275.2 
					"/>
	</g>
	<polygon class="st32" points="263.3,348.9 243.7,383.7 204.4,383.7 184.8,348.9 204.4,314.1 243.7,314.1 	"/>
	<path class="st33" d="M169.4,414.8c8.8,7.3,20.8,10.8,33.1,8.7c22.1-3.8,37-24.5,33.2-46.1l-79.3,13.8L169.4,414.8z"/>
	<polyline class="st34" points="129.9,343.4 133.2,285.9 202,333.1 140.7,363.2 	"/>
	<path class="st35" d="M295.4,396.2c0.8,12.1-4.8,24-15.5,30.5l-22.3,4.2c-9.6-1.7-18.5-7.7-23.7-17.1c-8.9-16.3-3.3-36.7,12.5-45.5
		c10.7-6,23.5-5.1,33.3,1.3"/>
	<g class="st17">
		<path class="st7" d="M276.1,413.7c3,5.6,9.9,7.6,15.3,4.6s7.3-9.9,4.3-15.5c-3-5.6-9.9-7.6-15.3-4.6
			C274.9,401.2,273,408.2,276.1,413.7z M277,413.2c-2.8-5-1-11.4,3.9-14.1c4.9-2.7,11.1-0.8,13.9,4.2s1,11.4-3.9,14.1
			C286,420.2,279.7,418.3,277,413.2z"/>
		<path class="st4" d="M166.4,395c3,5.6,9.9,7.6,15.3,4.6c5.4-3,7.3-9.9,4.3-15.5c-3-5.6-9.9-7.6-15.3-4.6
			C165.3,382.5,163.4,389.5,166.4,395z M167.3,394.5c-2.8-5-1-11.4,3.9-14.1c4.9-2.7,11.1-0.8,13.9,4.2c2.8,5,1,11.4-3.9,14.1
			C176.3,401.5,170.1,399.6,167.3,394.5z"/>
		<path class="st4" d="M165,349.5c3,5.6,9.9,7.6,15.3,4.6c5.4-3,7.3-9.9,4.3-15.5c-3-5.6-9.9-7.6-15.3-4.6
			C163.9,337,162,343.9,165,349.5z M165.9,349c-2.8-5-1-11.4,3.9-14.1c4.9-2.7,11.1-0.8,13.9,4.2c2.8,5,1,11.4-3.9,14.1
			C174.9,355.9,168.7,354,165.9,349z"/>
		<path class="st4" d="M148.9,306c3,5.6,9.9,7.6,15.3,4.6c5.4-3,7.3-9.9,4.3-15.5c-3-5.6-9.9-7.6-15.3-4.6
			C147.8,293.5,145.8,300.5,148.9,306z M149.8,305.5c-2.8-5-1-11.4,3.9-14.1c4.9-2.7,11.1-0.8,13.9,4.2c2.8,5,1,11.4-3.9,14.1
			C158.8,312.5,152.5,310.6,149.8,305.5z"/>
		<path class="st4" d="M204.2,289.8c3,5.6,9.9,7.6,15.3,4.6c5.4-3,7.3-9.9,4.3-15.5c-3-5.6-9.9-7.6-15.3-4.6
			C203.1,277.3,201.2,284.2,204.2,289.8z M205.1,289.3c-2.8-5-1-11.4,3.9-14.1c4.9-2.7,11.1-0.8,13.9,4.2c2.8,5,1,11.4-3.9,14.1
			C214.1,296.2,207.9,294.3,205.1,289.3z"/>
		<path class="st4" d="M245.9,362.5c3,5.6,9.9,7.6,15.3,4.6c5.4-3,7.3-9.9,4.3-15.5c-3-5.6-9.9-7.6-15.3-4.6
			C244.8,350,242.9,357,245.9,362.5z M246.8,362c-2.8-5-1-11.4,3.9-14.1c4.9-2.7,11.1-0.8,13.9,4.2c2.8,5,1,11.4-3.9,14.1
			C255.8,369,249.6,367.1,246.8,362z"/>
		<path class="st6" d="M279.8,378.4c-3.7-6.8-12.1-9.3-18.7-5.7l-0.4,0.2l13.5,24.6l0.4-0.2C281.2,393.7,283.5,385.2,279.8,378.4z
			 M278.9,378.9c3.3,6.1,1.4,13.7-4.4,17.3l-12.4-22.8C268.1,370.4,275.5,372.8,278.9,378.9z"/>
		<path class="st7" d="M190.8,411.9c-3.7-6.8-12.1-9.3-18.7-5.7l-0.4,0.2l13.5,24.6l0.4-0.2C192.2,427.2,194.5,418.7,190.8,411.9z
			 M189.9,412.4c3.3,6.1,1.4,13.7-4.4,17.3l-12.4-22.8C179.1,403.9,186.5,406.3,189.9,412.4z"/>
		<path class="st6" d="M221.7,356.1c-3.7-6.8-12.1-9.3-18.7-5.7l-0.4,0.2l13.5,24.6l0.4-0.2C223.1,371.3,225.5,362.8,221.7,356.1z
			 M220.8,356.6c3.3,6.1,1.4,13.7-4.4,17.3L204,351.1C210,348,217.5,350.4,220.8,356.6z"/>
		<path class="st6" d="M205,328.1c6.9,3.5,15.2,0.8,18.6-5.9l0.2-0.5L198.9,309l-0.2,0.5C195.3,316.2,198.1,324.6,205,328.1z
			 M205.5,327.2c-6.2-3.1-8.8-10.6-6.1-16.7l23,11.7C219.2,328,211.7,330.3,205.5,327.2z"/>
		<path class="st6" d="M168,313.3c-7.1,2.9-10.6,11-7.8,18l0.2,0.5l25.9-10.6l-0.2-0.5C183.3,313.8,175.2,310.4,168,313.3z
			 M168.4,314.3c6.4-2.6,13.7,0.2,16.5,6.4l-23.9,9.8C158.8,324.1,162,316.9,168.4,314.3z"/>
		<path class="st6" d="M107.9,282c-3.2,7-0.3,15.3,6.6,18.5l0.5,0.2l11.6-25.6l-0.5-0.2C119.2,271.8,111.1,275,107.9,282z
			 M108.8,282.5c2.9-6.4,10.2-9.3,16.4-6.7l-10.8,23.6C108.4,296.3,105.9,288.8,108.8,282.5z"/>
		<path class="st6" d="M245.5,322.5c-6.8-3.7-15.2-1.3-18.8,5.4l-0.2,0.5l24.5,13.4l0.2-0.5C254.9,334.6,252.3,326.2,245.5,322.5z
			 M245.1,323.4c6.1,3.3,8.5,10.8,5.6,16.9L228,327.9C231.4,322.1,239,320.1,245.1,323.4z"/>
		<path class="st5" d="M219.6,394.4c-5.1,5.8-4.6,14.6,1,19.6l0.4,0.3l18.4-21.1L239,393C233.4,388,224.7,388.6,219.6,394.4z
			 M220.4,395.1c4.6-5.2,12.4-6,17.6-1.7l-17,19.5C216.1,408.2,215.8,400.4,220.4,395.1z"/>
		<path class="st6" d="M172.4,285c-2.8,7.2,0.7,15.3,7.7,18.1l0.5,0.2l10-26.2l-0.5-0.2C183.1,274.1,175.2,277.8,172.4,285z
			 M173.4,285.4c2.5-6.5,9.5-9.9,15.9-7.8l-9.2,24.3C173.8,299.2,170.9,291.9,173.4,285.4z"/>
		<path class="st5" d="M258.2,376.5l-17.5,9.6l9.9,17.9l17.5-9.6L258.2,376.5z M266.6,393.9l-15.6,8.6l-8.8-16l15.6-8.6L266.6,393.9
			z"/>
		<path class="st5" d="M165.5,355.1l-16.8,9.4l9.5,17.4l16.8-9.4L165.5,355.1z M173.6,372.1l-15,8.4l-8.5-15.5l15-8.4L173.6,372.1z"
			/>
		<path class="st5" d="M147.8,309.2l-18.7,4.6l4.7,19.3l18.7-4.6L147.8,309.2z M151.2,327.7l-16.7,4.1l-4.2-17.2l16.7-4.1
			L151.2,327.7z"/>
		<path class="st5" d="M142.7,268.5l-13.9,13.4l13.6,14.3l13.9-13.4L142.7,268.5z M154.8,282.7l-12.4,12l-12.2-12.8l12.4-12
			L154.8,282.7z"/>
		<path class="st5" d="M214.6,412.6l-18.7,4.7l4.8,19.2l18.7-4.7L214.6,412.6z M218.2,431.1l-16.7,4.2l-4.3-17.2l16.7-4.2
			L218.2,431.1z"/>
		<path class="st5" d="M226.6,333l-8,17.6l17.9,8.2l8-17.6L226.6,333z M243.1,341.7l-7.1,15.7l-16-7.4l7.1-15.7L243.1,341.7z"/>
		<path class="st7" d="M238.5,399.8l-16,22.3l26.7,3L238.5,399.8z M224.4,421.3l13.9-19.4l9.3,22L224.4,421.3z"/>
		<path class="st7" d="M206.6,363.4l-16,22.3l26.7,3L206.6,363.4z M192.5,384.9l13.9-19.4l9.3,22L192.5,384.9z"/>
		<path class="st7" d="M187.7,324.8l2.1,27.5l22.3-15.1L187.7,324.8z M190.7,350.4l-1.8-23.8l21.2,10.8L190.7,350.4z"/>
		<path class="st7" d="M191.2,284.4l-9.8,25.7l26.6-3.9L191.2,284.4z M183,308.8l8.5-22.3l14.5,18.9L183,308.8z"/>
		<path class="st3" d="M127.8,283.7l-9.8,25.7l26.6-3.9L127.8,283.7z M119.6,308.1l8.5-22.3l14.5,18.9L119.6,308.1z"/>
		<path class="st7" d="M156.4,260.8l6.8,26.7l19.4-18.7L156.4,260.8z M163.7,285.5l-5.9-23.2l22.7,6.9L163.7,285.5z"/>
		<path class="st3" d="M271.5,409.7l-9.5-5.9l-9.6,5.4l-0.1,11.3l9.5,5.9l9.6-5.4L271.5,409.7z M270.4,410.3l-0.1,10.1l-8.6,4.8
			l-8.5-5.3l0.1-10.1l8.6-4.8L270.4,410.3z"/>
		<path class="st3" d="M211.9,396.6l-9.5-5.9l-9.6,5.4l-0.1,11.3l9.5,5.9l9.6-5.4L211.9,396.6z M210.9,397.2l-0.1,10.1l-8.6,4.8
			l-8.5-5.3l0.1-10.1l8.6-4.8L210.9,397.2z"/>
		<path class="st4" d="M194.8,358.9l-10.9-2.7l-7.5,8.1l3.4,10.8l10.9,2.7l7.5-8.1L194.8,358.9z M194,359.8l3,9.6l-6.7,7.2l-9.7-2.4
			l-3-9.6l6.7-7.2L194,359.8z"/>
		<path class="st3" d="M204.7,258.5l-10.9-2.7l-7.5,8.1l3.4,10.8l10.9,2.7l7.5-8.1L204.7,258.5z M203.8,259.4l3,9.6l-6.7,7.2
			l-9.7-2.4l-3-9.6l6.7-7.2L203.8,259.4z"/>
		<path class="st7" d="M234.1,300.6l-10.9-2.7l-7.5,8.1l3.4,10.8l10.9,2.7l7.5-8.1L234.1,300.6z M233.3,301.5l3,9.6l-6.7,7.2
			l-9.7-2.4l-3-9.6l6.7-7.2L233.3,301.5z"/>
		<path class="st3" d="M156.8,338.3l-10.9-2.7l-7.5,8.1l3.4,10.8l10.9,2.7l7.5-8.1L156.8,338.3z M156,339.1l3,9.6l-6.7,7.2l-9.7-2.4
			l-3-9.6l6.7-7.2L156,339.1z"/>
		<path class="st5" d="M244.1,368.4l-9.5-5.9l-9.6,5.4l-0.1,11.3l9.5,5.9l9.6-5.4L244.1,368.4z M243.1,368.9L243,379l-8.6,4.8
			l-8.5-5.3l0.1-10.1l8.6-4.8L243.1,368.9z"/>
	</g>
	<path class="st36" d="M102.7,269.6l92.4-20.7c7.9-1.8,16,1.8,20,8.8l88.1,151.8c3.3,5.7,0,13-6.5,14.2l-98,17.8
		c-7.8,1.4-15.6-2.3-19.4-9.2L96.5,283.6C93.4,278,96.5,271,102.7,269.6z"/>
	<g class="st17">
		<g>
			<g id="computer_00000163041526128484470310000003117613289619445140_">
				<path class="st37" d="M602.7,401.8H365.4v-136c0-10.8,8.8-19.6,19.6-19.6h198.2c10.8,0,19.6,8.8,19.6,19.6v136H602.7z"/>
				<path class="st38" d="M591.4,259L591.4,259H382.2c-2.4,0-4.3,1.9-4.3,4.3V389l0,0H587c2.4,0,4.3-1.9,4.3-4.3V259H591.4z"/>
				<path class="st39" d="M590.1,429.4H377.9c-6.9,0-12.6-5.6-12.6-12.6v-15h237.4v15C602.7,423.8,597.1,429.4,590.1,429.4z"/>
				<path class="st39" d="M463.4,457.8c-2.8,0-4.9-2.6-4.2-5.3c1.5-6.2,4.1-16.5,6.2-22.5l0.2-0.5h36.7l0.3,0.8
					c2.6,7.2,4.7,14.6,6.3,22.1c0.6,2.7-1.5,5.2-4.2,5.2L463.4,457.8z"/>
				<path class="st40" d="M501.2,443.6c2.9,0,5-2.8,4.1-5.5c-0.8-2.6-1.7-5.2-2.6-7.8l-0.3-0.8h-36.7l-0.2,0.5
					c-1,2.7-1.8,5.4-2.6,8.2c-0.8,2.7,1.3,5.5,4.1,5.5L501.2,443.6L501.2,443.6z"/>
			</g>
		</g>
		<path class="st41" d="M552.8,271.3c0,0,27.4-3,27.9,21.9v34.6c0,0,0,6.3-5,6.1c-2.1-0.1-6.2,0-6.7-6.1c-0.6-8.1,0-25-11.1-34.6
			c-10.1-8.7-25.5-9.3-34.4-11.2c-11-2.4-11-11.2-0.6-11C532.9,271.2,552.8,271.3,552.8,271.3z"/>
		<path class="st41" d="M582.1,343.7c0,0-4.4-10.4-11.1-1.5s0,13.7,0,13.7s8.5,6.4,11.1,0C584.7,349.4,582.1,343.7,582.1,343.7z"/>
		<g>
			<g>
				<g>
					<path class="st14" d="M553.9,323.8h-7.5c-2.9,0-5.5-1.8-6.3-4.5c-0.7-2.3-1.6-4.6-2.6-6.8c-1.2-2.5-0.5-5.5,1.4-7.4l5.2-5.2
						c2.6-2.6,2.6-6.9,0-9.5l-9.4-9.4c-2.6-2.6-6.9-2.6-9.5,0l-4.5,4.5c-2,2-5.1,2.6-7.7,1.3c-2.4-1.2-4.9-2.3-7.4-3.2
						c-2.6-0.9-4.3-3.5-4.3-6.3v-6.2c0-3.7-3-6.7-6.7-6.7h-13.3c-3.7,0-6.7,3-6.7,6.7v6.2c0,2.8-1.7,5.4-4.3,6.3
						c-2.6,0.9-5,2-7.4,3.2c-2.5,1.3-5.7,0.7-7.7-1.3l-4.5-4.5c-2.6-2.6-6.9-2.6-9.5,0l-9.4,9.4c-2.6,2.6-2.6,6.9,0,9.5l5.2,5.2
						c2,2,2.6,4.9,1.4,7.4c-1,2.2-1.9,4.4-2.6,6.8c-0.9,2.7-3.5,4.5-6.3,4.5H422c-3.7,0-6.7,3-6.7,6.7v13.3c0,3.7,3,6.7,6.7,6.7h8
						c2.8,0,5.4,1.7,6.3,4.4c0.7,2.2,1.6,4.3,2.6,6.4c1.2,2.5,0.6,5.6-1.3,7.5l-5.6,5.6c-2.6,2.6-2.6,6.9,0,9.5l9.4,9.4
						c2.6,2.6,6.9,2.6,9.5,0l5.4-5.4c2-2,5.1-2.6,7.6-1.3c2.1,1.1,4.3,2,6.6,2.8c2.6,0.9,4.3,3.5,4.3,6.3v7.6c0,3.7,3,6.7,6.7,6.7
						h13.3c3.7,0,6.7-3,6.7-6.7v-7.6c0-2.8,1.7-5.4,4.3-6.3c2.3-0.8,4.4-1.7,6.6-2.8c2.5-1.3,5.6-0.7,7.6,1.3l5.4,5.4
						c2.6,2.6,6.9,2.6,9.5,0l9.4-9.4c2.6-2.6,2.6-6.9,0-9.5l-5.6-5.6c-2-2-2.6-5-1.3-7.5c1-2.1,1.9-4.2,2.6-6.4
						c0.9-2.7,3.5-4.4,6.3-4.4h8c3.7,0,6.7-3,6.7-6.7v-13.3C560.6,326.8,557.6,323.8,553.9,323.8z M487.7,374.4
						c-20.2,0-36.6-16.7-36.6-37.2s16.4-37.2,36.6-37.2s36.6,16.7,36.6,37.2S507.9,374.4,487.7,374.4z"/>
				</g>
				<polyline class="st14" points="409.2,331.1 419.2,324.2 425.2,331.1 409.2,331.1 				"/>
				<polygon class="st14" points="443.2,279.4 432.9,286.6 435.3,292.1 				"/>
				<polygon class="st14" points="467.8,272.4 477.9,265.1 481.7,270.2 474.8,275.1 				"/>
				<polygon class="st14" points="550.4,354.5 558.3,348.9 555.7,342.9 549.2,344.1 549.2,353.8 				"/>
				<polygon class="st14" points="522.9,400.9 534.5,393.4 528.7,388.1 522.9,397.1 				"/>
				<polygon class="st14" points="498.6,408.6 488.2,415.4 486.7,410.1 				"/>
				<polygon class="st14" points="438.8,400.9 449,394.5 443.9,385.8 438,395.6 				"/>
				<polygon class="st14" points="518.1,285.8 527.3,279.4 526.9,286.8 525,289.3 				"/>
			</g>
			<g>
				<path class="st8" d="M545.9,329.4h-7.5c-2.9,0-5.5-1.8-6.3-4.5c-0.7-2.3-1.6-4.6-2.6-6.8c-1.2-2.5-0.5-5.5,1.4-7.4l5.2-5.2
					c2.6-2.6,2.6-6.9,0-9.5l-9.4-9.4c-2.6-2.6-6.9-2.6-9.5,0l-4.5,4.5c-2,2-5.1,2.6-7.7,1.3c-2.4-1.2-4.9-2.3-7.4-3.2
					c-2.6-0.9-4.3-3.5-4.3-6.3v-6.2c0-3.7-3-6.7-6.7-6.7h-13.3c-3.7,0-6.7,3-6.7,6.7v6.2c0,2.8-1.7,5.4-4.3,6.3
					c-2.6,0.9-5,2-7.4,3.2c-2.5,1.3-5.7,0.7-7.7-1.3l-4.5-4.5c-2.6-2.6-6.9-2.6-9.5,0l-9.4,9.4c-2.6,2.6-2.6,6.9,0,9.5l5.2,5.2
					c2,2,2.6,4.9,1.4,7.4c-1,2.2-1.9,4.4-2.6,6.8c-0.9,2.7-3.5,4.5-6.3,4.5H414c-3.7,0-6.7,3-6.7,6.7v13.3c0,3.7,3,6.7,6.7,6.7h8
					c2.8,0,5.4,1.7,6.3,4.4c0.7,2.2,1.6,4.3,2.6,6.4c1.2,2.5,0.6,5.6-1.3,7.5L424,380c-2.6,2.6-2.6,6.9,0,9.5l9.4,9.4
					c2.6,2.6,6.9,2.6,9.5,0l5.4-5.4c2-2,5.1-2.6,7.6-1.3c2.1,1.1,4.3,2,6.6,2.8c2.6,0.9,4.3,3.5,4.3,6.3v7.6c0,3.7,3,6.7,6.7,6.7
					h13.3c3.7,0,6.7-3,6.7-6.7v-7.5c0-2.8,1.7-5.4,4.3-6.3c2.3-0.8,4.4-1.7,6.6-2.8c2.5-1.3,5.6-0.7,7.6,1.3l5.4,5.4
					c2.6,2.6,6.9,2.6,9.5,0l9.4-9.4c2.6-2.6,2.6-6.9,0-9.5l-5.6-5.6c-2-2-2.6-5-1.3-7.5c1-2.1,1.9-4.2,2.6-6.4
					c0.9-2.7,3.5-4.4,6.3-4.4h8c3.7,0,6.7-3,6.7-6.7v-13.3C552.6,332.4,549.6,329.4,545.9,329.4z M479.7,380
					c-20.2,0-36.6-16.7-36.6-37.2s16.4-37.2,36.6-37.2s36.6,16.7,36.6,37.2S499.9,380,479.7,380z"/>
			</g>
			<g>
				<path class="st14" d="M479.7,374.9c-1.4,0-3.8-2.6-5.7-8.5c-0.9-2.8-1.7-6.1-2.2-9.6h8.4l-1.5-5.4h-7.5c-0.3-2.9-0.4-5.9-0.4-9
					s0.1-6.1,0.4-9h17.3c0.3,2.9,0.4,5.9,0.4,9c0,0.3,0,0.6,0,0.9l5.4,2.9c0-1.3,0.1-2.5,0.1-3.8c0-3-0.1-6.1-0.4-9h17.2
					c0.8,2.9,1.3,5.9,1.3,9s-0.4,6.2-1.3,9h-7l10.8,5.7c0.3-0.6,0.5-1.3,0.8-1.9c0-0.1,0.1-0.2,0.1-0.3c1.4-3.9,2.1-8.1,2.1-12.5
					s-0.7-8.6-2.1-12.5c0-0.1-0.1-0.2-0.1-0.3c-5.3-14.7-19.3-25.2-35.8-25.2s-30.5,10.5-35.8,25.2c0,0.1-0.1,0.2-0.1,0.3
					c-1.4,3.9-2.1,8.1-2.1,12.5s0.7,8.6,2.1,12.5c0,0.1,0.1,0.2,0.1,0.3c5.3,14.7,19.3,25.2,35.8,25.2c24,0,28.2-15.8,30.4-16.2
					l-26.2,6.2C482.3,373.5,480.8,374.9,479.7,374.9z M508.9,327.9h-15.7c-1-6.7-2.6-12.7-5-16.9
					C497.3,313.4,504.8,319.7,508.9,327.9z M474,318.3c2-5.9,4.3-8.5,5.7-8.5s3.8,2.6,5.7,8.5c0.9,2.8,1.7,6.1,2.2,9.6h-16
					C472.3,324.4,473,321.1,474,318.3z M471.2,310.9c-2.3,4.3-4,10.3-5,16.9h-15.7C454.7,319.7,462.2,313.4,471.2,310.9z
					 M447.2,342.4c0-3.1,0.4-6.2,1.3-9h17.2c-0.3,3-0.4,6-0.4,9s0.1,6.1,0.4,9h-17.2C447.6,348.5,447.2,345.5,447.2,342.4z
					 M450.6,356.9h15.7c1,6.7,2.6,12.7,5,16.9C462.2,371.4,454.7,365.1,450.6,356.9z"/>
				<path class="st42" d="M513.7,358.5L513.7,358.5l-0.2-0.1l-7.7-4.1l0,0l-3.5-1.9l-10.3-5.5l0,0l-6-3.2l0,0l-5.4-2.8
					c-1.5-0.8-3.3,0.6-2.8,2.3l1.4,4.9l0,0l0.6,2.2l3.4,12.3l0,0l1.4,5l3.4,12.1c0.5,1.6,2.6,2,3.6,0.6l2.2-3.2l0,0l2.3-3.3
					c0.8-1.1,2.4-1.2,3.2-0.1l8.2,10.3c0.7,0.9,1.9,1,2.8,0.3l3.4-2.8c0.9-0.7,1-1.9,0.3-2.8l-8-10l0,0l-0.2-0.3
					c-0.8-1-0.4-2.6,0.8-3.1l7.4-3c1.6-0.6,1.7-2.8,0.2-3.6L513.7,358.5z"/>
			</g>
		</g>
		<g>
			<polygon class="st43" points="334.5,277.2 324.7,279 318.7,274.5 313.2,275.5 324.7,286.5 337.7,281.7 			"/>
			<polygon class="st43" points="419.1,362.2 421.7,355.3 411.5,347.9 410.7,335 398.6,332.1 399.7,341.7 410.5,356.4 			"/>
			<path class="st43" d="M428.9,315.5c-11.6-9-23.7-7.8-30.9-3.4l-43.7-36c0,0,0.8-6.7-5.3-13.3c-6.1-6.6-14.7-4.7-14.7-4.7
				c-2.3-0.2-6.9,1.9-6.9,1.9s-2.6-0.1,2,3.4c4.6,3.6,19.9,15.4,19.9,15.4l20.2,17.6l24.7,24l19.3,6.3l15.9,3.6l4.9,11.5
				C434.3,341.9,441.1,324.9,428.9,315.5z"/>
			<path class="st44" d="M316.5,276.5c0,0-4.4-3.8-4.1,2.1c0.4,5.9,2.2,9,2.2,9s8.6,14.4,23.6,8.5l48.2,36.5c0,0-4.2,15.6,5.4,23.9
				c0,0,9.7,9.8,24.7,7.3c4.4-0.6,2.3-4.4,2.3-4.4l-11.7-8.5l-1-15l13.5-2.8l10.3,7.9c0,0,4.4,4.4,4.5-1.3c0.1-5.6-1-15-8.7-20
				c-7.7-5-17.4-5.5-19.6-4.8c-2.2,0.6-7.3,2.4-7.9,2.8c-0.6,0.4-46.7-37.9-46.7-37.9s-0.2-14-11.4-18.2c-11.2-4.2-17-0.7-14.6,1.3
				s7.5,6.5,7.5,6.5l0.8,0.6l1.3,10.3l-10.7,2.6L316.5,276.5z"/>
			<path class="st45" d="M356.2,293.6c0,0-2.8-1.9-4-0.3c-1.2,1.6-1.2,2.8,0.5,4.3c1.7,1.4,28.9,22,28.9,22s2,2.3,3.8,0.3
				c1.9-2-0.9-4.2-0.9-4.2L356.2,293.6z"/>
			<path class="st46" d="M339.3,296.2c0,0,7.5-2.8,12.4-15.3"/>
			<path class="st46" d="M397.1,317.8c0,0-9.6,4.4-11.1,13.8"/>
			<path class="st47" d="M325.3,261"/>
		</g>
	</g>
	<g class="st17">
		<g>
			<g>
				<g>
					<g>
						<g>
							<polygon class="st48" points="-242.2,183.4 -223,189.1 -217.6,178.7 -239.1,173 							"/>
						</g>
						<g>
							<path class="st48" d="M-257.8,27.2c0,0-2.5,0.1-3.2,1.9c-0.1,0.3-0.2,0.7-0.2,1.2c0.2,3.7,0.4,128.4,0.4,128.4
								s1.2,9.7,5.6,14.6c0,0,7.2,9,13,10s170.1-2.6,170.1-2.6s12.5,0.8,20-10.1c4.6-5.8,5.3-12.3,5.3-12.3v-8.6V25.5
								c0,0,0.2-2.4-3.1-2.3C-53.3,23.3-257.8,27.2-257.8,27.2z"/>
						</g>
					</g>
				</g>
				<path class="st49" d="M-41.2,25.5l-7.5-2.1l-3.2,3l3.2,0.2v4.5c0,0,22,0.9,22,0.6c0-0.4,0.3-2.1,0.3-2.1L-41.2,25.5z"/>
			</g>
		</g>
		<polygon class="st50" points="-236,33.3 -258.1,27.2 -50,23.2 -48.2,23.5 -26.4,29.5 		"/>
		<path class="st40" d="M-223.1,189.1L-223.1,189.1c0.9,0.2,1.9,0.4,2.9,0.4l-3.4-0.9l-13.9-14c-1.4-5-1.2-9.5-1.2-9.5l-22.1-6.2
			c0,0,1.2,9.5,5.5,14.4c0,0,1.8,2.2,4.3,4.6c2.5,2.4,5.8,4.9,8.7,5.4l18.1,5.4c0.3,0.1,0.5,0.2,0.8,0.2L-223.1,189.1z"/>
		<path class="st44" d="M-235.7,33.3c0,0-3.5,0.1-3.4,3.1c0.2,3.7,0.4,128.4,0.4,128.4s-0.3,8.9,3.4,15c0,0,5.4,9.1,15.2,9.7
			c6.5,0,170.1-2.6,170.1-2.6s12.5,0.8,20-10.1c4.6-5.8,5.3-12.3,5.3-12.3v-8.6V31.7c0,0,0.2-2.4-3.1-2.3
			C-31.2,29.4-235.7,33.3-235.7,33.3z"/>
		<path class="st50" d="M-232.4,183.6l-17.9-4.9c0,0,3.1,3.6,9,5.2c5.9,1.6,17.1,4.9,17.1,4.9S-228.3,187.6-232.4,183.6z"/>
		<g>
			<g>
				<g>
					<path class="st14" d="M-126.6,58.6c0,0,0.8-3.9,4.7-3s7.7,2,7.7,2s3,0.4,2.1,4.9s-23.6,94.3-23.6,94.3s-0.9,3.2-4.3,2.6
						c-3.4-0.6-7.9-1.9-7.9-1.9s-3.5-0.8-2.4-5.2S-126.6,58.6-126.6,58.6z"/>
					<path class="st14" d="M-124.3,55.8l8.7-2.3l0.4,3.5c0,0-5.8,0.7-5.8,0.6C-121,57.5-124.3,55.8-124.3,55.8z"/>
				</g>
				<polygon class="st51" points="-138.7,159.5 -129.8,157.2 -134.7,153.6 -139.3,156.1 				"/>
			</g>
			<g>
				<g>
					<path class="st52" d="M-172.8,71.9l7.7,7.9c0,0,2.1,1.9,0.6,3.9c-1.5,1.9-20.4,22.9-20.4,22.9s-2.4,2.1,0.5,5.3
						s19.5,20.6,19.5,20.6s1.7,1.7,0.2,3.7s-8.3,9.4-8.3,9.4s-2.8,2-4.9,0c-2-2-32.5-33.4-32.5-33.4s-2.7-2.6,0.2-5.7
						c2.9-3.1,31.9-34.5,31.9-34.5S-175.5,69.2-172.8,71.9z"/>
					<polygon class="st52" points="-176.4,146.4 -168.2,148.7 -168.6,143.1 -177.1,141.7 					"/>
				</g>
				<polygon class="st52" points="-166.7,73.1 -174.8,70.7 -174.6,76.4 -166,77.7 				"/>
				<path class="st53" d="M-164.9,74.2l7.7,7.9c0,0,2.1,1.9,0.6,3.9c-1.5,1.9-20.4,22.9-20.4,22.9s-2.4,2.1,0.5,5.3
					s19.5,20.6,19.5,20.6s1.7,1.7,0.2,3.7s-8.3,9.4-8.3,9.4s-2.8,2-4.9,0c-2-2-32.5-33.4-32.5-33.4s-2.7-2.6,0.2-5.7
					c2.9-3.1,31.9-34.5,31.9-34.5S-167.6,71.5-164.9,74.2z"/>
			</g>
			<g>
				<g>
					<g>
						<g>
							<path class="st52" d="M-91.9,146.5l-7.7-7.9c0,0-2.1-1.9-0.6-3.9c1.5-1.9,20.4-22.9,20.4-22.9s2.4-2.1-0.5-5.3
								s-19.5-20.6-19.5-20.6s-1.7-1.7-0.2-3.7s8.3-9.4,8.3-9.4s2.8-2,4.9,0c2,2,32.5,33.4,32.5,33.4s2.7,2.6-0.2,5.7
								c-2.9,3.1-31.9,34.5-31.9,34.5S-89.3,149.2-91.9,146.5z"/>
						</g>
						<polygon class="st52" points="-80.4,74.2 -88.3,72 -88,77.6 -79.4,79 						"/>
						<polygon class="st52" points="-90.5,147.5 -82.5,149.7 -82.6,144.2 -91.1,142.9 						"/>
					</g>
				</g>
				<path class="st53" d="M-84.1,148.7l-7.7-7.9c0,0-2.1-1.9-0.6-3.9C-90.9,135-72,114-72,114s2.4-2.1-0.5-5.3S-92,88.1-92,88.1
					s-1.7-1.7-0.2-3.7s8.3-9.4,8.3-9.4s2.8-2,4.9,0c2,2,32.5,33.4,32.5,33.4s2.7,2.6-0.2,5.7c-2.9,3.1-31.9,34.5-31.9,34.5
					S-81.5,151.4-84.1,148.7z"/>
			</g>
			<path class="st8" d="M-118.6,56.6c0,0,0.8-3.9,4.7-3s7.7,2,7.7,2s3,0.4,2.1,4.9s-23.6,94.3-23.6,94.3s-0.9,3.2-4.3,2.6
				c-3.4-0.6-7.9-1.9-7.9-1.9s-3.5-0.8-2.4-5.2S-118.6,56.6-118.6,56.6z"/>
		</g>
		<path class="st44" d="M-218.1,3.9l6.7-4.9C-211.5-1-210.3,7.9-218.1,3.9z"/>
		<g>
			<polygon class="st54" points="-259.4,24.2 -239.4,26.4 -237.1,22.2 -258,19.2 			"/>
			<g>
				<path class="st54" d="M-258,24.2c0,0-3.5,0.5-3.9-2.3c-0.6-3.6-3.2-19-3.2-19s-0.8-9.6,2.4-15.2c0,0,5.2-10.1,10.7-12.3
					c5.5-2.2,170-32.5,170-32.5s12-3.4,21.7,5.4c5.7,4.6,7.7,10.7,7.7,10.7l1.4,8.2l2.7,16.2c0,0,1,1.8-2.3,2.4
					C-54.2-13.4-258,24.2-258,24.2z"/>
				<path class="st54" d="M-77.5-57.8"/>
			</g>
		</g>
		<path class="st55" d="M-251.2-25.7c5.5-2.3,170.5-32.6,170.5-32.6"/>
		<g>
			<path class="st56" d="M-80.5-58.4c0,0,3.4-0.7,6.8-0.3c3.3,0.4,18.8,1.9,18.8,1.9l-3.4,0.1c-0.2,0-2.6,0.4-2.8,0.4
				c-8.1,1.6-164.3,30.5-169.8,32.5l-19.7-2.1c0,0,14.2-3.1,16.6-3.5c2.4-0.5,14.9-2.9,14.9-2.9L-80.5-58.4z"/>
			<path class="st57" d="M-244.7,3.7l-19.7-1c-0.4,0-0.8-0.3-0.8-0.7c0.1-3.4-1.4-10.7,6.1-20.1c2.2-3.1,5.1-6.3,8.4-7.7l19.8,2
				c0,0-5.8,3.4-8.6,8.1s-4.8,8.9-5.1,14C-244.9,2.6-244.7,3.7-244.7,3.7z"/>
		</g>
		<g>
			<path class="st58" d="M-237.4,26.2c0,0-3.5,0.6-3.9-2.3c-0.6-3.7-3.2-19.5-3.2-19.5s-0.8-9.8,2.3-15.5c0,0,5.1-10.3,10.6-12.5
				c5.5-2.3,169.9-32.6,169.9-32.6s12-3.4,21.7,5.6c5.7,4.7,7.8,10.9,7.8,10.9l1.4,8.4l2.4,14.5c0,0,1.3,3.9-1.9,4.6
				C-33.6-11.5-237.4,26.2-237.4,26.2z"/>
			<g>
				<g>
					<g>
						<g>
							<g>
								<path class="st18" d="M-211.5-1c0.7,4.4-2.2,8.6-6.6,9.3c-2.6,0.4-5.1-0.4-6.9-2.1c-1.2-1.2-2.1-2.7-2.4-4.5
									c-0.7-4.4,2.2-8.6,6.6-9.3C-216.4-8.3-212.2-5.4-211.5-1z"/>
							</g>
							<polyline class="st18" points="-219.6,-7.7 -215.3,-7.5 -215.1,-5.4 							"/>
						</g>
						<polygon class="st18" points="-215.8,8.7 -220.4,8.4 -220.3,6.1 -217.4,7.8 						"/>
					</g>
					<circle class="st59" cx="-216" cy="0.6" r="8.1"/>
				</g>
				<g>
					<g>
						<g>
							<g>
								<g>
									<path class="st60" d="M-184.8-5.8c0.7,4.4-2.2,8.6-6.6,9.3c-2.6,0.4-5.1-0.4-6.9-2.1c-1.2-1.2-2.1-2.7-2.4-4.5
										c-0.7-4.4,2.2-8.6,6.6-9.3C-189.8-13.1-185.6-10.2-184.8-5.8z"/>
								</g>
								<polyline class="st60" points="-193,-12.5 -188.6,-12.3 -188.5,-10.2 								"/>
							</g>
							<polygon class="st60" points="-189.2,3.9 -193.8,3.6 -193.7,1.3 -190.8,3 							"/>
						</g>
					</g>
					<circle class="st61" cx="-189.4" cy="-4.2" r="8.1"/>
				</g>
				<g>
					<g>
						<g>
							<g>
								<path class="st62" d="M-158.1-10.2c0.7,4.4-2.2,8.6-6.6,9.3c-2.6,0.4-5.1-0.4-6.9-2.1c-1.2-1.2-2.1-2.7-2.4-4.5
									c-0.7-4.4,2.2-8.6,6.6-9.3S-158.9-14.6-158.1-10.2z"/>
							</g>
							<polyline class="st62" points="-166.3,-16.9 -161.9,-16.7 -161.8,-14.6 							"/>
						</g>
						<polygon class="st62" points="-162.5,-0.5 -167.1,-0.8 -167,-3.1 -164.1,-1.5 						"/>
					</g>
					<circle class="st63" cx="-162.7" cy="-8.6" r="8.1"/>
				</g>
			</g>
		</g>
		<path class="st41" d="M-41.3-46.1c-2-3.4-9.3-1.5-9.5,2.4c-0.3,7.6-3.2,22.1-19.4,25.5c-19.2,4.1-20,5.8-20,5.8S-96-6-66.5-10.5
			c6.5-0.8,28.1-4.9,31.2-6.4c3.4-1.7-1.3-19.8-1.3-19.8S-37.9-40.2-41.3-46.1z"/>
		<path class="st41" d="M-32,130.7c0,0-3.8-13.7-10.6,0c0,0-1.9,15.8-2.7,18.1c-0.8,2.3-4.8,19.4-25.6,20.2s-29.5,2.9-29.5,2.9
			s-4.9,5.7,0,8s53.2,0,53.2,0s15.1-5.3,15.1-17.4S-32,130.7-32,130.7z"/>
		<path class="st41" d="M-86.8,141.7c0,0,9.2-2.6,16-5.8c2.5-1.2-8,9.3-8,9.3S-82.5,149.7-86.8,141.7z"/>
		<path class="st41" d="M-137.9,153.3c0,0,6.7-6.9,11.1-13c1.6-2.2-2.4,12.1-2.4,12.1S-130.2,158.2-137.9,153.3z"/>
		<path class="st41" d="M-172.6,142.9c0,0,8.1-3.2,14-6.7c2.1-1.3-6.5,9.4-6.5,9.4S-168.1,150.1-172.6,142.9z"/>
		<path class="st64" d="M-167.6-4.4l11.5-6.9c0,0,1.6,5.7-2.4,8.3C-162.5-0.5-167.6-4.4-167.6-4.4z"/>
		<path class="st65" d="M-182.7-5.7l-11.5,5.9c0,0,5.1,3.9,9.1,1.3C-185.1,1.5-181.3-0.9-182.7-5.7z"/>
		<path class="st9" d="M-209.5-1.4L-221,4.5c0,0,5.1,3.9,9.1,1.3C-211.9,5.8-208.1,3.4-209.5-1.4z"/>
	</g>
</g>
</svg>
