<?xml version="1.0" encoding="UTF-8"?>
<svg xmlns="http://www.w3.org/2000/svg" version="1.1" viewBox="0 0 300 300">
  <defs>
    <style>
      .cls-1 {
        fill: #d34f6e;
      }

      .cls-2 {
        fill: #d32a53;
      }

      .cls-3 {
        fill: #fff;
      }

      .cls-4 {
        fill: #383838;
      }

      .cls-5, .cls-6 {
        stroke-linecap: round;
        stroke-linejoin: round;
      }

      .cls-5, .cls-6, .cls-7 {
        fill: none;
        stroke-width: 2px;
      }

      .cls-5, .cls-7 {
        stroke: #fff;
      }

      .cls-8 {
        fill: #008dd3;
      }

      .cls-9 {
        fill: #444;
      }

      .cls-6 {
        stroke: #d34f6e;
      }

      .cls-7 {
        stroke-miterlimit: 10;
      }

      .cls-10 {
        fill: #f7941e;
      }

      .cls-11 {
        isolation: isolate;
        opacity: .2;
      }

      .cls-12 {
        fill: #1a00d6;
      }

      .cls-13 {
        fill: #c56d0b;
      }
    </style>
  </defs>
  <!-- Generator: Adobe Illustrator 28.6.0, SVG Export Plug-In . SVG Version: 1.2.0 Build 709)  -->
  <g>
    <g id="Camada_1">
      <g>
        <path class="cls-8" d="M285.5,151.9c.1,20.7-4.3,40.4-12.1,58.2-22,49.7-71.6,84.3-129.5,84.5-15.4.1-30.2-2.4-44.1-6.8-26.1-8.3-48.9-24-65.9-44.7C16.2,221.7,4.5,195.1,1.8,165.8c-.4-4.2-.6-8.5-.6-12.8-.2-48.2,23.7-91,60.4-116.8,4.8-3.4,9.8-6.5,15-9.2,7.3-3.9,15-7.2,23-9.8,7.5-2.4,15.4-4.2,23.4-5.4,6.5-.9,13-1.4,19.7-1.5,26.2,0,50.6,6.9,71.8,19.1,3.8,2.2,7.4,4.5,11,7.1,16.9,12,31.1,27.6,41.4,45.8,1.2,2.1,2.3,4.1,3.3,6.3.9,1.9,1.8,3.6,2.6,5.5,2.7,6.1,5,12.2,6.9,18.6,2.1,7.2,3.6,14.5,4.5,21.9h0c.9,5.8,1.3,11.5,1.3,17.3Z"/>
        <g>
          <g>
            <g>
              <g>
                <path class="cls-9" d="M68.5,42.2s6.6,37-.7,45.3c0,0,25.9,19.7,7.4,41.1,0,0,20.7,29.1-4.7,45.3,0,0-16.2,38.9-2.6,51.4,13.6,12.5,62.8-95,62.8-95l-62.2-88.1Z"/>
                <path class="cls-4" d="M72.4,50.9l11.2,29.5c12.4,32.7,12.1,68.8-1,101.2l-9.5,23.4,62.3-74.9L70.3,40.1l2.2,10.8Z"/>
                <line class="cls-7" x1="67.8" y1="87.5" x2="96.3" y2="82.2"/>
                <line class="cls-7" x1="75.3" y1="128.6" x2="124.3" y2="135.7"/>
                <line class="cls-7" x1="70.5" y1="173.9" x2="93.1" y2="186.2"/>
              </g>
              <g>
                <path class="cls-9" d="M286.8,255.1s-37.2-5.7-45.2,1.8c0,0-20.3-25.4-41.3-6.4,0,0-29.6-20-45.2,5.9,0,0-38.5,17.2-51.3,3.9-12.8-13.3,93.4-65.2,93.4-65.2l89.6,60Z"/>
                <path class="cls-4" d="M270.8,251.4l-29.5-11.2c-32.7-12.4-68.8-12.1-101.2,1l-23.4,9.5,74.9-62.3,90,65.2-10.8-2.2Z"/>
                <line class="cls-7" x1="241.5" y1="256.9" x2="246.1" y2="228.3"/>
                <line class="cls-7" x1="200.3" y1="250.5" x2="191.9" y2="201.7"/>
                <line class="cls-7" x1="155.1" y1="256.4" x2="142.2" y2="234.1"/>
              </g>
              <path class="cls-10" d="M300.1,250.2c0-7.9-8.1-12.7-8.1-12.7l-82.6-54s81.2-57.3,64.5-73.6c-16.7-16.3-71.2,32.1-71.2,32.1-4.8-15-19.1-18.4-19.1-18.4,0,0,47-55.6,30.3-71.9-16.7-16.3-71.9,66.3-71.9,66.3l-56-81.2s-5-7.9-12.9-7.8c-7.9,0-7,10.1-2.4,19.4,4.6,9.3,53.3,87,53.3,87,0,0-75.9,77.8-52.4,100.7,0,0,8.9,7,12.8-4.8,3.9-11.9,8-21.9,8-21.9,0,0,2.1,3.4,6.2,8.1,10.3,12.1,20.7,18.2,20.7,18.2,0,0-9.6,4.6-21.3,8.8-11.8,4.2-4.5,12.9-4.5,12.9,23.5,22.9,98.6-54.8,98.6-54.8h0c.3-.3.5-.5.5-.5,0,0,78.9,46.7,88.3,51.1,9.4,4.4,19.4,5.1,19.3-2.9Z"/>
              <circle class="cls-9" cx="152.8" cy="135.8" r="4.6"/>
              <circle class="cls-9" cx="189.2" cy="171.2" r="4.6"/>
              <g>
                <rect class="cls-2" x="154.2" y="154.6" width="24.8" height="11" rx="4.6" ry="4.6" transform="translate(159.1 -70.8) rotate(44.3)"/>
                <circle class="cls-9" cx="160.4" cy="154.8" r="1.4"/>
                <circle class="cls-9" cx="171.8" cy="165.9" r="1.4"/>
              </g>
              <g>
                <path class="cls-12" d="M152.4,163s-14.4,12.5-7.3,19.5c7.1,6.9,19-8.5,19-8.5l-11.7-11Z"/>
                <line class="cls-6" x1="158.3" y1="168.5" x2="148.5" y2="178.6"/>
              </g>
              <line class="cls-5" x1="172.6" y1="182.4" x2="144.1" y2="154.6"/>
              <g>
                <path class="cls-3" d="M145.4,156.9l-2.2,5c-.4.9.3,1.6,1.2,1.2l4.8-2.2"/>
                <path class="cls-3" d="M170.2,181.1l-4.9,2.3c-.9.4-1.6-.3-1.2-1.1l2.1-4.8"/>
              </g>
              <g>
                <path class="cls-1" d="M197.4,73.6c-3.4-2.5-10.9.7-16.6,3.9-16.1,18-32.3,41.7-32.3,41.7,18.1-3.4,30.1,2.1,30.1,2.1,0,0,10.1-13.1,19.1-27.4,1.6-5.8,3.9-17.1-.3-20.2Z"/>
                <path class="cls-2" d="M208.9,58.3c-5.3-3.6-16.7,6.4-28.1,19.2,5.7-3.1,13.2-6.4,16.6-3.9,4.2,3.2,1.9,14.4.3,20.2,1.7-2.7,3.4-5.5,4.9-8.3,6.9-12.3,11.4-23.9,6.3-27.3Z"/>
              </g>
              <path class="cls-1" d="M204.7,146.7s5.7,11.9,2.8,30.1c0,0,68.2-49.3,59.3-61.9-8.5-12-62.1,31.8-62.1,31.8Z"/>
            </g>
            <path class="cls-2" d="M119.2,235.7s43.3-24,18.5-48.2-45.5,21.8-45.5,21.8c0,0,5,14,26.9,26.4Z"/>
          </g>
          <g class="cls-11">
            <path class="cls-3" d="M77,33.1c2.6.2,4.9,1.8,6.4,3.8,0,0,4,5.4,4,5.4,2.6,3.6,5.2,7.2,7.8,10.9,15.1,21.7,30.1,44.4,43.7,67,.9,1.5-1.3,3.2-2.5,1.7-5.6-7-10.9-14-16.3-21.1-4-5.3-11.9-16-15.9-21.4-5.5-7.5-18.2-25-23.5-32.2,0,0-3.9-5.3-3.9-5.3-1-1.3-1.7-2.9-1.9-4.6-.2-1.6-.3-4.2,2.1-4.1h0Z"/>
          </g>
          <polygon class="cls-13" points="123.9 135.3 129.9 130.6 94.9 88.7 123.9 135.3"/>
          <g class="cls-11">
            <path class="cls-3" d="M170.5,122.6c12.7.6,24.7,8.9,29.7,20.7,1.6,4,2.3,8.4,1.6,12.6-.1.9-1,1.4-1.8,1.3-.5,0-.9-.4-1.2-.9-3.4-6.6-7.1-11.9-12.4-16.9-5.2-5-11.1-9.2-16.8-13.9-1.3-.9-.6-2.9.9-2.9h0Z"/>
          </g>
          <g class="cls-11">
            <path class="cls-3" d="M165,152.7c3.4,2.4,6.3,5.4,8.8,8.8.3.4-.3,1-.7.7-1.7-1.2-3.3-2.6-4.7-4-1.5-1.5-2.9-3-4-4.7-.3-.4.3-1,.7-.7h0Z"/>
          </g>
        </g>
        <path class="cls-2" d="M267,114.7c3.7,5.2-5.9,16.8-18.5,28.5,3-5.8,6-13.4,3.4-16.7-3.3-4.1-14.4-1.5-20.2.2,2.7-1.8,5.4-3.6,8.1-5.2,12.1-7.2,23.6-11.9,27.1-6.9Z"/>
        <g class="cls-11">
          <path class="cls-3" d="M294.7,250c-2.4.2-4.7-.5-6.6-1.9,0,0-5.3-3.9-5.3-3.9-7.2-5.2-24.9-18-32.3-23.4-5.4-3.9-16.1-11.8-21.5-15.8-7.1-5.3-14.2-10.7-21.2-16.2-.7-.5-.8-1.5-.2-2.1.5-.6,1.3-.7,1.9-.4,7.7,4.5,15.2,9.2,22.8,14,14.6,9.3,30.3,19.7,44.5,29.5,5.3,3.7,11.1,7.9,16.4,11.7,2.2,1.4,6.3,8.1,1.7,8.5h0Z"/>
        </g>
        <polygon class="cls-13" points="192.5 202 197.1 195.9 239.7 229.8 192.5 202"/>
      </g>
    </g>
  </g>
</svg>