<?xml version="1.0" encoding="UTF-8"?>
<svg xmlns="http://www.w3.org/2000/svg" version="1.1" viewBox="0 0 300 300">
  <!-- Generator: Adobe Illustrator 29.3.1, SVG Export Plug-In . SVG Version: 2.1.0 Build 151)  -->
  <defs>
    <style>
      .st0 {
        fill: #646464;
      }

      .st1 {
        fill: #a1a1b2;
      }

      .st2 {
        fill: #ffda00;
      }

      .st3 {
        stroke: #646464;
        stroke-miterlimit: 10;
      }

      .st3, .st4 {
        fill: #e9e9ff;
      }

      .st5, .st6 {
        opacity: .3;
      }

      .st4 {
        mix-blend-mode: multiply;
      }

      .st4, .st7 {
        isolation: isolate;
      }

      .st8 {
        fill: #cccce5;
      }

      .st9 {
        fill: #008dd3;
      }

      .st10 {
        fill: #c2c2d3;
      }

      .st6, .st11 {
        fill: #515759;
      }

      .st12 {
        fill: #ccc;
      }

      .st13 {
        fill: #414042;
      }

      .st14 {
        fill: #f9b4c4;
      }

      .st15 {
        fill: #57e250;
      }
    </style>
  </defs>
  <g class="st7">
    <g id="Camada_1">
      <g>
        <g id="Camada_10">
          <path class="st9" d="M272.7,148.4c.1,19.8-4.1,38.6-11.6,55.7-21.1,47.6-68.6,80.8-124,81-14.7.1-28.9-2.3-42.2-6.5-25-8-46.8-23-63.1-42.8C14.8,215.4,3.7,189.8,1,161.8c-.4-4-.6-8.2-.6-12.3C.2,103.3,23.1,62.3,58.3,37.6c4.6-3.3,9.4-6.2,14.4-8.8,7-3.8,14.4-6.8,22-9.4,7.2-2.3,14.7-4,22.4-5.2,6.2-.8,12.5-1.3,18.9-1.4,25-.1,48.5,6.6,68.8,18.3,3.7,2.1,7.1,4.3,10.5,6.8,16.2,11.5,29.8,26.5,39.7,43.9,1.1,2,2.2,3.9,3.2,6,.8,1.8,1.7,3.5,2.5,5.3,2.6,5.8,4.8,11.7,6.6,17.8,2,6.8,3.5,13.9,4.3,21h0c.7,5.4,1.1,10.9,1.1,16.5Z"/>
        </g>
        <g class="st7">
          <g id="Camada_11" data-name="Camada_1">
            <g>
              <path class="st0" d="M81,53.3h186.1c8.8,0,15.9,7.1,15.9,15.9v133c0,2.9-2.4,5.3-5.3,5.3H70.4c-2.9,0-5.3-2.4-5.3-5.3V69.2c0-8.8,7.1-15.9,15.9-15.9Z" transform="translate(61.5 -55.7) rotate(22)"/>
              <path class="st8" d="M114.5,34.9l166.4,65.4c6,2.4,9.2,8.9,7.2,14.5l-39.9,101c-2.1,5.8-8.7,8.5-14.9,6l-165.6-65.4c-6.2-2.4-9.5-9.1-7.4-14.9l39.6-100.8c2-5.6,8.5-8.3,14.5-5.9Z"/>
              <polygon class="st1" points="143.3 133 164.8 117.3 164.4 141.3 182.4 153.8 145.3 160.4 130.1 133.2 143.3 133"/>
              <path class="st1" d="M136.8,115.1c0,5.7-.2,11.3-.7,16.9l-.3-1.3c2,2.3,3.8,4.8,5.7,7.2,1.1,1.5,6.1,7.9,7.1,9.2-4.4,2.7-9,5.4-13.5,8l.5-.5c-4.5,5.6-9.2,12.4-14.5,16.8l12.6-18.1s11.2-7.1,11.3-7.1v.4c-.2-.2-10.8-14.6-10.8-14.9l2.5-16.6h.3c0,0,0,.1,0,.1Z"/>
              <path class="st1" d="M234.9,82.4c0,5.7-.2,11.3-.7,16.9l-.3-1.3c2,2.3,3.8,4.8,5.7,7.2,1.1,1.5,6.1,7.9,7.1,9.2-4.4,2.7-9,5.4-13.5,8l.5-.5c-4.5,5.6-9.2,12.4-14.5,16.8l12.6-18.1s11.2-7.1,11.3-7.1v.4c-.2-.2-10.8-14.6-10.8-14.9l2.5-16.6h.3c0,0,0,.1,0,.1Z"/>
              <path class="st1" d="M228.4,192.3c-.8-8.9-1.2-17.8-1.4-26.6l1.2,2c-15.1-7.4-30.2-14.9-44.7-23.4l1.1-1.3c3.1-4,8-9.4,11.5-13.3h.2c0,.1-10.2,14.3-10.2,14.3v-.3c0,0,43.1,22,43.2,22,0,.2-.7,26.4-.7,26.5h-.2s0,0,0,0Z"/>
              <path class="st1" d="M161.5,117c-.8-8.9-1.2-17.7-1.4-26.6l1.2,2c-10.5-5.1-22.1-10.9-32.4-16.5-3.6-1.9-7-4-10.5-6l2.2-1.2c-.4,5.2-.4,11.4-1.5,16.1l-.2-16.2v-.3s43.1,22,43.4,22.1h.1c0,0,0,.2,0,.2-.2,0-.2,27-1,26.4h0Z"/>
              <path class="st4" d="M201.7,210l-59-23.3-50.1-125.6,7.5-21.1c1.9-5.2,7.9-7.7,13.5-5.5l21.3,8.4,66.7,167Z"/>
              <polygon class="st4" points="274.2 146.3 251.3 89 228.1 79.8 264.9 172.1 274.2 146.3"/>
              <g>
                <path class="st12" d="M254.7,240L38,152.1c-3.4-1.4-7.3.8-7.7,4.4l227.2,91.5c1.7-2.9.4-6.7-2.8-8.1Z"/>
                <path class="st13" d="M30.3,156.5h0c-1,10.5,4.2,21.8,14.1,25.8l184.9,75c9.9,4,21.3-.4,27.8-8.6.1-.2.3-.4.4-.6L30.3,156.5Z"/>
              </g>
              <path class="st14" d="M118.9,195.8h48.7c1.8,0,3.2,1.5,3.2,3.2h0c0,1.8-1.5,3.2-3.2,3.2h-48.7v-6.5h0Z" transform="translate(85.2 -39.8) rotate(22)"/>
            </g>
          </g>
          <path class="st6" d="M289.1,93.8l-10.7-4.3c-7.7,71.3-98.3,110.2-150.4,126.8l101.2,41c9.9,4,21.3-.4,27.8-8.6.1-.2.3-.4.4-.6,1.7-2.9.4-6.7-2.8-8.1l-6.4-2.6,49.7-122.9c3.3-8.1-.6-17.4-8.8-20.7Z"/>
        </g>
        <rect class="st15" x="36.3" y="169.6" width="119.4" height="69.1" rx="12.3" ry="12.3" transform="translate(-89.4 332.6) rotate(-99.5)"/>
        <path class="st3" d="M116.7,154l13.7,84.3c.6,3.6-1.8,6.9-5.4,7.6l-43.6,7.6c-3.6.6-6.9-1.7-7.5-5.3l-13.7-84.3c-.4-2.5.6-4.9,2.6-6.3.8-.6,1.8-1.1,2.8-1.3l43.6-7.6c3.6-.6,6.9,1.8,7.5,5.3h0Z"/>
        <circle class="st2" cx="71.8" cy="151.7" r="1.6"/>
        <circle class="st13" cx="105.4" cy="256.8" r="3.7" transform="translate(-134.3 116.8) rotate(-37.4)"/>
        <circle class="st13" cx="202.2" cy="64.4" r="3.2"/>
        <polygon class="st10" points="78.2 204.6 80 176.4 94.6 201.8 110.5 203.2 111.2 218.9 88 228.7 69.9 210 78.2 204.6"/>
        <path class="st10" d="M104.7,193.6c2.7-4.7,5.5-9.2,8.5-13.6v1.5c-5.2-8.2-10.1-16.6-14.2-25.2l1.1-.4c3-1,7.4-2.1,10.4-3v.2c0,0-10,3.9-10,3.9v-.2s13.9,23.9,13.9,23.9c0,.1-9.7,12.8-9.7,12.9h-.1c0-.1,0,0,0,0Z"/>
        <path class="st10" d="M114.7,196.9c4.9,8.4,8.1,18,11,27.3l-1.6.2c-3.1.2-8.1,1.2-10.9.6l10.6-2c-3.1-7.5-6.7-17.8-9.1-25.9h0Z"/>
        <path class="st10" d="M104.8,228.9c-4.5,5.5-9.1,10.9-14.2,15.9-5.1-8.4-10.1-16.9-14.4-25.7l-.5-1.1c3.7-1.2,8-2.8,11.6-3.2l-10.1,3.9v-.2s13.9,23.9,13.9,23.9h-.3s13.9-14.1,14-13.5h0Z"/>
        <path class="st4" d="M127,212.8l4.5,26.6-69-58.6-2.8-16.5c-.4-2.5.6-5,2.6-6.4l64.8,54.9h0Z"/>
        <polygon class="st4" points="119.6 168.7 121.3 179.2 89.8 152.4 98.6 151 119.6 168.7"/>
        <rect class="st13" x="73.9" y="147.4" width="27.4" height="3.2" rx="1.6" ry="1.6" transform="translate(-22 15.4) rotate(-8.9)"/>
        <path class="st2" d="M125.8,157.1h0v10.3h0c-1.1,0-2-.9-2-2v-6.3c0-1.1.9-2,2-2Z" transform="translate(273.9 302.4) rotate(170.8)"/>
        <path class="st2" d="M128,170.5h0v10.3h0c-1.1,0-2-.9-2-2v-6.3c0-1.1.9-2,2-2Z" transform="translate(280.5 328.7) rotate(170.8)"/>
        <g class="st5">
          <path class="st11" d="M129.3,194c-12.6,35.8-43,55.5-59.3,63.8,1.7,6,7.6,9.9,13.9,8.8l43.9-7.4c6.7-1.1,11.2-7.5,10.1-14.2l-8.6-51.1Z"/>
        </g>
      </g>
    </g>
  </g>
</svg>