<svg xmlns="http://www.w3.org/2000/svg" viewBox="0 0 300 300"><defs><clipPath id="clippath"><path d="M95 111.14h137.31c30.78 0 55.76 24.99 55.76 55.76v77.02H39.24V166.9c0-30.78 24.99-55.76 55.76-55.76z" class="cls-3"/></clipPath><style>.cls-1{fill:#932c2a}.cls-3{fill:none}.cls-5{fill:#ffd200}.cls-7{fill:#fd8e00;mix-blend-mode:multiply;opacity:.3}.cls-13{fill:#1a00d6}.cls-15{fill:#ed9751}</style></defs><g style="isolation:isolate"><g id="Camada_1" data-name="Camada 1"><path id="Camada_10" fill="#008dd3" d="M285.38 149.42c.1 20.75-4.3 40.45-12.16 58.37-22.11 49.89-71.89 84.68-129.95 84.89-15.41.1-30.29-2.41-44.23-6.81-26.2-8.38-49.05-24.1-66.13-44.86-17.82-21.37-29.45-48.2-32.28-77.54-.42-4.2-.63-8.6-.63-12.89-.21-48.42 23.79-91.39 60.68-117.28 4.82-3.46 9.85-6.5 15.09-9.22 7.34-3.98 15.09-7.13 23.06-9.85 7.55-2.41 15.41-4.19 23.48-5.45 6.5-.84 13.1-1.36 19.81-1.47 26.2-.1 50.83 6.92 72.1 19.18 3.88 2.2 7.44 4.51 11 7.13a143.485 143.485 0 0141.61 46.01c1.15 2.1 2.31 4.09 3.35 6.29.84 1.89 1.78 3.67 2.62 5.55a149.04 149.04 0 016.92 18.65c2.1 7.13 3.67 14.57 4.51 22.01.73 5.66 1.15 11.42 1.15 17.29z" data-name="Camada 10"/><g clip-path="url(#clippath)"><path fill="#964c47" d="M95 111.14h137.31c30.78 0 55.76 24.99 55.76 55.76v77.02H39.24V166.9c0-30.78 24.99-55.76 55.76-55.76z"/><path d="M206.85 213.44h67.36v16.65h-67.36z" class="cls-1"/><path d="M211.44 222.82h58.18v21.1h-58.18zm-83.84-9.38h67.36v16.65H127.6z" class="cls-1"/><path d="M132.19 222.82h58.18v21.1h-58.18zm-74.04-45.29h48.82v66.39H58.15z" class="cls-1"/></g><rect width="28.04" height="32.45" x="71.68" y="137.77" class="cls-15" rx="2.65" ry="2.65"/><rect width="28.04" height="32.45" x="110.09" y="137.77" class="cls-15" rx="2.65" ry="2.65"/><rect width="28.04" height="32.45" x="185.22" y="137.77" class="cls-15" rx="2.65" ry="2.65"/><rect width="28.04" height="32.45" x="222.79" y="137.77" class="cls-15" rx="2.65" ry="2.65"/><path d="M39.24 109.07h27.72v134.86H39.24zm221.11 0h27.72v134.86h-27.72z" class="cls-15"/><path d="M39.24 109.07h27.72v39.77H39.24zm221.11 0h27.72v39.77h-27.72z" class="cls-7"/><path d="M159.68 140.97h5.22v102.95h-5.22z" class="cls-15"/><path d="M159.68 140.97h5.22v7.86h-5.22z" class="cls-7"/><path fill="#f96464" d="M49.52 56.08h224.4c9.59 0 17.37 7.78 17.37 17.37v37.65H32.15V73.45c0-9.59 7.78-17.37 17.37-17.37z"/><rect width="276.55" height="73.04" x="23.45" y="70.62" fill="#ef3030" rx="4.96" ry="4.96"/><path d="M283.23 91.49v21.63c-5.97 0-10.82-4.84-10.82-10.82s4.84-10.82 10.82-10.82z" class="cls-5"/><path d="M81.68 164.87h-1.04v-18.14h1.04c5 0 9.07 4.07 9.07 9.07s-4.07 9.07-9.07 9.07zm1.04-15.98v13.83c3.36-.5 5.95-3.41 5.95-6.91s-2.59-6.41-5.95-6.91z" class="cls-13"/><circle cx="261.62" cy="102.3" r="10.79" class="cls-5"/><circle cx="70.35" cy="121.39" r="3.4" class="cls-5"/><circle cx="89.96" cy="121.39" r="3.4" class="cls-5"/><path d="M83.63 89.74h6.01v2.86h-6.01zm8.38 0h6.01v2.86h-6.01zm-16.76 5.23h6.01v3.06h-6.01zm0-5.23h6.01v2.86h-6.01zm16.76 5.23h6.01v3.06h-6.01zm-8.38 5.43h6.01v2.8h-6.01zm-15.49 0h4.74v2.8h-4.74zm23.87 5.17h6.01v2.93h-6.01zm-23.87-10.6h4.74v3.06h-4.74zm15.49 0h6.01v3.06h-6.01zm16.76 10.6v2.44c.53-.33.97-.81 1.26-1.41l.5-1.03h-1.75zm0-10.6v3.06h5.39l1.48-3.06h-6.87zm0-2.37h7.28c-.08-.46-.24-.9-.5-1.31-.62-.99-1.62-1.55-2.75-1.55h-4.03v2.86zm-25.14 7.8h6.01v2.8h-6.01zm-2.37 5.17h-4.7c.24 1.65 1.61 2.93 3.25 2.93h1.45v-2.93zm0-12.97v-2.86h-1.45c-1.62 0-2.98 1.24-3.24 2.86h4.69zm31.76 7.8h-4.25v2.8h2.9l1.35-2.8zm-29.39 5.17h6.01v2.93h-6.01zm8.38 0h6.01v2.93h-6.01zm8.38-5.17h6.01v2.8h-6.01z" class="cls-3"/><path d="M109.18 90.04c-1.05-1.67-2.83-2.66-4.76-2.66H71.43c-3.12 0-5.66 2.61-5.66 5.82v11.84c0 3.21 2.54 5.82 5.66 5.82H98.7c2.17 0 4.11-1.24 5.07-3.23l5.72-11.84c.9-1.86.78-4-.32-5.75zm-11.16 18.45h-6.01v-2.93h6.01v2.93zM72.88 94.97v3.06h-4.74v-3.06h4.74zm10.75 3.06v-3.06h6.01v3.06h-6.01zm6.01 2.37v2.8h-6.01v-2.8h6.01zm2.37-5.43h6.01v3.06h-6.01v-3.06zm0-2.37v-2.86h6.01v2.86h-6.01zm-2.37 0h-6.01v-2.86h6.01v2.86zm-8.38 0h-6.01v-2.86h6.01v2.86zm0 2.37v3.06h-6.01v-3.06h6.01zm-8.38 5.43v2.8h-4.74v-2.8h4.74zm2.37 0h6.01v2.8h-6.01v-2.8zm6.01 5.17v2.93h-6.01v-2.93h6.01zm2.37 0h6.01v2.93h-6.01v-2.93zm8.38-2.37v-2.8h6.01v2.8h-6.01zm8.38-2.8h4.25l-1.35 2.8h-2.9v-2.8zm0-2.37v-3.06h6.87l-1.48 3.06h-5.39zm6.78-6.73c.26.41.42.85.5 1.31h-7.28v-2.86h4.03c1.13 0 2.13.57 2.75 1.55zm-35.73-1.56h1.45v2.86H68.2c.27-1.62 1.62-2.86 3.24-2.86zm-3.26 15.83h4.7v2.93h-1.45c-1.65 0-3.01-1.27-3.25-2.93zm32.21 2.44v-2.44h1.75l-.5 1.03c-.29.6-.73 1.08-1.26 1.41z" class="cls-5"/><path d="M100.4 113.59H64.2c-1.24 0-2.26-1.01-2.26-2.26V92a4.64 4.64 0 00-4.63-4.63h-1.88c-.65 0-1.18.53-1.18 1.18s.53 1.18 1.18 1.18h1.88c1.24 0 2.26 1.01 2.26 2.26v19.33c0 2.55 2.07 4.63 4.63 4.63h36.2c.65 0 1.18-.53 1.18-1.18s-.53-1.18-1.18-1.18z" class="cls-5"/><rect width="8.45" height="5" x="48.76" y="86.06" class="cls-5" rx="1.86" ry="1.86"/><path fill="#fff" d="M129.48 118.44c-1.83 0-3.42-.3-4.76-.89-1.35-.59-2.4-1.42-3.16-2.48-.76-1.06-1.19-2.3-1.3-3.72h3.32c.09.95.41 1.74.97 2.36.56.62 1.27 1.08 2.14 1.38.87.3 1.8.45 2.79.45 1.15 0 2.18-.19 3.09-.56.91-.38 1.64-.9 2.17-1.59.53-.68.8-1.47.8-2.37 0-.82-.23-1.48-.69-1.99-.46-.51-1.07-.93-1.83-1.26-.76-.33-1.6-.62-2.51-.87l-3.07-.87c-2.04-.58-3.64-1.41-4.77-2.49-1.14-1.08-1.7-2.46-1.7-4.14 0-1.43.39-2.68 1.16-3.76.77-1.07 1.82-1.91 3.14-2.5 1.32-.59 2.8-.89 4.43-.89s3.15.3 4.43.89 2.3 1.39 3.04 2.41a6.077 6.077 0 011.18 3.45h-3.17c-.15-1.24-.74-2.2-1.77-2.87-1.03-.68-2.31-1.01-3.82-1.01-1.09 0-2.05.18-2.87.54s-1.46.85-1.92 1.47-.68 1.33-.68 2.12c0 .89.27 1.6.83 2.14.55.54 1.2.96 1.96 1.26s1.44.54 2.05.71l2.54.7c.68.18 1.43.43 2.26.75.82.32 1.61.74 2.36 1.27.75.53 1.37 1.2 1.85 2.01.48.81.72 1.81.72 2.99 0 1.39-.36 2.64-1.08 3.75-.72 1.11-1.77 1.99-3.15 2.64-1.37.65-3.04.97-4.99.97zm24.2-.04c-2 0-3.75-.39-5.24-1.18s-2.65-1.86-3.47-3.22c-.82-1.36-1.23-2.91-1.23-4.65V92.6h3.24v16.5c0 1.22.27 2.3.81 3.25.54.95 1.31 1.7 2.31 2.24 1 .55 2.19.82 3.58.82s2.58-.27 3.57-.82c1-.55 1.76-1.29 2.29-2.24.53-.95.8-2.03.8-3.25V92.6h3.24v16.75c0 1.74-.41 3.29-1.23 4.65-.82 1.36-1.97 2.44-3.45 3.22s-3.22 1.18-5.22 1.18zm16.04-.41v-25.4h8.69c1.98 0 3.6.36 4.88 1.08 1.28.72 2.23 1.69 2.85 2.91.62 1.22.93 2.58.93 4.09s-.31 2.88-.93 4.11c-.62 1.23-1.57 2.2-2.84 2.93s-2.9 1.09-4.87 1.09h-6.15v-2.85h6c1.34 0 2.42-.23 3.24-.69.82-.46 1.41-1.09 1.78-1.89.37-.8.55-1.7.55-2.7s-.18-1.89-.55-2.68c-.37-.79-.97-1.41-1.79-1.87s-1.91-.68-3.26-.68h-5.28v22.55h-3.24zm22.29 0v-25.4h15.48v2.86h-12.24v8.28h11.4v2.86h-11.4v8.52h12.39v2.86h-15.63zm20.99 0v-25.4h8.69c1.98 0 3.6.34 4.88 1.01 1.28.68 2.23 1.61 2.85 2.79.62 1.18.93 2.53.93 4.04s-.31 2.85-.93 4.01c-.62 1.16-1.57 2.07-2.84 2.72s-2.9.98-4.87.98h-6.9v-2.88h6.75c1.34 0 2.42-.2 3.23-.59s1.41-.95 1.78-1.67c.38-.72.56-1.58.56-2.57s-.19-1.89-.56-2.63c-.37-.74-.97-1.32-1.79-1.74-.82-.41-1.9-.62-3.26-.62h-5.28v22.55H213zm14.58 0l-6.14-11.44h3.65l6.24 11.44h-3.75z"/><path fill="#ffd200" fill-rule="evenodd" d="M128.28 148.58h-8.34l-4.17 7.22 4.17 7.23h8.34l4.17-7.23-4.17-7.22z"/><circle cx="199.24" cy="156.81" r="6.38" class="cls-5"/><path d="M245.51 164.97H229.9c-.37 0-.71-.2-.9-.52s-.19-.72 0-1.04l7.81-13.52c.37-.64 1.43-.64 1.8 0l7.81 13.52c.19.32.19.72 0 1.04s-.53.52-.9.52zm-13.81-2.08h12.01l-6.01-10.4-6.01 10.4z" class="cls-13"/><path fill="none" stroke="#fff" stroke-linecap="round" stroke-linejoin="round" stroke-width="9.29" d="M217.63 78.48h66.4v50.47m-244.79 5.71h49.44" opacity=".15"/></g></g></svg>