<?xml version="1.0" encoding="UTF-8"?>
<svg id="Camada_1" xmlns="http://www.w3.org/2000/svg" version="1.1" viewBox="0 0 300 300">
  <!-- Generator: Adobe Illustrator 29.0.0, SVG Export Plug-In . SVG Version: 2.1.0 Build 186)  -->
  <defs>
    <style>
      .st0 {
        stroke: #f88;
      }

      .st0, .st1, .st2 {
        fill: none;
        stroke-miterlimit: 10;
      }

      .st3 {
        fill: #ffda00;
      }

      .st4 {
        fill: #f88;
      }

      .st5 {
        fill: #ff6780;
      }

      .st6 {
        fill: #fff;
      }

      .st7 {
        fill: #ffdcdf;
      }

      .st1 {
        stroke: red;
      }

      .st2 {
        stroke: #ffda00;
      }

      .st8 {
        fill: #008dd3;
      }

      .st9 {
        isolation: isolate;
        opacity: .7;
      }

      .st10 {
        fill: #ccc;
      }

      .st11 {
        fill: #c1a11e;
      }

      .st12 {
        fill: #f7bb90;
      }
    </style>
  </defs>
  <g id="Camada_11" data-name="Camada_1">
    <path class="st8" d="M285.8,149c.1,20.7-4.3,40.4-12.1,58.2-22,49.7-71.6,84.3-129.5,84.5-15.4.1-30.2-2.4-44.1-6.8-26.1-8.3-48.9-24-65.9-44.7-17.7-21.4-29.4-48-32.1-77.3-.4-4.2-.6-8.5-.6-12.8-.2-48.2,23.7-91,60.4-116.8,4.8-3.4,9.8-6.5,15-9.2,7.3-3.9,15-7.2,23-9.8,7.5-2.4,15.4-4.2,23.4-5.4,6.5-.9,13-1.4,19.7-1.5,26.2,0,50.6,6.9,71.8,19.1,3.8,2.2,7.4,4.5,11,7.1,16.9,12,31.1,27.6,41.4,45.8,1.2,2.1,2.3,4.1,3.3,6.3.9,1.9,1.8,3.6,2.6,5.5,2.7,6.1,5,12.2,6.9,18.6,2.1,7.2,3.6,14.5,4.5,21.9h0c.9,5.8,1.3,11.5,1.3,17.3h0Z"/>
  </g>
  <g>
    <g>
      <g>
        <path class="st5" d="M276.9,183.9c16.4,7.8,17.8,17.1,17.8,17.1l2.7-2.5c3.6-8.2-19.1-18-19.1-18l-1.2,1.6h0c0,.6-.1,1.2-.2,1.8Z"/>
        <path class="st5" d="M152.1,261.4h3.7c5.9-2.8,2-15.3-.5-22-1.4,0-2.7,0-4-.1,5.6,15.1.9,22.1.9,22.1Z"/>
        <path class="st5" d="M198.9,256.3l3.3-1.6c4.1-5-4.8-14.7-10-19.6-1.2.6-2.5,1.1-3.7,1.7,11.6,11.2,10.4,19.5,10.4,19.5Z"/>
        <path class="st5" d="M269.3,201.8c4.8,2.3,9.9,6.3,11.4,12.7l10.7-9s-3.8-17.1-14.7-20.2c-1,5.8-3.5,11.3-7.4,16.5Z"/>
        <path class="st5" d="M260.8,213.3c3.1,1.7,6,4.2,7.4,8l9.3-3.6s.8-8-8-12.8c-2.5,2.9-5.4,5.7-8.7,8.3Z"/>
        <path class="st5" d="M160.5,261.3s26.6-.2,34.5-5.3c0,0-1.2-8.8-5-16.1-9.5.4-19.4.2-29.5-.7h-.5c1.9,5.3,4.1,14.5.6,22.1Z"/>
        <path class="st1" d="M141.8,173.5l7.2,4.1,17.6-8.5-7.2-4.1-17.6,8.5Z"/>
        <path class="st10" d="M37.8,179.5c0,.6,0,1.3,0,2,0,32.8,50.1,59.7,113.5,61.9,1.3,0,2.7,0,4,.1,1.3,0,2.6,0,3.9,0h.5c10.2,0,20-.6,29.5-1.8,30.8-3.9,57-13.8,73.6-27.1,3.3-2.6,6.2-5.4,8.7-8.3.8-1,1.6-1.9,2.3-2.9,3.9-5.2,6.4-10.8,7.4-16.5,0-.4.1-.9.2-1.3,0-.6.1-1.2.2-1.8h0c0-.8,0-1.6,0-2.4v-9.6c-.2.7-.4,1.5-.8,2.5-4.3,11.5-22.7,37.9-100,46.7-65.3,7.4-90.7-12.6-90.7-12.6v-15.8c-4.8-1.7-9.4-3.6-13.7-5.6-14.5-6.9-25.8-15.7-32.3-25.5-4.1-6.2-6.4-12.9-6.4-19.9v37.8Z"/>
        <path class="st1" d="M141.8,173.5l7.2,4.1,17.6-8.5-7.2-4.1-17.6,8.5Z"/>
        <path class="st7" d="M37.7,141.7c0,7,2.2,13.6,6.4,19.9,6.5,9.8,17.7,18.5,32.3,25.5,4.3,2,8.8,3.9,13.7,5.6,19.7,7,43.7,11.1,69.6,11.1,53.7,0,99.3-17.7,115.5-42.2,4.1-6.2,6.4-12.9,6.4-19.9,0-34.3-54.6-62.1-121.9-62.1s-121.9,27.8-121.9,62.1ZM118.7,112.8c-10.3,4.2-19.1,6.2-19.8,4.5-.7-1.7,7.1-6.4,17.4-10.6,10.3-4.2,19.1-6.2,19.8-4.5.7,1.7-7.1,6.4-17.4,10.6ZM92.8,174.8l113.7-50.7h0l37.6-16.8s32.5,19.9,20.3,42.3c-2,3.6-5.1,7.3-9.6,10.9-33.1,26.5-114.2,33.1-162,14.2Z"/>
        <path class="st11" d="M90.1,192.7v15.8s25.4,19.9,90.7,12.6c77.4-8.7,95.7-35.1,100-46.7.4-.9.6-1.8.8-2.5v-30.2c0,7-2.2,13.6-6.4,19.9-16.3,24.5-61.8,42.2-115.5,42.2-25.9,0-49.9-4.1-69.6-11.1Z"/>
        <path class="st1" d="M141.8,173.5l7.2,4.1,17.6-8.5-7.2-4.1-17.6,8.5Z"/>
        <path class="st12" d="M92.8,174.8c47.8,18.9,129,12.3,162-14.2,4.6-3.7,7.7-7.3,9.6-10.9,12.2-22.5-20.3-42.3-20.3-42.3l-37.6,16.8h0l-113.7,50.7ZM229.4,139.9l-7.2-4.1,9.3-4.5,8.3-4,7.2,4.1-7,3.4-10.6,5.2ZM174.5,156.6v-3.2c0-.3,0-.6,0-.9,0-6.9,11.7-12.4,26.2-12.4,14.5,0,26.2,5.6,26.2,12.4v4.9c0,6.9-11.7,12.4-26.2,12.4s-26.2-5.6-26.2-12.4c0-.3,0-.6,0-.9ZM149,177.6l-7.2-4.1,17.6-8.5,7.2,4.1-17.6,8.5Z"/>
        <path class="st0" d="M235.7,106s-64.4-29.8-137.4-8.5c-67.5,19.7-51.4,67.8-13.1,75.1"/>
        <polyline class="st0" points="87.3 176.5 76.4 186.8 76.4 225.9"/>
        <path class="st4" d="M98.9,117.4c.7,1.7,9.6-.3,19.8-4.5,10.3-4.2,18.1-8.9,17.4-10.6-.7-1.7-9.6.3-19.8,4.5-10.3,4.2-18.1,8.9-17.4,10.6Z"/>
        <path class="st3" d="M174.5,152.6c0,.3,0,.6,0,.9,0,.5.2,1.1.5,1.6,2.4,5.7,13,10,25.7,10s23.3-4.3,25.7-10c.3-.8.5-1.6.5-2.5,0-6.9-11.7-12.4-26.2-12.4-14.5,0-26.2,5.6-26.2,12.4Z"/>
        <path class="st11" d="M174.5,157.5c0,6.9,11.7,12.4,26.2,12.4s26.2-5.6,26.2-12.4v-4.9c0,.8-.2,1.7-.5,2.5-2.4,5.7-13,10-25.7,10s-23.3-4.3-25.7-10c-.2-.5-.4-1.1-.5-1.6v3.2c0,.3,0,.6,0,.9Z"/>
        <polygon class="st11" points="222.2 135.8 229.4 139.9 240 134.7 247 131.4 239.8 127.2 231.5 131.3 222.2 135.8"/>
        <polygon class="st11" points="141.8 173.5 149 177.6 166.7 169.1 159.5 164.9 141.8 173.5"/>
        <path class="st0" d="M90,192.9c-4.7-1.7-9.2-3.6-13.4-5.6-14.3-6.9-25.3-15.7-31.7-25.5-4.1-6.2-6.3-12.9-6.3-19.9"/>
        <ellipse class="st3" cx="275.8" cy="172.7" rx="3.6" ry="5.1"/>
        <ellipse class="st3" cx="259.8" cy="188.2" rx="3.6" ry="5.1"/>
        <ellipse class="st3" cx="234" cy="202.1" rx="3.6" ry="5.1"/>
        <ellipse class="st3" cx="196.1" cy="209.7" rx="4" ry="5.7"/>
        <ellipse class="st3" cx="153.3" cy="213.4" rx="4" ry="5.7"/>
        <ellipse class="st3" cx="112.3" cy="208.4" rx="4" ry="5.7"/>
        <path class="st4" d="M188.4,152.6c0,.1,0,.3,0,.4,0,.3.1.5.2.8,1.1,2.7,6.1,4.7,12,4.7,6,0,10.9-2,12-4.7.2-.4.2-.8.2-1.2,0-3.2-5.5-5.8-12.3-5.8s-12.3,2.6-12.3,5.8Z"/>
      </g>
      <line class="st2" x1="130.9" y1="106.7" x2="124.2" y2="104.1"/>
      <line class="st2" x1="126.1" y1="109.1" x2="119.4" y2="106.5"/>
      <line class="st2" x1="120.4" y1="111.3" x2="113.7" y2="108.7"/>
      <line class="st2" x1="114.8" y1="113.9" x2="108.1" y2="111.3"/>
      <line class="st2" x1="109.5" y1="116.6" x2="102.8" y2="114"/>
    </g>
    <g class="st9">
      <path class="st6" d="M66.9,108.4c-9.7,7.3-19,18.7-18.8,31.2.3,12.7,10.1,22.4,19.9,29.5,4.3,3.3-.5,9.7-4.9,6.3-10.7-8.7-21.2-21.2-20.5-35.9.7-14.4,11.1-26.1,22.6-33.7,1.7-1,3.3,1.4,1.6,2.5h0Z"/>
    </g>
    <g class="st9">
      <path class="st6" d="M82.2,121.2c-3.1,7.3-8.1,15.7-5.3,23.5,1.4,4,4.4,7.6,7.2,11,.8.8,1.6,1.7,2.3,2.7,1.4,1.8,1.1,4.4-.6,5.8-1.1.8-2.4,1.1-3.6.8-4.7-1.2-9.3-3.6-13.3-7.4-4.3-4-7.2-9.6-7.8-15.6-1.1-11.2,5.9-22,15.7-26.8,3-1.5,6.5,1.4,5.6,4.6,0,0-.4,1.4-.4,1.4h0Z"/>
    </g>
    <g class="st9">
      <path class="st6" d="M188.6,147c-1.5,1.6-4.1,3.7-4.7,5.5-.2.7-.1,1.1.3,1.8.5,1,1.5,2.1,2.5,3.2,1.2,1.3-.2,3.5-1.9,3-5.8-1.5-9.5-7.8-5-12.9,1.4-1.9,8.6-6.3,9.4-2.4.1.7-.2,1.3-.7,1.7h0Z"/>
    </g>
    <g class="st9">
      <path class="st6" d="M198.8,150.4c-1.1,1.3-2.8,2.2-3.9,3.2.3-.2.4-1.1.1-1.5,0-.1-.2-.3-.3-.3,0,.5.9,1.3,1.2,2.1.4.7,0,1.5-.7,1.8-2.6,1.2-5.9-1.2-4.9-4.1.8-2.1,3.1-2.9,4.9-3.2,1.2,0,4.1-.5,3.9,1.5,0,.2-.2.4-.3.6h0Z"/>
    </g>
  </g>
</svg>