<svg xmlns="http://www.w3.org/2000/svg" id="Camada_1" x="0" y="0" version="1.1" viewBox="0 0 300 300" xml:space="preserve"><style>.st58{fill:#ff8da4}.st58,.st59,.st60,.st61,.st62{fill-rule:evenodd;clip-rule:evenodd}.st59{fill:#1a00d6}.st60{fill:#54c654}.st61{fill:#c75eeb}.st62{fill:#ffbe00}.st63{opacity:.2;enable-background:new;fill:#fff}</style><path id="Camada_2_00000152251052571005813560000000249499294332311457_" fill="#008dd3" d="M284.2 155.4c.1 20.5-4.3 40-12 57.6-21.8 49.2-70.9 83.5-128.2 83.7-15.2.1-29.9-2.3-43.6-6.7-25.8-8.2-48.4-23.8-65.3-44.2C17.5 224.7 6 198.3 3.3 169.3c-.4-4.2-.6-8.4-.6-12.7-.2-47.8 23.5-90.2 59.8-115.7 4.8-3.4 9.7-6.4 14.8-9.1 7.3-3.9 14.8-7.1 22.8-9.7 7.5-2.4 15.2-4.2 23.2-5.3 6.4-.9 12.9-1.4 19.5-1.5 25.9-.1 50.1 6.8 71.1 18.9 3.8 2.1 7.4 4.5 10.9 7 16.8 11.9 30.8 27.3 41 45.4 1.2 2 2.2 4.1 3.3 6.2.9 1.8 1.7 3.6 2.6 5.4 2.7 6 4.9 12.1 6.8 18.4 2 7.1 3.6 14.4 4.5 21.7.8 5.7 1.2 11.4 1.2 17.1z"/><path d="M108.1 96.3S93.8 135.4 89.2 141c-4.5 5.6-24.8 37.2-37.5 48.4-12.7 11.2-20.5 30.5-18.9 47.5 1.6 17 12.7 29.5 31 36s34.6 1.1 45.5-2.2c10.8-3.4 27.1-27.6 27.1-27.6l-6.2-25.1s-23.8 44.9-53.2 44.3c0 0-19.3 1.3-24.2-18.6 0 0-6.1-13.1 4.9-27.9 0 0 33.3-39.3 39.2-47.4 5.9-8 19.5-30.8 18.5-34.3-.9-3.7-7.3-37.8-7.3-37.8z" class="st58"/><path d="M110.4 97s-4.3 11.6-9.7 24.4c-2.3 5.4-4.7 11-7.1 16.1-4.2 8.7-8.3 15.5-12.4 21.4-11.1 15.5-22.5 24-35.7 44-9.4 14-11.6 26.5-9.5 36.9 2.8 13.6 13.1 23.5 24.1 28.5 11.3 5.1 27.1 7.2 42.4 1.6 11.7-4.3 23.1-13.1 31.9-28.6.5-1 1.7-1.3 2.7-.8 1 .5 1.3 1.7.8 2.7-9.2 16.6-21.4 26.1-33.8 30.8-16.5 6.2-33.6 4-45.9-1.4-12.5-5.5-24-16.6-27.2-31.9-2.4-11.5-.1-25.3 10.2-40.8 13.5-20 25-28.5 36.2-43.9 4.1-5.6 8.2-12.1 12.3-20.5 3.1-6.2 6.2-13.3 8.9-19.8 4.7-11 8.2-20.1 8.2-20.1.4-1 1.5-1.5 2.5-1.1 1 .4 1.5 1.5 1.1 2.5z" class="st58"/><path d="M116.1 133.3s-1.5 10.1-9 24.2c-3.4 6.4-8.1 13.7-14.5 21.2-10.5 12.3-24.7 25-32.9 37.7-4 6.2-6.6 12.4-6.1 18.6.8 11.2 4.5 18.5 11.1 22 6.3 3.4 15.1 3.3 25.8.2 5-1.4 11.1-7 16.9-13.4 11-12 20.9-27.1 20.9-27.1.6-.9 1.8-1.2 2.7-.6.9.6 1.2 1.8.6 2.7 0 0-9.9 15.6-21 27.9-6.4 7.2-13.4 13.3-18.9 14.9-12.3 3.7-22.2 3.5-29.5-.3-7.9-4.2-12.9-12.7-13.9-26.1-.6-7.2 2.2-14.6 6.9-21.8 8.4-12.8 22.9-25.5 33.7-37.9 6.3-7.1 10.9-14 14.3-20.2 7.3-13.2 9-22.8 9-22.8.2-1.1 1.2-1.8 2.3-1.6 1.1.4 1.8 1.4 1.6 2.4z" class="st58"/><path d="M238.5 78.1S225.6 58.4 202.7 55c0 0-29.9-2.2-54.4 7.1s-41.5 29.4-45.7 39.9c-4.2 10.5-2.9 145.8-3.2 155-.3 9.2.3 20 7.9 24.5 7.6 4.4 40.3 4.4 41.2 5.2.9.8.9-24.9.5-35-.4-10.1-1.1-113 .3-127.6 1.5-14.6 6.6-31.2 15.5-38.9 9-7.7 37.9-17.2 73.7-7.1z" class="st59"/><path d="M280.7 164.9s-3.7-14.8-21.7-19.4c-17.9-4.6-53.5-8.6-79 13.2 0 0-7 3.2-10.4 37-3.4 33.8-.3 91.7-.3 91.7l18.5-.8s-1.2-87.6 1.2-100.5c2.5-13 8.7-17.1 12.3-18.5 3.6-1.4 33.3-12.1 52.7-8 19.5 4 26.7 5.3 26.7 5.3z" class="st59"/><path d="M283.3 280s5.2-96.4-1.2-113.5c0 0-50.2-20.5-87.5 6.6 0 0-4.7 6.1-6.2 19.5-1.5 13.3-.8 94-.8 94l95.7-6.6z" class="st60"/><path d="M261.4 145.8s3.2-49.7-14.6-63.1c0 0-9.5-7.9-29.1-7.8-19.6.1-37-3.9-56.4 13.6 0 0-9.5 10.9-11.2 26.6-1.7 15.6 1.6 172.1 1.6 172.1l18.8-.1s-2.9-90.1.8-110c0 0-2.4-19 31.7-30.9.2 0 31.4-8.7 58.4-.4z" class="st61"/><path d="M203 54.4s-.1-30.1-12.7-35.7c-12.5-5.5-33-6.3-40.8 6.6-7.9 12.9-5.2 37.8-5.2 37.8l11.5-3.3s.4-23.8 5.2-29.2c4.8-5.4 18.6-5.9 24 .7 5.4 6.6 4.5 22.8 4.5 22.8l13.5.3z" class="st62"/><path d="M200.4 52.7s.4-9.9-2-18.7c-1.1-4-2.7-7.8-5.5-10.1-5.6-4.8-14.8-6.8-23.2-6-5.1.4-10.1 1.8-13.7 4.4-2.5 1.8-4.5 4.1-5.3 7-1.7 5.5-2.7 11.4-3.2 16.6-1 9.5-.8 17.1-.8 17.1.1 1.1-.8 2-1.9 2.1-1.1.1-2-.8-2.1-1.9 0 0-.5-7.8.3-17.7.5-5.6 1.4-11.7 3-17.6 2.6-9.1 12.4-14.4 23.3-15.3 9.8-.8 20.4 1.9 26.9 7.6 3.3 3 5.4 7.6 6.7 12.6 2.3 9.5 1.6 20.1 1.6 20.1-.1 1.1-1 1.9-2.1 1.9-1.3-.1-2.1-1-2-2.1z" class="st62"/><path d="M188.6 52.2s.4-7.6-1.5-14.2c-.8-2.8-2.1-5.5-4.3-7-3.1-2.1-7.4-2.7-11.3-2.3-2.6.2-5 .8-6.9 1.7-1.4.7-2.5 1.4-3.1 2.4-1.1 1.7-1.8 5.6-2.3 9.7-1.1 7.6-1.5 16.3-1.5 16.3 0 1.1-.9 2-2 1.9-1.1 0-2-.9-1.9-2 0 0 .1-11.1 1.2-19.5.5-3.8 1.3-7.1 2.3-8.9 1-1.7 2.8-3.3 5.2-4.4 2.4-1.2 5.5-2.1 8.7-2.3 5.1-.4 10.6.6 14.6 3.4 3 2.2 4.9 5.8 6 9.8 1.9 7.3 1 15.7 1 15.7-.1 1.1-1 1.9-2.1 1.8-1.4 0-2.2-1-2.1-2.1z" class="st62"/><path d="M282.4 282.8s-70.8 7.9-124 7.2c-23.7-.4-44-2.6-53.4-7.7-.3-.2-.5-.4-.7-.6 0 0-2.8-3.3-5-10.2-.9-2.9-1.6-6.5-2-10.7-.6-7.9-1.1-54-.2-94.9.6-28.6 1.9-54.7 4.1-63.4 2.3-9.3 9.1-18.2 18.1-25.7 12.2-10.2 28.2-17.8 41.4-20.6 14.1-3 33.1-5.8 50.3-1.1 10.6 2.9 20.5 8.5 28.4 18.5.7.9.5 2.1-.3 2.8-.9.7-2.1.5-2.8-.3-7.3-9.2-16.5-14.4-26.3-16.9-16.6-4.4-34.8-1.5-48.3 1.5-12.5 2.7-27.8 10.1-39.3 19.8-8.1 6.8-14.3 14.8-16.4 23.2-2.1 8.6-3.1 34.2-3.7 62.4-.8 40.7-.5 86.5.2 94.4.3 3.8 1 7 1.7 9.7 1.4 4.5 3 7.2 3.7 8.1 9.2 4.8 28.3 6.6 50.6 7.1 53 1.1 123.5-6.3 123.5-6.3 1.1-.1 2.1.7 2.2 1.7.1.9-.7 1.8-1.8 2z" class="st59"/><path d="M258.9 143.5s1.1-18.3-1.6-34.9c-1.3-8.3-3.6-16.2-7.6-20.8-6.5-7.5-21.5-11.4-37.9-11.5-13.6-.1-28.3 2.4-40.5 7.9-7.4 3.3-11.8 10.2-14.6 17.9-5 14-4.7 30.8-5.3 37.6-.6 5.4-.3 39 .2 72.4.5 34.3.3 67 .9 70.9.2 1.1-.6 2.1-1.6 2.3-1.1.2-2.1-.6-2.3-1.6-.7-3.9-.9-36.9-1.6-71.5-.8-33.8-1.2-67.6-.6-73 .7-7 .4-24.5 5.5-38.9 3.2-9.1 8.6-17 17.4-20.9 15.5-6.9 34.8-9.3 51.4-7.6 14.4 1.4 26.7 6 32.6 13 4.4 5.2 7 13.9 8.4 23.1 2.6 17 1.2 35.8 1.2 35.8-.1 1.1-1 1.9-2.1 1.8-1.2 0-2-.9-1.9-2z" class="st61"/><path d="M171.8 286.2c.3.9 0 1.9-.9 2.4-1 .5-2.2.2-2.7-.8-.1-.2-.3-.6-.4-1.3-.1-1-.3-3.1-.4-6-.6-11.3-1.1-35.7-.8-58.5.2-17.7 1-34.5 2.6-43.5 2.6-15.1 11.7-24.7 23.1-30.6 18.9-9.8 44.5-9.4 56.6-7.7 9.4 1.3 17.2 4.4 23.2 9.2 6.6 5.2 11.1 12.4 13.3 21.3 1.2 5.1 1.7 17.9 1.6 33.1-.1 32.6-2.2 76.2-2.2 76.2 0 1.1-1 1.9-2.1 1.9s-1.9-1-1.9-2.1c0 0 1.6-43.6 1.4-76.1-.1-14.7-.5-27.1-1.7-32-1.9-7.7-5.8-13.9-11.6-18.5-5.4-4.2-12.4-6.9-20.8-8-11.5-1.6-35.6-2.1-53.6 7.1-10.1 5.2-18.2 13.6-20.7 26.9-1.6 8.8-2.4 25.3-2.8 42.7-.5 22.7-.3 46.9.2 58.2.1 2.3.2 4 .3 5.1.2.5.3.8.3 1z" class="st59"/><path d="M275.7 167.6s-15.1-7.1-37.3-6.4c-11.9.4-25.3 3.1-38.2 10.5-.2.1-.4.2-.7.3 0 0-3.6 1.2-6.4 8.8-1.6 4.3-2.9 10.5-3.2 19.4-.3 8.2-.5 20.7-.5 33.6-.1 24.6 0 49.5 0 49.5 0 1.1-.8 2-1.9 2-1.1 0-2-.8-2-1.9 0 0-.6-24.9-.8-49.6-.1-13-.1-25.6.1-33.8.3-9.6 1.7-16.3 3.5-21 3.5-9.3 8.3-11.5 9.7-11.9 13.6-7.6 27.7-10.3 40.3-10.5 23.2-.4 39 7.5 39 7.5 1 .4 1.5 1.6 1 2.6-.4.9-1.6 1.4-2.6.9z" class="st60"/><path d="M251.7 92s-3.2-1-12.8-1.4c-4.9-.2-11.5-.2-20.1.2-5.7.2-10.7.7-15 1.2-5.8.7-10.4 1.8-14.3 3.2-6.6 2.5-10.8 6.3-14.3 11.8-1.7 2.6-2.6 5.1-3.1 7.5-.7 3.1-.8 6.1-1 8.6-.1 1.1-1 1.9-2.1 1.9-1.1-.1-1.9-1-1.9-2.1.1-3.2.1-7 1.2-11.1.6-2.3 1.5-4.7 3-7.2 3.9-6.5 8.7-11 16.3-14.1 4.2-1.7 9.2-2.9 15.5-3.7 4.5-.6 9.6-.9 15.5-1 8.8-.2 15.5 0 20.5.4 10.5.7 13.9 2.1 13.9 2.1 1 .4 1.5 1.5 1.2 2.5-.3 1.1-1.5 1.6-2.5 1.2z" class="st62"/><path d="M169.9 122.1c-4-.3-6.3 1.5-7.5 3.6-1.7 2.9-1.1 6.8.5 8.8 1.6 1.9 4.9 2.9 7.7 2.2 2.6-.7 4.9-2.7 5.1-6.3.1-2.1-.4-3.7-1.1-4.9-1.5-2.6-3.9-3.4-3.9-3.4-.3.1-.6 0-.8 0z" class="st62"/><path d="M173.4 135.9l3 18.2c.1.7-.1 1.4-.6 2-.5.5-1.1.9-1.8.9l-11.8.6c-.8 0-1.5-.3-2-.8-.5-.6-.7-1.4-.6-2.1l3.9-20c.2-1.1 1.2-1.8 2.3-1.6 1.1.2 1.8 1.2 1.6 2.3l-2.3 17 6-.3-1.6-15.6c-.1-1.1.6-2.1 1.7-2.2 1.1-.3 2.1.5 2.2 1.6zm100.2 50.7s-7.3.7-17.3 1.6c-5.3.4-11.3.9-17.3 1.3-3.5.2-7 .4-10.4.5-11.7.5-21.8.7-24.5.5-1.1 0-1.9-1-1.9-2.1s1-1.9 2.1-1.9c2.7.1 12.9-.8 24.7-1.6 5.4-.4 11.1-.8 16.6-1.1 14.7-.8 27.7-1.2 27.7-1.2 1.1-.1 2 .7 2.1 1.8.1 1.2-.7 2.2-1.8 2.2z" class="st62"/><path d="M251.6 112.8c-4-.3-6.3 1.5-7.5 3.6-1.7 2.9-1.1 6.8.5 8.8 1.6 1.9 4.9 2.9 7.7 2.2 2.6-.7 4.9-2.7 5.1-6.3.1-2.1-.4-3.7-1.1-4.9-1.5-2.6-3.9-3.4-3.9-3.4-.4.1-.6 0-.8 0z" class="st62" transform="translate(-43.6 73.142)"/><path d="M255.1 126.6l3 18.2c.1.7-.1 1.4-.6 2-.5.5-1.1.9-1.8.9l-11.8.6c-.8 0-1.5-.3-2-.8-.5-.6-.7-1.4-.6-2.1l3.9-20c.2-1.1 1.2-1.8 2.3-1.6 1.1.2 1.8 1.2 1.6 2.3l-2.3 17 6-.3-1.6-15.6c-.1-1.1.6-2.1 1.7-2.2 1-.3 2 .5 2.2 1.6z" class="st62" transform="translate(-43.6 73.142)"/><path d="M137 81.7c1.5-3.1-2.1-6.2-4.9-4.1-11.2 8.4-25 24.3-26.3 51.8-1.8 38.1-.7 110.1-.2 136.1.1 5.4 4.5 9.7 9.9 9.7 5.5 0 9.9-4.4 9.9-9.9V130.5s2.3-30.1 11.6-48.8z" class="st63"/><circle cx="224.5" cy="114.1" r="15.8" fill="#00bf5f" fill-rule="evenodd" clip-rule="evenodd"/><path fill="#515759" d="M216.7 116l1.2-.1c-.4 1.6-.9 3.3-1.4 5.2-.2.9.3 1.9 1.3 2.1.9.2 1.9-.3 2.1-1.3.5-2.1 1.1-4.3 1.7-6.3l7.4-.6c.7 2.6 1.4 5.4 2 8 .2.8.9 1.4 1.7 1.4h.4c.9-.2 1.5-1.2 1.3-2.1-.6-2.9-1.3-5.3-1.8-7.5l2.5-.2c1-.1 1.7-.9 1.6-1.9-.1-1-.9-1.7-1.9-1.6l-3.2.2c-3.2-10.4-5.3-10.2-6.3-10.1-.8.1-3 .3-6.4 11l-2.5.2c-1 .1-1.7.9-1.6 1.9.1.9.8 1.6 1.7 1.6.1.1.1.1.2.1zm6.1-4c1-3.1 2-5.6 2.8-6.7.7 1.1 1.6 3.5 2.5 6.3l-5.3.4z"/><path d="M209 241.8s-.5-14.6-7.3-14.7c-9.6-.2-8.2 6.9-9.3 14.4-1.5 10.3-.6 29.6-.2 36.7.1 1.5 3.8 2.6 8.4 2.6 4.6 0 8.4-1.2 8.4-2.7v-36.3" class="st63"/><path fill="#fff" d="M164.5 26.5c-3.1.3-7.9 1.6-11 6.6-1.1 1.8-3.6 2-5 .5-.8-.9-1.1-2.1-.7-3.3 1.5-4 5.9-13 16.2-12.7 1.6 0 2.9 1.3 3.1 2.9l.2 2.5c.2 1.8-1.1 3.3-2.8 3.5z" opacity=".35"/><path d="M82.4 154.8l-24.9 27.7S41 199.7 36.8 215c-.7 2.4.4 4.9 2.5 6.1 2.3 1.3 5.2.4 6.5-2 4.1-7.3 12.9-22 19.5-28.1l19.9-25.5c2.3-3 3.3-6.8 2.7-10.6-.4-2.7-3.8-3.3-5.1-.9l-.4.8z" class="st63"/><path fill-rule="evenodd" d="M278 247.9v23c0 2.8-2.1 5.1-4.9 5.4l-20 1.8c-1.2.1-2.3-.2-3.1-.7-3.7-2.1-2.4-7.9 1.8-8.6l7.9-1.2c5.1-.8 8.9-5.2 8.9-10.4l-.1-9.3c0-4.5 5.8-6.8 8.5-3.2.6.8 1 1.9 1 3.2zm-17.3-125.8V136c-.1 2.5-1.3 3.1-3 3.2l-12-2.2c-.7.1-2.7-.5-3.3-.8-2.3-1.3-1.5-4.8 1.1-5.2l4.8-.7c3.1-.5 5.5-1.5 5.5-4.6l.8-4.5.6-2.2c.5-2.6 3.7-5.8 5.2-3.8.3.5.2 3 .3 6.9zm-57.7-80l.3 8.4c0 1.5-.8 1.9-2 2l-8.4-1c-.5.1-1.9-.2-2.3-.4-1.6-.7-1.1-2.9.7-3.2l3.3-.6c2.1-.4 3.8-1 3.7-2.9l.4-2.7.3-1.4c.3-1.6 2.4-3.6 3.5-2.4.4.3.3 1.8.5 4.2z" clip-rule="evenodd" opacity=".2"/></svg>