<svg xmlns="http://www.w3.org/2000/svg" version="1" viewBox="0 0 50 50"><path fill="#FCC34F" d="M4.254 24.083l3.429-2.195v13.51l13.224 7.635 21.142-7.695v-8.651l4.09-2.361a.39.39 0 0 0 .152-.515l-4.241-8.253-17.184-9.922-17.183 9.921-3.98 8.026a.39.39 0 0 0 .551.5z"/><path fill="#FDCF72" d="M32.286 9.898l-7.381-4.262-17.183 9.921-1.985 4.004z"/><path fill="#031326" d="M47.401 23.03l-4.409-8.58L24.866 3.984 6.731 14.455l-4.167 8.404a1.635 1.635 0 0 0 .393 1.893c.53.48 1.303.562 1.97.175l1.505-.963v11.948l17.026 9.83a1.251 1.251 0 0 0 1.707-.458c.192-.333.199-.711.077-1.046v-17.92l4.628 6.316 10.927-6.308v8.614a1.25 1.25 0 0 0 2.5 0V27.2l3.466-2a1.639 1.639 0 0 0 .638-2.17zm-22.407 2.235l-.908-.524.908-.524.908.524-.908.524zM9 16.031l15.744-9.09v16.843l-1.157.669L9 16.031zm17.402 8.421l-1.158-.668V7.09l15.617 9.016-14.459 8.346zM6.206 21.141l2.23-4.498v3.07l-2.23 1.428zm2.73 13.328V16.572l5.247 3.029v6.768l3.788 2.186-.006-6.771 6.779 3.914v17.908c-.013-.008-.021-.023-.035-.031L8.936 34.469zm16.425-8.838l1.163-.672.003-.002 14.696-8.484 3.582 6.97-.137.079c-.005.003-.011-.001-.016.002l-14.641 8.453-4.65-6.346z"/></svg>