<?xml version="1.0" encoding="UTF-8"?>
<svg xmlns="http://www.w3.org/2000/svg" viewBox="0 0 1461.51 1605.33">
  <defs>
    <style>
      .cls-1, .cls-2, .cls-3, .cls-4, .cls-5 {
        fill: none;
        stroke: #444;
        stroke-linecap: round;
        stroke-linejoin: round;
      }

      .cls-1, .cls-4 {
        fill-rule: evenodd;
      }

      .cls-6 {
        fill: #ff6b6b;
      }

      .cls-3 {
        stroke-width: 2.5px;
      }

      .cls-7 {
        fill: #444;
      }

      .cls-4, .cls-5 {
        stroke-width: .5px;
      }
    </style>
  </defs>
  <g id="Layer_2">
    <path class="cls-6" d="M1458.88,12.1l-5.63-3.59-7.67-4.43-5.97-2.84c-3.2,0-21.45,8.94-21.45,12.14l-.53,7.8.53,15.13,11.5,7.56,31.02-11.04c.74-.42-.82-18.75-1.8-20.74Z"/>
    <path class="cls-3" d="M1444.15,46.16l-2.2,1.27c-1.69.98-3.78.98-5.47,0l-15.57-8.99c-1.69-.98-2.74-2.78-2.74-4.74V15.71c0-1.96,1.04-3.76,2.74-4.74l15.57-8.99c1.69-.98,3.78-.98,5.47,0l15.57,8.99c1.69.98,2.74,2.78,2.74,4.74v17.98c0,1.96-1.04,3.76-2.74,4.74l-2.46,1.42"/>
  </g>
  <g id="Camada_3">
    <path class="cls-7" d="M1426.97,12.09c.05,0,.1,0,.15,0,.17-.99,1.04-1.75,2.08-1.75.48,0,.92.16,1.27.42.38-.67,1.1-1.13,1.93-1.13,1.23,0,2.22.99,2.22,2.22,0,.08,0,.15-.01.23.05,0,.1,0,.15,0,1.23,0,2.22.99,2.22,2.22s-.99,2.22-2.22,2.22h-7.8c-1.23,0-2.22-.99-2.22-2.22s.99-2.22,2.22-2.22Z"/>
    <g>
      <path class="cls-7" d="M1452.07,24.3l1.86-2.77c.23-.34-.01-.79-.42-.79h-3.73c-.41,0-.65.46-.42.79l1.86,2.77c.2.3.64.3.85,0Z"/>
      <path class="cls-5" d="M1451.73,21.36v-3.92c0-1.84-1.49-3.32-3.32-3.32h-3.69"/>
    </g>
    <g>
      <path class="cls-7" d="M1426.35,29.36l-1.86,2.77c-.23.34.01.79.42.79h3.73c.41,0,.65-.46.42-.79l-1.86-2.77c-.2-.3-.64-.3-.85,0Z"/>
      <path class="cls-5" d="M1426.68,32.29v3.92c0,1.84,1.49,3.32,3.32,3.32h3.69"/>
    </g>
    <rect class="cls-7" x="1451.05" y="27.19" width="1.2" height="1.2"/>
    <rect class="cls-7" x="1451.05" y="29.53" width="1.2" height="1.2"/>
    <rect class="cls-7" x="1451.05" y="31.88" width="1.2" height="1.2"/>
    <g>
      <line class="cls-2" x1="1431.97" y1="20.66" x2="1431.97" y2="32.92"/>
      <g>
        <ellipse class="cls-2" cx="1439.26" cy="20.55" rx="7.29" ry="3.23"/>
        <line class="cls-2" x1="1446.55" y1="20.66" x2="1446.55" y2="32.92"/>
        <path class="cls-1" d="M1431.97,24.14c0,1.78,3.26,3.23,7.29,3.23s7.29-1.44,7.29-3.23"/>
        <path class="cls-1" d="M1431.97,28.02c0,1.78,3.26,3.23,7.29,3.23s7.29-1.44,7.29-3.23"/>
        <path class="cls-1" d="M1431.97,32.72c0,1.78,3.26,3.23,7.29,3.23s7.29-1.44,7.29-3.23"/>
        <path class="cls-4" d="M1436.52,33.02c.85.15,1.77.24,2.75.24,1.03,0,2.01-.09,2.9-.27"/>
        <path class="cls-4" d="M1436.52,29.06c.85.15,1.77.24,2.75.24,1.03,0,2.01-.09,2.9-.27"/>
        <path class="cls-4" d="M1436.52,25.09c.85.15,1.77.24,2.75.24,1.03,0,2.01-.09,2.9-.27"/>
      </g>
    </g>
  </g>
</svg>