<svg xmlns="http://www.w3.org/2000/svg" viewBox="0 0 50 50"><defs><style>.cls-1,.cls-2{fill:none;stroke:#444;stroke-linecap:round;stroke-linejoin:round}.cls-2{stroke-width:2.5px}</style></defs><g id="Camada_1"><path fill="#fc9d9a" d="M47.5 21.3c-.2-.8-2.7-7.6-3.2-8.2l-3-3.5h-.2l-7.7-5.7L25.3 2c-3.2 0-3-4.4-9.9 5.4 0 .1-4.6 3-4.6 3l-1.9 4.7L4.4 19c-.6.5-1.7 4.2-1.9 5.6s2.2 4 2.2 4.2l-.9 8.9c.1.4 3.5 4.5 3.8 4.7l6.4-.5c1 .5 1 4.5 2.1 4.1l30.8-11.2c.7-.4 1.7-8.7.8-13.5z"/><path d="M21.7 1.7c5.5 0 11.1 1.8 15.8 5.4 11.5 8.7 13.8 25 5.2 36.5" class="cls-2"/><path d="M27.5 9.3c0-5.6-2.5-7.6-5.8-7.6s-4.4 1.1-5.5 3.2-.7 1.8-.7 2.8v.2h-.8c-1.5 0-3 .8-4.1 2.1-1.3 1.5-2.3 4-1.8 6.5-3.7.2-6.6 3.3-6.6 7.1s1.2 4.6 3.2 5.9c-1.3 1.4-2.1 3.3-2.1 5.3 0 4.3 3.5 7.8 7.8 7.8s2.2-.2 3.1-.7c.3 1.8 1.4 6.1 5.6 6.6h1.9c3.4-.3 5.9-3.3 5.9-6.8V38" class="cls-2"/><path d="M31.3 13.5h3.6l3.4 3.1m-7.4 4.9h6.5l2.3 2.2m-7 5.1h1.4m-3.1 7h4.7c.4 0 .7-.1 1-.3l2-1.3" class="cls-1"/><circle cx="41.2" cy="25.3" r="2.1" class="cls-1"/><circle cx="36.3" cy="28.7" r="2.1" class="cls-1"/><circle cx="40.4" cy="32.8" r="2.1" class="cls-1"/><circle cx="39.9" cy="18.1" r="2.1" class="cls-1"/><path fill="none" stroke="#444" stroke-linecap="round" stroke-linejoin="round" stroke-width=".5" d="M23 12.8s-5.3-3-7.5 3.1m5.4 3.9s-.6-5.3 5.7-4.4m-10.2 4.9s-2.6 4.6 0 7.6 5.9 2.2 5.9 2.2M9.4 26.6s2.3 5.7 7.5 1.9m.4 5.2s5.1 1 3.9 6.8"/><path d="M24 10.2s4.6 1.9 4.6 6.6-3.9 6.2-3.9 6.2" class="cls-1"/><path d="M26.6 21.6s4.6 1.9 4.6 6.6-3.9 6.2-3.9 6.2" class="cls-1"/></g></svg>