<svg version="1" xmlns="http://www.w3.org/2000/svg" viewBox="0 0 50 50"><path fill="#FCC34F" d="M14.816 46.241l.62-.09 23.946-8.715V34.99l2.942-.46V15.617l-2.942-.46V7.321L14.816 3.759h-7.14v42.482h7.132z"/><path fill="#FDCF72" d="M39.382 7.352v-.031L14.817 3.759H7.676v15.133z"/><path fill="#444" d="M40.633 14.088V6.239L14.995 2.522 6.426 2.51v44.982h8.48l10.273-1.489a1.25 1.25 0 1 0-.359-2.475l-9.757 1.415V5.059l23.069 3.345v7.207l-2.651-.381V10.7L18.717 8.261v1.277c-.004.018-.022.029-.022.048 0 .023.017.037.022.058v32.088l16.55-2.399.214-.03V34.77l2.651-.381v4.118a1.25 1.25 0 0 0 2.5 0v-2.446l2.941-.461V14.549l-2.94-.461zM8.926 5.01h5.637v39.982H8.926V5.01zm32.148 11.511v16.94l-.026.004-5.817.838-4.496.648V15.052l10.339 1.469zM28.105 34.986l-.005-.002-.005.002-6.835-.002V15.01l8.976.003v19.973h-2.131zM19.217 9.877l8.632 1.256v3.382l-6.843-.004h-.253l.006.25v20.723h7.09v3.387l-8.632 1.258V9.877zm11.304 4.639h-.029l-.006-.002-.006.002-2.13-.001v-3.348h6.632v3.991l-4.461-.642zm1.255-3.849h-3.659l-8.9-1.291v-.537l12.559 1.828zM19.217 40.63l8.897-1.294h3.647l-12.544 1.818v-.524zm15.764-1.794H28.35v-3.353h2.129c.003 0 .004.003.007.003s.004-.003.007-.003h.028l4.461-.641v3.994z"/></svg>