<?xml version="1.0" encoding="utf-8"?>
<!-- Generator: Adobe Illustrator 28.0.0, SVG Export Plug-In . SVG Version: 6.00 Build 0)  -->
<svg version="1.1" id="Layer_1" xmlns="http://www.w3.org/2000/svg" xmlns:xlink="http://www.w3.org/1999/xlink" x="0px" y="0px"
	 viewBox="0 0 50 50" style="enable-background:new 0 0 50 50;" xml:space="preserve">
<style type="text/css">
	.st0{fill:#319327;}
	.st1{fill:#5ABA52;}
	.st2{fill:none;stroke:#444444;stroke-width:2.5;stroke-linecap:round;stroke-linejoin:round;stroke-miterlimit:10;}
	.st3{fill:#444444;}
	.st4{fill:none;stroke:#444444;stroke-width:0.5;stroke-linecap:round;stroke-miterlimit:10;}
</style>
<polygon class="st0" points="22.3,23.3 28.4,25.2 23.2,28.9 23.3,35.3 18.1,31.5 12.1,33.6 14.1,27.5 10.3,22.3 16.7,22.4 
	20.4,17.2 "/>
<path class="st1" d="M33.8,11.2l-17.6,0l-5.5-5.5l-2.9,7.8c-3.1,3.7-4.4,5.9-5.1,8.8l-0.6,9.2l5.3,8l7.1,2.6l32.8-11.7
	c0.4-0.2,2.4-9.7-5.2-17.5C41.4,12.2,39.9,6,39.3,6C37,6.2,34,11.7,33.8,11.2z"/>
<path class="st2" d="M46.5,34.4c1.8-3,1.3-8.8,1.3-8.8c-0.6-7.6-5.6-13.3-5.6-13.3l-2.3-5.9c-0.3-0.7-1.1-0.8-1.6-0.2L34,11.5H16.5
	L11.7,6c-0.5-0.5-1.3-0.4-1.5,0.3l-2.3,7.1c0,0-4.8,4.6-5.6,12.6c0,0-1.5,9.7,8.4,14.8c0,0,6.4,4.2,17.1,3.3c0,0,6-0.1,10.5-2.3"/>
<g>
	<g>
		<rect x="11.7" y="18.2" class="st3" width="3" height="15.7"/>
		<rect x="15.5" y="25.5" class="st3" width="3" height="8.4"/>
		<rect x="19.3" y="28" class="st3" width="3" height="5.9"/>
		<rect x="23.1" y="30" class="st3" width="3" height="4"/>
		<rect x="26.9" y="30.6" class="st3" width="3" height="3.3"/>
		<rect x="30.7" y="31.5" class="st3" width="3" height="2.4"/>
		<rect x="34.5" y="32.6" class="st3" width="3" height="1.3"/>
	</g>
	<line class="st4" x1="10.2" y1="33.9" x2="39.8" y2="33.9"/>
</g>
</svg>
