<svg width="45" height="51" viewBox="0 0 45 51" fill="none" xmlns="http://www.w3.org/2000/svg">
<path d="M42.25 12.86L36.62 9.27L28.95 4.84L22.98 2C19.78 2 1.53003 10.94 1.53003 14.14L1 21.94L1.53003 37.07L13.03 44.63L44.05 33.59C44.79 33.17 43.23 14.84 42.25 12.85V12.86Z" fill="#FF6B6B"/>
<path d="M27.52 46.92L25.3199 48.19C23.6299 49.17 21.54 49.17 19.85 48.19L4.28003 39.2C2.59003 38.22 1.54004 36.42 1.54004 34.46V16.47C1.54004 14.51 2.58003 12.71 4.28003 11.73L19.85 2.74C21.54 1.76 23.6299 1.76 25.3199 2.74L40.89 11.73C42.58 12.71 43.63 14.51 43.63 16.47V34.45C43.63 36.41 42.59 38.21 40.89 39.19L38.4301 40.61" stroke="#444444" stroke-width="2.5" stroke-linecap="round" stroke-linejoin="round"/>
<path d="M10.3394 12.85C10.3894 12.85 10.4394 12.85 10.4894 12.85C10.6594 11.86 11.5293 11.1 12.5693 11.1C13.0493 11.1 13.4894 11.26 13.8394 11.52C14.2194 10.85 14.9394 10.39 15.7694 10.39C16.9994 10.39 17.9894 11.38 17.9894 12.61C17.9894 12.69 17.9894 12.76 17.9794 12.84C18.0294 12.84 18.0794 12.84 18.1294 12.84C19.3594 12.84 20.3494 13.83 20.3494 15.06C20.3494 16.29 19.3594 17.28 18.1294 17.28H10.3293C9.09935 17.28 8.10938 16.29 8.10938 15.06C8.10938 13.83 9.09935 12.84 10.3293 12.84L10.3394 12.85Z" fill="#444444"/>
<path d="M35.44 25.06L37.3001 22.29C37.5301 21.95 37.2901 21.5 36.8801 21.5H33.1501C32.7401 21.5 32.5 21.96 32.73 22.29L34.59 25.06C34.79 25.36 35.23 25.36 35.44 25.06Z" fill="#444444"/>
<path d="M35.0999 22.12V18.2C35.0999 16.36 33.6099 14.88 31.7799 14.88H28.0898" stroke="#444444" stroke-width="0.5" stroke-linecap="round" stroke-linejoin="round"/>
<path d="M9.71991 30.12L7.85992 32.89C7.62992 33.23 7.86997 33.68 8.27997 33.68H12.0099C12.4199 33.68 12.66 33.22 12.43 32.89L10.5699 30.12C10.3699 29.82 9.92991 29.82 9.71991 30.12Z" fill="#444444"/>
<path d="M10.0498 33.05V36.97C10.0498 38.81 11.5398 40.29 13.3698 40.29H17.0597" stroke="#444444" stroke-width="0.5" stroke-linecap="round" stroke-linejoin="round"/>
<path d="M35.6199 27.95H34.4199V29.15H35.6199V27.95Z" fill="#444444"/>
<path d="M35.6199 30.29H34.4199V31.49H35.6199V30.29Z" fill="#444444"/>
<path d="M35.6199 32.64H34.4199V33.84H35.6199V32.64Z" fill="#444444"/>
<path d="M15.3398 21.42V33.68" stroke="#444444" stroke-linecap="round" stroke-linejoin="round"/>
<path d="M22.6299 24.54C26.656 24.54 29.9199 23.0939 29.9199 21.31C29.9199 19.5261 26.656 18.08 22.6299 18.08C18.6037 18.08 15.3398 19.5261 15.3398 21.31C15.3398 23.0939 18.6037 24.54 22.6299 24.54Z" stroke="#444444" stroke-linecap="round" stroke-linejoin="round"/>
<path d="M29.9199 21.42V33.68" stroke="#444444" stroke-linecap="round" stroke-linejoin="round"/>
<path d="M15.3398 24.9C15.3398 26.68 18.5999 28.13 22.6299 28.13C26.6599 28.13 29.9199 26.69 29.9199 24.9" stroke="#444444" stroke-linecap="round" stroke-linejoin="round"/>
<path d="M15.3398 28.78C15.3398 30.56 18.5999 32.01 22.6299 32.01C26.6599 32.01 29.9199 30.57 29.9199 28.78" stroke="#444444" stroke-linecap="round" stroke-linejoin="round"/>
<path d="M15.3398 33.48C15.3398 35.26 18.5999 36.71 22.6299 36.71C26.6599 36.71 29.9199 35.27 29.9199 33.48" stroke="#444444" stroke-linecap="round" stroke-linejoin="round"/>
<path d="M19.8896 33.78C20.7396 33.93 21.6596 34.02 22.6396 34.02C23.6696 34.02 24.6497 33.93 25.5397 33.75" stroke="#444444" stroke-width="0.5" stroke-linecap="round" stroke-linejoin="round"/>
<path d="M19.8896 29.82C20.7396 29.97 21.6596 30.06 22.6396 30.06C23.6696 30.06 24.6497 29.97 25.5397 29.79" stroke="#444444" stroke-width="0.5" stroke-linecap="round" stroke-linejoin="round"/>
<path d="M19.8896 25.85C20.7396 26 21.6596 26.09 22.6396 26.09C23.6696 26.09 24.6497 26 25.5397 25.82" stroke="#444444" stroke-width="0.5" stroke-linecap="round" stroke-linejoin="round"/>
</svg>
