<svg xmlns="http://www.w3.org/2000/svg" id="Layer_1" x="0" y="0" version="1.1" viewBox="0 0 50 50" xml:space="preserve"><style>.st1{fill:#031326}</style><path d="M43.7 12.4h-.1l-3.1-1.5c-.1-.1-.2-.2-.1-.3.1-.1.2-.2.3-.1l3.1 1.5c.1.1.2.2.1.3 0 0-.1.1-.2.1z" class="st1"/><path fill="#e56060" d="M45.2 11.2l-3.4-1.6-4.1 1v.7L36 11 4.8 22.4v16.4l2.4 1.1 38-13.8z"/><path fill="#ff6b6b" d="M36.2 11.3V6.9l-11-5.3-20.5 9.9v11.4l31.7-11.5z"/><path d="M25.2 19.4h-.5l-6.7.7v9.5l7.1.8.2-.3V19.8l5.9.7v8.9c0 .1.1.2.2.2s.2-.1.2-.2v-9.3l-6.4-.7zm-.4 10.5l-6.3-.7v-8.6l6.3-.7v10z" class="st1"/><path d="M24.8 30.5c-.1 0-.2-.1-.2-.2s.1-.3.2-.3l6.7-.8c.1 0 .3.1.3.2s-.1.3-.2.3l-6.8.8z" class="st1"/><path d="M41.5 8.6l-4.8 1.2V6.4L25 .7 4.1 10.8v28.4l4.4 2 4.7-1.1v3.5L25 49.3 40.1 42c.6-.3.9-1 .6-1.7-.3-.6-1-.9-1.7-.6l-13.8 6.6v-8.2l15.3-4.4h.2v-.1c.1-.1.1-.3 0-.4V11.4l.4-.1 2.2 1.1v15.4c0 .7.6 1.2 1.2 1.2s1.2-.6 1.2-1.2v-17l-4.2-2.2zm-16.2-5l9 4.4v4.5l.5.1v1.8l-9.5-2.8v-8zM9.4 16l-.3.4.1.1v22.1l-.3.1-2.3-1.1V12.4l18.2-8.8v7.9L9.4 16zM13 37.1l-1.6-.2V38l-1.7.4V16.6l3.3.5v20zm.2-20.5l-2.8-.4L24.9 12l.1.1.1-.1 8.9 2.6-3.1.6-5.9-1.4-11.8 2.8zm.3.4L25 14.3l5.9 1.4 4.6-.8-.2-.3v-2l1.3.2v19.8L25 35.3l-5.9-1.4H19l-4 .7c-.1 0-.1.1-.2.2v2.5l-1.3-.2V17zm11.3 29.3l-9-4.4v-4.5l-.5-.1v-2l9.5 2.8v8.2zm.2-8.6L15.7 35l3.4-.6 5.9 1.4h.1L36.7 33l.1.2 2.4.4L25 37.7zm15.3-4.4h-.5l-2.8-.5v-20l1.6.2v-1l1.7-.4v21.7z" class="st1"/></svg>