<?xml version="1.0" encoding="utf-8"?>
<!-- Generator: Adobe Illustrator 24.0.1, SVG Export Plug-In . SVG Version: 6.00 Build 0)  -->
<svg version="1.1" id="Layer_1" xmlns="http://www.w3.org/2000/svg" xmlns:xlink="http://www.w3.org/1999/xlink" x="0px" y="0px"
	 viewBox="0 0 50 50" style="enable-background:new 0 0 50 50;" xml:space="preserve">
<style type="text/css">
	.st0{fill:none;stroke:#444444;stroke-width:0.5;stroke-linecap:round;stroke-miterlimit:10;}
	.st1{fill:#444444;}
	.st2{fill:#E56060;}
	.st3{fill:#FF6B6B;}
</style>
<g>
	<path class="st0" d="M40.7,33.4"/>
</g>
<g>
	<path class="st1" d="M43.7,12.4c0,0-0.1,0-0.1,0l-3.1-1.5c-0.1-0.1-0.2-0.2-0.1-0.3c0.1-0.1,0.2-0.2,0.3-0.1l3.1,1.5
		c0.1,0.1,0.2,0.2,0.1,0.3C43.9,12.3,43.8,12.4,43.7,12.4z"/>
</g>
<g>
	<g>
		<polygon class="st2" points="45.2,11.2 41.8,9.6 37.7,10.6 37.7,11.3 36,11 4.8,22.4 4.8,38.8 7.2,39.9 45.2,26.1 		"/>
	</g>
	<g>
		<polygon class="st3" points="36.2,11.3 36.2,6.9 25.2,1.6 4.7,11.5 4.7,22.9 36.4,11.4 		"/>
	</g>
	<path class="st1" d="M25.2,19.4L25.2,19.4l-0.3,0l-0.1,0c0,0-0.1,0-0.1,0L18,20.1v9.5l7.1,0.8l0.2-0.3l0-10.3l5.9,0.7v8.9
		c0,0.1,0.1,0.2,0.2,0.2s0.2-0.1,0.2-0.2v-9.3L25.2,19.4z M24.8,29.9l-6.3-0.7v-8.6l6.3-0.7L24.8,29.9z"/>
	<g>
		<path class="st1" d="M24.8,30.5c-0.1,0-0.2-0.1-0.2-0.2c0-0.1,0.1-0.3,0.2-0.3l6.7-0.8c0.1,0,0.3,0.1,0.3,0.2
			c0,0.1-0.1,0.3-0.2,0.3L24.8,30.5C24.8,30.5,24.8,30.5,24.8,30.5z"/>
	</g>
	<path class="st1" d="M41.5,8.6l-4.8,1.2V6.4L25,0.7L4.1,10.8v28.4l4.4,2l4.7-1.1v3.5L25,49.3L40.1,42c0.6-0.3,0.9-1,0.6-1.7
		c-0.3-0.6-1-0.9-1.7-0.6l-13.8,6.6l0-8.2l15.3-4.4l0.1,0l0,0l0.1,0v-0.1l0,0c0.1-0.1,0.1-0.3,0-0.4c0,0,0,0,0,0V11.4l0.4-0.1
		l2.2,1.1v15.4c0,0.7,0.6,1.2,1.2,1.2s1.2-0.6,1.2-1.2V10.8L41.5,8.6z M25.3,3.6l9,4.4v4.5l0.5,0.1v1.8l-9.5-2.8V3.6z M9.4,16
		l-0.3,0.4l0.1,0.1v22.1l-0.3,0.1l-2.3-1.1V12.4l18.2-8.8v7.9L9.4,16L9.4,16z M13,37.1l-1.6-0.2V38l-1.7,0.4V16.6l3.3,0.5V37.1z
		 M13.2,16.6l-2.8-0.4L24.9,12l0.1,0.1l0.1-0.1l8.9,2.6l-3.1,0.6L25,13.8L13.2,16.6z M13.5,17L25,14.3l5.9,1.4l4.6-0.8l-0.2-0.3v-2
		l1.3,0.2v19.8L25,35.3l-5.9-1.4l-0.1,0L15,34.6c-0.1,0-0.1,0.1-0.2,0.2l0,0v2.5l-1.3-0.2V17z M24.8,46.3l-9-4.4v-4.5l-0.5-0.1v-2
		l9.5,2.8L24.8,46.3z M25,37.7L15.7,35l3.4-0.6l5.9,1.4l0.1,0l11.6-2.8l0.1,0.2l2.4,0.4L25,37.7z M40.3,33.3l-0.5,0L37,32.8v-20
		l1.6,0.2V12l1.7-0.4V33.3z"/>
</g>
</svg>
