<?xml version="1.0" encoding="utf-8"?>
<!-- Generator: Adobe Illustrator 22.1.0, SVG Export Plug-In . SVG Version: 6.00 Build 0)  -->
<svg version="1.1" id="Layer_1" xmlns="http://www.w3.org/2000/svg" xmlns:xlink="http://www.w3.org/1999/xlink" x="0px" y="0px"
	 viewBox="0 0 50 50" style="enable-background:new 0 0 50 50;" xml:space="preserve">
<style type="text/css">
	.st0{fill:#FCC34F;}
	.st1{fill:#FDCF72;}
	.st2{fill:#444444;}
</style>
<g>
	<g>
		<polygon class="st0" points="46,18.6 45.8,27.8 32.6,32.6 32.6,29.7 17.6,30.5 18.3,37.7 6.3,41.8 4.3,41.9 3.2,29.3 4.5,28.8 
			32.6,19.3 39.6,12.7 45.3,17.9 		"/>
	</g>
	<g>
		<polygon class="st1" points="46.9,20 45.4,20.5 4.5,35.5 4.5,28.8 4.3,22.4 17.3,17.4 17.8,19.6 32.4,19.7 32.7,12.1 45.1,7.4 
			45.5,9.3 		"/>
	</g>
	<path class="st2" d="M46.3,7.4L33.5,1c-0.4-0.2-0.8-0.2-1.2,0.1c-0.4,0.2-0.6,0.6-0.6,1.1v14.4H18.3V2.2c0-0.4-0.2-0.8-0.6-1.1
		c-0.4-0.2-0.8-0.2-1.2-0.1L3.7,7.4C3.3,7.6,3,8.1,3,8.5V42c0,0.5,0.3,0.9,0.7,1.1L16.5,49c0.2,0.1,0.3,0.1,0.5,0.1
		c0.2,0,0.5-0.1,0.7-0.2c0.4-0.2,0.6-0.6,0.6-1.1V33.5h13.4v14.4c0,0.4,0.2,0.8,0.6,1.1c0.2,0.1,0.4,0.2,0.7,0.2
		c0.2,0,0.4,0,0.5-0.1l12.8-5.9c0.4-0.2,0.7-0.6,0.7-1.1V8.5C47,8.1,46.7,7.6,46.3,7.4z M15.8,45.9L5.5,41.2V9.3l10.3-5.1V45.9z
		 M44.5,41.2l-10.3,4.7V4.2l10.3,5.1V41.2z"/>
</g>
</svg>
