<?xml version="1.0" encoding="utf-8"?>
<!-- Generator: Adobe Illustrator 24.0.0, SVG Export Plug-In . SVG Version: 6.00 Build 0)  -->
<svg version="1.1" id="Camada_1" xmlns="http://www.w3.org/2000/svg" xmlns:xlink="http://www.w3.org/1999/xlink" x="0px" y="0px"
	 viewBox="0 0 50 50" style="enable-background:new 0 0 50 50;" xml:space="preserve">
<style type="text/css">
	.st0{fill:#00C8E2;}
	.st1{fill:none;}
	.st2{fill:#00DFFC;}
	.st3{fill:#444444;}
</style>
<g>
	<g>
		<path class="st0" d="M8.8,25c0-3,0.9-5.9,2.3-8.3l-9.4,3.4c-0.3,1.6-0.5,3.2-0.5,4.9c0,7.3,3.3,13.8,8.5,18.2l9-3.3
			C12.8,37.4,8.8,31.7,8.8,25z"/>
	</g>
	<g>
		<path class="st0" d="M48.8,25c0-7.6-3.6-14.3-9.1-18.7l-9.3,3.4C36.7,11.9,41.2,18,41.2,25c0,2.4-0.5,4.9-1.3,7.2l8.5-3.1
			C48.7,27.7,48.8,26.4,48.8,25z"/>
	</g>
	<g>
		<path class="st1" d="M11.4,16.9L30.2,10c-1.6-0.6-3.4-0.9-5.2-0.9C19.2,9.1,14.1,12.2,11.4,16.9z"/>
	</g>
	<g>
		<path class="st2" d="M25,9.1c1.9,0,3.6,0.3,5.3,0.9l9.2-3.4c-4-3.2-9-5-14.5-5C13.7,1.6,4.2,9.7,2,20.3l9.3-3.4
			C14.1,12.2,19.2,9.1,25,9.1z"/>
	</g>
	<path class="st3" d="M25,0.4C11.4,0.4,0.4,11.4,0.4,25c0,13.6,11,24.6,24.6,24.6s24.6-11,24.6-24.6C49.6,11.4,38.6,0.4,25,0.4z
		 M19.1,39c-5.6-2.4-9.3-7.9-9.3-14c0-8.4,6.8-15.2,15.2-15.2c8.4,0,15.2,6.8,15.2,15.2c0,9.7-7.4,18.7-17.7,21.9
		c-0.1,0-0.2,0-0.4,0v-3.5C22.1,41.5,20.9,39.7,19.1,39z M26.3,47c9.1-4.2,15.3-12.8,15.3-22c0-9.2-7.5-16.7-16.7-16.7
		C15.8,8.3,8.3,15.8,8.3,25c0,6.7,4,12.7,10.2,15.3c1.3,0.5,2.1,1.7,2.1,3.1v3.2c-10.1-2-17.7-11-17.7-21.6
		C2.9,12.8,12.8,2.9,25,2.9S47.1,12.8,47.1,25C47.1,36.7,37.9,46.3,26.3,47z"/>
</g>
</svg>
