<svg xmlns="http://www.w3.org/2000/svg" viewBox="0 0 50 50"><path fill="#fcc34f" d="M45 18.9l-.2 9.2-13.2 4.8V30l-15 .8-.5 7.7-12.8 4.4.2-34 12-4.9 1.9 13.7 14.3 1.8 1.1-16.2L44 9l1 9.9z"/><path fill="#444" d="M45.3 7.7L32.5 1.3c-.4-.2-.8-.2-1.2.1-.4.2-.6.6-.6 1.1v13.2c0 .7-.6 1.2-1.2 1.2H18.6c-.7 0-1.2-.6-1.2-1.2V2.5c0-.4-.2-.8-.6-1.1-.4-.2-.8-.2-1.2-.1L2.7 7.7c-.4.2-.7.7-.7 1.1v33.5c0 .5.3.9.7 1.1l12.8 5.9c.2.1.3.1.5.1s.5-.1.7-.2c.4-.2.6-.6.6-1.1v-13c0-.7.6-1.2 1.2-1.2h10.9c.7 0 1.2.6 1.2 1.2v13.2c0 .4.2.8.6 1.1.2.1.4.2.7.2.2 0 .4 0 .5-.1l6.5-3c.6-.3.9-1 .6-1.7-.3-.7-1.1-1-1.7-.7L35 45.4c-.8.4-1.8-.2-1.8-1.1V6.5c0-.9 1-1.5 1.8-1.1l7.8 3.9c.4.2.7.6.7 1.1v26.1c0 .6.5 1.2 1.1 1.2.8.1 1.4-.5 1.4-1.2V8.8c0-.4-.3-.9-.7-1.1zM13.1 45.4l-7.8-3.6c-.4-.2-.7-.6-.7-1.1V10.4c0-.5.3-.9.7-1.1L13 5.4c.8-.4 1.8.2 1.8 1.1v37.7c0 1-.9 1.6-1.7 1.2z"/><path fill="none" stroke="#444" stroke-miterlimit="10" stroke-width=".5" d="M3.5 34.8l40.7-14.3"/><path fill="none" stroke="#444" stroke-miterlimit="10" stroke-width=".75" d="M3.5 31.9l40.7-14.3"/><path fill="none" stroke="#444" stroke-miterlimit="10" d="M32.2 11.5l12-4.2M3.5 21.6L16 17.2M3.5 14.6l12.3-4.3"/></svg>