<?xml version="1.0" encoding="utf-8"?>
<!-- Generator: Adobe Illustrator 22.0.1, SVG Export Plug-In . SVG Version: 6.00 Build 0)  -->
<svg version="1.1" id="Layer_1" xmlns="http://www.w3.org/2000/svg" xmlns:xlink="http://www.w3.org/1999/xlink" x="0px" y="0px"
	 viewBox="0 0 50 50" style="enable-background:new 0 0 50 50;" xml:space="preserve">
<style type="text/css">
	.st0{fill:#E589EF;}
	.st1{fill:#F799FF;}
	.st2{fill:#444444;}
	.st3{fill:none;}
</style>
<g>
	<path class="st0" d="M7.4,46.8l7.5-7.5c2,1.5,4.1,2.5,6.4,3.2l23-8.4c5.2-8,4.3-18.7-2.6-25.7c-8-8-21-8-29,0
		c-7.3,7.3-7.9,18.7-1.9,26.8l-7.5,7.5c-1.1,1.1-1.1,3,0,4.1C4.4,47.9,6.2,47.9,7.4,46.8z"/>
</g>
<g>
	<g>
		<g>
			<path class="st1" d="M36.5,4.6C28.8,0.7,19.2,2,12.8,8.4c-1.9,1.9-3.3,4.1-4.3,6.4L36.5,4.6z"/>
		</g>
	</g>
</g>
<g>
	<g>
		<path class="st2" d="M42.4,7.6c-8.4-8.4-22.2-8.4-30.6,0c-7.3,7.3-8.4,19-2.6,27.5l-6.8,6.8c-0.8,0.8-1.2,1.8-1.2,2.9
			s0.4,2.1,1.2,2.9c0.8,0.8,1.8,1.2,2.9,1.2s2.1-0.4,2.9-1.2l6.8-6.8c3.6,2.4,7.8,3.7,12.1,3.7h0c0.6,0,1.2-0.5,1.2-1.2
			c0-0.6-0.5-1.2-1.2-1.2c-4.2,0-8.2-1.3-11.6-3.9l-0.8-0.6c-0.5-0.4-0.9-0.8-1.3-1.2c-0.4-0.4-0.8-0.9-1.2-1.3l-0.6-0.8
			c-5.7-7.6-5-18.5,1.8-25.2c3.7-3.7,8.5-5.7,13.7-5.7s10,2,13.7,5.7c6.5,6.5,7.5,16.7,2.5,24.3c-0.4,0.5-0.2,1.3,0.3,1.6
			c0.5,0.4,1.3,0.2,1.6-0.3C50.9,26.3,49.7,14.8,42.4,7.6z M6.5,45.9c-0.7,0.7-1.8,0.7-2.5,0c-0.3-0.3-0.5-0.8-0.5-1.2
			s0.2-0.9,0.5-1.2l4.2-4.2l2.5,2.5L6.5,45.9z M13.7,38.7l-2.4,2.4l-2.5-2.5l2.4-2.4c0.4,0.4,0.8,0.9,1.2,1.3
			C12.9,37.9,13.3,38.3,13.7,38.7z"/>
	</g>
</g>
<g>
	<g>
		<path class="st2" d="M36.5,32.6h-4.8L27,25l-4.7,7.6h-4.5l6.6-10.3l-6.2-9.7h4.7l4.3,7.2l4.2-7.2H36l-6.3,9.9L36.5,32.6z"/>
	</g>
</g>
<rect x="20.7" y="16.1" class="st3" width="12.9" height="12.9"/>
<path class="st3" d="M42.2,15.4c-1.6-3.4-4.4-6.2-7.8-7.8v7.8H42.2z"/>
<path class="st3" d="M19.9,7.6c-3.4,1.6-6.2,4.4-7.8,7.8h7.8V7.6z"/>
<path class="st3" d="M33.6,15.4V7.2c-2-0.8-4.2-1.3-6.5-1.3c-2.3,0-4.5,0.5-6.5,1.3v8.2H33.6z"/>
<path class="st3" d="M34.4,29.1h8.2c0.8-2,1.3-4.2,1.3-6.5c0-2.3-0.5-4.5-1.3-6.5h-8.2V29.1z"/>
<path class="st3" d="M34.4,37.6c3.4-1.6,6.2-4.4,7.8-7.8h-7.8V37.6z"/>
<path class="st3" d="M12.2,29.8c1.6,3.4,4.4,6.2,7.8,7.8v-7.8H12.2z"/>
<path class="st3" d="M20.7,29.8V38c2,0.8,4.2,1.3,6.5,1.3c2.3,0,4.5-0.5,6.5-1.3v-8.2H20.7z"/>
<path class="st3" d="M19.9,16.1h-8.2c-0.8,2-1.3,4.2-1.3,6.5c0,2.3,0.5,4.5,1.3,6.5h8.2V16.1z"/>
<rect x="19.9" y="29.1" class="st2" width="0.8" height="0.8"/>
<rect x="33.6" y="29.1" class="st2" width="0.8" height="0.8"/>
<rect x="19.9" y="15.4" class="st2" width="0.8" height="0.8"/>
<g>
	<rect x="19.9" y="16.1" class="st2" width="0.8" height="12.9"/>
	<rect x="20.7" y="29.1" class="st2" width="12.9" height="0.8"/>
	<path class="st2" d="M27.2,5.6c-9.4,0-17.1,7.7-17.1,17.1c0,9.4,7.7,17.1,17.1,17.1c9.4,0,17.1-7.7,17.1-17.1
		C44.2,13.2,36.6,5.6,27.2,5.6z M34.4,8c3.2,1.6,5.8,4.2,7.4,7.4h-7.4V8z M41.8,29.8c-1.6,3.2-4.2,5.8-7.4,7.4v-7.4h-0.8v7.7
		c-2,0.9-4.2,1.3-6.5,1.3c-2.3,0-4.5-0.5-6.5-1.4v-7.7h-0.8v7.4c-3.2-1.6-5.8-4.2-7.4-7.4h7.4v-0.8h-7.7c-0.9-2-1.3-4.2-1.3-6.5
		c0-2.3,0.5-4.5,1.3-6.5h7.7v-0.8h-7.4c1.6-3.2,4.2-5.8,7.4-7.4v7.4h0.8V7.7c2-0.9,4.2-1.3,6.5-1.3c2.3,0,4.5,0.5,6.5,1.3v7.7H20.7
		v0.8h12.9v12.9h0.8V16.1h7.7c0.9,2,1.3,4.2,1.3,6.5c0,2.3-0.5,4.5-1.3,6.5h-7.7v0.8H41.8z"/>
</g>
</svg>
