<svg xmlns="http://www.w3.org/2000/svg" id="Layer_1" x="0" y="0" version="1.1" viewBox="0 0 50 50" xml:space="preserve"><style>.st2{fill:#494949}</style><path fill="#00c8e2" d="M48.1 25.2c0-8.2-4.2-15.4-10.6-19.6L2.1 18.5c-.6 2.1-1 4.4-1 6.7 0 8.9 5 16.7 12.3 20.7l32.9-12c1.2-2.7 1.8-5.6 1.8-8.7z"/><path fill="#00dffc" d="M24.7 1.9C14 1.9 4.9 9.1 2 18.9l35.7-13c-3.7-2.5-8.1-4-13-4z"/><path d="M23.2 27.3V35H19V15h5.8c2.7 0 4.7.5 6 1.5 1.3 1 2 2.5 2 4.5 0 1.2-.3 2.2-1 3.1s-1.6 1.6-2.8 2.2c3 4.5 5 7.4 5.9 8.7h-4.7l-4.8-7.7h-2.2zm0-3.4h1.4c1.3 0 2.3-.2 3-.7.6-.4 1-1.2 1-2.1 0-.9-.3-1.6-1-2s-1.7-.6-3-.6h-1.3v5.4z" class="st2"/><path d="M25 49.3C11.6 49.3.7 38.4.7 25S11.6.7 25 .7 49.3 11.6 49.3 25c0 3.7-.8 7.2-2.4 10.6-.3.6-1.1.9-1.7.6-.6-.3-.9-1-.6-1.7 1.4-3 2.2-6.2 2.2-9.5C46.8 13 37 3.2 25 3.2S3.2 13 3.2 25 13 46.8 25 46.8c3.7 0 7.3-.9 10.5-2.7.6-.3 1.4-.1 1.7.5.3.6.1 1.4-.5 1.7-3.6 2-7.6 3-11.7 3z" class="st2"/><path d="M25 44.8C14.1 44.8 5.2 35.9 5.2 25S14.1 5.2 25 5.2 44.8 14.1 44.8 25 35.9 44.8 25 44.8zm0-38.6C14.7 6.2 6.2 14.7 6.2 25S14.6 43.8 25 43.8 43.8 35.3 43.8 25 35.3 6.2 25 6.2z" class="st2"/></svg>