<svg xmlns="http://www.w3.org/2000/svg" viewBox="0 0 300 300"><defs><clipPath id="clippath"><path d="M-438.6 208.8h313v222.5h-313z" class="cls-15"/></clipPath><clipPath id="clippath-1"><path d="M-438.5 208.9h313v222.5h-313z" class="cls-15"/></clipPath><style>.cls-15{fill:none}</style></defs><g id="Camada_1"><path id="Camada_2" fill="#008dd3" d="M283.8 146c.1 20.5-4.3 40-12 57.6-21.8 49.2-70.9 83.5-128.2 83.7-15.2.1-29.9-2.3-43.6-6.7-25.8-8.2-48.4-23.8-65.3-44.2-17.6-21.1-29.1-47.5-31.8-76.5-.4-4.2-.6-8.4-.6-12.7C2.1 99.4 25.8 57 62.1 31.5c4.8-3.4 9.7-6.4 14.8-9.1 7.3-3.9 14.8-7.1 22.8-9.7 7.5-2.4 15.2-4.2 23.2-5.3 6.4-.9 12.9-1.4 19.5-1.5 25.9-.1 50.1 6.8 71.1 18.9 3.8 2.1 7.4 4.5 10.9 7 16.8 11.9 30.8 27.3 41 45.4 1.2 2 2.2 4.1 3.3 6.2.9 1.8 1.7 3.6 2.6 5.4 2.7 6 4.9 12.1 6.8 18.4 2 7.1 3.6 14.4 4.5 21.7.8 5.7 1.2 11.4 1.2 17.1z"/><path fill="#145616" d="M246.9 87.4v170.5c0 5.2-4.2 9.3-9.3 9.3H90.7c-5.2 0-9.3-4.2-9.3-9.3V47.6c0-5.2 4.2-9.3 9.3-9.3h96L247 87.4z"/><path fill="#86d18f" d="M272.9 62.1v170.5c0 5.2-4.2 9.3-9.3 9.3H116.7c-5.2 0-9.3-4.2-9.3-9.3V22.3c0-5.2 4.2-9.3 9.3-9.3h96L273 62.1z"/><path fill="#d9eee4" d="M124.8 78.9v139.3h130.7V78.9H124.8zm128.5 22.9h-22.1V80.9h22.1v20.9zm-77.1 68.7v-20.9h25.7v20.9h-25.7zm25.7 1.9v20.9h-25.7v-20.9h25.7zM127 103.8h20.5v20.9H127v-20.9zm49.2 22.9h25.7v20.9h-25.7v-20.9zm-2.2 20.9h-24.3v-20.9H174v20.9zm2.2-22.9v-20.9h25.7v20.9h-25.7zm-2.2 0h-24.3v-20.9H174v20.9zm-47 2h20.5v20.9H127v-20.9zm0 22.8h20.5v20.9H127v-20.9zm22.7 0H174v20.9h-24.3v-20.9zm54.4 0H229v20.9h-24.9v-20.9zm0-1.9v-20.9H229v20.9h-24.9zm0-22.9v-20.9H229v20.9h-24.9zm0-22.9V80.9H229v20.9h-24.9zm-2.2 0h-25.7V80.9h25.7v20.9zm-27.9 0h-24.3V80.9H174v20.9zm-26.5-2.2l-19.7-18.8h19.7v18.8zm-.6 2.2h-20V82.7l20 19.1zM127 172.4h20.5v20.9H127v-20.9zm22.7 0H174v20.9h-24.3v-20.9zm24.3 22.9v20.9h-24.3v-20.9H174zm2.2 0h25.7v20.9h-25.7v-20.9zm27.9 0H229v20.9h-24.9v-20.9zm0-1.9v-20.9H229v20.9h-24.9zm27.1-21h22.1v20.9h-22.1v-20.9zm0-1.9v-20.9h22.1v20.9h-22.1zm0-22.9v-20.9h22.1v20.9h-22.1zm0-22.9v-20.9h22.1v20.9h-22.1zM127 195.3h20.5v20.9H127v-20.9zm104.2 20.9v-20.9h22.1v20.9h-22.1z"/><path fill="#089b4e" d="M212.6 52.7V12.9L272.9 62H222c-5.2 0-9.3-4.2-9.3-9.3z"/></g></svg>