<?xml version="1.0" encoding="utf-8"?>
<!-- Generator: Adobe Illustrator 27.3.1, SVG Export Plug-In . SVG Version: 6.00 Build 0)  -->
<svg version="1.1" id="Camada_3" xmlns="http://www.w3.org/2000/svg" xmlns:xlink="http://www.w3.org/1999/xlink" x="0px" y="0px"
	 viewBox="0 0 50 50" style="enable-background:new 0 0 50 50;" xml:space="preserve">
<style type="text/css">
	.st0{fill:#FDCF72;}
	.st1{fill:#FCC34F;}
	.st2{fill:none;stroke:#444444;stroke-linecap:round;stroke-linejoin:round;stroke-miterlimit:10;}
	.st3{fill:none;stroke:#444444;stroke-width:0.5;stroke-linecap:round;stroke-linejoin:round;stroke-miterlimit:10;}
	.st4{fill:#444444;}
	.st5{fill:none;stroke:#444444;stroke-width:2.5;stroke-linecap:round;stroke-linejoin:round;stroke-miterlimit:10;}
</style>
<g>
	<g>
		<path class="st0" d="M32.31,2.53L4.35,2.23c-4.14,1.01-2,8.54-2,9.66l5.94,0.24l0,5.52l26.59-9.46l-0.51-3.43
			c0.04-0.01,0.07-0.05,0.07-0.1v0C34.44,3.48,33.48,2.53,32.31,2.53z"/>
		<path class="st1" d="M7.77,17.84l1.27,21.91l2.84,1.29l36.19-12.88l0.14-13.9c-0.25-2.21-1.92-4-4.11-4.41l-9.21-1.66L7.77,17.84
			L7.77,17.84z"/>
	</g>
	<g>
		<line class="st2" x1="12.09" y1="40.25" x2="21.09" y2="40.25"/>
		<path class="st2" d="M21.09,46.61V13.25c0-1.66-1.34-3-3-3c-1.66,0-3,1.34-3,3v24c0,1.66-1.34,3-3,3c-1.66,0-3-1.34-3-3v-31
			c0-1.66-1.34-3-3-3c-1.66,0-3,1.34-3,3v5h6"/>
		<path class="st2" d="M18.09,10.25h26c1.66,0,3.4,1.34,3.4,3"/>
		<path class="st2" d="M7.09,3.25h24c1.66,0,3,1.34,3,3v4"/>
		<line class="st3" x1="34.09" y1="19.95" x2="44.09" y2="19.95"/>
		<line class="st3" x1="34.09" y1="22.66" x2="38.09" y2="22.66"/>
		<line class="st3" x1="34.09" y1="17.25" x2="44.09" y2="17.25"/>
		<rect x="25.09" y="35.25" class="st4" width="4" height="9"/>
		<rect x="32.09" y="31.25" class="st4" width="4" height="13"/>
		<rect x="39.09" y="38.25" class="st4" width="4" height="6"/>
		<rect x="25.09" y="17.25" class="st3" width="6" height="8"/>
		<path class="st5" d="M47.92,42.01l0.15-28.26c0-1.53-1.37-4.28-4.77-4.28l-6.94-0.12c-0.82-0.01-1.48-0.68-1.47-1.5l0-2.39
			c0,0,0.18-3.24-5.13-3.24c-4.44,0-24.59,0.04-24.59,0.04S2.44,2.37,2.44,5.79L2.38,10c-0.02,1.17,0.93,2.13,2.1,2.13h3.81v25.61
			c0,0,0.2,3.32,3.6,3.32c1.68,0,4.45-0.02,6.11-0.03c1.63-0.01,2.24,0.67,2.24,2.29v2.31c0,1.18,0.96,2.13,2.13,2.13h19.77"/>
	</g>
</g>
</svg>
