<?xml version="1.0" encoding="utf-8"?>
<!-- Generator: Adobe Illustrator 22.1.0, SVG Export Plug-In . SVG Version: 6.00 Build 0)  -->
<svg version="1.1" id="Layer_1" xmlns="http://www.w3.org/2000/svg" xmlns:xlink="http://www.w3.org/1999/xlink" x="0px" y="0px"
	 viewBox="0 0 50 50" style="enable-background:new 0 0 50 50;" xml:space="preserve">
<style type="text/css">
	.st0{fill:#4ECDC4;}
	.st1{fill:#46B8B0;}
	.st2{fill:#444444;}
</style>
<g>
	<g>
		<polygon class="st0" points="1.3,4.8 1.3,21.9 48.2,4.8 		"/>
	</g>
	<g>
		<polygon class="st1" points="48.4,4.8 48.2,4.8 1.3,21.9 1.3,44.3 48.4,27.1 		"/>
	</g>
	<g>
		<path class="st2" d="M48,46.2H0.8V5.1c0-0.7,0.6-1.2,1.2-1.2s1.2,0.6,1.2,1.2v38.6H48c0.7,0,1.2,0.6,1.2,1.2S48.7,46.2,48,46.2z"
			/>
	</g>
	<g>
		<g>
			<path class="st2" d="M39.6,25.3c-4.7,0-8.4,3.8-8.4,8.4s3.8,8.4,8.4,8.4c4.7,0,8.4-3.8,8.4-8.4S44.2,25.3,39.6,25.3z M34.5,33.7
				c0-1.2,0.9-2.3,2.1-2.4h0H39c0.1,0,0.2-0.1,0.2-0.2c0-0.1-0.1-0.2-0.2-0.2h-1.9c0-1.3,1.1-2.4,2.4-2.4c1.3,0,2.4,1.1,2.4,2.4v0.1
				c-0.1,1.3-1.1,2.3-2.4,2.3c-1.5,0-2.8,1.2-2.9,2.7C35.4,36,34.5,35,34.5,33.7z M42.4,36.1h-2.3c-0.1,0-0.2,0.1-0.2,0.2
				c0,0.1,0.1,0.2,0.2,0.2H42c0,1.3-1.1,2.4-2.4,2.4c-1.3,0-2.4-1.1-2.4-2.4v-0.1c0.1-1.3,1.1-2.3,2.4-2.3c1.5,0,2.8-1.2,2.9-2.7
				c1.2,0.1,2.2,1.1,2.2,2.4C44.7,35,43.6,36.1,42.4,36.1z"/>
		</g>
		<g>
			<path class="st2" d="M39.7,37.6c0,0.2,0.2,0.4,0.4,0.4c0.2,0,0.4-0.2,0.4-0.4c0-0.2-0.2-0.4-0.4-0.4
				C39.9,37.1,39.7,37.3,39.7,37.6z"/>
		</g>
		<g>
			<path class="st2" d="M39.4,29.9c0-0.2-0.2-0.4-0.4-0.4c-0.2,0-0.4,0.2-0.4,0.4c0,0.2,0.2,0.4,0.4,0.4
				C39.2,30.3,39.4,30.1,39.4,29.9z"/>
		</g>
	</g>
	<path class="st2" d="M45,9.5c-1.3,0-2.3,1-2.3,2.3c0,0.6,0.2,1.1,0.6,1.6l-3.7,5.4c-0.4-0.3-0.9-0.5-1.4-0.5
		c-0.8,0-1.4,0.4-1.8,0.9l-2.7-0.9c-0.1-1.2-1.1-2.2-2.3-2.2c-1.3,0-2.3,1-2.3,2.3c0,0.4,0.1,0.8,0.3,1.2l-4.9,5.9
		c-0.3-0.1-0.6-0.2-1-0.2c-1.3,0-2.3,1-2.3,2.3c0,0.4,0.1,0.8,0.3,1.1l-4,4.3c-0.4-0.3-0.8-0.4-1.3-0.4c-0.5,0-1,0.2-1.3,0.4l-2.8-2
		c0.1-0.3,0.2-0.5,0.2-0.8c0-1.3-1-2.3-2.3-2.3c-1.3,0-2.3,1-2.3,2.3c0,0.4,0.1,0.7,0.3,1.1l-6.4,6.8c-0.3,0.3-0.3,0.8,0,1.1
		c0.1,0.1,0.3,0.2,0.5,0.2c0.2,0,0.4-0.1,0.5-0.2L9,32.4c0.3,0.1,0.6,0.2,1,0.2c0.4,0,0.8-0.1,1.2-0.3l3,2.1C14,34.5,14,34.7,14,35
		c0,1.3,1,2.3,2.3,2.3c1.3,0,2.3-1,2.3-2.3c0-0.2,0-0.4-0.1-0.6l4.3-4.6c0.3,0.1,0.6,0.2,0.9,0.2c1.3,0,2.3-1,2.3-2.3
		c0-0.4-0.1-0.7-0.3-1l4.9-6c0.3,0.1,0.5,0.2,0.8,0.2c0.8,0,1.5-0.4,1.9-1l2.6,0.8c0,1.2,1,2.3,2.3,2.3c1.3,0,2.3-1,2.3-2.3
		c0-0.2,0-0.3,0-0.5l4.1-6.1c0.1,0,0.2,0,0.4,0c1.3,0,2.3-1,2.3-2.3C47.3,10.5,46.3,9.5,45,9.5z M9.9,31.1c-0.4,0-0.8-0.4-0.8-0.8
		c0-0.4,0.4-0.8,0.8-0.8c0.4,0,0.8,0.4,0.8,0.8C10.7,30.7,10.4,31.1,9.9,31.1z M16.3,35.8c-0.4,0-0.8-0.4-0.8-0.8
		c0-0.4,0.4-0.8,0.8-0.8c0.4,0,0.8,0.4,0.8,0.8C17.1,35.4,16.7,35.8,16.3,35.8z M23.7,28.5c-0.4,0-0.8-0.4-0.8-0.8
		c0-0.4,0.4-0.8,0.8-0.8c0.4,0,0.8,0.4,0.8,0.8C24.5,28.1,24.1,28.5,23.7,28.5z M31.5,19.3c-0.4,0-0.8-0.4-0.8-0.8
		c0-0.4,0.4-0.8,0.8-0.8s0.8,0.4,0.8,0.8C32.3,19,31.9,19.3,31.5,19.3z M38.3,21.4c-0.4,0-0.8-0.4-0.8-0.8c0-0.4,0.4-0.8,0.8-0.8
		c0.4,0,0.8,0.4,0.8,0.8C39.1,21,38.7,21.4,38.3,21.4z M45,12.6c-0.4,0-0.8-0.4-0.8-0.8c0-0.4,0.4-0.8,0.8-0.8
		c0.4,0,0.8,0.4,0.8,0.8C45.8,12.2,45.5,12.6,45,12.6z"/>
</g>
</svg>
