<?xml version="1.0" encoding="utf-8"?>
<!-- Generator: Adobe Illustrator 22.1.0, SVG Export Plug-In . SVG Version: 6.00 Build 0)  -->
<svg version="1.1" id="Layer_1" xmlns="http://www.w3.org/2000/svg" xmlns:xlink="http://www.w3.org/1999/xlink" x="0px" y="0px"
	 viewBox="0 0 50 50" style="enable-background:new 0 0 50 50;" xml:space="preserve">
<style type="text/css">
	.st0{fill:#00C8E2;}
	.st1{fill:#00DFFC;}
	.st2{fill:#494949;}
</style>
<g>
	<g>
		<path class="st0" d="M48.1,25.2c0-8.2-4.2-15.4-10.6-19.6L2.1,18.5c-0.6,2.1-1,4.4-1,6.7c0,8.9,5,16.7,12.3,20.7l32.9-12
			C47.5,31.2,48.1,28.3,48.1,25.2z"/>
	</g>
	<g>
		<path class="st1" d="M24.7,1.9C14,1.9,4.9,9.1,2,18.9l35.7-13C34,3.4,29.6,1.9,24.7,1.9z"/>
	</g>
	<g>
		<g>
			<path class="st2" d="M23.2,27.3V35H19V15h5.8c2.7,0,4.7,0.5,6,1.5c1.3,1,2,2.5,2,4.5c0,1.2-0.3,2.2-1,3.1s-1.6,1.6-2.8,2.2
				c3,4.5,5,7.4,5.9,8.7h-4.7l-4.8-7.7H23.2z M23.2,23.9h1.4c1.3,0,2.3-0.2,3-0.7c0.6-0.4,1-1.2,1-2.1c0-0.9-0.3-1.6-1-2
				s-1.7-0.6-3-0.6h-1.3V23.9z"/>
		</g>
	</g>
	<g>
		<path class="st2" d="M25,49.3C11.6,49.3,0.7,38.4,0.7,25C0.7,11.6,11.6,0.7,25,0.7S49.3,11.6,49.3,25c0,3.7-0.8,7.2-2.4,10.6
			c-0.3,0.6-1.1,0.9-1.7,0.6c-0.6-0.3-0.9-1-0.6-1.7c1.4-3,2.2-6.2,2.2-9.5C46.8,13,37,3.2,25,3.2C13,3.2,3.2,13,3.2,25
			C3.2,37,13,46.8,25,46.8c3.7,0,7.3-0.9,10.5-2.7c0.6-0.3,1.4-0.1,1.7,0.5c0.3,0.6,0.1,1.4-0.5,1.7C33.1,48.3,29.1,49.3,25,49.3z"
			/>
	</g>
	<g>
		<path class="st2" d="M25,44.8C14.1,44.8,5.2,35.9,5.2,25C5.2,14.1,14.1,5.2,25,5.2S44.8,14.1,44.8,25C44.8,35.9,35.9,44.8,25,44.8
			z M25,6.2C14.7,6.2,6.2,14.7,6.2,25c0,10.3,8.4,18.8,18.8,18.8S43.8,35.3,43.8,25C43.8,14.7,35.3,6.2,25,6.2z"/>
	</g>
</g>
</svg>
