<svg xmlns="http://www.w3.org/2000/svg" id="Camada_3" version="1.1" viewBox="0 0 50 50"><defs><style>.st0{fill:none;stroke:#444;stroke-linecap:round;stroke-linejoin:round}</style></defs><path fill="#46b8b0" d="M42.7 12.1L32.3 1.9C31.1 1.9 7 1.8 7 3l-.6 24.6-.5 8.7 1.1 10 10.6.5 27.3-9.7V14.3c0-1.2-1-2.2-2.1-2.2z"/><path d="M12.3 23.3l13.2-6.9 13.3 6.9-3.9 2.1-2.7 1.4-6.6 3.5-6.7-3.5-2.7-1.4-3.9-2.1zm19.9 10.4l6.6 3.5-13.2 6.9-13.4-6.9 6.6-3.5" class="st0"/><path d="M32.2 26.8l6.6 3.5-13.2 6.9-9.2-4.8-.2-.1-3.9-2 6.6-3.5" class="st0"/><g fill="none" stroke="#444" stroke-linecap="round" stroke-linejoin="round"><path stroke-width="2.5" d="M44.3 36.2V15.6c0-1.3-.5-2.5-1.4-3.4l-9.1-9.1c-.9-.9-2.1-1.4-3.4-1.4H11.6c-2.7 0-4.8 2.2-4.8 4.8v36.1c0 2.7 2.2 4.8 4.8 4.8h19.1"/><path stroke-width=".5" d="M43.9 14.1H35c-1.7 0-3.2-1.4-3.2-3.2V2"/></g></svg>