<svg xmlns="http://www.w3.org/2000/svg" viewBox="0 0 50 50"><path fill="#e589ef" d="M36.1 17.9l.5-12.1-2.1-4.2-16.8.5c-3.5 0-6.2.9-6.2 4.4l.1 13.2.2 8-.6 14.5 1.4 5.3 22.8-8.1c1-.5 1.8-19.3.7-21.5z"/><g fill="none" stroke="#444" stroke-miterlimit="10"><path d="M20.1 32.8c.8 0 1.5.7 1.5 1.5s-.7 1.5-1.5 1.5-1.5-.7-1.5-1.5c0-.9.7-1.5 1.5-1.5zm0-17c.8 0 1.5.7 1.5 1.5s-.7 1.5-1.5 1.5-1.5-.7-1.5-1.5.7-1.5 1.5-1.5z"/><path stroke-width=".75" d="M19 2h10v1.7c0 .9-.7 1.7-1.7 1.7h-6.7c-.9 0-1.7-.7-1.7-1.7V2z"/><path stroke-linecap="round" stroke-width="2.5" d="M29.2 48.5H15.5c-2 0-3.7-1.6-3.7-3.7V5.5c0-2 1.6-3.7 3.7-3.7h17c2 0 3.7 1.6 3.7 3.7v37.3"/><path stroke-width=".5" d="M11.9 7.5v36.6c.7 0 1.4 0 2.1-.1 5.4-1 9.9-4.4 12.4-9.1l5.5 3c.3.2.7.1.9-.3.2-.3.1-.7-.3-.9l-5.5-3c1.1-2.4 1.7-5.1 1.7-7.9 0-2.8-.6-5.5-1.7-7.9l5.5-3c.3-.2.4-.6.3-.9-.2-.3-.6-.4-.9-.3l-5.4 3c-2.5-4.7-6.9-8-12.4-9.1-.8 0-1.5-.1-2.2-.1z"/></g></svg>