<svg xmlns="http://www.w3.org/2000/svg" viewBox="0 0 50 50"><path fill="#04ad49" d="M31.5 19.6l7.8 2.4-6.7 4.8.1 8.2-6.6-4.9-7.7 2.6 2.6-7.8-4.9-6.5 8.2.1 4.7-6.7 2.5 7.8z"/><path fill="#22dd6d" d="M48 11.8l-7.1-3.9-10 1.2-5.9 3.8C22.1 10.3 6.5 6.4 6.5 9.6l-4.8 2.5.4 29.5 15.2.2 31-11c.7-.4.7-17-.3-19z"/><path fill="#444" fill-rule="evenodd" d="M17 30.9c0-.4-.3-.7-.7-.7-.4 0-.7.3-.7.7 0 1.9 1.5 3.4 3.4 3.4.4 0 .7-.3.7-.7 0-.4-.3-.7-.7-.7-1.1 0-2-.9-2-2zm0-12.2c0-1.1.9-2 2-2 .4 0 .7-.3.7-.7 0-.4-.3-.7-.7-.7-1.9 0-3.4 1.5-3.4 3.4 0 .4.3.7.7.7.4 0 .7-.3.7-.7zm16.4 12.2c0 1.1-.9 2-2 2-.4 0-.7.3-.7.7 0 .4.3.7.7.7 1.9 0 3.4-1.5 3.4-3.4 0-.4-.3-.7-.7-.7-.4 0-.7.3-.7.7zm-2.1-15.6c-.4 0-.7.3-.7.7 0 .4.3.7.7.7 1.1 0 2 .9 2 2 0 .4.3.7.7.7.4 0 .7-.3.7-.7 0-1.9-1.5-3.4-3.4-3.4z"/><path fill="none" stroke="#444" stroke-linecap="round" stroke-linejoin="round" stroke-width=".5" d="M23.3 23.4h-3.1c-.3 0-.5-.2-.5-.5v-3.1c0-.3.2-.5.5-.5h3.1c.3 0 .5.2.5.5v3.1c0 .3-.2.5-.5.5zm3.8 2.8h3.1c.3 0 .5.2.5.5v3.1c0 .3-.2.5-.5.5h-3.1c-.3 0-.5-.2-.5-.5v-3.1c0-.3.2-.5.5-.5z"/><path fill="#444" fill-rule="evenodd" d="M30.8 23.4h1c.1 0 .2 0 .2-.2v-3.7c0-.9-.7-1.5-1.5-1.5h-1c-.1 0-.2 0-.2.2v1c0 .1 0 .2.2.2h1c.1 0 .2 0 .2.2v3.7c0 .1 0 .2.2.2z"/><rect width="2.7" height="1.4" x="26.6" y="22.1" fill="#444" rx=".2" ry=".2"/><path fill="#444" fill-rule="evenodd" d="M29.3 20.7v-1.4h-1.1c-.1 0-.2.1-.2.2v.9c0 .1.1.2.2.2h1.1z"/><rect width="1.4" height="1.4" x="26.6" y="18" fill="#444" rx=".2" ry=".2"/><path fill="#444" fill-rule="evenodd" d="M19.6 25.9h-1c-.1 0-.2 0-.2.2v3.7c0 .9.7 1.5 1.5 1.5h1c.1 0 .2 0 .2-.2v-1c0-.1 0-.2-.2-.2h-1c-.1 0-.2 0-.2-.2V26c0-.1 0-.2-.2-.2zm1.5 1.1c0 .2.1.3.3.3h2.2c.1 0 .2-.1.2-.2v-.9c0-.1-.1-.2-.2-.2h-2.2c-.2 0-.3.1-.3.3v.8zm0 1.7v1.4h1.1c.1 0 .2-.1.2-.2V29c0-.1-.1-.2-.2-.2h-1.1z"/><rect width="1.4" height="1.4" x="22.5" y="30" fill="#444" rx=".2" ry=".2"/><path fill="none" stroke="#444" stroke-linecap="round" stroke-linejoin="round" d="M24.8 40.4h-.1c-2.3-2.1-4.8-3.9-7.4-3.9H6.9V10.9c0-.5.4-1 1-1h9.3c2.3 0 4.6 1.7 6.8 3.6l.8.7m-4.4 25.3c-1.2-.4-2.5-.6-3.8-.6H5.7c-.5 0-1-.4-1-1V10.6"/><path fill="none" stroke="#444" stroke-linecap="round" stroke-linejoin="round" d="M24.8 14.2l.8-.7c2.2-1.9 4.5-3.6 6.8-3.6h9.3c.5 0 1 .4 1 1v24.6c0 .5-.4 1-1 1h-9.3c-2.6 0-5.1 1.8-7.4 3.8h-.1m19.9-30.1v27.7c0 .5-.4 1-1 1H32.9c-1.3 0-2.5.2-3.8.6"/><path fill="none" stroke="#444" stroke-linecap="round" stroke-linejoin="round" stroke-width=".5" d="M24.7 14.3v3.8m0 18.1v3.9"/><path fill="none" stroke="#444" stroke-linecap="round" stroke-linejoin="round" stroke-width="2.5" d="M48.1 33V12.3c0-.4-.2-.7-.5-.9 0 0-4.9-2.5-5.3-2.5h-9.6c-2.4 0-4.8 1.8-7 3.8l-.8.7-.8-.7c-2.2-2-4.6-3.8-7-3.8H7.5c-.3 0-5.8 3.1-5.8 3.4v28.5c0 .6.5 1.1 1 1.1h19.2l2.1 1.4c.6.4 1.3.4 1.8 0l2-1.4h8.7"/></svg>