<svg xmlns="http://www.w3.org/2000/svg" version="1" viewBox="0 0 50 50"><path fill="#E56060" d="M39.551 38.821L25.748 24.919 46.745 3.922c.594-.595.173-1.611-.668-1.611h-43.1v45.378h12.208l24.366-8.868z"/><path fill="#FF6B6B" d="M45.972 2.311H2.978v15.648z"/><path fill="#444" d="M48.046 2.44a2.124 2.124 0 0 0-1.968-1.315H1.791v47.751H36.71a1.186 1.186 0 0 0 0-2.372H4.164v-.278L24.77 25.618l13.939 14.039a1.187 1.187 0 0 0 1.684-1.671L27.422 24.922 47.583 4.761a2.124 2.124 0 0 0 .463-2.321zM23.978 3.497L4.164 24.334V3.497h19.814zM4.164 44.883V25.712L25.288 3.497h20.205L4.164 44.883z"/></svg>