<svg xmlns="http://www.w3.org/2000/svg" id="Layer_1" data-name="Layer 1" version="1.1" viewBox="0 0 50 50"><defs><style>.cls-2{fill:none;stroke:#444;stroke-miterlimit:10}</style></defs><path fill="#35d3c3" stroke-width="0" d="M33.9 19.3l7.8 2.5-6.7 4.7.1 8.2-6.5-4.9-7.8 2.7 2.6-7.8-4.9-6.6 8.2.1 4.8-6.7 2.4 7.8z"/><path fill="#7df4eb" stroke-width="0" d="M44.9 13l-5.6-3.6L31.6 5l-6-2.8c-3.2 0-21.5 8.9-21.5 12.1l-.5 7.8.5 15.1 11.5 7.6 31-11c.7-.4-.8-18.7-1.8-20.7z"/><path fill="none" stroke="#444" stroke-linecap="round" stroke-linejoin="round" stroke-width="2.5" d="M30.2 46.3L28 47.6c-1.7 1-3.8 1-5.5 0l-15.6-9c-1.7-1-2.7-2.8-2.7-4.7v-18c0-2 1-3.8 2.7-4.7l15.6-9.1c1.7-1 3.8-1 5.5 0l15.6 9c1.7 1 2.7 2.8 2.7 4.7v18c0 2-1 3.8-2.7 4.7l-2.5 1.4"/><g id="Dance_pictogram_4" data-name="Dance pictogram 4"><path d="M19.6 17.5c1.3 0 2.3-1.8 2.3-3.1 0-1.7-.7-3.1-2.3-3.1s-2.3 1.4-2.3 3.1c0 1.3 1.1 3.1 2.3 3.1z" class="cls-2"/><path d="M39.3 15.4c-.9 0-1 .8-3.5 2.4-2.5 1.6-3.6 1.9-7 2.5-1 .2-1.4.8-1.8 1.7-.3-.1-.6-.3-.9-.5-3.6-2.3-2-3.5-5.1-3.5h-3.4c-3-.9-5-3.2-6.3-4.6-.9-1-2.5-.4-2.5 1 0 1.1 2.7 3.8 3.4 4.4 1.3 1.2 2.6 2 3.6 2.4l1.9 12.2c-1.4.9-1.7 1.1-1.7 1.1.2-.1-.8.3-.8 1.3s1.3 2 2.4 1.5c1.9-1 2.3-1.2 2.3-1.3.8-.5 1.3-1.5 1.3-2.5v-1.4s.5 1.5 2.1 8.4c.3 1.3 1.9 1.6 2.7.7.3-.3.4-.7.4-1.1s.2.7-2.6-12.8c1.6-.3 3-.5 4.1-1.6-.3 2.2-1.9 5.8-1.9 6.9s0 1.2 1.4 1.6c-.3 2.3-.3 4.7-.2 6.2 0 .8.7 1.4 1.4 1.4 1.9 0 1.2-1.6 1.8-5.9.3.6.8 1.2 1.5 1.7 1.1.8 2.6 1.2 3 1.2 1 0 1.7-1 1.4-1.9-.3-1-1.4-.8-2.5-1.7-.7-.6-.6-.9-.5-1.6 0 0 1.8-.8 1.8-1.3s-2-6-2-7.8.1-1.1.4-1.7c2.6-1.6 4.3-2.7 6.5-5.2.7-.8.2-2.1-.9-2.1zm-14.9 9c-.4.1-.7.2-1 .3 0-.4-.1-.7-.2-.9.4.3.8.5 1.2.7z" class="cls-2"/><path d="M30.2 19.5c.6 0 1.5-.4 2-1.1.4-.6.6-1.3.6-2.1 0-1.6-1-2.5-2.3-2.5s-2.1 1.3-2.4 2.6v.4c0 1.3.9 2.7 2.1 2.7z" class="cls-2"/></g><path fill="none" stroke="#444" stroke-linecap="round" stroke-linejoin="round" stroke-width=".5" d="M12.6 22s-4.3 4.7.6 9.1m-2.8-10.8s-5.9 6.4.8 12.6M38 22s4.3 4.7-.6 9.1m2.7-10.8s5.9 6.4-.8 12.6"/></svg>