<svg xmlns="http://www.w3.org/2000/svg" version="1" viewBox="0 0 50 50"><path fill="#FCC34F" d="M4.105 25.537c-.009.26-.039.515-.039.778 0 6.116 2.64 11.601 6.825 15.427a3.952 3.952 0 0 0-.188 1.151 4.015 4.015 0 0 0 4.015 4.015 3.99 3.99 0 0 0 2.738-1.093 21.047 21.047 0 0 0 5.082 1.256l17.647-6.423c3.538-3.744 5.723-8.776 5.723-14.334 0-.306-.033-.604-.046-.907 1.246-.682 2.102-1.99 2.102-3.511 0-2.155-1.701-3.9-3.832-3.999-2.744-6.232-8.435-10.863-15.313-12.137-.489-1.664-2.01-2.886-3.832-2.886s-3.343 1.222-3.832 2.886A20.94 20.94 0 0 0 5.764 18.059c-2.08.152-3.726 1.869-3.726 3.987 0 1.507.839 2.804 2.067 3.491z"/><path fill="#FDCF72" d="M36.652 8.974a20.787 20.787 0 0 0-7.834-3.213c-.489-1.664-2.01-2.886-3.832-2.886s-3.343 1.222-3.832 2.886C14.216 7.047 8.48 11.744 5.764 18.059a3.996 3.996 0 0 0-3.678 3.496L36.652 8.974z"/><g fill="#444"><path d="M24.986 7.904c-10.153 0-18.414 8.261-18.414 18.415 0 10.153 8.26 18.413 18.414 18.413 10.154 0 18.415-8.26 18.415-18.413C43.4 16.165 35.14 7.904 24.986 7.904zm0 36.577c-10.016 0-18.164-8.147-18.164-18.163S14.97 8.153 24.986 8.153c10.016 0 18.165 8.148 18.165 18.165-.001 10.016-8.149 18.163-18.165 18.163z"/><path d="M49.213 21.897a5.25 5.25 0 0 0-4.236-5.152A22.135 22.135 0 0 0 29.74 4.671c-.854-1.826-2.71-3.046-4.753-3.046a5.204 5.204 0 0 0-4.756 3.047A22.114 22.114 0 0 0 4.902 16.926c-2.36.531-4.114 2.647-4.114 5.12 0 1.621.761 3.142 2.029 4.132a6.35 6.35 0 0 0-.002.138c0 5.944 2.432 11.678 6.696 15.844-.04.251-.06.494-.06.734a5.272 5.272 0 0 0 5.265 5.266 5.215 5.215 0 0 0 2.967-.926 21.996 21.996 0 0 0 7.302 1.253c2.446 0 4.872-.412 7.222-1.228.866.585 1.88.9 2.923.9a1.25 1.25 0 0 0 0-2.5 2.758 2.758 0 0 1-1.857-.734l-.363-.331a19.94 19.94 0 0 0 4.875-3.022c-.081.379-.007.786.273 1.096a1.25 1.25 0 0 0 1.766.09c4.661-4.209 7.334-10.202 7.334-16.442 0-.087-.002-.174-.006-.261a5.25 5.25 0 0 0 2.061-4.158zm-5.14-2.75a2.758 2.758 0 0 1 2.64 2.75c0 .999-.557 1.924-1.452 2.414l-.436.239c-.168-1.9-.61-3.718-1.276-5.428l.524.025zM22.354 6.113a2.735 2.735 0 0 1 2.633-1.988c1.225 0 2.283.799 2.633 1.988l.145.493a19.893 19.893 0 0 0-2.778-.217c-.945 0-1.867.089-2.777.217l.144-.493zm-5.378 38.439l-.376.352a2.748 2.748 0 0 1-1.883.755 2.768 2.768 0 0 1-2.765-2.766c0-.234.043-.485.135-.79l.147-.489a19.966 19.966 0 0 0 4.742 2.938zM5.14 24.685l-.425-.238a2.768 2.768 0 0 1-1.427-2.401c0-1.432 1.127-2.636 2.566-2.741l.515-.038a19.772 19.772 0 0 0-1.229 5.418zm27.57 19.723c-1.261.533-2.591.93-3.925 1.196a19.432 19.432 0 0 1-5.311.317 19.707 19.707 0 0 1-5.568-1.271s-.732-.283-.734-.281a19.7 19.7 0 0 1-4.965-3.117l-.473-.433c-4.079-3.729-6.418-9.016-6.418-14.504 0-.127.009-.252.018-.376.008-.119.016-.238.02-.357l.021-.579c.146-2.192.635-4.29 1.443-6.229l.095-.221c.01-.024.023-.047.033-.071a19.939 19.939 0 0 1 .888-1.778c.262-.466.534-.926.832-1.367.013-.02.028-.038.042-.058.316-.464.654-.912 1.008-1.347l.17-.209c.374-.448.765-.882 1.177-1.295l.058-.055c.403-.401.826-.783 1.263-1.148.049-.041.097-.084.147-.125.431-.354.88-.687 1.341-1.003.109-.075.221-.146.331-.218.371-.244.751-.473 1.139-.692.17-.095.339-.191.511-.281a19.523 19.523 0 0 1 1.879-.861c.213-.085.431-.16.648-.238a20.064 20.064 0 0 1 3.004-.816l.131-.024a19.673 19.673 0 0 1 3.472-.326c1.188 0 2.347.124 3.478.327l.127.024a19.52 19.52 0 0 1 1.441.33c.542.143 1.075.311 1.599.499.191.069.382.135.57.209a18.772 18.772 0 0 1 2.554 1.231c.306.176.607.357.902.549.163.105.328.209.487.319.411.284.811.583 1.199.897.126.102.249.209.373.314.341.29.673.59.993.903.079.077.161.149.239.227a20.22 20.22 0 0 1 1.388 1.567c.281.351.551.71.808 1.08.139.201.271.408.403.615.171.266.335.536.493.81.133.232.265.463.389.701.168.321.323.649.473.98.028.061.059.119.086.181l.19.432a19.485 19.485 0 0 1 1.403 5.85l.055 1.154c.011.158.022.315.022.477 0 5.534-2.373 10.852-6.516 14.595a19.129 19.129 0 0 1-4.269 2.957c-.381.192-.769.372-1.164.539z"/><path d="M15.453 26.075c-.162 4.491 2.897 8.603 7.44 9.615a9.519 9.519 0 0 0 10.826-5.557c-2.284-1.631-5.318-2.975-8.756-3.741-3.431-.763-6.74-.832-9.51-.317zm18.255-7.56l-1.988 1.173a9.494 9.494 0 0 0-4.69-2.585 9.47 9.47 0 0 0-5.342.357l-1.307-1.912a.738.738 0 0 0-1.218.832l1.167 1.707a9.475 9.475 0 0 0-4.43 5.415c2.793-.537 6.159-.482 9.64.293 3.49.777 6.561 2.156 8.864 3.818a9.462 9.462 0 0 0-1.719-6.782l1.772-1.045a.737.737 0 0 0-.749-1.271z"/></g></svg>