<?xml version="1.0" encoding="utf-8"?>
<!-- Generator: Adobe Illustrator 28.2.0, SVG Export Plug-In . SVG Version: 6.00 Build 0)  -->
<svg version="1.1" id="Layer_1" xmlns="http://www.w3.org/2000/svg" xmlns:xlink="http://www.w3.org/1999/xlink" x="0px" y="0px"
	 viewBox="0 0 50 50" style="enable-background:new 0 0 50 50;" xml:space="preserve">
<style type="text/css">
	.st0{fill:#04AD49;}
	.st1{fill:#22DD6D;}
	.st2{fill:none;stroke:#444444;stroke-linecap:round;stroke-linejoin:round;stroke-miterlimit:10;}
	.st3{fill:none;stroke:#444444;stroke-width:0.75;stroke-linecap:round;stroke-linejoin:round;stroke-miterlimit:10;}
	.st4{fill:none;stroke:#444444;stroke-width:2.5;stroke-linecap:round;stroke-linejoin:round;stroke-miterlimit:10;}
	.st5{fill:none;stroke:#444444;stroke-width:0.5;stroke-linecap:round;stroke-linejoin:round;stroke-miterlimit:10;}
</style>
<g>
	<polygon class="st0" points="33.8,23.1 41.6,25.5 34.9,30.3 35.1,38.5 28.5,33.6 20.7,36.2 23.3,28.4 18.4,21.9 26.6,22 31.4,15.3 
			"/>
	<g>
		<g>
			<path class="st1" d="M44.6,17.9l0.5-11.6c0-0.2,0-0.3-0.1-0.5l-1.7-3.4c-0.2-0.3-0.5-0.6-0.9-0.5L26.2,2.3
				c-3.3,0-5.9,0.8-6.1,3.9c0,0.3-0.2,0.6-0.4,0.8l-2.3,1.5c-0.2,0.2-0.4,0.4-0.4,0.7l-0.3,2.3c0,0.3-0.2,0.6-0.5,0.7l-2.9,1.5
				c-0.3,0.2-2.4-1-3.5-1.5c-0.4-0.2-0.8-0.1-1.1,0.2l-2.4,2.2c-0.3,0.3-0.4,0.7-0.3,1.1L7,18.5c0.1,0.2,0.1,0.5,0,0.7l-1.2,3.4
				c-0.1,0.3-0.4,0.6-0.7,0.6l-2.8,0.7c-0.5,0.1-0.8,0.6-0.8,1.1l0.3,3.2c0,0.4,0.4,0.8,0.8,0.9l2,0.3c0.3,0.1,0.6,0.3,0.7,0.6
				L7,33.3c0.1,0.3,0.1,0.6,0,0.8c-0.4,0.9-1.5,2.9-1.4,3c0.7,0.9,3.3,3.4,3.6,3.2c0.9-0.6,2.5-1.7,2.6-1.6c0.9,0.3,3.1,0.9,3.2,1.1
				c0.3,0.9,1.1,3.3,1.5,4c0.1,0.1,3,0.4,3.1,0.5l1.1,3c0.3,0.2,0.6,0.3,0.9,0.2l21.9-7.8c0.3-0.1,0.6-0.4,0.6-0.7
				c0.7-3.1,1.3-18.1,0.4-20.7C44.6,18.2,44.6,18,44.6,17.9z"/>
			<g>
				<path class="st2" d="M28.5,33c0.8,0,1.5,0.7,1.5,1.5c0,0.8-0.7,1.5-1.5,1.5c-0.8,0-1.5-0.7-1.5-1.5C27,33.7,27.7,33,28.5,33z
					 M28.5,16.1c0.8,0,1.5,0.7,1.5,1.5c0,0.8-0.7,1.5-1.5,1.5c-0.8,0-1.5-0.7-1.5-1.5C27,16.7,27.7,16.1,28.5,16.1z"/>
				<path class="st3" d="M27.4,2.2h10v1.7c0,0.9-0.7,1.7-1.7,1.7h-6.7c-0.9,0-1.7-0.7-1.7-1.7V2.2z"/>
				<path class="st4" d="M20.3,7.6l0-1.9c0-2,1.6-3.7,3.7-3.7h17c2,0,3.7,1.6,3.7,3.7V43 M37.6,48.7H24c-2,0-4.3-2.3-4.3-4.3"/>
				<path class="st5" d="M21.3,9.4v33.2c0.6,0,1.3,0,1.9-0.1c4.9-0.9,9-4,11.2-8.2l5,2.7c0.3,0.2,0.6,0.1,0.8-0.2
					c0.2-0.3,0.1-0.6-0.2-0.8l-5-2.8c1-2.2,1.5-4.6,1.5-7.2c0-2.6-0.5-5-1.5-7.2l5-2.7c0.3-0.2,0.4-0.5,0.2-0.8
					c-0.2-0.3-0.5-0.4-0.8-0.2l-4.9,2.7c-2.3-4.2-6.3-7.3-11.2-8.2C22.6,9.5,22,9.4,21.3,9.4z"/>
			</g>
		</g>
		<g>
			<g>
				<g>
					<path id="XMLID_00000014602703199091690660000007639966339126167947_" class="st2" d="M19.9,34.5c-4.5,0-8.2-3.7-8.2-8.2
						c0-4.5,3.7-8.2,8.2-8.2"/>
					<path class="st4" d="M19.7,44.4l-2,0c-0.6,0-1.1-0.4-1.1-1l-0.2-2.5c0-0.5-0.4-0.8-0.8-1c-1.1-0.3-2.1-0.7-3.1-1.3
						c-0.4-0.2-0.9-0.2-1.3,0.1l-1.9,1.6c-0.4,0.4-1.1,0.3-1.5-0.1l-2.6-2.6c-0.4-0.4-0.4-1.1-0.1-1.5l1.6-1.9c0,0,0.4-0.4,0.5-0.9
						c0,0-0.8-2.1-1.3-3.1c-0.2-0.4-0.5-0.8-1-0.8l-2.5-0.2c-0.6-0.1-1-0.5-1-1.1v-3.7c0-0.6,0.4-1.1,1-1.1l2.5-0.2
						c0.5,0,0.8-0.4,1-0.8c0.3-1.1,0.7-2.1,1.3-3.1c0.2-0.4,0.2-0.9-0.1-1.3L5.4,16c-0.4-0.4-0.3-1.1,0.1-1.5l2.6-2.6
						c0.4-0.4,1.1-0.4,1.5-0.1l1.9,1.6c0.4,0.3,0.9,0.3,1.3,0.1c1-0.5,2-1,3.1-1.3c0.5-0.1,0.8-0.5,0.8-1l0.2-2.5
						c0.1-0.6,0.5-1,1.1-1l2.3,0"/>
				</g>
			</g>
		</g>
	</g>
</g>
</svg>
