<?xml version="1.0" encoding="utf-8"?>
<!-- Generator: Adobe Illustrator 26.3.1, SVG Export Plug-In . SVG Version: 6.00 Build 0)  -->
<svg version="1.1" id="Layer_1" xmlns="http://www.w3.org/2000/svg" xmlns:xlink="http://www.w3.org/1999/xlink" x="0px" y="0px"
	 viewBox="0 0 50 50" style="enable-background:new 0 0 50 50;" xml:space="preserve">
<style type="text/css">
	.st0{fill:#BF94F7;}
	.st1{fill:#A475EF;}
	.st2{fill:none;stroke:#494949;stroke-linecap:round;stroke-linejoin:round;stroke-miterlimit:10;}
	.st3{fill:none;stroke:#494949;stroke-width:2.5;stroke-linecap:round;stroke-linejoin:round;stroke-miterlimit:10;}
</style>
<g>
	<g>
		<path class="st0" d="M30.5,15.7c0,1.7-1.4,3.1-3.1,3.1c-1.2,0-2.2-0.6-2.7-1.6v7.4h-8c1.1-0.5,1.9-1.6,1.9-2.9
			c0-1.7-1.4-3.1-3.1-3.1s-3.1,1.4-3.1,3.1c0,1.3,0.8,2.4,1.9,2.9H5.9V10.8c0-2.5,2-4.6,4.6-4.6h14.2v8c0.5-0.9,1.5-1.6,2.7-1.6
			C29.1,12.6,30.5,14,30.5,15.7z"/>
		<path class="st1" d="M16.7,24.5h8v8.7c-0.4-1.2-1.6-2.1-2.9-2.1c-1.7,0-3.1,1.4-3.1,3.1c0,1.7,1.4,3.1,3.1,3.1
			c1.4,0,2.5-0.9,2.9-2.1v8.7H10.5c-2.5,0-4.6-2-4.6-4.6V24.5h8.5c-1.1-0.5-1.9-1.6-1.9-2.9c0-1.7,1.4-3.1,3.1-3.1s3.1,1.4,3.1,3.1
			C18.6,23,17.8,24.1,16.7,24.5z"/>
		<path class="st1" d="M44.1,24.6h-9c1,0.5,1.8,1.5,1.8,2.8c0,1.7-1.4,3.1-3.1,3.1c-1.7,0-3.1-1.4-3.1-3.1c0-1.2,0.7-2.3,1.8-2.8
			h-7.7v-7.4c0.5,0.9,1.5,1.6,2.7,1.6c1.7,0,3.1-1.4,3.1-3.1c0-1.7-1.4-3.1-3.1-3.1c-1.2,0-2.2,0.6-2.7,1.6v-8h14.8
			c2.5,0,4.6,2,4.6,4.6V24.6z"/>
	</g>
	<g>
		<path class="st2" d="M18.7,34.2c0,1.7,1.4,3.1,3.1,3.1c1.4,0,2.5-0.9,2.9-2.1v8.7H10.5c-2.5,0-4.6-2.1-4.6-4.6V24.5h8.5
			c-1.1-0.5-1.9-1.6-1.9-2.9c0-1.7,1.4-3.1,3.1-3.1c1.7,0,3.1,1.4,3.1,3.1c0,1.3-0.8,2.4-1.9,2.9h8v8.7c-0.4-1.2-1.6-2.1-2.9-2.1
			C20.1,31.1,18.7,32.5,18.7,34.2z"/>
		<path class="st2" d="M30.5,15.7c0,1.7-1.4,3.1-3.1,3.1c-1.2,0-2.2-0.6-2.7-1.6v7.4h-8c1.1-0.5,1.9-1.6,1.9-2.9
			c0-1.7-1.4-3.1-3.1-3.1c-1.7,0-3.1,1.4-3.1,3.1c0,1.3,0.8,2.4,1.9,2.9H5.9V10.8c0-2.5,2.1-4.6,4.6-4.6h14.2v8
			c0.5-0.9,1.5-1.6,2.7-1.6C29.1,12.6,30.5,14,30.5,15.7z"/>
		<path class="st2" d="M44.1,24.5h-9c1,0.5,1.8,1.6,1.8,2.8c0,1.7-1.4,3.1-3.1,3.1c-1.7,0-3.1-1.4-3.1-3.1c0-1.2,0.7-2.3,1.8-2.8
			h-7.7v-7.4c0.5,0.9,1.5,1.6,2.7,1.6c1.7,0,3.1-1.4,3.1-3.1s-1.4-3.1-3.1-3.1c-1.2,0-2.2,0.6-2.7,1.6v-8h14.8
			c2.5,0,4.6,2.1,4.6,4.6V24.5z"/>
		<path class="st2" d="M44.1,24.5v14.6c0,2.5-2.1,4.6-4.6,4.6H24.7v-8.7c-0.4,1.2-1.6,2.1-2.9,2.1c-1.7,0-3.1-1.4-3.1-3.1
			c0-1.7,1.4-3.1,3.1-3.1c1.4,0,2.5,0.9,2.9,2.1v-8.7h7.7c-1,0.5-1.8,1.6-1.8,2.8c0,1.7,1.4,3.1,3.1,3.1c1.7,0,3.1-1.4,3.1-3.1
			c0-1.2-0.7-2.3-1.8-2.8H44.1z"/>
	</g>
	<path class="st3" d="M40.6,47.7H9.4c-3.9,0-7.1-3.2-7.1-7.1V9.4c0-3.9,3.2-7.1,7.1-7.1h31.1c3.9,0,7.1,3.2,7.1,7.1v31.1
		C47.7,44.5,44.5,47.7,40.6,47.7z"/>
</g>
</svg>
