<?xml version="1.0" encoding="utf-8"?>
<!-- Generator: Adobe Illustrator 22.1.0, SVG Export Plug-In . SVG Version: 6.00 Build 0)  -->
<svg version="1.1" id="Layer_1" xmlns="http://www.w3.org/2000/svg" xmlns:xlink="http://www.w3.org/1999/xlink" x="0px" y="0px"
	 viewBox="0 0 50 50" style="enable-background:new 0 0 50 50;" xml:space="preserve">
<style type="text/css">
	.st0{fill:#B9D7D9;}
	.st1{fill:#A6C1C2;}
	.st2{fill:#031326;}
</style>
<g>
	<g>
		<path class="st0" d="M25.1,1.7c-12.4,0-22.6,9.7-23.3,22L42.1,9C37.8,4.5,31.8,1.7,25.1,1.7z"/>
	</g>
	<g>
		<path class="st1" d="M48.4,25c0-6.2-2.4-11.8-6.3-16L1.9,23.7c0,0.4,0,0.9,0,1.3c0,7.3,3.4,13.8,8.6,18.1L48,29.5
			C48.3,28,48.4,26.5,48.4,25z"/>
	</g>
	<g>
		<path class="st2" d="M24.9,49.6c-13.5,0-24.6-11-24.6-24.6s11-24.6,24.6-24.6s24.6,11,24.6,24.6c0,0.7,0,1.4-0.1,2.1
			c-0.6,7.5-4.6,14.1-10.9,18.3C34.4,48.1,29.7,49.6,24.9,49.6z M24.9,2.9C12.7,2.9,2.8,12.8,2.8,25s9.9,22.1,22.1,22.1
			c4.4,0,8.6-1.3,12.2-3.7c5.6-3.7,9.2-9.7,9.8-16.4c0.1-0.6,0.1-1.3,0.1-1.9C46.9,12.8,37,2.9,24.9,2.9z"/>
	</g>
	<g>
		<path class="st2" d="M25.4,44.8C14.5,44.8,5.6,35.9,5.6,25S14.5,5.2,25.4,5.2c10.9,0,19.8,8.9,19.8,19.8S36.3,44.8,25.4,44.8z
			 M25.4,6c-10.5,0-19,8.5-19,19c0,10.5,8.5,19,19,19s19-8.5,19-19C44.4,14.5,35.9,6,25.4,6z"/>
	</g>
	<g>
		<g>
			<path class="st2" d="M30,28.3c-0.8,0-1.5-0.3-2.1-0.9l-0.6-0.6c-0.5-0.5-0.5-1.3,0-1.8c0.5-0.5,1.3-0.5,1.8,0l0.6,0.6
				c0.1,0.1,0.3,0.1,0.3,0.1s0.2,0,0.3-0.1l5.3-5.3c0.2-0.2,0.2-0.5,0-0.7l-5.4-5.4c-0.2-0.2-0.5-0.2-0.7,0l-5.3,5.3
				c-0.2,0.2-0.2,0.5,0,0.7l0.6,0.6c0.5,0.5,0.5,1.3,0,1.8s-1.3,0.5-1.8,0L22.5,22c-1.2-1.2-1.2-3.1,0-4.2l5.3-5.3
				c1.1-1.1,3.1-1.1,4.2,0l5.4,5.4c1.2,1.2,1.2,3.1,0,4.2l-5.3,5.3C31.5,28,30.8,28.3,30,28.3C30,28.3,30,28.3,30,28.3z"/>
		</g>
		<g>
			<path class="st2" d="M19.9,38.4c-0.8,0-1.5-0.3-2.1-0.9l-5.4-5.4c-0.6-0.6-0.9-1.3-0.9-2.1s0.3-1.5,0.9-2.1l5.3-5.3
				c1.2-1.2,3.1-1.2,4.2,0l0.6,0.6c0.5,0.5,0.5,1.3,0,1.8s-1.3,0.5-1.8,0l-0.6-0.6c-0.2-0.2-0.5-0.2-0.7,0l-5.3,5.3
				c-0.2,0.2-0.2,0.5,0,0.7l5.4,5.4c0.2,0.2,0.5,0.2,0.7,0l5.3-5.3c0.1-0.1,0.1-0.3,0.1-0.3c0-0.1,0-0.2-0.1-0.3l-0.6-0.6
				c-0.5-0.5-0.5-1.3,0-1.8c0.5-0.5,1.3-0.5,1.8,0l0.6,0.6c0.6,0.6,0.9,1.3,0.9,2.1s-0.3,1.5-0.9,2.1L22,37.5
				C21.4,38.1,20.6,38.4,19.9,38.4z"/>
		</g>
		<g>
			<path class="st2" d="M20.8,30.3c-0.3,0-0.6-0.1-0.9-0.4c-0.5-0.5-0.5-1.3,0-1.8l8.1-8.1c0.5-0.5,1.3-0.5,1.8,0s0.5,1.3,0,1.8
				l-8.1,8.1C21.5,30.2,21.2,30.3,20.8,30.3z"/>
		</g>
	</g>
</g>
</svg>
