<svg xmlns="http://www.w3.org/2000/svg" id="Camada_1" data-name="Camada 1" version="1.1" viewBox="0 0 50 50"><defs><style>.cls-3{stroke-width:0;fill:#444}.cls-4{fill:none;stroke:#444;stroke-linecap:round;stroke-linejoin:round}</style></defs><path fill="#d1bd00" stroke-width="0" d="M25.4 20.9l7.9 2.5-6.7 4.7.1 8.2-6.6-4.9-7.8 2.7 2.7-7.8-5-6.6 8.3.1 4.7-6.7 2.4 7.8z"/><path fill="#f9f941" stroke-width="0" d="M45.1 4.6H4c-1.4 0-1.4 3.8-1.4 5.2l-.2 12.9-.5 10.2 1.2 11.8 12.4.6 32.1-11.4V7.2c0-1.4-1.1-2.6-2.5-2.6z"/><path fill="none" stroke="#444" stroke-linecap="round" stroke-linejoin="round" stroke-width="2.5" d="M32.5 46.1h-27c-1.9 0-3.4-1.6-3.4-3.5v-35c0-1.9 1.5-3.5 3.4-3.5h39c1.9 0 3.4 1.6 3.4 3.5v28.5"/><circle cx="17.7" cy="20.2" r="2" class="cls-3"/><circle cx="32.1" cy="20.2" r="2" class="cls-3"/><path d="M24.9 18.3l-1.5 7s-.5 2.6 3.2 2.7m-7.4 1.5s2.2 2.5 6.1 2.5 6.4-2.7 6.4-2.7M21.3 39.3h-5.4c-3.3 0-5.9-2.7-5.9-5.9v-3.7m29.7-.3v4c0 3.3-2.7 5.9-5.9 5.9h-5.6m.4-28.4h5.2c3.3 0 5.9 2.7 5.9 5.9v5.6m-29.6 0v-5.6c0-3.3 2.7-5.9 5.9-5.9h5.4" class="cls-4"/></svg>