<?xml version="1.0" encoding="utf-8"?>
<!-- Generator: Adobe Illustrator 26.5.0, SVG Export Plug-In . SVG Version: 6.00 Build 0)  -->
<svg version="1.1" id="Camada_3" xmlns="http://www.w3.org/2000/svg" xmlns:xlink="http://www.w3.org/1999/xlink" x="0px" y="0px"
	 viewBox="0 0 50 50" style="enable-background:new 0 0 50 50;" xml:space="preserve">
<style type="text/css">
	.st0{fill:#46B8B0;}
	.st1{fill:#4ECDC4;}
	.st2{fill:#444444;}
	.st3{fill:none;stroke:#444444;stroke-width:2.5;stroke-linecap:round;stroke-linejoin:round;stroke-miterlimit:10;}
	.st4{fill:#444444;stroke:#444444;stroke-width:0.25;stroke-linecap:round;stroke-miterlimit:10;}
	.st5{fill:none;stroke:#444444;stroke-width:0.25;stroke-linecap:round;stroke-miterlimit:10;}
	.st6{fill:none;stroke:#444444;stroke-linecap:round;stroke-linejoin:round;stroke-miterlimit:10;}
</style>
<g>
	<polygon class="st0" points="47.48,9.23 47.83,29.39 18.37,39.87 5.15,39.98 4.19,40 2.68,40.37 2.89,21.01 47.3,3.52 47.48,7.66 	
		"/>
	<polygon class="st1" points="46.13,2.16 47.3,3.52 2.89,21.01 2.73,13.85 2.68,7.84 2.9,2.11 11.12,2.15 	"/>
	<path class="st2" d="M34.45,11.45l-2.68,5.07c-0.24,0.33-0.37,0.42-0.77,0.27c-1.93-0.83-4.05-1.3-6.28-1.3
		c-2.07,0-4.05,0.4-5.87,1.14c-0.28,0.11-0.6,0-0.75-0.27l-2.67-4.91c0,0-0.3-0.43-0.79-0.15c-0.51,0.3-0.32,0.77-0.32,0.77
		l2.54,4.83c0.16,0.3,0.05,0.66-0.24,0.82c-4.58,2.74-7.72,7.72-7.98,13.47c-0.02,0.35,0.27,0.65,0.61,0.65H40.2
		c0.34,0,0.63-0.29,0.61-0.64c-0.25-5.62-3.26-10.5-7.68-13.28c-0.28-0.17-0.38-0.53-0.22-0.82l2.64-5.03c0,0,0.2-0.52-0.25-0.8
		C34.79,10.96,34.45,11.45,34.45,11.45z M15.73,26.35c-0.91,0-1.66-0.74-1.66-1.66c0-0.91,0.75-1.66,1.66-1.66
		c0.92,0,1.66,0.75,1.66,1.66C17.39,25.61,16.65,26.35,15.73,26.35z M33.42,26.35c-0.92,0-1.66-0.74-1.66-1.66
		c0-0.91,0.74-1.66,1.66-1.66c0.92,0,1.65,0.75,1.65,1.66C35.07,25.61,34.34,26.35,33.42,26.35z"/>
	<polyline class="st3" points="38.83,47.9 25.88,47.9 25.88,40.48 2.12,40.48 2.12,2.38 47.88,2.38 47.88,37.33 	"/>
	<g>
		<line class="st4" x1="17.39" y1="3.01" x2="17.39" y2="11.17"/>
		<line class="st4" x1="31.12" y1="2.38" x2="31.12" y2="9.46"/>
		<line class="st4" x1="44.49" y1="27.28" x2="47.88" y2="27.28"/>
		<line class="st5" x1="31.79" y1="34.82" x2="31.76" y2="47.17"/>
		<line class="st5" x1="16.95" y1="39.85" x2="16.98" y2="34.82"/>
		<line class="st4" x1="6.27" y1="27.17" x2="2.12" y2="27.28"/>
		<line class="st4" x1="13.65" y1="15.96" x2="2.68" y2="15.96"/>
		<line class="st4" x1="47.88" y1="9.46" x2="31.12" y2="9.46"/>
	</g>
	<g>
		<polyline class="st6" points="6.32,7.38 42.59,7.38 42.59,42.45 40.2,40.43 		"/>
		<line class="st6" x1="45.17" y1="40.46" x2="42.59" y2="42.45"/>
		<line class="st6" x1="8.62" y1="5.12" x2="6.27" y2="7.4"/>
		<line class="st6" x1="8.62" y1="9.93" x2="6.27" y2="7.4"/>
	</g>
</g>
</svg>
