<?xml version="1.0" encoding="utf-8"?>
<!-- Generator: Adobe Illustrator 26.3.1, SVG Export Plug-In . SVG Version: 6.00 Build 0)  -->
<svg version="1.1" id="Layer_1" xmlns="http://www.w3.org/2000/svg" xmlns:xlink="http://www.w3.org/1999/xlink" x="0px" y="0px"
	 viewBox="0 0 50 50" style="enable-background:new 0 0 50 50;" xml:space="preserve">
<style type="text/css">
	.st0{fill:#DC5E82;}
	.st1{fill:#F56991;}
	.st2{fill:none;stroke:#444444;stroke-width:0.5;stroke-linecap:round;stroke-linejoin:round;stroke-miterlimit:10;}
	.st3{fill:#494949;}
</style>
<g>
	<path class="st0" d="M39,17.3v0.2l-2.7,2.7l-3.1,3.1l-14.8,15c-2.6-1.8-4.5-4.5-5.1-7.5c-0.1-0.6-0.2-1.2-0.2-1.8v-5.7L11,25.5
		l0,5.9c0,1.1-0.8,2-1.9,2h0c-1,0-1.9-0.9-1.9-2v-2l-1,1c-0.4-1-0.7-2-1-3c0-0.2-0.1-0.3-0.1-0.5l2.1-2.1l0.1-0.1l2.1-2.1l3.8-3.9v0
		c3.5-3.6,7.1-7.1,10.6-10.7c1.4-1.4,2.8-2.8,4.2-4.2h0c1.2,0.2,2.4,0.5,3.5,1.1C32,5.1,32.5,5.4,33,5.7l2.5-2.4
		C36,2.9,36.6,2.9,37,3.4c0,0,0,0,0,0c0.4,0.4,0.3,1.1-0.1,1.5l-2.3,2.2c0.2,0.2,0.3,0.3,0.5,0.5c0.2,0.2,0.4,0.4,0.6,0.6
		C37.8,10.6,39,13.8,39,17.3z"/>
	<path class="st1" d="M9.3,22.6c0,0-0.1,0-0.1,0c0,0,0,0,0,0H9.1c-1,0-1.9,0.9-1.9,2v0.1v0l-0.1,0l-2.1,2.1c0,0.2,0.1,0.4,0.1,0.5
		c0.3,1,0.6,2.1,1,3l1-1l3.8-3.9l2.1-2.1l1.4-1.4l1.6-1.6L31.4,4.8c-1.1-0.6-2.3-0.9-3.5-1.1h0c-3-0.5-6.1,0.2-8.8,2l-2-1.9
		l-0.6-0.6C16.4,3.1,16.1,3,15.8,3c-0.6,0-1,0.5-1,1.1c0,0.3,0.1,0.5,0.3,0.8l0.5,0.4l1.8,1.7c-2.8,2.6-4.3,6.3-4.3,10.2v1.4v0
		L9.3,22.6z"/>
	<line class="st2" x1="17.2" y1="3.9" x2="15.7" y2="5.4"/>
	<path class="st2" d="M9.3,22.6c-0.7,0.7-1.4,1.4-2.1,2.1"/>
	<path class="st2" d="M13.2,18.7L13.2,18.7c3.5-3.6,7-7.2,10.6-10.7c1.4-1.4,2.8-2.8,4.2-4.2h0c0.3-0.3,0.6-0.6,0.9-0.9"/>
	<line class="st2" x1="39.4" y1="4.5" x2="9" y2="35.3"/>
	<g>
		<g>
			<path class="st3" d="M15.9,3c0.2,0,0.5,0.1,0.7,0.3l0.6,0.6l2,1.9c2.1-1.4,4.5-2.2,6.9-2.2c0.6,0,1.2,0,1.8,0.1h0
				c1.2,0.2,2.4,0.5,3.5,1.1C32,5.1,32.5,5.4,33,5.7l2.5-2.4C35.8,3.1,36,3,36.3,3c0.3,0,0.6,0.1,0.8,0.4c0,0,0,0,0,0
				c0.4,0.4,0.3,1.1-0.1,1.5l-2.3,2.2c0.2,0.2,0.3,0.3,0.5,0.5c0.2,0.2,0.4,0.4,0.6,0.6c2,2.4,3.2,5.6,3.2,9v1.8
				c-0.8,0.4-1.7,0.8-2.7,1.1c-3,1.1-6.5,1.7-10.2,1.7c-1.2,0-2.5-0.1-3.6-0.2c-2.3-0.2-4.4-0.7-6.3-1.4c-1.1-0.4-2.1-0.8-3-1.3
				v-1.8c0-3.9,1.6-7.6,4.3-10.2l-1.8-1.7l-0.5-0.5c-0.2-0.2-0.3-0.5-0.3-0.8C14.8,3.6,15.3,3,15.9,3C15.9,3,15.9,3,15.9,3
				 M15.9,0.5c-0.1,0-0.2,0-0.3,0c-0.9,0.1-1.7,0.5-2.3,1.1c-0.6,0.7-1,1.7-0.9,2.6c0,0.9,0.4,1.8,1.1,2.4L14,7.2L14,7.2
				c-2.2,2.8-3.4,6.4-3.4,10.1v1.8c0,0.9,0.5,1.8,1.4,2.2c1,0.5,2.1,1,3.3,1.4c2.2,0.7,4.5,1.2,6.9,1.5c1.3,0.1,2.6,0.2,3.9,0.2
				c3.9,0,7.7-0.6,11.1-1.8c1-0.4,2-0.8,3-1.3c0.8-0.4,1.4-1.3,1.4-2.2v-1.8c0-3.7-1.2-7.2-3.3-10.1l0.5-0.5c1.4-1.3,1.5-3.5,0.2-5
				l0,0c0,0,0,0-0.1-0.1c-0.7-0.7-1.6-1.2-2.6-1.2c-0.9,0-1.8,0.3-2.4,1l-1.2,1.2c-0.1,0-0.1-0.1-0.2-0.1c-1.3-0.7-2.8-1.1-4.2-1.3
				c0,0-0.1,0-0.1,0c-0.7-0.1-1.4-0.2-2.1-0.2c-2.3,0-4.5,0.5-6.6,1.6l-0.6-0.6l-0.6-0.6C17.7,0.9,16.8,0.5,15.9,0.5L15.9,0.5z"/>
		</g>
		<g>
			<path class="st3" d="M39,21.4v7.7c-0.2,4.2-2.7,7.8-6.1,10l0,5.5c0,1.4-1.1,2.6-2.4,2.6h-0.1c-1.3,0-2.4-1.1-2.4-2.6v-3.7
				c-0.6,0.1-1.2,0.2-1.9,0.2c-0.7,0-1.3-0.1-2-0.2v3.8c0,1.4-1.1,2.6-2.4,2.6h-0.1c-1.3,0-2.4-1.2-2.4-2.6l0-5.7
				c-0.2-0.2-0.5-0.3-0.7-0.5c-2.6-1.8-4.5-4.5-5.1-7.5c-0.1-0.6-0.2-1.2-0.2-1.8v-7.7c0.4,0.2,0.9,0.4,1.4,0.6
				c1.8,0.8,3.8,1.3,6,1.7c1.8,0.3,3.6,0.5,5.6,0.5c2.5,0,4.9-0.3,7.2-0.8C35.3,22.9,37.3,22.2,39,21.4 M43,22.6c1,0,1.9,0.9,1.9,2
				v6.8c0,1.1-0.8,2-1.9,2h0c-1,0-1.9-0.9-1.9-2l0-6.8C41.1,23.5,41.9,22.6,43,22.6L43,22.6C43,22.6,43,22.6,43,22.6 M9.2,22.6
				c0.1,0,0.1,0,0.1,0c0,0,0,0,0,0c1,0.1,1.7,0.9,1.7,2v0.9l0,5.9c0,1.1-0.8,2-1.9,2h0c-1,0-1.9-0.9-1.9-2v-6.8
				C7.2,23.5,8,22.6,9.2,22.6L9.2,22.6C9.1,22.6,9.1,22.6,9.2,22.6 M13.2,18.9c-0.5,0-0.9,0.1-1.3,0.4c-0.5,0.3-0.8,0.7-1,1.2
				c-0.4-0.2-0.8-0.3-1.3-0.3c-0.2,0-0.3,0-0.4,0h0H9.1c-2.4,0-4.4,2-4.4,4.5v6.8c0,2.5,2,4.5,4.4,4.5c1.2,0,2.2-0.5,3-1.2
				c1,2.1,2.6,4,4.6,5.4l0,4.4c0,2.8,2.2,5.1,4.9,5.1h0.1c1.9,0,3.6-1.1,4.4-2.7c0.8,1.6,2.5,2.6,4.3,2.6h0.1c2.7,0,4.9-2.3,4.9-5.1
				l0-4.1c2-1.5,3.6-3.4,4.7-5.6c0.8,0.7,1.8,1.2,3,1.2c2.5,0,4.4-2,4.4-4.5v-6.8c0-2.5-2-4.5-4.4-4.5h0H43c-0.6,0-1.1,0.1-1.6,0.3
				c-0.2-0.5-0.5-0.9-1-1.2c-0.4-0.2-0.9-0.4-1.3-0.4c-0.4,0-0.8,0.1-1.1,0.3c-1.6,0.8-3.3,1.4-5.2,1.8c-2.1,0.5-4.3,0.7-6.6,0.7
				c-1.8,0-3.5-0.1-5.1-0.4c-2-0.3-3.8-0.9-5.4-1.5c-0.4-0.2-0.8-0.4-1.2-0.6C13.9,18.9,13.5,18.9,13.2,18.9L13.2,18.9z"/>
		</g>
	</g>
</g>
</svg>
