<?xml version="1.0" encoding="utf-8"?>
<!-- Generator: Adobe Illustrator 26.0.2, SVG Export Plug-In . SVG Version: 6.00 Build 0)  -->
<svg version="1.1" id="Layer_1" xmlns="http://www.w3.org/2000/svg" xmlns:xlink="http://www.w3.org/1999/xlink" x="0px" y="0px"
	 viewBox="0 0 50 50" style="enable-background:new 0 0 50 50;" xml:space="preserve">
<style type="text/css">
	.st0{fill:#AFE55D;}
	.st1{fill:#C3FF68;}
	.st2{fill:#494949;}
	.st3{fill:#444444;}
</style>
<g>
	<path class="st0" d="M43.6,12.6l-1.8,1.9L15.1,41.7l-1.8,1.9C10.4,42,7.9,39.8,6,37.1c-1.7-2.3-2.9-4.9-3.6-7.7
		c-0.1-0.2-0.1-0.4-0.1-0.5l2.1-2.2L26.7,4.1l2.2-2.2C29,1.9,29.2,2,29.4,2c2.8,0.7,5.5,1.9,7.8,3.5C39.8,7.4,42,9.8,43.6,12.6z"/>
	<path class="st1" d="M28.6,3.4l-2,2l-21.7,22l-2,2c0-0.2-0.1-0.3-0.1-0.5c-0.4-1.5-0.5-3.1-0.5-4.8c0-11.8,9.6-21.4,21.4-21.4
		c1.5,0,3,0.2,4.4,0.5C28.3,3.3,28.5,3.3,28.6,3.4z"/>
	<path class="st2" d="M30.1,3.8l-1,0.6l-0.3,0.2L28,5.1l-1.1-0.7l-1.5-0.9h0V2.9c-0.3,0-0.6,0-0.9,0v0.6l-2.1,1.2l-0.5,0.3l-0.1,0
		l-0.5-0.3l-2.1-1.2L19,3.5c0,0,0,0,0,0l-0.7,0.2l-2.5,1.5l-0.6-0.3c-0.3,0.1-0.6,0.3-1,0.5l1.1,0.6v3l-2.6,1.5l-1-0.6l-1.1-0.6
		L10,8.9V8C9.7,8.2,9.4,8.5,9.1,8.8v0.1L8.9,9c-0.7,0.7-1.3,1.4-1.9,2.1l2.6-1.5l0.3,0.2l1.1,0.6l1.3,0.7v3l-2.6,1.5l-2.1-1.2
		l-0.6-0.3v-3C6.6,11.6,6.3,12,6,12.4v1.8l-1.6,0.9C4.2,15.5,4,16,3.8,16.4l1.8-1l0.8-0.5L7,15.3l2,1.2v3L6.5,21l-1.3-0.7l-1.1-0.6
		l-0.3-0.2v-3c-0.3,0.9-0.6,1.7-0.9,2.7v0.4l-0.1,0.1c-0.1,0.4-0.2,0.8-0.2,1.1l0.3-0.2l0.4-0.2l0.5,0.3l1,0.6l0,0l1,0.6v3.1
		l-1.3,0.8l-0.9,0.5l-0.4,0.2l-1.1-0.6c0,0.3,0,0.7,0.1,1.1l0.8,0.5c0.1,0,0.1,0.1,0.2,0.1c0.1,0,0.2,0,0.2-0.1l0.3-0.2h0l0.9-0.5
		l0.6-0.3h0l1.1-0.6l0,0l0.4,0.2l2.2,1.3v3.3c0,0.2,0.1,0.3,0.2,0.4l2.9,1.6v3.3c0,0.2,0.1,0.3,0.2,0.4l3.1,1.8
		c0.1,0,0.1,0.1,0.2,0.1c0.1,0,0.2,0,0.2-0.1l1.4-0.8l1.7-1c0.1-0.1,0.2-0.2,0.2-0.4v-3.3l2.9-1.7c0.1-0.1,0.2-0.2,0.2-0.4v-3.6
		c0-0.2-0.1-0.3-0.2-0.4l-2.8-1.6v-3.1l2.6-1.5l1.6,0.9l1.3,0.8c0.1,0,0.1,0.1,0.2,0.1c0.1,0,0.2,0,0.2-0.1l2.9-1.7l0.8,0.5l2,1.2
		c0.1,0,0.2,0.1,0.2,0.1c0.1,0,0.2,0,0.2-0.1l2.2-1.3l0.9-0.5c0.1-0.1,0.2-0.2,0.2-0.4v-3.6c0-0.2-0.1-0.3-0.2-0.4l-0.2-0.1
		l-2.7-1.6v-3l2.9-1.6c0.1-0.1,0.2-0.2,0.2-0.4V5.7C33.2,4.9,31.7,4.3,30.1,3.8z M24,4.8l0.9-0.5h0l0.2,0.1L26.2,5l0.1,0.1l0,0
		l0.6,0.3l0.3,0.1l0.4,0.2v3l-2.4,1.4l-0.2,0.1l-1.8-1l-0.7-0.4l-0.1-0.1v-3l0.8-0.5L24,4.8L24,4.8z M16.1,5.9l2.6-1.5L19.8,5h0
		l1,0.6l0.6,0.3v3l-2.6,1.5l-2.6-1.5V5.9z M13,11.1l2.6-1.5l0.1,0l2.6,1.5v3l-2.5,1.5l0,0l0,0l0,0l-0.1,0h0L13,14.2V11.1z M10,16.5
		l2.6-1.5l2.5,1.4l0.2,0.1v3L12.6,21L12,20.7l-0.7-0.4L10,19.5V16.5z M15.7,20.3l2.7,1.5v3l-2.6,1.5l-2.6-1.5v-3.1L15.7,20.3z
		 M7.5,25.2L7.5,25.2l-0.6-0.4v-3l2.6-1.5l0,0l1.1,0.6l0.7,0.4h0l0.8,0.5v3l-2.7,1.5L7.5,25.2z M10,30.2v-3h0l2.7-1.5l2.6,1.5v3
		l-2.6,1.5L10,30.2z M15.7,37L13,35.5v-3l2.6-1.5l2.7,1.6v3L15.7,37z M21.4,27.1v3.1l-2.6,1.5l-2.7-1.6v-3l2.6-1.5L21.4,27.1z
		 M21.4,19.5L18.8,21l-2.7-1.5v-3l2.6-1.5l2.6,1.5V19.5z M19.2,14.2v-3l2.2-1.2l0,0l0.5-0.3l0,0l0,0l0.6,0.3l2,1.2v3l-2.6,1.5
		L19.2,14.2z M27.6,19.5l-2.4,1.4L24.9,21l-2.6-1.5v-3l2.6-1.5l0.2,0.1l2.4,1.4V19.5z M28,15.7l-2.6-1.5v-3L28,9.6l0.8,0.5l1.8,1v3
		l-1.8,1L28,15.7z M33.7,16.4v3L31.1,21l-2.2-1.3l-0.4-0.2v-3l0.4-0.2l2.2-1.3l0,0L33.7,16.4z M33.7,8.9l-2.6,1.5l-2.3-1.3l-0.4-0.2
		v-3l0.4-0.2l1.4-0.8l0.9-0.5l2.6,1.5V8.9z"/>
	<g>
		<path class="st3" d="M39.1,33.3v-0.9c0-1.9-0.7-3.5-1.8-4.7c-0.1-0.1-0.2-0.2-0.3-0.3l1.1-1.1c0.2-0.2,0.2-0.5,0-0.7c0,0,0,0,0,0
			c-0.2-0.2-0.5-0.2-0.7,0l-1.2,1.2c-2-1.4-4.6-1.4-6.6,0l-1.2-1.2c-0.1-0.1-0.2-0.1-0.4-0.1c-0.3,0-0.5,0.3-0.5,0.6
			c0,0.1,0.1,0.3,0.2,0.4l1.1,1.1c-1.3,1.3-2.1,3.1-2.1,5v0.9c1.6,0.9,3.8,1.4,6.2,1.4C35.3,34.6,37.4,34.1,39.1,33.3z"/>
		<path class="st3" d="M32.9,35.7c-2.4,0-4.5-0.5-6.2-1.4l0,3.8c0.1,1.9,1.2,3.7,2.9,4.8l0,2.8c0,0.7,0.5,1.3,1.2,1.3h0
			c0.6,0,1.2-0.6,1.2-1.3v-1.9c0.3,0.1,0.6,0.1,0.9,0.1c0.3,0,0.6,0,0.9-0.1v1.8c0,0.7,0.5,1.3,1.2,1.3h0c0.6,0,1.2-0.6,1.2-1.3
			l0-2.7c1.6-1,2.8-2.8,2.9-4.9l0-3.8C37.4,35.2,35.2,35.7,32.9,35.7z M24.8,35L24.8,35c-0.5,0-0.9,0.4-0.9,1l0,3.4
			c0,0.5,0.4,1,0.9,1h0c0.5,0,0.9-0.4,0.9-1l0,0l0-3.4C25.7,35.4,25.3,35,24.8,35C24.8,35,24.8,35,24.8,35z M41,35L41,35
			c-0.5,0-0.9,0.4-0.9,1l0,3.4c0,0.5,0.4,1,0.9,1h0c0.5,0,0.9-0.4,0.9-1l0,0l0-3.4C41.9,35.4,41.5,35,41,35C41,35,41,35,41,35z"/>
	</g>
	<g>
		<g>
			<g>
				<path class="st3" d="M49.3,25c0,2.6-0.4,4.8-0.8,6.1c-0.6,2.4-1.5,4.2-2.3,5.6c-0.3,0.7-1.2,1-1.9,0.6c-0.6-0.3-0.9-1.2-0.6-1.8
					c0.6-1.1,1.4-2.7,1.9-4.6c0.4-1.3,0.9-3.4,0.9-6c0-3.7-0.9-7.1-2.6-10.2c-0.3-0.5-0.6-1.1-1-1.6c-1.6-2.4-3.6-4.5-6-6.1
					c0,0,0,0-0.1,0c-0.3-0.2-0.7-0.4-1-0.6c-1.8-1.1-3.8-1.9-5.9-2.4c-0.5-0.1-0.9-0.2-1.4-0.3c-0.1,0-0.2,0-0.4-0.1c0,0,0,0,0,0
					c-0.2,0-0.4-0.1-0.6-0.1c-0.2,0-0.3,0-0.5-0.1c-0.7-0.1-1.5-0.1-2.2-0.1c-0.3,0-0.6,0-0.9,0c-0.9,0-1.7,0.1-2.6,0.2
					c-1.7,0.3-3.4,0.8-5,1.5h0c-0.1,0-0.2,0.1-0.3,0.1c-0.3,0.2-0.7,0.3-1,0.5c-1.5,0.7-2.9,1.6-4.1,2.7c-0.3,0.2-0.5,0.5-0.8,0.7
					c-1.5,1.4-2.7,2.9-3.8,4.6c-0.2,0.3-0.3,0.6-0.5,0.9c-0.4,0.7-0.8,1.4-1.1,2.2C4.6,17.9,4.2,19,4,20.2c-0.1,0.3-0.2,0.7-0.2,1
					c-0.2,1.2-0.3,2.5-0.3,3.7c0,0.4,0,0.8,0,1.2c0,0.4,0,0.7,0.1,1.1c0,0.1,0,0.2,0,0.3c0,0.2,0,0.3,0.1,0.5c0,0.2,0.1,0.4,0.1,0.6
					v0c0,0,0,0,0,0c0.5,3.1,1.8,6.1,3.5,8.6c1.7,2.4,3.8,4.4,6.2,5.9c0.5,0.3,1.1,0.6,1.6,0.9c2.9,1.5,6.3,2.4,9.9,2.4
					c0.8,0,1.4,0.6,1.4,1.4s-0.6,1.3-1.4,1.3c-4.3,0-8.3-1.1-11.8-3.1c-3.1-1.7-5.7-4.1-7.8-6.9C3.6,36.8,2.2,34,1.5,31
					c-0.1-0.2-0.1-0.4-0.1-0.6c-0.2-0.9-0.4-1.9-0.5-2.8c0-0.4-0.1-0.8-0.1-1.2c0-0.5,0-0.9,0-1.4c0-1.5,0.1-2.9,0.4-4.3
					c0.1-0.4,0.2-0.9,0.3-1.3c0-0.2,0.1-0.3,0.1-0.5c0.3-1,0.6-2,1-3c0,0,0-0.1,0-0.1c0.2-0.5,0.4-1,0.7-1.5c0.5-1.1,1.1-2.1,1.8-3
					c0.3-0.5,0.6-0.9,1-1.3c0,0,0,0,0-0.1c0.7-0.8,1.4-1.6,2.2-2.4c0.1-0.1,0.2-0.2,0.3-0.2C8.7,7,9,6.7,9.4,6.4
					c1.4-1.2,3-2.3,4.7-3.1c0.3-0.2,0.7-0.4,1.1-0.5c1.1-0.5,2.3-0.9,3.5-1.2l0.8-0.2C21.2,1,23.1,0.7,25,0.7c0.2,0,0.4,0,0.7,0
					c0.3,0,0.7,0,1,0C27.8,0.9,28.9,1,30,1.3c0.2,0,0.4,0.1,0.6,0.1c0.5,0.1,1,0.2,1.4,0.4c1.8,0.5,3.4,1.2,5,2.2
					c0.7,0.4,1.4,0.8,2,1.3c2.8,2,5.2,4.6,7,7.6C48.1,16.4,49.3,20.6,49.3,25z"/>
			</g>
		</g>
	</g>
</g>
</svg>
