<svg xmlns="http://www.w3.org/2000/svg" id="Layer_1" x="0" y="0" version="1.1" viewBox="0 0 50 50" xml:space="preserve"><style>.st2,.st4{fill:none;stroke:#444;stroke-linecap:round;stroke-linejoin:round;stroke-miterlimit:10}.st4{stroke-width:2.5}</style><path fill="#04ad49" d="M33.8 23.1l7.8 2.4-6.7 4.8.2 8.2-6.6-4.9-7.8 2.6 2.6-7.8-4.9-6.5 8.2.1 4.8-6.7z"/><path fill="#22dd6d" d="M44.6 17.9l.5-11.6c0-.2 0-.3-.1-.5l-1.7-3.4c-.2-.3-.5-.6-.9-.5l-16.2.4c-3.3 0-5.9.8-6.1 3.9 0 .3-.2.6-.4.8l-2.3 1.5c-.2.2-.4.4-.4.7l-.3 2.3c0 .3-.2.6-.5.7l-2.9 1.5c-.3.2-2.4-1-3.5-1.5-.4-.2-.8-.1-1.1.2l-2.4 2.2c-.3.3-.4.7-.3 1.1l1 2.8c.1.2.1.5 0 .7l-1.2 3.4c-.1.3-.4.6-.7.6l-2.8.7c-.5.1-.8.6-.8 1.1l.3 3.2c0 .4.4.8.8.9l2 .3c.3.1.6.3.7.6L7 33.3c.1.3.1.6 0 .8-.4.9-1.5 2.9-1.4 3 .7.9 3.3 3.4 3.6 3.2.9-.6 2.5-1.7 2.6-1.6.9.3 3.1.9 3.2 1.1.3.9 1.1 3.3 1.5 4 .1.1 3 .4 3.1.5l1.1 3c.3.2.6.3.9.2l21.9-7.8c.3-.1.6-.4.6-.7.7-3.1 1.3-18.1.4-20.7.1-.1.1-.3.1-.4z"/><path d="M28.5 33c.8 0 1.5.7 1.5 1.5s-.7 1.5-1.5 1.5-1.5-.7-1.5-1.5.7-1.5 1.5-1.5zm0-16.9c.8 0 1.5.7 1.5 1.5s-.7 1.5-1.5 1.5-1.5-.7-1.5-1.5c0-.9.7-1.5 1.5-1.5z" class="st2"/><path fill="none" stroke="#444" stroke-linecap="round" stroke-linejoin="round" stroke-miterlimit="10" stroke-width=".75" d="M27.4 2.2h10v1.7c0 .9-.7 1.7-1.7 1.7H29c-.9 0-1.7-.7-1.7-1.7V2.2z"/><path d="M20.3 7.6V5.7c0-2 1.6-3.7 3.7-3.7h17c2 0 3.7 1.6 3.7 3.7V43m-7.1 5.7H24c-2 0-4.3-2.3-4.3-4.3" class="st4"/><path fill="none" stroke="#444" stroke-linecap="round" stroke-linejoin="round" stroke-miterlimit="10" stroke-width=".5" d="M21.3 9.4v33.2c.6 0 1.3 0 1.9-.1 4.9-.9 9-4 11.2-8.2l5 2.7c.3.2.6.1.8-.2.2-.3.1-.6-.2-.8l-5-2.8c1-2.2 1.5-4.6 1.5-7.2 0-2.6-.5-5-1.5-7.2l5-2.7c.3-.2.4-.5.2-.8-.2-.3-.5-.4-.8-.2l-4.9 2.7c-2.3-4.2-6.3-7.3-11.2-8.2-.7-.1-1.3-.2-2-.2z"/><path id="XMLID_00000014602703199091690660000007639966339126167947_" d="M19.9 34.5c-4.5 0-8.2-3.7-8.2-8.2 0-4.5 3.7-8.2 8.2-8.2" class="st2"/><path d="M19.7 44.4h-2c-.6 0-1.1-.4-1.1-1l-.2-2.5c0-.5-.4-.8-.8-1-1.1-.3-2.1-.7-3.1-1.3-.4-.2-.9-.2-1.3.1l-1.9 1.6c-.4.4-1.1.3-1.5-.1l-2.6-2.6c-.4-.4-.4-1.1-.1-1.5l1.6-1.9s.4-.4.5-.9c0 0-.8-2.1-1.3-3.1-.2-.4-.5-.8-1-.8l-2.5-.2c-.6-.1-1-.5-1-1.1v-3.7c0-.6.4-1.1 1-1.1l2.5-.2c.5 0 .8-.4 1-.8.3-1.1.7-2.1 1.3-3.1.2-.4.2-.9-.1-1.3L5.4 16c-.4-.4-.3-1.1.1-1.5l2.6-2.6c.4-.4 1.1-.4 1.5-.1l1.9 1.6c.4.3.9.3 1.3.1 1-.5 2-1 3.1-1.3.5-.1.8-.5.8-1l.2-2.5c.1-.6.5-1 1.1-1h2.3" class="st4"/></svg>