<?xml version="1.0" encoding="UTF-8"?>
<svg id="Camada_1" data-name="Camada 1" xmlns="http://www.w3.org/2000/svg" version="1.1" viewBox="0 0 50 50">
  <defs>
    <style>
      .cls-1 {
        fill: #f9f941;
      }

      .cls-1, .cls-2, .cls-3 {
        stroke-width: 0px;
      }

      .cls-2 {
        fill: #d1bd00;
      }

      .cls-3 {
        fill: #444;
      }

      .cls-4, .cls-5 {
        fill: none;
        stroke: #444;
        stroke-linecap: round;
        stroke-linejoin: round;
      }

      .cls-5 {
        stroke-width: 2.5px;
      }
    </style>
  </defs>
  <polygon class="cls-2" points="25.4 20.9 33.3 23.4 26.6 28.1 26.7 36.3 20.1 31.4 12.3 34.1 15 26.3 10 19.7 18.3 19.8 23 13.1 25.4 20.9"/>
  <g>
    <g>
      <path class="cls-1" d="M45.1,4.6H4c-1.4,0-1.4,3.8-1.4,5.2l-.2,12.9-.5,10.2,1.2,11.8,12.4.6,32.1-11.4V7.2h0c0-1.4-1.1-2.6-2.5-2.6Z"/>
      <path class="cls-5" d="M32.5,46.1H5.5c-1.9,0-3.4-1.6-3.4-3.5V7.6c0-1.9,1.5-3.5,3.4-3.5h39c1.9,0,3.4,1.6,3.4,3.5v28.5"/>
    </g>
    <g>
      <g>
        <circle class="cls-3" cx="17.7" cy="20.2" r="2"/>
        <circle class="cls-3" cx="32.1" cy="20.2" r="2"/>
        <path class="cls-4" d="M24.9,18.3l-1.5,7s-.5,2.6,3.2,2.7"/>
        <path class="cls-4" d="M19.2,29.5s2.2,2.5,6.1,2.5,6.4-2.7,6.4-2.7"/>
      </g>
      <g>
        <path class="cls-4" d="M21.3,39.3h-5.4c-3.3,0-5.9-2.7-5.9-5.9v-3.7"/>
        <path class="cls-4" d="M39.7,29.4v4c0,3.3-2.7,5.9-5.9,5.9h-5.6"/>
        <path class="cls-4" d="M28.6,10.9h5.2c3.3,0,5.9,2.7,5.9,5.9v5.6"/>
        <path class="cls-4" d="M10.1,22.4v-5.6c0-3.3,2.7-5.9,5.9-5.9h5.4"/>
      </g>
    </g>
  </g>
</svg>