<?xml version="1.0" encoding="UTF-8"?>
<svg id="Camada_3" xmlns="http://www.w3.org/2000/svg" version="1.1" viewBox="0 0 50 50">
  <!-- Generator: Adobe Illustrator 29.1.0, SVG Export Plug-In . SVG Version: 2.1.0 Build 142)  -->
  <defs>
    <style>
      .st0, .st1, .st2 {
        fill: none;
        stroke: #444;
        stroke-linecap: round;
        stroke-linejoin: round;
      }

      .st1 {
        stroke-width: 2.5px;
      }

      .st3 {
        fill: #46b8b0;
      }

      .st2 {
        stroke-width: .5px;
      }
    </style>
  </defs>
  <path class="st3" d="M42.7,12.1L32.3,1.9c-1.2,0-25.3-.1-25.3,1.1l-.6,24.6-.5,8.7,1.1,10,10.6.5,27.3-9.7V14.3h0c0-1.2-1-2.2-2.1-2.2Z"/>
  <g>
    <g>
      <polygon class="st0" points="12.3 23.3 25.5 16.4 38.8 23.3 34.9 25.4 34.9 25.4 32.2 26.8 32.2 26.8 25.6 30.3 18.9 26.8 18.9 26.8 16.2 25.4 16.2 25.4 12.3 23.3"/>
      <polyline class="st0" points="32.2 33.7 38.8 37.2 25.6 44.1 12.2 37.2 18.8 33.7"/>
      <polyline class="st0" points="32.2 26.8 38.8 30.3 25.6 37.2 16.4 32.4 16.2 32.3 16.2 32.3 12.3 30.3 18.9 26.8"/>
    </g>
    <g>
      <path class="st1" d="M44.3,36.2V15.6c0-1.3-.5-2.5-1.4-3.4l-9.1-9.1c-.9-.9-2.1-1.4-3.4-1.4H11.6c-2.7,0-4.8,2.2-4.8,4.8v36.1c0,2.7,2.2,4.8,4.8,4.8h19.1"/>
      <path class="st2" d="M43.9,14.1h-8.9c-1.7,0-3.2-1.4-3.2-3.2V2"/>
    </g>
  </g>
</svg>