<?xml version="1.0" encoding="utf-8"?>
<!-- Generator: Adobe Illustrator 28.3.0, SVG Export Plug-In . SVG Version: 6.00 Build 0)  -->
<svg version="1.1" id="Layer_1" xmlns="http://www.w3.org/2000/svg" xmlns:xlink="http://www.w3.org/1999/xlink" x="0px" y="0px"
	 viewBox="0 0 50 50" style="enable-background:new 0 0 50 50;" xml:space="preserve">
<style type="text/css">
	.st0{fill:#FC9D9A;}
	.st1{fill:none;stroke:#444444;stroke-width:0.5;stroke-miterlimit:10;}
	.st2{fill:none;stroke:#444444;stroke-miterlimit:10;}
	.st3{fill:none;stroke:#444444;stroke-width:0.5;stroke-linecap:round;stroke-linejoin:round;stroke-miterlimit:10;}
	.st4{fill:none;stroke:#444444;stroke-width:2.5;stroke-linecap:round;stroke-linejoin:round;stroke-miterlimit:10;}
</style>
<g>
	<path class="st0" d="M48,18.1l0.1-9l-3.5-1.8l-0.8-4.7c-3.2,0-38.6-3.1-38.6,0.1L4.5,23.2l0.8,23.9l11.2,1.3l31-11
		C48.3,36.9,49,20.1,48,18.1z"/>
	<g>
		<g>
			<line class="st1" x1="10.8" y1="3.3" x2="10.8" y2="47.1"/>
			<path class="st2" d="M38.4,29.8L33,28.1c-0.7-0.2-1.5,0-2.1,0.6L29.7,30c-0.2,0.2-0.4,0.2-0.6,0.1c-2.5-1.7-4.6-3.7-6.3-6.3
				c-0.1-0.2-0.1-0.5,0.1-0.6l1.3-1.2c0.6-0.5,0.8-1.3,0.6-2.1l-1.7-5.4c-0.2-0.8-1-1.3-1.8-1.2L19,13.6c-0.6,0.1-1.2,0.4-1.6,0.9
				c-6.9,9,11.9,27.8,20.9,20.9c0.5-0.4,0.8-0.9,0.9-1.6l0.3-2.3C39.7,30.9,39.2,30.1,38.4,29.8z"/>
			<path class="st1" d="M7.7,3.3c-1,0-1.9,1-1.9,2.3v39.3c0,1.3,0.8,2.3,1.9,2.3h3.1V3.3H7.7z"/>
			<path class="st3" d="M43.7,40.6h1.4c2.1,0,2.3-1,2.3-2.3v-5.9c0-1.3-1-2.3-2.3-2.3c1.3,0,2.3-1,2.3-2.3v-5.9c0-1.3-1-2.3-2.3-2.3
				c1.3,0,2.3-1,2.3-2.3v-6c0-1.3-1-2.3-2.3-2.3h-1.4"/>
		</g>
		<path class="st4" d="M44.7,41.7h1.5c1.3,0,2.4-1.1,2.4-2.4v-6.2c0-1.3-0.3-3.1-1-3.1c0.7,0,1-0.4,1-1.7v-6.2
			c0-1.3-0.4-2.6-1.1-2.6c0.7,0,1.1-0.9,1.1-2.2v-6.2c0-1.3-1.1-3.2-2.4-3.2h-1.5V4.5c0-1.3-1.1-2.4-2.4-2.4h-31h-4
			C6,2.1,4.9,3.2,4.9,4.5v3.3H2.5C2,7.8,1.6,8.2,1.6,8.7c0,0.5,0.4,0.9,0.9,0.9h2.3v4.8H2.5c-0.5,0-0.9,0.4-0.9,0.9s0.4,0.9,0.9,0.9
			h2.3V21H2.5c-0.5,0-0.9,0.4-0.9,0.9s0.4,0.9,0.9,0.9h2.3v4.8H2.5c-0.5,0-0.9,0.4-0.9,0.9s0.4,0.9,0.9,0.9h2.3v4.8H2.5
			c-0.5,0-0.9,0.4-0.9,0.9S2,36,2.5,36h2.3v4.8H2.5c-0.5,0-0.9,0.4-0.9,0.9s0.4,0.9,0.9,0.9h2.3v3.3c0,1.3,1.1,2.4,2.4,2.4h4h19"/>
		<line class="st1" x1="43.6" y1="3.6" x2="43.6" y2="41.7"/>
		<line class="st3" x1="45.1" y1="30.1" x2="47.7" y2="30.1"/>
		<line class="st3" x1="45.1" y1="19.6" x2="47.7" y2="19.6"/>
	</g>
</g>
</svg>
