<?xml version="1.0" encoding="utf-8"?>
<!-- Generator: Adobe Illustrator 19.2.0, SVG Export Plug-In . SVG Version: 6.00 Build 0)  -->
<svg version="1.0" id="Layer_1" xmlns="http://www.w3.org/2000/svg" xmlns:xlink="http://www.w3.org/1999/xlink" x="0px" y="0px"
	 viewBox="0 0 50 50" enable-background="new 0 0 50 50" xml:space="preserve">
<path fill="#A6C1C2" d="M44.836,10.712l-1.23,15.553L7.937,39.245c-0.468-1.082-0.736-2.451-0.849-4.286L5.166,10.712
	C5.106,8.33,6.292,6.815,9.635,6.001l12.816-3.559C23.369,2.165,24.174,2.009,25.006,2c0.831,0.009,1.637,0.165,2.555,0.442
	l12.808,3.559C43.719,6.815,44.897,8.33,44.836,10.712z"/>
<path fill="#B9D7D9" d="M36.661,4.97L5.608,16.271l-0.442-5.559C5.106,8.33,6.292,6.815,9.635,6.001l12.816-3.559
	C23.369,2.165,24.174,2.009,25.006,2c0.831,0.009,1.637,0.165,2.555,0.442L36.661,4.97z"/>
<g>
	<path fill="#444444" d="M27.946,15.25c-0.056-0.157-0.204-0.262-0.371-0.262h-5.042c-0.167,0-0.316,0.105-0.371,0.263
		l-7.347,20.901c-0.09,0.256,0.1,0.524,0.371,0.524h4.088c0.173,0,0.326-0.113,0.376-0.279l1.481-4.862h7.874l1.481,4.862
		c0.05,0.166,0.203,0.279,0.376,0.279h4.087c0.217,0,0.393-0.175,0.393-0.393c0-0.045-0.008-0.089-0.022-0.131L27.946,15.25z
		 M22.284,27.692c1.536-4.974,2.467-8.091,2.792-9.352c0.079,0.355,0.209,0.837,0.391,1.448c0.182,0.611,0.997,3.245,2.445,7.904
		H22.284z"/>
	<path fill="#444444" d="M40.705,4.796L27.912,1.245c-1.107-0.33-2-0.482-2.924-0.493c-0.895,0.011-1.788,0.163-2.873,0.486
		L9.339,4.786c-3.728,0.904-5.5,2.852-5.417,6.021l1.92,24.232c0.352,5.669,2.254,7.546,6.19,9.426l10.805,4.398
		c0.74,0.243,1.472,0.365,2.195,0.365c0.748,0,1.487-0.131,2.218-0.396l6.361-2.592c0.64-0.26,0.946-0.989,0.686-1.629
		c-0.258-0.638-0.984-0.947-1.622-0.689c-0.002,0.001-0.005,0.002-0.007,0.003L26.354,46.5c-0.865,0.313-1.762,0.307-2.655,0.019
		L13.044,42.18c-3.115-1.489-4.413-2.566-4.708-7.316L6.418,10.676c-0.034-1.312,0.209-2.661,3.55-3.471L22.806,3.64
		c0.876-0.261,1.558-0.38,2.182-0.388c0.653,0.008,1.334,0.127,2.234,0.395l12.854,3.568c3.301,0.8,3.544,2.148,3.514,3.395
		l-1.232,15.556c-0.047,0.689,0.473,1.285,1.162,1.333c0.678,0.047,1.269-0.458,1.33-1.135l1.236-15.623
		C46.166,7.637,44.393,5.689,40.705,4.796z"/>
</g>
</svg>
