<svg xmlns="http://www.w3.org/2000/svg" id="Layer_1" x="0" y="0" version="1.1" viewBox="0 0 50 50" xml:space="preserve"><style>.st1{fill:none;stroke:#444;stroke-linecap:round;stroke-linejoin:round;stroke-miterlimit:10}.st2{fill:#444}</style><path fill="#ff6b6b" d="M43.3 26.9l1.1-7.3-.8-8.2c-.1 0-7.9-2.1-9.1-1.4l-.8-7.8c0 .2-10.2-.4-10.1-.2l-6.7 4.3c-.5 3.1-11.3 5.8-11.3 5.8L6.1 30l1.2 8.3 3 2.8c.1.3 3.5 2.3 3.8 2.2l29.5-10.7c.2-.1.4-.3.3-.5l-.6-5.2z"/><path d="M31.4 32.2h-3.8c-.4 0-.8-.3-.8-.8v-3.1c0-.4.3-.8.8-.8h1.1c.6 0 1-.6.7-1.1l-4-8.4c-.3-.6-1.2-.6-1.4 0l-3.5 8.4c-.2.5.2 1.1.7 1.1h1c.4 0 .8.3.8.8v3.1c0 .4-.3.8-.8.8h-3.7c-.3 0-.6.2-.7.5l-2.6 6.6c-.1.4 0 .8.3 1l8.8 4.9c.2.1.5.1.8 0l9.5-5.3c.4-.2.5-.6.3-1l-2.7-6.2c-.2-.4-.4-.5-.8-.5zm10.2-17.8L33 11.5c-.3 2.1-1.4 4-3.1 5.3l8.2 17.5c.3.7 1.4.5 1.5-.2L42 15.3c.1-.4-.1-.7-.4-.9z" class="st1"/><path d="M25 5.3c1.1 0 2.1.3 3.1 1 .2.1.2.3.2.7-.1.2-.2.4-.4.4-.1 0-.3 0-.4-.1l-.1-.1c-.5-.3-1.1-.7-1.6-.8-.3.1-.7.1-1 .1-1.9.1-3.3 1.4-3.7 3.1-.1.3-.1.7-.1 1 0 2 1.3 3.5 3.1 3.9.4.1.8.1 1.2.1 1.5 0 2.8-1 3.5-2.3.2-.3.3-.8.3-1.2v-1c0-.3.2-.5.4-.7.2 0 .5.2.5.5v1c0 .4-.1.8-.2 1.2-.4 1.3-1.2 2.3-2.4 2.9-.5.3-1.1.4-1.6.5-.4.1-.9.1-1.3.1-1.1-.1-2-.4-2.8-1-.8-.7-1.4-1.4-1.7-2.3-.1-.3-.2-.7-.3-1.1.1-.3.1-.8.1-1.1 0-.5.1-1.1.3-1.5.5-1.3 1.5-2.3 2.7-2.8.4-.2.9-.3 1.3-.4.2-.1.4-.1.9-.1z" class="st2"/><path d="M24.9 11.3c.1-.1.1-.1 0 0l5.5-5.5.1-.1c.1-.1.2-.1.4-.1.3 0 .5.2.5.4s0 .4-.1.5l-.1.1-5.8 5.8-.1.1c-.2.2-.5.2-.8 0l-.1-.1-2.2-2.2-.1-.1c-.2-.3-.2-.8.2-1 .2-.1.4 0 .5.1l.1.1c.8.7 1.3 1.4 2 2 0-.1 0 0 0 0z" class="st2"/><path d="M17.2 11.3l-9 3.2c-.3.1-.6.5-.5.8l2.5 22 9.5-21c-1.4-1.3-2.3-3-2.5-5z" class="st1"/><path fill="none" stroke="#444" stroke-linecap="round" stroke-linejoin="round" stroke-miterlimit="10" stroke-width="2.5" d="M30.2 46.1c-1.7 1-2.9 1.6-2.9 1.6s-2.4 1.2-4.8 0C20 46.5 9.9 41.1 9.9 41.1s-2.2-.2-2.8-4.4-2.2-22-2.2-22-.4-2.6 2.1-3.2l9.4-3.1s1.1-6.7 8-6.7c0 0 2.4-.2 4.2 1.5 1.7-2.1 3.9-1.8 5.1-.6 2.1 2 .5 4.4.5 4.4-.2.5.4 1.9.7 2.3 3.5 1.1 8.2 2.3 8.2 2.3s2.8.3 1.8 4.6c-1 4.2-2.4 20.4-2.4 20.4"/></svg>