<?xml version="1.0" encoding="utf-8"?>
<!-- Generator: Adobe Illustrator 24.0.0, SVG Export Plug-In . SVG Version: 6.00 Build 0)  -->
<svg version="1.1" id="Camada_1" xmlns="http://www.w3.org/2000/svg" xmlns:xlink="http://www.w3.org/1999/xlink" x="0px" y="0px"
	 viewBox="0 0 50 50" style="enable-background:new 0 0 50 50;" xml:space="preserve">
<style type="text/css">
	.st0{fill:#E589EF;}
	.st1{fill:#F799FF;}
	.st2{fill:#444444;}
</style>
<g>
	<path class="st0" d="M45.3,10.7l-1.2,15.6l-35.7,13C8,38.2,7.7,36.8,7.6,35L5.7,10.7C5.6,8.3,6.8,6.8,10.1,6l12.8-3.6
		C23.9,2.2,24.7,2,25.5,2c0.8,0,1.6,0.2,2.6,0.4L40.9,6C44.2,6.8,45.4,8.3,45.3,10.7z"/>
	<path class="st1" d="M37.2,5L6.1,16.3l-0.4-5.6C5.6,8.3,6.8,6.8,10.1,6l12.8-3.6C23.9,2.2,24.7,2,25.5,2c0.8,0,1.6,0.2,2.6,0.4
		L37.2,5z"/>
	<g>
		<path class="st2" d="M41.2,4.8L28.4,1.3c-1.1-0.3-2-0.5-2.9-0.5c-0.9,0-1.8,0.2-2.9,0.5L9.8,4.8c-3.7,0.9-5.5,2.9-5.4,6L6.3,35
			c0.4,5.7,2.3,7.5,6.2,9.4l10.8,4.4c0.7,0.2,1.5,0.4,2.2,0.4c0.7,0,1.5-0.1,2.2-0.4l6.4-2.6c0.6-0.3,0.9-1,0.7-1.6
			c-0.3-0.6-1-0.9-1.6-0.7c0,0,0,0,0,0l-6.3,2.6c-0.9,0.3-1.8,0.3-2.7,0l-10.7-4.3c-3.1-1.5-4.4-2.6-4.7-7.3L6.9,10.7
			c0-1.3,0.2-2.7,3.5-3.5l12.8-3.6c0.9-0.3,1.6-0.4,2.2-0.4c0.7,0,1.3,0.1,2.2,0.4l12.9,3.6c3.3,0.8,3.5,2.1,3.5,3.4l-1.2,15.6
			c0,0.7,0.5,1.3,1.2,1.3c0.7,0,1.3-0.5,1.3-1.1l1.2-15.6C46.7,7.6,44.9,5.7,41.2,4.8z"/>
	</g>
	<g>
		<g>
			<g>
				<path class="st2" d="M21.3,11.5c0.5,0,1.1,0.1,1.7,0.6c0.3,0.4,0.7,0.7,1.3,0.7c0,0,0,0,0,0c0.1,0,0.2,0,0.4,0
					c0.8,0,1.7,0.1,2.5,0.2c3.7,0.8,6.6,3.1,7.7,5c0.5,0.8,0.5,1.3,0.5,1.5c0,0,0,0,0,0c-0.2,0.1-0.9,0.4-2.2,0.4
					c-2.4,0-5.3-0.8-7.5-2.1c-0.1-0.1-0.2-0.1-0.3-0.1c0,0-0.1,0-0.1,0c-0.1,0-0.2,0-0.4,0c-0.1,0-0.3,0-0.4,0.1
					c-4.4,1.2-7.2,4.3-7.5,8.2c-0.3,4,2.3,7.9,6.3,9.7c0.2,0.1,0.4,0.1,0.6,0.1c0.5,0,1-0.2,1.3-0.7c0,0,0.1-0.1,0.1-0.1
					c0.2,0.1,0.4,0.2,0.7,0.3c1,0.5,1.8,0.7,2.7,0.9c0,0,0.1,0,0.1,0c0.5,0.1,1.1,0.2,1.6,0.2c0,0,0,0,0,0c0,0,0,0,0,0
					c0.1,0,0.2,0,0.3,0c0.5,0,0.9,0,1.4-0.1c-1,0.4-2,0.7-3,0.8c-0.6,0.1-1.2,0.1-1.8,0.1c-5.4,0-10.6-3.2-12.7-7.7
					c-0.1-0.2-0.2-0.5-0.2-0.7c0-0.1-0.1-0.2-0.1-0.3c-0.1-0.2-0.2-0.5-0.3-0.7c-0.1-0.2-0.2-0.3-0.3-0.5c-0.1-0.1-0.2-0.2-0.3-0.3
					c-0.3-0.2-0.8-0.7-1.1-1.4c0,0,0-0.1,0.1-0.1c0.3-0.4,0.8-1.1,0.7-2.1c0-0.7-0.2-1.3-0.4-1.9c-0.2-0.5-0.3-0.9-0.2-1.2
					c0.1-0.2,0.5-0.6,0.8-0.8c0.4-0.4,0.9-0.8,1.2-1.2c0.5-0.6,0.5-1.4,0.5-2.1c0-0.3,0-1.1,0.1-1.2c0.2-0.2,0.4-0.2,0.9-0.3
					c0.6-0.1,1.4-0.2,2.5-0.8c0.1,0,0.1-0.1,0.1-0.1c0.8-0.6,1.3-1.2,1.7-1.6c0.4-0.4,0.5-0.6,0.8-0.7
					C20.9,11.5,21.1,11.5,21.3,11.5C21.3,11.5,21.3,11.5,21.3,11.5 M35.6,34c-0.2,0.2-0.5,0.4-0.7,0.6c0-0.2,0-0.3,0-0.5
					C35.1,34.1,35.3,34.1,35.6,34 M21.3,10c-0.3,0-0.6,0-0.8,0.1c-1.4,0.5-1.4,1.4-3,2.6c-1.6,0.9-2.4,0.2-3.6,1.2
					c-1.2,0.9-0.4,3.1-0.8,3.5c-0.5,0.8-2,1.6-2.3,2.6c-0.2,1.4,0.6,2.3,0.6,3.5c0.1,1-1,1.5-0.8,2.3c0.5,1.3,1.3,2.1,1.7,2.4
					c0,0,0.1,0.1,0.1,0.1c0.1,0.3,0.3,0.6,0.4,0.9c0.1,0.3,0.2,0.6,0.3,0.9c2.2,4.8,7.8,8.6,14.1,8.6c0.7,0,1.3,0,2-0.1
					c3.5-0.4,8.6-2.8,10.8-8.5c-1.5,1.3-4.2,2.5-5.3,2.6c4-2,6.2-5.4,5.6-10.1c-0.8,2-1.9,3.5-3.3,4.6c2.9-4.6,2.4-6.9,0.3-9.5
					c1.5,4.3-0.5,9-4.8,12.3c0.3,0,0.5,0,0.8,0c1.5,0,2.9-0.5,4.2-1.5c-2.3,2.6-5.3,3.9-8.7,4.3c1.4,1.2,2.7,1.8,4,1.8
					c0.2,0,0.5,0,0.7-0.1c-1,0.3-1.9,0.4-2.8,0.4c-0.1,0-0.2,0-0.3,0v0c0,0,0,0,0,0c0,0,0,0,0,0c-0.5,0-0.9-0.1-1.4-0.2c0,0,0,0,0,0
					c-0.8-0.2-1.6-0.4-2.5-0.9c-1.4-0.7-2.8-1.8-4.4-3.2c-0.1-0.1-0.2-0.2-0.3-0.3c-0.1-0.1-0.1-0.1-0.2-0.2c-0.2,1.1,1,2.9,2.2,4
					c-7.1-3.1-7.7-12.7,0.9-15.1c0,0,0,0,0,0c2.8,1.6,5.9,2.3,8.3,2.3c2.1,0,3.5-0.5,3.7-1.4c0.7-2.3-3.3-7.2-9.3-8.4
					c-1-0.2-1.9-0.3-2.8-0.3c-0.1,0-0.3,0-0.4,0c0,0,0.1,0,0.1,0C23.4,10.3,22.1,10,21.3,10L21.3,10z"/>
			</g>
		</g>
		<circle class="st2" cx="28.4" cy="16.5" r="0.7"/>
	</g>
	<path class="st2" d="M36,33.5c0,0-2,0-2,0.3s0,1.8,0.1,1.8c0.2,0,2.4-1.6,2.4-1.6L36,33.5z"/>
</g>
</svg>
