<?xml version="1.0" encoding="utf-8"?>
<!-- Generator: Adobe Illustrator 27.7.0, SVG Export Plug-In . SVG Version: 6.00 Build 0)  -->
<svg version="1.1" id="Camada_3" xmlns="http://www.w3.org/2000/svg" xmlns:xlink="http://www.w3.org/1999/xlink" x="0px" y="0px"
	 viewBox="0 0 50 50" style="enable-background:new 0 0 50 50;" xml:space="preserve">
<style type="text/css">
	.st0{fill:#BF94F7;}
	.st1{fill:#A475EF;}
	.st2{fill:none;stroke:#444444;stroke-linecap:round;stroke-linejoin:round;stroke-miterlimit:10;}
	.st3{fill:none;stroke:#444444;stroke-width:2.5;stroke-linecap:round;stroke-linejoin:round;stroke-miterlimit:10;}
	.st4{fill:#444444;}
	.st5{fill:none;stroke:#444444;stroke-width:0.5;stroke-linecap:round;stroke-linejoin:round;stroke-miterlimit:10;}
</style>
<g>
	<g>
		<path class="st0" d="M44.6,4.7L6.8,5.2c-2.9,0-5.3,2.4-5.3,5.3v13.7l47-16.7L44.6,4.7z"/>
		<path class="st1" d="M1.5,24.2L2,32.7c0.4,6.3,9.7,6.2,16,6.2l-0.4,5L33,38.4l15.6-5.5V7.5L1.5,24.2z"/>
	</g>
	<g>
		<path class="st2" d="M32.6,37.8L7,37.7c-2.6,0-5.5-2-5.5-4.6"/>
		<path class="st2" d="M31.7,43.8H17.8c-0.5,0-0.9-0.6-0.6-1l2.4-4.8h10.3l2.5,4.8C32.5,43.3,32.2,43.8,31.7,43.8z"/>
		<line class="st2" x1="2.6" y1="10.7" x2="46.9" y2="10.7"/>
	</g>
	<path class="st3" d="M48.4,33.3V10.9c0-3.4-2.8-6.2-6.2-6.2H7.6c-3.4,0-6.2,2.8-6.2,6.2v21.4c0,3.4,2.8,6.2,6.2,6.2h10.6L16.4,43
		c-0.4,0.9,0.3,1.8,1.2,1.9L32,45c1,0,1.6-1,1.2-1.9l-1.9-4.6h5.8"/>
	<circle class="st4" cx="35" cy="8.1" r="1.1"/>
	<circle class="st4" cx="42.5" cy="8.1" r="1.1"/>
	<circle class="st4" cx="38.8" cy="8.1" r="1.1"/>
	<g>
		<g>
			<path class="st5" d="M41.7,23.6H29.6c-0.4,0-0.8-0.3-0.8-0.8v-7.1c0-0.4,0.3-0.8,0.8-0.8h12.1c0.4,0,0.8,0.3,0.8,0.8v7.1
				C42.5,23.2,42.2,23.6,41.7,23.6z"/>
			<line class="st5" x1="29.2" y1="15.1" x2="42.2" y2="23.2"/>
			<line class="st5" x1="42.3" y1="15.1" x2="29" y2="23.3"/>
		</g>
		<g>
			<line class="st5" x1="19.8" y1="15.4" x2="25.8" y2="15.4"/>
			<line class="st5" x1="6.8" y1="19.5" x2="26" y2="19.5"/>
			<line class="st5" x1="6.8" y1="23.2" x2="26" y2="23.2"/>
		</g>
	</g>
	<path class="st2" d="M41.6,32.3"/>
	<path class="st4" d="M7.3,33.4l34.8,0c0.5,0,0.8-0.4,0.6-0.8c-1.2-4-11.2-11.5-21.8-3.5c-0.4,0.3-1,0.4-1.5,0.2
		c-2.1-0.7-8.3-2.1-12.6,3.1C6.5,32.9,6.7,33.4,7.3,33.4z"/>
</g>
</svg>
