<svg xmlns="http://www.w3.org/2000/svg" id="Layer_1" x="0" y="0" version="1.1" viewBox="0 0 50 50" xml:space="preserve"><style>.st3{fill:none;stroke:#444;stroke-linecap:round;stroke-linejoin:round;stroke-miterlimit:10}</style><path fill="#35d3c3" d="M28.7 19.4l7.8 2.5-6.7 4.7.1 8.2-6.6-4.9-7.8 2.6 2.7-7.7-4.9-6.6 8.2.1 4.7-6.7z"/><path fill="#7df4eb" d="M11.7 4.6l2 7.6-12.5 5.2 3.5 12.3c-3.4 0 18.7-6.1 9 6.5L8.9 36l-2 3.2 1.6 9.6c.7.3 11-2.9 10.6-3.5-4.8-9.2 8.1-18.1 12.8-5.7l8.8-1.8c.2-.1-5.3-7.7-1.7-8 6.2-.5 11.4-3 8.7-7.7-2.3-4-10.1.6-10.5.3-.5-.4-3.8-11.9-4.3-12.3-2.3-1.6-7.7.4-11.1.4-.7-6.2-2.5-7.9-4.3-8.9-.4-.4-5.7 2.6-5.8 3z"/><path fill="none" stroke="#444" stroke-linecap="round" stroke-linejoin="round" stroke-miterlimit="10" stroke-width="2.5" d="M39.8 38l-1.1-5.6c-.4-1.8.3-3.2 1.9-3.6.5-.1 1-.1 1.6 0l1.1.2c.5.1 1.1.1 1.6-.1 1.3-.3 2.5-1.3 3-2.5l.1-.3c.7-1.7.1-4.2-1.3-5.4l-.2-.2c-1-.8-2.5-1.1-3.8-.8-.6.1-1.1.4-1.5.7l-.9.7c-.4.3-.9.6-1.4.7-1.6.4-2.9-.6-3.3-2.3L33 8.9l-8.3 2c-1.2.3-2.2.1-2.9-.6-.7-.7-1-1.7-.7-2.8l.2-1.1c.3-1.8-.8-3.9-2.5-4.6l-.3-.1c-.8-.3-1.9-.4-2.9-.1-1 .3-1.9.8-2.5 1.5l-.2.2c-1.2 1.4-1.3 3.8-.1 5.3l.7.9c.7.9 1 1.9.6 2.9-.3.9-1.1 1.6-2.3 1.8L1.1 16.6l2.6 10.7c.5 1.8 1.8 2.7 3.3 2.3.5-.1.9-.3 1.4-.7l.9-.7c.4-.3.9-.6 1.5-.7 1.3-.3 2.8 0 3.8.8l.2.2c1.4 1.2 2 3.7 1.3 5.4l-.1.3c-.5 1.2-1.7 2.1-3 2.5-.6.1-1.1.2-1.6.1l-1.1-.2c-.6-.1-1.1-.1-1.6 0-1.6.4-2.3 1.8-1.9 3.6l2 8.2 10.7-2.6c.2-.1.3-.1.4-.2 0-.1-.1-.2-.2-.4l-.7-.9c-1.9-2.4-1.8-6.2.2-8.6l.2-.2c.9-1.1 2.3-1.9 3.9-2.3 1.6-.4 3.2-.3 4.5.3l.3.1c2.9 1.2 4.7 4.5 4.1 7.5l-.2 1.2v.4h.4l2-.5"/><path d="M37.5 38.5L25.5 11l-4.2-1h-2.4l-8.6 17.6s6.1 1 6.1 3.2 2.2 6.3-7.5 6.3c0 0-3.2 1.5-2.4 4.2h7.2l1.6-6.6h5.6s.8-2.8 4.2-1.8c3.4 1 3.8 1.8 3.8 1.8" class="st3"/><path d="M21.8 20.1L18 30h8.5z" class="st3"/><path fill="none" stroke="#444" stroke-linecap="round" stroke-linejoin="round" stroke-miterlimit="10" stroke-width=".5" d="M12.7 14.1L5.6 28.2m5.1-14.4L3.8 27.1m40.1-7l-5.3 9.8M46 20l-5.3 9.8"/></svg>