<svg xmlns="http://www.w3.org/2000/svg" version="1" viewBox="0 0 50 50"><path fill="#71BAC0" d="M44.836 10.712l-1.23 15.553-35.669 12.98c-.468-1.082-.736-2.451-.849-4.286L5.166 10.712c-.06-2.382 1.126-3.897 4.469-4.711l12.816-3.559c.918-.277 1.723-.433 2.555-.442.831.009 1.637.165 2.555.442l12.808 3.559c3.35.814 4.528 2.329 4.467 4.711z"/><path fill="#7ED0D6" d="M36.661 4.97L5.608 16.271l-.442-5.559c-.06-2.382 1.126-3.897 4.469-4.711l12.816-3.559c.918-.277 1.723-.433 2.555-.442.831.009 1.637.165 2.555.442l9.1 2.528z"/><g fill="#444"><path d="M27.946 15.25a.393.393 0 0 0-.371-.262h-5.042a.392.392 0 0 0-.371.263l-7.347 20.901c-.09.256.1.524.371.524h4.088a.392.392 0 0 0 .376-.279l1.481-4.862h7.874l1.481 4.862c.05.166.203.279.376.279h4.087a.393.393 0 0 0 .371-.524L27.946 15.25zm-5.662 12.442c1.536-4.974 2.467-8.091 2.792-9.352.079.355.209.837.391 1.448.182.611.997 3.245 2.445 7.904h-5.628z"/><path d="M40.705 4.796L27.912 1.245c-1.107-.33-2-.482-2.924-.493-.895.011-1.788.163-2.873.486L9.339 4.786c-3.728.904-5.5 2.852-5.417 6.021l1.92 24.232c.352 5.669 2.254 7.546 6.19 9.426l10.805 4.398c.74.243 1.472.365 2.195.365.748 0 1.487-.131 2.218-.396l6.361-2.592c.64-.26.946-.989.686-1.629a1.246 1.246 0 0 0-1.629-.686L26.354 46.5c-.865.313-1.762.307-2.655.019L13.044 42.18c-3.115-1.489-4.413-2.566-4.708-7.316L6.418 10.676c-.034-1.312.209-2.661 3.55-3.471L22.806 3.64c.876-.261 1.558-.38 2.182-.388.653.008 1.334.127 2.234.395l12.854 3.568c3.301.8 3.544 2.148 3.514 3.395l-1.232 15.556a1.25 1.25 0 0 0 2.492.198l1.236-15.623c.08-3.104-1.693-5.052-5.381-5.945z"/></g></svg>