<svg xmlns="http://www.w3.org/2000/svg" viewBox="0 0 50 50"><path fill="#35d3c3" d="M30.1 20.7l7.9 2.4-6.7 4.8.1 8.2-6.6-4.9-7.8 2.6 2.7-7.8-5-6.5 8.3.1 4.7-6.7z"/><path fill="#7df4eb" d="M41.5 30.4l.1-7 .9-6.8h-.4l.1-.9c.1-.6 0-1.3-.4-1.8l.2-3.3c-.2-.2.2-2-.1-2.2l.2-2.8c-.1.1.2-2.6.1-2.8l-2.7-.6c-.5-.7-5.5.2-6.3.2l-14.8-.1c-.6 0-2.3 1.5-2.8 1.9L11 8c-.5.5-3.3 2.3-3.3 2.9L8 28.6c0 .2 0 .5.1.7 0 .2.1.3.2.5l-.7 2.5-.1 1.4.4 13.9v.2c.2.2.4.3.7.2l33.2-12c.2-.1.3-.3.3-.5l-.6-5.1z"/><g fill="none" stroke="#444" stroke-linecap="round" stroke-linejoin="round" stroke-miterlimit="10"><path stroke-width="2.5" d="M35.4 48H7.7V11l10.4-8.8H42v34"/><path d="M7.8 11.9h10.6V2.3"/></g><path fill="none" stroke="#444" stroke-linecap="round" stroke-linejoin="round" stroke-miterlimit="10" stroke-width=".5" d="M33.7 35.7l-4-2.9v4.9c0 .1.1.2.2.1l1.1-1.1 1.1 1.9c.1.1.3.2.5.1l.5-.3c.2-.1.2-.3.2-.5l-1-1.8h1.4c0 .1.1-.3 0-.4zm-17.4-2.6s2.9-4.3 3.1-1.7c.2 2.6 1.5 2.6 2.4.9 1-1.7 2.2-2.2 2.3-.3.2 2.2 1.2 1.9 2.2 1"/><path fill="none" stroke="#444" stroke-linecap="square" stroke-linejoin="round" stroke-miterlimit="10" stroke-width=".5" d="M13.9 22.2h6.3v4.9h-6.3zm7.8 0H28v4.9h-6.3zm7.8 0h6.3v4.9h-6.3zm-15.6-6.4h22v4.9h-22zm15.7 18.8H16.5c-1.5 0-2.7-1.2-2.7-2.7 0-1.5 1.2-2.7 2.7-2.7h16.7c1.5 0 2.7 1.2 2.7 2.7 0 1.5-1.2 2.7-2.7 2.7h-.6"/><path fill="#444" d="M32.4 34.4H32l.3.3z"/></svg>