<svg xmlns="http://www.w3.org/2000/svg" id="Camada_1" data-name="Camada 1" version="1.1" viewBox="0 0 50 50"><defs><style>.cls-6{fill:none;stroke:#444;stroke-miterlimit:10}</style></defs><path fill="#04ad49" stroke-width="0" d="M25 23.3l7.8 2.4-6.7 4.8.1 8.2-6.6-4.9-7.7 2.6 2.6-7.8L9.6 22l8.2.1 4.7-6.7 2.5 7.9z"/><path fill="#22dd6d" stroke-width="0" d="M38.5 13.1L26.3 12l-9.8.7c-1.3 1.6-.4-3.6-1.6-5.2l-6-4.3c-.8 0-7.3 3.7-7.3 4.4v8.8c0 1 1 1.6 1.9 1.3l-1.9.7.4 22.8 4.1 3.2 11.1.6L48 34l.6-20.1-10.1-.8z"/><path fill="none" stroke="#444" stroke-linecap="round" stroke-linejoin="round" d="M2.8 10.5c0-3.3 2.7-6 6-6s6 2.7 6 6m0 27c0-3.7-3.4-6.7-7.3-5.9-2.3.5-4.1 2.3-4.6 4.6-.8 3.9 2.1 7.3 5.9 7.3l29.7 1m-35.7-34v27m12-27v27"/><path fill="none" stroke="#444" stroke-linecap="round" stroke-linejoin="round" stroke-width=".5" d="M2.8 32.2s1.5-4.9 6-4.3m-6 .9s1.5-4.9 6-4.3m-6 .9s1.5-4.9 6-4.3m-6 .6s1.5-4.9 6-4.3m-6 1.3s1.5-4.9 6-4.3m-6 .5s1.5-4.9 6-4.3m-6 1.3s1.5-4.9 6-4.3"/><path fill="none" stroke="#444" stroke-linecap="round" stroke-linejoin="round" stroke-width="2.5" d="M38.5 44.5H10.9c-3.7 0-8.8-1-8.8-6.5V10.2c0-3.7 2.8-6.6 6.5-6.6s6.6.7 7.3 6.7v2.2h10.5c0 .1 12.2.4 12.2.4m10.1 24.2V15.5c0-1.3-1.1-2.4-2.4-2.4h-7.7"/><rect width="15.7" height="15.8" x="21.4" y="23.8" class="cls-6" rx="1.6" ry="1.6"/><path d="M24.6 23.6v-2.3c0-2.6 2.1-4.8 4.6-4.8s4.6 2.1 4.6 4.8v2.6" class="cls-6"/><path fill="#444" stroke-width="0" d="M31.4 30.8c0-1.2-1-2.2-2.2-2.2s-2.2 1-2.2 2.2.4 1.4 1 1.8l-.6 2.8h3.5l-.6-2.8c.6-.4 1.1-1.1 1.1-1.9z"/></svg>