<svg xmlns="http://www.w3.org/2000/svg" version="1.0" viewBox="0 0 300 300"><path fill="#008DD3" d="M290.323 154.277c.31 80.167-64.432 145.412-144.6 145.722-45.135.174-85.538-20.264-112.277-52.48C15.32 225.706 3.465 198.503.649 168.657a146.279 146.279 0 01-.648-13.258C-.309 75.232 64.433 9.987 144.601 9.677c54.28-.213 101.719 29.41 126.793 73.442a143.873 143.873 0 0113.141 31.006 143.929 143.929 0 014.645 22.413s.009.01 0 .01a144.846 144.846 0 011.143 17.729z"/><path fill="#8E9A9B" d="M120.152 251.286L61.03 89.903h165.467l59.123 161.383h-77.868l-3.478-9.593 2.276-9.372h-2.957l-4.124 18.965h-79.317"/><path fill="#C4CBCC" d="M120.152 251.286l14.378-59.232L75.406 30.883 61.03 89.903z"/><path fill="#AEB9BA" d="M147.048 173.068l-2.313 9.488h-3.951L97.946 65.782l3.888-15.965 45.214 123.251"/><path fill="#8F9D9F" d="M147.048 173.069l-13.439 59.251 126.529-.162 13.438-59.251z"/><path fill="#D6D6D6" d="M300 191.846l-77.875.091-3.475-9.477 68.136-.091-52.171-142.204-60.348.07 3.485 9.488 50.607-.07 20.874 56.888-6.946.011h-4.382l-8.143.011 7.327 19.967 2 5.451.345.931v.011l7.717 21.049-38.933.046-3.483-9.488 29.213-.035L209.6 78.143l-21.416.024 3.475 9.477 11.684-.013 17.39 47.398-41.784.056-6.258 9.49 22.314-.023 3.484 9.488-38.933.047-13.915-37.932-9.73.013 17.389 47.407 91.552-.115 15.516-.023-16.551-45.109-.84-2.299h4.589l5.141-.012 20.875 56.886-126.538.16-45.212-123.248 56.449-.069 3.485 9.477-46.719.058 17.389 47.41 19.461-.024 11.456 31.215 6.256-9.488-14.928-40.705 17.517-.022 3.472 9.488-7.787.011 10.432 28.431 29.204-.034-10.432-28.442-11.687.023-6.946-18.967-36.988.046 6.959 18.967-9.73.011-10.432-28.444 87.593-.113 10.431 28.442 9.731-.011-13.904-37.932-50.618.08v-.011l-6.959-18.954-75.921.091 52.172 142.215 68.134-.091 3.472 9.477-77.864.104L75.401 30.885l165.472-.221L300 191.846"/><path fill="#AEB9BA" d="M207.752 251.286l14.377-59.232 77.867-.1-12.929 59.332z"/><path fill="#A0AAAB" d="M207.752 251.286l-3.477-9.593 14.376-59.232 3.478 9.593z"/><path fill="#AEB9BA" d="M120.152 251.286l14.378-59.232 77.867-.1-12.929 59.332zM230.729 56.128l3.889-15.965 52.168 142.211H271.43l2.146-9.468-20.867-56.886-5.79.008 2.312-9.487-18.502-50.413"/><path fill="#8F9D9F" d="M234.618 40.163h-60.347l3.478 9.556h50.614l2.366 6.409z"/><path fill="#AEB9BA" d="M244.852 163.46l2.299-9.488-7.717-21.049v-.011l-.345-.931 3.888-15.952.84 2.299 16.551 45.109-15.516.023"/><path fill="#8F9D9F" d="M249.231 106.541h-19.464l9.324 25.442 3.884-15.95 3.944-.005 2.312-9.487"/><path fill="#8F9D9F" d="M249.233 106.541l-1.632 6.692-.68 2.796h-3.944l-3.888 15.952-2-5.464-7.327-19.976h19.471"/><path fill="#819293" d="M208.218 154.023l-2.31 9.487 38.937-.05 2.312-9.488zm-9.731 0l-2.312 9.487h-38.929l2.311-9.487z"/><path fill="#A0AAAB" d="M204.739 144.453l-4.644 19.065 5.813-.008 2.31-9.487z"/><path fill="#A8B2B3" d="M141.756 132.153l3.889-15.966 13.912 37.836-2.311 9.487-3.943.067z"/><path fill="#819293" d="M145.645 116.187l-3.889 15.966-5.844-15.982z"/><path fill="#8F9D9F" d="M164.538 40.253l-3.889 15.965-2.365-6.473-56.45.073-3.889 15.965-9.329-25.432z"/><path fill="#A0AAAB" d="M171.493 59.22l-2.311 9.488-9.735.012 2.314-9.5-1.112-3.002 3.889-15.965z"/><path fill="#819293" d="M124.368 84.685l3.889-15.965h31.19l2.314-9.5-46.717.064z"/><path fill="#A8B2B3" d="M138.689 97.199l-2.31 9.486-3.944.007-8.067-22.007 3.889-15.965 10.432 28.479"/><path fill="#959FA1" d="M178.473 125.601l6.933-28.462-6.954-18.959-3.889 15.965 1.111 2.994-3.111 12.771z"/><path fill="#708080" d="M172.563 109.91l3.111-12.771-7.787.023zm17.588 15.691l6.933-28.462h-11.678l-6.933 28.462z"/><path fill="#798889" d="M154.677 87.694l-4.627 18.998h-3.943l2.315-9.506-6.955-18.959 36.985-.047-3.889 15.965-2.367-6.473z"/><path fill="#819293" d="M138.69 97.199l-2.312 9.487 9.729.006 2.315-9.506z"/><path fill="#9EA8A9" d="M220.734 135.03l-2.311 9.487h15.521l-24.342-66.378-3.889 15.965z"/><path fill="#819293" d="M218.219 75.113l-2.363-6.465-46.674.06 2.314-9.488 50.612-.073-3.889 15.966"/><path fill="#A8B2B3" d="M218.219 75.112l8.07 21.974h9.732l-13.913-37.94z"/><path fill="#798889" d="M209.602 78.139l-21.418.028 3.477 9.48 11.686-.015 2.366 6.472z"/><path fill="#9EA8A9" d="M154.677 87.694l-4.627 18.998 1.849-.026 11.453 31.22 6.255-9.492z"/><path fill="#828D8E" d="M197.084 97.139l10.431 28.424-17.364.038z"/><path fill="#8D9596" d="M137.767 147.774l-.982 23.879 2.171 5.917 3.983-15.697-5.172-14.099"/><path fill="#AEAEAE" d="M136.785 171.653v.001l2.17 5.919.001-.004-2.171-5.916m.982-23.884v.005l5.172 14.099v-.001s.809.385 1.743.385c1.277 0 2.789-.72 2.789-4.123.001-5.896-9.704-10.365-9.704-10.365m109.799-31.74h-1.961l-2.626.003.838 2.296a4.34 4.34 0 001.108.157c1.034.001 2.222-.467 2.641-2.456m-8.477 15.952l.345.942v-.011l-.345-.931"/><path fill="#8D9596" d="M242.978 116.033h-.002l-1.134 4.655-2.751 11.295-.001-.004-.001.002.345.931v.011-.011l3.975-15.7.408 1.116-.839-2.295"/><path fill="#748080" d="M241.842 120.688l-2.752 11.292.001.004 2.751-11.296m3.763-4.659h-2.628l-.001.003h.002l2.627-.003"/><path fill="#748080" d="M246.921 116.029h-3.944l-3.888 15.952.001-.002 2.752-11.291 1.134-4.655.001-.004h3.944"/><path fill="#748080" d="M242.276 106.541h-4.371l-.816 19.976 2 5.464 3.888-15.952h3.944l.68-2.796c-.563-2.702-3.026-5.049-5.325-6.692"/><path fill="#FF6780" d="M129.766 152.526l.199-.817a5.745 5.745 0 016.949-4.226 5.75 5.75 0 014.226 6.949l-3.888 15.965a5.784 5.784 0 01-.467 1.258l-7.019-19.129z"/><path fill="#FFC900" d="M230.511 108.595l.165-.679a5.745 5.745 0 016.949-4.227 5.751 5.751 0 014.227 6.949l-4.229 17.346-7.112-19.389z"/><path fill="#00B0ED" d="M186.951 68.72l1.864-7.644a5.745 5.745 0 016.949-4.228 5.751 5.751 0 014.226 6.95l-1.186 4.871-11.853.051"/><path fill="#AEAEAE" d="M198.804 68.67h-.035l-11.819.051s8.109 4.948 17.495 4.948c11.003-.001-5.582-4.982-5.641-4.999"/><path fill="#687778" d="M198.804 68.669l-.035.001h.035v-.001"/><path fill="#008DC0" d="M198.804 68.669l-11.853.051 11.818-.05.035-.001"/><path fill="#CECECE" d="M134.747 86.437l1.165 3.181v-.001h.001l-1.166-3.18"/><path fill="#AEAEAE" d="M129.528 72.19l5.219 14.247 1.166 3.18c.022.011 1.154.575 2.459.575 1.239 0 2.635-.51 3.383-2.487 1.802-5.575-12.093-15.42-12.227-15.515"/><path fill="#878F90" d="M129.527 72.189l-.912 23.717 3.355 9.391 3.942-15.679-1.165-3.181-5.219-14.247-.001-.001"/><path fill="#00C649" d="M123.849 83.276l1.715-6.931a5.751 5.751 0 1111.175 2.722l-5.816 23.501-7.074-19.292z"/></svg>