<?xml version="1.0" encoding="UTF-8"?>
<svg id="Layer_1" xmlns="http://www.w3.org/2000/svg" version="1.1" viewBox="0 0 50 50">
  <!-- Generator: Adobe Illustrator 29.4.0, SVG Export Plug-In . SVG Version: 2.1.0 Build 152)  -->
  <defs>
    <style>
      .st0 {
        stroke-width: .5px;
      }

      .st0, .st1, .st2 {
        fill: none;
        stroke: #444;
      }

      .st0, .st2 {
        stroke-miterlimit: 10;
      }

      .st1 {
        stroke-linejoin: round;
        stroke-width: 2.5px;
      }

      .st1, .st2 {
        stroke-linecap: round;
      }

      .st3 {
        fill: #7df4eb;
      }
    </style>
  </defs>
  <path class="st3" d="M45.1,12.6l-5.6-3.6-7.7-4.4-6-2.8c-3.2,0-21.5,8.9-21.5,12.1l-.5,7.8.5,15.1,11.5,7.6,31-11c.7-.4-.8-18.7-1.8-20.7Z"/>
  <path class="st1" d="M30.4,46.6l-2.2,1.3c-1.7,1-3.8,1-5.5,0l-15.6-9c-1.7-1-2.7-2.8-2.7-4.7v-18c0-2,1-3.8,2.7-4.7L22.7,2.5c1.7-1,3.8-1,5.5,0l15.6,9c1.7,1,2.7,2.8,2.7,4.7v18c0,2-1,3.8-2.7,4.7l-2.5,1.4"/>
  <path class="st2" d="M7.1,39.1c4.3,0,11.2,0,13.3,0s.5.2.5.5v2.4c0,.5.5.7.9.4l10.7-9.1c.3-.2.3-.6,0-.8l-10.7-9.4c-.4-.3-.9,0-.9.4v2.4c0,.3-.2.5-.5.5H4.7"/>
  <path class="st0" d="M45.6,14.9s-4.6,0-6.7,0-.5-.2-.5-.5v-2.4c0-.5-.5-.7-.9-.4l-10.7,9c-.3.2-.3.6,0,.8l10.7,9.4c.4.3.9,0,.9-.4v-2.3c0-.3.2-.5.5-.5h7.6"/>
</svg>