<?xml version="1.0" encoding="UTF-8"?>
<svg id="Layer_1" xmlns="http://www.w3.org/2000/svg" version="1.1" xmlns:xlink="http://www.w3.org/1999/xlink" viewBox="0 0 50 50">
  <!-- Generator: Adobe Illustrator 29.2.1, SVG Export Plug-In . SVG Version: 2.1.0 Build 116)  -->
  <defs>
    <style>
      .st0, .st1, .st2, .st3, .st4 {
        fill: none;
        stroke: #444;
      }

      .st0, .st3 {
        stroke-miterlimit: 10;
      }

      .st0, .st4 {
        stroke-width: .5px;
      }

      .st5 {
        fill: #ff6b6b;
      }

      .st1, .st2, .st4 {
        stroke-linecap: round;
        stroke-linejoin: round;
      }

      .st2 {
        stroke-width: 2.5px;
      }

      .st6 {
        fill: #444;
      }
    </style>
  </defs>
  <path class="st5" d="M45.7,14.6l1-5L30.3,3.7l-5.8-2.7c-3.1,0-11,4.4-21,8.5l.4,10.5,3.3,17.7,7.8,4.5,29.9-10.6c.7-.4,1.9-15,.9-16.9Z"/>
  <g>
    <circle class="st3" cx="14.6" cy="15" r="3.5"/>
    <circle class="st3" cx="23.6" cy="23.8" r="3"/>
    <circle class="st3" cx="34.4" cy="23.8" r="3"/>
    <circle class="st3" cx="23.6" cy="34" r="3"/>
    <circle class="st3" cx="34.4" cy="34" r="3"/>
    <line class="st0" x1="26.9" y1="23.8" x2="31.3" y2="23.8"/>
    <line class="st4" x1="31.3" y1="34.4" x2="29.1" y2="34.4"/>
    <path class="st0" d="M14.6,18.5s.4,5.6,5.9,5.6"/>
    <path class="st0" d="M20.5,34.4"/>
    <path class="st0" d="M13.9,18.5l.2,11s-.3,4.8,6.4,4.9"/>
    <polyline class="st1" points="21.7 23.8 22.6 24.9 25.4 23"/>
    <polyline class="st1" points="32.9 23.8 33.8 24.9 36.6 23"/>
    <circle class="st6" cx="22.7" cy="34" r=".4"/>
    <circle class="st6" cx="24.4" cy="34" r=".4"/>
  </g>
  <polyline class="st2" points="29.5 46.1 25.1 48.6 6.6 38.1 3.2 9.5 25.1 1.4 46.8 9.5 44 34.8"/>
</svg>