<?xml version="1.0" encoding="utf-8"?>
<!-- Generator: Adobe Illustrator 22.0.1, SVG Export Plug-In . SVG Version: 6.00 Build 0)  -->
<svg version="1.0" id="Layer_1" xmlns="http://www.w3.org/2000/svg" xmlns:xlink="http://www.w3.org/1999/xlink" x="0px" y="0px"
	 viewBox="0 0 300 300" enable-background="new 0 0 300 300" xml:space="preserve">
<g>
	<g>
		<path fill="#008DD3" d="M290.323,154.277c0.31,80.167-64.432,145.412-144.6,145.722c-45.135,0.174-85.538-20.264-112.277-52.48
			C15.32,225.706,3.465,198.503,0.649,168.657c-0.416-4.365-0.629-8.787-0.648-13.258C-0.309,75.232,64.433,9.987,144.601,9.677
			c54.28-0.213,101.719,29.41,126.793,73.442c5.526,9.697,9.958,20.081,13.141,31.006c2.12,7.249,3.678,14.739,4.645,22.413
			c0,0,0.009,0.01,0,0.01C289.916,142.354,290.303,148.277,290.323,154.277z"/>
	</g>
	<g>
		<g>
			<polygon fill="#8E9A9B" points="120.154,251.284 61.03,89.897 226.499,89.897 285.623,251.284 207.755,251.284 204.277,241.691 
				206.552,232.318 203.595,232.318 199.47,251.284 			"/>
			<polygon fill="#C4CBCC" points="120.154,251.284 134.531,192.051 75.407,30.877 61.03,89.897 			"/>
			<polygon fill="#AEB9BA" points="147.049,173.066 144.738,182.553 140.786,182.553 97.947,65.777 101.836,49.812 			"/>
			<polygon fill="#8F9D9F" points="147.049,173.066 133.611,232.318 260.141,232.155 273.58,172.903 			"/>
			<g>
				<polyline fill="#D6D6D6" points="240.876,30.664 75.407,30.877 134.531,192.051 212.399,191.95 208.922,182.471 
					140.786,182.558 88.617,40.345 164.541,40.247 171.496,59.207 171.499,59.215 222.111,59.141 236.024,97.069 226.292,97.081 
					215.859,68.642 128.259,68.755 138.691,97.194 148.424,97.182 141.469,78.222 178.454,78.174 185.409,97.134 197.086,97.119 
					207.518,125.558 178.321,125.596 167.889,97.157 175.676,97.147 172.199,87.667 154.679,87.689 169.609,128.39 163.354,137.882 
					151.901,106.661 132.436,106.687 115.046,59.279 161.763,59.219 158.286,49.739 101.836,49.812 147.049,173.066 273.58,172.903 
					252.712,116.016 242.979,116.028 260.37,163.436 153.304,163.574 135.914,116.166 145.646,116.154 159.559,154.081 
					198.489,154.031 195.009,144.543 172.697,144.572 178.952,135.079 220.737,135.026 203.35,87.627 191.664,87.642 
					188.186,78.162 209.605,78.134 233.947,144.493 204.741,144.531 208.221,154.019 247.16,153.969 229.77,106.561 
					249.234,106.536 228.366,49.649 177.751,49.714 174.273,40.234 234.621,40.157 286.79,182.37 218.654,182.458 222.132,191.938 
					300,191.838 240.876,30.664 				"/>
			</g>
			<polygon fill="#AEB9BA" points="207.755,251.284 222.132,192.051 300,191.95 287.071,251.284 			"/>
			<polygon fill="#A0AAAB" points="207.755,251.284 204.277,241.691 218.654,182.458 222.132,192.051 			"/>
			<polygon fill="#AEB9BA" points="120.154,251.284 134.531,192.051 212.399,191.95 199.47,251.284 			"/>
			<polygon fill="#AEB9BA" points="230.732,56.122 234.621,40.157 286.79,182.37 271.433,182.37 273.58,172.903 252.712,116.016 
				246.923,116.023 249.234,106.536 			"/>
			<polygon fill="#8F9D9F" points="234.621,40.157 174.273,40.157 177.751,49.714 228.366,49.714 230.732,56.122 			"/>
			<polygon fill="#AEB9BA" points="247.16,153.969 244.849,163.456 260.37,163.436 242.979,116.028 239.094,131.98 			"/>
			<polygon fill="#8F9D9F" points="249.234,106.536 229.77,106.536 239.094,131.98 242.979,116.028 246.923,116.023 			"/>
			<polygon fill="#819293" points="208.221,154.019 205.91,163.506 244.849,163.456 247.16,153.969 			"/>
			<polygon fill="#819293" points="198.489,154.019 196.178,163.506 157.248,163.506 159.559,154.019 			"/>
			<polygon fill="#A0AAAB" points="204.741,144.449 200.097,163.513 205.91,163.506 208.221,154.019 			"/>
			<polygon fill="#A8B2B3" points="141.757,132.148 145.646,116.183 159.559,154.019 157.248,163.506 153.304,163.574 			"/>
			<polygon fill="#819293" points="145.646,116.183 141.757,132.148 135.914,116.166 			"/>
			<polygon fill="#8F9D9F" points="164.541,40.247 160.652,56.212 158.286,49.739 101.836,49.812 97.947,65.777 88.617,40.345 			
				"/>
			<polygon fill="#A0AAAB" points="171.496,59.215 169.185,68.702 159.449,68.715 161.763,59.215 160.652,56.212 164.541,40.247 			
				"/>
			<polygon fill="#819293" points="124.37,84.68 128.259,68.715 159.449,68.715 161.763,59.215 115.046,59.279 			"/>
			<polyline fill="#A8B2B3" points="138.691,97.194 136.38,106.682 132.436,106.687 124.37,84.68 128.259,68.715 138.691,97.194 			
				"/>
			<polygon fill="#959FA1" points="178.476,125.596 185.409,97.134 178.454,78.174 174.565,94.14 175.676,97.134 172.565,109.905 
							"/>
			<polygon fill="#708080" points="172.565,109.905 175.676,97.134 167.889,97.157 			"/>
			<polygon fill="#708080" points="190.153,125.596 197.086,97.134 185.409,97.134 178.476,125.596 			"/>
			<polygon fill="#798889" points="154.679,87.689 150.051,106.687 146.108,106.687 148.424,97.182 141.469,78.222 178.454,78.174 
				174.565,94.14 172.199,87.667 			"/>
			<polygon fill="#819293" points="138.691,97.194 136.38,106.682 146.108,106.687 148.424,97.182 			"/>
			<polygon fill="#9EA8A9" points="220.737,135.026 218.426,144.513 233.947,144.513 209.605,78.134 205.715,94.1 			"/>
			<polygon fill="#819293" points="218.222,75.107 215.859,68.642 169.185,68.702 171.499,59.215 222.111,59.141 			"/>
			<polygon fill="#A8B2B3" points="218.222,75.107 226.292,97.081 236.024,97.081 222.111,59.141 			"/>
			<polygon fill="#798889" points="209.605,78.134 188.186,78.162 191.664,87.642 203.35,87.627 205.715,94.1 			"/>
			<polygon fill="#9EA8A9" points="154.679,87.689 150.051,106.687 151.901,106.661 163.354,137.882 169.609,128.39 			"/>
			<polygon fill="#828D8E" points="197.086,97.134 207.518,125.558 190.153,125.596 			"/>
		</g>
	</g>
</g>
</svg>
