<svg xmlns="http://www.w3.org/2000/svg" id="Layer_1" x="0" y="0" version="1.1" viewBox="0 0 50 50" xml:space="preserve"><style>.st1,.st3{fill:none;stroke:#444;stroke-width:.5;stroke-miterlimit:10}.st3{stroke-linecap:round;stroke-linejoin:round}</style><path fill="#fc9d9a" d="M48 17.8l.1-9L44.6 7l-.8-4.7c-3.2 0-38.6-3.1-38.6.1l-.7 20.5.8 23.9 11.2 1.3 31-11c.8-.5 1.5-17.3.5-19.3z"/><path d="M10.8 3v43.8" class="st1"/><path fill="none" stroke="#444" stroke-miterlimit="10" d="M38.4 29.5L33 27.8c-.7-.2-1.5 0-2.1.6l-1.2 1.3c-.2.2-.4.2-.6.1-2.5-1.7-4.6-3.7-6.3-6.3-.1-.2-.1-.5.1-.6l1.3-1.2c.6-.5.8-1.3.6-2.1l-1.7-5.4c-.2-.8-1-1.3-1.8-1.2l-2.3.3c-.6.1-1.2.4-1.6.9-6.9 9 11.9 27.8 20.9 20.9.5-.4.8-.9.9-1.6l.3-2.3c.2-.6-.3-1.4-1.1-1.7z"/><path d="M7.7 3c-1 0-1.9 1-1.9 2.3v39.3c0 1.3.8 2.3 1.9 2.3h3.1V3H7.7z" class="st1"/><path d="M43.7 40.3h1.4c2.1 0 2.3-1 2.3-2.3v-5.9c0-1.3-1-2.3-2.3-2.3 1.3 0 2.3-1 2.3-2.3v-5.9c0-1.3-1-2.3-2.3-2.3 1.3 0 2.3-1 2.3-2.3v-6c0-1.3-1-2.3-2.3-2.3h-1.4" class="st3"/><path fill="none" stroke="#444" stroke-linecap="round" stroke-linejoin="round" stroke-miterlimit="10" stroke-width="2.5" d="M44.7 41.4h1.5c1.3 0 2.4-1.1 2.4-2.4v-6.2c0-1.3-.3-3.1-1-3.1.7 0 1-.4 1-1.7v-6.2c0-1.3-.4-2.6-1.1-2.6.7 0 1.1-.9 1.1-2.2v-6.2c0-1.3-1.1-3.2-2.4-3.2h-1.5V4.2c0-1.3-1.1-2.4-2.4-2.4h-35C6 1.8 4.9 2.9 4.9 4.2v3.3H2.5c-.5 0-.9.4-.9.9s.4.9.9.9h2.3v4.8H2.5c-.5 0-.9.4-.9.9s.4.9.9.9h2.3v4.8H2.5c-.5 0-.9.4-.9.9s.4.9.9.9h2.3v4.8H2.5c-.5 0-.9.4-.9.9s.4.9.9.9h2.3v4.8H2.5c-.5 0-.9.4-.9.9s.4.9.9.9h2.3v4.8H2.5c-.5 0-.9.4-.9.9s.4.9.9.9h2.3v3.3c0 1.3 1.1 2.4 2.4 2.4h23"/><path d="M43.6 3.3v38.1" class="st1"/><path d="M45.1 29.8h2.6m-2.6-10.5h2.6" class="st3"/></svg>