<?xml version="1.0" encoding="utf-8"?>
<!-- Generator: Adobe Illustrator 27.7.0, SVG Export Plug-In . SVG Version: 6.00 Build 0)  -->
<svg version="1.1" id="Camada_3" xmlns="http://www.w3.org/2000/svg" xmlns:xlink="http://www.w3.org/1999/xlink" x="0px" y="0px"
	 viewBox="0 0 50 50" style="enable-background:new 0 0 50 50;" xml:space="preserve">
<style type="text/css">
	.st0{fill:#FC9D9A;}
	.st1{fill:none;stroke:#454444;stroke-width:2.5;stroke-linecap:round;stroke-linejoin:round;stroke-miterlimit:10;}
	.st2{fill:none;stroke:#454444;stroke-width:0.5;stroke-linecap:round;stroke-linejoin:round;stroke-miterlimit:10;}
	.st3{fill:#454444;}
	.st4{fill:#444444;}
	.st5{fill:none;stroke:#444444;stroke-linecap:round;stroke-linejoin:round;stroke-miterlimit:10;}
	.st6{fill:none;stroke:#444444;stroke-width:0.5;stroke-linecap:round;stroke-linejoin:round;stroke-miterlimit:10;}
</style>
<g>
	<g>
		<g>
			<path class="st0" d="M3.75,25.8l43.6-15.51c0.32-0.44-0.39-0.53-0.07-0.97l-0.45-0.19c-0.51-0.5-8.49-0.57-8.99-1.08L36.8,2.77
				L12.95,2.58l-1.04,5.29c-0.5,0.5-8,0.89-8.5,1.39l-0.7,15.09C3.43,24.86,3.02,25.29,3.75,25.8z"/>
			<polygon class="st0" points="2.7,26.18 3.5,40.13 19.17,41.82 15.45,46.18 48.21,34.53 47.35,10.29 			"/>
		</g>
		<path class="st1" d="M18.99,41.23h-0.86H6.73c-2.22,0-4.02-1.8-4.02-4.02V23.4V12.17c0-2.22,1.8-4.02,4.02-4.02h5.43V4.29
			c0-1.23,1-2.24,2.23-2.25L35.32,1.9c1.25-0.01,2.26,1,2.26,2.25v4h5.95c2.22,0,4.02,1.8,4.02,4.02v24.05"/>
		<line class="st1" x1="38.89" y1="41.23" x2="31.46" y2="41.23"/>
		<line class="st2" x1="3.22" y1="35.31" x2="46.39" y2="35.31"/>
		<polyline class="st1" points="18.7,44.08 18.7,41.23 31.91,41.23 31.91,44.08 		"/>
		<path class="st1" d="M18.7,44.08c-4.44,0-4.56,4.21-4.56,4.21h21.97c0,0,0.8-4.21-4.2-4.21"/>
		<circle class="st3" cx="25.5" cy="37.86" r="1.42"/>
	</g>
	<circle class="st4" cx="18.24" cy="6.91" r="2.08"/>
	<g>
		<g>
			<path class="st5" d="M36.8,4.84v26.17c0,0.92-0.76,1.66-1.71,1.66H14.66c-0.94,0-1.71-0.74-1.71-1.66V4.9c0-1.1,0.91-1.99,2.04-2
				l19.75-0.06C35.88,2.84,36.8,3.74,36.8,4.84z"/>
		</g>
		<line class="st6" x1="23.99" y1="11.91" x2="32.75" y2="11.91"/>
		<line class="st6" x1="24.08" y1="14.63" x2="30.66" y2="14.63"/>
		<line class="st6" x1="23.99" y1="19.07" x2="32.75" y2="19.07"/>
		<line class="st6" x1="24.08" y1="21.79" x2="30.66" y2="21.79"/>
		<line class="st6" x1="23.99" y1="25.98" x2="32.75" y2="25.98"/>
		<line class="st6" x1="24.08" y1="28.7" x2="30.66" y2="28.7"/>
		<polyline class="st5" points="17.44,12.88 18.99,14.79 21.41,11.47 		"/>
		<polyline class="st5" points="17.44,19.88 18.99,21.79 21.41,18.46 		"/>
		<polyline class="st5" points="17.44,27.12 18.99,29.03 21.41,25.71 		"/>
		<path class="st6" d="M32.65,7.84h-9.66c-0.66,0-1.2-0.54-1.2-1.2V6.59c0-0.66,0.54-1.2,1.2-1.2h9.66c0.66,0,1.2,0.54,1.2,1.2v0.05
			C33.85,7.31,33.31,7.84,32.65,7.84z"/>
	</g>
</g>
</svg>
