<svg xmlns="http://www.w3.org/2000/svg" id="Layer_1" version="1.1" viewBox="0 0 50 50"><defs><style>.st0,.st3{fill:none;stroke:#444;stroke-miterlimit:10}.st0{stroke-width:.5px}.st6{fill:#444}</style></defs><path fill="#ff6b6b" d="M45.7 14.6l1-5-16.4-5.9L24.5 1c-3.1 0-11 4.4-21 8.5L3.9 20l3.3 17.7 7.8 4.5 29.9-10.6c.7-.4 1.9-15 .9-16.9z"/><circle cx="14.6" cy="15" r="3.5" class="st3"/><circle cx="23.6" cy="23.8" r="3" class="st3"/><circle cx="34.4" cy="23.8" r="3" class="st3"/><circle cx="23.6" cy="34" r="3" class="st3"/><circle cx="34.4" cy="34" r="3" class="st3"/><path d="M26.9 23.8h4.4" class="st0"/><path fill="none" stroke="#444" stroke-linecap="round" stroke-linejoin="round" stroke-width=".5" d="M31.3 34.4h-2.2"/><path d="M14.6 18.5s.4 5.6 5.9 5.6m-6.6-5.6l.2 11s-.3 4.8 6.4 4.9" class="st0"/><path fill="none" stroke="#444" stroke-linecap="round" stroke-linejoin="round" d="M21.7 23.8l.9 1.1 2.8-1.9m7.5.8l.9 1.1 2.8-1.9"/><circle cx="22.7" cy="34" r=".4" class="st6"/><circle cx="24.4" cy="34" r=".4" class="st6"/><path fill="none" stroke="#444" stroke-linecap="round" stroke-linejoin="round" stroke-width="2.5" d="M29.5 46.1l-4.4 2.5L6.6 38.1 3.2 9.5l21.9-8.1 21.7 8.1L44 34.8"/></svg>