<?xml version="1.0" encoding="utf-8"?>
<!-- Generator: Adobe Illustrator 28.0.0, SVG Export Plug-In . SVG Version: 6.00 Build 0)  -->
<svg version="1.1" id="Layer_1" xmlns="http://www.w3.org/2000/svg" xmlns:xlink="http://www.w3.org/1999/xlink" x="0px" y="0px"
	 viewBox="0 0 50 50" style="enable-background:new 0 0 50 50;" xml:space="preserve">
<style type="text/css">
	.st0{fill:#35D3C3;}
	.st1{fill:#7DF4EB;}
	.st2{fill:none;stroke:#444444;stroke-width:2.5;stroke-linecap:round;stroke-linejoin:round;stroke-miterlimit:10;}
	.st3{fill:none;stroke:#444444;stroke-linecap:round;stroke-linejoin:round;stroke-miterlimit:10;}
	.st4{fill:none;stroke:#444444;stroke-width:0.5;stroke-linecap:round;stroke-linejoin:round;stroke-miterlimit:10;}
	.st5{fill:none;stroke:#444444;stroke-width:0.5;stroke-linecap:square;stroke-linejoin:round;stroke-miterlimit:10;}
	.st6{fill:#444444;}
</style>
<g>
	<polygon class="st0" points="30.1,20.7 38,23.1 31.3,27.9 31.4,36.1 24.8,31.2 17,33.8 19.7,26 14.7,19.5 23,19.6 27.7,12.9 	"/>
	<path class="st1" d="M41.5,30.4l0.1-7l0.9-6.8c-0.1,0-0.3,0-0.4,0l0.1-0.9c0.1-0.6,0-1.3-0.4-1.8l0.2-3.3c-0.2-0.2,0.2-2-0.1-2.2
		l0.2-2.8C42,5.7,42.3,3,42.2,2.8l-2.7-0.6C39,1.5,34,2.4,33.2,2.4L18.4,2.3c-0.6,0-2.3,1.5-2.8,1.9L11,8c-0.5,0.5-3.3,2.3-3.3,2.9
		L8,28.6c0,0.2,0,0.5,0.1,0.7l0,0c0,0.2,0.1,0.3,0.2,0.5l-0.7,2.5l-0.1,1.4l0.4,13.9c0,0.1,0,0.1,0,0.2C8.1,48,8.3,48.1,8.6,48
		L41.8,36c0.2-0.1,0.3-0.3,0.3-0.5L41.5,30.4L41.5,30.4z"/>
	<g>
		<polyline class="st2" points="35.4,48 7.7,48 7.7,11 18.1,2.2 42,2.2 42,36.2 		"/>
		<polyline class="st3" points="7.8,11.9 18.4,11.9 18.4,2.3 		"/>
	</g>
	<g>
		<path class="st4" d="M33.7,35.7l-4-2.9v4.9c0,0.1,0.1,0.2,0.2,0.1l1.1-1.1l1.1,1.9c0.1,0.1,0.3,0.2,0.5,0.1l0.5-0.3
			c0.2-0.1,0.2-0.3,0.2-0.5l-1-1.8h1.4C33.7,36.2,33.8,35.8,33.7,35.7z"/>
		<path class="st4" d="M16.3,33.1c0,0,2.9-4.3,3.1-1.7c0.2,2.6,1.5,2.6,2.4,0.9c1-1.7,2.2-2.2,2.3-0.3c0.2,2.2,1.2,1.9,2.2,1"/>
		<rect x="13.9" y="22.2" class="st5" width="6.3" height="4.9"/>
		<rect x="21.7" y="22.2" class="st5" width="6.3" height="4.9"/>
		<rect x="29.5" y="22.2" class="st5" width="6.3" height="4.9"/>
		<rect x="13.9" y="15.8" class="st5" width="22" height="4.9"/>
		<path class="st5" d="M29.6,34.6H16.5c-1.5,0-2.7-1.2-2.7-2.7v0c0-1.5,1.2-2.7,2.7-2.7h16.7c1.5,0,2.7,1.2,2.7,2.7v0
			c0,1.5-1.2,2.7-2.7,2.7h-0.6"/>
		<polygon class="st6" points="32.4,34.4 32,34.4 32.3,34.7 		"/>
	</g>
</g>
</svg>
