<?xml version="1.0" encoding="utf-8"?>
<!-- Generator: Adobe Illustrator 26.5.0, SVG Export Plug-In . SVG Version: 6.00 Build 0)  -->
<svg version="1.1" id="Camada_3" xmlns="http://www.w3.org/2000/svg" xmlns:xlink="http://www.w3.org/1999/xlink" x="0px" y="0px"
	 viewBox="0 0 50 50" style="enable-background:new 0 0 50 50;" xml:space="preserve">
<style type="text/css">
	.st0{fill:#C2D45A;}
	.st1{fill:#B0CD5F;}
	.st2{fill:none;stroke:#444444;stroke-width:2.5;stroke-linecap:round;stroke-miterlimit:10;}
	.st3{fill:#444444;}
</style>
<g>
	<g>
		<path class="st0" d="M34.34,4.76l-8.6-2.18c-10.09,0-16.43,8.28-16.43,18.37l-1.47,0.98L45.26,8.9L34.34,4.76z"/>
		<path class="st1" d="M7.85,21.44L7.6,34.21c-0.62,6.26,2.36,8.59,8.28,6.48l29.89-10.46l1.75-17.28c0.15-2.55-1.13-5.23-4.73-3.94
			L7.85,21.44z"/>
	</g>
	<path class="st2" d="M45.77,30.23l1.85-16.03c0.34-2.96-1.4-5.76-4.21-6.76L27.89,1.9c-1.39-0.5-2.91-0.5-4.3,0L8.07,7.43
		c-2.8,1-4.55,3.8-4.21,6.76l2.47,21.38c0.24,2.05,1.45,3.86,3.26,4.87l13.06,7.23c1.93,1.07,4.27,1.07,6.2,0l13.06-7.23"/>
	<g>
		<path class="st3" d="M24.17,33.48c0-6.27,4.06-11.61,9.7-13.53c-10.68,2.79-19.05,11.18-21.9,21.81l10.68,5.91
			c1.93,1.07,4.27,1.07,6.2,0l2.96-1.64C27.36,43.6,24.17,38.87,24.17,33.48z"/>
		<path class="st3" d="M27.89,1.9c-1.39-0.5-2.91-0.5-4.3,0L8.07,7.43c-2.8,1-4.55,3.8-4.21,6.76l2.47,21.38
			c0.18,1.58,0.95,3.01,2.11,4.05c5.23-11.7,16.39-20.18,29.61-21.64c-1.35-0.15-2.71-0.22-4.08-0.22c-9.89,0-18.88,3.89-25.5,10.23
			c-0.05-0.57-0.07-1.16-0.07-1.72c0-11.22,12.03-23.04,23.25-23.04"/>
		<path class="st3" d="M41.9,40.44c-8.93,1.1-12.13-12.08-10.1-16.56c0.32-0.72,0.75-1.36,1.23-1.95c-3.52,2.2-5.96,6-6.22,10.46
			c-0.32,5.36,2.61,10.14,7.07,12.49L41.9,40.44"/>
	</g>
</g>
</svg>
