<svg xmlns="http://www.w3.org/2000/svg" id="Layer_1" x="0" y="0" version="1.1" viewBox="0 0 50 50" xml:space="preserve"><style>.st2,.st4{fill:none;stroke:#444;stroke-miterlimit:10}.st4{stroke-linecap:round;stroke-linejoin:round;stroke-width:2.5}</style><path fill="#8256d8" d="M28.9 16.7l7.8 2.5-6.7 4.7.1 8.2-6.5-4.9-7.8 2.7 2.6-7.8-4.9-6.6 8.2.1 4.8-6.7z"/><path fill="#a475ef" d="M48.2 22.1c.3-4.6 0-15.7-.5-16.2l-7-.5-4.7-.1-7.8.5L16 5.4H9.7l-7.2.4-.9 16.9.4 13.1c0 4.6 17.5 2.4 17.7 2.6l-.7 5.2 28.8-10.5c.6-.3.2-6.6.4-11z"/><path d="M48.2 30.3H2" class="st2"/><path fill="none" stroke="#444" stroke-linecap="round" stroke-linejoin="round" stroke-miterlimit="10" stroke-width=".5" d="M8.4 13.5h33.4v6.3H8.4zm8.1 13H9c-.3 0-.6-.3-.6-.6v-3c0-.3.3-.6.6-.6h7.5c.3 0 .6.3.6.6v3c0 .3-.3.6-.6.6zm24.8 0h-7.5c-.3 0-.6-.3-.6-.6v-3c0-.3.3-.6.6-.6h7.5c.3 0 .6.3.6.6v3c-.1.3-.3.6-.6.6zm-12.4 0h-7.5c-.3 0-.6-.3-.6-.6v-3c0-.3.3-.6.6-.6h7.5c.3 0 .6.3.6.6v3c0 .3-.3.6-.6.6zm-20.5-16h10.1m4.6.1h2.6m2.5-.1h3.1m2.2 0h3.1m2.3 0h2.9"/><path d="M48.2 32V8c0-1.4-1.2-2.6-2.6-2.6h-41C3.2 5.4 2 6.6 2 8v27.8c0 1.4 1.2 2.6 2.6 2.6h15.9M16 44.2h18M20.5 38.4l-1 5.6m11.3 0l-1-5.6h7.7" class="st4"/><path d="M17.3 37.7h15.4" class="st2"/></svg>