<svg xmlns="http://www.w3.org/2000/svg" id="Layer_1" x="0" y="0" version="1.1" viewBox="0 0 50 50" xml:space="preserve"><style>.st5{fill:#444}</style><path fill="#d1bd00" d="M29 21.1l7.9 2.4-6.7 4.7.1 8.3-6.6-5-7.8 2.7 2.7-7.8-4.9-6.6 8.2.1 4.7-6.7z"/><path fill="#f9f941" d="M47.3 23.9l.1-7.4.6-9c-.1 0-32.2-.7-33.4 0H6.7c0 .2-4.4-.2-4.3 0L2.9 19c-.5 3.1-.8 8.6-.8 8.6l.3 14.5 9.3-.2v.2c.1.3.4.4.7.3l35.2-12.8c.2-.1.4-.3.3-.5l-.6-5.2z"/><path fill="none" stroke="#444" stroke-linecap="round" stroke-linejoin="round" stroke-miterlimit="10" d="M2.4 13.2H48"/><path fill="none" stroke="#444" stroke-linecap="round" stroke-linejoin="round" stroke-miterlimit="10" stroke-width=".5" d="M15.7 21.6h-3.2c-.3 0-.5-.2-.5-.5v-3.2c0-.3.2-.5.5-.5h3.2c.3 0 .5.2.5.5v3.2c.1.3-.2.5-.5.5zm4-2.1h18.5m-22.4 9.8h-3.2c-.3 0-.5-.2-.5-.5v-3.2c0-.3.2-.5.5-.5h3.2c.3 0 .5.2.5.5v3.2c0 .3-.2.5-.5.5zm3.9-2.1h18.6m-24.2 5.5l.8 1.5 1.6.2-1.2 1.2.3 1.6-1.5-.8-1.4.8.2-1.6-1.2-1.2 1.7-.2zm6.8 0l.7 1.5 1.7.2-1.2 1.2.3 1.6-1.5-.8-1.5.8.3-1.6-1.2-1.2 1.7-.2zm6.8 0l.7 1.5 1.6.2-1.2 1.2.3 1.6-1.4-.8-1.5.8.3-1.6-1.2-1.2 1.6-.2z"/><path fill="none" stroke="#444" stroke-linecap="round" stroke-linejoin="round" stroke-miterlimit="10" stroke-width="2.5" d="M48 36.1V8.9c0-.8-.6-1.4-1.4-1.4H3.8c-.8 0-1.4.6-1.4 1.4v31.8c0 .8.6 1.4 1.4 1.4h30.5"/><circle cx="36.7" cy="10.8" r="1" class="st5"/><circle cx="39.6" cy="10.8" r="1" class="st5"/><circle cx="42.5" cy="10.8" r="1" class="st5"/></svg>