<?xml version="1.0" encoding="utf-8"?>
<!-- Generator: Adobe Illustrator 22.0.1, SVG Export Plug-In . SVG Version: 6.00 Build 0)  -->
<svg version="1.1" id="Layer_1" xmlns="http://www.w3.org/2000/svg" xmlns:xlink="http://www.w3.org/1999/xlink" x="0px" y="0px"
	 viewBox="0 0 50 50" style="enable-background:new 0 0 50 50;" xml:space="preserve">
<style type="text/css">
	.st0{fill:#BEE367;}
	.st1{fill:#D4FF73;}
	.st2{fill:#444444;}
</style>
<g>
	<g>
		<path class="st0" d="M46.1,15c0-0.5-0.1-1-0.3-1.5L3.9,28.8v6.2c0,1.4,0.7,2.6,1.9,3.3l4.9,2.8l35.3-12.8V15z"/>
	</g>
	<g>
		<path class="st1" d="M44,11.8L26.9,2c-1.2-0.7-2.6-0.7-3.8,0L6,11.8c-1.2,0.7-1.9,1.9-1.9,3.3v13.6l41.5-15.1
			C45.3,12.9,44.7,12.3,44,11.8z"/>
	</g>
	<g>
		<g>
			<g>
				<path class="st2" d="M33.8,33.8c0-0.1,0-0.3-0.1-0.5l-7.1-17.2c-0.2-0.5-0.6-0.8-1.1-0.8c-0.5,0-0.9,0.3-1.1,0.8l-7.8,18.8h2.7
					l3.1-7.8l9.3,7.5c0.4,0.3,0.6,0.4,1,0.4C33.2,35,33.8,34.5,33.8,33.8z M23.1,25.1l2.4-5.9l4.6,11.4L23.1,25.1z"/>
			</g>
		</g>
	</g>
	<g>
		<path class="st2" d="M25,49.8c-0.9,0-1.7-0.2-2.5-0.7L5.4,39.3c-1.6-0.9-2.5-2.6-2.5-4.4V15.1c0-1.8,1-3.5,2.5-4.4l17.1-9.9
			C24,0,26,0,27.5,0.9l17.1,9.9c1.6,0.9,2.5,2.6,2.5,4.4v15.3c0,0.7-0.6,1.2-1.2,1.2s-1.2-0.6-1.2-1.2V15.1c0-0.9-0.5-1.8-1.3-2.2
			L26.3,3c-0.8-0.5-1.8-0.5-2.6,0L6.6,12.9c-0.8,0.5-1.3,1.3-1.3,2.2v19.7c0,0.9,0.5,1.8,1.3,2.2L23.7,47c0.8,0.5,1.8,0.5,2.6,0
			l3.8-2.2c0.6-0.3,1.4-0.1,1.7,0.5c0.3,0.6,0.1,1.4-0.5,1.7l-3.8,2.2C26.7,49.6,25.9,49.8,25,49.8z"/>
	</g>
	<g>
		<path class="st2" d="M25,44.7c-0.7,0-1.4-0.2-2-0.5L9.4,36.4c-1.3-0.7-2-2.1-2-3.5V17.2c0-1.4,0.8-2.8,2-3.5L23,5.8
			c1.3-0.7,2.8-0.7,4.1,0l13.6,7.8c1.3,0.7,2,2.1,2,3.5v15.7c0,1.4-0.8,2.8-2,3.5L27,44.2C26.4,44.6,25.7,44.7,25,44.7z M25,5.8
			c-0.6,0-1.2,0.2-1.8,0.5L9.6,14.1c-1.1,0.6-1.8,1.8-1.8,3.1v15.7c0,1.3,0.7,2.4,1.8,3.1l13.6,7.8c1.1,0.6,2.5,0.6,3.6,0l13.6-7.8
			c1.1-0.6,1.8-1.8,1.8-3.1V17.2c0-1.3-0.7-2.4-1.8-3.1L26.8,6.2C26.2,5.9,25.6,5.8,25,5.8z"/>
	</g>
</g>
</svg>
