<?xml version="1.0" encoding="utf-8"?>
<!-- Generator: Adobe Illustrator 28.2.0, SVG Export Plug-In . SVG Version: 6.00 Build 0)  -->
<svg version="1.1" id="Camada_1" xmlns="http://www.w3.org/2000/svg" xmlns:xlink="http://www.w3.org/1999/xlink" x="0px" y="0px"
	 viewBox="0 0 50 50" style="enable-background:new 0 0 50 50;" xml:space="preserve">
<style type="text/css">
	.st0{fill:#7DF4EB;}
	.st1{fill:none;stroke:#444444;stroke-width:2.5;stroke-linecap:round;stroke-linejoin:round;stroke-miterlimit:10;}
	.st2{fill:none;stroke:#444444;stroke-linecap:round;stroke-linejoin:round;stroke-miterlimit:10;}
	.st3{fill:none;stroke:#444444;stroke-width:0.5;stroke-linecap:round;stroke-linejoin:round;stroke-miterlimit:10;}
</style>
<path class="st0" d="M47.7,20.3c-0.2-0.8-2.7-7.5-3.2-8.1l-3-3.5l-0.2,0.1L33.7,3l-7.8-0.7c-3.2,0-12.8-0.7-21.3,11.5l-2.9,7.9
	l0.5,2L4,35.2c0.1,0.4,4.7,7,5.1,7.2l5.6,3L47,33.7C47.6,33.3,48.7,25,47.7,20.3z"/>
<path class="st1" d="M28,47.9C15.4,49.4,3.9,40.4,2.3,27.8S9.7,3.7,22.4,2.1S46.5,9.6,48,22.2c0.6,5.1-0.5,10-2.8,14.1"/>
<polyline class="st2" points="24,33 31.5,13.9 39.1,32.3 27.8,23.2 "/>
<line class="st3" x1="20.4" y1="31.8" x2="27.9" y2="13.9"/>
<path class="st3" d="M8.7,25c0,0,0.1-3.3,2.3-3.6s4.6,3.9,7.7,2c1.4-1.4,1.1-3.2,1.1-3.2"/>
</svg>
