<svg xmlns="http://www.w3.org/2000/svg" id="Layer_1" x="0" y="0" version="1.1" viewBox="0 0 50 50" xml:space="preserve"><style>.st2{fill:#031326}</style><path fill="#bee367" d="M46.1 15c0-.5-.1-1-.3-1.5L3.9 28.8V35c0 1.4.7 2.6 1.9 3.3l4.9 2.8L46 28.3V15z"/><path fill="#d4ff73" d="M44 11.8L26.9 2a3.7 3.7 0 00-3.8 0L6 11.8c-1.2.7-1.9 1.9-1.9 3.3v13.6l41.5-15.1c-.3-.7-.9-1.3-1.6-1.8z"/><path d="M33.8 33.8c0-.1 0-.3-.1-.5l-7.1-17.2c-.2-.5-.6-.8-1.1-.8-.5 0-.9.3-1.1.8l-7.8 18.8h2.7l3.1-7.8 9.3 7.5c.4.3.6.4 1 .4.5 0 1.1-.5 1.1-1.2zm-10.7-8.7l2.4-5.9 4.6 11.4-7-5.5z" class="st2"/><path d="M25 49.8c-.9 0-1.7-.2-2.5-.7L5.4 39.3c-1.6-.9-2.5-2.6-2.5-4.4V15.1c0-1.8 1-3.5 2.5-4.4L22.5.8C24 0 26 0 27.5.9l17.1 9.9c1.6.9 2.5 2.6 2.5 4.4v15.3c0 .7-.6 1.2-1.2 1.2s-1.2-.6-1.2-1.2V15.1c0-.9-.5-1.8-1.3-2.2L26.3 3c-.8-.5-1.8-.5-2.6 0L6.6 12.9c-.8.5-1.3 1.3-1.3 2.2v19.7c0 .9.5 1.8 1.3 2.2l17.1 10c.8.5 1.8.5 2.6 0l3.8-2.2c.6-.3 1.4-.1 1.7.5.3.6.1 1.4-.5 1.7l-3.8 2.2c-.8.4-1.6.6-2.5.6z" class="st2"/><path d="M25 44.7c-.7 0-1.4-.2-2-.5L9.4 36.4c-1.3-.7-2-2.1-2-3.5V17.2c0-1.4.8-2.8 2-3.5L23 5.8c1.3-.7 2.8-.7 4.1 0l13.6 7.8c1.3.7 2 2.1 2 3.5v15.7c0 1.4-.8 2.8-2 3.5L27 44.2c-.6.4-1.3.5-2 .5zm0-38.9c-.6 0-1.2.2-1.8.5L9.6 14.1c-1.1.6-1.8 1.8-1.8 3.1v15.7c0 1.3.7 2.4 1.8 3.1l13.6 7.8c1.1.6 2.5.6 3.6 0L40.4 36c1.1-.6 1.8-1.8 1.8-3.1V17.2c0-1.3-.7-2.4-1.8-3.1L26.8 6.2c-.6-.3-1.2-.4-1.8-.4z" class="st2"/></svg>