<svg xmlns="http://www.w3.org/2000/svg" viewBox="0 0 50 50"><path fill="#7df4eb" d="M47.7 20.3c-.2-.8-2.7-7.5-3.2-8.1l-3-3.5-.2.1L33.7 3l-7.8-.7c-3.2 0-12.8-.7-21.3 11.5l-2.9 7.9.5 2L4 35.2c.1.4 4.7 7 5.1 7.2l5.6 3L47 33.7c.6-.4 1.7-8.7.7-13.4z"/><path fill="none" stroke="#444" stroke-linecap="round" stroke-linejoin="round" stroke-miterlimit="10" stroke-width="2.5" d="M28 47.9C15.4 49.4 3.9 40.4 2.3 27.8S9.7 3.7 22.4 2.1 46.5 9.6 48 22.2c.6 5.1-.5 10-2.8 14.1"/><path fill="none" stroke="#444" stroke-linecap="round" stroke-linejoin="round" stroke-miterlimit="10" d="M24 33l7.5-19.1 7.6 18.4-11.3-9.1"/><path fill="none" stroke="#444" stroke-linecap="round" stroke-linejoin="round" stroke-miterlimit="10" stroke-width=".5" d="M20.4 31.8l7.5-17.9M8.7 25s.1-3.3 2.3-3.6 4.6 3.9 7.7 2c1.4-1.4 1.1-3.2 1.1-3.2"/></svg>