<?xml version="1.0" encoding="utf-8"?>
<!-- Generator: Adobe Illustrator 26.5.0, SVG Export Plug-In . SVG Version: 6.00 Build 0)  -->
<svg version="1.1" id="Layer_1" xmlns="http://www.w3.org/2000/svg" xmlns:xlink="http://www.w3.org/1999/xlink" x="0px" y="0px"
	 viewBox="0 0 50 50" style="enable-background:new 0 0 50 50;" xml:space="preserve">
<style type="text/css">
	.st0{fill:#E56060;}
	.st1{fill:#FF6B6B;}
	.st2{fill:#444444;}
	.st3{fill:none;stroke:#444444;stroke-linecap:round;stroke-linejoin:round;stroke-miterlimit:10;}
	.st4{fill:none;stroke:#444444;stroke-width:0.75;stroke-linecap:round;stroke-linejoin:round;stroke-miterlimit:10;}
	.st5{fill:none;stroke:#444444;stroke-width:2.5;stroke-linecap:round;stroke-linejoin:round;stroke-miterlimit:10;}
</style>
<g>
	<g>
		<polygon class="st0" points="126.4,586.6 128.1,590.1 128.1,595 114.1,600.1 114,599.5 112.9,599.8 112.8,602.3 113.9,602.8 
			113.9,607.5 111.2,608.7 109,607.1 108.9,602 101.1,604.8 101.1,602.8 96.2,602.4 96.5,592.7 98,591.6 98.2,587 114.9,581 
			115.7,584.3 119.9,582.9 		"/>
		<polygon class="st1" points="114.6,574.3 114.7,575.5 114.7,583.6 98.5,589.4 106,577.6 109.7,573.1 112.7,570.2 114.6,573.5 		
			"/>
	</g>
	<g>
		<g>
			<path class="st2" d="M122.7,605.9l-0.1-2.9l-0.7,0c0.1,0,0.3,0,0.4-0.1c0.2-0.1,0.3-0.2,0.4-0.4c0.1-0.2,0.2-0.4,0.2-0.6v-1.8
				c0-0.1,0-0.3-0.1-0.4c-0.1-0.2-0.2-0.3-0.4-0.4c-0.2-0.1-0.4-0.2-0.6-0.2h-0.4v-3c0,0,0.1-0.1,0.1-0.1c0.1-0.1,0.2-0.1,0.4-0.2
				c0.2-0.1,0.5-0.2,0.7-0.2c0.1,0,0.2,0,0.3-0.1v0.3c0,0.1,0,0.3,0.1,0.4c0.1,0.2,0.2,0.3,0.4,0.4c0.2,0.1,0.4,0.2,0.6,0.2h1.9
				c0.1,0,0.3,0,0.4-0.1c0.2-0.1,0.3-0.2,0.4-0.4c0.1-0.2,0.2-0.3,0.2-0.6v-8.5c0-0.1,0-0.3-0.1-0.4c-0.1-0.2-0.2-0.3-0.4-0.4l0,0
				l0,0c-0.2-0.1-0.4-0.2-0.6-0.2H124c-0.1,0-0.3,0-0.4,0.1c-0.2,0.1-0.3,0.2-0.4,0.4c-0.1,0.2-0.2,0.3-0.2,0.6v0.6h-3
				c-0.9,0-1.7,0.2-2.5,0.5c-1.2,0.5-2.1,1.3-2.8,2.2c-0.7,1-1.1,2.2-1.1,3.5v5h-0.4c-0.1,0-0.3,0-0.4,0.1c-0.2,0.1-0.3,0.2-0.4,0.4
				c-0.1,0.2-0.2,0.3-0.2,0.6v1.8c0,0.1,0,0.3,0.1,0.4c0.1,0.2,0.2,0.3,0.4,0.4c0.2,0.1,0.4,0.2,0.6,0.2h0.4l0.2,3
				c0,0.3-0.1,0.6-0.2,0.8c-0.2,0.4-0.4,0.7-0.8,0.9c-0.3,0.2-0.8,0.4-1.2,0.4l0,0c0,0,0,0,0,0c-0.3,0-0.6-0.1-0.9-0.2
				c-0.4-0.2-0.7-0.4-1-0.8c-0.2-0.3-0.4-0.7-0.4-1.2v0l0-7.2c0-0.8-0.2-1.5-0.4-2.1c-0.4-1-1.2-1.8-2.1-2.4c-0.9-0.6-2-0.9-3.2-0.9
				l0,0l-3.5,0.3v-0.4c0-0.1,0-0.2-0.1-0.4c-0.1-0.2-0.2-0.3-0.3-0.4c-0.1-0.1-0.3-0.2-0.5-0.2h-1.9c-0.1,0-0.3,0-0.4,0.1
				c-0.2,0.1-0.3,0.2-0.4,0.3c-0.1,0.1-0.2,0.3-0.2,0.5v8c0,0.1,0,0.2,0.1,0.4c0.1,0.2,0.2,0.3,0.3,0.4c0.1,0.1,0.3,0.2,0.5,0.2h1.9
				c0.1,0,0.3,0,0.4-0.1c0.2-0.1,0.3-0.2,0.4-0.3c0.1-0.1,0.1-0.2,0.1-0.4c0.1,0,0.2,0,0.3,0.1c0.2,0,0.3,0.1,0.5,0.2
				c0.1,0,0.2,0.1,0.3,0.1c0.1,0,0.1,0.1,0.2,0.1c0,0,0.1,0,0.1,0.1c0,0,0,0,0,0v4.1c0,1.3,0.3,2.6,0.8,3.8c0.5,1.2,1.4,3.3,2.3,4.1
				c0.9,0.9,2,1.6,3.2,2.1c1.2,0.5,2.6,0.8,3.9,0.8c1.3,0,2.7-0.3,3.9-0.8c1.2-0.5,2.3-1.2,3.2-2.1c0.2-0.2,0.4-0.5,0.6-0.7
				c0.2-0.2,0.1-0.5-0.1-0.7c-0.2-0.2-0.5-0.1-0.7,0.1c-0.2,0.2-0.4,0.4-0.6,0.6c-0.8,0.8-1.8,1.4-2.9,1.9c-1.1,0.5-2.3,0.7-3.5,0.7
				c-1.2,0-2.4-0.2-3.5-0.7c-1.1-0.4-2-1.1-2.9-1.9l0,0c-0.8-0.8-1.7-2.8-2.1-3.8c-0.5-1.1-0.7-2.2-0.7-3.4v-4.1c0-0.1,0-0.2,0-0.3
				c0-0.1-0.1-0.2-0.1-0.2c-0.1-0.1-0.2-0.2-0.3-0.3c-0.1-0.1-0.2-0.1-0.3-0.2c-0.2-0.1-0.4-0.2-0.6-0.3c-0.3-0.1-0.6-0.2-0.9-0.3
				c-0.1,0-0.2,0-0.3-0.1v-5.7l3.6-0.3c0.6,0,1.2,0.1,1.8,0.4c0.8,0.3,1.6,0.9,2.1,1.6c0.5,0.7,0.8,1.6,0.8,2.5l0,7.2l0,0
				c0,0.4,0.1,0.8,0.3,1.2c0.2,0.6,0.7,1,1.2,1.4c0.5,0.3,1.1,0.5,1.8,0.5c0,0,0,0,0,0l0,0c0.4,0,0.9-0.1,1.2-0.3
				c0.6-0.2,1.1-0.6,1.4-1.1c0.3-0.5,0.5-1.1,0.5-1.7v0l-0.2-2.9h6.5l0.5,2.9 M97.3,593.6h0.9h0.9v7.2h-0.9h-0.9v-7.5l0,0V593.6z
				 M124,587.8h1.9v7.9H124v-8.2l0,0V587.8z M122.2,594.8c-0.2,0.1-0.4,0.1-0.6,0.2c-0.1,0.1-0.3,0.1-0.4,0.2
				c-0.1,0-0.2,0.1-0.3,0.2c-0.1,0-0.1,0.1-0.2,0.1c-0.1,0.1-0.2,0.2-0.2,0.3c0,0.1-0.1,0.1-0.1,0.2c0,0.1,0,0.1,0,0.2v3.5
				c0,0.1,0.1,0.3,0.2,0.3c0.1,0.1,0.2,0.1,0.4,0.1h0.9v1.8h-8.7v-1.8h0.9c0.1,0,0.3-0.1,0.4-0.1c0.1-0.1,0.1-0.2,0.1-0.3v-5.5
				c0-0.7,0.1-1.4,0.4-2c0.4-0.9,1.1-1.7,1.9-2.3c0.9-0.6,1.9-0.9,3-0.9h2.9v5.7C122.7,594.7,122.5,594.7,122.2,594.8L122.2,594.8
				L122.2,594.8z"/>
			<path class="st3" d="M101.6,593.7c0,0,2.7-2.8,3.5-3.2c0,0-0.4,3,0.3,3.6"/>
			<path class="st3" d="M107.9,595.9c0,0,4-0.9,1.3-4.9c-1.4-2.1-4.2-2.9-0.8-8.3c0,0-0.5,3.1,4.9,5.7c0.8,0.4,2.1,1.1,2.7,1.4"/>
			<path class="st4" d="M98.2,592.9c0,0-1.2-5.2,7.3-13.9c8.2-8.4,7.2-10,7.2-10s2.5,0.6,1.9,8.4c-0.2,2.9-1.9,4.4,0.1,6.6
				c2,2.2,6-0.3,5.3-1.9c0,0,1.5,1,4.3,5.3"/>
		</g>
		<g>
			<path class="st5" d="M121.8,609.2c0-0.1,0-0.2,0.1-0.2C121.9,609,121.8,609.1,121.8,609.2L121.8,609.2z"/>
			<path class="st5" d="M122.2,607.5c-0.1,0.5-0.2,1-0.3,1.5C122.1,608.1,122.2,607.5,122.2,607.5z"/>
			<path class="st5" d="M122.2,607.5c0-0.3,0.1-0.7,0.1-1v-3.1h0.3c0.1,0,0.3,0,0.4-0.1c0.2-0.1,0.3-0.2,0.5-0.4
				c0.1-0.2,0.2-0.4,0.2-0.6v-1.9c0-0.1,0-1,0-1.1c-0.1-0.2-0.2-0.3-0.4-0.4c-0.2-0.1-0.4-0.2-0.6-0.2h-0.5l-0.1-2.4
				c0,0,0.1-0.1,0.1-0.1c0.1-0.1,0.2-0.1,0.4-0.2c0.2-0.1-0.5,0.3-0.2,0.2c0,0,0.2,0,0.3-0.1l0-0.2c0,0.1,0,0.3,0.1,0.4
				c0.1,0.2,0.2,0.3,0.4,0.4c0.2,0.1,0.4,0.2,0.6,0.2l2.9,0c0.1,0,0.3,0,0.4-0.1c0.2-0.1,0.3-0.2,0.5-0.4c0.1-0.2,0.2-0.4,0.2-0.6
				v-8.7c0-0.1,0-0.3-0.1-0.4c-0.1-0.2-0.2-0.3-0.4-0.4c-0.2-0.1-0.4-0.2-0.6-0.2h-1.9c-0.1,0-0.3,0-0.4,0.1c0,0,0,0,0,0
				c-1.6-2.1-3-3.4-4-4.1c-0.4-0.3-0.9-0.1-1,0.4c-0.4,1.5-2.6,3-4.3,1.2c-2-2.2-0.3-3.8-0.1-6.8c0.4-4.4-0.8-6.7-1.9-7.8
				c-0.4-0.4-1.1-0.1-1.1,0.5c0.1,1.5-0.9,4.3-6.3,9c-7.6,6.6-7.8,11.8-7.6,13.6h-0.9c-0.1,0-0.3,0-0.4,0.1
				c-0.2,0.1-0.3,0.2-0.4,0.3c-0.1,0.1-0.2,0.3-0.2,0.5v8.3c0,0.1,0,0.3,0.1,0.4c0.1,0.2,0.2,0.3,0.3,0.4c0.2,0.1,0.3,0.2,0.5,0.2h2
				c0.1,0,0.3,0,0.4-0.1c0.2-0.1,0-0.1,0.1-0.2c0.1-0.1,0.5-0.2,0.5-0.3c0.3,0.1-0.1,0,0,0c0.2,0,0.3,0.1,0.5,0.2
				c0.1,0,0.2,0.1,0.3,0.1c0.1,0,0.1,0.1,0.2,0.1c0,0,0.1,0.1,0.1,0.1c0,0,0,0,0,0l0.3,4.1c0,1.3,0.3,2.7,0.8,3.9
				c0.5,1.2,1.3,2.3,2.2,3.2c0.9,0.9,2,1.6,3.3,2.1c1.3,0.5,2.6,0.8,4,0.8c1.4,0,2.7-0.3,4-0.8c1-0.4,1.9-0.9,2.7-1.6
				C118.6,614,121.9,611.3,122.2,607.5z"/>
		</g>
	</g>
</g>
<g>
	<g>
		<polygon class="st0" points="38.9,18.9 40.5,22.3 40.5,27.3 26.5,32.4 26.4,31.8 25.3,32.1 25.2,34.6 26.3,35.1 26.4,39.7 
			23.6,41 21.5,39.4 21.3,34.3 13.5,37.1 13.5,35 8.7,34.7 8.9,24.9 10.5,23.8 10.6,19.3 27.3,13.2 28.1,16.6 32.4,15.1 		"/>
		<polygon class="st1" points="27.1,6.6 27.1,7.8 27.1,15.8 10.9,21.6 18.5,9.9 22.1,5.4 25.1,2.5 27,5.7 		"/>
	</g>
	<g>
		<g>
			<path class="st2" d="M35.2,38.2L35,35.3l-0.7,0c0.1,0,0.3,0,0.4-0.1c0.2-0.1,0.3-0.2,0.4-0.4c0.1-0.2,0.2-0.4,0.2-0.6v-1.8
				c0-0.1,0-0.3-0.1-0.4c-0.1-0.2-0.2-0.3-0.4-0.4c-0.2-0.1-0.4-0.2-0.6-0.2h-0.4v-3c0,0,0.1-0.1,0.1-0.1c0.1-0.1,0.2-0.1,0.4-0.2
				c0.2-0.1,0.5-0.2,0.7-0.2c0.1,0,0.2,0,0.3-0.1v0.3c0,0.1,0,0.3,0.1,0.4c0.1,0.2,0.2,0.3,0.4,0.4c0.2,0.1,0.4,0.2,0.6,0.2h1.9
				c0.1,0,0.3,0,0.4-0.1c0.2-0.1,0.3-0.2,0.4-0.4c0.1-0.2,0.2-0.3,0.2-0.6v-8.5c0-0.1,0-0.3-0.1-0.4c-0.1-0.2-0.2-0.3-0.4-0.4l0,0
				l0,0c-0.2-0.1-0.4-0.2-0.6-0.2h-1.9c-0.1,0-0.3,0-0.4,0.1c-0.2,0.1-0.3,0.2-0.4,0.4c-0.1,0.2-0.2,0.3-0.2,0.6v0.6h-3
				c-0.9,0-1.7,0.2-2.5,0.5c-1.2,0.5-2.1,1.3-2.8,2.2c-0.7,1-1.1,2.2-1.1,3.5v5h-0.4c-0.1,0-0.3,0-0.4,0.1c-0.2,0.1-0.3,0.2-0.4,0.4
				c-0.1,0.2-0.2,0.3-0.2,0.6v1.8c0,0.1,0,0.3,0.1,0.4c0.1,0.2,0.2,0.3,0.4,0.4c0.2,0.1,0.4,0.2,0.6,0.2H26l0.2,3
				c0,0.3-0.1,0.6-0.2,0.8c-0.2,0.4-0.4,0.7-0.8,0.9c-0.3,0.2-0.8,0.4-1.2,0.4l0,0c0,0,0,0,0,0c-0.3,0-0.6-0.1-0.9-0.2
				c-0.4-0.2-0.7-0.4-1-0.8c-0.2-0.3-0.4-0.7-0.4-1.2v0l0-7.2c0-0.8-0.2-1.5-0.4-2.1c-0.4-1-1.2-1.8-2.1-2.4c-0.9-0.6-2-0.9-3.2-0.9
				l0,0l-3.5,0.3v-0.4c0-0.1,0-0.2-0.1-0.4c-0.1-0.2-0.2-0.3-0.3-0.4c-0.1-0.1-0.3-0.2-0.5-0.2H9.7c-0.1,0-0.3,0-0.4,0.1
				c-0.2,0.1-0.3,0.2-0.4,0.3c-0.1,0.1-0.2,0.3-0.2,0.5v8c0,0.1,0,0.2,0.1,0.4C8.9,34,9,34.1,9.2,34.2c0.1,0.1,0.3,0.2,0.5,0.2h1.9
				c0.1,0,0.3,0,0.4-0.1c0.2-0.1,0.3-0.2,0.4-0.3c0.1-0.1,0.1-0.2,0.1-0.4c0.1,0,0.2,0,0.3,0.1c0.2,0,0.3,0.1,0.5,0.2
				c0.1,0,0.2,0.1,0.3,0.1c0.1,0,0.1,0.1,0.2,0.1c0,0,0.1,0,0.1,0.1c0,0,0,0,0,0v4.1c0,1.3,0.3,2.6,0.8,3.8c0.5,1.2,1.4,3.3,2.3,4.1
				c0.9,0.9,2,1.6,3.2,2.1c1.2,0.5,2.6,0.8,3.9,0.8c1.3,0,2.7-0.3,3.9-0.8c1.2-0.5,2.3-1.2,3.2-2.1c0.2-0.2,0.4-0.5,0.6-0.7
				c0.2-0.2,0.1-0.5-0.1-0.7c-0.2-0.2-0.5-0.1-0.7,0.1c-0.2,0.2-0.4,0.4-0.6,0.6c-0.8,0.8-1.8,1.4-2.9,1.9c-1.1,0.5-2.3,0.7-3.5,0.7
				c-1.2,0-2.4-0.2-3.5-0.7c-1.1-0.4-2-1.1-2.9-1.9l0,0c-0.8-0.8-1.7-2.8-2.1-3.8c-0.5-1.1-0.7-2.2-0.7-3.4v-4.1c0-0.1,0-0.2,0-0.3
				c0-0.1-0.1-0.2-0.1-0.2c-0.1-0.1-0.2-0.2-0.3-0.3c-0.1-0.1-0.2-0.1-0.3-0.2c-0.2-0.1-0.4-0.2-0.6-0.3c-0.3-0.1-0.6-0.2-0.9-0.3
				c-0.1,0-0.2,0-0.3-0.1v-5.7l3.6-0.3c0.6,0,1.2,0.1,1.8,0.4c0.8,0.3,1.6,0.9,2.1,1.6c0.5,0.7,0.8,1.6,0.8,2.5l0,7.2l0,0
				c0,0.4,0.1,0.8,0.3,1.2c0.2,0.6,0.7,1,1.2,1.4c0.5,0.3,1.1,0.5,1.8,0.5c0,0,0,0,0,0l0,0c0.4,0,0.9-0.1,1.2-0.3
				c0.6-0.2,1.1-0.6,1.4-1.1c0.3-0.5,0.5-1.1,0.5-1.7v0l-0.2-2.9h6.5l0.5,2.9 M9.8,25.8h0.9h0.9V33h-0.9H9.8v-7.5l0,0V25.8z
				 M36.4,20h1.9v7.9h-1.9v-8.2l0,0V20z M34.7,27.1c-0.2,0.1-0.4,0.1-0.6,0.2c-0.1,0.1-0.3,0.1-0.4,0.2c-0.1,0-0.2,0.1-0.3,0.2
				c-0.1,0-0.1,0.1-0.2,0.1c-0.1,0.1-0.2,0.2-0.2,0.3c0,0.1-0.1,0.1-0.1,0.2c0,0.1,0,0.1,0,0.2V32c0,0.1,0.1,0.3,0.2,0.3
				c0.1,0.1,0.2,0.1,0.4,0.1h0.9v1.8h-8.7v-1.8h0.9c0.1,0,0.3-0.1,0.4-0.1c0.1-0.1,0.1-0.2,0.1-0.3v-5.5c0-0.7,0.1-1.4,0.4-2
				c0.4-0.9,1.1-1.7,1.9-2.3c0.9-0.6,1.9-0.9,3-0.9h2.9v5.7C35.1,26.9,34.9,27,34.7,27.1L34.7,27.1L34.7,27.1z"/>
			<path class="st3" d="M14,26c0,0,2.7-2.8,3.5-3.2c0,0-0.4,3,0.3,3.6"/>
			<path class="st3" d="M20.4,28.1c0,0,4-0.9,1.3-4.9c-1.4-2.1-4.2-2.9-0.8-8.3c0,0-0.5,3.1,4.9,5.7c0.8,0.4,2.1,1.1,2.7,1.4"/>
			<path class="st4" d="M10.6,25.2c0,0-1.2-5.2,7.3-13.9c8.2-8.4,7.2-10,7.2-10s2.5,0.6,1.9,8.4c-0.2,2.9-1.9,4.4,0.1,6.6
				s6-0.3,5.3-1.9c0,0,1.5,1,4.3,5.3"/>
		</g>
		<g>
			<path class="st5" d="M34.3,41.4c0-0.1,0-0.2,0.1-0.2C34.3,41.3,34.3,41.4,34.3,41.4L34.3,41.4z"/>
			<path class="st5" d="M34.6,39.7c-0.1,0.5-0.2,1-0.3,1.5C34.6,40.3,34.6,39.7,34.6,39.7z"/>
			<path class="st5" d="M34.6,39.7c0-0.3,0.1-0.7,0.1-1v-3.1H35c0.1,0,0.3,0,0.4-0.1c0.2-0.1,0.3-0.2,0.5-0.4C36,35,36,34.8,36,34.6
				v-1.9c0-0.1,0-1,0-1.1c-0.1-0.2-0.2-0.3-0.4-0.4c-0.2-0.1-0.4-0.2-0.6-0.2h-0.5l-0.1-2.4c0,0,0.1-0.1,0.1-0.1
				c0.1-0.1,0.2-0.1,0.4-0.2c0.2-0.1-0.5,0.3-0.2,0.2c0,0,0.2,0,0.3-0.1l0-0.2c0,0.1,0,0.3,0.1,0.4c0.1,0.2,0.2,0.3,0.4,0.4
				c0.2,0.1,0.4,0.2,0.6,0.2l2.9,0c0.1,0,0.3,0,0.4-0.1c0.2-0.1,0.3-0.2,0.5-0.4c0.1-0.2,0.2-0.4,0.2-0.6v-8.7c0-0.1,0-0.3-0.1-0.4
				c-0.1-0.2-0.2-0.3-0.4-0.4c-0.2-0.1-0.4-0.2-0.6-0.2h-1.9c-0.1,0-0.3,0-0.4,0.1c0,0,0,0,0,0c-1.6-2.1-3-3.4-4-4.1
				c-0.4-0.3-0.9-0.1-1,0.4c-0.4,1.5-2.6,3-4.3,1.2c-2-2.2-0.3-3.8-0.1-6.8c0.4-4.4-0.8-6.7-1.9-7.8c-0.4-0.4-1.1-0.1-1.1,0.5
				c0.1,1.5-0.9,4.3-6.3,9c-7.6,6.6-7.8,11.8-7.6,13.6H9.6c-0.1,0-0.3,0-0.4,0.1c-0.2,0.1-0.3,0.2-0.4,0.3c-0.1,0.1-0.2,0.3-0.2,0.5
				v8.3c0,0.1,0,0.3,0.1,0.4c0.1,0.2,0.2,0.3,0.3,0.4c0.2,0.1,0.3,0.2,0.5,0.2h2c0.1,0,0.3,0,0.4-0.1c0.2-0.1,0-0.1,0.1-0.2
				c0.1-0.1,0.5-0.2,0.5-0.3c0.3,0.1-0.1,0,0,0c0.2,0,0.3,0.1,0.5,0.2c0.1,0,0.2,0.1,0.3,0.1c0.1,0,0.1,0.1,0.2,0.1
				c0,0,0.1,0.1,0.1,0.1c0,0,0,0,0,0l0.3,4.1c0,1.3,0.3,2.7,0.8,3.9c0.5,1.2,1.3,2.3,2.2,3.2c0.9,0.9,2,1.6,3.3,2.1
				c1.3,0.5,2.6,0.8,4,0.8c1.4,0,2.7-0.3,4-0.8c1-0.4,1.9-0.9,2.7-1.6C31.1,46.3,34.4,43.6,34.6,39.7z"/>
		</g>
	</g>
</g>
</svg>
