<?xml version="1.0" encoding="utf-8"?>
<!-- Generator: Adobe Illustrator 24.1.2, SVG Export Plug-In . SVG Version: 6.00 Build 0)  -->
<svg version="1.1" id="Layer_1" xmlns="http://www.w3.org/2000/svg" xmlns:xlink="http://www.w3.org/1999/xlink" x="0px" y="0px"
	 viewBox="0 0 50 50" style="enable-background:new 0 0 50 50;" xml:space="preserve">
<style type="text/css">
	.st0{fill:#E56060;}
	.st1{fill:#444444;}
	.st2{fill:#FF6B6B;}
</style>
<g>
	<path class="st0" d="M41.3,11.7l-0.9,0.9l-10,10.2L18.2,35.4L14,39.7l-1.7,1.7l-5.6-3.2c-0.6-0.3-1.1-0.8-1.6-1.3
		c-0.1-0.1-0.2-0.2-0.3-0.4c-0.6-0.9-0.9-1.9-0.9-3V22.1l2.3-2.4L18,7.7l5.4-5.5c1.4-0.4,2.9-0.2,4.2,0.5l0.8,0.5l0.1,0l0.3,0.2
		l5.7,3.2L35,6.9l6.3,3.5L41.3,11.7z"/>
	<g>
		<path class="st1" d="M43.9,26c0-0.5-0.1-1.1-0.2-1.6c-0.4-3.2-1.3-6.2-2.1-8.5l-0.1-0.3l-0.3,0.3c-0.1,0.1-0.1,0.2-0.1,0.2
			c-0.7,1.1-1.5,2.1-2.3,3c-1.9,1.8-4.3,3-7.3,3.7c-0.2,0-0.3,0-0.5,0.1c-1.1,0.2-2.3,0.3-3.5,0.3c-0.8,0-1.6,0.1-2.4,0.2
			c-4.7,0.5-7.9,3.6-8.5,7.9c-0.3,2,0.2,3.6,1.3,5c0.2,0.3,0.5,0.5,0.8,0.8c0.5,0.5,1.2,0.6,1.9,0.5c0.9-0.2,1.8-0.5,2.7-0.7
			c0.8-0.2,1.5-0.4,2.3-0.5c6-1.5,10.4-4.5,13.4-9.3c0,0,0,0,0,0c-2.5,5.4-6.7,9.1-12.4,10.8c-0.9,0.3-1.9,0.6-2.9,0.9
			c-0.5,0.2-0.9,0.3-1.4,0.5l-0.2,0.1l0.2,0.2c0.1,0.1,0.2,0.4,0.5,0.4c0,0,0.1,0-0.1-0.1c0.9-0.2,1.7-0.2,2.6-0.2h0.5
			c0.5,0.1,0.9,0.1,1.4,0.1c2.5,0.1,5,0.1,7.6-0.2c4-0.6,6.7-2.6,8.1-5.9C43.8,31.4,44.1,29,43.9,26z"/>
		<circle class="st1" cx="18.8" cy="40.4" r="1.8"/>
	</g>
	<path class="st2" d="M28.5,3.2L26.8,5l-20.6,21l-2.3,2.4V16.1c0-1.9,1.1-3.7,2.8-4.7l11.8-6.6L19.9,4l2.2-1.2
		c0.4-0.2,0.9-0.4,1.3-0.5c1.4-0.4,2.9-0.2,4.2,0.5L28.5,3.2L28.5,3.2z"/>
	<g>
		<path class="st1" d="M47.2,15.8v5c0,0.7-0.6,1.2-1.3,1.2c-0.7,0-1.3-0.6-1.2-1.3v-4.9c0-1.2-0.7-2.3-1.7-2.9l-1.5-0.9L34,7.9
			l-0.4-0.3l-6.1-3.4L27.1,4l-0.1,0l-0.3-0.2c-1-0.6-2.3-0.6-3.4,0l-5.5,3.1l-4,2.3L12.2,10L7,12.9c-1,0.6-1.7,1.7-1.7,2.9v18.4
			c0,0.5,0.1,0.9,0.3,1.4c0.1,0.2,0.2,0.3,0.3,0.5c0.3,0.4,0.7,0.8,1.1,1l3.8,2.2l0,0l1.1,0.6l1.6,0.9l9.8,5.5
			c0.3,0.2,0.6,0.3,0.9,0.3c0.2,0.1,0.5,0.1,0.7,0.1c0.6,0,1.2-0.1,1.8-0.4l3.8-2.1l0.4-0.2l0.3-0.2c0.6-0.3,1.3-0.1,1.7,0.5
			c0.3,0.6,0.1,1.3-0.5,1.6L32,46.1l-4,2.3c-0.4,0.2-0.9,0.4-1.4,0.6c-0.2,0-0.4,0.1-0.5,0.1c-0.3,0.1-0.7,0.1-1,0.1
			c-1,0-2-0.3-2.9-0.8l-6.6-3.7L14.4,44l-2.7-1.5l-6-3.3c-0.7-0.4-1.2-0.8-1.7-1.4c-0.1-0.1-0.2-0.3-0.3-0.4c-0.6-0.9-1-2-1-3.2
			V15.8c0-2,1.1-3.9,2.9-5l12.5-7l1.5-0.9l2.3-1.3c0.5-0.3,0.9-0.4,1.4-0.6c1.5-0.4,3.1-0.2,4.5,0.6l0.8,0.5l0.1,0l0.4,0.2l6.1,3.4
			l0.5,0.3l6.6,3.8l1.9,1C46.1,11.9,47.2,13.8,47.2,15.8z"/>
	</g>
	<g>
		<g>
			<polygon class="st1" points="19.8,3.9 14,9.7 6.1,17.9 3.9,20.2 3.7,20 3.7,19.7 6.1,17.3 12.6,10.6 18.3,4.7 			"/>
		</g>
		<g>
			<polygon class="st1" points="28.7,3.3 27,5 6.1,26.2 3.9,28.4 3.7,28.2 3.7,27.9 6.1,25.5 26.6,4.8 28.3,3.1 28.3,3.1 			"/>
		</g>
		<g>
			<path class="st1" d="M34.9,6.8l-1.7,1.7L17,24.7l-0.3,0.3l-4,4l-0.3,0.3l-4,4l-3.4,3.4c-0.1-0.1-0.2-0.2-0.3-0.4l1.7-1.7
				L32.7,8.3l1.7-1.7L34.9,6.8z"/>
		</g>
	</g>
</g>
</svg>
