<?xml version="1.0" encoding="utf-8"?>
<!-- Generator: Adobe Illustrator 25.2.3, SVG Export Plug-In . SVG Version: 6.00 Build 0)  -->
<svg version="1.1" id="Layer_1" xmlns="http://www.w3.org/2000/svg" xmlns:xlink="http://www.w3.org/1999/xlink" x="0px" y="0px"
	 viewBox="0 0 50 50" style="enable-background:new 0 0 50 50;" xml:space="preserve">
<style type="text/css">
	.st0{fill:#AFE55D;}
	.st1{fill:#C3FF68;}
	.st2{fill:#444444;}
</style>
<g>
	<g>
		<polygon class="st0" points="5.5,41.8 11.6,47.9 27.6,47.9 44.3,41.8 44.3,41.8 44.3,25.9 44.3,8.1 38.2,2 11.6,2 5.5,8.1 
			5.5,25.9 5.5,25.9 		"/>
	</g>
	<g>
		<polygon class="st1" points="38.2,2 38.2,2 11.6,2 5.5,8.1 5.5,13.9 		"/>
	</g>
	<g>
		<path class="st2" d="M30.1,22h-0.2c-0.3,0-0.6-0.2-0.8-0.7L29,21l-3.8-9.5c-0.4-1-1.2-1.5-2.4-1.5c-0.5,0-1,0.1-1.4,0.2l0.1,1.9
			H22c0.3,0,0.5,0.1,0.7,0.2c0.2,0.1,0.3,0.3,0.5,0.6l0.6,1.5l-3.4,9.5h2.8l2-5.9l1.5,4.2c0.3,0.7,0.6,1.2,1,1.5s1,0.4,1.6,0.4
			c0.4,0,0.7,0,1-0.1v-2H30.1z"/>
		<path class="st2" d="M38.8,0.8H11.1L4.2,7.6v18.3l0,0v16.4l6.8,6.8h21.4c0.7,0,1.2-0.6,1.2-1.2s-0.6-1.2-1.2-1.2H12.2V32.1h25.4
			v14.5c0,0.1,0.1,0.1,0.1,0.1l0.1-0.1V32l5.2-4.8v14.6c0,0.7,0.6,1.2,1.2,1.2s1.2-0.6,1.2-1.2V25.9V7.6L38.8,0.8z M6.7,41.3V27.2
			L12,32v14.5L6.7,41.3z M37.7,31.9H12.1l-5.4-5v-1l0,0V8.6l5.4-5.4h25.6l5.4,5.4v17.3v1L37.7,31.9z"/>
	</g>
</g>
</svg>
