<svg xmlns="http://www.w3.org/2000/svg" version="1" viewBox="0 0 300 300"><circle cx="145.127" cy="154.873" r="145.127" fill="#CC0E0E"/><path fill="#EAEAEA" d="M299.532 67.777c-2.517 3.357-10.154 13.223-32.037 40.522l-7.554 9.404c-.798.997-1.594 1.983-2.368 2.944-.221.278-.452.553-.674.832-25.409 31.566-34.333 42.216-37.244 45.603-.757.881-2.068 1.069-3.012.399-2.513-1.722-8.538-6.105-22.48-17.099-1.776-1.41-3.688-2.922-5.744-4.554-2.954-2.363-6.215-4.965-9.791-7.837-.819-.657-1.666-1.326-2.516-2.018a5307.384 5307.384 0 01-10.621-8.586c-11.527-9.361-18.686-15.358-23.132-19.167-.292-.247-.563-.489-.829-.715-2.443-2.122-3.956-3.479-4.891-4.354a2.281 2.281 0 01-.248-3.033c2.767-3.681 11.693-15.235 39.052-49.252.178-.219.359-.446.541-.675a3646.09 3646.09 0 007.108-8.838c1.593-1.981 3.12-3.868 4.569-5.662l.009.003C206.564 12.299 213.714 3.762 216.268.788a2.276 2.276 0 013.02-.385c3.405 2.352 13.247 9.575 40.519 31.504 27.287 21.945 36.442 30.008 39.471 32.831.853.793.967 2.1.254 3.039"/><path fill="#50AFEB" d="M198.029 108.729c-18.054-14.521-28.022-22.843-33.459-27.517 5.266-6.757 9.871-12.713 19.421-24.589 19.436-24.164 29.857-36.893 35.329-43.484 5.729 4.308 15.999 12.261 34.051 26.779 18.049 14.517 28.019 22.841 33.457 27.516-5.27 6.764-15.472 19.681-34.896 43.833-9.551 11.874-14.375 17.642-19.852 24.241-5.733-4.309-15.999-12.259-34.051-26.779"/><path fill="#54C654" d="M286.826 67.437c-5.273 6.758-15.469 19.682-34.899 43.83-9.544 11.874-14.368 17.64-19.842 24.238a486.948 486.948 0 01-7.19-5.495 790.197 790.197 0 01-5.691-4.426c-5.48-4.295-12.394-9.799-21.173-16.854-18.056-14.517-28.031-22.845-33.46-27.513 5.263-6.763 9.871-12.716 19.415-24.59 19.435-24.168 29.859-36.9 35.329-43.489 5.735 4.311 15.998 12.264 34.053 26.783a2188.22 2188.22 0 0122.415 18.231c2.084 1.729 3.916 3.257 5.538 4.61a848.206 848.206 0 015.505 4.675"/><path fill="#67CE67" d="M275.784 58.152l-44.233 52.716c2.523.93 4.912 1.815 7.176 2.656l42.594-50.763c-1.621-1.352-3.453-2.88-5.537-4.609"/><path fill="#D9D9D9" d="M247.468 116.797c-.898 1.108-1.748 2.155-2.56 3.152l-1.529 1.877c3.801 1.427 7.164 2.704 10.143 3.846l3.376-4.191c.222-.279.454-.554.674-.832a1380.326 1380.326 0 00-10.104-3.852"/><path fill="#4EB84E" d="M238.727 113.525l-4.196 5c3.183 1.18 6.129 2.279 8.847 3.3a1800.103 1800.103 0 004.088-5.029 2203.129 2203.129 0 00-8.739-3.271M198.78 98.976l-.55 6.33a3598.974 3598.974 0 0129.121 10.569l4.2-5.005a3612.178 3612.178 0 00-13.576-4.972 3049.474 3049.474 0 00-19.195-6.922"/><path fill="#60BF60" d="M231.551 110.869l-4.2 5.005c2.521.927 4.911 1.81 7.181 2.651l4.196-5a3037.22 3037.22 0 00-7.177-2.656"/><path fill="#D9D9D9" d="M187.66 35.693c-1.449 1.794-2.975 3.681-4.569 5.662 6.532.742 10.027 1.231 11.88 1.535l.075.013c1.393-1.725 2.722-3.368 3.991-4.937a8.471 8.471 0 00-1.536-.74 8.877 8.877 0 00-1.541-.408c-1.894-.306-4.681-.678-8.292-1.121l-.008-.004"/><path fill="#4EB84E" d="M199.037 37.965c-1.269 1.569-2.599 3.212-3.991 4.937a2.26 2.26 0 011.827 2.369c-.218 4.193-1.074 16.637-4.071 51.496h.001c-.001.029-.004.057-.006.085 1.896.67 3.888 1.377 5.983 2.124l.126-1.459.021-.177.004-.194c3.071-35.63 3.872-47.591 4.078-51.517.177-3.167-1.374-6.069-3.972-7.664"/><path fill="#48AB48" d="M192.797 96.852l-.33 3.798-.218 2.524c1.897.673 3.891 1.383 5.982 2.132l.55-6.33c-2.096-.747-4.089-1.454-5.984-2.124"/><path fill="#EAEAEA" d="M183.486 174.24c-4.137-.046-16.35-.576-51.208-3.639-4.947-.426-9.441-.841-13.513-1.211l-.093-.012c-24.57-2.251-33.965-3.511-37.466-4.077a2.293 2.293 0 01-1.893-2.379c.256-4.626 1.258-19.36 5.123-63.519 3.857-44.173 5.442-58.857 5.983-63.457a2.29 2.29 0 012.299-2.009c4.129.065 16.323.589 51.188 3.631 19.061 1.663 31.318 2.908 39.185 3.787 6.532.742 10.027 1.231 11.88 1.535a2.26 2.26 0 011.902 2.381c-.218 4.193-1.074 16.637-4.071 51.496l-.007.084c-.32 3.722-.665 7.694-1.034 11.943a6683.683 6683.683 0 01-3.342 37.035c-1.523 16.343-2.299 23.451-2.655 26.406-.136 1.149-1.122 2.033-2.278 2.005"/><path fill="#AB67A9" d="M135.324 135.778c-23.081-2.02-35.996-3.389-43.113-4.247.615-8.544 1.128-16.055 2.456-31.236 2.703-30.894 4.279-47.269 5.158-55.79 7.159.392 20.116 1.286 43.194 3.304 23.075 2.019 35.99 3.389 43.11 4.247-.616 8.551-1.906 24.962-4.607 55.837-1.327 15.18-2.126 22.658-3.006 31.187-7.161-.39-20.114-1.284-43.192-3.302"/><path fill="#EDEDED" d="M92.302 130.27l-.092 1.265c1.404.17 3.032.357 4.918.564-1.886-.21-3.514-.399-4.916-.568.029-.423.06-.843.09-1.261m.9-12.258l-.01.014-.004.009c-.228 3.04-.42 5.74-.609 8.371.191-2.64.389-5.351.623-8.394"/><path fill="#B679B5" d="M142.399 47.759l-49.197 70.253a1806.79 1806.79 0 00-.623 8.394l-.277 3.864-.091 1.261a547.725 547.725 0 005.797.664L156.262 49c-3.99-.362-8.387-.766-13.238-1.189-.209-.022-.414-.03-.625-.052"/><path fill="#EDEDED" d="M104.464 132.882l-.004.005c5.39.555 12.152 1.206 20.624 1.979a1808.256 1808.256 0 01-20.62-1.984m58.314-83.276c9.216.881 15.816 1.579 20.517 2.118l.002-.003c-4.701-.533-11.303-1.236-20.519-2.115"/><path fill="#B679B5" d="M162.778 49.606l-58.313 83.276a1781.13 1781.13 0 0020.622 1.983l13.131-18.756c5.566-14.955 8.335-22.094 9.68-25.457a8.99 8.99 0 0110.786-5.322c.272.077.572.163.902.259l23.711-33.866c-4.702-.539-11.302-1.237-20.519-2.116"/><path fill="#48AB48" d="M192.801 96.767l-.007.084.003.001.007-.085-.003-.001"/><path fill="#439F43" d="M192.794 96.851l-.328 3.799.33-3.798-.002-.001"/><path fill="#D9D9D9" d="M182.792 93.249l-.552 6.404c3.004 1.046 6.327 2.214 10.009 3.521l.218-2.524.328-3.799.007-.084c-3.692-1.31-7.018-2.477-10.01-3.518"/><path fill="#EDEDED" d="M119.013 169.412c1.932.178 3.957.363 6.08.554l.001-.001c-2.123-.192-4.15-.378-6.081-.553m-.34-.034l-.001.003.084.007-.083-.01"/><path fill="#D9D9D9" d="M131.085 135.404a9503.857 9503.857 0 00-10.209 27.922l-2.204 6.052.083.011.256.024c1.932.175 3.958.361 6.081.553l1.64-4.509a9582.823 9582.823 0 0110.783-29.487l-2.194-.191-4.236-.375"/><path fill="#9F609D" d="M152.727 95.384l-14.511 20.726a5154.575 5154.575 0 00-7.131 19.295c1.373.122 2.786.247 4.239.374l2.194.191c8.723-23.715 13.089-35.167 15.209-40.586m6.857-9.794l-4.005 5.721a2.726 2.726 0 011.412.022c3.106.874 10.06 3.029 25.248 8.321l.552-6.404c-13.018-4.526-19.762-6.654-23.207-7.66"/><path fill="#A970A8" d="M156.241 84.993a8.988 8.988 0 00-8.344 5.659c-1.346 3.363-4.115 10.502-9.68 25.457l14.511-20.726c.39-.996.704-1.789.956-2.416a2.759 2.759 0 011.896-1.657l4.005-5.721c-.33-.096-.629-.182-.902-.259a9.082 9.082 0 00-2.442-.337"/><path fill="#EAEAEA" d="M222.628 282.654a2.757 2.757 0 01-3.308 1.635c-4.834-1.361-18.97-5.815-58.875-20.34-39.909-14.525-53.601-20.2-58.177-22.263a2.757 2.757 0 01-1.485-3.377c1.757-5.35 7.55-22.296 25.951-72.852 18.402-50.559 24.856-67.263 26.949-72.488a2.757 2.757 0 013.308-1.635c4.829 1.359 18.956 5.812 58.876 20.341 39.917 14.529 53.602 20.2 58.175 22.263a2.757 2.757 0 011.483 3.379c-1.761 5.365-7.571 22.359-25.949 72.851-18.375 50.487-24.85 67.241-26.948 72.486"/><path fill="#FCD206" d="M174.957 224.078c-26.418-9.616-41.125-15.276-49.197-18.518 3.404-9.821 6.364-18.463 12.689-35.84 12.871-35.362 19.861-54.059 23.567-63.771 8.267 2.707 23.175 7.824 49.589 17.438 26.414 9.613 41.12 15.275 49.196 18.518-3.407 9.829-10.074 28.658-22.936 63.999-6.324 17.377-9.609 25.888-13.319 35.61-8.272-2.707-23.174-7.822-49.589-17.436"/><path fill="#EDEDED" d="M127.771 199.752l-2.016 5.811c.779.317 1.627.648 2.542 1.012l-2.538-1.015 2.012-5.808m20.216-56.132l-.004.005-.005.01c-.827 2.256-1.691 4.613-2.594 7.081l2.603-7.096m27.732-33.045l-.007.009a1894.5 1894.5 0 0116.206 5.704 1972.73 1972.73 0 00-16.199-5.713"/><path fill="#FCD80B" d="M175.712 110.584l-27.725 33.037c-.83 2.26-1.697 4.622-2.603 7.096-2.095 5.727-4.398 12.04-6.932 19.003a1921.181 1921.181 0 00-10.681 30.032l-2.012 5.807c.783.314 1.628.652 2.54 1.013l72.945-86.934c-3.324-1.2-6.428-2.314-9.326-3.35a1872.284 1872.284 0 00-16.206-5.704"/><path fill="#EDEDED" d="M136.412 209.737a1707.924 1707.924 0 01.001-.001m73.098-87.113c.688.253 1.386.507 2.093.764 3.513 1.279 6.82 2.488 9.931 3.63l.005-.005c-3.106-1.142-6.417-2.346-9.931-3.625l-2.098-.764"/><path fill="#FCD80B" d="M209.511 122.623l-73.098 87.114c3.391 1.302 7.336 2.801 11.926 4.522l73.196-87.242a3988.254 3988.254 0 00-9.931-3.63l-2.095-.762"/></svg>