<?xml version="1.0" encoding="utf-8"?>
<!-- Generator: Adobe Illustrator 26.5.0, SVG Export Plug-In . SVG Version: 6.00 Build 0)  -->
<svg version="1.1" id="Layer_1" xmlns="http://www.w3.org/2000/svg" xmlns:xlink="http://www.w3.org/1999/xlink" x="0px" y="0px"
	 viewBox="0 0 50 50" style="enable-background:new 0 0 50 50;" xml:space="preserve">
<style type="text/css">
	.st0{fill:#FDCF72;}
	.st1{fill:#FCC34F;}
	.st2{fill:#E589EF;}
	.st3{fill:none;stroke:#444444;stroke-width:2.5;stroke-linecap:round;stroke-linejoin:round;stroke-miterlimit:10;}
	.st4{fill:#444444;}
	.st5{fill:none;stroke:#444444;stroke-linecap:round;stroke-linejoin:round;stroke-miterlimit:10;}
	.st6{fill:none;stroke:#444444;stroke-width:0.25;stroke-miterlimit:10;}
	.st7{fill:none;stroke:#444444;stroke-linecap:round;stroke-miterlimit:10;}
	.st8{fill:none;stroke:#444444;stroke-miterlimit:10;}
</style>
<g>
	<polygon class="st0" points="33.9,10 39.4,14.1 40.8,19.2 8.3,31.1 8.9,20.8 13.3,13.1 23.7,8.3 	"/>
	<polygon class="st1" points="42.5,22.3 42.3,27.9 13.1,38.4 9.8,33.5 8.2,27.4 40.5,16.1 41.4,18.5 	"/>
	<path class="st2" d="M4.7,36.3"/>
	<path class="st3" d="M40.9,31.5c0.7-1.8,1.2-3.6,1.3-5.5c0.2,0,0.4-0.2,0.5-0.4c0.7,0.2,1.8,0.3,2.9,0.5c2.3,0.4,3-0.7,3-1.2
		c0-0.6-0.7-1.6-3-1.2c-1.1,0.2-2.1,0.4-2.9,0.5c-0.1-0.2-0.3-0.4-0.5-0.4c-0.1-1.9-0.6-3.7-1.3-5.5c-0.7-1.7-1.7-3.2-2.9-4.6
		c0.1-0.2,0.2-0.4,0.1-0.6c0.6-0.4,1.5-1,2.4-1.7c1.9-1.3,1.7-2.6,1.3-3c-0.4-0.4-1.7-0.6-3,1.3c-0.6,1-1.3,1.8-1.7,2.4
		c-0.2-0.1-0.5-0.1-0.6,0.1c-1.4-1.2-2.9-2.2-4.6-2.9c-1.8-0.7-3.6-1.2-5.5-1.3c0-0.2-0.2-0.4-0.4-0.5c0.2-0.7,0.3-1.8,0.5-2.9
		c0.4-2.3-0.7-3-1.2-3c-0.6,0-1.6,0.7-1.2,3c0.2,1.1,0.4,2.1,0.5,2.9c-0.2,0.1-0.4,0.3-0.4,0.5c-1.9,0.1-3.7,0.6-5.5,1.3
		c-1.7,0.7-3.2,1.7-4.6,2.9c-0.2-0.1-0.4-0.2-0.6-0.1c-0.4-0.6-1-1.5-1.7-2.4c-1.3-1.9-2.6-1.7-3-1.3c-0.4,0.4-0.6,1.7,1.3,3
		c1,0.6,1.8,1.3,2.4,1.7c-0.1,0.2-0.1,0.5,0.1,0.6c-1.2,1.4-2.2,2.9-2.9,4.6c-0.7,1.8-1.2,3.6-1.3,5.5c-0.2,0-0.4,0.2-0.5,0.4
		C7.1,24,6.1,23.9,5,23.6c-2.3-0.4-3,0.7-3,1.2c0,0.6,0.7,1.6,3,1.2c1.1-0.2,2.1-0.4,2.9-0.5C7.9,25.8,8.1,26,8.3,26
		c0.1,1.9,0.6,3.7,1.3,5.5c0.7,1.7,1.7,3.2,2.9,4.6c-0.1,0.2-0.2,0.4-0.1,0.6c-0.6,0.4-1.5,1-2.4,1.7c-1.9,1.3-1.7,2.6-1.3,3
		c0.4,0.4,1.7,0.6,3-1.3c0.6-1,1.3-1.8,1.7-2.4c0.2,0.1,0.5,0.1,0.6-0.1c1.4,1.2,2.9,2.2,4.6,2.9c1.8,0.7,3.6,1.2,5.5,1.3
		c0,0.2,0.2,0.4,0.4,0.5c-0.2,0.7-0.3,1.8-0.5,2.9c-0.4,2.3,0.7,3,1.2,3c0.6,0,1.6-0.7,1.2-3c-0.2-1.1-0.4-2.1-0.5-2.9
		c0.2-0.1,0.4-0.3,0.4-0.5c1.9-0.1,3.7-0.6,5.5-1.3c0.8-0.3,1.5-0.7,2.2-1.1"/>
	<g>
		<g>
			<g>
				<g>
					<g>
						<g>
							<path class="st4" d="M22,25.6c0.4,0,0.8,0,1.2,0.1c0.1,0.4,0.4,0.8,0.8,1l-4.3,8.7c-2.6-1.3-3.7-4.4-2.4-7
								c0.4-0.9,1.1-1.6,1.9-2.1C20,25.9,21,25.6,22,25.6 M22,24.6L22,24.6c-1.2,0-2.3,0.3-3.3,0.9c-1,0.6-1.7,1.5-2.3,2.5
								c-1.5,3.1-0.2,6.8,2.8,8.3c0.1,0.1,0.3,0.1,0.4,0.1c0.4,0,0.7-0.2,0.9-0.5l4.3-8.7c0.2-0.4,0.1-0.9-0.3-1.2
								c-0.2-0.1-0.3-0.3-0.4-0.5c-0.1-0.3-0.4-0.5-0.7-0.6C23,24.7,22.5,24.6,22,24.6L22,24.6z"/>
						</g>
						<g>
							<path class="st4" d="M30.9,14.3c1.7,0.8,2.8,2.4,3,4.1c0.1,0.9,0,1.9-0.4,2.8c-0.9,1.9-2.8,3-4.7,3c-0.6,0-1.1-0.1-1.7-0.3
								c-0.1-0.2-0.2-0.3-0.4-0.5L30.9,14.3 M30.9,13.3c-0.4,0-0.7,0.2-0.9,0.6l-4.3,9.2c-0.2,0.4-0.1,0.8,0.2,1.1
								c0.1,0.1,0.1,0.2,0.2,0.3c0.1,0.2,0.3,0.4,0.5,0.4c0.6,0.2,1.3,0.3,2,0.3c2.4,0,4.6-1.4,5.6-3.6c0.5-1,0.7-2.2,0.5-3.3
								c-0.3-2.1-1.6-4-3.5-4.9C31.2,13.4,31.1,13.3,30.9,13.3L30.9,13.3z"/>
						</g>
					</g>
					<g>
						<g>
							<path class="st4" d="M19.5,16.3c0.8,0,1.5,0.2,2.3,0.5c0.9,0.4,1.6,1.1,2.1,1.9c0.8,1.3,1,2.8,0.6,4.3
								c-0.3,0.1-0.6,0.3-0.8,0.5l-8.8-4.3C15.8,17.3,17.6,16.3,19.5,16.3 M19.5,15.3L19.5,15.3c-2.4,0-4.5,1.4-5.6,3.5
								c-0.2,0.5,0,1,0.4,1.3l8.8,4.3c0.1,0.1,0.3,0.1,0.4,0.1c0.3,0,0.5-0.1,0.7-0.3c0.1-0.1,0.3-0.2,0.4-0.3
								c0.3-0.1,0.5-0.3,0.6-0.6c0.5-1.7,0.3-3.6-0.7-5.1c-0.6-1-1.5-1.7-2.5-2.3C21.4,15.5,20.5,15.3,19.5,15.3L19.5,15.3z"/>
						</g>
						<g>
							<path class="st4" d="M26.9,26.2l9.1,4.2c-0.8,1.7-2.4,2.8-4.1,3c-0.2,0-0.4,0-0.6,0c-0.7,0-1.5-0.2-2.2-0.5
								c-2.4-1.1-3.5-3.7-2.8-6.1C26.6,26.7,26.8,26.5,26.9,26.2 M26.9,25.3c-0.3,0-0.6,0.2-0.8,0.4c-0.1,0.1-0.2,0.2-0.3,0.3
								c-0.2,0.1-0.4,0.3-0.4,0.6c-0.8,2.9,0.6,6,3.3,7.3c0.8,0.4,1.7,0.6,2.6,0.6c0.2,0,0.5,0,0.7,0c2.1-0.3,4-1.6,4.9-3.5
								c0.1-0.2,0.1-0.5,0-0.7s-0.3-0.4-0.5-0.5l-9.1-4.2C27.2,25.3,27.1,25.3,26.9,25.3L26.9,25.3z"/>
						</g>
					</g>
				</g>
				<circle class="st5" cx="25.2" cy="24.9" r="1.5"/>
			</g>
		</g>
	</g>
	<circle class="st6" cx="25.2" cy="24.9" r="14.2"/>
	<path class="st6" d="M29.1,17.1c-1.1-0.6-2.4-0.9-3.8-0.9c-0.9,0-1.8,0.1-2.6,0.4"/>
	<path class="st6" d="M33.1,28.4c0.5-1.1,0.7-2.2,0.7-3.5c0-0.9-0.1-1.8-0.4-2.6"/>
	<path class="st6" d="M21.6,32.7c1.1,0.5,2.4,0.8,3.7,0.8c1.1,0,2.1-0.2,3.1-0.6"/>
	<path class="st6" d="M17.5,21.2c-0.5,1.1-0.8,2.4-0.8,3.7c0,1.1,0.2,2.1,0.5,3"/>
	<path class="st7" d="M41.1,30.9c1.1-2.4,0.2-3.2,0.2-6C41.2,16,34,8.8,25.1,8.8S9,16,9,24.9S16.2,41,25.1,41c3.4,0,6.3-0.3,8.9-2.1
		"/>
	<line class="st8" x1="1.9" y1="24.9" x2="16.6" y2="24.9"/>
	<line class="st8" x1="48.6" y1="24.9" x2="33.9" y2="24.9"/>
	<line class="st8" x1="25.3" y1="1" x2="25.3" y2="16.3"/>
	<line class="st8" x1="25.2" y1="48.6" x2="25.2" y2="33.5"/>
	<line class="st8" x1="8.8" y1="41.4" x2="15.2" y2="35"/>
	<line class="st8" x1="8.8" y1="8.4" x2="15.2" y2="14.8"/>
	<line class="st8" x1="41.7" y1="8.4" x2="35.3" y2="14.9"/>
</g>
</svg>
