<?xml version="1.0" encoding="utf-8"?>
<!-- Generator: Adobe Illustrator 26.5.0, SVG Export Plug-In . SVG Version: 6.00 Build 0)  -->
<svg version="1.1" id="Camada_1" xmlns="http://www.w3.org/2000/svg" xmlns:xlink="http://www.w3.org/1999/xlink" x="0px" y="0px"
	 viewBox="0 0 50 50" style="enable-background:new 0 0 50 50;" xml:space="preserve">
<style type="text/css">
	.st0{fill:#FCC34F;}
	.st1{fill:#FDCF72;}
	.st2{fill:none;stroke:#494949;stroke-width:2.5;stroke-linecap:round;stroke-linejoin:round;stroke-miterlimit:10;}
	.st3{fill:none;stroke:#494949;stroke-linecap:round;stroke-linejoin:round;stroke-miterlimit:10;}
</style>
<g>
	<path class="st0" d="M39.9,2.5L21.4,9.3c-0.2,0.2-0.4,0.4-0.7,0.5c0,0-0.1,0.1-0.1,0.1c-0.8,0.9-1.5,1.9-2.4,2.7c0,0-0.1,0-0.1,0.1
		c-0.4,0.7-0.8,1.4-1.5,1.9c-0.5,0.3-1.1,0.2-1.5-0.2c-0.7-0.7-1.3-1.4-1.9-2.1L2.5,16.1v5.7c0.4,0,0.7,0.1,1,0.3
		c1.8,2.1,4.1,3.7,5.9,5.8c0.9,1,1.7,2.1,2.6,3.1c0.6,0.7,1.5,1.5,1.8,2.4c0.3,1,0.1,1.9-0.5,2.7l30.4-11.1
		c-1.1-1.1-1.7-2.7-2.8-3.8c-1.3-1.2-4-2.3-4.5-4.2c-1.1,0.8-2.5-0.8-1.5-1.9c1.7-1.9,3.6-3.6,5.6-5.2c0.2-0.3,0.4-0.7,0.6-1
		c1-1.7,2.2-3.9,4.3-4.6v-2H39.9z"/>
	<path class="st1" d="M28.3,2.5c-0.6,1.2-2.1,2.1-3.2,2.8c-0.5,0.6-0.9,1.2-1.4,1.7c-0.9,1-1.8,1.9-2.9,2.7c0,0-0.1,0.1-0.1,0.1
		c-0.8,0.9-1.5,1.9-2.4,2.7c0,0-0.1,0-0.1,0.1c-0.4,0.7-0.8,1.4-1.5,1.9c-0.5,0.3-1.1,0.2-1.5-0.2c-1.6-1.5-2.7-3.3-4.2-4.8
		C9.6,8.3,8,7.3,6.9,5.7H6V4.5H2.5v17.3c0.4,0,0.7,0.1,1,0.3C3.8,22.4,4,22.7,4.3,23L40.5,10c0.2-0.3,0.4-0.6,0.6-0.9
		c1-1.7,2.2-3.9,4.3-4.6v-2H28.3z"/>
	<g>
		<path class="st2" d="M25.1,25.1l-8.5,8.5c-0.5,0.5-1.4,0.5-2,0L6.1,25l-2.2-2.2C3.3,22.2,3,21.4,3,20.6L2.7,6.3
			c0-1.4,1.6-2.1,2.6-1.1l7.1,7.1L25.1,25.1z"/>
		<line class="st3" x1="15.3" y1="25" x2="6.1" y2="25"/>
		<line class="st3" x1="25.1" y1="25.1" x2="19.2" y2="25"/>
		<path class="st2" d="M34,16.1L25,25l-8.5-8.5c-0.5-0.5-0.5-1.4,0-2L25.1,6l2.2-2.2c0.6-0.6,1.3-0.9,2.1-0.9l14.2-0.3
			c1.4,0,2.1,1.6,1.1,2.6l-7.1,7.1L37,13.1"/>
		<line class="st3" x1="25" y1="25" x2="25.1" y2="6"/>
		<path class="st2" d="M25,25l8.5-8.5c0.5-0.5,1.4-0.5,2,0l8.6,8.6l2.2,2.2c0.6,0.6,0.9,1.3,0.9,2.1l0.3,14.2c0,1.4-1.6,2.1-2.6,1.1
			l-7.1-7.1L25,25z"/>
		<line class="st3" x1="25" y1="25" x2="44" y2="25.1"/>
		<path class="st2" d="M25.1,25.1l8.5,8.5c0.5,0.5,0.5,1.4,0,2L25,44l-2.2,2.2c-0.6,0.6-1.3,0.9-2.1,0.9L6.4,47.5
			c-1.4,0-2.1-1.6-1.1-2.6l7.1-7.1L25.1,25.1z"/>
		<line class="st3" x1="25.1" y1="25.1" x2="25" y2="44"/>
	</g>
</g>
</svg>
