<?xml version="1.0" encoding="utf-8"?>
<!-- Generator: Adobe Illustrator 28.3.0, SVG Export Plug-In . SVG Version: 6.00 Build 0)  -->
<svg version="1.1" id="Layer_1" xmlns="http://www.w3.org/2000/svg" xmlns:xlink="http://www.w3.org/1999/xlink" x="0px" y="0px"
	 viewBox="0 0 50 50" style="enable-background:new 0 0 50 50;" xml:space="preserve">
<style type="text/css">
	.st0{fill:#D1BD00;}
	.st1{fill:#F9F941;}
	.st2{fill:#444444;}
	.st3{fill:none;stroke:#444444;stroke-width:1.5;stroke-linecap:round;stroke-linejoin:round;stroke-miterlimit:10;}
</style>
<polygon class="st0" points="27.9,15.4 35.8,17.9 29.1,22.6 29.2,30.8 22.6,25.9 14.8,28.5 17.5,20.8 12.6,14.2 20.8,14.3 25.5,7.6 
	"/>
<g>
	<path class="st1" d="M48.3,25.7c0.3-0.5,0.3-1.1,0-1.6L37.5,5.3c0-0.1-0.1-0.1-0.1-0.1L13.6,4.8L2.3,24.1c-0.3,0.5-0.3,1.1,0,1.6
		l8.1,14.1l37.7-13.7C48.1,26.1,48.3,25.7,48.3,25.7z"/>
	<path class="st2" d="M49.4,23.4L38.6,4.6c-0.5-0.9-1.4-1.4-2.5-1.4H14.5c-1,0-2,0.5-2.5,1.4L1.2,23.4c-0.5,0.9-0.5,2,0,2.8L12,44.9
		c0.5,0.9,1.4,1.4,2.5,1.4h21.6c1,0,2-0.5,2.5-1.4l2-3.5c0.3-0.6,0.1-1.4-0.5-1.7s-1.4-0.1-1.7,0.5l-2,3.5c-0.1,0.1-0.2,0.2-0.3,0.2
		H14.5c-0.1,0-0.2-0.1-0.3-0.2L3.4,25c-0.1-0.1-0.1-0.2,0-0.3L14.2,5.9c0.1-0.1,0.2-0.2,0.3-0.2h21.6c0.1,0,0.2,0.1,0.3,0.2
		l10.8,18.7c0.1,0.1,0.1,0.2,0,0.3l-1,1.7c-0.3,0.6-0.1,1.4,0.5,1.7c0.6,0.3,1.4,0.1,1.7-0.5l1-1.7C49.9,25.3,49.9,24.3,49.4,23.4z"
		/>
	<path class="st2" d="M34.2,42.2h-18c-0.7,0-1.3-0.4-1.7-1l-9-15.6c-0.3-0.6-0.3-1.3,0-1.9l9-15.6c0.3-0.6,1-1,1.7-1h18
		c0.7,0,1.3,0.4,1.7,1l9,15.6c0.3,0.6,0.3,1.3,0,1.9l-9,15.6C35.5,41.8,34.9,42.2,34.2,42.2z M16.2,7.9c-0.4,0-0.8,0.2-1,0.6
		l-9,15.6c-0.2,0.4-0.2,0.8,0,1.2l9,15.6c0.2,0.4,0.6,0.6,1,0.6h18c0.4,0,0.8-0.2,1-0.6l9-15.6c0.2-0.4,0.2-0.8,0-1.2l-9-15.6
		c-0.2-0.4-0.6-0.6-1-0.6C34.2,7.9,16.2,7.9,16.2,7.9z"/>
	<path class="st3" d="M24.5,15.4v1.5 M20.6,16.1v1.6 M28.4,16.1v1.6 M31.5,20.8h3.1v3.1c0,0.9-0.7,1.6-1.6,1.6h-2"/>
	<path class="st3" d="M24.5,30.2c-3.9,0-7-3.1-7-7v-2.4h14.1v2.3C31.5,27.1,28.4,30.2,24.5,30.2z M17.5,32.5h14"/>
</g>
</svg>
