<svg xmlns="http://www.w3.org/2000/svg" id="Camada_1" data-name="Camada 1" viewBox="0 0 49.4 49.4"><defs><style>.cls-2{fill:none;stroke:#444;stroke-linecap:round;stroke-linejoin:round;stroke-width:2.5px}</style></defs><path fill="#fcc34f" d="M47.65 19.71c-.16-.79-2.69-7.49-3.21-8.1l-3-3.51-.2.07-7.63-5.75-7.78-.67c-3.2 0-14.54.27-21.43 10.21L.46 22.56l-.19.07 3.96 13.41c.11.36 4.55 5.65 4.86 5.85l5.62 2.97L46.9 33.12c.65-.37 1.7-8.64.75-13.41z"/><path d="M31.94 47c-7.01 2.27-14.98 1.21-21.32-3.56C.26 35.66-1.83 20.96 5.96 10.61" class="cls-2"/><path d="M5.83 10.78c2.03-2.99 4.73-4.73 4.73-4.73l.66-.54c8.08-5.69 19.24-5.82 27.57.45 10.36 7.78 12.44 22.48 4.65 32.83" class="cls-2"/><g fill="none" stroke="#444" stroke-miterlimit="10"><path stroke-width=".5" d="M32.33 11.35l-2.39 2.39c-.07.07-.13.22-.13.32v6.05s-.02.06-.06.06h-1.04c-.09 0-.17.08-.17.17v.94s-.03.04-.05.02l-1.04-1.04a.185.185 0 01-.05-.12V19.1s.03-.06.06-.06h1.01c.1 0 .19-.09.19-.19V11.5c0-.1-.09-.19-.19-.19h-1.01c-.1 0-.19.09-.19.19v1.05s-.02.09-.05.12l-2.29 2.29c-.02.02-.07 0-.07-.03v-3.42c0-.1-.09-.19-.19-.19h-.95c-.07 0-.13-.06-.13-.13v-.95c0-.1-.09-.19-.19-.19h-7.35c-.1 0-.19.09-.19.19v2.31s-.02.09-.05.12l-.46.46s-.1.04-.14 0l-3.01-2.91c-.08-.07-.14-.05-.14.06v8.54c0 .1.06.25.13.32l2.3 2.3c.06.06.1.15.1.24v7.4c0 .1.06.13.13.06l2.39-2.39c.07-.07.13-.22.13-.32V14.07s.04-.08.08-.08h2.24s.08.04.08.08v1.01c0 .05-.02.1-.06.14L18.5 16.3c-.07.07-.13.22-.13.32v9.93c0 .1.06.13.13.06l2.32-2.32s.07 0 .07.03v2.17c0 .05-.02.1-.06.14l-2.29 2.29s-.07 0-.07-.03V28c0-.1-.09-.19-.19-.19h-1.01c-.1 0-.19.09-.19.19v2.3c0 .05-.02.1-.06.13l-1.06 1.06c-.07.07-.15.24-.15.34v4.87c0 .1.06.13.13.06l1.17-1.17s.09-.05.14-.05h1.02c.1 0 .19-.09.19-.19v-1.03c0-.06.02-.11.06-.15l2.34-2.34s.1-.04.14 0l3.61 3.61c.04.04.06.09.06.15v1.12c0 .11.06.13.14.06l.5-.5s.08-.03.11 0l.5.5c.07.07.14.05.14-.06v-1.13s.02-.09.05-.13l1.06-1.06c.08-.08.15-.25.15-.37v-4.84c0-.1-.06-.13-.13-.06l-1.06 1.06s-.08 0-.08-.03v-2.14s.03-.07.07-.07h1.01c.1 0 .19-.09.19-.19v-2.14s.05-.06.07-.03c.25.25 1.02 1.04 1.02 1.04.03.03.05.07.05.12v8.61c0 .1.09.19.19.19h2.28c.1 0 .19-.09.19-.19v-5.83s.05-.07.09-.04l1.05 1.07c.07.08.13.05.13-.05v-4.99c0-.1-.06-.25-.13-.32l-1.05-1.05s-.03-.09 0-.12l1.03-1.03c.07-.07.15-.24.15-.34v-11.2c0-.1-.06-.13-.13-.06zm-3.67 9.03s.04-.09.09-.09h1s.05.02.05.05v2.2s-.03.04-.05.02l-1.05-1.05s-.04-.07-.04-.11v-1.03zm1.31 2.59l1.01 1.01s.03.09 0 .12l-.92.92c-.07.07-.13.05-.13-.06v-1.97s.03-.04.05-.02zm-.04 2.35l1.08-1.08s.06 0 .06.02v4.65s-.05.07-.09.03l-2.27-2.33s-.05-.07-.05-.12V21.7s.03-.04.05-.02l1.05 1.05s.05.07.05.11v2.41c0 .1.06.13.13.06zm1.08-1.49l-1.04-1.04s-.05-.07-.05-.11v-2.32s.02-.05.05-.05h1s.09.04.09.09v3.42s-.04.04-.06.02zm-5.08 3.94h-3.47c-.07 0-.13-.06-.13-.13v-4.68c0-.07.06-.13.13-.13h2.22c.1 0 .19-.09.19-.19v-.82c0-.06.08-.09.12-.05l.89.89c.07.07.13.22.13.32v4.72s-.03.07-.07.07zm-4.87 3.65v-4.75c0-.05.02-.1.06-.13l.95-.95c.07-.07.13-.05.13.06v4.51c0 .1-.06.25-.13.32l-.96.96s-.04 0-.04-.02zm-1.21-16.29l1.12-1.12s.09-.06.14-.06h1.01s.09.04.09.09v4.64s-.05.07-.09.04l-1.05-1.05c-.07-.07-.13-.05-.13.06v4.85c0 .07-.05.12-.12.12h-.83c-.1 0-.19-.09-.19-.19v-7.24c0-.05.02-.1.06-.14zm2.34-2.52l-1.17 1.17s-.09.06-.14.06h-1.01s-.08-.04-.08-.08v-2.19c0-.08.06-.14.14-.14h3.41c.07 0 .13.06.13.13v2.14c0 .08-.06.14-.14.14h-.91s-.09-.04-.09-.09v-1.08c0-.1-.06-.13-.13-.06zm-.13.31c.07-.07.13-.05.13.06v.77s-.04.09-.09.09h-.89s-.04-.03-.02-.05l.86-.86zm2.67 3.68v4.57c0 .06-.08.09-.12.05l-.93-.93a.31.31 0 01-.09-.22V16.56c0-.04.05-.07.09-.07h.93c.06 0 .11.05.11.11zm-.99-.23s-.04-.03-.02-.04l.94-.94s.07 0 .07.03v.85c0 .06-.05.11-.11.11h-.88zm-1.42 6.23v-3.36s.05-.07.09-.04l.96.96c.06.06.09.14.09.22v2.22c0 .06-.04.1-.1.1h-.94c-.06 0-.1-.04-.1-.1zm1.27-.18V20.5s.05-.07.09-.04l.98.98s.03.07 0 .1l-.93.93c-.07.07-.13.05-.13-.06zm1.14-.6v.69c0 .1-.09.19-.19.19h-.76s-.06-.05-.03-.07l.86-.86s.12-.01.12.05zm-1.27-5.22v3.36s-.05.07-.09.04l-.96-.96a.31.31 0 01-.09-.22v-2.19c0-.07.06-.13.13-.13h.91c.05 0 .1.04.1.1zm-2.4 1.44c0-.1.06-.13.13-.06l.92.92c.06.06.09.14.09.22v3.49c0 .05-.06.09-.11.09h-.9c-.07 0-.12-.05-.12-.12v-4.54zm1.01 4.79s.02.02.01.03l-.02.02-.93.93s-.07 0-.07-.03v-.82c0-.07.05-.12.12-.12h.89zm2.9-6.33h2.19c.06 0 .11.05.11.11v2.14c0 .1-.06.25-.13.32l-2.15 2.15s-.12.01-.12-.05V16.6c0-.06.05-.11.11-.11zm2.42-4.95c0-.07.06-.12.12-.12h.89c.07 0 .12.06.12.12v7.23c0 .07-.06.12-.12.12h-.89c-.07 0-.12-.06-.12-.12v-7.23zm-.26 1.37c.07-.07.13-.05.13.06v3.33s-.03.06-.06.06h-2.24c-.06 0-.11-.05-.11-.11v-1s.02-.09.05-.12l2.22-2.22zm-2.54-1.49c.08 0 .14.06.14.14v3.51s-.02.09-.05.12l-1.08 1.08s-.02.02-.03.04c-.03.04-.07.06-.12.06h-1.06c-.03 0-.06-.03-.06-.06v-2.26s.04-.09.09-.09h.99c.1 0 .19-.09.19-.19v-2.22c0-.07.06-.13.13-.13h.88zm-8.78 1.41s.06 0 .06.02v.86h-.02c-.13-.12-.26-.25-.39-.37a.097.097 0 010-.14l.36-.36zm1.24.99h-.87c-.1 0-.19-.09-.19-.19v-.91s.02-.09.05-.12l.95-.95c.07-.07.13-.05.13.06v2.05s-.04.08-.08.08zm-1.19.28v8.31c0 .1-.06.13-.13.06l-.91-.91a.35.35 0 01-.1-.24v-7.22c0-.1.06-.25.13-.32l.36-.36s.1-.04.14 0l.37.36c.08.07.14.22.14.32zm-3.54 4.96a.537.537 0 01-.13-.32v-8.19c0-.1.06-.13.14-.06l2.79 2.7s.04.1 0 .14l-.39.39c-.07.07-.13.22-.13.32v7.16s-.05.07-.09.04l-2.19-2.19zm4.81 7.28c0 .1-.06.25-.13.32l-2.14 2.14c-.07.07-.13.05-.13-.06v-6.98s.05-.07.09-.04l1.05 1.05c.07.07.13.05.13-.06V14.01c0-.03.02-.06.05-.06h1s.08.04.08.08v12.31zm.13-12.6V11.4c0-.1-.06-.13-.13-.06l-1.08 1.08s-.06 0-.06-.02v-2.1c0-.08.06-.14.14-.14h7.2c.08 0 .14.06.14.14v.88c0 .07-.06.13-.13.13h-3.48c-.1 0-.19.09-.19.19v2.26s-.04.08-.08.08h-2.24s-.08-.04-.08-.08zm2.61.21h.89s.04.03.02.05l-.95.95s-.05 0-.05-.02v-.89s.04-.08.08-.08zm-1.21 12.32c-.07.07-.13.05-.13-.06v-9.58c0-.1.06-.25.13-.32l.95-.95s.05 0 .05.02v7.25c0 .1.09.19.19.19h.95c.07 0 .12.05.12.12v.97c0 .05-.02.1-.06.14l-2.21 2.21zm2.4-2.14c0-.05.02-.1.06-.14l1.06-1.06s.03 0 .03.01v2.22c0 .07-.03.13-.07.17l-1 1s-.07 0-.07-.03v-2.18zm-3.8 3.88c0-.07.06-.12.12-.12h.89c.07 0 .12.06.12.12V29c0 .05-.02.1-.06.13l-1.02 1.02s-.06 0-.06-.03v-2.1zm.07 7.19s-.07 0-.07-.03v-4.71c0-.05.02-.1.06-.13l1.02-1.02s.06 0 .06.03v4.71c0 .06-.02.11-.06.15l-1.01 1.01zm-1.34 1.19v-4.54c0-.1.06-.25.13-.32l.94-.94s.06 0 .06.03v4.71c0 .05-.01.1-.05.14l-.98.98c-.06.06-.11.04-.11-.05zm2.41-1.15c0 .07-.06.12-.12.12h-.83c-.04 0-.05-.05-.03-.07l.92-.92s.06 0 .06.02v.85zm.12-1.31v-4.73c0-.05.02-.1.06-.13l2.28-2.28s.07 0 .07.03v4.65c0 .09-.03.17-.09.23l-2.26 2.26s-.06 0-.06-.02zm6.44 2.51c-.05.05-.1.04-.1-.04v-.74s.04-.04.06-.02l.37.37s.03.08 0 .11l-.33.33zm-.1-1.13v-3.47c0-.1.06-.25.13-.32l.93-.93s.08 0 .08.03v4.71s-.02.09-.05.13l-.46.46s-.08.03-.11 0l-.45-.45s-.06-.09-.06-.15zM26 36.41c0 .08-.04.09-.1.04l-.33-.33s-.03-.08 0-.11l.35-.35s.08 0 .08.03v.71zm1.13-7.02c.07-.07.13-.05.13.06v4.51c0 .1-.06.25-.13.32l-.93.93s-.08 0-.08-.03v-4.7c0-.05.02-.1.06-.14l.95-.95zm-1.19 1.01l-1.08 1.08c-.07.07-.13.22-.13.32v3.4s-.04.04-.06.02l-3.48-3.48s-.03-.03-.04-.05c-.03-.04-.02-.11.01-.14l1.02-1.02c.07-.07.13-.22.13-.32v-2.24s.03-.06.06-.06h3.54c.04 0 .07.03.07.07v2.29c0 .05-.02.1-.06.14zm1.33-2.76c0 .07-.06.13-.13.13h-.94s-.07-.03-.07-.07v-4.77c0-.1-.06-.25-.13-.32l-1.06-1.06s-.03-.07 0-.1l2.26-2.26c.02-.02.07 0 .07.03v8.43zm.25-2.23a.54.54 0 01-.13-.33v-4.51c0-.1.06-.13.13-.06l.96.96s.04.07.04.11v4.79s-.03.04-.05.02l-.96-.98zm3.55 9.88s-.04.09-.09.09h-2.23s-.09-.04-.09-.09v-8.46s.03-.04.05-.02l2.31 2.37s.05.08.05.13v5.99zm1.26-9.77v4.66c0 .09-.05.11-.11.05l-.97-1s-.05-.08-.05-.13v-4.83s.04-.04.06-.02l.95.95c.07.07.13.22.13.32zm0-2.97c0 .1-.06.25-.13.32l-.95.95s-.06 0-.06-.02v-3.44c0-.1-.09-.19-.19-.19h-1.02s-.05-.02-.05-.05v-6c0-.1.06-.25.13-.32l2.14-2.14c.07-.07.13-.05.13.06v10.84zm3.93-4.81s.02-.08.04-.11l2.34-2.42c.07-.08.13-.14.13-.14.01-.01.02-.03.02-.04V8.82c0-.06-.07-.08-.11-.04l-3.67 3.67-.13.13c-.01.01-.02.03-.02.04v1.11l-1.16-1.16s-.11-.01-.11.04v10.14s0 .03.02.04l.59.59-.45.45-.13.13c-.01.01-.02.03-.02.04v10.26c0 .06.07.08.11.04l1.08-1.11s.08 0 .08.03v.91s.03.06.06.06h3.8s.06-.03.06-.06V20.19s-.03-.06-.06-.06h-2.38s-.09-.04-.09-.09V17.7zm-1.27-5.06s0-.03.02-.04l3.55-3.55s.11-.01.11.04v5.85s0 .03-.02.04l-2.3 2.38s-.09.01-.09-.04v-2.21s0-.03-.02-.04l-1.25-1.25v-1.19zm0 1.37l1.12 1.12s.02.03.02.04v2.35s-.02.08-.04.11l-.99 1.02s-.11.01-.11-.04v-4.6zm-1.24 8.71s-.02-.03-.02-.04v-9.78c0-.06.07-.08.11-.04l1.03 1.03v5.04c0 .06.07.08.11.04l1.07-1.1s.09-.01.09.04v2.14s-.04.09-.09.09h-1.11s-.06.03-.06.06v2.51l-.57.57-.55-.55zm3.65-2.22v9.78s0 .03-.02.04l-2.31 2.38s-.08 0-.08-.03v-8.53l1.16 1.16s.11.01.11-.04v-3.71s.02-.08.04-.11l.99-.99s.11-.01.11.04zm-1.27 4.45c0 .06-.07.08-.11.04L34.99 24v-1.21l1.05-1.05s.09 0 .09.04V25zm-1.26-1.11l-.48-.48.48-.48v.96zm.12-1.27v-2.25s.03-.06.06-.06h.99s.09.04.09.09v1.03s-.02.08-.04.11l-1.1 1.1zm-1.15 11.42s-.11.01-.11-.04v-9.9s0-.03.02-.04l.55-.55.57.57v8.81c0 .06-.02.12-.07.16l-.96 1zm4.83-13.67v13.68s-.03.06-.06.06h-3.55s-.06-.03-.06-.06v-.93c0-.06.02-.12.07-.16l2.45-2.53s.02-.03.02-.04V20.37s.03-.06.06-.06h1.02s.06.03.06.06zm-1.46.04l-.86.86s-.09 0-.09-.04v-.84s.04-.09.09-.09h.82c.05 0 .08.07.04.1z"/><path d="M10.93 20.21c-.07-.07-.13-.05-.13.06v16.4c0 .1.06.13.13.06l1.12-1.12c.07-.07.13-.22.13-.32v-3.37s.05-.06.08-.03l1.05 1.05c.07.07.13.05.13-.06v-9.93c0-.1-.06-.25-.13-.32l-2.39-2.39zm1.05 11.19l-.93-.93a.537.537 0 01-.13-.32v-.83c0-.1.06-.25.13-.32l.87-.87c.07-.07.13-.05.13.06v3.19s-.05.06-.08.03zm.08 3.82c0 .1-.06.25-.13.32l-.9.9c-.06.06-.11.04-.11-.05V30.6s0-.03.02-.04c.02 0 .04 0 .05.02l.99.99c.05.05.08.12.08.19v3.45zm1.27-2.63c0 .09-.05.11-.11.05l-.95-.95a.273.273 0 01-.08-.19v-3.63c0-.1-.06-.13-.13-.06l-1.08 1.08s-.02.01-.03 0c-.01 0-.02-.02-.02-.04v-8.29c0-.1.06-.13.13-.06l2.14 2.14c.07.07.13.22.13.32v9.61z"/></g></svg>