<?xml version="1.0" encoding="utf-8"?>
<!-- Generator: Adobe Illustrator 27.7.0, SVG Export Plug-In . SVG Version: 6.00 Build 0)  -->
<svg version="1.1" id="Layer_1" xmlns="http://www.w3.org/2000/svg" xmlns:xlink="http://www.w3.org/1999/xlink" x="0px" y="0px"
	 viewBox="0 0 50 50" style="enable-background:new 0 0 50 50;" xml:space="preserve">
<style type="text/css">
	.st0{fill:none;stroke:#444444;stroke-linecap:round;stroke-linejoin:round;stroke-miterlimit:10;}
	.st1{fill:#E589EF;}
	.st2{fill:none;stroke:#444444;stroke-width:2.5;stroke-linecap:round;stroke-linejoin:round;stroke-miterlimit:10;}
	.st3{fill:none;stroke:#444444;stroke-width:0.5;stroke-linecap:round;stroke-linejoin:round;stroke-miterlimit:10;}
</style>
<g>
	<path class="st0" d="M-21.4,38.3"/>
</g>
<path class="st0" d="M-20.8,41.4"/>
<g>
	<g>
		<path class="st1" d="M35.66,3.52L15.6,2.54c-1.4,0-3.24,4.72-3.24,6.12l-0.18,12.69c-3.42,1.26-2.15,6.64-1.46,7.59l1.73,2.4
			l-0.09,12.78c0.05,0.96,1.53,2.57,2.49,2.64l8.78,0.63l15.11-5.38l0.34-11.04c0-0.04,1.37-3.63,2.16-5.73
			c0.36-0.95-1.95-3.89-2.15-4.89l-0.9-14.09V6.08V6.05C38.19,4.65,37.05,3.52,35.66,3.52z"/>
	</g>
	<g>
		<g id="paw_print-foot_print_4_">
			<path class="st0" d="M23.85,16.15c-0.58-2.92-2.72-4.91-4.79-4.45c-2.07,0.46-3.28,3.2-2.7,6.12s2.72,4.91,4.79,4.45
				C23.22,21.81,24.43,19.07,23.85,16.15z"/>
			<path class="st0" d="M38.41,21.97c-1.74-0.56-3.73,0.89-4.44,3.24c-0.71,2.35,0.13,4.71,1.87,5.27c1.74,0.56,3.73-0.89,4.44-3.24
				C40.99,24.9,40.16,22.54,38.41,21.97z"/>
			<path class="st0" d="M12.49,21.97c1.74-0.56,3.73,0.89,4.44,3.24c0.71,2.35-0.13,4.71-1.87,5.27c-1.74,0.56-3.73-0.89-4.44-3.24
				C9.91,24.9,10.75,22.54,12.49,21.97z"/>
			<path class="st0" d="M27.06,16.15c0.58-2.92,2.72-4.91,4.79-4.45c2.07,0.46,3.28,3.2,2.7,6.12s-2.72,4.91-4.79,4.45
				C27.69,21.81,26.48,19.07,27.06,16.15z"/>
			<path class="st0" d="M25.45,40.83c0.94,0,4.38,0.97,5.6,0.97c2.55,0,4.62-2.07,4.62-4.62c0-0.81,0-2.19-1.46-3.71l-4.87-5.84
				c-0.97-1.22-2.43-1.88-3.89-1.88s-2.92,0.67-3.89,1.88l-4.87,5.84c-1.46,1.52-1.46,2.9-1.46,3.71c0,2.55,2.07,4.62,4.62,4.62
				C21.07,41.8,24.51,40.83,25.45,40.83z"/>
		</g>
		<path class="st2" d="M28.02,47.53H17.19c-2.7,0-4.89-2.19-4.89-4.89V30.77c0,0-2.77-1.02-2.77-5.04s2.91-4.65,2.91-4.65L12.3,8.24
			c0-2.7,2.19-4.89,4.89-4.89h16.64c2.7,0,4.89,2.19,4.89,4.89v12.93c0,0,2.79,0.48,2.61,4.5s-2.61,5.16-2.61,5.16v11.49"/>
		<path class="st3" d="M29.16,6.95h-7.29c-0.81,0-1.47-0.66-1.47-1.47V3.46h10.23v2.02C30.63,6.29,29.97,6.95,29.16,6.95z"/>
	</g>
</g>
</svg>
