<svg xmlns="http://www.w3.org/2000/svg" id="Layer_1" version="1.1" viewBox="0 0 50 50"><defs><style>.st1,.st2,.st3{fill:none;stroke:#444;stroke-linecap:round;stroke-linejoin:round}.st2{stroke-width:2.5px}.st3{stroke-width:.5px}</style></defs><path fill="#d1bd00" d="M27.4 20.7l5.7 1.8-4.9 3.4.1 6-4.8-3.6-5.6 1.9 1.9-5.6-3.6-4.8 6 .1 3.4-4.9 1.8 5.7z"/><path fill="#f9f941" d="M48.8 20.4c-.2-.8-2.7-7.5-3.2-8.1l-3-3.5h-.2l-7.6-5.7-7.8-.7c-3.2 0-14.5.3-21.4 10.2L1.7 23.2h-.2l4 13.5c0 .4 4.5 5.7 4.9 5.9l5.6 3 30.6-11.8c.7-.4 3.3-8.5 2.4-13.3h-.2z"/><path d="M32.2 47.3c-7 2.3-15 1.2-21.3-3.6C.6 35.9-1.5 21.2 6.3 10.9" class="st2"/><path d="M6.1 11c2-3 4.7-4.7 4.7-4.7l.7-.5C19.6.1 30.8 0 39.1 6.2 49.5 14 51.5 28.7 43.8 39" class="st2"/><path d="M31.4 43.7c-5.9 1.9-12.6 1-18-3-8.7-6.6-10.5-19-3.9-27.7" class="st3"/><path d="M9.3 13.2c1.7-2.5 4-4 4-4l.6-.5c6.8-4.8 16.2-4.9 23.3.4 8.7 6.6 10.5 19 3.9 27.7" class="st3"/><path d="M30.2 40c-4.8 1.6-10.2.8-14.6-2.4-7.1-5.3-8.5-15.4-3.2-22.5" class="st3"/><path d="M12.4 15.2c1.4-2 3.2-3.2 3.2-3.2l.5-.4c5.5-3.9 13.2-4 18.9.3 7.1 5.3 8.5 15.4 3.2 22.5" class="st3"/><g><path d="M21.2 19.5l16.1.8-.4 8.7-15.8 1.5.1-11z" class="st1"/><path d="M23.7 20.7l11.6.7-.3 6-11.5.7.2-7.4z" class="st3"/><path d="M21.2 19.5L13.7 21l-.4 9.3 7.5.2" class="st1"/><path d="M17.3 20.2l-.5 10.3m8.9-9.6v7m7.8-6.4l-.1 5.7m-1.5-5.7l-.1 5.8m-1.9-6.2l-.1 6.4M27.9 21l-.2 6.8m-11.4-4l-.1 2.5m1.7-2.5l-.1 2.5" class="st3"/></g></svg>