<?xml version="1.0" encoding="UTF-8"?>
<svg id="Camada_3" xmlns="http://www.w3.org/2000/svg" version="1.1" viewBox="0 0 50 50">
  <!-- Generator: Adobe Illustrator 29.2.1, SVG Export Plug-In . SVG Version: 2.1.0 Build 116)  -->
  <defs>
    <style>
      .st0 {
        fill: #ff6b6b;
      }

      .st1, .st2, .st3, .st4 {
        fill: none;
        stroke: #444;
        stroke-linecap: round;
        stroke-linejoin: round;
      }

      .st2 {
        stroke-width: 2.5px;
      }

      .st3 {
        stroke-width: 1px;
      }

      .st5 {
        fill: #444;
      }

      .st4 {
        stroke-width: .5px;
      }
    </style>
  </defs>
  <path class="st0" d="M46.2,12.6l-5.6-3.6-7.7-4.4-6-2.8c-3.1-.1-21.4,8.9-21.4,12.1l-.5,7.8.5,15.1,11.5,7.6,31-11c.7-.4-.8-18.7-1.8-20.7h0Z"/>
  <path class="st2" d="M31.5,46.5l-2.2,1.3c-1.7,1-3.8,1-5.5,0l-15.6-9c-1.7-1-2.7-2.8-2.7-4.7v-18c0-2,1-3.8,2.7-4.7L23.9,2.2c1.7-1,3.8-1,5.5,0l15.6,9c1.7,1,2.7,2.8,2.7,4.7v18c0,2-1,3.8-2.7,4.7l-2.5,1.4"/>
  <path class="st1" d="M10.4,21.3c0-2.9,2.4-5.3,5.3-5.3s1.6.2,2.3.5c.7-1.4,2.1-2.3,3.8-2.3s1.7.3,2.4.8c.9-2.3,3.1-3.9,5.7-3.9s5.6,2.3,6,5.2c.5-.2,1.1-.3,1.6-.3,2.9,0,5.3,2.4,5.3,5.3s-2.4,5.3-5.3,5.3H14s-3.5-.8-3.6-5.3ZM14.3,32.1h6.5v6.5h-6.5v-6.5Z"/>
  <path class="st3" d="M37.4,31.6l3.7,3.7-3.7,3.7-3.7-3.7,3.7-3.7Z"/>
  <path class="st3" d="M30.3,32.8h0c1.4,1.4,1.4,3.6,0,5h0c-1.4,1.4-3.6,1.4-5,0h0c-1.4-1.4-1.4-3.6,0-5h0c1.4-1.4,3.6-1.4,5,0Z"/>
  <path class="st4" d="M17.7,29.9v-7.9h19.6v7.8M27.3,29.6v-7.6"/>
  <circle class="st5" cx="27.2" cy="22.1" r="1.5"/>
</svg>