<?xml version="1.0" encoding="utf-8"?>
<!-- Generator: Adobe Illustrator 27.7.0, SVG Export Plug-In . SVG Version: 6.00 Build 0)  -->
<svg version="1.1" id="Layer_1" xmlns="http://www.w3.org/2000/svg" xmlns:xlink="http://www.w3.org/1999/xlink" x="0px" y="0px"
	 viewBox="0 0 50 50" style="enable-background:new 0 0 50 50;" xml:space="preserve">
<style type="text/css">
	.st0{fill:none;stroke:#444444;stroke-linecap:round;stroke-linejoin:round;stroke-miterlimit:10;}
	.st1{fill:#A475EF;}
	.st2{fill:none;stroke:#444444;stroke-width:2.5;stroke-linecap:round;stroke-linejoin:round;stroke-miterlimit:10;}
	.st3{fill:none;stroke:#444444;stroke-width:0.5;stroke-linecap:round;stroke-linejoin:round;stroke-miterlimit:10;}
	.st4{fill:none;stroke:#444444;stroke-miterlimit:10;}
	.st5{fill:none;stroke:#444444;stroke-width:0.5;stroke-linecap:round;stroke-miterlimit:10;}
	.st6{fill:#444444;}
</style>
<g>
	<path class="st0" d="M-21.4,38.3"/>
</g>
<path class="st0" d="M-20.8,41.4"/>
<g>
	<g>
		<path class="st1" d="M36.95,3.52L16.89,2.54c-1.4,0-3.24,4.72-3.24,6.12l-0.27,11.64c-3.42,1.26-2.25,5.11-1.56,6.06l1.92,3.54
			l-0.09,14.22c0.05,0.96,1.53,2.57,2.49,2.64l8.78,0.63l15.11-5.38l0.34-12.48c0-0.04-0.09-1.53,0.91-3.54
			c2.76-5.58-0.7-4.64-0.9-5.64l-0.9-14.09V6.08V6.05C39.48,4.65,38.35,3.52,36.95,3.52z"/>
	</g>
	<g>
		<path class="st2" d="M29.31,47.53H18.49c-2.7,0-4.89-2.19-4.89-4.89V30.55l-1.12-3.6c0,0-1.98,0.18-1.98-3.72
			c0-4.38,3.24-3.09,3.24-3.09L13.6,8.24c0-2.7,2.19-4.89,4.89-4.89h16.64c2.7,0,4.89,2.19,4.89,4.89v11.76c0,0,3.24-0.42,3.24,2.82
			c0,3.84-2.34,3.78-2.34,3.78l-0.9,3.3v12.42"/>
		<path class="st3" d="M30.45,6.95h-7.29c-0.81,0-1.47-0.66-1.47-1.47V3.46h10.23v2.02C31.92,6.29,31.26,6.95,30.45,6.95z"/>
	</g>
	<g>
		<path class="st4" d="M34.97,41.53H18.72c-1.07,0-1.97-0.79-2.11-1.84l-3.05-14.1h26.57l-3.06,14.1
			C36.94,40.75,36.04,41.53,34.97,41.53z"/>
		<line class="st5" x1="33.49" y1="28.91" x2="33.49" y2="38.21"/>
		<line class="st5" x1="29.06" y1="28.91" x2="29.06" y2="38.21"/>
		<line class="st5" x1="24.64" y1="28.91" x2="24.64" y2="38.21"/>
		<line class="st5" x1="20.21" y1="28.91" x2="20.21" y2="38.21"/>
		<path class="st4" d="M34.44,12.71c-0.11-0.42-0.38-0.77-0.74-0.98l-0.92-0.54c-0.75-0.44-1.73-0.18-2.17,0.58l-5.86,10.2
			c-0.21,0.37-0.27,0.8-0.16,1.22c0.11,0.42,0.38,0.77,0.74,0.98l0.92,0.54c0.25,0.14,0.52,0.21,0.79,0.21
			c0.55,0,1.09-0.29,1.38-0.8l5.86-10.2C34.49,13.55,34.55,13.12,34.44,12.71z"/>
		<path class="st4" d="M25.16,20.94H12.62c-0.58,0-1.05,0.52-1.05,1.16v2.33c0,0.64,0.47,1.16,1.05,1.16h28.45
			c0.58,0,1.05-0.52,1.05-1.16V22.1c0-0.64-0.47-1.16-1.05-1.16H30.09"/>
		<circle class="st6" cx="26.85" cy="22.27" r="0.83"/>
	</g>
</g>
</svg>
