<svg xmlns="http://www.w3.org/2000/svg" id="Layer_1" version="1.1" viewBox="0 0 50 50"><defs><style>.st0,.st1,.st2{fill:none;stroke:#444;stroke-linecap:round;stroke-linejoin:round}.st1{stroke-width:2.5px}.st2{stroke-width:.5px}</style></defs><path fill="#fcc34f" d="M48.8 20.6c-.2-.8-2.7-7.5-3.2-8.1l-3-3.5h-.2l-7.6-5.7-7.8-.7c-3.2 0-14.5.3-21.4 10.2L1.7 23.4h-.2l4 13.5c.1.4 4.5 5.7 4.9 5.9l5.6 3 32.2-11.7c.7-.4 1.7-8.6.8-13.4z"/><path d="M32.2 47.5c-7 2.3-15 1.2-21.3-3.6C.6 36.1-1.5 21.4 6.3 11.1" class="st1"/><path d="M6.1 11.2c2-3 4.7-4.7 4.7-4.7l.7-.5C19.6.3 30.8.1 39.1 6.4c10.4 7.8 12.4 22.5 4.7 32.8" class="st1"/><path d="M31.4 43.9c-5.9 1.9-12.6 1-18-3-8.7-6.6-10.5-19-3.9-27.7" class="st2"/><path d="M9.3 13.4c1.7-2.5 4-4 4-4l.6-.5c6.8-4.8 16.2-4.9 23.3.4 8.7 6.6 10.5 19 3.9 27.7" class="st2"/><path d="M30.2 40.2c-4.8 1.6-10.2.8-14.6-2.4-7.1-5.3-8.5-15.4-3.2-22.5" class="st2"/><path d="M12.4 15.4c1.4-2 3.2-3.2 3.2-3.2l.5-.4c5.5-3.9 13.2-4 18.9.3 7.1 5.3 8.5 15.4 3.2 22.5" class="st2"/><g><path d="M21.2 19.7l16.1.8-.4 8.7-15.8 1.5.1-11z" class="st0"/><path d="M23.7 20.9l11.6.7-.3 6-11.5.7.2-7.4z" class="st2"/><path d="M21.2 19.7l-7.5 1.5-.4 9.3 7.5.2" class="st0"/><path d="M17.3 20.4l-.5 10.5m8.9-9.8v7m7.8-6.4l-.1 5.7m-1.5-5.7l-.1 5.8m-1.9-6.2l-.1 6.4m-1.9-6.5l-.2 6.8m-11.4-4l-.1 2.5m1.7-2.5l-.1 2.5" class="st2"/></g></svg>