<svg xmlns="http://www.w3.org/2000/svg" version="1" viewBox="0 0 50 50"><path fill="#FFA9A9" d="M32.328 30.267l-3.93-4.162a.574.574 0 0 1 .3-.956l5.005-1.04c.24-.05.42-.245.452-.487l.822-6.283a.567.567 0 0 0-.088-.387L24.827 1.465a.573.573 0 0 0-.752-.193L11.982 7.736a.575.575 0 0 0-.3.438L9.85 23.58l-.007.04-1.21 6.333-1.57 9.51 25.265-9.196z"/><path fill="#FC9D9A" d="M30.646 10.473l-5.852-9.01a.572.572 0 0 0-.75-.192L11.947 7.737a.575.575 0 0 0-.3.438l-1.145 9.63 20.143-7.33z"/><path fill="#444" d="M44.793 41.744L30.018 26.102l3.897-.81a1.783 1.783 0 0 0 1.402-1.512l.822-6.28a1.78 1.78 0 0 0-.273-1.204L25.807.808a1.793 1.793 0 0 0-2.333-.6L11.376 6.672a1.78 1.78 0 0 0-.925 1.358L8.624 23.394l-1.217 6.364-2.664 16.157c-.15.908.408 1.77 1.298 2.01l7.557 2.016a1.784 1.784 0 0 0 2.206-1.363l2.31-11.29 11.9 6.348c.586.315 1.32.09 1.632-.497a1.205 1.205 0 0 0-.497-1.63L18.5 34.76a1.734 1.734 0 0 0-.388-.15l.75-5a.98.98 0 0 1 .654-.785l7.582-2.572c.08.25.202.485.388.682l15.21 16.102-.982 1.488a1.205 1.205 0 1 0 2.013 1.33l1.258-1.907a1.77 1.77 0 0 0-.192-2.204zM32.983 23.02l-4.564.95c-.067.013-.125.044-.188.065l-1.188-9.187 3.335 1.26 3.294 1.243.043.066-.734 5.605zM16.68 34.384l-.29-.117-1.083-.436 1.837-2.532-.08.536-.383 2.55zm-.016-4.89l-2.278 3.14-.36.497-3.614-2.77 6.293-.922-.04.055zm3.702-13.162l-5.942-6.575 6.767 2.86-.824 3.716zM24.33 5.153l.634 4.89.336 2.6-2.428-.915 1.46-6.575zm-2.772 12.49l.535-2.41.46-2.078 2.956 1.114 1.147 8.876-.442-.477-4.657-5.024zm-.048-6.465l-7.507-3.172 9.316-4.98-1.81 8.152zm-8.86-1.225l7.328 8.11-.387 1.664-1.774 7.63-6.774-3.94 1.61-13.464zM10.785 24.94l5.36 3.117-6.13.898.77-4.016zM9.56 31.53l3.616 2.772-.13.18.043.02-.64.98-4.746 7.296L9.56 31.53zm9.74-4.16l1.86-8 .013.012.005-.02 5.198 5.607-3.75 1.27-3.326 1.13zM32.342 15.3l-5.508-2.08L25.8 5.23l6.542 10.07zM13.574 47.437l-6.11-1.63 6.994-10.756 1.558.627a1.64 1.64 0 0 0-.098.297l-2.344 11.463z"/></svg>