<svg xmlns="http://www.w3.org/2000/svg" viewBox="0 0 50 50"><path fill="#ff6b6b" d="M46.2 12.6L40.6 9l-7.7-4.4-6-2.8c-3.1-.1-21.4 8.9-21.4 12.1L5 21.7l.5 15.1L17 44.4l31-11c.7-.4-.8-18.7-1.8-20.7z"/><path fill="none" stroke="#444" stroke-linecap="round" stroke-linejoin="round" stroke-width="2.5" d="M31.5 46.5l-2.2 1.3c-1.7 1-3.8 1-5.5 0l-15.6-9c-1.7-1-2.7-2.8-2.7-4.7v-18c0-2 1-3.8 2.7-4.7l15.7-9.2c1.7-1 3.8-1 5.5 0l15.6 9c1.7 1 2.7 2.8 2.7 4.7v18c0 2-1 3.8-2.7 4.7L42.5 40"/><path fill="none" stroke="#444" stroke-linecap="round" stroke-linejoin="round" d="M10.4 21.3c0-2.9 2.4-5.3 5.3-5.3s1.6.2 2.3.5c.7-1.4 2.1-2.3 3.8-2.3s1.7.3 2.4.8c.9-2.3 3.1-3.9 5.7-3.9s5.6 2.3 6 5.2c.5-.2 1.1-.3 1.6-.3 2.9 0 5.3 2.4 5.3 5.3s-2.4 5.3-5.3 5.3H14s-3.5-.8-3.6-5.3zm3.9 10.8h6.5v6.5h-6.5v-6.5zM37.4 31.6l3.7 3.7-3.7 3.7-3.7-3.7 3.7-3.7zm-7.1 1.2c1.4 1.4 1.4 3.6 0 5s-3.6 1.4-5 0-1.4-3.6 0-5 3.6-1.4 5 0z"/><path fill="none" stroke="#444" stroke-linecap="round" stroke-linejoin="round" stroke-width=".5" d="M17.7 29.9V22h19.6v7.8m-10-.2V22"/><circle cx="27.2" cy="22.1" r="1.5" fill="#444"/></svg>