<?xml version="1.0" encoding="utf-8"?>
<!-- Generator: Adobe Illustrator 24.0.0, SVG Export Plug-In . SVG Version: 6.00 Build 0)  -->
<svg version="1.1" id="Layer_1" xmlns="http://www.w3.org/2000/svg" xmlns:xlink="http://www.w3.org/1999/xlink" x="0px" y="0px"
	 viewBox="0 0 50 50" style="enable-background:new 0 0 50 50;" xml:space="preserve">
<style type="text/css">
	.st0{fill:#A475EF;}
	.st1{fill:#BF94F7;}
	.st2{fill:none;stroke:#444444;stroke-width:2.5;stroke-linecap:round;stroke-linejoin:round;stroke-miterlimit:10;}
	.st3{fill:none;stroke:#444444;stroke-width:1.5;stroke-linecap:round;stroke-linejoin:round;stroke-miterlimit:10;}
</style>
<polygon class="st0" points="47.5,26.4 47.9,30.7 2.1,47.4 2.2,38.4 2.5,33.2 48.2,16.6 47.5,20.3 "/>
<polygon class="st1" points="47.5,10 47,17.6 2.2,33.9 2.2,24.2 2.5,19.8 47.6,3.4 "/>
<polyline class="st2" points="32.9,48.2 1.8,48.2 1.8,2.1 48.2,2.1 48.2,37.8 "/>
<g>
	<path class="st3" d="M20,23.7c-1.9,1.1-2.6,3.6-1.5,5.5c0.5,0.9,1.4,1.6,2.5,1.9"/>
	<path class="st3" d="M12.7,24.8c1.3,1.5,3.3,2.4,5.3,2.4"/>
	<path class="st3" d="M26,14c0-2.2-1.8-4-4-4c-1.9,0-3.5,1.2-3.9,3c0,0-0.1,0-0.1,0c-3.9,0-7.1,3.2-7.1,7.1c0,1.7,0.6,3.4,1.8,4.7
		c-1.9,1.2-2.4,3.7-1.2,5.6c0.2,0.3,0.4,0.5,0.7,0.8c-1.1,3.7,1,7.7,4.7,8.8c3.7,1.1,7.7-1,8.8-4.7c0.2-0.7,0.3-1.4,0.3-2.1h4
		l2.6,2.6"/>
	<polyline class="st3" points="32.1,28.7 26,28.7 26,25.1 	"/>
	<polyline class="st3" points="35.1,21.6 26,21.6 26,17.6 30.1,17.6 32.7,14.9 	"/>
	<circle class="st3" cx="34.1" cy="13.5" r="2"/>
	<circle class="st3" cx="34.1" cy="37.3" r="2"/>
	<circle class="st3" cx="37.2" cy="21.6" r="2"/>
	<circle class="st3" cx="34.1" cy="28.7" r="2"/>
</g>
</svg>
