<svg xmlns="http://www.w3.org/2000/svg" id="Layer_1" x="0" y="0" version="1.1" viewBox="0 0 48 47" xml:space="preserve"><style>.st3{fill:none}.st4{fill:#444}.st5{font-family:&apos;Montserrat-Bold&apos;}.st6{font-size:4.6239px}</style><path fill="#fcc34f" d="M42.2 8.2l-4.7-1.6-7-3.1-6.4-1.1c-4 .9-13.4 3.4-18 5.9l.1 11-.8 9.6 10.9 12.4 25.5-9.9c.6-.4 1.3-21.3.4-23.2z"/><path fill="none" stroke="#444" stroke-linecap="round" stroke-miterlimit="10" stroke-width="2.5" d="M38 35.3c2.7-2.8 4.2-6.1 4.1-10-.1-2.6 0-5.2 0-7.7V9c0-.6-.2-.8-.7-1-5.7-2-11.5-3.9-17.2-5.9-.3-.1-.6-.1-.9 0C17.5 4.1 11.7 6 5.9 8c-.4.1-.5.3-.5.7v17.2c0 2.8.9 5.2 2.5 7.4 1.2 1.6 2.7 3 4.3 4.3 3.5 2.8 7.4 4.9 11.3 7.2.1.1.4.1.6 0 2.5-1.5 3.2-1.9 5.7-3.4"/><path fill="none" stroke="#444" stroke-miterlimit="10" stroke-width=".5" d="M29.5 31.6H18.8c-.4 0-.8-.4-.8-.8V27c0-.4.4-.8.8-.8h10.7c.4 0 .8.4.8.8v3.8c0 .5-.4.8-.8.8z"/><path d="M19.7 28.1h3.7v4.3h-3.7z" class="st3"/><text class="st4 st5 st6" transform="translate(19.731 31.49)">*</text><path d="M23.3 28.1H27v4.3h-3.7z" class="st3"/><text class="st4 st5 st6" transform="translate(23.35 31.49)">*</text><path d="M27 28.1h3.7v4.3H27z" class="st3"/><text class="st4 st5 st6" transform="translate(27.045 31.49)">*</text><path fill="none" stroke="#444" stroke-miterlimit="10" d="M24.8 7.9c.5.1 1 .2 1.4.3 2.8.9 4.6 3.6 4.4 6.4-.2 3-2.4 5.4-5.3 5.8-3.6.6-6.9-2-7.3-5.6-.4-3.4 2.2-6.6 5.6-6.9h1.2zm-9.7 23c.1-3.5 1.8-6.1 4.9-7.7 1.3-.7 2.8-.9 4.3-.8 1.3-.1 2.7.1 3.9.6 3 1.3 4.7 3.5 5.3 6.8.1.3.1.7.1 1"/></svg>