<svg xmlns="http://www.w3.org/2000/svg" id="Layer_1" x="0" y="0" version="1.1" viewBox="0 0 50 50" xml:space="preserve"><style>.st2{fill:#031326}</style><path fill="#00c8e2" d="M6.2 45.6h8l31.4-11.4v-28c0-1-.8-1.8-1.8-1.8H6.2c-1 0-1.8.8-1.8 1.8v37.6c0 1 .8 1.8 1.8 1.8z"/><path fill="#00dffc" d="M32.8 4.4H6.2c-1 0-1.8.8-1.8 1.8v8.5L32.8 4.4z"/><path d="M43.8 3.2H6.2c-1.7 0-3 1.4-3 3v37.6c0 1.7 1.4 3 3 3H25c.7 0 1.2-.6 1.2-1.2s-.6-1.2-1.2-1.2H6.2c-.3 0-.5-.2-.5-.5V15.6h38.7v18.6c0 .7.6 1.2 1.2 1.2s1.2-.6 1.2-1.2v-28c0-1.7-1.3-3-3-3zm-38.1 3c0-.3.2-.5.5-.5h.2L10.5 8l-4.8 6.8V6.2zm5.1 1.7c0-.1-.1-.1 0 0-.1-.1-.1-.1 0 0-.1-.1-.1-.1 0 0-.1-.1-.1-.1 0 0l-.1-.1-3.8-2.1h36.2l-3.8 2.1v7.4H10.8V7.9zm32.8-2.2h.2c.3 0 .5.2.5.5v8.3l-4.8-6.6 4.1-2.2zM5.7 15.1l4.8-6.9v7H5.7v-.1zm33.8.2v-7l4.8 6.6v.4h-4.8z" class="st2"/><path fill="none" stroke="#031326" stroke-linecap="square" stroke-miterlimit="10" stroke-width="1.337" d="M32 36.3c-1.5 1.5-3.5 2.4-5.8 2.4-4.5 0-8.2-3.7-8.2-8.2s3.7-8.2 8.2-8.2c2.3 0 4.3.9 5.8 2.4"/><circle cx="26.2" cy="30.5" r="3.1" class="st2"/></svg>