<?xml version="1.0" encoding="utf-8"?>
<!-- Generator: Adobe Illustrator 22.1.0, SVG Export Plug-In . SVG Version: 6.00 Build 0)  -->
<svg version="1.1" id="Layer_1" xmlns="http://www.w3.org/2000/svg" xmlns:xlink="http://www.w3.org/1999/xlink" x="0px" y="0px"
	 viewBox="0 0 50 50" style="enable-background:new 0 0 50 50;" xml:space="preserve">
<style type="text/css">
	.st0{fill:#00C8E2;}
	.st1{fill:#00DFFC;}
	.st2{fill:#444444;}
	.st3{fill:none;stroke:#444444;stroke-width:1.3368;stroke-linecap:square;stroke-miterlimit:10;}
</style>
<path class="st0" d="M6.2,45.6h8l31.4-11.4v-28c0-1-0.8-1.8-1.8-1.8H6.2c-1,0-1.8,0.8-1.8,1.8v37.6C4.4,44.8,5.2,45.6,6.2,45.6z"/>
<path class="st1" d="M32.8,4.4H6.2c-1,0-1.8,0.8-1.8,1.8v8.5L32.8,4.4z"/>
<path class="st2" d="M43.8,3.2H6.2c-1.7,0-3,1.4-3,3v37.6c0,1.7,1.4,3,3,3H25c0.7,0,1.2-0.6,1.2-1.2s-0.6-1.2-1.2-1.2H6.2
	c-0.3,0-0.5-0.2-0.5-0.5V15.6h38.7v18.6c0,0.7,0.6,1.2,1.2,1.2s1.2-0.6,1.2-1.2v-28C46.8,4.5,45.5,3.2,43.8,3.2z M5.7,6.2
	c0-0.3,0.2-0.5,0.5-0.5h0.2L10.5,8l-4.8,6.8C5.7,14.7,5.7,6.2,5.7,6.2z M10.8,7.9L10.8,7.9C10.8,7.8,10.7,7.8,10.8,7.9
	C10.7,7.8,10.7,7.8,10.8,7.9C10.7,7.8,10.7,7.8,10.8,7.9C10.7,7.8,10.7,7.8,10.8,7.9c-0.1-0.1-0.1-0.1-0.1-0.1L6.9,5.7h36.2
	l-3.8,2.1l0,0l0,0l0,0l0,0l0,0l0,0l0,0v7.4H10.8V7.9L10.8,7.9z M43.6,5.7h0.2c0.3,0,0.5,0.2,0.5,0.5v8.3l-4.8-6.6L43.6,5.7z
	 M5.7,15.1l4.8-6.9v7H5.7V15.1z M39.5,15.3v-7l4.8,6.6v0.4C44.3,15.3,39.5,15.3,39.5,15.3z"/>
<g>
	<path class="st3" d="M32,36.3c-1.5,1.5-3.5,2.4-5.8,2.4c-4.5,0-8.2-3.7-8.2-8.2s3.7-8.2,8.2-8.2c2.3,0,4.3,0.9,5.8,2.4"/>
	<circle class="st2" cx="26.2" cy="30.5" r="3.1"/>
</g>
</svg>
