<svg xmlns="http://www.w3.org/2000/svg" id="Layer_1" x="0" y="0" version="1.1" viewBox="0 0 50 50" xml:space="preserve"><style>.st2{fill:#444}</style><path fill="#dc5e82" d="M36.1 4.5l-32.8 12c-1 2.6-1.6 5.5-1.6 8.5 0 8.6 4.7 16.1 11.6 20.1l33.6-12.2c.9-2.5 1.4-5.1 1.4-7.9 0-8.8-4.9-16.5-12.2-20.5z"/><path fill="#f56991" d="M25 1.7c-9.8 0-18.3 6.1-21.7 14.8l32.8-12C32.8 2.7 29 1.7 25 1.7z"/><path d="M25 .5C11.5.5.5 11.5.5 25c0 8.9 4.9 17.2 12.7 21.5 3.6 2 7.7 3 11.8 3 1.3 0 2.7-.1 4-.3.7-.1 1.1-.8 1-1.4-.1-.7-.8-1.1-1.4-1-4.8.8-9.9-.1-14.2-2.4C7.3 40.4 3 33 3 25 3 12.9 12.9 3 25 3s22 9.9 22 22c0 2.6-.4 5.1-1.3 7.5-.2.6.1 1.4.8 1.6.6.2 1.4-.1 1.6-.8 1-2.7 1.5-5.5 1.5-8.3C49.5 11.5 38.5.5 25 .5z" class="st2"/><path d="M22.3 11.5v28.4c-5.5-1.4-9.2-5-9.2-9 0-3.3 2.5-6.4 6.6-8.2.4-.2.9-.3 1.3-.5.4-.1.6-.6.5-.9-.1-.4-.6-.6-.9-.5-.5.2-1 .3-1.4.5-4.7 2-7.5 5.6-7.5 9.6 0 4.8 4.3 9.1 10.6 10.6v-.1.1l5.7-3.2V8.6l-5.7 2.9zm16 11.7c0-.1 0-.3-.1-.4L36.5 20c-.2-.4-.7-.5-1-.2-.4.2-.5.7-.2 1l.5.8c-1.9-.9-4-1.5-6.2-1.8-.4-.1-.8.2-.8.7 0 .4.2.8.7.8 2 .2 3.9.8 5.5 1.6l-.7.1c-.4.1-.7.4-.6.8 0 .4.4.7.7.7h.1l3.2-.4c.4 0 .6-.3.6-.7v-.2c0 .1 0 .1 0 0z" class="st2"/></svg>