<?xml version="1.0" encoding="UTF-8"?>
<svg id="Camada_1" data-name="Camada 1" xmlns="http://www.w3.org/2000/svg" version="1.1" viewBox="0 0 50 50">
  <defs>
    <style>
      .cls-1 {
        fill: #04ad49;
      }

      .cls-1, .cls-2 {
        stroke-width: 0px;
      }

      .cls-3 {
        stroke-width: .5px;
      }

      .cls-3, .cls-4, .cls-5 {
        fill: none;
        stroke: #444;
      }

      .cls-3, .cls-5 {
        stroke-linecap: round;
        stroke-linejoin: round;
      }

      .cls-2 {
        fill: #22dd6d;
      }

      .cls-4 {
        stroke-miterlimit: 10;
      }

      .cls-5 {
        stroke-width: 2.5px;
      }
    </style>
  </defs>
  <polygon class="cls-1" points="29.9 24.7 37.8 27.1 31.1 31.9 31.2 40.1 24.6 35.2 16.8 37.8 19.5 30 14.6 23.5 22.8 23.6 27.5 16.9 29.9 24.7"/>
  <g>
    <path class="cls-2" d="M38,4.3l-12.3-3.2C13.9,2.2,5.4,12.9,5.4,14.3l-2.2,12,.2,9.9.5,12,12.4.6,32.1-11.4-.5-16.7v-.2l-.7-2.9c0-1.4-7.8-13.3-9.2-13.3Z"/>
    <g>
      <g>
        <path class="cls-4" d="M25.5,21.9c1.9.5,3.6-1.2,3.1-3.1s-1-1.6-1.9-1.8c-1.9-.5-3.6,1.2-3.1,3.1s1,1.6,1.8,1.8Z"/>
        <path class="cls-4" d="M33.3,16.4c-.5-.2-1.1,0-1.4.5l-2.5,5.2c-.4.9-1.2,1.6-2.1,2-1.8.6-3.7-.2-4.5-1.9l-2.6-5.3c-.2-.5-.9-.7-1.4-.5h0c-.5.2-.7.9-.5,1.4l2.7,5.5c1,2.1,1.6,4.4,1.6,6.8s-.2,3.9-.5,5.8l-1.5,8.9c-.1.8.4,1.6,1.2,1.7.8.1,1.6-.4,1.7-1.2l1.9-11.2c0-.3.3-.5.6-.5s.6.2.6.5l1.9,11.2c.1.8.9,1.3,1.7,1.2.8-.1,1.3-.9,1.2-1.7l-1.5-8.8c-.3-1.9-.5-3.9-.5-5.8h0c0-2.5.5-4.8,1.6-6.9l2.7-5.5c.2-.5,0-1.1-.5-1.4Z"/>
        <g>
          <line class="cls-3" x1="7.7" y1="23.7" x2="14.5" y2="23.1"/>
          <line class="cls-3" x1="8.8" y1="15.9" x2="15.2" y2="18.4"/>
          <line class="cls-3" x1="20.7" y1="5.8" x2="22.2" y2="12.4"/>
          <line class="cls-3" x1="26.3" y1="5" x2="26.3" y2="11.9"/>
          <line class="cls-3" x1="13.7" y1="9.2" x2="18" y2="14.5"/>
          <line class="cls-3" x1="44.5" y1="23.6" x2="37.7" y2="22.9"/>
          <line class="cls-3" x1="43.4" y1="15.8" x2="37.1" y2="18.3"/>
          <line class="cls-3" x1="31.6" y1="5.6" x2="30" y2="12.3"/>
          <line class="cls-3" x1="38.6" y1="9.1" x2="34.2" y2="14.4"/>
        </g>
      </g>
      <path class="cls-5" d="M37.5,48.6H6.5c-1.6,0-2.9-1.3-2.9-2.9v-22.1c0-12.2,9.9-22,22-22h0c12.2,0,22,9.9,22,22v15.9"/>
    </g>
  </g>
</svg>