<svg xmlns="http://www.w3.org/2000/svg" viewBox="0 0 50 50"><path fill="#00c8e2" d="M42.6 23.2h4.7c.3 0 .7-.2.8-.5.1-.3 0-.7-.3-.9l-9.3-7.3L7.4 25.8v19.7l35.2-12.8v-9.5z"/><path fill="#00dffc" d="M25.5 4.8c-.3-.2-.8-.2-1.1 0l-9.1 7.1V7.8c.1-.4-.3-.8-.7-.8H8.2c-.4 0-.8.4-.8.8v10.4l-5.3 4.2c-.3.2-.4.6-.3.9.1.3.4.5.8.5h4.7v2.6l31.2-11.3-13-10.3z"/><path fill="#444" d="M48.7 20.4L26.3 2.8c-.8-.6-1.8-.6-2.6 0l-7 5.5V6.8c0-1.1-.9-2-2-2H8.2c-1.1 0-2 .9-2 2.1v9.8l-4.8 3.8c-.7.6-1 1.5-.6 2.3.3.8 1.1 1.3 1.9 1.3h3.6V45c0 1.4 1.3 2.6 2.9 2.6H41c1.6 0 2.8-1.2 2.8-2.6 0-.7-.6-1.3-1.2-1.3-.7 0-1.3.5-1.3 1.2 0 0-.1.1-.4.1H26.2v-5.2s.1 0 .1-.1l7.9-9.4c.3.1.6.1.9.1 2.2 0 3.9-1.8 3.9-3.9s-1.8-3.9-3.9-3.9-3.9 1.8-3.9 3.9c0 .9.3 1.8.9 2.5l-5.9 7V20.8c1.6-.5 2.7-2 2.7-3.7 0-2.2-1.8-3.9-3.9-3.9s-3.9 1.8-3.9 3.9c0 1.7 1.1 3.2 2.7 3.7v15L18.1 29c.6-.7.9-1.6.9-2.5 0-2.2-1.8-3.9-3.9-3.9s-3.9 1.8-3.9 3.9 1.8 3.9 3.9 3.9c.3 0 .6 0 .9-.1l7.8 9.3V45H9c-.2 0-.3-.1-.4-.1V22.8c0-.7-.6-1.2-1.3-1.2H3.8l4.8-3.7V7.3h5.5v6.2L25 5l21.1 16.6h-3.5c-.7 0-1.2.6-1.2 1.2v10.5c0 .7.6 1.2 1.2 1.2s1.2-.6 1.2-1.2v-9.2h3.4c.9 0 1.7-.5 2-1.3.4-.9.2-1.8-.5-2.4zM2.6 21.6zm32.6 3.5c.8 0 1.4.6 1.4 1.4 0 .8-.6 1.4-1.4 1.4s-1.4-.6-1.4-1.4c-.1-.8.6-1.4 1.4-1.4zm-11.6-8c0-.8.6-1.4 1.4-1.4.8 0 1.4.6 1.4 1.4 0 .8-.6 1.4-1.4 1.4-.8.1-1.4-.6-1.4-1.4zM15.1 28c-.8 0-1.4-.6-1.4-1.4 0-.8.6-1.4 1.4-1.4.8 0 1.4.6 1.4 1.4 0 .7-.6 1.4-1.4 1.4z"/></svg>