<svg xmlns="http://www.w3.org/2000/svg" version="1" viewBox="0 0 50 50"><path fill="#E589EF" d="M7.978 37.266l5.229 3.019 30.927-11.257V16.391a4.225 4.225 0 0 0-2.111-3.657L27.111 4.126a4.225 4.225 0 0 0-4.223 0l-14.91 8.608a4.222 4.222 0 0 0-2.111 3.657v17.218a4.218 4.218 0 0 0 2.111 3.657z"/><path fill="#F799FF" d="M35.265 9.692l-7.696-5.127a4.222 4.222 0 0 0-4.214-.271L7.923 11.93a4.222 4.222 0 0 0-2.341 3.514l-.193 3 29.876-8.752z"/><path fill="#444" d="M25 47.554a5.329 5.329 0 0 1-2.669-.713L7.42 38.233a5.354 5.354 0 0 1-2.67-4.624V16.391a5.355 5.355 0 0 1 2.67-4.624l14.911-8.609a5.352 5.352 0 0 1 5.339 0l14.911 8.609a5.355 5.355 0 0 1 2.669 4.624v12.637a1.116 1.116 0 1 1-2.232 0V16.391a3.116 3.116 0 0 0-1.553-2.691L26.554 5.092a3.117 3.117 0 0 0-3.107 0L8.536 13.701a3.116 3.116 0 0 0-1.554 2.691V33.61c0 1.106.595 2.136 1.554 2.689l14.911 8.609a3.107 3.107 0 0 0 3.107 0l4.117-2.377a1.117 1.117 0 0 1 1.116 1.934l-4.117 2.377a5.342 5.342 0 0 1-2.67.712z"/><path fill="#444" d="M27.406 28.806l6.8-11.923v-.467a.463.463 0 0 0-.463-.463h-2.735a.464.464 0 0 0-.402.233l-5.237 9.142 2.037 3.478zm6.8-10.794l-3.789 6.916v8.37l3.789-9.71zm-18.412-.725v15.98l3.45-9.266zm14.927 16.727a.47.47 0 0 0 .159.032h2.863a.463.463 0 0 0 .463-.463v-8.501l-3.485 8.932zM19.394 16.186a.464.464 0 0 0-.402-.233h-2.735a.458.458 0 0 0-.407.254l7.635 14.677h2.653l.801-1.313-7.545-13.385zm.186 8.469l-3.484 9.359a.457.457 0 0 0 .161.032h2.863a.463.463 0 0 0 .463-.463v-8.921l-.003-.007z"/></svg>