<svg xmlns="http://www.w3.org/2000/svg" version="1" viewBox="0 0 50 50"><path fill="#E589EF" d="M7.673 47.442h13.243l15.904-5.789v-2.217h6.055V31.99H36.82V3.105a.548.548 0 0 0-.548-.548H7.673a.548.548 0 0 0-.548.548v43.79c0 .302.245.547.548.547z"/><path fill="#F799FF" d="M36.746 2.847a.542.542 0 0 0-.474-.29H7.673a.548.548 0 0 0-.548.548v10.523L36.746 2.847z"/><g fill="#031326"><path d="M28.838 16.724a6.867 6.867 0 1 0-13.734.002 6.867 6.867 0 0 0 13.734-.002zm-6.867 1.674a1.674 1.674 0 1 1 0-3.348 1.674 1.674 0 0 1 0 3.348zm2.04-3.048a.685.685 0 1 1 0-1.37.685.685 0 0 1 0 1.37z"/><path d="M30.578 16.725c0-4.746-3.861-8.607-8.607-8.607-4.746 0-8.607 3.861-8.607 8.607s3.861 8.607 8.607 8.607c4.746 0 8.607-3.861 8.607-8.607zm-16.714 0c0-4.47 3.637-8.107 8.107-8.107s8.107 3.637 8.107 8.107-3.637 8.107-8.107 8.107-8.107-3.637-8.107-8.107z"/><path d="M38.07 30.74V3.105a1.8 1.8 0 0 0-1.798-1.798h-28.6a1.8 1.8 0 0 0-1.798 1.798v43.789a1.8 1.8 0 0 0 1.798 1.798h14.3a1.25 1.25 0 0 0 0-2.5H8.375V3.808H35.57V32.64h-9.953v-3.333h-7.291v3.879l-.847.383v4.289l.847.394v3.875h7.291v-3.356l9.953.01v2.874a1.25 1.25 0 0 0 2.5 0v-.967h6.055V30.74H38.07zm-19.243-.933h6.291v2.833h-5.584l-.045.021a.244.244 0 0 0-.137.062l-.524.237v-3.153zm-.847 4.081l1.301-.605v4.862l-1.301-.605v-3.652zm7.138 7.739h-6.291v-3.142l.601.28h.039c.023.007.039.026.063.026.025 0 .041-.02.063-.026l5.524.005v2.857zm-5.337-3.339V33.14h5.58c.003 0 .004.003.007.003s.004-.003.007-.003h16.25v5.148H19.781z"/></g></svg>