<svg xmlns="http://www.w3.org/2000/svg" id="Camada_1" data-name="Camada 1" version="1.1" viewBox="0 0 300 300"><defs><style>.cls-10,.cls-15,.cls-16,.cls-8{stroke-width:0}.cls-8{fill:#fafde7}.cls-10{fill:#d2c4b6}.cls-15{fill:#fff}.cls-16{fill:#192323}</style></defs><circle cx="140" cy="150" r="140" fill="#008dd3" stroke-width="0"/><path fill="#adadad" stroke-width="0" d="M286.62 224.28v35.98c0 4.07-3.3 7.37-7.37 7.37h-43.28l50.65-43.35z"/><path fill="#f4f4f4" stroke-width="0" d="M286.62 61.35v162.93l-50.65 43.35H76.37a7.37 7.37 0 01-7.37-7.37V61.35c0-4.07 3.3-7.37 7.37-7.37h202.89c4.07 0 7.37 3.3 7.37 7.37z"/><path fill="none" stroke="#d8d8d8" stroke-miterlimit="10" stroke-width="3" d="M69 116.54h217.62M69 146.22h217.62M69 175.89h217.62M69 205.57h217.62M69 235.24h201.65"/><path fill="#ae1543" stroke-width="0" d="M75.21 47.66h205.2c4.43 0 8.03 3.6 8.03 8.03v33.07H67.18V55.69c0-4.43 3.6-8.03 8.03-8.03z"/><path fill="none" stroke="#005050" stroke-miterlimit="10" stroke-width="2" d="M96.72 88.76v178.87"/><path d="M94.65 54.55h10.66v10.66H94.65z" class="cls-16"/><path d="M114.85 47.78h-7.33l-1.08-4.21s-.48 19.47-7.21 21.64h-4.57v-3.37s1.68-.12 2.64-4.45c.96-4.33 2.52-24.52 8.54-25 1.3-.1 2.3.27 3.09.97 1.2 1.06 1.96 2.88 2.62 5 .94 2.98 1.7 6.56 3.3 9.42z" class="cls-8"/><path d="M114.85 47.78h-7.33l-1.08-4.21s.43-7.42 5.11-5.21c.94 2.98 1.7 6.56 3.3 9.42z" class="cls-10"/><path d="M108.93 33.36s-4.54 2.2-6.14 10.77c-1.46 7.83-.39 18.28-8.13 20.63v-2.92s1.68-.12 2.64-4.45c.96-4.33 2.52-24.52 8.54-25 1.3-.1 2.3.27 3.09.97z" class="cls-15"/><path d="M116.37 54.55h10.66v10.66h-10.66z" class="cls-16"/><path d="M136.56 47.78h-7.33l-1.08-4.21s-.48 19.47-7.21 21.64h-4.57v-3.37s1.68-.12 2.64-4.45c.96-4.33 2.52-24.52 8.54-25 1.3-.1 2.3.27 3.09.97 1.2 1.06 1.96 2.88 2.62 5 .94 2.98 1.7 6.56 3.3 9.42z" class="cls-8"/><path d="M136.56 47.78h-7.33l-1.08-4.21s.43-7.42 5.11-5.21c.94 2.98 1.7 6.56 3.3 9.42z" class="cls-10"/><path d="M130.64 33.36s-4.54 2.2-6.14 10.77c-1.46 7.83-.39 18.28-8.13 20.63v-2.92s1.68-.12 2.64-4.45c.96-4.33 2.52-24.52 8.54-25 1.3-.1 2.3.27 3.09.97z" class="cls-15"/><path d="M138.09 54.55h10.66v10.66h-10.66z" class="cls-16"/><path d="M158.28 47.78h-7.33l-1.08-4.21s-.48 19.47-7.21 21.64h-4.57v-3.37s1.68-.12 2.64-4.45c.96-4.33 2.52-24.52 8.54-25 1.3-.1 2.3.27 3.09.97 1.2 1.06 1.96 2.88 2.62 5 .94 2.98 1.7 6.56 3.3 9.42z" class="cls-8"/><path d="M158.28 47.78h-7.33l-1.08-4.21s.43-7.42 5.11-5.21c.94 2.98 1.7 6.56 3.3 9.42z" class="cls-10"/><path d="M152.36 33.36s-4.54 2.2-6.14 10.77c-1.46 7.83-.39 18.28-8.13 20.63v-2.92s1.68-.12 2.64-4.45c.96-4.33 2.52-24.52 8.54-25 1.3-.1 2.3.27 3.09.97z" class="cls-15"/><path d="M159.8 54.55h10.66v10.66H159.8z" class="cls-16"/><path d="M180 47.78h-7.33l-1.08-4.21s-.48 19.47-7.21 21.64h-4.57v-3.37s1.68-.12 2.64-4.45c.96-4.33 2.52-24.52 8.54-25 1.3-.1 2.3.27 3.09.97 1.2 1.06 1.96 2.88 2.62 5 .94 2.98 1.7 6.56 3.3 9.42z" class="cls-8"/><path d="M180 47.78h-7.33l-1.08-4.21s.43-7.42 5.11-5.21c.94 2.98 1.7 6.56 3.3 9.42z" class="cls-10"/><path d="M174.08 33.36s-4.54 2.2-6.14 10.77c-1.46 7.83-.39 18.28-8.13 20.63v-2.92s1.68-.12 2.64-4.45c.96-4.33 2.52-24.52 8.54-25 1.3-.1 2.3.27 3.09.97z" class="cls-15"/><g><path d="M181.52 54.55h10.66v10.66h-10.66z" class="cls-16"/><path d="M201.71 47.78h-7.33l-1.08-4.21s-.48 19.47-7.21 21.64h-4.57v-3.37s1.68-.12 2.64-4.45c.96-4.33 2.52-24.52 8.54-25 1.3-.1 2.3.27 3.09.97 1.2 1.06 1.96 2.88 2.62 5 .94 2.98 1.7 6.56 3.3 9.42z" class="cls-8"/><path d="M201.71 47.78h-7.33l-1.08-4.21s.43-7.42 5.11-5.21c.94 2.98 1.7 6.56 3.3 9.42z" class="cls-10"/><path d="M195.79 33.36s-4.54 2.2-6.14 10.77c-1.46 7.83-.39 18.28-8.13 20.63v-2.92s1.68-.12 2.64-4.45c.96-4.33 2.52-24.52 8.54-25 1.3-.1 2.3.27 3.09.97z" class="cls-15"/></g><g><path d="M203.23 54.55h10.66v10.66h-10.66z" class="cls-16"/><path d="M223.43 47.78h-7.33l-1.08-4.21s-.48 19.47-7.21 21.64h-4.57v-3.37s1.68-.12 2.64-4.45c.96-4.33 2.52-24.52 8.54-25 1.3-.1 2.3.27 3.09.97 1.2 1.06 1.96 2.88 2.62 5 .94 2.98 1.7 6.56 3.3 9.42z" class="cls-8"/><path d="M223.43 47.78h-7.33l-1.08-4.21s.43-7.42 5.11-5.21c.94 2.98 1.7 6.56 3.3 9.42z" class="cls-10"/><path d="M217.51 33.36s-4.54 2.2-6.14 10.77c-1.46 7.83-.39 18.28-8.13 20.63v-2.92s1.68-.12 2.64-4.45c.96-4.33 2.52-24.52 8.54-25 1.3-.1 2.3.27 3.09.97z" class="cls-15"/></g><g><path d="M224.95 54.55h10.66v10.66h-10.66z" class="cls-16"/><path d="M245.14 47.78h-7.33l-1.08-4.21s-.48 19.47-7.21 21.64h-4.57v-3.37s1.68-.12 2.64-4.45c.96-4.33 2.52-24.52 8.54-25 1.3-.1 2.3.27 3.09.97 1.2 1.06 1.96 2.88 2.62 5 .94 2.98 1.7 6.56 3.3 9.42z" class="cls-8"/><path d="M245.14 47.78h-7.33l-1.08-4.21s.43-7.42 5.11-5.21c.94 2.98 1.7 6.56 3.3 9.42z" class="cls-10"/><path d="M239.22 33.36s-4.54 2.2-6.14 10.77c-1.46 7.83-.39 18.28-8.13 20.63v-2.92s1.68-.12 2.64-4.45c.96-4.33 2.52-24.52 8.54-25 1.3-.1 2.3.27 3.09.97z" class="cls-15"/></g><g><path d="M246.67 54.55h10.66v10.66h-10.66z" class="cls-16"/><path d="M266.86 47.78h-7.33l-1.08-4.21s-.48 19.47-7.21 21.64h-4.57v-3.37s1.68-.12 2.64-4.45c.96-4.33 2.52-24.52 8.54-25 1.3-.1 2.3.27 3.09.97 1.2 1.06 1.96 2.88 2.62 5 .94 2.98 1.7 6.56 3.3 9.42z" class="cls-8"/><path d="M266.86 47.78h-7.33l-1.08-4.21s.43-7.42 5.11-5.21c.94 2.98 1.7 6.56 3.3 9.42z" class="cls-10"/><path d="M260.94 33.36s-4.54 2.2-6.14 10.77c-1.46 7.83-.39 18.28-8.13 20.63v-2.92s1.68-.12 2.64-4.45c.96-4.33 2.52-24.52 8.54-25 1.3-.1 2.3.27 3.09.97z" class="cls-15"/></g><path fill="#dbdbdb" stroke-width="0" d="M286.62 203.68s-13.01 3.65-29.43 4.11c-16.42.46-29.2 2.43-33.76 16.5-4.56 14.07-18.25 43.35-18.25 43.35h30.79l50.65-43.35v-20.6z"/><g><rect width="14.58" height="35.02" x="63.57" y="40.5" fill="#f4559e" stroke-width="0" rx="6.93" ry="6.93" transform="rotate(-25.29 70.88 58.013)"/><path fill="#fc0" stroke-width="0" d="M103.4 47.84h14.64v188.9H103.4z" transform="rotate(-25.29 110.724 142.304)"/><path fill="#e5b000" stroke-width="0" d="M113.95 45.47h3.57v188.9h-3.57z" transform="rotate(-25.29 115.748 139.943)"/><path fill="#ffe159" stroke-width="0" d="M106.32 60.86h3.02v177.83h-3.02z" transform="rotate(-25.29 107.852 149.782)"/><rect width="16.17" height="31.36" x="67.81" y="52.91" fill="#7fccff" stroke-width="0" rx=".58" ry=".58" transform="rotate(-25.29 75.902 68.597)"/><path fill="#f3dcac" stroke-width="0" d="M157.7 224.56l.73 4.4 2.39 14.41-3.81 1.8-8.94-10.23-3.61-4.13s-2.33-5.8-.47-6.28c1.87-.48 4.76 3.08 4.63 2.87-.13-.21-.7-4.7.22-5.18.92-.49 3.14 1.23 4.31 2.97 0 0-1.79-5.23.18-5.48 1.97-.26 4.38 4.84 4.38 4.84z"/><path fill="#30261a" stroke-width="0" d="M160.82 243.37l1.25 7.59-5.06-5.79 3.81-1.8z"/><path fill="#57b7e9" stroke-width="0" d="M76.75 51.48l12.9 27.3c.14.29.01.64-.28.77l-5.11 2.41-13.4-28.35 5.11-2.41c.29-.14.64-.01.77.28z"/><path fill="#ff83c0" stroke-width="0" d="M60.34 50.23s-2.16-4.01-.27-5.44c1.89-1.43 3.18-1.7 3.18-1.7s1.53.09-.11 1.2c-1.63 1.11-2.99 1.18-2.72 2.81.26 1.63 1.15 4.21-.07 3.14z"/><path d="M74.36 52.91l-11.35 5.36c-.11.05-.25 0-.3-.11-.05-.11 0-.25.11-.3l11.35-5.36c.11-.05.25 0 .3.11.05.11 0 .25-.11.3z" class="cls-15"/></g></svg>