<svg xmlns="http://www.w3.org/2000/svg" viewBox="0 0 47 47"><g fill="none" fill-rule="evenodd"><path fill="#FCC34F" d="M45.102 36.072l.38 4.082-14.04 5.083-29.553.259.038-2.888 43.845-15.96-.67 3.53z"/><path fill="#FDCF72" d="M45.374 20.622l-.531 7.333L1.868 43.597v-9.302l.309-4.21L45.48 14.323z"/><path stroke="#444" stroke-linecap="round" stroke-linejoin="round" stroke-width="2.5" d="M10.22 1.25h35.528v44.206H1.25V30.699"/><path fill="#444" d="M18.152 13.387a.606.606 0 010 1.211.607.607 0 010-1.211zm5.452-3.029a.607.607 0 11-.606.606c0-.334.272-.606.606-.606zm5.452 3.029a.607.607 0 010 1.211.606.606 0 010-1.211zm0 7.27a.606.606 0 11.002-1.212.606.606 0 01-.002 1.212zm-5.452 3.029a.607.607 0 11.606-.606.608.608 0 01-.606.606zm-.606-8.37c-.22.078-.419.196-.59.349l-2.469-1.374c.016-.097.03-.196.03-.299 0-.102-.014-.201-.03-.298l2.468-1.373c.173.151.371.27.591.349v2.646zm4.271-1.025L24.8 15.665a1.784 1.784 0 00-.59-.349v-2.647c.22-.079.42-.197.59-.349l2.47 1.373c-.017.098-.03.197-.03.299 0 .103.013.202.03.299zm-3.059 4.437c.22-.079.42-.197.59-.349l2.47 1.373c-.017.097-.03.197-.03.299 0 .102.013.201.03.298l-2.47 1.374a1.784 1.784 0 00-.59-.349v-2.646zm-.606-2.312a.607.607 0 11-.606.606c0-.334.272-.606.606-.606zm-3.665 3.336l2.468-1.373c.173.151.371.27.591.349v2.646a1.8 1.8 0 00-.59.349l-2.469-1.373c.016-.098.03-.197.03-.299 0-.102-.014-.202-.03-.299zm7.921-1.058l-2.469-1.374a1.72 1.72 0 00.031-.298c0-.103-.014-.201-.03-.299l2.468-1.374c.172.152.371.271.591.35v2.646a1.79 1.79 0 00-.59.349zm-8.512-3.345l2.47 1.374c-.018.098-.03.196-.03.299 0 .102.012.201.03.298l-2.47 1.374a1.805 1.805 0 00-.59-.349v-2.647c.22-.078.42-.196.59-.349zm-1.196 5.308a.607.607 0 010-1.212.607.607 0 010 1.212zm-15.938-3.03a.606.606 0 010-1.211.607.607 0 010 1.211zm0-5.452a.607.607 0 010-1.211.607.607 0 010 1.211zm0 10.905a.607.607 0 010-1.212.607.607 0 010 1.212zm14.232-3.635H7.061a.61.61 0 00-.429.177l-2.245 2.246H3.92a1.814 1.814 0 00-1.706-1.211 1.819 1.819 0 00-1.817 1.817 1.813 1.813 0 003.523.606h.717a.605.605 0 00.43-.178l2.245-2.245h9.134c.25.703.917 1.211 1.706 1.211a1.8 1.8 0 001.196-.46l2.47 1.373c-.018.098-.03.196-.03.299 0 1.002.814 1.817 1.816 1.817a1.82 1.82 0 001.818-1.817c0-.103-.014-.201-.03-.299l2.468-1.373a1.8 1.8 0 001.196.46 1.82 1.82 0 001.818-1.817c0-.789-.508-1.456-1.212-1.706v-2.647a1.814 1.814 0 001.212-1.706 1.82 1.82 0 00-1.818-1.817 1.8 1.8 0 00-1.196.46l-2.469-1.373a1.72 1.72 0 00.031-.298 1.82 1.82 0 00-1.818-1.818 1.82 1.82 0 00-1.817 1.818c0 .102.013.201.03.298l-2.469 1.374a1.8 1.8 0 00-1.196-.461c-.789 0-1.456.508-1.706 1.212H7.312l-2.246-2.246a.604.604 0 00-.429-.177H3.92a1.813 1.813 0 00-1.706-1.212 1.819 1.819 0 00-1.817 1.817 1.82 1.82 0 001.817 1.818c.79 0 1.456-.508 1.706-1.212h.467l2.245 2.246a.605.605 0 00.43.177h9.384c.183.514.587.917 1.1 1.101v.717H3.92a1.815 1.815 0 00-1.706-1.212 1.82 1.82 0 00-1.817 1.818 1.812 1.812 0 003.523.605h13.626v.718a1.816 1.816 0 00-1.1 1.1z"/><path fill="#444" d="M16.94 41.86h9.693a.606.606 0 00.606-.605v-4.241h7.876a.605.605 0 00.605-.606v-7.27h4.241a.606.606 0 00.58-.787l-3.022-9.665a13.523 13.523 0 00-4.383-9.57c-2.74-2.527-6.31-3.797-10.048-3.58-4.3.25-8.283 2.61-10.656 6.312l1.02.654c2.164-3.376 5.793-5.528 9.708-5.757 3.405-.2 6.66.96 9.154 3.263a12.315 12.315 0 013.997 8.86.585.585 0 00.086.29l2.74 8.768h-4.022a.607.607 0 00-.607.607v2.423h-1.817a1.82 1.82 0 01-1.817-1.818h-1.212c0 1.67 1.36 3.03 3.03 3.03h1.816v3.634h-7.875a.606.606 0 00-.606.606v4.24h-8.48v-.585c0-4.901-1.475-9.914-4.262-14.494a12.295 12.295 0 01-1.386-3.25l-1.17.31a13.519 13.519 0 001.52 3.57c2.672 4.39 4.085 9.184 4.085 13.864v1.192c0 .334.272.605.606.605"/></g></svg>