<?xml version="1.0" encoding="utf-8"?>
<!-- Generator: Adobe Illustrator 22.0.1, SVG Export Plug-In . SVG Version: 6.00 Build 0)  -->
<svg version="1.1" id="Layer_1" xmlns="http://www.w3.org/2000/svg" xmlns:xlink="http://www.w3.org/1999/xlink" x="0px" y="0px"
	 viewBox="0 0 50 50" style="enable-background:new 0 0 50 50;" xml:space="preserve">
<style type="text/css">
	.st0{fill:none;stroke:#444444;stroke-width:0.5;stroke-linecap:round;stroke-miterlimit:10;}
	.st1{fill:#E097FB;}
	.st2{fill:#CE87EA;}
	.st3{fill:#464646;}
</style>
<g>
	<path class="st0" d="M40.8,33.5"/>
	<path class="st1" d="M7,6.9c-1.6,0-2.8,1.6-2.8,3.5V21L43.1,6.9H7z"/>
	<path class="st2" d="M46.3,10.4c0-1.9-1.3-3.5-2.8-3.5h-0.4L4.1,21v15.6H1.9l0.1,2c0,0.5,0.2,1,0.4,1.3l0.7,1.3
		c0.2,0.3,0.3,0.5,0.5,0.7l42.6-15.5V10.4H46.3z"/>
	<path class="st3" d="M41.9,33.9H8.3V11.6h33.5L41.9,33.9L41.9,33.9z M9.9,32.4h30.5V13.1H9.9V32.4z"/>
	<path class="st3" d="M28.4,35.7L28,37.8c-0.1,0.3-0.2,0.5-0.3,0.6h-5.3c-0.7,0-1.2,0.6-1.2,1.2s0.6,1.2,1.2,1.2h5.4
		c1.3,0,2.3-1,2.6-2.6v-0.1h16.7v0.6c0,0.3-0.1,0.5-0.2,0.7l-0.8,1.4c-0.4,0.7-0.9,1.1-1.4,1.1H5.5c-0.5,0-1-0.4-1.4-1.1l-0.7-1.3
		c-0.1-0.2-0.2-0.5-0.2-0.7v-0.6h17.3c0.7,0,1.2-0.6,1.2-1.2s-0.6-1.2-1.2-1.2H5.3V10.1c0-1,0.7-1.8,1.6-1.8h36.4
		c0.9,0,1.6,0.8,1.6,1.8v18.5c0,0.7,0.6,1.2,1.2,1.2s1.2-0.6,1.2-1.2V10.1c0-2.4-1.8-4.3-4.1-4.3H6.9c-2.3,0-4.1,1.9-4.1,4.3v25.6
		H0.4l0.2,3.2c0,0.7,0.2,1.3,0.5,1.8L1.8,42c0.9,1.5,2.2,2.3,3.6,2.3h39.2c1.4,0,2.7-0.8,3.6-2.3l0.7-1.3c0.3-0.5,0.5-1.2,0.5-1.8
		l0.2-3.2H28.4z"/>
	<g>
		<polygon class="st3" points="25.7,31 32.6,27 32.6,19.1 25.7,23 		"/>
	</g>
	<g>
		<path class="st3" d="M19.3,20c-0.3-0.1-0.3-0.5-0.2-0.7c0.1-0.3,0.5-0.3,0.7-0.2l5.3,3l7-3.9l-7-4l-7.4,4.3V27l7,4v-8L19.3,20z"/>
	</g>
</g>
</svg>
