<?xml version="1.0" encoding="utf-8"?>
<!-- Generator: Adobe Illustrator 28.0.0, SVG Export Plug-In . SVG Version: 6.00 Build 0)  -->
<svg version="1.1" id="Layer_1" xmlns="http://www.w3.org/2000/svg" xmlns:xlink="http://www.w3.org/1999/xlink" x="0px" y="0px"
	 viewBox="0 0 50 50" style="enable-background:new 0 0 50 50;" xml:space="preserve">
<style type="text/css">
	.st0{fill:#FC9D9A;}
	.st1{fill:none;stroke:#444444;stroke-width:2.5;stroke-linecap:round;stroke-linejoin:round;stroke-miterlimit:10;}
	.st2{fill:none;stroke:#444444;stroke-width:0.5;stroke-linecap:round;stroke-linejoin:round;stroke-miterlimit:10;}
	.st3{fill:none;stroke:#444444;stroke-linecap:round;stroke-linejoin:round;stroke-miterlimit:10;}
</style>
<g>
	<path class="st0" d="M48,17.3l0.5-10.9l-1.9-3.8L31.4,3C28.3,3,3.9,0.1,3.9,3.3L2.3,23.7l1.2,23.2l13.4,0.6l30.6-10.9
		C48.2,36.2,49,19.2,48,17.3z"/>
	<path class="st1" d="M33.3,47.5H6.6c-1.8,0-3.3-1.6-3.3-3.5V5.5c0-1.9,1.5-3.5,3.3-3.5h38.5c1.8,0,3.3,1.6,3.3,3.5v32.1"/>
	<g>
		<g id="XMLID_73_">
			<g>
				<polyline class="st2" points="26,35.8 26,35.8 26,32.2 26,32.2 26,32.2 26,28.5 				"/>
				<polyline class="st2" points="13.1,35.9 13.1,32.2 26,32.2 26.2,32.2 39.2,32.2 39.2,32.2 39.2,35.9 				"/>
				<polygon class="st3" points="31.9,42.6 20,42.6 20,35.8 26,35.8 31.9,35.8 				"/>
				<polygon class="st3" points="13.1,35.9 9.4,42.6 16.8,42.6 				"/>
				<path class="st3" d="M42.5,39.2c0,1.8-1.5,3.3-3.2,3.3c-1.8,0-3.2-1.5-3.2-3.3c0-1.8,1.4-3.3,3.2-3.3h0
					C41,35.9,42.5,37.4,42.5,39.2z"/>
				<path class="st3" d="M35.1,23.7c1-0.6,1.6-1.7,1.7-3c0-0.1,0-0.1,0-0.2c0-2.1-1.7-3.8-3.7-3.8c-0.9,0-1.7,0.3-2.3,0.8"/>
				<path class="st3" d="M22.9,20.3c0-0.5-0.2-1.1-0.4-1.5c-0.1-0.1-0.1-0.2-0.2-0.3c-0.6-1-1.7-1.7-3-1.7c-2,0-3.5,1.7-3.5,3.8
					c0,0,0,0.1,0,0.1"/>
				<path class="st3" d="M22.5,18.8c0.2-2.1,2-3.8,4.2-3.8c1.8,0,3.3,1.1,3.9,2.7c0.1,0.2,0.1,0.3,0.2,0.5c0.1,0.3,0.1,0.7,0.1,1
					c0,0.5-0.1,1-0.3,1.5"/>
				<path class="st3" d="M18.6,21.9c-0.7-0.7-1.7-1.2-2.8-1.2c0,0,0,0,0,0c-2.1,0-3.8,1.8-3.8,3.9c0,2.2,1.7,3.9,3.8,3.9l2.3,0
					l4.1,0l3.7,0l3.7,0l4.1,0H36c2.1,0,3.9-1.7,3.9-3.9c0-1.9-1.3-3.5-3.1-3.8"/>
				<path class="st3" d="M26,7c0.7,0,1.2,0.5,1.2,1.2c0,0.7-0.5,1.2-1.2,1.2c-0.7,0-1.2-0.5-1.2-1.2C24.8,7.5,25.3,7,26,7z"/>
				<line class="st2" x1="26" y1="13.6" x2="26" y2="10.4"/>
				<path class="st3" d="M32.2,8.9c0.7,0,1.2,0.5,1.2,1.2c0,0.7-0.5,1.2-1.2,1.2c-0.7,0-1.2-0.5-1.2-1.2C31,9.5,31.5,8.9,32.2,8.9z"
					/>
				<path class="st3" d="M38.4,7.9c0.7,0,1.2,0.5,1.2,1.2c0,0.7-0.5,1.2-1.2,1.2c-0.7,0-1.2-0.5-1.2-1.2C37.2,8.5,37.7,7.9,38.4,7.9
					z"/>
				<path class="st3" d="M19.7,8.9c-0.7,0-1.2,0.5-1.2,1.2c0,0.7,0.5,1.2,1.2,1.2c0.7,0,1.2-0.5,1.2-1.2C20.9,9.5,20.4,8.9,19.7,8.9
					z"/>
				<path class="st3" d="M13.5,7.9c-0.7,0-1.2,0.5-1.2,1.2c0,0.7,0.5,1.2,1.2,1.2c0.7,0,1.2-0.5,1.2-1.2C14.7,8.5,14.2,7.9,13.5,7.9
					z"/>
				<polyline class="st2" points="38.4,11.4 38.4,15.1 36.6,16.8 				"/>
				<polyline class="st2" points="32.2,12.4 32.2,14.2 30.9,15.5 				"/>
				<polyline class="st2" points="13.5,11.4 13.5,15.4 15.5,17.4 				"/>
				<polyline class="st2" points="19.8,12.4 19.8,13.7 22.1,16 				"/>
				<polyline class="st2" points="22.3,28.5 22.3,24.5 29.6,24.5 29.6,28.5 				"/>
			</g>
		</g>
	</g>
</g>
</svg>
