<?xml version="1.0" encoding="utf-8"?>
<!-- Generator: Adobe Illustrator 24.0.0, SVG Export Plug-In . SVG Version: 6.00 Build 0)  -->
<svg version="1.1" id="Layer_1" xmlns="http://www.w3.org/2000/svg" xmlns:xlink="http://www.w3.org/1999/xlink" x="0px" y="0px"
	 viewBox="0 0 50 50" style="enable-background:new 0 0 50 50;" xml:space="preserve">
<style type="text/css">
	.st0{fill:#FCC34F;}
	.st1{fill:#FDCF72;}
	.st2{fill:none;stroke:#444444;stroke-width:2.5;stroke-linecap:round;stroke-linejoin:round;stroke-miterlimit:10;}
	.st3{fill:#444444;}
</style>
<polygon class="st0" points="48.2,25.7 48.6,30.1 1.8,47.1 2,37.9 2.3,32.7 48.9,15.7 48.2,19.5 "/>
<polygon class="st1" points="48.2,9 47.6,16.7 2,33.4 2,23.5 2.3,19 48.3,2.3 "/>
<polyline class="st2" points="32.9,47.9 2.3,47.9 2.3,2.5 48,2.5 48,37.7 "/>
<g>
	<path class="st3" d="M37.4,16.1c0-2.2-1.8-4.1-4.1-4.1h-0.6c-0.9-3.3-3.8-5.6-7.3-5.6s-6.4,2.3-7.3,5.6H17c-2.2,0-4.1,1.8-4.1,4.1
		s1.8,4.1,4.1,4.1h5.3v5h-5c-1,0-1.9,0.8-1.9,1.9v10c0,1,0.8,1.9,1.9,1.9H23v1.3h-1.9c-1,0-1.9,0.8-1.9,1.9v1.3
		c0,0.3,0.3,0.6,0.6,0.6h11.9c0.3,0,0.6-0.3,0.6-0.6v-1.3c0-1-0.8-1.9-1.9-1.9H28V39h5.6c1,0,1.9-0.8,1.9-1.9v-10
		c0-1-0.8-1.9-1.9-1.9h-10v-5h9.7C35.6,20.2,37.4,18.4,37.4,16.1z M31.1,42.1v0.6H20.5v-0.6c0-0.3,0.3-0.6,0.6-0.6h9.4
		C30.8,41.5,31.1,41.7,31.1,42.1z M26.7,40.2h-2.5V39h2.5V40.2z M33.6,37.7H17.4c-0.3,0-0.6-0.3-0.6-0.6v-0.6h17.5v0.6
		C34.3,37.4,34,37.7,33.6,37.7z M27.4,26.4v0.3h1.3v-0.3h5c0.3,0,0.6,0.3,0.6,0.6v8.1H16.7v-8.1c0-0.3,0.3-0.6,0.6-0.6h5v4.4
		c0,1.4,0.9,2.6,2.1,3c1.3,0.4,2.7,0,3.5-1.1c0.8-1.1,0.8-2.6,0.1-3.7h0.6v-1.2h-1.3v0.4c-1.1-0.9-2.7-0.9-3.8,0v-1.9H27.4z
		 M23.6,30.8c0-1,0.8-1.9,1.9-1.9c1,0,1.9,0.8,1.9,1.9c0,1-0.8,1.9-1.9,1.9C24.5,32.7,23.6,31.9,23.6,30.8z M25.5,16.4
		c-1,0-1.9-0.8-1.9-1.9s0.8-1.9,1.9-1.9c1,0,1.9,0.8,1.9,1.9S26.5,16.4,25.5,16.4z M23.6,17c1.1,0.9,2.7,0.9,3.8,0v0.4h1.3v-1.2
		h-0.6c0.8-1.1,0.7-2.6-0.1-3.7c-0.8-1.1-2.2-1.5-3.5-1.1c-1.3,0.4-2.1,1.6-2.1,3v4.4H17c-1.6,0-2.8-1.3-2.8-2.8s1.3-2.8,2.8-2.8
		h1.7c0.3,0,0.6-0.2,0.6-0.5c0.5-3,3.1-5.1,6.2-5.1s5.6,2.2,6.2,5.1c0.1,0.3,0.3,0.5,0.6,0.5h1.1c1.6,0,2.8,1.3,2.8,2.8
		s-1.3,2.8-2.8,2.8h-4.7v-0.3h-1.3v0.3h-3.8V17z"/>
	<path class="st3" d="M25.5,13.6c-0.5,0-0.9,0.4-0.9,0.9s0.4,0.9,0.9,0.9c0.5,0,0.9-0.4,0.9-0.9S26,13.6,25.5,13.6z M25.5,14.9
		c-0.2,0-0.3-0.1-0.3-0.3s0.1-0.3,0.3-0.3c0.2,0,0.3,0.1,0.3,0.3S25.7,14.9,25.5,14.9z"/>
	<path class="st3" d="M26.4,30.8c0-0.5-0.4-0.9-0.9-0.9c-0.5,0-0.9,0.4-0.9,0.9c0,0.5,0.4,0.9,0.9,0.9C26,31.8,26.4,31.3,26.4,30.8z
		 M25.2,30.8c0-0.2,0.1-0.3,0.3-0.3c0.2,0,0.3,0.1,0.3,0.3c0,0.2-0.1,0.3-0.3,0.3C25.3,31.1,25.2,31,25.2,30.8z"/>
	<path class="st3" d="M27.4,20.9h1.3v1.2h-1.3V20.9z"/>
	<path class="st3" d="M27.4,23.3h1.3v1.2h-1.3V23.3z"/>
</g>
</svg>
