<svg xmlns="http://www.w3.org/2000/svg" id="Camada_1" data-name="Camada 1" version="1.1" viewBox="0 0 50 50"><defs><style>.cls-2{fill:none;stroke:#444;stroke-linecap:round;stroke-linejoin:round}</style></defs><path fill="#35d3c3" stroke-width="0" d="M30.7 24l7.8 2.4-6.7 4.7.1 8.2-6.6-4.9-7.8 2.7 2.7-7.8-4.9-6.6 8.2.1 4.7-6.7 2.5 7.9z"/><path fill="#7df4eb" stroke-width="0" d="M47.9 17.3l.5-11.4-2-4-15.8.5c-3.3 0-28.7-3-28.7.3L.2 24l1.2 24.2 14 .7 32-11.4c.8-.4 1.6-18.2.6-20.2z"/><path fill="none" stroke="#444" stroke-linecap="round" stroke-linejoin="round" stroke-width="2.5" d="M32.6 48.8H4.7c-1.9 0-3.5-1.6-3.5-3.6V5.1c0-2 1.6-3.6 3.5-3.6h40.2c1.9 0 3.5 1.6 3.5 3.6v33.5"/><path d="M36.5 33.2c1.7-1.1 2.9-3.1 3.1-5.3v-.4c0-3.8-3-6.8-6.7-6.8-1.6 0-3 .5-4.2 1.5M14.5 27c0-1-.3-1.9-.7-2.7 0-.2-.2-.4-.3-.5-1.1-1.9-3.1-3.1-5.3-3.1-3.5 0-6.4 3-6.4 6.8v.2" class="cls-2"/><path d="M13.8 24.3c.4-3.8 3.6-6.9 7.6-6.8 3.2 0 6 2 7.1 4.9l.3.9c.1.6.2 1.2.2 1.8 0 .9-.2 1.8-.5 2.6M1.8 41.8H38c3.8 0 6.9-3.1 7-7 0-3.4-2.4-6.3-5.5-6.9M6.8 29.8c-1.3-1.3-3-2.1-5-2.2M1.3 11h46.2M5.7 6.8h2.8m2.9 0h2.9m2.9 0h2.9" class="cls-2"/><path fill="none" stroke="#444" stroke-linecap="round" stroke-linejoin="round" stroke-width=".5" d="M1.1 38.1h28.8m-14.6-4.8h15.5"/></svg>