<?xml version="1.0" encoding="utf-8"?>
<!-- Generator: Adobe Illustrator 28.0.0, SVG Export Plug-In . SVG Version: 6.00 Build 0)  -->
<svg version="1.1" id="Layer_1" xmlns="http://www.w3.org/2000/svg" xmlns:xlink="http://www.w3.org/1999/xlink" x="0px" y="0px"
	 viewBox="0 0 50 50" style="enable-background:new 0 0 50 50;" xml:space="preserve">
<style type="text/css">
	.st0{fill:#8256D8;}
	.st1{fill:#A475EF;}
	.st2{fill:none;stroke:#444444;stroke-width:2.5;stroke-linecap:round;stroke-linejoin:round;stroke-miterlimit:10;}
	.st3{fill:none;stroke:#444444;stroke-width:0.5;stroke-linecap:round;stroke-linejoin:round;stroke-miterlimit:10;}
	.st4{fill:none;stroke:#444444;stroke-linecap:round;stroke-linejoin:round;stroke-miterlimit:10;}
</style>
<polygon class="st0" points="29.5,21.2 37.3,23.7 30.6,28.4 30.7,36.6 24.1,31.7 16.4,34.3 19,26.6 14.1,20 22.3,20.1 27,13.4 "/>
<path class="st1" d="M48,20c-0.2-0.8-2.7-7.5-3.2-8.1l-3-3.5l-0.2,0.1L34,2.7l-7.8-0.7C23,2.1,11.7,2.3,4.8,12.3L0.8,22.9l-0.2,0.1
	l4,13.4c0.1,0.4,4.5,5.7,4.9,5.9l5.6,3l32.2-11.7C47.9,33.1,49,24.8,48,20z"/>
<g>
	<g>
		<g>
			<path class="st2" d="M32.3,47.3c-7,2.3-15,1.2-21.3-3.6C0.6,36-1.5,21.3,6.3,10.9"/>
			<path class="st2" d="M6.2,11.1c2-3,4.7-4.7,4.7-4.7l0.7-0.5C19.7,0.1,30.8,0,39.2,6.3c10.4,7.8,12.4,22.5,4.7,32.8"/>
		</g>
	</g>
</g>
<g>
	<polyline class="st3" points="19.8,27.6 19.8,32.9 13.7,32.9 	"/>
	<line class="st3" x1="24.9" y1="27.6" x2="24.9" y2="34.5"/>
	<polyline class="st3" points="29.8,27.6 29.8,32.9 36.3,32.9 	"/>
	<circle class="st3" cx="11.9" cy="32.9" r="1.8"/>
	<circle class="st3" cx="38.1" cy="32.9" r="1.8"/>
	<circle class="st3" cx="24.9" cy="36.3" r="1.8"/>
	<path class="st4" d="M24.9,27.6h-8.2h0c-3.3,0-5.9-2.6-5.9-5.9v-1.1c0,0,0.1-6.8,7.9-6.1c0,0,1.7-5.9,8.4-4.3c0,0,4.9,1.3,5,6.7
		c0,0,6.4-1.1,6.8,5.2c0,0,0.2,4.2-4.4,5.4H24.9z"/>
</g>
</svg>
