<?xml version="1.0" encoding="utf-8"?>
<!-- Generator: Adobe Illustrator 27.7.0, SVG Export Plug-In . SVG Version: 6.00 Build 0)  -->
<svg version="1.1" id="Camada_3" xmlns="http://www.w3.org/2000/svg" xmlns:xlink="http://www.w3.org/1999/xlink" x="0px" y="0px"
	 viewBox="0 0 50 50" style="enable-background:new 0 0 50 50;" xml:space="preserve">
<style type="text/css">
	.st0{fill:#22DD6D;}
	.st1{fill:none;stroke:#444444;stroke-width:2.5;stroke-linecap:round;stroke-linejoin:round;stroke-miterlimit:10;}
	.st2{fill:none;stroke:#444444;stroke-miterlimit:10;}
	.st3{fill:none;stroke:#444444;stroke-linecap:round;stroke-linejoin:round;stroke-miterlimit:10;}
	.st4{fill:none;stroke:#444444;stroke-width:0.5;stroke-linecap:round;stroke-linejoin:round;stroke-miterlimit:10;}
	.st5{fill:none;stroke:#444444;stroke-width:0.5;stroke-miterlimit:10;}
</style>
<g>
	<g>
		<path class="st0" d="M37.48,12.37c-0.72-0.46-1.2-0.73-1.51-0.88l0.81-0.3L26.43,8.26C26.03,8.14,20,4.84,19.61,4.96l-5,1.65
			l-3.34,5.48c-0.16,0.26-6.12,2.91-6.36,3.1l-3.25,8.53L1.5,23.78v1.06c0,2.44,3.65,5,6.29,7.94c3.01,3.35,0.66,10.6,3.07,9.74
			l34.25-12.19c2.31-0.82,3.85-3.01,3.85-5.46v-4.83C48.97,15.72,40.73,14.45,37.48,12.37z"/>
		<path class="st1" d="M33.27,38.36l0.04-5.64l5.5,0.01l0,0c5.37,0,9.73-4.36,9.73-9.73c0-5.37-4.36-9.73-9.73-9.73
			c-0.43,0-0.85,0.03-1.26,0.08c-1.67-2.95-4.84-4.95-8.47-4.95c-1.02,0-2.01,0.16-2.93,0.45c-1.45-2.22-3.95-3.69-6.8-3.69
			c-4.48,0-8.11,3.63-8.11,8.11c-5.37,0-9.73,4.36-9.73,9.73c0,4.88,2.76,8.9,7.45,9.6v8.52c0,1.19,0.97,2.15,2.15,2.14l13.31-0.1"
			/>
	</g>
	<g>
		<path class="st2" d="M25.09,24.16h4.11c0.91,0,1.64,0.74,1.64,1.64v1.61"/>
		<g>
			<polyline class="st3" points="14.25,27.42 21.3,20.37 28.35,27.42 			"/>
			<path class="st4" d="M17.2,27.42l2.96-2.96c0.63,0.63,1.64,0.63,2.27,0l2.59,2.59c-0.11,0.11-0.21,0.24-0.28,0.38"/>
		</g>
		<path class="st2" d="M9.72,25.79c0,0.9,0.73,1.63,1.63,1.63h19.49c0.91,0,1.64,0.74,1.64,1.64v3.37"/>
		<path class="st2" d="M9.71,41.03V28.24v-2.45c0-0.9,0.77-1.63,1.72-1.63h6.09"/>
		<path class="st2" d="M27.78,37.67h5.03c0.42,0,0.77-0.34,0.77-0.77v-3.7c0-0.42-0.34-0.77-0.77-0.77h-5.03
			c-1.45,0-2.62,1.17-2.62,2.62v0C25.16,36.5,26.33,37.67,27.78,37.67z"/>
		<circle class="st5" cx="28.13" cy="35.05" r="0.88"/>
	</g>
</g>
</svg>
