<?xml version="1.0" encoding="UTF-8"?>
<svg id="Camada_1" data-name="Camada 1" xmlns="http://www.w3.org/2000/svg" version="1.1" viewBox="0 0 50 50">
  <defs>
    <style>
      .cls-1 {
        stroke-width: .5px;
      }

      .cls-1, .cls-2, .cls-3 {
        fill: none;
        stroke: #444;
        stroke-linecap: round;
        stroke-linejoin: round;
      }

      .cls-4 {
        fill: #35d3c3;
      }

      .cls-4, .cls-5 {
        stroke-width: 0px;
      }

      .cls-3 {
        stroke-width: 2.5px;
      }

      .cls-5 {
        fill: #7df4eb;
      }
    </style>
  </defs>
  <polygon class="cls-4" points="30.7 24 38.5 26.4 31.8 31.1 31.9 39.3 25.3 34.4 17.5 37.1 20.2 29.3 15.3 22.7 23.5 22.8 28.2 16.1 30.7 24"/>
  <g>
    <g>
      <path class="cls-5" d="M47.9,17.3l.5-11.4-2-4-15.8.5C27.3,2.4,1.9-.6,1.9,2.7L.2,24l1.2,24.2,14,.7,32-11.4c.8-.4,1.6-18.2.6-20.2Z"/>
      <path class="cls-3" d="M32.6,48.8H4.7c-1.9,0-3.5-1.6-3.5-3.6V5.1c0-2,1.6-3.6,3.5-3.6h40.2c1.9,0,3.5,1.6,3.5,3.6v33.5"/>
      <g>
        <path class="cls-2" d="M36.5,33.2c1.7-1.1,2.9-3.1,3.1-5.3,0-.1,0-.3,0-.4,0-3.8-3-6.8-6.7-6.8-1.6,0-3,.5-4.2,1.5"/>
        <path class="cls-2" d="M14.5,27c0-1-.3-1.9-.7-2.7,0-.2-.2-.4-.3-.5-1.1-1.9-3.1-3.1-5.3-3.1-3.5,0-6.4,3-6.4,6.8,0,0,0,.2,0,.2"/>
        <path class="cls-2" d="M13.8,24.3c.4-3.8,3.6-6.9,7.6-6.8,3.2,0,6,2,7.1,4.9.1.3.2.6.3.9.1.6.2,1.2.2,1.8,0,.9-.2,1.8-.5,2.6"/>
        <path class="cls-2" d="M1.8,41.8h4.1s7.4,0,7.4,0h6.6s6.6,0,6.6,0h7.4s4.1,0,4.1,0c3.8,0,6.9-3.1,7-7,0-3.4-2.4-6.3-5.5-6.9"/>
        <path class="cls-2" d="M6.8,29.8c-1.3-1.3-3-2.1-5-2.2h0"/>
      </g>
    </g>
    <g>
      <line class="cls-2" x1="1.3" y1="11" x2="47.5" y2="11"/>
      <line class="cls-2" x1="5.7" y1="6.8" x2="8.5" y2="6.8"/>
      <line class="cls-2" x1="11.4" y1="6.8" x2="14.3" y2="6.8"/>
      <line class="cls-2" x1="17.2" y1="6.8" x2="20.1" y2="6.8"/>
    </g>
    <line class="cls-1" x1="1.1" y1="38.1" x2="29.9" y2="38.1"/>
    <line class="cls-1" x1="15.3" y1="33.3" x2="30.8" y2="33.3"/>
  </g>
</svg>