<?xml version="1.0" encoding="utf-8"?>
<!-- Generator: Adobe Illustrator 22.0.1, SVG Export Plug-In . SVG Version: 6.00 Build 0)  -->
<svg version="1.1" id="Layer_1" xmlns="http://www.w3.org/2000/svg" xmlns:xlink="http://www.w3.org/1999/xlink" x="0px" y="0px"
	 viewBox="0 0 50 50" style="enable-background:new 0 0 50 50;" xml:space="preserve">
<style type="text/css">
	.st0{fill:none;stroke:#444444;stroke-width:0.5;stroke-linecap:round;stroke-miterlimit:10;}
	.st1{fill:#99CED4;}
	.st2{fill:#89B8BD;}
	.st3{fill:#464646;}
</style>
<path class="st0" d="M40.7,33.4"/>
<g>
	<path class="st1" d="M6.9,6.8c-1.6,0-2.8,1.6-2.8,3.5v10.7L43,6.8H6.9z"/>
</g>
<g>
	<path class="st2" d="M46.2,10.3c0-1.9-1.3-3.5-2.8-3.5H43l-39,14.2v15.6H1.8l0.1,2c0,0.5,0.2,1,0.4,1.3l0.7,1.3
		c0.2,0.3,0.3,0.5,0.5,0.7l42.6-15.5V10.3z"/>
</g>
<g>
	<path class="st3" d="M41.8,33.8H8.2V11.5h33.5V33.8z M9.8,32.3h30.5V13H9.8V32.3z"/>
</g>
<path class="st3" d="M28.3,35.6l-0.4,2.1c-0.1,0.3-0.2,0.5-0.3,0.6h-5.3c-0.7,0-1.2,0.6-1.2,1.2s0.6,1.2,1.2,1.2h5.4
	c1.3,0,2.3-1,2.6-2.6l0-0.1H47l0,0.6c0,0.3-0.1,0.5-0.2,0.7L46,40.7c-0.4,0.7-0.9,1.1-1.4,1.1H5.4c-0.5,0-1-0.4-1.4-1.1l-0.7-1.3
	c-0.1-0.2-0.2-0.5-0.2-0.7l0-0.6h17.3c0.7,0,1.2-0.6,1.2-1.2s-0.6-1.2-1.2-1.2H5.2V10c0-1,0.7-1.8,1.6-1.8h36.4
	c0.9,0,1.6,0.8,1.6,1.8v18.5c0,0.7,0.6,1.2,1.2,1.2s1.2-0.6,1.2-1.2V10c0-2.4-1.8-4.3-4.1-4.3H6.8c-2.3,0-4.1,1.9-4.1,4.3v25.6H0.3
	l0.2,3.2c0,0.7,0.2,1.3,0.5,1.8l0.7,1.3c0.9,1.5,2.2,2.3,3.6,2.3h39.2c1.4,0,2.7-0.8,3.6-2.3l0.7-1.3c0.3-0.5,0.5-1.2,0.5-1.8
	l0.2-3.2H28.3z"/>
<g>
	<g>
		<polygon class="st3" points="25.6,30.9 32.5,26.9 32.5,19 25.6,22.9 		"/>
	</g>
	<g>
		<path class="st3" d="M19.2,19.9c-0.3-0.1-0.3-0.5-0.2-0.7c0.1-0.3,0.5-0.3,0.7-0.2l5.3,3l7-3.9l-7-4l-7.4,4.3v8.6l7,4v-8
			L19.2,19.9z"/>
	</g>
</g>
</svg>
