<svg xmlns="http://www.w3.org/2000/svg" id="Layer_1" x="0" y="0" version="1.1" viewBox="0 0 50 50" xml:space="preserve"><style>.st2,.st3{fill:none;stroke:#444;stroke-width:2.5;stroke-linecap:round;stroke-linejoin:round;stroke-miterlimit:10}.st3{stroke-width:.5}</style><path fill="#8256d8" d="M29.5 21.2l7.8 2.5-6.7 4.7.1 8.2-6.6-4.9-7.7 2.6 2.6-7.7-4.9-6.6 8.2.1 4.7-6.7z"/><path fill="#a475ef" d="M48 20c-.2-.8-2.7-7.5-3.2-8.1l-3-3.5-.2.1L34 2.7 26.2 2c-3.2.1-14.5.3-21.4 10.3l-4 10.6-.2.1 4 13.4c.1.4 4.5 5.7 4.9 5.9l5.6 3 32.2-11.7c.6-.5 1.7-8.8.7-13.6z"/><path d="M32.3 47.3c-7 2.3-15 1.2-21.3-3.6C.6 36-1.5 21.3 6.3 10.9" class="st2"/><path d="M6.2 11.1c2-3 4.7-4.7 4.7-4.7l.7-.5C19.7.1 30.8 0 39.2 6.3c10.4 7.8 12.4 22.5 4.7 32.8" class="st2"/><path d="M19.8 27.6v5.3h-6.1m11.2-5.3v6.9m4.9-6.9v5.3h6.5" class="st3"/><circle cx="11.9" cy="32.9" r="1.8" class="st3"/><circle cx="38.1" cy="32.9" r="1.8" class="st3"/><circle cx="24.9" cy="36.3" r="1.8" class="st3"/><path fill="none" stroke="#444" stroke-linecap="round" stroke-linejoin="round" stroke-miterlimit="10" d="M24.9 27.6h-8.2 0c-3.3 0-5.9-2.6-5.9-5.9v-1.1s.1-6.8 7.9-6.1c0 0 1.7-5.9 8.4-4.3 0 0 4.9 1.3 5 6.7 0 0 6.4-1.1 6.8 5.2 0 0 .2 4.2-4.4 5.4h-9.6z"/></svg>