<?xml version="1.0" encoding="UTF-8"?>
<svg width="47px" height="47px" viewBox="0 0 47 47" version="1.1" xmlns="http://www.w3.org/2000/svg" xmlns:xlink="http://www.w3.org/1999/xlink">
    <title>Group 10</title>
    <g id="Page-1" stroke="none" stroke-width="1" fill="none" fill-rule="evenodd">
        <g id="Group-10">
            <polygon id="Fill-1" fill="#FCC34F" points="45.1023 36.0716 45.4823 40.1536 31.4423 45.2366 1.8893 45.4956 1.9273 42.6076 45.7723 26.6486 45.1023 30.1776"></polygon>
            <polygon id="Fill-2" fill="#FDCF72" points="45.3738 20.6224 44.8428 27.9554 1.8678 43.5974 1.8678 34.2954 2.1768 30.0854 45.4808 14.3234"></polygon>
            <g id="Group-9" transform="translate(0.000000, 0.705800)">
                <polyline id="Stroke-3" stroke="#444444" stroke-width="2.5" stroke-linecap="round" stroke-linejoin="round" points="10.22 0.544 45.748 0.544 45.748 44.75 1.25 44.75 1.25 29.993"></polyline>
                <path d="M18.1521,12.6812 C18.4851,12.6812 18.7571,12.9532 18.7571,13.2862 C18.7571,13.6202 18.4851,13.8922 18.1521,13.8922 C17.8181,13.8922 17.5461,13.6202 17.5461,13.2862 C17.5461,12.9532 17.8181,12.6812 18.1521,12.6812 L18.1521,12.6812 Z M23.6041,9.6522 C23.9381,9.6522 24.2101,9.9242 24.2101,10.2582 C24.2101,10.5912 23.9381,10.8632 23.6041,10.8632 C23.2701,10.8632 22.9981,10.5912 22.9981,10.2582 C22.9981,9.9242 23.2701,9.6522 23.6041,9.6522 L23.6041,9.6522 Z M29.0561,12.6812 C29.3901,12.6812 29.6621,12.9532 29.6621,13.2862 C29.6621,13.6202 29.3901,13.8922 29.0561,13.8922 C28.7221,13.8922 28.4511,13.6202 28.4511,13.2862 C28.4511,12.9532 28.7221,12.6812 29.0561,12.6812 L29.0561,12.6812 Z M29.0561,19.9512 C28.7221,19.9512 28.4511,19.6792 28.4511,19.3452 C28.4511,19.0112 28.7221,18.7392 29.0561,18.7392 C29.3901,18.7392 29.6621,19.0112 29.6621,19.3452 C29.6621,19.6792 29.3901,19.9512 29.0561,19.9512 L29.0561,19.9512 Z M23.6041,22.9802 C23.2701,22.9802 22.9981,22.7072 22.9981,22.3742 C22.9981,22.0402 23.2701,21.7682 23.6041,21.7682 C23.9381,21.7682 24.2101,22.0402 24.2101,22.3742 C24.2101,22.7072 23.9381,22.9802 23.6041,22.9802 L23.6041,22.9802 Z M22.9981,14.6102 C22.7781,14.6882 22.5791,14.8062 22.4071,14.9592 L19.9391,13.5852 C19.9551,13.4882 19.9691,13.3892 19.9691,13.2862 C19.9691,13.1842 19.9551,13.0852 19.9391,12.9882 L22.4071,11.6152 C22.5801,11.7662 22.7781,11.8852 22.9981,11.9642 L22.9981,14.6102 Z M27.2691,13.5852 L24.8001,14.9592 C24.6291,14.8072 24.4301,14.6882 24.2101,14.6102 L24.2101,11.9632 C24.4301,11.8842 24.6301,11.7662 24.8001,11.6142 L27.2691,12.9872 C27.2531,13.0852 27.2391,13.1842 27.2391,13.2862 C27.2391,13.3892 27.2531,13.4882 27.2691,13.5852 L27.2691,13.5852 Z M24.2101,18.0222 C24.4301,17.9432 24.6301,17.8252 24.8001,17.6732 L27.2691,19.0462 C27.2531,19.1432 27.2391,19.2432 27.2391,19.3452 C27.2391,19.4472 27.2531,19.5462 27.2691,19.6432 L24.8001,21.0172 C24.6291,20.8652 24.4301,20.7462 24.2101,20.6682 L24.2101,18.0222 Z M23.6041,15.7102 C23.9381,15.7102 24.2101,15.9822 24.2101,16.3162 C24.2101,16.6492 23.9381,16.9212 23.6041,16.9212 C23.2701,16.9212 22.9981,16.6492 22.9981,16.3162 C22.9981,15.9822 23.2701,15.7102 23.6041,15.7102 L23.6041,15.7102 Z M19.9391,19.0462 L22.4071,17.6732 C22.5801,17.8242 22.7781,17.9432 22.9981,18.0222 L22.9981,20.6682 C22.7781,20.7472 22.5791,20.8652 22.4071,21.0172 L19.9391,19.6442 C19.9551,19.5462 19.9691,19.4472 19.9691,19.3452 C19.9691,19.2432 19.9551,19.1432 19.9391,19.0462 L19.9391,19.0462 Z M27.8601,17.9882 L25.3911,16.6142 C25.4081,16.5172 25.4221,16.4182 25.4221,16.3162 C25.4221,16.2132 25.4081,16.1152 25.3911,16.0172 L27.8601,14.6432 C28.0321,14.7952 28.2311,14.9142 28.4511,14.9932 L28.4511,17.6392 C28.2311,17.7182 28.0311,17.8362 27.8601,17.9882 L27.8601,17.9882 Z M19.3481,14.6432 L21.8171,16.0172 C21.8001,16.1152 21.7871,16.2132 21.7871,16.3162 C21.7871,16.4182 21.8001,16.5172 21.8171,16.6142 L19.3481,17.9882 C19.1761,17.8362 18.9781,17.7182 18.7571,17.6392 L18.7571,14.9922 C18.9781,14.9142 19.1771,14.7962 19.3481,14.6432 L19.3481,14.6432 Z M18.1521,19.9512 C17.8181,19.9512 17.5461,19.6792 17.5461,19.3452 C17.5461,19.0112 17.8181,18.7392 18.1521,18.7392 C18.4851,18.7392 18.7571,19.0112 18.7571,19.3452 C18.7571,19.6792 18.4851,19.9512 18.1521,19.9512 L18.1521,19.9512 Z M2.2141,16.9212 C1.8811,16.9212 1.6091,16.6492 1.6091,16.3162 C1.6091,15.9822 1.8811,15.7102 2.2141,15.7102 C2.5481,15.7102 2.8201,15.9822 2.8201,16.3162 C2.8201,16.6492 2.5481,16.9212 2.2141,16.9212 L2.2141,16.9212 Z M2.2141,11.4692 C1.8811,11.4692 1.6091,11.1972 1.6091,10.8632 C1.6091,10.5302 1.8811,10.2582 2.2141,10.2582 C2.5481,10.2582 2.8201,10.5302 2.8201,10.8632 C2.8201,11.1972 2.5481,11.4692 2.2141,11.4692 L2.2141,11.4692 Z M2.2141,22.3742 C1.8811,22.3742 1.6091,22.1022 1.6091,21.7682 C1.6091,21.4342 1.8811,21.1622 2.2141,21.1622 C2.5481,21.1622 2.8201,21.4342 2.8201,21.7682 C2.8201,22.1022 2.5481,22.3742 2.2141,22.3742 L2.2141,22.3742 Z M16.4461,18.7392 L7.0611,18.7392 C6.9001,18.7392 6.7461,18.8032 6.6321,18.9162 L4.3871,21.1622 L3.9201,21.1622 C3.6701,20.4592 3.0031,19.9512 2.2141,19.9512 C1.2121,19.9512 0.3971,20.7662 0.3971,21.7682 C0.3971,22.7702 1.2121,23.5852 2.2141,23.5852 C3.0031,23.5852 3.6701,23.0772 3.9201,22.3742 L4.6371,22.3742 C4.7981,22.3742 4.9531,22.3102 5.0661,22.1962 L7.3121,19.9512 L16.4461,19.9512 C16.6961,20.6542 17.3631,21.1622 18.1521,21.1622 C18.6121,21.1622 19.0281,20.9852 19.3481,20.7022 L21.8171,22.0752 C21.8001,22.1732 21.7871,22.2712 21.7871,22.3742 C21.7871,23.3762 22.6021,24.1912 23.6041,24.1912 C24.6061,24.1912 25.4221,23.3762 25.4221,22.3742 C25.4221,22.2712 25.4081,22.1732 25.3911,22.0752 L27.8601,20.7022 C28.1801,20.9852 28.5961,21.1622 29.0561,21.1622 C30.0581,21.1622 30.8741,20.3472 30.8741,19.3452 C30.8741,18.5562 30.3661,17.8892 29.6621,17.6392 L29.6621,14.9922 C30.3661,14.7412 30.8741,14.0752 30.8741,13.2862 C30.8741,12.2842 30.0581,11.4692 29.0561,11.4692 C28.5961,11.4692 28.1801,11.6462 27.8601,11.9292 L25.3911,10.5562 C25.4081,10.4592 25.4221,10.3602 25.4221,10.2582 C25.4221,9.2562 24.6061,8.4402 23.6041,8.4402 C22.6021,8.4402 21.7871,9.2562 21.7871,10.2582 C21.7871,10.3602 21.8001,10.4592 21.8171,10.5562 L19.3481,11.9302 C19.0281,11.6472 18.6121,11.4692 18.1521,11.4692 C17.3631,11.4692 16.6961,11.9772 16.4461,12.6812 L7.3121,12.6812 L5.0661,10.4352 C4.9531,10.3212 4.7981,10.2582 4.6371,10.2582 L3.9201,10.2582 C3.6701,9.5542 3.0031,9.0462 2.2141,9.0462 C1.2121,9.0462 0.3971,9.8612 0.3971,10.8632 C0.3971,11.8662 1.2121,12.6812 2.2141,12.6812 C3.0031,12.6812 3.6701,12.1732 3.9201,11.4692 L4.3871,11.4692 L6.6321,13.7152 C6.7461,13.8292 6.9001,13.8922 7.0611,13.8922 L16.4461,13.8922 C16.6291,14.4062 17.0331,14.8092 17.5461,14.9932 L17.5461,15.7102 L3.9201,15.7102 C3.6701,15.0072 3.0031,14.4982 2.2141,14.4982 C1.2121,14.4982 0.3971,15.3142 0.3971,16.3162 C0.3971,17.3182 1.2121,18.1332 2.2141,18.1332 C3.0031,18.1332 3.6701,17.6252 3.9201,16.9212 L17.5461,16.9212 L17.5461,17.6392 C17.0331,17.8222 16.6291,18.2262 16.4461,18.7392 L16.4461,18.7392 Z" id="Fill-5" fill="#444444"></path>
                <path d="M16.9402,41.1539 L26.6332,41.1539 C26.9672,41.1539 27.2392,40.8829 27.2392,40.5489 L27.2392,36.3079 L35.1152,36.3079 C35.4492,36.3079 35.7202,36.0369 35.7202,35.7019 L35.7202,28.4319 L39.9612,28.4319 C40.1542,28.4319 40.3352,28.3409 40.4502,28.1849 C40.5642,28.0289 40.5972,27.8299 40.5402,27.6449 L37.5192,17.9799 C37.3982,14.3039 35.8452,10.9109 33.1362,8.4109 C30.3962,5.8829 26.8252,4.6129 23.0882,4.8299 C18.7882,5.0809 14.8052,7.4409 12.4322,11.1419 L13.4522,11.7959 C15.6162,8.4199 19.2452,6.2679 23.1602,6.0389 C26.5652,5.8389 29.8192,6.9989 32.3142,9.3019 C34.8182,11.6119 36.2382,14.7589 36.3112,18.1629 C36.3142,18.2679 36.3452,18.3669 36.3972,18.4519 L39.1372,27.2199 L35.1152,27.2199 C34.7802,27.2199 34.5082,27.4919 34.5082,27.8269 L34.5082,30.2499 L32.6912,30.2499 C31.6892,30.2499 30.8742,29.4339 30.8742,28.4319 L29.6622,28.4319 C29.6622,30.1019 31.0212,31.4619 32.6912,31.4619 L34.5082,31.4619 L34.5082,35.0959 L26.6332,35.0959 C26.2982,35.0959 26.0272,35.3679 26.0272,35.7019 L26.0272,39.9429 L17.5462,39.9429 L17.5462,39.3569 C17.5462,34.4559 16.0722,29.4429 13.2852,24.8629 C12.6682,23.8499 12.2022,22.7569 11.8992,21.6129 L10.7282,21.9239 C11.0602,23.1789 11.5722,24.3799 12.2492,25.4929 C14.9212,29.8829 16.3342,34.6769 16.3342,39.3569 L16.3342,40.5489 C16.3342,40.8829 16.6062,41.1539 16.9402,41.1539" id="Fill-7" fill="#444444"></path>
            </g>
        </g>
    </g>
</svg>