<svg xmlns="http://www.w3.org/2000/svg" id="Layer_1" x="0" y="0" version="1.1" viewBox="0 0 50 50" xml:space="preserve"><style>.st2{fill:#444}</style><path fill="#00c8e2" d="M48.5 26.1L16.2 39.9l-6.2-.2-6.2-3.8-.4-1-1.7-4-.3-6.3 2.7-4.8.4-.7.7-.5 2.9-1.7 3.7-1.4 5.6 1.1 1.5-2.9 4-3.2h2.8l1.8-.1 4.1 1 4.7 4.6 1.3 4.4 3.5.4z"/><path fill="#00dffc" d="M34.1 13.4L1.7 30.9l-.3-6.3 2.7-4.8 1.1-1.2 2.9-1.7 3.7-1.4 5.6 1.1 1.5-2.9 4-3.2 5.8-.3 5.4 3.2"/><path d="M37.4 40.8h-9.2c-.6 0-1-.4-1-1s.4-1 1-1h9.2c5.8 0 10.6-3.9 10.6-8.7 0-4.8-4.7-8.6-10.6-8.7-.5 0-.9-.4-1-.9-.7-5.4-4.9-9.5-9.7-9.5-3.6 0-6.9 2.2-8.6 5.8-.2.5-.8.7-1.3.5-1.3-.5-2.6-.8-4-.8-5.9 0-10.7 5-10.7 11.1s4.8 11.1 10.7 11.1h9c.6 0 1 .4 1 1s-.4 1-1 1h-9C5.8 40.7.1 34.8.1 27.6s5.7-13.1 12.7-13.1c1.3 0 2.6.2 3.9.6 2.2-3.8 5.9-6.1 10-6.1 5.6 0 10.5 4.4 11.6 10.4 6.5.4 11.7 5 11.7 10.6 0 6.1-5.7 10.8-12.6 10.8z" class="st2"/><path d="M32.9 32.1h-5.2c-.3 0-.5-.2-.5-.5s.2-.5.5-.5h4.1l-7.2-8-7.2 8h4.1c.3 0 .5.2.5.5s-.2.5-.5.5h-5.2c-.2 0-.4-.1-.5-.3s0-.4.1-.5l8.4-9.2c.2-.2.6-.2.7 0l8.4 9.2c.1.1.2.4.1.5s-.4.3-.6.3z" class="st2"/><path d="M27.7 40.4c-.3 0-.5-.2-.5-.5v-8.3c0-.3.2-.5.5-.5s.5.2.5.5v8.3c0 .3-.2.5-.5.5z" class="st2"/></svg>