<?xml version="1.0" encoding="utf-8"?>
<!-- Generator: Adobe Illustrator 28.0.0, SVG Export Plug-In . SVG Version: 6.00 Build 0)  -->
<svg version="1.1" id="Layer_1" xmlns="http://www.w3.org/2000/svg" xmlns:xlink="http://www.w3.org/1999/xlink" x="0px" y="0px"
	 viewBox="0 0 50 50" style="enable-background:new 0 0 50 50;" xml:space="preserve">
<style type="text/css">
	.st0{fill:#46B8B0;}
	.st1{fill:none;stroke:#444444;stroke-width:0.5;stroke-linecap:round;stroke-linejoin:round;stroke-miterlimit:10;}
	.st2{fill:#444444;}
	.st3{fill:none;stroke:#444444;stroke-width:2.5;stroke-linecap:round;stroke-linejoin:round;stroke-miterlimit:10;}
</style>
<g>
	<path class="st0" d="M41.3,30.7l-3.8-2.3L37.3,2.1l-6.4-0.4c-3.1,0-16.5-2.9-16.5,0.2l-0.9,25.5L10,31.1l4.9,8.1l5.6,5.3l16.9-6
		l2.3-3.4C40.3,34.7,42.3,32.7,41.3,30.7z"/>
	<g>
		<g>
			<path class="st1" d="M19.6,25.7v4.4c0,0.6-0.5,1.1-1.1,1.1H15c-0.9,0-1.4,1.1-0.8,1.8l10.7,11.6c0.4,0.5,1.2,0.5,1.6,0l10.7-11.9
				c0.6-0.7,0.1-1.8-0.8-1.8h-3.2c-0.6,0-1.1-0.5-1.1-1.1v-2.1"/>
			<line class="st1" x1="19.6" y1="4.8" x2="19.6" y2="16.5"/>
			<line class="st1" x1="22.1" y1="9.5" x2="22.1" y2="15"/>
			<line class="st1" x1="24.6" y1="6.4" x2="24.6" y2="12.6"/>
			<line class="st1" x1="27.1" y1="9.2" x2="27.1" y2="13.8"/>
			<line class="st1" x1="30" y1="4.5" x2="30" y2="15"/>
			<line class="st1" x1="32" y1="8.2" x2="32" y2="17.4"/>
			<g>
				<path class="st2" d="M17.1,19.4l-1.3,0.3v-1.1l2.2-0.6c0.2,0,0.3,0.1,0.3,0.3v4.9c0,0.2-0.1,0.3-0.3,0.3h-0.6
					c-0.2,0-0.3-0.1-0.3-0.3V19.4z"/>
			</g>
			<g>
				<path class="st2" d="M31.3,25.5c-0.3-0.2-0.6-0.6-0.8-1c-0.2-0.4-0.3-0.9-0.3-1.5c0-0.6,0.1-1.1,0.3-1.5c0.2-0.4,0.5-0.8,0.8-1
					c0.3-0.2,0.7-0.3,1.2-0.3c0.5,0,0.9,0.1,1.2,0.3c0.3,0.2,0.6,0.6,0.8,1c0.2,0.4,0.3,0.9,0.3,1.5c0,0.6-0.1,1.1-0.3,1.5
					c-0.2,0.4-0.4,0.8-0.8,1c-0.3,0.2-0.7,0.4-1.2,0.4C32,25.9,31.7,25.7,31.3,25.5z M33.2,24.3c0.2-0.3,0.3-0.7,0.3-1.3
					s-0.1-1-0.3-1.3c-0.2-0.3-0.4-0.5-0.7-0.5c-0.3,0-0.5,0.2-0.7,0.5c-0.2,0.3-0.3,0.7-0.3,1.3s0.1,1,0.3,1.3
					c0.2,0.3,0.4,0.5,0.7,0.5C32.8,24.7,33,24.6,33.2,24.3z"/>
			</g>
			<g>
				<path class="st2" d="M23.9,20.6c-0.3-0.2-0.6-0.6-0.8-1c-0.2-0.4-0.3-0.9-0.3-1.5c0-0.6,0.1-1.1,0.3-1.5c0.2-0.4,0.5-0.8,0.8-1
					c0.3-0.2,0.7-0.3,1.2-0.3c0.5,0,0.9,0.1,1.2,0.3c0.3,0.2,0.6,0.6,0.8,1c0.2,0.4,0.3,0.9,0.3,1.5c0,0.6-0.1,1.1-0.3,1.5
					c-0.2,0.4-0.4,0.8-0.8,1C26,20.8,25.6,21,25.1,21C24.7,21,24.3,20.8,23.9,20.6z M25.8,19.4c0.2-0.3,0.3-0.7,0.3-1.3
					s-0.1-1-0.3-1.3c-0.2-0.3-0.4-0.5-0.7-0.5c-0.3,0-0.5,0.2-0.7,0.5c-0.2,0.3-0.3,0.7-0.3,1.3s0.1,1,0.3,1.3
					c0.2,0.3,0.4,0.5,0.7,0.5C25.4,19.9,25.7,19.7,25.8,19.4z"/>
			</g>
			<g>
				<path class="st2" d="M27.2,26.8l-1.3,0.3v-1.1l2.2-0.6c0.2,0,0.3,0.1,0.3,0.3v4.9c0,0.2-0.1,0.3-0.3,0.3h-0.6
					c-0.2,0-0.3-0.1-0.3-0.3V26.8z"/>
			</g>
			<g>
				<path class="st2" d="M22.2,37c-0.3-0.2-0.6-0.6-0.8-1c-0.2-0.4-0.3-0.9-0.3-1.5c0-0.6,0.1-1.1,0.3-1.5c0.2-0.4,0.5-0.8,0.8-1
					c0.3-0.2,0.7-0.3,1.2-0.3c0.5,0,0.9,0.1,1.2,0.3c0.3,0.2,0.6,0.6,0.8,1c0.2,0.4,0.3,0.9,0.3,1.5c0,0.6-0.1,1.1-0.3,1.5
					c-0.2,0.4-0.4,0.8-0.8,1c-0.3,0.2-0.7,0.4-1.2,0.4C22.9,37.3,22.5,37.2,22.2,37z M24.1,35.8c0.2-0.3,0.3-0.7,0.3-1.3
					c0-0.6-0.1-1-0.3-1.3c-0.2-0.3-0.4-0.5-0.7-0.5c-0.3,0-0.5,0.2-0.7,0.5c-0.2,0.3-0.3,0.7-0.3,1.3c0,0.6,0.1,1,0.3,1.3
					c0.2,0.3,0.4,0.5,0.7,0.5C23.7,36.2,23.9,36.1,24.1,35.8z"/>
			</g>
			<line class="st1" x1="17.1" y1="7.3" x2="17.1" y2="12.7"/>
			<line class="st1" x1="34.1" y1="6.9" x2="34.1" y2="12.3"/>
		</g>
		<path class="st3" d="M29.3,46.5L28,47.9c-0.5,0.5-1.2,0.8-1.8,0.8h0c-0.7,0-1.4-0.3-1.8-0.8L10.9,34c-0.5-0.6-0.8-1.3-0.8-2.1v0
			c0-1.7,1.3-3,3-3h0.6V4.3c0-1.5,1.2-2.7,2.7-2.7h8.7h2h7.8c1.5,0,2.7,1.2,2.7,2.7v24.6h0.3c1.7,0,3,1.3,3,3v0.9
			c0,0.8-0.3,1.5-0.8,2L36.2,39"/>
	</g>
</g>
</svg>
