<?xml version="1.0" encoding="utf-8"?>
<!-- Generator: Adobe Illustrator 21.0.0, SVG Export Plug-In . SVG Version: 6.00 Build 0)  -->
<svg version="1.0" id="Layer_1" xmlns="http://www.w3.org/2000/svg" xmlns:xlink="http://www.w3.org/1999/xlink" x="0px" y="0px"
	 viewBox="0 0 50 50" enable-background="new 0 0 50 50" xml:space="preserve">
<g>
	<polygon fill="#DC5E82" points="47.299,13.825 47.299,30.376 19.267,40.58 2.605,36.173 2.605,13.825 24.952,7.917 	"/>
	<polygon fill="#F56991" points="42.513,12.561 2.605,27.085 2.605,13.825 24.952,7.917 	"/>
	<g>
		<path fill="#444444" d="M10.297,36.258l5.476,1.448V12.31l-5.476,1.448V36.258z M12.404,34.4V15.613l2.368-0.623v20.039
			L12.404,34.4z"/>
		<path fill="#444444" d="M4.521,34.682l4.835,1.336V14.011l-4.835,1.27V34.682z M6.891,32.992V16.984l1.464-0.382v16.794
			L6.891,32.992z"/>
		<path fill="#444444" d="M23.034,11.879l-0.002,0v-1.485l-6.318,1.67v25.891l6.318,1.671V38.14l0.002,0V11.879z M22.032,36.843
			l-3.465-0.913V14.088l3.465-0.912V36.843z"/>
		<path fill="#444444" d="M24.952,6.624L1.353,12.863v24.274l23.599,6.238l14.507-3.836c0.668-0.176,1.065-0.86,0.889-1.527
			c-0.175-0.667-0.86-1.064-1.527-0.889l-13.369,3.534V9.342l20.599,5.446v15.588c0,0.69,0.56,1.25,1.25,1.25s1.25-0.56,1.25-1.25
			V12.863L24.952,6.624z M3.853,35.212V14.788l20.599-5.446v31.316L3.853,35.212z"/>
	</g>
</g>
</svg>
