<svg xmlns="http://www.w3.org/2000/svg" id="Camada_3" x="0" y="0" version="1.1" viewBox="0 0 50 50" xml:space="preserve"><style>.st0{fill:#fc9d9a}</style><path d="M14.4 8.1L11 13.6c-.2.3-6.2 2.9-6.4 3.1l-3.4 9 35.6-13-10.4-3c-.4-.1-6.5-3.4-6.9-3.3l-5.1 1.7z" class="st0"/><path d="M1.2 25.4v1.1c0 2.5 3.7 5 6.3 8 3 3.4.7 10.7 3.1 9.8L45.1 32c2.3-.8 3.9-3 3.9-5.5v-4.9c0-4.3-8.3-5.6-11.6-7.7-3-1.9-1.9-.6-2.1-.9L1.2 25.4z" class="st0"/><path fill="none" stroke="#444" stroke-linecap="round" stroke-linejoin="round" stroke-miterlimit="10" stroke-width="2.5" d="M33.2 40.1v-5.7h5.5c5.4 0 9.8-4.4 9.8-9.8s-4.4-9.8-9.8-9.8c-.4 0-.8 0-1.3.1-1.7-3-4.9-5-8.5-5-1 0-2 .2-3 .4-1.5-2.2-4-3.7-6.9-3.7-4.5 0-8.2 3.7-8.2 8.2-5.4 0-9.8 4.4-9.8 9.8 0 4.9 2.8 9 7.5 9.7V41c0 2.2 1.8 4 4.1 4l11.5-.1"/><path fill="#444" d="M20 33.1l-.7 5.1c0 .4.2.7.6.7h2.6c.4 0 .6-.3.6-.7l-.7-5.1c0-.2.1-.5.2-.6.7-.5 1.2-1.3 1.2-2.2 0-1.5-1.2-2.6-2.6-2.6-1.5 0-2.6 1.2-2.6 2.6 0 .9.5 1.8 1.2 2.2.1.2.2.4.2.6z"/><path fill="none" stroke="#444" stroke-miterlimit="10" stroke-width=".5" d="M15.1 24.4v-7.3c0-2.7 2.7-4.9 5.9-4.9h0c3.2 0 5.9 2.2 5.9 4.9v7.3"/><path fill="none" stroke="#444" stroke-miterlimit="10" d="M9.5 43.5V26.7c0-1.5 1.4-2.6 2.9-2.6h17.2c1.5 0 2.9 1 2.9 2.5V39"/></svg>