<?xml version="1.0" encoding="utf-8"?>
<!-- Generator: Adobe Illustrator 27.6.1, SVG Export Plug-In . SVG Version: 6.00 Build 0)  -->
<svg version="1.1" id="Camada_3" xmlns="http://www.w3.org/2000/svg" xmlns:xlink="http://www.w3.org/1999/xlink" x="0px" y="0px"
	 viewBox="0 0 50 50" style="enable-background:new 0 0 50 50;" xml:space="preserve">
<style type="text/css">
	.st0{fill:#B9D7D9;}
	.st1{fill:#A6C1C2;}
	.st2{fill:none;stroke:#444444;stroke-width:2.5;stroke-linecap:round;stroke-linejoin:round;stroke-miterlimit:10;}
	.st3{fill:#444444;}
	.st4{fill:none;stroke:#444444;stroke-width:0.5;stroke-miterlimit:10;}
	.st5{fill:none;stroke:#444444;stroke-miterlimit:10;}
</style>
<g>
	<g>
		<path class="st0" d="M14.39,8.07l-3.37,5.53c-0.16,0.26-6.17,2.94-6.41,3.13l-3.44,9.01l35.57-13.04L26.3,9.73
			c-0.4-0.11-6.48-3.44-6.88-3.32L14.39,8.07z"/>
		<path class="st1" d="M1.17,25.38v1.07c0,2.46,3.68,5.04,6.34,8c3.04,3.37,0.67,10.68,3.1,9.82l34.53-12.29
			c2.33-0.83,3.89-3.03,3.89-5.51V21.6c0-4.34-8.3-5.63-11.58-7.72c-2.96-1.89-1.87-0.59-2.13-0.95L1.17,25.38z"/>
	</g>
	<path class="st2" d="M33.21,40.08l0.04-5.69l5.54,0.01l0,0c5.42,0,9.81-4.39,9.81-9.81c0-5.42-4.39-9.81-9.81-9.81
		c-0.43,0-0.85,0.03-1.27,0.08c-1.68-2.98-4.88-4.99-8.54-4.99c-1.03,0-2.02,0.16-2.95,0.45c-1.46-2.24-3.98-3.72-6.85-3.72
		c-4.51,0-8.17,3.66-8.17,8.17c-5.42,0-9.81,4.39-9.81,9.81c0,4.92,2.79,8.97,7.51,9.68v6.7c0,2.24,1.82,4.05,4.06,4.03l11.53-0.08"
		/>
	<g>
		<g>
			<g>
				<path class="st3" d="M19.96,33.13l-0.73,5.09c-0.05,0.36,0.23,0.68,0.59,0.68h2.59c0.36,0,0.64-0.32,0.59-0.68l-0.73-5.09
					c-0.03-0.22,0.06-0.45,0.24-0.57c0.74-0.47,1.24-1.29,1.24-2.23c0-1.45-1.17-2.63-2.63-2.63c-1.46,0-2.63,1.19-2.63,2.63
					c0,0.94,0.5,1.77,1.24,2.23C19.9,32.69,19.99,32.91,19.96,33.13z"/>
			</g>
			<path class="st4" d="M15.11,24.41v-7.28c0-2.7,2.66-4.91,5.91-4.91h0c3.25,0,5.91,2.21,5.91,4.91v7.28"/>
		</g>
		<path class="st5" d="M9.47,43.49V26.74c0-1.5,1.44-2.56,2.94-2.56h17.23c1.5,0,2.89,1.04,2.89,2.54v12.3"/>
	</g>
</g>
</svg>
