<svg xmlns="http://www.w3.org/2000/svg" fill="none" viewBox="0 0 50 50"><path fill="#00DFFC" d="M46.7 2.87H2.65v17.8L46.7 5V2.87z"/><path fill="#00C8E2" d="M2.79 20.26L2 44.3l44.84-15.95V4.59L2.79 20.26z"/><path fill="#444" d="M24.68 9.06c-4.04 0-7.31 3.27-7.31 7.31 0 4.04 3.27 7.31 7.31 7.31 4.04 0 7.31-3.27 7.31-7.31 0-4.03-3.27-7.31-7.31-7.31zm-1.96 10.91v-7.18c.33.19 5.88 3.39 6.23 3.59-.34.2-5.88 3.39-6.23 3.59z"/><path stroke="#444" stroke-linecap="round" stroke-linejoin="round" stroke-miterlimit="10" stroke-width=".5" d="M21.39 31.07h17.36m-2.42-1.58v3.16"/><path stroke="#444" stroke-linecap="round" stroke-miterlimit="10" stroke-width="2.5" d="M34.01 38.32H20.95h1.45s-2.23 2.68-3.58 3.61c-1.35.93-3.71 3.26-3.71 3.26s-4.71 4.67-9.87 1.42c-3.09-1.95-3.26-3.73-3.42-5.18-.06-.58.11-1.65.23-2.22l.42-2.09.07-1.18L2.3 3.36c0-.92.75-1.67 1.67-1.67h41.4c.93 0 1.68.75 1.68 1.68v27.71"/><path stroke="#444" stroke-miterlimit="10" stroke-width=".25" d="M14.06 31.17c-.84-1.32-2.83-1-3.25.55l-.09.34c-.78-1.24-2.78-1.13-3.21.47-1.04-.81-2.5-.24-2.83 1 .02-.07-1.37 5.13-1.51 5.64-1.58 5.89 4.87 7.28 4.86 7.26 2.51.67 4.96-.85 6.45-2.27 1.33-1.26 2.71-2.46 4.18-3.55 1.48-1.11 2.78-2.41 2.08-3.62-1.23-2.13-4.8.91-4.8.91l2.79-10.39c.26-.96-.32-1.95-1.29-2.19-.94-.23-1.92.4-2.17 1.33l-1.21 4.52zm0 0l-.68 2.54m-3.34.9l.69-2.56M6.72 35.5l.8-2.97"/><path stroke="#444" stroke-linecap="round" stroke-linejoin="round" stroke-miterlimit="10" stroke-width=".25" d="M20.14 39.49l.95-.57-.36.13.32-.73L20 39.61c.2-.49.95-.61.95-.61"/></svg>