<svg xmlns="http://www.w3.org/2000/svg" id="Layer_1" data-name="Layer 1" version="1.1" viewBox="0 0 50 50"><defs><style>.cls-1{stroke-width:.5px;fill:none;stroke:#444;stroke-linecap:round;stroke-linejoin:round}</style></defs><path fill="#7df4eb" stroke-width="0" d="M44.6 12.4L39 8.8l-7.7-4.4-6-2.8c-3.1-.1-21.4 8.9-21.4 12.1l-.5 7.8.5 15.1 11.5 7.6 31-11c.7-.4-.8-18.7-1.8-20.7z"/><path fill="none" stroke="#444" stroke-linecap="round" stroke-linejoin="round" stroke-width="2.5" d="M29.9 46.4l-2.2 1.3c-1.7 1-3.8 1-5.5 0l-15.6-9c-1.7-1-2.7-2.8-2.7-4.7V16c0-2 1-3.8 2.7-4.7l15.6-9c1.7-1 3.8-1 5.5 0l15.6 9c1.7 1 2.7 2.8 2.7 4.7v18c0 2-1 3.8-2.7 4.7l-2.5 1.4"/><path fill="none" stroke="#444" stroke-linecap="round" stroke-linejoin="round" d="M39.3 35.7V23.2l-7.1-2.5V9.4l-7.1-2.8L18 9.1v3.8l-7.2 2.5v20.4l14.2 5 7.4-2.7"/><path d="M10.8 15.7L18 18l7.1-2.4-7.1-2.7-7.2 2.8zm7.5 14.1l6.7 2.6 7.1-2.6-6.9-2.5-6.9 2.5zM32.1 26l7.2-2.8-7.1-2.5-7 2.8 6.9 2.5zm-7-14.2l7.1-2.4-7.1-2.8L18 9.1l7.1 2.7z" class="cls-1"/><path d="M32.1 26l.4 12.2-7.5 2.6v-8.4m-7 5.9V18m7.2 9.3l-.1-15.5" class="cls-1"/></svg>