<?xml version="1.0" encoding="utf-8"?>
<!-- Generator: Adobe Illustrator 27.3.1, SVG Export Plug-In . SVG Version: 6.00 Build 0)  -->
<svg version="1.1" id="Camada_3" xmlns="http://www.w3.org/2000/svg" xmlns:xlink="http://www.w3.org/1999/xlink" x="0px" y="0px"
	 viewBox="0 0 50 50" style="enable-background:new 0 0 50 50;" xml:space="preserve">
<style type="text/css">
	.st0{fill:#00DFFC;}
	.st1{fill:#00C8E2;}
	.st2{fill:none;stroke:#444444;stroke-linecap:round;stroke-linejoin:round;stroke-miterlimit:10;}
	.st3{fill:none;stroke:#444444;stroke-width:0.25;stroke-linecap:round;stroke-linejoin:round;stroke-miterlimit:10;}
	.st4{fill:none;stroke:#444444;stroke-width:2.5;stroke-linecap:round;stroke-linejoin:round;stroke-miterlimit:10;}
</style>
<g>
	<g>
		<polygon class="st0" points="20.52,1.7 9.46,5.57 3.49,13.13 3.68,20.65 41.01,7.36 31.39,1.7 		"/>
		<polygon class="st1" points="3.04,25.5 3.49,38.24 10.78,45.09 46,32.56 45.97,29.24 45.32,12.26 41.71,7.11 2.9,20.92 		"/>
	</g>
	<polygon class="st2" points="4.68,12.27 9.46,7.32 18.53,2.87 30.89,2.87 39.96,7.32 44.41,12.27 44.41,17.37 39.96,14.24 
		30.89,11.36 18.53,11.36 9.46,14.41 4.68,17.37 	"/>
	<polygon class="st2" points="4.68,19.77 4.68,23.8 9.46,23.31 18.53,23.31 30.89,23.31 39.96,23.31 44.41,23.8 44.41,19.44 
		39.96,16.96 30.89,14.74 18.53,14.74 9.46,17.37 	"/>
	<polygon class="st2" points="4.68,26.52 4.68,30.97 9.46,33.28 18.53,35.51 30.89,35.51 39.96,33.28 44.41,31.02 44.41,26.94 
		39.96,26.94 9.46,26.94 	"/>
	<polyline class="st2" points="44.41,37.65 44.41,33.28 39.96,36.33 30.89,39.05 18.53,39.05 9.46,36.33 4.68,33.28 4.68,37.65 
		9.46,42.92 18.53,47.54 30.89,47.54 	"/>
	<line class="st2" x1="9.46" y1="7.32" x2="9.46" y2="14.41"/>
	<line class="st2" x1="18.53" y1="2.87" x2="18.53" y2="11.36"/>
	<line class="st2" x1="30.89" y1="2.87" x2="30.89" y2="11.36"/>
	<line class="st2" x1="39.96" y1="7.32" x2="39.96" y2="14.24"/>
	<line class="st2" x1="9.46" y1="17.37" x2="9.46" y2="23.31"/>
	<line class="st2" x1="18.53" y1="14.74" x2="18.53" y2="23.31"/>
	<line class="st2" x1="30.89" y1="14.74" x2="30.89" y2="23.31"/>
	<line class="st2" x1="39.96" y1="17.37" x2="39.96" y2="23.31"/>
	<line class="st2" x1="9.46" y1="26.94" x2="9.46" y2="33.28"/>
	<line class="st2" x1="9.46" y1="36.33" x2="9.46" y2="42.92"/>
	<line class="st2" x1="18.53" y1="26.94" x2="18.53" y2="35.51"/>
	<line class="st2" x1="18.53" y1="39.05" x2="18.53" y2="47.54"/>
	<line class="st2" x1="30.89" y1="47.54" x2="30.89" y2="39.05"/>
	<line class="st2" x1="30.89" y1="35.51" x2="30.89" y2="26.94"/>
	<line class="st2" x1="39.96" y1="26.94" x2="39.96" y2="33.28"/>
	<line class="st2" x1="39.96" y1="36.33" x2="39.96" y2="41.21"/>
	<path class="st3" d="M3.68,11.99"/>
	<polyline class="st4" points="33.09,47.54 30.89,48.8 18.53,48.8 9.46,43.86 3.68,37.81 3.68,11.99 9.06,6.61 18.53,2.2 30.89,2.2 
		40.16,6.61 45.32,12.26 45.32,37.7 42.98,40.41 	"/>
	<path class="st4" d="M5.74,17.99"/>
	<path class="st4" d="M19.69,11.36"/>
	<line class="st3" x1="8.17" y1="35.51" x2="8.17" y2="32.66"/>
	<line class="st3" x1="8.17" y1="26.82" x2="8.17" y2="23.44"/>
	<line class="st3" x1="8.17" y1="17.99" x2="8.17" y2="15.21"/>
	<line class="st3" x1="10.49" y1="14.06" x2="10.49" y2="17.08"/>
	<line class="st3" x1="10.49" y1="23.31" x2="10.49" y2="26.82"/>
	<line class="st3" x1="10.49" y1="33.53" x2="10.49" y2="36.64"/>
	<line class="st3" x1="16.82" y1="35.09" x2="16.82" y2="38.54"/>
	<line class="st3" x1="16.82" y1="26.82" x2="16.82" y2="23.44"/>
	<path class="st3" d="M16.82,15.21"/>
	<line class="st3" x1="16.82" y1="11.93" x2="16.82" y2="15.21"/>
	<line class="st3" x1="20" y1="11.34" x2="20" y2="14.93"/>
	<line class="st3" x1="20" y1="23.29" x2="20" y2="26.92"/>
	<line class="st3" x1="20" y1="35.49" x2="20" y2="39.04"/>
	<line class="st3" x1="29.5" y1="39.05" x2="29.5" y2="35.51"/>
	<path class="st3" d="M29.5,26.82"/>
	<path class="st3" d="M29.5,23.31"/>
	<line class="st3" x1="29.5" y1="26.82" x2="29.5" y2="23.31"/>
	<line class="st3" x1="29.5" y1="14.41" x2="29.5" y2="11.36"/>
	<line class="st3" x1="32.7" y1="11.93" x2="32.7" y2="15.21"/>
	<line class="st3" x1="32.7" y1="23.44" x2="32.7" y2="26.94"/>
	<line class="st3" x1="32.7" y1="35.06" x2="32.7" y2="38.51"/>
	<line class="st3" x1="38.5" y1="14.06" x2="38.48" y2="16.6"/>
	<line class="st3" x1="38.48" y1="23.44" x2="38.48" y2="26.94"/>
	<line class="st3" x1="38.48" y1="33.64" x2="38.48" y2="36.33"/>
	<line class="st3" x1="41.01" y1="34.99" x2="41.01" y2="32.51"/>
	<line class="st3" x1="41.01" y1="26.82" x2="41.01" y2="23.44"/>
	<line class="st3" x1="41.01" y1="17.8" x2="41.01" y2="15.33"/>
</g>
</svg>
