<svg xmlns="http://www.w3.org/2000/svg" version="1" viewBox="0 0 50 50"><path fill="#46B8B0" d="M6.205 44.124l39.247-14.285V9.592a5.045 5.045 0 0 0-5.045-5.045H9.592a5.045 5.045 0 0 0-5.045 5.045v30.816a5.021 5.021 0 0 0 1.658 3.716z"/><path fill="#4ECDC4" d="M43.793 5.874a5.011 5.011 0 0 0-3.385-1.327H9.592a5.045 5.045 0 0 0-5.045 5.045v10.566L43.793 5.874z"/><path fill="#444" d="M25.001 46.5H9.592A6.1 6.1 0 0 1 3.5 40.408V9.592A6.098 6.098 0 0 1 9.592 3.5h30.817a6.1 6.1 0 0 1 6.092 6.092v20.245a1.048 1.048 0 1 1-2.096 0V9.592a4.001 4.001 0 0 0-3.997-3.997H9.592a4.001 4.001 0 0 0-3.997 3.997v30.816a4.001 4.001 0 0 0 3.997 3.997h15.409a1.048 1.048 0 1 1 0 2.095z"/><path fill="#444" d="M18.379 33.901h-3.765V15.853h9.929c.23 0 .416.186.416.416v2.304c0 .23-.186.416-.416.416h-6.164v4.654h5.707c.23 0 .416.186.416.416v2.291c0 .23-.186.416-.416.416h-5.707v7.135zm17.839-4.099c0 1.416-.492 2.494-1.475 3.234s-2.455 1.111-4.413 1.111c-1.004 0-1.86-.068-2.568-.204a9.866 9.866 0 0 1-1.724-.491.421.421 0 0 1-.264-.394v-2.191c0-.291.293-.498.562-.389.552.223 1.153.417 1.802.582.876.222 1.648.333 2.315.333 1.366 0 2.049-.395 2.049-1.185 0-.296-.091-.537-.272-.722-.181-.185-.494-.395-.938-.63a23.501 23.501 0 0 0-1.778-.821c-1.062-.444-1.841-.856-2.339-1.234-.498-.379-.86-.813-1.086-1.302-.226-.49-.339-1.093-.339-1.809 0-1.226.475-2.175 1.426-2.845.951-.671 2.298-1.006 4.043-1.006 1.528 0 3.018.306 4.47.918.211.089.31.34.222.551l-.816 1.952a.418.418 0 0 1-.546.219c-.458-.187-.895-.35-1.311-.488a6.616 6.616 0 0 0-1.963-.361c-1.189-.022-1.784.278-1.784.9 0 .337.179.63.537.876s1.142.613 2.352 1.099c1.078.436 1.868.844 2.37 1.222s.872.815 1.111 1.309c.237.495.357 1.083.357 1.766z"/></svg>