<?xml version="1.0" encoding="utf-8"?>
<!-- Generator: Adobe Illustrator 26.5.0, SVG Export Plug-In . SVG Version: 6.00 Build 0)  -->
<svg version="1.1" id="Layer_1" xmlns="http://www.w3.org/2000/svg" xmlns:xlink="http://www.w3.org/1999/xlink" x="0px" y="0px"
	 viewBox="0 0 50 50" style="enable-background:new 0 0 50 50;" xml:space="preserve">
<style type="text/css">
	.st0{fill:#00C8E2;}
	.st1{fill:#00DFFC;}
	.st2{fill:none;stroke:#444444;stroke-width:2.5;stroke-linecap:round;stroke-linejoin:round;stroke-miterlimit:10;}
	.st3{fill:#F8C3CD;stroke:#E83C62;stroke-width:8;stroke-linecap:round;stroke-linejoin:round;stroke-miterlimit:10;}
	.st4{fill:#444444;}
</style>
<g>
	<polygon class="st0" points="48.1,16.5 48.8,21.7 2.8,38.5 2.2,27.6 2.2,21.3 46.8,5.2 47.6,9.1 	"/>
	<polygon class="st1" points="45.9,2 48.2,5.2 1.3,21.9 2.4,4.8 5.4,1.9 34.5,1.7 	"/>
	<g>
		<path class="st2" d="M24.7,48.3H5.2c-1.9,0-3.4-1.6-3.4-3.5V5.8c0-2,1.5-3.5,3.4-3.5h39c1.9,0,3.4,1.6,3.4,3.5v25.9"/>
		<path class="st2" d="M1.8,15.8"/>
		<path class="st2" d="M47.6,15.8"/>
	</g>
</g>
<path class="st3" d="M31.6,29.5"/>
<g>
	<path class="st4" d="M38.3,9.9c-1.8,0-3.3,1.5-3.3,3.3c0,0.5,0.1,0.9,0.3,1.3L31,18.8c-0.8-0.4-1.8-0.5-2.8-0.1
		c-0.5,0.2-0.9,0.5-1.2,0.9l-3-1.2c0-0.1,0-0.1,0-0.2c0-1.8-1.5-3.3-3.3-3.3c-1.8,0-3.3,1.5-3.3,3.3c0,0.5,0.1,0.9,0.3,1.3l-4.3,4.3
		c-0.4-0.2-0.9-0.3-1.5-0.3c-1.8,0-3.3,1.5-3.3,3.3c0,1.8,1.5,3.3,3.3,3.3c1.8,0,3.3-1.5,3.3-3.3c0-0.5-0.1-1-0.3-1.5l4.2-4.2
		c0.5,0.3,1,0.4,1.6,0.4c1,0,1.9-0.4,2.5-1.1l3,1.2c0,0.5,0,1,0.2,1.5c0.7,1.7,2.7,2.5,4.4,1.8c1.3-0.5,2.1-1.8,2.1-3.1v-0.1
		c0-0.2,0-0.4-0.1-0.6c0-0.2-0.1-0.4-0.2-0.6c0-0.1-0.1-0.1-0.1-0.2l4.2-4.2c0.5,0.3,1,0.4,1.6,0.4c1.8,0,3.3-1.5,3.3-3.3
		C41.7,11.4,40.2,9.9,38.3,9.9z M11.8,28.4c-0.9,0-1.7-0.7-1.7-1.7c0-0.9,0.7-1.7,1.7-1.7c0.9,0,1.7,0.7,1.7,1.7
		C13.5,27.7,12.7,28.4,11.8,28.4z M20.7,19.8c-0.9,0-1.7-0.7-1.7-1.7c0-0.9,0.7-1.7,1.7-1.7c0.9,0,1.7,0.7,1.7,1.7
		C22.3,19.1,21.6,19.8,20.7,19.8z M29.5,23.5c-0.9,0-1.7-0.7-1.7-1.7c0-0.9,0.7-1.7,1.7-1.7c0.9,0,1.7,0.7,1.7,1.7
		C31.2,22.8,30.4,23.5,29.5,23.5z M38.3,14.9c-0.9,0-1.7-0.7-1.7-1.7c0-0.9,0.7-1.7,1.7-1.7c0.9,0,1.7,0.7,1.7,1.7
		C40,14.2,39.2,14.9,38.3,14.9z"/>
	<path class="st4" d="M38.5,19.2H38c-0.5,0-0.5,0.6-0.5,0.6v19.7c0,0.3,0.3,0.6,0.6,0.6h0.5c0.3,0,0.6-0.3,0.6-0.6V19.8
		C39.1,19.5,38.9,19.2,38.5,19.2z"/>
	<path class="st4" d="M29.7,27.8h-0.6c-0.5,0-0.5,0.4-0.5,0.4v11.6c0,0.2,0.3,0.3,0.6,0.3h0.5c0.3,0,0.6-0.2,0.6-0.3V28.2
		C30.3,28,30.1,27.8,29.7,27.8z"/>
	<path class="st4" d="M20.9,24.2h-0.6c-0.5,0-0.5,0.5-0.5,0.5v15c0,0.2,0.3,0.4,0.6,0.4h0.5c0.3,0,0.6-0.2,0.6-0.4v-15
		C21.5,24.4,21.2,24.2,20.9,24.2z"/>
	<path class="st4" d="M12.1,32.7h-0.6c-0.5,0-0.5,0.2-0.5,0.2v7c0,0.1,0.3,0.2,0.6,0.2h0.5c0.3,0,0.6-0.1,0.6-0.2v-7
		C12.7,32.8,12.4,32.7,12.1,32.7z"/>
</g>
</svg>
