<?xml version="1.0" encoding="utf-8"?>
<!-- Generator: Adobe Illustrator 27.3.1, SVG Export Plug-In . SVG Version: 6.00 Build 0)  -->
<svg version="1.1" id="Camada_3" xmlns="http://www.w3.org/2000/svg" xmlns:xlink="http://www.w3.org/1999/xlink" x="0px" y="0px"
	 viewBox="0 0 50 50" style="enable-background:new 0 0 50 50;" xml:space="preserve">
<style type="text/css">
	.st0{fill:#C2D45A;}
	.st1{fill:#B0CD5F;}
	.st2{fill:none;stroke:#444444;stroke-miterlimit:10;}
	.st3{fill:none;stroke:#444444;stroke-width:0.25;stroke-miterlimit:10;}
	.st4{fill:#444444;}
	.st5{fill:none;stroke:#444444;stroke-width:2.5;stroke-linecap:round;stroke-miterlimit:10;}
</style>
<g>
	<path class="st0" d="M29.6,7.8l-2.4-4.5C26,3.4,1.7,7.5,1.7,8.7v13.8L42.6,8L29.6,7.8z"/>
	<path class="st1" d="M1.7,22.5v20.2l8.5,2.3l38.8-13.8V12.6c0-3.4-3.3-5.7-6.5-4.6L1.7,22.5z"/>
</g>
<path class="st2" d="M4.1,9l22.2-4.4c1.1-0.2,2.1,0.6,2.1,1.7v39.4c0,1.1-1,1.9-2.1,1.7L4.1,43.2c-0.8-0.2-1.4-0.9-1.4-1.7V10.7
	C2.7,9.9,3.3,9.2,4.1,9z"/>
<path class="st2" d="M28.4,43.2"/>
<path class="st2" d="M28.4,9.4h17.4"/>
<polygon class="st3" points="6.7,12.9 23.7,9.6 23.7,13.9 10,16.2 10,40.4 6.7,40 "/>
<path class="st3" d="M15.5,35.1v-2.6L11.7,36l3.8,4.4v-2.7h3.1c0,0,3.6,0.1,3.6-4.2c0-4.4,0-7.3,0-7.3h2.3l-3.4-8.4l-3.5,8.4h2.1
	v5.1C19.7,34.7,17.9,35.1,15.5,35.1C15.5,35.1,15.9,35.1,15.5,35.1z"/>
<path class="st4" d="M34.1,16.7H29c-0.5,0-1-0.4-1-1V14c0-0.5,0.4-1,1-1h5.2c0.5,0,1,0.4,1,1v1.8C35.1,16.3,34.7,16.7,34.1,16.7z"/>
<path class="st4" d="M43.7,16.7h-5.2c-0.5,0-1-0.4-1-1V14c0-0.5,0.4-1,1-1h5.2c0.5,0,1,0.4,1,1v1.8C44.7,16.3,44.2,16.7,43.7,16.7z"
	/>
<path class="st4" d="M34.1,22.3H29c-0.5,0-1-0.4-1-1v-1.8c0-0.5,0.4-1,1-1h5.2c0.5,0,1,0.4,1,1v1.8C35.1,21.8,34.7,22.3,34.1,22.3z"
	/>
<path class="st4" d="M43.7,22.3h-5.2c-0.5,0-1-0.4-1-1v-1.8c0-0.5,0.4-1,1-1h5.2c0.5,0,1,0.4,1,1v1.8C44.7,21.8,44.2,22.3,43.7,22.3
	z"/>
<path class="st4" d="M34.1,27.8H29c-0.5,0-1-0.4-1-1v-1.8c0-0.5,0.4-1,1-1h5.2c0.5,0,1,0.4,1,1v1.8C35.1,27.4,34.7,27.8,34.1,27.8z"
	/>
<path class="st4" d="M43.7,27.8h-5.2c-0.5,0-1-0.4-1-1v-1.8c0-0.5,0.4-1,1-1h5.2c0.5,0,1,0.4,1,1v1.8C44.7,27.4,44.2,27.8,43.7,27.8
	z"/>
<path class="st4" d="M34.1,33.4H29c-0.5,0-1-0.4-1-1v-1.8c0-0.5,0.4-1,1-1h5.2c0.5,0,1,0.4,1,1v1.8C35.1,32.9,34.7,33.4,34.1,33.4z"
	/>
<path class="st4" d="M43.7,33.4h-5.2c-0.5,0-1-0.4-1-1v-1.8c0-0.5,0.4-1,1-1h5.2c0.5,0,1,0.4,1,1v1.8C44.7,32.9,44.2,33.4,43.7,33.4
	z"/>
<path class="st4" d="M34.1,38.9H29c-0.5,0-1-0.4-1-1v-1.8c0-0.5,0.4-1,1-1h5.2c0.5,0,1,0.4,1,1V38C35.1,38.5,34.7,38.9,34.1,38.9z"
	/>
<path class="st4" d="M43.7,38.9h-5.2c-0.5,0-1-0.4-1-1v-1.8c0-0.5,0.4-1,1-1h5.2c0.5,0,1,0.4,1,1V38C44.7,38.5,44.2,38.9,43.7,38.9z
	"/>
<path class="st5" d="M48.4,35.2L48.6,11c0,0,0.3-2.1-3-2.4H30.4c-0.7,0.1-0.8-0.1-0.7-0.7c0-1.8,1.2-6-5.9-3.9L4.5,7.3
	c0,0-2.7,0.5-2.8,3.3L2,41.7c0,0-0.3,2.3,3.2,2.9l21.3,3.8c0,0,3.2,0.9,2.9-4.3l9,0.1"/>
</svg>
