<?xml version="1.0" encoding="utf-8"?>
<!-- Generator: Adobe Illustrator 27.3.1, SVG Export Plug-In . SVG Version: 6.00 Build 0)  -->
<svg version="1.1" id="Camada_3" xmlns="http://www.w3.org/2000/svg" xmlns:xlink="http://www.w3.org/1999/xlink" x="0px" y="0px"
	 viewBox="0 0 50 50" style="enable-background:new 0 0 50 50;" xml:space="preserve">
<style type="text/css">
	.st0{fill:#C3FF68;}
	.st1{fill:#AFE55D;}
	.st2{fill:none;stroke:#444444;stroke-miterlimit:10;}
	.st3{fill:none;stroke:#444444;stroke-width:0.5;stroke-miterlimit:10;}
	.st4{fill:#444444;}
	.st5{fill:none;stroke:#444444;stroke-width:2.5;stroke-linecap:round;stroke-linejoin:round;stroke-miterlimit:10;}
</style>
<g>
	<g>
		<path class="st0" d="M46.32,4.78H13.23l-1.3,7.96L1.41,14.19v9.66L48.59,7.06v0C48.59,5.8,47.58,4.78,46.32,4.78z"/>
		<polygon class="st1" points="1.41,23.85 1.94,37.13 11.39,37.67 13.94,44.84 48.59,32.51 48.59,7.06 		"/>
	</g>
	<g>
		<g>
			<g>
				<path class="st2" d="M24.71,36.63H3.17c-0.25,0-0.45-0.2-0.45-0.45V14.64c0-0.25,0.2-0.45,0.45-0.45h21.54
					c0.25,0,0.45,0.2,0.45,0.45v21.54C25.16,36.43,24.95,36.63,24.71,36.63z"/>
				<path class="st2" d="M30.08,45.14H16.06c-1.56,0-2.83-1.27-2.83-2.83v-5.68"/>
				<path class="st2" d="M13.23,14.19V8.12c0-1.56,1.27-2.83,2.83-2.83h28.03c1.56,0,2.83,1.27,2.83,2.83l0.46,17.35"/>
				<line class="st3" x1="46.92" y1="15.4" x2="25.16" y2="15.4"/>
				<line class="st3" x1="46.92" y1="25.22" x2="25.16" y2="25.22"/>
				<polyline class="st3" points="47.93,35.08 30.08,35.08 30.08,5.29 				"/>
			</g>
			<rect x="30.08" y="15.4" class="st4" width="16.85" height="9.81"/>
			<polygon class="st4" points="30.08,46.44 13.23,46.44 13.23,36.63 25.16,36.18 25.27,35.08 30.08,35.08 			"/>
			<path class="st5" d="M40.64,46.7c-6.39,0-19.39,0-23.7,0c-5.4,0-4.73-5.23-4.73-5.23l-0.03-3.79H3.65
				c-1.29,0-1.71-1.12-1.71-2.41V15.55c0-1.29,0.42-2.27,1.71-2.27h8.28V8.69c0-2.58,2.1-4.68,4.68-4.68h22.81l0,0
				c5.87,0,5.87,0,7.5,1.28c1.74,1.36,1.67,3.33,1.67,3.71v29.4"/>
		</g>
	</g>
	<g>
		<g>
			<path class="st4" d="M5.08,29.98V20.4h4.14c0.71,0,1.33,0.14,1.87,0.42c0.53,0.28,0.95,0.68,1.24,1.18s0.44,1.1,0.44,1.78
				c0,0.69-0.15,1.28-0.46,1.78c-0.3,0.5-0.73,0.89-1.28,1.16C10.5,27,9.86,27.14,9.13,27.14H6.66v-2.02H8.6
				c0.31,0,0.57-0.05,0.78-0.16c0.22-0.11,0.38-0.26,0.5-0.46c0.12-0.2,0.18-0.44,0.18-0.71c0-0.27-0.06-0.51-0.18-0.7
				c-0.12-0.19-0.28-0.34-0.5-0.45s-0.48-0.16-0.78-0.16H7.69v7.51H5.08z"/>
			<path class="st4" d="M23.02,25.19c0,1.07-0.21,1.97-0.62,2.7s-0.97,1.29-1.68,1.66s-1.49,0.56-2.36,0.56
				c-0.87,0-1.66-0.19-2.37-0.57s-1.26-0.93-1.68-1.67c-0.41-0.73-0.62-1.63-0.62-2.69c0-1.07,0.21-1.97,0.62-2.7
				c0.41-0.73,0.97-1.29,1.68-1.66s1.49-0.56,2.37-0.56c0.87,0,1.65,0.19,2.36,0.56s1.26,0.93,1.68,1.66
				C22.81,23.23,23.02,24.12,23.02,25.19z M20.34,25.19c0-0.57-0.08-1.06-0.23-1.45s-0.37-0.69-0.67-0.9
				c-0.29-0.2-0.66-0.31-1.09-0.31c-0.43,0-0.79,0.1-1.09,0.31c-0.29,0.2-0.52,0.5-0.67,0.9s-0.23,0.88-0.23,1.45
				c0,0.57,0.08,1.06,0.23,1.45s0.37,0.69,0.67,0.9c0.29,0.21,0.66,0.31,1.09,0.31c0.43,0,0.79-0.1,1.09-0.31
				c0.29-0.2,0.52-0.5,0.67-0.9S20.34,25.77,20.34,25.19z M17.44,26.43h2.02l0.73,0.92l1.24,1.4l1.61,1.95h-2.3l-1.14-1.33
				l-0.77-1.1L17.44,26.43z"/>
		</g>
	</g>
</g>
</svg>
