<?xml version="1.0" encoding="utf-8"?>
<!-- Generator: Adobe Illustrator 28.0.0, SVG Export Plug-In . SVG Version: 6.00 Build 0)  -->
<svg version="1.1" id="Layer_1" xmlns="http://www.w3.org/2000/svg" xmlns:xlink="http://www.w3.org/1999/xlink" x="0px" y="0px"
	 viewBox="0 0 50 50" style="enable-background:new 0 0 50 50;" xml:space="preserve">
<style type="text/css">
	.st0{fill:#04AD49;}
	.st1{fill:#FCC34F;}
	.st2{fill:none;stroke:#444444;stroke-width:2.5;stroke-linecap:round;stroke-linejoin:round;stroke-miterlimit:10;}
	.st3{fill:#22DD6D;}
	.st4{fill-rule:evenodd;clip-rule:evenodd;fill:none;stroke:#444444;stroke-miterlimit:10;}
	.st5{fill-rule:evenodd;clip-rule:evenodd;fill:none;stroke:#444444;stroke-width:0.5;stroke-miterlimit:10;}
	.st6{fill-rule:evenodd;clip-rule:evenodd;fill:none;stroke:#444444;stroke-linejoin:round;stroke-miterlimit:10;}
	.st7{fill-rule:evenodd;clip-rule:evenodd;fill:none;stroke:#444444;stroke-width:0.5;stroke-linecap:round;stroke-miterlimit:10;}
	
		.st8{fill-rule:evenodd;clip-rule:evenodd;fill:none;stroke:#444444;stroke-width:0.5;stroke-linecap:round;stroke-linejoin:round;stroke-miterlimit:10;}
</style>
<polygon class="st0" points="28.3,19.5 36.1,21.9 29.4,26.7 29.5,34.9 22.9,30 15.2,32.6 17.8,24.8 12.9,18.3 21.1,18.4 25.8,11.7 
	"/>
<path class="st1" d="M48,19.9c-0.2-0.8-2.7-7.5-3.2-8.1l-3-3.5l-0.2,0.1l-7.6-5.8l-7.8-0.7c-3.2,0-14.5,0.3-21.4,10.2L0.8,22.7
	l-0.2,0.1l4,13.4c0.1,0.4,4.5,5.7,4.9,5.9l5.6,3l32.2-11.7C47.9,32.9,48.9,24.7,48,19.9z"/>
<g>
	<g>
		<g>
			<path class="st2" d="M32.3,47.2c-7,2.3-15,1.2-21.3-3.6C0.6,35.8-1.5,21.1,6.3,10.8"/>
			<path class="st2" d="M6.1,11c2-3,4.7-4.7,4.7-4.7l0.7-0.5C19.6,0,30.8-0.1,39.1,6.1c10.4,7.8,12.4,22.5,4.7,32.8"/>
		</g>
	</g>
</g>
<g>
	<path class="st3" d="M48,19.9c-0.2-0.8-2.7-7.5-3.2-8.1l-3-3.5l-0.2,0.1l-7.6-5.8l-7.8-0.7c-3.2,0-14.5,0.3-21.4,10.2L0.8,22.7
		l-0.2,0.1l4,13.4c0.1,0.4,4.5,5.7,4.9,5.9l5.6,3l32.2-11.7C47.9,32.9,48.9,24.7,48,19.9z"/>
	<g>
		<g>
			<g>
				<path class="st2" d="M32.3,47.2c-7,2.3-15,1.2-21.3-3.6C0.6,35.8-1.5,21.1,6.3,10.8"/>
				<path class="st2" d="M6.1,11c2-3,4.7-4.7,4.7-4.7l0.7-0.5C19.6,0,30.8-0.1,39.1,6.1c10.4,7.8,12.4,22.5,4.7,32.8"/>
			</g>
		</g>
	</g>
</g>
<circle class="st4" cx="30" cy="19.8" r="11.3"/>
<circle class="st5" cx="30" cy="19.8" r="9.1"/>
<path class="st6" d="M11.1,38.7L11.1,38.7c-1-1-1-2.7,0-3.7l6.9-6.9l3.7,3.7l-6.9,6.9C13.8,39.8,12.1,39.8,11.1,38.7z"/>
<line class="st4" x1="20.9" y1="26.4" x2="18.5" y2="28.8"/>
<line class="st4" x1="23.4" y1="28.9" x2="21" y2="31.3"/>
<g>
	<path class="st5" d="M27.2,20.8l-1,1c-0.4,0.4-1,0.4-1.4,0l-0.1-0.1c-0.4-0.4-0.4-1,0-1.4h0"/>
	<path class="st7" d="M24.9,20.4c0,0-1.5-1-0.3-2.3"/>
	<path class="st7" d="M25.5,18.9c0,0-1.7-1.2-0.5-2.5c0,0,1-1.1,2.1-0.4"/>
	<path class="st7" d="M26.8,15.8c0,0,0.1-1.8,1.9-1.5"/>
	<path class="st7" d="M28.7,15.2c0,0-0.4-1.4,1.1-1.4c0,0,1.3,0.1,1,1.5"/>
	<path class="st7" d="M27.1,21l5.1-5.1c0.4-0.4,0.4-1,0-1.4l0,0c-0.4-0.4-1-0.4-1.4,0v0"/>
	<path class="st7" d="M26.3,19.7c0,0,0.9-0.7,0.1-1.5"/>
	<path class="st7" d="M28.5,16.4c0,0-0.5,1.1-1.5,0.5"/>
	<g>
		<polyline class="st8" points="31.2,23.5 30.7,23 30.7,21.7 29.3,20.4 		"/>
		<polyline class="st8" points="33.9,20.9 33.4,20.3 32.1,20.3 30.8,19 		"/>
		<line class="st8" x1="32.5" y1="22.2" x2="30" y2="19.7"/>
		<circle class="st7" cx="29.6" cy="26" r="0.6"/>
		<circle class="st7" cx="31.7" cy="24" r="0.6"/>
		<circle class="st7" cx="33" cy="22.6" r="0.6"/>
		<circle class="st7" cx="34.3" cy="21.3" r="0.6"/>
		<circle class="st7" cx="36.4" cy="19.3" r="0.6"/>
		<polyline class="st8" points="29.2,25.6 28.4,24.8 28.8,22.7 27.9,21.8 		"/>
		<polyline class="st8" points="35.9,18.8 35.1,18 33.1,18.5 32.2,17.6 		"/>
	</g>
</g>
</svg>
