<svg xmlns="http://www.w3.org/2000/svg" id="Layer_1" x="0" y="0" version="1.1" viewBox="0 0 50 50" xml:space="preserve"><style>.st2,.st4,.st5,.st7,.st8{fill:none;stroke:#444;stroke-miterlimit:10}.st2{stroke-width:2.5;stroke-linecap:round;stroke-linejoin:round}.st4,.st5,.st7,.st8{fill-rule:evenodd;clip-rule:evenodd}.st5,.st7,.st8{stroke-width:.5}.st7,.st8{stroke-linecap:round}.st8{stroke-linejoin:round}</style><path fill="#04ad49" d="M28.3 19.5l7.8 2.4-6.7 4.8.1 8.2-6.6-4.9-7.7 2.6 2.6-7.8-4.9-6.5 8.2.1 4.7-6.7z"/><path fill="#fcc34f" d="M48 19.9c-.2-.8-2.7-7.5-3.2-8.1l-3-3.5-.2.1L34 2.6l-7.8-.7c-3.2 0-14.5.3-21.4 10.2l-4 10.6-.2.1 4 13.4c.1.4 4.5 5.7 4.9 5.9l5.6 3 32.2-11.7c.6-.5 1.6-8.7.7-13.5z"/><path d="M32.3 47.2c-7 2.3-15 1.2-21.3-3.6C.6 35.8-1.5 21.1 6.3 10.8" class="st2"/><path d="M6.1 11c2-3 4.7-4.7 4.7-4.7l.7-.5c8.1-5.8 19.3-5.9 27.6.3 10.4 7.8 12.4 22.5 4.7 32.8" class="st2"/><path fill="#22dd6d" d="M48 19.9c-.2-.8-2.7-7.5-3.2-8.1l-3-3.5-.2.1L34 2.6l-7.8-.7c-3.2 0-14.5.3-21.4 10.2l-4 10.6-.2.1 4 13.4c.1.4 4.5 5.7 4.9 5.9l5.6 3 32.2-11.7c.6-.5 1.6-8.7.7-13.5z"/><path d="M32.3 47.2c-7 2.3-15 1.2-21.3-3.6C.6 35.8-1.5 21.1 6.3 10.8" class="st2"/><path d="M6.1 11c2-3 4.7-4.7 4.7-4.7l.7-.5c8.1-5.8 19.3-5.9 27.6.3 10.4 7.8 12.4 22.5 4.7 32.8" class="st2"/><circle cx="30" cy="19.8" r="11.3" class="st4"/><circle cx="30" cy="19.8" r="9.1" class="st5"/><path fill="none" fill-rule="evenodd" stroke="#444" stroke-linejoin="round" stroke-miterlimit="10" d="M11.1 38.7h0c-1-1-1-2.7 0-3.7l6.9-6.9 3.7 3.7-6.9 6.9c-1 1.1-2.7 1.1-3.7 0z" clip-rule="evenodd"/><path d="M20.9 26.4l-2.4 2.4m4.9.1L21 31.3" class="st4"/><path d="M27.2 20.8l-1 1c-.4.4-1 .4-1.4 0l-.1-.1c-.4-.4-.4-1 0-1.4" class="st5"/><path d="M24.9 20.4s-1.5-1-.3-2.3m.9.8s-1.7-1.2-.5-2.5c0 0 1-1.1 2.1-.4m-.3-.2s.1-1.8 1.9-1.5" class="st7"/><path d="M28.7 15.2s-.4-1.4 1.1-1.4c0 0 1.3.1 1 1.5" class="st7"/><path d="M27.1 21l5.1-5.1c.4-.4.4-1 0-1.4-.4-.4-1-.4-1.4 0m-4.5 5.2s.9-.7.1-1.5m2.1-1.8s-.5 1.1-1.5.5" class="st7"/><path d="M31.2 23.5l-.5-.5v-1.3l-1.4-1.3m4.6.5l-.5-.6h-1.3L30.8 19m1.7 3.2L30 19.7" class="st8"/><circle cx="29.6" cy="26" r=".6" class="st7"/><circle cx="31.7" cy="24" r=".6" class="st7"/><circle cx="33" cy="22.6" r=".6" class="st7"/><circle cx="34.3" cy="21.3" r=".6" class="st7"/><circle cx="36.4" cy="19.3" r=".6" class="st7"/><path d="M29.2 25.6l-.8-.8.4-2.1-.9-.9m8-3l-.8-.8-2 .5-.9-.9" class="st8"/></svg>