<?xml version="1.0" encoding="utf-8"?>
<!-- Generator: Adobe Illustrator 26.0.3, SVG Export Plug-In . SVG Version: 6.00 Build 0)  -->
<svg version="1.1" id="Layer_1" xmlns="http://www.w3.org/2000/svg" xmlns:xlink="http://www.w3.org/1999/xlink" x="0px" y="0px"
	 viewBox="0 0 50 50" style="enable-background:new 0 0 50 50;" xml:space="preserve">
<style type="text/css">
	.st0{fill:#FCC34F;}
	.st1{fill:#FDCF72;}
	.st2{fill:#444444;}
	.st3{fill:none;stroke:#494949;stroke-linecap:round;stroke-linejoin:round;stroke-miterlimit:10;}
</style>
<g>
	<g>
		<g>
			<path class="st0" d="M45.8,17.3v10.5l-2.3,0.9l-8.1,2.9h0l-5.7,2.1l-3.6,1.3c0,0,0,0,0,0l-5.6,2l-8,2.9l-2.8,1l-3-1.7
				c-1.7-1-2.8-2.7-2.8-4.7v-7.2l2.3-0.9l10-3.7h0l13.2-4.8L40.8,14l2.8-1c0.2,0.1,0.3,0.3,0.5,0.4C45.2,14.4,45.8,15.8,45.8,17.3z"
				/>
		</g>
		<g>
			<path class="st1" d="M44.1,13.3l-2.6,1l-11.3,4.1l-7,2.6l-2,0.7l-5,1.8h0l-9.8,3.6L4,28V17.3c0-1.9,1.1-3.7,2.8-4.7
				c1.9-1.3,3.8-2.6,5.7-3.9C15.7,6.8,18.8,5,22,3.2c0.5-0.3,1.7-0.9,3.4-0.8c1.3,0.1,2.3,0.6,2.7,0.9c5,3.1,9.9,6.2,14.9,9.4
				c0.2,0.1,0.4,0.2,0.5,0.3C43.8,13.1,43.9,13.2,44.1,13.3z"/>
		</g>
		<g>
			<g>
				<path class="st2" d="M47.2,15.8v13.5c0,0.7-0.6,1.2-1.2,1.2c-0.7,0-1.2-0.5-1.2-1.2V15.8c0-1.2-0.6-2.3-1.7-2.9l-0.5-0.3
					l-0.7-0.4L26.7,3.8c-1-0.6-2.3-0.6-3.4,0L7,12.9c-1,0.6-1.7,1.7-1.7,2.9v18.4c0,1.2,0.7,2.3,1.7,2.9l4.9,2.8l11.4,6.4
					c1,0.6,2.3,0.6,3.4,0l4.5-2.5c0.6-0.3,1.3-0.1,1.7,0.5c0.3,0.6,0.1,1.3-0.5,1.7l-4.5,2.5C27,48.9,26,49.1,25,49.1
					s-2-0.2-2.9-0.8L8.9,40.9l-3.2-1.8c-1.8-1-2.9-2.9-2.9-4.9V15.8c0-2,1.1-3.9,2.9-5l7-3.9l9.4-5.3c1.7-1,3.8-1,5.6-0.1
					c0.1,0,0.2,0.1,0.3,0.1l16.3,9.2c0.2,0.1,0.4,0.2,0.5,0.4c0.2,0.1,0.4,0.3,0.5,0.4C46.5,12.7,47.2,14.2,47.2,15.8z"/>
			</g>
		</g>
	</g>
	<g>
		<g>
			<g>
				<polyline class="st3" points="21,32.6 18.9,31.4 21,30.2 				"/>
				<polyline class="st3" points="22.9,29.1 25,27.9 27.1,29.1 				"/>
				<polyline class="st3" points="29,30.2 31.1,31.4 29,32.6 				"/>
				<polyline class="st3" points="27.1,33.7 25,34.9 22.9,33.7 				"/>
			</g>
		</g>
		<line class="st3" x1="30.7" y1="24.4" x2="34.8" y2="24.4"/>
		<line class="st3" x1="15.2" y1="24.4" x2="19.3" y2="24.4"/>
		<polygon class="st3" points="18.9,15 18.9,22 25,25.6 31.1,22 31.1,15 25,11.5 		"/>
		<line class="st3" x1="25" y1="18.5" x2="18.9" y2="15"/>
		<line class="st3" x1="25" y1="18.5" x2="31.1" y2="15"/>
		<line class="st3" x1="25" y1="18.5" x2="25" y2="25.6"/>
		<path class="st3" d="M11.5,36V21.9c0-1.4,1.1-2.5,2.5-2.5h1.2v14.1H14C12.6,33.6,11.5,34.7,11.5,36c0,1.4,1.1,2.5,2.5,2.5H36
			c1.4,0,2.5-1.1,2.5-2.5c0-1.4-1.1-2.5-2.5-2.5h-1.2V19.5H36c1.4,0,2.5,1.1,2.5,2.5V36"/>
	</g>
</g>
</svg>
