<?xml version="1.0" encoding="utf-8"?>
<!-- Generator: Adobe Illustrator 24.0.3, SVG Export Plug-In . SVG Version: 6.00 Build 0)  -->
<svg version="1.1" id="Layer_1" xmlns="http://www.w3.org/2000/svg" xmlns:xlink="http://www.w3.org/1999/xlink" x="0px" y="0px"
	 viewBox="0 0 50 50" style="enable-background:new 0 0 50 50;" xml:space="preserve">
<style type="text/css">
	.st0{fill:#AFE55D;}
	.st1{fill:#C3FF68;}
	.st2{fill:#444444;}
	.st3{fill:none;stroke:#444444;stroke-miterlimit:10;}
</style>
<g>
	<g>
		<path class="st0" d="M7.6,37.6l5.5,3.2l32.7-18.1l-0.1-7.1c0-1.6-0.8-3.1-2.2-3.9L27.8,2.7c-1.4-0.8-3.1-0.8-4.4,0L7.6,11.8
			c-1.4,0.8-2.2,2.3-2.2,3.9v18.1C5.4,35.3,6.2,36.8,7.6,37.6z"/>
	</g>
	<g>
		<path class="st1" d="M34.1,6.4l-6.4-3.7c-1.4-0.8-3.1-0.8-4.4,0L7.6,11.8c-1.4,0.8-2.2,2.3-2.2,3.9l-0.3,7.7L34.1,6.4z"/>
	</g>
	<g>
		<path class="st2" d="M25.4,48.5c-1,0-2-0.3-2.8-0.8L6.9,38.7c-1.7-1-2.8-2.9-2.8-4.9V15.7c0-2,1.1-3.9,2.8-4.9l15.7-9.1
			c1.7-1,3.9-1,5.6,0L44,10.8c1.7,1,2.8,2.9,2.8,4.9V29c0,0.7-0.5,1.2-1.2,1.2s-1.2-0.5-1.2-1.2V15.7c0-1.2-0.6-2.2-1.6-2.8
			L27.1,3.8c-1-0.6-2.3-0.6-3.3,0L8.1,12.9c-1,0.6-1.6,1.7-1.6,2.8v18.1c0,1.2,0.6,2.2,1.6,2.8l15.7,9.1c1,0.6,2.3,0.6,3.3,0
			l4.3-2.5c0.6-0.3,1.3-0.1,1.6,0.4c0.3,0.6,0.1,1.3-0.4,1.6l-4.3,2.5C27.4,48.3,26.4,48.5,25.4,48.5z"/>
	</g>
</g>
<g>
	<circle class="st3" cx="24.9" cy="12.8" r="1.8"/>
	<circle class="st3" cx="24.9" cy="18.6" r="1.2"/>
	<circle class="st3" cx="31.6" cy="16.7" r="1.2"/>
	<circle class="st3" cx="19.1" cy="18.6" r="1.2"/>
	<circle class="st3" cx="36" cy="12.3" r="1.2"/>
	<circle class="st3" cx="14.8" cy="22.8" r="1.2"/>
	<g>
		<circle class="st3" cx="24.9" cy="26.2" r="1.2"/>
		<circle class="st3" cx="29.4" cy="31.5" r="1.2"/>
		<circle class="st3" cx="20.9" cy="31.6" r="1.2"/>
		<circle class="st3" cx="29.3" cy="38.9" r="1.2"/>
		<circle class="st3" cx="20.9" cy="38.9" r="1.2"/>
	</g>
	<line class="st3" x1="18.4" y1="19.5" x2="15.6" y2="22.3"/>
	<line class="st3" x1="34.9" y1="13.4" x2="32.5" y2="15.8"/>
	<line class="st3" x1="24.9" y1="19.5" x2="24.9" y2="25.2"/>
	<line class="st3" x1="24.9" y1="14.5" x2="24.9" y2="17.7"/>
	<line class="st3" x1="20.3" y1="18.6" x2="23.7" y2="18.6"/>
	<line class="st3" x1="26.2" y1="18.6" x2="30.5" y2="17.2"/>
	<line class="st3" x1="20.9" y1="37.8" x2="20.9" y2="32.9"/>
	<line class="st3" x1="20.9" y1="30.4" x2="24" y2="27.2"/>
	<line class="st3" x1="29.1" y1="30.2" x2="26" y2="27.1"/>
	<line class="st3" x1="29.4" y1="37.7" x2="29.4" y2="32.8"/>
</g>
</svg>
