<?xml version="1.0" encoding="utf-8"?>
<!-- Generator: Adobe Illustrator 24.0.0, SVG Export Plug-In . SVG Version: 6.00 Build 0)  -->
<svg version="1.1" id="Layer_1" xmlns="http://www.w3.org/2000/svg" xmlns:xlink="http://www.w3.org/1999/xlink" x="0px" y="0px"
	 viewBox="0 0 50 50" style="enable-background:new 0 0 50 50;" xml:space="preserve">
<style type="text/css">
	.st0{fill:#46B8B0;}
	.st1{fill:#4ECDC4;}
	.st2{fill:#444444;}
</style>
<g>
	<g>
		<g>
			<path class="st0" d="M6.5,38.5l2.2,0.9l38.2-13.8l-1-9.8c0-1.6-0.9-3.2-2.3-4L27.3,2.4c-1.4-0.8-3.2-0.8-4.6,0L6.5,11.8
				c-1.4,0.8-2.3,2.3-2.3,4v18.7C4.2,36.1,5,37.7,6.5,38.5z"/>
		</g>
	</g>
	<g>
		<g>
			<path class="st1" d="M36,7.4l-8.7-5c-1.4-0.8-3.2-0.8-4.6,0L6.5,11.8c-1.4,0.8-2.3,2.3-2.3,4V19L36,7.4z"/>
		</g>
	</g>
	<g>
		<g>
			<path class="st2" d="M25,49.7c-1,0-2-0.3-2.9-0.8L5.9,39.6c-1.8-1-2.9-3-2.9-5V15.8c0-2.1,1.1-4,2.9-5l16.2-9.4c1.8-1,4-1,5.8,0
				l16.2,9.4c1.8,1,2.9,3,2.9,5v13.8c0,0.7-0.6,1.2-1.2,1.2c-0.7,0-1.2-0.6-1.2-1.2V15.8c0-1.2-0.6-2.3-1.7-2.9L26.7,3.5
				c-1-0.6-2.3-0.6-3.4,0L7.1,12.8c-1,0.6-1.7,1.7-1.7,2.9v18.7c0,1.2,0.6,2.3,1.7,2.9l16.2,9.4c1,0.6,2.3,0.6,3.4,0l4.5-2.6
				c0.6-0.3,1.3-0.1,1.7,0.5c0.3,0.6,0.1,1.3-0.5,1.7l-4.5,2.6C27,49.4,26,49.7,25,49.7z"/>
		</g>
	</g>
</g>
<g>
	<g>
		<circle class="st2" cx="26.8" cy="27.7" r="4.7"/>
	</g>
	<g>
		<path class="st2" d="M26.8,16.8c-0.9,0-1.8,0.1-2.7,0.3l-8.4-4.8c-0.4-0.2-0.8-0.1-1,0.3c-0.2,0.4-0.1,0.8,0.3,1l6.9,3.9H11
			c-0.4,0-0.8,0.3-0.8,0.8c0,0.4,0.3,0.8,0.8,0.8h8.2l-8.7,7.1c-0.3,0.3-0.4,0.7-0.1,1.1c0.1,0.2,0.4,0.3,0.6,0.3
			c0.2,0,0.3-0.1,0.5-0.2l5.5-4.5c-0.8,1.5-1.2,3.2-1.2,5c0,6.1,4.9,11,11,11s11-4.9,11-11C37.8,21.7,32.9,16.8,26.8,16.8z
			 M26.8,37.2c-5.2,0-9.5-4.3-9.5-9.5c0-5.2,4.3-9.5,9.5-9.5s9.5,4.3,9.5,9.5C36.3,33,32,37.2,26.8,37.2z"/>
	</g>
</g>
</svg>
