<svg xmlns="http://www.w3.org/2000/svg" id="Layer_1" x="0" y="0" version="1.1" viewBox="0 0 50 50" xml:space="preserve"><style>.st2{fill:#031326}</style><path fill="#f799ff" d="M48 9.4l-.6 7.7L2.2 33.6v-9.8l.3-4.4L48.1 2.8z"/><path fill="#e589ef" d="M47.8 26.1l.4 4.3L2 47.2l.1-9.1.3-5.2 46.1-16.7-.7 3.7z"/><path d="M47.7 49.2H1.5C.8 49.2.3 48.6.3 48V12.4c0-.7.6-1.2 1.2-1.2s1.2.6 1.2 1.2v34.3h43.7V3.3H16.8c-.7 0-1.2-.6-1.2-1.2S16.2.9 16.8.9h30.9c.7 0 1.2.6 1.2 1.2V48c.1.6-.5 1.2-1.2 1.2z" class="st2"/><path d="M42.1 10.1c0 .4-.3.8-.8.8H31v3.7c0 .3-.2.6-.5.7l-5.1 2.1v1.7c0 .4-.3.8-.8.8-.4 0-.8-.3-.8-.8v-1.7l-5.1-2.1c-.3-.1-.5-.4-.5-.7v-3.7H7.9c-.4 0-.8-.3-.8-.8 0-.4.3-.8.8-.8h33.5c.4.1.7.4.7.8zm-7.8 18.7s0-.1-.1-.1c0-.1-.1-.1-.1-.1l-.1-.1s-.1 0-.1-.1L25 23.9c-.2-.1-.5-.1-.7 0l-8.9 4.5s-.1 0-.1.1c0 0-.1 0-.1.1l-.1.1s-.1.1-.1.2v10.2c0 .3.2.5.4.7l8.9 4.5h.7l8.9-4.5c.3-.1.4-.4.4-.7V28.8zM23.9 42.3l-7.4-3.7v-8.4l7.4 3.7v8.4zm.7-9.7L17.4 29l7.2-3.6 7.2 3.6-7.2 3.6zm8.2 6l-7.4 3.7V34l7.4-3.7v8.3zm-17.7-10s-.1.1-.1.2c0 0 0-.1.1-.2-.1.1-.1.1 0 0z" class="st2"/></svg>