<svg xmlns="http://www.w3.org/2000/svg" id="Layer_1" x="0" y="0" version="1.1" viewBox="0 0 50 50" xml:space="preserve"><style>.st2{fill:#031326}</style><path fill="#e589ef" d="M40.3 28.2v-6.4l7.2-3.6c.6-.2.9-.8.9-1.4V7.5c0-.3-.1-.6-.3-.9-.1-.1-.1-.2-.2-.2 0 0 0-.1-.1-.1-.1-.1-.2-.2-.4-.2h-.1l-40 14.6 2.3 1.2v6.5l-7.1 3.5c-.5.1-.8.7-.8 1.3v9.2c0 .2 0 .3.1.5l39.3-14.3-.8-.4z"/><path fill="#f799ff" d="M39.2 2.4c-.5-.2-.9-.2-1.4 0l-7.9 4c-.6.2-.9.8-.9 1.4v2.7l-3.2-1.7c-.2-.1-.5-.2-.7-.2-.3 0-.5.1-.8.2L21 10.5V7.8c0-.3-.1-.6-.3-.9-.1-.1-.1-.2-.2-.2 0 0 0-.1-.1-.1-.1-.1-.2-.2-.3-.2l-7.9-4c-.5-.2-.9-.2-1.4 0l-7.9 4c-.2.1-.4.3-.6.5-.2.4-.2.6-.2.9v9.1c0 .6.3 1.2.9 1.4l4.7 2.3L47 6.3l-7.8-3.9z"/><path d="M39.3 48.1c-.3 0-.5-.1-.8-.2L31 44.1c-.6-.3-1-.9-1-1.6v-8.7c0-.7.4-1.3 1-1.6l7.5-3.8c.5-.3 1.1-.3 1.6 0l7.5 3.8c.6.3 1 .9 1 1.6v8.7c0 .7-.4 1.3-1 1.6l-7.5 3.8c-.3.1-.6.2-.8.2zm0-19.3c-.2 0-.4 0-.6.1l-7.5 3.8c-.4.2-.7.6-.7 1.1v8.7c0 .5.3.9.7 1.1l7.5 3.8c.4.2.8.2 1.1 0l7.5-3.8c.4-.2.7-.6.7-1.1v-8.7c0-.5-.3-.9-.7-1.1L39.8 29c-.2-.1-.3-.2-.5-.2z" class="st2"/><path d="M39.3 37.8l-9.2-4.6.2-.2c.2-.3.4-.4.7-.6l7.6-3.8c.5-.3 1.1-.3 1.6 0l7.5 3.8c.2.1.5.3.7.6l.2.2-9.3 4.6zM30.9 33l8.4 4.2 8.4-4.2c-.1-.1-.2-.2-.3-.2L39.8 29c-.4-.2-.8-.2-1.1 0l-7.5 3.8c-.1 0-.2.1-.3.2z" class="st2"/><path d="M39.5 48.1h-.2c-.3 0-.5-.1-.7-.2L31 44.1c-.6-.3-1-.9-1-1.6v-8.7c0-.4.1-.7.3-1l.1-.2 9.1 4.6v10.9zm-8.9-14.7c-.1.1-.1.3-.1.5v8.7c0 .5.3.9.7 1.1l7.5 3.8c.1 0 .2.1.3.1v-9.9l-8.4-4.3zm8.3-10.8c-.1 0-.2-.1-.2-.2s.1-.2.2-.2c.2 0 .4 0 .6-.1l7.5-3.8c.4-.2.7-.6.7-1.1V8.4c0-.5-.3-.9-.7-1.1l-7.5-3.8c-.4-.2-.8-.2-1.1 0l-7.5 3.8c-.4.2-.7.6-.7 1.1v4.1c0 .1-.1.2-.2.2s-.2-.1-.2-.2V8.4c0-.7.4-1.3 1-1.6L38.3 3c.5-.3 1.1-.3 1.6 0l7.5 3.8c.6.3 1 .9 1 1.6v8.7c0 .7-.4 1.3-1 1.6l-7.5 3.8c-.5 0-.8.1-1 .1z" class="st2"/><path d="M38.9 12.3l-9.2-4.6.2-.2c.1-.3.4-.5.6-.6l7.6-3.8c.5-.3 1.1-.3 1.6 0l7.5 3.8c.2.1.5.3.7.6l.1.2-9.1 4.6zm-8.4-4.8l8.4 4.2 8.4-4.2c-.1-.1-.2-.2-.3-.2l-7.6-3.8c-.4-.2-.8-.2-1.1 0l-7.5 3.8c-.1.1-.2.1-.3.2z" class="st2"/><path d="M38.9 22.6c-.1 0-.2-.1-.2-.2V12.2l-8.4-4.3c-.1.1-.1.3-.1.5v4.1c0 .1-.1.2-.2.2s-.2-.1-.2-.2V8.4c0-.4.1-.7.3-1l-.1-.1 9.1 4.6v10.5c0 .1-.1.2-.2.2zm-28.7-.4h-.1L3 18.7c-.6-.3-1-.9-1-1.6V8.4c0-.7.4-1.3 1-1.6L10.5 3c.5-.3 1.1-.3 1.6 0l7.5 3.8c.6.3 1 .9 1 1.6v4c0 .1-.1.2-.2.2s-.2-.1-.2-.2v-4c0-.5-.3-.9-.7-1.1L12 3.5c-.4-.2-.8-.2-1.1 0L3.2 7.3c-.4.2-.7.6-.7 1.1v8.7c0 .5.3.9.7 1.1l7.1 3.5c.1.1.2.2.1.3 0 .2-.1.2-.2.2z" class="st2"/><path d="M11.3 12.3L2.2 7.7l.2-.2c.1-.3.4-.5.6-.6l7.6-3.8c.5-.3 1.1-.3 1.6 0l7.5 3.8c.3.1.6.5.7.6l.2.2-9.3 4.6zM2.9 7.5l8.4 4.2 8.4-4.2c-.1-.1-.2-.2-.3-.2l-7.6-3.8c-.4-.2-.8-.2-1.1 0L3.2 7.3c-.1.1-.2.1-.3.2z" class="st2"/><path d="M11.3 16.7c-.1 0-.2-.1-.2-.2v-4.2L2.4 7.8c-.1-.1-.2-.2-.1-.3s.2-.2.3-.1l8.9 4.5v4.5c.1.2 0 .3-.2.3z" class="st2"/><path d="M10.7 29.3c-.4 0-.8-.3-.8-.8V18.4c0-1.3.7-2.3 1.7-2.8l11.7-5.9c.9-.5 1.9-.5 2.8 0l11.8 5.9c1 .4 1.7 1.5 1.7 2.8V28c0 .4-.3.8-.8.8s-.8-.3-.8-.8v-9.6c0-.7-.3-1.2-.8-1.4l-11.8-5.9c-.5-.2-1-.2-1.4 0L12.3 17c-.6.2-.9.8-.9 1.4v10.2c0 .4-.3.7-.7.7z" class="st2"/><path d="M24.8 24.6l-14.5-7.3.3-.5c.3-.4.7-.7 1.1-1L23.5 10c.9-.4 1.7-.4 2.6 0l11.8 5.9c.5.2 1 .8 1.1 1l.3.5-14.5 7.2zm-13-7.6l12.9 6.5 13-6.5c-.1-.1-.2-.2-.3-.2l-11.8-5.9c-.6-.3-1.1-.3-1.7 0l-11.8 5.9s-.1.1-.3.2z" class="st2"/><path d="M24.8 40.7c-.3 0-.5-.2-.5-.5V24.4l-13.5-6.8c-.2-.1-.3-.4-.2-.7.1-.2.4-.3.7-.2l14 7.1v16.4c0 .2-.3.5-.5.5z" class="st2"/><path d="M11.1 48.4c-.3 0-.5-.1-.8-.2l-7.5-3.8c-.6-.3-1-.9-1-1.6v-8.7c0-.7.4-1.3 1-1.6l7.5-3.8c.5-.3 1.1-.3 1.6 0l7.5 3.8c.6.3 1 .9 1 1.6v8.7c0 .7-.4 1.3-1 1.6l-7.5 3.8c-.3.1-.5.2-.8.2zm0-19.3c-.2 0-.4 0-.6.1L3 33c-.4.2-.7.6-.7 1.1v8.7c0 .5.3.9.7 1.1l7.5 3.8c.4.2.8.2 1.1 0l7.5-3.8c.4-.2.7-.6.7-1.1v-8.7c0-.5-.3-.9-.7-1.1l-7.5-3.8c-.1 0-.3-.1-.5-.1z" class="st2"/><path d="M11.1 38.1l-9.2-4.6.2-.2c.2-.3.4-.4.7-.6l7.6-3.8c.5-.3 1.1-.3 1.6 0l7.5 3.8c.2.1.5.3.7.6l.2.2-9.3 4.6zm-8.4-4.8l8.4 4.2 8.4-4.2c-.1-.1-.2-.2-.3-.2l-7.6-3.8c-.4-.2-.8-.2-1.1 0L3 33l-.3.3z" class="st2"/><path d="M11.4 48.3h-.2c-.3 0-.5-.1-.8-.2l-7.6-3.8c-.6-.3-1-.9-1-1.6V34c0-.4.1-.7.3-1h.1l9.1 4.6v10.7zm-9-14.6c-.1.1-.1.3-.1.5v8.7c0 .5.3.9.7 1.1l7.5 3.8c.1 0 .2.1.3.1V38l-8.4-4.3zm13.1 0c-.6 0-1-.4-1-1v-4.1c0-1 .5-1.9 1.4-2.4l2.3-1.2c.5-.3 1.1-.1 1.4.4.3.5.1 1.1-.4 1.4L16.8 28c-.2.1-.4.4-.4.7v4.1c.1.4-.4.9-.9.9zm18.7 0c-.6 0-1-.4-1-1v-4.1c0-.3-.2-.5-.4-.7l-2.2-1.2c-.5-.3-.7-.9-.4-1.4.3-.5.9-.7 1.4-.4l2.2 1.2c.9.5 1.4 1.4 1.4 2.4v4.1c0 .6-.5 1.1-1 1.1z" class="st2"/><path d="M11.6 49c-.4 0-.9-.1-1.3-.3l-7.9-4c-.9-.4-1.6-1.4-1.6-2.5v-9.1c0-1.2.6-2.1 1.6-2.6l6.2-3.1v-4.9l-6.3-3.1C1.4 19 .7 18 .7 16.9V7.8c0-.6.2-1 .4-1.4l.1-.1c.3-.4.7-.7 1-.9l.1-.1 7.9-4c.8-.4 1.7-.4 2.5 0l7.8 3.9c.2.1.5.2.7.4l.1.1c.1.1.2.2.3.4.3.5.5 1 .5 1.6v.6l1.3-.7c.4-.2.9-.3 1.4-.3.4 0 .9.1 1.3.3l1.4.8v-.8c.1-1.1.7-2 1.6-2.4l7.8-3.9c.8-.4 1.7-.4 2.5 0l7.8 3.9c.2.1.5.2.7.4l.1.1c.1.1.2.2.3.4.3.5.5 1 .5 1.6v9.1c0 1.2-.6 2.1-1.6 2.6l-6.3 3.1v5.6c0 .7-.6 1.2-1.2 1.2s-1.2-.6-1.2-1.2V21l7.7-3.9c.2-.1.2-.3.2-.3v-9c0-.1 0-.2-.1-.2l-.1-.1-7.9-4c-.1-.1-.2-.1-.3 0l-7.9 4c-.2.1-.2.3-.2.3v4.8l-5.1-2.7h-.3l-5 2.6V7.8c0-.1 0-.2-.1-.2l-8-4c-.1-.1-.2-.1-.3 0L3.6 7.5c-.1 0-.2.1-.2.1-.1.1-.1.2-.1.2v9.1s0 .2.1.3l7.7 3.9V29l-7.6 3.8c-.1.1-.2.2-.2.3v9.1s0 .2.1.3l8 4c.1.1.2.1.3 0l7.9-4c.2-.1.2-.3.2-.3v-4.7l5 2.6c.1.1.2.1.4 0l5.1-2.6v4.2h.2v.8l.1.1 7.8 3.9c.6.3.9 1.1.6 1.7-.3.6-1.1.9-1.7.6l-8-4c-.2-.1-.3-.2-.5-.3l-.2-.2h-.1l-.4-1c0-.1-.1-.2-.1-.3 0-.1-.1-.3-.1-.4v-.8l-1.4.7c-.8.4-1.8.4-2.6 0l-1.4-.7v.5c0 1.2-.6 2.1-1.6 2.6l-7.8 3.9c-.7.1-1.1.2-1.5.2zm35-41.5zm-26.9 0zm26.8 0z" class="st2"/></svg>