<svg xmlns="http://www.w3.org/2000/svg" version="1" viewBox="0 0 50 50"><path fill="#46B8B0" d="M48.052 10.032l-5.703 4.8c-.2.165-.444.254-.703.254h-1.572l-6.691 5.628h5.558c1.013 0 1.472 1.262.698 1.916l-5.349 4.5h2.2c1.013 0 1.472 1.262.698 1.916l-.06.05h.299c.299 0 .549.11.733.279L3.781 41.889h-.389c-1.013 0-1.472-1.262-.699-1.916l5.044-4.246c.2-.165.444-.254.703-.254h3.867l4.346-3.657h-5.478c-1.013 0-1.477-1.267-.698-1.916l7.729-6.506h-4.253l-1.422 1.192a1.082 1.082 0 01-.698.254h-8.44c-1.013 0-1.472-1.262-.699-1.916l5.044-4.246c.2-.165.444-.254.703-.254h7.135l6.84-5.758c.195-.165.444-.254.699-.254h10.103l4.81-4.046c.195-.165.444-.254.699-.254h8.626c1.013-.001 1.472 1.266.699 1.92z"/><path fill="#4ECDC4" d="M48.361 8.789L4.26 24.84h-.868c-1.013 0-1.472-1.262-.699-1.916l5.044-4.246c.2-.165.444-.254.703-.254h7.135l6.84-5.758c.195-.165.444-.254.699-.254h10.103l4.81-4.046c.195-.165.444-.254.699-.254h8.626c.495-.001.854.298 1.009.677z"/><path fill="#031326" d="M49.55 8.4a2.318 2.318 0 00-2.2-1.54h-8.62c-.55 0-1.09.2-1.51.55l-4.46 3.75h-9.64c-.55 0-1.09.2-1.51.55l-6.49 5.46H8.44c-.55 0-1.09.2-1.51.55l-5.04 4.25c-.76.64-1.03 1.65-.69 2.59.34.93 1.2 1.53 2.19 1.53h8.443c.55 0 1.08-.19 1.5-.55l.42-.34h.367l-5.13 4.32c-.76.64-1.03 1.65-.69 2.59.34.93 1.2 1.53 2.19 1.53h2.05l-.69.58H8.44c-.55 0-1.09.2-1.51.55l-5.81 4.9c-.76.64-1.03 1.66-.69 2.59.34.93 1.2 1.54 2.2 1.54h8.129c.55 0 1.09-.2 1.51-.55l2.761-1.92h11.93a1.25 1.25 0 000-2.5l-12.584.001 1.484-1.161a.668.668 0 00-.43-1.18h-2.39l6.09-5.12h3.21l-1.15.97a.788.788 0 00.51 1.39h7.737c.18 0 .36-.07.5-.19l5.162-3.95h4.76c.69 0 1.25-.56 1.25-1.25 0-.657-.504-1.204-1.152-1.249-.023-.002-.891 0-.914 0a2.33 2.33 0 00-1.321-1.762l1.871-1.739c.76-.64 1.03-1.66.69-2.59-.34-.93-1.2-1.54-2.19-1.54h-.413L41 16.67h.25c.55 0 1.08-.19 1.5-.55l6.11-5.13c.76-.64 1.03-1.66.69-2.59zM11.623 23.57H4.77c-.17 0-.27-.11-.31-.22-.04-.1-.03-.25.1-.36l3.86-3.21c.06-.05.14-.08.21-.08h7.04c.17 0 .28.11.31.22.04.1.04.26-.09.36l-4.057 3.21c-.06.05-.13.08-.21.08zm3.807 13.17c.22 0 .34.14.39.27.05.14.04.33-.12.46l-4.921 3.71c-.07.07-.17.1-.27.1H4.18c-.21 0-.34-.14-.39-.27-.03-.1-.04-.22.02-.34l4.56-3.84c.07-.05.15-.09.24-.09h6.82zm20.49-8.16l-6.143 4.77c-.09.08-.22.13-.34.13H21.7c-.28 0-.44-.19-.5-.36a.506.506 0 01.15-.59l5.68-4.78c.1-.08.22-.12.35-.12h8.19a.537.537 0 01.35.95zm1.346-5.592L32.04 27.38h-4.677a.765.765 0 00-.493.18l-4.23 3.56H11.16c-.06 0-.11-.02-.16-.02l9.69-8.16h8.93c.28 0 .56-.1.78-.29l.82-.69h5.672c.543 0 .79.679.374 1.028zm2.524-8.558h-.01l-5.88 4.95-3.07 2.58-.59.5c-.18.15-.4.23-.62.23H13.95s-.01 0-.01.01h-.747l2.857-2.22c.19-.16.25-.41.17-.65-.03-.08-.09-.13-.15-.19l7.1-5.98h10.49a.692.692 0 00.7.71h5.5l-.07.06zm6.05-4.28l-4.59 3.86c-.08.07-.19.11-.29.11h-6.6c-.24 0-.38-.15-.43-.3a.438.438 0 01.1-.46l4.67-3.92c.06-.04.13-.07.2-.08h6.7c.2.02.32.16.37.29.05.14.05.35-.13.5z"/></svg>