<?xml version="1.0" encoding="utf-8"?>
<!-- Generator: Adobe Illustrator 27.8.1, SVG Export Plug-In . SVG Version: 6.00 Build 0)  -->
<svg version="1.1" id="Camada_3" xmlns="http://www.w3.org/2000/svg" xmlns:xlink="http://www.w3.org/1999/xlink" x="0px" y="0px"
	 viewBox="0 0 50 50" style="enable-background:new 0 0 50 50;" xml:space="preserve">
<style type="text/css">
	.st0{fill:#46B8B0;}
	.st1{fill:none;stroke:#444444;stroke-width:2.5;stroke-linecap:round;stroke-linejoin:round;stroke-miterlimit:10;}
	.st2{fill:none;stroke:#444444;stroke-width:0.5;stroke-linecap:round;stroke-linejoin:round;stroke-miterlimit:10;}
	.st3{fill:none;stroke:#444444;stroke-linecap:round;stroke-linejoin:round;stroke-miterlimit:10;}
	.st4{fill:#444444;stroke:#444444;stroke-width:0.5;stroke-linecap:round;stroke-linejoin:round;stroke-miterlimit:10;}
	.st5{fill:#444444;}
</style>
<g>
	<g>
		<path class="st0" d="M5.4,31.8l-3.7,7.8c0,5,5.4,3.7,19.7,3.2L46.6,34l-0.2-21.8l-1.1-2c-0.2-0.9-1.5-1.4-2.5-1.4L7.8,9.1
			c-1.1,0-3,2.4-3,3.5v11.9"/>
		<path class="st1" d="M48.7,38l-2.5-5.6V13.2c0-2.1-1.7-3.8-3.8-3.8H8.8C6.7,9.4,5,11.1,5,13.2v19.2l-3.3,7
			c-0.8,1.8,0.4,3.8,2.4,3.8h34.8"/>
		<line class="st2" x1="7.5" y1="34.5" x2="43.5" y2="34.5"/>
		<line class="st2" x1="27.4" y1="40.5" x2="23.6" y2="40.5"/>
		<line class="st3" x1="4.9" y1="32.4" x2="46.1" y2="32.4"/>
		<polygon class="st4" points="44.7,38.6 6.3,38.6 7.4,36.3 43.5,36.3 		"/>
	</g>
	<g>
		<path class="st2" d="M23.5,28.2c-1.5-0.6-2.6-2.1-2.6-3.9v-1.9c0-0.3,0.2-0.5,0.5-0.5h7.1c0.3,0,0.5,0.2,0.5,0.5v1.9
			c0,1.8-1.1,3.3-2.7,3.9"/>
		<path class="st2" d="M29.2,22.7h1.1c0.9,0,1.5,0.7,1.5,1.6l0,0c0,0.9-0.7,1.6-1.5,1.6h-1.5"/>
		<path class="st2" d="M29.2,23.7H30c0.4,0,0.7,0.3,0.7,0.6l0,0c0,0.4-0.3,0.6-0.7,0.6h-1"/>
		<path class="st2" d="M29.4,29.7h-8.9c-0.5,0-0.8-0.4-0.8-0.8v-0.3c0-0.2,0.2-0.4,0.4-0.4h9.8c0.2,0,0.4,0.2,0.4,0.4v0.3
			C30.3,29.3,29.9,29.7,29.4,29.7z"/>
		<path class="st2" d="M24.1,18.9c0,0,0.2-0.2,0.2-0.4c0.1-0.4-0.1-0.8-0.6-0.8c-0.8,0-0.9,1-0.1,1.8c0.8,0.7,0.7,1.5,0.7,1.5"/>
		<path class="st2" d="M26.4,17.6c0,0-0.6,0.3-0.9-0.2c-0.2-0.3,0-1,0.6-1.2c1-0.4,2.1,1.2,0.4,2.5c-1.2,1-0.9,2.5-0.9,2.5"/>
	</g>
	<g>
		<line class="st2" x1="6.1" y1="14.5" x2="45.4" y2="14.5"/>
		<circle class="st5" cx="13.4" cy="12.8" r="0.7"/>
		<circle class="st5" cx="10.9" cy="12.8" r="0.7"/>
		<circle class="st5" cx="8.4" cy="12.8" r="0.7"/>
	</g>
</g>
</svg>
