<?xml version="1.0" encoding="utf-8"?>
<!-- Generator: Adobe Illustrator 27.7.0, SVG Export Plug-In . SVG Version: 6.00 Build 0)  -->
<svg version="1.1" id="Layer_1" xmlns="http://www.w3.org/2000/svg" xmlns:xlink="http://www.w3.org/1999/xlink" x="0px" y="0px"
	 viewBox="0 0 50 50" style="enable-background:new 0 0 50 50;" xml:space="preserve">
<style type="text/css">
	.st0{fill:none;stroke:#444444;stroke-linecap:round;stroke-linejoin:round;stroke-miterlimit:10;}
	.st1{fill:#C3FF68;}
	.st2{fill:#AFE55D;}
	.st3{fill:none;stroke:#444444;stroke-width:2.5;stroke-linecap:round;stroke-linejoin:round;stroke-miterlimit:10;}
	.st4{fill:none;stroke:#444444;stroke-width:0.5;stroke-linecap:round;stroke-linejoin:round;stroke-miterlimit:10;}
	.st5{fill:#444444;}
</style>
<g>
	<path class="st0" d="M-21.4,38.3"/>
</g>
<path class="st0" d="M-20.8,41.4"/>
<g>
	<g>
		<path class="st1" d="M34.9,7.8L4.6,7.9c-1.1,0-2.1,0.9-2.1,2.1L2.3,21.4L39.4,8l0.8,0.8l-3.4-0.7C36.8,6.9,36,7.8,34.9,7.8z"/>
		<path class="st2" d="M2.7,20.8l-0.7,19C1.9,42.8,5,45.1,7.9,44l40.3-14.3l0.8-17.1c0-4.6-5.3-6.2-9.7-4.7L2.7,20.8z"/>
	</g>
	<g>
		<g>
			<g>
				<path class="st3" d="M36.9,43.8H4.7l-2.9-5c-0.7-1.1,0.2-2.6,1.5-2.6L3.3,8.1l5.8,0l33.7,0.2l5.7,0l-0.2,28"/>
				<line class="st0" x1="3.5" y1="37.1" x2="48.4" y2="37.2"/>
			</g>
		</g>
		<g>
			<polyline class="st4" points="10.5,20 10.5,16.1 9.5,16.1 			"/>
			<polyline class="st4" points="19.1,20 19.1,16.1 18.1,16.1 			"/>
			<path class="st4" d="M12.4,23.5V26c-0.4,0.4-0.9,0.7-1.4,0.7S9.9,26.4,9.5,26v-2.5c0.4-0.4,0.9-0.7,1.4-0.7S12.1,23.1,12.4,23.5z
				"/>
			<path class="st4" d="M21,23.5V26c-0.4,0.4-0.9,0.7-1.4,0.7c-0.6,0-1.1-0.3-1.4-0.7v-2.5c0.4-0.4,0.9-0.7,1.4-0.7
				C20.2,22.8,20.7,23.1,21,23.5z"/>
			<polyline class="st4" points="23.9,26.7 23.9,22.8 22.9,22.8 			"/>
			<path class="st4" d="M16.2,16.8v2.5c-0.4,0.4-0.9,0.7-1.4,0.7s-1.1-0.3-1.4-0.7v-2.5c0.4-0.4,0.9-0.7,1.4-0.7
				S15.9,16.4,16.2,16.8z"/>
			<path class="st4" d="M24.9,16.8v2.5C24.5,19.7,24,20,23.4,20c-0.6,0-1.1-0.3-1.4-0.7v-2.5c0.4-0.4,0.9-0.7,1.4-0.7
				C24,16.1,24.5,16.4,24.9,16.8z"/>
			<polyline class="st4" points="27.7,20 27.7,16.1 26.8,16.1 			"/>
			<polyline class="st4" points="19.1,33.4 19.1,29.5 18.1,29.5 			"/>
			<path class="st4" d="M16.2,30.2v2.5c-0.4,0.4-0.9,0.7-1.4,0.7s-1.1-0.3-1.4-0.7v-2.5c0.4-0.4,0.9-0.7,1.4-0.7
				S15.9,29.8,16.2,30.2z"/>
			<polyline class="st4" points="27.7,33.4 27.7,29.5 26.8,29.5 			"/>
		</g>
		<g>
			<polyline class="st4" points="31.6,20 31.6,16.1 30.6,16.1 			"/>
			<polyline class="st4" points="40.2,20 40.2,16.1 39.3,16.1 			"/>
			<path class="st4" d="M33.5,23.5V26c-0.4,0.4-0.9,0.7-1.4,0.7c-0.6,0-1.1-0.3-1.4-0.7v-2.5c0.4-0.4,0.9-0.7,1.4-0.7
				C32.7,22.8,33.2,23.1,33.5,23.5z"/>
			<path class="st4" d="M42.1,23.5V26c-0.4,0.4-0.9,0.7-1.4,0.7c-0.6,0-1.1-0.3-1.4-0.7v-2.5c0.4-0.4,0.9-0.7,1.4-0.7
				C41.3,22.8,41.8,23.1,42.1,23.5z"/>
			<path class="st4" d="M37.3,16.8v2.5C37,19.7,36.5,20,35.9,20c-0.6,0-1.1-0.3-1.4-0.7v-2.5c0.4-0.4,0.9-0.7,1.4-0.7
				C36.5,16.1,37,16.4,37.3,16.8z"/>
			<polyline class="st4" points="40.2,33.4 40.2,29.5 39.3,29.5 			"/>
			<path class="st4" d="M37.3,30.2v2.5c-0.4,0.4-0.9,0.7-1.4,0.7c-0.6,0-1.1-0.3-1.4-0.7v-2.5c0.4-0.4,0.9-0.7,1.4-0.7
				C36.5,29.5,37,29.8,37.3,30.2z"/>
		</g>
		<rect x="3.8" y="13.1" class="st4" width="44.2" height="24"/>
		<circle class="st5" cx="39.9" cy="11.3" r="0.8"/>
		<circle class="st5" cx="42.2" cy="11.3" r="0.8"/>
		<circle class="st5" cx="44.5" cy="11.3" r="0.8"/>
	</g>
</g>
</svg>
