<svg xmlns="http://www.w3.org/2000/svg" fill="none" viewBox="0 0 50 50"><path fill="#2A7AE4" d="M40.516 16.192c-.203-.406-.745-.61-1.151-.406l-3.795 1.897-9.688-4.81V9.214a.897.897 0 00-.88-.88.897.897 0 00-.881.88v3.659L14.5 17.75l-3.794-1.897c-.407-.204-.949-.068-1.152.406-.203.407-.068.949.407 1.152l3.726 1.897v11.585L9.96 32.791c-.542.068-.678.61-.475 1.017.136.27.475.474.746.474.135 0 .27 0 .406-.068l3.794-1.897 9.688 4.81v3.659c0 .474.407.88.881.88a.896.896 0 00.881-.88v-3.659l5.15-2.235c.406-.204.609-.678.473-1.152-.203-.407-.677-.61-1.151-.474L25 35.636l-9.688-4.877V19.24L25 14.363l9.689 4.81v6.843c0 .475.406.881.88.881a.896.896 0 00.881-.88V19.24l3.727-1.897c.406-.203.541-.745.338-1.152z"/><path fill="#2A7AE4" d="M19.446 21.003v8.536c0 1.423 2.913 2.033 5.555 2.033 2.71 0 5.556-.678 5.556-2.033v-8.536c0-1.423-2.913-2.033-5.556-2.033-2.71-.067-5.555.61-5.555 2.033zM29.54 25.27c-.068.339-1.694 1.016-4.54 1.016-2.845 0-4.471-.745-4.539-1.016v-2.98c1.084.541 2.846.812 4.54.812 1.693 0 3.455-.27 4.539-.813v2.981zm0-4.268c-.068.339-1.694 1.016-4.54 1.016-2.845 0-4.471-.745-4.539-1.016.068-.339 1.694-1.016 4.54-1.016 2.845-.068 4.47.677 4.539 1.016zM25 47.222C12.727 47.222 2.778 37.273 2.778 25h-5.556C-2.778 40.341 9.66 52.778 25 52.778v-5.556zM47.222 25c0 12.273-9.949 22.222-22.222 22.222v5.556c15.341 0 27.778-12.437 27.778-27.778h-5.556zM25 2.778c12.273 0 22.222 9.949 22.222 22.222h5.556C52.778 9.659 40.34-2.778 25-2.778v5.556zm0-5.556C9.659-2.778-2.778 9.66-2.778 25h5.556C2.778 12.727 12.727 2.778 25 2.778v-5.556z"/></svg>