<svg xmlns="http://www.w3.org/2000/svg" fill="none" viewBox="0 0 36 36"><path fill="#2A7AE4" d="M36 18c0 9.941-8.059 18-18 18S0 27.941 0 18 8.059 0 18 0s18 8.059 18 18zM2.137 18c0 8.76 7.102 15.863 15.863 15.863 8.76 0 15.863-7.102 15.863-15.863C33.863 9.24 26.76 2.137 18 2.137S2.137 9.24 2.137 18z"/><path fill="#2A7AE4" d="M17.948 20.184a2.236 2.236 0 100-4.472 2.236 2.236 0 000 4.472z"/><path fill="#2A7AE4" d="M26.112 14.1c-.26-.104-.572-.156-.832-.26.052-.208.104-.416.156-.572.572-3.068.156-5.408-1.196-6.188-1.3-.728-3.38 0-5.616 1.924a6.232 6.232 0 00-.624.572c-.156-.156-.312-.26-.416-.416-2.288-2.028-4.576-2.86-5.876-2.08-1.3.728-1.716 2.912-1.144 5.824.052.26.104.572.208.884a9.815 9.815 0 00-.936.312c-2.756.936-4.42 2.392-4.42 3.9s1.768 3.068 4.576 4.056c.208.104.468.156.728.208a6.046 6.046 0 00-.208.936c-.52 2.86-.104 4.992 1.196 5.72a2.28 2.28 0 001.196.312c1.3 0 2.912-.78 4.628-2.236.156-.156.364-.312.52-.52.26.26.468.468.676.624.208.156.52.156.728-.104.156-.208.156-.52-.052-.676a8.635 8.635 0 01-.728-.676c-.052-.052-.104-.052-.104-.104.728-.78 1.456-1.716 2.184-2.756 1.248-.104 2.444-.312 3.536-.52v.156c.052.26.104.468.156.728a.54.54 0 00.624.416.54.54 0 00.416-.624c-.052-.208-.104-.468-.156-.676.156-.052.312-.104.52-.156 2.912-.988 4.732-2.548 4.732-4.056 0-1.56-1.664-3.016-4.472-3.952zm-14.404 7.54c.26-.936.624-1.924 1.092-2.964l.936 1.716c.312.572.676 1.144 1.04 1.664-1.092 0-2.132-.208-3.068-.416zm3.068-7.748c-.364.52-.728 1.092-1.04 1.664l-.936 1.716a27.902 27.902 0 01-1.092-2.912 31.247 31.247 0 013.068-.468zm3.172 8.372c-.832 0-1.664-.052-2.392-.104a28 28 0 01-1.3-2.08c-.416-.676-.78-1.404-1.144-2.132.364-.728.728-1.456 1.144-2.132.416-.676.832-1.404 1.3-2.028a37.518 37.518 0 014.836 0c.468.676.884 1.352 1.3 2.028.416.676.78 1.404 1.144 2.132a43.994 43.994 0 01-1.144 2.184c-.416.676-.832 1.404-1.3 2.028-.728.104-1.56.104-2.444.104zm-1.924-9.1A28.341 28.341 0 0118 10.772c.728.728 1.352 1.56 1.976 2.392a25.066 25.066 0 00-3.952 0zm1.924 9.724c.676 0 1.352 0 1.976-.052-.624.884-1.3 1.716-1.924 2.392a28.341 28.341 0 01-1.976-2.392c.624.052 1.3.052 1.924.052zm4.264-2.444c.312-.572.624-1.144.936-1.768.468 1.04.832 2.028 1.144 2.912-.936.208-1.976.416-3.12.52.364-.52.728-1.092 1.04-1.664zm.936-3.172l-.936-1.716c-.312-.572-.676-1.092-1.04-1.664 1.092.104 2.08.312 3.068.52-.26.884-.624 1.872-1.092 2.86zm-4.472-6.864c.26-.26.468-.416.676-.624 2.08-1.82 3.744-2.184 4.42-1.82.728.416 1.248 2.184.676 5.044l-.156.624v.104a27.02 27.02 0 00-3.484-.572c-.676-.936-1.404-1.872-2.184-2.704l.052-.052zm-6.5-2.392c.728-.416 2.496 0 4.68 1.976.156.156.312.26.468.416l.052.052c-.78.884-1.56 1.768-2.236 2.756-1.144.104-2.288.26-3.432.52v-.104c-.052-.312-.156-.572-.208-.884-.468-2.704 0-4.316.676-4.732zm-1.82 13.052c-2.704-.936-3.9-2.236-3.9-3.068 0-.832 1.144-2.028 3.692-2.912.312-.104.624-.208.988-.312.052 0 .052 0 .104-.052.364 1.092.78 2.184 1.248 3.276-.52 1.144-.988 2.288-1.3 3.328-.052 0-.052 0-.104-.052a3.83 3.83 0 01-.728-.208zm6.5 5.096c-2.132 1.872-3.9 2.236-4.628 1.82-.728-.416-1.196-1.976-.676-4.628.052-.312.156-.624.208-.936v-.156c1.04.208 2.236.416 3.484.52a23.479 23.479 0 002.236 2.756c-.052 0-.052.052-.104.052-.156.208-.364.416-.52.572zm8.632-5.096c-.156.052-.364.104-.52.156-.052 0-.104.052-.156.052-.312-1.04-.78-2.132-1.3-3.328.52-1.144.936-2.184 1.248-3.224.052 0 .104.052.156.052.312.104.624.156.884.26 2.6.884 3.796 2.132 3.796 2.912-.052.884-1.3 2.184-4.108 3.12z"/></svg>
