<?xml version="1.0" encoding="utf-8"?>
<!-- Generator: Adobe Illustrator 27.5.0, SVG Export Plug-In . SVG Version: 6.00 Build 0)  -->
<svg version="1.1" id="Camada_3" xmlns="http://www.w3.org/2000/svg" xmlns:xlink="http://www.w3.org/1999/xlink" x="0px" y="0px"
	 viewBox="0 0 50 50" style="enable-background:new 0 0 50 50;" xml:space="preserve">
<style type="text/css">
	.st0{fill:#B9D7D9;}
	.st1{fill:#A6C1C2;}
	.st2{fill:none;stroke:#444444;stroke-width:2.5;stroke-linecap:round;stroke-miterlimit:10;}
	.st3{fill:none;stroke:#454545;stroke-linecap:round;stroke-linejoin:round;stroke-miterlimit:10;}
	.st4{fill:#454545;}
</style>
<g>
	<g>
		<polygon class="st0" points="40.45,6.22 7.73,6.88 4.7,22.22 42.53,8.77 		"/>
		<path class="st1" d="M1.34,24.38l4.82,6.08c0,0.72,0.19,8.88,0.86,8.64l2.17,3.52l35.43-12.61c0.41-0.15,2.55-3.27,3.34-4.75
			c0.21-0.4,0.13-0.88-0.18-1.2l-2.76-2.82c0-0.06-0.01-0.12-0.02-0.18c-0.17-1.54-1.42-12.68-2.47-12.3L5.39,21.97
			C4.98,22.12,1.34,23.93,1.34,24.38z"/>
	</g>
	<path class="st2" d="M37.51,43.78H11.32c-2.69,0-4.68-2.35-4.59-4.91c0.09-2.45-0.03-5.63-0.83-8.22c-0.8-2.6-2.16-4.24-4.37-4.45
		v-2.39c2.22-0.21,3.57-1.85,4.37-4.45c0.8-2.59,0.91-5.77,0.83-8.22c-0.09-2.55,1.9-4.91,4.59-4.91h27.55
		c2.69,0,4.68,2.35,4.59,4.91c-0.09,2.45,0.03,5.63,0.83,8.22c0.8,2.6,2.15,4.24,4.37,4.45v2.39c-2.22,0.21-3.57,1.85-4.37,4.45
		c-0.36,1.17-0.58,2.46-0.71,3.74"/>
	<g>
		<path class="st3" d="M22.59,19.64c-0.38-0.43-0.61-1-0.61-1.62c0-1.35,1.1-2.45,2.45-2.45c1.35,0,2.45,1.1,2.45,2.45
			c0,1.35-1.1,2.45-2.45,2.45"/>
		<line class="st3" x1="24.43" y1="20.47" x2="24.43" y2="30.26"/>
		<path class="st3" d="M28.71,14.13c-0.38-0.43-0.61-1-0.61-1.62c0-1.35,1.1-2.45,2.45-2.45c1.35,0,2.45,1.1,2.45,2.45
			s-1.1,2.45-2.45,2.45"/>
		<path class="st3" d="M33.52,20.32c0.04-0.58,0.27-1.14,0.71-1.58c0.96-0.96,2.51-0.96,3.46,0c0.96,0.96,0.96,2.51,0,3.46
			c-0.96,0.96-2.51,0.96-3.46,0"/>
		<path class="st3" d="M34.23,22.2l-2.1,2.1c-0.23,0.23-0.36,0.54-0.36,0.87v5.09"/>
		<path class="st3" d="M28.1,28.43v-5c0-0.32,0.13-0.64,0.36-0.87l1.73-1.73c0.23-0.23,0.36-0.54,0.36-0.87v-5"/>
		<circle class="st4" cx="24.43" cy="33.63" r="0.92"/>
		<circle class="st4" cx="24.43" cy="37.3" r="0.92"/>
		<circle class="st4" cx="31.77" cy="37.3" r="0.92"/>
		<circle class="st4" cx="28.1" cy="37.3" r="0.92"/>
		<circle class="st4" cx="31.77" cy="33.63" r="0.92"/>
		<line class="st3" x1="28.1" y1="33.94" x2="28.1" y2="31.49"/>
		<path class="st3" d="M16.47,14.13c-0.38-0.43-0.61-1-0.61-1.62c0-1.35,1.1-2.45,2.45-2.45c1.35,0,2.45,1.1,2.45,2.45
			s-1.1,2.45-2.45,2.45"/>
		<path class="st3" d="M12.73,22.91c-1.35-0.09-2.37-1.25-2.28-2.6c0.09-1.35,1.25-2.37,2.6-2.28c1.35,0.09,2.37,1.25,2.28,2.6
			c-0.04,0.62-0.31,1.16-0.72,1.57"/>
		<path class="st3" d="M14.62,22.2l2.1,2.1c0.23,0.23,0.36,0.54,0.36,0.87v5.09"/>
		<path class="st3" d="M20.76,28.43v-5c0-0.32-0.13-0.64-0.36-0.87l-1.73-1.73c-0.23-0.23-0.36-0.54-0.36-0.87v-5"/>
		<circle class="st4" cx="17.08" cy="37.3" r="0.92"/>
		<circle class="st4" cx="20.76" cy="37.3" r="0.92"/>
		<circle class="st4" cx="17.08" cy="33.63" r="0.92"/>
		<line class="st3" x1="20.76" y1="33.94" x2="20.76" y2="31.49"/>
	</g>
	<line class="st3" x1="17.08" y1="39.29" x2="17.08" y2="43.78"/>
	<line class="st3" x1="20.76" y1="39.29" x2="20.76" y2="43.78"/>
	<line class="st3" x1="24.43" y1="39.29" x2="24.43" y2="43.78"/>
	<line class="st3" x1="28.1" y1="39.29" x2="28.1" y2="43.78"/>
	<line class="st3" x1="31.77" y1="39.29" x2="31.77" y2="43.78"/>
</g>
</svg>
