<svg xmlns="http://www.w3.org/2000/svg" id="Camada_3" x="0" y="0" version="1.1" viewBox="0 0 50 50" xml:space="preserve"><style>.st2{fill:none;stroke:#444;stroke-width:.5;stroke-linecap:round;stroke-linejoin:round;stroke-miterlimit:10}.st5{fill:#444}</style><path fill="#c3ff68" d="M5.3 30.7l-3.7 7.8c0 5 5.4 3.7 19.7 3.2l25.2-8.9-.2-21.8-1.1-2c-.2-.9-1.5-1.4-2.5-1.4L7.8 8c-1.1 0-3 2.4-3 3.5v11.9"/><path fill="none" stroke="#444" stroke-linecap="round" stroke-linejoin="round" stroke-miterlimit="10" stroke-width="2.5" d="M48.6 36.9l-2.5-5.6V12.1c0-2.1-1.7-3.8-3.8-3.8H8.8C6.7 8.3 5 10 5 12.1v19.2l-3.3 7C.8 40 2.1 42 4 42h34.8"/><path d="M7.4 33.4h36m-16.1 6h-3.8" class="st2"/><path fill="none" stroke="#444" stroke-linecap="round" stroke-linejoin="round" stroke-miterlimit="10" d="M4.8 31.3H46"/><path fill="#444" stroke="#444" stroke-linecap="round" stroke-linejoin="round" stroke-miterlimit="10" stroke-width=".5" d="M44.6 37.5H6.2l1.1-2.3h36.1z"/><path d="M23.5 27.1c-1.5-.6-2.6-2.1-2.6-3.9v-1.9c0-.3.2-.5.5-.5h7.1c.3 0 .5.2.5.5v1.9c0 1.8-1.1 3.3-2.7 3.9" class="st2"/><path d="M29.1 21.6h1.1c.9 0 1.5.7 1.5 1.6 0 .9-.7 1.6-1.5 1.6h-1.5" class="st2"/><path d="M29.1 22.5h.8c.4 0 .7.3.7.6 0 .4-.3.6-.7.6h-1m.4 4.9h-8.9c-.5 0-.8-.4-.8-.8v-.3c0-.2.2-.4.4-.4h9.8c.2 0 .4.2.4.4v.3c0 .4-.4.8-.9.8zM24 17.7s.2-.2.2-.4c.1-.4-.1-.8-.6-.8-.8 0-.9 1-.1 1.8.8.7.7 1.5.7 1.5m2.1-3.4s-.6.3-.9-.2c-.2-.3 0-1 .6-1.2 1-.4 2.1 1.2.4 2.5-1.2 1-.9 2.5-.9 2.5" class="st2"/><g><path d="M6 13.4h39.3" class="st2"/><circle cx="13.3" cy="11.7" r=".7" class="st5"/><circle cx="10.8" cy="11.7" r=".7" class="st5"/><circle cx="8.3" cy="11.7" r=".7" class="st5"/></g></svg>