<svg version="1" xmlns="http://www.w3.org/2000/svg" viewBox="0 0 50 50"><path fill="#00C8E2" d="M5.475 44.861L46.25 30.02V8.985a5.242 5.242 0 0 0-5.241-5.241H8.993a5.241 5.241 0 0 0-5.241 5.241V41c0 1.535.672 2.902 1.723 3.861z"/><path fill="#00DFFC" d="M44.525 5.122a5.205 5.205 0 0 0-3.516-1.379H8.993a5.241 5.241 0 0 0-5.241 5.241v10.978l40.773-14.84z"/><path fill="#444" d="M41.009 2.494H8.993a6.499 6.499 0 0 0-6.491 6.491V41a6.499 6.499 0 0 0 6.491 6.491h15.56c1.129 0 1.583-.632 1.583-1.763V21.662c1.77-.656 3.618-1.154 5.577-1.398h.003l.005-.002c.862-.107 1.744-.17 2.653-.17 6.237 0 9.256 1.454 10.627 2.501v7.424a1.25 1.25 0 0 0 2.5 0V8.984a6.5 6.5 0 0 0-6.492-6.49zM28.865 18.481c-.119-.052-.238-.104-.361-.156a2.83 2.83 0 0 0 .128-.8 2.874 2.874 0 0 0-2.871-2.871 2.874 2.874 0 0 0-2.654 1.783c-.125-.034-.25-.068-.378-.101a3.262 3.262 0 0 1 3.032-2.075c1.8 0 3.264 1.464 3.264 3.264a3.252 3.252 0 0 1-.16.956zm-5.427-1.434c.215.061.426.123.632.185a1.751 1.751 0 0 0-.029.292c0 .95.77 1.72 1.72 1.72.649 0 1.207-.363 1.5-.893.206.082.408.164.603.246a2.365 2.365 0 0 1-2.103 1.299 2.373 2.373 0 0 1-2.323-2.849zm4.004.838a1.72 1.72 0 0 0-1.681-2.08c-.673 0-1.249.39-1.532.953a38.748 38.748 0 0 0-.636-.187 2.37 2.37 0 0 1 2.167-1.417 2.373 2.373 0 0 1 2.371 2.371c0 .211-.036.411-.088.606a33.731 33.731 0 0 0-.601-.246zm-4.484-.97c-.043.197-.068.4-.068.609a2.874 2.874 0 0 0 2.871 2.871 2.865 2.865 0 0 0 2.563-1.604l.36.156a3.253 3.253 0 0 1-2.777 1.826h-.292a3.259 3.259 0 0 1-3.117-3.249c0-.245.032-.481.083-.71l.377.101zm2.428 4.493c-2.829 1.111-5.465 2.594-8.056 4.054-4.135 2.329-8.065 4.52-12.327 4.894V14.873c7.985.076 13.409.876 17.336 1.879a3.507 3.507 0 0 0-.092.772c0 1.809 1.379 3.286 3.139 3.476v.408zm0 23.588l-16.393-.005A3.995 3.995 0 0 1 5.002 41V30.874c4.384-.37 8.373-2.61 12.573-4.977 2.516-1.418 5.076-2.859 7.811-3.951v23.05zM26.136 21a3.497 3.497 0 0 0 2.776-1.952c.361.159.706.315 1.036.464.288.131.564.255.833.374a25.654 25.654 0 0 0-4.645 1.24V21zm5.607-1.246c-.5-.205-1.021-.44-1.589-.697-.337-.153-.691-.312-1.06-.475.107-.336.18-.687.18-1.058a3.517 3.517 0 0 0-3.514-3.514 3.51 3.51 0 0 0-3.273 2.263c-3.963-1.015-9.433-1.824-17.485-1.9V8.984a3.995 3.995 0 0 1 3.991-3.991h32.016A3.996 3.996 0 0 1 45 8.984v9.31c-1.195.478-3.206 1.206-5.442 1.701-1.431-.245-3.132-.403-5.185-.403-.901 0-1.775.06-2.63.162zm8.985.473A37.612 37.612 0 0 0 45 18.831v3.128c-.872-.601-2.223-1.26-4.272-1.732z"/></svg>