<svg xmlns="http://www.w3.org/2000/svg" version="1" viewBox="0 0 50 50"><path fill="#A6C1C2" d="M17.458 46.69c2.751 0 5.321-.748 7.542-2.034.283.164.572.319.867.465l20.483-7.455a15.026 15.026 0 001.276-6.059c0-5.583-3.041-10.446-7.55-13.054 0-.054.008-.105.008-.159C40.083 10.063 33.33 3.31 25 3.31c-8.331 0-15.083 6.753-15.083 15.084 0 .054.007.105.008.159-4.509 2.608-7.55 7.471-7.55 13.054 0 8.33 6.753 15.083 15.083 15.083z"/><path fill="#B9D7D9" d="M35.244 7.397C32.547 4.869 28.931 3.31 24.943 3.31c-7.72 0-14.075 5.803-14.966 13.283l25.267-9.196z"/><path fill="#031326" d="M41.324 17.85C41.036 9.094 33.824 2.06 25 2.06S8.963 9.095 8.675 17.85C4 20.842 1.125 26.047 1.125 31.606c0 9.007 7.327 16.334 16.333 16.334 2.619 0 5.211-.641 7.542-1.857a16.315 16.315 0 007.542 1.857 1.25 1.25 0 000-2.5c-2.417 0-4.808-.646-6.916-1.866l-.226-.131c4.263-2.598 6.903-7.264 6.903-12.264l-.001-.019c4.015-2.385 6.764-6.663 7.017-11.601l.13.075c4.272 2.471 6.926 7.059 6.926 11.972 0 1.936-.391 3.806-1.162 5.56a1.25 1.25 0 002.289 1.005 16.21 16.21 0 001.373-6.565c0-5.559-2.875-10.764-7.551-13.756zM25 4.56c7.628 0 13.833 6.206 13.832 13.832l-.003.135a14.365 14.365 0 00-6.776-1.705A14.26 14.26 0 0025 18.688a14.26 14.26 0 00-7.053-1.866c-2.371 0-4.702.593-6.777 1.706l-.003-.135C11.167 10.766 17.372 4.56 25 4.56zm-7.273 26.033c-3.82-2.37-6.402-6.535-6.559-11.315l.021-.012-.004-.178a13.857 13.857 0 016.763-1.765c2.376 0 4.613.602 6.569 1.66-3.929 2.437-6.591 6.706-6.79 11.61zM25 19.274c3.986 2.371 6.685 6.674 6.788 11.615A13.76 13.76 0 0125 32.678c-2.467 0-4.78-.655-6.789-1.79.104-4.941 2.803-9.244 6.789-11.614zM17.458 45.44c-7.628 0-13.833-6.206-13.833-13.834 0-4.913 2.654-9.5 6.926-11.972l.131-.076c.253 4.937 3.002 9.215 7.016 11.6l-.001.019c0 5.001 2.639 9.667 6.904 12.264l-.227.131a13.8 13.8 0 01-6.916 1.868zM25 43.103a13.906 13.906 0 01-6.794-11.64A14.265 14.265 0 0025 33.177c2.456 0 4.769-.622 6.793-1.714A13.903 13.903 0 0125 43.103zm7.273-12.51c-.199-4.904-2.862-9.174-6.79-11.61a13.77 13.77 0 016.569-1.66c2.372 0 4.707.612 6.764 1.763l-.004.18.021.012c-.157 4.78-2.739 8.946-6.56 11.315z"/></svg>