<?xml version="1.0" encoding="utf-8"?>
<!-- Generator: Adobe Illustrator 27.3.1, SVG Export Plug-In . SVG Version: 6.00 Build 0)  -->
<svg version="1.1" id="Camada_3" xmlns="http://www.w3.org/2000/svg" xmlns:xlink="http://www.w3.org/1999/xlink" x="0px" y="0px"
	 viewBox="0 0 50 50" style="enable-background:new 0 0 50 50;" xml:space="preserve">
<style type="text/css">
	.st0{fill:#5EBEBB;}
	.st1{fill:#47B7AF;}
	.st2{fill:none;stroke:#454444;stroke-width:2.5;stroke-linecap:round;stroke-linejoin:round;stroke-miterlimit:10;}
	.st3{fill:none;stroke:#444444;stroke-width:0.5;stroke-miterlimit:10;}
	.st4{fill:none;stroke:#444444;stroke-miterlimit:10;}
	.st5{fill:none;stroke:#444444;stroke-linecap:round;stroke-miterlimit:10;}
</style>
<g>
	<g>
		<g>
			<polygon class="st0" points="35.55,4.59 42.82,10.07 44.74,16.77 1.69,32.47 2.58,18.85 8.35,8.69 22.12,2.39 			"/>
			<polygon class="st1" points="46.9,20.97 47.39,29.76 9.26,43.46 6.64,40.99 3.72,35.76 1.58,27.82 43.32,11.78 45.46,15.94 			
				"/>
			<g>
				<path class="st2" d="M6.24,11.64c-7.7,10.24-5.65,24.77,4.6,32.46c7.48,5.63,17.25,6.05,24.98,1.85
					c0.17-0.09,0.35-0.19,0.52-0.29"/>
				<path class="st2" d="M6.11,11.8c2.01-2.95,4.68-4.68,4.68-4.68l0.65-0.53c7.99-5.62,19.02-5.76,27.26,0.45
					c9.14,6.87,11.76,19.18,6.74,29.03L45.48,36"/>
			</g>
		</g>
	</g>
	<path class="st3" d="M5.47,22.96l6.54-6.65c0.72-0.73,1.89-0.74,2.62-0.02l1.61,1.59c0.72,0.71,0.74,1.87,0.03,2.6L9.8,27.19
		c-0.71,0.74-1.89,0.76-2.62,0.04L5.5,25.58C4.77,24.86,4.75,23.69,5.47,22.96z"/>
	<path class="st4" d="M14.51,33.53c0,0-3.35-1.97-3.64-6.08l-0.52-0.83"/>
	<path class="st4" d="M16.27,20.48c0,0,0.76,0.49,1.72,0.59c3.17,0.35,5.25,2.1,5.25,2.1"/>
	<path class="st4" d="M32.59,20.72l-0.66,0.44c0,0-2.22-0.23-3.99-0.38c-2.6-0.22-7,3.99-7,3.99l-2.46,2.37c0,0-1.88,1.6-0.78,2.76
		c1.11,1.17,2.86-0.41,2.86-0.41l5.37-4.01l7.7,7.65c0,0,1.28,1.56,0.23,2.61s-2.3,0.23-2.3,0.23l-4.14-4.65"/>
	<path class="st5" d="M25.18,33.7l3.82,4.06c0,0,1.19,1.51,0.18,2.59c-0.96,1.03-2.25,0.24-2.25,0.24l-4.14-4.65"/>
	<path class="st5" d="M27.42,31.32l3.9,4.39c0,0,1.29,1.23,0.1,2.34c-1.25,1.16-2.43-0.29-2.43-0.29l-3.82-4.06"/>
	<path class="st4" d="M24.02,42.15c0,0,2.48,0.84,2.91-1.57"/>
	<path class="st4" d="M13.24,36.36l0.13,0.16c0.48,0.59,1.36,0.67,1.94,0.19l1.89-1.56c0.59-0.48,0.67-1.36,0.19-1.94l-0.13-0.16
		c-0.48-0.59-1.36-0.67-1.94-0.19l-1.89,1.56C12.84,34.9,12.76,35.77,13.24,36.36z"/>
	<path class="st4" d="M20.26,43.38l0.13,0.16c0.48,0.59,1.36,0.67,1.94,0.19l1.36-1.12c0.59-0.48,0.67-1.36,0.19-1.94l-0.13-0.16
		c-0.48-0.59-1.36-0.67-1.94-0.19l-1.36,1.12C19.86,41.92,19.78,42.79,20.26,43.38z"/>
	<path class="st4" d="M15.56,38.67l0.13,0.16c0.48,0.59,1.36,0.67,1.94,0.19l2.02-1.67c0.59-0.48,0.67-1.36,0.19-1.94l-0.13-0.16
		c-0.48-0.59-1.36-0.67-1.94-0.19l-2.02,1.67C15.16,37.21,15.07,38.08,15.56,38.67z"/>
	<path class="st4" d="M17.95,41.06l0.13,0.16c0.48,0.59,1.36,0.67,1.94,0.19l2.02-1.67c0.59-0.48,0.67-1.36,0.19-1.94l-0.13-0.16
		c-0.48-0.59-1.36-0.67-1.94-0.19l-2.02,1.67C17.55,39.6,17.46,40.47,17.95,41.06z"/>
	<path class="st4" d="M33.98,33.7c0,0,4.85-5.56,5.51-6.21"/>
	<path class="st3" d="M36.95,16.53l7.82,7.68c0.41,0.4,0.41,1.06,0.01,1.47l-2.73,2.76c-0.4,0.4-1.05,0.41-1.46,0.02l-7.88-7.6
		c-0.41-0.4-0.42-1.06-0.02-1.47l2.79-2.85C35.88,16.13,36.54,16.13,36.95,16.53z"/>
	<circle class="st3" cx="8.25" cy="24.28" r="1.39"/>
	<circle class="st4" cx="41.56" cy="25.28" r="1.39"/>
	<line class="st3" x1="12.23" y1="16.09" x2="8.25" y2="9.59"/>
	<line class="st3" x1="2.11" y1="22.32" x2="5.14" y2="23.29"/>
	<line class="st3" x1="40.58" y1="8.63" x2="36.92" y2="16.5"/>
	<line class="st3" x1="44.83" y1="24.28" x2="47.96" y2="23.17"/>
</g>
</svg>
