<?xml version="1.0" encoding="utf-8"?>
<!-- Generator: Adobe Illustrator 25.2.3, SVG Export Plug-In . SVG Version: 6.00 Build 0)  -->
<svg version="1.1" id="Camada_1" xmlns="http://www.w3.org/2000/svg" xmlns:xlink="http://www.w3.org/1999/xlink" x="0px" y="0px"
	 viewBox="0 0 50 50" style="enable-background:new 0 0 50 50;" xml:space="preserve">
<style type="text/css">
	.st0{fill:#FCC34F;}
	.st1{fill:#FDCF72;}
	.st2{fill:none;stroke:#444444;stroke-width:2.5;stroke-linecap:round;stroke-linejoin:round;stroke-miterlimit:10;}
	.st3{fill:#444444;}
	.st4{fill:none;stroke:#444444;stroke-width:1.5;stroke-linecap:round;stroke-linejoin:round;stroke-miterlimit:10;}
</style>
<g>
	<polygon class="st0" points="47.7,26.2 48.1,30.5 1.9,47.3 2.1,38.2 2.4,33 48.4,16.3 47.7,20 	"/>
	<polygon class="st1" points="47.7,9.6 47.2,17.3 2.1,33.7 2.1,23.9 2.4,19.5 47.8,3 	"/>
	<polyline class="st2" points="33,48.1 1.7,48.1 1.7,1.7 48.4,1.7 48.4,37.6 	"/>
</g>
<g>
	<path class="st3" d="M16.8,23.6v4.6c0.7,1.2,1.6,2.2,2.8,2.9v-7.5H16.8z M22.2,19.7v12.4c0.5,0.1,1,0.1,1.5,0.1s0.9,0,1.3-0.1V19.7
		H22.2z M28,25.5V31c1.2-0.7,2.1-1.8,2.8-3v-2.5H28z"/>
</g>
<g>
	<line class="st4" x1="38.3" y1="38.3" x2="32.3" y2="32.3"/>
	<circle class="st4" cx="23.8" cy="23.8" r="12"/>
</g>
</svg>
