<?xml version="1.0" encoding="utf-8"?>
<!-- Generator: Adobe Illustrator 24.0.0, SVG Export Plug-In . SVG Version: 6.00 Build 0)  -->
<svg version="1.1" id="Layer_1" xmlns="http://www.w3.org/2000/svg" xmlns:xlink="http://www.w3.org/1999/xlink" x="0px" y="0px"
	 viewBox="0 0 50 50" style="enable-background:new 0 0 50 50;" xml:space="preserve">
<style type="text/css">
	.st0{fill:#E589EF;}
	.st1{fill:#F799FF;}
	.st2{fill:#444444;}
</style>
<g>
	<g>
		<path class="st0" d="M48,29l-3.7-16.2c-0.1-0.4-0.3-0.8-0.5-1.2l-41.1,15l-0.6,2.5c-0.3,1.3,0,2.7,0.8,3.7l9.4,11.7l35.5-12.9
			C48.1,30.8,48.2,29.9,48,29z"/>
	</g>
	<g>
		<path class="st1" d="M42,9.9L27,2.7c-1.2-0.6-2.6-0.6-3.8,0l-15,7.2c-1.2,0.6-2.1,1.7-2.4,3l-3,13.7l41.1-15
			C43.3,10.9,42.8,10.2,42,9.9z"/>
	</g>
	<g>
		<path class="st2" d="M16.7,48.8c-1.7,0-3.3-0.8-4.4-2.1l-10.4-13c-1.1-1.3-1.5-3.1-1.1-4.7l3.7-16.2C4.9,11.1,6,9.7,7.5,9l15-7.2
			c1.5-0.7,3.3-0.7,4.9,0l15,7.2c1.5,0.7,2.7,2.1,3,3.8L49.2,29c0.4,1.7,0,3.4-1.1,4.7l-2.6,3.2c-0.4,0.5-1.2,0.6-1.8,0.2
			c-0.5-0.4-0.6-1.2-0.2-1.8l2.7-3.3c0.6-0.7,0.8-1.7,0.6-2.6L43,13.2c-0.2-0.9-0.8-1.7-1.7-2.1l-15-7.2c-0.9-0.4-1.8-0.4-2.7,0
			l-15,7.2c-0.9,0.4-1.5,1.2-1.7,2.1L3.3,29.4c-0.2,0.9,0,1.9,0.6,2.6l10.4,13c0.6,0.7,1.5,1.2,2.4,1.2l0,0h16.6
			c1,0,1.8-0.4,2.4-1.2c0.4-0.5,1.2-0.6,1.8-0.2c0.5,0.4,0.6,1.2,0.2,1.8c-1.1,1.3-2.7,2.1-4.4,2.1L16.7,48.8L16.7,48.8z"/>
	</g>
	<g>
		<path class="st2" d="M18.5,44.3c-1.4,0-2.7-0.6-3.6-1.7L6.7,32.3c-0.9-1.1-1.2-2.5-0.9-3.9l2.9-12.8c0.3-1.4,1.2-2.5,2.5-3.1
			L23,6.8c1.3-0.6,2.7-0.6,4,0l11.8,5.7c1.3,0.6,2.2,1.8,2.5,3.1l2.9,12.8c0.3,1.4,0,2.8-0.9,3.9l-8.1,10.2
			c-0.9,1.1-2.2,1.7-3.6,1.7L18.5,44.3L18.5,44.3z M25,6.9c-0.6,0-1.2,0.1-1.8,0.4L11.4,13c-1.1,0.5-1.9,1.6-2.2,2.8L6.3,28.5
			C6,29.7,6.3,31,7.1,32l8.2,10.2c0.8,1,2,1.5,3.2,1.5l0,0h13.1c1.3,0,2.4-0.6,3.2-1.6L43,31.9c0.8-1,1.1-2.3,0.8-3.5l-2.9-12.8
			c-0.3-1.2-1.1-2.2-2.2-2.8L26.8,7.3C26.2,7,25.6,6.9,25,6.9z"/>
	</g>
	<g>
		<g id="XMLID_27_">
			<path class="st2" d="M30.5,28.3c-1.1,1.9-3.2,3.2-5.4,3.2s-4.4-1.3-5.4-3.2c-0.5-0.9-0.9-2-0.9-3.1c0-3.5,2.8-6.2,6.2-6.2
				c2.3,0,4.4,1.2,5.4,3.2l5.4-3.2c-2.2-3.7-6.2-6.3-10.9-6.3c-7,0-12.5,5.7-12.5,12.5c0,2.3,0.7,4.4,1.6,6.2
				c2.2,3.8,6.2,6.3,10.9,6.3s8.7-2.5,10.9-6.3L30.5,28.3"/>
		</g>
	</g>
</g>
<g>
	<g>
		<polygon class="st2" points="40.5,24.7 40.5,26.1 39.1,26.1 39.1,27.5 37.7,27.5 37.7,26.1 36.4,26.1 36.4,24.7 37.7,24.7 
			37.7,23.3 39.1,23.3 39.1,24.7 		"/>
		<polygon class="st2" points="33.4,24.7 34.8,24.7 34.8,26.1 33.4,26.1 33.4,27.5 32,27.5 32,26.1 30.7,26.1 30.7,24.7 32,24.7 
			32,23.3 33.4,23.3 		"/>
	</g>
</g>
</svg>
