<svg xmlns="http://www.w3.org/2000/svg" version="1" viewBox="0 0 50 50"><path fill="#46B8B0" d="M46.165 34.215V7.302a3.469 3.469 0 00-3.469-3.469H7.301a3.469 3.469 0 00-3.469 3.469v35.395a3.469 3.469 0 003.469 3.469h6.028l32.836-11.951"/><path fill="#4ECDC4" d="M39.212 3.833H7.301a3.469 3.469 0 00-3.469 3.469v9.408l35.38-12.877z"/><g fill="#031326"><path d="M27.071 27.203a7.683 7.683 0 01-3.224.7c-1.185 0-2.085-.401-2.699-1.204-.614-.803-.921-2.002-.921-3.599 0-3.271 1.232-4.907 3.697-4.907.746 0 1.672.2 2.778.6a.418.418 0 00.535-.238l.629-1.674a.419.419 0 00-.226-.534c-1.109-.452-2.339-.678-3.691-.678-2.215 0-3.909.644-5.081 1.932-1.172 1.288-1.758 3.13-1.758 5.525 0 2.352.56 4.157 1.681 5.415 1.121 1.259 2.759 1.887 4.914 1.887.875 0 1.621-.069 2.235-.206a5.99 5.99 0 001.512-.56.427.427 0 00.22-.375v-1.715c0-.308-.32-.497-.601-.369zm4.715 2.864l.337-1.737a.063.063 0 00-.062-.076h-.428a.063.063 0 00-.062.051l-.342 1.761h-1.268l.329-1.737a.064.064 0 00-.062-.075h-.448a.062.062 0 00-.062.052l-.334 1.761h-1.177a.064.064 0 00-.064.064v.401c0 .035.028.064.064.064h1.085l-.283 1.413h-1.127a.064.064 0 00-.064.064v.409c0 .035.029.064.064.064h1.023l-.316 1.712a.064.064 0 00.063.075h.436a.062.062 0 00.062-.052l.328-1.736h1.26l-.332 1.712a.063.063 0 00.062.076h.44c.03 0 .057-.022.062-.051l.336-1.736h1.216a.064.064 0 00.064-.064v-.409a.064.064 0 00-.064-.064h-1.116l.274-1.413h1.141a.064.064 0 00.064-.064v-.401a.064.064 0 00-.064-.064h-1.035zm-.947 1.942h-1.26l.274-1.413h1.26l-.274 1.413z"/><path d="M39.372 7.775H10.625a2.855 2.855 0 00-2.852 2.852v28.747a2.855 2.855 0 002.852 2.852h28.747a2.855 2.855 0 002.852-2.852V10.626a2.855 2.855 0 00-2.852-2.851zm2.352 31.598a2.355 2.355 0 01-2.352 2.352H10.625a2.355 2.355 0 01-2.352-2.352V10.626a2.355 2.355 0 012.352-2.352h28.747a2.355 2.355 0 012.352 2.352v28.747z"/><path d="M42.698 2.585h-3.833c-.511 0-.948.309-1.142.749H12.272a1.248 1.248 0 00-1.142-.749H7.305a4.724 4.724 0 00-4.719 4.719v3.825c0 .51.308.945.746 1.14v25.456c-.438.194-.746.63-.746 1.14v3.833a4.725 4.725 0 004.719 4.72h3.825c.512 0 .95-.309 1.143-.75h25.235a.5.5 0 000-1H12.273a1.248 1.248 0 00-1.143-.75H7.305a2.222 2.222 0 01-2.219-2.22v-3.833c0-.514-.311-.954-.754-1.146V12.275c.443-.192.754-.632.754-1.146V7.304a2.22 2.22 0 012.219-2.219h3.825c.513 0 .951-.31 1.144-.751h25.448c.193.441.631.751 1.144.751h3.833c1.224 0 2.22.996 2.22 2.219v3.825c0 .511.308.947.747 1.141v21.946a.5.5 0 001 0V12.274a1.25 1.25 0 00.753-1.145V7.304a4.726 4.726 0 00-4.721-4.719z"/></g></svg>
