<svg xmlns="http://www.w3.org/2000/svg" id="Camada_1" x="0" y="0" version="1.1" viewBox="0 0 50 50" xml:space="preserve"><style>.st2{fill:#444}</style><path fill="#7df4eb" d="M44.6 12.4L39 8.8l-7.7-4.4-6-2.8c-3.2 0-21.5 8.9-21.5 12.1l-.5 7.8.5 15.1 11.5 7.6 31-11c.9-.5-.7-18.8-1.7-20.8z"/><path fill="none" stroke="#444" stroke-linecap="round" stroke-linejoin="round" stroke-miterlimit="10" stroke-width="2.5" d="M29.9 46.5l-2.2 1.3c-1.7 1-3.8 1-5.5 0l-15.6-9C5 37.8 3.9 36 3.9 34V16c0-2 1-3.8 2.7-4.7l15.6-9c1.7-1 3.8-1 5.5 0l15.6 9c1.7 1 2.7 2.8 2.7 4.7v18c0 2-1 3.8-2.7 4.7l-2.5 1.4"/><path d="M29.7 17.4c0 .7-.5 1.2-1.2 1.2s-1.2-.6-1.2-1.2c0-.7.6-1.2 1.2-1.2.7 0 1.2.6 1.2 1.2zm-6.3 12.5c-.7.3-1.5.5-2.3.5-3.1 0-5.6-2.5-5.5-5.6 0-3 2.5-5.5 5.6-5.5 3.1 0 5.5 2.6 5.5 5.6 0 1.1-.3 2.2-.9 3l1 .7c.7-1.1 1.1-2.4 1.1-3.7 0-3.7-3-6.8-6.8-6.8-3.7 0-6.8 3-6.8 6.8s3.1 6.8 6.8 6.8c1 0 2-.2 2.9-.6l-.6-1.2z" class="st2"/><path d="M34.7 19.2c0-2.8-1.3-5-3.5-6.5-1-.7-2.1-1.1-3.4-1.3-.4-.1-.8-.1-1.1-.1h-11c-3.7 0-6.8 2.4-7.8 5.9-.1.3-.1.6-.2.9v13.4c.1.3.1.6.2.8.8 2.9 2.6 4.8 5.4 5.7.8.2 1.5.3 2.3.3h11.1c1 0 2-.2 3-.6l-.8-1c-.7.2-1.5.4-2.2.4H15.8c-1.9 0-3.6-.7-4.9-2-1-1-1.6-2.1-1.8-3.5-.1-.4-.1-.9-.1-1.3V19.2c0-3 2-5.7 4.9-6.5.6-.2 1.2-.3 1.8-.3h11.2c2.9 0 5.4 1.9 6.3 4.6.3.8.4 1.5.4 2.4v11.2c0 1.3-.5 2.6-1.2 3.7l.8.9c.7-.9 1.2-1.8 1.4-2.9.1-.6.2-1.2.2-1.8-.1-3.8-.1-7.5-.1-11.3z" class="st2"/><path fill="none" stroke="#444" stroke-linecap="round" stroke-miterlimit="10" d="M23.7 26.5c1.4.8 2.6 2 2.6 2l11.3 12.7m-3.1 2.2l-9.9-11.1-1.1-1.3s-.9-1.2-1.5-2.7"/><path fill="none" stroke="#444" stroke-miterlimit="10" d="M26.3 34.2l-.7-2.5 2.2 1-1.3-2.7 1.9.9m-6.3-2.1s-3.4-5.2-3-5.6c.5-.4 5.2 4 5.2 4l-.4 1.5-1.8.1z"/></svg>