<?xml version="1.0" encoding="utf-8"?>
<!-- Generator: Adobe Illustrator 28.0.0, SVG Export Plug-In . SVG Version: 6.00 Build 0)  -->
<svg version="1.1" id="Layer_1" xmlns="http://www.w3.org/2000/svg" xmlns:xlink="http://www.w3.org/1999/xlink" x="0px" y="0px"
	 viewBox="0 0 50 50" style="enable-background:new 0 0 50 50;" xml:space="preserve">
<style type="text/css">
	.st0{fill:#8256D8;}
	.st1{fill:#A475EF;}
	.st2{fill:none;stroke:#444444;stroke-width:2.5;stroke-linecap:round;stroke-linejoin:round;stroke-miterlimit:10;}
	.st3{fill:none;stroke:#444444;stroke-linecap:round;stroke-linejoin:round;stroke-miterlimit:10;}
	.st4{fill:none;stroke:#444444;stroke-width:0.5;stroke-linecap:round;stroke-linejoin:round;stroke-miterlimit:10;}
</style>
<polygon class="st0" points="30.4,23.2 38.3,25.6 31.6,30.4 31.7,38.6 25.1,33.7 17.3,36.3 20,28.5 15.1,21.9 23.3,22 28,15.3 "/>
<path class="st1" d="M44,12.1l-2.4-5.6l0.9-4.3L27.4,1.9C24.2,1.9,6,0.6,6,3.8V25l0.3,22.3l6.2,0.5l31-11C44.3,36.4,45,14.1,44,12.1
	z"/>
<g>
	<path class="st2" d="M44,38.3V11c0-0.6-0.4-1-1-1H10c-2.3,0-4-1.8-4-4s1.8-4,4-4H44"/>
	<line class="st3" x1="11" y1="10" x2="11" y2="48.1"/>
	<path class="st2" d="M42.3,1.9c-0.4,0.5-1.2,1.9-1.3,3.9c0,2.1,0.9,3.6,1.3,4.1"/>
	<path class="st2" d="M6,6v39.4c0,1.5,1.2,2.7,2.7,2.7h23.7"/>
</g>
<polyline class="st3" points="20.1,10.4 20.1,17.7 17.3,16.1 14.5,17.7 14.5,10.4 "/>
<g>
	<line class="st4" x1="34.8" y1="24.4" x2="34.8" y2="27.5"/>
	<path class="st4" d="M18.5,27.5v-3.6c0-1.7,1.4-3.1,3.1-3.1h5.1"/>
	<path class="st4" d="M18.5,25.4c-1.7,0-3.1,1.4-3.1,3.1v2c0,1.7,1.4,3.1,3.1,3.1l0,0"/>
	<path class="st4" d="M34.8,25.4c1.7,0,3.1,1.4,3.1,3.1v2c0,1.7-1.4,3.1-3.1,3.1"/>
	<line class="st4" x1="24.6" y1="27" x2="24.6" y2="29"/>
	<line class="st4" x1="28.7" y1="27" x2="28.7" y2="29"/>
	<line class="st4" x1="26.7" y1="18.8" x2="26.7" y2="20.9"/>
	<path class="st4" d="M30.7,39.2l0-1h2c1.1,0,2-0.9,2-2v-4.1"/>
	<path class="st4" d="M18.5,32.1v4.1c0,1.1,0.9,2,2,2h2l0,1"/>
	<path class="st4" d="M30.7,31c-1,1.3-2.5,2-4.1,2s-3.1-0.8-4.1-2"/>
	<path class="st4" d="M34.8,27.5v-3.6c0-1.7-1.4-3.1-3.1-3.1h-5.1"/>
</g>
</svg>
