<?xml version="1.0" encoding="utf-8"?>
<!-- Generator: Adobe Illustrator 28.3.0, SVG Export Plug-In . SVG Version: 6.00 Build 0)  -->
<svg version="1.1" id="Layer_1" xmlns="http://www.w3.org/2000/svg" xmlns:xlink="http://www.w3.org/1999/xlink" x="0px" y="0px"
	 viewBox="0 0 50 50" style="enable-background:new 0 0 50 50;" xml:space="preserve">
<style type="text/css">
	.st0{fill:#D1BD00;}
	.st1{fill:#F9F941;}
	.st2{fill:none;stroke:#444444;stroke-width:2.5;stroke-linecap:round;stroke-linejoin:round;stroke-miterlimit:10;}
	.st3{fill:none;stroke:#505050;stroke-linecap:round;stroke-linejoin:round;stroke-miterlimit:10;}
	.st4{fill:none;stroke:#505050;stroke-width:0.5;stroke-linecap:round;stroke-linejoin:round;stroke-miterlimit:10;}
</style>
<polygon class="st0" points="22.5,18.2 30.4,20.7 23.7,25.4 23.8,33.6 17.2,28.7 9.4,31.4 12.1,23.6 7.1,17 15.3,17.1 20.1,10.4 "/>
<g>
	<path class="st1" d="M48.6,8.6L48.9,6C49,4,47.5,2.4,45.6,2.4L6.2,2.1c-1.8,0-3.3,1.5-3.3,3.3v13.8v2.9l-0.1,6.4l0.1,0V32L2.6,44.3
		c0,1.9,1.5,3.4,3.3,3.4l18-0.2c0.4,0,0.8-0.1,1.1-0.2l21.4-8c1.3-0.5,2.1-1.7,2.1-3.1V24l0.1-9.2l0.5-0.1l-0.5-5.4
		C48.6,9,48.6,8.8,48.6,8.6z"/>
	<path class="st2" d="M32.6,48.4h-27c-1.9,0-3.4-1.6-3.4-3.5V6c0-1.9,1.5-3.5,3.4-3.5h39C46.5,2.4,48,4,48,6v32.5"/>
	<g>
		<path class="st3" d="M37.1,28.7h4.2c1.4,0,2.5-1.1,2.5-2.5V11.4c0-1.4-1.1-2.5-2.5-2.5h-32c-1.4,0-2.5,1.1-2.5,2.5v14.8
			c0,1.4,1.1,2.5,2.5,2.5h4.3"/>
		<path class="st3" d="M36.2,28.1v-2.7c0-2-1.5-3.5-3.4-3.5h-1.7c-1.9,0-3.4,1.6-3.4,3.5v2.7"/>
		<path class="st3" d="M21.1,32.2v-0.8c0-2.5-1.9-3.6-4.2-3.6c-2.3,0-4.2,1.1-4.2,3.6v0.8"/>
		<path class="st3" d="M29.5,32.2v-0.8c0-2.5-1.9-3.6-4.2-3.6c-2.3,0-4.2,1.1-4.2,3.6v0.8"/>
		<path class="st3" d="M37.9,32.2v-0.8c0-2.5-1.9-3.6-4.2-3.6c-2.3,0-4.2,1.1-4.2,3.6v0.8"/>
		<path class="st3" d="M21.1,42.3v-0.8c0-2.5-1.9-3.6-4.2-3.6c-2.3,0-4.2,1.1-4.2,3.6v0.8"/>
		<path class="st3" d="M29.5,42.3v-0.8c0-2.5-1.9-3.6-4.2-3.6c-2.3,0-4.2,1.1-4.2,3.6v0.8"/>
		<path class="st3" d="M37.9,42.3v-0.8c0-2.5-1.9-3.6-4.2-3.6c-2.3,0-4.2,1.1-4.2,3.6v0.8"/>
		<path class="st3" d="M16.9,37.5v-1.7c0-2.5-1.9-3.6-4.2-3.6c-2.3,0-4.2,1.1-4.2,3.6v1.7"/>
		<path class="st3" d="M25.3,37.5v-1.7c0-2.5-1.9-3.6-4.2-3.6c-2.3,0-4.2,1.1-4.2,3.6v1.7"/>
		<path class="st3" d="M33.7,37.5v-1.7c0-2.5-1.9-3.6-4.2-3.6c-2.3,0-4.2,1.1-4.2,3.6v1.7"/>
		<path class="st3" d="M42.1,37.5v-1.7c0-2.5-1.9-3.6-4.2-3.6c-2.3,0-4.2,1.1-4.2,3.6v1.7"/>
		<path class="st3" d="M32,21.2c1.4,0,2.5-1.2,2.5-2.7v-0.9c0-1.5-1.1-2.7-2.5-2.7c-1.4,0-2.5,1.2-2.5,2.7v0.9
			C29.5,20,30.6,21.2,32,21.2z"/>
	</g>
	<line class="st4" x1="11.1" y1="12.4" x2="19.4" y2="12.4"/>
	<line class="st4" x1="11.1" y1="16.6" x2="26" y2="16.6"/>
	<line class="st4" x1="11.1" y1="18.8" x2="26" y2="18.8"/>
	<line class="st4" x1="11.1" y1="20.8" x2="26" y2="20.8"/>
	<line class="st4" x1="11.1" y1="22.8" x2="26" y2="22.8"/>
	<line class="st4" x1="11.1" y1="24.7" x2="26" y2="24.7"/>
</g>
</svg>
