<svg xmlns="http://www.w3.org/2000/svg" id="Layer_1" x="0" y="0" version="1.1" viewBox="0 0 50 50" xml:space="preserve"><style>.st2{stroke-width:2.5}.st2,.st3,.st4{fill:none;stroke:#444;stroke-linecap:round;stroke-linejoin:round;stroke-miterlimit:10}.st4{stroke-width:.5}</style><path fill="#8256d8" d="M30.4 23.2l7.9 2.4-6.7 4.8.1 8.2-6.6-4.9-7.8 2.6 2.7-7.8-4.9-6.6 8.2.1 4.7-6.7z"/><path fill="#a475ef" d="M44 12.1l-2.4-5.6.9-4.3-15.1-.3C24.2 1.9 6 .6 6 3.8V25l.3 22.3 6.2.5 31-11c.8-.4 1.5-22.7.5-24.7z"/><path d="M44 38.3V11c0-.6-.4-1-1-1H10c-2.3 0-4-1.8-4-4s1.8-4 4-4h34" class="st2"/><path d="M11 10v38.1" class="st3"/><path d="M42.3 1.9c-.4.5-1.2 1.9-1.3 3.9 0 2.1.9 3.6 1.3 4.1M6 6v39.4c0 1.5 1.2 2.7 2.7 2.7h23.7" class="st2"/><path d="M20.1 10.4v7.3l-2.8-1.6-2.8 1.6v-7.3" class="st3"/><path d="M34.8 24.4v3.1m-16.3 0v-3.6c0-1.7 1.4-3.1 3.1-3.1h5.1m-8.2 4.6c-1.7 0-3.1 1.4-3.1 3.1v2c0 1.7 1.4 3.1 3.1 3.1m16.3-8.2c1.7 0 3.1 1.4 3.1 3.1v2c0 1.7-1.4 3.1-3.1 3.1M24.6 27v2m4.1-2v2m-2-10.2v2.1m4 18.3v-1h2c1.1 0 2-.9 2-2v-4.1m-16.2 0v4.1c0 1.1.9 2 2 2h2v1m8.2-8.2c-1 1.3-2.5 2-4.1 2s-3.1-.8-4.1-2" class="st4"/><path d="M34.8 27.5v-3.6c0-1.7-1.4-3.1-3.1-3.1h-5.1" class="st4"/></svg>