<?xml version="1.0" encoding="utf-8"?>
<!-- Generator: Adobe Illustrator 26.3.1, SVG Export Plug-In . SVG Version: 6.00 Build 0)  -->
<svg version="1.1" id="Layer_1" xmlns="http://www.w3.org/2000/svg" xmlns:xlink="http://www.w3.org/1999/xlink" x="0px" y="0px"
	 viewBox="0 0 50 50" style="enable-background:new 0 0 50 50;" xml:space="preserve">
<style type="text/css">
	.st0{fill:#AFE55D;}
	.st1{fill:#C3FF68;}
	.st2{fill:#494949;}
</style>
<g>
	<g>
		<polygon class="st0" points="46.9,6.4 46.9,23.6 46,23.9 42,25.4 41.3,25.6 37.8,26.9 37.1,27.2 34.2,28.2 33.5,28.5 29.2,30 
			28.5,30.3 25.7,31.3 24.9,31.6 8.7,37.5 8,37.8 4,39.2 3.1,39.6 3.1,22.4 4,22 8,20.6 8.7,20.3 16.6,17.4 18.6,16.7 27.8,13.4 
			30.4,12.4 40.6,8.7 42.9,7.8 46,6.7 		"/>
	</g>
	<g>
		<path class="st1" d="M46.9,3.6v4.8L46,8.7l-10.1,3.7l-2.5,0.9l-9.2,3.4l-1.9,0.7l-5.8,2.1l-1.9,0.7l-2.9,1l-0.7,0.3l-2.1,0.8
			L8,22.6l-4,1.4l-0.9,0.3v-20L4,4l0,0l2.6-0.9h39.8C46.7,3.1,46.9,3.3,46.9,3.6z"/>
	</g>
	<g>
		<g>
			<path class="st2" d="M46,4V46H4V4H46 M46,1.5H4C2.7,1.5,1.5,2.7,1.5,4V46c0,1.4,1.1,2.5,2.5,2.5H46c1.4,0,2.5-1.1,2.5-2.5V4
				C48.5,2.7,47.3,1.5,46,1.5L46,1.5z"/>
		</g>
		<g>
			<g>
				<g>
					<path class="st2" d="M46.4,3.1H3.6c-0.2,0-0.5,0.2-0.5,0.5v42.9c0,0.3,0.2,0.5,0.5,0.5h42.9c0.2,0,0.5-0.2,0.5-0.5V3.6
						C46.9,3.3,46.7,3.1,46.4,3.1z M46,46H4V4H46V46z"/>
				</g>
				<g>
					<path class="st2" d="M46.4,3.1H3.6c-0.2,0-0.5,0.2-0.5,0.5v9.3c0,0.3,0.2,0.5,0.5,0.5h42.9c0.2,0,0.5-0.2,0.5-0.5V3.6
						C46.9,3.3,46.7,3.1,46.4,3.1z M46,12.4H4V4H46V12.4z"/>
				</g>
				<g>
					<path class="st2" d="M42.7,8.7H25c-0.3,0-0.5-0.2-0.5-0.5c0-0.3,0.2-0.5,0.5-0.5h17.7c0.3,0,0.5,0.2,0.5,0.5
						C43.2,8.5,43,8.7,42.7,8.7z"/>
				</g>
				<g>
					<path class="st2" d="M8.2,8.7H7.3C7,8.7,6.8,8.5,6.8,8.2C6.8,8,7,7.8,7.3,7.8h0.9c0.3,0,0.5,0.2,0.5,0.5
						C8.7,8.5,8.5,8.7,8.2,8.7z"/>
				</g>
				<g>
					<path class="st2" d="M12.9,8.7H12c-0.3,0-0.5-0.2-0.5-0.5c0-0.3,0.2-0.5,0.5-0.5h0.9c0.3,0,0.5,0.2,0.5,0.5
						C13.4,8.5,13.1,8.7,12.9,8.7z"/>
				</g>
			</g>
		</g>
		<g>
			<g id="XMLID_28435_">
				<g id="XMLID_28460_">
					<g id="XMLID_28462_">
						<path class="st2" d="M39.5,36.5c-0.7,0-1.3,0.3-1.7,0.8V26.9l-0.7,0.3V39c0,0,0,0.1,0,0.1c0,0.1,0.2,0.2,0.3,0.2
							c0.2,0,0.4-0.1,0.4-0.3c0.1-1,0.8-1.8,1.7-1.8c0.9,0,1.7,0.8,1.8,1.7v-1.7C40.8,36.8,40.2,36.5,39.5,36.5z M39.5,36.5
							c-0.7,0-1.3,0.3-1.7,0.8v1.7c0,0.2-0.2,0.4-0.4,0.4c-0.1,0-0.3-0.1-0.3-0.2c0,0.1,0.2,0.2,0.3,0.2c0.2,0,0.4-0.1,0.4-0.3
							c0.1-1,0.8-1.8,1.7-1.8c0.9,0,1.7,0.8,1.8,1.7v-1.7C40.8,36.8,40.2,36.5,39.5,36.5z M37.1,38.9L37.1,38.9c0,0.1,0,0.1,0,0.1
							C37.1,39,37.1,39,37.1,38.9z M39.5,36.5c-0.7,0-1.3,0.3-1.7,0.8v1.7c0,0.2-0.2,0.4-0.4,0.4c-0.1,0-0.3-0.1-0.3-0.2
							c0,0.1,0.2,0.2,0.3,0.2c0.2,0,0.4-0.1,0.4-0.3c0.1-1,0.8-1.8,1.7-1.8c0.9,0,1.7,0.8,1.8,1.7v-1.7
							C40.8,36.8,40.2,36.5,39.5,36.5z M37.1,39c0,0,0,0.1,0,0.1C37.1,39,37.1,39,37.1,39L37.1,39z M42,38.8
							c-0.1-0.6-0.3-1.1-0.7-1.5c-0.5-0.5-1.1-0.8-1.8-0.8s-1.3,0.3-1.7,0.8V17.1c0-0.2-0.2-0.4-0.4-0.4h-29c-0.2,0-0.3,0.2-0.3,0.4
							v25.5c0,0.2,0.2,0.4,0.3,0.4l29.5,0c2.2,0,4.1-1.8,4.2-4v-0.1C42,38.8,42,38.8,42,38.8z M37.8,42.3l-29.1,0V17.4h28.3V39
							c0,0,0,0.1,0,0.1c0,0.1,0.2,0.2,0.3,0.2c0.2,0,0.4-0.1,0.4-0.3c0.1-1,0.8-1.8,1.7-1.8c0.9,0,1.7,0.8,1.8,1.7c0,0,0,0,0,0
							C41.2,40.8,39.7,42.3,37.8,42.3z M37.1,38.9L37.1,38.9c0,0.1,0,0.1,0,0.1C37.1,39,37.1,39,37.1,38.9z M39.5,36.5
							c-0.7,0-1.3,0.3-1.7,0.8v1.7c0,0.2-0.2,0.4-0.4,0.4c-0.1,0-0.3-0.1-0.3-0.2c0,0.1,0.2,0.2,0.3,0.2c0.2,0,0.4-0.1,0.4-0.3
							c0.1-1,0.8-1.8,1.7-1.8c0.9,0,1.7,0.8,1.8,1.7v-1.7C40.8,36.8,40.2,36.5,39.5,36.5z M39.5,36.5c-0.7,0-1.3,0.3-1.7,0.8V26.9
							l-0.7,0.3V39c0,0,0,0.1,0,0.1c0,0.1,0.2,0.2,0.3,0.2c0.2,0,0.4-0.1,0.4-0.3c0.1-1,0.8-1.8,1.7-1.8c0.9,0,1.7,0.8,1.8,1.7v-1.7
							C40.8,36.8,40.2,36.5,39.5,36.5z"/>
					</g>
					<g id="XMLID_28461_">
						<path class="st2" d="M41.6,39.3c-0.2,0-0.4-0.2-0.4-0.4V17.2c0-1-0.8-1.9-1.8-1.9c-1,0-1.7,0.8-1.7,1.9v21.7
							c0,0.2-0.2,0.4-0.4,0.4c-0.2,0-0.4-0.2-0.4-0.4V17.2c0-1.5,1.1-2.6,2.4-2.6c1.4,0,2.5,1.2,2.5,2.6v21.7
							C42,39.1,41.8,39.3,41.6,39.3z"/>
					</g>
				</g>
				<g id="XMLID_28459_">
					<path class="st2" d="M34.6,19.6H11.2c-0.2,0-0.4,0.2-0.4,0.4v4.2c0,0.2,0.2,0.3,0.4,0.3h23.4c0.2,0,0.3-0.2,0.3-0.3v-4.2
						C34.9,19.7,34.8,19.6,34.6,19.6z M34.2,23.8H11.5v-3.5h22.7V23.8z"/>
				</g>
				<g id="XMLID_28458_">
					<path class="st2" d="M16.9,26.6h-5c-0.2,0-0.3,0.2-0.3,0.4v4.2c0,0.2,0.2,0.3,0.3,0.3h5c0.2,0,0.3-0.2,0.3-0.3V27
						C17.2,26.8,17,26.6,16.9,26.6z M16.5,30.9h-4.2v-3.5h4.2V30.9z"/>
				</g>
				<g id="XMLID_28457_">
					<path class="st2" d="M33.8,26.6h-5c-0.2,0-0.4,0.2-0.4,0.4v4.2c0,0.2,0.2,0.3,0.4,0.3h5c0.2,0,0.4-0.2,0.4-0.3V27
						C34.2,26.8,34,26.6,33.8,26.6z M33.5,30.9h-4.2v-3.5h4.2V30.9z"/>
				</g>
				<g id="XMLID_28456_">
					<path class="st2" d="M25.3,26.6h-5c-0.2,0-0.4,0.2-0.4,0.4v4.2c0,0.2,0.2,0.3,0.4,0.3h5c0.2,0,0.3-0.1,0.4-0.3c0,0,0,0,0-0.1
						V27C25.7,26.8,25.5,26.6,25.3,26.6z M20.8,30.9v-3.5H25v3.5H20.8z"/>
				</g>
				<g id="XMLID_28455_">
					<path class="st2" d="M16.9,34.4h-5c-0.2,0-0.4-0.2-0.4-0.4c0-0.2,0.2-0.4,0.4-0.4h5c0.2,0,0.4,0.2,0.4,0.4
						C17.2,34.3,17.1,34.4,16.9,34.4z"/>
				</g>
				<g id="XMLID_28454_">
					<path class="st2" d="M16.9,37.3h-5c-0.2,0-0.4-0.2-0.4-0.4c0-0.2,0.2-0.4,0.4-0.4h5c0.2,0,0.4,0.2,0.4,0.4
						C17.2,37.1,17.1,37.3,16.9,37.3z"/>
				</g>
				<g id="XMLID_28453_">
					<path class="st2" d="M16.9,40.1h-5c-0.2,0-0.4-0.2-0.4-0.4c0-0.2,0.2-0.4,0.4-0.4h5c0.2,0,0.4,0.2,0.4,0.4
						C17.2,39.9,17.1,40.1,16.9,40.1z"/>
				</g>
				<g id="XMLID_28452_">
					<path class="st2" d="M25.4,34.4h-5c-0.2,0-0.4-0.2-0.4-0.4c0-0.2,0.2-0.4,0.4-0.4h5c0.2,0,0.4,0.2,0.4,0.4
						C25.7,34.3,25.5,34.4,25.4,34.4z"/>
				</g>
				<g id="XMLID_28451_">
					<path class="st2" d="M25.4,37.3h-5c-0.2,0-0.4-0.2-0.4-0.4c0-0.2,0.2-0.4,0.4-0.4h5c0.2,0,0.4,0.2,0.4,0.4
						C25.7,37.1,25.5,37.3,25.4,37.3z"/>
				</g>
				<g id="XMLID_28450_">
					<path class="st2" d="M25.4,40.1h-5c-0.2,0-0.4-0.2-0.4-0.4c0-0.2,0.2-0.4,0.4-0.4h5c0.2,0,0.4,0.2,0.4,0.4
						C25.7,39.9,25.5,40.1,25.4,40.1z"/>
				</g>
				<g id="XMLID_28449_">
					<path class="st2" d="M33.8,34.4h-5c-0.2,0-0.4-0.2-0.4-0.4c0-0.2,0.2-0.4,0.4-0.4h5c0.2,0,0.4,0.2,0.4,0.4
						C34.2,34.3,34,34.4,33.8,34.4z"/>
				</g>
				<g id="XMLID_28448_">
					<path class="st2" d="M33.8,37.3h-5c-0.2,0-0.4-0.2-0.4-0.4c0-0.2,0.2-0.4,0.4-0.4h5c0.2,0,0.4,0.2,0.4,0.4
						C34.2,37.1,34,37.3,33.8,37.3z"/>
				</g>
				<g id="XMLID_28447_">
					<path class="st2" d="M33.8,40.1h-5c-0.2,0-0.4-0.2-0.4-0.4c0-0.2,0.2-0.4,0.4-0.4h5c0.2,0,0.4,0.2,0.4,0.4
						C34.2,39.9,34,40.1,33.8,40.1z"/>
				</g>
			</g>
		</g>
	</g>
</g>
</svg>
