<svg xmlns="http://www.w3.org/2000/svg" id="Layer_1" data-name="Layer 1" version="1.1" viewBox="0 0 50 50"><defs><style>.cls-4{fill:none;stroke:#444;stroke-width:.5px;stroke-miterlimit:10}</style></defs><path fill="#dc5e82" stroke-width="0" d="M47.6 17.3l.5-11-1.9-3.8-16-.9c-3.2.1-28-1.2-28 2l-1 20.2 1.2 23.5 13.6.6 31-11c.7-.4 1.5-17.6.5-19.6z"/><path fill="none" stroke="#444" stroke-linecap="round" stroke-linejoin="round" stroke-width="2.5" d="M32.2 48h-27c-1.9 0-3.4-1.6-3.4-3.5v-39C1.8 3.6 3.3 2 5.2 2h39c1.9 0 3.4 1.6 3.4 3.5V38"/><circle cx="47.8" cy="25.5" r=".7" class="cls-4"/><path d="M24.9 43.3h.8c.2 0 .4-.5.4-1V31.5h-1.7v10.8c0 .6.2 1 .4 1zm-.4-34.1h1.7V7c0-.5-.2-.9-.4-.9H25c-.2 0-.4.4-.4.9v2.2zm-12.8 34c.2 0 .5-.1.6-.3l9.1-11.3h-2.1L11 41.9c-.4.5 0 1.3.6 1.3zm26.9 0c.7 0 1-.8.6-1.3l-7.9-10.3h-2l8.6 11.3c.2.2.4.3.6.3z" class="cls-4"/><path fill="none" stroke="#444" stroke-miterlimit="10" d="M15.7 31.5h19.2c1.3 0 2.4-1.1 2.4-2.4V11.6c0-1.3-1.1-2.4-2.4-2.4H15.7c-1.3 0-2.4 1.1-2.4 2.4v17.5c0 1.3 1.1 2.4 2.4 2.4z"/><path fill="#444" stroke-width="0" d="M26.6 29.2c-.4 0-.8-.2-1.1-.5l-1-.9c-.3-.3-.6-.7-.6-1.1 0-.3 0-.6.3-.7l8-8.9s0-.2-.2-.2l-.5-.5c-.1 0-.2-.1-.3-.1l-8 8.9c-.2.3-.6.4-1 .3-.3 0-.6-.2-.9-.4l-.8-.7c-.3-.2-.4-.5-.5-.8-.1-.4 0-.8.2-1l7.2-8s0-.2-.2-.2c-.1-.2-.2-.2-.3-.2l-6.4 7.1c-.4.5-1.3.4-1.9-.1l-.3-.3c-.3-.2-.4-.5-.5-.8-.1-.4 0-.8.2-1l4.3-4.8s0-.2-.2-.2l-.2-.2c-.1 0-.2-.1-.3-.1l-1.5 1.7c-.2.2-.4.3-.7.3-.4 0-.8-.1-1.2-.5L16.7 14c-.2-.2-.3-.6 0-.8.2-.2.6-.3.8 0l1.5 1.3c.1 0 .2.1.3.1l1.5-1.7c.4-.5 1.3-.4 1.9.1l.2.2c.3.2.4.5.5.8.1.4 0 .8-.2 1l-4.3 4.8s0 .2.2.2l.3.3c.1 0 .2.1.3.1l6.4-7.1c.4-.5 1.3-.4 1.9.1.3.3.4.6.5.9.1.4 0 .8-.2 1l-7.2 8s0 .2.2.2l.8.7c.1 0 .2.1.3.1l8-8.9c.4-.5 1.3-.4 1.9.1l.5.5c.3.2.4.5.5.8.1.4 0 .8-.2 1l-8 8.9s0 .2.2.2l1 .9c.1 0 .2.1.3.1l6.8-7.5c.2-.2.6-.3.8 0 .2.2.3.6 0 .8l-6.8 7.6c-.2.2-.5.3-.8.3z"/></svg>