<?xml version="1.0" encoding="UTF-8"?>
<svg id="Layer_1" data-name="Layer 1" xmlns="http://www.w3.org/2000/svg" version="1.1" viewBox="0 0 50 50">
  <defs>
    <style>
      .cls-1, .cls-2, .cls-3, .cls-4 {
        fill: none;
        stroke: #444;
      }

      .cls-1, .cls-3 {
        stroke-linecap: round;
        stroke-linejoin: round;
      }

      .cls-1, .cls-4 {
        stroke-width: .5px;
      }

      .cls-5 {
        fill: #444;
      }

      .cls-5, .cls-6 {
        stroke-width: 0px;
      }

      .cls-2, .cls-4 {
        stroke-miterlimit: 10;
      }

      .cls-3 {
        stroke-width: 2.5px;
      }

      .cls-6 {
        fill: #dc5e82;
      }
    </style>
  </defs>
  <g>
    <path class="cls-6" d="M47.6,17.3l.5-11-1.9-3.8-16-.9C27,1.7,2.2.4,2.2,3.6l-1,20.2,1.2,23.5,13.6.6,31-11c.7-.4,1.5-17.6.5-19.6Z"/>
    <path class="cls-3" d="M32.2,48H5.2c-1.9,0-3.4-1.6-3.4-3.5V5.5c0-1.9,1.5-3.5,3.4-3.5h39c1.9,0,3.4,1.6,3.4,3.5v32.5"/>
    <g>
      <path class="cls-1" d="M48.8,31.9"/>
      <path class="cls-1" d="M49,29.2"/>
      <circle class="cls-4" cx="47.8" cy="25.5" r=".7"/>
    </g>
  </g>
  <g>
    <path class="cls-4" d="M24.9,43.3h.8c.2,0,.4-.5.4-1v-10.8h-1.7v10.8c0,.6.2,1,.4,1Z"/>
    <path class="cls-4" d="M24.5,9.2h1.7v-2.2c0-.5-.2-.9-.4-.9h-.8c-.2,0-.4.4-.4.9v2.2Z"/>
    <path class="cls-4" d="M11.7,43.2h0c.2,0,.5-.1.6-.3l9.1-11.3h-2.1l-8.3,10.3c-.4.5,0,1.3.6,1.3Z"/>
    <path class="cls-4" d="M38.6,43.2h0c.7,0,1-.8.6-1.3l-7.9-10.3h-2l8.6,11.3c.2.2.4.3.6.3Z"/>
    <path class="cls-2" d="M15.7,31.5h19.2c1.3,0,2.4-1.1,2.4-2.4V11.6c0-1.3-1.1-2.4-2.4-2.4H15.7c-1.3,0-2.4,1.1-2.4,2.4v17.5c0,1.3,1.1,2.4,2.4,2.4Z"/>
    <path class="cls-5" d="M26.6,29.2c-.4,0-.8-.2-1.1-.5l-1-.9c-.3-.3-.6-.7-.6-1.1,0-.3,0-.6.3-.7l8-8.9c0,0,0-.2-.2-.2l-.5-.5c-.1,0-.2-.1-.3-.1l-8,8.9c-.2.3-.6.4-1,.3-.3,0-.6-.2-.9-.4l-.8-.7c-.3-.2-.4-.5-.5-.8-.1-.4,0-.8.2-1l7.2-8c0,0,0-.2-.2-.2h0c-.1-.2-.2-.2-.3-.2l-6.4,7.1c-.4.5-1.3.4-1.9-.1l-.3-.3c-.3-.2-.4-.5-.5-.8-.1-.4,0-.8.2-1l4.3-4.8c0,0,0-.2-.2-.2l-.2-.2c-.1,0-.2-.1-.3-.1l-1.5,1.7c-.2.2-.4.3-.7.3-.4,0-.8-.1-1.2-.5l-1.5-1.3c-.2-.2-.3-.6,0-.8.2-.2.6-.3.8,0l1.5,1.3c.1,0,.2.1.3.1l1.5-1.7c.4-.5,1.3-.4,1.9.1l.2.2c.3.2.4.5.5.8.1.4,0,.8-.2,1l-4.3,4.8c0,0,0,.2.2.2l.3.3c.1,0,.2.1.3.1l6.4-7.1c.4-.5,1.3-.4,1.9.1h0c.3.3.4.6.5.9.1.4,0,.8-.2,1l-7.2,8c0,0,0,.2.2.2l.8.7c.1,0,.2.1.3.1l8-8.9c.4-.5,1.3-.4,1.9.1l.5.5c.3.2.4.5.5.8.1.4,0,.8-.2,1l-8,8.9c0,0,0,.2.2.2l1,.9c.1,0,.2.1.3.1l6.8-7.5c.2-.2.6-.3.8,0,.2.2.3.6,0,.8l-6.8,7.6c-.2.2-.5.3-.8.3Z"/>
  </g>
</svg>