<svg xmlns="http://www.w3.org/2000/svg" viewBox="0 0 50 50"><path fill="#e589ef" d="M47.7 25.9l-.5-4L30 4.3l-4.4-1.8C21.5 2.5 7.8 15.4 7.8 18l-4.3 4-.2 5.9 14.2 14.5 24.8-8.8c.6-.3 6.2-6 5.4-7.6z"/><path fill="none" stroke="#444" stroke-linecap="round" stroke-linejoin="round" stroke-width="2.5" d="M29.7 45.2c-2.4 2.4-6.3 2.4-8.7 0L4.7 29c-2.4-2.4-2.4-6.3 0-8.7L20.9 4c2.4-2.4 6.3-2.4 8.7 0l16.2 16.2c2.4 2.4 2.4 6.3 0 8.7l-7.4 7.4"/><path fill="none" stroke="#444" stroke-miterlimit="10" d="M21.8 24.5h15.9c0 8.7-7.2 15.9-15.9 15.9S5.9 33.2 5.9 24.5 13.1 8.6 21.8 8.6v15.9z"/><path fill="none" stroke="#444" stroke-miterlimit="10" d="M32 14.2h0c0 11.3-9.1 20.4-20.4 20.4h0c0-11.3 9.1-20.4 20.4-20.4z"/><path fill="none" stroke="#444" stroke-miterlimit="10" stroke-width=".5" d="M20.2 5l16.6 16.6c1.6 1.6 4.2 1.6 5.8 0l2.3-2.3m-33.6-4.2l15.3 15.3c1.6 1.6 1.6 4.1 0 5.6l-7.1 7.1m-4.1-32.3l24 24"/><path fill="none" stroke="#444" stroke-linecap="round" stroke-miterlimit="10" stroke-width=".5" d="M27.9 18.5h0c0 6.6-5.3 11.9-11.9 11.9h0c0-6.6 5.3-11.9 11.9-11.9z"/></svg>
