<?xml version="1.0" encoding="utf-8"?>
<!-- Generator: Adobe Illustrator 28.2.0, SVG Export Plug-In . SVG Version: 6.00 Build 0)  -->
<svg version="1.1" id="Layer_1" xmlns="http://www.w3.org/2000/svg" xmlns:xlink="http://www.w3.org/1999/xlink" x="0px" y="0px"
	 viewBox="0 0 50 50" style="enable-background:new 0 0 50 50;" xml:space="preserve">
<style type="text/css">
	.st0{fill:#8256D8;}
	.st1{fill:#A475EF;}
	.st2{fill:none;stroke:#444444;stroke-width:2.5;stroke-linecap:round;stroke-linejoin:round;stroke-miterlimit:10;}
	.st3{fill:none;stroke:#444444;stroke-linecap:round;stroke-linejoin:round;stroke-miterlimit:10;}
	.st4{fill:none;stroke:#444444;stroke-miterlimit:10;}
	.st5{fill:none;}
	.st6{fill:#444444;}
	.st7{fill:none;stroke:#454444;stroke-miterlimit:10;}
	.st8{fill:none;stroke:#454444;stroke-width:0.5;stroke-miterlimit:10;}
	.st9{fill:none;stroke:#444444;stroke-width:0.5;stroke-linecap:round;stroke-linejoin:round;stroke-miterlimit:10;}
</style>
<g>
	<polygon class="st0" points="30.7,20 38.5,22.4 31.8,27.2 31.9,35.4 25.4,30.5 17.6,33.1 20.2,25.3 15.3,18.8 23.5,18.9 28.3,12.2 
			"/>
	<g>
		<path class="st1" d="M47.9,8.7L48.2,6c0.2-1.9-1.3-3.6-3.3-3.6L5.5,2.2c-1.8,0-3.3,1.5-3.3,3.3v13.8v2.9l-0.1,6.4l0.1,0v3.6
			L1.9,44.4c0,1.9,1.5,3.4,3.3,3.4l2.3,0.1c0.4,0,3,0.2,3.3,0l36.7-13.8c1.3-0.5,0.2-2,0.2-3.4l0.1-6.7l0.1-9.2l0.5-0.1L48,9.3
			C47.9,9.1,47.9,8.9,47.9,8.7z"/>
		<path class="st2" d="M38.5,48H5.4C3.5,48,2,46.5,2,44.5V5.6c0-1.9,1.5-3.5,3.4-3.5h39c1.9,0,3.4,1.6,3.4,3.5v30.1"/>
		<g>
			<polyline class="st3" points="29.4,26.6 29.4,32.2 8.3,32.2 8.3,7.9 12.6,7.9 			"/>
			<polyline class="st3" points="25.2,7.9 29.4,7.9 29.4,20.3 			"/>
			<path class="st4" d="M24.1,9.7H13.5c-0.5,0-0.9-0.4-0.9-0.9V6.4c0-0.5,0.4-0.9,0.9-0.9h10.6c0.5,0,0.9,0.4,0.9,0.9v2.4
				C25.1,9.3,24.6,9.7,24.1,9.7z"/>
			<polygon class="st5" points="9.3,47.2 10.9,47.6 13.9,36.8 12.2,36.8 			"/>
			<polygon class="st6" points="15.2,35.9 14.9,36.8 17.5,36.8 17.5,36.4 20.1,36.4 20.1,36.8 22.8,36.8 22.5,35.9 			"/>
			<rect x="17.5" y="36.8" class="st4" width="2.6" height="7.7"/>
			<rect x="17.5" y="36.4" class="st6" width="2.6" height="0.4"/>
			<polygon class="st6" points="10.9,47.6 9.3,47.2 12.2,36.8 11.2,36.8 8.1,47.9 11.5,48.8 14.9,36.8 13.9,36.8 			"/>
			<polygon class="st6" points="14.1,35.9 13.9,36.8 14.9,36.8 15.2,35.9 			"/>
			<polygon class="st6" points="28.4,47.2 26.8,47.6 23.8,36.8 22.8,36.8 26.1,48.8 29.6,47.9 26.5,36.8 25.5,36.8 			"/>
			<g>
				<polygon class="st6" points="23.6,35.9 22.5,35.9 22.8,36.8 23.8,36.8 25.5,36.8 25.2,35.9 				"/>
				<path class="st6" d="M30.8,31.8h-24c-0.9,0-1.7,0.8-1.7,1.7v1.7c0,0.9,0.8,1.7,1.7,1.7h4.3h1h1.7l0.3-1h-1.7h-1H6.9
					c-0.4,0-0.7-0.3-0.7-0.7v-1.7c0-0.4,0.3-0.7,0.7-0.7h5.5h2.5h8.1h2.5h5.4c0.4,0,0.7,0.3,0.7,0.7v1.7c0,0.4-0.3,0.7-0.7,0.7h-4.6
					l0.3,1h4.3c0.9,0,1.7-0.8,1.7-1.7v-1.7C32.5,32.5,31.7,31.8,30.8,31.8z"/>
			</g>
			<polygon class="st6" points="25.2,35.9 25.5,36.8 26.5,36.8 26.2,35.9 			"/>
		</g>
		<g>
			<path class="st7" d="M47.9,43.5c0.8-0.8,0.9-2.1,0.1-2.9L28.7,19.8c-0.1-0.1-0.2-0.2-0.3-0.2l-6.1-3.8c-0.1-0.1-0.2,0-0.1,0.1
				l3.3,6.4c0.1,0.1,0.1,0.2,0.2,0.3L45,43.4C45.7,44.2,47,44.2,47.9,43.5z"/>
			<line class="st7" x1="45.7" y1="38.2" x2="42.8" y2="40.9"/>
			<line class="st8" x1="25.6" y1="17.8" x2="24" y2="19.3"/>
			<line class="st8" x1="47.4" y1="40.1" x2="44.5" y2="42.8"/>
			<line class="st8" x1="27.1" y1="21.1" x2="44.3" y2="39.5"/>
			<line class="st7" x1="28.6" y1="19.6" x2="25.7" y2="22.4"/>
		</g>
		<path class="st9" d="M16.2,13.4c0,0-4.2,1.8-2.2,3.7s6.2-0.7,5.8,2.1s-8.9,3.7-7.3,5.6s10.2-0.8,11,1c0.8,1.8-4.8,3-4.8,3"/>
	</g>
</g>
</svg>
