<svg xmlns="http://www.w3.org/2000/svg" id="Camada_3" version="1.1" viewBox="0 0 50 50"><defs><style>.st2{fill:none;stroke:#444;stroke-linecap:round;stroke-linejoin:round;stroke-width:.5px}</style></defs><path fill="#c3ff68" d="M1.76 36.48V15.07l3.36-2.14 20.67-.31 16.1 1.06.61 10.8 1.05 1.47.81-.44 1.92 1.93-1.16 2.09.56 1.69 2.43 1.05L9.29 46.74l-.39-2.5 6.94-.72 1.28-4.57-.76-.99-13.73.31-.87-1.79z"/><circle cx="38.26" cy="33.44" r="4.48" class="st2"/><path fill="none" fill-rule="evenodd" stroke="#444" stroke-linecap="round" stroke-linejoin="round" stroke-width=".5" d="M45.74 35.52a7.79 7.79 0 01-.72 1.74l1.26 2.28-1.93 1.93-2.28-1.26c-.55.31-1.13.55-1.74.72l-.72 2.5h-2.72l-.72-2.5a7.79 7.79 0 01-1.74-.72l-2.28 1.26-1.93-1.93 1.26-2.28a7.79 7.79 0 01-.72-1.74l-2.5-.72v-2.72l2.5-.72c.17-.61.41-1.19.72-1.74l-1.26-2.28 1.93-1.93 2.28 1.26a7.79 7.79 0 011.74-.72l.72-2.5h2.72l.72 2.5c.61.17 1.19.41 1.74.72l2.28-1.26 1.93 1.93-1.26 2.28c.31.55.55 1.13.72 1.74l2.5.72v2.72l-2.5.72z"/><path fill="none" fill-rule="evenodd" stroke="#444" stroke-linecap="round" stroke-linejoin="round" stroke-width="2.5" d="M39.85 13.46H5.11l-1.17.04a2.66 2.66 0 00-2.19 2.61v19.78c0 .08.03.16.05.24h-.04a2.66 2.66 0 002.64 2.41h13.24l-.84 4.91h-6.59c-.71 0-1.29.58-1.29 1.29v3.29h26.41v-3.29c0-.71-.58-1.29-1.29-1.29h-6.59l-.84-4.91h2.84l.72-1.3c-.12-.25-.22-.5-.32-.76l-1.21-.35h-1.53V31.2l2.75-.79c.09-.26.2-.51.32-.76l-1.38-2.5 3.18-3.18 2.5 1.38c.25-.12.5-.22.76-.32l.79-2.75h4.49l.79 2.75c.26.09.51.2.76.32l.44-.24v-8.99c0-1.46-1.19-2.65-2.65-2.65z"/><path d="M2.28 34.13h22.07" class="st2"/><path fill="#c3ff68" fill-rule="evenodd" stroke="#444" stroke-linecap="round" stroke-linejoin="round" d="M13.46 3.61h-2.41a.48.48 0 00-.48.48v1c0 .27.22.48.48.48h8.09c.27 0 .48-.22.48-.48v-1c0-.27-.22-.48-.49-.48h-2.41c-.29 0-.52-.23-.52-.52 0-.98-1.2-1.48-1.89-.78-.2.2-.32.48-.32.78 0 .29-.23.52-.52.52h0z"/><path fill="#c3ff68" stroke="#444" stroke-linecap="round" stroke-linejoin="round" d="M6.01 5.58h18.18v22.59H6.01z"/><path d="M10.59 24.12h-.51c-.22 0-.39-.18-.39-.39s.18-.39.39-.39h.51c.22 0 .39.18.39.39s-.18.39-.39.39zm0-2.41h-.51c-.22 0-.39-.18-.39-.39s.18-.39.39-.39h.51c.22 0 .39.18.39.39s-.18.39-.39.39zm0-2.4h-.51c-.22 0-.39-.18-.39-.39s.18-.39.39-.39h.51c.22 0 .39.18.39.39s-.18.39-.39.39zm9.52 4.81h-7.94c-.22 0-.39-.18-.39-.39s.18-.39.39-.39h7.94c.22 0 .39.18.39.39s-.18.39-.39.39zm0-2.41h-7.94c-.22 0-.39-.18-.39-.39s.18-.39.39-.39h7.94c.22 0 .39.18.39.39s-.18.39-.39.39zm0-2.4h-7.94c-.22 0-.39-.18-.39-.39s.18-.39.39-.39h7.94c.22 0 .39.18.39.39s-.18.39-.39.39zm-2.75-7.42c0-1.26-1.03-2.28-2.3-2.27s-2.22 1.04-2.23 2.25c0 .81.41 1.52 1.04 1.92.27.17.42.47.42.79v.31c0 .18.14.32.32.32h.98c.18 0 .32-.14.32-.32v-.31c0-.31.14-.61.4-.78.63-.4 1.05-1.11 1.05-1.91zm-2.84 3.87h1.24m-1.02.68h.8m.42-5.52s.81.76.1 1.84" class="st2"/></svg>