<?xml version="1.0" encoding="UTF-8"?>
<svg id="Camada_3" xmlns="http://www.w3.org/2000/svg" version="1.1" viewBox="0 0 50 50">
  <!-- Generator: Adobe Illustrator 29.7.1, SVG Export Plug-In . SVG Version: 2.1.1 Build 8)  -->
  <defs>
    <style>
      .st0 {
        stroke-width: 2.5px;
      }

      .st0, .st1, .st2 {
        fill: none;
      }

      .st0, .st1, .st2, .st3, .st4 {
        stroke: #444;
        stroke-linecap: round;
        stroke-linejoin: round;
      }

      .st0, .st1, .st3 {
        fill-rule: evenodd;
      }

      .st1, .st2 {
        stroke-width: .5px;
      }

      .st3, .st5, .st4 {
        fill: #c3ff68;
      }
    </style>
  </defs>
  <polygon class="st5" points="1.76 36.48 1.76 15.07 5.12 12.93 25.79 12.62 41.89 13.68 42.5 24.48 43.55 25.95 44.36 25.51 46.28 27.44 45.12 29.53 45.68 31.22 48.11 32.27 9.29 46.74 8.9 44.24 15.84 43.52 17.12 38.95 16.36 37.96 2.63 38.27 1.76 36.48"/>
  <g>
    <circle class="st2" cx="38.26" cy="33.44" r="4.48"/>
    <path class="st1" d="M45.74,35.52c-.17.61-.41,1.19-.72,1.74l1.26,2.28-1.93,1.93-2.28-1.26c-.55.31-1.13.55-1.74.72l-.72,2.5h-2.72l-.72-2.5c-.61-.17-1.19-.41-1.74-.72l-2.28,1.26-1.93-1.93,1.26-2.28c-.31-.55-.55-1.13-.72-1.74l-2.5-.72v-2.72l2.5-.72c.17-.61.41-1.19.72-1.74l-1.26-2.28,1.93-1.93,2.28,1.26c.55-.31,1.13-.55,1.74-.72l.72-2.5h2.72l.72,2.5c.61.17,1.19.41,1.74.72l2.28-1.26,1.93,1.93-1.26,2.28c.31.55.55,1.13.72,1.74l2.5.72v2.72l-2.5.72Z"/>
    <path class="st0" d="M39.85,13.46H5.11s-1.17.04-1.17.04c-1.25.22-2.19,1.32-2.19,2.61v19.78c0,.08.03.16.05.24h-.04c.12,1.35,1.27,2.41,2.64,2.41h13.24l-.84,4.91h-6.59c-.71,0-1.29.58-1.29,1.29v3.29h26.41v-3.29c0-.71-.58-1.29-1.29-1.29h-6.59l-.84-4.91h2.84l.72-1.3c-.12-.25-.22-.5-.32-.76l-1.21-.35h-1.53v-4.93l2.75-.79c.09-.26.2-.51.32-.76l-1.38-2.5,3.18-3.18,2.5,1.38c.25-.12.5-.22.76-.32l.79-2.75h4.49l.79,2.75c.26.09.51.2.76.32l.44-.24v-8.99c0-1.46-1.19-2.65-2.65-2.65Z"/>
  </g>
  <line class="st2" x1="2.28" y1="34.13" x2="24.35" y2="34.13"/>
  <path class="st3" d="M13.46,3.61h-2.41c-.27,0-.48.22-.48.48v1c0,.27.22.48.48.48h8.09c.27,0,.48-.22.48-.48v-1c0-.27-.22-.48-.49-.48h-2.41c-.29,0-.52-.23-.52-.52,0-.98-1.2-1.48-1.89-.78-.2.2-.32.48-.32.78,0,.29-.23.52-.52.52h0Z"/>
  <rect class="st4" x="6.01" y="5.58" width="18.18" height="22.59"/>
  <g>
    <g>
      <path class="st2" d="M10.59,24.12h-.51c-.22,0-.39-.18-.39-.39s.18-.39.39-.39h.51c.22,0,.39.18.39.39s-.18.39-.39.39Z"/>
      <path class="st2" d="M10.59,21.71h-.51c-.22,0-.39-.18-.39-.39s.18-.39.39-.39h.51c.22,0,.39.18.39.39s-.18.39-.39.39Z"/>
      <path class="st2" d="M10.59,19.31h-.51c-.22,0-.39-.18-.39-.39s.18-.39.39-.39h.51c.22,0,.39.18.39.39s-.18.39-.39.39Z"/>
      <path class="st2" d="M20.11,24.12h-7.94c-.22,0-.39-.18-.39-.39s.18-.39.39-.39h7.94c.22,0,.39.18.39.39s-.18.39-.39.39Z"/>
      <path class="st2" d="M20.11,21.71h-7.94c-.22,0-.39-.18-.39-.39s.18-.39.39-.39h7.94c.22,0,.39.18.39.39s-.18.39-.39.39Z"/>
      <path class="st2" d="M20.11,19.31h-7.94c-.22,0-.39-.18-.39-.39s.18-.39.39-.39h7.94c.22,0,.39.18.39.39s-.18.39-.39.39Z"/>
    </g>
    <g>
      <g>
        <path class="st2" d="M17.36,11.89c0-1.26-1.03-2.28-2.3-2.27s-2.22,1.04-2.23,2.25c0,.81.41,1.52,1.04,1.92.27.17.42.47.42.79v.31c0,.18.14.32.32.32h.98c.18,0,.32-.14.32-.32v-.31c0-.31.14-.61.4-.78.63-.4,1.05-1.11,1.05-1.91Z"/>
        <line class="st2" x1="14.52" y1="15.76" x2="15.76" y2="15.76"/>
        <line class="st2" x1="14.74" y1="16.44" x2="15.54" y2="16.44"/>
      </g>
      <path class="st2" d="M15.96,10.92s.81.76.1,1.84"/>
    </g>
  </g>
</svg>