<?xml version="1.0" encoding="utf-8"?>
<!-- Generator: Adobe Illustrator 26.5.0, SVG Export Plug-In . SVG Version: 6.00 Build 0)  -->
<svg version="1.1" id="Camada_3" xmlns="http://www.w3.org/2000/svg" xmlns:xlink="http://www.w3.org/1999/xlink" x="0px" y="0px"
	 viewBox="0 0 50 50" style="enable-background:new 0 0 50 50;" xml:space="preserve">
<style type="text/css">
	.st0{fill:#6FC5DE;}
	.st1{fill:#86CFED;}
	.st2{fill:#454444;}
	.st3{fill:none;stroke:#444444;stroke-width:0.25;stroke-linejoin:round;stroke-miterlimit:10;}
	.st4{fill:#444444;}
	.st5{fill:#444444;stroke:#444444;stroke-miterlimit:10;}
</style>
<path class="st0" d="M48.2,25c0-5.5-2-10.6-5.3-14.6L2.4,25.2C2.5,33.6,7,40.9,13.7,44.8l33.1-12.1C47.7,30.3,48.2,27.7,48.2,25z"/>
<path class="st1" d="M25.4,1.7C12.3,1.7,1.7,12.3,1.7,25.4c0,0.1,0,0.1,0,0.2l41.9-15.2C39.3,5.1,32.7,1.7,25.4,1.7z"/>
<path class="st2" d="M25.3,49.2C12,49.2,1.1,38.3,1.1,25S12,0.8,25.3,0.8S49.5,11.6,49.5,25c0,3.3-0.6,6.4-1.9,9.4
	c-0.3,0.6-1,0.9-1.6,0.7c-0.6-0.3-0.9-1-0.7-1.6c1.1-2.7,1.7-5.5,1.7-8.4c0-11.9-9.7-21.7-21.7-21.7S3.6,13.1,3.6,25
	s9.8,21.7,21.7,21.7c4.3,0,8.5-1.3,12.1-3.7c0.6-0.4,1.3-0.2,1.7,0.3c0.4,0.6,0.2,1.3-0.3,1.7C34.8,47.7,30.1,49.2,25.3,49.2z"/>
<line class="st3" x1="21.6" y1="16" x2="21.6" y2="11.9"/>
<path class="st4" d="M23.4,10.2c0,1-0.8,1.8-1.7,1.8c-1,0-1.7-0.8-1.7-1.8c0-1,0.8-1.8,1.7-1.8C22.6,8.4,23.4,9.2,23.4,10.2z"/>
<path class="st4" d="M36.7,11.8c0,1,0.8,1.8,1.7,1.8c1,0,1.7-0.8,1.7-1.8c0-1-0.8-1.8-1.7-1.8C37.5,10.1,36.7,10.8,36.7,11.8z"/>
<polyline class="st3" points="29,16 29,11.8 36.7,11.8 36.7,11.8 "/>
<line class="st3" x1="16.4" y1="28.7" x2="12.3" y2="28.7"/>
<path class="st4" d="M10.6,26.9c1,0,1.7,0.8,1.7,1.8c0,1-0.8,1.8-1.7,1.8s-1.7-0.8-1.7-1.8C8.8,27.7,9.6,26.9,10.6,26.9z"/>
<path class="st4" d="M12.2,13.6c1,0,1.7-0.8,1.7-1.8s-0.8-1.8-1.7-1.8s-1.7,0.8-1.7,1.8S11.2,13.6,12.2,13.6z"/>
<polyline class="st3" points="12.2,13.6 12.2,21.3 16.4,21.3 "/>
<line class="st3" x1="29" y1="38.1" x2="29" y2="34"/>
<path class="st4" d="M27.2,39.8c0-1,0.8-1.8,1.7-1.8c1,0,1.7,0.8,1.7,1.8c0,1-0.8,1.8-1.7,1.8C28,41.6,27.2,40.8,27.2,39.8z"/>
<path class="st4" d="M13.9,38.2c0-1-0.8-1.8-1.7-1.8s-1.7,0.8-1.7,1.8c0,1,0.8,1.8,1.7,1.8S13.9,39.2,13.9,38.2z"/>
<polyline class="st3" points="21.6,34 21.6,38.2 13.9,38.2 13.9,38.2 "/>
<line class="st3" x1="38.3" y1="21.3" x2="34.2" y2="21.3"/>
<path class="st4" d="M40,23.1c-1,0-1.7-0.8-1.7-1.8c0-1,0.8-1.8,1.7-1.8s1.7,0.8,1.7,1.8C41.8,22.3,41,23.1,40,23.1z"/>
<path class="st4" d="M38.4,36.4c-1,0-1.7,0.8-1.7,1.8c0,1,0.8,1.8,1.7,1.8c1,0,1.7-0.8,1.7-1.8C40.2,37.2,39.4,36.4,38.4,36.4z"/>
<polyline class="st3" points="34.2,28.7 38.4,28.7 38.4,36.4 "/>
<path class="st5" d="M37.8,25.7v-1.4c0-0.7-0.5-1.2-1.2-1.3c-0.8,0-1.8-0.1-2,0l-1.3-3.2c0.2-0.1,0.8-0.8,1.4-1.4
	c0.5-0.5,0.4-1.3,0-1.8l-1-1c-0.5-0.5-1.3-0.5-1.8,0c-0.6,0.6-1.3,1.2-1.4,1.4l-3.2-1.3c0-0.2,0-1.2,0-2c0-0.7-0.6-1.2-1.3-1.2h-1.4
	c-0.7,0-1.2,0.5-1.3,1.2c0,0.8-0.1,1.8,0,2L20.2,17c-0.1-0.2-0.8-0.8-1.4-1.4c-0.5-0.5-1.3-0.5-1.8,0l-1,1c-0.5,0.5-0.5,1.3,0,1.8
	c0.6,0.6,1.2,1.3,1.4,1.4L16,23c-0.2,0-1.1,0-2,0c-0.7,0-1.2,0.6-1.2,1.3v1.4c0,0.7,0.5,1.2,1.2,1.3c0.8,0,1.8,0.1,2,0l1.3,3.2
	c-0.2,0.1-0.8,0.8-1.4,1.4c-0.5,0.5-0.4,1.3,0,1.8l1,1c0.5,0.5,1.3,0.5,1.8,0c0.6-0.6,1.3-1.2,1.4-1.4l3.2,1.3c0,0.2,0,1.2,0,2
	c0,0.7,0.6,1.2,1.3,1.2H26c0.7,0,1.2-0.5,1.3-1.2c0-0.8,0.1-1.8,0-2l3.2-1.3c0.1,0.2,0.8,0.8,1.4,1.4c0.5,0.5,1.3,0.5,1.8,0l1-1
	c0.5-0.5,0.5-1.3,0-1.8c-0.6-0.6-1.2-1.3-1.4-1.4l1.3-3.2c0.2,0,1.1,0,2,0C37.2,27,37.8,26.4,37.8,25.7z M29.4,27.8
	c-2,3-6.3,3-8.3,0c-1.1-1.6-1.1-3.9,0-5.5c2-3,6.3-3,8.3,0C30.5,23.9,30.5,26.1,29.4,27.8z"/>
</svg>
