<svg xmlns="http://www.w3.org/2000/svg" viewBox="0 0 50 50"><defs><style>.cls-1,.cls-4,.cls-6{fill:none;}.cls-1{stroke:#494949;stroke-miterlimit:10;stroke-width:3.11px;}.cls-2{fill:#a6c1c2;}.cls-3{fill:#b9d7d9;}.cls-4,.cls-6{stroke:#444;stroke-linecap:round;stroke-linejoin:round;}.cls-4{stroke-width:2.5px;}.cls-5{fill:#494949;}</style></defs><g id="Layer_1" data-name="Layer 1"><rect class="cls-1" x="-50.54" y="-96.7" width="425.11" height="443.81"/><path class="cls-2" d="M46.9,25.9l.4,4.1L2.6,46.3l.2-8.7.4-4.9L47.7,16.5,47,20Z"/><path class="cls-3" d="M47.2,10l-.6,7.4L2.9,33.3V24l.4-4.3,44-16Z"/><path class="cls-4" d="M6.5,47.3H2.3V2.7H47.2V47.3H31.7"/><path class="cls-5" d="M12.6,11.3h6.2a.65.65,0,0,1,.6.6v6.2a.65.65,0,0,1-.6.6H12.6a.65.65,0,0,1-.6-.6V12C12,11.6,12.2,11.3,12.6,11.3Zm0,19.9h6.2a.65.65,0,0,1,.6.6V38a.65.65,0,0,1-.6.6H12.6A.65.65,0,0,1,12,38V31.8A.58.58,0,0,1,12.6,31.2Z"/><path class="cls-6" d="M23.2,15.1H37.4M23.2,24.8H37.4M23.2,34.9H37.4M12.6,25.2,15,27.5l4.4-5.4"/></g></svg>