<?xml version="1.0" encoding="utf-8"?>
<!-- Generator: Adobe Illustrator 25.2.0, SVG Export Plug-In . SVG Version: 6.00 Build 0)  -->
<svg version="1.1" id="Layer_1" xmlns="http://www.w3.org/2000/svg" xmlns:xlink="http://www.w3.org/1999/xlink" x="0px" y="0px"
	 viewBox="0 0 50 50" style="enable-background:new 0 0 50 50;" xml:space="preserve">
<style type="text/css">
	.st0{fill:#46B8B0;}
	.st1{fill:#4ECDC4;}
	.st2{fill:none;stroke:#444444;stroke-width:2.5;stroke-linecap:round;stroke-linejoin:round;stroke-miterlimit:10;}
	.st3{fill:#494949;}
	.st4{fill:none;stroke:#444444;stroke-linecap:round;stroke-linejoin:round;}
</style>
<path class="st0" d="M46.9,25.9l0.4,4.1L2.6,46.3l0.2-8.7l0.4-4.9l44.5-16.2L47,20L46.9,25.9z"/>
<path class="st1" d="M47.2,10l-0.6,7.4L2.9,33.3V24l0.4-4.3l44-16L47.2,10z"/>
<path class="st2" d="M6.5,47.3H2.3V2.7h44.9v44.6H31.7"/>
<path class="st3" d="M12.6,11.3h6.2c0.3,0,0.6,0.3,0.6,0.6v6.2c0,0.3-0.3,0.6-0.6,0.6h-6.2c-0.3,0-0.6-0.3-0.6-0.6V12
	C12,11.6,12.2,11.3,12.6,11.3z M12.6,31.2h6.2c0.3,0,0.6,0.3,0.6,0.6V38c0,0.3-0.3,0.6-0.6,0.6h-6.2c-0.3,0-0.6-0.3-0.6-0.6v-6.2
	C12,31.5,12.2,31.2,12.6,31.2z"/>
<path class="st4" d="M23.2,15.1h14.2 M23.2,24.8h14.2 M23.2,34.9h14.2 M12.6,25.2l2.4,2.3l4.4-5.4"/>
</svg>
