<?xml version="1.0" encoding="UTF-8"?>
<svg id="Camada_1" data-name="Camada 1" xmlns="http://www.w3.org/2000/svg" version="1.1" viewBox="0 0 50 50">
  <defs>
    <style>
      .cls-1 {
        fill: #35d3c3;
      }

      .cls-1, .cls-2 {
        stroke-width: 0px;
      }

      .cls-3, .cls-4, .cls-5 {
        fill: none;
        stroke: #444;
      }

      .cls-3, .cls-5 {
        stroke-miterlimit: 10;
      }

      .cls-4 {
        stroke-linecap: round;
        stroke-linejoin: round;
        stroke-width: 2.5px;
      }

      .cls-5 {
        stroke-width: .5px;
      }

      .cls-2 {
        fill: #7df4eb;
      }
    </style>
  </defs>
  <polygon class="cls-1" points="30.1 24.4 38 26.9 31.3 31.6 31.4 39.8 24.8 34.9 17 37.5 19.7 29.8 14.8 23.2 23 23.3 27.7 16.6 30.1 24.4"/>
  <g>
    <path class="cls-2" d="M47.8,12.9l-15.3-.5-1.9-8-8.4-1c-.7,0-4.2,2.8-4.4,3.5-.5,1.9-1.2,5.5-1.4,5.5-3.2,0-11.9-.4-15.1,1s-.3,12.4.5,12.6l1.5.4.3,18.9,12,.5,31-11c-.2-5.4-.8-8.8,1.6-8.5s.3-13.3-.5-13.3Z"/>
    <g>
      <g>
        <path class="cls-5" d="M20.2,10.2c0-2.3,1.6-4.2,3.7-4.2h2c2,0,3.7,1.9,3.7,4.2v3.2h-9.3v-3.2ZM4.1,26.4c.7.3,1.9.5,2.9.6,0,0,2,.3,2.7.3M40.1,27.2c2.2-.2,2.9-.3,5.5-.9M13.3,27.6c3.1.2,8.1.6,11.5.6s8.4-.3,11.5-.6"/>
        <path class="cls-4" d="M46.3,36.9v-10.7c1-.2,1.5-.4,1.5-.4.4-.1.7-.5.7-.9v-11.3c0-.5-.4-.9-.9-.9h-15.3v-3.3c0-3.4-2.8-6.2-6.2-6.2h-2.3c-3.4,0-6.2,2.8-6.2,6.2v3.3H2.1c-.5,0-.9.4-.9.9v11.3c0,.4.3.8.7.9,0,0,.5.2,1.5.4v18.6c0,.5.4.9.9.9h33.2"/>
        <path class="cls-3" d="M36.7,12.5h3.4v23.9c0,.9-.8,1.7-1.7,1.7h0c-.9,0-1.7-.8-1.7-1.7V12.5Z"/>
        <path class="cls-3" d="M9.9,12.5h3.4v24c0,.9-.8,1.7-1.7,1.7h0c-.9,0-1.7-.8-1.7-1.7V12.5Z"/>
      </g>
      <circle class="cls-3" cx="24.8" cy="21.7" r="3.3"/>
      <circle class="cls-3" cx="24.8" cy="33.2" r="1.8"/>
    </g>
  </g>
</svg>