<?xml version="1.0" encoding="utf-8"?>
<!-- Generator: Adobe Illustrator 28.2.0, SVG Export Plug-In . SVG Version: 6.00 Build 0)  -->
<svg version="1.1" id="Layer_1" xmlns="http://www.w3.org/2000/svg" xmlns:xlink="http://www.w3.org/1999/xlink" x="0px" y="0px"
	 viewBox="0 0 50 50" style="enable-background:new 0 0 50 50;" xml:space="preserve">
<style type="text/css">
	.st0{fill:#8256D8;}
	.st1{fill:#A475EF;}
	.st2{fill:none;stroke:#444444;stroke-width:2.5;stroke-linecap:round;stroke-linejoin:round;stroke-miterlimit:10;}
	.st3{fill:none;stroke:#444444;stroke-linecap:round;stroke-linejoin:round;stroke-miterlimit:10;}
	.st4{fill:none;stroke:#444444;stroke-linecap:round;stroke-miterlimit:10;}
	.st5{fill:none;stroke:#444444;stroke-width:0.5;stroke-linecap:round;stroke-miterlimit:10;}
</style>
<polygon class="st0" points="30.7,17.6 38.5,20 31.8,24.8 31.9,33 25.3,28.1 17.6,30.7 20.2,22.9 15.3,16.4 23.5,16.5 28.2,9.8 "/>
<g>
	<path class="st1" d="M45.6,12.7L40,9.1l-7.7-4.4l-6-2.8C23.1,1.9,4.9,10.8,4.9,14l-0.5,7.8l0.5,15.1l11.5,7.6l31-11
		C48.1,33,46.6,14.7,45.6,12.7z"/>
	<g>
		<g>
			<path class="st2" d="M30.9,46.8L28.7,48c-1.7,1-3.8,1-5.5,0l-15.6-9c-1.7-1-2.7-2.8-2.7-4.7v-18c0-2,1-3.8,2.7-4.7l15.6-9
				c1.7-1,3.8-1,5.5,0l15.6,9c1.7,1,2.7,2.8,2.7,4.7v18c0,2-1,3.8-2.7,4.7l-2.5,1.4"/>
		</g>
	</g>
	<g>
		<g>
			<path class="st3" d="M12.8,38.4c-1.9-0.8-3.2-2.7-3.2-4.9v-8.1c0-3,2.4-5.4,5.4-5.4h5.4c3,0,5.4,2.4,5.4,5.4v8.1
				c0,2.2-1.3,4-3.2,4.9"/>
			<circle class="st3" cx="17.7" cy="14.7" r="4"/>
			<line class="st3" x1="17.7" y1="36.2" x2="17.7" y2="44.7"/>
			<line class="st3" x1="22.1" y1="46.9" x2="23.1" y2="30.8"/>
			<line class="st3" x1="12.3" y1="30.8" x2="13" y2="41.6"/>
			<line class="st3" x1="12.3" y1="30.8" x2="12.3" y2="25.5"/>
			<line class="st3" x1="23.1" y1="30.8" x2="23.1" y2="25.5"/>
			<g>
				<circle class="st4" cx="40.1" cy="27.9" r="3.4"/>
				<line class="st5" x1="36.7" y1="27.9" x2="16.1" y2="27.9"/>
				<circle class="st4" cx="32.2" cy="13.8" r="3.4"/>
				<line class="st5" x1="19.7" y1="23.9" x2="30" y2="23.9"/>
				<line class="st5" x1="30" y1="23.9" x2="31.7" y2="17.6"/>
				<circle class="st4" cx="35.1" cy="37.5" r="3.4"/>
				<line class="st5" x1="17.9" y1="30.6" x2="28.2" y2="30.6"/>
				<line class="st5" x1="28.2" y1="30.6" x2="32.7" y2="35"/>
			</g>
		</g>
	</g>
</g>
</svg>
