<svg xmlns="http://www.w3.org/2000/svg" id="Layer_1" x="0" y="0" version="1.1" viewBox="0 0 50 50" xml:space="preserve"><style>.st2,.st4{fill:none;stroke:#444;stroke-linecap:round;stroke-linejoin:round;stroke-miterlimit:10}.st4{stroke-width:.5}</style><path fill="#04ad49" d="M27.4 14l7.9 2.5-6.7 4.7.1 8.2-6.6-4.9-7.8 2.6 2.7-7.7-4.9-6.6 8.2.1L25 6.2z"/><path fill="#22dd6d" d="M46.8 8.6l-.7-5.2-2.2-1.3-39.2-.4c-3.2 0-3.1 26.2-1.2 37.6h5.6l1.4 9.1 9-9.4 27-9.7c.7-.4 1.3-18.8.3-20.7z"/><path d="M21.3 29.9v-2.5c0-1.7-4.4-3.7-8-3.7-3.6 0-8 3-8 4.7v11.1" class="st2"/><path d="M26.9 39.6l4.7-9.4H18.5l-2.8 6.6h-5.6" class="st2"/><path fill="none" stroke="#444" stroke-linecap="round" stroke-linejoin="round" stroke-miterlimit="10" stroke-width="2.5" d="M46.6 31V4.7c0-1.8-1.5-3.2-3.4-3.2H6C4.1 1.5 2.6 3 2.6 4.7v31.6c0 1.8 1.5 3.2 3.4 3.2h3.4v7c0 1.5 2 2.2 3 1.1l7.2-8H35"/><path d="M14.8 10c1.7.7 2.8 2.3 2.8 4.3v1.9m-9.4 0v-1.9c0-2.1 1.1-3.7 2.8-4.3m1.9-2.2v2.6m-6.5 5.8h13.1m-10.3.1V19c0 2.2 1.6 3.7 3.7 3.7s3.7-1.5 3.7-3.7v-2.8" class="st2"/><path d="M35.5 16.3c0 2.2-1.8 4-4 4s-4-1.8-4-4 1.8-4 4-4 4 1.8 4 4z" class="st4"/><path d="M40.8 16.3c0-.7-.1-1.4-.3-2.1l2.6-1.5-2.7-4.6-2.6 1.5c-1.1-1-2.3-1.8-3.8-2.2v-3h-5.3v3c-1.4.4-2.7 1.2-3.7 2.2l-2.6-1.5-2.7 4.6 2.7 1.5c-.2.7-.2 1.4-.2 2.1 0 .7.1 1.5.3 2.2L19.8 20l2.7 4.6 2.7-1.5c1 1 2.3 1.7 3.7 2.1v3.1h5.3v-3.1c1.4-.4 2.7-1.2 3.7-2.1l2.6 1.5 2.7-4.6-2.6-1.5c.1-.7.2-1.4.2-2.2z" class="st4"/></svg>