<?xml version="1.0" encoding="utf-8"?>
<!-- Generator: Adobe Illustrator 28.2.0, SVG Export Plug-In . SVG Version: 6.00 Build 0)  -->
<svg version="1.1" id="Camada_1" xmlns="http://www.w3.org/2000/svg" xmlns:xlink="http://www.w3.org/1999/xlink" x="0px" y="0px"
	 viewBox="0 0 50 50" style="enable-background:new 0 0 50 50;" xml:space="preserve">
<style type="text/css">
	.st0{fill:#04AD49;}
	.st1{fill:#22DD6D;}
	.st2{fill:none;stroke:#444444;stroke-width:2.5;stroke-linecap:round;stroke-linejoin:round;stroke-miterlimit:10;}
	.st3{fill:none;stroke:#444444;stroke-linecap:round;stroke-linejoin:round;stroke-miterlimit:10;}
</style>
<g>
	<polygon class="st0" points="27.1,17.3 34.9,19.7 28.2,24.4 28.3,32.6 21.7,27.7 14,30.4 16.6,22.6 11.7,16 19.9,16.1 24.6,9.4 	
		"/>
	<g>
		<path class="st1" d="M44,12.4l-5.6-3.6l-7.7-4.4l-6-2.8c-3.2,0-21.5,8.9-21.5,12.1l-0.5,7.8l0.5,15.1l11.5,7.6l31-11
			C46.6,32.7,45,14.3,44,12.4z"/>
		<g>
			<g>
				<path class="st2" d="M29.3,46.4l-2.2,1.3c-1.7,1-3.8,1-5.5,0l-15.6-9c-1.7-1-2.7-2.8-2.7-4.7V16c0-2,1-3.8,2.7-4.7l15.6-9
					c1.7-1,3.8-1,5.5,0l15.6,9c1.7,1,2.7,2.8,2.7,4.7v18c0,2-1,3.8-2.7,4.7l-2.5,1.4"/>
			</g>
		</g>
		<g>
			<circle class="st3" cx="34" cy="14.1" r="3.9"/>
			<circle class="st3" cx="15.7" cy="14.3" r="3.9"/>
			<path class="st3" d="M30.9,23.5c0-1.3-1-2.3-2.3-2.3h-7.4c-1.3,0-2.3,1-2.3,2.3V33c0,1.3,1,2.3,2.3,2.3h0.1v7.8
				c0,1,0.8,1.7,1.7,1.7h3.8c1,0,1.7-0.8,1.7-1.7v-7.8h0.1c1.3,0,2.3-1,2.3-2.3V23.5z"/>
			<circle class="st3" cx="24.9" cy="16" r="4.4"/>
			<path class="st3" d="M19,18.9h-6.6c-1.1,0-2,0.9-2,2v8.5c0,1.1,0.9,2,2,2h0.1v6.9c0,0.9,0.7,1.5,1.5,1.5h3.4
				c0.9,0,1.5-0.7,1.5-1.5v-2.4"/>
			<path class="st3" d="M30.8,35.9v2.3c0,0.9,0.7,1.5,1.5,1.5h3.4c0.9,0,1.5-0.7,1.5-1.5v-6.9h0.1c1.1,0,2-0.9,2-2v-8.5
				c0-1.1-0.9-2-2-2h-6.6"/>
		</g>
	</g>
</g>
</svg>
