<?xml version="1.0" encoding="utf-8"?>
<!-- Generator: Adobe Illustrator 27.7.0, SVG Export Plug-In . SVG Version: 6.00 Build 0)  -->
<svg version="1.1" id="Camada_3" xmlns="http://www.w3.org/2000/svg" xmlns:xlink="http://www.w3.org/1999/xlink" x="0px" y="0px"
	 viewBox="0 0 50 50" style="enable-background:new 0 0 50 50;" xml:space="preserve">
<style type="text/css">
	.st0{fill:#FC9D9A;}
	.st1{fill:#444444;}
	.st2{fill:#444444;stroke:#444444;stroke-width:0.25;stroke-miterlimit:10;}
	.st3{fill:none;stroke:#444444;stroke-miterlimit:10;}
	.st4{fill:none;stroke:#444444;stroke-width:0.5;stroke-miterlimit:10;}
</style>
<path class="st0" d="M47.03,33.85v-9.56c0-11.93-9.28-22.09-21.2-22.52C13.31,1.33,3.02,11.35,3.02,23.77V37c0,0.01,0,2.03,0,2.04
	c0.02,4.31,4.14,6.31,8.37,7.79L47.03,33.85z"/>
<g>
	<path class="st1" d="M45.71,21.31c0.1,0.81,0.15,1.63,0.15,2.46v10.6c0,0.65,0.53,1.18,1.18,1.18c0.65,0,1.17-0.53,1.18-1.18v-10.6
		c0-12.78-10.4-23.18-23.18-23.18c-12.78,0-23.18,10.4-23.18,23.18v17.21c-0.01,1.88,1.13,3.57,2.88,4.27
		c4.03,1.61,12.02,4.32,20.3,4.32c3.39,0,7.08-0.46,10.94-1.37c0.63-0.15,1.02-0.78,0.88-1.41c-0.15-0.63-0.78-1.02-1.41-0.88
		c-3.69,0.87-7.19,1.3-10.41,1.3c-7.89,0-15.56-2.6-19.42-4.16c-0.85-0.34-1.41-1.17-1.4-2.09V23.77c0-0.83,0.05-1.65,0.15-2.46
		c0.09-2.01,0.61-3.1,0.61-3.1C7.4,9.41,15.47,2.94,25.03,2.94c9.56,0,17.63,6.48,20.07,15.27C45.1,18.21,45.63,19.49,45.71,21.31z"
		/>
	<circle class="st2" cx="35.7" cy="28.55" r="3.42"/>
	<circle class="st2" cx="14.36" cy="28.55" r="3.42"/>
	<path class="st3" d="M24.34,29.01l-2.96,2.21c-0.45,0.33-0.59,0.94-0.33,1.44l2.96,5.79c0.29,0.56,0.98,0.79,1.54,0.5
		c0.22-0.11,0.39-0.28,0.5-0.5l2.96-5.79c0.25-0.5,0.11-1.1-0.33-1.44l-2.96-2.21C25.31,28.71,24.75,28.71,24.34,29.01z"/>
</g>
<path class="st4" d="M4.17,18.66c0,0,7.34-8.49,20.01-0.79c0.58,0.35,1.27,0.41,1.81,0.01c2.64-1.96,12.78-6.7,19.9,0.78"/>
<path class="st4" d="M4.17,14.52c0,0,7.34-8.49,20.01-0.79c0.58,0.35,1.27,0.41,1.81,0.01c2.64-1.96,12.78-6.7,19.9,0.78"/>
</svg>
