<svg xmlns="http://www.w3.org/2000/svg" id="Camada_1" data-name="Camada 1" version="1.1" viewBox="0 0 50 50"><defs><style>.cls-1,.cls-2{stroke-linecap:round;stroke-linejoin:round;fill:none;stroke:#444}.cls-1{stroke-width:.5px}</style></defs><path fill="#319327" stroke-width="0" d="M28 14.1l7.9 2.5-6.7 4.7.1 8.2-6.6-4.9-7.8 2.6 2.7-7.7-4.9-6.6 8.2.1 4.7-6.7 2.4 7.8z"/><path fill="#5aba52" stroke-width="0" d="M45.4 5.9H4.3c-1.4 0-1.4 3.8-1.4 5.2L2.7 24l-.5 10.2L3.4 46l12.4.6 32.1-11.4V8.4c0-1.4-1.1-2.6-2.5-2.6z"/><path fill="none" stroke="#444" stroke-linecap="round" stroke-linejoin="round" stroke-width="2.5" d="M32.5 47.3h-27c-1.9 0-3.4-1.6-3.4-3.5v-35c0-1.9 1.5-3.5 3.4-3.5h39c1.9 0 3.4 1.6 3.4 3.5v28.5"/><path d="M41.5 18.8c-.4-1.2-1.5-2.4-2.8-2.4h-2.8m-23.6 0H9.4c-1.6 0-2.9 1.3-2.9 2.9v17.6h35.2V23.7" class="cls-1"/><path d="M12.3 16.4v20.2m23.4-12v-14h-1.4m1.4 26v-7.1m-18.3-1.3h7.3m1.5 0h2.9m-8.8 2.9h-2.9m8.8-5.9h-4.4m-1.5 0h-2.9m-5.1-8.8l5.8-5.8h8.1" class="cls-2"/><path d="M18.1 16.4h-5.8l5.8-5.8v5.8zm8.8 26.7h-5.8l-3 3.4h11.8l-3-3.4zm-11.7 3.4h17.6" class="cls-2"/><path fill="none" stroke="#444" stroke-miterlimit="10" stroke-width=".5" d="M6.4 37v2.9c0 1.6 1.3 2.9 2.9 2.9h29.3c1.6 0 2.9-1.3 2.9-2.9V37H6.4z"/><path d="M21.1 39.9h5.8" class="cls-2"/><path d="M28.2 8.5l1 1m2.1 2.1l1 1m0-4.1l-1 1m-2.1 2.1l-1 1" class="cls-1"/><circle cx="30.2" cy="20.8" r="1.5" class="cls-1"/><circle cx="24.4" cy="16.4" r=".7" class="cls-1"/><g><path d="M30.7 31.1h-8.9m13-1.1l10.4-10.3-2.1-2.1L32.8 28l-1.1 3.1 3.1-1.1z" class="cls-2"/><path d="M32.8 28l2 2m9.4-11.4L33.8 29m-1.2.2l1 1" class="cls-1"/></g></svg>