<?xml version="1.0" encoding="utf-8"?>
<!-- Generator: Adobe Illustrator 24.3.0, SVG Export Plug-In . SVG Version: 6.00 Build 0)  -->
<svg version="1.1" id="Layer_1" xmlns="http://www.w3.org/2000/svg" xmlns:xlink="http://www.w3.org/1999/xlink" x="0px" y="0px"
	 viewBox="0 0 50 50" style="enable-background:new 0 0 50 50;" xml:space="preserve">
<style type="text/css">
	.st0{fill:#E589EF;}
	.st1{fill:#F799FF;}
	.st2{fill:none;stroke:#444444;stroke-width:2.5;stroke-linecap:round;stroke-linejoin:round;stroke-miterlimit:10;}
	.st3{fill:#494949;}
	.st4{fill:none;stroke:#444444;stroke-linecap:round;stroke-linejoin:round;}
</style>
<g>
	<polygon class="st0" points="46.9,25.9 47.3,30 2.6,46.3 2.8,37.6 3.2,32.7 47.7,16.5 47,20 	"/>
	<polygon class="st1" points="47.2,10 46.6,17.4 2.9,33.3 2.9,24 3.3,19.7 47.3,3.7 	"/>
	<polyline class="st2" points="6.5,47.3 2.3,47.3 2.3,2.7 47.2,2.7 47.2,47.3 31.7,47.3 	"/>
	<path class="st3" d="M12.6,11.3h6.2c0.3,0,0.6,0.3,0.6,0.6v6.2c0,0.3-0.3,0.6-0.6,0.6h-6.2c-0.3,0-0.6-0.3-0.6-0.6V12
		C12,11.6,12.2,11.3,12.6,11.3z"/>
	<path class="st3" d="M12.6,31.2h6.2c0.3,0,0.6,0.3,0.6,0.6V38c0,0.3-0.3,0.6-0.6,0.6h-6.2c-0.3,0-0.6-0.3-0.6-0.6v-6.2
		C12,31.5,12.2,31.2,12.6,31.2z"/>
	<line class="st4" x1="23.2" y1="15.1" x2="37.4" y2="15.1"/>
	<line class="st4" x1="23.2" y1="24.8" x2="37.4" y2="24.8"/>
	<line class="st4" x1="23.2" y1="34.9" x2="37.4" y2="34.9"/>
	<polyline class="st4" points="12.6,25.2 15,27.5 19.4,22.1 	"/>
</g>
</svg>
