<svg xmlns="http://www.w3.org/2000/svg" id="Layer_1" x="0" y="0" version="1.1" viewBox="0 0 50 50" xml:space="preserve"><style>.st3{fill:#031326}</style><path fill="#fdcf72" d="M33.8 5.2c-3-1.7-6.6-2.6-10.4-2.2-6.6.7-11.9 5.1-14 11l24.4-8.8z"/><path fill="#a475ef" d="M16.1 34.3l.1.1v5.2l20.5-7.4C40 29.1 42 24.6 42 19.9c0-10-8.7-18-18.9-16.9C14.6 4 8.3 10.9 8 19.4c-.1 6.3 3.1 11.9 8.1 14.9z"/><path fill="#bf94f7" d="M33.5 5.2c-3-1.7-6.6-2.6-10.4-2.2-6.6.7-11.9 5.1-14 11 0 .1 24.4-8.8 24.4-8.8z"/><path d="M37.2 6.3c-3.9-3.5-9-5.1-14.2-4.5-9.2 1-16 8.4-16.2 17.6-.2 6.3 2.9 12.2 8.1 15.7v10.7c0 .9.5 1.7 1.3 2.2.4.2.8.3 1.2.3.5 0 .9-.1 1.3-.4l6.3-3.8 6.3 3.8c.8.5 1.7.5 2.5 0 .8-.4 1.3-1.3 1.3-2.2v-6.1c0-.7-.6-1.2-1.2-1.2s-1.2.6-1.2 1.2v6.1L25 41.3l-7.6 4.5V35.3c2.4 1.1 5 1.7 7.6 1.7 1 0 2.1-.1 3.1-.3.4-.1.7-.5.6-.9s-.5-.7-.9-.6c-.9.2-1.9.2-2.8.2-3 0-5.8-.8-8.3-2.3-4.8-3-7.6-8.1-7.4-13.8.2-7.9 6.1-14.3 13.9-15.2 4.5-.5 8.9.9 12.3 3.9 3.3 3 5.2 7.2 5.2 11.7 0 4.4-1.8 8.5-5 11.5-.5.5-.5 1.3 0 1.8s1.2.5 1.7.1c3.7-3.5 5.8-8.2 5.8-13.3s-2.2-10-6-13.5z" class="st3"/><path d="M25 7.1c-7 0-12.8 5.7-12.8 12.8 0 7 5.7 12.8 12.8 12.8 7 0 12.8-5.7 12.8-12.8S32 7.1 25 7.1zm0 24c-6.2 0-11.3-5-11.3-11.3S18.8 8.6 25 8.6s11.3 5 11.3 11.3S31.2 31.1 25 31.1z" class="st3"/><path d="M23.6 23.5c-.7 0-1.3-.2-1.9-.5-.5-.3-1-.7-1.3-1.3-.3-.5-.5-1.2-.5-1.9s.2-1.3.5-1.9c.3-.5.7-1 1.3-1.3.5-.3 1.2-.5 1.9-.5 1.1 0 2.1.4 2.8 1.3l1.7-1.5c-.5-.6-1.2-1.2-2-1.5s-1.7-.5-2.7-.5c-1.2 0-2.2.2-3.1.8-.9.5-1.7 1.2-2.2 2.1s-.8 1.9-.8 3 .3 2.1.8 3 1.3 1.6 2.2 2.1c.9.5 2 .7 3.1.7 1 0 1.9-.2 2.7-.5.8-.3 1.5-.8 2-1.5l-1.7-1.5c-.7 1-1.6 1.4-2.8 1.4z" class="st3"/><path d="M32.1 19.2h1.3v-1h-1.1l.2-1.4h-1l-.2 1.4H30l.2-1.4h-1l-.2 1.4h-1.3v1h1.1l-.2 1.4h-1.3v1h1.1V23h1l.2-1.4h1.3l-.2 1.4h1l.2-1.4h1.3v-1h-1.1c-.2 0 0-1.4 0-1.4zm-1.2 1.4h-1.3l.2-1.4h1.3l-.2 1.4z" class="st3"/></svg>