<svg xmlns="http://www.w3.org/2000/svg" id="Layer_1" x="0" y="0" version="1.1" viewBox="0 0 50 50" xml:space="preserve"><style>.st2{stroke-width:.5;stroke-linejoin:round;fill:none;stroke:#444;stroke-linecap:round;stroke-miterlimit:10}</style><path fill="#dc5e82" d="M45.1 12.4l-5.6-3.6-7.7-4.4-6-2.8c-3.2 0-21.5 8.9-21.5 12.1l-.5 7.8.5 15.1 11.5 7.6 31-11c.9-.5-.7-18.8-1.7-20.8z"/><path fill="none" stroke="#444" stroke-linecap="round" stroke-linejoin="round" stroke-miterlimit="10" stroke-width="2.5" d="M30.4 46.5l-2.2 1.3c-1.7 1-3.8 1-5.5 0l-15.6-9c-1.7-1-2.7-2.8-2.7-4.7V16c0-2 1-3.8 2.7-4.7l15.6-9c1.7-1 3.8-1 5.5 0l15.6 9c1.7 1 2.7 2.8 2.7 4.7v18c0 2-1 3.8-2.7 4.7l-2.5 1.4"/><path d="M32.6 28.2l.6-.9-.9-.6m1.9.6c2.8.3 5 2.7 5 5.6 0 .8-.2 1.6-.5 2.3" class="st2"/><path d="M28.5 35.2c-.3-.7-.5-1.5-.5-2.3 0-2.9 2.2-5.3 5-5.6m5.1 8.9c-1 1.4-2.7 2.3-4.5 2.3-1.9 0-3.5-.9-4.5-2.3m9.1-1.9l.5 1 1-.5" class="st2"/><path d="M30.1 36.2l-1.1-.1-.1 1.1m7.4-4.3c0-.4-.1-.8-.3-1.1l.7-.6-.7-.9-.8.5c-.3-.2-.6-.4-1-.5l-.1-.9H33l-.1.9c-.4.1-.7.3-1 .5l-.8-.5-.7.8.7.6c-.1.3-.2.7-.2 1.1l-.9.3.2 1.1.9-.1c.2.3.4.6.7.9l-.3.9 1 .5.5-.8c.2 0 .3.1.5.1s.4 0 .6-.1l.5.8 1-.5-.3-.9c.3-.2.5-.5.7-.9l.9.1.2-1.1-.8-.2zm-2.6 1.5c-.8 0-1.5-.6-1.5-1.5 0-.7.6-1.3 1.3-1.3.8 0 1.5.6 1.5 1.5 0 .7-.6 1.2-1.3 1.3z" class="st2"/><path fill="none" stroke="#444" stroke-linecap="round" stroke-miterlimit="10" d="M33.6 25.4V14.2c0-.4-.3-.7-.7-.7h-3.5m-10.1 0h-3.5c-.4 0-.7.3-.7.7v22c0 .4.3.7.7.7h11.4"/><path fill="none" stroke="#444" stroke-miterlimit="10" stroke-width=".5" d="M23.3 11.9h-3.4c-.2 0-.3.1-.3.3v2.7c0 .2.1.3.3.3h9c.2 0 .3-.1.3-.3v-2.7c0-.2-.1-.3-.3-.3h-3.4v-.7c0-.6-.5-1.1-1.1-1.1h0c-.6 0-1.1.5-1.1 1.1v.7z"/><path d="M18.1 18.5l1.2 1.1 2.5-2.4M18.1 23l1.2 1.1 2.5-2.4m-3.7 5.6l1.2 1.2 2.5-2.5m-3.7 5.9l1.2 1.1 2.5-2.4m2.5-12.2h6m-6 4.5h6m-6 4.4h3.9m-3.9 4.5h1.3" class="st2"/></svg>