<?xml version="1.0" encoding="utf-8"?>
<!-- Generator: Adobe Illustrator 28.3.0, SVG Export Plug-In . SVG Version: 6.00 Build 0)  -->
<svg version="1.1" id="Layer_1" xmlns="http://www.w3.org/2000/svg" xmlns:xlink="http://www.w3.org/1999/xlink" x="0px" y="0px"
	 viewBox="0 0 50 50" style="enable-background:new 0 0 50 50;" xml:space="preserve">
<style type="text/css">
	.st0{fill:#04AD49;}
	.st1{fill:#22DD6D;}
	.st2{fill:none;stroke:#444444;stroke-linecap:round;stroke-linejoin:round;stroke-miterlimit:10;}
	.st3{fill:none;stroke:#444444;stroke-width:2.5;stroke-linecap:round;stroke-linejoin:round;stroke-miterlimit:10;}
	.st4{fill:none;stroke:#444444;stroke-width:0.5;stroke-linecap:round;stroke-linejoin:round;stroke-miterlimit:10;}
</style>
<polygon class="st0" points="27.4,14 35.3,16.5 28.6,21.2 28.7,29.4 22.1,24.5 14.3,27.1 17,19.4 12.1,12.8 20.3,12.9 25,6.2 "/>
<g>
	<path class="st1" d="M46.8,8.6l-0.7-5.2l-2.2-1.3L4.7,1.7c-3.2,0-3.1,26.2-1.2,37.6h5.6l1.4,9.1l9-9.4l27-9.7
		C47.2,28.9,47.8,10.5,46.8,8.6z"/>
	<path class="st2" d="M21.3,29.9v-2.5c0-1.7-4.4-3.7-8-3.7c-3.6,0-8,3-8,4.7v11.1"/>
	<polyline class="st2" points="26.9,39.6 31.6,30.2 18.5,30.2 15.7,36.8 10.1,36.8 	"/>
	<path class="st3" d="M46.6,31V4.7c0-1.8-1.5-3.2-3.4-3.2H6c-1.9,0-3.4,1.5-3.4,3.2v31.6c0,1.8,1.5,3.2,3.4,3.2h3.4v7
		c0,1.5,2,2.2,3,1.1l7.2-8H35"/>
	<path class="st2" d="M14.8,10c1.7,0.7,2.8,2.3,2.8,4.3v1.9"/>
	<path class="st2" d="M8.2,16.2v-1.9c0-2.1,1.1-3.7,2.8-4.3"/>
	<line class="st2" x1="12.9" y1="7.8" x2="12.9" y2="10.4"/>
	<line class="st2" x1="6.4" y1="16.2" x2="19.5" y2="16.2"/>
	<path class="st2" d="M9.2,16.3V19c0,2.2,1.6,3.7,3.7,3.7s3.7-1.5,3.7-3.7v-2.8"/>
	<path class="st4" d="M35.5,16.3c0,2.2-1.8,4-4,4c-2.2,0-4-1.8-4-4c0-2.2,1.8-4,4-4C33.7,12.3,35.5,14.1,35.5,16.3z"/>
	<path class="st4" d="M40.8,16.3c0-0.7-0.1-1.4-0.3-2.1l2.6-1.5l-2.7-4.6l-2.6,1.5c-1.1-1-2.3-1.8-3.8-2.2v-3h-5.3v3
		c-1.4,0.4-2.7,1.2-3.7,2.2l-2.6-1.5l-2.7,4.6l2.7,1.5c-0.2,0.7-0.2,1.4-0.2,2.1c0,0.7,0.1,1.5,0.3,2.2L19.8,20l2.7,4.6l2.7-1.5
		c1,1,2.3,1.7,3.7,2.1v3.1h5.3v-3.1c1.4-0.4,2.7-1.2,3.7-2.1l2.6,1.5l2.7-4.6l-2.6-1.5C40.7,17.8,40.8,17.1,40.8,16.3z"/>
</g>
</svg>
