<?xml version="1.0" encoding="utf-8"?>
<!-- Generator: Adobe Illustrator 28.0.0, SVG Export Plug-In . SVG Version: 6.00 Build 0)  -->
<svg version="1.1" id="Layer_1" xmlns="http://www.w3.org/2000/svg" xmlns:xlink="http://www.w3.org/1999/xlink" x="0px" y="0px"
	 viewBox="0 0 50 50" style="enable-background:new 0 0 50 50;" xml:space="preserve">
<style type="text/css">
	.st0{fill:#DC5E82;}
	.st1{fill:none;stroke:#444444;stroke-width:2.5;stroke-linecap:round;stroke-linejoin:round;stroke-miterlimit:10;}
	.st2{fill:none;stroke:#444444;stroke-width:0.5;stroke-linecap:round;stroke-linejoin:round;stroke-miterlimit:10;}
	.st3{fill:none;stroke:#444444;stroke-linecap:round;stroke-miterlimit:10;}
	.st4{fill:none;stroke:#444444;stroke-width:0.5;stroke-miterlimit:10;}
</style>
<path class="st0" d="M45.1,12.4l-5.6-3.6l-7.7-4.4l-6-2.8c-3.2,0-21.5,8.9-21.5,12.1l-0.5,7.8l0.5,15.1l11.5,7.6l31-11
	C47.7,32.7,46.1,14.4,45.1,12.4z"/>
<g>
	<g>
		<path class="st1" d="M30.4,46.5l-2.2,1.3c-1.7,1-3.8,1-5.5,0l-15.6-9c-1.7-1-2.7-2.8-2.7-4.7V16c0-2,1-3.8,2.7-4.7l15.6-9
			c1.7-1,3.8-1,5.5,0l15.6,9c1.7,1,2.7,2.8,2.7,4.7v18c0,2-1,3.8-2.7,4.7l-2.5,1.4"/>
	</g>
</g>
<g>
	<polyline class="st2" points="32.6,28.2 33.2,27.3 32.3,26.7 	"/>
	<g>
		<path class="st2" d="M34.2,27.3c2.8,0.3,5,2.7,5,5.6c0,0.8-0.2,1.6-0.5,2.3"/>
		<path class="st2" d="M28.5,35.2c-0.3-0.7-0.5-1.5-0.5-2.3c0-2.9,2.2-5.3,5-5.6"/>
		<path class="st2" d="M38.1,36.2c-1,1.4-2.7,2.3-4.5,2.3c-1.9,0-3.5-0.9-4.5-2.3"/>
	</g>
	<polyline class="st2" points="38.2,34.3 38.7,35.3 39.7,34.8 	"/>
	<polyline class="st2" points="30.1,36.2 29,36.1 28.9,37.2 	"/>
	<g>
		<path class="st2" d="M36.3,32.9c0-0.4-0.1-0.8-0.3-1.1l0.7-0.6L36,30.3l-0.8,0.5c-0.3-0.2-0.6-0.4-1-0.5l-0.1-0.9H33l-0.1,0.9
			c-0.4,0.1-0.7,0.3-1,0.5l-0.8-0.5l-0.7,0.8l0.7,0.6c-0.1,0.3-0.2,0.7-0.2,1.1l-0.9,0.3l0.2,1.1l0.9-0.1c0.2,0.3,0.4,0.6,0.7,0.9
			l-0.3,0.9l1,0.5l0.5-0.8c0.2,0,0.3,0.1,0.5,0.1c0.2,0,0.4,0,0.6-0.1l0.5,0.8l1-0.5L35.3,35c0.3-0.2,0.5-0.5,0.7-0.9l0.9,0.1
			l0.2-1.1L36.3,32.9z M33.7,34.4c-0.8,0-1.5-0.6-1.5-1.5c0-0.7,0.6-1.3,1.3-1.3c0.8,0,1.5,0.6,1.5,1.5C35,33.8,34.4,34.3,33.7,34.4
			z"/>
	</g>
</g>
<path class="st3" d="M33.6,25.4V14.2c0-0.4-0.3-0.7-0.7-0.7h-3.5"/>
<path class="st3" d="M19.3,13.5h-3.5c-0.4,0-0.7,0.3-0.7,0.7v22c0,0.4,0.3,0.7,0.7,0.7h11.4"/>
<path class="st4" d="M23.3,11.9h-3.4c-0.2,0-0.3,0.1-0.3,0.3v2.7c0,0.2,0.1,0.3,0.3,0.3h9c0.2,0,0.3-0.1,0.3-0.3v-2.7
	c0-0.2-0.1-0.3-0.3-0.3h-3.4v-0.7c0-0.6-0.5-1.1-1.1-1.1h0c-0.6,0-1.1,0.5-1.1,1.1L23.3,11.9z"/>
<polyline class="st2" points="18.1,18.5 19.3,19.6 21.8,17.2 "/>
<polyline class="st2" points="18.1,23 19.3,24.1 21.8,21.7 "/>
<polyline class="st2" points="18.1,27.3 19.3,28.5 21.8,26 "/>
<polyline class="st2" points="18.1,31.9 19.3,33 21.8,30.6 "/>
<line class="st2" x1="24.3" y1="18.4" x2="30.3" y2="18.4"/>
<line class="st2" x1="24.3" y1="22.9" x2="30.3" y2="22.9"/>
<line class="st2" x1="24.3" y1="27.3" x2="28.2" y2="27.3"/>
<line class="st2" x1="24.3" y1="31.8" x2="25.6" y2="31.8"/>
</svg>
