<?xml version="1.0" encoding="utf-8"?>
<!-- Generator: Adobe Illustrator 24.0.0, SVG Export Plug-In . SVG Version: 6.00 Build 0)  -->
<svg version="1.1" id="Layer_1" xmlns="http://www.w3.org/2000/svg" xmlns:xlink="http://www.w3.org/1999/xlink" x="0px" y="0px"
	 viewBox="0 0 50 50" style="enable-background:new 0 0 50 50;" xml:space="preserve">
<style type="text/css">
	.st0{fill:#00C8E2;}
	.st1{fill:#00DFFC;}
	.st2{fill:none;stroke:#444444;stroke-width:2.5;stroke-linecap:round;stroke-linejoin:round;stroke-miterlimit:10;}
	.st3{fill:none;stroke:#444444;stroke-width:2;stroke-linecap:round;stroke-linejoin:round;stroke-miterlimit:10;}
</style>
<polygon class="st0" points="47.6,26.2 48,30.4 2,47.2 2.1,38.2 2.4,33 48.3,16.3 47.6,20 "/>
<polygon class="st1" points="47.6,9.7 47,17.3 2.1,33.7 2.1,24 2.4,19.6 47.7,3.1 "/>
<polyline class="st2" points="32.9,48 1.7,48 1.7,1.8 48.3,1.8 48.3,37.6 "/>
<g>
	<circle class="st3" cx="23.3" cy="24.6" r="12.6"/>
	<path class="st3" d="M35.7,26.4c-0.9,4.5-4.8,7.8-9.5,7.8c-5.4,0-9.8-4.3-9.8-9.7s4.3-9.8,9.7-9.8c5.1,0,9.2,3.8,9.8,8.7"/>
	<path class="st3" d="M42.4,34.6c-5.4,0.3-6.6-3.7-6.6-8.3"/>
</g>
</svg>
