<?xml version="1.0" encoding="utf-8"?>
<!-- Generator: Adobe Illustrator 28.0.0, SVG Export Plug-In . SVG Version: 6.00 Build 0)  -->
<svg version="1.1" id="Layer_1" xmlns="http://www.w3.org/2000/svg" xmlns:xlink="http://www.w3.org/1999/xlink" x="0px" y="0px"
	 viewBox="0 0 50 50" style="enable-background:new 0 0 50 50;" xml:space="preserve">
<style type="text/css">
	.st0{fill:#FF6B6B;}
	.st1{fill:none;stroke:#444444;stroke-width:0.5;stroke-linecap:round;stroke-linejoin:round;stroke-miterlimit:10;}
	.st2{fill:none;stroke:#444444;stroke-linecap:round;stroke-linejoin:round;stroke-miterlimit:10;}
	.st3{fill:none;stroke:#444444;stroke-width:2.5;stroke-linecap:round;stroke-linejoin:round;stroke-miterlimit:10;}
</style>
<path class="st0" d="M43.7,19.3c-0.1-0.7-0.3-9.3-0.8-9.8l-4.7-0.5L38,9l-8.2-3.3L25,1.6c-2.9,0-9.4,9.4-18.4,8.7v10.8v1.9L7,33.2
	c0.1,0.3,2.8,4.8,3.1,5l4.2,3.6L43,31.2C43.6,30.9,44.5,23.5,43.7,19.3z"/>
<g>
	<polygon class="st1" points="17.9,23.4 19.4,20.4 20.9,23.4 24.2,23.9 21.8,26.3 22.4,29.6 19.4,28 16.4,29.6 16.9,26.3 14.5,23.9 
			"/>
	<polygon class="st1" points="29.1,23.4 30.6,20.4 32.1,23.4 35.5,23.9 33.1,26.3 33.6,29.6 30.6,28 27.7,29.6 28.2,26.3 25.8,23.9 
			"/>
</g>
<path class="st2" d="M25,43.7c0,0,8.7-5.7,11.5-7.8c1.9-1.4,3-4.1,3-6.9V13.4C32.8,13.9,25,6.9,25,6.9l0,0v0c0,0-7.8,7-14.5,6.5V29
	c0,2.8,1.1,5.5,3,6.9C16.3,38,25,43.7,25,43.7L25,43.7L25,43.7"/>
<path class="st3" d="M38.4,39.3L25,48.4l-13.5-9.2c-3.1-2.1-4.9-5.5-4.9-9.2V9.4C15.3,12.1,25,1.6,25,1.6c9.5,10,18.4,7.8,18.4,7.8
	v21.2"/>
</svg>
