<svg xmlns="http://www.w3.org/2000/svg" id="Camada_1" x="0" y="0" version="1.1" viewBox="0 0 50 50" xml:space="preserve"><style>.st3{fill:none;stroke:#444;stroke-linecap:round;stroke-linejoin:round;stroke-miterlimit:10}</style><path fill="#04ad49" d="M27.1 17.3l7.8 2.4-6.7 4.7.1 8.2-6.6-4.9-7.7 2.7 2.6-7.8-4.9-6.6 8.2.1 4.7-6.7z"/><path fill="#22dd6d" d="M44 12.4l-5.6-3.6-7.7-4.4-6-2.8c-3.2 0-21.5 8.9-21.5 12.1l-.5 7.8.5 15.1 11.5 7.6 31-11c.9-.5-.7-18.9-1.7-20.8z"/><path fill="none" stroke="#444" stroke-linecap="round" stroke-linejoin="round" stroke-miterlimit="10" stroke-width="2.5" d="M29.3 46.4l-2.2 1.3c-1.7 1-3.8 1-5.5 0L6 38.7c-1.7-1-2.7-2.8-2.7-4.7V16c0-2 1-3.8 2.7-4.7l15.6-9c1.7-1 3.8-1 5.5 0l15.6 9c1.7 1 2.7 2.8 2.7 4.7v18c0 2-1 3.8-2.7 4.7l-2.5 1.4"/><circle cx="34" cy="14.1" r="3.9" class="st3"/><circle cx="15.7" cy="14.3" r="3.9" class="st3"/><path d="M30.9 23.5c0-1.3-1-2.3-2.3-2.3h-7.4c-1.3 0-2.3 1-2.3 2.3V33c0 1.3 1 2.3 2.3 2.3h.1v7.8c0 1 .8 1.7 1.7 1.7h3.8c1 0 1.7-.8 1.7-1.7v-7.8h.1c1.3 0 2.3-1 2.3-2.3v-9.5z" class="st3"/><circle cx="24.9" cy="16" r="4.4" class="st3"/><path d="M19 18.9h-6.6c-1.1 0-2 .9-2 2v8.5c0 1.1.9 2 2 2h.1v6.9c0 .9.7 1.5 1.5 1.5h3.4c.9 0 1.5-.7 1.5-1.5v-2.4m11.9 0v2.3c0 .9.7 1.5 1.5 1.5h3.4c.9 0 1.5-.7 1.5-1.5v-6.9h.1c1.1 0 2-.9 2-2v-8.5c0-1.1-.9-2-2-2h-6.6" class="st3"/></svg>