<svg xmlns="http://www.w3.org/2000/svg" id="Layer_1" x="0" y="0" version="1.1" viewBox="0 0 50 50" xml:space="preserve"><style>.st0{fill:#35d3c3}.st1{fill:#7df4eb}.st2{fill:none;stroke:#444;stroke-width:2.5;stroke-linecap:round;stroke-linejoin:round;stroke-miterlimit:10}.st3{stroke-width:.5}.st3,.st5{fill:none;stroke:#444;stroke-linecap:round;stroke-linejoin:round;stroke-miterlimit:10}</style><path d="M389.1 410.6l7.8 2.4-6.7 4.8.1 8.2-6.5-4.9-7.8 2.6 2.6-7.8-4.9-6.5 8.2.1 4.8-6.7zm25.7-2.1h12.7v12.2h-12.7z" class="st0"/><path d="M443.6 398.1l-5.6-3.6-7.7-4.4-6-2.8c-3.2 0-21.5 8.9-21.5 12.1l-.5 7.8.5 15.1 11.5 7.6 31-11c.9-.5-.7-18.8-1.7-20.8z" class="st1"/><path d="M428.9 432.2l-2.2 1.3c-1.7 1-3.8 1-5.5 0l-15.6-9c-1.7-1-2.7-2.8-2.7-4.7v-18c0-2 1-3.8 2.7-4.7l15.6-9c1.7-1 3.8-1 5.5 0l15.6 9c1.7 1 2.7 2.8 2.7 4.7v18c0 2-1 3.8-2.7 4.7l-2.5 1.4" class="st2"/><path d="M418.1 414.8l-.8-2.6m13.3 2.8c-.8.5-1.9 1.3-2.4 2.5-.8 1.7.1 2.6-.7 4-.9 1.7-3.2 2.3-4.7 2.3-.4 0-2.1 0-3.6-1.1-1.6-1.3-1.2-2.5-2.7-3.6-1.2-.8-3.1-1.3-4.3-.3-.9.7-.9 1.9-.9 2 0 1.6 1.6 3.1 3.3 3.2 1.8.2 3.1-1.1 3.3-1.3" class="st3"/><path d="M419.2 421c.2-.7.4-1.9.1-3.3-.1-.6-.3-1.1-.5-1.5" class="st3"/><path fill="none" stroke="#444" stroke-linejoin="round" stroke-miterlimit="10" d="M434.9 404.5c-1.3 1.6-2.2 2.9-2.9 3.9-.5.8-.7 1.3-.9 1.8-.5 1.3-.5 2.5-.5 3.3.1.1.2.3.5.4.3.1.5.1.7.1.6-.5 1.5-1.3 2.1-2.5.3-.5.5-1 .8-1.9.4-1.1.8-2.7 1.1-4.7"/><path d="M439.1 400.7c-.4-.2-1.4-.4-2.5-.1-.3.1-2.5.7-2.6 2.2-.1.8.3 1.7 1.1 2.1.2.1.8.5 1.6.2.7-.2 1-.9 1.1-1 .3-.7 0-1.1.1-1.8 0-.4.3-1 1.2-1.6zm-19.6 14l-1.9-5c-.3-.8-.9-1.4-1.6-1.8-.1 0-.3.7-.4 1.2-.1.6 0 1 .1 1.2.2.9.6 2.7 1.3 5.2" class="st5"/><path d="M413.9 414.4c.9.8 1.7 1 2 1.1 1.1.3 2 .1 2.4-.1.5-.2 1.3-.5 2-1.3.2-.2.7-.9 1-2 .9-3.2-.5-6.6-.7-7.1-.8-1.9-1.8-4.2-4-4.8-1.2-.4-2.4-.1-3.1.1-.7.2-1.8.6-2.6 1.6-1.4 1.8-1 4.1-.5 6.2.2.5 1 4.2 3.5 6.3z" class="st5"/><path d="M21.6 16.8l7.9 2.4-6.7 4.8.1 8.2-6.6-4.9-7.8 2.6 2.6-7.8-4.9-6.6 8.2.1 4.8-6.7z" class="st0"/><path d="M47.5 6.1l-6.9-1.6-7.9.5H19.3C16.1 5 2.2 3.3 2.2 6.5l-.5 11 .5 20.9 14.9.6 31-11c.8-.5.4-19.9-.6-21.9z" class="st1"/><path d="M9.2 36.8h5.6v7.4H9.2z" class="st1"/><path fill="none" stroke="#444" stroke-linecap="round" stroke-linejoin="round" stroke-miterlimit="10" stroke-width="2.276" d="M36.1 39.1H15.3"/><path d="M8.4 39.2H4.7c-1.7 0-3.1-1.4-3.1-3.1v-28C1.7 6.4 3 5 4.7 5h40.5c1.7 0 3.1 1.4 3.1 3.1l.1 23.3m-33.1 7.8v6.5l-3.4-2.3-3.4 2.3v-6.5" class="st2"/><path d="M17.6 21.9h14.8M21 24.7h8" class="st3"/><path d="M9.2 40v-5m5.4 5.1v-5m-2.4-9.4c-.4-.1-.7 0-1 .2-.3.2-.5.5-.9.6-.4.2-.8.2-1.3.2-.4.1-.9.2-1.1.5-.3.5-.1 1.2-.3 1.8-.2.6-1 1-.9 1.6 0 .5.5.9.8 1.3.2.4.2.9.3 1.4.1.5.3 1 .7 1.1.4.2.9 0 1.3.1s.8.4 1.1.7c.3.3.8.6 1.2.5.6-.1 1-.7 1.5-.9.4-.2.8-.2 1.3-.3.4-.1.9-.3 1-.7.2-.4 0-.8.1-1.3.1-.4.4-.8.7-1.1.3-.3.6-.8.5-1.2-.1-.6-.7-.9-.9-1.4-.2-.6.1-1.2-.2-1.7-.2-.3-.6-.4-1-.4s-.7 0-1.1-.1c-.7-.1-1.1-.8-1.8-.9z" class="st5"/><path d="M12.1 28.2c1.1.1 2.1 1 2.3 2 .3 1.1-.2 2.3-1.2 2.9-.9.6-2.2.5-3.1-.2-.9-.7-1.2-2-.8-3 .5-1 1.6-1.8 2.8-1.7zM6.2 13.4v-3.2c0-.4.3-.7.7-.7h3.6m29.5.1h3.2c.4 0 .7.3.7.7v3.6M10.9 13.7h28.2v4H10.9zM29 31.2c.8-.9 1.8-1.7 2.9-2.3.1-.1.3-.2.5-.1.3 0 .4.4.4.7 0 .3-.2.5-.3.8-.1.3-.1.6.1.8.3.3.8 0 1.1-.3s.7-1 1-.6c.1.2-.2.6 0 .8.3.3.6.2.8.1.3-.1.5-.3.7-.5-.2.4.2.8.7.9.4 0 .8-.2 1.2-.4m-9.5 2h9.8m1 0h3.3" class="st3"/></svg>