<?xml version="1.0" encoding="utf-8"?>
<!-- Generator: Adobe Illustrator 28.0.0, SVG Export Plug-In . SVG Version: 6.00 Build 0)  -->
<svg version="1.1" id="Layer_1" xmlns="http://www.w3.org/2000/svg" xmlns:xlink="http://www.w3.org/1999/xlink" x="0px" y="0px"
	 viewBox="0 0 50 50" style="enable-background:new 0 0 50 50;" xml:space="preserve">
<style type="text/css">
	.st0{fill:#35D3C3;}
	.st1{fill:#7DF4EB;}
	.st2{fill:none;stroke:#444444;stroke-width:2.5;stroke-linecap:round;stroke-linejoin:round;stroke-miterlimit:10;}
	.st3{fill:none;stroke:#444444;stroke-width:0.5;stroke-linecap:round;stroke-linejoin:round;stroke-miterlimit:10;}
	.st4{fill:none;stroke:#444444;stroke-linejoin:round;stroke-miterlimit:10;}
	.st5{fill:none;stroke:#444444;stroke-linecap:round;stroke-linejoin:round;stroke-miterlimit:10;}
	.st6{fill:none;stroke:#444444;stroke-width:2.2763;stroke-linecap:round;stroke-linejoin:round;stroke-miterlimit:10;}
</style>
<polygon class="st0" points="389.1,410.6 396.9,413 390.2,417.8 390.3,426 383.8,421.1 376,423.7 378.6,415.9 373.7,409.4 
	381.9,409.5 386.7,402.8 "/>
<g>
	<rect x="414.8" y="408.5" class="st0" width="12.7" height="12.2"/>
	<g>
		<path class="st1" d="M443.6,398.1l-5.6-3.6l-7.7-4.4l-6-2.8c-3.2,0-21.5,8.9-21.5,12.1l-0.5,7.8l0.5,15.1l11.5,7.6l31-11
			C446.2,418.4,444.6,400.1,443.6,398.1z"/>
		<g>
			<g>
				<path class="st2" d="M428.9,432.2l-2.2,1.3c-1.7,1-3.8,1-5.5,0l-15.6-9c-1.7-1-2.7-2.8-2.7-4.7v-18c0-2,1-3.8,2.7-4.7l15.6-9
					c1.7-1,3.8-1,5.5,0l15.6,9c1.7,1,2.7,2.8,2.7,4.7v18c0,2-1,3.8-2.7,4.7l-2.5,1.4"/>
			</g>
		</g>
		<g>
			<line class="st3" x1="418.1" y1="414.8" x2="417.3" y2="412.2"/>
			<path class="st3" d="M430.6,415c-0.8,0.5-1.9,1.3-2.4,2.5c-0.8,1.7,0.1,2.6-0.7,4c-0.9,1.7-3.2,2.3-4.7,2.3c-0.4,0-2.1,0-3.6-1.1
				c-1.6-1.3-1.2-2.5-2.7-3.6c-1.2-0.8-3.1-1.3-4.3-0.3c-0.9,0.7-0.9,1.9-0.9,2c0,1.6,1.6,3.1,3.3,3.2c1.8,0.2,3.1-1.1,3.3-1.3"/>
			<path class="st3" d="M419.2,421c0.2-0.7,0.4-1.9,0.1-3.3c-0.1-0.6-0.3-1.1-0.5-1.5"/>
			<path class="st4" d="M434.9,404.5c-1.3,1.6-2.2,2.9-2.9,3.9c-0.5,0.8-0.7,1.3-0.9,1.8c-0.5,1.3-0.5,2.5-0.5,3.3
				c0.1,0.1,0.2,0.3,0.5,0.4c0.3,0.1,0.5,0.1,0.7,0.1c0.6-0.5,1.5-1.3,2.1-2.5c0.3-0.5,0.5-1,0.8-1.9c0.4-1.1,0.8-2.7,1.1-4.7"/>
			<path class="st5" d="M439.1,400.7c-0.4-0.2-1.4-0.4-2.5-0.1c-0.3,0.1-2.5,0.7-2.6,2.2c-0.1,0.8,0.3,1.7,1.1,2.1
				c0.2,0.1,0.8,0.5,1.6,0.2c0.7-0.2,1-0.9,1.1-1c0.3-0.7,0-1.1,0.1-1.8C437.9,401.9,438.2,401.3,439.1,400.7z"/>
			<path class="st5" d="M419.5,414.7l-1.9-5c-0.3-0.8-0.9-1.4-1.6-1.8h0c-0.1,0-0.3,0.7-0.4,1.2c-0.1,0.6,0,1,0.1,1.2
				c0.2,0.9,0.6,2.7,1.3,5.2"/>
			<path class="st5" d="M410.4,404"/>
			<path class="st5" d="M413.9,414.4c0.9,0.8,1.7,1,2,1.1c1.1,0.3,2,0.1,2.4-0.1c0.5-0.2,1.3-0.5,2-1.3c0.2-0.2,0.7-0.9,1-2
				c0.9-3.2-0.5-6.6-0.7-7.1c-0.8-1.9-1.8-4.2-4-4.8c-1.2-0.4-2.4-0.1-3.1,0.1c-0.7,0.2-1.8,0.6-2.6,1.6c-1.4,1.8-1,4.1-0.5,6.2
				C410.6,408.6,411.4,412.3,413.9,414.4z"/>
		</g>
	</g>
</g>
<polygon class="st0" points="21.6,16.8 29.5,19.2 22.8,24 22.9,32.2 16.3,27.3 8.5,29.9 11.1,22.1 6.2,15.5 14.4,15.6 19.2,8.9 "/>
<g>
	<path class="st1" d="M47.5,6.1l-6.9-1.6L32.7,5H19.3C16.1,5,2.2,3.3,2.2,6.5l-0.5,11l0.5,20.9L17.1,39l31-11
		C48.9,27.5,48.5,8.1,47.5,6.1z"/>
	<rect x="9.2" y="36.8" class="st1" width="5.6" height="7.4"/>
</g>
<line class="st6" x1="36.1" y1="39.1" x2="15.3" y2="39.1"/>
<path class="st2" d="M8.4,39.2H4.7c-1.7,0-3.1-1.4-3.1-3.1v-28C1.7,6.4,3,5,4.7,5h40.5c1.7,0,3.1,1.4,3.1,3.1l0.1,23.3"/>
<polyline class="st2" points="15.3,39.2 15.3,45.7 11.9,43.4 8.5,45.7 8.5,39.2 "/>
<line class="st3" x1="17.6" y1="21.9" x2="32.4" y2="21.9"/>
<line class="st3" x1="21" y1="24.7" x2="29" y2="24.7"/>
<line class="st5" x1="9.2" y1="40" x2="9.2" y2="35"/>
<line class="st5" x1="14.6" y1="40.1" x2="14.6" y2="35.1"/>
<path class="st5" d="M12.2,25.7c-0.4-0.1-0.7,0-1,0.2c-0.3,0.2-0.5,0.5-0.9,0.6c-0.4,0.2-0.8,0.2-1.3,0.2c-0.4,0.1-0.9,0.2-1.1,0.5
	c-0.3,0.5-0.1,1.2-0.3,1.8c-0.2,0.6-1,1-0.9,1.6c0,0.5,0.5,0.9,0.8,1.3c0.2,0.4,0.2,0.9,0.3,1.4c0.1,0.5,0.3,1,0.7,1.1
	c0.4,0.2,0.9,0,1.3,0.1c0.4,0.1,0.8,0.4,1.1,0.7c0.3,0.3,0.8,0.6,1.2,0.5c0.6-0.1,1-0.7,1.5-0.9c0.4-0.2,0.8-0.2,1.3-0.3
	c0.4-0.1,0.9-0.3,1-0.7c0.2-0.4,0-0.8,0.1-1.3c0.1-0.4,0.4-0.8,0.7-1.1c0.3-0.3,0.6-0.8,0.5-1.2c-0.1-0.6-0.7-0.9-0.9-1.4
	c-0.2-0.6,0.1-1.2-0.2-1.7c-0.2-0.3-0.6-0.4-1-0.4c-0.4,0-0.7,0-1.1-0.1C13.3,26.5,12.9,25.8,12.2,25.7z"/>
<path class="st3" d="M12.1,28.2c1.1,0.1,2.1,1,2.3,2c0.3,1.1-0.2,2.3-1.2,2.9c-0.9,0.6-2.2,0.5-3.1-0.2c-0.9-0.7-1.2-2-0.8-3
	C9.8,28.9,10.9,28.1,12.1,28.2z"/>
<g>
	<g>
		<path class="st3" d="M6.2,13.4v-3.2c0-0.4,0.3-0.7,0.7-0.7h3.6"/>
	</g>
	<g>
		<path class="st3" d="M40,9.6h3.2c0.4,0,0.7,0.3,0.7,0.7v3.6"/>
	</g>
</g>
<rect x="10.9" y="13.7" class="st3" width="28.2" height="4"/>
<path class="st3" d="M29,31.2c0.8-0.9,1.8-1.7,2.9-2.3c0.1-0.1,0.3-0.2,0.5-0.1c0.3,0,0.4,0.4,0.4,0.7c0,0.3-0.2,0.5-0.3,0.8
	c-0.1,0.3-0.1,0.6,0.1,0.8c0.3,0.3,0.8,0,1.1-0.3s0.7-1,1-0.6c0.1,0.2-0.2,0.6,0,0.8c0.3,0.3,0.6,0.2,0.8,0.1
	c0.3-0.1,0.5-0.3,0.7-0.5c-0.2,0.4,0.2,0.8,0.7,0.9c0.4,0,0.8-0.2,1.2-0.4"/>
<line class="st3" x1="28.6" y1="33.1" x2="38.4" y2="33.1"/>
<line class="st3" x1="39.4" y1="33.1" x2="42.7" y2="33.1"/>
</svg>
