<?xml version="1.0" encoding="UTF-8"?>
<svg id="Camada_1" data-name="Camada 1" xmlns="http://www.w3.org/2000/svg" version="1.1" viewBox="0 0 50 50">
  <defs>
    <style>
      .cls-1, .cls-2, .cls-3 {
        stroke-linecap: round;
        stroke-linejoin: round;
      }

      .cls-1, .cls-2, .cls-3, .cls-4 {
        fill: none;
        stroke: #444;
      }

      .cls-1, .cls-4 {
        stroke-width: .5px;
      }

      .cls-5 {
        fill: #5aba52;
      }

      .cls-5, .cls-6 {
        stroke-width: 0px;
      }

      .cls-6 {
        fill: #319327;
      }

      .cls-3 {
        stroke-width: 2.5px;
      }

      .cls-4 {
        stroke-miterlimit: 10;
      }
    </style>
  </defs>
  <polygon class="cls-6" points="28 14.1 35.9 16.6 29.2 21.3 29.3 29.5 22.7 24.6 14.9 27.2 17.6 19.5 12.7 12.9 20.9 13 25.6 6.3 28 14.1"/>
  <g>
    <path class="cls-5" d="M45.4,5.9H4.3c-1.4,0-1.4,3.8-1.4,5.2l-.2,12.9-.5,10.2,1.2,11.8,12.4.6,32.1-11.4V8.4h0c0-1.4-1.1-2.6-2.5-2.6Z"/>
    <path class="cls-3" d="M32.5,47.3H5.5c-1.9,0-3.4-1.6-3.4-3.5V8.8c0-1.9,1.5-3.5,3.4-3.5h39c1.9,0,3.4,1.6,3.4,3.5v28.5"/>
    <g>
      <path class="cls-1" d="M41.5,18.8c-.4-1.2-1.5-2.4-2.8-2.4h-2.8"/>
      <path class="cls-1" d="M12.3,16.4h-2.9c-1.6,0-2.9,1.3-2.9,2.9v17.6h35.2v-13.2"/>
      <g>
        <line class="cls-2" x1="12.3" y1="16.4" x2="12.3" y2="36.6"/>
        <polyline class="cls-2" points="35.7 24.6 35.7 10.6 34.3 10.6"/>
        <line class="cls-2" x1="35.7" y1="36.6" x2="35.7" y2="29.5"/>
        <g>
          <g>
            <line class="cls-2" x1="17.4" y1="28.2" x2="24.7" y2="28.2"/>
            <line class="cls-2" x1="26.2" y1="28.2" x2="29.1" y2="28.2"/>
          </g>
          <line class="cls-2" x1="20.3" y1="31.1" x2="17.4" y2="31.1"/>
          <g>
            <line class="cls-2" x1="26.2" y1="25.2" x2="21.8" y2="25.2"/>
            <line class="cls-2" x1="20.3" y1="25.2" x2="17.4" y2="25.2"/>
          </g>
        </g>
        <polyline class="cls-2" points="12.3 16.4 18.1 10.6 26.2 10.6"/>
        <polygon class="cls-2" points="18.1 16.4 12.3 16.4 18.1 10.6 18.1 16.4"/>
      </g>
      <polygon class="cls-2" points="26.9 43.1 21.1 43.1 18.1 46.5 29.9 46.5 26.9 43.1"/>
      <line class="cls-2" x1="15.2" y1="46.5" x2="32.8" y2="46.5"/>
      <path class="cls-4" d="M6.4,37v2.9c0,1.6,1.3,2.9,2.9,2.9h29.3c1.6,0,2.9-1.3,2.9-2.9v-2.9H6.4Z"/>
      <line class="cls-2" x1="21.1" y1="39.9" x2="26.9" y2="39.9"/>
      <g>
        <g>
          <line class="cls-1" x1="28.2" y1="8.5" x2="29.2" y2="9.5"/>
          <line class="cls-1" x1="31.3" y1="11.6" x2="32.3" y2="12.6"/>
          <line class="cls-1" x1="32.3" y1="8.5" x2="31.3" y2="9.5"/>
          <line class="cls-1" x1="29.2" y1="11.6" x2="28.2" y2="12.6"/>
        </g>
        <circle class="cls-1" cx="30.2" cy="20.8" r="1.5"/>
        <circle class="cls-1" cx="24.4" cy="16.4" r=".7"/>
      </g>
      <g>
        <line class="cls-2" x1="30.7" y1="31.1" x2="21.8" y2="31.1"/>
        <polygon class="cls-2" points="34.8 30 45.2 19.7 43.1 17.6 32.8 28 31.7 31.1 34.8 30"/>
        <line class="cls-1" x1="32.8" y1="28" x2="34.8" y2="30"/>
        <line class="cls-1" x1="44.2" y1="18.6" x2="33.8" y2="29"/>
        <line class="cls-1" x1="32.6" y1="29.2" x2="33.6" y2="30.2"/>
      </g>
      <path class="cls-2" d="M21.8,31.1"/>
      <path class="cls-2" d="M31.7,31.1"/>
    </g>
  </g>
</svg>