<svg xmlns="http://www.w3.org/2000/svg" id="Layer_1" x="0" y="0" version="1.1" viewBox="0 0 50 50" xml:space="preserve"><style>.st3{stroke-linejoin:round}.st3,.st4,.st5{fill:none;stroke:#444;stroke-linecap:round;stroke-miterlimit:10}.st5{stroke-width:.5}</style><path fill="#8256d8" d="M30.7 17.6l7.8 2.4-6.7 4.8.1 8.2-6.6-4.9-7.7 2.6 2.6-7.8-4.9-6.5 8.2.1 4.7-6.7z"/><path fill="#a475ef" d="M45.6 12.7L40 9.1l-7.7-4.4-6-2.8C23.1 1.9 4.9 10.8 4.9 14l-.5 7.8.5 15.1 11.5 7.6 31-11c.7-.5-.8-18.8-1.8-20.8z"/><path fill="none" stroke="#444" stroke-linecap="round" stroke-linejoin="round" stroke-miterlimit="10" stroke-width="2.5" d="M30.9 46.8L28.7 48c-1.7 1-3.8 1-5.5 0L7.6 39c-1.7-1-2.7-2.8-2.7-4.7v-18c0-2 1-3.8 2.7-4.7l15.6-9c1.7-1 3.8-1 5.5 0l15.6 9c1.7 1 2.7 2.8 2.7 4.7v18c0 2-1 3.8-2.7 4.7l-2.5 1.4"/><path d="M12.8 38.4c-1.9-.8-3.2-2.7-3.2-4.9v-8.1c0-3 2.4-5.4 5.4-5.4h5.4c3 0 5.4 2.4 5.4 5.4v8.1c0 2.2-1.3 4-3.2 4.9" class="st3"/><circle cx="17.7" cy="14.7" r="4" class="st3"/><path d="M17.7 36.2v8.5m4.4 2.2l1-16.1m-10.8 0l.7 10.8m-.7-10.8v-5.3m10.8 5.3v-5.3" class="st3"/><circle cx="40.1" cy="27.9" r="3.4" class="st4"/><path d="M36.7 27.9H16.1" class="st5"/><circle cx="32.2" cy="13.8" r="3.4" class="st4"/><path d="M19.7 23.9H30m0 0l1.7-6.3" class="st5"/><circle cx="35.1" cy="37.5" r="3.4" class="st4"/><path d="M17.9 30.6h10.3m0 0l4.5 4.4" class="st5"/></svg>