<svg xmlns="http://www.w3.org/2000/svg" id="Layer_1" x="0" y="0" version="1.1" viewBox="0 0 50 50" xml:space="preserve"><style>.st3{fill:none;stroke:#444;stroke-width:2;stroke-linecap:round;stroke-linejoin:round;stroke-miterlimit:10}</style><path fill="#a475ef" d="M47.6 26.2l.4 4.2L2 47.2l.1-9 .3-5.2 45.9-16.7-.7 3.7z"/><path fill="#bf94f7" d="M47.6 9.7l-.6 7.6L2.1 33.7V24l.3-4.4L47.7 3.1z"/><path fill="none" stroke="#444" stroke-linecap="round" stroke-linejoin="round" stroke-miterlimit="10" stroke-width="2.5" d="M32.9 48H1.7V1.8h46.6v35.8"/><circle cx="23.3" cy="24.6" r="12.6" class="st3"/><path d="M35.7 26.4c-.9 4.5-4.8 7.8-9.5 7.8-5.4 0-9.8-4.3-9.8-9.7s4.3-9.8 9.7-9.8c5.1 0 9.2 3.8 9.8 8.7m6.5 11.2c-5.4.3-6.6-3.7-6.6-8.3" class="st3"/></svg>