<?xml version="1.0" encoding="utf-8"?>
<!-- Generator: Adobe Illustrator 28.0.0, SVG Export Plug-In . SVG Version: 6.00 Build 0)  -->
<svg version="1.1" id="Layer_1" xmlns="http://www.w3.org/2000/svg" xmlns:xlink="http://www.w3.org/1999/xlink" x="0px" y="0px"
	 viewBox="0 0 50 50" style="enable-background:new 0 0 50 50;" xml:space="preserve">
<style type="text/css">
	.st0{fill:#46B8B0;}
	.st1{fill:#444444;}
	.st2{fill:none;stroke:#444444;stroke-width:0.5;stroke-linecap:round;stroke-linejoin:round;stroke-miterlimit:10;}
	.st3{fill:none;stroke:#444444;stroke-width:2.5;stroke-linecap:round;stroke-linejoin:round;stroke-miterlimit:10;}
</style>
<g>
	<path class="st0" d="M47,16.9l0.2-13.8L45.6,2l-15-0.1c-3.2,0-28.2-2.4-28.2,0.8L0.7,23.4l1.6,10.4l10.2,0.8l6.6,9.7l15-5.3
		c0.2-0.1,2.5-4.4,2.6-4.5l10.2-0.6C47.6,33.4,48,18.9,47,16.9z"/>
	<g>
		<path class="st1" d="M48.2,31.5c0-1.8,0-3.6,0-5.4c0-2.8,0-5.5,0-8.3c0-2.7,0-5.4,0-8.1c0-1.6,0-3.3,0-4.9c0-0.1,0-0.2,0-0.4
			c0-0.7-0.3-1.5-0.8-2c-0.5-0.5-1.2-0.8-2-0.8c-0.1,0-0.2,0-0.3,0c-1.2,0-2.4,0-3.5,0c-2.2,0-4.4,0-6.6,0c-2.8,0-5.5,0-8.3,0
			c-2.9,0-5.7,0-8.6,0c-2.5,0-5,0-7.6,0c-1.7,0-3.4,0-5.2,0c-0.4,0-0.9,0-1.3,0c-0.9,0-1.7,0.2-2.3,0.9C1.4,3,1.1,3.7,1.1,4.4
			c0,0.1,0,0.3,0,0.4c0,0.6,0,1.3,0,1.9c0,2.3,0,4.6,0,6.9c0,2.9,0,5.7,0,8.6c0,2.4,0,4.8,0,7.2c0,0.7,0,1.4,0,2.1
			c0,0.5,0,1,0.1,1.4c0.3,1.1,1.3,1.9,2.5,2c0.3,0,0.6,0,0.9,0c1.3,0,2.6,0,3.9,0c0.8,0,1.6,0,2.5,0c0.4,0,0.7-0.3,0.7-0.7
			c0-0.4-0.3-0.7-0.7-0.7c-2.1,0-4.3,0-6.4,0c-0.2,0-0.3,0-0.5,0c0,0-0.1,0-0.1,0c0,0-0.2,0-0.2,0c-0.1,0-0.2,0-0.3-0.1
			c0,0-0.1,0-0.1,0c0,0-0.1,0-0.1-0.1c-0.1,0-0.1-0.1-0.2-0.1c0,0,0,0,0,0c0,0,0,0,0,0c-0.1-0.1-0.2-0.2-0.3-0.3c0,0,0,0,0,0
			c0,0,0,0,0,0c0-0.1-0.1-0.1-0.1-0.2c0,0,0-0.1-0.1-0.1c0,0,0-0.1,0-0.1c0-0.1-0.1-0.2-0.1-0.3c0,0,0-0.2,0-0.2c0-0.3,0-0.6,0-0.9
			c0-1.8,0-3.7,0-5.5c0-2.7,0-5.5,0-8.2c0-2.7,0-5.3,0-8c0,0,0,0,0,0c0.2,0,0.4,0,0.5,0c1.1,0,2.2,0,3.3,0c1.6,0,3.3,0,4.9,0
			c2,0,4,0,6,0c2.2,0,4.4,0,6.6,0c2.2,0,4.4,0,6.7,0c2.1,0,4.1,0,6.2,0c1.7,0,3.5,0,5.2,0c1.3,0,2.5,0,3.8,0c0.4,0,0.8,0,1.2,0
			c0,1.3,0,2.7,0,4c0,2.8,0,5.6,0,8.4c0,2.4,0,4.8,0,7.2c0,1,0,2.1,0,3.1c0,0,0,0,0,0c0,0,0,0,0,0c0,0.1,0,0.1,0,0.2
			c0,0,0,0.1,0,0.1c0,0,0,0,0,0c0,0,0,0,0,0c0,0.1-0.1,0.2-0.2,0.3c0,0-0.1,0.1-0.1,0.1c0,0-0.1,0.1-0.1,0.1c0,0-0.1,0.1-0.1,0.1
			c0,0-0.1,0.1-0.1,0.1c-0.1,0-0.1,0.1-0.2,0.1c0,0-0.1,0-0.1,0c-0.1,0-0.2,0.1-0.3,0.1c0,0-0.1,0-0.1,0c0,0-0.1,0-0.1,0
			c-0.3,0-0.5,0-0.8,0c-1.3,0-2.6,0-3.9,0c-0.8,0-1.6,0-2.4,0c-0.4,0-0.7,0.3-0.7,0.7c0,0.4,0.3,0.7,0.7,0.7c2.1,0,4.3,0,6.4,0
			c0.4,0,0.7,0,1.1,0c1.1-0.2,2-1.1,2.2-2.2C48.2,32.3,48.2,31.9,48.2,31.5z M46.3,8.2c-1.1,0-2.2,0-3.3,0c-1.6,0-3.3,0-4.9,0
			c-2,0-4,0-6,0c-2.2,0-4.4,0-6.6,0c-2.2,0-4.4,0-6.7,0c-2.1,0-4.1,0-6.2,0c-1.7,0-3.5,0-5.2,0c-1.3,0-2.5,0-3.8,0
			c-0.4,0-0.8,0-1.2,0c0-1.1,0-2.3,0-3.4c0-0.1,0-0.3,0-0.4c0,0,0,0,0,0c0,0,0,0,0,0c0,0,0,0,0-0.1c0,0,0-0.1,0-0.1c0,0,0,0,0,0
			c0-0.1,0-0.2,0.1-0.3c0,0,0,0,0,0c0,0,0,0,0,0c0-0.1,0.1-0.1,0.1-0.2c0,0,0-0.1,0.1-0.1c0,0,0.1-0.1,0.1-0.1
			C2.9,3.4,3,3.3,3.1,3.2c0,0,0.1-0.1,0.1-0.1c0.1,0,0.1-0.1,0.2-0.1c0,0,0.2-0.1,0.1,0c0,0,0.1,0,0.1,0c0.1,0,0.1,0,0.2,0
			c0,0,0.1,0,0.1,0c0,0,0.1,0,0.1,0c0,0,0,0,0,0c0.1,0,0.2,0,0.3,0c1.2,0,2.4,0,3.6,0c2.2,0,4.4,0,6.6,0c2.7,0,5.4,0,8.1,0
			c2.8,0,5.7,0,8.5,0c2.5,0,5,0,7.5,0c1.7,0,3.5,0,5.2,0c0.4,0,0.9,0,1.3,0c0.1,0,0.2,0,0.3,0c0,0,0.1,0,0.1,0c0,0,0.1,0,0.1,0
			c0,0,0.1,0,0.1,0c0,0,0.1,0,0.1,0c0,0,0,0,0.1,0c0.1,0,0.2,0.1,0.3,0.2c0,0,0,0,0,0c0,0,0,0,0,0c0.1,0,0.1,0.1,0.2,0.1
			c0,0,0.1,0.1,0.1,0.1c0,0,0,0,0,0c0,0,0,0,0,0c0.1,0.1,0.1,0.2,0.2,0.3c0,0,0.1,0.2,0.1,0.2c0,0,0,0.1,0,0.1c0,0,0,0.2,0,0.2
			c0,0,0,0,0,0.1c0,0.1,0,0.3,0,0.4c0,0.6,0,1.3,0,1.9c0,0.5,0,1,0,1.5C46.7,8.2,46.5,8.2,46.3,8.2z"/>
		<path class="st1" d="M6.9,5.2c0,0-0.1-0.1-0.1-0.1C6.6,5,6.5,5,6.4,5C6.3,5,6.2,5,6.1,5C6,5.1,5.9,5.1,5.9,5.2
			C5.8,5.2,5.8,5.3,5.7,5.4c0,0.1-0.1,0.2-0.1,0.3c0,0.1,0,0.1,0,0.2c0,0.1,0.1,0.2,0.2,0.3c0,0,0.1,0.1,0.1,0.1
			c0.1,0.1,0.2,0.1,0.3,0.1c0.1,0,0.2,0,0.3-0.1c0.1,0,0.2-0.1,0.2-0.1C6.9,6.1,7,6,7,5.9c0-0.1,0.1-0.2,0.1-0.3c0-0.1,0-0.1,0-0.2
			C7,5.4,6.9,5.3,6.9,5.2z"/>
		<path class="st1" d="M11.4,5.2c0,0-0.1-0.1-0.1-0.1C11.2,5,11.1,5,10.9,5c-0.1,0-0.2,0-0.3,0.1c-0.1,0-0.2,0.1-0.2,0.1
			c-0.1,0.1-0.1,0.1-0.1,0.2c0,0.1-0.1,0.2-0.1,0.3c0,0.1,0,0.1,0,0.2c0,0.1,0.1,0.2,0.2,0.3c0,0,0.1,0.1,0.1,0.1
			c0.1,0.1,0.2,0.1,0.3,0.1c0.1,0,0.2,0,0.3-0.1c0.1,0,0.2-0.1,0.2-0.1c0.1-0.1,0.1-0.1,0.1-0.2c0-0.1,0.1-0.2,0.1-0.3
			c0-0.1,0-0.1,0-0.2C11.6,5.4,11.5,5.3,11.4,5.2z"/>
		<path class="st1" d="M16,5.2c0,0-0.1-0.1-0.1-0.1C15.8,5,15.6,5,15.5,5c-0.1,0-0.2,0-0.3,0.1c-0.1,0-0.2,0.1-0.2,0.1
			c-0.1,0.1-0.1,0.1-0.1,0.2c0,0.1-0.1,0.2-0.1,0.3c0,0.1,0,0.1,0,0.2c0,0.1,0.1,0.2,0.2,0.3c0,0,0.1,0.1,0.1,0.1
			c0.1,0.1,0.2,0.1,0.3,0.1c0.1,0,0.2,0,0.3-0.1c0.1,0,0.2-0.1,0.2-0.1c0.1-0.1,0.1-0.1,0.1-0.2c0-0.1,0.1-0.2,0.1-0.3
			c0-0.1,0-0.1,0-0.2C16.1,5.4,16.1,5.3,16,5.2z"/>
		<path class="st1" d="M31.7,24.6C31.6,24.5,31.6,24.6,31.7,24.6C31.7,24.6,31.7,24.6,31.7,24.6C31.7,24.6,31.7,24.6,31.7,24.6z"/>
		<path class="st1" d="M34.6,27.1C34.7,27.1,34.6,27.1,34.6,27.1L34.6,27.1z"/>
		<path class="st1" d="M25.2,22.1C25.2,22.1,25.2,22.1,25.2,22.1c0.1,0,0.1,0,0.1,0c0,0,0,0,0,0c0,0,0,0,0,0c0,0,0.1,0,0.1,0.1
			c0,0,0,0,0,0c0,0,0.1,0.1,0.1,0.1c0.4,0.3,0.7,0.5,1.1,0.8c1.2,0.9,2.6,1.7,4,2.4c0.9,0.4,1.7,0.7,2.6,1c0.2,0.1,0.4,0.1,0.6,0.2
			c0.1,0,0.2,0,0.2,0.1c0,0,0.1,0,0.1,0c0,0,0,0,0,0c0,0,0,0,0.1,0c0,0,0,0,0,0c0,0,0.1,0,0,0c0.1,0,0.1,0.1,0.2,0.1c0,0,0,0,0.1,0
			c0,0,0,0-0.1,0c0,0,0.1,0.1,0.1,0.1c0.1,0.1,0.1,0.1,0.2,0.2c0,0,0.1,0.1,0.1,0.1c0,0,0,0.1,0.1,0.1c0,0,0,0,0,0c0,0,0,0,0,0.1
			c0,0,0,0.1,0,0.1c0,0,0,0.1,0,0.1c0,0.1,0,0.1,0,0.2c0,0.1,0,0.1,0,0.2V32c0,0.4,0,0.8,0,1.1c0,0.4-0.1,0.7-0.1,1.1
			c0,0,0,0.1,0,0.1c0,0.1,0,0.2,0,0.3c0,0.2-0.1,0.4-0.1,0.6c-0.1,0.7-0.3,1.4-0.6,2.2c-0.1,0.4-0.2,0.7-0.4,1c0,0,0,0.1,0,0.1
			c0.1-0.2,0,0,0,0c0,0,0,0.1,0,0.1c0.5,0.1,0.9,0.3,1.3,0.5c0.3-0.7,0.5-1.3,0.7-2c0.4-1.5,0.7-3,0.7-4.6c0-0.7,0-1.4,0-2.1
			c0-0.8,0-1.6,0-2.4c0-0.7-0.3-1.4-0.7-1.9c-0.3-0.3-0.7-0.6-1.1-0.7c-0.4-0.1-0.8-0.2-1.2-0.3c-0.4-0.1-0.9-0.3-1.3-0.4
			c-0.1,0-0.2-0.1-0.3-0.1c0,0-0.1,0-0.1-0.1c0,0,0,0,0,0c0,0,0,0,0,0c0,0,0,0,0,0c0,0,0,0,0,0c0,0,0,0,0,0
			c-0.2-0.1-0.4-0.2-0.6-0.3c-0.8-0.4-1.6-0.8-2.3-1.3c-0.8-0.5-1.6-1.2-2.4-1.8c-0.7-0.5-1.6-0.5-2.3,0c-0.7,0.5-1.3,1-2,1.5
			c-0.7,0.5-1.5,1-2.3,1.4c-0.2,0.1-0.4,0.2-0.6,0.3c-0.1,0-0.2,0.1-0.3,0.1c0,0-0.1,0-0.1,0.1c0,0-0.1,0-0.1,0.1
			c-0.4,0.2-0.8,0.3-1.2,0.4c-0.4,0.1-0.9,0.3-1.3,0.4c-0.4,0.1-0.8,0.2-1.2,0.5c-0.7,0.5-1.1,1.3-1.1,2.2c0,0.7,0,1.4,0,2.1
			c0,0.7,0,1.4,0,2.2c0,1.5,0.2,3,0.6,4.4c0.4,1.5,1,2.9,1.7,4.2c0.8,1.3,1.7,2.5,2.8,3.6c1.1,1.1,2.3,2,3.7,2.8
			c0.8,0.4,1.6,0.8,2.3,1.2c0.3,0.1,0.5,0.1,0.7,0c0.1,0,0.1-0.1,0.2-0.1c0.1-0.1,0.3-0.1,0.4-0.2c-0.3-0.4-0.6-0.7-0.7-1.2
			c-0.1,0-0.1,0.1-0.2,0.1c-0.6-0.3-1.2-0.6-1.7-0.9c-0.6-0.4-1.3-0.7-1.9-1.2c-0.1,0-0.1-0.1-0.2-0.1c0,0,0,0,0,0
			c0,0-0.1,0-0.1-0.1c-0.1-0.1-0.3-0.2-0.4-0.3c-0.3-0.2-0.5-0.5-0.8-0.7c-0.5-0.5-1-1-1.5-1.6c0-0.1-0.1-0.1-0.1-0.2c0,0,0,0,0,0
			c0,0-0.1-0.1-0.1-0.1c-0.1-0.1-0.2-0.3-0.3-0.4c-0.2-0.3-0.4-0.6-0.6-0.9c-0.4-0.6-0.7-1.2-1-1.9c0-0.1-0.1-0.1-0.1-0.2
			c0,0,0,0,0,0c0,0,0-0.1-0.1-0.1c-0.1-0.2-0.1-0.3-0.2-0.5c-0.1-0.3-0.2-0.7-0.3-1c-0.2-0.7-0.4-1.4-0.5-2.1c0-0.1,0-0.2,0-0.2
			c0,0,0,0,0,0c0,0,0-0.1,0-0.1c0-0.2,0-0.4-0.1-0.5c0-0.4-0.1-0.7-0.1-1.1c0-0.7,0-1.4,0-2v-2.5c0-0.1,0-0.1,0-0.2c0,0,0-0.1,0-0.1
			c0-0.1,0-0.2,0.1-0.2c0,0,0-0.1,0-0.1c0,0,0,0,0,0c0-0.1,0.1-0.2,0.1-0.2c0,0,0,0,0,0c0,0,0,0,0,0c0.1-0.1,0.1-0.1,0.2-0.2
			c0,0,0,0,0,0c0,0,0.1,0,0.1-0.1c0,0,0.1-0.1,0.1-0.1c0,0,0,0,0,0c0,0,0,0,0.1,0c0,0,0.1,0,0.1,0c0.1,0,0.2,0,0.3-0.1
			c0.2-0.1,0.4-0.1,0.6-0.2c1.7-0.5,3.4-1.2,4.9-2.2c0.9-0.6,1.8-1.2,2.7-1.9c0.1-0.1,0.2-0.1,0.3-0.2c0.1,0,0.1-0.1,0.2-0.1
			c0,0,0,0,0,0c0,0,0,0,0.1,0c0,0,0,0,0,0C25,22.1,25.1,22.1,25.2,22.1C25.1,22.1,25.1,22.1,25.2,22.1z"/>
		<path class="st1" d="M15.9,26.9C15.9,26.9,15.9,26.9,15.9,26.9C15.9,26.9,15.9,26.9,15.9,26.9z"/>
		<path class="st1" d="M25.2,22.2C25.3,22.2,25.2,22.2,25.2,22.2C25.2,22.2,25.2,22.2,25.2,22.2z"/>
		<path class="st1" d="M15.4,27.3C15.4,27.3,15.3,27.3,15.4,27.3C15.3,27.3,15.4,27.3,15.4,27.3z"/>
		<path class="st1" d="M34.9,34.5C34.9,34.5,34.9,34.4,34.9,34.5C34.9,34.4,34.9,34.5,34.9,34.5z"/>
		<path class="st1" d="M25,22.2C25,22.2,25,22.2,25,22.2C25.1,22.2,25.1,22.2,25,22.2z"/>
		<path class="st1" d="M34.3,26.9C34.3,26.9,34.3,26.9,34.3,26.9C34.3,26.9,34.3,26.9,34.3,26.9C34.3,26.9,34.4,26.9,34.3,26.9
			C34.4,26.9,34.4,26.9,34.3,26.9z"/>
		<path class="st1" d="M30,30.4c-0.2,0.2-0.4,0.4-0.6,0.6c-0.5,0.5-1,1-1.5,1.5c-0.6,0.6-1.2,1.3-1.9,1.9c-0.5,0.5-1.1,1.1-1.6,1.6
			c-0.1,0.1-0.2,0.2-0.3,0.3c-0.2-0.2-0.4-0.4-0.6-0.6c-0.6-0.6-1.2-1.2-1.7-1.7c-0.1-0.1-0.3-0.3-0.4-0.4c-0.3-0.3-0.7-0.3-1,0
			c-0.3,0.3-0.3,0.7,0,1c0.4,0.4,0.7,0.7,1.1,1.1c0.6,0.6,1.2,1.2,1.7,1.7c0.1,0.1,0.3,0.3,0.4,0.4c0.3,0.3,0.7,0.3,1,0
			c0.2-0.2,0.4-0.4,0.6-0.6c0.5-0.5,1-1,1.5-1.5c0.6-0.6,1.2-1.3,1.9-1.9c0.5-0.5,1.1-1.1,1.6-1.6c0.3-0.3,0.5-0.5,0.8-0.8
			c0,0,0,0,0,0c0.3-0.3,0.3-0.7,0-1C30.7,30.2,30.3,30.1,30,30.4z"/>
	</g>
	<line class="st2" x1="5.5" y1="12.8" x2="13.3" y2="12.8"/>
	<line class="st2" x1="5.5" y1="16.2" x2="20.9" y2="16.2"/>
	<line class="st2" x1="5.5" y1="18.9" x2="20.9" y2="18.9"/>
	<path class="st3" d="M34.3,40.6c0.9-1.8,1.7-3.9,2.1-6.6h4h5.4c1,0,1.7-0.8,1.7-1.7v-5.4V3.5c0-0.9-0.8-1.7-1.7-1.7H3.3
		c-1,0-1.7,0.8-1.7,1.7v28.9c0,0.9,0.8,1.7,1.7,1.7h10.2c0,0-0.2,8.3,10.4,14.1c0.7,0.4,1.5,0.4,2.2,0c0,0,2-1,2.9-1.6"/>
</g>
</svg>
