<svg xmlns="http://www.w3.org/2000/svg" id="Layer_1" x="0" y="0" version="1.1" viewBox="0 0 50 50" xml:space="preserve"><style>.st1{fill:#444}</style><path fill="#fcc34f" d="M47.7 17.4L48 3.6l-1.7-1.1-15-.1c-3.2 0-28.2-2.4-28.2.8L1.4 23.9 3 34.2l10.2.8 2.1.3 1.4 10.8 18.9-6.6c.2-.1 1.7-4.5 1.8-4.6l10.2-.6c.8-.4 1.1-14.9.1-16.9z"/><path d="M48.9 32V4.9c0-.7-.3-1.5-.8-2s-1.2-.8-2-.8H4.7c-.7 0-1.5.2-2.1.9-.5.6-.8 1.2-.8 1.9V32c0 .5 0 1 .1 1.4.3 1.1 1.3 1.9 2.5 2h7.3c.4 0 .7-.3.7-.7 0-.4-.3-.7-.7-.7H4.5c-.1 0-.2 0-.3-.1h-.1L4 34c-.1 0-.1-.1-.2-.1l-.3-.3c0-.1-.1-.1-.1-.2 0 0 0-.1-.1-.1v-.1c0-.1-.1-.2-.1-.3V10.1h44.4v23c0 .1-.1.2-.2.3l-.1.1-.1.1-.1.1-.1.1c-.1 0-.1.1-.2.1h-.1c-.1 0-.2.1-.3.1h-7.3c-.4 0-.7.3-.7.7 0 .4.3.7.7.7h7.5c1.1-.2 2-1.1 2.2-2.2.2-.4.1-.8.1-1.2zM47 8.7H3.1v-4c0-.1 0-.2.1-.3 0-.1.1-.1.1-.2 0 0 0-.1.1-.1l.1-.1.2-.2.1-.1c.1 0 .2-.1.2-.1s.2-.1.1 0h42.4c.1 0 .2.1.3.2.1 0 .1.1.2.1l.1.1c.1.1.1.2.2.3l.1.2v4.2H47z" class="st1"/><path d="M7.6 5.7l-.1-.1c-.2-.1-.3-.1-.4-.1-.1 0-.2 0-.3.1-.1 0-.2.1-.2.1-.1.1-.1.1-.1.2s-.1.2-.1.3v.2c0 .1.1.2.2.3l.1.1c.2 0 .3.1.4.1.1 0 .2 0 .3-.1.1 0 .2-.1.2-.1.1-.1.1-.1.1-.2s.1-.2.1-.3V6c-.1-.1-.1-.2-.2-.3zm4.6 0l-.1-.1c-.1-.1-.2-.1-.3-.1-.1 0-.2 0-.3.1-.1 0-.2.1-.2.1-.1.1-.1.1-.1.2-.2.1-.2.2-.2.3v.2c0 .1.1.2.2.3l.1.1c.1.1.2.1.3.1.1 0 .2 0 .3-.1.1 0 .2-.1.2-.1.1-.1.1-.1.1-.2s.1-.2.1-.3V6c0-.1-.1-.2-.1-.3zm4.5 0l-.1-.1c-.1-.1-.2-.1-.3-.1-.1 0-.2 0-.3.1-.1 0-.2.1-.2.1-.1.1-.1.1-.1.2s-.1.2-.1.3v.2c0 .1.1.2.2.3l.1.1c.1.1.2.1.3.1.1 0 .2 0 .3-.1.1 0 .2-.1.2-.1.1-.1.1-.1.1-.2s.1-.2.1-.3V6c0-.1-.1-.2-.2-.3zm15.7 19.4c-.1-.1 0 0 0 0zm2.9 2.5c.1 0 .1 0 0 0zm-18.7-.2c.1 0 0 0 0 0zm9.4-4.7s-.1 0 0 0c-.1 0-.1 0 0 0zm-9.9 5.1zM35.7 35zm-10-12.3c.1 0 .1 0 0 0zm9.4 4.7z" class="st1"/><path fill="none" stroke="#444" stroke-linecap="round" stroke-linejoin="round" stroke-miterlimit="10" stroke-width=".5" d="M6.2 13.4H14m-7.8 3.3h15.4M6.2 19.4h15.4"/><path fill="none" stroke="#444" stroke-linecap="round" stroke-linejoin="round" stroke-miterlimit="10" stroke-width="2.5" d="M36 41.7v-7.2h10.5c1 0 1.7-.8 1.7-1.7V4c0-.9-.8-1.7-1.7-1.7H4C3 2.3 2.2 3 2.2 4v28.9c0 .9.8 1.7 1.7 1.7h11.8v12.3l.6.2c3.6 1.4 7.4 2 11.2 1.8"/><path d="M33.6 33.7c.3.1.7.2 1 .3h.1v7.7c.5-.2 1.1-.3 1.7-.3v-6.6c0-.6 0-1.2-.3-1.7-.3-.4-.7-.7-1.2-.9-.4-.1-.9-.2-1.3-.4-.3-.1-.5-.1-.8-.1v-3.9c0-.9-.1-1.8-.4-2.7-.2-.6-.5-1.2-.9-1.7-.4-.6-.9-1-1.5-1.5-2.1-1.6-5.1-1.7-7.4-.5-1.1.6-2.1 1.6-2.7 2.7-.6 1-.9 2.2-.9 3.4v4c-.7.2-1.5.3-2.2.5-.9.3-1.5 1.1-1.5 2v12.1c0 1 .6 1.7 1.5 2 1.8.5 3.7.9 5.6 1.1 1.5.2 3 .2 4.5.2-.1-.6-.1-1.1 0-1.7-1.1 0-2.3 0-3.4-.1-.6 0-1.2-.1-1.8-.2-.8-.1-1.6-.2-2.3-.4l-1.2-.3c-.3-.1-.7-.2-1-.3h-.1V34s.1 0 .1-.1c1.5-.4 3-.7 4.5-.9 2.2-.3 4.4-.3 6.6-.2.6 0 1.2.1 1.8.2.8.1 1.6.2 2.3.4l1.2.3zm-2.5-4.9v2.7c-.1 0-.2 0-.3-.1-1.9-.3-3.8-.4-5.7-.4-1.5 0-2.9.2-4.4.4v-4.6c.1-.4.2-.9.3-1.3.1-.3.3-.7.5-1 .1-.1.1-.2.2-.2l.1-.1.4-.4.4-.4c.1-.1.2-.1.2-.2.3-.2.6-.4 1-.5.4-.2.8-.3 1.3-.4.5-.1.9-.1 1.4 0 .4.1.9.2 1.3.4.3.1.7.3 1 .5.1.1.2.1.2.2l.1.1.4.4.4.4c.1.1.1.2.2.2.2.3.4.6.5 1 .2.4.3.8.3 1.3.2.7.2 1.4.2 2zm3.6 5.2zm-.1 0zm0 0v-.1zm-17.6.1zm.1 0zm0-.1zm0 12.7zm.1 0zm0 .1z" class="st1"/><path d="M21.7 24.3c0 .1 0 .1 0 0 0 0 .1 0 0 0 .1 0 0 0 0 0zm7.2-.8s-.1 0 0 0c-.1-.1-.1-.1 0 0zm-2.4 12.6c-.9-.3-2 0-2.6.7-.4.4-.6.9-.6 1.5 0 .5.1 1 .3 1.4.2.4.6.8 1 .9.1 0 .2 0 .3.1v2.2c0 .4.4.8.8.8s.8-.4.8-.8v-2.2c1-.3 1.6-1.3 1.6-2.3 0-.5-.1-1-.4-1.4-.3-.4-.7-.7-1.2-.9zm-1.3 1.7c.1 0 .1-.1.2-.1s.1 0 .2-.1h.2c.1 0 .2 0 .2.1 0 0 .1 0 .1.1l.1.1.1.1c0 .1.1.1.1.2s.1.2.1.3v.2c0 .1 0 .2-.1.3 0 0 0 .1-.1.1l-.1.1-.1.1c-.1 0-.1.1-.2.1s-.1 0-.2.1h-.2c-.1 0-.2 0-.2-.1 0 0-.1 0-.1-.1l-.1-.1-.1-.1c0-.1-.1-.1-.1-.2s0-.1-.1-.2v-.2c0-.1 0-.2.1-.2 0 0 0-.1.1-.1.1-.3.1-.4.2-.4z" class="st1"/></svg>