<?xml version="1.0" encoding="utf-8"?>
<!-- Generator: Adobe Illustrator 25.2.3, SVG Export Plug-In . SVG Version: 6.00 Build 0)  -->
<svg version="1.1" id="Layer_1" xmlns="http://www.w3.org/2000/svg" xmlns:xlink="http://www.w3.org/1999/xlink" x="0px" y="0px"
	 viewBox="0 0 50 50" style="enable-background:new 0 0 50 50;" xml:space="preserve">
<style type="text/css">
	.st0{fill:#A475EF;}
	.st1{fill:#BF94F7;}
	.st2{fill:#444444;}
	.st3{fill:#494949;}
</style>
<g>
	<g>
		<g>
			<polygon class="st0" points="46.9,25.9 47.3,30 2.6,46.3 2.8,37.6 3.2,32.7 47.7,16.5 47,20 			"/>
		</g>
		<g>
			<polygon class="st1" points="47.2,10 46.6,17.4 2.9,33.3 2.9,24 3.3,19.7 47.3,3.7 			"/>
		</g>
		<g>
			<path class="st2" d="M47.2,48.5H31.7c-0.7,0-1.2-0.6-1.2-1.2S31,46,31.7,46H46V4H3.6V46h3c0.7,0,1.2,0.6,1.2,1.2
				s-0.6,1.2-1.2,1.2H2.3c-0.7,0-1.2-0.6-1.2-1.2V2.7c0-0.7,0.6-1.2,1.2-1.2h44.9c0.7,0,1.2,0.6,1.2,1.2v44.6
				C48.5,48,47.9,48.5,47.2,48.5z"/>
		</g>
	</g>
	<g>
		<path class="st3" d="M12.6,11.3h6.2c0.3,0,0.6,0.3,0.6,0.6v6.2c0,0.3-0.3,0.6-0.6,0.6h-6.2c-0.3,0-0.6-0.3-0.6-0.6V12
			C12,11.6,12.2,11.3,12.6,11.3z"/>
	</g>
	<g>
		<path class="st3" d="M12.6,31.2h6.2c0.3,0,0.6,0.3,0.6,0.6V38c0,0.3-0.3,0.6-0.6,0.6h-6.2c-0.3,0-0.6-0.3-0.6-0.6v-6.2
			C12,31.5,12.2,31.2,12.6,31.2z"/>
	</g>
	<g>
		<path class="st2" d="M37.4,15.6H23.2c-0.3,0-0.5-0.2-0.5-0.5s0.2-0.5,0.5-0.5h14.2c0.3,0,0.5,0.2,0.5,0.5S37.7,15.6,37.4,15.6z"/>
	</g>
	<g>
		<path class="st2" d="M37.4,25.3H23.2c-0.3,0-0.5-0.2-0.5-0.5s0.2-0.5,0.5-0.5h14.2c0.3,0,0.5,0.2,0.5,0.5S37.7,25.3,37.4,25.3z"/>
	</g>
	<g>
		<path class="st2" d="M37.4,35.4H23.2c-0.3,0-0.5-0.2-0.5-0.5s0.2-0.5,0.5-0.5h14.2c0.3,0,0.5,0.2,0.5,0.5S37.7,35.4,37.4,35.4z"/>
	</g>
	<g>
		<path class="st2" d="M15,28c-0.1,0-0.3,0-0.3-0.1l-2.4-2.4c-0.2-0.2-0.2-0.5,0-0.7c0.2-0.2,0.5-0.2,0.7,0l2.1,2l4.1-5
			c0.2-0.2,0.5-0.2,0.7-0.1c0.2,0.2,0.2,0.5,0.1,0.7l-4.4,5.4C15.3,28,15.2,28,15,28C15,28,15,28,15,28z"/>
	</g>
</g>
</svg>
