<?xml version="1.0" encoding="utf-8"?>
<!-- Generator: Adobe Illustrator 28.0.0, SVG Export Plug-In . SVG Version: 6.00 Build 0)  -->
<svg version="1.1" id="Layer_1" xmlns="http://www.w3.org/2000/svg" xmlns:xlink="http://www.w3.org/1999/xlink" x="0px" y="0px"
	 viewBox="0 0 50 50" style="enable-background:new 0 0 50 50;" xml:space="preserve">
<style type="text/css">
	.st0{fill:#E589EF;}
	.st1{fill:#444444;}
	.st2{fill:#444444;stroke:#444444;stroke-width:0.25;stroke-miterlimit:10;}
	.st3{fill:none;stroke:#444444;stroke-miterlimit:10;}
	.st4{fill:none;stroke:#444444;stroke-width:0.5;stroke-miterlimit:10;}
</style>
<g>
	<path class="st0" d="M47.5,33.8v-9.6c0-11.9-9.3-22.1-21.2-22.5c-12.5-0.4-22.8,9.6-22.8,22v13.2v2c0,4.3,4.1,6.3,8.4,7.8
		L47.5,33.8z"/>
	<g>
		<path class="st1" d="M46.2,21.2c0.1,0.8,0.1,1.6,0.1,2.5v10.6c0,0.6,0.5,1.2,1.2,1.2c0.6,0,1.2-0.5,1.2-1.2V23.7
			c0-12.8-10.4-23.2-23.2-23.2C12.7,0.5,2.3,10.9,2.3,23.7v17.2c0,1.9,1.1,3.6,2.9,4.3c4,1.6,12,4.3,20.3,4.3
			c3.4,0,7.1-0.5,10.9-1.4c0.6-0.1,1-0.8,0.9-1.4c-0.1-0.6-0.8-1-1.4-0.9c-3.7,0.9-7.2,1.3-10.4,1.3C17.6,47.2,9.9,44.6,6.1,43
			c-0.9-0.3-1.4-1.2-1.4-2.1V23.7c0-0.8,0.1-1.7,0.1-2.5c0.1-2,0.6-3.1,0.6-3.1C7.9,9.3,15.9,2.9,25.5,2.9s17.6,6.5,20.1,15.3
			C45.6,18.1,46.1,19.4,46.2,21.2z"/>
		<circle class="st2" cx="36.2" cy="28.5" r="3.4"/>
		<circle class="st2" cx="14.8" cy="28.5" r="3.4"/>
		<path class="st3" d="M24.8,28.9l-3,2.2c-0.4,0.3-0.6,0.9-0.3,1.4l3,5.8c0.3,0.6,1,0.8,1.5,0.5c0.2-0.1,0.4-0.3,0.5-0.5l3-5.8
			c0.3-0.5,0.1-1.1-0.3-1.4l-3-2.2C25.8,28.6,25.2,28.6,24.8,28.9z"/>
	</g>
	<path class="st4" d="M4.6,18.6c0,0,7.3-8.5,20-0.8c0.6,0.3,1.3,0.4,1.8,0c2.6-2,12.8-6.7,19.9,0.8"/>
	<path class="st4" d="M4.6,14.5c0,0,7.3-8.5,20-0.8c0.6,0.3,1.3,0.4,1.8,0c2.6-2,12.8-6.7,19.9,0.8"/>
</g>
</svg>
