<svg xmlns="http://www.w3.org/2000/svg" id="Layer_1" x="0" y="0" version="1.1" viewBox="0 0 50 50" xml:space="preserve"><style>.st1{fill:#444}</style><path fill="#46b8b0" d="M47 16.9l.2-13.8L45.6 2l-15-.1c-3.2 0-28.2-2.4-28.2.8L.7 23.4l1.6 10.4 10.2.8 6.6 9.7 15-5.3c.2-.1 2.5-4.4 2.6-4.5l10.2-.6c.7-.5 1.1-15 .1-17z"/><path d="M48.2 31.5V4.4c0-.7-.3-1.5-.8-2s-1.2-.8-2-.8H4c-.9 0-1.7.2-2.3.9-.3.5-.6 1.2-.6 1.9v27.1c0 .5 0 1 .1 1.4.3 1.1 1.3 1.9 2.5 2H11c.4 0 .7-.3.7-.7 0-.4-.3-.7-.7-.7H3.8c-.1 0-.2 0-.3-.1h-.1s-.1 0-.1-.1c-.1 0-.1-.1-.2-.1l-.3-.3c0-.1-.1-.1-.1-.2 0 0 0-.1-.1-.1v-.1c0-.1-.1-.2-.1-.3V9.4h44.4v23c0 .1-.1.2-.2.3l-.1.1-.1.1-.1.1-.1.1c-.1 0-.1.1-.2.1H46c-.1 0-.2.1-.3.1h-7.3c-.4 0-.7.3-.7.7 0 .4.3.7.7.7h7.5c1.1-.2 2-1.1 2.2-2.2.1-.2.1-.6.1-1zM46.3 8.2H2.4v-4c0-.1 0-.2.1-.3 0-.1.1-.1.1-.2 0 0 0-.1.1-.1l.1-.1.3-.3.1-.1c.1 0 .1-.1.2-.1 0 0 .2-.1.1 0h42.4c.1 0 .2.1.3.2.1 0 .1.1.2.1l.1.1c.1.1.1.2.2.3l.1.2v4.2c-.1.1-.3.1-.5.1z" class="st1"/><path d="M6.9 5.2l-.1-.1C6.6 5 6.5 5 6.4 5h-.3c-.1.1-.2.1-.2.2-.1 0-.1.1-.2.2 0 .1-.1.2-.1.3v.2c0 .1.1.2.2.3l.1.1c.1.1.2.1.3.1.1 0 .2 0 .3-.1.1 0 .2-.1.2-.1.2-.1.3-.2.3-.3 0-.1.1-.2.1-.3v-.2c-.1 0-.2-.1-.2-.2zm4.5 0l-.1-.1c-.1-.1-.2-.1-.4-.1-.1 0-.2 0-.3.1-.1 0-.2.1-.2.1-.1.1-.1.1-.1.2s-.1.2-.1.3v.2c0 .1.1.2.2.3l.1.1c.1.1.2.1.3.1.1 0 .2 0 .3-.1.1 0 .2-.1.2-.1.1-.1.1-.1.1-.2s.1-.2.1-.3v-.2c.1-.1 0-.2-.1-.3zm4.6 0l-.1-.1c-.1-.1-.3-.1-.4-.1-.1 0-.2 0-.3.1-.1 0-.2.1-.2.1-.1.1-.1.1-.1.2s-.1.2-.1.3v.2c0 .1.1.2.2.3l.1.1c.1.1.2.1.3.1.1 0 .2 0 .3-.1.1 0 .2-.1.2-.1.1-.1.1-.1.1-.2s.1-.2.1-.3v-.2c0-.1 0-.2-.1-.3zm15.7 19.4c-.1-.1-.1 0 0 0zm2.9 2.5c.1 0 0 0 0 0z" class="st1"/><path d="M25.2 22.1h.1s.1 0 .1.1l.1.1c.4.3.7.5 1.1.8 1.2.9 2.6 1.7 4 2.4.9.4 1.7.7 2.6 1 .2.1.4.1.6.2.1 0 .2 0 .2.1h.2s.1 0 0 0c.1 0 .1.1.2.1l.1.1.2.2.1.1s0 .1.1.1v5.7c0 .4-.1.7-.1 1.1v.4c0 .2-.1.4-.1.6-.1.7-.3 1.4-.6 2.2-.1.4-.2.7-.4 1v.1c.1-.2 0 0 0 0v.1c.5.1.9.3 1.3.5.3-.7.5-1.3.7-2 .4-1.5.7-3 .7-4.6V28c0-.7-.3-1.4-.7-1.9-.3-.3-.7-.6-1.1-.7l-1.2-.3c-.4-.1-.9-.3-1.3-.4-.1 0-.2-.1-.3-.1 0 0-.1 0-.1-.1l-.6-.3c-.8-.4-1.6-.8-2.3-1.3-.8-.5-1.6-1.2-2.4-1.8-.7-.5-1.6-.5-2.3 0-.7.5-1.3 1-2 1.5s-1.5 1-2.3 1.4l-.6.3c-.1 0-.2.1-.3.1 0 0-.1 0-.1.1 0 0-.1 0-.1.1-.4.2-.8.3-1.2.4-.4.1-.9.3-1.3.4-.4.1-.8.2-1.2.5-.7.5-1.1 1.3-1.1 2.2v4.3c0 1.5.2 3 .6 4.4.4 1.5 1 2.9 1.7 4.2.8 1.3 1.7 2.5 2.8 3.6 1.1 1.1 2.3 2 3.7 2.8.8.4 1.6.8 2.3 1.2.3.1.5.1.7 0 .1 0 .1-.1.2-.1.1-.1.3-.1.4-.2-.3-.4-.6-.7-.7-1.2-.1 0-.1.1-.2.1-.6-.3-1.2-.6-1.7-.9-.6-.4-1.3-.7-1.9-1.2-.1 0-.1-.1-.2-.1 0 0-.1 0-.1-.1-.1-.1-.3-.2-.4-.3-.3-.2-.5-.5-.8-.7-.5-.5-1-1-1.5-1.6 0-.1-.1-.1-.1-.2l-.1-.1c-.1-.1-.2-.3-.3-.4l-.6-.9c-.4-.6-.7-1.2-1-1.9 0-.1-.1-.1-.1-.2 0 0 0-.1-.1-.1-.1-.2-.1-.3-.2-.5-.1-.3-.2-.7-.3-1-.2-.7-.4-1.4-.5-2.1V34.6c0-.2 0-.4-.1-.5 0-.4-.1-.7-.1-1.1v-4.8c0-.1 0-.2.1-.2v-.1c0-.1.1-.2.1-.2l.2-.2s.1 0 .1-.1l.1-.1h.2c.1 0 .2 0 .3-.1.2-.1.4-.1.6-.2 1.7-.5 3.4-1.2 4.9-2.2.9-.6 1.8-1.2 2.7-1.9.1-.1.2-.1.3-.2.1 0 .1-.1.2-.1h.1c-.2-.5-.1-.5 0-.5-.1 0-.1 0 0 0zm-9.3 4.8zm9.3-4.7c.1 0 0 0 0 0zm-9.8 5.1s-.1 0 0 0c-.1 0 0 0 0 0zm19.5 7.2s0-.1 0 0c0-.1 0 0 0 0zM25 22.2c.1 0 .1 0 0 0zm9.3 4.7s.1 0 0 0c.1 0 .1 0 0 0z" class="st1"/><path d="M30 30.4l-.6.6-1.5 1.5c-.6.6-1.2 1.3-1.9 1.9L24.4 36l-.3.3-.6-.6-1.7-1.7-.4-.4c-.3-.3-.7-.3-1 0-.3.3-.3.7 0 1l1.1 1.1 1.7 1.7.4.4c.3.3.7.3 1 0l.6-.6 1.5-1.5c.6-.6 1.2-1.3 1.9-1.9l1.6-1.6.8-.8c.3-.3.3-.7 0-1-.3-.2-.7-.3-1 0z" class="st1"/><path fill="none" stroke="#444" stroke-linecap="round" stroke-linejoin="round" stroke-miterlimit="10" stroke-width=".5" d="M5.5 12.8h7.8m-7.8 3.4h15.4M5.5 18.9h15.4"/><path fill="none" stroke="#444" stroke-linecap="round" stroke-linejoin="round" stroke-miterlimit="10" stroke-width="2.5" d="M34.3 40.6c.9-1.8 1.7-3.9 2.1-6.6h9.4c1 0 1.7-.8 1.7-1.7V3.5c0-.9-.8-1.7-1.7-1.7H3.3c-1 0-1.7.8-1.7 1.7v28.9c0 .9.8 1.7 1.7 1.7h10.2s-.2 8.3 10.4 14.1c.7.4 1.5.4 2.2 0 0 0 2-1 2.9-1.6"/></svg>