<svg xmlns="http://www.w3.org/2000/svg" viewBox="0 0 50 50"><path fill="#ff6b6b" d="M43.7 19.3c-.1-.7-.3-9.3-.8-9.8L38.2 9H38l-8.2-3.3L25 1.6c-2.9 0-9.4 9.4-18.4 8.7V23L7 33.2c.1.3 2.8 4.8 3.1 5l4.2 3.6L43 31.2c.6-.3 1.5-7.7.7-11.9z"/><path fill="none" stroke="#444" stroke-linecap="round" stroke-linejoin="round" stroke-miterlimit="10" stroke-width=".5" d="M17.9 23.4l1.5-3 1.5 3 3.3.5-2.4 2.4.6 3.3-3-1.6-3 1.6.5-3.3-2.4-2.4zm11.2 0l1.5-3 1.5 3 3.4.5-2.4 2.4.5 3.3-3-1.6-2.9 1.6.5-3.3-2.4-2.4z"/><path fill="none" stroke="#444" stroke-linecap="round" stroke-linejoin="round" stroke-miterlimit="10" d="M25 43.7s8.7-5.7 11.5-7.8c1.9-1.4 3-4.1 3-6.9V13.4C32.8 13.9 25 6.9 25 6.9h0v0s-7.8 7-14.5 6.5V29c0 2.8 1.1 5.5 3 6.9C16.3 38 25 43.7 25 43.7h0"/><path fill="none" stroke="#444" stroke-linecap="round" stroke-linejoin="round" stroke-miterlimit="10" stroke-width="2.5" d="M38.4 39.3L25 48.4l-13.5-9.2c-3.1-2.1-4.9-5.5-4.9-9.2V9.4C15.3 12.1 25 1.6 25 1.6c9.5 10 18.4 7.8 18.4 7.8v21.2"/></svg>