<?xml version="1.0" encoding="utf-8"?>
<!-- Generator: Adobe Illustrator 28.2.0, SVG Export Plug-In . SVG Version: 6.00 Build 0)  -->
<svg version="1.1" id="Layer_1" xmlns="http://www.w3.org/2000/svg" xmlns:xlink="http://www.w3.org/1999/xlink" x="0px" y="0px"
	 viewBox="0 0 50 50" style="enable-background:new 0 0 50 50;" xml:space="preserve">
<style type="text/css">
	.st0{fill:#35D3C3;}
	.st1{fill:#7DF4EB;}
	.st2{fill:none;stroke:#505050;stroke-width:2.5;stroke-linecap:round;stroke-linejoin:round;stroke-miterlimit:10;}
	.st3{fill:none;stroke:#505050;stroke-linecap:round;stroke-linejoin:round;stroke-miterlimit:10;}
	.st4{fill:none;stroke:#505050;stroke-width:0.5;stroke-linecap:round;stroke-linejoin:round;stroke-miterlimit:10;}
</style>
<g>
	<polygon class="st0" points="25.7,22.1 33.6,24.6 26.9,29.3 27,37.5 20.4,32.6 12.6,35.2 15.3,27.5 10.4,20.9 18.6,21 23.3,14.3 	
		"/>
	<g>
		<path class="st1" d="M41.9,12.3l-5-1l-2.3-5.2L14.1,6.5c-2.6,6.1-2.4,5-7,5.5l-6,11.3l0.6,20.5l15.5,0.6l31-11
			c0.6-0.4-0.6-6.4-0.8-12.2C47.5,20.3,42.8,12.5,41.9,12.3z"/>
		<path class="st2" d="M47.6,36.4V22.1c0-0.5-0.1-0.9-0.4-1.3l-4.5-7.6c-0.5-0.8-1.3-1.3-2.3-1.3l-2.1,0c-0.6,0-1.1-0.2-1.6-0.5l0,0
			c-0.6-0.5-1-1.2-1-2.1l0-1c0-1.4-1.2-2.6-2.6-2.6l-6.6,0.1L15.9,5.7c-1.4,0-2.6,1.1-2.6,2.6l0,1c0,0.8-0.4,1.6-1,2.1l0,0
			c-0.5,0.3-1,0.5-1.6,0.5l-2.1,0c-0.9,0-1.8,0.5-2.3,1.3l-4.5,7.6c-0.2,0.4-0.4,0.8-0.4,1.3v20.3c0,0.7,0.6,1.3,1.3,1.3h23.5h10.5"
			/>
		<g>
			<polyline class="st3" points="2.2,23.9 2.2,21.9 7.2,12.9 11.8,12.9 			"/>
			<polyline class="st3" points="48.2,23.9 48.2,21.9 42.9,12.9 37.6,12.9 			"/>
			<path class="st3" d="M48.2,23.9h-13l-3,3h-14l-3-3h-13"/>
			<path class="st3" d="M9.2,23.7v-5.2c0-0.9,0.7-1.7,1.7-1.7h28.7c0.9,0,1.7,0.7,1.7,1.7v5.2"/>
			<path class="st3" d="M12.2,16.7v-3.2c0-0.9,0.7-1.6,1.6-1.6h21.9c0.9,0,1.6,0.7,1.6,1.6v3.2"/>
			<path class="st3" d="M14.1,11.4V8.5c0-0.9,0.7-1.7,1.6-1.7h17.6c0.9,0,1.6,0.7,1.6,1.7v2.8"/>
		</g>
		<line class="st4" x1="20.2" y1="32.4" x2="29.6" y2="32.4"/>
		<line class="st4" x1="20.2" y1="31" x2="29.6" y2="31"/>
		<path class="st4" d="M29.2,39.3h-8c-0.6,0-1-0.4-1-1v-4h10v4C30.2,38.8,29.7,39.3,29.2,39.3z"/>
	</g>
</g>
</svg>
