<?xml version="1.0" encoding="utf-8"?>
<!-- Generator: Adobe Illustrator 28.0.0, SVG Export Plug-In . SVG Version: 6.00 Build 0)  -->
<svg version="1.1" id="Layer_1" xmlns="http://www.w3.org/2000/svg" xmlns:xlink="http://www.w3.org/1999/xlink" x="0px" y="0px"
	 viewBox="0 0 50 50" style="enable-background:new 0 0 50 50;" xml:space="preserve">
<style type="text/css">
	.st0{fill:#E589EF;}
	.st1{fill:none;stroke:#444444;stroke-width:2.5;stroke-linecap:round;stroke-linejoin:round;stroke-miterlimit:10;}
	.st2{fill:none;stroke:#444444;stroke-linecap:round;stroke-linejoin:round;stroke-miterlimit:10;}
	.st3{fill:#444444;}
	.st4{fill:none;stroke:#444444;stroke-width:0.5;stroke-linecap:round;stroke-miterlimit:10;}
</style>
<g>
	<path class="st0" d="M47.7,8.5l-6.2-0.7l-13,0.3l-8.2,0.3c-3.2,0-17.9-2.5-17.9,0.7L2,16.8v8.6v6.2l0.3,4l0.4,5.3l7.5,1.2l6.4,0.4
		l31-11C47.7,30.4,48.3,13.2,47.7,8.5z"/>
	<path class="st1" d="M48,34.8V10c0-1-0.8-1.9-1.9-1.9h-42c-1,0-1.9,0.8-1.9,1.9v29.7c0,1,0.8,1.9,1.9,1.9h33.1"/>
	<line class="st2" x1="2.3" y1="14.1" x2="48" y2="14.1"/>
	<g>
		<circle class="st3" cx="5.7" cy="11.7" r="0.9"/>
		<circle class="st3" cx="8" cy="11.7" r="0.9"/>
		<circle class="st3" cx="10.3" cy="11.7" r="0.9"/>
	</g>
	<path class="st2" d="M39.7,30.5c-1.8-6.6-2.5-12.3-7.3-12.3H17.9c-4.8,0-5.5,5.7-7.3,12.3c-1.6,5.6,2.5,7.3,4.8,5.5
		c1.6-1.2,3.8-5.9,3.8-5.9h5.9h5.9c0,0,2.2,4.6,3.8,5.9C37.2,37.8,41.3,36.2,39.7,30.5z"/>
	<line class="st4" x1="18.5" y1="21.2" x2="18.5" y2="26.3"/>
	<line class="st4" x1="16" y1="23.8" x2="21" y2="23.8"/>
	<path class="st3" d="M32.3,22.1c0,0.5-0.4,0.9-0.9,0.9s-0.9-0.4-0.9-0.9c0-0.5,0.4-0.9,0.9-0.9S32.3,21.6,32.3,22.1z"/>
	<path class="st3" d="M32.3,26.2c0,0.5-0.4,0.9-0.9,0.9s-0.9-0.4-0.9-0.9s0.4-0.9,0.9-0.9S32.3,25.8,32.3,26.2z"/>
	<path class="st3" d="M29.3,23.3c0.5,0,0.9,0.4,0.9,0.9c0,0.5-0.4,0.9-0.9,0.9c-0.5,0-0.9-0.4-0.9-0.9
		C28.5,23.7,28.9,23.3,29.3,23.3z"/>
	<path class="st3" d="M33.6,23.3c0.5,0,0.9,0.4,0.9,0.9c0,0.5-0.4,0.9-0.9,0.9s-0.9-0.4-0.9-0.9C32.7,23.7,33.1,23.3,33.6,23.3z"/>
</g>
</svg>
