<svg xmlns="http://www.w3.org/2000/svg" id="Camada_1" data-name="Camada 1" version="1.1" viewBox="0 0 50 50"><defs><style>.cls-1{stroke-width:.5px}.cls-1,.cls-2{fill:none;stroke:#444;stroke-linecap:round;stroke-linejoin:round}</style></defs><path fill="#a475ef" stroke-width="0" d="M48.7 7.9l.2-2.6c.2-1.9-1.3-3.6-3.3-3.6L6.2 1.5C4.4 1.5 2.9 3 2.9 4.8v26.7l-.3 12.3c0 1.9 1.5 3.4 3.3 3.4l18-.2c.4 0 .8 0 1.1-.2L48.6 38V14l.6-.1-.5-5.4v-.6z"/><path fill="none" stroke="#444" stroke-linecap="round" stroke-linejoin="round" stroke-width="2.5" d="M32.7 47.7h-27c-1.9 0-3.4-1.6-3.4-3.5V5.3c0-1.9 1.5-3.5 3.4-3.5h39c1.9 0 3.4 1.6 3.4 3.5v32.5"/><path d="M22.3 36.8c0 .3-.4.5-.6.2-.6-.8-1.5-1.3-2.6-1.3H2.7V9.1H19c1.8 0 3.2 1.4 3.2 3.2v24.5zm19.5-11V9.1H25.5c-1.8 0-3.2 1.4-3.2 3.2v24.6c0 .3.4.4.6.2.6-.8 1.5-1.4 2.6-1.4h5" class="cls-2"/><path d="M44.8 30.7c-.1-.6-.6-1.1-1.2-1.2.3-.5.2-1.2-.1-1.7-.4-.5-.9-.7-1.5-.7 0-.6-.3-1.1-.8-1.4-.5-.3-1.2-.3-1.7 0-.2-.6-.7-1-1.3-1.1-.6 0-1.2.1-1.5.6-.4-.4-1-.6-1.5-.5-.6.1-1.1.6-1.2 1.2-.5-.3-1.2-.2-1.7.1-.5.4-.7.9-.7 1.5-.6 0-1.1.3-1.4.8-.3.5-.3 1.2 0 1.7-.6.2-1 .7-1.1 1.3 0 .6.1 1.2.6 1.5-.4.4-.6 1-.5 1.5.1.6.6 1.1 1.2 1.2-.3.5-.2 1.2.1 1.7.4.5.9.7 1.5.7 0 .6.3 1.1.8 1.4.5.3 1.2.3 1.7 0 .2.6.7 1 1.3 1.1.6 0 1.2-.1 1.5-.6.4.4 1 .6 1.5.5.6-.1 1.1-.6 1.2-1.2.5.3 1.2.2 1.7-.1.5-.4.7-.9.7-1.5.6 0 1.1-.3 1.4-.8.3-.5.3-1.2 0-1.7.6-.2 1-.7 1.1-1.3 0-.6-.1-1.2-.6-1.5.4-.4.6-1 .5-1.5z" class="cls-2"/><path d="M38.2 37.5c-2.7.6-5.4-1.1-6.1-3.8-.6-2.7 1.1-5.4 3.8-6.1 2.7-.6 5.4 1.1 6.1 3.8.6 2.7-1.1 5.4-3.8 6.1z" class="cls-1"/><path d="M35.9 40.4l-1.5 4.2-1.4-1.7-2.1.5 1.5-4.5m5.7 1.4l1.5 4.3 1.4-1.7 2.2.5-1.5-4.4" class="cls-2"/><path d="M35.2 15.3h2.1m-10.6 0h6.2m-6.2 6.4h6.4m-1.4-3.2h5.6m-10.6 0h2.9M13 15.3h4.8m-10.6 0h3.1m6.1 3.2h1.4m-10.6 0h6.5M7.2 28h6.9m-2.5-3.1h6.2m-10.6 0H9m-1.8-3.2h10.6" class="cls-1"/></svg>