<svg xmlns="http://www.w3.org/2000/svg" id="Camada_1" data-name="Camada 1" version="1.1" viewBox="0 0 300 300"><defs><clipPath id="clippath"><path d="M-438.6 208.8h313v222.5h-313z" class="cls-16"/></clipPath><clipPath id="clippath-1"><path d="M-438.5 208.9h313v222.5h-313z" class="cls-16"/></clipPath><style>.cls-16{stroke-width:0;fill:none}</style></defs><path id="Camada_10" fill="#008dd3" stroke-width="0" d="M291.3 149.4c.1 20.8-4.3 40.5-12.2 58.4-22.1 49.9-71.9 84.7-130 84.9-15.4.1-30.3-2.4-44.2-6.8-26.2-8.4-49-24.1-66.1-44.9C21 219.6 9.4 192.8 6.5 163.4c-.4-4.2-.6-8.6-.6-12.9-.2-48.4 23.8-91.4 60.7-117.3 4.8-3.5 9.9-6.5 15.1-9.2 7.3-4 15.1-7.1 23.1-9.9 7.5-2.4 15.4-4.2 23.5-5.4 6.5-.8 13.1-1.4 19.8-1.5 26.2-.1 50.8 6.9 72.1 19.2 3.9 2.2 7.4 4.5 11 7.1 17 12.1 31.2 27.8 41.6 46 1.2 2.1 2.3 4.1 3.4 6.3.8 1.9 1.8 3.7 2.6 5.6 2.7 6.1 5 12.3 6.9 18.7 2.1 7.1 3.7 14.6 4.5 22 .7 5.7 1.2 11.4 1.2 17.3z" data-name="Camada 10"/><g id="computer-2" stroke-width="0" data-name="computer"><path fill="#4ebfe9" d="M294.2 214.4H56.9v-136c0-10.8 8.8-19.6 19.6-19.6h198.2c10.8 0 19.6 8.8 19.6 19.6v136h-.1z"/><path fill="#eaeaea" d="M278.5 201.6c2.4 0 4.3-1.9 4.3-4.3V78.5c0-3.8-3.1-6.9-6.9-6.9H79.1c-5.3 0-9.7 4.3-9.7 9.7v116.2c0 2.4 1.9 4.3 4.3 4.3l204.8-.2z"/><path fill="#1a00d6" d="M281.6 242H69.4c-6.9 0-12.6-5.6-12.6-12.6v-15h237.4v15c0 7-5.6 12.6-12.6 12.6z"/></g><path fill="none" stroke="#54c654" stroke-miterlimit="10" stroke-width="4" d="M282.8 93.2H69.3"/><circle cx="268.6" cy="82.8" r="5.2" fill="#ef3030" stroke-width="0"/><circle cx="251.7" cy="82.8" r="5.2" fill="#ed9751" stroke-width="0"/><circle cx="234.7" cy="82.8" r="5.2" fill="#00bf5f" stroke-width="0"/><path fill="none" stroke="#4d5152" stroke-linecap="round" stroke-linejoin="round" stroke-width="2" d="M90.7 109h40.2m-30.7 12.7h165.5m-165.5 12.5h165.5m-165.5 24h90.3m-90.3 11.7h60.5m-60.5 13h45.6m-45.6-36.5h165.5"/><path fill="#ffd200" stroke-width="0" d="M226.4 105.2c7.9-.7 16.3.4 24.7 3.4 26.7 9.6 41 35.2 30.2 61.6-5.6 13.6-17.9 20.1-30.1 26.3-8.8 4.4-7.8 15-15.3 21.3-1.2 1-4.2 3-4.2 3L198 209.9s-1.3-3.5-1.7-5.1c-2.4-9.5 4.5-17.4 0-26.1-6.4-12.2-12.3-24.8-9-39.3 3.3-14.4 11.8-24.4 22.9-29.9 0 0 8.1-3.7 16.2-4.4z"/><path fill="none" stroke="#515759" stroke-miterlimit="10" stroke-width="2" d="M215.6 230.5l-1-.3c1.9-5.7 3.5-11.2 5.1-16.4 1.4-4.8 2.9-9.7 4.6-14.8 3.3-10.1 6.4-17.5 10.1-24l-1.2-1.5c-.9-1.1-2-3.2-3-5.8-2 1.2-4 2.1-5.9 2.9-.6.2-1.3.5-1.9.6-.8 7.4-2.6 15.2-5.8 25.3-1.6 5.1-3.3 10-4.9 14.7-1.8 5.2-3.6 10.6-5.4 16.3l-1-.3c1.8-5.8 3.7-11.1 5.4-16.3 1.6-4.7 3.3-9.6 4.9-14.7 3.1-9.8 4.9-17.5 5.7-24.7-2.1.4-4 .3-5.8-.3-3.1-1-5.4-3.6-5.8-6.5-.4-3.2 1.9-6.5 4.9-6.9 3.1-.5 5.9 1.9 7 4.5 1.1 2.5 1.1 5.3.9 7.9.5-.1.9-.3 1.4-.5 1.9-.7 3.9-1.7 5.9-2.9l-.6-2.1c-1.3-5.3-.8-12.1 3.5-15.4 2.2-1.7 4.7-1.4 6.2-.3 1.7 1.2 2.6 4.4 1.2 8.1-1.7 4.5-5.2 7.8-9 10.2 1.2 3.4 2.7 5.4 2.9 5.7.3.4.6.8.9 1.1 1.4-2.3 2.9-4.5 5.3-5.9 2.4-1.4 6.1-1.7 8.3.5 2.2 2.1 2.2 6.1 0 8.5-2 2.1-5.4 2.9-8.5 1.9-1.9-.6-3.5-1.8-4.8-3.2-3.6 6.4-6.7 13.6-9.9 23.5-1.6 5.1-3.1 10-4.6 14.8-1.6 5.3-3.2 10.7-5.1 16.5zm1.3-71.6c-.6-.2-1.3-.3-2-.2-2.4.4-4.3 3.1-4 5.8.3 2.5 2.4 4.8 5.1 5.6 1.7.5 3.6.6 5.6.2.2-2.6.3-5.4-.7-7.8-.7-1.6-2.1-3.1-3.9-3.7zm18.8 15.9c1.3 1.4 2.7 2.6 4.5 3.2h0c2.7.9 5.7.2 7.4-1.6 1.8-2 1.9-5.3.1-7-1.9-1.8-5-1.5-7-.3-2.2 1.3-3.8 3.5-5.1 5.8zm1.6-25.6c-1-.3-2.5-.4-4 .8-3.8 3-4.3 9.4-3.1 14.3.2.6.3 1.2.5 1.8 3.5-2.3 6.7-5.4 8.3-9.6 1.3-3.4.3-6.1-.8-6.9-.2-.2-.6-.3-1-.5z"/><path fill="#515759" stroke-width="0" d="M233.2 220.8c-2.6 6.6-5.3 13.3-7.9 20.3-.3.9-.7 1.7-1 2.6-.7 1.7-1.3 3.5-2 5.2-.1.3-.2.6-.4 1-.2.6-.5 1.1-.8 1.6-1.6 2.4-4.6 3.9-8.1 4-7.1.1-14.4-2.2-20.1-6.5-3.4-2.5-4.9-6.3-4-9.7.2-.7.4-1.4.5-2 0-.2.1-.5.2-.7.7-2.5 1.3-5 2-7.5 0-.2.1-.4.2-.6 1.7-6.6 3.4-13 4.9-19.3l36.5 11.8z"/><path fill="#ddd" stroke-width="0" d="M230.4 231.3l-.9 2c-.3.6-1 .8-1.6.6l-34.4-14c-.6-.3-.9-.9-.7-1.5l.9-2c.3-.6 1-.8 1.6-.6l34.4 14c.6.3.9.9.7 1.5zm-2.6 8.1l-.9 2c-.3.6-1 .8-1.6.6l-34.4-14c-.6-.3-.9-.9-.7-1.5l.9-2c.3-.6 1-.8 1.6-.6l34.4 14c.6.3.9.9.7 1.5zm-2.6 8.2l-.9 2c-.3.6-1 .8-1.6.6l-34.4-14c-.6-.3-.9-.9-.7-1.5l.9-2c.3-.6 1-.8 1.6-.6l34.4 14c.6.3.9.9.7 1.5z"/><path fill="#fff" stroke-width="0" style="isolation:isolate" d="M80.3 154.2s4.4-10.4 11.1-1.5c6.7 8.9 0 13.7 0 13.7s-8.5 6.4-11.1 0c-2.6-6.5 0-12.2 0-12.2zm25.4-77.5s-27.4-3-27.9 21.9v34.6s0 6.3 5 6.1c2.1-.1 6.2 0 6.7-6.1.6-8.1 0-25 11.1-34.6 10.1-8.7 25.5-9.3 34.4-11.2 11-2.4 11-11.2.6-11-10 .2-29.9.3-29.9.3z" opacity=".2"/><g style="isolation:isolate" opacity=".4"><path fill="#fff" stroke-width="0" d="M192.5 153.6c-2.1-18.1 8.8-38.2 27.2-43.1 6-1.6 12.4-1.4 18.2.5 2.7.8 4.2 3.7 3.4 6.4-.6 2-2.3 3.3-4.3 3.6-6.8 1.4-12.1 2.9-17.1 6.9-7.4 5.9-11.7 15.1-15.9 23.7-.7 1.4-1.5 3.1-2.4 4.3-2.6 3.8-8.6 2.2-9.1-2.3z"/></g><g><path fill="#ddd" stroke="#515759" stroke-miterlimit="10" stroke-width="4" d="M48.3 127.9l4.9-6.4-12.6-9.1c-.3-.2-.5-.6-.6-.9 0-.4 0-.7.2-1l6.8-8.8c.3-.3.6-.4 1.1-.5.3 0 .6 0 .8.3l12.2 9.5 4.5-6.5c1.4-2 4.3-1.9 5.5.2 4.9 8.2 15.4 25.9 19.6 34.1.7 1.3-.3 2.7-1.8 2.5-9.2-1.4-29.4-6-38.8-8.1-2.3-.5-3.3-3.3-1.9-5.2z"/><path style="isolation:isolate" fill="#fff" stroke-width="0" d="M83.9 136.9c-1.8-.2-5.6-.8-13.2-2.3-3.1-.4-15.4-3.1-16.8-3.8-3.9-.5-1.2-2.5 1.3-6.6.9-.9 2.3-1.2 3.4-.7l4.9 2c3.9 2 10.8 4.6 13.8 6 3.7 1.8 6.2 3.2 7.4 4.3.5.5 0 1.2-.7 1z" opacity=".4"/><path style="isolation:isolate" fill="#fff" stroke-width="0" d="M71.6 133.1c-1-.2-3.2-.7-7.6-1.8-1.8-.3-7.4-1.6-8.3-1.9-1.7-.3-1.5-1.5-.5-2.8s1.8-1.2 2.8-.8l2.2.8h.2c2.2 1.1 6 2.6 7.7 3.5 2.1 1.1 3.5 1.8 4.1 2.4.3.3 0 .5-.5.5z" opacity=".6"/></g></svg>