<?xml version="1.0" encoding="UTF-8"?>
<svg width="49px" height="46px" viewBox="0 0 49 46" version="1.1" xmlns="http://www.w3.org/2000/svg" xmlns:xlink="http://www.w3.org/1999/xlink">
    <title>Group 25</title>
    <defs>
        <polygon id="path-1" points="0.0004 0.575 48.602 0.575 48.602 45 0.0004 45"></polygon>
    </defs>
    <g id="Page-1" stroke="none" stroke-width="1" fill="none" fill-rule="evenodd">
        <g id="Group-25">
            <polygon id="Fill-1" fill="#AFE55D" points="0.6165 16.8966 0.6565 23.2326 1.2135 34.2886 47.9865 17.2646 47.2405 11.9886 46.7645 4.4176 41.5245 2.0746"></polygon>
            <polygon id="Fill-2" fill="#C3FF68" points="4.6683 2.0745 1.6433 5.0155 0.5123 22.4495 48.0903 5.4545 45.8053 2.1705 34.1653 1.9065"></polygon>
            <g id="Group-24" transform="translate(0.000000, 0.424800)">
                <g id="Group-5">
                    <mask id="mask-2" fill="white">
                        <use xlink:href="#path-1"></use>
                    </mask>
                    <g id="Clip-4"></g>
                    <path d="M15.8174,45 L4.3234,45 C1.9394,45 0.0004,43.061 0.0004,40.677 L0.0004,4.898 C0.0004,2.515 1.9394,0.575 4.3234,0.575 L44.2784,0.575 C46.6624,0.575 48.6024,2.515 48.6024,4.898 L48.6024,26.231 C48.6024,26.922 48.0424,27.481 47.3524,27.481 C46.6614,27.481 46.1024,26.922 46.1024,26.231 L46.1024,4.898 C46.1024,3.893 45.2834,3.075 44.2784,3.075 L4.3234,3.075 C3.3184,3.075 2.5004,3.893 2.5004,4.898 L2.5004,40.677 C2.5004,41.682 3.3184,42.5 4.3234,42.5 L15.8174,42.5 C16.5074,42.5 17.0674,43.06 17.0674,43.75 C17.0674,44.44 16.5074,45 15.8174,45" id="Fill-3" fill="#444444" mask="url(#mask-2)"></path>
                </g>
                <path d="M7.5317,7.4048 C7.5317,7.9138 7.1197,8.3258 6.6107,8.3258 C6.1017,8.3258 5.6897,7.9138 5.6897,7.4048 C5.6897,6.8958 6.1017,6.4838 6.6107,6.4838 C7.1197,6.4838 7.5317,6.8958 7.5317,7.4048" id="Fill-6" fill="#424242"></path>
                <path d="M10.5518,7.4048 C10.5518,7.9138 10.1398,8.3258 9.6308,8.3258 C9.1218,8.3258 8.7098,7.9138 8.7098,7.4048 C8.7098,6.8958 9.1218,6.4838 9.6308,6.4838 C10.1398,6.4838 10.5518,6.8958 10.5518,7.4048" id="Fill-8" fill="#424242"></path>
                <path d="M13.5723,7.4048 C13.5723,7.9138 13.1593,8.3258 12.6513,8.3258 C12.1423,8.3258 11.7303,7.9138 11.7303,7.4048 C11.7303,6.8958 12.1423,6.4838 12.6513,6.4838 C13.1593,6.4838 13.5723,6.8958 13.5723,7.4048" id="Fill-10" fill="#424242"></path>
                <path d="M24.4668,39.3389 C30.9548,39.3389 36.2148,34.1179 36.2148,27.6779 C36.2148,21.2369 30.9548,16.0169 24.4668,16.0169 C17.9788,16.0169 12.7188,21.2369 12.7188,27.6779 C12.7188,34.1179 17.9788,39.3389 24.4668,39.3389 M25.0598,35.6419 C27.9048,36.7369 30.9778,36.8739 32.5448,34.1199 L32.5458,34.1189 C33.0548,32.4849 32.9728,30.8219 32.4748,29.2299 C31.8858,30.1379 31.1878,31.0199 30.4048,31.8389 C30.4678,32.0049 30.5028,32.1859 30.5028,32.3729 C30.5028,33.2069 29.8238,33.8829 28.9858,33.8829 C28.7408,33.8829 28.5088,33.8249 28.3048,33.7229 C27.2918,34.4959 26.1978,35.1519 25.0598,35.6419 M16.1788,20.6959 C15.4928,22.5799 15.5588,24.6859 16.1868,26.7029 C16.8308,25.6099 17.6258,24.5589 18.5398,23.5939 C18.4518,23.4559 18.4018,23.2919 18.4018,23.1149 C18.4018,22.6259 18.7938,22.2279 19.2768,22.2279 C19.4678,22.2279 19.6448,22.2899 19.7888,22.3959 C20.8848,21.4399 22.1048,20.6069 23.4078,19.9539 C20.8408,18.8809 18.3518,18.7329 16.8338,19.9949 L16.8288,19.9919 C16.6018,20.2169 16.3848,20.4519 16.1788,20.6959 M24.0088,19.2449 C24.5848,18.1019 25.1628,17.2729 25.6918,16.9249 C25.2838,16.8789 24.8688,16.8549 24.4478,16.8549 C22.6078,16.8549 20.8748,17.3139 19.3588,18.1239 L19.3678,18.1229 C20.7998,18.0929 22.4038,18.5049 24.0088,19.2449 M20.7188,37.6929 C20.5628,37.3929 20.4458,37.0179 20.3638,36.5799 C19.5178,36.5459 18.6728,36.3929 17.8408,36.1029 C18.7048,36.7709 19.6738,37.3109 20.7188,37.6929 M21.2898,34.0329 C21.2618,34.6099 21.2588,35.1519 21.2828,35.6499 C21.9178,35.5809 22.5548,35.4429 23.1878,35.2429 C22.5088,34.8559 21.8668,34.4419 21.2898,34.0329 M27.6148,18.5709 C27.5108,18.0109 27.3508,17.5439 27.1288,17.1889 C27.0208,17.1619 26.9138,17.1359 26.8038,17.1109 C26.2858,17.3679 25.7168,18.1229 25.1468,19.2089 C25.9498,18.9229 26.7748,18.7069 27.6148,18.5709 M27.7328,21.5609 C27.7848,20.6409 27.7748,19.7979 27.6898,19.0739 C26.7668,19.1219 25.8338,19.3329 24.9128,19.6719 L24.9038,19.6919 C25.8708,20.2099 26.8258,20.8409 27.7328,21.5609 M22.4328,38.1649 C22.8958,37.8759 23.4218,37.1209 23.9568,36.0569 C23.1078,36.3309 22.2398,36.5079 21.3678,36.5669 C21.4528,37.1569 21.5928,37.6519 21.7968,38.0259 C22.0058,38.0779 22.2178,38.1249 22.4328,38.1649 M24.4678,35.9179 C23.9458,36.9969 23.4318,37.8179 22.9698,38.2529 C23.4528,38.3179 23.9468,38.3529 24.4478,38.3529 C26.2628,38.3529 27.9738,37.9059 29.4748,37.1169 C27.9318,37.2669 26.1438,36.7229 24.4678,35.9179 M14.6678,30.3229 C14.3438,30.2399 14.0958,30.1449 13.9348,30.0399 C14.0598,30.5749 14.2238,31.0949 14.4258,31.5969 C14.4798,31.1739 14.5608,30.7489 14.6678,30.3229 M17.6908,30.6919 C16.6628,30.6449 15.7818,30.5519 15.1118,30.4229 C14.8868,31.5519 14.9518,32.5909 15.3818,33.4359 C15.5198,33.6489 15.6668,33.8579 15.8198,34.0599 C17.1808,35.1719 18.6968,35.6659 20.2518,35.6949 C20.1978,34.9809 20.2088,34.1609 20.2738,33.2709 C20.1818,33.1969 20.0928,33.1249 20.0078,33.0549 C19.8648,32.9359 19.7238,32.8149 19.5848,32.6909 C19.4768,32.7429 19.3548,32.7739 19.2258,32.7739 C18.7968,32.7739 18.4488,32.4429 18.4488,32.0339 C18.4488,31.9049 18.4838,31.7839 18.5448,31.6789 C18.2458,31.3609 17.9608,31.0309 17.6908,30.6919 M20.5798,30.7099 C19.7668,30.7339 18.9918,30.7339 18.2768,30.7139 C18.4538,30.9469 18.6398,31.1749 18.8328,31.3969 C18.9478,31.3319 19.0828,31.2949 19.2258,31.2949 C19.6548,31.2949 20.0028,31.6259 20.0028,32.0339 C20.0028,32.1909 19.9508,32.3359 19.8638,32.4559 C20.0088,32.5889 20.1578,32.7189 20.3088,32.8459 C20.3708,32.1639 20.4628,31.4469 20.5798,30.7099 M31.2248,29.0809 C29.7788,29.5399 28.1998,29.8919 26.5998,30.1499 C26.1478,31.6949 25.6388,33.1709 25.1198,34.4429 C25.9648,34.0109 26.7848,33.4829 27.5578,32.8849 C27.5008,32.7259 27.4688,32.5529 27.4688,32.3729 C27.4688,31.5389 28.1478,30.8629 28.9858,30.8629 C29.2178,30.8629 29.4378,30.9149 29.6348,31.0079 C30.2188,30.3939 30.7538,29.7449 31.2248,29.0809 M35.2348,27.2429 C34.6078,27.6689 33.8888,28.0499 33.1018,28.3879 C33.6988,29.8469 33.9938,31.3579 33.8708,32.8479 C34.7428,31.2969 35.2408,29.5079 35.2408,27.6039 C35.2408,27.4839 35.2388,27.3629 35.2348,27.2429 M15.3128,29.6289 C15.8048,29.7059 16.3858,29.7669 17.0358,29.8079 C16.6318,29.2169 16.2738,28.6029 15.9728,27.9739 C15.6988,28.5329 15.4768,29.0879 15.3128,29.6289 M25.1818,30.3529 C25.0188,30.8369 24.5858,31.1829 24.0768,31.1829 C23.6488,31.1829 23.2748,30.9379 23.0688,30.5729 C22.5938,30.6109 22.1258,30.6429 21.6658,30.6669 C21.4978,31.6979 21.3768,32.6939 21.3148,33.6149 C22.0298,34.1199 22.8558,34.6219 23.7328,35.0559 C24.0148,34.9509 24.2958,34.8349 24.5738,34.7069 C25.1168,33.4139 25.6498,31.8639 26.1208,30.2239 C25.8078,30.2709 25.4948,30.3139 25.1818,30.3529 M15.6808,27.6319 C14.7338,28.0249 14.0438,28.3949 13.7108,28.6929 C13.7278,28.8579 13.7478,29.0219 13.7718,29.1839 C13.9928,29.3259 14.3758,29.4509 14.8888,29.5539 C15.0978,28.9079 15.3638,28.2659 15.6808,27.6319 M20.7888,26.0299 C19.1288,26.4279 17.6178,26.8929 16.4058,27.3469 C16.7288,28.2089 17.1538,29.0489 17.6638,29.8409 C18.5878,29.8789 19.6248,29.8819 20.7268,29.8429 C20.9128,28.8129 21.1428,27.7539 21.4048,26.7069 C21.1468,26.5389 20.9338,26.3059 20.7888,26.0299 M28.8548,24.9619 C28.5138,24.9639 28.1708,24.9739 27.8238,24.9889 C27.7578,25.3629 27.6838,25.7399 27.6058,26.1209 C27.9248,26.2619 28.1478,26.5799 28.1478,26.9489 C28.1478,27.4499 27.7398,27.8569 27.2358,27.8569 L27.2158,27.8569 C27.1038,28.3129 26.9858,28.7689 26.8628,29.2209 C28.6548,28.9119 30.4088,28.4849 31.9648,27.9169 C31.6308,27.1939 31.2158,26.4929 30.7378,25.8219 C30.5648,25.9009 30.3738,25.9449 30.1728,25.9449 C29.5538,25.9449 29.0308,25.5309 28.8548,24.9619 M33.1068,25.3869 C32.5748,25.2599 32.0168,25.1639 31.4408,25.0949 C31.4128,25.1619 31.3798,25.2259 31.3418,25.2859 C31.7548,25.8519 32.1288,26.4349 32.4548,27.0319 C32.7248,26.4789 32.9448,25.9269 33.1068,25.3869 M35.1348,26.0959 C34.8208,25.9429 34.4908,25.8069 34.1438,25.6879 C33.9948,26.2019 33.7998,26.7239 33.5648,27.2439 C34.1468,26.9629 34.6838,26.6549 35.1648,26.3199 C35.1558,26.2449 35.1458,26.1709 35.1348,26.0959 M34.3088,25.0469 C34.5498,25.1309 34.7788,25.2249 34.9978,25.3269 C34.8748,24.7569 34.7058,24.2039 34.4958,23.6719 C34.4748,24.1189 34.4118,24.5789 34.3088,25.0469 M31.5508,24.4699 C32.1558,24.5329 32.7318,24.6249 33.2708,24.7489 C33.6318,23.0739 33.3808,21.5499 32.2868,20.4809 C31.0278,19.5189 29.6418,19.0889 28.2188,19.0649 C28.3198,19.8909 28.3158,20.8789 28.2278,21.9669 C28.7088,22.3729 29.1728,22.8029 29.6138,23.2549 C29.7848,23.1769 29.9728,23.1339 30.1728,23.1339 C30.9118,23.1339 31.5158,23.7269 31.5508,24.4699 M27.9248,24.3939 C28.2198,24.3799 28.5128,24.3699 28.8018,24.3649 C28.8288,24.1509 28.9008,23.9529 29.0098,23.7809 C28.7258,23.4949 28.4318,23.2179 28.1298,22.9519 C28.0738,23.4209 28.0058,23.9019 27.9248,24.3939 M16.8058,26.5019 C17.9048,26.1259 19.2008,25.7599 20.5988,25.4399 C20.5878,25.3559 20.5818,25.2699 20.5818,25.1829 C20.5818,24.1839 21.3788,23.3739 22.3638,23.3719 C22.7308,22.2519 23.1228,21.2039 23.5228,20.2859 C22.2988,20.9149 21.1218,21.7489 20.0538,22.7069 C20.1168,22.8289 20.1518,22.9679 20.1518,23.1149 C20.1518,23.6059 19.7598,24.0029 19.2768,24.0029 C19.1208,24.0029 18.9748,23.9619 18.8478,23.8889 C18.0718,24.7179 17.3818,25.6039 16.8058,26.5019 M13.6628,27.9799 C14.0368,27.6669 14.6908,27.3209 15.5468,26.9709 C14.9758,25.4339 14.7628,23.8429 15.0468,22.3219 C14.1618,23.8819 13.6558,25.6839 13.6558,27.6039 C13.6558,27.7299 13.6578,27.8549 13.6628,27.9799 M26.4568,25.0829 C26.4028,25.4019 26.1328,25.6469 25.8058,25.6469 C25.5288,25.6469 25.2908,25.4699 25.1938,25.2199 C24.8428,25.2649 24.4938,25.3139 24.1468,25.3669 C24.0568,26.2639 23.3218,26.9659 22.4208,26.9919 C22.1908,27.9249 21.9878,28.8669 21.8178,29.7909 C22.1798,29.7709 22.5478,29.7439 22.9188,29.7139 C23.0148,29.1239 23.4968,28.6749 24.0768,28.6749 C24.5758,28.6749 25.0028,29.0069 25.1728,29.4759 C25.5738,29.4229 25.9748,29.3649 26.3758,29.3019 C26.5138,28.7809 26.6458,28.2559 26.7688,27.7289 C26.5028,27.5699 26.3238,27.2799 26.3238,26.9489 C26.3238,26.4849 26.6758,26.1009 27.1308,26.0489 C27.1988,25.7019 27.2618,25.3589 27.3198,25.0169 C27.0328,25.0339 26.7448,25.0569 26.4568,25.0829 M25.8058,24.2899 C25.9988,24.2899 26.1728,24.3749 26.2928,24.5109 C26.6698,24.4759 27.0448,24.4449 27.4178,24.4219 C27.5168,23.7799 27.5978,23.1519 27.6568,22.5499 C26.6698,21.7369 25.6088,21.0369 24.5408,20.4839 C24.1308,21.4269 23.7298,22.5119 23.3568,23.6729 C23.7318,23.9259 24.0078,24.3179 24.1118,24.7769 C24.4858,24.7219 24.8618,24.6699 25.2378,24.6249 C25.3518,24.4249 25.5638,24.2899 25.8058,24.2899 M27.7288,17.3599 C27.9058,17.6659 28.0368,18.0499 28.1288,18.4979 C28.7608,18.4219 29.4008,18.3919 30.0458,18.4129 L30.0478,18.4129 C29.3258,17.9759 28.5498,17.6209 27.7288,17.3599" id="Fill-12" fill="#444444"></path>
                <path d="M9.4048,16.834 L9.4048,16.834 C9.6168,16.495 10.0678,16.391 10.4068,16.603 L13.3668,18.452 C13.7068,18.664 13.8108,19.115 13.5988,19.455 C13.3868,19.794 12.9358,19.898 12.5958,19.687 L9.6358,17.837 C9.2968,17.625 9.1928,17.174 9.4048,16.834" id="Fill-14" fill="#444444"></path>
                <path d="M16.1763,11.1206 L16.1763,11.1206 C16.5393,10.9516 16.9743,11.1096 17.1433,11.4726 L18.6183,14.6356 C18.7873,14.9986 18.6293,15.4336 18.2663,15.6026 L18.2663,15.6026 C17.9043,15.7716 17.4683,15.6136 17.2993,15.2506 L15.8243,12.0876 C15.6553,11.7246 15.8133,11.2896 16.1763,11.1206" id="Fill-16" fill="#444444"></path>
                <path d="M24.3955,9.2124 L24.3955,9.2124 C24.7955,9.2124 25.1235,9.5404 25.1235,9.9404 L25.1235,13.4304 C25.1235,13.8304 24.7955,14.1584 24.3955,14.1584 C23.9955,14.1584 23.6675,13.8304 23.6675,13.4304 L23.6675,9.9404 C23.6675,9.5404 23.9955,9.2124 24.3955,9.2124" id="Fill-18" fill="#444444"></path>
                <path d="M32.5991,11.127 L32.5991,11.127 C32.9611,11.296 33.1201,11.731 32.9511,12.094 L31.4761,15.257 C31.3071,15.62 30.8711,15.778 30.5091,15.609 L30.5081,15.609 C30.1461,15.44 29.9881,15.005 30.1571,14.642 L31.6321,11.479 C31.8011,11.116 32.2361,10.958 32.5991,11.127" id="Fill-20" fill="#444444"></path>
                <path d="M39.1978,16.8599 L39.1978,16.8599 C39.4098,17.1999 39.3058,17.6509 38.9668,17.8629 L36.0068,19.7129 C35.6678,19.9239 35.2168,19.8199 35.0038,19.4809 C34.7918,19.1419 34.8958,18.6909 35.2348,18.4779 L38.1948,16.6289 C38.5348,16.4169 38.9858,16.5209 39.1978,16.8599" id="Fill-22" fill="#444444"></path>
            </g>
        </g>
    </g>
</svg>