<?xml version="1.0" encoding="UTF-8"?>
<svg id="Camada_3" xmlns="http://www.w3.org/2000/svg" version="1.1" viewBox="0 0 50 50">
  <!-- Generator: Adobe Illustrator 29.7.1, SVG Export Plug-In . SVG Version: 2.1.1 Build 8)  -->
  <defs>
    <style>
      .st0, .st1, .st2 {
        fill: none;
        stroke: #444;
        stroke-linecap: round;
        stroke-linejoin: round;
      }

      .st3 {
        fill: #00dffc;
      }

      .st1 {
        stroke-width: 2.5px;
      }

      .st4 {
        fill: #444;
      }

      .st2 {
        stroke-width: .5px;
      }
    </style>
  </defs>
  <path class="st3" d="M44.53,5.01H4.88c-1.35,0-1.38,3.71-1.38,5.05l-.17,12.49-.52,9.81,1.2,11.36,11.96.59,31-11.03V7.45c0-1.35-1.09-2.44-2.44-2.44Z"/>
  <path class="st1" d="M32.35,44.99H6.3c-1.8,0-3.27-1.52-3.27-3.42V7.89c0-1.88,1.47-3.42,3.27-3.42h37.64c1.8,0,3.27,1.52,3.27,3.42v27.47"/>
  <g>
    <path class="st0" d="M35.19,23.21c0-7.25-5.88-13.13-13.13-13.13s-13.13,5.88-13.13,13.13,13.13,20.74,13.13,20.74c0,0,13.13-13.59,13.13-20.74Z"/>
    <g>
      <g>
        <line class="st2" x1="15.34" y1="15.25" x2="15.34" y2="36.09"/>
        <path class="st2" d="M15.51,26.91s4.3-1.89,7.75.2c3.45,2.08,5.67-1.04,5.67-1.04v-9.86s-2.48,3.35-7.03,1.46c-4.56-1.89-6.32.07-6.32.07"/>
      </g>
      <polyline class="st0" points="20.03 21.88 21.2 23.6 24.4 20.43"/>
    </g>
  </g>
  <circle class="st4" cx="22.05" cy="44.99" r="2.56"/>
  <circle class="st4" cx="3.03" cy="5.01" r="2.56"/>
  <circle class="st4" cx="46.97" cy="5.01" r="2.56"/>
  <circle class="st4" cx="46.97" cy="37.05" r="2.56"/>
</svg>