<svg xmlns="http://www.w3.org/2000/svg" version="1" viewBox="0 0 50 50"><path fill="#E56060" d="M11.527 41.865c.135.109.279.202.416.307L46.046 29.76a21.737 21.737 0 0 0-.107-10.043.937.937 0 0 0-1.569-.43L41.955 21.7l-2.608-9.731a1.864 1.864 0 0 0-1.318-1.318L28.288 8.04 30.7 5.629a.939.939 0 0 0-.437-1.572c-7.116-1.786-14.961.11-20.524 5.673-8.989 8.988-8.401 23.927 1.788 32.135zm4.833-21.896l3.058-3.058 2.61 9.742a1.865 1.865 0 0 0 1.318 1.319l9.731 2.607-3.054 3.054a.914.914 0 0 1-.763.268c-1.228-.155-4.764-.919-8.506-4.661-3.742-3.742-4.505-7.277-4.661-8.506a.914.914 0 0 1 .267-.765z"/><path fill="#FF6B6B" d="M28.531 8.13l-.33-.088 2.413-2.412a.939.939 0 0 0-.437-1.572c-7.118-1.787-14.962.109-20.525 5.672a21.477 21.477 0 0 0-4.645 6.962L28.531 8.13z"/><g fill="#444"><path d="M47.069 19.433a2.097 2.097 0 0 0-1.474-1.509 2.105 2.105 0 0 0-2.05.538l-.988.987-2.085-7.78a3.038 3.038 0 0 0-2.143-2.143l-7.792-2.088.987-.986a2.104 2.104 0 0 0-.978-3.526C22.83.99 14.54 3.281 8.915 8.906a22.794 22.794 0 0 0-6.634 17.316c.351 6.532 3.375 12.41 8.516 16.551 4.02 3.239 9.008 4.977 14.197 4.977.538 0 1.08-.019 1.622-.056a1.165 1.165 0 0 0-.162-2.324c-5.169.358-10.217-1.204-14.195-4.411-4.619-3.72-7.335-8.998-7.65-14.86a20.461 20.461 0 0 1 5.954-15.543c4.953-4.956 12.209-7.03 19.025-5.463l-3.552 3.551.037.01-6.042 6.042-.01-.036-4.485 4.484a2.074 2.074 0 0 0-.6 1.735c.183 1.442 1.036 5.225 4.994 9.182 3.958 3.959 7.736 4.811 9.181 4.994a2.07 2.07 0 0 0 1.736-.6l4.481-4.48-.026-.007 6.043-6.043.007.027 3.552-3.553c.683 2.979.69 6.117.019 9.101a1.166 1.166 0 0 0 2.274.512c.781-3.472.736-7.13-.128-10.579zM29.281 32.726c-1.082-.158-4.296-.906-7.703-4.312-3.405-3.404-4.153-6.622-4.312-7.703l1.548-1.549 2.087 7.792a3.041 3.041 0 0 0 2.143 2.143l7.782 2.085-1.545 1.544zm4.461-3.176l-10.093-2.704a.706.706 0 0 1-.496-.495l-2.704-10.095 7.185-7.184 10.095 2.705a.7.7 0 0 1 .494.495l2.705 10.093-7.186 7.185z"/><ellipse cx="30.688" cy="19.311" rx="4.151" ry="4.151" transform="rotate(-45.001 30.687 19.312)"/></g></svg>