<svg xmlns="http://www.w3.org/2000/svg" id="Layer_1" version="1.1" viewBox="0 0 50 50"><defs><style>.st0,.st1{fill:none;stroke:#444;stroke-linecap:round;stroke-linejoin:round}.st1{stroke-width:2.5px}</style></defs><path fill="#fcc34f" d="M41.5 27.5v-7.1c.1 0 1-6.9 1-6.9h-.4v-.9c.3-.6.1-1.3-.3-1.8l-2.2-3.2c-.2-.2-.4-.5-.6-.6l-2.4-1.6c-.3-.2-.5-.4-.6-.6l-1-1.5c-.5-.7-1.2-1.1-2-1.1H12.8c-.6.1-1.2.4-1.7.8L8.4 5.5c-.5.5-.8 1.1-.8 1.8v18.4c-.1.2-.1.5 0 .7 0 .2.1.4.2.5l.2 3.9-.6 14v.2c0 .3.4.4.6.3l33.6-12.2c.2 0 .4-.3.3-.5l-.6-5z"/><path d="M34.2 48H10.9c-1.3 0-2.4-1.1-2.4-2.4V5.5c0-1.3 1.1-2.4 2.4-2.4h21.9c.6 0 1.3.3 1.7.7l6.3 6.3c.5.5.7 1.1.7 1.7V40" class="st1"/><path d="M33.8 3.9v4.5c0 1.3 1.1 2.4 2.4 2.4h4.7" class="st1"/><path d="M12.1 37h23.3c1.4 0 2.4-1.1 2.4-2.4v-3.5c0-1.4-1.1-2.4-2.4-2.4H14.6c-1.4 0-2.4 1.1-2.4 2.4v10.5c0 1.5 1.2 2.6 2.6 2.6h12.7c1.5 0 2.6-1.2 2.6-2.6v-13m7.8 4.3H12.1m5.6 11.4V28.7m6.5 15.6V28.7M30 40.9H12.4m4.1-21.5c0 3 3.5 5.5 6.9 5.5s6.9-2.7 6.9-5.5l.2-5.1H16.3l.2 5.1z" class="st0"/><path d="M30.5 15.4s1.7-2 3-.1-3.2 4.8-3.2 4.8l.2-4.7z" class="st0"/><path fill="none" stroke="#444" stroke-linecap="round" stroke-linejoin="round" stroke-width=".5" d="M20.1 9.2c-.9.4-.9.9-.9 1.1 0 .3.5.4.6.9.2.4 0 .9-.3 1.2m3.7-3.2c-.9.4-.9.9-.9 1.1 0 .3.5.4.6.9.2.4 0 .9-.3 1.2m3.9-3c-.9.4-.9.9-.9 1.1 0 .3.5.4.6.9.2.4 0 .9-.3 1.2"/></svg>