<?xml version="1.0" encoding="UTF-8"?>
<svg id="Camada_1" data-name="Camada 1" xmlns="http://www.w3.org/2000/svg" version="1.1" viewBox="0 0 50 50">
  <defs>
    <style>
      .cls-1 {
        fill: #f9f941;
      }

      .cls-1, .cls-2 {
        stroke-width: 0px;
      }

      .cls-3, .cls-4, .cls-5, .cls-6, .cls-7 {
        fill: none;
        stroke: #444;
      }

      .cls-3, .cls-6 {
        stroke-linecap: round;
      }

      .cls-2 {
        fill: #d1bd00;
      }

      .cls-5, .cls-7 {
        stroke-width: .5px;
      }

      .cls-6 {
        stroke-linejoin: round;
        stroke-width: 2.5px;
      }

      .cls-7 {
        stroke-miterlimit: 10;
      }
    </style>
  </defs>
  <polygon class="cls-2" points="30.9 18.4 39.2 21 32.1 26 32.3 34.7 25.3 29.5 17.1 32.3 19.9 24.1 14.7 17.1 23.4 17.2 28.4 10.1 30.9 18.4"/>
  <path class="cls-1" d="M45.7,6.3H2.3c-1.5,0-1.5,4.1-1.5,5.5l.9,34.5,7.5.4,1.5-4.9h25.2l12.6-4.6V9h0c0-1.5-1.2-2.7-2.7-2.7Z"/>
  <g>
    <path class="cls-6" d="M48.5,38.8V9.2c0-1.4-1.2-2.5-2.6-2.5H4.2c-1.5,0-2.6,1.1-2.6,2.5v35.5c0,1.4,1.2,2.5,2.6,2.5h5.4v-3c0-1.4,1.2-2.5,2.6-2.5h25.5c1.5,0,2.6,1.1,2.6,2.5"/>
    <g>
      <line class="cls-4" x1="7.7" y1="28.1" x2="7.7" y2="19.9"/>
      <path class="cls-4" d="M7.7,16.9v-2.7c0-1.4,1.1-2.5,2.5-2.5h29.2c1.4,0,2.5,1.1,2.5,2.5v20.4c0,1.4-1.1,2.5-2.5,2.5H10.2c-1.4,0-2.5-1.1-2.5-2.5v-3.6"/>
      <path class="cls-5" d="M11,18.3c0,.8-.5,1.4-1.2,1.4h-3.5c-.7,0-1.2-.6-1.2-1.4h0c0-.8.5-1.4,1.2-1.4h3.5c.7,0,1.2.6,1.2,1.4h0Z"/>
      <path class="cls-5" d="M11,29.5c0,.8-.5,1.4-1.2,1.4h-3.5c-.7,0-1.2-.6-1.2-1.4h0c0-.8.5-1.4,1.2-1.4h3.5c.7,0,1.2.6,1.2,1.4h0Z"/>
    </g>
    <path class="cls-7" d="M24.8,16.5c-4,0-7.3,3.3-7.3,7.3s3.3,7.3,7.3,7.3,7.3-3.3,7.3-7.3-3.3-7.3-7.3-7.3h0Z"/>
    <line class="cls-3" x1="24.8" y1="19.4" x2="24.8" y2="20.4"/>
    <line class="cls-3" x1="24.8" y1="27.6" x2="24.8" y2="28.5"/>
    <line class="cls-3" x1="29.3" y1="24.1" x2="28.4" y2="24.1"/>
    <line class="cls-3" x1="21.2" y1="24.1" x2="20.3" y2="24.1"/>
    <line class="cls-3" x1="27.9" y1="27.1" x2="27.2" y2="26.5"/>
    <line class="cls-3" x1="22.3" y1="21.5" x2="21.6" y2="20.9"/>
    <line class="cls-3" x1="21.8" y1="27.1" x2="22.5" y2="26.4"/>
    <line class="cls-3" x1="27.4" y1="21.5" x2="28" y2="20.8"/>
    <path class="cls-3" d="M27,24c0,1.2-1,2.2-2.2,2.2s-2.2-1-2.2-2.2,1-2.2,2.2-2.2,2.2,1,2.2,2.2Z"/>
  </g>
</svg>