<svg xmlns="http://www.w3.org/2000/svg" data-name="Camada 1" viewBox="0 0 50 50"><path fill="#d1bd00" d="M30.9 18.4l8.3 2.6-7.1 5 .2 8.7-7-5.2-8.2 2.8 2.8-8.2-5.2-7 8.7.1 5-7.1 2.5 8.3z"/><path fill="#f9f941" d="M45.7 6.3H2.3C.8 6.3.8 10.4.8 11.8l.9 34.5 7.5.4 1.5-4.9h25.2l12.6-4.6V9c0-1.5-1.2-2.7-2.7-2.7z"/><path fill="none" stroke="#444" stroke-linecap="round" stroke-linejoin="round" stroke-width="2.5" d="M48.5 38.8V9.2c0-1.4-1.2-2.5-2.6-2.5H4.2c-1.5 0-2.6 1.1-2.6 2.5v35.5c0 1.4 1.2 2.5 2.6 2.5h5.4v-3c0-1.4 1.2-2.5 2.6-2.5h25.5c1.5 0 2.6 1.1 2.6 2.5"/><path fill="none" stroke="#444" d="M7.7 28.1v-8.2m0-3v-2.7c0-1.4 1.1-2.5 2.5-2.5h29.2c1.4 0 2.5 1.1 2.5 2.5v20.4c0 1.4-1.1 2.5-2.5 2.5H10.2c-1.4 0-2.5-1.1-2.5-2.5V31"/><path fill="none" stroke="#444" stroke-width=".5" d="M11 18.3c0 .8-.5 1.4-1.2 1.4H6.3c-.7 0-1.2-.6-1.2-1.4 0-.8.5-1.4 1.2-1.4h3.5c.7 0 1.2.6 1.2 1.4zm0 11.2c0 .8-.5 1.4-1.2 1.4H6.3c-.7 0-1.2-.6-1.2-1.4 0-.8.5-1.4 1.2-1.4h3.5c.7 0 1.2.6 1.2 1.4z"/><path fill="none" stroke="#444" stroke-miterlimit="10" stroke-width=".5" d="M24.8 16.5c-4 0-7.3 3.3-7.3 7.3s3.3 7.3 7.3 7.3 7.3-3.3 7.3-7.3-3.3-7.3-7.3-7.3h0z"/><path fill="none" stroke="#444" stroke-linecap="round" d="M24.8 19.4v1m0 7.2v.9m4.5-4.4h-.9m-7.2 0h-.9m7.6 3l-.7-.6m-4.9-5l-.7-.6m.2 6.2l.7-.7m4.9-4.9l.6-.7M27 24c0 1.2-1 2.2-2.2 2.2s-2.2-1-2.2-2.2 1-2.2 2.2-2.2 2.2 1 2.2 2.2z"/></svg>