<svg xmlns="http://www.w3.org/2000/svg" version="1" viewBox="0 0 50 50"><path fill="#FCC34F" d="M10.135 40.57l-2.721 4.714a.325.325 0 0 0 .361.477l7.402-1.876c.815.377 1.646.691 2.485.952l22.933-8.347a20.075 20.075 0 0 0 3.09-8.622H47.8c.29 0 .432-.342.232-.548l-4.404-4.527a20.167 20.167 0 0 0-9.905-14.728C28.12 4.834 21.607 4.589 16.042 6.84l-2.186-3.785a.328.328 0 0 0-.599.077l-1.773 6.287a20.109 20.109 0 0 0-5.339 6.035c-4.856 8.422-2.967 18.874 3.99 25.116z"/><path fill="#FDCF72" d="M33.107 7.754a20.172 20.172 0 0 0-17.103-.914l-2.186-3.785a.328.328 0 0 0-.599.077l-1.773 6.287a20.123 20.123 0 0 0-5.339 6.035 20.36 20.36 0 0 0-1.234 2.576L33.107 7.754z"/><g fill="#444"><path d="M48.928 26.448l-4.122-4.238c-1.016-6.428-4.809-11.961-10.459-15.228-5.444-3.14-11.856-3.737-17.752-1.685l-1.662-2.876a1.58 1.58 0 0 0-1.546-.768 1.59 1.59 0 0 0-1.333 1.139L10.393 8.68a21.315 21.315 0 0 0-5.332 6.15C.197 23.267 1.697 34.022 8.559 40.802l-2.232 3.866a1.576 1.576 0 0 0 1.757 2.304l6.98-1.77a21.096 21.096 0 0 0 8.611 1.786 1.25 1.25 0 0 0-.004-2.5c-.021.003-.046 0-.07 0a18.66 18.66 0 0 1-7.608-1.624l2.279-.673a.557.557 0 0 0 .35-.262.577.577 0 0 0 .058-.434l-.93-3.417c1.944.939 3.998 1.411 6.028 1.411 4.792 0 9.421-2.5 11.999-6.957a13.846 13.846 0 0 0 1.68-4.683l.047-.29h-4.718c-.027 0-.047-.012-.057-.034a.054.054 0 0 1 .014-.063l4.504-4.623.005-.01 2.179-2.219.093.009.001-.001 2.921 2.732.002.018 3.158 3.247h-3.035l-.126 1.108a18.744 18.744 0 0 1-2.897 8.085 1.25 1.25 0 1 0 2.1 1.358 21.283 21.283 0 0 0 3.127-8.05H47.8a1.57 1.57 0 0 0 1.128-2.668zM18.139 41.71l-3.242.957-5.304 1.344 2.132-3.693-.754-.678c-6.618-5.937-8.192-15.845-3.744-23.56a18.827 18.827 0 0 1 4.739-5.437l-.611 3.005a.553.553 0 0 0 .38.689l2.758.954a13.89 13.89 0 0 0-2.749 3.375c-3.027 5.236-2.259 11.979 1.868 16.4l.23.246 1.684-2.915c.014-.023.035-.036.059-.03a.054.054 0 0 1 .049.043l1.495 5.289v.001l1.068 3.924a.08.08 0 0 1-.058.086zm14.245-14.596a.555.555 0 0 0-.116.606.55.55 0 0 0 .517.341h4.126a13.347 13.347 0 0 1-1.568 4.223 13.328 13.328 0 0 1-17.762 5.178l-1.466-5.188a.553.553 0 0 0-.47-.403.554.554 0 0 0-.553.278l-1.343 2.325c-3.777-4.263-4.434-10.609-1.572-15.558a13.37 13.37 0 0 1 2.857-3.451l6.016 1.525a.556.556 0 0 0 .582-.201.555.555 0 0 0 .042-.621l-1.92-3.327a13.418 13.418 0 0 1 10.692 1.176c3.218 1.862 5.532 4.999 6.354 8.569l-4.416 4.528zm6.687-6.852l-1.88 1.915a13.941 13.941 0 0 0-6.498-8.594A13.912 13.912 0 0 0 19.3 12.461l-.289.098 2.226 3.856a.06.06 0 0 1-.004.069.057.057 0 0 1-.062.021l-6.132-1.554-3.142-1.087-.048-.093-.01-.002.737-3.621 1.29-4.575 1.636 2.833 1.008-.408c5.45-2.205 11.496-1.786 16.586 1.148 4.976 2.877 8.316 7.747 9.224 13.406l-2.446-2.287a.566.566 0 0 0-.803-.003z"/><circle cx="23.786" cy="25.57" r="4.514"/></g></svg>