<?xml version="1.0" encoding="utf-8"?>
<!-- Generator: Adobe Illustrator 27.5.0, SVG Export Plug-In . SVG Version: 6.00 Build 0)  -->
<svg version="1.1" id="Camada_1" xmlns="http://www.w3.org/2000/svg" xmlns:xlink="http://www.w3.org/1999/xlink" x="0px" y="0px"
	 viewBox="0 0 50 50" style="enable-background:new 0 0 50 50;" xml:space="preserve">
<style type="text/css">
	.st0{fill:#7DF4EB;}
	.st1{fill:#46B8B0;}
	.st2{fill:none;stroke:#444444;stroke-width:2.5;stroke-linecap:round;stroke-linejoin:round;stroke-miterlimit:10;}
	.st3{fill:none;stroke:#444444;stroke-width:0.75;stroke-miterlimit:10;}
	.st4{fill:#444444;}
</style>
<polygon class="st0" points="25.1,15 27.9,20.7 34.2,21.6 29.6,26 30.7,32.3 25.1,29.3 19.5,32.3 20.6,26 16,21.6 22.3,20.7 "/>
<path class="st1" d="M44.6,12.4L39,8.8l-7.7-4.4l-6-2.8c-3.2,0-21.5,8.9-21.5,12.1l-0.5,7.8l0.5,15.1l11.5,7.6l31-11
	C47.2,32.7,45.6,14.4,44.6,12.4z"/>
<g>
	<g>
		<path class="st2" d="M29.9,46.5l-2.2,1.3c-1.7,1-3.8,1-5.5,0l-15.6-9C5,37.8,3.9,36,3.9,34V16c0-2,1-3.8,2.7-4.7l15.6-9
			c1.7-1,3.8-1,5.5,0l15.6,9c1.7,1,2.7,2.8,2.7,4.7v18c0,2-1,3.8-2.7,4.7l-2.5,1.4"/>
	</g>
</g>
<path class="st3" d="M20.6,22.4c0,0,4.4,4,4.4,8c0,0-0.4-5.2,5.5-9"/>
<path class="st3" d="M24.8,24.3c-0.1,1.6-1.7,2.5-3.3,2.5c-2.6,0-4.9-3.5-4.9-6.3s3.9-2.1,5.4-1C24,21,24.9,21.9,24.8,24.3z"/>
<path class="st3" d="M29.1,25.5c-1.6-0.2-2.5-1.5-2.7-3.1c-0.3-2.6,2.9-5.4,5.6-5.7s2.6,3.4,1.9,5.2C33,24.4,31.7,25.8,29.1,25.5z"
	/>
<path class="st3" d="M24.8,34.8H20c0,0-4.5-0.4-0.2-2.8c4.3-2.3,8-1.8,10.9,0.4s0.5,2.4-1.6,2.4S24.8,34.8,24.8,34.8z"/>
<g>
	<path class="st4" d="M35.5,11.3c-0.3,0-0.6,0.3-0.6,0.6v1.7c-2.7-2.2-6-3.4-9.5-3.4c-4,0-7.8,1.6-10.6,4.4c-0.2,0.2-0.2,0.6,0,0.9
		c0.2,0.2,0.6,0.2,0.9,0c2.6-2.6,6.1-4,9.7-4c3.1,0,6.1,1,8.5,2.9h-1.4c-0.4,0-0.6,0.3-0.6,0.6s0.3,0.6,0.6,0.6h3.1
		c0.1,0,0.2,0,0.2,0c0.2-0.1,0.3-0.2,0.3-0.3s0-0.2,0-0.2l0,0V12C36.1,11.6,35.8,11.3,35.5,11.3L35.5,11.3z"/>
	<path class="st4" d="M7.7,24.1c0.2,0.3,0.6,0.4,0.9,0.2l1.5-0.8c-0.6,3.4,0,6.9,1.8,10c2,3.5,5.2,6,9.1,7c0.3,0.1,0.7-0.1,0.8-0.4
		c0.1-0.3-0.1-0.7-0.4-0.8c-3.5-1-6.5-3.2-8.4-6.4c-1.6-2.7-2.1-5.8-1.7-8.8l0.7,1.2c0.2,0.3,0.6,0.4,0.9,0.2
		c0.3-0.2,0.4-0.6,0.2-0.9l-1.6-2.7c0-0.1-0.1-0.1-0.2-0.2c-0.1-0.1-0.3-0.1-0.5-0.1c-0.1,0-0.2,0-0.2,0.1l0,0l-2.7,1.6
		C7.6,23.4,7.5,23.8,7.7,24.1L7.7,24.1z"/>
	<path class="st4" d="M32.5,41.7c0.2-0.3,0.1-0.7-0.2-0.9L30.8,40c3.3-1.2,6-3.5,7.7-6.6c2-3.5,2.5-7.5,1.5-11.4
		c-0.1-0.3-0.4-0.5-0.8-0.4c-0.3,0.1-0.5,0.4-0.4,0.8c1,3.5,0.5,7.3-1.4,10.4c-1.6,2.7-3.9,4.8-6.8,5.9l0.7-1.2
		c0.2-0.3,0.1-0.7-0.2-0.9c-0.3-0.2-0.7-0.1-0.9,0.2l-1.6,2.7c0,0.1-0.1,0.2-0.1,0.2c0,0.2,0,0.3,0.1,0.5c0.1,0.1,0.1,0.1,0.2,0.2
		l0,0l2.7,1.6C31.9,42.2,32.3,42.1,32.5,41.7L32.5,41.7z"/>
</g>
</svg>
