<?xml version="1.0" encoding="UTF-8"?>
<svg id="Camada_1" xmlns="http://www.w3.org/2000/svg" version="1.1" xmlns:xlink="http://www.w3.org/1999/xlink" viewBox="0 0 300 300">
  <!-- Generator: Adobe Illustrator 29.7.1, SVG Export Plug-In . SVG Version: 2.1.1 Build 8)  -->
  <defs>
    <style>
      .st0 {
        fill: #00bf5f;
      }

      .st1 {
        clip-path: url(#clippath-4);
      }

      .st2 {
        fill: #ff6780;
      }

      .st3 {
        fill: #78d9ff;
      }

      .st4 {
        fill: #ff8da4;
      }

      .st5 {
        fill: #07e570;
      }

      .st6 {
        fill: none;
      }

      .st7 {
        fill: #005cff;
      }

      .st8 {
        clip-path: url(#clippath-1);
      }

      .st9 {
        fill: #008dd3;
      }

      .st10 {
        isolation: isolate;
      }

      .st11 {
        clip-path: url(#clippath-3);
      }

      .st12 {
        fill: #ccc;
      }

      .st13 {
        clip-path: url(#clippath-2);
      }

      .st14 {
        fill: #04a550;
      }

      .st15 {
        fill: #f9b4c4;
      }

      .st16 {
        clip-path: url(#clippath);
      }

      .st17 {
        fill: #979a9b;
      }
    </style>
    <clipPath id="clippath">
      <path class="st6" d="M53.26,78.28l-.19,151.26,203.56-28.42.19-148.61c0-5.72-5.04-10.12-10.71-9.33l-184.75,25.79c-4.64.65-8.1,4.62-8.11,9.3Z"/>
    </clipPath>
    <clipPath id="clippath-1">
      <rect class="st6" x="44.19" y="32.06" width="263.04" height="207.12"/>
    </clipPath>
    <clipPath id="clippath-2">
      <rect class="st6" x="40.54" y="14.07" width="240.91" height="263.04" transform="translate(-19.38 24.83) rotate(-8.32)"/>
    </clipPath>
    <clipPath id="clippath-3">
      <polygon class="st6" points="195.77 222.34 196.04 74.54 236.57 68.85 236.3 216.65 195.77 222.34"/>
    </clipPath>
    <clipPath id="clippath-4">
      <polygon class="st14" points="145.44 230.55 145.71 120.53 186.24 114.83 185.97 223.89 145.44 230.55"/>
    </clipPath>
  </defs>
  <path class="st9" d="M288.16,149.45c.1,20.7-4.3,40.4-12.1,58.2-22,49.7-71.6,84.3-129.5,84.5-15.4.1-30.2-2.4-44.1-6.8-26.1-8.3-48.9-24-65.9-44.7-17.7-21.4-29.4-48-32.1-77.3-.4-4.2-.6-8.5-.6-12.8-.2-48.2,23.7-91,60.4-116.8,4.8-3.4,9.8-6.5,15-9.2,7.3-3.9,15-7.2,23-9.8,7.5-2.4,15.4-4.2,23.4-5.4,6.5-.9,13-1.4,19.7-1.5,26.2-.1,50.6,6.9,71.8,19.1,3.8,2.2,7.4,4.5,11,7.1,16.9,12,31.1,27.6,41.4,45.8,1.2,2.1,2.3,4.1,3.3,6.3.9,1.9,1.8,3.6,2.6,5.5,2.7,6.1,5,12.2,6.9,18.6,2.1,7.2,3.6,14.5,4.5,21.9h0c.9,5.8,1.3,11.5,1.3,17.3Z"/>
  <g>
    <path class="st17" d="M53.06,229.54l41.19,23.44c5.77,3.28,12.45,4.56,19.02,3.64l178.29-25.06c5.05-.71,6.3-7.43,1.85-9.91l-36.79-20.52-203.56,28.42Z"/>
    <g class="st16">
      <polygon class="st12" points="53.27 70.11 53.06 229.54 256.62 201.12 256.83 41.69 53.27 70.11"/>
      <g class="st8">
        <g>
          <rect class="st17" x="44.19" y="-139.91" width="1.21" height="172.78"/>
          <rect class="st17" x="69.07" y="-139.91" width="1.21" height="172.78"/>
          <rect class="st17" x="93.94" y="-139.91" width="1.21" height="172.78"/>
          <rect class="st17" x="118.82" y="-139.91" width="1.21" height="172.78"/>
          <rect class="st17" x="143.69" y="-139.91" width="1.21" height="172.78"/>
          <rect class="st17" x="168.57" y="-139.91" width="1.21" height="172.78"/>
          <rect class="st17" x="193.45" y="-139.91" width="1.21" height="172.78"/>
          <rect class="st17" x="218.32" y="-139.91" width="1.21" height="172.78"/>
          <rect class="st17" x="243.2" y="-139.91" width="1.21" height="172.78"/>
          <rect class="st17" x="268.07" y="-139.91" width="1.21" height="172.78"/>
          <rect class="st17" x="292.95" y="-139.91" width="1.21" height="172.78"/>
          <rect class="st17" x="44.19" y="-53.93" width="1.21" height="172.78"/>
          <rect class="st17" x="69.07" y="-53.93" width="1.21" height="172.78"/>
          <rect class="st17" x="93.94" y="-53.93" width="1.21" height="172.78"/>
          <rect class="st17" x="118.82" y="-53.93" width="1.21" height="172.78"/>
          <rect class="st17" x="143.69" y="-53.93" width="1.21" height="172.78"/>
          <rect class="st17" x="168.57" y="-53.93" width="1.21" height="172.78"/>
          <rect class="st17" x="193.45" y="-53.93" width="1.21" height="172.78"/>
          <rect class="st17" x="218.32" y="-53.93" width="1.21" height="172.78"/>
          <rect class="st17" x="243.2" y="-53.93" width="1.21" height="172.78"/>
          <rect class="st17" x="268.07" y="-53.93" width="1.21" height="172.78"/>
          <rect class="st17" x="292.95" y="-53.93" width="1.21" height="172.78"/>
          <rect class="st17" x="44.19" y="32.05" width="1.21" height="172.78"/>
          <rect class="st17" x="69.07" y="32.05" width="1.21" height="172.78"/>
          <rect class="st17" x="93.94" y="32.05" width="1.21" height="172.78"/>
          <rect class="st17" x="118.82" y="32.05" width="1.21" height="172.78"/>
          <rect class="st17" x="143.69" y="32.05" width="1.21" height="172.78"/>
          <rect class="st17" x="168.57" y="32.05" width="1.21" height="172.78"/>
          <rect class="st17" x="193.45" y="32.05" width="1.21" height="172.78"/>
          <rect class="st17" x="218.32" y="32.05" width="1.21" height="172.78"/>
          <rect class="st17" x="243.2" y="32.05" width="1.21" height="172.78"/>
          <rect class="st17" x="268.07" y="32.05" width="1.21" height="172.78"/>
          <rect class="st17" x="292.95" y="32.05" width="1.21" height="172.78"/>
          <rect class="st17" x="44.19" y="118.04" width="1.21" height="172.78"/>
          <rect class="st17" x="69.07" y="118.04" width="1.21" height="172.78"/>
          <rect class="st17" x="93.94" y="118.04" width="1.21" height="172.78"/>
          <rect class="st17" x="118.82" y="118.04" width="1.21" height="172.78"/>
          <rect class="st17" x="143.69" y="118.04" width="1.21" height="172.78"/>
          <rect class="st17" x="168.57" y="118.04" width="1.21" height="172.78"/>
          <rect class="st17" x="193.45" y="118.04" width="1.21" height="172.78"/>
          <rect class="st17" x="218.32" y="118.04" width="1.21" height="172.78"/>
          <rect class="st17" x="243.2" y="118.04" width="1.21" height="172.78"/>
          <rect class="st17" x="268.07" y="118.04" width="1.21" height="172.78"/>
          <rect class="st17" x="292.95" y="118.04" width="1.21" height="172.78"/>
        </g>
      </g>
      <g class="st13">
        <g>
          <rect class="st17" x="-138.22" y="306.37" width="200.96" height="1.21" transform="translate(-44.83 -2.23) rotate(-8.32)"/>
          <rect class="st17" x="-141.82" y="281.76" width="200.96" height="1.21" transform="translate(-41.3 -3.01) rotate(-8.32)"/>
          <rect class="st17" x="-145.42" y="257.14" width="200.96" height="1.21" transform="translate(-37.78 -3.79) rotate(-8.32)"/>
          <rect class="st17" x="-149.02" y="232.53" width="200.96" height="1.21" transform="translate(-34.25 -4.57) rotate(-8.32)"/>
          <rect class="st17" x="-152.62" y="207.92" width="200.96" height="1.21" transform="translate(-30.73 -5.35) rotate(-8.32)"/>
          <rect class="st17" x="-156.22" y="183.3" width="200.96" height="1.21" transform="translate(-27.2 -6.13) rotate(-8.32)"/>
          <rect class="st17" x="-159.82" y="158.69" width="200.96" height="1.21" transform="translate(-23.68 -6.91) rotate(-8.32)"/>
          <rect class="st17" x="-163.42" y="134.08" width="200.96" height="1.21" transform="translate(-20.15 -7.69) rotate(-8.32)"/>
          <rect class="st17" x="-167.02" y="109.46" width="200.96" height="1.21" transform="translate(-16.63 -8.47) rotate(-8.32)"/>
          <rect class="st17" x="-170.62" y="84.85" width="200.96" height="1.21" transform="translate(-13.11 -9.25) rotate(-8.32)"/>
          <rect class="st17" x="-174.22" y="60.24" width="200.96" height="1.21" transform="translate(-9.58 -10.03) rotate(-8.32)"/>
          <rect class="st17" x="-39.26" y="291.9" width="200.96" height="1.21" transform="translate(-41.69 11.94) rotate(-8.32)"/>
          <rect class="st17" x="-42.86" y="267.28" width="200.96" height="1.21" transform="translate(-38.16 11.16) rotate(-8.32)"/>
          <rect class="st17" x="-46.46" y="242.67" width="200.96" height="1.21" transform="translate(-34.64 10.38) rotate(-8.32)"/>
          <rect class="st17" x="-50.06" y="218.06" width="200.96" height="1.21" transform="translate(-31.12 9.6) rotate(-8.32)"/>
          <rect class="st17" x="-53.66" y="193.44" width="200.96" height="1.21" transform="translate(-27.59 8.82) rotate(-8.32)"/>
          <rect class="st17" x="-57.26" y="168.83" width="200.96" height="1.21" transform="translate(-24.07 8.04) rotate(-8.32)"/>
          <rect class="st17" x="-60.86" y="144.22" width="200.96" height="1.21" transform="translate(-20.54 7.26) rotate(-8.32)"/>
          <rect class="st17" x="-64.46" y="119.6" width="200.96" height="1.21" transform="translate(-17.02 6.48) rotate(-8.32)"/>
          <rect class="st17" x="-68.06" y="94.99" width="200.96" height="1.21" transform="translate(-13.49 5.7) rotate(-8.32)"/>
          <rect class="st17" x="-71.66" y="70.38" width="200.96" height="1.21" transform="translate(-9.97 4.92) rotate(-8.32)"/>
          <rect class="st17" x="-75.26" y="45.76" width="200.96" height="1.21" transform="translate(-6.44 4.14) rotate(-8.32)"/>
          <rect class="st17" x="59.7" y="277.42" width="200.96" height="1.21" transform="translate(-38.55 26.11) rotate(-8.32)"/>
          <rect class="st17" x="56.09" y="252.81" width="200.96" height="1.21" transform="translate(-35.03 25.33) rotate(-8.32)"/>
          <rect class="st17" x="52.49" y="228.2" width="200.96" height="1.21" transform="translate(-31.5 24.55) rotate(-8.32)"/>
          <rect class="st17" x="48.89" y="203.58" width="200.96" height="1.21" transform="translate(-27.98 23.77) rotate(-8.32)"/>
          <rect class="st17" x="45.29" y="178.97" width="200.96" height="1.21" transform="translate(-24.45 22.99) rotate(-8.32)"/>
          <rect class="st17" x="41.69" y="154.36" width="200.96" height="1.21" transform="translate(-20.93 22.21) rotate(-8.32)"/>
          <rect class="st17" x="38.09" y="129.74" width="200.96" height="1.21" transform="translate(-17.41 21.43) rotate(-8.32)"/>
          <rect class="st17" x="34.49" y="105.13" width="200.96" height="1.21" transform="translate(-13.88 20.65) rotate(-8.32)"/>
          <rect class="st17" x="30.89" y="80.51" width="200.96" height="1.21" transform="translate(-10.36 19.87) rotate(-8.32)"/>
          <rect class="st17" x="27.29" y="55.9" width="200.96" height="1.21" transform="translate(-6.83 19.09) rotate(-8.32)"/>
          <rect class="st17" x="23.69" y="31.29" width="200.96" height="1.21" transform="translate(-3.31 18.31) rotate(-8.32)"/>
          <rect class="st17" x="158.65" y="262.95" width="200.96" height="1.21" transform="translate(-35.42 40.28) rotate(-8.32)"/>
          <rect class="st17" x="155.05" y="238.33" width="200.96" height="1.21" transform="translate(-31.89 39.5) rotate(-8.32)"/>
          <rect class="st17" x="151.45" y="213.72" width="200.96" height="1.21" transform="translate(-28.37 38.72) rotate(-8.32)"/>
          <rect class="st17" x="147.85" y="189.11" width="200.96" height="1.21" transform="translate(-24.84 37.94) rotate(-8.32)"/>
          <rect class="st17" x="144.25" y="164.49" width="200.96" height="1.21" transform="translate(-21.32 37.16) rotate(-8.32)"/>
          <rect class="st17" x="140.65" y="139.88" width="200.96" height="1.21" transform="translate(-17.79 36.38) rotate(-8.32)"/>
          <rect class="st17" x="137.05" y="115.27" width="200.96" height="1.21" transform="translate(-14.27 35.6) rotate(-8.32)"/>
          <rect class="st17" x="133.45" y="90.65" width="200.96" height="1.21" transform="translate(-10.74 34.82) rotate(-8.32)"/>
          <rect class="st17" x="129.85" y="66.04" width="200.96" height="1.21" transform="translate(-7.22 34.04) rotate(-8.32)"/>
          <rect class="st17" x="126.25" y="41.43" width="200.96" height="1.21" transform="translate(-3.7 33.26) rotate(-8.32)"/>
          <rect class="st17" x="122.65" y="16.81" width="200.96" height="1.21" transform="translate(-.17 32.48) rotate(-8.32)"/>
        </g>
      </g>
    </g>
    <g>
      <polygon class="st7" points="195.77 222.34 208.58 229.59 249.11 223.89 236.3 216.65 195.77 222.34"/>
      <g class="st10">
        <g class="st11">
          <polyline class="st7" points="236.57 68.85 196.04 74.54 195.77 222.34 236.3 216.65 236.57 68.85"/>
        </g>
      </g>
      <polygon class="st9" points="208.85 81.79 208.58 229.59 249.11 223.89 249.38 76.09 208.85 81.79"/>
      <polygon class="st3" points="196.04 74.54 208.85 81.79 249.38 76.09 236.57 68.85 196.04 74.54"/>
    </g>
    <g>
      <polygon class="st14" points="145.44 229.77 158.25 237.02 198.78 231.32 185.97 224.08 145.44 229.77"/>
      <g class="st10">
        <polygon class="st14" points="145.44 230.55 145.71 120.53 186.24 114.83 185.97 223.89 145.44 230.55"/>
        <g class="st1">
          <polyline class="st14" points="186.24 114.83 145.71 120.53 145.44 229.59 185.97 223.89 186.24 114.83"/>
        </g>
      </g>
      <polygon class="st0" points="158.53 127.77 158.25 236.83 198.78 231.14 199.06 122.07 158.53 127.77"/>
      <polygon class="st5" points="145.71 120.53 158.53 127.77 199.06 122.07 186.24 114.83 145.71 120.53"/>
    </g>
    <g>
      <polygon class="st2" points="95.9 237.18 108.71 244.42 149.24 238.72 136.43 231.48 95.9 237.18"/>
      <g>
        <g class="st10">
          <polyline class="st2" points="136.7 167.82 96.17 172.55 95.9 238.14 136.43 232.44 136.7 167.82"/>
          <polygon class="st6" points="96.17 172.55 95.9 237.18 136.43 231.48 136.7 166.86 96.17 172.55"/>
        </g>
        <polygon class="st15" points="96.17 172.55 108.98 179.8 149.51 174.1 136.7 166.86 96.17 172.55"/>
        <polygon class="st4" points="108.98 179.8 108.71 244.42 149.24 238.72 149.51 174.1 108.98 179.8"/>
      </g>
    </g>
  </g>
</svg>