<svg xmlns="http://www.w3.org/2000/svg" version="1" viewBox="0 0 50 50"><path fill="#E589EF" d="M47.119 26.152c.315-6.06-1.816-12.223-6.444-16.851-8.666-8.667-22.717-8.667-31.384 0C.81 17.782.652 31.408 8.771 40.11l38.348-13.958z"/><path fill="#F799FF" d="M36.148 5.698C27.684.9 16.746 2.086 9.531 9.301a22.08 22.08 0 0 0-5.083 7.935l31.7-11.538z"/><path fill="#444" d="M41.57 8.417c-9.14-9.14-24.012-9.141-33.151 0-9.14 9.14-9.14 24.011 0 33.151a23.445 23.445 0 0 0 26.876 4.488 1.25 1.25 0 1 0-1.098-2.246 20.943 20.943 0 0 1-24.011-4.01c-8.165-8.165-8.165-21.45 0-29.616 6.563-6.563 16.431-7.838 24.293-3.851a5.333 5.333 0 0 1-1.505 4.611 5.39 5.39 0 0 1-5.215 1.386l-.131-.023-.048.001c-3.268-.698-6.624-.057-9.422 1.701-.021.016-.047.022-.066.041l-.008.01a13.163 13.163 0 0 0-2.242 1.78c-5.047 5.046-5.047 13.258 0 18.305 2.523 2.523 5.839 3.785 9.153 3.785s6.629-1.262 9.152-3.785a13.086 13.086 0 0 0 1.826-2.312c.015-.019.027-.038.04-.058a12.785 12.785 0 0 0 1.663-9.388l.006-.087-.031-.119a5.4 5.4 0 0 1 1.4-5.159 5.333 5.333 0 0 1 4.615-1.505 20.987 20.987 0 0 1 2.243 10.574 1.25 1.25 0 0 0 1.183 1.313 1.242 1.242 0 0 0 1.313-1.183A23.485 23.485 0 0 0 41.57 8.417zM16.902 33.084c-4.349-4.349-4.446-11.349-.317-15.832a12.888 12.888 0 0 0 3.243 12.908 12.901 12.901 0 0 0 9.139 3.806c1.27 0 2.544-.196 3.783-.577-4.482 4.141-11.493 4.048-15.848-.305zM37.99 15.961a6.905 6.905 0 0 0-1.822 6.476l-.004.06.023.104a11.3 11.3 0 0 1-1.334 8.215A11.376 11.376 0 0 1 20.888 29.1a11.395 11.395 0 0 1-1.721-13.98c2.424-1.462 5.277-1.949 8.189-1.331l.075.007a6.902 6.902 0 0 0 6.602-1.791 6.82 6.82 0 0 0 2.004-4.785 20.865 20.865 0 0 1 3.765 2.964 20.884 20.884 0 0 1 2.98 3.774 6.822 6.822 0 0 0-4.792 2.003z"/></svg>