<?xml version="1.0" encoding="utf-8"?>
<!-- Generator: Adobe Illustrator 28.0.0, SVG Export Plug-In . SVG Version: 6.00 Build 0)  -->
<svg version="1.1" id="Layer_1" xmlns="http://www.w3.org/2000/svg" xmlns:xlink="http://www.w3.org/1999/xlink" x="0px" y="0px"
	 viewBox="0 0 50 50" style="enable-background:new 0 0 50 50;" xml:space="preserve">
<style type="text/css">
	.st0{fill:#DC5E82;}
	.st1{fill:none;stroke:#444444;stroke-linecap:round;stroke-linejoin:round;stroke-miterlimit:10;}
	.st2{fill:none;stroke:#444444;stroke-width:0.5;stroke-linecap:round;stroke-linejoin:round;stroke-miterlimit:10;}
	.st3{fill:none;stroke:#444444;stroke-width:2;stroke-linecap:round;stroke-linejoin:round;stroke-miterlimit:10;}
</style>
<g>
	<path class="st0" d="M49.1,16l0.4-8.7c0-1-0.8-1.9-1.9-1.8l-3.8,0.2c-0.1,0-0.1,0-0.2,0L30.6,4.9c0,0-0.1,0-0.1,0
		C27.7,4.9,10,5,4.4,5c-1,0-1.7,0.8-1.7,1.8v31.7c0,1,0.8,1.7,1.7,1.8l15.8,0.1c1,0,1.8,0.8,1.7,1.8c0,0.7-0.3,1.3-0.9,1.4
		c-1.4,0.3-4.6,0.8-4.6,0.9l0.4,1c0.3,0.9,1.3,1.4,2.2,1l11.4-4.1l0.1-2.2l4.9,0.4l13.1-4.7c0.6-0.2,0.1-0.4,0.2-1
		c0.6-3.7,1.1-16,0.3-18.4C49.1,16.4,49.1,16.2,49.1,16z"/>
	<g>
		<g>
			<g id="XMLID_80_">
				<g>
					<line class="st1" x1="30.4" y1="43.2" x2="30.4" y2="40.6"/>
					<line class="st1" x1="21.5" y1="43.7" x2="21.5" y2="40.3"/>
					<polyline class="st1" points="6.8,17.6 11.4,17.6 14.8,23.1 19.1,11.1 21.8,18.2 26.5,18.2 					"/>
					<line class="st1" x1="2.9" y1="35.1" x2="45" y2="35.1"/>
					<line class="st2" x1="24" y1="29.6" x2="43.7" y2="29.6"/>
					<line class="st2" x1="24" y1="25.1" x2="43.7" y2="25.1"/>
					<line class="st2" x1="32.7" y1="20.7" x2="43.7" y2="20.7"/>
					<line class="st2" x1="32.7" y1="16.2" x2="43.7" y2="16.2"/>
					<line class="st1" x1="32.7" y1="11.8" x2="43.7" y2="11.8"/>
				</g>
			</g>
		</g>
		<g>
			<g id="XMLID_00000176043246354238068310000015978034222821837487_">
				<g>
					<line class="st3" x1="40" y1="40.2" x2="30.5" y2="40.2"/>
					<path class="st3" d="M21.4,40.2H6.3c-2,0-3.7-1.6-3.7-3.7v-1.4V8.7c0-2,1.6-3.7,3.7-3.7h39.3c2,0,3.7,1.6,3.7,3.7v27.1"/>
					<path class="st3" d="M21.5,43.7h-5.1v1c0,1.1,0.9,1.9,1.9,1.9h14.6c1.1,0,1.9-0.8,1.9-1.9l0-1h-4.4"/>
					<line class="st3" x1="30.4" y1="43.7" x2="30.4" y2="40.2"/>
					<line class="st3" x1="21.5" y1="43.7" x2="21.5" y2="40.3"/>
				</g>
			</g>
		</g>
	</g>
</g>
</svg>
