<?xml version="1.0" encoding="utf-8"?>
<!-- Generator: Adobe Illustrator 28.0.0, SVG Export Plug-In . SVG Version: 6.00 Build 0)  -->
<svg version="1.1" id="Layer_1" xmlns="http://www.w3.org/2000/svg" xmlns:xlink="http://www.w3.org/1999/xlink" x="0px" y="0px"
	 viewBox="0 0 50 50" style="enable-background:new 0 0 50 50;" xml:space="preserve">
<style type="text/css">
	.st0{fill:#FC9D9A;}
	.st1{fill:none;stroke:#444444;stroke-width:2.5;stroke-linecap:round;stroke-linejoin:round;stroke-miterlimit:10;}
	.st2{fill:none;stroke:#444444;stroke-linecap:round;stroke-linejoin:round;stroke-miterlimit:10;}
	.st3{fill:none;stroke:#444444;stroke-linejoin:round;}
	.st4{fill:#444444;}
	.st5{fill:none;stroke:#444444;stroke-linejoin:round;stroke-miterlimit:10;}
	.st6{fill:none;stroke:#444444;stroke-width:0.5;stroke-linecap:round;stroke-linejoin:round;stroke-miterlimit:10;}
</style>
<path class="st0" d="M47.5,14l0.5-3.3l-1.9-3.8L30.7,7.3c-3.2,0-27.8-3-27.8,0.2L1.2,20.4L2.4,44l13.6,0.6l31-11
	C47.7,33.2,48.5,16,47.5,14z"/>
<path class="st1" d="M32.6,44.6h-27c-1.9,0-3.4-1.6-3.4-3.5V9.9c0-1.9,1.5-3.5,3.4-3.5h39c1.9,0,3.4,1.6,3.4,3.5v24.7"/>
<g>
	<path class="st2" d="M6.4,12.7v24.1c0,1.5,1.3,2.8,2.8,2.8h29.5"/>
	<g>
		<g>
			<polyline class="st3" points="6.5,24.4 23.8,20.9 35,28.4 36.8,24.9 43,26.6 			"/>
			<g>
				<polygon class="st4" points="38.7,29.7 38.2,28.8 42.6,26.5 40,22.3 40.8,21.8 44,26.9 				"/>
			</g>
		</g>
	</g>
	<g>
		<path class="st4" d="M25.2,27.7c-0.1,0-0.2,0-0.2-0.1l-8.3-4.1l0.4-0.9l8.1,4l15.1-10.5l0.6,0.8L25.5,27.6
			C25.4,27.7,25.3,27.7,25.2,27.7z"/>
	</g>
	<line class="st5" x1="6.3" y1="18.2" x2="10.7" y2="20.3"/>
	<path class="st6" d="M15.2,15.9h-2.9c-0.9,0-1.6,0.7-1.6,1.6v19.1c0,0.9,0.7,1.6,1.6,1.6h2.9c0.9,0,1.6-0.7,1.6-1.6V17.5
		C16.8,16.6,16.1,15.9,15.2,15.9z"/>
	<path class="st6" d="M24,29.7h-2.9c-0.9,0-1.6,0.7-1.6,1.6v5.3c0,0.9,0.7,1.6,1.6,1.6H24c0.9,0,1.6-0.7,1.6-1.6v-5.3
		C25.6,30.4,24.9,29.7,24,29.7z"/>
	<path class="st6" d="M33.2,30.2h-2.9c-0.9,0-1.6,0.7-1.6,1.6v4.8c0,0.9,0.7,1.6,1.6,1.6h2.9c0.9,0,1.6-0.7,1.6-1.6v-4.8
		C34.8,30.9,34.1,30.2,33.2,30.2z"/>
</g>
</svg>
