<?xml version="1.0" encoding="utf-8"?>
<!-- Generator: Adobe Illustrator 28.1.0, SVG Export Plug-In . SVG Version: 6.00 Build 0)  -->
<svg version="1.1" id="Layer_1" xmlns="http://www.w3.org/2000/svg" xmlns:xlink="http://www.w3.org/1999/xlink" x="0px" y="0px"
	 viewBox="0 0 50 50" style="enable-background:new 0 0 50 50;" xml:space="preserve">
<style type="text/css">
	.st0{fill:#46B8B0;}
	.st1{fill:none;stroke:#444444;stroke-width:2.5;stroke-linecap:round;stroke-linejoin:round;stroke-miterlimit:10;}
	.st2{fill:none;stroke:#444444;stroke-linecap:round;stroke-linejoin:round;stroke-miterlimit:10;}
	.st3{fill:#444444;stroke:#444444;stroke-miterlimit:10;}
	.st4{fill:none;stroke:#444444;stroke-width:0.5;stroke-miterlimit:10;}
</style>
<g>
	<path class="st0" d="M44.4,12.4l-5.6-3.6l-7.7-4.4l-6-2.8c-3.2,0-21.5,8.9-21.5,12.1l-0.5,7.8l0.5,15.1l11.5,7.6l31-11
		C46.9,32.7,45.4,14.4,44.4,12.4z"/>
	<g>
		<g>
			<path class="st1" d="M29.7,46.4l-2.2,1.3c-1.7,1-3.8,1-5.5,0l-15.6-9c-1.7-1-2.7-2.8-2.7-4.7V16c0-2,1-3.8,2.7-4.7l15.6-9
				c1.7-1,3.8-1,5.5,0l15.6,9c1.7,1,2.7,2.8,2.7,4.7v18c0,2-1,3.8-2.7,4.7l-2.5,1.4"/>
		</g>
	</g>
	<g>
		<polygon class="st2" points="36.6,23.1 37.4,20.5 39,22.7 41.7,22.7 40,24.8 40.9,27.4 38.4,26.5 36.2,28.1 36.2,25.4 34,23.9 		
			"/>
		<polygon class="st2" points="23.8,39.1 25.2,36.5 26.7,39.1 29.3,40.6 26.7,42 25.2,44.6 23.8,42 21.2,40.6 		"/>
		<polygon class="st2" points="24.2,10.7 26,7.6 27.7,10.7 29.5,13.8 25.9,13.7 22.4,13.7 		"/>
		<polygon class="st2" points="10.3,22.9 10.7,20.5 12.3,22.4 14.6,21.5 13.7,23.9 15.7,25.4 13.2,25.8 12.8,28.3 11.2,26.3 
			8.9,27.3 9.8,24.9 7.9,23.3 		"/>
		<circle class="st3" cx="24.8" cy="24.1" r="4.6"/>
		<path class="st4" d="M12.1,22.1c0,0,4-6.8,9.5-1.3"/>
		<polyline class="st4" points="28.3,21.1 34.5,14.9 28.6,9 27.5,10 		"/>
		<path class="st4" d="M28.1,27.3c0,0,0.1,2.2,2.2,2.2s1.7-4.9,6-4"/>
		<path class="st4" d="M23.8,39.1l-4.5-4.4c0,0-2.7-4.2,2.6-7"/>
	</g>
	<polygon class="st2" points="15.9,11 14,11 13,12.7 14,14.4 15.9,14.4 16.9,12.7 	"/>
	<polygon class="st2" points="36.9,32.9 33.7,32.9 32.1,35.7 33.7,38.4 36.9,38.4 38.5,35.7 	"/>
	<polygon class="st2" points="13.2,32.9 11.1,32.9 10,34.7 11.1,36.5 13.2,36.5 14.2,34.7 	"/>
	<polygon class="st2" points="41.1,14.1 39,14.1 37.9,16 39,17.8 41.1,17.8 42.1,16 	"/>
</g>
</svg>
