<?xml version="1.0" encoding="utf-8"?>
<!-- Generator: Adobe Illustrator 28.0.0, SVG Export Plug-In . SVG Version: 6.00 Build 0)  -->
<svg version="1.1" id="Layer_1" xmlns="http://www.w3.org/2000/svg" xmlns:xlink="http://www.w3.org/1999/xlink" x="0px" y="0px"
	 viewBox="0 0 50 50" style="enable-background:new 0 0 50 50;" xml:space="preserve">
<style type="text/css">
	.st0{fill:#DC5E82;}
	.st1{fill:none;stroke:#444444;stroke-width:2.5;stroke-linecap:round;stroke-linejoin:round;stroke-miterlimit:10;}
	.st2{fill:none;stroke:#444444;stroke-miterlimit:10;}
	.st3{fill:none;stroke:#444444;stroke-width:0.5;stroke-linecap:round;stroke-linejoin:round;stroke-miterlimit:10;}
</style>
<g>
	<g>
		<path class="st0" d="M45.5,12.5l-5.6-3.6l-7.7-4.4l-6-2.8C23,1.6,4.8,10.6,4.8,13.8l-0.5,7.8l0.5,15.1l11.5,7.6l31-11
			C48,32.8,46.5,14.5,45.5,12.5z"/>
		<g>
			<g>
				<path class="st1" d="M30.7,46.5l-2.2,1.3c-1.7,1-3.8,1-5.5,0l-15.6-9c-1.7-1-2.7-2.8-2.7-4.7v-18c0-2,1-3.8,2.7-4.7l15.6-9
					c1.7-1,3.8-1,5.5,0l15.6,9c1.7,1,2.7,2.8,2.7,4.7v18c0,2-1,3.8-2.7,4.7l-2.5,1.4"/>
			</g>
		</g>
	</g>
	<g>
		<circle class="st2" cx="26.1" cy="14.2" r="4.3"/>
		<g>
			<circle class="st2" cx="19" cy="33.7" r="4.3"/>
			<circle class="st2" cx="33.5" cy="33.7" r="4.3"/>
		</g>
		<polyline class="st3" points="20.7,29.5 26,18.5 31.8,29.5 		"/>
	</g>
</g>
</svg>
