<?xml version="1.0" encoding="utf-8"?>
<!-- Generator: Adobe Illustrator 28.0.0, SVG Export Plug-In . SVG Version: 6.00 Build 0)  -->
<svg version="1.1" id="Camada_1" xmlns="http://www.w3.org/2000/svg" xmlns:xlink="http://www.w3.org/1999/xlink" x="0px" y="0px"
	 viewBox="0 0 51.1 50" style="enable-background:new 0 0 51.1 50;" xml:space="preserve">
<style type="text/css">
	.st0{fill:#C3FF68;}
	.st1{fill:none;stroke:#444444;stroke-width:2.5;stroke-linecap:round;stroke-linejoin:round;stroke-miterlimit:10;}
	.st2{fill:#444444;}
	.st3{fill:none;stroke:#444444;stroke-width:0.5;stroke-miterlimit:10;}
</style>
<g>
	<path class="st0" d="M44.3,12.7l-5.6-3.6L31,4.7l-6-2.8C21.8,1.9,3.6,10.8,3.6,14l-0.5,7.8l0.5,15.1l11.5,7.6l31-11
		C46.8,33,45.3,14.7,44.3,12.7z"/>
	<g>
		<g>
			<path class="st1" d="M33.1,44.8l-5.6,3.1c-1.7,1-3.8,1-5.5,0l-15.6-9c-1.7-1-2.7-2.8-2.7-4.7v-18c0-2,1-3.8,2.7-4.7l15.6-9
				c1.7-1,3.8-1,5.5,0l15.6,9c1.7,1,2.7,2.8,2.7,4.7v18c0,2-1,3.8-2.7,4.7"/>
		</g>
	</g>
	<g>
		<path class="st2" d="M27.2,43.7c0,0.2-0.2,0.4-0.4,0.4h-5.1c-0.2,0-0.4-0.2-0.4-0.4v-1.9c0-0.2,0.2-0.4,0.4-0.4h5.1
			c0.2,0,0.4,0.2,0.4,0.4V43.7L27.2,43.7z M26.7,40.5h-5.1c-0.7,0-1.3,0.6-1.3,1.3v1.9c0,0.7,0.6,1.3,1.3,1.3h5.1
			c0.7,0,1.3-0.6,1.3-1.3v-1.9C28.1,41.1,27.5,40.5,26.7,40.5L26.7,40.5z"/>
		<path class="st2" d="M12.3,30.1V14.5c0-0.3,0.3-0.6,0.6-0.6h6.2c0.3,0,0.5,0.1,0.6,0.4l0.9,2.1c0.2,0.6,0.8,0.9,1.4,0.9h11
			c0.3,0,0.6,0.3,0.6,0.6v12.1c0,0.3-0.3,0.6-0.6,0.6h-20C12.6,30.7,12.3,30.4,12.3,30.1L12.3,30.1z M14.9,11.9
			c0-0.3,0.3-0.6,0.6-0.6h6.2c0.3,0,0.5,0.1,0.6,0.4l0.9,2.1c0.2,0.6,0.8,0.9,1.4,0.9h11c0.3,0,0.6,0.3,0.6,0.6v12.1
			c0,0.3-0.3,0.6-0.6,0.6h-1.1V18c0-0.8-0.7-1.5-1.5-1.5h-11c-0.3,0-0.5-0.1-0.6-0.4L20.4,14c-0.2-0.6-0.8-0.9-1.4-0.9h-4.1V11.9
			L14.9,11.9z M23.9,31.6h9c0.8,0,1.5-0.7,1.5-1.5V29h1.1c0.8,0,1.5-0.7,1.5-1.5V15.3c0-0.8-0.7-1.5-1.5-1.5h-11
			c-0.2,0-0.5-0.1-0.6-0.4l-0.9-2.1c-0.2-0.6-0.8-0.9-1.4-0.9h-6.2c-0.8,0-1.5,0.7-1.5,1.5V13h-1.1c-0.8,0-1.5,0.7-1.5,1.5v15.6
			c0,0.8,0.7,1.5,1.5,1.5H23"/>
		<polyline class="st3" points="24.2,31.6 24.2,38.8 24.2,40.9 		"/>
		<g>
			<path class="st2" d="M38.9,40.2c0,0.2-0.2,0.4-0.4,0.4h-5.1c-0.2,0-0.4-0.2-0.4-0.4v-1.9c0-0.2,0.2-0.4,0.4-0.4h5.1
				c0.2,0,0.4,0.2,0.4,0.4V40.2L38.9,40.2z M38.5,37h-5.1c-0.7,0-1.3,0.6-1.3,1.3v1.9c0,0.7,0.6,1.3,1.3,1.3h5.1
				c0.7,0,1.3-0.6,1.3-1.3v-1.9C39.8,37.6,39.2,37,38.5,37L38.5,37z"/>
			<path class="st2" d="M15.5,40.2c0,0.2-0.2,0.4-0.4,0.4H9.9c-0.2,0-0.4-0.2-0.4-0.4v-1.9c0-0.2,0.2-0.4,0.4-0.4H15
				c0.2,0,0.4,0.2,0.4,0.4V40.2L15.5,40.2z M15,37H9.9c-0.7,0-1.3,0.6-1.3,1.3v1.9c0,0.7,0.6,1.3,1.3,1.3H15c0.7,0,1.3-0.6,1.3-1.3
				v-1.9C16.4,37.6,15.8,37,15,37L15,37z"/>
			<polyline class="st3" points="23.9,33.9 12.5,33.9 12.5,37.3 			"/>
			<polyline class="st3" points="23.9,33.9 35.8,33.9 35.8,37 			"/>
		</g>
	</g>
</g>
</svg>
