<?xml version="1.0" encoding="utf-8"?>
<!-- Generator: Adobe Illustrator 27.9.0, SVG Export Plug-In . SVG Version: 6.00 Build 0)  -->
<svg version="1.1" id="Camada_1" xmlns="http://www.w3.org/2000/svg" xmlns:xlink="http://www.w3.org/1999/xlink" x="0px" y="0px"
	 viewBox="0 0 50 50" style="enable-background:new 0 0 50 50;" xml:space="preserve">
<style type="text/css">
	.st0{fill:#FF6B6B;}
	.st1{fill:none;stroke:#444444;stroke-linecap:round;stroke-linejoin:round;stroke-miterlimit:10;}
	.st2{fill:none;stroke:#444444;stroke-width:0.5;stroke-linecap:round;stroke-linejoin:round;stroke-miterlimit:10;}
	.st3{fill:none;stroke:#444444;stroke-width:2.5;stroke-linecap:round;stroke-linejoin:round;stroke-miterlimit:10;}
</style>
<path class="st0" d="M36.9,2L18.4,2c-1.4,0-4.5,2.2-4.5,3.7l-10.1,4l0.3,25.6l5.8,2.4c0.8,0.5,11-2.2,8.8,4.1l-4.8,7.2l18.7-6.7
	c-7.2-6.6,14.2-4.7,14.1-7.4l0.2-24.5l-3.8-3.1l-5-0.9C38.2,5.3,38.4,2,36.9,2z"/>
<g>
	<line class="st1" x1="4.3" y1="31.7" x2="45.4" y2="31.7"/>
	<line class="st2" x1="24.4" y1="34.4" x2="26.2" y2="34.4"/>
	<path class="st1" d="M15.2,47.8L15.2,47.8c0-2.2,1.6-3.9,3.7-3.9h12.8"/>
</g>
<g>
	<g>
		<line class="st1" x1="13.3" y1="28.1" x2="13.3" y2="8.4"/>
		<polyline class="st1" points="18.6,3 36.6,3 36.6,28.1 		"/>
	</g>
	<polygon class="st1" points="13.3,8.4 18.6,3 18.6,8.4 	"/>
</g>
<line class="st2" x1="16.8" y1="28.1" x2="33" y2="28.1"/>
<line class="st2" x1="21.3" y1="28.1" x2="21.3" y2="22.7"/>
<line class="st2" x1="24.9" y1="28.1" x2="24.9" y2="20"/>
<line class="st2" x1="28.5" y1="28.1" x2="28.5" y2="22.7"/>
<line class="st2" x1="32.1" y1="28.1" x2="32.1" y2="19.1"/>
<circle class="st2" cx="28.5" cy="11" r="4.5"/>
<polyline class="st2" points="28.5,6.6 28.5,11 24,11 "/>
<line class="st2" x1="16.8" y1="11.9" x2="20.4" y2="11.9"/>
<line class="st2" x1="16.8" y1="15.5" x2="20.4" y2="15.5"/>
<path class="st3" d="M18.3,37.8h-10c-2.7,0-4.9-2.2-4.9-4.9V12.5c0-2.7,2.2-4.9,4.9-4.9h2.9h1.4l0,0l5.9-5.8h18.9v5.8l0,0h4.4
	c2.7,0,4.9,2.2,4.9,4.9V33c0,1.4-0.6,2.7-1.6,3.6c-0.9,0.8-2,1.3-3.3,1.3H31.5"/>
<path class="st3" d="M24.3,48.7H14c0,0-0.2-5.2,4.7-5.5l0-5.4"/>
<path class="st3" d="M31.2,38l0,5.2c0,0,2,0.1,3.3,1.6"/>
</svg>
