<svg xmlns="http://www.w3.org/2000/svg" xmlns:xlink="http://www.w3.org/1999/xlink" id="Layer_1" x="0" y="0" version="1.1" viewBox="0 0 50 50" xml:space="preserve"><style>.st2{stroke-width:.5}.st2,.st3{fill:none;stroke:#414141;stroke-linecap:round;stroke-linejoin:round;stroke-miterlimit:10}</style><path fill="#c3ff68" d="M45.3 9.3H3c-1.4 0-1.5 4-1.5 5.4l-.2 5.9-.5 10.5 1.3 12.1 12.8.6L48 32V12c-.1-1.5-1.2-2.7-2.7-2.7z"/><path fill="none" stroke="#414141" stroke-linecap="round" stroke-linejoin="round" stroke-miterlimit="10" stroke-width="2.5" d="M37.5 43.5H5c-2 0-3.5-1.5-3.5-3.5V13C1.5 11.1 3 9.5 5 9.5h40.2c1.9 0 3.5 1.6 3.5 3.5v22.5"/><path d="M1.5 15.7h43.1" class="st2"/><path d="M8.1 13.3h2.2m1.9 0h2.1m2 0h2.1" class="st3"/><defs><path id="SVGID_1_" d="M7.2 17.8h22.7v22.7H7.2z"/></defs><clipPath id="SVGID_00000016787409116090659270000006710056291278994313_"><use overflow="visible" xlink:href="#SVGID_1_"/></clipPath><g clip-path="url(#SVGID_00000016787409116090659270000006710056291278994313_)"><path id="_x3C_Repetição_de_grade_x3E__00000117660730631336681580000016579737134813852594_" d="M12.7 24.1H8.3c-.4 0-.7-.3-.7-.7v-4.5c0-.4.3-.7.7-.7h4.5c.4 0 .7.3.7.7v4.5c0 .4-.4.7-.8.7z" class="st2"/><path id="_x3C_Repetição_de_grade_x3E__00000026859485125507657310000008328830657595608974_" d="M20.6 24.1h-4.5c-.4 0-.7-.3-.7-.7v-4.5c0-.4.3-.7.7-.7h4.5c.4 0 .7.3.7.7v4.5c.1.4-.3.7-.7.7z" class="st2"/><path id="_x3C_Repetição_de_grade_x3E__00000165226755887616343350000001447305533809674399_" d="M28.5 24.1H24c-.4 0-.7-.3-.7-.7v-4.5c0-.4.3-.7.7-.7h4.5c.4 0 .7.3.7.7v4.5c.1.4-.3.7-.7.7z" class="st2"/><path id="_x3C_Repetição_de_grade_x3E__00000059303365802398447410000003671093348726676111_" d="M12.7 31.8H8.3c-.4 0-.7-.3-.7-.7v-4.5c0-.4.3-.7.7-.7h4.5c.4 0 .7.3.7.7V31c0 .4-.4.8-.8.8z" class="st2"/><path id="_x3C_Repetição_de_grade_x3E__00000007403981096946269950000016914492562600806076_" d="M20.6 31.8h-4.5c-.4 0-.7-.3-.7-.7v-4.5c0-.4.3-.7.7-.7h4.5c.4 0 .7.3.7.7V31c.1.4-.3.8-.7.8z" class="st2"/><path id="_x3C_Repetição_de_grade_x3E__00000154425366086314241820000012176802083581004731_" d="M28.5 31.8H24c-.4 0-.7-.3-.7-.7v-4.5c0-.4.3-.7.7-.7h4.5c.4 0 .7.3.7.7V31c.1.4-.3.8-.7.8z" class="st2"/><path id="_x3C_Repetição_de_grade_x3E__00000165941438342380970600000002105626119758586753_" d="M12.7 39.4H8.3c-.4 0-.7-.3-.7-.7v-4.5c0-.4.3-.7.7-.7h4.5c.4 0 .7.3.7.7v4.5c0 .4-.4.7-.8.7z" class="st2"/><path id="_x3C_Repetição_de_grade_x3E__00000003096645642632943440000004472901380758678939_" d="M20.6 39.4h-4.5c-.4 0-.7-.3-.7-.7v-4.5c0-.4.3-.7.7-.7h4.5c.4 0 .7.3.7.7v4.5c.1.4-.3.7-.7.7z" class="st2"/><path id="_x3C_Repetição_de_grade_x3E__00000099626277236518219990000012961742325630203069_" d="M28.5 39.4H24c-.4 0-.7-.3-.7-.7v-4.5c0-.4.3-.7.7-.7h4.5c.4 0 .7.3.7.7v4.5c.1.4-.3.7-.7.7z" class="st2"/></g><path d="M32.3 19.3h4.4M32.3 22h11m-11 2.6h9.4m-9.4 5h11m-11-2.4h11m-11 4.9h9.4" class="st3"/><path fill="#414141" d="M20.8 31.7h-4.9c-.2 0-.4-.2-.4-.4v-4.9c0-.2.2-.4.4-.4h4.9c.2 0 .4.2.4.4v4.9c0 .2-.2.4-.4.4z"/></svg>