<svg xmlns="http://www.w3.org/2000/svg" id="Layer_1" x="0" y="0" version="1.1" viewBox="0 0 50 50" xml:space="preserve"><style>.st2{fill:#031326}</style><path fill="#46b8b0" d="M40.7 7.6L1.8 21.8c-.1 1.1-.2 2.1-.2 3.2 0 8.5 4.5 15.9 11.2 20l34.4-12.5c.8-2.3 1.2-4.8 1.2-7.5 0-6.9-2.9-13.1-7.7-17.4z"/><path fill="#4ecdc4" d="M25 1.6c-11.8 0-21.6 8.8-23.2 20.2L40.7 7.6c-4.2-3.7-9.7-6-15.7-6z"/><path d="M44.7 37.7c-.6-.4-1.3-.3-1.7.3-2.3.5-4.3.7-6.2.6-1.7-.1-3.3-.4-4.8-.8-.3-.1-.5-.1-.8 0-3.3 1.5-6.8 1.8-10.2.8-7.1-2.1-11.4-8.8-10.3-16.1.4-2.7 1.5-5.1 3.3-7.2.4-.5.9-1 1.5-1.5l.6-.5-.9-.3c-.1 0-6-.8-10.1 2.2.2-.6 0-1.3-.6-1.5-.6-.3-1.4 0-1.7.6C1.1 17.7.3 21.3.3 25 .3 38.6 11.4 49.7 25 49.7c7.8 0 14.9-3.5 19.6-9.7.1-.2.3-.3.4-.5.4-.6.3-1.4-.3-1.8zM25 47.2c-12.2 0-22.2-10-22.2-22.2 0-2.8.5-5.5 1.5-8.1 3-3.2 7.9-3.3 9.9-3.2-.3.3-.7.7-.9 1-1.9 2.2-3 4.8-3.4 7.6-1.1 7.7 3.5 14.8 10.9 17 1.4.4 2.9.6 4.3.6 2.2 0 4.4-.5 6.5-1.5.1 0 .2-.1.3 0 1.6.5 3.2.8 5 .9 1.7.1 3.5 0 5.5-.4-4.4 5.3-10.6 8.3-17.4 8.3z" class="st2"/><path d="M25 .3c-7.4 0-14.3 3.3-19 9-.4.5-.4 1.3.2 1.8.5.4 1.3.4 1.8-.2.3-.4.6-.7.9-1.1.1 0 .1-.1.2-.1 2.1-.9 4.4-1.2 6.8-.8 1.6.3 2.9.8 4 1.5.3.2.6.2.9.1 2.4-1 5-1.3 7.6-1 3.5.5 6.4 2.1 8.7 4.6 3 3.4 4.3 7.4 3.6 11.9-.4 2.7-1.5 5.2-3.4 7.4-.2.2-.3.4-.5.6l-.7.8.6.1s.9.2 2.3.2c1.9 0 4.5-.4 6.9-2.1.1.4.4.7.8.9.1 0 .3.1.4.1.5 0 1-.3 1.2-.8.9-2.6 1.4-5.4 1.4-8.2C49.7 11.4 38.6.3 25 .3zm12.6 34c.1-.1.2-.2.3-.4 2-2.3 3.1-4.9 3.5-7.7.6-4.8-.6-9-3.8-12.5-2.4-2.7-5.5-4.3-9.2-4.9-2.7-.4-5.4 0-8 1h-.2C19 9 17.6 8.5 15.9 8.2c-2-.3-3.9-.2-5.8.3 4.1-3.7 9.3-5.7 14.9-5.7 12.2 0 22.2 10 22.2 22.2 0 2.4-.4 4.8-1.1 7-3.1 2.6-7 2.5-8.5 2.3z" class="st2"/><path d="M21.1 12.8c1.3-.4 2.7-.7 4-.6 3.1.1 5.8 1.1 8 3.1 2.2 1.9 3.6 4.4 4 7.2.6 3.7-.3 7.1-2.7 10-.6.7-1.3 1.4-2 2-.1.1-.2.1-.3.1-1.1-.2-1.8-1-2.4-1.9-1.1-1.6-1.9-3.4-2.6-5.2-.8-1.9-1.3-3.9-1.9-5.9-.6-2.1-1.3-4.1-2.3-6-.5-1-1.1-1.9-1.8-2.8.1.1.1.1 0 0zm-3.2 1.7c.1 0 .1.1.2.1 1.3.8 2.2 1.8 3 3.1.9 1.6 1.6 3.2 2.2 4.9.1.1 0 .2-.1.3-1 2.1-2.1 4.2-3.2 6.3-.9 1.7-1.7 3.4-2.2 5.3-.1.2-.1.1-.2 0-1.4-1-2.5-2.3-3.4-3.9-1.2-2.1-1.7-4.4-1.6-6.8.3-3.9 2-7 5.1-9.3 0 .1.1 0 .2 0-.1 0-.1 0 0 0zM24 25.1c.6 2.1 1.2 4.2 1.9 6.2.5 1.5 1.1 2.9 2.1 4.1.3.3.5.6.9.9-.4.2-.8.3-1.2.3-2.3.5-4.5.4-6.7-.4-.2-.1-.2-.1-.2-.3-.2-1.8.3-3.5.9-5.1.7-1.9 1.5-3.8 2.3-5.7 0 .1 0 0 0 0z" class="st2"/></svg>