<?xml version="1.0" encoding="utf-8"?>
<!-- Generator: Adobe Illustrator 22.1.0, SVG Export Plug-In . SVG Version: 6.00 Build 0)  -->
<svg version="1.1" id="Layer_1" xmlns="http://www.w3.org/2000/svg" xmlns:xlink="http://www.w3.org/1999/xlink" x="0px" y="0px"
	 viewBox="0 0 50 50" style="enable-background:new 0 0 50 50;" xml:space="preserve">
<style type="text/css">
	.st0{fill:#E589EF;}
	.st1{fill:#F799FF;}
	.st2{fill:#444444;}
	.st3{fill:#00DFFC;}
	.st4{fill:#00C8E2;}
	.st5{fill:#FDCF72;}
	.st6{fill:#FCC34F;}
	.st7{fill:#4ECDC4;}
	.st8{fill:#46B8B0;}
	.st9{fill:#FF6B6B;}
	.st10{fill:#E56060;}
</style>
<g>
	<path class="st0" d="M40.7,7.6L1.8,21.8c-0.1,1.1-0.2,2.1-0.2,3.2c0,8.5,4.5,15.9,11.2,20l34.4-12.5c0.8-2.3,1.2-4.8,1.2-7.5
		C48.4,18.1,45.5,11.9,40.7,7.6z"/>
</g>
<g>
	<path class="st1" d="M25,1.6c-11.8,0-21.6,8.8-23.2,20.2L40.7,7.6C36.5,3.9,31,1.6,25,1.6z"/>
</g>
<path class="st2" d="M44.7,37.7c-0.6-0.4-1.3-0.3-1.7,0.3c-2.3,0.5-4.3,0.7-6.2,0.6c-1.7-0.1-3.3-0.4-4.8-0.8
	c-0.3-0.1-0.5-0.1-0.8,0c-3.3,1.5-6.8,1.8-10.2,0.8c-7.1-2.1-11.4-8.8-10.3-16.1c0.4-2.7,1.5-5.1,3.3-7.2c0.4-0.5,0.9-1,1.5-1.5
	l0.6-0.5L15.2,13c-0.1,0-6-0.8-10.1,2.2c0.2-0.6,0-1.3-0.6-1.5c-0.6-0.3-1.4,0-1.7,0.6c-1.7,3.4-2.5,7-2.5,10.7
	c0,13.6,11.1,24.7,24.7,24.7c7.8,0,14.9-3.5,19.6-9.7c0.1-0.2,0.3-0.3,0.4-0.5C45.4,38.9,45.3,38.1,44.7,37.7z M25,47.2
	c-12.2,0-22.2-10-22.2-22.2c0-2.8,0.5-5.5,1.5-8.1c3-3.2,7.9-3.3,9.9-3.2c-0.3,0.3-0.7,0.7-0.9,1c-1.9,2.2-3,4.8-3.4,7.6
	c-1.1,7.7,3.5,14.8,10.9,17c1.4,0.4,2.9,0.6,4.3,0.6c2.2,0,4.4-0.5,6.5-1.5c0.1,0,0.2-0.1,0.3,0c1.6,0.5,3.2,0.8,5,0.9
	c1.7,0.1,3.5,0,5.5-0.4C38,44.2,31.8,47.2,25,47.2z"/>
<path class="st2" d="M25,0.3c-7.4,0-14.3,3.3-19,9c-0.4,0.5-0.4,1.3,0.2,1.8c0.5,0.4,1.3,0.4,1.8-0.2c0.3-0.4,0.6-0.7,0.9-1.1
	C9,9.8,9,9.7,9.1,9.7c2.1-0.9,4.4-1.2,6.8-0.8c1.6,0.3,2.9,0.8,4,1.5c0.3,0.2,0.6,0.2,0.9,0.1c2.4-1,5-1.3,7.6-1
	c3.5,0.5,6.4,2.1,8.7,4.6c3,3.4,4.3,7.4,3.6,11.9c-0.4,2.7-1.5,5.2-3.4,7.4c-0.2,0.2-0.3,0.4-0.5,0.6l-0.7,0.8l0.6,0.1
	c0,0,0.9,0.2,2.3,0.2c1.9,0,4.5-0.4,6.9-2.1c0.1,0.4,0.4,0.7,0.8,0.9c0.1,0,0.3,0.1,0.4,0.1c0.5,0,1-0.3,1.2-0.8
	c0.9-2.6,1.4-5.4,1.4-8.2C49.7,11.4,38.6,0.3,25,0.3z M37.6,34.3c0.1-0.1,0.2-0.2,0.3-0.4c2-2.3,3.1-4.9,3.5-7.7
	c0.6-4.8-0.6-9-3.8-12.5c-2.4-2.7-5.5-4.3-9.2-4.9c-2.7-0.4-5.4,0-8,1c-0.1,0-0.1,0-0.2,0C19,9,17.6,8.5,15.9,8.2
	c-2-0.3-3.9-0.2-5.8,0.3c4.1-3.7,9.3-5.7,14.9-5.7c12.2,0,22.2,10,22.2,22.2c0,2.4-0.4,4.8-1.1,7C43,34.6,39.1,34.5,37.6,34.3z"/>
<g>
	<path class="st2" d="M21.1,12.8c1.3-0.4,2.7-0.7,4-0.6c3.1,0.1,5.8,1.1,8,3.1c2.2,1.9,3.6,4.4,4,7.2c0.6,3.7-0.3,7.1-2.7,10
		c-0.6,0.7-1.3,1.4-2,2c-0.1,0.1-0.2,0.1-0.3,0.1c-1.1-0.2-1.8-1-2.4-1.9c-1.1-1.6-1.9-3.4-2.6-5.2c-0.8-1.9-1.3-3.9-1.9-5.9
		c-0.6-2.1-1.3-4.1-2.3-6C22.4,14.6,21.8,13.7,21.1,12.8C21.2,12.9,21.2,12.9,21.1,12.8z"/>
</g>
<g>
	<path class="st2" d="M17.9,14.5c0.1,0,0.1,0.1,0.2,0.1c1.3,0.8,2.2,1.8,3,3.1c0.9,1.6,1.6,3.2,2.2,4.9c0.1,0.1,0,0.2-0.1,0.3
		c-1,2.1-2.1,4.2-3.2,6.3c-0.9,1.7-1.7,3.4-2.2,5.3c-0.1,0.2-0.1,0.1-0.2,0c-1.4-1-2.5-2.3-3.4-3.9c-1.2-2.1-1.7-4.4-1.6-6.8
		c0.3-3.9,2-7,5.1-9.3C17.7,14.6,17.8,14.5,17.9,14.5C17.8,14.5,17.8,14.5,17.9,14.5z"/>
</g>
<g>
	<path class="st2" d="M24,25.1c0.6,2.1,1.2,4.2,1.9,6.2c0.5,1.5,1.1,2.9,2.1,4.1c0.3,0.3,0.5,0.6,0.9,0.9c-0.4,0.2-0.8,0.3-1.2,0.3
		c-2.3,0.5-4.5,0.4-6.7-0.4c-0.2-0.1-0.2-0.1-0.2-0.3c-0.2-1.8,0.3-3.5,0.9-5.1C22.4,28.9,23.2,27,24,25.1C24,25.2,24,25.1,24,25.1z
		"/>
</g>
<g>
	<circle class="st1" cx="-102.1" cy="-45.9" r="20"/>
	<circle class="st0" cx="-82.1" cy="-45.9" r="20"/>
</g>
<g>
	<circle class="st3" cx="-236.4" cy="-45.9" r="20"/>
	<circle class="st4" cx="-216.4" cy="-45.9" r="20"/>
</g>
<g>
	<circle class="st5" cx="-236.4" cy="11.7" r="20"/>
	<circle class="st6" cx="-216.4" cy="11.7" r="20"/>
</g>
<g>
	<circle class="st7" cx="-102.1" cy="11.7" r="20"/>
	<circle class="st8" cx="-82.1" cy="11.7" r="20"/>
</g>
<g>
	<circle class="st9" cx="-232.9" cy="-108.8" r="20"/>
	<circle class="st10" cx="-212.9" cy="-108.8" r="20"/>
</g>
</svg>
