<svg xmlns="http://www.w3.org/2000/svg" viewBox="0 0 50 50"><path fill="#fcc34f" d="M45.3 19.6c-.2-.8-8.1-2.6-8.6-3.2l-1-4.4-5.2-4.4-8.3 1-3.3 7.5c-4.8-2.5-11.4 4.5-11.6 9l-2 .9-3.7 5.3L3.7 38c.1.4 6.1.2 6.4.4l5.7 1.7L48 29.6c.3-.2 1.2-2.5.6-4.5s-2.5-3.3-3-5.6z"/><path fill="none" stroke="#444" stroke-linecap="round" stroke-linejoin="round" stroke-width="2.5" d="M21.4 39.2H8c-3.5 0-6.3-2.5-6.6-6-.3-3.3 2.1-6.4 5.4-7h.9c-.2-3 .8-5.7 3.1-7.7 2.3-2.1 5-2.7 8-2.3 0-2.9 1.2-5.3 3.5-7.1C24 7.8 25.9 7.2 28 7.3c4.7 0 9.1 4.3 8.7 9.5.7 0 1.3 0 2 .1 5.2.5 9.3 4.6 9.9 9.8V29l-.6 2.7c0 .2-.1.4-.2.6"/><path fill="#444" d="M19.8 21.3c0-.4 0-.8-.1-1.1 0-.4.2-.5.5-.6h11.2c.7 0 .9.1.8.9v.8h.9c.5 0 .7.2.6.7 0 1.6-.5 3.2-1.6 4.5-.5.5-.6 1.1-.7 1.8-.1 1.3-.2 2.5-.4 3.8 0 .5-.2.6-.6.6h-8.8c-.5 0-.6-.1-.6-.6-.2-1.5-.3-3.1-.5-4.6 0-.2-.1-.4-.3-.5-1.2-1.4-1.8-3-1.9-4.9 0-.5.1-.6.6-.6h.9zm11.4-.7H20.7v.2l.6 5.7c0 .1.1.3.2.4 2.5 2.2 6.3 2.2 8.8 0 .1-.1.2-.3.3-.5 0-.7.2-1.3.2-2 .1-1.2.2-2.5.4-3.8zm-9.4 11h8.1c.2 0 .3-.1.3-.3 0-.7.2-1.5.2-2.2V28c-3 1.9-6 1.9-9 0 .1 1.3.2 2.4.4 3.6zm-2.6-9.3c0 1.1.4 2 .9 2.8v-.3c0-.7-.1-1.4-.2-2 0-.6 0-.6-.8-.5zm12.5 2.8h.1c.5-.9.8-1.8.8-3-.3.2-.6-.1-.7.3-.1.9-.2 1.8-.3 2.6z"/></svg>