<?xml version="1.0" encoding="utf-8"?>
<!-- Generator: Adobe Illustrator 28.0.0, SVG Export Plug-In . SVG Version: 6.00 Build 0)  -->
<svg version="1.1" id="Layer_1" xmlns="http://www.w3.org/2000/svg" xmlns:xlink="http://www.w3.org/1999/xlink" x="0px" y="0px"
	 viewBox="0 0 50 50" style="enable-background:new 0 0 50 50;" xml:space="preserve">
<style type="text/css">
	.st0{fill:#DC5E82;}
	.st1{fill:none;stroke:#444444;stroke-width:2.5;stroke-linecap:round;stroke-linejoin:round;stroke-miterlimit:10;}
	.st2{fill:none;stroke:#444444;stroke-linecap:round;stroke-linejoin:round;stroke-miterlimit:10;}
	.st3{fill:none;stroke:#444444;stroke-width:0.5;stroke-miterlimit:10;}
</style>
<path class="st0" d="M44.8,15.8l-9.9-9.1l-8.6-2.4L14,7.5c-3.2,0-11,10-11,13.2L1.8,32.3v8h15.6l31-11
	C49.2,28.9,47.2,18.8,44.8,15.8z"/>
<path class="st1" d="M33.9,40.4H1.8V27.9C1.8,15.1,12.2,4.7,25,4.7h0c12.8,0,23.2,10.4,23.2,23.2v6.8"/>
<g>
	<g>
		<path class="st2" d="M11.5,23.5c0,0-0.2-5.2,5-7c0,0,5.8-1.8,8.6,3.6"/>
		<path class="st2" d="M21,16.6c0,0,4-7.1,12-3.8c0,0,6.1,2.4,5.2,8.8"/>
		<path class="st2" d="M11.7,21.6c0,0-4.7-0.2-4.7,4.9c0,0,0.2,3.7,3.9,4.1h6"/>
		<path class="st2" d="M36,21.6c0,0,5.4-0.7,5.4,4.6c0,0,0,3.4-3.6,4.1h-6.4"/>
	</g>
	<g>
		<path class="st3" d="M26.5,30.9c-0.1,0-0.2,0-0.3,0c-0.1,0-0.3-0.5-0.8-1.1c-0.3-0.4-0.7-0.6-1.2-0.6c-0.4,0-0.8,0.2-1.1,0.6
			c-0.5,0.6-0.6,1.2-0.7,1.1c-0.1,0-0.1,0-0.2,0c-0.7,0-1.3,0.8-1.3,1.7c0,1,0.6,1.7,1.3,1.7c0.2,0,0.8-0.2,1-0.2
			c0.6-0.2,1.8-0.2,2.3,0c0.2,0.1,0.8,0.3,1,0.3c0.7,0,1.3-0.8,1.3-1.7C27.8,31.7,27.2,30.9,26.5,30.9z"/>
		<path class="st3" d="M21.1,28.8c-0.3-0.9-1-1.4-1.7-1.2c-0.7,0.2-1,1.1-0.7,2c0.3,0.9,1,1.4,1.7,1.2
			C21.1,30.5,21.4,29.6,21.1,28.8z"/>
		<path class="st3" d="M22.8,28.1c0.8-0.1,1.3-1.1,1.1-2.1c-0.2-1-0.9-1.7-1.7-1.6c-0.8,0.1-1.3,1.1-1.1,2.1
			C21.2,27.6,22,28.3,22.8,28.1z"/>
		<path class="st3" d="M29.3,27.6c-0.7-0.2-1.4,0.3-1.7,1.2c-0.3,0.9,0.1,1.7,0.7,2c0.7,0.2,1.4-0.3,1.7-1.2
			C30.2,28.7,29.9,27.8,29.3,27.6z"/>
		<path class="st3" d="M25.9,28.1c0.8,0.1,1.6-0.6,1.7-1.6c0.2-1-0.3-2-1.1-2.1C25.8,24.3,25,25,24.8,26
			C24.6,27.1,25.2,28,25.9,28.1z"/>
	</g>
</g>
</svg>
