<svg xmlns="http://www.w3.org/2000/svg" id="Layer_1" x="0" y="0" version="1.1" viewBox="0 0 50 50" xml:space="preserve"><style>.st2{fill:none;stroke:#444;stroke-miterlimit:10;stroke-linecap:round;stroke-linejoin:round}</style><path fill="#dc5e82" d="M44.8 15.8l-9.9-9.1-8.6-2.4L14 7.5c-3.2 0-11 10-11 13.2L1.8 32.3v8h15.6l31-11c.8-.4-1.2-10.5-3.6-13.5z"/><path fill="none" stroke="#444" stroke-linecap="round" stroke-linejoin="round" stroke-miterlimit="10" stroke-width="2.5" d="M33.9 40.4H1.8V27.9C1.8 15.1 12.2 4.7 25 4.7h0c12.8 0 23.2 10.4 23.2 23.2v6.8"/><path d="M11.5 23.5s-.2-5.2 5-7c0 0 5.8-1.8 8.6 3.6" class="st2"/><path d="M21 16.6s4-7.1 12-3.8c0 0 6.1 2.4 5.2 8.8m-26.5 0S7 21.4 7 26.5c0 0 .2 3.7 3.9 4.1h6" class="st2"/><path d="M36 21.6s5.4-.7 5.4 4.6c0 0 0 3.4-3.6 4.1h-6.4" class="st2"/><path fill="none" stroke="#444" stroke-miterlimit="10" stroke-width=".5" d="M26.5 30.9h-.3c-.1 0-.3-.5-.8-1.1-.3-.4-.7-.6-1.2-.6-.4 0-.8.2-1.1.6-.5.6-.6 1.2-.7 1.1h-.2c-.7 0-1.3.8-1.3 1.7 0 1 .6 1.7 1.3 1.7.2 0 .8-.2 1-.2.6-.2 1.8-.2 2.3 0 .2.1.8.3 1 .3.7 0 1.3-.8 1.3-1.7 0-1-.6-1.8-1.3-1.8zm-5.4-2.1c-.3-.9-1-1.4-1.7-1.2-.7.2-1 1.1-.7 2 .3.9 1 1.4 1.7 1.2.7-.3 1-1.2.7-2zm1.7-.7c.8-.1 1.3-1.1 1.1-2.1-.2-1-.9-1.7-1.7-1.6-.8.1-1.3 1.1-1.1 2.1.1 1.1.9 1.8 1.7 1.6zm6.5-.5c-.7-.2-1.4.3-1.7 1.2-.3.9.1 1.7.7 2 .7.2 1.4-.3 1.7-1.2.2-.9-.1-1.8-.7-2zm-3.4.5c.8.1 1.6-.6 1.7-1.6.2-1-.3-2-1.1-2.1-.7-.1-1.5.6-1.7 1.6-.2 1.1.4 2 1.1 2.1z"/></svg>