<?xml version="1.0" encoding="UTF-8"?>
<svg id="Camada_2" data-name="Camada 2" xmlns="http://www.w3.org/2000/svg" version="1.1" viewBox="0 0 44.6 47.8">
  <defs>
    <style>
      .cls-1 {
        stroke-width: .5px;
      }

      .cls-1, .cls-2, .cls-3 {
        stroke: #444;
      }

      .cls-1, .cls-2, .cls-3, .cls-4 {
        fill: none;
        stroke-linecap: round;
        stroke-linejoin: round;
      }

      .cls-5 {
        fill: #8256d8;
      }

      .cls-5, .cls-6 {
        stroke-width: 0px;
      }

      .cls-6 {
        fill: #a475ef;
      }

      .cls-3, .cls-4 {
        stroke-width: 2.5px;
      }

      .cls-4 {
        stroke: #494949;
      }
    </style>
  </defs>
  <polygon class="cls-5" points="26.6 20.9 34 23.2 27.6 27.6 27.7 35.3 21.6 30.7 14.2 33.2 16.7 25.9 12.1 19.7 19.8 19.8 24.3 13.5 26.6 20.9"/>
  <g>
    <path class="cls-6" d="M43,20.8c-.2-.1,0-.5-.3-1.4l-.4-1.1c-1.1-1.9-3.2-3.2-5.4-3.2h-.6c0-.4.2-.8.2-1.2h0c0-.5,0-.8,0-1.2,0-1.7-.5-3.4-1.2-4.8,0,0-.2-.3-.3-.4h0s0,0,0,0c-1.8-2.9-5-4.8-8.6-4.8s-5.2,1-7,2.7c-.9-.4-2.2-.7-3.3-.7-4.7,0-8.5,3.8-8.5,8.5h0c-.2,0-.5.2-.7.2h0c-3.3.6-5.8,3.5-5.8,7h.3c0,0,0,0,0,0v.8c.2,3.4-.9,9.7,2.5,10.1l3,5c0,.2,4.4,3,4.6,3.2l3.9,1.4,25.2-9.2c.4-.2,2.4-3.9,1.8-7.1,0-.4,1.7-2.7.5-3.7Z"/>
    <path class="cls-1" d="M19.6,32.9c0,1,.8,1.7,1.7,1.7s1.7-.8,1.7-1.7-.8-1.7-1.7-1.7c-1,0-1.7.7-1.7,1.7ZM21.4,31.1v-2l1.3-1.3M12.7,32.3c0,1-.8,1.7-1.7,1.7s-1.7-.8-1.7-1.7.2-1,.6-1.3c.3-.2.7-.4,1.1-.4,1,0,1.7.8,1.7,1.7ZM25.8,37.2c0,1,.8,1.7,1.7,1.7s1.7-.8,1.7-1.7-.8-1.7-1.7-1.7-1.7.8-1.7,1.7ZM25.7,27.8v2.8l1.9,2.9v2M17.8,37.2c0,1-.8,1.7-1.7,1.7s-1.7-.8-1.7-1.7.8-1.7,1.7-1.7,1.7.8,1.7,1.7ZM16,35.5v-2l1.9-1.9v-3.9M12.1,30.7l.9-.9.9-1v-1.1M31,32.4c0,1,.8,1.7,1.7,1.7s1.7-.8,1.7-1.7-.8-1.7-1.7-1.7-1.7.8-1.7,1.7Z"/>
    <path class="cls-1" d="M29.7,27.8v1.4l1.9,1.9"/>
    <path class="cls-4" d="M7,13.5h.3c.2,0,.5,0,.7,0,2.3-.2,4.3.6,5.9,2l.4.4c.4.4.7.8.9,1.1M33.6,18.5c1.4-1,2.4-2.7,2.9-4.5h0c.2-1,.3-2,0-2.9"/>
    <path class="cls-3" d="M39.6,33.5c2.3-3.3,3.6-7.4,3.6-11.7h0c0-1.1-.3-2.5-.7-3.4-1.1-1.9-3.1-3.2-5.5-3.2h-.6c0-.4.2-.8.2-1.2h0c0-.5,0-.8,0-1.2,0-1.7-.5-3.4-1.2-4.8,0,0-.2-.3-.3-.4-1.8-2.9-5-4.8-8.6-4.8s-5.2,1-7,2.7c-.9-.4-2.2-.7-3.3-.7-4.7,0-8.5,3.8-8.5,8.5h0c-.2,0-.5.2-.7.2h0c-3.3.6-5.9,4.8-5.9,8.3h0c0,11.6,9.4,21,21,21"/>
    <path class="cls-2" d="M42.5,21.5c0,3.5-2.7,6.3-6.1,6.3H8.8c-3.7,0-6.7-2.9-7-6.6"/>
  </g>
</svg>