<?xml version="1.0" encoding="utf-8"?>
<!-- Generator: Adobe Illustrator 24.3.0, SVG Export Plug-In . SVG Version: 6.00 Build 0)  -->
<svg version="1.1" id="Layer_1" xmlns="http://www.w3.org/2000/svg" xmlns:xlink="http://www.w3.org/1999/xlink" x="0px" y="0px"
	 viewBox="0 0 50 50" style="enable-background:new 0 0 50 50;" xml:space="preserve">
<style type="text/css">
	.st0{fill:#A6C1C2;}
	.st1{fill:#46B8B0;}
	.st2{fill:#4ECDC4;}
	.st3{fill:none;stroke:#494949;stroke-linecap:round;stroke-linejoin:round;stroke-miterlimit:10;}
	.st4{fill:none;stroke:#494949;stroke-width:2.5;stroke-linecap:round;stroke-linejoin:round;stroke-miterlimit:10;}
</style>
<g>
	<g>
		<path class="st0" d="M6.5,35.6L6.5,35.6l-1.9,0.7C5.1,35.9,5.7,35.6,6.5,35.6z"/>
		<path class="st1" d="M46.4,21L19.1,31L18,31.4V31h-7.5c-4,0-7.3-3.1-7.6-7L3,23.2v-0.6l13.2-4.8l22.6-8.3c0.1,0.1,0.2,0.3,0.3,0.4
			c0.8,1.5,1.3,3.3,1.3,5.1c0,0.4,0,0.8-0.1,1.2c0,0,0,0,0,0.1c0,0.5-0.1,0.9-0.2,1.3c0.2,0,0.4,0,0.6,0C43,17.6,45.2,19,46.4,21z"
			/>
	</g>
	<g>
		<path class="st2" d="M39,10l-22.5,8.2l-13.7,5H2.7c0-3.7,2.7-6.8,6.2-7.4H9c0.2,0,0.5-0.1,0.7-0.1l0,0c0,0,0,0,0-0.1c0-5,4-9,9-9
			c1.2,0,2.5,0.3,3.5,0.7c1.9-1.8,4.5-2.9,7.4-2.9c3.8,0,7.2,2,9.1,5.1C38.8,9.7,38.9,9.8,39,10z"/>
	</g>
	<g>
		<path class="st3" d="M20.9,39.6c0,1.6,1.3,2.9,2.9,2.9s2.9-1.3,2.9-2.9c0-1.6-1.3-2.9-2.9-2.9C22.2,36.6,20.9,37.9,20.9,39.6z"/>
		<polyline class="st3" points="23.8,36.6 23.8,33.2 26,31 		"/>
		<path class="st3" d="M9.4,38.5c0,1.6-1.3,2.9-2.9,2.9s-2.9-1.3-2.9-2.9c0-0.9,0.4-1.7,1-2.2l0,0c0.5-0.4,1.2-0.7,1.9-0.7l0,0
			C8.1,35.6,9.4,36.9,9.4,38.5z"/>
		<path class="st3" d="M31.2,42.6c0,1.6,1.3,2.9,2.9,2.9c1.6,0,2.9-1.3,2.9-2.9c0-1.6-1.3-2.9-2.9-2.9C32.5,39.7,31.2,41,31.2,42.6z
			"/>
		<polyline class="st3" points="31.1,31 31.1,33.3 34.2,36.3 34.2,39.7 		"/>
		<path class="st3" d="M17.8,42.3c0,1.6-1.3,2.9-2.9,2.9S12,43.9,12,42.3c0-1.6,1.3-2.9,2.9-2.9C16.5,39.4,17.8,40.7,17.8,42.3z"/>
		<polyline class="st3" points="14.9,39.4 14.9,36 18,32.9 18,31.4 18,31 		"/>
		<polyline class="st3" points="8.4,35.9 9.9,34.4 11.4,32.8 11.4,31 		"/>
		<path class="st3" d="M39.9,38.8c0,1.6,1.3,2.9,2.9,2.9c1.6,0,2.9-1.3,2.9-2.9c0-1.6-1.3-2.9-2.9-2.9
			C41.2,35.9,39.9,37.2,39.9,38.8z"/>
		<polyline class="st3" points="37.7,31 37.7,33.4 40.8,36.5 		"/>
		<path class="st4" d="M47.2,24.3c0,3.7-3,6.7-6.7,6.7H10.4c-4,0-7.3-3.1-7.6-7c0-0.2,0-0.5,0-0.7v-0.1c0-3.7,2.7-6.8,6.2-7.4h0.1
			c0.2,0,0.5-0.1,0.7-0.1l0,0c0,0,0,0,0-0.1c0-5,4-9,9-9c1.2,0,2.5,0.3,3.5,0.7c1.9-1.8,4.5-2.9,7.4-2.9c3.8,0,7.2,2,9.1,5.1
			c0.1,0.1,0.2,0.3,0.3,0.4c0.8,1.5,1.3,3.3,1.3,5.1c0,0.4,0,0.8-0.1,1.2c0,0,0,0,0,0.1c0,0.5-0.1,0.9-0.2,1.3c0.2,0,0.4,0,0.6,0
			c2.5,0,4.6,1.4,5.8,3.4C46.9,22,47.2,23.1,47.2,24.3z"/>
		<path class="st4" d="M8.8,15.8c0.1,0,0.1,0,0.2,0h0.1c0.2,0,0.5-0.1,0.7-0.1l0,0c2.4-0.2,4.6,0.6,6.3,2.1c0.1,0.1,0.3,0.3,0.4,0.4
			c0.4,0.4,0.7,0.8,1,1.2"/>
		<path class="st4" d="M37.1,21.2c1.5-1.1,2.6-2.9,3.1-4.8v-0.1c0.2-1,0.3-2,0-3"/>
	</g>
</g>
</svg>
