<?xml version="1.0" encoding="UTF-8"?>
<svg xmlns="http://www.w3.org/2000/svg" version="1.1" viewBox="0 0 50 50">
  <defs>
    <style>
      .cls-1 {
        fill: #444;
      }

      .cls-2 {
        fill: none;
        stroke: #444;
        stroke-linecap: round;
        stroke-linejoin: round;
        stroke-width: 2.5px;
      }

      .cls-3 {
        fill: #fcc34f;
      }
    </style>
  </defs>
  <!-- Generator: Adobe Illustrator 28.7.1, SVG Export Plug-In . SVG Version: 1.2.0 Build 142)  -->
  <g>
    <g id="Camada_1">
      <path class="cls-3" d="M45.3,19.6c-.2-.8-8.1-2.6-8.6-3.2l-1-4.4-5.2-4.4-8.3,1-3.3,7.5c-4.8-2.5-11.4,4.5-11.6,9l-2,.9-3.7,5.3,2.1,6.7c.1.4,6.1.2,6.4.4l5.7,1.7,32.2-10.5c.3-.2,1.2-2.5.6-4.5s-2.5-3.3-3-5.6Z"/>
      <path class="cls-2" d="M21.4,39.2c-.1,0-.3,0-.4,0-4.3,0-8.7,0-13,0-3.5,0-6.3-2.5-6.6-6-.3-3.3,2.1-6.4,5.4-7,.3,0,.6,0,.9,0-.2-3,.8-5.7,3.1-7.7,2.3-2.1,5-2.7,8-2.3,0-2.9,1.2-5.3,3.5-7.1,1.7-1.3,3.6-1.9,5.7-1.8,4.7,0,9.1,4.3,8.7,9.5.7,0,1.3,0,2,.1,5.2.5,9.3,4.6,9.9,9.8,0,.1,0,.2,0,.3v2c-.2.9-.4,1.8-.6,2.7,0,.2-.1.4-.2.6"/>
      <path class="cls-1" d="M19.8,21.3c0-.4,0-.8-.1-1.1,0-.4.2-.5.5-.6,0,0,.2,0,.3,0,3.6,0,7.2,0,10.9,0,.7,0,.9.1.8.9,0,.2,0,.5,0,.8.3,0,.6,0,.9,0,.5,0,.7.2.6.7,0,1.6-.5,3.2-1.6,4.5-.5.5-.6,1.1-.7,1.8-.1,1.3-.2,2.5-.4,3.8,0,.5-.2.6-.6.6-2.9,0-5.9,0-8.8,0-.5,0-.6-.1-.6-.6-.2-1.5-.3-3.1-.5-4.6,0-.2-.1-.4-.3-.5-1.2-1.4-1.8-3-1.9-4.9,0-.5.1-.6.6-.6.3,0,.6,0,.9,0ZM31.2,20.6h-10.5c0,0,0,.1,0,.2.2,1.9.4,3.8.6,5.7,0,.1.1.3.2.4,2.5,2.2,6.3,2.2,8.8,0,.1-.1.2-.3.3-.5,0-.7.2-1.3.2-2,.1-1.2.2-2.5.4-3.8ZM21.8,31.6c2.7,0,5.4,0,8.1,0,.2,0,.3-.1.3-.3,0-.7.2-1.5.2-2.2,0-.3,0-.7,0-1.1-3,1.9-6,1.9-9,0,.1,1.3.2,2.4.4,3.6ZM19.2,22.3c0,1.1.4,2,.9,2.8,0,0,0-.2,0-.3,0-.7-.1-1.4-.2-2,0-.6,0-.6-.8-.5ZM31.7,25.1s0,0,.1,0c.5-.9.8-1.8.8-3-.3.2-.6-.1-.7.3-.1.9-.2,1.8-.3,2.6Z"/>
    </g>
  </g>
</svg>