<?xml version="1.0" encoding="utf-8"?>
<!-- Generator: Adobe Illustrator 24.0.0, SVG Export Plug-In . SVG Version: 6.00 Build 0)  -->
<svg version="1.1" id="Layer_1" xmlns="http://www.w3.org/2000/svg" xmlns:xlink="http://www.w3.org/1999/xlink" x="0px" y="0px"
	 viewBox="0 0 50 50" style="enable-background:new 0 0 50 50;" xml:space="preserve">
<style type="text/css">
	.st0{fill:#E56060;}
	.st1{fill:#FF6B6B;}
	.st2{fill:#444444;}
</style>
<g>
	<polygon class="st0" points="47.5,22 47.5,28.2 1.1,42.9 0.7,30.3 0.7,26.4 47.6,9.3 	"/>
</g>
<g>
	<polygon class="st1" points="48.1,6.7 48.1,10.2 1.3,27.3 1.6,20 1.6,16 48.1,1 	"/>
</g>
<g>
	<path class="st2" d="M48.3,49.3H32.1c-0.7,0-1.2-0.6-1.2-1.2s0.6-1.2,1.2-1.2h14.9V2.9H2.9v43.9H6c0.7,0,1.2,0.6,1.2,1.2
		S6.7,49.3,6,49.3H1.6c-0.7,0-1.2-0.6-1.2-1.2V1.6c0-0.7,0.6-1.2,1.2-1.2h46.7c0.7,0,1.2,0.6,1.2,1.2V48
		C49.6,48.7,49,49.3,48.3,49.3z"/>
</g>
<g>
	<path class="st2" d="M40.8,40.6c0,0.4-0.3,0.8-0.8,0.8H8.7c-0.4,0-0.8-0.3-0.8-0.8V34l-3,1.7c-0.1,0.1-0.2,0.1-0.4,0.1
		c-0.3,0-0.5-0.1-0.7-0.4c-0.2-0.4-0.1-0.8,0.3-1l3.7-2.1v-22c0-0.4,0.3-0.8,0.8-0.8c0.4,0,0.8,0.3,0.8,0.8v21.1l8.8-4.9
		c1.8-5.5,4.6-14.4,5-14.9c0.2-0.4,0.7-0.4,1-0.2c0.3,0.2,0.4,0.7,0.2,1c-0.3,0.7-3,8.8-4.7,14.2l17.3,4c0.4,0.1,0.7,0.5,0.6,0.9
		c-0.1,0.3-0.4,0.6-0.7,0.6c0,0-0.1,0-0.2,0l-17.9-4.1l-9.3,5.2v6.7h30.7C40.5,39.8,40.8,40.2,40.8,40.6z"/>
</g>
<g>
	<circle class="st2" cx="18.4" cy="31.3" r="0.7"/>
</g>
<g>
	<circle class="st2" cx="20.5" cy="31.5" r="0.7"/>
</g>
<g>
	<circle class="st2" cx="21" cy="33.5" r="0.6"/>
</g>
<g>
	<circle class="st2" cx="22.5" cy="34.1" r="0.4"/>
</g>
<g>
	<circle class="st2" cx="24.6" cy="34.2" r="0.4"/>
</g>
<g>
	<circle class="st2" cx="23.3" cy="35.4" r="0.3"/>
</g>
<g>
	<circle class="st2" cx="25" cy="37.1" r="0.3"/>
</g>
<g>
	<circle class="st2" cx="25.1" cy="32.7" r="0.3"/>
</g>
<g>
	<circle class="st2" cx="28.2" cy="32.3" r="0.3"/>
</g>
<g>
	<circle class="st2" cx="27" cy="35.5" r="0.3"/>
</g>
<g>
	<circle class="st2" cx="21.2" cy="37.3" r="0.3"/>
</g>
<g>
	<circle class="st2" cx="22.2" cy="38.1" r="0.3"/>
</g>
<g>
	<circle class="st2" cx="29.5" cy="36.9" r="0.3"/>
</g>
<g>
	<circle class="st2" cx="20" cy="37.1" r="0.3"/>
</g>
<g>
	<circle class="st2" cx="18.4" cy="38.3" r="0.3"/>
</g>
<g>
	<circle class="st2" cx="19.7" cy="38.2" r="0.3"/>
</g>
<g>
	<circle class="st2" cx="14.3" cy="31.9" r="0.3"/>
</g>
<g>
	<circle class="st2" cx="12.3" cy="33.9" r="0.3"/>
</g>
<g>
	<circle class="st2" cx="15.9" cy="23.7" r="0.3"/>
</g>
<g>
	<circle class="st2" cx="15.7" cy="32.2" r="0.3"/>
</g>
<g>
	<circle class="st2" cx="16.1" cy="34.7" r="0.3"/>
</g>
<g>
	<circle class="st2" cx="17" cy="37.3" r="0.3"/>
</g>
<g>
	<circle class="st2" cx="16.8" cy="30.8" r="0.3"/>
</g>
<g>
	<circle class="st2" cx="13.2" cy="24.2" r="0.3"/>
</g>
<g>
	<circle class="st2" cx="15.3" cy="35.4" r="0.3"/>
</g>
<g>
	<circle class="st2" cx="14.2" cy="34.3" r="0.3"/>
</g>
<g>
	<circle class="st2" cx="14.6" cy="37.2" r="0.3"/>
</g>
<g>
	<circle class="st2" cx="12.6" cy="36.4" r="0.3"/>
</g>
<g>
	<circle class="st2" cx="19.8" cy="30.3" r="0.3"/>
</g>
<g>
	<circle class="st2" cx="18.2" cy="29.8" r="0.3"/>
</g>
<g>
	<circle class="st2" cx="21.2" cy="30.1" r="0.3"/>
</g>
<g>
	<circle class="st2" cx="19.7" cy="29.3" r="0.3"/>
</g>
<g>
	<circle class="st2" cx="23.7" cy="31.8" r="0.3"/>
</g>
<g>
	<circle class="st2" cx="24.8" cy="31" r="0.3"/>
</g>
<g>
	<circle class="st2" cx="23.4" cy="33.1" r="0.3"/>
</g>
<g>
	<circle class="st2" cx="16.2" cy="36.4" r="0.3"/>
</g>
<g>
	<circle class="st2" cx="19.6" cy="35.8" r="0.6"/>
</g>
<g>
	<circle class="st2" cx="21.7" cy="35.9" r="0.9"/>
</g>
<g>
	<circle class="st2" cx="17" cy="33.6" r="0.5"/>
</g>
<g>
	<circle class="st2" cx="18.5" cy="37.1" r="0.5"/>
</g>
<g>
	<circle class="st2" cx="17" cy="32.2" r="0.5"/>
</g>
<g>
	<circle class="st2" cx="22.2" cy="32.4" r="0.6"/>
</g>
<g>
	<circle class="st2" cx="22.2" cy="30.7" r="0.6"/>
</g>
<g>
	<circle class="st2" cx="17.5" cy="35.6" r="0.9"/>
</g>
<g>
	<circle class="st2" cx="19.1" cy="33.5" r="1.1"/>
</g>
<g>
	<circle class="st2" cx="28.8" cy="18.6" r="0.9"/>
</g>
<g>
	<circle class="st2" cx="31.3" cy="19" r="0.9"/>
</g>
<g>
	<circle class="st2" cx="31.8" cy="21.3" r="0.7"/>
</g>
<g>
	<circle class="st2" cx="33.7" cy="22.1" r="0.5"/>
</g>
<g>
	<circle class="st2" cx="32.3" cy="23.6" r="0.5"/>
</g>
<g>
	<circle class="st2" cx="34.7" cy="23.6" r="0.4"/>
</g>
<g>
	<circle class="st2" cx="34" cy="25.1" r="0.4"/>
</g>
<g>
	<circle class="st2" cx="36" cy="27.3" r="0.4"/>
</g>
<g>
	<circle class="st2" cx="37.3" cy="19.4" r="0.4"/>
</g>
<g>
	<circle class="st2" cx="42" cy="25.8" r="0.4"/>
</g>
<g>
	<circle class="st2" cx="26.1" cy="14" r="0.4"/>
</g>
<g>
	<circle class="st2" cx="39.9" cy="17.2" r="0.4"/>
</g>
<g>
	<circle class="st2" cx="39.3" cy="22.8" r="0.4"/>
</g>
<g>
	<circle class="st2" cx="30.4" cy="11.9" r="0.4"/>
</g>
<g>
	<circle class="st2" cx="42.5" cy="20.3" r="0.4"/>
</g>
<g>
	<circle class="st2" cx="35.3" cy="13.4" r="0.4"/>
</g>
<g>
	<circle class="st2" cx="40" cy="9.3" r="0.4"/>
</g>
<g>
	<circle class="st2" cx="35.5" cy="22.2" r="0.4"/>
</g>
<g>
	<circle class="st2" cx="32.3" cy="26.1" r="0.4"/>
</g>
<g>
	<circle class="st2" cx="29.7" cy="22.7" r="0.4"/>
</g>
<g>
	<circle class="st2" cx="33.3" cy="28.5" r="0.4"/>
</g>
<g>
	<circle class="st2" cx="31.8" cy="27.6" r="0.4"/>
</g>
<g>
	<circle class="st2" cx="30.5" cy="26.1" r="0.4"/>
</g>
<g>
	<circle class="st2" cx="29" cy="27.5" r="0.4"/>
</g>
<g>
	<circle class="st2" cx="30.4" cy="28.3" r="0.4"/>
</g>
<g>
	<circle class="st2" cx="25.2" cy="21.5" r="0.4"/>
</g>
<g>
	<circle class="st2" cx="23.5" cy="20.6" r="0.4"/>
</g>
<g>
	<circle class="st2" cx="25.4" cy="19.8" r="0.4"/>
</g>
<g>
	<circle class="st2" cx="26" cy="22.8" r="0.4"/>
</g>
<g>
	<circle class="st2" cx="27" cy="25.9" r="0.4"/>
</g>
<g>
	<circle class="st2" cx="27.3" cy="24.4" r="0.4"/>
</g>
<g>
	<circle class="st2" cx="26.8" cy="18" r="0.4"/>
</g>
<g>
	<circle class="st2" cx="24.9" cy="23.6" r="0.4"/>
</g>
<g>
	<circle class="st2" cx="24" cy="26.8" r="0.4"/>
</g>
<g>
	<circle class="st2" cx="22.1" cy="25.8" r="0.4"/>
</g>
<g>
	<circle class="st2" cx="22.9" cy="22.3" r="0.4"/>
</g>
<g>
	<circle class="st2" cx="24.2" cy="25.3" r="0.4"/>
</g>
<g>
	<circle class="st2" cx="22.3" cy="24" r="0.4"/>
</g>
<g>
	<circle class="st2" cx="30.4" cy="17.5" r="0.4"/>
</g>
<g>
	<circle class="st2" cx="28.5" cy="16.8" r="0.4"/>
</g>
<g>
	<circle class="st2" cx="32.1" cy="17.2" r="0.4"/>
</g>
<g>
	<circle class="st2" cx="30.3" cy="16.2" r="0.4"/>
</g>
<g>
	<circle class="st2" cx="35.1" cy="19.3" r="0.4"/>
</g>
<g>
	<circle class="st2" cx="34.8" cy="20.9" r="0.4"/>
</g>
<g>
	<circle class="st2" cx="26" cy="24.8" r="0.4"/>
</g>
<g>
	<circle class="st2" cx="26.9" cy="27.2" r="0.4"/>
</g>
<g>
	<circle class="st2" cx="25.5" cy="26.7" r="0.4"/>
</g>
<g>
	<circle class="st2" cx="30.2" cy="24.1" r="0.7"/>
</g>
<g>
	<circle class="st2" cx="27.1" cy="21.5" r="0.6"/>
</g>
<g>
	<circle class="st2" cx="28.9" cy="25.6" r="0.6"/>
</g>
<g>
	<circle class="st2" cx="27.1" cy="19.7" r="0.6"/>
</g>
<g>
	<circle class="st2" cx="33.3" cy="20" r="0.7"/>
</g>
<g>
	<circle class="st2" cx="33.3" cy="18" r="0.7"/>
</g>
<g>
	<circle class="st2" cx="28.2" cy="23.4" r="0.5"/>
</g>
<g>
	<circle class="st2" cx="29.5" cy="21" r="0.5"/>
</g>
<g>
	<circle class="st2" cx="14" cy="14.1" r="0.6"/>
</g>
<g>
	<circle class="st2" cx="15.6" cy="14.6" r="0.6"/>
</g>
<g>
	<circle class="st2" cx="16.6" cy="16.5" r="0.5"/>
</g>
<g>
	<circle class="st2" cx="18.6" cy="15.3" r="0.3"/>
</g>
<g>
	<circle class="st2" cx="19.7" cy="18.5" r="0.3"/>
</g>
<g>
	<circle class="st2" cx="20.2" cy="16.2" r="0.3"/>
</g>
<g>
	<circle class="st2" cx="17.2" cy="21.5" r="0.3"/>
</g>
<g>
	<circle class="st2" cx="16" cy="19.4" r="0.3"/>
</g>
<g>
	<circle class="st2" cx="20" cy="10.7" r="0.3"/>
</g>
<g>
	<circle class="st2" cx="11.8" cy="22.3" r="0.3"/>
</g>
<g>
	<circle class="st2" cx="11.3" cy="26.1" r="0.3"/>
</g>
<g>
	<circle class="st2" cx="14.8" cy="25.9" r="0.3"/>
</g>
<g>
	<circle class="st2" cx="14.9" cy="21.7" r="0.3"/>
</g>
<g>
	<circle class="st2" cx="11" cy="15.6" r="0.3"/>
</g>
<g>
	<circle class="st2" cx="10.6" cy="14.4" r="0.3"/>
</g>
<g>
	<circle class="st2" cx="10.7" cy="17.5" r="0.3"/>
</g>
<g>
	<circle class="st2" cx="10.6" cy="20.9" r="0.3"/>
</g>
<g>
	<circle class="st2" cx="12.4" cy="13.4" r="0.3"/>
</g>
<g>
	<circle class="st2" cx="10.8" cy="18.9" r="0.3"/>
</g>
<g>
	<circle class="st2" cx="14.9" cy="13" r="0.3"/>
</g>
<g>
	<circle class="st2" cx="13.8" cy="12.8" r="0.3"/>
</g>
<g>
	<circle class="st2" cx="16.7" cy="12.8" r="0.3"/>
</g>
<g>
	<circle class="st2" cx="15.6" cy="12" r="0.3"/>
</g>
<g>
	<circle class="st2" cx="20.8" cy="14.1" r="0.3"/>
</g>
<g>
	<circle class="st2" cx="19.4" cy="14.4" r="0.3"/>
</g>
<g>
	<circle class="st2" cx="12.4" cy="19.7" r="0.3"/>
</g>
<g>
	<circle class="st2" cx="15.2" cy="18.3" r="0.5"/>
</g>
<g>
	<circle class="st2" cx="17.7" cy="18.1" r="0.8"/>
</g>
<g>
	<circle class="st2" cx="12.2" cy="16.2" r="0.4"/>
</g>
<g>
	<circle class="st2" cx="13.6" cy="20.1" r="0.4"/>
</g>
<g>
	<circle class="st2" cx="12.8" cy="14.8" r="0.4"/>
</g>
<g>
	<circle class="st2" cx="17.2" cy="15" r="0.5"/>
</g>
<g>
	<circle class="st2" cx="18.4" cy="13.3" r="0.5"/>
</g>
<g>
	<circle class="st2" cx="12.7" cy="18.1" r="0.7"/>
</g>
<g>
	<circle class="st2" cx="14.5" cy="16.3" r="0.9"/>
</g>
</svg>
