<?xml version="1.0" encoding="utf-8"?>
<!-- Generator: Adobe Illustrator 28.0.0, SVG Export Plug-In . SVG Version: 6.00 Build 0)  -->
<svg version="1.1" id="Layer_1" xmlns="http://www.w3.org/2000/svg" xmlns:xlink="http://www.w3.org/1999/xlink" x="0px" y="0px"
	 viewBox="0 0 50 50" style="enable-background:new 0 0 50 50;" xml:space="preserve">
<style type="text/css">
	.st0{fill:#FF6B6B;}
	.st1{fill:none;stroke:#444444;stroke-width:2.5;stroke-linecap:round;stroke-linejoin:round;stroke-miterlimit:10;}
	.st2{fill-rule:evenodd;clip-rule:evenodd;fill:none;stroke:#444444;stroke-width:0.5;stroke-miterlimit:10;}
	.st3{fill-rule:evenodd;clip-rule:evenodd;fill:none;stroke:#444444;stroke-miterlimit:10;}
</style>
<path class="st0" d="M45.2,12.1l-5.6-3.6L31.9,4l-6-2.8c-3.2,0-21.5,8.9-21.5,12.1l-0.5,7.8l0.5,15.1l11.5,7.6l31-11
	C47.7,32.4,46.1,14.1,45.2,12.1z"/>
<g>
	<g>
		<path class="st1" d="M30.2,46.5L28,47.8c-1.7,1-3.8,1-5.5,0L7,38.8c-1.7-1-2.7-2.8-2.7-4.7v-18c0-2,1-3.8,2.7-4.7l15.6-9
			c1.7-1,3.8-1,5.5,0l15.6,9c1.7,1,2.7,2.8,2.7,4.7v18c0,2-1,3.8-2.7,4.7l-2.5,1.4"/>
	</g>
</g>
<circle class="st2" cx="36.5" cy="34.7" r="3.1"/>
<circle class="st3" cx="23" cy="27.4" r="5.5"/>
<circle class="st2" cx="14.7" cy="35.4" r="3.1"/>
<circle class="st2" cx="38.2" cy="17.5" r="3.1"/>
<circle class="st2" cx="15.7" cy="14.5" r="2.5"/>
<line class="st2" x1="26.9" y1="23.5" x2="35.3" y2="19.2"/>
<line class="st2" x1="16.9" y1="16.7" x2="19.9" y2="22.8"/>
<line class="st2" x1="28.3" y1="29.4" x2="33.7" y2="32.9"/>
<line class="st2" x1="16.8" y1="33.1" x2="18.9" y2="31.3"/>
<circle class="st2" cx="11.3" cy="21.1" r="1.5"/>
<circle class="st2" cx="28.7" cy="16.3" r="2.3"/>
<circle class="st2" cx="31.4" cy="28" r="1.1"/>
<circle class="st2" cx="26" cy="40.9" r="2.2"/>
</svg>
