<?xml version="1.0" encoding="UTF-8"?>
<svg id="Layer_1" xmlns="http://www.w3.org/2000/svg" version="1.1" xmlns:xlink="http://www.w3.org/1999/xlink" viewBox="0 0 50 50">
  <!-- Generator: Adobe Illustrator 29.3.0, SVG Export Plug-In . SVG Version: 2.1.0 Build 146)  -->
  <defs>
    <style>
      .st0, .st1, .st2 {
        fill: none;
        stroke: #444;
        stroke-linecap: round;
        stroke-linejoin: round;
      }

      .st1 {
        stroke-width: 2.5px;
      }

      .st3 {
        fill: #444;
      }

      .st4 {
        fill: #fcc34f;
      }

      .st2 {
        stroke-width: .5px;
      }
    </style>
  </defs>
  <path class="st4" d="M39.9,13.4c-.2-.8,2.7-4.4,2.2-5l-5.5-4.3-4.1,2.8-7.3-1.5-1.3-4.4c-.6,0-4.6,1-8.3,2.3s.3,3.8.1,4.3c-1,2.5-3.5,3.7-5.3,4.9s-5.3-1-5.6-.5-2.5,5.8-2.9,6.3c-1.7,2.4,4.3,3.4,4.3,3.4l.4,7.5-4.8,2.8,3.7,7.3c.1.4,5.3-1.5,5.6-1.3l4.7,3.9,26.9-9.6c.1,0-.6-1.2.6-2.7s3.4.4,4.3-.7c1.6-1.7,1.3-5.8.9-7.4s-5.1-.7-5.3-1.5c-1-3.1-2.9-4.6-3.3-6.5Z"/>
  <g>
    <g>
      <g>
        <path class="st0" d="M29.8,29.6s5-.7,4.9-4.7c0-4-1.6-5.9-1.6-5.9,0,0-3.2-3.9-6.4-2.8-.4,1.4-1.4,5.2-4.4,6.4-.9.2-3,.6-4.2,3.4-1.5.1-3.2,0-3.4,1.6s4.9,4,9.6,2.9c1.1-.6,1.2-1.2,1.4-2.3"/>
        <path class="st0" d="M22.5,22.6s-5.6-1.8-5.9-5c0-2.3.3-3.5.3-3.5,0,0,.4,4.6,3.6,4.7s4.8,1.4,4.8,1.4"/>
        <path class="st0" d="M14.7,23.7s-.1,2.2.9,2.8"/>
        <path class="st0" d="M24.6,30.3c1.4,2.3,5.1,5.1,6.9,5.1"/>
      </g>
      <circle class="st3" cx="21.8" cy="25.7" r=".5"/>
    </g>
    <path class="st0" d="M34.2,27.1c.3-.9,1.8-2.2,2.7-1.1"/>
  </g>
  <circle class="st2" cx="23.7" cy="24" r="13.8"/>
  <path class="st1" d="M25.8,44l-1.8,5.1c-4.7-1-3.3-.7-8-1.7l.4-5.4-5.8-4.4-5.1,1.7-3.7-7.3,4.4-3v-7.3c-.1,0-4.7-2.9-4.7-2.9l3.4-7.4,5.1,1.6,5.6-4.6-.6-5.3,7.9-2,2,5,7.1,1.5,3.8-3.8c3.8,2.9,2.7,2.1,6.5,5l-2.7,4.7,3.3,6.5,5.3.6c0,4.8,0,3.4.1,8.2l-5.3.8c-1.3,2.8-1.7,3.8-3,6.6"/>
</svg>