<?xml version="1.0" encoding="utf-8"?>
<!-- Generator: Adobe Illustrator 22.1.0, SVG Export Plug-In . SVG Version: 6.00 Build 0)  -->
<svg version="1.1" id="Layer_1" xmlns="http://www.w3.org/2000/svg" xmlns:xlink="http://www.w3.org/1999/xlink" x="0px" y="0px"
	 viewBox="0 0 50 50" style="enable-background:new 0 0 50 50;" xml:space="preserve">
<style type="text/css">
	.st0{fill:#FDCF72;}
	.st1{fill:#FCC34F;}
	.st2{fill:#444444;}
</style>
<g>
	<g>
		<path class="st0" d="M37.3,5.5l-2.7,2.2c-1.7-0.9-3.6-1.6-5.5-2l-0.6-3.4c-2.3-0.3-4.6-0.3-6.8,0L21,5.7c-1.9,0.4-3.8,1.1-5.5,2
			l-2.7-2.2c-2,1.2-3.7,2.7-5.2,4.4l1.7,3C8,14.4,7,16.2,6.3,18l-3.5,0c-0.6,1.9-1,3.9-1.1,5.9L41.9,9.3C40.5,7.8,39,6.5,37.3,5.5z"
			/>
	</g>
	<g>
		<path class="st1" d="M45.1,26l3.3-1.2c-0.1-2.3-0.5-4.6-1.2-6.7l-3.5,0c-0.7-1.8-1.7-3.5-2.9-5.1l1.7-3c-0.2-0.2-0.4-0.4-0.6-0.6
			L1.7,23.9c0,0.3,0,0.5-0.1,0.8L4.9,26c0.1,2,0.4,3.9,1,5.8L3.2,34c0.8,2.1,2,4.1,3.4,5.9l3.3-1.2c1,1.2,2.2,2.2,3.5,3.1l31-11.3
			C44.8,29.1,45.1,27.5,45.1,26z"/>
	</g>
	<g>
		<path class="st2" d="M29.1,49.5l-1.8-3.1c-1.5,0.2-3,0.2-4.6,0l-1.8,3.1L20,49.3c-2.4-0.5-4.6-1.3-6.8-2.5l-0.8-0.4l0.6-3.5
			c-1.3-0.8-2.4-1.8-3.5-2.9l-3.4,1.2l-0.6-0.7c-1.5-1.9-2.7-4-3.6-6.2l-0.3-0.8l2.7-2.3c-0.4-1.5-0.7-3-0.8-4.5l-3.3-1.2l0-0.9
			c0.1-2.4,0.5-4.8,1.3-7.1l0.3-0.8l3.6,0c0.6-1.4,1.4-2.7,2.3-3.9L6,9.5l0.6-0.7C8.2,7,10,5.4,12.1,4.2l0.8-0.5L15.6,6
			c1.4-0.7,2.8-1.2,4.3-1.6l0.6-3.5l0.9-0.1c2.4-0.4,4.8-0.4,7.2,0l0.9,0.1l0.6,3.5C31.6,4.8,33,5.3,34.4,6l2.7-2.3l0.8,0.5
			C40,5.4,41.8,7,43.4,8.8L44,9.5l-1.8,3.1c0.9,1.2,1.7,2.6,2.3,3.9l3.6,0l0.3,0.8c0.8,2.3,1.2,4.7,1.2,7.1l0,0.9l-3.3,1.2
			c-0.1,1.8-0.5,3.6-1,5.3c-0.2,0.7-0.9,1-1.6,0.8c-0.7-0.2-1-0.9-0.8-1.6c0.6-1.8,0.9-3.6,1-5.4l0-0.8l3.2-1.2
			c-0.1-1.6-0.4-3.1-0.8-4.6l-3.4,0l-0.3-0.8c-0.7-1.7-1.6-3.3-2.8-4.8l-0.5-0.7l1.7-3c-1.1-1.1-2.3-2.1-3.6-3L34.7,9L34,8.6
			c-1.6-0.9-3.4-1.5-5.2-1.9L28,6.5l-0.6-3.4c-1.6-0.2-3.1-0.2-4.7,0L22,6.5l-0.8,0.2c-1.8,0.4-3.6,1-5.2,1.9L15.3,9l-2.6-2.2
			c-1.3,0.9-2.5,1.9-3.6,3l1.7,3l-0.5,0.7c-1.1,1.4-2.1,3.1-2.8,4.8L7.1,19l-3.4,0c-0.4,1.5-0.7,3.1-0.8,4.6l3.2,1.2l0,0.8
			c0.1,1.8,0.4,3.7,1,5.4l0.3,0.8l-2.6,2.2c0.6,1.4,1.4,2.8,2.4,4.1l3.2-1.1l0.6,0.6c1.2,1.4,2.6,2.6,4.2,3.5l0.7,0.4l-0.6,3.4
			c1.4,0.7,2.9,1.2,4.4,1.6l1.7-3l0.8,0.1c1.8,0.3,3.7,0.3,5.5,0l0.8-0.1l1.7,3c1.8-0.4,3.6-1.1,5.2-2c0.6-0.3,1.4-0.1,1.7,0.5
			s0.1,1.4-0.5,1.7c-2.1,1.1-4.4,2-6.8,2.5L29.1,49.5z"/>
	</g>
	<g>
		<path class="st2" d="M25,36.1c-6,0-10.9-4.9-10.9-10.9S19,14.2,25,14.2s10.9,4.9,10.9,10.9S31,36.1,25,36.1z M25,15.7
			c-5.2,0-9.4,4.2-9.4,9.4s4.2,9.4,9.4,9.4s9.4-4.2,9.4-9.4S30.2,15.7,25,15.7z"/>
	</g>
</g>
</svg>
