<svg xmlns="http://www.w3.org/2000/svg" id="Layer_1" version="1.1" viewBox="0 0 50 50"><defs><style>.st0{fill:none;stroke:#444;stroke-linecap:round;stroke-linejoin:round}</style></defs><path fill="#fcc34f" d="M39.9 13.4c-.2-.8 2.7-4.4 2.2-5l-5.5-4.3-4.1 2.8-7.3-1.5L23.9 1c-.6 0-4.6 1-8.3 2.3s.3 3.8.1 4.3c-1 2.5-3.5 3.7-5.3 4.9s-5.3-1-5.6-.5-2.5 5.8-2.9 6.3c-1.7 2.4 4.3 3.4 4.3 3.4l.4 7.5L1.8 32l3.7 7.3c.1.4 5.3-1.5 5.6-1.3l4.7 3.9 26.9-9.6c.1 0-.6-1.2.6-2.7s3.4.4 4.3-.7c1.6-1.7 1.3-5.8.9-7.4s-5.1-.7-5.3-1.5c-1-3.1-2.9-4.6-3.3-6.5z"/><path d="M29.8 29.6s5-.7 4.9-4.7c0-4-1.6-5.9-1.6-5.9s-3.2-3.9-6.4-2.8c-.4 1.4-1.4 5.2-4.4 6.4-.9.2-3 .6-4.2 3.4-1.5.1-3.2 0-3.4 1.6s4.9 4 9.6 2.9c1.1-.6 1.2-1.2 1.4-2.3" class="st0"/><path d="M22.5 22.6s-5.6-1.8-5.9-5c0-2.3.3-3.5.3-3.5s.4 4.6 3.6 4.7 4.8 1.4 4.8 1.4m-10.6 3.5s-.1 2.2.9 2.8m9 3.8c1.4 2.3 5.1 5.1 6.9 5.1" class="st0"/><circle cx="21.8" cy="25.7" r=".5" fill="#444"/><path d="M34.2 27.1c.3-.9 1.8-2.2 2.7-1.1" class="st0"/><circle cx="23.7" cy="24" r="13.8" fill="none" stroke="#444" stroke-linecap="round" stroke-linejoin="round" stroke-width=".5"/><path fill="none" stroke="#444" stroke-linecap="round" stroke-linejoin="round" stroke-width="2.5" d="M25.8 44L24 49.1c-4.7-1-3.3-.7-8-1.7l.4-5.4-5.8-4.4-5.1 1.7L1.8 32l4.4-3v-7.3c-.1 0-4.7-2.9-4.7-2.9l3.4-7.4L10 13l5.6-4.6-.6-5.3 7.9-2 2 5L32 7.6l3.8-3.8c3.8 2.9 2.7 2.1 6.5 5l-2.7 4.7 3.3 6.5 5.3.6c0 4.8 0 3.4.1 8.2l-5.3.8c-1.3 2.8-1.7 3.8-3 6.6"/></svg>