<svg xmlns="http://www.w3.org/2000/svg" id="Layer_1" x="0" y="0" version="1.1" viewBox="0 0 50 50" xml:space="preserve"><style>.st4{fill:none;stroke:#444;stroke-linecap:round;stroke-linejoin:round;stroke-miterlimit:10}</style><path fill="#04ad49" d="M31 22l7.9 2.5-6.7 4.7.1 8.2-6.6-4.9-7.8 2.6 2.6-7.7-4.9-6.6 8.2.1 4.8-6.7z"/><path fill="#22dd6d" d="M47.2 10.6l-1.7-3.4-12.4-.9H17.2C14 6.3 2 5.4 2 8.6l-.2 31.8 2.1 3.7 13.1.7 31-11c.7-.5.2-21.2-.8-23.2z"/><path fill="none" stroke="#444" stroke-linecap="round" stroke-linejoin="round" stroke-miterlimit="10" stroke-width=".5" d="M39 30.6l-6.2-4.5v7.7c0 .2.2.3.4.1l1.7-1.7 1.7 3c.1.2.5.3.7.1l.7-.4c.3-.2.4-.5.2-.7l-1.6-2.8h2.1c.3 0 .5-.6.3-.8z"/><path fill="none" stroke="#444" stroke-linecap="round" stroke-linejoin="round" stroke-miterlimit="10" stroke-width="2.5" d="M47.9 33.4V10.1c0-2.2-1.8-4-4-4H6c-2.2 0-4 1.8-4 4V40c0 2.2 1.8 4 4 4h24"/><path d="M19 10.5v8.9l-3-2-3 2v-8.9" class="st4"/><path fill="none" stroke="#444" stroke-linecap="round" stroke-miterlimit="10" stroke-width=".5" d="M5.3 23.4v4"/><path d="M16.6 27.1l-4.7 3.6 4.7 3.3m1.7 1.4l2.4-8.9m2.4.6l4.7 3.6-4.7 3.3" class="st4"/><path fill="none" stroke="#444" stroke-linecap="round" stroke-linejoin="round" stroke-miterlimit="10" stroke-width=".992" d="M41.3 39.7H8.7c-.6 0-1.1-.5-1.1-1.1V11.5c0-.6.5-1.1 1.1-1.1h32.7c.6 0 1.1.5 1.1 1.1v27.1c0 .6-.5 1.1-1.2 1.1z"/></svg>