<?xml version="1.0" encoding="utf-8"?>
<!-- Generator: Adobe Illustrator 28.0.0, SVG Export Plug-In . SVG Version: 6.00 Build 0)  -->
<svg version="1.1" id="Layer_1" xmlns="http://www.w3.org/2000/svg" xmlns:xlink="http://www.w3.org/1999/xlink" x="0px" y="0px"
	 viewBox="0 0 50 50" style="enable-background:new 0 0 50 50;" xml:space="preserve">
<style type="text/css">
	.st0{fill:#04AD49;}
	.st1{fill:#22DD6D;}
	.st2{fill:none;stroke:#444444;stroke-width:0.5;stroke-linecap:round;stroke-linejoin:round;stroke-miterlimit:10;}
	.st3{fill:none;stroke:#444444;stroke-width:2.5;stroke-linecap:round;stroke-linejoin:round;stroke-miterlimit:10;}
	.st4{fill:none;stroke:#444444;stroke-linecap:round;stroke-linejoin:round;stroke-miterlimit:10;}
	.st5{fill:none;stroke:#444444;stroke-width:0.5;stroke-linecap:round;stroke-miterlimit:10;}
	.st6{fill:none;stroke:#444444;stroke-width:0.9917;stroke-linecap:round;stroke-linejoin:round;stroke-miterlimit:10;}
</style>
<polygon class="st0" points="31,22 38.9,24.5 32.2,29.2 32.3,37.4 25.7,32.5 17.9,35.1 20.5,27.4 15.6,20.8 23.8,20.9 28.6,14.2 "/>
<path class="st1" d="M47.2,10.6l-1.7-3.4L33.1,6.3l-15.9,0C14,6.3,2,5.4,2,8.6L1.8,40.4l2.1,3.7L17,44.8l31-11
	C48.7,33.3,48.2,12.6,47.2,10.6z"/>
<path class="st2" d="M39,30.6l-6.2-4.5v7.7c0,0.2,0.2,0.3,0.4,0.1l1.7-1.7l1.7,3c0.1,0.2,0.5,0.3,0.7,0.1l0.7-0.4
	c0.3-0.2,0.4-0.5,0.2-0.7l-1.6-2.8h2.1C39,31.4,39.2,30.8,39,30.6z"/>
<path class="st3" d="M47.9,33.4V10.1c0-2.2-1.8-4-4-4l-37.9,0c-2.2,0-4,1.8-4,4v29.9c0,2.2,1.8,4,4,4H30"/>
<polyline class="st4" points="19,10.5 19,19.4 16,17.4 13,19.4 13,10.5 "/>
<line class="st5" x1="5.3" y1="23.4" x2="5.3" y2="27.4"/>
<g>
	<polyline class="st4" points="16.6,27.1 11.9,30.7 16.6,34 	"/>
	<line class="st4" x1="18.3" y1="35.4" x2="20.7" y2="26.5"/>
	<polyline class="st4" points="23.1,27.1 27.8,30.7 23.1,34 	"/>
</g>
<path class="st6" d="M41.3,39.7H8.7c-0.6,0-1.1-0.5-1.1-1.1V11.5c0-0.6,0.5-1.1,1.1-1.1h32.7c0.6,0,1.1,0.5,1.1,1.1v27.1
	C42.5,39.2,42,39.7,41.3,39.7z"/>
</svg>
