<?xml version="1.0" encoding="utf-8"?>
<!-- Generator: Adobe Illustrator 27.5.0, SVG Export Plug-In . SVG Version: 6.00 Build 0)  -->
<svg version="1.1" id="Camada_1" xmlns="http://www.w3.org/2000/svg" xmlns:xlink="http://www.w3.org/1999/xlink" x="0px" y="0px"
	 viewBox="0 0 50 50" style="enable-background:new 0 0 50 50;" xml:space="preserve">
<style type="text/css">
	.st0{fill:#8852CA;}
	.st1{fill:#E5E5E5;}
</style>
<g>
	<g>
		<path class="st0" d="M37.5,11.6c0.5,1.2,0.7,2.5,0.7,3.8c0,6.6-5.9,11.8-12.6,10.7c-4.2-0.7-7.7-3.9-8.8-8
			c-0.6-2.4-0.4-4.6,0.4-6.6h-0.3c-1.4,0-2.6,1.2-2.6,2.6v15.5c0,1.4,1.2,2.6,2.6,2.6h19.5l2.8,5.6c0.3,0.5,1,0.4,1.1-0.2l0.7-5.4
			h6.3v-8.7v-12H37.5z"/>
		<path class="st0" d="M42.8,34.4l-1.2,8.4c-0.2,1.1-1.6,1.3-2.1,0.3l-4.4-8.8H16.9c-2.5,0-4.6-2.1-4.6-4.6V14.2
			c0-2.5,2.1-4.6,4.6-4.6h1.3c1.9-3,5.3-5,9.2-5s7.2,2,9.2,5h10.8V8.1c0-3.1-2.5-5.6-5.6-5.6H8C4.9,2.5,2.4,5,2.4,8.1v31.3v2.5
			c0,3.1,2.5,5.6,5.6,5.6h0h33.8h0c1,0,1.9-0.2,2.7-0.7c1.7-0.9,2.9-2.8,2.9-4.9v-7.5H42.8z"/>
		<path class="st0" d="M28.9,24.2c3.7-0.6,6.6-3.6,7.2-7.2c1-6.1-4.2-11.3-10.3-10.3c-3.7,0.6-6.6,3.6-7.2,7.2
			C17.6,20,22.8,25.2,28.9,24.2z M29.6,10.4c0.8,0,1.5,1.1,1.5,2.5s-0.7,2.5-1.5,2.5c-0.8,0-1.5-1.1-1.5-2.5S28.8,10.4,29.6,10.4z
			 M25.1,10.4c0.8,0,1.5,1.1,1.5,2.5s-0.7,2.5-1.5,2.5c-0.8,0-1.5-1.1-1.5-2.5S24.3,10.4,25.1,10.4z M23.2,17.2
			c0.7,1.7,2.3,2.8,4.2,2.8c1.8,0,3.4-1.1,4.1-2.7l1.8,0.8c-1,2.4-3.4,4-6,4c-2.7,0-5-1.6-6-4.1L23.2,17.2z"/>
	</g>
	<g>
		<path class="st1" d="M47.6,9.6H36.5c-1.9-3-5.3-5-9.2-5s-7.2,2-9.2,5h-1.3c-2.5,0-4.6,2.1-4.6,4.6v15.5c0,2.5,2.1,4.6,4.6,4.6
			h18.3l4.4,8.8c0.5,1,1.9,0.7,2.1-0.3l1.2-8.4h4.8v-2h-6.6l-0.7,5.4c-0.1,0.6-0.9,0.7-1.1,0.2l-2.8-5.6H16.9
			c-1.4,0-2.6-1.2-2.6-2.6V14.2c0-1.4,1.2-2.6,2.6-2.6h0.3c-0.8,2-1,4.2-0.4,6.6c1.1,4.1,4.6,7.3,8.8,8c6.8,1.1,12.6-4.2,12.6-10.7
			c0-1.4-0.3-2.6-0.7-3.8h10.1V9.6z M28.9,24.2c-6.1,1-11.3-4.2-10.3-10.3c0.6-3.7,3.6-6.6,7.2-7.2c6.1-1,11.3,4.2,10.3,10.3
			C35.5,20.6,32.5,23.6,28.9,24.2z"/>
		<path class="st1" d="M27.3,20.1c-1.9,0-3.5-1.1-4.2-2.8L21.3,18c1,2.5,3.4,4.1,6,4.1c2.6,0,5-1.6,6-4l-1.8-0.8
			C30.8,19,29.2,20.1,27.3,20.1z"/>
		<ellipse class="st1" cx="25.1" cy="12.9" rx="1.5" ry="2.5"/>
		<ellipse class="st1" cx="29.6" cy="12.9" rx="1.5" ry="2.5"/>
	</g>
</g>
</svg>
