<svg xmlns="http://www.w3.org/2000/svg" fill="none" viewBox="0 0 50 50"><path fill="#FC9D9A" d="M47.7 26.1l-.5-4L30.1 4.5l-4.4-1.8c-4.1 0-17.8 12.9-17.8 15.5l-4.3 4-.2 5.9 14.2 14.5 24.8-8.8c.6-.3 6.2-6 5.4-7.6l-.1-.1z"/><path stroke="#444" stroke-linecap="round" stroke-linejoin="round" stroke-width="2.5" d="M29.7 45.4c-2.4 2.4-6.3 2.4-8.7 0L4.7 29.2c-2.4-2.4-2.4-6.3 0-8.7L20.9 4.3c2.4-2.4 6.3-2.4 8.7 0l16.2 16.2c2.4 2.4 2.4 6.3 0 8.7l-7.4 7.4"/><path stroke="#444" stroke-linecap="round" stroke-linejoin="round" d="M15.9 39.9h16.4c1.6 0 3-1.3 3-3V17.8l-6.6-6.6h-14m-4 3.7h8.5M7.5 17.7h6.6m14.3-6.5l6.8 6.8h-5.4c-.8 0-1.4-.6-1.4-1.4v-5.4z"/><path stroke="#444" stroke-linecap="round" stroke-linejoin="round" stroke-width=".5" d="M11.7 26.2H5.8a.9.9 0 00-.9.9v2.4a.9.9 0 00.9.9h5.9a.9.9 0 00.9-.9v-2.4a.9.9 0 00-.9-.9zm8.7 5.3h-5.9a.9.9 0 00-.9.9v2.4a.9.9 0 00.9.9h5.9a.9.9 0 00.9-.9v-2.4a.9.9 0 00-.9-.9zm9.6.9v2.4c0 .5-.4.9-.9.9h-5.9c-.5 0-.9-.4-.9-.9v-2.4c0-.5.4-.9.9-.9h5.9m0-5.3h-5.9a.9.9 0 00-.9.9v2.4a.9.9 0 00.9.9h5.9a.9.9 0 00.9-.9v-2.4a.9.9 0 00-.9-.9zm0-5.3h-5.9a.9.9 0 00-.9.9v2.4a.9.9 0 00.9.9h5.9a.9.9 0 00.9-.9v-2.4a.9.9 0 00-.9-.9zm14.7 10.7l-5-5c-.9-.9-.9-2.2 0-3.1l5-5"/><path stroke="#444" stroke-linecap="round" stroke-linejoin="round" stroke-width=".5" d="M39.3 35.1L23.1 18.9c-.9-.9-.9-2.5 0-3.4l8.6-8.6"/><path stroke="#444" stroke-linecap="round" stroke-linejoin="round" d="M5.9 20.7h5.4m2.1 0h6.5M4.1 23.2h8.6m2.7 0h5.4"/><path stroke="#444" stroke-miterlimit="10" stroke-width=".5" d="M28.4 46.8l-25-25"/></svg>