<?xml version="1.0" encoding="utf-8"?>
<!-- Generator: Adobe Illustrator 24.3.0, SVG Export Plug-In . SVG Version: 6.00 Build 0)  -->
<svg version="1.1" id="Layer_1" xmlns="http://www.w3.org/2000/svg" xmlns:xlink="http://www.w3.org/1999/xlink" x="0px" y="0px"
	 viewBox="0 0 50 50" style="enable-background:new 0 0 50 50;" xml:space="preserve">
<style type="text/css">
	.st0{fill:#FCC34F;}
	.st1{fill:#FDCF72;}
	.st2{fill:none;stroke:#444444;stroke-width:2.5;stroke-linecap:round;stroke-linejoin:round;stroke-miterlimit:10;}
	.st3{fill:#444444;}
	.st4{fill:#494949;}
</style>
<g>
	<g>
		<g>
			<g>
				<polygon class="st0" points="47.7,11.6 48.5,16.8 2.4,33.6 1.9,22.7 1.8,16.5 42.1,1.9 47.3,4.2 				"/>
				<polygon class="st1" points="46.1,2 48.4,5.2 1.5,21.9 2.6,4.8 5.6,1.9 34.7,1.7 				"/>
				<g>
					<path class="st2" d="M18.1,48.3H5.5c-1.9,0-3.4-1.6-3.4-3.5V5.8c0-2,1.5-3.5,3.4-3.5h39c1.9,0,3.4,1.6,3.4,3.5v24.6"/>
					<path class="st2" d="M2.1,15.8"/>
					<path class="st2" d="M47.9,15.8"/>
				</g>
				<circle class="st3" cx="8.2" cy="8.2" r="1.4"/>
				<circle class="st3" cx="12.1" cy="8.2" r="1.4"/>
				<circle class="st3" cx="15.9" cy="8.2" r="1.4"/>
			</g>
		</g>
	</g>
	<g>
		<path class="st4" d="M29.6,33.9c0,0,0.1,0.1,0.1,0.1c0,0,0,0,0.1,0c0,0,0,0,0.1,0l3.8,0.8c0,0,0.1,0,0.1,0c0.1,0,0.3-0.1,0.4-0.1
			c0.1-0.1,0.2-0.3,0.1-0.5l-0.8-3.9c0,0,0,0,0-0.1c0,0,0,0,0-0.1c0-0.1-0.1-0.1-0.1-0.1L21.8,18.6c-1-1-2.7-1-3.8,0
			c-0.5,0.5-0.8,1.2-0.8,1.9s0.3,1.4,0.8,1.9L29.6,33.9z M32.4,30.5L30,32.9l-9.4-9.3l2.4-2.4L32.4,30.5z M18.7,19.2
			c0.7-0.7,1.7-0.7,2.4,0l0.1,0.1l-2.4,2.4l-0.1-0.1C18.1,21,18.1,19.9,18.7,19.2z"/>
		<path class="st4" d="M40.4,14c-0.2,0-17.4,0-17.5,0c-1.1,0.1-2.1,0.8-2.6,1.8c-0.1,0.2,0,0.5,0.2,0.7c0.3,0.1,0.5,0,0.7-0.2
			c0.3-0.7,1-1.1,1.8-1.2c0.1,0,0.4,0,0.4,0h14.5l0,0c0,0.1-0.1,0.1-0.1,0.2l0,0c0,0.1-0.1,0.1-0.1,0.2l0,0
			c-0.3,0.4-0.5,0.9-0.5,1.4c0,0,0,0.1,0,0.1s0,0,0,0s0,0.1,0,0.1c0,0,0,0.1,0,0.1v0.1c0,0,0,0,0,0.1v24c0,0.6-0.2,1.1-0.6,1.5
			c-0.4,0.5-1,0.7-1.6,0.7c-0.9,0-1.7-0.5-2-1.4c-0.1-0.3-0.2-3.5-0.2-3.5c0-0.3-0.2-0.5-0.5-0.5H21V27.4c0-0.3-0.2-0.5-0.5-0.5
			S20,27.2,20,27.4v10.7h-2c-0.2,0-2.9,0-2.9,0c-0.3,0-0.5,0.2-0.5,0.5V41c0,0.1,0,0.2,0,0.2c0,0.1,0,0.2,0,0.3
			c0.1,1.6,1.5,2.9,3.2,2.9h17c0.9,0,1.7-0.4,2.3-1c0.6-0.6,0.9-1.4,0.9-2.2V20.4h4.9c0.3,0,0.5-0.2,0.5-0.5v-2.7
			C43.3,15.6,42.1,14.2,40.4,14z M17.8,43.5c-1.1,0-2.1-0.9-2.2-2c0-0.1,0-0.1,0-0.2c0-0.1,0-2.2,0-2.2h16c0,0,0,2.4,0,2.5
			c0,0.3,0.1,0.6,0.2,0.9c0.1,0.1,0.1,0.3,0.2,0.4c0,0,0,0.1,0,0.1c0.1,0.1,0.2,0.2,0.2,0.3l0,0c0,0.1,0.1,0.1,0.1,0.2L17.8,43.5
			L17.8,43.5z M42.4,19.4H38v-2V17c0-0.1,0-0.3,0.1-0.4c0.2-0.9,1-1.5,1.9-1.6c0.1,0,0.2,0,0.4,0l0,0c1.1,0.1,2,1,2,2.2
			C42.4,17.2,42.4,19.4,42.4,19.4z"/>
		<path class="st4" d="M24.1,34.9h3c0.3,0,0.5-0.2,0.5-0.5c0-0.3-0.2-0.5-0.5-0.5h-3c-0.3,0-0.5,0.2-0.5,0.5
			C23.6,34.6,23.8,34.9,24.1,34.9z"/>
		<path class="st4" d="M24.1,32.3h1.2c0.3,0,0.5-0.2,0.5-0.5c0-0.3-0.2-0.5-0.5-0.5h-1.2c-0.3,0-0.5,0.2-0.5,0.5
			C23.6,32,23.8,32.3,24.1,32.3z"/>
		<path class="st4" d="M33.8,20.9h-7.2c-0.3,0-0.5,0.2-0.5,0.5c0,0.3,0.2,0.5,0.5,0.5h7.2c0.3,0,0.5-0.2,0.5-0.5
			C34.3,21.1,34.1,20.9,33.8,20.9z"/>
		<path class="st4" d="M33.8,23.5h-4c-0.3,0-0.5,0.2-0.5,0.5c0,0.3,0.2,0.5,0.5,0.5h4c0.3,0,0.5-0.2,0.5-0.5
			C34.3,23.7,34.1,23.5,33.8,23.5z"/>
		<path class="st4" d="M33.8,26.1h-1.7c-0.3,0-0.5,0.2-0.5,0.5c0,0.3,0.2,0.5,0.5,0.5h1.7c0.3,0,0.5-0.2,0.5-0.5
			C34.3,26.3,34.1,26.1,33.8,26.1z"/>
	</g>
</g>
</svg>
