<?xml version="1.0" encoding="utf-8"?>
<!-- Generator: Adobe Illustrator 24.0.0, SVG Export Plug-In . SVG Version: 6.00 Build 0)  -->
<svg version="1.1" id="Camada_1" xmlns="http://www.w3.org/2000/svg" xmlns:xlink="http://www.w3.org/1999/xlink" x="0px" y="0px"
	 viewBox="0 0 50 50" style="enable-background:new 0 0 50 50;" xml:space="preserve">
<style type="text/css">
	.st0{fill:#FFB969;}
	.st1{fill:#FFC787;}
	.st2{fill:#444444;}
	.st3{fill:#444444;stroke:#444444;stroke-width:0.5;stroke-miterlimit:10;}
</style>
<g>
	<path class="st0" d="M47.9,8.9v16.7l-1.6,0.6l-20.1,7.3l-1.6,0.6L3.7,41.7l-1.6,0.6V19l1.6-0.6l20.9-7.2l1.6-0.6l3-1l4.7-1.6h13.3
		C47.6,8.1,47.9,8.5,47.9,8.9z"/>
</g>
<g>
	<path class="st1" d="M37.8,8.1l-4.4,1.6l-7.2,2.6l-1.6,0.6L3.7,20.5l-1.6,0.6V5.7c0-0.4,0.3-0.7,0.7-0.8l22.5-3.2
		c0.2,0,0.5,0,0.6,0.2c0.2,0.2,0.3,0.4,0.3,0.6v5.6H37.8z"/>
</g>
<g>
	<g>
		<path class="st2" d="M47.1,42.7L47.1,42.7L47.1,42.7z"/>
		<polygon class="st2" points="47.1,43 47.1,42.5 47.1,42.5 		"/>
	</g>
	<g>
		<g>
			<path class="st3" d="M47.1,8.1H26.2V2.5c0-0.2-0.1-0.5-0.3-0.6c-0.2-0.1-0.4-0.2-0.6-0.2L2.8,4.9C2.4,4.9,2.1,5.3,2.1,5.7v38.6
				c0,0.4,0.3,0.7,0.7,0.8l22.5,3.2c0,0,0.1,0,0.1,0c0.2,0,0.4-0.1,0.5-0.2c0.2-0.2,0.3-0.4,0.3-0.6v-2.5l21-1.6
				c0.4,0,0.7-0.4,0.7-0.8V8.9C47.9,8.5,47.6,8.1,47.1,8.1z M24.6,46.6l-20.9-3V6.4l20.9-3V46.6z M46.3,41.1H26.2V9.7h20.1V41.1z"/>
		</g>
	</g>
	<g>
		<path class="st2" d="M14.5,26h-2.2v3.4c0,0.5-0.1,0.9-0.3,1.1c-0.2,0.3-0.5,0.4-0.9,0.4c-0.4,0-0.7-0.1-0.9-0.4
			c-0.2-0.3-0.3-0.6-0.3-1.1v-9.3c0-0.5,0.1-0.9,0.4-1.2s0.6-0.3,1.2-0.3h3.1c0.9,0,1.6,0.1,2.1,0.2c0.5,0.1,0.9,0.4,1.3,0.7
			c0.4,0.3,0.6,0.7,0.8,1.2c0.2,0.5,0.3,1,0.3,1.6c0,1.2-0.4,2.2-1.1,2.8C17.1,25.7,16,26,14.5,26z M13.9,20.5h-1.6v3.7h1.6
			c0.6,0,1.1-0.1,1.4-0.2c0.4-0.1,0.7-0.3,0.9-0.6c0.2-0.3,0.3-0.6,0.3-1.1c0-0.5-0.2-1-0.5-1.3C15.7,20.7,15,20.5,13.9,20.5z"/>
	</g>
</g>
<g>
	<g>
		<path class="st2" d="M43.1,19.7h-5c-0.3,0-0.5-0.2-0.5-0.5v-5c0-0.3,0.2-0.5,0.5-0.5c3,0,5.5,2.5,5.5,5.5
			C43.6,19.5,43.4,19.7,43.1,19.7z M38.6,18.7h4c-0.2-2.1-1.9-3.7-4-4V18.7z"/>
	</g>
	<g>
		<path class="st2" d="M36.2,26.7c-3,0-5.5-2.5-5.5-5.5s2.5-5.5,5.5-5.5c0.3,0,0.5,0.2,0.5,0.5v4.5h4.5c0.3,0,0.5,0.2,0.5,0.5
			C41.6,24.2,39.2,26.7,36.2,26.7z M35.7,16.8c-2.2,0.2-4,2.1-4,4.5c0,2.5,2,4.5,4.5,4.5c2.3,0,4.2-1.7,4.5-4h-4.5
			c-0.3,0-0.5-0.2-0.5-0.5V16.8z"/>
	</g>
</g>
</svg>
