<?xml version="1.0" encoding="utf-8"?>
<!-- Generator: Adobe Illustrator 24.0.0, SVG Export Plug-In . SVG Version: 6.00 Build 0)  -->
<svg version="1.1" id="Layer_1" xmlns="http://www.w3.org/2000/svg" xmlns:xlink="http://www.w3.org/1999/xlink" x="0px" y="0px"
	 viewBox="0 0 50 50" style="enable-background:new 0 0 50 50;" xml:space="preserve">
<style type="text/css">
	.st0{fill:#FCC34F;}
	.st1{fill:#FDCF72;}
	.st2{fill:none;stroke:#444444;stroke-width:2.5;stroke-linecap:round;stroke-linejoin:round;stroke-miterlimit:10;}
	.st3{fill:#444444;}
</style>
<polygon class="st0" points="48.5,26 48.9,30.3 1.6,47.6 1.8,38.3 2.1,33 49.2,15.8 48.5,19.6 "/>
<polygon class="st1" points="48.5,9 47.9,16.9 1.8,33.7 1.8,23.7 2.1,19.2 48.6,2.2 "/>
<polyline class="st2" points="6,48.1 1.6,48.1 1.6,1.7 48.4,1.7 48.4,48.1 32.2,48.1 "/>
<g>
	<path class="st3" d="M29.1,35.8c0.7-0.8,1.2-1.8,1.2-3c0-2.4-2-4.4-4.4-4.4s-4.4,2-4.4,4.4c0,1.2,0.5,2.2,1.2,3
		c-0.7,0.4-1.2,0.8-1.7,1.4c-0.6-1.5-1.8-2.8-3.2-3.5c1-0.9,1.5-2.2,1.5-3.6c0-2.7-2.2-4.9-4.9-4.9s-4.9,2.2-4.9,4.9
		c0,1.4,0.6,2.7,1.5,3.6c-2.2,1.2-3.7,3.5-3.7,6.2v3.8h25v-2.2C32.4,39.1,31.1,36.9,29.1,35.8L29.1,35.8z M23.7,32.8
		c0-1.2,1-2.2,2.2-2.2c1.2,0,2.2,1,2.2,2.2c0,1.2-1,2.2-2.2,2.2C24.7,35,23.7,34,23.7,32.8z M11.7,30.1c0-1.5,1.2-2.7,2.7-2.7
		s2.7,1.2,2.7,2.7c0,1.5-1.2,2.7-2.7,2.7S11.7,31.6,11.7,30.1z M9.6,41.5v-1.6c0-2.7,2.2-4.9,4.9-4.9s4.9,2.2,4.9,4.9v1.6H9.6z
		 M21.5,41.5c0-2.4,2-4.4,4.4-4.4s4.4,2,4.4,4.4H21.5z"/>
	<path class="st3" d="M34.6,6.7c-5.4,0-9.8,4.4-9.8,9.8c0,2,0.6,3.9,1.7,5.5l-4.3,4.3h12.4c5.4,0,9.8-4.4,9.8-9.8S40,6.7,34.6,6.7z
		 M34.6,24.1h-7.2l2-2l-0.6-0.8C27.6,20,27,18.2,27,16.5c0-4.2,3.4-7.6,7.6-7.6s7.6,3.4,7.6,7.6S38.8,24.1,34.6,24.1z"/>
	<path class="st3" d="M29.2,15.4h2.2v2.2h-2.2V15.4z"/>
	<path class="st3" d="M33.5,15.4h2.2v2.2h-2.2V15.4z"/>
	<path class="st3" d="M37.9,15.4h2.2v2.2h-2.2V15.4z"/>
	<path class="st3" d="M39,38.2h-7.5v2.2h9.7v-17H39V38.2z"/>
	<path class="st3" d="M12.8,12.1h14.5V9.9H10.7v17.8h2.2V12.1z"/>
</g>
</svg>
