<?xml version="1.0" encoding="utf-8"?>
<!-- Generator: Adobe Illustrator 24.3.0, SVG Export Plug-In . SVG Version: 6.00 Build 0)  -->
<svg version="1.1" id="Layer_1" xmlns="http://www.w3.org/2000/svg" xmlns:xlink="http://www.w3.org/1999/xlink" x="0px" y="0px"
	 viewBox="0 0 50 50" style="enable-background:new 0 0 50 50;" xml:space="preserve">
<style type="text/css">
	.st0{fill:#E56060;}
	.st1{fill:#FF6B6B;}
	.st2{fill:none;stroke:#494949;stroke-linecap:round;stroke-linejoin:round;stroke-miterlimit:10;}
	.st3{fill:none;stroke:#494949;stroke-width:2.5;stroke-linecap:round;stroke-linejoin:round;stroke-miterlimit:10;}
	.st4{fill:none;stroke:#494949;stroke-width:0.25;stroke-linecap:round;stroke-linejoin:round;stroke-miterlimit:10;}
</style>
<g>
	<g>
		<path class="st0" d="M3.5,25.3c-0.5,1.9-0.2,4.6,1.2,7.4c1,2,2.2,3.7,3.6,4.7L31.5,26l1.4-0.7c0,0,0,0,0,0l13-6.3
			c-0.5-1.7-1.1-3.4-1.9-5.1c-1.2-2.4-2.6-4.6-4.1-6.3c-0.1-0.1-0.2-0.3-0.3-0.4l-13.4,6.5L3.8,24.6L3.5,25.3z"/>
	</g>
	<g>
		<path class="st1" d="M3.5,25.3l22.7-11.1l13.6-6.6c-0.1-0.1-0.2-0.3-0.3-0.4c-3.4-3.8-7.3-5.5-10.2-4.1c-0.1,0.1-0.3,0.1-0.4,0.2
			c-4.8,2.4-8,7.2-8.6,12.5L5.3,23c-0.7,0.3-1.2,0.9-1.5,1.6L3.5,25.3z"/>
	</g>
	<g>
		<path class="st2" d="M32.9,39.9l-10.5-7.1l-7.9,3.8l14.1,9.5c1.7,1.2,4.1,0.7,5.3-1C35.1,43.4,34.7,41,32.9,39.9z"/>
		<path class="st2" d="M43.2,32c-3.3,1.6-8-0.9-11.7-6c0,0,0,0,0-0.1c-0.2-0.3-0.5-0.7-0.7-1c-0.3-0.4-0.5-0.8-0.8-1.2
			c-0.3-0.5-0.5-0.9-0.8-1.4c-0.2-0.4-0.4-0.8-0.6-1.2c-0.1-0.1-0.1-0.2-0.2-0.4c-0.1-0.1-0.1-0.2-0.2-0.3c-0.4-0.9-0.8-1.9-1.1-2.8
			C27.1,17.5,27,17.2,27,17c-0.1-0.2-0.1-0.5-0.2-0.7c0-0.1-0.1-0.2-0.1-0.4c-0.2-0.6-0.3-1.1-0.4-1.7c0-0.2-0.1-0.3-0.1-0.5
			c-0.8-4.8,0.2-8.8,2.8-10.4c0.1-0.1,0.3-0.2,0.4-0.2c2.9-1.4,6.8,0.3,10.2,4.1c0.1,0.1,0.2,0.2,0.3,0.4c1.5,1.7,2.9,3.9,4.1,6.3
			c0.8,1.7,1.5,3.5,1.9,5.1C47.5,25.1,46.6,30.4,43.2,32z"/>
		<path class="st3" d="M43.2,32c-5,2.4-10.9,2-15.5-0.9l-4.5,2.2l-0.4,0.2l10.5,7c0.5,0.3,0.8,0.7,1.1,1.2c0,0,0,0,0,0
			c0.7,1.2,0.8,2.8-0.1,4.1c-1.2,1.7-3.5,2.2-5.2,1l-14.1-9.5l-2.2,1.1c-1.3,0.6-2.9,0.2-4.4-1c-1.3-1-2.6-2.6-3.6-4.7
			c-1.3-2.8-1.7-5.5-1.2-7.4c0.1-0.2,0.2-0.5,0.3-0.7c0.3-0.7,0.8-1.3,1.5-1.6l15-7.2c0.6-5.3,3.8-10,8.6-12.5
			c0.1-0.1,0.3-0.2,0.4-0.2c2.9-1.4,6.8,0.3,10.2,4.1c0.1,0.1,0.2,0.2,0.3,0.4c1.5,1.7,2.9,3.9,4.1,6.3c0.8,1.7,1.5,3.5,1.9,5.1
			C47.5,25.1,46.6,30.4,43.2,32z"/>
		<path class="st4" d="M27,15.7c-0.1,0.1-0.2,0.1-0.4,0.2c0.5,1.7,1.1,3.5,2,5.3c0.9,1.8,1.9,3.4,2.9,4.9c0.1-0.1,0.3-0.1,0.4-0.2
			c2.8-1.4,4-4.7,2.7-7.6C33.2,15.5,29.8,14.3,27,15.7z"/>
	</g>
</g>
</svg>
