<?xml version="1.0" encoding="utf-8"?>
<!-- Generator: Adobe Illustrator 26.3.1, SVG Export Plug-In . SVG Version: 6.00 Build 0)  -->
<svg version="1.1" id="Layer_1" xmlns="http://www.w3.org/2000/svg" xmlns:xlink="http://www.w3.org/1999/xlink" x="0px" y="0px"
	 viewBox="0 0 50 50" style="enable-background:new 0 0 50 50;" xml:space="preserve">
<style type="text/css">
	.st0{fill:#AFE55D;}
	.st1{fill:#C3FF68;}
	.st2{fill:none;stroke:#444444;stroke-width:2.5;stroke-linecap:round;stroke-linejoin:round;stroke-miterlimit:10;}
	.st3{fill:#444444;}
	.st4{fill:none;stroke:#494949;stroke-linecap:round;stroke-linejoin:round;stroke-miterlimit:10;}
	.st5{fill:#494949;}
</style>
<g>
	<g>
		<g>
			<g>
				<polygon class="st0" points="47.7,11.6 48.5,16.8 2.4,33.6 1.9,22.7 1.8,16.5 42.1,1.9 47.3,4.2 				"/>
				<polygon class="st1" points="46.1,2 48.4,5.2 1.5,21.9 2.6,4.8 5.6,1.9 34.7,1.7 				"/>
				<g>
					<path class="st2" d="M18.1,48.3H5.5c-1.9,0-3.4-1.6-3.4-3.5v-39c0-2,1.5-3.5,3.4-3.5h39c1.9,0,3.4,1.6,3.4,3.5v24.6"/>
					<path class="st2" d="M2.1,15.8"/>
					<path class="st2" d="M47.9,15.8"/>
				</g>
				<circle class="st3" cx="8.2" cy="8.2" r="1.4"/>
				<circle class="st3" cx="12.1" cy="8.2" r="1.4"/>
				<circle class="st3" cx="15.9" cy="8.2" r="1.4"/>
			</g>
		</g>
	</g>
	<g>
		<path class="st4" d="M31,44c0,2,2,3.7,4.4,3.7s4.4-1.6,4.4-3.7H31z M28.1,40.2v2.7h14.7v-2.7H28.1z M41.7,35.5
			c0,0-0.7,0.2-1.7,0.4c0.9-1.1,1.5-2.4,1.5-3.9c0-2.2-0.5-3.3-1.4-4.8c-0.2-0.4-0.5-1-0.7-1.7c-0.1-0.2-0.1-0.3-0.1-0.5
			c-0.1-0.7-0.1-1.5,0.2-2.2c-0.7,0.5-1.2,1.6-1.5,2.7c0,0.2-0.1,0.4-0.1,0.6c-0.3,1.3-0.4,2.8-0.5,4c-0.2-1-0.2-2.5-0.5-3.6
			c0-0.2-0.1-0.4-0.1-0.5l0,0c-0.9-3-2-4.1-1.2-5.5c-1,0.1-1.9,1.7-1.9,3.2c0,1-0.2,2.5-0.7,3.8c-0.1,0.2-0.2,0.5-0.3,0.6
			c-0.1,0.2-0.2,0.3-0.3,0.5c0-0.1,0-0.2,0-0.3c0-0.2,0-0.4,0-0.5c-0.2-2.2-1-3.5-1.7-3.6c0.5,1.3-0.1,2.8-0.7,4.5
			c-0.1,0.2-0.2,0.4-0.2,0.6c-0.3,0.9-0.6,1.9-0.6,3c0,1.4,0.5,2.8,1.5,3.9c-1-0.2-1.6-0.3-1.6-0.3c-1.3-0.3-3.1-0.7-3.1-0.7
			c0.3,1,0.7,1.9,2.2,3.7c0,0.1,0.1,0.1,0.1,0.2h14.6c0.4-0.4,0.7-0.8,1-1.2c1.1-1.5,1.4-2.8,1.4-2.8L41.7,35.5z"/>
	</g>
	<g>
		<path class="st5" d="M29.1,23.8c-0.2,0-0.5-0.1-0.8-0.1s-2-0.2-3.3,0.7c-0.4,0.2-0.9,0.7-1.4,1.2l0,0c-0.4,0.5-0.7,1-0.9,1.5
			c-0.3,0.6-0.3,1.2-0.3,1.6c0,0.6-0.1,1.3,0.2,2.1c0.2,0.4,0.4,0.7,0.5,0.8c0.3,0.4,0.6,0.7,1,0.9c0.4,0.3,0.8,0.4,1.1,0.5
			c0,0,1,0.3,2,0c0.2,0,0.3-0.1,0.3-0.1c0.3-0.1,0.5-0.2,0.6-0.3l0.1-0.1c0,0,0.1-0.1,0.1-0.2c0-0.1,0-0.2-0.1-0.3c0,0,0,0-0.1-0.1
			c-0.1,0-0.1,0-0.2,0c-0.3,0.1-0.9,0.3-1.5,0.2c-0.4,0-0.7-0.2-0.8-0.2c-0.1,0-0.4-0.2-0.8-0.5c0,0-0.4-0.3-0.6-0.7
			c-0.5-0.8-0.6-2,0-3.1c0.5-1,1.5-1.4,1.8-1.5c0.5-0.2,1-0.3,1.2-0.3c0.5,0,0.8,0,0.9,0c0.3,0,0.5,0.1,0.6,0.1S29,26,29.1,26
			c0.3-0.8,0.3-1.6,0.1-2.2H29.1z"/>
		<path class="st5" d="M33.4,20c0.4-1.5-0.5-2.8-0.5-2.8c-1.5-0.1-2.4,0.4-2.7,0.7c-0.4-0.2-0.7-0.3-1-0.4c-0.4-0.1-0.8-0.2-1.2-0.3
			c-0.2,0-0.4-0.1-0.5-0.1c-0.6-2-2.5-2.9-2.5-2.9c-2,1.3-2.4,3.1-2.4,3.1c-0.4,0.2-0.9,0.4-1.3,0.6c-0.7,0.3-1.3,0.7-1.8,1h-0.1
			c-2.8-1.1-5.3,0.2-5.3,0.2c-0.2,3,1.1,4.9,1.4,5.2c-0.1,0.2-0.1,0.4-0.2,0.6c-0.2,0.7-0.4,1.4-0.5,2.1c0,0.1,0,0.2,0,0.3
			c-2.6,1.3-3.4,3.9-3.4,3.9c2.2,2.5,4.7,2.7,4.7,2.7c0.3,0.6,0.7,1.1,1.1,1.6c0.2,0.2,0.4,0.4,0.6,0.6c-0.8,2.3,0.1,4.2,0.1,4.2
			c2.4,0.1,4-1.1,4.3-1.3c0.2,0.1,0.5,0.2,0.7,0.2c0.8,0.2,1.5,0.3,2.3,0.3c0.2,0,0.4,0,0.6,0h0.3h0.1c0.1-0.2,0.2-0.4,0.3-0.5
			c-1.1-1.4-1.7-2.3-2-3.1c-0.2,0-0.4-0.1-0.6-0.2c-0.5-0.1-1-0.3-1.5-0.6c-0.9-0.5-1.7-1.2-2.4-2c-0.3-0.4-0.6-0.8-0.8-1.3
			c-0.2-0.5-0.4-0.9-0.5-1.4s-0.2-1-0.2-1.5c0-0.9,0.1-1.8,0.3-2.8c0-0.1,0.1-0.3,0.1-0.4c0.1-0.5,0.3-1,0.5-1.4
			c0.3-0.5,0.7-1.5,1.6-2.4c0.5-0.4,0.9-0.7,1.1-0.9c0.5-0.3,0.9-0.5,1.2-0.7l0,0c0.8-0.4,1.6-0.6,2.5-0.6c1.3,0,2.3,0.2,3.1,0.3
			c0.6,0.1,1.4,0.3,2.3,0.8c0.7,0.3,1.2,0.7,1.5,1c0.3-0.6,0.6-1.2,1.1-1.6C33.7,20.1,33.5,20.1,33.4,20z"/>
	</g>
</g>
</svg>
