<?xml version="1.0" encoding="utf-8"?>
<!-- Generator: Adobe Illustrator 26.5.0, SVG Export Plug-In . SVG Version: 6.00 Build 0)  -->
<svg version="1.1" id="Camada_1" xmlns="http://www.w3.org/2000/svg" xmlns:xlink="http://www.w3.org/1999/xlink" x="0px" y="0px"
	 viewBox="0 0 50 50" style="enable-background:new 0 0 50 50;" xml:space="preserve">
<style type="text/css">
	.st0{fill:#FCC34F;}
	.st1{fill:#46B8B0;}
	.st2{fill:#4ECDC4;}
	.st3{fill:none;stroke:#444444;stroke-width:2.5;stroke-linecap:round;stroke-linejoin:round;stroke-miterlimit:10;}
	.st4{fill:none;stroke:#494949;stroke-linecap:round;stroke-linejoin:round;stroke-miterlimit:10;}
</style>
<g>
	<polygon class="st0" points="47.1,1.1 47.1,1.1 47.1,1.1 	"/>
	<g>
		<g>
			<g>
				<polygon class="st1" points="47.2,26.4 47.5,30.5 2.8,46.8 3,38.1 3.4,33.2 48,17 47.2,20.5 				"/>
				<polygon class="st2" points="47.5,10.5 46.8,17.9 3.1,33.8 3.1,24.5 3.5,20.2 47.5,4.2 				"/>
				<polyline class="st3" points="6.7,47.8 2.5,47.8 2.5,3.2 47.5,3.2 47.5,47.8 32,47.8 				"/>
			</g>
		</g>
		<g>
			<rect x="8" y="39.1" class="st4" width="3.4" height="3.4"/>
		</g>
		<g>
			<rect x="13.8" y="39.1" class="st4" width="3.4" height="3.4"/>
		</g>
		<g>
			<rect x="19.6" y="39.1" class="st4" width="3.4" height="3.4"/>
		</g>
		<g>
			<rect x="25.4" y="39.1" class="st4" width="16.6" height="3.4"/>
		</g>
		<g>
			<rect x="8" y="33.3" class="st4" width="3.4" height="3.4"/>
		</g>
		<g>
			<rect x="13.8" y="33.3" class="st4" width="3.4" height="3.4"/>
		</g>
		<g>
			<rect x="19.6" y="33.3" class="st4" width="3.4" height="3.4"/>
		</g>
		<g>
			<rect x="25.4" y="33.3" class="st4" width="15.2" height="3.4"/>
		</g>
		<line class="st4" x1="8.6" y1="14.3" x2="8.6" y2="31.1"/>
		<line class="st4" x1="10.8" y1="12.3" x2="10.8" y2="31.1"/>
		<line class="st4" x1="14.4" y1="7.1" x2="14.4" y2="31.1"/>
		<line class="st4" x1="16.6" y1="10" x2="16.6" y2="31.1"/>
		<line class="st4" x1="20.2" y1="19.1" x2="20.2" y2="31.1"/>
		<line class="st4" x1="22.4" y1="17.3" x2="22.4" y2="31.1"/>
	</g>
</g>
</svg>
