<?xml version="1.0" encoding="utf-8"?>
<!-- Generator: Adobe Illustrator 28.0.0, SVG Export Plug-In . SVG Version: 6.00 Build 0)  -->
<svg version="1.1" id="Layer_1" xmlns="http://www.w3.org/2000/svg" xmlns:xlink="http://www.w3.org/1999/xlink" x="0px" y="0px"
	 viewBox="0 0 50 50" style="enable-background:new 0 0 50 50;" xml:space="preserve">
<style type="text/css">
	.st0{fill:#E589EF;}
	.st1{fill:none;stroke:#444444;stroke-width:2.5;stroke-linecap:round;stroke-linejoin:round;stroke-miterlimit:10;}
	.st2{fill:#444444;}
</style>
<path class="st0" d="M44.6,12.4L39,8.8l-7.7-4.4l-6-2.8c-3.2,0-21.5,8.9-21.5,12.1l-0.5,7.8l0.5,15.1l11.5,7.6l31-11
	C47.2,32.7,45.6,14.4,44.6,12.4z"/>
<g>
	<g>
		<path class="st1" d="M29.9,46.5l-2.2,1.3c-1.7,1-3.8,1-5.5,0l-15.6-9C5,37.8,3.9,36,3.9,34V16c0-2,1-3.8,2.7-4.7l15.6-9
			c1.7-1,3.8-1,5.5,0l15.6,9c1.7,1,2.7,2.8,2.7,4.7v18c0,2-1,3.8-2.7,4.7l-2.5,1.4"/>
	</g>
</g>
<g>
	<g>
		<g>
			<polygon class="st2" points="28,24.9 27.3,25.6 25.1,23.8 25.9,23.2 			"/>
			<path class="st2" d="M25.9,23.2l-0.8,0.6l-0.8-0.6L21,20.5l-0.1-0.1c-0.2-0.2-0.2-0.5-0.1-0.7c0.2-0.2,0.5-0.2,0.7-0.1l0.2,0.1
				l3.4,2.8L25.9,23.2z"/>
			<polygon class="st2" points="30.7,27.1 30.1,27.8 27.7,25.9 28.4,25.2 			"/>
			<path class="st2" d="M35.5,37.3c0,0.4-0.1,0.8-0.4,1.1c-0.3,0.3-0.7,0.4-1.1,0.5l-6.8,0l-2.2-3l-0.6-0.8l-2.5-3.2l-0.3-0.4
				l-2.4-3.1l-0.6-0.8l-2-2.6l-0.1-0.2c-0.2-0.2-0.1-0.5,0.1-0.7c0.2-0.2,0.5-0.1,0.7,0.1l0.1,0.1l2.1,2.7l0.6,0.8l2.3,3l0.3,0.4
				l2.4,3.2l0.6,0.8l1.9,2.5l0.2,0.3h0.2l6.1,0c0.1,0,0.3-0.1,0.4-0.2c0.1-0.1,0.1-0.2,0.1-0.4l-0.2-5.9l0-0.2L34,31l-3.2-2.5
				l-0.8-0.6l0.6-0.8l0.8,0.6l3.8,3L35.5,37.3z"/>
		</g>
		<g>
			<path class="st2" d="M14,26.7c-0.5,0-1-0.2-1.3-0.6c-0.7-0.7-0.7-1.9,0-2.7l7.3-7.3c0.7-0.7,1.9-0.7,2.7,0c0.7,0.7,0.7,1.9,0,2.7
				l-7.3,7.3C15,26.5,14.5,26.7,14,26.7z M21.2,16.7c-0.2,0-0.5,0.1-0.6,0.3l-7.3,7.3c-0.2,0.2-0.3,0.4-0.3,0.6
				c0,0.2,0.1,0.5,0.3,0.6c0.3,0.3,0.9,0.3,1.3,0l7.3-7.3c0.2-0.2,0.3-0.4,0.3-0.6c0-0.2-0.1-0.5-0.3-0.6S21.5,16.7,21.2,16.7z"/>
		</g>
		<g>
			<path class="st2" d="M12.3,18.3c-0.7,0-1.3-0.3-1.8-0.8s-0.8-1.1-0.8-1.8c0-0.7,0.3-1.3,0.8-1.8c1-1,2.7-1,3.7,0
				c0.5,0.5,0.8,1.1,0.8,1.8s-0.3,1.3-0.8,1.8l0,0l0,0l0,0C13.7,18.1,13,18.3,12.3,18.3z M12.3,14.1c-0.4,0-0.8,0.2-1.1,0.5
				c-0.3,0.3-0.5,0.7-0.5,1.1c0,0.4,0.2,0.8,0.5,1.1c0.6,0.6,1.7,0.6,2.3,0l0,0c0.3-0.3,0.5-0.7,0.5-1.1c0-0.4-0.2-0.8-0.5-1.1
				C13.1,14.3,12.7,14.1,12.3,14.1z"/>
		</g>
		<g>
			<path class="st2" d="M17.6,19.6c-0.1,0-0.3,0-0.4-0.1l-3.1-3.1c-0.2-0.2-0.2-0.5,0-0.7s0.5-0.2,0.7,0l3.1,3.1
				c0.2,0.2,0.2,0.5,0,0.7C17.9,19.6,17.7,19.6,17.6,19.6z"/>
		</g>
		<g>
			<path class="st2" d="M15.6,21.6c-0.1,0-0.3,0-0.4-0.1L12,18.2c-0.2-0.2-0.2-0.5,0-0.7s0.5-0.2,0.7,0l3.2,3.2
				c0.2,0.2,0.2,0.5,0,0.7C15.9,21.5,15.8,21.6,15.6,21.6z"/>
		</g>
		<g>
			<path class="st2" d="M14,19.7c-0.1,0-0.1,0-0.2-0.1c-0.1-0.1-0.1-0.3,0-0.4l2-2c0.1-0.1,0.3-0.1,0.4,0s0.1,0.3,0,0.4l-2,2
				C14.2,19.7,14.1,19.7,14,19.7z"/>
		</g>
		<g>
			<path class="st2" d="M24.2,27.7c-0.1,0-0.1,0.1-0.2,0.1c-0.1,0-0.1,0-0.2-0.1l-1.7-1.7l0.4-0.3l1.6,1.6
				C24.3,27.5,24.3,27.6,24.2,27.7z"/>
			<path class="st2" d="M22.5,25.8l-0.4,0.3l-0.7-0.7l-2.7-2.7l-0.2-0.2c-0.1-0.1-0.1-0.2,0-0.3c0.1-0.1,0.3-0.1,0.4,0l2.9,2.9
				L22.5,25.8z"/>
		</g>
		<g>
			<path class="st2" d="M27.7,30.8l-0.3,0.4l-2-2c-0.1-0.1-0.1-0.3,0-0.4c0.1-0.1,0.3-0.1,0.4,0L27.7,30.8z"/>
			<path class="st2" d="M34.8,31c0.1,0.1,0,0.3-0.1,0.3l-0.3,0.1l-4.7,1.7h0l-0.2,0.1L29.1,33l-1-1l-0.7-0.7l0.3-0.4l0.7,0.7
				l1.1,1.1L34,31l0.4-0.2C34.6,30.8,34.8,30.8,34.8,31z"/>
		</g>
		<g>
			<path class="st2" d="M27.5,38.4C27.5,38.4,27.4,38.4,27.5,38.4c-0.2-0.1-0.3-0.2-0.2-0.3l1.9-5.2c0-0.1,0.2-0.2,0.3-0.1
				c0.1,0,0.2,0.2,0.1,0.3l-1.9,5.2C27.7,38.3,27.6,38.4,27.5,38.4z"/>
		</g>
	</g>
	<g>
		<g>
			<polygon class="st2" points="27.7,30.8 28.4,31.6 28.1,31.9 27.4,31.2 			"/>
			<path class="st2" d="M24.9,34.3l0.6,0.8l-0.6,0.8l-2.2,2.8l-6.6,0.2h0c-0.4,0-0.8-0.2-1.1-0.4c-0.3-0.3-0.5-0.7-0.5-1.1l-0.1-6.8
				l4-3l0.8-0.6l0.6,0.8l-0.8,0.6l-3.3,2.5l-0.3,0.2v0.2l0,6.1c0,0.1,0.1,0.3,0.2,0.4c0.1,0.1,0.2,0.2,0.4,0.2l5.9-0.2l0.2,0
				l0.2-0.3l1.9-2.3L24.9,34.3z"/>
			<polygon class="st2" points="21.8,25 22.5,25.8 22.1,26.1 21.4,25.4 			"/>
			<path class="st2" d="M29.3,20.6L29.3,20.6l-3.4,2.6l-0.8,0.6l-0.8-0.6l0.8-0.6l3.4-2.6l0.2-0.1c0.2-0.2,0.5-0.1,0.7,0.1
				C29.6,20.2,29.5,20.5,29.3,20.6z"/>
			<path class="st2" d="M33.8,24.9l-0.1,0.2l-2.1,2.6l-0.6,0.8l-0.8-0.6l0.6-0.8l2.2-2.7l0.1-0.1c0.2-0.2,0.5-0.2,0.7-0.1
				C33.9,24.4,33.9,24.7,33.8,24.9z"/>
		</g>
		<g>
			<path class="st2" d="M35.9,26.5c-0.5,0-1-0.2-1.3-0.6l-7.3-7.3c-0.4-0.4-0.6-0.8-0.6-1.3s0.2-1,0.6-1.3l0,0l0,0
				c0.7-0.7,1.9-0.7,2.7,0l7.3,7.3c0.7,0.7,0.7,1.9,0,2.7C36.8,26.4,36.4,26.5,35.9,26.5z M28.6,16.5c-0.2,0-0.5,0.1-0.6,0.3l0,0
				c-0.2,0.2-0.3,0.4-0.3,0.6s0.1,0.5,0.3,0.6l7.3,7.3c0.3,0.3,0.9,0.3,1.3,0c0.2-0.2,0.3-0.4,0.3-0.6s-0.1-0.5-0.3-0.6l-7.3-7.3
				C29.1,16.6,28.8,16.5,28.6,16.5z M27.6,16.4L27.6,16.4L27.6,16.4z"/>
		</g>
		<g>
			<path class="st2" d="M37.7,18.3c-0.7,0-1.3-0.3-1.8-0.8c-0.5-0.5-0.8-1.1-0.8-1.8c0-0.7,0.3-1.3,0.8-1.8c1-1,2.7-1,3.7,0
				c0.5,0.5,0.8,1.1,0.8,1.8c0,0.7-0.3,1.3-0.8,1.8C39,18.1,38.4,18.3,37.7,18.3z M37.7,14.1c-0.4,0-0.8,0.2-1.1,0.5
				c-0.3,0.3-0.5,0.7-0.5,1.1c0,0.4,0.2,0.8,0.5,1.1l0,0c0.6,0.6,1.6,0.6,2.3,0c0.3-0.3,0.5-0.7,0.5-1.1c0-0.4-0.2-0.8-0.5-1.1
				C38.5,14.3,38.1,14.1,37.7,14.1z"/>
		</g>
		<g>
			<path class="st2" d="M34.3,21.5c-0.1,0-0.3,0-0.4-0.1c-0.2-0.2-0.2-0.5,0-0.7l3.1-3.1c0.2-0.2,0.5-0.2,0.7,0s0.2,0.5,0,0.7
				l-3.1,3.1C34.6,21.5,34.4,21.5,34.3,21.5z"/>
		</g>
		<g>
			<path class="st2" d="M32.3,19.6c-0.1,0-0.3,0-0.4-0.1c-0.2-0.2-0.2-0.5,0-0.7l3.2-3.2c0.2-0.2,0.5-0.2,0.7,0s0.2,0.5,0,0.7
				l-3.2,3.2C32.6,19.5,32.5,19.6,32.3,19.6z"/>
		</g>
		<g>
			<path class="st2" d="M35.9,19.6c-0.1,0-0.1,0-0.2-0.1l-2-2c-0.1-0.1-0.1-0.3,0-0.4s0.3-0.1,0.4,0l2,2c0.1,0.1,0.1,0.3,0,0.4
				C36,19.6,36,19.6,35.9,19.6z"/>
		</g>
		<g>
			<polygon class="st2" points="28.4,25.2 27.7,25.9 27.3,25.6 28,24.9 			"/>
			<path class="st2" d="M31.3,22.3l-2.9,2.9L28,24.9l2.7-2.7L31,22c0.1-0.1,0.2-0.1,0.3,0C31.4,22.1,31.4,22.2,31.3,22.3z"/>
		</g>
		<g>
			<path class="st2" d="M22.6,37.9c0.1,0.1,0,0.3-0.1,0.3c0,0-0.1,0-0.1,0c-0.1,0-0.2-0.1-0.2-0.2L22,37.7L20.3,33l-0.1-0.2l0.2-0.2
				l1.1-1.1l0.7-0.7l0.3,0.4l-0.7,0.7l-1.1,1l1.7,4.5L22.6,37.9z"/>
		</g>
		<g>
			<path class="st2" d="M20.5,33.1C20.5,33.1,20.4,33.1,20.5,33.1l-5.3-2c-0.1,0-0.2-0.2-0.1-0.3c0-0.1,0.2-0.2,0.3-0.1l5.2,1.9
				c0.1,0,0.2,0.2,0.1,0.3C20.7,33,20.6,33.1,20.5,33.1z"/>
		</g>
	</g>
</g>
</svg>
