<?xml version="1.0" encoding="utf-8"?>
<!-- Generator: Adobe Illustrator 22.1.0, SVG Export Plug-In . SVG Version: 6.00 Build 0)  -->
<svg version="1.1" id="Layer_1" xmlns="http://www.w3.org/2000/svg" xmlns:xlink="http://www.w3.org/1999/xlink" x="0px" y="0px"
	 viewBox="0 0 50 50" style="enable-background:new 0 0 50 50;" xml:space="preserve">
<style type="text/css">
	.st0{fill:#DC5E82;}
	.st1{fill:#F56991;}
	.st2{fill:#444444;}
</style>
<g>
	<path class="st0" d="M38.6,25.7c0,0.1,0,0.1,0,0.2l-1.7,0.6l-6.5,2.3l-7.2,2.6L16.4,34l-1.7,0.6c-2.1-2.5-3.3-5.6-3.3-8.9
		c0-0.1,0-0.2,0-0.3c0.1-3.6,1.5-6.8,4-9.3c2.6-2.6,6-4,9.6-4c4.1,0,7.8,1.8,10.2,4.7C37.4,19.1,38.6,22.3,38.6,25.7z"/>
</g>
<g>
	<path class="st1" d="M35.3,16.7l-1.6,0.6l-3.4,1.2L28.9,19l-4.1,1.5l-5.3,1.9l-6.4,2.3l-1.8,0.6c0.1-3.6,1.5-6.8,4-9.3
		c2.6-2.6,6-4,9.6-4C29.1,12.1,32.8,13.9,35.3,16.7z"/>
</g>
<path class="st2" d="M45,33.3V16.7c1.1-0.3,2-1.4,2-2.6c0-1.5-1.2-2.7-2.7-2.7c-0.7,0-1.4,0.3-1.9,0.8L27.6,3.6
	c0.1-0.2,0.1-0.4,0.1-0.7c0-1.5-1.2-2.7-2.7-2.7s-2.7,1.2-2.7,2.7c0,0.2,0,0.4,0.1,0.7L7.6,12.1c-0.5-0.5-1.2-0.8-1.9-0.8
	c-1.5,0-2.7,1.2-2.7,2.7c0,1.2,0.8,2.3,2,2.6v16.7c-1.1,0.3-2,1.4-2,2.6c0,1.5,1.2,2.7,2.7,2.7c0.6,0,1.2-0.2,1.6-0.6l14.9,8.6
	c0,0.1,0,0.2,0,0.3c0,1.5,1.2,2.7,2.7,2.7s2.7-1.2,2.7-2.7c0-0.1,0-0.2,0-0.3l14.9-8.6c0.5,0.3,1,0.6,1.6,0.6c1.5,0,2.7-1.2,2.7-2.7
	C47,34.7,46.1,33.7,45,33.3z M8.4,13.4l14.7-8.5c0.5,0.5,1.2,0.8,1.9,0.8c0.7,0,1.4-0.3,1.9-0.8l14.7,8.5c-0.1,0.2-0.1,0.4-0.1,0.7
	c0,0.4,0.1,0.8,0.2,1.1l-5.1,3.1c-0.4-0.6-0.8-1.1-1.2-1.6c-2.5-2.9-6.2-4.7-10.4-4.7c-3.7,0-7.2,1.4-9.7,3.9
	c-0.7,0.7-1.3,1.5-1.9,2.4l-5.2-3.2c0.1-0.3,0.2-0.6,0.2-0.9C8.5,13.8,8.4,13.6,8.4,13.4z M6.5,33.3V16.7c0.4-0.1,0.7-0.3,1-0.5
	c0,0,0,0,0,0l5.3,3.3c-0.9,1.8-1.4,3.8-1.4,5.9c0,0.1,0,0.2,0,0.3c0,1.9,0.4,3.8,1.2,5.5l-4.8,2.9C7.4,33.7,7,33.5,6.5,33.3z
	 M27.1,45.3c-0.5-0.6-1.2-1-2.1-1s-1.6,0.4-2.1,1L8.3,36.9c0.1-0.3,0.2-0.6,0.2-1c0-0.2,0-0.4-0.1-0.6l4.7-2.9
	c0.4,0.7,0.9,1.4,1.5,2.1c0.4,0.4,0.7,0.8,1.1,1.2c0.2,0.2,0.4,0.2,0.6,0.2c0.2,0,0.4-0.1,0.6-0.2c0.2-0.2,0.2-0.4,0.2-0.6
	s-0.1-0.5-0.3-0.6c-0.2-0.2-0.4-0.4-0.5-0.5c-1.3-1.3-2.2-2.9-2.7-4.7c-0.5-1.6-0.7-3.2-0.5-4.6c0.2-2,1.1-3.9,2.7-5.5
	c0.1-0.1,0.1-0.1,0.2-0.2c2.7-2.7,7.1-3.6,10.4-2c1.1,0.5,2,1.2,2.7,2c1.9,2.2,2.3,5.4,1.3,7.7c-0.3,0.7-0.7,1.3-1.2,1.8
	c-1.9,1.9-4.6,2-6.2,1.4c-1.1-0.4-2-1.3-2.5-2.4s-0.6-2.4-0.2-3.5c0.2-0.5,0.4-0.8,0.8-1.2c1-1.1,2.6-1.3,3.9-0.8
	c0.9,0.5,1.4,1.3,1.5,2.5c0.1,0.3,0.2,0.5,0.4,0.7c0.2,0.2,0.5,0.2,0.7,0.1c0.1-0.1,0.2-0.1,0.2-0.2c0.2-0.2,0.2-0.5,0.2-0.6
	c0-1.2-0.8-2.6-1.9-3.4c-0.4-0.2-0.8-0.5-1.2-0.6c-0.8-0.2-1.8-0.2-2.6,0.1c-0.8,0.2-1.5,0.7-2.2,1.3c-0.1,0.1-0.3,0.3-0.5,0.5
	c-0.8,1.1-2,3.3-0.1,6.3c0.9,1.5,2.3,2.4,3.8,2.8c0.1,0,0.2,0.1,0.4,0.1c1.8,0.4,3.7-0.1,5.4-1.3c0.4-0.3,0.8-0.6,1.1-0.9
	c0.2-0.2,0.3-0.4,0.5-0.5c2.2-2.6,2.4-6.1,0.6-9.2c-0.2-0.4-0.5-0.8-0.8-1.2c-1.6-2.2-3.8-3.4-6.5-3.7c-0.2,0-0.5,0-0.7,0
	c-0.2,0-0.3,0-0.4,0H20l2.3-0.9c1.1-0.4,2.3-0.4,3.3-0.3c3.3,0.1,6.1,1.5,8.2,3.6c1.6,1.7,2.7,3.9,3.2,6.5c0.1,0.9,0.2,1.9,0.1,2.8
	c-0.2,3-1.4,5.7-3.4,7.8c-1.3,1.3-3,2.3-4.8,2.9c-0.2,0.1-0.3,0.1-0.4,0.2c-0.1,0.2-0.2,0.4-0.2,0.6c0,0.5,0.4,0.9,0.9,0.9
	c0.1,0,0.1,0,0.2,0h0.1c0.1,0,0.1,0,0.2-0.1c2-0.7,3.9-1.9,5.3-3.3c0.9-0.9,1.6-1.9,2.2-3l4.5,2.7c-0.1,0.2-0.1,0.4-0.1,0.7
	c0,0.3,0.1,0.7,0.2,1L27.1,45.3z M43.5,33.3c-0.4,0.1-0.8,0.3-1.1,0.6l-4.6-2.8c0.7-1.7,1.1-3.5,1.1-5.3c0-0.1,0-0.1,0-0.2
	c0-2.2-0.5-4.3-1.5-6.1l5.3-3.2c0,0,0,0,0,0c0.2,0.2,0.5,0.3,0.8,0.4V33.3z"/>
</svg>
