<svg xmlns="http://www.w3.org/2000/svg" viewBox="0 0 50 50"><path fill="#dc5e82" d="M38.6 25.7v.2l-1.7.6-6.5 2.3-7.2 2.6-6.8 2.6-1.7.6c-2.1-2.5-3.3-5.6-3.3-8.9v-.3c.1-3.6 1.5-6.8 4-9.3 2.6-2.6 6-4 9.6-4 4.1 0 7.8 1.8 10.2 4.7 2.2 2.3 3.4 5.5 3.4 8.9z"/><path fill="#f56991" d="M35.3 16.7l-1.6.6-3.4 1.2-1.4.5-4.1 1.5-5.3 1.9-6.4 2.3-1.8.6c.1-3.6 1.5-6.8 4-9.3 2.6-2.6 6-4 9.6-4 4.2.1 7.9 1.9 10.4 4.7z"/><path fill="#031326" d="M45 33.3V16.7c1.1-.3 2-1.4 2-2.6 0-1.5-1.2-2.7-2.7-2.7-.7 0-1.4.3-1.9.8L27.6 3.6c.1-.2.1-.4.1-.7 0-1.5-1.2-2.7-2.7-2.7s-2.7 1.2-2.7 2.7c0 .2 0 .4.1.7L7.6 12.1c-.5-.5-1.2-.8-1.9-.8C4.2 11.3 3 12.5 3 14c0 1.2.8 2.3 2 2.6v16.7c-1.1.3-2 1.4-2 2.6 0 1.5 1.2 2.7 2.7 2.7.6 0 1.2-.2 1.6-.6l14.9 8.6v.3c0 1.5 1.2 2.7 2.7 2.7s2.7-1.2 2.7-2.7v-.3L42.5 38c.5.3 1 .6 1.6.6 1.5 0 2.7-1.2 2.7-2.7.2-1.2-.7-2.2-1.8-2.6zM8.4 13.4l14.7-8.5c.5.5 1.2.8 1.9.8s1.4-.3 1.9-.8l14.7 8.5c-.1.2-.1.4-.1.7 0 .4.1.8.2 1.1l-5.1 3.1c-.4-.6-.8-1.1-1.2-1.6C32.9 13.8 29.2 12 25 12c-3.7 0-7.2 1.4-9.7 3.9-.7.7-1.3 1.5-1.9 2.4l-5.2-3.2c.1-.3.2-.6.2-.9.1-.4 0-.6 0-.8zM6.5 33.3V16.7c.4-.1.7-.3 1-.5l5.3 3.3c-.9 1.8-1.4 3.8-1.4 5.9v.3c0 1.9.4 3.8 1.2 5.5l-4.8 2.9c-.4-.4-.8-.6-1.3-.8zm20.6 12c-.5-.6-1.2-1-2.1-1s-1.6.4-2.1 1L8.3 36.9c.1-.3.2-.6.2-1 0-.2 0-.4-.1-.6l4.7-2.9c.4.7.9 1.4 1.5 2.1.4.4.7.8 1.1 1.2.2.2.4.2.6.2.2 0 .4-.1.6-.2.2-.2.2-.4.2-.6s-.1-.5-.3-.6l-.5-.5c-1.3-1.3-2.2-2.9-2.7-4.7-.5-1.6-.7-3.2-.5-4.6.2-2 1.1-3.9 2.7-5.5l.2-.2c2.7-2.7 7.1-3.6 10.4-2 1.1.5 2 1.2 2.7 2 1.9 2.2 2.3 5.4 1.3 7.7-.3.7-.7 1.3-1.2 1.8-1.9 1.9-4.6 2-6.2 1.4-1.1-.4-2-1.3-2.5-2.4s-.6-2.4-.2-3.5c.2-.5.4-.8.8-1.2 1-1.1 2.6-1.3 3.9-.8.9.5 1.4 1.3 1.5 2.5.1.3.2.5.4.7.2.2.5.2.7.1.1-.1.2-.1.2-.2.2-.2.2-.5.2-.6 0-1.2-.8-2.6-1.9-3.4-.4-.2-.8-.5-1.2-.6-.8-.2-1.8-.2-2.6.1-.8.2-1.5.7-2.2 1.3l-.5.5c-.8 1.1-2 3.3-.1 6.3.9 1.5 2.3 2.4 3.8 2.8.1 0 .2.1.4.1 1.8.4 3.7-.1 5.4-1.3.4-.3.8-.6 1.1-.9.2-.2.3-.4.5-.5 2.2-2.6 2.4-6.1.6-9.2-.2-.4-.5-.8-.8-1.2-1.6-2.2-3.8-3.4-6.5-3.7h-4l2.3-.9c1.1-.4 2.3-.4 3.3-.3 3.3.1 6.1 1.5 8.2 3.6 1.6 1.7 2.7 3.9 3.2 6.5.1.9.2 1.9.1 2.8-.2 3-1.4 5.7-3.4 7.8-1.3 1.3-3 2.3-4.8 2.9-.2.1-.3.1-.4.2-.1.2-.2.4-.2.6 0 .5.4.9.9.9h.3c.1 0 .1 0 .2-.1 2-.7 3.9-1.9 5.3-3.3.9-.9 1.6-1.9 2.2-3l4.5 2.7c-.1.2-.1.4-.1.7 0 .3.1.7.2 1l-14.7 8.4zm16.4-12c-.4.1-.8.3-1.1.6l-4.6-2.8c.7-1.7 1.1-3.5 1.1-5.3v-.2c0-2.2-.5-4.3-1.5-6.1l5.3-3.2c.2.2.5.3.8.4v16.6z"/></svg>