<?xml version="1.0" encoding="UTF-8"?>
<svg id="Layer_1" xmlns="http://www.w3.org/2000/svg" version="1.1" viewBox="0 0 50 50">
  <!-- Generator: Adobe Illustrator 29.5.0, SVG Export Plug-In . SVG Version: 2.1.0 Build 137)  -->
  <defs>
    <style>
      .st0, .st1, .st2 {
        fill: none;
        stroke: #444;
        stroke-linecap: round;
        stroke-linejoin: round;
      }

      .st1 {
        stroke-width: 2.5px;
      }

      .st2 {
        stroke-width: .5px;
      }

      .st3 {
        fill: #c3ff68;
      }
    </style>
  </defs>
  <path class="st3" d="M35,7.6l-5,2.1-12.7-1.4-7,.7c-3.2,0-17.5,34.1,3.3,33.2l8.6-7.4,5.2-.3,1.6,2,18.4-6.6c.7-.4-3.2-20.3-12.5-22.3Z"/>
  <g>
    <g>
      <circle class="st0" cx="11.5" cy="31.9" r="9.5"/>
      <path class="st2" d="M14.1,26.7c1.9,1,3.2,2.9,3.2,5.2"/>
      <polyline class="st0" points="21 31.9 21 23.9 21 23.9"/>
      <path class="st0" d="M2.5,28.9h0c0,0,0-.2,0-.2l4.8-15.7c.8-3,3.5-5.1,6.7-5.1s3.3.6,4.5,1.7"/>
      <g>
        <path class="st0" d="M15.9,19.5c.8.3,1.5.6,2.2,1"/>
        <path class="st0" d="M31.3,20.5c.7-.4,1.4-.8,2.2-1"/>
      </g>
      <path class="st0" d="M29.4,36.4c-2.5-4.6-.7-10.4,3.9-12.9s10.4-.7,12.9,3.9"/>
      <path class="st2" d="M40.5,26.7c1.9,1,3.2,2.9,3.2,5.2"/>
      <line class="st0" x1="28.3" y1="31.9" x2="28.3" y2="23.9"/>
      <path class="st0" d="M30.8,9.5c1.2-1.1,2.8-1.7,4.5-1.7,3.2,0,5.9,2.2,6.7,5.1l4.8,15.7h0c0,.1,0,.2,0,.2"/>
      <path class="st0" d="M21,23.9s1.5-.7,3.7-.7,3.7.7,3.7.7"/>
      <path class="st0" d="M15.9,19.5s2.9-2.9,8.8-2.9,8.8,2.9,8.8,2.9"/>
      <path class="st0" d="M16.6,13.7s2.9-2.2,8-2.2,8,2.2,8,2.2"/>
    </g>
    <path class="st1" d="M45.2,39c1.7-1.7,2.8-4.1,2.8-6.6s-.2-3.1-.5-4h0,0c0,0,0-.2,0-.2l-5.4-15.3c-.8-3-3.5-5.1-6.7-5.1s-3.3.6-4.5,1.7h-12.2c-1.2-1.1-2.8-1.7-4.5-1.7-3.2,0-5.9,2.2-6.7,5.1l-4.8,15.7h0c0,.1,0,.2,0,.2h0c-.3,1-.5,2-.5,3.1,0,5.3,4.3,10.3,9.5,10.3s7.6-2.3,10-7.7,6.3,0,6.3,0c2,5.7,4.9,7.7,10.1,7.7"/>
  </g>
</svg>
