<svg xmlns="http://www.w3.org/2000/svg" viewBox="0 0 300 300"><circle cx="145.1" cy="154.9" r="145.1" fill="#008dd5"/><ellipse cx="162.1" cy="142.8" fill="#2fdda3" rx="93.1" ry="125.2" transform="rotate(-19.999 162.058 142.8)"/><ellipse cx="187.8" cy="133.5" fill="#69f9c5" rx="65.8" ry="88.5" transform="rotate(-19.999 187.768 133.482)"/><path fill="#122223" d="M246.8 112c8.1 22.4-9.9 49.5-32.3 57.7-14.9 5.4-36.3-7.3-44.5-29.7s.1-45.9 15-51.4c22.4-8.2 53.7 1 61.8 23.4z"/><path fill="#304245" d="M246.8 112c1.4 4 2.1 8.1 2 12.2-27.9 6.4-56.8-6.6-70.6-31.5 2.1-1.8 4.4-3.2 6.9-4.1 22.3-8.2 53.5 1 61.7 23.4z"/><path fill="#fff" d="M149.8 4.6C98.1 23.4 76.6 95.1 102 164.7s87.8 110.7 139.6 91.9 73.2-90.5 47.8-160.1S201.5-14.3 149.8 4.6zm65.4 164.8l-.4-.2c-13.9-6.5-25.1-19-30.7-34.3-5.6-15.3-5.1-32.2 1.4-46.2l.2-.4c22.3-7.7 53.1 1.5 61.1 23.6 8.1 22.2-9.6 49-31.6 57.5z" opacity=".2"/><g opacity=".75"><path fill="#fff" d="M165.6 152.9c-1.7-3.1-3.2-6.4-4.5-9.7-3.7-10.1-4.8-20.6-3.3-30.4l-1-.2c-1.6 9.9-.4 20.6 3.3 30.9 1.3 3.5 2.8 6.8 4.6 10l-3.5 2.6c-2-3.5-3.7-7.3-5.1-11.1-1.5-4.2-2.7-8.4-3.4-12.7l-1 .2c.8 4.3 1.9 8.7 3.5 12.9 1.4 4 3.2 7.8 5.2 11.4l-3.5 2.6c-2.2-4-4.1-8.2-5.7-12.5-7.1-19.5-6.7-40.4 1.1-56l-.9-.4c-7.9 15.8-8.4 37-1.2 56.7 1.6 4.4 3.6 8.7 5.8 12.8l-3.5 2.6c-2.5-4.4-4.6-9.1-6.4-13.9-4.2-11.5-6.1-23.7-5.5-35.2l-1-.1c-.6 11.6 1.3 23.9 5.6 35.6 1.8 4.9 4 9.7 6.5 14.1l-3.5 2.6c-2.7-4.8-5.1-10-7-15.3-6.1-16.7-7.7-34.6-4.6-50.4 3-15.5 10.5-28.4 21-36.2l-.6-.8c-10.7 8-18.3 21.1-21.4 36.8-3.1 16-1.5 34 4.7 50.9 2 5.4 4.4 10.6 7.1 15.5l-3.5 2.6c-3-5.3-5.5-10.8-7.6-16.6-2.8-7.6-4.7-15.4-5.8-23.2l-1 .1c1.1 7.9 3 15.7 5.8 23.4 2.1 5.9 4.7 11.5 7.7 16.9l-3.5 2.6c-3.2-5.7-6-11.7-8.2-18-8.4-23-9.6-47.1-3.4-67.8l-.9-.3c-6.2 20.9-5 45.2 3.4 68.4 2.3 6.3 5.1 12.5 8.4 18.3l-3.5 2.6c-3.4-6.1-6.4-12.6-8.9-19.4-5.4-15-8.1-30.2-7.8-45.2h-1c-.3 15.2 2.4 30.5 7.9 45.6 2.5 6.8 5.5 13.4 9 19.6l-3.5 2.6c-3.7-6.6-6.9-13.5-9.5-20.8-.6-1.7-1.2-3.4-1.7-5l-.9.3c.5 1.7 1.1 3.4 1.7 5.1 2.7 7.3 5.9 14.4 9.6 21l-3.5 2.6c-3.9-7-7.3-14.4-10.1-22.1-9.5-26.1-11.5-53.8-5.6-77.9l-1-.2c-5.9 24.3-3.9 52.2 5.7 78.5 2.8 7.8 6.3 15.3 10.3 22.4l-3.5 2.6c-4.2-7.4-7.8-15.3-10.8-23.5-2.2-6-4-12.2-5.5-18.3l-1 .2c1.4 6.2 3.3 12.4 5.5 18.4 3 8.3 6.7 16.2 10.9 23.8l-3.5 2.6c-4.4-7.9-8.3-16.2-11.4-24.9-4.9-13.4-8-27.1-9.3-40.8l-1 .1c1.3 13.8 4.5 27.6 9.4 41.1 3.2 8.7 7.1 17.2 11.5 25.2l-3.8 2.9c9.2 16.3 20.6 30.6 33.7 42 .5.5 1.1.9 1.6 1.4s1.1.9 1.6 1.4c.5.4 1 .8 1.5 1.3 0 0 .1 0 .1.1.5.4 1.1.9 1.6 1.3s1.1.8 1.7 1.3c.4.3.9.6 1.3.9l.9.6c1 .7 1.9 1.3 2.9 2 .6.4 1.1.7 1.7 1.1.5.3 1.1.7 1.6 1 .1.1.3.2.4.3.4.3.9.5 1.3.8.1 0 .1.1.2.1 1.1.7 2.2 1.3 3.4 2 11 6.1 22.4 10.1 33.7 11.8l-6.1-103.9c-4.9-5.2-8.9-11.3-11.8-18.1l-19.2 13.8zm107.1-90.5c-8.5-13.5-18.6-25.3-29.9-35-1.8-1.5-3.6-3-5.4-4.4-.5-.4-.9-.7-1.4-1s-.9-.7-1.4-1c-.3-.2-.7-.5-1-.7-.6-.4-1.2-.8-1.7-1.2-.4-.3-.8-.6-1.3-.9-.1 0-.1-.1-.2-.1-.4-.3-.9-.6-1.3-.9h-.1c-.4-.3-.8-.5-1.2-.8l-3-1.8c-.5-.3-1-.6-1.4-.8-.5-.3-1-.6-1.6-.9-.4-.2-.9-.5-1.3-.7-7.7-4.1-15.6-7.3-23.5-9.3l-.8 83.1c13.5-1.5 28.2 2 38.6 10l5.4-4.8c3.8 6.1 7.1 12.7 9.6 19.7 2.9 7.9 4.8 15.9 5.6 24l1-.1c-.9-8.1-2.8-16.3-5.7-24.2-2.6-7.1-5.9-13.8-9.8-20l3.3-2.9c4.2 6.7 7.7 13.9 10.5 21.4 5 13.7 7.3 28.2 6.6 41.9h1c.7-13.8-1.6-28.4-6.7-42.2-2.8-7.7-6.4-15-10.7-21.8l3.3-2.9c3 4.7 5.6 9.7 7.9 14.8l.9-.4c-2.4-5.2-5.1-10.3-8.1-15.1l3.3-2.9c4.9 7.8 9 16.1 12.2 25 1.6 4.4 3 8.8 4.1 13.3l1-.2c-1.1-4.5-2.5-9-4.1-13.4-3.3-9-7.4-17.5-12.4-25.3l3.3-2.9c5.2 8.3 9.6 17.3 13.1 26.8 9.7 26.6 11.1 54.4 3.9 78.2l.9.3c7.2-24.1 5.8-52.1-3.9-78.9-3.5-9.6-8-18.7-13.3-27.1l3.3-2.9c5.6 8.9 10.3 18.5 14 28.6 4.3 11.7 7 23.8 8.3 35.8l1-.1c-1.2-12.1-4-24.2-8.3-36-3.7-10.2-8.5-19.9-14.1-28.9l3.3-2.9c5.9 9.4 10.9 19.6 14.8 30.3 7.7 21.1 10.8 43.3 9 64.1-1.7 20.2-8 38.4-18.1 52.6l.8.6c10.2-14.3 16.5-32.7 18.3-53.1 1.8-21-1.3-43.3-9.1-64.5-4-10.9-9-21.2-15-30.7l3.3-2.9c6.3 10 11.6 20.7 15.7 32.1 1.3 3.6 2.5 7.3 3.6 10.9l.9-.3c-1.1-3.7-2.3-7.4-3.6-11-4.2-11.5-9.5-22.4-15.9-32.4l3.5-3.2z" opacity=".5"/></g></svg>