<svg xmlns="http://www.w3.org/2000/svg" id="Layer_1" x="0" y="0" version="1.1" viewBox="0 0 50 50" xml:space="preserve"><style>.st2{stroke-width:2.5;stroke-linecap:round;stroke-linejoin:round}.st2,.st3,.st4{fill:none;stroke:#444;stroke-miterlimit:10}.st4{stroke-width:.5;stroke-linecap:round}</style><path fill="#8256d8" d="M29.6 21.2l7.8 2.5-6.7 4.7.1 8.2-6.6-4.9-7.7 2.6 2.6-7.7-4.9-6.6 8.2.1 4.7-6.7z"/><path fill="#a475ef" d="M48 20c-.2-.8-2.7-7.5-3.2-8.1l-3-3.5-.2.1L34 2.7 26.2 2c-3.2.1-14.5.3-21.4 10.3L.9 22.9l-.2.1 4 13.4c.1.4 4.5 5.7 4.9 5.9l5.6 3 32.2-11.7c.5-.5 1.6-8.8.6-13.6z"/><path d="M32.3 47.3c-7 2.3-15 1.2-21.3-3.6C.7 36-1.4 21.3 6.4 10.9" class="st2"/><path d="M6.2 11.1c2-3 4.7-4.7 4.7-4.7l.7-.5C19.7.1 30.9 0 39.2 6.3c10.4 7.8 12.4 22.5 4.7 32.8" class="st2"/><path d="M13 22.5H9.5c-.2 0-.4.2-.4.4l.5 3c0 .2.2.3.4.3h15.8" class="st3"/><path d="M36.8 22.5h3.7c.2 0 .4.2.4.4l-.5 3c0 .2-.2.3-.4.3H24.2m-7.4-3.7h16.1m-21.7 3.7l1.7 11.5c.1.5.5.8.9.8H36c.5 0 .9-.4.9-.8l1.6-11.5m-24.9-2c-.6-.5-.7-1.3-.3-1.9l6.9-9.3c.5-.6 1.3-.7 1.9-.3.6.5.7 1.3.3 1.9l-6.9 9.3c-.5.6-1.3.7-1.9.3z" class="st3"/><path d="M36.1 24.2c.6-.5.7-1.3.3-1.9L29.5 13c-.5-.6-1.3-.7-1.9-.3-.6.5-.7 1.3-.3 1.9l6.9 9.3c.4.6 1.3.7 1.9.3z" class="st3"/><path d="M15.7 29l.6 2.7m3.1-2.7l.4 2.7m3.3-2.6l.1 2.6m3.6-2.7l-.2 2.7m3.9-2.6l-.3 2.6m4-2.5l-.4 2.4m-17.3 1.7l.5 2.5m2.9-2.5l.4 2.7m3-2.6l.1 2.3m3.2-2.2v2.3m3.4-2.3l-.2 2.3m3.6-2.3l-.5 2.3M9.4 15.6l1 1m-1 1.8l1-.9m.9-1l1-.9m-.9 1.9l.9.9m22.2-7l1 1m-1 1.9l1-1m.9-.9l1-1m-.9 1.9l.9 1" class="st4"/><circle cx="39.3" cy="16.9" r="1.1" class="st4"/></svg>