<?xml version="1.0" encoding="utf-8"?>
<!-- Generator: Adobe Illustrator 28.0.0, SVG Export Plug-In . SVG Version: 6.00 Build 0)  -->
<svg version="1.1" id="Layer_1" xmlns="http://www.w3.org/2000/svg" xmlns:xlink="http://www.w3.org/1999/xlink" x="0px" y="0px"
	 viewBox="0 0 50 50" style="enable-background:new 0 0 50 50;" xml:space="preserve">
<style type="text/css">
	.st0{fill:#6821B7;}
	.st1{fill:#E5E5E5;}
</style>
<g>
	<path class="st0" d="M41,34.4c0.6,0,1,0.4,1,1v3.9l5-5v-2.9H11.8v2.4l5.6,5.6v-3.9c0-0.6,0.4-1,1-1s1,0.4,1,1v12.1h3V36.7
		c0-0.6,0.4-1,1-1H36c0.6,0,1,0.4,1,1v10.8h3V35.4C40,34.9,40.4,34.4,41,34.4z"/>
	<path class="st0" d="M29.7,19.3c2.3,0,4-1.7,4-3.9v-1.6c0-2.2-1.8-3.9-4-3.9s-4,1.7-4,3.9v1.6C25.6,17.6,27.4,19.3,29.7,19.3z"/>
	<path class="st0" d="M38.7,25.3c0-2.1-6.6-4-9.1-4s-9.1,2-9.1,4v4h18.1V25.3z"/>
	<rect x="24.4" y="37.7" class="st0" width="10.6" height="9.8"/>
	<path class="st0" d="M42,47.5c0.7-0.1,1.4-0.3,2.1-0.6c1.7-0.9,2.9-2.8,2.9-4.9v-4.8l-5,5V47.5z"/>
	<path class="st0" d="M10.1,34.9c-0.2-0.2-0.3-0.4-0.3-0.7v-3.8c0-0.6,0.4-1,1-1h7.8v-4c0-2.8,3.9-4.5,7.2-5.4
		c-1.3-1.1-2.1-2.7-2.1-4.5v-1.6c0-3.3,2.7-5.9,6-5.9s6,2.6,6,5.9v1.6c0,1.8-0.8,3.4-2.1,4.5c3.3,0.9,7.2,2.6,7.2,5.4v4H47v-5.7V8.2
		c0-3.1-2.5-5.6-5.6-5.6H7.7c-3.1,0-5.6,2.5-5.6,5.6v31.3v2.5c0,3.1,2.5,5.6,5.6,5.6h0h9.7v-5.4L10.1,34.9z"/>
	<path class="st1" d="M42,39.3v-3.9c0-0.6-0.4-1-1-1s-1,0.4-1,1v12.1h1.4h0c0.2,0,0.4,0,0.6,0v-5.4l5-5v-2.8L42,39.3z"/>
	<path class="st1" d="M18.3,34.4c-0.6,0-1,0.4-1,1v3.9l-5.6-5.6v-2.4H47v-2h-6.2v-4c0-2.8-3.9-4.5-7.2-5.4c1.3-1.1,2.1-2.7,2.1-4.5
		v-1.6c0-3.3-2.7-5.9-6-5.9s-6,2.6-6,5.9v1.6c0,1.8,0.8,3.4,2.1,4.5c-3.3,0.9-7.2,2.6-7.2,5.4v4h-7.8c-0.6,0-1,0.4-1,1v3.8
		c0,0.3,0.1,0.5,0.3,0.7l7.3,7.3v5.4h2V35.4C19.3,34.9,18.9,34.4,18.3,34.4z M25.6,15.5v-1.6c0-2.2,1.8-3.9,4-3.9s4,1.7,4,3.9v1.6
		c0,2.2-1.8,3.9-4,3.9S25.6,17.6,25.6,15.5z M20.6,25.3c0-2.1,6.6-4,9.1-4s9.1,2,9.1,4v4H20.6V25.3z"/>
	<path class="st1" d="M36,35.7H23.4c-0.6,0-1,0.4-1,1v10.8h2v-9.8H35v9.8h2V36.7C37,36.1,36.5,35.7,36,35.7z"/>
</g>
</svg>
