<?xml version="1.0" encoding="utf-8"?>
<!-- Generator: Adobe Illustrator 28.0.0, SVG Export Plug-In . SVG Version: 6.00 Build 0)  -->
<svg version="1.1" id="Layer_1" xmlns="http://www.w3.org/2000/svg" xmlns:xlink="http://www.w3.org/1999/xlink" x="0px" y="0px"
	 viewBox="0 0 50 50" style="enable-background:new 0 0 50 50;" xml:space="preserve">
<style type="text/css">
	.st0{fill:#DC5E82;}
	.st1{fill:none;stroke:#444444;stroke-width:2.5;stroke-linecap:round;stroke-linejoin:round;stroke-miterlimit:10;}
	.st2{fill:none;stroke:#444444;stroke-miterlimit:10;}
	.st3{fill:none;stroke:#444444;stroke-linejoin:round;stroke-miterlimit:10;}
	.st4{fill:none;stroke:#444444;stroke-width:0.5;stroke-miterlimit:10;}
	.st5{fill:none;stroke:#444444;stroke-width:0.5;stroke-linecap:round;stroke-miterlimit:10;}
	.st6{fill:none;stroke:#444444;stroke-width:0.5;stroke-linecap:round;stroke-linejoin:round;stroke-miterlimit:10;}
	.st7{fill:#444444;}
</style>
<path class="st0" d="M44.6,12.4L39,8.8l-7.7-4.4l-6-2.8c-3.2,0-21.5,8.9-21.5,12.1l-0.5,7.8l0.5,15.1l11.5,7.6l31-11
	C47.2,32.7,45.6,14.4,44.6,12.4z"/>
<g>
	<g>
		<path class="st1" d="M29.9,46.5l-2.2,1.3c-1.7,1-3.8,1-5.5,0l-15.6-9C5,37.8,3.9,36,3.9,34V16c0-2,1-3.8,2.7-4.7l15.6-9
			c1.7-1,3.8-1,5.5,0l15.6,9c1.7,1,2.7,2.8,2.7,4.7v18c0,2-1,3.8-2.7,4.7l-2.5,1.4"/>
	</g>
</g>
<path class="st2" d="M37.3,22.1h-2.9v-1c0-0.8,0.6-1.4,1.4-1.4c0.8,0,1.4,0.6,1.4,1.4V22.1z"/>
<polygon class="st3" points="34.4,31.2 35.8,33.6 37.3,31.2 37.3,22.1 34.4,22.1 "/>
<line class="st2" x1="34.4" y1="30.7" x2="37.3" y2="30.7"/>
<path class="st2" d="M39.7,35.5V14.4c0-0.3-0.2-0.5-0.5-0.5H18c-0.3,0-0.5,0.2-0.5,0.5v21.1c0,0.3,0.2,0.5,0.5,0.5h21.1
	C39.4,36,39.7,35.8,39.7,35.5z"/>
<line class="st4" x1="39.7" y1="17.8" x2="17.6" y2="17.8"/>
<line class="st5" x1="31.5" y1="33.1" x2="20" y2="33.1"/>
<line class="st5" x1="28.6" y1="30.7" x2="20" y2="30.7"/>
<line class="st5" x1="28.6" y1="23.5" x2="20" y2="23.5"/>
<line class="st5" x1="26.2" y1="28.3" x2="20" y2="28.3"/>
<line class="st5" x1="31.5" y1="25.9" x2="20" y2="25.9"/>
<g>
	<circle class="st4" cx="14.5" cy="17.3" r="1.3"/>
	<polyline class="st6" points="14.5,18.8 14.5,21 17,21 	"/>
	<polyline class="st6" points="11,21.9 12.6,21.9 14.2,23.7 17,23.7 	"/>
	<line class="st6" x1="11" y1="25.6" x2="17" y2="25.6"/>
	<polyline class="st6" points="11,29.4 12.6,29.4 14.2,27.6 17,27.6 	"/>
	<polyline class="st6" points="14.5,32.5 14.5,30.3 17,30.3 	"/>
	<circle class="st4" cx="9.7" cy="21.9" r="1.3"/>
	<circle class="st4" cx="9.5" cy="25.6" r="1.3"/>
	<circle class="st4" cx="9.5" cy="29.4" r="1.3"/>
	<circle class="st4" cx="14.5" cy="33.8" r="1.3"/>
</g>
<g>
	<circle class="st7" cx="32.7" cy="15.9" r="0.7"/>
	<circle class="st7" cx="34.7" cy="15.9" r="0.7"/>
	<circle class="st7" cx="36.6" cy="15.9" r="0.7"/>
</g>
</svg>
