<?xml version="1.0" encoding="utf-8"?>
<!-- Generator: Adobe Illustrator 26.5.0, SVG Export Plug-In . SVG Version: 6.00 Build 0)  -->
<svg version="1.1" id="Layer_1" xmlns="http://www.w3.org/2000/svg" xmlns:xlink="http://www.w3.org/1999/xlink" x="0px" y="0px"
	 viewBox="0 0 50 50" style="enable-background:new 0 0 50 50;" xml:space="preserve">
<style type="text/css">
	.st0{fill:#AFE55D;}
	.st1{fill:#C3FF68;}
	.st2{fill:#444444;}
	.st3{fill:#444444;stroke:#444444;stroke-width:0.4;stroke-miterlimit:10;}
	.st4{fill:none;stroke:#444444;stroke-miterlimit:10;}
</style>
<g id="Layer_2_00000059279208837492248030000018353883522086443143_">
</g>
<g>
	<g>
		<g>
			<g>
				<path class="st0" d="M6.7,38.2l5.6,3.3l33.5-18.5l-0.1-7.3c0-1.6-0.9-3.1-2.3-4L27.4,2.4c-1.4-0.8-3.2-0.8-4.6,0L6.7,11.7
					c-1.4,0.8-2.3,2.3-2.3,4v18.6C4.4,35.9,5.3,37.4,6.7,38.2z"/>
			</g>
			<g>
				<path class="st1" d="M33.9,6.2l-6.5-3.8c-1.4-0.8-3.2-0.8-4.6,0L6.7,11.7c-1.4,0.8-2.3,2.3-2.3,4l-0.3,7.8L33.9,6.2z"/>
			</g>
			<g>
				<path class="st2" d="M25,49.4c-1,0-2-0.3-2.9-0.8L6,39.3c-1.8-1-2.9-3-2.9-5V15.7c0-2.1,1.1-4,2.9-5l16.1-9.3c1.8-1,4-1,5.8,0
					L44,10.7c1.8,1,2.9,3,2.9,5v13.7c0,0.7-0.5,1.2-1.2,1.2s-1.2-0.5-1.2-1.2V15.7c0-1.2-0.6-2.3-1.7-2.9L26.7,3.5
					c-1-0.6-2.3-0.6-3.3,0L7.2,12.8c-1,0.6-1.7,1.7-1.7,2.9v18.6c0,1.2,0.6,2.3,1.7,2.9l16.1,9.3c1,0.6,2.3,0.6,3.3,0l4.4-2.6
					c0.6-0.3,1.3-0.1,1.7,0.4c0.3,0.6,0.1,1.3-0.4,1.7l-4.4,2.6C27,49.1,26,49.4,25,49.4z"/>
			</g>
		</g>
	</g>
	<g id="_x31_2_00000133486750505226466470000001425074538917832366_">
		<g>
			<g>
				<circle class="st3" cx="15.4" cy="15.4" r="0.6"/>
			</g>
		</g>
		<g>
			<g>
				<circle class="st3" cx="17.4" cy="15.4" r="0.6"/>
			</g>
		</g>
		<g>
			<g>
				<circle class="st3" cx="19.4" cy="15.4" r="0.6"/>
			</g>
		</g>
		<g>
			<g>
				<path class="st3" d="M33,36.6h-19c-0.9,0-1.5-0.7-1.5-1.5V14.7c0-0.9,0.7-1.5,1.5-1.5h22.2c0.9,0,1.5,0.7,1.5,1.5v19.7
					c0,0.2,0.2,0,0,0c-0.2,0-0.8-0.4-0.8-0.6V14.7c0-0.4-0.3-0.8-0.8-0.8H13.9c-0.4,0-0.8,0.3-0.8,0.8V35c0,0.4,0.3,0.8,0.8,0.8
					h18.4C32.6,35.8,33,36.4,33,36.6C33,36.8,33.2,36.6,33,36.6z"/>
			</g>
		</g>
		<g>
			<g>
				<path class="st3" d="M37.3,17.7H12.8c-0.2,0,0.1-0.2,0.1-0.4c0-0.2-0.3-0.4-0.1-0.4h24.5c0.2,0,0.4,0.2,0.4,0.4
					C37.7,17.6,37.5,17.7,37.3,17.7z"/>
			</g>
		</g>
		<g>
			<g>
				<g>
					<path class="st3" d="M31,29.4c-0.1,0,0.6-0.1,0.2,0.2l-1.4-1.4l-0.1,0.1c-0.2,0.2-0.4,0.2-0.6,0c-0.2-0.2-0.2-0.4,0-0.6
						l0.3-0.3c0.2-0.2,0.4-0.2,0.6,0l1.9,1.9c0.2,0.2,0.1,0.4,0,0.3C31.7,29.4,31.1,29.4,31,29.4z"/>
				</g>
			</g>
			<g>
				<g>
					<path class="st3" d="M29.4,32.1c-0.1,0-0.2,0-0.3-0.1l-1.9-1.9c-0.2-0.2-0.2-0.4,0-0.6l0.3-0.3c0.2-0.2,0.4-0.2,0.6,0
						c0.2,0.2,0.2,0.4,0,0.6l0,0l1.3,1.3c0.2,0.2,0.2,0.4,0,0.6C29.3,31.7,29.5,32.1,29.4,32.1z"/>
				</g>
			</g>
			<g>
				<g>
					<path class="st3" d="M27,30c-0.8,0-1.5-0.3-2.1-0.9c-2.7-2.7-1.5-7.6-1.5-7.8c0-0.2,0.2-0.3,0.3-0.3c0.2,0,0.3,0,0.4,0.2
						c1.3,1.9,2.5,2.5,3.5,2.9c0.5,0.2,1,0.4,1.4,0.8c1.2,1.2,1.2,3.1,0,4.2C28.5,29.7,27.8,30,27,30z M24,22.4
						c-0.2,1.5-0.3,4.4,1.4,6.2c0.4,0.4,1,0.6,1.5,0.6c0.6,0,1.1-0.2,1.5-0.6c0.9-0.9,0.9-2.2,0-3.1c-0.3-0.3-0.7-0.5-1.2-0.7
						C26.4,24.5,25.3,24,24,22.4z"/>
				</g>
			</g>
			<g>
				<g>
					<path class="st3" d="M42,43.5c-0.3,0-0.6-0.1-0.9-0.3c-0.5-0.4-1-0.8-1.7-1.3c-2-1.5-4.8-3.7-6.9-5.7c-2.7-2.5-3.8-4.3-3.5-5.6
						c0-0.1,0.1-0.1,0.1-0.2l1.5-1.5c0.1-0.1,0.2-0.1,0.4-0.1c3.4,0.7,7.8,6.6,10.8,10.6c0.5,0.7,1,1.3,1.3,1.7
						c0.5,0.6,0.4,1.4-0.1,1.9C42.7,43.4,42.4,43.5,42,43.5z M29.7,31c-0.1,0.7,0.4,2,3.3,4.7c2.1,2,4.9,4.1,6.9,5.6
						c0.7,0.5,1.2,0.9,1.7,1.3c0.1,0.1,0.3,0.1,0.4,0.1c0.2,0,0.3-0.1,0.5-0.2c0.2-0.2,0.3-0.6,0.1-0.9c-0.4-0.5-0.8-1.1-1.3-1.8
						c-2.7-3.5-7.1-9.4-10.1-10.2L29.7,31z"/>
				</g>
			</g>
		</g>
		<g>
			<g>
				<path class="st3" d="M21,27h-5.5c-0.2,0-0.4-0.2-0.4-0.4c0-0.2,0.2-0.4,0.4-0.4H21c0.2,0,0.4,0.2,0.4,0.4
					C21.4,26.9,21.2,27,21,27z"/>
			</g>
		</g>
		<g>
			<g>
				<path class="st3" d="M22,28.8h-6.6c-0.2,0-0.4-0.2-0.4-0.4s0.2-0.4,0.4-0.4H22c0.2,0,0.4,0.2,0.4,0.4S22.2,28.8,22,28.8z"/>
			</g>
		</g>
		<g>
			<g>
				<path class="st3" d="M23.1,30.6h-7.7c-0.2,0-0.4-0.2-0.4-0.4c0-0.2,0.2-0.4,0.4-0.4h7.7c0.2,0,0.4,0.2,0.4,0.4
					C23.5,30.4,23.3,30.6,23.1,30.6z"/>
			</g>
		</g>
		<g>
			<g>
				<path class="st3" d="M20.8,25.3h-5.2c-0.2,0-0.4-0.2-0.4-0.4v-1.5c0-0.2,0.2-0.4,0.4-0.4h5.2c0.2,0,0.4,0.2,0.4,0.4v1.5
					C21.2,25.1,21.1,25.3,20.8,25.3z M16,24.5h4.4v-0.7H16V24.5z"/>
			</g>
		</g>
	</g>
	<rect x="28.3" y="19.9" class="st4" width="2.1" height="2.1"/>
	<rect x="32.6" y="19.9" class="st4" width="2.1" height="2.1"/>
	<rect x="32.6" y="24" class="st4" width="2.1" height="2.1"/>
</g>
</svg>
