<svg xmlns="http://www.w3.org/2000/svg" version="1" viewBox="0 0 300 300"><path fill="#00BF5F" d="M290.236 153.274c0 80.142-64.968 145.109-145.109 145.109C64.985 298.383.018 233.416.018 153.275c0-80.142 64.967-145.11 145.109-145.11s145.109 64.968 145.109 145.109"/><path fill="#2B2B2B" d="M134.828 16.295c-5.218-.456-9.818 3.403-10.274 8.621l-20.035 228.997c-.456 5.217 3.404 9.817 8.621 10.274 5.218.456 9.818-3.403 10.274-8.621L143.45 26.569c.456-5.218-3.404-9.818-8.622-10.274z"/><path fill="#EDEDED" d="M299.867 45.814l-10.788 123.302c-.185 2.12-2.561 3.291-4.346 2.127-8.467-5.514-17.113-8.519-25.872-9.858h-.008a71.684 71.684 0 00-3.884-.477c-10.024-.982-20.191.039-30.403 1.847-11.578 2.035-23.227 5.063-34.82 7.273-11.569 2.213-23.067 3.609-34.394 2.409-11.231-1.192-22.286-4.949-33.046-13.001 1.948-22.178 3.889-44.364 5.829-66.535l.001-.008c1.941-22.187 3.881-44.357 5.813-66.537 10.751 8.059 21.806 11.816 33.046 13.009.463.049.918.097 1.382.137 10.873.951 21.91-.429 33.012-2.546l2.223-.434c10.864-2.169 21.756-4.933 32.597-6.847 11.537-2.03 23.021-3.081 34.295-1.361 8.632 1.319 17.147 4.257 25.498 9.616a8.49 8.49 0 013.865 7.884"/><path fill="#2B2B2B" d="M166.997 39.366l-3 34.29c-12.916-2.284-22.386-6.728-32.896-14.686.951-10.872 1.895-21.739 2.847-32.611 10.751 8.057 21.807 11.812 33.043 13.007h.006zm28.465 65.322c-11.65 2.357-22.526 3.633-34.433 2.893l2.968-33.922c11.908.74 22.784-.536 34.433-2.894l-2.968 33.923zm-37.401 36.816c-12.915-2.29-22.385-6.733-32.898-14.691l2.968-33.923c10.513 7.959 19.982 12.402 32.898 14.692l-2.968 33.922zm78.145-111.827l-2.828 32.331c-11.686 2.785-23.267 5.971-34.947 8.757l2.958-33.806c11.591-2.218 23.241-5.243 34.817-7.282m28.639 63.36c-11.893-.738-22.754.53-34.435 2.894l2.968-33.923c11.681-2.364 22.542-3.632 34.435-2.894l-2.968 33.923m-37.402 36.817c-11.684 2.787-23.265 5.969-34.949 8.756l2.968-33.922c11.684-2.788 23.264-5.97 34.948-8.756l-2.967 33.922z"/><path fill="#2B2B2B" d="M299.867 45.811l-2.251 25.734c-9.304-6.558-18.05-10.349-29.804-12.428l2.695-30.804c8.63 1.318 17.147 4.255 25.495 9.614a8.492 8.492 0 013.865 7.884m-5.219 59.654l-2.968 33.921c-9.305-6.551-18.051-10.342-29.805-12.428l2.968-33.921c11.754 2.086 20.5 5.877 29.805 12.428m-102.153 33.148l-2.749 31.414c-11.566 2.212-23.067 3.61-34.391 2.408l2.706-30.931c11.91.741 22.785-.538 34.434-2.891zm69.38-11.655l-3.012 34.43-.013-.001c-11.273-1.717-22.744-.669-34.287 1.366l2.878-32.897c11.682-2.369 22.544-3.637 34.434-2.898"/><path fill="#C9C9C9" d="M299.898 44.941c.004.288-.006.578-.031.869l-2.251 25.734c-9.304-6.557-18.049-10.348-29.802-12.428l-2.968 33.921c11.753 2.086 20.498 5.877 29.803 12.428l-2.968 33.921c-9.305-6.551-18.051-10.342-29.805-12.428l2.968-33.921a108.931 108.931 0 00-6.759-.209c-6.608 0-12.996.598-19.508 1.624 4.245 10.915 7.576 21.899 10.165 32.479 2.108-.12 4.228-.183 6.371-.183 2.226 0 4.475.068 6.764.21l-3.012 34.428c8.759 1.339 17.404 4.345 25.87 9.858a2.781 2.781 0 001.526.459c1.385 0 2.685-1.041 2.82-2.586l10.788-123.302a8.24 8.24 0 00.032-.734l-.003-.14m-72.541-13.545c-7.91 1.652-15.835 3.547-23.746 5.126 7.908-1.575 15.837-3.474 23.746-5.126m.077-.017l-.007.001.007-.001m3.062-.625l-.018.004.018-.004m28.102-3.305c-7.411 0-14.889.906-22.389 2.226a257.82 257.82 0 00-.004.002l-2.828 32.331c-3.108.741-6.208 1.51-9.305 2.292a195.016 195.016 0 017.819 14.7l1.486-16.991c9.433-1.909 18.333-3.103 27.673-3.104 2.225 0 4.473.068 6.761.21l2.694-30.801h-.002c-3.944-.602-7.915-.865-11.905-.865"/><path fill="#242424" d="M236.206 29.677c-1.879.331-3.76.688-5.642 1.063a1.962 1.962 0 01-.067.013l-.018.004c-1.014.202-2.03.41-3.044.622l-.007.001-.07.015c-7.91 1.653-15.839 3.552-23.744 5.128 7.887 8.537 14.659 17.93 20.459 27.776a721.295 721.295 0 019.305-2.292l2.828-32.33m24.844 29.228c-9.339 0-18.239 1.195-27.673 3.104L231.891 79a220.896 220.896 0 016.684 15.452c6.512-1.026 12.9-1.624 19.508-1.624 2.223 0 4.473.068 6.759.21h.002l2.968-33.92h-.002v-.002a108.16 108.16 0 00-6.76-.211"/><path fill="#C9C9C9" d="M254.969 160.903l.001.005c.828.078 1.655.171 2.483.28a74.307 74.307 0 00-2.484-.285"/><path fill="#242424" d="M270.506 28.314l-2.694 30.801v.002h.002c11.753 2.079 20.498 5.87 29.802 12.428l2.251-25.734a8.49 8.49 0 00-3.866-7.88c-8.35-5.359-16.864-8.298-25.495-9.617m-5.663 64.723l-2.968 33.921c11.754 2.086 20.5 5.877 29.805 12.428l2.968-33.921c-9.305-6.551-18.05-10.342-29.803-12.428h-.002m-9.732 33.711c-2.143 0-4.262.063-6.371.183a298.32 298.32 0 016.228 33.972 74.307 74.307 0 013.885.482h.01l3.012-34.428a109.851 109.851 0 00-6.764-.209"/></svg>