<svg xmlns="http://www.w3.org/2000/svg" version="1.0" viewBox="0 0 50 50"><path fill="#FCC34F" d="M46.369 7.991v30.297l-22.14 8.058H8.005a5.394 5.394 0 0 1-5.387-5.396V7.991a5.388 5.388 0 0 1 5.387-5.396h32.968a5.396 5.396 0 0 1 5.396 5.396z"/><path fill="#FDCF72" d="M46.369 7.991v1.757L2.618 25.676V7.991a5.388 5.388 0 0 1 5.387-5.396h32.968a5.396 5.396 0 0 1 5.396 5.396z"/><g fill="#444"><path d="M40.974 1.346H8.006c-3.66 0-6.637 2.981-6.637 6.646v32.959c0 3.665 2.978 6.646 6.637 6.646l7.91-.001 20.421.001.018-.002h.052c.021 0 .039-.011.06-.012.925-.037 1.789-.443 2.327-1.123 1.338-1.684 2.031-3.933 1.902-6.023l-.006-.085-5.297-1.525a16.47 16.47 0 0 0-.394-1.229l-.038-.107c.36-.088.688-.228.864-.404.484-.484.66-1.153.555-1.77a1.938 1.938 0 0 0-.555-1.039 1.996 1.996 0 0 0-1.03-.563 2.016 2.016 0 0 0-1.788.555 1.281 1.281 0 0 0-.211.29l-.133-.049c-.996-.369-2.331-.625-3.96-.764l.191-2.126c1.683-.224 2.835-.959 3.511-2.214v.841a1.072 1.072 0 0 0-.958 1.057 1.083 1.083 0 0 0 2.165 0c0-.552-.422-.992-.957-1.057v-1.384c.051-.132.107-.26.149-.402.172.048.309.041.426-.015.22-.105.302-.356.405-.674.038-.118.08-.246.134-.379.417-.192.785-.214 1.062-.056.237.134.391.398.421.726l.022.25.186-.169c.25-.229.382-.472.392-.724.008-.21-.068-.425-.229-.642 1.114-.244 1.773-.64 2.015-1.206.191-.453.098-1.002-.28-1.637.711-.207 1.091-.474 1.161-.815.083-.4-.286-.81-.689-1.151.632-.121 1.025-.37 1.197-.757.406-.91-.563-2.291-1.419-3.51-.389-.554-.757-1.078-.878-1.417.87-1.866.974-3.433.309-4.66-.908-1.674-3.209-2.746-7.032-3.277-.422-1.115-.999-1.811-1.762-2.126-1.312-.544-2.888.185-4.277.829-.867.401-1.692.786-2.259.752-.755-.059-1.087-.272-1.409-.478-.396-.253-.771-.494-1.784-.408-.871.072-1.954.604-3.002 1.117-1.159.568-2.365 1.166-3.229 1.104-.201-.008-.478-.088-.797-.181-.901-.26-2.137-.618-3.16.209l-.248.2.318.021c.95.064 1.331.704 1.699 1.322.3.503.597 1.01 1.228.987-1.298 2.597-1.649 4.235-1.105 5.145.3.503.877.78 1.716.825-.13.753-.51 1.614-2.021 1.963l-.356.082.332.153c.804.37 1.553.315 2.388-.186-.857 2.208-.802 4.215.167 5.552.764 1.055 2.054 1.593 3.687 1.551-.379.351-.284.662-.199.943.077.254.144.473-.078.769l-.156.208.26-.008c.652-.02.849-.443 1.007-.785.136-.292.226-.465.475-.458-.021.47.122.854.417 1.119.396.353 1.051.468 1.804.317.431.36.848.603 1.246.743v.398a1.295 1.295 0 0 0-1.18 1.28 1.306 1.306 0 0 0 2.61 0c0-.675-.522-1.214-1.18-1.28V29.7c.632.15 1.207.017 1.687-.424.522.955.797 2.338.864 4.315-2.864.027-4.94.648-6.351 1.922-.51.713-.837 2.075-1.208 3.783l-5.113 1.386.02.108c.265 1.487.981 3.009 1.954 4.305H8.009a4.146 4.146 0 0 1-4.137-4.146V7.992a4.146 4.146 0 0 1 4.137-4.146h32.968a4.15 4.15 0 0 1 4.146 4.146v30.296a1.25 1.25 0 0 0 2.5 0V7.992c-.003-3.664-2.984-6.646-6.649-6.646zm-9.662 35.697l.136-.117c.224-.17.502-.381.682-.626.229-.283.302-.6.365-.879l.051-.203c.048-.189.094-.368.185-.528l.071-.127c.324.123.622.254.876.412.378.29.875 1.425 1.28 2.516l-.107.03c-1.242.346-3.095.189-3.743-.298.056-.056.144-.129.204-.18zm2.052-5.738a.833.833 0 0 1-1.665 0 .833.833 0 0 1 1.665 0zm-2.38-15.342c.299.461.344 1.05.29 1.583-3.836-1.384-7.374-.344-10.821 1.384 1.664-3.989 7.192-6.839 10.531-2.967zM29.77 20.81c-.148.534-.482.872-.903.901-.54.033-1.09-.426-1.399-1.181-.005-.011-.335-.843-.254-1.615l.003-.03c.013-.104.037-.206.067-.306.009-.03.018-.061.029-.09.041-.11.09-.216.159-.311a.525.525 0 0 1 .134-.128.867.867 0 0 1 .387-.134h.003c.14-.017.304-.003.473.023.039.006.078.007.117.015.066.014.13.033.195.052a2.272 2.272 0 0 1 .474.197c.072.041.141.082.198.127.017.014.028.029.044.043a.844.844 0 0 1 .135.142.722.722 0 0 1 .098.208c.012.025.019.05.024.075l.01.039c.004.016.007.032.01.038.018.086.034.172.044.27.035.312.025.676.017.963-.009.126-.017.242-.025.333a.71.71 0 0 0-.01.148l-.028.216-.002.005zm-7.683 10.5a1.056 1.056 0 1 1-2.112-.002 1.056 1.056 0 0 1 2.112.002zm.892-2.3l-.085-.142-.004.004a3.361 3.361 0 0 0-.504-.659l-.043-.042-.06.008a4.814 4.814 0 0 1-1.264-.021c-1.386-.244-1.959-1.206-2.029-1.955-.053-.561.163-1.033.53-1.172.965-.304 1.946.879 1.956.892l.057.069.084-.031c.41-.153.691-.396.834-.72.181-.407.149-.93-.095-1.596 1.286-.316 1.857-1.146 1.743-2.527.397-.021.688-.163.87-.424.741.483 1.506.487 2.329.042.348.76.908 1.227 1.505 1.227.028 0 .056-.001.083-.003.48-.034.857-.378 1.059-.913.521.628 1.158.789 1.902.446.72 1.885 1.188 5.006.751 6.782l.004.001a5.72 5.72 0 0 1-.179.518h-.014v.04c-.602 1.507-1.77 2.327-3.641 2.552l-.101.012-.21 2.326h-.001l-.113 1.252-.028.009c-.046.017-.103.027-.152.042-.595.177-1.564.224-2.627.12a28.843 28.843 0 0 1-.6-.081 6.243 6.243 0 0 1-.646-.141 1.791 1.791 0 0 1-.292-.113v-1.223h-.04c-.072-2.122-.382-3.582-.979-4.579z"/><path d="M42.495 27.139c-3.663 3.073-3.876 2.976-7.411 6.314.373.098.707.295.992.58s.491.628.579 1.011c3.339-3.515 3.179-3.811 6.243-7.503.108-.108.118-.294.01-.402a.294.294 0 0 0-.413 0z"/></g></svg>