<?xml version="1.0" encoding="utf-8"?>
<!-- Generator: Adobe Illustrator 22.0.1, SVG Export Plug-In . SVG Version: 6.00 Build 0)  -->
<svg version="1.1" id="Layer_1" xmlns="http://www.w3.org/2000/svg" xmlns:xlink="http://www.w3.org/1999/xlink" x="0px" y="0px"
	 viewBox="0 0 50 50" style="enable-background:new 0 0 50 50;" xml:space="preserve">
<style type="text/css">
	.st0{fill:#E097FB;}
	.st1{fill:#CE87EA;}
	.st2{fill:#464646;}
	.st3{fill:none;stroke:#464646;stroke-miterlimit:10;}
	.st4{fill:#444444;}
	.st5{fill:none;stroke:#464646;stroke-width:2.5;stroke-linecap:round;stroke-miterlimit:10;}
</style>
<g>
	<g>
		<path class="st0" d="M38.9,7.4c-1.1-2.3-2.2-3.9-3.3-4.7L35,2.2l-0.5,0.6c-1,1.3-1.9,2.3-2.5,3.2c-0.8,1.1-1.5,2.2-2.1,3.2
			c-1.2,2.2-2,4.3-2.3,6.5c-0.7-0.1-1.3-0.1-2-0.1c-1.1,0-2.1,0.2-3.1,0.4c-0.4-2.2-1.3-4.4-2.7-6.5c-0.6-1-1.4-2-2.3-3
			c-0.7-0.8-1.6-1.8-2.7-3L14.3,3l-0.6,0.5c-1.1,0.9-2.1,2.6-3,4.9c-0.9,2.2-1.6,4.6-2.1,7.3c-0.5,2.7-0.8,5.1-0.7,7.3
			c0,1.1,0.1,2.1,0.3,2.9l32.9-12C40.6,11.5,39.8,9.3,38.9,7.4z"/>
	</g>
	<g>
		<path class="st1" d="M43.8,31c-0.5-1.7-1.2-3.4-2-5.1c0.6-1.1,0.9-2.8,0.8-5.1c-0.1-2.2-0.5-4.6-1.1-7.3c-0.1-0.2-0.1-0.5-0.2-0.7
			l-32.9,12c0.1,0.7,0.3,1.3,0.6,1.7c-1.1,2.1-1.8,4.2-2.2,6.3l-3,2.1l1.4,1.7L4,37.8l0.6,0.7c1.7,2,2.9,3.5,3.8,4.3
			c0.3,0.3,0.6,0.6,0.9,0.8L44,31L43.8,31z"/>
	</g>
	<g>
		<path class="st2" d="M30.3,17.4"/>
	</g>
	<g>
		<polygon class="st2" points="30.2,17.9 30.1,17.9 30.5,17 30.6,17 		"/>
	</g>
	<g>
		<path class="st3" d="M37.8,23.1"/>
	</g>
	<g transform="matrix( 1, 0, 0, 1, -149.95,-236.55) ">
		<g>
			<g id="mc4_shape66_0_Layer0_0_MEMBER_1_MEMBER_6_FILL_1_">
				<g>
					<path class="st2" d="M182,278.2c-1.2,0-2.2-0.4-3.1-1.3c-0.9-0.9-1.4-2-1.4-3.2s0.4-2.4,1.2-3.3c0.9-0.9,1.9-1.4,3.2-1.5
						c1.2,0,2.3,0.4,3.2,1.3s1.4,2,1.4,3.2s-0.4,2.4-1.2,3.3C184.4,277.6,183.4,278.1,182,278.2C182.1,278.2,182.1,278.2,182,278.2z
						 M182.1,269.7H182c-1,0-1.9,0.4-2.6,1.2c-0.7,0.8-1.1,1.7-1,2.8s0.4,2,1.2,2.7s1.6,1.1,2.7,1.1c1,0,1.9-0.4,2.6-1.2
						c0.7-0.8,1.1-1.7,1-2.8c0-1.1-0.4-2-1.2-2.7C183.9,270,183,269.7,182.1,269.7z"/>
				</g>
			</g>
		</g>
	</g>
	<g transform="matrix( 1, 0, 0, 1, -149.95,-236.55) ">
		<g>
			<g id="mc4_shape66_0_Layer0_0_MEMBER_1_MEMBER_7_FILL_1_">
				<g>
					<path class="st2" d="M161.5,278.8c-1.1,0-2-0.4-2.8-1.2c-0.8-0.9-1.3-1.9-1.3-3.1s0.3-2.3,1.1-3.2c0.8-0.9,1.8-1.4,2.9-1.4
						c1.1,0,2.1,0.4,3,1.2c0.8,0.9,1.3,1.9,1.3,3.1s-0.3,2.3-1.1,3.2c-0.8,0.9-1.8,1.4-2.9,1.4C161.6,278.8,161.5,278.8,161.5,278.8
						z M161.5,270.5h-0.1l0,0c-0.9,0-1.7,0.4-2.3,1.2c-0.7,0.8-1,1.7-0.9,2.7c0,1,0.4,1.9,1.1,2.6c0.7,0.7,1.5,1,2.4,1
						s1.7-0.4,2.4-1.2c0.7-0.8,1-1.7,0.9-2.7c0-1-0.4-1.9-1.1-2.6C163.1,270.9,162.4,270.5,161.5,270.5z"/>
				</g>
			</g>
		</g>
	</g>
	<g>
		<path class="st4" d="M33.6,35c-0.6-0.6-1.4-0.9-2.2-0.9c-0.9,0-1.6,0.4-2.2,1s-0.9,1.4-0.8,2.3c0,0.9,0.4,1.6,1,2.2
			c0.6,0.6,1.4,0.9,2.2,0.9c0.9,0,1.6-0.4,2.2-1c0.6-0.6,0.9-1.4,0.9-2.3C34.6,36.3,34.2,35.6,33.6,35z M31.5,37.1
			c-0.3,0.3-0.6,0.4-1,0.5c-0.4,0-0.7-0.1-1-0.4c-0.3-0.3-0.4-0.6-0.4-1s0.1-0.8,0.4-1c0.3-0.3,0.6-0.5,1-0.5s0.7,0.1,1,0.4
			c0.3,0.3,0.4,0.6,0.4,1S31.8,36.8,31.5,37.1z M33.5,39.3c-0.1,0.2-0.3,0.3-0.6,0.3c-0.2,0-0.4-0.1-0.6-0.2
			c-0.2-0.2-0.2-0.3-0.3-0.6c0-0.2,0.1-0.4,0.2-0.6c0.1-0.2,0.3-0.3,0.6-0.3c0.2,0,0.4,0.1,0.6,0.2c0.2,0.2,0.2,0.3,0.3,0.6
			C33.7,39,33.7,39.2,33.5,39.3z"/>
	</g>
	<g>
		<path class="st4" d="M13.7,35c-0.6-0.6-1.4-0.9-2.2-0.9c-0.9,0-1.6,0.4-2.2,1c-0.6,0.6-0.9,1.4-0.8,2.3c0,0.9,0.4,1.6,1,2.2
			c0.6,0.6,1.4,0.9,2.2,0.9c0.9,0,1.6-0.4,2.2-1c0.6-0.6,0.9-1.4,0.9-2.3C14.6,36.3,14.3,35.6,13.7,35z M11.6,37.1
			c-0.3,0.3-0.6,0.4-1,0.5c-0.4,0-0.7-0.1-1-0.4c-0.3-0.3-0.4-0.6-0.4-1s0.1-0.8,0.4-1c0.3-0.3,0.6-0.5,1-0.5s0.7,0.1,1,0.4
			c0.3,0.3,0.4,0.6,0.4,1S11.8,36.8,11.6,37.1z M13.6,39.3c-0.1,0.2-0.3,0.3-0.6,0.3c-0.2,0-0.4-0.1-0.6-0.2
			c-0.2-0.2-0.2-0.3-0.3-0.6c0-0.2,0.1-0.4,0.2-0.6c0.1-0.2,0.3-0.3,0.6-0.3c0.2,0,0.4,0.1,0.6,0.2c0.2,0.2,0.2,0.3,0.3,0.6
			C13.8,39,13.7,39.2,13.6,39.3z"/>
	</g>
	<g transform="matrix( 1, 0, 0, 1, -149.95,-236.55) ">
		<g>
			<g id="mc4_shape66_0_Layer0_0_MEMBER_1_MEMBER_9_FILL_1_">
				<g>
					<path class="st4" d="M181.8,264.8c-0.6-0.1-1.3,0-2.1,0.2s-1.4,0.6-1.8,1.1s-0.6,0.9-0.5,1.3s0.5,0.6,1.1,0.7s1.3,0,2.1-0.2
						s1.4-0.6,1.8-1.1c0.5-0.5,0.6-0.9,0.5-1.3C182.8,265.2,182.4,264.9,181.8,264.8z"/>
				</g>
			</g>
		</g>
	</g>
	<g transform="matrix( 1, 0, 0, 1, -149.95,-236.55) ">
		<g>
			<g id="mc4_shape66_0_Layer0_0_MEMBER_1_MEMBER_10_FILL_1_">
				<g>
					<path class="st4" d="M164.8,266.5c-0.5-0.4-1.1-0.7-1.9-0.9c-0.8-0.2-1.5-0.2-2.1-0.1s-1,0.4-1.1,0.8s0.1,0.8,0.6,1.2
						c0.5,0.4,1.1,0.7,1.9,0.9c0.8,0.2,1.5,0.2,2.1,0.1s1-0.4,1.1-0.8C165.4,267.4,165.2,266.9,164.8,266.5z"/>
				</g>
			</g>
		</g>
	</g>
	<g>
		<path class="st4" d="M21,39.3C21,39.3,21,39.4,21,39.3L21,39.3c-0.1-0.1-0.2-0.1-0.3-0.2L20.6,39l0,0c0,0,0,0-0.1,0
			c-0.1-0.1-0.2-0.1-0.4-0.2c-0.1,0-0.2,0-0.2,0c-0.1,0-0.2,0-0.3-0.1c-0.3,0-0.5-0.1-0.8-0.1c-0.7,0-1.2,0.2-1.7,0.4
			c-0.4,0.3-0.6,0.5-0.7,0.9V40c0,0.1,0,0.3,0.1,0.4l0,0c0.1,0.1,0.2,0.2,0.3,0.3l0,0l0,0c0.1,0.1,0.2,0.1,0.3,0.2
			c0.5,0.2,1.1,0.4,1.7,0.3c0.7,0,1.2-0.2,1.7-0.4s0.7-0.6,0.7-1C21.3,39.7,21.2,39.5,21,39.3z"/>
	</g>
	<path class="st4" d="M38.4,23v-0.1h-0.3l0.1-0.1h0.2h-0.2l0,0h0.2c-0.1-1.8-0.3-3.9-0.7-6.2c-0.7-4-1.6-6.7-2.6-8.3l-0.4-0.6
		l-0.4,0.5c-1.3,1.6-2.4,3.4-3.1,5.2c-0.5,1.1-0.9,2.5-1.3,4.3l0.5,0.1v0.1c0.4,0.1,0.7,0.3,1.1,0.5c1.7,0.9,3.4,2.1,4.9,3.7
		c0.3,0.4,0.7,0.7,1,1.1l0.1,0.2L38,23L38.4,23z M37,21.4c-1.6-1.7-3.4-3-5.2-3.9c-0.3-0.1-0.5-0.2-0.8-0.4c0.3-1.3,0.7-2.4,1.1-3.3
		c0.6-1.6,1.5-3,2.5-4.4c0.8,1.5,1.5,4,2.1,7.3c0.3,1.8,0.5,3.5,0.6,5C37.2,21.7,37.1,21.6,37,21.4z"/>
	<g>
		<path class="st5" d="M44.7,32.2"/>
	</g>
	<g>
		<path class="st5" d="M47.7,38.2"/>
	</g>
	<g>
		<path class="st2" d="M18.8,42.9c-0.2,0-0.4-0.2-0.4-0.4v-1.4c0-0.2,0.2-0.4,0.4-0.4s0.4,0.2,0.4,0.4v1.4
			C19.2,42.7,19.1,42.9,18.8,42.9z"/>
	</g>
	<g>
		<path class="st2" d="M17.5,43.6c-0.1,0-0.3-0.1-0.3-0.2c-0.1-0.2,0-0.4,0.2-0.5l1.3-0.6c0.2-0.1,0.4,0,0.5,0.2s0,0.4-0.2,0.5
			l-1.3,0.6C17.6,43.6,17.6,43.6,17.5,43.6z"/>
	</g>
	<g>
		<path class="st2" d="M20.9,43.7h-0.1l-2.1-0.9c-0.2-0.1-0.3-0.3-0.2-0.5c0.1-0.2,0.3-0.3,0.5-0.2l2.1,0.9c0.2,0.1,0.3,0.3,0.2,0.5
			C21.2,43.6,21.1,43.7,20.9,43.7z"/>
	</g>
	<path class="st4" d="M45.4,31.1L45.2,31c-0.4-1.4-1-2.8-1.7-4.3c0.5-1.3,0.7-2.9,0.7-5.1c-0.1-2.3-0.5-4.8-1.2-7.5
		s-1.6-5.2-2.6-7.4c-1.2-2.5-2.4-4.2-3.7-5.2l-1.5-1.2L34,1.8c-1,1.3-1.9,2.3-2.5,3.2c-0.9,1.2-1.6,2.3-2.2,3.3
		c-1.1,1.9-1.8,3.8-2.2,5.8c-0.3,0-0.7,0-1,0c-0.7,0-1.4,0.1-2.1,0.2c-0.5-2-1.4-3.9-2.6-5.7c-0.6-1-1.4-2-2.4-3.2
		c-0.7-0.8-1.6-1.8-2.7-3L14.9,1l-1.5,1.3c-1.2,1.1-2.3,2.8-3.3,5.4c-0.9,2.3-1.6,4.8-2.2,7.6c-0.5,2.8-0.8,5.3-0.7,7.6
		c0,1.9,0.3,3.4,0.8,4.6c-1,1.7-1.6,3.6-2,5.5l-3.7,2.6l1.5,1.8l-1.2,1.2L4,40.2c1.7,2.1,3,3.5,3.8,4.4c1.4,1.4,2.8,2.5,4.2,3.2
		c1.6,0.9,3.5,1.4,5.6,1.7c1,0.1,2,0.2,3.2,0.2c1.4,0,2.8-0.1,4.4-0.2c3.2-0.3,5.8-0.7,7.7-1.1c2.2-0.4,4.1-1,5.7-1.8
		c1.6-0.7,3.2-1.7,4.9-2.9c0.5-0.4,0.7-1.2,0.2-1.8c-0.4-0.6-1.2-0.7-1.8-0.2c-1.5,1.1-2.9,2-4.4,2.6c-1.5,0.7-3.2,1.2-5.2,1.6
		c-1.8,0.4-4.3,0.7-7.4,1.1c-2.8,0.3-5.1,0.3-7.1,0.1c-1.8-0.2-3.4-0.7-4.7-1.4c-0.9-0.5-1.9-1.1-2.8-2c0.2,0.1,0.3,0.1,0.5,0.1
		s0.5,0.1,0.7,0.1c1.5,0,2.8-0.9,4-2.6c1.4-2,2.3-5.1,2.9-9.1l0.5,0.7l1.2-1.5l1.8,1.2l1-1c1.2,4.3,2.8,7.5,4.8,9.4
		c1.9,1.8,4.1,2.5,6.5,2c2-0.4,4.1-1.6,6.1-3.5c1.6-1.5,2.9-3.3,3.9-5.2c0.1-0.2,0-0.6-0.2-0.7c-0.2-0.1-0.6,0-0.7,0.2
		c-0.9,1.8-2.2,3.5-3.7,4.9c-1.8,1.8-3.7,2.9-5.6,3.2c-2.1,0.4-3.9-0.1-5.6-1.7c-2-1.9-3.6-5.2-4.7-9.7l-0.2-0.8l-1.7,1.6L20,30
		l-1,1.2l-1.3-1.7l-0.1,1.3c-0.5,4.5-1.4,7.8-2.9,9.9c-1.1,1.6-2.3,2.3-3.7,2.1c-0.6-0.1-1.1-0.4-1.6-0.8c-0.5-0.4-0.9-1-1.2-1.7
		c-0.7-1.6-0.8-3.2-0.1-4.9c0.1-0.2,0-0.5-0.3-0.6l0.4-0.3L8.3,34c0.4-2,1.1-4,2.1-6l0.1-0.1l0,0c1-1.8,2.2-3.5,3.6-5
		c1.5-1.6,3.2-3,5-4c0.2-0.1,0.3-0.2,0.5-0.3c2.1-1.1,4.3-1.7,6.5-1.7c0.9,0,1.9,0.1,2.9,0.3l0.1-0.4l0,0l0.1-0.6l0,0l0,0l0.1-0.6
		c0.3-2,1-4.1,2.1-6c0.5-0.9,1.2-2,2-3.1c0.6-0.7,1.3-1.7,2.1-2.7c0.8,0.8,1.7,2.1,2.6,4c1,2,1.8,4.4,2.5,7c0.6,2.6,1,4.9,1.1,7
		c0.1,2.6-0.3,3.8-0.6,4.4l-0.3,0.6l0.3,0.6c0.9,1.6,1.5,3.2,1.9,4.8l0.1,0.5l1,0.6c0.6,0.4,1.4,0.2,1.7-0.4
		C46.1,32.3,46,31.5,45.4,31.1z M6.6,38.1c0,0.7,0.2,1.3,0.4,1.9c-0.3-0.4-0.7-0.8-1.1-1.3L6.6,38.1z M6.7,36.9L6,36l1-0.7
		C6.9,35.8,6.7,36.4,6.7,36.9z M18.6,18c-1.9,1-3.6,2.4-5.3,4.1c-0.7,0.7-1.4,1.5-2,2.4C11.2,22,11.4,19,12,15.4
		c0.5-3.7,1.1-6.2,1.8-7.6c0.9,1.1,2,3,3.3,5.6c0.7,1.5,1.3,2.9,1.8,4.2v0.1c0,0,0,0.1,0.1,0.1C18.9,17.9,18.7,18,18.6,18z
		 M19.8,17.5c0-0.1,0-0.1,0-0.2c-0.4-1.3-1-2.7-1.8-4.3c-1.5-3.2-2.8-5.3-3.9-6.4l-0.4-0.4l-0.3,0.5c-0.8,1.4-1.6,4.2-2.2,8.6
		c-0.6,3.9-0.8,7.2-0.6,9.8c0,0.2,0,0.4,0,0.7c0,0,0,0,0,0.1c-0.1,0.2-0.2,0.3-0.3,0.5c-0.3-0.9-0.5-2.1-0.6-3.6
		c0-2.1,0.2-4.5,0.7-7.1s1.2-5,2-7.1c0.8-1.9,1.5-3.3,2.3-4.1c0.9,1,1.7,1.9,2.3,2.6c0.9,1,1.6,2,2.2,2.9c1.3,2,2.1,4,2.5,6l0.1,0.7
		C21.2,16.9,20.5,17.1,19.8,17.5z"/>
</g>
</svg>
