<?xml version="1.0" encoding="utf-8"?>
<!-- Generator: Adobe Illustrator 24.0.0, SVG Export Plug-In . SVG Version: 6.00 Build 0)  -->
<svg version="1.1" id="Layer_1" xmlns="http://www.w3.org/2000/svg" xmlns:xlink="http://www.w3.org/1999/xlink" x="0px" y="0px"
	 viewBox="0 0 50 50" style="enable-background:new 0 0 50 50;" xml:space="preserve">
<style type="text/css">
	.st0{fill:#FDCF72;}
	.st1{fill:#FCC34F;}
	.st2{fill:#444444;}
</style>
<g>
	<polygon class="st0" points="43.3,32 43.4,34.6 12.7,42.9 12.5,36.4 6.7,35.9 6.8,31.4 7.3,29.6 26.9,30.1 42.1,29.7 	"/>
</g>
<g>
	<polygon class="st1" points="37.1,36.1 36.6,43.3 22.5,48.4 13.2,47.4 12.6,42.1 12.6,39.7 41.6,29.1 42.9,30.2 43,35 	"/>
</g>
<g>
	<g>
		<path class="st2" d="M43,28.4H25.9v-3.6h0.3c4.9,0,8.9-4,8.9-8.9v-3.1c0-0.7-0.5-1.2-1.2-1.2h-1.5c-2.5,0-4.8,1-6.4,2.7V2.1
			c0-0.7-0.6-1.2-1.2-1.2s-1.2,0.6-1.2,1.2v4.5C21.8,5,19.5,3.9,17,3.9h-1.5c-0.7,0-1.2,0.6-1.2,1.2v3.1c0,4.9,4,8.9,8.9,8.9h0.3
			v11.3H6.2C5.5,28.4,5,29,5,29.7v6.1C5,36.5,5.5,37,6.2,37h4.9v11c0,0.7,0.6,1.2,1.2,1.2h9.1c0.7,0,1.2-0.6,1.2-1.2
			s-0.6-1.2-1.2-1.2h-7.9V37h22v9.8h-4.8c-0.7,0-1.2,0.6-1.2,1.2s0.6,1.2,1.2,1.2h6.1c0.7,0,1.2-0.6,1.2-1.2V37H43
			c0.7,0,1.2-0.6,1.2-1.2v-6.1C44.2,29,43.7,28.4,43,28.4z M25.9,20.5c0-3.5,2.9-6.4,6.4-6.4h0.3v1.8c0,3.5-2.9,6.4-6.4,6.4h-0.3
			V20.5z M23.1,14.7c-3.5,0-6.4-2.9-6.4-6.4V6.4H17c3.5,0,6.4,2.9,6.4,6.4v1.8H23.1z M41.7,34.5H7.5v-3.6h34.2V34.5z"/>
	</g>
</g>
<g>
	<path class="st2" d="M32.8,44.3H22.1c-0.4,0-0.8-0.3-0.8-0.8s0.3-0.8,0.8-0.8h10.6c0.4,0,0.8,0.3,0.8,0.8S33.2,44.3,32.8,44.3z"/>
</g>
<g>
	<path class="st2" d="M25.4,41.1h-8.6c-0.4,0-0.8-0.3-0.8-0.8s0.3-0.8,0.8-0.8h8.6c0.4,0,0.8,0.3,0.8,0.8S25.8,41.1,25.4,41.1z"/>
</g>
</svg>
