<?xml version="1.0" encoding="utf-8"?>
<!-- Generator: Adobe Illustrator 26.5.0, SVG Export Plug-In . SVG Version: 6.00 Build 0)  -->
<svg version="1.1" id="Camada_1" xmlns="http://www.w3.org/2000/svg" xmlns:xlink="http://www.w3.org/1999/xlink" x="0px" y="0px"
	 viewBox="0 0 50 50" style="enable-background:new 0 0 50 50;" xml:space="preserve">
<style type="text/css">
	.st0{fill:#AFE55D;}
	.st1{fill:#C3FF68;}
	.st2{fill:#494949;}
</style>
<g>
	<path class="st0" d="M44.9,4.2v14L43,18.9l-12.3,4.5l-6,2.2l4.4-3.2c0.1-0.1,0.1-0.1,0.1-0.2s0-0.1-0.1-0.2l-8.1-5.9
		c-0.1,0-0.1,0-0.1,0c0,0-0.1,0-0.1,0c-0.1,0-0.1,0.1-0.1,0.2V27l-1.8,0.7L7,32l-1.8,0.7V14.9L7,14.2L40.4,2.1l2.2-0.8l0,0l0,0
		L44.2,2C44.6,2.6,44.9,3.4,44.9,4.2z"/>
	<path class="st1" d="M44.9,4.2v2L43,6.8l-21.3,7.6l-2.7,0.9L7,19.7l-1.8,0.7V4.2C5.1,3,5.6,2,6.4,1.3l28.5-0.2l7.6,0.2h0l1,0
		C43.8,1.5,44,1.7,44.2,2C44.6,2.6,44.9,3.4,44.9,4.2z"/>
	<path class="st2" d="M17.1,37.8c-1.5,0-2.8,1-3.2,2.3h-1.6c-0.5,0-0.9,0.4-0.9,0.9s0.4,0.9,0.9,0.9h1.6c0.4,1.4,1.7,2.3,3.2,2.3
		c1.8,0,3.3-1.5,3.3-3.3S18.9,37.8,17.1,37.8z M17.1,42.5c-0.8,0-1.5-0.6-1.5-1.4s0.7-1.4,1.5-1.4c0.8,0,1.5,0.6,1.5,1.4
		S17.9,42.5,17.1,42.5z M36.5,40.2h-0.6c-0.5,0-0.9,0.4-0.9,0.9s0.4,0.9,0.9,0.9h0.6c0.5,0,0.9-0.4,0.9-0.9S37,40.2,36.5,40.2z
		 M32.2,40.2h-0.6c-0.5,0-0.9,0.4-0.9,0.9s0.4,0.9,0.9,0.9h0.6c0.5,0,0.9-0.4,0.9-0.9S32.7,40.2,32.2,40.2z M23.7,40.2H23
		c-0.5,0-0.9,0.4-0.9,0.9S22.5,42,23,42h0.6c0.5,0,0.9-0.4,0.9-0.9S24.2,40.2,23.7,40.2z M27.9,40.2h-0.6c-0.5,0-0.9,0.4-0.9,0.9
		s0.4,0.9,0.9,0.9h0.6c0.5,0,0.9-0.4,0.9-0.9S28.5,40.2,27.9,40.2z M30.3,20.5l-8.1-5.8c-0.1-0.1-0.3-0.2-0.4-0.2
		c-0.6-0.2-1.2-0.2-1.8,0.1c-0.4,0.2-0.7,0.5-0.9,0.9c-0.1,0.3-0.2,0.6-0.2,0.9V28c0,0.8,0.4,1.5,1.1,1.8c0.3,0.2,0.6,0.2,1,0.2
		c0.4,0,0.8-0.1,1.2-0.4l8.1-5.9c0.2-0.1,0.4-0.3,0.5-0.5c0.2-0.3,0.4-0.7,0.4-1.2C31.1,21.5,30.8,20.9,30.3,20.5z M21.1,28.2
		c-0.1,0.1-0.2,0-0.3,0c-0.1,0-0.1-0.1-0.1-0.2V16.3c0-0.1,0-0.1,0.1-0.2c0,0,0.1,0,0.1,0c0,0,0.1,0,0.1,0l8.1,5.9
		c0.1,0.1,0.1,0.1,0.1,0.2s0,0.1-0.1,0.2l-4.4,3.2L21.1,28.2z M36.5,40.2h-0.6c-0.5,0-0.9,0.4-0.9,0.9s0.4,0.9,0.9,0.9h0.6
		c0.5,0,0.9-0.4,0.9-0.9S37,40.2,36.5,40.2z M32.2,40.2h-0.6c-0.5,0-0.9,0.4-0.9,0.9s0.4,0.9,0.9,0.9h0.6c0.5,0,0.9-0.4,0.9-0.9
		S32.7,40.2,32.2,40.2z M30.3,20.5l-8.1-5.8c-0.1-0.1-0.3-0.2-0.4-0.2c-0.6-0.2-1.2-0.2-1.8,0.1c-0.4,0.2-0.7,0.5-0.9,0.9
		c-0.1,0.3-0.2,0.6-0.2,0.9V28c0,0.8,0.4,1.5,1.1,1.8c0.3,0.2,0.6,0.2,1,0.2c0.4,0,0.8-0.1,1.2-0.4l8.1-5.9c0.2-0.1,0.4-0.3,0.5-0.5
		c0.2-0.3,0.4-0.7,0.4-1.2C31.1,21.5,30.8,20.9,30.3,20.5z M21.1,28.2c-0.1,0.1-0.2,0-0.3,0c-0.1,0-0.1-0.1-0.1-0.2V16.3
		c0-0.1,0-0.1,0.1-0.2c0,0,0.1,0,0.1,0c0,0,0.1,0,0.1,0l8.1,5.9c0.1,0.1,0.1,0.1,0.1,0.2s0,0.1-0.1,0.2l-4.4,3.2L21.1,28.2z
		 M27.9,40.2h-0.6c-0.5,0-0.9,0.4-0.9,0.9s0.4,0.9,0.9,0.9h0.6c0.5,0,0.9-0.4,0.9-0.9S28.5,40.2,27.9,40.2z M23.7,40.2H23
		c-0.5,0-0.9,0.4-0.9,0.9S22.5,42,23,42h0.6c0.5,0,0.9-0.4,0.9-0.9S24.2,40.2,23.7,40.2z M17.1,37.8c-1.5,0-2.8,1-3.2,2.3h-1.6
		c-0.5,0-0.9,0.4-0.9,0.9s0.4,0.9,0.9,0.9h1.6c0.4,1.4,1.7,2.3,3.2,2.3c1.8,0,3.3-1.5,3.3-3.3S18.9,37.8,17.1,37.8z M17.1,42.5
		c-0.8,0-1.5-0.6-1.5-1.4s0.7-1.4,1.5-1.4c0.8,0,1.5,0.6,1.5,1.4S17.9,42.5,17.1,42.5z M17.1,37.8c-1.5,0-2.8,1-3.2,2.3h-1.6
		c-0.5,0-0.9,0.4-0.9,0.9s0.4,0.9,0.9,0.9h1.6c0.4,1.4,1.7,2.3,3.2,2.3c1.8,0,3.3-1.5,3.3-3.3S18.9,37.8,17.1,37.8z M17.1,42.5
		c-0.8,0-1.5-0.6-1.5-1.4s0.7-1.4,1.5-1.4c0.8,0,1.5,0.6,1.5,1.4S17.9,42.5,17.1,42.5z M23.7,40.2H23c-0.5,0-0.9,0.4-0.9,0.9
		S22.5,42,23,42h0.6c0.5,0,0.9-0.4,0.9-0.9S24.2,40.2,23.7,40.2z M27.9,40.2h-0.6c-0.5,0-0.9,0.4-0.9,0.9s0.4,0.9,0.9,0.9h0.6
		c0.5,0,0.9-0.4,0.9-0.9S28.5,40.2,27.9,40.2z M30.3,20.5l-8.1-5.8c-0.1-0.1-0.3-0.2-0.4-0.2c-0.6-0.2-1.2-0.2-1.8,0.1
		c-0.4,0.2-0.7,0.5-0.9,0.9c-0.1,0.3-0.2,0.6-0.2,0.9V28c0,0.8,0.4,1.5,1.1,1.8c0.3,0.2,0.6,0.2,1,0.2c0.4,0,0.8-0.1,1.2-0.4
		l8.1-5.9c0.2-0.1,0.4-0.3,0.5-0.5c0.2-0.3,0.4-0.7,0.4-1.2C31.1,21.5,30.8,20.9,30.3,20.5z M21.1,28.2c-0.1,0.1-0.2,0-0.3,0
		c-0.1,0-0.1-0.1-0.1-0.2V16.3c0-0.1,0-0.1,0.1-0.2c0,0,0.1,0,0.1,0c0,0,0.1,0,0.1,0l8.1,5.9c0.1,0.1,0.1,0.1,0.1,0.2s0,0.1-0.1,0.2
		l-4.4,3.2L21.1,28.2z M32.2,40.2h-0.6c-0.5,0-0.9,0.4-0.9,0.9s0.4,0.9,0.9,0.9h0.6c0.5,0,0.9-0.4,0.9-0.9S32.7,40.2,32.2,40.2z
		 M36.5,40.2h-0.6c-0.5,0-0.9,0.4-0.9,0.9s0.4,0.9,0.9,0.9h0.6c0.5,0,0.9-0.4,0.9-0.9S37,40.2,36.5,40.2z M36.5,40.2h-0.6
		c-0.5,0-0.9,0.4-0.9,0.9s0.4,0.9,0.9,0.9h0.6c0.5,0,0.9-0.4,0.9-0.9S37,40.2,36.5,40.2z M32.2,40.2h-0.6c-0.5,0-0.9,0.4-0.9,0.9
		s0.4,0.9,0.9,0.9h0.6c0.5,0,0.9-0.4,0.9-0.9S32.7,40.2,32.2,40.2z M30.3,20.5l-8.1-5.8c-0.1-0.1-0.3-0.2-0.4-0.2
		c-0.6-0.2-1.2-0.2-1.8,0.1c-0.4,0.2-0.7,0.5-0.9,0.9c-0.1,0.3-0.2,0.6-0.2,0.9V28c0,0.8,0.4,1.5,1.1,1.8c0.3,0.2,0.6,0.2,1,0.2
		c0.4,0,0.8-0.1,1.2-0.4l8.1-5.9c0.2-0.1,0.4-0.3,0.5-0.5c0.2-0.3,0.4-0.7,0.4-1.2C31.1,21.5,30.8,20.9,30.3,20.5z M21.1,28.2
		c-0.1,0.1-0.2,0-0.3,0c-0.1,0-0.1-0.1-0.1-0.2V16.3c0-0.1,0-0.1,0.1-0.2c0,0,0.1,0,0.1,0c0,0,0.1,0,0.1,0l8.1,5.9
		c0.1,0.1,0.1,0.1,0.1,0.2s0,0.1-0.1,0.2l-4.4,3.2L21.1,28.2z M27.9,40.2h-0.6c-0.5,0-0.9,0.4-0.9,0.9s0.4,0.9,0.9,0.9h0.6
		c0.5,0,0.9-0.4,0.9-0.9S28.5,40.2,27.9,40.2z M23.7,40.2H23c-0.5,0-0.9,0.4-0.9,0.9S22.5,42,23,42h0.6c0.5,0,0.9-0.4,0.9-0.9
		S24.2,40.2,23.7,40.2z M17.1,37.8c-1.5,0-2.8,1-3.2,2.3h-1.6c-0.5,0-0.9,0.4-0.9,0.9s0.4,0.9,0.9,0.9h1.6c0.4,1.4,1.7,2.3,3.2,2.3
		c1.8,0,3.3-1.5,3.3-3.3S18.9,37.8,17.1,37.8z M17.1,42.5c-0.8,0-1.5-0.6-1.5-1.4s0.7-1.4,1.5-1.4c0.8,0,1.5,0.6,1.5,1.4
		S17.9,42.5,17.1,42.5z M17.1,37.8c-1.5,0-2.8,1-3.2,2.3h-1.6c-0.5,0-0.9,0.4-0.9,0.9s0.4,0.9,0.9,0.9h1.6c0.4,1.4,1.7,2.3,3.2,2.3
		c1.8,0,3.3-1.5,3.3-3.3S18.9,37.8,17.1,37.8z M17.1,42.5c-0.8,0-1.5-0.6-1.5-1.4s0.7-1.4,1.5-1.4c0.8,0,1.5,0.6,1.5,1.4
		S17.9,42.5,17.1,42.5z M23.7,40.2H23c-0.5,0-0.9,0.4-0.9,0.9S22.5,42,23,42h0.6c0.5,0,0.9-0.4,0.9-0.9S24.2,40.2,23.7,40.2z
		 M27.9,40.2h-0.6c-0.5,0-0.9,0.4-0.9,0.9s0.4,0.9,0.9,0.9h0.6c0.5,0,0.9-0.4,0.9-0.9S28.5,40.2,27.9,40.2z M30.3,20.5l-8.1-5.8
		c-0.1-0.1-0.3-0.2-0.4-0.2c-0.6-0.2-1.2-0.2-1.8,0.1c-0.4,0.2-0.7,0.5-0.9,0.9c-0.1,0.3-0.2,0.6-0.2,0.9V28c0,0.8,0.4,1.5,1.1,1.8
		c0.3,0.2,0.6,0.2,1,0.2c0.4,0,0.8-0.1,1.2-0.4l8.1-5.9c0.2-0.1,0.4-0.3,0.5-0.5c0.2-0.3,0.4-0.7,0.4-1.2
		C31.1,21.5,30.8,20.9,30.3,20.5z M21.1,28.2c-0.1,0.1-0.2,0-0.3,0c-0.1,0-0.1-0.1-0.1-0.2V16.3c0-0.1,0-0.1,0.1-0.2
		c0,0,0.1,0,0.1,0c0,0,0.1,0,0.1,0l8.1,5.9c0.1,0.1,0.1,0.1,0.1,0.2s0,0.1-0.1,0.2l-4.4,3.2L21.1,28.2z M32.2,40.2h-0.6
		c-0.5,0-0.9,0.4-0.9,0.9s0.4,0.9,0.9,0.9h0.6c0.5,0,0.9-0.4,0.9-0.9S32.7,40.2,32.2,40.2z M36.5,40.2h-0.6c-0.5,0-0.9,0.4-0.9,0.9
		s0.4,0.9,0.9,0.9h0.6c0.5,0,0.9-0.4,0.9-0.9S37,40.2,36.5,40.2z M36.5,40.2h-0.6c-0.5,0-0.9,0.4-0.9,0.9s0.4,0.9,0.9,0.9h0.6
		c0.5,0,0.9-0.4,0.9-0.9S37,40.2,36.5,40.2z M32.2,40.2h-0.6c-0.5,0-0.9,0.4-0.9,0.9s0.4,0.9,0.9,0.9h0.6c0.5,0,0.9-0.4,0.9-0.9
		S32.7,40.2,32.2,40.2z M30.3,20.5l-8.1-5.8c-0.1-0.1-0.3-0.2-0.4-0.2c-0.6-0.2-1.2-0.2-1.8,0.1c-0.4,0.2-0.7,0.5-0.9,0.9
		c-0.1,0.3-0.2,0.6-0.2,0.9V28c0,0.8,0.4,1.5,1.1,1.8c0.3,0.2,0.6,0.2,1,0.2c0.4,0,0.8-0.1,1.2-0.4l8.1-5.9c0.2-0.1,0.4-0.3,0.5-0.5
		c0.2-0.3,0.4-0.7,0.4-1.2C31.1,21.5,30.8,20.9,30.3,20.5z M21.1,28.2c-0.1,0.1-0.2,0-0.3,0c-0.1,0-0.1-0.1-0.1-0.2V16.3
		c0-0.1,0-0.1,0.1-0.2c0,0,0.1,0,0.1,0c0,0,0.1,0,0.1,0l8.1,5.9c0.1,0.1,0.1,0.1,0.1,0.2s0,0.1-0.1,0.2l-4.4,3.2L21.1,28.2z
		 M27.9,40.2h-0.6c-0.5,0-0.9,0.4-0.9,0.9s0.4,0.9,0.9,0.9h0.6c0.5,0,0.9-0.4,0.9-0.9S28.5,40.2,27.9,40.2z M23.7,40.2H23
		c-0.5,0-0.9,0.4-0.9,0.9S22.5,42,23,42h0.6c0.5,0,0.9-0.4,0.9-0.9S24.2,40.2,23.7,40.2z M17.1,37.8c-1.5,0-2.8,1-3.2,2.3h-1.6
		c-0.5,0-0.9,0.4-0.9,0.9s0.4,0.9,0.9,0.9h1.6c0.4,1.4,1.7,2.3,3.2,2.3c1.8,0,3.3-1.5,3.3-3.3S18.9,37.8,17.1,37.8z M17.1,42.5
		c-0.8,0-1.5-0.6-1.5-1.4s0.7-1.4,1.5-1.4c0.8,0,1.5,0.6,1.5,1.4S17.9,42.5,17.1,42.5z M17.1,37.8c-1.5,0-2.8,1-3.2,2.3h-1.6
		c-0.5,0-0.9,0.4-0.9,0.9s0.4,0.9,0.9,0.9h1.6c0.4,1.4,1.7,2.3,3.2,2.3c1.8,0,3.3-1.5,3.3-3.3S18.9,37.8,17.1,37.8z M17.1,42.5
		c-0.8,0-1.5-0.6-1.5-1.4s0.7-1.4,1.5-1.4c0.8,0,1.5,0.6,1.5,1.4S17.9,42.5,17.1,42.5z M23.7,40.2H23c-0.5,0-0.9,0.4-0.9,0.9
		S22.5,42,23,42h0.6c0.5,0,0.9-0.4,0.9-0.9S24.2,40.2,23.7,40.2z M27.9,40.2h-0.6c-0.5,0-0.9,0.4-0.9,0.9s0.4,0.9,0.9,0.9h0.6
		c0.5,0,0.9-0.4,0.9-0.9S28.5,40.2,27.9,40.2z M30.3,20.5l-8.1-5.8c-0.1-0.1-0.3-0.2-0.4-0.2c-0.6-0.2-1.2-0.2-1.8,0.1
		c-0.4,0.2-0.7,0.5-0.9,0.9c-0.1,0.3-0.2,0.6-0.2,0.9V28c0,0.8,0.4,1.5,1.1,1.8c0.3,0.2,0.6,0.2,1,0.2c0.4,0,0.8-0.1,1.2-0.4
		l8.1-5.9c0.2-0.1,0.4-0.3,0.5-0.5c0.2-0.3,0.4-0.7,0.4-1.2C31.1,21.5,30.8,20.9,30.3,20.5z M21.1,28.2c-0.1,0.1-0.2,0-0.3,0
		c-0.1,0-0.1-0.1-0.1-0.2V16.3c0-0.1,0-0.1,0.1-0.2c0,0,0.1,0,0.1,0c0,0,0.1,0,0.1,0l8.1,5.9c0.1,0.1,0.1,0.1,0.1,0.2s0,0.1-0.1,0.2
		l-4.4,3.2L21.1,28.2z M32.2,40.2h-0.6c-0.5,0-0.9,0.4-0.9,0.9s0.4,0.9,0.9,0.9h0.6c0.5,0,0.9-0.4,0.9-0.9S32.7,40.2,32.2,40.2z
		 M36.5,40.2h-0.6c-0.5,0-0.9,0.4-0.9,0.9s0.4,0.9,0.9,0.9h0.6c0.5,0,0.9-0.4,0.9-0.9S37,40.2,36.5,40.2z M36.5,40.2h-0.6
		c-0.5,0-0.9,0.4-0.9,0.9s0.4,0.9,0.9,0.9h0.6c0.5,0,0.9-0.4,0.9-0.9S37,40.2,36.5,40.2z M32.2,40.2h-0.6c-0.5,0-0.9,0.4-0.9,0.9
		s0.4,0.9,0.9,0.9h0.6c0.5,0,0.9-0.4,0.9-0.9S32.7,40.2,32.2,40.2z M31.1,22.2c0-0.7-0.3-1.3-0.9-1.7l-8.1-5.8
		c-0.1-0.1-0.3-0.2-0.4-0.2c-0.6-0.2-1.2-0.2-1.8,0.1c-0.4,0.2-0.7,0.5-0.9,0.9c-0.1,0.3-0.2,0.6-0.2,0.9V28c0,0.8,0.4,1.5,1.1,1.8
		c0.3,0.2,0.6,0.2,1,0.2c0.4,0,0.8-0.1,1.2-0.4l8.1-5.9c0.2-0.1,0.4-0.3,0.5-0.5C31,23,31.1,22.6,31.1,22.2z M21.1,28.2
		c-0.1,0.1-0.2,0-0.3,0c-0.1,0-0.1-0.1-0.1-0.2V16.3c0-0.1,0-0.1,0.1-0.2c0,0,0.1,0,0.1,0c0,0,0.1,0,0.1,0l8.1,5.9
		c0.1,0.1,0.1,0.1,0.1,0.2s0,0.1-0.1,0.2l-4.4,3.2L21.1,28.2z M27.9,40.2h-0.6c-0.5,0-0.9,0.4-0.9,0.9s0.4,0.9,0.9,0.9h0.6
		c0.5,0,0.9-0.4,0.9-0.9S28.5,40.2,27.9,40.2z M23.7,40.2H23c-0.5,0-0.9,0.4-0.9,0.9S22.5,42,23,42h0.6c0.5,0,0.9-0.4,0.9-0.9
		S24.2,40.2,23.7,40.2z M17.1,37.8c-1.5,0-2.8,1-3.2,2.3h-1.6c-0.5,0-0.9,0.4-0.9,0.9s0.4,0.9,0.9,0.9h1.6c0.4,1.4,1.7,2.3,3.2,2.3
		c1.8,0,3.3-1.5,3.3-3.3S18.9,37.8,17.1,37.8z M17.1,42.5c-0.8,0-1.5-0.6-1.5-1.4s0.7-1.4,1.5-1.4c0.8,0,1.5,0.6,1.5,1.4
		S17.9,42.5,17.1,42.5z M44.2,2c-0.2-0.2-0.4-0.5-0.6-0.7c-0.7-0.7-1.7-1.1-2.7-1.1H9.1c-1,0-2,0.4-2.7,1C5.6,2,5.1,3,5.1,4.2v41.6
		c0,2.2,1.8,4,4,4h31.8c2.2,0,4-1.8,4-4V4.2C44.9,3.4,44.6,2.6,44.2,2z M43,45.8c0,1.2-1,2.1-2.1,2.1H9.1c-1.2,0-2.1-1-2.1-2.1V4.2
		c0-1.2,1-2.1,2.1-2.1h31.8c1.2,0,2.1,1,2.1,2.1V45.8z M36.5,40.2h-0.6c-0.5,0-0.9,0.4-0.9,0.9s0.4,0.9,0.9,0.9h0.6
		c0.5,0,0.9-0.4,0.9-0.9S37,40.2,36.5,40.2z M32.2,40.2h-0.6c-0.5,0-0.9,0.4-0.9,0.9s0.4,0.9,0.9,0.9h0.6c0.5,0,0.9-0.4,0.9-0.9
		S32.7,40.2,32.2,40.2z M31.1,22.2c0-0.7-0.3-1.3-0.9-1.7l-8.1-5.8c-0.1-0.1-0.3-0.2-0.4-0.2c-0.6-0.2-1.2-0.2-1.8,0.1
		c-0.4,0.2-0.7,0.5-0.9,0.9c-0.1,0.3-0.2,0.6-0.2,0.9V28c0,0.8,0.4,1.5,1.1,1.8c0.3,0.2,0.6,0.2,1,0.2c0.4,0,0.8-0.1,1.2-0.4
		l8.1-5.9c0.2-0.1,0.4-0.3,0.5-0.5C31,23,31.1,22.6,31.1,22.2z M21.1,28.2c-0.1,0.1-0.2,0-0.3,0c-0.1,0-0.1-0.1-0.1-0.2V16.3
		c0-0.1,0-0.1,0.1-0.2c0,0,0.1,0,0.1,0c0,0,0.1,0,0.1,0l8.1,5.9c0.1,0.1,0.1,0.1,0.1,0.2s0,0.1-0.1,0.2l-4.4,3.2L21.1,28.2z
		 M27.9,40.2h-0.6c-0.5,0-0.9,0.4-0.9,0.9s0.4,0.9,0.9,0.9h0.6c0.5,0,0.9-0.4,0.9-0.9S28.5,40.2,27.9,40.2z M23.7,40.2H23
		c-0.5,0-0.9,0.4-0.9,0.9S22.5,42,23,42h0.6c0.5,0,0.9-0.4,0.9-0.9S24.2,40.2,23.7,40.2z M17.1,37.8c-1.5,0-2.8,1-3.2,2.3h-1.6
		c-0.5,0-0.9,0.4-0.9,0.9s0.4,0.9,0.9,0.9h1.6c0.4,1.4,1.7,2.3,3.2,2.3c1.8,0,3.3-1.5,3.3-3.3S18.9,37.8,17.1,37.8z M17.1,42.5
		c-0.8,0-1.5-0.6-1.5-1.4s0.7-1.4,1.5-1.4c0.8,0,1.5,0.6,1.5,1.4S17.9,42.5,17.1,42.5z M17.1,37.8c-1.5,0-2.8,1-3.2,2.3h-1.6
		c-0.5,0-0.9,0.4-0.9,0.9s0.4,0.9,0.9,0.9h1.6c0.4,1.4,1.7,2.3,3.2,2.3c1.8,0,3.3-1.5,3.3-3.3S18.9,37.8,17.1,37.8z M17.1,42.5
		c-0.8,0-1.5-0.6-1.5-1.4s0.7-1.4,1.5-1.4c0.8,0,1.5,0.6,1.5,1.4S17.9,42.5,17.1,42.5z M23.7,40.2H23c-0.5,0-0.9,0.4-0.9,0.9
		S22.5,42,23,42h0.6c0.5,0,0.9-0.4,0.9-0.9S24.2,40.2,23.7,40.2z M27.9,40.2h-0.6c-0.5,0-0.9,0.4-0.9,0.9s0.4,0.9,0.9,0.9h0.6
		c0.5,0,0.9-0.4,0.9-0.9S28.5,40.2,27.9,40.2z M30.3,20.5l-8.1-5.8c-0.1-0.1-0.3-0.2-0.4-0.2c-0.6-0.2-1.2-0.2-1.8,0.1
		c-0.4,0.2-0.7,0.5-0.9,0.9c-0.1,0.3-0.2,0.6-0.2,0.9V28c0,0.8,0.4,1.5,1.1,1.8c0.3,0.2,0.6,0.2,1,0.2c0.4,0,0.8-0.1,1.2-0.4
		l8.1-5.9c0.2-0.1,0.4-0.3,0.5-0.5c0.2-0.3,0.4-0.7,0.4-1.2C31.1,21.5,30.8,20.9,30.3,20.5z M21.1,28.2c-0.1,0.1-0.2,0-0.3,0
		c-0.1,0-0.1-0.1-0.1-0.2V16.3c0-0.1,0-0.1,0.1-0.2c0,0,0.1,0,0.1,0c0,0,0.1,0,0.1,0l8.1,5.9c0.1,0.1,0.1,0.1,0.1,0.2s0,0.1-0.1,0.2
		l-4.4,3.2L21.1,28.2z M32.2,40.2h-0.6c-0.5,0-0.9,0.4-0.9,0.9s0.4,0.9,0.9,0.9h0.6c0.5,0,0.9-0.4,0.9-0.9S32.7,40.2,32.2,40.2z
		 M36.5,40.2h-0.6c-0.5,0-0.9,0.4-0.9,0.9s0.4,0.9,0.9,0.9h0.6c0.5,0,0.9-0.4,0.9-0.9S37,40.2,36.5,40.2z M36.5,40.2h-0.6
		c-0.5,0-0.9,0.4-0.9,0.9s0.4,0.9,0.9,0.9h0.6c0.5,0,0.9-0.4,0.9-0.9S37,40.2,36.5,40.2z M32.2,40.2h-0.6c-0.5,0-0.9,0.4-0.9,0.9
		s0.4,0.9,0.9,0.9h0.6c0.5,0,0.9-0.4,0.9-0.9S32.7,40.2,32.2,40.2z M30.3,20.5l-8.1-5.8c-0.1-0.1-0.3-0.2-0.4-0.2
		c-0.6-0.2-1.2-0.2-1.8,0.1c-0.4,0.2-0.7,0.5-0.9,0.9c-0.1,0.3-0.2,0.6-0.2,0.9V28c0,0.8,0.4,1.5,1.1,1.8c0.3,0.2,0.6,0.2,1,0.2
		c0.4,0,0.8-0.1,1.2-0.4l8.1-5.9c0.2-0.1,0.4-0.3,0.5-0.5c0.2-0.3,0.4-0.7,0.4-1.2C31.1,21.5,30.8,20.9,30.3,20.5z M21.1,28.2
		c-0.1,0.1-0.2,0-0.3,0c-0.1,0-0.1-0.1-0.1-0.2V16.3c0-0.1,0-0.1,0.1-0.2c0,0,0.1,0,0.1,0c0,0,0.1,0,0.1,0l8.1,5.9
		c0.1,0.1,0.1,0.1,0.1,0.2s0,0.1-0.1,0.2l-4.4,3.2L21.1,28.2z M27.9,40.2h-0.6c-0.5,0-0.9,0.4-0.9,0.9s0.4,0.9,0.9,0.9h0.6
		c0.5,0,0.9-0.4,0.9-0.9S28.5,40.2,27.9,40.2z M23.7,40.2H23c-0.5,0-0.9,0.4-0.9,0.9S22.5,42,23,42h0.6c0.5,0,0.9-0.4,0.9-0.9
		S24.2,40.2,23.7,40.2z M17.1,37.8c-1.5,0-2.8,1-3.2,2.3h-1.6c-0.5,0-0.9,0.4-0.9,0.9s0.4,0.9,0.9,0.9h1.6c0.4,1.4,1.7,2.3,3.2,2.3
		c1.8,0,3.3-1.5,3.3-3.3S18.9,37.8,17.1,37.8z M17.1,42.5c-0.8,0-1.5-0.6-1.5-1.4s0.7-1.4,1.5-1.4c0.8,0,1.5,0.6,1.5,1.4
		S17.9,42.5,17.1,42.5z M17.1,37.8c-1.5,0-2.8,1-3.2,2.3h-1.6c-0.5,0-0.9,0.4-0.9,0.9s0.4,0.9,0.9,0.9h1.6c0.4,1.4,1.7,2.3,3.2,2.3
		c1.8,0,3.3-1.5,3.3-3.3S18.9,37.8,17.1,37.8z M17.1,42.5c-0.8,0-1.5-0.6-1.5-1.4s0.7-1.4,1.5-1.4c0.8,0,1.5,0.6,1.5,1.4
		S17.9,42.5,17.1,42.5z M23.7,40.2H23c-0.5,0-0.9,0.4-0.9,0.9S22.5,42,23,42h0.6c0.5,0,0.9-0.4,0.9-0.9S24.2,40.2,23.7,40.2z
		 M27.9,40.2h-0.6c-0.5,0-0.9,0.4-0.9,0.9s0.4,0.9,0.9,0.9h0.6c0.5,0,0.9-0.4,0.9-0.9S28.5,40.2,27.9,40.2z M30.3,20.5l-8.1-5.8
		c-0.1-0.1-0.3-0.2-0.4-0.2c-0.6-0.2-1.2-0.2-1.8,0.1c-0.4,0.2-0.7,0.5-0.9,0.9c-0.1,0.3-0.2,0.6-0.2,0.9V28c0,0.8,0.4,1.5,1.1,1.8
		c0.3,0.2,0.6,0.2,1,0.2c0.4,0,0.8-0.1,1.2-0.4l8.1-5.9c0.2-0.1,0.4-0.3,0.5-0.5c0.2-0.3,0.4-0.7,0.4-1.2
		C31.1,21.5,30.8,20.9,30.3,20.5z M21.1,28.2c-0.1,0.1-0.2,0-0.3,0c-0.1,0-0.1-0.1-0.1-0.2V16.3c0-0.1,0-0.1,0.1-0.2
		c0,0,0.1,0,0.1,0c0,0,0.1,0,0.1,0l8.1,5.9c0.1,0.1,0.1,0.1,0.1,0.2s0,0.1-0.1,0.2l-4.4,3.2L21.1,28.2z M32.2,40.2h-0.6
		c-0.5,0-0.9,0.4-0.9,0.9s0.4,0.9,0.9,0.9h0.6c0.5,0,0.9-0.4,0.9-0.9S32.7,40.2,32.2,40.2z M36.5,40.2h-0.6c-0.5,0-0.9,0.4-0.9,0.9
		s0.4,0.9,0.9,0.9h0.6c0.5,0,0.9-0.4,0.9-0.9S37,40.2,36.5,40.2z M36.5,40.2h-0.6c-0.5,0-0.9,0.4-0.9,0.9s0.4,0.9,0.9,0.9h0.6
		c0.5,0,0.9-0.4,0.9-0.9S37,40.2,36.5,40.2z M32.2,40.2h-0.6c-0.5,0-0.9,0.4-0.9,0.9s0.4,0.9,0.9,0.9h0.6c0.5,0,0.9-0.4,0.9-0.9
		S32.7,40.2,32.2,40.2z M30.3,20.5l-8.1-5.8c-0.1-0.1-0.3-0.2-0.4-0.2c-0.6-0.2-1.2-0.2-1.8,0.1c-0.4,0.2-0.7,0.5-0.9,0.9
		c-0.1,0.3-0.2,0.6-0.2,0.9V28c0,0.8,0.4,1.5,1.1,1.8c0.3,0.2,0.6,0.2,1,0.2c0.4,0,0.8-0.1,1.2-0.4l8.1-5.9c0.2-0.1,0.4-0.3,0.5-0.5
		c0.2-0.3,0.4-0.7,0.4-1.2C31.1,21.5,30.8,20.9,30.3,20.5z M21.1,28.2c-0.1,0.1-0.2,0-0.3,0c-0.1,0-0.1-0.1-0.1-0.2V16.3
		c0-0.1,0-0.1,0.1-0.2c0,0,0.1,0,0.1,0c0,0,0.1,0,0.1,0l8.1,5.9c0.1,0.1,0.1,0.1,0.1,0.2s0,0.1-0.1,0.2l-4.4,3.2L21.1,28.2z
		 M27.9,40.2h-0.6c-0.5,0-0.9,0.4-0.9,0.9s0.4,0.9,0.9,0.9h0.6c0.5,0,0.9-0.4,0.9-0.9S28.5,40.2,27.9,40.2z M23.7,40.2H23
		c-0.5,0-0.9,0.4-0.9,0.9S22.5,42,23,42h0.6c0.5,0,0.9-0.4,0.9-0.9S24.2,40.2,23.7,40.2z M17.1,37.8c-1.5,0-2.8,1-3.2,2.3h-1.6
		c-0.5,0-0.9,0.4-0.9,0.9s0.4,0.9,0.9,0.9h1.6c0.4,1.4,1.7,2.3,3.2,2.3c1.8,0,3.3-1.5,3.3-3.3S18.9,37.8,17.1,37.8z M17.1,42.5
		c-0.8,0-1.5-0.6-1.5-1.4s0.7-1.4,1.5-1.4c0.8,0,1.5,0.6,1.5,1.4S17.9,42.5,17.1,42.5z M17.1,37.8c-1.5,0-2.8,1-3.2,2.3h-1.6
		c-0.5,0-0.9,0.4-0.9,0.9s0.4,0.9,0.9,0.9h1.6c0.4,1.4,1.7,2.3,3.2,2.3c1.8,0,3.3-1.5,3.3-3.3S18.9,37.8,17.1,37.8z M17.1,42.5
		c-0.8,0-1.5-0.6-1.5-1.4s0.7-1.4,1.5-1.4c0.8,0,1.5,0.6,1.5,1.4S17.9,42.5,17.1,42.5z M23.7,40.2H23c-0.5,0-0.9,0.4-0.9,0.9
		S22.5,42,23,42h0.6c0.5,0,0.9-0.4,0.9-0.9S24.2,40.2,23.7,40.2z M27.9,40.2h-0.6c-0.5,0-0.9,0.4-0.9,0.9s0.4,0.9,0.9,0.9h0.6
		c0.5,0,0.9-0.4,0.9-0.9S28.5,40.2,27.9,40.2z M30.3,20.5l-8.1-5.8c-0.1-0.1-0.3-0.2-0.4-0.2c-0.6-0.2-1.2-0.2-1.8,0.1
		c-0.4,0.2-0.7,0.5-0.9,0.9c-0.1,0.3-0.2,0.6-0.2,0.9V28c0,0.8,0.4,1.5,1.1,1.8c0.3,0.2,0.6,0.2,1,0.2c0.4,0,0.8-0.1,1.2-0.4
		l8.1-5.9c0.2-0.1,0.4-0.3,0.5-0.5c0.2-0.3,0.4-0.7,0.4-1.2C31.1,21.5,30.8,20.9,30.3,20.5z M21.1,28.2c-0.1,0.1-0.2,0-0.3,0
		c-0.1,0-0.1-0.1-0.1-0.2V16.3c0-0.1,0-0.1,0.1-0.2c0,0,0.1,0,0.1,0c0,0,0.1,0,0.1,0l8.1,5.9c0.1,0.1,0.1,0.1,0.1,0.2s0,0.1-0.1,0.2
		l-4.4,3.2L21.1,28.2z M32.2,40.2h-0.6c-0.5,0-0.9,0.4-0.9,0.9s0.4,0.9,0.9,0.9h0.6c0.5,0,0.9-0.4,0.9-0.9S32.7,40.2,32.2,40.2z
		 M36.5,40.2h-0.6c-0.5,0-0.9,0.4-0.9,0.9s0.4,0.9,0.9,0.9h0.6c0.5,0,0.9-0.4,0.9-0.9S37,40.2,36.5,40.2z M36.5,40.2h-0.6
		c-0.5,0-0.9,0.4-0.9,0.9s0.4,0.9,0.9,0.9h0.6c0.5,0,0.9-0.4,0.9-0.9S37,40.2,36.5,40.2z M32.2,40.2h-0.6c-0.5,0-0.9,0.4-0.9,0.9
		s0.4,0.9,0.9,0.9h0.6c0.5,0,0.9-0.4,0.9-0.9S32.7,40.2,32.2,40.2z M30.3,20.5l-8.1-5.8c-0.1-0.1-0.3-0.2-0.4-0.2
		c-0.6-0.2-1.2-0.2-1.8,0.1c-0.4,0.2-0.7,0.5-0.9,0.9c-0.1,0.3-0.2,0.6-0.2,0.9V28c0,0.8,0.4,1.5,1.1,1.8c0.3,0.2,0.6,0.2,1,0.2
		c0.4,0,0.8-0.1,1.2-0.4l8.1-5.9c0.2-0.1,0.4-0.3,0.5-0.5c0.2-0.3,0.4-0.7,0.4-1.2C31.1,21.5,30.8,20.9,30.3,20.5z M21.1,28.2
		c-0.1,0.1-0.2,0-0.3,0c-0.1,0-0.1-0.1-0.1-0.2V16.3c0-0.1,0-0.1,0.1-0.2c0,0,0.1,0,0.1,0c0,0,0.1,0,0.1,0l8.1,5.9
		c0.1,0.1,0.1,0.1,0.1,0.2s0,0.1-0.1,0.2l-4.4,3.2L21.1,28.2z M27.9,40.2h-0.6c-0.5,0-0.9,0.4-0.9,0.9s0.4,0.9,0.9,0.9h0.6
		c0.5,0,0.9-0.4,0.9-0.9S28.5,40.2,27.9,40.2z M23.7,40.2H23c-0.5,0-0.9,0.4-0.9,0.9S22.5,42,23,42h0.6c0.5,0,0.9-0.4,0.9-0.9
		S24.2,40.2,23.7,40.2z M17.1,37.8c-1.5,0-2.8,1-3.2,2.3h-1.6c-0.5,0-0.9,0.4-0.9,0.9s0.4,0.9,0.9,0.9h1.6c0.4,1.4,1.7,2.3,3.2,2.3
		c1.8,0,3.3-1.5,3.3-3.3S18.9,37.8,17.1,37.8z M17.1,42.5c-0.8,0-1.5-0.6-1.5-1.4s0.7-1.4,1.5-1.4c0.8,0,1.5,0.6,1.5,1.4
		S17.9,42.5,17.1,42.5z"/>
</g>
</svg>
