<svg xmlns="http://www.w3.org/2000/svg" version="1" viewBox="0 0 50 50"><path fill="#E56060" d="M40.36 32.872V7.512c0-2.417-1.95-4.37-4.36-4.37H9.64v40.91l30.72-11.18z"/><path fill="#FF6B6B" d="M40.274 6.645c-.4-2-2.16-3.503-4.273-3.503H9.64v14.652l30.634-11.15z"/><path fill="#031326" d="M35.992 2H10.094a1.6 1.6 0 0 0-1.597 1.597V46.4a1.6 1.6 0 0 0 1.597 1.597H28.41c.006 0 .01.004.018.004.63 0 1.142-.51 1.142-1.14V4.285h2.58v38.48c0 .63.51 1.142 1.142 1.142H36a5.51 5.51 0 0 0 5.503-5.502V7.51A5.517 5.517 0 0 0 35.993 2zm-8.707 30.738H10.782v-9.623h16.503v9.623zm-16.503 1.828h16.503v7.058H10.782v-7.058zm23.653-11.45h4.784v9.622h-4.785v-9.623zM39.218 7.51v13.777h-4.784V4.285h1.557a3.23 3.23 0 0 1 3.228 3.226zM10.782 4.286h16.503v17.002H10.782V4.286zm0 39.623h16.503v1.804H10.782v-1.804zM36 41.623h-1.566v-7.058h4.784v3.84A3.22 3.22 0 0 1 36 41.623z"/><path fill="#031326" d="M13.21 22.885a.685.685 0 0 1-.684-.685V3.145a.685.685 0 0 1 1.371 0V22.2a.685.685 0 0 1-.685.685zm0 20.562a.685.685 0 0 1-.684-.685v-9.11a.685.685 0 1 1 1.371-.001v9.112a.685.685 0 0 1-.685.685z"/></svg>