<svg xmlns="http://www.w3.org/2000/svg" version="1" viewBox="0 0 50 50"><path fill="#AFE55D" d="M4.808 42.883a3.502 3.502 0 0 0 1.022 2.452 3.469 3.469 0 0 0 4.903 0l3.634-3.634c.988.678 2.055 1.243 3.161 1.736l25.688-9.35a19.565 19.565 0 0 0 1.977-8.596c0-9.938-7.37-18.133-16.938-19.476-1.602-1.579-2.753-2.477-2.753-2.477s-1.151.898-2.753 2.477C13.18 7.356 5.81 15.553 5.81 25.49c0 4.23 1.345 8.139 3.617 11.343L5.83 40.43a3.456 3.456 0 0 0-1.022 2.453z"/><path fill="#C3FF68" d="M32.032 6.946a19.653 19.653 0 0 0-3.78-.932c-1.602-1.579-2.753-2.477-2.753-2.477s-1.151.898-2.753 2.477c-6.05.849-11.215 4.443-14.199 9.48l23.485-8.548z"/><path fill="#444" d="M28.788 4.941c-1.491-1.445-2.539-2.267-2.585-2.303l-.702-.548-.702.548c-.046.036-1.095.858-2.585 2.303-10.03 1.594-17.545 10.362-17.545 20.55 0 3.998 1.133 7.851 3.286 11.202l-2.932 2.932a4.584 4.584 0 0 0-1.356 3.27 4.612 4.612 0 0 0 7.872 3.247l2.979-2.978a20.911 20.911 0 0 0 7.696 2.878 42.503 42.503 0 0 0 1.732 1.591 1.142 1.142 0 0 0 1.61-.116c.014-.016.017-.036.029-.052a.444.444 0 0 0 .358-.367c.381-.298 4.1-3.267 7.366-7.841a15.85 15.85 0 0 0 8.021-13.768 15.825 15.825 0 0 0-8.008-13.744 40.601 40.601 0 0 0-3.536-4.281c8.243 1.957 14.265 9.423 14.265 18.027 0 2.84-.626 5.565-1.86 8.097a1.141 1.141 0 1 0 2.051 1 20.597 20.597 0 0 0 2.091-9.097c0-10.188-7.515-18.955-17.545-20.55zm-9.427 9.305l-2.979.035a14.456 14.456 0 0 1 2.632-1.697l.347 1.662zm-5.307 11.245c0-3.169.941-6.48 2.798-9.846l4.191-.049-.983-4.698a42.05 42.05 0 0 1 4.985-5.212v39.607C22.3 42.879 14.054 34.846 14.054 25.491zm1.645 10.618a14.469 14.469 0 0 1-4.658-10.621c0-4.132 1.76-7.965 4.7-10.652-2.024 3.621-3.056 7.204-3.056 10.655 0 3.88 1.28 7.494 3.014 10.618zM6.951 25.491c0-8.613 6.035-16.086 14.29-18.033a42.39 42.39 0 0 0-2.455 2.843l-.197.251.137.655a15.782 15.782 0 0 0-9.054 14.281c0 5.697 3.07 10.949 8.021 13.768a40.395 40.395 0 0 0 3.516 4.255 18.36 18.36 0 0 1-6.008-2.629.683.683 0 0 0-.195-.21 19.02 19.02 0 0 1-4.789-4.714 18.365 18.365 0 0 1-3.266-10.467zm2.974 19.037a2.33 2.33 0 0 1-3.976-1.645c0-.618.244-1.202.687-1.645l3.347-3.347a20.309 20.309 0 0 0 3.346 3.232l-3.404 3.405zm16.032.765V5.689c2.745 2.414 10.99 10.446 10.99 19.802.001 9.355-8.245 17.388-10.99 19.802zm14.004-19.806c0 4.084-1.73 7.914-4.658 10.621 1.735-3.123 3.014-6.737 3.014-10.618 0-3.875-1.276-7.484-3.007-10.604a14.44 14.44 0 0 1 4.651 10.601z"/></svg>