<?xml version="1.0" encoding="utf-8"?>
<!-- Generator: Adobe Illustrator 28.0.0, SVG Export Plug-In . SVG Version: 6.00 Build 0)  -->
<svg version="1.1" id="Layer_1" xmlns="http://www.w3.org/2000/svg" xmlns:xlink="http://www.w3.org/1999/xlink" x="0px" y="0px"
	 viewBox="0 0 300 300" style="enable-background:new 0 0 300 300;" xml:space="preserve">
<style type="text/css">
	.st0{fill:#008DD3;}
	.st1{fill:#FFFFFF;}
	.st2{font-family:'BaiJamjuree-Bold';}
	.st3{font-size:40.0146px;}
	.st4{fill:#FFD200;}
	.st5{fill:#F14E70;}
	.st6{fill:#1A00D6;}
	.st7{fill:none;stroke:#1A00D6;stroke-width:3;stroke-linecap:round;stroke-miterlimit:10;}
	.st8{fill:#FF8DA4;}
	.st9{fill:#DDDDDD;stroke:#515759;stroke-width:2.3364;stroke-miterlimit:10;}
	.st10{opacity:0.36;fill:#FFFFFF;enable-background:new    ;}
	.st11{opacity:0.61;fill:#FFFFFF;enable-background:new    ;}
</style>
<g>
	<g>
		<g>
			<g>
				<g id="Camada_10_00000107567431422118310000000017791108891249045426_">
					<path class="st0" d="M276.4,149.7c0.1,19.8-4.1,38.6-11.6,55.7c-21.1,47.6-68.6,80.8-124,81c-14.7,0.1-28.9-2.3-42.2-6.5
						c-25-8-46.8-23-63.1-42.8c-17-20.4-28.1-46-30.8-74c-0.4-4-0.6-8.2-0.6-12.3C3.9,104.6,26.8,63.6,62,38.9
						c4.6-3.3,9.4-6.2,14.4-8.8c7-3.8,14.4-6.8,22-9.4c7.2-2.3,14.7-4,22.4-5.2c6.2-0.8,12.5-1.3,18.9-1.4
						c25-0.1,48.5,6.6,68.8,18.3c3.7,2.1,7.1,4.3,10.5,6.8c16.2,11.5,29.8,26.5,39.7,43.9c1.1,2,2.2,3.9,3.2,6
						c0.8,1.8,1.7,3.5,2.5,5.3c2.6,5.8,4.8,11.7,6.6,17.8c2,6.8,3.5,13.9,4.3,21l0,0C276,138.6,276.4,144.1,276.4,149.7z"/>
				</g>
			</g>
		</g>
	</g>
</g>
<text transform="matrix(1 0 0 1 47.0457 218.7935)" class="st1 st2 st3">{ }</text>
<g>
	<path class="st4" d="M62.1,127.4l-26.9,16.9l-6.5-12.9l29.4-15.9L28.8,99.8l6.5-12.9l26.9,16.9V75.2h15.4v28.6l26.9-16.9l6.5,12.9
		l-29.4,15.7l29.4,15.9l-6.5,12.9l-26.9-16.9V156H62.1V127.4z"/>
</g>
<g>
	<g>
		
			<ellipse transform="matrix(0.7071 -0.7071 0.7071 0.7071 -49.6947 180.5232)" class="st5" cx="193.1" cy="150.2" rx="103.1" ry="103.1"/>
		<g>
			<path class="st1" d="M243.7,128.3c-7-7-18.2-7-25.2,0c-7,7-7,18.2,0,25.2c7,7,18.2,7,25.2,0C250.6,146.5,250.6,135.2,243.7,128.3
				z"/>
			<path class="st6" d="M243.7,128.3c-1.5-1.5-3.3-2.7-5.1-3.6c-1.3,0.8-2.4,1.8-3.5,2.9c-8.4,8.4-8.4,22.1,0,30.5l0.1,0.1
				c3.1-0.7,6.1-2.3,8.5-4.7C250.6,146.5,250.6,135.2,243.7,128.3z"/>
			<path class="st1" d="M167.6,128.3c-7-7-18.2-7-25.2,0c-7,7-7,18.2,0,25.2c7,7,18.2,7,25.2,0C174.6,146.5,174.6,135.2,167.6,128.3
				z"/>
			<path class="st6" d="M167.6,128.3c-1.5-1.5-3.3-2.7-5.1-3.6c-1.3,0.8-2.4,1.8-3.5,2.9c-8.4,8.4-8.4,22.1,0,30.5l0.1,0.1
				c3.1-0.7,6.1-2.3,8.5-4.7C174.6,146.5,174.6,135.2,167.6,128.3z"/>
		</g>
		<polygon class="st4" points="193.1,140.7 179,165 207.1,165 		"/>
		<path class="st7" d="M164.9,184.4c0,0,28.2,26.1,59.8-1.5"/>
	</g>
	<path class="st8" d="M209.2,54.9c0,0,48.3,4.2,73.8,60.1c0,0,2.6,5.8,2.6,9.3c0.1,4.8-7.1,6.6-10.2-2.9c0,0-15.6-38.7-63.2-55.4
		c0,0-10.2-2.8-10.2-7.3C202.1,58.6,202.1,53.2,209.2,54.9z"/>
	<ellipse transform="matrix(0.9888 -0.1493 0.1493 0.9888 -17.8033 44.222)" class="st8" cx="285.6" cy="140.7" rx="4.8" ry="8.6"/>
</g>
<g>
	<path class="st9" d="M105.6,228.9c6.3,2.8,10.8,8.6,10.8,8.6l-17.5,12.9c-0.3,0.2-0.5,0.5-0.5,0.9l0,0c-0.1,0.4,0.1,0.7,0.2,0.9
		l6.4,8.5c0.2,0.3,0.6,0.5,1,0.5l0,0c0.3,0,0.6-0.1,0.8-0.2l17.1-13.2c0,0,3.9,6.2,4.4,13.1c0.4,5.9,18.7-29.1,24.1-39.5
		c0.6-1.2-0.4-2.6-1.7-2.4C139.1,220.5,100.2,226.5,105.6,228.9z"/>
	<path class="st10" d="M126.5,233.1c3.7-1.9,10.3-4.3,13.2-5.7c3.6-1.7,6-3,7.1-4.1c0.5-0.4,0-1.1-0.7-1c-1.8,0.2-5.3,0.7-12.6,2.2
		h-0.1c-3,0.4-19.7,3.4-21.1,4c-3.7,0.5,5.1,3.2,7.7,7.1v0.1"/>
	<path class="st11" d="M123,231.1c2.2-0.9,6-2,7.7-2.7c2-0.8,3.4-1.5,4.1-2c0.3-0.2,0-0.5-0.4-0.5c-1,0.1-3.1,0.4-7.4,1.1
		c0,0,0,0-0.1,0c-1.8,0.2-11.4,1.7-12.3,1.9c-2.2,0.2,3,1.5,4.4,3.4l0,0"/>
</g>
</svg>
