<svg id="Layer_1" xmlns="http://www.w3.org/2000/svg" viewBox="0 0 300 300"><style>.st0{fill:#008dd3}.st1{fill:#5a6366}.st2{fill:#1e2728}.st3{fill:#6c7578}.st4{fill:#394447}.st5{fill:#efb000}.st6{fill:#fac900}.st7{fill:#e6e8e8}.st8{fill:#adb1b2}.st9{fill:#dbdbdb}.st10{fill:#dee0e0}.st11{fill:#d4d4d4}.st12{fill:#687174}.st13{fill:#f2be00}</style><path class="st0" d="M290.3 154.9c0 80.2-65 145.1-145.1 145.1C65 300 0 235 0 154.9S65 9.7 145.1 9.7s145.2 65 145.2 145.2"/><path class="st1" d="M230.4 4.1C195.1-8.7 156 9.5 143.1 44.8l-27.5 75.5c-2.1 5.8.9 12.3 6.7 14.4 5.8 2.1 12.3-.9 14.4-6.7l27.5-75.5c6.6-18.2 23.7-29.7 42.1-30 5.4-.1 11 .8 16.4 2.7 14.7 5.4 25 17.5 28.6 31.7.5.2.5.2 0 0 1.8.6 6.8 14.3 3.6 23l-3.4-1.2c-.4 1.7-.9 3.4-1.5 5-1.4 3.8-.6 7.9 1.8 10.9 1.2 1.6 2.9 2.8 4.9 3.5 5.8 2.1 12.3-.9 14.4-6.7C284 56.1 265.7 17 230.4 4.1z"/><path class="st2" d="M263 82.9c.1-.2.1-.4.2-.6.8-2.6 1.2-5.2 1-7.7-.5-7.7-5.3-14.7-12.9-17.7 1.8.6 6.8 14.3 3.6 23l8.1 3z"/><path class="st3" d="M254 18.7c-5.2-4.1-11.1-7.5-17.6-9.8-32.7-11.9-69 5-80.9 37.7L123.3 135l-.9-.3c-5.8-2.1-8.8-8.6-6.7-14.4l27.5-75.5c12.8-35.3 52-53.5 87.3-40.7 9 3.3 16.9 8.3 23.5 14.6z"/><path class="st4" d="M264.2 74.6c-.5-7.7-5.3-14.7-12.9-17.7-3.6-14.1-13.9-26.3-28.6-31.7-5.4-2-10.9-2.8-16.4-2.7 8.1-1.3 16.6-.6 24.9 2.4 21.2 7.7 34 28.3 33 49.7z"/><path class="st5" d="M229.5 274.6c-3.2 7.9-11.8 12-20 9.5-13.7-4.1-37.5-11.8-72.2-24.4-34.6-12.6-57.8-22.1-70.9-27.7-7.8-3.3-11.8-12.1-9.2-20.1 4.2-13 11.8-35.9 25-71.9s21.9-58.5 27.1-71.2c3.2-7.9 11.8-12 20-9.5 13.7 4.1 37.5 11.8 72.2 24.4 34.6 12.6 57.8 22.1 70.9 27.7 7.8 3.3 11.8 12 9.2 20.1-4.2 13-11.8 35.8-25 71.9-13.1 36.2-21.9 58.6-27.1 71.2"/><path class="st6" d="M239.5 197.2c-14.1 38.7-56.8 58.6-95.5 44.5-38.7-14.1-58.6-56.8-44.5-95.5s56.8-58.6 95.5-44.5c38.6 14 58.6 56.8 44.5 95.5"/><path class="st7" d="M235.3 195.6c-13.2 36.4-53.4 55.1-89.8 41.9-36.4-13.2-55.1-53.4-41.9-89.8s53.4-55.1 89.8-41.9c36.4 13.3 55.1 53.5 41.9 89.8"/><path class="st8" d="M157.2 128.1l-3.4 1.6-3.3-7-6.4 3 3.3 6.9-3.4 1.6-7.6-16.1 3.5-1.6 2.9 6.3 6.4-3-2.9-6.3 3.4-1.6z"/><path class="st8" d="M157.2 128.1l-3.4 1.6-3.3-7-6.4 3 3.3 6.9-3.4 1.6-7.6-16.1 3.5-1.6 2.9 6.3 6.4-3-2.9-6.3 3.4-1.6zm31.8 3.1l.2-4.4-6.1-2.2-2.7 3.5-3.8-1.4 12-14.6 4.3 1.6-.2 18.9-3.7-1.4zm.5-7.7c.2-4 .3-6.3.3-6.8s.1-.9.1-1.2c-.6.9-2.2 3-4.8 6.4l4.4 1.6zm33.8 15.8l2.3 5c1.1 2.3 1.5 4.1 1.3 5.4-.2 1.3-1 2.3-2.4 3-1 .4-1.9.6-2.7.4-.8-.2-1.5-.6-2-1.3l-.1.1c.2 1.1.2 2.1-.2 2.8-.4.7-1.1 1.4-2.2 1.8-1.5.7-2.9.7-4.2 0-1.3-.7-2.4-1.9-3.3-3.8l-2.8-6 16.3-7.4zm-4.8 6.4l.9 2c.4.9.9 1.5 1.4 1.8.5.3 1.1.3 1.7 0 .6-.3 1-.7 1-1.3.1-.6-.1-1.4-.6-2.3l-.8-1.8-3.6 1.6zm-2.7 1.3l-4.2 2 1 2.2c.4.9.9 1.6 1.5 1.8.6.3 1.2.2 2-.1 1.3-.6 1.6-1.9.7-3.8l-1-2.1zm9 46.4c.5-1.3.4-2.5-.4-3.6-.7-1.1-1.9-1.9-3.7-2.6-3.6-1.3-5.9-.6-6.9 2.1-.4 1.1-.6 2.6-.7 4.5l-2.9-1.1c-.1-1.5.2-3.1.8-4.8.9-2.4 2.2-3.9 4.1-4.7 1.9-.7 4.2-.6 6.9.4 1.7.6 3.1 1.5 4.1 2.5 1 1.1 1.7 2.3 2 3.7.3 1.4.1 2.9-.5 4.4-.6 1.6-1.5 3-2.9 4.4l-2.4-2.1c.5-.5 1-1 1.4-1.6.6-.3.9-.9 1.1-1.5zm-39.3 30.1c-1.2-2.7-1.4-5-.6-7.2.9-2.1 2.7-3.8 5.6-5.2l4.6-2.1 7.5 16.1-5.1 2.4c-2.6 1.2-5 1.5-7.1.8-2.1-.7-3.7-2.3-4.9-4.8zm3.5-1.7c1.6 3.5 4 4.5 7 3.1l1.8-.9-4.9-10.5-1.5.7c-3.2 1.5-4 4-2.4 7.6zm-39.6-9.9l9.6 3.5-6.1 16.8-9.6-3.5 1-3 6.1 2.3 1.4-3.7-5.7-2.1 1.1-2.9 5.6 2.1 1.6-4.3-6.1-2.3zm-19.9-20.1l1.6 3.4-16.1 7.5-4.3-9.2 2.8-1.3 2.7 5.9 4.2-2-2.6-5.5 2.8-1.3 2.6 5.5zm-11.3-39.1l2.4-6.5 8.4 3.1c0 1.2-.2 2.2-.4 3.2s-.5 1.9-.8 2.9c-.9 2.5-2.3 4.1-4.2 4.8-1.9.8-4.2.7-6.9-.3-2.6-1-4.4-2.5-5.3-4.5-.9-2-.9-4.4.1-7.1.6-1.7 1.5-3.2 2.8-4.5l2.3 2.2c-1 1-1.8 2.1-2.2 3.4-.5 1.5-.5 2.9.2 4.1.7 1.3 1.9 2.2 3.6 2.8 1.8.6 3.2.8 4.4.4 1.2-.4 2-1.3 2.5-2.6.3-.7.5-1.5.6-2.3l-3.4-1.2-1.1 3.1-3-1z"/><path class="st9" d="M181.3 139.2c-.5-.2-.7-.7-.5-1.1l1.5-4c.2-.5.7-.7 1.1-.5.5.2.7.7.5 1.1l-1.5 4c-.2.4-.7.7-1.1.5m-25.7 70.6c-.5-.2-.7-.7-.5-1.1l1.5-4c.2-.5.7-.7 1.1-.5.5.2.7.7.5 1.1l-1.5 4c-.2.4-.7.7-1.1.5m-.8-69.4c-.4.2-1 0-1.2-.4l-1.8-3.9c-.2-.4 0-1 .4-1.2.4-.2 1 0 1.2.4l1.8 3.9c.3.4.1 1-.4 1.2m31.8 68.1c-.4.2-1 0-1.2-.4l-1.8-3.9c-.2-.4 0-1 .4-1.2.4-.2 1 0 1.2.4l1.8 3.9c.2.4 0 1-.4 1.2M137 159.9c-.2.5-.7.7-1.1.5l-4-1.5c-.5-.2-.7-.7-.5-1.1s.7-.7 1.1-.5l4 1.5c.4.1.6.6.5 1.1m70.6 25.7c-.2.5-.7.7-1.1.5l-4-1.5c-.5-.2-.7-.7-.5-1.1s.7-.7 1.1-.5l4 1.5c.4.1.7.6.5 1.1m-69.5.7c.2.4 0 1-.4 1.2l-3.9 1.8c-.4.2-1 0-1.2-.4-.2-.4 0-1 .4-1.2l3.9-1.8c.5-.3 1-.1 1.2.4m68.1-31.8c.2.4 0 1-.4 1.2l-3.9 1.8c-.4.2-1 0-1.2-.4s0-1 .4-1.2l3.9-1.8c.5-.2 1 0 1.2.4"/><path class="st3" d="M182.5 133.6l-4.9 3.4c-.6.4-.5 1.4.2 1.6l6.4 2.3c.7.3 1.4-.4 1.2-1.1l-1.5-5.7c-.1-.6-.8-.9-1.4-.5"/><path class="st10" d="M183.8 204.6c-4.5 2-9.4 3-14.3 3-3.8 0-7.7-.6-11.5-1.9l-1.2 3.2c4.3 1.6 8.7 2.3 13.1 2.3 5.4 0 10.6-1.1 15.5-3.3l-1.6-3.3m-46.5-17l-2.3 1.1c3.9 8.6 10.9 15.7 20.1 19.6l1.2-3.2c-8.6-3.4-15.2-9.7-19-17.5m65.6-2.8c-3.4 8.6-9.7 15.2-17.5 19.1l1.6 3.4c8.5-4.2 15.4-11.6 18.9-21.2v-.1l-3-1.2M134 159.7v.1c-3.3 9.2-3 18.8.4 27.2l2.2-1c-3.4-7.9-4.1-17-1.1-25.8l-1.5-.5m70.4-3.4l-2.1 1c3.5 7.9 4.1 17.1 1.1 25.8l3 1.1c3.1-9.5 2.1-19.4-2-27.9M153 138.6c-8 3.9-14.7 10.7-18.4 19.5l1.4.5c3.4-8.6 9.7-15.2 17.4-19l-.4-1m16.9-4c-5.3 0-10.5 1.1-15.3 3.2l.4 1c4.5-2 9.4-3 14.4-3 2.8 0 5.7.3 8.5 1l1.4-1c-3.1-.8-6.2-1.2-9.4-1.2"/><path class="st11" d="M156.3 205.1l-1.2 3.2c.5.2 1.1.4 1.7.6l1.2-3.2c-.3-.1-.5-.2-.8-.3l-.9-.3m-1.7-67.3c-.5.2-1.1.5-1.6.7l.4 1c.5-.3 1.1-.5 1.6-.8l-.4-.9m30.8 66c-.5.3-1.1.5-1.6.8l1.6 3.4c.5-.2 1.1-.5 1.6-.8l-1.6-3.4m-50.8-45.7c-.2.5-.4 1.1-.7 1.7l1.4.5c.1-.3.2-.6.3-.8.1-.3.2-.6.3-.8l-1.3-.6m68.9 25c-.1.3-.2.6-.3.8s-.2.6-.3.8l3.1 1.1c.2-.6.4-1.1.6-1.7l-3.1-1m-66.9 2.9l-2.2 1c.2.6.5 1.1.7 1.6l2.3-1.1c-.4-.4-.6-.9-.8-1.5"/><path class="st10" d="M184.9 137.7l.5 1.8c7.2 3.6 12.8 9.3 16.2 16.2l2-.9c-4-7.5-10.4-13.6-18.7-17.1"/><path class="st11" d="M203.6 154.7l-2 .9c.3.5.5 1.1.8 1.6l2.1-1c-.3-.4-.6-.9-.9-1.5"/><path class="st12" d="M179.4 135.8l-1.4 1c1.3.3 2.5.7 3.8 1.1 1.3.5 2.5 1 3.6 1.6l-.5-1.8c-.6-.3-1.2-.5-1.9-.7-1.2-.5-2.4-.9-3.6-1.2"/><path class="st7" d="M203.2 184c-6.8 18.6-27.4 28.2-46 21.5-18.6-6.8-28.2-27.4-21.5-46s27.4-28.2 46-21.5c18.7 6.7 28.3 27.3 21.5 46"/><path class="st8" d="M147.5 164.3c-.1.3-.2.5-.4.7l-1-.4.3-.6c.1-.3.1-.5 0-.7s-.4-.3-.7-.5l-5.5-2 .5-1.2 5.5 2c.7.2 1.2.6 1.4 1 .2.6.2 1.1-.1 1.7z"/><path transform="rotate(-25.001 144.857 183.149)" class="st8" d="M140.8 182.3h8.1v1.7h-8.1z"/><path class="st8" d="M158.4 192.2l1.7.6-1.2 3.3 3 1.1 1.2-3.3 1.6.6-2.8 7.6-1.6-.6 1.1-2.9-3-1.1-1.1 2.9-1.6-.5zm23.5-45c-.5 1.3-1.2 2.1-2.1 2.5-1 .4-2.1.4-3.5-.1l-2.2-.8 2.8-7.6 2.4.9c1.2.5 2.1 1.1 2.5 2 .5.9.6 1.9.1 3.1zm-1.7-.6c.6-1.6.2-2.7-1.3-3.2l-.9-.3-1.8 5 .7.3c1.7.5 2.7-.1 3.3-1.8zm11.2 17.4l-2-4.2 7.4-3.5 1.9 4.3-1.2.6-1.3-2.7-1.6.7 1.2 2.5-1.3.6-1.2-2.5-1.9.9 1.3 2.7zm0 15l.6-1.6 7.6 2.7-1.6 4.4-1.3-.5 1-2.8-2-.7-.9 2.6-1.3-.5.9-2.6zm-10.3 17.8l-2.8 1.3-1.7-3.7c.4-.4.8-.7 1.2-.9.4-.2.8-.5 1.2-.7 1.1-.5 2.1-.6 2.9-.2.9.4 1.6 1.1 2.1 2.3.5 1.2.6 2.2.3 3.2-.4 1-1.1 1.7-2.3 2.2-.7.3-1.5.5-2.3.6l-.1-1.4c.6 0 1.2-.1 1.8-.4.7-.3 1.1-.8 1.3-1.4.2-.6.1-1.3-.2-2.1-.4-.8-.8-1.3-1.3-1.6-.5-.3-1.1-.2-1.7 0-.3.1-.6.3-.9.5l.7 1.5 1.4-.6.4 1.4zm-18.5-47.5l-1.7.9-3.4-2.2-.4.8 1.2 2.6-1.6.7-3.4-7.3 1.6-.8 1.5 3.4.2-1.2.9-3.4 1.7-.8-1.1 4.5z"/><path class="st10" d="M169.8 161.5c-4.5 0-8.7 2.8-10.3 7.2-2.1 5.7.9 12 6.6 14.1 1.2.5 2.5.7 3.8.7 4.5 0 8.7-2.8 10.3-7.2 2.1-5.7-.9-12-6.6-14.1-1.3-.5-2.5-.7-3.8-.7"/><ellipse transform="rotate(-70.001 169.604 171.986)" class="st7" cx="169.6" cy="172" rx="9.3" ry="9.3"/><path class="st13" d="M89.7 145c-2.1 0-4.1 1.3-4.9 3.4-11.4 31.3-21.2 64.4-21.3 64.5-.8 2.7.7 5.6 3.5 6.4.5.1 1 .2 1.5.2 2.2 0 4.3-1.5 4.9-3.7 0 0 0-.1.1-.4 1.1-3.7 10.4-34.6 21-63.5 1-2.7-.4-5.6-3.1-6.6-.5-.2-1.1-.3-1.7-.3"/></svg>