<?xml version="1.0" encoding="utf-8"?>
<!-- Generator: Adobe Illustrator 26.2.1, SVG Export Plug-In . SVG Version: 6.00 Build 0)  -->
<svg version="1.1" id="Layer_1" xmlns="http://www.w3.org/2000/svg" xmlns:xlink="http://www.w3.org/1999/xlink" x="0px" y="0px"
	 viewBox="0 0 50 50" style="enable-background:new 0 0 50 50;" xml:space="preserve">
<style type="text/css">
	.st0{fill:#00C8E2;}
	.st1{fill:#00DFFC;}
	.st2{fill:#494949;}
</style>
<g>
	<path class="st0" d="M47.1,18.7l-9.7,3.5l-4.3,1.6l-11.3,4.1l-9.1,3.3l-0.8,0.3c0-0.1,0-0.2,0-0.3c0-0.1,0-0.2,0-0.2
		c0-0.1,0-0.1,0-0.2v0c-0.2-0.2-0.5-0.3-0.7-0.5c-0.2-0.2-0.4-0.3-0.6-0.5c0,0-0.1-0.1-0.1-0.1c-0.2-0.2-0.4-0.4-0.6-0.6
		c-0.2-0.2-0.4-0.4-0.6-0.6C9,28.3,8.7,28,8.5,27.7c-0.1-0.2-0.2-0.3-0.4-0.5C8,27,7.8,26.7,7.6,26.5c-0.1-0.2-0.3-0.4-0.4-0.6
		c-0.2-0.3-0.3-0.6-0.5-0.9c-0.1-0.2-0.2-0.5-0.3-0.7c-0.1-0.3-0.2-0.6-0.3-0.9C6,23,5.9,22.7,5.9,22.4c0,0,0,0,0-0.1
		c-0.1-0.3-0.1-0.5-0.2-0.8c-0.1-0.3-0.1-0.6-0.2-0.9c0-0.3-0.1-0.5-0.1-0.8c0-0.3,0-0.7,0-1.1c0-0.6,0-1.2,0.1-1.7L2.9,18
		C3,17.7,3,17.5,3,17.3l2.6-0.9l15.3-5.6l0,0l8-2.9L36.7,5c0.2,0,0.3,0.1,0.5,0.2c0.2,0,0.3,0.1,0.5,0.2h0c0.3,0.1,0.6,0.2,0.9,0.4
		c0.1,0,0.2,0.1,0.2,0.1c0.3,0.1,0.5,0.2,0.8,0.4c0,0,0,0,0.1,0c0.3,0.2,0.6,0.4,0.9,0.5c0.3,0.2,0.5,0.3,0.8,0.5
		c0.2,0.2,0.5,0.3,0.7,0.5c0.1,0.1,0.3,0.2,0.4,0.3c0.2,0.2,0.4,0.3,0.6,0.5c0.1,0.1,0.2,0.2,0.3,0.4c0.1,0,0.1,0.1,0.2,0.2
		c0.1,0.1,0.2,0.3,0.4,0.4c0.1,0.1,0.1,0.2,0.2,0.3c0.1,0.1,0.2,0.3,0.4,0.5c0.2,0.3,0.5,0.7,0.7,1.1c0.1,0.2,0.2,0.3,0.3,0.5
		c0.4,0.8,0.8,1.5,1,2.4c0.1,0.2,0.1,0.4,0.2,0.5c0,0.2,0.1,0.4,0.1,0.5c0.1,0.5,0.2,1.1,0.3,1.6c0,0.2,0,0.4,0.1,0.5
		c0,0.2,0,0.3,0,0.5C47.1,18.3,47.1,18.5,47.1,18.7z"/>
	<path class="st1" d="M37.7,5.3l-8.2,3l-9.1,3.3L5.5,17L2.9,18C3,17.7,3,17.5,3,17.3l2.6-0.9c1.2-6.7,7-11.9,14.1-11.9
		c0.3,0,0.6,0,0.9,0c0.3,0,0.6,0,0.9,0.1c0.3,0,0.6,0.1,0.8,0.1c0.3,0.1,0.6,0.1,1,0.2c0.1,0,0.1,0,0.2,0c0.3,0.1,0.5,0.1,0.8,0.2
		c0.2,0.1,0.5,0.2,0.7,0.3c0.3,0.1,0.6,0.2,0.8,0.4C25.9,5.9,26.1,6,26.2,6c0.6-0.3,1.2-0.6,1.9-0.8c0.5-0.2,1-0.3,1.5-0.4
		c0,0,0,0,0,0c0.2,0,0.3-0.1,0.5-0.1c0.3,0,0.6-0.1,0.8-0.1c0.2,0,0.3,0,0.4,0c0.2,0,0.3,0,0.4,0c0.3,0,0.6,0,0.9,0c0.3,0,0.7,0,1,0
		c0.3,0,0.7,0,1,0.1c0.3,0,0.6,0.1,0.9,0.2c0.1,0,0.2,0,0.2,0c0.3,0.1,0.6,0.1,0.8,0.2c0.2,0,0.3,0.1,0.5,0.2
		C37.3,5.2,37.5,5.3,37.7,5.3z"/>
	<g>
		<g>
			<g>
				<path class="st2" d="M19.7,4.5c0.3,0,0.6,0,0.9,0c0.3,0,0.6,0,0.9,0.1c0.3,0,0.6,0.1,0.8,0.1c0.3,0.1,0.6,0.1,1,0.2
					c0.1,0,0.1,0,0.2,0c0.3,0.1,0.5,0.1,0.8,0.2c0.2,0.1,0.5,0.2,0.7,0.3c0.3,0.1,0.6,0.2,0.8,0.4C25.9,5.9,26.1,6,26.2,6
					c0,0,0,0,0,0c1,0.5,1.9,1.1,2.7,1.8c0.2,0.1,0.4,0.3,0.5,0.5c2.8,2.6,4.5,6.3,4.5,10.5c0,0.1,0,0.3,0,0.4c0,1.6-0.4,3.2-0.9,4.6
					c-1.3,3.3-3.7,6.1-6.9,7.7c-2,1-4.2,1.6-6.5,1.6c-2.5,0-5-0.7-7-1.8c-0.2-0.1-0.5-0.3-0.7-0.5h0v0c-0.2-0.2-0.5-0.3-0.7-0.5
					c-0.2-0.2-0.4-0.3-0.6-0.5c0,0-0.1-0.1-0.1-0.1c-0.2-0.2-0.4-0.4-0.6-0.6c-0.2-0.2-0.4-0.4-0.6-0.6C9,28.3,8.7,28,8.5,27.7
					c-0.1-0.2-0.2-0.3-0.4-0.5C8,27,7.8,26.7,7.6,26.5c-0.1-0.2-0.3-0.4-0.4-0.6c-0.2-0.3-0.3-0.6-0.5-0.9c-0.1-0.2-0.2-0.5-0.3-0.7
					c-0.1-0.3-0.2-0.6-0.3-0.9C6,23,5.9,22.7,5.9,22.4c0,0,0,0,0-0.1c-0.1-0.3-0.1-0.5-0.2-0.8c-0.1-0.3-0.1-0.6-0.2-0.9
					c0-0.3-0.1-0.5-0.1-0.8c0-0.3,0-0.7,0-1.1c0-0.6,0-1.2,0.1-1.7c0-0.2,0.1-0.5,0.1-0.7C6.8,9.6,12.6,4.5,19.7,4.5 M19.7,3.5
					c-7.5,0-13.8,5.3-15.1,12.7c0,0.2-0.1,0.5-0.1,0.8c-0.1,0.7-0.1,1.3-0.1,1.9c0,0.4,0,0.8,0,1.2c0,0.3,0.1,0.5,0.1,0.8
					c0,0.4,0.1,0.7,0.2,1c0,0.3,0.1,0.6,0.2,0.9c0,0,0,0,0,0c0,0,0,0,0,0.1C5,23,5.1,23.3,5.2,23.6c0.1,0.3,0.2,0.7,0.4,1
					c0.1,0.3,0.2,0.5,0.3,0.8c0.1,0.3,0.3,0.6,0.5,1c0.1,0.2,0.3,0.4,0.4,0.7c0.1,0.2,0.3,0.5,0.6,0.8c0.1,0.2,0.3,0.3,0.4,0.5
					C8,28.7,8.3,29,8.5,29.2c0.2,0.2,0.4,0.4,0.6,0.6c0.2,0.2,0.5,0.4,0.7,0.6c0,0,0,0,0.1,0.1c0,0,0,0,0.1,0.1
					c0.2,0.2,0.4,0.3,0.6,0.5c0.3,0.2,0.5,0.4,0.7,0.5c0,0,0.1,0.1,0.1,0.1c0.2,0.1,0.5,0.3,0.7,0.4c2.3,1.3,4.9,2,7.5,2
					c2.4,0,4.9-0.6,7-1.7c3.4-1.7,6-4.7,7.3-8.2c0.6-1.6,0.9-3.3,1-4.9c0-0.1,0-0.3,0-0.5c0-4.2-1.8-8.3-4.8-11.2
					c-0.2-0.2-0.4-0.4-0.6-0.5c-0.9-0.7-1.8-1.4-2.8-1.9c0,0,0,0-0.1,0l0,0c-0.1-0.1-0.3-0.2-0.5-0.3c-0.3-0.1-0.6-0.3-0.9-0.4
					c-0.2-0.1-0.4-0.2-0.6-0.2l-0.2-0.1C24.3,4.2,24,4.1,23.7,4c0,0-0.1,0-0.1,0c0,0-0.1,0-0.1,0c-0.3-0.1-0.7-0.2-1-0.2
					c-0.3-0.1-0.6-0.1-0.9-0.1c-0.3,0-0.6-0.1-0.9-0.1C20.3,3.5,20,3.5,19.7,3.5L19.7,3.5z"/>
			</g>
			<g>
				<path class="st2" d="M32.8,4.5c0.3,0,0.7,0,1,0c0.3,0,0.7,0,1,0.1c0.3,0,0.6,0.1,0.9,0.2c0.1,0,0.2,0,0.2,0
					c0.3,0.1,0.6,0.1,0.8,0.2c0.2,0,0.3,0.1,0.5,0.2c0.2,0,0.3,0.1,0.5,0.2h0c0.3,0.1,0.6,0.2,0.9,0.4c0.1,0,0.2,0.1,0.2,0.1
					c0.3,0.1,0.5,0.2,0.8,0.4c0,0,0,0,0.1,0c0.3,0.2,0.6,0.4,0.9,0.5c0.3,0.2,0.5,0.3,0.8,0.5c0.2,0.2,0.5,0.3,0.7,0.5
					c0.1,0.1,0.3,0.2,0.4,0.3c0.2,0.2,0.4,0.3,0.6,0.5c0.1,0.1,0.2,0.2,0.3,0.4c0.1,0,0.1,0.1,0.2,0.2c0.1,0.1,0.2,0.3,0.4,0.4
					c0.1,0.1,0.1,0.2,0.2,0.3c0.1,0.1,0.2,0.3,0.4,0.5c0.2,0.3,0.5,0.7,0.7,1.1c0.1,0.2,0.2,0.3,0.3,0.5c0.4,0.8,0.8,1.5,1,2.4
					c0.1,0.2,0.1,0.4,0.2,0.5c0,0.2,0.1,0.4,0.1,0.5c0.1,0.5,0.2,1.1,0.3,1.6c0,0.2,0,0.4,0.1,0.5c0,0.2,0,0.3,0,0.5
					c0,0.2,0,0.5,0,0.7v0c0,0.4,0,0.7,0,1.1c0,0,0,0,0,0.1c0,0.2,0,0.5-0.1,0.7c0,0.3-0.1,0.6-0.1,0.9c-0.1,0.3-0.1,0.5-0.2,0.8
					c0,0,0,0,0,0.1c0,0.1-0.1,0.3-0.1,0.4c0,0.2-0.1,0.3-0.1,0.4c-0.1,0.3-0.2,0.6-0.3,0.9c-0.1,0.2-0.2,0.5-0.3,0.7
					c-0.2,0.3-0.3,0.6-0.5,0.9c-0.1,0.2-0.2,0.4-0.4,0.6c-0.2,0.2-0.3,0.5-0.5,0.7c-0.1,0.2-0.2,0.3-0.4,0.5
					c-0.2,0.3-0.5,0.6-0.8,0.9c-0.2,0.2-0.4,0.4-0.6,0.6c-0.2,0.2-0.4,0.4-0.6,0.6c0,0-0.1,0-0.1,0.1c-0.2,0.2-0.4,0.3-0.6,0.5
					c-0.1,0.1-0.2,0.2-0.4,0.2c-0.1,0.1-0.2,0.2-0.4,0.2v0h0c-2.2,1.5-4.9,2.3-7.8,2.3c-2.3,0-4.6-0.6-6.5-1.6
					c-1.7-0.9-3.2-2.1-4.5-3.6c-2-2.4-3.2-5.4-3.3-8.7c0-0.1,0-0.3,0-0.4c0-2.6,0.7-5,1.9-7.1c0.2-0.3,0.3-0.6,0.5-0.9l0,0
					c1.3-2,3.2-3.6,5.3-4.7c0,0,0,0,0,0c0.6-0.3,1.2-0.6,1.9-0.8c0.5-0.2,1-0.3,1.5-0.4c0,0,0,0,0,0c0.2,0,0.3-0.1,0.5-0.1
					c0.3,0,0.6-0.1,0.8-0.1c0.2,0,0.3,0,0.4,0c0.2,0,0.3,0,0.4,0C32.2,4.5,32.5,4.5,32.8,4.5 M32.8,3.5c-0.3,0-0.6,0-0.9,0
					c-0.1,0-0.2,0-0.3,0l-0.1,0c-0.1,0-0.3,0-0.4,0l-0.1,0c-0.3,0-0.6,0.1-0.9,0.1c-0.2,0-0.3,0.1-0.5,0.1c0,0-0.1,0-0.1,0
					c-0.6,0.1-1.1,0.3-1.6,0.5c-0.7,0.2-1.4,0.5-2,0.9l0,0c0,0,0,0-0.1,0c-2.2,1.2-4.2,2.9-5.6,5c0,0,0,0,0,0.1
					c-0.2,0.3-0.4,0.6-0.6,0.9c-1.3,2.3-2,4.9-2,7.6c0,0.2,0,0.3,0,0.5c0.1,3.4,1.3,6.7,3.5,9.3c1.3,1.6,2.9,2.9,4.8,3.8
					c2.1,1.1,4.5,1.7,7,1.7c2.9,0,5.8-0.8,8.3-2.4c0,0,0.1,0,0.1-0.1c0.1-0.1,0.2-0.1,0.3-0.2c0.1-0.1,0.2-0.1,0.3-0.2l0.1,0
					c0.2-0.2,0.5-0.3,0.7-0.5c0,0,0.1,0,0.1-0.1c0,0,0,0,0,0c0.2-0.2,0.4-0.4,0.7-0.6c0.2-0.2,0.4-0.4,0.6-0.6
					c0.3-0.3,0.6-0.6,0.8-1c0.1-0.2,0.3-0.3,0.4-0.5c0.2-0.3,0.4-0.6,0.5-0.8c0.1-0.2,0.3-0.4,0.4-0.7c0.2-0.3,0.4-0.7,0.5-1
					c0.1-0.3,0.2-0.5,0.3-0.8c0.1-0.3,0.3-0.6,0.4-1c0-0.1,0.1-0.2,0.1-0.2l0.1-0.2c0.1-0.2,0.1-0.3,0.1-0.5l0,0c0,0,0,0,0,0
					c0,0,0,0,0-0.1c0.1-0.3,0.1-0.6,0.2-0.9c0.1-0.3,0.1-0.6,0.2-0.9c0-0.2,0-0.4,0.1-0.7l0,0c0-0.1,0-0.1,0-0.2c0-0.3,0-0.7,0-1.1
					c0-0.3,0-0.5,0-0.8l0-0.3l0-0.2l0-0.2c0-0.1,0-0.3,0-0.4c-0.1-0.6-0.2-1.2-0.3-1.8c0-0.2-0.1-0.4-0.1-0.5l0-0.1
					c0-0.2-0.1-0.3-0.1-0.5c-0.3-0.9-0.6-1.7-1.1-2.5c-0.1-0.2-0.2-0.4-0.3-0.5c-0.2-0.4-0.5-0.8-0.7-1.1c-0.1-0.1-0.2-0.3-0.4-0.5
					c-0.1-0.1-0.2-0.2-0.2-0.3c-0.1-0.2-0.2-0.3-0.4-0.4c0-0.1-0.1-0.1-0.2-0.2c-0.1-0.1-0.2-0.2-0.3-0.3L43.6,8
					c-0.2-0.2-0.4-0.4-0.6-0.6c-0.1-0.1-0.3-0.3-0.4-0.4c-0.2-0.2-0.4-0.3-0.5-0.4l-0.1-0.1c-0.3-0.2-0.5-0.4-0.8-0.6
					c-0.3-0.2-0.6-0.4-0.9-0.6c-0.1,0-0.1-0.1-0.2-0.1c-0.3-0.1-0.5-0.3-0.8-0.4c-0.1,0-0.2-0.1-0.2-0.1c-0.3-0.1-0.6-0.3-1-0.4
					c0,0,0,0-0.1,0c-0.2-0.1-0.3-0.1-0.5-0.2l-0.1,0c-0.1,0-0.3-0.1-0.4-0.1c-0.2-0.1-0.5-0.1-0.8-0.2c0,0-0.1,0-0.1,0
					c0,0-0.1,0-0.1,0c-0.3-0.1-0.6-0.1-0.9-0.2c-0.3,0-0.7-0.1-1.1-0.1C33.5,3.5,33.2,3.5,32.8,3.5L32.8,3.5z"/>
			</g>
		</g>
		<g>
			<path class="st2" d="M26.2,16.9c2.9,0,5.5,0.8,7.8,2.3c1.3,0.8,2.4,1.9,3.4,3.1c1.9,2.3,3.1,5.3,3.2,8.5v0c0,0.1,0,0.1,0,0.2
				c0,0.1,0,0.1,0,0.2c0,7.9-6.4,14.3-14.3,14.3c-7.8,0-14.2-6.2-14.3-14c0-0.1,0-0.2,0-0.3c0-0.1,0-0.2,0-0.2c0-0.1,0-0.1,0-0.2v0
				c0.1-4.9,2.7-9.1,6.5-11.6C20.7,17.8,23.4,16.9,26.2,16.9 M26.2,15.9c-3,0-5.8,0.8-8.3,2.5c-4.2,2.7-6.8,7.4-7,12.4
				c0,0.1,0,0.2,0,0.3c0,0.1,0,0.1,0,0.2c0,0.1,0,0.2,0,0.3c0.2,8.3,7,15,15.3,15c8.4,0,15.3-6.9,15.3-15.3c0-0.1,0-0.1,0-0.2l0,0
				c0-0.1,0-0.2,0-0.3c-0.1-3.4-1.3-6.5-3.4-9.1c-1-1.3-2.2-2.4-3.6-3.3C32.1,16.8,29.2,15.9,26.2,15.9L26.2,15.9z"/>
		</g>
	</g>
	<path class="st2" d="M34.5,18.9c-2.4-1.5-5.2-2.5-8.3-2.5c-3.1,0-5.9,0.9-8.3,2.5c0.2,5.7,3.5,10.7,8.3,13.1
		C31,29.5,34.3,24.6,34.5,18.9z"/>
	<g>
		<path class="st2" d="M32.8,4.5c0.3,0,0.7,0,1,0c0.3,0,0.7,0,1,0.1c0.3,0,0.6,0.1,0.9,0.2c0.1,0,0.2,0,0.2,0
			c0.3,0.1,0.6,0.1,0.8,0.2c0.2,0,0.3,0.1,0.5,0.2c0.2,0,0.3,0.1,0.5,0.2h0c0.3,0.1,0.6,0.2,0.9,0.4c0.1,0,0.2,0.1,0.2,0.1
			c0.3,0.1,0.5,0.2,0.8,0.4c0,0,0,0,0.1,0c0.3,0.2,0.6,0.4,0.9,0.5c0.3,0.2,0.5,0.3,0.8,0.5c0.2,0.2,0.5,0.3,0.7,0.5
			c0.1,0.1,0.3,0.2,0.4,0.3c0.2,0.2,0.4,0.3,0.6,0.5c0.1,0.1,0.2,0.2,0.3,0.4c0.1,0,0.1,0.1,0.2,0.2c0.1,0.1,0.2,0.3,0.4,0.4
			c0.1,0.1,0.1,0.2,0.2,0.3c0.1,0.1,0.2,0.3,0.4,0.5c0.2,0.3,0.5,0.7,0.7,1.1c0.1,0.2,0.2,0.3,0.3,0.5c0.4,0.8,0.8,1.5,1,2.4
			c0.1,0.2,0.1,0.4,0.2,0.5c0,0.2,0.1,0.4,0.1,0.5c0.1,0.5,0.2,1.1,0.3,1.6c0,0.2,0,0.4,0.1,0.5c0,0.2,0,0.3,0,0.5
			c0,0.2,0,0.5,0,0.7v0c0,0.4,0,0.7,0,1.1c0,0,0,0,0,0.1c0,0.2,0,0.5-0.1,0.7c0,0.3-0.1,0.6-0.1,0.9c-0.1,0.3-0.1,0.5-0.2,0.8
			c0,0,0,0,0,0.1c0,0.1-0.1,0.3-0.1,0.4c0,0.2-0.1,0.3-0.1,0.4c-0.1,0.3-0.2,0.6-0.3,0.9c-0.1,0.2-0.2,0.5-0.3,0.7
			c-0.2,0.3-0.3,0.6-0.5,0.9c-0.1,0.2-0.2,0.4-0.4,0.6c-0.2,0.2-0.3,0.5-0.5,0.7c-0.1,0.2-0.2,0.3-0.4,0.5c-0.2,0.3-0.5,0.6-0.8,0.9
			c-0.2,0.2-0.4,0.4-0.6,0.6c-0.2,0.2-0.4,0.4-0.6,0.6c0,0-0.1,0-0.1,0.1c-0.2,0.2-0.4,0.3-0.6,0.5c-0.1,0.1-0.2,0.2-0.4,0.2
			c-0.1,0.1-0.2,0.2-0.4,0.2v0h0c0,0.1,0,0.1,0,0.2c0,0.1,0,0.1,0,0.2c0,7.9-6.4,14.3-14.3,14.3c-7.8,0-14.2-6.2-14.3-14
			c0-0.1,0-0.2,0-0.3c0-0.1,0-0.2,0-0.2c0-0.1,0-0.1,0-0.2h0v0c-0.2-0.2-0.5-0.3-0.7-0.5c-0.2-0.2-0.4-0.3-0.6-0.5
			c0,0-0.1-0.1-0.1-0.1c-0.2-0.2-0.4-0.4-0.6-0.6c-0.2-0.2-0.4-0.4-0.6-0.6C9,28.3,8.7,28,8.5,27.7c-0.1-0.2-0.2-0.3-0.4-0.5
			C8,27,7.8,26.7,7.6,26.5c-0.1-0.2-0.3-0.4-0.4-0.6c-0.2-0.3-0.3-0.6-0.5-0.9c-0.1-0.2-0.2-0.5-0.3-0.7c-0.1-0.3-0.2-0.6-0.3-0.9
			C6,23,5.9,22.7,5.9,22.4c0,0,0,0,0-0.1c-0.1-0.3-0.1-0.5-0.2-0.8c-0.1-0.3-0.1-0.6-0.2-0.9c0-0.3-0.1-0.5-0.1-0.8
			c0-0.3,0-0.7,0-1.1c0-0.6,0-1.2,0.1-1.7c0-0.2,0.1-0.5,0.1-0.7c1.2-6.7,7-11.9,14.1-11.9c0.3,0,0.6,0,0.9,0c0.3,0,0.6,0,0.9,0.1
			c0.3,0,0.6,0.1,0.8,0.1c0.3,0.1,0.6,0.1,1,0.2c0.1,0,0.1,0,0.2,0c0.3,0.1,0.5,0.1,0.8,0.2c0.2,0.1,0.5,0.2,0.7,0.3
			c0.3,0.1,0.6,0.2,0.8,0.4c0.2,0.1,0.3,0.2,0.5,0.2h0c0.6-0.3,1.2-0.6,1.9-0.8c0.5-0.2,1-0.3,1.5-0.4c0,0,0,0,0,0
			c0.2,0,0.3-0.1,0.5-0.1c0.3,0,0.6-0.1,0.8-0.1c0.2,0,0.3,0,0.4,0c0.2,0,0.3,0,0.4,0C32.2,4.5,32.5,4.5,32.8,4.5 M32.8,2
			c-0.3,0-0.7,0-1,0c-0.1,0-0.3,0-0.4,0l-0.1,0c-0.2,0-0.4,0-0.5,0.1l0,0c-0.4,0-0.7,0.1-1,0.2c-0.2,0-0.3,0.1-0.5,0.1
			c-0.1,0-0.1,0-0.2,0c-0.6,0.1-1.2,0.3-1.7,0.5c-0.4,0.1-0.7,0.3-1.1,0.4c-0.1-0.1-0.2-0.1-0.4-0.2c-0.2-0.1-0.4-0.2-0.7-0.3
			L25,2.8c-0.3-0.1-0.7-0.2-0.9-0.3c-0.1,0-0.1,0-0.2-0.1c0,0-0.1,0-0.1,0c-0.4-0.1-0.7-0.2-1.1-0.2c-0.3-0.1-0.6-0.1-1-0.2
			C21.4,2,21,2,20.7,2c-0.3,0-0.7,0-1,0C11.5,2,4.5,7.8,3.1,15.9c0,0.3-0.1,0.5-0.1,0.8c-0.1,0.8-0.1,1.4-0.1,2c0,0.5,0,0.9,0,1.3
			C3,20.3,3,20.6,3,20.9c0.1,0.4,0.1,0.8,0.2,1.1c0.1,0.3,0.1,0.6,0.2,1c0,0,0,0.1,0,0.1c0,0,0,0,0,0.1c0.1,0.3,0.2,0.6,0.3,1
			c0.1,0.4,0.3,0.7,0.4,1.1c0.1,0.3,0.3,0.6,0.4,0.9c0.2,0.3,0.3,0.7,0.6,1.1c0.1,0.2,0.3,0.5,0.4,0.7c0.2,0.3,0.4,0.6,0.6,0.9
			c0.1,0.2,0.3,0.4,0.4,0.5c0.3,0.4,0.6,0.7,0.9,1c0.3,0.3,0.5,0.5,0.7,0.7c0.3,0.2,0.5,0.5,0.7,0.6c0,0,0,0,0,0
			c0,0,0.1,0.1,0.1,0.1c0.1,0.1,0.3,0.2,0.4,0.3C9.9,40.9,17.3,48,26.2,48c9,0,16.3-7.1,16.8-16c0.1-0.1,0.3-0.2,0.4-0.3
			c0,0,0.1-0.1,0.1-0.1c0,0,0,0,0,0c0.2-0.2,0.5-0.4,0.7-0.6c0.2-0.2,0.5-0.4,0.7-0.7c0.3-0.3,0.6-0.7,0.9-1.1
			c0.1-0.2,0.3-0.4,0.4-0.5c0.2-0.3,0.5-0.6,0.6-0.9c0.2-0.3,0.3-0.5,0.4-0.7c0.2-0.4,0.4-0.8,0.6-1.1c0.1-0.3,0.3-0.6,0.4-0.9
			c0.1-0.3,0.3-0.7,0.4-1.1c0-0.1,0.1-0.2,0.1-0.3l0-0.1c0,0,0-0.1,0-0.1c0-0.2,0.1-0.3,0.1-0.5c0,0,0-0.1,0-0.1
			c0.1-0.3,0.2-0.7,0.2-1c0.1-0.3,0.1-0.7,0.2-1c0-0.2,0.1-0.5,0.1-0.7c0-0.1,0-0.2,0-0.3c0-0.4,0-0.8,0-1.2c0-0.3,0-0.6,0-0.8
			c0,0,0,0,0-0.1l0-0.5c0,0,0-0.1,0-0.1l0-0.1c0-0.2,0-0.3-0.1-0.5c-0.1-0.6-0.2-1.3-0.4-1.9c0-0.2-0.1-0.4-0.2-0.6l0-0.1
			c-0.1-0.2-0.1-0.4-0.2-0.5c-0.3-1-0.7-1.9-1.2-2.8c-0.1-0.2-0.2-0.4-0.3-0.6c-0.2-0.4-0.5-0.8-0.8-1.2c-0.1-0.2-0.3-0.3-0.4-0.5
			c-0.1-0.2-0.2-0.3-0.3-0.4c-0.1-0.2-0.3-0.3-0.4-0.5c-0.1-0.1-0.1-0.1-0.2-0.2C45,7.2,44.9,7.1,44.8,7l0,0
			c-0.2-0.2-0.4-0.4-0.7-0.7c-0.1-0.1-0.3-0.3-0.4-0.4c-0.2-0.2-0.4-0.3-0.6-0.5l-0.1-0.1c0,0,0,0,0,0c-0.3-0.2-0.5-0.4-0.9-0.6
			c-0.3-0.2-0.6-0.4-1-0.6C40.9,4,40.8,4,40.7,4c-0.3-0.2-0.6-0.3-0.8-0.4c-0.1-0.1-0.2-0.1-0.3-0.1c-0.3-0.1-0.7-0.3-1-0.4
			c0,0-0.1,0-0.1,0c-0.2-0.1-0.4-0.1-0.5-0.2l-0.1,0c-0.2,0-0.3-0.1-0.5-0.1c-0.3-0.1-0.6-0.2-0.9-0.2c-0.1,0-0.1,0-0.2,0
			c0,0-0.1,0-0.1,0c-0.3-0.1-0.7-0.1-1-0.2C34.8,2.1,34.4,2,34,2C33.6,2,33.2,2,32.8,2L32.8,2z"/>
	</g>
</g>
</svg>
