<svg xmlns="http://www.w3.org/2000/svg" viewBox="0 0 50 50"><path fill="#8256d8" d="M36.6 14.9l7.8 2.5-6.7 4.7.1 8.2-6.5-4.9-7.8 2.7 2.6-7.8-4.9-6.6 8.2.1 4.8-6.7 2.4 7.8z"/><path fill="#a475ef" d="M44.2 12.4l-5.6-3.6-7.7-4.4-6-2.8c-3.2-.1-21.4 8.9-21.4 12.1L3 21.5l.5 15.1L15 44.2l31-11c.7-.4-.8-18.7-1.8-20.7z"/><path fill="none" stroke="#444" stroke-linecap="round" stroke-linejoin="round" stroke-width="2.5" d="M29.5 46.4l-2.2 1.3c-1.7 1-3.8 1-5.5 0l-15.6-9c-1.7-1-2.7-2.8-2.7-4.7V16c0-2 1-3.8 2.7-4.7l15.6-9c1.7-1 3.8-1 5.5 0l15.6 9c1.7 1 2.7 2.8 2.7 4.7v18c0 2-1 3.8-2.7 4.7l-2.5 1.4"/><path fill="none" stroke="#444" stroke-miterlimit="10" d="M3.8 37l40.7-23.3"/><path fill="none" stroke="#444" stroke-miterlimit="10" stroke-width=".5" d="M44.5 36.9L24.4 25.1"/><path fill="none" stroke="#444" stroke-linecap="round" stroke-linejoin="round" d="M35.8 28.9c0-.5 1.7-8.5 1.7-8.5m2.2 8.7c0-.5 1.7-8.5 1.7-8.5m-6.2 2.6h7.2m-7.7 3.1h7.2"/></svg>