<svg xmlns="http://www.w3.org/2000/svg" id="Camada_1" version="1.1" viewBox="0 0 50 50"><defs><style>.st0,.st2{fill:none;stroke:#444}.st0{stroke-miterlimit:10;stroke-width:.5px}.st2{stroke-linecap:round;stroke-linejoin:round;stroke-width:2.5px}.st4{fill:#444}</style></defs><path fill="#dc5e82" d="M47.9 20.1c-.2-.8-2.7-7.5-3.2-8.1l-3-3.5h-.2l-7.6-5.7-7.8-.7c-3.2 0-14.5.3-21.4 10.2L.7 23H.5l4 13.5c.1.4 4.5 5.7 4.9 5.9l5.6 3 32.2-11.7c.7-.4 1.7-8.6.8-13.4z"/><path d="M32.2 47.4c-7 2.3-15 1.2-21.3-3.6C.5 36.1-1.6 21.4 6.2 11" class="st2"/><path d="M6 11.2c2-3 4.7-4.7 4.7-4.7l.7-.5C19.5.2 30.7.1 39 6.4c10.4 7.8 12.4 22.5 4.7 32.8" class="st2"/><path fill="none" stroke="#444" stroke-linecap="round" stroke-linejoin="round" d="M17.9 13.9h1.6c2.6 0 4.9 1.6 5.7 4.1l4.9 14.8c.8 2.4 3.1 5.3 5.7 5.3M16 38l9.8-18"/><path d="M39.2 36.6c2.3-3 3.7-6.7 3.7-10.8C42.9 16 34.9 8 25.1 8s-3.4.2-5 .7" class="st0"/><path d="M43.2 35.3c0-.1-.2-.2-.3-.1l-3.6 1.3.3-3.8c0-.1 0-.3-.2-.3-.1 0-.3 0-.3.2l-.3 4.2v.2h.2l4-1.5h.1v-.2z" class="st4"/><g><path d="M13.3 12.6c-3.7 3.3-6 8-6 13.3 0 9.8 8 17.8 17.8 17.8s5.2-.6 7.5-1.6" class="st0"/><path d="M9.2 13.1c0 .1.2.2.3.2l3.8-.7-1 3.7c0 .1 0 .3.2.3.1 0 .3 0 .3-.2l1.1-4.1v-.2h-.2l-4.1.8h-.1v.2z" class="st4"/></g></svg>