<svg xmlns="http://www.w3.org/2000/svg" version="1" viewBox="0 0 50 50"><path fill="#71BAC0" d="M5.364 27.18v.007c.883 7.993 6.553 14.561 14.07 16.77l21.991-8.004a19.597 19.597 0 0 0 3.174-8.558h2.616a.306.306 0 0 0 .252-.481l-2.838-4.109c-1.09-9.87-9.479-17.56-19.633-17.56-10.077 0-18.42 7.583-19.602 17.353H2.785a.306.306 0 0 0-.252.48l2.831 4.102z"/><path fill="#7ED0D6" d="M34.333 7.6a19.64 19.64 0 0 0-9.343-2.355c-8.304 0-15.427 5.151-18.338 12.43L34.333 7.6z"/><g fill="#444"><path d="M48.495 26.203l-2.661-3.854C44.517 11.863 35.615 3.995 24.997 3.995c-10.237 0-18.938 7.385-20.681 17.353h-1.53c-.581 0-1.108.319-1.378.833-.27.514-.232 1.13.097 1.607l2.653 3.845c1.314 10.496 10.218 18.372 20.839 18.372a1.25 1.25 0 0 0 0-2.5c-9.426 0-17.317-7.04-18.383-16.389v-.122l1.482 2.154a.433.433 0 0 0 .709 0l1.459-2.107A14.864 14.864 0 0 0 24.995 39.89c7.297 0 13.625-5.438 14.718-12.65l.021-.144h-2.22a.174.174 0 0 1-.157-.095.178.178 0 0 1 .011-.182l2.387-3.464.027-.039v-.001l1.609-2.33c.033-.049.087-.078.147-.078s.115.028.149.078l3.561 5.159H43.49l-.133 1.101a18.468 18.468 0 0 1-2.969 8.016 1.248 1.248 0 0 0 .345 1.733c.572.384 1.352.23 1.733-.345a21 21 0 0 0 3.21-8.005h1.538c.58 0 1.108-.319 1.378-.832.27-.514.233-1.13-.097-1.609zm-11.332.474a.43.43 0 0 0 .352.669h1.928C38.306 34.365 32.12 39.64 24.995 39.64c-7.418 0-13.656-5.539-14.529-12.893l2.367-3.432a.425.425 0 0 0-.351-.668h-1.935c1.136-7.015 7.321-12.287 14.448-12.287 7.419 0 13.657 5.539 14.528 12.892l-2.36 3.425zm4.376-6.019a.428.428 0 0 0-.354.187l-1.46 2.114a14.86 14.86 0 0 0-14.73-12.849c-7.298 0-13.625 5.435-14.718 12.643l-.022.144h2.227c.067 0 .125.035.156.094a.175.175 0 0 1-.011.183l-2.394 3.47-.026.039v.001l-1.608 2.323c-.069.1-.229.1-.297 0l-3.551-5.159h1.751l.133-1.1C7.756 13.482 15.65 6.495 24.997 6.495c9.449 0 17.355 7.071 18.39 16.448l.008.076-1.502-2.175a.427.427 0 0 0-.354-.186z"/><path d="M22.736 29.469c-.865 0-1.636-.19-2.313-.568a4.045 4.045 0 0 1-1.586-1.586c-.38-.679-.57-1.45-.57-2.315 0-.864.19-1.635.57-2.313a4.02 4.02 0 0 1 1.586-1.586c.677-.38 1.448-.568 2.313-.568 1.396 0 2.567.545 3.511 1.635l2.075-1.914a6.57 6.57 0 0 0-2.464-1.836c-.977-.425-2.071-.638-3.281-.638-1.437 0-2.73.308-3.88.927a6.937 6.937 0 0 0-2.714 2.573c-.657 1.097-.987 2.338-.987 3.721s.33 2.623.987 3.721a6.923 6.923 0 0 0 2.714 2.573c1.149.618 2.437.927 3.859.927 1.211 0 2.308-.213 3.292-.638a6.465 6.465 0 0 0 2.474-1.856l-2.075-1.914c-.945 1.103-2.115 1.655-3.511 1.655z"/><path d="M34.776 24.123l-.011-1.181h-1.408l.217-1.733H32.36l-.216 1.733h-1.593l.217-1.733h-1.213l-.217 1.733H27.78v1.181h1.418l-.227 1.755h-1.559v1.18h1.418l-.216 1.733h1.213l.217-1.733h1.592l-.217 1.733h1.224l.217-1.733h1.548v-1.18H33l.217-1.755h1.559zm-3 1.755h-1.593l.228-1.755h1.592l-.227 1.755z"/></g></svg>