<svg xmlns="http://www.w3.org/2000/svg" version="1" viewBox="0 0 50 50"><path fill="#DC5E82" d="M14.708 44.425l30.586-11.132c3.173-7.887 1.566-17.247-4.828-23.64-7.693-7.693-19.695-8.464-28.25-2.291L7.857 3.003 6.611 13.271C1.137 21.745 2.11 33.169 9.53 40.589a21.886 21.886 0 0 0 5.178 3.836z"/><path fill="#F56991" d="M35.27 5.834C28 1.948 19.002 2.443 12.187 7.362L7.828 3.003 6.581 13.271a21.625 21.625 0 0 0-1.898 3.696L35.27 5.834z"/><path fill="#031326" d="M41.35 8.769C33.536.954 21.506-.247 12.365 5.743L9.472 2.85a1.748 1.748 0 0 0-1.812-.418 1.742 1.742 0 0 0-1.168 1.446l-1.088 8.961c-5.685 9.053-4.342 21.05 3.242 28.634a23.158 23.158 0 0 0 24.628 5.248 1.248 1.248 0 1 0-.892-2.334 20.665 20.665 0 0 1-21.968-4.682c-6.471-6.471-7.838-16.539-3.507-24.468l-.446 3.679 5.735-.698c-3.072 5.603-2.102 12.542 2.477 17.12a14.338 14.338 0 0 0 10.214 4.235c3.86 0 7.49-1.504 10.221-4.234a14.367 14.367 0 0 0 4.235-10.222c0-3.86-1.505-7.487-4.235-10.213a14.403 14.403 0 0 0-17.721-2.132l-.407.248 3.259 3.259c.05.05.041.105.031.134a.126.126 0 0 1-.106.086l-7.305.885h-.007l-5.532.673 1.494-12.33 3.271 3.271.863-.623c8.238-5.943 19.439-5.034 26.635 2.161a20.603 20.603 0 0 1 4.555 22.29 1.249 1.249 0 1 0 2.318.934A23.098 23.098 0 0 0 41.35 8.769zm-28.224 9.336l7.128-.864a.876.876 0 0 0 .726-.585.875.875 0 0 0-.209-.909l-2.578-2.578a13.652 13.652 0 0 1 16.387 2.265c2.589 2.584 4.016 6.023 4.016 9.683s-1.427 7.102-4.017 9.691c-2.589 2.59-6.03 4.016-9.69 4.016s-7.099-1.426-9.684-4.016c-4.471-4.471-5.314-11.314-2.079-16.703z"/></svg>