<svg xmlns="http://www.w3.org/2000/svg" id="Layer_1" x="0" y="0" version="1.1" viewBox="0 0 50 50" xml:space="preserve"><style>.st3{stroke-width:.5;fill:none;stroke:#444;stroke-linecap:round;stroke-linejoin:round;stroke-miterlimit:10}</style><path fill="#35d3c3" d="M28.7 20.9l7.9 2.5-6.7 4.7.1 8.2-6.6-4.9-7.8 2.7 2.7-7.8-4.9-6.6 8.2.1 4.7-6.7z"/><path fill="#7df4eb" d="M45.1 12.4l-5.6-3.6-7.7-4.4-6-2.8c-3.2 0-21.5 8.9-21.5 12.1l-.5 7.8.5 15.1 11.5 7.6 31-11c.8-.5-.7-18.8-1.7-20.8z"/><path fill="none" stroke="#444" stroke-linecap="round" stroke-linejoin="round" stroke-miterlimit="10" stroke-width="2.5" d="M29.8 46.5l-2.2 1.3c-1.7 1-3.8 1-5.5 0l-15.6-9c-1.7-1-2.7-2.8-2.7-4.7V16c0-2 1-3.8 2.7-4.7l15.6-9c1.7-1 3.8-1 5.5 0l15.6 9c1.7 1 2.7 2.8 2.7 4.7v18c0 2-1 3.8-2.7 4.7l-2.5 1.4"/><path d="M21.4 39.2s1.4 1.4 3.6 1.4 3.6-1.4 3.6-1.4m-11.5-8.5c.6.9 1.4 1.2 2.1.7.8-.5.6-2 0-2.9-.6-.9-1.4-1.2-2.1-.7-.7.5-.5 2 0 2.9zm15.8 0c-.6.9-1.4 1.2-2.1.7-.8-.5-.6-2 0-2.9.6-.9 1.4-1.2 2.1-.7.7.5.5 2 0 2.9zm-7.9 5c-1.1 0-1.4.7-2.9.7-.7 0-2.1-.3-2.1-1.4 0-2.1 2-1.8 2.9-2.9.8-1.2.1-3.5 2.1-3.6m0 7.2c1.1 0 1.4.7 2.9.7.7 0 2.1-.3 2.1-1.4 0-2.1-2-1.8-2.9-2.9-.8-1.2-.1-3.5-2.1-3.6" class="st3"/><ellipse cx="27.9" cy="25.7" class="st3" rx="1.4" ry="2.1"/><ellipse cx="22.1" cy="25.7" class="st3" rx="1.4" ry="2.1"/><path fill="none" stroke="#444" stroke-linecap="round" stroke-linejoin="round" stroke-miterlimit="10" d="M32.1 43.5c0-2.9-.5-4.9-.7-5.7 1.6-1 4.6-3.6 5-7.1.2-2.3-.7-5-4.3-5.7 0-.7-.1-3.4-2.1-4.3-3.1-1.3-5 1.4-5 1.4m-7.2 22.1c0-2.9.5-5.6.7-6.4-1.6-1-4.6-3.6-5-7.1-.2-2.3.7-5 4.3-5.7 0-.7.1-3.4 2.1-4.3 3.1-1.3 5 1.4 5 1.4"/><text fill="#444" font-family="Inter-Bold" font-size="11.118" transform="translate(17.208 17.11)">C#</text></svg>