<?xml version="1.0" encoding="utf-8"?>
<!-- Generator: Adobe Illustrator 27.7.0, SVG Export Plug-In . SVG Version: 6.00 Build 0)  -->
<svg version="1.1" id="Layer_1" xmlns="http://www.w3.org/2000/svg" xmlns:xlink="http://www.w3.org/1999/xlink" x="0px" y="0px"
	 viewBox="0 0 50 50" style="enable-background:new 0 0 50 50;" xml:space="preserve">
<style type="text/css">
	.st0{fill:#5ABA52;}
	.st1{fill:none;stroke:#444444;stroke-width:2.5;stroke-linecap:round;stroke-linejoin:round;stroke-miterlimit:10;}
	.st2{fill:none;stroke:#444444;stroke-linecap:round;stroke-linejoin:round;stroke-miterlimit:10;}
	.st3{fill:none;stroke:#444444;stroke-width:0.5;stroke-linecap:round;stroke-linejoin:round;stroke-miterlimit:10;}
	.st4{fill:#444444;}
</style>
<g>
	<path class="st0" d="M39.26,8.3l-1.28,0.45L36.76,8.5c0-1.2-0.8-0.3-1.9-0.3L4.56,8.3c-1.1,0-2.1,0.9-2.1,2.1l-0.2,11.4l0.38-0.14
		L1.96,40.2c-0.1,3,3,5.3,5.9,4.2l40.3-14.3l0.8-17.1C48.96,8.4,43.66,6.8,39.26,8.3z"/>
	<g>
		<g>
			<g>
				<path class="st1" d="M36.86,44.2H4.66l-2.9-5c-0.7-1.1,0.2-2.6,1.5-2.6l0-28.1h5.8l33.7,0.2h5.7l-0.2,28"/>
				<line class="st2" x1="3.46" y1="37.5" x2="48.36" y2="37.6"/>
			</g>
		</g>
		<g>
			<polyline class="st3" points="10.46,20.4 10.46,16.5 9.46,16.5 			"/>
			<polyline class="st3" points="19.06,20.4 19.06,16.5 18.06,16.5 			"/>
			<path class="st3" d="M12.36,23.9v2.5c-0.4,0.4-0.9,0.7-1.4,0.7s-1.1-0.3-1.5-0.7v-2.5c0.4-0.4,0.9-0.7,1.4-0.7
				S12.06,23.5,12.36,23.9z"/>
			<path class="st3" d="M20.96,23.9v2.5c-0.4,0.4-0.9,0.7-1.4,0.7c-0.6,0-1.1-0.3-1.4-0.7v-2.5c0.4-0.4,0.9-0.7,1.4-0.7
				C20.16,23.2,20.66,23.5,20.96,23.9z"/>
			<polyline class="st3" points="23.86,27.1 23.86,23.2 22.86,23.2 			"/>
			<path class="st3" d="M16.16,17.2v2.5c-0.4,0.4-0.9,0.7-1.4,0.7s-1.1-0.3-1.4-0.7v-2.5c0.4-0.4,0.9-0.7,1.4-0.7
				S15.86,16.8,16.16,17.2z"/>
			<path class="st3" d="M24.86,17.2v2.5c-0.4,0.4-0.9,0.7-1.5,0.7s-1.1-0.3-1.4-0.7v-2.5c0.4-0.4,0.9-0.7,1.4-0.7
				C23.96,16.5,24.46,16.8,24.86,17.2z"/>
			<polyline class="st3" points="27.66,20.4 27.66,16.5 26.76,16.5 			"/>
			<polyline class="st3" points="19.06,33.8 19.06,29.9 18.06,29.9 			"/>
			<path class="st3" d="M16.16,30.6v2.5c-0.4,0.4-0.9,0.7-1.4,0.7s-1.1-0.3-1.4-0.7v-2.5c0.4-0.4,0.9-0.7,1.4-0.7
				S15.86,30.2,16.16,30.6z"/>
			<polyline class="st3" points="27.66,33.8 27.66,29.9 26.76,29.9 			"/>
		</g>
		<g>
			<polyline class="st3" points="31.56,20.4 31.56,16.5 30.56,16.5 			"/>
			<polyline class="st3" points="40.16,20.4 40.16,16.5 39.26,16.5 			"/>
			<path class="st3" d="M33.46,23.9v2.5c-0.4,0.4-0.9,0.7-1.4,0.7c-0.6,0-1.1-0.3-1.4-0.7v-2.5c0.4-0.4,0.9-0.7,1.4-0.7
				C32.66,23.2,33.16,23.5,33.46,23.9z"/>
			<path class="st3" d="M42.06,23.9v2.5c-0.4,0.4-0.9,0.7-1.4,0.7c-0.6,0-1.1-0.3-1.4-0.7v-2.5c0.4-0.4,0.9-0.7,1.4-0.7
				C41.26,23.2,41.76,23.5,42.06,23.9z"/>
			<path class="st3" d="M37.26,17.2v2.5c-0.3,0.4-0.8,0.7-1.4,0.7s-1.1-0.3-1.4-0.7v-2.5c0.4-0.4,0.9-0.7,1.4-0.7
				C36.46,16.5,36.96,16.8,37.26,17.2z"/>
			<polyline class="st3" points="40.16,33.8 40.16,29.9 39.26,29.9 			"/>
			<path class="st3" d="M37.26,30.6v2.5c-0.4,0.4-0.9,0.7-1.4,0.7c-0.6,0-1.1-0.3-1.4-0.7v-2.5c0.4-0.4,0.9-0.7,1.4-0.7
				C36.46,29.9,36.96,30.2,37.26,30.6z"/>
		</g>
		<rect x="3.76" y="13.5" class="st3" width="44.2" height="24"/>
		<circle class="st4" cx="39.86" cy="11.7" r="0.8"/>
		<circle class="st4" cx="42.16" cy="11.7" r="0.8"/>
		<circle class="st4" cx="44.46" cy="11.7" r="0.8"/>
	</g>
</g>
</svg>
