<?xml version="1.0" encoding="utf-8"?>
<!-- Generator: Adobe Illustrator 28.0.0, SVG Export Plug-In . SVG Version: 6.00 Build 0)  -->
<svg version="1.1" id="Layer_1" xmlns="http://www.w3.org/2000/svg" xmlns:xlink="http://www.w3.org/1999/xlink" x="0px" y="0px"
	 viewBox="0 0 50 50" style="enable-background:new 0 0 50 50;" xml:space="preserve">
<style type="text/css">
	.st0{fill:#35D3C3;}
	.st1{fill:#7DF4EB;}
	.st2{fill:none;stroke:#444444;stroke-width:2.5;stroke-linecap:round;stroke-linejoin:round;stroke-miterlimit:10;}
	.st3{fill:none;stroke:#444444;stroke-linecap:round;stroke-linejoin:round;stroke-miterlimit:10;}
	.st4{fill:none;stroke:#444444;stroke-width:0.5;stroke-linecap:round;stroke-linejoin:round;stroke-miterlimit:10;}
	.st5{fill:#444444;}
	.st6{font-family:'Inter-SemiBold';}
	.st7{font-size:6.424px;}
</style>
<polygon class="st0" points="29.2,19.3 37.1,21.8 30.4,26.5 30.5,34.7 23.9,29.8 16.1,32.4 18.7,24.7 13.8,18.1 22,18.2 26.8,11.5 
	"/>
<path class="st1" d="M45.1,12.4l-5.6-3.6l-7.7-4.4l-6-2.8c-3.2,0-21.5,8.9-21.5,12.1l-0.5,7.8l0.5,15.1l11.5,7.6l31-11
	C47.6,32.7,46.1,14.4,45.1,12.4z"/>
<g>
	<g>
		<path class="st2" d="M30.3,46.5l-2.2,1.3c-1.7,1-3.8,1-5.5,0l-15.6-9c-1.7-1-2.7-2.8-2.7-4.7V16c0-2,1-3.8,2.7-4.7l15.6-9
			c1.7-1,3.8-1,5.5,0l15.6,9c1.7,1,2.7,2.8,2.7,4.7v18c0,2-1,3.8-2.7,4.7l-2.5,1.4"/>
	</g>
</g>
<path class="st3" d="M31.4,15.9C31.2,16,31,16,30.8,15.9c-1.4-0.5-7.1-2.2-12,0.6c0,0-5.1,3-4.5,8.4c0,0,0.4,3.1,2.4,4.9
	c0.2,0.2,0.3,0.5,0.2,0.7l-1,3.1c-0.1,0.4,0.1,0.8,0.6,0.9l2.6,0.5c0.3,0.1,0.6-0.1,0.7-0.3l1.3-1.9c0.2-0.3,0.5-0.4,0.8-0.3
	c0.9,0.2,3.2,0.6,6.9,0c0.3-0.1,0.6,0.1,0.8,0.4l0.8,1.5c0.1,0.3,0.4,0.4,0.7,0.4l2.7-0.4c0.4-0.1,0.7-0.5,0.6-0.9l-0.8-2.8
	c-0.1-0.3,0-0.5,0.2-0.7c0.4-0.3,1-0.9,1.4-1.7c0.1-0.2,0.4-0.4,0.7-0.4l1,0c0.3,0,0.6-0.2,0.7-0.5l1.6-4.5c0.2-0.5-0.2-0.9-0.6-1
	L37,22c-0.3,0-0.6-0.2-0.6-0.5c-0.2-0.7-0.8-2-2-3.2c-0.2-0.2-0.3-0.5-0.2-0.8c0.2-0.3,0.4-0.8,0.8-1.3c0.4-0.5,0.1-1.1-0.5-1.2
	C33.7,15,32.6,15.1,31.4,15.9z"/>
<path class="st4" d="M21.2,17.6c0,0,3.4-1.8,7.6,0"/>
<path class="st4" d="M14.2,23.6c0,0-3.2,2.2-3.9,0.2c0,0-0.5-1.5,1.2-1.8c0,0,1.1-0.1,1.3,0.9c0,0,0.7,1.5-1.1,3.1"/>
<circle class="st5" cx="33.6" cy="22.3" r="0.8"/>
<text transform="matrix(1 0 0 1 23.2913 26.3644)" class="st5 st6 st7">#</text>
</svg>
