<?xml version="1.0" encoding="utf-8"?>
<!-- Generator: Adobe Illustrator 28.0.0, SVG Export Plug-In . SVG Version: 6.00 Build 0)  -->
<svg version="1.1" id="Layer_1" xmlns="http://www.w3.org/2000/svg" xmlns:xlink="http://www.w3.org/1999/xlink" x="0px" y="0px"
	 viewBox="0 0 50 50" style="enable-background:new 0 0 50 50;" xml:space="preserve">
<style type="text/css">
	.st0{fill:#35D3C3;}
	.st1{fill:#7DF4EB;}
	.st2{fill:none;stroke:#444444;stroke-width:2.5;stroke-linecap:round;stroke-linejoin:round;stroke-miterlimit:10;}
	.st3{fill:none;stroke:#444444;stroke-width:0.5;stroke-linecap:round;stroke-linejoin:round;stroke-miterlimit:10;}
	.st4{fill:none;stroke:#444444;stroke-linecap:round;stroke-linejoin:round;stroke-miterlimit:10;}
	.st5{fill:#444444;}
	.st6{font-family:'Inter-Bold';}
	.st7{font-size:11.1185px;}
</style>
<polygon class="st0" points="28.7,20.9 36.6,23.4 29.9,28.1 30,36.3 23.4,31.4 15.6,34.1 18.3,26.3 13.4,19.7 21.6,19.8 26.3,13.1 
	"/>
<path class="st1" d="M45.1,12.4l-5.6-3.6l-7.7-4.4l-6-2.8c-3.2,0-21.5,8.9-21.5,12.1l-0.5,7.8l0.5,15.1l11.5,7.6l31-11
	C47.6,32.7,46.1,14.4,45.1,12.4z"/>
<g>
	<g>
		<path class="st2" d="M29.8,46.5l-2.2,1.3c-1.7,1-3.8,1-5.5,0l-15.6-9c-1.7-1-2.7-2.8-2.7-4.7V16c0-2,1-3.8,2.7-4.7l15.6-9
			c1.7-1,3.8-1,5.5,0l15.6,9c1.7,1,2.7,2.8,2.7,4.7v18c0,2-1,3.8-2.7,4.7l-2.5,1.4"/>
	</g>
</g>
<g>
	<g>
		<path class="st3" d="M21.4,39.2c0,0,1.4,1.4,3.6,1.4s3.6-1.4,3.6-1.4"/>
	</g>
	<path class="st3" d="M17.1,30.7c0.6,0.9,1.4,1.2,2.1,0.7c0.8-0.5,0.6-2,0-2.9c-0.6-0.9-1.4-1.2-2.1-0.7
		C16.4,28.3,16.6,29.8,17.1,30.7z"/>
	<path class="st3" d="M32.9,30.7c-0.6,0.9-1.4,1.2-2.1,0.7c-0.8-0.5-0.6-2,0-2.9c0.6-0.9,1.4-1.2,2.1-0.7
		C33.6,28.3,33.4,29.8,32.9,30.7z"/>
	<path class="st3" d="M25,35.7c-1.1,0-1.4,0.7-2.9,0.7c-0.7,0-2.1-0.3-2.1-1.4c0-2.1,2-1.8,2.9-2.9c0.8-1.2,0.1-3.5,2.1-3.6"/>
	<path class="st3" d="M25,35.7c1.1,0,1.4,0.7,2.9,0.7c0.7,0,2.1-0.3,2.1-1.4c0-2.1-2-1.8-2.9-2.9c-0.8-1.2-0.1-3.5-2.1-3.6"/>
	<ellipse class="st3" cx="27.9" cy="25.7" rx="1.4" ry="2.1"/>
	<ellipse class="st3" cx="22.1" cy="25.7" rx="1.4" ry="2.1"/>
	<path class="st4" d="M32.1,43.5c0-2.9-0.5-4.9-0.7-5.7c1.6-1,4.6-3.6,5-7.1c0.2-2.3-0.7-5-4.3-5.7c0-0.7-0.1-3.4-2.1-4.3
		c-3.1-1.3-5,1.4-5,1.4"/>
	<path class="st4" d="M17.8,44.2c0-2.9,0.5-5.6,0.7-6.4c-1.6-1-4.6-3.6-5-7.1c-0.2-2.3,0.7-5,4.3-5.7c0-0.7,0.1-3.4,2.1-4.3
		c3.1-1.3,5,1.4,5,1.4"/>
</g>
<text transform="matrix(1 0 0 1 17.2084 17.1091)" class="st5 st6 st7">C#</text>
</svg>
