<svg xmlns="http://www.w3.org/2000/svg" version="1" viewBox="0 0 50 50"><path fill="#A6C1C2" d="M13.147 32.499v10.628c0 1.537 4.559 2.849 10.947 3.358l22.653-8.245v-9.014c0-1.463-4.057-2.707-9.897-3.273v-6.651c5.266-.444 8.87-1.48 9.897-2.742V6.873c0-.209-.079-.409-.244-.609-1.349-1.689-8.252-2.977-16.556-2.977S14.74 4.574 13.391 6.263c-.165.2-.244.401-.244.609v7.904c-5.832.566-9.897 1.811-9.897 3.273v11.177c0 1.462 4.057 2.707 9.897 3.273z"/><path fill="#B9D7D9" d="M37.617 3.685a70.998 70.998 0 0 0-7.672-.399c-8.304 0-15.207 1.288-16.556 2.977-.165.2-.244.401-.244.609v5.719l24.472-8.906z"/><g fill="#444"><path d="M38.722 34.154l-.785.106v2.196l1.078-.147c2.006-.272 3.798-.643 5.182-1.074l.393-.122v-2.279l-1.039.323c-1.271.396-2.941.74-4.829.997zM28.554 23.002l-.802.103v2.194l1.08-.138c2.067-.265 3.809-.609 5.18-1.021l.415-.125v-2.272l-1.042.313c-1.257.378-2.882.696-4.831.946zM44.198 12.08l.392-.122-.001-2.279-1.039.324c-1.283.4-2.951.741-4.823.988l-.79.104-.005 2.195 1.079-.142c1.993-.262 3.787-.631 5.187-1.068z"/><path d="M47.72 17.35l.28-.345V6.873c0-.35-.092-.877-.518-1.389-1.901-2.382-10.175-3.448-17.532-3.448-7.357 0-15.631 1.066-17.52 3.431-.438.53-.53 1.057-.53 1.406v6.779c-6.569.753-9.897 2.231-9.897 4.398v11.177c0 2.168 3.329 3.646 9.897 4.397v9.504c0 4.7 16.203 4.836 18.05 4.836a1.25 1.25 0 0 0 0-2.5c-9.538 0-14.812-1.599-15.55-2.466V31.68c1.558.113 3.239.175 5.023.175 1.264 0 2.485-.032 3.661-.089.052.002 5.176.258 6.866.258 7.007 0 12.972-.886 15.55-2.209v8.426a1.25 1.25 0 1 0 2.5-.001v-9.014c0-2.168-3.329-3.646-9.897-4.398V20.44c3.775-.394 8.117-1.247 9.617-3.09zM14.4 7.146c2.591 1.323 8.621 2.22 15.547 2.22 6.931 0 12.965-.898 15.553-2.222v8.88c-.531.383-1.669.877-3.639 1.308-2.826.588-6.631.931-10.927.931-7.904 0-14.862-1.179-16.534-2.767v-8.35zm30.991-.225c-2.523 1.29-8.625 2.194-15.443 2.194-6.82 0-12.923-.905-15.445-2.195 1.175-1.038 6.927-2.384 15.448-2.384 8.463 0 14.194 1.328 15.44 2.385zm-32.12 9.1l1.129-.109v-.077c2.011 1.571 8.717 2.678 16.534 2.678 1.632 0 3.19-.052 4.658-.147l-.016.008c-2.558 1.355-8.651 2.231-15.522 2.231-2.388 0-4.706-.105-6.891-.313-4.001-.387-7.096-1.089-8.66-1.925v-.189c.387-.424 2.605-1.559 8.768-2.157zM14.4 31.43v-.065l-1.129-.109c-3.024-.293-5.094-.715-6.468-1.12-1.122-.374-1.904-.791-2.3-1.222v-10.27c1.639.836 4.668 1.514 8.636 1.898 2.192.208 4.519.314 6.915.314 6.852 0 12.941-.873 15.55-2.219v8.451h.002v1.16c0 1.621-6.502 3.356-16.181 3.356-1.821 0-3.498-.062-5.025-.174zm31.1-2.076v.176c-2.429 1.322-8.531 2.243-15.55 2.243-.956 0-3.019-.082-4.634-.154 6.215-.51 10.538-1.808 10.538-3.372v-1.136l.878.085c6.164.598 8.381 1.735 8.768 2.158z"/></g></svg>