<svg xmlns="http://www.w3.org/2000/svg" id="Layer_1" x="0" y="0" version="1.1" viewBox="0 0 50 50" xml:space="preserve"><style>.st2{fill:#444}.st3{fill:#464646}</style><path fill="#ecc158" d="M47.6 7.1c0-.8-.2-1.5-.6-2.1L2.6 21.1v22.4c0 1.1.4 2.1 1.2 2.9l43.8-16V7.1z"/><path fill="#f0cd77" d="M43.4 2.8H6.9c-2.4 0-4.3 1.9-4.3 4.3v14.1L47.1 5c-.8-1.3-2.2-2.2-3.7-2.2z"/><path id="XMLID_13_" d="M28.3 28.1c-1 1.7-2.9 2.9-5 2.9s-4-1.2-5-2.9c-.5-.8-.8-1.8-.8-2.8 0-3.2 2.6-5.7 5.7-5.7 2.1 0 4 1.1 5 2.9l5-2.9c-2-3.4-5.7-5.8-10-5.8-6.4 0-11.5 5.2-11.5 11.5 0 2.1.6 4 1.5 5.7 2 3.5 5.7 5.8 10 5.8s8-2.3 10-5.8l-4.9-2.9" class="st2"/><path d="M38.9 24.4v-1.5h-1.2v-1.2h-1.5v1.2h-1.8v-1.2h-1.5v1.2h-1.2v1.5h1.2v1.8h-1.2v1.5h1.2v1.2h1.5v-1.2h1.8v1.2h1.5v-1.2h1.2v-1.5h-1.2v-1.8h1.2zm-2.7 1.8h-1.8v-1.8h1.8v1.8z" class="st2"/><path d="M43.1 48.8H6.6c-3 0-5.5-2.5-5.5-5.5V6.8c0-3 2.5-5.5 5.5-5.5h36.5c3 0 5.5 2.5 5.5 5.5v36.5c0 3-2.5 5.5-5.5 5.5zM6.6 3.8c-1.7 0-3 1.4-3 3v36.5c0 1.7 1.4 3 3 3h36.5c1.7 0 3-1.4 3-3V6.8c0-1.7-1.4-3-3-3H6.6z" class="st3"/><path d="M44.1 44.1H5.6V5.5h38.6v38.6zm-37.5-1h36.6V6.5H6.6v36.6z" class="st3"/></svg>