<svg xmlns="http://www.w3.org/2000/svg" id="Camada_1" version="1.1" viewBox="0 0 50 50"><defs><style>.st3{fill:none;stroke:#444;stroke-linecap:round;stroke-linejoin:round;stroke-width:.5px}</style></defs><path fill="#319327" d="M31 19.1l7.9 2.4-6.7 4.8.1 8.2-6.6-4.9-7.8 2.6 2.7-7.8-5-6.5 8.3.1 4.7-6.7 2.4 7.8z"/><path fill="#5aba52" d="M44.6 12.8L39 9.2l-7.7-4.4-6-2.8c-3.2-.1-21.4 8.9-21.4 12.1l-.5 7.8.5 15.1 11.5 7.6 31-11c.7-.4-.8-18.7-1.8-20.7z"/><path fill="none" stroke="#444" stroke-linecap="round" stroke-linejoin="round" stroke-width="2.5" d="M29.9 46.7L27.7 48c-1.7 1-3.8 1-5.5 0L6.6 39c-1.7-1-2.7-2.8-2.7-4.7v-18c0-2 1-3.8 2.7-4.7l15.6-9.1c1.7-1 3.8-1 5.5 0l15.6 9c1.7 1 2.7 2.8 2.7 4.7v18c0 2-1 3.8-2.7 4.7l-2.5 1.4"/><rect width="19.9" height="27.2" x="15.4" y="13" fill="none" stroke="#444" stroke-linecap="round" stroke-linejoin="round" rx="3.2" ry="3.2"/><circle cx="25.4" cy="36.9" r="1.4" class="st3"/><rect width="26.2" height="14.5" x="6.4" y="16" class="st3" rx="1.5" ry="1.5"/><path d="M34.1 43.3H21.7c-.8 0-1.5-.7-1.5-1.5V8.5c0-.8.7-1.5 1.5-1.5h14.6" class="st3"/><path d="M30.5 18.4h13.1c1.2 0 2.1.9 2.1 2.1V33s0 .1-.1.1H30.5c-1.2 0-2.1-.9-2.1-2.1V20.4c0-1.2.9-2.1 2.1-2.1z" class="st3"/></svg>