<?xml version="1.0" encoding="utf-8"?>
<!-- Generator: Adobe Illustrator 26.5.0, SVG Export Plug-In . SVG Version: 6.00 Build 0)  -->
<svg version="1.1" id="Layer_1" xmlns="http://www.w3.org/2000/svg" xmlns:xlink="http://www.w3.org/1999/xlink" x="0px" y="0px"
	 viewBox="0 0 50 50" style="enable-background:new 0 0 50 50;" xml:space="preserve">
<style type="text/css">
	.st0{fill:#DC5E82;}
	.st1{fill:#F56991;}
	.st2{fill:none;stroke:#444444;stroke-width:2.5;stroke-linecap:round;stroke-linejoin:round;stroke-miterlimit:10;}
	.st3{fill:#444444;}
	.st4{fill:#494949;}
</style>
<g>
	<g>
		<g>
			<g>
				<g>
					<polygon class="st0" points="47.7,11.8 48.5,17 2.4,33.8 1.9,22.9 1.8,16.7 42.1,2.1 47.3,4.4 					"/>
					<polygon class="st1" points="46.1,2.2 48.4,5.4 1.5,22.1 2.6,5 5.6,2.1 34.7,1.9 					"/>
					<g>
						<path class="st2" d="M18.2,48.5H5.5c-1.9,0-3.4-1.6-3.4-3.5V6c0-2,1.5-3.5,3.4-3.5h39c1.9,0,3.4,1.6,3.4,3.5v24.6"/>
						<path class="st2" d="M2.1,16"/>
						<path class="st2" d="M47.9,16"/>
					</g>
					<circle class="st3" cx="8.2" cy="8.4" r="1.4"/>
					<circle class="st3" cx="12.1" cy="8.4" r="1.4"/>
					<circle class="st3" cx="15.9" cy="8.4" r="1.4"/>
				</g>
			</g>
		</g>
	</g>
	<g>
		<path class="st4" d="M42.7,44.8H27.5c-0.8,0-1.5-0.7-1.5-1.5V23.4c0-0.8,0.7-1.5,1.5-1.5h15.2c0.8,0,1.5,0.7,1.5,1.5v19.9
			C44.2,44.1,43.5,44.8,42.7,44.8z"/>
		<path class="st4" d="M22.3,44.8H7.1c-0.8,0-1.5-0.7-1.5-1.5v-4.4c0-0.8,0.7-1.5,1.5-1.5h15.2c0.8,0,1.5,0.7,1.5,1.5v4.4
			C23.8,44.1,23.1,44.8,22.3,44.8z"/>
		<path class="st4" d="M22.3,35.1H7.1c-0.8,0-1.5-0.7-1.5-1.5V23.4c0-0.8,0.7-1.5,1.5-1.5h15.2c0.8,0,1.5,0.7,1.5,1.5v10.2
			C23.8,34.4,23.1,35.1,22.3,35.1z"/>
		<path class="st4" d="M42.7,19.7H7.1c-0.8,0-1.5-0.7-1.5-1.5v-4.7c0-0.8,0.7-1.5,1.5-1.5h35.6c0.8,0,1.5,0.7,1.5,1.5v4.7
			C44.2,19,43.5,19.7,42.7,19.7z"/>
	</g>
</g>
</svg>
