<svg xmlns="http://www.w3.org/2000/svg" id="Layer_1" version="1.1" viewBox="0 0 50 50"><defs><style>.st2{fill:none;stroke:#444;stroke-miterlimit:10}</style></defs><path fill="#ff6b6b" d="M45.1 4.6H4c-1.4 0-1.4 3.8-1.4 5.2l-.2 12.9-.5 10.2 1.2 11.8 12.4.6 32.1-11.4V7.2c0-1.4-1.1-2.6-2.5-2.6z"/><path fill="none" stroke="#444" stroke-linecap="round" stroke-linejoin="round" stroke-width="2.5" d="M32.5 46.1h-27c-1.9 0-3.4-1.6-3.4-3.5v-35c0-1.9 1.5-3.5 3.4-3.5h39c1.9 0 3.4 1.6 3.4 3.5v28.5"/><rect width="18.2" height="8.8" x="5.9" y="33.2" class="st2" rx="1.3" ry="1.3"/><rect width="18.2" height="13.2" x="5.9" y="17.9" fill="none" stroke="#444" stroke-miterlimit="10" stroke-width=".5" rx="1.3" ry="1.3"/><rect width="17.8" height="24" x="26.2" y="18" class="st2" rx="1.3" ry="1.3"/><rect width="38" height="7.2" x="5.9" y="8.6" class="st2" rx="1.3" ry="1.3"/></svg>