<?xml version="1.0" encoding="utf-8"?>
<!-- Generator: Adobe Illustrator 24.0.3, SVG Export Plug-In . SVG Version: 6.00 Build 0)  -->
<svg version="1.1" id="Layer_1" xmlns="http://www.w3.org/2000/svg" xmlns:xlink="http://www.w3.org/1999/xlink" x="0px" y="0px"
	 viewBox="0 0 50 50" style="enable-background:new 0 0 50 50;" xml:space="preserve">
<style type="text/css">
	.st0{fill:#FCC34F;}
	.st1{fill:#FDCF72;}
	.st2{fill:none;stroke:#444444;stroke-width:2.5;stroke-linecap:round;stroke-linejoin:round;stroke-miterlimit:10;}
	.st3{fill:#444444;}
</style>
<polygon class="st0" points="48.1,25.8 48.5,30.1 1.9,47.1 2,38 2.4,32.7 48.8,15.8 48.1,19.6 "/>
<polygon class="st1" points="48.1,9.1 47.5,16.8 2,33.4 2,23.6 2.4,19.1 48.2,2.4 "/>
<polyline class="st2" points="6.2,47.6 1.9,47.6 1.9,1.9 48,1.9 48,47.6 32,47.6 "/>
<path class="st3" d="M22.3,7h-13C8.5,7,7.9,7.6,7.9,8.4v15.9c0,0.8,0.6,1.4,1.4,1.4h13c0.8,0,1.4-0.6,1.4-1.4V8.4
	C23.7,7.6,23.1,7,22.3,7z M20.8,22.9H10.7v-13h10.1V22.9z"/>
<path class="st3" d="M41.1,22.9h-13c-0.8,0-1.4,0.6-1.4,1.4v15.9c0,0.8,0.6,1.4,1.4,1.4h13c0.8,0,1.4-0.6,1.4-1.4V24.3
	C42.5,23.5,41.8,22.9,41.1,22.9z M39.6,38.8H29.5v-13h10.1V38.8z"/>
<path class="st3" d="M22.3,28.7h-13c-0.8,0-1.4,0.6-1.4,1.4v10.1c0,0.8,0.6,1.4,1.4,1.4h13c0.8,0,1.4-0.6,1.4-1.4V30.1
	C23.7,29.3,23.1,28.7,22.3,28.7z M20.8,38.8H10.7v-7.2h10.1V38.8z"/>
<path class="st3" d="M41.1,7h-13c-0.8,0-1.4,0.6-1.4,1.4v10.1c0,0.8,0.6,1.4,1.4,1.4h13c0.8,0,1.4-0.6,1.4-1.4V8.4
	C42.5,7.6,41.8,7,41.1,7z M39.6,17.1H29.5V9.9h10.1V17.1z"/>
</svg>
