<svg xmlns="http://www.w3.org/2000/svg" viewBox="0 0 50 50"><defs><style>.cls-1,.cls-3{fill:none;stroke:#444;stroke-linecap:round;stroke-linejoin:round}.cls-3{stroke-width:.5px}</style></defs><g id="Camada_1"><path fill="#04ad49" d="M30.7 19l7.9 2.4-6.7 4.8.1 8.2-6.6-4.9-7.8 2.6 2.7-7.8-4.9-6.5 8.2.1 4.7-6.7 2.4 7.8z"/><path fill="#22dd6d" d="M44.3 12.7l-5.6-3.6L31 4.7l-6-2.8C21.8 1.8 3.6 10.8 3.6 14l-.5 7.8.5 15.1 11.5 7.6 31-11c.7-.4-.8-18.7-1.8-20.7z"/><path fill="none" stroke="#444" stroke-linecap="round" stroke-linejoin="round" stroke-width="2.5" d="M29.6 46.6l-2.2 1.3c-1.7 1-3.8 1-5.5 0l-15.6-9c-1.7-1-2.7-2.8-2.7-4.7v-18c0-2 1-3.8 2.7-4.7l15.6-9.1c1.7-1 3.8-1 5.5 0l15.6 9c1.7 1 2.7 2.8 2.7 4.7v18c0 2-1 3.8-2.7 4.7l-2.5 1.4"/><rect width="5" height="5" x="17.2" y="10.9" class="cls-3" rx=".9" ry=".9"/><rect width="5" height="5" x="27.1" y="10.9" class="cls-3" rx=".9" ry=".9"/><rect width="5" height="5" x="17.2" y="34.2" class="cls-3" rx=".9" ry=".9"/><rect width="5" height="5" x="27.1" y="34.2" class="cls-3" rx=".9" ry=".9"/><path d="M3.8 20.9h41.8m-41.8 8h41.8m-26 13.9V7.5m10 35.3V7.5" class="cls-1"/><rect width="31.5" height="23.4" x="8.9" y="13.4" class="cls-1" rx="4.2" ry="4.2"/></g></svg>