<?xml version="1.0" encoding="utf-8"?>
<!-- Generator: Adobe Illustrator 27.9.0, SVG Export Plug-In . SVG Version: 6.00 Build 0)  -->
<svg version="1.1" id="Camada_3" xmlns="http://www.w3.org/2000/svg" xmlns:xlink="http://www.w3.org/1999/xlink" x="0px" y="0px"
	 viewBox="0 0 50 50" style="enable-background:new 0 0 50 50;" xml:space="preserve">
<style type="text/css">
	.st0{fill:#FC9D9A;}
	.st1{fill:none;stroke:#444444;stroke-width:2.5;stroke-linecap:round;stroke-linejoin:round;stroke-miterlimit:10;}
	.st2{fill:none;stroke:#444444;stroke-linecap:round;stroke-linejoin:round;stroke-miterlimit:10;}
	.st3{fill:none;stroke:#444444;stroke-width:0.5;stroke-linecap:round;stroke-linejoin:round;stroke-miterlimit:10;}
</style>
<g>
	<path class="st0" d="M45.46,2.58H4.36c-1.4,0-1.4,3.8-1.4,5.2l-0.2,16.9l-0.5,10.2l1.2,11.8l12.4,0.6l32.1-11.4V5.38v-0.2l0,0
		C47.96,3.78,46.86,2.58,45.46,2.58z"/>
	<path class="st1" d="M32.86,48.08h-27c-1.9,0-3.4-1.6-3.4-3.5v-39c0-2,1.5-3.5,3.4-3.5h39c1.9,0,3.4,1.6,3.4,3.5v32.5"/>
</g>
<g>
	<path class="st2" d="M20.04,25.8h-9.18c-1.34,0-2.43-1.09-2.43-2.43V11.31c0-1.34,1.09-2.43,2.43-2.43h9.18
		c1.34,0,2.43,1.09,2.43,2.43v12.06C22.47,24.71,21.38,25.8,20.04,25.8z"/>
	<path class="st3" d="M39.66,20.4h-9.54c-1.34,0-2.43-1.09-2.43-2.43v-6.48c0-1.34,1.09-2.43,2.43-2.43h9.54
		c1.34,0,2.43,1.09,2.43,2.43v6.48C42.09,19.31,41,20.4,39.66,20.4z"/>
	<path class="st2" d="M39.3,41.28h-8.28c-1.34,0-2.43-1.09-2.43-2.43V26.79c0-1.34,1.09-2.43,2.43-2.43h8.28
		c1.34,0,2.43,1.09,2.43,2.43v12.06C41.73,40.19,40.64,41.28,39.3,41.28z"/>
	<path class="st3" d="M20.4,41.1h-8.82c-1.34,0-2.43-1.09-2.43-2.43v-5.58c0-1.34,1.09-2.43,2.43-2.43h8.82
		c1.34,0,2.43,1.09,2.43,2.43v5.58C22.83,40.01,21.74,41.1,20.4,41.1z"/>
</g>
</svg>
