<svg xmlns="http://www.w3.org/2000/svg" viewBox="0 0 50 50"><path fill="#fcc34f" d="M48.1 25.8l.4 4.3-46.6 17L2 38l.4-5.3 46.4-16.9-.7 3.8z"/><path fill="#fdcf72" d="M48.1 9.1l-.6 7.7L2 33.4v-9.8l.4-4.5L48.2 2.4z"/><path fill="none" stroke="#444" stroke-linecap="round" stroke-linejoin="round" stroke-miterlimit="10" stroke-width="2.5" d="M6.2 47.6H1.9V1.9H48v45.7H32"/><path fill="#444" d="M22.3 7h-13c-.8 0-1.4.6-1.4 1.4v15.9c0 .8.6 1.4 1.4 1.4h13c.8 0 1.4-.6 1.4-1.4V8.4c0-.8-.6-1.4-1.4-1.4zm-1.5 15.9H10.7v-13h10.1v13zm20.3 0h-13c-.8 0-1.4.6-1.4 1.4v15.9c0 .8.6 1.4 1.4 1.4h13c.8 0 1.4-.6 1.4-1.4V24.3c0-.8-.7-1.4-1.4-1.4zm-1.5 15.9H29.5v-13h10.1v13zM22.3 28.7h-13c-.8 0-1.4.6-1.4 1.4v10.1c0 .8.6 1.4 1.4 1.4h13c.8 0 1.4-.6 1.4-1.4V30.1c0-.8-.6-1.4-1.4-1.4zm-1.5 10.1H10.7v-7.2h10.1v7.2zM41.1 7h-13c-.8 0-1.4.6-1.4 1.4v10.1c0 .8.6 1.4 1.4 1.4h13c.8 0 1.4-.6 1.4-1.4V8.4c0-.8-.7-1.4-1.4-1.4zm-1.5 10.1H29.5V9.9h10.1v7.2z"/></svg>