<?xml version="1.0" encoding="UTF-8"?>
<svg id="Layer_1" xmlns="http://www.w3.org/2000/svg" version="1.1" viewBox="0 0 50 50">
  <!-- Generator: Adobe Illustrator 29.0.0, SVG Export Plug-In . SVG Version: 2.1.0 Build 186)  -->
  <defs>
    <style>
      .st0 {
        stroke-width: .5px;
      }

      .st0, .st1, .st2 {
        fill: none;
        stroke: #444;
      }

      .st0, .st2 {
        stroke-miterlimit: 10;
      }

      .st3 {
        fill: #ff6b6b;
      }

      .st1 {
        stroke-linecap: round;
        stroke-linejoin: round;
        stroke-width: 2.5px;
      }
    </style>
  </defs>
  <path class="st3" d="M45.1,4.6H4c-1.4,0-1.4,3.8-1.4,5.2l-.2,12.9-.5,10.2,1.2,11.8,12.4.6,32.1-11.4V7.2h0c0-1.4-1.1-2.6-2.5-2.6Z"/>
  <path class="st1" d="M32.5,46.1H5.5c-1.9,0-3.4-1.6-3.4-3.5V7.6c0-1.9,1.5-3.5,3.4-3.5h39c1.9,0,3.4,1.6,3.4,3.5v28.5"/>
  <g>
    <rect class="st2" x="5.9" y="33.2" width="18.2" height="8.8" rx="1.3" ry="1.3"/>
    <rect class="st0" x="5.9" y="17.9" width="18.2" height="13.2" rx="1.3" ry="1.3"/>
    <rect class="st2" x="26.2" y="18" width="17.8" height="24" rx="1.3" ry="1.3"/>
    <rect class="st2" x="5.9" y="8.6" width="38" height="7.2" rx="1.3" ry="1.3"/>
  </g>
</svg>