<?xml version="1.0" encoding="UTF-8"?>
<svg id="Camada_1" xmlns="http://www.w3.org/2000/svg" version="1.1" viewBox="0 0 50 50">
  <!-- Generator: Adobe Illustrator 29.0.0, SVG Export Plug-In . SVG Version: 2.1.0 Build 186)  -->
  <defs>
    <style>
      .st0 {
        fill: #319327;
      }

      .st1, .st2, .st3 {
        fill: none;
        stroke: #444;
        stroke-linecap: round;
        stroke-linejoin: round;
      }

      .st2 {
        stroke-width: 2.5px;
      }

      .st4 {
        fill: #5aba52;
      }

      .st3 {
        stroke-width: .5px;
      }
    </style>
  </defs>
  <g>
    <polygon class="st0" points="31 19.1 38.9 21.5 32.2 26.3 32.3 34.5 25.7 29.6 17.9 32.2 20.6 24.4 15.6 17.9 23.9 18 28.6 11.3 31 19.1"/>
    <g>
      <path class="st4" d="M44.6,12.8l-5.6-3.6-7.7-4.4-6-2.8C22.1,1.9,3.9,10.9,3.9,14.1l-.5,7.8.5,15.1,11.5,7.6,31-11c.7-.4-.8-18.7-1.8-20.7Z"/>
      <path class="st2" d="M29.9,46.7l-2.2,1.3c-1.7,1-3.8,1-5.5,0l-15.6-9c-1.7-1-2.7-2.8-2.7-4.7v-18c0-2,1-3.8,2.7-4.7L22.2,2.5c1.7-1,3.8-1,5.5,0l15.6,9c1.7,1,2.7,2.8,2.7,4.7v18c0,2-1,3.8-2.7,4.7l-2.5,1.4"/>
      <rect class="st1" x="15.4" y="13" width="19.9" height="27.2" rx="3.2" ry="3.2"/>
      <circle class="st3" cx="25.4" cy="36.9" r="1.4"/>
    </g>
  </g>
  <rect class="st3" x="6.4" y="16" width="26.2" height="14.5" rx="1.5" ry="1.5"/>
  <path class="st3" d="M34.1,43.3h-12.4c-.8,0-1.5-.7-1.5-1.5V8.5c0-.8.7-1.5,1.5-1.5h14.6"/>
  <path class="st3" d="M30.5,18.4h13.1c1.2,0,2.1.9,2.1,2.1v12.5c0,0,0,.1-.1.1h-15.1c-1.2,0-2.1-.9-2.1-2.1v-10.6c0-1.2.9-2.1,2.1-2.1Z"/>
</svg>