<?xml version="1.0" encoding="UTF-8"?>
<svg xmlns="http://www.w3.org/2000/svg" version="1.1" viewBox="0 0 50 50">
  <defs>
    <style>
      .cls-1 {
        fill: #f9f941;
      }

      .cls-2, .cls-3, .cls-4 {
        fill: none;
        stroke: #444;
        stroke-linecap: round;
        stroke-linejoin: round;
      }

      .cls-3 {
        stroke-width: 2.5px;
      }

      .cls-5 {
        fill: #d1bd00;
      }

      .cls-4 {
        stroke-width: .5px;
      }
    </style>
  </defs>
  <!-- Generator: Adobe Illustrator 28.7.1, SVG Export Plug-In . SVG Version: 1.2.0 Build 142)  -->
  <g>
    <g id="Camada_1">
      <polygon class="cls-5" points="29.4 16.8 37.2 19.2 30.5 23.9 30.6 32.1 24.1 27.2 16.3 29.9 18.9 22.1 14 15.5 22.2 15.6 27 8.9 29.4 16.8"/>
      <g>
        <g>
          <path class="cls-1" d="M44.6,12.4l-5.6-3.6-7.7-4.4-6-2.8C22.2,1.5,3.9,10.4,3.9,13.6l-.5,7.8.5,15.1,11.5,7.6,31-11c.7-.4-.8-18.7-1.8-20.7Z"/>
          <path class="cls-3" d="M29.9,46.4l-2.2,1.3c-1.7,1-3.8,1-5.5,0l-15.6-9c-1.7-1-2.7-2.8-2.7-4.7V16c0-2,1-3.8,2.7-4.7L22.2,2.2c1.7-1,3.8-1,5.5,0l15.6,9c1.7,1,2.7,2.8,2.7,4.7v18c0,2-1,3.8-2.7,4.7l-2.5,1.4"/>
        </g>
        <g>
          <line class="cls-4" x1="29.9" y1="28.5" x2="30.8" y2="31.1"/>
          <path class="cls-4" d="M28.6,28.6l1.9,5c.3.8.9,1.4,1.6,1.8h0c.1,0,.3-.7.4-1.2,0-.6,0-1,0-1.2-.2-.9-.6-2.7-1.3-5.2"/>
          <path class="cls-2" d="M37.7,39.3"/>
          <path class="cls-2" d="M34.1,28.9c-.9-.8-1.7-1-2-1.1-1.1-.3-2,0-2.4,0-.5.2-1.3.5-2,1.3-.2.2-.7.9-1,2-.9,3.2.5,6.6.7,7.1.8,1.9,1.8,4.2,4,4.8,1.2.4,2.4,0,3.1-.1.7-.2,1.8-.6,2.6-1.6,1.4-1.8,1-4.1.5-6.2,0-.5-.9-4.1-3.4-6.2Z"/>
        </g>
        <g>
          <path class="cls-2" d="M25.2,37.2c-2.1-1-3.5-3.1-3.5-5.5h0s3-3,3-3h-6.4l3.3,3h0c0,3.3-2.7,6-6,6h-2.1c-3.3,0-6-2.7-6-6v-4.4"/>
          <path class="cls-2" d="M19.1,20.8s-2.1-2.7-4.8,0h-7.9l15-14.6,14.4,14.2v7"/>
          <polygon class="cls-2" points="35.6 6.8 35.8 20.4 29.6 14.3 35.6 6.8"/>
        </g>
      </g>
    </g>
  </g>
</svg>