<svg xmlns="http://www.w3.org/2000/svg" id="Camada_1" version="1.1" viewBox="0 0 300 300"><defs><style>.st1{fill:#fff}</style></defs><path id="Camada_10" fill="#008dd3" d="M272.3 149.4c.1 19.8-4.1 38.6-11.6 55.7-21.1 47.6-68.6 80.8-124 81-14.7.1-28.9-2.3-42.2-6.5-25-8-46.8-23-63.1-42.8-17-20.4-28.1-45.9-30.8-73.9-.4-4-.6-8.2-.6-12.3-.2-46.3 22.7-87.3 57.9-111.9 4.6-3.3 9.4-6.2 14.4-8.8 7-3.8 14.4-6.8 22-9.4 7.2-2.3 14.7-4 22.4-5.2 6.2-.8 12.5-1.3 18.9-1.4 25-.1 48.5 6.6 68.8 18.3 3.7 2.1 7.1 4.3 10.5 6.8 16.2 11.5 29.8 26.5 39.7 43.9 1.1 2 2.2 3.9 3.2 6 .8 1.8 1.7 3.5 2.5 5.3 2.6 5.8 4.8 11.7 6.6 17.8 2 6.8 3.5 13.9 4.3 21 .7 5.4 1.1 10.9 1.1 16.5z"/><path fill="#9da324" d="M232 49.4v83.3c0 18.7-15.2 33.9-33.9 33.9H60.6c-.6 0-1.2.2-1.6.6l-29.5 26.3c-1.6 1.4-4 .3-4-1.8V49.4C25.5 32 39.6 17.9 57 17.9h143.5c17.4 0 31.5 14.1 31.5 31.5z"/><path fill="#ecff39" d="M244 40.5v83.3c0 18.7-15.2 33.9-33.9 33.9H72.6c-.6 0-1.2.2-1.6.6l-29.5 26.3c-1.6 1.4-4 .3-4-1.8V40.5C37.5 23.1 51.6 9 69 9h143.5C229.9 9 244 23.1 244 40.5z"/><path fill="#1c3500" d="M135 97.8c0-3.6.7-6.6 2-9 1.3-2.5 2.9-4.5 4.8-6s4.2-3.2 7.1-5c3.3-2 5.7-3.8 7.3-5.4 1.5-1.6 2.3-3.5 2.3-5.9v-4.4c0-2.5-.9-4.5-2.7-6s-4.2-2.2-7.1-2.2h-10.4c-3.2 0-5.8 1.1-7.8 3.2s-2.9 5-2.9 8.5h-16.7c0-5.2 1.1-9.8 3.4-13.8s5.5-7.1 9.6-9.3c4.2-2.2 9-3.3 14.4-3.3h10.4c5.3 0 9.9 1 13.9 2.9s7.1 4.6 9.3 8c2.2 3.4 3.3 7.4 3.3 11.9v4.4c0 3.6-.6 6.7-1.9 9.1s-2.7 4.3-4.5 5.7-4.1 3-7 4.7c-3.4 1.9-5.9 3.8-7.6 5.5s-2.5 4.1-2.5 7.2v1.7H135v-2.7zm1.1 25.9c-1.8-1.8-2.7-4.2-2.7-7.2s.9-5.4 2.7-7.2c1.8-1.8 4.2-2.7 7.2-2.7s5.4.9 7.2 2.7c1.8 1.8 2.7 4.2 2.7 7.2s-.9 5.4-2.7 7.2c-1.8 1.8-4.2 2.7-7.2 2.7s-5.4-.9-7.2-2.7z"/><path fill="#ad3666" d="M146.7 166.4v61.4c0 13.8 11.2 25 25 25H273c.4 0 .9.2 1.2.5l21.8 19.4c1.1 1 3 .2 3-1.3V166.6c0-12.8-10.4-23.2-23.2-23.2H170.1c-12.8 0-23.2 10.4-23.2 23.2z"/><path fill="#dd437a" d="M137.9 159.8v61.4c0 13.8 11.2 25 25 25h101.3c.4 0 .9.2 1.2.5l21.8 19.4c1.1 1 3 .2 3-1.3V160c0-12.8-10.4-23.2-23.2-23.2H161.3c-12.8 0-23.2 10.4-23.2 23.2z"/><rect width="110.3" height="7" x="159.4" y="159.2" class="st1" rx="3.1" ry="3.1"/><rect width="110.3" height="7" x="159.4" y="182.9" class="st1" rx="3.1" ry="3.1"/><rect width="80.2" height="7" x="189.5" y="206.6" class="st1" rx="3.1" ry="3.1"/><path fill="#fff" d="M219.9 85.5c-11.2 1.4-11.7-11.5-24.7-28s-25.9-19-22.4-31.7c3.1-11.1 26.2-1.6 39.2 14.8 13 16.4 19.3 43.4 7.9 44.9z" opacity=".8" style="isolation:isolate"/><path fill="none" stroke="#fff" stroke-linecap="round" stroke-linejoin="round" stroke-width="7" d="M234.1 230.5h-74.2c-3.6 0-6.6-2.3-6.6-5.1v-16.9" opacity=".3" style="isolation:isolate"/></svg>