<svg xmlns="http://www.w3.org/2000/svg" version="1" viewBox="0 0 50 50"><path fill="#AFE55D" d="M8.134 38.248l16.874 7.817 17.403-6.334V28.243a.942.942 0 0 0-.546-.855l-11.062-5.125V7.134a.942.942 0 0 0-.546-.855L19.592 1.337a.945.945 0 0 0-.792 0L8.134 6.278a.943.943 0 0 0-.546.856v15.129h.001-.001v15.129c0 .368.213.701.546.856z"/><path fill="#C3FF68" d="M26.839 4.695l-7.247-3.357a.945.945 0 0 0-.792 0L8.134 6.278a.943.943 0 0 0-.546.856v4.568l19.251-7.007z"/><path fill="#444" d="M42.392 26.254l-10.338-4.789V7.134a2.2 2.2 0 0 0-1.271-1.989L20.115.202a2.197 2.197 0 0 0-1.841.001L7.608 5.145a2.201 2.201 0 0 0-1.27 1.989v30.259c0 .852.499 1.632 1.271 1.989L29.945 49.73a1.253 1.253 0 0 0 .541.119c.513 0 .998-.312 1.183-.818a1.236 1.236 0 0 0-.364-1.37V33.338l9.858-4.567v10.957a1.25 1.25 0 0 0 2.5 0V28.243a2.202 2.202 0 0 0-1.271-1.989zm-8.924-1.379l-9.523 4.415-3.56-1.649 9.526-4.413 3.557 1.647zM8.838 7.661l9.858 4.568v14.629l-9.858-4.566V7.661zm20.716 0v14.631l-2.923 1.354V9.015l2.923-1.354zm-5.29 17.081l-4.568 2.116v-14.63l4.568-2.117v14.631zm-5.068-13.384L9.669 6.944l4.445-2.059 9.527 4.413-4.445 2.06zm.5 17.066l3.722 1.724v13.804l-3.722-1.725V28.424zm-.5-25.893l9.526 4.413-2.686 1.244-9.522-4.415 2.682-1.242zM8.838 23.393l9.858 4.567v13.803l-9.858-4.568V23.393zm16.946 21.655V31.244l4.52 2.094v13.804l-4.52-2.094zm5.02-12.581l-4.464-2.068 9.527-4.413 4.463 2.068-9.526 4.413z"/></svg>