<?xml version="1.0" encoding="UTF-8"?>
<svg id="Layer_1" data-name="Layer 1" xmlns="http://www.w3.org/2000/svg" version="1.1" viewBox="0 0 50 50">
  <defs>
    <style>
      .cls-1 {
        fill: #8256d8;
      }

      .cls-1, .cls-2, .cls-3 {
        stroke-width: 0px;
      }

      .cls-2 {
        fill: #a475ef;
      }

      .cls-3 {
        fill: #444;
      }

      .cls-4 {
        stroke-miterlimit: 10;
      }

      .cls-4, .cls-5 {
        fill: none;
        stroke: #444;
      }

      .cls-5 {
        stroke-linecap: round;
        stroke-linejoin: round;
        stroke-width: 2.5px;
      }
    </style>
  </defs>
  <polygon class="cls-1" points="29.6 24.1 38.1 26.8 30.9 31.9 31 40.9 23.8 35.5 15.4 38.4 18.2 29.9 12.9 22.8 21.8 22.9 27 15.6 29.6 24.1"/>
  <g>
    <polygon class="cls-2" points="44 33.9 48.7 33.6 41.9 15.7 41.3 13.6 39.1 8.5 28.9 1.3 17.3 1.2 6.5 7.4 1.7 16.5 1.4 28.5 8.6 39.9 10 49.5 43.6 37.2 44 33.9"/>
    <path class="cls-5" d="M33.8,43.6c0-1.1.9-2,2-2h4.5c1.4,0,2.6-1.2,2.6-2.6v-4.9c0-.4.3-.8.8-.8h4.6l-3.9-7.8c-.8-1.6-1.3-3.4-1.5-5.2C41.7,9.3,32.1.9,21,1.7,10.6,2.2,2.2,11.1,1.8,21.7c-.2,4.9,1.3,9.7,4.2,13.5,2.9,3.8,4.7,8.4,4.8,13.2h18.3"/>
    <path class="cls-3" d="M21.2,24.9h2.4v2.4h-2.4v-2.4Z"/>
    <path class="cls-4" d="M22.4,8.1c-6.6,0-12.1,5.4-12.1,12.1s5.4,12.1,12.1,12.1,12.1-5.4,12.1-12.1-5.3-12.1-12.1-12.1Z"/>
    <path class="cls-3" d="M27.2,16.5c-.7-2.6-3.3-4.2-5.9-3.6-2.2.5-3.7,2.5-3.7,4.7h2.4c.1-1.3,1.3-2.3,2.6-2.2,1.3.1,2.3,1.3,2.2,2.6-.2,1.2-1.3,2.1-2.5,2-.5,0-1.1.4-1.1,1.1v2.5h2.4v-1.4c2.6-.5,4.1-3,3.6-5.7Z"/>
  </g>
</svg>