<?xml version="1.0" encoding="utf-8"?>
<!-- Generator: Adobe Illustrator 24.0.0, SVG Export Plug-In . SVG Version: 6.00 Build 0)  -->
<svg version="1.1" id="Layer_1" xmlns="http://www.w3.org/2000/svg" xmlns:xlink="http://www.w3.org/1999/xlink" x="0px" y="0px"
	 viewBox="0 0 50 50" style="enable-background:new 0 0 50 50;" xml:space="preserve">
<style type="text/css">
	.st0{fill:#A475EF;}
	.st1{fill:#BF94F7;}
	.st2{fill:#444444;stroke:#444444;stroke-width:1.1;stroke-linecap:round;stroke-linejoin:round;stroke-miterlimit:10;}
	.st3{fill:#444444;}
</style>
<g>
	<polygon class="st0" points="43.5,26.5 46.8,31.3 11.1,44.3 9.8,38.8 5.6,33.2 4.8,30 41,17.2 	"/>
	<polygon class="st1" points="39.9,14.6 41.2,17.2 3.3,30.8 3.4,25 3.5,22.4 37.8,9.9 	"/>
	<path class="st2" d="M33.6,47.8H11.1c-0.4,0-0.7-0.3-0.7-0.7v-0.3c0-4.2-1.5-8.3-4.1-11.6C3.5,31.4,2.1,26.7,2.2,22
		C2.6,11.6,10.9,2.9,21.1,2.3C32,1.6,41.4,9.7,42.4,20.6c0.2,1.5,0.6,3,1.3,4.3l4,8.2c0.2,0.3,0,0.7-0.3,0.9c-0.1,0-0.2,0.1-0.3,0.1
		h-4.6V38c0,2.1-1.6,3.7-3.7,3.7h-4.1c-0.3,0-0.5,0.2-0.5,0.5v5C34.3,47.5,34,47.8,33.6,47.8z M11.8,46.5H33v-4.3
		c0-1,0.8-1.8,1.8-1.8h4.1c1.3,0,2.4-1.1,2.4-2.4v-4.5c0-0.4,0.3-0.7,0.7-0.7h4.2l-3.6-7.2c-0.7-1.5-1.2-3.1-1.4-4.8
		c-1-10.2-9.8-17.9-20-17.2C11.6,4.1,3.9,12.3,3.5,22c-0.2,4.5,1.2,8.9,3.9,12.4S11.7,42.1,11.8,46.5z"/>
	<g>
		<g>
			<g>
				<rect x="21.4" y="25" class="st3" width="2.2" height="2.2"/>
			</g>
		</g>
		<g>
			<g>
				<path class="st3" d="M22.5,9.5c-6.1,0-11.1,5-11.1,11.1s5,11.1,11.1,11.1s11.1-5,11.1-11.1S28.7,9.5,22.5,9.5z M22.5,29.7
					c-5,0-9.1-4.1-9.1-9.1s4.1-9.1,9.1-9.1s9.1,4.1,9.1,9.1S27.6,29.7,22.5,29.7z"/>
			</g>
		</g>
		<g>
			<g>
				<path class="st3" d="M26.9,17.3c-0.6-2.4-3-3.9-5.4-3.3c-2,0.5-3.4,2.3-3.4,4.3h2.2c0.1-1.2,1.2-2.1,2.4-2
					c1.2,0.1,2.1,1.2,2,2.4c-0.2,1.1-1.2,1.9-2.3,1.8c-0.5,0-1,0.4-1,1l0,0v2.3h2.2v-1.3C26,22,27.4,19.7,26.9,17.3z"/>
			</g>
		</g>
	</g>
</g>
</svg>
