<svg xmlns="http://www.w3.org/2000/svg" version="1" viewBox="0 0 50 50"><path fill="#00C8E2" d="M45.623 25.584l1.395.828-.273.173-27.401 9.976L2.989 26.197 4.2 25.4l-1.211-.77 1.326-.87-1.326-.85 2.485-1.63-2.49-2.071L23.926 8.987l10.605 8.293 12.487 7.413z"/><path fill="#00DFFC" d="M3.329 22.685l2.145-1.405-2.49-2.071L23.926 8.987l5.41 4.236z"/><g fill="#031326"><path d="M31.319 20.193l-13.598 6.356.661.522 13.598-6.356zm-8.185-.009l6.221-2.901-.661-.521-6.221 2.9zm3.506-5.17l-.661-.522-6.221 2.901.661.521zm7.207 7.284l-13.598 6.356.661.522 13.598-6.356zm-11.026 8.569l.661.522 13.598-6.356-.661-.522zm-4.772-6.557a.467.467 0 0 0 .282.085.662.662 0 0 0 .117-.011.446.446 0 0 0 .305-.191l.672-1.126 1.854-.259c.188-.026.333-.132.368-.27a.258.258 0 0 0-.105-.274l-1.603-1.207c.081-.155.133-.312.171-.469.003-.009.009-.017.011-.025.002-.006-.003-.011-.002-.017.16-.73-.13-1.456-.841-1.991-1.508-1.134-4.393-1.079-6.174.121-.807.543-1.267 1.233-1.296 1.943-.025.608.263 1.171.833 1.627.778.622 1.969.912 3.25.847.012.004.021.013.035.013h.011c.057-.005.112-.016.169-.023.099-.008.194-.001.294-.013l1.649 1.24zm-5.251-2.261c-.505-.404-.761-.896-.739-1.421.026-.628.447-1.249 1.186-1.746 1.702-1.146 4.451-1.207 5.884-.127.64.482.895 1.112.746 1.755-.195.62-.734 1.201-1.523 1.636-.657.363-1.437.596-2.26.687-1.291.106-2.532-.174-3.294-.784zm5.674.315c.564-.311.996-.7 1.295-1.123l1.639 1.235c-.002.013-.046.069-.16.084l-1.973.276-.734 1.229c-.019.032-.073.061-.138.074-.079.015-.159.005-.202-.028l-1.488-1.119a6.17 6.17 0 0 0 1.761-.628z"/><path d="M17.583 21.685c.623-.344 1-.834 1.036-1.345.029-.417-.172-.81-.567-1.108-.878-.66-2.512-.689-3.643-.063-.623.344-1 .834-1.036 1.346-.03.417.172.81.567 1.107.455.342 1.112.514 1.798.514.637 0 1.299-.15 1.845-.451zm-3.494-.264c-.33-.248-.492-.556-.468-.89.03-.425.361-.842.908-1.145a3.638 3.638 0 0 1 1.729-.424c.628 0 1.229.157 1.643.469.33.248.492.556.468.89-.03.425-.361.842-.908 1.144-1.053.585-2.565.564-3.372-.044z"/><path d="M48.005 25.543l1.39-.89-14.155-8.41-11.157-8.724L.696 18.931l2.682 2.23-2.687 1.767 1.325.845-1.325.871 1.21.772-1.215.798L26.36 42.493l12.048-7.547a1.249 1.249 0 1 0-1.327-2.119l-10.714 6.711L5.295 26.176l1.009-.663 19.989 12.67.067.043 17.067-10.927 2.949 1.752a1.25 1.25 0 0 0 1.651-1.807l1.367-.876-1.389-.825zM24.616 35.569L7.548 21.41l-2.173-1.762 18.571-9.062 20.349 15.661.01.007-19.689 9.315zm9.888-4.401l-8.143 5.213-1.229-.779 9.372-4.434zM5.376 23.077l2.115-1.39L21.46 33.275 6.517 23.804l-1.141-.727zm38.194 2.286l-6.767-5.292 7.79 4.636-1.023.656zm-38.197-.736l.97-.637 16.541 10.485c.01.006.021.006.031.009l1.603 1.33.061.051.285-.135 1.497.949 9.899-6.337c.002-.001.002-.004.004-.006l7.497-3.547-17.401 11.14L5.373 24.627z"/></g></svg>