<?xml version="1.0" encoding="utf-8"?>
<!-- Generator: Adobe Illustrator 26.5.0, SVG Export Plug-In . SVG Version: 6.00 Build 0)  -->
<svg version="1.1" id="Camada_3" xmlns="http://www.w3.org/2000/svg" xmlns:xlink="http://www.w3.org/1999/xlink" x="0px" y="0px"
	 viewBox="0 0 50 50" style="enable-background:new 0 0 50 50;" xml:space="preserve">
<style type="text/css">
	.st0{fill:#FF6B6B;}
	.st1{fill:#E56060;}
	.st2{fill:none;stroke:#444444;stroke-width:2.5;stroke-linecap:round;stroke-linejoin:round;stroke-miterlimit:10;}
	.st3{fill:#E589EF;}
	.st4{fill:none;stroke:#444444;stroke-width:0.75;stroke-linecap:round;stroke-linejoin:round;stroke-miterlimit:10;}
	.st5{fill:none;stroke:#444444;stroke-width:0.5;stroke-miterlimit:10;}
	.st6{fill:#444444;}
	.st7{fill:none;stroke:#444444;stroke-width:0.5;stroke-linejoin:round;stroke-miterlimit:10;}
	.st8{fill:none;stroke:#444444;stroke-width:0.75;stroke-miterlimit:10;}
	.st9{fill:none;stroke:#444444;stroke-width:0.25;stroke-linecap:round;stroke-miterlimit:10;}
</style>
<g>
	<g>
		<polygon class="st0" points="35.78,4.01 43.05,9.49 44.97,16.19 1.92,31.89 2.81,18.27 8.58,8.11 22.35,1.81 		"/>
		<polygon class="st1" points="47.13,20.22 47.11,20.65 5.01,35.78 3.95,35.01 1.81,27.07 43.55,11.03 45.69,15.19 		"/>
		<g>
			<path class="st2" d="M42.76,10.09c6.29,7.48,7.37,18.46,1.89,27.2c-6.32,10.11-19.15,13.67-29.65,8.63"/>
			<path class="st2" d="M5.97,38.25c-5.15-7.39-5.71-17.43-0.63-25.54C12.13,1.84,26.43-1.45,37.29,5.34"/>
			<path class="st2" d="M42.18,9.49c0,0-1.95-2.51-5.06-4.26"/>
		</g>
	</g>
	<path class="st3" d="M4.65,36.24"/>
	<path class="st3" d="M9.19,39.07"/>
</g>
<g>
	<g>
		<path class="st4" d="M11.6,42.58h0.53c1.16,0,2.1-0.94,2.1-2.1v-3.68c0-1.16-0.94-2.1-2.1-2.1H11.6c-1.16,0-2.1,0.94-2.1,2.1v3.68
			C9.5,41.64,10.44,42.58,11.6,42.58z"/>
		<circle class="st4" cx="11.86" cy="40.7" r="0.23"/>
		<path class="st4" d="M13.76,35.48l0.47,0.04c0.84-0.14,1.62-0.54,2.22-1.14l0.72-0.72c1.03-0.85,1.58-1.15,2.91-0.96l4.98,0.94
			c0.74,0.14,1.23,0.86,1.09,1.6v0c-0.13,0.64-0.69,1.1-1.34,1.1h-3.66"/>
		<path class="st4" d="M13.76,41.81l1.36-0.39c0.29-0.07,1.33-0.04,1.63-0.02l7.29,0.41c1.07,0.06,2.12-0.23,3.01-0.83l8.04-5.46
			c0.68-0.46,0.9-1.35,0.53-2.07l0,0c-0.39-0.77-1.32-1.09-2.11-0.74l-7.59,3.09"/>
	</g>
	<path class="st5" d="M26.99,31.44l-1.21,1c0,0,0,0-0.76,0l-1.21-1l0.54-4.37h0.94c0,0,0.06,0,0.17,0h0.95c0.01,0,0.02,0,0.03-0.01
		L26.99,31.44z"/>
	<path class="st6" d="M41.89,19.7L30.22,18L25,7.41L19.78,18L8.11,19.7l8.45,8.23l-1.16,6.79l1.43-0.73l2.02-1.28l-0.18-0.5
		c0,0-1.4-7.57,4-7.57h5.27c5.41,0,4,7.57,4,7.57l-0.19,1.05l2.42-1.05l-0.73-4.28L41.89,19.7z M28.81,21.28
		c-0.11,1.85-1.64,3.31-3.5,3.31c-1.85,0-3.37-1.43-3.5-3.24c-0.02-0.1-0.02-0.19-0.02-0.29c0-1.45,0.88-2.71,2.16-3.24
		c0,0-0.56-1.97,1.37-1.97s1.36,1.97,1.36,1.97c1.27,0.53,2.16,1.78,2.16,3.24C28.83,21.13,28.83,21.2,28.81,21.28z"/>
	<g>
		<g>
			<g>
				<path class="st5" d="M23.54,24.11c0,0,0.23,2.96,0.8,2.96c0.01,0,0.01,0,0.02,0"/>
				<path class="st5" d="M26.45,27.06c0.55-0.08,0.91-3.14,0.91-3.14"/>
			</g>
			<line class="st5" x1="24.38" y1="26.88" x2="24.36" y2="27.07"/>
			<line class="st5" x1="26.45" y1="27.06" x2="26.43" y2="26.88"/>
		</g>
		<path class="st5" d="M28.8,21.28c-0.11,1.85-1.64,3.31-3.5,3.31c-1.85,0-3.37-1.43-3.5-3.24c2.35-0.75,3.5-3.8,3.5-3.8
			c0.06,0,0.11,0,0.17,0.01C25.55,17.77,26.64,20.49,28.8,21.28z"/>
		<g>
			<path class="st7" d="M25.3,17.54c0,0-1.15,3.05-3.5,3.8c-0.02-0.1-0.02-0.19-0.02-0.29c0-1.45,0.88-2.71,2.16-3.24
				C24.35,17.64,24.81,17.54,25.3,17.54z"/>
			<line class="st8" x1="21.79" y1="21.34" x2="21.78" y2="21.34"/>
			<path class="st5" d="M28.81,21.06c0,0.08,0,0.14-0.01,0.22c-2.17-0.78-3.25-3.5-3.34-3.73c0.42,0.01,0.83,0.11,1.19,0.27
				C27.93,18.35,28.81,19.6,28.81,21.06z"/>
			<path class="st8" d="M28.97,21.34c-0.06-0.02-0.11-0.03-0.17-0.07"/>
			<path class="st8" d="M25.46,17.55c0-0.01,0-0.01,0-0.01"/>
		</g>
		<path class="st5" d="M26.66,17.82c-0.36-0.15-0.77-0.25-1.19-0.27c-0.06-0.01-0.11-0.01-0.17-0.01c-0.49,0-0.95,0.1-1.37,0.28
			c0,0-0.56-1.97,1.37-1.97S26.66,17.82,26.66,17.82z"/>
	</g>
	<path class="st9" d="M25.3,17.54"/>
	<path class="st9" d="M24,20.63"/>
</g>
</svg>
