<?xml version="1.0" encoding="utf-8"?>
<!-- Generator: Adobe Illustrator 24.0.0, SVG Export Plug-In . SVG Version: 6.00 Build 0)  -->
<svg version="1.1" id="Layer_1" xmlns="http://www.w3.org/2000/svg" xmlns:xlink="http://www.w3.org/1999/xlink" x="0px" y="0px"
	 viewBox="0 0 50 50" style="enable-background:new 0 0 50 50;" xml:space="preserve">
<style type="text/css">
	.st0{fill:#FDCF72;}
	.st1{fill:#FCC34F;}
	.st2{fill:#444444;}
	.st3{fill:none;stroke:#444444;stroke-width:2.5;stroke-linecap:round;stroke-linejoin:round;stroke-miterlimit:10;}
</style>
<g>
	<polygon class="st0" points="20.2,6.2 26.3,7.7 3.7,25.9 3.8,19.7 3.9,13.1 3.9,8.5 4.3,6.9 9.5,6.8 	"/>
</g>
<g>
	<polygon class="st1" points="47.9,7.2 3.6,43.9 3.6,39.2 3.8,32.6 3.6,25.8 26.1,7.3 42.6,7.6 	"/>
</g>
<g>
	<path class="st2" d="M46.3,23.8V8.1H4.8v8.7h0.3c0.4,0,0.8,0.3,0.8,0.8c0,0.4-0.3,0.8-0.8,0.8H4.8v6.4h0.3c0.4,0,0.8,0.3,0.8,0.8
		c0,0.4-0.3,0.8-0.8,0.8H4.8v6.4h0.3c0.4,0,0.8,0.3,0.8,0.8c0,0.4-0.3,0.8-0.8,0.8H4.8V43h12.4v-0.5c0-0.4,0.3-0.8,0.8-0.8
		c0.4,0,0.8,0.3,0.8,0.8V43h6.4v-0.5c0-0.4,0.3-0.8,0.8-0.8c0.4,0,0.8,0.3,0.8,0.8V43h6.4v-0.5c0-0.4,0.3-0.8,0.8-0.8
		c0.4,0,0.8,0.3,0.8,0.8V43h11.8V32.4c0-0.7,0.6-1.2,1.2-1.2s1.2,0.6,1.2,1.2v11.9c0,0.7-0.6,1.2-1.2,1.2h-13v0.6
		c0,0.4-0.3,0.8-0.8,0.8c-0.4,0-0.8-0.3-0.8-0.8v-0.6h-6.4v0.6c0,0.4-0.3,0.8-0.8,0.8c-0.4,0-0.8-0.3-0.8-0.8v-0.6h-6.4v0.6
		c0,0.4-0.3,0.8-0.8,0.8c-0.4,0-0.8-0.3-0.8-0.8v-0.6H3.6c-0.7,0-1.2-0.6-1.2-1.2V34.2H1.8c-0.4,0-0.8-0.3-0.8-0.8
		c0-0.4,0.3-0.8,0.8-0.8h0.6v-6.4H1.8c-0.4,0-0.8-0.3-0.8-0.8c0-0.4,0.3-0.8,0.8-0.8h0.6v-6.4H1.8C1.4,18.3,1,18,1,17.6
		c0-0.4,0.3-0.8,0.8-0.8h0.6v-10c0-0.7,0.6-1.2,1.2-1.2h44c0.7,0,1.2,0.6,1.2,1.2v16.9c0,0.7-0.6,1.2-1.2,1.2S46.3,24.5,46.3,23.8z"
		/>
</g>
<g>
	<path class="st3" d="M37.8,45"/>
</g>
<g>
	<path class="st3" d="M22,44.8"/>
</g>
<g>
	<path class="st2" d="M9,40.2c-0.1,0-0.2,0-0.3-0.1c-0.4-0.2-0.6-0.6-0.4-1l6.8-16.8c0.1-0.2,0.3-0.4,0.6-0.5l20.7-3.8l5.2-6.1
		c0.3-0.3,0.7-0.4,1.1-0.1c0.3,0.3,0.4,0.7,0.1,1.1l-5.3,6.3c-0.1,0.1-0.3,0.2-0.4,0.3l-20.5,3.8L9.7,39.7C9.6,40,9.3,40.2,9,40.2z"
		/>
</g>
</svg>
