<?xml version="1.0" encoding="UTF-8"?>
<svg id="Camada_1" xmlns="http://www.w3.org/2000/svg" version="1.1" viewBox="0 0 300 300">
  <!-- Generator: Adobe Illustrator 29.3.1, SVG Export Plug-In . SVG Version: 2.1.0 Build 151)  -->
  <defs>
    <style>
      .st0 {
        fill: #65aa82;
      }

      .st1 {
        fill: #e6eaff;
      }

      .st2 {
        fill: #ffda00;
      }

      .st3 {
        fill: #dd437a;
      }

      .st4 {
        fill: #d32a53;
      }

      .st5 {
        fill: #fff;
      }

      .st6 {
        fill: #008dd3;
      }

      .st7 {
        opacity: .2;
      }

      .st8 {
        fill: #ffc502;
      }

      .st9 {
        fill: #515759;
        opacity: .5;
      }

      .st10 {
        fill: #138e44;
      }

      .st11 {
        opacity: .5;
      }
    </style>
  </defs>
  <g>
    <circle class="st6" cx="143.1" cy="150" r="140"/>
    <g>
      <g>
        <g>
          <g>
            <path class="st4" d="M289.7,102.7C225.8-58-1.4,44.3,45.4,197.3h0c22.4,64.2,93.6,97.9,157.3,74.1l27.9,12c3.8,1.7,6.5-1.2,8.7-3.7,3.6-4.5,12.2-9.8,13.2-15.3,0,0,.7-27.7.7-27.7,36.9-32.7,54-84.4,36.5-134Z"/>
            <path class="st7" d="M216.7,257.9l-13.7,13.5s0,0,0,.1l27.6,11.9c3.8,1.7,6.5-1.2,8.7-3.7,3.5-4.3,11.5-9.4,13-14.6l-8.6-3.9-27.1-3.2Z"/>
          </g>
          <path class="st3" d="M59.3,183.8c-22.3-63.6,11.2-133.2,74.8-155.5,63.6-22.3,133.2,11.2,155.5,74.8,18.6,53.2-.4,102.9-36.4,133.4l-.8,28.3c-.1,4-4.2,6.6-7.9,5l-27.9-12c-.6.2-1.2.5-1.9.8-63.6,22.3-133.2-11.2-155.4-74.8h0Z"/>
        </g>
        <g class="st7">
          <path class="st5" d="M68.2,123.7c0,.3,0,.7-.3,1.1.2.9-3.8,3.1-4.5-1.5,0,0,0-.4,0-.5,1.3-7,3.6-13.7,6.4-20.2,20.7-49.2,73.1-82.1,126.6-70.7,1.4.3,2.3,1.6,2,3-.2,1.2-1.2,2-2.3,2-14.1,1-27.7,3.1-40.5,7.4-37.8,12.1-65.6,42.9-85.3,76.3-.4.6-1.6,2.7-1.9,3.4,0,0-.1.2-.1.2,0,0,0,0,0,0h0c-.8-4.7-4.7-2.5-4.5-1.6,0,.1,0,0,0,.1,0,0,0,0,0,0,0,0,.2-.4.3-.6,1.3-2.2,4.7-.9,4.3,1.6h0Z"/>
        </g>
      </g>
      <g>
        <path class="st2" d="M80.1,215.8l28.8-12.6c1.4-.6,2.6,1.4,1.3,2.3l-47.5,33.7c-1,.7-2.3-.2-2-1.3l5.5-25.9c.2-1.1-1-2-1.9-1.4l-30.6,18c-.7.4-1.6.1-1.9-.6-1.1-2.8-2.1-5.8-2.7-8.9-.6-2.8-.9-5.7-1-8.5,0-.5.3-1,.8-1.2l58.4-23.2c1.1-.4,2.1.6,1.7,1.7l-10.6,26.5c-.4,1.1.7,2.1,1.7,1.7h0Z"/>
        <path class="st8" d="M118.2,234.5l5.1-16.4c.1-.4.7-.3.6.1l-2.8,29.1c0,.3-.4.4-.6.2l-7.9-10.4c-.2-.2-.5-.1-.6.1l-3,16.4c0,.2-.2.3-.4.2-1.4-.5-2.7-1-4.1-1.8-1.2-.7-2.3-1.4-3.3-2.3-.1,0-.1-.2,0-.4l9.4-27.2c0-.3.5-.3.6,0l6.4,12.4c.1.2.5.2.6,0h0Z"/>
      </g>
    </g>
  </g>
  <path class="st9" d="M259.4,176l-15-91.4c-.3-2.1-1.4-3.9-2.8-5-.3-.4-.6-.7-1-1-.3-.4-.6-.7-1-1-1.4-1.7-3.4-2.7-5.5-2.3l-42.9,7c-3.3.5-5.5,4.3-4.9,8.3l.5,2.9-5.6.3c-4.4-.2-29.3-.5-45.4-.7-19.4-.2-34.7,11.9-35.6,35l-1.7,42.4c-.3,7.1,2.5,13.8,7.1,18,.3.3.7.7,1,1,2.7,2.8,6,4.8,9.7,5.4l5.4.9c5.6.9,11.1.7,16.5-.6l11.6-2.7c-4.1,8.2-8.7,22.2-5.2,39.2.7,3.2,2,5.2,3.6,6.6.3.4.7.7,1,1,.5.5,1,1,1.5,1.4,3.5,2.5,8.4.8,9.8-3.2,4.2-12,17-43,40.5-56.7l.2,1.1c.3,2.1,1.4,3.9,2.8,5,.3.4.6.7,1,1,.3.4.6.7,1,1,1.4,1.7,3.4,2.7,5.5,2.3l42.9-7c3.3-.5,5.5-4.3,4.9-8.3Z"/>
  <path class="st1" d="M207.5,171.4l-16.8-78.7c-.1-.7-.7-1.1-1.4-1.1l-10.1.6h0c-4.4-.2-29.3-.5-45.4-.7-19.4-.2-34.7,11.9-35.6,35l-1.7,42.4c-.5,11,6.5,21,15.8,22.5l5.3.9c5.6.9,11.1.7,16.5-.6l12.2-2.9c1.1-.3,2,.9,1.5,1.9-4.1,8.2-8.9,22.3-5.3,39.4.7,3.5,2.3,5.7,4,6.9,3.4,2.5,8.4.8,9.8-3.2,4.3-12.1,17.3-43.6,41.2-57.1l9.7-5.4h0Z"/>
  <path class="st10" d="M199.3,180.4l-15-91.4c-.7-4,1.5-7.8,4.9-8.3l42.9-7c3.4-.6,6.6,2.3,7.3,6.3l15,91.4c.7,4-1.5,7.8-4.9,8.3l-42.9,7c-3.4.6-6.6-2.3-7.3-6.3h0Z"/>
  <g class="st7">
    <path class="st5" d="M213.9,85c-5.6,2.1-11.3,3.4-17.1,4.6-1.2.3-2.1,1.4-2.2,2.7,0,.4,0,1.7,0,2.2,0,3.2,0,6.4-.5,9.6-.1.9-.9,1.4-1.8,1.3-.6,0-1.1-.5-1.2-1-1.1-3.1-1.8-6.2-2.4-9.3-.1-.9-.3-1.5-.4-2.5-.5-5,3.4-9.3,8.3-9.8,5.5-.9,11-1.7,16.6-1.8,2.3,0,2.9,3.2.8,4h0Z"/>
  </g>
  <g class="st11">
    <path class="st5" d="M110.9,125.6c-2.5-11.4,5.5-23.1,16.4-26.5,6.1-2,13-1.9,18.9.2,2.5.8,2.2,4.5-.3,5-6.7,1.4-13.3,2.7-18.6,6.6-4.7,3.4-8,8.7-10.7,13.9-.3.7-.7,1.3-1.1,1.8-1.2,1.7-4.1,1.1-4.5-1h0Z"/>
  </g>
  <path class="st9" d="M197.8,176.8l.8-.5-8.9-54c.8,31.1-7.9,59.6-12.9,73.3,5.7-7.4,12.7-14.2,20.9-18.8Z"/>
  <circle class="st9" cx="228.4" cy="166.6" r="10.3"/>
  <circle class="st0" cx="226.7" cy="165.8" r="10.3"/>
</svg>