<svg xmlns="http://www.w3.org/2000/svg" id="Camada_3" data-name="Camada 3" viewBox="0 0 288.54 272.3"><defs><clipPath id="clippath"><path fill="none" stroke-width="0" d="M243.62 50.74c-18.8-14.48-42.35-23.1-67.92-23.1-61.52 0-111.4 49.87-111.4 111.4 0 25.29 8.43 48.61 22.63 67.31 20.34 26.79 52.53 44.09 88.76 44.09 61.52 0 111.4-49.87 111.4-111.4 0-35.95-17.04-67.92-43.48-88.29z"/></clipPath><style>.cls-1{fill:#ffd200}.cls-1,.cls-3,.cls-5{stroke-width:0}.cls-3{fill:#2b2b2b}.cls-5{fill:#fff}</style></defs><path id="Camada_10" fill="#008dd3" stroke-width="0" d="M272.3 135.6c.1 19.8-4.1 38.6-11.6 55.7-21.1 47.6-68.6 80.8-124 81-14.7.1-28.9-2.3-42.2-6.5-25-8-46.8-23-63.1-42.8-17-20.4-28.1-46-30.8-74-.4-4-.6-8.2-.6-12.3-.2-46.2 22.7-87.2 57.9-111.9 4.6-3.3 9.4-6.2 14.4-8.8 7-3.8 14.4-6.8 22-9.4 7.2-2.3 14.7-4 22.4-5.2C122.9.6 129.2.1 135.6 0c25-.1 48.5 6.6 68.8 18.3 3.7 2.1 7.1 4.3 10.5 6.8 16.2 11.5 29.8 26.5 39.7 43.9 1.1 2 2.2 3.9 3.2 6 .8 1.8 1.7 3.5 2.5 5.3 2.6 5.8 4.8 11.7 6.6 17.8 2 6.8 3.5 13.9 4.3 21 .7 5.4 1.1 10.9 1.1 16.5z" data-name="Camada 10"/><g clip-path="url(#clippath)"><path d="M266.55 116.71c0-24.63-7.98-47.38-21.48-65.85-18.8-14.48-42.35-23.1-67.92-23.1-61.52 0-111.4 49.87-111.4 111.4 0 25.29 8.43 48.61 22.63 67.31 18.57 13.78 41.57 21.94 66.48 21.94 61.68 0 111.69-50.01 111.69-111.69z" class="cls-1"/><path d="M177.14 250.55c61.52 0 111.4-49.87 111.4-111.4 0-35.95-17.04-67.92-43.48-88.29 13.5 18.46 21.48 41.22 21.48 65.85 0 61.68-50.01 111.69-111.69 111.69-24.9 0-47.9-8.16-66.48-21.94 20.34 26.79 52.53 44.09 88.76 44.09z" class="cls-1"/><path stroke-width="0" d="M177.14 250.55c61.52 0 111.4-49.87 111.4-111.4 0-35.95-17.04-67.92-43.48-88.29 13.5 18.46 21.48 41.22 21.48 65.85 0 61.68-50.01 111.69-111.69 111.69-24.9 0-47.9-8.16-66.48-21.94 20.34 26.79 52.53 44.09 88.76 44.09z" opacity=".2"/><path d="M138.56 173.73c-3.17 6.75-10 11.43-17.95 11.43-10.96 0-19.84-8.88-19.84-19.84 0-4.62 1.59-8.86 4.24-12.23h-14.1c0 20.54 16.65 37.19 37.19 37.19h14.38c0-5.96-1.44-11.57-3.93-16.56zm77.17 0c3.17 6.75 10 11.43 17.95 11.43 10.96 0 19.84-8.88 19.84-19.84 0-4.62-1.59-8.86-4.24-12.23h14.1c0 20.54-16.65 37.19-37.19 37.19h-14.38c0-5.96 1.44-11.57 3.93-16.56z" class="cls-5"/><path d="M233.68 185.16c-7.95 0-14.78-4.68-17.95-11.43 6.1-12.22 18.68-20.63 33.27-20.63h.28c2.65 3.37 4.24 7.61 4.24 12.23 0 10.96-8.88 19.84-19.84 19.84zm22.93-48.97c-13.15 8.31-36.49 21.78-52.33 17.67-4.99-1.55-2.98-8.88 2.12-7.63 10.59 3.71 26.57-2.73 36.69-6.88 4.06-1.75 8.1-3.67 11.99-5.73 1.66-.86 3.1 1.52 1.53 2.58zm-157.85-2.56c11.53 5.94 23.96 11.4 36.8 13.36 3.79.48 8.03.67 11.47-.64 2.04-.8 4.34.21 5.13 2.25s-.21 4.34-2.25 5.13c-2.8.9-5.71 1.03-8.34.9-7.16-.44-14.01-2.81-20.43-5.51-8.4-3.6-16.29-7.96-23.94-12.93-1.57-1.06-.13-3.48 1.56-2.56z" class="cls-3"/><path fill="#f96464" fill-rule="evenodd" stroke-width="0" d="M178.89 57.76l9.85-17.74c1.01-1.82 3.78-1.08 3.75 1l-.34 20.29c-.03 1.57 1.68 2.56 3.03 1.75l17.4-10.43c1.79-1.07 3.81.96 2.74 2.74l-10.43 17.4c-.81 1.35.18 3.05 1.75 3.03l20.29-.34c2.08-.03 2.82 2.74 1 3.75l-17.74 9.85c-1.37.76-1.37 2.73 0 3.5l17.74 9.85c1.82 1.01 1.08 3.78-1 3.75l-20.29-.34c-1.57-.03-2.56 1.68-1.75 3.03l10.43 17.4c1.07 1.79-.96 3.81-2.74 2.74l-17.4-10.43c-1.35-.81-3.05.18-3.03 1.75l.34 20.29c.03 2.08-2.74 2.82-3.75 1l-9.85-17.74c-.76-1.37-2.73-1.37-3.5 0l-9.85 17.74c-1.01 1.82-3.78 1.08-3.75-1l.34-20.29c.03-1.57-1.68-2.56-3.03-1.75l-17.4 10.43c-1.79 1.07-3.81-.96-2.74-2.74l10.43-17.4c.81-1.35-.18-3.05-1.75-3.03l-20.29.34c-2.08.03-2.82-2.74-1-3.75l17.74-9.85c1.37-.76 1.37-2.73 0-3.5l-17.74-9.85c-1.82-1.01-1.08-3.78 1-3.75l20.29.34c1.57.03 2.56-1.68 1.75-3.03l-10.43-17.4c-1.07-1.79.96-3.81 2.74-2.74l17.4 10.43c1.35.81 3.05-.18 3.03-1.75l-.34-20.29c-.03-2.08 2.74-2.82 3.75-1l9.85 17.74c.76 1.37 2.73 1.37 3.5 0z"/><path fill="none" fill-rule="evenodd" stroke="#2b2b2b" stroke-linecap="round" stroke-linejoin="round" stroke-width="3" d="M168.38 198.03s1.2-8.52 8.52-8.52 9 9 9 9m-43.8 18.48s30.72-15.84 70.08 0"/><circle cx="249.68" cy="165.15" r="6.84" class="cls-5"/><path d="M134.96 167.95a6.84 6.84 0 01-13.08-2.8c0-2.62 1.47-4.89 3.64-6.04a36.867 36.867 0 00-20.23-6.02h-.28a19.711 19.711 0 00-4.24 12.23c0 10.96 8.88 19.84 19.84 19.84 7.95 0 14.78-4.69 17.95-11.43a37.757 37.757 0 00-3.6-5.78z" class="cls-3"/><path d="M121.88 165.15a6.84 6.84 0 0013.08 2.8c-2.61-3.47-5.8-6.46-9.44-8.84a6.842 6.842 0 00-3.64 6.04z" class="cls-5"/></g></svg>