<svg xmlns="http://www.w3.org/2000/svg" id="Camada_1" version="1.1" viewBox="0 0 300 300"><defs><style>.st5{fill:#fff}.st7{opacity:.2}.st9{fill:#515759;opacity:.5}</style></defs><circle cx="143.1" cy="150" r="140" fill="#008dd3"/><path fill="#d32a53" d="M289.7 102.7C225.8-58-1.4 44.3 45.4 197.3c22.4 64.2 93.6 97.9 157.3 74.1l27.9 12c3.8 1.7 6.5-1.2 8.7-3.7 3.6-4.5 12.2-9.8 13.2-15.3l.7-27.7c36.9-32.7 54-84.4 36.5-134z"/><path d="M216.7 257.9L203 271.4v.1l27.6 11.9c3.8 1.7 6.5-1.2 8.7-3.7 3.5-4.3 11.5-9.4 13-14.6l-8.6-3.9-27.1-3.2z" class="st7"/><path fill="#dd437a" d="M59.3 183.8C37 120.2 70.5 50.6 134.1 28.3 197.7 6 267.3 39.5 289.6 103.1c18.6 53.2-.4 102.9-36.4 133.4l-.8 28.3c-.1 4-4.2 6.6-7.9 5l-27.9-12c-.6.2-1.2.5-1.9.8-63.6 22.3-133.2-11.2-155.4-74.8z"/><g class="st7"><path d="M68.2 123.7c0 .3 0 .7-.3 1.1.2.9-3.8 3.1-4.5-1.5v-.5c1.3-7 3.6-13.7 6.4-20.2 20.7-49.2 73.1-82.1 126.6-70.7 1.4.3 2.3 1.6 2 3-.2 1.2-1.2 2-2.3 2-14.1 1-27.7 3.1-40.5 7.4-37.8 12.1-65.6 42.9-85.3 76.3-.4.6-1.6 2.7-1.9 3.4l-.1.2c-.8-4.7-4.7-2.5-4.5-1.6v.1l.3-.6c1.3-2.2 4.7-.9 4.3 1.6z" class="st5"/></g><path fill="#ffda00" d="M80.1 215.8l28.8-12.6c1.4-.6 2.6 1.4 1.3 2.3l-47.5 33.7c-1 .7-2.3-.2-2-1.3l5.5-25.9c.2-1.1-1-2-1.9-1.4l-30.6 18c-.7.4-1.6.1-1.9-.6-1.1-2.8-2.1-5.8-2.7-8.9-.6-2.8-.9-5.7-1-8.5 0-.5.3-1 .8-1.2l58.4-23.2c1.1-.4 2.1.6 1.7 1.7l-10.6 26.5c-.4 1.1.7 2.1 1.7 1.7z"/><path fill="#ffc502" d="M118.2 234.5l5.1-16.4c.1-.4.7-.3.6.1l-2.8 29.1c0 .3-.4.4-.6.2l-7.9-10.4c-.2-.2-.5-.1-.6.1l-3 16.4c0 .2-.2.3-.4.2-1.4-.5-2.7-1-4.1-1.8-1.2-.7-2.3-1.4-3.3-2.3-.1 0-.1-.2 0-.4l9.4-27.2c0-.3.5-.3.6 0l6.4 12.4c.1.2.5.2.6 0z"/><path d="M259.4 176l-15-91.4c-.3-2.1-1.4-3.9-2.8-5-.3-.4-.6-.7-1-1-.3-.4-.6-.7-1-1-1.4-1.7-3.4-2.7-5.5-2.3l-42.9 7c-3.3.5-5.5 4.3-4.9 8.3l.5 2.9-5.6.3c-4.4-.2-29.3-.5-45.4-.7-19.4-.2-34.7 11.9-35.6 35l-1.7 42.4c-.3 7.1 2.5 13.8 7.1 18l1 1c2.7 2.8 6 4.8 9.7 5.4l5.4.9c5.6.9 11.1.7 16.5-.6l11.6-2.7c-4.1 8.2-8.7 22.2-5.2 39.2.7 3.2 2 5.2 3.6 6.6.3.4.7.7 1 1 .5.5 1 1 1.5 1.4 3.5 2.5 8.4.8 9.8-3.2 4.2-12 17-43 40.5-56.7l.2 1.1c.3 2.1 1.4 3.9 2.8 5 .3.4.6.7 1 1 .3.4.6.7 1 1 1.4 1.7 3.4 2.7 5.5 2.3l42.9-7c3.3-.5 5.5-4.3 4.9-8.3z" class="st9"/><path fill="#e6eaff" d="M207.5 171.4l-16.8-78.7c-.1-.7-.7-1.1-1.4-1.1l-10.1.6c-4.4-.2-29.3-.5-45.4-.7-19.4-.2-34.7 11.9-35.6 35l-1.7 42.4c-.5 11 6.5 21 15.8 22.5l5.3.9c5.6.9 11.1.7 16.5-.6l12.2-2.9c1.1-.3 2 .9 1.5 1.9-4.1 8.2-8.9 22.3-5.3 39.4.7 3.5 2.3 5.7 4 6.9 3.4 2.5 8.4.8 9.8-3.2 4.3-12.1 17.3-43.6 41.2-57.1l9.7-5.4z"/><path fill="#138e44" d="M199.3 180.4l-15-91.4c-.7-4 1.5-7.8 4.9-8.3l42.9-7c3.4-.6 6.6 2.3 7.3 6.3l15 91.4c.7 4-1.5 7.8-4.9 8.3l-42.9 7c-3.4.6-6.6-2.3-7.3-6.3z"/><g class="st7"><path d="M213.9 85c-5.6 2.1-11.3 3.4-17.1 4.6-1.2.3-2.1 1.4-2.2 2.7v2.2c0 3.2 0 6.4-.5 9.6-.1.9-.9 1.4-1.8 1.3-.6 0-1.1-.5-1.2-1-1.1-3.1-1.8-6.2-2.4-9.3-.1-.9-.3-1.5-.4-2.5-.5-5 3.4-9.3 8.3-9.8 5.5-.9 11-1.7 16.6-1.8 2.3 0 2.9 3.2.8 4z" class="st5"/></g><path d="M110.9 125.6c-2.5-11.4 5.5-23.1 16.4-26.5 6.1-2 13-1.9 18.9.2 2.5.8 2.2 4.5-.3 5-6.7 1.4-13.3 2.7-18.6 6.6-4.7 3.4-8 8.7-10.7 13.9-.3.7-.7 1.3-1.1 1.8-1.2 1.7-4.1 1.1-4.5-1z" class="st5" opacity=".5"/><path d="M197.8 176.8l.8-.5-8.9-54c.8 31.1-7.9 59.6-12.9 73.3 5.7-7.4 12.7-14.2 20.9-18.8z" class="st9"/><circle cx="228.4" cy="166.6" r="10.3" class="st9"/><circle cx="226.7" cy="165.8" r="10.3" fill="#65aa82"/></svg>