<?xml version="1.0" encoding="UTF-8"?>
<svg id="Camada_1" data-name="Camada 1" xmlns="http://www.w3.org/2000/svg" version="1.1" viewBox="0 0 50 50">
  <defs>
    <style>
      .cls-1 {
        stroke-width: .5px;
      }

      .cls-1, .cls-2, .cls-3 {
        fill: none;
        stroke: #444;
        stroke-linecap: round;
        stroke-linejoin: round;
      }

      .cls-4 {
        fill: #8256d8;
      }

      .cls-4, .cls-5 {
        stroke-width: 0px;
      }

      .cls-5 {
        fill: #a475ef;
      }

      .cls-3 {
        stroke-width: 2.5px;
      }
    </style>
  </defs>
  <polygon class="cls-4" points="28.6 21 36.5 23.5 29.8 28.2 29.9 36.4 23.3 31.5 15.5 34.1 18.1 26.4 13.2 19.8 21.4 19.9 26.2 13.2 28.6 21"/>
  <g>
    <path class="cls-5" d="M48.7,19.9c-.2-.8-2.7-7.5-3.2-8.1l-3-3.5h-.2c0,0-7.6-5.7-7.6-5.7l-7.8-.7c-3.2,0-14.5.3-21.4,10.2l-3.9,10.6h-.2c0,0,4,13.5,4,13.5.1.4,4.5,5.7,4.9,5.9l5.6,3,32.2-11.7c.7-.4,1.7-8.6.8-13.4Z"/>
    <g>
      <path class="cls-3" d="M32.3,47.2c-7,2.3-15,1.2-21.3-3.6C.6,35.8-1.5,21.1,6.3,10.8"/>
      <path class="cls-3" d="M6.2,11c2-3,4.7-4.7,4.7-4.7l.7-.5C19.7,0,30.8-.1,39.2,6.1c10.4,7.8,12.4,22.5,4.7,32.8"/>
    </g>
    <path class="cls-2" d="M15.4,28.3c.6.8,1.5,1.2,2.7,1.2s1.1,0,1.6-.3c.5-.2,1-.5,1.7-.9l2,2.8c-1.6,1.3-3.4,2-5.5,2s-3.1-.3-4.3-1c-1.2-.7-2.2-1.8-2.8-3.1-.6-1.3-1-2.9-1-4.7s.4-3.4,1-4.7c.6-1.3,1.6-2.4,2.8-3.2,1.2-.8,2.7-1.1,4.3-1.1s2.2.1,3,.5c.9.4,1.8.9,2.6,1.5l-2,2.7c-.5-.4-1-.7-1.6-.9-.5-.2-1.1-.3-1.7-.3-2.4,0-3.6,1.8-3.6,5.5,0,1.9.3,3.2.8,4.1h0,0ZM35.7,32.6c-.7,2.2-1.7,3.8-3.2,5-1.5,1.2-3.4,1.8-5.9,2l-.5-3.3c1.6-.2,2.8-.6,3.6-1.1.3-.2.8-.8.8-.8l-5.8-18.6h4.8l3.4,13.9,3.6-13.9h4.7l-5.5,16.8Z"/>
    <line class="cls-1" x1="42" y1="19.1" x2="46.4" y2="16.3"/>
    <line class="cls-1" x1="8.6" y1="40.7" x2="16.8" y2="35.4"/>
    <line class="cls-1" x1="40.5" y1="23.5" x2="46.9" y2="19.4"/>
    <line class="cls-1" x1="39.2" y1="14" x2="43.5" y2="11.3"/>
    <line class="cls-1" x1="11.2" y1="42.7" x2="27" y2="32.3"/>
    <line class="cls-1" x1="5.2" y1="36.2" x2="11.3" y2="32"/>
    <line class="cls-1" x1="42.8" y1="14.9" x2="44.8" y2="13.4"/>
    <line class="cls-1" x1="6.9" y1="38.4" x2="13.8" y2="33.8"/>
  </g>
</svg>