<svg xmlns="http://www.w3.org/2000/svg" id="Camada_1" data-name="Camada 1" version="1.1" viewBox="0 0 50 50"><defs><style>.cls-3{fill:none;stroke:#444;stroke-linecap:round;stroke-linejoin:round;stroke-width:2.5px}</style></defs><path fill="#8256d8" stroke-width="0" d="M28.6 21l7.9 2.5-6.7 4.7.1 8.2-6.6-4.9-7.8 2.6 2.6-7.7-4.9-6.6 8.2.1 4.8-6.7 2.4 7.8z"/><path fill="#a475ef" stroke-width="0" d="M48.7 19.9c-.2-.8-2.7-7.5-3.2-8.1l-3-3.5h-.2l-7.6-5.7-7.8-.7c-3.2 0-14.5.3-21.4 10.2L1.6 22.7h-.2l4 13.5c.1.4 4.5 5.7 4.9 5.9l5.6 3 32.2-11.7c.7-.4 1.7-8.6.8-13.4z"/><path d="M32.3 47.2c-7 2.3-15 1.2-21.3-3.6C.6 35.8-1.5 21.1 6.3 10.8" class="cls-3"/><path d="M6.2 11c2-3 4.7-4.7 4.7-4.7l.7-.5c8.1-5.8 19.2-5.9 27.6.3 10.4 7.8 12.4 22.5 4.7 32.8" class="cls-3"/><path fill="none" stroke="#444" stroke-linecap="round" stroke-linejoin="round" d="M15.4 28.3c.6.8 1.5 1.2 2.7 1.2s1.1 0 1.6-.3c.5-.2 1-.5 1.7-.9l2 2.8c-1.6 1.3-3.4 2-5.5 2s-3.1-.3-4.3-1c-1.2-.7-2.2-1.8-2.8-3.1-.6-1.3-1-2.9-1-4.7s.4-3.4 1-4.7c.6-1.3 1.6-2.4 2.8-3.2 1.2-.8 2.7-1.1 4.3-1.1s2.2.1 3 .5c.9.4 1.8.9 2.6 1.5l-2 2.7c-.5-.4-1-.7-1.6-.9-.5-.2-1.1-.3-1.7-.3-2.4 0-3.6 1.8-3.6 5.5 0 1.9.3 3.2.8 4.1h0zm20.3 4.3c-.7 2.2-1.7 3.8-3.2 5-1.5 1.2-3.4 1.8-5.9 2l-.5-3.3c1.6-.2 2.8-.6 3.6-1.1.3-.2.8-.8.8-.8l-5.8-18.6h4.8l3.4 13.9 3.6-13.9h4.7l-5.5 16.8z"/><path fill="none" stroke="#444" stroke-linecap="round" stroke-linejoin="round" stroke-width=".5" d="M42 19.1l4.4-2.8M8.6 40.7l8.2-5.3m23.7-11.9l6.4-4.1M39.2 14l4.3-2.7M11.2 42.7L27 32.3M5.2 36.2l6.1-4.2m31.5-17.1l2-1.5m-37.9 25l6.9-4.6"/></svg>