<svg xmlns="http://www.w3.org/2000/svg" data-name="Camada 1" viewBox="0 0 50 50"><path fill="#8256d8" d="M30.2 18.3l7.8 2.4-6.7 4.8.1 8.2-6.6-4.9-7.7 2.6 2.6-7.8-4.9-6.6 8.2.1 4.7-6.7 2.5 7.9z"/><path fill="#a475ef" d="M48 15.1v-4.2l-2.9-3.3-24.7-.7c-3.5 0-17.7.2-17.7 3.7L1.4 31.4 4 39.3l14.2 1.2c2.2.1-6.2 7.1-4.1 6.3l5.5 1.2 14.7-5.2-.9-1.6 4.8.2 6.2-1.3 3.2-5.3c.8-.5 1.4-17.6.3-19.8z"/><g fill="none" stroke="#444" stroke-miterlimit="10"><rect width="45.5" height="32" x="2.2" y="7.8" rx="4.6" ry="4.6"/><path stroke-linecap="round" stroke-width="2.5" d="M26.5 47.6H14v-.4c0-3 2.4-5.4 5.4-5.4h1v-1.1H9c-4 0-7.2-3.2-7.2-7.2V14.1c0-4 3.2-7.2 7.2-7.2h32c4 0 7.2 3.2 7.2 7.2v19.4c0 4-3.2 7.2-7.2 7.2H30.4v1.1c1.2 0 2.3.4 3.3 1.1"/></g><path fill="#444" d="M34.2 13.2l-3.1 12.2-2.9-12.2H24l5.1 16.3-.7.7c-.7.5-1.7.8-3.1 1l.4 2.9c2.1-.2 3.9-.7 5.1-1.8 1.3-1 2.2-2.4 2.8-4.3l4.8-14.8h-4.1zm-15.1 2.6c.5 0 1 0 1.5.2s1 .5 1.4.8l1.7-2.3c-.7-.6-1.4-1-2.3-1.4-.7-.3-1.7-.4-2.6-.4-1.4 0-2.7.3-3.7 1-1.1.7-1.9 1.7-2.4 2.8-.5 1.2-.9 2.6-.9 4.1s.3 2.9.9 4.1c.5 1.1 1.4 2.1 2.4 2.7 1.1.6 2.3.9 3.8.9s3.4-.5 4.8-1.7L22 24.2c-.6.4-1.1.6-1.5.8-.4.2-.9.2-1.4.2-1 0-1.8-.3-2.3-1-.5-.7-.8-1.9-.7-3.6 0-3.2 1-4.8 3.1-4.8z"/><path fill="#444" stroke="#444" stroke-miterlimit="10" stroke-width=".5" d="M2.9 35.3h44.3"/><circle cx="25" cy="37.4" r="1" fill="none" stroke="#444" stroke-miterlimit="10" stroke-width=".5"/></svg>