<svg xmlns="http://www.w3.org/2000/svg" viewBox="0 0 50 50"><defs><style>.cls-1,.cls-3{fill:none;stroke:#444;stroke-linecap:round;stroke-linejoin:round}.cls-3{fill:#444}</style></defs><g id="Camada_1"><g id="Layer_1"><path fill="#46b8b0" d="M47.6 18l.5-11-1.9-3.8-15.4.5C27.6 3.7 3 .7 3 3.9L1.3 24.5 2.5 48l13.6.6 31-11c.7-.4 1.5-17.6.5-19.6z"/><path fill="none" stroke="#444" stroke-linecap="round" stroke-linejoin="round" stroke-width="2.5" d="M32.7 48.5h-27c-1.9 0-3.4-1.6-3.4-3.5V6.1c0-1.9 1.5-3.5 3.4-3.5h39c1.9 0 3.4 1.6 3.4 3.5v32.5"/><path d="M18.9 36.6l-5-5c-.6-.6-1-1.5-1-2.3s.2-1 .4-1.3l4.6-9.5 1 18.1z" class="cls-1"/><path d="M35.8 19.4l-5-5c-.4-.4-1.3-1-2.1-1s-1.3.1-1.7.4l-9.1 4.7 17.9.9z" class="cls-3"/><path d="M24.8 42.5h12v-5.2l-9-2.8-8.2 2.8 5.2 5.2z" class="cls-1"/><path d="M17.9 33.9c0 1.5.2 1.9 1 2.7l.8.8h17.1l-8.4-9.5-10.5-9.3v15.3z" class="cls-3"/><path d="M33.2 18.5H17.9l18.9 18.9h5.1V25.5l-6.1-6.1c-.8-.8-1.6-.9-2.6-.9z" class="cls-1"/></g></g></svg>