<svg xmlns="http://www.w3.org/2000/svg" viewBox="0 0 50 50"><path fill="#4ecdc4" d="M35.3 13.1V13c-2.9-.2-5.7-.2-8.6-.2h-8.6c2.9 0 5.7-.1 8.6 0s5.7.1 8.6.2c-.2-1.2-.5-2.4-1.2-3.3-1.7-1.9-3.6-3.7-5.5-5.4-1.2-1.1-2.2-1-3.5-.2s-2.6 1.7-3.9 2.6c-3 2-6 4.1-9.1 6.1-.2.2-.4.4-.5.7L3.5 25.8c-.6.9-.8 1.5-.8 2.2L39 14.7c-1.1-.8-2.3-1.3-3.7-1.6z"/><path fill="#46b8b0" d="M47.3 23.6c0-.6-.2-1-.6-1.4-2.2-2.2-4.3-4.4-6.5-6.5-.4-.4-.8-.7-1.2-1L2.7 27.9c.1.7.4 1.3 1.2 2 1 1.1 2.2 2 3.1 3.2 1.4 1.7 3.2 2.6 5.3 3.2.1.1.2.2.2.3.3 1.6 1 3 2.1 4.1 1 1 2 2.1 3.1 3.1L47.3 33v-9.4z"/><path fill="#031326" d="M48.5 33.6V22.7c0-.9-.3-1.6-.9-2.3l-3-3c-1.2-1.2-2.3-2.4-3.5-3.5-1.3-1.3-2.9-2.2-4.7-2.7-.2-1.2-.6-2.4-1.4-3.3-1.8-2-3.8-3.9-5.6-5.5-2.1-1.9-3.9-1.1-5.1-.3-1.3.8-2.6 1.7-3.9 2.6C18.3 6.1 16.2 7.6 14 9l-2.9 1.9-.1.4c-.1.2-.3.4-.4.5L2.5 24.1c-1.5 2.2-1.4 3.8.5 5.8l1.2 1.2c.7.6 1.3 1.3 1.8 1.9 1.3 1.6 3 2.7 5.4 3.4.4 1.6 1.1 3 2.4 4.3 1.2 1.3 2.5 2.5 3.8 3.8l1 1 2.4 2.4c.3.3.9.9 2 .9h15.4c1.4 0 1.9-.9 2-1.4.2-.8.5-1.5.7-2.3.3-1 .7-2 .9-3.1l1.2-.4c1.3-.4 2.7-.8 4-1.2 1-.3 1.4-1 1.4-2.1v-.1l-.1-4.6zM37.9 46.2H22.8s-.1 0-.2-.2l-2.4-2.4-1-1c-1.3-1.2-2.5-2.5-3.7-3.8-.8-.8-1.3-1.7-1.6-2.6h.1c.2 0 .3.1.5.2.1 0 .1 0 .2.1.2.1.4.2.6.2.4.1.7.3 1.1.4 1 .3 1.9.7 2.9 1 4.1 1.4 8.4 2.8 12.5 4.5l.9.3c.1 0 .2.1.3.1.2.1.4.1.6.1.1 0 .2 0 .3.1.2 0 .3.1.5.1h1.4c.1 0 .3 0 .4-.1.2 0 .4-.1.6-.1.1 0 .2-.1.4-.1.2-.1.4-.2.7-.2.1 0 .2-.1.3-.1.3-.1.6-.3 1-.5l.2-.1c-.2.7-.4 1.4-.7 2.1-.3.7-.5 1.3-.8 2zM27.8 4.3c1.7 1.5 3.6 3.4 5.4 5.3.4.5.6 1.2.8 2h-.2c-1.1-.1-2.1-.1-3.2-.1H14.9l.6-.4c2.1-1.4 4.2-2.9 6.4-4.3 1.3-.9 2.6-1.7 3.9-2.5.9-.7 1.3-.6 2 0zm11.1 37.1l-.3.2c-2.2 1.3-4.2 1.4-6.6.4-4.1-1.7-8.4-3.1-12.5-4.6-1-.3-1.9-.7-2.9-1-.3-.1-.7-.3-1-.4-.2-.1-.5-.2-.7-.3-.1 0-.1 0-.2-.1-.2-.1-.3-.1-.5-.2-.1 0-.2 0-.3-.1h-.1V35l-.8-.8-.4-.1h-.1V13.5c.1-.1.1-.2.2-.3l.9.9.9.9c.8.8 1.6 1.6 2.3 2.4s1.5 1.5 2.2 2.2c.5.4.9.9 1.4 1.3.5.5.9 1 1.4 1.4.4.5.9 1 1.4 1.4l9.4 9.4 6.6 6.6.4 1.3v.1s-.1 0-.1.1c-.2 0-.4.1-.6.2zm2.8-3.2c0 .1-.1.1-.1.2l-.3.6c0 .1-.1.2-.1.3v.1l-.7.4h-.3L33 32.6l-9.4-9.4c-.5-.5-.9-.9-1.3-1.4-.5-.5-.9-1-1.4-1.5s-.9-.9-1.4-1.3c-.7-.7-1.5-1.4-2.2-2.1-.8-.9-1.6-1.7-2.3-2.5-.3-.3-.7-.6-1-1l-.8-.8.6-.4h17.3c.5 0 1.1 0 1.6.1.4 0 .9 0 1.3.1v.1c.1.5.5.9 1 1 .1 0 .2.1.3.1.3.8.7 1.7 1 2.5l2.1 6c1.3 3.7 2.6 7.5 4 11.2.5 1.5.5 2.6-.1 3.8l-.3.5c0 .1-.1.3-.3.6zM4.5 25.5l7.2-10.8V34c-1.7-.6-2.8-1.3-3.8-2.5-.6-.8-1.4-1.5-2.1-2.2l-1.1-1.1c-1-1.2-1-1.5-.2-2.7zm37.9 13.2c-.1 0-.1 0 0 0 0-.1 0-.2.1-.3.1-.2.2-.4.3-.7l.3-.5c.7-1.4.8-2.7.2-4.4-1.4-3.7-2.7-7.5-4-11.2l-2.1-6c-.2-.7-.5-1.3-.8-2 1.1.4 2.1 1 3 1.9l3.5 3.5 3 3c.2.2.2.2.2.5v15.4c-1.2.4-2.4.7-3.6 1.1l-.1-.3z"/></svg>