<?xml version="1.0" encoding="utf-8"?>
<!-- Generator: Adobe Illustrator 24.0.3, SVG Export Plug-In . SVG Version: 6.00 Build 0)  -->
<svg version="1.1" id="Layer_1" xmlns="http://www.w3.org/2000/svg" xmlns:xlink="http://www.w3.org/1999/xlink" x="0px" y="0px"
	 viewBox="0 0 50 50" style="enable-background:new 0 0 50 50;" xml:space="preserve">
<style type="text/css">
	.st0{fill:#00C8E2;}
	.st1{fill:#00DFFC;}
	.st2{fill:#444444;}
</style>
<g>
	<g>
		<g>
			<path class="st0" d="M5.5,38.3l5.7,3.3L45,22.9l-0.1-7.3c0-1.6-0.9-3.2-2.3-4L26.4,2.2c-1.4-0.8-3.2-0.8-4.6,0L5.5,11.6
				c-1.4,0.8-2.3,2.3-2.3,4v18.8C3.2,35.9,4.1,37.4,5.5,38.3z"/>
		</g>
		<g>
			<path class="st1" d="M32.9,6l-6.6-3.9c-1.4-0.8-3.2-0.8-4.6,0L5.5,11.6c-1.4,0.8-2.3,2.3-2.3,4l-0.3,7.9L32.9,6z"/>
		</g>
		<g>
			<path class="st2" d="M24.1,49.5c-1,0-2-0.3-2.9-0.8L4.9,39.3c-1.8-1-2.9-3-2.9-5.1V15.5c0-2.1,1.1-4,2.9-5.1l16.2-9.4
				c1.8-1,4-1,5.8,0l16.2,9.4c1.8,1,2.9,3,2.9,5.1v13.8c0,0.7-0.6,1.2-1.2,1.2c-0.7,0-1.2-0.6-1.2-1.2V15.5c0-1.2-0.6-2.3-1.7-2.9
				L25.7,3.2c-1-0.6-2.3-0.6-3.4,0L6.1,12.6c-1,0.6-1.7,1.7-1.7,2.9v18.8c0,1.2,0.6,2.3,1.7,2.9l16.2,9.4c1,0.6,2.3,0.6,3.4,0
				l4.5-2.6c0.6-0.3,1.3-0.1,1.7,0.5c0.3,0.6,0.1,1.3-0.5,1.7L27,48.7C26.1,49.2,25.1,49.5,24.1,49.5z"/>
		</g>
	</g>
	<g>
		<path class="st2" d="M24.1,12.8c-7,0-12.7,5.7-12.7,12.7S17,38.2,24.1,38.2s12.7-5.7,12.7-12.7S31.1,12.8,24.1,12.8z M29.6,20.5
			l-3,6.1c-0.3,0.6-0.8,1.1-1.3,1.4l-6.1,3c-0.2,0.1-0.4,0-0.5-0.2c-0.1-0.1-0.1-0.2,0-0.3l3-6.1c0.3-0.6,0.8-1.1,1.3-1.4l6.1-3
			c0.2-0.1,0.4,0,0.5,0.2C29.6,20.3,29.6,20.4,29.6,20.5z"/>
		<circle class="st2" cx="24.1" cy="25.5" r="1"/>
		<path class="st2" d="M24.1,14.4c-1.3,0-2.4-1.1-2.4-2.4c0-1.3,1.1-2.4,2.4-2.4c1.3,0,2.4,1.1,2.4,2.4
			C26.5,13.3,25.4,14.4,24.1,14.4C24.1,14.4,24.1,14.4,24.1,14.4z M24.1,11.4c-0.4,0-0.6,0.3-0.6,0.6s0.3,0.6,0.6,0.6
			c0.4,0,0.6-0.3,0.6-0.6c0,0,0,0,0,0C24.7,11.6,24.4,11.4,24.1,11.4z"/>
	</g>
</g>
</svg>
