<?xml version="1.0" encoding="utf-8"?>
<!-- Generator: Adobe Illustrator 26.0.3, SVG Export Plug-In . SVG Version: 6.00 Build 0)  -->
<svg version="1.1" id="Layer_1" xmlns="http://www.w3.org/2000/svg" xmlns:xlink="http://www.w3.org/1999/xlink" x="0px" y="0px"
	 viewBox="0 0 50 50" style="enable-background:new 0 0 50 50;" xml:space="preserve">
<style type="text/css">
	.st0{fill:#00C8E2;}
	.st1{fill:#00DFFC;}
	.st2{fill:#444444;}
	.st3{fill:none;stroke:#494949;stroke-linecap:round;stroke-linejoin:round;stroke-miterlimit:10;}
	.st4{fill:#494949;stroke:#494949;stroke-linecap:round;stroke-linejoin:round;stroke-miterlimit:10;}
</style>
<g>
	<g>
		<path class="st0" d="M5,45.4l41.8-15.2V8.6c0-3-2.4-5.4-5.4-5.4H8.6c-3,0-5.4,2.4-5.4,5.4v32.8C3.2,42.9,3.9,44.4,5,45.4z"/>
		<path class="st1" d="M45,4.6c-1-0.9-2.3-1.4-3.6-1.4H8.6c-3,0-5.4,2.4-5.4,5.4v11.3C3.2,19.8,45,4.6,45,4.6z"/>
		<path class="st2" d="M25,48.1H8.5c-3.6,0-6.6-3-6.6-6.6V8.5c0-3.6,2.9-6.6,6.6-6.6h33.1c3.6,0,6.6,2.9,6.6,6.6v21.7
			c0,0.6-0.5,1.2-1.2,1.2c-0.7,0-1.2-0.5-1.2-1.2l0,0V8.5c0-2.3-1.9-4.2-4.2-4.2H8.5c-2.3,0-4.2,1.9-4.2,4.2v33.1
			c0,2.3,1.9,4.2,4.2,4.2H25c0.6,0,1.2,0.5,1.2,1.1S25.7,48.1,25,48.1C25.1,48.1,25,48.1,25,48.1z"/>
	</g>
	<g>
		<path class="st3" d="M18.9,36.6l-5-5c-0.6-0.6-1-1.5-1-2.3c0-0.4,0.2-1,0.4-1.3l4.6-9.5L18.9,36.6z"/>
		<path class="st4" d="M35.8,19.4l-5-5c-0.4-0.4-1.3-1-2.1-1c-0.7,0-1.3,0.1-1.7,0.4l-9.1,4.6L35.8,19.4z"/>
		<polygon class="st3" points="24.8,42.5 36.8,42.5 36.8,37.3 27.8,34.5 19.6,37.3 		"/>
		<path class="st4" d="M17.9,33.9c0,1.5,0.2,1.9,1,2.7l0.8,0.8h17.1l-8.4-9.5l-10.5-9.3V33.9z"/>
		<path class="st3" d="M33.2,18.5H17.9l18.9,18.9h5.1V25.5l-6.1-6.1C35,18.6,34.2,18.5,33.2,18.5z"/>
	</g>
</g>
</svg>
