<svg xmlns="http://www.w3.org/2000/svg" id="Layer_1" x="0" y="0" version="1.1" viewBox="0 0 50 50" xml:space="preserve"><style>.st4{fill:none;stroke:#444;stroke-width:.5;stroke-linecap:round;stroke-linejoin:round;stroke-miterlimit:10}</style><path fill="#d1bd00" d="M29.9 20.8l7.8 2.4-6.7 4.7.1 8.2-6.6-4.9-7.8 2.7 2.7-7.8-4.9-6.6 8.2.1 4.7-6.7z"/><path fill="#f9f941" d="M44.7 12.4l-5.6-3.6-7.7-4.4-6-2.8C22.3 1.5 4 10.5 4 13.7l-.5 7.8.5 15.1 11.5 7.6 31-11c.8-.5-.8-18.8-1.8-20.8z"/><path fill="none" stroke="#444" stroke-linecap="round" stroke-linejoin="round" stroke-miterlimit="10" stroke-width="2.5" d="M30 46.4l-2.2 1.3c-1.7 1-3.8 1-5.5 0l-15.6-9C5.1 37.7 4 35.9 4 34V16c0-2 1-3.8 2.7-4.7l15.6-9c1.7-1 3.8-1 5.5 0l15.6 9c1.7 1 2.7 2.8 2.7 4.7v18c0 2-1 3.8-2.7 4.7l-2.5 1.4"/><path fill="none" stroke="#444" stroke-linecap="round" stroke-linejoin="round" stroke-miterlimit="10" d="M33.9 29.8V15.1c0-1.5-1.2-2.7-2.7-2.7H19.7c-1.5 0-2.7 1.2-2.7 2.7v24.1c0 1.5 1.2 2.7 2.7 2.7h7.5"/><path d="M26.1 39.2h-1.3M26.9 15h-3M29 30.2s-3.2.9-3.2 3.9c0 0-.1 1.3 1.3 3.2 0 0 .8.9.7 1.9h1.6v-1.4s1.6.4 3.4 0v1.5h1.7s.9-2.5 3.2-2.7l1.3-.2v-2.1s-1.3-.1-2.1-1.3c0 0-1.2-2.4-3.6-2.9" class="st4"/><path d="M34.4 30.5s1-.9 2.7-.2c0 0-1 .6-.8 1.9m-13 .7s1.9.1 1.7 1.5c0 0-.2 1-1 .4 0 0-.6-.5.2-1 0 0 .6-.3 1.7.2" class="st4"/><circle cx="31.1" cy="29.1" r="2.3" class="st4"/><path d="M29.2 31.6s.3-.2 1-.3m2.9.2s-.3-.2-1-.3m-.3-2.9s-.4-.5-1.1-.3c0 0-.5.2-.3.7 0 0 .1.2.7.4 0 0 .6.1.6.5 0 0 0 .6-.8.5 0 0-.5-.1-.8-.3m1-1.8v-.5m-.1 3.1v-.5" class="st4"/></svg>