<?xml version="1.0" encoding="utf-8"?>
<!-- Generator: Adobe Illustrator 28.0.0, SVG Export Plug-In . SVG Version: 6.00 Build 0)  -->
<svg version="1.1" id="Layer_1" xmlns="http://www.w3.org/2000/svg" xmlns:xlink="http://www.w3.org/1999/xlink" x="0px" y="0px"
	 viewBox="0 0 50 50" style="enable-background:new 0 0 50 50;" xml:space="preserve">
<style type="text/css">
	.st0{fill:#FC9D9A;}
	.st1{fill:none;stroke:#444444;stroke-width:0.5;stroke-miterlimit:10;}
	.st2{fill:none;stroke:#444444;stroke-miterlimit:10;}
	.st3{fill:none;stroke:#444444;stroke-linecap:round;stroke-linejoin:round;stroke-miterlimit:10;}
	.st4{fill:none;stroke:#444444;stroke-width:2.5;stroke-linecap:round;stroke-linejoin:round;stroke-miterlimit:10;}
</style>
<path class="st0" d="M48.6,22.5l-2.4-7.2L35,11.4l-4.8-4.6C14.7,2,10.8,13,10.8,15.3l-7,1.8l-2,6.5l1.6,7.3l3.8,3.6l5.5,1.1l2.9,5.3
	l4.1,1.6l22.4-8C42.5,34.3,50,31.3,48.6,22.5z"/>
<path class="st1" d="M29.3,33.7c-0.5,1.1-1.3,1.9-2.4,2.3c-1.1,0.4-2.2,0.4-3.3,0c-2.2-0.9-3.2-3.5-2.3-5.7c0.7-1.6,2.3-2.6,4-2.6
	c0.6,0,1.1,0.1,1.7,0.3C29.2,28.9,30.2,31.5,29.3,33.7z"/>
<path class="st2" d="M29.3,38l0.5,1.9l-2.2,0.9l-1-1.7c-0.1-0.1-0.2-0.2-0.4-0.2c-0.7,0.1-1.4,0.1-2.1,0c-0.2,0-0.3,0-0.4,0.2
	l-1.1,1.7l-2.1-0.9l0.5-2c0-0.2,0-0.3-0.1-0.4c-0.5-0.4-0.9-0.8-1.3-1.3c-0.1-0.1-0.3-0.2-0.4-0.2l-1.9,0.4l-0.9-2.2l1.7-1
	c0.1-0.1,0.2-0.2,0.2-0.4c-0.1-0.7-0.1-1.3,0-2c0-0.2,0-0.3-0.2-0.4l-1.7-1l0.9-2.1l2,0.5c0.2,0,0.3,0,0.4-0.1
	c0.4-0.5,0.8-0.9,1.3-1.3c0.1-0.1,0.2-0.3,0.2-0.4l-0.5-2l2.1-0.9l1,1.8c0.1,0.1,0.2,0.2,0.4,0.2c0.6-0.1,1.3-0.1,1.9,0
	c0.2,0,0.3,0,0.4-0.2l1.1-1.7l2.1,0.9l-0.5,2c0,0.2,0,0.3,0.1,0.4c0.5,0.4,1,0.9,1.4,1.4c0.1,0.1,0.3,0.2,0.4,0.2l2-0.5l0.9,2.1
	l-1.8,1c-0.1,0.1-0.2,0.2-0.2,0.4c0.1,0.6,0.1,1.3,0,1.9c0,0.2,0,0.3,0.2,0.4l1.7,1.1l-0.9,2.1l-1.9-0.5c-0.2,0-0.3,0-0.4,0.1
	c-0.4,0.5-0.8,0.9-1.3,1.3C29.3,37.6,29.3,37.8,29.3,38z"/>
<path class="st3" d="M13.9,31.3c0,0-8.1,0.5-8.1-6.6c0,0,0-6.2,7.4-6.2c0,0,0.8-9.2,10-9.2c0,0,7.2-0.5,10.1,6.2
	c0,0,10-2.1,10.9,7.2c0,0,0.5,8.6-8.2,8.6"/>
<path class="st4" d="M28.8,44.4c-14.1,2-15.8-9.1-15.8-9.1S1.5,34.4,1.5,25.2c0,0-0.6-9.9,8.6-9.9c0,0,0.6-8.8,11.7-10.2
	c0,0,9-1.4,13.8,6.8c0,0,13-0.7,13,11.4c0,0,0.2,11.9-10,11.9"/>
</svg>
