<svg xmlns="http://www.w3.org/2000/svg" id="Layer_1" x="0" y="0" version="1.1" viewBox="0 0 50 50" xml:space="preserve"><style>.st2{fill:#444}</style><path fill="#00c8e2" d="M47.6 26.7L2 43.3l.4-4.6 7.2-6.5.2-29.4h37.8z"/><path fill="#00dffc" d="M47.6 11.8L9.5 25.6l.3-22.8h37.8z"/><path d="M25.4 7.8h6.3v21.1h-6.3zM16.9 20.5h6.3v8.4h-6.3zM33.8 15.2h6.3v13.7h-6.3z" class="st2"/><path d="M43.3.3H13.8c-3 0-5.5 2.5-5.5 5.5V32c-1.7.4-3.2 1.2-4.4 2.5-1.7 1.7-2.7 3.9-2.7 6.3v.2c0 2.2.8 4.3 2.2 6 .2.3.5.5.8.8.4.4 1 .3 1.4 0 .2-.2.3-.5.3-.7 0-.3-.1-.6-.4-.8l-.1-.1c0-.2-.1-.2-.2-.3-.7-.8-1.3-1.7-1.6-2.7-.3-1-.4-1.9-.3-2.7.1-1.2.7-2.3 1.6-3.2l.1-.2c1.6-1.6 4.1-2.1 6-1.2.6.3 1.1.6 1.5 1.1 1 1.2 1.3 3 .7 4.3-.2.4-.4.7-.7 1-1 1-2.5 1.1-3.4.8-.6-.2-1-.7-1.3-1.2-.3-.6-.3-1.3-.1-1.8.1-.2.2-.4.4-.6.5-.5 1.3-.7 1.9-.4.3.1.6.4.6 1.1 0 .4.2.7.5.9.3.2.6.2.9 0 .1 0 .2-.1.3-.2.2-.2.3-.4.3-.8 0-.9-.6-1.9-1.4-2.5-.3-.2-.6-.3-.9-.4-.6-.2-1.3-.2-2 0-.6.2-1.1.5-1.5 1-.1.1-.2.2-.3.4-.5.6-1.5 2.3-.1 4.5.6 1 1.6 1.7 2.7 2 .1 0 .2 0 .3.1 1.3.2 2.6-.1 3.8-.9.3-.2.5-.4.8-.6.1-.1.2-.2.3-.4 1.5-1.8 1.7-4.2.4-6.4-.2-.3-.3-.5-.5-.8-.8-1.1-1.9-1.9-3.2-2.3 1.8.1 3.5.9 4.7 2.1 1 1 1.6 2.3 1.8 3.8.1.5.1 1.1.1 1.7-.1 1.8-.8 3.3-2 4.6-.8.8-1.8 1.4-2.8 1.7-.2.1-.4.1-.5.3-.2.2-.3.5-.3.7 0 .6.5 1.1 1.1 1.1h.2c.1 0 .1 0 .2-.1h.1c1.3-.5 2.5-1.2 3.5-2.2 1.1-1.1 1.8-2.3 2.3-3.7l5.1-5.1 5.2 5.2c.1.1.3.2.5.2s.4-.1.5-.2l8-8v4.6c0 .4.3.8.8.8s.8-.3.8-.8V34c0-.1 0-.2-.1-.3-.1-.2-.2-.3-.4-.4-.1 0-.2-.1-.3-.1h-6.4c-.4 0-.8.3-.8.8s.3.8.8.8h4.6L30 42.3l-5.2-5.2c-.3-.3-.8-.3-1.1 0l-4.1 4.1V41c0-2.2-.8-4.4-2.3-6.1-1.7-1.9-4-3-6.5-3.1v-26c0-1.6 1.3-3 3-3h29.6c1.6 0 3 1.3 3 3v37c0 .7.6 1.2 1.2 1.2s1.2-.6 1.2-1.2v-37c0-3.1-2.4-5.5-5.5-5.5zM13.1 49.2z" class="st2"/></svg>