<?xml version="1.0" encoding="utf-8"?>
<!-- Generator: Adobe Illustrator 22.1.0, SVG Export Plug-In . SVG Version: 6.00 Build 0)  -->
<svg version="1.1" id="Layer_1" xmlns="http://www.w3.org/2000/svg" xmlns:xlink="http://www.w3.org/1999/xlink" x="0px" y="0px"
	 viewBox="0 0 50 50" style="enable-background:new 0 0 50 50;" xml:space="preserve">
<style type="text/css">
	.st0{fill:#B9D7D9;}
	.st1{fill:#A6C1C2;}
	.st2{fill:#444444;}
</style>
<g>
	<g>
		<path class="st0" d="M45.5,3.5H4.5c-1.7,0-3.1,1.4-3.1,3.1v15.8L48.3,5.3C47.8,4.3,46.8,3.5,45.5,3.5z"/>
	</g>
	<g>
		<path class="st1" d="M48.6,6.6c0-0.5-0.1-0.9-0.3-1.3L1.4,22.4v21c0,1.7,1.4,3.1,3.1,3.1h11.6l32.5-11.8V6.6z"/>
	</g>
	<path class="st2" d="M45.5,2.3H4.5c-2.4,0-4.3,1.9-4.3,4.3v36.8c0,2.4,1.9,4.3,4.3,4.3h34.4c0.7,0,1.2-0.6,1.2-1.2
		s-0.6-1.2-1.2-1.2H4.5c-1,0-1.8-0.8-1.8-1.8V12.2h44.7v22.2c0,0.7,0.6,1.2,1.2,1.2s1.2-0.6,1.2-1.2V6.6C49.9,4.2,47.9,2.3,45.5,2.3
		z M2.6,9.7V6.6c0-1,0.8-1.8,1.8-1.8h41.1c1,0,1.8,0.8,1.8,1.8v3.1H2.6z"/>
	<g>
		<circle class="st2" cx="36.5" cy="7.4" r="1.1"/>
	</g>
	<g>
		<circle class="st2" cx="40" cy="7.4" r="1.1"/>
	</g>
	<g>
		<circle class="st2" cx="43.3" cy="7.4" r="1.1"/>
	</g>
	<path class="st2" d="M42.7,15.1c-1.8,0-3.3,1.5-3.3,3.3c0,0.4,0.1,0.9,0.2,1.2L27.8,31.4c-0.4-0.1-0.8-0.2-1.2-0.2
		c-0.6,0-1.1,0.2-1.5,0.4l-5.1-5.1c0.2-0.5,0.4-1,0.4-1.5c0-1.8-1.5-3.3-3.3-3.3c-1.8,0-3.3,1.5-3.3,3.3c0,0.6,0.2,1.2,0.5,1.7
		l-5.9,5.9c-0.4-0.2-0.8-0.2-1.2-0.2c-1.8,0-3.3,1.5-3.3,3.3s1.5,3.3,3.3,3.3c1.8,0,3.3-1.5,3.3-3.3c0-0.4-0.1-0.9-0.2-1.2l6.2-6.2
		c0.2,0,0.4,0.1,0.7,0.1c0.3,0,0.6-0.1,0.9-0.1l5.4,5.4c-0.1,0.3-0.1,0.6-0.1,0.9c0,1.8,1.5,3.3,3.3,3.3c1.8,0,3.3-1.5,3.3-3.3
		c0-0.5-0.1-0.9-0.3-1.3l11.8-11.8c0.4,0.2,0.8,0.2,1.2,0.2c1.8,0,3.3-1.5,3.3-3.3C45.9,16.5,44.5,15.1,42.7,15.1z"/>
</g>
</svg>
