<?xml version="1.0" encoding="utf-8"?>
<!-- Generator: Adobe Illustrator 28.3.0, SVG Export Plug-In . SVG Version: 6.00 Build 0)  -->
<svg version="1.1" id="Layer_1" xmlns="http://www.w3.org/2000/svg" xmlns:xlink="http://www.w3.org/1999/xlink" x="0px" y="0px"
	 viewBox="0 0 50 50" style="enable-background:new 0 0 50 50;" xml:space="preserve">
<style type="text/css">
	.st0{fill:#35D3C3;}
	.st1{fill:#7DF4EB;}
	.st2{fill:none;stroke:#444444;stroke-linecap:round;stroke-linejoin:round;stroke-miterlimit:10;}
	.st3{fill:#444444;}
	.st4{fill:none;stroke:#444444;stroke-width:2.5;stroke-linecap:round;stroke-linejoin:round;stroke-miterlimit:10;}
	.st5{fill:none;stroke:#444444;stroke-width:0.5;stroke-linecap:round;stroke-linejoin:round;stroke-miterlimit:10;}
	.st6{fill:none;stroke:#444444;stroke-miterlimit:10;}
	.st7{fill:none;stroke:#444444;stroke-width:0.5;stroke-miterlimit:10;}
	.st8{fill:#444444;stroke:#454444;stroke-width:0.5;stroke-linecap:round;stroke-linejoin:round;stroke-miterlimit:10;}
</style>
<g>
	<polygon class="st0" points="35.5,18.8 43.3,21.3 36.6,26 36.7,34.2 30.2,29.3 22.4,31.9 25,24.2 20.1,17.6 28.3,17.7 33.1,11 	"/>
	<g>
		<g>
			<g>
				<g>
					<g>
						<g>
							<g>
								<path class="st1" d="M45.1,8L12.6,8.1C10,8.1,7.2,9,7.2,11.5v13.3L1.4,30c0.5,4.9,4.8,0.1,5.6,1l0,1.8
									c0.3,5.6,6.2,5.8,13.5,5.4l0.8,4.7L35.1,38L49,33.1l-0.2-21.3L45.1,8z"/>
								<g>
									<g>
										<g>
											<path class="st2" d="M34.6,37.4l-22.9-0.1c-2.3,0-4.9-1.8-4.9-4.1"/>
											<path class="st2" d="M33.8,42.8H21.5c-0.5,0-0.8-0.5-0.6-0.9l2.1-4.3h9.2l2.2,4.3C34.6,42.3,34.2,42.8,33.8,42.8z"/>
										</g>
										<circle class="st3" cx="27.6" cy="34.9" r="1.4"/>
									</g>
									<path class="st4" d="M38.5,38.1h-5.2l1.7,4.1c0.3,0.8-0.2,1.7-1.1,1.7l-12.8-0.1c-0.8,0-1.4-0.9-1.1-1.7l1.6-4h-9.5
										c-3.1,0-5.6-2.5-5.6-5.6v-2.2l-2.3,1.9c-0.7,0.6-1.8,0.5-2.5-0.2h0c-0.6-0.7-0.5-1.8,0.2-2.4l4.6-4l0-12.2
										c0-3.1,2.5-5.6,5.6-5.6h30.9c3.1,0,5.6,2.5,5.6,5.6v21"/>
								</g>
							</g>
						</g>
					</g>
					<line class="st5" x1="7.7" y1="32.4" x2="48.1" y2="32.4"/>
					<line class="st5" x1="7.4" y1="32.4" x2="14.6" y2="32.4"/>
				</g>
			</g>
		</g>
		<g>
			<path class="st6" d="M22.6,25c3.4-2.9,3.8-8.1,0.8-11.5S15.4,9.7,12,12.7c-3.1,2.7-3.7,7.3-1.4,10.6L2.8,30
				c-0.4,0.4-0.5,1-0.1,1.4s1,0.5,1.4,0.1l7.8-6.7C14.9,27.6,19.5,27.7,22.6,25z"/>
			<circle class="st7" cx="17.4" cy="18.9" r="5.9"/>
			<path class="st5" d="M21,17c0,0,1.9,4.4-2.6,6.1"/>
		</g>
		<g>
			<line class="st8" x1="27.6" y1="11.5" x2="32.7" y2="11.5"/>
			<line class="st8" x1="26.7" y1="14.2" x2="30.1" y2="14.2"/>
			<line class="st8" x1="32" y1="14.2" x2="42.1" y2="14.2"/>
			<line class="st8" x1="28" y1="16.9" x2="37.8" y2="16.9"/>
			<line class="st8" x1="39.8" y1="16.9" x2="43.5" y2="16.9"/>
			<line class="st8" x1="12.5" y1="27.5" x2="13.8" y2="27.5"/>
			<line class="st8" x1="12.5" y1="30.1" x2="13.8" y2="30.1"/>
			<line class="st8" x1="27.5" y1="19.6" x2="31" y2="19.6"/>
			<line class="st8" x1="35.6" y1="19.6" x2="43.5" y2="19.6"/>
			<line class="st8" x1="27.3" y1="22.1" x2="36.4" y2="22.1"/>
			<line class="st8" x1="25.8" y1="24.9" x2="38.2" y2="24.9"/>
			<line class="st8" x1="22.2" y1="27.5" x2="26.6" y2="27.5"/>
			<line class="st8" x1="27.9" y1="27.5" x2="38.1" y2="27.5"/>
			<line class="st8" x1="39.5" y1="27.5" x2="43.6" y2="27.5"/>
			<line class="st8" x1="23" y1="30.1" x2="31.3" y2="30.1"/>
			<line class="st8" x1="32.5" y1="30.1" x2="43.3" y2="30.1"/>
		</g>
		<line class="st2" x1="7.4" y1="29" x2="7.4" y2="34.2"/>
	</g>
</g>
</svg>
