<svg xmlns="http://www.w3.org/2000/svg" id="Layer_1" x="0" y="0" version="1.1" viewBox="0 0 50 50" xml:space="preserve"><style>.st3{stroke-width:.5}.st3,.st4{fill:none;stroke:#444;stroke-linecap:round;stroke-linejoin:round;stroke-miterlimit:10}</style><path fill="#8256d8" d="M16.4 20.9h16.2v17.3H16.4z"/><path fill="#a475ef" d="M47.9 17.8l.5-11L46.5 3l-15.4.4c-3.2 0-27.8-3-27.8.2L1.5 24.2l1.2 23.5 13.6.6 31-11c.8-.4 1.5-17.6.6-19.5z"/><path fill="none" stroke="#444" stroke-linecap="round" stroke-linejoin="round" stroke-miterlimit="10" stroke-width="2.5" d="M32.9 48.3h-27c-1.9 0-3.4-1.6-3.4-3.5V5.9C2.5 4 4 2.4 5.9 2.4h39c1.9 0 3.4 1.6 3.4 3.5v32.5"/><path d="M6.7 17.6h13M6.4 13.9h5.7m-2.5-3.1h5.8" class="st3"/><path d="M11.3 21.2h12.9m-6.3 3.7h12.9m-12.9 3.4h8.9m2.5 8.3h8.9" class="st4"/><path d="M30.1 40h14.2" class="st3"/><path d="M17.9 32.5h20.7m-6.3-15l3.4 4.1 5.7-8.6" class="st4"/></svg>