<?xml version="1.0" encoding="UTF-8"?>
<svg id="Camada_1" xmlns="http://www.w3.org/2000/svg" version="1.1" viewBox="0 0 50 50">
  <!-- Generator: Adobe Illustrator 29.0.0, SVG Export Plug-In . SVG Version: 2.1.0 Build 186)  -->
  <defs>
    <style>
      .st0 {
        fill: #ff6b6b;
      }

      .st1, .st2, .st3 {
        fill: none;
        stroke: #444;
        stroke-linecap: round;
        stroke-linejoin: round;
      }

      .st2 {
        stroke-width: 2.5px;
      }

      .st4 {
        fill: #444;
      }

      .st3 {
        stroke-width: .5px;
      }
    </style>
  </defs>
  <g>
    <path class="st0" d="M44.6,4.5H5.4c-1.3,0-1.4,3.8-1.4,5.2l-.2,12.9-.5,10.2,1.2,11.8,11.8.6,30.6-11.4V7.1h0c0-1.4-1.1-2.6-2.4-2.6Z"/>
    <path class="st2" d="M32.6,46H6.8c-1.8,0-3.2-1.6-3.2-3.5V7.5c0-1.9,1.4-3.5,3.2-3.5h37.2c1.8,0,3.2,1.6,3.2,3.5v28.5"/>
  </g>
  <g>
    <g>
      <path class="st1" d="M28.7,11.5v13.7h-13.7c0,7.8,6.6,14.1,14.5,13.7s12.6-6,13-13c.4-7.9-5.9-14.5-13.7-14.5Z"/>
      <g>
        <path class="st1" d="M26.6,21.9v-13.7c-3.5,0-6.7,1.3-9.2,3.5l9,10.2h.1Z"/>
        <path class="st1" d="M11.6,23.1h13.6l-9-10.2c-2.8,2.5-4.6,6.2-4.6,10.2Z"/>
      </g>
    </g>
    <g>
      <polyline class="st3" points="9.5 8.5 9.5 40.8 42 40.8"/>
      <polygon class="st4" points="7.5 10.2 7.8 10.5 9.5 8.7 11.2 10.5 11.6 10.2 9.5 8 7.5 10.2"/>
      <polygon class="st4" points="40.4 42.8 40 42.5 41.8 40.8 40 39.1 40.4 38.7 42.6 40.8 40.4 42.8"/>
    </g>
  </g>
</svg>
