<?xml version="1.0" encoding="utf-8"?>
<!-- Generator: Adobe Illustrator 22.1.0, SVG Export Plug-In . SVG Version: 6.00 Build 0)  -->
<svg version="1.1" id="Layer_1" xmlns="http://www.w3.org/2000/svg" xmlns:xlink="http://www.w3.org/1999/xlink" x="0px" y="0px"
	 viewBox="0 0 50 50" style="enable-background:new 0 0 50 50;" xml:space="preserve">
<style type="text/css">
	.st0{fill:#00C8E2;}
	.st1{fill:#00DFFC;}
	.st2{fill:#444444;}
</style>
<g>
	<g>
		<polygon class="st0" points="47.6,26.7 2,43.3 2.4,38.7 9.6,32.2 9.8,2.8 47.6,2.8 		"/>
	</g>
	<g>
		<polygon class="st1" points="47.6,11.8 9.5,25.6 9.8,2.8 47.6,2.8 		"/>
	</g>
	<g>
		<g>
			<rect x="25.4" y="7.8" class="st2" width="6.3" height="21.1"/>
		</g>
		<g>
			<rect x="16.9" y="20.5" class="st2" width="6.3" height="8.4"/>
		</g>
		<g>
			<rect x="33.8" y="15.2" class="st2" width="6.3" height="13.7"/>
		</g>
	</g>
	<path class="st2" d="M43.3,0.3H13.8c-3,0-5.5,2.5-5.5,5.5V32c-1.7,0.4-3.2,1.2-4.4,2.5c-1.7,1.7-2.7,3.9-2.7,6.3c0,0.1,0,0.1,0,0.2
		c0,2.2,0.8,4.3,2.2,6c0.2,0.3,0.5,0.5,0.8,0.8c0.4,0.4,1,0.3,1.4,0c0.2-0.2,0.3-0.5,0.3-0.7c0-0.3-0.1-0.6-0.4-0.8l-0.1-0.1
		C5.4,46,5.3,46,5.2,45.9c-0.7-0.8-1.3-1.7-1.6-2.7c-0.3-1-0.4-1.9-0.3-2.7c0.1-1.2,0.7-2.3,1.6-3.2L5,37.1c1.6-1.6,4.1-2.1,6-1.2
		c0.6,0.3,1.1,0.6,1.5,1.1c1,1.2,1.3,3,0.7,4.3c-0.2,0.4-0.4,0.7-0.7,1c-1,1-2.5,1.1-3.4,0.8c-0.6-0.2-1-0.7-1.3-1.2
		c-0.3-0.6-0.3-1.3-0.1-1.8c0.1-0.2,0.2-0.4,0.4-0.6c0.5-0.5,1.3-0.7,1.9-0.4c0.3,0.1,0.6,0.4,0.6,1.1c0,0.4,0.2,0.7,0.5,0.9
		c0.3,0.2,0.6,0.2,0.9,0c0.1,0,0.2-0.1,0.3-0.2c0.2-0.2,0.3-0.4,0.3-0.8c0-0.9-0.6-1.9-1.4-2.5c-0.3-0.2-0.6-0.3-0.9-0.4
		c-0.6-0.2-1.3-0.2-2,0c-0.6,0.2-1.1,0.5-1.5,1c-0.1,0.1-0.2,0.2-0.3,0.4C6,39.2,5,40.9,6.4,43.1c0.6,1,1.6,1.7,2.7,2
		c0.1,0,0.2,0,0.3,0.1c1.3,0.2,2.6-0.1,3.8-0.9c0.3-0.2,0.5-0.4,0.8-0.6c0.1-0.1,0.2-0.2,0.3-0.4c1.5-1.8,1.7-4.2,0.4-6.4
		c-0.2-0.3-0.3-0.5-0.5-0.8c-0.8-1.1-1.9-1.9-3.2-2.3c1.8,0.1,3.5,0.9,4.7,2.1c1,1,1.6,2.3,1.8,3.8c0.1,0.5,0.1,1.1,0.1,1.7
		c-0.1,1.8-0.8,3.3-2,4.6c-0.8,0.8-1.8,1.4-2.8,1.7c-0.2,0.1-0.4,0.1-0.5,0.3c-0.2,0.2-0.3,0.5-0.3,0.7c0,0.6,0.5,1.1,1.1,1.1
		c0.1,0,0.1,0,0.2,0c0.1,0,0.1,0,0.2-0.1l0.1,0c1.3-0.5,2.5-1.2,3.5-2.2c1.1-1.1,1.8-2.3,2.3-3.7l5.1-5.1l5.2,5.2
		c0.1,0.1,0.3,0.2,0.5,0.2s0.4-0.1,0.5-0.2l8-8v4.6c0,0.4,0.3,0.8,0.8,0.8s0.8-0.3,0.8-0.8V34c0-0.1,0-0.2-0.1-0.3
		c-0.1-0.2-0.2-0.3-0.4-0.4c-0.1,0-0.2-0.1-0.3-0.1h-6.4c-0.4,0-0.8,0.3-0.8,0.8s0.3,0.8,0.8,0.8h4.6L30,42.3l-5.2-5.2
		c-0.3-0.3-0.8-0.3-1.1,0l-4.1,4.1c0,0,0-0.1,0-0.1l0-0.1c0-2.2-0.8-4.4-2.3-6.1c-1.7-1.9-4-3-6.5-3.1v-26c0-1.6,1.3-3,3-3h29.6
		c1.6,0,3,1.3,3,3v37c0,0.7,0.6,1.2,1.2,1.2s1.2-0.6,1.2-1.2v-37C48.8,2.7,46.4,0.3,43.3,0.3z M13.1,49.2L13.1,49.2L13.1,49.2
		L13.1,49.2z"/>
</g>
</svg>
