<?xml version="1.0" encoding="utf-8"?>
<!-- Generator: Adobe Illustrator 22.0.1, SVG Export Plug-In . SVG Version: 6.00 Build 0)  -->
<svg version="1.1" id="Layer_1" xmlns="http://www.w3.org/2000/svg" xmlns:xlink="http://www.w3.org/1999/xlink" x="0px" y="0px"
	 viewBox="0 0 50 50" style="enable-background:new 0 0 50 50;" xml:space="preserve">
<style type="text/css">
	.st0{fill:#A475EF;}
	.st1{fill:#BF94F7;}
	.st2{fill:none;}
	.st3{fill:#444444;}
</style>
<g>
	<path class="st0" d="M49.4,19c0,0.2,0,0.4,0,0.6L47,20.5l-3.8,1.4l-6,2.1l0,0l-5.3,2l-5.2,1.9L7.9,34.7l-2.3,0.8
		c-1.7-2.1-2.9-4.8-3.1-7.7H1.7c-0.6,0-1.1-0.5-1.1-1.1s0.5-1.1,1.1-1.1h0.8c0.5-6.9,6-12.3,12.9-12.9V12c0-0.6,0.5-1.1,1.1-1.1
		s1.1,0.5,1.1,1.1v0.8c3.7,0.3,6.9,2,9.3,4.5c0.2-1.1,0.5-2.2,0.9-3.3l0.1-0.1c1.3-2.7,3.6-4.8,6.4-5.9c2.7-1,5.9-0.9,8.6,0.4
		c1.6,0.7,3,1.8,4.1,3.2c0.9,1.2,1.7,2.5,2.1,4C49.3,16.7,49.4,17.8,49.4,19z"/>
	<path class="st1" d="M46.9,11.7l-2.2,0.8l-0.9,0.3l-2.1,0.8l-2.2,0.8l-6.8,2.5L29,18.2l-3.5,1.3l-9,3.3l-2.7,1L7.4,26l-5,1.8H1.7
		c-0.6,0-1.1-0.5-1.1-1.1s0.5-1.1,1.1-1.1h0.8c0.5-6.9,6-12.3,12.9-12.9V12c0-0.6,0.5-1.1,1.1-1.1s1.1,0.5,1.1,1.1v0.8
		c3.7,0.3,6.9,2,9.3,4.5c0.2-1.1,0.5-2.2,0.9-3.3l0.1-0.1c1.3-2.7,3.6-4.8,6.4-5.9c2.7-1,5.9-0.9,8.6,0.4
		C44.4,9.2,45.8,10.3,46.9,11.7z"/>
	<g>
		<path class="st2" d="M25,26.8c0-0.7,0.6-1.2,1.2-1.2h1.7c-0.1-0.6-0.2-1.3-0.4-1.9l0,0v-0.1c0,0-0.1-0.1-0.1-0.2
			c-0.2-0.4-0.3-0.8-0.4-1.2c-0.4-1-0.9-1.9-1.5-2.7c-1.4-1.7-3.4-3.1-5.5-3.8l-0.1,0c-0.7-0.3-1.5-0.4-2.2-0.5v1.7
			c0,0.7-0.6,1.2-1.2,1.2s-1.2-0.6-1.2-1.2v-1.7c-5.4,0.6-9.7,4.8-10.2,10.2h1.6c0.4,0,0.8,0.3,0.9,0.4c0.2,0.2,0.3,0.5,0.3,0.8
			c0,0.7-0.6,1.2-1.2,1.2H4.8c0.3,2.6,1.4,4.9,3,6.7c1.8,2,4.4,3.3,7.3,3.6v-1.7c0-0.7,0.6-1.2,1.2-1.2s1.2,0.6,1.2,1.2v1.7
			c5.4-0.6,9.7-4.8,10.2-10.2h-1.7C25.5,28,25,27.5,25,26.8z M16.4,30.9c-2.3,0-4.2-1.9-4.2-4.2s1.9-4.2,4.2-4.2
			c2.3,0,4.2,1.9,4.2,4.2S18.7,30.9,16.4,30.9z"/>
		<path class="st2" d="M16.4,25c-1,0-1.7,0.8-1.7,1.7c0,0.9,0.8,1.7,1.7,1.7c0.9,0,1.7-0.8,1.7-1.7C18.1,25.8,17.4,25,16.4,25z"/>
		<path class="st3" d="M16.4,22.5c-2.3,0-4.2,1.9-4.2,4.2s1.9,4.2,4.2,4.2c2.3,0,4.2-1.9,4.2-4.2S18.7,22.5,16.4,22.5z M16.4,28.4
			c-0.9,0-1.7-0.8-1.7-1.7c0-0.9,0.7-1.7,1.7-1.7s1.7,0.8,1.7,1.7C18.1,27.6,17.3,28.4,16.4,28.4z"/>
		<path class="st3" d="M49.5,19c0-1.4-0.2-2.4-0.5-3.3c-0.4-1.5-1.1-2.8-2.1-4c-1.1-1.3-2.5-2.4-4.1-3.2C40,7.1,36.8,7,34.1,8
			c-3,1.2-5.2,3.2-6.5,5.9L27.5,14l0,0c-0.4,0.9-0.8,2-0.9,3.1c-2.4-2.6-5.6-4.1-9.1-4.3V12c0-0.7-0.6-1.2-1.2-1.2
			c-0.7,0-1.2,0.6-1.2,1.2v0.7C8.3,13.2,2.9,18.6,2.3,25.6H1.7c-0.7,0-1.2,0.6-1.2,1.2S1,28,1.7,28h0.7c0.2,2.8,1.3,5.6,3.1,7.7
			c2.3,3,5.8,4.8,9.8,5.2v0.7c0,0.7,0.6,1.2,1.2,1.2s1.2-0.6,1.2-1.2v-0.7C24.6,40.4,30,35,30.6,28h0.7c0.7,0,1.2-0.6,1.2-1.2
			c0-0.4-0.2-0.7-0.4-0.9c-0.2-0.2-0.6-0.3-0.8-0.3h-0.7c-0.1-1.6-0.5-3.2-1.2-4.5c-0.3-0.8-0.3-1.7-0.2-2.9c0-0.1,0-0.2,0.1-0.3
			l0,0l0,0c0.2-1.5,0.6-2.5,1.1-3.3c0.8-1.3,2-2.3,3.4-2.8c2.7-1,5.9-0.3,7.7,1.8c0,0,0,0.1,0.1,0.1c0,0,0.1,0.1,0.2,0.1
			c0.5,0.6,0.7,1.1,0.9,1.8c0.5,1.9-0.1,4.1-1.5,5.4c-0.4,0.3-0.8,0.6-1.3,0.8c-1.8,0.6-3.4,0-4.3-1c-0.6-0.5-0.9-1.2-0.9-2.1
			c0-0.8,0.3-1.7,0.9-2.1c0.2-0.2,0.4-0.4,0.8-0.5c0.9-0.3,1.8-0.1,2.4,0.6c0.4,0.5,0.4,1.1,0.1,1.7l0,0c-0.1,0.3-0.1,0.7,0.1,1.1
			c0.2,0.5,0.7,0.6,1,0.6c0.1,0,0.2,0,0.3-0.1c0,0,0.1,0,0.1,0l0,0c0.3-0.1,0.7-0.4,0.8-0.7c0.5-1,0.4-2.5-0.3-3.7l-0.1-0.2
			c-0.2-0.3-0.4-0.5-0.6-0.7c-0.1-0.1-0.1-0.1-0.2-0.2c-0.1,0-0.1-0.1-0.2-0.2c-0.5-0.3-1.1-0.6-1.7-0.6c0,0,0,0,0,0
			c-0.7-0.1-1.4,0-2.3,0.3l0,0c0,0-0.1,0.1-0.2,0.1c-0.1,0-0.2,0.1-0.3,0.1c-0.4,0.2-1.7,1-2.3,2.7c-0.2,0.8-0.3,1.6-0.2,2.6
			c0.2,1.5,0.9,2.8,2,3.7l0.1,0.1l0,0l0,0v0l0.1,0c0.8,0.6,1.7,0.9,2.6,1c0.8,0.1,1.6,0.1,2.2-0.1l1.2-0.3c0.1,0,0.1,0,0.2-0.1
			c0,0,0.1,0,0.1,0c0.1,0,0.1,0,0.2-0.1c0,0,0.1,0,0.1,0l0.1,0c0.7-0.3,1.6-0.8,2.1-1.6c1.2-1.4,1.8-3.4,1.6-5.4
			c0-0.4-0.1-0.8-0.2-1.2c-0.2-1.1-0.6-1.9-1-2.5c-0.5-0.7-1.1-1.5-1.9-2.1c0.1,0.1,0.2,0.1,0.3,0.2c0.9,0.5,1.7,1,2.4,1.7
			c0.9,0.9,1.7,2.1,2.1,3.3c0.5,1.5,0.6,3,0.3,4.5c-0.1,0.2-0.1,0.3-0.1,0.4c0,0.1,0,0.2-0.1,0.4c-0.2,0.8-0.5,1.4-0.8,2
			c-1,1.9-2.7,3.4-4.7,4.1c-1.3,0.5-2.7,0.7-4.2,0.5c-0.2,0-0.4,0-0.7,0.1l0,0c-0.3,0.2-0.5,0.4-0.6,0.6c-0.2,0.3-0.2,0.7,0,1
			c0.1,0.3,0.4,0.6,0.7,0.8l0.1,0c0,0,0.1,0,0.2,0.1c0.1,0.1,0.3,0.1,0.4,0.1h1c1.5,0,2.9-0.2,4.1-0.7c2.8-1,5-3.1,6.5-6l0.1-0.1
			l-0.4-0.1c0.5-1.2,0.8-2.5,0.9-4V19z M17.6,38.3v-1.7c0-0.7-0.6-1.2-1.2-1.2s-1.2,0.6-1.2,1.2v1.7c-2.9-0.3-5.5-1.6-7.3-3.6
			c-1.7-1.8-2.7-4.1-3-6.7h1.7c0.7,0,1.2-0.6,1.2-1.2c0-0.3-0.1-0.6-0.3-0.8c-0.1-0.1-0.5-0.4-0.9-0.4H4.9
			c0.5-5.4,4.8-9.7,10.2-10.2v1.7c0,0.7,0.6,1.2,1.2,1.2s1.2-0.6,1.2-1.2v-1.7c0.7,0.1,1.5,0.2,2.2,0.5l0.1,0c2.1,0.7,4.1,2,5.5,3.8
			c0.6,0.8,1.1,1.7,1.5,2.7c0.1,0.4,0.2,0.8,0.4,1.2c0,0.1,0,0.1,0.1,0.2v0.1l0,0c0.2,0.6,0.3,1.3,0.4,1.9h-1.7
			c-0.7,0-1.2,0.6-1.2,1.2s0.6,1.2,1.2,1.2h1.7C27.3,33.4,23,37.7,17.6,38.3z"/>
	</g>
</g>
</svg>
