<svg xmlns="http://www.w3.org/2000/svg" id="Layer_1" x="0" y="0" version="1.1" viewBox="0 0 50 50" xml:space="preserve"><style>.st2{fill:#031326}</style><path fill="#7ed0d6" d="M45.4 3.5h-41c-1.7 0-3.1 1.4-3.1 3.1v15.8L48.2 5.3c-.5-1-1.5-1.8-2.8-1.8z"/><path fill="#71bac0" d="M48.5 6.6c0-.5-.1-.9-.3-1.3L1.3 22.4v21c0 1.7 1.4 3.1 3.1 3.1H16l32.5-11.8V6.6z"/><path d="M45.5 2.2H4.4C2 2.2 0 4.2 0 6.6v36.8c0 2.4 2 4.3 4.4 4.3h34.3c.7 0 1.2-.6 1.2-1.2s-.6-1.2-1.2-1.2H4.4c-1 0-1.9-.8-1.9-1.8V12.2h44.8v22.2c0 .7.6 1.2 1.2 1.2s1.2-.6 1.2-1.2V6.6c.2-2.4-1.8-4.4-4.2-4.4zM2.6 9.8V6.6c0-1 .8-1.9 1.9-1.9h41.1c1 0 1.9.8 1.9 1.9v3.1H2.6z" class="st2"/><circle cx="36.4" cy="7.4" r="1.1" class="st2"/><circle cx="39.9" cy="7.4" r="1.1" class="st2"/><circle cx="43.2" cy="7.4" r="1.1" class="st2"/><path d="M42.6 15c-1.8 0-3.3 1.5-3.3 3.3 0 .5.1.9.3 1.3L27.8 31.3c-.4-.1-.8-.2-1.2-.2-.6 0-1.1.2-1.6.4l-5-5c.2-.5.4-1 .4-1.5 0-1.8-1.5-3.3-3.3-3.3-1.8 0-3.3 1.5-3.3 3.3 0 .7.2 1.3.5 1.8l-5.8 5.8c-.4-.2-.8-.3-1.3-.3-1.8 0-3.3 1.5-3.3 3.3 0 1.8 1.5 3.3 3.3 3.3 1.8 0 3.3-1.5 3.3-3.3 0-.4-.1-.9-.3-1.3l6.2-6.1c.2 0 .4.1.7.1.3 0 .7-.1 1-.2l5.4 5.4c-.1.3-.1.6-.1.9 0 1.8 1.5 3.3 3.3 3.3 1.8 0 3.3-1.5 3.3-3.3 0-.5-.1-.9-.3-1.3l11.7-11.7c.4.2.8.3 1.3.3 1.8 0 3.3-1.5 3.3-3.3-.1-1.9-1.5-3.4-3.4-3.4z" class="st2"/></svg>