<?xml version="1.0" encoding="utf-8"?>
<!-- Generator: Adobe Illustrator 28.1.0, SVG Export Plug-In . SVG Version: 6.00 Build 0)  -->
<svg version="1.1" id="Layer_1" xmlns="http://www.w3.org/2000/svg" xmlns:xlink="http://www.w3.org/1999/xlink" x="0px" y="0px"
	 viewBox="0 0 50 50" style="enable-background:new 0 0 50 50;" xml:space="preserve">
<style type="text/css">
	.st0{fill:#8256D8;}
	.st1{fill:#A475EF;}
	.st2{fill:none;stroke:#444444;stroke-width:2.5;stroke-linecap:round;stroke-linejoin:round;stroke-miterlimit:10;}
	.st3{fill:none;stroke:#444444;stroke-width:0.5;stroke-linecap:round;stroke-linejoin:round;stroke-miterlimit:10;}
	.st4{fill:none;stroke:#444444;stroke-linecap:round;stroke-linejoin:round;stroke-miterlimit:10;}
</style>
<rect x="16.4" y="20.9" class="st0" width="16.2" height="17.3"/>
<g>
	<path class="st1" d="M47.9,17.8l0.5-11l-1.9-3.8L31.1,3.4c-3.2,0-27.8-3-27.8,0.2L1.5,24.2l1.2,23.5l13.6,0.6l31-11
		C48.1,36.9,48.8,19.7,47.9,17.8z"/>
	<path class="st2" d="M32.9,48.3h-27c-1.9,0-3.4-1.6-3.4-3.5V5.9c0-1.9,1.5-3.5,3.4-3.5h39c1.9,0,3.4,1.6,3.4,3.5v32.5"/>
	<g>
		<line class="st3" x1="6.7" y1="17.6" x2="19.7" y2="17.6"/>
		<line class="st3" x1="6.4" y1="13.9" x2="12.1" y2="13.9"/>
		<line class="st3" x1="9.6" y1="10.8" x2="15.4" y2="10.8"/>
		<line class="st4" x1="11.3" y1="21.2" x2="24.2" y2="21.2"/>
		<line class="st4" x1="17.9" y1="24.9" x2="30.8" y2="24.9"/>
		<line class="st4" x1="17.9" y1="28.3" x2="26.8" y2="28.3"/>
		<line class="st4" x1="29.3" y1="36.6" x2="38.2" y2="36.6"/>
		<line class="st3" x1="30.1" y1="40" x2="44.3" y2="40"/>
		<line class="st4" x1="17.9" y1="32.5" x2="38.6" y2="32.5"/>
		<polyline class="st4" points="32.3,17.5 35.7,21.6 41.4,13 		"/>
	</g>
</g>
</svg>
