<svg xmlns="http://www.w3.org/2000/svg" id="Layer_1" x="0" y="0" version="1.1" viewBox="0 0 50 50" xml:space="preserve"><style>.st2{fill:#444}</style><path fill="#b9d7d9" d="M45.5 3.5h-41c-1.7 0-3.1 1.4-3.1 3.1v15.8L48.3 5.3c-.5-1-1.5-1.8-2.8-1.8z"/><path fill="#a6c1c2" d="M48.6 6.6c0-.5-.1-.9-.3-1.3L1.4 22.4v21c0 1.7 1.4 3.1 3.1 3.1h11.6l32.5-11.8V6.6z"/><path d="M45.5 2.3h-41C2.1 2.3.2 4.2.2 6.6v36.8c0 2.4 1.9 4.3 4.3 4.3h34.4c.7 0 1.2-.6 1.2-1.2s-.6-1.2-1.2-1.2H4.5c-1 0-1.8-.8-1.8-1.8V12.2h44.7v22.2c0 .7.6 1.2 1.2 1.2s1.2-.6 1.2-1.2V6.6c.1-2.4-1.9-4.3-4.3-4.3zM2.6 9.7V6.6c0-1 .8-1.8 1.8-1.8h41.1c1 0 1.8.8 1.8 1.8v3.1H2.6z" class="st2"/><circle cx="36.5" cy="7.4" r="1.1" class="st2"/><circle cx="40" cy="7.4" r="1.1" class="st2"/><circle cx="43.3" cy="7.4" r="1.1" class="st2"/><path d="M42.7 15.1c-1.8 0-3.3 1.5-3.3 3.3 0 .4.1.9.2 1.2L27.8 31.4c-.4-.1-.8-.2-1.2-.2-.6 0-1.1.2-1.5.4L20 26.5c.2-.5.4-1 .4-1.5 0-1.8-1.5-3.3-3.3-3.3-1.8 0-3.3 1.5-3.3 3.3 0 .6.2 1.2.5 1.7l-5.9 5.9c-.4-.2-.8-.2-1.2-.2-1.8 0-3.3 1.5-3.3 3.3S5.4 39 7.2 39c1.8 0 3.3-1.5 3.3-3.3 0-.4-.1-.9-.2-1.2l6.2-6.2c.2 0 .4.1.7.1.3 0 .6-.1.9-.1l5.4 5.4c-.1.3-.1.6-.1.9 0 1.8 1.5 3.3 3.3 3.3 1.8 0 3.3-1.5 3.3-3.3 0-.5-.1-.9-.3-1.3l11.8-11.8c.4.2.8.2 1.2.2 1.8 0 3.3-1.5 3.3-3.3-.1-1.9-1.5-3.3-3.3-3.3z" class="st2"/></svg>