<?xml version="1.0" encoding="utf-8"?>
<!-- Generator: Adobe Illustrator 26.5.0, SVG Export Plug-In . SVG Version: 6.00 Build 0)  -->
<svg version="1.1" id="Camada_3" xmlns="http://www.w3.org/2000/svg" xmlns:xlink="http://www.w3.org/1999/xlink" x="0px" y="0px"
	 viewBox="0 0 50 50" style="enable-background:new 0 0 50 50;" xml:space="preserve">
<style type="text/css">
	.st0{fill:#71BAC0;}
	.st1{fill:#7ED0D6;}
	.st2{fill:none;stroke:#444444;stroke-width:2.5;stroke-linecap:round;stroke-linejoin:round;stroke-miterlimit:10;}
	.st3{fill:#444444;}
</style>
<g>
	<g>
		<polygon class="st0" points="45.93,22.52 3.96,37.66 4.16,24.6 3.78,20.03 30.01,10.49 45.19,6.93 46.11,15.48 		"/>
		<polygon class="st1" points="45.19,6.93 4.27,21.69 4.76,11.98 3.89,11.72 5.25,3.07 43.99,2.95 46.22,7.16 		"/>
		<g>
			<path class="st2" d="M3.84,43.97V5.6c0-1.65,1.34-2.98,2.98-2.98h35.81c1.65,0,2.98,1.34,2.98,2.98v38.8
				c0,1.65-1.34,2.98-2.98,2.98h-5.49"/>
			<line class="st2" x1="3.84" y1="10.57" x2="45.62" y2="10.57"/>
		</g>
	</g>
	<g>
		<path class="st3" d="M38.3,35.12c-0.28-0.16-0.57-0.23-0.86-0.29l0.01-8.4c0.77-0.13,1.47-0.57,1.9-1.3
			c0.77-1.32,0.31-3.02-1.01-3.78c-1.16-0.67-2.57-0.35-3.43,0.62l-7.26-4.2c0.42-1.23-0.02-2.61-1.18-3.28
			c-1.33-0.77-3.02-0.31-3.78,1.01c-0.4,0.69-0.45,1.49-0.23,2.2l-7.34,4.23c-0.19-0.22-0.41-0.45-0.68-0.6
			c-1.32-0.76-3.01-0.31-3.78,1.01c-0.77,1.33-0.3,3.02,1.01,3.78c0.27,0.16,0.57,0.24,0.85,0.29v8.47c-0.72,0.17-1.39,0.6-1.8,1.3
			c-0.76,1.32-0.31,3.01,1.02,3.78c1.16,0.67,2.57,0.36,3.43-0.62l7.26,4.2c-0.41,1.24,0.02,2.61,1.18,3.27
			c1.33,0.77,3.02,0.31,3.78-1c0.42-0.73,0.45-1.56,0.18-2.3l7.28-4.2c0.2,0.22,0.41,0.44,0.68,0.6c1.32,0.77,3.02,0.32,3.78-1.01
			C40.08,37.57,39.63,35.88,38.3,35.12z M36.4,34.83c-0.75,0.15-1.45,0.58-1.87,1.3c-0.42,0.72-0.44,1.54-0.19,2.28l-7.29,4.2
			c-0.19-0.22-0.39-0.43-0.67-0.59c-1.16-0.67-2.57-0.36-3.43,0.62l-7.26-4.2c0.42-1.24-0.02-2.61-1.17-3.28
			c-0.3-0.18-0.62-0.27-0.96-0.33l0.01-8.43c0.77-0.15,1.46-0.59,1.88-1.31c0.42-0.72,0.45-1.54,0.2-2.27l7.3-4.22
			c0.22,0.26,0.45,0.5,0.76,0.67c1.16,0.67,2.57,0.36,3.43-0.62l7.27,4.2c-0.42,1.23,0.02,2.61,1.17,3.28
			c0.28,0.16,0.56,0.23,0.85,0.28L36.4,34.83z"/>
	</g>
	<circle class="st3" cx="37.22" cy="6.64" r="1.29"/>
	<circle class="st3" cx="40.91" cy="6.64" r="1.29"/>
	<circle class="st3" cx="33.43" cy="6.64" r="1.29"/>
</g>
</svg>
