<?xml version="1.0" encoding="utf-8"?>
<!-- Generator: Adobe Illustrator 28.0.0, SVG Export Plug-In . SVG Version: 6.00 Build 0)  -->
<svg version="1.1" id="Layer_1" xmlns="http://www.w3.org/2000/svg" xmlns:xlink="http://www.w3.org/1999/xlink" x="0px" y="0px"
	 viewBox="0 0 50 50" style="enable-background:new 0 0 50 50;" xml:space="preserve">
<style type="text/css">
	.st0{fill:#8256D8;}
	.st1{fill:#A475EF;}
	.st2{fill:none;stroke:#444444;stroke-width:2.5;stroke-linecap:round;stroke-linejoin:round;stroke-miterlimit:10;}
	.st3{fill:none;stroke:#444444;stroke-linecap:round;stroke-miterlimit:10;}
	.st4{fill:#444444;}
</style>
<polygon class="st0" points="30.3,23.9 38.1,26.4 31.4,31.1 31.5,39.3 24.9,34.4 17.2,37.1 19.8,29.3 14.9,22.7 23.1,22.8 
	27.8,16.1 "/>
<path class="st1" d="M34.7,4.4l-0.1,5.7l-9.6-7L3.5,19.6C2.7,19.7,3,23.1,3,25.9l4.5,0.4v21.3h8.4l26.9-9.6
	c0.1-0.1-0.1-7.1-0.1-11.7c0-0.4,4.4,0.5,4.4-0.4c0-2.1,0-3.5,0-5.9c0-0.9-4.4-2.9-4.4-4.5c0-4.9,0.1-6.4,0.2-9.9
	C42.9,3.7,34.9,4.9,34.7,4.4z"/>
<polyline class="st2" points="42.7,39.3 42.7,25.9 47,25.9 47,20 42.7,16.4 42.7,4.9 34.7,4.9 34.7,10.4 25,3.1 3,20 3,25.9 
	7.5,25.9 7.5,46.9 29.5,46.9 "/>
<line class="st3" x1="7.5" y1="39.3" x2="36.9" y2="23.6"/>
<circle class="st4" cx="13.8" cy="28.8" r="1.5"/>
<circle class="st4" cx="36.2" cy="27.7" r="1.5"/>
<circle class="st4" cx="20.1" cy="29.2" r="1.5"/>
<circle class="st4" cx="15.3" cy="39.3" r="1.5"/>
<circle class="st4" cx="26.5" cy="23.5" r="1.5"/>
<circle class="st4" cx="27.6" cy="32.9" r="1.5"/>
<circle class="st4" cx="22.9" cy="37.8" r="1.5"/>
<circle class="st4" cx="33.9" cy="32.7" r="1.5"/>
</svg>
