<?xml version="1.0" encoding="UTF-8"?>
<svg id="Layer_1" data-name="Layer 1" xmlns="http://www.w3.org/2000/svg" version="1.1" viewBox="0 0 50 50">
  <defs>
    <style>
      .cls-1 {
        fill: #f9f941;
      }

      .cls-1, .cls-2 {
        stroke-width: 0px;
      }

      .cls-3, .cls-4, .cls-5, .cls-6 {
        stroke: #444;
        stroke-linecap: round;
        stroke-linejoin: round;
      }

      .cls-3, .cls-4, .cls-6 {
        fill: none;
      }

      .cls-3, .cls-5 {
        stroke-width: .5px;
      }

      .cls-2, .cls-5 {
        fill: #444;
      }

      .cls-6 {
        stroke-width: 2.5px;
      }
    </style>
  </defs>
  <g>
    <g>
      <path class="cls-1" d="M5.5,29l-3.7,7.8c0,5,5.4,3.7,19.7,3.2l25.2-8.9-.2-21.8-1.1-2c-.2-.9-1.5-1.4-2.5-1.4l-34.9.2c-1.1,0-3,2.4-3,3.5v11.9"/>
      <path class="cls-6" d="M48.8,35.2l-2.5-5.6V10.4c0-2.1-1.7-3.8-3.8-3.8H8.9c-2.1,0-3.8,1.7-3.8,3.8v19.2l-3.3,7c-.8,1.8.4,3.8,2.4,3.8h34.8"/>
      <line class="cls-3" x1="7.6" y1="31.7" x2="43.6" y2="31.7"/>
      <line class="cls-3" x1="27.4" y1="37.7" x2="23.7" y2="37.7"/>
      <line class="cls-4" x1="5" y1="29.6" x2="46.1" y2="29.6"/>
      <polygon class="cls-5" points="44.7 35.8 6.4 35.8 7.4 33.5 43.6 33.5 44.7 35.8"/>
    </g>
    <g>
      <line class="cls-3" x1="6.2" y1="11.6" x2="45.4" y2="11.6"/>
      <circle class="cls-2" cx="13.4" cy="9.9" r=".7"/>
      <circle class="cls-2" cx="10.9" cy="9.9" r=".7"/>
      <circle class="cls-2" cx="8.5" cy="9.9" r=".7"/>
    </g>
  </g>
  <g>
    <path class="cls-4" d="M21.9,18.1c0-1.9,2.6-3.4,5.8-3.4s5.8,1.5,5.8,3.4-2.6,3.4-5.8,3.4-1.3,0-1.8,0"/>
    <line class="cls-4" x1="24.2" y1="22.2" x2="25.9" y2="22.3"/>
    <path class="cls-4" d="M33.5,22.5c0,1.9-2.6,3.4-5.8,3.4s-1.2,0-1.8-.1v-.2s0-4.2,0-4.2l2-3.4h-6.1v2"/>
    <path class="cls-4" d="M21.9,20.1"/>
    <line class="cls-4" x1="33.6" y1="18" x2="33.5" y2="22.5"/>
    <path class="cls-4" d="M22.1,27.6s-3.2-.3-4-3.1v-4.4h5.9v4.5l-2,3.1Z"/>
    <path class="cls-4" d="M18.1,20.1s.6,2.5,4,3.4l2-3.4"/>
    <line class="cls-4" x1="22.1" y1="27.6" x2="22.1" y2="23.4"/>
  </g>
  <polyline class="cls-3" points="20.2 24.6 14.5 19.7 8 19.7"/>
  <line class="cls-3" x1="8" y1="17.8" x2="13.8" y2="17.8"/>
  <polyline class="cls-3" points="30.7 17.4 37 22.2 42.6 22.2"/>
  <line class="cls-3" x1="42.6" y1="20.5" x2="37.6" y2="20.5"/>
  <line class="cls-3" x1="42.6" y1="18.8" x2="37.6" y2="18.8"/>
</svg>