<svg xmlns="http://www.w3.org/2000/svg" id="Layer_1" x="0" y="0" version="1.1" viewBox="0 0 50 50" xml:space="preserve"><style>.st2{fill:#444}</style><path fill="#00dffc" d="M48.6 7.2L1.6 29 1.4 8.1l6.8-.9 29.6-.6z"/><path fill="#00c8e2" d="M49.5 24.4L1.6 41.8l.1-19.9L43 6.9l4.8.3z"/><path d="M48.7 6H1.3C.7 6 .1 6.5.1 7.2v35.6c0 .7.6 1.2 1.2 1.2h21.5c.7 0 1.2-.6 1.2-1.2s-.6-1.2-1.2-1.2H2.6V8.5h44.8v33.1h-3.7c-.7 0-1.2.6-1.2 1.2S43 44 43.7 44h5c.7 0 1.2-.6 1.2-1.2V7.2c0-.7-.6-1.2-1.2-1.2z" class="st2"/><path d="M44.5 16.8c-.2-.4-.7-.6-1.1-.5L7 30.6c-.4.2-.6.7-.5 1.1.1.3.5.5.8.5.1 0 .2 0 .3-.1l36.5-14.2c.4-.2.6-.6.4-1.1zM8.2 36.7c0 .4.4.8.8.8s.8-.4.8-.8-.4-.8-.8-.8c-.5 0-.8.4-.8.8zM8.9 24.6c.4 0 .8-.4.8-.8s-.3-.8-.8-.8c-.4 0-.8.4-.8.8s.4.8.8.8zM8.9 18.3c.4 0 .8-.4.8-.8s-.4-.8-.8-.8-.8.4-.8.8.4.8.8.8zM18.3 37.1c-.4 0-.8.4-.8.8s.4.8.8.8.8-.4.8-.8-.4-.8-.8-.8zM18.3 31c-.4 0-.8.4-.8.8s.4.8.8.8.8-.4.8-.8-.4-.8-.8-.8zM37.1 35.9c-.4 0-.8.4-.8.8s.4.8.8.8.8-.4.8-.8-.4-.8-.8-.8zM37.1 31c-.4 0-.8.4-.8.8s.4.8.8.8.8-.4.8-.8-.4-.8-.8-.8zM37.1 24.3c-.4 0-.8.4-.8.8s.4.8.8.8.8-.4.8-.8-.4-.8-.8-.8zM18.3 20.7c.4 0 .8-.4.8-.8s-.4-.8-.8-.8-.8.4-.8.8.4.8.8.8zM18.3 14.4c.4 0 .8-.4.8-.8s-.4-.8-.8-.8-.8.4-.8.8.4.8.8.8zM29.1 27.5c-.4 0-.8.4-.8.8s.4.8.8.8.8-.4.8-.8c0-.5-.3-.8-.8-.8zM29.1 19.5c.4 0 .8-.4.8-.8s-.4-.8-.8-.8-.8.4-.8.8c.1.5.4.8.8.8zM29.1 14.4c.4 0 .8-.4.8-.8s-.4-.8-.8-.8-.8.4-.8.8c.1.4.4.8.8.8zM37.8 13.6c0-.4-.4-.8-.8-.8s-.8.4-.8.8.4.8.8.8.8-.4.8-.8z" class="st2"/></svg>