<?xml version="1.0" encoding="utf-8"?>
<!-- Generator: Adobe Illustrator 27.8.1, SVG Export Plug-In . SVG Version: 6.00 Build 0)  -->
<svg version="1.1" id="Camada_3" xmlns="http://www.w3.org/2000/svg" xmlns:xlink="http://www.w3.org/1999/xlink" x="0px" y="0px"
	 viewBox="0 0 50 50" style="enable-background:new 0 0 50 50;" xml:space="preserve">
<style type="text/css">
	.st0{fill:#FCC34F;}
	.st1{fill:#444444;}
	.st2{fill:none;stroke:#444444;stroke-width:2.5;stroke-linecap:round;stroke-linejoin:round;stroke-miterlimit:10;}
	.st3{fill:none;stroke:#444444;stroke-width:0.5;stroke-miterlimit:10;}
	.st4{fill:#444444;stroke:#444444;stroke-width:0.5;stroke-miterlimit:10;}
</style>
<g>
	<path class="st0" d="M45.7,6.6H3.1c-1.4,0-1.7,2.5-1.7,4l0.7,9.8l0,17.7L18,38.5l-2.3,5.2L49,31.8L48.3,9.4V9.2v0
		C48.3,7.8,47.2,6.6,45.7,6.6z"/>
	<path id="XMLID_42_" class="st1" d="M36.8,17.7c-0.3-0.4-0.7-0.6-1.2-0.6h-1.7v-0.9c0-0.8-0.7-1.5-1.5-1.5h-11l-0.9-1.3
		c-0.3-0.4-0.7-0.6-1.2-0.6h-4.9c-0.8,0-1.5,0.7-1.5,1.5V28c0,0.3,0.1,0.6,0.3,0.8l0,0c0,0,0,0,0,0c0,0,0,0,0,0.1l0,0
		c0,0,0,0,0.1,0.1l0,0c0,0,0,0,0.1,0.1c0,0,0,0,0,0l0,0c0,0,0,0,0,0c0,0,0,0,0,0c0,0,0,0,0.1,0c0,0,0,0,0,0c0.2,0.1,0.4,0.2,0.6,0.3
		l0,0c0,0,0.1,0,0.1,0l0,0c0,0,0,0,0.1,0c0,0,0,0,0,0c0,0,0.1,0,0.1,0h18.1c0,0,0,0,0,0c0,0,0.1,0,0.1,0c0,0,0,0,0,0
		c0,0,0.1,0,0.1,0c0,0,0,0,0,0l0,0c0,0,0,0,0,0c0,0,0,0,0,0c0,0,0,0,0,0l0,0c0,0,0.1,0,0.1,0c0,0,0,0,0,0c0.4-0.2,0.7-0.5,0.9-0.9
		l3.2-9.5C37.1,18.6,37,18.1,36.8,17.7z M33.1,17.1H17.5c-0.6,0-1.2,0.4-1.4,1l-2.4,7.4V14.2c0-0.4,0.3-0.7,0.7-0.7h4.9
		c0.2,0,0.4,0.1,0.6,0.3l0.9,1.4c0.1,0.2,0.3,0.3,0.6,0.3h11.1c0.4,0,0.7,0.3,0.7,0.7V17.1z M13.7,27.8l3.2-9.5
		c0.1-0.3,0.3-0.4,0.6-0.4h18.1c0.2,0,0.4,0.1,0.5,0.3c0.1,0.2,0.2,0.4,0.1,0.6L33,28.3c-0.1,0.3-0.3,0.4-0.6,0.4H14.4
		c-0.2,0-0.4-0.1-0.5-0.3C13.7,28.2,13.7,28,13.7,27.8z"/>
	<path class="st2" d="M48.5,33.4V9.3C48.5,7.5,47,6,45.2,6H4.7C2.9,6,1.4,7.5,1.4,9.3v25.9c0,1.9,1.5,3.4,3.4,3.4l14.2,0l0,0
		l-3.5,4.2c-0.1,0.5,0.3,1.1,0.9,1.1h16.5c0.5,0,1-0.5,0.9-1l-3.4-4.2l0,0l4.3,0"/>
	<line class="st3" x1="48.2" y1="33" x2="1.7" y2="33"/>
	<circle class="st1" cx="25" cy="36.2" r="1.6"/>
	<line class="st4" x1="2" y1="10.2" x2="47.9" y2="10.2"/>
	<circle class="st4" cx="4.9" cy="8.8" r="0.4"/>
	<circle class="st4" cx="6.7" cy="8.8" r="0.4"/>
	<circle class="st4" cx="8.4" cy="8.8" r="0.4"/>
</g>
</svg>
