<?xml version="1.0" encoding="UTF-8"?>
<svg xmlns="http://www.w3.org/2000/svg" version="1.1" viewBox="0 0 50 50">
  <defs>
    <style>
      .cls-1, .cls-2 {
        fill: none;
      }

      .cls-1, .cls-2, .cls-3 {
        stroke: #444;
        stroke-linecap: round;
        stroke-linejoin: round;
      }

      .cls-2 {
        stroke-width: 2.5px;
      }

      .cls-3 {
        fill: #444;
      }

      .cls-4 {
        fill: #46b8b0;
      }
    </style>
  </defs>
  <!-- Generator: Adobe Illustrator 28.7.1, SVG Export Plug-In . SVG Version: 1.2.0 Build 142)  -->
  <g>
    <g id="Camada_1">
      <g id="Layer_1">
        <path class="cls-4" d="M47.6,18l.5-11-1.9-3.8-15.4.5c-3.2,0-27.8-3-27.8.2l-1.7,20.6,1.2,23.5,13.6.6,31-11c.7-.4,1.5-17.6.5-19.6Z"/>
        <path class="cls-2" d="M32.7,48.5H5.7c-1.9,0-3.4-1.6-3.4-3.5V6.1c0-1.9,1.5-3.5,3.4-3.5h39c1.9,0,3.4,1.6,3.4,3.5v32.5"/>
        <path class="cls-1" d="M18.9,36.6l-5-5c-.6-.6-1-1.5-1-2.3s.2-1,.4-1.3l4.6-9.5,1,18.1Z"/>
        <path class="cls-3" d="M35.8,19.4l-5-5c-.4-.4-1.3-1-2.1-1s-1.3.1-1.7.4l-9.1,4.7s17.9.9,17.9.9Z"/>
        <path class="cls-1" d="M24.8,42.5h12v-5.2l-9-2.8-8.2,2.8,5.2,5.2Z"/>
        <path class="cls-3" d="M17.9,33.9c0,1.5.2,1.9,1,2.7l.8.8h17.1l-8.4-9.5-10.5-9.3v15.3Z"/>
        <path class="cls-1" d="M33.2,18.5h-15.3l18.9,18.9h5.1v-11.9l-6.1-6.1c-.8-.8-1.6-.9-2.6-.9Z"/>
      </g>
    </g>
  </g>
</svg>
