<svg xmlns="http://www.w3.org/2000/svg" viewBox="0 0 50 50"><defs><style>.cls-4{fill:none;stroke:#444;stroke-linecap:round;stroke-linejoin:round;stroke-width:.5px}</style></defs><g id="Camada_1"><path fill="#319327" d="M29 19.3l7.8 2.5-6.7 4.7.1 8.2-6.6-4.9-7.7 2.6 2.6-7.7-4.9-6.6 8.2.1 4.7-6.7 2.5 7.8z"/><path fill="#5aba52" d="M39.3 27.5c-.2-.8.8-3.2.3-3.8l.4-5.9-1.9-7.7 2.5-6.6-2-.6c-3.2 0-10.6 0-15.2 3.9l-8.6 8.6-2.7 7.6.7 5c0 .4 1.4 4.7 3.5 8.3l1.7 3.5 20.6-8.3c.6-.6 1.7.7.7-4.1z"/><path fill="none" stroke="#444" stroke-linecap="round" stroke-linejoin="round" stroke-width="2.5" d="M36.3 33.9s3.1-1.7 3.3-10.2c.1-11.1-4.1-10 1-20.5-3.6-.4-17.9-1.1-26.4 13.4-6 10.1 1.1 20.4 4.8 23 .6 1.7-.5 5.3 3.7 8.6m2.5-8.2s-2.6 2.6-6.2-.5"/><path fill="none" stroke="#444" stroke-linecap="round" stroke-linejoin="round" d="M26.2 18.7V24m2.7-2.6h-5.4m1.7 8.4v2.9m1.5-1.5h-3m7.9-8.8v2.9m1.5-1.5h-3m-2.4-12.1v2.9m1.4-1.5h-2.9m-5.8 6.4v2.9m1.5-1.5H19"/><path d="M23 24.4v3.2m1.6-1.6h-3.2M28.6 26v3.2m1.5-1.6H27M30.5 16.3v3.2m1.5-1.6h-3.1M23 14.6v3.2m1.6-1.6h-3.2" class="cls-4"/></g></svg>