<svg xmlns="http://www.w3.org/2000/svg" id="Layer_1" data-name="Layer 1" version="1.1" viewBox="0 0 50 50"><defs><style>.cls-2{stroke-width:0}.cls-3,.cls-4{stroke:#444;stroke-linecap:round;stroke-linejoin:round;fill:none}.cls-3{stroke-width:.5px}.cls-2{fill:#444}</style></defs><path fill="#f9f941" stroke-width="0" d="M5.5 29l-3.7 7.8c0 5 5.4 3.7 19.7 3.2l25.2-8.9-.2-21.8-1.1-2c-.2-.9-1.5-1.4-2.5-1.4L8 6.1c-1.1 0-3 2.4-3 3.5v11.9"/><path fill="none" stroke="#444" stroke-linecap="round" stroke-linejoin="round" stroke-width="2.5" d="M48.8 35.2l-2.5-5.6V10.4c0-2.1-1.7-3.8-3.8-3.8H8.9c-2.1 0-3.8 1.7-3.8 3.8v19.2l-3.3 7c-.8 1.8.4 3.8 2.4 3.8H39"/><path d="M7.6 31.7h36m-16.2 6h-3.7" class="cls-3"/><path d="M5 29.6h41.1" class="cls-4"/><path fill="#444" stroke="#444" stroke-linecap="round" stroke-linejoin="round" stroke-width=".5" d="M44.7 35.8H6.4l1-2.3h36.2l1.1 2.3z"/><path d="M6.2 11.6h39.2" class="cls-3"/><circle cx="13.4" cy="9.9" r=".7" class="cls-2"/><circle cx="10.9" cy="9.9" r=".7" class="cls-2"/><circle cx="8.5" cy="9.9" r=".7" class="cls-2"/><path d="M21.9 18.1c0-1.9 2.6-3.4 5.8-3.4s5.8 1.5 5.8 3.4-2.6 3.4-5.8 3.4h-1.8m-1.7.7l1.7.1" class="cls-4"/><path d="M33.5 22.5c0 1.9-2.6 3.4-5.8 3.4s-1.2 0-1.8-.1v-4.4l2-3.4h-6.1v2m11.8-2l-.1 4.5" class="cls-4"/><path d="M22.1 27.6s-3.2-.3-4-3.1v-4.4H24v4.5l-2 3.1z" class="cls-4"/><path d="M18.1 20.1s.6 2.5 4 3.4l2-3.4m-2 7.5v-4.2" class="cls-4"/><path d="M20.2 24.6l-5.7-4.9H8m0-1.9h5.8m16.9-.4l6.3 4.8h5.6m0-1.7h-5m5-1.7h-5" class="cls-3"/></svg>