<?xml version="1.0" encoding="utf-8"?>
<!-- Generator: Adobe Illustrator 22.1.0, SVG Export Plug-In . SVG Version: 6.00 Build 0)  -->
<svg version="1.1" id="Layer_1" xmlns="http://www.w3.org/2000/svg" xmlns:xlink="http://www.w3.org/1999/xlink" x="0px" y="0px"
	 viewBox="0 0 50 50" style="enable-background:new 0 0 50 50;" xml:space="preserve">
<style type="text/css">
	.st0{fill:#AFE55D;}
	.st1{fill:#C3FF68;}
	.st2{fill:#444444;}
</style>
<path class="st0" d="M32,21.8L8.5,30.3l-3.4-4.1L3.2,19l25-9.1l3,5.8L32,21.8z"/>
<path class="st1" d="M27,10.4L4,18.7L7.8,11l10.1-5.2L27,10.4z"/>
<path class="st2" d="M18,31.8c-6.1,0-11-4.9-11-11s4.9-11,11-11c0.4,0,0.8,0.3,0.8,0.8c0,0.4-0.3,0.8-0.8,0.8
	c-5.2,0-9.5,4.2-9.5,9.5c0,5.2,4.2,9.5,9.5,9.5s9.5-4.2,9.5-9.5c0-0.4,0.3-0.8,0.8-0.8s0.8,0.3,0.8,0.8C29,26.8,24.1,31.8,18,31.8z"
	/>
<path class="st2" d="M30.9,8.6c1,0,1.8-0.7,1.9-1.6l11.3-3.4c0.3,0.3,0.8,0.5,1.3,0.5c1.1,0,1.9-0.9,1.9-1.9c0-1.1-0.9-1.9-1.9-1.9
	c-1.1,0-1.9,0.9-1.9,1.9L32.4,5.5c-0.3-0.5-0.9-0.7-1.5-0.7c-1.1,0-1.9,0.9-1.9,1.9c0,0.4,0.1,0.8,0.3,1.1l-1,1.6
	c-2.7-2.5-6.4-4-10.3-4c-8.5,0-15.4,6.9-15.4,15.4S9.5,36.2,18,36.2c1.4,0,2.8-0.2,4-0.5l12.3,12.2c1.3,1.3,3,1.9,4.7,1.9
	c1.8,0,3.5-0.7,4.9-2c2.6-2.7,2.6-7-0.1-9.6L32.5,26.9c-0.1-0.1-0.2-0.2-0.3-0.2c0.8-1.8,1.2-3.8,1.2-5.9c0-4-1.5-7.6-4-10.3l1.2-2
	C30.7,8.5,30.8,8.6,30.9,8.6z M42.1,39.9c1.7,1.7,1.7,4.4,0.1,6.1c-1.7,1.7-4.4,1.7-6.1,0.1L24.7,34.7c2.6-1.3,4.9-3.3,6.4-5.7
	L42.1,39.9z M30.9,20.8c0,7.1-5.8,12.9-12.9,12.9S5.1,27.9,5.1,20.8S10.9,7.9,18,7.9c3.5,0,6.7,1.4,9,3.7l-6,10.1
	c-0.2-0.1-0.4-0.1-0.5-0.1c-0.6,0-1.1,0.2-1.4,0.6L15,19.5c0-0.2,0.1-0.3,0.1-0.5c0-1.1-0.9-2-2-2s-2,0.9-2,2s0.9,2,2,2
	c0.4,0,0.7-0.1,1-0.3l4.4,2.9c0,1.1,0.9,1.9,2,1.9s2-0.9,2-2c0-0.3-0.1-0.7-0.2-0.9l5.9-9.9C29.9,15,30.9,17.8,30.9,20.8z"/>
</svg>
