<svg xmlns="http://www.w3.org/2000/svg" id="Layer_1" data-name="Layer 1" version="1.1" viewBox="0 0 50 50"><defs><style>.cls-4{stroke-miterlimit:10;stroke:#444444;stroke-width:.5px;fill:none}</style></defs><path fill="#fc9d9a" stroke-width="0" d="M47.6 20.8c-.2-.8-2.7-7.5-3.2-8.1l-3-3.5h-.2l-7.6-5.7-7.8-.7c-3.2 0-12.8-.7-21.3 11.5l-2.9 7.9.5 2 1.8 11.5c.1.4 4.7 7 5.1 7.2l5.6 3 32.2-11.7c.7-.4 1.7-8.6.7-13.4z"/><path fill="none" stroke="#444" stroke-linecap="round" stroke-linejoin="round" stroke-width="2.5" d="M27.9 48.4C15.3 50 3.8 41 2.2 28.3.6 15.7 9.6 4.2 22.2 2.6 34.8 1 46.3 10 47.9 22.7c.6 5.1-.5 10-2.8 14.1"/><circle cx="25.2" cy="19.9" r="1.1" fill="#444444" stroke="#444444" stroke-miterlimit="10" stroke-width=".5"/><path fill="none" stroke="#444444" stroke-linecap="round" stroke-linejoin="round" d="M30.6 38.2v4.2c0 .5-.2.7-.7.7h-9.5c-.5 0-.7-.2-.7-.7v-4.2m0 0h-1.1c-.5 0-.7-.2-.7-.7v-2.1c0-.6.2-.7.7-.7h.4c0-1.4-.4-2.7-1.1-3.9-.6-1-1.3-2-2-2.9-1.3-1.6-2.2-3.4-2.6-5.5-1.4-6.7 3.2-13.3 9.9-14.4 6.5-1 12.5 3.1 13.8 9.5.7 3.4 0 6.6-2 9.5-.6.9-1.3 1.8-2 2.7-1 1.4-1.6 2.9-1.7 4.6v.3h.6c.4 0 .6.2.6.6v2.4c0 .4-.2.6-.6.6H19.8zm.2 2.8h10.7m-12.2-5.3h13.5"/><ellipse cx="25" cy="19.9" class="cls-4" rx="7.4" ry="2.8"/><ellipse cx="25.1" cy="19.8" class="cls-4" rx="2.8" ry="7.4" transform="rotate(-29.2 24.967 19.827)"/><ellipse cx="25.2" cy="19.8" class="cls-4" rx="7.4" ry="2.8" transform="rotate(-60 25.153 19.834)"/></svg>
