<svg xmlns="http://www.w3.org/2000/svg" id="Layer_1" x="0" y="0" version="1.1" viewBox="0 0 50 50" xml:space="preserve"><style>.st4{fill:none;stroke:#444;stroke-width:2.5;stroke-linecap:round;stroke-linejoin:round;stroke-miterlimit:10}</style><path fill="#00c8e2" d="M42.8 27.2l-.4.1-2 .8-29.3 10.6-2.1.8V27.2L42.4 15v11.9z"/><path fill="#00dffc" d="M42.4 9.7V16l-2 .7-7.9 2.9-2.7 1-18.7 6.8H11l-2 .7V9.7c0-.8.6-1.4 1.4-1.4H41c.8 0 1.4.6 1.4 1.4z"/><path fill="#444" d="M41 8.3c.8 0 1.4.6 1.4 1.4v30.6c0 .8-.6 1.4-1.4 1.4H10.4c-.8 0-1.4-.6-1.4-1.4V9.7c0-.8.6-1.4 1.4-1.4H41m0-2.5H10.4c-2.2 0-3.9 1.8-3.9 3.9v30.6c0 2.2 1.8 3.9 3.9 3.9H41c2.2 0 3.9-1.8 3.9-3.9V9.7c0-2.2-1.8-3.9-3.9-3.9z"/><path d="M48.7 30.5l-5.9-3.3m-.4-.3l-2-1.1-4.1-2.3m-7.7.8l-10.2 8.5-7.3-5.4-.1-.1-2-1.5-1.1-.8-5.1 5.4m0 0L1.3 32" class="st4"/><circle cx="32.4" cy="23.5" r="3.9" class="st4"/><path fill="none" stroke="#444" stroke-linecap="round" stroke-linejoin="round" stroke-miterlimit="10" stroke-width=".5" d="M39.7 39h-28c-.4 0-.7-.3-.7-.7v-27c0-.4.3-.7.7-.7h28c.4 0 .7.3.7.7v27.1c0 .3-.3.6-.7.6z"/></svg>
