<?xml version="1.0" encoding="utf-8"?>
<!-- Generator: Adobe Illustrator 27.7.0, SVG Export Plug-In . SVG Version: 6.00 Build 0)  -->
<svg version="1.1" id="Layer_1" xmlns="http://www.w3.org/2000/svg" xmlns:xlink="http://www.w3.org/1999/xlink" x="0px" y="0px"
	 viewBox="0 0 50 50" style="enable-background:new 0 0 50 50;" xml:space="preserve">
<style type="text/css">
	.st0{fill:#DC5E82;}
	.st1{fill:none;stroke:#444444;stroke-width:2.5;stroke-linecap:round;stroke-linejoin:round;stroke-miterlimit:10;}
	.st2{fill-rule:evenodd;clip-rule:evenodd;fill:none;stroke:#444444;stroke-miterlimit:10;}
	.st3{fill-rule:evenodd;clip-rule:evenodd;fill:none;stroke:#444444;stroke-width:0.5;stroke-miterlimit:10;}
</style>
<g>
	<g>
		<g>
			<path class="st0" d="M47.3,20c-0.2-0.8-2.7-7.5-3.2-8.1l-3-3.5l-0.2,0.1l-7.6-5.7L25.5,2C22.3,2,12.7,1.3,4.3,13.6l-2.9,7.9
				l0.5,2L3.7,35c0.1,0.4,4.7,7,5.1,7.2l5.6,3l32.2-11.7C47.2,33,48.3,24.8,47.3,20z"/>
			<path class="st1" d="M27.6,47.6C15,49.1,3.5,40.2,1.9,27.5S9.3,3.4,22,1.9s24.1,7.4,25.7,20.1c0.6,5.1-0.5,10-2.8,14.1"/>
		</g>
	</g>
	<g>
		<path class="st2" d="M9.1,25.7c0,0,0.2-15.6,8.6-15.6s8.9,16.2,8.9,16.2s1.2,15.4,8.5,15.4s8.9-16,8.9-16H9.1z"/>
		<line class="st2" x1="46.1" y1="25.7" x2="6" y2="25.7"/>
	</g>
	<path class="st3" d="M21.1,8.3c0,0,7.2,2.9,7.2,14.8"/>
	<path class="st3" d="M31.9,43.1c0,0-7.2-2.9-7.2-14.8"/>
</g>
</svg>
