<?xml version="1.0" encoding="UTF-8"?>
<svg xmlns="http://www.w3.org/2000/svg" version="1.1" viewBox="0 0 50 50">
  <defs>
    <style>
      .cls-1 {
        fill: #319327;
      }

      .cls-2, .cls-3, .cls-4 {
        fill: none;
        stroke: #444;
        stroke-linecap: round;
        stroke-linejoin: round;
      }

      .cls-3 {
        stroke-width: 2.5px;
      }

      .cls-5 {
        fill: #5aba52;
      }

      .cls-4 {
        stroke-width: .5px;
      }
    </style>
  </defs>
  <!-- Generator: Adobe Illustrator 28.7.1, SVG Export Plug-In . SVG Version: 1.2.0 Build 142)  -->
  <g>
    <g id="Camada_1">
      <polygon class="cls-1" points="29 19.3 36.8 21.8 30.1 26.5 30.2 34.7 23.6 29.8 15.9 32.4 18.5 24.7 13.6 18.1 21.8 18.2 26.5 11.5 29 19.3"/>
      <path class="cls-5" d="M39.3,27.5c-.2-.8.8-3.2.3-3.8l.4-5.9-1.9-7.7,2.5-6.6-2-.6c-3.2,0-10.6,0-15.2,3.9l-8.6,8.6-2.7,7.6.7,5c0,.4,1.4,4.7,3.5,8.3l1.7,3.5,20.6-8.3c.6-.6,1.7.7.7-4.1Z"/>
      <path class="cls-3" d="M36.3,33.9s3.1-1.7,3.3-10.2c.1-11.1-4.1-10,1-20.5-3.6-.4-17.9-1.1-26.4,13.4-6,10.1,1.1,20.4,4.8,23,.6,1.7-.5,5.3,3.7,8.6"/>
      <path class="cls-3" d="M25.2,40s-2.6,2.6-6.2-.5"/>
      <g>
        <line class="cls-2" x1="26.2" y1="18.7" x2="26.2" y2="24"/>
        <line class="cls-2" x1="28.9" y1="21.4" x2="23.5" y2="21.4"/>
      </g>
      <g>
        <line class="cls-2" x1="25.2" y1="29.8" x2="25.2" y2="32.7"/>
        <line class="cls-2" x1="26.7" y1="31.2" x2="23.7" y2="31.2"/>
      </g>
      <g>
        <line class="cls-2" x1="31.6" y1="22.4" x2="31.6" y2="25.3"/>
        <line class="cls-2" x1="33.1" y1="23.8" x2="30.1" y2="23.8"/>
      </g>
      <g>
        <line class="cls-2" x1="27.7" y1="11.7" x2="27.7" y2="14.6"/>
        <line class="cls-2" x1="29.1" y1="13.1" x2="26.2" y2="13.1"/>
      </g>
      <g>
        <line class="cls-2" x1="20.4" y1="19.5" x2="20.4" y2="22.4"/>
        <line class="cls-2" x1="21.9" y1="20.9" x2="19" y2="20.9"/>
      </g>
      <g>
        <line class="cls-4" x1="23" y1="24.4" x2="23" y2="27.6"/>
        <line class="cls-4" x1="24.6" y1="26" x2="21.4" y2="26"/>
      </g>
      <g>
        <line class="cls-4" x1="28.6" y1="26" x2="28.6" y2="29.2"/>
        <line class="cls-4" x1="30.1" y1="27.6" x2="27" y2="27.6"/>
      </g>
      <g>
        <line class="cls-4" x1="30.5" y1="16.3" x2="30.5" y2="19.5"/>
        <line class="cls-4" x1="32" y1="17.9" x2="28.9" y2="17.9"/>
      </g>
      <g>
        <line class="cls-4" x1="23" y1="14.6" x2="23" y2="17.8"/>
        <line class="cls-4" x1="24.6" y1="16.2" x2="21.4" y2="16.2"/>
      </g>
    </g>
  </g>
</svg>
