<?xml version="1.0" encoding="utf-8"?>
<!-- Generator: Adobe Illustrator 22.1.0, SVG Export Plug-In . SVG Version: 6.00 Build 0)  -->
<svg version="1.1" id="Layer_1" xmlns="http://www.w3.org/2000/svg" xmlns:xlink="http://www.w3.org/1999/xlink" x="0px" y="0px"
	 viewBox="0 0 50 50" style="enable-background:new 0 0 50 50;" xml:space="preserve">
<style type="text/css">
	.st0{fill:#00C8E2;}
	.st1{fill:#00DFFC;}
	.st2{fill:#444444;}
</style>
<g>
	<path class="st0" d="M3.1,44.8l45.3-16.4V3c0-0.7-1.9-0.8-2.5-0.8H9.2c-3.3,0-6,0.7-6,4V43C3.1,44.8,1.9,43.7,3.1,44.8z"/>
</g>
<g>
	<path class="st1" d="M46.9,3c-1.1-1-0.5-0.6-2-0.6H8.1c-3.3,0-6,0.7-6,4V19L46.9,3z"/>
</g>
<g>
	<path class="st2" d="M48.5,3.3c0,0,0-0.1,0-0.1c0-0.1,0-0.1,0-0.2c0-0.6-0.5-1.1-1.1-1.1H2.7C2,1.8,1.6,2.3,1.6,2.9v36.1v1.2v6.7
		C1.6,47.5,2,48,2.7,48h24.3h1.8h16c0.6,0,1.1-0.5,1.1-1.1c0-0.6-0.5-1.1-1.1-1.1H29.8v-6.7c0-2.4-1.1-3.4-3.1-4.1
		c-0.8-0.3-2.8-1.1-4.9-1.9c0.7-1.1,1.2-2.5,1.2-3.9c0-4-3.3-7.3-7.3-7.3c-4,0-7.3,3.3-7.3,7.3c0,1.5,0.4,2.8,1.2,3.9
		c-2.1,0.8-4.2,1.6-4.9,1.9C4.3,35,4,35.2,3.8,35.3V4h42.3l-8.6,11.3h-8.2c-0.2,0-0.4,0.1-0.6,0.3L24,21.4c-0.3,0.3-0.2,0.8,0.1,1.1
		c0.1,0.1,0.3,0.2,0.5,0.2c0.2,0,0.4-0.1,0.6-0.3l4.4-5.5h8.2c0.2,0,0.5-0.1,0.6-0.3l9.8-12.8C48.3,3.6,48.4,3.5,48.5,3.3z M15.7,24
		c2.8,0,5.1,2.3,5.1,5.1c0,2.8-2.3,5.1-5.1,5.1s-5.1-2.3-5.1-5.1C10.6,26.3,12.9,24,15.7,24z M5.5,37c0.8-0.3,3.3-1.3,5.7-2.2
		c1.2,1,2.8,1.6,4.5,1.6s3.3-0.6,4.5-1.6c2.4,0.9,4.9,1.9,5.7,2.2c1.6,0.6,1.7,0.9,1.7,2.1v6.7h-0.7h-3.6v-4.4
		c0-0.6-0.5-1.1-1.1-1.1c-0.6,0-1.1,0.5-1.1,1.1v4.4H10.3v-4.4c0-0.6-0.5-1.1-1.1-1.1s-1.1,0.5-1.1,1.1v4.4H3.8v-5.6v-1.2
		C3.8,37.9,3.9,37.6,5.5,37z"/>
	<path class="st2" d="M47.3,22h-6.5c-0.4,0-0.8,0.3-0.8,0.8s0.3,0.8,0.8,0.8h6.5c0.4,0,0.8-0.3,0.8-0.8S47.8,22,47.3,22z"/>
	<path class="st2" d="M47.3,29.2h-6.5c-0.4,0-0.8,0.3-0.8,0.8s0.3,0.8,0.8,0.8h6.5c0.4,0,0.8-0.3,0.8-0.8S47.8,29.2,47.3,29.2z"/>
	<path class="st2" d="M47.3,36.4h-6.5c-0.4,0-0.8,0.3-0.8,0.8s0.3,0.8,0.8,0.8h6.5c0.4,0,0.8-0.3,0.8-0.8S47.8,36.4,47.3,36.4z"/>
</g>
</svg>
