<svg version="1" xmlns="http://www.w3.org/2000/svg" viewBox="0 0 50 50"><path fill="#A6C1C2" d="M27.221 46.202L44.5 39.914v-2.356l-2.17-3.392 2.17-1.662v-6.113l-2.17-3.394 2.17-1.661v-6.113l-3.22-9.376-2.816-2.049H11.527L8.72 5.847 5.5 15.223v6.113l2.087 1.598L5.5 26.391v6.113l2.192 1.679L5.5 37.558v6.122l3.315 2.522z"/><path fill="#B9D7D9" d="M38.945 4.148l-.481-.35H11.527L8.72 5.847 5.5 15.223v1.098z"/><path fill="#444" d="M45.75 15.015l-3.417-9.947-3.462-2.521H11.12L7.666 5.069 4.25 15.015v6.939l1.688 1.292-1.688 2.797v7.078l1.764 1.351-1.764 2.716v7.111l4.144 3.153h25.479a1.25 1.25 0 0 0 0-2.5H9.236L6.75 43.061v-5.133l2.415-3.718h4.908a.25.25 0 0 0 0-.5H9.13l-2.38-1.823v-5.148l2.241-3.713h5.082a.25.25 0 0 0 0-.5H9.109L6.75 20.719v-5.288l.013-.039 2.164-2.448h32.136l2.175 2.454.011.033v5.288l-2.36 1.806h-5.023a.25.25 0 0 0 0 .5h4.997l2.385 3.73v5.131l-2.381 1.823h-5.001a.25.25 0 0 0 0 .5h5.008l2.375 3.713v1.991a1.25 1.25 0 0 0 2.5 0v-2.722l-1.748-2.733 1.748-1.338v-7.096l-1.748-2.734 1.748-1.338v-6.937zm-7.693-9.968l.677.493 2.104 6.905H9.153l2.104-6.902.678-.495h26.122zM9.775 6.625l.809-.591-1.992 6.536-1.404 1.588 2.587-7.533zm31.624 5.945l-1.994-6.541.819.596 2.591 7.542-1.416-1.597z"/><g fill="#444"><path d="M25 26.253a1.988 1.988 0 1 0 0 3.976 1.988 1.988 0 0 0 0-3.976z"/><path d="M31.722 28.241c2.716-2.788 4.029-5.483 3.069-6.856-.678-.969-2.341-1.148-4.679-.509-.5.137-1.021.314-1.554.516-.787-3.081-2.087-5.103-3.559-5.103-1.471 0-2.771 2.022-3.558 5.103a17.32 17.32 0 0 0-1.554-.516c-2.34-.64-4.001-.458-4.679.509s-.279 2.591 1.122 4.57c.531.75 1.185 1.519 1.934 2.285a19.236 19.236 0 0 0-1.934 2.285c-1.401 1.979-1.8 3.602-1.122 4.569.412.588 1.185.886 2.253.886.691 0 1.506-.125 2.425-.377.5-.137 1.021-.313 1.554-.515.787 3.081 2.088 5.104 3.559 5.104 1.474 0 2.776-2.029 3.563-5.12 1.519.573 2.896.892 3.985.892 1.044 0 1.83-.28 2.243-.87.962-1.37-.351-4.065-3.068-6.853zm-1.553-7.158c2.244-.613 3.822-.463 4.446.425.908 1.298-.387 3.885-3.038 6.588a28.251 28.251 0 0 0-2.307-2.079c-.111-1.608-.337-3.105-.657-4.417.534-.203 1.056-.38 1.556-.517zm-2.798 10.544A32.318 32.318 0 0 1 25 33.135a32.495 32.495 0 0 1-2.371-1.508 33.153 33.153 0 0 1-1.692-1.27 33.098 33.098 0 0 1-.071-2.116c0-.723.026-1.428.071-2.115A31.987 31.987 0 0 1 25 23.348c.79.457 1.585.958 2.371 1.508.592.415 1.154.841 1.692 1.271.044.687.071 1.391.071 2.114 0 .723-.026 1.428-.071 2.116-.538.429-1.1.855-1.692 1.27zm1.675-.987a26.537 26.537 0 0 1-.624 4.175 25.802 25.802 0 0 1-3.207-1.556c.76-.443 1.523-.927 2.278-1.456.543-.38 1.057-.769 1.553-1.163zm-4.254 2.614a25.5 25.5 0 0 1-3.216 1.557 26.47 26.47 0 0 1-.622-4.168c.499.395 1.014.784 1.552 1.16a32.194 32.194 0 0 0 2.286 1.451zm-4.078-3.076a27.83 27.83 0 0 1-2.143-1.938 27.822 27.822 0 0 1 2.143-1.937 32.18 32.18 0 0 0-.062 1.937c-.001.661.024 1.306.062 1.938zm1.792-5.5c-.538.377-1.053.766-1.552 1.161a26.48 26.48 0 0 1 .623-4.169c1.032.405 2.114.932 3.208 1.552-.761.444-1.524.927-2.279 1.456zm2.71-1.455a25.36 25.36 0 0 1 3.208-1.552c.297 1.242.511 2.654.623 4.171a32.16 32.16 0 0 0-1.552-1.163 32.313 32.313 0 0 0-2.279-1.456zm4.07 3.08a28.163 28.163 0 0 1 2.145 1.938 28.163 28.163 0 0 1-2.145 1.938c.038-.633.062-1.277.062-1.939a31.375 31.375 0 0 0-.062-1.937zM25 16.503c1.39 0 2.619 1.963 3.368 4.958A25.75 25.75 0 0 0 25 23.098a25.812 25.812 0 0 0-3.368-1.637c.749-2.994 1.978-4.958 3.368-4.958zm-8.493 9.328c-1.345-1.899-1.743-3.435-1.121-4.323.37-.529 1.08-.796 2.068-.796.67 0 1.47.124 2.377.372.5.137 1.022.314 1.556.517-.32 1.311-.546 2.807-.657 4.414a28.04 28.04 0 0 0-2.312 2.076 19.045 19.045 0 0 1-1.911-2.26zm3.324 9.566c-2.244.614-3.823.463-4.445-.425s-.224-2.423 1.121-4.322a18.875 18.875 0 0 1 1.911-2.258 28.55 28.55 0 0 0 2.312 2.075c.111 1.607.337 3.102.657 4.413-.534.203-1.056.381-1.556.517zM25 39.979c-1.39 0-2.619-1.964-3.369-4.959a25.651 25.651 0 0 0 3.374-1.64 25.506 25.506 0 0 0 3.368 1.623c-.749 3.005-1.981 4.976-3.373 4.976zm9.615-5.006c-.798 1.139-3.115 1.019-6.003-.088.321-1.313.547-2.811.658-4.421a28.063 28.063 0 0 0 2.307-2.078c2.651 2.702 3.946 5.289 3.038 6.587z"/></g></svg>