<?xml version="1.0" encoding="utf-8"?>
<!-- Generator: Adobe Illustrator 27.8.1, SVG Export Plug-In . SVG Version: 6.00 Build 0)  -->
<svg version="1.1" id="Camada_3" xmlns="http://www.w3.org/2000/svg" xmlns:xlink="http://www.w3.org/1999/xlink" x="0px" y="0px"
	 viewBox="0 0 50 50" style="enable-background:new 0 0 50 50;" xml:space="preserve">
<style type="text/css">
	.st0{fill:#FCC34F;}
	.st1{fill:none;stroke:#444444;stroke-width:2.5;stroke-linecap:round;stroke-linejoin:round;stroke-miterlimit:10;}
	.st2{fill:none;stroke:#444444;stroke-linecap:round;stroke-linejoin:round;stroke-miterlimit:10;}
	.st3{fill:none;stroke:#444444;stroke-width:0.5;stroke-linecap:round;stroke-linejoin:round;stroke-miterlimit:10;}
</style>
<g>
	<g>
		<path class="st0" d="M35.05,10.19l-7.08-4.92c0-1.12-1.88-2.04-3-2.04l-9.96,6.48c-1.12,0-12.84,6.92-12.84,8.04l0.32,1.29
			c0.4,1.62,1.98,2.6,3.56,2.34l0.08,0.09c0,2.32-0.83,24.16,1.36,23.38l35.76-12.72c-0.28-3.34-0.26-8.42-0.76-11.8l4.69-1.02
			c0.72-3-2.76-3.72-10.53-9.56"/>
		<polyline class="st1" points="42.9,37.34 42.9,20.33 47.4,20.33 47.4,17.29 24.71,3.14 2.04,17.22 2.04,20.33 6.54,20.33 
			6.54,44.86 34.47,44.86 		"/>
		<polyline class="st2" points="12.09,44.31 12.09,24.41 37.35,24.41 37.35,41.91 		"/>
		<g>
			<rect x="16.8" y="35.91" class="st3" width="7.92" height="7.92"/>
			<rect x="24.72" y="35.91" class="st3" width="7.92" height="7.92"/>
			<rect x="20.7" y="27.93" class="st3" width="7.92" height="7.92"/>
		</g>
		<polyline class="st3" points="23.54,27.99 23.54,29.67 24.8,29.16 26,29.67 26,28.05 		"/>
		<polyline class="st3" points="19.58,36 19.58,37.68 20.84,37.17 22.04,37.68 22.04,36.06 		"/>
		<polyline class="st3" points="27.56,35.97 27.56,37.65 28.82,37.14 30.02,37.65 30.02,36.03 		"/>
	</g>
	<g>
		<line class="st3" x1="25.58" y1="34.71" x2="26.09" y2="34.71"/>
		<line class="st3" x1="26.81" y1="34.71" x2="27.32" y2="34.71"/>
	</g>
	<g>
		<line class="st3" x1="29.78" y1="42.78" x2="30.29" y2="42.78"/>
		<line class="st3" x1="31.01" y1="42.78" x2="31.52" y2="42.78"/>
	</g>
	<g>
		<line class="st3" x1="22.01" y1="42.78" x2="22.52" y2="42.78"/>
		<line class="st3" x1="23.24" y1="42.78" x2="23.75" y2="42.78"/>
	</g>
</g>
</svg>
