<?xml version="1.0" encoding="utf-8"?>
<!-- Generator: Adobe Illustrator 27.5.0, SVG Export Plug-In . SVG Version: 6.00 Build 0)  -->
<svg version="1.1" id="Camada_3" xmlns="http://www.w3.org/2000/svg" xmlns:xlink="http://www.w3.org/1999/xlink" x="0px" y="0px"
	 viewBox="0 0 50 50" style="enable-background:new 0 0 50 50;" xml:space="preserve">
<style type="text/css">
	.st0{fill:#FF6B6B;}
	.st1{fill:none;stroke:#444444;stroke-width:2.5;stroke-linecap:round;stroke-linejoin:round;stroke-miterlimit:10;}
	.st2{fill:#444444;}
	.st3{fill:none;stroke:#444444;stroke-linecap:round;stroke-linejoin:round;stroke-miterlimit:10;}
	.st4{fill:none;stroke:#444444;stroke-miterlimit:10;}
</style>
<path class="st0" d="M48.1,20c-0.2-0.8-2.7-7.5-3.2-8.1l-3-3.5l-0.3,0.1L34,2.7L26.2,2C23,2,11.7,2.3,4.8,12.3L0.9,22.8l-0.2,0.1
	l4,13.4c0.1,0.4,4.6,5.6,4.9,5.9l5.6,3l32.2-11.7C48,33,49,24.8,48.1,20z"/>
<g>
	<g>
		<g>
			<path class="st1" d="M36.8,45.3c-7.9,4.5-18.1,4.2-25.8-1.6C0.7,36-1.4,21.3,6.4,10.9"/>
			<path class="st1" d="M6.2,11.1c2-3,4.7-4.7,4.7-4.7l0.7-0.5C19.7,0.1,30.9,0,39.2,6.3c10.4,7.8,12.4,22.5,4.7,32.8"/>
		</g>
	</g>
</g>
<g>
	<path class="st2" d="M30.3,31.1c0,0.1,0.1,0.2,0.1,0.3c0.5,1,0,2.2-1,2.7c-0.2,0.1-0.4,0.2-0.6,0.3c0.1,0.3,0.3,0.6,0.4,0.9
		c0.6,1.4,1.2,2.8,1.9,4.2c0.4,1,0,2.1-0.9,2.6c-1,0.5-2.3,0.1-2.7-1c-0.9-2-1.8-4.1-2.7-6.1c-0.2-0.4-0.4-0.9-0.6-1.3
		c0,0,0-0.1-0.1-0.1c-0.1,0-0.2,0.1-0.3,0.1c-0.4,0.2-0.8,0.4-1.2,0.5c-1.4,0.3-2.9-0.4-3.6-1.7c-0.5-0.9-0.9-1.9-1.3-2.9
		c-0.6-1.6,0.2-3.4,1.7-4.1c1.7-0.8,3.4-1.5,5.2-2.3c1.5-0.7,2.6-1.7,3.4-3c0.6-1.1,1.2-2.1,1.9-3.2c0-0.1,0-0.1,0-0.2
		c-0.2-1,0.4-2,1.3-2.3c0.9-0.3,2,0.1,2.4,1c0.3,0.7,0.6,1.3,0.9,2c0.3,0.8,0.7,1.5,1,2.3c0,0.1,0.1,0.1,0.2,0.1
		c1.8-0.3,3.6,0.9,3.9,2.8c0.2,1.3-0.3,2.3-1.3,3.1c-0.1,0.1-0.1,0.1,0,0.2c0.6,1.4,1.2,2.7,1.8,4.1c0.3,0.8,0.3,1.5-0.2,2.2
		c-0.8,1-2.3,1-3.1,0C36.7,32,36.6,32,36.5,32c-1.3-0.3-2.5-0.5-3.8-0.8C32,31,31.2,31,30.5,31.1C30.4,31.1,30.4,31.1,30.3,31.1
		C30.4,31.1,30.4,31.1,30.3,31.1z M25.8,24.1c0,0,0,0.1,0,0.1c0.9,1.9,1.7,3.9,2.6,5.8c0.1,0.2,0.1,0.2,0.3,0.1
		c1.3-0.4,2.7-0.6,4.1-0.3c0.8,0.1,1.6,0.3,2.4,0.5c0.3,0.1,0.6,0.1,0.9,0.2c-1.8-4.1-3.6-8.1-5.4-12.2c0,0.1-0.1,0.1-0.1,0.2
		c-0.4,0.7-0.8,1.4-1.2,2.1C28.4,22,27.3,23.2,25.8,24.1C25.8,24,25.8,24.1,25.8,24.1z M24.5,24.6C24.5,24.6,24.5,24.6,24.5,24.6
		c-1.6,0.7-3,1.3-4.5,2c-1,0.5-1.5,1.6-1,2.6c0.4,0.8,0.7,1.7,1.1,2.5c0.5,1,1.6,1.4,2.6,1c1.5-0.6,2.9-1.3,4.4-2c0,0,0.1,0,0.1-0.1
		C26.3,28.7,25.4,26.7,24.5,24.6z M38.3,31.5c0.5,0,0.8-0.5,0.6-1c-0.4-1-0.9-2-1.4-3c-1.3-3-2.6-5.9-4-8.9
		c-0.4-0.9-0.8-1.7-1.2-2.6c-0.1-0.3-0.4-0.5-0.7-0.4c-0.5,0.1-0.7,0.5-0.5,1c0.2,0.6,0.5,1.1,0.8,1.7c1.6,3.5,3.1,7.1,4.7,10.6
		c0.3,0.8,0.7,1.5,1,2.3C37.8,31.4,38.1,31.5,38.3,31.5z M25.4,33c0,0,0,0.1,0.1,0.1c0.9,2.1,1.8,4.1,2.8,6.2
		c0.2,0.4,0.4,0.8,0.5,1.2c0.2,0.4,0.7,0.5,1,0.3c0.2-0.2,0.3-0.5,0.2-0.8c-1.1-2.5-2.2-4.9-3.3-7.4c0,0,0-0.1-0.1-0.1
		C26.2,32.6,25.8,32.8,25.4,33C25.4,33,25.4,33,25.4,33z M37.7,24.5c0.5-0.5,0.8-1.4,0.4-2.3c-0.3-0.8-1.3-1.3-2-1.1
		C36.7,22.2,37.2,23.3,37.7,24.5z M27.8,31.9c0.2,0.4,0.4,0.8,0.6,1.2c0.2-0.1,0.5-0.2,0.7-0.3c0.3-0.2,0.4-0.5,0.3-0.8
		c-0.1-0.2-0.2-0.4-0.3-0.6c0,0-0.1-0.1-0.1,0C28.6,31.6,28.2,31.8,27.8,31.9z"/>
	<path class="st2" d="M48.3,27c-0.1,0-0.1,0-0.2,0c-1.3-0.4-2.6-0.8-3.9-1.2c-0.5-0.2-0.6-0.8-0.3-1.1c0.2-0.2,0.4-0.2,0.7-0.1
		c0.4,0.1,0.8,0.3,1.3,0.4c0.9,0.3,1.8,0.5,2.7,0.8c0.5,0.1,0.6,0.7,0.3,1.1C48.7,26.9,48.5,27,48.3,27z"/>
	<path class="st2" d="M42.7,20.4c0-0.3,0.1-0.5,0.4-0.6c1.2-0.5,2.4-1,3.5-1.5c0.1,0,0.2-0.1,0.2-0.1c0.4-0.1,0.8,0,0.9,0.3
		c0.1,0.3,0,0.7-0.4,0.9c-0.8,0.3-1.5,0.7-2.3,1c-0.5,0.2-1,0.4-1.5,0.6c-0.4,0.2-0.8,0-0.9-0.4C42.7,20.5,42.7,20.4,42.7,20.4z"/>
	<path class="st2" d="M44.6,12.6c-0.1,0.1-0.1,0.3-0.2,0.4c-0.8,1.1-1.6,2.2-2.4,3.4c-0.2,0.3-0.6,0.4-0.9,0.2
		c-0.3-0.2-0.4-0.6-0.1-0.9c0.6-0.9,1.3-1.8,1.9-2.7c0.2-0.2,0.3-0.4,0.5-0.7c0.2-0.2,0.5-0.3,0.8-0.2
		C44.4,12.1,44.6,12.3,44.6,12.6z"/>
	<path class="st2" d="M20.4,28.3c0-0.2,0.2-0.4,0.4-0.6c0.4-0.2,0.9-0.4,1.3-0.6c0.4-0.2,0.7-0.3,1.1-0.5c0.3-0.1,0.6,0,0.8,0.2
		c0.2,0.3,0.2,0.6,0,0.8c-0.1,0.1-0.2,0.1-0.2,0.2c-0.8,0.4-1.6,0.7-2.4,1.1C20.9,29.2,20.4,28.8,20.4,28.3z"/>
	<path class="st2" d="M25.3,29.8c0,0.3-0.2,0.4-0.4,0.6c-0.6,0.3-1.2,0.5-1.8,0.8c-0.2,0.1-0.4,0.2-0.6,0.3c-0.4,0.2-0.8,0-0.9-0.3
		c-0.2-0.3,0-0.7,0.4-0.9c0.8-0.4,1.6-0.7,2.4-1.1C24.8,28.9,25.3,29.2,25.3,29.8z"/>
</g>
<circle class="st3" cx="8" cy="29.8" r="2.5"/>
<circle class="st3" cx="12.6" cy="17.1" r="2.5"/>
<path class="st3" d="M21.3,24.9c-0.3-0.4-0.5-0.9-0.5-1.5c0-1.4,1.1-2.5,2.5-2.5c1.4,0,2.5,1.1,2.5,2.5"/>
<circle class="st4" cx="29.5" cy="8.2" r="2.5"/>
<line class="st3" x1="8.9" y1="27.4" x2="11.7" y2="19.4"/>
<line class="st3" x1="14.9" y1="18.3" x2="21.2" y2="22"/>
<line class="st3" x1="24.2" y1="20.9" x2="28.5" y2="10.8"/>
</svg>
