<svg xmlns="http://www.w3.org/2000/svg" id="Layer_1" x="0" y="0" version="1.1" viewBox="0 0 50 50" xml:space="preserve"><style>.st2{fill:#031326}</style><path fill="#a6c1c2" d="M1.5 8.4v15.4L48.6 41V20.7L14.7 8.4z"/><path fill="#b9d7d9" d="M14.7 8.4l33.9 12.3V8.4z"/><path d="M48 43.2H12.1c-.7 0-1.2-.6-1.2-1.2s.6-1.2 1.2-1.2h35.2V9.3H2.7v29.1c0 .7-.6 1.2-1.2 1.2S.2 39 .2 38.3V8.5c0-1 .8-1.8 1.8-1.8h46c1 0 1.8.8 1.8 1.8v33c0 .9-.8 1.7-1.8 1.7z" class="st2"/><path d="M45.2 31.9c-.1 0-.3 0-.4-.1L5 15.8c-.5-.2-.8-.8-.6-1.3.2-.5.8-.8 1.3-.6l39.8 16c.5.2.8.8.6 1.3-.1.5-.5.7-.9.7z" class="st2"/><circle cx="14.3" cy="15.2" r="1.1" class="st2"/><circle cx="9.9" cy="14.7" r="1.1" class="st2"/><circle cx="6.7" cy="17.7" r="1.1" class="st2"/><circle cx="5.9" cy="14.2" r="1.1" class="st2"/><circle cx="19.1" cy="23.8" r="1.1" class="st2"/><circle cx="39" cy="23.8" r="1.1" class="st2"/><circle cx="10.3" cy="18.2" r="1.1" class="st2"/><circle cx="18.6" cy="18.5" r="1.1" class="st2"/><circle cx="22.4" cy="17.7" r="1.1" class="st2"/><circle cx="19.1" cy="20.9" r="1.1" class="st2"/><circle cx="25" cy="21.9" r="1.1" class="st2"/><circle cx="22.4" cy="23.2" r="1.1" class="st2"/><circle cx="26.1" cy="25.4" r="1.1" class="st2"/><circle cx="32.5" cy="23.8" r="1.1" class="st2"/><circle cx="33" cy="26.5" r="1.1" class="st2"/><circle cx="28.8" cy="21.9" r="1.1" class="st2"/><circle cx="31.4" cy="29.1" r="1.1" class="st2"/><circle cx="40.1" cy="30.8" r="1.1" class="st2"/><circle cx="43.7" cy="30.8" r="1.1" class="st2"/><circle cx="40.6" cy="27" r="1.1" class="st2"/><circle cx="37.4" cy="26.5" r="1.1" class="st2"/><circle cx="36.3" cy="29.1" r="1.1" class="st2"/><circle cx="14.3" cy="17.7" r="1.1" class="st2"/><circle cx="29.6" cy="26.9" r="1.1" class="st2"/><circle cx="26.1" cy="19.5" r="1.1" class="st2"/><circle cx="15.3" cy="20.9" r="1.1" class="st2"/><circle cx="11.8" cy="20.6" r="1.1" class="st2"/></svg>