<svg version="1" xmlns="http://www.w3.org/2000/svg" viewBox="0 0 50 50"><path fill="#FCC34F" d="M42.981 20.493c0 4.716-1.828 9-4.794 12.201L9.72 43.051a3.264 3.264 0 0 1-.541-1.797c0-.808.306-1.538.839-2.189a3.069 3.069 0 0 1-.102-.769c0-.738.259-1.397.714-1.985a2.931 2.931 0 0 1-.094-.745c0-1.044.549-1.93 1.467-2.676a17.899 17.899 0 0 1-4.967-12.397c0-9.925 8.042-17.976 17.968-17.976s17.977 8.051 17.977 17.976z"/><path fill="#FDCF72" d="M38.391 8.497L7.053 19.905c.306-9.651 8.223-17.387 17.952-17.387 5.32 0 10.09 2.306 13.386 5.979z"/><g fill="#444"><path d="M37.367 16.189c1.035-1.035.33-3.419-1.576-5.325-1.906-1.906-4.29-2.611-5.325-1.576-1.035 1.035-.33 3.419 1.576 5.325s4.29 2.611 5.325 1.576z"/><path d="M25.005 1.271c-10.599 0-19.222 8.623-19.222 19.222 0 4.551 1.59 8.893 4.501 12.354-.804 1.006-.999 1.997-.999 2.723 0 .151.009.305.026.458a4.321 4.321 0 0 0-.62 2.731 4.49 4.49 0 0 0-.761 2.5c0 5.516 9.198 7.473 17.074 7.473a1.25 1.25 0 0 0 0-2.5c-8.172 0-14.574-2.185-14.574-4.973 0-.487.177-.939.538-1.382 2.114 2.657 8.093 3.874 14.035 3.874.938 0 1.88-.032 2.801-.096a.375.375 0 0 0 .349-.399.361.361 0 0 0-.399-.349c-6.848.473-14.678-.875-16.462-3.896l-.069-.262a1.772 1.772 0 0 1-.058-.451c0-.387.128-.751.377-1.109 2.041 2.543 7.767 3.709 13.461 3.709 2.11 0 4.216-.17 6.093-.491a.376.376 0 0 0 .307-.433.379.379 0 0 0-.434-.307c-1.835.314-3.898.48-5.966.48-5.691 0-11.425-1.262-13.038-3.681l-.124-.475a1.636 1.636 0 0 1-.058-.423c0-.601.329-1.16 1.004-1.71l.491-.4c3.128 2.771 7.227 4.469 11.724 4.469 4.558 0 8.706-1.744 11.849-4.582.065.164.158.318.293.448a1.247 1.247 0 0 0 1.767-.042 19.128 19.128 0 0 0 5.313-13.259c.004-10.598-8.62-19.221-19.219-19.221zM13.474 32.623l-.568-.596a16.648 16.648 0 0 1-4.622-11.535c0-9.22 7.501-16.722 16.722-16.722s16.722 7.501 16.722 16.722a16.65 16.65 0 0 1-4.622 11.535l-.153.166c-3.072 3.067-7.274 4.985-11.948 4.985-4.454 0-8.5-1.738-11.531-4.555z"/></g></svg>