<svg xmlns="http://www.w3.org/2000/svg" id="Camada_3" x="0" y="0" version="1.1" viewBox="0 0 50 50" xml:space="preserve"><style>.st1{fill:none;stroke:#444;stroke-width:2.5;stroke-linecap:round;stroke-linejoin:round;stroke-miterlimit:10}.st2{fill:#444}.st3{fill:none;stroke:#444;stroke-linecap:round;stroke-linejoin:round;stroke-miterlimit:10}</style><path fill="#ff6b6b" d="M48.1 20c-.2-.8-2.7-7.5-3.2-8.1l-3-3.5-.3.1L34 2.7 26.2 2C23 2 11.7 2.3 4.8 12.3L.9 22.8l-.2.1 4 13.4c.1.4 4.6 5.6 4.9 5.9l5.6 3 32.2-11.7c.6-.5 1.6-8.7.7-13.5z"/><path d="M36.8 45.3c-7.9 4.5-18.1 4.2-25.8-1.6C.7 36-1.4 21.3 6.4 10.9" class="st1"/><path d="M6.2 11.1c2-3 4.7-4.7 4.7-4.7l.7-.5C19.7.1 30.9 0 39.2 6.3c10.4 7.8 12.4 22.5 4.7 32.8" class="st1"/><path d="M30.3 31.1c0 .1.1.2.1.3.5 1 0 2.2-1 2.7l-.6.3c.1.3.3.6.4.9.6 1.4 1.2 2.8 1.9 4.2.4 1 0 2.1-.9 2.6-1 .5-2.3.1-2.7-1-.9-2-1.8-4.1-2.7-6.1-.2-.4-.4-.9-.6-1.3 0 0 0-.1-.1-.1s-.2.1-.3.1c-.4.2-.8.4-1.2.5-1.4.3-2.9-.4-3.6-1.7-.5-.9-.9-1.9-1.3-2.9-.6-1.6.2-3.4 1.7-4.1 1.7-.8 3.4-1.5 5.2-2.3 1.5-.7 2.6-1.7 3.4-3 .6-1.1 1.2-2.1 1.9-3.2v-.2c-.2-1 .4-2 1.3-2.3.9-.3 2 .1 2.4 1 .3.7.6 1.3.9 2 .3.8.7 1.5 1 2.3 0 .1.1.1.2.1 1.8-.3 3.6.9 3.9 2.8.2 1.3-.3 2.3-1.3 3.1-.1.1-.1.1 0 .2.6 1.4 1.2 2.7 1.8 4.1.3.8.3 1.5-.2 2.2-.8 1-2.3 1-3.1 0-.1-.3-.2-.3-.3-.3-1.3-.3-2.5-.5-3.8-.8-.7-.2-1.5-.2-2.2-.1h-.2c.1 0 .1 0 0 0zm-4.5-7v.1c.9 1.9 1.7 3.9 2.6 5.8.1.2.1.2.3.1 1.3-.4 2.7-.6 4.1-.3.8.1 1.6.3 2.4.5.3.1.6.1.9.2-1.8-4.1-3.6-8.1-5.4-12.2 0 .1-.1.1-.1.2l-1.2 2.1c-1 1.4-2.1 2.6-3.6 3.5 0-.1 0 0 0 0zm-1.3.5c-1.6.7-3 1.3-4.5 2-1 .5-1.5 1.6-1 2.6.4.8.7 1.7 1.1 2.5.5 1 1.6 1.4 2.6 1 1.5-.6 2.9-1.3 4.4-2 0 0 .1 0 .1-.1-.9-1.9-1.8-3.9-2.7-6zm13.8 6.9c.5 0 .8-.5.6-1-.4-1-.9-2-1.4-3-1.3-3-2.6-5.9-4-8.9-.4-.9-.8-1.7-1.2-2.6-.1-.3-.4-.5-.7-.4-.5.1-.7.5-.5 1 .2.6.5 1.1.8 1.7 1.6 3.5 3.1 7.1 4.7 10.6.3.8.7 1.5 1 2.3.2.2.5.3.7.3zM25.4 33s0 .1.1.1c.9 2.1 1.8 4.1 2.8 6.2.2.4.4.8.5 1.2.2.4.7.5 1 .3.2-.2.3-.5.2-.8-1.1-2.5-2.2-4.9-3.3-7.4 0 0 0-.1-.1-.1-.4.1-.8.3-1.2.5zm12.3-8.5c.5-.5.8-1.4.4-2.3-.3-.8-1.3-1.3-2-1.1.6 1.1 1.1 2.2 1.6 3.4zm-9.9 7.4l.6 1.2c.2-.1.5-.2.7-.3.3-.2.4-.5.3-.8l-.3-.6s-.1-.1-.1 0c-.4.2-.8.4-1.2.5zM48.3 27h-.2l-3.9-1.2c-.5-.2-.6-.8-.3-1.1.2-.2.4-.2.7-.1.4.1.8.3 1.3.4.9.3 1.8.5 2.7.8.5.1.6.7.3 1.1-.2 0-.4.1-.6.1zm-5.6-6.6c0-.3.1-.5.4-.6 1.2-.5 2.4-1 3.5-1.5.1 0 .2-.1.2-.1.4-.1.8 0 .9.3.1.3 0 .7-.4.9-.8.3-1.5.7-2.3 1l-1.5.6c-.4.2-.8 0-.9-.4.1-.1.1-.2.1-.2zm1.9-7.8c-.1.1-.1.3-.2.4-.8 1.1-1.6 2.2-2.4 3.4-.2.3-.6.4-.9.2-.3-.2-.4-.6-.1-.9.6-.9 1.3-1.8 1.9-2.7.2-.2.3-.4.5-.7.2-.2.5-.3.8-.2.2 0 .4.2.4.5z" class="st2"/><path d="M20.4 28.3c0-.2.2-.4.4-.6.4-.2.9-.4 1.3-.6.4-.2.7-.3 1.1-.5.3-.1.6 0 .8.2.2.3.2.6 0 .8-.1.1-.2.1-.2.2-.8.4-1.6.7-2.4 1.1-.5.3-1-.1-1-.6zm4.9 1.5c0 .3-.2.4-.4.6-.6.3-1.2.5-1.8.8l-.6.3c-.4.2-.8 0-.9-.3-.2-.3 0-.7.4-.9.8-.4 1.6-.7 2.4-1.1.4-.3.9 0 .9.6z" class="st2"/><circle cx="8" cy="29.8" r="2.5" class="st3"/><circle cx="12.6" cy="17.1" r="2.5" class="st3"/><path d="M21.3 24.9c-.3-.4-.5-.9-.5-1.5 0-1.4 1.1-2.5 2.5-2.5s2.5 1.1 2.5 2.5" class="st3"/><circle cx="29.5" cy="8.2" r="2.5" fill="none" stroke="#444" stroke-miterlimit="10"/><path d="M8.9 27.4l2.8-8m3.2-1.1l6.3 3.7m3-1.1l4.3-10.1" class="st3"/></svg>