<?xml version="1.0" encoding="UTF-8"?>
<svg id="Layer_1" data-name="Layer 1" xmlns="http://www.w3.org/2000/svg" version="1.1" viewBox="0 0 50 50">
  <defs>
    <style>
      .cls-1 {
        stroke-width: .5px;
      }

      .cls-1, .cls-2, .cls-3 {
        fill: none;
        stroke: #444;
        stroke-linecap: round;
        stroke-linejoin: round;
      }

      .cls-4 {
        fill: #35d3c3;
      }

      .cls-4, .cls-5 {
        stroke-width: 0px;
      }

      .cls-3 {
        stroke-width: 2.5px;
      }

      .cls-5 {
        fill: #7df4eb;
      }
    </style>
  </defs>
  <polygon class="cls-4" points="30.3 21.4 38 23.8 31.5 28.4 31.6 36.5 25.1 31.7 17.5 34.2 20.1 26.6 15.2 20.2 23.3 20.3 27.9 13.7 30.3 21.4"/>
  <g>
    <path class="cls-5" d="M14.1,48.4h-5.6c-1.9,0-3.4-1.5-3.4-3.4l.8-19.2-.5-.3c-1.6-.9-1.7-3.3-.1-4.3h0s-1.4-1.5-1.4-1.5c-1.1-1.1-1-2.9.1-4l3-2.6h0c1.2-1.7,2.6-2.8,4.6-2.8h3.3c0-4.9,4.4-8.9,9.8-8.9s9.8,4,9.8,8.9h2.6c3.1,0,5.6,2.4,5.7,5.5l1.1,21.8"/>
    <g>
      <g id="shopping_online_click_and_collect" data-name="shopping online/click and collect">
        <g>
          <path class="cls-2" d="M8.9,24.4l-.8,18.5c0,1.5,1.2,2.6,2.6,2.6h28.2c1.4,0,2.5-1.1,2.4-2.5l-1.2-26c-.1-2.2-1.9-3.9-4.1-3.9H13.4c-2.2,0-4,1.7-4.1,4"/>
          <circle class="cls-2" cx="17.4" cy="17.8" r=".7"/>
          <circle class="cls-2" cx="31.9" cy="17.8" r=".7"/>
        </g>
        <polygon class="cls-2" points="15.8 26.8 13.7 16.9 11.5 19.8 7.8 15.9 5.8 17.7 9.5 21.6 6.6 23.2 15.8 26.8"/>
      </g>
      <g>
        <path class="cls-2" d="M15.2,32.1c0-2.3,3.1-4.1,6.9-4.1s6.9,1.8,6.9,4.1-3.1,4.1-6.9,4.1-1.6,0-2.1-.1"/>
        <line class="cls-2" x1="18" y1="37" x2="20" y2="37"/>
        <path class="cls-2" d="M29,37.3c0,2.3-3.1,4.1-6.9,4.1s-1.4,0-2.1-.2v-.2s0-5,0-5l2.4-4h-7.2v2.4"/>
        <path class="cls-2" d="M15.3,34.5"/>
        <line class="cls-2" x1="29.1" y1="32" x2="29" y2="37.3"/>
        <g>
          <path class="cls-1" d="M15.2,43.6s-3.8-.3-4.7-3.7v-5.3h7v5.3l-2.4,3.6Z"/>
          <path class="cls-1" d="M10.5,34.7s.7,3,4.7,4l2.3-4"/>
          <line class="cls-1" x1="15.2" y1="43.6" x2="15.2" y2="38.7"/>
        </g>
      </g>
      <polyline class="cls-1" points="23.9 30.1 31.3 22.9 37.9 22.9"/>
      <line class="cls-1" x1="37.9" y1="25.7" x2="31.5" y2="25.7"/>
      <line class="cls-1" x1="37.9" y1="28.4" x2="31.5" y2="28.4"/>
      <path class="cls-2" d="M17.3,17.2v-5.3c0-4,3.3-7.3,7.3-7.3s7.3,3.3,7.3,7.3v5.3"/>
      <path class="cls-3" d="M33.9,48.5H8.5c-1.9,0-3.4-1.6-3.4-3.5l.8-19.2-.5-.3c-1.6-.9-1.7-3.3-.1-4.3h0s-1.4-1.5-1.4-1.5c-1.1-1.1-1-2.9.1-4l3-2.6h0c1.2-1.7,2.6-2.8,4.6-2.8h3.3c0-4.9,4.4-8.9,9.8-8.9s9.8,4,9.8,8.9h2.6c3.1,0,5.6,2.4,5.7,5.5l1.1,22.2"/>
    </g>
  </g>
</svg>