<?xml version="1.0" encoding="utf-8"?>
<!-- Generator: Adobe Illustrator 26.5.0, SVG Export Plug-In . SVG Version: 6.00 Build 0)  -->
<svg version="1.1" id="Camada_3" xmlns="http://www.w3.org/2000/svg" xmlns:xlink="http://www.w3.org/1999/xlink" x="0px" y="0px"
	 viewBox="0 0 50 50" style="enable-background:new 0 0 50 50;" xml:space="preserve">
<style type="text/css">
	.st0{fill:#B9D7D9;}
	.st1{fill:#A6C1C2;}
	.st2{fill:#444444;}
</style>
<g>
	<path class="st0" d="M47.28,17.63l-0.72-1.34l-0.84-5.88l-3.4-1.08H25l-12.04,3.95L3.38,17.1L2.72,33.66v6.02H1.07
		c-0.46,0-0.82,0.37-0.82,0.83v2.47c0,0.29,0.04,0.57,0.11,0.84c0.17,0.66,0.53,1.23,1.02,1.65l2.33-0.84l9.16-3.3l4.6-1.65
		l14.94-5.38l1.65-0.6l1.73-0.62l4.6-1.65l4.57-1.64l1.47-0.53l0.11-0.51c0-0.46,0.45-1.44,0-1.44l0.72-2.47V17.63z"/>
	<path class="st1" d="M46.47,34.95c0.46,0,0.27-1.25,0.27-1.71l-0.29-3.99l0.46-8.07L3.57,36.6l0.15,3.48l-2.88,0.18
		c0.17,0.66,0.05,4.78,0.55,5.21c0.58,0.51,1.33,0.82,2.16,0.82l11.94-0.2"/>
	<path class="st2" d="M30.65,5.21c-1.73,0.74-2.53,2.74-1.79,4.47c0.31,0.72,0.85,1.27,1.48,1.62l-3.63,9.09
		c-0.61-0.17-1.25-0.16-1.86-0.01l-1.56-4.69c0.42-0.2,0.78-0.53,1.01-0.98c0.54-1.07,0.11-2.38-0.97-2.92
		c-1.07-0.54-2.38-0.1-2.92,0.97c-0.54,1.08-0.1,2.38,0.97,2.92c0.45,0.23,0.93,0.27,1.39,0.18l1.55,4.69
		c-0.48,0.19-0.92,0.49-1.29,0.89l-7.84-5.88c0.36-0.64,0.54-1.38,0.42-2.16c-0.27-1.86-1.99-3.16-3.85-2.89
		c-1.86,0.27-3.16,1.99-2.89,3.86c0.27,1.86,1.99,3.16,3.85,2.89c0.78-0.11,1.45-0.49,1.95-1.01l7.84,5.88
		c-0.23,0.39-0.38,0.81-0.45,1.25l-7.61-0.87c0-0.32-0.07-0.64-0.27-0.92c-0.52-0.71-1.51-0.87-2.22-0.35
		c-0.71,0.52-0.87,1.51-0.35,2.22c0.51,0.71,1.51,0.87,2.22,0.35c0.32-0.23,0.5-0.56,0.59-0.91l7.59,0.87
		c-0.05,0.76,0.14,1.52,0.55,2.17l-7.71,6.03c-0.52-0.51-1.2-0.88-1.98-0.97C11,30.77,9.3,32.1,9.08,33.97
		c-0.23,1.87,1.1,3.57,2.97,3.79c1.87,0.23,3.57-1.1,3.79-2.97c0.1-0.78-0.09-1.53-0.47-2.15l7.72-6.04
		c0.12,0.13,0.25,0.25,0.39,0.36c0.08,0.06,0.17,0.1,0.25,0.16L20,34.06c-0.41-0.16-0.88-0.2-1.35-0.08
		c-1.16,0.31-1.85,1.5-1.54,2.66c0.31,1.16,1.5,1.85,2.66,1.54c1.16-0.31,1.85-1.5,1.54-2.66c-0.14-0.51-0.44-0.92-0.84-1.2
		l3.73-6.93c0.37,0.17,0.76,0.26,1.16,0.3l-0.15,2.62c-0.34,0.02-0.68,0.13-0.95,0.37c-0.66,0.58-0.72,1.59-0.13,2.25
		c0.58,0.66,1.59,0.71,2.25,0.13c0.66-0.58,0.72-1.59,0.13-2.25c-0.24-0.27-0.56-0.42-0.9-0.48l0.16-2.63
		c0.44-0.01,0.87-0.08,1.28-0.24l3.03,7.07c-0.28,0.16-0.52,0.38-0.66,0.7c-0.36,0.8-0.01,1.74,0.8,2.1c0.8,0.36,1.74,0,2.1-0.8
		c0.36-0.8,0-1.75-0.8-2.1c-0.36-0.16-0.73-0.16-1.08-0.06l-3.04-7.07c0.3-0.15,0.59-0.34,0.84-0.58l7.43,6.37
		c-0.4,0.61-0.62,1.34-0.56,2.13c0.14,1.88,1.78,3.28,3.65,3.14c1.88-0.15,3.28-1.78,3.14-3.66c-0.14-1.87-1.78-3.28-3.66-3.14
		c-0.78,0.06-1.48,0.39-2.02,0.88l-7.44-6.37c0.47-0.71,0.68-1.52,0.63-2.31l4.86-0.68c0.12,0.45,0.38,0.87,0.78,1.17
		c0.96,0.73,2.32,0.54,3.05-0.42c0.72-0.96,0.53-2.32-0.42-3.05c-0.96-0.72-2.32-0.53-3.04,0.42c-0.3,0.4-0.44,0.87-0.43,1.34
		l-4.86,0.68c-0.11-0.52-0.33-1.01-0.66-1.45l7.02-5.88c0.23,0.22,0.52,0.39,0.86,0.43c0.87,0.11,1.67-0.5,1.78-1.38
		c0.11-0.87-0.5-1.67-1.38-1.78c-0.87-0.11-1.67,0.51-1.78,1.38c-0.05,0.38,0.06,0.74,0.25,1.04l-7.02,5.87
		c-0.14-0.15-0.3-0.3-0.47-0.44c-0.15-0.12-0.32-0.2-0.48-0.29l3.64-9.1c0.71,0.18,1.47,0.16,2.2-0.15
		c1.73-0.74,2.53-2.74,1.79-4.47C34.38,5.28,32.38,4.47,30.65,5.21z"/>
	<path class="st2" d="M48.93,39.68h-1.65v-3.71v-9.94h0.01V12.45c0-2.28-1.85-4.12-4.13-4.13h-2.78H9.62H6.85
		c-2.28,0-4.12,1.85-4.13,4.13v13.58h0v13.65H1.07c-0.46,0-0.82,0.37-0.82,0.83v2.47c0,0.29,0.04,0.57,0.11,0.84
		c0.17,0.66,0.53,1.23,1.02,1.65c0.58,0.51,1.33,0.82,2.16,0.82h42.9c1.83,0,3.3-1.48,3.3-3.31V40.5
		C49.75,40.05,49.39,39.68,48.93,39.68z M4.37,26.03V12.45c0-1.37,1.11-2.48,2.48-2.48h2.78h30.76h2.78c1.37,0,2.48,1.11,2.48,2.48
		v4.67h0v18.84v3.71h-1.65v-3.71V13.28h0.01c0-0.91-0.74-1.65-1.65-1.65h-1.95H9.62H7.67c-0.87,0-1.57,0.67-1.64,1.52H6.02v17.84
		v0.56v1.96v6.17H4.37L4.37,26.03L4.37,26.03z M7.68,33.51v-1.63v-18.6h1.95h30.77h1.93v22.69v3.71H30.05
		c-0.88,0-1.69,0.5-2.08,1.28c-0.11,0.23-0.34,0.37-0.59,0.37h-4.76c-0.25,0-0.49-0.14-0.6-0.37c-0.38-0.79-1.19-1.28-2.07-1.28
		H7.68V33.51z M48.1,42.98c0,0.91-0.74,1.65-1.65,1.65H3.55c-0.82,0-1.5-0.6-1.62-1.38c-0.02-0.09-0.03-0.19-0.03-0.28v-1.64h18.06
		c0.25,0,0.49,0.14,0.6,0.36c0.38,0.8,1.19,1.29,2.07,1.28h4.76c0.88,0.01,1.69-0.49,2.08-1.28c0.11-0.22,0.34-0.36,0.59-0.36H48.1
		V42.98z"/>
</g>
</svg>
