<?xml version="1.0" encoding="utf-8"?>
<!-- Generator: Adobe Illustrator 22.1.0, SVG Export Plug-In . SVG Version: 6.00 Build 0)  -->
<svg version="1.1" id="Layer_1" xmlns="http://www.w3.org/2000/svg" xmlns:xlink="http://www.w3.org/1999/xlink" x="0px" y="0px"
	 viewBox="0 0 50 50" style="enable-background:new 0 0 50 50;" xml:space="preserve">
<style type="text/css">
	.st0{fill:#A6C1C2;}
	.st1{fill:#B9D7D9;}
	.st2{fill:#444444;}
</style>
<g>
	<g>
		<g>
			<polygon class="st0" points="1.5,8.4 1.5,23.8 48.6,41 48.6,20.7 14.7,8.4 			"/>
		</g>
		<g>
			<polygon class="st1" points="14.7,8.4 48.6,20.7 48.6,8.4 			"/>
		</g>
	</g>
	<g>
		<path class="st2" d="M48,43.2H12.1c-0.7,0-1.2-0.6-1.2-1.2s0.6-1.2,1.2-1.2h35.2V9.3H2.7v29.1c0,0.7-0.6,1.2-1.2,1.2
			S0.2,39,0.2,38.3V8.5c0-1,0.8-1.8,1.8-1.8H48c1,0,1.8,0.8,1.8,1.8v33C49.8,42.4,49,43.2,48,43.2z"/>
	</g>
	<g>
		<g>
			<path class="st2" d="M45.2,31.9c-0.1,0-0.3,0-0.4-0.1l-39.8-16c-0.5-0.2-0.8-0.8-0.6-1.3c0.2-0.5,0.8-0.8,1.3-0.6l39.8,16
				c0.5,0.2,0.8,0.8,0.6,1.3C46,31.7,45.6,31.9,45.2,31.9z"/>
		</g>
		<g>
			<circle class="st2" cx="14.3" cy="15.2" r="1.1"/>
		</g>
		<g>
			<circle class="st2" cx="9.9" cy="14.7" r="1.1"/>
		</g>
		<g>
			<circle class="st2" cx="6.7" cy="17.7" r="1.1"/>
		</g>
		<g>
			<circle class="st2" cx="5.9" cy="14.2" r="1.1"/>
		</g>
		<g>
			<circle class="st2" cx="19.1" cy="23.8" r="1.1"/>
		</g>
		<g>
			<circle class="st2" cx="39" cy="23.8" r="1.1"/>
		</g>
		<g>
			<circle class="st2" cx="10.3" cy="18.2" r="1.1"/>
		</g>
		<g>
			<circle class="st2" cx="18.6" cy="18.5" r="1.1"/>
		</g>
		<g>
			<circle class="st2" cx="22.4" cy="17.7" r="1.1"/>
		</g>
		<g>
			<circle class="st2" cx="19.1" cy="20.9" r="1.1"/>
		</g>
		<g>
			<circle class="st2" cx="25" cy="21.9" r="1.1"/>
		</g>
		<g>
			<circle class="st2" cx="22.4" cy="23.2" r="1.1"/>
		</g>
		<g>
			<circle class="st2" cx="26.1" cy="25.4" r="1.1"/>
		</g>
		<g>
			<circle class="st2" cx="32.5" cy="23.8" r="1.1"/>
		</g>
		<g>
			<circle class="st2" cx="33" cy="26.5" r="1.1"/>
		</g>
		<g>
			<circle class="st2" cx="28.8" cy="21.9" r="1.1"/>
		</g>
		<g>
			<circle class="st2" cx="31.4" cy="29.1" r="1.1"/>
		</g>
		<g>
			<circle class="st2" cx="40.1" cy="30.8" r="1.1"/>
		</g>
		<g>
			<circle class="st2" cx="43.7" cy="30.8" r="1.1"/>
		</g>
		<g>
			<circle class="st2" cx="40.6" cy="27" r="1.1"/>
		</g>
		<g>
			<circle class="st2" cx="37.4" cy="26.5" r="1.1"/>
		</g>
		<g>
			<circle class="st2" cx="36.3" cy="29.1" r="1.1"/>
		</g>
		<g>
			<circle class="st2" cx="14.3" cy="17.7" r="1.1"/>
		</g>
		<g>
			<circle class="st2" cx="29.6" cy="26.9" r="1.1"/>
		</g>
		<g>
			<circle class="st2" cx="26.1" cy="19.5" r="1.1"/>
		</g>
		<g>
			<circle class="st2" cx="15.3" cy="20.9" r="1.1"/>
		</g>
		<g>
			<circle class="st2" cx="11.8" cy="20.6" r="1.1"/>
		</g>
	</g>
</g>
</svg>
