<?xml version="1.0" encoding="utf-8"?>
<!-- Generator: Adobe Illustrator 27.7.0, SVG Export Plug-In . SVG Version: 6.00 Build 0)  -->
<svg version="1.1" id="Camada_3" xmlns="http://www.w3.org/2000/svg" xmlns:xlink="http://www.w3.org/1999/xlink" x="0px" y="0px"
	 viewBox="0 0 50 50" style="enable-background:new 0 0 50 50;" xml:space="preserve">
<style type="text/css">
	.st0{fill:none;stroke:#444444;stroke-width:2.5;stroke-linecap:round;stroke-linejoin:round;stroke-miterlimit:10;}
	.st1{fill:#FCC34F;}
	.st2{fill:none;stroke:#444444;stroke-linecap:round;stroke-linejoin:round;stroke-miterlimit:10;}
	.st3{fill:none;stroke:#444444;stroke-width:0.5;stroke-linecap:round;stroke-linejoin:round;stroke-miterlimit:10;}
	.st4{fill:#444444;}
	.st5{fill:none;stroke:#444444;stroke-width:0.5;stroke-miterlimit:10;}
</style>
<g>
	<path class="st0" d="M2.22,15.62"/>
	<path class="st1" d="M45.49,2.64H4c-1.41,0-1.44,3.88-1.44,5.28l-0.18,17.1L1.84,35.28L3.1,47.16l12.51,0.62l32.42-11.54V5.41V5.22
		V5.19C48.03,3.78,46.89,2.64,45.49,2.64z"/>
	<path class="st0" d="M32.62,48.08H5.61c-1.87,0-3.39-1.58-3.39-3.54V5.62c0-1.95,1.52-3.54,3.39-3.54h39.01
		c1.87,0,3.39,1.58,3.39,3.54v30.61"/>
	<g>
		<path class="st2" d="M6.96,7.04v33.22c0,1.51,1.22,2.73,2.73,2.73h34"/>
		<polyline class="st2" points="8.96,42.13 19.6,25.55 29.42,25.55 37.82,8.1 		"/>
		<line class="st3" x1="9.31" y1="11.24" x2="7.06" y2="11.24"/>
		<line class="st3" x1="9.31" y1="33.32" x2="7.06" y2="33.32"/>
		<line class="st3" x1="9.31" y1="22.32" x2="7.06" y2="22.32"/>
		<line class="st3" x1="39.89" y1="40.35" x2="39.89" y2="42.6"/>
		<line class="st3" x1="17.81" y1="40.35" x2="17.81" y2="42.6"/>
		<line class="st3" x1="28.8" y1="40.35" x2="28.8" y2="42.6"/>
		<circle class="st4" cx="19.57" cy="25.8" r="1.47"/>
		<circle class="st5" cx="14.56" cy="22.54" r="1.32"/>
		<circle class="st5" cx="15.27" cy="16.32" r="1.32"/>
		<circle class="st5" cx="26.6" cy="35.46" r="1.32"/>
		<circle class="st5" cx="41.06" cy="28.43" r="1.32"/>
		<circle class="st5" cx="42.14" cy="19.61" r="1.32"/>
		<circle class="st5" cx="22.52" cy="7.55" r="1.32"/>
		<circle class="st5" cx="27.76" cy="17.76" r="1.32"/>
		<circle class="st5" cx="37.79" cy="33.68" r="1.32"/>
		<circle class="st4" cx="29.39" cy="25.39" r="1.47"/>
		<circle class="st4" cx="37.73" cy="8.37" r="1.47"/>
	</g>
</g>
</svg>
