<?xml version="1.0" encoding="utf-8"?>
<!-- Generator: Adobe Illustrator 27.5.0, SVG Export Plug-In . SVG Version: 6.00 Build 0)  -->
<svg version="1.1" id="Camada_3" xmlns="http://www.w3.org/2000/svg" xmlns:xlink="http://www.w3.org/1999/xlink" x="0px" y="0px"
	 viewBox="0 0 50 50" style="enable-background:new 0 0 50 50;" xml:space="preserve">
<style type="text/css">
	.st0{fill:#04AD49;}
	.st1{fill:#22DD6D;}
	.st2{fill:none;stroke:#444444;stroke-width:2.5;stroke-linecap:round;stroke-linejoin:round;stroke-miterlimit:10;}
	.st3{fill:none;stroke:#444444;stroke-linecap:round;stroke-miterlimit:10;}
	.st4{fill:none;stroke:#444444;stroke-width:0.5;stroke-miterlimit:10;}
</style>
<polygon class="st0" points="28.5,21 36.2,23.4 29.6,28 29.7,36.1 23.2,31.3 15.6,33.9 18.2,26.2 13.4,19.8 21.4,19.9 26.1,13.3 "/>
<g>
	<path class="st1" d="M48.5,20.4c-0.2-0.8-2.7-7.5-3.2-8.1l-3-3.5l-0.2,0.1l-7.6-5.8l-7.8-0.7c-3.2,0-14.5,0.3-21.4,10.2l-4,10.6
		l-0.2,0.1l4,13.4c0.1,0.4,4.5,5.7,4.9,5.9l5.6,3l32.2-11.7C48.4,33.4,49.4,25.2,48.5,20.4z"/>
	<g>
		<g>
			<g>
				<path class="st2" d="M32.8,47.3c-7,2.3-15,1.2-21.3-3.6C1.1,36-1,21.3,6.8,10.9"/>
				<path class="st2" d="M6.6,11.1c2-3,4.7-4.7,4.7-4.7L12,5.9C20.1,0.2,31.3,0,39.6,6.3C50,14.1,52,28.8,44.3,39.1"/>
			</g>
		</g>
	</g>
</g>
<line class="st3" x1="11.6" y1="38.9" x2="39.5" y2="11"/>
<path class="st4" d="M30.5,10.8H29c-0.6,0-1.1-0.5-1.1-1.1V8.3c0-0.6,0.5-1.1,1.1-1.1h1.4c0.6,0,1.1,0.5,1.1,1.1v1.4
	C31.5,10.4,31.1,10.8,30.5,10.8z"/>
<path class="st4" d="M30.5,28.1H29c-0.6,0-1.1-0.5-1.1-1.1v-1.4c0-0.6,0.5-1.1,1.1-1.1h1.4c0.6,0,1.1,0.5,1.1,1.1V27
	C31.5,27.6,31.1,28.1,30.5,28.1z"/>
<path class="st4" d="M37.8,28.1h-1.4c-0.6,0-1.1-0.5-1.1-1.1v-1.4c0-0.6,0.5-1.1,1.1-1.1h1.4c0.6,0,1.1,0.5,1.1,1.1V27
	C38.9,27.6,38.4,28.1,37.8,28.1z"/>
<path class="st4" d="M37.8,21.9h-1.4c-0.6,0-1.1-0.5-1.1-1.1v-1.4c0-0.6,0.5-1.1,1.1-1.1h1.4c0.6,0,1.1,0.5,1.1,1.1v1.4
	C38.9,21.4,38.4,21.9,37.8,21.9z"/>
<path class="st4" d="M37.8,15.3h-1.4c-0.6,0-1.1-0.5-1.1-1.1v-1.4c0-0.6,0.5-1.1,1.1-1.1h1.4c0.6,0,1.1,0.5,1.1,1.1v1.4
	C38.9,14.8,38.4,15.3,37.8,15.3z"/>
<path class="st4" d="M28.2,17.5h-1.4c-0.6,0-1.1-0.5-1.1-1.1V15c0-0.6,0.5-1.1,1.1-1.1h1.4c0.6,0,1.1,0.5,1.1,1.1v1.4
	C29.3,17,28.8,17.5,28.2,17.5z"/>
<path class="st4" d="M24,22.4h-1.4c-0.6,0-1.1-0.5-1.1-1.1v-1.4c0-0.6,0.5-1.1,1.1-1.1H24c0.6,0,1.1,0.5,1.1,1.1v1.4
	C25.1,21.9,24.6,22.4,24,22.4z"/>
<path class="st4" d="M15,28.3h-1.4c-0.6,0-1.1-0.5-1.1-1.1v-1.4c0-0.6,0.5-1.1,1.1-1.1H15c0.6,0,1.1,0.5,1.1,1.1v1.4
	C16,27.8,15.6,28.3,15,28.3z"/>
<path class="st4" d="M20.8,35.5h-1.4c-0.6,0-1.1-0.5-1.1-1.1V33c0-0.6,0.5-1.1,1.1-1.1h1.4c0.6,0,1.1,0.5,1.1,1.1v1.4
	C21.9,35,21.4,35.5,20.8,35.5z"/>
<path class="st4" d="M21,44.7h-1.4c-0.6,0-1.1-0.5-1.1-1.1v-1.4c0-0.6,0.5-1.1,1.1-1.1H21c0.6,0,1.1,0.5,1.1,1.1v1.4
	C22.1,44.2,21.6,44.7,21,44.7z"/>
<path class="st4" d="M24.1,28.3h-1.4c-0.6,0-1.1-0.5-1.1-1.1v-1.4c0-0.6,0.5-1.1,1.1-1.1h1.4c0.6,0,1.1,0.5,1.1,1.1v1.4
	C25.2,27.9,24.7,28.3,24.1,28.3z"/>
</svg>
