<?xml version="1.0" encoding="utf-8"?>
<!-- Generator: Adobe Illustrator 27.3.1, SVG Export Plug-In . SVG Version: 6.00 Build 0)  -->
<svg version="1.1" id="Camada_3" xmlns="http://www.w3.org/2000/svg" xmlns:xlink="http://www.w3.org/1999/xlink" x="0px" y="0px"
	 viewBox="0 0 50 50" style="enable-background:new 0 0 50 50;" xml:space="preserve">
<style type="text/css">
	.st0{fill:#FDCE74;}
	.st1{fill:#FBC14F;}
	.st2{fill:none;stroke:#444444;stroke-linecap:round;stroke-linejoin:round;stroke-miterlimit:7.5294;}
	.st3{fill:none;stroke:#444444;stroke-linejoin:round;stroke-miterlimit:7.5294;}
	.st4{fill:none;stroke:#444444;stroke-width:0.25;stroke-linecap:round;stroke-linejoin:round;stroke-miterlimit:7.5294;}
	.st5{fill:none;stroke:#444444;stroke-width:0.5;stroke-linejoin:round;stroke-miterlimit:7.5294;}
	.st6{fill:#444444;}
	.st7{fill:none;stroke:#444444;stroke-width:2.5;stroke-linecap:round;stroke-linejoin:round;stroke-miterlimit:10;}
	.st8{fill:none;stroke:#444444;stroke-linecap:round;stroke-linejoin:round;stroke-miterlimit:10;}
	.st9{fill:none;stroke:#444444;stroke-width:0.75;stroke-linecap:round;stroke-linejoin:round;stroke-miterlimit:10;}
</style>
<g>
	<g>
		<polygon class="st0" points="36.9,6.4 26.7,2.1 5.6,12.1 6.2,10.8 6.2,19.1 6.7,20.3 39.4,8.7 		"/>
		<path class="st1" d="M12.5,22.7l-5,3.7l0,4.2l-1.2,7.6l12.5,6.1l27.6-9.8l-0.3-4.5c1.1-0.4-7.9-4.4-8.7-5.3l3-3l5.7-2.8l-1-7.5
			l-5.6-2.8l-32,11.4L12.5,22.7z"/>
	</g>
	<g>
		<path id="path2_00000040552632010338899340000004953459246967231394_" class="st2" d="M44.7,31.5L44.7,31.5"/>
		<path id="path2_00000179609378885263281470000008063132837652184450_" class="st2" d="M38.2,41.2"/>
		<path id="path2_00000115506135529892598590000003648835090929837731_" class="st2" d="M7.5,31.8L7.5,31.8L7.5,31.8L7.5,31.8
			L7.5,31.8l0,6.2l6.6,3.4"/>
		<polyline id="polygon4_00000098927819174986856570000007857034322774684072_" class="st2" points="38.2,41.2 26.2,47.5 14.1,41.3 
					"/>
		<polyline id="polygon6_00000124867591641666370760000002113498090404472232_" class="st3" points="44.7,31.5 26.1,41.4 7.5,31.8 
			8.6,31.2 		"/>
	</g>
	<g>
		<path id="path2_00000108268156422903578880000009309716223392517020_" class="st2" d="M38.2,21.9l6.5-3.5l0-6.2l0,0L26,2.7
			L7.6,12.5l0,0l0,0l0,0l0,0l0,6.2l6.6,3.4"/>
		<polyline id="polygon4_00000079462159775642902670000018344687523315838908_" class="st2" points="38.2,21.9 26.2,28.2 14.1,22 		
			"/>
		<polygon id="polygon6_00000152963173077019299820000015034614361491353730_" class="st2" points="26,2.7 44.7,12.2 26.2,22.1 
			7.5,12.5 		"/>
	</g>
	<polyline class="st4" points="39.6,29.5 39.6,26.4 23.3,35.1 23.3,39.5 	"/>
	<polyline class="st4" points="42.3,32.5 42.3,28 26.1,36.7 26.1,41.1 	"/>
	<polyline class="st4" points="36.8,27.9 36.8,24.7 20.5,33.4 20.5,38.5 	"/>
	<polyline class="st4" points="25.2,27.7 17.3,32 17.3,36.4 	"/>
	<line class="st4" x1="33.6" y1="26.4" x2="33.6" y2="24.3"/>
	<polyline class="st4" points="22.2,26.2 14.8,30.2 14.8,35.5 	"/>
	<polyline class="st4" points="19,24.7 12,28.4 12,34.1 	"/>
	<polyline class="st4" points="16.2,23.1 8.8,27 8.8,32.4 	"/>
	<line class="st5" x1="8.2" y1="30.9" x2="8.8" y2="30.6"/>
	<path class="st6" d="M42.2,29.4"/>
	<polyline class="st6" points="33.4,26.5 33.3,26.4 32.2,25.9 31.7,25.6 32.6,24.5 33.8,25.1 34.8,25.6 35,25.7 	"/>
	<polygon class="st6" points="36.5,28.1 38,27.2 37.8,27.1 36.9,26.7 36.9,27.7 	"/>
	<polyline class="st6" points="39.6,28 39.8,28.1 40.8,28.6 41,28.7 39.5,29.6 39.6,29.4 	"/>
	<polyline class="st6" points="42.4,29.5 45,30.8 44.3,32.1 42.5,31.2 	"/>
	<polyline class="st7" points="38.2,41.9 26.2,48.4 6.2,38.2 6.3,31.7 7.5,30.9 7.5,26.4 13.8,22.9 6.5,19.3 6.4,11.7 25.9,1.4 
		45.9,11.3 45.9,19 37.3,23.7 	"/>
	<line class="st7" x1="45.9" y1="35.2" x2="45.9" y2="30.1"/>
	<line class="st8" x1="13.6" y1="23.2" x2="15" y2="23.2"/>
	<polyline class="st8" points="36,23.4 35,23.7 36.2,24.5 35.2,25.1 35.6,24.8 34.4,24.3 33.5,25.3 34.9,25.2 36.6,24.3 	"/>
	<path class="st9" d="M38.3,26.2L37.7,26l-0.2-0.6l1.8,0.8L38,27l-0.8-0.2l0.6-0.1L37.1,26l0.2-1.2l8.9,4.3c0,0,0.7,0.3,0.6,1"/>
	<polyline class="st9" points="39.9,28.1 39.9,26.8 39.8,26.3 41.2,27.3 40.5,27.5 40.3,27.2 40.3,28.3 40.7,28.5 42.2,27.8 
		41.6,27.4 40.8,28 42.5,27.4 42.7,28.1 42.7,29.7 43.4,30 43.4,28.2 44.2,28.5 44,30.3 44.7,30.8 44.8,28.8 45.5,29.3 45.2,31.6 	
		"/>
</g>
</svg>
