<svg xmlns="http://www.w3.org/2000/svg" id="Layer_1" x="0" y="0" version="1.1" viewBox="0 0 50 50" xml:space="preserve"><style>.st2,.st4{fill:none;stroke-linecap:round;stroke-linejoin:round;stroke-miterlimit:10}.st2{stroke-width:.5;stroke:#444}.st4{stroke:#414141}</style><path fill="#ff6b6b" d="M27 2.8l-3.4-.5c-1.4 0-19.7 17.6-19.7 19l-.6 4.9v9.7l.1 9.1c0 1.6 1.3 2.9 2.9 3l9.5.5 30.6-10.9c.9-.3 1.5-1.2 1.5-2.2l-.6-12.9-7-7.1-7.1-7.2c.1-1.3-4.8-5.4-6.2-5.4z"/><path fill="none" stroke="#444" stroke-linecap="round" stroke-linejoin="round" stroke-miterlimit="10" stroke-width="2.5" d="M47 38.7V23.5c0-1-.4-2-1.2-2.8L27.9 3c-1.5-1.5-4-1.5-5.6 0L4.8 21c-.7.7-1.1 1.7-1.1 2.7v21.7c0 1.9 1.4 3.4 3.2 3.4h25.6"/><path d="M6.9 25L25 6.3 43.8 25" class="st2"/><path d="M40.2 21.4v17.7H10.6V21.4" class="st2"/><path fill="none" stroke="#444" stroke-linecap="round" stroke-linejoin="round" stroke-miterlimit="10" d="M23.1 41h4.4v4.4h-4.4z"/><path d="M25.3 40.8v-4.1l-7-2.4m9.4 8.9h13.2m-31.1 0H23" class="st2"/><circle cx="16.2" cy="32.4" r="2.7" class="st4"/><circle cx="22" cy="22" r="2.7" class="st4"/><circle cx="29.3" cy="31.7" r="2.7" class="st4"/><circle cx="34.2" cy="23.8" r="2.7" class="st4"/><path d="M17.3 29.5l2.9-5.3m4.5-1.6c6.9 1.4 6.8 1.2 6.8 1.2" class="st4"/></svg>