<?xml version="1.0" encoding="utf-8"?>
<!-- Generator: Adobe Illustrator 27.5.0, SVG Export Plug-In . SVG Version: 6.00 Build 0)  -->
<svg version="1.1" id="Camada_3" xmlns="http://www.w3.org/2000/svg" xmlns:xlink="http://www.w3.org/1999/xlink" x="0px" y="0px"
	 viewBox="0 0 50 50" style="enable-background:new 0 0 50 50;" xml:space="preserve">
<style type="text/css">
	.st0{fill:#F799FF;}
	.st1{fill:#E589EF;}
	.st2{fill:none;stroke:#444444;stroke-linecap:round;stroke-linejoin:round;stroke-miterlimit:10;}
	.st3{fill:none;stroke:#444444;stroke-linecap:square;stroke-linejoin:round;stroke-miterlimit:10;}
	.st4{fill:none;stroke:#444444;stroke-linejoin:round;stroke-miterlimit:10;}
	.st5{fill:none;stroke:#444444;stroke-width:0.5;stroke-linecap:round;stroke-linejoin:round;stroke-miterlimit:10;}
	.st6{fill:#444444;}
	.st7{fill:none;stroke:#444444;stroke-width:2.5;stroke-linecap:round;stroke-linejoin:round;stroke-miterlimit:10;}
</style>
<g>
	<g>
		<g>
			<path class="st0" d="M36.54,7.43l-9.48,3.44c-0.35,0.19-1.99,2.36-2.21,2.04c-1.98-2.96-12.8-11.32-14.64-7.56
				c-1.62,3.31-4.96,6.39-4.95,7.51c0,0.1-3.17,0.17-3.21,0.27l0.18,9.17c-0.26,0.61-0.62,1.68,0,1.46L41.12,9.9l0,0
				c0-1.09-2.87-2.42-4.17-2.57C36.81,7.32,36.67,7.36,36.54,7.43z"/>
			<path class="st1" d="M2.23,23.74L1.64,40.7l9.3,1.42l8.55,0.97l28.22-10.04c0.61-0.22,1.01-18.12,0.8-18.74l-7.4-4.41L2.23,23.74
				z"/>
		</g>
	</g>
	<line class="st2" x1="4.27" y1="13.5" x2="6.25" y2="13.5"/>
	<g>
		<g>
			<path class="st2" d="M48.23,32.45l-0.05-3.12l0.22-4.79l-0.63-9.03c0-1.09-0.84-2-1.94-2h0h-1.98"/>
			<path class="st2" d="M4.27,13.5L4.27,13.5c-1.09,0-1.98,0.89-1.98,1.98v23.75c0,1.09,0.89,1.98,1.98,1.98H18.3
				c0.53,0,1.03,0.21,1.4,0.58l0.81,0.82c0.37,0.37,0.88,0.58,1.4,0.58h6.28c0.53,0,1.03-0.21,1.4-0.58l0.82-0.82
				c0.37-0.37,0.88-0.58,1.4-0.58h10.07"/>
			<path class="st3" d="M25.05,16.47c0-3.22,1.84-5.94,5.65-5.94h2.83"/>
			<path class="st2" d="M43.86,35.67c0,1.09-0.89,1.58-1.98,1.58H30.99c-1.92,0-5.2,0.54-5.94,1.98"/>
			<path class="st4" d="M39.9,10.53h1.57c1.32,0,2.38,1.07,2.38,2.38v14.44"/>
			<path class="st2" d="M8.23,10.53L8.23,10.53c-1.09,0-1.98,0.89-1.98,1.98v22.76c0,1.09,0.89,1.98,1.98,1.98h10.89
				c1.92,0,5.2,0.54,5.94,1.98"/>
			<path class="st2" d="M25.05,27.83V16.47c0-3.22-1.36-6.46-4.51-7.54l-8.41-3.48c-0.92-0.38-1.93,0.29-1.93,1.29v23.31
				c0,0.8,0.48,1.52,1.22,1.83l9.11,3.77c1.73,0.68,4.14,1.91,4.51,3.58v-3.9"/>
			<polygon class="st5" points="39.9,16.47 36.93,15.15 33.96,16.47 33.96,8.55 39.9,8.55 			"/>
		</g>
		<path class="st2" d="M25.05,39.23"/>
		<g>
			<circle class="st6" cx="18.01" cy="24.05" r="3.03"/>
			<circle class="st6" cx="26.74" cy="31.56" r="3.03"/>
			<circle class="st6" cx="33.54" cy="21.87" r="3.03"/>
			<circle class="st6" cx="43.72" cy="31.56" r="3.03"/>
			<polyline class="st5" points="10.5,31.03 17.64,23.92 26.74,31.56 33.54,21.87 43.72,31.56 47.45,27.75 			"/>
		</g>
		<line class="st2" x1="8.23" y1="10.53" x2="10.21" y2="10.53"/>
	</g>
	<path class="st7" d="M41.23,41.7l-9.64-0.07l-1.52,1.76c-0.71,0.51-1.56,0.79-2.43,0.78l-5.46-0.04c-1.08-0.01-2.11-0.45-2.87-1.22
		l-0.66-0.67L3.86,42.01c-1.38-0.02-2.49-1.15-2.49-2.53L1.38,15.1c0.03-1.35,1.09-2.45,2.44-2.52l1.43-0.07v-0.18
		c0-1.55,1.23-2.82,2.79-2.86l1.17-0.03V6.51c0-1.53,1.53-2.59,2.96-2.06l8.67,3.23c1.77,0.91,3.25,2.29,4.27,4l0.19,0.83
		l-0.06-0.62c1.57-1.33,3.5-2.17,5.54-2.43l1.78-0.23l0.25,0.23c0-1.03,0.59-2.13,1.62-2.13h4.8c1.03,0,1.87,0.84,1.87,1.87v0
		l0.55,0c1.82,0.02,3.28,1.49,3.28,3.31v0h1.04c1.66,0,2.62,1.42,2.59,3.08l0.06,16.85"/>
</g>
</svg>
