<svg xmlns="http://www.w3.org/2000/svg" fill="none" viewBox="0 0 131 131"><g fill="#F9AF17" clip-path="url(#a)"><path d="M45.588 46.898H68.12v5.24H45.588v-5.24zm0 11.79H60.26v5.24H45.588v-5.24zm0 12.052H60.26v5.24H45.588v-5.24z"/><path d="M97.464 66.81c0-7.074-5.24-13.1-12.052-14.41V33.536H33.798v55.806h33.274v-5.24H39.038V38.776h41.134V52.4C73.36 53.71 68.12 59.474 68.12 66.81c0 3.93 1.572 7.336 3.93 9.956v20.698l10.48-5.24 10.48 5.24V76.766c2.882-2.62 4.454-6.288 4.454-9.956zm-14.672-9.432a9.393 9.393 0 019.432 9.432 9.393 9.393 0 01-9.432 9.432 9.393 9.393 0 01-9.432-9.432c.262-5.24 4.454-9.432 9.432-9.432zm0 29.082l-5.24 2.62v-8.908c1.572.786 3.406 1.048 5.24 1.048s3.668-.262 5.24-1.048v8.908l-5.24-2.62z"/></g><path fill="#F9AF17" d="M131 65.5c0 36.175-29.325 65.5-65.5 65.5S0 101.675 0 65.5 29.325 0 65.5 0 131 29.325 131 65.5zm-123.222 0c0 31.88 25.843 57.722 57.722 57.722 31.88 0 57.722-25.843 57.722-57.722 0-31.88-25.843-57.722-57.722-57.722C33.62 7.778 7.778 33.62 7.778 65.5z"/><defs><clipPath id="a"><path fill="#fff" d="M0 0h65.5v65.5H0z" transform="translate(32.75 32.75)"/></clipPath></defs></svg>