<?xml version="1.0" encoding="utf-8"?>
<!-- Generator: Adobe Illustrator 28.0.0, SVG Export Plug-In . SVG Version: 6.00 Build 0)  -->
<svg version="1.1" id="Layer_1" xmlns="http://www.w3.org/2000/svg" xmlns:xlink="http://www.w3.org/1999/xlink" x="0px" y="0px"
	 viewBox="0 0 50 50" style="enable-background:new 0 0 50 50;" xml:space="preserve">
<style type="text/css">
	.st0{fill:#D1BD00;}
	.st1{fill:#F9F941;}
	.st2{fill:none;stroke:#444444;stroke-width:2.5;stroke-linecap:round;stroke-linejoin:round;stroke-miterlimit:10;}
	.st3{fill:none;stroke:#444444;stroke-linecap:round;stroke-linejoin:round;stroke-miterlimit:10;}
	.st4{fill:none;stroke:#444444;stroke-miterlimit:10;}
	.st5{fill:#444444;}
	.st6{fill:none;stroke:#444444;stroke-width:0.5;stroke-linecap:round;stroke-linejoin:round;stroke-miterlimit:10;}
</style>
<polygon class="st0" points="31.2,21.2 39,23.7 32.3,28.4 32.4,36.6 25.8,31.7 18.1,34.3 20.7,26.6 15.8,20 24,20.1 28.7,13.4 "/>
<path class="st1" d="M48,20c-0.2-0.8-2.7-7.5-3.2-8.1l-3-3.5l-0.2,0.1L34,2.7l-7.8-0.7C23,2.1,11.7,2.3,4.8,12.3L0.9,22.9l-0.2,0.1
	l4,13.4c0.1,0.4,4.5,5.7,4.9,5.9l5.6,3l32.2-11.7C47.9,33.1,49,24.8,48,20z"/>
<g>
	<g>
		<g>
			<path class="st2" d="M32.3,47.3c-7,2.3-15,1.2-21.3-3.6C0.7,36-1.4,21.3,6.4,10.9"/>
			<path class="st2" d="M6.2,11.1c2-3,4.7-4.7,4.7-4.7l0.7-0.5C19.7,0.1,30.9,0,39.2,6.3c10.4,7.8,12.4,22.5,4.7,32.8"/>
		</g>
	</g>
</g>
<g>
	<g>
		<polyline class="st3" points="11.8,12.2 16.4,12.2 23.7,32.7 		"/>
		<polyline class="st3" points="4,32.7 9.1,32.7 19.2,19.9 2.2,19.9 9.1,32.7 		"/>
		<circle class="st4" cx="23.7" cy="32.7" r="8.3"/>
	</g>
	<circle class="st5" cx="23.7" cy="32.7" r="1.8"/>
</g>
<g>
	<line class="st6" x1="33.1" y1="22.9" x2="31.1" y2="25.1"/>
	<polyline class="st6" points="36.3,18.5 32.3,18.5 28.5,22.7 	"/>
	<circle class="st6" cx="37.4" cy="18.5" r="1.1"/>
	<circle class="st6" cx="33.9" cy="22.1" r="1.1"/>
	<polyline class="st6" points="41,23.3 37,23.3 33.1,27.5 	"/>
	<circle class="st6" cx="42" cy="23.3" r="1.1"/>
</g>
<g>
	<polyline class="st6" points="34,30.2 35.6,30.2 38.3,33.1 40.9,33.1 	"/>
	<polyline class="st6" points="34,33.5 35.3,33.5 37.4,35.8 	"/>
	<circle class="st6" cx="42" cy="33.1" r="0.9"/>
	<circle class="st6" cx="38.3" cy="36.5" r="0.9"/>
</g>
</svg>
