<svg xmlns="http://www.w3.org/2000/svg" id="Layer_1" data-name="Layer 1" version="1.1" viewBox="0 0 50 50"><defs><style>.cls-1{stroke-width:.5px}.cls-1,.cls-2{fill:none;stroke:#444;stroke-linecap:round;stroke-linejoin:round}</style></defs><path fill="#35d3c3" stroke-width="0" d="M30.3 21.4l7.7 2.4-6.5 4.6.1 8.1-6.5-4.8-7.6 2.5 2.6-7.6-4.9-6.4 8.1.1 4.6-6.6 2.4 7.7z"/><path fill="#7df4eb" stroke-width="0" d="M14.1 48.4H8.5c-1.9 0-3.4-1.5-3.4-3.4l.8-19.2-.5-.3c-1.6-.9-1.7-3.3-.1-4.3s-1.4-1.5-1.4-1.5c-1.1-1.1-1-2.9.1-4l3-2.6c1.2-1.7 2.6-2.8 4.6-2.8h3.3c0-4.9 4.4-8.9 9.8-8.9s9.8 4 9.8 8.9h2.6c3.1 0 5.6 2.4 5.7 5.5l1.1 21.8"/><g id="shopping_online_click_and_collect" data-name="shopping online/click and collect"><path d="M8.9 24.4l-.8 18.5c0 1.5 1.2 2.6 2.6 2.6h28.2c1.4 0 2.5-1.1 2.4-2.5l-1.2-26c-.1-2.2-1.9-3.9-4.1-3.9H13.4c-2.2 0-4 1.7-4.1 4" class="cls-2"/><circle cx="17.4" cy="17.8" r=".7" class="cls-2"/><circle cx="31.9" cy="17.8" r=".7" class="cls-2"/><path d="M15.8 26.8l-2.1-9.9-2.2 2.9-3.7-3.9-2 1.8 3.7 3.9-2.9 1.6 9.2 3.6z" class="cls-2"/></g><path d="M15.2 32.1c0-2.3 3.1-4.1 6.9-4.1s6.9 1.8 6.9 4.1-3.1 4.1-6.9 4.1-1.6 0-2.1-.1m-2 .9h2" class="cls-2"/><path d="M29 37.3c0 2.3-3.1 4.1-6.9 4.1s-1.4 0-2.1-.2V36l2.4-4h-7.2v2.4M29.1 32l-.1 5.3" class="cls-2"/><path d="M15.2 43.6s-3.8-.3-4.7-3.7v-5.3h7v5.3l-2.4 3.6z" class="cls-1"/><path d="M10.5 34.7s.7 3 4.7 4l2.3-4m-2.3 8.9v-4.9m8.7-8.6l7.4-7.2h6.6m0 2.8h-6.4m6.4 2.7h-6.4" class="cls-1"/><path d="M17.3 17.2v-5.3c0-4 3.3-7.3 7.3-7.3s7.3 3.3 7.3 7.3v5.3" class="cls-2"/><path fill="none" stroke="#444" stroke-linecap="round" stroke-linejoin="round" stroke-width="2.5" d="M33.9 48.5H8.5c-1.9 0-3.4-1.6-3.4-3.5l.8-19.2-.5-.3c-1.6-.9-1.7-3.3-.1-4.3h0l-1.4-1.5c-1.1-1.1-1-2.9.1-4l3-2.6h0c1.2-1.7 2.6-2.8 4.6-2.8h3.3c0-4.9 4.4-8.9 9.8-8.9s9.8 4 9.8 8.9h2.6c3.1 0 5.6 2.4 5.7 5.5L43.9 38"/></svg>