<?xml version="1.0" encoding="utf-8"?>
<!-- Generator: Adobe Illustrator 26.5.0, SVG Export Plug-In . SVG Version: 6.00 Build 0)  -->
<svg version="1.1" id="Camada_3" xmlns="http://www.w3.org/2000/svg" xmlns:xlink="http://www.w3.org/1999/xlink" x="0px" y="0px"
	 viewBox="0 0 50 50" style="enable-background:new 0 0 50 50;" xml:space="preserve">
<style type="text/css">
	.st0{fill:#FF6B6B;}
	.st1{fill:#E56060;}
	.st2{fill:none;stroke:#444444;stroke-linecap:round;stroke-linejoin:round;stroke-miterlimit:10;}
	.st3{fill:none;stroke:#444444;stroke-width:2.5;stroke-linecap:round;stroke-linejoin:round;stroke-miterlimit:10;}
</style>
<g>
	<g>
	</g>
</g>
<g>
	<g>
		<polygon class="st0" points="35.07,6.82 24.92,2.52 1.4,13.66 1.4,22.01 37.57,9.14 		"/>
		<path class="st1" d="M2.28,21.69L7.15,25l-5.04,4.26l0.18,6.87l14.61,8.66l29.65-10.55c1.09-0.39,0.51-4.69-0.25-5.56l-6.18-3.41
			l6.58-4.27l-0.11-7.35l-9.01-4.53L2.28,21.69z"/>
	</g>
	<g id="g50" transform="matrix(0.75294118,0,0,0.75294118,1.0541175,18.823529)">
		<path id="path2_00000112632851855361595310000014725478931883830184_" class="st2" d="M58.42,13.1L58.42,13.1l-9.7-4.95l9.7-5.08
			v-9.1l0,0l0,0V-6.1l-0.07,0.07L30.92-20.22L3.49-6.1H3.43v9.17l9.7,5.08l-9.7,4.95"/>
		<path id="path2_00000145024438423019065950000009481182377421984413_" class="st2" d="M3.43,13.1v9.17"/>
		<polygon id="polygon4" class="st2" points="3.43,13.1 30.92,27.49 58.42,13.1 48.72,8.15 30.92,17.45 13.13,8.15 		"/>
		<polygon id="polygon6" class="st2" points="58.42,-6.03 30.92,8.35 3.43,-6.03 30.92,-20.22 		"/>
	</g>
	<polyline class="st3" points="34.02,43.03 24.34,48.1 2.28,36.13 2.28,28.17 8.6,24.96 2.28,21.69 2.28,13.16 24.34,1.9 
		46.54,13.21 46.54,21.33 39.55,25.03 46.54,28.1 46.54,36.18 43.14,38.03 	"/>
</g>
</svg>
