<svg xmlns="http://www.w3.org/2000/svg" id="Layer_1" x="0" y="0" version="1.1" viewBox="0 0 50 50" xml:space="preserve"><style>.st2{fill:#494949}</style><path fill="#a6c1c2" d="M47 21.5l1.2-1.2c.1-.1.2-.2.1-.3-.1-.1-.2-.1-.3 0-.1 0-.1.1-.2.1-.4.3-.8.5-1.2.8-.4.1-.8.3-1.2.5-1.1.4-2.3.8-3.5.8-1 0-1.8-.4-2.4-1.1l-6.9 2.5c-.5 1.4-1.1 2.7-1.8 4-.7 1.3-1.4 2.5-2.5 3.5-1.9 1.8-4.8 1.8-6.8 0-.8-.8-1.5-1.7-2.1-2.7l-7.3 2.7 2.2 2.2c1.7 1.7 3.3 3.3 5.1 4.9L37 31.9c3.4-3.5 6.7-6.9 10-10.4z"/><path fill="#b9d7d9" d="M19.3 27.9c-1.1-2.1-1.9-4.3-2.8-6.5-.8-2-1.5-4.1-2.2-6.1-.2-.5-.4-.9-.7-1.3-.1-.1-.2-.3-.4-.2-.2 0-.3.2-.3.4s-.1.3-.1.5c0 1.3.1 2.5.1 3.8 0 .6-.1 1.3-.3 1.9-.5 1.5-1.7 2.4-3.4 2.5-1.2.1-2.4-.2-3.5-.7-1-.4-1.9-1-2.9-1.5-.2-.2-.5-.5-.8-.7-.1-.1-.2-.1-.3 0-.1.1 0 .2.1.3l.1.1c3.4 3.6 6.9 7.2 10.4 10.7l7.3-2.7c-.1-.2-.2-.3-.3-.5zm19.3-10.4c0-1.4.1-2.7.2-4.1l.3-3.3V8.9c0-.2 0-.3-.2-.4-.2-.1-.4 0-.5.1l-.3.3c-.4.6-.6 1.2-.9 1.9-.5 1.4-1 2.8-1.5 4.3l-2.1 6-.9 2.4 6.9-2.5c-.2-.2-.3-.5-.5-.8-.4-.8-.5-1.7-.5-2.7z"/><path d="M28.7 39.4c-.1 0-.1 0-.2-.1s-.1-.3 0-.4c.3-.3.7-.6 1-.9.1-.1.3-.1.4 0 .1.1.1.3 0 .4-.3.3-.7.6-1 .9-.1.1-.1.1-.2.1z" class="st2"/><path d="M25 41.7c-.3 0-.5-.1-.8-.2-1-.5-1.9-1.2-2.7-1.9-2.5-2.1-4.8-4.3-7.2-6.7C9.9 28.6 5.5 24 1.7 20l-.1-.1c-.2-.2-.2-.4-.1-.6.1-.1.3-.3.6 0l.9.6c.2.2.5.4.7.6.2.1.3.2.5.3.7.6 1.5 1.1 2.2 1.7.5.3.9.7 1.4 1 2.8 2.2 5.3 4 7.7 5.7 1.6 1.1 3.5 2.4 5.5 3.5 1 .5 2.1 1.1 3.4 1.2.7.1 1.3 0 2.1-.2s1.7-.6 2.8-1.2c2.1-1.1 4-2.5 5.9-3.9l.7-.5c1.3-1 2.6-1.9 3.9-2.9l1-.8c1.6-1.2 3.3-2.5 4.9-3.7l.2-.1c.2-.1.3-.2.4-.4l.1-.1.2-.2.9-.6.2-.2c.3-.2.5 0 .6 0 .1.1.2.3-.1.6L47 20.9l-1 1-9.4 9.7-.5.5c-.1.1-.3.1-.4 0-.1-.1-.1-.3 0-.4l.5-.5c3.2-3.2 6.4-6.5 9.4-9.7l1-1 .5-.5c-.1.1-.2.2-.3.2l-.2.1c-.2.2-.3.3-.5.4l-.2.1c-1.6 1.2-3.3 2.5-4.9 3.7l-1 .8c-1.3 1-2.6 2-3.9 2.9l-.6.5c-1.9 1.4-3.8 2.8-6 3.9-.8.4-1.8.9-2.9 1.2-.8.2-1.6.3-2.3.2-1.4-.2-2.6-.8-3.6-1.3-2.1-1.1-4-2.4-5.6-3.5-2.4-1.7-5-3.6-7.8-5.7-.5-.3-.9-.7-1.4-1-.7-.6-1.5-1.1-2.2-1.7-.1-.1-.3-.2-.4-.3-.3-.2-.5-.4-.8-.6 3.7 3.9 7.8 8.2 12 12.3 2.4 2.3 4.7 4.6 7.1 6.7.8.7 1.7 1.4 2.6 1.9.4.2.7.2 1.1 0 1.1-.5 2-1.3 3-2.1.1-.1.3-.1.4 0 .1.1.1.3 0 .4-1 .9-2 1.6-3.1 2.2-.1.4-.3.4-.6.4z" class="st2"/><path d="M22.2 28c0-1.5 1.2-2.7 2.8-2.7 1.5 0 2.8 1.2 2.8 2.7 0 1.5-1.3 2.7-2.8 2.7-1.5 0-2.8-1.2-2.8-2.7z" class="st2"/><path d="M25 43c-.4 0-.8-.1-1.2-.3-1.1-.6-2.1-1.3-2.9-2-2.5-2.1-4.8-4.4-7.2-6.7C9.2 29.6 4.8 25 1 21c-.1-.1-.1-.1-.1-.2-.6-.7-.4-1.4 0-1.9s1.2-.7 2-.2l1.1.7c.8.5 1.6.9 2.4 1.2 1.2.5 2.1.6 3 .6 1.1-.1 1.9-.6 2.3-1.7.1-.4.2-.9.2-1.5s0-1.2-.1-1.8c0-.7-.1-1.3-.1-2 0-.3 0-.6.1-.8.3-1 1-1.2 1.3-1.3.4-.1 1-.1 1.6.7.4.5.7 1.1.9 1.7.3.9.7 1.8 1 2.8.4 1.1.8 2.3 1.2 3.4.8 2.2 1.6 4.3 2.7 6.3.7 1.3 1.3 2.2 2.1 2.9 1.4 1.3 3.6 1.4 5.1 0 .8-.8 1.5-1.7 2.3-3.1 1.1-2.1 1.9-4.3 2.6-6.3.5-1.4 1-2.7 1.4-4.1l1.1-3.1c.4-1 .7-2.1 1.1-3.1.3-.7.5-1.4 1-2.1.1-.2.3-.4.4-.5.5-.5 1.1-.7 1.7-.5.5.2 1.1.7 1.1 1.6V10c0 .5-.1 1.1-.1 1.6-.1.6-.1 1.1-.2 1.7-.1 1.3-.2 2.6-.2 4 0 1 .1 1.7.4 2.3.3.8.9 1.1 1.7 1.2 1 0 2-.3 3-.7.1 0 .2-.1.4-.2s.5-.2.8-.3h.1c.3-.2.6-.4.8-.6.1-.1.2-.2.3-.2.8-.5 1.5-.2 1.9.3.4.5.5 1.2-.1 1.9L47 23.1c-3.1 3.2-6.3 6.5-9.5 9.7l-.9.9c-.5.5-1.3.5-1.8 0s-.5-1.3 0-1.8l.9-.9c2.6-2.6 5.2-5.3 7.8-8-.5.1-1 .2-1.6.1-1.9 0-3.3-1-4-2.7-.5-1.2-.6-2.3-.6-3.2 0-1.2 0-2.4.1-3.6 0 .1-.1.3-.1.4l-1.1 3.2c-.5 1.4-1 2.7-1.4 4.1-.7 2-1.6 4.4-2.8 6.6-.6 1.1-1.4 2.6-2.8 3.8-2.4 2.2-6.1 2.2-8.5 0-1-.9-1.8-2.1-2.6-3.6-1.1-2.1-2-4.3-2.8-6.6-.4-1.1-.8-2.2-1.2-3.2 0 .8-.1 1.5-.4 2.1-.7 2-2.3 3.2-4.5 3.4-.8 0-1.6 0-2.4-.2 2.7 2.8 5.6 5.8 8.4 8.6 2.4 2.4 4.7 4.6 7.1 6.6.8.6 1.6 1.3 2.5 1.7.1 0 .1.1.2 0 1-.5 1.8-1.2 2.8-2 .6-.5 1.1-1 1.7-1.5.5-.5 1.3-.4 1.8.1s.4 1.3-.1 1.8c-.6.5-1.2 1-1.7 1.5-.9.8-2 1.7-3.3 2.3-.4.2-.8.3-1.2.3z" class="st2"/></svg>