<?xml version="1.0" encoding="utf-8"?>
<!-- Generator: Adobe Illustrator 22.1.0, SVG Export Plug-In . SVG Version: 6.00 Build 0)  -->
<svg version="1.1" id="Layer_1" xmlns="http://www.w3.org/2000/svg" xmlns:xlink="http://www.w3.org/1999/xlink" x="0px" y="0px"
	 viewBox="0 0 50 50" style="enable-background:new 0 0 50 50;" xml:space="preserve">
<style type="text/css">
	.st0{fill:#FCC34F;}
	.st1{fill:#FDCF72;}
	.st2{fill:#494949;}
</style>
<g>
	<g>
		<path class="st0" d="M47,21.5c0.4-0.4,0.8-0.8,1.2-1.2c0.1-0.1,0.2-0.2,0.1-0.3c-0.1-0.1-0.2-0.1-0.3,0c-0.1,0-0.1,0.1-0.2,0.1
			c-0.4,0.3-0.8,0.5-1.2,0.8c-0.4,0.1-0.8,0.3-1.2,0.5c-1.1,0.4-2.3,0.8-3.5,0.8c-1,0-1.8-0.4-2.4-1.1l-6.9,2.5
			c-0.5,1.4-1.1,2.7-1.8,4c-0.7,1.3-1.4,2.5-2.5,3.5c-1.9,1.8-4.8,1.8-6.8,0c-0.8-0.8-1.5-1.7-2.1-2.7l-7.3,2.7
			c0.7,0.7,1.5,1.5,2.2,2.3c1.7,1.7,3.3,3.3,5.1,4.9L37,31.9C40.4,28.4,43.7,25,47,21.5z"/>
	</g>
	<g>
		<path class="st1" d="M19.3,27.9c-1.1-2.1-1.9-4.3-2.8-6.5c-0.8-2-1.5-4.1-2.2-6.1c-0.2-0.5-0.4-0.9-0.7-1.3
			c-0.1-0.1-0.2-0.3-0.4-0.2c-0.2,0-0.3,0.2-0.3,0.4c0,0.2-0.1,0.3-0.1,0.5c0,1.3,0.1,2.5,0.1,3.8c0,0.6-0.1,1.3-0.3,1.9
			c-0.5,1.5-1.7,2.4-3.4,2.5c-1.2,0.1-2.4-0.2-3.5-0.7c-1-0.4-1.9-1-2.9-1.5C2.6,20.5,2.3,20.2,2,20c-0.1-0.1-0.2-0.1-0.3,0
			c-0.1,0.1,0,0.2,0.1,0.3c0,0,0.1,0.1,0.1,0.1c3.4,3.6,6.9,7.2,10.4,10.7l7.3-2.7C19.5,28.2,19.4,28.1,19.3,27.9z"/>
	</g>
	<g>
		<path class="st1" d="M38.6,17.5c0-1.4,0.1-2.7,0.2-4.1c0.1-1.1,0.2-2.2,0.3-3.3c0-0.4,0-0.8,0-1.2c0-0.2,0-0.3-0.2-0.4
			c-0.2-0.1-0.4,0-0.5,0.1c-0.1,0.1-0.2,0.2-0.3,0.3c-0.4,0.6-0.6,1.2-0.9,1.9c-0.5,1.4-1,2.8-1.5,4.3c-0.7,2-1.4,4-2.1,6
			c-0.3,0.8-0.6,1.6-0.9,2.4l6.9-2.5c-0.2-0.2-0.3-0.5-0.5-0.8C38.7,19.4,38.6,18.5,38.6,17.5z"/>
	</g>
	<g>
		<path class="st2" d="M28.7,39.4c-0.1,0-0.1,0-0.2-0.1c-0.1-0.1-0.1-0.3,0-0.4c0.3-0.3,0.7-0.6,1-0.9c0.1-0.1,0.3-0.1,0.4,0
			c0.1,0.1,0.1,0.3,0,0.4c-0.3,0.3-0.7,0.6-1,0.9C28.8,39.4,28.8,39.4,28.7,39.4z"/>
	</g>
	<g>
		<path class="st2" d="M25,41.7c-0.3,0-0.5-0.1-0.8-0.2c-1-0.5-1.9-1.2-2.7-1.9c-2.5-2.1-4.8-4.3-7.2-6.7C9.9,28.6,5.5,24,1.7,20
			c0,0-0.1-0.1-0.1-0.1c-0.2-0.2-0.2-0.4-0.1-0.6c0.1-0.1,0.3-0.3,0.6,0L3,19.9c0.2,0.2,0.5,0.4,0.7,0.6c0.2,0.1,0.3,0.2,0.5,0.3
			c0.7,0.6,1.5,1.1,2.2,1.7c0.5,0.3,0.9,0.7,1.4,1c2.8,2.2,5.3,4,7.7,5.7c1.6,1.1,3.5,2.4,5.5,3.5c1,0.5,2.1,1.1,3.4,1.2
			c0.7,0.1,1.3,0,2.1-0.2c0.8-0.2,1.7-0.6,2.8-1.2c2.1-1.1,4-2.5,5.9-3.9l0.7-0.5c1.3-1,2.6-1.9,3.9-2.9l1-0.8
			c1.6-1.2,3.3-2.5,4.9-3.7l0.2-0.1c0.2-0.1,0.3-0.2,0.4-0.4l0.1-0.1l0.2-0.2c0.3-0.2,0.6-0.4,0.9-0.6c0.1-0.1,0.1-0.1,0.2-0.2
			c0.3-0.2,0.5,0,0.6,0c0.1,0.1,0.2,0.3-0.1,0.6c-0.4,0.4-0.8,0.8-1.2,1.2l-1,1c-3.1,3.2-6.3,6.5-9.4,9.7l-0.5,0.5
			c-0.1,0.1-0.3,0.1-0.4,0c-0.1-0.1-0.1-0.3,0-0.4l0.5-0.5c3.2-3.2,6.4-6.5,9.4-9.7l1-1c0.2-0.2,0.3-0.3,0.5-0.5
			c-0.1,0.1-0.2,0.2-0.3,0.2l-0.2,0.1c-0.2,0.2-0.3,0.3-0.5,0.4l-0.2,0.1c-1.6,1.2-3.3,2.5-4.9,3.7l-1,0.8c-1.3,1-2.6,2-3.9,2.9
			l-0.6,0.5c-1.9,1.4-3.8,2.8-6,3.9c-0.8,0.4-1.8,0.9-2.9,1.2c-0.8,0.2-1.6,0.3-2.3,0.2c-1.4-0.2-2.6-0.8-3.6-1.3
			c-2.1-1.1-4-2.4-5.6-3.5c-2.4-1.7-5-3.6-7.8-5.7c-0.5-0.3-0.9-0.7-1.4-1c-0.7-0.6-1.5-1.1-2.2-1.7c-0.1-0.1-0.3-0.2-0.4-0.3
			c-0.3-0.2-0.5-0.4-0.8-0.6l0,0c3.7,3.9,7.8,8.2,12,12.3c2.4,2.3,4.7,4.6,7.1,6.7c0.8,0.7,1.7,1.4,2.6,1.9c0.4,0.2,0.7,0.2,1.1,0
			c1.1-0.5,2-1.3,3-2.1c0.1-0.1,0.3-0.1,0.4,0c0.1,0.1,0.1,0.3,0,0.4c-1,0.9-2,1.6-3.1,2.2C25.5,41.7,25.3,41.7,25,41.7z"/>
	</g>
	<g>
		<path class="st2" d="M22.2,28c0-1.5,1.2-2.7,2.8-2.7c1.5,0,2.8,1.2,2.8,2.7c0,1.5-1.3,2.7-2.8,2.7C23.5,30.7,22.2,29.5,22.2,28z"
			/>
	</g>
	<g>
		<path class="st2" d="M25,43c-0.4,0-0.8-0.1-1.2-0.3c-1.1-0.6-2.1-1.3-2.9-2c-2.5-2.1-4.8-4.4-7.2-6.7C9.2,29.6,4.8,25,1,21
			c-0.1-0.1-0.1-0.1-0.1-0.2c-0.6-0.7-0.4-1.4,0-1.9c0.4-0.5,1.2-0.7,2-0.2l1.1,0.7c0.8,0.5,1.6,0.9,2.4,1.2c1.2,0.5,2.1,0.6,3,0.6
			c1.1-0.1,1.9-0.6,2.3-1.7c0.1-0.4,0.2-0.9,0.2-1.5c0-0.6,0-1.2-0.1-1.8c0-0.7-0.1-1.3-0.1-2c0-0.3,0-0.6,0.1-0.8
			c0.3-1,1-1.2,1.3-1.3c0.4-0.1,1-0.1,1.6,0.7c0.4,0.5,0.7,1.1,0.9,1.7c0.3,0.9,0.7,1.8,1,2.8c0.4,1.1,0.8,2.3,1.2,3.4
			c0.8,2.2,1.6,4.3,2.7,6.3c0.7,1.3,1.3,2.2,2.1,2.9c1.4,1.3,3.6,1.4,5.1,0c0.8-0.8,1.5-1.7,2.3-3.1c1.1-2.1,1.9-4.3,2.6-6.3
			c0.5-1.4,1-2.7,1.4-4.1l1.1-3.1c0.4-1,0.7-2.1,1.1-3.1c0.3-0.7,0.5-1.4,1-2.1c0.1-0.2,0.3-0.4,0.4-0.5c0.5-0.5,1.1-0.7,1.7-0.5
			c0.5,0.2,1.1,0.7,1.1,1.6l0,0.1c0,0.4,0,0.8,0,1.2c0,0.5-0.1,1.1-0.1,1.6c-0.1,0.6-0.1,1.1-0.2,1.7c-0.1,1.3-0.2,2.6-0.2,4
			c0,1,0.1,1.7,0.4,2.3c0.3,0.8,0.9,1.1,1.7,1.2c1,0,2-0.3,3-0.7c0.1,0,0.2-0.1,0.4-0.2c0.2-0.1,0.5-0.2,0.8-0.3l0.1,0
			c0.3-0.2,0.6-0.4,0.8-0.6c0.1-0.1,0.2-0.2,0.3-0.2c0.8-0.5,1.5-0.2,1.9,0.3c0.4,0.5,0.5,1.2-0.1,1.9L47,23.1
			c-3.1,3.2-6.3,6.5-9.5,9.7l-0.9,0.9c-0.5,0.5-1.3,0.5-1.8,0c-0.5-0.5-0.5-1.3,0-1.8l0.9-0.9c2.6-2.6,5.2-5.3,7.8-8
			c-0.5,0.1-1,0.2-1.6,0.1c-1.9,0-3.3-1-4-2.7c-0.5-1.2-0.6-2.3-0.6-3.2c0-1.2,0-2.4,0.1-3.6c0,0.1-0.1,0.3-0.1,0.4l-1.1,3.2
			c-0.5,1.4-1,2.7-1.4,4.1c-0.7,2-1.6,4.4-2.8,6.6c-0.6,1.1-1.4,2.6-2.8,3.8c-2.4,2.2-6.1,2.2-8.5,0c-1-0.9-1.8-2.1-2.6-3.6
			c-1.1-2.1-2-4.3-2.8-6.6c-0.4-1.1-0.8-2.2-1.2-3.2c0,0.8-0.1,1.5-0.4,2.1c-0.7,2-2.3,3.2-4.5,3.4c-0.8,0-1.6,0-2.4-0.2
			c2.7,2.8,5.6,5.8,8.4,8.6c2.4,2.4,4.7,4.6,7.1,6.6c0.8,0.6,1.6,1.3,2.5,1.7c0.1,0,0.1,0.1,0.2,0c1-0.5,1.8-1.2,2.8-2
			c0.6-0.5,1.1-1,1.7-1.5c0.5-0.5,1.3-0.4,1.8,0.1c0.5,0.5,0.4,1.3-0.1,1.8c-0.6,0.5-1.2,1-1.7,1.5c-0.9,0.8-2,1.7-3.3,2.3
			C25.8,42.9,25.4,43,25,43z"/>
	</g>
</g>
</svg>
