<?xml version="1.0" encoding="utf-8"?>
<!-- Generator: Adobe Illustrator 22.0.1, SVG Export Plug-In . SVG Version: 6.00 Build 0)  -->
<svg version="1.1" id="Layer_1" xmlns="http://www.w3.org/2000/svg" xmlns:xlink="http://www.w3.org/1999/xlink" x="0px" y="0px"
	 viewBox="0 0 50 50" style="enable-background:new 0 0 50 50;" xml:space="preserve">
<style type="text/css">
	.st0{fill:#D4FF73;}
	.st1{fill:#BEE367;}
	.st2{fill:#444444;}
</style>
<g>
	<g>
		<polygon class="st0" points="43.3,10.5 1.6,29.4 5,11.3 18.9,2.4 33,2.2 		"/>
	</g>
	<g>
		<polygon class="st1" points="49.3,23.1 5.5,39 1.2,22.6 42.5,7.5 		"/>
	</g>
	<g>
		<path class="st2" d="M25,0.3C11.4,0.3,0.3,11.4,0.3,25S11.4,49.7,25,49.7c3.3,0,6.6-0.7,9.6-1.9c0.6-0.3,0.9-1,0.7-1.7
			c-0.3-0.6-1-0.9-1.7-0.7c-2.7,1.2-5.6,1.7-8.6,1.7C12.8,47.1,2.9,37.2,2.9,25S12.8,2.9,25,2.9S47.1,12.8,47.1,25
			c0,3-0.6,5.9-1.7,8.6c-0.3,0.6,0,1.4,0.7,1.7c0.6,0.3,1.4,0,1.7-0.7c1.3-3,1.9-6.3,1.9-9.6C49.7,11.4,38.6,0.3,25,0.3z"/>
		<path class="st2" d="M23.3,25.8c-0.7-0.2-2.4-0.8-4.4-0.9l0,0c-0.9-0.1-1.7-0.1-2.5,0c-1.1,0.1-2.1,0.4-2.9,0.9
			c-1.4,0.8-2.4,2.1-2.8,3.6c-0.4,1.5-0.2,3,0.6,4.3l0.1,0.1c1.1,1.8,3,2.8,5,2.8c1,0,2.1-0.3,3-0.8c0.8-0.5,1.6-1.2,2.2-2.1
			c0.5-0.6,0.9-1.3,1.2-2.1c0.8-1.8,1.2-3.6,1.4-4.2c0.1-0.3,0-0.7-0.2-0.9C23.8,26.1,23.6,25.9,23.3,25.8z"/>
		<path class="st2" d="M25,24.7c0.1,0,0.2,0,0.3,0h0.2c0.2,0,0.5-0.1,0.7-0.3l0,0c0.6-0.6,2.3-2.1,3.5-4l0.6-1
			c0-0.1,0.1-0.1,0.1-0.2l0.2-0.5l0,0c0.4-1,0.6-1.9,0.6-2.9c0-2.9-2.1-5.4-4.9-5.9L26,10c-0.1,0-0.2,0-0.3,0h-0.6
			c-3.2,0.1-5.8,2.7-5.8,5.9c0,0.9,0.2,1.9,0.6,2.9l0,0c0,0.1,0.1,0.2,0.2,0.4l0.7,1.3c1.2,1.9,2.9,3.5,3.5,4
			C24.5,24.6,24.8,24.7,25,24.7z M25.9,10.9L25.9,10.9L25.9,10.9L25.9,10.9z M25.2,10.8L25.2,10.8L25.2,10.8L25.2,10.8z"/>
		<path class="st2" d="M37,25.7c-0.8-0.5-1.8-0.8-2.9-0.9c-0.8-0.1-1.6-0.1-2.5,0c-2,0.2-3.7,0.7-4.4,0.9c-0.3,0.1-0.6,0.3-0.7,0.6
			c-0.2,0.3-0.2,0.6-0.2,0.9c0.1,0.7,0.6,2.4,1.4,4.2c0.4,0.8,0.8,1.5,1.2,2.1c0.7,0.9,1.4,1.6,2.2,2.1c0.9,0.5,2,0.8,3,0.8
			c2,0,4-1,5.1-2.9l0,0l0,0c0.5-0.9,0.7-1.8,0.7-2.8C40,28.7,38.9,26.8,37,25.7z"/>
	</g>
</g>
</svg>
