<svg xmlns="http://www.w3.org/2000/svg" id="Camada_1" data-name="Camada 1" version="1.1" viewBox="0 0 300 300"><defs><style>.cls-11,.cls-8{stroke-width:0;isolation:isolate;fill:#fff}.cls-8{opacity:.3}.cls-11{opacity:.2}</style></defs><circle cx="140" cy="150" r="140" fill="#008dd3" stroke-width="0"/><g stroke-width="0"><path fill="#ddb300" d="M293.7 82.1l-.5-.7-17.8-15.6c-1.1-1.4-.6-3.5 1.1-4.2 2.4-1 4.6-2.5 6.5-4.6 6.2-7.1 5.6-17.8-1.4-23.7-6.8-6.2-17.4-5.5-23.7 1.6-1.8 2.1-3.1 4.5-3.7 7-.5 1.8-2.5 2.5-4 1.6l-17.7-15.7-.7-.4c-1.1-.9-2.7-.7-3.7.4l-17.3 19.7c-1.2.2-2.4-.4-2.8-1.6-2.1-5.4-7.1-9.8-15-10.6-.8 0-1.7 0-2.5.2-15.8 4.2-18.4 21.2-9.1 29.5 2 1.8 4.3 2.9 6.7 3.5 1.3.3 2 1.6 1.9 2.8l-17.4 19.8c-1 1.1-.9 2.9.2 3.8l18.7 16.4.3.2h.1c1.6 1.5 4.1.5 4.4-1.7 1.1-6.2 5.6-12 13.8-14.3 1.5-.2 3.1-.3 4.7 0 3.6.7 6.5 2.1 8.8 4 2.2 2 4 4.7 5.1 8.2.4 1.5.6 3.1.5 4.6-1.3 8.4-6.5 13.7-12.5 15.5-2.1.6-2.8 3.2-1.2 4.6h.1l.3.4 18.6 16.4c1.1 1 2.8.8 3.8-.3l17.5-19.8c1.2-.3 2.5.2 3 1.5.9 2.3 2.3 4.5 4.3 6.2 9.4 8.3 25.9 3.4 28.1-12.7.1-.8 0-1.7-.1-2.5-1.8-7.8-6.8-12.2-12.4-13.6-1.3-.3-2-1.4-1.9-2.6l17.3-19.6c1-1.1.9-2.8-.1-3.7z"/><path fill="#d39baa" d="M227.4 258.6h.5l24.8-2c1.5-.1 2.6-1.5 2.4-3l-2.2-26.3c.6-1.1 1.9-1.6 3.2-1.1 2.3 1 4.8 1.4 7.5 1.2 12.5-1.1 20.4-16.3 10.3-29.1-.5-.6-1.2-1.2-1.9-1.6-6.9-4.1-13.5-3.5-18.4-.4-1.1.7-2.4.4-3.2-.4l-2.1-26.1c-.1-1.5-1.3-2.6-2.8-2.5h-.9l-23.5 1.9c-1.7-.2-3-2-2.3-3.7 1-2.4 1.4-5.1 1.2-7.9-.8-9.4-8.9-16.4-18.1-15.4-9.2.5-16.1 8.8-15.3 18.2.2 2.8 1.1 5.3 2.5 7.6 1 1.6 0 3.6-1.6 4l-23.6 1.9-.8.2c-1 .1-1.8.8-2.1 1.8.2.4.3.8.3 1.3l2.3 27-1.5-.2c-.6.4-1.4.5-2.2.1l-.5-.2c-.8 0-1.6.2-2.4.4h-.4c-.9 0-1.8-.2-2.6-.1-7.6.7-13.3 7-13.6 14.7v2c.2 2.7 1.2 5.6 3 8.4.4.6.8 1.2 1.3 1.8.4.5.9 1 1.5 1.3 3.7 2.2 7.2 2.9 10.3 2.6.8 0 1.7-.2 2.5-.4h.4c.7 0 1.2.1 1.7.1.4-.2.8-.4 1.2-.7.8-.5 1.8-.5 2.5 0l1.2-.3 2.3 27.4v1c.5.9 1.4 1.4 2.5 1.3l24.8-2.1h.5c2.1-.2 3.1-2.7 1.8-4.4-3.7-5-4.8-12.3-.8-19.9.9-1.3 2-2.4 3.2-3.4 3-2.1 6-3.2 9-3.5 3-.2 6.2.4 9.4 2 1.4.8 2.6 1.7 3.7 2.9 5.2 6.8 5.3 14.1 2.5 19.7-1 1.9.4 4.2 2.5 4z"/><path fill="#08c15c" d="M128.8 171.7v.8c0 .6.5 1.2 1.1 1.2l23.4-2.1h.9c.8 0 1.6.2 2.3.6v-.7l-2.1-26.3c.6-1.1 1.9-1.6 3.2-1.1 2.3 1 4.8 1.4 7.5 1.2 12.5-1.1 20.4-16.3 10.3-29.1-.5-.6-1.2-1.2-1.9-1.6-6.9-4.1-13.5-3.5-18.4-.4-1.1.7-2.4.4-3.2-.4l-2.1-26.1c-.1-1.5-1.4-2.6-2.8-2.5h-.9l-23.5 1.9c-1.7-.2-3-2-2.3-3.7 1-2.4 1.4-5.1 1.2-7.9-.8-9.4-8.9-16.4-18.1-15.4-9.2.5-16.1 8.8-15.3 18.2.2 2.8 1.1 5.3 2.5 7.6 1 1.6 0 3.6-1.6 4l-23.6 1.9-.8.2c-1.4.2-2.4 1.5-2.3 2.9l2.2 26.1c-.7 1-1.9 1.5-3.1.9-5.3-2.2-12-1.7-18.1 3.5-.6.5-1.2 1.2-1.6 1.9-7.9 14.3 2.5 28 15 26.9 2.6-.2 5.1-1.1 7.2-2.4 1.1-.7 2.5-.3 3.3.6l2.2 26.3c0 .3.1.6.3.9.6-.5 1.3-.8 2.1-1 .3 0 .6-.2.9-.2l23.4-2c.6-.2 1-.8 1-1.4l-.2-.6v-.1c-1.4-2.4-2.3-5-2.6-7.9-.2-1.8 0-3.5.4-5.2 1.5-7.6 7.7-13.7 15.7-14.4h.8c8-.7 15.1 4.3 17.9 11.5.6 1.6 1.1 3.2 1.2 5 .3 3-.2 5.8-1.2 8.3z"/><path fill="#00b5d3" d="M139.3 208.4c2.8-3 6.7-5 11.1-5.4v1.3c.1 0 0-1.3 0-1.3h2.9c.9-.2 1.8-.3 2.6-.4h1.3l-2-23.8c0-.8-.6-1.2-1.3-1.3s-.2 0-.2 0H153.1l-23.7 2.1h-.1c-1.9-.2-3.3-1.6-3.6-3.4v-.4c-.1-.6 0-1.1.2-1.7s0-.1 0-.1c.9-2.3 1.3-4.7 1.1-7.2-.1-1.5-.5-2.9-1.1-4.3-2.4-6.2-8.4-10.4-15.2-9.8h-.7c-3.2.3-6 1.6-8.2 3.5-2.5 2.2-4.4 5.2-5 8.7-.2.8-.3 1.7-.3 2.5v1.9c.2 2.5 1 4.8 2.3 6.9v.1c.3.5.5 1.1.5 1.6v.3c0 1.8-1.2 3.5-3 4h-.1l-23.7 2h-.2l-.2.1h-.2l-.2.1c-.7 0-1.2.7-1.1 1.5l2.3 26.6-.3.4c-.7 1-1.7 1.6-2.9 1.7s-1.2 0-1.8-.3c-2.1-.9-4.4-1.3-6.8-1.1-3.2.3-6.6 1.6-9.8 4.4-.5.4-.9 1-1.3 1.5-2.1 3.8-2.8 7.5-2.5 10.8.7 8.5 8 14.8 16.2 14.1 2.4-.2 4.6-1 6.5-2.2.5-.3 1.1-.5 1.7-.6 1.3-.1 2.5.5 3.4 1.4l.3.3 2.3 26.7c0 .8.7 1.3 1.4 1.3l24.6-2.2h.4l.1-.1h.1c.4 0 .6-.2.8-.5.2-.3.3-.6.3-1l-.3-.8c-2-2.6-3.3-5.9-3.6-9.4s.4-7.8 2.6-11.9v-.1c1-1.4 2.1-2.7 3.4-3.7 3.1-2.3 6.4-3.5 9.6-3.8 3.2-.2 6.7.4 10.1 2.1 1.5.8 2.8 1.9 4 3.1v.1c2.8 3.7 4.3 7.5 4.6 11.3.3 3.5-.4 6.9-1.9 9.9l-.2.8c0 .4.2.7.4.9.2.2.5.3.9.3h.5l24.7-2.1c.7 0 1.3-.7 1.2-1.5l-2-24.1c-.5.1-1.1.2-1.7.3-1 0-1.8 0-2.5-.1-.9.2-1.7.4-2.6.4-3.6.3-7.5-.5-11.5-2.7l-.4-.2c-.8-.5-1.6-1.2-2.2-1.9-1.6-2-2.8-4.1-3.6-6.1-.2-.6-.5-1.3-.6-1.9-.3-1.2-.6-2.4-.7-3.6-.5-5.5 1.5-10.5 4.9-14.2z"/><path fill="#ffd200" d="M299.2 80.8l-.5-.7-17.8-15.6c-1.1-1.4-.6-3.5 1.1-4.2 2.4-1 4.6-2.5 6.5-4.6 6.2-7.1 5.6-17.8-1.4-23.7-6.8-6.2-17.4-5.5-23.7 1.6-1.8 2.1-3.1 4.5-3.7 7-.5 1.8-2.5 2.5-4 1.6L238 26.5l-.7-.4c-1.1-.9-2.7-.7-3.7.4l-17.3 19.7c-1.2.2-2.4-.4-2.8-1.6-2.1-5.4-7.1-9.8-15-10.6-.8 0-1.7 0-2.5.2-15.8 4.2-18.4 21.2-9.1 29.5 2 1.8 4.3 2.9 6.7 3.5 1.3.3 2 1.6 1.9 2.8l-17.4 19.8c-1 1.1-.9 2.9.2 3.8L197 110l.3.2h.1c1.6 1.5 4.1.5 4.4-1.7 1.1-6.2 5.6-12 13.8-14.3 1.5-.2 3.1-.3 4.7 0 3.6.7 6.5 2.1 8.8 4 2.2 2 4 4.7 5.1 8.2.4 1.5.6 3.1.5 4.6-1.3 8.4-6.5 13.7-12.5 15.5-2.1.6-2.8 3.2-1.2 4.6h.1l.3.4 18.6 16.4c1.1 1 2.8.8 3.8-.3l17.5-19.8c1.2-.3 2.5.2 3 1.5.9 2.3 2.3 4.5 4.3 6.2 9.4 8.3 25.9 3.4 28.1-12.7.1-.8 0-1.7-.1-2.5-1.8-7.8-6.8-12.2-12.4-13.6-1.3-.3-2-1.4-1.9-2.6l17.3-19.6c1-1.1.9-2.8-.1-3.7z"/><path fill="#f9b4c4" d="M229.2 256.8h.5l24.8-2c1.5-.1 2.6-1.5 2.4-3l-2.2-26.3c.6-1.1 1.9-1.6 3.2-1.1 2.3 1 4.8 1.4 7.5 1.2 12.5-1.1 20.4-16.3 10.3-29.1-.5-.6-1.2-1.2-1.9-1.6-6.9-4.1-13.5-3.5-18.4-.4-1.1.7-2.4.4-3.2-.4l-2.1-26.1c-.1-1.5-1.3-2.6-2.8-2.5h-.9l-23.5 1.9c-1.7-.2-3-2-2.3-3.7 1-2.4 1.4-5.1 1.2-7.9-.8-9.4-8.9-16.4-18.1-15.4-9.2.5-16.1 8.8-15.3 18.2.2 2.8 1.1 5.3 2.5 7.6 1 1.6 0 3.6-1.6 4l-23.6 1.9-.8.2c-1 .1-1.8.8-2.1 1.8.2.4.3.8.3 1.3l2.3 27-1.5-.2c-.6.4-1.4.5-2.2.1l-.5-.2c-.8 0-1.6.2-2.4.4h-.4c-.9 0-1.8-.2-2.6-.1-7.6.7-13.3 7-13.6 14.7v2c.2 2.7 1.2 5.6 3 8.4.4.6.8 1.2 1.3 1.8.4.5.9 1 1.5 1.3 3.7 2.2 7.2 2.9 10.3 2.6.8 0 1.7-.2 2.5-.4h.4c.7 0 1.2.1 1.7.1.4-.2.8-.4 1.2-.7.8-.5 1.8-.5 2.5 0l1.2-.3 2.3 27.4v1c.5.9 1.4 1.4 2.5 1.3l24.8-2.1h.5c2.1-.2 3.1-2.7 1.8-4.4-3.7-5-4.8-12.3-.8-19.9.9-1.3 2-2.4 3.2-3.4 3-2.1 6-3.2 9-3.5 3-.2 6.2.4 9.4 2 1.4.8 2.6 1.7 3.7 2.9 5.2 6.8 5.3 14.1 2.5 19.7-1 1.9.4 4.2 2.5 4z"/><path fill="#07e570" d="M131.3 169.1v.8c0 .6.5 1.2 1.1 1.2l23.4-2.1h.9c.8 0 1.6.2 2.3.6v-.7l-2.1-26.3c.6-1.1 1.9-1.6 3.2-1.1 2.3 1 4.8 1.4 7.5 1.2 12.5-1.1 20.4-16.3 10.3-29.1-.5-.6-1.2-1.2-1.9-1.6-6.9-4.1-13.5-3.5-18.4-.4-1.1.7-2.4.4-3.2-.4l-2.1-26.1c-.1-1.5-1.4-2.6-2.8-2.5h-.9l-23.5 1.9c-1.7-.2-3-2-2.3-3.7 1-2.4 1.4-5.1 1.2-7.9-.8-9.4-8.9-16.4-18.1-15.4-9.2.5-16.1 8.8-15.3 18.2.2 2.8 1.1 5.3 2.5 7.6 1 1.6 0 3.6-1.6 4l-23.6 1.9-.8.2c-1.4.2-2.4 1.5-2.3 2.9l2.2 26.1c-.7 1-1.9 1.5-3.1.9-5.3-2.2-12-1.7-18.1 3.5-.6.5-1.2 1.2-1.6 1.9-7.9 14.3 2.5 28 15 26.9 2.6-.2 5.1-1.1 7.2-2.4 1.1-.7 2.5-.3 3.3.6l2.2 26.3c0 .3.1.6.3.9.6-.5 1.3-.8 2.1-1 .3 0 .6-.2.9-.2l23.4-2c.6-.2 1-.8 1-1.4l-.2-.6v-.1c-1.4-2.4-2.3-5-2.6-7.9-.2-1.8 0-3.5.4-5.2 1.5-7.6 7.7-13.7 15.7-14.4h.8c8-.7 15.1 4.3 17.9 11.5.6 1.6 1.1 3.2 1.2 5 .3 3-.2 5.8-1.2 8.3z"/><path fill="#00cfff" d="M142 205.5c2.8-3 6.7-5 11.1-5.4v1.3c.1 0 0-1.3 0-1.3h2.9c.9-.2 1.8-.3 2.6-.4h1.3l-2-23.8c0-.8-.6-1.2-1.3-1.3s-.2 0-.2 0H155.8l-23.7 2.1h-.1c-1.9-.2-3.3-1.6-3.6-3.4v-.4c-.1-.6 0-1.1.2-1.7s0-.1 0-.1c.9-2.3 1.3-4.7 1.1-7.2-.1-1.5-.5-2.9-1.1-4.3-2.4-6.2-8.4-10.4-15.2-9.8h-.7c-3.2.3-6 1.6-8.2 3.5-2.5 2.2-4.4 5.2-5 8.7-.2.8-.3 1.7-.3 2.5v1.9c.2 2.5 1 4.8 2.3 6.9v.1c.3.5.5 1.1.5 1.6v.3c0 1.8-1.2 3.5-3 4h-.1l-23.7 2H75l-.2.1h-.2l-.2.1c-.7 0-1.2.7-1.1 1.5l2.3 26.6-.3.4c-.7 1-1.7 1.6-2.9 1.7s-1.2 0-1.8-.3c-2.1-.9-4.4-1.3-6.8-1.1s-6.6 1.6-9.8 4.4c-.5.4-.9 1-1.3 1.5-2.1 3.8-2.8 7.5-2.5 10.8.7 8.5 8 14.8 16.2 14.1 2.4-.2 4.6-1 6.5-2.2.5-.3 1.1-.5 1.7-.6 1.3-.1 2.5.5 3.4 1.4l.3.3 2.3 26.7c0 .8.7 1.3 1.4 1.3l24.6-2.2h.4l.1-.1h.1c.4 0 .6-.2.8-.5.2-.3.3-.6.3-1l-.3-.8c-2-2.6-3.3-5.9-3.6-9.4s.4-7.8 2.6-11.9v-.1c1-1.4 2.1-2.7 3.4-3.7 3.1-2.3 6.4-3.5 9.6-3.8 3.2-.2 6.7.4 10.1 2.1 1.5.8 2.8 1.9 4 3.1v.1c2.8 3.7 4.3 7.5 4.6 11.3.3 3.5-.4 6.9-1.9 9.9l-.2.8c0 .4.2.7.4.9.2.2.5.3.9.3h.5l24.7-2.1c.7 0 1.3-.7 1.2-1.5l-2-24.1c-.5.1-1.1.2-1.7.3-1 0-1.8 0-2.5-.1-.9.2-1.7.4-2.6.4-3.6.3-7.5-.5-11.5-2.7l-.4-.2c-.8-.5-1.6-1.2-2.2-1.9-1.6-2-2.8-4.1-3.6-6.1-.2-.6-.5-1.3-.6-1.9-.3-1.2-.6-2.4-.7-3.6-.5-5.5 1.5-10.5 4.9-14.2z"/><path fill="#141" d="M91.9 137l9.6-40.6 14.3-1.2 16.9 38.3-9.2.8-13.8-32.4 2.9.9-7 .6 2.8-1.4-7.8 34.3-8.9.8zm9-10.6l2.1-7.6 15.5-1.3 3.4 7.1-20.9 1.8z"/><path fill="#005cff" d="M99.6 227.3l-3.2-36.7 7.9-.7 3.2 36.7-7.9.7zm5.5-17.3l-.4-4.9 7.1-.6c1.6-.1 2.6-.6 3.3-1.5.6-.9.9-1.9.8-3.3s-.6-2.4-1.3-3.2c-.8-.7-1.9-1-3.5-.9l-7.1.6-.5-6.3 6.6-.6c4.2-.4 7.4.2 9.8 1.8s3.7 4 4 7.2v.7c.3 2.2-.2 4.1-1.2 5.5-1 1.5-2.5 2.6-4.4 3.3-1.9.7-4.1 1.2-6.5 1.4l-6.6.6zm1.5 16.7l-.5-6.3 8.5-.7c1.5-.1 2.6-.6 3.3-1.5.7-.9 1-2 .8-3.5s-.6-2.5-1.4-3.2c-.8-.7-2-1-3.5-.9l-8.5.7-.4-4.9 8.1-.7c2.5-.2 4.8-.1 6.8.3s3.6 1.3 4.9 2.5c1.2 1.3 2 3 2.2 5.4v.7c.2 2.1 0 4-1 5.6-.9 1.6-2.2 2.9-4.1 3.9s-4.2 1.6-7 1.8l-8.1.7z"/><path fill="#d34f6e" d="M211.4 216.6c-3.3.3-6.3 0-8.8-1-2.5-1-4.6-2.3-6.3-4.1-1.7-1.8-3-3.7-3.9-5.9s-1.5-4.3-1.6-6.4v-1.1c-.3-2.3-.1-4.6.4-6.9.5-2.3 1.5-4.4 2.9-6.4s3.2-3.6 5.4-4.9c2.2-1.3 5-2.1 8.2-2.4s6.3 0 9 1.1c2.7 1 4.9 2.6 6.6 4.7 1.7 2.1 2.8 4.6 3.4 7.5l-8.3.7c-.4-1.5-1-2.7-1.9-3.7-.9-1-2.1-1.7-3.5-2.1-1.4-.5-2.9-.6-4.6-.5s-3.1.6-4.3 1.2-2.2 1.6-3 2.7c-.8 1.1-1.3 2.4-1.7 3.9-.3 1.5-.4 3.1-.3 4.8s.5 3.3 1.1 4.7c.6 1.4 1.4 2.6 2.3 3.6 1 1 2.2 1.7 3.5 2.1 1.4.4 2.9.6 4.6.4 2.6-.2 4.7-1 6.3-2.4 1.7-1.4 2.6-3.2 2.8-5.4l8.3-.7c0 2.7-.8 5.3-2.1 7.6-1.3 2.4-3.2 4.3-5.7 5.9s-5.5 2.5-9 2.8z"/><path fill="#996a0b" d="M223.1 81.1l27.3-28.8 6.4 6.1-27.3 28.8-6.4-6.1zm5.6 5.3l5.6-5.9 5.3 5c1.3 1.3 2.7 2.2 4.1 2.8 1.4.6 2.9.9 4.3.9 1.5 0 2.9-.4 4.3-1.1s2.7-1.7 3.9-2.9 2.2-2.7 2.8-4.1c.6-1.4.9-2.8.8-4.3 0-1.4-.4-2.9-1.2-4.2-.7-1.4-1.7-2.7-3-4l-5.3-5 5.6-5.9 4.9 4.7c2.6 2.4 4.4 4.9 5.7 7.5 1.2 2.6 1.8 5.1 1.9 7.6 0 2.5-.4 4.9-1.3 7.2-1 2.3-2.3 4.3-4.1 6.2l-.8.9c-1.6 1.7-3.5 3.1-5.8 4.2-2.2 1.1-4.6 1.7-7.2 1.8s-5.2-.4-7.9-1.4c-2.7-1-5.3-2.7-7.9-5.2l-4.9-4.7z"/></g><path fill="#fff" stroke-width="0" d="M289.8 80c-4.5 14.9-19.8 31.5-33.1 39.3-1.6.9-3.5.3-4.4-1.3-.5-.8-.5-1.8-.2-2.6 1.5-4.3 3.6-8.2 5.9-11.9 4.6-7.3 9.9-14 16.4-19.8 3.3-2.9 6.8-5.6 10.9-7.6 2.5-1.2 5.4 1.3 4.6 3.9z" opacity=".3"/><path d="M282.8 38.6s5.5 7.2 5.9 13.3c0 0-8.7 1.5-16.7-1 0 0 5.8-9.5 2.1-16.3l8.6 4z" class="cls-11"/><path d="M133.9 87.7s13.6-1.5 13.8 10.9v17.1s0 3.1-2.5 3c-1 0-3.1 0-3.3-3-.3-4 0-12.4-5.5-17.1-5-4.3-12.6-4.6-17-5.6-5.5-1.2-5.5-5.6-.3-5.5 5 0 14.8.1 14.8.1z" class="cls-8"/><path d="M148.4 123.6s-2.2-5.2-5.5-.7c-3.3 4.4 0 6.8 0 6.8s4.2 3.2 5.5 0c1.3-3.2 0-6 0-6z" class="cls-11"/><path d="M180.7 254.7s-9.5 1-9.6-7.6v-12s0-2.2 1.7-2.1c.7 0 2.1 0 2.3 2.1.2 2.8 0 8.6 3.8 12 3.5 3 8.8 3.2 11.9 3.9 3.8.8 3.8 3.9.2 3.8-3.5 0-10.3-.1-10.3-.1z" class="cls-8"/><path d="M170.6 229.6s1.5 3.6 3.8.5 0-4.7 0-4.7-2.9-2.2-3.8 0c-.9 2.2 0 4.2 0 4.2z" class="cls-11"/></svg>