<?xml version="1.0" encoding="utf-8"?>
<!-- Generator: Adobe Illustrator 22.0.1, SVG Export Plug-In . SVG Version: 6.00 Build 0)  -->
<svg version="1.1" id="Camada_1" xmlns="http://www.w3.org/2000/svg" xmlns:xlink="http://www.w3.org/1999/xlink" x="0px" y="0px"
	 viewBox="0 0 50 50" style="enable-background:new 0 0 50 50;" xml:space="preserve">
<style type="text/css">
	.st0{fill:#F0CD77;}
	.st1{fill:#ECC158;}
	.st2{fill:#464646;}
</style>
<g>
	<polygon class="st0" points="47.5,2.5 2.5,2.5 2.5,19.9 47.5,3.6 	"/>
</g>
<g>
	<polygon class="st1" points="47.5,3.6 2.5,19.9 2.5,46.6 47.5,30.2 	"/>
</g>
<g>
	<path class="st2" d="M48.7,48.7H1.3V1.3h47.5V48.7z M3.8,46.2h42.5V3.8H3.8V46.2z"/>
</g>
<g>
	<g>
		<path class="st2" d="M47.9,47.9l-18.1,0L2.1,36.1V25.5l45.7,19.4V47.9z M30,47.1h17.1v-1.7L2.9,26.7v9L30,47.1z"/>
	</g>
	<g>
		<path class="st2" d="M47.9,45.7L2.1,26.3V15.8l45.7,19.4V45.7z M2.9,25.8l44.2,18.7v-9L2.9,16.9V25.8z"/>
	</g>
	<g>
		<path class="st2" d="M31.8,47.9H2.1V35.3L31.8,47.9z M2.9,47.1h25.2L2.9,36.4V47.1z"/>
	</g>
	<g>
		<path class="st2" d="M47.9,26.2L2.1,6.8V2.1l14.1,0l31.6,13.4V26.2z M2.9,6.3L47.1,25v-9L16,2.9H2.9V6.3z"/>
	</g>
	<g>
		<path class="st2" d="M47.9,16.4L14.2,2.1h33.6V16.4z M17.9,2.9l29.2,12.4V2.9H17.9z"/>
	</g>
	<g>
		<path class="st2" d="M47.9,35.9L2.1,16.6V6l45.7,19.4V35.9z M2.9,16.1l44.2,18.7v-9L2.9,7.1V16.1z"/>
	</g>
</g>
<g>
	<g>
		<circle class="st2" cx="15.6" cy="14.1" r="1.7"/>
	</g>
	<g>
		<circle class="st2" cx="19" cy="12.4" r="1.7"/>
	</g>
	<g>
		<circle class="st2" cx="18.5" cy="20.4" r="1.7"/>
	</g>
	<g>
		<circle class="st2" cx="23.1" cy="14.1" r="1.7"/>
	</g>
	<g>
		<circle class="st2" cx="7.2" cy="18.7" r="1.7"/>
	</g>
	<g>
		<circle class="st2" cx="20.7" cy="23.3" r="1.7"/>
	</g>
	<g>
		<circle class="st2" cx="6.6" cy="25" r="1.7"/>
	</g>
	<g>
		<circle class="st2" cx="20.7" cy="31.2" r="1.7"/>
	</g>
	<g>
		<circle class="st2" cx="24" cy="19.3" r="1.7"/>
	</g>
	<g>
		<circle class="st2" cx="29" cy="25" r="1.7"/>
	</g>
	<g>
		<circle class="st2" cx="25.7" cy="23.8" r="1.7"/>
	</g>
	<g>
		<circle class="st2" cx="25.7" cy="29.5" r="1.7"/>
	</g>
	<g>
		<circle class="st2" cx="31.5" cy="29.5" r="1.7"/>
	</g>
	<g>
		<circle class="st2" cx="40" cy="28.3" r="1.7"/>
	</g>
	<g>
		<circle class="st2" cx="34.8" cy="37.6" r="1.7"/>
	</g>
	<g>
		<circle class="st2" cx="29" cy="42.7" r="1.7"/>
	</g>
	<g>
		<circle class="st2" cx="20.2" cy="37.6" r="1.7"/>
	</g>
	<g>
		<circle class="st2" cx="34.8" cy="18.7" r="1.7"/>
	</g>
	<g>
		<circle class="st2" cx="24.7" cy="34.1" r="1.7"/>
	</g>
	<g>
		<circle class="st2" cx="15" cy="39.3" r="1.7"/>
	</g>
	<g>
		<circle class="st2" cx="28.1" cy="14.7" r="1.7"/>
	</g>
	<g>
		<circle class="st2" cx="35.8" cy="12.4" r="1.7"/>
	</g>
	<g>
		<circle class="st2" cx="43.4" cy="7.3" r="1.7"/>
	</g>
	<g>
		<circle class="st2" cx="29" cy="34.1" r="1.7"/>
	</g>
	<g>
		<circle class="st2" cx="18.5" cy="17" r="1.7"/>
	</g>
</g>
</svg>
