<svg xmlns="http://www.w3.org/2000/svg" id="Layer_1" x="0" y="0" version="1.1" viewBox="0 0 50 50" xml:space="preserve"><style>.st2{fill:#031326}</style><path fill="#bee367" d="M43.5 8.4c0-.5-.1-1-.3-1.4L6.3 20.4v24.7c0 .8.3 1.5.8 2l36.4-13.2V8.4z"/><path fill="#d4ff73" d="M40.5 5.3H29.2c-.4-1.8-2-3.2-3.9-3.2s-3.5 1.4-3.9 3.2h-12c-1.7 0-3.1 1.4-3.1 3.1v12L43.2 7c-.5-1-1.5-1.7-2.7-1.7z"/><path d="M33.8 49.3H9.5c-2.4 0-4.3-1.9-4.3-4.3V8.2c0-2.4 1.9-4.3 4.3-4.3h11.1C21.4 2 23.3.7 25.4.7c2.1 0 4 1.3 4.8 3.2h10.3c2.4 0 4.3 1.9 4.3 4.3v27.3c0 .7-.6 1.2-1.2 1.2s-1.2-.6-1.2-1.2V8.2c0-1-.8-1.8-1.8-1.8H28.3l-.2-1c-.3-1.3-1.4-2.2-2.7-2.2-1.3 0-2.4.9-2.7 2.2l-.2 1h-13c-1 0-1.8.8-1.8 1.8v36.7c0 1 .8 1.8 1.8 1.8h24.3c.7 0 1.2.6 1.2 1.2s-.5 1.4-1.2 1.4z" class="st2"/><circle cx="25.5" cy="5.9" r="1.6" class="st2"/><path d="M40.5 44.9H9.3V7.4h7.3v4.3c0 .1 0 .1.1.1H34c.1 0 .1 0 .1-.1V7.4h6.4v37.5zm-29.7-1.5H39V8.9h-3.4v2.8c0 .9-.7 1.6-1.6 1.6H16.7c-.9 0-1.6-.7-1.6-1.6V8.9h-4.3v34.5z" class="st2"/><path d="M18.8 23h-3.5c-.8 0-1.4-.6-1.4-1.4v-3.5c0-.8.6-1.4 1.4-1.4h3.5c.8 0 1.4.6 1.4 1.4v3.5c0 .8-.6 1.4-1.4 1.4zm-3.4-5.3c-.2 0-.4.2-.4.4v3.5c0 .2.2.4.4.4h3.5c.2 0 .4-.2.4-.4v-3.5c0-.2-.2-.4-.4-.4h-3.5zm20 2.9H22c-.4 0-.8-.3-.8-.8s.3-.8.8-.8h13.4c.4 0 .8.3.8.8s-.4.8-.8.8zM18.8 31.3h-3.5c-.8 0-1.4-.6-1.4-1.4v-3.5c0-.8.6-1.4 1.4-1.4h3.5c.8 0 1.4.6 1.4 1.4v3.5c0 .8-.6 1.4-1.4 1.4zM15.4 26c-.2 0-.4.2-.4.4v3.5c0 .2.2.4.4.4h3.5c.2 0 .4-.2.4-.4v-3.5c0-.2-.2-.4-.4-.4h-3.5zm20 2.9H22c-.4 0-.8-.3-.8-.8s.3-.8.8-.8h13.4c.4 0 .8.3.8.8s-.4.8-.8.8zm0 8.3H22c-.4 0-.8-.3-.8-.8s.3-.8.8-.8h13.4c.4 0 .8.3.8.8s-.4.8-.8.8zm-20.1-1.6l1.1.9 2.8-2.3c.1-.1.3-.2.5-.2-.2-.3-.5-.4-.8-.4h-3.8c-.5 0-1 .4-1 1v1.2c.4-.4.9-.4 1.2-.2z" class="st2"/><path d="M16.5 38.7L14.3 37l-.1-.1v1.4c0 .5.4 1 1 1H19c.5 0 1-.4 1-1v-2.5l-3.5 2.9z" class="st2"/></svg>
