<?xml version="1.0" encoding="utf-8"?>
<!-- Generator: Adobe Illustrator 27.8.1, SVG Export Plug-In . SVG Version: 6.00 Build 0)  -->
<svg version="1.1" id="Layer_1" xmlns="http://www.w3.org/2000/svg" xmlns:xlink="http://www.w3.org/1999/xlink" x="0px" y="0px"
	 viewBox="0 0 50 50" style="enable-background:new 0 0 50 50;" xml:space="preserve">
<style type="text/css">
	.st0{fill:#FC9D9A;}
	.st1{fill:#444444;}
	.st2{fill:none;stroke:#444444;stroke-width:0.5;stroke-linecap:round;stroke-linejoin:round;stroke-miterlimit:10;}
	.st3{fill:none;stroke:#444444;stroke-linecap:round;stroke-linejoin:round;stroke-miterlimit:10;}
</style>
<path class="st0" d="M43.36,7.26c-0.5-1-1.5-1.7-2.7-1.7h-11.3c-0.4-1.8-2-3.2-3.9-3.2c-1.9,0-3.5,1.4-3.9,3.2h-12
	c-1.7,0-3.1,1.4-3.1,3.1v12v24.7c0,0.8,0.3,1.5,0.8,2l36.4-13.2V8.66C43.66,8.16,43.56,7.66,43.36,7.26z"/>
<path class="st1" d="M33.76,49.56H9.46c-2.4,0-4.3-1.9-4.3-4.3V8.46c0-2.4,1.9-4.3,4.3-4.3h11.1c0.8-1.9,2.7-3.2,4.8-3.2
	s4,1.3,4.8,3.2h10.3c2.4,0,4.3,1.9,4.3,4.3v27.3c0,0.7-0.6,1.2-1.2,1.2s-1.2-0.6-1.2-1.2V8.46c0-1-0.8-1.8-1.8-1.8h-12.3l-0.2-1
	c-0.3-1.3-1.4-2.2-2.7-2.2c-1.3,0-2.4,0.9-2.7,2.2l-0.2,1h-13c-1,0-1.8,0.8-1.8,1.8v36.7c0,1,0.8,1.8,1.8,1.8h24.3
	c0.7,0,1.2,0.6,1.2,1.2S34.46,49.56,33.76,49.56z"/>
<path class="st2" d="M33.58,9.68v1.17c0,1.23-1.01,2.23-2.26,2.23h-12.7c-1.25,0-2.26-1-2.26-2.23V9.68c0-0.59-0.48-1.07-1.08-1.07
	h-4.54c-0.6,0-1.08,0.48-1.08,1.07v3.4v0.83v29.03c0,1.23,1.01,2.23,2.26,2.23h26.1c1.25,0,2.26-1,2.26-2.23V13.91v-0.83v-3.4
	c0-0.59-0.48-1.07-1.08-1.07h-4.54C34.06,8.62,33.58,9.09,33.58,9.68z"/>
<path class="st2" d="M18.7,23.34h-3.16c-0.78,0-1.42-0.64-1.42-1.42v-3.16c0-0.78,0.64-1.42,1.42-1.42h3.16
	c0.78,0,1.42,0.64,1.42,1.42v3.16C20.12,22.7,19.48,23.34,18.7,23.34z"/>
<path class="st2" d="M18.7,31.35h-3.16c-0.78,0-1.42-0.64-1.42-1.42v-3.16c0-0.78,0.64-1.42,1.42-1.42h3.16
	c0.78,0,1.42,0.64,1.42,1.42v3.16C20.12,30.71,19.48,31.35,18.7,31.35z"/>
<path class="st2" d="M18.7,39.42h-3.16c-0.78,0-1.42-0.64-1.42-1.42v-3.16c0-0.78,0.64-1.42,1.42-1.42h3.16
	c0.78,0,1.42,0.64,1.42,1.42V38C20.12,38.78,19.48,39.42,18.7,39.42z"/>
<line class="st2" x1="22.76" y1="20.34" x2="35.36" y2="20.34"/>
<line class="st2" x1="22.76" y1="28.35" x2="35.36" y2="28.35"/>
<line class="st2" x1="22.76" y1="36.42" x2="35.36" y2="36.42"/>
<circle class="st1" cx="25.64" cy="6.18" r="1.56"/>
<polyline class="st3" points="15.44,36.36 16.88,37.92 21.98,33.6 "/>
</svg>
