<?xml version="1.0" encoding="utf-8"?>
<!-- Generator: Adobe Illustrator 22.0.1, SVG Export Plug-In . SVG Version: 6.00 Build 0)  -->
<svg version="1.1" id="Layer_1" xmlns="http://www.w3.org/2000/svg" xmlns:xlink="http://www.w3.org/1999/xlink" x="0px" y="0px"
	 viewBox="0 0 50 50" style="enable-background:new 0 0 50 50;" xml:space="preserve">
<style type="text/css">
	.st0{fill:#BEE367;}
	.st1{fill:#D4FF73;}
	.st2{fill:#4E4E4E;}
</style>
<g>
	<g>
		<path class="st0" d="M43.5,8.4c0-0.5-0.1-1-0.3-1.4L6.3,20.4v24.7c0,0.8,0.3,1.5,0.8,2l36.4-13.2V8.4z"/>
	</g>
	<g>
		<path class="st1" d="M40.5,5.3H29.2c-0.4-1.8-2-3.2-3.9-3.2s-3.5,1.4-3.9,3.2H9.4c-1.7,0-3.1,1.4-3.1,3.1v12L43.2,7
			C42.7,6,41.7,5.3,40.5,5.3z"/>
	</g>
	<g>
		<path class="st2" d="M33.8,49.3H9.5c-2.4,0-4.3-1.9-4.3-4.3V8.2c0-2.4,1.9-4.3,4.3-4.3h11.1c0.8-1.9,2.7-3.2,4.8-3.2
			c2.1,0,4,1.3,4.8,3.2h10.3c2.4,0,4.3,1.9,4.3,4.3v27.3c0,0.7-0.6,1.2-1.2,1.2s-1.2-0.6-1.2-1.2V8.2c0-1-0.8-1.8-1.8-1.8H28.3
			l-0.2-1c-0.3-1.3-1.4-2.2-2.7-2.2c-1.3,0-2.4,0.9-2.7,2.2l-0.2,1H9.5c-1,0-1.8,0.8-1.8,1.8v36.7c0,1,0.8,1.8,1.8,1.8h24.3
			c0.7,0,1.2,0.6,1.2,1.2S34.5,49.3,33.8,49.3z"/>
	</g>
	<g>
		<circle class="st2" cx="25.5" cy="5.9" r="1.6"/>
	</g>
	<g>
		<path class="st2" d="M40.5,44.9H9.3V7.4h7.3v4.3c0,0.1,0,0.1,0.1,0.1H34c0.1,0,0.1,0,0.1-0.1V7.4h6.4V44.9z M10.8,43.4H39V8.9
			h-3.4v2.8c0,0.9-0.7,1.6-1.6,1.6H16.7c-0.9,0-1.6-0.7-1.6-1.6V8.9h-4.3V43.4z"/>
	</g>
	<g>
		<path class="st2" d="M18.8,23h-3.5c-0.8,0-1.4-0.6-1.4-1.4v-3.5c0-0.8,0.6-1.4,1.4-1.4h3.5c0.8,0,1.4,0.6,1.4,1.4v3.5
			C20.2,22.4,19.6,23,18.8,23z M15.4,17.7c-0.2,0-0.4,0.2-0.4,0.4v3.5c0,0.2,0.2,0.4,0.4,0.4h3.5c0.2,0,0.4-0.2,0.4-0.4v-3.5
			c0-0.2-0.2-0.4-0.4-0.4H15.4z"/>
	</g>
	<g>
		<path class="st2" d="M35.4,20.6H22c-0.4,0-0.8-0.3-0.8-0.8s0.3-0.8,0.8-0.8h13.4c0.4,0,0.8,0.3,0.8,0.8S35.8,20.6,35.4,20.6z"/>
	</g>
	<g>
		<path class="st2" d="M18.8,31.3h-3.5c-0.8,0-1.4-0.6-1.4-1.4v-3.5c0-0.8,0.6-1.4,1.4-1.4h3.5c0.8,0,1.4,0.6,1.4,1.4v3.5
			C20.2,30.7,19.6,31.3,18.8,31.3z M15.4,26c-0.2,0-0.4,0.2-0.4,0.4v3.5c0,0.2,0.2,0.4,0.4,0.4h3.5c0.2,0,0.4-0.2,0.4-0.4v-3.5
			c0-0.2-0.2-0.4-0.4-0.4H15.4z"/>
	</g>
	<g>
		<path class="st2" d="M35.4,28.9H22c-0.4,0-0.8-0.3-0.8-0.8s0.3-0.8,0.8-0.8h13.4c0.4,0,0.8,0.3,0.8,0.8S35.8,28.9,35.4,28.9z"/>
	</g>
	<g>
		<path class="st2" d="M35.4,37.2H22c-0.4,0-0.8-0.3-0.8-0.8s0.3-0.8,0.8-0.8h13.4c0.4,0,0.8,0.3,0.8,0.8S35.8,37.2,35.4,37.2z"/>
	</g>
	<g>
		<g>
			<path class="st2" d="M15.3,35.6l1.1,0.9l2.8-2.3c0.1-0.1,0.3-0.2,0.5-0.2c-0.2-0.3-0.5-0.4-0.8-0.4h-3.8c-0.5,0-1,0.4-1,1v1.2
				C14.5,35.4,15,35.4,15.3,35.6z"/>
		</g>
		<g>
			<path class="st2" d="M16.5,38.7L14.3,37c0,0-0.1-0.1-0.1-0.1v1.4c0,0.5,0.4,1,1,1H19c0.5,0,1-0.4,1-1v-2.5L16.5,38.7z"/>
		</g>
	</g>
</g>
</svg>
