<?xml version="1.0" encoding="utf-8"?>
<!-- Generator: Adobe Illustrator 24.0.0, SVG Export Plug-In . SVG Version: 6.00 Build 0)  -->
<svg version="1.1" id="Layer_1" xmlns="http://www.w3.org/2000/svg" xmlns:xlink="http://www.w3.org/1999/xlink" x="0px" y="0px"
	 viewBox="0 0 50 50" style="enable-background:new 0 0 50 50;" xml:space="preserve">
<style type="text/css">
	.st0{fill:#A6C1C2;}
	.st1{fill:#B9D7D9;}
	.st2{fill:#444444;}
	.st3{fill:#494949;}
	.st4{fill:none;}
</style>
<g>
	<g>
		<path class="st0" d="M12.7,35.1c0-0.8,0.6-1.4,1.4-1.4c0.8,0,1.4,0.6,1.4,1.4v5l5.5-2v-7.5l-7.3-2.4c-0.2-0.1-0.4-0.2-0.5-0.3
			l-5.9,2.2v13l5.5-2V35.1z"/>
	</g>
	<g>
		<path class="st0" d="M42.8,24.2c0-2.3-0.5-4.6-1.3-6.6l-17.2,6.3l0.7,0.3l10.6-4c0.4-0.1,0.8,0,1.2,0.2c0.3,0.3,0.5,0.7,0.5,1.1
			v5.5c0,0.6-0.4,1.1-0.9,1.3l-7.3,2.4v4.5l13.7-5V24.2z"/>
	</g>
	<g>
		<path class="st1" d="M30.1,7.2l0.2,1.1c0.1,0.5,0.1,1.1,0,1.6l-1.4,7.2l-0.1,0.2c-0.6,1.7-1.8,2-3.6,2c-1.8,0-3.7-0.4-4.2-2
			l-0.1-0.2L19.6,10c-0.1-0.5-0.1-1.1,0-1.6l0.2-1.1c-7.4,2.2-12.6,9-12.6,17v5.9l5.9-2.2c-0.3-0.3-0.4-0.6-0.4-1v-5.5
			c0-0.4,0.2-0.8,0.5-1.1c0.3-0.3,0.8-0.4,1.2-0.2l9.9,3.7l17.2-6.3C39.5,12.7,35.4,8.8,30.1,7.2z"/>
	</g>
	<g>
		<g>
			<g>
				<path class="st2" d="M27.7,8.9l-1.4-7.1c-0.4-1.2-2.2-1.2-2.6,0l-1.4,7.1c0,0.2,0,0.4,0,0.5l1.4,7c0.4,1.2,2.2,1.2,2.6,0l1.4-7
					C27.7,9.3,27.7,9.1,27.7,8.9z"/>
			</g>
		</g>
	</g>
	<g>
		<path class="st2" d="M27.9,49.1V29.8L36,27c0,0,0.1-0.1,0.1-0.1v-5.5c0,0,0-0.1,0-0.1l-11,4.1l-10.9-4.1c0,0,0,0-0.1,0
			c0,0,0,0.1,0,0.1v5.5c0,0.1,0,0.1,0.1,0.1l8.1,2.7v19.4l-8-2v-12c0-0.1-0.2-0.1-0.2,0v12L8.1,46C6.9,45.8,6,44.7,6,43.4V24.2
			C6,15.8,11.4,8.5,19.5,6l2-0.6l-0.6,3.2c-0.1,0.4-0.1,0.7,0,1.1l1.4,7.2c0.1,0.3,0.4,1.2,3,1.2c1.7,0,2.1-0.4,2.4-1.2l0-0.1
			l1.4-7.1c0.1-0.4,0.1-0.7,0-1.1l-0.6-3.2l2,0.6C38.6,8.5,44,15.8,44,24.2v7.2c0,0.7-0.6,1.2-1.2,1.2s-1.2-0.6-1.2-1.2v-7.2
			c0-6.6-3.9-12.5-9.8-15.1c0,0.4,0,0.7-0.1,1.1l-1.5,7.5c-0.9,2.6-3,2.9-4.8,2.9c-2.9,0-4.8-1-5.4-2.9l-0.1-0.3l-1.4-7.2
			c-0.1-0.4-0.1-0.7-0.1-1.1c-6,2.6-9.8,8.4-9.8,15.1v19.2c0,0.1,0,0.1,0.1,0.1l2.9,0.6v-9c0-1.4,1.2-2.6,2.6-2.6
			c1.4,0,2.6,1.2,2.6,2.6v10.1l3,0.7V31.6l-6.4-2.1c-1.1-0.4-1.8-1.4-1.8-2.5v-5.5c0-0.8,0.4-1.6,1-2.1c0.6-0.5,1.5-0.7,2.2-0.5
			l0.1,0L25,22.8l10.3-3.8c0.8-0.2,1.6,0,2.3,0.5c0.6,0.5,1,1.3,1,2.1v5.5c0,1.1-0.7,2.1-1.8,2.5l-6.4,2.1v14.4l3-0.7V35.1
			c0-1.4,1.2-2.6,2.6-2.6c1.4,0,2.6,1.2,2.6,2.6v9l2.9-0.6c0.1,0,0.1-0.1,0.1-0.1v-2.3c0-0.7,0.6-1.2,1.2-1.2s1.2,0.6,1.2,1.2v2.3
			c0,1.2-0.9,2.3-2.1,2.6l-5.9,1.2v-12c0-0.1-0.2-0.1-0.2,0v12L27.9,49.1z"/>
	</g>
	<g>
		<path class="st3" d="M26.3,16.4l1.4-7c0-0.2,0-0.4,0-0.5l-1.4-7.1c-0.4-1.2-2.2-1.2-2.6,0l-1.4,7.1c0,0.2,0,0.4,0,0.5l1.4,7
			C24.1,17.7,25.9,17.7,26.3,16.4z"/>
	</g>
	<g>
		<path class="st4" d="M14.1,33.8c-0.8,0-1.4,0.6-1.4,1.4v6l2.7-1v-5C15.4,34.4,14.8,33.8,14.1,33.8z"/>
	</g>
</g>
</svg>
