<svg xmlns="http://www.w3.org/2000/svg" id="Layer_1" x="0" y="0" version="1.1" viewBox="0 0 50 50" xml:space="preserve"><style>.st2{fill:#444}</style><path fill="#a6c1c2" d="M12.7 35.1c0-.8.6-1.4 1.4-1.4.8 0 1.4.6 1.4 1.4v5l5.5-2v-7.5l-7.3-2.4c-.2-.1-.4-.2-.5-.3l-5.9 2.2v13l5.5-2v-6zm30.1-10.9c0-2.3-.5-4.6-1.3-6.6l-17.2 6.3.7.3 10.6-4c.4-.1.8 0 1.2.2.3.3.5.7.5 1.1V27c0 .6-.4 1.1-.9 1.3l-7.3 2.4v4.5l13.7-5v-6z"/><path fill="#b9d7d9" d="M30.1 7.2l.2 1.1c.1.5.1 1.1 0 1.6l-1.4 7.2-.1.2c-.6 1.7-1.8 2-3.6 2s-3.7-.4-4.2-2l-.1-.2-1.3-7.1c-.1-.5-.1-1.1 0-1.6l.2-1.1c-7.4 2.2-12.6 9-12.6 17v5.9l5.9-2.2c-.3-.3-.4-.6-.4-1v-5.5c0-.4.2-.8.5-1.1.3-.3.8-.4 1.2-.2l9.9 3.7 17.2-6.3c-2-4.9-6.1-8.8-11.4-10.4z"/><path d="M27.7 8.9l-1.4-7.1c-.4-1.2-2.2-1.2-2.6 0l-1.4 7.1v.5l1.4 7c.4 1.2 2.2 1.2 2.6 0l1.4-7v-.5z" class="st2"/><path d="M27.9 49.1V29.8L36 27l.1-.1v-5.6l-11 4.1-10.9-4.1h-.1v5.6c0 .1 0 .1.1.1l8.1 2.7v19.4l-8-2v-12c0-.1-.2-.1-.2 0v12l-6-1.1C6.9 45.8 6 44.7 6 43.4V24.2C6 15.8 11.4 8.5 19.5 6l2-.6-.6 3.2c-.1.4-.1.7 0 1.1l1.4 7.2c.1.3.4 1.2 3 1.2 1.7 0 2.1-.4 2.4-1.2v-.1l1.4-7.1c.1-.4.1-.7 0-1.1l-.6-3.2 2 .6C38.6 8.5 44 15.8 44 24.2v7.2c0 .7-.6 1.2-1.2 1.2s-1.2-.6-1.2-1.2v-7.2c0-6.6-3.9-12.5-9.8-15.1 0 .4 0 .7-.1 1.1l-1.5 7.5c-.9 2.6-3 2.9-4.8 2.9-2.9 0-4.8-1-5.4-2.9l-.1-.3-1.4-7.2c-.1-.4-.1-.7-.1-1.1-6 2.6-9.8 8.4-9.8 15.1v19.2c0 .1 0 .1.1.1l2.9.6v-9c0-1.4 1.2-2.6 2.6-2.6 1.4 0 2.6 1.2 2.6 2.6v10.1l3 .7V31.6l-6.4-2.1c-1.1-.4-1.8-1.4-1.8-2.5v-5.5c0-.8.4-1.6 1-2.1s1.5-.7 2.2-.5h.1L25 22.8 35.3 19c.8-.2 1.6 0 2.3.5.6.5 1 1.3 1 2.1v5.5c0 1.1-.7 2.1-1.8 2.5l-6.4 2.1v14.4l3-.7V35.1c0-1.4 1.2-2.6 2.6-2.6 1.4 0 2.6 1.2 2.6 2.6v9l2.9-.6c.1 0 .1-.1.1-.1v-2.3c0-.7.6-1.2 1.2-1.2s1.2.6 1.2 1.2v2.3c0 1.2-.9 2.3-2.1 2.6L36 47.2v-12c0-.1-.2-.1-.2 0v12l-7.9 1.9z" class="st2"/><path fill="#494949" d="M26.3 16.4l1.4-7v-.5l-1.4-7.1c-.4-1.2-2.2-1.2-2.6 0l-1.4 7.1v.5l1.4 7c.4 1.3 2.2 1.3 2.6 0z"/><path fill="none" d="M14.1 33.8c-.8 0-1.4.6-1.4 1.4v6l2.7-1v-5c0-.8-.6-1.4-1.3-1.4z"/></svg>