<svg xmlns="http://www.w3.org/2000/svg" version="1" viewBox="0 0 50 50"><path fill="#FCC34F" d="M45.016 38.573V9.062L41.179 3.25H8.819L4.983 9.062V46.75h17.568z"/><path fill="#FDCF72" d="M41.312 3.451l-.133-.201H8.819L4.983 9.062v7.612z"/><g fill="#444"><path d="M41.854 2H8.148L3.734 8.686V48h32.611a1.25 1.25 0 0 0 0-2.5H6.234V9.437l.084-.128h13.605v9.329h10.149V9.309h13.611l.084.128v29.136a1.25 1.25 0 0 0 2.5 0V8.686L41.854 2zM9.493 4.5h11.194l-.721 4.309H6.648L9.493 4.5zM30.03 8.809L29.31 4.5h11.198l2.845 4.309H30.03z"/><path d="M31.661 42.761h1.014a.125.125 0 0 0 0-.25h-.764v-.016a.125.125 0 0 0-.25 0v.266zm0-1.294a.125.125 0 0 0 .25 0v-1.028a.125.125 0 0 0-.25 0v1.028zm3.492-7.822a.125.125 0 0 0 0-.25h-1.028c-.069 0-.125.055-.125.125s.056.125.125.125h1.028zm-1.931-.125a.125.125 0 0 0-.125-.125h-1.029a.125.125 0 0 0 0 .25h1.029a.125.125 0 0 0 .125-.125zm-1.561 5.889a.125.125 0 0 0 .25 0v-1.028a.125.125 0 0 0-.25 0v1.028zm4.1 3.102a.125.125 0 0 0 0 .25h1.028a.125.125 0 0 0 0-.25h-1.028zm3.085 0h-1.028a.125.125 0 0 0 0 .25h1.028a.125.125 0 0 0 0-.25zm-7.06-7.091a.125.125 0 0 0 .125-.125v-1.028a.125.125 0 0 0-.25 0v1.028c0 .069.056.125.125.125zm-.125 1.933a.125.125 0 0 0 .25 0v-1.028a.125.125 0 0 0-.25 0v1.028zm5.55-3.708a.125.125 0 0 0 0-.25h-1.028a.125.125 0 0 0 0 .25h1.028zm3.692 5.314a.125.125 0 0 0-.125.125v1.029a.125.125 0 0 0 .25 0v-1.029a.124.124 0 0 0-.125-.125zm0-2.057a.125.125 0 0 0-.125.125v1.028a.125.125 0 0 0 .25 0v-1.028a.124.124 0 0 0-.125-.125zm-.731-3.382c0 .069.056.125.125.125h.481v.297a.125.125 0 0 0 .25 0v-.547h-.731a.124.124 0 0 0-.125.125zm.731 7.497a.125.125 0 0 0-.125.125v1.028a.125.125 0 0 0 .25 0v-1.028a.124.124 0 0 0-.125-.125zm0-6.172a.125.125 0 0 0-.125.125v1.029a.125.125 0 0 0 .25 0V34.97a.124.124 0 0 0-.125-.125zm0 7.666h-1.028a.125.125 0 0 0 0 .25h1.028a.125.125 0 0 0 0-.25zm-1.635-8.866a.125.125 0 0 0 0-.25H38.24a.125.125 0 0 0 0 .25h1.028zm-5.565 9.116h1.028a.125.125 0 0 0 0-.25h-1.028a.125.125 0 0 0 0 .25zm1.255-5.378h-.728l.179-.335a2.199 2.199 0 0 1 1.936-1.173c.819 0 1.555.455 1.933 1.165l.315-.379a2.656 2.656 0 0 0-4.764.567l-.053.155h-.905l1.044 1.259 1.043-1.259zm3.903 1.544l.053-.155h.905l-1.044-1.259-1.044 1.259h.729l-.179.335a2.196 2.196 0 0 1-1.935 1.172 2.188 2.188 0 0 1-1.933-1.165l-.315.379a2.655 2.655 0 0 0 4.763-.566z"/></g></svg>