<?xml version="1.0" encoding="utf-8"?>
<!-- Generator: Adobe Illustrator 26.5.0, SVG Export Plug-In . SVG Version: 6.00 Build 0)  -->
<svg version="1.1" id="Camada_3" xmlns="http://www.w3.org/2000/svg" xmlns:xlink="http://www.w3.org/1999/xlink" x="0px" y="0px"
	 viewBox="0 0 50 50" style="enable-background:new 0 0 50 50;" xml:space="preserve">
<style type="text/css">
	.st0{fill:#71BAC0;}
	.st1{fill:#7ED0D6;}
	.st2{fill:#444444;}
	.st3{fill:none;stroke:#444444;stroke-width:2;stroke-miterlimit:10;}
	.st4{fill:none;stroke:#444444;stroke-width:2.5;stroke-linecap:round;stroke-linejoin:round;stroke-miterlimit:10;}
	.st5{fill:none;stroke:#444444;stroke-width:0.75;stroke-linecap:round;stroke-linejoin:round;stroke-miterlimit:10;}
	.st6{fill:none;stroke:#444444;stroke-linecap:round;stroke-linejoin:round;stroke-miterlimit:10;}
	.st7{fill:none;stroke:#444444;stroke-width:2;stroke-linecap:round;stroke-linejoin:round;stroke-miterlimit:10;}
	.st8{fill:#FCC34F;}
	.st9{fill:#FDCF72;}
	.st10{fill:none;stroke:#444444;stroke-width:2.5;stroke-miterlimit:10;}
	.st11{fill:none;stroke:#444444;stroke-miterlimit:10;}
	.st12{fill:none;stroke:#444444;stroke-width:0.75;stroke-miterlimit:10;}
	.st13{fill:none;stroke:#444444;stroke-width:0.5;stroke-miterlimit:10;}
	.st14{fill:none;stroke:#444444;stroke-width:0.25;stroke-miterlimit:10;}
</style>
<g>
	<g>
		<g>
			<polyline class="st0" points="306,306.5 282.9,315 273.5,315.1 269.4,314.1 267.6,313.4 267.6,297.3 305.2,288.8 306.5,294.5 			
				"/>
			<polygon class="st1" points="267.2,295.2 267.3,299.6 267.1,303.3 305.7,289.2 299.7,287.8 291.3,288.4 286.4,288.2 			"/>
		</g>
	</g>
	<g>
		<path class="st2" d="M300.4,312.8c0.8-1.3,1.2-2.9,1.2-4.5c0-5.1-4.2-9.3-9.3-9.3c-5.1,0-9.3,4.2-9.3,9.3c0,5.1,4.2,9.3,9.3,9.3
			c2,0,3.8-0.6,5.4-1.7l5.8,5.8c0.4,0.4,0.9,0.6,1.5,0.6c1.1,0,2.1-0.9,2.1-2.1c0-0.6-0.2-1.1-0.6-1.5L300.4,312.8z M284.2,308.2
			c0-4.4,3.6-8,8-8s8,3.6,8,8s-3.6,8-8,8S284.2,312.6,284.2,308.2z M304.8,320.9c-0.2,0-0.4-0.1-0.5-0.2l-5.7-5.7
			c0.4-0.3,0.7-0.7,1-1.1l5.7,5.7c0.1,0.1,0.2,0.3,0.2,0.5C305.6,320.6,305.2,320.9,304.8,320.9z"/>
	</g>
	<circle class="st3" cx="292.2" cy="308.2" r="7.5"/>
	<g>
		<line class="st4" x1="280.2" y1="321.6" x2="293.6" y2="321.6"/>
		<path class="st4" d="M303,314.5"/>
		<path class="st4" d="M291.5,319.3l0.7,2.2h-10.7l1.6-6.7h-13.6c0,0-2.1-0.4-2.1-2.4s0-7.6,0-7.6v-14.3c0,0,0-2.4,2.8-2.4
			s33.3,0,33.3,0s2.6,0,2.6,2.7c0,3,0,20.7,0,20.7s-0.1,0.9-0.6,1.7"/>
	</g>
	<path class="st2" d="M280.9,308.1v-5.7c0,0-0.2-1-1.4-1c-1.4,0-1.5,0.9-1.5,0.9v5.5"/>
	<line class="st5" x1="269.8" y1="308.2" x2="282" y2="308.2"/>
	<path class="st2" d="M272.7,307.9v-4.2c0,0,0-0.8,1.5-0.8s1.5,0.9,1.5,0.9v4.1"/>
	<path class="st2" d="M286.4,299.6V298c0,0,0-0.9-1.5-0.9s-1.5,0.8-1.5,0.8v4.2v0.8c0,0,0.6-1.5,2.9-3.1l0,0L286.4,299.6
		L286.4,299.6z"/>
	<path class="st2" d="M291.7,297.5v-4.1c0,0,0-0.9-1.5-0.9s-1.5,0.8-1.5,0.8v4.9v0.3c0,0,2-0.6,2.9-0.6L291.7,297.5L291.7,297.5z"/>
	<path class="st2" d="M297,298.7v-2.1c0,0,0-0.9-1.5-0.9s-1.5,0.8-1.5,0.8v1.2v0.4c0,0,1.9,0.4,2.9,1s0,0,0,0L297,298.7L297,298.7z"
		/>
	<path class="st2" d="M302.4,305.9v-12.8c0,0,0-0.9-1.5-0.9s-1.5,0.8-1.5,0.8v7.2v0.6C299.5,300.9,301.9,302.5,302.4,305.9
		L302.4,305.9L302.4,305.9z"/>
	<line class="st6" x1="267.4" y1="311" x2="281.6" y2="311"/>
	<line class="st6" x1="302.2" y1="311" x2="306.2" y2="311"/>
	<path class="st5" d="M287.8,307.1c0,0,0.1-1.1,1-2.1c0.5-0.6,1.5-1.2,2.7-1.2"/>
	<path class="st5" d="M292.9,303.8c0,0,0.5,0,1,0.3"/>
	<polyline class="st7" points="298.2,314.5 304.8,320.9 305.6,320.1 299.1,313.9 	"/>
</g>
<polygon class="st8" points="31.5,35.7 42.6,47.8 10.8,48.1 9,48.1 7.6,48.1 1.3,44.3 2,28.7 29.4,18.6 29.8,31.6 "/>
<polygon class="st9" points="29.9,11.4 29.9,8.1 1.3,18.3 1.5,29.2 29.6,19.1 "/>
<g>
	<path class="st10" d="M15.8,2.6C8.2,2.6,2,5.7,2,9.6v33.8c0,0,0.8,4.6,13.1,4.6c12.3,0,14.4-3.8,14.4-3.8V9.6
		C29.6,5.7,23.4,2.6,15.8,2.6z"/>
	<path class="st2" d="M29.4,31.2H42c0,0,7.5,0.8,7.5,8.6s-7.1,9.4-7.1,9.4H16.4l13-3.8V31.2z"/>
	<ellipse class="st11" cx="15.8" cy="9.6" rx="12.6" ry="6.5"/>
	<line class="st11" x1="15.8" y1="16.1" x2="15.8" y2="48.1"/>
	<line class="st12" x1="20.1" y1="15.6" x2="20.1" y2="47"/>
	<line class="st13" x1="23.5" y1="14.5" x2="23.5" y2="45.9"/>
	<line class="st14" x1="26.4" y1="13.2" x2="26.4" y2="45.9"/>
</g>
</svg>
