<svg xmlns="http://www.w3.org/2000/svg" version="1.0" viewBox="0 0 50 50"><path fill="#71BAC0" d="M45.845 8.355v27.427L17.917 45.945H8.245a5.287 5.287 0 0 1-5.28-5.289V8.355a5.268 5.268 0 0 1 5.166-5.28h.009c.035-.009.07-.009.105-.009h32.311a5.288 5.288 0 0 1 5.289 5.289z"/><path fill="#7ED0D6" d="M45.484 6.44L2.965 21.91V8.355a5.268 5.268 0 0 1 5.166-5.28h.009c.035-.009.07-.009.105-.009h32.311a5.285 5.285 0 0 1 4.928 3.374z"/><g fill="#444"><path d="M40.556 1.816H8.245c-.045 0-.121 0-.216.011a6.487 6.487 0 0 0-6.314 6.528v32.302c0 3.605 2.929 6.539 6.53 6.539h26.238c.197 0 .378-.055.544-.137h1.816l-.843-5.3h.094l.004-.246.007-.367c.015-.488.028-.977.063-1.468.033-.595.091-1.18.175-1.786.234-.359.475-.753.714-1.169l.033-.067c.228-.397.446-.804.666-1.225l.028-.064c.203-.399.397-.807.586-1.227l.428-.993c.144.262.304.533.47.813l.211.359c.314.537.612 1.072.775 1.531.029.295.272 2.751.429 3.451.01.047.021.086.03.115.059.179.597 1.333 1.602 3.431.027.055.074.09.126.113.016.007.029.009.045.013.018.004.035.015.054.015a.25.25 0 0 0 .225-.358c-1.392-2.903-1.559-3.312-1.576-3.367-.104-.323-.318-2.248-.45-3.52a6.446 6.446 0 0 0-.373-.846 15.948 15.948 0 0 0-.429-.783 54.468 54.468 0 0 0-.239-.408c-.264-.445-.512-.865-.69-1.247l-.16-.313-1.003-2.475-.312-1.336.202-.568-.759-.053-.038.032c-1.844 1.545-3.996 2.523-6.061 2.755l-.867.097 4.103.718c1.564 1.742 2.727 2.62 3.711 2.806-.166.362-.335.722-.513 1.072l-.024.055a35.46 35.46 0 0 1-.664 1.216l-.032.065a23.91 23.91 0 0 1-.697 1.135l-.038.103c-.091.64-.151 1.256-.187 1.88-.031.424-.049.891-.062 1.43l-.012.276a21.366 21.366 0 0 1-8.965 2.33c-1.282-.395-2.152-.697-2.815-.98a9.63 9.63 0 0 1-.409-.19c-.048-.024-.105-.048-.151-.072-.024-.624.068-1.556.174-2.48.026-.279.061-.567.096-.855.115-.97.214-1.839.264-2.715l-.486-3.797-.005.01-.04-.32-.048-.126a8.461 8.461 0 0 1-.595-1.476c-.013-.039-.018-.085-.024-.135-.118-1.003.269-4.178.272-4.21a.25.25 0 0 0-.218-.278.256.256 0 0 0-.278.218c-.017.133-.398 3.267-.272 4.331l.006.03a50.613 50.613 0 0 1-1.058 1.582c-1.335 1.936-2.715 3.938-2.856 6.324a5.586 5.586 0 0 1-3.077.911l-.103-.001c-.581-.003-1.219-.086-1.837-.166-.613-.08-1.196-.155-1.711-.155h-.023l-.09-.948c1.166-.216 2.35-.678 3.616-1.421a2.64 2.64 0 0 1 .991-.017l.179.031.136-.258c1.226-2.324 2.493-4.728 3.27-5.598l.057-.11a19.6 19.6 0 0 1 2.284-5.676c.853-.394 2.018-1.18 3.362-2.087.949-.641 1.932-1.303 2.901-1.892l.165-.101-.056-.185c-.01-.036-1.056-3.544-1.444-5.323l-.047-.217-.304.029c-.379-.999-.758-2.117-.809-2.452.059-.025.17-.051.298-.071l.097-.015.024-.004.276-.035-.056-.274-.004-.098c-.011-.077-.017-.154-.025-.23l1.074-3.198 3.181-.752 1.728 2.415v.639l.138.223H30.18v2.459h-.559l-.657.901h1.006l.604.753h-.326c-.112-.008-.38 0-.379 0l-.744.284a.125.125 0 1 0 .092.232l.681-.267.168-.003-.176.418.307.484.404.39-.142.774-1.443.229a.125.125 0 0 0-.104.143c.01.062.062.105.123.105l.02-.001.686-.109 2.619 4 .051.078 4.363-1.31.118.021.084.016c.896.184 1.745.389 2.523.611.413.113.818.234 1.222.362.226.411.437.841.627 1.28.193.444.366.897.528 1.385.231.693.406 1.414.534 2.202l.016.113.082.586.029.029c.094.188.183.384.273.58.043.095.089.185.131.281.081.184.156.376.233.566.049.122.102.24.149.364.067.174.128.353.191.53.051.144.106.285.155.431.055.164.103.33.155.495.051.162.104.323.151.485.043.148.079.297.119.445.048.18.1.361.144.541.036.146.064.291.096.436.04.181.084.363.119.542.031.159.054.314.081.472.021.122.044.245.063.366v1.862a1.25 1.25 0 0 0 2.5 0V8.355a6.55 6.55 0 0 0-6.541-6.539zM8.888 35.392v5.871l-1.588.024-1.17-3.36.673-2.194 2.085-.341zm2.516 6.393a20.706 20.706 0 0 0 4.758-.125c.231-.035.463-.08.685-.123.122-.019.243-.044.365-.07l.67-.172a13.63 13.63 0 0 0 1.029-.313l.081-.027.047-.072c.2-.305.41-.619.626-.945l.445-.671c.186-.282.371-.574.554-.871.144-.222.283-.443.425-.67l.151-.241c.379-.626.759-1.262 1.121-1.914.235-.424.451-.831.652-1.229l.264 2.071c-.055.884-.163 1.837-.267 2.76l-.083.742c-.115 1.011-.215 2.038-.168 2.698l.003.048v.088l.093.051-.266 1.899H8.245a4.04 4.04 0 0 1-4.03-4.039V8.355c0-2.167 1.665-3.9 3.794-4.014v30.688l-1.593.26-.813 2.647 1.343 3.856 1.063-.017v1.772h1.974v-1.811l.711-.016c.242.029.473.047.71.065zm20.303-27.864l-.507-.356-.318-1.137.351.261.979-.227.298-.737.371.601-1.174 1.595zm12.888 17.863l-.013-.05c-.041-.153-.078-.305-.122-.458-.034-.118-.074-.234-.109-.351-.066-.216-.13-.432-.202-.646-.027-.081-.058-.159-.086-.239a22.316 22.316 0 0 0-.267-.739c-.028-.071-.058-.14-.087-.21a23.18 23.18 0 0 0-.304-.737c-.047-.107-.098-.208-.147-.314-.09-.195-.178-.392-.272-.58a14.513 14.513 0 0 0-.637-2.867l-.001-.002v-.001l-.001-.002a15.55 15.55 0 0 0-.543-1.424 16.195 16.195 0 0 0-.696-1.41l-.049-.086-.094-.03a31.514 31.514 0 0 0-1.334-.397 35.011 35.011 0 0 0-2.569-.621l-.043-.008-.782-.15c-.204-.039-.408-.079-.612-.111l-.156-.157-1.935-1.959c.052-.26.097-.519.142-.781.022-.111.042-.222.062-.333l.062-.34.03-.176.031-.188c.044-.266.088-.542.121-.8.013-.064.023-.127.034-.19l.411-.008.045-.188c.698-2.899.547-3.059.45-3.161-.093-.103-.247-.164-.499-.194a18.752 18.752 0 0 0-.22-3.542 15.343 15.343 0 0 0-.161-.867l-.024-.113-.1-.054a4.015 4.015 0 0 0-.434-.201c-.029-.009-.058-.023-.144-.061a4.54 4.54 0 0 0-.553-.203c-1.213-.392-2.48-.437-3.821-.155-.086.016-.171.031-.256.05-.21.051-.424.117-.638.183-.095.031-.191.051-.286.085-.612.21-1.24.485-1.886.827a.214.214 0 0 0-.066.033l-.127.072-.011.141a22.719 22.719 0 0 0-.053 1.653c0 .231 0 .481.009.696a3.38 3.38 0 0 0 .008.428l.053.97a15.479 15.479 0 0 0 .054.538c-.215.042-.456.123-.574.284-.077.113-.206.301.86 3.077l.068.178.242-.023c.365 1.595 1.139 4.24 1.351 4.958-.927.569-1.856 1.197-2.757 1.805-1.306.881-2.54 1.713-3.357 2.077l-.072.032-.041.067a20.1 20.1 0 0 0-2.37 5.827c-.812.943-2.057 3.299-3.266 5.591a3.139 3.139 0 0 0-1.04.055l-.073.028c-1.161.686-2.245 1.128-3.304 1.35-.016-.413-.067-1.39-.183-1.692a.362.362 0 0 0-.054-.124l-.059-.077c-.025-.023-.058-.054-.062-.054v.001c-.027-.027-.055-.055-.105-.088l-.107-.061a.684.684 0 0 0-.146-.085 1.009 1.009 0 0 0-.115-.064l-.098-.046a1.33 1.33 0 0 0-.062-.027l-.074-.692-.389.059V4.325l30.572-.008a4.043 4.043 0 0 1 4.039 4.039v23.428zM33.953 14.927c.118-.856.207-1.713.257-2.567.158.01.259.026.306.038-.007.338-.238 1.492-.482 2.528l-.081.001z"/><path d="M29.723 12.202l-.202-.708-2.083.2-.233.646 2.026.395z"/></g></svg>