<svg xmlns="http://www.w3.org/2000/svg" id="Layer_1" x="0" y="0" version="1.1" viewBox="0 0 50 50" xml:space="preserve"><style>.st2{fill:#444}.st3{fill:#494949}</style><path fill="#46b8b0" d="M38.3 3.2l-31 11.2 5.1 27.4 31-11.3z"/><path fill="#4ecdc4" d="M38.2 2.5c0-.2-.2-.3-.4-.3H5.6c-.1 0-.3.1-.4.2-.1 0-.1.1-.1.3l2.2 11.8 31-11.3-.1-.7z"/><g id="PICTURE_2_"><path d="M19.1 8.7c-.3 0-.6 0-.8.2-.1.1-.2.3-.3.5-.2.5-.1 1 0 1.5.1 1.2.4 2.3.8 3.4s1 2.2 1.6 3.2c.3.5.7 1 1.1 1.4.2.2.3.4.6.4s.5-.1.7-.3c.9-.7 1.5-1.9 1.8-3.1 0-.2-.3-.3-.3-.1-.2.9-.6 1.9-1.3 2.6-.2.2-.3.3-.5.4-.1.1-.3.2-.4.1l-.3-.3c-.4-.4-.7-.8-1-1.3-1.2-1.7-2-3.7-2.4-5.8-.1-.5-.2-1.1-.2-1.7 0-.2 0-.5.2-.7.2 0 .4-.1.7-.1.2 0 .2-.3 0-.3zm-1.5 14.1c3.9.1 7.8.2 11.8.2 1.1 0 2.2 0 3.3.1.2 0 .2-.3 0-.3-3.9-.1-7.8-.2-11.8-.2-1.1 0-2.2 0-3.3-.1-.2 0-.2.3 0 .3zm2 .5c-.1 1.9-.2 3.8-.1 5.8 0 .9.1 1.9.3 2.8.1.4.3.6.6.9.6.5 1.4.6 2.2.8 1 .2 2 .3 3 .4 1 .1 2 .1 3 0 .2 0 .2-.4 0-.3-.9.1-1.7.1-2.6 0-.9-.1-1.7-.2-2.6-.3-.8-.1-1.6-.2-2.3-.6-.4-.2-.8-.4-.9-.8-.3-.8-.3-1.8-.3-2.6V26c0-.9.1-1.7.1-2.6-.1-.3-.4-.3-.4-.1z" class="st2"/><path d="M21.7 33.4c.8.8 1.3 1.9 1.7 3 .4 1.2.9 2.5 1.3 3.7.1.2.4.1.3-.1-.4-1.3-.8-2.6-1.3-3.9-.4-1.1-.9-2.2-1.7-3-.2-.1-.4.1-.3.3z" class="st2"/><path d="M18.7 42.3c1-.6 2.2-.9 3.3-1.2 1.3-.4 2.7-.7 4-1 1-.2 2.1-.5 3.1-.8.2-.1.4-.1.5-.4.1-.2.1-.5.1-.7 0-.9 0-1.7-.1-2.6-.1-1.1-.1-2.2-.2-3.3-.1-.9-.1-1.9-.2-2.8-.1-.7-.1-1.4-.1-2 0-1 .3-2.2 1.2-2.8.6-.4 1.4-.6 2.1-.3.3.1.6.3.8.6.3.3.4.7.5 1.1.4 1.1.6 2.2.7 3.3.3 2.5.3 5.2 0 7.7-.1 1.1-.3 2.2-.5 3.3-.2.7-.4 1.5-.8 2.1-.4.6-1.3.9-2.1 1.1-1.1.3-2.2.4-3.3.4-1.8 0-3.7-.1-5.5-.3h-.3c-.2 0-.3.3-.1.3 1.4.2 2.8.3 4.2.4 1.2 0 2.3 0 3.5-.1 1-.1 2-.3 2.9-.8.3-.2.6-.4.8-.7.2-.3.3-.6.5-.9.4-.9.5-1.8.7-2.8.4-2.5.5-5.1.4-7.7-.1-1.2-.2-2.5-.5-3.7-.1-.5-.2-1-.4-1.5-.1-.4-.3-.8-.6-1.2-.5-.6-1.2-1-2-.9-.9 0-1.6.5-2.1 1.2-1 1.5-.6 3.5-.5 5.2.2 2.1.3 4.2.4 6.3v2.3s-.1 0 0 0c-.1 0-.2.1-.3.1-.5.1-.9.3-1.4.4-2.6.6-5.2 1.1-7.8 2.1-.5.2-1 .4-1.4.6.1-.2.3.1.5 0zm.4-33.4c.1 1.2 1 2.4 2.1 2.8.3.1.5.1.8.2.1 0 .3 0 .4.1.3.1.5.3.7.5.5.5.8 1.2 1 1.9.5 1.6.6 3.3.8 4.9.1.5.1 1.1.2 1.6.2.7.7 1.1 1.3 1.3.8.3 1.7.5 2.5.5s1.6-.1 2.4-.4c.3-.1.5-.2.7-.4.2-.3.4-.6.4-1 .1-.7-.3-1.3-.8-1.8-.6-.6-1.3-1-1.9-1.4-.6-.4-1.2-.7-1.7-1.3-.2-.2-.2-.4-.2-.6 0-.3-.1-.7-.1-1-.1-.9-.1-1.8-.3-2.6-.3-1.7-.8-3.6-2.4-4.5-.5-.3-1-.4-1.5-.5-.6-.1-1.3-.2-1.9-.1-.8.1-1.6.3-2.2.7-.1.1-.2.1-.3.2-.2.1.1.4.2.2h.1c.1 0 .1-.1.2-.1.3-.2.6-.3.8-.4 1.1-.3 2.2-.3 3.3-.1.9.2 1.6.6 2.1 1.4.5.7.8 1.5 1 2.4.2.9.3 1.7.4 2.6.1.7.1 1.4.2 2.1.1.6.5 1 1 1.3.6.5 1.3.8 1.9 1.3.6.4 1.2.9 1.5 1.5.3.5.2 1.3-.2 1.7-.2.2-.4.3-.7.4-.3.1-.7.2-1.1.2-.8.1-1.7.1-2.5-.1-.7-.2-1.4-.4-1.8-1-.2-.4-.2-.8-.3-1.3-.2-1.5-.3-3.1-.6-4.6-.2-.8-.4-1.5-.8-2.2-.3-.5-.7-1.1-1.3-1.3-.4-.1-.8-.1-1.1-.2-.4-.1-.8-.3-1.2-.6-.5-.4-.8-1-.9-1.6v-.2c.2-.8-.2-.8-.2-.5zm-.1 7.8c-.3.9-.5 1.8-.6 2.7 0 .6 0 1.2.3 1.7.4.7 1.3.8 2 .8s1.4-.2 2-.5c.2-.1 0-.4-.2-.3-.4.2-1 .4-1.5.4-.5.1-.9 0-1.4-.1-.3-.1-.5-.2-.7-.5-.3-.4-.3-1-.2-1.5 0-.6.2-1.2.3-1.7.1-.3.2-.6.3-1 .1-.1-.2-.2-.3 0z" class="st2"/></g><path d="M39.7 2.2c-.2-.9-1-1.6-1.9-1.6H5.6c-.6.1-1.2.3-1.5.8-.4.4-.5 1-.4 1.6l4.9 26.6-4.7 17.6h3.8l2.5-9.3 1.8 9.9c.2.9 1 1.6 1.9 1.6h26.4c.7 0 1.2-.6 1.2-1.2s-.6-1.2-1.2-1.2h-26l-2.7-14.6-.8-4.4L6.2 3.2h31.1l6.6 35.6c.1.7.8 1.1 1.5 1 .7-.1 1.1-.8 1-1.5L39.7 2.2z" class="st3"/><path d="M37.8 1.9H5.6c-.4 0-.8.4-.7.8l2.2 11.8.2-.1L5.1 2.7c0-.1 0-.2.1-.3.1-.1.2-.2.4-.2h32.2c.2 0 .4.1.4.3l.1.6.2-.1-.1-.6c0-.2-.3-.5-.6-.5z" class="st3"/></svg>