<svg xmlns="http://www.w3.org/2000/svg" id="Layer_1" x="0" y="0" version="1.1" viewBox="0 0 300 300" xml:space="preserve"><style>.st1{fill:#2d3f42}.st3{fill:#ac549c}.st5{fill:#ffd200}.st6{fill:#bf67ac}.st7{fill:#dd9fd2}</style><circle cx="146.1" cy="151" r="135.3" fill="#38a9c7"/><g id="rooster_3_"><path d="M168.5 246.2h1.6v38h-1.6zm-15.9 0h1.6V286h-1.6z" class="st1"/><path fill="#8e4984" d="M169.3 254.2l25.3-25.3 25.3-25.3-25.3-25.3-25.3-25.3c-14 14-21 32.3-21 50.7 0 18.2 7 36.5 21 50.5z"/><path d="M153.4 254.2l25.3-25.3 25.3-25.3-25.3-25.3-25.3-25.3c-14 14-21 32.3-21 50.7 0 18.2 7 36.5 21 50.5z" class="st3"/><path d="M56.9 136c0 52.8 42.8 95.5 95.5 95.5 52.8 0 95.5-42.8 95.5-95.5h-191z" class="st3"/><path fill="#efc100" d="M220 68.4c18.7 18.7 28 43.1 28 67.5s-9.3 48.9-28 67.6l-33.8-33.8-33.8-33.7 31.6-31.6c10.9-10.8 22.4-22.3 36-36z"/><path d="M118.7 169.8c28 28 73.3 28 101.3 0s28-73.3 0-101.3L118.7 169.8z" class="st5"/><path d="M152.4 136c15.5-15.5 40.7-15.5 56.3 0 15.5 15.5 15.5 40.7 0 56.3-31.1 31.1-81.5 31.1-112.6 0l56.3-56.3z" class="st6"/><path d="M163.7 136c10.9-10.9 28.5-10.9 39.4 0 10.9 10.9 10.9 28.5 0 39.4-21.8 21.8-57 21.8-78.8 0l39.4-39.4z" class="st7"/><path d="M.5 85.3l25.3 25.3L51.1 136c14 14 32.3 21 50.7 21 18.3 0 36.7-7 50.7-21l-25.3-25.3-25.3-25.3c-14-14-32.3-21-50.7-21-18.4-.1-36.8 6.9-50.7 20.9z" class="st6"/><path d="M51.1 102.2L84.9 136c18.6 18.6 48.9 18.7 67.5 0l-33.8-33.8c-18.6-18.6-48.8-18.6-67.5 0z" class="st7"/><path fill="#fac400" d="M253.1 67.7h-29.5c-16.3 0-29.5-13.2-29.5-29.5h29.5c16.3 0 29.5 13.2 29.5 29.5z"/><path d="M220.2 67.7c-9.6 9.6-9.6 25.2 0 34.8 9.6 9.6 25.2 9.6 34.8 0 9.6-9.6 9.6-25.2 0-34.8-9.6-9.6-25.2-9.6-34.8 0z" class="st5"/><path d="M260.2 75.3L299.5 95h-59V75.3z" class="st5"/><circle cx="239.6" cy="78.8" r="6.9" class="st1"/></g></svg>