<?xml version="1.0" encoding="utf-8"?>
<!-- Generator: Adobe Illustrator 26.5.0, SVG Export Plug-In . SVG Version: 6.00 Build 0)  -->
<svg version="1.1" id="Layer_1" xmlns="http://www.w3.org/2000/svg" xmlns:xlink="http://www.w3.org/1999/xlink" x="0px" y="0px"
	 viewBox="0 0 50 50" style="enable-background:new 0 0 50 50;" xml:space="preserve">
<style type="text/css">
	.st0{fill:#A475EF;}
	.st1{fill:#BF94F7;}
	.st2{fill:#444444;}
</style>
<g id="Layer_2_00000059279208837492248030000018353883522086443143_">
</g>
<g>
	<g>
		<g>
			<path class="st0" d="M6.7,38.2l5.6,3.3L45.8,23l-0.1-7.3c0-1.6-0.9-3.1-2.3-4l-16-9.3c-1.4-0.8-3.2-0.8-4.6,0L6.7,11.7
				c-1.4,0.8-2.3,2.3-2.3,4v18.6C4.4,35.9,5.3,37.4,6.7,38.2z"/>
		</g>
		<g>
			<path class="st1" d="M33.9,6.2l-6.5-3.8c-1.4-0.8-3.2-0.8-4.6,0L6.7,11.7c-1.4,0.8-2.3,2.3-2.3,4l-0.3,7.8L33.9,6.2z"/>
		</g>
		<g>
			<path class="st2" d="M25,49.4c-1,0-2-0.3-2.9-0.8L6,39.3c-1.8-1-2.9-3-2.9-5V15.7c0-2.1,1.1-4,2.9-5l16.1-9.3c1.8-1,4-1,5.8,0
				L44,10.7c1.8,1,2.9,3,2.9,5v13.7c0,0.7-0.5,1.2-1.2,1.2s-1.2-0.5-1.2-1.2V15.7c0-1.2-0.6-2.3-1.7-2.9L26.7,3.5
				c-1-0.6-2.3-0.6-3.3,0L7.2,12.8c-1,0.6-1.7,1.7-1.7,2.9v18.6c0,1.2,0.6,2.3,1.7,2.9l16.1,9.3c1,0.6,2.3,0.6,3.3,0l4.4-2.6
				c0.6-0.3,1.3-0.1,1.7,0.4c0.3,0.6,0.1,1.3-0.4,1.7l-4.4,2.6C27,49.1,26,49.4,25,49.4z"/>
		</g>
	</g>
	<g>
		<g>
			<path class="st2" d="M25.6,29.5c0.3,0.3,0.8,0.3,1.1,0l1.2-1.2l0.7-0.7c0.7-0.7,1.7-1.1,2.7-1.1H35c2.1,0,3.9,1.7,3.9,3.9v2.3
				c0,2.1-1.7,3.9-3.9,3.9h-3.1c-0.4,0-0.7,0.3-0.7,0.7c0,0.1,0,0.2,0.1,0.3c0.1,0.2,0.4,0.4,0.7,0.4h3c0.2,0,0.5,0,0.7,0
				c0.5-0.1,1-0.2,1.5-0.4c1.9-0.8,3.2-2.7,3.2-4.9v-2.3c0-3-2.4-5.4-5.4-5.4h-3.7c-1.4,0-2.8,0.6-3.8,1.6l-1.8,1.8l-0.2,0.2
				C25.3,28.8,25.3,29.3,25.6,29.5z"/>
		</g>
		<g>
			<path class="st2" d="M29.6,34c0,0.1,0,0.2,0.1,0.3l0,0c0.1,0.2,0.4,0.4,0.7,0.4H35c1.2,0,2.2-1,2.2-2.2v-2.3
				c0-0.4-0.3-0.7-0.7-0.7s-0.7,0.3-0.7,0.7v2.3c0,0.4-0.3,0.7-0.7,0.7h-4.7c-0.3,0-0.6,0.2-0.7,0.5C29.6,33.9,29.6,34,29.6,34z"/>
		</g>
		<g>
			<path class="st2" d="M20.8,33.4l1.6,3.2c0.1,0.3,0.4,0.4,0.7,0.4h3.4c0.3,0,0.5-0.1,0.6-0.4c0.1-0.2,0.1-0.5,0-0.7l-1.6-3.2
				c-0.1-0.3-0.4-0.4-0.7-0.4h-3.4l0,0c-0.3,0-0.5,0.1-0.6,0.4C20.7,32.9,20.7,33.2,20.8,33.4z M23.5,35.5l-0.8-1.7h1.7l0.8,1.7
				H23.5z"/>
		</g>
		<g>
			<path class="st2" d="M29.2,33.4c0.1,0.1,0.1,0.2,0.2,0.3c0.1,0,0.1,0.1,0.2,0.1s0.2,0,0.2,0c0.2,0,0.5-0.1,0.6-0.3l0.2-0.2
				l0.1-0.1l1.7-2.4c0.2-0.3,0.2-0.8-0.2-1c-0.3-0.2-0.8-0.2-1,0.2L30,31.7l-0.7,1C29.1,32.9,29.1,33.2,29.2,33.4z"/>
		</g>
		<g>
			<path class="st2" d="M36.5,41.3c0.4,0,0.7-0.3,0.7-0.7V37c0-0.4-0.3-0.4-0.7-0.4s-0.7,0-0.7,0.4v3.6
				C35.8,40.9,36.1,41.3,36.5,41.3z"/>
		</g>
		<g>
			<path class="st2" d="M29.1,41.3c0.4,0,0.7-0.3,0.7-0.7v-1.8c0-0.4-0.3-0.7-0.7-0.7s-0.7,0.3-0.7,0.7v1.8
				C28.4,41,28.6,41.3,29.1,41.3z"/>
		</g>
		<g>
			<path class="st2" d="M29.9,20.5v-0.9c0-1.9,1.6-3.5,3.5-3.5s3.5,1.6,3.5,3.5v0.9c0,1.9-1.6,3.5-3.5,3.5S29.9,22.4,29.9,20.5z
				 M31.4,19.6v0.9c0,1.1,0.9,2,2,2c1.1,0,2-0.9,2-2v-0.9c0-1.1-0.9-2-2-2C32.3,17.6,31.4,18.5,31.4,19.6z"/>
		</g>
		<g>
			<path class="st2" d="M16.5,23.8v-0.2c-0.1-0.8-0.3-1.2-0.7-1.6c-0.4-0.5-0.9-1.2-0.9-2.5c0-2.2,1.8-3.9,3.9-4l0,0l0,0l0,0
				c2.2,0,3.9,1.8,3.9,4c0,1.3-0.5,1.9-0.9,2.5c-0.3,0.5-0.6,0.8-0.7,1.6v0.2c0,0.4-0.3,0.7-0.7,0.7h-3.3
				C16.8,24.5,16.5,24.2,16.5,23.8z M20.7,21.1c0.3-0.5,0.6-0.8,0.6-1.6c0-1.4-1.1-2.5-2.5-2.5s-2.5,1.1-2.5,2.5
				c0,0.8,0.3,1.1,0.6,1.6c0.3,0.4,0.7,1,0.9,1.9h1.9C20,22.1,20.4,21.6,20.7,21.1z"/>
		</g>
		<g>
			<path class="st2" d="M20.5,26.8c-0.5,0.2-1.1,0.4-1.6,0.4c-0.7,0-1.2-0.2-1.7-0.4c0,0-0.7-0.3-0.7-0.9v-2.6
				c0-0.4,0.3-0.3,0.7-0.3h3.3c0.4,0,0.7-0.1,0.7,0.3v2.6C21.2,25.9,21.2,26.6,20.5,26.8z M19.6,24.4h-1.8v1c0.6,0.2,1.2,0.2,1.8,0
				V24.4z"/>
		</g>
		<g>
			<path class="st2" d="M18.9,15.2c0.4,0,0.7-0.3,0.7-0.7v-1.8c0-0.4-0.3-0.7-0.7-0.7s-0.7,0.3-0.7,0.7v1.8
				C18.2,14.8,18.5,15.2,18.9,15.2z"/>
		</g>
		<g>
			<path class="st2" d="M24.2,20.5H26c0.4,0,0.7-0.3,0.7-0.7c0-0.4-0.3-0.7-0.7-0.7h-1.8c-0.4,0-0.7,0.3-0.7,0.7
				S23.8,20.5,24.2,20.5z"/>
		</g>
		<g>
			<path class="st2" d="M11.7,20.5h1.8c0.4,0,0.7-0.3,0.7-0.7c0-0.4-0.3-0.7-0.7-0.7h-1.8c-0.4,0-0.7,0.3-0.7,0.7
				S11.3,20.5,11.7,20.5z"/>
		</g>
		<g>
			<path class="st2" d="M23.9,25.5c0.2,0,0.4-0.1,0.5-0.2c0.3-0.3,0.3-0.8,0-1.1L23.2,23c-0.3-0.3-0.8-0.3-1.1,0
				c-0.3,0.3-0.3,0.8,0,1.1l1.3,1.3C23.5,25.5,23.7,25.5,23.9,25.5z"/>
		</g>
		<g>
			<path class="st2" d="M15.1,16.7c0.2,0,0.4-0.1,0.5-0.2c0.3-0.3,0.3-0.8,0-1.1l-1.3-1.3c-0.3-0.3-0.8-0.3-1.1,0s-0.3,0.8,0,1.1
				l1.3,1.3C14.8,16.7,14.9,16.7,15.1,16.7z"/>
		</g>
		<g>
			<path class="st2" d="M22.6,16.7c0.2,0,0.4-0.1,0.5-0.2l1.3-1.3c0.3-0.3,0.3-0.8,0-1.1s-0.8-0.3-1.1,0L22,15.4
				c-0.3,0.3-0.3,0.8,0,1.1C22.3,16.7,22.5,16.7,22.6,16.7z"/>
		</g>
		<g>
			<path class="st2" d="M13.8,25.5c0.2,0,0.4-0.1,0.5-0.2l1.3-1.3c0.3-0.3,0.3-0.8,0-1.1c-0.3-0.3-0.8-0.3-1.1,0l-1.3,1.3
				c-0.3,0.3-0.3,0.8,0,1.1C13.4,25.5,13.6,25.5,13.8,25.5z"/>
		</g>
		<path class="st2" d="M33.3,38.4l-1-1.9l-0.8-1.7l-0.7-1.5l-0.1-0.1l-0.8-1.5l-1.5-2.9c-0.1-0.2-0.4-0.4-0.6-0.4l0,0h-7.2
			c-0.3,0-0.5,0.1-0.6,0.4c-0.1,0.2-0.1,0.5,0,0.7l1.5,3l0.4,0.7l0.1,0.2h1.7l-0.5-0.9L21.9,30h5.5l1.8,3.6l0.5,0.9l0,0l1.6,3.2
			l0.2,0.4H26l-0.7-1.4h-1.7l0.2,0.5l1,2c0.1,0.3,0.4,0.4,0.7,0.4h7.2c0.3,0,0.5-0.1,0.6-0.4C33.4,38.9,33.4,38.6,33.3,38.4z"/>
	</g>
</g>
</svg>
