<svg xmlns="http://www.w3.org/2000/svg" id="Layer_1" x="0" y="0" version="1.1" viewBox="0 0 50 50" xml:space="preserve"><style>.st1{fill:#fdcf72}.st3{fill:none;stroke:#444;stroke-width:.5;stroke-linecap:round;stroke-linejoin:round;stroke-miterlimit:10}</style><path d="M6.3 23.2l-2.7 1c-.2-.4-.2-.8-.2-1.2V7c0-.4.4-.8.8-.7 1.1.1 2.9.1 4.8-.6s3.2-1.7 3.8-2.5c.3-.3.8-.3 1.1 0 .7.8 1.9 1.8 3.9 2.5s3.7.7 4.8.6c.4 0 .8.3.8.7v8h5.9l-6.1 2.2-2.7 1-6.5 2.4-7.7 2.6z" class="st1"/><path fill="#fcc34f" d="M38.1 27.4l9.5-3.5v-8.1c0-2.4-1.9-4.3-4.5-4.2h-8.9c-1.6 0-3.1 1.2-3.5 2.8l-1.6.6-6.1 2.2-2.7 1-6.5 2.3-2.1.8-5.5 1.9-2.7 1c.2.5.5 1 .9 1.4v11c0 1 .4 1.9 1 2.7l2.8-1 21.4-7.8 8.5-3.1z"/><path d="M23.1 6.9V10l-2.7 1-14.3 5.2-2.7 1V6.9c0-.4.4-.8.8-.7 1 .2 2.8.2 4.7-.5s3.2-1.7 3.8-2.5c.3-.3.8-.3 1.1 0 .7.8 1.9 1.8 3.9 2.5s3.7.7 4.8.6c.2 0 .6.2.6.6zm11.2 4.7h4.4l-7.9 2.8c.5-1.6 1.9-2.8 3.5-2.8z" class="st1"/><path d="M8.1 28.7V41c-1.2-.2-2.1-.8-2.8-1.5-.6-.8-1-1.7-1-2.7V25.6c1 1.2 2.3 2.2 3.8 3.1zM30.8 15l-.9 4.2h-6.8V15h7.7z" class="st3"/><path fill="none" stroke="#444" stroke-linecap="round" stroke-linejoin="round" stroke-miterlimit="10" d="M12.4 45.3c-2.4 0-4.3-1.9-4.3-4.3V28.7m15-5.8v-16c0-.4-.4-.7-.8-.7-1.1.1-2.9.1-4.8-.6S14.4 4 13.7 3.2c-.3-.3-.8-.3-1.1 0C12 4 10.8 5 8.8 5.7s-3.7.7-4.8.6c-.4 0-.8.3-.8.7v16c0 .4.1.9.2 1.2.2.5.5 1 .9 1.4 1 1.2 2.3 2.2 3.7 3.1 2.1 1.2 4.1 2.1 4.9 2.4h.5c1.6-.6 9.7-4 9.7-8.2v-3.7h6.8l.9-4.2.1-.5v-.1c.4-1.6 1.8-2.8 3.5-2.8h8.9c2.4 0 4.3 1.9 4.3 4.3"/><path d="M11.7 21l-1.2-1.4-1.6-1.9c-.5-.6-.4-1.4.2-1.9.6-.5 1.4-.4 1.9.2l1.8 2.1 3.5-4.8c.4-.6 1.2-.8 1.8-.3.6.4.8 1.2.3 1.9L15 19.4l-.9 1.2c-1.4 1.9-2.4.4-2.4.4z" class="st3"/><path fill="none" stroke="#444" stroke-linecap="round" stroke-linejoin="round" stroke-miterlimit="10" stroke-width="2.5" d="M48.4 37.3V15.7s-.3-5.3-5.9-5.3h-8.7s-3.8.5-3.8 3.4h-5.7l.1-7.8c0-.4-.4-.7-.8-.7-1.1.1-4.3.1-6.3-.6S14.7 2.9 14 2.1c-.3-.3-1.6-.4-1.9-.1-.7.8-2 1.9-4 2.6s-3.9.7-5 .6c-.4.1-.8.4-.8.8v16.8c0 1 .4 2.5 1.1 3.4l-.2 7s-.4 8.8 4 8.8c0 0 .8 3.9 5.5 3.9h24.2"/><circle cx="36.6" cy="33.1" r="2.5" class="st3"/><path d="M42 33.1c0-.5-.1-.9-.2-1.3l1.9-1.1-1.4-2.6-1.9 1.1c-.7-.6-1.4-1.1-2.3-1.3v-2.2h-3V28c-.9.3-1.6.7-2.3 1.3l-1.9-1.1-1.4 2.6 1.9 1.1c-.1.4-.2.9-.2 1.3s.1.9.2 1.3l-1.9 1.1 1.4 2.6 1.9-1.1c.7.6 1.4 1.1 2.3 1.3v2.2h3v-2.2c.9-.3 1.6-.7 2.3-1.3l1.9 1.1 1.4-2.6-1.9-1.1c.1-.5.2-.9.2-1.4zM20.4 22.5c0 1.7-4 4.2-7.2 5.5-1.6-.7-3.8-1.8-5.2-2.8-.9-.7-1.5-1.3-1.8-1.9-.2-.3-.2-.6-.2-.8V9.7c0-.4.3-.6.6-.7 1-.1 2.1-.3 3.3-.7.7-.2 1.4-.6 2.1-1l.9-.6c.2-.2.6-.2.8 0 .3.2.5.4.9.6.6.4 1.3.8 2.1 1.1 1.2.4 2.3.6 3.3.7.3 0 .6.3.6.6v12.8z" class="st3"/></svg>