<?xml version="1.0" encoding="utf-8"?>
<!-- Generator: Adobe Illustrator 28.0.0, SVG Export Plug-In . SVG Version: 6.00 Build 0)  -->
<svg version="1.1" id="Layer_1" xmlns="http://www.w3.org/2000/svg" xmlns:xlink="http://www.w3.org/1999/xlink" x="0px" y="0px"
	 viewBox="0 0 50 50" style="enable-background:new 0 0 50 50;" xml:space="preserve">
<style type="text/css">
	.st0{fill:#FC9D9A;}
	.st1{fill:none;stroke:#444444;stroke-linecap:round;stroke-linejoin:round;stroke-miterlimit:10;}
	.st2{fill:none;stroke:#444444;stroke-width:2.5;stroke-linecap:round;stroke-linejoin:round;stroke-miterlimit:10;}
	.st3{fill:none;stroke:#444444;stroke-width:0.5;stroke-linecap:round;stroke-linejoin:round;stroke-miterlimit:10;}
</style>
<path class="st0" d="M33.8,2.1L17.3,1.7c-1.1,0-9.6,7.8-9.6,8.9L7.7,30.8L8,39.4l0.2,8.4l9.6,0.5l24.9-8.9V9.1l0,0l-1.1-6.2
	C41.6,1.8,34.9,2.1,33.8,2.1z"/>
<g>
	<g>
		<line class="st1" x1="27" y1="11.8" x2="23.2" y2="26.7"/>
		<path class="st1" d="M30.3,15.2l4.6,3.1c0.5,0.3,0.5,1,0,1.3l-4.7,3.4"/>
		<path class="st1" d="M19.7,22.9L15,19.8c-0.5-0.3-0.5-1,0-1.3l4.7-3.4"/>
	</g>
	<g>
		<path class="st1" d="M16.5,2.6v5.6c0,1.4-1.1,2.5-2.5,2.5H7.7"/>
		<path class="st2" d="M42.3,40.4V4.9c0-1.8-1.4-3.2-3.2-3.2H17.3c-0.8,0-1.6,0.3-2.2,0.9L8.7,8.7c-0.6,0.6-1,1.4-1,2.3v34.1
			c0,1.8,1.4,3.2,3.2,3.2H33"/>
	</g>
	<g>
		<line class="st3" x1="15.4" y1="30.5" x2="25.2" y2="30.5"/>
		<line class="st3" x1="27.5" y1="30.5" x2="34.6" y2="30.5"/>
		<line class="st3" x1="15.4" y1="35.2" x2="27.2" y2="35.2"/>
		<line class="st3" x1="29.6" y1="35.2" x2="34.5" y2="35.2"/>
		<line class="st3" x1="15.4" y1="39.9" x2="20.5" y2="39.9"/>
		<line class="st3" x1="23" y1="39.9" x2="34.6" y2="39.9"/>
	</g>
</g>
</svg>
