<?xml version="1.0" encoding="utf-8"?>
<!-- Generator: Adobe Illustrator 26.4.1, SVG Export Plug-In . SVG Version: 6.00 Build 0)  -->
<svg version="1.1" id="Layer_1" xmlns="http://www.w3.org/2000/svg" xmlns:xlink="http://www.w3.org/1999/xlink" x="0px" y="0px"
	 viewBox="0 0 50 50" style="enable-background:new 0 0 50 50;" xml:space="preserve">
<style type="text/css">
	.st0{fill:#E589EF;}
	.st1{fill:#F799FF;}
	.st2{fill:none;stroke:#444444;stroke-width:2.5;stroke-linecap:round;stroke-linejoin:round;stroke-miterlimit:10;}
	.st3{fill:#444444;}
</style>
<g id="Layer_2_00000059279208837492248030000018353883522086443143_">
</g>
<g>
	<g>
		<polyline class="st0" points="47.4,27.8 46.2,31.2 2.6,47.1 2.2,39.3 2.5,34.1 46.5,17.3 47.4,21 47.4,26.2 		"/>
		<polygon class="st1" points="47.3,10.4 46.7,18 2.5,34.1 2.5,24.5 2.8,20.2 47.4,4 		"/>
		<polyline class="st2" points="12.6,47.1 2.6,47.1 2.6,2.6 47.3,2.6 47.3,47.1 		"/>
	</g>
</g>
<path class="st3" d="M18.1,24.3l3.6-2.9c0.2-0.1,0.4-0.1,0.5,0l3.6,2.9c0.1,0.1,0.3,0.2,0.4,0.2c0.2,0,0.4-0.1,0.6-0.3
	c0.2-0.3,0.2-0.8-0.1-1l-1.9-1.5l1.8-1.4c0.2-0.1,0.4-0.1,0.5,0l1.5,1.2c0.3,0.2,0.8,0.2,1-0.1c0.2-0.3,0.2-0.8-0.1-1L28,19.1
	c-0.7-0.5-1.6-0.5-2.3,0l-2,1.6l-0.6-0.5c-0.7-0.5-1.6-0.5-2.3,0l-3.6,2.9c-0.3,0.2-0.4,0.7-0.1,1C17.4,24.5,17.8,24.5,18.1,24.3z"
	/>
<path class="st3" d="M19.1,19.8c1.2,0,2.1-1,2.1-2.1c0-1.2-1-2.1-2.1-2.1c-1.2,0-2.1,1-2.1,2.1C17,18.9,17.9,19.8,19.1,19.8z
	 M19.1,17c0.4,0,0.7,0.3,0.7,0.7c0,0.4-0.3,0.7-0.7,0.7s-0.7-0.3-0.7-0.7C18.4,17.3,18.7,17,19.1,17z"/>
<path class="st3" d="M36.5,10.9h-23c-1.5,0-2.6,1.2-2.6,2.6v15.2c0,1.5,1.2,2.6,2.6,2.6c0.4,0,0.7-0.3,0.7-0.7s-0.3-0.7-0.7-0.7
	c-0.7,0-1.2-0.5-1.2-1.2V13.5c0-0.7,0.5-1.2,1.2-1.2h23c0.7,0,1.2,0.5,1.2,1.2v15.2c0,0.7-0.5,1.2-1.2,1.2c-0.4,0-0.7,0.3-0.7,0.7
	s0.3,0.7,0.7,0.7c1.5,0,2.6-1.2,2.6-2.6V13.5C39.1,12.1,37.9,10.9,36.5,10.9z"/>
<path class="st3" d="M36.3,28.4V13.9c0-0.4-0.3-0.7-0.7-0.7H14.5c-0.4,0-0.7,0.3-0.7,0.7v14.5c0,0.4,0.3,0.7,0.7,0.7h7
	c0.4,0,0.7-0.3,0.7-0.7s-0.3-0.7-0.7-0.7h-6.3v-13h19.6v13h-3.1c-0.4,0-0.7,0.3-0.7,0.7s0.3,0.7,0.7,0.7h3.9
	C35.9,29.1,36.3,28.8,36.3,28.4z"/>
<path class="st3" d="M22,30.2l-0.4,0.4c-0.3,0.3-0.6,0.8-0.7,1.2l-0.6,2c-0.1,0.3,0,0.5,0.2,0.7c0.1,0.1,0.3,0.2,0.5,0.2
	c0.1,0,0.1,0,0.2,0l2-0.6c0.5-0.1,0.9-0.4,1.2-0.7l0.2-0.2c0,0,0,0,0,0l8.9-8.9c0.5-0.5,0.5-1.4,0-1.9c0,0-0.8-0.8-0.8-0.8
	c-0.5-0.5-1.4-0.5-1.9,0L22,30.2C22,30.2,22,30.2,22,30.2z M22,32.9l0.2-0.7c0-0.1,0.1-0.2,0.2-0.3l0.6,0.6
	c-0.1,0.1-0.2,0.1-0.3,0.2L22,32.9z M31.7,22.5l0.7,0.7l-8.2,8.2l-0.7-0.7L31.7,22.5z"/>
<g>
	<path class="st3" d="M16.2,30.2c0.4,0.2,0.5,0.6,0.3,1l-0.2,0.4l-3.5,6.3h24.4l-3.5-6.3l-0.2-0.4c-0.2-0.3-0.1-0.8,0.3-1
		c0,0,0.7-0.4,1,0.3l4.3,7.7c0.1,0.2,0.1,0.5,0,0.7c-0.1,0.2-0.4,0.4-0.6,0.4H11.6c-0.3,0-0.5-0.1-0.6-0.4c-0.1-0.2-0.1-0.5,0-0.7
		l4.3-7.7C15.3,30.5,15.6,29.9,16.2,30.2z"/>
	<path class="st3" d="M15.6,37.1h18.7c0,0,1.1,0,0.7-1l-1.9-4.5l-0.4-1c-0.1-0.3-0.4-0.4-0.7-0.4h-2.6c-0.4,0-0.7,0.3-0.7,0.7
		c0,0.4,0.3,0.7,0.7,0.7h2.2l1.7,4.1H16.7l1.7-4.1c0,0,0.5,0,0.6,0c0.6,0,0.9-0.4,0.9-0.8c0-0.5-0.5-0.7-0.9-0.7H18
		c-0.3,0-0.5,0.1-0.8,0.8l-0.3,0.7L15,36.1C15,36.1,14.4,37.1,15.6,37.1z"/>
</g>
</svg>
