<?xml version="1.0" encoding="utf-8"?>
<!-- Generator: Adobe Illustrator 27.7.0, SVG Export Plug-In . SVG Version: 6.00 Build 0)  -->
<svg version="1.1" id="Layer_1" xmlns="http://www.w3.org/2000/svg" xmlns:xlink="http://www.w3.org/1999/xlink" x="0px" y="0px"
	 viewBox="0 0 50 50" style="enable-background:new 0 0 50 50;" xml:space="preserve">
<style type="text/css">
	.st0{fill:none;stroke:#444444;stroke-linecap:round;stroke-linejoin:round;stroke-miterlimit:10;}
	.st1{fill:#FDCF72;}
	.st2{fill:#FCC34F;}
	.st3{fill:none;stroke:#444444;stroke-width:0.5;stroke-linecap:round;stroke-linejoin:round;stroke-miterlimit:10;}
	.st4{fill:none;stroke:#444444;stroke-width:2.5;stroke-linecap:round;stroke-linejoin:round;stroke-miterlimit:10;}
</style>
<g>
	<path class="st0" d="M-21.4,38.3"/>
</g>
<g>
	<path class="st1" d="M6.3,23.2l-2.7,1c-0.2-0.4-0.2-0.8-0.2-1.2v-16c0-0.4,0.4-0.8,0.8-0.7C5.3,6.4,7.1,6.4,9,5.7s3.2-1.7,3.8-2.5
		c0.3-0.3,0.8-0.3,1.1,0C14.6,4,15.8,5,17.8,5.7s3.7,0.7,4.8,0.6c0.4,0,0.8,0.3,0.8,0.7V15h5.9l-6.1,2.2l-2.7,1l-6.5,2.4L6.3,23.2z"
		/>
	<path class="st2" d="M38.1,27.4l9.5-3.5v-8.1c0-2.4-1.9-4.3-4.5-4.2h-8.9c-1.6,0-3.1,1.2-3.5,2.8l-1.6,0.6l-6.1,2.2l-2.7,1
		l-6.5,2.3l-2.1,0.8l-5.5,1.9l-2.7,1c0.2,0.5,0.5,1,0.9,1.4v11c0,1,0.4,1.9,1,2.7l2.8-1l21.4-7.8L38.1,27.4z"/>
</g>
<path class="st1" d="M23.1,6.9V10l-2.7,1L6.1,16.2l-2.7,1V6.9c0-0.4,0.4-0.8,0.8-0.7C5.2,6.4,7,6.4,8.9,5.7s3.2-1.7,3.8-2.5
	c0.3-0.3,0.8-0.3,1.1,0C14.5,4,15.7,5,17.7,5.7s3.7,0.7,4.8,0.6C22.7,6.3,23.1,6.5,23.1,6.9z M34.3,11.6h4.4l-7.9,2.8
	C31.3,12.8,32.7,11.6,34.3,11.6z"/>
<path class="st3" d="M8.1,28.7v12.3c-1.2-0.2-2.1-0.8-2.8-1.5c-0.6-0.8-1-1.7-1-2.7V25.6C5.3,26.8,6.6,27.8,8.1,28.7z M30.8,15
	l-0.9,4.2h-6.8V15L30.8,15z"/>
<path class="st0" d="M12.4,45.3c-2.4,0-4.3-1.9-4.3-4.3V28.7 M23.1,22.9v-16c0-0.4-0.4-0.7-0.8-0.7c-1.1,0.1-2.9,0.1-4.8-0.6
	S14.4,4,13.7,3.2c-0.3-0.3-0.8-0.3-1.1,0C12,4,10.8,5,8.8,5.7S5.1,6.4,4,6.3c-0.4,0-0.8,0.3-0.8,0.7v16c0,0.4,0.1,0.9,0.2,1.2
	c0.2,0.5,0.5,1,0.9,1.4c1,1.2,2.3,2.2,3.7,3.1c2.1,1.2,4.1,2.1,4.9,2.4l0.5,0C15,30.5,23.1,27.1,23.1,22.9l0-3.7h6.8l0.9-4.2
	l0.1-0.5v-0.1c0.4-1.6,1.8-2.8,3.5-2.8h8.9c2.4,0,4.3,1.9,4.3,4.3"/>
<path class="st3" d="M11.7,21l-1.2-1.4l-1.6-1.9c-0.5-0.6-0.4-1.4,0.2-1.9c0.6-0.5,1.4-0.4,1.9,0.2l1.8,2.1l3.5-4.8
	c0.4-0.6,1.2-0.8,1.8-0.3c0.6,0.4,0.8,1.2,0.3,1.9L15,19.4l-0.9,1.2C12.7,22.5,11.7,21,11.7,21z"/>
<path class="st4" d="M48.4,37.3c0-7.6,0-21.6,0-21.6s-0.3-5.3-5.9-5.3s-8.7,0-8.7,0S30,10.9,30,13.8h-5.7L24.4,6
	c0-0.4-0.4-0.7-0.8-0.7c-1.1,0.1-4.3,0.1-6.3-0.6S14.7,2.9,14,2.1c-0.3-0.3-1.6-0.4-1.9-0.1c-0.7,0.8-2,1.9-4,2.6s-3.9,0.7-5,0.6
	C2.7,5.3,2.3,5.6,2.3,6v16.8c0,1,0.4,2.5,1.1,3.4l-0.2,7c0,0-0.4,8.8,4,8.8c0,0,0.8,3.9,5.5,3.9c3.3,0,16.2,0,24.2,0"/>
<circle class="st3" cx="36.6" cy="33.1" r="2.5"/>
<path class="st3" d="M42,33.1c0-0.5-0.1-0.9-0.2-1.3l1.9-1.1l-1.4-2.6l-1.9,1.1c-0.7-0.6-1.4-1.1-2.3-1.3v-2.2h-3v2.3
	c-0.9,0.3-1.6,0.7-2.3,1.3l-1.9-1.1l-1.4,2.6l1.9,1.1c-0.1,0.4-0.2,0.9-0.2,1.3s0.1,0.9,0.2,1.3l-1.9,1.1l1.4,2.6l1.9-1.1
	c0.7,0.6,1.4,1.1,2.3,1.3v2.2h3v-2.2c0.9-0.3,1.6-0.7,2.3-1.3l1.9,1.1l1.4-2.6l-1.9-1.1C41.9,34,42,33.6,42,33.1z"/>
<path class="st0" d="M-20.8,41.4"/>
<path class="st3" d="M20.4,22.5c0,1.7-4,4.2-7.2,5.5l0,0c-1.6-0.7-3.8-1.8-5.2-2.8c-0.9-0.7-1.5-1.3-1.8-1.9
	c-0.2-0.3-0.2-0.6-0.2-0.8V9.7c0-0.4,0.3-0.6,0.6-0.7c1-0.1,2.1-0.3,3.3-0.7c0.7-0.2,1.4-0.6,2.1-1l0.9-0.6c0.2-0.2,0.6-0.2,0.8,0
	c0.3,0.2,0.5,0.4,0.9,0.6c0.6,0.4,1.3,0.8,2.1,1.1c1.2,0.4,2.3,0.6,3.3,0.7c0.3,0,0.6,0.3,0.6,0.6V22.5z"/>
</svg>
