<?xml version="1.0" encoding="utf-8"?>
<!-- Generator: Adobe Illustrator 24.0.0, SVG Export Plug-In . SVG Version: 6.00 Build 0)  -->
<svg version="1.1" id="Layer_1" xmlns="http://www.w3.org/2000/svg" xmlns:xlink="http://www.w3.org/1999/xlink" x="0px" y="0px"
	 viewBox="0 0 50 50" style="enable-background:new 0 0 50 50;" xml:space="preserve">
<style type="text/css">
	.st0{fill:#ADE35D;}
	.st1{fill:#C0FF68;}
	.st2{fill:none;stroke:#444444;stroke-width:2.5;stroke-linecap:round;stroke-miterlimit:10;}
	.st3{fill:#444444;}
</style>
<g>
	<path class="st0" d="M28.7,12.5l-0.9,1c-0.1,0.1-0.2,0.3-0.1,0.5c0.1,0.2,0.3,0.3,0.4,0.3h15.6V7L28.7,12.5z"/>
	<path class="st1" d="M43.8,2.2c0,0-0.2,0-0.2,0H27.8c-0.2,0-0.4,0.1-0.5,0.3c-0.1,0.2,0,0.4,0.1,0.5l4.9,5.4l-4,4.4l15.4-5.6V2.2z"
		/>
	<polygon class="st0" points="48.8,26.8 39.3,26.8 39.3,33.1 26.8,33.1 26.8,39.4 14.2,39.4 14.2,45.6 1.6,45.6 1.6,48.8 16.2,48.8 
		48.8,36.9 	"/>
	<polygon class="st2" points="48.4,48.8 1.2,48.8 1.2,45.6 13.9,45.6 13.9,39.4 26.4,39.4 26.4,33.1 38.9,33.1 38.9,26.8 48.4,26.8 
			"/>
	<line class="st2" x1="43.7" y1="26.6" x2="43.7" y2="12.1"/>
	<g>
		<path class="st3" d="M27.3,15.9c-0.6,0-1.3-0.4-1.5-1.1c-0.2-0.6-0.1-1.3,0.3-1.8l4.1-4.4l-4-4.4c-0.5-0.5-0.6-1.2-0.3-1.8
			c0.3-0.7,0.9-1.1,1.6-1.1h15.5c1.1,0,1.4,0.8,1.4,1.3c0,0.7-0.6,1.2-1.2,1.2c-0.1,0-0.2,0-0.3,0H29.1l4.4,4.8l-4.4,4.8l13.9,0
			c0.7,0,1.2,0.6,1.2,1.2s-0.6,1.2-1.2,1.2L27.3,15.9C27.3,15.9,27.3,15.9,27.3,15.9z M27.3,13.4C27.3,13.4,27.3,13.4,27.3,13.4
			L27.3,13.4C27.4,13.4,27.4,13.4,27.3,13.4z M41.8,2.5c0,0.3,0.1,0.5,0.2,0.7C41.8,3,41.8,2.8,41.8,2.5z M27.9,2.4L27.9,2.4
			C27.9,2.4,27.9,2.4,27.9,2.4z"/>
	</g>
</g>
</svg>
