<svg xmlns="http://www.w3.org/2000/svg" id="Layer_1" x="0" y="0" version="1.1" viewBox="0 0 300 300" xml:space="preserve"><style>.st2{fill:#fbc129}.st3{fill:#ef524f}</style><circle cx="145.1" cy="150" r="144.8" fill="#008dd3"/><path fill="#fcd206" d="M299.7 166.1v1.3c0 .2 0 .4-.1.6 0 .2 0 .4-.1.6 0 .2-.1.3-.1.5s-.1.3-.1.5c0 .1-.1.3-.1.4-.1.2-.2.5-.3.7-.1.2-.2.4-.3.7v.1l-.3.6s0 .1-.1.1v.1c-.1.1-.1.2-.1.3 0 .1-.1.2-.1.2 0 .1-.1.1-.1.2-.1.2-.2.3-.3.5 0 .1-.1.1-.1.2 0 0 0 .1-.1.1-.1.1-.1.2-.2.3v.1c0 .1-.1.2-.2.2v.1c0 .1-.1.2-.2.2-.1.2-.2.3-.3.5l-.1.1c-.1.1-.1.2-.2.3-.1.1-.2.3-.3.4 0 .1-.1.2-.2.2-.1.2-.3.3-.4.5 0 .1-.1.1-.2.2-.2.2-.4.5-.6.7l-.6.6-.1.1-.5.5-.1.1-.7.7-.7.7-.1.1-.6.6s-.1 0-.1.1l-.1.1-.3.3-.3.3c-.1 0-.1.1-.2.2-.2.2-.4.4-.6.5-.1.1-.2.1-.3.2-.1 0-.1.1-.2.1-.1.1-.3.2-.4.3l-.3.3c-.2.1-.3.3-.5.4-.2.2-.5.4-.8.6 0 0-.1.1-.2.1-.2.1-.3.3-.5.4-.2.1-.4.3-.6.4-.2.1-.3.2-.5.4l-.3.3c-.2.1-.3.2-.5.4-.1 0-.1.1-.2.2s-.2.1-.3.2c-.3.2-.5.4-.8.6l-.2.2-.9.6-.1.1c-.3.2-.7.5-1 .7-.2.2-.5.3-.7.5-.5.3-1 .6-1.5 1l-.1.1c-.1.1-.3.2-.4.2-.2.1-.4.3-.6.4-.1 0-.1.1-.2.1l-.9.6c-.1.1-.2.1-.3.2-.4.3-.9.5-1.3.8-.3.2-.5.3-.8.5-.6.3-1.2.7-1.8 1.1-.5.3-1 .6-1.5.8-.3.2-.6.3-.9.5-.3.1-.5.3-.8.4-.2.1-.4.2-.5.3-.3.1-.5.3-.8.4-.7.4-1.4.8-2.2 1.2-.1.1-.3.2-.5.2-.1.1-.3.2-.4.2-.6.3-1.3.7-2 1-2 1-4 2-6.1 3.1l-1.2.6c-.3.1-.6.3-.9.4-.7.3-1.3.6-2 .9 0 0-.1 0-.1.1-1.9.9-3.8 1.8-5.8 2.6-.5.2-1 .4-1.5.7-.5.2-1 .4-1.5.7-.5.2-1 .4-1.5.7-.5.2-1 .4-1.5.7-2 .9-4.1 1.7-6.2 2.6-.5.2-1 .4-1.6.6-.5.2-1 .4-1.6.6-.5.2-1 .4-1.6.6-2.6 1-5.3 2-7.9 3-.5.2-1.1.4-1.6.6-1.1.4-2.1.8-3.2 1.2-.3.1-.5.2-.8.3-.3.1-.6.2-.8.3-.5.2-1.1.4-1.6.6-1.5.5-3 1.1-4.5 1.6-.1 0-.2.1-.2.1-.5.2-1 .4-1.6.5-.5.2-1 .4-1.6.5-1 .3-2.1.7-3.1 1-.5.2-1 .3-1.5.5s-1 .3-1.5.5l-1.8.6c-1.4.5-2.9.9-4.3 1.3h-.1c-.5.1-.9.3-1.4.4-.5.2-1 .3-1.5.4-.5.2-1 .3-1.5.4-.5.1-1 .3-1.5.4-.5.1-1 .3-1.5.4-.5.1-1 .3-1.5.4-.5.1-1 .3-1.4.4-.2 0-.4.1-.6.2-.3.1-.6.2-.9.2l-1.2.3c-.1 0-.1 0-.2.1-2 .5-4 1.1-5.9 1.5-.7.2-1.3.3-2 .5-.6.2-1.3.3-1.9.5-1.2.3-2.4.6-3.6.8-4.3 1-8.3 1.7-11.8 2.2-.2 0-.5.1-.7.1-.3 0-.5.1-.8.1h-.2c-1.4.2-2.7.3-3.9.4-.4 0-.7.1-1.1.1-.4 0-.9.1-1.3.1h-2.3c-2.2 0-4-.2-5.2-.7 0 0-.1 0-.1-.1-.1 0-.2-.1-.3-.1h-.1c-.1-.1-.3-.1-.4-.2-.1 0-.2-.1-.3-.1-.1-.1-.3-.1-.4-.2l-.6-.3c-.5-.3-1-.7-1.5-1.1-.2-.1-.3-.3-.5-.4-.1-.1-.3-.2-.4-.4-.9-.8-1.8-1.6-2.8-2.6l-1.3-1.3c-.9-.9-1.8-1.9-2.8-3-.2-.3-.5-.6-.7-.9-.2-.2-.4-.5-.6-.7-.4-.4-.7-.8-1.1-1.3-.1-.1-.2-.3-.3-.4-.2-.2-.4-.4-.6-.7-.3-.4-.6-.7-.9-1.1-.3-.4-.6-.7-.9-1.1-.2-.2-.4-.5-.6-.7-.4-.5-.8-1.1-1.3-1.6 0-.1-.1-.1-.1-.2l-.1-.1c-.5-.6-1-1.3-1.5-1.9-.1-.1-.1-.2-.2-.2-.1-.1-.1-.2-.2-.3-.2-.2-.3-.4-.5-.6-.1-.1-.2-.2-.3-.4-.2-.2-.3-.5-.5-.7-.2-.2-.3-.4-.5-.6-.3-.4-.7-.9-1-1.4-.1-.1-.1-.2-.2-.2-.2-.3-.4-.5-.6-.8-.4-.6-.9-1.2-1.3-1.8-.5-.6-.9-1.3-1.4-1.9l-.1-.1c-.1-.2-.3-.4-.4-.6-3.8-5.5-7.8-11.5-11.7-17.8-.1-.2-.3-.4-.4-.7-.7-1.1-1.3-2.2-2-3.3-.6-.9-1.1-1.8-1.6-2.7l-4.8-8.1c-20.4-35-37.7-74.7-31.9-90.6C63.7 72.2 117.9 35 130 29.3c11.8-5.5 52.4 10.6 77.8 19.8 23 8.4 59.2 20.5 69.9 31.5.7.7 1.3 1.4 1.7 2.1 0 .1.1.1.1.2v.1c.1.2.2.3.3.5.1.2.2.3.3.5.1.2.2.3.2.5l.3.6.3.6c.1.1.1.3.2.4 0 .1.1.2.1.3.1.3.2.5.3.8.1.3.2.5.3.8.4 1.1.9 2.4 1.3 3.8.1.3.2.7.4 1.1.1.4.2.7.4 1.1.1.2.1.4.2.6.1.2.1.4.2.6.1.2.1.4.2.6l.6 1.8c.1.3.2.6.3 1 0 .1.1.2.1.3.2.6.3 1.1.5 1.7.3 1 .6 2.1 1 3.2l1.5 5.1c.2.8.5 1.7.7 2.5.2.6.4 1.3.5 1.9.2.7.4 1.5.6 2.2.3 1.3.7 2.6 1.1 3.9.2.7.4 1.4.5 2.1.2.7.4 1.5.6 2.2.1.5.3 1 .4 1.6.2.8.4 1.7.6 2.5l.3 1.2c.2.8.4 1.7.6 2.5.1.3.1.6.2.8.2.6.3 1.3.5 1.9 0 .2.1.5.2.7.5 2.4 1.1 4.7 1.5 7 0 .2.1.4.1.6 1.6 9.7 2.9 18.3 2.8 23.6z"/><path d="M299.7 166.1c0 .5 0 .9-.1 1.3 0 .2 0 .4-.1.6 0 .4-.1.7-.2 1.1l-.3.9c-.1.2-.2.5-.3.7-.1.2-.2.4-.3.7v.1l-.3.6s0 .1-.1.1c-.1.1-.1.2-.2.3 0 .1-.1.2-.1.2 0 .1-.1.1-.1.2-.1.2-.2.3-.3.5 0 .1-.1.1-.1.2 0 0 0 .1-.1.1-.1.1-.1.2-.2.3v.1c-.1.1-.1.2-.2.2v.1c-.1.1-.2.3-.3.4-.1.1-.2.2-.3.4-.2.2-.4.5-.6.7-.1.1-.1.2-.2.2-.1.2-.3.3-.4.5-.3.3-.5.6-.8.9-.2.2-.4.4-.5.6l-.1.1-.5.5-.1.1-.7.7-.7.7-.1.1-.6.6s-.1 0-.1.1l-.1.1-.3.3-.3.3c-.1 0-.1.1-.2.2-.2.2-.4.4-.6.5-.1.1-.2.1-.3.2-.1.1-.1.1-.2.1-.1.1-.3.2-.4.3l-.3.3c-.2.1-.3.3-.5.4-.2.2-.5.4-.8.6 0 0-.1.1-.2.1-.2.1-.3.3-.5.4-.2.1-.4.3-.6.4-.2.1-.3.2-.5.4l-.3.3c-.2.1-.3.2-.5.4-.1 0-.1.1-.2.2s-.2.1-.3.2c-.3.2-.5.4-.8.6l-.2.2-.9.6-.1.1c-.3.2-.7.5-1 .7-.2.2-.5.3-.7.5-.5.3-1 .6-1.5 1-.2.1-.3.2-.5.3-.2.1-.4.3-.6.4-.1 0-.1.1-.2.1l-.9.6c-.1.1-.2.1-.3.2-.4.3-.9.5-1.3.8-.3.2-.5.3-.8.5-.6.3-1.2.7-1.8 1.1-.5.3-1 .6-1.5.8-.3.2-.6.3-.9.5-.3.1-.5.3-.8.4-.2.1-.4.2-.5.3-.3.1-.5.3-.8.4-.7.4-1.4.8-2.2 1.2-.1.1-.3.2-.5.2-.1.1-.3.2-.4.2-.6.3-1.3.7-2 1-2 1-4 2-6.1 3.1l-1.2.6c-.3.1-.6.3-.9.4-.7.3-1.3.6-2 .9 0 0-.1 0-.1.1-1.9.9-3.8 1.8-5.8 2.6-.5.2-1 .4-1.5.7-.5.2-1 .4-1.5.7-.5.2-1 .4-1.5.7l-.6.3c-.3.1-.6.3-.9.4-2 .9-4.1 1.7-6.2 2.6-.5.2-1 .4-1.6.6-.1 0-.3.1-.4.2-.4.2-.8.3-1.2.5-.4.1-.7.3-1.1.4-.1.1-.3.1-.4.2-2.6 1-5.3 2-7.9 3-.5.2-1.1.4-1.6.6-1.1.4-2.1.8-3.2 1.2-.3.1-.5.2-.8.3-.3.1-.6.2-.8.3-.5.2-1.1.4-1.6.6-1.5.5-3 1.1-4.5 1.6-.1 0-.2.1-.2.1-.5.2-1 .4-1.6.5-.2.1-.3.1-.5.2-.4.1-.7.2-1.1.4-1 .3-2.1.7-3.1 1-.1 0-.3.1-.4.1-.4.1-.8.3-1.2.4-.4.1-.7.2-1.1.3-.1.1-.3.1-.5.2l-1.8.6c-1.4.5-2.9.9-4.3 1.3h-.1c-.5.1-.9.3-1.4.4-.3.1-.6.2-.8.2-.2.1-.4.1-.7.2-.5.2-1 .3-1.5.4-.5.1-1 .3-1.5.4-.2.1-.5.1-.7.2-.3.1-.5.1-.8.2-.5.1-1 .3-1.5.4-.5.1-1 .3-1.4.4-.2 0-.4.1-.6.2-.3.1-.6.2-.9.2l-1.2.3c-.1 0-.1 0-.2.1-2 .5-4 1.1-5.9 1.5-.7.2-1.3.3-2 .5-.6.2-1.3.3-1.9.5-1.2.3-2.4.6-3.6.8-4.3 1-8.3 1.7-11.8 2.2-.2 0-.4.1-.7.1-.3 0-.5.1-.8.1h-.2c-1.4.2-2.7.3-3.9.4-.4 0-.7.1-1.1.1-.4 0-.9.1-1.3.1h-2.3c-2.2 0-4-.2-5.2-.7-.1 0-.3-.1-.4-.2h-.1c-.1-.1-.3-.1-.4-.2-.1 0-.2-.1-.3-.1-.1-.1-.3-.1-.4-.2l-.6-.3c-.5-.3-1-.7-1.5-1.1-.1-.1-.2-.2-.3-.2-.2-.2-.4-.3-.7-.5-.9-.8-1.8-1.6-2.8-2.6l-1.3-1.3c-.9-.9-1.8-1.9-2.8-3-.5-.5-.9-1.1-1.4-1.6-.4-.4-.7-.8-1.1-1.3-.1-.1-.2-.3-.3-.4-.2-.2-.4-.4-.6-.7-.3-.4-.6-.7-.9-1.1-.3-.4-.6-.7-.9-1.1-.2-.2-.4-.5-.6-.7-.4-.5-.8-1.1-1.3-1.6l-.3-.3c-.5-.6-1-1.3-1.5-1.9-.1-.1-.1-.2-.2-.2-.2-.3-.5-.6-.7-.9-.3-.4-.5-.7-.8-1.1-.2-.2-.3-.4-.5-.6-.3-.4-.7-.9-1-1.4-.1-.1-.1-.2-.2-.2-.2-.3-.4-.5-.5-.8-.4-.6-.9-1.2-1.3-1.8-.5-.6-.9-1.3-1.4-1.9l-.1-.1c-.1-.2-.3-.4-.4-.6-3.8-5.5-7.8-11.5-11.7-17.8-.1-.2-.3-.4-.4-.7-.7-1.1-1.3-2.2-2-3.3-.6-.9-1.1-1.8-1.6-2.7l-4.8-8.1c-20.4-35-37.7-74.7-31.9-90.6 3.9-10.7 58.1-47.9 70.2-53.6 11.8-5.5 52.4 10.6 77.8 19.8 23 8.4 59.2 20.5 69.9 31.5.7.7 1.3 1.4 1.7 2.1 0 .1.1.1.1.2v.1c.1.2.2.3.3.5.1.2.2.3.3.5.1.2.2.3.2.5l.3.6.3.6c0 .1.1.3.2.4 0 .1.1.2.1.3.1.3.2.5.3.8.1.3.2.5.3.8.4 1.1.9 2.4 1.3 3.8.1.3.2.7.3 1.1.1.4.2.7.4 1.1.1.2.1.4.2.6.1.2.1.4.2.6.1.2.1.4.2.6l.6 1.8c.1.2.1.4.2.6.1.2.1.4.2.6.2.6.3 1.1.5 1.7.3 1 .6 2.1 1 3.2l1.5 5.1c.2.8.5 1.7.7 2.5.2.6.4 1.3.5 1.9.2.7.4 1.5.6 2.2.3 1.3.7 2.6 1.1 3.9.2.7.4 1.4.5 2.1.2.7.4 1.5.6 2.2.1.2.1.4.2.6.1.3.2.6.2.9.2.8.4 1.7.6 2.5l.3 1.2c.2.8.4 1.7.6 2.5.1.3.1.6.2.8.2.6.3 1.3.5 1.9 0 .2.1.5.2.7.5 2.4 1.1 4.7 1.5 7 0 .2.1.4.1.6 2.3 9.7 3.6 18.3 3.5 23.6z" class="st2"/><path d="M286.1 166.1c-.3.9-.9 1.9-1.7 3-.3.5-.7.9-1.1 1.4l-.5.5c-.3.3-.6.6-.9 1-.5.5-1.1 1.1-1.7 1.6-.4.4-.8.7-1.3 1.1-.4.4-.9.7-1.4 1.1-.5.4-1 .8-1.5 1.1-.3.2-.5.4-.8.6-.3.2-.5.4-.8.6-1.1.8-2.3 1.6-3.6 2.4-.9.6-1.9 1.3-3 1.9-1.4.9-2.8 1.7-4.4 2.6-1.1.6-2.2 1.3-3.4 1.9-2.1 1.2-4.4 2.4-6.8 3.6-.8.4-1.7.8-2.5 1.3-1.6.8-3.2 1.6-4.9 2.3l-2.7 1.2-.6.3c-.8.4-1.7.8-2.6 1.2-2.9 1.3-5.9 2.6-9.1 3.9-1 .4-1.9.8-2.9 1.2-2.5 1-5.1 2.1-7.9 3.1-.7.3-1.3.5-2 .8-.2.1-.4.2-.6.2-25.9 9.7-47.1 15.3-60.3 17.6-3.7-.9-7.6-2.1-11.5-3.5-4.4-1.6-8.5-3.4-12.4-5.3-8.6-10.3-21.2-28.1-34.7-52-22.6-40-29.7-66.2-26.8-74.6 4.2-8.1 50.5-41 63-46.9.1-.1 3.7-1.6 18.6 2.2 10.5 2.7 22.7 7 33.2 10.8 3 1.1 6 2.2 8.9 3.3 2.7 1 5.2 1.9 7.6 2.8 2.4.9 5 1.8 7.6 2.8 2.9 1 5.9 2.1 8.9 3.2 10.5 3.8 22.6 8.4 32.4 13.1 13.9 6.7 15.6 10.1 15.7 10.2 1.4 2.9 3.2 8.1 5.1 14.5 2 6.6 4.2 14.6 6.2 22.5.3 1.1.6 2.2.8 3.2.2.7.3 1.4.5 2.2.6 2.3 1.1 4.5 1.6 6.8.1.5.2.9.3 1.4.5 2.3 1 4.5 1.4 6.6.1.7.3 1.5.4 2.2.4 2.3.8 4.4 1.1 6.3.1.5.2 1.1.2 1.6 0 .3.1.5.1.7 0 .2.1.5.1.7.1.5.1.9.2 1.4 0 .2 0 .4.1.7.6 2.5.6 4.5.4 5.6z" class="st3"/><path fill="#ef3030" d="M145.8 220.1c3.9 1.4 7.8 2.6 11.5 3.5-5.1.9-9 1.3-11.5 1.3-1 0-1.8-.1-2.4-.2-.4-.2-.9-.5-1.4-.9-.2-.2-.4-.3-.6-.5-.8-.7-1.9-1.7-3-2.9l-.5-.5c-.2-.2-.4-.4-.5-.6-.3-.4-.7-.8-1.1-1.2-.6-.7-1.3-1.5-2.1-2.4-.3-.3-.6-.7-.9-1 4 2 8.1 3.8 12.5 5.4z"/><path fill="#f2f2f2" d="M297.2 146c0-.1 0-.2-.1-.3 0 .2.1.2.1.3zm-.1-.2l-.3-1.5c.1.4.2 1 .3 1.5zm.1.2c1.6 8.3 2.6 15.4 2.5 20 0 .5 0 .9-.1 1.3 0 .2 0 .4-.1.6 0-.4.1-.7.1-1.1v-.1c.3-4.5-.7-12-2.4-20.7zm-.4-1.8c-.1-.6-.2-1.2-.4-1.8.2.6.3 1.2.4 1.8zm2.6 24.8l-.3.9c-.1.2-.2.5-.3.7.1-.2.2-.5.3-.7 0-.1.1-.3.1-.4.1-.3.1-.6.2-1 0-.2.1-.4.1-.6v.2c0 .4-.1.7-.1.9zm-.8 2.2c.1-.2.2-.4.3-.7-.2.3-.3.5-.3.7zm-.1.1zm-.3.6l.3-.6-.3.6zm-.1.1c0 .1 0 .1 0 0 0 0 0-.1.1-.1 0 0 0 .1-.1.1zm-.4.8c-.1.2-.2.3-.3.5.1-.2.2-.3.3-.5 0-.1.1-.1.1-.2s.1-.2.1-.2c0 .1-.1.2-.2.4zm-.4.7c0-.1.1-.1.1-.2 0 0-.1.1-.1.2zm-.5.8c-.1.1-.2.3-.3.4-.1.1-.1.2-.2.3.1-.2.2-.3.3-.5.1-.1.1-.2.2-.2 0-.1 0-.1 0 0 .1-.1.2-.2.2-.3v-.1c-.1.1-.1.2-.2.4 0-.1 0-.1 0 0zm-2-39.5c.5 2.4 1.1 4.7 1.5 7-.5-2.3-1-4.6-1.5-7zm.9 41c-.1.1-.1.2-.2.2 0-.1.1-.2.2-.2.1-.1.2-.3.3-.4l.3-.3-.1.1c-.2.1-.4.3-.5.6zm-1.4 1.6l-.6.6-.1.1.1-.1.6-.6c.2-.2.4-.5.6-.7l.2-.2c.1-.2.3-.3.4-.5-.1.2-.3.3-.4.5-.3.3-.6.6-.8.9zm-.3-46.1c-.2-.8-.4-1.7-.6-2.5.2.8.4 1.7.6 2.5zm-.9 47.3l.5-.5c-.2.2-.3.4-.5.5zm0-51.1c-.3-1.2-.6-2.3-.9-3.5.1.3.2.6.2.9.2 1 .4 1.8.7 2.6zm-.2 51.3c.1 0 .1 0 0 0zm-.7.7l.7-.7c-.2.2-.4.5-.7.7zm-.7.7l.7-.7-.7.7zm-.7.6l.6-.6c-.2.3-.4.4-.6.6zm-.2.2l.1-.1c0 .1-.1.1-.1.1zm-1.5 1.3c.2-.2.4-.4.6-.5-.2.2-.4.4-.6.5zm-.9.8c.1-.1.3-.2.4-.3.1 0 .1-.1.2-.1-.3.3-.6.5-.9.8.1-.3.2-.4.3-.4zm-.8.7c.2-.1.3-.3.5-.4-.2.1-.4.2-.5.4zM285 98.5c-.1-.2-.1-.4-.2-.6 0 .1.1.2.1.3.1.2.1.2.1.3zm-.4-1.2c.1.2.1.4.2.6-.3-.8-.5-1.7-.8-2.5.2.7.4 1.3.6 1.9zm-1.1-3.5c.1.2.1.4.2.6-.1-.3-.2-.5-.2-.6zm-.4-1.1c.1.4.2.7.4 1.1-.1-.4-.3-.8-.4-1.1zm-.5 94.6c.1 0 .1-.1.2-.2l-.2.2zm-1.1.7l.1-.1c0 .1 0 .1-.1.1zm-.4-101zm-.3-.7zm-.1-.3c0 .1.1.2.1.3 0-.2-.1-.3-.1-.3zm-.2-.5zm-.2-.6zm-.3-.6zm-.2-.6zm-.3-.5z"/><path fill="#e8c200" d="M299.7 166.1c0 .5 0 .9-.1 1.3 0 .2 0 .4-.1.6 0 .4-.1.7-.2 1.1l-.3.9c-.1.2-.2.5-.3.7-.1.2-.2.4-.3.7v.1l-.3.6s0 .1-.1.1v.1c-.1.1-.1.2-.1.3-.1.1-.2.3-.3.4-.1.2-.2.3-.3.5 0 .1-.1.1-.1.2 0 0 0 .1-.1.1-.1.1-.1.2-.2.3-.1.1-.1.2-.2.3v.1c-.1.1-.2.3-.3.4-.1.1-.1.2-.2.3l-.1.1c-.2.2-.4.5-.6.7-.1.1-.1.2-.2.2-.1.2-.3.3-.4.5-.3.3-.5.6-.8.9l-.6.6-.1.1-.5.5-.1.1-.7.7-.7.7-.1.1-.6.6s-.1 0-.1.1l-.1.1-.3.3-.3.3c-.1 0-.1.1-.2.2-.2.2-.4.4-.6.5-.1.1-.2.1-.3.2-.3.3-.6.5-.9.8-.2.1-.3.3-.5.4-.2.2-.5.4-.8.6 0 0-.1.1-.2.1-.2.1-.3.3-.5.4-.2.1-.4.3-.6.4-.2.1-.3.2-.5.4l-.3.3c-.2.1-.3.2-.5.4-.1 0-.1.1-.2.2s-.2.1-.3.2c-.3.2-.5.4-.8.6l-.2.2-.9.6-.1.1c-.3.2-.7.5-1 .7-.2.2-.5.3-.7.5-.5.3-1 .6-1.5 1 0 0-.1 0-.1.1-.1.1-.3.2-.4.2-.2.1-.4.3-.6.4-.1 0-.1.1-.2.1l-.9.6c-.1.1-.2.1-.3.2-.4.3-.9.5-1.3.8-.3.2-.5.3-.8.5-.6.3-1.2.7-1.8 1.1-.5.3-1 .6-1.5.8-.3.2-.6.3-.9.5-.3.1-.5.3-.8.4-.2.1-.4.2-.5.3-.3.1-.5.3-.8.4-.7.4-1.4.8-2.2 1.2-.1.1-.3.2-.5.2-.1.1-.3.2-.4.2-.7.3-1.3.7-2 1-2 1-4 2-6.1 3.1l-1.2.6c-.3.1-.6.3-.9.4-.7.3-1.3.6-2 .9 0 0-.1 0-.1.1-1.9.9-3.8 1.8-5.8 2.6-.5.2-1 .4-1.5.7-.5.2-1 .4-1.5.7-.5.2-1 .4-1.5.7l-.6.3c-.3.1-.6.3-.9.4-2 .9-4.1 1.7-6.2 2.6-.5.2-1 .4-1.6.6-.1 0-.3.1-.4.2-.8.3-1.5.6-2.3.9-2.8 1.1-5.6 2.2-8.4 3.2-.5.2-1.1.4-1.6.6-1.1.4-2.1.8-3.2 1.2-.3.1-.5.2-.8.3-.3.1-.6.2-.8.3-.5.2-1.1.4-1.6.6-1.5.5-3 1.1-4.5 1.6-.1 0-.2.1-.2.1-.7.2-1.4.5-2.1.7-1.5.5-3.1 1-4.6 1.5-.4.1-.8.3-1.2.4-.4.1-.7.2-1.1.3-.2 0-.3.1-.5.2l-1.8.6c-1.4.5-2.9.9-4.3 1.3h-.1c-.7.2-1.5.4-2.2.7-.2.1-.4.1-.7.2-.5.1-1 .3-1.5.4-.7.2-1.4.4-2.2.6-.3.1-.5.1-.8.2-.5.1-1 .3-1.5.4-.5.1-1 .3-1.4.4-.2 0-.4.1-.6.2-.3.1-.6.2-.9.2l-1.2.3c-.1 0-.1 0-.2.1-2 .5-4 1.1-5.9 1.5-.7.2-1.3.3-2 .5-.6.2-1.3.3-1.9.5-1.2.3-2.4.6-3.6.8-4.3 1-8.3 1.7-11.8 2.2-.2 0-.5.1-.7.1-.3 0-.5.1-.8.1h-.2c-1.4.2-2.7.3-3.9.4-.4 0-.7.1-1.1.1-.4 0-.9.1-1.3.1h-2.3c-2.2 0-4-.2-5.2-.7 0 0-.1 0-.1-.1-.1 0-.2-.1-.4-.1-.1-.1-.3-.1-.4-.2-.1 0-.2-.1-.3-.1-.1-.1-.3-.1-.4-.2l-.6-.3c-.5-.3-1-.7-1.5-1.1-.1-.1-.2-.2-.3-.2l-.2-.2c-.1-.1-.3-.2-.4-.4-.9-.8-1.8-1.6-2.8-2.6l-1.3-1.3c-.9-.9-1.8-1.9-2.8-3-.2-.3-.5-.6-.7-.9-.2-.2-.4-.5-.6-.7-.4-.4-.7-.8-1.1-1.3-.1-.1-.2-.3-.3-.4-.2-.2-.4-.4-.6-.7-.3-.4-.6-.7-.9-1.1-.3-.4-.6-.7-.9-1.1-.2-.2-.4-.5-.6-.7-.4-.5-.8-1.1-1.3-1.6 0-.1-.1-.1-.1-.2l-.1-.1c-.5-.6-1-1.3-1.5-1.9-.1-.1-.1-.2-.2-.2-.1-.1-.1-.2-.2-.3-.2-.2-.3-.4-.5-.6-.1-.1-.2-.2-.3-.4-.3-.4-.7-.9-1-1.3-.3-.4-.7-.9-1-1.4-.1-.1-.1-.2-.2-.2-.2-.3-.4-.5-.5-.8-.4-.6-.9-1.2-1.3-1.8-.5-.6-.9-1.3-1.4-1.9l-.1-.1c-.1-.2-.3-.4-.4-.6-3.8-5.5-7.8-11.5-11.7-17.8-.1-.2-.3-.4-.4-.7-.7-1.1-1.3-2.2-2-3.3-.6-.9-1.1-1.8-1.6-2.7l-4.8-8.1c.6.4 1.3.8 1.9 1.2l-.1.2c4.3 9.8 10.9 18.6 19.8 26.5 1.3 1.1 2.6 2.2 3.9 3.2 4.9 3.9 10.4 7.3 16.4 10.3.3.4.6.7.9 1 .2.2.4.4.5.6.3.4.7.8 1 1.2.2.2.3.4.5.6.2.2.4.4.5.6.2.2.4.4.5.6.2.2.3.4.5.6l.5.5c1.1 1.2 2.2 2.2 3 2.9l.3.3c.1.1.2.2.3.2.6.4 1 .7 1.4.9.5.1 1.3.2 2.4.2 2.5 0 6.4-.4 11.5-1.3 6.9 1.7 13.5 2.6 19.7 2.6 5.9 0 11.5-.8 16.8-2.3 10.7-3.1 18.9-9.1 24.4-18.1 2.8-1.1 5.6-2.1 8.3-3.2.5-.2 1.1-.4 1.6-.6 1.8-.7 3.6-1.4 5.3-2.2.8-.3 1.5-.6 2.3-1 5.5-2.4 10.6-4.7 15.2-7 .8-.4 1.7-.8 2.5-1.3 2.4-1.2 4.7-2.4 6.8-3.6 1.2-.6 2.3-1.3 3.4-1.9.1 0 .1-.1.2-.1l2.1-1.2c.7-.4 1.4-.9 2.1-1.3 1-.6 2-1.3 3-1.9.4-.2.7-.5 1.1-.7.9-.6 1.7-1.2 2.5-1.7.3-.2.6-.4.8-.6 1.3-1 2.5-1.9 3.7-2.9.4-.4.9-.7 1.3-1.1.3-.3.6-.5.8-.8.3-.3.6-.5.8-.8.3-.3.6-.7.9-1l.5-.5c.2-.2.4-.5.6-.7.2-.2.4-.5.5-.7.4-.5.8-1.1 1-1.5.1-.1.1-.2.2-.4s.2-.4.3-.7c.1-.1.1-.3.2-.4.2-1 .2-2.6.1-4.7 0-.3 0-.6-.1-.9-.1-1.1-.2-2.2-.4-3.5-.1-.5-.1-1-.2-1.6-.1-.5-.2-1.1-.3-1.6-.1-.5-.2-.9-.2-1.4-.4-2.4-.9-5-1.5-7.8-.2-.9-.4-1.7-.6-2.6-.1-.6-.2-1.1-.4-1.7-.1-.5-.2-.9-.3-1.4 0-.2-.1-.3-.1-.5-.1-.6-.3-1.3-.4-2-.7-3.2-1.5-6.4-2.3-9.7-.3-1-.5-2-.8-3-.3-1-.5-2-.8-3-.1-.5-.3-1.1-.4-1.6-.1-.4-.2-.9-.4-1.3-.3-1-.5-1.9-.8-2.9-.3-1-.6-2.1-.9-3.1l-.9-3c-.2-.6-.4-1.3-.6-1.9-.3-.9-.6-1.9-.8-2.8 2.3-6 4-12.2 5.3-18.4.2-1.1.5-2.3.7-3.4 0 .1.1.1.1.2v.1c.1.2.2.3.3.5.1.2.2.3.3.5.1.2.2.3.2.5l.3.6.3.6c0 .1.1.3.2.4 0 .1.1.2.1.3.1.3.2.5.3.8.1.3.2.5.3.8.4 1.1.9 2.4 1.3 3.8.1.3.2.7.3 1.1.1.4.2.7.4 1.1.1.2.1.4.2.6.1.2.1.4.2.6.1.2.1.4.2.6l.6 1.8c.1.2.1.4.2.6.1.2.1.4.2.6.2.6.3 1.1.5 1.7.3 1 .6 2.1 1 3.2l1.5 5.1c.2.8.5 1.7.7 2.5.2.6.4 1.3.5 1.9.2.7.4 1.5.6 2.2.3 1.3.7 2.6 1.1 3.9.2.7.4 1.4.5 2.1.2.7.4 1.5.6 2.2.1.2.1.4.2.6.1.3.2.6.2.9.2.8.4 1.7.6 2.5l.3 1.2c.2.8.4 1.7.6 2.5.1.3.1.6.2.8.2.6.3 1.3.5 1.9 0 .2.1.5.2.7.5 2.4 1.1 4.7 1.5 7 0 .2.1.4.1.6 2.4 9.8 3.7 18.4 3.6 23.7z"/><path d="M283.2 170.5c.4-.5.8-.9 1.1-1.4-.3.4-.7.9-1.1 1.4zm-19.8 14.6c-1.1.6-2.2 1.3-3.4 1.9 1.2-.7 2.4-1.3 3.4-1.9zm-117.6 35c-4.4-1.6-8.5-3.4-12.4-5.3.3.4.6.7.9 1l2.1 2.4c.4.4.7.8 1.1 1.2.2.2.3.4.5.6.2.2.3.4.5.5 1.1 1.2 2.2 2.2 3 2.9.2.2.4.3.6.5.6.4 1 .7 1.4.9.5.1 1.3.2 2.4.2 2.5 0 6.4-.4 11.5-1.3-3.9-1-7.7-2.2-11.6-3.6z" class="st3"/><path d="M208.6 140.7c5.3 7.7 6.9 17.8 3.3 27.2-5.8 15.3-22.8 23-38 17.2l-39-14.7c-4.6-1.7-6.8-6.6-5.1-11.2l29.4-78c1.7-4.6 6.6-6.8 11.2-5.1l32.5 12.2c15.3 5.8 23 22.8 17.2 38-2.4 6.3-6.4 11.1-11.5 14.4zm-11.9-36l-24.4-9.2-8.6 22.8 24.4 9.2c6.3 2.4 13.3-.8 15.7-7.1 2.4-6.4-.8-13.3-7.1-15.7zm-1.1 57.1c2.4-6.3-.8-13.3-7.1-15.7l-30.9-11.6-8.6 22.8 30.9 11.6c6.4 2.4 13.3-.7 15.7-7.1z" class="st2"/><path fill="#282828" d="M280.7 86s.1.2.1.3c.1.3.2.5.3.8.1.3.2.5.3.8.4 1.1.9 2.4 1.3 3.8.1.3.2.7.4 1.1.1.4.2.7.4 1.1.1.2.1.4.2.6.1.2.1.4.2.6.1.2.1.4.2.6.3.8.5 1.6.8 2.5.1.2.1.4.2.6.2.6.3 1.1.5 1.7.3 1 .6 2.1 1 3.2l1.5 5.1c.2.8.5 1.7.7 2.5.2.6.4 1.3.5 1.9.2.7.4 1.5.6 2.2.3 1.3.7 2.6 1.1 3.9.2.7.4 1.4.5 2.1.2.7.4 1.5.6 2.2.1.2.1.4.2.6.3 1.2.6 2.3.9 3.5l.3 1.2c.2.8.4 1.7.6 2.5.1.3.1.6.2.8.2.6.3 1.3.5 1.9 0 .2.1.5.2.7.6 2.4 1.1 4.7 1.5 7 0 .2.1.4.1.6.1.6.3 1.2.4 1.8l.3 1.5c0 .1 0 .2.1.3 1.7 8.7 2.7 16.1 2.5 20.7v.1c0 .4-.1.8-.1 1.1 0 .2 0 .4-.1.6-.1.3-.1.7-.2 1 0 .1-.1.3-.1.4-.1.2-.2.5-.3.7-.1.2-.2.4-.3.7v.1l-.3.6c0 .1-.1.1-.1.2-.1.1-.1.2-.1.3 0 .1-.1.2-.1.2 0 .1-.1.1-.1.2-.1.2-.2.3-.3.5 0 .1-.1.1-.1.2 0 0 0 .1-.1.1-.1.1-.1.2-.2.3v.1c0 .1-.1.2-.2.2v.1c0 .1-.1.2-.2.2-.1.2-.2.3-.3.5l-.3.3c-.1.1-.2.3-.3.4-.1.1-.1.2-.2.2-.1.2-.3.3-.4.5l-.2.2c-.2.2-.4.5-.6.7l-.6.6-.1.1-.5.5-.1.1-.7.7-.7.7-.1.1-.6.6s-.1 0-.1.1l-.1.1-.3.3-.3.3c-.1 0-.1.1-.2.2-.2.2-.4.4-.6.5-.1.1-.2.1-.3.2-.1 0-.1.1-.2.1-.1.1-.3.2-.4.3l-.3.3c-.2.1-.3.3-.5.4-.2.2-.5.4-.8.6 0 0-.1.1-.2.1-.2.1-.3.3-.5.4-.2.1-.4.3-.6.4-.2.1-.3.2-.5.4l-.3.3c-.2.1-.3.2-.5.4-.1 0-.1.1-.2.2s-.2.1-.3.2c-.3.2-.5.4-.8.6l-.2.2-.9.6-.1.1c-.3.2-.7.5-1 .7-.2.2-.5.3-.7.5-.5.3-1 .6-1.5 1 0 0-.1 0-.1.1-.1.1-.3.2-.4.2-.2.1-.4.3-.6.4-.1 0-.1.1-.2.1l-.9.6c-.1.1-.2.1-.3.2-.4.3-.9.5-1.3.8-.3.2-.5.3-.8.5-.6.3-1.2.7-1.8 1.1-.5.3-1 .6-1.5.8-.3.2-.6.3-.9.5-.3.1-.5.3-.8.4-.2.1-.4.2-.5.3-.3.1-.5.3-.8.4-.7.4-1.4.8-2.2 1.2-.1.1-.3.2-.5.2-.1.1-.3.2-.4.2-.6.3-1.3.7-2 1-2 1-4 2-6.1 3.1l-1.2.6c-.3.1-.6.3-.9.4-.7.3-1.3.6-2 .9 0 0-.1 0-.1.1-1.9.9-3.8 1.8-5.8 2.6-.5.2-1 .4-1.5.7-.5.2-1 .4-1.5.7-.5.2-1 .4-1.5.7-.5.2-1 .4-1.5.7-2 .9-4.1 1.7-6.2 2.6-.5.2-1 .4-1.6.6-.5.2-1 .4-1.6.6-.5.2-1 .4-1.6.6-2.6 1-5.3 2-7.9 3-.5.2-1.1.4-1.6.6-1.1.4-2.1.8-3.2 1.2-.3.1-.5.2-.8.3-.3.1-.6.2-.8.3-.5.2-1.1.4-1.6.6-1.5.5-3 1.1-4.5 1.6-.1 0-.2.1-.2.1-.5.2-1 .4-1.6.5-.5.2-1 .4-1.6.5-1 .3-2.1.7-3.1 1-.5.2-1 .3-1.5.5s-1 .3-1.5.5l-1.8.6c-1.4.5-2.9.9-4.3 1.3h-.1c-.5.1-.9.3-1.4.4-.5.2-1 .3-1.5.4-.5.2-1 .3-1.5.4-.5.1-1 .3-1.5.4-.5.1-1 .3-1.5.4-.5.1-1 .3-1.5.4-.5.1-1 .3-1.4.4-.2 0-.4.1-.6.2-.3.1-.6.2-.9.2l-1.2.3c-.1 0-.1 0-.2.1-2 .5-4 1.1-5.9 1.5-.7.2-1.3.3-2 .5-.6.2-1.3.3-1.9.5-1.2.3-2.4.6-3.6.8-4.3 1-8.3 1.7-11.8 2.2-.2 0-.5.1-.7.1-.3 0-.5.1-.8.1h-.2c-1.4.2-2.7.3-3.9.4-.4 0-.7.1-1.1.1-.4 0-.9.1-1.3.1H145c-2.2 0-4-.2-5.2-.7-.1 0-.3-.1-.4-.2h-.1c-.1-.1-.3-.1-.4-.2-.1 0-.2-.1-.3-.1-.1-.1-.3-.1-.4-.2l-.6-.3c-.5-.3-1-.7-1.5-1.1-.1-.1-.2-.2-.3-.2-.2-.2-.4-.3-.7-.5-.9-.8-1.8-1.6-2.8-2.6l-1.3-1.3c-.9-.9-1.8-1.9-2.8-3-.5-.5-.9-1.1-1.4-1.6-.4-.4-.7-.8-1.1-1.3-.1-.1-.2-.3-.3-.4-.2-.2-.4-.4-.6-.7-.3-.4-.6-.7-.9-1.1-.3-.4-.6-.7-.9-1.1-.2-.2-.4-.5-.6-.7-.4-.5-.8-1.1-1.3-1.6l-.3-.3c-.5-.6-1-1.3-1.5-1.9-.1-.1-.1-.2-.2-.2-.2-.3-.5-.6-.7-.9-.3-.4-.5-.7-.8-1.1-.2-.2-.3-.4-.5-.6-.3-.4-.7-.9-1-1.4-.1-.1-.1-.2-.2-.2-.2-.3-.4-.5-.5-.8-.4-.6-.9-1.2-1.3-1.8-.5-.6-.9-1.3-1.4-1.9l-.1-.1c-.1-.2-.3-.4-.4-.6 1.7-.4 3.3-.9 5-1.3 2.4-.6 4.7-1.3 7-2 98.7-28.9 135.3-78.3 147.8-102.4 4.5-8.7 6.5-18.7 6.5-18.7s1.6 2.1 1.6 2.5l.6 1.9z" opacity=".1"/></svg>