<?xml version="1.0" encoding="UTF-8"?>
<svg id="Layer_1" data-name="Layer 1" xmlns="http://www.w3.org/2000/svg" version="1.1" viewBox="0 0 50 50">
  <defs>
    <style>
      .cls-1 {
        fill: #5aba52;
      }

      .cls-1, .cls-2 {
        stroke-width: 0px;
      }

      .cls-3, .cls-4, .cls-5 {
        fill: none;
        stroke: #444;
      }

      .cls-3, .cls-5 {
        stroke-linecap: round;
        stroke-linejoin: round;
      }

      .cls-2 {
        fill: #319327;
      }

      .cls-4 {
        stroke-miterlimit: 10;
      }

      .cls-5 {
        stroke-width: 2.5px;
      }
    </style>
  </defs>
  <polygon class="cls-2" points="26.4 19.1 34.3 21.6 27.6 26.3 27.7 34.5 21.1 29.6 13.3 32.2 16 24.5 11.1 17.9 19.3 18 24 11.3 26.4 19.1"/>
  <g>
    <path class="cls-1" d="M47.3,9.1l.2-2.6c.2-1.9-1.3-3.6-3.3-3.6l-39.4-.2c-1.8,0-3.3,1.5-3.3,3.3v23.1c0,0,0,0,0,0v3.6l-.3,12.3c0,1.9,1.5,3.4,3.3,3.4l18-.2c.4,0,.7-.5,1-.6l23.6-8.8v-14.1c0,0,.2-9.2.2-9.2h.5c0-.1-.5-5.5-.5-5.5,0-.2,0-.4,0-.6Z"/>
    <path class="cls-5" d="M32.1,48.4H5.1c-1.9,0-3.4-1.6-3.4-3.5V5.9c0-1.9,1.5-3.5,3.4-3.5h39c1.9,0,3.4,1.6,3.4,3.5v32.5"/>
    <g>
      <g>
        <g>
          <path class="cls-3" d="M23.1,36.3h-8.6c-.9,0-1.7-.8-1.7-1.7v-6.2"/>
          <polyline class="cls-3" points="18.6 31.7 23.4 36.3 18.6 41.3"/>
        </g>
        <g>
          <path class="cls-4" d="M6.9,19.2c1.2-1.1,3.2-2.5,6-2.5s4.8,1.4,6,2.5c.5.5.8,1.3.8,2.3v.5H6.1v-.5c0-1,.3-1.8.8-2.3Z"/>
          <path class="cls-4" d="M10,12.4c0,1.6,1.3,2.9,2.9,2.9s2.9-1.3,2.9-2.9-1.3-2.9-2.9-2.9c-1.6,0-2.9,1.3-2.9,2.9Z"/>
        </g>
      </g>
      <g>
        <g>
          <path class="cls-4" d="M42.3,38.6c-1.2-1.1-3.2-2.5-6-2.5s-4.8,1.4-6,2.5c-.5.5-.8,1.3-.8,2.3v.5h13.6v-.5c0-1-.3-1.8-.8-2.3Z"/>
          <path class="cls-4" d="M36.3,28.9c-1.6,0-2.9,1.3-2.9,2.9s1.3,2.9,2.9,2.9,2.9-1.3,2.9-2.9c0-1.6-1.3-2.9-2.9-2.9Z"/>
        </g>
        <g>
          <path class="cls-3" d="M25.9,14.4h8.6c.9,0,1.7.8,1.7,1.7v6.2"/>
          <polyline class="cls-3" points="30.5 18.9 25.7 14.4 30.5 9.4"/>
        </g>
      </g>
    </g>
  </g>
</svg>