<svg xmlns="http://www.w3.org/2000/svg" version="1" viewBox="0 0 50 50"><path fill="#46B8B0" d="M9.534 32.421a18.827 18.827 0 0 0 10.378 10.068l23.4-8.517a18.702 18.702 0 0 0 2.282-8.963c0-4.748-1.765-9.096-4.682-12.406l.127-4.169s-1.385-1.984-3.736-3.25c-2.344-1.259-4.768-1.332-4.768-1.332L28.992 6.35a17.095 17.095 0 0 0-2.191-.133c-7.744 0-14.397 4.682-17.267 11.374l-4.275 1.712s-.852 2.55-.852 5.707c0 3.15.852 5.707.852 5.707l4.275 1.704z"/><path fill="#4ECDC4" d="M39.028 6.398a10.92 10.92 0 0 0-1.784-1.213c-2.344-1.259-4.768-1.332-4.768-1.332L28.933 6.35a17.095 17.095 0 0 0-2.191-.133c-7.537 0-14.029 4.44-17.018 10.846L39.028 6.398z"/><g fill="#031326"><path d="M20.121 28.724c-1.286-.162-2.498.195-3.405 1.004-.907.808-1.4 1.968-1.388 3.267.011 1.286.518 2.556 1.426 3.574 1.089 1.224 2.568 1.863 3.983 1.862 1.029 0 2.024-.338 2.809-1.037.907-.808 1.4-1.968 1.389-3.267-.012-1.286-.518-2.556-1.426-3.574-.909-1.019-2.112-1.669-3.388-1.829zm3.09 8.297c-1.657 1.474-4.387 1.122-6.085-.784-.827-.929-1.289-2.082-1.299-3.247-.01-1.152.423-2.178 1.221-2.889.671-.598 1.535-.914 2.473-.914.177 0 .356.011.537.033 1.156.145 2.249.736 3.076 1.665s1.289 2.082 1.299 3.247c.01 1.153-.424 2.178-1.222 2.889zm15.74-22.978c-.282.163-.279.597.011 1.408.229.643.617 1.448 1.089 2.265.473.818.976 1.555 1.418 2.076.44.519.767.765 1.023.765a.374.374 0 0 0 .19-.052c.71-.41-.662-2.915-1.1-3.673-.473-.818-.976-1.555-1.418-2.076-.555-.655-.925-.879-1.213-.713zm2.198 3.038c.874 1.514 1.215 2.557 1.243 2.922-.302-.207-1.034-1.023-1.908-2.538-.876-1.515-1.217-2.558-1.244-2.922.302.206 1.035 1.023 1.909 2.538zm-21.626 9.16c-.369.726-.016 1.647.787 2.055.257.131.53.192.794.192.559 0 1.079-.277 1.328-.77.181-.356.196-.769.042-1.161a1.712 1.712 0 0 0-.828-.894c-.804-.406-1.755-.148-2.123.578zm2.485.5a.9.9 0 0 1-.022.751c-.243.479-.894.64-1.45.358-.557-.283-.811-.903-.567-1.383.162-.319.504-.497.879-.497.188 0 .385.045.571.139.275.139.484.364.589.632zm10.584-1.947a3.162 3.162 0 0 0-1.148 1.993c-.114.781.087 1.534.566 2.121s1.176.935 1.964.98a3.179 3.179 0 0 0 2.183-.725c1.303-1.063 1.564-2.908.582-4.114-.982-1.203-2.843-1.319-4.147-.255zm3.248 3.983c-.531.435-1.18.657-1.838.613a2.198 2.198 0 0 1-1.605-.798 2.203 2.203 0 0 1-.459-1.732 2.669 2.669 0 0 1 .971-1.678 2.682 2.682 0 0 1 1.693-.617c.673 0 1.316.27 1.75.8.807.992.578 2.522-.512 3.412z"/><path d="M42.177 12.157l.124-4.098-.237-.34c-.064-.091-1.585-2.245-4.169-3.635-2.574-1.382-5.211-1.477-5.321-1.48l-.417-.013-3.495 2.463A20.011 20.011 0 0 0 8.599 16.619l-4.341 1.738-.184.549c-.038.112-.917 2.782-.917 6.103 0 3.315.879 5.99.917 6.103l.184.551L8.6 33.394c3.044 6.607 9.532 11.095 16.776 11.61l1.592 2.136.473.093c.057.011.855.163 2.016.163.841 0 1.871-.08 2.947-.352a1.25 1.25 0 0 0-.614-2.424c-1.407.355-2.746.29-3.418.22l-1.696-2.276-.596-.024-.021-.002A27.88 27.88 0 0 0 43.843 20.91c.32 1.333.502 2.706.502 4.099a17.57 17.57 0 0 1-2.122 8.37 1.25 1.25 0 1 0 2.195 1.195 20.07 20.07 0 0 0 2.427-9.565 20.005 20.005 0 0 0-4.668-12.852zM24.866 42.446c-6.212-.692-11.695-4.717-14.183-10.518l-.205-.476-4.188-1.67c-.229-.869-.633-2.692-.633-4.772 0-2.083.404-3.905.633-4.773l4.189-1.677.204-.476A17.514 17.514 0 0 1 26.801 7.468c.73 0 1.395.04 2.031.123l.482.062 3.571-2.518c.717.078 2.305.334 3.824 1.151 1.526.821 2.611 2.007 3.066 2.56l-.129 4.214.327.371a17.45 17.45 0 0 1 3.546 6.32c-1.28 10.524-8.578 19.405-18.653 22.695z"/><path d="M20.976 9.071c-2.208.993-3.58 2.569-3.122 3.588.228.507.846.784 1.746.784l.079-.001c.869-.015 1.91-.276 2.931-.735 1.021-.459 1.908-1.064 2.496-1.704.638-.694.86-1.363.625-1.885-.457-1.019-2.546-1.039-4.755-.047zm3.762 1.594c-.543.591-1.372 1.155-2.333 1.586s-1.932.678-2.735.691c-.738.012-1.215-.165-1.36-.488-.29-.644.818-2.004 2.871-2.927 1.068-.48 2.056-.69 2.797-.69.683 0 1.159.178 1.297.487.146.323-.05.812-.537 1.341z"/></g></svg>