<?xml version="1.0" encoding="utf-8"?>
<!-- Generator: Adobe Illustrator 26.5.0, SVG Export Plug-In . SVG Version: 6.00 Build 0)  -->
<svg version="1.1" id="Layer_1" xmlns="http://www.w3.org/2000/svg" xmlns:xlink="http://www.w3.org/1999/xlink" x="0px" y="0px"
	 viewBox="0 0 50 50" style="enable-background:new 0 0 50 50;" xml:space="preserve">
<style type="text/css">
	.st0{fill:#E56060;}
	.st1{fill:#FF6B6B;}
	.st2{fill:#444444;}
	.st3{fill:none;stroke:#444444;stroke-linecap:round;stroke-linejoin:round;stroke-miterlimit:10;}
	.st4{fill:none;stroke:#444444;stroke-width:0.75;stroke-linecap:round;stroke-linejoin:round;stroke-miterlimit:10;}
	.st5{fill:none;stroke:#444444;stroke-width:2.5;stroke-linecap:round;stroke-linejoin:round;stroke-miterlimit:10;}
	.st6{fill:#AFE55D;}
	.st7{fill:#C3FF68;}
	.st8{fill:#444444;stroke:#444444;stroke-miterlimit:10;}
</style>
<g>
	<g>
		<polygon class="st0" points="126.4,586.6 128.1,590.1 128.1,595 114.1,600.1 114,599.5 112.9,599.8 112.8,602.3 113.9,602.8 
			113.9,607.5 111.2,608.7 109,607.1 108.9,602 101.1,604.8 101.1,602.8 96.2,602.4 96.5,592.7 98,591.6 98.2,587 114.9,581 
			115.7,584.3 119.9,582.9 		"/>
		<polygon class="st1" points="114.6,574.3 114.7,575.5 114.7,583.6 98.5,589.4 106,577.6 109.7,573.1 112.7,570.2 114.6,573.5 		
			"/>
	</g>
	<g>
		<g>
			<path class="st2" d="M122.7,605.9l-0.1-2.9l-0.7,0c0.1,0,0.3,0,0.4-0.1c0.2-0.1,0.3-0.2,0.4-0.4c0.1-0.2,0.2-0.4,0.2-0.6v-1.8
				c0-0.1,0-0.3-0.1-0.4c-0.1-0.2-0.2-0.3-0.4-0.4c-0.2-0.1-0.4-0.2-0.6-0.2h-0.4v-3c0,0,0.1-0.1,0.1-0.1c0.1-0.1,0.2-0.1,0.4-0.2
				c0.2-0.1,0.5-0.2,0.7-0.2c0.1,0,0.2,0,0.3-0.1v0.3c0,0.1,0,0.3,0.1,0.4c0.1,0.2,0.2,0.3,0.4,0.4c0.2,0.1,0.4,0.2,0.6,0.2h1.9
				c0.1,0,0.3,0,0.4-0.1c0.2-0.1,0.3-0.2,0.4-0.4c0.1-0.2,0.2-0.3,0.2-0.6v-8.5c0-0.1,0-0.3-0.1-0.4c-0.1-0.2-0.2-0.3-0.4-0.4l0,0
				l0,0c-0.2-0.1-0.4-0.2-0.6-0.2H124c-0.1,0-0.3,0-0.4,0.1c-0.2,0.1-0.3,0.2-0.4,0.4c-0.1,0.2-0.2,0.3-0.2,0.6v0.6h-3
				c-0.9,0-1.7,0.2-2.5,0.5c-1.2,0.5-2.1,1.3-2.8,2.2c-0.7,1-1.1,2.2-1.1,3.5v5h-0.4c-0.1,0-0.3,0-0.4,0.1c-0.2,0.1-0.3,0.2-0.4,0.4
				c-0.1,0.2-0.2,0.3-0.2,0.6v1.8c0,0.1,0,0.3,0.1,0.4c0.1,0.2,0.2,0.3,0.4,0.4c0.2,0.1,0.4,0.2,0.6,0.2h0.4l0.2,3
				c0,0.3-0.1,0.6-0.2,0.8c-0.2,0.4-0.4,0.7-0.8,0.9c-0.3,0.2-0.8,0.4-1.2,0.4l0,0c0,0,0,0,0,0c-0.3,0-0.6-0.1-0.9-0.2
				c-0.4-0.2-0.7-0.4-1-0.8c-0.2-0.3-0.4-0.7-0.4-1.2v0l0-7.2c0-0.8-0.2-1.5-0.4-2.1c-0.4-1-1.2-1.8-2.1-2.4c-0.9-0.6-2-0.9-3.2-0.9
				l0,0l-3.5,0.3v-0.4c0-0.1,0-0.2-0.1-0.4c-0.1-0.2-0.2-0.3-0.3-0.4c-0.1-0.1-0.3-0.2-0.5-0.2h-1.9c-0.1,0-0.3,0-0.4,0.1
				c-0.2,0.1-0.3,0.2-0.4,0.3c-0.1,0.1-0.2,0.3-0.2,0.5v8c0,0.1,0,0.2,0.1,0.4c0.1,0.2,0.2,0.3,0.3,0.4c0.1,0.1,0.3,0.2,0.5,0.2h1.9
				c0.1,0,0.3,0,0.4-0.1c0.2-0.1,0.3-0.2,0.4-0.3c0.1-0.1,0.1-0.2,0.1-0.4c0.1,0,0.2,0,0.3,0.1c0.2,0,0.3,0.1,0.5,0.2
				c0.1,0,0.2,0.1,0.3,0.1c0.1,0,0.1,0.1,0.2,0.1c0,0,0.1,0,0.1,0.1c0,0,0,0,0,0v4.1c0,1.3,0.3,2.6,0.8,3.8c0.5,1.2,1.4,3.3,2.3,4.1
				c0.9,0.9,2,1.6,3.2,2.1c1.2,0.5,2.6,0.8,3.9,0.8c1.3,0,2.7-0.3,3.9-0.8c1.2-0.5,2.3-1.2,3.2-2.1c0.2-0.2,0.4-0.5,0.6-0.7
				c0.2-0.2,0.1-0.5-0.1-0.7c-0.2-0.2-0.5-0.1-0.7,0.1c-0.2,0.2-0.4,0.4-0.6,0.6c-0.8,0.8-1.8,1.4-2.9,1.9c-1.1,0.5-2.3,0.7-3.5,0.7
				c-1.2,0-2.4-0.2-3.5-0.7c-1.1-0.4-2-1.1-2.9-1.9l0,0c-0.8-0.8-1.7-2.8-2.1-3.8c-0.5-1.1-0.7-2.2-0.7-3.4v-4.1c0-0.1,0-0.2,0-0.3
				c0-0.1-0.1-0.2-0.1-0.2c-0.1-0.1-0.2-0.2-0.3-0.3c-0.1-0.1-0.2-0.1-0.3-0.2c-0.2-0.1-0.4-0.2-0.6-0.3c-0.3-0.1-0.6-0.2-0.9-0.3
				c-0.1,0-0.2,0-0.3-0.1v-5.7l3.6-0.3c0.6,0,1.2,0.1,1.8,0.4c0.8,0.3,1.6,0.9,2.1,1.6c0.5,0.7,0.8,1.6,0.8,2.5l0,7.2l0,0
				c0,0.4,0.1,0.8,0.3,1.2c0.2,0.6,0.7,1,1.2,1.4c0.5,0.3,1.1,0.5,1.8,0.5c0,0,0,0,0,0l0,0c0.4,0,0.9-0.1,1.2-0.3
				c0.6-0.2,1.1-0.6,1.4-1.1c0.3-0.5,0.5-1.1,0.5-1.7v0l-0.2-2.9h6.5l0.5,2.9 M97.3,593.6h0.9h0.9v7.2h-0.9h-0.9v-7.5l0,0V593.6z
				 M124,587.8h1.9v7.9H124v-8.2l0,0V587.8z M122.2,594.8c-0.2,0.1-0.4,0.1-0.6,0.2c-0.1,0.1-0.3,0.1-0.4,0.2
				c-0.1,0-0.2,0.1-0.3,0.2c-0.1,0-0.1,0.1-0.2,0.1c-0.1,0.1-0.2,0.2-0.2,0.3c0,0.1-0.1,0.1-0.1,0.2c0,0.1,0,0.1,0,0.2v3.5
				c0,0.1,0.1,0.3,0.2,0.3c0.1,0.1,0.2,0.1,0.4,0.1h0.9v1.8h-8.7v-1.8h0.9c0.1,0,0.3-0.1,0.4-0.1c0.1-0.1,0.1-0.2,0.1-0.3v-5.5
				c0-0.7,0.1-1.4,0.4-2c0.4-0.9,1.1-1.7,1.9-2.3c0.9-0.6,1.9-0.9,3-0.9h2.9v5.7C122.7,594.7,122.5,594.7,122.2,594.8L122.2,594.8
				L122.2,594.8z"/>
			<path class="st3" d="M101.6,593.7c0,0,2.7-2.8,3.5-3.2c0,0-0.4,3,0.3,3.6"/>
			<path class="st3" d="M107.9,595.9c0,0,4-0.9,1.3-4.9c-1.4-2.1-4.2-2.9-0.8-8.3c0,0-0.5,3.1,4.9,5.7c0.8,0.4,2.1,1.1,2.7,1.4"/>
			<path class="st4" d="M98.2,592.9c0,0-1.2-5.2,7.3-13.9c8.2-8.4,7.2-10,7.2-10s2.5,0.6,1.9,8.4c-0.2,2.9-1.9,4.4,0.1,6.6
				c2,2.2,6-0.3,5.3-1.9c0,0,1.5,1,4.3,5.3"/>
		</g>
		<g>
			<path class="st5" d="M121.8,609.2c0-0.1,0-0.2,0.1-0.2C121.9,609,121.8,609.1,121.8,609.2L121.8,609.2z"/>
			<path class="st5" d="M122.2,607.5c-0.1,0.5-0.2,1-0.3,1.5C122.1,608.1,122.2,607.5,122.2,607.5z"/>
			<path class="st5" d="M122.2,607.5c0-0.3,0.1-0.7,0.1-1v-3.1h0.3c0.1,0,0.3,0,0.4-0.1c0.2-0.1,0.3-0.2,0.5-0.4
				c0.1-0.2,0.2-0.4,0.2-0.6v-1.9c0-0.1,0-1,0-1.1c-0.1-0.2-0.2-0.3-0.4-0.4c-0.2-0.1-0.4-0.2-0.6-0.2h-0.5l-0.1-2.4
				c0,0,0.1-0.1,0.1-0.1c0.1-0.1,0.2-0.1,0.4-0.2c0.2-0.1-0.5,0.3-0.2,0.2c0,0,0.2,0,0.3-0.1l0-0.2c0,0.1,0,0.3,0.1,0.4
				c0.1,0.2,0.2,0.3,0.4,0.4c0.2,0.1,0.4,0.2,0.6,0.2l2.9,0c0.1,0,0.3,0,0.4-0.1c0.2-0.1,0.3-0.2,0.5-0.4c0.1-0.2,0.2-0.4,0.2-0.6
				v-8.7c0-0.1,0-0.3-0.1-0.4c-0.1-0.2-0.2-0.3-0.4-0.4c-0.2-0.1-0.4-0.2-0.6-0.2h-1.9c-0.1,0-0.3,0-0.4,0.1c0,0,0,0,0,0
				c-1.6-2.1-3-3.4-4-4.1c-0.4-0.3-0.9-0.1-1,0.4c-0.4,1.5-2.6,3-4.3,1.2c-2-2.2-0.3-3.8-0.1-6.8c0.4-4.4-0.8-6.7-1.9-7.8
				c-0.4-0.4-1.1-0.1-1.1,0.5c0.1,1.5-0.9,4.3-6.3,9c-7.6,6.6-7.8,11.8-7.6,13.6h-0.9c-0.1,0-0.3,0-0.4,0.1
				c-0.2,0.1-0.3,0.2-0.4,0.3c-0.1,0.1-0.2,0.3-0.2,0.5v8.3c0,0.1,0,0.3,0.1,0.4c0.1,0.2,0.2,0.3,0.3,0.4c0.2,0.1,0.3,0.2,0.5,0.2h2
				c0.1,0,0.3,0,0.4-0.1c0.2-0.1,0-0.1,0.1-0.2c0.1-0.1,0.5-0.2,0.5-0.3c0.3,0.1-0.1,0,0,0c0.2,0,0.3,0.1,0.5,0.2
				c0.1,0,0.2,0.1,0.3,0.1c0.1,0,0.1,0.1,0.2,0.1c0,0,0.1,0.1,0.1,0.1c0,0,0,0,0,0l0.3,4.1c0,1.3,0.3,2.7,0.8,3.9
				c0.5,1.2,1.3,2.3,2.2,3.2c0.9,0.9,2,1.6,3.3,2.1c1.3,0.5,2.6,0.8,4,0.8c1.4,0,2.7-0.3,4-0.8c1-0.4,1.9-0.9,2.7-1.6
				C118.6,614,121.9,611.3,122.2,607.5z"/>
		</g>
	</g>
</g>
<g>
	<g>
		<g>
			<path class="st6" d="M1.5,46.9l6.8,0.4l15.8,0l24.7-8.7l0.5-13.5c0.3-1.9-2.2-7-3.7-8.2l-5.9-2.4c-1.5-1.2-6.4-1.9-8.2-1.2
				l-18.9,4.4C10.8,18.4,1.8,22,1.5,23.9L1.1,38.7C0.8,40.6,0,45.6,1.5,46.9z"/>
		</g>
		<g>
			<path class="st7" d="M48,19.9l-8.2-5.4C38.1,13.2,36.4,3,34.5,3.7l-4.7,7.6l-4.7-4.4L22,14.5c-0.4,0.8-3.1-3-4.7-3.5
				c-1-0.3-3.6,7.4-4.5,7.9L7.9,16c-1.9,0.7-4.8,7.3-5.2,9.3v10L48,19.9z"/>
		</g>
		<g>
			<g>
				<path class="st2" d="M8.7,27.8c-2.2,0-3.9-1.8-3.9-3.9c0-2.6,2.2-9.4,3.9-9.4c1.7,0,3.9,6.8,3.9,9.4C12.6,26,10.8,27.8,8.7,27.8
					z M8.7,16.3c-0.8,1.2-2.4,5.1-2.4,7.6c0,1.3,1.1,2.4,2.4,2.4c1.3,0,2.4-1.1,2.4-2.4C11,21.4,9.5,17.5,8.7,16.3z"/>
				<rect x="7.9" y="27" class="st2" width="1.6" height="3.1"/>
				<path class="st2" d="M17.3,23.9c-2.2,0-3.9-1.8-3.9-3.9c0-2.6,2.2-9.4,3.9-9.4c1.7,0,3.9,6.8,3.9,9.4
					C21.2,22.1,19.5,23.9,17.3,23.9z M17.3,12.4c-0.8,1.2-2.4,5.1-2.4,7.6c0,1.3,1.1,2.4,2.4,2.4c1.3,0,2.4-1.1,2.4-2.4
					C19.6,17.5,18.1,13.6,17.3,12.4z"/>
				<rect x="16.5" y="23.1" class="st2" width="1.6" height="3.1"/>
				<path class="st2" d="M25.9,20C23.8,20,22,18.2,22,16c0-2.6,2.2-9.4,3.9-9.4c1.7,0,3.9,6.8,3.9,9.4C29.8,18.2,28.1,20,25.9,20z
					 M25.9,8.5c-0.8,1.2-2.4,5.1-2.4,7.6c0,1.3,1.1,2.4,2.4,2.4c1.3,0,2.4-1.1,2.4-2.4C28.3,13.6,26.7,9.7,25.9,8.5z"/>
				<rect x="25.1" y="19.2" class="st2" width="1.6" height="2.4"/>
				<path class="st2" d="M34.5,16c-2.2,0-3.9-1.8-3.9-3.9c0-2.6,2.2-9.6,3.9-9.4c3.1,0.3,3.9,6.8,3.9,9.4C38.5,14.3,36.7,16,34.5,16
					z M34.5,4.6c-0.8,1.2-2.4,5.1-2.4,7.6c0,1.3,1.1,2.4,2.4,2.4c1.3,0,2.4-1.1,2.4-2.4C36.9,9.6,35.3,5.8,34.5,4.6z"/>
				<path class="st2" d="M3,24.1l-0.8-1.4c0,0,1.2-0.6,3.2-1.6l0.7,1.4C4.1,23.5,3,24.1,3,24.1z"/>
				<rect x="33.7" y="14.8" class="st2" width="1.6" height="3.1"/>
			</g>
			<path class="st5" d="M48.6,38.7V20.2c0,0-0.3-3.9-11.1-5.9c0,0,2.4-0.9-1.4-10.2c-0.1-0.1,0,0-0.4-0.7c-0.6-0.8-1.6-0.6-2-0.2
				c-1.5,1.5-2.4,5.4-3.1,10.2l-1.1,0.4c0,0-1.3-5.4-2.8-7c-0.5-0.5-1.3-0.5-1.6,0.1c-0.7,1.2-2.4,5.3-3.1,9.2l-1.3,0.7
				c0,0-1.5-4.9-2.7-6.6c-0.1-0.1-0.9-0.3-1.2,0.1c-1.3,1.7-2.5,6-3.2,8.5l-1.8,0.7c-0.5,0.2-0.1-0.6-0.3-1.1l-1.9-3.9
				c-0.2-0.3-1.4-0.3-1.6,0c-1.1,1.3-2.1,4.7-2.9,7.8l-3.4,1.6v23h35.7"/>
		</g>
	</g>
	<line class="st8" x1="41.3" y1="15.6" x2="2.2" y2="37"/>
	<line class="st8" x1="44.7" y1="16.4" x2="1.5" y2="44.1"/>
	<line class="st8" x1="45.9" y1="18" x2="20.9" y2="46.5"/>
	<line class="st8" x1="48.3" y1="27.8" x2="35" y2="46.1"/>
	<line class="st8" x1="48.3" y1="20.4" x2="38.5" y2="33.4"/>
	<line class="st8" x1="35.3" y1="37.8" x2="28" y2="46.5"/>
	<line class="st8" x1="17.1" y1="41.2" x2="19.9" y2="38.8"/>
	<line class="st8" x1="21" y1="37.8" x2="24.6" y2="34.9"/>
	<line class="st8" x1="25.5" y1="34.1" x2="28.8" y2="31.1"/>
	<line class="st8" x1="29.4" y1="30.6" x2="32.3" y2="28"/>
	<line class="st8" x1="13.1" y1="44.6" x2="15.9" y2="42.2"/>
	<line class="st8" x1="32.8" y1="27.5" x2="35.7" y2="25"/>
</g>
</svg>
