<svg version="1" xmlns="http://www.w3.org/2000/svg" viewBox="0 0 50 50"><path fill="#FF85AE" d="M6.117 31.69v8.83c0 .208.027.41.066.608a6.513 6.513 0 0 0 4.747 7.37 6.522 6.522 0 0 0 6.463-1.864L21 47.884c2.59.9 5.407.9 7.997 0l3.494-1.212a6.52 6.52 0 0 0 6.43 1.824 6.508 6.508 0 0 0 4.793-6.988 3.14 3.14 0 0 0 .166-.988V28.538c0-3.52-.968-6.81-2.645-9.632L6.117 31.69z"/><path fill="#F56991" d="M43.88 33.867L8.095 46.89a6.49 6.49 0 0 0 2.836 1.606 6.522 6.522 0 0 0 6.464-1.863L21 47.885c2.59.9 5.407.9 7.997 0l3.494-1.213a6.52 6.52 0 0 0 6.43 1.824 6.508 6.508 0 0 0 4.793-6.988 3.14 3.14 0 0 0 .166-.988v-6.653z"/><circle fill="#444" cx="35.427" cy="34.873" r="3.215"/><g fill="#444"><path d="M45.013 40.457l.004-12.078c0-6.024-2.757-11.755-7.415-15.532L44 1.84A1.11 1.11 0 1 0 42.08.727L35.79 11.55a19.93 19.93 0 0 0-11.148-3.16 1.11 1.11 0 0 0-1.09 1.13c.012.613.555 1.08 1.13 1.09a17.6 17.6 0 0 1 10.823 3.42c4.634 3.385 7.293 8.616 7.293 14.35v4.51l-.26-.98a7.612 7.612 0 0 0-3.566-4.64 7.552 7.552 0 0 0-5.787-.755 7.6 7.6 0 0 0-2.573 1.235H19.39a7.585 7.585 0 0 0-2.568-1.234 7.554 7.554 0 0 0-5.793.754 7.618 7.618 0 0 0-3.567 4.642l-.218.818v-3.724c0-5.606 2.576-11.032 6.9-14.522.73-.602.91-1.62.435-2.408L7.956.722a1.11 1.11 0 0 0-1.917 1.12l6.48 11.105c-4.698 3.905-7.494 9.885-7.494 16.06V40.36c0 .193.027.405.06.623a7.563 7.563 0 0 0 .918 5.026 7.584 7.584 0 0 0 4.643 3.56c2.622.703 5.296-.067 7.16-1.793l2.847.988a13.343 13.343 0 0 0 8.72 0l2.83-.973a7.668 7.668 0 0 0 5.185 2.038c.65 0 1.31-.084 1.965-.26A7.586 7.586 0 0 0 44 46.01a7.557 7.557 0 0 0 .947-4.782l.066-.77zm-16.366 6.21a11.105 11.105 0 0 1-7.267 0l-2.116-.734c.31-.548.565-1.137.736-1.773l.61-2.288h8.78l.61 2.292a7.65 7.65 0 0 0 .734 1.785l-2.087.717zM42.075 44.9a5.374 5.374 0 0 1-3.294 2.525 5.422 5.422 0 0 1-5.208-1.397l-.452-.498a5.413 5.413 0 0 1-.975-1.94l-.716-2.692a1.68 1.68 0 0 0-1.623-1.246h-9.612a1.68 1.68 0 0 0-1.622 1.246l-.715 2.686c-.78 2.888-3.762 4.61-6.638 3.84A5.37 5.37 0 0 1 7.927 44.9a5.37 5.37 0 0 1-.532-4.113l2.213-8.3a5.408 5.408 0 0 1 2.532-3.294 5.36 5.36 0 0 1 4.11-.533 5.37 5.37 0 0 1 1.93.957c.292.227.653.352 1.017.352h11.61c.363 0 .724-.126 1.014-.35a5.38 5.38 0 0 1 1.94-.96 5.352 5.352 0 0 1 4.103.534 5.4 5.4 0 0 1 2.53 3.29l2.216 8.307a5.375 5.375 0 0 1-.535 4.11z"/><path d="M10.712 24.61a.89.89 0 0 0 1.776 0c0-3.553 4.463-8.824 10.628-8.824a.89.89 0 0 0 0-1.776c-6.87 0-12.404 5.8-12.404 10.6z"/></g><path fill="#444" d="M14.19 37.336l.002-.96c0-.084.035-.165.097-.222l.802-.742a.302.302 0 0 1 .41 0l.803.742a.3.3 0 0 1 .097.222l.002.96a.303.303 0 0 1-.302.303h-1.61a.303.303 0 0 1-.302-.304zm2.214-4.926l-.002.96a.302.302 0 0 1-.097.22l-.803.743a.302.302 0 0 1-.41 0l-.803-.742a.3.3 0 0 1-.098-.22l-.002-.96c0-.168.135-.304.302-.304h1.61c.167 0 .302.136.302.303zm1.356 3.57l-.96-.002a.302.302 0 0 1-.222-.097l-.742-.802a.302.302 0 0 1 0-.41l.742-.803a.3.3 0 0 1 .222-.097l.96-.002c.167 0 .303.135.303.302v1.61a.303.303 0 0 1-.303.302zm-4.926-2.214l.96.002c.084 0 .165.035.222.097l.742.803a.302.302 0 0 1 0 .41l-.742.803a.3.3 0 0 1-.222.098l-.96.002a.303.303 0 0 1-.303-.302v-1.61c0-.167.136-.303.304-.302z"/></svg>