<svg version="1.1" id="Layer_1" xmlns="http://www.w3.org/2000/svg" xmlns:xlink="http://www.w3.org/1999/xlink" x="0px" y="0px"
	 viewBox="0 0 50 50" style="enable-background:new 0 0 50 50;" xml:space="preserve">
<style type="text/css">
	.st0{fill:#A475EF;}
	.st1{fill:#BF94F7;}
	.st2{fill:none;stroke:#444444;stroke-width:2.5;stroke-linecap:round;stroke-linejoin:round;stroke-miterlimit:10;}
	.st3{fill:#494949;}
</style>
<polygon class="st0" points="47.6,26.2 48,30.4 2,47.2 2.1,38.2 2.4,33 48.3,16.3 47.6,20 "/>
<polygon class="st1" points="47.6,9.7 47,17.3 2.1,33.7 2.1,24 2.4,19.6 47.7,3.1 "/>
<polyline class="st2" points="32.9,48 1.7,48 1.7,1.8 48.3,1.8 48.3,37.6 "/>
<g>
	<path class="st3" d="M11.4,24.2h10.9v-0.9H11.8V11.8h11.4v10.5h0.9v-11c0-0.2-0.2-0.4-0.4-0.4H11.4c-0.2,0-0.4,0.2-0.4,0.4v12.4
		C11,24,11.2,24.2,11.4,24.2z"/>
	<path class="st3" d="M26.8,21.5l2.6-2.6l4.3,4.3h-6.1v0.9h11c0.3,0,0.5-0.2,0.4-0.5V11.3c0-0.2-0.2-0.4-0.4-0.4H26.3
		c-0.2,0-0.4,0.2-0.4,0.4v11h0.9V21.5z M34.9,23.2l-2.7-2.7l3.8-3.8l2.1,2v4.4h-3.2V23.2z M38.1,11.8v5.8l-1.8-1.8
		c-0.2-0.2-0.4-0.2-0.6,0l-4.1,4.1L29.7,18c-0.2-0.2-0.4-0.2-0.6,0l-2.3,2.3v-8.5C26.8,11.8,38.1,11.8,38.1,11.8z"/>
	<path class="st3" d="M23.2,38.2H11.8V26.8h10.6V26h-11c-0.2,0-0.4,0.2-0.4,0.4v12.3c0,0.2,0.2,0.4,0.4,0.4h12.3
		c0.2,0,0.4-0.2,0.4-0.4v-11h-0.9V38.2z"/>
	<path class="st3" d="M39,26.2c0-0.2-0.2-0.4-0.4-0.4h-11v0.9h7.9l-5,5l-0.1,0.1l-1.8,4c-0.1,0.2,0,0.4,0.1,0.5s0.2,0.1,0.3,0.1h7.5
		v-0.9h-5.8l2.4-1.1l0.1-0.1l5-5v8.8H26.8V27.7h-0.9v11c0,0.2,0.2,0.4,0.4,0.4h12.3c0,0,0.3,0,0.4-0.2c0.1-0.1,0.1-0.3,0.1-0.3
		C39,34.5,39,30.3,39,26.2z M30.8,32.8L32,34l-2.2,1L30.8,32.8z M32.8,33.5L31.4,32l5.3-5.2h0.9l-5,5l0.6,0.6l5-5v0.7L32.8,33.5z"/>
	<path class="st3" d="M21,17c0.3,0,0.5-0.2,0.4-0.3v-2.6c0-0.2-0.2-0.4-0.4-0.4h-7c-0.2,0-0.4,0.2-0.4,0.4v2.6
		c0,0.2,0.2,0.4,0.4,0.4h1.3v-0.9h-0.9v-1.8h6.2v1.8h-0.9V17H21z"/>
	<path class="st3" d="M18.4,15.3c-0.2,0-0.4,0.2-0.4,0.4v4.9h-1v-4.9c0-0.2-0.2-0.4-0.4-0.4h-1.3v0.9h0.9v4.4h-0.4v0.9h3.5v-0.9
		h-0.5v-4.4h0.9v-0.9C19.7,15.3,18.4,15.3,18.4,15.3z"/>
	<path class="st3" d="M31.6,17c1,0,1.8-0.8,1.8-1.8s-0.8-1.8-1.8-1.8s-1.8,0.8-1.8,1.8S30.6,17,31.6,17z M31.6,14.5
		c0.5,0,0.9,0.4,0.9,0.9s-0.4,0.9-0.9,0.9c-0.5,0-0.9-0.4-0.9-0.9S31.1,14.5,31.6,14.5z"/>
	<rect x="13.6" y="28.5" class="st3" width="7.9" height="0.9"/>
	<rect x="13.6" y="30.2" class="st3" width="7.9" height="0.9"/>
	<rect x="13.6" y="32" class="st3" width="7.9" height="0.9"/>
	<rect x="13.6" y="33.8" class="st3" width="7.9" height="0.9"/>
	<rect x="13.6" y="35.5" class="st3" width="4.4" height="0.9"/>
	<path class="st3" d="M26.3,23.3h-2.6c-0.2,0-0.4,0.2-0.4,0.4v2.6c0,0.2,0.2,0.4,0.4,0.4h2.6c0.3,0,0.5-0.2,0.4-0.4v-2.6
		C26.7,23.5,26.5,23.3,26.3,23.3z M25.9,25.8h-1.8V24h1.8V25.8z"/>
</g>
</svg>
