<svg xmlns="http://www.w3.org/2000/svg" id="Layer_1" x="0" y="0" version="1.1" viewBox="0 0 50 50" xml:space="preserve"><style>.st3{fill:#363f40}</style><path fill="#a475ef" d="M47.7 11.6l.8 5.2L2.4 33.6l-.5-10.9-.1-6.2L42.1 1.9l5.2 2.3z"/><path fill="#bf94f7" d="M46.1 2l2.3 3.2L1.5 21.9 2.6 4.8l3-2.9 29.1-.2z"/><path fill="none" stroke="#444" stroke-linecap="round" stroke-linejoin="round" stroke-miterlimit="10" stroke-width="2.5" d="M18.1 48.3H5.5c-1.9 0-3.4-1.6-3.4-3.5v-39c0-2 1.5-3.5 3.4-3.5h39c1.9 0 3.4 1.6 3.4 3.5v24.6"/><path d="M22.4 24.9h-11c-.2 0-.4-.2-.4-.4V12.1c0-.2.2-.4.4-.4h12.3c.2 0 .4.2.4.4v11h-.9V12.6H11.8V24h10.5v.9zm16.2 0h-11V24h10.5V12.6H26.8v10.5h-.9v-11c0-.2.2-.4.4-.4h12.3c.2 0 .4.2.4.4v12.3c.1.3-.1.5-.4.5zM23.7 39.8H11.4c-.2 0-.4-.2-.4-.4V27.1c0-.2.2-.4.4-.4h11v.9H11.8V39h11.4V28.4h.9v11c0 .2-.2.4-.4.4zm14.9 0H26.3c-.2 0-.4-.2-.4-.4v-11h.9v10.5h11.4V27.5H27.6v-.9h11c.2 0 .4.2.4.4v12.3c.1.3-.1.5-.4.5z" class="st3"/><path d="M21 17.8h-1.3V17h.9v-1.8h-6.2V17h.9v.9H14c-.2 0-.4-.2-.4-.4v-2.6c0-.2.2-.4.4-.4h7c.2 0 .4.2.4.4v2.6c.1.1-.1.3-.4.3z" class="st3"/><path d="M18.8 21.8H18v-5.3c0-.2.2-.4.4-.4h1.3v.9h-.9v4.8zm-1.7 0h-.9V17h-.9v-.9h1.3c.2 0 .4.2.4.4v5.3z" class="st3"/><path d="M15.8 21.4h3.5v.9h-3.5zm18.6 3.3l-5-5-2.8 2.8-.6-.6 3.1-3.1c.2-.2.4-.2.6 0l5.3 5.3-.6.6z" class="st3"/><path d="M31.9 21.7l-.6-.7 4.4-4.4c.2-.2.4-.2.6 0l2.6 2.6-.6.6-2.3-2.2-4.1 4.1zm-.3-3.9c-1 0-1.8-.8-1.8-1.8s.8-1.8 1.8-1.8 1.8.8 1.8 1.8-.8 1.8-1.8 1.8zm0-2.6c-.5 0-.9.4-.9.9s.4.9.9.9.9-.4.9-.9-.4-.9-.9-.9zm-18 14.1h7.9v.9h-7.9zm0 1.7h7.9v.9h-7.9zm0 1.8h7.9v.9h-7.9zm0 1.7h7.9v.9h-7.9zm0 1.8H18v.9h-4.4z" class="st3"/><path d="M31.7 29.5h8.1v.9h-8.1z" class="st3" transform="rotate(-45.001 35.77 29.923)"/><path d="M29 37.2c-.1 0-.2 0-.3-.1-.1-.1-.2-.3-.1-.5l1.8-4 .1-.1 5.7-5.7.6.6-5.7 5.6-1.3 2.8 2.8-1.3 5.7-5.7.6.6-5.7 5.7-.1.1-4 1.8c0 .2-.1.2-.1.2z" class="st3"/><path d="M31.4 32.3h.9v3.1h-.9z" class="st3" transform="rotate(-45.001 31.813 33.879)"/><path d="M29 36.3h7.5v.9H29zm-2.7-8.8h-2.6c-.2 0-.4-.2-.4-.4v-2.6c0-.2.2-.4.4-.4h2.6c.2 0 .4.2.4.4v2.6c.1.2-.1.4-.4.4zm-2.2-.9h1.8v-1.8h-1.8v1.8z" class="st3"/></svg>