<?xml version="1.0" encoding="utf-8"?>
<!-- Generator: Adobe Illustrator 28.1.0, SVG Export Plug-In . SVG Version: 6.00 Build 0)  -->
<svg version="1.1" id="Layer_1" xmlns="http://www.w3.org/2000/svg" xmlns:xlink="http://www.w3.org/1999/xlink" x="0px" y="0px"
	 viewBox="0 0 50 50" style="enable-background:new 0 0 50 50;" xml:space="preserve">
<style type="text/css">
	.st0{fill:#35D3C3;}
	.st1{fill:#7DF4EB;}
	.st2{fill:none;stroke:#444444;stroke-width:2.5;stroke-linecap:round;stroke-linejoin:round;stroke-miterlimit:10;}
	.st3{fill:none;stroke:#444444;stroke-width:0.5;stroke-linecap:round;stroke-linejoin:round;stroke-miterlimit:10;}
	.st4{fill:none;stroke:#444444;stroke-linejoin:round;stroke-miterlimit:10;}
	.st5{fill:none;stroke:#444444;stroke-linecap:round;stroke-linejoin:round;stroke-miterlimit:10;}
</style>
<g>
	<rect x="15.9" y="23" class="st0" width="12.7" height="12.2"/>
	<g>
		<path class="st1" d="M44.8,12.6L39.1,9l-7.7-4.4l-6-2.8C22.3,1.8,4,10.7,4,13.9l-0.5,7.8L4,36.8l11.5,7.6l31-11
			C47.3,32.9,45.7,14.6,44.8,12.6z"/>
		<g>
			<g>
				<path class="st2" d="M30,46.7L27.8,48c-1.7,1-3.8,1-5.5,0L6.8,39C5.1,38,4,36.2,4,34.2v-18c0-2,1-3.8,2.7-4.7l15.6-9
					c1.7-1,3.8-1,5.5,0l15.6,9c1.7,1,2.7,2.8,2.7,4.7v18c0,2-1,3.8-2.7,4.7l-2.5,1.4"/>
			</g>
		</g>
		<g>
			<line class="st3" x1="19.3" y1="29.3" x2="18.4" y2="26.7"/>
			<path class="st3" d="M31.7,29.6c-0.8,0.5-1.9,1.3-2.4,2.5c-0.8,1.7,0.1,2.6-0.7,4c-0.9,1.7-3.2,2.3-4.7,2.3c-0.4,0-2.1,0-3.6-1.1
				c-1.6-1.3-1.2-2.5-2.7-3.6c-1.2-0.8-3.1-1.3-4.3-0.3c-0.9,0.7-0.9,1.9-0.9,2c0,1.6,1.6,3.1,3.3,3.2c1.8,0.2,3.1-1.1,3.3-1.3"/>
			<path class="st3" d="M20.3,35.6c0.2-0.7,0.4-1.9,0.1-3.3c-0.1-0.6-0.3-1.1-0.5-1.5"/>
			<path class="st4" d="M36,19c-1.3,1.6-2.2,2.9-2.9,3.9c-0.5,0.8-0.7,1.3-0.9,1.8c-0.5,1.3-0.5,2.5-0.5,3.3
				c0.1,0.1,0.2,0.3,0.5,0.4c0.3,0.1,0.5,0.1,0.7,0.1c0.6-0.5,1.5-1.3,2.1-2.5c0.3-0.5,0.5-1,0.8-1.9c0.4-1.1,0.8-2.7,1.1-4.7"/>
			<path class="st5" d="M40.2,15.2c-0.4-0.2-1.4-0.4-2.5-0.1c-0.3,0.1-2.5,0.7-2.6,2.2c-0.1,0.8,0.3,1.7,1.1,2.1
				c0.2,0.1,0.8,0.5,1.6,0.2c0.7-0.2,1-0.9,1.1-1c0.3-0.7,0-1.1,0.1-1.8C39,16.4,39.3,15.8,40.2,15.2z"/>
			<path class="st5" d="M20.6,29.3l-1.9-5c-0.3-0.8-0.9-1.4-1.6-1.8l0,0c-0.1,0-0.3,0.7-0.4,1.2c-0.1,0.6,0,1,0.1,1.2
				c0.2,0.9,0.6,2.7,1.3,5.2"/>
			<path class="st5" d="M11.5,18.6"/>
			<path class="st5" d="M15.1,28.9c0.9,0.8,1.7,1,2,1.1c1.1,0.3,2,0.1,2.4-0.1c0.5-0.2,1.3-0.5,2-1.3c0.2-0.2,0.7-0.9,1-2
				c0.9-3.2-0.5-6.6-0.7-7.1c-0.8-1.9-1.8-4.2-4-4.8c-1.2-0.4-2.4-0.1-3.1,0.1c-0.7,0.2-1.8,0.6-2.6,1.6c-1.4,1.8-1,4.1-0.5,6.2
				C11.7,23.2,12.5,26.8,15.1,28.9z"/>
		</g>
	</g>
</g>
</svg>
