<svg xmlns="http://www.w3.org/2000/svg" id="Layer_1" x="0" y="0" version="1.1" viewBox="0 0 50 50" xml:space="preserve"><style>.st3{fill:#494949}</style><path fill="#a475ef" d="M47.6 26.2l.4 4.2L2 47.2l.1-9 .3-5.2 45.9-16.7-.7 3.7z"/><path fill="#bf94f7" d="M47.6 9.7l-.6 7.6L2.1 33.7V24l.3-4.4L47.7 3.1z"/><path fill="none" stroke="#444" stroke-linecap="round" stroke-linejoin="round" stroke-miterlimit="10" stroke-width="2.5" d="M32.9 48H1.7V1.8h46.6v35.8"/><path d="M11.4 24.2h10.9v-.9H11.8V11.8h11.4v10.5h.9v-11c0-.2-.2-.4-.4-.4H11.4c-.2 0-.4.2-.4.4v12.4c0 .3.2.5.4.5zm15.4-2.7l2.6-2.6 4.3 4.3h-6.1v.9h11c.3 0 .5-.2.4-.5V11.3c0-.2-.2-.4-.4-.4H26.3c-.2 0-.4.2-.4.4v11h.9v-.8zm8.1 1.7l-2.7-2.7 3.8-3.8 2.1 2v4.4h-3.2v.1zm3.2-11.4v5.8l-1.8-1.8c-.2-.2-.4-.2-.6 0l-4.1 4.1-1.9-1.9c-.2-.2-.4-.2-.6 0l-2.3 2.3v-8.5h11.3zM23.2 38.2H11.8V26.8h10.6V26h-11c-.2 0-.4.2-.4.4v12.3c0 .2.2.4.4.4h12.3c.2 0 .4-.2.4-.4v-11h-.9v10.5zm15.8-12c0-.2-.2-.4-.4-.4h-11v.9h7.9l-5 5-.1.1-1.8 4c-.1.2 0 .4.1.5s.2.1.3.1h7.5v-.9h-5.8l2.4-1.1.1-.1 5-5v8.8H26.8V27.7h-.9v11c0 .2.2.4.4.4h12.3s.3 0 .4-.2c.1-.1.1-.3.1-.3-.1-4.1-.1-8.3-.1-12.4zm-8.2 6.6L32 34l-2.2 1 1-2.2zm2 .7L31.4 32l5.3-5.2h.9l-5 5 .6.6 5-5v.7l-5.4 5.4z" class="st3"/><path d="M21 17c.3 0 .5-.2.4-.3v-2.6c0-.2-.2-.4-.4-.4h-7c-.2 0-.4.2-.4.4v2.6c0 .2.2.4.4.4h1.3v-.9h-.9v-1.8h6.2v1.8h-.9v.8H21z" class="st3"/><path d="M18.4 15.3c-.2 0-.4.2-.4.4v4.9h-1v-4.9c0-.2-.2-.4-.4-.4h-1.3v.9h.9v4.4h-.4v.9h3.5v-.9h-.5v-4.4h.9v-.9h-1.3zM31.6 17c1 0 1.8-.8 1.8-1.8s-.8-1.8-1.8-1.8-1.8.8-1.8 1.8.8 1.8 1.8 1.8zm0-2.5c.5 0 .9.4.9.9s-.4.9-.9.9-.9-.4-.9-.9.4-.9.9-.9zm-18 14h7.9v.9h-7.9zm0 1.7h7.9v.9h-7.9zm0 1.8h7.9v.9h-7.9zm0 1.8h7.9v.9h-7.9zm0 1.7H18v.9h-4.4zm12.7-12.2h-2.6c-.2 0-.4.2-.4.4v2.6c0 .2.2.4.4.4h2.6c.3 0 .5-.2.4-.4v-2.6c0-.2-.2-.4-.4-.4zm-.4 2.5h-1.8V24h1.8v1.8z" class="st3"/></svg>