<?xml version="1.0" encoding="utf-8"?>
<!-- Generator: Adobe Illustrator 25.2.3, SVG Export Plug-In . SVG Version: 6.00 Build 0)  -->
<svg version="1.1" id="Camada_1" xmlns="http://www.w3.org/2000/svg" xmlns:xlink="http://www.w3.org/1999/xlink" x="0px" y="0px"
	 viewBox="0 0 50 50" style="enable-background:new 0 0 50 50;" xml:space="preserve">
<style type="text/css">
	.st0{fill:#00C8E2;}
	.st1{fill:#00DFFC;}
	.st2{fill:#444444;}
</style>
<g>
	<g>
		<path class="st0" d="M47.2,22.3l-1.3,0.5l0,0L28.7,29l-6.8,2.4L14.5,34l-0.8,0.3c-3.1-3.1-6.3-6.2-9.4-9.3
			c-0.6-0.6-1.1-1.1-1.7-1.7c-0.1-0.1-0.2-0.2-0.4-0.4L5.8,18c0-0.5,0-1,0.1-1.5l7.7-2.8l2.5-0.9l2.4-0.9l0,0l3.1-1.1l12.3-0.1
			l9.7-6v12.9L47.2,22.3z"/>
	</g>
	<g>
		<path class="st1" d="M43.6,4.8v5.9l-7.9,2.9l-2.8,1l-7.8,2.8l0,0l-6.5,2.4l-4.8,1.8l-8.7,3.2L4.3,25c-0.6-0.6-1.1-1.1-1.7-1.7
			c-0.1-0.1-0.2-0.2-0.4-0.4L5.8,18c0-0.5,0-1,0.1-1.5C6,12.8,6.1,9,6.3,5.3L7,5.2c2.8,1.9,5.6,3.8,8.5,5.7l6.3-0.1l12.3-0.1
			L43.6,4.8z"/>
	</g>
	<path class="st2" d="M48.8,22.5l-0.3-0.7c0-0.1-0.1-0.2-0.2-0.3L45,17.2V4.7c0-0.5-0.2-0.9-0.6-1.1c-0.4-0.2-0.9-0.2-1.3,0
		l-9.4,5.8l-12,0.1l-5.9,0.1C13.1,7.8,10.3,6,7.7,4.2c-0.1,0-0.1-0.1-0.2-0.1C7.3,3.6,6.8,3.3,6.2,3.4c-0.6,0.1-1,0.6-1,1.2l0,0.5
		C5,8.8,4.9,12.5,4.8,16.1l0,0.2c-0.1,0.4-0.1,0.8-0.1,1.2l-3.4,4.6c-0.4,0.5-0.3,1.2,0.1,1.6l2.1,2.1c1.5,1.5,3.1,3.1,4.7,4.6
		c1.6,1.6,3.2,3.1,4.7,4.7c0.8,0.8,1.5,1.5,2.3,2.3c1.5,1.5,3,3,4.5,4.5l4.2,4.2c0.2,0.2,0.6,0.4,0.9,0.4s0.6-0.1,0.9-0.4
		c1.4-1.4,2.8-2.8,4.3-4.2l18.2-17.6l0.4-0.4C48.9,23.5,49.1,23,48.8,22.5z M31.1,20.2c-0.2,0.8-0.4,1.5-0.6,2.3
		c-3.5,0-6.9,0.1-10.4,0.2l0,0l-0.2-0.4c-0.3-0.8-0.6-1.6-0.9-2.5c-0.1-0.3-0.3-0.7-0.4-1c-0.1-0.3-0.2-0.5-0.3-0.8L31,17.7l0.6,0.2
		C31.5,18.7,31.3,19.4,31.1,20.2z M25.4,37.5h-1.6c0,0,0,0-0.1,0c-0.2-0.9-0.5-1.9-0.7-2.9c-0.3-1.1-0.5-2.1-0.8-3.2
		c-0.7-2.7-1.3-5.4-2-8c3.4-0.1,6.6-0.2,10-0.2c-0.3,0.9-0.6,1.7-0.9,2.6c-0.3,1-0.7,2-1,3.1c-0.5,1.5-1,3-1.5,4.4
		C26.4,34.7,25.9,36.1,25.4,37.5z M6.7,19.2C7,19.5,7.4,19.7,7.8,20c0.3,0.2,0.6,0.5,0.9,0.7l-4.3,1.6L6.7,19.2
		C6.7,19.2,6.7,19.2,6.7,19.2z M9.6,20.2c-0.1,0-0.2,0-0.3-0.1c-0.3-0.2-0.7-0.5-1-0.8c-0.4-0.3-0.7-0.5-1.1-0.8l8.5-6.3
		c0.1,0.2,0.2,0.4,0.3,0.7c0.5,1.4,1.1,2.9,1.5,4.3l-7.6,2.9C9.7,20.3,9.6,20.2,9.6,20.2z M17.7,18.1c0.1,0.3,0.2,0.5,0.3,0.8
		c0.1,0.4,0.3,0.7,0.4,1c0.2,0.9,0.5,1.7,0.9,2.5l0,0c-1.8-0.4-3.6-0.9-5.3-1.2l-2.8-0.6L17.7,18.1z M31.8,20.4
		c0.2-0.7,0.4-1.5,0.6-2.2l6.5,2.4c-1.2,0.3-2.3,0.5-3.5,0.8c-1.3,0.3-2.7,0.6-4,0.9C31.5,21.7,31.6,21,31.8,20.4z M32.6,17.4
		c0.1-0.4,0.2-0.8,0.3-1.2c0.1-0.5,0.2-1,0.4-1.6c0.2-0.9,0.4-1.6,0.7-2.4l8.5,6.1l-1.8,1.8c-0.1,0-0.2,0-0.3,0.1
		c-0.1,0-0.1,0-0.2,0L32.6,17.4z M42.9,18.9l2.6,3.4l-4.4-1.6L42.9,18.9z M42.5,6.9v10.6l-8-5.7c0.1,0,0.1,0,0.2-0.1L42.5,6.9z
		 M33.2,12c-0.3,0.8-0.5,1.6-0.7,2.5c-0.2,0.5-0.3,1-0.4,1.6c-0.1,0.4-0.2,0.7-0.3,1.1l-0.6-0.2c0,0-0.1,0-0.1,0l-12.9,0.2
		c0,0-0.1,0-0.1,0c-0.5-1.5-1-2.9-1.6-4.4c-0.1-0.3-0.2-0.5-0.2-0.6L33.2,12C33.2,12,33.2,12,33.2,12z M7.2,17.9
		c0-0.4,0-0.8,0.1-1.2c0-0.1,0-0.1,0-0.2l0-0.3c0.1-3,0.2-6,0.3-9.1c2.4,1.6,4.8,3.2,7.3,4.9c0,0,0.1,0,0.1,0.1L7.2,17.9z M9.8,21.1
		C9.8,21.1,9.8,21.1,9.8,21.1l3.9,0.9c1.9,0.4,3.9,0.9,5.8,1.3c0.7,2.7,1.4,5.5,2,8.3c0.2,1,0.5,2.1,0.8,3.2c0.3,1,0.5,2,0.8,3
		l-1.9,2.1c-1.4-1.4-2.8-2.8-4.2-4.2c-0.8-0.8-1.5-1.5-2.3-2.3c-1.6-1.6-3.1-3.1-4.7-4.7c-1.6-1.5-3.1-3.1-4.7-4.6l-0.9-0.9
		L9.8,21.1z M24.8,43.4l-3-3l1.9-2.1h2l0.1,0.1c0.7,0.7,1.4,1.3,2.1,2C26.8,41.4,25.8,42.4,24.8,43.4z M26.3,37.9l-0.1-0.1
		c0.5-1.4,0.9-2.8,1.4-4.1c0.5-1.5,1-3,1.5-4.5c0.3-1,0.7-2.1,1-3.1c0.3-1,0.7-1.9,1-2.9c1.5-0.3,3-0.7,4.4-1c1.5-0.3,3-0.7,4.6-1
		l5.6,2.1L28.5,39.9C27.8,39.2,27,38.5,26.3,37.9z"/>
</g>
</svg>
