<?xml version="1.0" encoding="utf-8"?>
<!-- Generator: Adobe Illustrator 22.1.0, SVG Export Plug-In . SVG Version: 6.00 Build 0)  -->
<svg version="1.1" id="Layer_1" xmlns="http://www.w3.org/2000/svg" xmlns:xlink="http://www.w3.org/1999/xlink" x="0px" y="0px"
	 viewBox="0 0 50 50" style="enable-background:new 0 0 50 50;" xml:space="preserve">
<style type="text/css">
	.st0{fill:#00C8E2;}
	.st1{fill:#00DFFC;}
	.st2{fill:#444444;}
</style>
<g>
	<polygon class="st0" points="48.1,26.1 48.5,30.4 1.7,47.4 1.8,38.3 2.2,33 48.8,16 48.1,19.8 	"/>
</g>
<g>
	<polygon class="st1" points="48.1,9.3 47.5,17.1 1.8,33.7 1.8,23.8 2.2,19.3 48.2,2.6 	"/>
</g>
<g>
	<path class="st2" d="M48.1,49.1c-0.7,0-1.2-0.6-1.2-1.2V3.1H3.1v43.5h9c0.7,0,1.2,0.6,1.2,1.2s-0.6,1.2-1.2,1.2H1.8
		c-0.7,0-1.2-0.6-1.2-1.2v-46c0-0.7,0.6-1.2,1.2-1.2h46.3c0.7,0,1.2,0.6,1.2,1.2v46C49.3,48.5,48.8,49.1,48.1,49.1z"/>
</g>
<g>
	<path class="st2" d="M14.9,15.8c2.4,0,4.3-1.9,4.3-4.3s-1.9-4.3-4.3-4.3s-4.3,1.9-4.3,4.3S12.6,15.8,14.9,15.8z M14.9,9.2
		c1.3,0,2.3,1,2.3,2.3s-1,2.3-2.3,2.3s-2.3-1-2.3-2.3S13.7,9.2,14.9,9.2z"/>
	<path class="st2" d="M30.5,20.3c0.6,0,1-0.4,1-1s-0.4-1-1-1H12.7c-1.8,0-3.2,1.4-3.2,3.2v20c0,0.6,0.4,1,1,1s1-0.4,1-1v-20
		c0-0.7,0.5-1.2,1.2-1.2h5.7v21.2c0,0.6,0.4,1,1,1s1-0.4,1-1V20.3H30.5z"/>
	<path class="st2" d="M39.4,10.5H22.7c-0.6,0-1,0.4-1,1s0.4,1,1,1h15.7v18H23.8c-0.6,0-1,0.4-1,1s0.4,1,1,1H31l5.3,9.5
		c0.2,0.3,0.5,0.5,0.9,0.5c0.2,0,0.3,0,0.5-0.1c0.5-0.3,0.7-0.9,0.4-1.4l-4.7-8.5h6.1c0.6,0,1-0.4,1-1v-20
		C40.4,11,40,10.5,39.4,10.5z"/>
</g>
</svg>
