<svg xmlns="http://www.w3.org/2000/svg" id="Camada_1" x="0" y="0" version="1.1" viewBox="0 0 51.1 50" xml:space="preserve"><style>.st2{fill:#444}.st3,.st4{fill:none;stroke:#494949;stroke-miterlimit:10}.st3{stroke-width:.5}.st4{stroke-linecap:round;stroke-linejoin:round}</style><path fill="#fcc34f" d="M48.3 16.6l.5-11-1.9-3.8-15.4.4c-3.2 0-27.8-3-27.8.2L2 23.1l1.2 23.5 13.6.6 31-11c.7-.4 1.5-17.6.5-19.6z"/><path fill="none" stroke="#444" stroke-linecap="round" stroke-linejoin="round" stroke-miterlimit="10" stroke-width="2.5" d="M36.4 47.7H6.2c-1.9 0-3.4-1.6-3.4-3.5v-39c0-2 1.5-3.5 3.4-3.5h39c1.9 0 3.4 1.6 3.4 3.5V36"/><circle cx="8.9" cy="7.6" r="1.4" class="st2"/><circle cx="12.8" cy="7.6" r="1.4" class="st2"/><circle cx="16.6" cy="7.6" r="1.4" class="st2"/><circle cx="26.1" cy="35.8" r="4" class="st3"/><circle cx="13.4" cy="23.2" r="4" class="st4"/><path d="M33.9 19.2h7.9v7.9h-7.9v-7.9z" class="st3"/><path d="M9.4 31.8h7.9v7.9H9.4v-7.9zm18.5-12.4h-4.5l-2.3 3.8 2.3 3.9h4.5l2.2-3.9-2.2-3.8zm10 12.8l-4.2 7.2H42l-4.1-7.2z" class="st4"/></svg>