<?xml version="1.0" encoding="utf-8"?>
<!-- Generator: Adobe Illustrator 24.0.3, SVG Export Plug-In . SVG Version: 6.00 Build 0)  -->
<svg version="1.1" id="Layer_1" xmlns="http://www.w3.org/2000/svg" xmlns:xlink="http://www.w3.org/1999/xlink" x="0px" y="0px"
	 viewBox="0 0 50 50" style="enable-background:new 0 0 50 50;" xml:space="preserve">
<style type="text/css">
	.st0{fill:#A475EF;}
	.st1{fill:#BF94F7;}
	.st2{fill:#444444;}
</style>
<g>
	<g>
		<polygon class="st0" points="39.2,31 28.5,34.6 35.9,27.9 		"/>
		<path class="st0" d="M45.8,14.7l-0.6,0.6l-21,21L10,41.5l-5.9-5.9l6.2-6.2l3.7,3.7c0.1,0.1,0.3,0.2,0.5,0.2s0.4-0.1,0.5-0.2
			c0.3-0.3,0.3-0.8,0-1l-3.7-3.7l1.1-1.1l0.8-0.8l4.7-1.7l0.4,0.3L20,27c0.1,0.1,0.3,0.2,0.5,0.2s0.4-0.1,0.5-0.2
			c0.3-0.3,0.3-0.8,0-1l-1.7-1.7L45.8,14.7z"/>
	</g>
	<g>
		<polygon class="st1" points="22.9,13.4 14.5,21.8 10.7,18 		"/>
		<polygon class="st1" points="21.6,23.9 12.4,27.3 13.7,24.6 18.5,19.7 21.2,23.3 		"/>
		<path class="st1" d="M46.1,14.4l-0.2,0.2l-0.6,0.6l-25.5,9.4l-3.2-2.7l5.7-5.5l3.9,4.6c0.1,0.1-0.6-1.3-0.4-1.3s-0.4,0-0.3-0.1
			c0.3-0.3-0.8-1.2-1.1-1.5l-1.7-2.2l5.2-5.3l4.5,4.5c0.1,0.1,0.3,0,0.5,0s-0.3-0.3-0.2-0.4c0.3-0.3,0.1-0.2-0.2-0.5L30,10.7
			l4.8-1.8L39,7.3L46.1,14.4z"/>
	</g>
	<g>
		<g>
			<path class="st2" d="M49,47.4l-3-12.1c-0.1-0.2-0.2-0.4-0.3-0.6l-8.2-8.2l11.2-11.2c0.5-0.5,0.5-1.3,0-1.7L36.6,1.4
				c-0.5-0.5-1.3-0.5-1.7,0l-12,12l-8.4,8.4L4.1,11.4L11.5,4l6.1,5.7c0.5,0.5,1.3,0.5,1.7,0c0.5-0.5,0.4-1.3,0-1.7l-6.9-6.6
				c-0.5-0.5-1.2-0.4-1.7,0l-9.1,9.1c-0.5,0.5-0.5,1.3,0,1.7l11.2,11.2L1.5,34.7c-0.2,0.2-0.4,0.5-0.4,0.9c0,0.3,0.1,0.6,0.4,0.9
				l12.1,12.1c0.2,0.2,0.5,0.4,0.9,0.4s0.6-0.1,0.9-0.4l11.2-11.2l8.2,8.2c0.2,0.2,0.4,0.3,0.6,0.3l12.1,3c0.1,0,0.2,0,0.3,0
				c0.3,0,0.6-0.1,0.9-0.4C49,48.3,49.1,47.8,49,47.4z M24.2,36.3L14.5,46L4.1,35.6l6.2-6.2l3.7,3.7c0.1,0.1,0.3,0.2,0.5,0.2
				s0.4-0.1,0.5-0.2c0.3-0.3,0.3-0.8,0-1l-3.7-3.7l1.1-1.1l0.8-0.8l3.2-3.2l1.5,1.5l0.4,0.3L20,27c0.1,0.1,0.3,0.2,0.5,0.2
				s0.4-0.1,0.5-0.2c0.3-0.3,0.3-0.8,0-1l-3.7-3.7l5-5L26,21c0.1,0.1,0.3,0.2,0.5,0.2s0.4-0.1,0.5-0.2c0.3-0.3,0.3-0.7,0-1l-3.7-3.7
				l5-5L32,15c0.1,0.1,0.3,0.2,0.5,0.2s0.4-0.1,0.5-0.2c0.3-0.3,0.3-0.7,0-1l-3-3.3l-0.5-0.5L35.7,4L39,7.3l7.1,7.1l-0.2,0.2
				l-0.6,0.6L24.2,36.3z M42.2,45l-5.9-1.5l-8-8l7.4-7.4l2.8,2.8l5.1,5.1l1.4,5.6L42.2,45z"/>
		</g>
	</g>
</g>
</svg>
