<?xml version="1.0" encoding="utf-8"?>
<!-- Generator: Adobe Illustrator 28.0.0, SVG Export Plug-In . SVG Version: 6.00 Build 0)  -->
<svg version="1.1" id="Layer_1" xmlns="http://www.w3.org/2000/svg" xmlns:xlink="http://www.w3.org/1999/xlink" x="0px" y="0px"
	 viewBox="0 0 50 50" style="enable-background:new 0 0 50 50;" xml:space="preserve">
<style type="text/css">
	.st0{fill:#46B8B0;}
	.st1{fill:none;stroke:#444444;stroke-width:2.5;stroke-linecap:round;stroke-linejoin:round;stroke-miterlimit:10;}
	.st2{fill:none;stroke:#444444;stroke-linecap:round;stroke-linejoin:round;stroke-miterlimit:10;}
	.st3{fill:#444444;stroke:#444444;stroke-linecap:round;stroke-linejoin:round;stroke-miterlimit:10;}
	.st4{fill:#444444;}
	.st5{fill:none;stroke:#444444;stroke-width:0.5;stroke-linecap:round;stroke-linejoin:round;stroke-miterlimit:10;}
</style>
<g>
	<path class="st0" d="M45.2,12.5l-5.6-3.6l-7.7-4.4l-6-2.8c-3.2,0-21.4,8.9-21.4,12.1L4,21.6l0.5,15.1L16,44.2l31-11
		C47.8,32.8,46.2,14.5,45.2,12.5z"/>
	<g>
		<g>
			<path class="st1" d="M30.5,46.5l-2.2,1.3c-1.7,1-3.8,1-5.5,0l-15.6-9c-1.7-1-2.7-2.8-2.7-4.7v-18c0-2,1-3.8,2.7-4.7l15.6-9
				c1.7-1,3.8-1,5.5,0l15.6,9c1.7,1,2.7,2.8,2.7,4.7v18c0,2-1,3.8-2.7,4.7l-2.5,1.4"/>
		</g>
	</g>
	<g>
		<polygon class="st2" points="43.2,14.9 25.5,25.1 25.4,30.7 38.2,23.8 38.2,32.4 25.8,39.1 13.7,32.2 13.7,18 30.6,8.8 25.6,6.1 
			8.3,15.5 8.6,35 25.7,44.8 43.2,34.8 		"/>
		<polygon class="st2" points="43.2,14.9 25.5,25.1 21,22.5 39,12.3 		"/>
		<polygon class="st2" points="18,29.9 25.8,34 33.5,29.6 37.9,32.4 25.8,39.1 13.7,32.2 13.7,32.2 13.7,18 13.7,18 13.7,18 
			30.6,8.8 30.5,13.1 18,20.1 18,29.9 		"/>
		<polyline class="st3" points="13.7,32.2 13.7,32.2 13.7,18 13.7,18 13.7,18 30.6,8.8 30.5,13.1 18,20.1 18,29.9 18,29.9 		"/>
		<polygon class="st3" points="25.4,30.7 20.9,28.2 21,22.5 25.5,25.1 		"/>
		<polyline class="st3" points="18,29.9 13.7,32.2 8.6,35 25.7,44.8 25.8,39.1 13.7,32.2 		"/>
		<line class="st2" x1="33.5" y1="29.6" x2="33.5" y2="26.6"/>
		<polygon class="st4" points="33.5,29.6 37.8,32.3 38.2,23.8 33.5,26.4 		"/>
		<polygon class="st4" points="25.8,39.1 25.8,39.4 25.7,44.8 43.2,34.8 38.1,32.2 		"/>
	</g>
	<line class="st5" x1="8.3" y1="15.5" x2="13.7" y2="18"/>
	<line class="st5" x1="38.2" y1="23.8" x2="43.2" y2="14.9"/>
</g>
</svg>
