<?xml version="1.0" encoding="utf-8"?>
<!-- Generator: Adobe Illustrator 28.0.0, SVG Export Plug-In . SVG Version: 6.00 Build 0)  -->
<svg version="1.1" id="Layer_1" xmlns="http://www.w3.org/2000/svg" xmlns:xlink="http://www.w3.org/1999/xlink" x="0px" y="0px"
	 viewBox="0 0 50 50" style="enable-background:new 0 0 50 50;" xml:space="preserve">
<style type="text/css">
	.st0{fill:#FF6B6B;}
	.st1{fill:none;stroke:#444444;stroke-linecap:round;stroke-linejoin:round;stroke-miterlimit:10;}
	.st2{fill:none;stroke:#444444;stroke-width:0.9174;stroke-linecap:round;stroke-linejoin:round;stroke-miterlimit:10;}
	.st3{fill:none;stroke:#444444;stroke-width:0.5;stroke-linecap:round;stroke-linejoin:round;stroke-miterlimit:10;}
	.st4{fill:#444444;}
	.st5{fill:none;stroke:#444444;stroke-width:2.5;stroke-linecap:round;stroke-linejoin:round;stroke-miterlimit:10;}
	.st6{fill:none;stroke:#444444;stroke-width:2.7004;stroke-linecap:round;stroke-linejoin:round;stroke-miterlimit:10;}
</style>
<path class="st0" d="M34.1,37.3l0-4l1.9-1.4c-0.1,0,0.1-0.4,0.1-0.4l0.3-0.2c0.1-0.3,1.1-0.8,1-1l2.1-3.3c-0.1-0.1,1.2-4.2,1.1-4.3
	l-0.7-4.4c-0.1-0.1,7-9.9,6.9-10l-7.1-6.2c-0.2-0.3-8.2,7.5-8.6,7.5l-2.5-0.6c-0.3,0-9.1,1.6-9.3,1.8l-5.3,6
	c-0.2,0.2-0.5,5.6-0.5,5.9l0.6,3.9c0,0.1-8.1,7.9-8.1,8L3.5,44.8c0,0.1,4.9-0.8,9.9-2l5.2-3.2l0.8,3.5L18,46.5c0,0,0,0.1,0,0.1
	c0,0.1,0.2,0.2,0.3,0.1l16.5-6c0.1,0,0.2-0.1,0.2-0.3l-1-1.4L34.1,37.3z"/>
<path class="st1" d="M33.3,37.1v-4.1c5.2-3.7,5.9-8.7,5.9-8.7c1.5-8.1-5.2-12.4-5.2-12.4c-7.8-4.9-14.8,0-14.8,0
	c-6.3,4.2-5.3,12-5.3,12c0.4,5.4,5.8,9,5.8,9v4.3"/>
<path class="st2" d="M13.8,27.1l-7.7,7.6l-2.8,8.2c-0.5,1.4,0.9,2.8,2.3,2.3l8.1-2.8l5.8-5.8"/>
<path class="st2" d="M31.2,9.6l6.4-6.5c1.1-1.1,2.9-1.1,4,0l3.5,3.5c1.1,1.1,1.1,2.9,0,4l-6,6.1"/>
<line class="st1" x1="6.3" y1="35.1" x2="13.5" y2="42.3"/>
<line class="st3" x1="35.7" y1="4.6" x2="43" y2="12"/>
<line class="st3" x1="34.4" y1="5.9" x2="41.8" y2="13.3"/>
<g>
	<path class="st3" d="M25,37.5V26.8c0,0,0-2-2.1-2c0,0-2.2,0-2.2,2.3c0,0,0,2.2,2.1,2.2h3.9"/>
	<path class="st3" d="M28,37.5V26.8c0,0,0-2,2.1-2c0,0,2.2,0,2.2,2.3c0,0,0,2.2-2.1,2.2h-3.9"/>
</g>
<polygon class="st4" points="4.2,40.9 7.6,44.3 5,45.3 3.5,44.7 3.1,42.9 "/>
<path class="st5" d="M18.1,38l-4.5,4.5L5,45.4c-1.1,0.4-2.2-0.7-1.8-1.8l3.1-8.9l7.7-7.7C11.3,19.6,16,13.7,16,13.7
	c6.6-7.1,15.3-4.1,15.3-4.1l6.6-6.6c1.1-1.1,2.8-1,3.8,0l3.7,3.8c1,1.1,1,2.8,0,3.8l-6.3,6.1c4.3,10.3-5.1,16.6-5.1,16.6l0.1,3.5
	v3.1"/>
<line class="st1" x1="19.9" y1="37.3" x2="34.1" y2="37.3"/>
<polygon class="st4" points="17.3,37.1 19.4,35 19.4,37.5 "/>
<path class="st6" d="M19.6,51"/>
<path class="st6" d="M19.6,42.7"/>
<line class="st1" x1="19.9" y1="42.7" x2="28.6" y2="42.7"/>
<path class="st6" d="M20.4,37.8"/>
<polyline class="st5" points="18.8,37.4 18.8,47.5 30.7,47.5 "/>
</svg>
