<?xml version="1.0" encoding="UTF-8"?>
<svg id="Camada_3" xmlns="http://www.w3.org/2000/svg" version="1.1" viewBox="0 0 50 50">
  <!-- Generator: Adobe Illustrator 29.3.1, SVG Export Plug-In . SVG Version: 2.1.0 Build 151)  -->
  <defs>
    <style>
      .st0 {
        fill: #f9f941;
      }

      .st1 {
        stroke-width: .5px;
      }

      .st1, .st2, .st3 {
        fill: none;
        stroke: #444;
      }

      .st1, .st3 {
        stroke-miterlimit: 10;
      }

      .st2 {
        stroke-linecap: round;
        stroke-linejoin: round;
        stroke-width: 2.5px;
      }

      .st4 {
        fill: #d1bd00;
      }
    </style>
  </defs>
  <polyline class="st4" points="18.8 28.1 27 28.2 31.8 21.5"/>
  <g>
    <path class="st0" d="M48.4,20.1c-.2-.8-2.7-7.5-3.2-8.1l-3-3.5h-.2c0,0-7.6-5.7-7.6-5.7l-7.8-.7c-3.2,0-14.5.3-21.4,10.2l-3.9,10.6h-.2c0,0,4,13.5,4,13.5.1.4,4.5,5.7,4.9,5.9l5.6,3,32.2-11.7c.7-.4,1.7-8.6.8-13.4Z"/>
    <g>
      <path class="st2" d="M32.2,47c-7,2.3-15,1.2-21.3-3.6C.5,35.7-1.6,21,6.2,10.7"/>
      <path class="st2" d="M6,10.8c2-3,4.7-4.7,4.7-4.7l.7-.5C19.5-.1,30.7-.3,39,6c10.4,7.8,12.4,22.5,4.7,32.8"/>
    </g>
    <g>
      <path class="st3" d="M13.6,6.6h13.2c.9,0,1.6.7,1.6,1.6v8c0,.9-.7,1.6-1.6,1.6H5.5c-.9,0-1.6-.7-1.6-1.6h0c0-5.3,4.3-9.6,9.6-9.6Z"/>
      <rect class="st3" x="24.6" y="24.2" width="16.2" height="7.4" rx="1.6" ry="1.6"/>
      <rect class="st3" x="24.6" y="34.3" width="16.2" height="7.4" rx="1.6" ry="1.6"/>
      <path class="st1" d="M16.2,17.8v18.4c0,.9.7,1.7,1.7,1.7h6.8"/>
      <line class="st1" x1="24.7" y1="27.7" x2="16.1" y2="27.7"/>
      <polyline class="st1" points="27.6 6.9 22 12.3 19.1 9.5 13.8 14.7 10.5 11.5 4.4 17.5"/>
    </g>
  </g>
</svg>