<?xml version="1.0" encoding="utf-8"?>
<!-- Generator: Adobe Illustrator 24.0.3, SVG Export Plug-In . SVG Version: 6.00 Build 0)  -->
<svg version="1.1" id="Camada_1" xmlns="http://www.w3.org/2000/svg" xmlns:xlink="http://www.w3.org/1999/xlink" x="0px" y="0px"
	 viewBox="0 0 50 50" style="enable-background:new 0 0 50 50;" xml:space="preserve">
<style type="text/css">
	.st0{fill:#F799FF;}
	.st1{fill:#E589EF;}
	.st2{fill-rule:evenodd;clip-rule:evenodd;fill:#464646;}
	.st3{fill:#464646;}
</style>
<path class="st0" d="M25.4,2.2c-12.1,0-22,9.4-23,21.2L41.8,9.1C37.6,4.8,31.8,2.2,25.4,2.2z"/>
<path class="st1" d="M47.9,24.6c0-6.2-2.5-11.8-6.6-15.9L2.5,22.8c0,0.6-0.1,1.2-0.1,1.8c0,4.3,1.2,8.4,3.4,11.9l0.1,0.1l0.6,0.9
	c0.1,0.1,0.1,0.2,0.2,0.3c0.2,0.3,0.4,0.5,0.6,0.8c0.1,0.1,0.1,0.2,0.2,0.3c0.3,0.3,0.6,0.7,0.8,1l0.9,0.9l0.3,0.3
	c0.2,0.2,0.5,0.4,0.7,0.6l0.3,0.3c0.3,0.2,0.6,0.5,0.9,0.7l0.1,0.1c0.1,0.1,0.2,0.1,0.3,0.2l35.3-12.9
	C47.7,28.4,47.9,26.5,47.9,24.6z"/>
<path class="st2" d="M9.1,16.9H7.3v13.6h15.4C22.7,23,16.6,16.9,9.1,16.9z M11.5,25.4h6.1c2.1,0,3.8,1.7,3.8,3.8h-9.9V25.4z
	 M40.7,16.9c-7.5,0-13.6,6.1-13.6,13.6h15.4V16.9H40.7z M38.4,29.2h-9.9c0-2.1,1.7-3.8,3.8-3.8h6.1V29.2z"/>
<path class="st3" d="M25,0.6C11.5,0.6,0.6,11.5,0.6,25s11,24.4,24.4,24.4c13.5,0,24.4-11,24.4-24.4C49.4,11.5,38.5,0.6,25,0.6z
	 M46.9,25c0,3.6-0.9,7-2.4,10H25.2V3.1C37.2,3.2,46.9,13,46.9,25z M24.7,3.1V35H5.5C4,32,3.1,28.6,3.1,25C3.1,13,12.7,3.3,24.7,3.1z
	 M25,46.9c-8.3,0-15.5-4.6-19.2-11.4h38.5C40.5,42.3,33.3,46.9,25,46.9z"/>
</svg>
