<?xml version="1.0" encoding="utf-8"?>
<!-- Generator: Adobe Illustrator 22.0.1, SVG Export Plug-In . SVG Version: 6.00 Build 0)  -->
<svg version="1.1" id="Layer_1" xmlns="http://www.w3.org/2000/svg" xmlns:xlink="http://www.w3.org/1999/xlink" x="0px" y="0px"
	 viewBox="0 0 50 50" style="enable-background:new 0 0 50 50;" xml:space="preserve">
<style type="text/css">
	.st0{fill:#BEE367;}
	.st1{fill:#D4FF73;}
	.st2{fill:#464646;}
	.st3{fill:#424143;}
	.st4{fill:#4A4A4A;}
</style>
<path class="st0" d="M42.3,29.7c0.1,0,0.3-0.1,0.4-0.2c0.1-0.1,0.1-0.1,0.2-0.2c0,0,0-0.1,0.1-0.1l4.5-1.6c0-2.2-1-4.2-2.6-5.4
	c1-1.1,1.6-2.6,1.6-4.1c0-2.9-2-5.3-4.8-5.9c0.1-0.4,0.1-0.8,0.1-1.2c0-0.1,0-0.3,0-0.4L2.9,24.7c-0.4,0.9-0.6,1.9-0.6,2.9
	c0,2.5,1.3,4.7,3.4,5.9c0,0,0,0,0,0c-0.4,0.8-0.6,1.7-0.6,2.7c0,2.4,1.4,4.5,3.4,5.5L42,29.5C42.1,29.6,42.2,29.7,42.3,29.7z"/>
<path class="st1" d="M33.8,3.2c-4.3,0-7.9,3.5-7.9,7.9l0,1.8c-0.3,0-0.6,0-0.8,0h-0.5c-0.3,0-0.6,0-0.8,0l0-1.8
	c0-4.3-3.5-7.9-7.9-7.9S8,6.7,8,11c0,0.4,0,0.8,0.1,1.2c-2.7,0.6-4.8,3-4.8,5.9c0,1.5,0.6,3,1.6,4.1c-0.9,0.7-1.6,1.6-2,2.6
	l38.7-14.1C41.4,6.5,38,3.2,33.8,3.2z"/>
<g>
	<path class="st2" d="M28.7,40.1h-2.2v-7.1c0-1.9,0.1-3.5,0.4-4.9l0-0.1h-3.5l0,0.1c0.2,1.3,0.4,2.9,0.4,4.9v7.1h-2.2
		c-0.9,0-1.9-0.6-1.9-1.8c0-0.4,0-0.9,0-1.4c0-1,0.1-2-0.2-2.7c-1-1.5-2.7-4.3-3.1-5.3l0-0.1c-0.6-1.3-0.9-2.7-0.9-4.1
		c0-5.3,4.3-9.6,9.6-9.6h0.5c5.3,0,9.6,4.3,9.6,9.6c0,1.5-0.3,2.9-1,4.2l0,0.1c-0.4,1.1-2.1,3.8-3.1,5.4c-0.3,0.6-0.2,1.7-0.2,2.7
		c0,0.5,0,1,0,1.4C30.6,39.5,29.7,40.1,28.7,40.1z M28,38.6h0.7c0.4,0,0.4-0.2,0.4-0.4c0-0.4,0-0.8,0-1.3c0-1.2-0.1-2.4,0.4-3.4
		l0.1-0.1c1.2-1.8,2.6-4.1,3-5l0.1-0.2c0.6-1.2,0.8-2.4,0.8-3.6c0-4.4-3.6-8.1-8.1-8.1h-0.5c-4.4,0-8.1,3.6-8.1,8.1
		c0,1.2,0.3,2.4,0.8,3.5l0.1,0.2c0.3,0.9,1.8,3.2,2.9,5l0.1,0.1c0.5,1,0.4,2.3,0.4,3.4c0,0.5,0,0.9,0,1.3c0,0.2,0,0.4,0.4,0.4h0.7
		v-5.6c0-1.5-0.1-2.9-0.3-4c-2-0.2-2.9-1-3.2-1.6c-0.4-0.7-0.4-1.6,0-2.4c0.4-0.7,1.1-1.1,1.8-1.2c0.9-0.1,1.8,0.3,2.5,1.1
		c0.4,0.4,0.7,1,0.9,1.7h2.2c0.2-0.8,0.5-1.3,0.9-1.7c0.7-0.8,1.6-1.2,2.5-1.1c0.8,0.1,1.4,0.5,1.8,1.2c0.4,0.8,0.4,1.7,0,2.4
		c-0.4,0.6-1.2,1.4-3.2,1.6c-0.2,1.1-0.3,2.5-0.3,4V38.6z M29.4,25.1c-0.4,0-0.8,0.2-1.1,0.6c-0.2,0.2-0.5,0.7-0.7,1.7l0,0.1l0.1,0
		c1.8-0.1,2.4-0.6,2.6-0.9c0.2-0.3,0.2-0.6,0-0.9c-0.1-0.3-0.4-0.4-0.7-0.5C29.4,25.2,29.4,25.1,29.4,25.1z M20.9,25.2
		c0,0-0.1,0-0.1,0c-0.3,0-0.5,0.2-0.7,0.4c-0.2,0.3-0.2,0.6,0,0.9c0.2,0.3,0.8,0.9,2.6,0.9l0.1,0l0-0.1c-0.3-1-0.5-1.5-0.7-1.7
		C21.7,25.4,21.3,25.2,20.9,25.2z"/>
</g>
<g>
	<path class="st3" d="M32.1,42.1c-0.6-0.2-1-0.6-1.2-1.1c-0.1-0.3-0.4-0.4-0.7-0.2c-0.3,0.1-0.4,0.4-0.2,0.7c0.4,0.8,1,1.4,1.8,1.7
		c0.4,0.1,0.7,0.2,1.1,0.2c0.5,0,0.9-0.1,1.4-0.3c1.5-0.7,2.2-2.4,1.7-4c-0.1-0.3-0.4-0.4-0.6-0.3c-0.3,0.1-0.4,0.4-0.3,0.6
		c0.4,1.1-0.1,2.3-1.1,2.7C33.2,42.3,32.6,42.4,32.1,42.1z"/>
</g>
<g>
	<path class="st3" d="M36.7,11.8c-0.1,0.3,0.1,0.5,0.3,0.6c0,0,0.1,0,0.1,0c0.2,0,0.4-0.1,0.5-0.4c0.6-2.2-0.7-4.5-2.8-5.1
		c-1.1-0.3-2.2-0.2-3.1,0.4c-1,0.5-1.7,1.4-2,2.5c-0.1,0.3,0.1,0.5,0.3,0.6c0.3,0.1,0.5-0.1,0.6-0.3c0.2-0.8,0.8-1.5,1.5-1.9
		c0.7-0.4,1.6-0.5,2.4-0.3C36.3,8.4,37.2,10.1,36.7,11.8z"/>
</g>
<path class="st2" d="M48.9,27.4c0-2.1-0.8-4.1-2.2-5.6c0.8-1.2,1.2-2.5,1.2-3.9c0-3-1.9-5.7-4.7-6.8c0-0.1,0-0.2,0-0.3
	c0-5-4.1-9.1-9.1-9.1c-4.5,0-8.2,3.2-9,7.4c-0.8-4.2-4.5-7.4-9-7.4c-5,0-9.1,4.1-9.1,9.1c0,0.1,0,0.2,0,0.3c-2.8,1-4.7,3.7-4.7,6.8
	c0,1.4,0.4,2.8,1.2,3.9c-1.4,1.5-2.2,3.5-2.2,5.6c0,2.5,1.2,4.9,3.1,6.4c-0.2,0.7-0.3,1.5-0.3,2.2c0,3.4,2.3,6.3,5.5,7.2
	c1.3,3,4.2,4.9,7.5,4.9c4,0,7.3-2.9,8-6.6c0.7,3.8,4.1,6.6,8,6.6c3.3,0,6.2-2,7.5-4.9c3.2-0.9,5.5-3.8,5.5-7.2
	c0-0.8-0.1-1.5-0.3-2.2C47.8,32.3,48.9,29.9,48.9,27.4z M38.8,37.2c0.4,0.8,0.6,1.7,0.6,2.6c0,0.1,0,0.1,0,0.2c0-0.1,0-0.1,0-0.2
	C39.3,38.9,39.1,38,38.8,37.2z M39.3,40.7c0,0,0,0.1,0,0.1l0,0.2l0,0C39.2,40.9,39.2,40.8,39.3,40.7z M42.9,33.2
	c-0.1,0-0.1,0.1-0.2,0.1C42.8,33.2,42.8,33.2,42.9,33.2L42.9,33.2z M37,28c1,1.2,1.2,2.8,0.7,4.2c0,0.1-0.1,0.1-0.1,0.2
	c0-0.1,0.1-0.1,0.1-0.2C38.2,30.7,37.9,29.1,37,28z M37.5,32.4l-0.2,0.4l0,0L37,33.1c0,0,0,0-0.1,0.1C37.2,33,37.4,32.7,37.5,32.4z
	 M40.7,13.2c-0.1,0.3-0.3,0.7-0.4,1C40.4,13.9,40.6,13.5,40.7,13.2z M12.5,32.2c0,0.1,0.1,0.1,0.1,0.2
	C12.6,32.3,12.6,32.2,12.5,32.2c-0.6-1.4-0.3-3,0.7-4.2C12.2,29.1,12,30.7,12.5,32.2z M13.2,33.2C13.2,33.2,13.1,33.2,13.2,33.2
	l-0.3-0.4l0,0l-0.2-0.4C12.8,32.7,13,33,13.2,33.2z M10.9,40.8c0,0,0-0.1,0-0.1c0,0.1,0,0.2,0.1,0.3l0,0L10.9,40.8z M10.8,39.8
	c0-0.9,0.2-1.8,0.6-2.6C11,38,10.8,38.9,10.8,39.8c0,0,0,0.1,0,0.1C10.8,39.9,10.8,39.9,10.8,39.8z M7.4,33.2
	C7.4,33.2,7.5,33.2,7.4,33.2C7.5,33.2,7.4,33.2,7.4,33.2L7.4,33.2z M10,14.4c-0.1-0.1-0.1-0.2-0.1-0.3C9.9,14.2,10,14.3,10,14.4z
	 M9.6,13.7c0-0.1-0.1-0.2-0.1-0.2C9.6,13.5,9.6,13.6,9.6,13.7z M25.2,39.4c-0.2-0.4-0.6-0.7-1.1-0.7c-0.6,0-1.1,0.4-1.2,1h-0.2
	c0,3-2.4,5.4-5.4,5.4c-2.4,0-4.5-1.6-5.2-3.8c0-0.1,0-0.2,0-0.2c-0.1-0.5-0.2-1-0.2-1.4c0-0.8,0.2-1.5,0.5-2.2
	c0.1-0.2,0.1-0.5,0-0.8c-0.1-0.3-0.3-0.4-0.5-0.6c-0.2-0.1-0.5-0.1-0.8,0c-0.3,0.1-0.4,0.3-0.6,0.5c-0.4,1-0.7,2-0.7,3.1
	c0,0.1,0,0.2,0,0.4C8.1,39.4,7,37.7,7,35.9c0-0.6,0.1-1.1,0.3-1.6c1.7,0.6,3.6,0.5,5.3-0.2c0.9,1,2.3,1.6,3.7,1.6c0.5,0,1-0.4,1-1
	c0-0.6-0.4-1-1-1c-1.2,0-2.3-0.8-2.8-1.9c-0.4-1.1-0.2-2.3,0.5-3.1c0.2-0.2,0.3-0.5,0.2-0.7s-0.1-0.5-0.4-0.7
	c-0.4-0.4-1.1-0.3-1.4,0.1c-1.2,1.4-1.5,3.3-0.9,5c-0.6,0.2-1.2,0.3-1.8,0.3c-3,0-5.4-2.4-5.4-5.4c0-2.5,1.7-4.7,4.1-5.3
	c0.3-0.1,0.5-0.2,0.6-0.5c0.1-0.2,0.2-0.5,0.1-0.8C9,20.2,8.5,19.9,8,20c-0.5,0.1-1.1,0.3-1.6,0.6c-0.7-0.8-1.1-1.8-1.1-2.9
	c0-2,1.3-3.7,3.1-4.3c0.5,1.3,1.2,2.5,2.3,3.4c-0.8,1.6-0.6,3.4,0.5,4.9c0.3,0.4,1,0.5,1.4,0.2c0.2-0.2,0.4-0.4,0.4-0.7
	s0-0.5-0.2-0.7c-0.7-0.9-0.7-2-0.2-3c0.5-0.9,1.4-1.4,2.5-1.3c0.6,0,1-0.4,1-1c0-0.3-0.1-0.5-0.3-0.7s-0.4-0.3-0.7-0.3
	c-1.2-0.1-2.3,0.3-3.2,1.1c-1.3-1.2-2-2.9-2-4.6c0-3.5,2.9-6.4,6.4-6.4c0.9,0,1.7,0.2,2.5,0.5c0.4,0.2,0.7,0.4,1.1,0.6
	c1.7,1.1,2.8,3.1,2.8,5.3l0,1.9l0.1,0l0,1.4l1.4-0.1c0.2,0,0.5,0,0.7,0h0.5c0.2,0,0.5,0,0.7,0l1.4,0.1l0-3.1c0-3.4,2.5-6.1,5.8-6.5
	c0.2,0,0.3,0,0.5,0c3.5,0,6.4,2.9,6.4,6.4c0,1.8-0.7,3.4-2,4.6c-0.9-0.7-2-1.1-3.2-1.1c-0.3,0-0.5,0.1-0.7,0.3
	C34.1,14.7,34,15,34,15.2c0,0.5,0.5,1,1,1c1,0,1.9,0.5,2.5,1.3c0.5,0.9,0.5,2.1-0.2,3c-0.2,0.2-0.2,0.5-0.2,0.7s0.2,0.5,0.4,0.7
	c0.4,0.3,1.1,0.2,1.4-0.2c1-1.4,1.2-3.2,0.5-4.8c1-0.9,1.8-2.1,2.3-3.4c1.8,0.6,3.1,2.3,3.1,4.3c0,1-0.4,2.1-1.1,2.9
	c-0.5-0.3-1-0.4-1.6-0.6c-0.3-0.1-0.5,0-0.8,0.1c-0.2,0.1-0.4,0.4-0.5,0.6c-0.1,0.3,0,0.5,0.1,0.8s0.4,0.4,0.6,0.5
	c2.4,0.6,4.1,2.8,4.1,5.3c0,3-2.4,5.4-5.4,5.4c-0.6,0-1.2-0.1-1.8-0.3c0.6-1.7,0.3-3.6-0.9-5c-0.4-0.4-1-0.5-1.4-0.1
	c-0.2,0.2-0.3,0.4-0.4,0.7s0.1,0.5,0.2,0.7c0.7,0.9,0.9,2.1,0.5,3.1c-0.5,1.1-1.6,1.9-2.8,1.9c-0.3,0-0.5,0.1-0.7,0.3
	c-0.2,0.2-0.3,0.4-0.3,0.7c0,0.5,0.5,1,1,1c1.4,0,2.7-0.6,3.7-1.6c1.7,0.7,3.6,0.8,5.3,0.2c0.2,0.5,0.3,1,0.3,1.6
	c0,1.9-1.1,3.6-2.8,4.3c0-0.1,0-0.2,0-0.4c0-1.1-0.2-2.1-0.7-3.1c-0.1-0.2-0.3-0.4-0.6-0.5c-0.3-0.1-0.5-0.1-0.8,0
	c-0.2,0.1-0.4,0.3-0.5,0.6c-0.1,0.2-0.1,0.5,0,0.8c0.3,0.7,0.5,1.5,0.5,2.2c0,0.5-0.1,0.9-0.2,1.4c0,0.1-0.1,0.2,0,0.2
	c-0.7,2.3-2.8,3.9-5.2,3.9c-2.6,0-4.7-1.8-5.3-4.2c-0.1-0.3-0.1-0.7-0.1-1c0-0.7-0.6-1.2-1.2-1.2C25.8,38.8,25.4,39.1,25.2,39.4z
	 M7.8,33.4c0.1,0,0.2,0,0.3,0.1C8,33.4,7.9,33.4,7.8,33.4z M8.5,33.5c0.1,0,0.2,0,0.3,0C8.6,33.6,8.6,33.5,8.5,33.5z M9.1,33.6
	c0.1,0,0.2,0,0.3,0C9.3,33.6,9.2,33.6,9.1,33.6z M9.8,33.6c0.1,0,0.2,0,0.3,0C10,33.6,9.9,33.6,9.8,33.6z M10.5,33.6
	c0.1,0,0.2,0,0.2,0C10.7,33.6,10.6,33.6,10.5,33.6z M11.2,33.5c0.1,0,0.2,0,0.3-0.1C11.3,33.4,11.3,33.5,11.2,33.5z M11.8,33.3
	c0.1,0,0.2-0.1,0.3-0.1C12,33.2,11.9,33.2,11.8,33.3z M13.7,33.8c0,0,0.1,0.1,0.1,0.1C13.8,33.8,13.8,33.8,13.7,33.8z M14.4,34.2
	c0,0,0.1,0.1,0.1,0.1C14.5,34.3,14.5,34.2,14.4,34.2z M15.3,34.5c0.1,0,0.1,0,0.2,0C15.4,34.6,15.3,34.6,15.3,34.5z M10.3,14.8
	c0.1,0.1,0.1,0.2,0.2,0.2C10.4,15,10.3,14.9,10.3,14.8z M12,21.1c-0.2-0.3-0.4-0.6-0.5-0.9C11.6,20.5,11.8,20.8,12,21.1z M11.8,17
	C11.8,17,11.8,17,11.8,17l0.2-0.4l0.3-0.3c0,0,0,0,0.1,0C12.2,16.5,12,16.7,11.8,17z M12.8,15.9c0.1-0.1,0.1-0.1,0.2-0.1
	C13,15.8,12.9,15.8,12.8,15.9z M13.4,15.5c0.1,0,0.2-0.1,0.3-0.1C13.6,15.5,13.5,15.5,13.4,15.5z M14.2,15.3c0.1,0,0.2,0,0.2,0
	C14.4,15.3,14.3,15.3,14.2,15.3z M40.2,14.3c-0.2,0.3-0.4,0.6-0.6,0.9C39.8,15,40,14.6,40.2,14.3z M38.4,17
	c-0.2-0.3-0.4-0.5-0.6-0.7c0,0,0,0,0,0l0.3,0.3L38.4,17c0.8,1.3,0.7,2.9-0.2,4.1C39,19.9,39.1,18.3,38.4,17z M37.3,15.9
	c-0.1,0-0.1-0.1-0.2-0.1C37.2,15.8,37.3,15.8,37.3,15.9z M36.6,15.5c-0.1,0-0.1,0-0.2-0.1C36.5,15.4,36.5,15.4,36.6,15.5z
	 M35.9,15.3c-0.1,0-0.1,0-0.2,0C35.8,15.2,35.9,15.3,35.9,15.3z M42.3,33.4c-0.1,0-0.2,0-0.3,0.1C42.2,33.4,42.3,33.4,42.3,33.4z
	 M41.7,33.5c-0.1,0-0.2,0-0.2,0C41.5,33.6,41.6,33.5,41.7,33.5z M41,33.6c-0.1,0-0.2,0-0.2,0C40.9,33.6,40.9,33.6,41,33.6z
	 M40.4,33.6c-0.1,0-0.2,0-0.3,0C40.2,33.6,40.3,33.6,40.4,33.6z M39.7,33.6c-0.1,0-0.2,0-0.3,0C39.5,33.6,39.6,33.6,39.7,33.6z
	 M39,33.5c-0.1,0-0.2-0.1-0.3-0.1C38.8,33.4,38.9,33.5,39,33.5z M38.4,33.3c-0.1,0-0.3-0.1-0.4-0.2C38.1,33.2,38.2,33.2,38.4,33.3z
	 M36.4,33.8c0,0-0.1,0-0.1,0.1C36.4,33.8,36.4,33.8,36.4,33.8z M35.7,34.2c-0.1,0-0.1,0.1-0.2,0.1C35.6,34.3,35.7,34.2,35.7,34.2z
	 M34.9,34.5c-0.1,0-0.1,0-0.2,0C34.8,34.6,34.8,34.6,34.9,34.5z"/>
<g>
	<path class="st3" d="M19.7,40.8c-0.3-0.1-0.5,0-0.7,0.2c-0.5,1.1-1.8,1.6-2.9,1.1c-1-0.5-1.5-1.7-1.1-2.7c0.1-0.3,0-0.5-0.3-0.6
		c-0.3-0.1-0.5,0-0.6,0.3c-0.6,1.6,0.2,3.3,1.7,4c0.4,0.2,0.9,0.3,1.4,0.3c1.2,0,2.4-0.7,2.9-1.9C20,41.2,19.9,40.9,19.7,40.8z"/>
</g>
<g>
	<path class="st3" d="M17.6,8.2c0.7,0.4,1.3,1.1,1.5,1.9c0.1,0.3,0.4,0.4,0.6,0.3c0.3-0.1,0.4-0.4,0.3-0.6c-0.3-1.1-1-1.9-2-2.5
		c-1-0.5-2.1-0.7-3.1-0.4c-2.2,0.6-3.5,2.9-2.8,5.1c0.1,0.2,0.3,0.4,0.5,0.4c0,0,0.1,0,0.1,0c0.3-0.1,0.4-0.4,0.3-0.6
		c-0.5-1.7,0.5-3.4,2.1-3.8C16,7.7,16.8,7.8,17.6,8.2z"/>
</g>
<g>
	<path class="st3" d="M10.6,24.5c-1.1-0.5-2.3-0.3-3.2,0.4c-0.6,0.5-1,1.3-1.1,2.1c-0.1,0.8,0.2,1.6,0.7,2.3
		c0.1,0.1,0.1,0.1,0.2,0.2c0.1,0.1,0.2,0.2,0.4,0.2c0.1,0,0.3,0,0.3-0.1c0.2-0.2,0.2-0.5,0-0.7c0,0-0.1-0.1-0.1-0.1
		c-0.4-0.4-0.5-1-0.5-1.5c0.1-0.6,0.3-1.1,0.8-1.4c0.6-0.5,1.4-0.6,2.2-0.3c0.3,0.1,0.5,0,0.7-0.3C11,24.9,10.9,24.6,10.6,24.5z"/>
</g>
<g>
	<path class="st3" d="M42.4,24.9c-0.9-0.7-2.1-0.9-3.2-0.4c-0.3,0.1-0.4,0.4-0.3,0.7c0.1,0.3,0.4,0.4,0.7,0.3
		c0.7-0.3,1.6-0.2,2.2,0.3c0.4,0.4,0.7,0.9,0.8,1.4c0.1,0.6-0.1,1.1-0.5,1.5c0,0-0.1,0.1-0.1,0.1c-0.2,0.2-0.2,0.5,0,0.7
		c0,0,0,0,0,0l0.9-0.3C43.9,27.9,43.7,26,42.4,24.9z"/>
</g>
<g>
	<path class="st4" d="M42.6,29.5c0.1-0.1,0.1-0.1,0.2-0.2c0,0,0-0.1,0.1-0.1L42,29.5c0.1,0.1,0.2,0.1,0.3,0.1
		C42.4,29.7,42.5,29.6,42.6,29.5z"/>
</g>
</svg>
