<?xml version="1.0" encoding="utf-8"?>
<!-- Generator: Adobe Illustrator 25.2.0, SVG Export Plug-In . SVG Version: 6.00 Build 0)  -->
<svg version="1.1" id="Layer_1" xmlns="http://www.w3.org/2000/svg" xmlns:xlink="http://www.w3.org/1999/xlink" x="0px" y="0px"
	 viewBox="0 0 50 50" style="enable-background:new 0 0 50 50;" xml:space="preserve">
<style type="text/css">
	.st0{fill:#A6C1C2;}
	.st1{fill:#B9D7D9;}
	.st2{fill:none;stroke:#444444;stroke-width:2.5;stroke-linecap:round;stroke-linejoin:round;stroke-miterlimit:10;}
	.st3{fill:#444444;}
	.st4{fill:#494949;stroke:#494949;stroke-linecap:round;stroke-linejoin:round;stroke-miterlimit:10;}
	.st5{fill:none;stroke:#494949;stroke-linecap:round;stroke-linejoin:round;stroke-miterlimit:10;}
	.st6{fill:none;stroke:#444444;stroke-width:1.5;stroke-linecap:round;stroke-linejoin:round;stroke-miterlimit:10;}
</style>
<g>
	<g>
		<polygon class="st0" points="47.7,11.6 48.5,16.8 2.4,33.6 1.9,22.7 1.8,16.5 42.1,1.9 47.3,4.2 		"/>
		<polygon class="st1" points="46.1,2 48.4,5.2 1.5,21.9 2.6,4.8 5.6,1.9 34.7,1.7 		"/>
		<g>
			<path class="st2" d="M18.1,48.3H5.5c-1.9,0-3.4-1.6-3.4-3.5v-39c0-2,1.5-3.5,3.4-3.5h39c1.9,0,3.4,1.6,3.4,3.5v24.6"/>
		</g>
		<circle class="st3" cx="8.2" cy="8.2" r="1.4"/>
		<circle class="st3" cx="12.1" cy="8.2" r="1.4"/>
		<circle class="st3" cx="15.9" cy="8.2" r="1.4"/>
	</g>
	<g>
		<circle class="st4" cx="25.4" cy="36.4" r="4"/>
		<circle class="st5" cx="12.7" cy="23.8" r="4"/>
		<rect x="33.2" y="19.8" class="st4" width="7.9" height="7.9"/>
		<rect x="8.7" y="32.4" class="st5" width="7.9" height="7.9"/>
		<polygon class="st5" points="27.2,20 22.7,20 20.4,23.8 22.7,27.7 27.2,27.7 29.4,23.8 		"/>
		<polygon class="st5" points="37.2,32.8 33,40 41.3,40 		"/>
	</g>
</g>
</svg>
