<svg xmlns="http://www.w3.org/2000/svg" id="Layer_1" x="0" y="0" version="1.1" viewBox="0 0 50 50" xml:space="preserve"><style>.st2{fill:#031326}</style><path fill="#7ed0d6" d="M32.1 11c-.1-.1-.3-.3-.5-.4.4-2.3-.2-4.7-2-6.5-2.8-2.8-7.4-2.8-10.2 0-1.8 1.8-2.4 4.2-2 6.5-.4.2-.8.5-1.2.9-1.8 1.8-2.1 4.6-.9 6.8l17.4-6.4c0-.3-.4-.7-.6-.9z"/><path fill="#71bac0" d="M40 27.1l-9.4-5.4c.5-.2.9-.5 1.3-.9 1.5-1.5 1.6-3.9.3-5.5.9-.9 1.1-2.3.6-3.4l-17.4 6.3c.3.5.5.9.9 1.3 1.4 1.4 3.4 1.9 5.3 1.5L11 27.1v12.7l28.9-10.5.1-2.2z"/><path d="M30.2 24.1c-.6-.4-1.4-.7-2.2-.9l1.4-1.4c.2-.2.3-.4.3-.6s-.1-.4-.3-.6c-.3-.3-.9-.3-1.2 0l-1.9 1.9V20h-.5v3.7l2.8-2.7c.1-.1.4-.1.5 0s.1.1.1.2 0 .2-.1.2L27.5 23v.1L26 24.5l-.2.1v3.2c0 .1-.1.3-.3.4-.5.3-1.3.3-1.8.1 0 0-.1 0-.1-.1h-.1c-.1-.1-.2-.2-.2-.3v-5.5l-.1-.1s-.1 0-.1-.1l-1-1-.3.4 1 1 .1.1v.2c-1.5.2-2.9.6-4 1.3-1.6.9-2.4 2.1-2.4 3.4s.9 2.6 2.5 3.5c1.6.9 3.7 1.4 5.7 1.4s4.1-.5 5.7-1.4c1.6-.9 2.4-2.1 2.4-3.4 0-1.5-.9-2.7-2.6-3.6zm-.2 6.5c-3 1.7-7.9 1.7-10.9 0-1.4-.8-2.2-1.9-2.2-3s.8-2.2 2.2-3c1-.6 2.3-1 3.7-1.2V28c.1.2.2.3.4.5 0 0 .1 0 .1.1.1 0 .1.1.2.1.3.1.7.2 1 .2.4 0 .9-.1 1.2-.3.4-.2.6-.5.6-.8v-2.9l1.3-1.3c.9.2 1.7.5 2.4.9 1.4.8 2.2 1.9 2.2 3 0 1.2-.7 2.2-2.2 3.1zm-2.1 14.3l2.1-1.2V41l-2.1 1.2zm2.6-7.4l2-1.2v-2.8l-2 1.2zm5.7 2l2.1-1.2v-2.8l-2.1 1.2zm-13.3-.4l-2.1-1.2v-2.8l2.1 1.2zm-5.4-1l-2-1.2v-2.8l2 1.2zm-3.6 1.7l-2-1.2v-2.8l2 1.2zm3.6-29.6c-.4-2.1.3-4.3 1.8-5.9 1.2-1.2 2.9-1.9 4.6-1.9 1.8 0 3.4.7 4.6 1.9 1.5 1.5 2.2 3.7 1.8 5.9H30c.4-2.1-.3-4.2-1.7-5.7-1.2-1.2-2.8-1.9-4.5-1.9s-3.3.7-4.5 1.9c-1.5 1.5-2.1 3.6-1.7 5.7h-.1z" class="st2"/><path d="M21.9 5.2c.5.5.5 1.2 0 1.7s-1.2.5-1.7 0-.5-1.2 0-1.7 1.2-.5 1.7 0zm-3.4 6.4c.4.4.4 1 0 1.4s-1 .4-1.4 0-.4-1 0-1.4 1-.4 1.4 0z" class="st2"/><path d="M32 21.4l.1-.1c1.7-1.7 2-4.3.9-6.3.4-.7.6-1.5.6-2.3 0-1.2-.4-2.2-1.3-3.1.3-2.5-.6-5-2.4-6.8-1.6-1.6-3.7-2.5-6-2.5s-4.4.9-6 2.5c-1.8 1.8-2.7 4.3-2.4 6.7-.3.2-.5.4-.7.6-2.7 2.7-2.7 7.1 0 9.8.8.8 1.7 1.4 2.8 1.7l-8.3 4.8v14.2L25 49.7l15.6-9.1V26.4l-8.6-5zm-11.2-2.1c-.4.1-.8.1-1.2.1-.5 0-1.1-.1-1.6-.4-.1-.1-.2-.1-.3-.2-.1 0-.2-.1-.3-.1-.3-.2-.5-.4-.8-.6-.5-.5-.8-1-1.1-1.6-.2-.5-.3-.9-.3-1.4.2.7.5 1.4 1.1 2 .8.8 1.8 1.2 2.9 1.2s2.1-.4 2.9-1.2c1.6-1.6 1.6-4.1 0-5.7-1.1-1.1-2.5-1.4-3.9-1l.1-.4c.1-.1.3-.1.4-.2 1.8-.6 3.9-.2 5.3 1.2.3.3.6.7.8 1.1.3.5.5 1.1.6 1.7-.1.1-.2.1-.2.2-.4.4-.7 1-.8 1.6-.1.4-.2.8-.2 1.2 0 .4.1.7.2 1.1l-.3.3c-.6.6-1.4 1.1-2.3 1.3-.4-.2-.8-.2-1-.2zm-.9-14.8c.3-.3.6-.5.9-.7 1.7-.8 3.7-.6 5.2.8.8.8 1.3 2 1.3 3.2s-.5 2.3-1.3 3.2c-.3.3-.7.6-1.1.8-.2-.3-.4-.6-.7-.9-1.4-1.4-3.5-1.9-5.4-1.3-.5-.8-.6-1.7-.5-2.5.2-.9.7-1.8 1.6-2.6zm10.6 9.6c-.2-.2-.4-.4-.7-.5.4-.4.7-1 .7-1.6 0-.3-.1-.6-.2-.9l.2.1c.1.1.2.1.3.2.3.3.5.8.5 1.3s-.2.9-.5 1.2l-.3.2zm-4.3-.8c0-.1-.1-.2-.1-.4.1.1.1.2.2.3.1 0-.1 0-.1.1zm-.2-1.6c-.2.5-.1 1.1 0 1.6-.2.1-.4.2-.5.3-.1-.5-.3-1-.5-1.5.4-.2.7-.4 1-.7v.3zm-.6 2.6c.5-.5 1.1-.7 1.7-.7s1.3.3 1.7.7c.9.9.9 2.5 0 3.4s-2.5.9-3.4 0c-.9-.9-.9-2.4 0-3.4zm1.5-1.2c-.6-.7-.6-1.7.1-2.4s1.8-.7 2.5 0c.3.3.5.8.5 1.2 0 .5-.2.9-.5 1.2 0 0 0 .1-.1.1-.8-.2-1.6-.3-2.5-.1zm3-2.7c-.2-.2-.4-.4-.7-.5.3 0 .5.1.7.2v.3zm-11.8-.7zm-.6 1.5c.6-.3 1.2-.5 1.7-.5.9 0 1.8.3 2.5 1 1.4 1.4 1.4 3.6 0 5-.7.7-1.6 1-2.5 1s-1.8-.4-2.5-1c-1.4-1.4-1.4-3.6 0-5 .1-.1.2-.2.4-.3.3 0 .4-.1.4-.2zm6.7 5.5c.1.5.4 1 .8 1.4.6.6 1.3.9 2.1.9s1.5-.3 2.1-.9c1.1-1.1 1.1-3 0-4.1-.4-.4-.9-.6-1.4-.8.9 0 1.8.3 2.5 1l-.5.5.7.9c.5.6.7 1.3.6 2-.2.6-.5 1.1-.9 1.6-.7.7-1.6 1-2.5 1s-1.8-.4-2.5-1c-.6-.6-1-1.5-1-2.5zm4-12.2c1.4 1.4 2 3.4 1.6 5.4-.6-.3-1.3-.3-2-.1-.3 0-.5.1-.8.3.4-.7.6-1.4.6-2.2 0-1.3-.5-2.6-1.5-3.5-.8-.8-1.9-1.3-3-1.4.3 0 .6-.1.8-.1 1.7-.1 3.2.5 4.3 1.6zm-3.3 34.2v8l-13-7.5v-11l13 7.5v3zm-12.8-11l10.3-6-.3-.5c.2-.3.2-.6.2-.9-.1-.3-.2-.5-.4-.6.8-.3 1.6-.7 2.2-1.3.1-.1.1-.2.2-.2.2.5.5 1 .9 1.3.7.7 1.7 1.1 2.7 1.1.3 0 .5 0 .8-.1-.4.3-.6.8-.4 1.3.1.6.6.9 1.2 1l8.7 5-12.9 7.5-13.2-7.6zm26.1 11.5l-12.9 7.5V35.6l12.9-7.5v11.1z" class="st2"/><path d="M26.8 14.5c.3.3.3.7 0 1-.3.3-.7.3-1 0-.3-.3-.3-.7 0-1 .2-.3.7-.3 1 0z" class="st2"/></svg>