<?xml version="1.0" encoding="utf-8"?>
<!-- Generator: Adobe Illustrator 28.0.0, SVG Export Plug-In . SVG Version: 6.00 Build 0)  -->
<svg version="1.1" id="Layer_1" xmlns="http://www.w3.org/2000/svg" xmlns:xlink="http://www.w3.org/1999/xlink" x="0px" y="0px"
	 viewBox="0 0 50 50" style="enable-background:new 0 0 50 50;" xml:space="preserve">
<style type="text/css">
	.st0{fill:#E589EF;}
	.st1{fill:none;stroke:#444444;stroke-width:2.5;stroke-linecap:round;stroke-linejoin:round;stroke-miterlimit:10;}
	.st2{fill:#444444;}
	.st3{fill:none;stroke:#494949;stroke-width:0.5;stroke-miterlimit:10;}
	.st4{fill:none;stroke:#494949;stroke-linecap:round;stroke-linejoin:round;stroke-miterlimit:10;}
</style>
<g>
	<path class="st0" d="M47.9,17.3l0.5-11l-1.9-3.8L31.1,2.9c-3.2,0-27.8-3-27.8,0.2L1.6,23.7l1.2,23.5l13.6,0.6l31-11
		C48.1,36.5,48.9,19.3,47.9,17.3z"/>
	<path class="st1" d="M36,48.4H5.9c-1.9,0-3.4-1.6-3.4-3.5v-39c0-2,1.5-3.5,3.4-3.5h39c1.9,0,3.4,1.6,3.4,3.5v30.8"/>
	<circle class="st2" cx="8.6" cy="8.3" r="1.4"/>
	<circle class="st2" cx="12.5" cy="8.3" r="1.4"/>
	<circle class="st2" cx="16.3" cy="8.3" r="1.4"/>
	<circle class="st3" cx="25.8" cy="36.5" r="4"/>
	<circle class="st4" cx="13.1" cy="23.9" r="4"/>
	<path class="st3" d="M33.6,19.9h7.9v7.9h-7.9V19.9z"/>
	<path class="st4" d="M9.1,32.5H17v7.9H9.1V32.5z M27.6,20.1h-4.5l-2.3,3.8l2.3,3.9h4.5l2.2-3.9L27.6,20.1z M37.6,32.9l-4.2,7.2h8.3
		L37.6,32.9z"/>
</g>
</svg>
