<svg xmlns="http://www.w3.org/2000/svg" id="Camada_3" version="1.1" viewBox="0 0 50 50"><defs><style>.st2,.st3{fill:none;stroke:#444}.st3{stroke-miterlimit:10}.st2{stroke-linecap:round;stroke-linejoin:round;stroke-width:2.5px}</style></defs><path fill="#d1bd00" d="M18.8 28.1l8.2.1 4.8-6.7"/><path fill="#f9f941" d="M48.4 20.1c-.2-.8-2.7-7.5-3.2-8.1l-3-3.5H42l-7.6-5.7-7.8-.7c-3.2 0-14.5.3-21.4 10.2L1.3 22.9h-.2l4 13.5c.1.4 4.5 5.7 4.9 5.9l5.6 3 32.2-11.7c.7-.4 1.7-8.6.8-13.4z"/><path d="M32.2 47c-7 2.3-15 1.2-21.3-3.6C.5 35.7-1.6 21 6.2 10.7" class="st2"/><path d="M6 10.8c2-3 4.7-4.7 4.7-4.7l.7-.5C19.5-.1 30.7-.3 39 6c10.4 7.8 12.4 22.5 4.7 32.8" class="st2"/><path d="M13.6 6.6h13.2c.9 0 1.6.7 1.6 1.6v8c0 .9-.7 1.6-1.6 1.6H5.5c-.9 0-1.6-.7-1.6-1.6 0-5.3 4.3-9.6 9.6-9.6z" class="st3"/><rect width="16.2" height="7.4" x="24.6" y="24.2" class="st3" rx="1.6" ry="1.6"/><rect width="16.2" height="7.4" x="24.6" y="34.3" class="st3" rx="1.6" ry="1.6"/><path fill="none" stroke="#444" stroke-miterlimit="10" stroke-width=".5" d="M16.2 17.8v18.4c0 .9.7 1.7 1.7 1.7h6.8m0-10.2h-8.6M27.6 6.9L22 12.3l-2.9-2.8-5.3 5.2-3.3-3.2-6.1 6"/></svg>