<?xml version="1.0" encoding="utf-8"?>
<!-- Generator: Adobe Illustrator 26.5.0, SVG Export Plug-In . SVG Version: 6.00 Build 0)  -->
<svg version="1.1" id="Layer_1" xmlns="http://www.w3.org/2000/svg" xmlns:xlink="http://www.w3.org/1999/xlink" x="0px" y="0px"
	 viewBox="0 0 50 50" style="enable-background:new 0 0 50 50;" xml:space="preserve">
<style type="text/css">
	.st0{fill:#00DFFC;}
	.st1{fill:#00C8E2;}
	.st2{fill:#444444;}
	.st3{fill:none;stroke:#444444;stroke-width:0.25;stroke-linecap:round;stroke-miterlimit:10;}
	.st4{fill:none;stroke:#444444;stroke-width:0.25;stroke-miterlimit:10;}
	.st5{fill:none;stroke:#444444;stroke-width:2.5;stroke-linecap:round;stroke-linejoin:round;stroke-miterlimit:10;}
</style>
<g>
	<g>
		<path class="st0" d="M26.14,8.99l-10.49,0l-2.13,3.68c-0.77,0.24-10.94,1.01-10.94,1.81v10.74L38.2,12.54l-10.77,0.13L26.14,8.99z
			"/>
		<polygon class="st1" points="2.26,24.69 2.74,40.62 16.52,41.58 43.41,32.02 48.67,19.77 40.26,19.18 36.77,12.66 		"/>
	</g>
	<g>
		<g>
			<g>
				<g>
					<path class="st2" d="M28.34,22.27l-1.52,1.52l2.99,2.99l1.52-1.52c0.14-0.14,0.14-0.37,0-0.51l-2.47-2.47
						C28.71,22.13,28.48,22.13,28.34,22.27z"/>
				</g>
				<g>
					<path class="st2" d="M29.81,26.79l-3-3l1.53-1.53c0.14-0.14,0.38-0.14,0.52,0l2.47,2.47c0.14,0.14,0.14,0.38,0,0.52
						L29.81,26.79z M26.83,23.79l2.98,2.98l1.52-1.52c0.14-0.14,0.14-0.36,0-0.5l-2.47-2.47c-0.14-0.14-0.36-0.14-0.5,0L26.83,23.79
						z"/>
				</g>
			</g>
			<g>
				<g>
					<path class="st2" d="M26.4,24.21l-7.1,7.1l-2.04,4.79c-0.06,0.15,0.09,0.29,0.23,0.23l4.79-2.04l7.1-7.1L26.4,24.21z
						 M19.14,35.1l-0.63-0.63l1.02-2.39l2.01,2.01L19.14,35.1z"/>
				</g>
				<g>
					<path class="st2" d="M17.3,36.3c-0.05-0.05-0.07-0.13-0.04-0.2l2.04-4.79l7.11-7.11l3,3l-7.11,7.11l-4.79,2.04
						C17.43,36.37,17.35,36.36,17.3,36.3z M19.31,31.32l-2.04,4.79c-0.03,0.06-0.01,0.14,0.04,0.18s0.12,0.06,0.18,0.04l4.79-2.04
						l7.1-7.1l-2.98-2.98L19.31,31.32z M19.13,35.11l-0.64-0.64l0,0l1.02-2.4l2.02,2.02L19.13,35.11z M18.51,34.46l0.63,0.63
						l2.38-1.01l-1.99-1.99L18.51,34.46z"/>
				</g>
			</g>
		</g>
		<path class="st3" d="M17.24,36.87h4.17c0.26,0,0.52-0.02,0.77-0.06c0.86-0.13,2.01-0.11,3.18-1.7c0,0,1.18-2.02,2.92,0.66
			c1.33,2.04,2.56,1.3,2.56,1.3s0.55-0.31,0.5-0.92c-0.12-1.55,1.23-1.05,3.7,0.72"/>
	</g>
	<g>
		<path class="st4" d="M14.81,18.14h6.04h6.04h6.04h7.06l-1.02-0.38v-0.38V17v-0.38c0-0.31-0.06-0.61-0.18-0.88
			c-0.12-0.27-0.28-0.51-0.49-0.72c-0.21-0.2,0.25-0.55-0.02-0.66c-0.27-0.11-1.15-0.97-1.46-0.97h-2.49h-2.49h-2.49h-2.49
			l-0.11-0.03v0.33v-0.33v-0.33c0-0.47-0.1-0.91-0.27-1.32c-0.17-0.41-0.42-0.77-0.73-1.08c-0.31-0.31-0.68-0.56-1.08-0.73
			c-0.41-0.17-0.85-0.27-1.32-0.27h-1.45h-1.45h-1.45h-1.45c-0.23,0-0.45,0.02-0.67,0.07c-0.22,0.04-0.43,0.11-0.63,0.19
			c-0.2,0.08-0.4,0.19-0.58,0.31c-0.18,0.12-0.36,0.27-0.52,0.43c-0.16,0.16-0.31,0.33-0.43,0.52c-0.12,0.18-0.23,0.38-0.31,0.58
			c-0.08,0.2-0.15,0.41-0.19,0.63c-0.04,0.22-0.06,0.44-0.06,0.66v0.33v0.33v0.33l-0.39-0.19l-3.92-1.01l-1.96,0.31H5.27L3.6,13.21
			c-0.31,0-0.46,0.7-0.73,0.81c-0.27,0.11-0.11,0.79-0.32,1c-0.21,0.2-0.37,0.45-0.49,0.72c-0.12,0.27-0.18,0.57-0.18,0.88v5.06
			v5.06v5.06v5.06L3.79,33l1.91-3.86l1.91-3.86l1.91-3.86c0.23-0.47,0.55-0.91,0.92-1.31s0.81-0.75,1.29-1.04
			c0.47-0.29,0.98-0.53,1.5-0.69C13.75,18.22,14.28,18.14,14.81,18.14z M16.94,11.97c0-0.06,0.01-0.13,0.02-0.19
			c0.01-0.06,0.03-0.12,0.06-0.18c0.02-0.06,0.05-0.11,0.09-0.17c0.04-0.05,0.08-0.1,0.12-0.15c0.04-0.05,0.09-0.09,0.15-0.12
			c0.05-0.04,0.11-0.07,0.17-0.09c0.06-0.02,0.12-0.04,0.18-0.06C17.79,11,17.86,11,17.92,11h1.26h1.26h1.26h1.26
			c0.14,0,0.27,0.03,0.38,0.08c0.12,0.05,0.22,0.12,0.31,0.21c0.09,0.09,0.16,0.19,0.21,0.31c0.05,0.12,0.08,0.24,0.08,0.38v0.29
			v0.29v0.29v0.29h-1.74h-1.74h-1.74h-1.74v-0.29v-0.29v-0.29V11.97z"/>
		<path class="st4" d="M46.44,26.86l2.19-4.43c0.14-0.28,0.21-0.54,0.21-0.79s-0.05-0.46-0.17-0.64c-0.11-0.18-0.28-0.33-0.5-0.44
			c-0.22-0.1-0.49-0.16-0.8-0.16h-8.14h-8.14h-8.14h-8.14c-0.31,0-0.64,0.06-0.96,0.16c-0.32,0.1-0.64,0.25-0.93,0.44
			s-0.57,0.4-0.8,0.64c-0.23,0.24-0.43,0.51-0.57,0.79l-2.19,4.43l-2.19,4.43l-2.19,4.43l-2.19,4.43c-0.14,0.28-0.2-0.43-0.21-0.18
			c0,0.24,0.05,0.46,0.17,0.64c0.11,0.18,0.29,0.33,0.51,0.44c0.22,0.1,0.49,0.16,0.8,0.16h8.14h8.14h8.14"/>
	</g>
	<path class="st5" d="M42.36,33.59l4.08-7.95l2.19-4.43c0.14-0.28,0.21-0.54,0.21-0.79c0.01-0.24-0.05-0.46-0.17-0.64
		c-0.11-0.18-0.28-0.33-0.5-0.44c-0.22-0.1-0.49-0.16-0.8-0.16h-8.14h-0.25 M38.98,19.18v-2.64v-0.38v-0.38V15.4
		c0-0.31-0.06-0.61-0.18-0.88c-0.12-0.27-0.28-0.51-0.49-0.72c-0.21-0.2-0.45-0.37-0.72-0.48c-0.27-0.11-0.57-0.18-0.88-0.18h-2.49
		h-2.49h-2.49h-2.49v-0.33v-0.33v-0.33v-0.33c0-0.47-0.1-0.91-0.27-1.32c-0.17-0.41-0.42-0.77-0.73-1.08
		c-0.31-0.31-0.68-0.56-1.08-0.73c-0.41-0.17-0.85-0.27-1.32-0.27h-1.45h-1.45h-1.45h-1.45c-0.23,0-0.45,0.02-0.67,0.07
		c-0.22,0.04-0.43,0.11-0.63,0.19c-0.2,0.08-0.4,0.19-0.58,0.31c-0.18,0.12-0.36,0.27-0.52,0.43c-0.16,0.16-0.31,0.33-0.43,0.52
		c-0.12,0.18-0.23,0.38-0.31,0.58c-0.08,0.2-0.15,0.41-0.19,0.63c-0.04,0.22-0.06,0.44-0.06,0.66v0.33v0.33v0.33v0.33h-2.5h-2.5
		h-2.5h-2.5c-0.31,0-0.61,0.06-0.88,0.18C3,13.43,2.76,13.6,2.55,13.8c-0.21,0.2-0.37,0.45-0.49,0.72s-0.18,0.57-0.18,0.88v5.06
		v5.06v5.06v8.34l0,0c0.02,0.17-0.01,0.7,0.38,1.23c0.5,0.69,1.54,0.81,1.78,0.81c0.28,0-0.31,0,0,0h8.14h8.14h14.72"/>
</g>
</svg>
