<?xml version="1.0" encoding="utf-8"?>
<!-- Generator: Adobe Illustrator 22.0.1, SVG Export Plug-In . SVG Version: 6.00 Build 0)  -->
<svg version="1.1" id="Layer_1" xmlns="http://www.w3.org/2000/svg" xmlns:xlink="http://www.w3.org/1999/xlink" x="0px" y="0px"
	 viewBox="0 0 50 50" style="enable-background:new 0 0 50 50;" xml:space="preserve">
<style type="text/css">
	.st0{fill:#70C6DF;}
	.st1{fill:#7DDDFA;}
	.st2{fill:#444444;}
</style>
<g>
	<g>
		<path class="st0" d="M47.9,17.5c0-2.4-1.1-3.6-3.2-3.8L2.1,29.1c0,2.7,0,5.4,0,8.1c0,2.6,1.3,3.9,3.9,3.9c1.4,0,2.7,0,4.1,0
			l37.9-13.8C47.9,24,47.9,20.7,47.9,17.5z"/>
	</g>
	<g>
		<path class="st1" d="M44.1,13.6c-2.7,0-5.3-0.1-8,0c-0.9,0-1.3-0.3-1.4-1.2c-0.4-2.3-1.9-3.5-4.2-3.5c-3.5,0-7,0-10.5,0
			c-2.8,0-4,0.9-4.6,3.7c-0.2,0.7-0.4,1-1.2,1c-2.8-0.1-5.5,0-8.3,0c-2.5,0-3.7,1.3-3.7,3.8c0,3.9,0,7.9,0,11.8l42.6-15.5
			C44.5,13.6,44.3,13.6,44.1,13.6z"/>
	</g>
	<g>
		<path class="st2" d="M47.9,36.1C47.9,36.1,47.9,36.1,47.9,36.1c-0.7,0-1.3,0.6-1.3,1.2c0,1.8-0.8,2.5-2.5,2.5l-7.9,0l-30.4,0
			c-1.9,0-2.6-0.7-2.6-2.6c0-6.6,0-13.2,0-19.8c0-1.8,0.7-2.5,2.5-2.5l0.5,0c2.5,0,5.2,0,7.7,0c1.3,0,2.1-0.6,2.4-1.9
			c0.5-2.2,1.2-2.7,3.4-2.7l10.5,0c1.8,0,2.7,0.8,3,2.5c0.3,1.5,1.1,2.2,2.7,2.2c2.1-0.1,4.2,0,6.2,0l1.7,0c1.9,0,2.6,0.7,2.6,2.6
			l0,11.2c0,0.7,0.6,1.2,1.2,1.2s1.2-0.6,1.2-1.2l0-11.2c0-3.3-1.8-5.1-5.1-5.1l-1.7,0c-2.1,0-4.2,0-6.3,0c-0.1,0-0.1,0-0.1,0
			c0,0,0-0.1,0-0.1c-0.5-2.9-2.5-4.5-5.5-4.5l-10.5,0c-3.4,0-5.1,1.4-5.8,4.7c-2.6,0-5.2,0-7.7,0l-0.5,0c-3.2,0-5,1.9-5,5
			c0,6.6,0,13.2,0,19.8c0,3.3,1.8,5.1,5.1,5.1l30.4,0l7.9,0c3.1,0,5-1.9,5-5C49.2,36.6,48.6,36.1,47.9,36.1z"/>
		<path class="st2" d="M25.5,16.8c-5.4-0.2-10.9,4.2-11,10.7c-0.1,5.8,4.9,10.7,10.6,10.7c5.8,0,10.7-4.8,10.8-10.6
			C36,21.8,31.2,17,25.5,16.8z M25.1,34.7c-4,0-7.2-3.2-7.1-7.3c0-3.9,3.2-7.1,7.2-7.1c4,0,7.2,3.2,7.2,7.3
			C32.4,31.5,29.2,34.7,25.1,34.7z"/>
	</g>
</g>
</svg>
