<?xml version="1.0" encoding="utf-8"?>
<!-- Generator: Adobe Illustrator 24.0.1, SVG Export Plug-In . SVG Version: 6.00 Build 0)  -->
<svg version="1.1" id="Layer_1" xmlns="http://www.w3.org/2000/svg" xmlns:xlink="http://www.w3.org/1999/xlink" x="0px" y="0px"
	 viewBox="0 0 50 50" style="enable-background:new 0 0 50 50;" xml:space="preserve">
<style type="text/css">
	.st0{fill:#00C8E2;}
	.st1{fill:#00DFFC;}
	.st2{fill:#444444;}
</style>
<g>
	<g>
		<path class="st0" d="M45.4,13.5c0-0.2-0.1-0.4-0.3-0.5l-5.8-3.4L4.6,22.3v14.1c0,0.2,0.1,0.4,0.3,0.5l6.1,3.5
			c0.1,0.1,0.2,0.1,0.3,0.2l0.4,0.2l33.7-12.3V13.5z"/>
	</g>
	<g>
		<path class="st1" d="M25.3,1.6c-0.2-0.1-0.4-0.1-0.5,0l-6.1,3.5c-0.1,0-0.2,0.1-0.3,0.2L4.9,13.1c-0.2,0.1-0.3,0.3-0.3,0.5v8.8
			L39.3,9.7L25.3,1.6z"/>
	</g>
	<path class="st2" d="M45.8,12L25.9,0.5c-0.5-0.3-1.2-0.3-1.8,0L4.2,12c-0.5,0.3-0.9,0.9-0.9,1.5v22.9c0,0.6,0.3,1.2,0.9,1.5
		l19.9,11.5c0.3,0.2,0.6,0.2,0.9,0.2s0.6-0.1,0.9-0.2L45.8,38c0.5-0.3,0.9-0.9,0.9-1.5V13.5C46.6,12.9,46.3,12.3,45.8,12z M16.8,20
		c-0.1,0.1-0.1,0.1-0.2,0.2c-0.1,0.1-0.1,0.1-0.1,0.2c0,0.1-0.1,0.1-0.1,0.2c0,0,0,0.1,0,0.1c0,0.1,0,0.1,0,0.2c0,0,0,0.1,0,0.1
		v19.9l-3.7-2.1V17.9l6.2-3.5l3.7,2.1l-5.6,3.4C16.8,19.9,16.8,19.9,16.8,20z M19.3,7.4l18.1,10.5V25l-3.7,2.1v-6.1c0,0,0,0,0-0.1
		c0.1-0.5-0.2-1-0.6-1.3L15.6,9.5L19.3,7.4z M31.2,21.4v7.1L25,32.1l-6.2-3.6v-6.9l6.2-3.8L31.2,21.4z M18.8,31.5l5.5,3.2
		c0.1,0.1,0.2,0.1,0.3,0.1c0.1,0,0.2,0,0.3,0c0,0,0,0,0,0s0,0,0,0c0.1,0,0.2,0,0.3,0c0.1,0,0.2-0.1,0.3-0.1l17.5-10.1v4.2L25,39.3
		l-6.2-3.6V31.5z M25,4.1l18.1,10.4v7.1l-3.2,1.8v-6.4c0-0.1,0-0.1,0-0.2c0-0.1,0-0.2-0.1-0.2c0-0.1-0.1-0.1-0.1-0.2
		c0-0.1-0.1-0.1-0.1-0.2c-0.1-0.1-0.1-0.1-0.2-0.2c0,0-0.1-0.1-0.1-0.1L21.8,5.9L25,4.1z M6.9,14.6l6.2-3.6l3.2,1.8L10.7,16
		c-0.1,0-0.1,0.1-0.1,0.1c-0.1,0-0.1,0.1-0.2,0.2c-0.1,0.1-0.1,0.1-0.1,0.2c0,0.1-0.1,0.1-0.1,0.2c0,0,0,0,0,0.1c0,0.1,0,0.1,0,0.2
		c0,0.1,0,0.1,0,0.2v20.2l-3.2-1.8V14.6z M25,45.9l-6.2-3.6v-3.7l5.5,3.2c0,0,0,0,0,0c0,0,0.1,0,0.1,0.1C24.7,42,24.8,42,25,42
		c0,0,0,0,0,0s0,0,0,0c0.2,0,0.4-0.1,0.6-0.2l17.5-10.1v3.6L25,45.9z"/>
</g>
</svg>
