<?xml version="1.0" encoding="utf-8"?>
<!-- Generator: Adobe Illustrator 26.5.0, SVG Export Plug-In . SVG Version: 6.00 Build 0)  -->
<svg version="1.1" id="Camada_3" xmlns="http://www.w3.org/2000/svg" xmlns:xlink="http://www.w3.org/1999/xlink" x="0px" y="0px"
	 viewBox="0 0 50 50" style="enable-background:new 0 0 50 50;" xml:space="preserve">
<style type="text/css">
	.st0{fill:#E589EF;}
	.st1{fill:#F799FF;}
	.st2{fill:none;stroke:#444444;stroke-width:2.5;stroke-linecap:round;stroke-linejoin:round;stroke-miterlimit:10;}
	.st3{fill:none;stroke:#444444;stroke-linecap:round;stroke-linejoin:round;stroke-miterlimit:10;}
</style>
<g>
	<polygon class="st0" points="38.15,17.88 39.45,22.78 44.15,22.67 48.02,33.49 20.06,43.67 16.84,36.54 9.47,34.67 5.14,29.87 
		1.98,25.4 32.08,14.49 30.96,19.95 31.75,22.89 	"/>
	<polygon class="st1" points="24.86,9.24 25.8,10.01 30.37,10.48 32.62,12.77 32.35,16.24 2.32,26.96 5.24,10.48 16.47,5.22 
		20.56,5.43 	"/>
	<g>
		<path class="st2" d="M3.23,8.56c0,0,11.73,7.15,24.58-0.93c0.51-0.32,1.77-1.08,2.03-2.38c0.25-1.24-0.47-2.57-1.47-3.22
			c-2.02-1.29-5.65-0.09-6.61,2.02c-1.08,2.39,1.37,5.66,4.38,6.48c3.4,0.93,6.32-1.61,6.48-1.75"/>
		<path class="st2" d="M30.37,14.46c3.47-2.55,4.59-1.82,5.85-0.35c1.28,1.5,0.03,4.47-0.13,4.84c-0.98,2.33-3.2,4.22-4.34,3.94
			c-1.06-0.26-1.42-1.51-0.45-3.88c1.28-3.15,5.18-5.28,8.72-4.88c0.99,0.11,3.3,0.38,4.41,2.32c0.83,1.44,0.8,3.46-0.29,4.84
			c-1.61,2.04-5.36,2.85-5.56,1.08c-0.1-0.91,1.07-2.67,2.74-3.53c2.01-1.04,5.18-1.12,6.19,0.52c0.93,1.52,0,4.54-2.96,6.35"/>
		<path class="st3" d="M16.6,14.9c0,0-0.58,5.02-2.28,5.32c0,0,0.67,1.25,2.09,1.7"/>
		<path class="st3" d="M6.12,23.33c0,0,4.77-5.54,8.81,3.35"/>
		<path class="st3" d="M39.34,32.1l-14.48,0.84c0,0,0.39,10.06,7.8,10.06C38.21,43,39.94,38.49,39.34,32.1z"/>
		<polyline class="st3" points="32.08,26.82 29.57,27.6 32.35,29.87 		"/>
		<path class="st3" d="M24.06,27.85c0,0,0.63-1.9,2.32-0.82"/>
		<path class="st3" d="M36.18,27.25c0,0,1.59-1.17,2.2,0.71"/>
		<ellipse class="st3" cx="12.14" cy="16.44" rx="0.26" ry="0.77"/>
		<ellipse class="st3" cx="20.82" cy="17.17" rx="0.27" ry="0.72"/>
		<path class="st2" d="M31.83,17.13c-1.82,0.07-3.96,0.47-5.74,1.21c-7.99,3.35-11.75,12.54-8.4,20.53s12.54,11.75,20.53,8.4"/>
		<path class="st2" d="M40.13,19.3c-1.28-0.87-1.83-1.01-3.3-1.47"/>
		<path class="st2" d="M45.96,40.25c1.03-1.92,1.67-4.04,1.84-6.23c0.19-2.41-0.18-4.9-1.17-7.29c-0.78-1.86-1.74-3.35-3.06-4.71"/>
		<path class="st2" d="M21.51,5.61c-1.13-0.26-2.3-0.39-3.5-0.39c-8.66,0-15.68,7.02-15.68,15.68c0,8.27,6.4,15.04,14.51,15.64"/>
		<path class="st2" d="M32.77,16.09c-0.27-0.52-1.51-3.7-1.84-4.18c-0.35-0.5-0.72-0.98-1.13-1.44"/>
	</g>
</g>
</svg>
