<?xml version="1.0" encoding="utf-8"?>
<!-- Generator: Adobe Illustrator 28.0.0, SVG Export Plug-In . SVG Version: 6.00 Build 0)  -->
<svg version="1.1" id="Layer_1" xmlns="http://www.w3.org/2000/svg" xmlns:xlink="http://www.w3.org/1999/xlink" x="0px" y="0px"
	 viewBox="0 0 50 50" style="enable-background:new 0 0 50 50;" xml:space="preserve">
<style type="text/css">
	.st0{fill:#B68AF3;}
	.st1{fill:#E5E5E5;}
	.st2{fill:#E5E5E5;stroke:#E5E5E5;stroke-width:2;stroke-miterlimit:10;}
</style>
<g>
	<path class="st0" d="M22.8,27.2c1.5,1.5,3.4,2.3,5.5,2.3c2.1,0,4.1-0.8,5.5-2.3c3-3,3-8,0-11.1c-1.5-1.5-3.4-2.3-5.5-2.3
		c-1.9,0-3.7,0.7-5.1,1.9l1.3,1.3c1.1-0.9,2.4-1.4,3.8-1.4c1.6,0,3.1,0.6,4.2,1.7c2.3,2.3,2.3,6.1,0,8.4c-1.1,1.1-2.6,1.7-4.2,1.7
		c-1.6,0-3.1-0.6-4.2-1.7c-2.2-2.2-2.3-5.7-0.3-8l-1.3-1.3c-1.2,1.4-1.9,3.2-1.9,5.1C20.5,23.8,21.3,25.7,22.8,27.2z"/>
	<path class="st0" d="M33.6,45.3c0-0.3,0.3-0.5,0.5-0.5h4.6c1.5,0,2.6-1.6,2.7-3l-0.4-1.4c0-0.1,0-0.3,0.1-0.4
		c0.1-0.1,0.2-0.2,0.4-0.3c0.2,0,0.3-0.2,0.3-0.4c0-0.2-0.1-0.3-0.3-0.4c-0.3,0-0.5-0.3-0.5-0.5v-0.3c0-0.3,0.2-0.5,0.5-0.5h0.3
		c0.2,0,0.4-0.2,0.4-0.4c0-0.2-0.2-0.4-0.4-0.4h-0.3c-0.3,0-0.5-0.2-0.5-0.5V34c0-0.3,0.2-0.5,0.5-0.5h3.4c0,0,0,0,0,0l-0.7-9.6
		c0,0,0,0,0,0c0-8.2-6.1-14.6-13.9-14.6c-3.8,0-7.2,1.5-9.8,3.8l2,2c1.6-1.4,3.7-2.2,5.9-2.2c2.7,0,5.3,1.2,7,3.4
		c2.6,3.2,2.6,7.9,0,11.1c-1.7,2.2-4.3,3.4-7,3.4c-2.4,0-4.6-0.9-6.3-2.6c-1.7-1.7-2.6-3.9-2.6-6.3c0-2.2,0.8-4.3,2.2-5.9l-2-2
		c-2.5,2.6-4,6.1-4,10v0.6c0,2.9,0.8,5.7,2.2,8.1c0,0.1,0.1,0.2,0.1,0.3l0,14.8h15.6L33.6,45.3z M39.5,27.5c0.4,0,0.7,0.3,0.7,0.7
		S39.9,29,39.5,29c-0.4,0-0.7-0.3-0.7-0.7S39.1,27.5,39.5,27.5z"/>
	<path class="st0" d="M42.9,2.7H9.2c-3.1,0-5.6,2.5-5.6,5.6v31.3V42c0,3.1,2.5,5.6,5.6,5.6h0h7.7l0-14.7c-1.5-2.6-2.3-5.5-2.3-8.5
		v-0.6c0-4.2,1.6-7.9,4.3-10.8L18,12.2l-2.4,0v-1.1l1.4,0l-0.4-0.4h-2.4V9.6H16c0.1,0,0.3-0.1,0.3-0.3l0-1.9h1.1l0,2.4l0.4,0.4
		l0-1.4h1.1l0,2.4l0.8,0.8c2.8-2.6,6.5-4.2,10.6-4.2c8.4,0,15,6.9,15,15.7l0.6,9.5c0,0,0,0,0,0c0,0.3,0,0.5,0,0.8
		c0,0.3-0.3,0.5-0.5,0.5H42v1.2c0.7,0.1,1.2,0.7,1.2,1.4c0,0.5-0.3,1-0.8,1.3c0.2,0.2,0.3,0.5,0.3,0.8c0,0.5-0.2,0.9-0.6,1.2l0.3,1
		c0,0,0,0.1,0,0.1c0,2-1.6,4.2-3.8,4.2h-4.1l-0.1,1.7h8.4h0c1,0,1.9-0.2,2.7-0.7c1.7-0.9,2.9-2.8,2.9-4.9V23.8V8.3
		C48.5,5.2,46,2.7,42.9,2.7z"/>
	<path class="st0" d="M24.5,18.7c-1.5,1.9-1.4,4.7,0.3,6.4c0.9,0.9,2.1,1.4,3.4,1.4c1.3,0,2.5-0.5,3.4-1.4c1.9-1.9,1.9-5,0-6.9
		c-0.9-0.9-2.1-1.4-3.4-1.4c-1.1,0-2.2,0.4-3,1.1l1.4,1.4c0.5-0.3,1-0.5,1.6-0.5c0.8,0,1.5,0.3,2,0.8c1.1,1.1,1.1,2.9,0,4
		c-0.5,0.5-1.2,0.8-2,0.8s-1.5-0.3-2-0.8c-0.5-0.5-0.8-1.2-0.8-2c0-0.6,0.2-1.1,0.5-1.6L24.5,18.7z"/>
	<path class="st0" d="M28.3,22.2c-0.1,0-0.3-0.1-0.4-0.2l-1.2-1.2c-0.1,0.2-0.2,0.5-0.2,0.8c0,0.5,0.2,0.9,0.5,1.2
		c0.3,0.3,0.8,0.5,1.2,0.5c0.5,0,0.9-0.2,1.2-0.5c0.7-0.7,0.7-1.8,0-2.5c-0.3-0.3-0.8-0.5-1.2-0.5c-0.3,0-0.5,0.1-0.8,0.2l1.2,1.2
		c0.2,0.2,0.2,0.6,0,0.8C28.6,22.2,28.4,22.2,28.3,22.2z"/>
	<path class="st1" d="M38.7,45.9c2.2,0,3.8-2.2,3.8-4.2c0,0,0-0.1,0-0.1l-0.3-1c0.4-0.3,0.6-0.7,0.6-1.2c0-0.3-0.1-0.6-0.3-0.8
		c0.4-0.2,0.8-0.7,0.8-1.3c0-0.7-0.5-1.3-1.2-1.4v-1.2h3.4c0.3,0,0.5-0.2,0.5-0.5c0-0.3,0-0.5,0-0.8c0,0,0,0,0,0l-0.6-9.5
		c0-8.8-6.6-15.7-15-15.7c-4.1,0-7.8,1.6-10.6,4.2l-0.8-0.8l0-2.4h-1.1l0,1.4l-0.4-0.4l0-2.4h-1.1l0,1.9c0,0.1-0.1,0.3-0.3,0.3h-1.9
		v1.1h2.4l0.4,0.4l-1.4,0v1.1l2.4,0l0.8,0.8c-2.7,2.8-4.3,6.6-4.3,10.8v0.6c0,3,0.8,6,2.3,8.5l0,14.7h1.1l0-14.8
		c0-0.1-0.1-0.2-0.1-0.3c-1.4-2.4-2.2-5.2-2.2-8.1v-0.6c0-3.9,1.5-7.4,4-10l2,2c-1.4,1.6-2.2,3.7-2.2,5.9c0,2.4,0.9,4.6,2.6,6.3
		c1.7,1.7,3.9,2.6,6.3,2.6c2.7,0,5.3-1.2,7-3.4c2.6-3.2,2.6-7.9,0-11.1c-1.7-2.2-4.3-3.4-7-3.4c-2.2,0-4.3,0.8-5.9,2.2l-2-2
		c2.6-2.4,6-3.8,9.8-3.8c7.8,0,13.9,6.4,13.9,14.6c0,0,0,0,0,0l0.7,9.6c0,0,0,0,0,0h-3.4c-0.3,0-0.5,0.2-0.5,0.5v2.3
		c0,0.3,0.2,0.5,0.5,0.5h0.3c0.2,0,0.4,0.2,0.4,0.4c0,0.2-0.2,0.4-0.4,0.4h-0.3c-0.3,0-0.5,0.2-0.5,0.5v0.3c0,0.3,0.2,0.5,0.5,0.5
		c0.2,0,0.3,0.2,0.3,0.4c0,0.2-0.1,0.3-0.3,0.4c-0.2,0-0.3,0.1-0.4,0.3c-0.1,0.1-0.1,0.3-0.1,0.4l0.4,1.4c0,1.4-1.2,3-2.7,3h-4.6
		c-0.3,0-0.5,0.2-0.5,0.5l-0.1,2.3h1l0.1-1.7H38.7z M23.7,17.9c-1.9,2.3-1.8,5.8,0.3,8c1.1,1.1,2.6,1.7,4.2,1.7
		c1.6,0,3.1-0.6,4.2-1.7c2.3-2.3,2.3-6.1,0-8.4c-1.1-1.1-2.6-1.7-4.2-1.7c-1.4,0-2.7,0.5-3.8,1.4l-1.3-1.3c1.4-1.2,3.2-1.9,5.1-1.9
		c2.1,0,4.1,0.8,5.5,2.3c3,3,3,8,0,11.1c-1.5,1.5-3.4,2.3-5.5,2.3c-2.1,0-4.1-0.8-5.5-2.3c-1.5-1.5-2.3-3.4-2.3-5.5
		c0-1.9,0.7-3.7,1.9-5.1L23.7,17.9z M26.3,23.7c0.5,0.5,1.2,0.8,2,0.8s1.5-0.3,2-0.8c1.1-1.1,1.1-2.9,0-4c-0.5-0.5-1.2-0.8-2-0.8
		c-0.6,0-1.1,0.2-1.6,0.5l-1.4-1.4c0.9-0.7,1.9-1.1,3-1.1c1.3,0,2.5,0.5,3.4,1.4c1.9,1.9,1.9,5,0,6.9c-0.9,0.9-2.1,1.4-3.4,1.4
		c-1.3,0-2.5-0.5-3.4-1.4c-1.8-1.8-1.9-4.5-0.3-6.4l1.4,1.4c-0.3,0.5-0.5,1-0.5,1.6C25.5,22.4,25.8,23.1,26.3,23.7z M28.7,21.3
		l-1.2-1.2c0.2-0.1,0.5-0.2,0.8-0.2c0.5,0,0.9,0.2,1.2,0.5c0.7,0.7,0.7,1.8,0,2.5c-0.3,0.3-0.8,0.5-1.2,0.5c-0.5,0-0.9-0.2-1.2-0.5
		c-0.3-0.3-0.5-0.8-0.5-1.2c0-0.3,0.1-0.5,0.2-0.8l1.2,1.2c0.1,0.1,0.2,0.2,0.4,0.2c0.1,0,0.3-0.1,0.4-0.2
		C28.9,21.8,28.9,21.5,28.7,21.3z"/>
	<path class="st2" d="M39.5,29c0.4,0,0.7-0.3,0.7-0.7s-0.3-0.7-0.7-0.7c-0.4,0-0.7,0.3-0.7,0.7S39.1,29,39.5,29z"/>
</g>
</svg>
