<?xml version="1.0" encoding="utf-8"?>
<!-- Generator: Adobe Illustrator 24.3.0, SVG Export Plug-In . SVG Version: 6.00 Build 0)  -->
<svg version="1.1" id="Layer_1" xmlns="http://www.w3.org/2000/svg" xmlns:xlink="http://www.w3.org/1999/xlink" x="0px" y="0px"
	 viewBox="0 0 50 50" style="enable-background:new 0 0 50 50;" xml:space="preserve">
<style type="text/css">
	.st0{fill:#A475EF;}
	.st1{fill:#BF94F7;}
	.st2{fill:none;stroke:#444444;stroke-width:2.5;stroke-linecap:round;stroke-linejoin:round;stroke-miterlimit:10;}
	.st3{fill:#363F40;}
</style>
<g>
	<g>
		<g>
			<polygon class="st0" points="47.7,11.6 48.5,16.8 2.4,33.6 1.9,22.7 1.8,16.5 42.1,1.9 47.3,4.2 			"/>
			<polygon class="st1" points="46.1,2 48.4,5.2 1.5,21.9 2.6,4.8 5.6,1.9 34.7,1.7 			"/>
			<g>
				<path class="st2" d="M18.1,48.3H5.5c-1.9,0-3.4-1.6-3.4-3.5V5.8c0-2,1.5-3.5,3.4-3.5h39c1.9,0,3.4,1.6,3.4,3.5v24.6"/>
				<path class="st2" d="M2.1,15.8"/>
				<path class="st2" d="M47.9,15.8"/>
			</g>
		</g>
	</g>
	<g>
		<g>
			<g>
				<path class="st3" d="M22.4,24.9h-11c-0.2,0-0.4-0.2-0.4-0.4V12.1c0-0.2,0.2-0.4,0.4-0.4h12.3c0.2,0,0.4,0.2,0.4,0.4v11h-0.9
					V12.6H11.8V24h10.5V24.9z"/>
			</g>
			<g>
				<path class="st3" d="M38.6,24.9h-11V24h10.5V12.6H26.8v10.5h-0.9v-11c0-0.2,0.2-0.4,0.4-0.4h12.3c0.2,0,0.4,0.2,0.4,0.4v12.3
					C39.1,24.7,38.9,24.9,38.6,24.9z"/>
			</g>
			<g>
				<path class="st3" d="M23.7,39.8H11.4c-0.2,0-0.4-0.2-0.4-0.4V27.1c0-0.2,0.2-0.4,0.4-0.4h11v0.9H11.8v11.4h11.4V28.4h0.9v11
					C24.1,39.6,23.9,39.8,23.7,39.8z"/>
			</g>
			<g>
				<path class="st3" d="M38.6,39.8H26.3c-0.2,0-0.4-0.2-0.4-0.4v-11h0.9v10.5h11.4V27.5H27.6v-0.9h11c0.2,0,0.4,0.2,0.4,0.4v12.3
					C39.1,39.6,38.9,39.8,38.6,39.8z"/>
			</g>
			<g>
				<path class="st3" d="M21,17.8h-1.3V17h0.9v-1.8h-6.2V17h0.9v0.9H14c-0.2,0-0.4-0.2-0.4-0.4v-2.6c0-0.2,0.2-0.4,0.4-0.4h7
					c0.2,0,0.4,0.2,0.4,0.4v2.6C21.5,17.6,21.3,17.8,21,17.8z"/>
			</g>
			<g>
				<path class="st3" d="M18.8,21.8H18v-5.3c0-0.2,0.2-0.4,0.4-0.4h1.3V17h-0.9V21.8z"/>
			</g>
			<g>
				<path class="st3" d="M17.1,21.8h-0.9V17h-0.9v-0.9h1.3c0.2,0,0.4,0.2,0.4,0.4V21.8z"/>
			</g>
			<g>
				<rect x="15.8" y="21.4" class="st3" width="3.5" height="0.9"/>
			</g>
			<g>
				<path class="st3" d="M34.4,24.7l-5-5l-2.8,2.8L26,21.9l3.1-3.1c0.2-0.2,0.4-0.2,0.6,0l5.3,5.3L34.4,24.7z"/>
			</g>
			<g>
				<path class="st3" d="M31.9,21.7L31.3,21l4.4-4.4c0.2-0.2,0.4-0.2,0.6,0l2.6,2.6l-0.6,0.6L36,17.6L31.9,21.7z"/>
			</g>
			<g>
				<path class="st3" d="M31.6,17.8c-1,0-1.8-0.8-1.8-1.8s0.8-1.8,1.8-1.8c1,0,1.8,0.8,1.8,1.8S32.6,17.8,31.6,17.8z M31.6,15.2
					c-0.5,0-0.9,0.4-0.9,0.9c0,0.5,0.4,0.9,0.9,0.9c0.5,0,0.9-0.4,0.9-0.9C32.5,15.6,32.1,15.2,31.6,15.2z"/>
			</g>
			<g>
				<rect x="13.6" y="29.3" class="st3" width="7.9" height="0.9"/>
			</g>
			<g>
				<rect x="13.6" y="31" class="st3" width="7.9" height="0.9"/>
			</g>
			<g>
				<rect x="13.6" y="32.8" class="st3" width="7.9" height="0.9"/>
			</g>
			<g>
				<rect x="13.6" y="34.5" class="st3" width="7.9" height="0.9"/>
			</g>
			<g>
				<rect x="13.6" y="36.3" class="st3" width="4.4" height="0.9"/>
			</g>
			<g>
				
					<rect x="31.7" y="29.5" transform="matrix(0.7071 -0.7071 0.7071 0.7071 -10.6814 34.0569)" class="st3" width="8.1" height="0.9"/>
			</g>
			<g>
				<path class="st3" d="M29,37.2c-0.1,0-0.2,0-0.3-0.1c-0.1-0.1-0.2-0.3-0.1-0.5l1.8-4c0,0,0.1-0.1,0.1-0.1l5.7-5.7l0.6,0.6
					L31.1,33l-1.3,2.8l2.8-1.3l5.7-5.7l0.6,0.6l-5.7,5.7c0,0-0.1,0.1-0.1,0.1l-4,1.8C29.1,37.2,29,37.2,29,37.2z"/>
			</g>
			<g>
				
					<rect x="31.4" y="32.3" transform="matrix(0.7071 -0.7071 0.7071 0.7071 -14.6376 32.4182)" class="st3" width="0.9" height="3.1"/>
			</g>
			<g>
				<rect x="29" y="36.3" class="st3" width="7.5" height="0.9"/>
			</g>
			<g>
				<path class="st3" d="M26.3,27.5h-2.6c-0.2,0-0.4-0.2-0.4-0.4v-2.6c0-0.2,0.2-0.4,0.4-0.4h2.6c0.2,0,0.4,0.2,0.4,0.4v2.6
					C26.8,27.3,26.6,27.5,26.3,27.5z M24.1,26.6h1.8v-1.8h-1.8V26.6z"/>
			</g>
		</g>
	</g>
</g>
</svg>
