<?xml version="1.0" encoding="utf-8"?>
<!-- Generator: Adobe Illustrator 28.0.0, SVG Export Plug-In . SVG Version: 6.00 Build 0)  -->
<svg version="1.1" id="Layer_1" xmlns="http://www.w3.org/2000/svg" xmlns:xlink="http://www.w3.org/1999/xlink" x="0px" y="0px"
	 viewBox="0 0 50 50" style="enable-background:new 0 0 50 50;" xml:space="preserve">
<style type="text/css">
	.st0{fill:none;}
	.st1{fill:#B68AF3;}
	.st2{fill:#E5E5E5;}
</style>
<g>
	<polygon class="st0" points="48,20.4 47.7,20.2 47.7,20.7 	"/>
	<circle class="st1" cx="31.6" cy="21.2" r="1.4"/>
	<path class="st1" d="M12.6,42.9V20.4l0-0.2l3-2.6v-4.3c0-0.7,0.6-1.3,1.3-1.3h5.3l7.6-6.5c0.8-0.7,2-0.7,2.9,0l7.6,6.5h5.3
		c0.7,0,1.3,0.6,1.3,1.3v4.3l0.8,0.7V8.8c0-3.1-2.5-5.6-5.6-5.6H8.4c-3.1,0-5.6,2.5-5.6,5.6V40v2.5c0,3.1,2.5,5.6,5.6,5.6h0h33.7h0
		c1,0,1.9-0.2,2.7-0.7c0.9-0.5,1.6-1.2,2.1-2.1H15C13.7,45.3,12.6,44.2,12.6,42.9z"/>
	<path class="st1" d="M31.8,6.5c-0.3-0.2-0.7-0.2-1,0l-6.3,5.4h13.6L31.8,6.5z"/>
	<polygon class="st1" points="46.9,21.4 47.7,20.7 47.7,20.2 46.9,19.5 	"/>
	<polygon class="st1" points="46.9,23.3 39.6,29.5 36.2,32.5 47.7,42.3 47.7,24.2 47.7,22.6 46.9,23.3 	"/>
	<path class="st1" d="M27.5,31.5l2.2-1.9c0.9-0.8,2.2-0.8,3.2,0l2.2,1.9l10.4-8.9v-9.2H17.1v9.2l6.7,5.8L27.5,31.5z M25.9,18.8
		l0.6-1.2c0.3-0.5,0.9-0.6,1.3-0.4l0.8,0.4c0.4-0.3,0.8-0.6,1.3-0.8l0-0.9c0-0.5,0.4-1,1-1h1.3c0.5,0,1,0.4,1,1v0.9
		c0.5,0.2,0.9,0.4,1.3,0.8l0.8-0.4c0.5-0.3,1.1-0.1,1.3,0.4l0.6,1.2c0.1,0.2,0.2,0.5,0.1,0.7c-0.1,0.3-0.2,0.5-0.5,0.6l-0.8,0.4
		c0.1,0.2,0.1,0.5,0.1,0.8c0,0.3,0,0.6-0.1,0.9l0.7,0.4c0.2,0.1,0.4,0.3,0.5,0.6c0.1,0.3,0,0.5-0.1,0.7l-0.6,1.2
		c-0.3,0.5-0.9,0.6-1.3,0.4l-0.8-0.4c-0.4,0.3-0.8,0.6-1.3,0.8l0,0.9c0,0.5-0.4,1-1,1h-1.3c-0.5,0-1-0.4-1-1v-0.9
		c-0.5-0.2-0.9-0.4-1.3-0.8l-0.8,0.4c-0.5,0.3-1.1,0.1-1.3-0.4l-0.6-1.2c-0.1-0.2-0.2-0.5-0.1-0.7c0.1-0.3,0.2-0.5,0.5-0.6L27,22
		c-0.1-0.2-0.1-0.5-0.1-0.8c0-0.2,0-0.5,0.1-0.8l-0.7-0.4c-0.2-0.1-0.4-0.3-0.5-0.6C25.7,19.2,25.7,19,25.9,18.8z"/>
	<path class="st1" d="M25,31.3l-9.1-7.8l0,0l-1.8-1.6v21c0,0,0,0.1,0,0.1l12.3-10.5L25,31.3z"/>
	<path class="st1" d="M30.7,30.7L15.3,43.9h32L31.9,30.7C31.6,30.4,31,30.4,30.7,30.7z"/>
	<polygon class="st1" points="15.6,19.5 14.5,20.4 15.6,21.4 	"/>
	<path class="st1" d="M28,20.6c0,0.2-0.1,0.4-0.1,0.6c0,0.2,0,0.4,0.1,0.6c0.1,0.4-0.1,0.8-0.5,1l-0.8,0.4l0.7,1.1l0.7-0.4
		c0.1-0.1,0.3-0.1,0.5-0.1c0.2,0,0.4,0.1,0.6,0.2c0.4,0.3,0.7,0.5,1.1,0.7c0.4,0.2,0.6,0.5,0.6,0.9v0.9l1.3,0l0-0.9
		c0-0.4,0.2-0.8,0.6-0.9c0.4-0.2,0.8-0.4,1.1-0.6c0.3-0.3,0.8-0.3,1.1-0.1l0.8,0.4l0.6-1.2l-0.8-0.4c-0.4-0.2-0.6-0.6-0.5-1
		c0-0.3,0.1-0.5,0.1-0.7c0-0.2,0-0.4-0.1-0.6c-0.1-0.4,0.1-0.8,0.5-1l0.8-0.4L35.8,18L35,18.4c-0.3,0.2-0.8,0.2-1.1-0.1
		c-0.4-0.3-0.7-0.5-1.1-0.7c-0.4-0.2-0.6-0.5-0.6-0.9v-0.9l-1.3,0l0,0.9c0,0.4-0.2,0.8-0.6,0.9c-0.4,0.2-0.8,0.4-1.1,0.6
		c-0.3,0.3-0.8,0.3-1.1,0.1l-0.8-0.4l-0.6,1.2l0.7,0.4C27.9,19.8,28,20.2,28,20.6z M31.6,18.8c1.3,0,2.4,1.1,2.4,2.4
		s-1.1,2.4-2.4,2.4c-1.3,0-2.4-1.1-2.4-2.4S30.3,18.8,31.6,18.8z"/>
	<path class="st2" d="M31.6,23.6c1.3,0,2.4-1.1,2.4-2.4s-1.1-2.4-2.4-2.4c-1.3,0-2.4,1.1-2.4,2.4S30.3,23.6,31.6,23.6z M31.6,19.8
		c0.8,0,1.4,0.6,1.4,1.4s-0.6,1.4-1.4,1.4c-0.8,0-1.4-0.6-1.4-1.4S30.8,19.8,31.6,19.8z"/>
	<path class="st2" d="M26.3,20.1l0.7,0.4c-0.1,0.3-0.1,0.6-0.1,0.8c0,0.3,0,0.6,0.1,0.8l-0.8,0.4c-0.2,0.1-0.4,0.3-0.5,0.6
		c-0.1,0.3,0,0.5,0.1,0.7l0.6,1.2c0.3,0.5,0.9,0.6,1.3,0.4l0.8-0.4c0.4,0.3,0.9,0.6,1.3,0.8v0.9c0,0.5,0.4,1,1,1h1.3
		c0.5,0,1-0.4,1-1l0-0.9c0.5-0.2,1-0.5,1.3-0.8l0.8,0.4c0.5,0.3,1.1,0.1,1.3-0.4l0.6-1.2c0.1-0.2,0.2-0.5,0.1-0.7
		c-0.1-0.3-0.2-0.5-0.5-0.6L36.1,22c0.1-0.3,0.1-0.6,0.1-0.9c0-0.3,0-0.6-0.1-0.8l0.8-0.4c0.2-0.1,0.4-0.3,0.5-0.6
		c0.1-0.3,0-0.5-0.1-0.7l-0.6-1.2c-0.3-0.5-0.9-0.6-1.3-0.4l-0.8,0.4c-0.4-0.3-0.9-0.6-1.3-0.8v-0.9c0-0.5-0.4-1-1-1h-1.3
		c-0.5,0-1,0.4-1,1l0,0.9c-0.5,0.2-1,0.5-1.3,0.8l-0.8-0.4c-0.5-0.3-1.1-0.1-1.3,0.4l-0.6,1.2c-0.1,0.2-0.2,0.5-0.1,0.7
		C25.9,19.7,26,20,26.3,20.1z M27.4,18.1l0.8,0.4c0.4,0.2,0.8,0.1,1.1-0.1c0.3-0.2,0.6-0.4,1.1-0.6c0.4-0.1,0.6-0.5,0.6-0.9l0-0.9
		l1.3,0v0.9c0,0.4,0.2,0.7,0.6,0.9c0.4,0.2,0.7,0.4,1.1,0.7c0.3,0.2,0.7,0.3,1.1,0.1l0.7-0.4l0.7,1.1l-0.8,0.4
		c-0.4,0.2-0.6,0.6-0.5,1c0,0.2,0.1,0.4,0.1,0.6c0,0.2,0,0.4-0.1,0.7c-0.1,0.4,0.1,0.8,0.5,1l0.8,0.4l-0.6,1.2L35,24
		c-0.4-0.2-0.8-0.1-1.1,0.1c-0.3,0.2-0.6,0.4-1.1,0.6c-0.4,0.1-0.6,0.5-0.6,0.9l0,0.9l-1.3,0v-0.9c0-0.4-0.2-0.7-0.6-0.9
		c-0.4-0.2-0.7-0.4-1.1-0.7c-0.2-0.1-0.4-0.2-0.6-0.2c-0.2,0-0.3,0-0.5,0.1l-0.7,0.4l-0.7-1.1l0.8-0.4c0.4-0.2,0.6-0.6,0.5-1
		c0-0.2-0.1-0.4-0.1-0.6c0-0.2,0-0.4,0.1-0.6c0.1-0.4-0.1-0.8-0.5-1l-0.7-0.4L27.4,18.1z"/>
	<path class="st2" d="M47.7,42.3l-11.5-9.9l3.4-2.9l7.3-6.3v0l0.8-0.7v-1.9l-0.8,0.7v-1.9l0.8,0.7v-1.9l-0.8-0.7v-4.3
		c0-0.7-0.6-1.3-1.3-1.3h-5.3l-7.6-6.5c-0.8-0.7-2-0.7-2.9,0l-7.6,6.5H17c-0.7,0-1.3,0.6-1.3,1.3v4.3l-3,2.6l0,0.2v22.4
		c0,1.3,1.1,2.4,2.4,2.4H47c0.5-0.8,0.8-1.8,0.8-2.8V42.3z M30.8,6.5c0.3-0.2,0.7-0.2,1,0l6.3,5.4H24.5L30.8,6.5z M17.1,13.4h28.4
		v9.2l-10.4,8.9l-2.2-1.9c-0.9-0.8-2.2-0.8-3.2,0l-2.2,1.9l-3.7-3.1l-6.7-5.8V13.4z M15.6,19.5v1.9l-1.1-0.9L15.6,19.5z M14.1,43
		c0,0,0-0.1,0-0.1v-21l1.8,1.6l0,0l9.1,7.8l1.3,1.1L14.1,43z M15.3,43.9l15.4-13.2c0.4-0.3,0.9-0.3,1.3,0l15.4,13.2H15.3z"/>
</g>
</svg>
