<?xml version="1.0" encoding="utf-8"?>
<!-- Generator: Adobe Illustrator 21.1.0, SVG Export Plug-In . SVG Version: 6.00 Build 0)  -->
<svg version="1.0" id="Layer_1" xmlns="http://www.w3.org/2000/svg" xmlns:xlink="http://www.w3.org/1999/xlink" x="0px" y="0px"
	 viewBox="0 0 50 50" enable-background="new 0 0 50 50" xml:space="preserve">
<g>
	<g>
		<path fill="#AFE55D" d="M42.349,23.069l-2.121-7.917c-2.35-8.77-11.365-13.975-20.135-11.625l-1.049,0.281
			c-8.77,2.35-13.975,11.365-11.625,20.135l2.922,10.906c0.797,2.976,2.375,5.527,4.437,7.526L42.349,23.069z"/>
	</g>
	<g>
		<path fill="#C3FF68" d="M31.568,4.652c-3.443-1.686-7.48-2.196-11.474-1.126l-1.049,0.281C10.974,5.969,5.94,13.777,7.017,21.843
			L31.568,4.652z"/>
	</g>
	<g>
		<path fill="#444444" d="M27.345,42.736c-0.303,0-0.558-0.236-0.577-0.543c-0.02-0.319,0.223-0.593,0.541-0.613
			c0.779-0.047,1.558-0.175,2.315-0.379c1.303-0.349,2.521-0.911,3.621-1.672c0.262-0.182,0.622-0.116,0.805,0.147
			c0.182,0.263,0.116,0.623-0.146,0.805c-1.209,0.836-2.548,1.454-3.98,1.837c-0.831,0.223-1.687,0.363-2.543,0.416
			C27.368,42.736,27.356,42.736,27.345,42.736z"/>
	</g>
	<g>
		<path fill="#444444" d="M16.854,37.923c-0.242,0-0.468-0.153-0.549-0.395c-0.101-0.303,0.063-0.63,0.365-0.731
			c3.52-1.176,6.408-3.646,8.133-6.954c0.148-0.283,0.496-0.392,0.78-0.245c0.283,0.148,0.393,0.497,0.245,0.78
			c-1.864,3.576-4.986,6.245-8.792,7.516C16.976,37.913,16.914,37.923,16.854,37.923z"/>
	</g>
	<g>
		<path fill="#444444" d="M21.154,41.474c-0.21,0-0.413-0.114-0.515-0.315c-0.146-0.284-0.034-0.633,0.251-0.778
			c3.146-1.613,5.786-4.055,7.637-7.064c0.229-0.372,0.682-0.515,1.076-0.345c0.973,0.42,4.423,1.793,7.971,1.832
			c0.319,0.004,0.575,0.265,0.572,0.584c-0.003,0.318-0.262,0.572-0.578,0.572c-0.002,0-0.004,0-0.006,0
			c-3.515-0.039-6.915-1.301-8.182-1.828c-1.954,3.092-4.703,5.605-7.963,7.276C21.333,41.454,21.243,41.474,21.154,41.474z"/>
	</g>
	<g>
		<path fill="#444444" d="M14.698,33.397c-0.255,0-0.489-0.17-0.558-0.428c-0.082-0.309,0.101-0.626,0.409-0.709
			c4.973-1.332,7.935-6.463,6.602-11.435c-0.415-1.551,0.508-3.15,2.059-3.566c1.548-0.416,3.151,0.508,3.567,2.059l1.008,3.762
			c1.285,4.795,6.094,7.743,10.944,6.72c0.309-0.07,0.619,0.133,0.686,0.446c0.066,0.313-0.134,0.62-0.446,0.685
			c-5.457,1.153-10.857-2.164-12.301-7.552l-1.008-3.762c-0.25-0.935-1.214-1.493-2.15-1.241c-0.934,0.251-1.491,1.215-1.241,2.149
			c1.497,5.589-1.831,11.355-7.42,12.852C14.798,33.391,14.748,33.397,14.698,33.397z"/>
	</g>
	<g>
		<path fill="#444444" d="M13.415,28.608c-0.255,0-0.489-0.17-0.558-0.428c-0.082-0.309,0.101-0.626,0.409-0.709
			c1.13-0.303,2.074-1.027,2.659-2.04c0.585-1.014,0.74-2.194,0.437-3.323c-0.543-2.027-0.263-4.147,0.789-5.969
			s2.748-3.125,4.776-3.669c2.026-0.543,4.147-0.263,5.969,0.789s3.125,2.748,3.668,4.776l1.008,3.761
			c0.625,2.333,3.034,3.725,5.363,3.097c0.31-0.083,0.626,0.1,0.709,0.409s-0.101,0.626-0.409,0.709
			c-1.429,0.383-2.92,0.186-4.201-0.553c-1.281-0.739-2.196-1.933-2.579-3.361l-1.008-3.761c-0.463-1.729-1.574-3.176-3.129-4.073
			c-1.554-0.897-3.363-1.136-5.092-0.674c-1.729,0.463-3.175,1.574-4.073,3.129c-0.898,1.554-1.137,3.363-0.674,5.091
			c0.383,1.429,0.186,2.92-0.553,4.201c-0.739,1.28-1.933,2.197-3.362,2.579C13.514,28.602,13.464,28.608,13.415,28.608z"/>
	</g>
	<g>
		<path fill="#444444" d="M12.132,23.82c-0.255,0-0.489-0.17-0.558-0.428c-1.83-6.832,2.238-13.879,9.07-15.71
			c6.834-1.831,13.879,2.238,15.71,9.07l1.008,3.761c0.082,0.309-0.101,0.626-0.409,0.709c-0.31,0.084-0.626-0.1-0.709-0.409
			l-1.008-3.761c-1.665-6.216-8.075-9.918-14.293-8.252c-6.216,1.665-9.918,8.077-8.252,14.293c0.082,0.309-0.101,0.626-0.409,0.709
			C12.231,23.813,12.181,23.82,12.132,23.82z"/>
	</g>
	<g>
		<path fill="#444444" d="M26.225,47.999c-7.684,0-14.735-5.135-16.816-12.902L6.487,24.192c-1.203-4.49-0.586-9.181,1.739-13.206
			c2.325-4.026,6.078-6.906,10.568-8.109l1.049-0.281c9.271-2.482,18.832,3.037,21.316,12.307l2.922,10.906
			c0.138,0.514-0.168,1.042-0.682,1.18c-0.512,0.139-1.043-0.167-1.181-0.682L39.296,15.4C37.088,7.158,28.584,2.25,20.342,4.457
			l-1.049,0.281c-3.993,1.07-7.331,3.63-9.398,7.211c-2.067,3.58-2.616,7.75-1.546,11.744l2.922,10.906
			C13.48,42.841,21.98,47.75,30.226,45.543l1.049-0.282c0.515-0.138,1.043,0.167,1.181,0.681s-0.167,1.043-0.681,1.181l-1.049,0.282
			C29.223,47.807,27.712,47.999,26.225,47.999z"/>
	</g>
</g>
</svg>
