<svg xmlns="http://www.w3.org/2000/svg" version="1" viewBox="0 0 50 50"><path fill="#00C8E2" d="M48.094 26.187c.02-.392.03-.785.03-1.182C48.124 12.234 37.771 1.881 25 1.881S1.876 12.234 1.876 25.006a23.034 23.034 0 0 0 6.198 15.748l40.02-14.567z"/><path fill="#00DFFC" d="M38.602 6.298a23.017 23.017 0 0 0-13.593-4.422c-10.844 0-19.941 7.466-22.44 17.537L38.602 6.298z"/><path fill="#444" d="M25 49.35C11.573 49.35.65 38.426.65 25S11.573.65 25 .65 49.35 11.573 49.35 25c0 .417-.011.832-.032 1.244a1.209 1.209 0 0 1-1.287 1.161 1.225 1.225 0 0 1-1.161-1.287c.019-.37.028-.742.028-1.117 0-12.074-9.823-21.898-21.898-21.898S3.102 12.925 3.102 25 12.925 46.898 25 46.898c2.537 0 5.023-.43 7.388-1.278a1.227 1.227 0 0 1 .828 2.308A24.26 24.26 0 0 1 25 49.35z"/><path fill="#444" d="M17.059 33.161c-.081-.431.03-.86.302-1.188a1.4 1.4 0 0 1 1.082-.509l.592.012a8.852 8.852 0 0 1-2.566-4.274l.242.045a.524.524 0 0 0 .555-.761L16.2 24.543l-.842-1.531a.534.534 0 0 0-.806-.143l-2.006 1.764-.967.851a.52.52 0 0 0 .251.904l.806.143c.206 1.647.743 3.25 1.576 4.7a12.447 12.447 0 0 0 3.18 3.611l-.333-1.681z"/><path fill="#444" d="M28.088 35.955a1.41 1.41 0 0 1-.874-.863 1.406 1.406 0 0 1 .122-1.214l.292-.482a8.65 8.65 0 0 1-4.982.091l.161-.188a.526.526 0 0 0-.394-.859l-2.203-.045-1.755-.036a.522.522 0 0 0-.519.627l.519 2.605.251 1.272a.52.52 0 0 0 .913.233l.528-.626c1.531.654 3.178.994 4.853.994 1.614 0 3.198-.352 4.682-.964l-1.594-.545zm-6.471-21.064l-2.516-.859h-.009l-1.218-.412a.525.525 0 0 0-.663.671l.278.77a12.5 12.5 0 0 0-3.277 3.707 12.538 12.538 0 0 0-1.545 4.566l1.295-1.139a1.427 1.427 0 0 1 2.176.377l.271.494a8.852 8.852 0 0 1 2.414-4.352l.089.233a.517.517 0 0 0 .931.09l1.128-1.871h.009l.913-1.513a.512.512 0 0 0-.276-.762z"/><path fill="#444" d="M31.546 14.408l-.251-1.271c-.09-.43-.636-.573-.913-.233l-.528.627a12.342 12.342 0 0 0-4.853-.994c-1.625 0-3.229.335-4.724.951l1.629.557c.413.137.737.456.883.871.145.412.093.858-.143 1.223l-.284.47A8.713 8.713 0 0 1 25 16.19c.815 0 1.603.108 2.355.323l-.16.187a.526.526 0 0 0 .394.859l2.202.045 1.746.036a.524.524 0 0 0 .528-.627l-.519-2.605z"/><path fill="#444" d="M38.163 23.612l-.797-.143a12.583 12.583 0 0 0-1.576-4.7 12.423 12.423 0 0 0-3.181-3.611l.334 1.682c.081.428-.028.856-.299 1.184a1.409 1.409 0 0 1-1.091.512l-.589-.012a8.859 8.859 0 0 1 2.57 4.274l-.242-.045a.527.527 0 0 0-.555.77l1.065 1.934.842 1.531a.533.533 0 0 0 .806.143l2.006-1.764.967-.85a.52.52 0 0 0-.26-.905z"/><path fill="#444" d="M36.041 27.803a1.456 1.456 0 0 1-.936.348c-.516 0-.992-.278-1.242-.726l-.268-.486a8.857 8.857 0 0 1-2.416 4.346l-.089-.233a.524.524 0 0 0-.94-.09l-1.137 1.88-.913 1.504a.523.523 0 0 0 .278.761l2.525.859 1.226.412a.518.518 0 0 0 .654-.671l-.277-.761a12.453 12.453 0 0 0 3.286-3.716c.806-1.402 1.297-2.947 1.513-4.538l-1.264 1.111z"/></svg>