<?xml version="1.0" encoding="utf-8"?>
<!-- Generator: Adobe Illustrator 22.0.1, SVG Export Plug-In . SVG Version: 6.00 Build 0)  -->
<svg version="1.1" id="Layer_1" xmlns="http://www.w3.org/2000/svg" xmlns:xlink="http://www.w3.org/1999/xlink" x="0px" y="0px"
	 viewBox="0 0 50 50" style="enable-background:new 0 0 50 50;" xml:space="preserve">
<style type="text/css">
	.st0{fill:#FF6B6B;}
	.st1{fill:#E56060;}
	.st2{fill:#444444;}
</style>
<g>
	<g>
		<polygon class="st0" points="48.6,5 1.4,5 1.4,23.3 48.6,6.1 		"/>
	</g>
	<g>
		<polygon class="st1" points="48.6,6.1 1.4,23.3 1.4,41.6 6.6,41.6 48.6,26.3 		"/>
	</g>
</g>
<path class="st2" d="M0.2,4.6v39.1H30c0.7,0,1.2-0.6,1.2-1.2s-0.6-1.2-1.2-1.2H2.7v-25h44.6v25H40c-0.7,0-1.2,0.6-1.2,1.2
	s0.6,1.2,1.2,1.2h9.8V4.6H0.2z M2.7,14.7V7.1h7.2l1.9,3.3l-2.5,4.3H2.7z M11.1,14.7l2.5-4.3l-1.9-3.3h8.1l1.9,3.3l-2.5,4.3H11.1z
	 M21,14.7l2.5-4.3l-1.9-3.3h7.3l1.9,3.3l-2.5,4.3H21z M30,14.7l2.5-4.3l-1.9-3.3h7.3l1.9,3.3l-2.5,4.3H30z M39,14.7l2.5-4.3
	l-1.9-3.3h7.8v7.6H39z"/>
<g>
	<g>
		<path class="st2" d="M10,39.2c-0.1,0-0.2-0.1-0.2-0.2V18.1c0-0.1,0.1-0.2,0.2-0.2s0.2,0.1,0.2,0.2V39C10.2,39.1,10.1,39.2,10,39.2
			z"/>
	</g>
	<g>
		<path class="st2" d="M20,39.2c-0.1,0-0.2-0.1-0.2-0.2V18.1c0-0.1,0.1-0.2,0.2-0.2s0.2,0.1,0.2,0.2V39C20.2,39.1,20.1,39.2,20,39.2
			z"/>
	</g>
	<g>
		<path class="st2" d="M30,39.2c-0.1,0-0.2-0.1-0.2-0.2V18.1c0-0.1,0.1-0.2,0.2-0.2s0.2,0.1,0.2,0.2V39C30.2,39.1,30.1,39.2,30,39.2
			z"/>
	</g>
	<g>
		<path class="st2" d="M40,39.2c-0.1,0-0.2-0.1-0.2-0.2V18.1c0-0.1,0.1-0.2,0.2-0.2s0.2,0.1,0.2,0.2V39C40.3,39.1,40.1,39.2,40,39.2
			z"/>
	</g>
</g>
<g>
	<rect x="4.2" y="25.5" class="st2" width="4.2" height="4.2"/>
</g>
<g>
	<circle class="st2" cx="14.9" cy="27.6" r="2.5"/>
</g>
<g>
	<polygon class="st2" points="26.6,25.1 23.8,25.1 22.3,27.6 23.8,30 26.6,30 28,27.6 	"/>
</g>
<g>
	<polygon class="st2" points="37.3,29.9 32,29.8 34.7,25.2 	"/>
</g>
<g>
	<polygon class="st2" points="43.6,24.7 44.6,26.6 46.7,26.9 45.2,28.4 45.5,30.5 43.6,29.5 41.8,30.5 42.1,28.4 40.6,26.9 
		42.7,26.6 	"/>
</g>
</svg>
