<svg xmlns="http://www.w3.org/2000/svg" id="Layer_1" x="0" y="0" version="1.1" viewBox="0 0 50 50" xml:space="preserve"><style>.st0{fill:#b68af3}</style><path d="M22.8 27.2c1.5 1.5 3.4 2.3 5.5 2.3s4.1-.8 5.5-2.3c3-3 3-8 0-11.1-1.5-1.5-3.4-2.3-5.5-2.3-1.9 0-3.7.7-5.1 1.9l1.3 1.3c1.1-.9 2.4-1.4 3.8-1.4 1.6 0 3.1.6 4.2 1.7 2.3 2.3 2.3 6.1 0 8.4-1.1 1.1-2.6 1.7-4.2 1.7s-3.1-.6-4.2-1.7c-2.2-2.2-2.3-5.7-.3-8l-1.3-1.3c-1.2 1.4-1.9 3.2-1.9 5.1-.1 2.3.7 4.2 2.2 5.7z" class="st0"/><path d="M33.6 45.3c0-.3.3-.5.5-.5h4.6c1.5 0 2.6-1.6 2.7-3l-.4-1.4c0-.1 0-.3.1-.4.1-.1.2-.2.4-.3.2 0 .3-.2.3-.4s-.1-.3-.3-.4c-.3 0-.5-.3-.5-.5v-.3c0-.3.2-.5.5-.5h.3c.2 0 .4-.2.4-.4s-.2-.4-.4-.4h-.3c-.3 0-.5-.2-.5-.5V34c0-.3.2-.5.5-.5h3.4l-.7-9.6c0-8.2-6.1-14.6-13.9-14.6-3.8 0-7.2 1.5-9.8 3.8l2 2c1.6-1.4 3.7-2.2 5.9-2.2 2.7 0 5.3 1.2 7 3.4 2.6 3.2 2.6 7.9 0 11.1-1.7 2.2-4.3 3.4-7 3.4-2.4 0-4.6-.9-6.3-2.6-1.7-1.7-2.6-3.9-2.6-6.3 0-2.2.8-4.3 2.2-5.9l-2-2c-2.5 2.6-4 6.1-4 10v.6c0 2.9.8 5.7 2.2 8.1 0 .1.1.2.1.3v14.8h15.6v-2.5zm5.9-17.8c.4 0 .7.3.7.7s-.3.8-.7.8c-.4 0-.7-.3-.7-.7s.3-.8.7-.8z" class="st0"/><path d="M42.9 2.7H9.2c-3.1 0-5.6 2.5-5.6 5.6V42c0 3.1 2.5 5.6 5.6 5.6h7.7V32.9c-1.5-2.6-2.3-5.5-2.3-8.5v-.6c0-4.2 1.6-7.9 4.3-10.8l-.9-.8h-2.4v-1.1H17l-.4-.4h-2.4V9.6H16c.1 0 .3-.1.3-.3V7.4h1.1v2.4l.4.4V8.8h1.1v2.4l.8.8c2.8-2.6 6.5-4.2 10.6-4.2 8.4 0 15 6.9 15 15.7l.6 9.5v.8c0 .3-.3.5-.5.5H42v1.2c.7.1 1.2.7 1.2 1.4 0 .5-.3 1-.8 1.3.2.2.3.5.3.8 0 .5-.2.9-.6 1.2l.3 1v.1c0 2-1.6 4.2-3.8 4.2h-4.1l-.1 1.7h8.4c1 0 1.9-.2 2.7-.7 1.7-.9 2.9-2.8 2.9-4.9V8.3c.1-3.1-2.4-5.6-5.5-5.6z" class="st0"/><path d="M24.5 18.7c-1.5 1.9-1.4 4.7.3 6.4.9.9 2.1 1.4 3.4 1.4 1.3 0 2.5-.5 3.4-1.4 1.9-1.9 1.9-5 0-6.9-.9-.9-2.1-1.4-3.4-1.4-1.1 0-2.2.4-3 1.1l1.4 1.4c.5-.3 1-.5 1.6-.5.8 0 1.5.3 2 .8 1.1 1.1 1.1 2.9 0 4-.5.5-1.2.8-2 .8s-1.5-.3-2-.8-.8-1.2-.8-2c0-.6.2-1.1.5-1.6l-1.4-1.3z" class="st0"/><path d="M28.3 22.2c-.1 0-.3-.1-.4-.2l-1.2-1.2c-.1.2-.2.5-.2.8 0 .5.2.9.5 1.2.3.3.8.5 1.2.5.5 0 .9-.2 1.2-.5.7-.7.7-1.8 0-2.5-.3-.3-.8-.5-1.2-.5-.3 0-.5.1-.8.2l1.2 1.2c.2.2.2.6 0 .8 0 .2-.2.2-.3.2z" class="st0"/><path fill="#e5e5e5" d="M38.7 45.9c2.2 0 3.8-2.2 3.8-4.2v-.1l-.3-1c.4-.3.6-.7.6-1.2 0-.3-.1-.6-.3-.8.4-.2.8-.7.8-1.3 0-.7-.5-1.3-1.2-1.4v-1.2h3.4c.3 0 .5-.2.5-.5v-.8l-.6-9.5c0-8.8-6.6-15.7-15-15.7-4.1 0-7.8 1.6-10.6 4.2l-.8-.8V9.2h-1.1v1.4l-.4-.4V7.8h-1.1v1.9c0 .1-.1.3-.3.3h-1.9v1.1h2.4l.4.4h-1.4v1.1H18l.8.8c-2.7 2.8-4.3 6.6-4.3 10.8v.6c0 3 .8 6 2.3 8.5V48h1.1V33.2c0-.1-.1-.2-.1-.3-1.4-2.4-2.2-5.2-2.2-8.1v-.6c0-3.9 1.5-7.4 4-10l2 2c-1.4 1.6-2.2 3.7-2.2 5.9 0 2.4.9 4.6 2.6 6.3 1.7 1.7 3.9 2.6 6.3 2.6 2.7 0 5.3-1.2 7-3.4 2.6-3.2 2.6-7.9 0-11.1-1.7-2.2-4.3-3.4-7-3.4-2.2 0-4.3.8-5.9 2.2l-2-2c2.6-2.4 6-3.8 9.8-3.8 7.8 0 13.9 6.4 13.9 14.6l.7 9.6h-3.4c-.3 0-.5.2-.5.5v2.3c0 .3.2.5.5.5h.3c.2 0 .4.2.4.4s-.2.4-.4.4h-.3c-.3 0-.5.2-.5.5v.3c0 .3.2.5.5.5.2 0 .3.2.3.4s-.1.3-.3.4c-.2 0-.3.1-.4.3-.1.1-.1.3-.1.4l.4 1.4c0 1.4-1.2 3-2.7 3H34c-.3 0-.5.2-.5.5l-.1 2.3h1l.1-1.7h4.2zm-15-28c-1.9 2.3-1.8 5.8.3 8 1.1 1.1 2.6 1.7 4.2 1.7s3.1-.6 4.2-1.7c2.3-2.3 2.3-6.1 0-8.4-1.1-1.1-2.6-1.7-4.2-1.7-1.4 0-2.7.5-3.8 1.4l-1.3-1.3c1.4-1.2 3.2-1.9 5.1-1.9 2.1 0 4.1.8 5.5 2.3 3 3 3 8 0 11.1-1.5 1.5-3.4 2.3-5.5 2.3s-4.1-.8-5.5-2.3c-1.5-1.5-2.3-3.4-2.3-5.5 0-1.9.7-3.7 1.9-5.1l1.4 1.1zm2.6 5.8c.5.5 1.2.8 2 .8s1.5-.3 2-.8c1.1-1.1 1.1-2.9 0-4-.5-.5-1.2-.8-2-.8-.6 0-1.1.2-1.6.5L25.3 18c.9-.7 1.9-1.1 3-1.1 1.3 0 2.5.5 3.4 1.4 1.9 1.9 1.9 5 0 6.9-.9.9-2.1 1.4-3.4 1.4-1.3 0-2.5-.5-3.4-1.4-1.8-1.8-1.9-4.5-.3-6.4l1.4 1.4c-.3.5-.5 1-.5 1.6 0 .6.3 1.3.8 1.9zm2.4-2.4l-1.2-1.2c.2-.1.5-.2.8-.2.5 0 .9.2 1.2.5.7.7.7 1.8 0 2.5-.3.3-.8.5-1.2.5-.5 0-.9-.2-1.2-.5-.3-.3-.5-.8-.5-1.2 0-.3.1-.5.2-.8l1.2 1.2c.1.1.2.2.4.2.1 0 .3-.1.4-.2.1-.3.1-.6-.1-.8z"/><path fill="#e5e5e5" stroke="#e5e5e5" stroke-miterlimit="10" stroke-width="2" d="M39.5 29c.4 0 .7-.3.7-.7s-.3-.7-.7-.7c-.4 0-.7.3-.7.7s.3.7.7.7z"/></svg>