<?xml version="1.0" encoding="utf-8"?>
<!-- Generator: Adobe Illustrator 24.1.2, SVG Export Plug-In . SVG Version: 6.00 Build 0)  -->
<svg version="1.1" id="Layer_1" xmlns="http://www.w3.org/2000/svg" xmlns:xlink="http://www.w3.org/1999/xlink" x="0px" y="0px"
	 viewBox="0 0 50 50" style="enable-background:new 0 0 50 50;" xml:space="preserve">
<style type="text/css">
	.st0{fill:#AFE55D;}
	.st1{fill:#C3FF68;}
	.st2{fill:#444444;}
	.st3{fill:#444545;}
</style>
<g>
	<g>
		<path class="st0" d="M43.33,17.05v11.8l-11.87,4.33l-18.93,6.9l-5.86,2.14v-13.5l6.45-2.35l6.72-2.45l23.05-8.41
			c0.12,0.19,0.22,0.4,0.29,0.62C43.28,16.42,43.33,16.73,43.33,17.05z"/>
	</g>
	<g>
		<path class="st1" d="M32.58,6.5l5.5-2.01c0.08,0.26,0.12,0.54,0.12,0.83c0,1.62-1.31,2.93-2.93,2.93
			C34.07,8.25,33.04,7.53,32.58,6.5z"/>
	</g>
	<g>
		<path class="st1" d="M43.18,16.13l-23.32,8.5l-6.31,2.3l-6.88,2.51V17.05c0-0.43,0.09-0.83,0.26-1.2l4.74-1.73L14.73,13v1.12H40.4
			c1.05,0,1.98,0.56,2.49,1.39C43.01,15.7,43.11,15.91,43.18,16.13z"/>
	</g>
	<g>
		<g>
			<path class="st2" d="M40.4,47.62H9.6c-2.31,0-4.18-1.88-4.18-4.18v-26.4c0-0.6,0.13-1.18,0.37-1.72
				c0.66-1.49,2.15-2.46,3.81-2.46h30.8c1.44,0,2.8,0.76,3.56,1.99c0.17,0.28,0.32,0.58,0.42,0.9c0.14,0.39,0.21,0.84,0.21,1.3v26.4
				C44.58,45.75,42.7,47.62,40.4,47.62z M9.6,15.37c-0.66,0-1.26,0.39-1.53,0.98c-0.11,0.23-0.15,0.45-0.15,0.69v26.4
				c0,0.93,0.75,1.68,1.68,1.68h30.8c0.93,0,1.68-0.75,1.68-1.68v-26.4c0-0.18-0.03-0.36-0.08-0.51c-0.04-0.14-0.1-0.26-0.17-0.36
				c-0.31-0.5-0.85-0.81-1.43-0.81L9.6,15.37L9.6,15.37z"/>
		</g>
		<g>
			<path class="st2" d="M3,35.16c-0.69,0-1.25-0.56-1.25-1.25v-7.33c0-0.69,0.56-1.25,1.25-1.25s1.25,0.56,1.25,1.25v7.33
				C4.25,34.6,3.69,35.16,3,35.16z"/>
		</g>
		<g>
			<path class="st2" d="M47,35.16c-0.69,0-1.25-0.56-1.25-1.25v-7.33c0-0.69,0.56-1.25,1.25-1.25s1.25,0.56,1.25,1.25v7.33
				C48.25,34.6,47.69,35.16,47,35.16z"/>
		</g>
		<g>
			<circle class="st3" cx="14.73" cy="5.31" r="2.93"/>
		</g>
		<g>
			<path class="st2" d="M14.73,15.37c-0.69,0-1.25-0.56-1.25-1.25V8.25c0-0.69,0.56-1.25,1.25-1.25s1.25,0.56,1.25,1.25v5.87
				C15.98,14.81,15.42,15.37,14.73,15.37z"/>
		</g>
		<g>
			<path class="st3" d="M38.2,5.32c0,1.62-1.31,2.93-2.93,2.93c-1.2,0-2.23-0.72-2.69-1.75c-0.16-0.36-0.25-0.76-0.25-1.18
				c0-1.62,1.32-2.94,2.94-2.94c1.33,0,2.45,0.89,2.81,2.11C38.16,4.75,38.2,5.03,38.2,5.32z"/>
		</g>
		<g>
			<path class="st2" d="M35.27,15.37c-0.69,0-1.25-0.56-1.25-1.25V8.25c0-0.69,0.56-1.25,1.25-1.25s1.25,0.56,1.25,1.25v5.87
				C36.52,14.81,35.96,15.37,35.27,15.37z"/>
		</g>
		<g>
			<path class="st2" d="M37.47,41.26H12.53c-0.41,0-0.75-0.34-0.75-0.75v-7.33c0-0.41,0.34-0.75,0.75-0.75h24.93
				c0.41,0,0.75,0.34,0.75,0.75v7.33C38.22,40.93,37.88,41.26,37.47,41.26z M13.28,39.76h23.43v-5.83H13.28V39.76z"/>
		</g>
		<g>
			<path class="st2" d="M16.2,28.8c-2.44,0-4.42-1.98-4.42-4.42s1.98-4.42,4.42-4.42s4.42,1.98,4.42,4.42S18.64,28.8,16.2,28.8z
				 M16.2,21.46c-1.61,0-2.92,1.31-2.92,2.92s1.31,2.92,2.92,2.92s2.92-1.31,2.92-2.92S17.81,21.46,16.2,21.46z"/>
		</g>
		<g>
			<path class="st2" d="M33.8,28.8c-2.44,0-4.42-1.98-4.42-4.42s1.98-4.42,4.42-4.42s4.42,1.98,4.42,4.42S36.23,28.8,33.8,28.8z
				 M33.8,21.46c-1.61,0-2.92,1.31-2.92,2.92s1.31,2.92,2.92,2.92s2.92-1.31,2.92-2.92S35.41,21.46,33.8,21.46z"/>
		</g>
	</g>
</g>
</svg>
