<svg xmlns="http://www.w3.org/2000/svg" id="Layer_1" x="0" y="0" version="1.1" viewBox="0 0 50 50" xml:space="preserve"><style>.st1{fill:#444}.st2,.st3{fill:none;stroke:#444;stroke-width:.5;stroke-miterlimit:10}.st3{stroke-linecap:round;stroke-linejoin:round}</style><path fill="#e589ef" d="M32.1 4.8l-9.2-2.9c-8.7 1.8-8.7 12-8.7 13.4l-5.8 1.3-4.9 6.6 1.9 7.1c.4.5 7.3 3.6 8 3.6l.2 6.8L19 47l16.1-5.7.2-7.4c1.5-.6 7.2-.3 7.6-3.3l2.1-6.7-3-6.1-6.6-1.8c0-1.4-1.9-11.2-3.3-11.2z"/><path d="M23.2 33.8c-1 .4-1.7 1.1-2.1 2.1-.2.5-.3 1-.3 1.5 0 1.6.9 3 2.4 3.6.5.2 1 .3 1.5.3s1-.1 1.5-.3c1-.4 1.7-1.1 2.1-2.1.4-1 .4-2 0-3s-1.1-1.7-2.1-2.1c-1-.4-2.1-.4-3 0zm4.1 2.5c.3.7.3 1.5 0 2.2-.3.7-.9 1.3-1.6 1.6-.7.3-1.5.3-2.2 0-1.1-.5-1.8-1.5-1.8-2.7 0-.4.1-.8.2-1.1.3-.7.9-1.3 1.6-1.6.4-.1.7-.2 1.1-.2.4 0 .8.1 1.1.2.8.3 1.4.9 1.6 1.6z" class="st1"/><path d="M32.7 43.7c1.4-1.8 2.1-4 2.1-6.2 0-.8-.1-1.5-.3-2.3-1-4.4-4.4-8-6.6-10l.1-.1c4.1-3.5 6.6-7.2 6.8-11 .2-4.3-2.5-7.9-2.5-7.9-2.5-3.2-6.6-3.6-6.6-3.6-.5-.1-1-.1-1.5 0-3 .2-5.8 1.7-7.6 4.1-1.8 2.4-2.5 5.5-1.8 8.4.4 1.6 1.8 5.7 6.6 10l-.1.1c-4.1 3.5-6.4 7.2-6.8 11-.3 2.7.5 5.5 2.2 7.6 1.7 2.2 4.2 3.5 6.9 3.8l.1-.6c-2.6-.3-4.9-1.6-6.5-3.6-1.6-2-2.4-4.6-2.1-7.2.4-3.6 2.6-7.2 6.6-10.6l.2-.2c.3.2.5.4.8.6.5.4 1 .8 1.5 1.3l.3.3c-.9.8-1.7 1.6-2.3 2.2l-1.4.6.4 1.6c-.3.3-.7.6-.9.9l-2 .1c-.2 0-.3 0-.4.2l-.9 2.2c-.1.1 0 .3.1.4l1.4.9c0 .4-.1.8 0 1.3l-1.5.8c-.1.1-.2.2-.1.4l.9 2.2c.1.1.2.2.4.2l1.7-.4c.2.3.5.6.8.9l-.4 1.7c0 .2 0 .3.2.4l2.2.9c.1.1.3 0 .4-.1l.8-1.4c.4.1.9.1 1.3 0L26 45l2.2-.9c.1-.1.2-.2.2-.4l-.4-1.6c.3-.2.6-.5.9-.8l1.7.4c.2 0 .3 0 .4-.2l.9-2.2c.1-.1 0-.3-.1-.4l-1.4-.9c.1-.5.1-1 0-1.5l1.4-.8V35.4l-.9-2.2c-.1-.1-.2-.2-.4-.2l-1.6.4c-.3-.3-.5-.6-.8-.8l.4-1.6c0-.2 0-.3-.2-.4l-1.3-.7c-.1-.2-.3-.3-.4-.5-.6-.8-1.2-1.4-1.9-2.1l-.3-.3c-.5-.5-1-.9-1.5-1.3-5.7-4.5-7.3-9-7.7-10.7-.6-2.7 0-5.6 1.7-7.9 1.7-2.3 4.3-3.7 7.2-3.8h1.4s1.6.2 3.4 1.1c5.7 2.9 5.2 9.6 5.2 9.6-.4 3.6-2.6 7.2-6.6 10.6l-.2.2c-.2-.2-.4-.3-.6-.5-.7-.5-1.3-1.1-2-1.7.7-.6 1.4-1.3 1.9-1.9l1.8-.7c.1-.1.2-.2.2-.4l-.4-1.6c.3-.2.6-.5.9-.8l1.7.5c.2 0 .3 0 .4-.2l1-2.2c.1-.1 0-.3-.1-.4l-1.4-.9c.1-.5.1-1 0-1.5l1.4-.8V11.4l-.9-2.2c.2-.2.1-.3-.1-.2l-1.6.4c-.3-.3-.5-.6-.8-.9l.4-1.6c0-.2 0-.3-.2-.4l-2.2-1c-.1-.1-.3 0-.4.1L25.4 7c-.4 0-.8 0-1.3.1l-.8-1.5-2.2.9.4 1.6c-.3.3-.7.6-.9.9L19 8.6c-.2 0-.3 0-.4.2l-1 2.2c-.1.1 0 .3.1.4l1.4.9c-.1.4-.1.8 0 1.3l-2.1 1c-.1.1-.2.2-.1.4l.9 2.2c.1.1.2.2.4.2l1.7-.4c.2.3.5.6.8.9l-.4 1.7c0 .2 0 .3.2.4l1.6.7c.6.8 1.4 1.5 2.2 2.3l.2.2 2.1 1.8c1.9 1.5 6.3 5.5 7.5 10.5.6 2.7 0 5.6-1.7 7.9l.3.3zM21.5 17.1c-.3-.3-.7-.6-.9-1-.2-.3-.5-.4-.8-.3l-1.2.3-.4-.9 1.1-.6c.3-.2.4-.5.4-.8-.1-.5 0-.9 0-1.4.1-.3-.1-.6-.4-.8l-1-.6.4-.9 1.2.3c.3.1.6 0 .8-.3.3-.4.6-.7 1-1 .3-.2.4-.5.3-.8l-.3-1.1.9-.4.6 1c.2.3.5.4.8.4.5-.1.9 0 1.4 0 .3.1.6-.1.8-.4l.6-1 .9.4-.3 1.1c-.1.3 0 .6.3.8.3.3.7.6.9.9.2.3.5.4.8.3l1.1-.3.4.9-1 .6c-.3.2-.4.5-.4.8.1.5.1 1 0 1.6-.1.3.1.6.4.8l1 .6-.4.9-1.2-.3c-.3-.1-.6 0-.8.3-.3.3-.6.6-1 .9-.3.2-.4.5-.3.8l.3 1.1-.9.4-.6-1c-.1-.3-.4-.4-.7-.4h-.1c-.5.1-.9 0-1.4 0-.3-.1-.7.1-.8.4l-.6 1-.9-.4.3-1.2c.1-.1 0-.5-.3-.7zm1.5 3.6l.8-1.4c.4.1.9.1 1.3 0l.8 1.4c-.5.5-1.1 1-1.6 1.5-.4-.5-.9-1-1.3-1.5 0 .1 0 0 0 0zm4.7 12.7c.3.3.7.6.9.9.2.3.5.4.8.3l1.1-.3.4.9-1 .6c-.3.2-.4.5-.4.8.1.5.1 1 0 1.6-.1.3.1.6.4.8l1 .6-.4.9-1.2-.3c-.3-.1-.6 0-.8.3-.3.3-.6.7-1 .9-.3.2-.4.5-.3.8l.3 1.1-.9.4-.6-1c-.1-.2-.4-.4-.7-.4h-.1c-.5.1-1 0-1.4 0-.3-.1-.7.1-.8.4l-.6 1-.9-.4.3-1.2c.1-.3 0-.6-.3-.8-.3-.3-.7-.6-.9-1-.2-.3-.5-.4-.8-.3l-1.2.3-.4-.9 1.1-.6c.3-.2.4-.5.4-.8-.1-.5-.1-.9 0-1.4 0-.3-.1-.6-.4-.8l-1-.6.4-.9 1.2.3c.3.1.6 0 .8-.3.3-.4.6-.7 1-1 .3-.2.4-.5.3-.9l-.3-1.1.9-.4.6 1c.2.3.5.4.8.4.5-.1.9-.1 1.4 0 .3.1.6-.1.8-.4l.6-1 .9.4-.3 1.1c0 .5.1.8.3 1zm-2.4-2.1c-.4 0-.8-.1-1.3 0l-.8-1.5c.5-.5 1-1 1.6-1.5.5.5.9 1 1.4 1.6l-.9 1.4z" class="st1"/><path d="M24.7 17.1c1.5 0 2.9-.9 3.6-2.3.9-2-.1-4.3-2-5.1-1-.4-2-.4-3 0s-1.7 1.1-2.1 2.1c-.2.5-.3 1-.3 1.5 0 1.6.9 3 2.3 3.6.4.1.9.2 1.5.2zm-3-3.9c0-.4.1-.8.2-1.2.3-.7.9-1.3 1.6-1.6.7-.3 1.5-.3 2.2 0 1.5.6 2.2 2.4 1.5 3.8-.6 1.5-2.4 2.2-3.8 1.5-1-.3-1.7-1.3-1.7-2.5z" class="st1"/><path d="M35.6 22.4c.7-.3 1.5-.3 2.2 0 .7.3 1.3.9 1.6 1.6.3.7.3 1.5 0 2.2-.5 1.1-1.5 1.8-2.7 1.8-.4 0-.8-.1-1.1-.2-.7-.3-1.3-.9-1.6-1.6-.1-.4-.2-.7-.2-1.1 0-.4.1-.8.2-1.1.3-.7.9-1.3 1.6-1.6z" class="st2"/><path d="M16.5 28.2c-.3.3-.6.7-1 .9-.3.2-.4.5-.3.8l.3 1.2-.9.4-.6-1.1c-.2-.3-.5-.4-.8-.4-.5.1-.9 0-1.4 0-.3-.1-.6.1-.8.4l-.6 1-.9-.4.3-1.2c.1-.3 0-.6-.3-.8-.4-.3-.7-.6-1-1-.2-.3-.5-.4-.9-.3l-1.2.3-.4-.9 1-.6c.3-.2.4-.5.4-.8-.1-.5 0-.9 0-1.4.1-.3-.1-.6-.4-.8l-1-.6.6-.9 1.1.3c.3.1.6 0 .8-.3.3-.3.6-.7.9-.9.3-.2.4-.5.3-.8l-.3-1.1.9-.4.6 1c.2.3.5.4.8.4.5-.1 1-.1 1.6 0 .3.1.6-.1.8-.4l.6-1 .9.4-.3 1.2c-.1.3 0 .6.3.8.3.3.6.6.9 1 .2.3.5.4.8.3l1.1-.3.4.9-1 .6c-.3.1-.4.4-.4.7v.1c.1.5 0 .9 0 1.4-.1.3.1.7.4.8l1 .6-.4.9-1.1-.2c-.3-.1-.6 0-.8.2zM32.7 22c.3-.3.6-.7.9-.9.3-.2.4-.5.3-.8l-.3-1.1.9-.4.6 1c.2.3.5.4.8.4.5-.1 1-.1 1.6 0 .3.1.6-.1.8-.4l.6-1 .9.4-.3 1.2c-.1.3 0 .6.3.8.3.3.7.6.9 1 .2.3.5.4.8.3l1.1-.3.4.9-1 .6c-.2.1-.4.4-.4.7v.1c.1.5 0 1 0 1.4-.1.3.1.7.4.8l1 .6-.4.9-1.1-.2c-.3-.1-.6 0-.8.3-.3.3-.6.7-1 .9-.3.2-.4.5-.3.8l.3 1.2-.9.4-.6-1.1c-.2-.3-.5-.4-.8-.4-.5.1-.9.1-1.4 0-.3 0-.6.1-.8.4l-.6 1-.9-.4.3-1.2c.1-.3 0-.6-.3-.8-.4-.3-.7-.6-1-1-.2-.3-.5-.4-.9-.3l-1.1.3-.4-.9 1-.6c.3-.2.4-.5.4-.8-.1-.5-.1-.9 0-1.4.1-.3-.1-.6-.4-.8l-1-.6.4-.9 1.1.3c.4 0 .7-.1.9-.4z" class="st3"/><path d="M12.5 28c-.4 0-.8-.1-1.2-.2-.7-.3-1.3-.9-1.6-1.6-.3-.7-.3-1.5 0-2.2.6-1.5 2.4-2.2 3.8-1.5 1.5.6 2.2 2.4 1.5 3.8-.3 1-1.3 1.7-2.5 1.7z" class="st2"/><path d="M15.6 32.8c-.9.3-1.9.5-2.9.5-4.7 0-8.5-3.8-8.5-8.5s3.8-8.5 8.5-8.5c.9 0 1.8.2 2.7.4m18.6-.1c.7-.2 1.5-.3 2.3-.3 4.7 0 8.5 3.8 8.5 8.5s-3 8.2-7.7 8.2c-1 0-3.4-1-4.3-1.3l1 .9" class="st3"/><path fill="none" stroke="#444" stroke-linecap="round" stroke-linejoin="round" stroke-miterlimit="10" stroke-width="2.5" d="M33.2 43.6c1.5-1.6 2.1-4.2 2.1-6.1 0-.8-.1-1.6-.3-2.4-.1-.6-.2-1.2-.5-1.8.6.1 1.2.1 1.8.1 4.8 0 8.8-3.9 8.8-8.8 0-4.8-3.9-8.8-8.8-8.8-.5 0-.9 0-1.4.1.2-.7.3-1.3.3-2v0c.3-4.5-2.5-8.1-2.6-8.2-2.6-3.4-6.8-3.8-7-3.8-.5-.1-1.1-.1-1.6 0-3.2.2-6.1 1.7-8 4.3-1.9 2.6-2.6 5.8-1.9 8.9.1.2.1.7.2 1-.6-.1-1-.3-1.6-.3-4.8 0-8.8 3.9-8.8 8.8 0 4.8 3.9 8.8 8.8 8.8.6 0 1.2-.1 1.8-.2-.4 1-.5 2-.6 3-.3 2.9.5 5.7 2.3 8 1.8 2.3 4.4 3.7 7.3 4 .4 0 .7.1 1.1.1h.5"/><path fill="none" stroke="#444" stroke-linejoin="round" stroke-miterlimit="10" d="M15.9 32.3l-2.4.4"/><path d="M35.9 16.6L33.4 18l1-1.1" class="st3"/><path fill="none" stroke="#444" stroke-linecap="round" stroke-linejoin="round" stroke-miterlimit="10" d="M13.2 16.8l2.3.6-.7-.6"/></svg>