<?xml version="1.0" encoding="utf-8"?>
<!-- Generator: Adobe Illustrator 28.1.0, SVG Export Plug-In . SVG Version: 6.00 Build 0)  -->
<svg version="1.1" id="Layer_1" xmlns="http://www.w3.org/2000/svg" xmlns:xlink="http://www.w3.org/1999/xlink" x="0px" y="0px"
	 viewBox="0 0 50 50" style="enable-background:new 0 0 50 50;" xml:space="preserve">
<style type="text/css">
	.st0{fill:#FC9D9A;}
	.st1{fill:#444444;}
	.st2{fill:none;stroke:#444444;stroke-width:0.5;stroke-miterlimit:10;}
	.st3{fill:none;stroke:#444444;stroke-width:0.5;stroke-linecap:round;stroke-linejoin:round;stroke-miterlimit:10;}
	.st4{fill:none;stroke:#444444;stroke-width:2.5;stroke-linecap:round;stroke-linejoin:round;stroke-miterlimit:10;}
	.st5{fill:none;stroke:#444444;stroke-linejoin:round;stroke-miterlimit:10;}
	.st6{fill:none;stroke:#444444;stroke-linecap:round;stroke-linejoin:round;stroke-miterlimit:10;}
</style>
<g>
	<path class="st0" d="M32.8,4.1l-9.5-3c-8.9,1.8-9,12.3-9,13.7l-5.9,1.3l-5,6.8l1.9,7.3c0.4,0.5,7.5,3.7,8.2,3.7l0.2,7l5.6,6.4
		l16.5-5.9l0.2-7.6c1.5-0.6,7.4-0.3,7.8-3.4l2.2-6.9l-3.1-6.2l-6.7-1.9C36.2,14.2,34.2,4.1,32.8,4.1z"/>
	<g>
		<g>
			<g>
				<path class="st1" d="M23.7,33.8c-1,0.4-1.8,1.2-2.2,2.1c-0.2,0.5-0.3,1-0.3,1.6c0,1.6,1,3.1,2.4,3.7c0.5,0.2,1,0.3,1.6,0.3
					c0.5,0,1-0.1,1.5-0.3c1-0.4,1.8-1.2,2.2-2.1c0.4-1,0.4-2.1,0-3.1s-1.2-1.8-2.1-2.2C25.7,33.4,24.7,33.4,23.7,33.8z M27.9,36.4
					c0.3,0.7,0.3,1.6,0,2.3S27,40,26.3,40.3s-1.6,0.3-2.3,0c-1.1-0.5-1.8-1.6-1.8-2.8c0-0.4,0.1-0.8,0.2-1.2
					c0.3-0.7,0.9-1.3,1.6-1.6c0.4-0.1,0.7-0.2,1.1-0.2s0.8,0.1,1.2,0.2C27.1,35.1,27.6,35.7,27.9,36.4z"/>
				<path class="st1" d="M33.4,44c1.4-1.9,2.1-4.1,2.1-6.3c0-0.8-0.1-1.6-0.3-2.3c-1-4.5-4.6-8.2-6.8-10.2l0.1-0.1
					c4.2-3.6,6.7-7.4,7-11.3c0.3-4.4-2.6-8.1-2.6-8.1C30.4,2.4,26.1,2,26.1,2c-0.5-0.1-1.1-0.1-1.6,0c-3.1,0.2-5.9,1.7-7.8,4.2
					s-2.6,5.7-1.9,8.7c0.4,1.7,1.8,5.8,6.8,10.2l0,0c-4.2,3.6-6.5,7.4-7,11.3c-0.3,2.8,0.5,5.6,2.3,7.8s4.3,3.6,7.1,3.9l0.1-0.7
					c-2.6-0.3-5-1.6-6.7-3.7c-1.7-2.1-2.4-4.7-2.2-7.3c0.4-3.7,2.7-7.4,6.8-10.9l0.2-0.2c0.3,0.2,0.5,0.4,0.8,0.7
					c0.5,0.4,1,0.8,1.5,1.3l0.3,0.3c-0.9,0.8-1.8,1.6-2.3,2.2l0,0L21,30.4l0,0l0,0l0,0l0,0l0,0l0,0l0,0l0,0l0,0l0,0l0,0l0,0l0,0l0,0
					l0,0l0,0l0.4,1.7c-0.4,0.3-0.7,0.6-1,0.9l-1.8,0c-0.2,0-0.3,0-0.4,0.2l-1,2.3c-0.1,0.2,0,0.3,0.1,0.4l1.5,0.9
					c-0.1,0.4-0.1,0.9,0,1.3L17.3,39c-0.1,0.1-0.2,0.3-0.1,0.4l0.9,2.3c0.1,0.2,0.2,0.2,0.4,0.2l1.7-0.4c0.3,0.3,0.5,0.6,0.9,0.9
					L20.6,44c0,0.2,0,0.3,0.2,0.4l2.3,1c0.2,0.1,0.3,0,0.4-0.1l0.9-1.5c0.4,0.1,0.9,0.1,1.3,0l0.9,1.5l0,0l0,0l0,0l0,0l0,0l0,0l0,0
					l0,0l0,0l0,0l0,0l0,0l0,0l0,0l0,0l0,0l2.3-0.9c0.1-0.1,0.2-0.2,0.2-0.4l-0.4-1.6c0.3-0.3,0.6-0.5,0.9-0.8l1.7,0.5
					c0.2,0,0.3,0,0.4-0.2l1-2.3c0.1-0.1,0-0.3-0.1-0.4l-1.4-0.9c0.1-0.5,0.1-1,0-1.5l1.4-0.8l0,0l0,0l0,0l0,0c0,0,0,0,0-0.1l0,0
					v-0.1l0,0l0,0l0,0l0,0c0,0,0,0,0-0.1l0,0l0,0l-0.9-2.3c-0.1-0.2-0.2-0.2-0.4-0.2l-1.7,0.4c-0.3-0.3-0.5-0.6-0.9-0.9l0.4-1.7
					c0-0.2,0-0.3-0.2-0.4l-1.3-0.8c-0.1-0.2-0.3-0.3-0.4-0.5c-0.6-0.8-1.2-1.5-2-2.2l-0.3-0.3c-0.5-0.5-1-0.9-1.6-1.4
					c-5.9-4.7-7.5-9.2-7.9-11c-0.6-2.8,0-5.8,1.8-8.1c1.8-2.2,4.5-3.6,7.4-3.8c0.5,0,1,0,1.5,0c0,0,1.7,0.3,3.5,1.2
					c5.8,2.9,5.3,9.9,5.3,9.9c-0.4,3.7-2.7,7.4-6.8,10.9l-0.2,0.2c-0.2-0.2-0.4-0.3-0.6-0.5c-0.7-0.6-1.4-1.2-2-1.8
					c0.7-0.6,1.4-1.3,2-1.9l1.9-0.7c0.2-0.1,0.2-0.2,0.2-0.4l-0.3-1.7c0.3-0.3,0.6-0.5,0.9-0.8l1.7,0.5c0.2,0,0.3,0,0.4-0.2l1-2.3
					c0.1-0.1,0-0.3-0.1-0.4l-1.4-0.9c0.1-0.5,0.1-1,0-1.5l1.4-0.8l0,0l0,0l0,0l0,0c0,0,0,0,0-0.1l0,0v-0.1l0,0l0,0l0,0l0,0
					c0,0,0,0,0-0.1l0,0l0,0l-0.9-2.3c-0.1-0.2-0.2-0.2-0.4-0.2l-1.6,0.2c-0.3-0.3-0.5-0.6-0.9-0.9l0.4-1.7c0-0.2,0-0.3-0.2-0.4
					l-2.3-1c-0.1-0.1-0.3,0-0.4,0.1l-0.9,1.4c-0.4-0.1-0.9-0.1-1.3,0l-0.9-1.5l0,0l0,0l0,0l0,0l0,0l0,0l0,0l0,0l0,0l0,0l0,0l0,0l0,0
					l0,0l0,0l0,0l-2.5,1l0,0l0,0l0,0l0,0l0,0l0,0l0,0l0,0l0,0l0,0l0,0l0,0l0,0l0,0l0,0l0,0l0.2,2c-0.4,0.3-0.7,0.6-1,0.9l-1.7-0.4
					c-0.2,0-0.3,0-0.4,0.2l-1,2.3c-0.1,0.1,0,0.3,0.1,0.4l1.5,0.9c-0.1,0.4-0.1,0.9,0,1.3l-1.5,0.9c-0.1,0.1-0.2,0.3-0.1,0.4
					l0.9,2.3c0.1,0.2,0.2,0.2,0.4,0.2l1.7-0.4c0.3,0.3,0.5,0.6,0.9,0.9l-0.5,1.6c0,0.2,0,0.3,0.2,0.4l1.6,0.7
					c0.7,0.8,1.4,1.6,2.2,2.3l0.2,0.2c0.7,0.6,1.4,1.3,2.1,1.8c1.9,1.5,6.5,5.7,7.7,10.8c0.6,2.8,0,5.8-1.8,8.1L33.4,44z M22,16.7
					c-0.4-0.3-0.7-0.6-0.9-1c-0.2-0.3-0.5-0.4-0.9-0.3l-1.3,0.3l-0.4-1l1.1-0.6c0.3-0.2,0.5-0.5,0.4-0.8c-0.1-0.5,0-1,0-1.4
					c0.1-0.3-0.1-0.7-0.4-0.8l-1-0.6L19,9.6l1.2,0.3c0.3,0.1,0.7,0,0.9-0.3c0.3-0.4,0.7-0.7,1.1-1c0.3-0.2,0.4-0.5,0.3-0.9l-0.3-1.2
					l0.9-0.4l0.6,1.1c0.2,0.3,0.5,0.5,0.8,0.4c0.5-0.1,0.9,0,1.4,0c0.3,0.1,0.7-0.1,0.8-0.4l0.6-1l0.9,0.4l-0.3,1.2
					c-0.1,0.3,0,0.7,0.3,0.9c0.4,0.3,0.7,0.6,0.9,1c0.2,0.3,0.5,0.4,0.8,0.3l1.2-0.3l0.4,1l-1,0.6c-0.3,0.2-0.5,0.5-0.4,0.8
					c0.1,0.5,0.1,1.1,0,1.6c-0.1,0.3,0.1,0.7,0.4,0.8l1,0.6L31.1,16l-1-0.3c-0.3-0.1-0.7,0-0.9,0.3c-0.3,0.3-0.6,0.7-1,0.9
					c-0.3,0.2-0.4,0.5-0.3,0.9l0.3,1.2l-1,0.4l-0.6-1c-0.1-0.3-0.4-0.4-0.7-0.4h-0.1c-0.5,0.1-1,0-1.5,0c-0.3-0.1-0.7,0.1-0.9,0.4
					l-0.6,1L21.9,19l0.3-1.2C22.3,17.3,22.2,16.9,22,16.7z M23.5,20.4l0.9-1.5c0.4,0.1,0.9,0.1,1.3,0l0.8,1.4
					c-0.5,0.5-1.1,1.1-1.6,1.5C24.4,21.4,23.9,21,23.5,20.4L23.5,20.4z M28.3,33.4c0.4,0.3,0.7,0.6,0.9,1c0.2,0.3,0.5,0.4,0.8,0.3
					l1.2-0.3l0.4,1l-1,0.6c-0.3,0.2-0.5,0.5-0.4,0.8c0.1,0.5,0.1,1.1,0,1.6c-0.1,0.3,0.1,0.7,0.4,0.8l1,0.6l-0.4,0.9L30,40.4
					c-0.3-0.1-0.7,0-0.9,0.3c-0.3,0.4-0.6,0.7-1,0.9c-0.3,0.2-0.4,0.5-0.3,0.9l0.3,1.2l-1,0.4l-0.6-1c-0.1-0.3-0.4-0.4-0.7-0.4h-0.1
					c-0.5,0.1-1,0-1.5,0c-0.3-0.1-0.7,0.1-0.9,0.4l-0.6,1l-0.9-0.4l0.3-1.2c0.1-0.3,0-0.7-0.3-0.9c-0.4-0.3-0.7-0.6-0.9-1
					c-0.2-0.3-0.5-0.4-0.9-0.3l-1.2,0.3l-0.4-1l1.1-0.6c0.3-0.2,0.5-0.5,0.4-0.8c-0.1-0.5-0.1-1,0-1.4c0-0.3-0.1-0.6-0.4-0.8l-1-0.6
					l0.4-0.9l1.2,0.3c0.3,0.1,0.7,0,0.9-0.3c0.3-0.4,0.6-0.7,1-1c0.3-0.2,0.4-0.5,0.3-0.9L22,31.4l0.9-0.4l0.6,1.1
					c0.2,0.3,0.5,0.5,0.8,0.4c0.5-0.1,0.9-0.1,1.4,0c0.3,0.1,0.7-0.1,0.8-0.4l0.6-1l1,0.4l-0.3,1.2C27.9,32.9,28.1,33.2,28.3,33.4z
					 M25.9,31.2c-0.4,0-0.9-0.1-1.3,0l-0.9-1.5l0,0l0,0l0,0l0,0c0.5-0.5,1.1-1,1.6-1.5c0.5,0.5,0.9,1.1,1.4,1.7l0,0L25.9,31.2z"/>
				<path class="st1" d="M25.2,16.7c1.5,0,3-0.9,3.7-2.4c0.9-2-0.1-4.4-2.1-5.3c-1-0.4-2.1-0.4-3.1,0s-1.8,1.1-2.2,2.1
					c-0.2,0.5-0.3,1-0.3,1.6c0,1.6,0.9,3,2.4,3.7C24.1,16.6,24.7,16.7,25.2,16.7z M22.2,12.7c0-0.4,0.1-0.8,0.2-1.2
					c0.3-0.7,0.9-1.3,1.6-1.6s1.6-0.3,2.3,0c1.5,0.7,2.2,2.4,1.6,3.9c-0.7,1.5-2.4,2.2-3.9,1.6C22.9,15,22.2,13.9,22.2,12.7z"/>
			</g>
			<g>
				<path class="st2" d="M36.4,22.2c0.7-0.3,1.6-0.3,2.3,0s1.3,0.9,1.6,1.6s0.3,1.6,0,2.3c-0.5,1.1-1.6,1.8-2.8,1.8
					c-0.4,0-0.8-0.1-1.2-0.2c-0.7-0.3-1.3-0.9-1.6-1.6c-0.1-0.4-0.2-0.7-0.2-1.1s0.1-0.8,0.2-1.2C35.1,23,35.7,22.5,36.4,22.2z"/>
				<path class="st3" d="M16.8,28.1c-0.3,0.4-0.6,0.7-1,0.9c-0.3,0.2-0.4,0.5-0.3,0.9l0.3,1.2l-1,0.4l-0.6-1.1
					c-0.2-0.3-0.5-0.5-0.8-0.4c-0.5,0.1-1,0-1.4,0c-0.3-0.1-0.7,0.1-0.8,0.4l-0.6,1L9.7,31l0.3-1.2c0.1-0.3,0-0.7-0.3-0.9
					c-0.4-0.3-0.7-0.7-1-1.1c-0.2-0.3-0.5-0.4-0.9-0.3l-1.2,0.3l-0.4-0.9l1.1-0.6c0.2-0.1,0.3-0.4,0.3-0.8c-0.1-0.5,0-0.9,0-1.4
					c0.1-0.3-0.1-0.7-0.4-0.8l-1-0.6l0.4-1L7.8,22c0.3,0.1,0.7,0,0.9-0.3c0.3-0.4,0.6-0.7,1-0.9c0.3-0.2,0.4-0.5,0.3-0.8l-0.3-1.3
					l1-0.4l0.6,1c0.2,0.3,0.5,0.5,0.8,0.4c0.5-0.1,1.1-0.1,1.6,0c0.3,0.1,0.7-0.1,0.8-0.4l0.6-1l0.9,0.4l-0.3,1.2
					c-0.1,0.3,0,0.7,0.3,0.9c0.3,0.3,0.7,0.6,0.9,1c0.2,0.3,0.5,0.4,0.9,0.3l1.2-0.3l0.4,1l-1,0.6c-0.3,0.1-0.4,0.4-0.4,0.7v0.1
					c0.1,0.5,0,1,0,1.5c-0.1,0.3,0.1,0.7,0.4,0.9l1,0.6L19,28.1l-1.4-0.3C17.3,27.8,17,27.9,16.8,28.1z M33.5,21.8
					c0.3-0.4,0.6-0.7,1-0.9c0.3-0.2,0.4-0.5,0.3-0.8l-0.3-1.2l1-0.4l0.6,1c0.2,0.3,0.5,0.5,0.8,0.4c0.5-0.1,1.1-0.1,1.6,0
					c0.3,0.1,0.7-0.1,0.8-0.4l0.6-1l0.9,0.4l-0.3,1.2c-0.1,0.3,0,0.7,0.3,0.9c0.4,0.3,0.7,0.6,0.9,1c0.2,0.3,0.5,0.4,0.9,0.3
					l1.2-0.3l0.4,1l-1,0.6c-0.3,0.1-0.4,0.4-0.4,0.7v0.1c0.1,0.5,0,1,0,1.5c-0.1,0.3,0.1,0.7,0.4,0.9l1,0.6l-0.4,0.9L42.6,28
					c-0.3-0.1-0.7,0-0.9,0.3c-0.3,0.4-0.6,0.7-1,0.9c-0.3,0.2-0.4,0.5-0.3,0.9l0.3,1.2l-1,0.4l-0.6-1.1c-0.2-0.3-0.5-0.5-0.8-0.4
					c-0.5,0.1-1,0.1-1.4,0c-0.3,0-0.6,0.1-0.8,0.4l-0.6,1l-0.9-0.4l0.3-1.2c0.1-0.3,0-0.7-0.3-0.9c-0.4-0.3-0.7-0.6-1-1
					c-0.2-0.3-0.5-0.4-0.9-0.3l-1.2,0.3l-0.4-0.9l1.1-0.6c0.3-0.2,0.5-0.5,0.4-0.8c-0.1-0.5-0.1-0.9,0-1.4c0.1-0.3-0.1-0.7-0.4-0.8
					l-1-0.6l0.4-1l1.2,0.3C32.9,22.1,33.3,22,33.5,21.8z"/>
				<path class="st2" d="M12.7,27.9c-0.4,0-0.8-0.1-1.2-0.2c-0.7-0.3-1.3-0.9-1.6-1.6s-0.3-1.6,0-2.3c0.7-1.5,2.4-2.2,3.9-1.6
					c1.5,0.7,2.2,2.4,1.6,3.9C15,27.2,13.9,27.9,12.7,27.9z"/>
			</g>
			<path class="st3" d="M15.9,32.8C15,33.1,14,33.3,13,33.3c-4.8,0-8.7-3.9-8.7-8.7s3.9-8.7,8.7-8.7c1,0,1.9,0.2,2.8,0.4"/>
			<path class="st3" d="M34.8,16.2c0.8-0.2,1.6-0.3,2.4-0.3c4.8,0,8.7,3.9,8.7,8.7s-3.2,8.4-8,8.4c-1.1,0-3.5-1-4.4-1.3l1.1,0.9"/>
		</g>
		<path class="st4" d="M34,43.9c1.5-1.7,2.1-4.3,2.1-6.2c0-0.8-0.1-1.6-0.3-2.4c-0.2-0.7-0.2-1.2-0.5-1.9c0.7,0.2,1.2,0.2,1.9,0.2
			c4.9,0,9-4,9-9c0-4.9-4-9-9-9c-0.5,0-1,0-1.4,0.1c0.2-0.7,0.3-1.4,0.4-2l0,0c0.3-4.6-2.6-8.3-2.7-8.4c-2.7-3.5-7-3.9-7.2-3.9
			c-0.6-0.1-1.1-0.1-1.7,0c-3.2,0.2-6.2,1.8-8.2,4.4s-2.7,5.9-2,9.1c0.1,0.3,0.1,0.7,0.2,1.1c-0.6-0.1-1.1-0.3-1.7-0.3
			c-4.9,0-9,4-9,9c0,4.9,4,9,9,9c0.6,0,1.2-0.1,1.8-0.2c-0.4,1-0.5,2-0.7,3c-0.3,3,0.5,5.9,2.4,8.2s4.5,3.8,7.5,4.1
			c0.4,0,0.7,0.1,1.1,0.1c0.2,0,0.4,0,0.6,0"/>
		<line class="st5" x1="16.1" y1="32.3" x2="13.8" y2="32.7"/>
		<polyline class="st3" points="36.7,16.2 34.1,17.6 35.1,16.5 		"/>
		<polyline class="st6" points="13.5,16.4 15.8,17 15.1,16.4 		"/>
	</g>
</g>
</svg>
