<?xml version="1.0" encoding="utf-8"?>
<!-- Generator: Adobe Illustrator 28.1.0, SVG Export Plug-In . SVG Version: 6.00 Build 0)  -->
<svg version="1.1" id="Layer_1" xmlns="http://www.w3.org/2000/svg" xmlns:xlink="http://www.w3.org/1999/xlink" x="0px" y="0px"
	 viewBox="0 0 50 50" style="enable-background:new 0 0 50 50;" xml:space="preserve">
<style type="text/css">
	.st0{fill:#DC5E82;}
	.st1{fill:#444444;}
	.st2{fill:none;stroke:#444444;stroke-width:0.5;stroke-miterlimit:10;}
	.st3{fill:none;stroke:#444444;stroke-width:0.5;stroke-linecap:round;stroke-linejoin:round;stroke-miterlimit:10;}
	.st4{fill:none;stroke:#444444;stroke-width:2.5;stroke-linecap:round;stroke-linejoin:round;stroke-miterlimit:10;}
	.st5{fill:none;stroke:#444444;stroke-linejoin:round;stroke-miterlimit:10;}
	.st6{fill:none;stroke:#444444;stroke-linecap:round;stroke-linejoin:round;stroke-miterlimit:10;}
</style>
<g>
	<path class="st0" d="M33.2,4.4l-9.5-3c-8.9,1.8-9,12.3-9,13.7l-5.9,1.3l-5,6.8l1.9,7.3c0.4,0.5,7.5,3.7,8.2,3.7l0.2,7l5.6,6.4
		l16.5-5.9l0.2-7.6c1.5-0.6,7.4-0.3,7.8-3.4l2.2-6.9l-3.1-6.2l-6.7-1.9C36.6,14.5,34.6,4.4,33.2,4.4z"/>
	<g>
		<g>
			<g>
				<path class="st1" d="M24.1,34.1c-1,0.4-1.8,1.2-2.2,2.1c-0.2,0.5-0.3,1-0.3,1.6c0,1.6,1,3.1,2.4,3.7c0.5,0.2,1,0.3,1.6,0.3
					c0.5,0,1-0.1,1.5-0.3c1-0.4,1.8-1.2,2.2-2.1c0.4-1,0.4-2.1,0-3.1c-0.4-1-1.2-1.8-2.1-2.2C26.1,33.7,25.1,33.7,24.1,34.1z
					 M28.3,36.7c0.3,0.7,0.3,1.6,0,2.3c-0.3,0.7-0.9,1.3-1.6,1.6c-0.7,0.3-1.6,0.3-2.3,0c-1.1-0.5-1.8-1.6-1.8-2.8
					c0-0.4,0.1-0.8,0.2-1.2c0.3-0.7,0.9-1.3,1.6-1.6c0.4-0.1,0.7-0.2,1.1-0.2c0.4,0,0.8,0.1,1.2,0.2C27.5,35.4,28,36,28.3,36.7z"/>
				<path class="st1" d="M33.8,44.3c1.4-1.9,2.1-4.1,2.1-6.3c0-0.8-0.1-1.6-0.3-2.3c-1-4.5-4.6-8.2-6.8-10.2l0.1-0.1
					c4.2-3.6,6.7-7.4,7-11.3c0.3-4.4-2.6-8.1-2.6-8.1c-2.5-3.3-6.8-3.7-6.8-3.7c-0.5-0.1-1.1-0.1-1.6,0c-3.1,0.2-5.9,1.7-7.8,4.2
					c-1.9,2.5-2.6,5.7-1.9,8.7c0.4,1.7,1.8,5.8,6.8,10.2L22,25.4c-4.2,3.6-6.5,7.4-7,11.3c-0.3,2.8,0.5,5.6,2.3,7.8
					c1.8,2.2,4.3,3.6,7.1,3.9l0.1-0.7c-2.6-0.3-5-1.6-6.7-3.7c-1.7-2.1-2.4-4.7-2.2-7.3c0.4-3.7,2.7-7.4,6.8-10.9l0.2-0.2
					c0.3,0.2,0.5,0.4,0.8,0.7c0.5,0.4,1,0.8,1.5,1.3l0.3,0.3c-0.9,0.8-1.8,1.6-2.3,2.2c0,0,0,0,0,0l-1.5,0.6c0,0,0,0,0,0
					c0,0,0,0,0,0c0,0,0,0,0,0c0,0,0,0,0,0c0,0,0,0,0,0c0,0,0,0,0,0c0,0,0,0,0,0c0,0,0,0,0,0c0,0,0,0,0,0c0,0,0,0,0,0c0,0,0,0,0,0
					c0,0,0,0,0,0c0,0,0,0,0,0c0,0,0,0,0,0c0,0,0,0,0,0c0,0,0,0,0,0l0.4,1.7c-0.4,0.3-0.7,0.6-1,0.9L19,33.3c-0.2,0-0.3,0-0.4,0.2
					l-1,2.3c-0.1,0.2,0,0.3,0.1,0.4l1.5,0.9c-0.1,0.4-0.1,0.9,0,1.3l-1.5,0.9c-0.1,0.1-0.2,0.3-0.1,0.4l0.9,2.3
					c0.1,0.2,0.2,0.2,0.4,0.2l1.7-0.4c0.3,0.3,0.5,0.6,0.9,0.9L21,44.3c0,0.2,0,0.3,0.2,0.4l2.3,1c0.2,0.1,0.3,0,0.4-0.1l0.9-1.5
					c0.4,0.1,0.9,0.1,1.3,0l0.9,1.5c0,0,0,0,0,0c0,0,0,0,0,0c0,0,0,0,0,0c0,0,0,0,0,0c0,0,0,0,0,0c0,0,0,0,0,0c0,0,0,0,0,0
					c0,0,0,0,0,0c0,0,0,0,0,0c0,0,0,0,0,0c0,0,0,0,0,0c0,0,0,0,0,0c0,0,0,0,0,0c0,0,0,0,0,0c0,0,0,0,0,0c0,0,0,0,0,0l2.3-0.9
					c0.1-0.1,0.2-0.2,0.2-0.4l-0.4-1.6c0.3-0.3,0.6-0.5,0.9-0.8l1.7,0.5c0.2,0,0.3,0,0.4-0.2l1-2.3c0.1-0.1,0-0.3-0.1-0.4l-1.4-0.9
					c0.1-0.5,0.1-1,0-1.5l1.4-0.8c0,0,0,0,0,0c0,0,0,0,0,0c0,0,0,0,0,0c0,0,0,0,0,0c0,0,0,0,0-0.1c0,0,0,0,0,0c0,0,0-0.1,0-0.1
					c0,0,0,0,0,0c0,0,0,0,0,0c0,0,0,0,0,0c0,0,0,0,0,0c0,0,0,0,0-0.1c0,0,0,0,0,0c0,0,0,0,0,0l-0.9-2.3c-0.1-0.2-0.2-0.2-0.4-0.2
					l-1.7,0.4c-0.3-0.3-0.5-0.6-0.9-0.9l0.4-1.7c0-0.2,0-0.3-0.2-0.4L28,30.1c-0.1-0.2-0.3-0.3-0.4-0.5c-0.6-0.8-1.2-1.5-2-2.2
					l-0.3-0.3c-0.5-0.5-1-0.9-1.6-1.4c-5.9-4.7-7.5-9.2-7.9-11c-0.6-2.8,0-5.8,1.8-8.1C19.4,4.4,22.1,3,25,2.8c0.5,0,1,0,1.5,0
					c0,0,1.7,0.3,3.5,1.2c5.8,2.9,5.3,9.9,5.3,9.9c-0.4,3.7-2.7,7.4-6.8,10.9l-0.2,0.2c-0.2-0.2-0.4-0.3-0.6-0.5
					c-0.7-0.6-1.4-1.2-2-1.8c0.7-0.6,1.4-1.3,2-1.9l1.9-0.7c0.2-0.1,0.2-0.2,0.2-0.4L29.5,18c0.3-0.3,0.6-0.5,0.9-0.8l1.7,0.5
					c0.2,0,0.3,0,0.4-0.2l1-2.3c0.1-0.1,0-0.3-0.1-0.4l-1.4-0.9c0.1-0.5,0.1-1,0-1.5l1.4-0.8c0,0,0,0,0,0c0,0,0,0,0,0c0,0,0,0,0,0
					c0,0,0,0,0,0c0,0,0,0,0-0.1c0,0,0,0,0,0c0,0,0-0.1,0-0.1c0,0,0,0,0,0c0,0,0,0,0,0c0,0,0,0,0,0c0,0,0,0,0,0c0,0,0,0,0-0.1
					c0,0,0,0,0,0c0,0,0,0,0,0l-0.9-2.3c-0.1-0.2-0.2-0.2-0.4-0.2L30.5,9c-0.3-0.3-0.5-0.6-0.9-0.9l0.4-1.7c0-0.2,0-0.3-0.2-0.4
					l-2.3-1c-0.1-0.1-0.3,0-0.4,0.1l-0.9,1.4c-0.4-0.1-0.9-0.1-1.3,0l-0.9-1.5c0,0,0,0,0,0c0,0,0,0,0,0c0,0,0,0,0,0c0,0,0,0,0,0
					c0,0,0,0,0,0c0,0,0,0,0,0c0,0,0,0,0,0c0,0,0,0,0,0c0,0,0,0,0,0c0,0,0,0,0,0c0,0,0,0,0,0c0,0,0,0,0,0c0,0,0,0,0,0c0,0,0,0,0,0
					c0,0,0,0,0,0c0,0,0,0,0,0L21.5,6c0,0,0,0,0,0c0,0,0,0,0,0c0,0,0,0,0,0c0,0,0,0,0,0c0,0,0,0,0,0c0,0,0,0,0,0c0,0,0,0,0,0
					c0,0,0,0,0,0c0,0,0,0,0,0c0,0,0,0,0,0c0,0,0,0,0,0c0,0,0,0,0,0c0,0,0,0,0,0c0,0,0,0,0,0c0,0,0,0,0,0c0,0,0,0,0,0L21.7,8
					c-0.4,0.3-0.7,0.6-1,0.9l-1.7-0.4c-0.2,0-0.3,0-0.4,0.2l-1,2.3c-0.1,0.1,0,0.3,0.1,0.4l1.5,0.9c-0.1,0.4-0.1,0.9,0,1.3l-1.5,0.9
					c-0.1,0.1-0.2,0.3-0.1,0.4l0.9,2.3c0.1,0.2,0.2,0.2,0.4,0.2l1.7-0.4c0.3,0.3,0.5,0.6,0.9,0.9L21,19.5c0,0.2,0,0.3,0.2,0.4
					l1.6,0.7c0.7,0.8,1.4,1.6,2.2,2.3l0.2,0.2c0.7,0.6,1.4,1.3,2.1,1.8c1.9,1.5,6.5,5.7,7.7,10.8c0.6,2.8,0,5.8-1.8,8.1L33.8,44.3z
					 M22.4,17c-0.4-0.3-0.7-0.6-0.9-1c-0.2-0.3-0.5-0.4-0.9-0.3L19.3,16l-0.4-1l1.1-0.6c0.3-0.2,0.5-0.5,0.4-0.8c-0.1-0.5,0-1,0-1.4
					c0.1-0.3-0.1-0.7-0.4-0.8l-1-0.6l0.4-0.9l1.2,0.3c0.3,0.1,0.7,0,0.9-0.3c0.3-0.4,0.7-0.7,1.1-1c0.3-0.2,0.4-0.5,0.3-0.9
					l-0.3-1.2l0.9-0.4l0.6,1.1c0.2,0.3,0.5,0.5,0.8,0.4c0.5-0.1,0.9,0,1.4,0c0.3,0.1,0.7-0.1,0.8-0.4l0.6-1l0.9,0.4l-0.3,1.2
					c-0.1,0.3,0,0.7,0.3,0.9c0.4,0.3,0.7,0.6,0.9,1c0.2,0.3,0.5,0.4,0.8,0.3l1.2-0.3l0.4,1l-1,0.6c-0.3,0.2-0.5,0.5-0.4,0.8
					c0.1,0.5,0.1,1.1,0,1.6c-0.1,0.3,0.1,0.7,0.4,0.8l1,0.6l-0.4,0.9L30.5,16c-0.3-0.1-0.7,0-0.9,0.3c-0.3,0.3-0.6,0.7-1,0.9
					c-0.3,0.2-0.4,0.5-0.3,0.9l0.3,1.2l-1,0.4l-0.6-1c-0.1-0.3-0.4-0.4-0.7-0.4c0,0-0.1,0-0.1,0c-0.5,0.1-1,0-1.5,0
					c-0.3-0.1-0.7,0.1-0.9,0.4l-0.6,1l-0.9-0.4l0.3-1.2C22.7,17.6,22.6,17.2,22.4,17z M23.9,20.7l0.9-1.5c0.4,0.1,0.9,0.1,1.3,0
					l0.8,1.4c-0.5,0.5-1.1,1.1-1.6,1.5C24.8,21.7,24.3,21.3,23.9,20.7C23.9,20.7,23.9,20.7,23.9,20.7z M28.7,33.7
					c0.4,0.3,0.7,0.6,0.9,1c0.2,0.3,0.5,0.4,0.8,0.3l1.2-0.3l0.4,1l-1,0.6c-0.3,0.2-0.5,0.5-0.4,0.8c0.1,0.5,0.1,1.1,0,1.6
					c-0.1,0.3,0.1,0.7,0.4,0.8l1,0.6l-0.4,0.9l-1.2-0.3c-0.3-0.1-0.7,0-0.9,0.3c-0.3,0.4-0.6,0.7-1,0.9c-0.3,0.2-0.4,0.5-0.3,0.9
					l0.3,1.2l-1,0.4l-0.6-1c-0.1-0.3-0.4-0.4-0.7-0.4c0,0-0.1,0-0.1,0c-0.5,0.1-1,0-1.5,0c-0.3-0.1-0.7,0.1-0.9,0.4l-0.6,1l-0.9-0.4
					l0.3-1.2c0.1-0.3,0-0.7-0.3-0.9c-0.4-0.3-0.7-0.6-0.9-1c-0.2-0.3-0.5-0.4-0.9-0.3l-1.2,0.3l-0.4-1l1.1-0.6
					c0.3-0.2,0.5-0.5,0.4-0.8c-0.1-0.5-0.1-1,0-1.4c0-0.3-0.1-0.6-0.4-0.8l-1-0.6l0.4-0.9l1.2,0.3c0.3,0.1,0.7,0,0.9-0.3
					c0.3-0.4,0.6-0.7,1-1c0.3-0.2,0.4-0.5,0.3-0.9l-0.3-1.2l0.9-0.4l0.6,1.1c0.2,0.3,0.5,0.5,0.8,0.4c0.5-0.1,0.9-0.1,1.4,0
					c0.3,0.1,0.7-0.1,0.8-0.4l0.6-1l1,0.4l-0.3,1.2C28.3,33.2,28.5,33.5,28.7,33.7z M26.3,31.5c-0.4,0-0.9-0.1-1.3,0L24.1,30
					c0,0,0,0,0,0c0,0,0,0,0,0c0,0,0,0,0,0c0,0,0,0,0,0c0.5-0.5,1.1-1,1.6-1.5c0.5,0.5,0.9,1.1,1.4,1.7c0,0,0,0,0,0L26.3,31.5z"/>
				<path class="st1" d="M25.6,17c1.5,0,3-0.9,3.7-2.4c0.9-2-0.1-4.4-2.1-5.3c-1-0.4-2.1-0.4-3.1,0c-1,0.4-1.8,1.1-2.2,2.1
					c-0.2,0.5-0.3,1-0.3,1.6c0,1.6,0.9,3,2.4,3.7C24.5,16.9,25.1,17,25.6,17z M22.6,13c0-0.4,0.1-0.8,0.2-1.2
					c0.3-0.7,0.9-1.3,1.6-1.6c0.7-0.3,1.6-0.3,2.3,0c1.5,0.7,2.2,2.4,1.6,3.9c-0.7,1.5-2.4,2.2-3.9,1.6C23.3,15.3,22.6,14.2,22.6,13
					z"/>
			</g>
			<g>
				<path class="st2" d="M36.8,22.5c0.7-0.3,1.6-0.3,2.3,0c0.7,0.3,1.3,0.9,1.6,1.6c0.3,0.7,0.3,1.6,0,2.3c-0.5,1.1-1.6,1.8-2.8,1.8
					c-0.4,0-0.8-0.1-1.2-0.2c-0.7-0.3-1.3-0.9-1.6-1.6c-0.1-0.4-0.2-0.7-0.2-1.1c0-0.4,0.1-0.8,0.2-1.2
					C35.5,23.3,36.1,22.8,36.8,22.5z"/>
				<path class="st3" d="M17.2,28.4c-0.3,0.4-0.6,0.7-1,0.9c-0.3,0.2-0.4,0.5-0.3,0.9l0.3,1.2l-1,0.4l-0.6-1.1
					c-0.2-0.3-0.5-0.5-0.8-0.4c-0.5,0.1-1,0-1.4,0c-0.3-0.1-0.7,0.1-0.8,0.4l-0.6,1l-0.9-0.4l0.3-1.2c0.1-0.3,0-0.7-0.3-0.9
					c-0.4-0.3-0.7-0.7-1-1.1c-0.2-0.3-0.5-0.4-0.9-0.3l-1.2,0.3l-0.4-0.9l1.1-0.6C7.9,26.5,8,26.2,8,25.8c-0.1-0.5,0-0.9,0-1.4
					c0.1-0.3-0.1-0.7-0.4-0.8l-1-0.6L7,22l1.2,0.3c0.3,0.1,0.7,0,0.9-0.3c0.3-0.4,0.6-0.7,1-0.9c0.3-0.2,0.4-0.5,0.3-0.8L10.1,19
					l1-0.4l0.6,1c0.2,0.3,0.5,0.5,0.8,0.4c0.5-0.1,1.1-0.1,1.6,0c0.3,0.1,0.7-0.1,0.8-0.4l0.6-1l0.9,0.4l-0.3,1.2
					c-0.1,0.3,0,0.7,0.3,0.9c0.3,0.3,0.7,0.6,0.9,1c0.2,0.3,0.5,0.4,0.9,0.3l1.2-0.3l0.4,1l-1,0.6c-0.3,0.1-0.4,0.4-0.4,0.7
					c0,0,0,0.1,0,0.1c0.1,0.5,0,1,0,1.5c-0.1,0.3,0.1,0.7,0.4,0.9l1,0.6l-0.4,0.9L18,28.1C17.7,28.1,17.4,28.2,17.2,28.4z
					 M33.9,22.1c0.3-0.4,0.6-0.7,1-0.9c0.3-0.2,0.4-0.5,0.3-0.8l-0.3-1.2l1-0.4l0.6,1c0.2,0.3,0.5,0.5,0.8,0.4
					c0.5-0.1,1.1-0.1,1.6,0c0.3,0.1,0.7-0.1,0.8-0.4l0.6-1l0.9,0.4l-0.3,1.2c-0.1,0.3,0,0.7,0.3,0.9c0.4,0.3,0.7,0.6,0.9,1
					c0.2,0.3,0.5,0.4,0.9,0.3l1.2-0.3l0.4,1l-1,0.6c-0.3,0.1-0.4,0.4-0.4,0.7c0,0,0,0.1,0,0.1c0.1,0.5,0,1,0,1.5
					c-0.1,0.3,0.1,0.7,0.4,0.9l1,0.6l-0.4,0.9l-1.2-0.3c-0.3-0.1-0.7,0-0.9,0.3c-0.3,0.4-0.6,0.7-1,0.9c-0.3,0.2-0.4,0.5-0.3,0.9
					l0.3,1.2l-1,0.4l-0.6-1.1c-0.2-0.3-0.5-0.5-0.8-0.4c-0.5,0.1-1,0.1-1.4,0c-0.3,0-0.6,0.1-0.8,0.4l-0.6,1l-0.9-0.4l0.3-1.2
					c0.1-0.3,0-0.7-0.3-0.9c-0.4-0.3-0.7-0.6-1-1c-0.2-0.3-0.5-0.4-0.9-0.3l-1.2,0.3l-0.4-0.9l1.1-0.6c0.3-0.2,0.5-0.5,0.4-0.8
					c-0.1-0.5-0.1-0.9,0-1.4c0.1-0.3-0.1-0.7-0.4-0.8l-1-0.6l0.4-1l1.2,0.3C33.3,22.4,33.7,22.3,33.9,22.1z"/>
				<path class="st2" d="M13.1,28.2c-0.4,0-0.8-0.1-1.2-0.2c-0.7-0.3-1.3-0.9-1.6-1.6c-0.3-0.7-0.3-1.6,0-2.3
					c0.7-1.5,2.4-2.2,3.9-1.6c1.5,0.7,2.2,2.4,1.6,3.9C15.4,27.5,14.3,28.2,13.1,28.2z"/>
			</g>
			<path class="st3" d="M16.3,33.1c-0.9,0.3-1.9,0.5-2.9,0.5c-4.8,0-8.7-3.9-8.7-8.7s3.9-8.7,8.7-8.7c1,0,1.9,0.2,2.8,0.4"/>
			<path class="st3" d="M35.2,16.5c0.8-0.2,1.6-0.3,2.4-0.3c4.8,0,8.7,3.9,8.7,8.7s-3.2,8.4-8,8.4c-1.1,0-3.5-1-4.4-1.3l1.1,0.9"/>
		</g>
		<path class="st4" d="M34.4,44.2c1.5-1.7,2.1-4.3,2.1-6.2c0-0.8-0.1-1.6-0.3-2.4c-0.2-0.7-0.2-1.2-0.5-1.9c0.7,0.2,1.2,0.2,1.9,0.2
			c4.9,0,9-4,9-9c0-4.9-4-9-9-9c-0.5,0-1,0-1.4,0.1c0.2-0.7,0.3-1.4,0.4-2v0c0.3-4.6-2.6-8.3-2.7-8.4c-2.7-3.5-7-3.9-7.2-3.9
			c-0.6-0.1-1.1-0.1-1.7,0c-3.2,0.2-6.2,1.8-8.2,4.4c-2,2.6-2.7,5.9-2,9.1c0.1,0.3,0.1,0.7,0.2,1.1c-0.6-0.1-1.1-0.3-1.7-0.3
			c-4.9,0-9,4-9,9c0,4.9,4,9,9,9c0.6,0,1.2-0.1,1.8-0.2c-0.4,1-0.5,2-0.7,3c-0.3,3,0.5,5.9,2.4,8.2c1.9,2.3,4.5,3.8,7.5,4.1
			c0.4,0,0.7,0.1,1.1,0.1c0.2,0,0.4,0,0.6,0"/>
		<line class="st5" x1="16.5" y1="32.6" x2="14.2" y2="33"/>
		<polyline class="st3" points="37.1,16.5 34.5,17.9 35.5,16.8 		"/>
		<polyline class="st6" points="13.9,16.7 16.2,17.3 15.5,16.7 		"/>
	</g>
</g>
</svg>
