<svg xmlns="http://www.w3.org/2000/svg" id="Layer_1" x="0" y="0" version="1.1" viewBox="0 0 50 50" xml:space="preserve"><style>.st1{fill:#444}.st2,.st3{fill:none;stroke:#444;stroke-width:.5;stroke-miterlimit:10}.st3{stroke-linecap:round;stroke-linejoin:round}</style><path fill="#dc5e82" d="M33.2 4.4l-9.5-3c-8.9 1.8-9 12.3-9 13.7l-5.9 1.3-5 6.8 1.9 7.3c.4.5 7.5 3.7 8.2 3.7l.2 7 5.6 6.4 16.5-5.9.2-7.6c1.5-.6 7.4-.3 7.8-3.4l2.2-6.9-3.1-6.2-6.7-1.9c0-1.2-2-11.3-3.4-11.3z"/><path d="M24.1 34.1c-1 .4-1.8 1.2-2.2 2.1-.2.5-.3 1-.3 1.6 0 1.6 1 3.1 2.4 3.7.5.2 1 .3 1.6.3.5 0 1-.1 1.5-.3 1-.4 1.8-1.2 2.2-2.1.4-1 .4-2.1 0-3.1s-1.2-1.8-2.1-2.2c-1.1-.4-2.1-.4-3.1 0zm4.2 2.6c.3.7.3 1.6 0 2.3-.3.7-.9 1.3-1.6 1.6-.7.3-1.6.3-2.3 0-1.1-.5-1.8-1.6-1.8-2.8 0-.4.1-.8.2-1.2.3-.7.9-1.3 1.6-1.6.4-.1.7-.2 1.1-.2.4 0 .8.1 1.2.2.8.4 1.3 1 1.6 1.7z" class="st1"/><path d="M33.8 44.3c1.4-1.9 2.1-4.1 2.1-6.3 0-.8-.1-1.6-.3-2.3-1-4.5-4.6-8.2-6.8-10.2l.1-.1c4.2-3.6 6.7-7.4 7-11.3.3-4.4-2.6-8.1-2.6-8.1-2.5-3.3-6.8-3.7-6.8-3.7-.5-.1-1.1-.1-1.6 0-3.1.2-5.9 1.7-7.8 4.2-1.9 2.5-2.6 5.7-1.9 8.7.4 1.7 1.8 5.8 6.8 10.2-4.2 3.6-6.5 7.4-7 11.3-.3 2.8.5 5.6 2.3 7.8 1.8 2.2 4.3 3.6 7.1 3.9l.1-.7c-2.6-.3-5-1.6-6.7-3.7-1.7-2.1-2.4-4.7-2.2-7.3.4-3.7 2.7-7.4 6.8-10.9l.2-.2c.3.2.5.4.8.7.5.4 1 .8 1.5 1.3l.3.3c-.9.8-1.8 1.6-2.3 2.2l-1.5.6.4 1.7c-.4.3-.7.6-1 .9H19c-.2 0-.3 0-.4.2l-1 2.3c-.1.2 0 .3.1.4l1.5.9c-.1.4-.1.9 0 1.3l-1.5.9c-.1.1-.2.3-.1.4l.9 2.3c.1.2.2.2.4.2l1.7-.4c.3.3.5.6.9.9l-.5 1.6c0 .2 0 .3.2.4l2.3 1c.2.1.3 0 .4-.1l.9-1.5c.4.1.9.1 1.3 0l.9 1.5 2.3-.9c.1-.1.2-.2.2-.4l-.4-1.6c.3-.3.6-.5.9-.8l1.7.5c.2 0 .3 0 .4-.2l1-2.3c.1-.1 0-.3-.1-.4l-1.4-.9c.1-.5.1-1 0-1.5l1.4-.8V36l-.9-2.3c-.1-.2-.2-.2-.4-.2l-1.7.4c-.3-.3-.5-.6-.9-.9l.4-1.7c0-.2 0-.3-.2-.4l-1.3-.8c-.1-.2-.3-.3-.4-.5-.6-.8-1.2-1.5-2-2.2l-.3-.3c-.5-.5-1-.9-1.6-1.4-5.9-4.7-7.5-9.2-7.9-11-.6-2.8 0-5.8 1.8-8.1C19.4 4.4 22.1 3 25 2.8h1.5s1.7.3 3.5 1.2c5.8 2.9 5.3 9.9 5.3 9.9-.4 3.7-2.7 7.4-6.8 10.9l-.2.2c-.2-.2-.4-.3-.6-.5-.7-.6-1.4-1.2-2-1.8.7-.6 1.4-1.3 2-1.9l1.9-.7c.2-.1.2-.2.2-.4l-.3-1.7c.3-.3.6-.5.9-.8l1.7.5c.2 0 .3 0 .4-.2l1-2.3c.1-.1 0-.3-.1-.4l-1.4-.9c.1-.5.1-1 0-1.5l1.4-.8V11.3L32.5 9c-.1-.2-.2-.2-.4-.2l-1.6.2c-.3-.3-.5-.6-.9-.9l.4-1.7c0-.2 0-.3-.2-.4l-2.3-1c-.1-.1-.3 0-.4.1l-.9 1.4c-.4-.1-.9-.1-1.3 0L24 5l-2.5 1 .2 2c-.4.3-.7.6-1 .9L19 8.5c-.2 0-.3 0-.4.2l-1 2.3c-.1.1 0 .3.1.4l1.5.9c-.1.4-.1.9 0 1.3l-1.5.9c-.1.1-.2.3-.1.4l.9 2.3c.1.2.2.2.4.2l1.7-.4c.3.3.5.6.9.9l-.5 1.6c0 .2 0 .3.2.4l1.6.7c.7.8 1.4 1.6 2.2 2.3l.2.2c.7.6 1.4 1.3 2.1 1.8 1.9 1.5 6.5 5.7 7.7 10.8.6 2.8 0 5.8-1.8 8.1l.6.5zM22.4 17c-.4-.3-.7-.6-.9-1-.2-.3-.5-.4-.9-.3l-1.3.3-.4-1 1.1-.6c.3-.2.5-.5.4-.8-.1-.5 0-1 0-1.4.1-.3-.1-.7-.4-.8l-1-.6.4-.9 1.2.3c.3.1.7 0 .9-.3.3-.4.7-.7 1.1-1 .3-.2.4-.5.3-.9l-.3-1.2.9-.4.6 1.1c.2.3.5.5.8.4.5-.1.9 0 1.4 0 .3.1.7-.1.8-.4l.6-1 .9.4-.3 1.2c-.1.3 0 .7.3.9.4.3.7.6.9 1 .2.3.5.4.8.3l1.2-.3.4 1-1 .6c-.3.2-.5.5-.4.8.1.5.1 1.1 0 1.6-.1.3.1.7.4.8l1 .6-.4.9-1-.3c-.3-.1-.7 0-.9.3-.3.3-.6.7-1 .9-.3.2-.4.5-.3.9l.3 1.2-1 .4-.6-1c-.1-.3-.4-.4-.7-.4h-.1c-.5.1-1 0-1.5 0-.3-.1-.7.1-.9.4l-.6 1-.9-.4.3-1.2c.1-.5 0-.9-.2-1.1zm1.5 3.7l.9-1.5c.4.1.9.1 1.3 0l.8 1.4c-.5.5-1.1 1.1-1.6 1.5-.5-.4-1-.8-1.4-1.4zm4.8 13c.4.3.7.6.9 1 .2.3.5.4.8.3l1.2-.3.4 1-1 .6c-.3.2-.5.5-.4.8.1.5.1 1.1 0 1.6-.1.3.1.7.4.8l1 .6-.4.9-1.2-.3c-.3-.1-.7 0-.9.3-.3.4-.6.7-1 .9-.3.2-.4.5-.3.9l.3 1.2-1 .4-.6-1c-.1-.3-.4-.4-.7-.4h-.1c-.5.1-1 0-1.5 0-.3-.1-.7.1-.9.4l-.6 1-.9-.4.3-1.2c.1-.3 0-.7-.3-.9-.4-.3-.7-.6-.9-1-.2-.3-.5-.4-.9-.3l-1.2.3-.4-1 1.1-.6c.3-.2.5-.5.4-.8-.1-.5-.1-1 0-1.4 0-.3-.1-.6-.4-.8l-1-.6.4-.9 1.2.3c.3.1.7 0 .9-.3.3-.4.6-.7 1-1 .3-.2.4-.5.3-.9l-.3-1.2.9-.4.6 1.1c.2.3.5.5.8.4.5-.1.9-.1 1.4 0 .3.1.7-.1.8-.4l.6-1 1 .4-.3 1.2c.1.2.3.5.5.7zm-2.4-2.2c-.4 0-.9-.1-1.3 0l-.9-1.5c.5-.5 1.1-1 1.6-1.5.5.5.9 1.1 1.4 1.7l-.8 1.3z" class="st1"/><path d="M25.6 17c1.5 0 3-.9 3.7-2.4.9-2-.1-4.4-2.1-5.3-1-.4-2.1-.4-3.1 0s-1.8 1.1-2.2 2.1c-.2.5-.3 1-.3 1.6 0 1.6.9 3 2.4 3.7.5.2 1.1.3 1.6.3zm-3-4c0-.4.1-.8.2-1.2.3-.7.9-1.3 1.6-1.6.7-.3 1.6-.3 2.3 0 1.5.7 2.2 2.4 1.6 3.9-.7 1.5-2.4 2.2-3.9 1.6-1.1-.4-1.8-1.5-1.8-2.7z" class="st1"/><path d="M36.8 22.5c.7-.3 1.6-.3 2.3 0 .7.3 1.3.9 1.6 1.6.3.7.3 1.6 0 2.3-.5 1.1-1.6 1.8-2.8 1.8-.4 0-.8-.1-1.2-.2-.7-.3-1.3-.9-1.6-1.6-.1-.4-.2-.7-.2-1.1 0-.4.1-.8.2-1.2.4-.8 1-1.3 1.7-1.6z" class="st2"/><path d="M17.2 28.4c-.3.4-.6.7-1 .9-.3.2-.4.5-.3.9l.3 1.2-1 .4-.6-1.1c-.2-.3-.5-.5-.8-.4-.5.1-1 0-1.4 0-.3-.1-.7.1-.8.4l-.6 1-.9-.4.3-1.2c.1-.3 0-.7-.3-.9-.4-.3-.7-.7-1-1.1-.2-.3-.5-.4-.9-.3l-1.2.3-.4-.9 1.1-.6c.2-.1.3-.4.3-.8-.1-.5 0-.9 0-1.4.1-.3-.1-.7-.4-.8l-1-.6.4-1 1.2.3c.3.1.7 0 .9-.3.3-.4.6-.7 1-.9.3-.2.4-.5.3-.8l-.3-1.3 1-.4.6 1c.2.3.5.5.8.4.5-.1 1.1-.1 1.6 0 .3.1.7-.1.8-.4l.6-1 .9.4-.3 1.2c-.1.3 0 .7.3.9.3.3.7.6.9 1 .2.3.5.4.9.3l1.2-.3.4 1-1 .6c-.3.1-.4.4-.4.7v.1c.1.5 0 1 0 1.5-.1.3.1.7.4.9l1 .6-.4.9-1.4-.3c-.3 0-.6.1-.8.3zm16.7-6.3c.3-.4.6-.7 1-.9.3-.2.4-.5.3-.8l-.3-1.2 1-.4.6 1c.2.3.5.5.8.4.5-.1 1.1-.1 1.6 0 .3.1.7-.1.8-.4l.6-1 .9.4-.3 1.2c-.1.3 0 .7.3.9.4.3.7.6.9 1 .2.3.5.4.9.3l1.2-.3.4 1-1 .6c-.3.1-.4.4-.4.7v.1c.1.5 0 1 0 1.5-.1.3.1.7.4.9l1 .6-.4.9-1.2-.3c-.3-.1-.7 0-.9.3-.3.4-.6.7-1 .9-.3.2-.4.5-.3.9l.3 1.2-1 .4-.6-1.1c-.2-.3-.5-.5-.8-.4-.5.1-1 .1-1.4 0-.3 0-.6.1-.8.4l-.6 1-.9-.4.3-1.2c.1-.3 0-.7-.3-.9-.4-.3-.7-.6-1-1-.2-.3-.5-.4-.9-.3l-1.2.3-.4-.9 1.1-.6c.3-.2.5-.5.4-.8-.1-.5-.1-.9 0-1.4.1-.3-.1-.7-.4-.8l-1-.6.4-1 1.2.3c.1-.2.5-.3.7-.5z" class="st3"/><path d="M13.1 28.2c-.4 0-.8-.1-1.2-.2-.7-.3-1.3-.9-1.6-1.6-.3-.7-.3-1.6 0-2.3.7-1.5 2.4-2.2 3.9-1.6 1.5.7 2.2 2.4 1.6 3.9-.4 1.1-1.5 1.8-2.7 1.8z" class="st2"/><path d="M16.3 33.1c-.9.3-1.9.5-2.9.5-4.8 0-8.7-3.9-8.7-8.7s3.9-8.7 8.7-8.7c1 0 1.9.2 2.8.4m19-.1c.8-.2 1.6-.3 2.4-.3 4.8 0 8.7 3.9 8.7 8.7s-3.2 8.4-8 8.4c-1.1 0-3.5-1-4.4-1.3l1.1.9" class="st3"/><path fill="none" stroke="#444" stroke-linecap="round" stroke-linejoin="round" stroke-miterlimit="10" stroke-width="2.5" d="M34.4 44.2c1.5-1.7 2.1-4.3 2.1-6.2 0-.8-.1-1.6-.3-2.4-.2-.7-.2-1.2-.5-1.9.7.2 1.2.2 1.9.2 4.9 0 9-4 9-9 0-4.9-4-9-9-9-.5 0-1 0-1.4.1.2-.7.3-1.4.4-2v0c.3-4.6-2.6-8.3-2.7-8.4-2.7-3.5-7-3.9-7.2-3.9-.6-.1-1.1-.1-1.7 0-3.2.2-6.2 1.8-8.2 4.4-2 2.6-2.7 5.9-2 9.1.1.3.1.7.2 1.1-.6-.1-1.1-.3-1.7-.3-4.9 0-9 4-9 9 0 4.9 4 9 9 9 .6 0 1.2-.1 1.8-.2-.4 1-.5 2-.7 3-.3 3 .5 5.9 2.4 8.2 1.9 2.3 4.5 3.8 7.5 4.1.4 0 .7.1 1.1.1h.6"/><path fill="none" stroke="#444" stroke-linejoin="round" stroke-miterlimit="10" d="M16.5 32.6l-2.3.4"/><path d="M37.1 16.5l-2.6 1.4 1-1.1" class="st3"/><path fill="none" stroke="#444" stroke-linecap="round" stroke-linejoin="round" stroke-miterlimit="10" d="M13.9 16.7l2.3.6-.7-.6"/></svg>