<svg xmlns="http://www.w3.org/2000/svg" id="Layer_1" x="0" y="0" version="1.1" viewBox="0 0 50 50" xml:space="preserve"><style>.st0{fill:#dc5e82}</style><path d="M39.4 24.6c-.1-.1-.2-.2-.3-.2H11.4c-.1 0-.3.1-.3.2l-4.7 9.6c-.1.2 0 .3 0 .4 0 .1.1.2.3.2h10.8l22.8-8.3-.9-1.9z" class="st0"/><path fill="#f56991" d="M37.6 1.8H12.9c-1.4 0-2.4 1.1-2.4 2.4v7.2c0 1.1.8 2 1.8 2.3l27.6-10c-.2-1.1-1.2-1.9-2.3-1.9z"/><path d="M37.6 13.9c1.4 0 2.4-1.1 2.4-2.4V4.2c0-.2 0-.4-.1-.5L12.3 13.8c.2.1.4.1.7.1h24.6z" class="st0"/><path fill="#031326" d="M45 33.6L40.3 24c-.3-.6-.8-.9-1.5-.9h-3.1v-8h1.9c2 0 3.7-1.7 3.7-3.7V4.2c0-2-1.7-3.7-3.7-3.7H12.9c-2 0-3.7 1.7-3.7 3.7v7.2c0 2 1.7 3.7 3.7 3.7h1.9v8h-3.6c-.6 0-1.2.3-1.5.9L5 33.6c-.3.5-.2 1.1.1 1.6.3.5.8.8 1.4.8h2.9c.1 0 .1.1.2.1L22 41.3 9.9 47.1c-.6.3-.9 1-.6 1.7.2.4.7.7 1.1.7.2 0 .4 0 .5-.1L25 42.6l14.4 6c.2.1.3.1.5.1.5 0 1-.3 1.2-.8.3-.6 0-1.4-.7-1.6L28 41.1l10.5-5c.1 0 .1-.1.1-.1h4.9c.6 0 1.1-.3 1.4-.8.3-.5.3-1.1.1-1.6zm-32.1-21c-.7 0-1.2-.5-1.2-1.2V4.2c0-.7.5-1.2 1.2-1.2h24.6c.7 0 1.2.5 1.2 1.2v7.2c0 .7-.5 1.2-1.2 1.2H12.9zm20.3 2.5v8H17.3v-8h15.9zM25 39.8L15.8 36H33l-8 3.8zM7.9 33.5l3.9-7.8h26.5l3.9 7.8H7.9z"/></svg>