<?xml version="1.0" encoding="utf-8"?>
<!-- Generator: Adobe Illustrator 22.1.0, SVG Export Plug-In . SVG Version: 6.00 Build 0)  -->
<svg version="1.1" id="Layer_1" xmlns="http://www.w3.org/2000/svg" xmlns:xlink="http://www.w3.org/1999/xlink" x="0px" y="0px"
	 viewBox="0 0 50 50" style="enable-background:new 0 0 50 50;" xml:space="preserve">
<style type="text/css">
	.st0{fill:#DC5E82;}
	.st1{fill:#F56991;}
	.st2{fill:#031326;}
	.st3{fill:none;stroke:#031326;stroke-width:2.5;stroke-linecap:round;stroke-miterlimit:10;}
</style>
<g>
	<g>
		<path class="st0" d="M39.4,24.6c-0.1-0.1-0.2-0.2-0.3-0.2H11.4c-0.1,0-0.3,0.1-0.3,0.2l-4.7,9.6c-0.1,0.2,0,0.3,0,0.4
			c0,0.1,0.1,0.2,0.3,0.2h10.8l22.8-8.3L39.4,24.6z"/>
	</g>
	<g>
		<path class="st1" d="M37.6,1.8H12.9c-1.4,0-2.4,1.1-2.4,2.4v7.2c0,1.1,0.8,2,1.8,2.3L39.9,3.7C39.7,2.6,38.7,1.8,37.6,1.8z"/>
	</g>
	<g>
		<path class="st0" d="M37.6,13.9c1.4,0,2.4-1.1,2.4-2.4V4.2c0-0.2,0-0.4-0.1-0.5L12.3,13.8c0.2,0.1,0.4,0.1,0.7,0.1H37.6z"/>
	</g>
	<path class="st2" d="M45,33.6L40.3,24c-0.3-0.6-0.8-0.9-1.5-0.9h-3.1v-8h1.9c2,0,3.7-1.7,3.7-3.7V4.2c0-2-1.7-3.7-3.7-3.7H12.9
		c-2,0-3.7,1.7-3.7,3.7v7.2c0,2,1.7,3.7,3.7,3.7h1.9v8h-3.6c-0.6,0-1.2,0.3-1.5,0.9L5,33.6c-0.3,0.5-0.2,1.1,0.1,1.6
		C5.4,35.7,5.9,36,6.5,36h2.9c0.1,0,0.1,0.1,0.2,0.1L22,41.3L9.9,47.1c-0.6,0.3-0.9,1-0.6,1.7c0.2,0.4,0.7,0.7,1.1,0.7
		c0.2,0,0.4,0,0.5-0.1L25,42.6l14.4,6c0.2,0.1,0.3,0.1,0.5,0.1c0.5,0,1-0.3,1.2-0.8c0.3-0.6,0-1.4-0.7-1.6L28,41.1l10.5-5
		c0.1,0,0.1-0.1,0.1-0.1h4.9c0.6,0,1.1-0.3,1.4-0.8C45.2,34.7,45.2,34.1,45,33.6z M12.9,12.6c-0.7,0-1.2-0.5-1.2-1.2V4.2
		c0-0.7,0.5-1.2,1.2-1.2h24.6c0.7,0,1.2,0.5,1.2,1.2v7.2c0,0.7-0.5,1.2-1.2,1.2H12.9z M33.2,15.1v8H17.3v-8H33.2z M25,39.8L15.8,36
		H33L25,39.8z M7.9,33.5l3.9-7.8h26.5l3.9,7.8H7.9z"/>
	<g>
		<path class="st3" d="M38.2,34.7"/>
	</g>
</g>
</svg>
