<?xml version="1.0" encoding="utf-8"?>
<!-- Generator: Adobe Illustrator 26.5.0, SVG Export Plug-In . SVG Version: 6.00 Build 0)  -->
<svg version="1.1" id="Layer_1" xmlns="http://www.w3.org/2000/svg" xmlns:xlink="http://www.w3.org/1999/xlink" x="0px" y="0px"
	 viewBox="0 0 50 50" style="enable-background:new 0 0 50 50;" xml:space="preserve">
<style type="text/css">
	.st0{fill:#46B8B0;}
	.st1{fill:#4ECDC4;}
	.st2{fill:#444444;}
</style>
<path class="st0" d="M47.9,24.79c0-5.5-2-10.6-5.3-14.6L2.1,24.99c0.1,8.4,4.6,15.7,11.3,19.6l33.1-12.1
	C47.4,30.09,47.9,27.49,47.9,24.79z"/>
<path class="st1" d="M25.1,1.49c-13.1,0-23.7,10.6-23.7,23.7c0,0.1,0,0.1,0,0.2l41.9-15.2C39,4.89,32.4,1.49,25.1,1.49z"/>
<g>
	<path class="st2" d="M22.1,12.09h4.2v19.2c-2.1,0.4-3.7,0.6-5.4,0.6c-5.1,0-7.7-2.3-7.7-6.7c0-4.2,2.8-7,7.2-7
		c0.7,0,1.2,0.1,1.8,0.2C22.1,18.39,22.1,12.09,22.1,12.09z M22.1,21.79c-0.5-0.2-0.9-0.2-1.4-0.2c-2.1,0-3.3,1.3-3.3,3.6
		c0,2.2,1.2,3.4,3.3,3.4c0.5,0,0.8,0,1.4-0.1V21.79z"/>
</g>
<g>
	<path class="st2" d="M32.9,18.49v9.6c0,3.3-0.2,4.9-1,6.3c-0.7,1.3-1.6,2.2-3.4,3.1l-3.9-1.8c1.8-0.9,2.7-1.6,3.3-2.8
		c0.6-1.2,0.8-2.6,0.8-6.2v-8.2H32.9z M28.7,12.09h4.2v4.3h-4.2V12.09z"/>
</g>
<path class="st2" d="M25,48.99c-13.3,0-24.2-10.9-24.2-24.2S11.7,0.59,25,0.59s24.2,10.8,24.2,24.2c0,3.3-0.6,6.4-1.9,9.4
	c-0.3,0.6-1,0.9-1.6,0.7c-0.6-0.3-0.9-1-0.7-1.6c1.1-2.7,1.7-5.5,1.7-8.4c0-11.9-9.7-21.7-21.7-21.7s-21.7,9.7-21.7,21.6
	s9.8,21.7,21.7,21.7c4.3,0,8.5-1.3,12.1-3.7c0.6-0.4,1.3-0.2,1.7,0.3c0.4,0.6,0.2,1.3-0.3,1.7C34.5,47.49,29.8,48.99,25,48.99z"/>
<path class="st2" d="M25,44.59c-10.9,0-19.8-8.9-19.8-19.8S14.1,4.99,25,4.99s19.8,8.9,19.8,19.8S35.9,44.59,25,44.59z M25,5.79
	c-10.5,0-19,8.5-19,19s8.5,19,19,19s19-8.5,19-19S35.5,5.79,25,5.79z"/>
</svg>
