<?xml version="1.0" encoding="utf-8"?>
<!-- Generator: Adobe Illustrator 27.5.0, SVG Export Plug-In . SVG Version: 6.00 Build 0)  -->
<svg version="1.1" id="Camada_3" xmlns="http://www.w3.org/2000/svg" xmlns:xlink="http://www.w3.org/1999/xlink" x="0px" y="0px"
	 viewBox="0 0 50 50" style="enable-background:new 0 0 50 50;" xml:space="preserve">
<style type="text/css">
	.st0{fill:#04AD49;}
	.st1{fill:#22DD6D;}
	.st2{fill:none;stroke:#444444;stroke-width:2.5;stroke-linecap:round;stroke-linejoin:round;stroke-miterlimit:10;}
	.st3{fill:none;stroke:#444444;stroke-linecap:round;stroke-linejoin:round;stroke-miterlimit:10;}
	.st4{fill:#444444;}
</style>
<polygon class="st0" points="28,20.8 35.7,23.2 29.1,27.8 29.2,35.9 22.7,31.1 15.1,33.7 17.7,26 12.9,19.6 20.9,19.7 25.6,13.1 "/>
<g>
	<path class="st1" d="M48,20.2c-0.2-0.8-2.7-7.5-3.2-8.1l-3-3.5l-0.2,0.1l-7.6-5.8l-7.8-0.7c-3.2,0-14.5,0.3-21.4,10.2L0.8,23
		l-0.2,0.1l4,13.4c0.1,0.4,4.5,5.7,4.9,5.9l5.6,3l32.2-11.7C47.9,33.2,48.9,25,48,20.2z"/>
	<g>
		<g>
			<g>
				<path class="st2" d="M32.3,47.1c-7,2.3-15,1.2-21.3-3.6C0.6,35.8-1.5,21.1,6.3,10.7"/>
				<path class="st2" d="M6.1,10.9c2-3,4.7-4.7,4.7-4.7l0.7-0.5C19.6,0,30.8-0.2,39.1,6.1c10.4,7.8,12.4,22.5,4.7,32.8"/>
			</g>
		</g>
	</g>
</g>
<g>
	<path class="st3" d="M22.2,17.5c0.6,0.1,1.3-0.1,2,0.1c1,0.2,1.6,0.8,1.9,1.7c0.7,2.2,1.5,4.5,2.2,6.7c1.3,3.8,2.5,7.6,3.8,11.4
		c0.5,1.6,0.1,2.6-1.1,3.3c-1.3,0.8-3.1,0.3-3.6-1.3c-0.5-1.4-1-2.8-1.4-4.2c-0.1-0.3-0.2-0.4-0.5-0.4c-2.2,0-4.4,0-6.6,0
		c-0.3,0-0.4,0.1-0.5,0.4c-0.4,1.4-0.8,2.9-1.3,4.2c-0.5,1.2-1.5,1.7-2.8,1.5c-1.2-0.2-2-1.3-2-2.4c0-0.5,0.1-0.9,0.2-1.3
		c0.7-2.2,1.4-4.5,2.1-6.7c0.8-2.8,1.8-5.5,2.6-8.3c0.3-1,0.6-2,0.9-3c0.3-1.1,1.4-1.7,2.4-1.8C21,17.5,21.6,17.5,22.2,17.5z"/>
	<path class="st4" d="M35.8,8.1c-0.6-0.5-1.2-0.9-2-1C32.9,7,32,6.9,31.1,6.9c-0.8,0-1.7,0.1-2.5,0.2c-0.6,0.1-1.3,0.2-1.9,0.4
		c-0.5,0.2-0.9,0.5-1.2,1c-0.2,0.3-0.2,0.7-0.3,1c0,0.8,0,1.6,0,2.4c0,0.2,0.1,0.3,0.3,0.3c1.7,0,3.3,0,5,0c0.4,0,0.4,0,0.4,0.4
		c0,0.2,0,0.3-0.3,0.3c-2.5,0-4.9,0-7.4,0c-0.9,0-1.7,0.2-2.5,0.8c-0.5,0.4-0.9,0.9-1.1,1.5c-0.3,0.7-0.4,1.5-0.5,2.3l0.5-0.3h3.9
		l1.8,0.8L26,19c0.1-0.1,0.3-0.2,0.4-0.3c0.5-0.3,1-0.4,1.6-0.4c1,0,2,0,3,0c0,0,0,0,0,0c0.8,0,1.5,0,2.3,0c0.4,0,0.8,0,1.2-0.1
		c0.7-0.2,1.2-0.6,1.6-1.1c0.4-0.5,0.6-1.1,0.6-1.8c0-1.8,0-3.5,0-5.3C36.7,9.3,36.4,8.6,35.8,8.1z M27.9,10.8
		c-0.8,0-1.2-0.6-1.2-1.1c0-0.6,0.4-1,1.1-1c0.6-0.1,1.1,0.3,1.1,1.2C28.8,10.2,28.2,10.8,27.9,10.8z"/>
	<path class="st4" d="M42.7,17.9c-0.1-0.6-0.2-1.3-0.3-1.9c-0.2-0.9-0.5-1.7-1.2-2.4c-0.4-0.5-1-0.7-1.6-0.7c-0.7,0-1.4,0-2.1,0
		c-0.2,0-0.2,0-0.2,0.2c0,0.8,0,1.5,0,2.3c0,0.4,0,0.7-0.2,1.1c-0.2,0.5-0.4,1-0.8,1.4c-0.7,0.8-1.5,1.2-2.6,1.2c-1.9,0-3.8,0-5.7,0
		c-0.6,0-1.1,0.1-1.6,0.5c-0.1,0.1-0.2,0.1-0.2,0.2l0.3,0.6l3.5,10.2c0.1,0,0.2,0,0.3,0c0.4,0.1,0.9,0,1.3,0c0.3,0,0.7-0.1,1.1-0.2
		c1.1-0.2,2.1-0.5,3-1.2c0.5-0.4,0.9-1,0.9-1.7c0.1-0.7,0-1.4,0-2.1c0-0.2-0.1-0.3-0.3-0.3c-1.6,0-3.3,0-4.9,0c-0.5,0-0.5,0-0.5-0.5
		c0-0.2,0.1-0.3,0.3-0.3c1.4,0,2.8,0,4.2,0c1.4,0,2.8,0,4.2,0c0.4,0,0.8-0.1,1.2-0.4c0.6-0.4,0.9-1,1.2-1.6c0.3-0.8,0.6-1.6,0.7-2.4
		c0-0.2,0-0.3,0-0.5C42.9,19,42.8,18.4,42.7,17.9z M34.2,26.5c0.5,0,1.1,0.4,1.1,1.1c0,0.6-0.5,1.1-1,1.1c-0.6,0-1.1-0.5-1.1-1.1
		C33.1,27,33.6,26.4,34.2,26.5z"/>
</g>
</svg>
