<?xml version="1.0" encoding="UTF-8"?>
<svg xmlns="http://www.w3.org/2000/svg" version="1.1" viewBox="0 0 50 50">
  <defs>
    <style>
      .cls-1 {
        stroke-miterlimit: 10;
        stroke-width: .5px;
      }

      .cls-1, .cls-2 {
        fill: none;
        stroke: #444;
      }

      .cls-2 {
        stroke-linecap: round;
        stroke-linejoin: round;
        stroke-width: 2.5px;
      }

      .cls-3 {
        fill: #444;
      }

      .cls-4 {
        fill: #46b8b0;
      }
    </style>
  </defs>
  <!-- Generator: Adobe Illustrator 28.6.0, SVG Export Plug-In . SVG Version: 1.2.0 Build 709)  -->
  <g>
    <g id="Camada_1">
      <g id="Layer_1">
        <path class="cls-4" d="M47.2,24.1c-.2-.8-4-4.5-4.5-5.2l2.4-3.3-3.7-5.4-3.1,1.3-3.7-2.5-.8-4.6-4.3-1.4-2.4,4.1c-.5,0-2.6-.2-3.9-.2s-1.8-3.3-2.8-3.3c-1.8.2-3.6.6-5.2,1.5s.4,3.8,0,4.1c-1.3.8-1.7,1.5-3.1,2.2s-3-1.9-3.9-1.2c-2,1.5-1.6,2.4-3.4,4.7s2.8,3.1,2.1,4.2l-.9,2.7-4.1,1.4.3,5.7,3.2,1.1,1.8,3.8-2.9,2.9s1.8,3.8,4,5.1,1.6-1.7,2.3-1.3c2.4,1.4,4.6,2.7,4.7,2.8l-.3,3.5,5.5.4,20.1-12.6s2.1-1,2.1-1.5c0-1.3,3-3.5,4.7-4.3s.4-2.6,0-4.9l-.2.2Z"/>
        <path class="cls-2" d="M43.1,33.2c.3-1,.5-1.7.9-2.9l3.9-1.3v-5.8l-3.9-1.3c-.5-1.5-.7-2.1-1.2-3.6l2.4-3.3c-1.7-2.4-1.7-2.3-3.4-4.7l-3.9,1.2c-1.3-.9-1.8-1.3-3.1-2.2v-4.1q-2.8-.9-5.6-1.8l-2.4,3.3h-3.8l-2.4-3.3c-2.8.9-2.7.9-5.5,1.8v4.1c-1.3.9-1.8,1.3-3.1,2.2l-3.9-1.2c-1.7,2.4-1.7,2.3-3.4,4.7l2.4,3.3c-.5,1.5-.7,2.1-1.2,3.6l-3.9,1.3v5.8l3.9,1.3c.5,1.5.7,2.1,1.2,3.6l-2.4,3.3c1.7,2.4,1.7,2.3,3.4,4.7l3.9-1.2c1.3.9,1.8,1.3,3.1,2.2v4.1l5.5.4,1.5-1.8"/>
        <g>
          <path class="cls-3" d="M24.5,35.8v3.7h0c-.7.3-1.4.4-2.2.4s-.9,0-1.4-.3c-.8-.3-1.3-.9-1.4-1.7,0-.7,0-1.3.1-2,.3-.8.9-1.2,1.7-1.4.5-.1,1.1-.1,1.6,0h0v-2.2c0,0,0-.1.1-.1h1.4q.1,0,.1.1v3.7h0ZM22.9,37.2v-1.2h-.8c-.5,0-.8.3-.9.8v.9c0,.5.4.9.9,1.1h.8v-1.6Z"/>
          <path class="cls-3" d="M24,41.4c.1,0,.4-.1.5-.3.7-.4.9-.9,1.1-1.6v-4.9h1.4v4.1c0,.5,0,1.1-.1,1.4-.1.8-.7,1.4-1.3,1.8h-.5c-.4-.3-.8-.4-1.2-.5h.1Z"/>
          <path class="cls-3" d="M27.1,32.9v.8h-1.4v-1.6h1.4v.8Z"/>
        </g>
        <path class="cls-1" d="M33.1,17.7v.4c-.4,1.5-1.6,2.4-3.1,2.4h-9.8c-.5,0-1,0-1.4-.1-1.7-.5-2.7-2.3-2.1-4,.5-1.5,2-2.4,3.5-2.1.1,0,.2,0,.2-.1.4-.8,1-1.3,1.9-1.5h1c.7-1.1,1.7-1.8,3-2,1.6-.2,3,.4,4,1.7.4.6.7,1.2.8,2,0,0,0,.1.1.2,1.1.4,1.7,1.2,1.9,2.4v.8h0Z"/>
        <g>
          <line class="cls-1" x1="24.5" y1="30" x2="24.5" y2="25.4"/>
          <polygon class="cls-3" points="26.2 25.9 24.5 23 22.9 25.9 26.2 25.9"/>
        </g>
      </g>
    </g>
  </g>
</svg>