<svg xmlns="http://www.w3.org/2000/svg" id="Camada_3" x="0" y="0" version="1.1" viewBox="0 0 50 50" xml:space="preserve"><style>.st2{fill:none;stroke:#444;stroke-width:2.5;stroke-linecap:round;stroke-linejoin:round;stroke-miterlimit:10}.st4{fill:#444}</style><path fill="#04ad49" d="M28 20.8l7.7 2.4-6.6 4.6.1 8.1-6.5-4.8-7.6 2.6 2.6-7.7-4.8-6.4 8 .1 4.7-6.6z"/><path fill="#22dd6d" d="M48 20.2c-.2-.8-2.7-7.5-3.2-8.1l-3-3.5-.2.1L34 2.9l-7.8-.7c-3.2 0-14.5.3-21.4 10.2L.8 23l-.2.1 4 13.4c.1.4 4.5 5.7 4.9 5.9l5.6 3 32.2-11.7c.6-.5 1.6-8.7.7-13.5z"/><path d="M32.3 47.1c-7 2.3-15 1.2-21.3-3.6C.6 35.8-1.5 21.1 6.3 10.7" class="st2"/><path d="M6.1 10.9c2-3 4.7-4.7 4.7-4.7l.7-.5c8.1-5.7 19.3-5.9 27.6.4 10.4 7.8 12.4 22.5 4.7 32.8" class="st2"/><path fill="none" stroke="#444" stroke-linecap="round" stroke-linejoin="round" stroke-miterlimit="10" d="M22.2 17.5c.6.1 1.3-.1 2 .1 1 .2 1.6.8 1.9 1.7.7 2.2 1.5 4.5 2.2 6.7 1.3 3.8 2.5 7.6 3.8 11.4.5 1.6.1 2.6-1.1 3.3-1.3.8-3.1.3-3.6-1.3-.5-1.4-1-2.8-1.4-4.2-.1-.3-.2-.4-.5-.4h-6.6c-.3 0-.4.1-.5.4-.4 1.4-.8 2.9-1.3 4.2-.5 1.2-1.5 1.7-2.8 1.5-1.2-.2-2-1.3-2-2.4 0-.5.1-.9.2-1.3.7-2.2 1.4-4.5 2.1-6.7.8-2.8 1.8-5.5 2.6-8.3l.9-3c.3-1.1 1.4-1.7 2.4-1.8.5.1 1.1.1 1.7.1z"/><path d="M35.8 8.1c-.6-.5-1.2-.9-2-1-.9-.1-1.8-.2-2.7-.2-.8 0-1.7.1-2.5.2-.6.1-1.3.2-1.9.4-.5.2-.9.5-1.2 1-.2.3-.2.7-.3 1v2.4c0 .2.1.3.3.3h5c.4 0 .4 0 .4.4 0 .2 0 .3-.3.3h-7.4c-.9 0-1.7.2-2.5.8-.5.4-.9.9-1.1 1.5-.3.7-.4 1.5-.5 2.3l.5-.3h3.9l1.8.8.7 1c.1-.1.3-.2.4-.3.5-.3 1-.4 1.6-.4h5.3c.4 0 .8 0 1.2-.1.7-.2 1.2-.6 1.6-1.1.4-.5.6-1.1.6-1.8V10c0-.7-.3-1.4-.9-1.9zm-7.9 2.7c-.8 0-1.2-.6-1.2-1.1 0-.6.4-1 1.1-1 .6-.1 1.1.3 1.1 1.2-.1.3-.7.9-1 .9z" class="st4"/><path d="M42.7 17.9c-.1-.6-.2-1.3-.3-1.9-.2-.9-.5-1.7-1.2-2.4-.4-.5-1-.7-1.6-.7h-2.1c-.2 0-.2 0-.2.2v2.3c0 .4 0 .7-.2 1.1-.2.5-.4 1-.8 1.4-.7.8-1.5 1.2-2.6 1.2H28c-.6 0-1.1.1-1.6.5-.1.1-.2.1-.2.2l.3.6L30 30.6h.3c.4.1.9 0 1.3 0 .3 0 .7-.1 1.1-.2 1.1-.2 2.1-.5 3-1.2.5-.4.9-1 .9-1.7.1-.7 0-1.4 0-2.1 0-.2-.1-.3-.3-.3h-4.9c-.5 0-.5 0-.5-.5 0-.2.1-.3.3-.3h8.4c.4 0 .8-.1 1.2-.4.6-.4.9-1 1.2-1.6.3-.8.6-1.6.7-2.4v-.5c.2-.4.1-1 0-1.5zm-8.5 8.6c.5 0 1.1.4 1.1 1.1 0 .6-.5 1.1-1 1.1-.6 0-1.1-.5-1.1-1.1-.1-.6.4-1.2 1-1.1z" class="st4"/></svg>