<svg xmlns="http://www.w3.org/2000/svg" id="Layer_1" x="0" y="0" version="1.1" viewBox="0 0 50 50" xml:space="preserve"><style>.st3{fill:#444}</style><path fill="#00c8e2" d="M37.4 34.5c-2.2 1.5-5.1 0-5.1-2.7v-3.6c0-4.6-3.1-8.6-7.4-10l-23 8.4c-.1.5-.1 1-.1 1.6v8.5c0 5.2 3.9 9.6 9 10.4l33-12v-9.4H43c-.6 3.6-2.6 6.8-5.6 8.8z"/><path fill="#00dffc" d="M23.7 18v-7.5c0-.5-.4-1-1-1h-3.6c0-.1.1-.2.1-.4V2.3c0-.5-.4-1-1-1h-5c-.5 0-1 .4-1 1v6.8c0 .1 0 .3.1.4H9c-.5 0-1 .4-1 1v8.3c-3.2 1.4-5.5 4.4-6.1 8l23-8.4c-.4-.2-.8-.3-1.2-.4z"/><circle cx="22" cy="32.4" r=".5" fill="#fff"/><path d="M49.3 23.3c-.3.3-.7.5-1.2.5h-2.3c-1.1 0-2 .7-2.3 1.7-.3-1-1.3-1.7-2.3-1.7h-2.3c-.4 0-.9-.2-1.2-.5l-.2-.2v1.3c0 1.3 1.1 2.4 2.5 2.4h7c1.4 0 2.5-1.1 2.5-2.4v-1.3l-.2.2z" class="st3"/><circle cx="22.1" cy="32.6" r="1.4" class="st3"/><path d="M10.4 15.5c-.2 0-.4-.2-.4-.4v-3c0-.2.2-.4.4-.4s.4.2.4.4v3c0 .3-.2.4-.4.4zm1.6 0c-.2 0-.4-.2-.4-.4v-3c0-.2.2-.4.4-.4s.4.2.4.4v3c0 .3-.1.4-.4.4zm1.7 0c-.2 0-.4-.2-.4-.4v-3c0-.2.2-.4.4-.4s.4.2.4.4v3c0 .3-.2.4-.4.4zm4.8 0c-.2 0-.4-.2-.4-.4v-3c0-.2.2-.4.4-.4s.4.2.4.4v3c-.1.3-.2.4-.4.4zm1.6 0c-.2 0-.4-.2-.4-.4v-3c0-.2.2-.4.4-.4s.4.2.4.4v3c0 .3-.2.4-.4.4zm1.6 0c-.2 0-.4-.2-.4-.4v-3c0-.2.2-.4.4-.4s.4.2.4.4v3c0 .3-.2.4-.4.4z" class="st3"/><path d="M45 25.1h-3.1l-.2 1.1c-.5 3.2-2.3 6.1-5 8-.6.4-1.4.5-2.1.1-.7-.4-1.1-1-1.1-1.8v-3.6c0-3.1-1.3-6.1-3.5-8.3-1.6-1.5-3.5-2.6-5.5-3.1.2-.3.4-.7.4-1.2v-5.6c0-1.1-.9-2-2-2h-3c.3-.3.4-.7.4-1.2v-5c0-1.1-.9-2-2-2h-5c-1.1 0-2 .9-2 2v5c0 .4.2.9.4 1.2H9.2c-1.1 0-2 .9-2 2v5.6c0 .7.4 1.3.9 1.7-1.5.6-2.9 1.5-4.1 2.7C1.8 22.9.5 25.9.6 29v8.5c0 6.5 5.3 11.7 11.8 11.7l18.2-.1c5 0 9.7-2.7 12.3-7 1.1-1.9 1.8-3.9 2-6.1 0-.4.1-.9.1-1.3v-9.6zM22.9 10.9v5.6h-5.6v-5.6h5.6zm-9.6-8.2h5v5h-5v-5zm-4.1 8.2h5.6v5.6H9.2v-5.6zM42.6 36c-.2 1.8-.7 3.5-1.6 5-2.2 3.6-6.1 5.8-10.2 5.8l-18.2.1c-5.2 0-9.4-4.1-9.4-9.2v-8.5c0-2.5 1-4.8 2.7-6.5 1.8-1.8 4.1-2.7 6.6-2.8h9.3c2.5 0 4.8 1 6.6 2.7 1.8 1.7 2.8 4.1 2.8 6.5v3.6c0 1.7.9 3.2 2.4 3.9 1.5.8 3.3.7 4.7-.3 1.9-1.3 3.4-3 4.4-4.9V35c-.1.3-.1.6-.1 1z" class="st3"/><path d="M14.4 6.9c-.2 0-.4-.2-.4-.4V3.8c0-.2.2-.4.4-.4s.4.2.4.4v2.7c-.1.2-.2.4-.4.4zm1.5 0c-.2 0-.4-.2-.4-.4V3.8c0-.2.2-.4.4-.4s.4.2.4.4v2.7c-.1.2-.2.4-.4.4zm1.5 0c-.2 0-.4-.2-.4-.4V3.8c0-.2.2-.4.4-.4s.4.2.4.4v2.7c-.1.2-.2.4-.4.4zm21.1 37.4c-2.8 0-6.7 0-9.9-.2-3.5-.2-5.3-3.3-6.1-5.1.5-.9.6-1.7.6-2v-.8c-.1-.4-.4-.7-.8-.6-.4.1-.7.4-.6.8v.5c0 .6-.4 1.6-1.2 2.4-.8.8-2.3 1.2-3.9 1.1-1.7 0-3.5-.4-4.8-.8-.7-.2-1.5-.5-2.2-.7-.9-.3-1.9-.6-2.8-.9-1.5-.4-2.8-.7-4-.8v-1c0-.4-.3-.7-.7-.7s-.7.3-.7.7v1.4C1.4 43.4 6.3 48 12.2 48h18.2c3.1 0 6-1 8.4-2.9l1.2-.9-1.5.1zM30.4 47H12.2c-4.9 0-9-3.4-9.9-8.1 1.2 0 2.5.2 4 .6.7.2 1.5.5 2.3.7l.5.2c.7.2 1.3.4 2 .6 1.5.4 3.4.9 5.4.9h.2c2 0 3.7-.5 4.8-1.5l.5-.5c1 2.1 3 4.9 6.7 5.2 2.6.2 5.8.2 8.3.2-2 1.1-4.2 1.7-6.6 1.7z" class="st3"/></svg>