<?xml version="1.0" encoding="utf-8"?>
<!-- Generator: Adobe Illustrator 28.0.0, SVG Export Plug-In . SVG Version: 6.00 Build 0)  -->
<svg version="1.1" id="Layer_1" xmlns="http://www.w3.org/2000/svg" xmlns:xlink="http://www.w3.org/1999/xlink" x="0px" y="0px"
	 viewBox="0 0 50 50" style="enable-background:new 0 0 50 50;" xml:space="preserve">
<style type="text/css">
	.st0{fill:#8256D8;}
	.st1{fill:#A475EF;}
	.st2{fill:none;stroke:#515150;stroke-width:0.5;stroke-linecap:round;stroke-linejoin:round;stroke-miterlimit:10;}
	.st3{fill:none;stroke:#515150;stroke-linecap:round;stroke-linejoin:round;stroke-miterlimit:10;}
	.st4{fill:none;stroke:#515150;stroke-width:2.5;stroke-linecap:round;stroke-linejoin:round;stroke-miterlimit:10;}
</style>
<polygon class="st0" points="20,22.2 24.7,23.7 20.7,26.5 20.8,31.4 16.8,28.5 12.2,30 13.8,25.4 10.9,21.5 15.7,21.6 18.6,17.6 "/>
<path class="st1" d="M42.7,16.4l-3.4,0.1c-3.4-0.6-9.3-1.6-11.1-1.7v-2.9c-1.6,0-3.9,2-7.9,3.1l-10.1-0.2H7.5l-5-2.5l-0.4,5l0.4,21
	l6.4-3.5c1.7,0.3,11.6,0.5,13.3,0.5l5.5,2.3c0.3,0-1.1-1.9-0.8-2L46,28.5c1.2-0.4,1.9-1.5,1.9-2.8v-5.9l-0.3-3.1l-0.8-0.1L46,16.6
	C45.9,16.5,42.7,16.6,42.7,16.4z"/>
<g>
	<path class="st2" d="M12.1,25.4v3.9c0,0.1,0.1,0.3,0.2,0.3c0.7,0.2,3.1,0.9,5.7,0c0.1,0,0.2-0.2,0.2-0.3v-3.9
		c0-0.1-0.1-0.3-0.2-0.3c-0.7-0.2-3-0.9-5.7,0C12.2,25.2,12.1,25.3,12.1,25.4z"/>
	<path class="st2" d="M13.2,24.8v-1.3c0-1.1,0.9-1.9,2-1.9l0,0c1.1,0,1.9,0.9,1.9,1.9v1.3"/>
	<circle class="st2" cx="15.2" cy="26.9" r="0.6"/>
	<line class="st2" x1="15.2" y1="27.5" x2="15.2" y2="28.4"/>
</g>
<g>
	<rect x="8.4" y="14.8" class="st3" width="13.7" height="20.6"/>
	<polyline class="st4" points="28.5,15.3 47.6,16.8 47.6,26.9 	"/>
	<polyline class="st4" points="8.4,35.4 2.5,38.4 2.5,11.9 8.4,14.8 	"/>
	<polyline class="st3" points="22.1,14.8 27.3,11.9 27.3,38.4 22.1,35.4 	"/>
	<polyline class="st2" points="32.9,18.7 32.9,25.6 32.9,30.5 	"/>
	<polyline class="st2" points="37.8,19.1 37.8,25.6 37.8,30.1 	"/>
	<polyline class="st2" points="42.7,19.6 42.7,25.6 42.7,29.7 	"/>
</g>
<polyline class="st4" points="8.9,14.8 21.8,14.8 28.2,11.6 28.2,15.3 "/>
<polyline class="st4" points="8.9,35.2 21.8,35.2 28.2,38.4 28.2,34.7 38.1,34.3 "/>
</svg>
