<?xml version="1.0" encoding="UTF-8"?>
<svg xmlns="http://www.w3.org/2000/svg" version="1.1" viewBox="0 0 50 50">
  <defs>
    <style>
      .cls-1 {
        stroke-width: .5px;
      }

      .cls-1, .cls-2, .cls-3 {
        fill: none;
        stroke: #444;
        stroke-linecap: round;
        stroke-miterlimit: 10;
      }

      .cls-4 {
        fill: #7df4eb;
      }

      .cls-2 {
        stroke-width: 2.5px;
      }

      .cls-5 {
        fill: #35d3c3;
      }
    </style>
  </defs>
  <!-- Generator: Adobe Illustrator 28.6.0, SVG Export Plug-In . SVG Version: 1.2.0 Build 709)  -->
  <g>
    <g id="Camada_1">
      <g>
        <polygon class="cls-5" points="14.3 29.1 18.2 30.3 14.9 32.6 14.9 36.7 11.7 34.2 7.8 35.6 9.1 31.7 6.7 28.5 10.8 28.5 13.1 25.2 14.3 29.1"/>
        <g>
          <path class="cls-4" d="M42.3,18.5l5.6-3.5.6-8.8h-7.3c0,.1-1.7.8-1.9,2.6l-2.6-2.6-7-.5c-.6.9.4,9.8,1.3,10.3s4.2,2.1,4.2,2.2c.2,4.8-4.3,5.9-5.6,6-6.5.2-25.8.1-26.2.6-2,2-2.6,12.8,2.8,15.4l5.5,2.3,31-11c.7-.4.5-11-.5-13Z"/>
          <g>
            <circle class="cls-1" cx="15" cy="35.7" r="1.5"/>
            <path class="cls-2" d="M39.2,10.2c-.3-2.3-2.2-4-4.6-4h-4.1c-.5,0-1,.4-1,1v5c0,2.9,2.3,5.3,5.2,5.5h0c.2,0,.4.2.4.4v1.6c0,2.5-2,4.5-4.4,4.5H5.7c-2.1,0-3.9,1.7-3.9,3.9v3.9h0c0,6,4.8,10.4,10.8,10.4h9.9"/>
            <path class="cls-2" d="M41.1,34.9c.9-1.8,1.3-3.9,1.3-6.1v-10.8c0-.2.2-.4.4-.4h0c3,0,5.9-2.5,5.9-5.5v-5c0-.5-.4-1-1-1h-4.2c-2.3,0-4,1.8-4.3,4"/>
            <path class="cls-2" d="M22.6,42.3c0,3,2.4,5.9,5.4,5.9h0c.4,0,.7-.3.7-.7v-5c0-.2.1-.3.3-.3h.2c1.2,0,2.3-.2,3.3-.4"/>
            <path class="cls-3" d="M13.4,24.2v5.9c0,.4-.3.8-.8.8h-6.3c-.4,0-.8-.3-.8-.8v-5.9"/>
            <path class="cls-3" d="M23.3,24.2v5.9c0,.4-.3.8-.8.8h-6.3c-.4,0-.8-.3-.8-.8v-5.9"/>
            <path class="cls-3" d="M31.2,24.2v5.9c0,.4-.3.8-.8.8h-6.3c-.4,0-.8-.3-.8-.8v-5.9"/>
            <path class="cls-3" d="M27.6,31.2v5.9c0,.4-.3.8-.8.8h-6.3c-.4,0-.8-.3-.8-.8v-5.9"/>
          </g>
        </g>
      </g>
    </g>
  </g>
</svg>