<?xml version="1.0" encoding="UTF-8"?>
<svg xmlns="http://www.w3.org/2000/svg" version="1.1" viewBox="0 0 50 50">
  <defs>
    <style>
      .cls-1, .cls-2, .cls-3 {
        fill: none;
        stroke: #444;
        stroke-linecap: round;
        stroke-linejoin: round;
      }

      .cls-2 {
        stroke-width: 2.5px;
      }

      .cls-4 {
        fill: #7df4eb;
      }

      .cls-5 {
        fill: #35d3c3;
      }

      .cls-3 {
        stroke-width: .5px;
      }
    </style>
  </defs>
  <!-- Generator: Adobe Illustrator 28.6.0, SVG Export Plug-In . SVG Version: 1.2.0 Build 709)  -->
  <g>
    <g id="Layer_1">
      <g>
        <polygon class="cls-5" points="24.7 18.5 32.5 21 25.8 25.7 25.9 33.9 19.4 29 11.6 31.6 14.2 23.9 9.3 17.3 17.5 17.4 22.3 10.7 24.7 18.5"/>
        <g>
          <path class="cls-4" d="M43.7,17v-2.6l.7-2.4-1.3-1.7c-3.2,0-39.5-2.3-39.5.9v27.3l13.8,1.1c.6.6.2,3.7-.6,4-1.5.4-4.9,1.2-4.9,1.3l1.4,3.8,16.2-5.7-.9-3.8,10.4.4,5.4-1.9c.7-.4.3-18.7-.7-20.7Z"/>
          <g>
            <path class="cls-2" d="M32.7,44h-3.5c-.2-.7-.6-4.5-.6-4.5l13.8-.2c.9,0,1.6-.7,1.6-1.6V11.5c0-.9-.7-1.6-1.6-1.6H5c-.9,0-1.6.7-1.6,1.6v26.2c0,.9.7,1.6,1.6,1.6l12.6.2s-.4,3.8-.6,4.5h-3.6c-1.1,0-1.9.9-1.9,1.9h0c0,1.1.9,1.9,1.9,1.9h14.5"/>
            <path class="cls-2" d="M34.6,45.9"/>
          </g>
          <line class="cls-1" x1="16.9" y1="38.7" x2="29" y2="38.7"/>
          <line class="cls-1" x1="12.3" y1="44.7" x2="33.2" y2="44.7"/>
          <g>
            <polyline class="cls-3" points="8.4 19.8 8.4 15.9 7.4 15.9"/>
            <polyline class="cls-3" points="17 19.8 17 15.9 16 15.9"/>
            <path class="cls-3" d="M10.3,23.3v2.5c-.4.4-.9.7-1.4.7s-1.1-.3-1.5-.7v-2.5c.4-.4.9-.7,1.4-.7s1.2.3,1.5.7Z"/>
            <path class="cls-3" d="M18.9,23.3v2.5c-.4.4-.9.7-1.4.7s-1.1-.3-1.4-.7v-2.5c.4-.4.9-.7,1.4-.7.6,0,1.1.3,1.4.7Z"/>
            <polyline class="cls-3" points="21.8 26.5 21.8 22.6 20.8 22.6"/>
            <path class="cls-3" d="M14.1,16.6v2.5c-.4.4-.9.7-1.4.7s-1.1-.3-1.4-.7v-2.5c.4-.4.9-.7,1.4-.7s1.1.3,1.4.7Z"/>
            <path class="cls-3" d="M22.8,16.6v2.5c-.4.4-.9.7-1.5.7s-1.1-.3-1.4-.7v-2.5c.4-.4.9-.7,1.4-.7s1.1.3,1.5.7Z"/>
            <polyline class="cls-3" points="25.6 19.8 25.6 15.9 24.7 15.9"/>
            <polyline class="cls-3" points="17 33.2 17 29.3 16 29.3"/>
            <path class="cls-3" d="M14.1,30v2.5c-.4.4-.9.7-1.4.7s-1.1-.3-1.4-.7v-2.5c.4-.4.9-.7,1.4-.7s1.1.3,1.4.7Z"/>
            <polyline class="cls-3" points="25.6 33.2 25.6 29.3 24.7 29.3"/>
          </g>
          <g>
            <polyline class="cls-3" points="29.5 19.8 29.5 15.9 28.5 15.9"/>
            <polyline class="cls-3" points="38.1 19.8 38.1 15.9 37.2 15.9"/>
            <path class="cls-3" d="M31.4,23.3v2.5c-.4.4-.9.7-1.4.7s-1.1-.3-1.4-.7v-2.5c.4-.4.9-.7,1.4-.7.6,0,1.1.3,1.4.7Z"/>
            <path class="cls-3" d="M40,23.3v2.5c-.4.4-.9.7-1.4.7s-1.1-.3-1.4-.7v-2.5c.4-.4.9-.7,1.4-.7.6,0,1.1.3,1.4.7Z"/>
            <path class="cls-3" d="M35.2,16.6v2.5c-.3.4-.8.7-1.4.7s-1.1-.3-1.4-.7v-2.5c.4-.4.9-.7,1.4-.7s1.1.3,1.4.7Z"/>
            <polyline class="cls-3" points="38.1 33.2 38.1 29.3 37.2 29.3"/>
            <path class="cls-3" d="M35.2,30v2.5c-.4.4-.9.7-1.4.7s-1.1-.3-1.4-.7v-2.5c.4-.4.9-.7,1.4-.7.6,0,1.1.3,1.4.7Z"/>
          </g>
        </g>
      </g>
    </g>
  </g>
</svg>