<?xml version="1.0" encoding="utf-8"?>
<!-- Generator: Adobe Illustrator 28.0.0, SVG Export Plug-In . SVG Version: 6.00 Build 0)  -->
<svg version="1.1" id="Layer_1" xmlns="http://www.w3.org/2000/svg" xmlns:xlink="http://www.w3.org/1999/xlink" x="0px" y="0px"
	 viewBox="0 0 50 50" style="enable-background:new 0 0 50 50;" xml:space="preserve">
<style type="text/css">
	.st0{fill:#FCC34F;}
	.st1{fill:none;stroke:#444444;stroke-width:2.5;stroke-linecap:round;stroke-linejoin:round;stroke-miterlimit:10;}
	.st2{fill:none;stroke:#444444;stroke-linecap:round;stroke-linejoin:round;stroke-miterlimit:10;}
	.st3{fill:none;stroke:#444444;stroke-width:0.5;stroke-linecap:round;stroke-linejoin:round;stroke-miterlimit:10;}
</style>
<g>
	<path class="st0" d="M47.9,17.3l0.5-11l-1.9-3.8L31.1,2.9c-3.2,0-27.8-3-27.8,0.2L1.6,23.8l1.2,23.5l13.6,0.6l31-11
		C48.1,36.5,48.9,19.3,47.9,17.3z"/>
	<path class="st1" d="M32.5,47.8h-27c-1.9,0-3.4-1.6-3.4-3.5V5.3c0-1.9,1.5-3.5,3.4-3.5h39c1.9,0,3.4,1.6,3.4,3.5v32.5"/>
	<g>
		<path class="st2" d="M31.6,38.5l-13.2,0c-3.9,0-7.1-3.2-7.1-7.1V18.2c0-3.9,3.2-7.1,7.1-7.1h13.2c3.9,0,7.1,3.2,7.1,7.1v13.2
			C38.7,35.4,35.5,38.5,31.6,38.5z"/>
		<path class="st2" d="M29.6,34.4h-9.2c-2.8,0-5-2.2-5-5v-9.2c0-2.8,2.2-5,5-5h9.2c2.8,0,5,2.2,5,5v9.2
			C34.6,32.2,32.4,34.4,29.6,34.4z"/>
		<g>
			<line class="st3" x1="15.8" y1="6.1" x2="15.8" y2="9.3"/>
			<line class="st3" x1="20.3" y1="6.1" x2="20.3" y2="9.3"/>
			<line class="st3" x1="24.9" y1="6.1" x2="24.9" y2="9.3"/>
			<line class="st3" x1="29.5" y1="6.1" x2="29.5" y2="9.3"/>
			<line class="st3" x1="34" y1="6.1" x2="34" y2="9.3"/>
		</g>
		<g>
			<line class="st3" x1="15.8" y1="41" x2="15.8" y2="44.2"/>
			<line class="st3" x1="20.3" y1="41" x2="20.3" y2="44.2"/>
			<line class="st3" x1="24.9" y1="41" x2="24.9" y2="44.2"/>
			<line class="st3" x1="29.5" y1="41" x2="29.5" y2="44.2"/>
			<line class="st3" x1="34" y1="41" x2="34" y2="44.2"/>
		</g>
		<g>
			<line class="st3" x1="43.2" y1="15.7" x2="40" y2="15.7"/>
			<line class="st3" x1="43.2" y1="20.2" x2="40" y2="20.2"/>
			<line class="st3" x1="43.2" y1="24.8" x2="40" y2="24.8"/>
			<line class="st3" x1="43.2" y1="29.3" x2="40" y2="29.3"/>
			<line class="st3" x1="43.2" y1="33.9" x2="40" y2="33.9"/>
		</g>
		<g>
			<line class="st3" x1="10" y1="15.7" x2="6.8" y2="15.7"/>
			<line class="st3" x1="10" y1="20.2" x2="6.8" y2="20.2"/>
			<line class="st3" x1="10" y1="24.8" x2="6.8" y2="24.8"/>
			<line class="st3" x1="10" y1="29.3" x2="6.8" y2="29.3"/>
			<line class="st3" x1="10" y1="33.9" x2="6.8" y2="33.9"/>
		</g>
		<g>
			<polygon class="st3" points="28,19.7 22,19.7 19.1,24.8 22,29.9 28,29.9 30.9,24.8 			"/>
			<circle class="st3" cx="25" cy="24.8" r="1.7"/>
		</g>
	</g>
</g>
</svg>
