<svg xmlns="http://www.w3.org/2000/svg" version="1" viewBox="0 0 50 50"><path fill="#46B8B0" d="M13.815 45.152l30.919-11.254-.002-18.095C44.731 8.456 35.898 2.5 25 2.5S5.268 8.456 5.268 15.803l-.002 18.392c0 4.547 3.387 8.557 8.549 10.957z"/><path fill="#4ECDC4" d="M37.722 5.643C34.285 3.686 29.849 2.5 24.998 2.5 14.1 2.5 5.266 8.456 5.266 15.803v1.653L37.722 5.643z"/><path fill="#031326" d="M45.981 15.803C45.981 7.778 36.569 1.25 25 1.25S4.019 7.778 4.019 15.803l-.003 18.393C4.016 42.222 13.43 48.75 25 48.75c3.552 0 7.061-.622 10.147-1.798a1.25 1.25 0 10-.89-2.336C31.452 45.685 28.251 46.25 25 46.25c-10.192 0-18.484-5.407-18.484-12.054v-2.179C9.669 36.849 16.761 40.23 25 40.23s15.331-3.382 18.484-8.213v2.179a1.25 1.25 0 002.5 0l-.003-18.393zm-2.498 9.788c-2.299 5.358-9.706 9.297-18.483 9.297-8.778 0-16.185-3.939-18.483-9.298l.001-5.472C9.67 24.949 16.762 28.331 25 28.331s15.33-3.382 18.482-8.214l.001 5.474zM6.517 27.676C9.67 32.507 16.761 35.888 25 35.888c8.238 0 15.33-3.381 18.483-8.212v.689c-2.575 5.192-9.88 8.951-18.483 8.951S9.092 33.557 6.517 28.365v-.689zM25 3.75c10.19 0 18.481 5.407 18.481 12.053v2.227c-2.296 5.36-9.703 9.301-18.482 9.301S8.813 23.391 6.517 18.03v-2.227C6.519 9.157 14.809 3.75 25 3.75zm0 35.48c-8.778 0-16.186-3.94-18.483-9.3v-.532C9.508 34.331 16.662 37.815 25 37.815c8.339 0 15.492-3.484 18.484-8.417v.532c-2.298 5.361-9.706 9.3-18.484 9.3z"/></svg>