<?xml version="1.0" encoding="utf-8"?>
<!-- Generator: Adobe Illustrator 28.0.0, SVG Export Plug-In . SVG Version: 6.00 Build 0)  -->
<svg version="1.1" id="Layer_1" xmlns="http://www.w3.org/2000/svg" xmlns:xlink="http://www.w3.org/1999/xlink" x="0px" y="0px"
	 viewBox="0 0 50 50" style="enable-background:new 0 0 50 50;" xml:space="preserve">
<style type="text/css">
	.st0{fill:#C3FF68;}
	.st1{fill:none;stroke:#444444;stroke-linecap:round;stroke-linejoin:round;stroke-miterlimit:10;}
	.st2{fill:none;stroke:#444444;stroke-width:0.5;stroke-linecap:round;stroke-linejoin:round;stroke-miterlimit:10;}
	.st3{fill:none;stroke:#444444;stroke-width:2.5;stroke-linecap:round;stroke-linejoin:round;stroke-miterlimit:10;}
</style>
<g>
	<path class="st0" d="M48.3,12.3v-3l0.8-2.8l-1.5-2c-3.7,0-45.9-2.7-45.9,1v31.7l16,1.3c0.7,0.7,0.2,4.3-0.7,4.6
		c-1.7,0.5-5.7,1.4-5.7,1.5l1.7,4.5l18.7-6.7L30.6,38l12.1,0.5l6.2-2.2C49.9,35.8,49.4,14.6,48.3,12.3z"/>
	<g>
		<path class="st1" d="M17.4,22.4"/>
		<g>
			<path class="st2" d="M18.5,20.7c0-0.2,0-4.2,0-4.2h-2.6"/>
			<polyline class="st2" points="22.1,20.7 22.1,10.8 17.5,10.8 			"/>
			<line class="st2" x1="26.6" y1="20.7" x2="26.6" y2="12.7"/>
			<polyline class="st2" points="30.6,20.7 30.6,15.1 33.7,15.1 			"/>
			<circle class="st2" cx="14.1" cy="16.5" r="1.8"/>
			<circle class="st2" cx="15.7" cy="10.5" r="1.8"/>
			<circle class="st2" cx="26.6" cy="10.5" r="1.8"/>
			<circle class="st2" cx="35.7" cy="15.1" r="1.8"/>
		</g>
		<path class="st1" d="M38.5,21.2L38.5,21.2c0,0.6,0,1.3,0,1.9c0,0.4-0.1,0.5-0.5,0.5c-0.5,0-1,0-1.5,0c-0.3,0-0.4,0-0.4,0.3
			c-0.3,1.3-0.8,2.5-1.5,3.7c-0.1,0.2-0.1,0.3,0.1,0.5c0.4,0.4,0.8,0.8,1.2,1.2c0.1,0.1,0.2,0.2,0,0.4c-1,1-2,1.9-2.9,2.9
			c-0.2,0.2-0.3,0.1-0.4,0c-0.4-0.4-0.8-0.8-1.2-1.2c-0.2-0.2-0.3-0.2-0.4,0c-1.1,0.7-2.4,1.2-3.7,1.5C27.1,33,27,33,27,33.3
			c0,0.6,0,1.2,0,1.7c0,0.2-0.1,0.3-0.3,0.3c-1.4,0-2.8,0-4.1,0c-0.2,0-0.3-0.1-0.3-0.3c0-0.6,0-1.1,0-1.7c0-0.2,0-0.4-0.3-0.4
			c-1.3-0.3-2.6-0.8-3.7-1.5c-0.2-0.1-0.3-0.1-0.4,0.1c-0.4,0.4-0.8,0.8-1.2,1.2c-0.1,0.2-0.2,0.2-0.4,0c-1-1-1.9-1.9-2.9-2.9
			c-0.2-0.2-0.1-0.3,0-0.4c0.4-0.4,0.8-0.8,1.2-1.2c0.2-0.1,0.2-0.2,0-0.4c-0.7-1.1-1.3-2.4-1.6-3.7c-0.1-0.2-0.1-0.3-0.3-0.3
			c-0.6,0-1.2,0-1.7,0c-0.2,0-0.3-0.1-0.3-0.3c0-0.7,0-1.4,0-2h27.8V21.2z"/>
		<path class="st2" d="M28.8,21.2c0,2.1-1.7,3.9-3.9,3.9c-2.1,0-3.9-1.7-3.9-3.9"/>
		<path class="st1" d="M38.5,23.3"/>
		<path class="st1" d="M10.6,23.3"/>
		<path class="st2" d="M32.4,21.6c0,4.3-3.5,7.8-7.8,7.8s-7.8-3.5-7.8-7.8"/>
	</g>
	<g>
		<path class="st3" d="M35.5,43.6h-4.1c-0.2-0.9-0.6-5.2-0.6-5.2l16-0.2c1,0,1.9-0.8,1.9-1.9V6c0-1-0.8-1.9-1.9-1.9h-4.9h-33H3.4
			c-1,0-1.9,0.8-1.9,1.9v30.4c0,1,0.8,1.9,1.9,1.9L18,38.4c0,0-0.4,4.4-0.6,5.2h-4.1c-1.2,0-2.2,1-2.2,2.2l0,0c0,1.2,1,2.2,2.2,2.2
			h16.8"/>
		<path class="st3" d="M37.8,45.8"/>
	</g>
	<line class="st1" x1="1.9" y1="37.5" x2="47.2" y2="37.5"/>
	<line class="st1" x1="11.8" y1="44.5" x2="36.1" y2="44.5"/>
</g>
</svg>
