<svg xmlns="http://www.w3.org/2000/svg" viewBox="0 0 50 50"><defs><style>.cls-2,.cls-4,.cls-5{fill:none;stroke:#444;stroke-linecap:round;stroke-linejoin:round}.cls-4{fill-rule:evenodd}.cls-4,.cls-5{stroke-width:.5px}</style></defs><g id="Layer_1"><path fill="#319327" d="M30.3 20.5l7.8 2.4-6.7 4.8.1 8.2-6.6-4.9-7.7 2.6 2.6-7.8-4.9-6.5 8.2.1 4.7-6.7 2.5 7.8z"/><path fill="#5aba52" d="M44.2 14.7v-2.6l.7-2.4L43.6 8c-3.2 0-39.5-2.3-39.5.9v27.3l13.8 1.1c.6.6.2 3.7-.6 4-1.5.4-4.9 1.2-4.9 1.3l1.4 3.8L30 40.7l-.9-3.8 10.4.4 5.4-1.9c.7-.4.3-18.7-.7-20.7z"/><path d="M18.5 21.9v-3.6h-2.2m5.4 3.6v-8.6h-4" class="cls-4"/><path d="M25.5 21.9v-7" class="cls-5"/><path d="M29 21.9V17h2.7" class="cls-4"/><circle cx="14.7" cy="18.2" r="1.6" class="cls-5"/><circle cx="16.1" cy="13.1" r="1.6" class="cls-5"/><circle cx="25.5" cy="13.1" r="1.6" class="cls-5"/><circle cx="33.4" cy="17" r="1.6" class="cls-5"/><path d="M35.8 22.3v1.6c0 .3 0 .4-.4.4h-1.3c-.2 0-.3 0-.4.3-.2 1.1-.7 2.2-1.3 3.2-.1.2 0 .3 0 .4.4.3.7.7 1.1 1.1.1.1.2.2 0 .3L31 32.1c-.2.2-.2 0-.4 0L29.5 31c-.1-.1-.2-.1-.4 0-1 .6-2 1.1-3.2 1.3-.2 0-.3.1-.3.3v1.5c0 .2 0 .2-.2.2h-3.6c-.2 0-.2 0-.2-.2v-1.5c0-.2 0-.3-.3-.4-1.1-.3-2.2-.7-3.2-1.3-.2-.1-.3 0-.4 0-.3.4-.7.7-1.1 1.1-.1.1-.2.2-.4 0-.8-.8-1.6-1.7-2.5-2.5-.2-.2-.1-.2 0-.4.4-.3.7-.7 1.1-1.1.1-.1.1-.2 0-.4-.6-1-1.1-2.1-1.3-3.2 0-.2-.1-.2-.3-.2h-1.5c-.2 0-.3 0-.3-.3v-1.8h24z" class="cls-2"/><path d="M27.4 22.3c0 1.9-1.5 3.4-3.4 3.4s-3.4-1.5-3.4-3.4m9.9.3a6.7 6.7 0 01-13.4 0" class="cls-4"/><path fill="none" stroke="#444" stroke-linecap="round" stroke-linejoin="round" stroke-width="2.5" d="M33.2 41.6h-3.5c-.2-.7-.6-4.5-.6-4.5l13.8-.2c.9 0 1.6-.7 1.6-1.6V9.2c0-.9-.7-1.6-1.6-1.6H5.5c-.9 0-1.6.7-1.6 1.6v26.2c0 .9.7 1.6 1.6 1.6l12.6.2s-.4 3.8-.6 4.5h-3.6c-1.1 0-1.9.9-1.9 1.9 0 1.1.9 1.9 1.9 1.9h14.5"/><path d="M17.4 36.4h12.1m-16.7 6h20.9" class="cls-2"/></g></svg>