<svg xmlns="http://www.w3.org/2000/svg" id="Layer_1" x="0" y="0" version="1.1" viewBox="0 0 50 50" xml:space="preserve"><style>.st2{fill:#444}</style><path fill="#fdcf72" d="M43.4 23.3L39.8 26l-8.5 6.6-2.1 1.6-1.1.8-2.7 2.1h-5.2c-.1 0-.3 0-.4-.1-.4 1.8-1.8 3.2-3.5 3.8L10.7 39l1.4-1.1 5.1-4.1 1.6-1.3 10.3-8.3 2.1-1.7 5-4 2-1.3c.3 0 .8-.2.9.1l1.8 2.8 1.3 1.9.2.4 1 .9z"/><path fill="#fcc34f" d="M48.8 27.6v8.3c0 .6.3 1.1-.3 1.1h-4.7c-.5 2.5-1.9 3.6-4.5 3.6-.2 0-.5 0-.7-.1-2.2-.3-3.2-1.9-3.7-4l-11.1.8 2.6-2.1 2.7-2.2 2.1-1.7 6.4-5.2 2.6-2.1 1-.8 1.3-1.1.2.5.8 1.2.6 1.3 4.5 2.1c.3.3.2-.1.2.4z"/><path d="M5.1 12.4h9.4c.4 0 .8-.3.8-.8s-.3-.8-.8-.8H5.1c-.4 0-.8.3-.8.8s.3.8.8.8zM5 22.2c-.4 0-.8.3-.8.8s.3.8.8.8h6.5c.4 0 .8-.3.8-.8s-.3-.8-.8-.8H5zm1.7-4.9c0 .4.3.8.8.8h8.9c.4 0 .8-.3.8-.8s-.3-.8-.8-.8h-9c-.4.1-.7.4-.7.8zm-1.4 0c0-.4-.3-.8-.8-.8H.8c-.4 0-.8.3-.8.8s.3.8.8.8h3.7c.4 0 .8-.3.8-.8z" class="st2"/><path d="M49.2 26.3l-4.6-2.2-4.6-7c-.2-.4-.6-.6-1-.6h-7.3V9.7c0-.7-.6-1.2-1.2-1.2H19c-.7 0-1.2.6-1.2 1.2s.6 1.2 1.2 1.2h10v24.2h-8.9c-.5-2.6-2.7-4.6-5.5-4.6-2.9 0-5.3 2.2-5.6 5.1H4.9v-8c0-.7-.6-1.2-1.2-1.2s-1.2.6-1.2 1.2v9.3c-.1.5.5 1.1 1.2 1.1h5.7c.8 2.1 2.8 3.6 5.2 3.6 2.5 0 4.7-1.7 5.4-4h14.1c.7 2.3 2.8 4 5.4 4 2.7 0 4.9-1.9 5.4-4.3h3.8c.7 0 1.2-.6 1.2-1.2v-8.6c0-.6-.3-1-.7-1.2zM14.6 39.1c-1.7 0-3.1-1.4-3.1-3.1s1.4-3.1 3.1-3.1c1.7 0 3.1 1.4 3.1 3.1s-1.4 3.1-3.1 3.1zm24.9 0c-1.7 0-3.1-1.4-3.1-3.1s1.4-3.1 3.1-3.1 3.1 1.4 3.1 3.1-1.4 3.1-3.1 3.1zm7.9-4.3h-2.5c-.6-2.5-2.8-4.3-5.4-4.3-2.8 0-5.1 2-5.5 4.6h-2.4V19h6.7l3.2 4.9h-6.3c-.7 0-1.2.6-1.2 1.2s.6 1.3 1.2 1.3h8.4l3.9 1.8v6.6z" class="st2"/></svg>