<?xml version="1.0" encoding="utf-8"?>
<!-- Generator: Adobe Illustrator 26.5.0, SVG Export Plug-In . SVG Version: 6.00 Build 0)  -->
<svg version="1.1" id="Layer_1" xmlns="http://www.w3.org/2000/svg" xmlns:xlink="http://www.w3.org/1999/xlink" x="0px" y="0px"
	 viewBox="0 0 50 50" style="enable-background:new 0 0 50 50;" xml:space="preserve">
<style type="text/css">
	.st0{fill:#00C8E2;}
	.st1{fill:#AFE55D;}
	.st2{fill:#C3FF68;}
	.st3{fill:#00DFFC;}
	.st4{fill:#494949;stroke:#494949;stroke-width:0.5;stroke-miterlimit:10;}
	.st5{fill:#494949;stroke:#494949;stroke-miterlimit:10;}
	.st6{fill:#494949;stroke:#494949;stroke-width:0.75;stroke-miterlimit:10;}
</style>
<g>
	<g>
		<path class="st0" d="M11.6,29.3c0,0.3-0.2,0.5-0.5,0.5h-0.8v-1H11C11.4,28.8,11.6,29,11.6,29.3z"/>
		<path class="st0" d="M11.5,24.7c0,0.1,0.1,0.2,0.1,0.3c0,0.3-0.2,0.5-0.5,0.5h-0.5V25v-0.5l0.1-0.1H11
			C11.3,24.5,11.4,24.6,11.5,24.7z"/>
		<path class="st1" d="M43.5,15.5V24l-1,0.3l-7.7,2.8l-1.1,0.4l-17.2,6.3l-2,0.7v-0.1V23.2l1-0.4l5.4-2l1.1-0.4L34.1,16l2.7-1H43
			C43.3,15,43.5,15.2,43.5,15.5z"/>
	</g>
	<g>
		<path class="st2" d="M38,15l-2.6,1l-13,4.8l-1.1,0.4l-5.7,2.1l-1,0.4v-8.1c0-0.3,0.2-0.5,0.5-0.5L38,15L38,15z"/>
	</g>
	<g>
		<polygon class="st1" points="48.5,36.5 48.5,47 29.8,47 29.8,43.3 30.2,43.2 35.5,41.2 38.4,40.2 39.1,40.8 41,39.2 43.8,38.2 
			48,36.7 		"/>
	</g>
	<g>
		<polygon class="st3" points="15,15 20.5,15 17.9,16 16.9,16.4 15.8,16.8 15.5,16.9 15,17 		"/>
		<path class="st3" d="M26.3,10.4c0,0.3-0.2,0.5-0.5,0.5h-9.3c-0.3,0-0.5-0.2-0.5-0.5s0.2-0.5,0.5-0.5h9.3
			C26.1,9.9,26.3,10.1,26.3,10.4z"/>
		<path class="st3" d="M26.3,6.1c0,0.3-0.2,0.5-0.5,0.5h-6c-0.3,0-0.5-0.2-0.5-0.5s0.2-0.5,0.5-0.5h6C26.1,5.6,26.3,5.8,26.3,6.1z"
			/>
		<path class="st2" d="M49,3.5v1.2L48,5l-1.2,0.4l-2.8,1l-6.8,2.5l-1.1,0.4l-6,2.2l-1,0.3V3.5c0-0.3,0.2-0.5,0.5-0.5h18.7
			C48.7,3,49,3.2,49,3.5z"/>
	</g>
	<g>
		<path class="st4" d="M48.5,33.4H46c-0.3,0-0.5,0.2-0.5,0.5s0.2,0.5,0.5,0.5h1.1L41,39.2l-1.9,1.6l-0.7-0.6l-3.8-3.1
			c-0.2-0.2-0.5-0.1-0.7,0.1c-0.2,0.2-0.1,0.5,0.1,0.7l2.8,2.3l-1.3,1l-5.3,4.3v-8c0-0.3-0.2-0.5-0.5-0.5s-0.5,0.2-0.5,0.5v9
			c0,0.3,0.2,0.5,0.5,0.5h18.7c0.3,0,0.5-0.2,0.5-0.5V33.8C49,33.6,48.7,33.4,48.5,33.4z M31.1,46.1l6.5-5.2l1.2,1
			C38.9,42,39,42,39.1,42s0.2,0,0.3-0.1l1.2-1l6.5,5.2H31.1z M48,45.5l-6.6-5.3l2.5-2l4.1-3.3V45.5z"/>
		<path class="st4" d="M48.5,3H29.7c-0.3,0-0.5,0.2-0.5,0.5v9c0,0.3,0.2,0.5,0.5,0.5s0.5-0.2,0.5-0.5v-8l1.6,1.3l4.3,3.5l0.6,0.5
			L34,12.1c-0.2,0.2-0.2,0.5-0.1,0.7c0.1,0.1,0.2,0.2,0.4,0.2c0.1,0,0.2,0,0.3-0.1l3-2.4l1.2,1c0.1,0.1,0.2,0.1,0.3,0.1
			s0.2,0,0.3-0.1l1.2-1l2.7,2.2l0.4,0.3l3.4,2.8H46c-0.3,0-0.5,0.2-0.5,0.5c0,0.3,0.2,0.5,0.5,0.5h2.4c0.3,0,0.5-0.2,0.5-0.5V3.5
			C49,3.2,48.7,3,48.5,3z M39.1,10.4l-1.8-1.5L33,5.4L31.2,4h16L44,6.4L39.1,10.4z M48,15.1l-0.3-0.2l-2.9-2.4l-0.4-0.3l-3-2.4
			l5.5-4.4l0.9-0.7L48,4.5V15.1z"/>
		<path class="st4" d="M43,15H15c-0.3,0-0.5,0.2-0.5,0.5v19v0.1c0,0.2,0.2,0.4,0.5,0.4h28c0.3,0,0.5-0.2,0.5-0.5v-19
			C43.5,15.2,43.3,15,43,15z M41.6,16L29,26.2l-6.7-5.4l-0.4-0.3l-5.1-4.1L16.4,16H41.6z M15.5,16.5l0.3,0.2l5.1,4.1l0.4,0.3L26,25
			l-10.5,8.5V16.5z M16.4,34l0.1-0.1l10.2-8.3l1.9,1.6c0.1,0.1,0.2,0.1,0.3,0.1c0.1,0,0.2,0,0.3-0.1l1.9-1.6l2.5,2l7.9,6.4
			C41.5,34,16.4,34,16.4,34z M42.5,33.5l-7.7-6.3L32,25l10.5-8.5V33.5z"/>
		<path class="st5" d="M11.6,25c0,0.3-0.2,0.5-0.5,0.5H1.5C1.3,25.5,1,25.3,1,25s0.2-0.5,0.5-0.5h9.6c0.2,0,0.3,0.1,0.4,0.2
			C11.5,24.8,11.6,24.9,11.6,25z"/>
		<path class="st5" d="M11.6,20.7c0,0.3-0.2,0.5-0.5,0.5H4.9c-0.3,0-0.5-0.2-0.5-0.5s0.2-0.5,0.5-0.5h6.2
			C11.4,20.2,11.6,20.4,11.6,20.7z"/>
		<path class="st5" d="M11.6,29.3c0,0.3-0.2,0.5-0.5,0.5H4.9c-0.3,0-0.5-0.2-0.5-0.5s0.2-0.5,0.5-0.5h6.2
			C11.4,28.8,11.6,29,11.6,29.3z"/>
		<path class="st6" d="M26.3,10.4c0,0.3-0.2,0.5-0.5,0.5h-9.3c-0.3,0-0.5-0.2-0.5-0.5s0.2-0.5,0.5-0.5h9.3
			C26.1,9.9,26.3,10.1,26.3,10.4z"/>
		<path class="st6" d="M26.3,6.1c0,0.3-0.2,0.5-0.5,0.5h-6c-0.3,0-0.5-0.2-0.5-0.5s0.2-0.5,0.5-0.5h6C26.1,5.6,26.3,5.8,26.3,6.1z"
			/>
		<path class="st5" d="M25.9,39.1h-9.3c-0.3,0-0.5,0.2-0.5,0.5s0.2,0.5,0.5,0.5h9.3c0.3,0,0.5-0.2,0.5-0.5
			C26.3,39.4,26.1,39.1,25.9,39.1z"/>
		<path class="st5" d="M25.9,43.4h-6c-0.3,0-0.5,0.2-0.5,0.5s0.2,0.5,0.5,0.5h6c0.3,0,0.5-0.2,0.5-0.5
			C26.3,43.7,26.1,43.4,25.9,43.4z"/>
	</g>
</g>
</svg>
