<svg xmlns="http://www.w3.org/2000/svg" version="1" viewBox="0 0 50 50"><path fill="#E56060" d="M12.195 43.445l34.474-12.547c.511-1.88.788-3.856.788-5.898C47.457 12.597 37.403 2.543 25 2.543S2.543 12.597 2.543 25c0 7.642 3.82 14.389 9.652 18.445z"/><path fill="#FF6B6B" d="M37.307 6.164a22.348 22.348 0 0 0-12.222-3.621c-10.117 0-18.668 6.69-21.478 15.887l33.7-12.266z"/><path fill="#444" d="M25 48.5C12.042 48.5 1.5 37.958 1.5 25S12.042 1.5 25 1.5 48.5 12.042 48.5 25c0 2.093-.275 4.169-.818 6.171a1.042 1.042 0 1 1-2.014-.546c.495-1.824.746-3.717.746-5.625 0-11.808-9.606-21.414-21.414-21.414C13.192 3.586 3.586 13.192 3.586 25S13.192 46.414 25 46.414a1.043 1.043 0 0 1 0 2.086z"/><path fill="#444" d="M25 6.876C15.007 6.876 6.876 15.007 6.876 25S15.007 43.124 25 43.124c9.994 0 18.124-8.13 18.124-18.124 0-9.993-8.13-18.124-18.124-18.124zM41.873 25c0 .277-.028.548-.042.822H8.169c-.014-.274-.042-.545-.042-.822 0-.277.028-.547.042-.821h33.663c.013.274.041.544.041.821zm-.083-1.642H8.21c.054-.556.136-1.104.243-1.643h33.093c.108.539.19 1.087.244 1.643zM8.21 26.644h33.58a16.733 16.733 0 0 1-.243 1.642H8.453a17.133 17.133 0 0 1-.243-1.642zM25 8.127c7.886 0 14.506 5.445 16.347 12.767H8.653C10.494 13.572 17.114 8.127 25 8.127zm0 33.746c-7.885 0-14.505-5.444-16.346-12.766h32.693C39.505 36.429 32.885 41.873 25 41.873z"/></svg>