<svg xmlns="http://www.w3.org/2000/svg" id="Layer_1" x="0" y="0" version="1.1" viewBox="0 0 50 50" xml:space="preserve"><style>.st2{fill:#444}</style><path fill="#fcc34f" d="M45.4 13.2l-7.9-4.5L4.6 20.6v16.2l9.1 5.2 31.7-11.5z"/><path fill="#fdcf72" d="M25 1.5L4.6 13.2v7.4L37.5 8.7z"/><path d="M19.9 27.6c0 1.6-.7 1.8-1.3 1.8-.3 0-.7-.1-1.2-.2l-.5-.2v2.4l.2.1c.4.2.9.2 1.5.2 1.3 0 2.3-.4 2.9-1.1.7-.7 1-1.8 1-3.2v-9.3h-2.8c.2.1.2 9.5.2 9.5zM31.7 25c-.5-.4-1.1-.7-2.1-1.1-.8-.3-1.3-.6-1.6-.8-.3-.2-.5-.4-.6-.5-.1-.2-.2-.4-.2-.6 0-.4.1-.6.4-.9.3-.2.7-.3 1.3-.3.8 0 1.8.2 2.8.7l.3.1.9-2.3-.2-.3c-1.2-.5-2.5-.8-3.7-.8-1.3 0-2.4.3-3.2 1-.8.7-1.3 1.6-1.3 2.8 0 .9.3 1.7.8 2.4s1.4 1.2 2.6 1.7c1.3.5 1.9.9 2.1 1.1.3.3.4.6.4.9 0 .4-.1.7-.4 1-.5.4-1.8.5-3.3.2-.6-.1-1.2-.4-1.8-.6l-.5-.2V31l.2.1c.9.5 2.2.7 3.6.7 1.5 0 2.7-.3 3.6-1 .9-.7 1.3-1.7 1.3-2.9 0-.6-.1-1.2-.3-1.6-.3-.5-.6-1-1.1-1.3z" class="st2"/><path d="M25 49.5c-.6 0-1.1-.1-1.6-.4L5 38.4c-1-.6-1.6-1.6-1.6-2.8V14.4c0-1.1.6-2.2 1.6-2.8L23.4.9c1-.6 2.2-.6 3.2 0L45 11.6c1 .6 1.6 1.6 1.6 2.8v15.8c0 .7-.6 1.2-1.2 1.2s-1.2-.6-1.2-1.2V14.4c0-.2-.1-.5-.3-.6L25.3 3.1c-.2-.1-.5-.1-.7 0L6.2 13.8c-.2.1-.3.4-.3.6v21.3c0 .2.1.5.3.6l18.4 10.6c.2.1.5.1.7 0l12.5-7.2c.6-.3 1.4-.1 1.7.5.3.6.1 1.4-.5 1.7l-12.5 7.2c-.4.2-.9.4-1.5.4z" class="st2"/><path d="M25 43.2c-.4 0-.8-.1-1.1-.3l-13.9-8c-.6-.4-1-1.1-1-1.9V17c0-.8.4-1.5 1.1-1.9l13.9-8c.7-.4 1.5-.4 2.2 0l13.9 8c.7.4 1.1 1.1 1.1 1.9v16c0 .8-.4 1.5-1.1 1.9l-13.9 8c-.4.2-.8.3-1.2.3zm0-35.9c-.3 0-.6.1-.8.2l-13.9 8c-.5.3-.8.9-.8 1.5v16c0 .6.3 1.2.8 1.5l13.9 8c.5.3 1.2.3 1.7 0l13.9-8c.5-.3.8-.9.8-1.5V17c0-.6-.3-1.2-.8-1.5l-13.9-8c-.3-.1-.6-.2-.9-.2z" class="st2"/></svg>