<svg xmlns="http://www.w3.org/2000/svg" version="1.0" viewBox="0 0 50 50"><path fill="#c3ff68" d="M44.5 12.5l-5.6-3.6-7.6-4.4-5.9-2.8C22.2 1.7 4 10.6 4 13.8l-.5 7.8.5 15 11.4 7.5 30.8-11c.8-.4-.7-18.6-1.7-20.6z"/><path fill="none" stroke="#444" stroke-linecap="round" stroke-linejoin="round" stroke-miterlimit="10" stroke-width="2.5" d="M29.7 46.5l-2.2 1.3c-1.7 1-3.8 1-5.5 0l-15.6-9c-1.7-1-2.7-2.8-2.7-4.7v-18c0-2 1-3.8 2.7-4.7l15.6-9c1.7-1 3.8-1 5.5 0l15.6 9c1.7 1 2.7 2.8 2.7 4.7v18c0 2-1 3.8-2.7 4.7l-2.5 1.4"/><path fill="none" stroke="#444" stroke-linecap="round" stroke-linejoin="round" stroke-miterlimit="10" stroke-width=".5" d="M34.5 16.1h.5c2.8 0 4.2 0 5.1.9.9.9.9 2.3.9 5.1v4c0 2.8 0 4.2-.9 5.1-.9.9-2.3.9-5.1.9h-.5m1.5-16v16m4.5-11H36m4.5 6H36m-20.8 5h-.5c-2.8 0-4.2 0-5.1-.9-.9-.9-.9-2.3-.9-5.1v-4c0-2.8 0-4.2.9-5.1.9-.9 2.3-.9 5.1-.9h.5m-1.5 16v-16m0 5H9.2m4.5 6H9.2"/><path fill="none" stroke="#444" stroke-linecap="round" stroke-linejoin="round" stroke-miterlimit="10" d="M21.9 22.9h-.4c-2.4 0-3.6 0-4.3.7s-.7 1.9-.7 4.3v3.4c0 2.4 0 3.6.7 4.3s1.9.7 4.3.7h.4m5.9-13.4h.4c2.4 0 3.6 0 4.3.7.7.7.7 1.9.7 4.3v3.4c0 2.4 0 3.6-.7 4.3-.7.7-1.9.7-4.3.7h-.4m1.3-13.4v13.5m-8.5-13.5v13.5m-3.8-9.3h3.8m12.3 0h-3.8m-12.3 5h3.8m12.3 0h-3.8M25.8 9.5h-1.9c-.3 0-.5.4-.4.6l1 1.7c.2.3.6.3.7 0l1-1.7c.1-.3-.1-.6-.4-.6zm0 28.6h-1.9c-.3 0-.5-.4-.4-.6l1-1.7c.2-.3.6-.3.7 0l1 1.7c.1.2-.1.6-.4.6zm-.9-9.4v.8m0-4.2v.8m0 6v.8m0-14.8v.8m0-4.2v.8m0 6v.8"/></svg>