<?xml version="1.0" encoding="utf-8"?>
<!-- Generator: Adobe Illustrator 24.0.1, SVG Export Plug-In . SVG Version: 6.00 Build 0)  -->
<svg version="1.1" id="Layer_1" xmlns="http://www.w3.org/2000/svg" xmlns:xlink="http://www.w3.org/1999/xlink" x="0px" y="0px"
	 viewBox="0 0 50 50" style="enable-background:new 0 0 50 50;" xml:space="preserve">
<style type="text/css">
	.st0{fill:#AFE55D;}
	.st1{fill:#C3FF68;}
	.st2{fill:#444444;}
</style>
<g>
	<path class="st0" d="M38,12.8v9.4L19.4,29c-1.7-1.9-2.7-4.3-2.7-7v-9.1c0-5.9,4.8-10.6,10.6-10.6c2.9,0,5.6,1.2,7.5,3.1
		c0.9,0.9,1.7,2.1,2.2,3.3C37.7,9.9,38,11.3,38,12.8z"/>
	<path class="st1" d="M37.7,8.5l-21.3,7.7v-3.3c0-6.2,5-11.1,11.1-11.1c3,0,5.8,1.3,7.8,3.2C36.3,6.1,37.1,7.2,37.7,8.5z"/>
	<path class="st2" d="M39.5,46.5H28.6v-7.9c0-0.7-0.6-1.2-1.2-1.2c-4.8,0-9.1-2.2-12-5.7l3.6-1.3c2.2,2.2,5.2,3.4,8.3,3.4
		c6.5,0,11.7-5.1,11.9-11.6v-9.4c0-1.6-0.3-3.2-1-4.7c-0.6-1.4-1.4-2.6-2.5-3.7C33.5,2.2,30.6,1,27.4,1c-6.6,0-11.9,5.3-11.9,11.9
		V22c0,0.3,0,0.7,0,1c0,0.1,0,0.2,0,0.3c0,0.2,0.1,0.5,0.1,0.7c0,0.1,0,0.2,0.1,0.3c0,0.2,0.1,0.4,0.2,0.7c0,0.1,0,0.2,0.1,0.3
		c0.1,0.3,0.2,0.6,0.3,0.9c0,0.1,0,0.1,0.1,0.2c0.1,0.2,0.2,0.5,0.3,0.7c0,0.1,0.1,0.2,0.2,0.3c0.1,0.2,0.2,0.4,0.3,0.6
		c0.1,0.1,0.1,0.2,0.2,0.3c0,0.1,0.1,0.1,0.1,0.2l-3.4,1.2c-1.3-2.3-2-4.9-2-7.7c0-0.7-0.6-1.2-1.2-1.2c-0.6,0-1.5,0.5-1.5,1.2
		c0,9.5,7.4,17.3,16.7,17.9v6.7H15.1c-0.7,0-1.2,0.6-1.2,1.2c0,0.6,0.6,1.2,1.2,1.2h24.3c0.7,0,1.2-0.6,1.2-1.2
		C40.6,47.2,40.1,46.5,39.5,46.5z M27.4,3.4c2.5,0,4.9,1,6.6,2.8C34.8,7,35.5,8,36,9.1c0.5,1.2,0.8,2.4,0.8,3.7h-4.9
		c-0.5,0-0.8,0.3-0.8,0.8s0.4,0.8,0.8,0.8h4.9v2h-4.9c-0.5,0-0.8,0.3-0.8,0.8s0.4,0.8,0.8,0.8h4.9v2.4h-4.9c-0.5,0-0.8,0.3-0.8,0.8
		s0.4,0.8,0.8,0.8h4.9v0.1c-0.1,5.1-4.2,9.2-9.4,9.2c-2.7,0-5.3-1.2-7.1-3.2C18.8,26.4,18,24.3,18,22h4.8c0.4,0,0.8-0.3,0.8-0.8
		s-0.4-0.8-0.8-0.8H18c0-0.7,0-1.2,0-2.4h4.8c0.4,0,0.8-0.3,0.8-0.8s-0.4-0.8-0.8-0.8H18c0-1,0-1.4,0-2h4.8c0.4,0,0.8-0.3,0.8-0.8
		s-0.4-0.8-0.8-0.8H18C18,7.6,22.1,3.4,27.4,3.4z"/>
</g>
</svg>
