<svg xmlns="http://www.w3.org/2000/svg" id="Layer_1" data-name="Layer 1" version="1.1" viewBox="0 0 50 50"><defs><clipPath id="clippath"><path fill="none" stroke-width="0" d="M7.5 13.5h25.3v23.3H7.5z"/></clipPath><style>.cls-1{stroke-width:.5px}.cls-1,.cls-3{fill:none;stroke:#444;stroke-linecap:round;stroke-linejoin:round}</style></defs><path fill="#fcc34f" stroke-width="0" d="M44.5 4.7H6.3C5 4.7 2.2 7.7 2.2 9L2 24.8l-.5 9.5 1.2 10.9L17 46.4l29.9-10.6V7.1c0-1.3-1.1-2.4-2.3-2.4z"/><path fill="none" stroke="#444" stroke-linecap="round" stroke-linejoin="round" stroke-width="2.5" d="M32.5 45.5H5.4c-1.9 0-3.4-1.4-3.4-3.1V8.7C2 7 3.5 5.6 5.4 5.6h39.1c1.9 0 3.4 1.4 3.4 3.1v28.1"/><path d="M45 21.7c0 1.7-1.4 3.1-3.1 3.1s-1.9-.5-2.4-1.2-.7-1.2-.7-2c0-1.7 1.4-3.1 3.1-3.1s3.1 1.4 3.1 3.1zm-.6 8.1c0 1.7-1.4 3.1-3.1 3.1s-1.9-.5-2.4-1.2-.7-1.2-.7-2c0-1.7 1.4-3.1 3.1-3.1s3.1 1.4 3.1 3.1z" class="cls-3"/><path d="M8.1 17.2h25.1v16.3H8.1zm-1.9-3.3h28.3v3.3H6.2z" class="cls-1"/><path d="M6.2 33.4h28.3v3.3H6.2z" class="cls-1"/><g clip-path="url(#clippath)"><path d="M7.9 13.9v3.3m2.7-3.3v3.3m2.8-3.3v3.3m2.8-3.3v3.3m2.7-3.3v3.3m2.8-3.3v3.3m2.8-3.3v3.3m2.7-3.3v3.3m2.8-3.3v3.3m2.7-3.3v3.3M7.9 33.6v3.3m2.7-3.3v3.3m2.8-3.3v3.3m2.8-3.3v3.3m2.7-3.3v3.3m2.8-3.3v3.3m2.8-3.3v3.3m2.7-3.3v3.3m2.8-3.3v3.3m2.7-3.3v3.3" class="cls-1"/></g><path fill="#444" stroke-width="0" d="M39.8 24.2l-.7-2.3-3.6 1.7-2.2-1.9v2.8l-10 4.8s1.8 1.4 3 .9l8.9-4 3.1 2.7 1.3-1.6-2.4-2.1 2.4-1.1zm-4.2 1.3c-.4 0-.7-.3-.7-.7s.3-.7.7-.7.7.3.7.7-.3.7-.7.7z"/><path d="M26 24.9L17.4 20v9.8l8.6-4.9z" class="cls-3"/></svg>