<?xml version="1.0" encoding="UTF-8"?>
<svg xmlns="http://www.w3.org/2000/svg" version="1.1" viewBox="0 0 50 50">
  <defs>
    <style>
      .cls-1 {
        fill: #319327;
      }

      .cls-2, .cls-3, .cls-4 {
        fill: none;
        stroke: #444;
        stroke-linecap: round;
        stroke-linejoin: round;
      }

      .cls-3 {
        stroke-width: 2.5px;
      }

      .cls-5 {
        fill: #5aba52;
      }

      .cls-4 {
        stroke-width: .5px;
      }
    </style>
  </defs>
  <!-- Generator: Adobe Illustrator 28.6.0, SVG Export Plug-In . SVG Version: 1.2.0 Build 709)  -->
  <g>
    <g id="Camada_3">
      <g>
        <polygon class="cls-1" points="31.1 21.3 39 23.7 32.3 28.5 32.4 36.7 25.8 31.8 18 34.4 20.6 26.6 15.7 20.1 23.9 20.2 28.7 13.5 31.1 21.3"/>
        <g>
          <g>
            <g>
              <path class="cls-5" d="M47.7,15.6l.2-3.6-3.6-2.9-30.8-.5c-3.2,0-10.8-1.6-10.8,5.1l1,24.6,11,1.6,2.7,6,31-11c.7-.4.2-17.3-.8-19.3Z"/>
              <path class="cls-3" d="M34.6,43.1c.6-1.2,1-2.5,1.1-4h7.4c1.4,0,2.6-.6,3.5-1.5.9-.9,1.5-2.1,1.5-3.5V13.6c0-1.4-.6-2.6-1.5-3.5-.9-.9-2.1-1.5-3.5-1.5H7.7c-1.4,0-2.6.6-3.5,1.5s-1.5,2.1-1.5,3.5v20.5c0,1.4.6,2.6,1.5,3.5s2.1,1.5,3.5,1.5h7.4c.2,2.6,1.3,4.9,3,6.6,1.9,1.9,4.5,3,7.3,3"/>
            </g>
            <path class="cls-2" d="M21.7,35.1v7.9c0,1.1,1.1,1.8,2.1,1.3l7.4-4c1-.5,1-2,0-2.5l-7.4-4c-.9-.5-2.1.2-2.1,1.3Z"/>
            <path class="cls-2" d="M25.4,48.6c-5.3,0-9.6-4.3-9.6-9.6s4.3-9.6,9.6-9.6,9.6,4.3,9.6,9.6"/>
          </g>
          <g>
            <rect class="cls-2" x="17.7" y="12.8" width="26.8" height="3.6" rx="1.8" ry="1.8"/>
            <circle class="cls-2" cx="8.6" cy="14.6" r="1.6"/>
            <circle class="cls-2" cx="13.8" cy="14.6" r="1.6"/>
          </g>
          <line class="cls-4" x1="3.2" y1="19.6" x2="47.4" y2="19.6"/>
        </g>
      </g>
    </g>
  </g>
</svg>
