<svg xmlns="http://www.w3.org/2000/svg" id="Layer_1" x="0" y="0" version="1.1" viewBox="0 0 50 50" xml:space="preserve"><style>.st2{fill:#031326}</style><path fill="#a6c1c2" d="M38.9 5.2v-.4L11.1 15v29.4L39 34.2v-29z"/><path fill="#b9d7d9" d="M34.1 1.3H15.9c-2.7 0-4.9 1.8-4.9 4V15L38.9 4.9c-.2-2.1-2.3-3.6-4.8-3.6z"/><path d="M11.2 14.4h1.4V16h-1.4zm2.9 0h1.4V16h-1.4zm2.9 0h1.4V16H17zm3 0h1.4V16H20zm2.9 0h1.4V16h-1.4zm2.9 0h1.4V16h-1.4zm2.9 0h1.4V16h-1.4zm2.9 0H33V16h-1.4zm3 0H36V16h-1.4zm2.9 0h1.4V16h-1.4zM11.2 35.1h1.4v1.6h-1.4zm2.9 0h1.4v1.6h-1.4zm2.9 0h1.4v1.6H17zm3 0h1.4v1.6H20zm2.9 0h1.4v1.6h-1.4zm2.9 0h1.4v1.6h-1.4zm2.9 0h1.4v1.6h-1.4zm2.9 0H33v1.6h-1.4zm3 0H36v1.6h-1.4zm2.9 0h1.4v1.6h-1.4z" class="st2"/><path d="M34.1.3H15.9c-3.4 0-6.1 2.3-6.1 5.2v39c0 2.9 2.7 5.2 6.1 5.2h18.2c3.4 0 6.1-2.3 6.1-5.2v-39c0-2.9-2.7-5.2-6.1-5.2zm3.6 44.2c0 1.5-1.6 2.7-3.6 2.7H15.9c-2 0-3.6-1.2-3.6-2.7V34.1h.8v8.8c0 1.6 1.6 3 3.5 3h16.8c1.9 0 3.5-1.3 3.5-3v-8.8h.8v10.4zM20.6 5.8h8.9c.8 0 1.4-.6 1.4-1.2V4c0-.1.1-.1.2-.1h2.3c1.5 0 2.7 1 2.7 2.2V17H13.8V6.1c0-1.2 1.2-2.2 2.7-2.2h2.3c.2 0 .3.1.3.1v.5c0 .7.7 1.3 1.5 1.3zM31.1 25c0 3.3-2.7 6.1-6.1 6.1-3.3 0-6.1-2.7-6.1-6.1 0-3.3 2.7-6.1 6.1-6.1 3.3 0 6.1 2.8 6.1 6.1zm5.1 9.1v8.8c0 1.2-1.2 2.2-2.7 2.2H16.6c-1.5 0-2.7-1-2.7-2.2v-8.8h22.3zM37.7 17h-.8V6.1c0-1.6-1.6-3-3.5-3h-2.3c-.6 0-1 .4-1 .9v.5c0 .3-.3.5-.7.5h-8.9c-.4 0-.7-.2-.7-.5V4c0-.5-.4-.9-1-.9h-2.3c-1.9 0-3.5 1.3-3.5 3V17h-.8V5.5c0-1.5 1.6-2.7 3.6-2.7H34c2 0 3.6 1.2 3.6 2.7V17z" class="st2"/><path d="M24 22.2c-.5-.3-1 .1-1 .6v4.5c0 .5.6.9 1 .6l3.9-2.2c.5-.3.5-.9 0-1.2L24 22.2zm4.2-18h-6.8c-.2 0-.4-.2-.4-.4s.2-.4.4-.4h6.8c.2 0 .4.2.4.4s-.2.4-.4.4z" class="st2"/></svg>