<?xml version="1.0" encoding="utf-8"?>
<!-- Generator: Adobe Illustrator 27.5.0, SVG Export Plug-In . SVG Version: 6.00 Build 0)  -->
<svg version="1.1" id="Camada_1" xmlns="http://www.w3.org/2000/svg" xmlns:xlink="http://www.w3.org/1999/xlink" x="0px" y="0px"
	 viewBox="0 0 50 50" style="enable-background:new 0 0 50 50;" xml:space="preserve">
<style type="text/css">
	.st0{fill:#7F4ABF;}
	.st1{fill:none;}
	.st2{fill:#E5E5E5;}
</style>
<g>
	<g>
		<g>
			<g>
				<path class="st0" d="M41.8,2.6H8.1C5,2.6,2.5,5.1,2.5,8.1v31.3v2.5c0,3.1,2.5,5.6,5.6,5.6h0h33.7h0c1,0,1.9-0.2,2.7-0.7
					c1.7-0.9,2.9-2.8,2.9-4.9V23.6V8.1C47.4,5.1,44.9,2.6,41.8,2.6z"/>
			</g>
		</g>
	</g>
	<g>
		<path class="st1" d="M42.6,23.4c0.4,0,0.8-0.2,1.1-0.4s0.5-0.7,0.5-1.1c0-0.9-0.7-1.6-1.5-1.6c0,0,0,0,0,0c-0.9,0-1.6,0.7-1.6,1.5
			c0,0.4,0.2,0.8,0.4,1.1C41.8,23.2,42.2,23.4,42.6,23.4z"/>
		<path class="st1" d="M37.7,17.7c0.4,0,0.8-0.2,1.1-0.4s0.5-0.7,0.5-1.1s-0.2-0.8-0.4-1.1c-0.3-0.3-0.7-0.5-1.1-0.5c0,0,0,0,0,0
			c-0.4,0-0.8,0.2-1.1,0.4c-0.3,0.3-0.5,0.7-0.5,1.1C36.1,17,36.8,17.7,37.7,17.7z"/>
		<path class="st1" d="M40.2,12.8C40.2,12.8,40.1,12.8,40.2,12.8c-0.6,0-1-0.4-1-1c0-0.6,0.4-1,1-1l1.3,0c-1.2-1.6-3.1-2.6-5.2-2.6
			c-0.8,0-1.5,0.1-2.3,0.4c-0.5,0.2-0.8,0.6-0.8,1.1l0,5.3h1.2c0.5-1.4,1.8-2.4,3.4-2.3c1,0,1.8,0.4,2.5,1.1s1,1.6,1,2.5
			c0,2-1.6,3.5-3.6,3.5c0,0,0,0,0,0c-1.7,0-3.1-1.2-3.4-2.8h-1.1l0,2.9v1.3h6c0.3-1.6,1.8-2.8,3.5-2.9c2,0,3.5,1.6,3.5,3.6
			c0,1-0.4,1.8-1.1,2.5c-0.7,0.7-1.6,1-2.5,1c0,0,0,0,0,0c-1.5,0-2.8-0.9-3.3-2.3h-6.2v1.1c3.6,0.3,6.6,2.6,8,5.7
			c0.6-0.5,1.1-1.1,1.5-1.8c0.7-1.4,2.4-2,4-1.3c0.6,0.2,0.8,0.3,0.9,0.3V12.7h-2.9L40.2,12.8z"/>
		<path class="st1" d="M31.1,24.2l0-4.4V9.5c0-0.5-0.4-1-0.9-1.1c-0.5-0.1-1-0.2-1.5-0.2c-2.1,0-4,0.9-5.2,2.5l1.6,0
			c0.6,0,1,0.5,1,1c0,0.5-0.5,1-1,1c0,0,0,0,0,0l-3.8-0.1c-0.1,0-0.2,0.1-0.3,0.1c-3.1,0.6-5.4,3.3-5.4,6.5c0,2.8,1.8,5.3,4.4,6.3
			c0.8,0.3,1.5,1,1.9,1.8c0.3,0.9,0.9,1.6,1.5,2.3C24.8,26.7,27.7,24.6,31.1,24.2z M27,11.7c0.7-1.6,2.3-2.1,2.5-2.1
			c0.5-0.2,1.1,0.1,1.2,0.7c0.2,0.5-0.1,1.1-0.7,1.2c-0.3,0.1-1,0.4-1.3,1c-0.2,0.5-0.1,1,0.2,1.7c0.2,0.5,0,1.1-0.4,1.3
			c-0.1,0.1-0.3,0.1-0.4,0.1c-0.4,0-0.7-0.2-0.9-0.6C26.7,13.9,26.6,12.8,27,11.7z M23,25.1c-0.2,0.2-0.5,0.3-0.7,0.3
			s-0.5-0.1-0.7-0.3c-0.4-0.4-0.4-1,0-1.4c0.2-0.2,0.9-1.1,0.8-1.8c0-0.5-0.3-0.9-0.9-1.4c-0.4-0.3-0.5-1-0.2-1.4
			c0.3-0.4,1-0.5,1.4-0.2c1.2,1,1.6,2.1,1.6,2.8C24.5,23.6,23.2,25,23,25.1z M21.8,18.2c-0.5,0.2-1.1,0-1.3-0.5
			c-0.2-0.5,0-1.1,0.5-1.3c0.5-0.2,4.9-2,7.6,0c1.4,1.1,2,3,1.7,5.6c-0.1,0.5-0.5,0.9-1,0.9c0,0-0.1,0-0.1,0
			c-0.5-0.1-0.9-0.6-0.9-1.1c0.2-1.9-0.1-3.2-0.9-3.8C25.9,16.9,22.8,17.8,21.8,18.2z"/>
		<circle class="st2" cx="32.2" cy="31.3" r="2.6"/>
		<path class="st2" d="M32.2,34c-2.3,0-4.2,1.9-4.2,4.2h8.3C36.5,35.9,34.5,34,32.2,34z"/>
		<path class="st2" d="M28.3,21.8c-0.1,0.5,0.3,1,0.9,1.1c0,0,0.1,0,0.1,0c0.5,0,0.9-0.4,1-0.9c0.3-2.6-0.3-4.5-1.7-5.6
			c-2.7-2-7.1-0.2-7.6,0c-0.5,0.2-0.7,0.8-0.5,1.3c0.2,0.5,0.8,0.7,1.3,0.5c1.1-0.4,4.1-1.4,5.6-0.2C28.2,18.6,28.5,19.9,28.3,21.8z
			"/>
		<path class="st2" d="M28.2,15.7c0.1,0,0.3,0,0.4-0.1c0.5-0.2,0.7-0.8,0.4-1.3c-0.4-0.7-0.4-1.3-0.2-1.7c0.3-0.6,1-0.9,1.3-1
			c0.5-0.2,0.8-0.7,0.7-1.2c-0.2-0.5-0.7-0.8-1.2-0.7c-0.2,0.1-1.8,0.6-2.5,2.1c-0.4,1-0.3,2.2,0.3,3.5
			C27.5,15.5,27.8,15.7,28.2,15.7z"/>
		<path class="st2" d="M22.8,18.9c-0.4-0.3-1.1-0.3-1.4,0.2c-0.3,0.4-0.3,1.1,0.2,1.4c0.5,0.4,0.8,0.9,0.9,1.4
			c0,0.8-0.6,1.6-0.8,1.8c-0.4,0.4-0.4,1,0,1.4c0.2,0.2,0.5,0.3,0.7,0.3s0.5-0.1,0.7-0.3c0.2-0.2,1.5-1.5,1.4-3.4
			C24.4,21,24,19.9,22.8,18.9z"/>
		<path class="st2" d="M46.6,26.8c-1.5-0.6-3.2,0-4,1.3c-0.4,0.7-0.9,1.3-1.5,1.8c-1.4-3.2-4.4-5.4-8-5.7v-1.1h6.2
			c0.5,1.3,1.8,2.2,3.3,2.3c0,0,0,0,0,0c0.9,0,1.8-0.4,2.5-1c0.7-0.7,1.1-1.6,1.1-2.5c0-2-1.6-3.6-3.5-3.6c-1.7,0-3.2,1.2-3.5,2.9
			h-6v-1.3l0-2.9h1.1c0.3,1.6,1.8,2.8,3.4,2.8c0,0,0,0,0,0c1.9,0,3.5-1.6,3.6-3.5c0-1-0.4-1.8-1-2.5s-1.6-1.1-2.5-1.1
			c-1.5,0-2.8,1-3.4,2.3h-1.2l0-5.3c0-0.5,0.3-0.9,0.8-1.1c0.7-0.3,1.5-0.4,2.3-0.4c2.1,0,4,1,5.2,2.6l-1.3,0c-0.6,0-1,0.5-1,1
			c0,0.5,0.5,1,1,1c0,0,0,0,0,0l4.4-0.1h2.9v-2h-2.2c0,0,0,0-0.1,0l-0.7,0h-0.1c-0.4,0-0.7-0.2-1-0.6c-1.6-2.4-4.3-3.9-7.2-3.9
			c-1,0-2,0.2-2.9,0.5c-0.4,0.1-0.8,0.4-1.1,0.6c-0.4-0.4-0.9-0.7-1.5-0.9c-0.6-0.1-1.3-0.2-2-0.2c-3,0-5.8,1.5-7.4,4.1
			c-0.1,0.2-0.3,0.3-0.4,0.4c-0.2,0-0.4,0.1-0.5,0.2c-4,0.9-6.8,4.4-6.8,8.5c0,3.6,2.3,6.9,5.7,8.1c0.3,0.1,0.6,0.4,0.7,0.7
			c0.6,1.4,1.5,2.6,2.6,3.6c-0.2,0.7-0.3,1.5-0.3,2.3c0,5.5,4.4,9.8,9.8,9.8c2.4,0,4.6-0.9,6.2-2.3l3.8,3.8c0.2,0.2,0.4,0.2,0.7,0.2
			c0.2,0,0.4-0.1,0.7-0.2c0.3-0.4,0.3-1,0-1.3l-3.8-3.8c1.4-1.8,2.3-3.9,2.3-6.2c0-0.7-0.1-1.4-0.2-2c1-0.7,1.9-1.7,2.6-2.9
			c0.3-0.5,0.9-0.7,1.5-0.4c0.7,0.3,1.2,0.4,1.6,0.4v-2C47.4,27,47.2,27,46.6,26.8z M42.6,20.3C42.6,20.3,42.6,20.3,42.6,20.3
			c0.9,0,1.6,0.7,1.6,1.6c0,0.4-0.2,0.8-0.5,1.1s-0.7,0.4-1.1,0.4c-0.4,0-0.8-0.2-1.1-0.5c-0.3-0.3-0.5-0.7-0.4-1.1
			C41.1,21,41.8,20.3,42.6,20.3z M36.6,15.1c0.3-0.3,0.7-0.4,1.1-0.4c0,0,0,0,0,0c0.4,0,0.8,0.2,1.1,0.5c0.3,0.3,0.5,0.7,0.4,1.1
			s-0.2,0.8-0.5,1.1s-0.7,0.5-1.1,0.4c-0.9,0-1.6-0.7-1.5-1.6C36.1,15.8,36.3,15.4,36.6,15.1z M21.9,27.4c-0.3-0.8-1-1.5-1.9-1.8
			c-2.6-1-4.4-3.5-4.4-6.3c0-3.2,2.3-5.9,5.4-6.5c0.1,0,0.2-0.1,0.3-0.1l3.8,0.1c0,0,0,0,0,0c0.5,0,1-0.4,1-1c0-0.6-0.4-1-1-1
			l-1.6,0c1.3-1.6,3.2-2.5,5.2-2.5c0.5,0,1,0.1,1.5,0.2c0.5,0.1,0.9,0.6,0.9,1.1v10.4l0,4.4c-3.4,0.4-6.3,2.5-7.7,5.4
			C22.7,29,22.2,28.3,21.9,27.4z M32.2,42c-4.4,0-8-3.6-8-8c0-0.4,0-0.8,0.1-1.2c1.1,0.6,1.2,0.8,2.6,0.8c0.6,0,1-0.4,1-1
			s-0.4-1-1-1c-1.2,0-1-0.2-2-0.8c1.1-2.5,3.5-4.4,6.3-4.7c0.7-0.1,1.3-0.1,1.9,0c2.9,0.3,5.4,2.3,6.5,4.9c-0.9,0.4-1,0.6-2,0.6
			c0,0,0,0-0.1,0c-0.5,0-1,0.4-1,1c0,0.6,0.4,1,1,1c0,0,0,0,0.1,0c1.2,0,1.5-0.3,2.5-0.7c0,0.3,0.1,0.7,0.1,1.1
			C40.2,38.4,36.6,42,32.2,42z"/>
	</g>
</g>
</svg>
