<?xml version="1.0" encoding="UTF-8"?>
<svg id="Layer_1" xmlns="http://www.w3.org/2000/svg" version="1.1" viewBox="0 0 50 50">
  <!-- Generator: Adobe Illustrator 29.1.0, SVG Export Plug-In . SVG Version: 2.1.0 Build 142)  -->
  <defs>
    <style>
      .st0, .st1, .st2, .st3 {
        fill: none;
        stroke: #444;
      }

      .st0, .st1, .st3 {
        stroke-linecap: round;
        stroke-linejoin: round;
      }

      .st1 {
        stroke-width: 2.5px;
      }

      .st2 {
        stroke-miterlimit: 10;
      }

      .st4 {
        fill: #fc9d9a;
      }

      .st3 {
        stroke-width: .5px;
      }
    </style>
  </defs>
  <g id="Camada_1">
    <g>
      <path class="st4" d="M46.6,9l-5.9-.8-12.8.4H5.1c-3.1,0-2.2,24.2-2.2,27.3l-1.3,1.9.7,4.6h15.6l30-10.7c.7-.4-.4-20.8-1.3-22.8h0Z"/>
      <g>
        <g>
          <path class="st2" d="M9.3,34.1h31.5c1.6,0,2.9-1.3,2.9-2.9V14.4c0-1.6-1.3-2.9-2.9-2.9H9.3c-1.6,0-2.9,1.3-2.9,2.9v16.7c0,1.6,1.3,2.9,2.9,2.9h0Z"/>
          <path class="st0" d="M22.9,23.8c-2.8,0-5,2.3-5,5v5.2h14.1v-5.2c0-2.8-2.3-5-5-5"/>
          <g>
            <line class="st0" x1="21.4" y1="29.5" x2="21.4" y2="33.7"/>
            <line class="st0" x1="28.5" y1="29.5" x2="28.5" y2="33.7"/>
          </g>
          <circle class="st2" cx="24.9" cy="19.7" r="3.2"/>
        </g>
        <path class="st1" d="M48.8,38.5c0-.6-.5-1.1-1.1-1.1h-.9c-.5,0-.7-.6-.4-.9.5-.5.8-1.3.8-2V11.3c0-1.6-1.3-3-3-3H5.8c-1.6,0-3,1.3-3,3v23.2c0,.8.3,1.5.8,2s0,.9-.4.9h-.9c-.6,0-1.1.5-1.1,1.1v1.3c0,1.6,1.1,2.9,2.5,2.9h38"/>
        <line class="st0" x1="6.1" y1="37.1" x2="43.1" y2="37.1"/>
        <path class="st3" d="M17.9,38.3v.7c0,.9.7,1.6,1.6,1.6h11.1c.9,0,1.6-.7,1.6-1.6v-.7"/>
      </g>
    </g>
  </g>
</svg>