<?xml version="1.0" encoding="UTF-8"?>
<svg xmlns="http://www.w3.org/2000/svg" version="1.1" viewBox="0 0 50 50">
  <defs>
    <style>
      .cls-1, .cls-2, .cls-3, .cls-4 {
        fill: none;
        stroke: #444;
      }

      .cls-1, .cls-2, .cls-4 {
        stroke-linecap: round;
        stroke-linejoin: round;
      }

      .cls-5 {
        fill: #dc5e82;
      }

      .cls-2 {
        stroke-width: 2.5px;
      }

      .cls-3 {
        stroke-miterlimit: 10;
      }

      .cls-4 {
        stroke-width: .5px;
      }
    </style>
  </defs>
  <!-- Generator: Adobe Illustrator 28.7.1, SVG Export Plug-In . SVG Version: 1.2.0 Build 142)  -->
  <g>
    <g id="Camada_1">
      <g>
        <path class="cls-5" d="M46.2,9.6l-5.9-.8-12.8.4H4.7c-3.1,0-2.2,24.2-2.2,27.3l-1.3,1.9.7,4.6h15.6c0,0,30-10.7,30-10.7.7-.4-.4-20.8-1.3-22.8Z"/>
        <g>
          <g>
            <path class="cls-3" d="M8.9,34.7h31.5c1.6,0,2.9-1.3,2.9-2.9V15c0-1.6-1.3-2.9-2.9-2.9H8.9c-1.6,0-2.9,1.3-2.9,2.9v16.7c0,1.6,1.3,2.9,2.9,2.9Z"/>
            <path class="cls-1" d="M22.5,24.4c-2.8,0-5,2.3-5,5v5.2h14.1v-5.2c0-2.8-2.3-5-5-5"/>
            <g>
              <line class="cls-1" x1="21" y1="30.1" x2="21" y2="34.3"/>
              <line class="cls-1" x1="28.1" y1="30.1" x2="28.1" y2="34.3"/>
            </g>
            <circle class="cls-3" cx="24.5" cy="20.3" r="3.2"/>
          </g>
          <path class="cls-2" d="M48.4,39.1c0-.6-.5-1.1-1.1-1.1h-.9c-.5,0-.7-.6-.4-.9.5-.5.8-1.3.8-2V11.9c0-1.6-1.3-3-3-3H5.4c-1.6,0-3,1.3-3,3v23.2c0,.8.3,1.5.8,2s0,.9-.4.9h-.9c-.6,0-1.1.5-1.1,1.1v1.3c0,1.6,1.1,2.9,2.5,2.9h38"/>
          <line class="cls-1" x1="5.7" y1="37.7" x2="42.7" y2="37.7"/>
          <path class="cls-4" d="M17.5,38.9v.7c0,.9.7,1.6,1.6,1.6h11.1c.9,0,1.6-.7,1.6-1.6v-.7"/>
        </g>
      </g>
    </g>
  </g>
</svg>