<?xml version="1.0" encoding="UTF-8"?>
<svg id="Camada_3" xmlns="http://www.w3.org/2000/svg" version="1.1" viewBox="0 0 50 50">
  <!-- Generator: Adobe Illustrator 29.1.0, SVG Export Plug-In . SVG Version: 2.1.0 Build 142)  -->
  <defs>
    <style>
      .st0 {
        fill: #f9f941;
      }

      .st1, .st2 {
        fill: none;
        stroke: #444;
        stroke-linecap: round;
        stroke-linejoin: round;
      }

      .st2 {
        stroke-width: 2.5px;
      }

      .st3 {
        fill: #d1bd00;
      }
    </style>
  </defs>
  <polygon class="st3" points="29.1 20.2 36.9 22.6 30.2 27.4 30.3 35.6 23.7 30.7 16 33.3 18.6 25.5 13.7 18.9 21.9 19 26.6 12.3 29.1 20.2"/>
  <g>
    <g>
      <path class="st0" d="M48.1,20.1c-.2-.8-2.7-7.5-3.2-8.1l-3-3.5h-.2c0,0-7.6-5.7-7.6-5.7l-7.8-.7c-3.2,0-14.5.3-21.4,10.2L1,23h-.2c0,0,4,13.5,4,13.5.1.4,4.5,5.7,4.9,5.9l5.6,3,32.2-11.7c.7-.4,1.7-8.6.8-13.4Z"/>
      <g>
        <path class="st2" d="M32.4,47.4c-7,2.3-15,1.2-21.3-3.6C.8,36.1-1.3,21.4,6.5,11"/>
        <path class="st2" d="M6.3,11.2c2-3,4.7-4.7,4.7-4.7l.7-.5C19.8.2,31,.1,39.3,6.4c10.4,7.8,12.4,22.5,4.7,32.8"/>
      </g>
    </g>
    <g>
      <path class="st1" d="M29.1,12.1c.5,0,.8.4.8.8s-.4.8-.8.8-.8-.4-.8-.8.4-.8.8-.8h0ZM25.3,12.1c.4,0,.8.4.8.8s-.4.8-.8.8-.8-.4-.8-.8.4-.8.8-.8h0ZM21.4,12.1c.5,0,.8.4.8.8s-.4.8-.8.8-.8-.4-.8-.8.4-.8.8-.8h0ZM31.4,8.7h-12.2c-.2,0-.3,0-.4.2,0,.1-.2.2-.2.4v7.2c0,.2,0,.3.2.4.1,0,.2.2.4.2h1.6c.2,0,.3,0,.5.2.1.1.2.3.2.5v.4l1-.9c0,0,.1-.1.2-.1,0,0,.2,0,.2,0h8.6c.2,0,.3,0,.4-.2,0-.1.2-.2.2-.4v-7.2c0-.2,0-.3-.2-.4,0,0-.2-.2-.4-.2h0ZM20.5,26.7c-.7-.5-1.6-.9-2.5-.9s-1.8.3-2.5.9c-.7.6-1.2,1.4-1.4,2.3,0,0,0,.1,0,.2,0,0,0,0,0,.1,0,0,0,0,.1.1,0,0,0,0,.2,0h7.1c0,0,.1,0,.2,0h.1c0-.2,0-.2,0-.2,0,0,0-.1,0-.2-.2-.9-.7-1.8-1.4-2.3h0ZM18,20.7c.6,0,1.1.2,1.5.6s.6.9.6,1.5-.2,1.1-.6,1.5h0c-.4.4-.9.6-1.5.6s-1.1-.2-1.5-.6c-.4-.4-.6-.9-.6-1.5s.2-1.1.6-1.5h0c.4-.4.9-.6,1.5-.6h0ZM32.5,30.7c2.1,0,4,.8,5.6,2,1.5,1.3,2.7,3.1,3.1,5.1,0,.3,0,.6,0,.9s-.2.5-.4.8c-.2.3-.4.4-.7.6-.3.1-.6.2-.9.2h-13.4c-.3,0-.6,0-.8-.2-.3-.1-.5-.3-.7-.6-.2-.2-.3-.5-.4-.8,0-.3,0-.6,0-.9.4-2.1,1.6-3.9,3.1-5.1,1.5-1.2,3.5-2,5.6-2h0ZM32.5,21.3c1.1,0,2.2.5,3,1.2.8.8,1.2,1.8,1.2,3s-.5,2.2-1.2,2.9h0c-.8.8-1.8,1.2-3,1.2s-2.2-.5-2.9-1.2h0c-.8-.8-1.2-1.8-1.2-2.9s.5-2.2,1.2-3c.8-.8,1.8-1.2,2.9-1.2h0Z"/>
      <path class="st1" d="M17,15.3h-5c-.9,0-1.6.7-1.6,1.6v13.6"/>
      <path class="st1" d="M35.6,19.4v-2.5c0-.9-.7-1.6-1.6-1.6h-1"/>
      <path class="st1" d="M22.8,36.2h-11.6c-1.8,0-3.3-1.5-3.3-3.3h0c0-.6.5-1,1-1h15.2"/>
    </g>
  </g>
</svg>