<?xml version="1.0" encoding="utf-8"?>
<!-- Generator: Adobe Illustrator 26.5.0, SVG Export Plug-In . SVG Version: 6.00 Build 0)  -->
<svg version="1.1" id="Camada_3" xmlns="http://www.w3.org/2000/svg" xmlns:xlink="http://www.w3.org/1999/xlink" x="0px" y="0px"
	 viewBox="0 0 50 50" style="enable-background:new 0 0 50 50;" xml:space="preserve">
<style type="text/css">
	.st0{fill:#F799FF;}
	.st1{fill:#E589EF;}
	.st2{fill:none;stroke:#444444;stroke-width:2.5;stroke-linecap:round;stroke-linejoin:round;stroke-miterlimit:10;}
	.st3{fill:none;stroke:#444444;stroke-linecap:round;stroke-linejoin:round;stroke-miterlimit:10;}
	.st4{fill:none;stroke:#444444;stroke-width:0.5;stroke-linecap:round;stroke-linejoin:round;stroke-miterlimit:10;}
	.st5{fill:none;stroke:#494949;stroke-width:0.5;stroke-miterlimit:10;}
</style>
<g>
	<polygon class="st0" points="47.04,10.05 46.5,17.52 2.66,33.47 2.67,24 2.98,12.7 28.98,3.24 47.1,2.78 	"/>
	<polygon class="st1" points="46.85,26.21 47.24,30.37 2.47,46.67 2.6,37.89 2.93,24.84 47.53,8.61 46.85,20.21 	"/>
	<polyline class="st2" points="32.73,47.22 2.77,47.22 2.77,2.78 47.51,2.78 47.51,37.22 	"/>
	<g>
		<g>
			<path class="st3" d="M18.38,21.21c-4.28,0-7.7,2.31-7.7,5.13v8.56"/>
			<path class="st3" d="M18.38,21.21c1.99,0,3.42-1.4,3.42-3.42v-1.71c0-2.03-1.43-3.42-3.42-3.42c-1.99,0-3.42,1.4-3.42,3.42v1.71
				C14.96,19.82,16.39,21.21,18.38,21.21z"/>
			<line class="st3" x1="14.1" y1="27.2" x2="14.1" y2="34.9"/>
			<line class="st3" x1="22.66" y1="27.2" x2="22.66" y2="46.03"/>
			<line class="st3" x1="14.1" y1="41.75" x2="14.1" y2="46.03"/>
			<line class="st3" x1="19.24" y1="34.9" x2="19.24" y2="46.03"/>
			<rect x="7.26" y="34.9" class="st3" width="8.56" height="6.85"/>
			<path class="st4" d="M27.57,24.64h6.44v5.03c0,0.83,1.07,1.17,1.55,0.5L40,24.64h1.03c0.95,0,1.71-0.77,1.71-1.71V8.38
				c0-0.94-0.77-1.71-1.71-1.71H9.66c-0.94,0-1.71,0.77-1.71,1.71v14.55c0,0.95,0.77,1.71,1.71,1.71"/>
			<path class="st3" d="M22.71,30.63V27.2h0.92c0,0,2.7,1.41,4.42,2.25c1.76,0.86,3.05-0.98,3.05-0.98s-2.66-2.51-4.12-3.83
				c-1.53-1.38-3.23-2.57-5.99-2.57"/>
		</g>
		<g>
			<g>
				<g>
					<path class="st5" d="M32.7,17.97L32.7,17.97c-0.55,0-1.02-0.41-1.09-0.96l-0.6-4.67c-0.09-0.72,0.29-1.43,0.94-1.75l0,0
						c0.47-0.23,1.01-0.23,1.48,0l0,0c0.66,0.32,1.04,1.02,0.94,1.75l-0.6,4.67C33.72,17.56,33.26,17.97,32.7,17.97z"/>
				</g>
				<circle class="st5" cx="32.7" cy="20.83" r="1.32"/>
			</g>
			<g>
				<g>
					<path class="st5" d="M37.18,15.36L37.18,15.36c-0.44-0.08-0.75-0.46-0.72-0.91l0.18-3.76c0.03-0.58,0.43-1.08,0.99-1.24l0,0
						c0.4-0.11,0.83-0.04,1.17,0.21l0,0c0.47,0.34,0.68,0.95,0.5,1.51l-1.12,3.6C38.04,15.18,37.62,15.44,37.18,15.36z"/>
				</g>
				<path class="st5" d="M37.83,17.8c-0.1,0.58-0.65,0.96-1.23,0.86c-0.58-0.1-0.96-0.65-0.86-1.23c0.1-0.58,0.65-0.96,1.23-0.86
					C37.55,16.67,37.93,17.22,37.83,17.8z"/>
			</g>
			<g>
				<g>
					<path class="st5" d="M28.23,15.36L28.23,15.36c-0.44,0.08-0.86-0.18-0.99-0.6l-1.12-3.6c-0.17-0.56,0.03-1.16,0.5-1.51l0,0
						c0.34-0.24,0.77-0.32,1.17-0.21l0,0c0.56,0.16,0.96,0.66,0.99,1.24l0.18,3.76C28.97,14.89,28.66,15.28,28.23,15.36z"/>
				</g>
				<path class="st5" d="M29.67,17.43c0.1,0.58-0.28,1.12-0.86,1.23c-0.58,0.1-1.12-0.28-1.23-0.86c-0.1-0.58,0.28-1.12,0.86-1.23
					C29.01,16.47,29.56,16.85,29.67,17.43z"/>
			</g>
		</g>
	</g>
</g>
</svg>
