<?xml version="1.0" encoding="utf-8"?>
<!-- Generator: Adobe Illustrator 28.0.0, SVG Export Plug-In . SVG Version: 6.00 Build 0)  -->
<svg version="1.1" id="Layer_1" xmlns="http://www.w3.org/2000/svg" xmlns:xlink="http://www.w3.org/1999/xlink" x="0px" y="0px"
	 viewBox="0 0 50 50" style="enable-background:new 0 0 50 50;" xml:space="preserve">
<style type="text/css">
	.st0{fill:#D1BD00;}
	.st1{fill:#F9F941;}
	.st2{fill:none;stroke:#444444;stroke-width:2.5;stroke-linecap:round;stroke-linejoin:round;stroke-miterlimit:10;}
	.st3{fill:none;stroke:#444444;stroke-width:0.5;stroke-linecap:round;stroke-linejoin:round;stroke-miterlimit:10;}
	.st4{fill:#444444;}
	.st5{fill:none;stroke:#444444;stroke-miterlimit:10;}
	.st6{fill:none;stroke:#444444;stroke-linejoin:round;stroke-miterlimit:10;}
</style>
<polygon class="st0" points="28.8,21.1 36.6,23.5 29.9,28.3 30,36.5 23.5,31.6 15.7,34.2 18.3,26.4 13.4,19.8 21.6,19.9 26.4,13.2 
	"/>
<path class="st1" d="M6.2,33.2l-3.9,0.5c0,4.7,0.8,7,19,4.9L45,30.3L44.8,16l0-3.1c-0.5-2.5-2.2-3.2-3.2-3.2L8.5,9.9
	c-1,0-2.9,1.3-2.9,2.3v9.2"/>
<path class="st2" d="M38.5,38.9H5.9c-2,0-3.6-1.6-3.6-3.6v-2.1h3.5V12.3c0-1.4,1.2-2.6,2.6-2.6h33.5c1.4,0,2.6,1.2,2.6,2.6v20.9h3.3
	V35"/>
<g>
	<line class="st3" x1="9.4" y1="16.5" x2="40.9" y2="16.5"/>
	<circle class="st4" cx="16.6" cy="14.8" r="0.7"/>
	<circle class="st4" cx="14.1" cy="14.8" r="0.7"/>
	<circle class="st4" cx="11.6" cy="14.8" r="0.7"/>
</g>
<path class="st5" d="M9.1,33.7V13.9c0-0.6,0.5-1.2,1.2-1.2h29.4c0.6,0,1.2,0.5,1.2,1.2v19.8"/>
<circle class="st3" cx="13.8" cy="30.5" r="1.4"/>
<circle class="st3" cx="16.8" cy="25.9" r="1.4"/>
<circle class="st3" cx="22" cy="30.1" r="1.4"/>
<circle class="st3" cx="28.8" cy="23.2" r="1.4"/>
<polygon class="st3" points="21.5,19 22.4,20.9 24.5,21.2 23,22.6 23.3,24.6 21.5,23.6 19.7,24.6 20.1,22.6 18.6,21.2 20.6,20.9 "/>
<polygon class="st3" points="34,26 35,27.8 37,28.1 35.5,29.5 35.9,31.6 34,30.6 32.2,31.6 32.6,29.5 31.1,28.1 33.1,27.8 "/>
<line class="st3" x1="14.5" y1="29.4" x2="16" y2="27.1"/>
<line class="st3" x1="17.8" y1="26.9" x2="20.8" y2="29.2"/>
<line class="st3" x1="23.1" y1="29.3" x2="27.9" y2="24.3"/>
<line class="st6" x1="5.6" y1="33.9" x2="44.4" y2="33.9"/>
<circle class="st3" cx="34.9" cy="19.6" r="1.4"/>
<line class="st3" x1="29.9" y1="22.4" x2="33.7" y2="20.3"/>
</svg>
