<svg version="1" xmlns="http://www.w3.org/2000/svg" viewBox="0 0 50 50"><path fill="#B9D78D" d="M11.458 30.736l28.146-10.244.02-.154C35.93 10.198 20.468 2.968 17.296 1.576a.65.65 0 0 0-.85.31c-1.535 3.105-8.732 18.58-5.04 28.722.014.043.035.085.05.128z"/><path fill="#CFF09E" d="M32 10.892c-5.84-5.036-13.1-8.41-15.16-9.316a.65.65 0 0 0-.85.31c-1 2.02-4.39 9.268-5.625 16.88L32 10.892z"/><g fill="#444"><path d="M23.17 35.726a5.72 5.72 0 0 0 5.37 3.757 5.715 5.715 0 0 0 5.36-7.663 5.713 5.713 0 0 0-3.482-3.425 5.676 5.676 0 0 0 .462-4.875 5.653 5.653 0 0 0-3.56-3.46 5.676 5.676 0 0 0 .498-4.95 5.67 5.67 0 0 0-2.953-3.22 5.666 5.666 0 0 0-4.365-.19 5.67 5.67 0 0 0-3.222 2.952 5.673 5.673 0 0 0-.19 4.366 5.696 5.696 0 0 0 3.575 3.453 5.736 5.736 0 0 0-.513 4.957 5.696 5.696 0 0 0 3.47 3.433 5.7 5.7 0 0 0-.45 4.866zm-1.287-8.93a3.87 3.87 0 0 1 .904-4.04c.055-.004.108.003.162-.002.506-.045.882-.492.837-1s-.49-.89-1-.837a3.866 3.866 0 0 1-3.966-2.53 3.84 3.84 0 0 1 .13-2.956 3.84 3.84 0 0 1 2.182-1.998 3.845 3.845 0 0 1 2.955.13 3.837 3.837 0 0 1 1.998 2.18 3.845 3.845 0 0 1-1.07 4.22l-.472.482.48 1.164.602.014a3.82 3.82 0 0 1 3.522 2.528 3.83 3.83 0 0 1-.8 3.933c-.22.007-.44.008-.663.042a.923.923 0 1 0 .276 1.824 3.868 3.868 0 0 1 4.077 5.457 3.835 3.835 0 0 1-2.18 2 3.873 3.873 0 0 1-4.955-2.31 3.85 3.85 0 0 1 .983-4.138l.432-.454-.42-1.145-.606-.033a3.844 3.844 0 0 1-3.407-2.53z"/><path d="M40.706 19.944C36.85 9.348 20.916 1.904 17.76.52a1.807 1.807 0 0 0-2.347.855c-1.527 3.09-8.947 19.033-5.09 29.627C13.432 39.55 28.42 47.465 32.94 49.69a1.823 1.823 0 0 0 1.418.077 1.82 1.82 0 0 0 1.035-.973 95.55 95.55 0 0 0 2.75-7.02 1.152 1.152 0 0 0-2.18-.756 94.557 94.557 0 0 1-2.473 6.372c-3.924-1.968-18.238-9.58-21.002-17.176C9.1 20.907 15.455 6.592 17.27 2.827c3.81 1.717 17.88 8.596 21.27 17.906.217.598.88.906 1.477.69.598-.22.906-.88.69-1.48z"/></g></svg>