<svg xmlns="http://www.w3.org/2000/svg" viewBox="0 0 50 50"><path fill="#00c8e2" d="M48.2 26.1c0-3.9-2.4-7.3-6-8.6.2-.8.2-1.7.2-2.5 0-1.8-.4-3.6-1-5.1L1.8 24.3c.1 3.7 2.5 7 6 8.3-.2.8-.2 1.6-.2 2.5 0 3.1 1.1 5.9 2.8 8.1l37-13.5c.5-1.2.8-2.4.8-3.6z"/><path fill="#00dffc" d="M29.3 1.9c-4.2 0-8.1 2-10.6 5.5C17.5 6.5 16 6 14.5 6c-3.8 0-7 3.1-7 7 0 .8.2 1.7.4 2.4-3.6 1.2-6.1 4.7-6.1 8.6v.4L41.4 9.9c-2-4.7-6.7-8-12.1-8z"/><path fill="#444" d="M43.6 16.7c.1-.6.1-1.2.1-1.7C43.7 7.1 37.3.6 29.3.6c-4.2 0-8.2 1.9-10.9 5-1.2-.7-2.5-1-4-1-4.5 0-8.2 3.7-8.2 8.2 0 .6.1 1.1.2 1.7C2.9 16.2.5 19.8.5 23.8c0 4.1 2.3 7.7 5.9 9.4-.1.6-.1 1.1-.1 1.7 0 7.9 6.4 14.3 14.3 14.3 4.6 0 8.9-2.2 11.6-6 .3-.4.3-.9.1-1.3 0-.1.1-.1.1-.2l1.5-7.9 7 1.6h.2c.3.4.9.5 1.4.4 4.1-1.5 6.9-5.4 6.9-9.8.1-4-2.2-7.5-5.8-9.3zM20.1 8.6c2.1-3 5.5-4.8 9.2-4.8 6.2 0 11.2 5 11.2 11.2 0 .7-.1 1.4-.2 2l-10.1 8.8-9.9-4.5-1.9-4 1.7-8.7zm-5.7-.9c1 0 2 .3 2.9.9l-1.4 7.2-6.3-1.5c-.1-.5-.2-1-.2-1.5-.1-2.8 2.2-5.1 5-5.1zM3.7 23.9c0-3.1 2-5.9 4.9-6.9l7.4 1.7 1.6 3.3-9.5 8.6c-2.7-1.1-4.4-3.8-4.4-6.7zm17 22.3c-6.2 0-11.2-5-11.2-11.2 0-.7.1-1.4.2-2.1l9.8-8.9 9.9 4.5 2.2 4.1-1.7 8.7c-2.1 3.1-5.5 4.9-9.2 4.9zm12.5-13.5l-1.7 8.7c-.2 0-.4 0-.7.1l1.7-9-2.5-4.7-10.8-4.9-10 9.1v-.2l-.7-.2 10.2-9.2-2.1-4.5-7.3-1.7h.1l-.3-.8 7.4 1.7 1.7-8.4.8.4.1-.2-1.7 8.5 2.2 4.6 10.8 5 10.5-9.2-.1.5.6.2L31 27.6l2.4 4.5 7.9 1.8-.3.6-7.8-1.8zm8.2.3L34 31.2l-1.8-3.4 9.7-8.5c2.7 1.2 4.4 3.8 4.4 6.7 0 3.1-2 5.9-4.9 7z"/></svg>