<svg xmlns="http://www.w3.org/2000/svg" version="1" viewBox="0 0 50 50"><path fill="#AFE55D" d="M10.423 41.195L46.566 28.04c.14-.996.237-2.005.237-3.04 0-12.041-9.762-21.803-21.803-21.803S3.197 12.959 3.197 25c0 6.433 2.794 12.205 7.226 16.195z"/><path fill="#C3FF68" d="M35.633 5.945a21.687 21.687 0 00-10.588-2.748c-9.294 0-17.22 5.821-20.357 14.011L35.633 5.945z"/><path fill="#031326" d="M25 1.334C11.95 1.334 1.333 11.951 1.333 25S11.95 48.666 25 48.666a23.594 23.594 0 0018.321-8.684 1.214 1.214 0 00-.169-1.707l.02-.026-.377-.448a11.113 11.113 0 00-8.523-3.984H5.687a21.106 21.106 0 01-.782-1.96h26.893a6.825 6.825 0 004.854-2.004 6.864 6.864 0 002.027-4.848V25a6.865 6.865 0 00-6.857-6.857H4.905c.229-.669.49-1.323.782-1.96h28.585c3.051 0 5.935-1.263 8.036-3.465a21.112 21.112 0 013.929 12.283c0 .823-.047 1.651-.141 2.463a1.216 1.216 0 001.067 1.347 1.222 1.222 0 001.346-1.068 24.09 24.09 0 00.158-2.742C48.667 11.951 38.05 1.334 25 1.334zM6.537 14.725a20.966 20.966 0 017.684-7.9 23.724 23.724 0 016.433 7.9H6.537zM22.575 25c0 1.876-.192 3.686-.559 5.399H4.564A21.06 21.06 0 013.865 25c0-1.835.235-3.649.699-5.399h17.413c.397 1.743.598 3.515.598 5.399zM6.537 35.275h14.117a23.722 23.722 0 01-6.433 7.9 20.966 20.966 0 01-7.684-7.9zm34.749 3.023c-4.023 4.95-9.947 7.775-16.347 7.775-3.581 0-6.989-.891-9.991-2.502a24.525 24.525 0 006.559-8.297h12.766a9.658 9.658 0 017.013 3.024zm-4.065-13.3a5.412 5.412 0 01-1.598 3.822 5.378 5.378 0 01-3.825 1.579h-9.001c.355-1.719.546-3.527.546-5.399 0-1.853-.204-3.662-.583-5.399h9.062a5.406 5.406 0 015.399 5.397zm-2.949-10.273H21.506a24.502 24.502 0 00-6.559-8.296 21.076 21.076 0 019.992-2.502c6.4 0 12.324 2.826 16.347 7.775a9.654 9.654 0 01-7.014 3.023z"/></svg>