<?xml version="1.0" encoding="utf-8"?>
<!-- Generator: Adobe Illustrator 24.3.0, SVG Export Plug-In . SVG Version: 6.00 Build 0)  -->
<svg version="1.1" id="Layer_1" xmlns="http://www.w3.org/2000/svg" xmlns:xlink="http://www.w3.org/1999/xlink" x="0px" y="0px"
	 viewBox="0 0 50 50" style="enable-background:new 0 0 50 50;" xml:space="preserve">
<style type="text/css">
	.st0{fill:#A475EF;}
	.st1{fill:#BF94F7;}
	.st2{fill:none;stroke:#494949;stroke-linecap:round;stroke-linejoin:round;stroke-miterlimit:10;}
	.st3{fill:#494949;}
	.st4{fill:none;stroke:#494949;stroke-width:0.25;stroke-linecap:round;stroke-linejoin:round;stroke-miterlimit:10;}
	.st5{fill:none;stroke:#031C49;stroke-width:14;stroke-linecap:round;stroke-linejoin:round;stroke-miterlimit:10;}
</style>
<g>
	<g>
		<path class="st0" d="M43,30.9c-0.6,9.6-8.3,17.3-17.9,17.9c-7.8-0.4-14.3-6.2-15.8-13.7c0,0,0-0.1,0-0.2c-0.2-1-0.3-2-0.3-3
			l1.2-0.4l1.5-0.6l27.4-10c0.6,0.8,1.2,1.6,1.7,2.5c0,0,0,0.1,0.1,0.1C42.1,25.8,42.9,28.3,43,30.9z"/>
	</g>
	<g>
		<path class="st1" d="M40.9,23.6L12.4,34l-1.9,0.7l-1.1,0.4c0,0,0-0.1,0-0.2c-0.2-1-0.3-2-0.3-3v-0.1c0-4.1,1.4-8,4.1-11l-0.6-1.2
			l13.1-4.8c0,0,0,0,0,0c0.1,0,0.3,0,0.4,0c5.3,0,10,2.4,13.1,6.2c0.6,0.8,1.2,1.6,1.7,2.5C40.9,23.5,40.9,23.5,40.9,23.6z"/>
	</g>
	<g>
		<line class="st2" x1="17.8" y1="9" x2="10.5" y2="12.6"/>
		<path class="st3" d="M16.5,3.8c0,0,0.1,0.1,0.1,0.2c0.4,0.8,1.3,1.4,2.2,1.4c0.1,0,0.3,0,0.4,0.3c0.1,0.1,0.1,0.3,0,0.4
			c-0.4,0.7-0.4,1.5,0,2.2l3.8,7.7c0.4,0.9,1.3,1.4,2.2,1.4c0.1,0,0.1,0,0.2,0c0,0,0.1,0,0.1,0c0,0,0.1,0,0.1,0c0,0,0,0,0,0
			c0,0,0,0,0,0c0.1,0,0.1,0,0.2,0c0,0,0.1,0,0.1,0c0,0,0.1,0,0.1,0c4.3,0,8.4,1.9,11.2,5.3c0.5,0.7,1,1.4,1.5,2.1c0,0,0,0.1,0.1,0.1
			c0,0,0,0,0,0c1.1,1.9,1.7,4.1,1.8,6.3c0,0.2,0,0.5,0,0.7c0,8-6.5,14.5-14.5,14.5c-0.3,0-0.5,0-0.8,0c-6.6-0.3-12.2-5.1-13.4-11.7
			c0,0,0,0,0-0.1c0,0,0-0.1,0-0.1c-0.2-0.8-0.2-1.7-0.3-2.5v-0.1c0-3.5,1.2-6.8,3.5-9.4c0.6-0.8,0.8-1.8,0.3-2.7l-0.6-1.2L11.6,12
			c-0.3-0.7-1-1.2-1.8-1.4c-0.2,0-0.3-0.1-0.3-0.2c-0.1-0.2,0-0.4,0.1-0.5c0.6-0.8,0.7-1.8,0.3-2.6c0-0.1-0.1-0.1-0.1-0.2L16.5,3.8
			 M9.7,6.9L9.7,6.9L9.7,6.9 M16.5,1.2c-0.3,0-0.6,0.1-0.9,0.2L8.4,4.9C7.2,5.5,6.9,7,7.5,8.3c-0.7,0.9-0.8,2.1-0.3,3.1
			c0.4,0.9,1.2,1.4,2.1,1.6l3.2,6.5l0.6,1.2c-2.6,3.1-4.1,7-4.1,11v0.1c0,1,0.1,2,0.3,3c0,0.1,0,0.1,0,0.2
			c1.5,7.5,7.9,13.3,15.8,13.7c0.3,0,0.6,0,0.9,0c9.4,0,17-7.6,17-17c0-0.3,0-0.6,0-0.9c-0.1-2.7-0.9-5.2-2.1-7.4c0,0,0-0.1-0.1-0.1
			c-0.5-0.9-1.1-1.7-1.7-2.5c-3.1-3.8-7.8-6.2-13.1-6.2c-0.1,0-0.3,0-0.4,0c0,0,0,0,0,0c0,0,0,0,0,0c-0.1,0-0.3,0-0.4,0l-3.8-7.7
			c0.4-0.8,0.4-1.8,0-2.7c-0.5-1-1.5-1.6-2.6-1.7C18.3,1.8,17.4,1.2,16.5,1.2L16.5,1.2z"/>
		<path class="st4" d="M41.9,31.8c0,8.7-7.1,15.8-15.8,15.8s-15.8-7.1-15.8-15.8c0-4.2,1.6-8,4.3-10.9c0,0,0,0,0,0
			c-1.9,2.6-3,5.8-2.9,9.2c0.3,8.1,7.4,14.3,15.7,14c7.7-0.3,13.9-6.2,14.4-13.5C41.9,31,41.9,31.4,41.9,31.8z"/>
		<g>
			<path class="st5" d="M14.9,9.7"/>
		</g>
	</g>
	<path class="st4" d="M41,27.6c-1.7,6.7-7.8,11.6-15,11.6c-7.2,0-13.2-4.9-15-11.6c-0.3,1.2-0.5,2.5-0.5,3.8
		c0,8.5,6.9,15.5,15.5,15.5c8.5,0,15.5-6.9,15.5-15.5C41.5,30.2,41.3,28.9,41,27.6z"/>
	<path class="st4" d="M41.3,36.1c-4.6,5.1-12.3,6.7-18.7,3.3c-6.4-3.4-9.4-10.6-7.8-17.2c-0.9,0.9-1.6,2-2.2,3.2
		c-4,7.6-1.1,16.9,6.4,20.9c7.6,4,16.9,1.1,20.9-6.4C40.6,38.6,41,37.3,41.3,36.1z"/>
</g>
</svg>
