<?xml version="1.0" encoding="utf-8"?>
<!-- Generator: Adobe Illustrator 22.1.0, SVG Export Plug-In . SVG Version: 6.00 Build 0)  -->
<svg version="1.1" id="Layer_1" xmlns="http://www.w3.org/2000/svg" xmlns:xlink="http://www.w3.org/1999/xlink" x="0px" y="0px"
	 viewBox="0 0 50 50" style="enable-background:new 0 0 50 50;" xml:space="preserve">
<style type="text/css">
	.st0{fill:#00C8E2;}
	.st1{fill:#00DFFC;}
	.st2{fill:#444444;}
</style>
<g>
	<g>
		<polygon class="st0" points="48,26.8 12.2,43 12.2,27.8 40.3,15.7 39.9,22.4 48.1,23.4 		"/>
	</g>
	<g>
		<polygon class="st1" points="39.6,16.5 20.7,24.3 20.3,10.3 38.8,10.8 		"/>
	</g>
	<g>
		<path class="st2" d="M48.1,22.1h-6.9V10.3c0-0.7-0.6-1.2-1.2-1.2h-8.6V7c0-0.7-0.6-1.2-1.2-1.2S28.9,6.3,28.9,7v2h-8.6
			c-0.7,0-1.2,0.6-1.2,1.2v13c0,0.7,0.6,1.2,1.2,1.2s1.2-0.6,1.2-1.2V11.5h17.1v10.6H35c-0.7,0-1.2,0.6-1.2,1.2v18.4h-7.3V28.3
			c0-0.7-0.6-1.2-1.2-1.2H12.2c-0.7,0-1.2,0.6-1.2,1.2V43c0,0.7,0.6,1.2,1.2,1.2h13.1H35h13.1c0.7,0,1.2-0.6,1.2-1.2V23.4
			C49.4,22.7,48.8,22.1,48.1,22.1z M24,41.7H13.4V29.5H24V41.7z M46.9,41.7H36.3V24.6h10.6V41.7z"/>
		<path class="st2" d="M39.9,29h3.3c0.4,0,0.8-0.3,0.8-0.8s-0.3-0.8-0.8-0.8h-3.3c-0.4,0-0.8,0.3-0.8,0.8S39.5,29,39.9,29z"/>
		<path class="st2" d="M39.9,33.9h3.3c0.4,0,0.8-0.3,0.8-0.8s-0.3-0.8-0.8-0.8h-3.3c-0.4,0-0.8,0.3-0.8,0.8S39.5,33.9,39.9,33.9z"/>
		<path class="st2" d="M39.9,38.8h3.3c0.4,0,0.8-0.3,0.8-0.8s-0.3-0.8-0.8-0.8h-3.3c-0.4,0-0.8,0.3-0.8,0.8S39.5,38.8,39.9,38.8z"/>
		<path class="st2" d="M17.1,33.9h3.3c0.4,0,0.8-0.3,0.8-0.8s-0.3-0.8-0.8-0.8h-3.3c-0.4,0-0.8,0.3-0.8,0.8S16.6,33.9,17.1,33.9z"/>
		<path class="st2" d="M32.6,17.6c0.4,0,0.8-0.3,0.8-0.8s-0.3-0.8-0.8-0.8h-4.9c-0.4,0-0.8,0.3-0.8,0.8s0.3,0.8,0.8,0.8H32.6z"/>
		<path class="st2" d="M17.1,38.8h3.3c0.4,0,0.8-0.3,0.8-0.8s-0.3-0.8-0.8-0.8h-3.3c-0.4,0-0.8,0.3-0.8,0.8S16.6,38.8,17.1,38.8z"/>
		<path class="st2" d="M14.2,18.1c0-0.7-0.6-1.2-1.2-1.2H6.3c-0.7,0-1.2,0.6-1.2,1.2s0.6,1.2,1.2,1.2h6.6
			C13.6,19.4,14.2,18.8,14.2,18.1z"/>
		<path class="st2" d="M14.2,22.6c0-0.7-0.6-1.2-1.2-1.2h-2.2c-0.7,0-1.2,0.6-1.2,1.2s0.6,1.2,1.2,1.2h2.2
			C13.6,23.9,14.2,23.3,14.2,22.6z"/>
		<path class="st2" d="M14.2,13.6c0-0.7-0.6-1.2-1.2-1.2H1.9c-0.7,0-1.2,0.6-1.2,1.2s0.6,1.2,1.2,1.2h11.1
			C13.6,14.8,14.2,14.3,14.2,13.6z"/>
	</g>
</g>
</svg>
