<?xml version="1.0" encoding="utf-8"?>
<!-- Generator: Adobe Illustrator 27.7.0, SVG Export Plug-In . SVG Version: 6.00 Build 0)  -->
<svg version="1.1" id="Layer_1" xmlns="http://www.w3.org/2000/svg" xmlns:xlink="http://www.w3.org/1999/xlink" x="0px" y="0px"
	 viewBox="0 0 50 50" style="enable-background:new 0 0 50 50;" xml:space="preserve">
<style type="text/css">
	.st0{fill:#FF6B6B;}
	.st1{fill:none;stroke:#444444;stroke-width:2.5;stroke-linecap:round;stroke-linejoin:round;stroke-miterlimit:10;}
	.st2{fill:none;stroke:#444444;stroke-width:0.5;stroke-linecap:round;stroke-linejoin:round;stroke-miterlimit:10;}
	.st3{fill:none;stroke:#444444;stroke-linecap:round;stroke-linejoin:round;stroke-miterlimit:10;}
</style>
<g>
	<g>
		<g>
			<path class="st0" d="M47.9,20c-0.2-0.8-2.7-7.5-3.2-8.1l-3-3.5l-0.2,0.1l-7.6-5.7L26.1,2C22.9,2,13.3,1.3,4.9,13.6L2,21.5l0.5,2
				L4.3,35c0.1,0.4,4.7,7,5.1,7.2l5.6,3l32.2-11.7C47.8,33,48.9,24.8,47.9,20z"/>
			<path class="st1" d="M28.2,47.6C15.6,49.1,4.1,40.2,2.5,27.5S9.9,3.4,22.6,1.9s24.1,7.4,25.7,20.1c0.6,5.1-0.5,10-2.8,14.1"/>
		</g>
	</g>
	<g id="innovation_x2F_creativity_development_1_">
		<g>
			<path class="st2" d="M26.2,38.3L26.2,38.3c0,1.4,1.2,2.6,2.6,2.6h2.6c1.4,0,2.6-1.2,2.6-2.6l0,0"/>
			<g>
				<line class="st2" x1="30.4" y1="8.6" x2="30.4" y2="9.6"/>
				<line class="st2" x1="39.2" y1="13.1" x2="40" y2="12.4"/>
				<line class="st2" x1="35.2" y1="10.5" x2="35.6" y2="9.6"/>
				<line class="st2" x1="25.6" y1="10.5" x2="25.2" y2="9.6"/>
			</g>
			<path class="st3" d="M26.2,34.1c0,0-0.4-2.2-1.2-3.2c-1.9-2.5-4-5.5-4-8.7c0-5.2,4.2-9.4,9.4-9.4s9.4,4.2,9.4,9.4l1.6,4.7h-2.6
				v3.1c0,1.2-0.9,2.1-2.1,2.1h-0.9c-0.7,0-1.3,0.5-1.5,1.2l0,0c-0.1,0.6-0.2,1.2-0.2,1.8v1.2h-7.8"/>
			<path class="st2" d="M28.9,31c0-3.1,0-6.3-2.1-8.3h7.3C32,24.7,32,27.8,32,31"/>
		</g>
		<g>
			<path class="st2" d="M23.1,12.7h-1.6c-0.6,0-1,0.5-1,1v0.4c0,0.4-0.3,0.8-0.6,1l-2.7,1.1c-0.4,0.2-0.8,0.1-1.1-0.2l-0.3-0.3
				c-0.4-0.4-1.1-0.4-1.5,0L12.1,18c-0.4,0.4-0.4,1.1,0,1.5l0.6,0.6c0.1,0.1,0.2,0.4,0.1,0.6l-1.2,3c-0.2,0.4-0.5,0.6-1,0.6h-0.4
				c-0.6,0-1,0.5-1,1v3.1c0,0.6,0.5,1,1,1h0.4c0.4,0,0.8,0.3,1,0.6l1.1,2.7c0.2,0.4,0.1,0.8-0.2,1.1l-0.3,0.3
				c-0.4,0.4-0.4,1.1,0,1.5l2.2,2.2c0.4,0.4,1.1,0.4,1.5,0l0.3-0.3c0.3-0.3,0.7-0.4,1.1-0.2l2.7,1.1c0.4,0.2,0.6,0.5,0.6,1v0.4
				c0,0.6,0.5,1,1,1h2.1"/>
			<path class="st3" d="M17.7,22.6c-0.8,1.2-1.3,2.6-1.3,4.2c0,4,3.3,7.3,7.3,7.3h2.6"/>
		</g>
	</g>
</g>
</svg>
