<svg xmlns="http://www.w3.org/2000/svg" id="Camada_1" version="1.1" viewBox="0 0 50 50"><defs><style>.st0{stroke-width:2.5px}.st0,.st1,.st2{fill:none;stroke:#444}.st0,.st2{stroke-linecap:round;stroke-linejoin:round}.st3{fill:#444}.st1{stroke-miterlimit:10}.st2{stroke-width:.5px}</style></defs><path fill="#c3ff68" d="M48.5 18.6c-.2-.8-3.1-6.5-3.6-7.1l-3-3.5h-.2l-7.6-5.7-7.8-.7c-3.2 0-14.5.3-21.4 10.2L1 22.4H.8l4 13.5c.1.4 4.5 5.7 4.9 5.9l5.6 3 32.2-11.7c.7-.4 2.1-9.6 1.1-14.4z"/><path d="M23.6 48.2c-4.5-.2-8.9-1.8-12.8-4.7C.4 35.8-1.7 21.1 6.1 10.7" class="st0"/><path d="M6 10.9c2-3 4.7-4.7 4.7-4.7l.7-.5c8.1-5.7 19.2-5.9 27.5.4 2.4 1.8 4.4 4 5.8 6.4s.6 1.1.9 1.8c2.3 1.1 3.5 3.3 2.1 5.7 0 .4 0 .2.1.6 1.1 6.2-.2 12.9-4.3 18.3" class="st0"/><path d="M24.1 43.4c-2.3-.1-4.6-.6-6.8-1.6-5.2-2.4-8.8-6.8-10.2-11.9m34.6 3c-1.3 2.6-3.1 4.8-5.3 6.5" class="st2"/><path d="M39.1 33.4l.2.5 2.3-.8.6 2.4.5-.2-.8-2.9-2.8 1z" class="st3"/><path d="M6.5 24.5c.3-10 8.5-18.1 18.6-18.1S34 8.1 37.3 11" class="st2"/><path d="M8.6 23l-.3-.4-1.8 1.7-1.6-1.9-.3.4 1.9 2.3L8.6 23z" class="st3"/><g><ellipse cx="30.2" cy="17" class="st1" rx="13.9" ry="2.8"/><path d="M30.2 12.2C21.9 12.2 15 14 13 16.3s-.5 1.3-.3 2c2.2 5.6 5.5 10.3 10.5 13.7l3.1 2.1v10.6c0 .7.4 1.3 1 1.6l4.6 2.4c1.2.7 2.8-.2 2.8-1.6V34l2.9-2.1c4.5-3.3 8-8.4 10-13.6s.2-1.4-.3-2c-2-2.4-8.9-4.1-17.2-4.1z" class="st1"/></g></svg>