<svg xmlns="http://www.w3.org/2000/svg" id="Layer_1" version="1.1" viewBox="0 0 50 50"><defs><style>.st0{fill:none;stroke:#444;stroke-linecap:round;stroke-linejoin:round}</style></defs><path fill="#fcc34f" d="M44.6 12.4L39 8.8l-7.7-4.4-6-2.8c-3.2 0-21.4 8.9-21.4 12.1l-.5 7.8.5 15.1 11.5 7.6 31-11c.7-.4-.8-18.7-1.8-20.7z"/><path fill="none" stroke="#444" stroke-linecap="round" stroke-linejoin="round" stroke-width="2.5" d="M29.8 46.4l-2.2 1.3c-1.7 1-3.8 1-5.5 0l-15.6-9c-1.7-1-2.7-2.8-2.7-4.7V16c0-2 1-3.8 2.7-4.7l15.7-9c1.7-1 3.8-1 5.5 0l15.6 9c1.7 1 2.7 2.8 2.7 4.7v18c0 2-1 3.8-2.7 4.7l-2.5 1.4"/><rect width="7.4" height="25" x="31.5" y="12.9" class="st0" rx="1.9" ry="1.9"/><rect width="7.4" height="17.9" x="21.2" y="20" class="st0" rx="1.9" ry="1.9"/><rect width="7.4" height="10.8" x="10.9" y="27.1" class="st0" rx="1.9" ry="1.9"/><path fill="none" stroke="#444" stroke-linecap="round" stroke-linejoin="round" stroke-width=".5" d="M12.4 22.9s3.1-12.4 15.3-11.5M26.8 9l3.2 2.6-3.2 2.4"/></svg>