<?xml version="1.0" encoding="utf-8"?>
<!-- Generator: Adobe Illustrator 24.3.0, SVG Export Plug-In . SVG Version: 6.00 Build 0)  -->
<svg version="1.1" id="Layer_1" xmlns="http://www.w3.org/2000/svg" xmlns:xlink="http://www.w3.org/1999/xlink" x="0px" y="0px"
	 viewBox="0 0 50 50" style="enable-background:new 0 0 50 50;" xml:space="preserve">
<style type="text/css">
	.st0{fill:#A475EF;}
	.st1{fill:#BF94F7;}
	.st2{fill:#444444;}
</style>
<g>
	<g>
		<path class="st0" d="M46.8,19l-17.4,6.3L6.1,33.9c-1.1,0-2.1,0-3.2,0c0-2.9,0-5.9,0-8.8c1.9,0,3.7,0,5.6,0c-0.7-1.4-1.2-3-1.7-4.6
			c0-0.1,0-0.2-0.1-0.2L34.7,10c0.1,0.1,0.2,0.3,0.2,0.4c0.5,0.8,0.9,1.7,1.2,2.6c0.7-0.2,1.4-0.4,2.1-0.4
			C42.4,12.6,45.7,15.3,46.8,19z"/>
	</g>
	<g>
		<path class="st1" d="M35,10.4L6.8,20.6c-0.1-0.1-0.1-0.3-0.2-0.5c-0.5-1.8-0.8-4-0.3-6.4C7,10.4,9,7.5,11.7,5.4c0,0,0,0,0,0L21,2
			c0.5,0,0.9,0,1.4,0c5.1,0.3,9.7,3.4,12.4,7.9C34.8,10.1,34.9,10.2,35,10.4z"/>
	</g>
	<g>
		<path class="st2" d="M7.3,30.2h4.4c0.4,0,0.8-0.3,0.8-0.8s-0.3-0.8-0.8-0.8H7.3c-0.4,0-0.8,0.3-0.8,0.8S6.9,30.2,7.3,30.2z"/>
		<circle class="st2" cx="25" cy="29.4" r="0.9"/>
		<path class="st2" d="M29.4,37.9H2.9c-0.7,0-1.2,0.6-1.2,1.2V48c0,0.7,0.6,1.2,1.2,1.2h26.5c0.7,0,1.2-0.6,1.2-1.2v-8.8
			C30.7,38.5,30.1,37.9,29.4,37.9z M28.2,46.7h-24v-6.3h24V46.7z"/>
		<path class="st2" d="M7.3,44.3h4.4c0.4,0,0.8-0.3,0.8-0.8s-0.3-0.8-0.8-0.8H7.3c-0.4,0-0.8,0.3-0.8,0.8S6.9,44.3,7.3,44.3z"/>
		<circle class="st2" cx="25" cy="43.6" r="0.9"/>
		<path class="st2" d="M48,18.7c-1.2-4.4-5.1-7.3-9.7-7.3c-0.5,0-0.9,0.1-1.4,0.1c-0.3-0.6-0.5-1.2-0.8-1.7
			c-0.1-0.2-0.2-0.4-0.3-0.5c-2.9-5-7.9-8.2-13.4-8.5c-0.5,0-1,0-1.5,0c-3.5,0.1-7.1,1.4-10,3.6l0,0c0,0,0,0,0,0
			c-3,2.4-5.1,5.6-5.8,9.1c-0.5,2.3-0.3,4.6,0.3,7c0.1,0.2,0.1,0.4,0.2,0.5c0.3,1.1,0.7,2,1.1,2.8H2.9c-0.7,0-1.2,0.6-1.2,1.2v8.8
			c0,0.7,0.6,1.2,1.2,1.2h2.8v1.4c0,0.4,0.3,0.8,0.8,0.8s0.8-0.3,0.8-0.8v-1.4h17.9v1.4c0,0.4,0.3,0.8,0.8,0.8
			c0.4,0,0.7-0.3,0.7-0.8v-1.4h2.8c0.7,0,1.2-0.6,1.2-1.2v-2.3h7.6c5.7,0,10.1-4.4,10.1-10.1C48.4,20.5,48.2,19.6,48,18.7z
			 M28.2,32.6h-24v-6.3h24V32.6z M38.3,29.1h-7.6V25c0-0.7-0.6-1.2-1.2-1.2H9.7c-0.5-0.8-1.2-2-1.7-3.6c0-0.1-0.1-0.2-0.1-0.4
			c-0.6-2-0.7-3.9-0.3-5.8c0.6-2.9,2.3-5.6,4.9-7.6c0,0,0,0,0.1,0C15,4.4,18,3.3,21,3.3c0.4,0,0.8,0,1.2,0c4.6,0.3,8.9,3,11.4,7.4
			c0.1,0.1,0.1,0.2,0.2,0.4c0.4,0.8,0.8,1.6,1.1,2.4c0.2,0.6,0.9,1,1.5,0.8c0.7-0.2,1.3-0.3,1.8-0.3c3.5,0,6.4,2.2,7.3,5.5
			c0.2,0.7,0.3,1.4,0.3,2.1C45.9,25.7,42.5,29.1,38.3,29.1z"/>
	</g>
</g>
</svg>
