<?xml version="1.0" encoding="UTF-8"?>
<svg id="Camada_1" xmlns="http://www.w3.org/2000/svg" version="1.1" viewBox="0 0 50 50">
  <!-- Generator: Adobe Illustrator 29.0.0, SVG Export Plug-In . SVG Version: 2.1.0 Build 186)  -->
  <defs>
    <style>
      .st0 {
        stroke-width: 2.5px;
      }

      .st0, .st1, .st2 {
        fill: none;
        stroke: #444;
      }

      .st0, .st2 {
        stroke-linecap: round;
        stroke-linejoin: round;
      }

      .st3 {
        fill: #444;
      }

      .st1 {
        stroke-miterlimit: 10;
      }

      .st2 {
        stroke-width: .5px;
      }

      .st4 {
        fill: #c3ff68;
      }
    </style>
  </defs>
  <g>
    <path class="st4" d="M48.5,18.6c-.2-.8-3.1-6.5-3.6-7.1l-3-3.5h-.2c0,0-7.6-5.7-7.6-5.7l-7.8-.7c-3.2,0-14.5.3-21.4,10.2L1,22.4h-.2c0,0,4,13.5,4,13.5.1.4,4.5,5.7,4.9,5.9l5.6,3,32.2-11.7c.7-.4,2.1-9.6,1.1-14.4Z"/>
    <g>
      <path class="st0" d="M23.6,48.2c-4.5-.2-8.9-1.8-12.8-4.7C.4,35.8-1.7,21.1,6.1,10.7"/>
      <path class="st0" d="M6,10.9c2-3,4.7-4.7,4.7-4.7l.7-.5C19.5,0,30.6-.2,38.9,6.1c2.4,1.8,4.4,4,5.8,6.4s.6,1.1.9,1.8c2.3,1.1,3.5,3.3,2.1,5.7,0,.4,0,.2.1.6,1.1,6.2-.2,12.9-4.3,18.3"/>
    </g>
    <g>
      <path class="st2" d="M24.1,43.4c-2.3-.1-4.6-.6-6.8-1.6-5.2-2.4-8.8-6.8-10.2-11.9"/>
      <g>
        <path class="st2" d="M41.7,32.9c-1.3,2.6-3.1,4.8-5.3,6.5"/>
        <polygon class="st3" points="39.1 33.4 39.3 33.9 41.6 33.1 42.2 35.5 42.7 35.3 41.9 32.4 39.1 33.4"/>
      </g>
      <g>
        <path class="st2" d="M6.5,24.5c.3-10,8.5-18.1,18.6-18.1s8.9,1.7,12.2,4.6"/>
        <polygon class="st3" points="8.6 23 8.3 22.6 6.5 24.3 4.9 22.4 4.6 22.8 6.5 25.1 8.6 23"/>
      </g>
    </g>
  </g>
  <g>
    <ellipse class="st1" cx="30.2" cy="17" rx="13.9" ry="2.8"/>
    <path class="st1" d="M30.2,12.2c-8.3,0-15.2,1.8-17.2,4.1s-.5,1.3-.3,2c2.2,5.6,5.5,10.3,10.5,13.7l3.1,2.1v10.6c0,.7.4,1.3,1,1.6l4.6,2.4c1.2.7,2.8-.2,2.8-1.6v-13.1l2.9-2.1c4.5-3.3,8-8.4,10-13.6s.2-1.4-.3-2c-2-2.4-8.9-4.1-17.2-4.1Z"/>
  </g>
</svg>