<svg xmlns="http://www.w3.org/2000/svg" id="Camada_1" x="0" y="0" version="1.1" viewBox="0 0 42 48" xml:space="preserve"><style>.st2{fill:#444}</style><path fill="#e589ef" d="M1.2 42.1c-.4 0-.7.5-.7.1v-4.7l1.4-.5 1.5-.5 2.5-.9.8.2 1.5.3h2v-2l1.4-.5 4.1-1.5 2.1-.8 7.4-2.7 1.4-.5 1.1-.4 1.4-.5 7.5-2.7 2.4-.9.2.4 2.4 3.5c.1.1.1.2.1.4 0 .4-.3.7-.7.7h-2l-1 .8L1.6 42"/><path fill="#f799ff" d="M6.6 35.8l-2.5.9-2.2.8-1.4.5v-2.7c.1-.4.4-.6.8-.5l4.5.9.8.1zM39.1 24l-1.4.5-7.5 2.7-2.3.9-1.3.5-1.5.4-6.8 2.5-2.7 1-4.2 1.5-1.4.5v-5.9H8c-.1 0-.3 0-.4-.1-.3-.2-.4-.6-.2-.9l2.7-4.1c.1-.2.3-.3.6-.3h4l.7-.7c.2-.2.3-.6.2-.9-.1-.2-.2-.3-.4-.4l1.4-.5 1.4-.5 1.3-.5 1.9-.7 1.3-.5 5.1-1.9 1.3-.5 1.9-.7 1.3-.5 1.3-.5 1.3-.5c.1.1.3.2.5.2H38c.4 0 .7.3.7.7v5.5c0 .4-.3.7-.7.7h-2.8c-.3 0-.6.2-.7.5-.1.3-.1.6.2.9l.7.7h2.7c.2 0 .4.1.6.3l.1.2.3.4z"/><path d="M33.7 40.7zm0 1.7zm-8.6-29.1c-2.4 0-4.3 1.9-4.3 4.3s1.9 4.3 4.3 4.3 4.3-1.9 4.3-4.3-1.9-4.3-4.3-4.3zm0 6.8c-1.4 0-2.5-1.1-2.5-2.5s1.1-2.5 2.5-2.5 2.5 1.1 2.5 2.5-1.1 2.5-2.5 2.5zM14 33.8h2.5v1.8H14zm5.4-2.7h1.8v1.8h-1.8zm-4 0h3.1v1.8h-3.1zm2 2.7h5.2v1.8h-5.2z" class="st2"/><path d="M41.8 27.7s-.1-.2-.2-.3l-2.3-3.5-.3-.6c-.1-.2-.3-.4-.8-.4h-2.6l-.6-.6c-.2-.2-.2-.5-.2-.7.1-.2.3-.4.5-.4h2.8c.5 0 .9-.4.9-.9v-5.5c0-.5-.4-.9-.9-.9h-2.8c-.1 0-.3-.1-.4-.2 0 0-.1-.1-.1-.2s0-.2-.1-.2v-.1c0-.1.1-.3.2-.5l2-2c.4-.4.4-.9 0-1.3L33 5.9c-.4-.4-.9-.4-1.3 0l-2 2c-.1.1-.4.2-.6.1-.2-.1-.4-.3-.4-.5V4.6c0-.5-.4-.9-.9-.9h-5.5c-.5 0-.9.4-.9.9v2.8c0 .2-.1.4-.3.5-.1 0-.2 0-.2.1h-.1c-.1 0-.3-.1-.5-.2l-2-2c-.4-.4-.9-.4-1.3 0l-3.9 3.9c-.4.4-.4.9 0 1.3l2 2c.2.2.2.5.2.7-.1.1-.3.3-.5.3H12c-.5 0-.9.4-.9.9v5.5c0 .5.4.9.9.9h3.1c.2.1.2.1.3.3 0 .1 0 .1.1.2v.1c0 .1-.1.3-.2.5l-.7.6h-3.9c-.2 0-.5.1-.8.4l-2.7 4.1c-.2.4-.1.9.2 1.2.2.2.3.2.5.2h1.9V36H8.1l-1.5-.3-.8-.2-4.5-.9c-.5-.1-.9.2-1 .6v7c0 .5.4.9.9.9h7.9c1 .7 2.1 1.2 3.6 1.7.8.3 1.8.4 2.9.4h6.2c1.2 0 2.2-1 2.2-2.2v-.5h9.7c.5 0 .8-.4.8-.8s-.3-.8-.8-.8h-7V26.8l.7 1.1.3.6c.1.2.3.4.8.4h8.7V37c0 .5.4.9.9.9s.9-.4.9-.9v-8.4h1.8c.6.1 1-.3 1-.9zM7.2 41.4H2.1v-4.9l1.2.2.9.3 3 .6v3.8zM9.7 27l1.5-2.3h12.9L22.6 27H9.7zm12 16.4h-6.3c-1.9 0-3.9-.7-5.5-1.8-.2-.2-.4-.2-.5-.2h-.5v-3.7h1c1.6 0 3.2.6 4.4 1.8.1.1.4.3.6.3h2.7c.3 0 .5.2.5.5s-.2.5-.5.5h-2.9v1.8h7c.3 0 .5.2.5.5 0 .1-.2.3-.5.3zm3.1-2.7h-5c.2-1.1-.4-2.2-1.5-2.6-.3-.1-.6-.1-.8-.1h-2.4c-.9-.9-2.1-1.5-3.6-1.9v-7.3h11.4c.2 0 .5-.1.8-.4l1.1-1.7v14zM22.2 23c-1.4-.7-2.4-1.8-2.8-3.2 0-.1-.1-.2-.1-.2v-.2l-1.5.4v.2c0 .1 0 .2.1.2v.2c.3.9.9 1.8 1.7 2.7H17c.3-.6.3-1.3 0-2v-.2c0-.1-.1-.2-.1-.3-.4-.7-1.1-1.1-2-1.1H13v-3.7h1.9c1 0 1.9-.6 2.2-1.4.1-.3.2-.6.2-.9 0-.7-.2-1.2-.6-1.6l-1.4-1.5 2.6-2.6 1.4 1.4c.6.6 1.7.9 2.6.5.7-.3 1.4-1 1.4-2V5.5H27v1.9c0 1 .6 1.9 1.4 2.2.3.1.6.2.9.2.7 0 1.2-.2 1.7-.8l1.4-1.4 2.6 2.6-1.4 1.4c-.6.6-.9 1.7-.6 2.6 0 .1 0 .2.1.2v.1c.4.8 1.2 1.2 2.1 1.2h1.9v3.7h-1.9c-1 0-1.9.6-2.2 1.4-.1.3-.2.6-.2 1 0 .2 0 .6.2 1h-2.4c2-2.1 2.6-5.2 1.6-8-.3-.9-.9-1.8-1.6-2.6l-.2-.2-1.3 1.3.1.1c.5.5 1 1.3 1.3 2 .8 2.2.2 4.7-1.5 6.4-.4.4-.9.8-1.4 1h-5.4zm6.8 4l-1.5-2.3h10.2l1.5 2.3H29zm10.1 10c0 .1 0 .1 0 0z" class="st2"/></svg>