<?xml version="1.0" encoding="UTF-8"?>
<svg id="Layer_1" xmlns="http://www.w3.org/2000/svg" version="1.1" viewBox="0 0 50 50">
  <!-- Generator: Adobe Illustrator 29.0.0, SVG Export Plug-In . SVG Version: 2.1.0 Build 186)  -->
  <defs>
    <style>
      .st0, .st1, .st2 {
        fill: none;
        stroke: #444;
        stroke-linecap: round;
        stroke-linejoin: round;
      }

      .st1 {
        stroke-width: 2.5px;
      }

      .st3 {
        fill: #e589ef;
      }

      .st2 {
        stroke-width: .5px;
      }
    </style>
  </defs>
  <path class="st3" d="M44.7,12.9l-5.6-3.6-7.7-4.4-6-2.8C22.2,2,4,11,4,14.2l-.5,7.8.5,15.1,11.5,7.6,31-11c.7-.4-.8-18.7-1.8-20.7Z"/>
  <path class="st1" d="M29.9,46.9l-2.2,1.3c-1.7,1-3.8,1-5.5,0l-15.6-9c-1.7-1-2.7-2.8-2.7-4.7v-18c0-2,1-3.8,2.7-4.7L22.3,2.8c1.7-1,3.8-1,5.5,0l15.6,9c1.7,1,2.7,2.8,2.7,4.7v18c0,2-1,3.8-2.7,4.7l-2.5,1.4"/>
  <rect class="st0" x="31.6" y="13.4" width="7.4" height="25" rx="1.9" ry="1.9"/>
  <rect class="st0" x="21.3" y="20.5" width="7.4" height="17.9" rx="1.9" ry="1.9"/>
  <rect class="st0" x="11" y="27.6" width="7.4" height="10.8" rx="1.9" ry="1.9"/>
  <path class="st2" d="M12.5,23.4s3.1-12.4,15.3-11.5"/>
  <polyline class="st2" points="26.9 9.5 30.1 12.1 26.9 14.5"/>
</svg>