<?xml version="1.0" encoding="UTF-8"?>
<svg xmlns="http://www.w3.org/2000/svg" version="1.1" viewBox="0 0 50 50">
  <defs>
    <style>
      .cls-1 {
        fill: #319327;
      }

      .cls-2, .cls-3, .cls-4 {
        stroke-linecap: round;
        stroke-linejoin: round;
      }

      .cls-2, .cls-3, .cls-4, .cls-5 {
        fill: none;
        stroke: #444;
      }

      .cls-3 {
        stroke-width: 2.5px;
      }

      .cls-6 {
        fill: #5aba52;
      }

      .cls-7 {
        fill: #444;
      }

      .cls-4 {
        stroke-width: .5px;
      }

      .cls-4, .cls-5 {
        fill-rule: evenodd;
      }

      .cls-5 {
        stroke-miterlimit: 10;
      }
    </style>
  </defs>
  <!-- Generator: Adobe Illustrator 28.6.0, SVG Export Plug-In . SVG Version: 1.2.0 Build 709)  -->
  <g>
    <g id="Camada_1">
      <g>
        <polygon class="cls-1" points="29.2 20.3 37 22.8 30.3 27.5 30.4 35.7 23.8 30.8 16.1 33.4 18.7 25.7 13.8 19.1 22 19.2 26.7 12.5 29.2 20.3"/>
        <g>
          <path class="cls-6" d="M44.9,12.5l-5.6-3.6-7.7-4.4-6-2.8c-3.2,0-21.5,8.9-21.5,12.1l-.5,7.8.5,15.1,11.5,7.6,31-11c.7-.4-.8-18.7-1.8-20.7Z"/>
          <path class="cls-3" d="M30.2,46.6l-2.2,1.3c-1.7,1-3.8,1-5.5,0l-15.6-9c-1.7-1-2.7-2.8-2.7-4.7v-18c0-2,1-3.8,2.7-4.7L22.5,2.4c1.7-1,3.8-1,5.5,0l15.6,9c1.7,1,2.7,2.8,2.7,4.7v18c0,2-1,3.8-2.7,4.7l-2.5,1.4"/>
          <g>
            <path class="cls-4" d="M36.9,17.7h0c.4,0,.8-.2,1-.4.3-.3.4-.6.4-1s-.2-.8-.4-1c-.3-.3-.6-.4-1-.4h0c-.4,0-.8.2-1,.4-.3.3-.4.6-.4,1s.2.8.4,1c.3.3.6.4,1,.4h0ZM25.2,38.2c-.1-.6-.4-1.2-.9-1.6-.6-.6-1.3-.9-2.2-.9s-1.6.3-2.2.9c-.4.4-.7,1-.9,1.6h6.1ZM12.1,19.1c-.6,0-1.2.3-1.6.7-.4.4-.7,1-.7,1.6s.3,1.2.7,1.6c.4.4,1,.7,1.6.7s1.2-.3,1.6-.7c.4-.4.7-1,.7-1.6s-.3-1.2-.7-1.6c-.4-.4-1-.7-1.6-.7h0Z"/>
            <path class="cls-7" d="M31.3,33.1c-.5-.4-.9-.9-1.2-1.4s-.4-1.1-.3-1.7c0-.6.3-1.1.7-1.7s.8-.8,1.2-.9.9-.2,1.3-.1c.4,0,.9.2,1.3.4.4.2.9.4,1.3.7.6.3,1,.6,1.3.8.3.2.6.3.8.4.2,0,.4,0,.6-.3h0c.4-.6.6-1.1.5-1.6s-.4-1-1-1.5-1.2-.7-1.7-.7c-.6,0-1,0-1.4.3l-.9-1.4c.6-.3,1.2-.5,1.8-.5.6,0,1.1.1,1.7.3.5.2,1,.5,1.4.8s.5.5.8.8.5.7.7,1.2.2,1,.1,1.5c0,.6-.4,1.2-.9,1.8l-4.3,5.5-1.3-1,.9-1.1h0c-.2,0-.5.1-.9.2-.4,0-.8,0-1.2-.1s-.9-.4-1.4-.7ZM32.4,32.1c.5.4,1,.6,1.5.7s1,0,1.4-.2.8-.4,1-.8l.9-1.2c-.1,0-.3,0-.5-.1-.2,0-.5-.2-.7-.4s-.5-.3-.8-.4c-.2-.1-.4-.3-.6-.4-.4-.2-.7-.4-1.1-.5-.4-.1-.7-.2-1-.1-.3,0-.6.2-.9.6s-.4.9-.3,1.4c.2.5.5.9,1,1.3Z"/>
            <path class="cls-5" d="M15.8,38.2h.9c0-.6.2-1.1.4-1.6l-5.6-10.5c-1.1-.1-2-.6-2.7-1.3-.9-.9-1.4-2-1.4-3.3s.5-2.5,1.4-3.3c.9-.9,2-1.4,3.3-1.4s.5,0,.8,0l9.4-8.6h0s0,0,0,0c.5-.4,1.1-.6,1.7-.6.6,0,1.2.3,1.7.8h0s0,0,0,0l.6.6c.3.4.5.8.6,1.2l8.4,3.5c.5-.3,1.1-.5,1.7-.5s1.6.3,2.2.9c.6.6.9,1.3.9,2.2s-.2,1.1-.4,1.6l3.2,3.2c.1.1.2.3,0,.5l-3.3,5.1c-.1.2-.3.2-.5.1s-.2-.3-.1-.5l3.2-4.9-3-2.9s0,0,0,0c-.6.6-1.3.9-2.2.9s-1.6-.3-2.2-.9c0,0,0,0,0,0l-3,2.9,3.2,4.9c.1.2,0,.4-.1.5-.2.1-.4,0-.5-.1l-3.3-5.1c0-.1,0-.3,0-.5l3.3-3.2c-.2-.3-.3-.7-.4-1l-8.6-3.6-8.5,7.8c0,.1,0,.3,0,.4,0,.4,0,.8-.2,1.2l6.6,10.6c1.1.2,2,.7,2.7,1.5.9.9,1.5,2.1,1.6,3.5h.9c.7,0,1.3.3,1.7.7.4.4.7,1.1.7,1.7v2.1c0,.2-.2.4-.4.4H13.7c-.2,0-.4-.2-.4-.4v-2.1c0-.7.3-1.3.7-1.7.4-.4,1.1-.7,1.7-.7h0Z"/>
          </g>
          <line class="cls-2" x1="30.5" y1="43" x2="33.1" y2="43"/>
        </g>
      </g>
    </g>
  </g>
</svg>