<svg xmlns="http://www.w3.org/2000/svg" id="Camada_1" version="1.1" viewBox="0 0 50 50"><defs><style>.st0,.st2{fill:none;stroke:#444;stroke-linecap:round;stroke-linejoin:round}.st2{stroke-width:.5px}</style></defs><path fill="#04ad49" d="M28.7 26.6l6.9 2.1-5.9 4.1.1 7.2-5.8-4.3-6.8 2.3 2.4-6.8-4.3-5.7 7.1.1 4.2-5.9 2.1 6.9z"/><path fill="#22dd6d" d="M41.8 13.6c-.3-.6-4.6-1.6-5.1-2.1l-6.4 2.4-.7-9.4c-.2-.1-4.3-1.8-4.5-1.9l-5.1.9-1.4 11.8s-1.8-1.9-6.2-3.1l-4.7 2.5-.2 14.1-5.7 1.6c0 .3 0 6.8.2 6.9l17.3 7.8 28.2-10.3c.4-.2 3.6-5.1-5.4-7-.9-2.9 1.7-10-.3-14.3z"/><path d="M48.1 30.3L24.6 38 1.2 30.3" class="st2"/><path d="M24.6 48.3V38l23.5-7.7" class="st2"/><path d="M28.9 31.2l-4.2 1.1V2.2l4.2 1.5v27.5z" class="st0"/><path d="M20.6 31.2l4.1 1.1V2.2l-4.1 1.5v27.5zm-7.9 1l-4-1V13.3l4-1.3v20.2zm0 0l4-1V13.3l-4-1.3v20.2zM36.7 32l-4.2-1.1V12.5l4.2-1.3V32zm0 0l4.2-1.1V12.5l-4.2-1.3V32z" class="st0"/><path fill="none" stroke="#444" stroke-linecap="round" stroke-linejoin="round" stroke-width="2.5" d="M39.5 40.9l8.6-4.3V30l-6.2-1.4V13.3l-4.8-1.6-5.4 1.6v13.2l-2-.5V3.9l-5.1-1.7-5 1.7v22.4h-.1l-1.9.4V13.8l-5.2-1.6-4.9 1.6v15.1l-6.3 1.4v6.6l23.4 11.4h0l3.1-1.6"/></svg>