<?xml version="1.0" encoding="UTF-8"?>
<svg id="Camada_1" xmlns="http://www.w3.org/2000/svg" version="1.1" viewBox="0 0 50 50">
  <!-- Generator: Adobe Illustrator 29.0.0, SVG Export Plug-In . SVG Version: 2.1.0 Build 186)  -->
  <defs>
    <style>
      .st0, .st1, .st2 {
        fill: none;
        stroke: #444;
        stroke-linecap: round;
        stroke-linejoin: round;
      }

      .st1 {
        stroke-width: 2.5px;
      }

      .st3 {
        fill: #04ad49;
      }

      .st4 {
        fill: #22dd6d;
      }

      .st2 {
        stroke-width: .5px;
      }
    </style>
  </defs>
  <polygon class="st3" points="28.7 26.6 35.6 28.7 29.7 32.8 29.8 40 24 35.7 17.2 38 19.6 31.2 15.3 25.5 22.4 25.6 26.6 19.7 28.7 26.6"/>
  <g>
    <path class="st4" d="M41.8,13.6c-.3-.6-4.6-1.6-5.1-2.1l-6.4,2.4-.7-9.4c-.2-.1-4.3-1.8-4.5-1.9l-5.1.9-1.4,11.8s-1.8-1.9-6.2-3.1l-4.7,2.5-.2,14.1-5.7,1.6c0,.3,0,6.8.2,6.9l17.3,7.8,28.2-10.3c.4-.2,3.6-5.1-5.4-7-.9-2.9,1.7-10-.3-14.3Z"/>
    <g>
      <polyline class="st2" points="48.1 30.3 24.6 38 1.2 30.3"/>
      <polyline class="st2" points="24.6 48.3 24.6 38 48.1 30.3"/>
      <g>
        <polygon class="st0" points="28.9 31.2 24.7 32.3 24.7 2.2 28.9 3.7 28.9 31.2"/>
        <polygon class="st0" points="20.6 31.2 24.7 32.3 24.7 2.2 20.6 3.7 20.6 31.2"/>
      </g>
      <g>
        <polygon class="st0" points="12.7 32.2 8.7 31.2 8.7 13.3 12.7 12 12.7 32.2"/>
        <polygon class="st0" points="12.7 32.2 16.7 31.2 16.7 13.3 12.7 12 12.7 32.2"/>
      </g>
      <g>
        <polygon class="st0" points="36.7 32 32.5 30.9 32.5 12.5 36.7 11.2 36.7 32"/>
        <polygon class="st0" points="36.7 32 40.9 30.9 40.9 12.5 36.7 11.2 36.7 32"/>
      </g>
    </g>
    <polyline class="st1" points="39.5 40.9 48.1 36.6 48.1 30 41.9 28.6 41.9 13.3 37.1 11.7 31.7 13.3 31.7 26.5 29.7 26 29.7 3.9 24.6 2.2 19.6 3.9 19.6 26.3 19.5 26.3 17.6 26.7 17.6 13.8 12.4 12.2 7.5 13.8 7.5 28.9 1.2 30.3 1.2 36.9 24.6 48.3 24.6 48.3 27.7 46.7"/>
  </g>
</svg>