<svg xmlns="http://www.w3.org/2000/svg" id="Camada_1" x="0" y="0" version="1.1" viewBox="0 0 50 50" xml:space="preserve"><style>.st0{fill:#7df4eb}.st2{fill:#444}.st5{fill:none;stroke:#444;stroke-width:.5;stroke-miterlimit:10}</style><path d="M25.1 15l2.8 5.7 6.3.9-4.6 4.4 1.1 6.3-5.6-3-5.6 3 1.1-6.3-4.6-4.4 6.3-.9z" class="st0"/><path d="M44.6 12.4L39 8.8l-7.7-4.4-6-2.8c-3.2 0-21.5 8.9-21.5 12.1l-.5 7.8.5 15.1 11.5 7.6 31-11c.9-.5-.7-18.8-1.7-20.8z" class="st0"/><path fill="none" stroke="#444" stroke-linecap="round" stroke-linejoin="round" stroke-miterlimit="10" stroke-width="2.5" d="M29.9 46.5l-2.2 1.3c-1.7 1-3.8 1-5.5 0l-15.6-9C5 37.8 3.9 36 3.9 34V16c0-2 1-3.8 2.7-4.7l15.6-9c1.7-1 3.8-1 5.5 0l15.6 9c1.7 1 2.7 2.8 2.7 4.7v18c0 2-1 3.8-2.7 4.7l-2.5 1.4"/><path d="M30.7 18.9v3.9c0 .6-.2 1.1-.7 1.5-.3.3-.7.5-1.1.7-.7.3-1.4.4-2.1.6-.7.1-1.5.2-2.2.1-.5 0-1 0-1.6-.1s-1.2-.2-1.8-.4c-.6-.2-1.1-.4-1.6-.8-.4-.3-.6-.6-.7-1.1V15c0-.5.2-1 .6-1.3.4-.4.8-.6 1.3-.8.6-.2 1.3-.4 2-.5.9-.1 1.8-.2 2.7-.1 1 0 1.9.2 2.9.5.5.2 1.1.4 1.5.7.3.2.6.5.7.9.1.2.1.4.1.7v3.8zm-6-5.9c-.9 0-1.7.1-2.6.3-.6.1-1.1.3-1.6.6-.3.2-.5.3-.7.6s-.2.7 0 1c.1.1.1.2.2.2.3.3.7.5 1.1.6.5.2 1.1.3 1.7.4.4.1.9.1 1.3.1h1.7c.5 0 .9-.1 1.4-.2.6-.1 1.1-.3 1.7-.6.3-.1.5-.3.7-.6s.2-.7 0-1-.4-.4-.7-.6c-.5-.3-1-.4-1.5-.5-.8-.2-1.7-.3-2.7-.3zm-5 5.9v1.6c0 .2 0 .3.1.4.1.2.3.3.5.5.4.3.8.5 1.3.6.8.2 1.5.3 2.3.4 1 .1 2 0 3-.1.6-.1 1.2-.3 1.8-.5.3-.1.6-.3.8-.5.2-.2.3-.5.3-.8V19c-.2.2-.4.3-.6.4-.6.3-1.2.5-1.8.6-.6.1-1.2.2-1.9.2-.8 0-1.7 0-2.5-.1-.6-.1-1.2-.2-1.7-.4-.4-.1-.8-.3-1.2-.6-.2 0-.3-.1-.4-.2zm10.1 2.5c-.1.1-.2.2-.3.2-.4.3-.9.5-1.3.6-.7.2-1.5.4-2.2.4-1 .1-2 .1-3-.1-.6-.1-1.2-.2-1.7-.4-.4-.1-.8-.3-1.2-.6-.1-.1-.3-.2-.4-.3v1.6c0 .2.1.4.2.6s.3.3.4.4c.4.3.9.5 1.4.6.8.2 1.6.3 2.4.4.9 0 1.8 0 2.7-.2.7-.1 1.3-.3 1.9-.6.3-.1.5-.3.7-.5s.3-.5.3-.8c.1-.3.1-.8.1-1.3 0 .1 0 0 0 0zm0-5c-.2.1-.3.2-.5.3-.5.3-1 .4-1.5.6-.9.2-1.9.3-2.8.4-.7 0-1.3 0-2-.1-.6-.1-1.1-.2-1.7-.3-.5-.1-1-.3-1.4-.6-.1-.1-.2-.1-.2-.2v1.7c.1.3.2.4.4.6.4.3.8.5 1.3.6.5.2 1 .3 1.5.3.6.1 1.1.1 1.7.1.8 0 1.6 0 2.3-.2.6-.1 1.2-.3 1.8-.5.3-.1.6-.3.8-.5.2-.2.3-.4.3-.7v-1.5z" class="st2"/><path d="M28.6 20.2c.2 0 .4.2.4.4s-.2.4-.4.4-.4-.2-.4-.4c-.1-.2.1-.4.4-.4zm0 2.6c.2 0 .4.2.4.4s-.2.4-.4.4-.4-.2-.4-.4c-.1-.2.1-.4.4-.4zm0-5.1c.2 0 .4.2.4.4s-.2.4-.4.4-.4-.2-.4-.4c-.1-.2.1-.4.4-.4z" class="st2"/><path fill="none" d="M13 26.1h23.8v9.8H13z"/><path d="M13.9 34.6v-1h1v1h-1zm2.6 0v-7.2h1l3.8 5.6v-5.6h.9v7.2h-1L17.4 29v5.6h-.9zm7.3 0v-7.2H29v.8h-4.2v2.2h4v.8h-4v2.4h4.4v.8h-5.4zm8.5 0v-6.3h-2.4v-.8h5.7v.8h-2.4v6.3h-.9z" class="st2"/><path d="M18.3 22.9h-5.1c-.5 0-.8-.4-.8-.8v-5.4c0-.5.4-.8.8-.8h5.1c.5 0 .8.4.8.8v5.4c0 .4-.4.8-.8.8z" class="st5"/><path d="M16.6 21.5c-.5 0-.9-.4-.9-.8v-2.3c0-.5.4-.8.8-.8h.1c.5 0 .8.4.8.8v2.3c0 .4-.4.8-.8.8zM36.4 22.9h-5.1c-.5 0-.8-.4-.8-.8v-5.4c0-.5.4-.8.8-.8h5.1c.5 0 .8.4.8.8v5.4c0 .4-.4.8-.8.8z" class="st5"/><path d="M32.7 21.4c-.5 0-.9-.4-.9-.8v-2.3c0-.5.4-.8.8-.8h.1c.5 0 .8.4.8.8v2.3c0 .4-.4.8-.8.8zm2.5-1.3c-.3 0-.6-.3-.6-.6v-.2c0-.3.3-.6.6-.6s.6.3.6.6v.2c0 .3-.2.6-.6.6zm.4 1.7h-.8c-.3 0-.5-.2-.5-.5s.2-.5.5-.5h.8c.3 0 .5.2.5.5s-.2.5-.5.5zm0-3.9h-.8c-.3 0-.5-.2-.5-.5s.2-.5.5-.5h.8c.3 0 .5.2.5.5s-.2.5-.5.5zM30.4 22.9h6c.5 0 .8.4.8.8v9.5c0 .5-.4.8-.8.8h-1.7m-20.4 0h-1.2c-.5 0-.8-.4-.8-.8v-9.5c0-.5.4-.8.8-.8H19" class="st5"/><circle cx="14.6" cy="33.8" r="1.1" class="st2"/></svg>