<svg xmlns="http://www.w3.org/2000/svg" viewBox="0 0 300 300"><defs><style>.cls-4{fill:#ffda00}.cls-5{fill:#ff6b6b}.cls-10{fill:#f99f00}.cls-13{fill:#ffeea4}.cls-15{fill:#f7941e}.cls-16{display:none}</style></defs><g id="Camada_1"><path id="Camada_6" fill="#e56060" d="M255.3 84.8c48 32.1 35 87.4 35 87.4s-3.6 20.1-22.1 51.8c-13.9 24-48 38.9-48 38.9s-50.4 15.8-73 0c-16-11.3-31.7-14.9-31.7-14.9s-25.4-12-39.4-59.5S87.1 75.7 136 61.3C185 47 230.8 71 230.8 71l24.5 13.8zM192.6 100h-72.4"/><g id="Camada_10" class="cls-16"><path d="M689.9-245.8s-31.6-21.9-62.1 18c-30.6 39.9-22.5 117.1-22.5 117.1l16.1 16.2s-14.2-130 68.5-151.3zm41.3 15.7s32.9 12.4-66 156.6c0 0 19.6 5.9 35.8 0 0 0 97.4-136.4 53.1-153.5l-22.9-3z" class="cls-5"/><path d="M700.9-238.1s6 3.2 12 4.6c0 0 10.9 33.6-62.8 151.1l-11.9-6.1c-.1-.1 20.6-121.5 62.7-149.6z" class="cls-5"/><path d="M740.4-269.2c16.7 8.5 23.7 17 23.7 17-29.6-.6-32.9 22.1-32.9 22.1-4-.5-17.5-2.6-20.7-3.5 0 0 26.3-34.9 29.9-35.6zm-41.9 31.1c-7.6-3.8-11-7.7-11-7.7 9.7-21.8-8.3-38.9-8.3-38.9 11.4.8 21.5 2.5 30.3 4.5-1.3 7.6 1.2 30.1-11 42.1z" class="cls-5"/><path d="M724.4-77.9s102.9-114.9 47.1-153.6l-28.1 2.9s1.6-13.7 3-13 29.7-3.2 29.7-3.2 33.9 28.2 17.2 87.6-68.9 79.3-68.9 79.3zm-50-180.2v-1.9c-.5-4.9-4.6-17.6-32.2-19.2 0 0-40.8 6-58.8 76.7 0 0-8 34.8 5.8 61.7 0 0-14.8-82.9 38.6-111.3 31-17 46.6-6 46.6-6z" class="cls-5"/><path fill="#00bf5f" d="M377.6-35.8c-2.8 3-3.7 5.8-4.4 9.7-.5 2.8-1.8 5.2-2.8 7.8-2.4 6.2-1.8 12.1 4.2 16 4.5 2.9 11.3 4.6 16.2 1.6 5.2-3.2 5.9-10.4 6-15.9.1-4.9.3-11.3-2.2-15.7-3.3-5.6-10-5.5-14.7-1.9-4.5 3.4-9.8 11.3-4.5 16.5 6 5.8 13.3-1.3 13.9-7.7.4-4.2-5.4-7.8-9-5.1-.4.3-.9.7-1.3 1-6 4.6-.1 14.9 6 10.3.4-.3.9-.7 1.3-1l-9-5.1c1.3-.8 2.6-1.5 3.8-2.3l3.6 2.7c2.7 4.2-1 1.5 1.5.9 3.2-.8-1-3.9-1.9-2.2-.2.3.4 3.2.5 3.8.2 4.1.4 8.3-.7 12.4.5-1.6 2 .2.1-.9-.6-.4-1.5-.4-2.1-.7s-1.1-.8-1.7-1.2c.4 1.8.7 1.9.8.3.1-.4.3-.8.4-1.2.8-2.3 2-4.5 2.7-6.8.6-2.1.3-5.1 1.9-6.7 5.1-5.7-3.3-14.2-8.6-8.6z"/><path fill="#ab67a9" d="M397.5-25.8c-.2 5.5-.6 10 3 14.6 2.5 3.2 4.1 7.3 7.2 9.9 3.6 3 8.8 3.4 12.4.1 3.1-2.9 3.6-7.4 3.8-11.4.3-8.1 1.3-19.7-7.7-23.8-7.3-3.3-19.7 4.6-21.3 11.9-1.7 7.5 9.8 10.6 11.5 3.2.4-1.6 2.6-2.3 4-2.9.7-.3 1.9-.5 2.4-1 .8-.2.7-.3-.4-.1-1-.2-1.2 0-.6.7-.4 1.3.5 4.3.5 5.9-.1 1.9-.1 3.8-.2 5.6 0 .7-.7 3.1-.4 3.6 3.4.3 4.6 0 3.5-1.2-.2-.2-.4-.5-.5-.7-.2-.8-.9-1.6-1.3-2.3-1-1.8-3-3.5-3.9-5.3-.9-2-.1-4.7 0-6.9.1-7.6-11.8-7.6-12 0z"/><path fill="#ed9751" d="M390.3-8.5c-.1 4.2-.9 8.4-.6 12.7.5 5.7 3.7 11.8 10.3 11.2 6.9-.6 8.5-8.3 8.4-14-.1-3.3-1.7-6.4-5.1-7.4-3-.9-6.3.5-7.9 3.1-4 6.6 6.3 12.6 10.3 6-.2.3-.3.5-.5.8-.9.5-1.8 1-2.6 1.5h.5-3.2c.2 0 .3 0 .5.2-.9-.5-1.8-1-2.6-1.5.1 0 .2.3.4.4-.5-.9-1-1.8-1.5-2.6.1.4-.5 1.9-.2 2.4-.2.7-.1.8.3.3h4.9c.3.5.3.4 0-.4.2-.7-.1-1.9-.1-2.7.1-3.3.6-6.5.6-9.8.1-7.7-11.8-7.7-11.9 0zm42.6-145.8s-17-6.7-19.5 6.5c0 0-5.7 10.4 12.7 28.6 18.4 18.2 79.6 71.5 79.6 71.5l16.6-23.9s-70.1-70.8-89.4-82.7z"/><path fill="#d2d2d2" d="M518.9-33.3l-11.7-10.1s-3.9-2-.8-6.4 15.9-21.9 15.9-21.9 1.2-1.1 4 .9c2.8 1.9 9.8 10.1 9.8 10.1l1.7 1.5-18.9 25.9z"/><path fill="#cf524b" d="M516.9-35S515.8-15.7 538-7.1c22.3 8.5 20.5-38.3 20.5-38.3s-6.3-16.4-21.8-14.9C521.5-50.9 516.9-35 516.9-35z"/><path fill="#e445c8" d="M535.8-15s-1 18.8 20.4 14.7 27.2-9.6 27.2-9.6 6.1-5.3-1.6-10.3-15-17-15-17-9.1-16.5-12.9-13.3S535.8-15 535.8-15z"/></g><path id="Camada_2-2" fill="#008dd3" d="M285.5 146.4c.1 20.5-4.3 40-12 57.6-21.8 49.2-70.9 83.5-128.2 83.7-15.2.1-29.9-2.3-43.6-6.7-25.8-8.2-48.4-23.8-65.3-44.2-17.6-21.1-29.1-47.5-31.8-76.5-.4-4.2-.6-8.4-.6-12.7-.2-47.8 23.5-90.2 59.8-115.7 4.8-3.4 9.7-6.4 14.8-9.1 7.3-3.9 14.8-7.1 22.8-9.7 7.5-2.4 15.2-4.2 23.2-5.3 6.4-.9 12.9-1.4 19.5-1.5 25.9-.1 50.1 6.8 71.1 18.9 3.8 2.1 7.4 4.5 10.9 7 16.8 11.9 30.8 27.3 41 45.4 1.2 2 2.2 4.1 3.3 6.2.9 1.8 1.7 3.6 2.6 5.4 2.7 6 4.9 12.1 6.8 18.4 2 7.1 3.6 14.4 4.5 21.7.8 5.7 1.2 11.4 1.2 17.1z" data-name="Camada_2"/><path style="isolation:isolate" fill="#fff" d="M251.7 122c.7-2.7 1.1-5.6 1.1-8.5 0-19.8-16.6-35.9-37.1-35.9S200.6 80 194.6 84c-1.9-21.5-20.5-38.3-43.2-38.3S113 60.1 108.9 79.2c-3.4-1-7.1-1.6-10.9-1.6-20.5 0-37.1 16.1-37.1 35.9s.2 4.1.5 6.1h-7.6c-17 0-30.8 13.4-30.8 29.9s13.8 29.9 30.8 29.9h185.7c17 0 30.8-13.4 30.8-29.9s-7.7-22.8-18.6-27.4z" opacity=".5"/><path fill="none" stroke="#fff" stroke-linecap="round" stroke-linejoin="round" stroke-width="10" style="isolation:isolate" d="M136.1 66.8s14.9-9.7 29.2-2.6c12.5 6.2 13.9 13.4 15.2 22.1m23.8 11.1s14.8-6 25.8 2.4c9.6 7.3 9.3 13.8 8.7 21.5" opacity=".3"/><path d="M256.9 213.8c-19.5-.3-32.1-11-46-7.9-6.9 1.5-12.6 4.4-16.9 7.1-9.9 8.1 5.6 16.4 5.8 16.5-5.5.1-11.8-4.1-14.8-9.2-.5-.9-.9-1.8-1.2-2.8 0-.3-.2-.6-.3-1-.2-1.1-.3-2.3 0-3.4 0 0 .1 0 .4-.1h.8c.1 0 .2 0 .3-.1.3 0 .6-.2.9-.3.4-.1.9-.3 1.5-.5.1 0 .2 0 .3-.1.6-.2 1.3-.4 1.9-.7h.7c1.2-.4 2.4-.9 3.8-1.4.1 0 .3-.1.4-.2.1 0 .3-.1.4-.2.1 0 .3-.1.4-.2.2 0 .4-.2.6-.2 1.4-.6 2.9-1.2 4.3-1.9.3-.1.6-.3.9-.4 1.6-.8 3.1-1.7 4.5-2.6.1 0 .3-.2.4-.2h.1l1.2-.9c13.2-2.1 15.5 1.7 31.9 5.9 31.3 8 38.5-12.9 26.2-19.2-1-.5-2.2-1-3.4-1.3-.3 0-.6-.1-.9-.2-.6-.1-1.1-.2-1.7-.3-.5-.1-1.1-.2-1.6-.3-16.6-3.6-34.8-11.2-40.7-13.9l-1.1-3.3c-.2-.5-.3-1.1-.5-1.6 1.2.7 16 9.3 38.7 12.6 23.2 3.4 26.4 10 27.3 16.6.9 6.3-5.7 16.9-25.2 16.6z" class="cls-15"/><path fill="#ffc127" d="M291 186.3c-14.4-23.5-50.8-6.4-77.3-25.5l.8 2.5c.7 1.7 1.2 3.3 1.7 4.8 1.2.7 16 9.3 38.7 12.6 23.2 3.4 26.4 10 27.3 16.6.9 6.3-5.7 16.9-25.2 16.6-19.5-.3-32.1-11-46-7.9-6.9 1.5-12.6 4.4-16.9 7.1-9.9 8.1 5.6 16.4 5.8 16.5 6.3-.5 6.5-6.1 6.5-6.2 4.2-21.3 6.5-8.6 45.8-.2 35.8 8 50-18.4 38.8-36.8zm-3.3 10c-1-.2-1.4-1.9-1.4-1.9-3.8-10.5-18.3-14.6-18.3-14.6-1.5-.5-4.9-2-2.3-2.7 2.6-.8 12.4.7 18.8 6.9 6.4 6.1 5 12.7 3.2 12.4zm-2.7 11.8c-2-1.6 1.1-6.9 2-7.8 1.3-1.3 2.5-.3 2.5-.3 2.2 2.1-2.6 9.7-4.5 8.1z"/><path d="M287.7 196.3c-1-.2-1.4-1.9-1.4-1.9-3.8-10.5-18.3-14.6-18.3-14.6-1.5-.5-4.9-2-2.3-2.7 2.6-.8 12.4.7 18.8 6.9 6.4 6.1 5 12.7 3.2 12.4zm-2.7 11.8c-2-1.6 1.1-6.9 2-7.8 1.3-1.3 2.5-.3 2.5-.3 2.2 2.1-2.6 9.7-4.5 8.1z" class="cls-4"/><path fill="#f9a78f" d="M103.8 7.2zm0 0z"/><path d="M222.6 181.3v-5.4l-.6-2.5c0-.4-.2-.8-.2-1.3-.2-1.2-.5-2.4-.9-3.7l-.4-1.9c-.3-.7-.5-1.5-.8-2.2-1.9-4.6-4.6-9.3-8-13.9h-.2c0-2.1-.5-4.3-1.5-6.6-1.8-4.3-5.3-8.9-10.1-13.4l-.1-.1c-.1-2.2-.6-4.3-1.5-6.5-1.7-4.1-4.6-8-8.6-11.2-.1 0-.2-.2-.3-.2l3-5.9c4.5 0 8.9-2.5 11.1-6.8 3.2-6.1.8-13.7-5.4-16.9s-13.7-.8-16.9 5.4-1.7 9.3.9 13l-3 5.9c-.1 0-.2 0-.4-.1-4.9-1.5-9.8-1.6-14.1-.6-2.2.5-4.3 1.4-6.1 2.5h-.2c-6.4-1.3-12.2-1.5-16.7-.5-2.4.5-4.5 1.4-6.2 2.5h-.2c-3.6.8-10.2 1.9-18.3-.3-7.6-1.2-18.1-10.2-32.4-24.2C71.4 73.6 64.4 68 59.1 64.6c-1.6-1-1.1-1.1-4.6.6-1.6.8-3.4 1-5.2.9-2 0-4.2-.4-6.3-.6-4-.3-5.1 3.8-3.2 4.2 0 0 6.8 2.6 13.6 10.1.2.2.3.4.5.5 9.8 11.4 25.4 34.5 41 76.4 2.2 5.9 5.2 10.9 8.4 15.3 0 0 1 1.8 3.6 4.9 0 .1.2.2.3.3 2.7 3.3 7 7.8 13.4 13.1-2.1.4-4.1 1-5.9 1.9-3.4 1.6-6.2 3.9-8 7-5.5-.6-10.3-.4-13.9.8l-4.7-2.4c-4.8-2.4-8.6 4.7-3.8 7.3L177 253c4.8 2.4 8.6-4.7 3.8-7.3l-4.7-2.4c-1.1-3.6-3.7-7.7-7.4-11.8 1.6-3.5 1.9-7.4 1-11.4-.4-1.7-.9-3.4-1.7-5-.2-.5-.4-.9-.7-1.4 11.5 1.2 21.6-1.1 28.6-3.6l.3-.1h.4s.1 0 .2-.1c.2 0 .4-.2.6-.3.3-.1.7-.3 1.1-.5 0 0 .2 0 .2-.1.4-.2.9-.4 1.4-.7h.6c.9-.4 1.8-.9 2.7-1.4 0 0 .2-.1.3-.2.1 0 .2-.1.3-.2.1 0 .2-.1.3-.2.1 0 .3-.2.4-.2 1-.6 2.1-1.2 3.1-1.8.2-.1.4-.3.6-.4 1.2-.7 2.3-1.5 3.3-2.3 0 0 .2-.1.3-.2.3-.2.6-.5.9-.8 0 0 .2-.1.2-.2l.2-.2.2-.2.4-.4c4.7-4.7 7.4-10.9 7.8-17.6z" class="cls-4"/><path d="M214.8 198.8l-.4.4-.2.2-.2.2-.2.2c-.2.1-.3.3-.5.4-.1 0-.2.2-.4.3-.2.2-.4.3-.6.5 0 0-.2.1-.2.2h-.1c-.2.1-.4.3-.6.4 0 0-.1 0-.2.1-.2.1-.3.2-.5.3 0 0-.1 0-.2.1l-.9.6c-.1 0-.2.1-.3.2-.2.1-.4.3-.6.4-.2.1-.4.3-.6.4-.2.1-.4.3-.7.4-.4.3-.9.5-1.3.7-.1 0-.2.1-.3.2h-.1c-.2.1-.5.3-.7.4-.1 0-.2.1-.3.2 0 0-.2.1-.3.2-.1 0-.2.1-.3.2 0 0-.2 0-.3.1-.7.4-1.5.7-2.1 1.1h-.7c-.3.1-.5.2-.8.4h-.5c0 .1-.2.2-.2.2H198.6c-.3.1-.5.2-.7.3h-.5c-.2 0-.3.1-.3.1-7.1 2.5-17.1 4.8-28.6 3.6.2.5.5.9.7 1.4.8 1.7 1.3 3.4 1.7 5 .9 4 .6 7.9-1 11.4 3.7 4.1 6.2 8.2 7.4 11.8l4.7 2.4c4.8 2.6 1 9.7-3.8 7.3L85.5 203c-4.8-2.6-1-9.7 3.8-7.3l4.7 2.4c3.6-1.2 8.4-1.4 13.9-.8 1.8-3.1 4.6-5.4 8-7 1.8-.8 3.8-1.5 5.9-1.9-6.4-5.2-10.7-9.8-13.4-13.1 0-.1-.2-.2-.3-.3-2.8-3.5-9-12.7-12-20.2-16.5-41.6-31.2-64.9-41-76.4-.2-.2-.3-.4-.5-.5C47.8 70.4 41 67.8 41 67.8c-1.8-.4-.8-4.5 3.2-4.2 2.1.2 4.3.5 6.3.6 12.6 9.9 28.8 25.2 44.6 48.1 33.7 48.6 75 62.4 95 65.7 16.4 2.7 29.4-.2 33.5-3.9l.2-.2v2.9c0 1.2 0 2.4-.1 3.5 0 .7-.1 1.4-.2 2.1-1 5.9-3.7 10.6-7.5 14.4z" class="cls-15"/><path d="M221.6 172.1c0 .4.2.9.2 1.3l-.3-1.3-.8-3.7c.4 1.3.7 2.5.9 3.7z" class="cls-10"/><path fill="#ba6f0c" d="M211.3 150.3l-76-39.4c1.7-1.2 3.7-2 6.2-2.5l68.3 35.4c1 2.3 1.5 4.5 1.5 6.5zm-11.6-19.9l-41.5-21.5h.2c1.8-1.1 3.9-2 6.1-2.5l33.6 17.4c.9 2.1 1.4 4.3 1.5 6.5l.1.1z"/><path d="M179 107.1l3-5.9 10.3 5.3-3 5.9c.1 0 .2.2.3.2l-10.9-5.6c.1 0 .2 0 .4.1zM176.8 253l-92.7-48.1c-4.8-2.6-1-9.7 3.8-7.3l4.7 2.4c3.6-1.2 8.4-1.4 13.9-.8 1.8-3.1 4.6-5.4 8-7 1.8-.8 3.8-1.5 5.9-1.9l47.4 24.6c.8 1.7 1.3 3.4 1.7 5 .9 4 .6 7.9-1 11.4 3.7 4.1 6.2 8.2 7.4 11.8l4.7 2.4c4.8 2.6 1 9.7-3.8 7.3z" class="cls-15"/><path d="M169.5 220c-4.6-.4-13.5-2.3-28.7-9.9-13.3-6.7-21.5-13.2-26.2-17.8 1.8-.8 3.8-1.5 5.9-1.9 0 0 24.4 18 43.5 22.6 1.1.3 2.2.5 3.2.6.2.5.5.9.7 1.4.8 1.7 1.3 3.4 1.7 5zm6.4 23.3l-83.3-43.2c3.6-1.2 8.4-1.4 13.9-.8l62 32.2c3.7 4.1 6.2 8.2 7.4 11.8z" class="cls-4"/><path fill="#f46300" d="M221.6 172.1c0 .4.2.9.2 1.3l-.3-1.3zm-7.9 27.8s.2-.2.3-.2l-.2.2z" opacity=".7"/><path fill="#fff" style="isolation:isolate" d="M99.7 109.1s17.2 15.6 35.4 8.9l19.2 9.9s-30.1 12.6-54.5-18.8zm105.4 44.5s8.9 11.7 9.6 21.5c0 0-14.2 2.5-27.1-1.6 0 0 9.3-15.4 3.5-26.5l14 6.6zm-137-78.4s-2.9-2.2-4-2.1c-1 .2 12.8 15.1 17.2 17.8 4.5 2.7-5.8-9.5-13.3-15.7z" opacity=".2"/><ellipse cx="190.3" cy="88.2" class="cls-13" rx="4.5" ry="3.1" transform="rotate(-28.8 190.35 88.105)"/><path d="M186.7 95.2c0 1.4-.9 2.6-2 2.6s-2-1.2-2-2.6c0-1.4.9-2.6 2-2.6s2 1.2 2 2.6z" class="cls-13"/><path d="M196.3 209.8c2.2-.9 10.8-4.7 17.4-9.9-5.5 4.8-15 8.9-17.4 9.9zm26.3-31c0 1.2 0 2.4-.1 3.5v-1c0-1.3 0-3.1-.3-5.2-.1-.8-.2-1.7-.4-2.7l.6 2.5v2.9zm-1.9-10.4c-.4-1.3-.8-2.7-1.3-4.1.3.7.6 1.5.8 2.2l.4 1.9z" class="cls-10"/><path d="M75.1 225.3h112.5v4H75.1z" class="cls-15" transform="rotate(27.4 131.233 227.244)"/></g></svg>