<?xml version="1.0" encoding="UTF-8"?>
<svg id="Layer_1" xmlns="http://www.w3.org/2000/svg" version="1.1" viewBox="0 0 50 50">
  <!-- Generator: Adobe Illustrator 29.4.0, SVG Export Plug-In . SVG Version: 2.1.0 Build 152)  -->
  <defs>
    <style>
      .st0, .st1, .st2 {
        fill: none;
        stroke: #444;
        stroke-linecap: round;
        stroke-linejoin: round;
      }

      .st1 {
        stroke-width: 2.5px;
      }

      .st3 {
        fill: #e589ef;
      }

      .st2 {
        stroke-width: .5px;
      }
    </style>
  </defs>
  <path class="st3" d="M46.2,13.9l1.6-2.6c1.1-1.8,0-4.2-2.1-4.5l-7.2,1.2H11.8c-3.2,0-10.1-1.9-10.1,1.3l.8,12.2v16.9c-2.7,4.1,1.2,6.4,4.4,5.8l13.1-2,25.5-9c.7-.4,1.6-17.2.6-19.2Z"/>
  <g>
    <path class="st2" d="M7.2,32.1V15c0-1.3,1.1-2.4,2.5-2.4h30.2c1.4,0,2.5,1.1,2.5,2.4v18.1"/>
    <path class="st1" d="M39.3,43.6c.7,0,1.4-.4,1.9-1.1,1.4,2.7,4.6,2.4,6.1.9,1.5-1.5,1.7-4.8-1-6.1,1.8-1.1,1.3-3.4,0-4.1v-15.4c1.3-.7,1.8-3,0-4.1,2.6-1.2,2.4-4.6,1-6.1-1.5-1.5-4.6-1.7-6.1.9-1.1-1.8-3.4-1.3-4.1,0H12.5c-.7-1.3-3-1.8-4.1,0-1.4-2.7-4.6-2.4-6.1-.9-1.5,1.5-1.7,4.8,1,6.1-1.8,1.1-1.3,3.4,0,4.1v15.4c-1.3.7-1.8,3,0,4.1-2.6,1.2-2.4,4.6-1,6.1,1.5,1.5,4.6,1.7,6.1-.9,1.1,1.8,3.4,1.3,4.1,0h13.9"/>
    <g>
      <circle class="st0" cx="15.6" cy="21.9" r="4.7"/>
      <polyline class="st0" points="12.7 25.6 12.7 34 15.6 32.2 18.4 34 18.4 25.6"/>
    </g>
    <path class="st0" d="M12.7,26.5c-2.9.3-5.2,2.8-5.2,5.8s2.6,5.8,5.8,5.8h24c2.7,0,4.8-2.2,4.8-4.8s-2.2-4.8-4.8-4.8-.5,0-.7,0c.5-.9.9-2,.9-3.1,0-3.3-2.7-6-6-6s-4.7,1.6-5.6,3.8c-1.2-.8-2.6-1.3-4.1-1.3s-1,0-1.4.1"/>
  </g>
</svg>