<?xml version="1.0" encoding="utf-8"?>
<!-- Generator: Adobe Illustrator 24.0.0, SVG Export Plug-In . SVG Version: 6.00 Build 0)  -->
<svg version="1.1" id="Camada_1" xmlns="http://www.w3.org/2000/svg" xmlns:xlink="http://www.w3.org/1999/xlink" x="0px" y="0px"
	 viewBox="0 0 50 50" style="enable-background:new 0 0 50 50;" xml:space="preserve">
<style type="text/css">
	.st0{fill:#00C8E2;}
	.st1{fill:#00DFFC;}
	.st2{fill:#444444;}
</style>
<g>
	<g>
		<path class="st0" d="M48.4,25.7l-3.7-2.5c-0.1-1.2-0.3-2.4-0.6-3.6l2.6-3.8l-3.2-5.4L39.1,11c-0.9-0.9-1.8-1.7-2.8-2.4l-0.1-0.7
			L5.6,19.1L6.2,20c-0.3,1.1-0.5,2.2-0.6,3.3L1.7,26l1.2,6.1l4.6,1.2c0,0.1,0,0.1,0.1,0.2c0.5,0.9,1,1.8,1.5,2.6l-1.2,4.7l0.4,0.3
			l40.1-14.6L48.4,25.7z"/>
	</g>
	<g>
		<path class="st1" d="M35.9,4.1l-5.9-2l-3.1,3.2c-1.2-0.1-2.4-0.1-3.6,0L20,2l-5.8,2.2l-0.3,4.5c-1,0.7-1.8,1.4-2.6,2.2l-4.7-0.4
			l-3,5.5l2.2,3.7L36.5,8.2L35.9,4.1z"/>
	</g>
	<g>
		<path class="st2" d="M49.7,25.8c0,0.1,0,0.1,0,0.2l-1,6.2c-0.1,0.5-0.6,1-1.2,1c-0.1,0-0.1,0-0.2,0c-0.7-0.1-1.1-0.7-1-1.4
			l0.9-5.6l-3.6-2.4v-0.6c-0.1-1.1-0.3-2.3-0.6-3.4l-0.2-0.6l2.5-3.6l-2.4-4L38.7,12l-0.4-0.4c-0.8-0.8-1.7-1.6-2.6-2.2l-0.5-0.3
			L34.7,5l-4.4-1.5l-3,3.1l-0.6-0.1c-1.1-0.1-2.3-0.1-3.4,0l-0.6,0.1l-3.1-3.1l-4.3,1.7L15,9.5l-0.5,0.3c-0.9,0.6-1.7,1.3-2.5,2.1
			l-0.4,0.4L7.2,12L5,16.1l2.6,3.6l-0.1,0.6c-0.3,1-0.4,2-0.5,3.1V24l-3.7,2.6L4,31.1l4.4,1.1l0.3,0.7c0.4,0.8,0.9,1.7,1.4,2.4
			l0.3,0.5l-1.2,4.5l3.6,2.9l4.1-2l0.5,0.2c0.6,0.3,1.1,0.5,1.7,0.7c0.4,0.1,0.8,0.2,1.1,0.3l0.6,0.2l2,4.2l4.6-0.1l1.8-4.1l0.6-0.2
			c1-0.3,2-0.6,2.9-1.1l0.5-0.2l4.9,2.2c0.6,0.3,0.9,1,0.6,1.7c-0.3,0.6-1,0.9-1.7,0.6L33.4,44c-0.7,0.3-1.5,0.6-2.2,0.8l-2,4.4
			l-7.9,0.2l-2.2-4.6c-0.2-0.1-0.5-0.1-0.7-0.2C18,44.4,17.5,44.2,17,44l-4.5,2.2l-6.1-4.9l1.3-4.9c-0.4-0.7-0.7-1.4-1.1-2l-4.8-1.2
			l-1.5-7.7l4.1-2.9c0.1-0.8,0.2-1.5,0.4-2.3l-2.9-4l3.8-6.9l4.9,0.4c0.6-0.6,1.2-1.1,1.9-1.6L13,3.4l7.3-2.8L23.7,4
			c0.9-0.1,1.8-0.1,2.7,0l3.3-3.3L37,3.2L37.4,8c0.7,0.5,1.4,1.1,2.1,1.7l4.6-0.5l4.1,6.7l-2.7,3.9c0.2,0.9,0.4,1.7,0.5,2.6l3.2,2.2
			C49.6,24.9,49.8,25.4,49.7,25.8z"/>
	</g>
	<g>
		<g>
			<path class="st2" d="M25.4,37.1V36l-1.3,1h-0.3c-6.3-0.6-11-5.9-11-12.2c0-1.9,0.4-3.6,1.2-5.3l0.4-0.8l1,0.7l-0.2-1.9l0.2-0.2
				c2.3-3,5.9-4.8,9.7-4.8c3.7,0,7.1,1.6,9.5,4.5l0.5,0.6l-0.9,0.7l1.6,0.4L36,19c1,1.8,1.5,3.8,1.5,5.8c0,6.4-4.8,11.6-11.1,12.2
				L25.4,37.1z M15,20.9c-0.5,1.2-0.7,2.5-0.7,3.9c0,5.5,4,10,9.4,10.7l3.3-2.7v2.6c5.2-0.9,8.9-5.3,8.9-10.6c0-1.7-0.4-3.3-1.1-4.8
				l-4.1-1l2.2-1.6c-2-2.1-4.8-3.3-7.8-3.3c-3.3,0-6.3,1.4-8.3,3.9l0.5,4.4L15,20.9z M25.1,32.4c-4.2,0-7.6-3.4-7.6-7.6
				s3.4-7.6,7.6-7.6s7.6,3.4,7.6,7.6S29.3,32.4,25.1,32.4z M25.1,18.7c-3.4,0-6.1,2.7-6.1,6.1s2.7,6.1,6.1,6.1s6.1-2.7,6.1-6.1
				S28.4,18.7,25.1,18.7z"/>
		</g>
		<g>
			<path class="st2" d="M27.1,42.4l-3.7-3.1c-7.3-0.9-12.8-7.1-12.8-14.5c0-2.1,0.4-4.1,1.3-6l-2.5-1.6l4.3-1.3
				c2.8-3.6,7-5.6,11.5-5.6c4.2,0,8.1,1.8,10.9,4.9l2.4-1.8l-0.3,4.9c1.1,2.1,1.6,4.4,1.6,6.7c0,7.3-5.5,13.6-12.8,14.5L27.1,42.4z
				 M12.8,17.7l1,0.6l-0.3,0.6c-0.9,1.9-1.4,3.8-1.4,5.9c0,6.7,5,12.3,11.7,13H24l1.6,1.3v-1.2l0.7-0.1c6.8-0.5,12.1-6.3,12.1-13.1
				c0-2.1-0.5-4.3-1.5-6.1l-0.1-0.2l0.1-2.1l-1,0.7l-0.5-0.6c-2.5-3.1-6.2-4.9-10.2-4.9c-4.2,0-8,1.9-10.5,5.2l-0.1,0.2L12.8,17.7z
				 M14.1,16.5L14.1,16.5L14.1,16.5z"/>
		</g>
	</g>
</g>
</svg>
