<svg xmlns="http://www.w3.org/2000/svg" id="Camada_1" x="0" y="0" version="1.1" viewBox="0 0 300 300" xml:space="preserve"><style>.st25{fill:#fff}.st58{fill:none;stroke:#fff;stroke-width:3;stroke-miterlimit:10}.st60{fill-rule:evenodd;clip-rule:evenodd;fill:#f6543b}.st61{opacity:.3}.st62{fill:#fac900}.st62,.st63,.st64,.st65{fill-rule:evenodd;clip-rule:evenodd}.st63{fill:#61e061}.st64{fill:#c75eeb}.st65{fill:#4ebfe9}</style><path id="Camada_10_00000035499656215307726640000017267444751372090796_" fill="#008dd3" d="M276.4 148.4c.1 19.8-4.1 38.6-11.6 55.7-21.1 47.6-68.6 80.8-124 81-14.7.1-28.9-2.3-42.2-6.5-25-8-46.8-23-63.1-42.8-17-20.4-28.1-46-30.8-74-.4-4-.6-8.2-.6-12.3C3.9 103.3 26.8 62.3 62 37.6c4.6-3.3 9.4-6.2 14.4-8.8 7-3.8 14.4-6.8 22-9.4 7.2-2.3 14.7-4 22.4-5.2 6.2-.8 12.5-1.3 18.9-1.4 25-.1 48.5 6.6 68.8 18.3 3.7 2.1 7.1 4.3 10.5 6.8 16.2 11.5 29.8 26.5 39.7 43.9 1.1 2 2.2 3.9 3.2 6 .8 1.8 1.7 3.5 2.5 5.3 2.6 5.8 4.8 11.7 6.6 17.8 2 6.8 3.5 13.9 4.3 21 .7 5.4 1.1 10.9 1.1 16.5z"/><path d="M38.3 187.9c-7.9-17 41.1-56.7 109.5-88.6S278.1 55.2 286 72.2" class="st58"/><path d="M285.7 72.4S321 181 240.5 218.7l-31 14.5-31 14.5c-80.6 37.6-141.2-59.2-141.2-59.2-7.9-17 41.1-56.7 109.5-88.6S277.1 55.8 285 72.7l.7-.3z" class="st25" opacity=".5"/><circle cx="180.9" cy="163" r="38.5" class="st60"/><g class="st61"><path d="M163.9 135c12.1-6.1 27.7-5.9 38.6 2.8 9.4 7.5 13.3 20.7 12.1 32.2-.1 1.1-1.1 1.9-2.2 1.8-.8-.1-1.5-.7-1.7-1.4-2.5-7.7-4.9-14.5-9.7-20.5-8.3-10.6-23.1-11.9-35.7-11-2.4.2-3.4-2.9-1.4-3.9z" class="st25"/></g><circle cx="71.5" cy="168.6" r="26.7" class="st60"/><g class="st61"><path d="M59.5 148.5c12.6-7.6 30.3-3 35 11.7 1.5 4.4 1.8 8.9 1 13.1-.2 1.1-1.3 1.9-2.4 1.7-.7-.1-1.3-.6-1.5-1.3-2.9-6.6-5.2-12.8-11-16.9-5.5-3.8-12.8-4.3-19.7-4.5-2.2.2-3.2-2.6-1.4-3.8z" class="st25"/></g><circle cx="106.9" cy="116.6" r="38.2" class="st62"/><g class="st61"><path d="M92.3 90.1c15.6-8.4 36.7-3.3 42.8 14.6 1.9 5.3 2.4 10.8 1.7 16-.2 1.1-1.2 1.9-2.3 1.8-.8-.1-1.4-.7-1.7-1.4-2.4-6.4-4.3-11.9-8.2-16.9-7.1-9.6-19.9-10.8-31.2-10.3-2.1.1-2.9-2.8-1.1-3.8z" class="st25"/></g><circle cx="233.5" cy="176" r="32.6" class="st62"/><g class="st61"><path d="M221 153.2c13.4-7.8 32.1-3.1 37.2 12.5 1.6 4.6 1.9 9.4 1.2 13.9-.2 1.1-1.3 1.9-2.4 1.7-.7-.1-1.3-.6-1.6-1.3-2.4-5.7-4.3-10.7-8.1-15.1-6.1-7.1-16-7.9-25-7.9-2.2.1-3.1-2.7-1.3-3.8z" class="st25"/></g><circle cx="170.6" cy="85.2" r="42.6" class="st63"/><g class="st61"><path d="M148.2 54.5c14.1-6.6 32.1-6.4 44.6 3.6 10.9 8.6 15.4 23.8 14.3 37.1-.1 1.1-1.1 2-2.2 1.9-.9-.1-1.6-.7-1.8-1.5-1.9-6.4-3.9-12.5-6.8-17.9-9.3-18.4-27.9-21.3-46.9-19.3-2.2.3-3.2-2.8-1.2-3.9z" class="st25"/></g><circle cx="172.8" cy="205.4" r="26.8" class="st63"/><g class="st61"><path d="M158.5 185.4c13.3-7.8 31.9-3.1 36.9 12.4 1.6 4.6 1.9 9.3 1.1 13.8-.2 1.1-1.3 1.9-2.4 1.7-.7-.1-1.3-.6-1.6-1.3-2.4-5.7-4.3-10.6-8.1-14.9-6-7-15.8-7.8-24.8-7.9-2 .2-2.9-2.7-1.1-3.8z" class="st25"/></g><circle cx="130.1" cy="181.7" r="48.3" class="st64"/><g class="st61"><path d="M110 148.3c14.1-6.6 32.1-6.4 44.6 3.6 10.9 8.6 15.4 23.8 14.3 37.1-.1 1.1-1.1 2-2.2 1.9-.9-.1-1.6-.7-1.8-1.5-1.9-6.4-3.9-12.5-6.8-17.9-9.3-18.4-27.9-21.3-46.9-19.3-2.2.3-3.2-2.8-1.2-3.9z" class="st25"/></g><circle cx="239.9" cy="91.5" r="26.9" class="st64"/><g class="st61"><path d="M228.4 72.1c11.9-7.4 28.8-3 33.2 11 1.4 4.2 1.6 8.4.8 12.4-.2 1.1-1.3 1.9-2.5 1.6-.7-.1-1.2-.6-1.5-1.2-2.9-6.2-5-11.8-10.4-15.7-5.1-3.5-12-4-18.3-4.4-2.1.2-3-2.6-1.3-3.7z" class="st25"/></g><circle cx="217.6" cy="131.1" r="36.5" class="st65"/><g class="st61"><path d="M198 106.2c12-6 27.2-5.9 38.1 2.7 9.3 7.4 13.2 20.5 11.9 31.8-.2 2.2-3.3 2.5-4 .4-2.7-7.8-5-14.9-10.2-20.9-8.2-9.9-22.5-11-34.6-10.2-2.2.3-3.2-2.7-1.2-3.8z" class="st25"/></g><circle cx="149.1" cy="132.4" r="22.5" class="st65"/><g class="st61"><path d="M136.8 116.3c11-7.2 27.2-2.9 31.2 10.2 1.3 3.9 1.5 7.9.6 11.7-.3 1.1-1.4 1.8-2.5 1.6-.7-.2-1.2-.6-1.4-1.2-2.8-5.6-4.8-10.8-9.8-14.3-4.7-3.2-10.9-3.8-16.8-4.2-2.2.1-3.1-2.6-1.3-3.8z" class="st25"/></g><g opacity=".4"><path fill="#fff" stroke="#fff" stroke-miterlimit="10" stroke-width="3" d="M286.1 72.2S322 180.3 241.5 218l-31 14.5-31 14.5c-80.6 37.6-141.2-59.2-141.2-59.2h0c7.9 17 69.8 4.8 138.2-27.1S293.9 89 286 72l.1.2z"/></g><g class="st61"><path d="M286.3 105.4c-1 36.4-17.4 95.2-56.2 107.2-1.1.3-2.2-.3-2.5-1.4-.3-.9.2-1.9 1-2.3 4.3-2.5 8.2-5.5 11.7-8.9 17.6-17.4 26.6-42.3 34-65.6 3-9.7 5.6-19.7 8.1-29.6.5-2.2 3.9-1.8 3.9.6z" class="st25"/></g><g><path d="M286.1 72.2c7.9 17-41.1 56.7-109.5 88.6S46.2 204.9 38.3 187.9" class="st58"/><path d="M286.1 72.2s36 108.3-44.6 146l-31 14.5-31 14.5C98.9 284.8 38.3 188 38.3 188" class="st58"/></g></svg>