<svg xmlns="http://www.w3.org/2000/svg" id="Layer_1" x="0" y="0" version="1.1" viewBox="0 0 50 50" xml:space="preserve"><style>.st2{fill:#031326}</style><path fill="#e06b6b" d="M25 2.5c-11.9 0-21.6 9.2-22.5 20.9L41.1 9.3C37 5.1 31.3 2.5 25 2.5z"/><path fill="#c86060" d="M47.5 25c0-6.1-2.4-11.6-6.4-15.7l-38.6 14c0 .5-.1 1.1-.1 1.7 0 6.5 2.7 12.3 7.1 16.4l37.8-13.7c.1-.9.2-1.8.2-2.7z"/><path d="M25 48.8C11.9 48.8 1.2 38.1 1.2 25S11.9 1.2 25 1.2 48.8 11.9 48.8 25 38.1 48.8 25 48.8zm0-45C13.3 3.8 3.8 13.3 3.8 25S13.3 46.2 25 46.2 46.2 36.7 46.2 25 36.7 3.8 25 3.8z" class="st2"/><path d="M39.6 33.4H38V33c0-.4-.3-.8-.8-.8s-.8.3-.8.8v.4h-3v-.2c0-.4-.3-.8-.8-.8s-.6.3-.6.7v.2h-3v-.5c0-.4-.3-.8-.8-.8s-.8.3-.8.8v.5h-6.5v-.5c0-.4-.3-.8-.8-.8s-.8.3-.8.8v.5h-3.8V29l4-5.2c.1.1.3.2.5.2.4 0 .8-.3.8-.8v-.9h6.5v.9c0 .4.3.8.8.8s.8-.3.8-.8v-1.6l3.2-4h4.4v5.9c0 .4.3.8.8.8s.8-.3.8-.8v-7.2h-6.6L27.6 21h-7.7l-.2.3-.3.3-3.9 5V12.8c0-.7-.6-1.2-1.2-1.2s-1.2.6-1.2 1.2v20.6H9.5c-.7 0-1.2.6-1.2 1.2s.6 1.2 1.2 1.2h3.6v2.6c0 .7.6 1.2 1.2 1.2s1.2-.6 1.2-1.2v-2.6h24c.7 0 1.2-.6 1.2-1.2s-.5-1.2-1.1-1.2z" class="st2"/><path d="M20.9 25.6c0-.4-.3-.8-.8-.8s-.8.3-.8.8V27c0 .4.3.8.8.8s.8-.3.8-.8v-1.4zm-.8 2.8c-.4 0-.8.3-.8.8v1.5c0 .4.3.8.8.8s.8-.3.8-.8v-1.5c0-.4-.3-.8-.8-.8zm8.8-2.8c0-.4-.3-.8-.8-.8s-.8.3-.8.8V27c0 .4.3.8.8.8s.8-.3.8-.8v-1.4zm-.7 2.8c-.4 0-.8.3-.8.8v1.5c0 .4.3.8.8.8s.8-.3.8-.8v-1.5c-.1-.4-.4-.8-.8-.8zm9.8-2.7c0-.4-.3-.8-.8-.8s-.8.3-.8.8v1.5c0 .4.3.8.8.8s.8-.3.8-.8v-1.5zm-.7 2.9c-.4 0-.8.3-.8.8v1.5c0 .4.3.8.8.8s.8-.3.8-.8v-1.5c-.1-.5-.4-.8-.8-.8zm-3.8-6.4c0-.4-.3-.8-.8-.8s-.7.4-.7.8v1.5c0 .4.3.8.8.8s.8-.3.8-.8v-1.5zm0 3.6c0-.4-.3-.8-.8-.8s-.7.4-.7.8v1.5c0 .4.3.8.8.8s.8-.3.8-.8v-1.5zm-.8 2.9c-.4 0-.8.3-.8.8V31c0 .4.3.8.8.8s.8-.3.8-.8v-1.5c0-.4-.4-.8-.8-.8zm.8-10c0-.4-.3-.8-.8-.8s-.7.4-.7.8v1.5c0 .4.3.8.8.8s.8-.3.8-.8v-1.5z" class="st2"/></svg>