<?xml version="1.0" encoding="utf-8"?>
<!-- Generator: Adobe Illustrator 22.0.1, SVG Export Plug-In . SVG Version: 6.00 Build 0)  -->
<svg version="1.1" id="Layer_1" xmlns="http://www.w3.org/2000/svg" xmlns:xlink="http://www.w3.org/1999/xlink" x="0px" y="0px"
	 viewBox="0 0 50 50" style="enable-background:new 0 0 50 50;" xml:space="preserve">
<style type="text/css">
	.st0{fill:#E06B6B;}
	.st1{fill:#C86060;}
	.st2{fill:#464646;}
</style>
<g>
	<g>
		<path class="st0" d="M25,2.5c-11.9,0-21.6,9.2-22.5,20.9L41.1,9.3C37,5.1,31.3,2.5,25,2.5z"/>
	</g>
	<g>
		<path class="st1" d="M47.5,25c0-6.1-2.4-11.6-6.4-15.7l-38.6,14c0,0.5-0.1,1.1-0.1,1.7c0,6.5,2.7,12.3,7.1,16.4l37.8-13.7
			C47.4,26.8,47.5,25.9,47.5,25z"/>
	</g>
	<g>
		<path class="st2" d="M25,48.8C11.9,48.8,1.2,38.1,1.2,25S11.9,1.2,25,1.2S48.8,11.9,48.8,25S38.1,48.8,25,48.8z M25,3.8
			C13.3,3.8,3.8,13.3,3.8,25c0,11.7,9.5,21.2,21.2,21.2c11.7,0,21.2-9.5,21.2-21.2C46.2,13.3,36.7,3.8,25,3.8z"/>
	</g>
	<g>
		<path class="st2" d="M39.6,33.4H38V33c0-0.4-0.3-0.8-0.8-0.8s-0.8,0.3-0.8,0.8v0.4h-3v-0.2c0-0.4-0.3-0.8-0.8-0.8S32,32.7,32,33.1
			v0.2h-3v-0.5c0-0.4-0.3-0.8-0.8-0.8s-0.8,0.3-0.8,0.8v0.5h-6.5v-0.5c0-0.4-0.3-0.8-0.8-0.8s-0.8,0.3-0.8,0.8v0.5h-3.8v-4.3l4-5.2
			c0.1,0.1,0.3,0.2,0.5,0.2c0.4,0,0.8-0.3,0.8-0.8v-0.9h6.5v0.9c0,0.4,0.3,0.8,0.8,0.8s0.8-0.3,0.8-0.8v-1.5c0,0,0-0.1,0-0.1l3.2-4
			h4.4V22v1.2v0.3c0,0.4,0.3,0.8,0.8,0.8s0.8-0.3,0.8-0.8v-0.3V22v-5.7h-6.6L27.6,21h-7.7l-0.2,0.3c-0.1,0.1-0.2,0.2-0.3,0.3l-3.9,5
			V12.8c0-0.7-0.6-1.2-1.2-1.2s-1.2,0.6-1.2,1.2v20.6H9.5c-0.7,0-1.2,0.6-1.2,1.2s0.6,1.2,1.2,1.2h3.6v2.6c0,0.7,0.6,1.2,1.2,1.2
			s1.2-0.6,1.2-1.2v-2.6h24c0.7,0,1.2-0.6,1.2-1.2S40.2,33.4,39.6,33.4z"/>
		<path class="st2" d="M20.9,25.6c0-0.4-0.3-0.8-0.8-0.8s-0.8,0.3-0.8,0.8V27c0,0.4,0.3,0.8,0.8,0.8s0.8-0.3,0.8-0.8V25.6z"/>
		<path class="st2" d="M20.1,28.4c-0.4,0-0.8,0.3-0.8,0.8v1.5c0,0.4,0.3,0.8,0.8,0.8s0.8-0.3,0.8-0.8v-1.5
			C20.9,28.8,20.6,28.4,20.1,28.4z"/>
		<path class="st2" d="M28.9,25.6c0-0.4-0.3-0.8-0.8-0.8s-0.8,0.3-0.8,0.8V27c0,0.4,0.3,0.8,0.8,0.8s0.8-0.3,0.8-0.8V25.6z"/>
		<path class="st2" d="M28.2,28.4c-0.4,0-0.8,0.3-0.8,0.8v1.5c0,0.4,0.3,0.8,0.8,0.8s0.8-0.3,0.8-0.8v-1.5
			C28.9,28.8,28.6,28.4,28.2,28.4z"/>
		<path class="st2" d="M38,25.7c0-0.4-0.3-0.8-0.8-0.8s-0.8,0.3-0.8,0.8v1.5c0,0.4,0.3,0.8,0.8,0.8s0.8-0.3,0.8-0.8V25.7z"/>
		<path class="st2" d="M37.3,28.6c-0.4,0-0.8,0.3-0.8,0.8v1.5c0,0.4,0.3,0.8,0.8,0.8s0.8-0.3,0.8-0.8v-1.5
			C38,28.9,37.7,28.6,37.3,28.6z"/>
		<path class="st2" d="M33.5,22.2c0-0.4-0.3-0.8-0.8-0.8S32,21.8,32,22.2v1.5c0,0.4,0.3,0.8,0.8,0.8s0.8-0.3,0.8-0.8V22.2z"/>
		<path class="st2" d="M33.5,25.8c0-0.4-0.3-0.8-0.8-0.8S32,25.4,32,25.8v1.5c0,0.4,0.3,0.8,0.8,0.8s0.8-0.3,0.8-0.8V25.8z"/>
		<path class="st2" d="M32.7,28.7c-0.4,0-0.8,0.3-0.8,0.8V31c0,0.4,0.3,0.8,0.8,0.8s0.8-0.3,0.8-0.8v-1.5
			C33.5,29.1,33.1,28.7,32.7,28.7z"/>
		<path class="st2" d="M33.5,18.7c0-0.4-0.3-0.8-0.8-0.8S32,18.3,32,18.7v1.5c0,0.4,0.3,0.8,0.8,0.8s0.8-0.3,0.8-0.8V18.7z"/>
	</g>
</g>
</svg>
