<?xml version="1.0" encoding="utf-8"?>
<!-- Generator: Adobe Illustrator 28.1.0, SVG Export Plug-In . SVG Version: 6.00 Build 0)  -->
<svg version="1.1" id="Camada_1" xmlns="http://www.w3.org/2000/svg" xmlns:xlink="http://www.w3.org/1999/xlink" x="0px" y="0px"
	 viewBox="0 0 50 50" style="enable-background:new 0 0 50 50;" xml:space="preserve">
<style type="text/css">
	.st0{fill:#C3FF68;}
	.st1{fill:none;stroke:#444444;stroke-width:2.5;stroke-linecap:round;stroke-linejoin:round;stroke-miterlimit:10;}
	.st2{fill:none;stroke:#444444;stroke-linecap:round;stroke-linejoin:round;stroke-miterlimit:10;}
	.st3{fill:none;stroke:#444444;stroke-width:0.5;stroke-linecap:round;stroke-linejoin:round;stroke-miterlimit:10;}
</style>
<g>
	<path class="st0" d="M48.1,20c-0.2-0.8-2.7-7.5-3.2-8.1l-3-3.5l-0.2,0.1l-7.7-5.8L26.1,2C22.9,2,11.5,2.2,4.5,12.2l-4,10.7L0.4,23
		l4,13.5c0.1,0.4,4.6,5.7,4.9,5.9l5.7,3l32.4-11.8C48,33.2,49,24.8,48.1,20z"/>
	<g>
		<g>
			<g>
				<path class="st1" d="M32.2,47.4c-7,2.3-15,1.2-21.3-3.6C0.6,36.1-1.5,21.4,6.3,11"/>
				<path class="st1" d="M6.1,11.2c2-3,4.7-4.7,4.7-4.7l0.7-0.5c8.1-5.7,19.2-5.8,27.6,0.4c10.4,7.8,12.4,22.5,4.7,32.8"/>
			</g>
		</g>
	</g>
	<g>
		<g>
			<g>
				<g>
					<path class="st2" d="M29.7,17.4v1.9c0,0,0,0.1-0.1,0.1h-9.3c0,0-0.1,0-0.1-0.1v-1.8c0.2-0.5,2.5-2,4.8-2
						C27.2,15.4,29.6,16.9,29.7,17.4z"/>
					<path class="st2" d="M25,6.1c1.7,0,2.9,1.3,2.9,3.1v1.3c0,1.8-1.2,3.1-2.9,3.1c-1.7,0-2.9-1.3-2.9-3.1V9.3
						C22.2,7.5,23.4,6.1,25,6.1z"/>
				</g>
				<g>
					<path class="st2" d="M29.7,42.1V44c0,0,0,0.1-0.1,0.1h-9.3c0,0-0.1,0-0.1-0.1v-1.8c0.2-0.5,2.5-2,4.8-2
						C27.2,40.2,29.6,41.7,29.7,42.1z"/>
					<path class="st2" d="M25,30.9c1.7,0,2.9,1.3,2.9,3.1v1.3c0,1.8-1.2,3.1-2.9,3.1c-1.7,0-2.9-1.3-2.9-3.1V34
						C22.2,32.2,23.4,30.9,25,30.9z"/>
				</g>
			</g>
			<g>
				<g>
					<path class="st2" d="M16.9,29.7v1.9c0,0,0,0.1-0.1,0.1H7.5c0,0-0.1,0-0.1-0.1v-1.8c0.2-0.5,2.5-2,4.8-2
						C14.3,27.8,16.7,29.3,16.9,29.7z"/>
					<path class="st2" d="M12.2,18.5c1.7,0,2.9,1.3,2.9,3.1v1.3c0,1.8-1.2,3.1-2.9,3.1s-2.9-1.3-2.9-3.1v-1.3
						C9.3,19.8,10.5,18.5,12.2,18.5z"/>
				</g>
				<g>
					<path class="st2" d="M42.6,29.7v1.9c0,0,0,0.1-0.1,0.1h-9.3c0,0-0.1,0-0.1-0.1v-1.8c0.2-0.5,2.5-2,4.8-2
						C40.1,27.8,42.4,29.3,42.6,29.7z"/>
					<path class="st2" d="M37.9,18.5c1.7,0,2.9,1.3,2.9,3.1v1.3c0,1.8-1.2,3.1-2.9,3.1c-1.7,0-2.9-1.3-2.9-3.1v-1.3
						C35,19.8,36.3,18.5,37.9,18.5z"/>
				</g>
			</g>
		</g>
		<path class="st3" d="M20.4,41.9c-5.2-1.4-9.4-5.1-11.4-10"/>
		<path class="st3" d="M41,31.9c-2.1,4.8-6.2,8.6-11.4,10"/>
		<path class="st3" d="M27.7,7.9c8.3,1.3,14.7,8.5,14.7,17.2c0,1.3-0.2,2.7-0.4,3.9"/>
		<path class="st3" d="M8,29.1c-0.3-1.3-0.5-2.6-0.5-4c0-8.7,6.3-15.9,14.6-17.2"/>
	</g>
</g>
</svg>
