<svg xmlns="http://www.w3.org/2000/svg" viewBox="0 0 50 50"><path fill="#fcc34f" d="M44.1 12.9l-5.5-3.5L31 5l-5.9-2.8C22 2.2 4 11 4 14.2l-.5 7.7.5 14.9 11.3 7.5 30.6-10.9c.7-.4-.8-18.5-1.8-20.5z"/><path fill="none" stroke="#444" stroke-linecap="round" stroke-linejoin="round" stroke-width="2.5" d="M41 39.3l4.4-2.5V13.2L25 1.4 4.6 13.2v23.6L25 48.6l7.5-4.4"/><path fill="none" stroke="#444" stroke-linecap="round" stroke-linejoin="round" d="M37.2 32V18L25 11l-12.2 7v14L25 39l12.2-7z"/><path fill="none" stroke="#444" stroke-linecap="round" stroke-linejoin="round" stroke-width=".5" d="M35.2 30.9V19.1L25 13.3l-10.2 5.8v11.8L25 36.7l10.2-5.8z"/></svg>