<svg xmlns="http://www.w3.org/2000/svg" id="Layer_1" version="1.1" viewBox="0 0 50 50"><defs><style>.st0{fill:none;stroke:#444;stroke-linecap:round;stroke-linejoin:round}.st3{fill:#444}</style></defs><path fill="#fcc34f" d="M44.7 12.4l-5.6-3.6-7.7-4.4-6-2.8C22.2 1.5 4 10.5 4 13.7l-.5 7.8.5 15.1 11.5 7.6 31-11c.7-.4-.8-18.7-1.8-20.7z"/><path fill="none" stroke="#444" stroke-linecap="round" stroke-linejoin="round" stroke-width="2.5" d="M29.9 46.4l-2.2 1.3c-1.7 1-3.8 1-5.5 0l-15.6-9c-1.7-1-2.7-2.8-2.7-4.7V16c0-2 1-3.8 2.7-4.7l15.7-9c1.7-1 3.8-1 5.5 0l15.6 9c1.7 1 2.7 2.8 2.7 4.7v18c0 2-1 3.8-2.7 4.7l-2.5 1.4"/><path d="M12.7 20.2l3.5-4.2-3.3-4.4v-.3h6.8l-.4 2.2H19l-.4-1.6h-4l2.7 3.6-3.2 4h4.6l.8-1.6h.3l-.2 2.6h-6.9v-.3z" class="st3"/><path d="M11.7 25.6V39h27.1" class="st0"/><path d="M12.1 33.3l9.4-8 6.4 5.9 10.9-9.9m-21.7 8v9.5m11-7.6v7.6m-5.5-12.3v12.3m10.7-12.5l.5 12.5m5-11.8v11.8" class="st0"/><path d="M21.2 15.8c.2 0 .3-.2.4-.3s.1-.5.1-.9V12c0-.6 0-1 .2-1.3s.4-.4.8-.4v.3c-.1 0-.2.1-.3.2s-.1.2-.2.3 0 .2 0 .4V14c0 .6 0 1-.1 1.3s-.2.5-.4.6c.2.2.4.4.4.6s.1.7.1 1.3v2.9c0 .1 0 .2.2.3s.2.1.3.2v.3c-.4 0-.7-.1-.8-.4s-.2-.7-.2-1.3v-2.6c0-.4 0-.7-.1-.9s-.2-.3-.4-.3v-.2z" class="st3"/><path fill="none" stroke="#444" stroke-linecap="round" stroke-linejoin="round" stroke-width=".5" d="M25 13.6h9.9M25 15.8h9.9M25 18.1h9.9"/></svg>