<?xml version="1.0" encoding="utf-8"?>
<!-- Generator: Adobe Illustrator 22.1.0, SVG Export Plug-In . SVG Version: 6.00 Build 0)  -->
<svg version="1.0" id="Layer_1" xmlns="http://www.w3.org/2000/svg" xmlns:xlink="http://www.w3.org/1999/xlink" x="0px" y="0px"
	 viewBox="0 0 50 50" enable-background="new 0 0 50 50" xml:space="preserve">
<g>
	<g>
		<path fill="#00C8E2" d="M47.457,25c0,3.346-0.729,6.518-2.045,9.368L15.377,45.299C7.791,41.69,2.543,33.962,2.543,25
			C2.543,12.602,12.595,2.543,25,2.543S47.457,12.602,47.457,25z"/>
	</g>
	<g>
		<path fill="#00DFFC" d="M39.676,8.016L2.829,21.429C4.535,10.73,13.813,2.543,25,2.543C30.608,2.543,35.744,4.603,39.676,8.016z"
			/>
	</g>
	<path fill="#444444" d="M47.695,31.872c0.058-0.191,0.106-0.384,0.159-0.576c0.061-0.222,0.124-0.444,0.179-0.668
		c0.048-0.196,0.089-0.393,0.131-0.59c0.034-0.157,0.074-0.313,0.104-0.47c0.008-0.043,0.011-0.088,0.019-0.132
		c0.124-0.656,0.22-1.319,0.288-1.989c0.013-0.123,0.021-0.245,0.032-0.368c0.058-0.671,0.096-1.345,0.097-2.027
		c0-0.017,0.002-0.033,0.002-0.05c0-0.015-0.002-0.029-0.002-0.043c-0.001-0.708-0.038-1.408-0.1-2.1
		c-0.007-0.074-0.01-0.148-0.017-0.222c-0.065-0.652-0.162-1.295-0.279-1.931c-0.016-0.089-0.022-0.181-0.039-0.271
		c-0.009-0.046-0.024-0.09-0.034-0.137c-0.126-0.622-0.281-1.233-0.454-1.836c-0.046-0.16-0.088-0.322-0.137-0.481
		c-0.177-0.568-0.38-1.124-0.597-1.673c-0.083-0.211-0.166-0.422-0.255-0.631c-0.216-0.503-0.452-0.994-0.701-1.478
		c-0.122-0.237-0.245-0.472-0.375-0.705c-0.252-0.451-0.519-0.892-0.799-1.325c-0.082-0.127-0.149-0.262-0.234-0.388
		c-0.088-0.13-0.191-0.248-0.281-0.376c-0.263-0.374-0.537-0.74-0.82-1.098c-0.191-0.241-0.386-0.478-0.586-0.711
		c-0.296-0.345-0.602-0.682-0.917-1.009c-0.215-0.224-0.435-0.443-0.659-0.659c-0.33-0.318-0.67-0.626-1.018-0.924
		c-0.229-0.196-0.461-0.387-0.697-0.575c-0.214-0.17-0.428-0.338-0.648-0.501l0.001-0.003l-0.829-0.599
		c-0.002-0.002-0.004-0.003-0.007-0.005L38.22,5.32l-0.001-0.001c-0.002-0.001-0.003-0.002-0.005-0.003l-1.277-0.801L36.93,4.53
		c-0.148-0.087-0.297-0.174-0.447-0.257c-0.218-0.121-0.438-0.237-0.66-0.351c-0.508-0.262-1.024-0.511-1.553-0.736
		c-0.181-0.077-0.364-0.147-0.547-0.219c-0.564-0.224-1.136-0.433-1.721-0.614c-0.143-0.044-0.288-0.082-0.432-0.123
		c-0.618-0.179-1.244-0.337-1.881-0.466c-0.042-0.008-0.081-0.022-0.123-0.03c-0.079-0.015-0.161-0.02-0.24-0.035
		c-0.656-0.122-1.319-0.221-1.992-0.287c-0.036-0.003-0.073-0.005-0.109-0.008C26.493,1.336,25.751,1.296,25,1.296
		c-0.753,0-1.497,0.039-2.232,0.108c-0.032,0.003-0.064,0.004-0.096,0.007c-0.681,0.067-1.351,0.167-2.014,0.29
		c-0.074,0.014-0.151,0.018-0.225,0.032c-0.039,0.008-0.076,0.021-0.115,0.029c-0.644,0.13-1.276,0.29-1.9,0.47
		c-0.138,0.04-0.277,0.076-0.414,0.118c-0.591,0.183-1.17,0.394-1.74,0.621c-0.169,0.067-0.339,0.13-0.506,0.201
		c-0.545,0.232-1.076,0.488-1.599,0.759c-0.205,0.106-0.409,0.212-0.611,0.323c-0.479,0.266-0.946,0.549-1.404,0.846
		c-0.119,0.077-0.244,0.139-0.362,0.218c-0.122,0.082-0.231,0.178-0.351,0.262c-0.391,0.274-0.772,0.559-1.145,0.856
		c-0.227,0.18-0.45,0.364-0.67,0.552C9.256,7.297,8.907,7.613,8.568,7.94c-0.214,0.206-0.424,0.416-0.63,0.63
		C7.612,8.909,7.295,9.257,6.989,9.615c-0.188,0.22-0.372,0.443-0.552,0.669c-0.174,0.218-0.346,0.438-0.512,0.662l-0.003-0.001
		l-0.599,0.83c-0.002,0.002-0.003,0.004-0.005,0.006l-0.001,0.002l-0.001,0.001c-0.002,0.003-0.003,0.006-0.005,0.009l-0.369,0.596
		c-0.107,0.169-0.213,0.338-0.315,0.509L4.523,13.07l0.006,0.003c-0.091,0.156-0.183,0.312-0.271,0.47
		c-0.114,0.206-0.223,0.415-0.331,0.624C3.66,14.684,3.406,15.21,3.176,15.75c-0.073,0.172-0.138,0.346-0.207,0.519
		c-0.226,0.568-0.436,1.144-0.618,1.733c-0.043,0.14-0.08,0.282-0.12,0.422c-0.18,0.621-0.339,1.25-0.468,1.89
		c-0.008,0.041-0.022,0.08-0.03,0.12c-0.015,0.079-0.02,0.16-0.035,0.239c-0.12,0.65-0.22,1.308-0.286,1.976
		c-0.005,0.056-0.008,0.112-0.013,0.168c-0.066,0.72-0.105,1.447-0.105,2.184c0,0.737,0.039,1.465,0.105,2.185
		c0.005,0.055,0.007,0.111,0.013,0.167c0.066,0.671,0.166,1.331,0.287,1.985c0.014,0.076,0.019,0.155,0.033,0.231
		c0.008,0.039,0.021,0.077,0.029,0.116c0.129,0.642,0.289,1.273,0.469,1.896c0.04,0.14,0.077,0.281,0.12,0.42
		c0.182,0.589,0.392,1.165,0.618,1.733c0.069,0.175,0.135,0.351,0.209,0.524c0.229,0.538,0.482,1.062,0.749,1.579
		c0.11,0.213,0.22,0.425,0.337,0.635c0.26,0.468,0.537,0.924,0.827,1.372c0.081,0.125,0.146,0.256,0.229,0.38
		c0.087,0.129,0.189,0.245,0.278,0.372c0.266,0.379,0.544,0.75,0.831,1.113c0.185,0.234,0.374,0.463,0.568,0.689
		c0.302,0.352,0.613,0.695,0.935,1.029c0.211,0.219,0.426,0.434,0.645,0.645c0.332,0.32,0.674,0.63,1.025,0.931
		c0.229,0.196,0.462,0.388,0.699,0.576c0.213,0.169,0.427,0.337,0.646,0.499l-0.001,0.003l0.814,0.589
		c0.007,0.005,0.014,0.011,0.021,0.016l0.631,0.39c0.16,0.101,0.321,0.202,0.484,0.299l0.174,0.108l0.002-0.006
		c0.15,0.087,0.299,0.175,0.451,0.259c0.217,0.12,0.436,0.235,0.656,0.348c0.508,0.262,1.025,0.511,1.554,0.737
		c0.181,0.077,0.364,0.147,0.547,0.219c0.564,0.224,1.136,0.433,1.72,0.614c0.143,0.044,0.288,0.081,0.431,0.123
		c0.619,0.179,1.246,0.338,1.885,0.466c0.041,0.008,0.08,0.022,0.12,0.03c0.079,0.015,0.161,0.02,0.24,0.035
		c0.648,0.12,1.303,0.219,1.968,0.285c0.062,0.006,0.124,0.009,0.186,0.014c0.716,0.065,1.44,0.104,2.172,0.104c0,0,0,0,0,0s0,0,0,0
		c0.539,0,1.074-0.018,1.604-0.053l0.526-0.05c0.105-0.009,0.21-0.019,0.315-0.03l0.405-0.038l-0.001-0.02
		c0.575-0.069,1.15-0.139,1.717-0.249c0.678-0.132,1.12-0.788,0.988-1.465c-0.132-0.678-0.791-1.126-1.465-0.988
		c-1.334,0.259-2.703,0.39-4.069,0.392c-0.032,0-0.064-0.003-0.097-0.003c-0.628-0.002-1.247-0.038-1.861-0.094
		c-0.132-0.012-0.264-0.023-0.395-0.037c-0.644-0.071-1.281-0.164-1.906-0.292c-0.064-0.013-0.127-0.032-0.191-0.046
		c-0.598-0.128-1.188-0.278-1.766-0.455c-0.126-0.038-0.249-0.085-0.374-0.126c-0.517-0.169-1.026-0.353-1.525-0.559
		c-0.133-0.055-0.264-0.115-0.396-0.173c-0.483-0.212-0.958-0.44-1.422-0.686c-0.129-0.069-0.258-0.14-0.386-0.211
		c-0.213-0.119-0.416-0.254-0.625-0.38c0.2-0.453,0.401-0.906,0.612-1.353c0.042-0.09,0.084-0.181,0.127-0.27
		c2.966,1.835,6.447,2.913,10.183,2.913c6.061,0,11.479-2.792,15.046-7.155l0.009,0.004l0.026-0.05
		c2.716-3.343,4.351-7.598,4.351-12.231c0-6.066-2.797-11.487-7.164-15.053c0.099-0.203,0.184-0.414,0.281-0.619
		c0.161-0.34,0.332-0.675,0.487-1.019c0.113,0.088,0.233,0.167,0.344,0.258c0.094,0.077,0.186,0.158,0.279,0.237
		c0.391,0.33,0.769,0.674,1.135,1.031c0.116,0.114,0.232,0.227,0.346,0.344c0.376,0.384,0.738,0.782,1.084,1.193
		c0.058,0.069,0.12,0.135,0.177,0.205c1.702,2.076,3.019,4.477,3.84,7.097c0.003,0.01,0.007,0.019,0.01,0.029
		c0.181,0.582,0.328,1.179,0.459,1.781c0.02,0.092,0.049,0.18,0.068,0.272c0.119,0.584,0.203,1.179,0.272,1.779
		c0.013,0.11,0.036,0.217,0.047,0.327c0.071,0.703,0.108,1.415,0.108,2.137c0,0.017-0.001,0.034-0.001,0.05
		c-0.001,0.602-0.035,1.203-0.086,1.802c-0.01,0.115-0.018,0.23-0.03,0.344c-0.06,0.591-0.145,1.177-0.253,1.756
		c-0.02,0.107-0.044,0.213-0.065,0.319c-0.13,0.633-0.281,1.261-0.469,1.88c-0.01,0.033-0.023,0.066-0.033,0.1
		c-0.188,0.61-0.408,1.21-0.65,1.799c-0.2,0.486-0.413,0.969-0.651,1.443c-0.31,0.617-0.061,1.368,0.557,1.678
		c0.616,0.309,1.368,0.062,1.678-0.557c0.222-0.443,0.427-0.891,0.62-1.344l0.045-0.097c0.12-0.286,0.23-0.577,0.339-0.868
		c0.031-0.083,0.067-0.166,0.097-0.249C47.444,32.667,47.574,32.271,47.695,31.872z M33.55,11.663
		c-0.07,0.124-0.146,0.244-0.217,0.368c-0.423,0.743-0.861,1.476-1.316,2.198c-0.174,0.277-0.358,0.547-0.537,0.82
		c-0.234,0.357-0.478,0.708-0.721,1.059c-1.464-0.954-3.14-1.525-4.921-1.666c-0.552-0.042-1.12-0.042-1.68,0
		c-2.246,0.178-4.332,1.042-6.025,2.495c-0.137,0.117-0.272,0.237-0.403,0.361c-0.45-0.313-0.913-0.607-1.372-0.907
		c-0.23-0.15-0.455-0.307-0.687-0.454c-0.87-0.551-1.753-1.082-2.652-1.588c-0.179-0.101-0.363-0.192-0.543-0.291
		c-0.686-0.376-1.377-0.744-2.078-1.093C13.873,8.757,19.129,6.07,25,6.07c3.661,0,7.07,1.062,9.97,2.868
		c-0.013,0.027-0.025,0.055-0.038,0.082C34.493,9.913,34.034,10.796,33.55,11.663z M15.939,34.327
		c-0.553,0.872-1.085,1.757-1.592,2.658c-0.1,0.178-0.191,0.361-0.289,0.54c-0.377,0.686-0.744,1.378-1.094,2.079
		c-4.209-3.475-6.895-8.731-6.895-14.602c0-3.661,1.062-7.07,2.868-9.97c0.026,0.013,0.054,0.024,0.08,0.037
		c0.894,0.44,1.778,0.899,2.646,1.384c0.117,0.065,0.23,0.138,0.346,0.204c0.75,0.426,1.491,0.869,2.219,1.329
		c0.276,0.174,0.547,0.358,0.82,0.537c0.357,0.234,0.708,0.478,1.059,0.72c-0.954,1.465-1.526,3.141-1.667,4.921
		c-0.021,0.276-0.031,0.552-0.031,0.838s0.011,0.562,0.032,0.842c0.177,2.239,1.045,4.325,2.493,6.013
		c0.116,0.141,0.237,0.278,0.364,0.414c-0.317,0.456-0.615,0.924-0.919,1.389C16.234,33.883,16.082,34.101,15.939,34.327z
		 M11.966,41.693c-0.124-0.097-0.256-0.183-0.377-0.282c-0.061-0.05-0.12-0.103-0.181-0.153c-0.444-0.372-0.872-0.761-1.283-1.167
		c-0.066-0.065-0.132-0.13-0.197-0.196c-0.429-0.434-0.841-0.885-1.232-1.355c-0.023-0.028-0.048-0.054-0.071-0.082
		c-1.682-2.043-2.983-4.408-3.811-6.983c-0.021-0.065-0.048-0.127-0.069-0.192c-0.159-0.51-0.282-1.035-0.402-1.561
		c-0.038-0.168-0.09-0.332-0.124-0.501c-0.107-0.526-0.178-1.063-0.245-1.602c-0.02-0.165-0.055-0.327-0.071-0.493
		c-0.065-0.647-0.095-1.303-0.1-1.965c0-0.053-0.008-0.106-0.008-0.159c0-0.053,0.007-0.105,0.008-0.158
		c0.005-0.663,0.035-1.32,0.1-1.968c0.016-0.16,0.049-0.315,0.068-0.474c0.068-0.55,0.141-1.098,0.25-1.635
		c0.015-0.074,0.037-0.146,0.053-0.221c0.126-0.588,0.273-1.167,0.447-1.736c0.04-0.132,0.089-0.26,0.132-0.391
		c0.167-0.51,0.348-1.014,0.552-1.507c0.057-0.138,0.119-0.273,0.179-0.409c0.21-0.478,0.435-0.948,0.679-1.407
		c0.071-0.134,0.144-0.266,0.218-0.398c0.118-0.211,0.252-0.412,0.377-0.619c0.453,0.2,0.906,0.401,1.354,0.612
		c0.09,0.043,0.181,0.084,0.27,0.127c-1.835,2.966-2.913,6.447-2.913,10.183c0,6.066,2.797,11.488,7.165,15.054
		c-0.101,0.208-0.188,0.422-0.287,0.631C12.288,41.023,12.119,41.354,11.966,41.693z M31.164,30.235l-0.024,0.029
		c-0.255,0.309-0.562,0.618-0.895,0.899c-1.295,1.11-2.886,1.77-4.596,1.905c-0.427,0.031-0.874,0.031-1.293,0
		c-1.715-0.136-3.305-0.795-4.6-1.905l-0.01-0.009c-0.325-0.276-0.631-0.584-0.9-0.908c-1.117-1.302-1.778-2.893-1.913-4.597
		c-0.016-0.213-0.024-0.427-0.024-0.648s0.008-0.435,0.024-0.645c0.136-1.714,0.794-3.305,1.905-4.6l0.003-0.004
		c0.278-0.327,0.584-0.633,0.916-0.915c1.294-1.11,2.885-1.769,4.596-1.904c0.427-0.033,0.874-0.033,1.293,0
		c1.714,0.136,3.303,0.794,4.598,1.903l0.007,0.006c0.326,0.277,0.632,0.583,0.913,0.914c1.111,1.295,1.77,2.886,1.904,4.602
		c0.017,0.212,0.024,0.424,0.024,0.644s-0.008,0.432-0.024,0.645C32.933,27.35,32.274,28.936,31.164,30.235z M35.184,8.484
		C32.218,6.649,28.737,5.57,25,5.57c-6.066,0-11.487,2.797-15.054,7.165c-0.207-0.101-0.422-0.188-0.631-0.286
		c-0.336-0.159-0.668-0.328-1.007-0.481c0.096-0.122,0.181-0.253,0.279-0.373c0.053-0.065,0.108-0.127,0.161-0.19
		c0.369-0.44,0.755-0.865,1.158-1.274c0.067-0.068,0.134-0.137,0.202-0.204c0.432-0.426,0.88-0.836,1.346-1.224
		c0.03-0.025,0.059-0.052,0.09-0.077c2.038-1.677,4.395-2.975,6.962-3.803c0.072-0.023,0.14-0.054,0.212-0.076
		c0.511-0.159,1.037-0.283,1.564-0.403c0.166-0.038,0.328-0.089,0.495-0.123c0.494-0.1,1-0.165,1.506-0.23
		c0.202-0.026,0.4-0.067,0.603-0.087c0.486-0.048,0.982-0.06,1.478-0.075c0.404-0.012,0.805-0.014,1.209-0.003
		c0.517,0.014,1.035,0.028,1.542,0.078c0.183,0.018,0.362,0.056,0.544,0.078c0.529,0.067,1.057,0.136,1.573,0.241
		c0.073,0.015,0.143,0.037,0.216,0.052c0.59,0.127,1.173,0.275,1.744,0.449c0.128,0.039,0.252,0.086,0.379,0.127
		c0.516,0.169,1.025,0.352,1.522,0.558c0.132,0.055,0.262,0.115,0.393,0.172c0.485,0.213,0.961,0.441,1.426,0.688
		c0.128,0.068,0.254,0.138,0.38,0.208c0.215,0.12,0.419,0.255,0.629,0.382c-0.199,0.453-0.4,0.905-0.611,1.352
		C35.268,8.302,35.227,8.393,35.184,8.484z M25,43.934c-3.661,0-7.07-1.062-9.97-2.868c0.013-0.026,0.024-0.053,0.037-0.079
		c0.439-0.893,0.898-1.776,1.383-2.643c0.069-0.123,0.145-0.242,0.215-0.365c0.423-0.743,0.861-1.477,1.316-2.199
		c0.177-0.281,0.363-0.556,0.545-0.833c0.232-0.354,0.474-0.702,0.714-1.05c1.464,0.955,3.141,1.526,4.921,1.667
		c0.552,0.043,1.12,0.043,1.68,0c2.246-0.178,4.331-1.042,6.024-2.494c0.139-0.117,0.272-0.237,0.402-0.359
		c0.177,0.123,0.359,0.239,0.538,0.36c0.232,0.157,0.464,0.313,0.698,0.467c0.364,0.239,0.731,0.472,1.1,0.703
		c0.227,0.142,0.453,0.286,0.682,0.425c0.403,0.245,0.81,0.481,1.218,0.715c0.2,0.115,0.397,0.233,0.598,0.345
		c0.609,0.341,1.222,0.672,1.84,0.99l0.652,0.334C36.119,41.25,30.868,43.934,25,43.934z M43.932,25.002
		c0,3.667-1.065,7.082-2.877,9.985l-0.97-0.498c-0.961-0.493-1.907-1.026-2.842-1.577c-0.17-0.1-0.341-0.198-0.51-0.3
		c-0.888-0.535-1.76-1.096-2.616-1.677c-0.079-0.054-0.157-0.109-0.236-0.163c0.963-1.471,1.539-3.151,1.679-4.927
		c0.022-0.277,0.032-0.555,0.032-0.843s-0.01-0.565-0.032-0.841c-0.177-2.245-1.041-4.331-2.494-6.026
		c-0.117-0.137-0.237-0.272-0.361-0.403c0.313-0.45,0.608-0.914,0.908-1.373c0.149-0.228,0.305-0.452,0.451-0.683
		c0.552-0.87,1.083-1.754,1.589-2.653c0.1-0.178,0.191-0.361,0.289-0.54c0.377-0.687,0.745-1.379,1.095-2.082
		C41.245,13.875,43.932,19.131,43.932,25.002z"/>
</g>
</svg>
