<?xml version="1.0" encoding="utf-8"?>
<!-- Generator: Adobe Illustrator 28.1.0, SVG Export Plug-In . SVG Version: 6.00 Build 0)  -->
<svg version="1.1" id="Camada_1" xmlns="http://www.w3.org/2000/svg" xmlns:xlink="http://www.w3.org/1999/xlink" x="0px" y="0px"
	 viewBox="0 0 50 50" style="enable-background:new 0 0 50 50;" xml:space="preserve">
<style type="text/css">
	.st0{fill:#8852CA;}
	.st1{fill:#E5E5E5;}
</style>
<g>
	<path class="st0" d="M41.8,2.8H8C5,2.8,2.5,5.3,2.5,8.4v31.3v2.5c0,3.1,2.5,5.6,5.6,5.6h5.3c-0.1-0.4-0.2-0.8-0.2-1.3v-1.6
		c-0.4-0.1-0.5-0.1-0.5-0.1c-0.1-0.1-0.2-0.2-0.2-0.4l-0.3-1.6c-0.2-0.1-0.5-0.2-0.7-0.3l-1.3,0.9c-0.3,0.2-0.7,0.2-1-0.1l-1.4-1.4
		c-0.3-0.3-0.3-0.7-0.1-1l0.9-1.3c-0.1-0.2-0.2-0.5-0.3-0.7l-1.6-0.3c-0.2,0-0.4-0.1-0.5-0.3c-0.1-0.2-0.1-1.4-0.1-1.4l0-1
		c0-0.4,0.3-0.7,0.6-0.8l1.6-0.3c0.1-0.2,0.2-0.5,0.3-0.7l-0.9-1.3c-0.2-0.3-0.2-0.7,0.1-1l1.4-1.4c0.3-0.3,0.7-0.3,1-0.1l1.3,0.9
		c0.2-0.1,0.4-0.2,0.7-0.3l0.3-1.6c0.1-0.4,0.4-0.6,0.7-0.6V16.5c0-2.3,1.8-4.2,4.1-4.3c0.1-1.6,1.5-2.8,3.1-2.8h1.3
		c0.4,0,0.7-0.2,0.9-0.5c0.9-2.3,3.1-3.7,5.6-3.7s4.6,1.5,5.6,3.7c0.1,0.3,0.5,0.5,0.9,0.5h1.3c1.6,0,2.9,1.2,3.1,2.8
		c2.3,0.1,4.1,2,4.1,4.3v30c0,0.4-0.1,0.8-0.2,1.2c0.6-0.1,1.1-0.3,1.6-0.6c1.7-0.9,2.9-2.8,2.9-4.9V23.9V8.4
		C47.3,5.3,44.8,2.8,41.8,2.8z"/>
	<path class="st0" d="M13.7,42.4l0.2,1.1h0.7l0.2-1.1c0.1-0.5,0.4-0.9,0.9-1.1c0.2-0.1,0.4-0.2,0.7-0.3c0.5-0.2,1-0.2,1.4,0.1
		l0.9,0.6l0.5-0.5l-0.6-0.9c-0.3-0.4-0.3-1-0.1-1.4c0.1-0.2,0.2-0.4,0.3-0.7c0.2-0.5,0.6-0.8,1.1-0.9l1.1-0.2v-0.7l-1.1-0.2
		c-0.5-0.1-0.9-0.4-1.1-0.9c-0.1-0.2-0.2-0.5-0.3-0.7c-0.2-0.4-0.2-1,0.1-1.4l0.6-0.9L18.6,32l-0.9,0.6c-0.4,0.3-1,0.3-1.4,0.1
		c-0.2-0.1-0.4-0.2-0.6-0.3c-0.5-0.2-0.8-0.6-0.9-1.1l-0.2-1.1h-0.7l-0.2,1.1c-0.1,0.4-0.4,0.8-0.7,1c0,0-0.1,0-0.2,0.1
		c0,0-0.1,0-0.1,0c-0.2,0.1-0.4,0.2-0.6,0.2c-0.5,0.2-1,0.2-1.4-0.1L9.8,32l-0.5,0.5l0.6,0.9c0.3,0.4,0.3,1,0.1,1.4
		c-0.1,0.2-0.2,0.5-0.3,0.7c-0.2,0.5-0.6,0.8-1.1,0.9l-1.1,0.2v0.7l1.1,0.2c0.5,0.1,0.9,0.4,1.1,0.9c0.1,0.2,0.2,0.4,0.3,0.7
		c0.2,0.5,0.2,1-0.1,1.4l-0.6,0.9l0.5,0.5l0.9-0.6c0.4-0.3,1-0.3,1.4-0.1c0.2,0.1,0.4,0.2,0.7,0.3C13.2,41.5,13.6,41.9,13.7,42.4z
		 M10.7,36.8c0-1.9,1.5-3.4,3.4-3.4c1.9,0,3.4,1.5,3.4,3.4s-1.5,3.4-3.4,3.4C12.2,40.1,10.7,38.6,10.7,36.8z"/>
	<path class="st0" d="M15.9,36.8c0-1-0.8-1.8-1.8-1.8c-1,0-1.8,0.8-1.8,1.8c0,1,0.8,1.8,1.8,1.8C15.1,38.6,15.9,37.8,15.9,36.8z"/>
	<path class="st0" d="M35.9,18.1H20.3c-1.7,0-3.1-1.4-3.1-3.1v-0.7c-1.1,0.2-2,1.1-2,2.2v12.3c0.3,0,0.6,0.3,0.7,0.6l0.3,1.6
		c0.2,0.1,0.5,0.2,0.7,0.3l1.3-0.9c0.3-0.2,0.7-0.2,1,0.1l1.4,1.4c0.3,0.3,0.3,0.7,0.1,1l-0.9,1.3c0.1,0.2,0.2,0.5,0.3,0.7l1.6,0.3
		c0.4,0.1,0.6,0.4,0.6,0.8v0.9l-0.1,1.5c0,0,0,0-0.1,0c-0.1,0.1-0.3,0.2-0.4,0.3l-1.6,0.3c-0.1,0.2-0.2,0.5-0.3,0.7l0.9,1.3
		c0.2,0.3,0.2,0.7-0.1,1l-1.4,1.4c-0.3,0.3-0.7,0.3-1,0.1l-1.3-0.9c-0.2,0.1-0.5,0.2-0.7,0.3l-0.3,1.6c0,0.1-0.1,0.3-0.2,0.4
		c0,0-0.1,0.1-0.5,0.1v1.6c0,0.5,0.2,0.9,0.4,1.3h24.9c0.3-0.4,0.4-0.8,0.4-1.3v-30c0-1.1-0.9-2.1-2-2.2V15
		C39,16.7,37.6,18.1,35.9,18.1z M26.6,28.3h10.2c0.6,0,1.1,0.5,1.1,1.1s-0.5,1.1-1.1,1.1H26.6c-0.6,0-1.1-0.5-1.1-1.1
		S26,28.3,26.6,28.3z M24,22.1l-3.4,3.6C20.5,25.9,20.2,26,20,26c0,0,0,0,0,0c-0.2,0-0.5-0.1-0.7-0.3l-2.1-2c-0.4-0.4-0.4-1,0-1.3
		c0.4-0.4,1-0.4,1.3,0l1.4,1.4l2.7-2.9c0.4-0.4,1-0.4,1.3,0C24.4,21.1,24.4,21.7,24,22.1z M36.8,44.1H26.6c-0.6,0-1.1-0.5-1.1-1.1
		S26,42,26.6,42h10.2c0.6,0,1.1,0.5,1.1,1.1S37.4,44.1,36.8,44.1z M37.2,36.9H26.9c-0.6,0-1.1-0.5-1.1-1.1c0-0.6,0.5-1.1,1.1-1.1
		h10.2c0.6,0,1.1,0.5,1.1,1.1C38.2,36.5,37.8,36.9,37.2,36.9z M37.2,23.2H26.9c-0.6,0-1.1-0.5-1.1-1.1c0-0.6,0.5-1.1,1.1-1.1h10.2
		c0.6,0,1.1,0.5,1.1,1.1C38.2,22.7,37.8,23.2,37.2,23.2z"/>
	<path class="st0" d="M20.3,16h15.5c0.6,0,1-0.4,1-1v-2.6c0-0.6-0.4-1-1-1h-1.3c-1.3,0-2.4-0.7-2.8-1.8c-0.6-1.5-2-2.4-3.6-2.4
		s-3,1-3.6,2.4c-0.5,1.1-1.6,1.8-2.8,1.8h-1.3c-0.6,0-1,0.4-1,1V15C19.3,15.5,19.8,16,20.3,16z M28.2,9.7c0.6,0,1,0.5,1,1.1
		s-0.5,1.1-1,1.1c-0.6,0-1-0.5-1-1.1S27.7,9.7,28.2,9.7z"/>
	<path class="st1" d="M17.4,36.8c0-1.9-1.5-3.4-3.4-3.4c-1.9,0-3.4,1.5-3.4,3.4s1.5,3.4,3.4,3.4C15.9,40.1,17.4,38.6,17.4,36.8z
		 M12.2,36.8c0-1,0.8-1.8,1.8-1.8c1,0,1.8,0.8,1.8,1.8c0,1-0.8,1.8-1.8,1.8C13,38.6,12.2,37.8,12.2,36.8z"/>
	<g>
		<path class="st1" d="M17.2,12.1c-2.3,0.1-4.1,2-4.1,4.3v11.9v0.4c-0.3,0-0.6,0.3-0.7,0.6L12.2,31c-0.3,0.1-0.5,0.2-0.7,0.3
			l-1.3-0.9c-0.3-0.2-0.7-0.2-1,0.1l-1.4,1.4c-0.3,0.3-0.3,0.7-0.1,1l0.9,1.3c-0.1,0.2-0.2,0.5-0.3,0.7l-1.6,0.3
			c-0.4,0.1-0.6,0.4-0.6,0.8l0,1c0,0,0,1.2,0.1,1.4c0.1,0.2,0.3,0.3,0.5,0.3l1.6,0.3c0.1,0.2,0.2,0.5,0.3,0.7l-0.9,1.3
			c-0.2,0.3-0.2,0.7,0.1,1l1.4,1.4c0.3,0.3,0.7,0.3,1,0.1l1.3-0.9c0.2,0.1,0.5,0.2,0.7,0.3l0.3,1.6c0,0.1,0.1,0.3,0.2,0.4
			c0,0,0.1,0.1,0.5,0.1V45v1.4c0,0.5,0.1,0.9,0.2,1.3h2.3c-0.3-0.4-0.4-0.8-0.4-1.3V45v-0.2c0.4-0.1,0.5-0.1,0.5-0.1
			c0.1-0.1,0.2-0.2,0.2-0.4l0.3-1.6c0.2-0.1,0.5-0.2,0.7-0.3l1.3,0.9c0.3,0.2,0.7,0.2,1-0.1l1.4-1.4c0.3-0.3,0.3-0.7,0.1-1l-0.9-1.3
			c0.1-0.2,0.2-0.5,0.3-0.7l1.6-0.3c0.2,0,0.3-0.1,0.4-0.3c0,0,0,0,0.1,0l0.1-1.5v-0.9c0-0.4-0.3-0.7-0.6-0.8l-1.6-0.3
			c-0.1-0.2-0.2-0.5-0.3-0.7l0.9-1.3c0.2-0.3,0.2-0.7-0.1-1l-1.4-1.4c-0.3-0.3-0.7-0.3-1-0.1l-1.3,0.9c-0.2-0.1-0.4-0.2-0.7-0.3
			l-0.3-1.6c-0.1-0.3-0.3-0.6-0.7-0.6v-0.4V16.5c0-1.1,0.9-2.1,2-2.2v-1.8C17.2,12.3,17.2,12.2,17.2,12.1z M15.6,32.5
			c0.2,0.1,0.5,0.2,0.6,0.3c0.5,0.2,1,0.2,1.4-0.1l0.9-0.6l0.5,0.5l-0.6,0.9c-0.3,0.4-0.3,0.9-0.1,1.4c0.1,0.2,0.2,0.5,0.3,0.7
			c0.2,0.5,0.6,0.8,1.1,0.9l1.1,0.2v0.7l-1.1,0.2c-0.5,0.1-0.9,0.4-1.1,0.9c-0.1,0.2-0.2,0.5-0.3,0.7c-0.2,0.5-0.2,1,0.1,1.4
			l0.6,0.9l-0.5,0.5l-0.9-0.6c-0.4-0.3-1-0.3-1.4-0.1c-0.2,0.1-0.4,0.2-0.7,0.3c-0.5,0.2-0.8,0.6-0.9,1.1l-0.2,1.1h-0.7l-0.2-1.1
			c-0.1-0.5-0.4-0.9-0.9-1.1c-0.2-0.1-0.4-0.2-0.7-0.3c-0.5-0.2-1-0.2-1.4,0.1l-0.9,0.6l-0.5-0.5l0.6-0.9c0.3-0.4,0.3-1,0.1-1.4
			c-0.1-0.2-0.2-0.4-0.3-0.7c-0.2-0.5-0.6-0.8-1.1-0.9l-1.1-0.2v-0.7l1.1-0.2c0.5-0.1,0.9-0.4,1.1-0.9c0.1-0.2,0.2-0.4,0.3-0.7
			c0.2-0.4,0.2-1-0.1-1.4l-0.6-0.9L9.8,32l0.9,0.6c0.4,0.3,1,0.3,1.4,0.1c0.2-0.1,0.4-0.2,0.6-0.2c0,0,0.1,0,0.1,0
			c0.1,0,0.1,0,0.2-0.1c0.4-0.2,0.7-0.6,0.7-1l0.2-1.1h0.7l0.2,1.1C14.8,31.9,15.1,32.3,15.6,32.5z"/>
		<path class="st1" d="M38.9,12.1c0,0.1,0,0.2,0,0.3v1.8c1.1,0.2,2,1.1,2,2.2v30c0,0.5-0.2,0.9-0.4,1.3h1.2h0c0.4,0,0.7,0,1.1-0.1
			c0.1-0.4,0.2-0.8,0.2-1.2v-30C43,14.1,41.2,12.3,38.9,12.1z"/>
		<path class="st1" d="M38.7,12.1c0.1,0,0.2,0,0.3,0c-0.1-1.6-1.5-2.8-3.1-2.8h-1.3c-0.4,0-0.7-0.2-0.9-0.5
			c-0.9-2.3-3.1-3.7-5.6-3.7s-4.6,1.5-5.6,3.7c-0.1,0.3-0.5,0.5-0.9,0.5h-1.3c-1.6,0-2.9,1.2-3.1,2.8c0.1,0,0.2,0,0.3,0v2.1
			c-0.1,0-0.2,0-0.3,0V15c0,1.7,1.4,3.1,3.1,3.1h15.5c1.7,0,3.1-1.4,3.1-3.1v-0.7c-0.1,0-0.2,0-0.3,0V12.1z M36.9,15
			c0,0.6-0.4,1-1,1H20.3c-0.6,0-1-0.4-1-1v-2.6c0-0.6,0.4-1,1-1h1.3c1.3,0,2.4-0.7,2.8-1.8c0.6-1.5,2-2.4,3.6-2.4s3,1,3.6,2.4
			c0.5,1.1,1.6,1.8,2.8,1.8h1.3c0.6,0,1,0.4,1,1V15z"/>
	</g>
	<path class="st1" d="M17.2,14.2c0.1,0,0.2,0,0.3,0v-2.1c-0.1,0-0.2,0-0.3,0c0,0.1,0,0.2,0,0.3V14.2z"/>
	<path class="st1" d="M38.7,14.2c0.1,0,0.2,0,0.3,0v-1.8c0-0.1,0-0.2,0-0.3c-0.1,0-0.2,0-0.3,0V14.2z"/>
	<path class="st1" d="M28.2,11.8c0.6,0,1-0.5,1-1.1s-0.5-1.1-1-1.1c-0.6,0-1,0.5-1,1.1S27.7,11.8,28.2,11.8z"/>
	<path class="st1" d="M22.7,20.8l-2.7,2.9l-1.4-1.4c-0.4-0.4-1-0.3-1.3,0c-0.4,0.4-0.3,1,0,1.3l2.1,2c0.2,0.2,0.4,0.3,0.7,0.3
		c0,0,0,0,0,0c0.3,0,0.5-0.1,0.7-0.3l3.4-3.6c0.4-0.4,0.3-1,0-1.3C23.6,20.4,23,20.4,22.7,20.8z"/>
	<path class="st1" d="M37.2,21.1H26.9c-0.6,0-1.1,0.5-1.1,1.1c0,0.6,0.5,1.1,1.1,1.1h10.2c0.6,0,1.1-0.5,1.1-1.1
		C38.2,21.6,37.8,21.1,37.2,21.1z"/>
	<path class="st1" d="M26.6,30.4h10.2c0.6,0,1.1-0.5,1.1-1.1s-0.5-1.1-1.1-1.1H26.6c-0.6,0-1.1,0.5-1.1,1.1S26,30.4,26.6,30.4z"/>
	<path class="st1" d="M37.2,34.8H26.9c-0.6,0-1.1,0.5-1.1,1.1c0,0.6,0.5,1.1,1.1,1.1h10.2c0.6,0,1.1-0.5,1.1-1.1
		C38.2,35.3,37.8,34.8,37.2,34.8z"/>
	<path class="st1" d="M36.8,42H26.6c-0.6,0-1.1,0.5-1.1,1.1s0.5,1.1,1.1,1.1h10.2c0.6,0,1.1-0.5,1.1-1.1S37.4,42,36.8,42z"/>
</g>
</svg>
