<?xml version="1.0" encoding="UTF-8"?>
<svg id="Camada_3" xmlns="http://www.w3.org/2000/svg" version="1.1" viewBox="0 0 50 50">
  <!-- Generator: Adobe Illustrator 29.5.0, SVG Export Plug-In . SVG Version: 2.1.0 Build 137)  -->
  <defs>
    <style>
      .st0, .st1, .st2 {
        fill: none;
        stroke: #444;
        stroke-linecap: round;
        stroke-linejoin: round;
      }

      .st1 {
        stroke-width: 2.5px;
      }

      .st3 {
        fill: #fcc34f;
      }

      .st2 {
        stroke-width: .5px;
      }
    </style>
  </defs>
  <polygon class="st3" points="20.55 44.08 6.87 45.58 5.65 47.55 2.59 47.55 1.47 33.26 5.24 32.81 6.47 33.97 10.81 31.77 10.09 26.87 7.62 22.95 8.26 19.38 7.62 15.49 9.33 13.35 10.44 9.99 13.21 8.4 15.35 5.09 18.36 4.06 21.97 2.35 25.42 3.55 29.64 1.82 31.35 4.12 34.31 4.57 36.88 6.85 37.92 8.42 40.42 10.01 40.94 12.88 43.16 16.63 41.96 20.07 43.83 22.74 41.84 25.71 39.41 31.52 45.56 28.33 48.14 28.97 47.42 32.44 20.55 44.08"/>
  <circle class="st2" cx="25.42" cy="18.95" r="11.31" transform="translate(-4.13 30.44) rotate(-57.95)"/>
  <path class="st0" d="M26.13,12.63l1.57,3.18c.11.23.34.39.59.43l3.51.51c.65.09.91.89.44,1.35l-2.54,2.48c-.19.18-.27.44-.23.7l.6,3.5c.11.64-.57,1.14-1.14.83l-3.14-1.65c-.23-.12-.5-.12-.73,0l-3.14,1.65c-.58.3-1.26-.19-1.14-.83l.6-3.5c.04-.26-.04-.52-.23-.7l-2.54-2.48c-.47-.46-.21-1.25.44-1.35l3.51-.51c.26-.04.48-.2.59-.43l1.57-3.18c.29-.59,1.13-.59,1.42,0Z"/>
  <path class="st1" d="M37.74,31.77s1.76-.1,2.67-1.59c.74-1.22.82-2.66.18-3.82,1.27-.37,2.29-1.41,2.57-2.79.27-1.34-.23-2.65-1.2-3.49.95-.83,1.45-2.12,1.2-3.45-.27-1.4-1.3-2.46-2.58-2.83.63-1.16.62-2.62-.16-3.79-.76-1.14-2.04-1.71-3.31-1.62.09-1.26-.47-2.53-1.59-3.29-1.18-.8-2.65-.82-3.82-.18-.37-1.27-1.41-2.29-2.79-2.57-1.34-.27-2.65.23-3.49,1.2-.83-.95-2.12-1.45-3.45-1.2-1.4.27-2.46,1.3-2.83,2.58-1.16-.63-2.62-.62-3.79.16-1.14.76-1.71,2.04-1.62,3.31-1.26-.09-2.53.47-3.29,1.59-.8,1.18-.82,2.66-.18,3.82-1.27.37-2.29,1.41-2.57,2.79-.27,1.34.23,2.65,1.2,3.49-.95.83-1.45,2.12-1.2,3.45.27,1.4,1.3,2.46,2.58,2.83-.63,1.16-.03,3.97.75,5.15"/>
  <g>
    <path class="st0" d="M14.21,30.82s2.26-.32,3.97.27c5.23,1.79,3.94,2.97,8.29,3.9,0,0,4.54.29,3.73,2.95-.64,2.1-4.35,1.03-4.35,1.03l-6.45-1.61"/>
    <line class="st0" x1="30.18" y1="36.28" x2="35.12" y2="34.44"/>
  </g>
  <path class="st1" d="M31.72,43.58c-3.44,2.27-5.46,1.87-5.46,1.87-3.49-1.01-9.79-1.05-9.79-1.05-4.57-.54-10.39,1.43-10.39,1.43v2.36H1.99v-15.45h4.1v1.4s3.08-.13,4.92-2.61"/>
  <path class="st1" d="M37.92,32.44s7.15-4.63,8.55-4.07c0,0,3.92,0,.95,4.07l-6.49,4.3"/>
</svg>