<svg xmlns="http://www.w3.org/2000/svg" version="1.0" viewBox="0 0 50 50"><path fill="#00C8E2" d="M47.457 25a22.28 22.28 0 0 1-2.045 9.368L15.377 45.299C7.791 41.69 2.543 33.962 2.543 25 2.543 12.602 12.595 2.543 25 2.543S47.457 12.602 47.457 25z"/><path fill="#00DFFC" d="M39.676 8.016L2.829 21.429C4.535 10.73 13.813 2.543 25 2.543c5.608 0 10.744 2.06 14.676 5.473z"/><path fill="#031326" d="M47.695 31.872c.058-.191.106-.384.159-.576.061-.222.124-.444.179-.668.048-.196.089-.393.131-.59.034-.157.074-.313.104-.47.008-.043.011-.088.019-.132.124-.656.22-1.319.288-1.989.013-.123.021-.245.032-.368a23.9 23.9 0 0 0 .097-2.027l.002-.05-.002-.043a23.893 23.893 0 0 0-.1-2.1c-.007-.074-.01-.148-.017-.222a23.615 23.615 0 0 0-.279-1.931c-.016-.089-.022-.181-.039-.271-.009-.046-.024-.09-.034-.137a23.767 23.767 0 0 0-.454-1.836c-.046-.16-.088-.322-.137-.481a23.88 23.88 0 0 0-.597-1.673c-.083-.211-.166-.422-.255-.631a23.505 23.505 0 0 0-.701-1.478 23.773 23.773 0 0 0-.375-.705 23.99 23.99 0 0 0-.799-1.325c-.082-.127-.149-.262-.234-.388-.088-.13-.191-.248-.281-.376a24.46 24.46 0 0 0-1.406-1.809 23.686 23.686 0 0 0-2.594-2.592 25.614 25.614 0 0 0-1.345-1.076l.001-.003-.829-.599-.007-.005-.002-.001-.001-.001-.005-.003-1.277-.801-.007.015a19.85 19.85 0 0 0-1.107-.608 23.212 23.212 0 0 0-1.553-.736c-.181-.077-.364-.147-.547-.219a23.412 23.412 0 0 0-1.721-.614c-.143-.044-.288-.082-.432-.123a23.583 23.583 0 0 0-1.881-.466c-.042-.008-.081-.022-.123-.03-.079-.015-.161-.02-.24-.035a23.349 23.349 0 0 0-1.992-.287l-.109-.008A24.04 24.04 0 0 0 25 1.296c-.753 0-1.497.039-2.232.108l-.096.007c-.681.067-1.351.167-2.014.29-.074.014-.151.018-.225.032-.039.008-.076.021-.115.029-.644.13-1.276.29-1.9.47-.138.04-.277.076-.414.118-.591.183-1.17.394-1.74.621-.169.067-.339.13-.506.201-.545.232-1.076.488-1.599.759-.205.106-.409.212-.611.323a23.96 23.96 0 0 0-1.404.846c-.119.077-.244.139-.362.218-.122.082-.231.178-.351.262a23.337 23.337 0 0 0-1.815 1.408A24.353 24.353 0 0 0 7.938 8.57a24.089 24.089 0 0 0-1.501 1.714 23.35 23.35 0 0 0-.512.662l-.003-.001-.599.83-.005.006-.001.002-.001.001-.005.009-.369.596c-.107.169-.213.338-.315.509l-.104.172.006.003c-.091.156-.183.312-.271.47a24.8 24.8 0 0 0-.331.624 23.648 23.648 0 0 0-.751 1.583c-.073.172-.138.346-.207.519a23.276 23.276 0 0 0-.618 1.733c-.043.14-.08.282-.12.422-.18.621-.339 1.25-.468 1.89-.008.041-.022.08-.03.12-.015.079-.02.16-.035.239-.12.65-.22 1.308-.286 1.976l-.013.168a23.89 23.89 0 0 0-.105 2.184c0 .737.039 1.465.105 2.185.005.055.007.111.013.167.066.671.166 1.331.287 1.985.014.076.019.155.033.231.008.039.021.077.029.116.129.642.289 1.273.469 1.896.04.14.077.281.12.42.182.589.392 1.165.618 1.733.069.175.135.351.209.524.229.538.482 1.062.749 1.579.11.213.22.425.337.635.26.468.537.924.827 1.372.081.125.146.256.229.38.087.129.189.245.278.372a24.366 24.366 0 0 0 1.399 1.802 23.953 23.953 0 0 0 3.304 3.181c.213.169.427.337.646.499l-.001.003.814.589.021.016.631.39c.16.101.321.202.484.299l.174.108.002-.006c.15.087.299.175.451.259.217.12.436.235.656.348.508.262 1.025.511 1.554.737.181.077.364.147.547.219.564.224 1.136.433 1.72.614.143.044.288.081.431.123.619.179 1.246.338 1.885.466.041.008.08.022.12.03.079.015.161.02.24.035.648.12 1.303.219 1.968.285.062.006.124.009.186.014.716.065 1.44.104 2.172.104.539 0 1.074-.018 1.604-.053l.526-.05.315-.03.405-.038-.001-.02c.575-.069 1.15-.139 1.717-.249a1.25 1.25 0 0 0 .988-1.465 1.246 1.246 0 0 0-1.465-.988c-1.334.259-2.703.39-4.069.392-.032 0-.064-.003-.097-.003a21.193 21.193 0 0 1-1.861-.094c-.132-.012-.264-.023-.395-.037a20.939 20.939 0 0 1-1.906-.292c-.064-.013-.127-.032-.191-.046a21.15 21.15 0 0 1-1.766-.455c-.126-.038-.249-.085-.374-.126a21.49 21.49 0 0 1-1.525-.559c-.133-.055-.264-.115-.396-.173a21.379 21.379 0 0 1-1.808-.897c-.213-.119-.416-.254-.625-.38.2-.453.401-.906.612-1.353.042-.09.084-.181.127-.27a19.289 19.289 0 0 0 10.183 2.913c6.061 0 11.479-2.792 15.046-7.155l.009.004.026-.05a19.335 19.335 0 0 0 4.351-12.231c0-6.066-2.797-11.487-7.164-15.053.099-.203.184-.414.281-.619.161-.34.332-.675.487-1.019.113.088.233.167.344.258.094.077.186.158.279.237.391.33.769.674 1.135 1.031.116.114.232.227.346.344.376.384.738.782 1.084 1.193.058.069.12.135.177.205a21.19 21.19 0 0 1 3.84 7.097l.01.029c.181.582.328 1.179.459 1.781.02.092.049.18.068.272.119.584.203 1.179.272 1.779.013.11.036.217.047.327.071.703.108 1.415.108 2.137l-.001.05a21.67 21.67 0 0 1-.086 1.802c-.01.115-.018.23-.03.344-.06.591-.145 1.177-.253 1.756-.02.107-.044.213-.065.319-.13.633-.281 1.261-.469 1.88-.01.033-.023.066-.033.1-.188.61-.408 1.21-.65 1.799-.2.486-.413.969-.651 1.443a1.25 1.25 0 1 0 2.235 1.121c.222-.443.427-.891.62-1.344l.045-.097c.12-.286.23-.577.339-.868.031-.083.067-.166.097-.249.142-.394.272-.79.393-1.189zM33.55 11.663c-.07.124-.146.244-.217.368a57.212 57.212 0 0 1-1.316 2.198c-.174.277-.358.547-.537.82-.234.357-.478.708-.721 1.059a10.484 10.484 0 0 0-4.921-1.666 11.216 11.216 0 0 0-1.68 0 10.462 10.462 0 0 0-6.025 2.495c-.137.117-.272.237-.403.361-.45-.313-.913-.607-1.372-.907-.23-.15-.455-.307-.687-.454a59.535 59.535 0 0 0-2.652-1.588c-.179-.101-.363-.192-.543-.291a59.515 59.515 0 0 0-2.078-1.093C13.873 8.757 19.129 6.07 25 6.07c3.661 0 7.07 1.062 9.97 2.868l-.038.082a57.114 57.114 0 0 1-1.382 2.643zM15.939 34.327a58.869 58.869 0 0 0-1.592 2.658c-.1.178-.191.361-.289.54a59.583 59.583 0 0 0-1.094 2.079c-4.209-3.475-6.895-8.731-6.895-14.602 0-3.661 1.062-7.07 2.868-9.97l.08.037c.894.44 1.778.899 2.646 1.384.117.065.23.138.346.204.75.426 1.491.869 2.219 1.329.276.174.547.358.82.537.357.234.708.478 1.059.72a10.493 10.493 0 0 0-1.698 5.759 10.456 10.456 0 0 0 2.525 6.855c.116.141.237.278.364.414-.317.456-.615.924-.919 1.389-.145.223-.297.441-.44.667zm-3.973 7.366c-.124-.097-.256-.183-.377-.282-.061-.05-.12-.103-.181-.153a21.181 21.181 0 0 1-1.283-1.167l-.197-.196a21.372 21.372 0 0 1-1.232-1.355l-.071-.082a21.189 21.189 0 0 1-3.811-6.983c-.021-.065-.048-.127-.069-.192a20.749 20.749 0 0 1-.402-1.561c-.038-.168-.09-.332-.124-.501a21.1 21.1 0 0 1-.245-1.602c-.02-.165-.055-.327-.071-.493a21.275 21.275 0 0 1-.1-1.965c0-.053-.008-.106-.008-.159 0-.053.007-.105.008-.158.005-.663.035-1.32.1-1.968.016-.16.049-.315.068-.474.068-.55.141-1.098.25-1.635.015-.074.037-.146.053-.221.126-.588.273-1.167.447-1.736.04-.132.089-.26.132-.391.167-.51.348-1.014.552-1.507.057-.138.119-.273.179-.409a20.933 20.933 0 0 1 .897-1.805c.118-.211.252-.412.377-.619.453.2.906.401 1.354.612.09.043.181.084.27.127a19.289 19.289 0 0 0-2.913 10.183c0 6.066 2.797 11.488 7.165 15.054-.101.208-.188.422-.287.631-.159.337-.328.668-.481 1.007zm19.198-11.458l-.024.029a7.16 7.16 0 0 1-.895.899 7.985 7.985 0 0 1-4.596 1.905 9 9 0 0 1-1.293 0 7.99 7.99 0 0 1-4.6-1.905l-.01-.009a7.42 7.42 0 0 1-.9-.908 7.987 7.987 0 0 1-1.937-5.245 7.986 7.986 0 0 1 1.929-5.245l.003-.004c.278-.327.584-.633.916-.915a7.979 7.979 0 0 1 4.596-1.904 8.456 8.456 0 0 1 1.293 0 7.991 7.991 0 0 1 4.598 1.903l.007.006c.326.277.632.583.913.914a7.972 7.972 0 0 1 1.928 5.246 7.991 7.991 0 0 1-1.928 5.233zm4.02-21.751A19.29 19.29 0 0 0 25 5.57c-6.066 0-11.487 2.797-15.054 7.165-.207-.101-.422-.188-.631-.286-.336-.159-.668-.328-1.007-.481.096-.122.181-.253.279-.373.053-.065.108-.127.161-.19.369-.44.755-.865 1.158-1.274.067-.068.134-.137.202-.204.432-.426.88-.836 1.346-1.224.03-.025.059-.052.09-.077a21.192 21.192 0 0 1 6.962-3.803c.072-.023.14-.054.212-.076a20.83 20.83 0 0 1 1.564-.403c.166-.038.328-.089.495-.123.494-.1 1-.165 1.506-.23.202-.026.4-.067.603-.087.486-.048.982-.06 1.478-.075.404-.012.805-.014 1.209-.003.517.014 1.035.028 1.542.078.183.018.362.056.544.078.529.067 1.057.136 1.573.241.073.015.143.037.216.052.59.127 1.173.275 1.744.449.128.039.252.086.379.127.516.169 1.025.352 1.522.558.132.055.262.115.393.172.485.213.961.441 1.426.688.128.068.254.138.38.208.215.12.419.255.629.382-.199.453-.4.905-.611 1.352l-.126.273zM25 43.934c-3.661 0-7.07-1.062-9.97-2.868l.037-.079c.439-.893.898-1.776 1.383-2.643.069-.123.145-.242.215-.365.423-.743.861-1.477 1.316-2.199.177-.281.363-.556.545-.833.232-.354.474-.702.714-1.05a10.478 10.478 0 0 0 4.921 1.667c.552.043 1.12.043 1.68 0a10.464 10.464 0 0 0 6.024-2.494 9.96 9.96 0 0 0 .402-.359c.177.123.359.239.538.36.232.157.464.313.698.467.364.239.731.472 1.1.703.227.142.453.286.682.425.403.245.81.481 1.218.715.2.115.397.233.598.345.609.341 1.222.672 1.84.99l.652.334c-3.474 4.2-8.725 6.884-14.593 6.884zm18.932-18.932c0 3.667-1.065 7.082-2.877 9.985l-.97-.498a55.614 55.614 0 0 1-2.842-1.577c-.17-.1-.341-.198-.51-.3a57.49 57.49 0 0 1-2.616-1.677l-.236-.163a10.458 10.458 0 0 0 1.711-5.77 10.465 10.465 0 0 0-2.526-6.867 10.588 10.588 0 0 0-.361-.403c.313-.45.608-.914.908-1.373.149-.228.305-.452.451-.683a58.648 58.648 0 0 0 1.589-2.653c.1-.178.191-.361.289-.54.377-.687.745-1.379 1.095-2.082 4.208 3.474 6.895 8.73 6.895 14.601z"/></svg>