<?xml version="1.0" encoding="utf-8"?>
<!-- Generator: Adobe Illustrator 24.0.1, SVG Export Plug-In . SVG Version: 6.00 Build 0)  -->
<svg version="1.1" id="Layer_1" xmlns="http://www.w3.org/2000/svg" xmlns:xlink="http://www.w3.org/1999/xlink" x="0px" y="0px"
	 viewBox="0 0 50 50" style="enable-background:new 0 0 50 50;" xml:space="preserve">
<style type="text/css">
	.st0{fill:#FCC34F;}
	.st1{fill:#FDCF72;}
	.st2{fill:#444444;}
</style>
<g>
	<g>
		<path class="st0" d="M48.7,25c0,2.7-0.4,5.4-1.4,7.9l-3.4,1.3l-27.5,10L13,45.5c-5.5-3.3-9.7-8.9-11-15.4
			c-0.1-0.4-0.2-0.6-0.2-0.8l2.5-1L43,14.2l2.5-1c0.1,0.2,0.2,0.4,0.4,0.6C47.6,17.2,48.7,21,48.7,25z"/>
		<path class="st1" d="M45.9,13.9l-2.5,1L4.4,29l-2.5,1c0-0.3-0.1-0.5-0.1-0.7c-0.2-1.4-0.4-2.7-0.4-4.2c0-7.4,3.4-14.1,8.8-18.4
			l14.5-5.3c0.1,0,0.3,0,0.4,0c8.8,0,16.4,4.8,20.5,11.9C45.6,13.5,45.7,13.7,45.9,13.9z"/>
		<g>
			<path class="st2" d="M48.7,25c0,2.7-0.4,5.4-1.4,7.9c-0.6,1.9-1.6,3.7-2.6,5.3c-0.4,0.6-1.3,0.7-1.8,0.3
				c-0.6-0.4-0.7-1.3-0.3-1.8c0.5-0.8,1.1-1.7,1.5-2.6c1.4-2.9,2.1-5.9,2.1-9.1c0-3.7-1-7.2-2.6-10.1c-0.1-0.2-0.2-0.4-0.4-0.6
				C39.3,8.1,32.6,4,25,4C13.4,4,4,13.4,4,25c0,1.2,0.1,2.2,0.2,3.3c0,0.2,0.1,0.5,0.1,0.7c1.3,6.8,5.9,12.4,12,15.1
				C19,45.3,21.9,46,25,46c0.7,0,1.4,0.6,1.4,1.4c0,0.7-0.6,1.4-1.4,1.4c-4.3,0-8.5-1.2-11.9-3.3C7.5,42.2,3.3,36.6,2,30.1
				c-0.1-0.4-0.2-0.6-0.2-0.8c-0.2-1.4-0.4-2.7-0.4-4.2c0-7.4,3.4-14.1,8.8-18.4c4-3.2,9-5.2,14.5-5.3c0.1,0,0.3,0,0.4,0
				c8.8,0,16.4,4.8,20.5,11.9c0.1,0.2,0.2,0.4,0.4,0.6C47.6,17.2,48.7,21,48.7,25z"/>
		</g>
	</g>
	<g>
		<path class="st2" d="M30,28.9c0-1.8,0-3.7,0-5.5c0-0.6,0.1-0.8,0.8-0.8c1.6,0,3.2,0,4.8,0c0.5,0,0.7,0.2,0.7,0.7
			c0,3.8,0,7.6,0,11.4c0,0.5-0.2,0.7-0.7,0.7c-1.6,0-3.2,0-4.9,0c-0.5,0-0.7-0.2-0.7-0.7C30,32.7,30,30.8,30,28.9z"/>
		<path class="st2" d="M28.1,30.9c0,1.3,0,2.4,0,3.7c0,0.5-0.1,0.7-0.7,0.7c-1.6,0-3.2,0-4.8,0c-0.5,0-0.7-0.1-0.7-0.6
			c0-2.5,0-5.1,0-7.6c0-0.4,0.1-0.6,0.6-0.6c1.7,0,3.3,0,5,0c0.4,0,0.6,0.2,0.6,0.6C28.1,28.3,28.1,29.6,28.1,30.9z"/>
		<path class="st2" d="M24.7,24.5c-0.2,0-0.3-0.2-0.4-0.3c-0.6-0.6-1.3-1.2-1.9-1.8c-0.4-0.4-0.6-0.3-1.1,0
			c-1.5,1.6-3.1,3.1-4.5,4.6c-0.6,0.7-0.7,0.7-1.5,0c-1.2-1.2-1.2-1.2,0-2.3c2-2,4-3.9,6-5.9c0.6-0.6,0.6-0.6,1.3,0
			c0.5,0.5,1.2,1.1,1.7,1.6c0.3,0.3,0.6,0.3,1,0c0.7-0.7,1.5-1.5,2.2-2.2c0.3-0.4,0.6-0.3,1,0c0.4,0.5,1.2,0.8,1.2,1.4
			s-0.7,0.8-1.2,1.3c-1.1,1.1-2.2,2.2-3.3,3.3C25,24.3,24.9,24.5,24.7,24.5z"/>
		<path class="st2" d="M17,29.3c0.8,0,1.6,0,2.4,0c0.4,0,0.6,0.2,0.6,0.6c0,1.6,0,3.2,0,4.8c0,0.4-0.2,0.6-0.6,0.6c-1.7,0-3.3,0-5,0
			c-0.4,0-0.6-0.1-0.6-0.6c0-1.6,0-3.2,0-4.8c0-0.4,0.2-0.6,0.6-0.6C15.3,29.3,16.1,29.3,17,29.3z"/>
		<path class="st2" d="M36.2,11.8c-0.2,1.3-0.5,2.5-0.7,3.8c-0.1,0.3-0.2,0.4-0.5,0.1c-1.1-1.1-2.1-2.1-3.2-3.2
			c-0.2-0.2-0.3-0.4,0.1-0.5c1.3-0.2,2.6-0.4,3.9-0.6C36.2,11.4,36.2,11.6,36.2,11.8z"/>
		<path class="st2" d="M31.6,14.2c0.2,0,0.3,0.2,0.4,0.3c0.3,0.3,0.6,0.7,1.1,1.1c0.4,0.3,0.2,0.6-0.1,1c-0.3,0.3-0.5,0.3-0.8,0
			c-0.3-0.4-0.7-0.7-1.1-1.1c-0.1-0.1-0.4-0.3-0.2-0.5C31,14.6,31.2,14.3,31.6,14.2z"/>
		<path class="st2" d="M29.9,15.9c0.2,0,0.3,0.2,0.4,0.3c0.3,0.3,0.6,0.7,1.1,1.1c0.4,0.3,0.2,0.6-0.1,1c-0.3,0.3-0.5,0.3-0.8,0
			c-0.3-0.4-0.7-0.7-1.1-1.1c-0.1-0.1-0.4-0.3-0.2-0.5C29.3,16.3,29.5,16,29.9,15.9z"/>
	</g>
</g>
</svg>
