<svg xmlns="http://www.w3.org/2000/svg" id="Camada_2" data-name="Camada 2" viewBox="0 0 44.88 44.88"><defs><style>.cls-1,.cls-2{fill:#e5e5e5;stroke-width:0}.cls-2{fill:#8852ca}</style></defs><g id="PM3"><path d="M32.35 41.55H44.4c.3-.69.47-1.45.47-2.25v-5.35H32.34v7.6zm-.23-19.02h12.76v-7.36H32.12v7.36zm0 9.27h.23v.15h12.53v-7.42H32.12v7.27zm0-26.28v7.65h12.76v-7.6a1.6 1.6 0 00-.39-.05H32.11zm-4.7 19.01h2.69v7.27h-2.69zm0-9.36h2.69v7.37h-2.69z" class="cls-2"/><path d="M14.04 39.85v-4.42H5.45c-.8 0-1.45-.65-1.45-1.45V13.46c0-.8.65-1.45 1.45-1.45h8.58V7.22c0-2.04 1.66-3.7 3.7-3.7h26.74A5.58 5.58 0 0039.29 0H5.58C2.5 0 0 2.5 0 5.58V39.3c0 3.08 2.5 5.58 5.58 5.58H39.3c.96 0 1.87-.24 2.66-.67.34-.18.65-.41.94-.66H17.74c-2.04 0-3.7-1.66-3.7-3.7z" class="cls-2"/><path d="M16.04 7.22v4.79h9.93c.7 0 1.28.5 1.42 1.16h2.72V5.52H17.73c-.94 0-1.7.76-1.7 1.7zM6.01 33.42h19.42V14.01H6.01v19.42zm4.08-15.8h2.99l1.96 4.49 2.52-4.49h2.85l-3.67 5.91 3.67 5.91h-2.75l-2.62-4.58-2.35 4.58H9.8l3.81-5.91-3.52-5.91z" class="cls-2"/><path d="M44.41 41.55H32.36v-7.6h12.53v-2H32.36v-.14h-.24v-7.27h12.76v-2H32.12v-7.37h12.76v-2H32.12V5.52H44.5c.13 0 .26.02.39.05 0-.72-.14-1.41-.4-2.05H17.75c-2.04 0-3.7 1.66-3.7 3.7v4.79h-8.6c-.8 0-1.45.65-1.45 1.45v20.52c0 .8.65 1.45 1.45 1.45h8.58v4.42c0 2.04 1.66 3.7 3.7 3.7h25.16c.64-.54 1.17-1.22 1.51-2zm-18.98-8.12H6.01V14.01h19.42v19.42zm4.69-1.62h-2.69v-7.27h2.69v7.27zm0-9.27h-2.69v-7.37h2.69v7.37zm0-9.37H27.4c-.14-.66-.72-1.16-1.42-1.16h-9.93V7.22c0-.94.76-1.7 1.7-1.7h12.38v7.65z" class="cls-1"/><path d="M12.69 29.44l2.35-4.58 2.62 4.58h2.75l-3.67-5.91 3.67-5.91h-2.85l-2.52 4.49-1.96-4.49h-2.99l3.52 5.91-3.81 5.91h2.89z" class="cls-1"/></g></svg>