<?xml version="1.0" encoding="UTF-8"?>
<svg id="Camada_3" xmlns="http://www.w3.org/2000/svg" version="1.1" viewBox="0 0 50 50">
  <!-- Generator: Adobe Illustrator 29.1.0, SVG Export Plug-In . SVG Version: 2.1.0 Build 142)  -->
  <defs>
    <style>
      .st0 {
        stroke-width: .5px;
      }

      .st0, .st1, .st2 {
        fill: none;
        stroke: #444;
      }

      .st0, .st2 {
        stroke-miterlimit: 10;
      }

      .st3 {
        fill: #8256d8;
      }

      .st1 {
        stroke-linecap: round;
        stroke-linejoin: round;
        stroke-width: 2.5px;
      }

      .st4 {
        fill: #a475ef;
      }
    </style>
  </defs>
  <polygon class="st3" points="28.2 26.2 36.1 28.6 29.4 33.4 29.5 41.6 22.9 36.7 15.1 39.3 17.7 31.5 12.8 25 21 25.1 25.8 18.4 28.2 26.2"/>
  <g>
    <path class="st4" d="M42.7,10.6l-7.6-.4-3.4-6.3c-3-3.9-11.3-3.7-14,.4l-2.9,5.8c-2.6,0-7.8-.8-7.8,1.9v17.4c.1,0,0,18.9,0,18.9h10.1c0-.1,25.7-9.3,25.7-9.3.6-.4.8-26.9,0-28.5Z"/>
    <g>
      <path class="st1" d="M43.3,41.7V11.3c0-.8-.6-1.4-1.4-1.4h-7c-.7-4.8-4.8-8.6-9.8-8.6s-9.2,3.7-9.8,8.6h-6.8c-.8,0-1.4.6-1.4,1.4v36.2c0,.8.6,1.4,1.4,1.4h24.8"/>
      <path class="st0" d="M22.3,12.1c0,0,.1.2.1.4l-.5,2.2c-.1.5.5.9.9.7l2-1.1c.1,0,.3,0,.4,0l2,1.1c.5.3,1-.1.9-.7l-.5-2.2c0-.1,0-.3.1-.4l1.7-1.5c.4-.4.2-1-.4-1.1l-2.2-.3c-.1,0-.2,0-.3-.2l-.9-2.1c-.2-.5-.9-.5-1.2,0l-.9,2.1c0,.1-.2.2-.3.2l-2.2.3c-.5,0-.8.7-.4,1.1l1.7,1.5Z"/>
      <path class="st2" d="M25.1,4.2c4,0,7.2,3.2,7.2,7.2s-3.2,7.2-7.2,7.2-7.2-3.2-7.2-7.2,3.2-7.2,7.2-7.2Z"/>
      <path class="st2" d="M14.7,43.7h-2.5c-.9,0-1.7-.8-1.7-1.7s.8-1.7,1.7-1.7h2.5c.9,0,1.7.8,1.7,1.7s-.8,1.7-1.7,1.7Z"/>
      <path class="st2" d="M14.7,34.6h-2.5c-.9,0-1.7-.8-1.7-1.7s.8-1.7,1.7-1.7h2.5c.9,0,1.7.8,1.7,1.7s-.8,1.7-1.7,1.7Z"/>
      <path class="st2" d="M14.7,25.5h-2.5c-.9,0-1.7-.8-1.7-1.7s.8-1.7,1.7-1.7h2.5c.9,0,1.7.8,1.7,1.7s-.8,1.7-1.7,1.7Z"/>
      <path class="st0" d="M38,43.7h-17.2c-.9,0-1.7-.8-1.7-1.7s.8-1.7,1.7-1.7h17.2c.9,0,1.7.8,1.7,1.7s-.8,1.7-1.7,1.7Z"/>
      <path class="st0" d="M38,34.6h-17.2c-.9,0-1.7-.8-1.7-1.7s.8-1.7,1.7-1.7h17.2c.9,0,1.7.8,1.7,1.7s-.8,1.7-1.7,1.7Z"/>
      <path class="st0" d="M38,25.5h-17.2c-.9,0-1.7-.8-1.7-1.7s.8-1.7,1.7-1.7h17.2c.9,0,1.7.8,1.7,1.7s-.8,1.7-1.7,1.7Z"/>
    </g>
  </g>
</svg>