<?xml version="1.0" encoding="utf-8"?>
<!-- Generator: Adobe Illustrator 21.0.0, SVG Export Plug-In . SVG Version: 6.00 Build 0)  -->
<svg version="1.0" id="Layer_1" xmlns="http://www.w3.org/2000/svg" xmlns:xlink="http://www.w3.org/1999/xlink" x="0px" y="0px"
	 viewBox="0 0 50 50" enable-background="new 0 0 50 50" xml:space="preserve">
<g>
	<g>
		<path fill="#AFE55D" d="M4.813,45.541l42.156-15.343V8.45c0-2.992-2.426-5.418-5.418-5.418H8.45c-2.993,0-5.418,2.426-5.418,5.418
			v33.1C3.032,43.136,3.726,44.55,4.813,45.541z"/>
	</g>
	<g>
		<path fill="#C3FF68" d="M45.185,4.457c-0.963-0.877-2.231-1.426-3.635-1.426H8.45c-2.993,0-5.418,2.426-5.418,5.418V19.8
			L45.185,4.457z"/>
	</g>
	<path fill="#444444" d="M41.55,1.864H8.45c-3.632,0-6.586,2.955-6.586,6.586v33.1c0,3.631,2.955,6.586,6.586,6.586h16.551
		c0.645,0,1.168-0.523,1.168-1.168c0-0.645-0.523-1.168-1.168-1.168h-6.973V35.695h1.837l1.858-3.022h6.233l1.858,3.022h5.179
		l-2.026-3.022h8.788c0.193,0,0.35-0.157,0.35-0.35s-0.157-0.35-0.35-0.35h-9.082V18.028H45.8v12.168
		c0,0.645,0.523,1.168,1.168,1.168c0.645,0,1.168-0.523,1.168-1.168V8.45C48.136,4.818,45.182,1.864,41.55,1.864z M27.765,24.912
		l4.207-6.645v12.921L27.765,24.912z M4.2,18.028h13.127v13.944H4.2V18.028z M18.028,31V18.308l4.076,6.356L18.028,31z
		 M29.594,14.305l-1.775,3.022h-5.545l-1.81-3.022h-2.437V4.2h13.945v10.105H29.594z M27.407,18.028l-2.334,3.973l-2.379-3.973
		H27.407z M8.45,4.2h8.877v10.105h-1.866l1.866,2.91v0.112H4.2V8.45C4.2,6.106,6.106,4.2,8.45,4.2z M17.327,45.8H8.45
		c-2.344,0-4.25-1.906-4.25-4.25v-8.877h12.752l-1.944,3.022h2.319V45.8z M22.154,31.972l2.685-4.368l2.685,4.368H22.154z
		 M32.673,17.327V17.16l1.808-2.855h-1.808V4.2h8.877c2.344,0,4.25,1.906,4.25,4.25v8.877H32.673z"/>
</g>
</svg>
