<?xml version="1.0" encoding="UTF-8"?>
<svg xmlns="http://www.w3.org/2000/svg" version="1.1" viewBox="0 0 44.6 47.8">
  <defs>
    <style>
      .cls-1 {
        fill: #f9f941;
      }

      .cls-2, .cls-3, .cls-4 {
        stroke: #444;
      }

      .cls-2, .cls-3, .cls-4, .cls-5 {
        fill: none;
      }

      .cls-2, .cls-6, .cls-5 {
        stroke-miterlimit: 10;
        stroke-width: .5px;
      }

      .cls-3, .cls-4 {
        stroke-linecap: round;
        stroke-linejoin: round;
      }

      .cls-4 {
        stroke-width: 2.5px;
      }

      .cls-7 {
        fill: #444;
      }

      .cls-6 {
        fill: #1d1d1b;
      }

      .cls-6, .cls-5 {
        stroke: #444;
      }

      .cls-8 {
        fill: #d1bd00;
      }
    </style>
  </defs>
  <!-- Generator: Adobe Illustrator 28.6.0, SVG Export Plug-In . SVG Version: 1.2.0 Build 709)  -->
  <g>
    <g id="Camada_2">
      <g>
        <polygon class="cls-8" points="30.2 18.7 37.2 20.8 31.3 25 31.3 32.3 25.5 28 18.6 30.3 21 23.4 16.6 17.6 23.9 17.7 28.1 11.7 30.2 18.7"/>
        <g>
          <path class="cls-1" d="M39.3,4l-24.9-.6c-1.5,0-2.9,1.8-2.9,3.3v5.7l-8.2.7c-2.8,0-1.4,19.6.3,20.1l7.7.8.8,6.7,3.8,1.2,27.5-9.8c.5-.3.3-17.2-.2-24.5s-2-3.7-3.8-3.6Z"/>
          <g>
            <g>
              <line class="cls-2" x1="43.3" y1="13.8" x2="21.9" y2="13.8"/>
              <line class="cls-2" x1="43.3" y1="23" x2="22.8" y2="23"/>
              <polyline class="cls-2" points="43.3 32.3 27.4 32.3 27.4 4.2"/>
            </g>
            <polygon class="cls-7" points="7 17.2 9.9 17.2 11.9 21.6 14.4 17.2 17.2 17.2 13.6 23 17.2 28.8 14.5 28.8 11.9 24.3 9.6 28.8 6.7 28.8 10.5 23 7 17.2"/>
            <rect class="cls-7" x="27.4" y="13.8" width="15.9" height="9.2"/>
          </g>
          <circle class="cls-5" cx="15.9" cy="37.5" r="2.2"/>
          <circle class="cls-5" cx="22" cy="9.3" r="2.2"/>
          <circle class="cls-5" cx="24.7" cy="33.6" r="2.2"/>
          <line class="cls-6" x1="26.3" y1="35.2" x2="32.6" y2="41.8"/>
          <path class="cls-5" d="M43.4,36.5l-5.3-5.3c-1.1-1.1-1.1-2.9,0-4l1.4-1.4c1.1-1.1,1.1-2.9,0-4l-5.5-5.5"/>
          <path class="cls-5" d="M16.8,33.1l8.5,8.7"/>
          <path class="cls-5" d="M17.5,4.7l3.2,2.9"/>
          <path class="cls-5" d="M14.3,13.1c1.3-1.3,1.3-3.3,0-4.6l-2.6-2.6"/>
          <path class="cls-5" d="M25.6,4.5l4,4c1.1,1.1,2.9,1.1,4,0l4.5-4.4"/>
          <path class="cls-5" d="M43.5,17.2l-2.8-2.8c-1.1-1.1-1.1-2.9,0-4l2.9-3"/>
          <path class="cls-4" d="M37,41.6H14.1c-1.5,0-2.7-1.2-2.7-2.7v-5.4h0s-6.7,0-6.7,0c-1.7,0-3.1-1.4-3.1-3.1v-14.9c0-1.7,1.4-3.1,3.1-3.1h6.8v-5.7c0-1.5,1.2-2.7,2.7-2.7h26.4c1.5,0,2.7,1.2,2.7,2.7v29.6"/>
          <rect class="cls-3" x="2.5" y="13.1" width="20.3" height="19.8" rx="3" ry="3"/>
          <line class="cls-5" x1="14.4" y1="39.1" x2="12.8" y2="40.7"/>
        </g>
      </g>
    </g>
  </g>
</svg>