<svg xmlns="http://www.w3.org/2000/svg" id="Camada_3" x="0" y="0" version="1.1" viewBox="0 0 50 50" xml:space="preserve"><style>.st1,.st3{fill:none;stroke:#444;stroke-miterlimit:10}.st1{stroke-width:.5}.st3{stroke-linecap:round;stroke-linejoin:round}</style><path fill="#e589ef" d="M49 16l-1-8.8-5-2.3-12.1.1c-3.2 0-16.1-1-16.1 2.2l-.9 4-11.4 8.2v11.4L6.2 35l6.2 2.2 1.5 6.5 3.5 2.8 31-11c.8-.3 1.6-17.5.6-19.5z"/><path d="M47.6 16.3H22.5m25.1 9.3H26.3M48 35H30.9V6.7" class="st1"/><path fill="none" stroke="#444" stroke-linecap="round" stroke-linejoin="round" stroke-miterlimit="10" stroke-width="2.5" d="M48.6 38.2v-28c0-.4.1-2.2-1.6-3.5-1.6-1.2-1.6-1.2-7.2-1.2h0-21.7c-2.5 0-4.5 2-4.5 4.5v2.4s-5.5-.5-6.9 4.3c0 0-3.8.2-5 4.8-1 3.9.7 5.9.7 5.9s-1.2 2.8 2.1 6.4c2.6 2.9 5.7 2.4 5.7 2.4s1.7 1.7 3.6 2.1l.1 2.9s-.6 5 4.5 5H41"/><path d="M7.7 17.4c-3.3.6-5.5 3.9-4.9 7.2.2.8.5 1.6.9 2.2l.1.1 7 4.3 3.5-2-7-4.2.4-7.6z" class="st3"/><path d="M18 15.5c-2.2-2.6-6.1-2.9-8.7-.8-.6.5-1.1 1.2-1.5 1.9l-.2.8-.2 7.5 3.5 2.1.2-8.2 6.9-3.3z" class="st3"/><path d="M24.9 23.5c1.2-3.2-.5-6.7-3.7-7.9-.8-.3-2.5 0-3.3 0L11.3 19l-.1 4.1 7.2-3.9 6.5 4.3z" class="st3"/><path d="M21.1 33.3c3.4-.5 5.6-3.7 5.1-7-.1-.8-1.1-2.1-1.5-2.8l-6.3-4.2-3.6 1.9 6.9 4.4-.6 7.7z" class="st3"/><path d="M10.9 35c2.2 2.6 6 3 8.7.8.6-.5 1.3-1.9 1.7-2.7l.4-7.6-3.5-2.1-.3 8.2-7 3.4z" class="st3"/><path d="M3.9 27.1c-1.2 3.2.8 6.6 4 7.8.8.3 2.2.1 3 .1.1 0-.1 0 0 0l6.9-3.5.1-4.1-7.2 3.9-6.8-4.2z" class="st3"/><path d="M30.9 44.8V35m-10.6 0h11.5" class="st1"/></svg>