<?xml version="1.0" encoding="utf-8"?>
<!-- Generator: Adobe Illustrator 22.0.1, SVG Export Plug-In . SVG Version: 6.00 Build 0)  -->
<svg version="1.1" id="Layer_1" xmlns="http://www.w3.org/2000/svg" xmlns:xlink="http://www.w3.org/1999/xlink" x="0px" y="0px"
	 viewBox="0 0 50 50" style="enable-background:new 0 0 50 50;" xml:space="preserve">
<style type="text/css">
	.st0{fill:#C05E80;}
	.st1{fill:#D7698D;}
	.st2{fill:#031326;}
</style>
<g>
	<path class="st0" d="M4.8,45.5L47,30.2V8.4c0-3-2.4-5.4-5.4-5.4H8.4C5.5,3,3,5.5,3,8.4v33.1C3,43,3.7,44.5,4.8,45.5z"/>
	<g>
		<path class="st1" d="M45.2,4.5C44.2,3.6,43,3,41.6,3H8.4C5.5,3,3,5.5,3,8.4v11.4L45.2,4.5z"/>
	</g>
	<path class="st2" d="M41.5,1.9H8.4c-3.6,0-6.6,3-6.6,6.6v33.1c0,3.6,3,6.6,6.6,6.6H25c0.6,0,1.2-0.5,1.2-1.2s-0.5-1.2-1.2-1.2h-7
		V35.7h1.8l1.9-3H28l1.9,3H35l-2-3h8.8c0.2,0,0.3-0.2,0.3-0.3S41.9,32,41.8,32h-9.1V18h13.1v12.2c0,0.6,0.5,1.2,1.2,1.2
		s1.2-0.5,1.2-1.2V8.4C48.1,4.8,45.2,1.9,41.5,1.9z M27.8,24.9l4.2-6.6v12.9L27.8,24.9z M4.2,18h13.1v14H4.2V18z M18,31V18.2
		l4.1,6.4L18,31z M29.6,14.3l-1.8,3h-5.5l-1.8-3H18V4.2h14v10.1H29.6z M27.4,18l-2.3,4l-2.4-4H27.4z M8.4,4.2h8.9v10.1h-1.9l1.9,2.9
		v0.1H4.2V8.4C4.2,6.1,6.1,4.2,8.4,4.2z M17.3,45.8H8.4c-2.3,0-4.2-1.9-4.2-4.2v-8.9H17l-1.9,3h2.3v10.1H17.3z M22.2,32l2.7-4.4
		l2.7,4.4H22.2z M32.7,17.2V17l1.8-2.9h-1.8v-10h8.9c2.3,0,4.2,1.9,4.2,4.2v8.9H32.7z"/>
</g>
</svg>
