<?xml version="1.0" encoding="utf-8"?>
<!-- Generator: Adobe Illustrator 28.2.0, SVG Export Plug-In . SVG Version: 6.00 Build 0)  -->
<svg version="1.1" id="Layer_1" xmlns="http://www.w3.org/2000/svg" xmlns:xlink="http://www.w3.org/1999/xlink" x="0px" y="0px"
	 viewBox="0 0 50 50" style="enable-background:new 0 0 50 50;" xml:space="preserve">
<style type="text/css">
	.st0{fill:#35D3C3;}
	.st1{fill:#7DF4EB;}
	.st2{fill:none;stroke:#444444;stroke-width:2.5;stroke-linecap:round;stroke-linejoin:round;stroke-miterlimit:10;}
	.st3{fill:none;stroke:#444444;stroke-linecap:round;stroke-linejoin:round;stroke-miterlimit:10;}
	.st4{fill:none;stroke:#444444;stroke-width:0.5;stroke-linecap:round;stroke-linejoin:round;stroke-miterlimit:10;}
</style>
<g>
	<polygon class="st0" points="29.9,21.1 37.8,23.5 31.1,28.3 31.2,36.5 24.6,31.6 16.8,34.2 19.5,26.4 14.6,19.9 22.8,20 27.5,13.3 
			"/>
	<g>
		<g>
			<path class="st1" d="M45.4,12.5l-5.6-3.6l-7.7-4.4l-6-2.8c-3.2,0-21.5,8.9-21.5,12.1l-0.5,7.8l0.5,15.1l11.5,7.6l31-11
				C47.9,32.8,46.4,14.4,45.4,12.5z"/>
			<g>
				<g>
					<path class="st2" d="M30.6,46.5l-2.2,1.3c-1.7,1-3.8,1-5.5,0l-15.6-9c-1.7-1-2.7-2.8-2.7-4.7v-18c0-2,1-3.8,2.7-4.7l15.6-9
						c1.7-1,3.8-1,5.5,0l15.6,9c1.7,1,2.7,2.8,2.7,4.7v18c0,2-1,3.8-2.7,4.7l-2.5,1.4"/>
				</g>
			</g>
		</g>
		<g>
			<path class="st3" d="M17.1,18.9c0-4.1,5.6-7.3,12.5-7.3S42,14.8,42,18.9s-5.6,7.3-12.5,7.3c-1.1,0-2.8-0.1-3.8-0.2"/>
			<line class="st3" x1="22" y1="27.8" x2="25.7" y2="27.8"/>
			<path class="st3" d="M42,28.3c0,4.1-5.6,7.3-12.5,7.3c-1.4,0-2.5-0.1-3.8-0.3l0-0.4v-9l4.3-7.2l-12.9,0.1v4.3"/>
			<path class="st3" d="M17.2,23.2"/>
			<line class="st3" x1="42.1" y1="18.7" x2="42" y2="28.3"/>
			<path class="st3" d="M17.6,39.2c0,0-6.8-0.6-8.4-6.6v-9.5h12.7v9.5L17.6,39.2z"/>
			<path class="st3" d="M9.2,23.1c0,0,1.3,5.4,8.5,7.2l4.2-7.2"/>
			<line class="st3" x1="17.6" y1="39.2" x2="17.6" y2="30.3"/>
		</g>
		<polyline class="st4" points="31.7,14.9 27.5,8 20.2,8 		"/>
		<polyline class="st4" points="19.3,33 22.7,41.9 32.4,41.9 		"/>
	</g>
</g>
</svg>
