<svg xmlns="http://www.w3.org/2000/svg" viewBox="0 0 44.6 47.8"><defs><style>.cls-5{fill:none;stroke-miterlimit:10;stroke-width:.5px;stroke:#444}</style></defs><g id="Camada_2"><path fill="#d1bd00" d="M30.2 18.7l7 2.1-5.9 4.2v7.3L25.5 28l-6.9 2.3 2.4-6.9-4.4-5.8 7.3.1 4.2-6 2.1 7z"/><path fill="#f9f941" d="M39.3 4l-24.9-.6c-1.5 0-2.9 1.8-2.9 3.3v5.7l-8.2.7c-2.8 0-1.4 19.6.3 20.1l7.7.8.8 6.7 3.8 1.2 27.5-9.8c.5-.3.3-17.2-.2-24.5s-2-3.7-3.8-3.6z"/><path fill="none" stroke="#444" stroke-miterlimit="10" stroke-width=".5" d="M43.3 13.8H21.9M43.3 23H22.8m20.5 9.3H27.4V4.2"/><path fill="#444" d="M7 17.2h2.9l2 4.4 2.5-4.4h2.8L13.6 23l3.6 5.8h-2.7l-2.6-4.5-2.3 4.5H6.7l3.8-5.8L7 17.2zm20.4-3.4h15.9V23H27.4z"/><circle cx="15.9" cy="37.5" r="2.2" class="cls-5"/><circle cx="22" cy="9.3" r="2.2" class="cls-5"/><circle cx="24.7" cy="33.6" r="2.2" class="cls-5"/><path fill="#1d1d1b" stroke="#444" stroke-miterlimit="10" stroke-width=".5" d="M26.3 35.2l6.3 6.6"/><path d="M43.4 36.5l-5.3-5.3c-1.1-1.1-1.1-2.9 0-4l1.4-1.4c1.1-1.1 1.1-2.9 0-4L34 16.3M16.8 33.1l8.5 8.7M17.5 4.7l3.2 2.9m-6.4 5.5c1.3-1.3 1.3-3.3 0-4.6l-2.6-2.6m13.9-1.4l4 4c1.1 1.1 2.9 1.1 4 0l4.5-4.4m5.4 13.1l-2.8-2.8c-1.1-1.1-1.1-2.9 0-4l2.9-3" class="cls-5"/><path fill="none" stroke="#444" stroke-linecap="round" stroke-linejoin="round" stroke-width="2.5" d="M37 41.6H14.1c-1.5 0-2.7-1.2-2.7-2.7v-5.4h0-6.7c-1.7 0-3.1-1.4-3.1-3.1V15.5c0-1.7 1.4-3.1 3.1-3.1h6.8V6.7c0-1.5 1.2-2.7 2.7-2.7h26.4c1.5 0 2.7 1.2 2.7 2.7v29.6"/><rect width="20.3" height="19.8" x="2.5" y="13.1" fill="none" stroke="#444" stroke-linecap="round" stroke-linejoin="round" rx="3" ry="3"/><path d="M14.4 39.1l-1.6 1.6" class="cls-5"/></g></svg>