<?xml version="1.0" encoding="UTF-8"?>
<svg id="Camada_3" xmlns="http://www.w3.org/2000/svg" version="1.1" viewBox="0 0 50 50">
  <!-- Generator: Adobe Illustrator 29.1.0, SVG Export Plug-In . SVG Version: 2.1.0 Build 142)  -->
  <defs>
    <style>
      .st0 {
        stroke-width: .5px;
      }

      .st0, .st1, .st2 {
        fill: none;
        stroke: #444;
      }

      .st0, .st2 {
        stroke-miterlimit: 10;
      }

      .st1 {
        stroke-linecap: round;
        stroke-linejoin: round;
        stroke-width: 2.5px;
      }

      .st3 {
        fill: #e589ef;
      }
    </style>
  </defs>
  <path class="st3" d="M42,10.5l-7.6-.4-3.4-6.3c-3-3.9-11.3-3.7-14,.4l-2.9,5.8c-2.6,0-7.8-.8-7.8,1.9v17.4c.1,0,0,18.9,0,18.9h10.1c0-.1,25.7-9.3,25.7-9.3.6-.4.8-26.9,0-28.5Z"/>
  <g>
    <path class="st1" d="M42.6,41.5V11.2c0-.8-.6-1.4-1.4-1.4h-7c-.7-4.8-4.8-8.6-9.8-8.6s-9.2,3.7-9.8,8.6h-6.8c-.8,0-1.4.6-1.4,1.4v36.2c0,.8.6,1.4,1.4,1.4h24.8"/>
    <path class="st0" d="M21.6,12c0,0,.1.2.1.4l-.5,2.2c-.1.5.5.9.9.7l2-1.1c.1,0,.3,0,.4,0l2,1.1c.5.3,1-.1.9-.7l-.5-2.2c0-.1,0-.3.1-.4l1.7-1.5c.4-.4.2-1-.4-1.1l-2.2-.3c-.1,0-.2,0-.3-.2l-.9-2.1c-.2-.5-.9-.5-1.2,0l-.9,2.1c0,.1-.2.2-.3.2l-2.2.3c-.5,0-.8.7-.4,1.1l1.7,1.5Z"/>
    <path class="st2" d="M24.4,4c4,0,7.2,3.2,7.2,7.2s-3.2,7.2-7.2,7.2-7.2-3.2-7.2-7.2,3.2-7.2,7.2-7.2Z"/>
    <path class="st2" d="M14,43.5h-2.5c-.9,0-1.7-.8-1.7-1.7s.8-1.7,1.7-1.7h2.5c.9,0,1.7.8,1.7,1.7s-.8,1.7-1.7,1.7Z"/>
    <path class="st2" d="M14,34.4h-2.5c-.9,0-1.7-.8-1.7-1.7s.8-1.7,1.7-1.7h2.5c.9,0,1.7.8,1.7,1.7s-.8,1.7-1.7,1.7Z"/>
    <path class="st2" d="M14,25.3h-2.5c-.9,0-1.7-.8-1.7-1.7s.8-1.7,1.7-1.7h2.5c.9,0,1.7.8,1.7,1.7s-.8,1.7-1.7,1.7Z"/>
    <path class="st0" d="M37.3,43.5h-17.2c-.9,0-1.7-.8-1.7-1.7s.8-1.7,1.7-1.7h17.2c.9,0,1.7.8,1.7,1.7s-.8,1.7-1.7,1.7Z"/>
    <path class="st0" d="M37.3,34.4h-17.2c-.9,0-1.7-.8-1.7-1.7s.8-1.7,1.7-1.7h17.2c.9,0,1.7.8,1.7,1.7s-.8,1.7-1.7,1.7Z"/>
    <path class="st0" d="M37.3,25.3h-17.2c-.9,0-1.7-.8-1.7-1.7s.8-1.7,1.7-1.7h17.2c.9,0,1.7.8,1.7,1.7s-.8,1.7-1.7,1.7Z"/>
  </g>
</svg>