<?xml version="1.0" encoding="utf-8"?>
<!-- Generator: Adobe Illustrator 24.3.0, SVG Export Plug-In . SVG Version: 6.00 Build 0)  -->
<svg version="1.1" id="Camada_1" xmlns="http://www.w3.org/2000/svg" xmlns:xlink="http://www.w3.org/1999/xlink" x="0px" y="0px"
	 viewBox="0 0 50 50" style="enable-background:new 0 0 50 50;" xml:space="preserve">
<style type="text/css">
	.st0{fill:#BF94F7;}
	.st1{fill:#A475EF;}
	.st2{fill:none;stroke:#444444;stroke-width:2.5;stroke-linecap:round;stroke-linejoin:round;stroke-miterlimit:10;}
	.st3{fill:#444444;}
</style>
<polygon class="st0" points="45.3,2.4 47.3,4.3 7.4,18.8 7.3,4.8 9.4,2.6 30.6,2.8 "/>
<polygon class="st1" points="46.4,15.7 47.1,16 6.3,30.6 5.7,26.8 4.4,19.8 46,4.1 45.8,9.7 "/>
<polyline class="st2" points="33.4,46.8 6.9,46.8 6.9,2.9 46.5,2.9 46.5,38.5 "/>
<path class="st3" d="M9.2,19.9h3.6l1.8,2.7l1.8-2.7H20l-3.6,5.4l3.6,5.4h-3.6L14.6,28l-1.8,2.7H9.2l3.6-5.4L9.2,19.9z M9.2,13.2H2.5
	v24.2h6.7h2.7h14.8v-6.1h10.7v-2.7H26.7v-2.7h10.7v-2.7H26.7v-2.7h10.7v-2.7H26.7v-4.7H11.9H9.2V13.2z"/>
</svg>
