<?xml version="1.0" encoding="utf-8"?>
<!-- Generator: Adobe Illustrator 27.9.0, SVG Export Plug-In . SVG Version: 6.00 Build 0)  -->
<svg version="1.1" id="Layer_1" xmlns="http://www.w3.org/2000/svg" xmlns:xlink="http://www.w3.org/1999/xlink" x="0px" y="0px"
	 viewBox="0 0 50 50" style="enable-background:new 0 0 50 50;" xml:space="preserve">
<style type="text/css">
	.st0{fill:#DC5E82;}
	.st1{fill:#444444;}
</style>
<g>
	<path class="st0" d="M42.7,4H9.5C6.6,4,4.1,6.5,4.1,9.4v11.4v21.7c0,1.6,0.7,3,1.8,4l42.2-15.3V9.4C48.1,6.4,45.7,4,42.7,4z"/>
	<path class="st1" d="M41.9,2.8H8.8c-3.6,0-6.6,3-6.6,6.6v33.1c0,3.6,3,6.6,6.6,6.6h16.6c0.6,0,1.2-0.5,1.2-1.2s-0.5-1.2-1.2-1.2h-7
		V36.6h1.8l1.9-3h6.3l1.9,3h5.1l-2-3h8.8c0.2,0,0.3-0.2,0.3-0.3s-0.2-0.4-0.3-0.4h-9.1v-14h13.1v12.2c0,0.6,0.5,1.2,1.2,1.2
		s1.2-0.5,1.2-1.2V9.3C48.5,5.7,45.6,2.8,41.9,2.8z M28.2,25.8l4.2-6.6v12.9L28.2,25.8z M4.6,18.9h13.1v14H4.6V18.9z M18.4,31.9
		V19.2l4.1,6.4L18.4,31.9z M30,15.2l-1.8,3h-5.5l-1.8-3h-2.5V5.1h14v10.1L30,15.2z M27.8,18.9l-2.3,4l-2.4-4
		C23.1,18.9,27.8,18.9,27.8,18.9z M8.8,5.1h8.9v10.1h-1.9l1.9,2.9v0.1H4.6V9.3C4.6,7,6.5,5.1,8.8,5.1z M17.7,46.7H8.8
		c-2.3,0-4.2-1.9-4.2-4.2v-8.9h12.8l-1.9,3h2.3v10.1L17.7,46.7z M22.6,32.9l2.7-4.4l2.7,4.4H22.6z M33.1,18.2V18l1.8-2.9h-1.8v-10
		H42c2.3,0,4.2,1.9,4.2,4.2v8.9H33.1z"/>
</g>
</svg>
