<?xml version="1.0" encoding="utf-8"?>
<!-- Generator: Adobe Illustrator 27.3.1, SVG Export Plug-In . SVG Version: 6.00 Build 0)  -->
<svg version="1.1" id="Camada_3" xmlns="http://www.w3.org/2000/svg" xmlns:xlink="http://www.w3.org/1999/xlink" x="0px" y="0px"
	 viewBox="0 0 50 50" style="enable-background:new 0 0 50 50;" xml:space="preserve">
<style type="text/css">
	.st0{fill:#F56991;}
	.st1{fill:#DC5E82;}
	.st2{fill:none;stroke:#444444;stroke-miterlimit:10;}
	.st3{fill:none;stroke:#444444;stroke-width:0.5;stroke-miterlimit:10;}
	.st4{fill:#444444;}
	.st5{fill:none;stroke:#444444;stroke-width:2.5;stroke-linecap:round;stroke-linejoin:round;stroke-miterlimit:10;}
	.st6{fill:none;stroke:#444444;stroke-linecap:round;stroke-linejoin:round;stroke-miterlimit:10;}
	.st7{fill:none;stroke:#444444;stroke-width:0.5;stroke-linecap:round;stroke-linejoin:round;stroke-miterlimit:10;}
</style>
<g>
	<g>
		<path class="st0" d="M26.74,4.56L6.17,3.81c-1.4,0-4.2,2.48-4.31,3.87L1.6,23.21l26.97-9.6L26.74,4.56z"/>
		<path class="st1" d="M1.6,23.21l0.01,7.32c0,8.6-1.15,11.77,16.84,10.72c1.17-0.07-0.51,3.11,0.71,2.68l29.24-10.4V17.89
			c0.41-6.77-7.25-5.28-16.19-5.56L1.6,23.21z"/>
	</g>
	<g>
		<g>
			<g>
				<g>
					<path class="st2" d="M29.41,38.4H12.57c-0.25,0-0.45-0.2-0.45-0.45V21.1c0-0.25,0.2-0.45,0.45-0.45h16.84
						c0.25,0,0.45,0.2,0.45,0.45v16.84C29.86,38.2,29.66,38.4,29.41,38.4z"/>
					<path class="st2" d="M22.11,46.2c-1.24,0-1.68-2.08-1.68-3.31V38.4"/>
					<path class="st2" d="M20.43,20.65v-4.8c0-1.24,1-2.24,2.24-2.24h22.17c1.24,0,2.96,1.01,2.96,2.25"/>
					<line class="st3" x1="47.53" y1="21.61" x2="29.86" y2="21.61"/>
					<line class="st3" x1="47.8" y1="29.37" x2="29.86" y2="29.37"/>
					<polyline class="st3" points="47.07,37.17 33.75,37.17 33.75,13.62 					"/>
				</g>
				<rect x="33.75" y="21.61" class="st4" width="14.04" height="7.76"/>
				<path class="st5" d="M41.32,46.36c-5.27,0-14.71,0-17.95,0c-4.54,0-3.74-5.1-3.74-5.1L6.71,41.21c-0.7,0-1.4-0.1-2.06-0.33
					c-1.26-0.45-2.86-1.51-2.96-3.98c-0.2-5.06-0.03-26.76-0.03-26.76c0.01-0.2-0.01-0.58-0.01-0.78c-0.01-1.19,0.41-5.6,5.46-5.6
					c7.38,0,15.28-0.12,15.28-0.12s5.6-0.13,5.6,5.21l0.01,3.78l1.85-0.02h11.28l0,0c4.64,0,4.64,0,5.93,1.01
					c1.38,1.08,1.32,2.63,1.32,2.93v22.62"/>
			</g>
		</g>
		<path class="st6" d="M20.43,40.37H6.49c-2.21,0-4-1.79-4-4V8.57c0-2.21,1.79-4,4-4h16.63c2.21,0,4,1.79,4,4v5.05"/>
		<line class="st7" x1="5.85" y1="22.47" x2="8.98" y2="22.47"/>
		<line class="st7" x1="5.85" y1="26.05" x2="11.99" y2="26.05"/>
		<line class="st7" x1="5.85" y1="29.63" x2="12.12" y2="29.63"/>
		<line class="st7" x1="5.85" y1="33.21" x2="12.12" y2="33.21"/>
		<line class="st7" x1="5.85" y1="36.79" x2="12.12" y2="36.79"/>
		<polyline class="st7" points="16.39,27.46 20.43,29.37 21.29,24.93 		"/>
		<circle class="st6" cx="20.43" cy="29.37" r="4.62"/>
		<circle class="st2" cx="6.17" cy="13.87" r="1.44"/>
		<circle class="st2" cx="12.69" cy="8.17" r="1.44"/>
		<circle class="st2" cx="17.01" cy="16.45" r="1.44"/>
		<circle class="st2" cx="20.82" cy="9.48" r="1.44"/>
		<line class="st3" x1="7.28" y1="12.96" x2="11.51" y2="8.98"/>
		<line class="st3" x1="13.48" y1="9.19" x2="16.13" y2="15.68"/>
		<line class="st3" x1="17.8" y1="15.25" x2="20.24" y2="10.79"/>
	</g>
</g>
</svg>
