<?xml version="1.0" encoding="utf-8"?>
<!-- Generator: Adobe Illustrator 27.9.0, SVG Export Plug-In . SVG Version: 6.00 Build 0)  -->
<svg version="1.1" id="Layer_1" xmlns="http://www.w3.org/2000/svg" xmlns:xlink="http://www.w3.org/1999/xlink" x="0px" y="0px"
	 viewBox="0 0 50 50" style="enable-background:new 0 0 50 50;" xml:space="preserve">
<style type="text/css">
	.st0{fill:#E589EF;}
	.st1{fill:#444444;}
</style>
<g>
	<path class="st0" d="M42.5,3.3H9.3C6.5,3.3,4,5.8,4,8.7v11.4v21.7c0,1.6,0.7,3,1.8,4L48,30.5V8.7C48,5.7,45.5,3.3,42.5,3.3z"/>
	<path class="st1" d="M41.8,2.1H8.7c-3.6,0-6.6,3-6.6,6.6v33.1c0,3.6,3,6.6,6.6,6.6h16.6c0.6,0,1.2-0.5,1.2-1.2S26,46,25.3,46h-7
		V35.9h1.8l1.9-3h6.3l1.9,3h5.1l-2-3h8.8c0.2,0,0.3-0.2,0.3-0.3s-0.2-0.4-0.3-0.4H33v-14h13.1v12.2c0,0.6,0.5,1.2,1.2,1.2
		s1.2-0.5,1.2-1.2V8.6C48.4,5,45.5,2.1,41.8,2.1z M28.1,25.1l4.2-6.6v12.9C32.3,31.4,28.1,25.1,28.1,25.1z M4.5,18.2h13.1v14H4.5
		V18.2z M18.3,31.2V18.5l4.1,6.4L18.3,31.2z M29.9,14.5l-1.8,3h-5.5l-1.8-3h-2.5V4.4h14v10.1C32.3,14.5,29.9,14.5,29.9,14.5z
		 M27.7,18.2l-2.3,4l-2.4-4C23,18.2,27.7,18.2,27.7,18.2z M8.7,4.4h8.9v10.1h-1.9l1.9,2.9v0.1H4.5V8.6C4.5,6.3,6.4,4.4,8.7,4.4z
		 M17.6,46H8.7c-2.3,0-4.2-1.9-4.2-4.2v-8.9h12.8l-1.9,3h2.3V46L17.6,46z M22.5,32.2l2.7-4.4l2.7,4.4C27.9,32.2,22.5,32.2,22.5,32.2
		z M33,17.5v-0.2l1.8-2.9H33v-10h8.9c2.3,0,4.2,1.9,4.2,4.2v8.9H33z"/>
</g>
</svg>
