<?xml version="1.0" encoding="UTF-8"?>
<svg id="Camada_2" data-name="Camada 2" xmlns="http://www.w3.org/2000/svg" width="44.88" height="44.88" viewBox="0 0 44.88 44.88">
  <defs>
    <style>
      .cls-1 {
        fill: #b68af3;
      }

      .cls-2 {
        fill: #e5e5e5;
      }
    </style>
  </defs>
  <g id="Camada_2-2" data-name="Camada 2">
    <g>
      <path class="cls-1" d="m39.4,14.09h.07c1.65,0,3,1.35,3,3v9.5h2.42V7.33h-5.48v6.76Z"/>
      <path class="cls-1" d="m11.22,28.6c0,.38.31.69.69.69h10.98c.27,0,.51.11.69.28v-2.16h-12.35v1.19Z"/>
      <path class="cls-1" d="m26.11,4.96c0-.38-.31-.69-.69-.69h-13.51c-.38,0-.69.31-.69.69v1.19h14.89v-1.19Z"/>
      <path class="cls-1" d="m19.51,13.06h-1.69c-.66,0-1.19.53-1.19,1.19v2.88h4.07v-2.88c0-.66-.53-1.19-1.19-1.19Z"/>
      <path class="cls-1" d="m39.4,5.14v1.19h5.48v-.75c0-.39-.04-.76-.11-1.13h-4.68c-.38,0-.69.31-.69.69Z"/>
      <path class="cls-1" d="m42.46,31.44v8.67c0,1.65-1.35,3-3,3h-12.89c-1.65,0-3-1.35-3-3v-9.1c-.18.17-.42.28-.69.28h-10.98c-1.48,0-2.69-1.21-2.69-2.69V4.96c0-1.48,1.21-2.69,2.69-2.69h13.51c1.48,0,2.69,1.21,2.69,2.69v9.13h9.29V5.14c0-1.48,1.21-2.69,2.69-2.69h3.84c-1-1.48-2.7-2.45-4.62-2.45H5.58C2.5,0,0,2.5,0,5.58v33.72c0,3.08,2.5,5.58,5.58,5.58h33.72c.96,0,1.87-.24,2.66-.67,1.74-.94,2.92-2.79,2.92-4.91v-7.83h-2.26c-.05,0-.1-.02-.15-.03Z"/>
      <path class="cls-1" d="m39.46,16.09h-12.89c-.55,0-1,.45-1,1v.88h14.89v-.88c0-.55-.45-1-1-1Z"/>
      <path class="cls-1" d="m35.05,31.14v-.84c0-.66-.53-1.19-1.19-1.19h-2.88v3.22h2.88c.66,0,1.19-.53,1.19-1.19Z"/>
      <path class="cls-1" d="m25.58,38.24h14.89v-19.26h-14.89v19.26Zm4.41-13.85c0-.28.22-.5.5-.5h3.38c1.21,0,2.19.98,2.19,2.19v.84c0,.68-.31,1.29-.8,1.69.49.4.8,1.01.8,1.69v.84c0,1.21-.98,2.19-2.19,2.19h-3.38c-.28,0-.5-.22-.5-.5v-8.44Z"/>
      <path class="cls-1" d="m42.46,29.5c.05,0,.1-.03.15-.03h2.26v-1.88h-2.42v1.91Z"/>
      <path class="cls-1" d="m26.11,7.15h-14.89v19.26h12.35v-9.32c0-1.49,1.1-2.73,2.53-2.95v-6.99Zm-4.41,14.7c0,.28-.22.5-.5.5s-.5-.22-.5-.5v-3.72h-4.07v3.72c0,.28-.22.5-.5.5s-.5-.22-.5-.5v-7.6c0-1.21.98-2.19,2.19-2.19h1.69c1.21,0,2.19.98,2.19,2.19v7.6Z"/>
      <path class="cls-1" d="m25.58,40.11c0,.55.45,1,1,1h12.89c.55,0,1-.45,1-1v-.88h-14.89v.88Z"/>
      <path class="cls-1" d="m35.05,26.92v-.84c0-.66-.53-1.19-1.19-1.19h-2.88v3.22h2.88c.66,0,1.19-.53,1.19-1.19Z"/>
      <path class="cls-2" d="m42.62,29.47c-.05,0-.1.02-.15.03v-1.91h2.42v-1h-2.42v-9.5c0-1.65-1.35-3-3-3h-.07v-6.76h5.48v-1h-5.48v-1.19c0-.38.31-.69.69-.69h4.68c-.15-.73-.44-1.41-.84-2h-3.84c-1.48,0-2.69,1.21-2.69,2.69v8.95h-9.29V4.96c0-1.48-1.21-2.69-2.69-2.69h-13.51c-1.48,0-2.69,1.21-2.69,2.69v23.64c0,1.48,1.21,2.69,2.69,2.69h10.98c.27,0,.51-.11.69-.28v9.1c0,1.65,1.35,3,3,3h12.89c1.65,0,3-1.35,3-3v-8.67c.05,0,.1.03.15.03h2.26v-2h-2.26ZM11.22,4.96c0-.38.31-.69.69-.69h13.51c.38,0,.69.31.69.69v1.19h-14.89v-1.19Zm12.35,24.61c-.18-.17-.42-.28-.69-.28h-10.98c-.38,0-.69-.31-.69-.69v-1.19h12.35v2.16Zm0-12.48v9.32h-12.35V7.15h14.89v6.99c-1.43.23-2.53,1.46-2.53,2.95Zm16.89,23.02c0,.55-.45,1-1,1h-12.89c-.55,0-1-.45-1-1v-.88h14.89v.88Zm0-1.88h-14.89v-19.26h14.89v19.26Zm0-20.26h-14.89v-.88c0-.55.45-1,1-1h12.89c.55,0,1,.45,1,1v.88Z"/>
      <path class="cls-2" d="m19.51,12.06h-1.69c-1.21,0-2.19.98-2.19,2.19v7.6c0,.28.22.5.5.5s.5-.22.5-.5v-3.72h4.07v3.72c0,.28.22.5.5.5s.5-.22.5-.5v-7.6c0-1.21-.98-2.19-2.19-2.19Zm1.19,5.07h-4.07v-2.88c0-.66.53-1.19,1.19-1.19h1.69c.66,0,1.19.53,1.19,1.19v2.88Z"/>
      <path class="cls-2" d="m30.49,33.33h3.38c1.21,0,2.19-.98,2.19-2.19v-.84c0-.68-.31-1.29-.8-1.69.49-.4.8-1.01.8-1.69v-.84c0-1.21-.98-2.19-2.19-2.19h-3.38c-.28,0-.5.22-.5.5v8.44c0,.28.22.5.5.5Zm.5-8.44h2.88c.66,0,1.19.53,1.19,1.19v.84c0,.66-.53,1.19-1.19,1.19h-2.88v-3.22Zm0,4.22h2.88c.66,0,1.19.53,1.19,1.19v.84c0,.66-.53,1.19-1.19,1.19h-2.88v-3.22Z"/>
    </g>
  </g>
</svg>