<svg xmlns="http://www.w3.org/2000/svg" id="Camada_1" data-name="Camada 1" version="1.1" viewBox="0 0 300 300"><defs><clipPath id="clippath"><path d="M-438.6 208.8h313v222.5h-313z" class="cls-14"/></clipPath><clipPath id="clippath-1"><path d="M-438.5 208.9h313v222.5h-313z" class="cls-14"/></clipPath><style>.cls-14,.cls-32{stroke-width:0}.cls-32{fill:#fff}.cls-14{fill:none}.cls-53{opacity:.3}</style></defs><path id="Camada_10" fill="#008dd3" stroke-width="0" d="M285.3 152.6c.1 19.8-4.1 38.6-11.6 55.7-21.1 47.6-68.6 80.8-124 81-14.7.1-28.9-2.3-42.2-6.5-25-8-46.8-23-63.1-42.8-17-20.4-28.1-46-30.8-74-.4-4-.6-8.2-.6-12.3-.2-46.2 22.7-87.2 57.9-111.9 4.6-3.3 9.4-6.2 14.4-8.8 7-3.8 14.4-6.8 22-9.4 7.2-2.3 14.7-4 22.4-5.2 6.2-.8 12.5-1.3 18.9-1.4 25-.1 48.5 6.6 68.8 18.3 3.7 2.1 7.1 4.3 10.5 6.8 16.2 11.5 29.8 26.5 39.7 43.9 1.1 2 2.2 3.9 3.2 6 .8 1.8 1.7 3.5 2.5 5.3 2.6 5.8 4.8 11.7 6.6 17.8 2 6.8 3.5 13.9 4.3 21 .7 5.4 1.1 10.9 1.1 16.5z" data-name="Camada 10"/><path fill="#515759" stroke-width="0" d="M287.1 81.6l-31.7-17.4c-.8-.4-1.8-.8-3-1.1-1-.3-2.2-.5-3.4-.6-1.2-.1-2.4-.2-3.6-.1h-1.5c.7-1.1.7-2.4.2-3.5-.4-.9-1.2-1.6-2.3-2.2l-29.2-16c-.8-.4-1.7-.8-2.8-1.1-1-.2-2.1-.4-3.2-.5-1.1-.1-2.3-.1-3.5-.1-.9 0-1.7.1-2.5.2-1.2 0-2.3.1-3.3.3l-47.4 8.3c-1.2.2-2.2.5-3.1.8-1 .4-1.8 1-2.4 1.6-.9 1-1.2 2.3-.8 3.6.1.4.4.8.7 1.2l-3.2-1.9c-.8-.5-1.7-.8-2.9-1.1-1-.3-2.1-.5-3.3-.6-1.2-.1-2.4-.2-3.6-.1-1.3 0-2.5.2-3.6.4l-50.2 8.8c-1.2.2-2.3.5-3.2.9-4 1.7-8.9 7-9.8 11.8-.2 1.1-.4 2.4-.3 3.7l.7 52.6c0 1.3.2 2.5.4 3.9.2 1.3.6 2.5 1 3.6.4 1.2 1 2.3 1.5 3.2.7 1.1 1.5 2 2.4 2.7l1 .7h-.7c-1.4.2-2.6.9-3.5 2.1-.6.8-1.1 1.9-1.4 3.2-.2 1.1-.4 2.3-.3 3.6L66 203c0 1.2.1 2.5.4 3.8.2 1.2.6 2.4 1 3.6.4 1.2.9 2.3 1.5 3.2.7 1.1 1.4 2 2.2 2.7l25.5 21.1c1.4 1.2 2.8 1.5 3.7 1.5 1.2 0 2.3-.4 3.2-1.2.2 1.2.6 2.3 1 3.4.5 1.2 1 2.4 1.6 3.3.7 1.1 1.5 2.1 2.3 2.8l27.7 22.9c3.9 2.9 13.4 5.1 21.2 3.9l50.6-12.8c1.5-.4 3-1 4.3-2 1.3-.9 2.4-1.9 3.4-3.2 1-1.2 1.7-2.6 2.3-4 .2-.5.4-1 .5-1.6.6 1.3 1.5 2.4 2.5 3.3 1.2 1 2.7 1.7 4.2 2 .7.1 1.3.2 2 .2s1.8-.1 2.8-.4l48.1-12.1c1.5-.4 2.9-1 4.2-1.9 1.2-.8 2.3-1.9 3.3-3.1.9-1.2 1.7-2.5 2.3-3.9.6-1.5.9-3 1-4.5l2.4-51.9c0-1.7-.2-3.2-.7-4.7-.6-1.5-1.4-2.8-2.6-3.9-1.2-1.1-2.6-1.8-4.1-2.2h-.2c.7-.3 1.4-.7 2-1.1 1.2-.8 2.4-1.9 3.3-3.1 1-1.2 1.7-2.6 2.3-4 .6-1.5.9-3.1 1-4.6l2.5-54.1c.3-10-2.1-15.9-7.5-19z"/><path fill="#ffd200" stroke-width="0" d="M283.3 91.5l-49.9 10c-1.1.2-2.1.6-3 1.3-.9.6-1.8 1.4-2.5 2.3-.7.9-1.3 1.9-1.7 3-.4 1.1-.7 2.2-.7 3.4l-1.6 55.2c0 1.1.1 2.2.5 3.1.4.9.9 1.6 1.5 2.2.7.6 1.5 1 2.3 1.2.9.2 1.9.2 2.9 0l49-11c1-.2 2-.7 2.8-1.3.9-.6 1.7-1.4 2.4-2.2.7-.9 1.3-1.9 1.7-2.9.4-1 .7-2.1.7-3.3l2.5-54.1c0-1.1-.1-2.2-.4-3.1-.3-.9-.8-1.7-1.5-2.3-.6-.6-1.4-1.1-2.3-1.3-.9-.2-1.8-.3-2.8 0zM208.5 186L157 197.7c-1.1.2-2.1.7-3.1 1.4-1 .6-1.8 1.4-2.5 2.4-.7.9-1.3 1.9-1.7 3-.4 1.1-.6 2.2-.7 3.4l-.4 54c0 1.1.2 2.1.6 3 .4.9 1 1.6 1.6 2.1.7.5 1.5.9 2.5 1.1.9.2 1.9.1 3-.1l50.6-12.8c1-.3 2-.7 2.9-1.4.9-.6 1.7-1.4 2.4-2.3.7-.9 1.3-1.9 1.7-2.9.4-1 .6-2.1.7-3.2l1.4-53c0-1.1-.2-2.1-.5-3-.4-.9-.9-1.6-1.6-2.2-.7-.6-1.5-1-2.4-1.2-.9-.2-1.9-.2-3 0zm71.3-16.2l-48.9 11.1c-1 .2-2 .7-2.9 1.3-.9.6-1.7 1.4-2.4 2.3-.7.9-1.3 1.9-1.7 2.9-.4 1.1-.7 2.2-.7 3.3l-1.5 52.9c0 1.1.1 2.1.5 2.9.3.8.9 1.5 1.5 2.1.6.5 1.4.9 2.3 1.1.9.2 1.8.1 2.9-.1l48.1-12.1c1-.2 1.9-.7 2.8-1.3.9-.6 1.7-1.4 2.3-2.2.7-.9 1.2-1.8 1.6-2.8.4-1 .6-2.1.7-3.1l2.4-51.9c0-1.1-.1-2.1-.4-3-.3-.9-.8-1.6-1.4-2.2-.6-.6-1.4-1-2.2-1.2-.8-.2-1.8-.2-2.8 0z"/><path fill="#54c654" stroke-width="0" d="M210.4 106l-52.7 10.5c-1.1.2-2.2.7-3.2 1.3-1 .6-1.9 1.4-2.6 2.4-.7.9-1.3 2-1.8 3.1-.4 1.1-.7 2.3-.7 3.5l-.5 56.4c0 1.2.2 2.2.6 3.1.4.9 1 1.7 1.7 2.3.7.6 1.6 1 2.5 1.2.9.2 2 .2 3.1 0l51.7-11.6c1.1-.2 2.1-.7 3-1.3.9-.6 1.8-1.4 2.5-2.3.7-.9 1.3-1.9 1.7-3 .4-1.1.7-2.2.7-3.3l1.5-55.3c0-1.2-.2-2.2-.5-3.2-.4-.9-.9-1.7-1.6-2.4-.7-.6-1.5-1.1-2.4-1.3-.9-.2-1.9-.3-3 0z"/><path fill="#ff8da4" stroke-width="0" d="M128.6 52.3L78.8 61c-1.1.2-2 .4-2.7.7-.7.3-1.3.6-1.6 1-.3.4-.5.7-.4 1.1 0 .4.4.7.9 1.1l26.6 17.5c.6.4 1.3.7 2.2.9.9.3 1.9.4 3 .6 1.1.1 2.2.2 3.4.1 1.2 0 2.3-.2 3.4-.4l51.1-9.4c1-.2 1.9-.5 2.6-.8.7-.3 1.2-.6 1.5-1 .3-.4.4-.7.2-1.1-.1-.4-.5-.8-1.1-1.1L140 53.5c-.6-.3-1.3-.6-2.2-.9-.9-.2-1.8-.4-2.9-.5-1-.1-2.1-.1-3.2-.1s-2.2.1-3.2.3zm69.1-12.1l-47.4 8.3c-1 .2-1.8.4-2.5.7-.7.3-1.2.6-1.4.9-.3.3-.4.7-.3 1 .1.4.5.7 1 1l28 16.7c.6.4 1.4.7 2.3.9.9.2 1.9.4 3 .5 1.1.1 2.2.2 3.3.1 1.1 0 2.2-.1 3.2-.3l48.6-9c1-.2 1.8-.4 2.4-.7.6-.3 1.1-.6 1.3-1 .2-.3.3-.7 0-1.1-.2-.4-.6-.7-1.2-1.1l-29.2-16c-.6-.3-1.3-.6-2.2-.8-.9-.2-1.8-.4-2.9-.5-1 0-2.1-.1-3.1-.1-1.1 0-2.1.1-3.1.3zm-28.8 36.5l-51.3 9.5c-1.1.2-2 .5-2.7.8-.7.3-1.3.7-1.6 1.1-.3.4-.5.8-.4 1.2.1.4.4.8 1 1.2l29 19.1c.6.4 1.4.8 2.4 1 1 .3 2 .5 3.2.6 1.1.1 2.4.2 3.6.1 1.2 0 2.4-.2 3.5-.4l52.6-10.4c1.1-.2 2-.5 2.7-.8.7-.3 1.2-.7 1.5-1.1.3-.4.3-.8.2-1.2-.2-.4-.6-.8-1.2-1.2L181 78c-.6-.4-1.4-.7-2.3-.9-.9-.2-1.9-.4-3-.5-1.1-.1-2.2-.2-3.4-.1-1.1 0-2.3.1-3.3.3zm71-13.2l-48.7 9.1c-1 .2-1.9.4-2.6.7-.7.3-1.2.6-1.4 1-.3.4-.3.8-.2 1.1.2.4.5.8 1.1 1.1l30.5 18.2c.7.4 1.5.7 2.5 1 1 .3 2 .5 3.2.6 1.1.1 2.3.2 3.5.1 1.2 0 2.3-.2 3.4-.4l49.9-9.8c1-.2 1.9-.5 2.5-.8.6-.3 1.1-.7 1.3-1 .2-.4.2-.8 0-1.2-.2-.4-.7-.8-1.3-1.2l-31.7-17.4c-.6-.4-1.5-.6-2.4-.9-.9-.2-1.9-.4-3-.5-1.1-.1-2.2-.1-3.3-.1-1.1 0-2.2.1-3.2.3z"/><path fill="#4ebfe9" stroke-width="0" d="M67.7 74.9l.7 52.6c0 1.1.1 2.2.3 3.3.2 1.1.5 2.1.8 3.1.4 1 .8 1.8 1.2 2.6.5.7 1 1.3 1.5 1.7l26 19.3c.6.4 1.1.6 1.6.5.5 0 .9-.3 1.3-.8s.7-1.1.9-1.9c.2-.8.3-1.8.3-2.9l-.3-54.3c0-1.1-.1-2.3-.3-3.5-.2-1.1-.5-2.2-.9-3.2s-.8-1.9-1.3-2.7c-.5-.8-1-1.3-1.6-1.7L71.5 69.4c-.5-.4-1-.5-1.5-.4-.5.1-.9.4-1.2.9-.3.5-.6 1.2-.8 2-.2.8-.3 1.8-.3 2.9zm38.3 25.9l.2 54.5c0 1.1.1 2.3.3 3.4.2 1.1.5 2.2.9 3.2s.8 1.9 1.3 2.7c.5.8 1 1.4 1.6 1.8l28.3 21.1c.6.5 1.2.7 1.7.6.5 0 1-.3 1.4-.7.4-.5.7-1.1 1-1.9.2-.8.4-1.8.4-3l.4-56.4c0-1.2-.1-2.4-.3-3.6-.2-1.2-.5-2.3-1-3.4-.4-1.1-.9-2-1.4-2.8-.5-.8-1.1-1.4-1.7-1.8l-28.9-19.2c-.6-.4-1.1-.5-1.6-.4-.5 0-1 .4-1.3.9-.4.5-.7 1.2-.9 2.1-.2.9-.3 1.9-.3 3zm.3 78.4l.2 52.3c0 1.1.1 2.2.3 3.3.2 1.1.5 2.2.9 3.2s.8 1.9 1.3 2.7c.5.8 1 1.4 1.6 1.9l27.7 22.9c.6.5 1.2.7 1.7.8.5 0 1-.2 1.4-.6.4-.4.7-1 .9-1.8.2-.8.4-1.7.4-2.8l.4-53.9c0-1.1-.1-2.3-.3-3.5-.2-1.2-.5-2.3-.9-3.3-.4-1.1-.9-2-1.4-2.8-.5-.8-1.1-1.5-1.7-1.9l-28.3-21.3c-.6-.4-1.1-.6-1.6-.6s-.9.3-1.3.7c-.4.4-.7 1.1-.9 1.9-.2.8-.3 1.8-.3 2.9zm-37.6-28.7l.7 50.5c0 1 .1 2.1.3 3.2.2 1.1.5 2.1.8 3 .3 1 .8 1.8 1.2 2.6.5.7.9 1.4 1.5 1.8l25.5 21.1c.5.5 1.1.7 1.5.7.5 0 .9-.2 1.3-.6.4-.4.6-1 .8-1.7.2-.8.3-1.7.3-2.8l-.2-52.1c0-1.1-.1-2.2-.3-3.3-.2-1.1-.5-2.2-.9-3.2s-.8-1.9-1.3-2.7c-.5-.8-1-1.4-1.6-1.8l-25.9-19.5c-.5-.4-1-.6-1.5-.5-.4 0-.8.3-1.2.8-.3.4-.6 1.1-.8 1.9-.2.8-.3 1.7-.3 2.8z"/><g class="cls-53"><path d="M205.3 43.3c3.8.5 7.2 2.1 10.4 3.9 3.2 1.9 6.3 4 8.8 6.8 1.2 1.3 1.1 3.3-.2 4.5-.8.7-1.7.9-2.7.8-1.9-.3-3.7-.9-5.4-1.6-3.6-1.3-18.9-8.9-13.4-13.7.7-.6 1.6-.8 2.4-.7z" class="cls-32"/></g><g class="cls-53"><path d="M245.7 64.9c7.2 2 13.5 5.9 19.5 10.3 2 1.5 3.9 3 5.7 4.8 1.2 1.2 1.2 3.2 0 4.4-.8.8-2 1.1-3 .8-2.4-.7-4.7-1.7-6.9-2.7-6.6-3.3-13.1-7-18.3-12.4-1.2-1.3-1.1-3.3.2-4.4.8-.7 1.9-1 2.9-.7z" class="cls-32"/></g><g class="cls-53"><path d="M284.4 99.2c1.3 9.1 1.4 18.2 1.2 27.4-.2 9.1-.7 18.3-2.1 27.3-.6 3.4-5.5 3.3-6 0-1.1-9.1-1.2-18.2-1.2-27.4.1-9.2.5-18.3 2.1-27.3.6-3.4 5.5-3.3 6 0z" class="cls-32"/></g><g class="cls-53"><path d="M281.6 178.1c1 9.1.8 18.3.4 27.4-.5 9.1-1.3 18.2-2.9 27.3-.7 3.4-5.6 3.2-6-.3-.8-9.1-.7-18.3-.4-27.4.4-9.1 1.1-18.2 2.9-27.3.7-3.4 5.6-3.1 6 .3z" class="cls-32"/></g></svg>