<svg xmlns="http://www.w3.org/2000/svg" id="Camada_1" data-name="Camada 1" viewBox="0 0 300 300"><defs><style>.cls-5{fill:#dd437a}.cls-8{fill:#932e57}.cls-9{fill:#cecece}.cls-11{stroke-linecap:round;fill:none;stroke-miterlimit:10;stroke:#dd437a}.cls-19{fill:#eaeaea}</style></defs><circle cx="140" cy="150" r="140" fill="#008dd3"/><path fill="none" stroke="#cecece" stroke-miterlimit="10" stroke-width="2" d="M201.83 228.53s30.69.89 44.33 4.21 31.56 14.51 31.56 14.51"/><g id="computer"><path fill="#4d5152" d="M285.44 187.25H81.14V70.05c0-9.3 7.6-16.9 16.9-16.9h170.6c9.3 0 16.9 7.6 16.9 16.9v117.1l-.1.1z"/><path fill="#ffdcdf" d="M275.54 68.9v103.55c0 2.04-1.66 3.7-3.7 3.7h-180V67.95c0-2.04 1.66-3.7 3.7-3.7h175.35c2.57 0 4.65 2.08 4.65 4.65z"/><path fill="#ededed" d="M275.54 68.39v13.46H91.84v-13.9c0-2.04 1.66-3.7 3.7-3.7H271.4c2.28 0 4.14 1.85 4.14 4.14z"/><path d="M102.98 69.05h116.87c2.49 0 4.5 2.01 4.5 4.5s-2.01 4.5-4.5 4.5H102.98c-2.49 0-4.5-2.01-4.5-4.5s2.01-4.5 4.5-4.5z" class="cls-5"/><path d="M274.54 211.05H91.84c-5.9 0-10.9-4.8-10.9-10.9v-12.9h204.4v12.9c0 6-4.8 10.9-10.9 10.9h.1z" class="cls-19"/><path d="M165.54 235.35c-2.4 0-4.2-2.2-3.6-4.6 1.3-5.3 3.5-14.2 5.3-19.4l.2-.4h31.6l.3.7c2.2 6.2 4 12.6 5.4 19 .5 2.3-1.3 4.5-3.6 4.5l-35.6.2z" class="cls-19"/><path fill="#828d8e" d="M198.14 223.15c2.5 0 4.3-2.4 3.5-4.7-.7-2.2-1.5-4.5-2.2-6.7l-.3-.7h-31.6l-.2.4c-.9 2.3-1.6 4.7-2.2 7.1-.7 2.3 1.1 4.7 3.5 4.7h29.5v-.1z"/></g><circle cx="263.34" cy="73.55" r="4.5" fill="#ef3030"/><circle cx="248.74" cy="73.55" r="4.5" fill="#ed9751"/><circle cx="234.04" cy="73.55" r="4.5" fill="#00bf5f"/><path d="M261.2 240.71s-5.44 5.05-2.12 14.1 17.69 25.76 35.49 19.25c9.06-3.31 4.05-16.52 4.05-16.52" class="cls-9"/><path d="M261.83 257.15c2.3 3.3 5.6 6.6 9.7 9.2 10.6 6.8 22.6 7.2 26.6.8 4-6.3-1.1-16.8-11.5-23.7-.1 0-.2-.1-.3-.2-10.6-6.8-22.6-7.2-26.6-.8-2.5 3.9-1.5 9.4 2.1 14.7z" class="cls-19"/><path d="M261.83 257.15c2.3 3.3 5.6 6.6 9.7 9.2 10.6 6.8 22.6 7.2 26.6.8 4-6.3-1.1-16.8-11.5-23.7-6.9-.6-16.9 1.1-24.9 13.6l.1.1z" class="cls-19"/><path d="M275.8 244.19s-4.85-5.36-11.62-4.43m-2.35 17.39s7.33-14.83 24.5-13.9" class="cls-11"/><path d="M270.81 240.21l5.62 3.87s1.47-1.99-.98-4.05c-2.14-1.8-4.64.18-4.64.18z" class="cls-8"/><path d="M275.06 244.62l1.37-.54-1.87-3.47-4.02-.05" class="cls-8"/><path d="M269.99 240.9l5.06 3.72s2.34-2.17-.32-4.31c-2.47-1.98-4.74.59-4.74.59z" class="cls-5"/><path d="M104.18 248.88l130.93-1c1.08 0 2.09.7 2.67 1.9l15.33 26.62c4.89 6.98-.6 10.55-3.27 10.55H88.42c-2.67 0-5.26-3.74-1.97-10.12l15.05-26.05c.58-1.2 1.59-1.9 2.67-1.9h.01z" class="cls-9"/><path d="M104.18 245.76h130.93c1.08 0 2.09.67 2.67 1.83l14.73 27.46c1.52 2.89 0 6.84-2.67 6.84H89.59c-2.67 0-4.19-3.95-2.67-6.84l14.59-27.46c.58-1.16 1.59-1.83 2.67-1.83z" class="cls-19"/><path d="M103.03 277.27l12.99-27.73m-.93 27.73l12.85-27.84m.22 27.84l11.22-27.84m2.93 27.84l7.18-27.84m6.26 23.25l3.78-23.25m9.75 0l-.61 23.25m10.72-23.2l2.07 23.3m8.48-23.3l3.43 23.2m6.89-23.45l7.19 28.04m4.54-27.79l3.05 9.8m6.21 17.99l-3.85-11.16m6.76-16.88l11.68 28.04m-132.81-23.69h132.5m-138.82 12.8l144.78-.32m-148.13 6.72l151.1-.32m-144.45-12.98h115.03m-108.97-10.39h126.25c.66 0 1.28.46 1.65 1.23l10.86 22.7c.87 1.82-.07 4.25-1.65 4.25H94.49c-1.6 0-2.54-2.51-1.62-4.32l11.59-22.7c.37-.73.97-1.16 1.62-1.16h-.01z" class="cls-11"/><path d="M213.51 253.58h12.46l5.07 12.16-26.22.32-1.93-6.58 12.15-.2v-.41l-1.53-5.29zm-70.04 19.2l62.81-.1 1.17 4.59h-65.14" class="cls-5"/><path fill="#ddd" stroke="#515759" stroke-miterlimit="10" stroke-width="4" d="M85.56 171.05c8.39 1.15 15.52 6.4 15.52 6.4l-16.22 20.91c-.29.3-.42.81-.34 1.15h0c.1.46.29.77.59 1.07l10.44 7.76c.42.27.79.31 1.36.18h0c.34-.08.66-.26.84-.54l15.67-21.27s6.58 5.97 9.52 13.94c2.44 6.76 12.16-40.48 14.95-54.49.36-1.63-1.25-2.96-2.77-2.26-13.16 6-56.72 26.1-49.55 27.16z"/><path style="isolation:isolate" fill="#fff" d="M111.53 168.94c3.79-3.46 10.68-8.57 13.59-11.12 3.61-3.19 5.95-5.61 6.92-7.14.45-.7-.42-1.34-1.16-.94-1.98.79-6 2.63-14.06 6.8l-.11.03c-3.39 1.46-21.94 10.68-23.36 11.83-4.28 1.78 7.14 2.02 11.32 5.77l.03.11" opacity=".36"/><path style="isolation:isolate" fill="#fff" d="M106.72 167.72c2.24-1.81 6.34-4.38 8.16-5.86 2.15-1.67 3.57-2.82 4.22-3.68.27-.42-.13-.57-.7-.45-1.09.48-3.5 1.49-8.27 3.73l-.11.03c-1.98.79-12.84 5.81-13.79 6.38-2.52 1.03 3.98.68 6.39 2.42" opacity=".61"/><path fill="#9e325e" d="M160.34 102.49V88.71h52.2v13.78h-52.2zm0 68.77v-13.84h52.2v13.84h-52.2zm18.37 0V88.71h15.35v82.55h-15.35z"/><path d="M163.84 99.93V86.15h52.2v13.78h-52.2zm0 68.77v-13.84h52.2v13.84h-52.2zm18.37 0V86.15h15.35v82.55h-15.35z" class="cls-5"/><path style="isolation:isolate" fill="#fff" d="M272.53 113.38s2.29-20.93-16.73-21.31h-26.43s-4.81 0-4.66 3.82c.08 1.6 0 4.74 4.66 5.12 6.19.46 19.1 0 26.43 8.48 6.65 7.72 7.1 19.48 8.56 26.28 1.83 8.4 8.56 8.4 8.4.46-.15-7.64-.23-22.84-.23-22.84z" opacity=".2"/><path fill="none" stroke="#fff" stroke-linecap="round" stroke-linejoin="round" stroke-width="3" d="M211.99 160.18h-20.34m-2.77-67.14h-20.34" opacity=".33"/></svg>