<?xml version="1.0" encoding="utf-8"?>
<!-- Generator: Adobe Illustrator 26.5.0, SVG Export Plug-In . SVG Version: 6.00 Build 0)  -->
<svg version="1.1" id="Camada_1" xmlns="http://www.w3.org/2000/svg" xmlns:xlink="http://www.w3.org/1999/xlink" x="0px" y="0px"
	 viewBox="0 0 50 50" style="enable-background:new 0 0 50 50;" xml:space="preserve">
<style type="text/css">
	.st0{fill:none;}
	.st1{fill:#00DFFC;}
	.st2{fill:#FEFEFE;}
	.st3{fill:#032337;}
	.st4{fill:#AFE55D;}
	.st5{fill:#C3FF68;}
	.st6{fill:#01748A;}
</style>
<path class="st0" d="M0,0"/>
<path class="st1" d="M0,0"/>
<g>
	<path class="st2" d="M48.5,33.2c-0.6,0.3-1.3,0.1-1.6-0.6c0,0,0,0-0.1-0.1C41,34.7,35.1,36.8,29.3,39c0,0,0,0-0.1,0
		c0.5,1.2,1,2.4,1.5,3.6c0.5,1.2,1,2.5,1.6,3.7c0.1,0.1,0.1,0.3,0.2,0.4c0.3,0.2,0.6,0.1,0.8-0.3c0.4-1.1,0.8-2.2,1.3-3.3
		c0.7-1.9,1.5-3.8,2.2-5.6c0.2-0.5,0.5-0.8,1-0.9c0.9-0.1,1.6,0.8,1.3,1.6s-0.6,1.5-0.9,2.3c-0.9,2.2-1.7,4.4-2.6,6.6
		c-0.5,1.2-1.3,1.9-2.6,2c-1.1,0.1-2.3-0.5-2.8-1.5c-0.7-1.5-1.2-2.9-1.9-4.4c-0.3-0.7-0.6-1.4-0.8-2C27.4,41,27.3,41,27.1,41
		c-2,0.6-4.1,0.9-6.3,0.8c-2.5-0.1-4.9-0.5-7.2-1.5C8.1,38,4.3,34.1,2.2,28.6C0.9,25.5,0.6,22.3,1,19c0.4-3.8,1.8-7.3,4.2-10.3
		c2.6-3.3,5.9-5.7,10-7c2.6-0.8,5.2-1.1,7.9-0.9c4.5,0.4,8.5,2.1,11.9,5.1c2.6,2.2,4.4,5,5.6,8.2c0.7,1.8,1.1,3.6,1.2,5.5
		c0.2,2.6,0,5.1-0.8,7.5c-0.1,0.2,0,0.2,0.2,0.3c2,0.8,4.1,1.7,6.1,2.5c0.8,0.3,1.4,0.8,1.7,1.6C49.3,32.2,49.1,32.9,48.5,33.2z"/>
	<path class="st3" d="M48.5,33.2c-0.6,0.3-1.3,0.1-1.6-0.6c0,0,0,0-0.1-0.1c-0.4-0.4-0.9-0.5-1.4-0.7c-4.5-1.9-9-3.8-13.6-5.6
		c-2.5-1-5-2-7.5-3.1c-0.6-0.3-1.2,0-1.3,0.6c-0.1,0.3,0,0.5,0.1,0.7c0.7,1.7,1.4,3.3,2.1,5c1.3,3.1,2.5,6.1,3.8,9.2
		c0.1,0.1,0.1,0.3,0.1,0.4c0.5,1.2,1,2.4,1.5,3.6c0.5,1.2,1,2.5,1.6,3.7c0.1,0.1,0.1,0.3,0.2,0.4c0.3,0.2,0.6,0.1,0.8-0.3
		c0.4-1.1,0.8-2.2,1.3-3.3c0.7-1.9,1.5-3.8,2.2-5.6c0.2-0.5,0.5-0.8,1-0.9c0.9-0.1,1.6,0.8,1.3,1.6s-0.6,1.5-0.9,2.3
		c-0.9,2.2-1.7,4.4-2.6,6.6c-0.5,1.2-1.3,1.9-2.6,2c-1.1,0.1-2.3-0.5-2.8-1.5c-0.7-1.5-1.2-2.9-1.9-4.4c-0.3-0.7-0.6-1.4-0.8-2
		c0-0.2-0.1-0.2-0.3-0.2c-2,0.6-4.1,0.9-6.3,0.8c-2.5-0.1-4.9-0.5-7.2-1.5C8.1,38,4.3,34.1,2.2,28.6C0.9,25.5,0.6,22.3,1,19
		c0.4-3.8,1.8-7.3,4.2-10.3c2.6-3.3,5.9-5.7,10-7c2.6-0.8,5.2-1.1,7.9-0.9c4.5,0.4,8.5,2.1,11.9,5.1c2.6,2.2,4.4,5,5.6,8.2
		c0.7,1.8,1.1,3.6,1.2,5.5c0.2,2.6,0,5.1-0.8,7.5c-0.1,0.2,0,0.2,0.2,0.3c2,0.8,4.1,1.7,6.1,2.5c0.8,0.3,1.4,0.8,1.7,1.6
		C49.3,32.2,49.1,32.9,48.5,33.2z"/>
	<path class="st4" d="M46.8,32.6C41,34.7,35.1,36.8,29.3,39c0,0,0,0-0.1,0c-0.6-1.3-1.1-2.7-1.7-4c-1.5-3.5-2.9-7.1-4.4-10.6
		c-0.2-0.4-0.2-0.8,0.1-1.1c0.3-0.3,0.6-0.4,1.1-0.2c1.3,0.5,2.5,1,3.8,1.6c6.1,2.5,12.2,5,18.3,7.6C46.6,32.3,46.8,32.3,46.8,32.6z
		"/>
	<path class="st4" d="M21.3,10.5c5.3,0,9.8,3.8,10.7,9c0.3,1.6,0.2,3.2-0.3,4.8c-0.1,0.2-0.1,0.2-0.3,0.1c-2.2-0.9-4.4-1.8-6.5-2.7
		c-0.8-0.3-1.5-0.4-2.3,0.1c-0.9,0.6-1.5,1.7-0.9,3.1c0.9,2.1,1.8,4.3,2.7,6.4c0.1,0.3,0.1,0.3-0.2,0.4c-3.6,0.9-6.9,0.2-9.8-2.2
		c-2.1-1.7-3.3-4-3.7-6.7c-0.7-4.4,1.5-8.9,5.5-11.1C17.8,10.9,19.5,10.5,21.3,10.5z"/>
	<path class="st5" d="M4,16.2c0.3-1.2,0.8-2.4,1.4-3.5c2.4-4.4,6.1-7.4,10.9-8.8c3.8-1.1,7.7-1,11.4,0.4c4.6,1.8,8,4.9,10.1,9.4
		c1,2.1,1.5,4.4,1.6,6.7c0,0.6,0,1.2,0,1.8c-0.1,1.6-0.4,3.3-0.9,4.8c-0.1,0.2-0.1,0.2-0.3,0.1c-1.8-0.7-3.6-1.5-5.4-2.2
		c-0.2-0.1-0.2-0.1-0.2-0.3c1.8-6.1-1.4-12.4-7.5-14.5c-1.9-0.6-3.6-0.8-5.3-0.6c0,0-3.5,0.4-6.2,2.7c-0.3,0.3-0.6,0.6-0.6,0.6
		c-0.1,0.1-0.1,0.2-0.1,0.2c-0.7,0.3-1.4,0.6-2.1,0.8C8.5,14.7,6.2,15.5,4,16.2z"/>
	<path class="st4" d="M4,16.2c0.6-0.2,1.1-0.4,1.7-0.6c1.2-0.4,2.4-0.8,3.6-1.3c1.1-0.4,2.2-0.8,3.3-1.2c0.1,0,0.2-0.1,0.3-0.1
		c-0.9,0.9-1.6,1.9-2.2,3.1c-2.3,4.6-1.3,10.3,2.5,13.8c1.9,1.8,4.1,2.8,6.7,3.1c1.6,0.2,3.1,0.1,4.6-0.4c0.3-0.1,0.4-0.1,0.5,0.2
		c0.7,1.8,1.4,3.5,2.2,5.2c0.1,0.2,0.1,0.3-0.2,0.4c-2.3,0.8-4.8,1.1-7.2,0.9c-4.7-0.4-8.7-2.3-11.9-5.8c-0.8-0.8-1.4-1.7-2-2.6
		c-1.8-2.9-2.4-5.6-2.5-6.3C2.7,20.9,3.5,17.8,4,16.2z"/>
	<path class="st6" d="M39.4,22.3c0-0.6,0-1.2,0-1.8C39.5,21.1,39.5,21.7,39.4,22.3z"/>
</g>
</svg>
