<svg xmlns="http://www.w3.org/2000/svg" id="Camada_1" x="0" y="0" version="1.1" viewBox="0 0 50 50" xml:space="preserve"><style>.st4{fill:#afe55d}</style><path fill="#fefefe" d="M48.5 33.2c-.6.3-1.3.1-1.6-.6l-.1-.1C41 34.7 35.1 36.8 29.3 39h-.1l1.5 3.6c.5 1.2 1 2.5 1.6 3.7.1.1.1.3.2.4.3.2.6.1.8-.3.4-1.1.8-2.2 1.3-3.3.7-1.9 1.5-3.8 2.2-5.6.2-.5.5-.8 1-.9.9-.1 1.6.8 1.3 1.6s-.6 1.5-.9 2.3c-.9 2.2-1.7 4.4-2.6 6.6-.5 1.2-1.3 1.9-2.6 2-1.1.1-2.3-.5-2.8-1.5-.7-1.5-1.2-2.9-1.9-4.4-.3-.7-.6-1.4-.8-2-.1-.2-.2-.2-.4-.2-2 .6-4.1.9-6.3.8-2.5-.1-4.9-.5-7.2-1.5C8.1 38 4.3 34.1 2.2 28.6.9 25.5.6 22.3 1 19c.4-3.8 1.8-7.3 4.2-10.3 2.6-3.3 5.9-5.7 10-7C17.8.9 20.4.6 23.1.8c4.5.4 8.5 2.1 11.9 5.1 2.6 2.2 4.4 5 5.6 8.2.7 1.8 1.1 3.6 1.2 5.5.2 2.6 0 5.1-.8 7.5-.1.2 0 .2.2.3 2 .8 4.1 1.7 6.1 2.5.8.3 1.4.8 1.7 1.6.3.7.1 1.4-.5 1.7z"/><path fill="#032337" d="M48.5 33.2c-.6.3-1.3.1-1.6-.6l-.1-.1c-.4-.4-.9-.5-1.4-.7-4.5-1.9-9-3.8-13.6-5.6-2.5-1-5-2-7.5-3.1-.6-.3-1.2 0-1.3.6-.1.3 0 .5.1.7.7 1.7 1.4 3.3 2.1 5 1.3 3.1 2.5 6.1 3.8 9.2.1.1.1.3.1.4l1.5 3.6c.5 1.2 1 2.5 1.6 3.7.1.1.1.3.2.4.3.2.6.1.8-.3.4-1.1.8-2.2 1.3-3.3.7-1.9 1.5-3.8 2.2-5.6.2-.5.5-.8 1-.9.9-.1 1.6.8 1.3 1.6s-.6 1.5-.9 2.3c-.9 2.2-1.7 4.4-2.6 6.6-.5 1.2-1.3 1.9-2.6 2-1.1.1-2.3-.5-2.8-1.5-.7-1.5-1.2-2.9-1.9-4.4-.3-.7-.6-1.4-.8-2 0-.2-.1-.2-.3-.2-2 .6-4.1.9-6.3.8-2.5-.1-4.9-.5-7.2-1.5C8.1 38 4.3 34.1 2.2 28.6.9 25.5.6 22.3 1 19c.4-3.8 1.8-7.3 4.2-10.3 2.6-3.3 5.9-5.7 10-7C17.8.9 20.4.6 23.1.8c4.5.4 8.5 2.1 11.9 5.1 2.6 2.2 4.4 5 5.6 8.2.7 1.8 1.1 3.6 1.2 5.5.2 2.6 0 5.1-.8 7.5-.1.2 0 .2.2.3 2 .8 4.1 1.7 6.1 2.5.8.3 1.4.8 1.7 1.6.3.7.1 1.4-.5 1.7z"/><path d="M46.8 32.6C41 34.7 35.1 36.8 29.3 39h-.1c-.6-1.3-1.1-2.7-1.7-4-1.5-3.5-2.9-7.1-4.4-10.6-.2-.4-.2-.8.1-1.1.3-.3.6-.4 1.1-.2 1.3.5 2.5 1 3.8 1.6 6.1 2.5 12.2 5 18.3 7.6.2 0 .4 0 .4.3z" class="st4"/><path d="M21.3 10.5c5.3 0 9.8 3.8 10.7 9 .3 1.6.2 3.2-.3 4.8-.1.2-.1.2-.3.1-2.2-.9-4.4-1.8-6.5-2.7-.8-.3-1.5-.4-2.3.1-.9.6-1.5 1.7-.9 3.1.9 2.1 1.8 4.3 2.7 6.4.1.3.1.3-.2.4-3.6.9-6.9.2-9.8-2.2-2.1-1.7-3.3-4-3.7-6.7-.7-4.4 1.5-8.9 5.5-11.1 1.6-.8 3.3-1.2 5.1-1.2z" class="st4"/><path fill="#c3ff68" d="M4 16.2c.3-1.2.8-2.4 1.4-3.5 2.4-4.4 6.1-7.4 10.9-8.8 3.8-1.1 7.7-1 11.4.4 4.6 1.8 8 4.9 10.1 9.4 1 2.1 1.5 4.4 1.6 6.7v1.8c-.1 1.6-.4 3.3-.9 4.8-.1.2-.1.2-.3.1-1.8-.7-3.6-1.5-5.4-2.2-.2-.1-.2-.1-.2-.3 1.8-6.1-1.4-12.4-7.5-14.5-1.9-.6-3.6-.8-5.3-.6 0 0-3.5.4-6.2 2.7l-.6.6c-.1.1-.1.2-.1.2-.7.3-1.4.6-2.1.8-2.3.9-4.6 1.7-6.8 2.4z"/><path d="M4 16.2c.6-.2 1.1-.4 1.7-.6 1.2-.4 2.4-.8 3.6-1.3l3.3-1.2c.1 0 .2-.1.3-.1-.9.9-1.6 1.9-2.2 3.1-2.3 4.6-1.3 10.3 2.5 13.8 1.9 1.8 4.1 2.8 6.7 3.1 1.6.2 3.1.1 4.6-.4.3-.1.4-.1.5.2.7 1.8 1.4 3.5 2.2 5.2.1.2.1.3-.2.4-2.3.8-4.8 1.1-7.2.9-4.7-.4-8.7-2.3-11.9-5.8-.8-.8-1.4-1.7-2-2.6-1.8-2.9-2.4-5.6-2.5-6.3-.7-3.7.1-6.8.6-8.4z" class="st4"/><path fill="#01748a" d="M39.4 22.3v-1.8c.1.6.1 1.2 0 1.8z"/></svg>