<?xml version="1.0" encoding="UTF-8"?>
<svg id="Camada_1" data-name="Camada 1" xmlns="http://www.w3.org/2000/svg" version="1.1" viewBox="0 0 50 50">
  <defs>
    <style>
      .cls-1, .cls-2 {
        fill: none;
        stroke: #444;
        stroke-linecap: round;
        stroke-linejoin: round;
      }

      .cls-3 {
        fill: #46b8b0;
      }

      .cls-3, .cls-4 {
        stroke-width: 0px;
      }

      .cls-2 {
        stroke-width: 2.5px;
      }

      .cls-4 {
        fill: #7ed0d6;
      }
    </style>
  </defs>
  <path class="cls-4" d="M0,0"/>
  <g>
    <path class="cls-3" d="M47.3,20.5c-.2-.8-1.7-5.7-2.2-6.3l-.4-3.7-.3-5.1-4.2,3.1-6.6-4.9-7.6-.7c-3.1,0-14.2.3-21,10l-3.9,10.4h-.2c0,0,3.9,13.2,3.9,13.2,0,.2-1.4,7.1-.3,8.4s4.9-2.8,5-2.7l5.5,2.9,31.5-11.5c.6-.4,1.7-8.5.7-13.1Z"/>
    <path class="cls-2" d="M42.8,39.2c1.9-2.4,3.4-5.2,4.2-8.4,1.5-5.5.7-10.7-1.7-15.4V4.4s-4.8,3.9-4.8,3.9c-2.7-2.5-6-4.4-9.7-5.3C18.6-.3,6,7,2.8,19.1c-1.5,5.5-1,10.5,1.4,15.3"/>
    <path class="cls-1" d="M10.6,30.1c-1-2.8-1.2-5.9-.4-9,2.2-8.1,10.5-13.2,18.6-10.8,2.7.8,4.3,2.2,5.8,3.4l-5,4,9.7,2.5c.9,2.7,1.1,5.7.3,8.7-2.2,8.1-10.5,12.9-18.6,10.8-2.3-.6-4.3-1.7-6-3.1"/>
    <polyline class="cls-1" points="39.3 20.2 44.3 21.5 44.5 5.9"/>
    <path class="cls-2" d="M40.3,8.2c-2.6-2.3-6.2-4-9.9-5C18.2,0,5.7,7.2,2.5,19.4s-.7,10.7,1.7,15.4v11s4.8-3.9,4.8-3.9c2.7,2.5,6,4.4,9.7,5.3,4.1,1.1,8.3,1,12.1-.1"/>
    <path class="cls-1" d="M15,36.5l4.8-3.9-9.1-2.4"/>
    <polyline class="cls-1" points="10.7 30.2 5.1 28.8 4.9 44.4"/>
  </g>
</svg>