<?xml version="1.0" encoding="utf-8"?>
<!-- Generator: Adobe Illustrator 24.3.0, SVG Export Plug-In . SVG Version: 6.00 Build 0)  -->
<svg version="1.1" id="Camada_1" xmlns="http://www.w3.org/2000/svg" xmlns:xlink="http://www.w3.org/1999/xlink" x="0px" y="0px"
	 viewBox="0 0 50 50" style="enable-background:new 0 0 50 50;" xml:space="preserve">
<style type="text/css">
	.st0{fill:#FCC34F;}
	.st1{fill:#FDCF72;}
	.st2{fill:none;stroke:#444444;stroke-width:2.5;stroke-linecap:round;stroke-linejoin:round;stroke-miterlimit:10;}
	.st3{fill:#444444;}
</style>
<g>
	<g>
		<polygon class="st0" points="47.7,11.6 48.5,16.8 2.4,33.6 1.9,22.7 1.8,16.5 42.1,1.9 47.3,4.2 		"/>
		<polygon class="st1" points="46.1,2 48.4,5.2 1.5,21.9 2.6,4.8 5.6,1.9 34.7,1.7 		"/>
		<g>
			<path class="st2" d="M18.1,48.3H5.5c-1.9,0-3.4-1.6-3.4-3.5V5.8c0-2,1.5-3.5,3.4-3.5h39c1.9,0,3.4,1.6,3.4,3.5v24.6"/>
			<path class="st2" d="M2.1,15.8"/>
			<path class="st2" d="M47.9,15.8"/>
		</g>
		<circle class="st3" cx="8.2" cy="8.2" r="1.4"/>
		<circle class="st3" cx="12.1" cy="8.2" r="1.4"/>
		<circle class="st3" cx="15.9" cy="8.2" r="1.4"/>
	</g>
	<g>
		<path class="st3" d="M11.4,42.8H9.5c-1.2,0-2.1-0.9-2.1-2.1V18.3c0-1.2,0.9-2.1,2.1-2.1h1.9c1.2,0,2.1,0.9,2.1,2.1v22.3
			C13.5,41.8,12.5,42.8,11.4,42.8z"/>
		<path class="st3" d="M21.1,34.7h-1.9c-1.2,0-2.1-0.9-2.1-2.1V18.3c0-1.2,0.9-2.1,2.1-2.1h1.9c1.2,0,2.1,0.9,2.1,2.1v14.3
			C23.2,33.7,22.2,34.7,21.1,34.7z"/>
		<path class="st3" d="M30.8,28h-1.9c-1.2,0-2.1-0.9-2.1-2.1v-7.6c0-1.2,0.9-2.1,2.1-2.1h1.9c1.2,0,2.1,0.9,2.1,2.1v7.6
			C32.9,27.1,31.9,28,30.8,28z"/>
		<path class="st3" d="M40.5,39.6h-1.9c-1.2,0-2.1-0.9-2.1-2.1V18.3c0-1.2,0.9-2.1,2.1-2.1h1.9c1.2,0,2.1,0.9,2.1,2.1v19.2
			C42.6,38.7,41.6,39.6,40.5,39.6z"/>
	</g>
</g>
</svg>
