<svg xmlns="http://www.w3.org/2000/svg" viewBox="0 0 50 50"><path fill="#a475ef" d="M39.2 23l.5 4.7-29.2 10.6.1-9.1.3-5.2 28.9-10.5-.6 3.2z"/><path fill="#bf94f7" d="M39.4 3.3l.6 10.6-29.7 10.7v-9.8l.4-4.5L36 1.1z"/><path fill="#444" d="M32.8 16.5c1.5-.9 2.6-2.6 2.6-4.5 0-2.9-2.3-5.2-5.2-5.2h-9c-2.9 0-5.3 2.3-5.3 5.2 0 1.9 1 3.6 2.6 4.5-1.5.9-2.6 2.6-2.6 4.5s1.1 3.6 2.7 4.5c-1.5.9-2.5 2.6-2.5 4.4 0 2.9 2.3 5.2 5.2 5.2 2.9 0 5.2-2.3 5.2-5.2v-5.4c.9 1 2.3 1.6 3.7 1.6 2.9 0 5.2-2.3 5.2-5.2 0-1.8-1-3.4-2.6-4.4zM21.3 8.3H25v7.5h-3.7c-2.1 0-3.7-1.7-3.7-3.7s1.6-3.8 3.7-3.8zm0 16.4c-2.1 0-3.7-1.7-3.7-3.7s1.7-3.7 3.7-3.7H25v7.5l-3.7-.1zm0 9c-2.1 0-3.7-1.7-3.7-3.7s1.7-3.7 3.7-3.7H25V30c0 2-1.6 3.7-3.7 3.7zm5.1-17.9V8.3h3.8c2.1 0 3.7 1.7 3.7 3.7s-1.7 3.8-3.7 3.8h-3.8zm.2 1.5l-.2.2v-.2h.2zm3.6 7.4c-2.1 0-3.7-1.7-3.7-3.7s1.7-3.7 3.7-3.7S34 18.9 34 21s-1.7 3.7-3.8 3.7z"/><path fill="none" stroke="#444" stroke-linecap="round" stroke-linejoin="round" stroke-miterlimit="10" stroke-width="2.5" d="M39.6 47.5H11.1V1.7h28.7v37.4"/><path fill="none" stroke="#444" stroke-linecap="round" stroke-linejoin="round" stroke-miterlimit="10" stroke-width="2" d="M11 39.3h28.9"/><path fill="none" stroke="#444" stroke-linecap="round" stroke-linejoin="round" stroke-miterlimit="10" d="M22.9 43.4H28"/></svg>