<svg xmlns="http://www.w3.org/2000/svg" id="Layer_1" x="0" y="0" version="1.1" viewBox="0 0 50 50" xml:space="preserve"><style>.st1{fill:#afe55d}</style><path fill="#c3ff68" d="M33.1 1.6H17.3c-4.4 0-7.9 3.5-7.9 7.9 0 3.6 2.4 6.6 5.7 7.6l10.1-3.7 15.6-5.7c-.9-3.5-4-6.1-7.7-6.1z"/><path d="M33.1 17.4c-4.4 0-7.9 3.5-7.9 7.9 0 1.4.4 2.7 1 3.8l14.7-5.3c-.8-3.6-4-6.4-7.8-6.4z" class="st1"/><path d="M25.2 17.4h7.9c4.4 0 7.9-3.5 7.9-7.9 0-.6-.1-1.2-.2-1.8l-15.6 5.7L15 17.1c.7.2 1.5.3 2.2.3-4.4 0-7.9 3.5-7.9 7.9 0 3.7 2.6 6.9 6.1 7.7l9.7-3.5V17.4z" class="st1"/><path fill="#444" d="M37.5 17.2c2.7-1.6 4.5-4.5 4.5-7.8 0-5-4.1-9-9-9H17.2c-5 0-9.2 4.1-9.2 9 0 3.3 1.8 6.2 4.5 7.8C9.8 18.8 8 21.7 8 25c0 3.4 1.9 6.3 4.7 7.9-2.6 1.6-4.3 4.5-4.3 7.7 0 5 4.1 9 9 9 5 0 9-4.1 9-9v-9.4c1.6 1.7 4 2.8 6.5 2.8 5 0 9-4.1 9-9 .1-3.3-1.7-6.2-4.4-7.8zM17.4 2.9h6.4V16h-6.4c-3.6 0-6.5-2.9-6.5-6.5s2.9-6.6 6.5-6.6zm-.1 28.6c-3.6 0-6.5-2.9-6.5-6.5s2.9-6.5 6.5-6.5h6.4v13.1h-6.4zm.1 15.6c-3.6 0-6.5-2.9-6.5-6.5s2.9-6.5 6.5-6.5h6.5v6.5c0 3.6-2.9 6.5-6.5 6.5zM26.3 16V2.9H33c3.6 0 6.5 2.9 6.5 6.5S36.6 16 33 16h-6.7zm.4 2.5l-.3.3v-.3h.3zm6.3 13c-3.6 0-6.5-2.9-6.5-6.5s2.9-6.5 6.5-6.5 6.5 2.9 6.5 6.5-2.9 6.5-6.5 6.5z"/></svg>