<?xml version="1.0" encoding="utf-8"?>
<!-- Generator: Adobe Illustrator 28.0.0, SVG Export Plug-In . SVG Version: 6.00 Build 0)  -->
<svg version="1.1" id="Layer_1" xmlns="http://www.w3.org/2000/svg" xmlns:xlink="http://www.w3.org/1999/xlink" x="0px" y="0px"
	 viewBox="0 0 50 50" style="enable-background:new 0 0 50 50;" xml:space="preserve">
<style type="text/css">
	.st0{fill:#E589EF;}
	.st1{fill:none;stroke:#444444;stroke-width:2.5;stroke-linecap:round;stroke-linejoin:round;stroke-miterlimit:10;}
	.st2{fill:none;stroke:#444444;stroke-linecap:round;stroke-linejoin:round;stroke-miterlimit:10;}
	.st3{fill:none;stroke:#444444;stroke-width:0.5;stroke-linecap:round;stroke-linejoin:round;stroke-miterlimit:10;}
</style>
<path class="st0" d="M7.3,7.7l0,28.4c-3.2,0.7-6,0.4-5.9,0.7l0.2,5.5C3,43.1,7,43,7.4,43.5l-0.2,4.6c0,0.9,5.1,0.4,6.3,0.2
	c-0.1-4.2-0.3-4-0.2-5.6l13.4-4.9l7.7-2.8l8.5-3.1l-0.1-18.2c0-2.1,5,1,5.5-1.4l0.2-5.3l-5.3-0.4L42,1.3c-0.6,0-2.9-0.1-5.3,0.9
	c-0.8,0.4,0.5,3.6,0.3,4.6"/>
<g>
	<path class="st1" d="M34.7,42.5H13.3v5.8H7.5v-5.8c0,0-5.9,0-5.9,0c0-0.6,0-5.8,0-5.8h5.9V7.5h29.2V1.6h5.8v5.6h5.9v6.1h-5.9v19"/>
	<polyline class="st2" points="13.4,37.5 37.4,37.5 37.4,13.2 13.4,13.2 13.4,37.4 	"/>
	<line class="st2" x1="14.3" y1="37.5" x2="7.1" y2="37.5"/>
	<line class="st2" x1="37.4" y1="13.9" x2="37.4" y2="6.7"/>
	<line class="st2" x1="14.5" y1="41.8" x2="5.7" y2="41.8"/>
	<line class="st2" x1="41.8" y1="15" x2="41.8" y2="6.3"/>
	<circle class="st3" cx="22.1" cy="22.1" r="2.9"/>
	<path class="st3" d="M13.4,30.7h11c0.4,0,0.8-0.2,1.1-0.5l4.6-4.7c0.3-0.3,0.9-0.3,1.2,0l6.1,6"/>
</g>
</svg>
