<svg xmlns="http://www.w3.org/2000/svg" id="Layer_1" x="0" y="0" version="1.1" viewBox="0 0 50 50" xml:space="preserve"><style>.st2{fill:#031326}</style><path fill="#7ed0d6" d="M44.5 2H6C4.2 2 2.7 3.4 2.7 5.2V20L47.3 3.7c-.5-1-1.6-1.7-2.8-1.7z"/><path fill="#71bac0" d="M47.7 5.2c0-.5-.1-1.1-.4-1.5L2.7 20v23.8c0 1 .4 1.9 1.1 2.4l43.9-16v-25z"/><path d="M44.2 48.7H5.8c-2.5 0-4.5-2-4.5-4.5V5.8c0-2.5 2-4.5 4.5-4.5h38.5c2.5 0 4.5 2 4.5 4.5v25.8c0 .7-.6 1.2-1.2 1.2s-1.2-.6-1.2-1.2V5.8c0-1.1-.9-2-2-2H5.8c-1.1 0-2 .9-2 2v38.5c0 1.1.9 2 2 2h38.5c.7 0 1.2.6 1.2 1.2s-.6 1.2-1.3 1.2z" class="st2"/><path d="M35.1 40.4c-3.6 0-6.6-3-6.6-6.6s3-6.6 6.6-6.6 6.6 3 6.6 6.6-2.9 6.6-6.6 6.6zm0-11.8c-2.8 0-5.1 2.3-5.1 5.1s2.3 5.1 5.1 5.1 5.1-2.3 5.1-5.1-2.2-5.1-5.1-5.1zM21.3 39.4H9.6c-.5 0-.7-.5-.5-.9L15 28.4c.2-.4.8-.4 1 0l5.9 10.1c.2.4-.1.9-.6.9zm-2-16.5h-8.8c-.9 0-1.6-.7-1.6-1.6v-8.8c0-.9.7-1.6 1.6-1.6h8.8c.9 0 1.6.7 1.6 1.6v8.8c0 .9-.7 1.6-1.6 1.6zm-8.8-10.6c-.1 0-.1.1-.1.1v8.8c0 .1.1.1.1.1h8.8c.1 0 .1-.1.1-.1v-8.8c0-.1-.1-.1-.1-.1h-8.8zm29.2 8.3l-4.4 2.6c-.4.2-.9.2-1.4 0l-4.4-2.6c-.4-.2-.7-.7-.7-1.2v-5.1c0-.5.3-.9.7-1.2l4.4-2.6c.4-.2.9-.2 1.4 0l4.4 2.6c.4.2.7.7.7 1.2v5.1c0 .5-.3 1-.7 1.2z" class="st2"/></svg>