<?xml version="1.0" encoding="utf-8"?>
<!-- Generator: Adobe Illustrator 27.7.0, SVG Export Plug-In . SVG Version: 6.00 Build 0)  -->
<svg version="1.1" id="Layer_1" xmlns="http://www.w3.org/2000/svg" xmlns:xlink="http://www.w3.org/1999/xlink" x="0px" y="0px"
	 viewBox="0 0 50 50" style="enable-background:new 0 0 50 50;" xml:space="preserve">
<style type="text/css">
	.st0{fill:#00DFFC;}
	.st1{fill:none;stroke:#444444;stroke-width:2.5;stroke-linecap:round;stroke-linejoin:round;stroke-miterlimit:10;}
	.st2{fill:none;stroke:#444444;stroke-miterlimit:10;}
	.st3{fill:none;stroke:#444444;stroke-width:0.5;stroke-linecap:round;stroke-linejoin:round;stroke-miterlimit:10;}
</style>
<g>
	<g>
		<path class="st0" d="M38.1,2.4L15.6,2.6c-1.4,0-7.7,6-7.7,7.4l0,11.4l-0.4,8.3l-0.2,5.9c0.4,0.5,0.3,11.6,1,11.6l5.4,0.1L41,37.6
			c0.3-2.7-0.2-6.4,0.2-9.5l-0.7-6.2l0.3-10.5l-0.9-4.1C39.9,6,39.5,2.4,38.1,2.4z"/>
		<path class="st1" d="M30,48.1H9.9c-1.1,0-2-0.9-2-2v-9.8V21.7V10l8.4-7.4h22.2c1.1,0,2,0.9,2,2v17.3v14.6v4.8"/>
		<path class="st2" d="M7.5,9.9h7.4c0.7,0,1.3-0.6,1.3-1.3v-6"/>
	</g>
	<g>
		<circle class="st2" cx="29.4" cy="28.1" r="5"/>
		<path class="st2" d="M24.2,12.9L19,12.8c-2.8,0-5,2.3-5,5s2.3,5,5,5h5.3C24.3,22.8,24.1,12.6,24.2,12.9"/>
		<path class="st2" d="M24.1,22.8H19c-2.8,0-5,2.3-5,5s2.3,5,5,5h5.1c0,0,0.2-10.1,0.2-10"/>
		<path class="st2" d="M24.1,33l-4.9,0c-2.6,0-5,1.9-5.2,4.5c-0.3,3,2.1,5.5,5,5.5c0,0,0.1,0,0.3,0c2.8-0.2,4.9-2.5,4.9-5.3V12.9
			c0.2-0.2,0,10,0,10l5.1,0c2.6,0,5-1.9,5.2-4.5c0.3-3-2.1-5.5-5-5.5l-5.2,0.1"/>
	</g>
	<line class="st3" x1="36.1" y1="6.8" x2="28.1" y2="6.8"/>
	<line class="st3" x1="36.1" y1="8.7" x2="28.1" y2="8.7"/>
</g>
</svg>
