<?xml version="1.0" encoding="UTF-8"?>
<svg id="Camada_3" xmlns="http://www.w3.org/2000/svg" version="1.1" viewBox="0 0 50 50">
  <!-- Generator: Adobe Illustrator 29.0.1, SVG Export Plug-In . SVG Version: 2.1.0 Build 192)  -->
  <defs>
    <style>
      .st0 {
        stroke-width: 2.5px;
      }

      .st0, .st1, .st2 {
        fill: none;
        stroke: #444;
      }

      .st0, .st2 {
        stroke-linecap: round;
        stroke-linejoin: round;
      }

      .st1 {
        stroke-miterlimit: 10;
      }

      .st3 {
        fill: #fc9d9a;
      }

      .st2 {
        stroke-width: .5px;
      }
    </style>
  </defs>
  <path class="st3" d="M39.5,2.2l-22.5.2c-1.4,0-7.7,6-7.7,7.4v11.4l-.4,8.3-.2,5.9c.4.5.3,11.6,1,11.6h5.4c0,0,27.3-9.6,27.3-9.6.3-2.7-.2-6.4.2-9.5l-.7-6.2.3-10.5-.9-4.1c0-1.3-.4-4.9-1.8-4.9Z"/>
  <path class="st0" d="M31.4,47.8H11.3c-1.1,0-2-.9-2-2V9.8l8.4-7.4h22.2c1.1,0,2,.9,2,2v36.7"/>
  <path class="st1" d="M8.9,9.7h7.4c.7,0,1.3-.6,1.3-1.3V2.3"/>
  <circle class="st1" cx="30.8" cy="27.8" r="5"/>
  <path class="st1" d="M25.6,12.7h-5.2c-2.8-.1-5,2.2-5,4.9s2.3,5,5,5h5.3s-.2-10.2-.1-9.9"/>
  <path class="st1" d="M25.5,22.6h-5.1c-2.8,0-5,2.3-5,5s2.3,5,5,5h5.1s.2-10.1.2-10"/>
  <path class="st1" d="M25.5,32.8h-4.9c-2.6,0-5,1.9-5.2,4.5-.3,3,2.1,5.5,5,5.5h.3c2.8-.2,4.9-2.5,4.9-5.3V12.7c.2-.2,0,10,0,10h5.1c2.6,0,5-1.9,5.2-4.5.3-3-2.1-5.5-5-5.5h-5.2"/>
  <path class="st2" d="M37.5,6.6h-8M37.5,8.5h-8"/>
</svg>