<svg xmlns="http://www.w3.org/2000/svg" id="Camada_3" version="1.1" viewBox="0 0 50 50"><defs><style>.st1{fill:none;stroke:#444;stroke-miterlimit:10}</style></defs><path fill="#fc9d9a" d="M39.5 2.2L17 2.4c-1.4 0-7.7 6-7.7 7.4v11.4l-.4 8.3-.2 5.9c.4.5.3 11.6 1 11.6h5.4l27.3-9.6c.3-2.7-.2-6.4.2-9.5l-.7-6.2.3-10.5-.9-4.1c0-1.3-.4-4.9-1.8-4.9z"/><path fill="none" stroke="#444" stroke-linecap="round" stroke-linejoin="round" stroke-width="2.5" d="M31.4 47.8H11.3c-1.1 0-2-.9-2-2v-36l8.4-7.4h22.2c1.1 0 2 .9 2 2v36.7"/><path d="M8.9 9.7h7.4c.7 0 1.3-.6 1.3-1.3V2.3" class="st1"/><circle cx="30.8" cy="27.8" r="5" class="st1"/><path d="M25.6 12.7h-5.2c-2.8-.1-5 2.2-5 4.9s2.3 5 5 5h5.3s-.2-10.2-.1-9.9" class="st1"/><path d="M25.5 22.6h-5.1c-2.8 0-5 2.3-5 5s2.3 5 5 5h5.1s.2-10.1.2-10" class="st1"/><path d="M25.5 32.8h-4.9c-2.6 0-5 1.9-5.2 4.5-.3 3 2.1 5.5 5 5.5h.3c2.8-.2 4.9-2.5 4.9-5.3V12.7c.2-.2 0 10 0 10h5.1c2.6 0 5-1.9 5.2-4.5.3-3-2.1-5.5-5-5.5h-5.2" class="st1"/><path fill="none" stroke="#444" stroke-linecap="round" stroke-linejoin="round" stroke-width=".5" d="M37.5 6.6h-8m8 1.9h-8"/></svg>