<?xml version="1.0" encoding="utf-8"?>
<!-- Generator: Adobe Illustrator 24.0.3, SVG Export Plug-In . SVG Version: 6.00 Build 0)  -->
<svg version="1.1" id="Layer_1" xmlns="http://www.w3.org/2000/svg" xmlns:xlink="http://www.w3.org/1999/xlink" x="0px" y="0px"
	 viewBox="0 0 50 50" style="enable-background:new 0 0 50 50;" xml:space="preserve">
<style type="text/css">
	.st0{fill:#A475EF;}
	.st1{fill:#BF94F7;}
	.st2{fill:#444444;}
	.st3{fill:none;stroke:#444444;stroke-width:2.5;stroke-linecap:round;stroke-linejoin:round;stroke-miterlimit:10;}
	.st4{fill:none;stroke:#444444;stroke-width:2;stroke-linecap:round;stroke-linejoin:round;stroke-miterlimit:10;}
	.st5{fill:none;stroke:#444444;stroke-linecap:round;stroke-linejoin:round;stroke-miterlimit:10;}
</style>
<polygon class="st0" points="39.2,23 39.7,27.7 10.5,38.3 10.6,29.2 10.9,24 39.8,13.5 39.2,16.7 "/>
<polygon class="st1" points="39.4,3.3 40,13.9 10.3,24.6 10.3,14.8 10.7,10.3 36,1.1 "/>
<path class="st2" d="M32.8,16.5c1.5-0.9,2.6-2.6,2.6-4.5c0-2.9-2.3-5.2-5.2-5.2h-3.8h-5.1h-0.1c-2.9,0-5.3,2.3-5.3,5.2
	c0,1.9,1,3.6,2.6,4.5c-1.5,0.9-2.6,2.6-2.6,4.5c0,1.9,1.1,3.6,2.7,4.5c-1.5,0.9-2.5,2.6-2.5,4.4c0,2.9,2.3,5.2,5.2,5.2
	c2.9,0,5.2-2.3,5.2-5.2v-5.4c0.9,1,2.3,1.6,3.7,1.6c2.9,0,5.2-2.3,5.2-5.2C35.4,19.1,34.4,17.5,32.8,16.5z M21.3,8.3H25v7.5h-3.7
	c-2.1,0-3.7-1.7-3.7-3.7S19.2,8.3,21.3,8.3z M21.3,24.7c-2.1,0-3.7-1.7-3.7-3.7s1.7-3.7,3.7-3.7h3.7v7.5L21.3,24.7L21.3,24.7z
	 M21.3,33.7c-2.1,0-3.7-1.7-3.7-3.7s1.7-3.7,3.7-3.7l0,0H25v3.7C25,32,23.4,33.7,21.3,33.7z M26.4,15.8V8.3h3.8
	c2.1,0,3.7,1.7,3.7,3.7s-1.7,3.8-3.7,3.8H26.4z M26.6,17.3c-0.1,0.1-0.1,0.1-0.2,0.2v-0.2H26.6z M30.2,24.7c-2.1,0-3.7-1.7-3.7-3.7
	s1.7-3.7,3.7-3.7S34,18.9,34,21S32.3,24.7,30.2,24.7z"/>
<g>
	<polyline class="st3" points="39.6,47.5 11.1,47.5 11.1,1.7 39.8,1.7 39.8,39.1 	"/>
</g>
<line class="st4" x1="11" y1="39.3" x2="39.9" y2="39.3"/>
<line class="st5" x1="22.9" y1="43.4" x2="28" y2="43.4"/>
</svg>
