<svg xmlns="http://www.w3.org/2000/svg" id="Layer_1" x="0" y="0" version="1.1" viewBox="0 0 50 50" xml:space="preserve"><style>.st3{fill:none;stroke:#444;stroke-linecap:round;stroke-linejoin:round;stroke-miterlimit:10;stroke-width:.5}</style><path fill="#e589ef" d="M7.3 7.7v28.4c-3.2.7-6 .4-5.9.7l.2 5.5c1.4.8 5.4.7 5.8 1.2l-.2 4.6c0 .9 5.1.4 6.3.2-.1-4.2-.3-4-.2-5.6l13.4-4.9 7.7-2.8 8.5-3.1-.1-18.2c0-2.1 5 1 5.5-1.4l.2-5.3-5.3-.4L42 1.3c-.6 0-2.9-.1-5.3.9-.8.4.5 3.6.3 4.6"/><path fill="none" stroke="#444" stroke-linecap="round" stroke-linejoin="round" stroke-miterlimit="10" stroke-width="2.5" d="M34.7 42.5H13.3v5.8H7.5v-5.8H1.6v-5.8h5.9V7.5h29.2V1.6h5.8v5.6h5.9v6.1h-5.9v19"/><path fill="none" stroke="#444" stroke-linecap="round" stroke-linejoin="round" stroke-miterlimit="10" d="M13.4 37.5h24V13.2h-24v24.2m.9.1H7.1m30.3-23.6V6.7M14.5 41.8H5.7M41.8 15V6.3"/><circle cx="22.1" cy="22.1" r="2.9" class="st3"/><path d="M13.4 30.7h11c.4 0 .8-.2 1.1-.5l4.6-4.7c.3-.3.9-.3 1.2 0l6.1 6" class="st3"/></svg>