<?xml version="1.0" encoding="utf-8"?>
<!-- Generator: Adobe Illustrator 28.0.0, SVG Export Plug-In . SVG Version: 6.00 Build 0)  -->
<svg version="1.1" id="Layer_1" xmlns="http://www.w3.org/2000/svg" xmlns:xlink="http://www.w3.org/1999/xlink" x="0px" y="0px"
	 viewBox="0 0 50 50" style="enable-background:new 0 0 50 50;" xml:space="preserve">
<style type="text/css">
	.st0{fill:#00DFFC;}
	.st1{fill:none;stroke:#444444;stroke-width:2.5;stroke-linecap:round;stroke-linejoin:round;stroke-miterlimit:10;}
	.st2{fill:none;stroke:#444444;stroke-miterlimit:10;}
	.st3{fill:none;stroke:#444444;stroke-width:0.5;stroke-linecap:round;stroke-linejoin:round;stroke-miterlimit:10;}
</style>
<g>
	<path class="st0" d="M38.8,2.2L16.3,2.4c-1.4,0-7.7,6-7.7,7.4v11.4l-0.4,8.3L8,35.4C8.4,35.9,8.3,47,9,47l5.4,0.1l27.3-9.7
		c0.3-2.7-0.2-6.4,0.2-9.5l-0.7-6.2l0.3-10.5l-0.9-4.1C40.6,5.8,40.2,2.2,38.8,2.2z"/>
	<path class="st1" d="M30.6,47.8H10.5c-1.1,0-2-0.9-2-2V9.7l8.4-7.4h22.2c1.1,0,2,0.9,2,2V41"/>
	<path class="st2" d="M8.1,9.6h7.4c0.7,0,1.3-0.6,1.3-1.3v-6"/>
	<g>
		<circle class="st2" cx="30.1" cy="27.6" r="5.1"/>
		<path class="st2" d="M24.9,12.5h-5.3c-2.8,0-5,2.3-5,5s2.3,5,5,5h5.2C24.8,22.5,24.8,12.8,24.9,12.5"/>
		<path class="st2" d="M24.7,22.5h-5.1c-2.8,0-5,2.3-5,5s2.3,5,5,5h5.2c0,0,0-9.3,0-10"/>
		<path class="st2" d="M24.7,32.7h-4.9c-2.6,0-5,1.9-5.2,4.5c-0.3,3,2.1,5.5,5,5.5h0.3c2.8-0.2,4.9-2.5,4.9-5.3V12.5
			c0,0.8,0,10,0,10h5.1c2.6,0,5-1.8,5.2-4.4c0.3-3-2.1-5.6-5-5.6h-5.3"/>
	</g>
	<path class="st3" d="M36.7,6.5h-8 M36.7,8.4h-8"/>
</g>
</svg>
