<?xml version="1.0" encoding="utf-8"?>
<!-- Generator: Adobe Illustrator 22.0.1, SVG Export Plug-In . SVG Version: 6.00 Build 0)  -->
<svg version="1.1" id="Layer_1" xmlns="http://www.w3.org/2000/svg" xmlns:xlink="http://www.w3.org/1999/xlink" x="0px" y="0px"
	 viewBox="0 0 50 50" style="enable-background:new 0 0 50 50;" xml:space="preserve">
<style type="text/css">
	.st0{fill:#70C6DF;}
	.st1{fill:#7DDDFA;}
	.st2{fill:#464646;}
</style>
<g>
	<g>
		<polygon class="st0" points="43.1,12.5 4.4,26.6 6.9,42.2 45.6,28.1 		"/>
	</g>
	<g>
		<path class="st1" d="M44,12.3c-0.1-0.5-0.6-0.9-1.1-0.8l-26.5,4.2l25.9-7.7c0.5-0.2,0.8-0.7,0.6-1.2l-0.5-1.9
			c-0.5-1.6-2-2.6-3.5-2.6c-0.3,0-0.7,0-1,0.1L4.9,11.6c-1,0.3-1.8,0.9-2.2,1.8c-0.5,0.8-0.6,1.8-0.3,2.7L3,18.6c0,0,0,0.1,0,0.1
			c0,0,0,0,0,0l1.4,8.5l39.6-14.4L44,12.3z"/>
	</g>
	<g>
		<path class="st2" d="M11,48.8c-2.4,0-4.4-1.7-4.8-4L2,18.8c0,0,0,0,0-0.1l-0.6-2.4c-0.3-1.1-0.2-2.5,0.4-3.6
			c0.6-1.1,1.7-2,2.9-2.3l32.1-9c0.4-0.1,0.9-0.2,1.3-0.2c2.2,0,4.1,1.4,4.7,3.4l0.5,1.8c0.3,1.2-0.3,2.4-1.5,2.7l-7.5,2.2l7.6-1.2
			c1.2-0.2,2.3,0.6,2.5,1.8l4.2,26c0.2,1.2-0.1,2.5-0.8,3.5c-0.8,1-1.9,1.7-3.2,1.9l-32.9,5.1C11.6,48.7,11.3,48.8,11,48.8z
			 M38.2,3.7c-0.2,0-0.4,0-0.7,0.1l-32.1,9C4.8,13,4.3,13.4,4,14c-0.3,0.5-0.4,1.1-0.2,1.7l0.7,2.6l0,0.1l4.2,25.9
			c0.2,1.2,1.4,2.1,2.7,1.9l32.9-5.1c0.6-0.1,1.2-0.4,1.5-0.9c0.3-0.5,0.5-1.1,0.4-1.7L42,12.8l-25.6,4l-0.6-2.4l25-7.5l-0.4-1.5
			C40.2,4.4,39.3,3.7,38.2,3.7z"/>
	</g>
	<g>
		<g>
			<polygon class="st2" points="26.4,8 29.3,9.3 25.5,10.5 22.5,9.2 			"/>
		</g>
		<g>
			<polygon class="st2" points="33.8,5.8 36.6,7.1 32.8,8.2 29.9,6.9 			"/>
		</g>
		<g>
			<polygon class="st2" points="18.6,10.3 21.6,11.6 17.8,12.7 14.7,11.3 			"/>
		</g>
		<g>
			<path class="st2" d="M10.8,12.5l3.2,1.4L10.2,15l-3.1-1.4c0.2-0.2,0.3-0.3,0.6-0.3L10.8,12.5z"/>
		</g>
	</g>
	<g>
		<path class="st2" d="M44.4,37.5L40.5,14l0,0l-2.9,3.4h0l-5.1,0.8l2.9-3.4l-5.1,0.8l-3,3.4l-5.1,0.8l2.9-3.4l-5.1,0.8l-3,3.4
			l-5.1,0.8l3-3.4l-5.1,0.8l-2.9,3.2l3.4,20.7c0.1,0.8,0.8,1.3,1.6,1.3c0.1,0,0.2,0,0.3,0c0,0,0,0,0,0l6.7-1L43,39.2
			c0.4-0.1,0.8-0.3,1.1-0.6C44.3,38.2,44.4,37.9,44.4,37.5z M42.3,37.3c-0.1,0.2-0.3,0.3-0.6,0.4L13,42.2c0,0-0.1,0-0.1,0
			c-0.4,0-0.8-0.3-0.9-0.7L9.2,24.5c0-0.2,0-0.5,0.2-0.7c0.1-0.2,0.3-0.3,0.6-0.4L38.7,19c0.5-0.1,0.9,0.2,1,0.7l2.8,16.9
			C42.5,36.9,42.4,37.1,42.3,37.3z"/>
	</g>
	<g>
		<g>
			<path class="st2" d="M30.1,37c1.5-0.9,2.7-2.3,3.3-3.9h-5.6L30.1,37z"/>
		</g>
		<g>
			<path class="st2" d="M33.9,30.4c0-1.8-0.6-3.5-1.7-4.8l-2.8,4.8H33.9z"/>
		</g>
		<g>
			<path class="st2" d="M22.4,37c1.1,0.6,2.4,1,3.8,1c0.4,0,0.8,0,1.2-0.1l-2.8-4.8L22.4,37z"/>
		</g>
		<g>
			<path class="st2" d="M18.6,30.4c0,1.8,0.6,3.5,1.7,4.8l2.8-4.8H18.6z"/>
		</g>
		<g>
			<path class="st2" d="M22.4,23.8c-1.5,0.9-2.7,2.3-3.3,3.9h5.6L22.4,23.8z"/>
		</g>
		<g>
			<path class="st2" d="M30.1,23.8c-1.1-0.6-2.4-1-3.8-1V25l1.6,2.7L30.1,23.8z"/>
		</g>
	</g>
</g>
</svg>
