<?xml version="1.0" encoding="UTF-8"?>
<svg xmlns="http://www.w3.org/2000/svg" version="1.1" viewBox="0 0 50 50">
  <defs>
    <style>
      .cls-1, .cls-2 {
        fill: none;
        stroke: #444;
        stroke-linecap: round;
        stroke-linejoin: round;
      }

      .cls-3 {
        fill: #444;
      }

      .cls-4 {
        fill: #e589ef;
      }

      .cls-2 {
        stroke-width: 2px;
      }
    </style>
  </defs>
  <!-- Generator: Adobe Illustrator 28.6.0, SVG Export Plug-In . SVG Version: 1.2.0 Build 709)  -->
  <g>
    <g id="Camada_3">
      <path class="cls-4" d="M46.5,20.7c-.4-.7-6.4-4.1-7-4.7l-4.2-5.6-6.1-2.8-9,1.1-5.3,4.3c-3.2,0-7.8.1-8.6,3.9l-1.7,6-3.4,6.8,2.4,5.9c.1.4,6.1,2.1,6.4,2.4l6.1.7,32.2-11.7c.7-.4.6-2.3-1.9-6.2Z"/>
      <path class="cls-2" d="M35.8,37.6l-27,.3s-6.9-1.4-7.5-7.1,3.3-8,3.3-8c0,0-.6-9.9,10.2-9.9,2.9-4,5.2-5,12.8-5.2s11.5,6.9,12,8.8c1.6.8,8.9,2.3,8.8,10.4,0,0,0,3.8-2.5,6.7"/>
      <path class="cls-1" d="M30.5,31.6l-1.6-1.3-2.1.8-.2,2h-1.9c0,.1-.5-1.8-.5-1.8l-2.2-.6-1.4,1.5-1.6-1,.8-1.9-1.4-1.7-2,.4-.7-1.7,1.7-1.1v-2.3c-.1,0-2-.9-2-.9l.5-1.8h2c.5-.7.7-.9,1.2-1.8l-1-1.8,1.4-1.2,1.6,1.3,2.1-.8.2-2h1.9c0-.1.5,1.8.5,1.8l2.2.6,1.4-1.5,1.6,1-.8,1.9,1.4,1.7,2-.4.7,1.7-1.7,1.1v2.3c.1,0,2,.9,2,.9l-.5,1.8h-2c-.5.7-.7.9-1.2,1.8l1,1.8-1.4,1.2Z"/>
      <path class="cls-3" d="M24.5,28.1v-1.3c-.8,0-1.5-.2-2-.6l.3-.9c.5.3,1.1.6,1.9.6s1.5-.5,1.5-1.3-.5-1.2-1.5-1.5c-1.3-.5-2.1-1.1-2.1-2.2s.8-1.9,2-2.1v-1.3h.8v1.3c.8,0,1.3.2,1.7.5l-.3.9c-.3-.2-.8-.4-1.6-.4s-1.4.6-1.4,1.1.5,1,1.6,1.5c1.3.5,2,1.2,2,2.4s-.7,2-2.1,2.2v1.4h-.8Z"/>
    </g>
  </g>
</svg>