<?xml version="1.0" encoding="utf-8"?>
<!-- Generator: Adobe Illustrator 28.0.0, SVG Export Plug-In . SVG Version: 6.00 Build 0)  -->
<svg version="1.1" id="Layer_1" xmlns="http://www.w3.org/2000/svg" xmlns:xlink="http://www.w3.org/1999/xlink" x="0px" y="0px"
	 viewBox="0 0 50 50" style="enable-background:new 0 0 50 50;" xml:space="preserve">
<style type="text/css">
	.st0{fill:#8256D8;}
	.st1{fill:#FCC34F;}
	.st2{fill:none;stroke:#444444;stroke-width:2.5;stroke-linecap:round;stroke-linejoin:round;stroke-miterlimit:10;}
	.st3{fill:#A475EF;}
	.st4{fill:none;stroke:#444444;stroke-linecap:round;stroke-linejoin:round;stroke-miterlimit:10;}
	.st5{fill:none;stroke:#444444;stroke-width:0.5;stroke-linecap:round;stroke-linejoin:round;stroke-miterlimit:10;}
</style>
<polygon class="st0" points="28,18.7 35.8,21.1 29.1,25.9 29.3,34.1 22.7,29.2 14.9,31.8 17.5,24 12.6,17.5 20.8,17.6 25.6,10.9 "/>
<path class="st1" d="M48,20.1c-0.2-0.8-2.7-7.5-3.2-8.1l-3-3.5l-0.2,0.1L34,2.8l-7.8-0.7C23,2.1,11.7,2.4,4.8,12.3L0.8,22.9L0.6,23
	l4,13.4c0.1,0.4,4.5,5.7,4.9,5.9l5.6,3l32.2-11.7C47.9,33.1,49,24.9,48,20.1z"/>
<g>
	<g>
		<g>
			<path class="st2" d="M32.3,47.4c-7,2.3-15,1.2-21.3-3.6C0.6,36-1.5,21.3,6.3,11"/>
			<path class="st2" d="M6.2,11.2c2-3,4.7-4.7,4.7-4.7l0.7-0.5c8.1-5.7,19.2-5.8,27.6,0.4c10.4,7.8,12.4,22.5,4.7,32.8"/>
		</g>
	</g>
</g>
<g>
	<path class="st3" d="M48,20.1c-0.2-0.8-2.7-7.5-3.2-8.1l-3-3.5l-0.2,0.1L34,2.8l-7.8-0.7C23,2.1,11.7,2.4,4.8,12.3L0.8,22.9L0.6,23
		l4,13.4c0.1,0.4,4.5,5.7,4.9,5.9l5.6,3l32.2-11.7C47.9,33.1,49,24.9,48,20.1z"/>
	<g>
		<g>
			<g>
				<path class="st2" d="M32.3,47.4c-7,2.3-15,1.2-21.3-3.6C0.6,36-1.5,21.3,6.3,11"/>
				<path class="st2" d="M6.2,11.2c2-3,4.7-4.7,4.7-4.7l0.7-0.5c8.1-5.7,19.2-5.8,27.6,0.4c10.4,7.8,12.4,22.5,4.7,32.8"/>
			</g>
		</g>
	</g>
</g>
<g>
	<path class="st4" d="M18.3,34.4c-1.3,1.1-2.9,1.7-4.7,1.7c-4,0-7.3-3.3-7.3-7.3s3.3-7.3,7.3-7.3c1.8,0,3.4,0.6,4.7,1.7"/>
	<g>
		<line class="st5" x1="13.5" y1="24.9" x2="13.5" y2="25.8"/>
		<line class="st5" x1="13.5" y1="31.8" x2="13.5" y2="32.7"/>
		<path class="st5" d="M11.4,30.3L11.4,30.3c0,0.8,0.7,1.5,1.5,1.5h1.3c0.8,0,1.5-0.7,1.5-1.5l0,0c0-0.8-0.7-1.5-1.5-1.5h-0.6h-0.6
			c-0.8,0-1.5-0.7-1.5-1.5l0,0c0-0.8,0.7-1.5,1.5-1.5h1.3c0.6,0,1.1,0.4,1.4,0.9"/>
	</g>
</g>
<line class="st5" x1="15.6" y1="36" x2="15.6" y2="37.8"/>
<line class="st5" x1="15.6" y1="18.2" x2="15.6" y2="21.5"/>
<line class="st5" x1="21.6" y1="23.9" x2="21.6" y2="38"/>
<line class="st5" x1="27.6" y1="23.7" x2="27.6" y2="38"/>
<line class="st5" x1="33.7" y1="32.8" x2="33.7" y2="38"/>
<line class="st5" x1="39.7" y1="34.1" x2="39.7" y2="38"/>
<line class="st5" x1="14.3" y1="38" x2="41" y2="38"/>
<polyline class="st4" points="14.3,11.2 24.6,21.6 29.3,16.8 38.2,25.7 40.1,23.7 41,31.1 33.7,30.2 35.6,28.3 29.3,22 24.6,26.7 
	14.3,16.8 "/>
</svg>
