<svg xmlns="http://www.w3.org/2000/svg" id="Layer_1" x="0" y="0" version="1.1" viewBox="0 0 50 50" xml:space="preserve"><style>.st2{stroke-width:2.5}.st2,.st4{fill:none;stroke:#444;stroke-linecap:round;stroke-linejoin:round;stroke-miterlimit:10}</style><path fill="#8256d8" d="M28 18.7l7.8 2.4-6.7 4.8.2 8.2-6.6-4.9-7.8 2.6 2.6-7.8-4.9-6.5 8.2.1 4.8-6.7z"/><path fill="#fcc34f" d="M48 20.1c-.2-.8-2.7-7.5-3.2-8.1l-3-3.5-.2.1L34 2.8l-7.8-.7c-3.2 0-14.5.3-21.4 10.2l-4 10.6-.2.1 4 13.4c.1.4 4.5 5.7 4.9 5.9l5.6 3 32.2-11.7c.6-.5 1.7-8.7.7-13.5z"/><path d="M32.3 47.4c-7 2.3-15 1.2-21.3-3.6C.6 36-1.5 21.3 6.3 11" class="st2"/><path d="M6.2 11.2c2-3 4.7-4.7 4.7-4.7l.7-.5C19.7.3 30.8.2 39.2 6.4c10.4 7.8 12.4 22.5 4.7 32.8" class="st2"/><path fill="#a475ef" d="M48 20.1c-.2-.8-2.7-7.5-3.2-8.1l-3-3.5-.2.1L34 2.8l-7.8-.7c-3.2 0-14.5.3-21.4 10.2l-4 10.6-.2.1 4 13.4c.1.4 4.5 5.7 4.9 5.9l5.6 3 32.2-11.7c.6-.5 1.7-8.7.7-13.5z"/><path d="M32.3 47.4c-7 2.3-15 1.2-21.3-3.6C.6 36-1.5 21.3 6.3 11" class="st2"/><path d="M6.2 11.2c2-3 4.7-4.7 4.7-4.7l.7-.5C19.7.3 30.8.2 39.2 6.4c10.4 7.8 12.4 22.5 4.7 32.8" class="st2"/><path d="M18.3 34.4c-1.3 1.1-2.9 1.7-4.7 1.7-4 0-7.3-3.3-7.3-7.3s3.3-7.3 7.3-7.3c1.8 0 3.4.6 4.7 1.7" class="st4"/><path fill="none" stroke="#444" stroke-linecap="round" stroke-linejoin="round" stroke-miterlimit="10" stroke-width=".5" d="M13.5 24.9v.9m0 6v.9m-2.1-2.4c0 .8.7 1.5 1.5 1.5h1.3c.8 0 1.5-.7 1.5-1.5s-.7-1.5-1.5-1.5H13c-.8 0-1.5-.7-1.5-1.5s.7-1.5 1.5-1.5h1.3c.6 0 1.1.4 1.4.9m-.1 9.3v1.8m0-19.6v3.3m6 2.4V38m6-14.3V38m6.1-5.2V38m6-3.9V38m-25.4 0H41"/><path d="M14.3 11.2l10.3 10.4 4.7-4.8 8.9 8.9 1.9-2 .9 7.4-7.3-.9 1.9-1.9-6.3-6.3-4.7 4.7-10.3-9.9" class="st4"/></svg>