<?xml version="1.0" encoding="utf-8"?>
<!-- Generator: Adobe Illustrator 24.0.0, SVG Export Plug-In . SVG Version: 6.00 Build 0)  -->
<svg version="1.1" id="Layer_1" xmlns="http://www.w3.org/2000/svg" xmlns:xlink="http://www.w3.org/1999/xlink" x="0px" y="0px"
	 viewBox="0 0 50 50" style="enable-background:new 0 0 50 50;" xml:space="preserve">
<style type="text/css">
	.st0{fill:#FCC34F;}
	.st1{fill:#FDCF72;}
	.st2{fill:#444444;}
</style>
<g>
	<polygon class="st0" points="46.6,25 47,29.1 3,44.4 3,35.7 3.2,30.7 47,15.4 46.5,19 	"/>
</g>
<g>
	<polygon class="st1" points="46.8,9 46.4,16.4 3.4,31.3 3.2,21.9 3.4,17.6 46.8,2.6 	"/>
</g>
<g>
	<path class="st2" d="M10.5,49.8H3c-0.7,0-1.2-0.6-1.2-1.2V1.5c0-0.7,0.6-1.2,1.2-1.2h44c0.7,0,1.2,0.6,1.2,1.2V29
		c0,0.7-0.6,1.2-1.2,1.2s-1.2-0.6-1.2-1.2V2.7H4.3v44.6h6.3c0.7,0,1.2,0.6,1.2,1.2S11.2,49.8,10.5,49.8z"/>
</g>
<g>
	<g>
		<path class="st2" d="M38.4,37.1l-3.8-20.8c0-0.3-0.2-0.5-0.5-0.6c-0.3-0.1-0.5,0-0.8,0.2l-3.7,3.6l-3.2-6.4
			c-0.1-0.2-0.4-0.4-0.7-0.4c-0.3,0-0.5,0.1-0.7,0.4l-2.1,3.7l-4.9-8.3C18,8.2,17.7,8,17.4,8.1c-0.3,0-0.5,0.3-0.6,0.6l-5.2,28.4
			c0,0,0,0,0,0c0,0.1-0.1,0.2-0.1,0.4c0,0.2,0.2,0.4,0.4,0.5l12.5,7.3c0.1,0.1,0.2,0.1,0.4,0.1s0.3,0,0.4-0.1l12.8-7.6
			C38.3,37.7,38.5,37.4,38.4,37.1z M25.8,15l2.7,5.6l-2,2L24,18.3L25.8,15z M23.1,19.8l2.3,3.9l-10,9.8L23.1,19.8z M17.9,11l4.3,7.3
			L14,32.9L17.9,11z M24.9,43.9l-11.3-6.6l19.8-19.4l3.4,18.9L24.9,43.9z"/>
	</g>
</g>
</svg>
