<?xml version="1.0" encoding="utf-8"?>
<!-- Generator: Adobe Illustrator 28.0.0, SVG Export Plug-In . SVG Version: 6.00 Build 0)  -->
<svg version="1.1" id="Layer_1" xmlns="http://www.w3.org/2000/svg" xmlns:xlink="http://www.w3.org/1999/xlink" x="0px" y="0px"
	 viewBox="0 0 50 50" style="enable-background:new 0 0 50 50;" xml:space="preserve">
<style type="text/css">
	.st0{fill:#46B8B0;}
	.st1{fill:none;stroke:#444444;stroke-width:0.75;stroke-linecap:round;stroke-linejoin:round;stroke-miterlimit:10;}
	.st2{fill:none;stroke:#444444;stroke-width:2.5;stroke-linecap:round;stroke-linejoin:round;stroke-miterlimit:10;}
	.st3{fill:none;stroke:#444444;stroke-linecap:round;stroke-linejoin:round;stroke-miterlimit:10;}
</style>
<path class="st0" d="M46.3,29.1l0.1-5l-0.2-2.7c-4.2-0.1-7.5,0-7.6,0l-5.5-0.1c-1.7-0.1-2.7-0.2-3-0.6l0-8.7
	c-0.1-0.2,0.4-2.7,0.2-2.8l-0.2-2.2C30,7,29.2,5,29.1,4.8L18.6,5c-0.3-0.5-5.1,0-5.6,0L3.9,5.2c-0.4,0,0.3,4.3,0,4.6L3.8,16
	c-0.3,0.3-0.4,6.3-0.2,8.3l3.5,1.3C7,26,6.8,29.8,6.9,30l4.3-5.2c0,0.1,2.6,0.1,5.5-0.1L20,25l-0.3,5.5l-0.1,6.3c0,0,0,3,0,3
	c0.1,0.2,2.9,1.9,3.1,1.8L46.4,33c0.2-0.1,0.2-0.2,0.2-0.4L46.3,29.1L46.3,29.1z"/>
<g>
	<line class="st1" x1="16.5" y1="9.1" x2="16.5" y2="10.7"/>
	<line class="st1" x1="11.8" y1="10.8" x2="21.1" y2="10.8"/>
	<path class="st1" d="M19,10.9c0,0-0.6,5.7-7,9.2"/>
	<path class="st1" d="M14.9,14.3c0,0,1.8,3.6,5.7,5.6"/>
</g>
<g>
	<polyline class="st1" points="28.6,36.7 33.1,26.5 37.5,36.7 	"/>
	<line class="st1" x1="30" y1="33.7" x2="36.2" y2="33.7"/>
</g>
<path class="st2" d="M46.2,35.1V22.8c0-0.9-0.7-1.6-1.6-1.6H30V6.5c0-0.9-0.7-1.6-1.6-1.6H5.1c-0.9,0-1.6,0.7-1.6,1.6v16.9
	c0,0.9,0.7,1.6,1.6,1.6h2.1v5.1l4.2-5h8.5l-0.1,14.7c0,0.9,0.7,1.6,1.6,1.6h17l4.1,5.1v-3.1"/>
<path class="st3" d="M17.1,24.3h11c0.7,0,1.2-0.5,1.2-1.2v-5.9"/>
</svg>
