<?xml version="1.0" encoding="UTF-8"?>
<svg id="Camada_2" data-name="Camada 2" xmlns="http://www.w3.org/2000/svg" width="49.61" height="44.67" viewBox="0 0 49.61 44.67">
  <defs>
    <style>
      .cls-1, .cls-2, .cls-3, .cls-4 {
        fill: none;
      }

      .cls-1, .cls-2, .cls-3, .cls-4, .cls-5 {
        stroke-linecap: round;
        stroke-linejoin: round;
      }

      .cls-1, .cls-4, .cls-5 {
        stroke: #444;
      }

      .cls-2 {
        stroke-width: .25px;
      }

      .cls-2, .cls-3 {
        stroke: #454444;
      }

      .cls-3 {
        stroke-width: 2.5px;
      }

      .cls-4 {
        stroke-width: .5px;
      }

      .cls-5 {
        fill: #444;
      }

      .cls-6 {
        fill: #ff6b6b;
        stroke-width: 0px;
      }
    </style>
  </defs>
  <g id="_Ícones" data-name="Ícones">
    <g>
      <g>
        <g>
          <g>
            <path class="cls-6" d="m49.04,28.97l-.7-25.54-.35.13.15-.06c.33-.47-.4-.56-.07-1.02l-.48-.2c-.53-.54-1.83-.15-2.35-.69L3.16,1.36c-.52.53-.82.82-1.34,1.35l-.58,15.56c.65.46.2,1.19.53,1.72l-1.25.45,1.12,14.57,16.9,1.62-3.92,4.58,34.42-12.24Z"/>
            <path class="cls-3" d="m18.35,36H5.47c-2.33,0-4.22-1.89-4.22-4.22V5.47C1.25,3.14,3.14,1.25,5.47,1.25h38.67c2.33,0,4.22,1.89,4.22,4.22v25.27"/>
          </g>
          <line class="cls-3" x1="39.25" y1="36" x2="31.45" y2="36"/>
          <line class="cls-2" x1="1.77" y1="27.15" x2="47.13" y2="27.15"/>
          <polyline class="cls-3" points="18.04 39 18.04 36 31.92 36 31.92 39"/>
          <path class="cls-3" d="m18.04,39c-4.67,0-4.79,4.42-4.79,4.42h23.08s.84-4.42-4.41-4.42"/>
        </g>
        <g>
          <line class="cls-1" x1="21.65" y1="31.06" x2="4.04" y2="31.06"/>
          <line class="cls-1" x1="45.53" y1="31.06" x2="27.91" y2="31.06"/>
          <path class="cls-4" d="m22.7,31.06c0-1.16.94-2.09,2.09-2.09s2.09.94,2.09,2.09-.94,2.09-2.09,2.09c-1.15,0-2.09-.93-2.09-2.09Z"/>
        </g>
      </g>
      <g>
        <line class="cls-5" x1="8.12" y1="12.62" x2="11.17" y2="12.62"/>
        <polyline class="cls-1" points="9.48 12.43 9.48 7.36 25.3 7.36 25.3 23.39 9.48 23.39 9.48 18.96"/>
        <polyline class="cls-1" points="14.75 7.68 14.75 12.85 14.75 23.08"/>
        <line class="cls-1" x1="19.5" y1="12.74" x2="14.75" y2="12.74"/>
        <line class="cls-1" x1="22.56" y1="12.85" x2="25.3" y2="12.85"/>
        <polyline class="cls-1" points="25.2 17.8 19.08 17.8 19.08 23.39"/>
        <line class="cls-1" x1="11.17" y1="18.46" x2="8.12" y2="18.46"/>
        <line class="cls-4" x1="30.95" y1="5.03" x2="30.95" y2="25.5"/>
        <line class="cls-4" x1="34.65" y1="6.99" x2="39.59" y2="6.99"/>
        <line class="cls-4" x1="34.65" y1="10.57" x2="43.03" y2="10.57"/>
        <line class="cls-4" x1="34.65" y1="12.54" x2="40.75" y2="12.54"/>
        <line class="cls-4" x1="34.65" y1="14.35" x2="43.03" y2="14.35"/>
        <line class="cls-4" x1="34.65" y1="16.32" x2="40.75" y2="16.32"/>
        <line class="cls-4" x1="34.65" y1="18.31" x2="43.03" y2="18.31"/>
        <line class="cls-4" x1="34.65" y1="20.28" x2="40.75" y2="20.28"/>
        <line class="cls-4" x1="34.65" y1="22.09" x2="43.03" y2="22.09"/>
        <line class="cls-4" x1="34.65" y1="24.06" x2="40.75" y2="24.06"/>
      </g>
    </g>
  </g>
</svg>
