<svg xmlns="http://www.w3.org/2000/svg" id="Camada_1" data-name="Camada 1" version="1.1" viewBox="0 0 50 50"><defs><style>.cls-3,.cls-4{fill:none;stroke:#444}.cls-3{stroke-linecap:round;stroke-linejoin:round}.cls-4{stroke-width:.5px}.cls-3{stroke-width:2.5px}.cls-4{stroke-miterlimit:10}</style></defs><path fill="#319327" stroke-width="0" d="M26.6 22l7.8 2.4-6.7 4.7.1 8.2-6.6-4.9-7.7 2.7 2.6-7.8-4.9-6.6 8.2.1 4.7-6.7 2.5 7.9z"/><path fill="#5aba52" stroke-width="0" d="M30.5 2.7H9c-1.6 0-1.6 4.4-1.6 6l-.2 14.9-.6 11.7.7 13.4 1.3.9 25.6-9.1L34 32c1.8-.6 6 0 6-1.8h9.3c.5-.3 1.9-9.1 1.4-9.4l-4.9-3.3-4.3-4.4c-1.2-.4-7.3 2-7.3 1.8l-.6-9.4c0-1.6-1.6-2.9-3.2-2.9z"/><path d="M26.6 49.5H10.2c-2 0-3.6-1.6-3.6-3.6V6.1c0-2 1.6-3.6 3.6-3.6h20c2 0 3.6 1.6 3.6 3.6v9.1m-.1 28.2V31.2" class="cls-3"/><path d="M16.3 2.6h7.2c1.3 0 2.4 1.1 2.4 2.4v.9c0 .3-.3.6-.6.6H14.4c-.3 0-.6-.3-.6-.6V5c0-1.3 1.1-2.4 2.4-2.4z" class="cls-4" transform="rotate(180 19.9 4.6)"/><path fill="none" stroke="#444" stroke-linecap="round" stroke-linejoin="round" d="M45.3 17.2c-.3-2.5-2.5-4.4-5.2-4.4s-3.6 1.8-4.5 3.4h-1.3c-2.6 0-4.7.9-5.2 3.3-3.1.1-5.5 2.5-5.5 5.5s2.6 5.5 5.7 5.5 1.9-.2 2.8-.7c1 .7 2.3 1.2 3.7 1.2s3.2-.6 4.3-1.7c1.2.8 2.6 1.3 4.1 1.3 3.9 0 7-3 7-6.7s-2.6-6.1-6-6.6z"/><path d="M33.7 31.2c.7.3 1.4.4 2.2.4 1.7 0 3.2-.7 4.3-1.7 1.2.9 2.6 1.4 4.1 1.4 3.9 0 7-3.1 7-7s-2.6-6.4-6-6.9c-.3-2.6-2.5-4.6-5.2-4.6s-3.7 1.1-4.5 2.7c-.3 0-.7-.1-1.1-.1h-.9" class="cls-3"/><path fill="#444" stroke-width="0" d="M19.4 47l-.2-1.7c-.6-.1-1.1-.4-1.6-.7l-1.4 1-1.8-1.8 1-1.4c-.3-.5-.5-1.1-.7-1.6l-1.7-.2v-2.5l1.7-.2c.1-.6.4-1.1.7-1.6l-1-1.4 1.8-1.8 1.4 1c.5-.3 1.1-.5 1.6-.7l.2-1.7h2.5l.2 1.7c.6.1 1.1.4 1.6.7l1.4-1 1.8 1.8-1 1.4c.3.5.5 1.1.7 1.6l1.7.2v2.5l-1.7.2c-.1.6-.4 1.1-.7 1.6l1 1.4-1.8 1.8-1.4-1c-.5.3-1.1.5-1.6.7l-.2 1.7h-2.5zm2.4-2.3c.7-.1 1.3-.4 1.8-.8h.2c0-.1 1.3.9 1.3.9l1-1-1-1.3v-.2c.5-.6.7-1.2.9-1.8v-.2l1.7-.2v-1.5l-1.6-.2v-.2c-.2-.7-.4-1.3-.8-1.8v-.2c-.1 0 .9-1.3.9-1.3l-1-1-1.3 1h-.2c-.6-.5-1.2-.7-1.8-.9h-.2l-.2-1.7H20l-.2 1.6h-.2c-.6.2-1.3.4-1.8.8h-.2c0 .1-1.3-.9-1.3-.9l-1 1 1 1.3v.2c-.5.6-.7 1.2-.9 1.8v.2l-1.7.2V40l1.6.2v.2c.2.7.4 1.3.8 1.8v.2c.1 0-.9 1.3-.9 1.3l1 1 1.3-1h.2c.6.5 1.2.7 1.8.9h.2l.2 1.7h1.5l.2-1.6h.2z"/><circle cx="20.6" cy="39.3" r="4.3" fill="none" stroke="#444" stroke-linecap="round" stroke-linejoin="round" stroke-width=".5"/><path d="M32.7 31.7v-1.8" class="cls-4"/></svg>