<?xml version="1.0" encoding="utf-8"?>
<!-- Generator: Adobe Illustrator 22.1.0, SVG Export Plug-In . SVG Version: 6.00 Build 0)  -->
<svg version="1.1" id="Layer_1" xmlns="http://www.w3.org/2000/svg" xmlns:xlink="http://www.w3.org/1999/xlink" x="0px" y="0px"
	 viewBox="0 0 50 50" style="enable-background:new 0 0 50 50;" xml:space="preserve">
<style type="text/css">
	.st0{fill:#00C8E2;}
	.st1{fill:#00DFFC;}
	.st2{fill:#494949;}
</style>
<g>
	<g>
		<path class="st0" d="M42,8L7.7,20.5v22.3c0,0.6,0.1,1.2,0.3,1.8l34-12.4V8z"/>
	</g>
	<g>
		<path class="st1" d="M42,6.7c0-2.8-2.2-5-5-5H12.7c-2.8,0-5,2.2-5,5v13.8L42,8V6.7z"/>
	</g>
	<path class="st2" d="M42.2,34.6c0.7,0,1.2-0.6,1.2-1.2V6.9c0-3.4-2.8-6.2-6.2-6.2H12.8c-3.4,0-6.2,2.8-6.2,6.2v36.1
		c0,3.4,2.8,6.2,6.2,6.2h24.3c3.4,0,6.2-2.8,6.2-6.2c0-0.7-0.6-1.2-1.2-1.2s-1.2,0.6-1.2,1.2c0,2.1-1.7,3.8-3.8,3.8H12.8
		c-2.1,0-3.8-1.7-3.8-3.8V6.9c0-2.1,1.7-3.8,3.8-3.8h4.1c0.1,1.5,1.4,2.7,3,2.7h10.2c1.6,0,2.8-1.2,3-2.7h4.1c2.1,0,3.8,1.7,3.8,3.8
		v26.4C40.9,34,41.5,34.6,42.2,34.6z M30.1,4.4H19.9c-0.7,0-1.3-0.5-1.5-1.2h13.1C31.4,3.9,30.8,4.4,30.1,4.4z"/>
	<g>
		<g>
			<path class="st2" d="M26.6,23.9l-1.8,1.8c0,0,0,0,0,0l2.4,2.4c0,0,0,0.1,0.1,0.1l4.1-4.1l-0.1-0.1H26.6z"/>
		</g>
		<g>
			<path class="st2" d="M22.9,27.6l-1.3,1.3c0,0,0,0.1,0,0.1l2.4,2.4l2.4-2.4l-2.4-2.5L22.9,27.6z"/>
		</g>
		<g>
			<path class="st2" d="M26.9,14.2l-9.6,9.6l2.5,2.5L32.1,14h-4.6C27.3,14,27.1,14,26.9,14.2z"/>
		</g>
		<g>
			<path class="st2" d="M35.7,7.9H14c-1.8,0-3.3,1.5-3.3,3.3v25c0,1.8,1.5,3.3,3.3,3.3h21.7c1.8,0,3.3-1.5,3.3-3.3v-25
				C38.9,9.3,37.5,7.9,35.7,7.9z M28.6,29.4c0.2,0.2,0.2,0.5,0,0.7c-0.1,0.1-0.2,0.1-0.4,0.1s-0.3,0-0.4-0.1l-0.5-0.5L24.9,32
				c0,0,0,0,0,0l1.3,1.3l5,0L30,32.2l-0.7-0.7c-0.2-0.2-0.2-0.5,0-0.7c0.2-0.2,0.5-0.2,0.7,0l1.8,1.8c0.3,0.3,0.4,0.7,0.2,1.1
				s-0.5,0.6-0.9,0.6h-5.1c-0.3,0-0.5-0.1-0.7-0.3l-1.8-1.8c0,0,0,0,0,0c-0.1-0.1-0.3-0.1-0.4-0.2l-2.4-2.4c-0.4-0.4-0.4-1.1,0-1.5
				l2.4-2.4c0,0,0.1,0,0.1-0.1l2.4-2.4c0.2-0.2,0.5-0.3,0.8-0.3h4.7c0.4,0,0.8,0.3,1,0.7s0.1,0.9-0.2,1.2L28,28.9L28.6,29.4z
				 M33.3,14.2l-13,13c-0.1,0.1-0.3,0.2-0.5,0.2c-0.2,0-0.4-0.1-0.5-0.2l-2.9-2.9c-0.3-0.3-0.3-0.8,0-1.1l9.8-9.8
				c0.3-0.3,0.8-0.5,1.3-0.5h5.3c0.3,0,0.6,0.2,0.7,0.5C33.5,13.7,33.5,14,33.3,14.2z"/>
		</g>
	</g>
	<g>
		<path class="st2" d="M25,45.9c-1.5,0-2.7-1.2-2.7-2.7s1.2-2.7,2.7-2.7s2.7,1.2,2.7,2.7S26.5,45.9,25,45.9z M25,42.1
			c-0.7,0-1.2,0.5-1.2,1.2s0.5,1.2,1.2,1.2s1.2-0.5,1.2-1.2S25.7,42.1,25,42.1z"/>
	</g>
</g>
</svg>
