<?xml version="1.0" encoding="utf-8"?>
<!-- Generator: Adobe Illustrator 24.0.0, SVG Export Plug-In . SVG Version: 6.00 Build 0)  -->
<svg version="1.1" id="Layer_1" xmlns="http://www.w3.org/2000/svg" xmlns:xlink="http://www.w3.org/1999/xlink" x="0px" y="0px"
	 viewBox="0 0 50 50" style="enable-background:new 0 0 50 50;" xml:space="preserve">
<style type="text/css">
	.st0{fill:#A475EF;}
	.st1{fill:#BF94F7;}
	.st2{fill:none;stroke:#444444;stroke-width:2.5;stroke-linecap:round;stroke-linejoin:round;stroke-miterlimit:10;}
	.st3{fill:#444444;}
</style>
<polygon class="st0" points="47.5,26 47.9,30.3 1.9,47 2.1,38 2.4,32.8 48.2,16.1 47.5,19.8 "/>
<polygon class="st1" points="47.5,9.5 47,17.1 2.1,33.5 2.1,23.8 2.4,19.4 47.6,2.9 "/>
<polyline class="st2" points="32.8,47.8 1.7,47.8 1.7,1.6 48.2,1.6 48.2,37.4 "/>
<g>
	<polygon class="st3" points="33.2,12.6 35.1,12.6 30.4,17.2 29.5,16.3 	"/>
	<path class="st3" d="M35.5,9C35.5,9,35.4,9,35.5,9L21.4,9c-2.2,0-3.9,1.8-3.9,3.9v1.3c0,0.7,0.6,1.3,1.3,1.3c0.7,0,1.3-0.6,1.3-1.3
		v-1.3c0-0.7,0.6-1.3,1.3-1.3h6.1l-0.4,0.1c-1.1,0.4-1.8,1.4-1.8,2.5v19.5h-3.9c-0.7,0-1.3-0.6-1.3-1.3v-2.6c0-0.7-0.6-1.3-1.3-1.3
		c-0.7,0-1.3,0.6-1.3,1.3v2.6c0,2.2,1.8,3.9,3.9,3.9h3.9v1.3c0,1.4,1.2,2.6,2.6,2.6c0.3,0,0.6,0,0.8-0.1l7.8-2.6
		c1-0.4,1.8-1.4,1.8-2.5V11.6C38.3,10.1,37,8.9,35.5,9z M30.4,17.8c-0.1,0-0.1,0-0.2-0.1L29,16.5c-0.1-0.1-0.1-0.2,0-0.3l4-4
		c0,0,0.1-0.1,0.2-0.1h2.4c0.1,0,0.2,0.1,0.2,0.1c0,0.1,0,0.2-0.1,0.2l-5.2,5.2C30.5,17.8,30.5,17.8,30.4,17.8z M35.8,20.4
		c0,0.1-0.1,0.1-0.2,0.1h-2.4c-0.1,0-0.1,0-0.2-0.1l-2.1-2.1c-0.1-0.1-0.1-0.2,0-0.3l2.1-2.1c0,0,0.1-0.1,0.2-0.1h2.4
		c0.1,0,0.2,0.1,0.2,0.1c0,0.1,0,0.2-0.1,0.2l-2,2l2,2C35.8,20.2,35.8,20.3,35.8,20.4z M33.3,18l1.8-1.8h-1.8l-1.9,1.9l1.9,1.9h1.8
		l-1.8-1.8C33.2,18.2,33.2,18.1,33.3,18z"/>
	<path class="st3" d="M21,21.1l-5.2-5.2c-0.4-0.4-0.9-0.5-1.4-0.3c-0.5,0.2-0.8,0.7-0.8,1.2v3.9H8.4c-0.7,0-1.3,0.6-1.3,1.3
		c0,0.7,0.6,1.3,1.3,1.3h5.2v3.9c0,0.5,0.3,1,0.8,1.2c0.5,0.2,1,0.1,1.4-0.3l5.2-5.2C21.5,22.4,21.5,21.6,21,21.1L21,21.1z"/>
</g>
</svg>
