<svg xmlns="http://www.w3.org/2000/svg" id="Layer_1" x="0" y="0" version="1.1" viewBox="0 0 50 50" xml:space="preserve"><style>.st1{stroke-width:2.5}.st1,.st2,.st3{fill:none;stroke:#444;stroke-linecap:round;stroke-linejoin:round;stroke-miterlimit:10}.st3{stroke-width:.5}</style><path fill="#dc5e82" d="M48 20c-.2-.8-2.7-7.5-3.2-8.1l-3-3.5-.2.1L34 2.7 26.2 2c-3.2.1-14.6.3-21.5 10.3L.8 22.9l-.2.1 4 13.4c.1.4 4.5 5.7 4.9 5.9l5.6 3 32.2-11.7c.6-.5 1.6-8.8.7-13.6z"/><path d="M32.3 47.3c-7 2.3-15 1.2-21.3-3.6C.6 36-1.5 21.3 6.3 10.9" class="st1"/><path d="M6.2 11.1c2-3 4.7-4.7 4.7-4.7l.7-.5c8-5.8 19.2-5.9 27.5.4 10.4 7.8 12.4 22.5 4.7 32.8" class="st1"/><path d="M17.7 28.7s-5.3-1.1-4.9-6.5c0 0 .4-5.2 6.1-5.2 0 0 4.1 0 5.4 4.4m-5.6-6.8v-4.2m5.9 6.4l2.9-3m-14.7 3.1l-3-2.9m3 14.7l-3 3m.5-8.8H6.2" class="st2"/><path d="M35.2 35.4H19.5s-2.6-.6-2.9-3.6c0 0-.3-4.6 5.1-3.9 0 0-1.2-5.8 4.5-6.8 0 0 5.7-1.1 6.3 5.6 0 0 1.1-.9 2.6-.8" class="st2"/><path d="M36.1 28.7h3.8m-3.8-1.5h1.2l.9-1.4m-2.1 4.5H39l1.9 1.8m-4.8.3h1.4m-1.4 1.9h1.2l1.1 1.4" class="st3"/><circle cx="38.8" cy="25" r=".9" class="st3"/><circle cx="40.9" cy="28.7" r=".9" class="st3"/><circle cx="41.5" cy="32.8" r=".9" class="st3"/><circle cx="38.4" cy="32.4" r=".9" class="st3"/><circle cx="38.9" cy="36.5" r=".9" class="st3"/></svg>