<?xml version="1.0" encoding="UTF-8"?>
<svg id="Camada_3" data-name="Camada 3" xmlns="http://www.w3.org/2000/svg" version="1.1" viewBox="0 0 50 50">
  <defs>
    <style>
      .cls-1 {
        stroke-miterlimit: 10;
      }

      .cls-1, .cls-2 {
        stroke-width: .5px;
      }

      .cls-1, .cls-2, .cls-3, .cls-4 {
        stroke: #444;
      }

      .cls-1, .cls-5 {
        fill: #00dffc;
      }

      .cls-2, .cls-3, .cls-4 {
        fill: none;
        stroke-linecap: round;
        stroke-linejoin: round;
      }

      .cls-5 {
        stroke-width: 0px;
      }

      .cls-4 {
        stroke-width: 2.5px;
      }
    </style>
  </defs>
  <g>
    <path class="cls-5" d="M11.7,45.1c0,1.1,1.6,2.8,2.6,2.8l9.3.6,16-5.7.3-13.2s-1.1-1.9,0-4c.1-3.1.1-5,0-5.7l-1-14.9v-.2h0c.2-1.4-1-2.6-2.5-2.6L15.1,1.1c-1.5,0-3.4,5-3.4,6.5"/>
    <g>
      <path class="cls-4" d="M39.6,20v23.3"/>
      <path class="cls-4" d="M11.6,19.1V7.2c0-2.9,2.3-5.2,5.2-5.2h17.6c2.9,0,5.2,2.3,5.2,5.2v12.5"/>
      <path class="cls-4" d="M28.4,48.8h-11.5c-2.9,0-5.2-2.3-5.2-5.2v-25.3"/>
      <path class="cls-2" d="M29.5,5.8h-7.7c-.8,0-1.6-.7-1.6-1.6v-2.1h10.8v2.1c.1,1-.6,1.6-1.5,1.6Z"/>
    </g>
  </g>
  <rect class="cls-1" x="15.1" y="12.4" width="5.6" height="5.6" rx=".9" ry=".9"/>
  <rect class="cls-1" x="15.1" y="20" width="5.6" height="5.6" rx=".9" ry=".9"/>
  <rect class="cls-1" x="15.1" y="27.7" width="5.6" height="5.6" rx=".9" ry=".9"/>
  <rect class="cls-1" x="15.1" y="35.5" width="5.6" height="5.6" rx=".9" ry=".9"/>
  <line class="cls-3" x1="23.2" y1="15.1" x2="35.8" y2="15.1"/>
  <line class="cls-3" x1="23.2" y1="22.8" x2="35.8" y2="22.8"/>
  <line class="cls-3" x1="23.2" y1="30.6" x2="35.8" y2="30.6"/>
  <line class="cls-3" x1="23.2" y1="38.3" x2="35.8" y2="38.3"/>
  <polyline class="cls-3" points="16 13.9 17.1 15.9 21.8 12.4"/>
  <polyline class="cls-3" points="16 21.6 17.1 23.6 21.8 20"/>
</svg>