<svg xmlns="http://www.w3.org/2000/svg" id="Layer_1" x="0" y="0" version="1.1" viewBox="0 0 50 50" xml:space="preserve"><style>.st3{stroke-width:.5;fill:none;stroke:#444;stroke-miterlimit:10}</style><path fill="#8256d8" d="M19.9 21.1l7.8 2.4-6.7 4.8.1 8.2-6.5-4.9-7.8 2.6 2.6-7.8-4.9-6.6 8.2.1 4.8-6.7z"/><path fill="#a475ef" d="M25.1 2h-21C2.5 2 2.5 6.3 2.5 7.9l-.2 14.7-.6 11.5.7 13.1 1.3.9 25.2-8.9-.2-15.3c5.3-.2 11.5-3.2 19.3-2.2l.5-13.1c.1-1.5-2.6-3.4-4.1-3.4L28.8 6.6l-.5-1.8c0-1.6-1.6-2.8-3.2-2.8z"/><path fill="none" stroke="#444" stroke-linecap="round" stroke-linejoin="round" stroke-miterlimit="10" stroke-width="2.5" d="M28.3 41.9V23.7h1.5c.7 0 3.6-.3 6.1-1.1 3.4-1.1 9.6-1.1 12.6 0V5.8c0-.8-2.8-1.1-5.2-1.2-2-.1-3.9.1-5.9.5L28.3 7V5.3c0-1.9-1.6-3.5-3.5-3.5H5.2c-1.9 0-3.5 1.6-3.5 3.5v39.1c0 1.9 1.6 3.5 3.5 3.5h16.1"/><path d="M11.3 5.8h7c1.3 0 2.4-1.1 2.4-2.4v-.9c0-.3-.3-.6-.6-.6H9.4c-.3 0-.6.3-.6.6v.9c.1 1.3 1.1 2.4 2.5 2.4z" class="st3"/><circle cx="15.5" cy="42.9" r="2.3" class="st3"/><path fill="none" stroke="#444" stroke-miterlimit="10" d="M23.9 7.7v13.7c0 .2.1.5.4.6 7.7 3.5 15.4-4 23.1-.2v-15c-7.6-3.8-15.2 3.3-22.7.3-.4-.2-.8.1-.8.6zm-.7-1h-.3c-.3 0-.6.3-.6.6v36.4c0 .3.3.6.6.6h.3c.3 0 .6-.3.6-.6V7.3c.1-.3-.2-.6-.6-.6z"/><path fill="none" stroke="#444" stroke-linecap="round" stroke-linejoin="round" stroke-miterlimit="10" stroke-width=".5" d="M26.7 9.9s6 1.9 10.2.1 7.4-1 7.4-1m-17.6 9.5s6 1.9 10.2.1c4.2-1.9 7.4-1 7.4-1m-17.6-4.7s6 1.9 10.2.1 7.4-1 7.4-1m-17.6 3.6s6 1.9 10.2.1 7.4-1 7.4-1"/></svg>