<?xml version="1.0" encoding="utf-8"?>
<!-- Generator: Adobe Illustrator 26.5.0, SVG Export Plug-In . SVG Version: 6.00 Build 0)  -->
<svg version="1.1" id="Layer_1" xmlns="http://www.w3.org/2000/svg" xmlns:xlink="http://www.w3.org/1999/xlink" x="0px" y="0px"
	 viewBox="0 0 50 50" style="enable-background:new 0 0 50 50;" xml:space="preserve">
<style type="text/css">
	.st0{fill:#FCC34F;}
	.st1{fill:#FDCF72;}
	.st2{fill:none;stroke:#464646;stroke-miterlimit:10;}
	.st3{fill:none;stroke:#464646;stroke-width:0.5;stroke-linecap:round;stroke-miterlimit:10;}
	.st4{fill:#464646;}
	.st5{fill:none;stroke:#444444;stroke-width:2.5;stroke-linecap:round;stroke-linejoin:round;stroke-miterlimit:10;}
	.st6{fill:none;stroke:#464646;stroke-width:0.75;stroke-linecap:round;stroke-linejoin:round;stroke-miterlimit:10;}
</style>
<g>
	<polygon class="st0" points="42.6,22.3 36.4,29 29.7,35.4 11.8,42 9.8,40 8.5,40 7.5,40 10.5,24.4 11.1,20.5 37.7,13.9 39.6,22.4 	
		"/>
	<polyline class="st1" points="14.2,2.4 21.8,12.2 25,7.8 30.2,15.9 35.9,12.2 38.4,14.6 9.4,25.4 14.2,2.4 	"/>
	<polyline class="st2" points="25.6,22.8 21.5,14.6 8.9,38.5 	"/>
	<g>
		<g>
			<path class="st3" d="M9.4,38.5"/>
		</g>
		<g>
			<path class="st3" d="M15.4,44.3"/>
		</g>
		<g>
			<path class="st4" d="M31.5,45.7l-4.9,2.9c-0.9,0.5-1.9,0.5-2.8,0l-8-4.5c-0.1-0.1-0.2,0-0.3,0.1c-0.1,0.1,0,0.2,0.1,0.3l8,4.5
				c0.5,0.3,1,0.4,1.6,0.4c0.6,0,1.2-0.1,1.6-0.3l4.7-2.8C31.5,46.1,31.5,45.9,31.5,45.7z"/>
		</g>
		<g>
			<path class="st4" d="M36.7,14.5l1.7,7.9c0.5,0,0.5,0,1.2,0c0.6-0.1,0.5,0,1.3-0.1l-2.1-10.5C38.6,11,38,10.3,37.1,10
				c-0.8-0.2-1.7,0-2.3,0.6l-4.3,4.3l-3.5-6.6c-0.4-0.8-1.3-1.3-2.1-1.3c-0.9,0-1.7,0.5-2.1,1.3l-1.2,2.3l-4.7-8.8
				c-0.4-0.9-1.4-1.4-2.4-1.2c-1,0.1-1.7,0.9-1.9,1.9L8.3,29.9c-0.1,0.7,0.3,1.3,1,1.4c0.7,0.1,1.3-0.3,1.4-1l4.2-26.9l6.8,12.7
				l3.3-6.3l5.1,9.4l5.1-5.1C36.3,12.9,36.6,13.8,36.7,14.5z"/>
			<path class="st4" d="M32.4,45.1c-0.2-0.3-0.2-0.3-0.4-0.5c-0.3-0.2,0,0-0.7-0.7L26,46.7c-0.6,0.3-1.3,0.2-1.9-0.1l-8.2-4.5
				c-0.6-0.3-1.4-0.1-1.7,0.5c-0.3,0.6-0.1,1.4,0.5,1.7l8.1,4.6c0.6,0.4,1.4,0.6,2.1,0.6c0.7,0,1.5-0.2,2.2-0.6l5.8-3.2
				C32.4,45.2,33,45.7,32.4,45.1z"/>
			<path class="st4" d="M25,9.5L25,9.5L25,9.5z"/>
		</g>
		<line class="st2" x1="36.4" y1="12.2" x2="8.6" y2="39.5"/>
	</g>
	<polyline class="st5" points="24,48 8,39.2 14.3,1.9 	"/>
	<g>
		<polyline class="st6" points="32.3,44.9 41.8,34.7 34.7,34.7 28.2,41.3 34.2,47.2 41.4,47.2 41.8,47.2 		"/>
		<line class="st6" x1="41.8" y1="47.2" x2="32.3" y2="37.5"/>
		<polygon class="st6" points="26.5,39 22.5,35.2 35.3,22.3 43.1,22.3 		"/>
	</g>
</g>
</svg>
