<?xml version="1.0" encoding="utf-8"?>
<!-- Generator: Adobe Illustrator 27.5.0, SVG Export Plug-In . SVG Version: 6.00 Build 0)  -->
<svg version="1.1" id="Camada_1" xmlns="http://www.w3.org/2000/svg" xmlns:xlink="http://www.w3.org/1999/xlink" x="0px" y="0px"
	 viewBox="0 0 50 50" style="enable-background:new 0 0 50 50;" xml:space="preserve">
<style type="text/css">
	.st0{fill:#7DF4EB;}
	.st1{fill:none;stroke:#444444;stroke-width:2.5;stroke-linecap:round;stroke-linejoin:round;stroke-miterlimit:10;}
	.st2{fill:#444444;}
</style>
<path class="st0" d="M44.6,12.4L39,8.8l-7.7-4.4l-6-2.8c-3.2,0-21.5,8.9-21.5,12.1l-0.5,7.8l0.5,15.1l11.5,7.6l31-11
	C47.2,32.7,45.6,14.4,44.6,12.4z"/>
<g>
	<g>
		<path class="st1" d="M29.9,46.5l-2.2,1.3c-1.7,1-3.8,1-5.5,0l-15.6-9C5,37.8,3.9,36,3.9,34V16c0-2,1-3.8,2.7-4.7l15.6-9
			c1.7-1,3.8-1,5.5,0l15.6,9c1.7,1,2.7,2.8,2.7,4.7v18c0,2-1,3.8-2.7,4.7l-2.5,1.4"/>
	</g>
</g>
<g>
	<path class="st2" d="M37.7,12.7c-0.2-0.5-0.7-0.8-1.2-0.8h-6.7c-0.3,0-0.7,0.1-0.9,0.4L16.3,25.1c-0.5,0.5-0.5,1.3,0,1.8l3.3,3.2
		c0.2,0.2,0.6,0.4,0.9,0.4c0.3,0,0.7-0.1,0.9-0.4l16-16C37.8,13.7,37.9,13.2,37.7,12.7z M36.6,13.3l-16,16c-0.1,0.1-0.1,0.1-0.2,0
		l-3.3-3.3c-0.1-0.1-0.1-0.1,0-0.2l12.7-12.8h6.7c0.1,0,0.1,0,0.1,0.1C36.7,13.2,36.7,13.3,36.6,13.3z"/>
	<path class="st2" d="M31.8,32.3l5.8-5.8c0.4-0.4,0.5-0.9,0.3-1.4c-0.2-0.5-0.6-0.8-1.1-0.8l-6.3-0.2c-0.3,0-0.7,0.1-0.9,0.4
		l-3.6,3.6c0,0-0.1,0-0.1,0.1l-3.3,3.3c-0.2,0.2-0.4,0.6-0.4,0.9c0,0,0,0,0,0c0,0,0,0,0,0c0,0,0,0,0,0c0,0.1,0,0.2,0.1,0.3
		c0,0.1,0,0.1,0,0.2c0,0,0,0,0,0c0.1,0.1,0.2,0.3,0.3,0.4l3.3,3.2c0,0,0,0,0.1,0l3.2,3.1c0.2,0.2,0.6,0.4,0.9,0.4l6.4,0c0,0,0,0,0,0
		c0.5,0,1-0.3,1.2-0.8c0.2-0.5,0.1-1-0.3-1.4L31.8,32.3z M30.3,25.3c0,0,0,0,0.1,0l6.2,0.2c0.1,0,0.1,0,0.1,0.1c0,0,0,0.1,0,0.2
		L31,31.5l-3.3-3.4c0,0-0.1,0-0.1-0.1L30.3,25.3z M26.7,35.6l-3.3-3.2l0-0.2l0,0l3.3-3.3l0.2,0l3.3,3.4l-3.3,3.4
		C26.8,35.7,26.7,35.7,26.7,35.6z M36.4,38.9C36.4,38.9,36.4,38.9,36.4,38.9l-6.5-0.1l-2.4-2.3c0,0,0.1,0,0.1-0.1l3.3-3.4l5.5,5.6
		c0,0,0.1,0.1,0,0.2C36.5,38.9,36.5,38.9,36.4,38.9z"/>
</g>
<g>
	<g>
		<path class="st2" d="M15.3,36.1c-1.2,0-2.4-0.3-3.6-0.8c-2.2-1-3.9-2.7-4.7-5c-0.9-2.2-0.8-4.7,0.2-6.9c1.4-3.2,4.6-5.4,8.1-5.4
			l0,1c-3.1,0-6,1.9-7.2,4.8c-0.9,2-0.9,4.2-0.2,6.2c0.8,2,2.3,3.6,4.2,4.4c1.7,0.7,3.5,0.9,5.2,0.4l0.3,1
			C16.8,36,16,36.1,15.3,36.1z"/>
	</g>
	<g>
		<g>
			<path class="st2" d="M16.7,33.3l2.8,0.3c0.5,0,0.7,0.6,0.4,1l-1.7,2.3c-0.3,0.4-0.9,0.3-1.1-0.1l-1.2-2.6
				C15.9,33.8,16.2,33.3,16.7,33.3z"/>
		</g>
	</g>
	<g>
		<g>
			<path class="st2" d="M15,20.6l2.9-1.1c0.4-0.1,0.5-0.7,0.2-0.9l-2.4-2c-0.3-0.3-0.8-0.1-0.9,0.3l-0.5,3
				C14.2,20.4,14.6,20.8,15,20.6z"/>
		</g>
	</g>
</g>
</svg>
