<?xml version="1.0" encoding="utf-8"?>
<!-- Generator: Adobe Illustrator 28.0.0, SVG Export Plug-In . SVG Version: 6.00 Build 0)  -->
<svg version="1.1" id="Layer_1" xmlns="http://www.w3.org/2000/svg" xmlns:xlink="http://www.w3.org/1999/xlink" x="0px" y="0px"
	 viewBox="0 0 50 50" style="enable-background:new 0 0 50 50;" xml:space="preserve">
<style type="text/css">
	.st0{fill:#C3FF68;}
	.st1{fill:none;stroke:#444444;stroke-linecap:round;stroke-linejoin:round;stroke-miterlimit:10;}
	.st2{fill:none;stroke:#444444;stroke-width:2.5;stroke-linecap:round;stroke-linejoin:round;stroke-miterlimit:10;}
</style>
<g>
	<path class="st0" d="M36.6,13.6l5.6-5.8l-1.1-6.1L27.6,1.4c-3.2,0-5.5,7.7-9.5,10L4.6,13L4,36.2l3.4,1.4c4.5,0.7,8.8-2.2,14,5.7
		L38,37.5c-1.2-0.6-1.2-0.5-1.2-1.6c0-1.9,3.7-2.1,5-4.5c1.2-2,0.8-4.8,0.8-7.3c0-2.4,0.6-4.6-0.1-5.2
		C40.6,17.2,37.2,14.8,36.6,13.6z"/>
	<g>
		<polygon class="st1" points="25.8,25.3 17,34 7.6,34 16.1,25.2 7.2,16.4 17,16.4 		"/>
		<g>
			<polygon class="st1" points="20.2,14.1 29,5.4 38.4,5.4 29.9,14.2 38.8,23.1 29,23.1 			"/>
			<polygon class="st1" points="20.2,36 29,27.3 38.4,27.3 29.9,36.1 38.8,44.9 29,44.9 			"/>
		</g>
	</g>
	<path class="st2" d="M32.3,48.7h-2.6c-1.3,0-2.5-0.5-3.4-1.5l-7.8-7.9c-0.9-0.9-2.2-1.5-3.4-1.5l-8.1,0c-1.6,0-2.9-1.3-2.9-3V15.4
		c0-1.7,1.3-3,2.9-3l8.1,0c1.3,0,2.5-0.5,3.4-1.5L26.2,3c0.9-0.9,2.2-1.5,3.4-1.5h9.7c1.6,0,2.9,1.3,2.9,3v2.7c0,0.8-0.3,1.5-0.9,2
		l-4.4,3.8c-0.7,0.6-0.6,1.7,0.1,2.3l4,2.7c0.8,0.5,1.2,1.3,1.2,2.3v9.9c0,0.9-0.4,1.7-1.1,2.2l-4,2.9c-0.8,0.5-0.8,1.7-0.1,2.3
		l4.2,3.3c0.6,0.5,1,1.3,1,2.1"/>
</g>
</svg>
