<svg xmlns="http://www.w3.org/2000/svg" id="Camada_3" version="1.1" viewBox="0 0 50 50"><defs><style>.st1,.st3{stroke-width:2.5px;fill:none;stroke:#444;stroke-linecap:round;stroke-linejoin:round}.st3{stroke-width:.5px}</style></defs><path fill="#00dffc" d="M47.9 19.9c-.2-.8-2.7-7.5-3.2-8.1l-3-3.5h-.2l-7.6-5.7-7.8-.7c-3.2 0-14.5.3-21.4 10.2l-4 10.6H.5l4 13.5c.1.4 4.5 5.7 4.9 5.9l5.6 3 32.2-11.7c.7-.4 1.7-8.6.8-13.4z"/><path d="M32.2 47.2c-7 2.3-15 1.2-21.3-3.6C.5 35.8-1.6 21.1 6.2 10.8" class="st1"/><path d="M6.1 10.9c2-3 4.7-4.7 4.7-4.7l.7-.5c8.1-5.7 19.2-5.8 27.6.4 10.4 7.8 12.4 22.5 4.7 32.8" class="st1"/><path fill="none" stroke="#444" stroke-miterlimit="10" d="M3.7 13.8l26.4 21.4c.4.4.4 1 0 1.4l-11.3 9.3c-.6.5-1.5 0-1.5-.7V4.4c0-.8.9-1.2 1.5-.7L30.1 13c.4.4.4 1 0 1.4L3.7 35.9"/><path d="M30.2 20.6c1.2.5 2.3 1.4 2.8 2.8.9 2.4-.4 5.1-2.8 6" class="st3"/><path d="M32.7 17.7c2.1.8 3.9 2.5 4.8 4.7 1.5 4.1-.6 8.7-4.8 10.2" class="st3"/><path d="M35.9 14.8c3 1.1 5.6 3.5 6.7 6.7 2.1 5.9-.9 12.3-6.7 14.5" class="st3"/></svg>