<svg xmlns="http://www.w3.org/2000/svg" id="Layer_1" x="0" y="0" version="1.1" viewBox="0 0 50 50" xml:space="preserve"><style>.st3{fill:#444}</style><path fill="#e589ef" d="M43.7 21.7l-3.8-1.3-4.9-1.5-3.1-1.2c-.8-1.7-4.5-15.1-6.5-14l-23 7.7 2.1 7.5c.1.9 6.3 14.8 6 15.7-.3 1.3 6.1-.3 6 .1-.3 1.6-.7 5.3-.3 5.6l7.3 2.5 21.2-7.5c.7-.3 2.9-8.3 2.3-11.2-.6-3.7-2.8-1.3-3.3-2.4z"/><path fill="none" stroke="#444" stroke-linecap="round" stroke-linejoin="round" stroke-miterlimit="10" stroke-width="2.5" d="M32.3 45.6l-15-5.4c-1.2-.4-1.8-1.8-1.4-3l1.6-4.3-5.5 1.7c-1.1.1-2.1-.5-2.4-1.5l-7-19.7c-.4-1.2.2-2.6 1.5-3l20.1-6.6c1.1-.3 2.3.2 2.8 1.3l4.7 12.4 14.3 5c1.2.4 1.8 1.7 1.4 2.9l-3.9 12"/><path fill="none" stroke="#444" stroke-linecap="round" stroke-linejoin="round" stroke-miterlimit="10" d="M17.7 34.4l6.2-17c.3-.9 1.3-1.4 2.2-1l6.5 2.3"/><circle cx="18.3" cy="19.3" r="2.2" class="st3"/><circle cx="22.9" cy="11.5" r="2.2" class="st3"/><circle cx="14.5" cy="27.8" r="2.2" class="st3"/><path d="M23.3 31.9l8.1-8h4.9L25.8 34.4zm3.7 3.7l4.4-4.3h4.9L32 35.6l4.3 4.4h-5z" class="st3"/><circle cx="10.4" cy="15.4" r="2.2" class="st3"/></svg>