<?xml version="1.0" encoding="utf-8"?>
<!-- Generator: Adobe Illustrator 28.1.0, SVG Export Plug-In . SVG Version: 6.00 Build 0)  -->
<svg version="1.1" id="Layer_1" xmlns="http://www.w3.org/2000/svg" xmlns:xlink="http://www.w3.org/1999/xlink" x="0px" y="0px"
	 viewBox="0 0 48 47" style="enable-background:new 0 0 48 47;" xml:space="preserve">
<style type="text/css">
	.st0{fill:#DC5E82;}
	.st1{fill:none;stroke:#444444;stroke-width:2.5;stroke-linecap:round;stroke-linejoin:round;stroke-miterlimit:10;}
	.st2{fill:none;stroke:#444444;stroke-width:0.5;stroke-miterlimit:10;stroke-dasharray:1.3376,1.3376;}
	.st3{fill:#DC5E82;stroke:#444444;stroke-width:0.5;stroke-miterlimit:10;stroke-dasharray:1.5;}
	.st4{fill:none;stroke:#444444;stroke-width:0.5;stroke-miterlimit:10;stroke-dasharray:1.7462,1.7462;}
	.st5{fill:#444444;stroke:#444444;stroke-miterlimit:10;}
</style>
<path class="st0" d="M42.1,11.7L37,8.4l-7-4l-5.5-2.6C21.6,1.8,5,10,5,12.9L4.5,20L5,33.8l10.5,6.9l28.3-10.1
	C44.4,30.2,43,13.5,42.1,11.7z"/>
<g>
	<g>
		<path class="st1" d="M28.7,42.8l-2,1.2c-1.5,0.9-3.4,0.9-5,0L7.5,35.7C5.9,34.8,5,33.2,5,31.4V15c0-1.8,0.9-3.4,2.5-4.3l14.2-8.2
			c1.5-0.9,3.4-0.9,5,0l14.2,8.2c1.5,0.9,2.5,2.5,2.5,4.3v16.4c0,1.8-0.9,3.4-2.5,4.3L38.6,37"/>
	</g>
</g>
<g>
	<ellipse class="st2" cx="13.6" cy="17.3" rx="4.2" ry="4.3"/>
</g>
<ellipse class="st3" cx="18.8" cy="20.1" rx="5.1" ry="5.1"/>
<g>
	<ellipse class="st0" cx="25" cy="23.5" rx="6.1" ry="6.2"/>
	<ellipse class="st4" cx="25" cy="23.5" rx="6.1" ry="6.2"/>
</g>
<ellipse class="st5" cx="30.5" cy="26.3" rx="6.9" ry="7.1"/>
<g>
	<path class="st0" d="M26,26c0.1-0.1,0.3-0.3,0.4-0.4c1.4-1.4,2.7-2.8,4.1-4.1c0.1-0.1,0.1-0.1,0.2-0.1c0.9,0,1.7,0,2.6,0
		c0,0,0.1,0,0.1,0c-2,2-4,4.1-6,6.1C26.9,26.9,26.4,26.4,26,26z"/>
	<path class="st0" d="M28.1,28.1c0.2-0.2,0.3-0.4,0.5-0.5c0.6-0.6,1.2-1.3,1.9-1.9c0,0,0.1-0.1,0.2-0.1c0.9,0,1.8,0,2.7,0
		c0,0,0,0,0,0c-0.8,0.8-1.6,1.7-2.5,2.5c0.8,0.8,1.6,1.7,2.5,2.5c-0.1,0-0.1,0-0.1,0c-0.9,0-1.7,0-2.6,0c-0.1,0-0.1,0-0.2-0.1
		C29.7,29.8,28.9,29,28.1,28.1C28.1,28.1,28.1,28.1,28.1,28.1z"/>
</g>
</svg>
