<?xml version="1.0" encoding="utf-8"?>
<!-- Generator: Adobe Illustrator 28.0.0, SVG Export Plug-In . SVG Version: 6.00 Build 0)  -->
<svg version="1.1" id="Layer_1" xmlns="http://www.w3.org/2000/svg" xmlns:xlink="http://www.w3.org/1999/xlink" x="0px" y="0px"
	 viewBox="0 0 50 50" style="enable-background:new 0 0 50 50;" xml:space="preserve">
<style type="text/css">
	.st0{fill:#FC9D9A;}
	.st1{fill:none;stroke:#444444;stroke-width:2.5;stroke-linecap:round;stroke-linejoin:round;stroke-miterlimit:10;}
	.st2{fill:none;stroke:#444444;stroke-width:0.5;stroke-linecap:round;stroke-linejoin:round;stroke-miterlimit:10;}
	.st3{fill:#444444;}
	.st4{fill:#444444;stroke:#444444;stroke-width:0.5;stroke-linecap:round;stroke-linejoin:round;stroke-miterlimit:10;}
</style>
<g>
	<g>
		<g>
			<path class="st0" d="M37.2,1.9L15.5,2c-1.5,0-2.8,3.8-2.8,5.2l-0.3,12.2c-0.2,4-0.7,5.8,0.1,6.8l0.3,3.3l-0.1,14.9
				c0,1,1.6,2.7,2.6,2.8l9.2,0.7l15.9-5.6l0.4-13.1c0,0,0.3-1.1,0.2-3.4c-0.3-4.1,0.1-5.7-0.1-6.7l-1-14.3V4.6l0,0
				C39.9,3.1,38.7,1.9,37.2,1.9z"/>
		</g>
		<g>
			<path class="st1" d="M29.2,48.1H17.8c-2.8,0-5.1-2.3-5.1-5.1l0,0V6.8c0-2.8,2.3-5.1,5.1-5.1h17.5c2.8,0,5.1,2.3,5.1,5.1v34v1.8"
				/>
			<path class="st2" d="M30.5,5.5h-7.8c-0.8,0-1.5-0.7-1.5-1.5V1.8h10.7V4C31.9,4.8,31.3,5.5,30.5,5.5z"/>
		</g>
	</g>
</g>
<g>
	<g>
		<path class="st3" d="M33.7,21.3c-1.1,0-1.9-0.9-1.9-2c0-1,0.9-1.9,2-1.9c1.1,0,2,0.9,1.9,2C35.7,20.4,34.8,21.3,33.7,21.3z"/>
		<g>
			<path class="st3" d="M17.8,33c-0.5,0.6-0.1,1.4,0.6,1.6c0.4,0.1,0.7-0.1,1-0.4c2.2-2.2,4.4-4.4,6.6-6.6l-0.6-0.6c0,0,0,0,0,0
				c-0.1-0.1-0.5-0.5-0.5-1c-2.2,2.2-4.5,4.5-6.7,6.7C18,32.7,17.9,32.8,17.8,33z"/>
			<path class="st3" d="M35.3,25c-0.3,0-0.7,0-1,0c-0.6,0-1.2,0.1-1.8,0.1c0-0.7,0.1-1.4,0.1-2.1c0-0.4-0.1-0.8-0.4-1.1
				c-0.3-0.3-0.6-0.6-0.9-0.9c-0.9-0.9-1.8-1.8-2.6-2.7c-0.5-0.5-1-0.5-1.5-0.1c-0.8,0.7-1.7,1.5-2.5,2.3c-0.4,0.4-0.4,1,0,1.4
				c0.4,0.4,1,0.4,1.4,0c0.4-0.3,0.8-0.7,1.1-1c0.2-0.2,0.4-0.4,0.5-0.5c0.4,0.4,0.8,0.8,1.3,1.2c-0.1,0.1-0.2,0.1-0.2,0.2
				c-0.7,0.7-1.4,1.4-2,2l0,0l-0.7,0.7c0,0,0,0-0.1,0.1c-1,1-0.4,1.6-0.3,1.7c0,0,0.1,0,0.1,0.1c0,0,1.3,1.2,1.6,1.6l0,0h0
				c0.6,0.7,1.3,1.3,1.9,2c-0.6,0.1-1.2,0.1-1.7,0.2c-0.8,0.1-1.5,0.1-2.3,0.2c-0.5,0.1-0.8,0.4-0.8,0.9c0,0.5,0.2,0.9,0.7,1
				c0.2,0.1,0.4,0,0.7,0c1.9-0.2,3.7-0.4,5.6-0.5c0.5,0,0.8-0.2,1-0.7c0.2-0.4,0-0.8-0.3-1.1c-0.6-0.6-1.2-1.2-1.7-1.8
				c-0.5-0.5-1-1.1-1.6-1.6c0.6-0.5,1.1-1,1.7-1.6c0,0.4,0,0.8,0,1.1c0,0.7,0.5,1.1,1.1,1.1c1.2-0.1,2.5-0.2,3.7-0.3
				c0.5,0,0.8-0.5,0.8-1C36.2,25.4,35.8,25,35.3,25z"/>
		</g>
	</g>
	<line class="st4" x1="18.6" y1="19.3" x2="24.5" y2="19.3"/>
	<line class="st4" x1="17.5" y1="21.4" x2="23.4" y2="21.4"/>
	<line class="st4" x1="18.4" y1="23.5" x2="24.3" y2="23.5"/>
</g>
</svg>
