<?xml version="1.0" encoding="UTF-8"?>
<svg id="Camada_1" data-name="Camada 1" xmlns="http://www.w3.org/2000/svg" viewBox="0 0 44.59 49.41">
  <defs>
    <style>
      .cls-1 {
        stroke-width: .5px;
      }

      .cls-1, .cls-2, .cls-3 {
        fill: none;
        stroke: #444;
      }

      .cls-1, .cls-3 {
        stroke-miterlimit: 10;
      }

      .cls-2 {
        stroke-linecap: round;
        stroke-linejoin: round;
        stroke-width: 2.5px;
      }

      .cls-4 {
        fill: #7df4eb;
      }
    </style>
  </defs>
  <path class="cls-4" d="M41.97,12.1l-5.63-3.59-7.67-4.43-5.97-2.84C19.5,1.25,1.25,10.19,1.25,13.39l-.53,7.8.53,15.13,11.5,7.56,31.02-11.04c.74-.42-.82-18.75-1.8-20.74Z"/>
  <path class="cls-2" d="M27.23,46.16l-2.2,1.27c-1.69.98-3.78.98-5.47,0l-15.57-8.99c-1.69-.98-2.74-2.78-2.74-4.74V15.71c0-1.96,1.04-3.76,2.74-4.74L19.56,1.99c1.69-.98,3.78-.98,5.47,0l15.57,8.99c1.69.98,2.74,2.78,2.74,4.74v17.98c0,1.96-1.04,3.76-2.74,4.74l-2.46,1.42"/>
  <path class="cls-1" d="M19.81,24.27c-.33-.16-.62-.38-.86-.66-.23-.27-.41-.57-.53-.91-.12-.34-.17-.68-.15-1.04.02-.37.11-.72.27-1.05l3.01-6.2c.12-.24.27-.45.47-.62.19-.17.41-.29.65-.38.24-.08.49-.12.74-.11.26.01.52.08.75.19.24.12.45.27.62.47.17.19.29.41.38.65.08.24.12.49.11.74-.01.26-.08.52-.19.75l-3,6.19c-.07.14-.16.27-.28.37-.11.1-.24.18-.39.23-.14.05-.29.07-.44.06-.16,0-.31-.05-.45-.12-.14-.07-.27-.16-.37-.28-.1-.11-.18-.24-.23-.39-.05-.14-.07-.29-.06-.44,0-.16.05-.31.12-.45l3.01-6.21c.09-.19.32-.27.51-.18s.27.32.18.51l-3.01,6.21c-.1.2-.01.44.19.54.2.1.44.01.54-.19l3-6.19c.29-.59.04-1.3-.55-1.59-.59-.29-1.3-.04-1.59.55l-3.01,6.2c-.47.98-.07,2.16.91,2.63.98.47,2.16.07,2.63-.91l3.01-6.19c.09-.19.32-.27.51-.18.19.09.27.32.18.51l-3.01,6.19c-.16.33-.38.62-.66.86-.27.23-.57.41-.91.53-.34.12-.68.17-1.04.15-.37-.02-.72-.11-1.05-.27Z"/>
  <polygon class="cls-3" points="32.89 35.93 11.89 35.93 11.89 30.15 11.89 9.43 32.89 9.43 32.89 35.93"/>
  <line class="cls-1" x1="32.89" y1="29.76" x2="11.89" y2="29.76"/>
  <circle class="cls-1" cx="22.39" cy="32.93" r="1.5"/>
</svg>