<svg xmlns="http://www.w3.org/2000/svg" id="Camada_1" data-name="Camada 1" viewBox="0 0 44.59 49.41"><defs><style>.cls-1{stroke-width:.5px;fill:none;stroke:#444;stroke-miterlimit:10}</style></defs><path fill="#7df4eb" d="M41.97 12.1l-5.63-3.59-7.67-4.43-5.97-2.84c-3.2.01-21.45 8.95-21.45 12.15l-.53 7.8.53 15.13 11.5 7.56 31.02-11.04c.74-.42-.82-18.75-1.8-20.74z"/><path fill="none" stroke="#444" stroke-linecap="round" stroke-linejoin="round" stroke-width="2.5" d="M27.23 46.16l-2.2 1.27c-1.69.98-3.78.98-5.47 0L3.99 38.44a5.48 5.48 0 01-2.74-4.74V15.71a5.46 5.46 0 012.74-4.74l15.57-8.98c1.69-.98 3.78-.98 5.47 0l15.57 8.99a5.48 5.48 0 012.74 4.74V33.7a5.46 5.46 0 01-2.74 4.74l-2.46 1.42"/><path d="M19.81 24.27a2.64 2.64 0 01-.86-.66c-.23-.27-.41-.57-.53-.91a2.72 2.72 0 01.12-2.09l3.01-6.2c.12-.24.27-.45.47-.62.19-.17.41-.29.65-.38a1.933 1.933 0 011.49.08c.24.12.45.27.62.47.17.19.29.41.38.65a1.933 1.933 0 01-.08 1.49l-3 6.19c-.07.14-.16.27-.28.37-.11.1-.24.18-.39.23-.14.05-.29.07-.44.06-.16 0-.31-.05-.45-.12-.14-.07-.27-.16-.37-.28-.1-.11-.18-.24-.23-.39-.05-.14-.07-.29-.06-.44 0-.16.05-.31.12-.45l3.01-6.21c.09-.19.32-.27.51-.18s.27.32.18.51l-3.01 6.21a.405.405 0 10.73.35l3-6.19a1.19 1.19 0 10-2.14-1.04l-3.01 6.2a1.968 1.968 0 103.54 1.72l3.01-6.19c.09-.19.32-.27.51-.18.19.09.27.32.18.51l-3.01 6.19c-.16.33-.38.62-.66.86-.27.23-.57.41-.91.53a2.72 2.72 0 01-2.09-.12z" class="cls-1"/><path fill="none" stroke="#444" stroke-miterlimit="10" d="M32.89 35.93h-21V9.43h21v26.5z"/><path d="M32.89 29.76h-21" class="cls-1"/><circle cx="22.39" cy="32.93" r="1.5" class="cls-1"/></svg>