<svg xmlns="http://www.w3.org/2000/svg" id="Layer_1" x="0" y="0" version="1.1" viewBox="0 0 50 50" xml:space="preserve"><style>.st3{fill:#444}</style><path fill="#a475ef" d="M47.5 26l.4 4.3L1.9 47l.2-9 .3-5.2 45.8-16.7-.7 3.7z"/><path fill="#bf94f7" d="M47.5 9.5l-.5 7.6L2.1 33.5v-9.7l.3-4.4L47.6 2.9z"/><path fill="none" stroke="#444" stroke-linecap="round" stroke-linejoin="round" stroke-miterlimit="10" stroke-width="2.5" d="M32.8 47.8H1.7V1.6h46.5v35.8"/><path d="M33.2 12.6h1.9l-4.7 4.6-.9-.9z" class="st3"/><path d="M35.5 9s-.1 0 0 0H21.4c-2.2 0-3.9 1.8-3.9 3.9v1.3c0 .7.6 1.3 1.3 1.3.7 0 1.3-.6 1.3-1.3v-1.3c0-.7.6-1.3 1.3-1.3h6.1l-.4.1c-1.1.4-1.8 1.4-1.8 2.5v19.5h-3.9c-.7 0-1.3-.6-1.3-1.3v-2.6c0-.7-.6-1.3-1.3-1.3-.7 0-1.3.6-1.3 1.3v2.6c0 2.2 1.8 3.9 3.9 3.9h3.9v1.3c0 1.4 1.2 2.6 2.6 2.6.3 0 .6 0 .8-.1l7.8-2.6c1-.4 1.8-1.4 1.8-2.5V11.6c0-1.5-1.3-2.7-2.8-2.6zm-5.1 8.8c-.1 0-.1 0-.2-.1L29 16.5c-.1-.1-.1-.2 0-.3l4-4s.1-.1.2-.1h2.4c.1 0 .2.1.2.1 0 .1 0 .2-.1.2l-5.2 5.2c0 .2 0 .2-.1.2zm5.4 2.6c0 .1-.1.1-.2.1h-2.4c-.1 0-.1 0-.2-.1l-2.1-2.1c-.1-.1-.1-.2 0-.3l2.1-2.1s.1-.1.2-.1h2.4c.1 0 .2.1.2.1 0 .1 0 .2-.1.2l-2 2 2 2c.1.1.1.2.1.3zM33.3 18l1.8-1.8h-1.8l-1.9 1.9 1.9 1.9h1.8l-1.8-1.8c-.1 0-.1-.1 0-.2z" class="st3"/><path d="M21 21.1l-5.2-5.2c-.4-.4-.9-.5-1.4-.3-.5.2-.8.7-.8 1.2v3.9H8.4c-.7 0-1.3.6-1.3 1.3 0 .7.6 1.3 1.3 1.3h5.2v3.9c0 .5.3 1 .8 1.2.5.2 1 .1 1.4-.3l5.2-5.2c.5-.5.5-1.3 0-1.8z" class="st3"/></svg>