<?xml version="1.0" encoding="utf-8"?>
<!-- Generator: Adobe Illustrator 27.3.1, SVG Export Plug-In . SVG Version: 6.00 Build 0)  -->
<svg version="1.1" id="Camada_3" xmlns="http://www.w3.org/2000/svg" xmlns:xlink="http://www.w3.org/1999/xlink" x="0px" y="0px"
	 viewBox="0 0 50 50" style="enable-background:new 0 0 50 50;" xml:space="preserve">
<style type="text/css">
	.st0{fill:#FDCF72;}
	.st1{fill:#FCC34F;}
	.st2{fill:none;stroke:#464646;stroke-width:1.5;stroke-linecap:round;stroke-linejoin:round;stroke-miterlimit:10;}
	.st3{fill:none;stroke:#464646;stroke-width:0.25;stroke-linecap:round;stroke-linejoin:round;stroke-miterlimit:10;}
	.st4{fill:none;stroke:#464646;stroke-width:2.5;stroke-linecap:round;stroke-linejoin:round;stroke-miterlimit:10;}
</style>
<g>
	<g>
		<path class="st0" d="M37.54,5.01H22.43L5.4,22.18l34.18-12.16c1.2-1.56-1.42-1.26-2.04-2.79V5.01z"/>
		<path class="st1" d="M5.4,22.18l-4.1,4.06c4.1,4.2,8.51,9.34,14.85,15.93l26.76-9.52c1.28-1.77,4.03-6.28,5.03-8.11
			c0.91-1.67-4.14-1.56-7.38-1.87c-0.86-0.08,0.99-4.91,1.76-7.07c0.34-0.96-3.57,0.62-4.03-0.29l1.29-5.29L5.4,22.18z"/>
	</g>
	<path class="st2" d="M19.46,39.45l13.03-13.99h-9.74l-8.92,9.05l8.23,8.09h10.42 M32.49,42.61l-13.03-13.3 M11.5,31.36l-5.49-5.21
		L23.57,8.46h10.7L11.5,31.36z"/>
	<g>
		<polyline class="st3" points="21.48,26.76 15.51,27.04 16.84,31.46 		"/>
		<polyline class="st3" points="32.23,42.61 43.24,25.73 31.84,26.26 		"/>
		<polyline class="st3" points="36.28,26.05 38.29,18.61 15.51,27.04 36.26,10.67 31.84,26.26 		"/>
	</g>
	<polyline class="st4" points="39.9,37.12 48.7,23.34 40.56,22.66 42.49,14.93 38.29,15.3 40.07,8.02 37.54,7.75 37.54,5.01 
		22.43,5.01 1.3,26.23 20.56,45.99 31.84,45.99 	"/>
</g>
</svg>
