<?xml version="1.0" encoding="utf-8"?>
<!-- Generator: Adobe Illustrator 26.3.1, SVG Export Plug-In . SVG Version: 6.00 Build 0)  -->
<svg version="1.1" id="Layer_1" xmlns="http://www.w3.org/2000/svg" xmlns:xlink="http://www.w3.org/1999/xlink" x="0px" y="0px"
	 viewBox="0 0 50 50" style="enable-background:new 0 0 50 50;" xml:space="preserve">
<style type="text/css">
	.st0{fill:#A6C1C2;}
	.st1{fill:#B9D7D9;}
	.st2{fill:none;stroke:#444444;stroke-width:2.5;stroke-linecap:round;stroke-linejoin:round;stroke-miterlimit:10;}
	.st3{fill:none;stroke:#444444;stroke-width:1.5;stroke-linecap:round;stroke-linejoin:round;stroke-miterlimit:10;}
	.st4{fill:#444444;}
	.st5{clip-path:url(#SVGID_00000009564766327801360820000016981584383957135017_);}
	.st6{clip-path:url(#SVGID_00000090990963225239549800000002392694177421334663_);}
	.st7{clip-path:url(#SVGID_00000155110918052937205360000007272796799855621299_);}
	.st8{clip-path:url(#SVGID_00000084501313120582540690000010088198358295163315_);}
</style>
<g id="Layer_1_00000058577701952567233890000014275959396035731359_">
	<polygon class="st0" points="47.3,26.9 47.8,31.4 2.5,47.9 2.5,38.5 2.7,33.1 47.8,16.6 47.2,20.5 	"/>
	<polygon class="st1" points="47,9.6 46.6,17.7 2.4,33.8 2.2,23.6 2.4,19 47,2.8 	"/>
	<polyline class="st2" points="12.7,47.2 2.7,47.2 2.7,2.8 47.4,2.8 47.4,47.2 	"/>
	<g>
		<path class="st3" d="M25.5,27V13.9c0-0.8-0.6-1.5-1.5-1.5H9.6c-0.8,0-1.5,0.6-1.5,1.5v25.4c0,0.8,0.6,1.5,1.5,1.5h8"/>
		<path class="st3" d="M23.4,30.5l1.3-0.7c0.4-0.2,1.2-0.3,1.6-0.1l1.3-0.7c0.6-0.3,1.6-0.2,2,0.5l1.3-0.7c0.6-0.3,1.6-0.2,2,0.5
			l3.7,6.6c0.7,1.3-0.1,2.8,0.4,3.6l1,2"/>
		<path class="st3" d="M24.8,33l-3.6-6.3c-0.4-0.7-1.3-0.9-2-0.5c-0.7,0.4-0.9,1.3-0.5,2l5,8.8c-0.2,0.7-1,1-1.6,0.7l-1.9-1
			c-1.8-0.8-2.9,0.8-2.6,1.4c0,0,4.5,3.4,5,3.7c0.8,0.4,4.8,1.9,5.2,2.4l0.6,1"/>
		<line class="st3" x1="26.3" y1="29.7" x2="27.7" y2="32.2"/>
		<line class="st3" x1="29.5" y1="29.5" x2="30.6" y2="31.4"/>
		<line class="st3" x1="15.7" y1="14.6" x2="17.9" y2="14.6"/>
		<rect x="11" y="17.6" class="st3" width="4.4" height="4.4"/>
		<rect x="18.3" y="17.6" class="st3" width="4.4" height="4.4"/>
		<rect x="11" y="24.8" class="st3" width="4.4" height="4.4"/>
		<rect x="11" y="32.1" class="st3" width="4.4" height="4.4"/>
	</g>
</g>
<g transform="matrix(.03881911 0 0 .03881916 -.560501 8.162276)">
	<g>
		<g>
			<g>
				<path id="SVGID_1_" class="st4" d="M1109.1,532.2H976.8c-2.7,0-5.2-1-7.1-3L853.9,413.5c-3.9-3.9-3.9-10.3,0-14.2l115.8-115.8
					c1.9-1.9,4.4-3,7.1-3h132.3c4.1,0,7.7,2.4,9.3,6.2c1.6,3.7,0.7,8.1-2.2,11l-108.7,108.7l108.7,108.7c2.9,2.9,3.7,7.2,2.2,11
					C1116.8,529.8,1113.2,532.2,1109.1,532.2z M981,512.2h103.9l-98.7-98.7c-3.9-3.9-3.9-10.3,0-14.2l98.7-98.7H981L875.2,406.4
					L981,512.2z M828,383.4c-2.7,0-5.2-1-7.1-3l-66.2-66.2c-3.9-3.9-3.9-10.3,0-14.2l215-215c1.9-1.9,4.4-3,7.1-3h132.3
					c4.1,0,7.7,2.4,9.3,6.2c1.6,3.7,0.7,8.1-2.2,11L835,380.4C833.2,382.3,830.6,383.4,828,383.4z M776,307.1l52,52l256.9-257H981
					L776,307.1z"/>
			</g>
			<g>
				<defs>
					<path id="SVGID_00000044890438013946104230000010473708138746407603_" d="M1109.1,532.2H976.8c-2.7,0-5.2-1-7.1-3L853.9,413.5
						c-3.9-3.9-3.9-10.3,0-14.2l115.8-115.8c1.9-1.9,4.4-3,7.1-3h132.3c4.1,0,7.7,2.4,9.3,6.2c1.6,3.7,0.7,8.1-2.2,11l-108.7,108.7
						l108.7,108.7c2.9,2.9,3.7,7.2,2.2,11C1116.8,529.8,1113.2,532.2,1109.1,532.2z M981,512.2h103.9l-98.7-98.7
						c-3.9-3.9-3.9-10.3,0-14.2l98.7-98.7H981L875.2,406.4L981,512.2z M828,383.4c-2.7,0-5.2-1-7.1-3l-66.2-66.2
						c-3.9-3.9-3.9-10.3,0-14.2l215-215c1.9-1.9,4.4-3,7.1-3h132.3c4.1,0,7.7,2.4,9.3,6.2c1.6,3.7,0.7,8.1-2.2,11L835,380.4
						C833.2,382.3,830.6,383.4,828,383.4z M776,307.1l52,52l256.9-257H981L776,307.1z"/>
				</defs>
				<clipPath id="SVGID_00000127729469339931172820000006786161005685718929_">
					<use xlink:href="#SVGID_00000044890438013946104230000010473708138746407603_"  style="overflow:visible;"/>
				</clipPath>
				<g style="clip-path:url(#SVGID_00000127729469339931172820000006786161005685718929_);">
					<g>
						<path class="st4" d="M927.2,482.6c-2.5,0-5.1-1-7.1-3l-66.2-66.2c-3.9-3.9-3.9-10.3,0-14.2l115.8-115.8c1.9-1.9,4.4-3,7.1-3
							h132.3c5.6,0,10,4.5,10,10c0,5.6-4.5,10-10,10H981L875.2,406.4l59,59.1c3.9,3.9,3.9,10.3,0,14.2
							C932.3,481.6,929.7,482.6,927.2,482.6z"/>
					</g>
				</g>
			</g>
		</g>
	</g>
	<g>
		<g>
			<g>
				<path id="SVGID_3_" class="st4" d="M1109.1,532.2H976.8c-2.7,0-5.2-1-7.1-3L853.9,413.5c-3.9-3.9-3.9-10.3,0-14.2l115.8-115.8
					c1.9-1.9,4.4-3,7.1-3h132.3c4.1,0,7.7,2.4,9.3,6.2c1.6,3.7,0.7,8.1-2.2,11l-108.7,108.7l108.7,108.7c2.9,2.9,3.7,7.2,2.2,11
					C1116.8,529.8,1113.2,532.2,1109.1,532.2z M981,512.2h103.9l-98.7-98.7c-3.9-3.9-3.9-10.3,0-14.2l98.7-98.7H981L875.2,406.4
					L981,512.2z M828,383.4c-2.7,0-5.2-1-7.1-3l-66.2-66.2c-3.9-3.9-3.9-10.3,0-14.2l215-215c1.9-1.9,4.4-3,7.1-3h132.3
					c4.1,0,7.7,2.4,9.3,6.2c1.6,3.7,0.7,8.1-2.2,11L835,380.4C833.2,382.3,830.6,383.4,828,383.4z M776,307.1l52,52l256.9-257H981
					L776,307.1z"/>
			</g>
			<g>
				<defs>
					<path id="SVGID_00000030478097667502095930000004478853960356431001_" d="M1109.1,532.2H976.8c-2.7,0-5.2-1-7.1-3L853.9,413.5
						c-3.9-3.9-3.9-10.3,0-14.2l115.8-115.8c1.9-1.9,4.4-3,7.1-3h132.3c4.1,0,7.7,2.4,9.3,6.2c1.6,3.7,0.7,8.1-2.2,11l-108.7,108.7
						l108.7,108.7c2.9,2.9,3.7,7.2,2.2,11C1116.8,529.8,1113.2,532.2,1109.1,532.2z M981,512.2h103.9l-98.7-98.7
						c-3.9-3.9-3.9-10.3,0-14.2l98.7-98.7H981L875.2,406.4L981,512.2z M828,383.4c-2.7,0-5.2-1-7.1-3l-66.2-66.2
						c-3.9-3.9-3.9-10.3,0-14.2l215-215c1.9-1.9,4.4-3,7.1-3h132.3c4.1,0,7.7,2.4,9.3,6.2c1.6,3.7,0.7,8.1-2.2,11L835,380.4
						C833.2,382.3,830.6,383.4,828,383.4z M776,307.1l52,52l256.9-257H981L776,307.1z"/>
				</defs>
				<clipPath id="SVGID_00000069396538257634719030000015747210544002076093_">
					<use xlink:href="#SVGID_00000030478097667502095930000004478853960356431001_"  style="overflow:visible;"/>
				</clipPath>
				<g style="clip-path:url(#SVGID_00000069396538257634719030000015747210544002076093_);">
					<path class="st4" d="M828,383.4c-2.7,0-5.2-1-7.1-3l-66.2-66.2c-3.9-3.9-3.9-10.3,0-14.2l215-215c1.9-1.9,4.4-3,7.1-3h132.3
						c4.1,0,7.7,2.4,9.3,6.2c1.6,3.7,0.7,8.1-2.2,11L835,380.4C833.2,382.3,830.6,383.4,828,383.4z M776,307.1l52,52l256.9-257H981
						L776,307.1z"/>
				</g>
			</g>
		</g>
	</g>
	<g>
		<g>
			<g>
				<path id="SVGID_5_" class="st4" d="M1109.1,532.2H976.8c-2.7,0-5.2-1-7.1-3L853.9,413.5c-3.9-3.9-3.9-10.3,0-14.2l115.8-115.8
					c1.9-1.9,4.4-3,7.1-3h132.3c4.1,0,7.7,2.4,9.3,6.2c1.6,3.7,0.7,8.1-2.2,11l-108.7,108.7l108.7,108.7c2.9,2.9,3.7,7.2,2.2,11
					C1116.8,529.8,1113.2,532.2,1109.1,532.2z M981,512.2h103.9l-98.7-98.7c-3.9-3.9-3.9-10.3,0-14.2l98.7-98.7H981L875.2,406.4
					L981,512.2z M828,383.4c-2.7,0-5.2-1-7.1-3l-66.2-66.2c-3.9-3.9-3.9-10.3,0-14.2l215-215c1.9-1.9,4.4-3,7.1-3h132.3
					c4.1,0,7.7,2.4,9.3,6.2c1.6,3.7,0.7,8.1-2.2,11L835,380.4C833.2,382.3,830.6,383.4,828,383.4z M776,307.1l52,52l256.9-257H981
					L776,307.1z"/>
			</g>
			<g>
				<defs>
					<path id="SVGID_00000074422934302374084340000013937059630584631440_" d="M1109.1,532.2H976.8c-2.7,0-5.2-1-7.1-3L853.9,413.5
						c-3.9-3.9-3.9-10.3,0-14.2l115.8-115.8c1.9-1.9,4.4-3,7.1-3h132.3c4.1,0,7.7,2.4,9.3,6.2c1.6,3.7,0.7,8.1-2.2,11l-108.7,108.7
						l108.7,108.7c2.9,2.9,3.7,7.2,2.2,11C1116.8,529.8,1113.2,532.2,1109.1,532.2z M981,512.2h103.9l-98.7-98.7
						c-3.9-3.9-3.9-10.3,0-14.2l98.7-98.7H981L875.2,406.4L981,512.2z M828,383.4c-2.7,0-5.2-1-7.1-3l-66.2-66.2
						c-3.9-3.9-3.9-10.3,0-14.2l215-215c1.9-1.9,4.4-3,7.1-3h132.3c4.1,0,7.7,2.4,9.3,6.2c1.6,3.7,0.7,8.1-2.2,11L835,380.4
						C833.2,382.3,830.6,383.4,828,383.4z M776,307.1l52,52l256.9-257H981L776,307.1z"/>
				</defs>
				<clipPath id="SVGID_00000064312899652367789780000016369126492161613967_">
					<use xlink:href="#SVGID_00000074422934302374084340000013937059630584631440_"  style="overflow:visible;"/>
				</clipPath>
				<g style="clip-path:url(#SVGID_00000064312899652367789780000016369126492161613967_);">
					<path class="st4" d="M1109.1,532.2H976.8c-2.7,0-5.2-1-7.1-3l-49.6-49.6c-3.9-3.9-3.9-10.3,0-14.2c3.9-3.9,10.3-3.9,14.2,0
						l46.7,46.6h103.9l-98.7-98.6c-3.9-3.9-3.9-10.3,0-14.2c3.9-3.9,10.3-3.9,14.2,0l115.8,115.8c2.9,2.9,3.7,7.2,2.2,11
						C1116.8,529.8,1113.2,532.2,1109.1,532.2z"/>
				</g>
			</g>
		</g>
	</g>
	<g>
		<g>
			<g>
				<path id="SVGID_7_" class="st4" d="M1109.1,532.2H976.8c-2.7,0-5.2-1-7.1-3L853.9,413.5c-3.9-3.9-3.9-10.3,0-14.2l115.8-115.8
					c1.9-1.9,4.4-3,7.1-3h132.3c4.1,0,7.7,2.4,9.3,6.2c1.6,3.7,0.7,8.1-2.2,11l-108.7,108.7l108.7,108.7c2.9,2.9,3.7,7.2,2.2,11
					C1116.8,529.8,1113.2,532.2,1109.1,532.2z M981,512.2h103.9l-98.7-98.7c-3.9-3.9-3.9-10.3,0-14.2l98.7-98.7H981L875.2,406.4
					L981,512.2z M828,383.4c-2.7,0-5.2-1-7.1-3l-66.2-66.2c-3.9-3.9-3.9-10.3,0-14.2l215-215c1.9-1.9,4.4-3,7.1-3h132.3
					c4.1,0,7.7,2.4,9.3,6.2c1.6,3.7,0.7,8.1-2.2,11L835,380.4C833.2,382.3,830.6,383.4,828,383.4z M776,307.1l52,52l256.9-257H981
					L776,307.1z"/>
			</g>
		</g>
	</g>
	<g>
		<g>
			<g>
				<path id="SVGID_9_" class="st4" d="M1109.1,532.2H976.8c-2.7,0-5.2-1-7.1-3L853.9,413.5c-3.9-3.9-3.9-10.3,0-14.2l115.8-115.8
					c1.9-1.9,4.4-3,7.1-3h132.3c4.1,0,7.7,2.4,9.3,6.2c1.6,3.7,0.7,8.1-2.2,11l-108.7,108.7l108.7,108.7c2.9,2.9,3.7,7.2,2.2,11
					C1116.8,529.8,1113.2,532.2,1109.1,532.2z M981,512.2h103.9l-98.7-98.7c-3.9-3.9-3.9-10.3,0-14.2l98.7-98.7H981L875.2,406.4
					L981,512.2z M828,383.4c-2.7,0-5.2-1-7.1-3l-66.2-66.2c-3.9-3.9-3.9-10.3,0-14.2l215-215c1.9-1.9,4.4-3,7.1-3h132.3
					c4.1,0,7.7,2.4,9.3,6.2c1.6,3.7,0.7,8.1-2.2,11L835,380.4C833.2,382.3,830.6,383.4,828,383.4z M776,307.1l52,52l256.9-257H981
					L776,307.1z"/>
			</g>
			<g>
				<defs>
					<path id="SVGID_00000005225009130579197720000003230458782581795475_" d="M1109.1,532.2H976.8c-2.7,0-5.2-1-7.1-3L853.9,413.5
						c-3.9-3.9-3.9-10.3,0-14.2l115.8-115.8c1.9-1.9,4.4-3,7.1-3h132.3c4.1,0,7.7,2.4,9.3,6.2c1.6,3.7,0.7,8.1-2.2,11l-108.7,108.7
						l108.7,108.7c2.9,2.9,3.7,7.2,2.2,11C1116.8,529.8,1113.2,532.2,1109.1,532.2z M828,383.4c-2.7,0-5.2-1-7.1-3l-66.2-66.2
						c-3.9-3.9-3.9-10.3,0-14.2l215-215c1.9-1.9,4.4-3,7.1-3h132.3c4.1,0,7.7,2.4,9.3,6.2c1.6,3.7,0.7,8.1-2.2,11L835,380.4
						C833.2,382.3,830.6,383.4,828,383.4z M776,307.1l52,52l256.9-257H981L776,307.1z"/>
				</defs>
				<clipPath id="SVGID_00000147910630432690041330000010626119840527902089_">
					<use xlink:href="#SVGID_00000005225009130579197720000003230458782581795475_"  style="overflow:visible;"/>
				</clipPath>
				<g style="clip-path:url(#SVGID_00000147910630432690041330000010626119840527902089_);">
					<g>
						<path class="st4" d="M927.2,482.6c-2.5,0-5.1-1-7.1-3l-66.2-66.2c-3.9-3.9-3.9-10.3,0-14.2l66.2-66.2c3.7-3.7,10.5-3.7,14.2,0
							l66.2,66.2c3.9,3.9,3.9,10.3,0,14.2c-3.9,3.9-10.3,3.9-14.2,0l-59.1-59.1l-52,52l59.1,59.1c3.9,3.9,3.9,10.3,0,14.2
							C932.3,481.6,929.8,482.6,927.2,482.6z"/>
					</g>
				</g>
			</g>
		</g>
	</g>
	<g>
		<path class="st4" d="M1109.1,532.2H976.8c-2.7,0-5.2-1-7.1-3L853.9,413.5c-3.9-3.9-3.9-10.3,0-14.2l115.8-115.8
			c1.9-1.9,4.4-3,7.1-3h132.3c4.1,0,7.7,2.4,9.3,6.2c1.6,3.7,0.7,8.1-2.2,11l-108.7,108.7l108.7,108.7c2.9,2.9,3.7,7.2,2.2,11
			C1116.8,529.8,1113.2,532.2,1109.1,532.2z M828,383.4c-2.7,0-5.2-1-7.1-3l-66.2-66.2c-3.9-3.9-3.9-10.3,0-14.2l215-215
			c1.9-1.9,4.4-3,7.1-3h132.3c4.1,0,7.7,2.4,9.3,6.2c1.6,3.7,0.7,8.1-2.2,11L835,380.4C833.2,382.3,830.6,383.4,828,383.4z"/>
	</g>
</g>
</svg>
