<svg xmlns="http://www.w3.org/2000/svg" id="Layer_1" x="0" y="0" version="1.1" viewBox="0 0 50 50" xml:space="preserve"><style>.st1,.st3,.st4{fill:none;stroke-linecap:round;stroke-linejoin:round;stroke-miterlimit:10}.st1{stroke-width:2.5;stroke:#454444}.st3,.st4{stroke:#444}.st4{stroke-width:.5}</style><path fill="#7df4eb" d="M49.2 31.8l-.7-25.5-.4.1.2-.1c.3-.5-.4-.6-.1-1l-.5-.2c-.5-.5-1.8-.2-2.3-.7L3.3 4.2c-.5.6-.8.8-1.3 1.4l-.6 15.5c.6.5.2 1.2.5 1.7l-1.3.4 1.1 14.6 16.9 1.6-3.9 4.6 34.5-12.2z"/><path d="M18.5 38.9H5.6c-2.3 0-4.2-1.9-4.2-4.2V8.3c0-2.3 1.9-4.2 4.2-4.2h38.7c2.3 0 4.2 1.9 4.2 4.2v25.3m-9.1 5.3h-7.8" class="st1"/><path fill="none" stroke="#454444" stroke-linecap="round" stroke-linejoin="round" stroke-miterlimit="10" stroke-width=".25" d="M1.9 30h45.4"/><path d="M18.2 41.9v-3h13.9v3m-13.9 0c-4.7 0-4.8 4.4-4.8 4.4h23.1s.8-4.4-4.4-4.4" class="st1"/><path d="M21.8 33.9H4.2m41.5 0H28.1" class="st3"/><path d="M22.9 33.9c0-1.2.9-2.1 2.1-2.1 1.2 0 2.1.9 2.1 2.1 0 1.2-.9 2.1-2.1 2.1-1.2 0-2.1-.9-2.1-2.1z" class="st4"/><path id="XMLID_00000170988948732743187320000017140766524073817989_" fill="#444" stroke="#444" stroke-linecap="round" stroke-linejoin="round" stroke-miterlimit="10" d="M8.3 15.5h3"/><path d="M9.6 15.3v-5.1h15.9v16.1H9.6v-4.5m5.3-11.3v15.4m4.8-10.3h-4.8m7.8.1h2.8" class="st3"/><path d="M25.4 20.7h-6.2v5.6m-7.9-5h-3" class="st3"/><path d="M31.1 7.9v20.5m3.7-18.5h4.9m-4.9 3.5h8.4m-8.4 2h6.1m-6.1 1.8h8.4m-8.4 2h6.1m-6.1 2h8.4m-8.4 1.9h6.1M34.8 25h8.4m-8.4 1.9h6.1" class="st4"/></svg>