<?xml version="1.0" encoding="utf-8"?>
<!-- Generator: Adobe Illustrator 26.5.0, SVG Export Plug-In . SVG Version: 6.00 Build 0)  -->
<svg version="1.1" id="Layer_1" xmlns="http://www.w3.org/2000/svg" xmlns:xlink="http://www.w3.org/1999/xlink" x="0px" y="0px"
	 viewBox="0 0 50 50" style="enable-background:new 0 0 50 50;" xml:space="preserve">
<style type="text/css">
	.st0{fill:#46B8B0;}
	.st1{fill:#4ECDC4;}
	.st2{fill:#444444;}
	.st3{clip-path:url(#SVGID_00000067213338319683606030000002914468698404074680_);}
	.st4{clip-path:url(#SVGID_00000063627932669482566570000000510502354203458695_);}
	.st5{clip-path:url(#SVGID_00000074401867727126196490000007776900847561056435_);}
	.st6{clip-path:url(#SVGID_00000116208988367929613410000009437831242303347874_);}
	.st7{fill:none;stroke:#444444;stroke-width:2.5;stroke-linecap:round;stroke-linejoin:round;stroke-miterlimit:10;}
</style>
<g>
	<g>
		<polygon class="st0" points="47.6,25.6 47.8,29.6 47.7,31.7 6.7,46.6 3.5,44.6 3.1,29.6 35.4,15 47.5,15 47.9,19.8 		"/>
	</g>
	<g>
		<polygon class="st1" points="15.1,14.7 34.7,14.9 44.2,15 3.1,29.6 3.1,7.2 5.7,3.4 11,3.4 14.8,6.8 		"/>
	</g>
	<g>
		<path class="st2" d="M21.4,20.4c0.2-0.2,0.2-0.6,0-0.9l-0.7-0.7c0,0,0,0,0,0c0,0,0,0,0,0c0,0,0,0-0.1,0c0,0,0,0,0,0c0,0,0,0-0.1,0
			c0,0,0,0,0,0c0,0-0.1,0-0.1,0c0,0,0,0,0,0c0,0,0,0,0,0c0,0-0.1,0-0.1,0c0,0,0,0-0.1,0c0,0,0,0-0.1,0c0,0,0,0-0.1,0c0,0,0,0,0,0
			c0,0,0,0-0.1,0c0,0,0,0,0,0l-0.7,0.7c-0.2,0.2-0.2,0.6,0,0.9c0.1,0.1,0.3,0.2,0.4,0.2c0,0,0.1,0,0.1,0v19.9c-0.2,0-0.4,0-0.6,0.2
			c-0.2,0.2-0.2,0.6,0,0.9l0.7,0.7c0.1,0.1,0.3,0.2,0.4,0.2s0.3-0.1,0.4-0.2l0.7-0.7c0.2-0.2,0.2-0.6,0-0.9
			c-0.1-0.2-0.4-0.2-0.6-0.2V20.6C21,20.6,21.2,20.5,21.4,20.4z"/>
		<path class="st2" d="M41.3,42.4c-0.2-0.2-0.6-0.2-0.8,0c-0.2,0.1-0.2,0.4-0.2,0.6H27.6c0-0.2,0-0.4-0.2-0.6
			c-0.2-0.2-0.6-0.2-0.8,0l-0.7,0.7c-0.2,0.2-0.2,0.6,0,0.8l0.7,0.7c0.1,0.1,0.3,0.2,0.4,0.2c0.1,0,0.3-0.1,0.4-0.2
			c0.2-0.1,0.2-0.4,0.2-0.6h12.7c0,0.2,0,0.4,0.2,0.6c0.1,0.1,0.3,0.2,0.4,0.2c0.2,0,0.3-0.1,0.4-0.2L42,44c0.2-0.2,0.2-0.6,0-0.8
			L41.3,42.4z"/>
		<path class="st2" d="M39.7,46.7H9.2c-2.6,0-4.9-1.7-5.5-4.2c-1.1-4.9,4.4-9.1,9.3-5.3c1.2,0.9,1.6,2.4,1.5,4
			c0,0.3,0.3,0.6,0.6,0.6c0.3,0,0.6-0.3,0.6-0.6V15.5h31.5v26.9c0.1,0.6,1,0.7,1.2-0.1V14.9c0-0.3-0.3-0.6-0.6-0.6H15.6V9.1
			c0-3.2-2.1-6.1-5.3-6.8c-4.3-0.9-8,2.4-8,6.5v32.4c0,3.7,3,6.7,6.7,6.7h30.6C40.4,47.8,40.4,46.8,39.7,46.7z M3.5,8.9
			c0-3.4,3.1-6.1,6.6-5.3c2.6,0.5,4.3,2.9,4.3,5.6v28.4c-1.2-1.7-3.2-2.9-5.5-2.9c-2.3,0-4.3,1.1-5.5,2.9V8.9z"/>
	</g>
	<g transform="matrix(.03881911 0 0 .03881916 -.560501 8.162276)">
		<g>
			<g>
				<g>
					<path id="SVGID_1_" class="st2" d="M1073.3,848.2h-169c-3.4,0-6.6-1.3-9.1-3.8L747.2,696.4c-5-5-5-13.2,0-18.1l148-148
						c2.4-2.4,5.6-3.8,9.1-3.8h169c5.2,0,9.9,3.1,11.9,7.9s0.9,10.3-2.8,14L943.6,687.4l138.9,138.9c3.7,3.7,4.8,9.2,2.8,14
						C1083.2,845,1078.5,848.2,1073.3,848.2z M909.5,822.5h132.8L916.3,696.4c-5-5-5-13.2,0-18.1l126.1-126.1H909.5L774.4,687.3
						L909.5,822.5z M714,657.9c-3.4,0-6.6-1.3-9.1-3.8l-84.5-84.5c-5-5-5-13.2,0-18.1l274.8-274.8c2.4-2.4,5.6-3.8,9.1-3.8h169
						c5.2,0,9.9,3.1,11.9,7.9c2,4.8,0.9,10.3-2.8,14L723.1,654.1C720.7,656.6,717.4,657.9,714,657.9z M647.7,560.5l66.4,66.4
						l328.3-328.3H909.5L647.7,560.5z"/>
				</g>
				<g>
					<defs>
						<path id="SVGID_00000168829064613328905080000012954099216340212613_" d="M1073.3,848.2h-169c-3.4,0-6.6-1.3-9.1-3.8
							L747.2,696.4c-5-5-5-13.2,0-18.1l148-148c2.4-2.4,5.6-3.8,9.1-3.8h169c5.2,0,9.9,3.1,11.9,7.9s0.9,10.3-2.8,14L943.6,687.4
							l138.9,138.9c3.7,3.7,4.8,9.2,2.8,14C1083.2,845,1078.5,848.2,1073.3,848.2z M909.5,822.5h132.8L916.3,696.4
							c-5-5-5-13.2,0-18.1l126.1-126.1H909.5L774.4,687.3L909.5,822.5z M714,657.9c-3.4,0-6.6-1.3-9.1-3.8l-84.5-84.5
							c-5-5-5-13.2,0-18.1l274.8-274.8c2.4-2.4,5.6-3.8,9.1-3.8h169c5.2,0,9.9,3.1,11.9,7.9c2,4.8,0.9,10.3-2.8,14L723.1,654.1
							C720.7,656.6,717.4,657.9,714,657.9z M647.7,560.5l66.4,66.4l328.3-328.3H909.5L647.7,560.5z"/>
					</defs>
					<clipPath id="SVGID_00000042706386295497259270000006235640039010002333_">
						<use xlink:href="#SVGID_00000168829064613328905080000012954099216340212613_"  style="overflow:visible;"/>
					</clipPath>
					<g style="clip-path:url(#SVGID_00000042706386295497259270000006235640039010002333_);">
						<g>
							<path class="st2" d="M840.8,784.8c-3.3,0-6.6-1.3-9.1-3.8l-84.5-84.5c-5-5-5-13.2,0-18.1l147.9-148c2.4-2.4,5.6-3.8,9.1-3.8
								h169c7.1,0,12.8,5.8,12.8,12.8c0,7.1-5.8,12.8-12.8,12.8H909.5L774.5,687.3l75.4,75.5c5,5,5,13.2,0,18.1
								C847.3,783.5,844.1,784.8,840.8,784.8z"/>
						</g>
					</g>
				</g>
			</g>
		</g>
		<g>
			<g>
				<g>
					<path id="SVGID_3_" class="st2" d="M1073.3,848.2h-169c-3.4,0-6.6-1.3-9.1-3.8L747.2,696.4c-5-5-5-13.2,0-18.1l148-148
						c2.4-2.4,5.6-3.8,9.1-3.8h169c5.2,0,9.9,3.1,11.9,7.9s0.9,10.3-2.8,14L943.6,687.4l138.9,138.9c3.7,3.7,4.8,9.2,2.8,14
						C1083.2,845,1078.5,848.2,1073.3,848.2z M909.5,822.5h132.8L916.3,696.4c-5-5-5-13.2,0-18.1l126.1-126.1H909.5L774.4,687.3
						L909.5,822.5z M714,657.9c-3.4,0-6.6-1.3-9.1-3.8l-84.5-84.5c-5-5-5-13.2,0-18.1l274.8-274.8c2.4-2.4,5.6-3.8,9.1-3.8h169
						c5.2,0,9.9,3.1,11.9,7.9c2,4.8,0.9,10.3-2.8,14L723.1,654.1C720.7,656.6,717.4,657.9,714,657.9z M647.7,560.5l66.4,66.4
						l328.3-328.3H909.5L647.7,560.5z"/>
				</g>
				<g>
					<defs>
						<path id="SVGID_00000062185127848073029300000006807077605685561763_" d="M1073.3,848.2h-169c-3.4,0-6.6-1.3-9.1-3.8
							L747.2,696.4c-5-5-5-13.2,0-18.1l148-148c2.4-2.4,5.6-3.8,9.1-3.8h169c5.2,0,9.9,3.1,11.9,7.9s0.9,10.3-2.8,14L943.6,687.4
							l138.9,138.9c3.7,3.7,4.8,9.2,2.8,14C1083.2,845,1078.5,848.2,1073.3,848.2z M909.5,822.5h132.8L916.3,696.4
							c-5-5-5-13.2,0-18.1l126.1-126.1H909.5L774.4,687.3L909.5,822.5z M714,657.9c-3.4,0-6.6-1.3-9.1-3.8l-84.5-84.5
							c-5-5-5-13.2,0-18.1l274.8-274.8c2.4-2.4,5.6-3.8,9.1-3.8h169c5.2,0,9.9,3.1,11.9,7.9c2,4.8,0.9,10.3-2.8,14L723.1,654.1
							C720.7,656.6,717.4,657.9,714,657.9z M647.7,560.5l66.4,66.4l328.3-328.3H909.5L647.7,560.5z"/>
					</defs>
					<clipPath id="SVGID_00000057859333297851979800000011526121698510491031_">
						<use xlink:href="#SVGID_00000062185127848073029300000006807077605685561763_"  style="overflow:visible;"/>
					</clipPath>
					<g style="clip-path:url(#SVGID_00000057859333297851979800000011526121698510491031_);">
						<path class="st2" d="M714,657.9c-3.4,0-6.6-1.3-9.1-3.8l-84.5-84.5c-5-5-5-13.2,0-18.1l274.8-274.8c2.4-2.4,5.6-3.8,9.1-3.8
							h169c5.2,0,9.9,3.1,11.9,7.9c2,4.8,0.9,10.3-2.8,14L723.1,654.1C720.7,656.6,717.4,657.9,714,657.9z M647.7,560.5l66.4,66.4
							l328.3-328.3H909.5L647.7,560.5z"/>
					</g>
				</g>
			</g>
		</g>
		<g>
			<g>
				<g>
					<path id="SVGID_5_" class="st2" d="M1073.3,848.2h-169c-3.4,0-6.6-1.3-9.1-3.8L747.2,696.4c-5-5-5-13.2,0-18.1l148-148
						c2.4-2.4,5.6-3.8,9.1-3.8h169c5.2,0,9.9,3.1,11.9,7.9s0.9,10.3-2.8,14L943.6,687.4l138.9,138.9c3.7,3.7,4.8,9.2,2.8,14
						C1083.2,845,1078.5,848.2,1073.3,848.2z M909.5,822.5h132.8L916.3,696.4c-5-5-5-13.2,0-18.1l126.1-126.1H909.5L774.4,687.3
						L909.5,822.5z M714,657.9c-3.4,0-6.6-1.3-9.1-3.8l-84.5-84.5c-5-5-5-13.2,0-18.1l274.8-274.8c2.4-2.4,5.6-3.8,9.1-3.8h169
						c5.2,0,9.9,3.1,11.9,7.9c2,4.8,0.9,10.3-2.8,14L723.1,654.1C720.7,656.6,717.4,657.9,714,657.9z M647.7,560.5l66.4,66.4
						l328.3-328.3H909.5L647.7,560.5z"/>
				</g>
				<g>
					<defs>
						<path id="SVGID_00000064332109749823876000000008533123035095888306_" d="M1073.3,848.2h-169c-3.4,0-6.6-1.3-9.1-3.8
							L747.2,696.4c-5-5-5-13.2,0-18.1l148-148c2.4-2.4,5.6-3.8,9.1-3.8h169c5.2,0,9.9,3.1,11.9,7.9s0.9,10.3-2.8,14L943.6,687.4
							l138.9,138.9c3.7,3.7,4.8,9.2,2.8,14C1083.2,845,1078.5,848.2,1073.3,848.2z M909.5,822.5h132.8L916.3,696.4
							c-5-5-5-13.2,0-18.1l126.1-126.1H909.5L774.4,687.3L909.5,822.5z M714,657.9c-3.4,0-6.6-1.3-9.1-3.8l-84.5-84.5
							c-5-5-5-13.2,0-18.1l274.8-274.8c2.4-2.4,5.6-3.8,9.1-3.8h169c5.2,0,9.9,3.1,11.9,7.9c2,4.8,0.9,10.3-2.8,14L723.1,654.1
							C720.7,656.6,717.4,657.9,714,657.9z M647.7,560.5l66.4,66.4l328.3-328.3H909.5L647.7,560.5z"/>
					</defs>
					<clipPath id="SVGID_00000031890054409374601040000001289144082333601454_">
						<use xlink:href="#SVGID_00000064332109749823876000000008533123035095888306_"  style="overflow:visible;"/>
					</clipPath>
					<g style="clip-path:url(#SVGID_00000031890054409374601040000001289144082333601454_);">
						<path class="st2" d="M1073.3,848.2h-169c-3.4,0-6.6-1.3-9.1-3.8L831.7,781c-5-5-5-13.2,0-18.1c5-5,13.2-5,18.1,0l59.7,59.6
							h132.8l-126.1-126c-5-5-5-13.2,0-18.1s13.2-5,18.1,0l147.9,147.9c3.7,3.7,4.8,9.2,2.8,14
							C1083.2,845,1078.5,848.2,1073.3,848.2z"/>
					</g>
				</g>
			</g>
		</g>
		<g>
			<g>
				<g>
					<path id="SVGID_7_" class="st2" d="M1073.3,848.2h-169c-3.4,0-6.6-1.3-9.1-3.8L747.2,696.4c-5-5-5-13.2,0-18.1l148-148
						c2.4-2.4,5.6-3.8,9.1-3.8h169c5.2,0,9.9,3.1,11.9,7.9s0.9,10.3-2.8,14L943.6,687.4l138.9,138.9c3.7,3.7,4.8,9.2,2.8,14
						C1083.2,845,1078.5,848.2,1073.3,848.2z M909.5,822.5h132.8L916.3,696.4c-5-5-5-13.2,0-18.1l126.1-126.1H909.5L774.4,687.3
						L909.5,822.5z M714,657.9c-3.4,0-6.6-1.3-9.1-3.8l-84.5-84.5c-5-5-5-13.2,0-18.1l274.8-274.8c2.4-2.4,5.6-3.8,9.1-3.8h169
						c5.2,0,9.9,3.1,11.9,7.9c2,4.8,0.9,10.3-2.8,14L723.1,654.1C720.7,656.6,717.4,657.9,714,657.9z M647.7,560.5l66.4,66.4
						l328.3-328.3H909.5L647.7,560.5z"/>
				</g>
			</g>
		</g>
		<g>
			<g>
				<g>
					<path id="SVGID_9_" class="st2" d="M1073.3,848.2h-169c-3.4,0-6.6-1.3-9.1-3.8L747.2,696.4c-5-5-5-13.2,0-18.1l148-148
						c2.4-2.4,5.6-3.8,9.1-3.8h169c5.2,0,9.9,3.1,11.9,7.9s0.9,10.3-2.8,14L943.6,687.4l138.9,138.9c3.7,3.7,4.8,9.2,2.8,14
						C1083.2,845,1078.5,848.2,1073.3,848.2z M909.5,822.5h132.8L916.3,696.4c-5-5-5-13.2,0-18.1l126.1-126.1H909.5L774.4,687.3
						L909.5,822.5z M714,657.9c-3.4,0-6.6-1.3-9.1-3.8l-84.5-84.5c-5-5-5-13.2,0-18.1l274.8-274.8c2.4-2.4,5.6-3.8,9.1-3.8h169
						c5.2,0,9.9,3.1,11.9,7.9c2,4.8,0.9,10.3-2.8,14L723.1,654.1C720.7,656.6,717.4,657.9,714,657.9z M647.7,560.5l66.4,66.4
						l328.3-328.3H909.5L647.7,560.5z"/>
				</g>
				<g>
					<defs>
						<path id="SVGID_00000063627813247766230710000013731553986296025739_" d="M1073.3,848.2h-169c-3.4,0-6.6-1.3-9.1-3.8
							L747.2,696.4c-5-5-5-13.2,0-18.1l148-148c2.4-2.4,5.6-3.8,9.1-3.8h169c5.2,0,9.9,3.1,11.9,7.9s0.9,10.3-2.8,14L943.6,687.4
							l138.9,138.9c3.7,3.7,4.8,9.2,2.8,14C1083.2,845,1078.5,848.2,1073.3,848.2z M909.5,822.5h132.8L916.3,696.4
							c-5-5-5-13.2,0-18.1l126.1-126.1H909.5L774.4,687.3L909.5,822.5z M714,657.9c-3.4,0-6.6-1.3-9.1-3.8l-84.5-84.5
							c-5-5-5-13.2,0-18.1l274.8-274.8c2.4-2.4,5.6-3.8,9.1-3.8h169c5.2,0,9.9,3.1,11.9,7.9c2,4.8,0.9,10.3-2.8,14L723.1,654.1
							C720.7,656.6,717.4,657.9,714,657.9z M647.7,560.5l66.4,66.4l328.3-328.3H909.5L647.7,560.5z"/>
					</defs>
					<clipPath id="SVGID_00000029765474776638157610000015901380274106595228_">
						<use xlink:href="#SVGID_00000063627813247766230710000013731553986296025739_"  style="overflow:visible;"/>
					</clipPath>
					<g style="clip-path:url(#SVGID_00000029765474776638157610000015901380274106595228_);">
						<g>
							<path class="st2" d="M840.8,784.8c-3.3,0-6.6-1.3-9.1-3.8l-84.5-84.6c-5-5-5-13.2,0-18.1l84.5-84.5c4.8-4.8,13.4-4.8,18.1,0
								l84.6,84.5c5,5,5,13.2,0,18.1c-5,5-13.2,5-18.1,0l-75.5-75.5l-66.4,66.4l75.5,75.6c5,5,5,13.2,0,18.1
								C847.4,783.5,844.2,784.8,840.8,784.8z"/>
						</g>
					</g>
				</g>
			</g>
		</g>
		<g>
			<path class="st2" d="M1073.3,848.2h-169c-3.4,0-6.6-1.3-9.1-3.8L747.2,696.4c-5-5-5-13.2,0-18.1l148-148c2.4-2.4,5.6-3.8,9.1-3.8
				h169c5.2,0,9.9,3.1,11.9,7.9s0.9,10.3-2.8,14L943.6,687.4l138.9,138.9c3.7,3.7,4.8,9.2,2.8,14
				C1083.2,845,1078.5,848.2,1073.3,848.2z M909.5,822.5h132.8L916.3,696.4c-5-5-5-13.2,0-18.1l126.1-126.1H909.5L774.4,687.3
				L909.5,822.5z M714,657.9c-3.4,0-6.6-1.3-9.1-3.8l-84.5-84.5c-5-5-5-13.2,0-18.1l274.8-274.8c2.4-2.4,5.6-3.8,9.1-3.8h169
				c5.2,0,9.9,3.1,11.9,7.9c2,4.8,0.9,10.3-2.8,14L723.1,654.1C720.7,656.6,717.4,657.9,714,657.9z M647.7,560.5l66.4,66.4
				l328.3-328.3H909.5L647.7,560.5z"/>
		</g>
	</g>
	<path class="st7" d="M47.9,42.9V14.4l-31.8-0.5L16,7.9c0,0-0.6-4.7-4.3-5.9c-0.5-0.1-1.6-0.2-2.9-0.2c-1.2,0-2.3,0-3.2,0.5
		C1.7,4.4,1.7,8.9,1.7,8.9l0,32.2c0,0,0.4,2.6,1.1,3.8c0.6,1,1.3,1.9,2,2.3c1,0.7,2.6,1.1,4.5,1.1c1.7,0,31,0,31,0"/>
</g>
</svg>
