<svg xmlns="http://www.w3.org/2000/svg" id="Layer_1" x="0" y="0" version="1.1" viewBox="0 0 50 50" xml:space="preserve"><style>.st3{stroke-width:.5}.st3,.st4{fill:none;stroke:#444;stroke-miterlimit:10}</style><path fill="#319327" d="M19 18.4l7.3 2.3-6.2 4.4.1 7.6-6.2-4.5-7.2 2.4 2.5-7.2-4.6-6.1 7.6.1 4.4-6.2z"/><path fill="#5aba52" d="M23.5 4.8H4c-1.5 0-2.7 4.9-2.7 6.4l.3 13.9.1 9.6.7 12.2 1.2.8L27 39.4l-.4-15.2c4.9-.2 8.8-.2 16.4 3.1l4.8-13.2c.1-1.4-3.9-3.4-5.3-3.3L27.6 7.5l-.4-.9c-.1-1.4-2.3-1.8-3.7-1.8z"/><path fill="none" stroke="#444" stroke-linecap="round" stroke-linejoin="round" stroke-miterlimit="10" stroke-width="2.5" d="M26.5 41.9V23.4h0c0 .1 1.9 1.2 4.9 1.2 5.2 0 9.4 1.1 11.7 3.8l5.2-14.2s-3-3.8-9.6-4.2c-6.7-.4-8.2-1.7-10.8-3.2h0L26.6 6c-1.1-1-2.1-1.3-3.9-1.3H5c-1.8 0-3.2 1.5-3.2 3.2v36.3c0 1.8 1.5 3.2 3.2 3.2h15"/><path d="M10.8 8.4h6.1c1.3 0 2.4-1.1 2.4-2.4v-.6c0-.3-.3-.6-.6-.6H9c-.4 0-.6.2-.6.6V6c0 1.3 1.1 2.4 2.4 2.4z" class="st3"/><circle cx="14.5" cy="42.8" r="2.1" class="st3"/><path d="M26.7 7.8l-4.3 12c-.1.2 0 .4.1.6 5.6 5.5 14.7 1.3 20.3 7.1l4.7-13.1c-5.4-5.6-14.3-1.8-19.9-6.7-.3-.4-.8-.3-.9.1z" class="st4"/><path d="M26.4 6.8l-.3-.1c-.3-.1-.6 0-.7.3L14.1 38.9c-.1.3 0 .6.3.7l.3.1c.3.1.6 0 .7-.3L26.8 7.5c.1-.3-.1-.6-.4-.7z" class="st4"/><path fill="none" stroke="#444" stroke-linecap="round" stroke-linejoin="round" stroke-miterlimit="10" stroke-width=".5" d="M28.5 10.7s4.6 3.6 8.9 3.2c4.3-.3 6.7 1.4 6.7 1.4m-18.3 2.8s4.6 3.6 8.9 3.2 6.7 1.4 6.7 1.4m-13.8-9.5s4.6 3.6 8.9 3.2 6.7 1.4 6.7 1.4m-16.5-2.1s4.6 3.6 8.9 3.2 6.7 1.4 6.7 1.4"/></svg>