<?xml version="1.0" encoding="UTF-8"?>
<svg id="Layer_1" xmlns="http://www.w3.org/2000/svg" version="1.1" xmlns:xlink="http://www.w3.org/1999/xlink" viewBox="0 0 50 50">
  <!-- Generator: Adobe Illustrator 29.2.1, SVG Export Plug-In . SVG Version: 2.1.0 Build 116)  -->
  <defs>
    <style>
      .st0 {
        stroke: #454444;
      }

      .st0, .st1, .st2, .st3 {
        fill: none;
      }

      .st0, .st1, .st3 {
        stroke-linecap: round;
        stroke-linejoin: round;
      }

      .st4 {
        fill: #ff6b6b;
      }

      .st1 {
        stroke-width: 2.5px;
      }

      .st1, .st3 {
        stroke: #444;
      }

      .st5 {
        clip-path: url(#clippath-1);
      }

      .st6 {
        clip-path: url(#clippath-3);
      }

      .st7 {
        clip-path: url(#clippath-2);
      }

      .st3 {
        stroke-width: .5px;
      }

      .st8 {
        clip-path: url(#clippath);
      }
    </style>
    <clipPath id="clippath">
      <path class="st2" d="M23.9,25.5l-6.8,6.8,6.8,6.8h-7.7l-2.9-2.9-3.9-3.9,6.8-6.8h7.7ZM16.2,13.9L3.7,26.4l3.9,3.9L23.9,13.9h-7.7Z"/>
    </clipPath>
    <clipPath id="clippath-1">
      <path class="st2" d="M23.9,25.5l-6.8,6.8,6.8,6.8h-7.7l-2.9-2.9-3.9-3.9,6.8-6.8h7.7ZM16.2,13.9L3.7,26.4l3.9,3.9L23.9,13.9h-7.7Z"/>
    </clipPath>
    <clipPath id="clippath-2">
      <path class="st2" d="M23.9,25.5l-6.8,6.8,6.8,6.8h-7.7l-2.9-2.9-3.9-3.9,6.8-6.8h7.7ZM16.2,13.9L3.7,26.4l3.9,3.9L23.9,13.9h-7.7Z"/>
    </clipPath>
    <clipPath id="clippath-3">
      <path class="st2" d="M23.9,25.5l-6.8,6.8,6.8,6.8h-7.7l-2.9-2.9-3.9-3.9,6.8-6.8h7.7ZM16.2,13.9L3.7,26.4l3.9,3.9L23.9,13.9h-7.7Z"/>
    </clipPath>
  </defs>
  <path class="st4" d="M39.7,3.3l-33.4.2c-.4.6-1.7,1.6-1.8,5.8l-.2,12.9-2.6,3.5,2.4,5.5.7,10.8c.1,1.3,1.2,2.3,2.5,2.4l10.1.5,29.6-11.4.2-7.6.2-11.4,1.3-9.2-1.8-2.6c0-.2-.2-.5-.5-.6-2-1.3-6.3-.1-6.8,1.3Z"/>
  <path class="st1" d="M28.8,44.9H8.7s-4-.6-4-4.2v-9.3c0-1.7-3-3.1-3-4.9s3-3.6,3-5.1V6.7s.2-3,3.1-3.3h31.6s3.1-2.9,5-2.2,3.9,1.6,3.9,9.8-.5,24.6-.5,24.6"/>
  <path class="st3" d="M29.9,50s-1.6-3.4-.9-11.1c-.9-4.1-1-5.6-2.3-7.5l.5-3s1.6,2.4,1.8,3.4c0,0-.4-3.3-1.4-4.6.2-.8.7-2.3.7-2.3,0,0,1.6,2.3,1.6,3.4-.5-3-.4-3-1.1-4.3,0,0,.8-5.7,3.8-10.9s7.8-9.3,7.8-9.3"/>
  <path class="st3" d="M29,39.8s3.4-24.1,16.3-34.9c-6.4,10.1-13.1,22.3-14.2,31.9"/>
  <path class="st3" d="M41.5,24.8s-5.7,2.3-6.7,3.2c5.8-1.6,6.2-1.6,6.2-1.6"/>
  <g>
    <g>
      <g class="st8">
        <path class="st0" d="M23.9,25.5h-7.7l-6.8,6.8,3.9,3.9"/>
      </g>
      <path id="SVGID" class="st0" d="M23.9,25.5l-6.8,6.8,6.8,6.8h-7.7l-2.9-2.9-3.9-3.9,6.8-6.8h7.7ZM16.2,13.9L3.7,26.4l3.9,3.9L23.9,13.9h-7.7Z"/>
    </g>
    <g>
      <g class="st5">
        <path class="st0" d="M3.7,26.4l12.6-12.6h7.7L7.5,30.3l-3.9-3.9Z"/>
      </g>
      <path id="SVGID1" data-name="SVGID" class="st0" d="M23.9,25.5l-6.8,6.8,6.8,6.8h-7.7l-2.9-2.9-3.9-3.9,6.8-6.8h7.7ZM16.2,13.9L3.7,26.4l3.9,3.9L23.9,13.9h-7.7Z"/>
    </g>
    <g>
      <g class="st7">
        <path class="st0" d="M13.3,36.1l2.9,2.9h7.7l-6.8-6.8"/>
      </g>
      <path id="SVGID2" data-name="SVGID" class="st0" d="M23.9,25.5l-6.8,6.8,6.8,6.8h-7.7l-2.9-2.9-3.9-3.9,6.8-6.8h7.7ZM16.2,13.9L3.7,26.4l3.9,3.9L23.9,13.9h-7.7Z"/>
    </g>
    <path id="SVGID3" data-name="SVGID" class="st0" d="M23.9,25.5l-6.8,6.8,6.8,6.8h-7.7l-2.9-2.9-3.9-3.9,6.8-6.8h7.7ZM16.2,13.9L3.7,26.4l3.9,3.9L23.9,13.9h-7.7Z"/>
    <g>
      <g class="st6">
        <path class="st0" d="M13.3,36.1l-3.9-3.9,3.9-3.9,3.9,3.9"/>
      </g>
      <path id="SVGID4" data-name="SVGID" class="st0" d="M23.9,25.5l-6.8,6.8,6.8,6.8h-7.7l-2.9-2.9-3.9-3.9,6.8-6.8h7.7ZM16.2,13.9L3.7,26.4l3.9,3.9L23.9,13.9h-7.7Z"/>
    </g>
    <path class="st0" d="M23.9,25.5l-6.8,6.8,6.8,6.8h-7.7l-2.9-2.9-3.9-3.9,6.8-6.8h7.7ZM16.2,13.9L3.7,26.4l3.9,3.9L23.9,13.9h-7.7Z"/>
  </g>
</svg>