<?xml version="1.0" encoding="utf-8"?>
<!-- Generator: Adobe Illustrator 24.0.0, SVG Export Plug-In . SVG Version: 6.00 Build 0)  -->
<svg version="1.1" id="Layer_1" xmlns="http://www.w3.org/2000/svg" xmlns:xlink="http://www.w3.org/1999/xlink" x="0px" y="0px"
	 viewBox="0 0 50 50" style="enable-background:new 0 0 50 50;" xml:space="preserve">
<style type="text/css">
	.st0{fill:#00C8E2;}
	.st1{fill:#00DFFC;}
	.st2{fill:#444444;}
	.st3{fill:#424242;}
	.st4{clip-path:url(#SVGID_2_);}
	.st5{clip-path:url(#SVGID_4_);}
	.st6{clip-path:url(#SVGID_6_);}
	.st7{clip-path:url(#SVGID_10_);}
</style>
<g>
	<g>
		<polygon class="st0" points="48,13.9 48.8,19.2 2.1,36.1 1.6,25.1 1.5,18.8 42.3,4 47.5,6.3 		"/>
	</g>
	<g>
		<polygon class="st1" points="46.4,4.1 48.7,7.4 1.2,24.3 2.4,6.9 5.4,4 34.8,3.8 		"/>
	</g>
	<g>
		<g>
			<path class="st2" d="M16.4,47.2H5c-2.4,0-4.3-1.9-4.3-4.3V7.2c0-2.4,1.9-4.3,4.3-4.3h39.8c2.4,0,4.3,1.9,4.3,4.3v21.3
				c0,0.7-0.6,1.2-1.2,1.2s-1.2-0.6-1.2-1.2V7.2c0-1-0.8-1.8-1.8-1.8H5c-1,0-1.8,0.8-1.8,1.8v35.7c0,1,0.8,1.8,1.8,1.8h11.5
				c0.7,0,1.2,0.6,1.2,1.2S17.1,47.2,16.4,47.2z"/>
		</g>
	</g>
	<g>
		<circle class="st3" cx="8.9" cy="10.4" r="1.6"/>
	</g>
	<g>
		<circle class="st3" cx="14" cy="10.4" r="1.6"/>
	</g>
	<g>
		<circle class="st3" cx="19.1" cy="10.4" r="1.6"/>
	</g>
	<g transform="matrix(.03881911 0 0 .03881916 -.560501 8.162276)">
		<g>
			<g>
				<defs>
					<path id="SVGID_1_" d="M1012.9,998.1H758.5c-5.1,0-10-2-13.7-5.7L522.2,769.8c-7.5-7.5-7.5-19.8,0-27.3l222.7-222.7
						c3.6-3.6,8.5-5.7,13.7-5.7h254.4c7.8,0,14.9,4.7,17.9,11.9c3,7.2,1.3,15.5-4.2,21.1l-209,209.1l209,209.1
						c5.5,5.5,7.2,13.8,4.2,21.1C1027.8,993.4,1020.8,998.1,1012.9,998.1z M766.5,959.5h199.8L776.6,769.8c-7.5-7.5-7.5-19.8,0-27.3
						l189.7-189.7H766.5L563.1,756.1L766.5,959.5z M472.3,711.8c-5.1,0-10-2-13.7-5.7L331.4,578.9c-7.5-7.5-7.5-19.8,0-27.3
						l413.5-413.5c3.6-3.6,8.5-5.7,13.7-5.7h254.4c7.8,0,14.9,4.7,17.9,11.9c3,7.2,1.3,15.5-4.2,21.1L485.9,706.1
						C482.3,709.8,477.4,711.8,472.3,711.8z M372.4,565.2l99.9,99.9l494-494.1H766.5L372.4,565.2z"/>
				</defs>
				<use xlink:href="#SVGID_1_"  style="overflow:visible;fill:#444444;"/>
				<clipPath id="SVGID_2_">
					<use xlink:href="#SVGID_1_"  style="overflow:visible;"/>
				</clipPath>
				<g class="st4">
					<g>
						<path class="st2" d="M663.1,902.7c-4.9,0-9.9-1.9-13.7-5.7L522.2,769.8c-7.5-7.5-7.5-19.8,0-27.3l222.6-222.7
							c3.6-3.6,8.5-5.7,13.7-5.7h254.4c10.7,0,19.3,8.7,19.3,19.3c0,10.7-8.7,19.3-19.3,19.3H766.5L563.2,756.1l113.5,113.6
							c7.5,7.5,7.5,19.8,0,27.3C672.9,900.8,668,902.7,663.1,902.7z"/>
					</g>
				</g>
			</g>
		</g>
		<g>
			<g>
				<defs>
					<path id="SVGID_3_" d="M1012.9,998.1H758.5c-5.1,0-10-2-13.7-5.7L522.2,769.8c-7.5-7.5-7.5-19.8,0-27.3l222.7-222.7
						c3.6-3.6,8.5-5.7,13.7-5.7h254.4c7.8,0,14.9,4.7,17.9,11.9c3,7.2,1.3,15.5-4.2,21.1l-209,209.1l209,209.1
						c5.5,5.5,7.2,13.8,4.2,21.1C1027.8,993.4,1020.8,998.1,1012.9,998.1z M766.5,959.5h199.8L776.6,769.8c-7.5-7.5-7.5-19.8,0-27.3
						l189.7-189.7H766.5L563.1,756.1L766.5,959.5z M472.3,711.8c-5.1,0-10-2-13.7-5.7L331.4,578.9c-7.5-7.5-7.5-19.8,0-27.3
						l413.5-413.5c3.6-3.6,8.5-5.7,13.7-5.7h254.4c7.8,0,14.9,4.7,17.9,11.9c3,7.2,1.3,15.5-4.2,21.1L485.9,706.1
						C482.3,709.8,477.4,711.8,472.3,711.8z M372.4,565.2l99.9,99.9l494-494.1H766.5L372.4,565.2z"/>
				</defs>
				<use xlink:href="#SVGID_3_"  style="overflow:visible;fill:#444444;"/>
				<clipPath id="SVGID_4_">
					<use xlink:href="#SVGID_3_"  style="overflow:visible;"/>
				</clipPath>
				<g class="st5">
					<path class="st2" d="M472.3,711.8c-5.1,0-10-2-13.7-5.7L331.4,578.9c-7.5-7.5-7.5-19.8,0-27.3l413.5-413.5
						c3.6-3.6,8.5-5.7,13.7-5.7h254.4c7.8,0,14.9,4.7,17.9,11.9c3,7.2,1.3,15.5-4.2,21.1L485.9,706.1
						C482.3,709.8,477.4,711.8,472.3,711.8z M372.4,565.2l99.9,99.9l494-494.1H766.5L372.4,565.2z"/>
				</g>
			</g>
		</g>
		<g>
			<g>
				<defs>
					<path id="SVGID_5_" d="M1012.9,998.1H758.5c-5.1,0-10-2-13.7-5.7L522.2,769.8c-7.5-7.5-7.5-19.8,0-27.3l222.7-222.7
						c3.6-3.6,8.5-5.7,13.7-5.7h254.4c7.8,0,14.9,4.7,17.9,11.9c3,7.2,1.3,15.5-4.2,21.1l-209,209.1l209,209.1
						c5.5,5.5,7.2,13.8,4.2,21.1C1027.8,993.4,1020.8,998.1,1012.9,998.1z M766.5,959.5h199.8L776.6,769.8c-7.5-7.5-7.5-19.8,0-27.3
						l189.7-189.7H766.5L563.1,756.1L766.5,959.5z M472.3,711.8c-5.1,0-10-2-13.7-5.7L331.4,578.9c-7.5-7.5-7.5-19.8,0-27.3
						l413.5-413.5c3.6-3.6,8.5-5.7,13.7-5.7h254.4c7.8,0,14.9,4.7,17.9,11.9c3,7.2,1.3,15.5-4.2,21.1L485.9,706.1
						C482.3,709.8,477.4,711.8,472.3,711.8z M372.4,565.2l99.9,99.9l494-494.1H766.5L372.4,565.2z"/>
				</defs>
				<use xlink:href="#SVGID_5_"  style="overflow:visible;fill:#444444;"/>
				<clipPath id="SVGID_6_">
					<use xlink:href="#SVGID_5_"  style="overflow:visible;"/>
				</clipPath>
				<g class="st6">
					<path class="st2" d="M1012.9,998.1H758.5c-5.1,0-10-2-13.7-5.7L649.4,897c-7.5-7.5-7.5-19.8,0-27.3c7.5-7.5,19.8-7.5,27.3,0
						l89.8,89.7h199.8L776.6,769.8c-7.5-7.5-7.5-19.8,0-27.3s19.8-7.5,27.3,0l222.6,222.6c5.5,5.5,7.2,13.8,4.2,21.1
						C1027.8,993.4,1020.8,998.1,1012.9,998.1z"/>
				</g>
			</g>
		</g>
		<g>
			<g>
				<defs>
					<path id="SVGID_7_" d="M1012.9,998.1H758.5c-5.1,0-10-2-13.7-5.7L522.2,769.8c-7.5-7.5-7.5-19.8,0-27.3l222.7-222.7
						c3.6-3.6,8.5-5.7,13.7-5.7h254.4c7.8,0,14.9,4.7,17.9,11.9c3,7.2,1.3,15.5-4.2,21.1l-209,209.1l209,209.1
						c5.5,5.5,7.2,13.8,4.2,21.1C1027.8,993.4,1020.8,998.1,1012.9,998.1z M766.5,959.5h199.8L776.6,769.8c-7.5-7.5-7.5-19.8,0-27.3
						l189.7-189.7H766.5L563.1,756.1L766.5,959.5z M472.3,711.8c-5.1,0-10-2-13.7-5.7L331.4,578.9c-7.5-7.5-7.5-19.8,0-27.3
						l413.5-413.5c3.6-3.6,8.5-5.7,13.7-5.7h254.4c7.8,0,14.9,4.7,17.9,11.9c3,7.2,1.3,15.5-4.2,21.1L485.9,706.1
						C482.3,709.8,477.4,711.8,472.3,711.8z M372.4,565.2l99.9,99.9l494-494.1H766.5L372.4,565.2z"/>
				</defs>
				<use xlink:href="#SVGID_7_"  style="overflow:visible;fill:#444444;"/>
				<clipPath id="SVGID_8_">
					<use xlink:href="#SVGID_7_"  style="overflow:visible;"/>
				</clipPath>
			</g>
		</g>
		<g>
			<g>
				<defs>
					<path id="SVGID_9_" d="M1012.9,998.1H758.5c-5.1,0-10-2-13.7-5.7L522.2,769.8c-7.5-7.5-7.5-19.8,0-27.3l222.7-222.7
						c3.6-3.6,8.5-5.7,13.7-5.7h254.4c7.8,0,14.9,4.7,17.9,11.9c3,7.2,1.3,15.5-4.2,21.1l-209,209.1l209,209.1
						c5.5,5.5,7.2,13.8,4.2,21.1C1027.8,993.4,1020.8,998.1,1012.9,998.1z M766.5,959.5h199.8L776.6,769.8c-7.5-7.5-7.5-19.8,0-27.3
						l189.7-189.7H766.5L563.1,756.1L766.5,959.5z M472.3,711.8c-5.1,0-10-2-13.7-5.7L331.4,578.9c-7.5-7.5-7.5-19.8,0-27.3
						l413.5-413.5c3.6-3.6,8.5-5.7,13.7-5.7h254.4c7.8,0,14.9,4.7,17.9,11.9c3,7.2,1.3,15.5-4.2,21.1L485.9,706.1
						C482.3,709.8,477.4,711.8,472.3,711.8z M372.4,565.2l99.9,99.9l494-494.1H766.5L372.4,565.2z"/>
				</defs>
				<use xlink:href="#SVGID_9_"  style="overflow:visible;fill:#444444;"/>
				<clipPath id="SVGID_10_">
					<use xlink:href="#SVGID_9_"  style="overflow:visible;"/>
				</clipPath>
				<g class="st7">
					<g>
						<path class="st2" d="M663.1,902.7c-4.9,0-9.9-1.9-13.7-5.7L522.2,769.7c-7.5-7.5-7.5-19.8,0-27.3l127.2-127.2
							c7.2-7.2,20.1-7.2,27.3,0L804,742.4c7.5,7.5,7.5,19.8,0,27.3c-7.5,7.5-19.8,7.5-27.3,0L663.1,656.1L563.2,756l113.6,113.7
							c7.5,7.5,7.5,19.8,0,27.3C673,900.8,668.1,902.7,663.1,902.7z"/>
					</g>
				</g>
			</g>
		</g>
		<g>
			<path class="st2" d="M1012.9,998.1H758.5c-5.1,0-10-2-13.7-5.7L522.2,769.8c-7.5-7.5-7.5-19.8,0-27.3l222.7-222.7
				c3.6-3.6,8.5-5.7,13.7-5.7h254.4c7.8,0,14.9,4.7,17.9,11.9c3,7.2,1.3,15.5-4.2,21.1l-209,209.1l209,209.1
				c5.5,5.5,7.2,13.8,4.2,21.1C1027.8,993.4,1020.8,998.1,1012.9,998.1z M766.5,959.5h199.8L776.6,769.8c-7.5-7.5-7.5-19.8,0-27.3
				l189.7-189.7H766.5L563.1,756.1L766.5,959.5z M472.3,711.8c-5.1,0-10-2-13.7-5.7L331.4,578.9c-7.5-7.5-7.5-19.8,0-27.3
				l413.5-413.5c3.6-3.6,8.5-5.7,13.7-5.7h254.4c7.8,0,14.9,4.7,17.9,11.9c3,7.2,1.3,15.5-4.2,21.1L485.9,706.1
				C482.3,709.8,477.4,711.8,472.3,711.8z M372.4,565.2l99.9,99.9l494-494.1H766.5L372.4,565.2z"/>
		</g>
	</g>
</g>
</svg>
