<svg xmlns="http://www.w3.org/2000/svg" id="Camada_3" version="1.1" viewBox="0 0 50 50"><defs><style>.st3{stroke-linecap:round;stroke-linejoin:round;fill:none;stroke:#444}.st5{fill:#444}.st3{stroke-width:.5px}</style></defs><path fill="#04ad49" d="M27.27 22.85l5.75 1.79-4.92 3.48.08 6.02-4.83-3.6-5.7 1.93 1.93-5.7-3.6-4.83 6.02.08 3.48-4.92 1.79 5.75z"/><path fill="#22dd6d" d="M25.58 31.26c-.03-4.44-.04-8.86-.08-13.29h18.45c3.3.22 4.96 3.93 3.29 7.07L35.29 37.8s-7.45 2.79-9.72 3.29c.02-4.84.04-4.99 0-9.83h.01z"/><path fill="none" stroke="#464646" stroke-linecap="round" stroke-linejoin="round" d="M34.57 38.58l7.25-7.79H36.4l-4.96 5.04 4.58 4.5h5.8m0 0l-7.25-7.4m-4.43 1.14l-3.05-2.9 9.77-9.85h5.95L30.14 34.07z"/><path fill="#22dd6d" stroke="#444" stroke-linecap="round" stroke-linejoin="round" stroke-width="2.5" d="M24.42 18.2c.03 4.44.04 8.86.08 13.29H6.05c-3.3-.22-5.09-3.76-3.14-6.48L20.68 2.65c1.17-1.48 3.39-.8 3.65 1.03-.02 4.84.05 9.68.09 14.52z"/><path fill="none" stroke="#444" stroke-linecap="round" stroke-linejoin="round" stroke-width="2.5" d="M31.07 43.96l-2.56 3.24c-.94 1.35-2.36.88-2.36.88-1.35.47-1.65-2.43-1.65-2.43V17.8h17.36c4.04-.34 5.06 2.16 5.06 2.16 1.75 2.43-.4 4.38-.4 4.38l-3.75 4.48"/><circle cx="9.97" cy="20.29" r=".57" class="st5"/><circle cx="12.67" cy="20.29" r=".57" class="st5"/><circle cx="15.37" cy="20.29" r=".57" class="st5"/><circle cx="18.07" cy="20.29" r=".57" class="st5"/><circle cx="20.77" cy="20.29" r=".57" class="st5"/><circle cx="9.97" cy="22.68" r=".57" class="st5"/><circle cx="12.67" cy="22.68" r=".57" class="st5"/><circle cx="15.37" cy="22.68" r=".57" class="st5"/><circle cx="18.07" cy="22.68" r=".57" class="st5"/><circle cx="20.77" cy="22.68" r=".57" class="st5"/><circle cx="15.37" cy="25.05" r=".57" class="st5"/><circle cx="18.07" cy="25.05" r=".57" class="st5"/><circle cx="20.77" cy="25.05" r=".57" class="st5"/><circle cx="18.07" cy="27.44" r=".57" class="st5"/><circle cx="20.77" cy="27.44" r=".57" class="st5"/><path d="M9.86 20.29h2.8l2.7 2.4h2.7l2.7 2.36" class="st3"/><path d="M9.97 22.68h2.7l2.7-2.4h5.4m-5.47 4.77h2.77l2.7-2.36m-2.8 4.75h2.8" class="st3"/></svg>