<?xml version="1.0" encoding="utf-8"?>
<!-- Generator: Adobe Illustrator 28.3.0, SVG Export Plug-In . SVG Version: 6.00 Build 0)  -->
<svg version="1.1" id="Layer_1" xmlns="http://www.w3.org/2000/svg" xmlns:xlink="http://www.w3.org/1999/xlink" x="0px" y="0px"
	 viewBox="0 0 50 50" style="enable-background:new 0 0 50 50;" xml:space="preserve">
<style type="text/css">
	.st0{fill:#319327;}
	.st1{fill:#5ABA52;}
	.st2{fill:none;stroke:#444444;stroke-width:2.5;stroke-linecap:round;stroke-linejoin:round;stroke-miterlimit:10;}
	.st3{fill:none;stroke:#444444;stroke-width:0.5;stroke-miterlimit:10;}
	.st4{fill:none;stroke:#444444;stroke-miterlimit:10;}
	.st5{fill:none;stroke:#444444;stroke-width:0.5;stroke-linecap:round;stroke-linejoin:round;stroke-miterlimit:10;}
</style>
<g>
	<polygon class="st0" points="19,18.4 26.3,20.7 20.1,25.1 20.2,32.7 14,28.2 6.8,30.6 9.3,23.4 4.7,17.3 12.3,17.4 16.7,11.2 	"/>
	<g>
		<g>
			<g>
				<g>
					<path class="st1" d="M23.5,4.8H4c-1.5,0-2.7,4.9-2.7,6.4l0.3,13.9l0.1,9.6l0.7,12.2l1.2,0.8l23.4-8.3l-0.4-15.2
						c4.9-0.2,8.8-0.2,16.4,3.1l4.8-13.2c0.1-1.4-3.9-3.4-5.3-3.3L27.6,7.5l-0.4-0.9C27.1,5.2,24.9,4.8,23.5,4.8z"/>
					<path class="st2" d="M26.5,41.9l0-18.5l0,0c0,0.1,1.9,1.2,4.9,1.2c5.2,0,9.4,1.1,11.7,3.8l5.2-14.2c0,0-3-3.8-9.6-4.2
						C32,9.6,30.5,8.3,27.9,6.8l0,0L26.6,6c-1.1-1-2.1-1.3-3.9-1.3H5c-1.8,0-3.2,1.5-3.2,3.2v36.3c0,1.8,1.5,3.2,3.2,3.2h15"/>
					<path class="st3" d="M10.8,8.4h6.1c1.3,0,2.4-1.1,2.4-2.4V5.4c0-0.3-0.3-0.6-0.6-0.6H9C8.6,4.8,8.4,5,8.4,5.4V6
						C8.4,7.3,9.5,8.4,10.8,8.4z"/>
				</g>
			</g>
			<circle class="st3" cx="14.5" cy="42.8" r="2.1"/>
		</g>
		<g>
			<g>
				<path class="st4" d="M26.7,7.8l-4.3,12c-0.1,0.2,0,0.4,0.1,0.6c5.6,5.5,14.7,1.3,20.3,7.1l4.7-13.1c-5.4-5.6-14.3-1.8-19.9-6.7
					C27.3,7.3,26.8,7.4,26.7,7.8z"/>
				<path class="st4" d="M26.4,6.8l-0.3-0.1c-0.3-0.1-0.6,0-0.7,0.3L14.1,38.9c-0.1,0.3,0,0.6,0.3,0.7l0.3,0.1
					c0.3,0.1,0.6,0,0.7-0.3L26.8,7.5C26.9,7.2,26.7,6.9,26.4,6.8z"/>
			</g>
			<path class="st5" d="M28.5,10.7c0,0,4.6,3.6,8.9,3.2c4.3-0.3,6.7,1.4,6.7,1.4"/>
			<path class="st5" d="M25.8,18.1c0,0,4.6,3.6,8.9,3.2s6.7,1.4,6.7,1.4"/>
			<path class="st5" d="M27.6,13.2c0,0,4.6,3.6,8.9,3.2s6.7,1.4,6.7,1.4"/>
			<path class="st5" d="M26.7,15.7c0,0,4.6,3.6,8.9,3.2s6.7,1.4,6.7,1.4"/>
		</g>
	</g>
</g>
</svg>
