<?xml version="1.0" encoding="utf-8"?>
<!-- Generator: Adobe Illustrator 24.3.0, SVG Export Plug-In . SVG Version: 6.00 Build 0)  -->
<svg version="1.1" id="Camada_1" xmlns="http://www.w3.org/2000/svg" xmlns:xlink="http://www.w3.org/1999/xlink" x="0px" y="0px"
	 viewBox="0 0 50 50" style="enable-background:new 0 0 50 50;" xml:space="preserve">
<style type="text/css">
	.st0{fill:#71BAC0;}
	.st1{fill:#7ED0D6;}
	.st2{fill:#494949;}
</style>
<g>
	<g>
		<path class="st0" d="M47.9,16.2v14.3l-2.5,0.9L34,35.6l-7.5,2.7L10.9,44l-4.3,1.6l-2.3-0.5c-1.3-0.3-2.2-1.4-2.2-2.7v-9.4L4.7,32
			L16,27.9l2.3-0.9l5.6-2l9.7-3.5l11.7-4.3l2.1-0.8L47.9,16.2z"/>
	</g>
	<g>
		<path class="st1" d="M47.9,7.9v2.5l-0.5,6.1l0,0.5l-2,0.8l-10.2,3.7l-12,4.4l-5.6,2.1l-1,0.4L4.7,32.6l-2.5,0.9V19.1l2.5-0.9
			l19.3-7l7.8-2.8L38.4,6l4.3-1.6l3,0.7C47,5.4,47.9,6.6,47.9,7.9z"/>
	</g>
	<path class="st2" d="M28.8,30.4l7.8-7.8c0.3-0.3,0.3-0.7,0-1c-0.1-0.1-0.3-0.2-0.5-0.2h-8.3c-0.2,0-0.4,0.1-0.5,0.2L24,25l-0.8,0.9
		L19,29.9c-0.3,0.3-0.3,0.7,0,1l7.5,7.5l0.8,0.8c0.1,0.1,0.3,0.2,0.5,0.2h8.3c0.4,0,0.7-0.3,0.7-0.7c0-0.2-0.1-0.4-0.2-0.5
		L28.8,30.4z M35.9,8.5c-0.1-0.1-0.3-0.2-0.5-0.2h-8.3c-0.2,0-0.4,0.1-0.5,0.2L24,11.2L12.2,23c-0.3,0.3-0.3,0.7,0,1l4.1,4.1
		c0.1,0.1,0.1,0.1,0.2,0.1c0.3,0.1,0.6,0.1,0.8-0.1l0.2-0.2l0.9-0.9L35.9,9.5C36.1,9.3,36.1,8.8,35.9,8.5z"/>
	<path class="st2" d="M45.7,5.1l-3-0.7l-9.4-2.3C32.8,2,32.4,2,32,2.1L17.1,5.4c0,0-0.1,0-0.1,0L5.6,2.5C4.8,2.3,3.9,2.5,3.2,3
		C2.5,3.6,2.1,4.4,2.1,5.3v37.1c0,1.3,0.9,2.4,2.2,2.7l2.3,0.5l9.5,2.3c0.2,0.1,0.4,0.1,0.7,0.1c0.2,0,0.4,0,0.6-0.1l15-3.2
		c0,0,0.1,0,0.1,0l12,2.6c0.8,0.2,1.7,0,2.4-0.6c0.7-0.5,1-1.3,1-2.2V7.9C47.9,6.6,47,5.4,45.7,5.1z M45.3,44.5c0,0.1,0,0.2-0.1,0.2
		c-0.1,0.1-0.1,0.1-0.2,0.1l-11.6-2.5v-0.7c0-0.7-0.6-1.3-1.3-1.3c-0.7,0-1.3,0.6-1.3,1.3v0.8l-12.5,2.7v-1.1c0-0.7-0.6-1.3-1.3-1.3
		s-1.3,0.6-1.3,1.3v1.3L10.9,44l-6-1.4c-0.1,0-0.2-0.1-0.2-0.3V5.3c0-0.1,0-0.2,0.1-0.2c0,0,0.1,0,0.2,0h0l10.4,2.6v2.8
		c0,0.7,0.6,1.3,1.3,1.3c0.7,0,1.3-0.6,1.3-1.3V7.8l13.8-3.1v1.3c0,0.7,0.6,1.3,1.3,1.3c0.7,0,1.3-0.6,1.3-1.3V5l4.1,1l6.7,1.6
		c0.1,0,0.2,0.1,0.2,0.3V44.5z"/>
</g>
</svg>
