<svg xmlns="http://www.w3.org/2000/svg" id="Layer_1" x="0" y="0" version="1.1" viewBox="0 0 50 50" xml:space="preserve"><style>.st2{fill:#031326}</style><path fill="#00c8e2" d="M42 8L7.7 20.5v22.3c0 .6.1 1.2.3 1.8l34-12.4V8z"/><path fill="#00dffc" d="M42 6.7c0-2.8-2.2-5-5-5H12.7c-2.8 0-5 2.2-5 5v13.8L42 8V6.7z"/><path d="M42.2 34.6c.7 0 1.2-.6 1.2-1.2V6.9c0-3.4-2.8-6.2-6.2-6.2H12.8C9.4.7 6.6 3.5 6.6 6.9V43c0 3.4 2.8 6.2 6.2 6.2h24.3c3.4 0 6.2-2.8 6.2-6.2 0-.7-.6-1.2-1.2-1.2s-1.2.6-1.2 1.2c0 2.1-1.7 3.8-3.8 3.8H12.8C10.7 46.8 9 45.1 9 43V6.9c0-2.1 1.7-3.8 3.8-3.8h4.1c.1 1.5 1.4 2.7 3 2.7h10.2c1.6 0 2.8-1.2 3-2.7h4.1c2.1 0 3.8 1.7 3.8 3.8v26.4c-.1.7.5 1.3 1.2 1.3zM30.1 4.4H19.9c-.7 0-1.3-.5-1.5-1.2h13.1c-.1.7-.7 1.2-1.4 1.2z" class="st2"/><path d="M26.6 23.9l-1.8 1.8 2.4 2.4s0 .1.1.1l4.1-4.1-.1-.1h-4.7zm-3.7 3.7l-1.3 1.3v.1l2.4 2.4 2.4-2.4-2.4-2.5-1.1 1.1zm4-13.4l-9.6 9.6 2.5 2.5L32.1 14h-4.6c-.2 0-.4 0-.6.2z" class="st2"/><path d="M35.7 7.9H14c-1.8 0-3.3 1.5-3.3 3.3v25c0 1.8 1.5 3.3 3.3 3.3h21.7c1.8 0 3.3-1.5 3.3-3.3v-25c-.1-1.9-1.5-3.3-3.3-3.3zm-7.1 21.5c.2.2.2.5 0 .7-.1.1-.2.1-.4.1s-.3 0-.4-.1l-.5-.5-2.4 2.4 1.3 1.3h5L30 32.2l-.7-.7c-.2-.2-.2-.5 0-.7.2-.2.5-.2.7 0l1.8 1.8c.3.3.4.7.2 1.1s-.5.6-.9.6H26c-.3 0-.5-.1-.7-.3l-1.8-1.8c-.1-.1-.3-.1-.4-.2l-2.4-2.4c-.4-.4-.4-1.1 0-1.5l2.4-2.4s.1 0 .1-.1l2.4-2.4c.2-.2.5-.3.8-.3h4.7c.4 0 .8.3 1 .7s.1.9-.2 1.2L28 28.9l.6.5zm4.7-15.2l-13 13c-.1.1-.3.2-.5.2s-.4-.1-.5-.2l-2.9-2.9c-.3-.3-.3-.8 0-1.1l9.8-9.8c.3-.3.8-.5 1.3-.5h5.3c.3 0 .6.2.7.5 0 .3 0 .6-.2.8zM25 45.9c-1.5 0-2.7-1.2-2.7-2.7s1.2-2.7 2.7-2.7 2.7 1.2 2.7 2.7-1.2 2.7-2.7 2.7zm0-3.8c-.7 0-1.2.5-1.2 1.2s.5 1.2 1.2 1.2 1.2-.5 1.2-1.2-.5-1.2-1.2-1.2z" class="st2"/></svg>