<?xml version="1.0" encoding="UTF-8"?>
<svg id="Camada_3" xmlns="http://www.w3.org/2000/svg" version="1.1" viewBox="0 0 50 50">
  <!-- Generator: Adobe Illustrator 29.3.1, SVG Export Plug-In . SVG Version: 2.1.0 Build 151)  -->
  <defs>
    <style>
      .st0 {
        fill: #00dffc;
      }

      .st1 {
        stroke-width: 2.5px;
      }

      .st1, .st2, .st3 {
        fill: none;
        stroke: #444;
      }

      .st1, .st3 {
        stroke-linecap: round;
        stroke-linejoin: round;
      }

      .st2 {
        stroke-miterlimit: 10;
      }

      .st3 {
        stroke-width: .5px;
      }
    </style>
  </defs>
  <path class="st0" d="M47.9,19.9c-.2-.8-2.7-7.5-3.2-8.1l-3-3.5h-.2c0,0-7.6-5.7-7.6-5.7l-7.8-.7c-3.2,0-14.5.3-21.4,10.2L.7,22.7h-.2c0,0,4,13.5,4,13.5.1.4,4.5,5.7,4.9,5.9l5.6,3,32.2-11.7c.7-.4,1.7-8.6.8-13.4Z"/>
  <g>
    <path class="st1" d="M32.2,47.2c-7,2.3-15,1.2-21.3-3.6C.5,35.8-1.6,21.1,6.2,10.8"/>
    <path class="st1" d="M6.1,10.9c2-3,4.7-4.7,4.7-4.7l.7-.5C19.6,0,30.7-.1,39.1,6.1c10.4,7.8,12.4,22.5,4.7,32.8"/>
  </g>
  <g>
    <path class="st2" d="M3.7,13.8l26.4,21.4c.4.4.4,1,0,1.4l-11.3,9.3c-.6.5-1.5,0-1.5-.7V4.4c0-.8.9-1.2,1.5-.7l11.3,9.3c.4.4.4,1,0,1.4L3.7,35.9"/>
    <path class="st3" d="M30.2,20.6c1.2.5,2.3,1.4,2.8,2.8.9,2.4-.4,5.1-2.8,6"/>
    <path class="st3" d="M32.7,17.7c2.1.8,3.9,2.5,4.8,4.7,1.5,4.1-.6,8.7-4.8,10.2"/>
    <path class="st3" d="M35.9,14.8c3,1.1,5.6,3.5,6.7,6.7,2.1,5.9-.9,12.3-6.7,14.5"/>
  </g>
</svg>