<svg xmlns="http://www.w3.org/2000/svg" id="Camada_1" data-name="Camada 1" version="1.1" viewBox="0 0 50 50"><defs><style>.cls-2{stroke:#444;stroke-miterlimit:10;stroke-width:.5px}.cls-4{stroke-width:0}.cls-2,.cls-5,.cls-6{fill:none}.cls-5,.cls-6{stroke:#444;stroke-linecap:round;stroke-linejoin:round}.cls-4{fill:#319327}.cls-6{stroke-width:2.5px}</style></defs><path d="M21.2 20.7L26 14l2.4 7.9" class="cls-4"/><path d="M29.2 18.6L37 21l-6.7 4.8.1 8.2-6.6-4.9-7.7 2.6 2.6-7.8-4.9-6.5 8.2.1 4.7-6.7 2.5 7.8z" class="cls-4"/><path fill="#5aba52" stroke-width="0" d="M48 20.1c-.2-.8-2.7-7.4-3.2-8l-3-3.5h-.2L34.1 3l-7.7-.7c-3.2 0-14.3.3-21.1 10.1L1.4 22.9h-.2l3.9 13.3c.1.4 4.5 5.6 4.8 5.8l5.5 2.9 31.8-11.6c.6-.4 1.7-8.5.7-13.2z"/><path d="M32.5 47c-6.9 2.2-14.8 1.2-21-3.5C1.2 35.8-.8 21.3 6.9 11.1" class="cls-6"/><path d="M6.7 11.3c2-2.9 4.7-4.7 4.7-4.7l.7-.5C20 .5 31 .3 39.2 6.5c10.2 7.7 12.3 22.2 4.6 32.4" class="cls-6"/><path fill="#444" stroke="#444" stroke-miterlimit="10" stroke-width=".5" d="M16.4 19.1h-13"/><path d="M2.7 26.8H11c1.4 0 2.6 1.2 2.6 2.6v1.9c0 1.4 1.2 2.6 2.6 2.6h4.3m4.7-14.2v-5.5c0-1.4-1.2-2.6-2.6-2.6H6.7M30.2 2v17.5m9.2-12v16c0 1.4 1.2 2.6 2.6 2.6h6.6m-3.1 11.6h-14c-1.4 0-2.6 1-2.6 2.2v6.8M8.3 39.5h12c1.4 0 2.6 1.2 2.6 2.6v5" class="cls-2"/><path d="M11.1 16.8h5l4.2 15.8h12.5M21.9 19.9l.9 8.9m3.4-9l.1 9m4.8-8.9l-.9 8.7" class="cls-5"/><path d="M16.9 19.6h18.7L33 28.8H19.3m-1.1-4.4h15.9" class="cls-5"/><circle cx="21.7" cy="35.1" r="1.6" class="cls-5"/><circle cx="31.2" cy="35.1" r="1.6" class="cls-5"/><path d="M32.7 34.1h13.6m-23.4 0H30" class="cls-2"/></svg>