<?xml version="1.0" encoding="utf-8"?>
<!-- Generator: Adobe Illustrator 24.0.0, SVG Export Plug-In . SVG Version: 6.00 Build 0)  -->
<svg version="1.1" id="Camada_1" xmlns="http://www.w3.org/2000/svg" xmlns:xlink="http://www.w3.org/1999/xlink" x="0px" y="0px"
	 viewBox="0 0 42 48" style="enable-background:new 0 0 42 48;" xml:space="preserve">
<style type="text/css">
	.st0{fill:#00C8E2;}
	.st1{fill:#00DFFC;}
	.st2{clip-path:url(#SVGID_2_);}
	.st3{fill:none;stroke:#444444;stroke-width:1.5;stroke-linecap:round;stroke-linejoin:round;stroke-miterlimit:10;}
	
		.st4{clip-path:url(#SVGID_4_);fill:none;stroke:#444444;stroke-width:1.5;stroke-linecap:round;stroke-linejoin:round;stroke-miterlimit:10;}
	
		.st5{clip-path:url(#SVGID_6_);fill:none;stroke:#444444;stroke-width:1.5;stroke-linecap:round;stroke-linejoin:round;stroke-miterlimit:10;}
	.st6{clip-path:url(#SVGID_10_);}
	.st7{fill:#444444;}
</style>
<title>administracao-do-sql-server-2017</title>
<desc>Created with Sketch.</desc>
<g>
	<path class="st0" d="M40.2,10.3l-1.2,15.1L4.4,38c-0.5-1.1-0.7-2.4-0.8-4.2L1.7,10.3C1.6,8,2.8,6.5,6,5.7l12.5-3.5
		C19.4,2,20.2,1.8,21,1.8c0.8,0,1.6,0.2,2.5,0.4l12.4,3.5C39.2,6.5,40.3,8,40.2,10.3z"/>
	<path class="st1" d="M32.3,4.7l-30.2,11l-0.4-5.4C1.6,8,2.8,6.5,6,5.7l12.5-3.5C19.4,2,20.2,1.8,21,1.8c0.8,0,1.6,0.2,2.5,0.4
		L32.3,4.7z"/>
	<g transform="matrix(.03881911 0 0 .03881916 -.560501 8.162276)">
		<g>
			<g>
				<defs>
					<path id="SVGID_1_" d="M779.7,352.2L594.2,537.8l185.5,185.6h-212l-79.6-79.6l-106-106l185.6-185.6H779.7z M567.7,34.2
						L223.1,378.8l106,106L779.7,34.2C779.7,34.2,567.7,34.2,567.7,34.2z"/>
				</defs>
				<clipPath id="SVGID_2_">
					<use xlink:href="#SVGID_1_"  style="overflow:visible;"/>
				</clipPath>
				<g class="st2">
					<path class="st3" d="M779.7,352.2h-212L382.2,537.8l106,106"/>
				</g>
				
					<use xlink:href="#SVGID_1_"  style="overflow:visible;fill:none;stroke:#444444;stroke-width:1.5;stroke-linecap:round;stroke-linejoin:round;stroke-miterlimit:10;"/>
			</g>
		</g>
		<g>
			<g>
				<defs>
					<path id="SVGID_3_" d="M779.7,352.2L594.2,537.8l185.5,185.6h-212l-79.6-79.6l-106-106l185.6-185.6H779.7z M567.7,34.2
						L223.1,378.8l106,106L779.7,34.2C779.7,34.2,567.7,34.2,567.7,34.2z"/>
				</defs>
				<clipPath id="SVGID_4_">
					<use xlink:href="#SVGID_3_"  style="overflow:visible;"/>
				</clipPath>
				<path class="st4" d="M223.1,378.8L567.7,34.2h212L329.1,484.8L223.1,378.8z"/>
				
					<use xlink:href="#SVGID_3_"  style="overflow:visible;fill:none;stroke:#444444;stroke-width:1.5;stroke-linecap:round;stroke-linejoin:round;stroke-miterlimit:10;"/>
			</g>
		</g>
		<g>
			<g>
				<defs>
					<path id="SVGID_5_" d="M779.7,352.2L594.2,537.8l185.5,185.6h-212l-79.6-79.6l-106-106l185.6-185.6H779.7z M567.7,34.2
						L223.1,378.8l106,106L779.7,34.2C779.7,34.2,567.7,34.2,567.7,34.2z"/>
				</defs>
				<clipPath id="SVGID_6_">
					<use xlink:href="#SVGID_5_"  style="overflow:visible;"/>
				</clipPath>
				<path class="st5" d="M488.1,643.9l79.6,79.5h212L594.2,537.8"/>
				
					<use xlink:href="#SVGID_5_"  style="overflow:visible;fill:none;stroke:#444444;stroke-width:1.5;stroke-linecap:round;stroke-linejoin:round;stroke-miterlimit:10;"/>
			</g>
		</g>
		<g>
			<g>
				<defs>
					<path id="SVGID_7_" d="M779.7,352.2L594.2,537.8l185.5,185.6h-212l-79.6-79.6l-106-106l185.6-185.6H779.7z M567.7,34.2
						L223.1,378.8l106,106L779.7,34.2C779.7,34.2,567.7,34.2,567.7,34.2z"/>
				</defs>
				<clipPath id="SVGID_8_">
					<use xlink:href="#SVGID_7_"  style="overflow:visible;"/>
				</clipPath>
				
					<use xlink:href="#SVGID_7_"  style="overflow:visible;fill:none;stroke:#444444;stroke-width:1.5;stroke-linecap:round;stroke-linejoin:round;stroke-miterlimit:10;"/>
			</g>
		</g>
		<g>
			<g>
				<defs>
					<path id="SVGID_9_" d="M779.7,352.2L594.2,537.8l185.5,185.6h-212l-79.6-79.6l-106-106l185.6-185.6H779.7z M567.7,34.2
						L223.1,378.8l106,106L779.7,34.2C779.7,34.2,567.7,34.2,567.7,34.2z"/>
				</defs>
				<clipPath id="SVGID_10_">
					<use xlink:href="#SVGID_9_"  style="overflow:visible;"/>
				</clipPath>
				<g class="st6">
					<g>
						<path class="st7" d="M488.2,663.2c-4.9,0-9.9-1.9-13.7-5.7l-106-106.1c-7.5-7.5-7.5-19.8,0-27.3l106-106.1
							c7.2-7.2,20.1-7.2,27.3,0l106,106.1c7.5,7.5,7.5,19.8,0,27.3s-19.8,7.5-27.3,0L488.2,459l-78.7,78.7l92.4,92.5
							c7.5,7.5,7.5,19.8,0,27.3C498.1,661.3,493.1,663.2,488.2,663.2z"/>
					</g>
				</g>
				
					<use xlink:href="#SVGID_9_"  style="overflow:visible;fill:none;stroke:#444444;stroke-width:1.5;stroke-linecap:round;stroke-linejoin:round;stroke-miterlimit:10;"/>
			</g>
		</g>
		<g>
			<path class="st7" d="M797.5,26.7c-2.8-7.2-10-11.9-17.8-11.9h-212c-5.2,0-10,2.1-13.7,5.7L209.4,365c-7.5,7.7-7.5,19.8,0,27.6
				l106.1,105.9c3.6,3.6,8.5,5.7,13.7,5.7c5.2,0,10-2.1,13.7-5.7L793.4,47.9C798.8,42.2,800.6,34,797.5,26.7z M329.2,457.5
				l-78.8-78.6L575.7,53.5h157.4L329.2,457.5z"/>
			<path class="st7" d="M621.6,537.8l171.8-172.1c5.4-5.4,7.2-13.7,4.1-20.9c-2.8-7.2-10-12.1-17.8-12.1h-212
				c-5.2,0-10,2.1-13.7,5.7L368.4,524.2c-7.5,7.5-7.5,19.8,0,27.3L554.1,737c3.6,3.9,8.5,5.7,13.7,5.7h212c7.7,0,14.9-4.6,17.8-11.8
				c3.1-7.2,1.3-15.5-4.1-21.1L621.6,537.8z M575.7,704L409.3,537.8l166.4-166.4h157.4L580.4,524.2c-7.5,7.5-7.5,19.8,0,27.3
				L733.1,704H575.7z"/>
		</g>
	</g>
	<g>
		<path class="st7" d="M36.3,4.4L23.8,0.9c-1.1-0.3-1.9-0.5-2.8-0.5c-0.9,0-1.7,0.2-2.8,0.5L5.8,4.4c-3.6,0.9-5.3,2.8-5.3,5.9
			l1.9,23.6c0.3,5.5,2.2,7.3,6,9.2l10.5,4.3c0.7,0.2,1.4,0.4,2.1,0.4c0.7,0,1.4-0.1,2.2-0.4l6.2-2.5c0.6-0.3,0.9-1,0.7-1.6
			c-0.3-0.6-1-0.9-1.6-0.7c0,0,0,0,0,0l-6.1,2.5c-0.8,0.3-1.7,0.3-2.6,0L9.4,40.7c-3-1.4-4.3-2.5-4.6-7.1L2.9,10.1
			c0-1.3,0.2-2.6,3.5-3.4l12.5-3.5C19.7,3,20.4,2.9,21,2.9c0.6,0,1.3,0.1,2.2,0.4l12.5,3.5c3.2,0.8,3.4,2.1,3.4,3.3l-1.2,15.1
			c0,0.7,0.5,1.2,1.1,1.3c0.7,0,1.2-0.4,1.3-1.1l1.2-15.2C41.6,7.1,39.8,5.2,36.3,4.4z"/>
	</g>
</g>
</svg>
