<?xml version="1.0" encoding="utf-8"?>
<!-- Generator: Adobe Illustrator 24.0.0, SVG Export Plug-In . SVG Version: 6.00 Build 0)  -->
<svg version="1.1" id="Layer_1" xmlns="http://www.w3.org/2000/svg" xmlns:xlink="http://www.w3.org/1999/xlink" x="0px" y="0px"
	 viewBox="0 0 50 50" style="enable-background:new 0 0 50 50;" xml:space="preserve">
<style type="text/css">
	.st0{fill:#FDCF72;}
	.st1{fill:#FCC34F;}
	.st2{fill:#494949;}
</style>
<g>
	<g>
		<path class="st0" d="M13.4,32.5L7,26.2c-0.2-0.2-0.2-0.6,0-0.8L28.8,3.6c0.5-0.5,1.3-0.9,2.1-0.9h11.7c0.5,0,0.7,0.6,0.4,0.9
			L14.1,32.5C13.9,32.7,13.6,32.7,13.4,32.5z"/>
	</g>
	<g>
		<g>
			<path class="st0" d="M39.5,24.5H29c-0.3,0-0.7,0.1-0.9,0.4l-4.9,4.9l0,0l-0.4,0.4c-0.1,0.1-0.2,0.1-0.3,0.2l-3.1,3.1l21.4-7.8
				C40.7,25.1,40.2,24.5,39.5,24.5z"/>
		</g>
	</g>
	<g>
		<path class="st1" d="M30.6,36.5l9.8-9.8c0.3-0.3,0.4-0.7,0.4-1l-21.4,7.8l-2.2,2.2c-0.5,0.5-0.5,1.3,0,1.7l5.3,5.3
			c0.2,0.2,0.4,0.2,0.6,0.3l3.3,3.3l10.4-3.8L30.6,36.5z"/>
	</g>
	<g>
		<path class="st2" d="M13.8,33.5c-0.5,0-0.9-0.2-1.3-0.5l-6.3-6.3c-0.7-0.7-0.7-1.8,0-2.5L28,2.3c0.8-0.8,1.8-1.2,2.9-1.2h11.7
			c0.7,0,1.4,0.4,1.7,1.1c0.3,0.7,0.1,1.4-0.4,2L15,33C14.7,33.3,14.2,33.5,13.8,33.5z M8.4,25.4l5.3,5.3L40.9,3.6h-10
			c-0.4,0-0.9,0.2-1.2,0.5L8.4,25.4z"/>
	</g>
	<path class="st2" d="M38.2,42.4l-1.5-1.6c-0.5-0.5-1.3-0.5-1.8,0c-0.5,0.5-0.5,1.3,0,1.8l1.5,1.6l2.2,2.2H28l-2.8-2.8l4.9-4.9l0,0
		l0.4-0.4l1.1,1.1c0.2,0.2,0.6,0.4,0.9,0.4c0.3,0,0.6-0.1,0.9-0.4c0.5-0.5,0.5-1.3,0-1.8l-1.1-1.1l8.9-8.9c0.7-0.7,0.9-1.8,0.6-2.8
		c-0.4-1-1.3-1.6-2.4-1.6H28.9c-0.7,0-1.3,0.3-1.8,0.7l-5.2,5.2c-0.1,0.1-0.3,0.2-0.4,0.3l-5.3,5.3c-0.5,0.5-0.7,1.1-0.7,1.8
		c0,0.7,0.3,1.3,0.7,1.8l5.3,5.3c0.2,0.2,0.5,0.4,0.8,0.5c0,0,0,0,0,0l3.9,3.9c0.4,0.4,1,0.7,1.6,0.7h11.2c0.9,0,1.8-0.6,2.1-1.4
		c0.4-0.9,0.2-1.8-0.5-2.5L38.2,42.4z M28.9,25.8h10.5l0,0.1l-9.1,9.1c0,0,0,0,0-0.1L25,29.6L28.9,25.8z M18.1,36.6l5.2-5.2l5.3,5.2
		l-5.2,5.3L18.1,36.6z"/>
</g>
</svg>
