<?xml version="1.0" encoding="utf-8"?>
<!-- Generator: Adobe Illustrator 26.5.0, SVG Export Plug-In . SVG Version: 6.00 Build 0)  -->
<svg version="1.1" id="Layer_1" xmlns="http://www.w3.org/2000/svg" xmlns:xlink="http://www.w3.org/1999/xlink" x="0px" y="0px"
	 viewBox="0 0 50 50" style="enable-background:new 0 0 50 50;" xml:space="preserve">
<style type="text/css">
	.st0{fill:#00C8E2;}
	.st1{fill:#00DFFC;}
	.st2{fill:#444444;}
	.st3{fill:none;stroke:#494949;stroke-linecap:round;stroke-linejoin:round;stroke-miterlimit:10;}
	.st4{fill:none;stroke:#494949;stroke-width:0.5;stroke-linecap:round;stroke-linejoin:round;stroke-miterlimit:10;}
</style>
<g>
	<g>
		<path class="st0" d="M5,45.4l41.8-15.2V8.6c0-3-2.4-5.4-5.4-5.4H8.6c-3,0-5.4,2.4-5.4,5.4v32.8C3.2,42.9,3.9,44.4,5,45.4z"/>
		<path class="st1" d="M45,4.6c-1-0.9-2.3-1.4-3.6-1.4H8.6c-3,0-5.4,2.4-5.4,5.4v11.3C3.2,19.8,45,4.6,45,4.6z"/>
		<path class="st2" d="M25,48.1H8.5c-3.6,0-6.6-3-6.6-6.6V8.5c0-3.6,2.9-6.6,6.6-6.6h33.1c3.6,0,6.6,2.9,6.6,6.6v21.7
			c0,0.6-0.5,1.2-1.2,1.2c-0.7,0-1.2-0.5-1.2-1.2l0,0V8.5c0-2.3-1.9-4.2-4.2-4.2H8.5c-2.3,0-4.2,1.9-4.2,4.2v33.1
			c0,2.3,1.9,4.2,4.2,4.2H25c0.6,0,1.2,0.5,1.2,1.1S25.7,48.1,25,48.1C25.1,48.1,25,48.1,25,48.1z"/>
	</g>
	<g id="font_design-_typography_00000091010743815378070130000016686115140790739348_">
		<g>
			<polyline class="st3" points="18.4,37.6 13.6,37.6 22.6,12.4 27.4,12.4 36.4,37.6 31,37.6 28.6,31 21.4,31 			"/>
			<line class="st3" x1="17.8" y1="41.2" x2="28.6" y2="9.4"/>
			<line class="st3" x1="25.1" y1="19.7" x2="27.5" y2="26.8"/>
		</g>
		<g>
			<line class="st4" x1="36.4" y1="44.2" x2="36.4" y2="43"/>
			<line class="st4" x1="36.4" y1="41.8" x2="36.4" y2="40.6"/>
			<line class="st4" x1="36.4" y1="28.6" x2="36.4" y2="27.4"/>
			<line class="st4" x1="36.4" y1="31" x2="36.4" y2="29.8"/>
			<line class="st4" x1="36.4" y1="26.2" x2="36.4" y2="25"/>
			<line class="st4" x1="36.4" y1="23.8" x2="36.4" y2="22.6"/>
			<line class="st4" x1="36.4" y1="21.4" x2="36.4" y2="20.2"/>
			<line class="st4" x1="36.4" y1="16.6" x2="36.4" y2="15.4"/>
			<line class="st4" x1="36.4" y1="19" x2="36.4" y2="17.8"/>
			<line class="st4" x1="36.4" y1="9.4" x2="36.4" y2="8.2"/>
			<line class="st4" x1="36.4" y1="7" x2="36.4" y2="5.8"/>
		</g>
		<g>
			<line class="st4" x1="13.6" y1="44.2" x2="13.6" y2="43"/>
			<line class="st4" x1="13.6" y1="41.8" x2="13.6" y2="40.6"/>
			<line class="st4" x1="13.6" y1="28.6" x2="13.6" y2="27.4"/>
			<line class="st4" x1="13.6" y1="31" x2="13.6" y2="29.8"/>
			<line class="st4" x1="13.6" y1="26.2" x2="13.6" y2="25"/>
			<line class="st4" x1="13.6" y1="23.8" x2="13.6" y2="22.6"/>
			<line class="st4" x1="13.6" y1="21.4" x2="13.6" y2="20.2"/>
			<line class="st4" x1="13.6" y1="16.6" x2="13.6" y2="15.4"/>
			<line class="st4" x1="13.6" y1="19" x2="13.6" y2="17.8"/>
			<line class="st4" x1="13.6" y1="9.4" x2="13.6" y2="8.2"/>
			<line class="st4" x1="13.6" y1="7" x2="13.6" y2="5.8"/>
		</g>
		<g>
			<line class="st4" x1="44.2" y1="12.4" x2="43" y2="12.4"/>
			<line class="st4" x1="39.4" y1="12.4" x2="38.2" y2="12.4"/>
			<line class="st4" x1="41.8" y1="12.4" x2="40.6" y2="12.4"/>
			<line class="st4" x1="37" y1="12.4" x2="35.8" y2="12.4"/>
			<line class="st4" x1="34.6" y1="12.4" x2="33.4" y2="12.4"/>
			<line class="st4" x1="32.2" y1="12.4" x2="31" y2="12.4"/>
			<line class="st4" x1="16.6" y1="12.4" x2="15.4" y2="12.4"/>
			<line class="st4" x1="19" y1="12.4" x2="17.8" y2="12.4"/>
			<line class="st4" x1="14.2" y1="12.4" x2="13" y2="12.4"/>
			<line class="st4" x1="11.8" y1="12.4" x2="10.6" y2="12.4"/>
			<line class="st4" x1="9.4" y1="12.4" x2="8.2" y2="12.4"/>
			<line class="st4" x1="7" y1="12.4" x2="5.8" y2="12.4"/>
		</g>
		<g>
			<line class="st4" x1="43" y1="37.6" x2="41.8" y2="37.6"/>
			<line class="st4" x1="40.6" y1="37.6" x2="39.4" y2="37.6"/>
			<line class="st4" x1="28" y1="37.6" x2="26.8" y2="37.6"/>
			<line class="st4" x1="25.6" y1="37.6" x2="24.4" y2="37.6"/>
			<line class="st4" x1="23.2" y1="37.6" x2="22" y2="37.6"/>
			<line class="st4" x1="10.6" y1="37.6" x2="9.4" y2="37.6"/>
			<line class="st4" x1="8.2" y1="37.6" x2="7" y2="37.6"/>
		</g>
	</g>
</g>
</svg>
