<?xml version="1.0" encoding="utf-8"?>
<!-- Generator: Adobe Illustrator 27.5.0, SVG Export Plug-In . SVG Version: 6.00 Build 0)  -->
<svg version="1.1" id="Camada_3" xmlns="http://www.w3.org/2000/svg" xmlns:xlink="http://www.w3.org/1999/xlink" x="0px" y="0px"
	 viewBox="0 0 50 50" style="enable-background:new 0 0 50 50;" xml:space="preserve">
<style type="text/css">
	.st0{fill:#00DFFC;}
	.st1{fill:#00C8E2;}
	.st2{fill:none;stroke:#444444;stroke-linecap:round;stroke-linejoin:round;stroke-miterlimit:10;}
	.st3{fill:none;stroke:#444444;stroke-width:0.5;stroke-linecap:round;stroke-linejoin:round;stroke-miterlimit:10;}
	.st4{fill:none;stroke:#303030;stroke-width:2.5;stroke-linecap:round;stroke-linejoin:round;stroke-miterlimit:10;}
	.st5{fill:none;stroke:#444444;stroke-width:2.5;stroke-linecap:round;stroke-linejoin:round;stroke-miterlimit:10;}
	.st6{fill:none;stroke:#454444;stroke-width:0.5;stroke-linecap:round;stroke-linejoin:round;stroke-miterlimit:10;}
	.st7{fill:#FF6B6B;}
	.st8{fill:#E56060;}
	.st9{fill:none;stroke:#4A494A;stroke-width:0.5;stroke-linecap:round;stroke-linejoin:round;stroke-miterlimit:10;}
</style>
<g>
	<g>
		<path class="st0" d="M411.89,726.31l-21.5,0.4c-1.24,0-0.8,10.06-0.8,11.3l-18.7,1.9l-0.76,5.02l44.37-15.79l0,0
			C414.51,727.9,413.13,726.31,411.89,726.31z"/>
		<path class="st1" d="M369.85,744.48l0.29,21.98l-1.81,1.14c-0.01,0.76,1.1,4.33,1.81,4.08l42.27-15.04l2.09-27.49L369.85,744.48z"
			/>
	</g>
	<g id="online_interview_00000115493227652293050090000004056355245992433848_">
		<path class="st2" d="M370.9,767.93v-25.26c0-1.32,0.47-2.45,2.02-2.59l17.55-0.07"/>
		<path class="st2" d="M389.06,769.41h-4.38v-1.47h-15.94c-0.01,2.92,1.57,4.37,5.07,4.37h15.21"/>
		<path class="st2" d="M410.76,744.06h-14.49l-5.8,5.07v-6.66V730.3c0-1.6,1.3-2.9,2.9-2.9h17.39c1.6,0,2.9,1.3,2.9,2.9v10.87
			C413.66,742.76,412.36,744.06,410.76,744.06z"/>
		<g>
			<path class="st2" d="M401.34,762.89l-7.18,1.04c-2.97,0.52-5.14,3.19-5.14,6.33v2.05"/>
			<path class="st2" d="M406.41,757.46c0,3-2.27,5.43-5.07,5.43s-5.07-2.43-5.07-5.43v-2.17c0-3,2.27-5.43,5.07-5.43
				s5.07,2.43,5.07,5.43V757.46z"/>
			<path class="st2" d="M413.66,772.31"/>
			<path class="st2" d="M401.34,762.89l6.66,0.96c0.29,0.04,0.58,0.09,0.87,0.16c0.93,0.21,2.88,0.72,3.02,1.27"/>
		</g>
		<g>
			<path class="st3" d="M387.53,750.58c0,2.24-1.81,4.05-4.05,4.05c-2.24,0-4.05-1.81-4.05-4.05v-2.7c0-2.24,1.81-4.05,4.05-4.05
				c2.24,0,4.05,1.81,4.05,4.05V750.58z"/>
			<path class="st3" d="M383.49,754.63l-5.27,0.51c-1.74,0.5-2.94,2.09-2.94,3.9v2.35"/>
			<path class="st3" d="M383.49,754.63l5.4,0.51c1.74,0.5,2.94,2.09,2.94,3.9v2.35"/>
		</g>
		<line class="st2" x1="390.27" y1="739.05" x2="389.6" y2="739.54"/>
	</g>
	<path class="st4" d="M414.51,770.27"/>
	<path class="st5" d="M406.41,773.47h-6.49h-17.61h-9.51c-2.26,0-4.19-1.88-5-4.08c-0.39-1.06,0.45-2.17,1.57-2.17l0,0
		c0.42,0,0.76-0.34,0.76-0.76l0-24.75c0-1.4,1.14-2.54,2.54-2.54l14.62,0.03c1.25,0.01,2.34-1.25,2.34-2.5l-0.02-7.33
		c0.29-1.53,1.63-2.64,3.18-2.64l18.15-0.02c1.94,0.1,3.46,1.69,3.47,3.63l0.04,11.96c0,1.25-0.6,2.28-1.86,2.25l-0.18,0
		l-0.03,20.82l-0.01-0.9"/>
</g>
<g>
	<line class="st6" x1="401.66" y1="740.67" x2="403.31" y2="740.67"/>
	<path class="st6" d="M405.74,733.28c0-1.8-1.46-3.26-3.26-3.26c-1.8,0-3.25,1.46-3.25,3.26c0,0.48,0.11,0.93,0.3,1.34h-0.01l1.52,4
		h2.9l1.51-4h0C405.63,734.21,405.74,733.76,405.74,733.28z"/>
	<line class="st6" x1="401.11" y1="739.6" x2="403.78" y2="739.6"/>
</g>
<g>
	<g>
		<path class="st7" d="M30.27,3.16L23.8,1.98c-1.17,0-18.42,10.03-18.42,11.2l-0.71,7.76L38.62,8.82l-0.57-0.33
			C38.06,7.32,31.45,3.16,30.27,3.16z"/>
		<path class="st8" d="M4.52,22.95l-0.23,12c-0.16,2.23,8.78,8.72,10.89,7.97l32.25-11.37c-0.09-1.45-0.77-17-1.6-18.67l-4.85-2.1
			c-0.7-1.41-2.35-2.07-3.83-1.54L5.19,20.71C4.03,21.12,4.61,21.73,4.52,22.95z"/>
	</g>
	<g>
		<g>
			<g>
				<polygon class="st9" points="12.54,23.89 26.26,10.16 34.13,10.12 16.45,27.8 				"/>
				<polyline class="st9" points="33.84,37.16 25.71,37.16 18.99,30.44 26.12,22.94 34.13,22.94 23.02,34.53 				"/>
				<line class="st9" x1="33.84" y1="37.16" x2="22.95" y2="26.27"/>
				<polyline class="st9" points="29.68,32.98 33.84,37.16 25.71,37.16 				"/>
			</g>
			<g>
				<polyline class="st2" points="14.12,18.23 5.38,13.18 25.72,1.44 46.07,13.18 32.68,20.91 				"/>
				<line class="st2" x1="25.72" y1="39.04" x2="25.72" y2="48.6"/>
			</g>
		</g>
		<path class="st5" d="M46.64,31.63V15.16c0-1.37-0.73-2.64-1.92-3.32L27.64,1.98c-1.19-0.69-2.65-0.69-3.84,0L6.73,11.84
			c-1.19,0.69-1.92,1.95-1.92,3.32v19.72c0,1.37,0.73,2.64,1.92,3.32l17.08,9.86c1.19,0.69,2.65,0.69,3.84,0l10.32-5.96"/>
	</g>
</g>
</svg>
