<?xml version="1.0" encoding="utf-8"?>
<!-- Generator: Adobe Illustrator 27.3.1, SVG Export Plug-In . SVG Version: 6.00 Build 0)  -->
<svg version="1.1" id="Camada_3" xmlns="http://www.w3.org/2000/svg" xmlns:xlink="http://www.w3.org/1999/xlink" x="0px" y="0px"
	 viewBox="0 0 50 50" style="enable-background:new 0 0 50 50;" xml:space="preserve">
<style type="text/css">
	.st0{fill:#F799FF;}
	.st1{fill:#E589EF;}
	.st2{fill:none;stroke:#464646;stroke-width:1.5;stroke-linecap:round;stroke-linejoin:round;stroke-miterlimit:10;}
	.st3{fill:none;stroke:#464646;stroke-width:0.25;stroke-linecap:round;stroke-linejoin:round;stroke-miterlimit:10;}
	.st4{fill:none;stroke:#464646;stroke-width:2.5;stroke-linecap:round;stroke-linejoin:round;stroke-miterlimit:10;}
</style>
<g>
	<g>
		<path class="st0" d="M37.54,5.92H22.43L5.4,23.09l34.18-12.16c1.2-1.56-1.42-1.26-2.04-2.79V5.92z"/>
		<path class="st1" d="M5.4,23.09l-4.1,4.06c4.1,4.2,8.51,9.34,14.85,15.93l26.76-9.52c1.28-1.77,4.03-6.28,5.03-8.11
			c0.91-1.67-4.14-1.56-7.38-1.87c-0.86-0.08,0.99-4.91,1.76-7.07c0.34-0.96-3.57,0.62-4.03-0.29l1.29-5.29L5.4,23.09z"/>
	</g>
	<path class="st2" d="M19.46,40.36l13.03-13.99l-9.74,0l-8.92,9.05l8.23,8.09l10.42,0 M32.49,43.52l-13.03-13.3 M11.5,32.27
		l-5.49-5.21L23.57,9.37l10.7,0L11.5,32.27z"/>
	<g>
		<polyline class="st3" points="21.48,27.67 15.51,27.95 16.84,32.37 		"/>
		<polyline class="st3" points="32.23,43.52 43.24,26.64 31.84,27.17 		"/>
		<polyline class="st3" points="36.28,26.96 38.29,19.52 15.51,27.95 36.26,11.58 31.84,27.17 		"/>
	</g>
	<polyline class="st4" points="39.9,38.03 48.7,24.25 40.56,23.57 42.49,15.84 38.29,16.21 40.07,8.93 37.54,8.66 37.54,5.92 
		22.43,5.92 1.3,27.14 20.56,46.9 31.84,46.9 	"/>
</g>
</svg>
