<?xml version="1.0" encoding="utf-8"?>
<!-- Generator: Adobe Illustrator 28.3.0, SVG Export Plug-In . SVG Version: 6.00 Build 0)  -->
<svg version="1.1" id="Layer_1" xmlns="http://www.w3.org/2000/svg" xmlns:xlink="http://www.w3.org/1999/xlink" x="0px" y="0px"
	 viewBox="0 0 50 50" style="enable-background:new 0 0 50 50;" xml:space="preserve">
<style type="text/css">
	.st0{fill:#8256D8;}
	.st1{fill:#A475EF;}
	.st2{fill:none;stroke:#444444;stroke-width:2.5;stroke-linecap:round;stroke-linejoin:round;stroke-miterlimit:10;}
	.st3{fill:none;stroke:#444444;stroke-width:0.5;stroke-miterlimit:10;}
	.st4{fill:none;stroke:#444444;stroke-miterlimit:10;}
	.st5{fill:none;stroke:#444444;stroke-width:0.5;stroke-linecap:round;stroke-linejoin:round;stroke-miterlimit:10;}
</style>
<g>
	<polygon class="st0" points="19.9,21.1 27.7,23.5 21,28.3 21.1,36.5 14.6,31.6 6.8,34.2 9.4,26.4 4.5,19.8 12.7,19.9 17.5,13.2 	
		"/>
	<g>
		<g>
			<g>
				<g>
					<path class="st1" d="M25.1,2h-21C2.5,2,2.5,6.3,2.5,7.9L2.3,22.6L1.7,34.1l0.7,13.1l1.3,0.9l25.2-8.9l-0.2-15.3
						c5.3-0.2,11.5-3.2,19.3-2.2l0.5-13.1c0.1-1.5-2.6-3.4-4.1-3.4L28.8,6.6l-0.5-1.8C28.3,3.2,26.7,2,25.1,2z"/>
					<path class="st2" d="M28.3,41.9V23.7l1.5,0c0.7,0,3.6-0.3,6.1-1.1c3.4-1.1,9.6-1.1,12.6,0V5.8c0-0.8-2.8-1.1-5.2-1.2
						c-2-0.1-3.9,0.1-5.9,0.5l-9.1,1.9V5.3c0-1.9-1.6-3.5-3.5-3.5H5.2c-1.9,0-3.5,1.6-3.5,3.5v39.1c0,1.9,1.6,3.5,3.5,3.5h16.1"/>
					<path class="st3" d="M11.3,5.8h7c1.3,0,2.4-1.1,2.4-2.4V2.5c0-0.3-0.3-0.6-0.6-0.6H9.4c-0.3,0-0.6,0.3-0.6,0.6v0.9
						C8.9,4.7,9.9,5.8,11.3,5.8z"/>
				</g>
			</g>
			<circle class="st3" cx="15.5" cy="42.9" r="2.3"/>
		</g>
		<g>
			<path class="st4" d="M23.9,7.7v13.7c0,0.2,0.1,0.5,0.4,0.6c7.7,3.5,15.4-4,23.1-0.2v-15C39.8,3,32.2,10.1,24.7,7.1
				C24.3,6.9,23.9,7.2,23.9,7.7z"/>
			<path class="st4" d="M23.2,6.7h-0.3c-0.3,0-0.6,0.3-0.6,0.6v36.4c0,0.3,0.3,0.6,0.6,0.6h0.3c0.3,0,0.6-0.3,0.6-0.6V7.3
				C23.9,7,23.6,6.7,23.2,6.7z"/>
		</g>
		<path class="st5" d="M26.7,9.9c0,0,6,1.9,10.2,0.1s7.4-1,7.4-1"/>
		<path class="st5" d="M26.7,18.5c0,0,6,1.9,10.2,0.1c4.2-1.9,7.4-1,7.4-1"/>
		<path class="st5" d="M26.7,12.9c0,0,6,1.9,10.2,0.1s7.4-1,7.4-1"/>
		<path class="st5" d="M26.7,15.6c0,0,6,1.9,10.2,0.1s7.4-1,7.4-1"/>
	</g>
</g>
</svg>
