<?xml version="1.0" encoding="utf-8"?>
<!-- Generator: Adobe Illustrator 24.0.0, SVG Export Plug-In . SVG Version: 6.00 Build 0)  -->
<svg version="1.1" id="Layer_1" xmlns="http://www.w3.org/2000/svg" xmlns:xlink="http://www.w3.org/1999/xlink" x="0px" y="0px"
	 viewBox="0 0 50 50" style="enable-background:new 0 0 50 50;" xml:space="preserve">
<style type="text/css">
	.st0{fill:#AFE55D;}
	.st1{fill:#C3FF68;}
	.st2{fill:none;stroke:#444444;stroke-width:2.5;stroke-linecap:round;stroke-linejoin:round;stroke-miterlimit:10;}
	.st3{fill:none;stroke:#444444;stroke-width:1.5;stroke-linecap:round;stroke-linejoin:round;stroke-miterlimit:10;}
	.st4{fill:#444444;stroke:#444444;stroke-width:0.5;stroke-miterlimit:10;}
</style>
<polygon class="st0" points="45.3,24.9 45.8,29 4.2,44.2 4.1,35.5 4.3,30.5 45.8,15.4 45.2,18.9 "/>
<polygon class="st1" points="45,9 44.7,16.3 4,31.2 3.8,21.8 4,17.6 45,2.6 "/>
<polyline class="st2" points="24.1,48.2 4.2,48.2 4.2,1.5 45.8,1.5 45.8,28.9 "/>
<line class="st3" x1="10.7" y1="9.5" x2="34.8" y2="9.5"/>
<line class="st3" x1="10.7" y1="14" x2="27.2" y2="14"/>
<line class="st3" x1="10.7" y1="18.6" x2="32.8" y2="18.6"/>
<polyline class="st3" points="11.1,35.3 21.4,27.7 29.5,28.9 37,23.4 "/>
<g>
	<g>
		<path class="st4" d="M44.5,41.4h-2.4v-0.8c1.2-0.2,2.1-1.2,2.1-2.5v-0.5c0-0.2-0.2-0.4-0.4-0.4c-0.2,0-0.4,0.2-0.4,0.4v0.5
			c0,0.8-0.6,1.5-1.3,1.7v-0.3c0-0.4-0.3-0.7-0.7-0.7H41v-1.5c0-0.8-0.6-1.5-1.4-1.7l0.3-0.7c0.1-0.2,0-0.4-0.2-0.5
			c-0.2-0.1-0.4,0-0.5,0.2l-0.4,1h-1.6l-0.4-1c-0.1-0.2-0.3-0.3-0.5-0.2c-0.2,0.1-0.3,0.3-0.2,0.5l0.3,0.7c-0.8,0.2-1.4,0.8-1.4,1.7
			v1.5h-0.4c-0.4,0-0.7,0.3-0.7,0.7v0.3c-0.8-0.2-1.3-0.9-1.3-1.7v-0.5c0-0.2-0.2-0.4-0.4-0.4c-0.2,0-0.4,0.2-0.4,0.4v0.5
			c0,1.2,0.9,2.3,2.1,2.5v0.8h-2.4c-0.2,0-0.4,0.2-0.4,0.4c0,0.2,0.2,0.4,0.4,0.4h2.4V43c-1.2,0.2-2.1,1.2-2.1,2.5V46
			c0,0.2,0.2,0.4,0.4,0.4c0.2,0,0.4-0.2,0.4-0.4v-0.5c0-0.8,0.6-1.5,1.3-1.7V44c0,2.3,1.8,4.1,4.1,4.1c2.3,0,4.1-1.8,4.1-4.1v-0.2
			c0.8,0.2,1.3,0.9,1.3,1.7V46c0,0.2,0.2,0.4,0.4,0.4s0.4-0.2,0.4-0.4v-0.5c0-1.2-0.9-2.3-2.1-2.5v-0.8h2.4c0.2,0,0.4-0.2,0.4-0.4
			C44.8,41.5,44.7,41.4,44.5,41.4z M35.8,37.3c0-0.5,0.4-0.9,0.9-0.9h2.6c0.5,0,0.9,0.4,0.9,0.9v1.5h-4.5V37.3z M41.3,44
			c0,1.8-1.5,3.3-3.3,3.3c-1.8,0-3.3-1.5-3.3-3.3v-4.5h2.9v3.8c0,0.2,0.2,0.4,0.4,0.4s0.4-0.2,0.4-0.4v-3.8h2.9V44z"/>
	</g>
</g>
</svg>
