<svg xmlns="http://www.w3.org/2000/svg" viewBox="0 0 50 50"><path fill="#dc5e82" d="M45.3 12.6L39.7 9 32 4.6l-6-2.8c-3.2 0-21.5 8.9-21.5 12.1L4 21.7l.5 15.1L16 44.4l31-11c.9-.5-.7-18.8-1.7-20.8z"/><path fill="none" stroke="#444" stroke-linecap="round" stroke-linejoin="round" stroke-width="2.5" d="M30.6 46.7L28.4 48c-1.7 1-3.8 1-5.5 0L7.3 39c-1.6-1-2.7-2.8-2.7-4.8v-18c0-2 1-3.8 2.7-4.7l15.6-9c1.7-1 3.8-1 5.5 0l15.6 9c1.7 1 2.7 2.8 2.7 4.7v18c0 2-1 3.8-2.7 4.7l-2.5 1.4"/><path fill="none" stroke="#444" stroke-linecap="round" stroke-linejoin="round" d="M34.5 41.4L22.7 20.5l11.9-12c.6-.6.7-1.2.4-1.9-.3-.7-1-1.1-1.7-1.1h-9.2c-.4 0-1 .1-1.2.6l-8.3 8.5m-2.1 2l-6.9 7c-.7.7-.7 1.8 0 2.5l4.5 4.4c.3.3.8.6 1.2.6s1-.1 1.2-.6l7.2-7.2m2.4 1.3l-3.2 3.2-4.7 4.7c-.3.3-.6.8-.6 1.2v.7c.3.1.4.4.6.6l4.7 4.4h0l4.4 4.3c.3.3.8.6 1.2.6h8.8c.7 0 1.4-.4 1.7-1.1s.1-1.4-.4-1.9l-7.7-7.6 3.4-3.4m-3.4 3.3L20 27m.2 13.4l6.7-6.9"/><path fill="none" stroke="#444" stroke-miterlimit="10" stroke-width=".5" d="M9 10.7l36.5 27.2"/><path fill="#444" d="M32.5 28.5l-.7-.7 2.7-2.6c.4-.4.5-.9.3-1.4s-.6-.8-1.1-.8l-8.6-.3-1-1 9.6.3c.9 0 1.6.5 2 1.4.4.9.2 1.8-.5 2.5l-2.7 2.6z"/></svg>