<svg xmlns="http://www.w3.org/2000/svg" id="Layer_1" x="0" y="0" version="1.1" viewBox="0 0 50 50" xml:space="preserve"><style>.st3{fill:none;stroke:#444;stroke-width:.5;stroke-linecap:round;stroke-linejoin:round;stroke-miterlimit:10}</style><path fill="#c3ff68" d="M45 12.9l-5.6-3.6-7.7-4.4-6-2.8C22.5 2 4.3 11 4.3 14.2L3.8 22l.5 15.1 11.5 7.6 31-11c.7-.5-.8-18.8-1.8-20.8z"/><path fill="none" stroke="#444" stroke-linecap="round" stroke-linejoin="round" stroke-miterlimit="10" stroke-width="2.5" d="M30.2 46.6L28 47.9c-1.7 1-3.8 1-5.5 0L7 38.9c-1.7-1-2.7-2.8-2.7-4.7v-18c0-2 1-3.8 2.7-4.7l15.6-9c1.7-1 3.8-1 5.5 0l15.6 9c1.7 1 2.7 2.8 2.7 4.7v18c0 2-1 3.8-2.7 4.7l-2.5 1.4"/><circle cx="25.3" cy="25.1" r="4.4" fill="none" stroke="#444" stroke-linecap="round" stroke-linejoin="round" stroke-miterlimit="10"/><circle cx="25.3" cy="25.1" r="10.5" class="st3"/><path d="M41.8 25.1c0 .9-.1 1.7-.2 2.6m-.6 2.6c-.3.8-.6 1.6-1 2.4m-1.4 2.2c-.5.7-1.1 1.3-1.7 2M35 38.5c-.7.5-1.5 1-2.2 1.4m-2.4 1c-.8.3-1.7.5-2.6.6m-2.5.2c-.9 0-1.7-.1-2.6-.2m-2.6-.6c-.8-.3-1.6-.6-2.4-1m-2.2-1.4c-.7-.5-1.3-1.1-2-1.7m-1.6-1.9c-.5-.7-1-1.5-1.4-2.2m-1-2.4c-.3-.8-.5-1.7-.6-2.6m-.2-2.6c0-.9.1-1.7.2-2.6m.6-2.5c.3-.8.6-1.6 1-2.4m1.4-2.2c.5-.7 1.1-1.3 1.7-2m1.9-1.6c.7-.5 1.5-1 2.2-1.4m2.4-1c.8-.3 1.7-.5 2.6-.6m2.6-.2c.9 0 1.7.1 2.6.2m2.5.6c.8.3 1.6.6 2.4 1m2.2 1.4c.7.5 1.3 1.1 2 1.7m1.6 1.9c.5.7 1 1.5 1.4 2.2m1 2.4c.3.8.5 1.7.6 2.6" class="st3"/></svg>