<svg xmlns="http://www.w3.org/2000/svg" id="Camada_1" version="1.1" viewBox="0 0 300 300"><defs><style>.st0{fill:#646464}.st3{fill:#ffda00}.st4{fill:#fff;isolation:isolate;opacity:.2}.st10{fill:#f7941e}.st11{fill:#37393a}.st13{fill:#eaeaea}</style></defs><path id="Camada_2" fill="#54c654" d="M289.9 148.2c.1 20.5-4.3 40-12 57.6-21.8 49.2-70.9 83.5-128.2 83.7-15.2.1-29.9-2.3-43.6-6.7-25.8-8.2-48.4-23.8-65.3-44.2-17.6-21.1-29.1-47.5-31.8-76.5-.4-4.2-.6-8.4-.6-12.7-.2-47.8 23.5-90.2 59.8-115.7 4.8-3.4 9.7-6.4 14.8-9.1 7.3-3.9 14.8-7.1 22.8-9.7 7.5-2.4 15.2-4.2 23.2-5.3 6.4-.9 12.9-1.4 19.5-1.5 25.9-.1 50.1 6.8 71.1 18.9 3.8 2.1 7.4 4.5 10.9 7 16.8 11.9 30.8 27.3 41 45.4 1.2 2 2.2 4.1 3.3 6.2.9 1.8 1.7 3.6 2.6 5.4 2.7 6 4.9 12.1 6.8 18.4 2 7.1 3.6 14.4 4.5 21.7.8 5.7 1.2 11.4 1.2 17.1z"/><g id="computer"><path fill="#4d5152" d="M290.8 216.8H86.3V99.6c0-9.3 7.6-16.9 16.9-16.9h170.7c9.3 0 16.9 7.6 16.9 16.9v117.2z"/><path fill="#008dd3" d="M281 93.8H100.8c-2.1 0-3.7 1.6-3.7 3.7v108.3h180.1c2.1 0 3.7-1.6 3.7-3.7V93.8z"/><path d="M279.9 240.6H97.1c-5.9 0-10.9-4.8-10.9-10.9v-12.9h204.5v12.9c0 6-4.8 10.9-10.9 10.9z" class="st13"/><path d="M170.8 265c-2.4 0-4.2-2.2-3.6-4.6 1.3-5.3 3.5-14.2 5.3-19.4l.2-.4h31.6l.3.7c2.2 6.2 4 12.6 5.4 19 .5 2.3-1.3 4.5-3.6 4.5l-35.6.2z" class="st13"/><path fill="#828d8e" d="M203.3 252.8c2.5 0 4.3-2.4 3.5-4.7-.7-2.2-1.5-4.5-2.2-6.7l-.3-.7h-31.6l-.2.4c-.9 2.3-1.6 4.7-2.2 7.1-.7 2.3 1.1 4.7 3.5 4.7h29.5z"/></g><path d="M247.8 104.4s23.6-2.6 24 18.9v29.8s0 5.4-4.3 5.3c-1.8 0-5.3 0-5.8-5.3-.5-7 0-21.5-9.6-29.8-8.7-7.5-22-8-29.6-9.6-9.5-2.1-9.5-9.6-.5-9.5 8.6.2 25.8.3 25.8.3zm25.2 62.3s-3.8-9-9.6-1.3 0 11.8 0 11.8 7.3 5.5 9.6 0c2.2-5.6 0-10.5 0-10.5z" class="st4"/><path fill="none" stroke="#4d5152" stroke-linecap="round" stroke-linejoin="round" stroke-width="2" d="M107.4 120.3h36M115.9 133h148.8m-148.8 12.5h148.8m-148.8 24h81.2m-81.2 11.7h54.3m-54.3 13h41m-41-36.5h148.8"/><path fill="none" stroke="#54c654" stroke-miterlimit="10" stroke-width="4" d="M281 112H96.5"/><circle cx="268.7" cy="103.1" r="4.5" fill="#ef3030"/><circle cx="254" cy="103.1" r="4.5" fill="#ed9751"/><circle cx="239.4" cy="103.1" r="4.5" fill="#00bf5f"/><g><path d="M50.9 120.8l-4.9 23s9.5 2.6 15.6-1l-6.3-22.6-4.4.5z" class="st3"/><path d="M51.7 122.7l-3.4 21.9c.3.1.7.2 1.1.2l2.3-22.1zm1.9.6l1.7 21.6h.8l-2.5-21.5zm1.1-.7l4.8 21.4c.4 0 .8-.2 1.1-.4l-5.9-21z" class="st10"/><path d="M84.1 119c4.6 5.8 16.7 4.9 25.3 3.5 7.2-1.2 19.1-4.8 26.9-7.9 1.4-.6 3.1-1.3 4.8-2.1 6.7-3.2 15-7.9 19.7-11.2 3.7-2.6 8-6.1 11.1-9.8.7-.9 1.4-1.8 2-2.7 1.7-2.6 2.7-5.3 2.4-7.9-1.5-3.6-6.1-13.1-10.1-21.4-3.7-7.5-6.9-14-6.9-14s-1.9 1.5-4.8 3.8c-1 .8-2.1 1.6-3.2 2.5-9.4 7.3-24.5 18.6-32 21.7-3.3 1.4-8.9 2.7-15.1 3.8-14.8 2.8-33.1 4.6-33.1 4.6s2.2 6.5 4.9 14.2c3 8.8 6.6 19.1 8.2 22.8z" class="st0"/><path d="M82.7 119.5c4.6 5.8 16.7 4.9 25.3 3.5 7.2-1.2 19.1-4.8 26.9-7.9 1.4-.6 3.1-1.3 4.8-2.1-12.2 4.1-21.9 2.9-29.3-6.3-3.9-4.8-7.4-12.4-7.4-19.8 0-3-.1-6.2-.2-8.9-14.8 2.8-33.1 4.6-33.1 4.6s10.2 30.1 13 37z" class="st11"/><path d="M151.3 51.8c1.8 2.6 3.3 5 4.8 7.6 2.6 4.8 4.9 8.6 7.6 14.4 2.1 4.6 6 13.3 8.3 17.6.7-.9 1.4-1.8 2-2.7-.8-8-6.4-17.7-10.6-24.8-2.6-4.4-5.3-9.4-8.8-14.6-1 .8-2.1 1.6-3.2 2.5z" class="st4"/><path d="M165.9 60.4l-38.5 35.1L76 98.2c-2.7-7.9-5-14.7-5-14.7s2.4-.2 6.1-.7c1.2-.1 2.6-.3 4.1-.5 11.8-1.5 30.5-4.2 38-7.3 3.3-1.4 8.2-4.4 13.4-8 12.4-8.5 26.7-20.1 26.7-20.1s3.1 6.2 6.6 13.5z" class="st11"/><path d="M197.5 22c0-.1-.1-.2-.2-.3 0-.1 0-.2-.2-.3-.2-.5-.5-.9-.7-1.3l-72.5 63.7L28 89.2c0 .9 0 2 .1 3.1 0 .5.1 1 .2 1.4l97.5-5.3 72.3-65c-.2-.4-.4-.9-.6-1.4z" class="st0"/><path fill="#979a9b" d="M104 29.3L28.1 89.2l96.3-4.3 72-64.8-92.4 9.2z"/><path d="M181.2 23.7l-33.4 3c-1.2.1-1.2 1.9 0 2l21.5.6c.8 0 1.3 1 .7 1.7l-32 33.7c-.9.9.4 2.2 1.4 1.4l43.3-38.7c1.5-1.3.4-3.8-1.6-3.6z" class="st4"/><path d="M107.8 56.4l-.8-.7c-8.6 4-20 10-26.6 13.7-6.6 3.6-19 10-23.3 12.8-4.5 2.9-6.2 3.4-6.2 10v27.7h3.5l-.5-28.4c0-4.3.7-5.2 3.3-6.7 6.3-3.7 17.8-9.9 24.2-13.3 6.5-3.4 20.3-10.8 27.4-14.1l-1-.9z" class="st3"/><path d="M119.2 50.2c-1-2.3-5-2.1-9.3-.3-4.3 1.8-7.4 4.5-6.4 6.8s5.3 2.9 9.6 1.1c4.3-1.8 7.1-5.1 6.1-7.6z" class="st0"/><path d="M112.5 49.3c-4.4 1.8-4.1 4.7.7 2.9 1.7-.6 3.8-1.6 5.2-2.7-1-1.3-4.5-.8-5.9-.2z" class="st4"/><g><path d="M55.8 120.8c0-1.6-1.4-2.8-3-2.8h-.7c-.1 0-.3 0-.4.1h-.1c-.1 0-.2.1-.4.2l-.1.1c-.1 0-.2.2-.3.3 0 0 0 .1-.1.2 0 0-.2.2-.2.3 0 0 0 .1-.1.2 0 0 0 .2-.1.3v1c0 .8.4 1.5.9 2 .3.3.6.5.9.6.3.1.7.2 1.1.2h.7c.1 0 .2 0 .3-.1 0 0 .1 0 .2-.1 0 0 .2 0 .3-.2 0 0 .1 0 .2-.1h.1c.6-.5 1-1.4 1-2.3z" class="st10"/><path d="M54.2 118.7c-2-.1-1.4 3.2.2 3.2 1.8 0 1.4-3.1-.2-3.2z" class="st4"/></g></g></svg>