<?xml version="1.0" encoding="utf-8"?>
<!-- Generator: Adobe Illustrator 26.0.3, SVG Export Plug-In . SVG Version: 6.00 Build 0)  -->
<svg version="1.1" id="Camada_1" xmlns="http://www.w3.org/2000/svg" xmlns:xlink="http://www.w3.org/1999/xlink" x="0px" y="0px"
	 viewBox="0 0 50 50" style="enable-background:new 0 0 50 50;" xml:space="preserve">
<style type="text/css">
	.st0{fill:#46B8B0;}
	.st1{fill:#4ECDC4;}
	.st2{fill:none;stroke:#444444;stroke-width:2.5;stroke-linecap:round;stroke-linejoin:round;}
	.st3{fill:#FEFEFE;}
	.st4{fill:#444444;}
</style>
<polygon class="st0" points="46.6,26.6 47,30.8 2.7,46.9 2.8,38.2 3.2,33.2 47.3,17.2 46.6,20.7 "/>
<polygon class="st1" points="46.6,10.8 46.1,18.1 2.8,33.9 2.8,24.5 3.2,20.3 46.7,4.4 "/>
<polyline class="st2" points="36.9,46.6 46.6,46.6 46.6,3.1 2.8,3.1 2.8,46.6 "/>
<g>
	<path class="st3" d="M25,8.9C16.1,8.9,8.9,16.1,8.9,25c0,8.8,7.2,16.1,16,16.1c8.9,0,16.2-7.2,16.2-16.1C41.1,16.1,33.9,8.9,25,8.9
		z M29.7,38.3c-0.8,0.3-1.3,0-1.2-0.9c0-1,0-1.9,0-2.9c0-1.8,0-1.8-0.9-3.3c0.8-0.1,1.5-0.2,2.2-0.5c2.4-0.7,3.7-2.4,4.1-4.8
		c0.2-1.4,0.2-2.7-0.3-4c-0.2-0.5-0.5-0.9-0.8-1.3c-0.1-0.1-0.1-0.2-0.1-0.4c0.3-1.1,0.2-2.2-0.1-3.2c-0.1-0.2-0.2-0.3-0.4-0.3
		c-0.9,0-1.6,0.4-2.3,0.8c-0.4,0.2-0.8,0.6-1.2,0.7c-0.4,0.1-0.9-0.2-1.3-0.3c-1.9-0.4-3.7-0.2-5.6,0.2c-0.2,0-0.3,0-0.5-0.1
		c-0.9-0.5-1.7-1-2.7-1.2c-0.8-0.2-0.9-0.1-1.1,0.6c-0.3,0.9-0.3,1.9,0,2.8c0,0.1,0,0.2,0,0.3c-1.6,1.9-1.6,4.1-1,6.3
		c0.6,2.3,2.3,3.5,4.6,4c0.5,0.1,1,0.2,1.5,0.3c0,0.1,0,0.1-0.1,0.1c-0.4,0.4-0.6,0.9-0.7,1.4c-0.1,0.3-0.2,0.4-0.5,0.5
		c-1.6,0.5-2.9,0.1-3.8-1.4c-0.4-0.7-1.1-1.2-1.9-1.3c-0.3,0-0.7-0.1-0.8,0.2c-0.1,0.3,0.2,0.5,0.4,0.6c0.8,0.5,1.2,1.2,1.6,2
		c0.5,1.3,1.5,1.9,2.8,2.1c0.7,0.1,1.3,0,2-0.1c0,0.8,0,1.7,0,2.5c0,0.5-0.6,0.7-1.1,0.5c-1.2-0.4-2.3-0.9-3.3-1.6
		c-2.5-1.8-4.4-4.1-5.4-7c-1.3-3.8-1.1-7.5,0.7-11c1.6-3.2,4.2-5.5,7.6-6.8c2.4-0.9,4.8-1.1,7.3-0.7c3.5,0.6,6.3,2.3,8.6,4.9
		c1.7,2.1,2.7,4.5,3.1,7.1c0.4,3.5-0.3,6.6-2.2,9.5C35,35.4,32.6,37.2,29.7,38.3z"/>
	<path class="st4" d="M25,8.9C16.1,8.9,8.9,16.1,8.9,25c0,8.8,7.2,16.1,16,16.1c8.9,0,16.2-7.2,16.2-16.1C41.1,16.1,33.9,8.9,25,8.9
		z M29.7,38.3c-0.8,0.3-1.3,0-1.2-0.9c0-1,0-1.9,0-2.9c0-1.8,0-1.8-0.9-3.3c0.8-0.1,1.5-0.2,2.2-0.5c2.4-0.7,3.7-2.4,4.1-4.8
		c0.2-1.4,0.2-2.7-0.3-4c-0.2-0.5-0.5-0.9-0.8-1.3c-0.1-0.1-0.1-0.2-0.1-0.4c0.3-1.1,0.2-2.2-0.1-3.2c-0.1-0.2-0.2-0.3-0.4-0.3
		c-0.9,0-1.6,0.4-2.3,0.8c-0.4,0.2-0.8,0.6-1.2,0.7c-0.4,0.1-0.9-0.2-1.3-0.3c-1.9-0.4-3.7-0.2-5.6,0.2c-0.2,0-0.3,0-0.5-0.1
		c-0.9-0.5-1.7-1-2.7-1.2c-0.8-0.2-0.9-0.1-1.1,0.6c-0.3,0.9-0.3,1.9,0,2.8c0,0.1,0,0.2,0,0.3c-1.6,1.9-1.6,4.1-1,6.3
		c0.6,2.3,2.3,3.5,4.6,4c0.5,0.1,1,0.2,1.5,0.3c0,0.1,0,0.1-0.1,0.1c-0.4,0.4-0.6,0.9-0.7,1.4c-0.1,0.3-0.2,0.4-0.5,0.5
		c-1.6,0.5-2.9,0.1-3.8-1.4c-0.4-0.7-1.1-1.2-1.9-1.3c-0.3,0-0.7-0.1-0.8,0.2c-0.1,0.3,0.2,0.5,0.4,0.6c0.8,0.5,1.2,1.2,1.6,2
		c0.5,1.3,1.5,1.9,2.8,2.1c0.7,0.1,1.3,0,2-0.1c0,0.8,0,1.7,0,2.5c0,0.5-0.6,0.7-1.1,0.5c-1.2-0.4-2.3-0.9-3.3-1.6
		c-2.5-1.8-4.4-4.1-5.4-7c-1.3-3.8-1.1-7.5,0.7-11c1.6-3.2,4.2-5.5,7.6-6.8c2.4-0.9,4.8-1.1,7.3-0.7c3.5,0.6,6.3,2.3,8.6,4.9
		c1.7,2.1,2.7,4.5,3.1,7.1c0.4,3.5-0.3,6.6-2.2,9.5C35,35.4,32.6,37.2,29.7,38.3z"/>
</g>
</svg>
