<?xml version="1.0" encoding="utf-8"?>
<!-- Generator: Adobe Illustrator 26.1.0, SVG Export Plug-In . SVG Version: 6.00 Build 0)  -->
<svg version="1.1" id="Layer_1" xmlns="http://www.w3.org/2000/svg" xmlns:xlink="http://www.w3.org/1999/xlink" x="0px" y="0px"
	 viewBox="0 0 50 50" style="enable-background:new 0 0 50 50;" xml:space="preserve">
<style type="text/css">
	.st0{fill:#AFE55D;}
	.st1{fill:#C3FF68;}
	.st2{fill:#444444;}
</style>
<polygon class="st0" points="46.9,26.2 47.2,30.3 2.5,46.6 2.6,37.9 2.9,32.8 47.5,16.6 46.8,20.2 "/>
<polygon class="st1" points="47,10 46.5,17.5 2.7,33.4 2.7,24 3,19.7 47.2,3.6 "/>
<path class="st2" d="M32.5,48.5h-30c-0.7,0-1.2-0.6-1.2-1.2V2.8c0-0.7,0.6-1.2,1.2-1.2h44.7c0.7,0,1.2,0.6,1.2,1.2v34.4
	c0,0.7-0.6,1.2-1.2,1.2s-1.2-0.6-1.2-1.2V4H3.8V46h28.7c0.7,0,1.2,0.6,1.2,1.2S33.2,48.5,32.5,48.5z"/>
<path class="st2" d="M34.1,12.5H15.8c-0.3,0-0.5-0.2-0.5-0.5s0.2-0.5,0.5-0.5h18.3c0.3,0,0.5,0.2,0.5,0.5S34.4,12.5,34.1,12.5z"/>
<path class="st2" d="M34.2,38.5H15.8c-0.3,0-0.5-0.2-0.5-0.5s0.2-0.5,0.5-0.5h18.4c0.3,0,0.5,0.2,0.5,0.5S34.5,38.5,34.2,38.5z"/>
<path class="st2" d="M32.9,42.4H17.1c-1.3,0-2.3-1-2.3-2.3V9.9c0-1.3,1-2.3,2.3-2.3h15.7c1.3,0,2.3,1,2.3,2.3v30.2
	C35.2,41.4,34.1,42.4,32.9,42.4z M17.1,8.4c-0.8,0-1.5,0.7-1.5,1.5v30.2c0,0.8,0.7,1.5,1.5,1.5h15.7c0.8,0,1.5-0.7,1.5-1.5V9.9
	c0-0.8-0.7-1.5-1.5-1.5H17.1z"/>
<path class="st2" d="M26.9,40.4h-3.7c-0.2,0-0.4-0.2-0.4-0.4s0.2-0.4,0.4-0.4h3.7c0.2,0,0.4,0.2,0.4,0.4S27.1,40.4,26.9,40.4z"/>
<g>
	<path class="st2" d="M9.3,22.5c-0.2,0-0.4-0.2-0.4-0.4v-5c0-0.2,0.2-0.4,0.4-0.4h3.5c0.2,0,0.4,0.2,0.4,0.4s-0.2,0.4-0.4,0.4H9.7
		v4.6C9.7,22.3,9.5,22.5,9.3,22.5z"/>
	<path class="st2" d="M40.6,22.5c-0.2,0-0.4-0.2-0.4-0.4v-4.6h-3c-0.2,0-0.4-0.2-0.4-0.4s0.2-0.4,0.4-0.4h3.4c0.2,0,0.4,0.2,0.4,0.4
		v5C41,22.3,40.8,22.5,40.6,22.5z"/>
	<path class="st2" d="M40.6,33.3h-3.4c-0.2,0-0.4-0.2-0.4-0.4s0.2-0.4,0.4-0.4h3v-4.6c0-0.2,0.2-0.4,0.4-0.4s0.4,0.2,0.4,0.4v5
		C41,33.1,40.8,33.3,40.6,33.3z"/>
	<path class="st2" d="M12.9,33.3H9.3c-0.2,0-0.4-0.2-0.4-0.4v-5c0-0.2,0.2-0.4,0.4-0.4s0.4,0.2,0.4,0.4v4.6h3.1
		c0.2,0,0.4,0.2,0.4,0.4S13.1,33.3,12.9,33.3z"/>
</g>
<g>
	<path class="st2" d="M29.7,29.2h-9.5c-0.6,0-1-0.5-1-1v-4.9c0-0.6,0.5-1,1-1h1.9c0.2,0,0.4-0.2,0.4-0.4c0-0.6,0.5-1,1-1h2.9
		c0.6,0,1,0.5,1,1c0,0.2,0.2,0.4,0.4,0.4h1.9c0.6,0,1,0.5,1,1v4.9C30.8,28.7,30.3,29.2,29.7,29.2z M20.3,22.9
		c-0.2,0-0.4,0.2-0.4,0.4v4.9c0,0.2,0.2,0.4,0.4,0.4h9.5c0.2,0,0.4-0.2,0.4-0.4v-4.9c0-0.2-0.2-0.4-0.4-0.4h-1.9c-0.6,0-1-0.5-1-1
		c0-0.2-0.2-0.4-0.4-0.4h-2.9c-0.2,0-0.4,0.2-0.4,0.4c0,0.6-0.5,1-1,1H20.3z"/>
	<path class="st2" d="M25,28.1c-1.4,0-2.6-1.1-2.6-2.6S23.6,23,25,23s2.6,1.1,2.6,2.6S26.4,28.1,25,28.1z M25,23.6
		c-1,0-1.9,0.8-1.9,1.9c0,1,0.8,1.9,1.9,1.9c1,0,1.9-0.8,1.9-1.9C26.9,24.5,26,23.6,25,23.6z"/>
	<circle class="st2" cx="29.1" cy="23.7" r="0.4"/>
</g>
</svg>
