<?xml version="1.0" encoding="utf-8"?>
<!-- Generator: Adobe Illustrator 27.5.0, SVG Export Plug-In . SVG Version: 6.00 Build 0)  -->
<svg version="1.1" id="Camada_1" xmlns="http://www.w3.org/2000/svg" xmlns:xlink="http://www.w3.org/1999/xlink" x="0px" y="0px"
	 viewBox="0 0 50 50" style="enable-background:new 0 0 50 50;" xml:space="preserve">
<style type="text/css">
	.st0{fill:#46B8B0;}
	.st1{fill:#444444;}
	.st2{fill:#444444;stroke:#444444;stroke-miterlimit:10;}
</style>
<polygon class="st0" points="4,1.9 4.3,9.8 8.4,13.4 4.8,14.1 4.2,29.3 18,42.4 18.2,47.7 44.1,38.5 43.7,34 46.4,28.9 46,27 
	44.6,26.8 41.5,27.3 34,27.4 29.5,21.9 29.5,21.1 33.5,21.2 33.5,1.8 "/>
<path class="st1" d="M27.9,6.2c-3.1,0-12.9,0-17.3,0c-0.6,0-1.1,0.4-1.4,0.9C9,7.8,9.1,8.4,9.6,8.8l7.4,7.4h-6.5
	c-0.7,0-1.4,0.3-1.9,0.8s-0.8,1.2-0.8,1.9v6.7c0,0.9,0.3,1.7,0.9,2.3l7.4,7.4c0.3,0.3,0.8,0.5,1.2,0.5c0.2,0,0.4,0,0.7-0.1
	c0.6-0.3,1.1-0.9,1.1-1.6v-5.7c0-0.5,0.4-0.9,0.9-0.9h5.3c0.8,0,1.4-0.4,1.7-1.1c0.3-0.7,0.1-1.5-0.4-2l-7.1-7.1H28
	c0.8,0,1.5-0.7,1.5-1.5v-8C29.4,6.9,28.8,6.2,27.9,6.2z M25.9,25.9c0,0.1-0.2,0.4-0.7,0.4H20c-1.1,0-2,0.9-2,2V34
	c0,0.4-0.3,0.5-0.4,0.6c-0.1,0-0.4,0.1-0.7-0.1L9.5,27c-0.4-0.4-0.6-0.9-0.6-1.5v-6.7c0-0.4,0.2-0.8,0.5-1.1
	c0.3-0.3,0.7-0.5,1.1-0.5H18l7.8,7.8C26.1,25.5,26,25.8,25.9,25.9z M28.3,15.8c0,0.2-0.2,0.4-0.4,0.4h-9.3c-0.1,0-0.2,0-0.3-0.1
	l-8-8c-0.2-0.2-0.1-0.4-0.1-0.4c0-0.1,0.1-0.2,0.4-0.2c4.5,0,14.3,0,17.3,0c0.2,0,0.4,0.2,0.4,0.4C28.3,7.9,28.3,15.8,28.3,15.8z"/>
<path class="st1" d="M33.4,37.6c-0.5,0-1,0.2-1.3,0.5s-0.4,0.7-0.4,1.2s-0.4,1-0.6,1.1C30.9,40.6,31,41,31.3,41H33
	c0.5,0,1-0.2,1.4-0.5s0.6-0.7,0.6-1.3c0-0.5-0.1-0.9-0.4-1.2C34.4,37.7,33.9,37.6,33.4,37.6z M33.4,38.3c0.4,0,0.6,0.1,0.8,0.3
	s0.2,0.4,0.2,0.7S34.3,39.8,34,40c-0.2,0.2-0.6,0.3-1,0.3h-1c0.2-0.3,0.3-0.6,0.3-1c0-0.3,0.1-0.5,0.3-0.7
	C32.8,38.4,33,38.3,33.4,38.3L33.4,38.3z M41.4,30.8c-0.1,0-0.2,0-0.2,0.1C41,31,40.9,31,40.6,31.2c-0.4,0.2-1,0.6-1.6,0.9
	c-1.2,0.8-2.5,1.7-3.2,2.3c-0.6,0.6-1.1,1.2-1.3,1.8s-0.1,1.2,0.3,1.7c0.5,0.5,1.1,0.5,1.7,0.3c0.6-0.2,1.2-0.7,1.8-1.3
	c0.7-0.7,1.6-2,2.3-3.2c0.4-0.6,0.7-1.2,0.9-1.6c0.1-0.2,0.2-0.4,0.3-0.6c0-0.1,0-0.2,0.1-0.2c0-0.1,0-0.2-0.1-0.4
	C41.6,30.7,41.5,30.8,41.4,30.8L41.4,30.8z M41,31.8c-0.2,0.4-0.5,1-0.9,1.5c-0.7,1.2-1.7,2.5-2.2,3c-0.6,0.6-1.1,1-1.6,1.2
	c-0.4,0.2-0.7,0.1-0.9-0.2C35,37,35,36.8,35.1,36.4c0.2-0.4,0.6-1,1.2-1.6c0.6-0.6,1.9-1.5,3-2.2C39.9,32.2,40.5,31.9,41,31.8
	C41,31.7,41,31.7,41,31.8L41,31.8z M23.2,32.8h11.6c0.2,0,0.3,0.2,0.3,0.3s-0.2,0.3-0.3,0.3H23.2c-0.2,0-0.3-0.2-0.3-0.3
	S23,32.8,23.2,32.8z M26.2,31.8c0,0.2-0.2,0.3-0.3,0.3c-0.2,0-0.3-0.2-0.3-0.3c0-0.2,0.2-0.3,0.3-0.3C26.1,31.4,26.2,31.6,26.2,31.8
	z M24.9,31.8c0,0.2-0.2,0.3-0.3,0.3c-0.2,0-0.3-0.2-0.3-0.3c0-0.2,0.2-0.3,0.3-0.3C24.7,31.4,24.9,31.6,24.9,31.8z M23.5,31.8
	c0,0.2-0.2,0.3-0.3,0.3c-0.2,0-0.3-0.2-0.3-0.3c0-0.2,0.2-0.3,0.3-0.3C23.3,31.4,23.5,31.6,23.5,31.8z M22.5,30.1c-0.6,0-1,0.5-1,1
	V44c0,0.6,0.5,1,1,1h17c0.6,0,1-0.5,1-1v-8.2c0-0.5-0.7-0.5-0.7,0V44c0,0.2-0.1,0.3-0.3,0.3h-17c-0.2,0-0.3-0.1-0.3-0.3V31.1
	c0-0.2,0.1-0.3,0.3-0.3h17c0.5,0,0.4-0.7,0-0.7H22.5z"/>
<path class="st2" d="M28,47.7h-9.8v-4.8c0-0.3-0.1-0.6-0.3-0.8L4.8,28.9V14.1h2.5c0.5,0,0.9-0.2,1.1-0.7c0.3-0.5,0.1-1.1-0.3-1.5
	L4.8,9.4V2.5l28.4-0.1v18.1h-3.4c-0.5,0-0.9,0.3-1.1,0.7c-0.2,0.4-0.1,0.9,0.2,1.2l4.3,5.3c0.2,0.2,0.5,0.4,0.9,0.4
	c6.5,0,7.2,0,7.5-0.1l0,0l0,0c1.7-0.7,3.8-1.1,4.2-0.5c0,0,0.5,0.9-2.2,5.5c-0.2,0.4-0.3,0.4-0.3,0.6v9.2c0,0.3,0.2,0.5,0.5,0.5h0.3
	c0.3,0,0.5-0.2,0.5-0.5v-9c0,0,0-0.1,0.1-0.1c2.2-3.7,2.9-5.9,2.2-6.9c-1.2-1.8-4.8-0.4-5.8,0c-0.7,0-4.5,0.1-7,0.1l-4-4.9h3.2
	c0.7,0,1.2-0.5,1.2-1.2V2.3c0-0.3-0.1-0.6-0.4-0.8c-0.2-0.2-0.5-0.3-0.8-0.3l0,0H4.6c-0.7,0-1.2,0.5-1.2,1.2v7.1
	c0,0.4,0.2,0.7,0.5,0.9l3,2.3H4.6c-0.7,0-1.2,0.5-1.2,1.2V29c0,0.3,0.1,0.6,0.3,0.8l13.1,13.1v4.9c0,0.7,0.5,1.2,1.2,1.2h10
	c0.4,0,0.7-0.3,0.7-0.7l0,0C28.7,48,28.4,47.7,28,47.7z"/>
</svg>
