<?xml version="1.0" encoding="UTF-8"?>
<svg id="Camada_3" xmlns="http://www.w3.org/2000/svg" version="1.1" viewBox="0 0 50 50">
  <!-- Generator: Adobe Illustrator 29.1.0, SVG Export Plug-In . SVG Version: 2.1.0 Build 142)  -->
  <defs>
    <style>
      .st0, .st1, .st2, .st3, .st4 {
        fill: none;
        stroke: #444;
      }

      .st0, .st3 {
        stroke-width: .5px;
      }

      .st0, .st3, .st4 {
        stroke-miterlimit: 10;
      }

      .st1, .st2 {
        stroke-linecap: round;
        stroke-linejoin: round;
      }

      .st2 {
        stroke-width: 2.5px;
      }

      .st5 {
        fill: #04ad49;
      }

      .st3, .st4 {
        fill-rule: evenodd;
      }

      .st6 {
        fill: #22dd6d;
      }
    </style>
  </defs>
  <polygon class="st5" points="28.8 22.9 36.6 25.4 29.9 30.1 30 38.3 23.4 33.4 15.7 36.1 18.3 28.3 13.4 21.7 21.6 21.8 26.3 15.1 28.8 22.9"/>
  <g>
    <path class="st6" d="M45.4,6.4H4.3c-1.4,0-1.4,3.8-1.4,5.2l-.2,12.9-.5,10.2,1.2,11.8,12.4.6,32.1-11.4V8.9h0c0-1.4-1.1-2.6-2.5-2.6Z"/>
    <path class="st2" d="M32.5,47.7H5.5c-1.9,0-3.4-1.6-3.4-3.5V9.3c0-1.9,1.5-3.5,3.4-3.5h39c1.9,0,3.4,1.6,3.4,3.5v28.5"/>
  </g>
  <g>
    <path class="st1" d="M25,9"/>
    <path class="st1" d="M42.8,26.7"/>
    <path class="st1" d="M25,9h-15.3c-1.4,0-2.5,1.1-2.5,2.5v15.2"/>
    <path class="st1" d="M25,44.5h15.3c1.4,0,2.5-1.1,2.5-2.5v-15.3"/>
  </g>
  <g>
    <g>
      <path class="st4" d="M24.2,13.1h1.5c.1,0,.3,0,.4.1s0,0,0,0c0,0,.1.2.1.3v1.1c.2,0,.4.1.5.2.2,0,.3.2.5.3l.8-.8s0,0,0,0c0,0,.2-.1.3-.1s.3,0,.4.1l1.1,1.1s0,0,0,0c0,0,.1.2.1.3s0,.3-.1.4h0s0,0,0,0l-.8.8c0,.2.2.3.3.5,0,.2.1.4.2.5h1.1c.1,0,.3,0,.4.1s.1.2.1.4v1.5c0,.1,0,.3-.1.4,0,0,0,0,0,0,0,0-.2.1-.3.1h-1.1c0,.2-.1.4-.2.5,0,.2-.2.3-.3.5l.8.8c0,0,.1.2.1.4s0,.3-.1.4l-1.1,1.1s0,0,0,0c0,0-.2.1-.3.1s-.3,0-.4-.1l-.8-.8c-.2,0-.3.2-.5.3-.2,0-.4.1-.5.2v1.1c0,.1,0,.3-.1.4,0,0-.2.1-.4.1h-1.5c-.1,0-.3,0-.4-.1,0,0-.1-.2-.1-.4v-1.1c-.2,0-.4-.1-.5-.2-.2,0-.3-.2-.5-.3l-.8.8c0,0-.2.1-.4.1s-.3,0-.4-.1h0s0,0,0,0l-1.1-1.1s0,0,0,0c0,0-.1-.2-.1-.3s0-.3.1-.4l.8-.8c0-.2-.2-.3-.3-.5,0-.2-.1-.4-.2-.5h-1.1c-.1,0-.3,0-.4-.1,0,0-.1-.2-.1-.4v-1.5c0-.1,0-.3.1-.4s0,0,0,0c0,0,.2-.1.3-.1h1.1c0-.2.1-.4.2-.5,0-.2.2-.3.3-.5l-.8-.8s0,0,0,0c0,0-.1-.2-.1-.3s0-.3.1-.4h0s0,0,0,0l1.1-1.1s0,0,0,0c0,0,.2-.1.3-.1s.3,0,.4.1h0s.8.8.8.8c.2,0,.3-.2.5-.3.2,0,.4-.1.5-.2v-1.1c0-.1,0-.3.1-.4,0,0,.2-.1.4-.1h0ZM25,16.8c-.7,0-1.2.3-1.7.7-.4.4-.7,1-.7,1.7s.3,1.2.7,1.7c.4.4,1,.7,1.7.7s1.2-.3,1.7-.7c.4-.4.7-1,.7-1.7s-.3-1.2-.7-1.7c-.4-.4-1-.7-1.7-.7h0ZM33.2,32.2h4.4c.5,0,1,.2,1.3.6.3.3.6.8.6,1.3v4.4c0,.5-.2,1-.6,1.3s-.8.6-1.3.6h-4.4c-.5,0-1-.2-1.3-.6-.3-.3-.6-.8-.6-1.3v-4.4c0-.5.2-1,.6-1.3.3-.3.8-.6,1.3-.6h0ZM22.8,32.2h4.4c.5,0,1,.2,1.3.6.3.3.6.8.6,1.3v4.4c0,.5-.2,1-.6,1.3s-.8.6-1.3.6h-4.4c-.5,0-1-.2-1.3-.6-.3-.3-.6-.8-.6-1.3v-4.4c0-.5.2-1,.6-1.3.3-.3.8-.6,1.3-.6h0ZM12.5,32.2h4.4c.5,0,1,.2,1.3.6.3.3.6.8.6,1.3v4.4c0,.5-.2,1-.6,1.3-.3.3-.8.6-1.3.6h-4.4c-.5,0-1-.2-1.3-.6-.3-.3-.6-.8-.6-1.3v-4.4c0-.5.2-1,.6-1.3.3-.3.8-.6,1.3-.6h0Z"/>
      <polyline class="st3" points="35.3 32.5 35.3 29 14.6 29 14.6 32.5"/>
    </g>
    <line class="st0" x1="25.1" y1="25.6" x2="25.1" y2="32.5"/>
  </g>
</svg>