<svg xmlns="http://www.w3.org/2000/svg" viewBox="0 0 50 50"><path fill="#dc5e82" d="M44.4 12.5l-5.6-3.6-7.7-4.4-6-2.8C22 1.7 3.7 10.6 3.7 13.8l-.5 7.8.5 15.1 11.5 7.6 31-11c.7-.4-.8-18.7-1.8-20.7z"/><path fill="none" stroke="#444" stroke-linecap="round" stroke-linejoin="round" stroke-width="2.5" d="M29.7 46.4l-2.2 1.3c-1.7 1-3.8 1-5.5 0l-15.6-9c-1.7-1-2.7-2.8-2.7-4.7V16c0-2 1-3.8 2.7-4.7l15.7-9c1.7-1 3.8-1 5.5 0l15.6 9c1.7 1 2.7 2.8 2.7 4.7v18c0 2-1 3.8-2.7 4.7l-2.5 1.4"/><path fill="none" stroke="#444" stroke-linecap="round" stroke-linejoin="round" d="M35.8 32.8H24.6V44L13.8 33.8V21.9h10.8v.2l11.2 10.7zm0-10.9V11.2H13.9v.2l10.4 10.5h11.5z"/><path fill="none" stroke="#444" stroke-linecap="round" stroke-linejoin="round" stroke-width=".5" d="M24.4 35.7l-3.6 4.9m-7-16.5c.1 0 16.5 3.6 16.5 3.6l-3.6 5m-7.6-16.1c.2 0 12.8-5.4 12.8-5.4l-.4 10.6 4.2-3.5"/></svg>