<svg xmlns="http://www.w3.org/2000/svg" id="Layer_1" x="0" y="0" version="1.1" viewBox="0 0 50 50" xml:space="preserve"><style>.st0{fill:#e589ef}.st1{fill:#f799ff}</style><path d="M25.6 17h-3.3l-11.9 4.3v10.5h.1l2.8 2.8 21.8-7.9z" class="st0"/><path d="M10.2 1.8l14.2 14.6 16.2-5.9V1.8z" class="st1"/><path d="M25.4 16.8h15.2v-6.5l-15.9 5.8z" class="st0"/><path d="M9.7 21.7l12.2-4.4H9.7z" class="st1"/><path fill="#464646" d="M27.9 18h13.5V.5h-34l14.8 15.2H8.6v14.8h-.1l.1.1V33h.8l16.2 16.5V33h17L27.9 18zm11-15v12.5H25.4L13.3 3h25.6zM23.2 43.3L12.1 32.1h11.1v11.2zm0-12.8l-12.1.1V18.2h13.5l12.1 12.3H23.2z"/></svg>