<?xml version="1.0" encoding="UTF-8"?>
<svg id="Layer_1" xmlns="http://www.w3.org/2000/svg" version="1.1" viewBox="0 0 50 50">
  <!-- Generator: Adobe Illustrator 29.0.0, SVG Export Plug-In . SVG Version: 2.1.0 Build 186)  -->
  <defs>
    <style>
      .st0, .st1, .st2 {
        fill: none;
        stroke: #444;
        stroke-linecap: round;
        stroke-linejoin: round;
      }

      .st3 {
        fill: #dc5e82;
      }

      .st1 {
        stroke-width: 2.5px;
      }

      .st2 {
        stroke-width: .5px;
      }
    </style>
  </defs>
  <path class="st3" d="M44.4,12.5l-5.6-3.6-7.7-4.4-6-2.8C22,1.7,3.7,10.6,3.7,13.8l-.5,7.8.5,15.1,11.5,7.6,31-11c.7-.4-.8-18.7-1.8-20.7Z"/>
  <path class="st1" d="M29.7,46.4l-2.2,1.3c-1.7,1-3.8,1-5.5,0l-15.6-9c-1.7-1-2.7-2.8-2.7-4.7v-18c0-2,1-3.8,2.7-4.7L22.1,2.3c1.7-1,3.8-1,5.5,0l15.6,9c1.7,1,2.7,2.8,2.7,4.7v18c0,2-1,3.8-2.7,4.7l-2.5,1.4"/>
  <g>
    <polygon class="st0" points="35.8 32.8 24.6 32.8 24.6 44 13.8 33.8 13.8 21.9 24.6 21.9 24.6 22.1 35.8 32.8"/>
    <polygon class="st0" points="35.8 21.9 35.8 11.2 13.9 11.2 13.9 11.4 24.3 21.9 35.8 21.9"/>
    <line class="st2" x1="24.4" y1="35.7" x2="20.8" y2="40.6"/>
    <path class="st2" d="M13.8,24.1c.1,0,16.5,3.6,16.5,3.6l-3.6,5"/>
    <path class="st2" d="M19.1,16.6c.2,0,12.8-5.4,12.8-5.4l-.4,10.6,4.2-3.5"/>
  </g>
</svg>
