<svg xmlns="http://www.w3.org/2000/svg" id="Camada_1" x="0" y="0" version="1.1" viewBox="0 0 50 50" xml:space="preserve"><style>.st1{fill:#444}</style><path fill="#46b8b0" d="M4 1.9l.3 7.9 4.1 3.6-3.6.7-.6 15.2L18 42.4l.2 5.3 25.9-9.2-.4-4.5 2.7-5.1L46 27l-1.4-.2-3.1.5-7.5.1-4.5-5.5v-.8l4 .1V1.8z"/><path d="M27.9 6.2H10.6c-.6 0-1.1.4-1.4.9-.2.7-.1 1.3.4 1.7l7.4 7.4h-6.5a2.732 2.732 0 00-2.7 2.7v6.7c0 .9.3 1.7.9 2.3l7.4 7.4c.3.3.8.5 1.2.5.2 0 .4 0 .7-.1.6-.3 1.1-.9 1.1-1.6v-5.7c0-.5.4-.9.9-.9h5.3c.8 0 1.4-.4 1.7-1.1.3-.7.1-1.5-.4-2l-7.1-7.1H28c.8 0 1.5-.7 1.5-1.5v-8c-.1-.9-.7-1.6-1.6-1.6zm-2 19.7c0 .1-.2.4-.7.4H20c-1.1 0-2 .9-2 2V34c0 .4-.3.5-.4.6-.1 0-.4.1-.7-.1L9.5 27c-.4-.4-.6-.9-.6-1.5v-6.7c0-.4.2-.8.5-1.1.3-.3.7-.5 1.1-.5H18l7.8 7.8c.3.5.2.8.1.9zm2.4-10.1c0 .2-.2.4-.4.4h-9.3c-.1 0-.2 0-.3-.1l-8-8c-.2-.2-.1-.4-.1-.4 0-.1.1-.2.4-.2h17.3c.2 0 .4.2.4.4v7.9z" class="st1"/><path d="M33.4 37.6c-.5 0-1 .2-1.3.5s-.4.7-.4 1.2-.4 1-.6 1.1c-.2.2-.1.6.2.6H33c.5 0 1-.2 1.4-.5s.6-.7.6-1.3c0-.5-.1-.9-.4-1.2-.2-.3-.7-.4-1.2-.4zm0 .7c.4 0 .6.1.8.3s.2.4.2.7-.1.5-.4.7c-.2.2-.6.3-1 .3h-1c.2-.3.3-.6.3-1 0-.3.1-.5.3-.7.2-.2.4-.3.8-.3zm8-7.5c-.1 0-.2 0-.2.1-.2.1-.3.1-.6.3-.4.2-1 .6-1.6.9-1.2.8-2.5 1.7-3.2 2.3-.6.6-1.1 1.2-1.3 1.8s-.1 1.2.3 1.7c.5.5 1.1.5 1.7.3.6-.2 1.2-.7 1.8-1.3.7-.7 1.6-2 2.3-3.2.4-.6.7-1.2.9-1.6l.3-.6c0-.1 0-.2.1-.2 0-.1 0-.2-.1-.4-.2-.2-.3-.1-.4-.1zm-.4 1c-.2.4-.5 1-.9 1.5-.7 1.2-1.7 2.5-2.2 3-.6.6-1.1 1-1.6 1.2-.4.2-.7.1-.9-.2-.4-.3-.4-.5-.3-.9.2-.4.6-1 1.2-1.6.6-.6 1.9-1.5 3-2.2.6-.4 1.2-.7 1.7-.8 0-.1 0-.1 0 0zm-17.8 1h11.6c.2 0 .3.2.3.3s-.2.3-.3.3H23.2c-.2 0-.3-.2-.3-.3s.1-.3.3-.3zm3-1c0 .2-.2.3-.3.3-.2 0-.3-.2-.3-.3 0-.2.2-.3.3-.3.2-.1.3.1.3.3zm-1.3 0c0 .2-.2.3-.3.3-.2 0-.3-.2-.3-.3 0-.2.2-.3.3-.3.1-.1.3.1.3.3zm-1.4 0c0 .2-.2.3-.3.3-.2 0-.3-.2-.3-.3 0-.2.2-.3.3-.3.1-.1.3.1.3.3zm-1-1.7c-.6 0-1 .5-1 1V44c0 .6.5 1 1 1h17c.6 0 1-.5 1-1v-8.2c0-.5-.7-.5-.7 0V44c0 .2-.1.3-.3.3h-17c-.2 0-.3-.1-.3-.3V31.1c0-.2.1-.3.3-.3h17c.5 0 .4-.7 0-.7h-17z" class="st1"/><path fill="#444" stroke="#444" stroke-miterlimit="10" d="M28 47.7h-9.8v-4.8c0-.3-.1-.6-.3-.8L4.8 28.9V14.1h2.5c.5 0 .9-.2 1.1-.7.3-.5.1-1.1-.3-1.5L4.8 9.4V2.5l28.4-.1v18.1h-3.4c-.5 0-.9.3-1.1.7-.2.4-.1.9.2 1.2l4.3 5.3c.2.2.5.4.9.4 6.5 0 7.2 0 7.5-.1h0c1.7-.7 3.8-1.1 4.2-.5 0 0 .5.9-2.2 5.5-.2.4-.3.4-.3.6v9.2c0 .3.2.5.5.5h.3c.3 0 .5-.2.5-.5v-9s0-.1.1-.1c2.2-3.7 2.9-5.9 2.2-6.9-1.2-1.8-4.8-.4-5.8 0-.7 0-4.5.1-7 .1l-4-4.9h3.2c.7 0 1.2-.5 1.2-1.2V2.3c0-.3-.1-.6-.4-.8-.2-.2-.5-.3-.8-.3h0H4.6c-.7 0-1.2.5-1.2 1.2v7.1c0 .4.2.7.5.9l3 2.3H4.6c-.7 0-1.2.5-1.2 1.2V29c0 .3.1.6.3.8l13.1 13.1v4.9c0 .7.5 1.2 1.2 1.2h10c.4 0 .7-.3.7-.7h0c0-.3-.3-.6-.7-.6z"/></svg>