<?xml version="1.0" encoding="utf-8"?>
<!-- Generator: Adobe Illustrator 24.0.3, SVG Export Plug-In . SVG Version: 6.00 Build 0)  -->
<svg version="1.1" id="Layer_1" xmlns="http://www.w3.org/2000/svg" xmlns:xlink="http://www.w3.org/1999/xlink" x="0px" y="0px"
	 viewBox="0 0 50 50" style="enable-background:new 0 0 50 50;" xml:space="preserve">
<style type="text/css">
	.st0{fill:#E589EF;}
	.st1{fill:#F799FF;}
	.st2{fill:#464646;}
</style>
<g>
	<g>
		<polygon class="st0" points="25.6,17 22.3,17 10.4,21.3 10.4,31.8 10.5,31.8 13.3,34.6 35.1,26.7 		"/>
	</g>
	<g>
		<polygon class="st1" points="10.2,1.8 24.4,16.4 40.6,10.5 40.6,1.8 		"/>
	</g>
	<g>
		<polygon class="st0" points="25.4,16.8 40.6,16.8 40.6,10.3 24.7,16.1 		"/>
	</g>
	<g>
		<polygon class="st1" points="9.7,21.7 21.9,17.3 9.7,17.3 		"/>
	</g>
	<path class="st2" d="M27.9,18h13.5V0.5h-34l14.8,15.2H8.6v14.8H8.5l0.1,0.1V33h0.8l16.2,16.5V33h17L27.9,18z M38.9,3v12.5H25.4
		L13.3,3H38.9z M23.2,43.3L12.1,32.1h11.1V43.3z M23.2,30.5L23.2,30.5l-12.1,0.1V18.2h13.5l12.1,12.3H23.2z"/>
</g>
</svg>
