<svg xmlns="http://www.w3.org/2000/svg" viewBox="0 0 50 50"><path fill="#04ad49" d="M28.8 22.9l7.8 2.5-6.7 4.7.1 8.2-6.6-4.9-7.7 2.7 2.6-7.8-4.9-6.6 8.2.1 4.7-6.7 2.5 7.8z"/><path fill="#22dd6d" d="M45.4 6.4H4.3c-1.4 0-1.4 3.8-1.4 5.2l-.2 12.9-.5 10.2 1.2 11.8 12.4.6 32.1-11.4V8.9c0-1.4-1.1-2.6-2.5-2.6z"/><path fill="none" stroke="#444" stroke-linecap="round" stroke-linejoin="round" stroke-width="2.5" d="M32.5 47.7h-27c-1.9 0-3.4-1.6-3.4-3.5V9.3c0-1.9 1.5-3.5 3.4-3.5h39c1.9 0 3.4 1.6 3.4 3.5v28.5"/><path fill="none" stroke="#444" stroke-linecap="round" stroke-linejoin="round" d="M25 9H9.7c-1.4 0-2.5 1.1-2.5 2.5v15.2M25 44.5h15.3c1.4 0 2.5-1.1 2.5-2.5V26.7"/><g fill="none" stroke="#444" stroke-miterlimit="10"><g fill-rule="evenodd"><path d="M24.2 13.1h1.5c.1 0 .3 0 .4.1s0 0 0 0 .1.2.1.3v1.1c.2 0 .4.1.5.2.2 0 .3.2.5.3l.8-.8s0 0 0 0 .2-.1.3-.1.3 0 .4.1l1.1 1.1s0 0 0 0 .1.2.1.3 0 .3-.1.4h0s0 0 0 0l-.8.8c0 .2.2.3.3.5 0 .2.1.4.2.5h1.1c.1 0 .3 0 .4.1s.1.2.1.4v1.5c0 .1 0 .3-.1.4 0 0 0 0 0 0s-.2.1-.3.1h-1.1c0 .2-.1.4-.2.5 0 .2-.2.3-.3.5l.8.8s.1.2.1.4 0 .3-.1.4l-1.1 1.1s0 0 0 0-.2.1-.3.1-.3 0-.4-.1l-.8-.8c-.2 0-.3.2-.5.3-.2 0-.4.1-.5.2v1.1c0 .1 0 .3-.1.4 0 0-.2.1-.4.1h-1.5c-.1 0-.3 0-.4-.1 0 0-.1-.2-.1-.4v-1.1c-.2 0-.4-.1-.5-.2-.2 0-.3-.2-.5-.3l-.8.8s-.2.1-.4.1-.3 0-.4-.1h0s0 0 0 0L20.1 23s0 0 0 0-.1-.2-.1-.3 0-.3.1-.4l.8-.8c0-.2-.2-.3-.3-.5 0-.2-.1-.4-.2-.5h-1.1c-.1 0-.3 0-.4-.1 0 0-.1-.2-.1-.4v-1.5c0-.1 0-.3.1-.4s0 0 0 0 .2-.1.3-.1h1.1c0-.2.1-.4.2-.5 0-.2.2-.3.3-.5l-.8-.8s0 0 0 0-.1-.2-.1-.3 0-.3.1-.4h0s0 0 0 0l1.1-1.1s0 0 0 0 .2-.1.3-.1.3 0 .4.1h0l.8.8c.2 0 .3-.2.5-.3.2 0 .4-.1.5-.2v-1.1c0-.1 0-.3.1-.4 0 0 .2-.1.4-.1h0zm.8 3.7c-.7 0-1.2.3-1.7.7-.4.4-.7 1-.7 1.7s.3 1.2.7 1.7c.4.4 1 .7 1.7.7s1.2-.3 1.7-.7c.4-.4.7-1 .7-1.7s-.3-1.2-.7-1.7c-.4-.4-1-.7-1.7-.7h0zm8.2 15.4h4.4c.5 0 1 .2 1.3.6.3.3.6.8.6 1.3v4.4c0 .5-.2 1-.6 1.3s-.8.6-1.3.6h-4.4c-.5 0-1-.2-1.3-.6-.3-.3-.6-.8-.6-1.3v-4.4c0-.5.2-1 .6-1.3.3-.3.8-.6 1.3-.6h0zm-10.4 0h4.4c.5 0 1 .2 1.3.6.3.3.6.8.6 1.3v4.4c0 .5-.2 1-.6 1.3s-.8.6-1.3.6h-4.4c-.5 0-1-.2-1.3-.6-.3-.3-.6-.8-.6-1.3v-4.4c0-.5.2-1 .6-1.3.3-.3.8-.6 1.3-.6h0zm-10.3 0h4.4c.5 0 1 .2 1.3.6.3.3.6.8.6 1.3v4.4c0 .5-.2 1-.6 1.3-.3.3-.8.6-1.3.6h-4.4c-.5 0-1-.2-1.3-.6-.3-.3-.6-.8-.6-1.3v-4.4c0-.5.2-1 .6-1.3.3-.3.8-.6 1.3-.6h0z"/><path stroke-width=".5" d="M35.3 32.5V29H14.6v3.5"/></g><path stroke-width=".5" d="M25.1 25.6v6.9"/></g></svg>