<?xml version="1.0" encoding="utf-8"?>
<!-- Generator: Adobe Illustrator 27.7.0, SVG Export Plug-In . SVG Version: 6.00 Build 0)  -->
<svg version="1.1" id="Layer_1" xmlns="http://www.w3.org/2000/svg" xmlns:xlink="http://www.w3.org/1999/xlink" x="0px" y="0px"
	 viewBox="0 0 50 50" style="enable-background:new 0 0 50 50;" xml:space="preserve">
<style type="text/css">
	.st0{fill:#E589EF;}
	.st1{fill:none;stroke:#444444;stroke-width:2.5;stroke-linecap:round;stroke-linejoin:round;stroke-miterlimit:10;}
	.st2{fill:none;stroke:#444444;stroke-linecap:round;stroke-linejoin:round;stroke-miterlimit:10;}
	.st3{fill:none;stroke:#444444;stroke-width:0.5;stroke-linecap:round;stroke-linejoin:round;stroke-miterlimit:10;}
</style>
<path class="st0" d="M45.6,2.7H4.5C3.1,2.7,3.1,6.6,3.1,8L2.9,24.9L2.4,35.1l1.2,11.8L16,47.4L48.1,36V5.5V5.3v0
	C48.1,3.8,47,2.7,45.6,2.7z"/>
<path class="st1" d="M32.8,48.1h-27c-1.9,0-3.4-1.6-3.4-3.5V5.6c0-1.9,1.5-3.5,3.4-3.5h39c1.9,0,3.4,1.6,3.4,3.5v32.5"/>
<g>
	<path class="st2" d="M11.2,21.3l4.9-3.6l0-6.5c0-0.6,0.4-1,1-1l2.7-0.1c0.6,0,1.1,0.5,1,1l0,3.1l5.4-4c0.7-0.5,1.7-0.5,2.4,0
		l15.2,12.2"/>
	<line class="st2" x1="41.3" y1="31.5" x2="41.3" y2="20.8"/>
	<circle class="st2" cx="33" cy="28.1" r="3.6"/>
	<path class="st2" d="M39.8,40.6c0,0,0-8.9-6.8-8.9c0,0-3.3-0.6-6.3,3.9h-4c-1.2,0-2.2,1-2.2,2.2v0c0,1.2,1,2.2,2.2,2.2h4.6
		c0.8,0,1.5-0.3,2.1-0.9h0c0.5-0.5,1.4-0.1,1.4,0.6v1.2"/>
	<path class="st3" d="M25.9,33.1l-1.8-7.5c-0.1-0.6-0.6-1-1.2-1H8.3c-0.8,0-1.4,0.8-1.2,1.5L9.9,38c0.1,0.6,0.6,1,1.2,1h7.5"/>
	<circle class="st3" cx="17.3" cy="30.5" r="2.6"/>
	<path class="st3" d="M12.7,36.6c0,0,2-5.6,8.2-2.5"/>
</g>
</svg>
