<svg xmlns="http://www.w3.org/2000/svg" id="Layer_1" x="0" y="0" version="1.1" viewBox="0 0 50 50" xml:space="preserve"><style>.st2{fill:#444}</style><path fill="#00c8e2" d="M47.5 11.6l.7 5.2L2.5 33.4 2 22.6v-6.2L41.9 1.9 47 4.2z"/><path fill="#00dffc" d="M45.9 2l2.2 3.2L1.7 21.8l1.1-17 2.9-2.9 28.8-.1z"/><path d="M18.1 49.2H5.6C3 49.2 1 47.1 1 44.4V5.8c0-2.6 2-4.7 4.6-4.7h38.7c2.5 0 4.6 2.1 4.6 4.8v24.4c0 .7-.6 1.2-1.2 1.2s-1.2-.6-1.2-1.2V5.8c0-1.2-.9-2.3-2.1-2.3H5.6c-1.2 0-2.1 1-2.1 2.3v38.6c0 1.2.9 2.3 2.1 2.3h12.6c.7 0 1.2.6 1.2 1.2s-.6 1.3-1.3 1.3z" class="st2"/><path d="M37.5 31.7H12.4c-.4 0-.8-.3-.8-.8V15c0-.4.3-.8.8-.8h25.1c.4 0 .8.3.8.8v15.9c0 .4-.4.8-.8.8zm-24.4-1.5h23.6V15.8H13.1v14.4zm3.4 9.9c-1.3 0-2.4-1.1-2.4-2.4s1.1-2.4 2.4-2.4 2.4 1.1 2.4 2.4-1 2.4-2.4 2.4zm0-3.4c-.5 0-.9.4-.9.9s.4.9.9.9.9-.4.9-.9-.3-.9-.9-.9zm8.4 4.2c-1.8 0-3.3-1.5-3.3-3.3s1.5-3.3 3.3-3.3 3.3 1.5 3.3 3.3-1.5 3.3-3.3 3.3zm0-5c-1 0-1.8.8-1.8 1.8s.8 1.8 1.8 1.8 1.8-.8 1.8-1.8-.8-1.8-1.8-1.8zm8.4 4.2c-1.3 0-2.4-1.1-2.4-2.4s1.1-2.4 2.4-2.4 2.4 1.1 2.4 2.4-1 2.4-2.4 2.4zm0-3.4c-.5 0-.9.4-.9.9s.4.9.9.9.9-.4.9-.9-.4-.9-.9-.9z" class="st2"/><circle cx="8.3" cy="8.2" r="1.4" class="st2"/><circle cx="12.1" cy="8.2" r="1.4" class="st2"/><circle cx="15.9" cy="8.2" r="1.4" class="st2"/></svg>