<?xml version="1.0" encoding="utf-8"?>
<!-- Generator: Adobe Illustrator 24.0.0, SVG Export Plug-In . SVG Version: 6.00 Build 0)  -->
<svg version="1.1" id="Layer_1" xmlns="http://www.w3.org/2000/svg" xmlns:xlink="http://www.w3.org/1999/xlink" x="0px" y="0px"
	 viewBox="0 0 50 50" style="enable-background:new 0 0 50 50;" xml:space="preserve">
<style type="text/css">
	.st0{fill:#00C8E2;}
	.st1{fill:#00DFFC;}
	.st2{fill:#444444;}
	.st3{fill:none;stroke:#444444;stroke-width:2.5;stroke-linecap:round;stroke-linejoin:round;stroke-miterlimit:10;}
</style>
<g>
	<polygon class="st0" points="47.5,11.6 48.2,16.8 2.5,33.4 2,22.6 2,16.4 41.9,1.9 47,4.2 	"/>
</g>
<g>
	<polygon class="st1" points="45.9,2 48.1,5.2 1.7,21.8 2.8,4.8 5.7,1.9 34.5,1.8 	"/>
</g>
<g>
	<g>
		<path class="st2" d="M18.1,49.2H5.6C3,49.2,1,47.1,1,44.4V5.8C1,3.2,3,1.1,5.6,1.1h38.7c2.5,0,4.6,2.1,4.6,4.8v24.4
			c0,0.7-0.6,1.2-1.2,1.2s-1.2-0.6-1.2-1.2V5.8c0-1.2-0.9-2.3-2.1-2.3H5.6c-1.2,0-2.1,1-2.1,2.3v38.6c0,1.2,0.9,2.3,2.1,2.3h12.6
			c0.7,0,1.2,0.6,1.2,1.2S18.8,49.2,18.1,49.2z"/>
	</g>
	<g>
		<path class="st3" d="M2.2,15.8"/>
	</g>
	<g>
		<path class="st3" d="M47.6,15.8"/>
	</g>
</g>
<g>
	<g>
		<path class="st2" d="M37.5,31.7H12.4c-0.4,0-0.8-0.3-0.8-0.8V15c0-0.4,0.3-0.8,0.8-0.8h25.1c0.4,0,0.8,0.3,0.8,0.8v15.9
			C38.3,31.3,37.9,31.7,37.5,31.7z M13.1,30.2h23.6V15.8H13.1V30.2z"/>
	</g>
	<g>
		<path class="st2" d="M16.5,40.1c-1.3,0-2.4-1.1-2.4-2.4s1.1-2.4,2.4-2.4s2.4,1.1,2.4,2.4S17.9,40.1,16.5,40.1z M16.5,36.7
			c-0.5,0-0.9,0.4-0.9,0.9s0.4,0.9,0.9,0.9c0.5,0,0.9-0.4,0.9-0.9S17.1,36.7,16.5,36.7z"/>
	</g>
	<g>
		<path class="st2" d="M24.9,40.9c-1.8,0-3.3-1.5-3.3-3.3s1.5-3.3,3.3-3.3s3.3,1.5,3.3,3.3S26.7,40.9,24.9,40.9z M24.9,35.9
			c-1,0-1.8,0.8-1.8,1.8s0.8,1.8,1.8,1.8c1,0,1.8-0.8,1.8-1.8S25.9,35.9,24.9,35.9z"/>
	</g>
	<g>
		<path class="st2" d="M33.3,40.1c-1.3,0-2.4-1.1-2.4-2.4s1.1-2.4,2.4-2.4s2.4,1.1,2.4,2.4S34.7,40.1,33.3,40.1z M33.3,36.7
			c-0.5,0-0.9,0.4-0.9,0.9s0.4,0.9,0.9,0.9s0.9-0.4,0.9-0.9S33.8,36.7,33.3,36.7z"/>
	</g>
</g>
<g>
	<circle class="st2" cx="8.3" cy="8.2" r="1.4"/>
</g>
<g>
	<circle class="st2" cx="12.1" cy="8.2" r="1.4"/>
</g>
<g>
	<circle class="st2" cx="15.9" cy="8.2" r="1.4"/>
</g>
</svg>
