<?xml version="1.0" encoding="UTF-8"?>
<svg id="Camada_1" xmlns="http://www.w3.org/2000/svg" version="1.1" xmlns:xlink="http://www.w3.org/1999/xlink" viewBox="0 0 300 300">
  <!-- Generator: Adobe Illustrator 29.8.2, SVG Export Plug-In . SVG Version: 2.1.1 Build 3)  -->
  <defs>
    <style>
      .st0 {
        fill: #00bf5f;
      }

      .st1 {
        fill: #fff;
      }

      .st2, .st3, .st4 {
        fill: none;
      }

      .st5 {
        fill: url(#Gradiente_sem_nome);
      }

      .st6 {
        fill: #ef3030;
      }

      .st7 {
        fill: #50deff;
      }

      .st8 {
        isolation: isolate;
        opacity: .3;
      }

      .st9 {
        fill: #f4f4f4;
      }

      .st3 {
        stroke: url(#linear-gradient);
        stroke-width: 2px;
      }

      .st3, .st4 {
        stroke-miterlimit: 10;
      }

      .st10 {
        fill: #9761ff;
      }

      .st4 {
        stroke: #50deff;
        stroke-linecap: round;
        stroke-width: 3px;
      }

      .st11 {
        fill: #2a2828;
      }

      .st12 {
        fill: #ed9751;
      }
    </style>
    <linearGradient id="linear-gradient" x1="41.75" y1="118.98" x2="275.6" y2="118.98" gradientUnits="userSpaceOnUse">
      <stop offset="0" stop-color="#ca3328"/>
      <stop offset="1" stop-color="#9761ff"/>
    </linearGradient>
    <linearGradient id="Gradiente_sem_nome" data-name="Gradiente sem nome" x1="159.46" y1="107.18" x2="293.97" y2="107.18" gradientTransform="translate(0 300) scale(1 -1)" gradientUnits="userSpaceOnUse">
      <stop offset="0" stop-color="#3d6ce2"/>
      <stop offset="1" stop-color="#50deff"/>
    </linearGradient>
  </defs>
  <g>
    <path class="st11" d="M.1,54.55h212.32c13.73,0,24.88,11.15,24.88,24.88v164.09H21.38C9.64,243.52.11,233.99.11,222.25V54.55h0Z"/>
    <g>
      <g>
        <path class="st10" d="M277.02,229.59l-234.48,33.93c-8.54,1.24-16.19-5.39-16.19-14.01V117.16c0-7.04,5.17-13.01,12.13-14.01l234.48-33.93c8.54-1.24,16.19,5.39,16.19,14.01v132.34c0,7.04-5.17,13.01-12.13,14.01Z"/>
        <path class="st9" d="M265.42,217.59l-210.13,30.97c-7.06,1.02-13.39-4.46-13.39-11.59v-109.45c0-5.82,4.27-10.76,10.03-11.59l210.13-30.97c7.06-1.02,13.39,4.46,13.39,11.59v109.45c0,5.82-4.27,10.76-10.03,11.59Z"/>
        <line class="st3" x1="41.9" y1="136.8" x2="275.45" y2="101.16"/>
        <g>
          <circle class="st6" cx="87.52" cy="120.61" r="5.18" transform="translate(-17.28 14.67) rotate(-8.72)"/>
          <circle class="st12" cx="70.75" cy="123.19" r="5.18" transform="translate(-17.87 12.16) rotate(-8.72)"/>
          <circle class="st0" cx="53.99" cy="125.76" r="5.18" transform="translate(-18.45 9.64) rotate(-8.72)"/>
        </g>
        <line class="st4" x1="126.86" y1="139.46" x2="182.48" y2="130.94"/>
        <line class="st4" x1="126.86" y1="164.09" x2="169.61" y2="158.25"/>
        <line class="st4" x1="126.86" y1="151.16" x2="181.24" y2="143.77"/>
        <line class="st4" x1="126.86" y1="176.88" x2="159.78" y2="171.84"/>
      </g>
      <g>
        <g>
          <path class="st1" d="M58.46,149.59l52.66-9.23c.11,0,.21.09.21.21v81.54c0,.11-.09.21-.21.21l-52.66,9.23c-.11,0-.21-.09-.21-.21v-81.54c0-.11.09-.21.21-.21Z"/>
          <path class="st7" d="M110.93,223.49l-52.29,9.23c-.87,0-1.57-.7-1.57-1.57v-81.17c0-.87.7-1.57,1.57-1.57l52.29-9.23c.87,0,1.57.7,1.57,1.57v81.17c0,.87-.7,1.57-1.57,1.57ZM59.43,230.35l50.71-9.23v-79.58l-50.71,9.23v79.58h0Z"/>
        </g>
        <g>
          <line class="st2" x1="59.56" y1="151.15" x2="110.8" y2="221.26"/>
          <path class="st7" d="M110.8,222.45c-.39,0-.76-.19-1-.54l-51.26-70.11c-.35-.54-.19-1.28.35-1.63.54-.35,1.28-.19,1.63.35l51.26,70.11c.35.54.19,1.28-.35,1.63-.19.13-.41.19-.65.19h.01Z"/>
        </g>
        <g>
          <line class="st2" x1="109.77" y1="141.65" x2="58.64" y2="231.54"/>
          <path class="st7" d="M58.64,232.72c-.22,0-.44-.06-.63-.18-.56-.35-.71-1.08-.36-1.63l51.13-89.88c.35-.56,1.09-.71,1.63-.36.56.35.71,1.08.36,1.63l-51.13,89.88c-.22.35-.61.54-1,.54Z"/>
        </g>
      </g>
    </g>
    <g>
      <path class="st5" d="M293.84,181.15l-5.49-17.35c-.45-1.42-1.96-2.21-3.39-1.76l-11.2,3.54c-1.15.36-2.41-.06-3.06-1.07-2.42-3.77-5.29-7.16-8.51-10.14-.89-.81-1.09-2.14-.54-3.2l5.41-10.42c.69-1.32.17-2.95-1.15-3.64l-16.15-8.39c-1.32-.69-2.95-.17-3.64,1.15l-5.42,10.42c-.55,1.06-1.75,1.65-2.92,1.4-4.29-.94-8.71-1.32-13.19-1.15-1.2.05-2.27-.74-2.64-1.89l-3.54-11.2c-.45-1.42-1.96-2.21-3.39-1.76l-17.35,5.49c-1.42.45-2.21,1.96-1.76,3.39l3.54,11.2c.36,1.15-.06,2.41-1.07,3.06-3.77,2.42-7.16,5.29-10.14,8.51-.81.89-2.14,1.09-3.2.54l-10.42-5.41c-1.32-.69-2.95-.17-3.64,1.15l-8.39,16.15c-.69,1.32-.17,2.95,1.15,3.64l10.42,5.42c1.06.55,1.65,1.75,1.4,2.92-.94,4.29-1.32,8.71-1.15,13.19.05,1.2-.74,2.27-1.89,2.64l-11.2,3.54c-1.42.45-2.21,1.96-1.76,3.39l5.49,17.35c.45,1.42,1.96,2.21,3.39,1.76l11.2-3.54c1.15-.36,2.41.06,3.06,1.07,2.42,3.77,5.29,7.16,8.51,10.14.89.81,1.09,2.14.54,3.2l-5.41,10.42c-.69,1.32-.17,2.95,1.15,3.64l16.15,8.39c1.32.69,2.95.17,3.64-1.15l5.42-10.42c.55-1.06,1.75-1.65,2.92-1.4,4.29.94,8.71,1.32,13.19,1.15,1.2-.05,2.27.74,2.64,1.89l3.54,11.2c.45,1.42,1.96,2.21,3.39,1.76l17.35-5.49c1.42-.45,2.21-1.96,1.76-3.39l-3.54-11.2c-.36-1.15.06-2.41,1.07-3.06,3.77-2.42,7.16-5.29,10.14-8.51.81-.89,2.14-1.09,3.2-.54l10.42,5.41c1.32.69,2.95.17,3.64-1.15l8.39-16.15c.69-1.32.17-2.95-1.15-3.64l-10.42-5.42c-1.06-.55-1.65-1.75-1.4-2.92.94-4.29,1.32-8.71,1.15-13.19-.05-1.2.74-2.27,1.89-2.64l11.2-3.54c1.42-.45,2.21-1.96,1.76-3.39h0ZM235.48,222.49c-18.46,5.29-37.16-7.1-39.48-26.16-1.84-15,7.7-29.38,22.22-33.55,18.46-5.29,37.16,7.1,39.48,26.16,1.84,15-7.7,29.38-22.22,33.55Z"/>
      <g>
        <path class="st12" d="M210.17,197.5l-.19-.13c-1.18-.64-1.98-1.95-1.98-3.32,0-1.28.7-2.52,1.98-3.26l22.44-11.72c.61-.32,1.18-.45,1.79-.45,2.11,0,3.74,1.79,3.74,3.83,0,1.25-.64,2.49-1.88,3.19l-16.35,8.56,16.22,8.81c1.25.61,1.98,1.88,1.98,3.26,0,2.04-1.63,3.77-3.67,3.77-.61,0-1.21-.13-1.76-.45l-22.31-12.07v-.03Z"/>
        <path class="st12" d="M241.58,217.55c0-.45.1-.93.22-1.37l15.93-49.55c.64-1.98,2.49-3.22,4.47-3.22,2.78,0,4.6,2.39,4.6,5.11,0,.51-.1,1.02-.22,1.47l-15.93,49.04c-.7,1.98-2.49,3.22-4.47,3.22-.45,0-.86-.03-1.34-.19-1.95-.7-3.26-2.52-3.26-4.5h0Z"/>
        <path class="st12" d="M271.27,185.59c-1.25-.7-1.88-1.95-1.88-3.19,0-2.04,1.6-3.83,3.74-3.83.61,0,1.18.13,1.79.45l22.44,11.72c1.28.73,1.98,2.04,1.98,3.32s-.77,2.62-1.98,3.26l-.22.13-22.25,12.07c-.54.32-1.15.45-1.76.45-2.08,0-3.67-1.76-3.67-3.77,0-1.37.73-2.68,1.98-3.26l16.19-8.81-16.31-8.56-.03.03Z"/>
      </g>
    </g>
  </g>
  <g class="st8">
    <path class="st1" d="M225.44,151.85c-14.38,4.39-23.58,10.09-31.43,23.13,0,0-1.43,2.36-1.43,2.36l-.14.24c-1.01,1.74-3.78.97-3.78-1.01.03-13.46,10.72-25.88,23.76-28.69,4.32-.96,8.74-1.03,12.89-.03,1.11.27,1.8,1.39,1.53,2.5-.18.74-.72,1.28-1.4,1.49h0Z"/>
  </g>
</svg>