<svg version="1" xmlns="http://www.w3.org/2000/svg" viewBox="0 0 50 50"><path fill="#46B8B0" d="M19.296 43.773l18.794-6.84c2.722-3.347 4.785-7.381 4.785-11.933V7.125L25 2.656 7.125 7.125V25c0 8.353 6.94 14.971 12.171 18.773z"/><path fill="#4ECDC4" d="M35.541 5.291L25 2.656 7.125 7.125v8.509z"/><g fill="#444"><path d="M25 1.368L5.875 6.148V25c0 14.018 17.808 23.083 18.566 23.462a1.25 1.25 0 0 0 1.118-2.236C25.387 46.14 8.375 37.489 8.375 25V8.101L25 3.945l16.625 4.156V25c0 3.723-1.515 7.473-4.503 11.146a1.25 1.25 0 0 0 1.94 1.578c3.359-4.13 5.063-8.411 5.063-12.724V6.148L25 1.368z"/><path d="M38.46 10.572L25 7.207l-13.46 3.365V25c0 8.432 10.203 15.308 13.33 17.215l.13.079.13-.079C28.257 40.309 38.46 33.433 38.46 25V10.572zM25.004 41.705V24.993H12.039V10.962L25 7.722l.005.001v17.27H37.96V25c0 6.448-6.667 12.839-12.956 16.705z"/></g></svg>