<?xml version="1.0" encoding="utf-8"?>
<!-- Generator: Adobe Illustrator 21.0.0, SVG Export Plug-In . SVG Version: 6.00 Build 0)  -->
<svg version="1.0" id="Layer_1" xmlns="http://www.w3.org/2000/svg" xmlns:xlink="http://www.w3.org/1999/xlink" x="0px" y="0px"
	 viewBox="0 0 50 50" enable-background="new 0 0 50 50" xml:space="preserve">
<g>
	<path fill="#DC5E82" d="M44.082,15.351V34.65c0,0.043,0,0.078-0.007,0.121l-24.73,8.999L7.104,36.705
		c-0.732-0.427-1.187-1.208-1.187-2.054V15.351c0-0.846,0.455-1.628,1.187-2.054l16.712-9.646c0.732-0.427,1.635-0.427,2.367,0
		l16.712,9.646C43.634,13.723,44.082,14.505,44.082,15.351z"/>
	<path fill="#F56991" d="M39.39,11.278L5.917,23.462v-8.111c0-0.846,0.455-1.628,1.187-2.054l16.712-9.646
		c0.732-0.427,1.635-0.427,2.367,0L39.39,11.278z"/>
	<g>
		<path fill="#444444" d="M37.21,33.848h-4.992v-0.775c0-0.069-0.056-0.125-0.125-0.125s-0.125,0.056-0.125,0.125v0.775h-0.887
			h-6.004v-3.571c2.703-1.33,5.076-2.945,7.009-4.79c0.003,0,0.005,0.001,0.007,0.001c1.021,0,1.851-0.831,1.851-1.851
			c0-0.05-0.011-0.097-0.015-0.146c0.938-1.154,1.726-2.373,2.331-3.65c0.295-0.624,0.029-1.369-0.595-1.665
			c-0.623-0.295-1.369-0.03-1.665,0.594c-0.498,1.05-1.138,2.058-1.9,3.017c-0.003,0-0.005-0.001-0.008-0.001
			c-1.021,0-1.852,0.831-1.852,1.851c0,0.052,0.011,0.101,0.015,0.152c-1.46,1.378-3.209,2.613-5.18,3.684V25v-1.239H25.9
			c0.069,0,0.125-0.056,0.125-0.125s-0.057-0.125-0.125-0.125h-0.823v-4.64v-6.127c0-0.002,0.002-0.003,0.002-0.005v-2.381
			c0-0.069-0.056-0.125-0.125-0.125s-0.125,0.056-0.125,0.125v2.379c0,0.002-0.002,0.003-0.002,0.005v6.129V25v2.609
			c-2.727,1.448-5.875,2.577-9.322,3.293c-0.676,0.14-1.11,0.802-0.97,1.478c0.123,0.591,0.643,0.996,1.223,0.996
			c0.084,0,0.17-0.009,0.255-0.026c3.197-0.663,6.16-1.671,8.814-2.95v3.448h-6.004h-6.129c-0.069,0-0.125,0.056-0.125,0.125
			s0.056,0.125,0.125,0.125h6.129h6.004v3.16c0,0.002,0.002,0.003,0.002,0.005v2.382c0,0.069,0.056,0.125,0.125,0.125
			s0.125-0.056,0.125-0.125v-2.389c0-0.002-0.002-0.003-0.002-0.005v-3.154h6.004h6.129c0.069,0,0.125-0.056,0.125-0.125
			S37.279,33.848,37.21,33.848z"/>
		<path fill="#444444" d="M43.522,12.215L26.812,2.567c-1.117-0.646-2.506-0.645-3.623,0l-16.71,9.648
			c-1.117,0.645-1.812,1.847-1.812,3.137v19.296c0,1.29,0.694,2.492,1.812,3.138l16.71,9.647c0.559,0.322,1.185,0.483,1.812,0.483
			s1.253-0.161,1.812-0.484l5.906-3.409c0.598-0.346,0.803-1.11,0.457-1.708c-0.345-0.599-1.108-0.803-1.707-0.458l-5.906,3.41
			c-0.347,0.201-0.776,0.201-1.123,0L7.728,35.62c-0.346-0.199-0.562-0.572-0.562-0.972V15.352c0-0.4,0.215-0.772,0.562-0.972
			l16.71-9.648c0.347-0.2,0.776-0.2,1.123,0l16.711,9.648c0.346,0.2,0.561,0.572,0.561,0.972v19.296c0,0.69,0.56,1.25,1.25,1.25
			s1.25-0.56,1.25-1.25V15.352C45.333,14.063,44.64,12.861,43.522,12.215z"/>
		<path fill="#444444" d="M40.412,15.442L25.577,6.876c-0.354-0.204-0.795-0.204-1.149,0L9.592,15.442
			c-0.354,0.205-0.575,0.585-0.575,0.995v17.131c0,0.409,0.22,0.791,0.575,0.995l14.835,8.564c0.177,0.103,0.376,0.154,0.575,0.154
			s0.397-0.052,0.575-0.154l14.835-8.564c0.354-0.204,0.574-0.586,0.574-0.995V16.437C40.986,16.028,40.767,15.646,40.412,15.442z
			 M40.736,33.568c0,0.32-0.172,0.618-0.449,0.778l-14.835,8.564c-0.277,0.16-0.622,0.16-0.899,0L9.717,34.346
			c-0.277-0.16-0.45-0.458-0.45-0.778V16.437c0-0.32,0.172-0.619,0.45-0.778l14.835-8.565c0.139-0.08,0.294-0.121,0.45-0.121
			s0.311,0.041,0.45,0.121l14.835,8.565c0.277,0.16,0.449,0.458,0.449,0.778V33.568z"/>
		<path fill="#444444" d="M32.218,26.315c0-0.069-0.056-0.125-0.125-0.125s-0.125,0.056-0.125,0.125v1.601
			c0,0.069,0.056,0.125,0.125,0.125s0.125-0.056,0.125-0.125V26.315z"/>
		<path fill="#444444" d="M32.093,29.569c-0.069,0-0.125,0.056-0.125,0.125v1.601c0,0.069,0.056,0.125,0.125,0.125
			s0.125-0.056,0.125-0.125v-1.601C32.218,29.624,32.162,29.569,32.093,29.569z"/>
		<path fill="#444444" d="M27.725,23.761h1.643c0.069,0,0.125-0.056,0.125-0.125s-0.056-0.125-0.125-0.125h-1.643
			c-0.069,0-0.125,0.056-0.125,0.125S27.655,23.761,27.725,23.761z"/>
	</g>
</g>
</svg>
