<svg xmlns="http://www.w3.org/2000/svg" id="Camada_1" x="0" y="0" version="1.1" viewBox="0 0 300 300" xml:space="preserve"><style>.st6{fill:#f14e70}.st25{fill:#fff}.st59{fill:#ba784a}.st60{opacity:.2}</style><path id="Camada_10_00000136395161408153327890000006086950949053069498_" fill="#008dd3" d="M272.7 147.4c.1 19.8-4.1 38.6-11.6 55.7-21.1 47.6-68.6 80.8-124 81-14.7.1-28.9-2.3-42.2-6.5-25-8-46.8-23-63.1-42.8-17-20.4-28.1-46-30.8-74-.4-4-.6-8.2-.6-12.3-.2-46.2 22.7-87.2 57.9-111.9 4.6-3.3 9.4-6.2 14.4-8.8 7-3.8 14.4-6.8 22-9.4 7.2-2.3 14.7-4 22.4-5.2 6.2-.8 12.5-1.3 18.9-1.4 25-.1 48.5 6.6 68.8 18.3 3.7 2.1 7.1 4.3 10.5 6.8 16.2 11.5 29.8 26.5 39.7 43.9 1.1 2 2.2 3.9 3.2 6 .8 1.8 1.7 3.5 2.5 5.3 2.6 5.8 4.8 11.7 6.6 17.8 2 6.8 3.5 13.9 4.3 21 .7 5.4 1.1 10.9 1.1 16.5z"/><path fill="#ffd200" d="M282.6 101.8c-1.3-3.9.7-8.1 4.5-9.4l-3.2-9.2c-3.9 1.3-8.1-.7-9.4-4.5-1.3-3.9.7-8.1 4.5-9.4l-3.5-9.9c-3.9 1.3-8.1-.7-9.4-4.5-1.3-3.9.7-8.1 4.5-9.4l-4-11.3c-12.5 4.4-26.1-2.2-30.5-14.7l-180 62.7c4.4 12.5-2.2 26.1-14.7 30.5l4 11.3c3.9-1.3 8.1.7 9.4 4.5 1.3 3.9-.7 8.1-4.5 9.4l3.5 9.9c3.9-1.3 8.1.7 9.4 4.5 1.3 3.9-.7 8.1-4.5 9.4l3.2 9.2c3.9-1.3 8.1.7 9.4 4.5 1.3 3.9-.7 8.1-4.5 9.4l3.9 11.1c12.3-4.3 25.8 2.1 30.3 14.2l180-62.6c-4-12.3 2.5-25.7 14.9-30l-3.9-11.1c-3.9 1.3-8.1-.7-9.4-4.6z"/><path d="M227.3 43L77.8 95.2c-6.4 2.2-9.7 9.6-7.3 16.4l23.4 66.9c2.4 6.8 9.5 10.5 15.9 8.3l149.5-52.2c6.4-2.2 9.7-9.6 7.3-16.4l-23.4-66.9c-2.4-6.8-9.5-10.6-15.9-8.3zm-9.2 6.4l30 85.8-129 45-30-85.8 129-45zm-121.4 128l-23.4-66.9c-1.8-5.2.6-10.9 5.4-12.5l7.5-2.6 30 85.8-7.5 2.6c-4.7 1.8-10.1-1.1-12-6.4zm167-58.3c1.8 5.2-.6 10.9-5.4 12.5l-7.4 2.6-30-85.8 7.4-2.6c4.8-1.7 10.2 1.2 12.1 6.4l23.3 66.9z" class="st59"/><path d="M129.3 99.1l3.2 3.8 4.6-1.9c.5-.2.9.3.6.8l-2.6 4.2 3.2 3.8c.3.4 0 1-.5.8l-4.8-1.2-2.6 4.2c-.3.4-.9.3-1-.2l-.4-4.9-4.8-1.2c-.5-.1-.5-.8-.1-1l4.6-1.9-.4-4.9c.1-.5.7-.8 1-.4zm22.3-13.5l4.6 5.4 6.6-2.7c.5-.2.9.3.6.8l-3.7 6.1 4.6 5.4c.3.4 0 1-.5.8l-6.9-1.7-3.7 6.1c-.3.4-.9.3-1-.2l-.5-7.1-6.9-1.7c-.5-.1-.5-.8-.1-1l6.6-2.7-.5-7.1c-.2-.5.4-.8.8-.4zm25.2-6.1l3.2 3.8 4.6-1.9c.5-.2.9.3.6.8l-2.6 4.2 3.2 3.8c.3.4 0 1-.5.8l-4.8-1.2L178 94c-.3.4-.9.3-1-.2l-.4-4.9-4.8-1.2c-.5-.1-.5-.8-.1-1l4.6-1.9-.4-4.9c0-.5.6-.8.9-.4zm-25 40.4l13.2 32.4c.5 1.3 2.2 1.5 3.1.4l22-27.8c.9-1.1.2-2.7-1.2-2.9l-35.3-4.5c-1.2-.2-2.3 1.1-1.8 2.4zm-7.5 9.6l-31.1 11.1c-1.1.4-2.3-.2-2.7-1.3l-1.1-3.2c-.4-1.1.2-2.3 1.3-2.7l31.1-11.1c1.1-.4 2.3.2 2.7 1.3l1.1 3.2c.4 1.1-.2 2.3-1.3 2.7zm10.8 29.8L124 170.4c-1.1.4-2.3-.2-2.7-1.3l-7.4-20.8c-.4-1.1.2-2.3 1.3-2.7l31.1-11.1c1.1-.4 2.3.2 2.7 1.3l7.4 20.8c.4 1.1-.2 2.3-1.3 2.7zm71.8-62.4L195.8 108c-1.1.4-2.3-.2-2.7-1.3l-1.1-3.2c-.4-1.1.2-2.3 1.3-2.7l31.1-11.1c1.1-.4 2.3.2 2.7 1.3l1.1 3.2c.4 1.1-.1 2.3-1.3 2.7zm10.9 29.8l-31.1 11.1c-1.1.4-2.3-.2-2.7-1.3l-7.4-20.8c-.4-1.1.2-2.3 1.3-2.7l31.1-11.1c1.1-.4 2.3.2 2.7 1.3l7.4 20.8c.4 1.1-.2 2.3-1.3 2.7z" class="st59"/><path d="M58.6 161.9s6.5-2.4 4.5-9.4c-2-7.1-9.4-4.5-9.4-4.5l-2.6-6.2-.9-3.8s6.2-3.7 4.5-9.4c0 0 30.5-1.8 31.1-24.8l194.5 30.4s-1.5 7.9.7 13.3l-8.6 1.3-213.8 13.1z" class="st60"/><path fill="#ff8da4" d="M280.8 239.3c.7-4 4.5-6.8 8.5-6.1l1.6-9.6c-4-.7-6.8-4.5-6.1-8.5.7-4 4.5-6.8 8.5-6.1l1.7-10.4c-4-.7-6.8-4.5-6.1-8.5.7-4 4.5-6.8 8.5-6.1l1.9-11.9c-13.1-2.1-21.9-14.4-19.8-27.5L91.3 113.8c-2.1 13.1-14.4 21.9-27.5 19.8l-1.9 11.9c4 .7 6.8 4.5 6.1 8.5-.7 4-4.5 6.8-8.5 6.1l-1.7 10.4c4 .7 6.8 4.5 6.1 8.5-.7 4-4.5 6.8-8.5 6.1l-1.6 9.6c4 .7 6.8 4.5 6.1 8.5-.7 4-4.5 6.8-8.5 6.1l-1.9 11.6c12.9 2.1 21.6 14.1 19.8 27l188.3 30.8c2.4-12.8 14.5-21.4 27.4-19.3l1.9-11.6c-4-.7-6.8-4.5-6.1-8.5z"/><path d="M260.4 161.1l-156.3-25.6c-6.7-1.1-13.1 3.8-14.2 10.9l-11.4 69.9c-1.2 7.1 3.3 13.8 10 14.9l156.3 25.6c6.7 1.1 13.1-3.8 14.2-10.9l11.4-69.9c1.2-7.1-3.3-13.8-10-14.9zm-11.2 1.3l-14.7 89.7-134.8-22 14.7-89.7 134.8 22zM81.4 216.9L92.9 147c.9-5.5 5.7-9.2 10.8-8.4l7.8 1.3-14.7 89.7-7.8-1.3c-5.1-.8-8.4-5.9-7.6-11.4zM256 245.4c-.9 5.5-5.7 9.2-10.8 8.4l-7.7-1.3 14.7-89.7 7.7 1.3c5 .8 8.4 5.9 7.5 11.4L256 245.4z" class="st6"/><path fill="#ef3030" d="M150.4 157.9l.7 4.9 4.9.8c.5.1.6.8.2 1l-4.4 2.2.8 4.9c.1.5-.5.8-.9.4l-3.5-3.5-4.4 2.2c-.5.2-.9-.3-.7-.7l2.3-4.4-3.5-3.5c-.4-.4 0-1 .5-.9l4.9.8 2.3-4.4c0-.4.7-.3.8.2zm26 .2l1.1 7.1 7 1.2c.5.1.6.8.1 1l-6.4 3.2 1.1 7.1c.1.5-.5.8-.9.4l-5-5.1-6.4 3.2c-.5.2-.9-.3-.7-.7l3.3-6.3-5-5.1c-.4-.4 0-1 .5-.9l7 1.2 3.3-6.3c.2-.6.9-.5 1 0zm24.7 8.1l.7 4.9 4.9.8c.5.1.6.8.1 1l-4.4 2.2.7 4.9c.1.5-.5.8-.9.4l-3.5-3.5-4.4 2.2c-.5.2-.9-.3-.7-.7l2.3-4.4-3.5-3.5c-.4-.4 0-1 .5-.9l4.9.8 2.3-4.4c.3-.4.9-.3 1 .2z"/><path d="M158.6 187.4l-5.7 34.5c-.2 1.4 1.1 2.5 2.4 2l33.4-12.1c1.3-.5 1.6-2.2.5-3.1l-27.6-22.4c-1.2-.9-2.8-.2-3 1.1zm-11.5 4.2l-32.3-6.9c-1.2-.2-1.9-1.4-1.6-2.5l.7-3.3c.2-1.2 1.4-1.9 2.5-1.6l32.3 6.9c1.2.2 1.9 1.4 1.6 2.5l-.7 3.3c-.2 1.1-1.3 1.9-2.5 1.6zm-6.4 31l-32.3-6.9c-1.2-.2-1.9-1.4-1.6-2.5l4.6-21.6c.2-1.2 1.4-1.9 2.5-1.6l32.3 6.9c1.2.2 1.9 1.4 1.6 2.5l-4.6 21.6c-.2 1.1-1.4 1.9-2.5 1.6zm93.9-15.3l-32.3-6.9c-1.2-.2-1.9-1.4-1.6-2.5l.7-3.3c.2-1.2 1.4-1.9 2.5-1.6l32.3 6.9c1.2.2 1.9 1.4 1.6 2.5l-.7 3.3c-.2 1.1-1.4 1.9-2.5 1.6zm-6.4 31l-32.3-6.9c-1.2-.2-1.9-1.4-1.6-2.5l4.6-21.6c.2-1.2 1.4-1.9 2.5-1.6l32.3 6.9c1.2.2 1.9 1.4 1.6 2.5l-4.6 21.6c-.2 1.1-1.4 1.9-2.5 1.6z" class="st6"/><g class="st60"><path d="M174.9 46.7l55.5-21.1 7.1 2.5c1.6 2.9 4.6 5.6 7.7 7.5 3.3 2.1 7.1 3.4 11.2 4 2.3.3 3.8 2.4 3.5 4.7-.3 2-2.1 3.5-4.1 3.5-10.6 0-21.9-4.6-28.5-13.2l7.1 2.5L177.8 55c-5.4 1.5-8.1-6.1-2.9-8.3z" class="st25"/></g><g class="st60"><path d="M191.8 133l80.5 13.4 4.9 6.2v-.1.4c.1 8.9 6.5 16.4 13.8 20.9 4.3 2.8.7 9.2-3.9 7.2-11.3-5.1-21.1-15.7-22-28.5v-.3l4.9 6.2-79.9-16.8c-5.3-1.3-3.9-9.3 1.7-8.6z" class="st25"/></g></svg>