<svg xmlns="http://www.w3.org/2000/svg" version="1.0" viewBox="0 0 50 50"><path fill="#DC5E82" d="M44.082 15.351V34.65c0 .043 0 .078-.007.121l-24.73 8.999-12.241-7.065a2.382 2.382 0 0 1-1.187-2.054v-19.3c0-.846.455-1.628 1.187-2.054l16.712-9.646a2.347 2.347 0 0 1 2.367 0l16.712 9.646a2.366 2.366 0 0 1 1.187 2.054z"/><path fill="#F56991" d="M39.39 11.278L5.917 23.462v-8.111c0-.846.455-1.628 1.187-2.054l16.712-9.646a2.347 2.347 0 0 1 2.367 0l13.207 7.627z"/><g fill="#444"><path d="M37.21 33.848h-4.992v-.775a.125.125 0 0 0-.25 0v.775h-6.891v-3.571c2.703-1.33 5.076-2.945 7.009-4.79l.007.001a1.853 1.853 0 0 0 1.851-1.851c0-.05-.011-.097-.015-.146a18.087 18.087 0 0 0 2.331-3.65A1.25 1.25 0 0 0 34 18.77a15.634 15.634 0 0 1-1.9 3.017l-.008-.001a1.854 1.854 0 0 0-1.852 1.851c0 .052.011.101.015.152-1.46 1.378-3.209 2.613-5.18 3.684V23.761h.825a.125.125 0 0 0 0-.25h-.823V12.744l.002-.005v-2.381a.125.125 0 0 0-.25 0v2.379l-.002.005V27.609c-2.727 1.448-5.875 2.577-9.322 3.293a1.25 1.25 0 0 0 .508 2.448c3.197-.663 6.16-1.671 8.814-2.95v3.448H12.694a.125.125 0 0 0 0 .25h12.133v3.16l.002.005v2.382a.125.125 0 0 0 .25 0v-2.389l-.002-.005v-3.154H37.21a.124.124 0 1 0 0-.249z"/><path d="M43.522 12.215l-16.71-9.648a3.631 3.631 0 0 0-3.623 0l-16.71 9.648a3.633 3.633 0 0 0-1.812 3.137v19.296c0 1.29.694 2.492 1.812 3.138l16.71 9.647a3.628 3.628 0 0 0 3.624-.001l5.906-3.409a1.25 1.25 0 0 0-1.25-2.166l-5.906 3.41a1.121 1.121 0 0 1-1.123 0L7.728 35.62a1.125 1.125 0 0 1-.562-.972V15.352c0-.4.215-.772.562-.972l16.71-9.648c.347-.2.776-.2 1.123 0l16.711 9.648c.346.2.561.572.561.972v19.296a1.25 1.25 0 0 0 2.5 0V15.352a3.633 3.633 0 0 0-1.811-3.137z"/><path d="M40.412 15.442L25.577 6.876a1.155 1.155 0 0 0-1.149 0L9.592 15.442a1.153 1.153 0 0 0-.575.995v17.131c0 .409.22.791.575.995l14.835 8.564a1.143 1.143 0 0 0 1.15 0l14.835-8.564c.354-.204.574-.586.574-.995V16.437a1.15 1.15 0 0 0-.574-.995zm.324 18.126a.9.9 0 0 1-.449.778L25.452 42.91a.902.902 0 0 1-.899 0L9.717 34.346a.902.902 0 0 1-.45-.778V16.437c0-.32.172-.619.45-.778l14.835-8.565a.902.902 0 0 1 .9 0l14.835 8.565a.9.9 0 0 1 .449.778v17.131z"/><path d="M32.218 26.315a.125.125 0 0 0-.25 0v1.601a.125.125 0 0 0 .25 0v-1.601zM32.093 29.569a.125.125 0 0 0-.125.125v1.601a.125.125 0 0 0 .25 0v-1.601a.124.124 0 0 0-.125-.125zM27.725 23.761h1.643a.125.125 0 0 0 0-.25h-1.643a.125.125 0 0 0 0 .25z"/></g></svg>