<svg xmlns="http://www.w3.org/2000/svg" id="Camada_2" data-name="Camada 2" viewBox="0 0 44.88 44.88"><defs><style>.cls-1,.cls-2{fill:#e5e5e5;stroke-width:0}.cls-2{fill:#8852ca}</style></defs><g id="PM3"><circle cx="8.43" cy="36.75" r=".56" class="cls-2"/><path d="M22.51 22.08a.56.56 0 100 1.12.56.56 0 100-1.12zm9.72 0a.56.56 0 100 1.12.56.56 0 100-1.12z" class="cls-2"/><path d="M34.56 21.71a2.512 2.512 0 01-4.65 1.9h-5.09c-.38.9-1.28 1.54-2.32 1.54-.33 0-.64-.07-.92-.18L10.75 35.8c.12.29.19.61.19.95 0 1.39-1.13 2.51-2.51 2.51s-2.51-1.13-2.51-2.51 1.13-2.51 2.51-2.51c.34 0 .65.07.95.19l10.81-10.81c-.13-.3-.2-.63-.2-.97a2.512 2.512 0 014.83-.97h5.09c.38-.9 1.28-1.54 2.32-1.54.34 0 .66.07.96.19L44.88 8.64V5.59c0-3.08-2.5-5.58-5.58-5.58H5.58A5.567 5.567 0 000 5.58V39.3c0 3.08 2.5 5.58 5.58 5.58H39.3c.96 0 1.87-.24 2.66-.67a5.576 5.576 0 002.92-4.91V27.07h-1.97c-.34 1.2-.81 2.35-1.42 3.43l1.84 1.84c.39.39.61.92.61 1.48s-.22 1.08-.61 1.48l-3.3 3.3c-.79.79-2.16.79-2.95 0l-1.84-1.84c-1.08.6-2.23 1.08-3.43 1.42v2.61c0 1.15-.94 2.09-2.09 2.09h-4.67c-1.15 0-2.09-.94-2.09-2.09v-2.61c-1.2-.34-2.35-.81-3.43-1.42l-1.84 1.84c-.79.79-2.16.79-2.95 0l-2-2c-.18-.18-.29-.43-.29-.69s.1-.51.29-.69c.38-.38 1-.38 1.38 0l2 2c.05.05.14.05.19 0l2.38-2.38a.97.97 0 011.2-.14c1.31.82 2.75 1.41 4.26 1.76.44.1.75.49.75.95v3.36c0 .08.06.14.14.14h4.67c.08 0 .14-.06.14-.14v-3.36c0-.46.31-.85.75-.95 1.52-.35 2.95-.95 4.27-1.76.39-.24.88-.18 1.2.14l2.38 2.38c.05.05.14.05.19 0l3.3-3.3s.04-.06.04-.1-.01-.07-.04-.1l-2.38-2.38a.97.97 0 01-.14-1.2c.82-1.31 1.41-2.75 1.76-4.26.1-.44.49-.75.95-.75h2.72v-4.94h-2.72c-.46 0-.85-.31-.95-.75-.13-.58-.31-1.16-.51-1.72a.977.977 0 01.03-.75.977.977 0 011.3-.48c.24.11.42.3.51.55.15.39.28.79.39 1.2h1.97v-6.83L34.55 21.73zm1.28-5.17a.98.98 0 01-1.38-.09c-.14-.15-.28-.31-.43-.45-1.78-1.78-4.14-2.75-6.65-2.75s-4.87.98-6.65 2.75a9.459 9.459 0 00-2.32 3.83 9.476 9.476 0 00-.31 4.33.99.99 0 01-.17.73c-.15.21-.38.35-.63.39h-.16a.943.943 0 01-.96-.81c-.28-1.74-.15-3.54.37-5.22.54-1.73 1.51-3.33 2.81-4.63a11.27 11.27 0 018.02-3.32 11.27 11.27 0 018.53 3.87c.35.4.31 1.02-.09 1.37zM7.18 20.31c0-1.15.94-2.09 2.09-2.09h2.61c.34-1.2.81-2.35 1.42-3.43l-1.84-1.84c-.39-.39-.61-.92-.61-1.48s.22-1.08.61-1.48l3.3-3.3c.81-.81 2.14-.81 2.95 0l1.84 1.84c1.08-.6 2.23-1.08 3.43-1.42V4.5c0-1.15.94-2.09 2.09-2.09h4.67c1.15 0 2.09.94 2.09 2.09v2.61c1.2.34 2.35.81 3.43 1.42l1.84-1.84c.79-.79 2.16-.79 2.95 0l1.9 1.9c.18.18.29.43.29.69s-.1.51-.29.69c-.38.38-1 .38-1.38 0l-1.9-1.9a.14.14 0 00-.19 0l-2.38 2.38a.97.97 0 01-1.2.14c-1.31-.82-2.75-1.41-4.26-1.76a.966.966 0 01-.75-.95V4.52c0-.08-.06-.14-.14-.14h-4.67c-.08 0-.14.06-.14.14v3.36c0 .46-.31.85-.75.95-1.52.35-2.95.95-4.26 1.76-.39.24-.88.18-1.21-.14l-2.38-2.38a.14.14 0 00-.19 0l-3.3 3.3a.14.14 0 000 .19l2.38 2.38c.32.32.38.82.14 1.2-.82 1.31-1.41 2.75-1.76 4.26-.1.44-.49.75-.95.75H9.3c-.08 0-.14.06-.14.14v4.67c0 .08.06.14.14.14h3.36c.46 0 .85.31.95.75.12.52.27 1.04.46 1.55a.979.979 0 01-.59 1.25.88.88 0 01-.33.06.98.98 0 01-.92-.65c-.12-.33-.23-.67-.32-1.01H9.3c-1.15 0-2.09-.94-2.09-2.09v-4.67zm31.02 5.8c-.55 1.71-1.51 3.28-2.78 4.56-2.14 2.14-4.99 3.32-8.02 3.32s-5.88-1.18-8.02-3.32c-.21-.21-.41-.42-.6-.65a.97.97 0 01-.23-.71c.02-.26.14-.5.34-.67a.99.99 0 011.38.1c.16.18.32.36.5.54 1.78 1.78 4.14 2.75 6.65 2.75s4.87-.98 6.65-2.75a9.334 9.334 0 002.65-8.04c-.04-.26.03-.51.18-.72.16-.21.38-.35.64-.38.26-.04.51.03.72.18.21.16.35.38.38.64.26 1.72.11 3.5-.42 5.15z" class="cls-2"/><path d="M35.42 14.62c-2.14-2.14-4.99-3.32-8.02-3.32s-5.88 1.18-8.02 3.32a11.452 11.452 0 00-2.81 4.63c-.53 1.68-.65 3.48-.37 5.22.08.48.48.82.96.82h.16a.99.99 0 00.8-1.13c-.23-1.44-.13-2.94.31-4.33A9.393 9.393 0 0120.75 16c1.78-1.78 4.14-2.75 6.65-2.75s4.87.98 6.65 2.75c.15.15.29.3.43.45.35.4.97.45 1.38.09.4-.36.44-.97.09-1.37-.16-.19-.34-.37-.51-.55zm2.81 5.7a.973.973 0 00-1.36.2c-.15.21-.22.47-.18.72.21 1.42.09 2.9-.34 4.27a9.226 9.226 0 01-2.31 3.77 9.333 9.333 0 01-6.65 2.75 9.375 9.375 0 01-7.15-3.29.971.971 0 00-1.38-.1c-.2.17-.32.41-.34.67-.02.26.06.51.23.71a11.27 11.27 0 008.62 3.97c3.03 0 5.88-1.18 8.02-3.32 1.28-1.28 2.24-2.85 2.78-4.56.53-1.65.67-3.43.42-5.15a.973.973 0 00-.38-.64z" class="cls-1"/><path d="M9.27 27.07h2.61c.1.34.21.68.32 1.01.14.39.51.65.92.65.11 0 .22-.02.33-.06.25-.09.44-.27.55-.5.11-.24.12-.5.04-.75-.18-.51-.33-1.03-.46-1.55a.966.966 0 00-.95-.75H9.27c-.08 0-.14-.06-.14-.14v-4.67c0-.08.06-.14.14-.14h3.36c.46 0 .85-.31.95-.75.35-1.52.95-2.95 1.76-4.26.24-.39.18-.88-.14-1.2l-2.38-2.38a.14.14 0 010-.19l3.3-3.3a.14.14 0 01.19 0l2.38 2.38c.32.32.82.38 1.21.14 1.31-.82 2.75-1.41 4.26-1.76.44-.1.75-.49.75-.95V4.54c0-.08.06-.14.14-.14h4.67c.08 0 .14.06.14.14V7.9c0 .46.31.85.75.95 1.52.35 2.95.95 4.26 1.76.39.24.88.18 1.2-.14l2.38-2.38a.14.14 0 01.19 0l1.9 1.9a.978.978 0 001.67-.69c0-.26-.1-.51-.29-.69l-1.9-1.9c-.79-.79-2.16-.79-2.95 0l-1.84 1.84c-1.08-.6-2.23-1.08-3.43-1.42V4.52c0-1.15-.94-2.09-2.09-2.09h-4.67c-1.15 0-2.09.94-2.09 2.09v2.61c-1.2.34-2.35.81-3.43 1.42l-1.84-1.84c-.81-.81-2.14-.81-2.95 0l-3.3 3.3c-.39.39-.61.92-.61 1.48s.22 1.08.61 1.48l1.84 1.84c-.6 1.08-1.08 2.23-1.42 3.43H9.24c-1.15 0-2.09.94-2.09 2.09V25c0 1.15.94 2.09 2.09 2.09zm33.25-10.04a.982.982 0 00-1.81-.07c-.11.24-.12.5-.03.75.21.56.38 1.13.51 1.72.1.44.49.75.95.75h2.72v-1.95h-1.97c-.11-.4-.24-.8-.39-1.2zm-.36 8.08c-.46 0-.85.31-.95.75-.35 1.52-.95 2.95-1.76 4.26-.24.39-.18.88.14 1.2l2.38 2.38s.04.06.04.1-.01.07-.04.1l-3.3 3.3a.14.14 0 01-.19 0l-2.38-2.38a.97.97 0 00-1.2-.14c-1.31.82-2.75 1.41-4.27 1.76-.44.1-.75.49-.75.95v3.36c0 .08-.06.14-.14.14h-4.67c-.08 0-.14-.06-.14-.14v-3.36c0-.46-.31-.85-.75-.95-1.52-.35-2.95-.95-4.26-1.76a.968.968 0 00-1.2.14l-2.38 2.38a.14.14 0 01-.19 0l-2-2a.978.978 0 00-1.67.69c0 .26.1.51.29.69l2 2c.79.79 2.16.79 2.95 0l1.84-1.84c1.08.6 2.23 1.08 3.43 1.42v2.61c0 1.15.94 2.09 2.09 2.09h4.67c1.15 0 2.09-.94 2.09-2.09v-2.61c1.2-.34 2.35-.81 3.43-1.42l1.84 1.84c.79.79 2.16.79 2.95 0l3.3-3.3c.39-.39.61-.92.61-1.48s-.22-1.08-.61-1.48l-1.84-1.84c.6-1.08 1.08-2.23 1.42-3.43h1.97V25.1h-2.72z" class="cls-1"/><path d="M32.23 20.13c-1.04 0-1.94.64-2.32 1.54h-5.09a2.512 2.512 0 00-4.83.97c0 .34.07.67.2.97L9.38 34.42c-.29-.12-.61-.19-.95-.19-1.39 0-2.51 1.13-2.51 2.51s1.13 2.51 2.51 2.51 2.51-1.13 2.51-2.51c0-.34-.07-.65-.19-.95l10.83-10.83c.29.11.6.18.92.18 1.04 0 1.94-.64 2.32-1.54h5.09a2.512 2.512 0 004.83-.97c0-.33-.07-.64-.18-.93l10.32-10.32V8.62L33.19 20.31c-.3-.12-.62-.19-.96-.19zM8.43 37.31a.56.56 0 110-1.12.56.56 0 110 1.12zM22.51 23.2a.56.56 0 110-1.12.56.56 0 110 1.12zm9.72 0a.56.56 0 110-1.12.56.56 0 110 1.12z" class="cls-1"/></g></svg>