<?xml version="1.0" encoding="utf-8"?>
<!-- Generator: Adobe Illustrator 22.0.1, SVG Export Plug-In . SVG Version: 6.00 Build 0)  -->
<svg version="1.1" id="Layer_1" xmlns="http://www.w3.org/2000/svg" xmlns:xlink="http://www.w3.org/1999/xlink" x="0px" y="0px"
	 viewBox="0 0 50 50" style="enable-background:new 0 0 50 50;" xml:space="preserve">
<style type="text/css">
	.st0{fill:#BEE367;}
	.st1{fill:#D4FF73;}
	.st2{fill:#464646;}
</style>
<g>
	<path class="st0" d="M48.1,12.8l-46,16.7v8.3c0,1.3,1,2.3,2.3,2.3h18.4l25.3-9.2V12.8z"/>
</g>
<g>
	<polygon class="st0" points="2.5,42.3 2.5,47 4,47 16.8,42.3 	"/>
</g>
<g>
	<path class="st1" d="M48.1,12.6c0-1.3-1-2.3-2.3-2.3h-6.9c0,0,0,0,0,0c-0.6-0.8-1.2-1.6-2-2.4c-0.7-0.7-1.5-1.4-2.4-2
		c-0.4-0.3-1-0.2-1.4,0.1l-1.3,1.3c-0.9-0.5-1.9-0.9-2.8-1.2V4.4c0-0.5-0.4-1-0.9-1.1c-2-0.4-4.1-0.4-6.1,0
		c-0.5,0.1-0.9,0.6-0.9,1.1v1.8c-1,0.3-1.9,0.7-2.8,1.2L17,6.1c-0.4-0.4-1-0.4-1.4-0.1c-0.8,0.6-1.6,1.2-2.4,2
		c-0.7,0.7-1.4,1.5-2,2.4c0,0,0,0,0,0H4.4c-1.3,0-2.3,1-2.3,2.3v16.9l46-16.7V12.6z"/>
</g>
<g>
	<path class="st2" d="M48.1,48.2H1.8v-7.2h18.6l0.3,0.8c0.1,0.2,0.3,0.4,0.6,0.4h7.4c0.3,0,0.5-0.2,0.6-0.4l0.3-0.8h18.6V48.2z
		 M4.3,45.7h41.3v-2.2H31.1c-0.6,0.7-1.5,1.2-2.4,1.2h-7.4c-1,0-1.8-0.4-2.4-1.2H4.3V45.7z"/>
</g>
<path class="st2" d="M45.6,8.4h-6.7c-0.4-0.5-0.8-0.9-1.2-1.3c-0.8-0.8-1.6-1.5-2.5-2.1c-0.9-0.6-2.2-0.5-3,0.3l-0.7,0.7
	c-0.4-0.2-0.9-0.4-1.4-0.6V4.4c0-1.1-0.8-2.1-1.9-2.3c-2.1-0.4-4.4-0.4-6.6,0c-1.1,0.2-1.9,1.2-1.9,2.3v0.9
	c-0.5,0.2-0.9,0.4-1.4,0.6l-0.7-0.7c-0.8-0.8-2.1-0.9-3-0.3C13.8,5.5,13,6.3,12.2,7c-0.4,0.4-0.8,0.9-1.2,1.3H4.2
	c-2,0-3.5,1.6-3.5,3.5v25.2c0,2,1.6,3.5,3.5,3.5h41.4c2,0,3.5-1.6,3.5-3.5V11.9C49.1,10,47.5,8.4,45.6,8.4z M12.2,10.9
	c0.5-0.7,1.1-1.4,1.7-2.1c0.6-0.6,1.3-1.2,2.1-1.7l1.9,1.9l0.8-0.5c0.8-0.5,1.7-0.8,2.6-1.1l0.9-0.3V4.5c1.8-0.3,3.6-0.3,5.4,0v2.6
	l0.9,0.3c0.9,0.3,1.8,0.6,2.6,1.1l0.8,0.5l1.9-1.9c0.7,0.5,1.4,1.1,2.1,1.7c0.6,0.6,1.2,1.3,1.7,2.1l-1.9,1.9l0.5,0.8
	c0.5,0.8,0.8,1.7,1.1,2.6l0.3,0.9h2.6c0.2,0.9,0.2,1.8,0.2,2.7c0,0.9-0.1,1.8-0.2,2.7h-2.6l-0.3,0.9c-0.3,0.9-0.6,1.8-1.1,2.6
	c-0.1,0.2-0.1,0.4-0.1,0.7c0,0.4,0.1,0.7,0.3,1l1.2,1.2c-0.5,0.7-1.1,1.4-1.7,2.1c-0.5,0.5-0.5,1.3,0,1.8c0.2,0.2,0.6,0.4,0.9,0.4
	c0.3,0,0.6-0.1,0.9-0.4c0.8-0.8,1.5-1.6,2.1-2.5c0.6-0.9,0.5-2.2-0.3-3l-0.7-0.7c0.2-0.5,0.4-1,0.6-1.5h0.9c1.1,0,2.1-0.8,2.3-1.9
	c0.2-1.1,0.3-2.2,0.3-3.3c0-1.1-0.1-2.2-0.3-3.3c-0.2-1.1-1.2-1.9-2.3-1.9h-0.9c-0.2-0.5-0.4-0.9-0.6-1.4l0.1-0.1h4.6
	c0.9,0,1.6,0.6,1.6,1.3v20.2c0,0.7-0.7,1.3-1.6,1.3H30c0.1-0.3,0.2-0.5,0.2-0.8v-1.8c0-0.7-0.6-1.2-1.2-1.2s-1.2,0.6-1.2,1.2v1.7
	c-1.8,0.3-3.6,0.3-5.4,0v-2.6l-0.9-0.3c-0.9-0.3-1.8-0.6-2.6-1.1l-0.8-0.5L16,32.5c-0.7-0.5-1.4-1.1-2.1-1.7
	c-0.6-0.6-1.2-1.3-1.7-2.1l1.9-1.9L13.6,26c-0.5-0.8-0.8-1.7-1.1-2.6l-0.3-0.9H9.6c-0.2-0.9-0.2-1.8-0.2-2.7c0-0.9,0.1-1.8,0.2-2.7
	h2.6l0.3-0.9c0.3-0.9,0.6-1.8,1.1-2.6l0.5-0.8L12.2,10.9z M11,13.2c-0.2,0.4-0.4,0.9-0.6,1.4H9.5c-1.1,0-2.1,0.8-2.3,1.9
	c-0.2,1.1-0.3,2.2-0.3,3.3C6.9,20.9,7,22,7.2,23C7.4,24.2,8.4,25,9.5,25h0.9c0.2,0.5,0.4,0.9,0.6,1.4L10.3,27
	c-0.8,0.8-0.9,2.1-0.3,3c0.6,0.9,1.3,1.8,2.1,2.5c0.8,0.8,1.6,1.5,2.5,2.1c0.9,0.6,2.2,0.5,3-0.3l0.7-0.7c0.4,0.2,0.9,0.4,1.4,0.6
	v0.9c0,0.3,0.1,0.6,0.2,0.8H6.3c-0.9,0-1.6-0.6-1.6-1.3V14.5c0-0.7,0.7-1.3,1.6-1.3h4.6L11,13.2z M46.6,37.1c0,0.6-0.5,1-1,1H4.2
	c-0.6,0-1-0.5-1-1V11.9c0-0.6,0.5-1,1-1h5.5c0,0.4,0.1,0.9,0.3,1.3H6.3c-1.4,0-2.6,1.1-2.6,2.3v20.2C3.7,36,4.9,37,6.3,37h14.3
	c0.3,0.2,0.6,0.4,1,0.5c1.1,0.2,2.2,0.3,3.3,0.3c1.1,0,2.2-0.1,3.3-0.3c0.4-0.1,0.7-0.2,1-0.5h14.3c1.4,0,2.6-1.1,2.6-2.3V14.5
	c0-1.3-1.2-2.3-2.6-2.3h-3.7c0.2-0.4,0.3-0.8,0.3-1.3h5.4c0.6,0,1,0.5,1,1V37.1z"/>
<g>
	<path class="st2" d="M24.9,28.7c-0.5,0-1.1-0.1-1.7-0.2c-2.3-0.4-4.4-1.8-5.7-3.7c-1.3-2-1.8-4.3-1.4-6.7c0.4-2.3,1.8-4.4,3.7-5.7
		c2-1.3,4.3-1.8,6.7-1.4c4.8,0.9,8,5.6,7.1,10.4l0,0C32.9,25.7,29.1,28.7,24.9,28.7z M24.9,13.4c-1.3,0-2.5,0.4-3.6,1.1
		c-1.4,1-2.4,2.4-2.7,4.1c-0.7,3.5,1.6,6.8,5.1,7.5c1.7,0.3,3.4,0,4.8-1c1.4-1,2.4-2.4,2.7-4.1c0.7-3.5-1.6-6.8-5.1-7.5
		C25.7,13.4,25.3,13.4,24.9,13.4z M32.5,21.2L32.5,21.2L32.5,21.2z"/>
</g>
<g>
	<circle class="st2" cx="24.9" cy="19.8" r="3.3"/>
</g>
</svg>
