<svg version="1" xmlns="http://www.w3.org/2000/svg" viewBox="0 0 50 50"><path fill="#E56060" d="M7.103 37.896l5.498 3.174 32.516-11.835V15.949a4.44 4.44 0 0 0-2.22-3.845L27.22 3.053a4.439 4.439 0 0 0-4.439 0L7.103 12.104a4.44 4.44 0 0 0-2.22 3.845v18.103c0 1.585.846 3.051 2.22 3.844z"/><path fill="#FF6B6B" d="M35.792 8.905l-8.091-5.391a4.438 4.438 0 0 0-4.431-.284L7.046 11.258a4.441 4.441 0 0 0-2.462 3.695l-.202 3.154 31.41-9.202z"/><path fill="#444" d="M25 48.583a5.487 5.487 0 0 1-2.742-.733L6.581 38.8a5.503 5.503 0 0 1-2.742-4.75V15.949A5.501 5.501 0 0 1 6.581 11.2l15.677-9.051a5.5 5.5 0 0 1 5.483 0L43.419 11.2a5.5 5.5 0 0 1 2.742 4.749v13.287a1.044 1.044 0 0 1-2.088 0V15.949a3.407 3.407 0 0 0-1.698-2.941L26.698 3.956a3.404 3.404 0 0 0-3.396 0L7.625 13.007a3.407 3.407 0 0 0-1.698 2.941V34.05c0 1.209.651 2.337 1.698 2.942l15.677 9.05a3.404 3.404 0 0 0 3.396.001l4.329-2.5a1.045 1.045 0 0 1 1.044 1.808l-4.329 2.499a5.477 5.477 0 0 1-2.742.733z"/><path fill="#444" d="M26.759 35.791c-3.151 0-5.546-.919-7.185-2.759-1.638-1.839-2.457-4.479-2.457-7.918 0-3.503.857-6.196 2.571-8.079 1.714-1.884 4.19-2.826 7.429-2.826 1.977 0 3.776.331 5.397.991a.612.612 0 0 1 .33.781l-.92 2.448a.611.611 0 0 1-.783.349c-1.617-.584-2.97-.878-4.062-.878-3.604 0-5.405 2.392-5.405 7.175 0 2.335.449 4.089 1.347 5.263.898 1.175 2.213 1.761 3.946 1.761 1.645 0 3.216-.341 4.714-1.024.411-.187.879.089.879.541v2.507a.623.623 0 0 1-.322.548 8.757 8.757 0 0 1-2.211.818c-.898.201-1.987.302-3.268.302zm11.664.245l-.401 2.067h1.631c.051 0 .093.042.093.093v.598a.093.093 0 0 1-.093.093h-1.777l-.492 2.538a.092.092 0 0 1-.091.075h-.643a.093.093 0 0 1-.091-.111l.485-2.503h-1.842l-.48 2.538a.093.093 0 0 1-.091.076h-.638a.093.093 0 0 1-.091-.11l.462-2.504h-1.495a.093.093 0 0 1-.093-.093v-.598c0-.051.042-.093.093-.093h1.647l.413-2.067h-1.587a.093.093 0 0 1-.093-.093v-.586c0-.051.042-.093.093-.093h1.72l.488-2.575a.093.093 0 0 1 .091-.076h.656c.058 0 .102.053.091.11l-.482 2.54h1.854l.5-2.575a.092.092 0 0 1 .091-.075h.625c.058 0 .102.053.091.111l-.493 2.54h1.516c.051 0 .093.042.093.093v.586a.093.093 0 0 1-.093.093h-1.667zm-3.075 2.066h1.842l.401-2.067h-1.842l-.401 2.067z"/></svg>