<?xml version="1.0" encoding="utf-8"?>
<!-- Generator: Adobe Illustrator 22.1.0, SVG Export Plug-In . SVG Version: 6.00 Build 0)  -->
<svg version="1.1" id="Layer_1" xmlns="http://www.w3.org/2000/svg" xmlns:xlink="http://www.w3.org/1999/xlink" x="0px" y="0px"
	 viewBox="0 0 50 50" style="enable-background:new 0 0 50 50;" xml:space="preserve">
<style type="text/css">
	.st0{fill:#FDCF72;}
	.st1{fill:#FCC34F;}
	.st2{fill:#444444;}
</style>
<g>
	<g>
		<polygon class="st0" points="45.9,27.3 4.7,42.3 4.1,40.5 4.2,31.1 4.6,28.1 35.3,16.9 40.8,16.5 44.9,17.9 		"/>
	</g>
	<g>
		<polygon class="st1" points="45.7,29.5 45.5,35 11.2,47.5 3.1,47.8 1,43.5 4.3,42.8 4.4,35.8 45.8,20.7 		"/>
	</g>
	<g>
		<path class="st2" d="M18.2,35.3L18.2,35.3c1.2,0.7,2.5,1,3.8,1c0.7,0,1.3-0.1,2-0.3c3.5-0.9,5.9-4.2,5.6-7.8c-0.2-3.6-3-6.6-6.6-7
			c-3.6-0.5-7,1.7-8.2,5.1C13.6,29.7,15,33.5,18.2,35.3z M16.7,25.7c1.7-2.9,5.4-3.9,8.3-2.2c2.9,1.7,3.9,5.4,2.2,8.3
			c-1.7,2.9-5.4,3.9-8.3,2.2C16,32.3,15,28.6,16.7,25.7z"/>
		<path class="st2" d="M46.6,42.1V20.4c0-2.3-1.8-4.1-4.1-4.1l-16,0c-0.6,0-1.1,0.5-1.1,1.1c0,0.5,0.3,0.9,0.8,1v0h0.3c0,0,0,0,0,0
			l16,0c1.1,0,2,0.9,2,2v21.8h-1.7V22.7c0-1.4-1.2-2.6-2.6-2.6H28.6c-0.4-0.3-0.8-0.6-1.2-0.8c-3.9-2.2-8.6-1.9-12.2,0.8H9.8
			c-1.4,0-2.6,1.2-2.6,2.6v19.5H5.5V20.4c0-1.1,0.9-2,2-2l8.5,0c0,0,0.1,0,0.1,0l0.3,0c0.6,0,1-0.5,1-1.1c0-0.6-0.4-1-1-1.1l-0.2,0
			c0,0-0.1,0-0.1,0l-8.6,0c-2.3,0-4.1,1.8-4.1,4.1v21.8h-3v2.6c0,2.3,1.8,4.1,4.1,4.1h41.1c2.3,0,4.1-1.8,4.1-4.1v-2.6H46.6z
			 M40.2,22.2c0.3,0,0.5,0.2,0.5,0.5v12.2l-5.1-2.9l-0.8,1.3l-2.4-1.4c1-3.3,0.4-6.9-1.7-9.6H40.2z M40.7,37.3v4.6l-6.3-3.6l2-3.4
			L40.7,37.3z M19.7,20.2L19.7,20.2c0.7-0.2,1.5-0.3,2.3-0.3c1.5,0,3.1,0.4,4.4,1.2c3.8,2.2,5.4,6.8,3.8,10.8l-0.3,0.8l3.9,2.3
			l-0.5,0.8l-3.9-2.3l-0.6,0.7C26,37.8,20.7,38.6,17,36c-3.8-2.6-4.9-7.7-2.7-11.7C15.5,22.3,17.4,20.8,19.7,20.2z M9.3,22.7
			c0-0.3,0.2-0.5,0.5-0.5h3.4c-3.3,4.6-2.7,10.9,1.6,14.7c4.4,3.9,11,3.6,15-0.6l2.4,1.4L31.5,39l5.4,3.1h-9.2v1.1
			c0,0.3-0.2,0.5-0.5,0.5h-4.6c-0.3,0-0.5-0.2-0.5-0.5v-1.1H9.3V22.7z M47.5,44.7c0,1.1-0.9,2-2,2H4.5c-1.1,0-2-0.9-2-2v-0.5h17.9
			c0.4,0.9,1.3,1.5,2.4,1.5h4.6c1,0,1.9-0.6,2.4-1.5h17.9V44.7z"/>
	</g>
	<g>
		<path class="st2" d="M48.2,6.7L37.5,1.2l1.3,5.5l-1.2,6L48.2,6.7z M41.9,7.3L41.9,7.3C41.9,7.3,41.9,7.3,41.9,7.3
			c0.3,0,0.6-0.3,0.6-0.6s-0.3-0.6-0.6-0.6c0,0,0,0,0,0h-2l-0.6-2.6l6.2,3.2l-6.2,3.5l0.6-2.9H41.9z"/>
	</g>
	<g>
		<path class="st2" d="M20,16.8c-0.4,0-0.8-0.3-0.8-0.8v-5c0-0.4,0.3-0.8,0.8-0.8s0.8,0.3,0.8,0.8v5C20.8,16.5,20.4,16.8,20,16.8z"
			/>
	</g>
	<g>
		<path class="st2" d="M23,16.8c-0.4,0-0.8-0.3-0.8-0.8V8.4c0-1.7,1.3-3,3-3h10.9c0.4,0,0.8,0.3,0.8,0.8s-0.3,0.8-0.8,0.8H25.2
			c-0.8,0-1.5,0.7-1.5,1.5V16C23.7,16.5,23.4,16.8,23,16.8z"/>
	</g>
	<g>
		<path class="st2" d="M29.9,10.1h-3.2c-0.4,0-0.8-0.3-0.8-0.8s0.3-0.8,0.8-0.8h3.2c0.4,0,0.8,0.3,0.8,0.8S30.4,10.1,29.9,10.1z"/>
	</g>
	<g>
		<path class="st2" d="M32.7,4.3h-3.2c-0.4,0-0.8-0.3-0.8-0.8s0.3-0.8,0.8-0.8h3.2c0.4,0,0.8,0.3,0.8,0.8S33.1,4.3,32.7,4.3z"/>
	</g>
</g>
</svg>
