<?xml version="1.0" encoding="utf-8"?>
<!-- Generator: Adobe Illustrator 22.1.0, SVG Export Plug-In . SVG Version: 6.00 Build 0)  -->
<svg version="1.1" id="Layer_1" xmlns="http://www.w3.org/2000/svg" xmlns:xlink="http://www.w3.org/1999/xlink" x="0px" y="0px"
	 viewBox="0 0 50 50" style="enable-background:new 0 0 50 50;" xml:space="preserve">
<style type="text/css">
	.st0{fill:#A6C1C2;}
	.st1{fill:#B9D7D9;}
	.st2{fill:#444444;}
</style>
<g>
	<g>
		<path class="st0" d="M47.9,25c0-5.5-2-10.6-5.3-14.6L2.1,25.2c0.1,8.4,4.6,15.7,11.3,19.6l33.1-12.1C47.4,30.3,47.9,27.7,47.9,25z
			"/>
	</g>
	<g>
		<path class="st1" d="M25.1,1.7C12,1.7,1.4,12.3,1.4,25.4c0,0.1,0,0.1,0,0.2l41.9-15.2C39,5.1,32.4,1.7,25.1,1.7z"/>
	</g>
	<g>
		<g>
			<path class="st2" d="M22.1,12.3h4.2v19.2c-2.1,0.4-3.7,0.6-5.4,0.6c-5.1,0-7.7-2.3-7.7-6.7c0-4.2,2.8-7,7.2-7
				c0.7,0,1.2,0.1,1.8,0.2C22.1,18.6,22.1,12.3,22.1,12.3z M22.1,22c-0.5-0.2-0.9-0.2-1.4-0.2c-2.1,0-3.3,1.3-3.3,3.6
				c0,2.2,1.2,3.4,3.3,3.4c0.5,0,0.8,0,1.4-0.1V22z"/>
		</g>
		<g>
			<path class="st2" d="M32.9,18.7v9.6c0,3.3-0.2,4.9-1,6.3c-0.7,1.3-1.6,2.2-3.4,3.1l-3.9-1.8c1.8-0.9,2.7-1.6,3.3-2.8
				c0.6-1.2,0.8-2.6,0.8-6.2v-8.2H32.9z M28.7,12.3h4.2v4.3h-4.2V12.3z"/>
		</g>
	</g>
	<g>
		<path class="st2" d="M25,49.2C11.7,49.2,0.8,38.3,0.8,25C0.8,11.7,11.7,0.8,25,0.8c13.3,0,24.2,10.8,24.2,24.2
			c0,3.3-0.6,6.4-1.9,9.4c-0.3,0.6-1,0.9-1.6,0.7c-0.6-0.3-0.9-1-0.7-1.6c1.1-2.7,1.7-5.5,1.7-8.4c0-11.9-9.7-21.7-21.7-21.7
			S3.3,13.1,3.3,25S13.1,46.7,25,46.7c4.3,0,8.5-1.3,12.1-3.7c0.6-0.4,1.3-0.2,1.7,0.3c0.4,0.6,0.2,1.3-0.3,1.7
			C34.5,47.7,29.8,49.2,25,49.2z"/>
	</g>
	<g>
		<path class="st2" d="M25,44.8C14.1,44.8,5.2,35.9,5.2,25C5.2,14.1,14.1,5.2,25,5.2c10.9,0,19.8,8.9,19.8,19.8
			C44.8,35.9,35.9,44.8,25,44.8z M25,6C14.5,6,6,14.5,6,25s8.5,19,19,19s19-8.5,19-19S35.5,6,25,6z"/>
	</g>
</g>
</svg>
