<?xml version="1.0" encoding="utf-8"?>
<!-- Generator: Adobe Illustrator 22.1.0, SVG Export Plug-In . SVG Version: 6.00 Build 0)  -->
<svg version="1.1" id="Layer_1" xmlns="http://www.w3.org/2000/svg" xmlns:xlink="http://www.w3.org/1999/xlink" x="0px" y="0px"
	 viewBox="0 0 50 50" style="enable-background:new 0 0 50 50;" xml:space="preserve">
<style type="text/css">
	.st0{fill:#FCC34F;}
	.st1{fill:#FDCF72;}
	.st2{fill:#444444;}
</style>
<g>
	<g>
		<polygon class="st0" points="48,1.8 47.4,1.8 2,18.3 2,46.7 48,30 		"/>
	</g>
	<g>
		<polygon class="st1" points="2,1.8 2,18.3 47.4,1.8 		"/>
	</g>
	<g>
		<path class="st2" d="M36.9,49.3H0.7V0.7h48.5v30.1c0,0.7-0.6,1.2-1.2,1.2s-1.2-0.6-1.2-1.2V3.2H3.2v43.5h33.7
			c0.7,0,1.2,0.6,1.2,1.2S37.6,49.3,36.9,49.3z"/>
	</g>
	<g>
		<circle class="st2" cx="25" cy="24.8" r="6.2"/>
	</g>
	<g>
		<path class="st2" d="M19.9,20h-7.6v-7.6h7.6V20z M13.8,18.5h4.6v-4.6h-4.6V18.5z"/>
	</g>
	<g>
		<path class="st2" d="M37.7,20h-7.6v-7.6h7.6V20z M31.6,18.5h4.6v-4.6h-4.6V18.5z"/>
	</g>
	<g>
		<g>
			<path class="st2" d="M19.9,37.6h-7.6v-7.6h7.6V37.6z M13.8,36.1h4.6v-4.6h-4.6V36.1z"/>
		</g>
		<g>
			<path class="st2" d="M37.7,37.6h-7.6v-7.6h7.6V37.6z M31.6,36.1h4.6v-4.6h-4.6V36.1z"/>
		</g>
	</g>
	<g>
		<rect x="6.2" y="5.7" class="st2" width="3.5" height="3.5"/>
	</g>
	<g>
		<path class="st2" d="M44.3,9.7h-4.5V5.2h4.5V9.7z M40.8,8.7h2.5V6.2h-2.5V8.7z"/>
	</g>
	<g>
		<path class="st2" d="M10.2,44.8H5.7v-4.5h4.5V44.8z M6.7,43.8h2.5v-2.5H6.7V43.8z"/>
	</g>
	<g>
		<rect x="40.3" y="40.8" class="st2" width="3.5" height="3.5"/>
	</g>
</g>
</svg>
