<?xml version="1.0" encoding="utf-8"?>
<!-- Generator: Adobe Illustrator 27.7.0, SVG Export Plug-In . SVG Version: 6.00 Build 0)  -->
<svg version="1.1" id="Camada_3" xmlns="http://www.w3.org/2000/svg" xmlns:xlink="http://www.w3.org/1999/xlink" x="0px" y="0px"
	 viewBox="0 0 50 50" style="enable-background:new 0 0 50 50;" xml:space="preserve">
<style type="text/css">
	.st0{fill:#B68AF3;}
	.st1{fill:#E5E5E5;}
</style>
<g>
	<path class="st0" d="M45.82,41.82l-11.05,6.14c-0.49,0.27-1.05,0.41-1.6,0.41c-0.57,0-1.15-0.15-1.65-0.44L13.4,37.41
		c-1.01-0.59-1.64-1.68-1.64-2.85V16.14c0-1.15,0.62-2.24,1.61-2.83l18.5-11c1.02-0.61,2.3-0.62,3.33-0.02l14.52,8.4V6.69
		c0-3.36-2.73-6.09-6.09-6.09H6.85c-3.36,0-6.09,2.73-6.09,6.09v34.1v2.68c0,3.36,2.73,6.09,6.09,6.09l0,0h36.79l0,0
		c1.05,0,2.04-0.27,2.9-0.73c1.9-1.03,3.19-3.04,3.19-5.35v-3.82l-1.13,0.63L45.82,41.82z"/>
	<path class="st0" d="M22.45,32.7c0.15,0.29,0.41,0.5,0.73,0.58c0.31,0.07,0.65,0.01,0.91-0.19l7.96-5.88L14.55,17.12L22.45,32.7z"
		/>
	<path class="st0" d="M48.01,36.97c-0.03,0-0.06,0-0.08,0c-1.49-0.03-2.84-0.74-3.69-1.94c-0.85-1.21-1.07-2.71-0.6-4.13
		c0.62-1.87,2.4-3.15,4.4-3.11c0.59,0.01,1.15,0.13,1.67,0.34v-4.13l-0.95-0.2l-0.49,1.67c-0.12,0.46-0.51,0.79-0.99,0.85
		c-0.43,0.05-0.85,0.15-1.25,0.28c-0.46,0.16-0.96,0.02-1.26-0.34l-1.08-1.29l-1.21,0.78l0.83,1.53c0.24,0.41,0.2,0.93-0.1,1.31
		c-0.27,0.34-0.5,0.7-0.69,1.08c-0.21,0.44-0.66,0.7-1.13,0.65l-1.68-0.15l-0.3,1.4l1.67,0.49c0.46,0.12,0.79,0.51,0.85,0.99
		c0.05,0.43,0.15,0.85,0.28,1.26c0.16,0.46,0.02,0.96-0.34,1.26l-1.29,1.08l0.78,1.21l1.53-0.83c0.18-0.1,0.38-0.16,0.57-0.16
		c0.26,0,0.52,0.09,0.73,0.26c0.33,0.27,0.7,0.5,1.08,0.69c0.43,0.22,0.69,0.66,0.65,1.13l-0.03,0.3l3.81-2.11v-0.54
		C49.18,36.83,48.61,36.97,48.01,36.97z"/>
	<polygon class="st0" points="32.12,44.17 32.42,28.3 27.08,32.24 	"/>
	<path class="st0" d="M34.27,45.74l10.49-5.83l0.09-1.03c-0.5-0.29-0.93-0.56-1.33-0.87L42,38.84c-0.51,0.3-1.18,0.16-1.52-0.33
		l-0.79-1.12c-0.34-0.49-0.25-1.16,0.2-1.55l1.29-1.08c-0.15-0.55-0.26-1.05-0.32-1.55l-1.67-0.49c-0.58-0.15-0.95-0.72-0.84-1.31
		l0.23-1.35c0.1-0.59,0.64-1.01,1.23-0.95l1.68,0.15c0.28-0.5,0.56-0.93,0.87-1.33l-0.83-1.53c-0.3-0.51-0.16-1.18,0.33-1.52
		l1.12-0.79c0.49-0.35,1.16-0.26,1.55,0.2l1.08,1.29c0.56-0.15,1.05-0.26,1.55-0.32l0.49-1.67c0.15-0.57,0.72-0.95,1.31-0.84
		l0.77,0.13V18.6l-15.1,8.83L34.27,45.74z"/>
	<path class="st0" d="M48.03,28.88c-0.02,0-0.04,0-0.06,0c-1.45,0-2.83,0.98-3.29,2.36c-0.36,1.08-0.2,2.23,0.45,3.15
		c0.65,0.92,1.68,1.46,2.82,1.48c0.02,0,0.04,0,0.06,0c0.6,0,1.19-0.18,1.71-0.48v-6.04C49.21,29.06,48.64,28.89,48.03,28.88z"/>
	<path class="st0" d="M33.55,4.02c-0.2,0-0.39,0.05-0.57,0.16L15.01,14.87l18.52,10.67l16.19-9.47V13.2L34.11,4.17
		C33.94,4.07,33.75,4.02,33.55,4.02z"/>
	<polygon class="st0" points="13.94,18.34 13.94,33.2 18.99,28.29 	"/>
	<path class="st0" d="M24.75,33.96c-0.38,0.28-0.84,0.43-1.3,0.43c-0.17,0-0.34-0.02-0.51-0.06c-0.63-0.15-1.16-0.57-1.45-1.14
		l-1.97-3.88l-5.55,5.39c0.04,0.34,0.23,0.65,0.53,0.82l16.94,9.83l-5.26-12.45L24.75,33.96z"/>
	<path class="st1" d="M18.99,28.29l-5.05,4.91v1.37c0,0.05,0.01,0.09,0.02,0.14l5.55-5.39L18.99,28.29z"/>
	<path class="st1" d="M43.65,30.9c-0.47,1.42-0.26,2.92,0.6,4.13c0.85,1.21,2.2,1.91,3.69,1.94c0.03,0,0.06,0,0.08,0
		c0.6,0,1.17-0.13,1.71-0.35V35.4c-0.52,0.3-1.1,0.48-1.71,0.48c-0.02,0-0.04,0-0.06,0c-1.14-0.02-2.17-0.56-2.82-1.48
		c-0.65-0.92-0.81-2.07-0.45-3.15c0.46-1.38,1.83-2.36,3.29-2.36c0.02,0,0.04,0,0.06,0c0.61,0.01,1.19,0.18,1.69,0.47v-1.22
		c-0.52-0.21-1.08-0.33-1.67-0.34C46.04,27.74,44.27,29.03,43.65,30.9z"/>
	<path class="st1" d="M45.94,38.97c0.04-0.47-0.22-0.92-0.65-1.13c-0.39-0.19-0.75-0.42-1.08-0.69c-0.22-0.17-0.48-0.26-0.73-0.26
		c-0.2,0-0.4,0.05-0.57,0.16l-1.53,0.83l-0.78-1.21l1.29-1.08c0.36-0.31,0.5-0.8,0.34-1.26c-0.14-0.41-0.23-0.83-0.28-1.26
		c-0.06-0.48-0.39-0.87-0.85-0.99l-1.67-0.49l0.3-1.4l1.68,0.15c0.47,0.05,0.92-0.21,1.13-0.65c0.19-0.38,0.42-0.75,0.69-1.08
		c0.31-0.38,0.35-0.9,0.1-1.31l-0.83-1.53l1.21-0.78l1.08,1.29c0.3,0.36,0.8,0.5,1.26,0.34c0.41-0.14,0.83-0.23,1.25-0.28
		c0.48-0.06,0.87-0.39,0.99-0.85l0.49-1.67l0.95,0.2v-0.43v-0.71l-0.77-0.13c-0.59-0.1-1.16,0.27-1.31,0.84l-0.49,1.67
		c-0.5,0.06-1,0.17-1.55,0.32l-1.08-1.29c-0.39-0.46-1.05-0.55-1.55-0.2l-1.12,0.79c-0.49,0.34-0.63,1.01-0.33,1.52l0.83,1.53
		c-0.32,0.4-0.59,0.83-0.87,1.33L39.8,29.1c-0.59-0.05-1.13,0.36-1.23,0.95l-0.23,1.35c-0.1,0.59,0.26,1.16,0.84,1.31l1.67,0.49
		c0.06,0.5,0.17,1,0.32,1.55l-1.29,1.08c-0.45,0.38-0.54,1.06-0.2,1.55l0.79,1.12c0.34,0.49,1.01,0.63,1.52,0.33l1.53-0.83
		c0.39,0.31,0.82,0.59,1.33,0.87l-0.09,1.03l1.15-0.64L45.94,38.97z"/>
	<path class="st1" d="M48.81,39.51l-0.23,0.77l1.13-0.63v-0.31C49.41,39.41,49.11,39.47,48.81,39.51z"/>
	<path class="st1" d="M45.79,40.65l1.4,0.3l0.49-1.67c0.12-0.46,0.51-0.79,0.99-0.85c0.35-0.04,0.7-0.12,1.04-0.22v-1.05l-3.81,2.11
		L45.79,40.65z"/>
	<path class="st1" d="M31.87,2.3l-18.5,11c-0.99,0.59-1.61,1.68-1.61,2.83v18.43c0,1.17,0.63,2.26,1.64,2.85l18.11,10.52
		c0.51,0.3,1.08,0.44,1.65,0.44c0.55,0,1.1-0.14,1.6-0.41l11.05-6.14l-0.16-0.03c-0.59-0.1-1-0.64-0.95-1.24l0.06-0.65l-10.49,5.83
		l0.35-18.31l15.1-8.83v-2.53l-16.19,9.47L15.01,14.87L32.99,4.18c0.17-0.1,0.37-0.16,0.57-0.16c0.19,0,0.38,0.05,0.56,0.15
		l15.61,9.03v-2.52L35.2,2.28C34.17,1.69,32.89,1.69,31.87,2.3z M14.5,35.52c-0.3-0.17-0.49-0.48-0.53-0.82l-0.89,0.87l-0.76-0.78
		l1.64-1.59V18.34l5.05,9.94l0.29-0.28l0.76,0.78l-0.53,0.52l1.97,3.88c0.29,0.58,0.82,0.99,1.45,1.14
		c0.17,0.04,0.34,0.06,0.51,0.06c0.46,0,0.92-0.15,1.3-0.43l1.43-1.05l5.26,12.45L14.5,35.52z M32.12,44.17l-5.04-11.92l5.34-3.94
		L32.12,44.17z M32.06,27.21l-7.96,5.88c-0.26,0.19-0.6,0.26-0.91,0.19c-0.32-0.08-0.58-0.29-0.73-0.58l-7.91-15.58L32.06,27.21z"/>
	<path class="st1" d="M13.94,33.2l-1.64,1.59l0.76,0.78l0.89-0.87c-0.01-0.05-0.02-0.09-0.02-0.14V33.2z"/>
	<polygon class="st1" points="20.04,28.79 19.28,28.01 18.99,28.29 19.51,29.31 	"/>
	<path class="st1" d="M47.69,39.28l-0.49,1.67l-1.4-0.3l0.12-1.38l-1.15,0.64l-0.06,0.65c-0.05,0.59,0.37,1.14,0.95,1.24l0.16,0.03
		l2.77-1.54l0.23-0.77c0.3-0.04,0.6-0.09,0.91-0.17V38.2c-0.34,0.1-0.69,0.18-1.04,0.22C48.2,38.48,47.81,38.82,47.69,39.28z"/>
</g>
</svg>
