<?xml version="1.0" encoding="utf-8"?>
<!-- Generator: Adobe Illustrator 24.3.0, SVG Export Plug-In . SVG Version: 6.00 Build 0)  -->
<svg version="1.1" id="Layer_1" xmlns="http://www.w3.org/2000/svg" xmlns:xlink="http://www.w3.org/1999/xlink" x="0px" y="0px"
	 viewBox="0 0 48 47" style="enable-background:new 0 0 48 47;" xml:space="preserve">
<style type="text/css">
	.st0{fill-rule:evenodd;clip-rule:evenodd;fill:#00C8E2;}
	.st1{fill-rule:evenodd;clip-rule:evenodd;fill:#00DFFC;}
	.st2{fill:none;stroke:#444444;stroke-width:2.5;stroke-linecap:round;stroke-linejoin:round;}
	.st3{fill-rule:evenodd;clip-rule:evenodd;fill:#444444;}
</style>
<g id="Page-1">
	<g id="Group-12" transform="translate(1.000000, 0.000000)">
		<polygon id="Fill-1" class="st0" points="44.7,24.7 45.1,28.8 0.9,44.9 1,36.2 1.3,31.2 45.4,15.2 44.7,18.8 		"/>
		<polygon id="Fill-2" class="st1" points="44.7,8.8 44.2,16.2 1,31.9 1,22.6 1.3,18.3 44.8,2.5 		"/>
		<g id="Group-11" transform="translate(0.000000, 0.900500)">
			<polyline id="Stroke-3" class="st2" points="30.6,44.8 0.6,44.8 0.6,0.3 45.3,0.3 45.3,34.8 			"/>
			<path id="Fill-5" class="st3" d="M20.1,28.2C20,28.1,19.8,28,19.6,28c-0.2,0-0.3,0.1-0.5,0.2C19,28.3,19,28.5,19,28.7
				c0,0.2,0.1,0.3,0.2,0.5c0.1,0.1,0.3,0.2,0.5,0.2c0.2,0,0.3-0.1,0.5-0.2s0.2-0.3,0.2-0.5C20.3,28.5,20.2,28.3,20.1,28.2"/>
			<path id="Fill-7" class="st3" d="M29,19.3c-0.1-0.1-0.3-0.2-0.5-0.2s-0.3,0.1-0.5,0.2c-0.1,0.1-0.2,0.3-0.2,0.5
				c0,0.2,0.1,0.3,0.2,0.5c0.1,0.1,0.3,0.2,0.5,0.2c0.2,0,0.3-0.1,0.5-0.2c0.1-0.1,0.2-0.3,0.2-0.5C29.2,19.6,29.1,19.4,29,19.3"/>
			<path id="Fill-9" class="st3" d="M38.2,31.2c-0.5,0-0.9-0.4-0.9-0.9c0-0.5,0.4-0.9,0.9-0.9c0.5,0,0.9,0.4,0.9,0.9
				C39.1,30.8,38.7,31.2,38.2,31.2L38.2,31.2z M30.5,26.3l-6.3,3.5v-6.9l2.2-1.2c0.3-0.2,0.4-0.6,0.3-0.9c-0.2-0.3-0.6-0.4-0.9-0.3
				l-2.2,1.2l-6.2-3.5l6.2-3.5l6.9,3.8V26.3z M24.5,37.1c0,0.5-0.4,0.9-0.9,0.9c-0.5,0-0.9-0.4-0.9-0.9c0-0.5,0.4-0.9,0.9-0.9
				C24.1,36.2,24.5,36.6,24.5,37.1L24.5,37.1z M22.7,7.8c0-0.5,0.4-0.9,0.9-0.9c0.5,0,0.9,0.4,0.9,0.9c0,0.5-0.4,0.9-0.9,0.9
				C23.1,8.8,22.7,8.3,22.7,7.8L22.7,7.8z M9,31.2c-0.5,0-0.9-0.4-0.9-0.9c0-0.5,0.4-0.9,0.9-0.9c0.5,0,0.9,0.4,0.9,0.9
				C9.9,30.8,9.5,31.2,9,31.2L9,31.2z M9,15.6c-0.5,0-0.9-0.4-0.9-0.9c0-0.5,0.4-0.9,0.9-0.9c0.5,0,0.9,0.4,0.9,0.9
				C9.9,15.1,9.5,15.6,9,15.6L9,15.6z M38.2,13.7c0.5,0,0.9,0.4,0.9,0.9c0,0.5-0.4,0.9-0.9,0.9c-0.5,0-0.9-0.4-0.9-0.9
				C37.3,14.1,37.7,13.7,38.2,13.7L38.2,13.7z M38.2,28c-1,0-1.9,0.7-2.1,1.6h-1l-3.2-3.2v-7.9l3.2-3.2h1c0.3,0.9,1.1,1.6,2.1,1.6
				c1.2,0,2.2-1,2.2-2.2c0-1.2-1-2.2-2.2-2.2c-1,0-1.9,0.7-2.1,1.6h-1.3c-0.2,0-0.3,0.1-0.5,0.2l-3.3,3.3l-6.8-3.8V10
				c0.9-0.3,1.6-1.1,1.6-2.1c0-1.2-1-2.2-2.2-2.2c-1.2,0-2.2,1-2.2,2.2c0,1,0.7,1.9,1.6,2.1v3.7l-6.8,3.8l-3.3-3.3
				C12.7,14,12.5,14,12.4,14h-1.3c-0.3-0.9-1.1-1.6-2.1-1.6c-1.2,0-2.2,1-2.2,2.2c0,1.2,1,2.2,2.2,2.2c1,0,1.9-0.7,2.1-1.6h1
				l3.2,3.2v7.9l-3.2,3.2h-1C10.8,28.7,10,28,9,28c-1.2,0-2.2,1-2.2,2.2c0,1.2,1,2.2,2.2,2.2c1,0,1.9-0.7,2.1-1.6h1.3
				c0.2,0,0.3-0.1,0.5-0.2l3.3-3.3l0.8,0.5c0.3,0.2,0.7,0.1,0.9-0.3c0.2-0.3,0.1-0.7-0.3-0.9l-0.9-0.5v-6.9l6.3,3.5v6.9l-0.8-0.5
				c-0.3-0.2-0.7-0.1-0.9,0.3c-0.2,0.3-0.1,0.7,0.3,0.9l1.5,0.8v3.7c-0.9,0.3-1.6,1.1-1.6,2.1c0,1.2,1,2.2,2.2,2.2
				c1.2,0,2.2-1,2.2-2.2c0-1-0.7-1.9-1.6-2.1v-3.7l6.8-3.8l3.3,3.3c0.1,0.1,0.3,0.2,0.5,0.2h1.3c0.3,0.9,1.1,1.6,2.1,1.6
				c1.2,0,2.2-1,2.2-2.2C40.4,29,39.4,28,38.2,28L38.2,28z"/>
		</g>
	</g>
</g>
</svg>
