<svg xmlns="http://www.w3.org/2000/svg" id="Layer_1" x="0" y="0" version="1.1" viewBox="0 0 300 300" xml:space="preserve"><style>.st1{fill:#607d8b}.st3{fill:#90a4ae}.st6{fill:#78909c}.st13{fill:#eceff1}.st16{fill:#efc100}</style><circle cx="150" cy="150" r="149.3" fill="#008dd3"/><path d="M283.5 240.1v24.2c-.5 3.1-4.6 5.3-12.9 5.3H115.4c-8.4 0-12.4-2.2-12.9-5.3v-24.2c.4 2.2 2.5 3.9 6.8 4.7 1.7.3 3.7.5 6.1.5h155.2c2.4 0 4.4-.2 6.1-.5 4.3-.8 6.5-2.5 6.8-4.7z" class="st1"/><path fill="#546e7a" d="M276.8 244.8v24.3c4.2-.8 6.4-2.6 6.8-4.7v-24.2c-.4 2.1-2.6 3.8-6.8 4.6z"/><path d="M270.6 245.4H115.4c-10.8 0-14.4-3.6-12.5-8.1 8.6-21.6 15.6-43.1 24.3-64.7 1.9-4.5 7.1-8.1 14.1-8.1h103.5c7.1 0 12.3 3.6 14.1 8.1 8.6 21.6 15.6 43.1 24.3 64.7 1.8 4.4-1.8 8.1-12.6 8.1z" class="st3"/><path fill="#cfd8dc" d="M116.7 241.3c-5.3 0-8.9-1.8-8.1-4 7.8-21.6 15.5-43.1 23.3-64.7.8-2.2 4.4-4 8.1-4h106.1c3.6 0 7.3 1.8 8.1 4 7.8 21.6 15.5 43.1 23.3 64.7.8 2.2-2.8 4-8.1 4H116.7z"/><path fill="#b0bec5" d="M219.3 196.9c1.1 7.3-10.6 13.1-26.3 13.1-15.6 0-27.4-5.9-26.3-13.1 1.1-7.3 12.9-13.1 26.3-13.1 13.4-.1 25.2 5.8 26.3 13.1z"/><path d="M219.3 196.9c-.6-3.8-4.2-7.3-9.4-9.7 0 .1.1.3.1.4 1.1 7.3-10.6 13.1-26.3 13.1-6.6 0-12.5-1-17-2.8.1 6.8 11.4 12.1 26.3 12.1 15.6 0 27.4-5.9 26.3-13.1z" class="st3"/><path d="M211.2 196.9c.5 5-7.6 9.1-18.2 9.1s-18.7-4.1-18.2-9.1 8.7-9.1 18.2-9.1 17.7 4 18.2 9.1z" class="st1"/><path d="M163.8 227.2c-.6 5-10.5 9.1-22.2 9.1s-19.8-4.1-18.2-9.1c1.6-5 11.6-9.1 22.2-9.1 10.7 0 18.8 4 18.2 9.1z" class="st6"/><path fill="#00b72d" d="M157.1 222v5.1c-.5 3.3-7.1 6.1-14.8 6.1-7.1 0-12.2-2.3-12.2-5.3v-4.8c0 .8.4 1.6 1.2 2.2 1.9 1.8 6 3 11.1 3 6.1 0 11.5-1.7 13.7-4 .6-.6 1-1.3 1.1-2-.1-.1-.1-.2-.1-.3z"/><path fill="#00c649" d="M157.1 222.3c-.5 3.3-7.1 6.1-14.8 6.1s-13.1-2.7-12.1-6.1c1-3.3 7.6-6.1 14.8-6.1 7.2.1 12.6 2.8 12.1 6.1z"/><path fill="#75d394" d="M155 220.8c-1.3-1.5-4.8-2.9-10.1-2.9-6.8 0-12.6 2.6-13.2 4.9-.1.3-.1.6.2 1.1 0 .1.1.1.1.2 1.1 1.2 2.9 1.3 4.2.3 2.2-1.7 6.8-3.2 11.9-3.2 2.4 0 4.5.3 6.1.8.8.1 1.3-.7.8-1.2z"/><path d="M222.1 227.2c.6 5 10.5 9.1 22.2 9.1s19.8-4.1 18.2-9.1-11.6-9.1-22.2-9.1-18.8 4-18.2 9.1z" class="st6"/><path fill="#dc4437" d="M228.8 222v5.1c.5 3.3 7.1 6.1 14.8 6.1 7.1 0 12.2-2.3 12.2-5.3v-4.8c0 .8-.4 1.6-1.2 2.2-1.9 1.8-6 3-11.1 3-6.1 0-11.5-1.7-13.7-4-.6-.6-1-1.3-1.1-2 .1-.1.1-.2.1-.3z"/><path fill="#e5554e" d="M228.8 222.3c.5 3.3 7.1 6.1 14.8 6.1s13.1-2.7 12.1-6.1c-1-3.3-7.6-6.1-14.8-6.1-7.1.1-12.6 2.8-12.1 6.1z"/><path fill="#ea7771" d="M254 222.1c-1.1-1.6-4.5-3.4-9.7-4-6.7-.8-12.8 1.2-13.7 3.4-.1.3-.2.6.1 1.1 0 .1.1.1.1.2.9 1.3 2.8 1.6 4.2.7 2.4-1.5 7.1-2.4 12.2-1.8 2.4.3 4.4.8 6 1.5.6.2 1.2-.5.8-1.1z"/><path d="M203.1 117.2v79.9c-.1 2.7-4.5 4.8-10.1 4.8s-10-2.1-10.1-4.8v-79.9h20.2z" class="st13"/><path fill="#d9dfe2" d="M194 117.2v84.7c6.3-.4 8.9-2.8 9.1-4.8v-79.9H194z"/><path d="M176.3 173.1c-.3-.8-1-1.3-1.9-1.3h-31.2c-4.9 0-7 1-8.1 4-1 2.8-2 5.6-3 8.5-.6 1.7.6 3.5 2.4 3.5 1.1 0 2.1-.7 2.4-1.7.7-2.1 1.5-4.1 2.2-6.2 1.4-4.1 4.4-4 8.1-4h27.2c1.5-.1 2.4-1.4 1.9-2.8z" class="st13"/><circle cx="193.8" cy="88.3" r="41.7" fill="#dbe1ed"/><path d="M203.7 96l5-15.2c.2-.6 0-1.2-.5-1.5l-13-9.4c-.5-.3-1.1-.3-1.6 0l-13 9.4c-.5.3-.7 1-.5 1.5l5 15.2c.2.6.7.9 1.3.9h16c.6 0 1.1-.3 1.3-.9zM179 127c2.5-.5 6.7-4 6.7-4-4.5-2.2-9.1-11.9-9.1-11.9-6.9.3-13.6-3.7-13.6-3.7s-.4 7.2.1 8.8c.1.2.2.4.3.7 3.6 4 7.9 7.3 12.8 9.6 1.1.4 2.1.7 2.8.5zm-22.4-38.1c1.2-6 8.3-13.2 8.3-13.2-2.3-5.3-.5-13.3-.5-13.3s-4.6 1.4-8.5 7.7c-1.9 4.2-3.2 8.7-3.6 13.5.9 4.2 4.3 5.3 4.3 5.3zm74.3-.1s6.6-2.4 2.6-13.5c-4-11.1-11.1-13.2-11.1-13.2s1.8 8-.5 13.3c.2.1 7.8 7.4 9 13.4zm-50.5-37c6.5-1.1 14.1 3.1 14.1 3.1 4.1-3.9 12.3-4.2 12.3-4.2s.8-4.3-12-4.4c-2.9 0-5.7.3-8.5.9-6.2 1.7-5.9 4.6-5.9 4.6zm45.4 63.5c0-.1 0-.1.1-.2.6-1.7-.4-9.2-.4-9.2s-6.1 4.3-13 4c0 0-4.7 9.7-9.1 11.9 0 0 4.2 3.5 6.7 4 .6.1 1.3 0 2.1-.2 5.2-2.4 9.9-6 13.6-10.3z" class="st16"/><path d="M172.1 67.9h2.8v20.7h-2.8z" class="st16" transform="rotate(-78.486 173.522 78.29)"/><path d="M193 51.8h2.8v21H193z" class="st16" transform="rotate(-1.025 194.37 62.326) scale(.99996)"/><path d="M205.1 75.9h20.6v2.8h-20.6z" class="st16" transform="rotate(-14.798 215.415 77.35)"/><path d="M207.2 92.1h2.8v23.8h-2.8z" class="st16" transform="rotate(-31.431 208.647 104.03)"/><path d="M170.7 101.7h22.2v2.8h-22.2z" class="st16" transform="rotate(-59.542 181.787 103.098)"/><path fill="#756c6e" d="M193.9 46.5V130c23-.1 41.6-18.7 41.6-41.7s-18.6-41.7-41.6-41.8z" opacity=".1"/></svg>