<svg xmlns="http://www.w3.org/2000/svg" id="Layer_1" x="0" y="0" version="1.1" viewBox="0 0 300 300" xml:space="preserve"><style>.st1{fill:#607d8b}.st3{fill:#90a4ae}.st6{fill:#78909c}.st13{fill:#eceff1}</style><circle cx="150" cy="150" r="149.3" fill="#008dd3"/><path d="M283.5 240.1v24.2c-.5 3.1-4.6 5.3-12.9 5.3H115.4c-8.4 0-12.4-2.2-12.9-5.3v-24.2c.4 2.2 2.5 3.9 6.8 4.7 1.7.3 3.7.5 6.1.5h155.2c2.4 0 4.4-.2 6.1-.5 4.3-.8 6.5-2.5 6.8-4.7z" class="st1"/><path fill="#546e7a" d="M276.8 244.8v24.3c4.2-.8 6.4-2.6 6.8-4.7v-24.2c-.4 2.1-2.6 3.8-6.8 4.6z"/><path d="M270.6 245.4H115.4c-10.8 0-14.4-3.6-12.5-8.1 8.6-21.6 15.6-43.1 24.3-64.7 1.9-4.5 7.1-8.1 14.1-8.1h103.5c7.1 0 12.3 3.6 14.1 8.1 8.6 21.6 15.6 43.1 24.3 64.7 1.8 4.4-1.8 8.1-12.6 8.1z" class="st3"/><path fill="#cfd8dc" d="M116.7 241.3c-5.3 0-8.9-1.8-8.1-4 7.8-21.6 15.5-43.1 23.3-64.7.8-2.2 4.4-4 8.1-4h106.1c3.6 0 7.3 1.8 8.1 4 7.8 21.6 15.5 43.1 23.3 64.7.8 2.2-2.8 4-8.1 4H116.7z"/><path fill="#b0bec5" d="M219.3 196.9c1.1 7.3-10.6 13.1-26.3 13.1-15.6 0-27.4-5.9-26.3-13.1 1.1-7.3 12.9-13.1 26.3-13.1 13.4-.1 25.2 5.8 26.3 13.1z"/><path d="M219.3 196.9c-.6-3.8-4.2-7.3-9.4-9.7 0 .1.1.3.1.4 1.1 7.3-10.6 13.1-26.3 13.1-6.6 0-12.5-1-17-2.8.1 6.8 11.4 12.1 26.3 12.1 15.6 0 27.4-5.9 26.3-13.1z" class="st3"/><path d="M211.2 196.9c.5 5-7.6 9.1-18.2 9.1s-18.7-4.1-18.2-9.1 8.7-9.1 18.2-9.1 17.7 4 18.2 9.1z" class="st1"/><path d="M163.8 227.2c-.6 5-10.5 9.1-22.2 9.1s-19.8-4.1-18.2-9.1c1.6-5 11.6-9.1 22.2-9.1 10.7 0 18.8 4 18.2 9.1z" class="st6"/><path fill="#00b72d" d="M157.1 222v5.1c-.5 3.3-7.1 6.1-14.8 6.1-7.1 0-12.2-2.3-12.2-5.3v-4.8c0 .8.4 1.6 1.2 2.2 1.9 1.8 6 3 11.1 3 6.1 0 11.5-1.7 13.7-4 .6-.6 1-1.3 1.1-2-.1-.1-.1-.2-.1-.3z"/><path fill="#00c649" d="M157.1 222.3c-.5 3.3-7.1 6.1-14.8 6.1-7.7 0-13.1-2.7-12.1-6.1 1-3.3 7.6-6.1 14.8-6.1 7.2.1 12.6 2.8 12.1 6.1z"/><path fill="#75d394" d="M155 220.8c-1.3-1.5-4.8-2.9-10.1-2.9-6.8 0-12.6 2.6-13.2 4.9-.1.3-.1.6.2 1.1 0 .1.1.1.1.2 1.1 1.2 2.9 1.3 4.2.3 2.2-1.7 6.8-3.2 11.9-3.2 2.4 0 4.5.3 6.1.8.8.1 1.3-.7.8-1.2z"/><path d="M222.1 227.2c.6 5 10.5 9.1 22.2 9.1s19.8-4.1 18.2-9.1c-1.6-5-11.6-9.1-22.2-9.1s-18.8 4-18.2 9.1z" class="st6"/><path fill="#dc4437" d="M228.8 222v5.1c.5 3.3 7.1 6.1 14.8 6.1 7.1 0 12.2-2.3 12.2-5.3v-4.8c0 .8-.4 1.6-1.2 2.2-1.9 1.8-6 3-11.1 3-6.1 0-11.5-1.7-13.7-4-.6-.6-1-1.3-1.1-2 .1-.1.1-.2.1-.3z"/><path fill="#e5554e" d="M228.8 222.3c.5 3.3 7.1 6.1 14.8 6.1 7.7 0 13.1-2.7 12.1-6.1-1-3.3-7.6-6.1-14.8-6.1-7.1.1-12.6 2.8-12.1 6.1z"/><path fill="#ea7771" d="M254 222.1c-1.1-1.6-4.5-3.4-9.7-4-6.7-.8-12.8 1.2-13.7 3.4-.1.3-.2.6.1 1.1 0 .1.1.1.1.2.9 1.3 2.8 1.6 4.2.7 2.4-1.5 7.1-2.4 12.2-1.8 2.4.3 4.4.8 6 1.5.6.2 1.2-.5.8-1.1z"/><path d="M203.1 117.2v79.9c-.1 2.7-4.5 4.8-10.1 4.8s-10-2.1-10.1-4.8v-79.9h20.2z" class="st13"/><path fill="#d9dfe2" d="M197 117.2v84.3c3.5-.7 6-2.4 6.1-4.4v-79.9H197z"/><path d="M176.3 173.1c-.3-.8-1-1.3-1.9-1.3h-31.2c-4.9 0-7 1-8.1 4-1 2.8-2 5.6-3 8.5-.6 1.7.6 3.5 2.4 3.5 1.1 0 2.1-.7 2.4-1.7.7-2.1 1.5-4.1 2.2-6.2 1.4-4.1 4.4-4 8.1-4h27.2c1.5-.1 2.4-1.4 1.9-2.8z" class="st13"/><g fill-rule="evenodd" clip-rule="evenodd"><path fill="#e8e8e8" d="M172.7 52.9c19.3-12 44.6-6.1 56.7 13.1 12 19.3 6.1 44.6-13.1 56.7-19.3 12-44.6 6.1-56.7-13.1-12.1-19.3-6.2-44.7 13.1-56.7z"/><path fill="#f0f1f2" d="M173.8 123.3c-5.5-3.2-10.4-7.9-14-13.7-10.3-16.6-7.4-37.7 5.9-50.9 16.1-8.8 36.5-3.6 46.4 12.2 10.2 16.4 5.2 38-11.2 48.2-8.4 5.2-18.2 6.4-27.1 4.2z"/><path fill="#42e561" d="M172.9 52.9c-3.7 2.3-7 5.2-9.7 8.4l.6.5 7.3 6.1 8-5 8.1-5-2.3-9.2-.2-.7c-4.1.9-8.1 2.6-11.8 4.9zm26.8 75.7l-.3-1.1-2.3-9.2-9.5-.7-9.5-.7-2.9 7.2c7.6 4 16.1 5.6 24.5 4.5zm-38.2-27.4l8-5-2.3-9.2-2.3-9.2-9.5-.7h-.6c-2.4 8.8-1.8 18.3 1.9 27l4.8-2.9zM185.3 76l9.4.7 9.5.7 2.3 9.2 2.2 9.2-8 5-8 5-7.3-6.1-7.3-6.1 3.6-8.8z"/></g><path fill="#3ece56" fill-rule="evenodd" d="M202.5 47.5l-.2.5-3.6 8.8 7.3 6.1 7.3 6.1 8-5 4.6-2.9c-6.2-7.2-14.5-11.9-23.4-13.6zm33.3 39l-7.7-.6-3.6 8.8-3.6 8.8 7.3 6.1.9.8c4.6-7.1 6.9-15.5 6.7-23.9z" clip-rule="evenodd"/></svg>