<svg xmlns="http://www.w3.org/2000/svg" id="Camada_1" version="1.1" viewBox="0 0 300 300"><defs><style>.st3{fill-rule:evenodd;fill:#ffbe00}</style></defs><path id="Camada_10" fill="#008dd3" d="M274.4 150.4c.1 19.8-4.1 38.6-11.6 55.7-21.1 47.6-68.6 80.8-124 81-14.7.1-28.9-2.3-42.2-6.5-25-8-46.8-23-63.1-42.8-17-20.4-28.1-46-30.8-74-.4-4-.6-8.2-.6-12.3C1.9 105.3 24.8 64.3 60 39.6c4.6-3.3 9.4-6.2 14.4-8.8 7-3.8 14.4-6.8 22-9.4 7.2-2.3 14.7-4 22.4-5.2 6.2-.8 12.5-1.3 18.9-1.4 25-.1 48.5 6.6 68.8 18.3 3.7 2.1 7.1 4.3 10.5 6.8 16.2 11.5 29.8 26.5 39.7 43.9 1.1 2 2.2 3.9 3.2 6 .8 1.8 1.7 3.5 2.5 5.3 2.6 5.8 4.8 11.7 6.6 17.8 2 6.8 3.5 13.9 4.3 21 .7 5.4 1.1 10.9 1.1 16.5z"/><g id="computer"><path fill="#4d5152" d="M296 207.7H53.3v-139c0-11 9-20 20-20H276c11 0 20 9 20 20v139.1h-.1z"/><path fill="#eaeaea" d="M283.1 235.9h-217c-7.1 0-12.9-5.7-12.9-12.9v-15.3H296V223c0 7.2-5.7 12.9-12.9 12.9zM153.5 265c-2.9 0-5-2.7-4.3-5.4 1.5-6.3 4.2-16.9 6.3-23l.2-.5h37.5l.3.8c2.7 7.4 4.8 14.9 6.4 22.6.6 2.8-1.5 5.3-4.3 5.3l-42.2.2z"/><path fill="#828d8e" d="M192.2 250.5c3 0 5.1-2.9 4.2-5.6-.8-2.7-1.7-5.3-2.7-8l-.3-.8h-37.5l-.2.5c-1 2.8-1.8 5.5-2.7 8.4-.8 2.8 1.3 5.6 4.2 5.6h35z"/></g><path d="M65.3 207.8V72.3c0-7.6 6.2-13.9 14-13.9h189.6c7.6 0 13.9 6.2 13.9 13.9v135.5" class="st3"/><path fill="#f4f4f4" fill-rule="evenodd" d="M95.7 69.5h156.5c0 9.9 8.1 17.9 18 17.9v86.3c-9.9 0-18 8-18 17.9H95.7c0-9.9-8.1-17.9-18-17.9V87.4c9.9 0 18-8 18-17.9z"/><path fill="#ccc" fill-rule="evenodd" d="M129.8 84.5h88.4c2.1 0 3.9 1.8 3.9 4v3.1c0 2.1-1.8 3.9-3.9 3.9h-88.4c-2.1 0-3.9-1.8-3.9-3.9v-3.1c0-2.2 1.8-4 3.9-4zM103 115.3h141.9c1.5 0 2.6 1.2 2.6 2.6 0 1.4-1.2 2.5-2.6 2.5H103c-1.5 0-2.6-1.2-2.6-2.5 0-1.5 1.2-2.6 2.6-2.6zm0 11h141.9c1.5 0 2.6 1.2 2.6 2.5 0 1.5-1.2 2.6-2.6 2.6H103c-1.5 0-2.6-1.2-2.6-2.6 0-1.4 1.2-2.5 2.6-2.5zm0 10.9h141.9c1.5 0 2.6 1.2 2.6 2.6 0 1.5-1.2 2.6-2.6 2.6H103c-1.5 0-2.6-1.2-2.6-2.6 0-1.5 1.2-2.6 2.6-2.6zm0 11.1h141.9c1.5 0 2.6 1.2 2.6 2.6 0 1.4-1.2 2.5-2.6 2.5H103c-1.5 0-2.6-1.2-2.6-2.5 0-1.5 1.2-2.6 2.6-2.6zm0 11h141.9c1.5 0 2.6 1.2 2.6 2.5 0 1.5-1.2 2.6-2.6 2.6H103c-1.5 0-2.6-1.2-2.6-2.6 0-1.4 1.2-2.5 2.6-2.5z"/><path fill="#ef5555" d="M284 115.9v30c0 .4 0 .7-.4 1l-60.5 60.5c-.3.3-.7.4-1.1.4h-29.9c-.8 0-1.4-.6-1.4-1.4s0-.7.4-1l90.5-90.5c.5-.5 1.4-.5 2 0 .3.3.4.7.4 1z"/><path fill="#d1990a" fill-rule="evenodd" d="M227.5 164.4c10.6 0 19.2 8.6 19.2 19.2s-8.6 19.1-19.2 19.1-19.1-8.6-19.1-19.1 8.6-19.2 19.1-19.2z"/><path d="M238.4 172.8c-6-6-15.6-6-21.6 0-6 6-6 15.6 0 21.6 6 6 15.6 6 21.6 0 6-6 6-15.6 0-21.6z" class="st3"/><path d="M227.5 183.6l-10.7 10.7c6 6 15.6 6 21.6 0 6-6 6-15.6 0-21.6l-10.8 10.8z" class="st3"/><path fill="#ffd473" fill-rule="evenodd" d="M227.5 171.1c6.9 0 12.5 5.6 12.5 12.5s-5.6 12.4-12.5 12.4-12.4-5.6-12.4-12.4 5.6-12.5 12.4-12.5z"/><path fill="#fff" style="isolation:isolate" d="M244.5 74.3s28-3.1 28.5 22.4v35.4s0 6.4-5.1 6.2c-2.1-.1-6.3 0-6.9-6.2-.6-8.3 0-25.6-11.4-35.4-10.3-8.9-26.1-9.5-35.2-11.5-11.2-2.5-11.2-11.5-.6-11.2 10.2.2 30.6.3 30.6.3zm30 74s-4.5-10.6-11.4-1.5 0 14 0 14 8.7 6.5 11.4 0c2.7-6.6 0-12.5 0-12.5z" opacity=".2"/><path fill="#ddd" stroke="#515759" stroke-miterlimit="10" stroke-width="4" d="M60.8 111.1c-.4 7.7-4.6 14.5-4.6 14.5l-20.1-13c-.3-.2-.8-.3-1.1-.2h0c-.4.1-.7.3-.9.6l-6.2 10c-.2.4-.2.7 0 1.2h0c0 .3.3.6.6.7l20.4 12.5s-4.9 6.4-11.9 9.7c-5.9 2.7 37.5 7.9 50.3 9.3 1.5.2 2.6-1.4 1.8-2.7-6.4-11.4-27.9-49.2-28.3-42.7z"/><path style="isolation:isolate" fill="#fff" d="M64.7 134.4c3.4 3.2 8.6 9 11.1 11.4 3.2 3 5.5 4.9 7 5.7.7.3 1.2-.5.8-1.1-.9-1.7-2.8-5.2-7.2-12.2-1.6-3-11.3-19.1-12.5-20.3-1.9-3.7-1.3 6.6-4.3 10.7h-.1" opacity=".4"/><path style="isolation:isolate" fill="#fff" d="M65.4 129.9c1.8 1.9 4.4 5.4 5.9 6.9 1.7 1.8 2.8 3 3.6 3.5.4.2.5-.2.3-.7-.5-.9-1.6-3-4-7.2-.9-1.8-6.2-11.3-6.8-12.1-1.1-2.2-.3 3.6-1.7 6" opacity=".6"/></svg>