<svg xmlns="http://www.w3.org/2000/svg" id="Layer_1" x="0" y="0" version="1.1" viewBox="0 0 50 50" xml:space="preserve"><style>.st3{stroke-width:1.5}.st3,.st4{fill:none;stroke:#444;stroke-linecap:round;stroke-miterlimit:10}</style><path fill="#46b8b0" d="M2 21v24.1c0 1.2 1 2.1 2.1 2.1h9.8l34.6-12.6V4.9c0-.3-.1-.6-.2-.8L2 21z"/><path fill="#4ecdc4" d="M46.3 2.8H4.1C2.9 2.8 2 3.8 2 4.9V21L48.3 4.1c-.3-.7-1.1-1.3-2-1.3z"/><path fill="none" stroke="#444" stroke-linecap="round" stroke-miterlimit="10" stroke-width="2.5" d="M34.9 47.2H3.7c-1.2 0-2.1-1-2.1-2.1V4.9c0-1.2 1-2.1 2.1-2.1h42.2c1.2 0 2.1 1 2.1 2.1v29.7"/><path d="M20.3 20H9c-.6 0-1-.4-1-1V8.2c0-.6.4-1 1-1h11.3c.6 0 1 .4 1 1V19c0 .5-.4 1-1 1z" class="st3"/><path d="M8.7 22.1h11.9M8.7 23.7h11.9" class="st4"/><path d="M20.3 39H9c-.6 0-1-.4-1-1V27.2c0-.6.4-1 1-1h11.3c.6 0 1 .4 1 1V38c0 .5-.4 1-1 1z" class="st3"/><path d="M8.7 41.2h11.9M8.7 42.7h11.9" class="st4"/><path d="M40.6 20H29.3c-.6 0-1-.4-1-1V8.2c0-.6.4-1 1-1h11.3c.6 0 1 .4 1 1V19c0 .5-.5 1-1 1z" class="st3"/><path d="M28.9 22.1h12m-12 1.6h12" class="st4"/><path d="M40.6 39H29.3c-.6 0-1-.4-1-1V27.2c0-.6.4-1 1-1h11.3c.6 0 1 .4 1 1V38c0 .5-.5 1-1 1z" class="st3"/><path d="M28.9 41.2h12m-12 1.5h12" class="st4"/></svg>