<?xml version="1.0" encoding="utf-8"?>
<!-- Generator: Adobe Illustrator 22.0.1, SVG Export Plug-In . SVG Version: 6.00 Build 0)  -->
<svg version="1.1" id="Layer_1" xmlns="http://www.w3.org/2000/svg" xmlns:xlink="http://www.w3.org/1999/xlink" x="0px" y="0px"
	 viewBox="0 0 50 50" style="enable-background:new 0 0 50 50;" xml:space="preserve">
<style type="text/css">
	.st0{fill:#46B8B0;}
	.st1{fill:#4ECDC4;}
	.st2{fill:none;stroke:#444444;stroke-width:2.5;stroke-linecap:round;stroke-miterlimit:10;}
	.st3{fill:none;stroke:#444444;stroke-width:1.5;stroke-linecap:round;stroke-miterlimit:10;}
	.st4{fill:none;stroke:#444444;stroke-linecap:round;stroke-miterlimit:10;}
</style>
<g>
	<path class="st0" d="M2,21v24.1c0,1.2,1,2.1,2.1,2.1h9.8l34.6-12.6V4.9c0-0.3-0.1-0.6-0.2-0.8L2,21z"/>
	<path class="st1" d="M46.3,2.8H4.1C2.9,2.8,2,3.8,2,4.9V21L48.3,4.1C48,3.4,47.2,2.8,46.3,2.8z"/>
	<path class="st2" d="M34.9,47.2H3.7c-1.2,0-2.1-1-2.1-2.1V4.9c0-1.2,1-2.1,2.1-2.1h42.2c1.2,0,2.1,1,2.1,2.1v29.7"/>
	<g>
		<g>
			<g>
				<g>
					<g>
						<path class="st3" d="M20.3,20H9c-0.6,0-1-0.4-1-1V8.2c0-0.6,0.4-1,1-1h11.3c0.6,0,1,0.4,1,1V19C21.3,19.5,20.9,20,20.3,20z"/>
						<line class="st4" x1="8.7" y1="22.1" x2="20.6" y2="22.1"/>
						<line class="st4" x1="8.7" y1="23.7" x2="20.6" y2="23.7"/>
					</g>
					<g>
						<path class="st3" d="M20.3,39H9c-0.6,0-1-0.4-1-1V27.2c0-0.6,0.4-1,1-1h11.3c0.6,0,1,0.4,1,1V38C21.3,38.5,20.9,39,20.3,39z"
							/>
						<line class="st4" x1="8.7" y1="41.2" x2="20.6" y2="41.2"/>
						<line class="st4" x1="8.7" y1="42.7" x2="20.6" y2="42.7"/>
					</g>
				</g>
				<g>
					<path class="st3" d="M40.6,20H29.3c-0.6,0-1-0.4-1-1V8.2c0-0.6,0.4-1,1-1h11.3c0.6,0,1,0.4,1,1V19C41.6,19.5,41.1,20,40.6,20z"
						/>
					<line class="st4" x1="28.9" y1="22.1" x2="40.9" y2="22.1"/>
					<line class="st4" x1="28.9" y1="23.7" x2="40.9" y2="23.7"/>
				</g>
			</g>
			<path class="st3" d="M40.6,39H29.3c-0.6,0-1-0.4-1-1V27.2c0-0.6,0.4-1,1-1h11.3c0.6,0,1,0.4,1,1V38C41.6,38.5,41.1,39,40.6,39z"
				/>
			<g>
				<line class="st4" x1="28.9" y1="41.2" x2="40.9" y2="41.2"/>
			</g>
		</g>
		<line class="st4" x1="28.9" y1="42.7" x2="40.9" y2="42.7"/>
	</g>
</g>
</svg>
