<?xml version="1.0" encoding="utf-8"?>
<!-- Generator: Adobe Illustrator 27.5.0, SVG Export Plug-In . SVG Version: 6.00 Build 0)  -->
<svg version="1.1" id="Camada_3" xmlns="http://www.w3.org/2000/svg" xmlns:xlink="http://www.w3.org/1999/xlink" x="0px" y="0px"
	 viewBox="0 0 50 50" style="enable-background:new 0 0 50 50;" xml:space="preserve">
<style type="text/css">
	.st0{fill:#EC6A6D;}
	.st1{fill:#E46160;}
	.st2{fill:#454444;}
	.st3{fill:none;stroke:#454444;stroke-miterlimit:10;}
	.st4{fill:#444444;}
</style>
<g>
	<polygon class="st0" points="33.7,3.4 38.8,10.8 37.5,20.6 20.4,26.8 15.2,14.8 17.1,6.8 24.3,2.6 	"/>
	<g>
		<polygon class="st1" points="36.9,20.5 20.4,26.8 24.2,33.8 14.8,34.7 4,46 8.1,46.1 38.9,35.1 29,33.8 		"/>
	</g>
	<path class="st2" d="M46.7,41.3L39,33.9c-0.2-0.2-0.4-0.3-0.7-0.3h-7.7l0,0c2.6-4.7,6.2-11.1,6.7-12.1c1.1-2,2.3-4.6,2.3-7.5
		c0-7-5.7-12.7-12.7-12.7S14.3,6.9,14.3,13.9c0,3,1.2,5.6,2.3,7.5c0.5,1,4.1,7.4,6.7,12.1l0,0h-8c-0.2,0-0.5,0.1-0.7,0.3L3.1,45.2
		c-0.3,0.3-0.3,0.7-0.2,1c0.1,0.4,0.5,0.6,0.9,0.6h35.7c0.4,0,0.7-0.2,0.8-0.6c0,0,0,0,0,0c0.3-0.6-0.2-1.2-0.8-1.2H6l0,0l9.8-9.5
		l0,0h10.8C24.1,31,19,21.8,18.3,20.6c-1-1.8-2.1-4.1-2.1-6.6c0-6,4.9-10.9,10.8-10.9C33,3.1,37.9,8,37.9,14c0,2.6-1.1,4.9-2.1,6.6
		c-0.7,1.2-5.8,10.4-8.3,14.8H38l0,0l6.6,6.4l0.6,0.6c0.4,0.4,1.1,0.4,1.4,0.1l0,0C46.8,42.4,47.1,41.7,46.7,41.3z"/>
	<polyline class="st3" points="30.4,31.3 27.8,36 27,37.2 26.3,35.9 23.2,30.4 	"/>
	<path class="st3" d="M21.9,35.1l-4.1,5.2c0,0-0.3,0.4,0,1s1,0.8,1,0.8h8"/>
	<path class="st3" d="M27,44.9v-4.5c0,0,0-0.9,0.3-1.5c0.3-0.5,1-0.5,1-0.5h4.8c0,0,0.8,0.1,1.1-0.4c0.3-0.5,0-0.9,0-0.9l-1.8-2.4"
		/>
	<g>
		<polygon class="st4" points="25.7,20.8 22.2,20.8 22.1,4.1 25.3,1.8 25.8,2 		"/>
		<rect x="27.8" y="25.7" class="st4" width="3.5" height="1.3"/>
		<path class="st4" d="M30.3,32.2h-2.4l0-3.5l3.5,0v2.4C31.4,31.8,30.9,32.2,30.3,32.2z"/>
		<path class="st4" d="M20.6,11.7l-3.5,0l0-4.1c0-1.7,1.4-3.1,3.1-3.1h0.5L20.6,11.7z"/>
		<polygon class="st4" points="19.4,24.7 19,24.8 17,21.4 17.1,20.1 20.6,20.1 20.6,24.8 		"/>
		<rect x="17.1" y="14.1" class="st4" width="3.5" height="3.5"/>
		<polygon class="st4" points="25.2,33.4 22.4,30.3 22.4,26.3 25.2,26.3 		"/>
		<polygon class="st4" points="31.5,24.8 27.7,24.8 28,4.5 31.5,4.5 		"/>
		<rect x="34" y="10.5" class="st4" width="2.7" height="3.1"/>
		<path class="st4" d="M35.5,22.6H34l0-7.2l2.7,0l0,6C36.7,22,36.2,22.6,35.5,22.6z"/>
		<path class="st4" d="M36.7,8.9l-2.7,0l0-3.5l1.4,0c0.7,0,1.3,0.6,1.3,1.3V8.9z"/>
		<rect x="22.2" y="22.3" class="st4" width="3.5" height="2.4"/>
	</g>
</g>
</svg>
