<?xml version="1.0" encoding="utf-8"?>
<!-- Generator: Adobe Illustrator 27.7.0, SVG Export Plug-In . SVG Version: 6.00 Build 0)  -->
<svg version="1.1" id="Camada_3" xmlns="http://www.w3.org/2000/svg" xmlns:xlink="http://www.w3.org/1999/xlink" x="0px" y="0px"
	 viewBox="0 0 50 50" style="enable-background:new 0 0 50 50;" xml:space="preserve">
<style type="text/css">
	.st0{fill:#B68AF3;}
	.st1{fill:#E5E5E5;}
	.st2{fill:none;stroke:#E5E5E5;stroke-linecap:round;stroke-linejoin:round;stroke-miterlimit:10;}
</style>
<g>
	<path class="st0" d="M9.3,36.1h38.1v-3.9c-1.3,0.9-2.9,1.4-4.6,1.4c-4.4,0-8-3.6-8-8s3.6-8,8-8c1.7,0,3.3,0.5,4.6,1.4v-8.9H9.3
		V36.1z M30.8,14.1c0-0.3,0.2-0.5,0.5-0.5h5c0.3,0,0.5,0.2,0.5,0.5v4c0,0.3-0.2,0.5-0.5,0.5s-0.5-0.2-0.5-0.5v-3.5h-4v19.5
		c0,0.3-0.2,0.5-0.5,0.5s-0.5-0.2-0.5-0.5V14.1z M21.8,20.1c0-0.3,0.2-0.5,0.5-0.5h5c0.3,0,0.5,0.2,0.5,0.5v14
		c0,0.3-0.2,0.5-0.5,0.5s-0.5-0.2-0.5-0.5V20.6h-4v13.5c0,0.3-0.2,0.5-0.5,0.5s-0.5-0.2-0.5-0.5V20.1z M12.8,25.1
		c0-0.3,0.2-0.5,0.5-0.5h5c0.3,0,0.5,0.2,0.5,0.5v9c0,0.3-0.2,0.5-0.5,0.5s-0.5-0.2-0.5-0.5v-8.5h-4v8.5c0,0.3-0.2,0.5-0.5,0.5
		s-0.5-0.2-0.5-0.5V25.1z"/>
	<path class="st0" d="M47.4,20.3c-1.2-1.1-2.8-1.7-4.6-1.7c-3.9,0-7,3.1-7,7s3.1,7,7,7c1.7,0,3.3-0.6,4.6-1.7v-7.5V20.3z M44.5,20.7
		c-2.3-0.1-4,0.4-5,1.5c-1.6,1.7-1.3,4.2-1.3,4.2c0,0.3-0.2,0.5-0.4,0.6c0,0,0,0-0.1,0c-0.3,0-0.5-0.2-0.5-0.4c0-0.1-0.3-3,1.6-5
		c1.3-1.4,3.3-2,5.8-1.8c0.3,0,0.5,0.3,0.5,0.5C45,20.5,44.7,20.7,44.5,20.7z"/>
	<path class="st0" d="M35.3,41.1h6c0.6,0,1,0.4,1,1s-0.4,1-1,1h-20c-0.6,0-1-0.4-1-1s0.4-1,1-1h6v-3h-18c-1.1,0-2-0.9-2-2v-26
		c0-1.1,0.9-2,2-2h38.1V7.9c0-3.1-2.5-5.6-5.6-5.6H8.1C5,2.3,2.5,4.8,2.5,7.9v31.3v2.5c0,3.1,2.5,5.6,5.6,5.6h0h33.7h0
		c1,0,1.9-0.2,2.7-0.7c1.7-0.9,2.9-2.8,2.9-4.9v-3.5H35.3V41.1z"/>
	<rect x="29.3" y="38.1" class="st0" width="4" height="3"/>
	<path class="st1" d="M9.3,8.1c-1.1,0-2,0.9-2,2v26c0,1.1,0.9,2,2,2h18v3h-6c-0.6,0-1,0.4-1,1s0.4,1,1,1h20c0.6,0,1-0.4,1-1
		s-0.4-1-1-1h-6v-3h12.1v-2H9.3v-26h38.1v-2H9.3z M29.3,38.1h4v3h-4V38.1z"/>
	<path class="st1" d="M34.8,25.6c0,4.4,3.6,8,8,8c1.7,0,3.3-0.5,4.6-1.4v-1.3c-1.2,1.1-2.8,1.7-4.6,1.7c-3.9,0-7-3.1-7-7s3.1-7,7-7
		c1.7,0,3.3,0.6,4.6,1.7V19c-1.3-0.9-2.9-1.4-4.6-1.4C38.4,17.6,34.8,21.2,34.8,25.6z"/>
	<path class="st1" d="M31.3,34.6c0.3,0,0.5-0.2,0.5-0.5V14.6h4v3.5c0,0.3,0.2,0.5,0.5,0.5s0.5-0.2,0.5-0.5v-4c0-0.3-0.2-0.5-0.5-0.5
		h-5c-0.3,0-0.5,0.2-0.5,0.5v20C30.8,34.4,31.1,34.6,31.3,34.6z"/>
	<path class="st1" d="M22.3,34.6c0.3,0,0.5-0.2,0.5-0.5V20.6h4v13.5c0,0.3,0.2,0.5,0.5,0.5s0.5-0.2,0.5-0.5v-14
		c0-0.3-0.2-0.5-0.5-0.5h-5c-0.3,0-0.5,0.2-0.5,0.5v14C21.8,34.4,22.1,34.6,22.3,34.6z"/>
	<path class="st1" d="M13.3,34.6c0.3,0,0.5-0.2,0.5-0.5v-8.5h4v8.5c0,0.3,0.2,0.5,0.5,0.5s0.5-0.2,0.5-0.5v-9c0-0.3-0.2-0.5-0.5-0.5
		h-5c-0.3,0-0.5,0.2-0.5,0.5v9C12.8,34.4,13.1,34.6,13.3,34.6z"/>
	<path class="st1" d="M44.5,19.7c-2.6-0.1-4.5,0.5-5.8,1.8c-1.9,2-1.6,4.9-1.6,5c0,0.3,0.2,0.4,0.5,0.4c0,0,0,0,0.1,0
		c0.3,0,0.5-0.3,0.4-0.6c0,0-0.3-2.6,1.3-4.2c1.1-1.1,2.8-1.6,5-1.5c0.3,0,0.5-0.2,0.5-0.5C45,20,44.8,19.7,44.5,19.7z"/>
</g>
<line class="st2" x1="37.9" y1="31.3" x2="35.1" y2="34.5"/>
</svg>
