<?xml version="1.0" encoding="utf-8"?>
<!-- Generator: Adobe Illustrator 22.1.0, SVG Export Plug-In . SVG Version: 6.00 Build 0)  -->
<svg version="1.1" id="Layer_1" xmlns="http://www.w3.org/2000/svg" xmlns:xlink="http://www.w3.org/1999/xlink" x="0px" y="0px"
	 viewBox="0 0 50 50" style="enable-background:new 0 0 50 50;" xml:space="preserve">
<style type="text/css">
	.st0{fill:#00C8E2;}
	.st1{fill:#00DFFC;}
	.st2{fill:#031326;}
</style>
<title>gestao-de-inovacao-roberto-rizzo</title>
<g id="Layer_4">
	<path class="st0" d="M15.4,38.5c0,2.3,1,4.4,2.8,5.9l13.6-5c0-0.3,0.1-0.6,0.1-0.8c0.1-3.4,1.1-6.7,3-9.6
		c3.9-6.2,2.1-14.4-4.1-18.4c-2.6-1.6-5.6-2.3-8.7-2C14.8,9.5,9.6,16,10.4,23.3c0.2,2,0.9,4,2.1,5.7C14.3,31.9,15.4,35.2,15.4,38.5z
		"/>
	<path class="st1" d="M32.6,12.1c-5.4-5-13.8-4.7-18.8,0.6c-1.9,2.1-3.1,4.7-3.5,7.5L32.6,12.1z"/>
	<path class="st2" d="M24.2,46.5h-1.2c-0.6,0-1.1-0.1-1.7-0.2c-0.3,0-0.6-0.4-0.6-0.7s0.4-0.6,0.7-0.6c0,0,0.1,0,0.1,0
		c0.5,0.1,0.9,0.2,1.4,0.2h1.2c0.6,0,1.3-0.1,1.9-0.2c0.3-0.1,0.7,0.1,0.8,0.4c0,0,0,0,0,0c0.1,0.3-0.1,0.7-0.4,0.8
		C25.7,46.4,25,46.5,24.2,46.5z"/>
	<path class="st2" d="M24.8,49.4H23c-1.4,0-2.5-1.1-2.5-2.5l0,0c-3.6-1.1-6.1-4.5-6.1-8.3c0-3.2-1-6.2-2.8-8.9
		c-1.8-2.8-2.6-6.1-2.2-9.4c0.9-7.9,8-13.5,15.9-12.6c7.9,0.9,13.5,8,12.6,15.9c-0.2,2.2-1,4.3-2.2,6.1c-1.8,2.7-2.8,5.8-2.8,9
		c0,1.3-0.3,2.5-0.8,3.7c-0.2,0.5-0.9,0.7-1.4,0.5s-0.7-0.9-0.5-1.4c0.4-0.9,0.6-1.8,0.6-2.8c0-3.6,1.1-7.1,3.1-10.1
		c3.7-5.7,2-13.3-3.6-17s-13.3-2-17,3.6c-2.6,4.1-2.6,9.3,0,13.3c2,3,3.1,6.4,3.1,10c0,3.1,2.2,5.8,5.2,6.5l0.8,0.2v1.7
		c0,0.2,0.2,0.4,0.4,0.4h1.9c0.2,0,0.4-0.2,0.4-0.4V46c0-0.6,0.5-1,1-1s1,0.5,1,1v0.8C27.4,48.2,26.2,49.4,24.8,49.4
		C24.8,49.4,24.8,49.4,24.8,49.4z"/>
	<path class="st2" d="M23.6,36.1c-3.1,0-6,0-8.5-0.1c-0.3,0-0.6-0.3-0.6-0.6c0,0,0,0,0,0c0-0.3,0.3-0.6,0.6-0.6l0,0
		c2.5,0,5.4,0.1,8.5,0.1s6,0,8.5-0.1c0.3,0,0.6,0.3,0.6,0.6c0,0.3-0.3,0.6-0.6,0.6c0,0,0,0,0,0C29.6,36.1,26.7,36.1,23.6,36.1z"/>
	<path class="st2" d="M23.6,38.5c-3.1,0-6,0-8.5-0.1c-0.2,0-0.4-0.2-0.4-0.4c0,0,0,0,0,0c0-0.2,0.2-0.4,0.4-0.4
		c2.5,0,5.4,0.1,8.5,0.1s6,0,8.5-0.1c0.2,0,0.4,0.2,0.4,0.4c0,0,0,0,0,0c0,0.2-0.2,0.4-0.4,0.4c0,0,0,0,0,0
		C29.6,38.5,26.7,38.5,23.6,38.5z"/>
	<path class="st2" d="M23.6,41c-3.1,0-6,0-8.5-0.1c-0.2,0-0.4-0.2-0.4-0.4c0,0,0,0,0,0c0-0.2,0.2-0.4,0.4-0.4c2.5,0,5.4,0.1,8.5,0.1
		s6,0,8.5-0.1c0.2,0,0.4,0.2,0.4,0.4c0,0.2-0.2,0.4-0.4,0.4C29.6,41,26.8,41,23.6,41z"/>
	<path class="st2" d="M22.6,0.6h0.2c0.6,0,1.1,0.5,1.1,1.1V4c0,0.6-0.5,1.1-1.1,1.1h-0.2c-0.6,0-1.1-0.5-1.1-1.1V1.7
		C21.5,1.1,22,0.6,22.6,0.6z"/>
	<path class="st2" d="M13.9,2.6l0.2-0.1c0.5-0.2,1.2,0,1.4,0.5l1,2.1c0.2,0.5,0,1.2-0.5,1.4l-0.2,0.1c-0.5,0.2-1.2,0-1.4-0.5l-1-2.1
		C13.1,3.5,13.3,2.8,13.9,2.6z"/>
	<path class="st2" d="M6.8,8.1l0.1-0.2C7.3,7.4,8,7.4,8.4,7.8l1.8,1.5c0.5,0.4,0.5,1.1,0.1,1.5l-0.1,0.2c-0.4,0.5-1.1,0.5-1.5,0.1
		L6.9,9.6C6.5,9.2,6.4,8.5,6.8,8.1z"/>
	<path class="st2" d="M2.7,16l0.1-0.2c0.2-0.6,0.7-0.9,1.3-0.8l2.2,0.6C6.9,15.8,7.2,16.4,7,17L7,17.2c-0.2,0.6-0.7,0.9-1.3,0.8
		l-2.2-0.6C2.9,17.2,2.5,16.6,2.7,16z"/>
	<path class="st2" d="M2.3,25l0-0.2c-0.1-0.6,0.3-1.1,0.9-1.2l2.3-0.4C6,23,6.6,23.4,6.7,24l0,0.2c0.1,0.6-0.3,1.1-0.9,1.2l-2.3,0.4
		C3,25.9,2.4,25.5,2.3,25z"/>
	<path class="st2" d="M5.8,33.2L5.7,33c-0.3-0.5-0.2-1.2,0.3-1.5l1.9-1.3C8.3,29.9,9,30,9.3,30.5l0.1,0.2c0.3,0.5,0.2,1.2-0.3,1.5
		l-1.9,1.3C6.8,33.8,6.1,33.7,5.8,33.2z"/>
	<circle class="st0" cx="38" cy="15.5" r="8.9"/>
	<circle class="st2" cx="38.1" cy="15.6" r="4.5"/>
	<path class="st1" d="M43.2,8.3c-0.9-0.6-1.4-1.6-2.4-1.8c-0.8-0.2-2,0.3-2.9,0.3c-1.6-0.1-3.1,0.1-4.6,0.7c-1,0.5-1.3,1.6-2.1,2.4
		c-1.1,1.1-2.3,2.1-2.7,3.8L43.2,8.3z"/>
	<path class="st2" d="M37.1,25.8c-0.1,0-0.1,0-0.2,0c-0.7-0.1-1.3-0.3-2-0.5c-0.7-0.2-1.3-0.5-1.9-0.8c-0.5-0.2-0.7-0.7-0.5-1.2
		l0.2-0.6c-0.3-0.2-0.5-0.4-0.7-0.6l-0.5,0.3c-0.5,0.3-1.1,0.1-1.4-0.3c-0.8-1.2-1.4-2.4-1.9-3.7c-0.2-0.5,0-1.1,0.5-1.3l0.5-0.3
		c-0.1-0.3-0.1-0.7-0.1-1l-0.6-0.2c-0.5-0.1-0.8-0.7-0.7-1.2c0.1-0.7,0.3-1.3,0.5-2c0.2-0.6,0.5-1.3,0.8-1.9
		c0.2-0.5,0.8-0.7,1.2-0.6l0.6,0.2c0.2-0.3,0.4-0.5,0.6-0.7l-0.3-0.5c-0.3-0.5-0.1-1,0.3-1.3c1.1-0.8,2.4-1.4,3.7-1.9
		c0.5-0.2,1,0,1.3,0.5l0.3,0.5c0.3,0,0.6-0.1,1-0.1L37.9,6C38,5.5,38.5,5.2,39,5.3c0.7,0.1,1.3,0.3,2,0.5c0.7,0.2,1.3,0.5,2,0.7
		c0.5,0.2,0.7,0.7,0.6,1.2l-0.2,0.6c0.3,0.2,0.5,0.4,0.7,0.7l0.2-0.1C44.6,8.8,45,9,45.1,9.3c0.1,0.3,0,0.5-0.2,0.7l-1,0.5l-0.3-0.3
		c-0.4-0.4-0.8-0.8-1.3-1.1l-0.4-0.3l0.4-1.3c-0.5-0.2-1.1-0.4-1.6-0.6c-0.5-0.2-1.1-0.3-1.7-0.5l-0.4,1.3h-0.5
		c-0.5,0-1.1,0-1.6,0.1L36,8l-0.6-1.2c-0.4,0.2-1,0.4-1.6,0.7c-0.5,0.3-1,0.6-1.5,0.9L33,9.6l-0.3,0.3c-0.4,0.4-0.8,0.8-1.1,1.3
		l-0.3,0.4L30,11.2c-0.1,0.4-0.4,0.9-0.6,1.6S29,14.1,29,14.5l1.3,0.4v0.5c0,0.6,0.1,1.1,0.2,1.7l0.1,0.5l-1.2,0.6
		c0.2,0.5,0.4,1.1,0.7,1.6c0.3,0.6,0.7,1.2,0.9,1.5l1.2-0.6l0.3,0.3c0.4,0.4,0.8,0.7,1.2,1l0.4,0.3l-0.4,1.3
		c0.5,0.2,1.1,0.4,1.6,0.6c0.7,0.2,1.3,0.4,1.7,0.4l0.4-1.3h0.5c0.5,0,1.1,0,1.6-0.1l0.5-0.1l0.6,1.2c0.4-0.1,0.9-0.4,1.6-0.7
		s1.2-0.7,1.5-0.9L43,21.4l0.3-0.3c0.4-0.4,0.7-0.8,1-1.2l0.3-0.4l1.3,0.4c0.2-0.4,0.4-0.9,0.6-1.6c0.1-0.3,0.5-0.5,0.8-0.4
		c0.3,0.1,0.5,0.5,0.4,0.8l0,0c-0.2,0.7-0.4,1.3-0.7,2c-0.2,0.5-0.7,0.7-1.2,0.5l-0.6-0.2c-0.2,0.3-0.4,0.5-0.6,0.7l0.3,0.5
		c0.3,0.5,0.1,1-0.3,1.3c-0.6,0.4-1.2,0.7-1.8,1.1c-0.6,0.3-1.3,0.6-1.9,0.9c-0.5,0.2-1,0-1.3-0.5l-0.3-0.5c-0.3,0-0.7,0.1-1,0.1
		L38.1,25C38,25.5,37.6,25.8,37.1,25.8z"/>
	<path class="st2" d="M14.1,25.1c-0.3,0-0.5-0.2-0.6-0.4c-0.6-1.5-0.8-3.1-0.6-4.7c0.5-4.7,4.3-8.5,9-9c0.4,0,0.8,0,1.1,0
		c0.3,0,0.7,0.2,0.7,0.5c0,0.3-0.2,0.7-0.5,0.7c-0.1,0-0.1,0-0.2,0c-0.3,0-0.7,0-1,0.1c-4.1,0.5-7.4,3.8-7.9,7.9
		c-0.2,1.4,0,2.8,0.5,4.1c0.1,0.3,0,0.7-0.4,0.8c0,0,0,0,0,0C14.2,25.1,14.2,25.1,14.1,25.1z"/>
</g>
</svg>
