<svg xmlns="http://www.w3.org/2000/svg" id="Layer_1" x="0" y="0" version="1.1" viewBox="0 0 50 50" xml:space="preserve"><style>.st2{fill:#031326}</style><path fill="#ff6b6b" d="M39.7 1.8H5.9c-2.2 0-4 1.8-4 4v13.9L43.5 4.5c-.5-1.6-2-2.7-3.8-2.7z"/><path fill="#e56060" d="M43.7 4.8c0-.4-.1-.9-.2-1.3L1.9 18.7V36l41.9-15.2v-16h-.1z"/><circle cx="6.2" cy="6" r=".8" class="st2"/><circle cx="8.9" cy="6" r=".8" class="st2"/><circle cx="11.5" cy="6" r=".8" class="st2"/><path d="M45 28.6V6.2C45 3.3 42.6 1 39.7 1H5.9C3 1 .6 3.3.6 6.2v33.9c0 2.9 2.4 5.2 5.2 5.2h23.7v-.1c2.1 2.3 5.1 3.8 8.4 3.8 6.3 0 11.4-5.1 11.4-11.4.1-3.6-1.6-6.9-4.3-9zM5.9 3.5h33.9c1.5 0 2.8 1.2 2.8 2.8v1.6H3.1V6.2c0-1.5 1.2-2.7 2.8-2.7zM3.1 40.1V10.3h11.1v32.5H5.9c-1.6 0-2.8-1.2-2.8-2.7zm20.2 2.7h-6.6V10.3h25.8v16.8c-1.4-.6-2.9-.9-4.5-.9-6.3 0-11.4 5.1-11.4 11.4 0 1.9.5 3.7 1.3 5.2h-4.6zM38 46.5c-4.9 0-8.9-4-8.9-8.9s4-8.9 8.9-8.9 8.9 4 8.9 8.9-4 8.9-8.9 8.9z" class="st2"/><path d="M38 29.9c-4.3 0-7.8 3.5-7.8 7.8s3.5 7.8 7.8 7.8 7.8-3.5 7.8-7.8c-.1-4.4-3.5-7.8-7.8-7.8zm0 14c-3.4 0-6.3-2.8-6.3-6.3s2.8-6.3 6.3-6.3 6.3 2.8 6.3 6.3c-.1 3.5-2.9 6.3-6.3 6.3z" class="st2"/><path d="M40.7 34.8L36.5 39l-1.3-1.3c-.3-.3-.8-.3-1.1 0s-.3.8 0 1.1l2.4 2.4 5.2-5.2c.3-.3.3-.8 0-1.1s-.7-.4-1-.1z" class="st2"/></svg>