<svg xmlns="http://www.w3.org/2000/svg" id="Camada_3" x="0" y="0" version="1.1" viewBox="0 0 50 50" xml:space="preserve"><style>.st2,.st3{fill:none;stroke:#444;stroke-miterlimit:10}.st2{stroke-linecap:round;stroke-linejoin:round;stroke-width:2.5}.st3{stroke-width:1}</style><path fill="#f799ff" d="M34.4 2.7L26.6 2c-3.2 0-14.5.3-21.4 10.3l-4 10.8 41-14.4-7.8-6z"/><path fill="#e589ef" d="M1.1 22.9l4 13.4c.1.4 4.6 5.6 4.9 5.9l5.6 3 32.2-11.7c.6-.5 1.6-8.7.7-13.5-.2-.8-2.7-7.5-3.2-8.1l-3-3.5L1.1 22.9z"/><path d="M37.2 45.3c-7.9 4.5-18.1 4.2-25.8-1.6C1.1 36-1 21.3 6.8 10.9" class="st2"/><path d="M6.6 11.1c2-3 4.7-4.7 4.7-4.7l.7-.5C20.1.1 31.3 0 39.6 6.3 50 14.1 52 28.8 44.3 39.1" class="st2"/><path d="M48.1 31.5l-5-3s-3.9-3.2-8.1 3.4 2 8.2 3.9 9.5m-1.4-.8s-4.8-1.8 1.6-9.6" class="st3"/><path d="M43.2 28.7s-.8-7.8-6.7-7.8c-4.6 0 .2 3.5.1 3.8-.2.3-9.5-3.1-2.8-5.8" class="st3"/><path d="M34.3 38.3s-13.1-.1-13.2-9 10.4-14.7 15.4-8.4M9.9 6.8l4.7 3.1s4.5 2.1.2 8.5-6.9 2.9-8.8 1.7c-1.4-.8-3.7-1.1-2.7-3.9m1.2 3.2s3.7 2.1 7.8-8.5" class="st3"/><path d="M14.4 9.7s7.9-3.5 10.3 1.7-4.2 2.4-4.1 2.7c.5.9 5.3 4.6 7.7 1.4m.9 2.8c-.4-2.7-1-4-4-4.7M9.8 22.3s4.3 9.1 11.3 7.7" class="st3"/><path d="M35.5 39.5c-2.8 2-6.3 3.1-10 3.1C15.8 42.6 8 34.8 8 25.1c0-1.1.1-2.1.3-3.1M20.1 8.4c1.7-.5 3.5-.8 5.3-.8 9.7 0 17.5 7.8 17.5 17.5 0 .5 0 1.1-.1 1.6" class="st3"/></svg>