<svg xmlns="http://www.w3.org/2000/svg" viewBox="0 0 50 50"><defs><style>.cls-1{fill:#e56060;}.cls-2{fill:#ff6b6b;}.cls-3{fill:#444;}</style></defs><title>gestao-de-inovacao-roberto-rizzo</title><g id="Layer_4" data-name="Layer 4"><path class="cls-1" d="M15.4,38.52a7.65,7.65,0,0,0,2.77,5.9l13.59-5a6,6,0,0,0,.06-.85,17.65,17.65,0,0,1,3-9.58A13.3,13.3,0,0,0,22.09,8.63a13.29,13.29,0,0,0-9.64,20.45A17.37,17.37,0,0,1,15.4,38.52Z"/><path class="cls-2" d="M32.63,12.12a13.29,13.29,0,0,0-22.26,8.11Z"/><path class="cls-3" d="M24.25,46.48H23.06a8.55,8.55,0,0,1-1.68-.17.63.63,0,1,1,.25-1.23,6.88,6.88,0,0,0,1.43.15h1.19A7,7,0,0,0,26.13,45a.61.61,0,0,1,.77.43.64.64,0,0,1-.43.78A8.31,8.31,0,0,1,24.25,46.48Z"/><path class="cls-3" d="M24.83,49.38H23a2.51,2.51,0,0,1-2.5-2.51v0a8.74,8.74,0,0,1-6.11-8.31,16.38,16.38,0,0,0-2.77-8.87,14.22,14.22,0,0,1-2.23-9.39,14.34,14.34,0,1,1,26.32,9.35,16.6,16.6,0,0,0-2.81,9,8.53,8.53,0,0,1-.81,3.65,1,1,0,1,1-1.89-.89,6.42,6.42,0,0,0,.61-2.76,18.75,18.75,0,0,1,3.14-10.14,12.26,12.26,0,1,0-20.59,0,18.39,18.39,0,0,1,3.12,10A6.64,6.64,0,0,0,21.71,45l.83.18v1.69a.42.42,0,0,0,.42.42h1.87a.42.42,0,0,0,.42-.42V46a1,1,0,0,1,2.09,0v.85A2.51,2.51,0,0,1,24.83,49.38Z"/><path class="cls-3" d="M23.61,36.12c-3.12,0-6,0-8.53-.07a.62.62,0,0,1-.61-.63.62.62,0,0,1,.62-.62h0c2.53.05,5.39.07,8.5.07s6,0,8.5-.07a.64.64,0,0,1,.64.62.62.62,0,0,1-.62.63C29.58,36.1,26.72,36.12,23.61,36.12Z"/><path class="cls-3" d="M23.61,38.48c-3.11,0-6,0-8.52-.06a.42.42,0,0,1-.41-.43.43.43,0,0,1,.42-.41c2.54.05,5.4.07,8.51.07s6,0,8.51-.07a.4.4,0,0,1,.42.41.42.42,0,0,1-.41.43C29.58,38.46,26.72,38.48,23.61,38.48Z"/><path class="cls-3" d="M23.61,41.05c-3.15,0-6,0-8.52-.06a.42.42,0,0,1-.41-.43.46.46,0,0,1,.42-.41c2.51.05,5.37.07,8.51.07s6,0,8.51-.07a.42.42,0,0,1,0,.84C29.61,41,26.75,41.05,23.61,41.05Z"/><rect class="cls-3" x="21.53" y="0.62" width="2.35" height="4.45" rx="1.07" ry="1.07"/><rect class="cls-3" x="13.73" y="2.34" width="2.35" height="4.45" rx="1.07" ry="1.07" transform="translate(-0.53 6.73) rotate(-25)"/><rect class="cls-3" x="7.39" y="7.18" width="2.35" height="4.45" rx="1.07" ry="1.07" transform="translate(-4.15 9.92) rotate(-50)"/><rect class="cls-3" x="3.68" y="14.26" width="2.35" height="4.45" rx="1.07" ry="1.07" transform="translate(-12.32 16.91) rotate(-75)"/><rect class="cls-3" x="3.32" y="22.24" width="2.35" height="4.45" rx="1.07" ry="1.07" transform="translate(-18.82 33.14) rotate(-100)"/><rect class="cls-3" x="6.36" y="29.62" width="2.35" height="4.45" rx="1.07" ry="1.07" transform="translate(-14.23 56.29) rotate(-125)"/><circle class="cls-1" cx="37.99" cy="15.51" r="8.95"/><circle class="cls-3" cx="38.08" cy="15.64" r="4.54"/><path class="cls-2" d="M43.2,8.26c-.87-.56-1.41-1.57-2.44-1.84-.79-.21-2,.26-2.89.26a10.77,10.77,0,0,0-4.57.68c-1,.5-1.33,1.59-2.11,2.4-1.06,1.1-2.33,2.11-2.67,3.84Z"/><path class="cls-3" d="M37.12,25.76a.68.68,0,0,1-.2,0,17.65,17.65,0,0,1-2-.51A18.42,18.42,0,0,1,33,24.49a1,1,0,0,1-.55-1.24l.18-.58a7.36,7.36,0,0,1-.74-.62l-.54.28A1,1,0,0,1,30,22a19,19,0,0,1-1.92-3.69A1,1,0,0,1,28.55,17l.55-.28a7.79,7.79,0,0,1-.09-1l-.58-.18a1,1,0,0,1-.7-1.17,19,19,0,0,1,.52-2A18.62,18.62,0,0,1,29,10.49a1,1,0,0,1,1.25-.56l.58.18a8.67,8.67,0,0,1,.62-.74l-.28-.54a1,1,0,0,1,.33-1.32A18.55,18.55,0,0,1,35.16,5.6a1,1,0,0,1,1.27.48l.29.54c.31,0,.64-.07,1-.08L37.86,6A1,1,0,0,1,39,5.26a19.09,19.09,0,0,1,2,.51A18,18,0,0,1,43,6.51a1,1,0,0,1,.56,1.24l-.19.58A9,9,0,0,1,44.1,9l.2-.1A.63.63,0,0,1,44.88,10l-1,.53-.32-.34A8,8,0,0,0,42.28,9.1l-.39-.26.4-1.27A15.2,15.2,0,0,0,40.67,7,17.19,17.19,0,0,0,39,6.53l-.4,1.27h-.47a7.38,7.38,0,0,0-1.63.14L36,8l-.61-1.18c-.41.17-1,.41-1.57.72a16,16,0,0,0-1.5.88L33,9.62l-.33.32a7.61,7.61,0,0,0-1.06,1.26l-.26.39L30,11.19c-.15.36-.38.94-.6,1.62s-.35,1.25-.44,1.67l1.27.4v.47A8.2,8.2,0,0,0,30.4,17l.09.46-1.17.61A15.18,15.18,0,0,0,30,19.63c.33.64.66,1.17.87,1.5l1.18-.62.33.34a7,7,0,0,0,1.25,1l.39.27-.4,1.26a16.65,16.65,0,0,0,1.63.61c.68.21,1.29.35,1.67.43l.4-1.26h.47a7.38,7.38,0,0,0,1.63-.15l.46-.09.61,1.18c.37-.15.94-.39,1.58-.72s1.16-.66,1.49-.87L43,21.39l.34-.33a8.38,8.38,0,0,0,1.05-1.25l.26-.39,1.27.4c.15-.37.39-.94.6-1.63a.62.62,0,0,1,1.19.38A16.82,16.82,0,0,1,47,20.52a1,1,0,0,1-1.24.55l-.58-.18c-.2.26-.4.5-.62.74l.28.54a1,1,0,0,1-.34,1.32,18.27,18.27,0,0,1-1.78,1.06,20.48,20.48,0,0,1-1.9.86,1,1,0,0,1-1.27-.49l-.28-.54a7.77,7.77,0,0,1-1,.08l-.18.59A1,1,0,0,1,37.12,25.76Zm0-1.25Zm3.18-.27ZM45.82,20Zm-16-8.89Z"/><path class="cls-3" d="M14.09,25.09a.63.63,0,0,1-.59-.41A10.13,10.13,0,0,1,12.93,20a10.23,10.23,0,0,1,9-9A11.12,11.12,0,0,1,23.08,11a.63.63,0,1,1,0,1.25,8.6,8.6,0,0,0-1,.06,9,9,0,0,0-7.88,7.9,9.07,9.07,0,0,0,.49,4.08.62.62,0,0,1-.37.8A.52.52,0,0,1,14.09,25.09Z"/></g></svg>