<?xml version="1.0" encoding="utf-8"?>
<!-- Generator: Adobe Illustrator 22.1.0, SVG Export Plug-In . SVG Version: 6.00 Build 0)  -->
<svg version="1.1" id="Layer_1" xmlns="http://www.w3.org/2000/svg" xmlns:xlink="http://www.w3.org/1999/xlink" x="0px" y="0px"
	 viewBox="0 0 50 50" style="enable-background:new 0 0 50 50;" xml:space="preserve">
<style type="text/css">
	.st0{fill:#FF6B6B;}
	.st1{fill:#E56060;}
	.st2{fill:#494949;}
</style>
<g>
	<g>
		<path class="st0" d="M39.7,1.8H5.9c-2.2,0-4,1.8-4,4v13.9L43.5,4.5C43,2.9,41.5,1.8,39.7,1.8z"/>
	</g>
	<g>
		<path class="st1" d="M43.7,4.8c0-0.4-0.1-0.9-0.2-1.3L1.9,18.7V36l41.9-15.2v-16H43.7z"/>
	</g>
	<g>
		<circle class="st2" cx="6.2" cy="6" r="0.8"/>
	</g>
	<g>
		<circle class="st2" cx="8.9" cy="6" r="0.8"/>
	</g>
	<g>
		<circle class="st2" cx="11.5" cy="6" r="0.8"/>
	</g>
	<g>
		<path class="st2" d="M45,28.6V6.2C45,3.3,42.6,1,39.7,1H5.9C3,1,0.6,3.3,0.6,6.2v33.9c0,2.9,2.4,5.2,5.2,5.2h17.5h6.2v-0.1
			c2.1,2.3,5.1,3.8,8.4,3.8c6.3,0,11.4-5.1,11.4-11.4C49.4,34,47.7,30.7,45,28.6z M5.9,3.5h33.9c1.5,0,2.8,1.2,2.8,2.8v1.6H3.1V6.2
			C3.1,4.7,4.3,3.5,5.9,3.5z M3.1,40.1V10.3h11.1v32.5H5.9C4.3,42.8,3.1,41.6,3.1,40.1z M23.3,42.8h-6.6V10.3h25.8v16.8
			c-1.4-0.6-2.9-0.9-4.5-0.9c-6.3,0-11.4,5.1-11.4,11.4c0,1.9,0.5,3.7,1.3,5.2H23.3z M38,46.5c-4.9,0-8.9-4-8.9-8.9s4-8.9,8.9-8.9
			s8.9,4,8.9,8.9S42.9,46.5,38,46.5z"/>
		<path class="st2" d="M38,29.9c-4.3,0-7.8,3.5-7.8,7.8s3.5,7.8,7.8,7.8s7.8-3.5,7.8-7.8C45.7,33.3,42.3,29.9,38,29.9z M38,43.9
			c-3.4,0-6.3-2.8-6.3-6.3s2.8-6.3,6.3-6.3s6.3,2.8,6.3,6.3C44.2,41.1,41.4,43.9,38,43.9z"/>
		<path class="st2" d="M40.7,34.8L36.5,39l-1.3-1.3c-0.3-0.3-0.8-0.3-1.1,0s-0.3,0.8,0,1.1l2.4,2.4l5.2-5.2c0.3-0.3,0.3-0.8,0-1.1
			S41,34.5,40.7,34.8z"/>
	</g>
</g>
</svg>
