<svg xmlns="http://www.w3.org/2000/svg" id="Layer_1" x="0" y="0" version="1.1" viewBox="0 0 50 50" xml:space="preserve"><style>.st1{stroke-width:2.5}.st1,.st2,.st3{fill:none;stroke:#444;stroke-linecap:round;stroke-linejoin:round;stroke-miterlimit:10}.st3{stroke-width:.5}</style><path fill="#dc5e82" d="M48 20c-.2-.8-2.7-7.5-3.2-8.1l-3-3.5-.2.1L34 2.7 26.2 2C23 2 11.7 2.3 4.8 12.2l-4 10.7-.2.1 4 13.4c.1.4 4.5 5.7 4.9 5.9l5.6 3 32.2-11.7c.6-.5 1.6-8.8.7-13.6z"/><path d="M32.3 47.3c-7 2.3-15 1.2-21.3-3.6C.6 36-1.5 21.3 6.3 10.9" class="st1"/><path d="M6.1 11.1c2-3 4.7-4.7 4.7-4.7l.7-.5C19.6.1 30.8 0 39.1 6.3c10.4 7.8 12.4 22.5 4.7 32.8" class="st1"/><path d="M16.8 28.2l8.3-10.8s3.6-4.2 6.2-4.5c0 0 3.8-.5 5.9.2 0 0 .3 1.3.3 4.7 0 0 0 4-3.3 6.7l-11.3 9.6-6.1-5.9z" class="st2"/><path d="M23.3 19.8s-2-.7-4 .2c0 0-1 .5-2.4 2.1L13 26.7l3.7 1.5m14.4-.8s.9 2 .1 4c0 0-.4 1.1-1.9 2.5l-4.5 4.2-1.7-3.7" class="st2"/><path d="M3.8 32.7S6.5 29 9.2 31c0 0 1.2-1.6 2.4.2 0 0 1.5-2.9 4.2-.6l1.4-1.9m-1.3 1.9s1.7 3.1 4.6 4.5l1.7-1.6m-1.7 1.6s1.9 3-.7 5.3c0 0 2.2 2.5-.8 6" class="st3"/><path d="M37.2 20.1l-6.8-6.9s4.5-.6 6.5 0c-.1 0 1.3 4.5.3 6.9z" class="st2"/><circle cx="29.1" cy="21.6" r="2.4" class="st3"/></svg>