<?xml version="1.0" encoding="UTF-8"?>
<svg id="Camada_2" data-name="Camada 2" xmlns="http://www.w3.org/2000/svg" width="44.88" height="44.88" viewBox="0 0 44.88 44.88">
  <defs>
    <style>
      .cls-1 {
        fill: #e5e5e5;
      }

      .cls-1, .cls-2 {
        stroke-width: 0px;
      }

      .cls-2 {
        fill: #8852ca;
      }
    </style>
  </defs>
  <g id="Start">
    <g>
      <path class="cls-2" d="m23.9,24.01s0,0,0,0c-.12,0-.23-.03-.34-.07-.03-.01-.06-.02-.08-.03-.02-.01-.05-.02-.07-.03-.04-.02-.06-.06-.09-.08-.06-.04-.11-.08-.15-.14-.04-.05-.07-.1-.11-.16-.03-.05-.06-.11-.08-.17-.02-.07-.03-.13-.04-.2,0-.04-.02-.08-.02-.12,0-.02.01-.04.01-.06,0-.07.02-.13.04-.2.02-.07.03-.13.06-.19,0-.02,0-.04.02-.06.27-.46.41-.99.41-1.52,0-1.68-1.36-3.04-3.04-3.04s-3.04,1.36-3.04,3.04c0,.53.14,1.06.41,1.52.01.02.01.04.02.06.03.06.05.12.06.19.02.07.04.13.04.2,0,.02.01.04.01.06,0,.04-.02.08-.02.12,0,.07-.02.14-.04.2-.02.06-.05.11-.08.17-.03.06-.06.11-.11.16-.05.05-.1.09-.15.14-.03.03-.06.06-.09.08-.02.01-.04.01-.06.02-.06.03-.12.05-.19.06-.06.02-.13.04-.19.04-.02,0-.04.01-.06.01h-4.26v9.77c0,3.16,2.57,5.73,5.73,5.73h9.77v-2.83c-.34.07-.68.12-1.02.12-2.78,0-5.04-2.26-5.04-5.04s2.26-5.04,5.04-5.04c.34,0,.68.05,1.02.12v-2.83h-4.26s0,0,0,0Z"/>
      <path class="cls-2" d="m34.22,14.26c0-1.68-1.36-3.04-3.04-3.04-.53,0-1.06.14-1.52.41-.02.01-.04.01-.06.02-.06.03-.12.05-.19.06-.07.02-.13.04-.2.04-.02,0-.04.01-.06.01-.04,0-.08-.02-.12-.02-.07,0-.13-.02-.2-.04-.06-.02-.12-.05-.17-.08-.05-.03-.11-.06-.16-.1-.05-.05-.09-.1-.14-.15-.03-.03-.06-.06-.08-.09-.01-.02-.01-.04-.02-.06-.03-.06-.05-.12-.06-.19-.02-.07-.04-.13-.04-.2,0-.02-.01-.04-.01-.06v-4.26h-9.77c-3.16,0-5.73,2.57-5.73,5.73v9.77h2.83c-.07-.34-.12-.68-.12-1.02,0-2.78,2.26-5.04,5.04-5.04s5.04,2.26,5.04,5.04c0,.34-.05.68-.12,1.02h2.83v-4.26s.01-.04.01-.06c0-.07.02-.13.04-.19.02-.07.03-.13.06-.19,0-.02,0-.04.02-.06.02-.04.06-.06.08-.09.04-.06.08-.11.14-.15.05-.04.1-.07.16-.11.06-.03.11-.06.17-.08.06-.02.13-.03.2-.04.04,0,.08-.03.12-.03.02,0,.04.01.06.01.07,0,.13.02.19.04.07.02.13.03.19.06.02,0,.04,0,.06.02.46.27.99.41,1.52.41,1.68,0,3.04-1.36,3.04-3.04Z"/>
      <path class="cls-2" d="m42.84,24.01c.07.34.12.68.12,1.02,0,2.78-2.26,5.04-5.04,5.04s-5.04-2.26-5.04-5.04c0-.34.05-.68.12-1.02h-2.83v4.26s-.01.04-.01.06c0,.07-.02.13-.04.2-.02.07-.03.13-.06.19,0,.02,0,.04-.02.06-.02.04-.06.06-.08.09-.04.06-.08.11-.14.15-.05.04-.1.07-.16.11-.05.03-.11.06-.17.08-.07.02-.13.03-.21.04-.04,0-.08.02-.12.02-.02,0-.04-.01-.06-.01-.07,0-.13-.02-.2-.04-.06-.02-.13-.03-.19-.06-.02,0-.04,0-.06-.02-.46-.27-.99-.41-1.52-.41-1.68,0-3.04,1.36-3.04,3.04s1.36,3.04,3.04,3.04c.53,0,1.06-.14,1.52-.41.02-.01.04-.01.06-.02.06-.03.12-.05.19-.06.07-.02.13-.04.19-.04.02,0,.04-.01.06-.01.04,0,.08.02.12.02.07,0,.14.02.2.04.06.02.11.05.17.08.06.03.11.06.16.11.05.05.09.1.14.15.03.03.06.06.08.09.01.02.01.04.02.06.03.06.05.12.06.19.02.07.04.13.04.19,0,.02.01.04.01.06v4.26h9.77c2.11,0,3.95-1.15,4.95-2.85v-12.66h-2.04Z"/>
      <path class="cls-2" d="m39.93,6.5h-4.74c-.55,0-1-.45-1-1s.45-1,1-1h4.74c1.88,0,3.6.68,4.95,1.8v-.72c0-3.08-2.5-5.58-5.58-5.58H5.58C2.5,0,0,2.5,0,5.58v33.72c0,3.08,2.5,5.58,5.58,5.58h33.72c.96,0,1.87-.24,2.66-.67,1.61-.88,2.73-2.53,2.89-4.46-1.34,1.1-3.05,1.77-4.92,1.77h-21.55c-4.26,0-7.73-3.47-7.73-7.73V12.24c0-4.26,3.47-7.73,7.73-7.73h12.79c.55,0,1,.45,1,1s-.45,1-1,1h-1.02v2.83c.34-.07.68-.12,1.02-.12,2.78,0,5.04,2.26,5.04,5.04s-2.26,5.04-5.04,5.04c-.34,0-.68-.05-1.02-.12v2.83h4.26s.04.01.06.01c.06,0,.13.02.19.04.07.02.13.03.19.06.02,0,.04,0,.06.02.04.02.06.06.09.08.06.04.11.08.15.14.04.05.07.1.11.16.03.05.06.11.08.17.02.07.03.13.04.2,0,.04.02.08.02.12,0,.02-.01.04-.01.06,0,.07-.02.13-.04.2-.02.07-.03.13-.06.19,0,.02,0,.04-.02.06-.27.46-.41.99-.41,1.52,0,1.68,1.36,3.04,3.04,3.04s3.04-1.36,3.04-3.04c0-.53-.14-1.06-.41-1.52-.01-.02-.01-.04-.02-.06-.03-.06-.05-.12-.06-.19-.02-.07-.04-.13-.04-.19,0-.02-.01-.04-.01-.06,0-.04.02-.08.02-.12,0-.07.02-.13.04-.2.02-.06.05-.11.08-.17.03-.06.06-.11.11-.16.05-.05.1-.09.15-.14.03-.03.05-.06.09-.08.02-.01.04-.01.06-.02.06-.03.12-.05.19-.06.07-.02.13-.04.2-.04.02,0,.04-.01.06-.01h3.47v-12.66c-1-1.7-2.84-2.85-4.95-2.85Z"/>
      <path class="cls-1" d="m39.93,4.5h-4.74c-.55,0-1,.45-1,1s.45,1,1,1h4.74c2.11,0,3.95,1.15,4.95,2.85v-3.05c-1.34-1.12-3.07-1.8-4.95-1.8Z"/>
      <path class="cls-1" d="m41.35,22.02c-.07,0-.13.02-.2.04-.07.02-.13.03-.19.06-.02,0-.04,0-.06.02-.04.02-.06.06-.09.08-.06.04-.11.08-.15.14-.04.05-.07.1-.11.16-.03.06-.06.11-.08.17-.02.07-.03.13-.04.2,0,.04-.02.08-.02.12,0,.02.01.04.01.06,0,.07.02.13.04.19.02.07.03.13.06.19,0,.02,0,.04.02.06.27.46.41.99.41,1.52,0,1.68-1.36,3.04-3.04,3.04s-3.04-1.36-3.04-3.04c0-.53.14-1.06.41-1.52.01-.02.01-.04.02-.06.03-.06.05-.12.06-.19.02-.07.04-.13.04-.2,0-.02.01-.04.01-.06,0-.04-.02-.08-.02-.12,0-.07-.02-.14-.04-.2-.02-.06-.05-.11-.08-.17-.03-.06-.06-.11-.11-.16-.05-.05-.1-.09-.15-.14-.03-.03-.06-.06-.09-.08-.02-.01-.04-.01-.06-.02-.06-.03-.12-.05-.19-.06-.06-.02-.12-.03-.19-.04-.02,0-.04-.01-.06-.01h-4.26v-2.83c.34.07.68.12,1.02.12,2.78,0,5.04-2.26,5.04-5.04s-2.26-5.04-5.04-5.04c-.34,0-.68.05-1.02.12v-2.83h1.02c.55,0,1-.45,1-1s-.45-1-1-1h-12.79c-4.26,0-7.73,3.47-7.73,7.73v21.54c0,4.26,3.47,7.73,7.73,7.73h21.55c1.87,0,3.58-.66,4.92-1.77.01-.15.03-.3.03-.45v-2.63c-1,1.7-2.84,2.85-4.95,2.85h-9.77v-4.26s-.01-.04-.01-.06c0-.07-.02-.13-.04-.19-.02-.07-.03-.13-.06-.19,0-.02,0-.04-.02-.06-.02-.04-.06-.06-.08-.09-.04-.06-.08-.11-.14-.15-.05-.04-.1-.07-.16-.11-.05-.03-.11-.06-.17-.08-.07-.02-.13-.03-.2-.04-.04,0-.08-.02-.12-.02-.02,0-.04.01-.06.01-.07,0-.13.02-.19.04-.07.02-.13.03-.19.06-.02,0-.04,0-.06.02-.46.27-.99.41-1.52.41-1.68,0-3.04-1.36-3.04-3.04s1.36-3.04,3.04-3.04c.53,0,1.06.14,1.52.41.02.01.04.01.06.02.06.03.12.05.19.06.07.02.13.04.2.04.02,0,.04.01.06.01.04,0,.08-.02.12-.02.07,0,.14-.02.21-.04.06-.02.11-.05.17-.08.06-.03.11-.06.16-.11.05-.05.09-.1.14-.15.03-.03.06-.06.08-.09.01-.02.01-.04.02-.06.03-.06.05-.12.06-.19.02-.07.04-.13.04-.2,0-.02.01-.04.01-.06v-4.26h2.83c-.07.34-.12.68-.12,1.02,0,2.78,2.26,5.04,5.04,5.04s5.04-2.26,5.04-5.04c0-.34-.05-.68-.12-1.02h2.04v-2h-3.47s-.04.01-.06.01Zm-13.19,4.82c-.34-.07-.68-.12-1.02-.12-2.78,0-5.04,2.26-5.04,5.04s2.26,5.04,5.04,5.04c.34,0,.68-.05,1.02-.12v2.83h-9.77c-3.16,0-5.73-2.57-5.73-5.73v-9.77h4.26s.04-.01.06-.01c.07,0,.13-.02.19-.04.07-.02.13-.03.19-.06.02,0,.04,0,.06-.02.04-.02.06-.06.09-.08.06-.04.11-.08.15-.14.04-.05.07-.1.11-.16.03-.05.06-.11.08-.17.02-.07.03-.13.04-.2,0-.04.02-.08.02-.12,0-.02-.01-.04-.01-.06,0-.07-.02-.13-.04-.2-.02-.07-.03-.13-.06-.19,0-.02,0-.04-.02-.06-.27-.46-.41-.99-.41-1.52,0-1.68,1.36-3.04,3.04-3.04s3.04,1.36,3.04,3.04c0,.53-.14,1.06-.41,1.52-.01.02-.01.04-.02.06-.03.06-.05.12-.06.19-.02.07-.04.13-.04.2,0,.02-.01.04-.01.06,0,.04.02.08.02.12,0,.07.02.14.04.2.02.06.05.11.08.17.03.06.06.11.11.16.05.05.1.09.15.14.03.03.06.06.09.08.02.01.05.02.07.03.03.01.05.02.08.03.11.04.23.07.34.07,0,0,0,0,0,0s0,0,0,0h4.26v2.83Zm1.5-9.95s-.04-.01-.06-.02c-.06-.03-.12-.05-.19-.06-.06-.02-.13-.03-.19-.04-.02,0-.04-.01-.06-.01-.04,0-.08.02-.12.03-.07,0-.13.02-.2.04-.06.02-.12.05-.17.08-.06.03-.11.06-.16.11-.05.05-.09.1-.14.15-.03.03-.06.05-.08.09-.01.02-.01.04-.02.06-.03.06-.05.12-.06.19-.02.07-.04.13-.04.19,0,.02-.01.04-.01.06v4.26h-2.83c.07-.34.12-.68.12-1.02,0-2.78-2.26-5.04-5.04-5.04s-5.04,2.26-5.04,5.04c0,.34.05.68.12,1.02h-2.83v-9.77c0-3.16,2.57-5.73,5.73-5.73h9.77v4.26s.01.04.01.06c0,.07.02.13.04.2.02.07.03.13.06.19,0,.02,0,.04.02.06.02.04.06.06.08.09.04.06.08.11.14.15.05.04.1.07.16.1.06.03.11.06.17.08.07.02.13.03.2.04.04,0,.08.02.12.02.02,0,.04-.01.06-.01.07,0,.13-.02.2-.04.07-.02.13-.03.19-.06.02,0,.04,0,.06-.02.46-.27.99-.41,1.52-.41,1.68,0,3.04,1.36,3.04,3.04s-1.36,3.04-3.04,3.04c-.53,0-1.05-.14-1.52-.41Z"/>
    </g>
  </g>
</svg>