<?xml version="1.0" encoding="utf-8"?>
<!-- Generator: Adobe Illustrator 27.8.1, SVG Export Plug-In . SVG Version: 6.00 Build 0)  -->
<svg version="1.1" id="Layer_1" xmlns="http://www.w3.org/2000/svg" xmlns:xlink="http://www.w3.org/1999/xlink" x="0px" y="0px"
	 viewBox="0 0 50 50" style="enable-background:new 0 0 50 50;" xml:space="preserve">
<style type="text/css">
	.st0{fill:#46B8B0;}
	.st1{fill:none;stroke:#444444;stroke-linecap:round;stroke-miterlimit:10;}
	.st2{fill:none;stroke:#444444;stroke-width:2.5;stroke-linecap:round;stroke-miterlimit:10;}
</style>
<g>
	<path class="st0" d="M18.3,9.2l-4-7.3c-1.4,0-10.2,3.9-10.2,5.3l-1.4,6.7c0,0.2,2.9,3.3,2.9,3.5l-1.6,3L3,40.1l7.4,7.5
		c0.5,0.3,5.8,1.6,6.4,1.4L49,37.6l-7.8-27.2l-13.5,3.2l-2.7-4.3C25.1,7.8,19.8,9.2,18.3,9.2z"/>
	<g>
		<path class="st1" d="M11.4,47.1l-6.9-6.9V20.5c0-1.1,0.9-2,2-2h3.7"/>
		<path class="st1" d="M28.1,18.6H35c1.1,0,2,0.9,2,2v20.1"/>
		<polyline class="st1" points="5.1,39.6 11.8,39.6 11.8,46.8 		"/>
		<path class="st1" d="M21.3,23.5l3.7,3.6c0.8,0.7,2,0.7,2.8,0l0,0c0.8-0.8,0.8-2,0-2.8l-3.6-3.6"/>
		<path class="st1" d="M11.2,18.3c-2.2,2-2.4,5.1-0.8,6.6c2.3,2.3,8.3,0.6,12.1-3.2s5-8.8,2.7-11c-1.5-1.5-4.2-1.4-6.9-0.2"/>
		<path class="st1" d="M15.4,7.7l4,4c0.7,0.7,0.6,1.8,0.4,2.9"/>
		<path class="st1" d="M17.9,17.4c-1.8,1.8-4.4,2.4-5.6,1.3l-3.9-4"/>
		<path class="st1" d="M6.4,5.8c-3,3-4.2,6.6-2.6,8.2c1.5,1.5,5.2,0.4,8.2-2.6c3-3,4.2-6.6,2.6-8.2C13.1,1.6,9.4,2.8,6.4,5.8z"/>
		<path class="st1" d="M29.1,13.7l10.1-2.8c1.1-0.3,2.1,0.4,2.4,1.4L47.7,36c0.3,1.1-0.4,2.1-1.4,2.4L37,40.8"/>
	</g>
	<path class="st2" d="M27.6,47.9L13,48c-1.4,0-2.8-0.5-3.9-1.5l-3.2-2.8c-1.5-1.3-2.3-3.2-2.3-5.2V20.6c0-1.9,1.5-3.4,3.4-3.3l2.6,0
		l-1.9-1.5c-5.4,0.9-5.9-2.9-5.9-2.9S1.2,5.6,10.3,2c7.9-3.2,5.5,4.6,5.5,4.6l2.8,2.9c8-3.3,8.7,3.9,8.7,3.9l11.4-3.6
		c1.5-0.5,3.1,0.4,3.5,1.9l6.3,23.8c0.4,1.4-0.3,2.8-1.6,3.5l-9.2,2.2v1.9"/>
</g>
</svg>
