<svg xmlns="http://www.w3.org/2000/svg" id="Layer_1" x="0" y="0" version="1.1" viewBox="0 0 48 47" xml:space="preserve"><style>.st3,.st4{fill:none;stroke:#515251;stroke-width:1.5;stroke-linejoin:round;stroke-miterlimit:10}.st4,.st6{stroke-linecap:round}.st6{fill:none;stroke:#515251;stroke-miterlimit:10}</style><switch><g><path fill="#fdcf72" d="M43.4 11.8c-.2-.4-.3-.7-.4-.8-.1-.1-.3-.2-.4-.3-2.6-2.1-6.1-4.1-9.1-5.5-.3-.2-.5-.4-.7-.5h-.4c-1.4 0-2.4-.6-3-1.4-.6-.1-1.1-.4-1.5-.8-1.1-.1-1.9-.6-2.5-1.3-3.3.8-6.6 2.3-9.5 3.8-2.5 1.3-4.7 3.1-7.2 4.5-1.6 1-3.4 1.9-5.1 2.9-.2 2.2.5 5.3.3 7.1-.3 3.1-.6 6.3-.9 9.4.2.4.3.9.3 1.4l41.4-15.1v-.8c-.6-.7-.7-1.5-1.3-2.6z"/><path fill="#fcc34f" d="M45.1 23.3c0-.3.1-.5.2-.7-.4-1-.3-2.1.1-3.1-.5-1-.6-2.2-.3-3.3-.5-1.1-.6-2.4-.1-3.5-.7-.3-1.2-.9-1.6-1.5-.6-.3-1.1-.8-1.4-1.4h-.8c-1.6 0-2.7-.9-3.3-2L3.5 20.3c.1.4.2.8.2 1.3 0 2.2 0 4.4-.1 6.6 0 .8-.3 1.5-.7 2.1.1.1.1.3.2.4.3.8.2 1.6-.1 2.3.6 1 1.1 2.1 1.6 3.1v.1c1.3.2 2.6.6 3.8 1.3.7.4 2.2 2 2.5 2.7l33.7-12.3c-.6-1.4-.5-3.3.5-4.6z"/><path fill="#444" d="M24 46.9c-1 0-2-.2-2.8-.7l-15.9-9c-1.8-1-2.8-2.8-2.8-4.8V14.6c0-2 1.1-3.8 2.8-4.8L21.2.9c1.8-1 3.9-1 5.7 0l15.9 8.9c1.8 1 2.8 2.8 2.8 4.8v13.1c0 .6-.5 1.2-1.2 1.2s-1.2-.5-1.2-1.2V14.6c0-1.1-.6-2.2-1.6-2.8l-16-8.9c-1-.6-2.3-.6-3.3 0L6.5 11.8c-1 .6-1.6 1.6-1.6 2.8v17.9c0 1.1.6 2.2 1.6 2.8l15.9 8.9c1 .6 2.3.6 3.3 0l4.4-2.5c.6-.3 1.3-.1 1.6.4.3.6.1 1.3-.4 1.6l-4.4 2.5c-.9.5-1.9.7-2.9.7z"/><path d="M25.4 13.4h-2.8c-.4 0-.7.3-.7.7v12.4c0 .4.3.7.7.7h14.5c.4 0 .7-.3.7-.7V14.1c0-.4-.3-.7-.7-.7H25.4" class="st3"/><path d="M25.4 12v2.8m9-2.8v2.8" class="st4"/><path d="M37.8 17.5H21.9" class="st3"/><path d="M19.7 21h-6.1m0 0h-2.8c-.4 0-.7.3-.7.7v12.4c0 .4.3.7.7.7h14.5c.4 0 .7-.3.7-.7v-4.7m-12.4-9.8v2.8m6.1 2.7h-9.5" class="st4"/><path fill="#515251" d="M31.5 20h1.4v.8h-1.4zm2.2 0h1.4v.8h-1.4zm-6.8 0h1.4v.8h-1.4zm-2.2 0h1.4v.8h-1.4zm9 2.2h1.4v.8h-1.4zm-2.2 0h1.4v.8h-1.4zm-4.6 0h1.4v.8h-1.4zm6.8 2.3h1.4v.8h-1.4zm-2.2 0h1.4v.8h-1.4zM29.2 20h1.4v.8h-1.4zm0 2.2h1.4v.8h-1.4zm0 2.3h1.4v.8h-1.4zm-9.8 3.2h1.4v.8h-1.4zm-4.5 0h1.4v.8h-1.4zm-2.3 0H14v.8h-1.4zm9 2.3H23v.8h-1.4zm-2.2 0h1.4v.8h-1.4zm-4.5 0h1.4v.8h-1.4zm6.7 2.3H23v.8h-1.4zm-2.2 0h1.4v.8h-1.4zm-2.3-4.6h1.4v.8h-1.4zm0 2.3h1.4v.8h-1.4zm0 2.3h1.4v.8h-1.4z"/><path d="M30.1 34.6h4.8c.8 0 1.4-.6 1.4-1.4v-3.4" class="st6"/><path d="M32.2 36.7l-2.1-2.1 2.1-2M17.9 13.2h-4.8c-.8 0-1.4.6-1.4 1.4V18" class="st6"/><path d="M15.8 11.2l2.1 2-2.1 2" class="st6"/></g></switch></svg>