<?xml version="1.0" encoding="utf-8"?>
<!-- Generator: Adobe Illustrator 27.9.0, SVG Export Plug-In . SVG Version: 6.00 Build 0)  -->
<svg version="1.1" id="Camada_1" xmlns="http://www.w3.org/2000/svg" xmlns:xlink="http://www.w3.org/1999/xlink" x="0px" y="0px"
	 viewBox="0 0 49 50" style="enable-background:new 0 0 49 50;" xml:space="preserve">
<style type="text/css">
	.st0{fill:#DC5E82;}
	.st1{fill:none;stroke:#444444;stroke-width:2.5;stroke-linecap:round;stroke-linejoin:round;stroke-miterlimit:10;}
	.st2{fill:none;stroke:#444444;stroke-linecap:round;stroke-linejoin:round;stroke-miterlimit:10;}
	.st3{fill:none;stroke:#444444;stroke-width:0.5;stroke-linecap:round;stroke-linejoin:round;stroke-miterlimit:10;}
</style>
<g>
	<path class="st0" d="M44.9,2.6H3.8c-1.4,0-1.4,3.8-1.4,5.2L2.2,24.8L1.7,35l1.2,11.8l12.4,0.6l32.1-11.4V5.4V5.2v0
		C47.5,3.8,46.3,2.6,44.9,2.6z"/>
	<path class="st1" d="M32.3,48.1h-27c-1.9,0-3.4-1.6-3.4-3.5V5.6c0-1.9,1.5-3.5,3.4-3.5h39c1.9,0,3.4,1.6,3.4,3.5v32.5"/>
	<g>
		<line class="st2" x1="40.2" y1="42.3" x2="6.5" y2="42.3"/>
		<g>
			<path class="st3" d="M17,28.2c-0.9-1.9-1.5-4-1.5-6.2c-0.1-7.9,6.2-14.4,14.2-14.5c7.9-0.1,14.4,6.2,14.5,14.2
				C44.3,29.5,38,36,30.1,36.1"/>
			<polyline class="st3" points="29.5,7.5 29.5,21.9 37.7,33.7 			"/>
			<line class="st3" x1="44.2" y1="21.8" x2="29.7" y2="21.9"/>
		</g>
		<path class="st2" d="M24.3,42.2h5.9v-6.7c0-0.7-0.6-1.4-1.4-1.4h-3.2c-0.7,0-1.3,0.6-1.3,1.4V42.2z"/>
		<path class="st2" d="M18.3,42.2h5.9V23.3c0-0.7-0.6-1.4-1.3-1.4h-3.2c-0.7,0-1.4,0.6-1.4,1.4V42.2z"/>
		<path class="st2" d="M12.5,42.2h5.9V29.5c0-0.7-0.6-1.4-1.4-1.4h-3.2c-0.7,0-1.3,0.6-1.3,1.4V42.2z"/>
		<path class="st2" d="M6.5,42.2h5.9V16.8c0-0.7-0.6-1.3-1.4-1.3H7.9c-0.7,0-1.3,0.6-1.3,1.3V42.2z"/>
	</g>
</g>
</svg>
