<svg xmlns="http://www.w3.org/2000/svg" viewBox="0 0 50 50"><defs><clipPath id="a"><path fill="none" d="M25 48.2h16.9c1 0 1.9-.2 2.7-.7 1.7-.9 2.9-2.8 2.9-4.9V8.9c0-3.1-2.5-5.6-5.6-5.6H8.1C5 3.3 2.5 5.8 2.5 8.9v33.7c0 3.1 2.5 5.6 5.6 5.6h16.8z"/></clipPath></defs><path fill="#7f4abf" d="M25 48.2h16.9c1 0 1.9-.2 2.7-.7 1.7-.9 2.9-2.8 2.9-4.9V8.9c0-3.1-2.5-5.6-5.6-5.6H8.1C5 3.3 2.5 5.8 2.5 8.9v33.7c0 3.1 2.5 5.6 5.6 5.6h16.8z"/><g fill="none" stroke="#e5e5e5" stroke-width="2" clip-path="url(#a)"><circle cx="32.3" cy="25.8" r="19.3" stroke-miterlimit="10"/><path stroke-linecap="round" stroke-linejoin="round" d="M32.3 25.8l-11.5-9.7M32.3 34v-8.2m0-16.9V6.5M15.4 25.8h-2.3m19.2 19.3v-2.3"/></g></svg>