<svg xmlns="http://www.w3.org/2000/svg" id="Layer_1" x="0" y="0" version="1.1" viewBox="0 0 50 50" xml:space="preserve"><style>.st2{fill:#031326}</style><path fill="#f56991" d="M25.4 11L4.1 19.6l8.5 3.4v1.5l24.3-8.8z"/><path fill="#dc5e82" d="M37.5 28.7v-5.8l8.5-3.4-9.6-3.8-23.8 8.7v9.4c0 1.3 1.4 2.6 3.6 3.6l21.4-7.8v-.9z"/><path d="M25 39.7c-7.2 0-13.2-2.9-13.2-6.4v-8.6L25 30l13.2-5.3v5.7c0 .7-.6 1.2-1.2 1.2s-1.2-.6-1.2-1.2v-2L25 32.7l-10.7-4.3v4.9c0 1.3 4.2 3.9 10.7 3.9 3.5 0 6.9-.8 9.1-2.1.6-.4 1.4-.2 1.7.4.4.6.2 1.4-.4 1.7-2.6 1.6-6.4 2.5-10.4 2.5z" class="st2"/><path d="M48.4 19.7L25 10.3 1.6 19.7 25 29l18.8-7.5v7.6c0 .7.6 1.2 1.2 1.2s1.2-.6 1.2-1.2v-8.5l2.2-.9zM25 26.3L8.3 19.7 25 13l16.7 6.7L25 26.3zm20.1 11.9c-1.8 0-3.3-1.5-3.3-3.3s1.5-3.3 3.3-3.3c1.8 0 3.3 1.5 3.3 3.3s-1.5 3.3-3.3 3.3zm0-4.1c-.4 0-.8.4-.8.8s.4.8.8.8.8-.4.8-.8-.4-.8-.8-.8z" class="st2"/></svg>