<?xml version="1.0" encoding="utf-8"?>
<!-- Generator: Adobe Illustrator 22.1.0, SVG Export Plug-In . SVG Version: 6.00 Build 0)  -->
<svg version="1.1" id="Layer_1" xmlns="http://www.w3.org/2000/svg" xmlns:xlink="http://www.w3.org/1999/xlink" x="0px" y="0px"
	 viewBox="0 0 50 50" style="enable-background:new 0 0 50 50;" xml:space="preserve">
<style type="text/css">
	.st0{fill:#B9D7D9;}
	.st1{fill:#A6C1C2;}
	.st2{fill:#494949;}
	.st3{fill:#F56991;}
	.st4{fill:#DC5E82;}
	.st5{fill:#00DFFC;}
	.st6{fill:#00C8E2;}
</style>
<g>
	<path class="st0" d="M44,25.9c-0.7-0.5-1.5-0.7-2.3-0.7c-0.2,0-0.5,0-0.7,0.1c-0.1-0.2-0.2-0.3-0.4-0.4c-0.5-0.4-1.2-0.2-1.6,0.3
		l-3.6-2.5l0.7-1c0.3-0.5,0.2-1.1-0.2-1.4L28,14.7c0.3-0.4,0.5-0.7,0.6-1.1L24.7,15L13,19.3l2.8,1.9c-0.4,1.4,0,2.6,1.2,3.6
		c1.7,1.1,3.7,0.6,4.8-1.2l2.8,2V31c-1.4,0.6-2.4,1.9-2.6,3.4l3.3-2l4-0.7l0.1-2.4c0.2,0.1,0.3,0.1,0.5,0.2c0.4,0.1,0.6-0.1,0.9-0.4
		l0.7-1l3.2,2.3L45,26.6L44,25.9z"/>
	<g>
		<path class="st1" d="M28.8,11.9c-0.1-0.8-0.6-1.6-1.3-2.1C26.2,9,24.8,9,23.7,9.9l-6.2-4.3c0.4-1.3-0.1-2.7-1.2-3.6
			c-0.6-0.4-1.2-0.6-1.9-0.6c-1.1,0-2,0.5-2.6,1.4L5,12.5c-0.5,0.7-0.7,1.6-0.5,2.4c0.1,0.8,0.6,1.6,1.3,2.1
			c1.2,0.8,2.7,0.8,3.8-0.1l3.4,2.4l15.6-5.7C28.8,13,28.9,12.5,28.8,11.9z"/>
	</g>
	<g>
		<path class="st2" d="M46.1,26.1l-1.4-1c-0.9-0.6-1.9-0.9-3-0.9c-0.7,0-1.3,0.1-1.8,0.3l-2.8-2v-0.1c0.6-1,0.4-2.3-0.6-3.1
			l-6.9-4.8c0.4-0.9,0.5-1.7,0.4-2.6s-0.6-1.8-1.3-2.5c-0.2-0.2-0.4-0.5-0.7-0.7c-0.8-0.6-1.8-0.8-2.9-0.7c-0.1,0-0.2,0-0.2,0.1
			c-0.4,0.1-0.9,0.2-1.3,0.4l-4.9-3.4c0.1-1.5-0.5-3-1.8-4l0.1,0c-0.8-0.5-1.7-0.8-2.6-0.8c-1.5,0-2.8,0.7-3.6,1.9L4,11.9
			c-0.7,1-1,2.2-0.7,3.4c0.1,0.7,0.5,1.5,1,2.1l0.1,0.1c0.1,0.1,0.1,0.1,0.2,0.2c0,0,0,0.1,0.1,0.1c0,0,0,0,0.1,0
			c0.1,0.1,0.3,0.3,0.5,0.4c1.4,0.9,3.1,1.1,4.5,0.4l4.8,3.3c-0.1,0.5-0.1,1,0,1.5c0.2,1,0.7,1.9,1.5,2.5c0.4,0.3,0.8,0.5,1.2,0.6
			c0.9,0.4,1.8,0.5,2.8,0.3c0.8-0.2,1.6-0.6,2.2-1.2l1.3,0.9v4.9c-1.1,0.8-1.8,2.2-1.8,3.6c0,0.7,0.1,1.3,0.4,1.8l-6.6,11
			c-0.4,0.6-0.2,1.4,0.4,1.7c0.2,0.1,0.4,0.2,0.6,0.2c0.4,0,0.8-0.2,1.1-0.6l6.2-10.3c0.4,0.2,0.8,0.4,1.2,0.6v5.2
			c0,0.7,0.6,1.2,1.2,1.2s1.2-0.6,1.2-1.2v-5.2c0.4-0.1,0.7-0.2,1-0.4l6.1,10.1c0.2,0.4,0.6,0.6,1.1,0.6c0.2,0,0.4-0.1,0.6-0.2
			c0.6-0.4,0.8-1.1,0.4-1.7l-6.4-10.6c0.4-0.7,0.6-1.4,0.6-2.2c0-0.5-0.1-1-0.2-1.4l0.1-2.7c0.4-0.1,0.8-0.3,1.1-0.7l0.1-0.1
			l0.1,0.1c0.1,0.1,0.1,0.2,0.2,0.2c0.1,0.1,0.2,0.1,0.3,0.1l2.2,1.6c0,1.7,0.8,3.3,2.2,4.3l1.3,0.8c0.4,0.2,0.8,0.4,1.2,0.4
			c0.6,0,1.2-0.3,1.7-0.7l5.2-7.5C47.1,28.2,47,27,46.1,26.1z M7.9,15.5C7.7,15.8,7.4,15.9,7,16c-0.3,0-0.6,0-0.9-0.2
			c-0.2-0.3-0.4-0.6-0.4-0.9v-0.1c-0.1-0.4,0-1,0.3-1.4l6.8-9.7c0.4-0.6,0.9-0.8,1.6-0.8c0.2,0,0.4,0,0.6,0.1l0.1,0.1
			c0.6,0.4,0.7,1.2,0.3,1.8L7.9,15.5z M15.5,19.7l-5.1-3.5L17,7l5.1,3.5L15.5,19.7z M19.2,23.5c-0.3,0.4-0.8,0.6-1.3,0.5
			c0,0-0.1,0-0.1-0.1c-0.7-0.6-0.9-1.1-0.8-1.9c0,0,0-0.1,0.1-0.2L24.9,11c0.2-0.2,0.4-0.4,0.7-0.5c0.5,0,0.9,0.2,1.3,0.4
			c0,0,0,0,0.1,0.1c0.4,0.5,0.4,1.1,0.1,1.6L19.2,23.5z M26.2,37.1c-1.2,0-2.1-1-2.1-2.1s1-2.1,2.1-2.1c1.2,0,2.1,1,2.1,2.1
			S27.4,37.1,26.2,37.1z M31.3,26.5L30,28.3c-0.2-0.1-0.3-0.1-0.5-0.1l0,0c-0.3,0-0.6,0.1-0.9,0.3l0,0c-0.1,0.1-0.2,0.2-0.3,0.3
			c0,0,0,0,0,0.1l0,0c0,0.1-0.1,0.2-0.1,0.3c0,0.1,0,0.1-0.1,0.2l0,0L28,30.8c-0.6-0.3-1.3-0.5-2-0.5c-0.1,0-0.2,0-0.3,0v-4.6v-0.1
			c0-0.1,0-0.2-0.1-0.3c0-0.1,0-0.1-0.1-0.2c0-0.1-0.1-0.1-0.1-0.2c-0.1-0.1-0.1-0.1-0.2-0.2c0,0,0-0.1-0.1-0.1l-2.6-1.9l4.9-6.8
			l7.4,5.1l-1.3,1.8l1.2,0.9l-2.3,3.5L31.3,26.5z M36,29.8l-1.4-1l2.3-3.5l1.4,1L36,29.8z M44.3,27.9L39.4,35l-1-0.7
			c-0.6-0.4-1-1.1-1.1-1.8l0.1-0.1l3.6-5.6l0,0c0.2-0.1,0.5-0.1,0.7-0.1c0.6,0,1.1,0.2,1.5,0.5L44.3,27.9L44.3,27.9z"/>
		<path class="st2" d="M26.2,33.7c-0.7,0-1.2,0.6-1.2,1.2s0.6,1.2,1.2,1.2s1.2-0.6,1.2-1.2S26.9,33.7,26.2,33.7z"/>
	</g>
	<path class="st2" d="M29.4,31.7l1.2-0.5L30,29.4c-0.1,0-0.3-0.1-0.5-0.2L29.4,31.7z"/>
</g>
<g>
	<circle class="st0" cx="-69.9" cy="31" r="20"/>
	<circle class="st1" cx="-49.9" cy="31" r="20"/>
</g>
<g>
	<circle class="st3" cx="-66.8" cy="-17.1" r="20"/>
	<circle class="st4" cx="-46.7" cy="-17.1" r="20"/>
</g>
<g>
	<circle class="st5" cx="-69.9" cy="80.5" r="20"/>
	<circle class="st6" cx="-49.9" cy="80.5" r="20"/>
</g>
</svg>
