<?xml version="1.0" encoding="utf-8"?>
<!-- Generator: Adobe Illustrator 22.0.1, SVG Export Plug-In . SVG Version: 6.00 Build 0)  -->
<svg version="1.1" id="Layer_1" xmlns="http://www.w3.org/2000/svg" xmlns:xlink="http://www.w3.org/1999/xlink" x="0px" y="0px"
	 viewBox="0 0 50 50" style="enable-background:new 0 0 50 50;" xml:space="preserve">
<style type="text/css">
	.st0{fill:#ECC158;}
	.st1{fill:#F0CD77;}
	.st2{fill:#464646;}
	.st3{fill:#444444;}
</style>
<g>
	<g>
		<path class="st0" d="M43.3,28.6c0.4-2,0.5-4.1,0.2-6.2l4.6-2.6l-2.4-6.3l-5.1,1.2c-0.8-1.1-1.6-2.1-2.6-3.1L6.5,23
			c-0.2,1.5-0.2,3.1,0.1,4.7L2,30.2l2.4,6.3l5.1-1.2c1.1,1.7,2.5,3.1,4,4.3l30-10.9L43.3,28.6z"/>
	</g>
	<g>
		<path class="st1" d="M36.2,10.1l1.4-5.1l-6.2-2.8l-2.8,4.4c-2-0.4-4.1-0.5-6.2-0.2L19.8,2l-6.3,2.4l1.2,5.1
			c-1.8,1.2-3.3,2.6-4.5,4.3l-5-1.4l-2.8,6.2l4.4,2.8c-0.1,0.5-0.2,1.1-0.2,1.6l31.4-11.4C37.3,11,36.8,10.6,36.2,10.1z"/>
	</g>
	<g>
		<path class="st2" d="M29.6,49.6L27,44.8c-1.6,0.2-3.3,0.1-4.9-0.1l-2.9,4.6l-8.2-3.6l1.5-5.3c-1.3-1.1-2.4-2.3-3.4-3.6L3.6,38
			l-3.2-8.4L5.2,27c-0.2-1.6-0.1-3.3,0.1-4.9l-4.6-2.9l3.6-8.2l5.3,1.5c1.1-1.3,2.3-2.4,3.6-3.4L12,3.6l8.4-3.2L23,5.2
			c1.6-0.2,3.3-0.1,4.9,0.1l2.9-4.7l8.2,3.6l-1.5,5.3c1.3,1.1,2.4,2.3,3.4,3.6l5.4-1.2l3.2,8.4L44.8,23c0.2,1.9,0.1,3.9-0.3,5.8
			c-0.1,0.7-0.8,1.1-1.5,1c-0.7-0.1-1.1-0.8-1-1.5c0.4-1.9,0.4-3.9,0.2-5.8l-0.1-0.9l4.4-2.4l-1.7-4.3L39.9,16l-0.5-0.7
			c-1.1-1.6-2.4-3-4-4.2l-0.7-0.5l1.4-4.8l-4.2-1.9l-2.7,4.3L28.4,8c-1.9-0.4-3.9-0.4-5.8-0.2l-0.9,0.1l-2.4-4.4l-4.3,1.7l1.1,4.9
			l-0.7,0.5c-1.6,1.1-3,2.4-4.2,4l-0.5,0.7l-4.8-1.4l-1.9,4.2l4.3,2.7L8,21.6c-0.4,1.9-0.4,3.9-0.2,5.8l0.1,0.9l-4.4,2.4l1.7,4.3
			l4.9-1.1l0.5,0.7c1.1,1.6,2.4,3,4,4.2l0.7,0.5l-1.4,4.8l4.2,1.9l2.7-4.3l0.8,0.2c1.9,0.4,3.9,0.4,5.8,0.2l0.9-0.1l2.4,4.4l4.3-1.7
			l-0.9-4.1c-0.2-0.7,0.3-1.3,0.9-1.5c0.7-0.2,1.3,0.3,1.5,0.9l1.4,6.2L29.6,49.6z"/>
	</g>
	<g>
		<path class="st2" d="M25,39.7c-8.1,0-14.7-6.6-14.7-14.7c0-8.1,6.6-14.7,14.7-14.7c8.1,0,14.7,6.6,14.7,14.7
			C39.7,33.1,33.1,39.7,25,39.7z M25,10.8c-7.8,0-14.2,6.4-14.2,14.2S17.2,39.2,25,39.2S39.2,32.8,39.2,25S32.8,10.8,25,10.8z"/>
	</g>
	<path class="st3" d="M25,12.8c-6.7,0-12.2,5.5-12.2,12.2S18.3,37.2,25,37.2S37.2,31.7,37.2,25S31.7,12.8,25,12.8z M20.2,33.4v-2.2
		c0-1.2,2.7-2.1,4.7-2.3c0,0,0.1,0,0.1,0c0.1,0,0.2,0,0.3,0c0,0,0.1,0,0.1,0c2.1,0,5.2,1,5.2,2.3v1.7C29,34,27.1,34.7,25,34.7
		C23.2,34.7,21.6,34.2,20.2,33.4z M22.6,24.4v-1.2c0-1.4,1-2.5,2.3-2.5c1.3,0,2.3,1.1,2.3,2.5v1.2c0,1.3-0.8,2.4-2,2.5
		c-0.1,0-0.3,0-0.4,0C23.6,26.8,22.6,25.8,22.6,24.4z M32.5,31.1c-0.1-2.1-2.2-3.2-4.3-3.8c0.6-0.8,1-1.8,1-2.9v-1.2
		c0-2.5-1.9-4.5-4.3-4.5c-2.4,0-4.3,2-4.3,4.5v1.2c0,1.2,0.4,2.3,1.2,3.1c-1.9,0.6-3.6,1.8-3.6,3.7v0.7c-1.8-1.8-2.8-4.2-2.8-6.9
		c0-5.3,4.3-9.7,9.7-9.7c5.3,0,9.7,4.3,9.7,9.7C34.7,27.3,33.9,29.4,32.5,31.1z"/>
</g>
</svg>
