<?xml version="1.0" encoding="utf-8"?>
<!-- Generator: Adobe Illustrator 27.5.0, SVG Export Plug-In . SVG Version: 6.00 Build 0)  -->
<svg version="1.1" id="Camada_3" xmlns="http://www.w3.org/2000/svg" xmlns:xlink="http://www.w3.org/1999/xlink" x="0px" y="0px"
	 viewBox="0 0 50 50" style="enable-background:new 0 0 50 50;" xml:space="preserve">
<style type="text/css">
	.st0{fill:#FDCF72;}
	.st1{fill:#FCC34F;}
	.st2{fill:none;stroke:#444444;stroke-width:2.5;stroke-linecap:round;stroke-linejoin:round;stroke-miterlimit:10;}
	.st3{fill:none;stroke:#444444;stroke-width:0.5;stroke-miterlimit:10;}
	.st4{fill:#444444;}
	.st5{fill:none;stroke:#444444;stroke-linecap:round;stroke-linejoin:round;stroke-miterlimit:10;}
</style>
<g>
	<g>
		<g>
			<path class="st0" d="M34,2.9l-7.8-0.7C23,2.2,11.7,2.5,4.8,12.4l-4,10.8l41-14.4L34,2.9z"/>
			<path class="st1" d="M0.6,23.1l4,13.4c0.1,0.4,4.6,5.6,4.9,5.9l5.6,3l32.2-11.7c0.7-0.4,1.7-8.6,0.7-13.4
				c-0.2-0.8-2.7-7.5-3.2-8.1l-3-3.5L0.6,23.1z"/>
		</g>
		<g>
			<g>
				<g>
					<path class="st2" d="M36.8,45.5C28.9,50,18.7,49.7,11,43.9C0.6,36.1-1.4,21.4,6.3,11.1"/>
					<path class="st2" d="M6.2,11.2c2-3,4.7-4.7,4.7-4.7L11.6,6c8.1-5.7,19.2-5.8,27.6,0.5c10.4,7.8,12.4,22.5,4.7,32.8"/>
				</g>
			</g>
		</g>
	</g>
	<path class="st3" d="M22.9,6.2c-6.1,0.7-11.4,4.3-14.4,9.4l2.4-0.2c0,0,0.1,0,0.1,0c0.1,0,0.1,0,0.2,0c0,0,0.1,0,0.1,0
		c0,0,0.1,0,0.1,0c0.1,0,0.1,0,0.1,0c0,0,0.1,0,0.1,0.1c0,0,0.1,0,0.1,0.1c0,0,0.1,0.1,0.1,0.1c0,0,0.1,0.1,0.1,0.1
		c0,0,0.1,0.1,0.1,0.1c0,0,0.1,0.1,0.1,0.1c0,0,0,0,0,0.1l1.3,2.2c2-3.2,5.3-5.6,9.2-6.3c0-0.1,0.1-0.2,0.1-0.2l1.7-2.9L22.9,6.2z
		 M39.4,35.5C39.4,35.5,39.4,35.5,39.4,35.5c-0.1,0-0.2,0-0.2,0c0,0-0.1,0-0.1,0c0,0-0.1,0-0.1,0c-0.1,0-0.1,0-0.1,0
		c0,0-0.1,0-0.1-0.1c0,0-0.1,0-0.1-0.1c0,0-0.1-0.1-0.1-0.1c0,0-0.1-0.1-0.1-0.1c0,0-0.1-0.1-0.1-0.1c0,0-0.1-0.1-0.1-0.1
		c0,0,0,0,0-0.1l-1.3-2.2c-2,3.2-5.3,5.6-9.2,6.3c0,0.1-0.1,0.2-0.1,0.2L25.8,42l1.6,2.7c6.1-0.7,11.4-4.3,14.4-9.4L39.4,35.5z
		 M22.8,42.7c0,0,0-0.1-0.1-0.1c0,0,0-0.1,0-0.1c0,0,0-0.1,0-0.1c0-0.1,0-0.1,0-0.1c0,0,0-0.1,0-0.1s0-0.1,0-0.1c0-0.1,0-0.1,0-0.1
		c0,0,0-0.1,0-0.1c0,0,0-0.1,0-0.1c0-0.1,0-0.1,0.1-0.1c0,0,0,0,0-0.1l1.3-2.2c-3.6-0.3-6.8-1.9-9-4.4c-0.1,0-0.2,0-0.3,0l-3.3,0.1
		l-1.4,2.8c3.3,4.1,8.4,6.9,14,7.2L22.8,42.7C22.8,42.7,22.8,42.7,22.8,42.7z M10.2,32c0.1,0,0.1,0,0.1,0c0.1,0,0.1,0,0.2,0
		c0,0,0,0,0.1,0l2.5-0.1c-1-1.9-1.6-4.1-1.6-6.5c0-1.4,0.2-2.8,0.6-4.1c-0.1-0.1-0.1-0.1-0.2-0.2l-1.7-2.8L7,18.5
		c-0.8,2.2-1.3,4.5-1.3,6.9c0,3.4,0.9,6.7,2.5,9.5l1.1-2.2c0,0,0,0,0-0.1c0,0,0.1-0.1,0.1-0.1c0,0,0.1-0.1,0.1-0.1
		c0,0,0.1-0.1,0.1-0.1c0,0,0.1-0.1,0.1-0.1c0,0,0.1-0.1,0.1-0.1c0,0,0.1-0.1,0.1-0.1c0,0,0.1,0,0.1-0.1C10.2,32.1,10.2,32.1,10.2,32
		z M42.1,16L41,18.1c0,0,0,0,0,0.1c0,0-0.1,0.1-0.1,0.1c0,0-0.1,0.1-0.1,0.1c0,0-0.1,0.1-0.1,0.1c0,0-0.1,0.1-0.1,0.1
		c0,0-0.1,0.1-0.1,0.1c0,0-0.1,0.1-0.1,0.1c0,0-0.1,0-0.1,0.1c0,0-0.1,0-0.1,0c-0.1,0-0.1,0-0.1,0l-0.2,0c0,0,0,0-0.1,0L37.2,19
		c1,1.9,1.6,4.1,1.6,6.5c0,1.4-0.2,2.8-0.6,4.1c0.1,0.1,0.1,0.1,0.2,0.2l1.7,2.8l3.2-0.2c0.8-2.2,1.3-4.5,1.3-6.9
		C44.5,22,43.6,18.8,42.1,16z M26.2,6.1l1.3,2.1c0,0,0,0,0,0.1c0,0,0,0.1,0.1,0.1c0,0,0,0.1,0,0.1c0,0,0,0.1,0,0.1
		c0,0.1,0,0.1,0,0.1c0,0,0,0.1,0,0.1c0,0,0,0.1,0,0.1c0,0.1,0,0.1,0,0.1c0,0,0,0.1,0,0.1c0,0,0,0.1,0,0.1c0,0.1,0,0.1-0.1,0.1
		c0,0,0,0,0,0.1l-1.3,2.2c3.6,0.3,6.8,1.9,9,4.4c0.1,0,0.2,0,0.3,0l3.3-0.1l1.4-2.8C36.9,9.1,31.9,6.4,26.2,6.1z"/>
	<g>
		<circle class="st4" cx="25.2" cy="25.5" r="4.3"/>
		<path class="st5" d="M30.7,33.1l2-2l-1.6-1.6c0.5-0.8,0.9-1.6,1-2.5h2.3V24h-2.3c-0.2-0.9-0.5-1.7-1-2.5l1.6-1.6l-2-2l-1.6,1.6
			c-0.8-0.5-1.6-0.9-2.5-1v-2.3h-2.9v2.3c-0.9,0.2-1.7,0.5-2.5,1l-1.6-1.6l-2,2l1.6,1.6c-0.5,0.8-0.9,1.6-1,2.5h-2.3v2.9h2.3
			c0.2,0.9,0.5,1.7,1,2.5L17.5,31l2,2l1.6-1.6c0.8,0.5,1.6,0.9,2.5,1v2.3h2.9v-2.3c0.9-0.2,1.7-0.5,2.5-1L30.7,33.1z"/>
	</g>
</g>
</svg>
