<?xml version="1.0" encoding="utf-8"?>
<!-- Generator: Adobe Illustrator 28.0.0, SVG Export Plug-In . SVG Version: 6.00 Build 0)  -->
<svg version="1.1" id="Layer_1" xmlns="http://www.w3.org/2000/svg" xmlns:xlink="http://www.w3.org/1999/xlink" x="0px" y="0px"
	 viewBox="0 0 50 50" style="enable-background:new 0 0 50 50;" xml:space="preserve">
<style type="text/css">
	.st0{fill:#DC5E82;}
	.st1{fill:none;stroke:#444444;stroke-width:2.5;stroke-linecap:round;stroke-linejoin:round;stroke-miterlimit:10;}
	.st2{fill:none;stroke:#444444;stroke-linecap:round;stroke-linejoin:round;stroke-miterlimit:10;}
	.st3{fill:none;stroke:#444444;stroke-width:0.5;stroke-linecap:round;stroke-linejoin:round;stroke-miterlimit:10;}
</style>
<path class="st0" d="M48,20c-0.2-0.8-2.7-7.5-3.2-8.1l-3-3.5l-0.2,0.1l-7.6-5.8l-7.8-0.7c-3.2,0-14.5,0.3-21.4,10.2L0.8,22.9
	l-0.2,0.1l4,13.4c0.1,0.4,4.5,5.7,4.9,5.9l5.6,3l32.2-11.7C47.9,33.1,48.9,24.8,48,20z"/>
<g>
	<g>
		<g>
			<path class="st1" d="M32.3,47.3c-7,2.3-15,1.2-21.3-3.6C0.6,36-1.5,21.3,6.3,10.9"/>
			<path class="st1" d="M6.1,11.1c2-3,4.7-4.7,4.7-4.7l0.7-0.5C19.6,0.1,30.8,0,39.1,6.3c10.4,7.8,12.4,22.5,4.7,32.8"/>
		</g>
	</g>
</g>
<g>
	<path class="st2" d="M16.8,28.2l8.3-10.8c0,0,3.6-4.2,6.2-4.5c0,0,3.8-0.5,5.9,0.2c0,0,0.3,1.3,0.3,4.7c0,0,0,4-3.3,6.7l-11.3,9.6
		L16.8,28.2z"/>
	<path class="st2" d="M23.3,19.8c0,0-2-0.7-4,0.2c0,0-1,0.5-2.4,2.1L13,26.7l3.7,1.5"/>
	<path class="st2" d="M31.1,27.4c0,0,0.9,2,0.1,4c0,0-0.4,1.1-1.9,2.5l-4.5,4.2l-1.7-3.7"/>
	<path class="st3" d="M3.8,32.7c0,0,2.7-3.7,5.4-1.7c0,0,1.2-1.6,2.4,0.2c0,0,1.5-2.9,4.2-0.6l1.4-1.9"/>
	<path class="st3" d="M15.9,30.6c0,0,1.7,3.1,4.6,4.5l1.7-1.6"/>
	<path class="st3" d="M20.5,35.1c0,0,1.9,3-0.7,5.3c0,0,2.2,2.5-0.8,6"/>
	<path class="st2" d="M37.2,20.1l-6.8-6.9c0,0,4.5-0.6,6.5,0C36.8,13.2,38.2,17.7,37.2,20.1z"/>
	<circle class="st3" cx="29.1" cy="21.6" r="2.4"/>
</g>
</svg>
