<svg xmlns="http://www.w3.org/2000/svg" id="Layer_1" x="0" y="0" version="1.1" viewBox="0 0 50 50" xml:space="preserve"><style>.st2{fill:#031326}</style><path fill="#e589ef" d="M46.6 25c0 4.8-1.6 9.3-4.3 12.9L20.1 46C10.6 43.7 3.5 35.2 3.5 25 3.5 13.1 13.2 3.5 25 3.5S46.6 13.1 46.6 25z"/><path fill="#f799ff" d="M41.6 11.3L3.5 25.1V25C3.5 13.1 13.2 3.5 25 3.5c6.7 0 12.7 3 16.6 7.8z"/><path d="M25 2.2C12.4 2.2 2.2 12.4 2.2 25S12.4 47.8 25 47.8c.7 0 1.2-.6 1.2-1.2s-.6-1.2-1.2-1.2c-5.6 0-10.7-2.3-14.4-6 .6-2.9 3.5-5.5 7.8-6.9 1.8 1.7 4.2 2.6 6.7 2.6s4.9-.9 6.7-2.6c4 1.3 6.9 3.7 7.7 6.5 0 .1.2.2.3.2.1 0 .2-.2.2-.3-.9-3-3.9-5.6-8.1-6.9h-.2l-.1.1c-1.8 1.7-4 2.6-6.5 2.6-2.4 0-4.7-.9-6.5-2.6l-.1-.1h-.1c-4.3 1.4-7.3 4-8.1 7C8.4 37 7 34.7 6 32.1c.4-.1.9-.1 1.4-.1 2.7 0 5.8-1.5 8.5-4.2l.1-.1v-.1c-.2-.8-.4-1.7-.4-2.6 0-4 2.5-7.6 6.3-8.9l.1-.1v-.2c.7-4.5-.2-8.3-2.5-10.4 1.8-.4 3.6-.7 5.5-.7s3.8.3 5.5.8c-2.3 2.1-3.2 5.9-2.4 10.4v.1h.1c3.8 1.3 6.3 4.9 6.3 8.9 0 .9-.1 1.8-.4 2.6v.1l.1.1c2.7 2.7 5.8 4.2 8.5 4.2.5 0 .9-.1 1.3-.1-.7 1.9-1.6 3.6-2.8 5.3-.4.6-.3 1.3.2 1.8.5.4 1.3.3 1.8-.2 3-4 4.6-8.7 4.6-13.7C47.7 12.4 37.5 2.2 25 2.2zm-3.4 13.5c-3.9 1.4-6.5 5.2-6.5 9.3 0 .9.1 1.8.3 2.6-3.2 3.2-6.8 4.5-9.7 3.7-.7-2-1-4.1-1-6.3 0-9.1 6-16.8 14.3-19.4 2.3 1.9 3.3 5.6 2.6 10.1zm13.1 11.9c.2-.8.3-1.7.3-2.6 0-4.2-2.6-7.9-6.5-9.3-.7-4.4.3-8.1 2.5-10C39.3 8.3 45.2 15.9 45.2 25c0 2.2-.3 4.3-1 6.4-2.9.7-6.4-.7-9.5-3.8z" class="st2"/><path d="M18.7 25c0 3.5 2.8 6.3 6.3 6.3s6.3-2.8 6.3-6.3-2.8-6.3-6.3-6.3-6.3 2.8-6.3 6.3zm12.2 0c0 3.2-2.6 5.8-5.8 5.8s-5.8-2.6-5.8-5.8 2.6-5.8 5.8-5.8c3.1 0 5.8 2.6 5.8 5.8z" class="st2"/></svg>