<?xml version="1.0" encoding="utf-8"?>
<!-- Generator: Adobe Illustrator 22.0.1, SVG Export Plug-In . SVG Version: 6.00 Build 0)  -->
<svg version="1.1" id="Layer_1" xmlns="http://www.w3.org/2000/svg" xmlns:xlink="http://www.w3.org/1999/xlink" x="0px" y="0px"
	 viewBox="0 0 50 50" style="enable-background:new 0 0 50 50;" xml:space="preserve">
<style type="text/css">
	.st0{fill:#E589EF;}
	.st1{fill:#F799FF;}
	.st2{fill:#444444;}
</style>
<g>
	<path class="st0" d="M46.6,25c0,4.8-1.6,9.3-4.3,12.9l-22.2,8.1C10.6,43.7,3.5,35.2,3.5,25C3.5,13.1,13.2,3.5,25,3.5
		S46.6,13.1,46.6,25z"/>
</g>
<g>
	<path class="st1" d="M41.6,11.3L3.5,25.1V25C3.5,13.1,13.2,3.5,25,3.5C31.7,3.5,37.7,6.5,41.6,11.3z"/>
</g>
<g>
	<path class="st2" d="M25,2.2C12.4,2.2,2.2,12.4,2.2,25S12.4,47.8,25,47.8c0.7,0,1.2-0.6,1.2-1.2s-0.6-1.2-1.2-1.2
		c-5.6,0-10.7-2.3-14.4-6c0.6-2.9,3.5-5.5,7.8-6.9c1.8,1.7,4.2,2.6,6.7,2.6c2.5,0,4.9-0.9,6.7-2.6c4,1.3,6.9,3.7,7.7,6.5
		c0,0.1,0.2,0.2,0.3,0.2c0.1,0,0.2-0.2,0.2-0.3c-0.9-3-3.9-5.6-8.1-6.9l-0.2,0l-0.1,0.1c-1.8,1.7-4,2.6-6.5,2.6
		c-2.4,0-4.7-0.9-6.5-2.6l-0.1-0.1l-0.1,0c-4.3,1.4-7.3,4-8.1,7c-1.9-2-3.3-4.3-4.3-6.9C6.4,32,6.9,32,7.4,32c2.7,0,5.8-1.5,8.5-4.2
		l0.1-0.1l0-0.1c-0.2-0.8-0.4-1.7-0.4-2.6c0-4,2.5-7.6,6.3-8.9L22,16v-0.2c0.7-4.5-0.2-8.3-2.5-10.4C21.3,5,23.1,4.7,25,4.7
		c1.9,0,3.8,0.3,5.5,0.8c-2.3,2.1-3.2,5.9-2.4,10.4l0,0.1l0.1,0c3.8,1.3,6.3,4.9,6.3,8.9c0,0.9-0.1,1.8-0.4,2.6l0,0.1l0.1,0.1
		c2.7,2.7,5.8,4.2,8.5,4.2c0.5,0,0.9-0.1,1.3-0.1c-0.7,1.9-1.6,3.6-2.8,5.3c-0.4,0.6-0.3,1.3,0.2,1.8c0.5,0.4,1.3,0.3,1.8-0.2
		c3-4,4.6-8.7,4.6-13.7C47.7,12.4,37.5,2.2,25,2.2z M21.6,15.7c-3.9,1.4-6.5,5.2-6.5,9.3c0,0.9,0.1,1.8,0.3,2.6
		c-3.2,3.2-6.8,4.5-9.7,3.7c-0.7-2-1-4.1-1-6.3c0-9.1,6-16.8,14.3-19.4C21.3,7.5,22.3,11.2,21.6,15.7z M34.7,27.6
		c0.2-0.8,0.3-1.7,0.3-2.6c0-4.2-2.6-7.9-6.5-9.3c-0.7-4.4,0.3-8.1,2.5-10C39.3,8.3,45.2,15.9,45.2,25c0,2.2-0.3,4.3-1,6.4
		C41.3,32.1,37.8,30.7,34.7,27.6z"/>
	<path class="st2" d="M18.7,25c0,3.5,2.8,6.3,6.3,6.3s6.3-2.8,6.3-6.3s-2.8-6.3-6.3-6.3S18.7,21.5,18.7,25z M30.9,25
		c0,3.2-2.6,5.8-5.8,5.8s-5.8-2.6-5.8-5.8s2.6-5.8,5.8-5.8C28.2,19.2,30.9,21.8,30.9,25z"/>
</g>
</svg>
