<svg xmlns="http://www.w3.org/2000/svg" id="Camada_3" x="0" y="0" version="1.1" viewBox="0 0 50 50" xml:space="preserve"><style>.st1{fill:#b68af3}.st2{fill:#e5e5e5}</style><path fill="none" stroke="#e5e5e5" stroke-linecap="round" stroke-linejoin="round" stroke-miterlimit="10" d="M37.9 31.3l-2.8 3.2"/><path d="M18.8 28.5c1.7-.1 2.9-1.4 2.9-3.3v-1.4c0-1.8-1.2-3.2-2.9-3.3h-.1c-.7 0-1.4.3-2 .8-.7.6-1 1.5-1 2.4v1.5c0 .9.4 1.8 1 2.4.5.6 1.3.9 2.1.9zM40.2 27c1.5-.2 2.7-1.4 2.9-2.9.2-1.1-.2-2.2-1-3-.7-.7-1.5-1-2.5-1H39c-1.5.2-2.7 1.4-2.9 2.9-.2 1.1.2 2.2 1 3 .9.8 2 1.1 3.1 1z" class="st1"/><path d="M45.2 33c.4-.4 1-.5 1.4-.1l1.5 1.2V12.9l-1.5 1.2c-.3.3-.8.3-1.2.1-1.1-.7-2.2-1.1-3.4-1.4-.4-.1-.7-.5-.8-.9L41 8.5h-2.8l-.2 3.4c0 .4-.3.8-.8.9-1.2.3-2.3.7-3.4 1.4-.4.2-.8.2-1.2-.1L30 11.9l-2 2 2.2 2.6c.3.3.3.8.1 1.2-.7 1.1-1.1 2.2-1.4 3.4-.1.4-.5.7-.9.8l-2 .1c-.6 0-1-.4-1.1-.9 0-.6.4-1 .9-1.1l1.3-.1c.3-.9.6-1.8 1.1-2.7l-2.3-2.7c-.3-.4-.3-1 .1-1.4l3.3-3.3c.4-.4 1-.4 1.4-.1l2.7 2.3c.8-.5 1.7-.8 2.7-1.1l.3-3.6c0-.5.5-.9 1-.9H42c.5 0 1 .4 1 .9l.3 3.6c.9.3 1.8.6 2.7 1.1l2.2-1.9v-.8c0-3.1-2.5-5.6-5.6-5.6H8.8c-3.1 0-5.6 2.5-5.6 5.6v33.8c0 3.1 2.5 5.6 5.6 5.6h33.7c1 0 1.9-.2 2.7-.7 1.7-.9 2.9-2.8 2.9-4.9v-6.3l-2.8-2.4c-.4-.3-.4-1-.1-1.4zm-10-10.2c.3-1.9 1.8-3.4 3.7-3.7 1.4-.2 2.9.2 3.9 1.3 1 1 1.5 2.4 1.3 3.9-.3 1.9-1.8 3.4-3.7 3.7-.2 0-.5.1-.7.1-1.2 0-2.3-.5-3.2-1.3-1.1-1.1-1.5-2.5-1.3-4zm-11 14.4l3.6-5.4c.4-.5 1-.9 1.6-.9H40c.7 0 1.4.4 1.7 1 .4.6.3 1.4 0 2L37.4 41c-.4.6-1 .9-1.7.9h-4.2c-.3 0-.5-.2-.5-.5s.2-.5.5-.5h4.2c.3 0 .6-.2.8-.5l4.3-7.1c.2-.3.2-.7 0-1s-.4-.3-.7-.3H29.4c-.3 0-.6.2-.8.4L25 37.8c-.2.2-.5.3-.7.1-.2-.1-.2-.4-.1-.7zM13.6 23.8c0-1.5.6-2.9 1.6-3.9 1-.9 2.2-1.4 3.6-1.4 2.7.1 4.8 2.4 4.8 5.3v1.4c0 2.9-2.1 5.2-4.8 5.3h-.2c-1.2 0-2.4-.5-3.4-1.4-1-1-1.6-2.4-1.6-3.9v-1.4zm31 21.8h-29c-.3 0-.5-.2-.5-.5s.2-.5.5-.5h3.8l-4.6-5.5c-.4-.4-.3-1.1.1-1.4.4-.4 1.1-.3 1.4.1l4.7 5.6h5.5c.7 0 1.6-.2 1.9-1.6 0-.1 0-.2-.1-.3 0 0-.1-.1-.3-.1h-4.6c-.3 0-.6-.1-.8-.3L16 33.6c-.1-.1-.2-.1-.2-.1h-1.4c-2.3 0-2.9 2.2-3 3.1-.3 2.4-1 7.9-1 8-.1.5-.5.9-1 .9h-.1c-.5-.1-.9-.6-.9-1.1 0-.1.7-5.6 1-8 .4-3 2.3-4.9 5-4.9H16c.7 0 1.3.3 1.8.8l6.3 7.2h4.1c.7 0 1.4.3 1.8.9.4.5.6 1.3.5 1.9-.2 1-.7 1.8-1.3 2.3h15.4c.3 0 .5.2.5.5s-.2.5-.5.5z" class="st1"/><path d="M39.6 28c.2 0 .5 0 .7-.1 1.9-.3 3.4-1.8 3.7-3.7.2-1.4-.2-2.9-1.3-3.9-1-1-2.4-1.5-3.9-1.3-1.9.3-3.4 1.8-3.7 3.7-.2 1.4.2 2.9 1.3 3.9.9.9 2 1.4 3.2 1.4zm-3.4-5c.2-1.5 1.4-2.7 2.9-2.9h.6c.9 0 1.8.4 2.5 1 .8.8 1.2 1.9 1 3-.2 1.5-1.4 2.7-2.9 2.9-1.1.2-2.2-.2-3-1-.9-.8-1.3-1.9-1.1-3zm7-12L43 7.4c0-.5-.5-.9-1-.9h-4.7c-.5 0-1 .4-1 .9L36 11c-.9.3-1.8.6-2.7 1.1l-2.7-2.3c-.4-.3-1-.3-1.4.1L26 13.1c-.4.4-.4 1-.1 1.4l2.3 2.7c-.5.8-.8 1.7-1.1 2.7l-1.3.1c-.5 0-1 .5-.9 1.1 0 .6.5 1 1.1.9l2.1-.2c.4 0 .8-.3.9-.8.3-1.2.7-2.3 1.4-3.4.2-.4.2-.8-.1-1.2L28 13.9l2-2 2.6 2.2c.3.3.8.3 1.2.1 1.1-.7 2.2-1.1 3.4-1.4.4-.1.7-.5.8-.9l.3-3.4H41l.3 3.4c0 .4.3.8.8.9 1.2.3 2.3.7 3.4 1.4.4.2.9.2 1.2-.1l1.5-1.2v-2.6L46 12.2c-.9-.5-1.8-.9-2.8-1.2zm3.5 21.9c-.4-.4-1-.3-1.4.1-.4.4-.3 1.1.1 1.4l2.8 2.4v-2.6l-1.5-1.3zm-28.1-2.4h.2c2.7-.1 4.8-2.4 4.8-5.3v-1.4c0-2.9-2.1-5.2-4.8-5.3-1.3 0-2.6.4-3.6 1.4-1 1-1.6 2.4-1.6 3.9v1.5c0 1.5.6 2.9 1.6 3.9 1 .8 2.2 1.3 3.4 1.3zm-3-6.7c0-.9.4-1.8 1-2.4.6-.5 1.3-.8 2-.8h.1c1.7.1 2.9 1.4 2.9 3.3v1.4c0 1.8-1.2 3.2-2.9 3.3-.8 0-1.5-.3-2.1-.8-.7-.6-1-1.5-1-2.4v-1.6zm9.4 14l3.6-5.4c.2-.3.5-.4.8-.4H40c.3 0 .7.2.8.5s.2.7 0 1l-4.3 7.1c-.2.3-.5.5-.8.5h-4.2c-.3 0-.5.2-.5.5s.2.5.5.5h4.2c.7 0 1.3-.4 1.7-.9l4.3-7.1c.4-.6.4-1.3 0-2-.4-.6-1-1-1.7-1H29.4c-.7 0-1.3.3-1.6.9l-3.6 5.4c-.2.2-.1.5.1.7.3 0 .6-.1.7-.3z" class="st2"/><path d="M44.6 44.6H29.2c.6-.5 1.1-1.3 1.3-2.3.1-.7 0-1.4-.5-1.9-.4-.6-1.1-.9-1.8-.9h-4.1l-6.3-7.2c-.4-.5-1.1-.8-1.8-.8h-1.4c-2.7 0-4.6 1.9-5 4.9l-1 8c-.1.5.3 1 .9 1.1h.1c.5 0 .9-.4 1-.9 0-.1.7-5.6 1-8 .1-.9.7-3.1 3-3.1H16c.1 0 .2 0 .2.1l6.6 7.5c.2.2.5.3.8.3h4.6c.1 0 .2.1.3.1 0 .1.1.1.1.3-.3 1.4-1.2 1.6-1.9 1.6h-5.5l-4.7-5.6c-.4-.4-1-.5-1.4-.1-.4.4-.5 1-.1 1.4l4.6 5.5h-3.8c-.3 0-.5.2-.5.5s.2.5.5.5h29c.3 0 .5-.2.5-.5s-.4-.5-.7-.5z" class="st2"/></svg>