<svg xmlns="http://www.w3.org/2000/svg" version="1.0" viewBox="0 0 50 50"><path fill="#46B8B0" d="M46.561 24.985c0 4.828-1.59 9.276-4.258 12.87l-22.204 8.078C10.597 43.714 3.516 35.174 3.516 24.985c0-11.885 9.643-21.516 21.528-21.516S46.561 13.1 46.561 24.985z"/><path fill="#4ECDC4" d="M41.626 11.273L3.516 25.139v-.154c0-11.885 9.643-21.516 21.528-21.516 6.678-.001 12.632 3.036 16.582 7.804z"/><g fill="#031326"><path d="M24.962 2.216c-12.558 0-22.774 10.217-22.774 22.774s10.217 22.774 22.774 22.774a1.25 1.25 0 0 0 0-2.5c-5.617 0-10.706-2.299-14.381-6.002.65-2.943 3.491-5.52 7.75-6.926a9.88 9.88 0 0 0 6.705 2.612 9.883 9.883 0 0 0 6.709-2.604c3.995 1.306 6.855 3.742 7.664 6.536a.25.25 0 1 0 .481-.139c-.864-2.984-3.9-5.57-8.123-6.916l-.188-.012-.072.068a9.384 9.384 0 0 1-6.471 2.565 9.388 9.388 0 0 1-6.471-2.577l-.108-.102-.141.045c-4.349 1.4-7.303 3.994-8.134 7.009a20.282 20.282 0 0 1-4.265-6.949c.483.103.98.159 1.49.159 2.722 0 5.758-1.46 8.483-4.192l.104-.105-.042-.143a9.145 9.145 0 0 1-.369-2.598c0-4.009 2.531-7.594 6.297-8.921l.167-.059v-.168c.735-4.48-.215-8.27-2.493-10.378a20.163 20.163 0 0 1 5.408-.755c1.92 0 3.772.286 5.534.787-2.259 2.122-3.191 5.909-2.445 10.377l.024.145.139.049a9.488 9.488 0 0 1 6.286 8.921c0 .905-.124 1.783-.368 2.609l-.043.143.105.105c2.724 2.733 5.759 4.192 8.481 4.192.457 0 .902-.051 1.339-.134a20.186 20.186 0 0 1-2.85 5.269 1.248 1.248 0 0 0 .246 1.75c.55.416 1.336.306 1.75-.246 2.994-3.971 4.576-8.707 4.576-13.694 0-12.552-10.216-22.769-22.774-22.769zm-3.389 13.439c-3.888 1.437-6.489 5.171-6.489 9.341 0 .892.117 1.765.348 2.596-3.196 3.159-6.796 4.506-9.721 3.719a20.162 20.162 0 0 1-1.022-6.321c0-9.096 6.023-16.811 14.289-19.371 2.309 1.923 3.293 5.618 2.595 10.036zm13.079 11.949c.23-.83.348-1.707.348-2.607a9.99 9.99 0 0 0-6.479-9.341c-.699-4.385.263-8.061 2.54-9.998 8.207 2.595 14.175 10.279 14.175 19.333a20.27 20.27 0 0 1-1.02 6.375c-2.896.697-6.426-.66-9.564-3.762z"/><path d="M18.725 24.991c0 3.483 2.834 6.317 6.317 6.317s6.317-2.834 6.317-6.317-2.834-6.317-6.317-6.317-6.317 2.834-6.317 6.317zm12.134 0a5.823 5.823 0 0 1-5.817 5.817 5.823 5.823 0 0 1-5.817-5.817 5.824 5.824 0 0 1 5.817-5.817 5.823 5.823 0 0 1 5.817 5.817z"/></g></svg>