<?xml version="1.0" encoding="utf-8"?>
<!-- Generator: Adobe Illustrator 24.0.0, SVG Export Plug-In . SVG Version: 6.00 Build 0)  -->
<svg version="1.1" id="Layer_1" xmlns="http://www.w3.org/2000/svg" xmlns:xlink="http://www.w3.org/1999/xlink" x="0px" y="0px"
	 viewBox="0 0 50 50" style="enable-background:new 0 0 50 50;" xml:space="preserve">
<style type="text/css">
	.st0{fill:#FCC34F;}
	.st1{fill:#FDCF72;}
	.st2{fill:#444444;}
</style>
<path class="st0" d="M41.5,27.6c0-0.1,0.1-0.3,0.3-0.3l6.2-0.9v-2.8l-6.2-0.9c-0.1,0-0.3-0.1-0.3-0.3c-0.2-1.2-0.5-2.3-0.9-3.4
	c-0.1-0.1,0-0.3,0.1-0.4l4.9-3.9l-1.4-2.4l-5.8,2.3c-0.1,0.1-0.3,0-0.4-0.1c-0.5-0.7-1.1-1.3-1.7-1.8L2.1,25.2v1.3l6.2,0.9
	c0.1,0,0.3,0.1,0.3,0.3C8.7,28.8,9,30,9.4,31.1c0.1,0.1,0,0.3-0.1,0.4l-4.9,3.9l1.4,2.4l5.8-2.3c0.1-0.1,0.3,0,0.4,0.1
	c0.8,0.9,1.6,1.8,2.5,2.5c0.1,0.1,0.2,0.2,0.1,0.4l-0.4,1L41,29.7C41.3,29,41.4,28.3,41.5,27.6z"/>
<path class="st1" d="M36,12.3c-0.1-0.1-0.2-0.2-0.1-0.4l2.3-5.8l-2.4-1.4l-3.9,4.9c-0.1,0.1-0.2,0.2-0.4,0.1
	c-1.1-0.4-2.3-0.7-3.4-0.9c-0.1,0-0.3-0.1-0.3-0.3l-0.9-6.2h-2.8l-0.9,6.2c0,0.1-0.1,0.3-0.3,0.3c-1.2,0.2-2.3,0.5-3.4,0.9
	c-0.1,0.1-0.3,0-0.4-0.1l-3.9-4.9l-2.4,1.4l2.3,5.8c0.1,0.1,0,0.3-0.1,0.4c-0.9,0.7-1.8,1.6-2.5,2.5C12.4,15,12.2,15,12.1,15
	l-5.8-2.3l-1.4,2.4L9.8,19c0.1,0.1,0.2,0.2,0.1,0.4c-0.4,1.1-0.7,2.3-0.9,3.4C9,22.9,8.9,23,8.7,23l-6.1,1v1.5L36.8,13
	C36.5,12.8,36.3,12.6,36,12.3z"/>
<g>
	<path class="st2" d="M27.5,49.2h-5l-1-6.6c-0.8-0.2-1.6-0.4-2.3-0.6L15,47.3l-4.3-2.5l2.4-6.2c-0.6-0.5-1.2-1.1-1.7-1.7l-6.2,2.4
		L2.7,35l5.2-4.1c-0.3-0.8-0.5-1.5-0.6-2.3l-6.6-1v-5l6.6-1c0.2-0.8,0.4-1.6,0.6-2.3L2.7,15l2.5-4.3l6.2,2.4
		c0.5-0.6,1.1-1.2,1.7-1.7l-2.4-6.2L15,2.7l4.1,5.2c0.8-0.3,1.5-0.5,2.3-0.6l1-6.6h5l1,6.6c0.8,0.2,1.6,0.4,2.3,0.6L35,2.7l4.3,2.5
		l-2.4,6.2c0.6,0.5,1.2,1.1,1.7,1.7l6.2-2.4l2.5,4.3l-5.2,4.1c0.3,0.8,0.5,1.5,0.6,2.3l6.6,1v5l-6.6,1c-0.2,0.8-0.4,1.6-0.6,2.3
		l5.2,4.1l-2.5,4.3L38,36.4c-0.7-0.3-1-1-0.7-1.7s1-1,1.7-0.7l4.7,1.9l0.3-0.5l-4-3.2c-0.6-0.4-0.8-1.2-0.5-1.9
		c0.4-1,0.7-2.1,0.8-3.2c0.1-0.7,0.7-1.3,1.4-1.4l5-0.8v-0.5l-5-0.8c-0.7-0.1-1.3-0.7-1.4-1.4c-0.2-1.1-0.5-2.1-0.8-3.2
		c-0.3-0.7-0.1-1.4,0.5-1.9l4-3.2L43.6,14l-4.7,1.9c-0.7,0.3-1.4,0.1-1.9-0.5c-0.7-0.8-1.5-1.6-2.3-2.3c-0.6-0.5-0.8-1.2-0.5-1.9
		L36,6.4l-0.5-0.3l-3.2,4c-0.4,0.6-1.2,0.8-1.9,0.5c-1-0.4-2.1-0.7-3.2-0.8c-0.7-0.1-1.3-0.7-1.4-1.4l-0.8-5h-0.5l-0.8,5
		c-0.1,0.7-0.7,1.3-1.4,1.4c-1.1,0.2-2.1,0.5-3.2,0.8c-0.7,0.3-1.4,0.1-1.9-0.5l-3.2-4l0,0.3l1.9,4.7c0.3,0.7,0.1,1.4-0.5,1.9
		c-0.8,0.7-1.6,1.5-2.3,2.3c-0.5,0.6-1.2,0.8-1.9,0.5L6.4,14l-0.3,0.4l4,3.2c0.6,0.4,0.8,1.2,0.5,1.9c-0.4,1-0.7,2.1-0.8,3.2
		c-0.1,0.7-0.7,1.3-1.4,1.4l-5,0.8v0.5l5,0.8c0.7,0.1,1.3,0.7,1.4,1.4c0.2,1.1,0.5,2.1,0.8,3.2c0.3,0.7,0.1,1.4-0.5,1.9l-4,3.2
		L6.4,36l4.7-1.9c0.7-0.3,1.4-0.1,1.9,0.5c0.7,0.9,1.5,1.6,2.3,2.3c0.6,0.4,0.8,1.2,0.5,1.9L14,43.6l0.5,0.3l3.2-4
		c0.4-0.6,1.2-0.8,1.9-0.5c1,0.4,2.1,0.7,3.2,0.8c0.7,0.1,1.3,0.7,1.4,1.4l0.8,5h0.5l0.8-5c0.1-0.7,0.7-1.3,1.4-1.4
		c1.1-0.2,2.1-0.5,3.2-0.8c0.7-0.3,1.4-0.1,1.9,0.5l3.2,4l1-0.9c0.6-0.4,1.4-0.1,1.8,0.5c0.4,0.6,0.1,1.4-0.5,1.8l-3.3,2l-4.1-5.2
		c-0.8,0.3-1.5,0.5-2.3,0.6L27.5,49.2z M28.6,42L28.6,42L28.6,42z M13.7,39L13.7,39L13.7,39z M42.8,27.8L42.8,27.8L42.8,27.8z
		 M42.8,22.2L42.8,22.2L42.8,22.2z M41.5,19.6L41.5,19.6L41.5,19.6z M13.7,11L13.7,11L13.7,11z M18.5,8.2L18.5,8.2L18.5,8.2z
		 M31.5,8.2L31.5,8.2L31.5,8.2z M28.6,8L28.6,8L28.6,8z"/>
</g>
<g>
	<path class="st2" d="M25.2,36.7c-6.5,0-11.8-5.3-11.8-11.8s5.3-11.8,11.8-11.8S37,18.4,37,24.9C36.9,31.4,31.7,36.7,25.2,36.7z
		 M25.2,13.9c-6.1,0-11,4.9-11,11s4.9,11,11,11s11-4.9,11-11S31.2,13.9,25.2,13.9z"/>
</g>
<path class="st2" d="M25.9,18.9l0.6-2.3c0-0.1,0-0.3-0.1-0.4s-0.3-0.1-0.4,0l-4.2,2.3c-0.1,0-0.1,0.1-0.2,0.2c0,0.1,0,0.2,0,0.3
	l2.4,4.1c0.1,0.1,0.2,0.2,0.3,0.2l0,0c0.1,0,0.2-0.1,0.3-0.2l0.7-2.6c3,0.3,5.4,2.8,5.4,5.9c0,0.4,0.4,0.8,0.8,0.8s0.8-0.4,0.8-0.8
	C32.4,22.5,29.5,19.4,25.9,18.9z"/>
<path class="st2" d="M27.9,27c-0.2-0.3-0.5-0.5-0.9-0.4c-0.4,0-0.6,0.3-0.7,0.6l-0.6,2.2l0,0c-3.3,0-5.9-2.7-5.9-5.9
	c0-0.4-0.4-0.8-0.8-0.8s-0.8,0.4-0.8,0.8c0,4,3.1,7.3,7.1,7.5l-0.5,1.9c-0.1,0.3,0,0.7,0.3,0.9c0.2,0.1,0.4,0.2,0.6,0.2
	c0.1,0,0.3,0,0.4-0.1l3.7-2c0.2-0.1,0.4-0.3,0.4-0.5l0.1-0.4L27.9,27z M26.7,31.7l0.7-2.6l1,1.6L26.7,31.7z"/>
</svg>
