<svg xmlns="http://www.w3.org/2000/svg" id="Camada_1" data-name="Camada 1" version="1.1" viewBox="0 0 50 50"><defs><style>.cls-1{stroke-width:.5px}.cls-1,.cls-3{stroke-linecap:round;stroke-linejoin:round}.cls-1,.cls-3,.cls-5{fill:none;stroke:#444}.cls-5{stroke-miterlimit:10}</style></defs><path fill="#8256d8" stroke-width="0" d="M28.2 20.5L36 23l-6.7 4.7.1 8.2-6.5-4.9-7.8 2.6 2.6-7.7-4.9-6.6 8.2.1 4.8-6.7 2.4 7.8z"/><path fill="#a475ef" stroke-width="0" d="M44.8 3.8H3.7C2.3 3.8 2.3 7.6 2.3 9l-.2 12.9-.5 10.2 1.2 11.8 12.4.6 32.1-11.4V6.4c0-1.4-1.1-2.6-2.5-2.6z"/><path fill="none" stroke="#444" stroke-linecap="round" stroke-linejoin="round" stroke-width="2.5" d="M32.2 45.3h-27c-1.9 0-3.4-1.6-3.4-3.5v-35c0-1.9 1.5-3.5 3.4-3.5h39c1.9 0 3.4 1.6 3.4 3.5v28.5"/><path fill="#444" stroke="#454444" stroke-linecap="round" stroke-linejoin="round" stroke-width=".5" d="M14.4 13.7h7.8m-13.1 0h2.1m-2.1 4.5h2.1m2.3 4.4h11m-15.4.1h2.1M9.1 27h2.1m-2.1 4.7h2.1m-2.1 4.4h2.1M14 27h8.8M15 31.7h3.8M14 36.1h11"/><path d="M36.1 21.9l.1 2.8m2.3-10.6c.2-.1 1.8-1.1 3.6-.4 1.6.6 2.8 2.5 2.3 4.1 0 .1-.4 1.3-1.4 1.7-1.4.6-3.2-.4-4.1-1.5-1.2-1.5-.4-2.5-1.6-4.2-1.1-1.5-2.8-2-3.2-2.1-1.5-.4-3.8-.5-5.2.9-1.1 1.1-.6 2.3-1.8 3.7-.3.4-.6.7-1 .9-.9.6-2 .9-3.1.9h-9.1" class="cls-1"/><path d="M36.8 15.5c-.4.7-.9 1.8-1 3.2v1.6" class="cls-1"/><path d="M34.7 21.6l.4 5.4c0 .8.4 1.6 1 2.2 0 0 .5-.6.7-1.1.2-.5.3-1 .3-1.2 0-.9.1-2.9.2-5.4" class="cls-3"/><path d="M40 23.4c-.7-1-1.3-1.4-1.6-1.6-1-.6-1.9-.6-2.4-.6s-1.4.1-2.4.7c-.3.2-.9.6-1.6 1.7-1.8 2.8-1.3 6.6-1.3 7.1.3 2.1.6 4.6 2.5 5.8 1.1.7 2.3.8 3 .7.7 0 1.9 0 3-.9 1.9-1.3 2.1-3.8 2.3-5.9 0-.5.3-4.3-1.6-7z" class="cls-3"/><g id="diploma"><g id="Group_6" data-name="Group 6"><path id="Vector_11-2" d="M27.1 39.6c0 .4-.3.8-.8.8H5.5c-2.4 0-4.3-1.9-4.3-4.3V10.8c0-2.4 1.9-4.3 4.3-4.3h1.1c.4 0 .8.3.8.8v3.2h18.9c.4 0 .8.3.8.8v28.2z" class="cls-5" data-name="Vector 11"/><path id="Vector_12" d="M7.3 10.6V31c0 .4-.3.8-.8.8H5.4c-2.4 0-4.3 1.9-4.3 4.3" class="cls-5" data-name="Vector 12"/></g></g></svg>