<?xml version="1.0" encoding="utf-8"?>
<!-- Generator: Adobe Illustrator 22.0.1, SVG Export Plug-In . SVG Version: 6.00 Build 0)  -->
<svg version="1.1" id="Layer_1" xmlns="http://www.w3.org/2000/svg" xmlns:xlink="http://www.w3.org/1999/xlink" x="0px" y="0px"
	 viewBox="0 0 50 50" style="enable-background:new 0 0 50 50;" xml:space="preserve">
<style type="text/css">
	.st0{fill:#E097FB;}
	.st1{fill:#CE87EA;}
	.st2{fill:#464646;}
</style>
<g>
	<path class="st0" d="M48.6,7.3c0-2.7-2.2-4.9-4.9-4.9H7.2c-2.7,0-4.9,2.2-4.9,4.9v18.2L48.6,8.7V7.3z"/>
	<path class="st1" d="M48.6,8.6L2.5,25.4v16.3c0,0.6,0.1,1.2,0.3,1.8l45.7-16.6V8.6z"/>
	<path class="st2" d="M43.2,1.6H6.8c-3.4,0-6.1,2.7-6.1,6.1v34.5c0,3.4,2.7,6.1,6.1,6.1h36.4c1.9,0,3.7-0.9,4.8-2.4
		c0.4-0.5,0.3-1.3-0.2-1.8c-0.5-0.4-1.3-0.3-1.8,0.2c-0.7,0.9-1.7,1.4-2.8,1.4H6.8c-2,0-3.6-1.6-3.6-3.6V7.7c0-2,1.6-3.6,3.6-3.6
		h36.4c2,0,3.6,1.6,3.6,3.6v20c0,0.7,0.6,1.2,1.2,1.2s1.2-0.6,1.2-1.2v-20C49.3,4.4,46.5,1.6,43.2,1.6z"/>
	<g>
		<g>
			<path class="st2" d="M33.3,18.6c-0.6,0-1-0.3-1.2-0.9L31.4,16c-0.3-0.9-1.1-1.6-2-2l-1.8-0.7c-0.5-0.2-0.9-0.7-0.9-1.2
				s0.3-1,0.9-1.2l1.8-0.7c0.9-0.3,1.6-1.1,2-2L32,6.4c0.2-0.5,0.7-0.9,1.2-0.9h0c0.6,0,1,0.3,1.2,0.9l0.7,1.8c0.3,0.9,1.1,1.6,2,2
				l1.8,0.7c0.5,0.2,0.9,0.7,0.9,1.2s-0.3,1-0.9,1.2L37.2,14c-0.9,0.3-1.6,1.1-2,2l-0.7,1.8C34.3,18.3,33.8,18.6,33.3,18.6
				L33.3,18.6z M28.6,12.1l1.3,0.5c1.3,0.5,2.4,1.5,2.9,2.9l0.5,1.3l0.5-1.3c0.5-1.3,1.5-2.4,2.9-2.9l1.3-0.5l-1.3-0.5
				c-1.3-0.5-2.4-1.5-2.9-2.9l-0.5-1.3l-0.5,1.3c-0.5,1.3-1.5,2.4-2.9,2.9L28.6,12.1z"/>
		</g>
		<g>
			<path class="st2" d="M20.1,17.8c-0.4,0-0.8-0.2-0.9-0.6L19,16.6c-0.1-0.2-0.2-0.4-0.5-0.5l-0.7-0.2c-0.4-0.1-0.6-0.5-0.6-0.9
				s0.2-0.8,0.6-0.9l0.7-0.2c0.2-0.1,0.4-0.2,0.5-0.5l0.2-0.7c0.1-0.4,0.5-0.6,0.9-0.6s0.8,0.2,0.9,0.6l0.2,0.7
				c0.1,0.2,0.2,0.4,0.5,0.5l0.7,0.2c0.4,0.1,0.6,0.5,0.6,0.9s-0.2,0.8-0.6,0.9l-0.7,0.2c-0.2,0.1-0.4,0.2-0.5,0.5L21,17.2
				C20.9,17.6,20.5,17.8,20.1,17.8z M19.5,14.9c0.2,0.2,0.4,0.4,0.6,0.6c0.2-0.2,0.4-0.4,0.6-0.6c-0.2-0.2-0.4-0.4-0.6-0.6
				C20,14.6,19.8,14.8,19.5,14.9z M18.4,14.4L18.4,14.4C18.4,14.4,18.4,14.4,18.4,14.4z M19.6,13.2C19.6,13.2,19.6,13.2,19.6,13.2
				L19.6,13.2z"/>
		</g>
		<g>
			<path class="st2" d="M37,39.4c-0.5,0-1-0.3-1.2-0.8l-0.6-1.5c-0.3-0.8-0.9-1.3-1.6-1.6l-1.5-0.6c-0.5-0.2-0.8-0.6-0.8-1.2
				s0.3-1,0.8-1.2l1.5-0.6c0.8-0.3,1.3-0.9,1.6-1.6l0.6-1.5c0.2-0.5,0.6-0.8,1.2-0.8s1,0.3,1.2,0.8l0.6,1.5c0.3,0.8,0.9,1.3,1.6,1.6
				l1.5,0.6c0.5,0.2,0.8,0.6,0.8,1.2s-0.3,1-0.8,1.2l-1.5,0.6c-0.8,0.3-1.3,0.9-1.6,1.6l-0.6,1.5C38,39,37.5,39.4,37,39.4z
				 M33.4,33.7l0.8,0.3c1.2,0.4,2.1,1.3,2.5,2.5l0.3,0.8l0.3-0.8c0.4-1.2,1.3-2.1,2.5-2.5l0.8-0.3l-0.8-0.3
				c-1.2-0.4-2.1-1.3-2.5-2.5L37,30l-0.3,0.8c-0.4,1.2-1.3,2.1-2.5,2.5L33.4,33.7z"/>
		</g>
		<g>
			<path class="st2" d="M40.8,21.8c-0.4,0-0.8-0.2-0.9-0.6l-0.2-0.7c-0.1-0.2-0.2-0.4-0.5-0.5l-0.7-0.2c-0.4-0.1-0.6-0.5-0.6-0.9
				s0.2-0.8,0.6-0.9l0.7-0.2c0.2-0.1,0.4-0.2,0.5-0.5l0.2-0.7c0.1-0.4,0.5-0.6,0.9-0.6c0.4,0,0.8,0.2,0.9,0.6l0.2,0.7
				c0.1,0.2,0.2,0.4,0.5,0.5l0.7,0.2c0.4,0.1,0.6,0.5,0.6,0.9s-0.2,0.8-0.6,0.9l-0.7,0.2c-0.2,0.1-0.4,0.2-0.5,0.5l-0.2,0.7
				C41.5,21.6,41.2,21.8,40.8,21.8z M40.2,19c0.2,0.2,0.4,0.4,0.6,0.6c0.2-0.2,0.4-0.4,0.6-0.6c-0.2-0.2-0.4-0.4-0.6-0.6
				C40.6,18.6,40.4,18.8,40.2,19z"/>
		</g>
		<g>
			<path class="st2" d="M26.2,32.2l-7.6-7.6l3.5-3.5c1.4-1.4,3.8-1.4,5.2,0l2.4,2.4c0.7,0.7,1.1,1.6,1.1,2.6c0,1-0.4,1.9-1.1,2.6
				L26.2,32.2z M20.7,24.6l5.5,5.5l2.5-2.5c0.4-0.4,0.6-0.9,0.6-1.5s-0.2-1.1-0.6-1.5l-2.4-2.4c-0.8-0.8-2.2-0.8-3,0L20.7,24.6z"/>
		</g>
		<g>
			<path class="st2" d="M13.6,44.7L6,37.2l12.4-12.4l7.6,7.6L13.6,44.7z M8.2,37.2l5.5,5.5l10.3-10.3l-5.5-5.5L8.2,37.2z"/>
		</g>
	</g>
</g>
</svg>
