<svg xmlns="http://www.w3.org/2000/svg" id="Layer_1" x="0" y="0" version="1.1" viewBox="0 0 50 50" xml:space="preserve"><style>.st2{fill:#464646}</style><path fill="#e097fb" d="M48.6 7.3c0-2.7-2.2-4.9-4.9-4.9H7.2c-2.7 0-4.9 2.2-4.9 4.9v18.2L48.6 8.7V7.3z"/><path fill="#ce87ea" d="M48.6 8.6L2.5 25.4v16.3c0 .6.1 1.2.3 1.8l45.7-16.6V8.6z"/><path d="M43.2 1.6H6.8C3.4 1.6.7 4.3.7 7.7v34.5c0 3.4 2.7 6.1 6.1 6.1h36.4c1.9 0 3.7-.9 4.8-2.4.4-.5.3-1.3-.2-1.8-.5-.4-1.3-.3-1.8.2-.7.9-1.7 1.4-2.8 1.4H6.8c-2 0-3.6-1.6-3.6-3.6V7.7c0-2 1.6-3.6 3.6-3.6h36.4c2 0 3.6 1.6 3.6 3.6v20c0 .7.6 1.2 1.2 1.2s1.2-.6 1.2-1.2v-20c.1-3.3-2.7-6.1-6-6.1z" class="st2"/><path d="M33.3 18.6c-.6 0-1-.3-1.2-.9l-.7-1.7c-.3-.9-1.1-1.6-2-2l-1.8-.7c-.5-.2-.9-.7-.9-1.2s.3-1 .9-1.2l1.8-.7c.9-.3 1.6-1.1 2-2l.6-1.8c.2-.5.7-.9 1.2-.9.6 0 1 .3 1.2.9l.7 1.8c.3.9 1.1 1.6 2 2l1.8.7c.5.2.9.7.9 1.2s-.3 1-.9 1.2l-1.7.7c-.9.3-1.6 1.1-2 2l-.7 1.8c-.2.5-.7.8-1.2.8zm-4.7-6.5l1.3.5c1.3.5 2.4 1.5 2.9 2.9l.5 1.3.5-1.3c.5-1.3 1.5-2.4 2.9-2.9l1.3-.5-1.3-.5c-1.3-.5-2.4-1.5-2.9-2.9l-.5-1.3-.5 1.3c-.5 1.3-1.5 2.4-2.9 2.9l-1.3.5zm-8.5 5.7c-.4 0-.8-.2-.9-.6l-.2-.6c-.1-.2-.2-.4-.5-.5l-.7-.2c-.4-.1-.6-.5-.6-.9s.2-.8.6-.9l.7-.2c.2-.1.4-.2.5-.5l.2-.7c.1-.4.5-.6.9-.6s.8.2.9.6l.2.7c.1.2.2.4.5.5l.7.2c.4.1.6.5.6.9s-.2.8-.6.9l-.7.2c-.2.1-.4.2-.5.5l-.2.6c-.1.4-.5.6-.9.6zm-.6-2.9l.6.6.6-.6-.6-.6c-.1.3-.3.5-.6.6zm-1.1-.5zm1.2-1.2zM37 39.4c-.5 0-1-.3-1.2-.8l-.6-1.5c-.3-.8-.9-1.3-1.6-1.6l-1.5-.6c-.5-.2-.8-.6-.8-1.2s.3-1 .8-1.2l1.5-.6c.8-.3 1.3-.9 1.6-1.6l.6-1.5c.2-.5.6-.8 1.2-.8s1 .3 1.2.8l.6 1.5c.3.8.9 1.3 1.6 1.6l1.5.6c.5.2.8.6.8 1.2s-.3 1-.8 1.2l-1.5.6c-.8.3-1.3.9-1.6 1.6l-.6 1.5c-.2.4-.7.8-1.2.8zm-3.6-5.7l.8.3c1.2.4 2.1 1.3 2.5 2.5l.3.8.3-.8c.4-1.2 1.3-2.1 2.5-2.5l.8-.3-.8-.3c-1.2-.4-2.1-1.3-2.5-2.5L37 30l-.3.8c-.4 1.2-1.3 2.1-2.5 2.5l-.8.4zm7.4-11.9c-.4 0-.8-.2-.9-.6l-.2-.7c-.1-.2-.2-.4-.5-.5l-.7-.2c-.4-.1-.6-.5-.6-.9s.2-.8.6-.9l.7-.2c.2-.1.4-.2.5-.5l.2-.7c.1-.4.5-.6.9-.6s.8.2.9.6l.2.7c.1.2.2.4.5.5l.7.2c.4.1.6.5.6.9s-.2.8-.6.9l-.7.2c-.2.1-.4.2-.5.5l-.2.7c-.2.4-.5.6-.9.6zm-.6-2.8l.6.6.6-.6-.6-.6-.6.6zm-14 13.2l-7.6-7.6 3.5-3.5c1.4-1.4 3.8-1.4 5.2 0l2.4 2.4c.7.7 1.1 1.6 1.1 2.6s-.4 1.9-1.1 2.6l-3.5 3.5zm-5.5-7.6l5.5 5.5 2.5-2.5c.4-.4.6-.9.6-1.5s-.2-1.1-.6-1.5l-2.4-2.4c-.8-.8-2.2-.8-3 0l-2.6 2.4zm-7.1 20.1L6 37.2l12.4-12.4 7.6 7.6-12.4 12.3zm-5.4-7.5l5.5 5.5L24 32.4l-5.5-5.5L8.2 37.2z" class="st2"/></svg>