<?xml version="1.0" encoding="utf-8"?>
<!-- Generator: Adobe Illustrator 24.0.0, SVG Export Plug-In . SVG Version: 6.00 Build 0)  -->
<svg version="1.1" id="Layer_1" xmlns="http://www.w3.org/2000/svg" xmlns:xlink="http://www.w3.org/1999/xlink" x="0px" y="0px"
	 viewBox="0 0 50 50" style="enable-background:new 0 0 50 50;" xml:space="preserve">
<style type="text/css">
	.st0{fill:#F799FF;}
	.st1{fill:#E589EF;}
	.st2{fill:#444444;}
</style>
<g>
	<polygon class="st0" points="41.8,20.2 40.6,27.1 16.3,35.8 8.7,31.6 4,31 41.8,17 	"/>
	<polygon class="st1" points="37.3,32.3 38.8,33.6 27.3,37.7 19.5,36.8 16.3,35.7 39.8,27.3 39.5,28.8 	"/>
	<g>
		<g>
			<path class="st2" d="M48.1,37.4C47.3,36.5,46.3,36,45,36c-0.1,0-0.2,0-0.4,0c-1.2-1.1-3.3-2.4-6.1-3.7c2.1-3,4.4-8.6,4.3-18.7
				v-0.3c0-3.9-0.7-8-0.8-8.1c-0.1-0.4-0.4-0.7-0.8-0.7c-0.4,0-0.8,0.2-0.9,0.6c0,0-0.3,1-0.8,2.3c-1.7,4.3-7.5,7.7-12.3,8.8
				c-1-0.6-2.2-0.9-3.3-0.9c-1.6,0-3.1,0.6-4.3,1.6c0,0,0,0-0.1,0c-4.7-0.1-8.4-5.7-8.4-5.8c-0.2-0.3-0.6-0.5-1-0.4
				c-0.4,0.1-0.7,0.5-0.7,0.9v7.7c-0.4,0.7-0.7,1.4-0.7,2.2c-2.2-1.7-4.8-2.1-6.6-0.9c-1,0.6-1.6,1.6-1.8,2.9
				c-0.3,1.8,0.2,3.8,1.5,5.6c1.5,2.1,3.8,3.4,5.9,3.4h0.1c1.3,1.1,3.7,2.4,6.1,3.5c4.1,1.8,8,2.7,11.5,2.7h0.4
				c2.9-0.1,5.6-0.7,7.8-1.9c0.5,0.3,1,0.6,1.5,0.8c2.6,1.3,5,2.1,6,2.4v0.1c0,3.2,2.9,3.9,5,4.4c0.9,0.2,1.9,0.5,2.2,0.8
				c0.2,0.2,0.4,0.3,0.6,0.3c0.1,0,0.2,0,0.3,0c0.3-0.1,0.6-0.4,0.6-0.8C49.8,44.6,50.3,39.8,48.1,37.4z M23.8,17
				c2.7,0,4.9,2.2,4.9,4.9c0,0.7-0.2,1.4-0.5,2.1v-0.2c0-1.8-1.5-3.2-3.2-3.2s-3.2,1.5-3.2,3.2c0,1.3,0.7,2.4,1.9,2.9
				C21,26.7,19,24.5,19,21.9C19,19.2,21.1,17,23.8,17z M25.6,22.7c0,0.6-0.5,1-1,1c-0.6,0-1-0.4-1-1c0-0.6,0.4-1,1-1
				C25.1,21.7,25.6,22.1,25.6,22.7z M18.1,18.4c-0.1,0.1-0.1,0.2-0.2,0.3c-0.1-0.2-0.3-0.3-0.4-0.5C17.7,18.4,17.9,18.4,18.1,18.4z
				 M11.2,14.2c0.7,0.8,1.7,1.8,3,2.6c-1-0.1-2.1,0.1-3,0.7V14.2z M13.8,18.6c1.8,0,3.3,1.5,3.3,3.3c-0.4-0.8-1.2-1.3-2.2-1.3
				c-1.3,0-2.5,1.1-2.5,2.5c0,0.9,0.5,1.8,1.3,2.2c-1.8,0-3.3-1.5-3.3-3.3C10.5,20.1,12,18.6,13.8,18.6z M15.6,22.3
				c0,0.3-0.3,0.6-0.6,0.6c-0.3,0-0.6-0.3-0.6-0.6c0-0.3,0.3-0.6,0.6-0.6C15.3,21.7,15.6,22,15.6,22.3z M4.5,21.7
				c1.5,0,3.3,1,4.4,2.7c1,1.4,1.4,2.9,1.2,4.2c-0.1,0.5-0.4,1.2-1,1.7c-0.4,0.3-0.9,0.4-1.4,0.4c-1.5,0-3.2-1-4.4-2.7
				c-1-1.4-1.4-2.9-1.2-4.2c0.1-0.5,0.3-1.2,1-1.7C3.5,21.8,3.9,21.7,4.5,21.7z M25.7,36.8h-0.4c-3.3,0-6.9-0.9-10.7-2.5
				c-1.6-0.7-3.3-1.6-4.6-2.4c0,0,0,0,0.1,0c1-0.6,1.6-1.6,1.8-2.9c0.1-0.7,0.1-1.4,0-2.2c0.6,0.2,1.2,0.4,1.9,0.4
				c1.6,0,3.1-0.8,4.1-2c1.2,2.2,3.5,3.6,5.9,3.6c3.7,0,6.7-3,6.7-6.7c0-1.6-0.6-3.1-1.6-4.4c4.2-1.2,9.6-4.2,11.9-8.6
				c0.2,1.6,0.3,3.1,0.3,4.4v0.3c0.1,9.9-2.2,15.2-4.2,17.9c-0.6-0.3-1.2-0.5-1.8-0.7c0.6-2.3-3-4-3.2-4l-0.4-0.2l0.3,0.4
				c0,0,0.7,1.1,0.7,2.3c0,0.9-7.1,1.4-12.1,1.4h-0.8l0.7,0.3c0,0,4.2,1.6,8.1,2.2c0.4,0.4,1.7,1.4,3.4,2.5
				C29.9,36.4,28,36.8,25.7,36.8z M38,36.9c-0.7-0.3-1.5-0.7-2.2-1c-2.2-1-4.3-2.6-5.5-3.5c0.4-0.4,1-0.6,1.8-0.7
				c1.5,0.4,3.1,1.1,4.7,1.8c0.8,0.4,1.6,0.8,2.3,1.1C38.6,35.3,38.2,36.1,38,36.9z M41.5,38.2c-0.4-0.1-1-0.3-1.7-0.6
				c0-1.1,0.7-1.7,1.1-2c0.7,0.4,1.3,0.8,1.8,1.2C42.2,37.2,41.8,37.7,41.5,38.2z M46.4,42.7l0,0.1L46.4,42.7
				c-2.4-0.6-3.6-1.1-3.6-2.7c0-1.5,1.4-2.2,2.2-2.2c0.7,0,1.3,0.2,1.7,0.7c1,1.1,1.2,3.4,1.3,4.5C47.5,43,47,42.9,46.4,42.7z"/>
		</g>
		<g>
			<path class="st2" d="M39.1,21.8c-0.1,0.4-0.5,0.7-0.9,0.7c0,0-0.1,0-0.2,0l-1.5-0.3c-0.2,0-0.4-0.2-0.6-0.4
				c-0.1-0.2-0.2-0.4-0.1-0.7c0-0.2,0.2-0.4,0.4-0.6c0.2-0.1,0.4-0.2,0.7-0.1l1.5,0.3c0.3,0,0.5,0.2,0.6,0.4
				C39.1,21.3,39.1,21.6,39.1,21.8z"/>
			<path class="st2" d="M38,25.7c-0.1,0.2-0.3,0.4-0.5,0.5c-0.1,0-0.2,0.1-0.3,0.1c-0.1,0-0.3,0-0.4-0.1l-1.4-0.6
				c-0.5-0.2-0.7-0.7-0.5-1.2c0.1-0.2,0.3-0.4,0.5-0.5c0.2-0.1,0.5-0.1,0.7,0l1.4,0.6c0.2,0.1,0.4,0.3,0.5,0.5
				C38.1,25.3,38.1,25.5,38,25.7z"/>
			<path class="st2" d="M39.6,17.6c0,0.5-0.4,0.9-0.9,0.9l-1.5,0h0c-0.5,0-0.9-0.4-0.9-0.9c0-0.5,0.4-0.9,0.9-0.9l1.5,0
				C39.2,16.7,39.6,17.1,39.6,17.6z"/>
		</g>
	</g>
</g>
</svg>
