<svg xmlns="http://www.w3.org/2000/svg" viewBox="0 0 50 50"><defs><style>.cls-2{stroke-width:2.5px}.cls-2,.cls-3{fill:none;stroke:#444;stroke-linecap:round;stroke-miterlimit:10}</style></defs><g id="Camada_1"><path fill="#00dffc" d="M42.4 17.1l5.6-3.5.6-8.8h-7.3c0 .1-1.7.8-1.9 2.6l-2.6-2.6-7-.5c-.6.9.4 9.8 1.3 10.3s4.2 2.1 4.2 2.2c.2 4.8-4.3 5.9-5.6 6-6.5.2-25.8.1-26.2.6-2 2-2.6 12.8 2.8 15.4l5.5 2.3 31-11c.7-.4.5-11-.5-13z"/><circle cx="15" cy="34.3" r="1.5" class="cls-3"/><path d="M39.3 8.8c-.3-2.3-2.2-4-4.6-4h-4.1c-.5 0-1 .4-1 1v5c0 2.9 2.3 5.3 5.2 5.5.2 0 .4.2.4.4v1.6c0 2.5-2 4.5-4.4 4.5h-25c-2.1 0-3.9 1.7-3.9 3.9v3.9c0 6 4.8 10.4 10.8 10.4h9.9" class="cls-2"/><path d="M41.1 33.5c.9-1.8 1.3-3.9 1.3-6.1V16.6c0-.2.2-.4.4-.4 3 0 5.9-2.5 5.9-5.5v-5c0-.5-.4-1-1-1h-4.2c-2.3 0-4 1.8-4.3 4M22.6 41c0 3 2.4 5.9 5.4 5.9.4 0 .7-.3.7-.7v-5c0-.2.1-.3.3-.3h.2c1.2 0 2.3-.2 3.3-.4" class="cls-2"/><path d="M13.4 22.8v5.9c0 .4-.3.8-.8.8H6.3c-.4 0-.8-.3-.8-.8v-5.9m17.9 0v5.9c0 .4-.3.8-.8.8h-6.3c-.4 0-.8-.3-.8-.8v-5.9m15.8 0v5.9c0 .4-.3.8-.8.8h-6.3c-.4 0-.8-.3-.8-.8v-5.9m4.3 7.1v5.9c0 .4-.3.8-.8.8h-6.3c-.4 0-.8-.3-.8-.8v-5.9" class="cls-3"/></g></svg>