<svg xmlns="http://www.w3.org/2000/svg" viewBox="0 0 50 50"><defs><style>.cls-1,.cls-4{fill:none;}.cls-1{stroke:#494949;stroke-miterlimit:10;stroke-width:3.11px;}.cls-2{fill:#a475ef;}.cls-3{fill:#bf94f7;}.cls-4{stroke:#444;stroke-linecap:round;stroke-linejoin:round;stroke-width:2.5px;}.cls-5,.cls-6{fill:#444;}.cls-5{fill-rule:evenodd;}</style></defs><g id="Layer_1" data-name="Layer 1"><rect class="cls-1" x="-50.54" y="-96.7" width="425.11" height="443.81"/><polygon class="cls-2" points="46.6 26.65 46.98 30.76 2.73 46.87 2.85 38.2 3.19 33.23 47.27 17.18 46.6 20.73 46.6 26.65"/><polygon class="cls-3" points="46.6 10.77 46.06 18.14 2.85 33.87 2.85 24.52 3.17 20.29 46.71 4.44 46.6 10.77"/><polyline class="cls-4" points="36.86 46.59 46.6 46.59 46.6 3.13 2.85 3.13 2.85 46.59"/><path class="cls-5" d="M24.75,11.12A13.95,13.95,0,0,0,20.34,38.3c.7.13.95-.3.95-.67s0-1.21,0-2.37c-3.88.84-4.7-1.87-4.7-1.87a3.68,3.68,0,0,0-1.55-2c-1.26-.87.1-.85.1-.85a2.94,2.94,0,0,1,2.14,1.44,3,3,0,0,0,4.06,1.16,3,3,0,0,1,.88-1.87c-3.1-.35-6.35-1.55-6.35-6.89a5.43,5.43,0,0,1,1.43-3.75,5,5,0,0,1,.14-3.69s1.17-.37,3.84,1.43a13.19,13.19,0,0,1,7,0c2.66-1.8,3.83-1.43,3.83-1.43a5,5,0,0,1,.14,3.69,5.39,5.39,0,0,1,1.44,3.75c0,5.36-3.27,6.54-6.37,6.88a3.32,3.32,0,0,1,.94,2.58c0,1.87,0,3.37,0,3.83s.25.81,1,.67a13.95,13.95,0,0,0-4.42-27.18Z"/><rect class="cls-6" x="11.51" y="11.12" width="25.67" height="5.11" rx="0.57"/><rect class="cls-6" x="34.13" y="11.12" width="6.12" height="27.49" rx="2.51"/><rect class="cls-6" x="8.83" y="11.12" width="5.37" height="27.49" rx="2.5"/><rect class="cls-6" x="12.37" y="35.71" width="8.92" height="2.9"/><rect class="cls-6" x="28.21" y="35.71" width="8.98" height="2.9"/><rect class="cls-6" x="11.59" y="33.81" width="4.27" height="2.9"/><rect class="cls-6" x="32.26" y="33.81" width="4.27" height="2.9"/></g></svg>