<svg xmlns="http://www.w3.org/2000/svg" viewBox="0 0 49.38 49.38"><path fill="#e589ef" d="M47.67 20.08c-.2-.8-2.7-7.5-3.2-8.1l-3-3.5-.2.1-7.6-5.8-7.8-.7c-3.2 0-14.5.3-21.4 10.2L1.26 22.67l.48 1.08 2.53 12.63c.1.4 4.5 5.7 4.9 5.9l5.6 3 32.2-11.7c.6-.5 1.6-8.7.7-13.5z"/><path fill="#444" d="M24.74 49.38c-5.29 0-10.51-1.72-14.83-5.01-5.27-3.9-8.7-9.63-9.65-16.14-.96-6.55.71-13.09 4.7-18.41.41-.55 1.2-.66 1.75-.25.55.41.66 1.2.25 1.75-3.59 4.78-5.09 10.66-4.23 16.55.85 5.84 3.93 10.99 8.67 14.5 5.77 4.4 13.31 5.67 20.17 3.42.66-.22 1.36.14 1.58.8.22.66-.14 1.36-.8 1.58-2.49.82-5.06 1.22-7.61 1.22z"/><path fill="#444" d="M43.46 40.03a1.251 1.251 0 01-1-2c7.32-9.79 5.32-23.72-4.45-31.05C30.33 1.15 19.84 1 11.88 6.6l-.69.49c-.08.06-2.57 1.65-4.39 4.38-.38.57-1.16.73-1.73.35-.57-.38-.73-1.16-.35-1.73C6.84 6.9 9.67 5.1 9.79 5.03l.64-.46c8.86-6.23 20.54-6.06 29.08.42 10.87 8.15 13.09 23.65 4.95 34.54-.25.33-.62.5-1 .5zm-31.59-14.1h-3.7c-.14 0-.25-.11-.25-.25s.11-.25.25-.25h3.7c.14 0 .25.11.25.25s-.11.25-.25.25zm.7-2h-9.3c-.14 0-.25-.11-.25-.25s.11-.25.25-.25h9.3c.14 0 .25.11.25.25s-.11.25-.25.25zm.8-1.8h-7.3c-.14 0-.25-.11-.25-.25s.11-.25.25-.25h7.3c.14 0 .25.11.25.25s-.11.25-.25.25z"/><path fill="#444" d="M36.24 28.63c-.54 0-1.08-.11-1.58-.36-2.01-.95-2.78-3.55-1.72-5.78.51-1.07 1.36-1.9 2.4-2.34 1.06-.45 2.18-.44 3.17.03.98.47 1.7 1.33 2.02 2.44.31 1.08.21 2.27-.3 3.34-.79 1.67-2.39 2.67-3.98 2.67zm.68-7.81c-.39 0-.8.08-1.19.25-.81.35-1.48 1-1.89 1.85-.82 1.73-.27 3.73 1.24 4.45 1.51.72 3.41-.11 4.23-1.84.4-.85.49-1.79.25-2.63-.24-.83-.77-1.47-1.49-1.81a2.73 2.73 0 00-1.16-.26z"/><path fill="#444" d="M35.92 32.93c-.96 0-1.91-.19-2.83-.58-1.89-.81-3.95-2.81-4.29-5.42l.99-.13c.29 2.23 2.06 3.93 3.69 4.63 3.5 1.5 7.72-.5 9.43-4.48.83-1.93.95-4.04.33-5.92-.62-1.86-1.88-3.28-3.56-4.01-1.8-.77-3.82-.76-5.54.03-2.1.97-3.68 3-4.58 5.88l-.96-.3c1.24-3.99 3.47-5.73 5.12-6.49 1.98-.91 4.29-.92 6.35-.04 1.95.84 3.41 2.48 4.12 4.61.7 2.12.57 4.47-.36 6.63-1.49 3.45-4.7 5.58-7.92 5.58z"/><path fill="#444" d="M21.65 32.93c-.96 0-1.91-.19-2.83-.58-4-1.72-5.69-6.76-3.76-11.24s6.75-6.72 10.75-5c1.79.77 3.19 2.24 3.95 4.14.09.23.08.48-.02.7-.1.23-.3.4-.53.48l-3.04 1.06h3.25c.49 0 .89.38.91.86.06 1.38-.18 2.65-.76 4-1.49 3.45-4.7 5.58-7.92 5.58zm1.33-16.4c-2.84 0-5.67 1.9-7 4.97-1.71 3.97-.26 8.42 3.24 9.93 3.49 1.5 7.72-.5 9.43-4.48.5-1.17.72-2.27.68-3.46h-6.79l-.81 2.02h3.08c.33 0 .63.18.79.47.16.29.15.64-.03.92-.87 1.35-2.22 1.99-3.7 1.75-2.2-.35-3.66-2.63-3.27-5.07.39-2.44 2.5-4.14 4.69-3.78 1.06.17 1.97.78 2.59 1.73l2.92-1.02c-.66-1.56-1.87-2.83-3.4-3.49-.79-.34-1.61-.5-2.44-.5zm-.26 4.23c-1.49 0-2.85 1.26-3.12 2.99-.31 1.9.79 3.65 2.44 3.92 1.04.16 1.96-.24 2.6-1.16h-3.05a.908.908 0 01-.84-1.24l.89-2.21c.14-.34.47-.56.84-.56h3.06a.952.952 0 01-.45-.37c-.46-.73-1.15-1.2-1.94-1.33-.14-.02-.28-.03-.42-.03z"/></svg>