<?xml version="1.0" encoding="utf-8"?>
<!-- Generator: Adobe Illustrator 28.0.0, SVG Export Plug-In . SVG Version: 6.00 Build 0)  -->
<svg version="1.1" id="Camada_3" xmlns="http://www.w3.org/2000/svg" xmlns:xlink="http://www.w3.org/1999/xlink" x="0px" y="0px"
	 viewBox="0 0 50 50" style="enable-background:new 0 0 50 50;" xml:space="preserve">
<style type="text/css">
	.st0{fill:#DC5E82;}
	.st1{fill:none;stroke:#444444;stroke-width:2.5;stroke-linecap:round;stroke-linejoin:round;}
	.st2{fill:none;stroke:#444444;stroke-miterlimit:10;}
	.st3{fill:none;stroke:#444444;stroke-width:0.5;stroke-linecap:round;stroke-miterlimit:10;}
</style>
<path class="st0" d="M48,20.4c-0.2-0.8-2.7-7.5-3.2-8.1l-3-3.5h-0.2c0,0.1-7.6-5.7-7.6-5.7l-7.8-0.7C23,2.4,11.7,2.7,4.8,12.6
	l-4,10.6H0.6c0,0.1,4,13.5,4,13.5c0,0.4,4.5,5.7,4.9,5.9l5.6,3l32.2-11.7C47.9,33.4,48.9,25.2,48,20.4z"/>
<path class="st1" d="M32.3,47.3c-7,2.3-15,1.2-21.3-3.6C0.6,36-1.5,21.3,6.3,10.9"/>
<path class="st1" d="M6.1,11.1c2-3,4.7-4.7,4.7-4.7l0.7-0.5C19.6,0.2,30.8,0,39.1,6.3c10.4,7.8,12.4,22.5,4.7,32.8"/>
<g>
	<path class="st2" d="M28.4,28.4c-0.3,0.6-0.7,1.2-1.1,1.7c-0.4,0.4-0.8,0.9-1.2,1.2c-0.4,0.3-0.8,0.6-1.2,0.8
		c-0.2,0-0.3,0.2-0.5,0.2c-0.3,0.2-0.7,0.3-1.1,0.4c-1.1,0.4-2.1,0.4-3.2,0.4s-0.4,0-0.6,0c-0.4,0-0.7-0.2-1.1-0.3
		c-0.2,0-0.4-0.2-0.6-0.3c-0.8-0.4-1.5-0.9-2.1-1.6c-0.5-0.6-0.9-1.2-1.2-1.9c-0.1-0.3-0.2-0.7-0.3-1s-0.1-0.6-0.1-0.9
		c-0.1-0.5-0.1-1,0-1.5c0-0.2,0.1-0.4,0.1-0.6c0-0.4,0.1-0.9,0.3-1.2c0.1-0.4,0.3-0.8,0.5-1.2c0.2-0.3,0.4-0.7,0.6-1
		c0.1-0.1,0.2-0.3,0.3-0.4c0.2-0.3,0.5-0.6,0.7-0.9c0.1-0.2,0.3-0.2,0.5-0.4c0.4-0.4,0.9-0.7,1.4-1s1.1-0.6,1.7-0.8
		c0.5-0.2,1-0.3,1.5-0.4c0.3-0.1,0.7-0.1,1.1,0h0.5c0.4,0,0.9,0.1,1.3,0.2c0.6,0.2,1.2,0.4,1.8,0.8c0.5,0.3,0.9,0.6,1.3,1l0.9,1.2
		c0.2,0.3,0.3,0.6,0.4,0.9c0,0.1,0,0.1-0.1,0.2c-0.2,0.1-0.4,0.2-0.7,0.2s-0.7,0.2-1,0.3c-0.5,0.1-0.9,0.3-1.4,0.4
		c-0.2,0-0.4,0.1-0.6,0.1c-0.2,0.1-0.3-0.1-0.4-0.2c-0.2-0.3-0.4-0.5-0.7-0.7c-0.4-0.3-0.9-0.4-1.3-0.5c-0.8-0.1-1.5,0.1-2.2,0.5
		S19.4,23,19,23.6s-0.5,1.2-0.6,1.8s0,1.1,0.1,1.7c0.1,0.4,0.3,0.8,0.6,1.2c0.2,0.3,0.5,0.5,0.8,0.6c0.3,0.2,0.6,0.3,1,0.3
		s0.6,0.1,1,0c0.3,0,0.6-0.1,0.8-0.2c0.4-0.1,0.8-0.3,1.1-0.6c0.3-0.2,0.5-0.5,0.7-0.8c0.1-0.2,0.2-0.3,0.3-0.4c0,0,0.1-0.1,0-0.1
		c0-0.1-0.1,0-0.1,0h-3.6c-0.5,0-0.7-0.3-0.5-0.8c0.2-0.4,0.4-0.8,0.5-1.2c0.1-0.3,0.3-0.6,0.4-0.9c0.1-0.2,0.3-0.3,0.6-0.3h6
		c0.2,0,0.3-0.1,0.3-0.3s0.1-0.4,0.2-0.6c0.2-0.5,0.5-0.9,0.8-1.3c0.3-0.5,0.7-1,1.2-1.4c0.4-0.4,0.9-0.8,1.5-1.2l1.2-0.6
		c0.4-0.2,0.8-0.3,1.2-0.4c0.5-0.1,0.9-0.3,1.4-0.3s0.8-0.1,1.3-0.1c0.6,0.1,1.2,0.1,1.8,0.3s1.2,0.4,1.7,0.7
		c0.3,0.2,0.5,0.4,0.8,0.5c0.2,0.2,0.4,0.4,0.6,0.5c0.2,0.2,0.3,0.4,0.5,0.6c0.3,0.4,0.5,0.8,0.7,1.2c0.2,0.5,0.4,1,0.5,1.5
		c0,0.4,0,0.7,0,1.1c0,0.6,0,1.2,0,1.8c0,0.5-0.3,1-0.4,1.6c0,0.2-0.2,0.5-0.3,0.7c-0.2,0.4-0.5,0.8-0.8,1.2
		c-0.2,0.2-0.3,0.4-0.5,0.6l-0.6,0.6c-0.5,0.4-1,0.8-1.6,1.2c-0.4,0.2-0.9,0.4-1.3,0.6c-0.5,0.2-0.9,0.3-1.4,0.4c-0.5,0-1,0-1.6,0.2
		h-0.9c-0.4,0-0.8-0.2-1.2-0.2c-0.3,0-0.5-0.2-0.8-0.3c-0.4-0.2-0.8-0.3-1.2-0.6c-0.4-0.2-0.7-0.5-1-0.8c-0.5-0.5-1-1.1-1.3-1.7
		c-0.2-0.4-0.3-0.8-0.5-1.2L28.4,28.4L28.4,28.4L28.4,28.4z M36.6,21.8c-0.4,0-0.9,0.1-1.4,0.3c-0.6,0.2-1.1,0.5-1.6,1
		s-0.8,1.1-1.1,1.8c-0.2,0.5-0.3,1.1-0.2,1.7c0,0.4,0.2,0.8,0.3,1.1c0.2,0.3,0.4,0.6,0.7,0.9c0.3,0.4,0.8,0.6,1.3,0.7
		c0.2,0.1,0.4,0.1,0.6,0.1s0.4,0.1,0.6,0.1c0.4-0.1,0.9-0.1,1.3-0.3c0.6-0.2,1.1-0.6,1.5-1c0.5-0.4,0.8-0.9,1-1.5s0.4-1.3,0.3-1.9
		c0-0.7-0.4-1.4-0.8-1.9C38.4,22.1,37.6,21.8,36.6,21.8z"/>
	<path class="st3" d="M6.4,22.2h7.3 M3.6,24h9.3 M8.5,26h3.7"/>
</g>
</svg>
