<?xml version="1.0" encoding="utf-8"?>
<!-- Generator: Adobe Illustrator 25.4.1, SVG Export Plug-In . SVG Version: 6.00 Build 0)  -->
<svg version="1.1" id="Layer_1" xmlns="http://www.w3.org/2000/svg" xmlns:xlink="http://www.w3.org/1999/xlink" x="0px" y="0px"
	 viewBox="0 0 50 50" style="enable-background:new 0 0 50 50;" xml:space="preserve">
<style type="text/css">
	.st0{fill:#46B8B0;}
	.st1{fill:#4ECDC4;}
	.st2{fill:none;stroke:#444444;stroke-width:2.5;stroke-linecap:round;stroke-linejoin:round;stroke-miterlimit:10;}
	.st3{fill:#444444;}
	.st4{fill:#494949;}
</style>
<g>
	<g>
		<g>
			<g>
				<polygon class="st0" points="47.7,11.6 48.5,16.8 2.4,33.6 1.9,22.7 1.8,16.5 42.1,1.9 47.3,4.2 				"/>
				<polygon class="st1" points="46.1,2 48.4,5.2 1.5,21.9 2.6,4.8 5.6,1.9 34.7,1.7 				"/>
				<g>
					<path class="st2" d="M18.1,48.3H5.5c-1.9,0-3.4-1.6-3.4-3.5V5.8c0-2,1.5-3.5,3.4-3.5h39c1.9,0,3.4,1.6,3.4,3.5v24.6"/>
					<path class="st2" d="M2.1,15.8"/>
					<path class="st2" d="M47.9,15.8"/>
				</g>
				<circle class="st3" cx="8.2" cy="8.2" r="1.4"/>
				<circle class="st3" cx="12.1" cy="8.2" r="1.4"/>
				<circle class="st3" cx="15.9" cy="8.2" r="1.4"/>
			</g>
		</g>
	</g>
	<g>
		<g>
			<g id="CXHf1q_3_">
				<g>
					<g>
						<path class="st4" d="M29.2,33.9c-1.3,0.3-2.3,0.6-3.6,0.9C25.3,35,25.3,35,25,34.7c-0.3-0.4-0.6-0.6-1-0.8
							c-1.3-0.7-2.6-0.5-3.8,0.3c-1.4,0.9-2.2,2.3-2.2,4c0,1.7,1.2,3.1,2.9,3.3c1.4,0.2,2.7-0.3,3.6-1.4c0.2-0.2,0.4-0.5,0.6-0.8
							c-0.8,0-1.7,0-4.1,0c-0.4,0-0.6-0.3-0.4-0.6c0.3-0.7,0.8-1.8,1.1-2.3c0.1-0.1,0.2-0.3,0.5-0.3c1.1,0,5.1,0,7.7,0
							c0,0.6,0,1.1-0.1,1.7c-0.2,1.5-0.8,2.9-1.7,4.2c-1.5,2-3.5,3.3-6.1,3.6c-2.1,0.3-4-0.1-5.7-1.4c-1.6-1.2-2.5-2.8-2.7-4.7
							c-0.3-2.3,0.4-4.4,1.8-6.2c1.5-2,3.5-3.2,6-3.7c2-0.4,3.9-0.1,5.6,1c1.1,0.7,1.9,1.8,2.5,3C29.5,33.8,29.4,33.9,29.2,33.9z"/>
					</g>
					<g>
						<path class="st4" d="M36.2,45.7c-1.9,0-3.7-0.6-5.2-1.9c-1.3-1.1-2-2.5-2.3-4.1c-0.4-2.4,0.3-4.5,1.7-6.4c1.6-2,3.4-3.1,6-3.5
							c2.2-0.4,4.2-0.2,6.1,1.1c1.7,1.1,2.7,2.7,3,4.7c0.4,2.9-0.5,5.2-2.4,7.2c-1.4,1.4-3.1,2.3-5.1,2.7
							C37.3,45.6,36.8,45.6,36.2,45.7z M41.3,37.1c0-0.3,0-0.5-0.1-0.7c-0.4-2.1-2.3-3.3-4.3-2.8c-2,0.4-3.3,1.7-3.7,3.7
							c-0.4,1.7,0.4,3.3,2,4c1.2,0.5,2.3,0.4,3.5-0.1C40.3,40.3,41.2,38.9,41.3,37.1z"/>
					</g>
				</g>
			</g>
		</g>
	</g>
</g>
</svg>
