<svg xmlns="http://www.w3.org/2000/svg" id="Camada_3" x="0" y="0" version="1.1" viewBox="0 0 50 50" xml:space="preserve"><style>.st2{fill:none;stroke:#444;stroke-linecap:round;stroke-miterlimit:10;stroke-linejoin:round;stroke-width:2.5}</style><path fill="#00b3d1" d="M28 20.8l7.7 2.4-6.6 4.6.1 8.1-6.5-4.8-7.6 2.6 2.6-7.7-4.8-6.4 8 .1 4.7-6.6z"/><path fill="#00dffc" d="M48 20.2c-.2-.8-2.7-7.5-3.2-8.1l-3-3.5-.2.1L34 2.9l-7.8-.7c-3.2 0-14.5.3-21.4 10.2L.8 23l-.2.1 4 13.4c.1.4 4.5 5.7 4.9 5.9l5.6 3 32.2-11.7c.6-.5 1.6-8.7.7-13.5z"/><path d="M32.3 47.1c-7 2.3-15 1.2-21.3-3.6C.6 35.8-1.5 21.1 6.3 10.7" class="st2"/><path d="M6.1 10.9c2-3 4.7-4.7 4.7-4.7l.7-.5c8.1-5.7 19.3-5.9 27.6.4 10.4 7.8 12.4 22.5 4.7 32.8" class="st2"/><g fill="none" stroke="#444" stroke-miterlimit="10"><path d="M28.4 28.2c-.3.6-.7 1.2-1.1 1.7-.4.4-.8.9-1.2 1.2-.4.3-.8.6-1.2.8-.2.1-.3.2-.5.2-.3.2-.7.3-1.1.4-1.1.4-2.1.4-3.2.4-.2 0-.4-.1-.6-.1-.4 0-.7-.2-1.1-.3-.2 0-.4-.2-.6-.3-.8-.4-1.5-.9-2.1-1.6-.5-.6-.9-1.2-1.2-1.9-.1-.3-.2-.7-.3-1-.1-.3-.1-.6-.1-.9-.1-.5-.1-1 0-1.5 0-.2.1-.4.1-.6 0-.4.1-.9.3-1.2.1-.4.3-.8.5-1.2.2-.3.4-.7.6-1 .1-.1.2-.3.3-.4.2-.3.5-.6.7-.9.1-.2.3-.2.5-.4.4-.4.9-.7 1.4-1 .5-.3 1.1-.6 1.7-.8.5-.2 1-.3 1.5-.4.3-.1.7-.1 1.1 0h.5c.4 0 .9.1 1.3.2.6.2 1.2.4 1.8.8.5.3.9.6 1.3 1l.9 1.2c.2.3.3.6.4.9 0 .1 0 .1-.1.2-.2.1-.4.2-.7.2-.3 0-.7.2-1 .3-.5.1-.9.3-1.4.4-.2 0-.4.1-.6.1-.2.1-.3-.1-.4-.2-.2-.3-.4-.5-.7-.7-.4-.3-.9-.4-1.3-.5-.8-.1-1.5.1-2.2.5-.7.4-1.2.9-1.6 1.5-.4.6-.5 1.2-.6 1.8-.1.6 0 1.1.1 1.7.1.4.3.8.6 1.2.2.3.5.5.8.6.3.2.6.3 1 .3.3 0 .6.1 1 0 .3 0 .6-.1.8-.2.4-.1.8-.3 1.1-.6.3-.2.5-.5.7-.8.1-.2.2-.3.3-.4 0 0 .1-.1 0-.1 0-.1-.1 0-.1 0h-3.6c-.5 0-.7-.3-.5-.8.2-.4.4-.8.5-1.2.1-.3.3-.6.4-.9.1-.2.3-.3.6-.3h6c.2 0 .3-.1.3-.3 0-.2.1-.4.2-.6.2-.5.5-.9.8-1.3.3-.5.7-1 1.2-1.4.4-.4.9-.8 1.5-1.2l1.2-.6c.4-.2.8-.3 1.2-.4.5-.1.9-.3 1.4-.3.4 0 .8-.1 1.3-.1.6.1 1.2.1 1.8.3.6.2 1.2.4 1.7.7.3.2.5.4.8.5.2.2.4.4.6.5.2.2.3.4.5.6.3.4.5.8.7 1.2.2.5.4 1 .5 1.5.1.4.1.7.1 1.1 0 .6 0 1.2-.1 1.8-.1.5-.3 1-.4 1.6-.1.2-.2.5-.3.7-.2.4-.5.8-.8 1.2-.2.2-.3.4-.5.6l-.6.6c-.5.4-1 .8-1.6 1.2-.4.2-.9.4-1.3.6-.5.2-.9.3-1.4.4-.5.1-1 .1-1.6.2h-.9c-.4-.1-.8-.2-1.2-.2-.3-.1-.5-.2-.8-.3-.4-.2-.8-.3-1.2-.6-.4-.2-.7-.5-1-.8-.5-.5-1-1.1-1.3-1.7-.2-.4-.3-.8-.5-1.2v.3zm8.2-6.6c-.4 0-.9.1-1.4.3-.6.2-1.1.5-1.6 1s-.8 1.1-1.1 1.8c-.2.5-.3 1.1-.2 1.7.1.4.2.8.3 1.1.2.3.4.6.7.9.3.4.8.6 1.3.7.2.1.4.1.6.1.2 0 .4.1.6.1.4-.1.9-.1 1.3-.3.6-.2 1.1-.6 1.5-1 .5-.4.8-.9 1-1.5.2-.6.4-1.3.3-1.9-.1-.7-.4-1.4-.8-1.9-.7-.8-1.5-1.1-2.5-1.1z"/><path stroke-linecap="round" stroke-width=".5" d="M6.4 22h7.3M3.6 23.8h9.3m-4.4 2h3.7"/></g></svg>