<svg xmlns="http://www.w3.org/2000/svg" id="Camada_3" x="0" y="0" version="1.1" viewBox="0 0 50 50" xml:space="preserve"><style>.st0{fill:#b68af3}.st1{fill:#e5e5e5}</style><path d="M27.6 24.3h6.8v-7.2h-6.8v7.2zm.9-5h5.2c.1 0 .2.1.2.2s-.1.2-.2.2h-5.2c-.1 0-.2-.1-.2-.2s0-.2.2-.2zm0 2.3h5.2c.1 0 .2.1.2.2s-.1.2-.2.2h-5.2c-.1 0-.2-.1-.2-.2s0-.2.2-.2zM28 44.2h7v-6.9h-7v6.9zm1-4.8h5.2c.1 0 .2.1.2.2s-.1.2-.2.2H29c-.1 0-.2-.1-.2-.2s0-.2.2-.2zm0 2.2h5.2c.1 0 .2.1.2.2s-.1.2-.2.2H29c-.1 0-.2-.1-.2-.2s0-.2.2-.2zm-13.5 2.6h7v-6.9h-7v6.9zm1-4.8h5.2c.1 0 .2.1.2.2s-.1.2-.2.2h-5.2c-.1 0-.2-.1-.2-.2s0-.2.2-.2zm0 2.2h5.2c.1 0 .2.1.2.2s-.1.2-.2.2h-5.2c-.1 0-.2-.1-.2-.2s0-.2.2-.2zm23.9 2.6h7v-6.9h-7v6.9zm1-4.8h5.2c.1 0 .2.1.2.2s-.1.2-.2.2h-5.2c-.1 0-.2-.1-.2-.2s0-.2.2-.2zm0 2.2h5.2c.1 0 .2.1.2.2s-.1.2-.2.2h-5.2c-.1 0-.2-.1-.2-.2s0-.2.2-.2z" class="st0"/><path d="M45.3 32c-.5 0-1-.4-1-1s.4-1 1-1h3V8H14.8c-1.2 0-2.2 1-2.2 2.2v3.2h32.6c.1 0 .2.1.2.2s-.1.2-.2.2H12.7V28c0 1.2 1 2.2 2.2 2.2h2.5c.5 0 1 .4 1 1s-.4 1-1 1h-2.5c-2.3 0-4.1-1.8-4.1-4.1v-18c0-2.3 1.8-4.1 4.1-4.1h32.8c-.9-1.8-2.8-3-4.9-3H9C5.9 3 3.4 5.5 3.4 8.6v33.8C3.4 45.5 5.9 48 9 48h33.7c1 0 1.9-.2 2.7-.7.5-.3 1-.7 1.4-1.1h-7.3c-.5 0-1-.4-1-1v-8.8c0-.5.4-1 1-1h3.7L36 26.1c-.2.1-.3.2-.5.2h-4.2v9.1h4.8c.5 0 1 .4 1 1v8.8c0 .5-.4 1-1 1h-9c-.5 0-1-.4-1-1v-8.8c0-.5.4-1 1-1h3.7v-9.1h-4.1c-.2 0-.3 0-.4-.1l-6.6 9.2h4c.5 0 1 .4 1 1v8.8c0 .5-.4 1-1 1h-9c-.5 0-1-.4-1-1v-8.8c0-.5.4-1 1-1H19l6.9-9.6c-.1-.2-.2-.3-.2-.5v-9.1c0-.5.4-1 1-1h8.8c.5 0 1 .4 1 1v9.1c0 .2 0 .3-.1.4l7.5 9.7h4.5V32h-3.1zM15.5 12.4c-.8 0-1.5-.7-1.5-1.5s.7-1.5 1.5-1.5 1.5.7 1.5 1.5-.7 1.5-1.5 1.5zm4.1 0c-.8 0-1.5-.7-1.5-1.5s.7-1.5 1.5-1.5 1.5.7 1.5 1.5c-.1.8-.7 1.5-1.5 1.5z" class="st0"/><path d="M48.1 30.1h-2.8c-.5 0-1 .4-1 1s.4 1 1 1h3v-1.9c-.1-.1-.1-.1-.2-.1zm-37.4-20v17.8c0 2.3 1.8 4.1 4.1 4.1h2.5c.5 0 1-.4 1-1s-.4-1-1-1h-2.5c-1.2 0-2.2-1-2.2-2.2v-14h32.6c.1 0 .2-.1.2-.2s-.1-.2-.2-.2H12.7v-3.2c0-1.2 1-2.2 2.2-2.2h33.5c-.1-.7-.3-1.4-.6-2h-33c-2.2 0-4.1 1.8-4.1 4.1zm5.8 29.8h5.2c.1 0 .2-.1.2-.2s-.1-.2-.2-.2h-5.2c-.1 0-.2.1-.2.2s0 .2.2.2zm0 2.2h5.2c.1 0 .2-.1.2-.2s-.1-.2-.2-.2h-5.2c-.1 0-.2.1-.2.2s0 .2.2.2zM29 39.9h5.2c.1 0 .2-.1.2-.2s-.1-.2-.2-.2H29c-.1 0-.2.1-.2.2s0 .2.2.2zm0 2.2h5.2c.1 0 .2-.1.2-.2s-.1-.2-.2-.2H29c-.1 0-.2.1-.2.2s0 .2.2.2z" class="st1"/><path d="M36.3 25.7c.1-.1.1-.3.1-.4v-9.1c0-.5-.4-1-1-1h-8.8c-.5 0-1 .4-1 1v9.1c0 .2.1.4.2.5L19 35.4h-4.4c-.5 0-1 .4-1 1v8.8c0 .5.4 1 1 1h9c.5 0 1-.4 1-1v-8.8c0-.5-.4-1-1-1h-4l6.6-9.2c.1.1.3.1.4.1h4.1v9.1H27c-.5 0-1 .4-1 1v8.8c0 .5.4 1 1 1h9c.5 0 1-.4 1-1v-8.8c0-.5-.4-1-1-1h-4.8v-9.1h4.2c.2 0 .4-.1.5-.2l7.2 9.3h-3.7c-.5 0-1 .4-1 1v8.8c0 .5.4 1 1 1h7.3c.9-1 1.5-2.3 1.5-3.8v-6.9h-4.5l-7.4-9.8zM22.6 37.3v6.9h-7v-6.9h7zm12.5 0v6.9h-7v-6.9h7zm-.6-13h-6.8v-7.2h6.8v7.2zm13 19.9h-7v-6.9h7v6.9z" class="st1"/><path d="M41.4 39.9h5.2c.1 0 .2-.1.2-.2s-.1-.2-.2-.2h-5.2c-.1 0-.2.1-.2.2s0 .2.2.2zm0 2.2h5.2c.1 0 .2-.1.2-.2s-.1-.2-.2-.2h-5.2c-.1 0-.2.1-.2.2s0 .2.2.2zM28.5 19.8h5.2c.1 0 .2-.1.2-.2s-.1-.2-.2-.2h-5.2c-.1 0-.2.1-.2.2s0 .2.2.2zm0 2.3h5.2c.1 0 .2-.1.2-.2s-.1-.2-.2-.2h-5.2c-.1 0-.2.1-.2.2s0 .2.2.2zm-13-12.6c-.8 0-1.5.7-1.5 1.5s.7 1.5 1.5 1.5S17 11.8 17 11c0-.9-.7-1.5-1.5-1.5z" class="st1"/><circle cx="19.6" cy="10.9" r="1.5" class="st1"/><path fill="none" stroke="#e5e5e5" stroke-linecap="round" stroke-linejoin="round" stroke-miterlimit="10" d="M26.5 25.4l-8.2 11.3M31 25.5v10.7m4.5-10.8l8.6 11M12.3 13.7H46m-17.4 5.9h4.9m-4.9 2.2h4.9m-4.3 17.8h4.9m-4.9 2.2h4.9m-17.6-2.2h4.9m-4.9 2.2h4.9m20.1-2.1h4.9m-4.9 2.2h4.9"/></svg>