<?xml version="1.0" encoding="UTF-8"?>
<svg id="Camada_2" data-name="Camada 2" xmlns="http://www.w3.org/2000/svg" width="44.88" height="44.88" viewBox="0 0 44.88 44.88">
  <defs>
    <style>
      .cls-1 {
        fill: #e5e5e5;
      }

      .cls-1, .cls-2 {
        stroke-width: 0px;
      }

      .cls-2 {
        fill: #8852ca;
      }
    </style>
  </defs>
  <g id="PM3">
    <g>
      <path class="cls-2" d="m44.88,33.85h-4.24v7.36h3.89c.22-.6.35-1.24.35-1.91v-5.45Z"/>
      <rect class="cls-2" x="26.54" y="33.85" width="7.6" height="7.36"/>
      <rect class="cls-2" x="26.54" y="15.97" width="7.6" height="7.36"/>
      <rect class="cls-2" x="11.6" y="33.85" width="7.6" height="7.36"/>
      <path class="cls-2" d="m6.84,8.55v1.39h33.31c.55,0,1,.45,1,1s-.45,1-1,1H6.84v11.85c0,1.93,1.57,3.5,3.5,3.5h3.54c.55,0,1,.45,1,1s-.45,1-1,1h-3.54c-3.03,0-5.5-2.47-5.5-5.5v-15.24c0-3.03,2.47-5.5,5.5-5.5h33.93c-.92-1.81-2.8-3.05-4.97-3.05H5.58C2.5,0,0,2.5,0,5.58v33.72c0,3.08,2.5,5.58,5.58,5.58h33.72c.96,0,1.87-.24,2.66-.67.49-.26.92-.6,1.31-.99h-3.63c-.55,0-1-.45-1-1v-9.36c0-.55.45-1,1-1h2.37l-10.61-5.72v5.72h3.74c.55,0,1,.45,1,1v9.36c0,.55-.45,1-1,1h-9.6c-.55,0-1-.45-1-1v-9.36c0-.55.45-1,1-1h3.86v-5.72l-10.53,5.72h1.33c.55,0,1,.45,1,1v9.36c0,.55-.45,1-1,1h-9.6c-.55,0-1-.45-1-1v-9.36c0-.55.45-1,1-1h4.08l12-6.52h-1.15c-.55,0-1-.45-1-1v-9.36c0-.55.45-1,1-1h9.6c.55,0,1,.45,1,1v9.36c0,.55-.45,1-1,1h-1l10.74,5.8V5.58c0-.18-.01-.35-.03-.53H10.34c-1.93,0-3.5,1.57-3.5,3.5Z"/>
      <path class="cls-1" d="m10.34,3.05c-3.03,0-5.5,2.47-5.5,5.5v15.24c0,3.03,2.47,5.5,5.5,5.5h3.54c.55,0,1-.45,1-1s-.45-1-1-1h-3.54c-1.93,0-3.5-1.57-3.5-3.5v-11.85h33.31c.55,0,1-.45,1-1s-.45-1-1-1H6.84v-1.39c0-1.93,1.57-3.5,3.5-3.5h34.51c-.07-.72-.27-1.39-.58-2H10.34Z"/>
      <path class="cls-1" d="m35.14,25.33c.55,0,1-.45,1-1v-9.36c0-.55-.45-1-1-1h-9.6c-.55,0-1,.45-1,1v9.36c0,.55.45,1,1,1h1.15l-12,6.52h-4.08c-.55,0-1,.45-1,1v9.36c0,.55.45,1,1,1h9.6c.55,0,1-.45,1-1v-9.36c0-.55-.45-1-1-1h-1.33l10.53-5.72v5.72h-3.86c-.55,0-1,.45-1,1v9.36c0,.55.45,1,1,1h9.6c.55,0,1-.45,1-1v-9.36c0-.55-.45-1-1-1h-3.74v-5.72l10.61,5.72h-2.37c-.55,0-1,.45-1,1v9.36c0,.55.45,1,1,1h3.63c.56-.56.99-1.24,1.26-2h-3.89v-7.36h4.24v-2.72l-10.74-5.8h1Zm-15.94,8.52v7.36h-7.6v-7.36h7.6Zm14.94,0v7.36h-7.6v-7.36h7.6Zm-7.6-10.52v-7.36h7.6v7.36h-7.6Z"/>
    </g>
  </g>
</svg>
