<?xml version="1.0" encoding="utf-8"?>
<!-- Generator: Adobe Illustrator 27.7.0, SVG Export Plug-In . SVG Version: 6.00 Build 0)  -->
<svg version="1.1" id="Camada_3" xmlns="http://www.w3.org/2000/svg" xmlns:xlink="http://www.w3.org/1999/xlink" x="0px" y="0px"
	 viewBox="0 0 50 50" style="enable-background:new 0 0 50 50;" xml:space="preserve">
<style type="text/css">
	.st0{fill:#B68AF3;}
	.st1{fill:#E5E5E5;}
	.st2{fill:none;stroke:#E5E5E5;stroke-linecap:round;stroke-linejoin:round;stroke-miterlimit:10;}
</style>
<g>
	<g>
		<path class="st0" d="M27.6,24.3h6.8v-7.2h-6.8V24.3z M28.5,19.3h5.2c0.1,0,0.2,0.1,0.2,0.2s-0.1,0.2-0.2,0.2h-5.2
			c-0.1,0-0.2-0.1-0.2-0.2S28.3,19.3,28.5,19.3z M28.5,21.6h5.2c0.1,0,0.2,0.1,0.2,0.2s-0.1,0.2-0.2,0.2h-5.2
			c-0.1,0-0.2-0.1-0.2-0.2S28.3,21.6,28.5,21.6z"/>
		<path class="st0" d="M28,44.2h7v-6.9h-7V44.2z M29,39.4h5.2c0.1,0,0.2,0.1,0.2,0.2s-0.1,0.2-0.2,0.2H29c-0.1,0-0.2-0.1-0.2-0.2
			S28.8,39.4,29,39.4z M29,41.6h5.2c0.1,0,0.2,0.1,0.2,0.2s-0.1,0.2-0.2,0.2H29c-0.1,0-0.2-0.1-0.2-0.2S28.8,41.6,29,41.6z"/>
		<path class="st0" d="M15.5,44.2h7v-6.9h-7V44.2z M16.5,39.4h5.2c0.1,0,0.2,0.1,0.2,0.2s-0.1,0.2-0.2,0.2h-5.2
			c-0.1,0-0.2-0.1-0.2-0.2S16.3,39.4,16.5,39.4z M16.5,41.6h5.2c0.1,0,0.2,0.1,0.2,0.2s-0.1,0.2-0.2,0.2h-5.2
			c-0.1,0-0.2-0.1-0.2-0.2S16.3,41.6,16.5,41.6z"/>
		<path class="st0" d="M40.4,44.2h7v-6.9h-7V44.2z M41.4,39.4h5.2c0.1,0,0.2,0.1,0.2,0.2s-0.1,0.2-0.2,0.2h-5.2
			c-0.1,0-0.2-0.1-0.2-0.2S41.2,39.4,41.4,39.4z M41.4,41.6h5.2c0.1,0,0.2,0.1,0.2,0.2s-0.1,0.2-0.2,0.2h-5.2
			c-0.1,0-0.2-0.1-0.2-0.2S41.2,41.6,41.4,41.6z"/>
		<path class="st0" d="M45.3,32c-0.5,0-1-0.4-1-1s0.4-1,1-1h2.8c0.1,0,0.1,0,0.2,0v-6V8.6c0-0.2,0-0.4,0-0.6c-0.1,0-0.1,0-0.2,0
			H14.8c-1.2,0-2.2,1-2.2,2.2v3.2h32.6c0.1,0,0.2,0.1,0.2,0.2s-0.1,0.2-0.2,0.2H12.7v14.2c0,1.2,1,2.2,2.2,2.2h2.5c0.5,0,1,0.4,1,1
			s-0.4,1-1,1h-2.5c-2.3,0-4.1-1.8-4.1-4.1V10.1c0-2.3,1.8-4.1,4.1-4.1h32.8c-0.9-1.8-2.8-3-4.9-3H9C5.9,3,3.4,5.5,3.4,8.6v31.3v2.5
			c0,3.1,2.5,5.6,5.6,5.6l0,0h33.7l0,0c1,0,1.9-0.2,2.7-0.7c0.5-0.3,1-0.7,1.4-1.1h-7.3c-0.5,0-1-0.4-1-1v-8.8c0-0.5,0.4-1,1-1h3.7
			L36,26.1c-0.2,0.1-0.3,0.2-0.5,0.2h-4.2v9.1h4.8c0.5,0,1,0.4,1,1v8.8c0,0.5-0.4,1-1,1h-9c-0.5,0-1-0.4-1-1v-8.8c0-0.5,0.4-1,1-1
			h3.7v-9.1h-4.1c-0.2,0-0.3,0-0.4-0.1l-6.6,9.2h4c0.5,0,1,0.4,1,1v8.8c0,0.5-0.4,1-1,1h-9c-0.5,0-1-0.4-1-1v-8.8c0-0.5,0.4-1,1-1
			H19l6.9-9.6c-0.1-0.2-0.2-0.3-0.2-0.5v-9.1c0-0.5,0.4-1,1-1h8.8c0.5,0,1,0.4,1,1v9.1c0,0.2,0,0.3-0.1,0.4l7.5,9.7h4.5V32
			c-0.1,0-0.1,0-0.2,0H45.3z M15.5,12.4c-0.8,0-1.5-0.7-1.5-1.5c0-0.8,0.7-1.5,1.5-1.5s1.5,0.7,1.5,1.5C17,11.7,16.3,12.4,15.5,12.4
			z M19.6,12.4c-0.8,0-1.5-0.7-1.5-1.5c0-0.8,0.7-1.5,1.5-1.5c0.8,0,1.5,0.7,1.5,1.5C21,11.7,20.4,12.4,19.6,12.4z"/>
		<path class="st1" d="M48.1,30.1h-2.8c-0.5,0-1,0.4-1,1s0.4,1,1,1h2.8c0.1,0,0.1,0,0.2,0v-1.9C48.2,30.1,48.2,30.1,48.1,30.1z"/>
		<path class="st1" d="M10.7,10.1v17.8c0,2.3,1.8,4.1,4.1,4.1h2.5c0.5,0,1-0.4,1-1s-0.4-1-1-1h-2.5c-1.2,0-2.2-1-2.2-2.2V13.8h32.6
			c0.1,0,0.2-0.1,0.2-0.2s-0.1-0.2-0.2-0.2H12.7v-3.2c0-1.2,1-2.2,2.2-2.2h33.3c0.1,0,0.1,0,0.2,0c-0.1-0.7-0.3-1.4-0.6-2H14.8
			C12.6,6,10.7,7.8,10.7,10.1z"/>
		<path class="st1" d="M16.5,39.9h5.2c0.1,0,0.2-0.1,0.2-0.2s-0.1-0.2-0.2-0.2h-5.2c-0.1,0-0.2,0.1-0.2,0.2S16.3,39.9,16.5,39.9z"/>
		<path class="st1" d="M16.5,42.1h5.2c0.1,0,0.2-0.1,0.2-0.2s-0.1-0.2-0.2-0.2h-5.2c-0.1,0-0.2,0.1-0.2,0.2S16.3,42.1,16.5,42.1z"/>
		<path class="st1" d="M29,39.9h5.2c0.1,0,0.2-0.1,0.2-0.2s-0.1-0.2-0.2-0.2H29c-0.1,0-0.2,0.1-0.2,0.2S28.8,39.9,29,39.9z"/>
		<path class="st1" d="M29,42.1h5.2c0.1,0,0.2-0.1,0.2-0.2s-0.1-0.2-0.2-0.2H29c-0.1,0-0.2,0.1-0.2,0.2S28.8,42.1,29,42.1z"/>
		<path class="st1" d="M36.3,25.7c0.1-0.1,0.1-0.3,0.1-0.4v-9.1c0-0.5-0.4-1-1-1h-8.8c-0.5,0-1,0.4-1,1v9.1c0,0.2,0.1,0.4,0.2,0.5
			L19,35.4h-4.4c-0.5,0-1,0.4-1,1v8.8c0,0.5,0.4,1,1,1h9c0.5,0,1-0.4,1-1v-8.8c0-0.5-0.4-1-1-1h-4l6.6-9.2c0.1,0.1,0.3,0.1,0.4,0.1
			h4.1v9.1h-3.7c-0.5,0-1,0.4-1,1v8.8c0,0.5,0.4,1,1,1h9c0.5,0,1-0.4,1-1v-8.8c0-0.5-0.4-1-1-1h-4.8v-9.1h4.2c0.2,0,0.4-0.1,0.5-0.2
			l7.2,9.3h-3.7c-0.5,0-1,0.4-1,1v8.8c0,0.5,0.4,1,1,1h7.3c0.9-1,1.5-2.3,1.5-3.8v-6.9h-4.5L36.3,25.7z M22.6,37.3v6.9h-7v-6.9H22.6
			z M35.1,37.3v6.9h-7v-6.9H35.1z M34.5,24.3h-6.8v-7.2h6.8V24.3z M47.5,44.2h-7v-6.9h7V44.2z"/>
		<path class="st1" d="M41.4,39.9h5.2c0.1,0,0.2-0.1,0.2-0.2s-0.1-0.2-0.2-0.2h-5.2c-0.1,0-0.2,0.1-0.2,0.2S41.2,39.9,41.4,39.9z"/>
		<path class="st1" d="M41.4,42.1h5.2c0.1,0,0.2-0.1,0.2-0.2s-0.1-0.2-0.2-0.2h-5.2c-0.1,0-0.2,0.1-0.2,0.2S41.2,42.1,41.4,42.1z"/>
		<path class="st1" d="M28.5,19.8h5.2c0.1,0,0.2-0.1,0.2-0.2s-0.1-0.2-0.2-0.2h-5.2c-0.1,0-0.2,0.1-0.2,0.2S28.3,19.8,28.5,19.8z"/>
		<path class="st1" d="M28.5,22.1h5.2c0.1,0,0.2-0.1,0.2-0.2s-0.1-0.2-0.2-0.2h-5.2c-0.1,0-0.2,0.1-0.2,0.2S28.3,22.1,28.5,22.1z"/>
		<path class="st1" d="M15.5,9.5c-0.8,0-1.5,0.7-1.5,1.5c0,0.8,0.7,1.5,1.5,1.5s1.5-0.7,1.5-1.5C17,10.1,16.3,9.5,15.5,9.5z"/>
		<circle class="st1" cx="19.6" cy="10.9" r="1.5"/>
	</g>
	<line class="st2" x1="26.5" y1="25.4" x2="18.3" y2="36.7"/>
	<line class="st2" x1="31" y1="25.5" x2="31" y2="36.2"/>
	<line class="st2" x1="35.5" y1="25.4" x2="44.1" y2="36.4"/>
	<line class="st2" x1="12.3" y1="13.7" x2="46" y2="13.7"/>
	<line class="st2" x1="28.6" y1="19.6" x2="33.5" y2="19.6"/>
	<line class="st2" x1="28.6" y1="21.8" x2="33.5" y2="21.8"/>
	<g>
		<line class="st2" x1="29.2" y1="39.6" x2="34.1" y2="39.6"/>
		<line class="st2" x1="29.2" y1="41.8" x2="34.1" y2="41.8"/>
	</g>
	<g>
		<line class="st2" x1="16.5" y1="39.6" x2="21.4" y2="39.6"/>
		<line class="st2" x1="16.5" y1="41.8" x2="21.4" y2="41.8"/>
	</g>
	<g>
		<line class="st2" x1="41.5" y1="39.7" x2="46.4" y2="39.7"/>
		<line class="st2" x1="41.5" y1="41.9" x2="46.4" y2="41.9"/>
	</g>
</g>
</svg>
