<svg xmlns="http://www.w3.org/2000/svg" viewBox="0 0 50 50"><defs><style>.cls-1,.cls-4{fill:none;}.cls-1{stroke:#494949;stroke-miterlimit:10;stroke-width:3.11px;}.cls-2{fill:#dc5e82;}.cls-3{fill:#f56991;}.cls-4{stroke:#444;stroke-linecap:round;stroke-linejoin:round;stroke-width:2.5px;}.cls-5{fill:#444;}.cls-6{fill:#494949;}</style></defs><g id="Layer_1" data-name="Layer 1"><rect class="cls-1" x="-50.54" y="-96.7" width="425.11" height="443.81"/><polygon class="cls-2" points="47.7 11.6 48.5 16.8 2.4 33.6 1.9 22.7 1.8 16.5 42.1 1.9 47.3 4.2 47.7 11.6"/><polygon class="cls-3" points="46.1 2 48.4 5.2 1.5 21.9 2.6 4.8 5.6 1.9 34.7 1.7 46.1 2"/><path class="cls-4" d="M18.1,48.3H5.5a3.46,3.46,0,0,1-3.4-3.5V5.8A3.4,3.4,0,0,1,5.5,2.3h39a3.46,3.46,0,0,1,3.4,3.5V30.4"/><circle class="cls-5" cx="8.2" cy="8.2" r="1.4"/><circle class="cls-5" cx="12.1" cy="8.2" r="1.4"/><circle class="cls-5" cx="15.9" cy="8.2" r="1.4"/><g id="CXHf1q"><path class="cls-6" d="M29.2,33.9c-1.3.3-2.3.6-3.6.9-.3.2-.3.2-.6-.1a2.54,2.54,0,0,0-1-.8,3.5,3.5,0,0,0-3.8.3,4.61,4.61,0,0,0-2.2,4,3.26,3.26,0,0,0,2.9,3.3,3.83,3.83,0,0,0,3.6-1.4,5.55,5.55,0,0,0,.6-.8H21c-.4,0-.6-.3-.4-.6a25.05,25.05,0,0,1,1.1-2.3.62.62,0,0,1,.5-.3h7.7a9.7,9.7,0,0,1-.1,1.7A9.59,9.59,0,0,1,28.1,42,8.64,8.64,0,0,1,22,45.6a7.27,7.27,0,0,1-5.7-1.4,6.56,6.56,0,0,1-2.7-4.7,8.17,8.17,0,0,1,1.8-6.2,9.53,9.53,0,0,1,6-3.7,7,7,0,0,1,8.1,4A.27.27,0,0,1,29.2,33.9Z"/><path class="cls-6" d="M36.2,45.7A7.78,7.78,0,0,1,31,43.8a6.81,6.81,0,0,1-2.3-4.1,8.17,8.17,0,0,1,1.7-6.4,8.88,8.88,0,0,1,6-3.5,7.74,7.74,0,0,1,6.1,1.1,6.54,6.54,0,0,1,3,4.7,8.25,8.25,0,0,1-2.4,7.2A9.75,9.75,0,0,1,38,45.5C37.3,45.6,36.8,45.6,36.2,45.7Zm5.1-8.6a1.48,1.48,0,0,0-.1-.7,3.45,3.45,0,0,0-4.3-2.8,4.46,4.46,0,0,0-3.7,3.7,3.4,3.4,0,0,0,2,4,4.28,4.28,0,0,0,3.5-.1A4.82,4.82,0,0,0,41.3,37.1Z"/></g></g></svg>