<?xml version="1.0" encoding="utf-8"?>
<!-- Generator: Adobe Illustrator 24.3.0, SVG Export Plug-In . SVG Version: 6.00 Build 0)  -->
<svg version="1.1" id="Layer_1" xmlns="http://www.w3.org/2000/svg" xmlns:xlink="http://www.w3.org/1999/xlink" x="0px" y="0px"
	 viewBox="0 0 48 47" style="enable-background:new 0 0 48 47;" xml:space="preserve">
<style type="text/css">
	.st0{fill:#E589EF;}
	.st1{fill:#F799FF;}
	.st2{fill:none;stroke:#494949;stroke-width:2.5;stroke-linecap:round;stroke-linejoin:round;stroke-miterlimit:10;}
	.st3{fill:none;stroke:#494949;stroke-linecap:round;stroke-linejoin:round;stroke-miterlimit:10;}
</style>
<g>
	<g>
		<path class="st0" d="M38,6.1L8.2,16.9c0,0.2-0.1,0.4-0.1,0.6c-0.1,0.7-0.1,1.3-0.1,2v2l-4,8l3.8,1.9l36.1-13.2
			c-0.3-3.8-1.8-7.6-4.5-10.7c-0.3-0.4-0.7-0.7-1-1L38,6.1z"/>
	</g>
	<g>
		<path class="st1" d="M38,6.1c-6.7-6-17.1-6.1-24,0c-3.2,2.8-5.2,6.7-5.8,10.9c0,0.2-0.1,0.4-0.1,0.6L38.4,6.4L38,6.1z"/>
	</g>
	<g>
		<path class="st2" d="M20,45.5v-4h-8c-2.2,0-4-1.8-4-4v-6l-0.2-0.1L4,29.5l4-8v-2c0-0.7,0-1.3,0.1-2c0-0.2,0-0.4,0.1-0.6
			c0.6-4.2,2.6-8,5.8-10.9c6.9-6.2,17.2-6.1,24,0c0.1,0.1,0.3,0.2,0.4,0.4c0.4,0.3,0.7,0.7,1,1c2.8,3.1,4.3,6.9,4.5,10.7
			c0.4,5.4-1.6,10.9-5.9,14.7v12.6"/>
	</g>
	<g>
		<circle class="st3" cx="26" cy="19.5" r="10.3"/>
		<g>
			<line class="st3" x1="30.5" y1="21.1" x2="30.5" y2="24.3"/>
			<line class="st3" x1="21.5" y1="19.1" x2="21.5" y2="24.3"/>
			<line class="st3" x1="26" y1="15.8" x2="26" y2="26.2"/>
		</g>
	</g>
</g>
</svg>
