<?xml version="1.0" encoding="utf-8"?>
<!-- Generator: Adobe Illustrator 24.3.0, SVG Export Plug-In . SVG Version: 6.00 Build 0)  -->
<svg version="1.1" id="Layer_1" xmlns="http://www.w3.org/2000/svg" xmlns:xlink="http://www.w3.org/1999/xlink" x="0px" y="0px"
	 viewBox="0 0 50 50" style="enable-background:new 0 0 50 50;" xml:space="preserve">
<style type="text/css">
	.st0{fill:#00C8E2;}
	.st1{fill:#00DFFC;}
	.st2{fill:#494949;}
</style>
<g>
	<g>
		<g>
			<path class="st0" d="M6.5,38.4l5.7,3.3L45.9,23l-0.1-7.3c0-1.6-0.9-3.2-2.3-4L27.3,2.3c-1.4-0.8-3.2-0.8-4.6,0L6.5,11.6
				c-1.4,0.8-2.3,2.3-2.3,4v18.8C4.2,36,5,37.5,6.5,38.4z"/>
		</g>
		<g>
			<path class="st1" d="M33.9,6.1l-6.6-3.9c-1.4-0.8-3.2-0.8-4.6,0L6.5,11.6c-1.4,0.8-2.3,2.3-2.3,4l-0.3,7.9L33.9,6.1z"/>
		</g>
		<path class="st2" d="M47.1,25.1v-9.4c0-1.1-0.3-2.1-0.8-3s-1.2-1.7-2.2-2.2L36,5.8l-8-4.6c-0.9-0.5-1.9-0.8-3-0.8
			c-1,0-2.1,0.2-3,0.8l-8.2,4.7l-8,4.6C5,11,4.2,11.8,3.7,12.7c-0.5,0.9-0.8,1.9-0.8,3v9.1v9.5c0,1,0.3,2,0.8,2.9s1.2,1.7,2.2,2.2
			l16.2,9.4c0.9,0.5,1.9,0.8,2.9,0.8s2-0.3,2.9-0.8l4.5-2.6c0,0,0,0,0.1-0.1l11.6-6.6c1.8-1,2.9-3,2.9-5v-5v-0.1
			C47,28,47.1,26.5,47.1,25.1z M42.9,37.4L31,44.2c0,0,0,0-0.1,0.1l-4.2,2.4c-1,0.6-2.3,0.6-3.4,0l-11.8-6.8c0,0,0,0-0.1-0.1L7,37.2
			c-0.5-0.3-0.9-0.7-1.2-1.2c-0.3-0.5-0.4-1.1-0.4-1.6v-9.2v-9.7c0-0.6,0.2-1.1,0.4-1.6C6.1,13.4,6.5,13,7,12.7L15.3,8l8.1-4.7
			C23.9,3,24.5,2.9,25,2.9c0.6,0,1.1,0.2,1.6,0.4L35,8.1l8,4.7c0.5,0.3,0.9,0.7,1.2,1.2s0.4,1.1,0.4,1.6v9.2v9.6
			C44.6,35.7,43.9,36.8,42.9,37.4z"/>
	</g>
	<g>
		<g>
			<g>
				<path class="st2" d="M25,24.4l9.7-4.9l-9.4-4.7c-0.2-0.1-0.4-0.1-0.6,0l-9.4,4.7L25,24.4z"/>
			</g>
			<g>
				<path class="st2" d="M25.7,25.7v11.8l9.3-4.7c0.2-0.1,0.4-0.4,0.4-0.6V20.8L25.7,25.7z"/>
			</g>
			<g>
				<path class="st2" d="M24.3,25.7l-9.7-4.9v11.4c0,0.3,0.1,0.5,0.4,0.6l9.3,4.7V25.7z"/>
			</g>
		</g>
		<g>
			<g>
				<path class="st2" d="M25,20.1c-0.3,0-0.5-0.2-0.5-0.5v-18c0-0.3,0.2-0.5,0.5-0.5s0.5,0.2,0.5,0.5v18
					C25.5,19.9,25.3,20.1,25,20.1z"/>
			</g>
			<g>
				<path class="st2" d="M5,37.5c-0.2,0-0.4-0.1-0.5-0.3s0-0.5,0.2-0.7L21,28.7c0.2-0.1,0.5,0,0.7,0.2c0.1,0.2,0,0.5-0.2,0.7
					L5.2,37.5C5.1,37.5,5.1,37.5,5,37.5z"/>
			</g>
			<g>
				<path class="st2" d="M45.2,37.9c-0.1,0-0.2,0-0.2-0.1l-15.4-7.9c-0.2-0.1-0.3-0.4-0.2-0.7c0.1-0.2,0.4-0.3,0.7-0.2l15.4,8
					c0.2,0.1,0.3,0.4,0.2,0.7C45.6,37.8,45.4,37.9,45.2,37.9z"/>
			</g>
		</g>
	</g>
</g>
</svg>
