<svg xmlns="http://www.w3.org/2000/svg" version="1" viewBox="0 0 50 50"><path fill="#DC5E82" d="M15.534 41.984l-1.378 3.138c1.286.565 2.619 1 3.98 1.317l16.077-5.852-2.414-3.591a15.287 15.287 0 0 0 5.056-5.682l3.147 1.619a18.802 18.802 0 0 0 2.082-8.599h3.908a22.702 22.702 0 0 0-14.981-21.35l-2.037 5.629a16.708 16.708 0 0 0-5.687-.997c-.242 0-.483.013-.724.023l-.111-2.564c-10.251.444-18.443 8.998-18.443 19.259 0 7.634 4.535 14.58 11.525 17.65z"/><path fill="#F56991" d="M37.009 6.247a22.712 22.712 0 0 0-6.01-3.274l-2.037 5.629a16.708 16.708 0 0 0-5.687-.997c-.241 0-.482.013-.723.023l-.112-2.565c-7.982.346-14.697 5.62-17.286 12.778L37.009 6.247z"/><g fill="#444"><path d="M42.896 10.564a23.83 23.83 0 0 0-11.461-8.767l-1.175-.425-2.051 5.67a17.853 17.853 0 0 0-4.45-.681l-.113-2.6-1.249.054c-10.828.469-19.638 9.669-19.638 20.508A20.534 20.534 0 0 0 13.902 42.58l-1.394 3.172 1.144.503a23.808 23.808 0 0 0 9.634 2.022 1.25 1.25 0 0 0 0-2.5c-2.558 0-5.053-.448-7.433-1.33l4.803-11.263a9.217 9.217 0 0 0 2.63.386 9.179 9.179 0 0 0 4.108-.975l2.688 4.038-.018.012 3.116 4.636a1.247 1.247 0 0 0 1.734.34 1.248 1.248 0 0 0 .34-1.734l-1.748-2.601a16.454 16.454 0 0 0 3.844-4.321l3.189 1.641.571-1.112a20.166 20.166 0 0 0 2.182-7.921h3.947v-1.25a23.824 23.824 0 0 0-4.343-13.759zM40.849 12a21.322 21.322 0 0 1 3.849 10.992l-12.234.237a9.261 9.261 0 0 0-4.894-7.095l2.146-5.935.008.003 2.024-5.596A21.337 21.337 0 0 1 40.849 12zM22.717 8.872a15.257 15.257 0 0 1 5.832.905l.932.337-2.137 5.911a9.183 9.183 0 0 0-4.057-.95 9.2 9.2 0 0 0-1.357.111l-.451-6.258 1.238-.056zm-5.763 32.359l-.917-.403A18.03 18.03 0 0 1 5.259 24.323c0-9.027 6.961-16.752 15.791-17.877l.632 8.779c-4.336.763-7.643 4.548-7.643 9.098 0 4.097 2.68 7.575 6.378 8.786l-3.463 8.122zm-2.415-16.908c0-4.823 3.924-8.747 8.748-8.747s8.748 3.924 8.748 8.747c0 4.824-3.924 8.748-8.748 8.748-4.824-.001-8.748-3.925-8.748-8.748zm19.213 9.311a14.032 14.032 0 0 1-2.65 2.314l-.811.545-2.668-4.008a9.287 9.287 0 0 0 4.284-4.841l4.311 2.162-.475.924a14.044 14.044 0 0 1-1.991 2.904zm5.695-2.487l-7.453-3.738a9.183 9.183 0 0 0 .541-3.086c0-.285-.017-.566-.043-.844l8.342-.162v1.006a17.657 17.657 0 0 1-1.387 6.824z"/><path d="M23.287 16.325c-4.41 0-7.998 3.588-7.998 7.998s3.588 7.998 7.998 7.998 7.998-3.588 7.998-7.998-3.589-7.998-7.998-7.998zm0 15.745c-4.272 0-7.748-3.476-7.748-7.748s3.476-7.748 7.748-7.748 7.748 3.476 7.748 7.748-3.476 7.748-7.748 7.748z"/><path d="M21.901 21.554c.49-.263 1.05-.396 1.681-.396.999 0 1.851.371 2.558 1.115l1.468-1.356a4.668 4.668 0 0 0-1.78-1.272c-.706-.292-1.492-.438-2.359-.438-1.036 0-1.968.219-2.797.657a4.878 4.878 0 0 0-1.943 1.822c-.466.777-.699 1.656-.699 2.635 0 .98.233 1.858.699 2.635a4.9 4.9 0 0 0 1.929 1.822c.82.438 1.742.657 2.769.657.716 0 1.427-.108 2.134-.324a6.01 6.01 0 0 0 1.865-.932v-4.505l-4.616.001v2.093h2.525v1.295c-.528.283-1.121.424-1.78.424-.622 0-1.175-.135-1.66-.402a2.902 2.902 0 0 1-1.137-1.123c-.274-.481-.41-1.027-.41-1.64 0-.621.137-1.173.41-1.652.271-.48.653-.852 1.143-1.116z"/></g></svg>