<?xml version="1.0" encoding="utf-8"?>
<!-- Generator: Adobe Illustrator 24.1.2, SVG Export Plug-In . SVG Version: 6.00 Build 0)  -->
<svg version="1.1" id="Layer_1" xmlns="http://www.w3.org/2000/svg" xmlns:xlink="http://www.w3.org/1999/xlink" x="0px" y="0px"
	 viewBox="0 0 50 50" style="enable-background:new 0 0 50 50;" xml:space="preserve">
<style type="text/css">
	.st0{fill:#AFE55D;}
	.st1{fill:#C3FF68;}
	.st2{fill:#444444;}
	.st3{fill:none;stroke:#444444;stroke-width:2.5;stroke-linecap:round;stroke-linejoin:round;stroke-miterlimit:10;}
</style>
<g>
	<g>
		<polygon class="st0" points="48.4,26 48.8,30.3 1.8,47.5 1.9,38.4 2.3,33 49,15.9 48.4,19.7 		"/>
	</g>
	<g>
		<polygon class="st1" points="48.4,9.1 47.8,16.9 1.9,33.8 1.9,23.7 2.2,19.2 48.5,2.4 		"/>
	</g>
	<g>
		<path class="st2" d="M36.9,49.4H1.8c-0.7,0-1.2-0.6-1.2-1.2V1.8c0-0.7,0.6-1.2,1.2-1.2h46.5c0.7,0,1.2,0.6,1.2,1.2v35.2
			c0,0.7-0.6,1.2-1.2,1.2S47,37.8,47,37V3.1H3v43.7h33.9c0.7,0,1.2,0.6,1.2,1.2S37.5,49.4,36.9,49.4z"/>
	</g>
</g>
<g>
	<line class="st3" x1="36.2" y1="36.7" x2="30.9" y2="31.3"/>
	<circle class="st3" cx="24.1" cy="23.6" r="10.3"/>
	<g>
		<line class="st3" x1="28.6" y1="25.2" x2="28.6" y2="28.4"/>
		<line class="st3" x1="19.5" y1="23.2" x2="19.5" y2="28.4"/>
		<line class="st3" x1="24.1" y1="19.9" x2="24.1" y2="30.3"/>
	</g>
</g>
</svg>
