<?xml version="1.0" encoding="utf-8"?>
<!-- Generator: Adobe Illustrator 24.0.3, SVG Export Plug-In . SVG Version: 6.00 Build 0)  -->
<svg version="1.1" id="Camada_1" xmlns="http://www.w3.org/2000/svg" xmlns:xlink="http://www.w3.org/1999/xlink" x="0px" y="0px"
	 viewBox="0 0 50 50" style="enable-background:new 0 0 50 50;" xml:space="preserve">
<style type="text/css">
	.st0{fill:#00C8E2;}
	.st1{fill:#00DFFC;}
	.st2{fill:#444444;}
</style>
<g>
	<polygon class="st0" points="48.4,26.09 48.81,30.45 1.78,47.57 1.92,38.37 2.27,33.08 49.12,16.03 48.4,19.8 	"/>
</g>
<g>
	<polygon class="st1" points="48.4,9.22 47.83,17.05 1.92,33.76 1.92,23.83 2.25,19.33 48.52,2.49 	"/>
</g>
<g>
	<path class="st2" d="M36.89,49.37H1.78c-0.69,0-1.25-0.56-1.25-1.25V1.94c0-0.69,0.56-1.25,1.25-1.25h46.48
		c0.69,0,1.25,0.56,1.25,1.25v35.19c0,0.69-0.56,1.25-1.25,1.25s-1.25-0.56-1.25-1.25V3.19H3.03v43.68h33.86
		c0.69,0,1.25,0.56,1.25,1.25S37.58,49.37,36.89,49.37z"/>
</g>
<g>
	<g>
		<path class="st2" d="M34.43,9.84H23.97c-2.35,0-4.26,1.91-4.26,4.32c0,2.35,1.91,4.26,4.26,4.26h10.46c2.35,0,4.26-1.91,4.26-4.32
			C38.69,11.75,36.78,9.84,34.43,9.84z M23.97,16.92c-1.52,0-2.76-1.24-2.76-2.82c0-1.53,1.24-2.76,2.76-2.76h8.09
			c-0.83,0.62-1.37,1.62-1.37,2.75c0,1.17,0.59,2.21,1.48,2.83H23.97z"/>
	</g>
	<g>
		<path class="st2" d="M34.43,32.79H23.97c-2.35,0-4.26,1.92-4.26,4.33c0,2.35,1.91,4.26,4.26,4.26h10.46
			c2.35,0,4.26-1.91,4.26-4.33C38.69,34.71,36.78,32.79,34.43,32.79z M23.97,39.88c-1.52,0-2.76-1.24-2.76-2.83
			c0-1.52,1.24-2.76,2.76-2.76h8.93c-1.04,0.59-1.74,1.72-1.74,3c0,1.03,0.45,1.96,1.17,2.59H23.97z"/>
	</g>
	<g>
		<path class="st2" d="M25.99,21.31H15.53c-2.35,0-4.26,1.92-4.26,4.33c0,2.35,1.91,4.26,4.26,4.26h10.46
			c2.35,0,4.26-1.91,4.26-4.32C30.25,23.23,28.34,21.31,25.99,21.31z M15.53,28.4c-1.52,0-2.76-1.24-2.76-2.82
			c0-1.53,1.24-2.77,2.76-2.77h8.21c-0.79,0.63-1.29,1.6-1.29,2.69c0,1.22,0.63,2.29,1.58,2.9H15.53z"/>
	</g>
</g>
</svg>
