<?xml version="1.0" encoding="utf-8"?>
<!-- Generator: Adobe Illustrator 22.1.0, SVG Export Plug-In . SVG Version: 6.00 Build 0)  -->
<svg version="1.1" id="Layer_1" xmlns="http://www.w3.org/2000/svg" xmlns:xlink="http://www.w3.org/1999/xlink" x="0px" y="0px"
	 viewBox="0 0 50 50" style="enable-background:new 0 0 50 50;" xml:space="preserve">
<style type="text/css">
	.st0{fill:#C3FF68;}
	.st1{fill:#AFE55D;}
	.st2{fill:#444444;}
</style>
<g>
	<g>
		<path class="st0" d="M43.9,2H6.1C3.9,2,2,3.9,2,6.1V22L47.9,5.3C47.5,3.4,45.9,2,43.9,2z"/>
	</g>
	<g>
		<path class="st1" d="M48,5.1c0-0.3,0-0.6-0.1-0.8L2,21v21.9c0,0.9,0.3,1.7,0.8,2.4L48,28.8V5.1z"/>
	</g>
	<g>
		<path class="st2" d="M43.9,49.2H6.1c-3,0-5.4-2.4-5.4-5.4V6.1c0-3,2.4-5.4,5.4-5.4h37.7c3,0,5.4,2.4,5.4,5.4v22.3
			c0,0.7-0.6,1.2-1.2,1.2s-1.2-0.6-1.2-1.2V6.1c0-1.6-1.3-2.9-2.9-2.9H6.1c-1.6,0-2.9,1.3-2.9,2.9v37.7c0,1.6,1.3,2.9,2.9,2.9h37.7
			c1.6,0,2.9-1.3,2.9-2.9v-3.3c0-0.7,0.6-1.2,1.2-1.2s1.2,0.6,1.2,1.2v3.3C49.2,46.8,46.8,49.2,43.9,49.2z"/>
	</g>
	<g>
		<g>
			<circle class="st2" cx="16.6" cy="18.4" r="10"/>
		</g>
		<g>
			<circle class="st2" cx="33.2" cy="23.5" r="5"/>
		</g>
		<g>
			<circle class="st2" cx="40.8" cy="17.6" r="2.6"/>
		</g>
		<g>
			<circle class="st2" cx="33.2" cy="35.8" r="5.8"/>
		</g>
	</g>
</g>
</svg>
