<?xml version="1.0" encoding="UTF-8"?>
<svg id="Layer_1" xmlns="http://www.w3.org/2000/svg" version="1.1" viewBox="0 0 50 50">
  <!-- Generator: Adobe Illustrator 29.0.0, SVG Export Plug-In . SVG Version: 2.1.0 Build 186)  -->
  <defs>
    <style>
      .st0, .st1, .st2 {
        fill: none;
        stroke: #444;
        stroke-linecap: round;
        stroke-linejoin: round;
      }

      .st3 {
        fill: #dc5e82;
      }

      .st1 {
        stroke-width: 2.5px;
      }

      .st2 {
        stroke-width: .5px;
      }
    </style>
  </defs>
  <path class="st3" d="M9.4,4.7l-5.5,7.3c-3.5,11.2.6,18.3.6,18.3l10.1,6.9c1.4,1.2,10.6.5,14.3-.9l5,4.6,5.4-1.9,5.5-1.9-8.6-7.6,2.2-9.5-2.8-10.9-6.3-4.9-9.2-3-10.7,3.5Z"/>
  <path class="st0" d="M42.2,41.9l-6.6-6.6"/>
  <path class="st1" d="M35.6,29.4c3-4.1,2.8-9.5,2.8-9.5C38.4,9.9,30.3,1.7,20.2,1.7c-10,0-18.2,8.1-18.2,18.2s8.1,18.2,18.2,18.2c0,0,4.7.2,8.7-2.4M28.9,35.9l10.9,10.9c1.8,1.8,4.8,1.8,6.7,0M35.6,29.4l8.7,7.8"/>
  <circle class="st0" cx="20.2" cy="19.9" r="13.2"/>
  <path class="st2" d="M14.4,26.6h-2c-.1,0-.2-.1-.2-.2v-3.5c0-.1.1-.2.2-.2h2c.1,0,.2.1.2.2v3.5c0,.1-.1.2-.2.2ZM18.9,26.6h-2c-.1,0-.2-.1-.2-.2v-7.4c0-.1.1-.2.2-.2h2c.1,0,.2.1.2.2v7.4c0,.1-.1.2-.2.2ZM23.4,26.6h-2c-.1,0-.2-.1-.2-.2v-5.6c0-.1.1-.2.2-.2h2c.1,0,.2.1.2.2v5.6c.1.1,0,.2-.2.2ZM28,26.6h-2c-.1,0-.2-.1-.2-.2v-9.5c0-.1.1-.2.2-.2h2c.1,0,.2.1.2.2v9.5c0,.1-.1.2-.2.2ZM25.5,12.6l-4.4,4.4-2.3-2.2-1.8,1.8"/>
  <path class="st2" d="M25.5,15.2v-2.6h-2.6"/>
</svg>