<?xml version="1.0" encoding="utf-8"?>
<!-- Generator: Adobe Illustrator 22.0.1, SVG Export Plug-In . SVG Version: 6.00 Build 0)  -->
<svg version="1.1" id="Layer_1" xmlns="http://www.w3.org/2000/svg" xmlns:xlink="http://www.w3.org/1999/xlink" x="0px" y="0px"
	 viewBox="0 0 50 50" style="enable-background:new 0 0 50 50;" xml:space="preserve">
<style type="text/css">
	.st0{fill:#46B8B0;}
	.st1{fill:#4ECDC4;}
	.st2{fill:#444444;}
</style>
<g>
	<g>
		<path class="st0" d="M47.5,27.4c0.9-1.5,0.9-3.3,0-4.8l-5.3-9.3L2.7,27.7L11.5,43l34.2-12.5L47.5,27.4z"/>
	</g>
	<g>
		<path class="st1" d="M38.4,6.7c-0.9-1.5-2.5-2.4-4.2-2.4H15.9c-1.7,0-3.3,0.9-4.2,2.4L2.5,22.6c-0.9,1.5-0.9,3.3,0,4.8l0.2,0.3
			l39.5-14.4L38.4,6.7z"/>
	</g>
	<g>
		<path class="st2" d="M25,47h-9.2c-2.2,0-4.2-1.2-5.3-3L1.4,28c-1.1-1.9-1.1-4.2,0-6.1l9.2-15.9c1.1-1.9,3.1-3,5.3-3h18.3
			c2.2,0,4.2,1.2,5.3,3L48.6,22c1.1,1.9,1.1,4.2,0,6.1l-2.8,4.9c-0.3,0.6-1.1,0.8-1.7,0.5c-0.6-0.3-0.8-1.1-0.5-1.7l2.8-4.9
			c0.6-1.1,0.6-2.5,0-3.6L37.3,7.3c-0.6-1.1-1.8-1.8-3.1-1.8H15.8c-1.3,0-2.5,0.7-3.1,1.8L3.6,23.2c-0.6,1.1-0.6,2.5,0,3.6l9.2,15.9
			c0.6,1.1,1.8,1.8,3.1,1.8H25c0.7,0,1.2,0.6,1.2,1.2S25.7,47,25,47z"/>
	</g>
	<g>
		<g>
			<path class="st2" d="M18.5,33.5c-0.4,0-0.7-0.1-0.9-0.4l-3-3.4v-9.5l3-3.3c0.5-0.5,1.3-0.5,1.8-0.1c0.5,0.5,0.5,1.3,0.1,1.8
				l-2.3,2.6v7.6l2.4,2.7c0.5,0.5,0.4,1.3-0.1,1.8C19.1,33.4,18.8,33.5,18.5,33.5z"/>
		</g>
		<g>
			<path class="st2" d="M31.5,33.5c-0.3,0-0.6-0.1-0.8-0.3c-0.5-0.5-0.6-1.2-0.1-1.8l2.4-2.7v-7.6l-2.3-2.6
				c-0.5-0.5-0.4-1.3,0.1-1.8c0.5-0.5,1.3-0.4,1.8,0.1l3,3.3v9.5l-3,3.4C32.2,33.4,31.8,33.5,31.5,33.5z"/>
		</g>
		<g>
			<g>
				<circle class="st2" cx="21" cy="25" r="1.5"/>
			</g>
			<g>
				<circle class="st2" cx="25" cy="25" r="1.5"/>
			</g>
			<g>
				<circle class="st2" cx="29" cy="25" r="1.5"/>
			</g>
		</g>
	</g>
</g>
</svg>
