<?xml version="1.0" encoding="UTF-8"?>
<svg id="Camada_1" data-name="Camada 1" xmlns="http://www.w3.org/2000/svg" version="1.1" viewBox="0 0 50 50">
  <defs>
    <style>
      .cls-1 {
        fill: #35d3c3;
      }

      .cls-1, .cls-2, .cls-3 {
        stroke-width: 0px;
      }

      .cls-2 {
        fill: #444;
      }

      .cls-4 {
        stroke-linecap: round;
        stroke-linejoin: round;
        stroke-width: 2.5px;
      }

      .cls-4, .cls-5 {
        fill: none;
        stroke: #444;
      }

      .cls-5 {
        stroke-miterlimit: 10;
        stroke-width: .5px;
      }

      .cls-3 {
        fill: #7df4eb;
      }
    </style>
  </defs>
  <polygon class="cls-1" points="29.4 17.9 37.6 20.4 30.6 25.3 30.7 33.8 23.9 28.7 15.8 31.5 18.6 23.4 13.5 16.6 22 16.7 26.9 9.7 29.4 17.9"/>
  <g>
    <path class="cls-3" d="M44.7,17.8c-.1-.7-2.4-6.7-2.9-7.2l-2.7-3.1h-.2c0,0-6.8-5.1-6.8-5.1l-7-.6c-2.9,0-13,.2-19.2,9.1l-3.5,9.5h-.2c0,0,3.5,12.1,3.5,12.1,0,.3,4.1,5.1,4.3,5.2l3.6,2.4c9.1,5.1,15.9.8,21.6.4s.4-.1,1.3,2.4l6.5-2.4-3.1-3.7c.6-.3,5.4-14.7,4.6-19Z"/>
    <g>
      <path class="cls-4" d="M45.1,43.3l-5.6-7c7.1-7.9,7.2-20-.2-28.1C32,.4,19.6-.7,11.2,5.9S.3,27,8.1,36.1s18.7,9.5,27.3,3.7l6.1,7.4c.9,1,2.4,1.2,3.5.4h0"/>
      <g>
        <path class="cls-2" d="M11.3,20.7v13.2c1.8,1.9,3.9,3.3,6.1,4.3v-17.5c0-.9-.7-1.7-1.7-1.7h-2.8c-.9,0-1.7.7-1.7,1.7Z"/>
        <path class="cls-2" d="M38.1,32.3v-7.1c0-.9-.7-1.7-1.7-1.7h-2.8c-.9,0-1.7.7-1.7,1.7v12.4c1.2-.6,2.4-1.4,3.4-2.3,1-.9,1.9-1.9,2.7-2.9Z"/>
        <path class="cls-2" d="M21.7,11.5v27.8c2,.3,4.1.2,6.1-.2V11.5c0-.9-.7-1.7-1.7-1.7h-2.8c-.9,0-1.7.7-1.7,1.7Z"/>
      </g>
      <circle class="cls-5" cx="24.1" cy="22.1" r="17.4"/>
    </g>
  </g>
</svg>