<?xml version="1.0" encoding="UTF-8"?>
<svg id="Layer_1" xmlns="http://www.w3.org/2000/svg" version="1.1" xmlns:xlink="http://www.w3.org/1999/xlink" viewBox="0 0 50 50">
  <!-- Generator: Adobe Illustrator 29.2.1, SVG Export Plug-In . SVG Version: 2.1.0 Build 116)  -->
  <defs>
    <style>
      .st0 {
        fill: #ff6b6b;
      }

      .st1, .st2 {
        stroke: #444;
      }

      .st1, .st2, .st3 {
        fill: none;
        stroke-linecap: round;
        stroke-linejoin: round;
      }

      .st4 {
        fill: #fff;
      }

      .st2 {
        stroke-width: 2.5px;
      }

      .st3 {
        stroke: #fff;
        stroke-width: .5px;
      }

      .st5 {
        fill: #444;
      }
    </style>
  </defs>
  <path class="st0" d="M44.1,22c-.7-.4-2.8-.5-3.3-1.1l-2.9-.8-2.4-7.4-3.2-2.9-7.4-1c-3,0-8.3-.4-12.4,9.3l-4.9.8-5.4,4.7.6,8.5c0,.2,5,5.2,5.3,5.4l9.2.7,30.6-11.1c.6-.4-.8-3.3-3.8-5.1Z"/>
  <path class="st2" d="M31.6,37.9H10s-8-.9-8-10.6c0,0,0-8.8,10.6-8.8,0,0,2.3-9.8,12.2-9.8,0,0,12.9-.7,12.9,12.1,0,0,10.2-1.9,10.2,8.8,0,0-.3,8.2-7.6,8.2"/>
  <g>
    <g>
      <path class="st1" d="M30.2,30.8h-10c-.6,0-1.1-.5-1.1-1.1v-10c0-.6.5-1.1,1.1-1.1h10c.6,0,1.1.5,1.1,1.1v10c0,.6-.4,1.1-1.1,1.1Z"/>
      <g>
        <line class="st1" x1="21" y1="18.4" x2="21" y2="16"/>
        <line class="st1" x1="23.8" y1="18.4" x2="23.8" y2="16"/>
        <line class="st1" x1="26.6" y1="18.4" x2="26.6" y2="16"/>
        <line class="st1" x1="29.4" y1="18.4" x2="29.4" y2="16"/>
      </g>
      <g>
        <line class="st1" x1="21" y1="33.4" x2="21" y2="31"/>
        <line class="st1" x1="23.8" y1="33.4" x2="23.8" y2="31"/>
        <line class="st1" x1="26.6" y1="33.4" x2="26.6" y2="31"/>
        <line class="st1" x1="29.4" y1="33.4" x2="29.4" y2="31"/>
      </g>
      <g>
        <line class="st1" x1="31.6" y1="20.5" x2="34" y2="20.5"/>
        <line class="st1" x1="31.6" y1="23.3" x2="34" y2="23.3"/>
        <line class="st1" x1="31.6" y1="26.1" x2="34" y2="26.1"/>
        <line class="st1" x1="31.6" y1="28.9" x2="34" y2="28.9"/>
      </g>
      <g>
        <line class="st1" x1="16.5" y1="20.5" x2="18.9" y2="20.5"/>
        <line class="st1" x1="16.5" y1="23.3" x2="18.9" y2="23.3"/>
        <line class="st1" x1="16.5" y1="26.1" x2="18.9" y2="26.1"/>
        <line class="st1" x1="16.5" y1="28.9" x2="18.9" y2="28.9"/>
      </g>
    </g>
    <path class="st5" d="M28,28.4h-5.5c-.5,0-1-.4-1-1v-5.5c0-.5.4-1,1-1h5.5c.5,0,1,.4,1,1v5.5c-.1.6-.5,1-1,1Z"/>
  </g>
  <g>
    <g>
      <circle class="st4" cx="23.4" cy="24" r=".7"/>
      <circle class="st4" cx="27" cy="24" r=".7"/>
    </g>
    <path class="st3" d="M24.3,25.2s-.2,1.1.9,1.1.9-1.1.9-1.1"/>
  </g>
</svg>