<?xml version="1.0" encoding="utf-8"?>
<!-- Generator: Adobe Illustrator 22.1.0, SVG Export Plug-In . SVG Version: 6.00 Build 0)  -->
<svg version="1.1" id="Layer_1" xmlns="http://www.w3.org/2000/svg" xmlns:xlink="http://www.w3.org/1999/xlink" x="0px" y="0px"
	 viewBox="0 0 50 50" style="enable-background:new 0 0 50 50;" xml:space="preserve">
<style type="text/css">
	.st0{fill:#00C8E2;}
	.st1{fill:#00DFFC;}
	.st2{fill:#444444;}
</style>
<g>
	<polygon class="st0" points="48.9,26.5 10.1,40.6 6.4,38.8 2.8,35.2 0.8,27.4 3.1,21.1 34.9,9.5 38,14.4 39.2,18.1 45.4,20.8 	"/>
</g>
<g>
	<path class="st1" d="M38.4,13.7l-0.1,1.8l-0.4,0.2L1.6,28.8l-0.7,0.2l-0.5-0.6v-0.2c0-6.5,4.8-12.1,11.2-13
		c2.1-5.8,7.6-9.7,13.8-9.7C31,5.6,36,8.9,38.4,13.7z"/>
</g>
<path class="st2" d="M39.9,17.6c-0.3-1.4-0.7-2.7-1.3-3.9c-2.5-5-7.7-8.2-13.2-8.2c-6.2,0-11.8,3.9-13.9,9.7
	C5,16.2,0.2,21.8,0.2,28.3v0.2c0.1,5.8,4,11,9.6,12.7c0.1,0,0.1,0,0.2,0c0.4,0,0.7-0.2,0.8-0.6c0.1-0.2,0-0.4-0.1-0.6
	c-0.1-0.2-0.3-0.3-0.5-0.4C5.4,38.2,2,33.9,1.8,28.8c0-0.2,0-0.3,0-0.5c0-5.9,4.4-11,10.3-11.7c0.1,0,0.1,0,0.1,0c0,0,0.1,0,0.2-0.1
	c0,0,0.1,0,0.1-0.1l0,0c0,0,0,0,0.1-0.1c0-0.1,0.1-0.1,0.1-0.2l0-0.1v0c1.8-5.4,6.9-9,12.6-9c5.5,0,10.5,3.5,12.4,8.7
	c0.3,0.9,0.6,1.8,0.7,2.7l0,0.1c0,0,0,0.1,0,0.1c0,0.1,0.1,0.1,0.1,0.2l0.1,0.1c0,0,0.1,0.1,0.1,0.1l0.2,0.1c0,0,0.1,0,0.1,0
	c0,0,0,0,0,0l0.1,0c5.2,0.7,9.1,5.2,9.1,10.5c0,5-3.5,9.3-8.3,10.4c-0.2,0-0.4,0.2-0.5,0.3c-0.1,0.2-0.2,0.4-0.1,0.6
	c0.1,0.4,0.4,0.6,0.8,0.6c0,0,0.1,0,0.2,0c5.6-1.2,9.6-6.2,9.6-12C49.8,23.7,45.7,18.7,39.9,17.6z"/>
<g>
	<path class="st2" d="M18,32.3h2.1c0.3,0,0.6-0.3,0.6-0.6s-0.3-0.6-0.6-0.6H18c-0.3,0-0.6,0.3-0.6,0.6S17.7,32.3,18,32.3z"/>
	<path class="st2" d="M26.2,32.3H32c0.3,0,0.6-0.3,0.6-0.6s-0.3-0.6-0.6-0.6h-5.8c-0.3,0-0.6,0.3-0.6,0.6S25.9,32.3,26.2,32.3z"/>
	<path class="st2" d="M18,41.4h2.1c0.3,0,0.6-0.3,0.6-0.6c0-0.3-0.3-0.6-0.6-0.6H18c-0.3,0-0.6,0.3-0.6,0.6
		C17.4,41.2,17.7,41.4,18,41.4z"/>
	<path class="st2" d="M26.2,41.4H32c0.3,0,0.6-0.3,0.6-0.6c0-0.3-0.3-0.6-0.6-0.6h-5.8c-0.3,0-0.6,0.3-0.6,0.6
		C25.6,41.2,25.9,41.4,26.2,41.4z"/>
	<path class="st2" d="M35.7,26.3H14.3c-0.4,0-0.8,0.3-0.8,0.8V45c0,0.4,0.3,0.8,0.8,0.8h21.5c0.4,0,0.8-0.3,0.8-0.8V27.1
		C36.5,26.6,36.2,26.3,35.7,26.3z M35,44.3H15v-7.5h20V44.3z M35,35.3H15v-7.5h20V35.3z"/>
</g>
</svg>
