<?xml version="1.0" encoding="utf-8"?>
<!-- Generator: Adobe Illustrator 24.0.0, SVG Export Plug-In . SVG Version: 6.00 Build 0)  -->
<svg version="1.1" id="Camada_1" xmlns="http://www.w3.org/2000/svg" xmlns:xlink="http://www.w3.org/1999/xlink" x="0px" y="0px"
	 viewBox="0 0 50 50" style="enable-background:new 0 0 50 50;" xml:space="preserve">
<style type="text/css">
	.st0{fill:#FCC34F;}
	.st1{fill:#FDCF72;}
	.st2{fill:none;stroke:#444444;stroke-width:2.5;stroke-linecap:round;stroke-linejoin:round;stroke-miterlimit:10;}
	.st3{fill:#444444;}
</style>
<g>
	<polygon class="st0" points="47.9,25.9 48.3,30.3 1.4,47.3 1.6,38.1 1.9,32.9 48.6,15.9 47.9,19.6 	"/>
	<polygon class="st1" points="48.1,9 47.5,16.8 1.6,33.5 1.6,23.6 2,19.1 48.2,2.3 	"/>
	<polyline class="st2" points="33,48.3 1.6,48.3 1.6,1.7 48.4,1.7 48.4,37.8 	"/>
	<path class="st3" d="M17.9,9c-1.2,0-2.3,0.7-2.9,1.7L8,23.3c-0.6,1-0.6,2.3,0,3.4L15,39.2c0.6,1.1,1.7,1.7,2.9,1.7h14.2
		c1.2,0,2.3-0.7,2.9-1.7L42,26.7c0.6-1,0.6-2.3,0-3.4L35,10.8C34.4,9.7,33.3,9,32.1,9H17.9z M17.9,10.6h14.2c0.6,0,1.2,0.3,1.6,0.9
		l2,3.6H19.3l-0.2,0.4l-4.6,8L12,19.2l4.3-7.7C16.7,10.9,17.3,10.6,17.9,10.6z M20.2,16.6h9.6l4.8,8.4L32,29.7l-2.1,3.6h-9.6
		l-0.9-1.5l-2-3.4l-2-3.4L20.2,16.6z M31.6,16.6h5l4.2,7.4c0.3,0.6,0.3,1.3,0,1.9l-7.1,12.6c-0.3,0.6-0.9,0.9-1.6,0.9h-4l2.6-4.6
		l0.2-0.4l5.3-9.1l0.2-0.4l-0.2-0.4L31.6,16.6z M25,20.4c-2.5,0-4.6,2.1-4.6,4.6s2.1,4.6,4.6,4.6s4.6-2.1,4.6-4.6S27.5,20.4,25,20.4
		z M11.2,20.7l2.5,4.3l0.2,0.4l4.2,7.2l1.1,1.9l0.2,0.4H29l-2.6,4.6h-8.4c-0.6,0-1.2-0.3-1.6-0.9L9.3,25.9c-0.3-0.6-0.3-1.3,0-1.9
		L11.2,20.7z M25,22c1.7,0,3,1.4,3,3s-1.4,3-3,3s-3-1.4-3-3S23.3,22,25,22z"/>
</g>
</svg>
