<?xml version="1.0" encoding="utf-8"?>
<!-- Generator: Adobe Illustrator 26.3.1, SVG Export Plug-In . SVG Version: 6.00 Build 0)  -->
<svg version="1.1" id="Layer_1" xmlns="http://www.w3.org/2000/svg" xmlns:xlink="http://www.w3.org/1999/xlink" x="0px" y="0px"
	 viewBox="0 0 50 50" style="enable-background:new 0 0 50 50;" xml:space="preserve">
<style type="text/css">
	.st0{fill:#AFE55D;}
	.st1{fill:#C3FF68;}
	.st2{fill:#494949;}
</style>
<g>
	<g>
		<path class="st0" d="M3.7,19.9v14.9l1-0.4L7,33.6l0,0l1-0.4l0,0l1.3-0.5l1-0.4l4.9-1.8l2.2-0.8l1.2-0.4l0.9-0.3l0.9-0.3l0.2-0.1
			l1-0.4l0.3-0.1l5.7-2.1l1.8-0.6l0,0l10.4-3.8l1-0.4l1.3-0.5l1-0.4l2.3-0.8l1-0.4V15c0-1.3-1.1-2.4-2.4-2.4h-3.1V9.4
			c0-0.3-0.2-0.5-0.5-0.5h-0.5V6.7V6.1l-7.5,2.8l-2.7,1l-9,3.3L19,13.8L18.6,14l-3.4,1.2l-1,0.4L10.4,17l-1,0.4L4.7,19l-1,0.4
			C3.7,19.4,3.7,19.9,3.7,19.9z"/>
	</g>
	<g>
		<path class="st1" d="M3.7,19.9l1-0.4l4.6-1.7l1-0.4l3.8-1.4l1-0.4L20,14l0.5-0.2l0.6-0.2l10-3.7l2.7-1l6-2.2V6.1V4.8
			c0-0.6-0.5-1.1-1.1-1.1H11.3c-0.6,0-1.1,0.5-1.1,1.1v4.1H9.8c-0.3,0-0.5,0.2-0.5,0.5v3.4H6.1c-1.3,0-2.4,1.1-2.4,2.4v4.1
			C3.7,19.3,3.7,19.9,3.7,19.9z"/>
	</g>
	<g>
		<path class="st2" d="M47.7,38.5V38c0.1-0.3-0.1-0.5-0.4-0.5H2.7c-0.3,0-0.5,0.2-0.5,0.5v0.5H47.7z"/>
		<path class="st2" d="M7.4,31.2C7.2,31.2,7,31,7,30.7v-8.3c0-0.3,0.2-0.5,0.5-0.5S8,22.1,8,22.4v8.3C7.9,31,7.7,31.2,7.4,31.2z"/>
		<path class="st2" d="M15.5,44.7c-0.2,0-0.4-0.2-0.4-0.4V38c0-0.2,0.2-0.4,0.5-0.4s0.5,0.2,0.5,0.4v6.3
			C16,44.5,15.8,44.7,15.5,44.7z"/>
		<path class="st2" d="M34.4,44.8c-0.2,0-0.4-0.2-0.4-0.4v-6.3c0-0.2,0.2-0.4,0.5-0.4s0.5,0.2,0.5,0.4v6.3
			C34.9,44.6,34.7,44.8,34.4,44.8z"/>
		<path class="st2" d="M7.4,35.2C7.2,35.2,7,35,7,34.8v-1.4c0-0.3,0.2-0.5,0.5-0.5S8,33.1,8,33.4v1.4C7.9,35,7.7,35.2,7.4,35.2z"/>
		<path class="st2" d="M42.6,24c-0.3,0-0.5-0.2-0.5-0.5v-7c0-0.3,0.2-0.5,0.5-0.5s0.5,0.2,0.5,0.5v7C43.1,23.8,42.8,24,42.6,24z"/>
		<path class="st2" d="M42.6,28.1c-0.3,0-0.5-0.2-0.5-0.5v-1.4c0-0.3,0.2-0.5,0.5-0.5s0.5,0.2,0.5,0.5v1.4
			C43.1,27.9,42.8,28.1,42.6,28.1z"/>
		<path class="st2" d="M9.3,17.9v14.9l1-0.4V17.5L9.3,17.9z M9.3,17.9v14.9l1-0.4V17.5L9.3,17.9z M40.3,8.9H9.8
			c-0.3,0-0.5,0.2-0.5,0.5V38c0,0.3,0.2,0.5,0.5,0.5H22l0,0h18.2c0.3,0,0.5-0.2,0.5-0.5V9.4C40.8,9.1,40.5,8.9,40.3,8.9z M39.7,37.5
			H10.3V9.9h29.4V37.5z M9.3,17.9v14.9l1-0.4V17.5L9.3,17.9z"/>
		<path class="st2" d="M34.1,6.3c0-0.3,0.2-0.5,0.5-0.5l0,0c0.3,0,0.5,0.2,0.5,0.5l0,0c0,0.3-0.2,0.5-0.5,0.5l0,0
			C34.3,6.8,34.1,6.6,34.1,6.3z"/>
		<path class="st2" d="M37.3,6.3c0-0.3,0.2-0.5,0.5-0.5l0,0c0.3,0,0.5,0.2,0.5,0.5l0,0c0,0.3-0.2,0.5-0.5,0.5l0,0
			C37.5,6.8,37.3,6.6,37.3,6.3z"/>
		<path class="st2" d="M30.8,6.3c0-0.3,0.2-0.5,0.5-0.5l0,0c0.3,0,0.5,0.2,0.5,0.5l0,0c0,0.3-0.2,0.5-0.5,0.5l0,0
			C31,6.8,30.8,6.6,30.8,6.3z"/>
		<path class="st2" d="M30.8,18.7h-6.4c-0.3,0-0.5-0.2-0.5-0.5s0.2-0.5,0.5-0.5h6.4c0.3,0,0.5,0.2,0.5,0.5S31.1,18.7,30.8,18.7z"/>
		<path class="st2" d="M34.8,15.7h-5.2c-0.3,0-0.5-0.2-0.5-0.5s0.2-0.5,0.5-0.5h5.2c0.3,0,0.5,0.2,0.5,0.5S35,15.7,34.8,15.7z"/>
		<path class="st2" d="M27,15.7h-2.6c-0.3,0-0.5-0.2-0.5-0.5s0.2-0.5,0.5-0.5H27c0.3,0,0.5,0.2,0.5,0.5S27.2,15.7,27,15.7z"/>
		<path class="st2" d="M34.8,29.1h-5.9c-0.3,0-0.5-0.2-0.5-0.5s0.2-0.5,0.5-0.5h5.9c0.3,0,0.5,0.2,0.5,0.5S35,29.1,34.8,29.1z"/>
		<path class="st2" d="M34.8,26.1h-3.2c-0.3,0-0.5-0.2-0.5-0.5s0.2-0.5,0.5-0.5h3.2c0.3,0,0.5,0.2,0.5,0.5S35,26.1,34.8,26.1z"/>
		<path class="st2" d="M28.9,26.1h-4.6c-0.3,0-0.5-0.2-0.5-0.5s0.2-0.5,0.5-0.5h4.6c0.3,0,0.5,0.2,0.5,0.5S29.2,26.1,28.9,26.1z"/>
		<path class="st2" d="M21.3,13.8c-0.1-0.1-0.1-0.2-0.2-0.2c-0.1-0.2-0.3-0.3-0.5-0.4C20.4,13,20.1,13,19.8,13h-3.9
			c-0.6,0-1.2,0.3-1.5,0.8c-0.2,0.3-0.3,0.6-0.3,1v3.9c0,1,0.8,1.8,1.8,1.8h3.9c1,0,1.8-0.8,1.8-1.8v-3.9
			C21.6,14.4,21.5,14.1,21.3,13.8z M20.6,18.7c0,0.4-0.4,0.8-0.8,0.8h-3.9c-0.5,0-0.8-0.4-0.8-0.8v-3.9c0-0.4,0.4-0.8,0.8-0.8h3.9
			c0.1,0,0.1,0,0.2,0c0.4,0.1,0.6,0.4,0.6,0.8C20.6,14.8,20.6,18.7,20.6,18.7z"/>
		<path class="st2" d="M19.8,23.4h-3.9c-1,0-1.8,0.8-1.8,1.8v3.9c0,0.7,0.4,1.3,1.1,1.6c0.2,0.1,0.5,0.2,0.7,0.2h3.9
			c0.1,0,0.2,0,0.3,0L19.8,30h-3.9c-0.5,0-0.8-0.4-0.8-0.8v-3.9c0-0.4,0.4-0.8,0.8-0.8h3.9c0.4,0,0.8,0.4,0.8,0.8V29l1,0.3v-0.1
			v-3.9C21.6,24.2,20.8,23.4,19.8,23.4z"/>
		<path class="st2" d="M29,31.2l-6.7-2.3c-1-0.3-2.1-0.7-3.1-1c-0.1-0.1-0.3,0-0.4,0.1c-0.1,0.1-0.1,0.2-0.1,0.4
			c0.2,0.6,0.3,1.2,0.5,1.8l0.2,0.4l0.3,0.9l2.2,6.3l0.2,0.6c0.2,0,0.5,0,0.7,0l0.3-0.7l1.6-3.7l4.3-1.9c0,0,0.1,0,0.1-0.1
			c0.2-0.2,0.2-0.4,0.2-0.4C29.2,31.3,29,31.2,29,31.2z M24.2,33.2c0,0-0.1,0-0.1,0.1c0,0,0,0.1-0.1,0.1c-0.5,1.1-1,2.2-1.5,3.4
			l-1.9-5.5c-0.3-0.7-0.6-1.5-0.8-2.2c0.4,0.1,0.7,0.2,1.1,0.4c0.4,0.1,0.7,0.2,1.1,0.4l5.6,2L24.2,33.2z"/>
	</g>
	<g>
		<path class="st2" d="M38.7,3.7c0.6,0,1.1,0.5,1.1,1.1v8h4.1c1.3,0,2.4,1.1,2.4,2.4V40c0,1.3-1.1,2.4-2.4,2.4H34v2.9h4
			c0.3,0,0.5,0.2,0.5,0.5s-0.2,0.5-0.5,0.5H12c-0.3,0-0.5-0.2-0.5-0.5s0.2-0.5,0.5-0.5h4.1v-2.9h-10c-1.3,0-2.4-1.1-2.4-2.4V15.2
			c0-1.3,1.1-2.4,2.4-2.4h4.1v-8c0-0.6,0.5-1.1,1.1-1.1L38.7,3.7 M38.7,1.2H11.3c-2,0-3.6,1.6-3.6,3.6v5.5H6.1
			c-2.7,0-4.9,2.2-4.9,4.9V40c0,2.7,2.2,4.9,4.9,4.9h3c0,0.3-0.1,0.6-0.1,0.9c0,1.6,1.3,3,3,3h26c1.6,0,3-1.3,3-3
			c0-0.3-0.1-0.6-0.1-0.9h3c2.7,0,4.9-2.2,4.9-4.9V15.2c0-2.7-2.2-4.9-4.9-4.9h-1.6V4.8C42.3,2.8,40.7,1.2,38.7,1.2L38.7,1.2z"/>
	</g>
</g>
</svg>
