<?xml version="1.0" encoding="utf-8"?>
<!-- Generator: Adobe Illustrator 26.5.0, SVG Export Plug-In . SVG Version: 6.00 Build 0)  -->
<svg version="1.1" id="Camada_3" xmlns="http://www.w3.org/2000/svg" xmlns:xlink="http://www.w3.org/1999/xlink" x="0px" y="0px"
	 viewBox="0 0 50 50" style="enable-background:new 0 0 50 50;" xml:space="preserve">
<style type="text/css">
	.st0{fill:#A6C1C2;}
	.st1{fill:#B9D7D9;}
	.st2{fill:none;stroke:#444444;stroke-miterlimit:10;}
	.st3{fill:#444444;}
</style>
<g>
	<g>
		<polygon class="st0" points="34.5,13 38,19.2 42.5,25.6 27.6,31 24.9,30.5 21.5,33.2 2.3,40.2 3,34.4 10.9,20.1 12,18.2 
			32.8,10.6 33.5,11.8 		"/>
		<polygon class="st1" points="26.1,4.5 30.8,6.6 34.8,13.3 10.2,22.1 11.7,19.7 12.1,17.6 19.5,6.1 24.1,4.4 		"/>
	</g>
	<g>
		<path class="st2" d="M24.1,28l-6.3-10.9c-0.5-0.9-0.8-1.8-0.9-2.7c-0.1-0.9,0-1.9,0.2-2.8l-3,4.6l-3.6,6.3l-3.6,6.3l-2.8,4.9
			c0.2-0.3,0,0,0,0c0.2-0.2,0.7-0.6,0.9-0.8c0.6-0.5,1.2-0.8,1.8-1.1c0.9-0.4,1.9-0.6,2.9-0.6c1,0,2,0.2,2.9,0.6
			c0.2,0.1,0.4,0.2,0.6,0.3c0,0,0,0,0,0c0.6,0.3,1.2,0.8,1.7,1.3c0.7,0.7,1.2,1.5,1.6,2.3c0,0.1,0.1,0.2,0.1,0.3v0
			c0,0.1,0.1,0.2,0.1,0.4c0.2,0.7,0.3,1.4,0.3,2.2c0,0.8-0.1,1.7-0.4,2.4h0l2.8-4.9l3.6-6.3L24.1,28L24.1,28L24.1,28z"/>
		<path class="st2" d="M46.9,37.1c-0.1-0.9-0.4-1.9-0.9-2.7l-3.6-6.3l-3.6-6.3l-3.6-6.3l-3.6-6.3c-0.5-0.9-1.2-1.6-1.9-2.2
			c-0.8-0.6-1.6-1-2.5-1.2c-0.9-0.2-1.9-0.3-2.8-0.2c-0.9,0.1-1.9,0.4-2.7,0.9h0c-0.9,0.5-1.6,1.2-2.2,1.9c-0.6,0.8-1,1.6-1.2,2.5
			c-0.2,0.9-0.3,1.9-0.2,2.8c0.1,0.9,0.4,1.9,0.9,2.7l3.6,6.3l3.6,6.3l3.6,6.3l3.6,6.3c0.5,0.9,1.2,1.6,1.9,2.2
			c0.8,0.6,1.6,1,2.5,1.2c0.9,0.2,1.9,0.3,2.8,0.2s1.9-0.4,2.7-0.9h0c0.9-0.5,1.6-1.2,2.2-1.9s1-1.6,1.2-2.5
			C46.9,39,47,38.1,46.9,37.1z"/>
		<path class="st2" d="M14.2,34.1c-0.6-0.6-1.3-1.1-2.1-1.4c-0.8-0.3-1.7-0.5-2.6-0.5c-0.9,0-1.8,0.2-2.6,0.5
			c-0.8,0.3-1.5,0.8-2.1,1.4c-0.6,0.6-1.1,1.3-1.4,2.1C3.1,37,3,37.8,3,38.7c0,0.9,0.2,1.8,0.5,2.6c0.3,0.8,0.8,1.5,1.4,2.1
			C5.5,44,6.2,44.5,7,44.8c0.8,0.3,1.7,0.5,2.6,0.5c0.9,0,1.8-0.2,2.6-0.5c0.8-0.3,1.5-0.8,2.1-1.4c0.6-0.6,1.1-1.3,1.4-2.1
			c0.3-0.8,0.5-1.7,0.5-2.6c0-0.9-0.2-1.8-0.5-2.6C15.3,35.4,14.8,34.7,14.2,34.1z"/>
	</g>
	<path class="st3" d="M48.1,33.8l-15-26c-0.1-0.1-0.2-0.3-0.3-0.4c-0.2-0.3-0.4-0.6-0.6-0.8c-0.2-0.2-0.4-0.4-0.6-0.7
		c-0.2-0.2-0.4-0.4-0.7-0.6c-0.3-0.2-0.5-0.4-0.8-0.6c-0.1-0.1-0.3-0.2-0.4-0.3c-0.1-0.1-0.2-0.1-0.3-0.1c-0.3-0.2-0.6-0.3-0.9-0.4
		c-0.3-0.1-0.5-0.2-0.8-0.3c-0.3-0.1-0.6-0.1-0.9-0.2c-0.3-0.1-0.6-0.1-0.9-0.1c-0.3,0-0.6,0-0.9,0c-0.3,0-0.6,0-0.9,0
		c-0.3,0-0.6,0.1-0.9,0.1c-0.3,0.1-0.6,0.1-0.9,0.2c-0.3,0.1-0.5,0.2-0.8,0.3C21.3,4,21,4.1,20.7,4.3c-0.1,0-0.2,0.1-0.3,0.1
		c-0.1,0.1-0.3,0.2-0.4,0.3c-0.3,0.2-0.6,0.4-0.8,0.6c-0.2,0.2-0.4,0.4-0.7,0.6c-0.2,0.2-0.4,0.4-0.6,0.7c-0.2,0.3-0.4,0.5-0.6,0.8
		c-0.1,0.1-0.2,0.3-0.3,0.4l-15.2,26C-0.6,38,0.7,43.3,4.6,46c0.1,0.1,0.2,0.2,0.3,0.2c0.1,0.1,0.2,0.1,0.3,0.2
		c0.3,0.2,0.7,0.4,1,0.5c0.3,0.1,0.5,0.2,0.8,0.3c0.2,0.1,0.4,0.1,0.5,0.2c0.8,0.2,1.6,0.4,2.4,0.4c3,0,6.1-2,8.8-6.4L25.1,31
		L32,43.1c1.7,3,4.8,4.6,8,4.6c1.6,0,3.2-0.4,4.6-1.3C49.1,44,50.6,38.3,48.1,33.8z M15.8,41.2c-0.3,0.8-0.8,1.5-1.4,2.1
		c-0.6,0.6-1.3,1.1-2.1,1.4c-0.8,0.3-1.7,0.5-2.6,0.5c-0.9,0-1.8-0.2-2.6-0.5c-0.8-0.3-1.5-0.8-2.1-1.4C4.5,42.7,4,42,3.6,41.2
		c-0.3-0.8-0.5-1.6-0.5-2.6c0-0.9,0.2-1.8,0.5-2.6C4,35.3,4.5,34.6,5.1,34c0.6-0.6,1.3-1.1,2.1-1.4C7.9,32.2,8.8,32,9.7,32
		c0.9,0,1.8,0.2,2.6,0.5c0.8,0.3,1.5,0.8,2.1,1.4c0.6,0.6,1.1,1.3,1.4,2.1c0.3,0.8,0.5,1.7,0.5,2.6C16.3,39.5,16.1,40.4,15.8,41.2z
		 M24.3,27.9L24.3,27.9l-1,1.7l-3.6,6.3l-2.9,4.9h0c0.3-0.8,0.4-1.6,0.4-2.4c0-0.7-0.1-1.5-0.3-2.2c0-0.1-0.1-0.2-0.1-0.4v0
		c-0.1-0.1-0.1-0.2-0.1-0.3c-0.4-0.9-0.9-1.7-1.6-2.3c-0.5-0.5-1.1-0.9-1.7-1.3c0,0,0,0,0,0c-0.2-0.1-0.4-0.2-0.6-0.3
		c-0.9-0.4-1.9-0.6-2.9-0.6c-1,0-2,0.2-2.9,0.6c-0.7,0.3-1.3,0.6-1.8,1.1c-0.2,0.1-0.7,0.6-0.9,0.8l2.8-4.9l7.2-12.5l3-4.6
		c-0.2,0.9-0.3,1.9-0.2,2.8c0.1,1,0.4,1.9,0.9,2.7L24.3,27.9L24.3,27.9z M46.8,39.8c-0.2,0.9-0.7,1.8-1.2,2.5
		c-0.6,0.8-1.3,1.4-2.2,1.9c-0.9,0.5-1.8,0.8-2.7,0.9c-0.9,0.1-1.9,0-2.8-0.2c-0.9-0.2-1.8-0.7-2.5-1.2c-0.8-0.6-1.4-1.3-1.9-2.2
		l-3.6-6.3l-3.6-6.3L19,16.5c-0.5-0.9-0.8-1.8-0.9-2.7c-0.1-0.9,0-1.9,0.2-2.8c0.2-0.9,0.7-1.8,1.2-2.5c0.6-0.8,1.3-1.4,2.2-1.9
		c0.9-0.5,1.8-0.8,2.7-0.9c0.9-0.1,1.9,0,2.8,0.2C28.1,6.1,29,6.5,29.7,7c0.7,0.6,1.4,1.3,1.9,2.2l3.6,6.3l3.6,6.3l3.6,6.3l3.6,6.3
		c0.5,0.9,0.8,1.8,0.9,2.7C47.2,37.9,47.1,38.9,46.8,39.8z"/>
</g>
</svg>
