<?xml version="1.0" encoding="utf-8"?>
<!-- Generator: Adobe Illustrator 22.0.1, SVG Export Plug-In . SVG Version: 6.00 Build 0)  -->
<svg version="1.1" id="Camada_1" xmlns="http://www.w3.org/2000/svg" xmlns:xlink="http://www.w3.org/1999/xlink" x="0px" y="0px"
	 viewBox="0 0 50 50" style="enable-background:new 0 0 50 50;" xml:space="preserve">
<style type="text/css">
	.st0{fill:#7DDDFA;}
	.st1{fill:#70C6DF;}
	.st2{fill:#464646;}
</style>
<g>
	<g>
		<path class="st0" d="M48.3,6c0-0.2,0-0.3,0-0.3c0-2.1-1.7-3.7-3.7-3.7H32.4H16.1H5.4c-2.1,0-3.7,1.7-3.7,3.7V6v18L48.3,7
			C48.3,6.6,48.3,6.2,48.3,6z"/>
	</g>
	<g>
		<path class="st1" d="M48,24.8C48,24.8,48,24.8,48,24.8c0-0.1,0-0.2,0-0.3c0-1.4,0-3.8,0-6.5c0-4.1,0-8.6,0-10.8L2,23.8v8.5v11.1
			l45.9-16.7C47.9,26.1,48,25.5,48,24.8z"/>
	</g>
	<path class="st2" d="M44.3,0.8H5.7C3,0.8,0.8,3.1,0.8,5.8v38.6c0,2.7,2.2,4.9,4.9,4.9h18.9c13.8,0,24.6-10.8,24.6-24.5v-19
		C49.2,3.1,47,0.8,44.3,0.8z M3.3,5.8c0-1.3,1.1-2.4,2.4-2.4h26.1v14.4c0,8.1-6.6,14.7-14.6,14.7H3.3V5.8z M46.7,24.8
		c0,12.3-9.7,22-22.1,22H5.7c-1.3,0-2.4-1.1-2.4-2.5V33.4h13.9c8.6,0,15.6-7,15.6-15.7V3.3h11.4c1.3,0,2.4,1.1,2.4,2.4V24.8z"/>
</g>
</svg>
