<svg xmlns="http://www.w3.org/2000/svg" id="Camada_1" data-name="Camada 1" version="1.1" viewBox="0 0 50 50"><defs><style>.cls-3{stroke-width:.5px}.cls-3,.cls-4{fill:none;stroke:#444;stroke-linecap:round;stroke-linejoin:round}</style></defs><path fill="#fc9d9a" stroke-width="0" d="M47.5 8.6l.2-2.6c.2-1.9-1.3-3.6-3.3-3.6L5 2.2c-1.8 0-3.3 1.5-3.3 3.3v26.7l-.3 12.3c0 1.9 1.5 3.4 3.3 3.4l18-.2c.4 0 .8 0 1.1-.2l21.4-8c1.3-.5 2.1-1.7 2.1-3.1V14.7l.6-.1-.5-5.4v-.6z"/><path fill="none" stroke="#444" stroke-linecap="round" stroke-linejoin="round" stroke-width="2.5" d="M32.2 47.9h-27c-1.9 0-3.4-1.6-3.4-3.5v-39c0-1.9 1.5-3.5 3.4-3.5h39c1.9 0 3.4 1.6 3.4 3.5v32.5"/><path fill="#444" stroke-width="0" d="M11.8 23.2v7.3c1.2 2.1 2.8 3.8 4.9 5.1V23.3c0-.4-.3-.8-.8-.8h-3.3c-.4 0-.8.3-.8.8zm9.5-6.8v20.9c.9.2 1.7.2 2.6.2s1.6 0 2.3-.2V16.4c0-.4-.3-.8-.8-.8h-3.3c-.4 0-.8.3-.8.8zm10.1 10.1v8.8c2.1-1.2 3.7-3.1 4.9-5.2v-3.6c0-.4-.3-.8-.8-.8h-3.3c-.4 0-.8.3-.8.8z"/><circle cx="24" cy="23.6" r="16" class="cls-4"/><circle cx="24" cy="23.6" r="13.8" class="cls-3"/><path d="M35.2 35.4l7.4 6.3c.7.6 1.7.5 2.3-.2.6-.7.5-1.7-.2-2.3l-7.4-6.3" class="cls-4"/><path d="M23.9 11.8c6.4 0 11.6 4.8 11.6 10.7" class="cls-3"/></svg>