<?xml version="1.0" encoding="utf-8"?>
<!-- Generator: Adobe Illustrator 26.5.0, SVG Export Plug-In . SVG Version: 6.00 Build 0)  -->
<svg version="1.1" id="Camada_3" xmlns="http://www.w3.org/2000/svg" xmlns:xlink="http://www.w3.org/1999/xlink" x="0px" y="0px"
	 viewBox="0 0 50 50" style="enable-background:new 0 0 50 50;" xml:space="preserve">
<style type="text/css">
	.st0{fill:#F799FF;}
	.st1{fill:#E589EF;}
	.st2{fill:none;stroke:#444444;stroke-width:2.5;stroke-linecap:round;stroke-linejoin:round;stroke-miterlimit:10;}
	.st3{fill:none;stroke:#444444;stroke-width:0.5;stroke-linecap:round;stroke-linejoin:round;stroke-miterlimit:10;}
	.st4{fill:none;stroke:#444444;stroke-width:1.5;stroke-linecap:round;stroke-linejoin:round;stroke-miterlimit:10;}
</style>
<g>
	<g>
		<polygon class="st0" points="45.96,10.63 46.5,15.8 2.66,31.75 2.67,22.28 5.09,15.88 15.46,12 27.1,11.8 23.11,19.88 27.3,19.37 
			29.53,12.66 34.08,7 		"/>
		<polygon class="st1" points="47.71,24.5 47.24,28.65 40.72,32.65 12.77,42.59 4.14,38.89 2.6,36.17 2.91,27.57 23.2,20.35 
			23.64,21.88 27.48,21.03 28.77,18.37 45.53,12.4 45.29,11.82 48.22,14 		"/>
	</g>
	<g>
		<polyline class="st2" points="48,14 48,30 42,31 		"/>
		<path class="st2" d="M48,13.94c-0.92-1.61-2.69-3.14-5.36-4.4C39.97,8.28,36.76,7.43,33.36,7L28,16.48"/>
		<path class="st2" d="M2.49,20.39c0.64,2.31,2.16,4.36,5.39,5.85c7.81,3.6,20.47,3.6,28.28,0c2.25-1.04,4.6-3.23,5.55-4.54"/>
		<path class="st2" d="M42,21.94c0-1.42-0.05-2.56-0.73-3.69l-19.29,2.38l5.13-8.83c-6.65-0.8-14.02-0.01-19.23,2.39
			C4.17,15.9,2.19,18.5,2,20.74"/>
		<path class="st2" d="M32.76,42.54C29.65,43.47,25.96,44,22,44c-11.05,0-20-4.15-20-9.28V21"/>
		<path class="st2" d="M42,21v13.72"/>
	</g>
	<line class="st2" x1="28" y1="19.88" x2="28" y2="16.48"/>
	<line class="st3" x1="21.98" y1="20.63" x2="8.94" y2="15.07"/>
	<polyline class="st3" points="22.8,28.94 21.98,20.63 8.13,25.71 	"/>
	<line class="st3" x1="28.38" y1="16.48" x2="47.71" y2="14"/>
	<polyline class="st4" points="4.64,39.33 12.27,36.01 24,38.89 34.08,32.5 29.57,32.5 	"/>
	<line class="st4" x1="32.52" y1="36.59" x2="34.08" y2="32.5"/>
</g>
<path class="st2" d="M22.1,21"/>
</svg>
