<svg xmlns="http://www.w3.org/2000/svg" id="Layer_1" data-name="Layer 1" version="1.1" viewBox="0 0 50 50"><defs><style>.cls-1{stroke-width:.5px}.cls-1,.cls-2{fill:none;stroke:#444;stroke-linecap:round;stroke-linejoin:round}</style></defs><path fill="#7df4eb" stroke-width="0" d="M44.7 12.9l-5.6-3.6-7.7-4.4-6-2.8C22.2 2 4 11 4 14.2L3.5 22 4 37.1l11.5 7.6 31-11c.7-.4-.8-18.7-1.8-20.7z"/><path fill="none" stroke="#444" stroke-linecap="round" stroke-linejoin="round" stroke-width="2.5" d="M29.9 46.9l-2.2 1.3c-1.7 1-3.8 1-5.5 0l-15.6-9c-1.7-1-2.7-2.8-2.7-4.7v-18c0-2 1-3.8 2.7-4.7l15.7-9c1.7-1 3.8-1 5.5 0l15.6 9c1.7 1 2.7 2.8 2.7 4.7v18c0 2-1 3.8-2.7 4.7l-2.5 1.4"/><path d="M22.3 39.4V24.1h5v13.3" class="cls-1"/><path d="M22.3 32.7v-8.6h4.9v9.2" class="cls-2"/><path d="M28.2 37.1v-7.6h5v5.6" class="cls-1"/><path d="M28.2 33.6v-4.1h5v.7" class="cls-2"/><path d="M16 36v-6h4.9v10.1" class="cls-1"/><path d="M18.9 30h2v1.8" class="cls-2"/><rect width="20.8" height="28.8" x="14.4" y="11.2" class="cls-1" rx="1.3" ry="1.3"/><circle cx="25.9" cy="25.2" r="8.9" class="cls-2"/><path d="M29.9 33.1l4.9 10.5" class="cls-2"/></svg>