<?xml version="1.0" encoding="utf-8"?>
<!-- Generator: Adobe Illustrator 22.0.1, SVG Export Plug-In . SVG Version: 6.00 Build 0)  -->
<svg version="1.1" id="Layer_1" xmlns="http://www.w3.org/2000/svg" xmlns:xlink="http://www.w3.org/1999/xlink" x="0px" y="0px"
	 viewBox="0 0 50 50" style="enable-background:new 0 0 50 50;" xml:space="preserve">
<style type="text/css">
	.st0{fill:#E56060;}
	.st1{fill:#FF6B6B;}
	.st2{fill:#444444;}
</style>
<g>
	<polygon class="st0" points="40.2,33.5 23.4,39.7 18,41.7 13.7,43.3 3.1,47.2 15.2,21.9 24.7,2 29.1,11 30.9,14.7 31.5,15.8 
		33.2,19.2 33.2,19.2 	"/>
	<polygon class="st1" points="30.9,14.7 31.5,15.8 30.1,16.3 25.8,17.9 15.2,21.9 24.7,2 29.1,11 	"/>
	<path class="st2" d="M48.4,47.4l-22.6-46c-0.2-0.4-0.6-0.7-1.1-0.7s-0.9,0.3-1.1,0.7l-22,46c-0.2,0.4-0.2,0.8,0.1,1.2
		c0.2,0.3,0.6,0.6,1,0.6l44.6,0c0,0,0,0,0,0c0.4,0,0.8-0.2,1-0.6C48.5,48.3,48.6,47.8,48.4,47.4z M16.3,46.8l14.3-29.9l1.2,2.4
		L18.7,46.8L16.3,46.8z M12.6,46.8l16.2-33.9l1.1,2.3L14.8,46.8L12.6,46.8z M24.7,4.7l3.5,7.1L11.5,46.8l-6.9,0L24.7,4.7z
		 M21.3,46.8L33.2,22l12.2,24.8L21.3,46.8z"/>
</g>
</svg>
