<?xml version="1.0" encoding="utf-8"?>
<!-- Generator: Adobe Illustrator 26.0.3, SVG Export Plug-In . SVG Version: 6.00 Build 0)  -->
<svg version="1.1" id="Layer_1" xmlns="http://www.w3.org/2000/svg" xmlns:xlink="http://www.w3.org/1999/xlink" x="0px" y="0px"
	 viewBox="0 0 50 50" style="enable-background:new 0 0 50 50;" xml:space="preserve">
<style type="text/css">
	.st0{fill:#AFE55D;}
	.st1{fill:#C3FF68;}
	.st2{fill:none;stroke:#444444;stroke-width:2.5;stroke-linecap:round;stroke-linejoin:round;stroke-miterlimit:10;}
	.st3{fill:#444444;}
	.st4{fill:#494949;}
</style>
<g>
	<g>
		<g>
			<g>
				<polygon class="st0" points="47.7,11.6 48.5,16.8 2.4,33.6 1.9,22.7 1.8,16.5 42.1,1.9 47.3,4.2 				"/>
				<polygon class="st1" points="46.1,2 48.4,5.2 1.5,21.9 2.6,4.8 5.6,1.9 34.7,1.7 				"/>
				<g>
					<path class="st2" d="M18.1,48.3H5.5c-1.9,0-3.4-1.6-3.4-3.5v-39c0-2,1.5-3.5,3.4-3.5h39c1.9,0,3.4,1.6,3.4,3.5v24.6"/>
					<path class="st2" d="M2.1,15.8"/>
					<path class="st2" d="M47.9,15.8"/>
				</g>
				<circle class="st3" cx="8.2" cy="8.2" r="1.4"/>
				<circle class="st3" cx="12.1" cy="8.2" r="1.4"/>
				<circle class="st3" cx="15.9" cy="8.2" r="1.4"/>
			</g>
		</g>
	</g>
	<g>
		<g>
			<path class="st4" d="M22.1,18.4L30,23L19.9,40.4L12,35.9L22.1,18.4 M21.8,17.1L10.7,36.2l9.6,5.5l11.1-19.2L21.8,17.1L21.8,17.1z
				"/>
		</g>
		<path class="st4" d="M42.5,36.2L31.4,17c-1.4-2.7-4.8-3.7-7.5-2.3c-2.7,1.4-3.7,4.8-2.3,7.5c0.1,0.1,0.1,0.2,0.2,0.3l11.1,19.2
			c1.5,2.7,4.9,3.6,7.5,2.1C43.1,42.3,44,38.9,42.5,36.2C42.6,36.2,42.6,36.2,42.5,36.2L42.5,36.2L42.5,36.2z"/>
		<circle class="st4" cx="15.5" cy="38.9" r="5.6"/>
	</g>
</g>
</svg>
