<?xml version="1.0" encoding="utf-8"?>
<!-- Generator: Adobe Illustrator 28.3.0, SVG Export Plug-In . SVG Version: 6.00 Build 0)  -->
<svg version="1.1" id="Camada_1" xmlns="http://www.w3.org/2000/svg" xmlns:xlink="http://www.w3.org/1999/xlink" x="0px" y="0px"
	 viewBox="0 0 50 50" style="enable-background:new 0 0 50 50;" xml:space="preserve">
<style type="text/css">
	.st0{fill:#7DF4EB;}
	.st1{fill:none;stroke:#444444;stroke-width:2.5;stroke-linecap:round;stroke-linejoin:round;stroke-miterlimit:10;}
	.st2{fill:none;stroke:#444444;stroke-width:0.75;stroke-linecap:round;stroke-linejoin:round;stroke-miterlimit:10;}
	.st3{fill:none;stroke:#444444;stroke-linecap:round;stroke-linejoin:round;stroke-miterlimit:10;}
</style>
<path class="st0" d="M45.6,12.5L38.9,9l-7.7-4.4l-6-2.8C22,1.8,3.7,10.7,3.7,13.9l-0.5,7.8l0.5,15.1l11.5,7.6l31-11
	C47,32.9,46.5,14.5,45.6,12.5z"/>
<g>
	<g>
		<path class="st1" d="M30.4,46.5l-2.2,1.3c-1.7,1-3.8,1-5.5,0l-15.6-9c-1.7-1-2.7-2.8-2.7-4.7V16c0-2,1-3.8,2.7-4.7l15.6-9
			c1.7-1,3.8-1,5.5,0l15.6,9c1.7,1,2.7,2.8,2.7,4.7v18c0,2-1,3.8-2.7,4.7l-2.5,1.4"/>
	</g>
</g>
<path class="st2" d="M34.2,42l-4.7-8.9"/>
<circle class="st2" cx="25" cy="24.1" r="9.6"/>
<line class="st3" x1="22.3" y1="24.3" x2="22.3" y2="28"/>
<line class="st3" x1="24.8" y1="20.6" x2="24.8" y2="28"/>
<line class="st3" x1="27.1" y1="24.4" x2="27.1" y2="27.8"/>
</svg>
