<svg version="1" xmlns="http://www.w3.org/2000/svg" viewBox="0 0 50 50"><path fill="#71BAC0" d="M15.153 42.667l-1.434 3.264a23.576 23.576 0 0 0 4.14 1.37l16.725-6.087-2.511-3.735a15.844 15.844 0 0 0 5.259-5.911l3.273 1.684a19.56 19.56 0 0 0 2.166-8.945h4.065a23.617 23.617 0 0 0-15.584-22.21l-2.119 5.856a17.397 17.397 0 0 0-5.916-1.037c-.251 0-.502.013-.753.024l-.115-2.668c-10.663.463-19.185 9.361-19.185 20.035a20.082 20.082 0 0 0 11.989 18.36z"/><path fill="#7ED0D6" d="M37.492 5.492a23.585 23.585 0 0 0-6.252-3.406l-2.119 5.856a17.397 17.397 0 0 0-5.916-1.037c-.251 0-.502.013-.753.024l-.116-2.668c-8.304.36-15.288 5.845-17.982 13.292L37.492 5.492z"/><g fill="#444"><path d="M43.575 10.012A24.742 24.742 0 0 0 31.677.911L30.502.486 28.369 6.38a18.601 18.601 0 0 0-4.708-.721l-.117-2.701-1.249.054C11.057 3.499 1.914 13.047 1.914 24.296A21.307 21.307 0 0 0 13.52 43.264l-1.448 3.298 1.145.503a24.715 24.715 0 0 0 10.001 2.1 1.25 1.25 0 0 0 0-2.5 22.22 22.22 0 0 1-7.837-1.418l1.418-3.233 3.92-8.728a9.333 9.333 0 0 0 2.674.393 9.31 9.31 0 0 0 3.94-.879l3.011 4.326 3.209 4.784a1.248 1.248 0 1 0 2.074-1.394l-1.845-2.744a17.048 17.048 0 0 0 4.049-4.551l3.314 1.705.571-1.111a20.908 20.908 0 0 0 2.267-8.267h4.104v-1.25a24.754 24.754 0 0 0-4.512-14.286zm-2.047 1.435a22.238 22.238 0 0 1 4.023 11.598H32.679a9.394 9.394 0 0 0-4.947-7.057l3.52-10.228.739-2.042a22.259 22.259 0 0 1 9.537 7.729zM22.62 8.173c2.08-.091 4.134.238 6.089.944l.999.362-2.203 6.4a9.302 9.302 0 0 0-4.114-.963c-.514 0-1.015.053-1.507.133l-.36-6.825 1.096-.051zm-6.051 33.74l-.914-.401A18.808 18.808 0 0 1 4.414 24.296c0-9.502 7.392-17.629 16.722-18.686l.5 9.476c-4.336.825-7.625 4.638-7.625 9.211 0 4.155 2.718 7.683 6.467 8.912l-3.909 8.704zM14.51 24.297c0-4.897 3.984-8.881 8.881-8.881s8.881 3.984 8.881 8.881c0 4.896-3.984 8.881-8.881 8.881s-8.881-3.984-8.881-8.881zm19.633 9.717a14.624 14.624 0 0 1-2.768 2.417l-.825.554-2.991-4.296a9.42 9.42 0 0 0 4.577-5.022l4.553 2.405-.469.913a14.688 14.688 0 0 1-2.077 3.029zm5.883-2.477l-1.087-.559-6.717-3.548a9.328 9.328 0 0 0 .549-3.133c0-.339-.02-.673-.055-1.002h8.803v1.001a18.337 18.337 0 0 1-1.493 7.241z"/><path d="M23.391 16.182c-4.474 0-8.114 3.64-8.114 8.115s3.64 8.114 8.114 8.114 8.115-3.64 8.115-8.114-3.641-8.115-8.115-8.115zm0 15.979c-4.336 0-7.864-3.528-7.864-7.864s3.528-7.865 7.864-7.865 7.865 3.528 7.865 7.865c0 4.336-3.528 7.864-7.865 7.864z"/><path d="M21.985 21.487c.497-.267 1.065-.401 1.706-.401 1.014 0 1.879.377 2.596 1.132l1.49-1.376a4.746 4.746 0 0 0-1.806-1.291c-.716-.296-1.515-.445-2.394-.445-1.051 0-1.998.222-2.839.666a4.96 4.96 0 0 0-1.972 1.849c-.473.789-.709 1.68-.709 2.674s.237 1.886.709 2.674c.474.789 1.126 1.405 1.958 1.85s1.768.666 2.81.666c.727 0 1.448-.11 2.166-.329a6.123 6.123 0 0 0 1.893-.946v-4.57l-4.685.001v2.124h2.562v1.314a3.765 3.765 0 0 1-1.806.431c-.631 0-1.193-.137-1.685-.408a2.942 2.942 0 0 1-1.154-1.14c-.278-.488-.417-1.042-.417-1.664 0-.63.139-1.19.417-1.677a2.86 2.86 0 0 1 1.16-1.134z"/></g></svg>