<?xml version="1.0" encoding="utf-8"?>
<!-- Generator: Adobe Illustrator 22.0.1, SVG Export Plug-In . SVG Version: 6.00 Build 0)  -->
<svg version="1.1" id="Layer_1" xmlns="http://www.w3.org/2000/svg" xmlns:xlink="http://www.w3.org/1999/xlink" x="0px" y="0px"
	 viewBox="0 0 50 50" style="enable-background:new 0 0 50 50;" xml:space="preserve">
<style type="text/css">
	.st0{fill:#E097FB;}
	.st1{fill:#CE87EA;}
	.st2{fill:#464646;}
</style>
<g>
	<path class="st0" d="M38.4,6.8c-0.8-1.4-2.2-2.2-3.8-2.2h-19c-1.6,0-3,0.8-3.8,2.2L3.9,20.5L38.9,7.7L38.4,6.8z"/>
	<path class="st1" d="M48.1,27.2c0.8-1.4,0.8-3.1,0-4.5L39.1,7.1L3.5,20l-1.6,2.7c-0.8,1.4-0.8,3.1,0,4.5l8.9,15.4l36-13.1
		L48.1,27.2z"/>
	<g>
		<path class="st2" d="M34.5,47.1h-19c-2,0-3.9-1.1-4.9-2.8L1.1,27.8c-1-1.7-1-3.9,0-5.6l9.5-16.4c1-1.7,2.9-2.8,4.9-2.8h19
			c2,0,3.9,1.1,4.9,2.8l9.5,16.4c1,1.7,1,3.9,0,5.6L46.5,32c-0.3,0.6-1.1,0.8-1.7,0.5c-0.6-0.3-0.8-1.1-0.5-1.7l2.4-4.1
			c0.6-1,0.6-2.2,0-3.1L37.2,7c-0.6-1-1.6-1.6-2.7-1.6h-19c-1.1,0-2.2,0.6-2.7,1.6L3.3,23.4c-0.6,1-0.6,2.2,0,3.1L12.8,43
			c0.6,1,1.6,1.6,2.7,1.6h19c1.1,0,2.2-0.6,2.7-1.6c0.3-0.6,1.1-0.8,1.7-0.5c0.6,0.3,0.8,1.1,0.5,1.7C38.4,46,36.5,47.1,34.5,47.1z"
			/>
	</g>
	<path class="st2" d="M33.4,18.2L26.2,14c-0.8-0.4-1.7-0.4-2.5,0l-7.2,4.2c-0.8,0.4-1.3,1.3-1.3,2.2v8.3c0,0.9,0.5,1.7,1.3,2.2
		l7.2,4.2c0.4,0.2,0.8,0.3,1.2,0.3c0.4,0,0.9-0.1,1.3-0.3l7.2-4.2c0.8-0.4,1.2-1.3,1.2-2.2v-8.3C34.7,19.5,34.2,18.7,33.4,18.2z
		 M25.5,33.8c-0.3,0.2-0.7,0.2-1,0l-7.1-4.1l3-1.9l4.1,2.7v-5.3L20,22.6v4.2l-3.3,2c0,0,0-0.1,0-0.1v-8.3c0-0.4,0.2-0.7,0.5-0.9
		l7.2-4.2h0c0,0,0,0,0,0v4l-3.9,2.4l4.4,2.5l4.4-2.5l-3.9-2.3v-4.1l7.2,4.1c0.3,0.2,0.5,0.5,0.5,0.9v8.3c0,0.1,0,0.1,0,0.2l-3.2-2
		l-0.1-4.2l-4.4,2.5v5.3l4.4-2.3l2.6,1.6L25.5,33.8z"/>
</g>
</svg>
