<svg xmlns="http://www.w3.org/2000/svg" version="1" viewBox="0 0 50 50"><path fill="#CFE4E5" d="M4.062 8.582h2.563v28.72l36.49-13.282.26-.232V8.582h2.562c.34 0 .615-.276.615-.616V4.798a.615.615 0 0 0-.615-.616H4.062a.615.615 0 0 0-.615.616v3.168c0 .34.276.616.615.616z"/><path fill="#B9D7D9" d="M4.062 8.582h2.563v13.423L43.377 8.628v-.046h.127l3.05-1.11V4.798a.616.616 0 0 0-.616-.616H4.062a.615.615 0 0 0-.615.616v3.168c0 .34.276.616.615.616z"/><g fill="#444"><path d="M21.145 34.145l.758-1.937a8.448 8.448 0 0 1-5.34-7.32l-2.077.128a10.538 10.538 0 0 0 6.66 9.13zm.421-17.53l-.85-1.898a10.625 10.625 0 0 0-2.678 1.717l1.375 1.562a8.47 8.47 0 0 1 2.153-1.38zm3.422 16.175c-.7 0-1.39-.086-2.047-.255l-.515 2.016c.827.212 1.69.32 2.563.32 5.805 0 10.528-4.722 10.528-10.527s-4.723-10.528-10.528-10.528c-1.03 0-2.04.146-3 .434l.598 1.992a8.335 8.335 0 0 1 2.402-.347c4.658 0 8.447 3.79 8.447 8.447s-3.79 8.447-8.447 8.447zm-10.502-9.122l2.076.128a8.298 8.298 0 0 1 2.083-5.027l-1.56-1.38a10.379 10.379 0 0 0-2.6 6.278z"/><path d="M45.938 3.152H26.04V1.04a1.04 1.04 0 1 0-2.08 0v2.11H4.063c-.913 0-1.655.744-1.655 1.657v3.168c0 .913.743 1.655 1.655 1.655h1.523v28.296c0 1.77 1.365 3.21 3.042 3.21H22.49l-7.088 7.087a1.04 1.04 0 0 0 0 1.47 1.032 1.032 0 0 0 1.47.002l7.255-7.255v6.52a1.04 1.04 0 1 0 2.08 0v-6.353l7.088 7.088a1.041 1.041 0 0 0 1.472-1.47l-8.863-8.865a1.025 1.025 0 0 0-.34-.225c-.153-.064-.317-.077-.48-.064-.028 0-.055-.015-.084-.015H8.627c-.53 0-.96-.506-.96-1.128V9.63h34.67V23.8a1.04 1.04 0 1 0 2.08 0V9.63h1.52c.914 0 1.656-.742 1.656-1.654V4.808c0-.914-.743-1.656-1.655-1.656zm-.425 4.4h-2.118c-.006 0-.012-.005-.018-.005s-.012.004-.018.004H6.642l-.018-.003c-.006 0-.012.004-.018.004h-2.12V5.233h41.025v2.32z"/></g></svg>