<svg xmlns="http://www.w3.org/2000/svg" id="Layer_1" data-name="Layer 1" version="1.1" viewBox="0 0 50 50"><defs><style>.cls-4{fill:none;stroke:#444;stroke-miterlimit:10}</style></defs><path fill="#04ad49" stroke-width="0" d="M30.9 19.1l7.8 2.4-6.7 4.8.1 8.2-6.5-4.9-7.8 2.6 2.6-7.8-4.9-6.5 8.2.1 4.8-6.7 2.4 7.8z"/><path fill="#22dd6d" stroke-width="0" d="M44.5 2.2H5c-1.3 0-1.4 3.7-1.4 5l-.2 18.6-.5 9.8 1.2 11.3 11.9.6 30.9-11V4.7c0-1.4-1.1-2.5-2.4-2.5z"/><path fill="none" stroke="#444" stroke-linecap="round" stroke-linejoin="round" stroke-width="2.5" d="M32.4 48.3h-26c-1.8 0-3.3-1.5-3.3-3.4V5.1c0-1.9 1.5-3.4 3.3-3.4H44c1.8 0 3.3 1.5 3.3 3.4v33.5"/><path d="M41.6 41.1c0 1.8-1.4 3.2-3.2 3.2H11.7c-1.8 0-3.2-1.4-3.2-3.2V18.3c0-1 .8-1.8 1.8-1.8h29.5c1 0 1.8.8 1.8 1.8v22.8zm-.7-26.4H9.1c-.4 0-.8-.3-.8-.8V10c0-1.6 1.3-2.8 2.8-2.8h27.7c1.6 0 2.8 1.3 2.8 2.8v3.9c0 .4-.3.8-.8.8z" class="cls-4"/><path fill="none" stroke="#444" stroke-miterlimit="10" stroke-width=".5" d="M11.7 11.8h-.1c-.5 0-.8-.4-.8-.8s.4-.8.8-.8h.1c.5 0 .8.4.8.8s-.4.8-.8.8zm3.6 0h-.1c-.5 0-.8-.4-.8-.8s.4-.8.8-.8h.1c.5 0 .8.4.8.8s-.4.8-.8.8zm3.6 0h-.1c-.5 0-.8-.4-.8-.8s.4-.8.8-.8h.1c.5 0 .8.4.8.8s-.4.8-.8.8zm19.1 0h-6.9c-.5 0-.8-.4-.8-.8s.4-.8.8-.8H38c.5 0 .8.4.8.8s-.4.8-.8.8z"/><path d="M20.9 44.1c-.8 0-1.6-.2-2.4-.6-2.3-1.3-3.1-4.2-1.8-6.5l10.5-18.2c1.3-2.3 4.8-2.8 6.5-1.8s3.1 4.2 1.8 6.5L25 41.7c-.9 1.5-2.5 2.4-4.1 2.4z" class="cls-4"/><circle cx="21" cy="39.3" r="4.8" class="cls-4"/><path d="M40.3 43.8c-1-.4-1.9-1.1-2.5-2.1L27.3 23.5c-1.3-2.3-.6-5 1.7-6.3 2.3-1.3 5.3-.7 6.6 1.6L41.5 29" class="cls-4"/><g><path d="M15.4 26.9h3.9c.8 0 1.5-.7 1.5-1.5v-3.8c0-.8-.7-1.5-1.5-1.5h-3.9c-.8 0-1.5.7-1.5 1.5v3.8c0 .8.7 1.5 1.5 1.5zm4.7 4.3c-.2-.2-.5-.3-.8-.3h-3.9c-.8 0-1.5.7-1.5 1.5v3.8c0 .8.7 1.5 1.5 1.5h.7" class="cls-4"/><path fill="none" stroke="#444" stroke-linecap="round" stroke-linejoin="round" stroke-width=".5" d="M8.3 32.4l2.4 2.1h2.2m-4.7-9l2-2.1h2.7"/></g></svg>