<?xml version="1.0" encoding="UTF-8"?>
<svg id="Camada_1" data-name="Camada 1" xmlns="http://www.w3.org/2000/svg" version="1.1" viewBox="0 0 50 50">
  <defs>
    <style>
      .cls-1 {
        fill: #fc9d9a;
      }

      .cls-1, .cls-2 {
        stroke-width: 0px;
      }

      .cls-3 {
        stroke-width: .5px;
      }

      .cls-3, .cls-4, .cls-5 {
        fill: none;
        stroke: #444;
        stroke-linecap: round;
        stroke-linejoin: round;
      }

      .cls-2 {
        fill: #444;
      }

      .cls-5 {
        stroke-width: 2.5px;
      }
    </style>
  </defs>
  <path class="cls-1" d="M47.5,8.6l.2-2.6c.2-1.9-1.3-3.6-3.3-3.6l-39.4-.2c-1.8,0-3.3,1.5-3.3,3.3v23.1c0,0,0,0,0,0v3.6l-.3,12.3c0,1.9,1.5,3.4,3.3,3.4l18-.2c.4,0,.8,0,1.1-.2l21.4-8c1.3-.5,2.1-1.7,2.1-3.1V14.7c0,0,.6-.1.6-.1l-.5-5.4c0-.2,0-.4,0-.6Z"/>
  <path class="cls-5" d="M32.2,47.9H5.2c-1.9,0-3.4-1.6-3.4-3.5V5.4c0-1.9,1.5-3.5,3.4-3.5h39c1.9,0,3.4,1.6,3.4,3.5v32.5"/>
  <g>
    <g>
      <path class="cls-2" d="M11.8,23.2v7.3c1.2,2.1,2.8,3.8,4.9,5.1v-12.3c0-.4-.3-.8-.8-.8h-3.3c-.4,0-.8.3-.8.8ZM21.3,16.4v20.9c.9.2,1.7.2,2.6.2s1.6,0,2.3-.2v-20.9c0-.4-.3-.8-.8-.8h-3.3c-.4,0-.8.3-.8.8ZM31.4,26.5v8.8c2.1-1.2,3.7-3.1,4.9-5.2v-3.6c0-.4-.3-.8-.8-.8h-3.3c-.4,0-.8.3-.8.8Z"/>
      <circle class="cls-4" cx="24" cy="23.6" r="16"/>
      <circle class="cls-3" cx="24" cy="23.6" r="13.8"/>
    </g>
    <path class="cls-4" d="M35.2,35.4l7.4,6.3c.7.6,1.7.5,2.3-.2h0c.6-.7.5-1.7-.2-2.3l-7.4-6.3"/>
  </g>
  <path class="cls-3" d="M23.9,11.8c6.4,0,11.6,4.8,11.6,10.7"/>
</svg>