<svg xmlns="http://www.w3.org/2000/svg" id="Layer_1" version="1.1" viewBox="0 0 50 50"><defs><style>.st0,.st2{fill:none;stroke:#444;stroke-linecap:round;stroke-linejoin:round}.st2{stroke-width:.5px}</style></defs><path fill="#dc5e82" d="M9.4 4.7L3.9 12c-3.5 11.2.6 18.3.6 18.3l10.1 6.9c1.4 1.2 10.6.5 14.3-.9l5 4.6 5.4-1.9 5.5-1.9-8.6-7.6 2.2-9.5-2.8-10.9-6.3-4.9-9.2-3L9.4 4.7z"/><path d="M42.2 41.9l-6.6-6.6" class="st0"/><path fill="none" stroke="#444" stroke-linecap="round" stroke-linejoin="round" stroke-width="2.5" d="M35.6 29.4c3-4.1 2.8-9.5 2.8-9.5 0-10-8.1-18.2-18.2-18.2C10.2 1.7 2 9.8 2 19.9s8.1 18.2 18.2 18.2c0 0 4.7.2 8.7-2.4m0 .2l10.9 10.9c1.8 1.8 4.8 1.8 6.7 0M35.6 29.4l8.7 7.8"/><circle cx="20.2" cy="19.9" r="13.2" class="st0"/><path d="M14.4 26.6h-2c-.1 0-.2-.1-.2-.2v-3.5c0-.1.1-.2.2-.2h2c.1 0 .2.1.2.2v3.5c0 .1-.1.2-.2.2zm4.5 0h-2c-.1 0-.2-.1-.2-.2V19c0-.1.1-.2.2-.2h2c.1 0 .2.1.2.2v7.4c0 .1-.1.2-.2.2zm4.5 0h-2c-.1 0-.2-.1-.2-.2v-5.6c0-.1.1-.2.2-.2h2c.1 0 .2.1.2.2v5.6c.1.1 0 .2-.2.2zm4.6 0h-2c-.1 0-.2-.1-.2-.2v-9.5c0-.1.1-.2.2-.2h2c.1 0 .2.1.2.2v9.5c0 .1-.1.2-.2.2zm-2.5-14L21.1 17l-2.3-2.2-1.8 1.8" class="st2"/><path d="M25.5 15.2v-2.6h-2.6" class="st2"/></svg>