<?xml version="1.0" encoding="utf-8"?>
<!-- Generator: Adobe Illustrator 27.3.1, SVG Export Plug-In . SVG Version: 6.00 Build 0)  -->
<svg version="1.1" id="Camada_3" xmlns="http://www.w3.org/2000/svg" xmlns:xlink="http://www.w3.org/1999/xlink" x="0px" y="0px"
	 viewBox="0 0 50 50" style="enable-background:new 0 0 50 50;" xml:space="preserve">
<style type="text/css">
	.st0{fill:#BF94F7;}
	.st1{fill:#A475EF;}
	.st2{fill:none;stroke:#444444;stroke-width:2.5;stroke-linecap:round;stroke-linejoin:round;stroke-miterlimit:10;}
	.st3{fill:none;stroke:#444444;stroke-linecap:round;stroke-linejoin:round;stroke-miterlimit:10;}
	.st4{fill:none;stroke:#444444;stroke-width:1.5;stroke-linecap:round;stroke-linejoin:round;stroke-miterlimit:10;}
	.st5{fill:none;stroke:#444444;stroke-width:0.5;stroke-linecap:round;stroke-linejoin:round;stroke-miterlimit:10;}
</style>
<g>
	<g>
		<path class="st0" d="M45.81,2.6H4.09c-1.12,0-2.03,0.91-2.03,2.03v16.47L47.84,4.8V4.63C47.84,3.5,46.93,2.6,45.81,2.6z"/>
		<polygon class="st1" points="2.06,21.09 2.06,45.78 47.84,29.5 47.84,4.8 		"/>
	</g>
	<g>
		<g>
			<path class="st2" d="M47.94,29.79V5.55c0-1.96-1.52-3.54-3.39-3.54H5.54C3.67,2,2.15,3.6,2.15,5.55v38.91
				c0,1.96,1.52,3.54,3.39,3.54H44.4c0,0,3.44,0,3.44-3.42c0-7.93,0,0,0,0"/>
			<path class="st2" d="M2.15,15.55"/>
			<path class="st2" d="M47.93,15.55"/>
		</g>
	</g>
	<circle class="st3" cx="18.96" cy="28.58" r="3.09"/>
	<circle class="st3" cx="10.14" cy="32.1" r="3.09"/>
	<path class="st3" d="M13.23,46.65l2.06-9.62c0.34-1.59,1.47-2.4,3.23-2.73l5.29-0.88l5.24-4.73c0,0,1.74,2.97-0.19,4.79l-3.78,3.74
		l-5.78,1.77"/>
	<line class="st3" x1="21.16" y1="46.65" x2="22.89" y2="38.02"/>
	<circle class="st3" cx="38.83" cy="31.22" r="3.09"/>
	<path class="st3" d="M46.25,46.65l-1.98-6.87c-0.34-1.59-1.33-2.83-4.12-2.83c-1.91,0-10.58,0-10.58,0s0.59,3.53,3.53,3.53h7.05"/>
	<line class="st3" x1="39.75" y1="46.65" x2="37.51" y2="40.48"/>
	<path class="st3" d="M6.05,46.65l1.3-6.09c0.34-1.59,1.47-2.4,3.23-2.73l4.41-0.88"/>
	<polyline class="st4" points="19.53,10.26 7.34,15.48 11.35,18.58 10.81,23.58 23,18.36 	"/>
	<line class="st4" x1="27.79" y1="29.53" x2="18.11" y2="6.97"/>
	<line class="st4" x1="30.73" y1="36.65" x2="29.37" y2="33.36"/>
	<line class="st4" x1="34.86" y1="46.65" x2="32.39" y2="40.66"/>
	<polyline class="st5" points="20.51,12.21 12.57,15.76 14.46,17.12 14.24,19.4 22.04,15.98 	"/>
</g>
</svg>
