<?xml version="1.0" encoding="utf-8"?>
<!-- Generator: Adobe Illustrator 22.1.0, SVG Export Plug-In . SVG Version: 6.00 Build 0)  -->
<svg version="1.1" id="Layer_1" xmlns="http://www.w3.org/2000/svg" xmlns:xlink="http://www.w3.org/1999/xlink" x="0px" y="0px"
	 viewBox="0 0 50 50" style="enable-background:new 0 0 50 50;" xml:space="preserve">
<style type="text/css">
	.st0{fill:#AFE55D;}
	.st1{fill:#C3FF68;}
	.st2{fill:#444444;}
</style>
<polygon class="st0" points="28,38.2 10.9,44.5 9.9,41.6 "/>
<g>
	<polygon class="st0" points="48.5,11.5 48.4,24.2 48.4,30.7 22.2,40.3 12,40.3 11.9,44 2,47.6 1.6,32.5 1.6,28.5 	"/>
</g>
<g>
	<polygon class="st1" points="48.4,8.8 47.8,12 1.5,28.8 1.6,22.3 1.6,19.4 49,2.1 	"/>
</g>
<g>
	<path class="st2" d="M33.4,39.6v0.2c0,0.4-0.3,0.8-0.8,0.8c-0.4,0-0.8-0.3-0.8-0.8v-0.2V33c-0.1-1.7-1.7-3.5-4-3.5h-5.3
		c-2.3,0.1-4,1.5-4,3.6v3.7v1.5v2.9c0,0.3-0.2,0.3-0.5,0.4l0,0h-0.1h-0.1h-0.3c-0.1,0-0.3,0-0.3,0c-0.3-0.1-0.3-0.1-0.3-0.5v-3.2
		v-2.1V33c0-2.9,2.2-5,5.4-5.1h0.1h5.3c3.4,0,5.5,2.6,5.6,5L33.4,39.6z"/>
</g>
<g>
	<g>
		<path class="st2" d="M12.6,29.3c-2.5,0-4.5-2-4.5-4.5s2-4.5,4.5-4.5s4.5,2,4.5,4.5S15.1,29.3,12.6,29.3z M12.6,21.9
			c-1.6,0-3,1.3-3,2.9s1.3,2.9,3,2.9c1.6,0,3-1.3,3-2.9S14.2,21.9,12.6,21.9z"/>
	</g>
	<g>
		<path class="st2" d="M21.6,36.6L21.6,36.6l-3,0.1h-0.2c-0.3,0-1.1-0.1-1.2-0.5c0-0.1-0.1-0.2-0.1-0.4c-0.1-0.3-0.2-0.6-0.3-1
			C16.4,33.5,16,32,15.3,31s-1.9-1.6-3.2-1.7c-3.5-0.2-5.7,1.7-6,5.2l-0.2,9.8c0,0.2,0.1,0.4,0.2,0.6c0.1,0.1,0.3,0.2,0.6,0.2H18
			c0.3,0,0.6-0.2,0.7-0.5c0.1-0.1,0.1-0.2,0.1-0.3h-6.9V44l1.3-0.5l0,0H7.4l0.1-9c0.1-1.5,0.8-3.9,4.4-3.7c0.8,0.1,1.6,0.5,2.1,1.1
			c0.5,0.7,0.9,2.1,1.2,3.2c0.2,0.6,0.3,1.1,0.5,1.5c0.2,0.6,0.8,1,1.3,1.2s1,0.3,1.3,0.3h0.2l3-0.1l0,0c0.5,0,1.5,0.1,1.6,1
			c0,0.2,0,0.3-0.1,0.4c0,0.6-0.6,0.7-1,0.8c-0.8,0-1.7,0.1-2.6,0.1h-0.1c-0.3,0-0.5,0-0.8,0c-0.6,0-1.1,0-1.5,0c-0.2,0-0.3,0-0.5,0
			h-0.1c-0.4,0-0.7-0.1-0.9-0.1l-0.6-0.7l-1.8-2.1c-0.3-0.3-0.7-0.4-1.1-0.1c-0.3,0.3-0.4,0.7-0.1,1.1l0.9,1.1l0.6,0.8l0.6,0.8
			l0.1,0.1c0.1,0.1,0.1,0.2,0.3,0.3l1,1l1.5-0.6l-0.2-0.3c0.2,0,0.5,0,0.7,0c0.1,0,0.1,0,0.2,0h0.1h0.1h0.1H18l0,0l2-0.7l0.2-0.1
			l1.9-0.4h2.3c0.1-0.2,0.2-0.5,0.2-0.8c0-0.2,0-0.4,0-0.6C24.5,37.5,23.3,36.6,21.6,36.6z"/>
	</g>
</g>
<g>
	<g>
		<path class="st2" d="M37.3,29.3c-2.5,0-4.5-2-4.5-4.5s2-4.5,4.5-4.5s4.5,2,4.5,4.5S39.8,29.3,37.3,29.3z M37.3,21.9
			c-1.6,0-3,1.3-3,2.9s1.3,2.9,3,2.9s3-1.3,3-2.9S38.9,21.9,37.3,21.9z"/>
	</g>
	<g>
		<path class="st2" d="M43.9,34.5c-0.3-3.4-2.5-5.3-6-5.1c-1.2,0.1-2.4,0.7-3.2,1.7c-0.7,0.9-1.1,2.4-1.5,3.7
			c-0.1,0.5-0.3,1-0.4,1.3c-0.1,0.4-0.9,0.5-1.2,0.5l-3.2-0.1l0,0c-1.7,0-3,0.9-3.1,2.4c-0.1,0.4,0,0.9,0.2,1.3h10.9l1.6-1.9
			c0.3-0.3,0.2-0.8-0.1-1.1s-0.8-0.2-1.1,0.1l-2.3,2.5c-0.7,0.2-3.9,0.2-6.5,0c-1.3-0.2-1.2-0.6-1.2-0.8c0.1-0.9,1.2-1,1.6-1
			l3.2,0.1c0.7,0,2.2-0.3,2.6-1.5c0.2-0.4,0.3-0.9,0.5-1.5c0.3-1.1,0.7-2.5,1.3-3.2c0.5-0.6,1.3-1,2.1-1.1c3.5-0.3,4.3,2.2,4.4,3.7
			l0.3,9H38l0.1,0.8h-6.8c0,0.1,0,0.2,0.1,0.3c0.1,0.3,0.4,0.5,0.7,0.5h11.4c0.2,0,0.4-0.1,0.6-0.2c0.1-0.2,0.2-0.3,0.2-0.6
			L43.9,34.5z"/>
	</g>
</g>
<g>
	<polygon class="st0" points="22.2,40.3 20.1,41.1 20,41.1 18.1,41.8 18.1,41.8 18,41.8 17.9,41.8 17.9,41.8 17.1,42.1 15.6,42.7 
		13.2,43.5 13.2,43.6 11.9,44 11.9,43.5 12,40.3 13.5,40.3 16.4,40.3 17,40.3 18.5,40.3 19.4,40.3 	"/>
	<path class="st2" d="M38.4,40.3c0-0.4-0.4-0.7-0.8-0.7h-4.3h-1.5h-7.2H23h-4.6h-1.5h-2.1h-2H12c-0.4,0-0.8,0.3-0.8,0.7l-0.1,3.3
		v0.7c0,0.2,0.1,0.4,0.2,0.6c0.1,0.1,0.3,0.2,0.5,0.2h0.1H38c0.2,0,0.4-0.1,0.6-0.3c0.1-0.2,0.2-0.4,0.2-0.6L38.4,40.3z M12.7,43.6
		L12.7,43.6l0.1-2.5h1.4H17h1.5H20l0,0h16.9l0.2,2.5H12.7z"/>
</g>
<g>
	<path class="st2" d="M25.2,28.2c-2.4,0-4.3-1.9-4.3-4.3s1.9-4.3,4.3-4.3s4.3,1.9,4.3,4.3S27.6,28.2,25.2,28.2z M25.2,21.1
		c-1.5,0-2.8,1.3-2.8,2.8s1.2,2.8,2.8,2.8c1.5,0,2.8-1.3,2.8-2.8C28,22.3,26.7,21.1,25.2,21.1z"/>
</g>
<g>
	<g>
		<path class="st2" d="M21.2,38L21.2,38c-0.4,0-0.8-0.3-0.8-0.8v-2.9c0-0.4,0.3-0.8,0.8-0.8l0,0c0.4,0,0.8,0.3,0.8,0.8v2.9
			C21.9,37.6,21.6,38,21.2,38z"/>
	</g>
	<g>
		<path class="st2" d="M29.6,38c-0.4,0-0.8-0.3-0.8-0.8v-2.9c0-0.4,0.3-0.8,0.8-0.8s0.8,0.3,0.8,0.8v2.9C30.3,37.6,30,38,29.6,38z"
			/>
	</g>
</g>
<g>
	<path class="st2" d="M48.4,49.5H1.6c-0.7,0-1.3-0.6-1.3-1.3V1.8c0-0.7,0.6-1.3,1.3-1.3h20.7c0.7,0,1.3,0.6,1.3,1.3S23,3.1,22.3,3.1
		H2.9v43.8h44.2V2.5c0-0.7,0.6-1.3,1.3-1.3s1.3,0.6,1.3,1.3v45.7C49.7,48.9,49.1,49.5,48.4,49.5z"/>
</g>
<path class="st2" d="M34.2,0.9c-1,0-1.9,0.8-1.9,1.9c0,0.3,0.1,0.5,0.2,0.8l-7.8,8.8c-0.2-0.1-0.5-0.1-0.7-0.1c-0.7,0-1.3,0.4-1.7,1
	l-5.8-2.2c-0.2-0.9-0.9-1.5-1.8-1.5c-1,0-1.9,0.8-1.9,1.9c0,0.1,0,0.2,0,0.3l-4.6,3.1c-0.3-0.1-0.5-0.2-0.9-0.2
	c-1,0-1.9,0.8-1.9,1.9s0.8,1.9,1.9,1.9s1.9-0.8,1.9-1.9c0-0.2,0-0.3-0.1-0.5l4.4-3c0.3,0.2,0.7,0.3,1,0.3c0.6,0,1.2-0.3,1.5-0.8
	l6.1,2.3c0.3,0.7,1,1.2,1.7,1.2c1,0,1.9-0.8,1.9-1.9c0-0.2,0-0.4-0.1-0.6l7.9-8.9c0.2,0.1,0.4,0.1,0.6,0.1c1,0,1.9-0.8,1.9-1.9
	S35.2,0.9,34.2,0.9z"/>
</svg>
