<?xml version="1.0" encoding="utf-8"?>
<!-- Generator: Adobe Illustrator 27.6.1, SVG Export Plug-In . SVG Version: 6.00 Build 0)  -->
<svg version="1.1" id="Camada_3" xmlns="http://www.w3.org/2000/svg" xmlns:xlink="http://www.w3.org/1999/xlink" x="0px" y="0px"
	 viewBox="0 0 50 50" style="enable-background:new 0 0 50 50;" xml:space="preserve">
<style type="text/css">
	.st0{fill:#FDCF72;}
	.st1{fill:#FCC34F;}
	.st2{fill:none;stroke:#444444;stroke-width:2.5;stroke-linecap:round;stroke-linejoin:round;stroke-miterlimit:10;}
	.st3{fill:none;stroke:#444444;stroke-linecap:round;stroke-linejoin:round;stroke-miterlimit:10;}
	.st4{fill:none;stroke:#444444;stroke-width:0.5;stroke-linecap:round;stroke-linejoin:round;stroke-miterlimit:10;}
</style>
<g>
	<g>
		<g>
			<path class="st0" d="M34.03,3.23l-7.78-0.67c-3.2,0-14.54,0.27-21.43,10.21l-4.01,10.8L41.86,9.13L34.03,3.23z"/>
			<path class="st1" d="M0.69,23.44l3.96,13.41c0.11,0.36,4.55,5.65,4.86,5.85l5.62,2.97l32.19-11.74c0.65-0.37,1.7-8.64,0.75-13.41
				c-0.16-0.79-2.69-7.49-3.21-8.1l-3-3.51L0.69,23.44z"/>
		</g>
		<g>
			<g>
				<g>
					<path class="st2" d="M36.83,45.84c-7.89,4.54-18.06,4.24-25.79-1.58C0.68,36.48-1.41,21.78,6.38,11.43"/>
					<path class="st2" d="M6.25,11.6c2.03-2.99,4.73-4.73,4.73-4.73l0.66-0.54c8.08-5.69,19.24-5.82,27.57,0.45
						c10.36,7.78,12.44,22.48,4.65,32.83"/>
				</g>
			</g>
		</g>
	</g>
	<path class="st3" d="M32.68,14.84l0-1.92c0-1,0.69-1.82,1.54-1.82c0.85,0,1.52,0.82,1.52,1.82l0,10.35"/>
	<path class="st3" d="M29.61,18.37l0-3.8c0-1,0.69-1.82,1.54-1.82c0.85,0,1.53,0.82,1.53,1.82l0,8.71"/>
	<path class="st3" d="M26.83,21.83c0-2.11,0-3.88,0-3.88c0-0.91,0.63-1.65,1.39-1.65c0.77,0,1.39,0.74,1.39,1.65l0,5.11"/>
	<path class="st3" d="M36.74,39.17c0-3.18,1.87-4.8,3.05-6.71c2.48-4.01,2.21-4.72,3.02-7.16c0.72-2.15,1.69-4.39,0.47-4.97
		c-0.89-0.42-2.37,0.94-3.4,3.55c-0.67,1.72-0.91,2.31-1.34,3.49c-0.16,0.43-0.51,0.76-0.95,0.9c-0.48,0.16-1.15,0.46-1.72,0.97"/>
	<path class="st3" d="M35.73,15.39c0-1,0.7-1.82,1.55-1.82c0.85,0,1.52,0.82,1.52,1.82v11.29"/>
	<path class="st3" d="M16.94,14.84l0-1.92c0-1-0.69-1.82-1.54-1.82c-0.85,0-1.52,0.82-1.52,1.82l0,10.35"/>
	<path class="st3" d="M20,18.37l0-3.8c0-1-0.69-1.82-1.54-1.82c-0.85,0-1.53,0.82-1.53,1.82l0,8.71"/>
	<path class="st3" d="M22.79,21.89c0-2.13,0-3.94,0-3.94c0-0.91-0.63-1.65-1.39-1.65c-0.77,0-1.39,0.74-1.39,1.65l0,5.11"/>
	<path class="st3" d="M12.88,39.17c0-3.18-1.87-4.8-3.05-6.71c-2.48-4.01-2.21-4.72-3.02-7.16c-0.72-2.15-1.69-4.39-0.47-4.97
		c0.89-0.42,2.37,0.94,3.4,3.55c0.67,1.72,0.91,2.31,1.34,3.49c0.16,0.43,0.51,0.76,0.95,0.9c0.47,0.16,1.12,0.45,1.68,0.93"/>
	<path class="st3" d="M13.88,15.39c0-1-0.7-1.82-1.55-1.82c-0.85,0-1.52,0.82-1.52,1.82v11.29"/>
	<polyline class="st3" points="21.36,33.43 24.16,36.23 28.74,31.65 	"/>
	<path class="st4" d="M23.97,24.41c-1.21,0.82-3.57,2.23-5.87,2.65c-0.68,0.12-1.22,0.83-1.22,1.51l0,7.1
		c0,1.77,0.72,3.36,1.93,4.25c0.97,0.71,3.95,2.7,5.31,3.6c0.42,0.28,0.96,0.28,1.38,0c1.36-0.9,4.34-2.89,5.31-3.6
		c1.21-0.9,1.93-2.48,1.93-4.25l0-7.1c0-0.69-0.54-1.39-1.22-1.51c-2.3-0.41-4.66-1.83-5.87-2.65
		C25.13,24.07,24.48,24.07,23.97,24.41z"/>
</g>
</svg>
