<?xml version="1.0" encoding="utf-8"?>
<!-- Generator: Adobe Illustrator 27.5.0, SVG Export Plug-In . SVG Version: 6.00 Build 0)  -->
<svg version="1.1" id="Camada_3" xmlns="http://www.w3.org/2000/svg" xmlns:xlink="http://www.w3.org/1999/xlink" x="0px" y="0px"
	 viewBox="0 0 50 50" style="enable-background:new 0 0 50 50;" xml:space="preserve">
<style type="text/css">
	.st0{fill:#00DFFC;}
	.st1{fill:#00C8E2;}
	.st2{fill:none;stroke:#444444;stroke-miterlimit:10;}
	.st3{fill:none;stroke:#444444;stroke-linecap:round;stroke-linejoin:round;stroke-miterlimit:10;}
	.st4{fill:none;stroke:#444444;stroke-width:2.5;stroke-linecap:round;stroke-linejoin:round;stroke-miterlimit:10;}
	.st5{fill:none;stroke:#444444;stroke-width:0.75;stroke-linecap:round;stroke-linejoin:round;stroke-miterlimit:10;}
	.st6{fill:none;stroke:#444444;stroke-width:0.5;stroke-linecap:round;stroke-linejoin:round;stroke-miterlimit:10;}
	.st7{fill:#444444;}
</style>
<g>
	<g>
		<path class="st0" d="M383.99,860.19l1.07,7.41c0,0-0.57,2.57-0.57,3.67l-0.79,3.73l28.72-9.91l-9.72-0.32
			c0-0.35-0.59-5.24-2.47-8.09c-1.72-2.6-3.82-4.16-10.88-2.83C387.03,854.29,384.31,860.19,383.99,860.19z"/>
		<path class="st1" d="M380.3,879.1l-0.55,2.21l4.37,17.65l37.42-13.31l-3.74-3.72l-0.21-7.7l-6.32,0.19
			c-1.65-0.89,5.78-9.25,3.73-10.21l-31.31,10.81C383.64,877.47,380.38,878.36,380.3,879.1z"/>
	</g>
	<path class="st2" d="M387,899.22c-1.06,0-1.99-0.79-2.27-1.81l-4.35-16.18c-0.4-1.48,0.72-2.94,2.26-2.94h15.84
		c0.73,0,1.42,0.34,1.86,0.93l1.95,2.58c0.44,0.58,1.13,0.93,1.86,0.93h13.72c1.54,0,2.84,1.06,2.43,3.02"/>
	<line class="st3" x1="402.87" y1="886.99" x2="416.53" y2="886.93"/>
	<line class="st3" x1="402.91" y1="891.21" x2="415.45" y2="891.15"/>
	<line class="st3" x1="402.95" y1="895.47" x2="414.34" y2="895.41"/>
	<path class="st4" d="M418.43,895c0.95-3.58,2.5-9.09,2.5-9.09s0.99-3.72-3.14-3.98l0.05-7.58l-7-0.13l4.36-7.1
		c0.82-1.26,0.37-1.8-0.47-1.91L403,865.05l0.16-2.51c0-5.25-4.73-9.5-9.97-9.5s-9.5,4.25-9.5,9.5c0,2.3,0.27,3.77,1.62,5.41
		l-0.15,0.77c-0.45,2.58-1.52,8.75-1.52,8.75l-1.14,0c-0.68,0-1.34,0.22-1.87,0.66c-0.77,0.63-1.57,1.77-1.09,3.59l4.63,16.37
		c0,0,0.25,1.99,3.65,1.83c2.56-0.12,16.92-0.08,23.61-0.06"/>
	<line class="st5" x1="402.43" y1="864.04" x2="401.97" y2="866.12"/>
	<line class="st3" x1="404.88" y1="874.98" x2="417.72" y2="874.98"/>
	<path class="st6" d="M408.05,872.88h-7.77c-0.24,0-0.39-0.27-0.26-0.48l2.74-4.3c0.13-0.2,0.35-0.32,0.58-0.32h7.72
		c0.25,0,0.4,0.28,0.27,0.49l-2.75,4.31C408.47,872.77,408.27,872.88,408.05,872.88z"/>
	<path class="st6" d="M404.21,877.72c0,0,0.1-0.74,0.67-1.08c0.17-0.1,0.38-0.16,0.64-0.16c1.15,0,1.21,1.21,1.21,1.21
		L404.21,877.72"/>
	<path class="st6" d="M408.4,877.72c0,0,0-1.24-2.87-1.24"/>
	<line class="st6" x1="408.4" y1="877.72" x2="404.21" y2="877.72"/>
	<circle class="st7" cx="407.12" cy="866.93" r="0.41"/>
	<line class="st3" x1="385.47" y1="866.98" x2="386.54" y2="868.04"/>
	<g>
		<path class="st3" d="M392.61,865.81c-2.16,0-3.65-1.75-3.65-3.91v-1.3c0-2.16,1.49-3.91,3.65-3.91c2.16,0,3.65,1.75,3.65,3.91v1.3
			C396.26,864.06,394.76,865.81,392.61,865.81z"/>
		<path class="st3" d="M384.81,877.72c0,0,0.6-5.07,0.91-7.3c0.31-2.22,1.64-3.65,3.65-3.65l0,0c1.16,0,2.26,0.5,3.02,1.37
			l5.17,5.92h2.83c2.25,0,2.52,3.4,0.28,3.63c-0.12,0.01-0.24,0.02-0.37,0.02c-1.83,0-5.46,0-5.46,0l-4.56-5.47"/>
		<polyline class="st3" points="398.5,871.33 402.15,865.86 414.92,865.86 409.45,874.98 404.88,874.98 		"/>
		<line class="st3" x1="394.85" y1="877.72" x2="416.75" y2="877.72"/>
	</g>
</g>
<g>
	<g>
		<path class="st0" d="M8.52,8.72l1.07,7.41c0,0-0.57,2.57-0.57,3.67l-0.79,3.73l28.72-9.91l-9.72-0.32c0-0.35-0.59-5.24-2.47-8.09
			c-1.72-2.6-3.82-4.16-10.88-2.83C11.57,2.81,8.84,8.72,8.52,8.72z"/>
		<path class="st1" d="M4.84,27.62l-0.55,2.21l4.37,17.65l37.42-13.31l-3.74-3.72l-0.21-7.7l-6.32,0.19
			c-1.65-0.89,5.78-9.25,3.73-10.21L8.23,23.53C8.17,25.99,4.92,26.88,4.84,27.62z"/>
	</g>
	<path class="st2" d="M11.54,47.75c-1.06,0-1.99-0.79-2.27-1.81L4.92,29.76c-0.4-1.48,0.72-2.94,2.26-2.94h15.84
		c0.73,0,1.42,0.34,1.86,0.93l1.95,2.58c0.44,0.58,1.13,0.93,1.86,0.93h13.72c1.54,0,2.84,1.06,2.43,3.02"/>
	<line class="st3" x1="27.41" y1="35.51" x2="41.07" y2="35.45"/>
	<line class="st3" x1="27.45" y1="39.73" x2="39.99" y2="39.68"/>
	<line class="st3" x1="27.48" y1="43.99" x2="38.88" y2="43.93"/>
	<path class="st4" d="M42.97,43.52c0.95-3.58,2.5-9.09,2.5-9.09s0.99-3.72-3.14-3.98l0.05-7.58l-7-0.13l4.36-7.1
		c0.82-1.26,0.37-1.8-0.47-1.91l-11.75-0.16l0.16-2.51c0-5.25-4.73-9.5-9.97-9.5s-9.5,4.25-9.5,9.5c0,2.3,0.27,3.77,1.62,5.41
		L9.7,17.24c-0.45,2.58-1.52,8.75-1.52,8.75l-1.14,0c-0.68,0-1.34,0.22-1.87,0.66c-0.77,0.63-1.57,1.77-1.09,3.59L8.71,46.6
		c0,0,0.25,1.99,3.65,1.83c2.56-0.12,16.92-0.08,23.61-0.06"/>
	<line class="st5" x1="26.97" y1="12.56" x2="26.51" y2="14.65"/>
	<line class="st3" x1="29.42" y1="23.5" x2="42.25" y2="23.5"/>
	<path class="st6" d="M32.59,21.4h-7.77c-0.24,0-0.39-0.27-0.26-0.48l2.74-4.3c0.13-0.2,0.35-0.32,0.58-0.32h7.72
		c0.25,0,0.4,0.28,0.27,0.49l-2.75,4.31C33.01,21.29,32.8,21.4,32.59,21.4z"/>
	<path class="st6" d="M28.75,26.24c0,0,0.1-0.74,0.67-1.08c0.17-0.1,0.38-0.16,0.64-0.16c1.15,0,1.21,1.21,1.21,1.21L28.75,26.24"/>
	<path class="st6" d="M32.93,26.24c0,0,0-1.24-2.87-1.24"/>
	<line class="st6" x1="32.93" y1="26.24" x2="28.75" y2="26.24"/>
	<circle class="st7" cx="31.66" cy="15.46" r="0.41"/>
	<line class="st3" x1="10.01" y1="15.5" x2="11.07" y2="16.56"/>
	<g>
		<path class="st3" d="M17.14,14.33c-2.16,0-3.65-1.75-3.65-3.91v-1.3c0-2.16,1.49-3.91,3.65-3.91c2.16,0,3.65,1.75,3.65,3.91v1.3
			C20.79,12.58,19.3,14.33,17.14,14.33z"/>
		<path class="st3" d="M9.35,26.24c0,0,0.6-5.07,0.91-7.3c0.31-2.22,1.64-3.65,3.65-3.65h0c1.16,0,2.26,0.5,3.02,1.37l5.17,5.92
			h2.83c2.25,0,2.52,3.4,0.28,3.63c-0.12,0.01-0.24,0.02-0.37,0.02c-1.83,0-5.46,0-5.46,0l-4.56-5.47"/>
		<polyline class="st3" points="23.04,19.86 26.68,14.38 39.46,14.38 33.98,23.5 29.42,23.5 		"/>
		<line class="st3" x1="19.39" y1="26.24" x2="41.28" y2="26.24"/>
	</g>
</g>
</svg>
