<svg xmlns="http://www.w3.org/2000/svg" id="Camada_1" data-name="Camada 1" version="1.1" viewBox="0 0 50 50"><defs><style>.cls-4,.cls-6{fill:none}.cls-6{stroke:#444;stroke-linecap:round;stroke-linejoin:round}.cls-4{stroke-miterlimit:10;stroke:#444}.cls-6{stroke-width:2.5px}</style></defs><path fill="#d1bd00" stroke-width="0" d="M27 20.8l7.8 2.5-6.7 4.7.1 8.2-6.5-4.9-7.8 2.7 2.6-7.8-4.9-6.6 8.2.1 4.8-6.7 2.4 7.8z"/><path fill="#f9f941" stroke-width="0" d="M48.1 19.9c-.2-.8-2.7-7.5-3.2-8.1l-3-3.5h-.2l-7.6-5.7-7.8-.7c-3.2 0-14.5.3-21.4 10.2L1 22.7H.8l4 13.5c.1.4 4.5 5.7 4.9 5.9l5.6 3 32.2-11.7c.7-.4 1.7-8.6.8-13.4z"/><path d="M32.4 47.2c-7 2.3-15 1.2-21.3-3.6C.8 35.8-1.3 21.1 6.5 10.8" class="cls-6"/><path d="M6.3 11c2-3 4.7-4.7 4.7-4.7l.7-.5C19.8 0 31-.1 39.3 6.1c10.4 7.8 12.4 22.5 4.7 32.8" class="cls-6"/><path d="M28 35.4h11c.6 0 1.2-.5 1.2-1.2V11.5c0-.5-.4-.9-.9-.9H19.8c-.5 0-.9.4-.9.9v12.6" class="cls-4"/><path fill="none" stroke="#444" stroke-linecap="round" stroke-linejoin="round" stroke-width=".5" d="M23.1 26.2h13.5m-11 3.1h11M27 32.2h9.6"/><path fill="none" stroke="#444" stroke-miterlimit="10" stroke-width=".5" d="M23.7 21.6l2.5-2.6m2.1-.3l2.9 1.3m1.5-.3l3.2-3.1"/><circle cx="23.1" cy="22.5" r="1.5" class="cls-4"/><circle cx="27.2" cy="18.3" r="1.5" class="cls-4"/><circle cx="32.1" cy="20.7" r="1.5" class="cls-4"/><circle cx="36.6" cy="15.7" r="1.5" class="cls-4"/><path fill="none" stroke="#444" stroke-linecap="round" stroke-linejoin="round" d="M11.9 27.2c2.4 6.4 12.4 14.4 12.8 14.6 0 0 0 0 0 0h0c1.3 1.1 3.7 2 6.2 1.9 0 0 0 0 0 0 .6 0 1.1-.6 1-1.3 0-.6-.6-1.1-1.3-1 0 0-2.1 0-3.8-1 0 0 0 0 0 0 1.2-3.1 3.1-12-10-17.3s-1.4-.5-2.1-.7c-1.1-.3-3.8-1.5-5.4-3.7s-1.5-.3-1.5.5c-.3 7.7.8 25.2 16.9 22.7-.2-.1.2.1 0 0"/></svg>