<svg xmlns="http://www.w3.org/2000/svg" id="Layer_1" x="0" y="0" version="1.1" viewBox="0 0 50 50" xml:space="preserve"><style>.st0{fill:#afe55d}.st2{fill:#444}</style><path d="M28 38.2l-17.1 6.3-1-2.9z" class="st0"/><path d="M48.5 11.5l-.1 12.7v6.5l-26.2 9.6H12l-.1 3.7L2 47.6l-.4-15.1v-4z" class="st0"/><path fill="#c3ff68" d="M48.4 8.8l-.6 3.2L1.5 28.8l.1-6.5v-2.9L49 2.1z"/><path d="M33.4 39.6v.2c0 .4-.3.8-.8.8-.4 0-.8-.3-.8-.8V33c-.1-1.7-1.7-3.5-4-3.5h-5.3c-2.3.1-4 1.5-4 3.6v8.1c0 .3-.2.3-.5.4h-.8c-.3-.1-.3-.1-.3-.5V33c0-2.9 2.2-5 5.4-5.1h5.4c3.4 0 5.5 2.6 5.6 5l.1 6.7zM12.6 29.3c-2.5 0-4.5-2-4.5-4.5s2-4.5 4.5-4.5 4.5 2 4.5 4.5-2 4.5-4.5 4.5zm0-7.4c-1.6 0-3 1.3-3 2.9s1.3 2.9 3 2.9c1.6 0 3-1.3 3-2.9s-1.4-2.9-3-2.9z" class="st2"/><path d="M21.6 36.6l-3 .1h-.2c-.3 0-1.1-.1-1.2-.5 0-.1-.1-.2-.1-.4-.1-.3-.2-.6-.3-1-.4-1.3-.8-2.8-1.5-3.8s-1.9-1.6-3.2-1.7c-3.5-.2-5.7 1.7-6 5.2l-.2 9.8c0 .2.1.4.2.6.1.1.3.2.6.2H18c.3 0 .6-.2.7-.5.1-.1.1-.2.1-.3h-6.9V44l1.3-.5H7.4l.1-9c.1-1.5.8-3.9 4.4-3.7.8.1 1.6.5 2.1 1.1.5.7.9 2.1 1.2 3.2.2.6.3 1.1.5 1.5.2.6.8 1 1.3 1.2s1 .3 1.3.3h.2l3-.1c.5 0 1.5.1 1.6 1 0 .2 0 .3-.1.4 0 .6-.6.7-1 .8-.8 0-1.7.1-2.6.1h-3c-.4 0-.7-.1-.9-.1l-.6-.7-1.8-2.1c-.3-.3-.7-.4-1.1-.1-.3.3-.4.7-.1 1.1l.9 1.1.6.8.6.8.1.1c.1.1.1.2.3.3l1 1 1.5-.6-.2-.3H18l2-.7.2-.1 1.9-.4h2.3c.1-.2.2-.5.2-.8V39c-.1-1.5-1.3-2.4-3-2.4zm15.7-7.3c-2.5 0-4.5-2-4.5-4.5s2-4.5 4.5-4.5 4.5 2 4.5 4.5-2 4.5-4.5 4.5zm0-7.4c-1.6 0-3 1.3-3 2.9s1.3 2.9 3 2.9 3-1.3 3-2.9-1.4-2.9-3-2.9zm6.6 12.6c-.3-3.4-2.5-5.3-6-5.1-1.2.1-2.4.7-3.2 1.7-.7.9-1.1 2.4-1.5 3.7-.1.5-.3 1-.4 1.3-.1.4-.9.5-1.2.5l-3.2-.1c-1.7 0-3 .9-3.1 2.4-.1.4 0 .9.2 1.3h10.9l1.6-1.9c.3-.3.2-.8-.1-1.1s-.8-.2-1.1.1l-2.3 2.5c-.7.2-3.9.2-6.5 0-1.3-.2-1.2-.6-1.2-.8.1-.9 1.2-1 1.6-1l3.2.1c.7 0 2.2-.3 2.6-1.5.2-.4.3-.9.5-1.5.3-1.1.7-2.5 1.3-3.2.5-.6 1.3-1 2.1-1.1 3.5-.3 4.3 2.2 4.4 3.7l.3 9H38l.1.8h-6.8c0 .1 0 .2.1.3.1.3.4.5.7.5h11.4c.2 0 .4-.1.6-.2.1-.2.2-.3.2-.6l-.4-9.8z" class="st2"/><path d="M22.2 40.3l-2.1.8H20l-1.9.7h-.2l-.8.3-1.5.6-2.4.8v.1l-1.3.4v-.5l.1-3.2h7.4z" class="st0"/><path d="M38.4 40.3c0-.4-.4-.7-.8-.7H12c-.4 0-.8.3-.8.7l-.1 3.3v.7c0 .2.1.4.2.6.1.1.3.2.5.2H38c.2 0 .4-.1.6-.3.1-.2.2-.4.2-.6l-.4-3.9zm-25.7 3.3l.1-2.5h24.1l.2 2.5H12.7zm12.5-15.4c-2.4 0-4.3-1.9-4.3-4.3s1.9-4.3 4.3-4.3 4.3 1.9 4.3 4.3-1.9 4.3-4.3 4.3zm0-7.1c-1.5 0-2.8 1.3-2.8 2.8s1.2 2.8 2.8 2.8c1.5 0 2.8-1.3 2.8-2.8 0-1.6-1.3-2.8-2.8-2.8zm-4 16.9c-.4 0-.8-.3-.8-.8v-2.9c0-.4.3-.8.8-.8.4 0 .8.3.8.8v2.9c-.1.4-.4.8-.8.8zm8.4 0c-.4 0-.8-.3-.8-.8v-2.9c0-.4.3-.8.8-.8s.8.3.8.8v2.9c-.1.4-.4.8-.8.8z" class="st2"/><path d="M48.4 49.5H1.6c-.7 0-1.3-.6-1.3-1.3V1.8C.3 1.1.9.5 1.6.5h20.7c.7 0 1.3.6 1.3 1.3s-.6 1.3-1.3 1.3H2.9v43.8h44.2V2.5c0-.7.6-1.3 1.3-1.3s1.3.6 1.3 1.3v45.7c0 .7-.6 1.3-1.3 1.3z" class="st2"/><path d="M34.2.9c-1 0-1.9.8-1.9 1.9 0 .3.1.5.2.8l-7.8 8.8c-.2-.1-.5-.1-.7-.1-.7 0-1.3.4-1.7 1l-5.8-2.2c-.2-.9-.9-1.5-1.8-1.5-1 0-1.9.8-1.9 1.9v.3l-4.6 3.1c-.3-.1-.5-.2-.9-.2-1 0-1.9.8-1.9 1.9s.8 1.9 1.9 1.9 1.9-.8 1.9-1.9c0-.2 0-.3-.1-.5l4.4-3c.3.2.7.3 1 .3.6 0 1.2-.3 1.5-.8l6.1 2.3c.3.7 1 1.2 1.7 1.2 1 0 1.9-.8 1.9-1.9 0-.2 0-.4-.1-.6l7.9-8.9c.2.1.4.1.6.1 1 0 1.9-.8 1.9-1.9s-.8-2-1.8-2z" class="st2"/></svg>