<?xml version="1.0" encoding="UTF-8"?>
<svg id="Camada_2" data-name="Camada 2" xmlns="http://www.w3.org/2000/svg" version="1.1" viewBox="0 0 44.6 47.8">
  <defs>
    <style>
      .cls-1 {
        fill: #04ad49;
      }

      .cls-1, .cls-2, .cls-3 {
        stroke-width: 0px;
      }

      .cls-2 {
        fill: #22dd6d;
      }

      .cls-3 {
        fill: #444;
      }

      .cls-4 {
        stroke-miterlimit: 10;
      }

      .cls-4, .cls-5 {
        fill: none;
        stroke: #444;
      }

      .cls-5 {
        stroke-linecap: round;
        stroke-linejoin: round;
        stroke-width: 2.5px;
      }
    </style>
  </defs>
  <polygon class="cls-1" points="26.4 17.1 33.6 19.4 27.4 23.7 27.5 31.3 21.5 26.8 14.3 29.2 16.7 22 12.2 16 19.8 16.1 24.1 9.9 26.4 17.1"/>
  <g>
    <g>
      <path class="cls-2" d="M42.8,26.2l-.9-.3h.6s0-14.9,0-14.9c-2.1.4-20.2-7-20.2-7C20.6,6.2,1.9,10.7,1.9,10.7l-.2,15.6,4.1.9,2.6,5.4c.1.3-3.1,3.3-2.8,3.5l3.7,4.1c1.2.6,3.7-3.8,5.7-1.3l22-7.6c.7-2.7-.4-3.2,1.7-4,2.8-1,4.5.6,4.2-1.1Z"/>
      <path class="cls-5" d="M36.2,31.6c.6-1.1,1.1-2.2,1.4-3.4s.6-.9,1.1-.9l2.7-.2c.6,0,1.1-.6,1.1-1.2v-1.9c0-.2,0-.4,0-.6l.6-12.7c-7.5-.4-14.9-2.8-20.4-7.2-5.9,4.4-13.6,6.8-21.6,7.2l.6,13h0v2.2c0,.6.5,1.2,1.1,1.2l2.7.2c.5,0,.9.4,1.1.9.3,1.2.8,2.3,1.4,3.3s.2,1-.1,1.4l-1.6,1.9c-.6.7-.6,1.4-.1,1.9l2.9,2.9c.5.5,1.2.5,1.7,0l2.1-1.8c.4-.3,1-.4,1.4-.1,1,.6,2.2,1,3.3,1.4s.9.6.9,1.1l.2,2.5c0,.9.6,1.4,1.3,1.4h4.1c.6,0,1.2-.5,1.2-1.1l.2-2.7c0-.5.4-.9.9-1.1,1.2-.3,2.3-.8,3.4-1.4"/>
      <circle class="cls-4" cx="22" cy="23.6" r="9.1"/>
    </g>
    <path class="cls-3" d="M25.8,20.6l-4.8,4.8-2.5-2.5c-.3-.3-.7-.3-.9,0-.3.3-.3.7,0,.9l3,3c.1.1.3.2.5.2s.3,0,.5-.2l5.3-5.3c.3-.3.3-.7,0-.9-.3-.3-.7-.3-.9,0Z"/>
  </g>
</svg>