<svg xmlns="http://www.w3.org/2000/svg" data-name="Camada 1" viewBox="0 0 50 50"><path fill="#04ad49" d="M26.5 23.5l7.7 1-5.5 5.5c.6 3.1-2.7 5.6-5.5 4.1s-6.8 3.7-6.8 3.7l1.2-7.7-5.6-5.3 7.7-1.2 2.9-4.1 3.9 4z"/><path fill="#22dd6d" d="M47.6 28L17.2 38.8l-13.7-.3c-.9 0-1.9-3.7-1.4-4.4l5.5-4-2.5-.4c-3 0-4.1-1.8-3.1-4.6l11.2-6.7c0-1.3 15.2.1 26.4-1l7.6.6c1.3 0 3.6 2.2-5.1 8.6l5.5 1.4z"/><path fill="none" stroke="#444" stroke-linecap="round" stroke-linejoin="round" d="M19.2 32.2L13 27.5l6.2-4m11.5 8.9l6.2-4.7-6.2-4m-8.8 12.5l6.3-16.3"/><path fill="none" stroke="#444" stroke-linecap="round" stroke-linejoin="round" stroke-width=".5" d="M23.8 27h-7.2M29 20.7h16.9l-9.3 5.2m-25 1.1H4l11.2-6.3h11.5M21 35.4H4l9.6-5.4m23.7-.9h8.6l-11.2 6.3H23.5m-6.3-6.3h6M33.3 27h-6.8m-.8 2.1h7"/><path fill="none" stroke="#444" stroke-linecap="round" stroke-linejoin="round" stroke-width="2.5" d="M28.6 38.4H4.5c-2.9 0-3.9-3.8-1.4-5.2l5.8-3.4H4.2c-2.8 0-3.9-3.7-1.5-5.2l7.5-4.8c2.2-1.4 4.8-2.2 7.5-2.2h28.2c2.7 0 3.7 3.5 1.4 5l-6.7 4.2h5.5c2.2 0 2.9 2.8 1.1 4l-7.6 4.6"/></svg>