<?xml version="1.0" encoding="UTF-8"?>
<svg id="Camada_1" data-name="Camada 1" xmlns="http://www.w3.org/2000/svg" version="1.1" viewBox="0 0 50 50">
  <defs>
    <style>
      .cls-1 {
        fill: #f9f941;
      }

      .cls-1, .cls-2 {
        stroke-width: 0px;
      }

      .cls-2 {
        fill: #d1bd00;
      }

      .cls-3, .cls-4, .cls-5, .cls-6, .cls-7 {
        fill: none;
      }

      .cls-3, .cls-6 {
        stroke: #444;
      }

      .cls-3, .cls-6, .cls-7 {
        stroke-linecap: round;
        stroke-linejoin: round;
      }

      .cls-4, .cls-5 {
        stroke-miterlimit: 10;
      }

      .cls-4, .cls-5, .cls-7 {
        stroke: #444;
      }

      .cls-5, .cls-7 {
        stroke-width: .5px;
      }

      .cls-6 {
        stroke-width: 2.5px;
      }
    </style>
  </defs>
  <polygon class="cls-2" points="27 20.8 34.8 23.3 28.1 28 28.2 36.2 21.7 31.3 13.9 34 16.5 26.2 11.6 19.6 19.8 19.7 24.6 13 27 20.8"/>
  <g>
    <g>
      <path class="cls-1" d="M48.1,19.9c-.2-.8-2.7-7.5-3.2-8.1l-3-3.5h-.2c0,0-7.6-5.7-7.6-5.7l-7.8-.7c-3.2,0-14.5.3-21.4,10.2L1,22.7h-.2c0,0,4,13.5,4,13.5.1.4,4.5,5.7,4.9,5.9l5.6,3,32.2-11.7c.7-.4,1.7-8.6.8-13.4Z"/>
      <g>
        <path class="cls-6" d="M32.4,47.2c-7,2.3-15,1.2-21.3-3.6C.8,35.8-1.3,21.1,6.5,10.8"/>
        <path class="cls-6" d="M6.3,11c2-3,4.7-4.7,4.7-4.7l.7-.5C19.8,0,31-.1,39.3,6.1c10.4,7.8,12.4,22.5,4.7,32.8"/>
      </g>
    </g>
    <g>
      <path class="cls-4" d="M28,35.4h11c.6,0,1.2-.5,1.2-1.2V11.5c0-.5-.4-.9-.9-.9h-19.5c-.5,0-.9.4-.9.9v12.6"/>
      <line class="cls-7" x1="23.1" y1="26.2" x2="36.6" y2="26.2"/>
      <line class="cls-7" x1="25.6" y1="29.3" x2="36.6" y2="29.3"/>
      <line class="cls-7" x1="27" y1="32.2" x2="36.6" y2="32.2"/>
      <g>
        <line class="cls-5" x1="23.7" y1="21.6" x2="26.2" y2="19"/>
        <line class="cls-5" x1="28.3" y1="18.7" x2="31.2" y2="20"/>
        <line class="cls-5" x1="32.7" y1="19.7" x2="35.9" y2="16.6"/>
        <circle class="cls-4" cx="23.1" cy="22.5" r="1.5"/>
        <circle class="cls-4" cx="27.2" cy="18.3" r="1.5"/>
        <circle class="cls-4" cx="32.1" cy="20.7" r="1.5"/>
        <circle class="cls-4" cx="36.6" cy="15.7" r="1.5"/>
      </g>
    </g>
    <path class="cls-3" d="M11.9,27.2c2.4,6.4,12.4,14.4,12.8,14.6,0,0,0,0,0,0h0c1.3,1.1,3.7,2,6.2,1.9,0,0,0,0,0,0,.6,0,1.1-.6,1-1.3,0-.6-.6-1.1-1.3-1,0,0-2.1,0-3.8-1,0,0,0,0,0,0,1.2-3.1,3.1-12-10-17.3s-1.4-.5-2.1-.7c-1.1-.3-3.8-1.5-5.4-3.7s-1.5-.3-1.5.5c-.3,7.7.8,25.2,16.9,22.7-.2-.1.2.1,0,0"/>
  </g>
</svg>