<?xml version="1.0" encoding="utf-8"?>
<!-- Generator: Adobe Illustrator 27.3.1, SVG Export Plug-In . SVG Version: 6.00 Build 0)  -->
<svg version="1.1" id="Camada_3" xmlns="http://www.w3.org/2000/svg" xmlns:xlink="http://www.w3.org/1999/xlink" x="0px" y="0px"
	 viewBox="0 0 50 50" style="enable-background:new 0 0 50 50;" xml:space="preserve">
<style type="text/css">
	.st0{fill:#F799FF;}
	.st1{fill:#E589EF;}
	.st2{fill:none;stroke:#444444;stroke-width:2.5;stroke-linecap:round;stroke-linejoin:round;stroke-miterlimit:10;}
	.st3{fill:#444444;stroke:#444444;stroke-linecap:round;stroke-miterlimit:10;}
	.st4{fill:none;stroke:#444444;stroke-linecap:round;stroke-linejoin:round;stroke-miterlimit:22.9256;}
	.st5{fill:none;stroke:#444444;stroke-width:0.5;stroke-linecap:round;stroke-linejoin:round;stroke-miterlimit:22.9256;}
	.st6{fill:#444444;}
</style>
<g>
	<g>
		<path class="st0" d="M45.81,2.74H4.09c-1.12,0-2.03,0.91-2.03,2.03v16.47L47.84,4.94V4.77C47.84,3.65,46.93,2.74,45.81,2.74z"/>
		<polygon class="st1" points="2.06,21.23 2.06,45.93 47.84,29.64 47.84,4.94 		"/>
	</g>
	<g>
		<g>
			<g>
				<path class="st2" d="M25.01,48.14H5.54c-1.87,0-3.39-1.58-3.39-3.54V5.69c0-1.95,1.52-3.54,3.39-3.54h39.01
					c1.87,0,3.39,1.58,3.39,3.54v25.89"/>
				<path class="st2" d="M2.15,15.69"/>
				<path class="st2" d="M47.93,15.69"/>
			</g>
		</g>
	</g>
	<g>
		<path class="st3" d="M15.11,8.64v2.86 M6.19,10.03l0.98,2.69 M15.11,41.78v-2.86 M6.19,40.39l0.98-2.69"/>
		<path class="st4" d="M18.1,10.56c0.8-0.38,1.63-0.68,2.5-0.92l0.38-4.13c2.47-0.48,5.02-0.48,7.5,0l0.38,4.13
			c1.27,0.35,2.48,0.85,3.6,1.49l3.19-2.65c0.98,0.66,1.92,1.42,2.8,2.29c0.95,0.94,1.79,1.95,2.51,3.01l-2.66,3.19
			c0.64,1.12,1.14,2.33,1.49,3.6l4.13,0.38c0.48,2.47,0.48,5.02,0,7.5l-4.13,0.38c-0.35,1.27-0.85,2.48-1.49,3.6l2.66,3.19
			c-1.35,2-3.13,3.65-5.13,5.04l-3.23-2.6c-1.11,0.66-2.31,1.18-3.57,1.55l-0.31,4.14c-2.47,0.52-5.02,0.56-7.5,0.12l-0.44-4.12"/>
		<path class="st5" d="M33.56,24.55c0.02,0.49,0,0.98-0.06,1.46l1.99,1.05c-0.14,0.68-0.35,1.36-0.63,2.03
			c-0.26,0.61-0.57,1.19-0.93,1.73l-2.15-0.67c-0.43,0.55-0.93,1.06-1.49,1.49l0.67,2.15c-1.14,0.76-2.42,1.28-3.76,1.56l-1.05-1.99
			c-0.71,0.09-1.42,0.09-2.11,0L23,35.35"/>
		<path class="st5" d="M33.57,25.31c0.02-0.49,0-0.98-0.06-1.46l1.99-1.05c-0.14-0.68-0.35-1.36-0.63-2.03
			c-0.26-0.61-0.57-1.19-0.93-1.73l-2.15,0.67c-0.43-0.55-0.93-1.06-1.49-1.49l0.67-2.15c-1.14-0.76-2.42-1.28-3.76-1.56l-1.05,1.99
			c-0.71-0.09-1.42-0.09-2.11,0l-1.05-1.99c-0.68,0.14-1.36,0.35-2.03,0.63"/>
		<path class="st5" d="M17.77,16.39c2.07,1.47,3.42,3.89,3.42,6.62c0,4.49-3.64,8.12-8.12,8.12s-8.12-3.64-8.12-8.12
			c0-2.66,1.28-5.02,3.25-6.5"/>
	</g>
	<path class="st4" d="M2.82,18.24c3.18-1.57,6.66-2.35,10.15-2.35c3.48,0,6.97,0.78,10.15,2.35c3.18,1.57,6.06,3.92,8.33,7.06l0,0
		c-2.21,3.05-5.07,5.34-8.26,6.87c-3.19,1.53-6.7,2.29-10.22,2.29s-7.03-0.76-10.22-2.29"/>
	<path class="st6" d="M17.45,21.83c-0.48,0.5-1.15,0.81-1.89,0.81c-1.45,0-2.62-1.18-2.62-2.62c0-0.57,0.18-1.09,0.49-1.52
		c-0.13-0.01-0.27-0.03-0.4-0.03c-2.53,0-4.59,2.05-4.59,4.59s2.05,4.59,4.59,4.59s4.59-2.05,4.59-4.59c0-0.41-0.05-0.82-0.16-1.2
		C17.46,21.84,17.46,21.84,17.45,21.83z"/>
</g>
</svg>
