<svg xmlns="http://www.w3.org/2000/svg" viewBox="0 0 50 50"><path fill="#fcc34f" d="M42.9 28.3v-.2c-.3-1.4-.6-2.8-1.4-4.1-.7-1.2-1.6-2.3-2.6-3.3-1.2-1.1-2.5-1.9-4.1-2.3-.8-.2-1.5-.5-2.3-.4-.2 0-.5.1-.7.1-.5-.1-1.1-.1-1.6 0-1 .1-2 .4-3 .9-1.1.6-2 1.3-2.8 2.2-1.2 1.4-1.9 3-2 4.7-.1 1.3-.1 2.5.4 3.7s1.2 2.2 2.3 3c1.6 1.2 3.4 1.6 5.4 1.2.6-.1 1.2-.5 1.7-.9.3-.3.4-.6.1-.9-.2-.2-.4-.1-.6 0-.5.2-1 .4-1.5.4-1.7.1-3.1-.5-4.1-1.9-1.1-1.5-1.2-3.2-.5-4.9.8-1.9 2.1-3.2 4.1-3.7 1-.3 2-.2 2.9 0 1.6.4 2.9 1.2 4 2.5.9 1.1 1.5 2.4 1.7 3.9.1 1.1 0 2.2-.3 3.2l5-1.8c-.1-.5-.2-.9-.1-1.4zm-20.4 8.8c-1.2-.7-2.3-1.5-3.2-2.6-1-1.2-1.8-2.4-2.4-3.9-.5-1.4-.9-2.9-.9-4.5 0-1.1.2-2.2.4-3.3.2-1.2.6-2.3 1.1-3.4.6-1.3 1.3-2.5 2.2-3.5l-9 3.1c0 .1.1.2 0 .4-.2.5-.3 1-.4 1.4-.3.9-.5 1.8-.6 2.7 0 .4 0 .7-.5.8-.1 0-.2.1-.2.2-1.2.7-2.1 1.6-3 2.6-.8 1-1.5 2.1-1.9 3.3-.1.3-.1.5.1.7 1 1.1 2.2 2.1 3.5 2.8 1.2.6 2.4 1.2 3.7 1.3.3 0 .6.1.7.5.1.2.2.3.3.5.6 1 1.3 1.9 2.1 2.8.1.1.1.1.1.3-.1.2-.1.5-.2.7l8.1-2.9zm23.3-14.5c0-.7-.1-1.4-.3-2.2-.4-2.1-1.2-4.1-2.4-5.9-.6-.9-1.3-1.8-2.1-2.6-.1-.1-.2-.2-.1-.3.2-.7.2-1.5.1-2.2-.1-.4-.2-.9-.3-1.3l-9.1 3.3c.9.1 1.7.3 2.6.5 1.2.3 2.4.9 3.4 1.5 1.1.7 2.1 1.4 3 2.3s1.7 1.9 2.4 3c.6 1 1.1 2 1.5 3.1.2.6.4 1.2.5 1.9.1.3.3.4.5.3.3-.1.3-.3.2-.5.1-.3.1-.6.1-.9z"/><path fill="#fdcf72" d="M40.2 8.1c-.1-.1-.1-.2-.2-.2-.5 0-1.1 0-1.6.1-1 .2-1.9.5-2.7 1-.1.1-.2.1-.3 0-.5-.3-1.1-.4-1.7-.6-.7-.2-1.4-.5-2.1-.5-.4 0-.6-.2-.7-.6 0-.2-.2-.4-.3-.6-.5-1.1-1.3-2-2.2-2.8-.5-.3-.9-.6-1.4-.9-.2-.1-.4-.1-.5 0-.8.6-1.6 1.3-2.2 2.1-.7.9-1.3 1.8-1.5 3 0 .1-.1.3-.3.3-.3.1-.7.2-1 .3-1.2.4-2.4 1-3.4 1.7-.3.2-.6.3-1 .1-.9-.4-1.8-.5-2.7-.6-1.1-.1-2.2 0-3.3.3-.8.3-1.6.5-2.3.8-.1.1-.3.1-.4.3 0 1.5 0 3 .4 4.4.4 1.5.9 2.9 1.8 4.2v.1l8.9-3.2 1.2-1.2c.7-.6 1.5-1.2 2.4-1.6 1.1-.6 2.2-1 3.4-1.2.6-.1 1.1-.3 1.7-.3 1.1-.1 2.2-.1 3.3 0l9.1-3.3c-.1-.4-.2-.8-.4-1.1z"/><path fill="#444" d="M34.7 49.3h-1.2l-.2-.1c-.2-.1-.4-.1-.6-.2-.4-.1-.8-.2-1.3-.4-1.4-.6-2.4-1.4-3.3-2.4-1.8 0-3.6-.2-5.3-.7-.2 0-.3-.1-.5-.2-.1.1-.3.2-.4.3-1.2.7-2.5 1.3-4.1 1.6-.6.1-1.2.2-1.8.2-.2 0-.5 0-.7.1-.8.1-1.5-.3-1.8-1.1-.4-1-.6-2.1-.7-2.9-.1-1.2 0-2.5.3-3.9-.7-.9-1.3-1.7-1.9-2.6l-.1-.1c-.1-.1-.1-.2-.2-.3-1.6-.3-3-.9-4-1.5-1.3-.7-2.5-1.7-3.8-3-.1-.4-.5-1.1-.1-2 .5-1.3 1.2-2.6 2.1-3.7.9-1.2 2.1-2.2 3.3-2.9l.1-.1c.1-1 .3-1.9.6-2.9l.1-.4c.1-.2.1-.5.2-.7-.8-1.2-1.3-2.5-1.8-4.3-.4-1.6-.4-3.2-.4-4.8 0-.3.1-1.1 1.1-1.4.8-.3 1.6-.6 2.3-.7 1.2-.3 2.5-.4 3.7-.3.8.1 1.9.2 3 .6 1-.7 2.2-1.3 3.6-1.8.2-.1.4-.1.6-.2.3-1 .9-2 1.7-3 .6-.8 1.4-1.5 2.5-2.3.6-.5 1.3-.6 1.9-.2.6.3 1.1.7 1.5 1.1 1.1 1 1.9 2 2.5 3.2l.1.1c.1.1.1.3.2.4.6 0 1.1.2 1.6.3l.6.2c.4.1.8.2 1.2.4.8-.5 1.8-.8 2.8-.9.5-.1 1.1-.1 1.8-.1.6 0 1 .3 1.3.8.5.9.8 1.8.9 2.8.1.8.1 1.5 0 2.1.6.7 1.3 1.5 1.9 2.5 1.3 2 2.1 4.1 2.6 6.3.2.8.3 1.6.3 2.3v.6c.1.5.1.9-.1 1.3s-.6.6-1 .8c-.9.2-1.7-.2-2-1.1-.1-.2-.1-.5-.2-.7-.1-.4-.2-.7-.3-1.1-.4-1.1-.9-2-1.4-2.9-.7-1.1-1.4-2-2.2-2.8-.8-.8-1.7-1.5-2.8-2.1-1-.6-2.1-1.1-3.2-1.4-.7-.2-1.5-.4-2.4-.5-1-.1-2.1-.1-3.1 0-.3 0-.7.1-1.1.2l-.4.1c-1.2.2-2.2.6-3.1 1.1-.8.4-1.5.9-2.2 1.5-1.2 1-2.2 2.4-3 4.3-.5 1.1-.8 2.1-1 3.1S17 25 17.1 26c0 1.3.3 2.7.8 4.1.4 1.1 1.1 2.2 2.2 3.5.7.9 1.6 1.6 2.9 2.3 1.1.6 2.3 1.1 3.6 1.3 1 .2 1.7.3 2.5.2 1.5-.2 2.7-.5 3.7-1.2.8-.5 1.5-1.1 2-1.7.7-.8 1.2-1.8 1.7-3.1.3-.9.4-2 .3-3.1-.1-1.1-.6-2.2-1.4-3.2-.9-1.1-2-1.8-3.3-2.1-.9-.2-1.6-.2-2.4 0-1.6.4-2.6 1.4-3.3 3-.6 1.4-.4 2.6.4 3.7s1.7 1.5 3 1.4c.3 0 .7-.1 1.1-.3 1-.5 1.7 0 2 .3.4.4.6.9.6 1.4 0 .5-.3 1-.8 1.4-.6.4-1.3.9-2.1 1.1-2.3.5-4.4 0-6.4-1.4-1.4-1-2.2-2.5-2.7-3.5-.7-1.5-.7-3-.5-4.4.2-1.9.9-3.8 2.3-5.4.9-1 2-1.9 3.2-2.5 1-.5 2.1-.9 3.3-1 .7-.1 1.4-.1 2 0h.4c1-.1 1.9.1 2.6.4l.2.1c1.6.5 3.2 1.4 4.5 2.6 1.1 1 2 2.2 2.9 3.6.8 1.4 1.2 2.9 1.5 4.4v3c1.1 1.1 1.9 2.5 2.3 4.4.2.9-.1 1.7-.9 2.2-.9.6-2.1 1.3-3.5 1.5-.6.2-1.3-.1-1.5-.8-.2-.6.1-1.3.8-1.5 0 0 .2-.1.4-.1.8-.1 1.6-.5 2.3-.9-.4-1.4-.9-2.4-1.8-3.1-.6-.5-.6-1-.5-1.4.1-.5.1-1.1.1-1.6v-1.1c-.3-1.3-.6-2.5-1.2-3.6-.7-1.2-1.5-2.2-2.4-3-1.1-1-2.3-1.7-3.6-2.1l-.2-.1c-.6-.2-1.1-.3-1.6-.3h-.1c-.2 0-.6.1-.9 0-.4-.1-.8-.1-1.3 0-.9.1-1.8.4-2.6.8-1 .5-1.8 1.1-2.4 1.9-1.1 1.3-1.6 2.6-1.8 4-.1 1.2-.1 2.2.3 3.1.1.2.2.4.3.5-.5-1.4-.5-3 .2-4.5.9-2.3 2.6-3.8 4.9-4.4 1.1-.3 2.3-.3 3.5 0 1.9.4 3.4 1.4 4.7 2.9 1.1 1.4 1.8 2.9 1.9 4.6.1 1.5 0 2.9-.4 4.1-.5 1.6-1.2 2.8-2.1 3.9-.7.8-1.6 1.6-2.6 2.2-1.4.8-2.9 1.3-4.7 1.5-1.1.1-2.2 0-3.2-.2-1.6-.3-3.1-.8-4.4-1.6-1.5-.9-2.6-1.8-3.5-2.9-1.2-1.5-2.1-2.9-2.6-4.2-.6-1.7-.9-3.3-1-4.9 0-1.3.2-2.5.4-3.6.2-1.2.6-2.5 1.2-3.7 1-2.2 2.2-3.9 3.7-5.1.8-.7 1.7-1.3 2.6-1.8 1.1-.6 2.4-1.1 3.8-1.4l.4-.1c.5-.1 1-.2 1.5-.2 1.1-.1 2.3-.1 3.5 0 1 .1 1.9.3 2.7.6 1.3.4 2.5.9 3.7 1.6 1.3.8 2.3 1.6 3.3 2.5l1.1 1.1c-.2-.3-.3-.5-.5-.8-.6-1-1.4-1.8-2-2.4-.5-.5-.5-1.1-.4-1.4.1-.5.1-1.1 0-1.7-.1-.5-.2-1-.4-1.5-.3 0-.5 0-.8.1-.8.1-1.6.4-2.3.8-.5.3-1.1.3-1.6.1-.4-.2-.8-.3-1.2-.4l-.7-.2c-.5-.2-1-.3-1.5-.3-1-.1-1.7-.7-1.8-1.7 0-.1-.1-.1-.1-.2-.4-.8-1-1.6-1.9-2.4-.2-.2-.4-.3-.6-.5-.7.5-1.2 1-1.6 1.6-.7.9-1.1 1.7-1.3 2.5-.2.8-.7 1.1-1.1 1.2l-.9.3c-1.3.5-2.3 1-3.1 1.6-.9.6-1.7.5-2.2.3-.6-.3-1.3-.4-2.4-.5-1-.1-2 0-3 .2-.5.1-1 .3-1.6.5 0 1.2 0 2.4.3 3.5.4 1.6.9 2.8 1.6 3.8.3.5.4 1 .2 1.5-.1.3-.2.6-.3 1l-.1.4c-.3.9-.4 1.7-.5 2.5 0 .4-.2 1.4-1.2 1.8-.1 0-.1.1-.1.1-1 .6-1.9 1.4-2.6 2.3-.7.8-1.2 1.7-1.6 2.7 1 1 1.9 1.8 2.9 2.3 1.3.7 2.3 1.1 3.3 1.2 1.1.1 1.5.8 1.7 1.3v.1c0 .1.1.1.1.2.6.9 1.2 1.8 2 2.7.4.4.5.9.3 1.4-.4 1.3-.5 2.4-.4 3.5l.3 1.8h.2c.5 0 1-.1 1.5-.2 1.2-.3 2.3-.7 3.3-1.3.1 0 .1-.1.2-.1.3-.2.6-.5 1.2-.6.5-.1 1 .1 1.3.2.1 0 .1.1.2.1 1.5.4 3.2.6 4.8.6.6 0 1.1.2 1.6.8.6.8 1.4 1.4 2.5 1.8.3.1.6.2 1 .3.1 0 .1 0 .2.1.4-.5.7-1 .9-1.4.5-1 .8-2 .8-3 0-.7.6-1.2 1.3-1.2s1.2.6 1.2 1.3c0 1.4-.4 2.8-1.1 4.1-.4.8-.9 1.5-1.7 2.4h-.3zm-6.2-3.1zM13.3 35.4zm30.7-4zm-2.4-3zM35.9 6.9zM32 6.2zm-4.8-3.1z"/></svg>