<svg xmlns="http://www.w3.org/2000/svg" id="Layer_1" x="0" y="0" version="1.1" viewBox="0 0 50 50" xml:space="preserve"><style>.st2{fill:#444}</style><path fill="#e56060" d="M6.3 37.6l5.7 3.2 34-18.3-.1-7.2c0-1.6-.9-3.1-2.3-3.9L27.3 2.2c-1.4-.8-3.2-.8-4.6 0L6.3 11.4c-1.4.8-2.3 2.3-2.3 3.9v18.4c0 1.6.9 3.1 2.3 3.9z"/><path fill="#ff6b6b" d="M33.2 6.9L26.8 3c-1.4-.8-3.1-.8-4.5 0L6.4 12.5c-1.4.8-2.2 2.3-2.2 4l-.3 7.9L33.2 6.9z"/><path d="M25 49.3c-1 0-2-.3-2.9-.8L5.7 39.3c-1.8-1-2.9-2.9-2.9-5V16c0-2 1.1-3.9 2.9-5L22 1.8c1.8-1 4.1-1 5.9 0L44.3 11c1.8 1 2.9 2.9 2.9 5v13.5c0 .7-.6 1.2-1.2 1.2s-1.2-.5-1.2-1.2V16c0-1.2-.6-2.3-1.7-2.9L26.7 3.9c-1-.6-2.3-.6-3.4 0L7 13.1c-1 .6-1.7 1.7-1.7 2.9v18.4c0 1.2.6 2.3 1.7 2.9l16.3 9.2c1 .6 2.3.6 3.4 0l4.5-2.5c.6-.3 1.4-.1 1.7.4.3.6.1 1.3-.5 1.7l-4.5 2.5c-.9.4-1.9.7-2.9.7z" class="st2"/><path d="M35.6 29v-7.1c.9-.3 1.6-1.1 1.6-2.1 0-1.2-1-2.3-2.3-2.3-.6 0-1.1.2-1.5.6l-6.2-3.6c.1-.2.1-.3.1-.4 0-1.2-1-2.3-2.3-2.3-1.3 0-2.3 1-2.3 2.3 0 .2 0 .3.1.4l-6.2 3.6c-.4-.3-.9-.6-1.5-.6-1.2 0-2.3 1-2.3 2.3 0 1 .7 1.8 1.6 2.1V29c-.9.3-1.6 1.1-1.6 2.1 0 1.2 1 2.3 2.3 2.3.6 0 1.1-.2 1.5-.6l6.2 3.6v.1c0 1.2 1 2.3 2.3 2.3 1.3 0 2.3-1 2.3-2.3v-.1l6.2-3.6c.4.3 1 .6 1.5.6 1.2 0 2.3-1 2.3-2.3-.2-1-.9-1.9-1.8-2.1zm-2.9-9.8c-.1.2-.1.3-.1.5 0 1 .7 1.8 1.6 2.1v7.1c-.3.1-.6.3-.9.5L25.5 16c.3-.1.6-.3.9-.5l6.3 3.7zM17.2 30.5c0-.1-.1-.2-.1-.3L25 16.6l7.8 13.6c-.1.1-.1.2-.1.3H17.2zm-1.5-8.6c.9-.3 1.6-1.1 1.6-2.1 0-.2 0-.3-.1-.5l6.2-3.6c.3.2.6.4.9.5l-7.8 13.3c-.2-.2-.6-.4-.9-.5l.1-7.1zm11 13.1c-.4-.5-1.1-.8-1.7-.8-.7 0-1.3.3-1.7.8l-6-3.5v-.2h15.4v.2l-6 3.5z" class="st2"/></svg>