<?xml version="1.0" encoding="utf-8"?>
<!-- Generator: Adobe Illustrator 24.0.0, SVG Export Plug-In . SVG Version: 6.00 Build 0)  -->
<svg version="1.1" id="Layer_1" xmlns="http://www.w3.org/2000/svg" xmlns:xlink="http://www.w3.org/1999/xlink" x="0px" y="0px"
	 viewBox="0 0 50 50" style="enable-background:new 0 0 50 50;" xml:space="preserve">
<style type="text/css">
	.st0{fill:#E56060;}
	.st1{fill:#FF6B6B;}
	.st2{fill:#444444;}
</style>
<g>
	<path class="st0" d="M6.3,37.6l5.7,3.2L46,22.5l-0.1-7.2c0-1.6-0.9-3.1-2.3-3.9L27.3,2.2c-1.4-0.8-3.2-0.8-4.6,0L6.3,11.4
		C4.9,12.2,4,13.7,4,15.3v18.4C4,35.3,4.9,36.8,6.3,37.6z"/>
</g>
<g>
	<path class="st1" d="M33.2,6.9l-6.4-3.9c-1.4-0.8-3.1-0.8-4.5,0L6.4,12.5c-1.4,0.8-2.2,2.3-2.2,4l-0.3,7.9L33.2,6.9z"/>
</g>
<g>
	<path class="st2" d="M25,49.3c-1,0-2-0.3-2.9-0.8L5.7,39.3c-1.8-1-2.9-2.9-2.9-5V16c0-2,1.1-3.9,2.9-5l16.3-9.2c1.8-1,4.1-1,5.9,0
		L44.3,11c1.8,1,2.9,2.9,2.9,5v13.5c0,0.7-0.6,1.2-1.2,1.2s-1.2-0.5-1.2-1.2V16c0-1.2-0.6-2.3-1.7-2.9L26.7,3.9
		c-1-0.6-2.3-0.6-3.4,0L7,13.1c-1,0.6-1.7,1.7-1.7,2.9v18.4c0,1.2,0.6,2.3,1.7,2.9l16.3,9.2c1,0.6,2.3,0.6,3.4,0l4.5-2.5
		c0.6-0.3,1.4-0.1,1.7,0.4c0.3,0.6,0.1,1.3-0.5,1.7l-4.5,2.5C27,49,26,49.3,25,49.3z"/>
</g>
<path class="st2" d="M35.6,29v-7.1c0.9-0.3,1.6-1.1,1.6-2.1c0-1.2-1-2.3-2.3-2.3c-0.6,0-1.1,0.2-1.5,0.6l-6.2-3.6
	c0.1-0.2,0.1-0.3,0.1-0.4c0-1.2-1-2.3-2.3-2.3c-1.3,0-2.3,1-2.3,2.3c0,0.2,0,0.3,0.1,0.4l-6.2,3.6c-0.4-0.3-0.9-0.6-1.5-0.6
	c-1.2,0-2.3,1-2.3,2.3c0,1,0.7,1.8,1.6,2.1v7.1c-0.9,0.3-1.6,1.1-1.6,2.1c0,1.2,1,2.3,2.3,2.3c0.6,0,1.1-0.2,1.5-0.6l6.2,3.6
	c0,0.1,0,0.1,0,0.1c0,1.2,1,2.3,2.3,2.3c1.3,0,2.3-1,2.3-2.3c0-0.1,0-0.1,0-0.1l6.2-3.6c0.4,0.3,1,0.6,1.5,0.6c1.2,0,2.3-1,2.3-2.3
	C37.2,30.1,36.5,29.2,35.6,29z M32.7,19.2c-0.1,0.2-0.1,0.3-0.1,0.5c0,1,0.7,1.8,1.6,2.1v7.1c-0.3,0.1-0.6,0.3-0.9,0.5L25.5,16
	c0.3-0.1,0.6-0.3,0.9-0.5L32.7,19.2z M17.2,30.5c0-0.1-0.1-0.2-0.1-0.3l7.9-13.6l7.8,13.6c-0.1,0.1-0.1,0.2-0.1,0.3H17.2z
	 M15.7,21.9c0.9-0.3,1.6-1.1,1.6-2.1c0-0.2,0-0.3-0.1-0.5l6.2-3.6c0.3,0.2,0.6,0.4,0.9,0.5l-7.8,13.3c-0.2-0.2-0.6-0.4-0.9-0.5
	L15.7,21.9L15.7,21.9z M26.7,35c-0.4-0.5-1.1-0.8-1.7-0.8c-0.7,0-1.3,0.3-1.7,0.8l-6-3.5c0-0.1,0-0.1,0-0.2h15.4c0,0.1,0,0.1,0,0.2
	L26.7,35z"/>
</svg>
