<svg xmlns="http://www.w3.org/2000/svg" viewBox="0 0 50 50"><path fill="#e589ef" d="M43.4 15.2L7.8 28.1v7.4l8.9 5 26.7-9.7z"/><path fill="#f799ff" d="M43.4 14.9L25.6 4.7 7.8 14.9v13.2l35.6-12.9z"/><path fill="#031326" d="M43.9 31.8V19.1c1.6-.5 2.8-2 2.8-3.8 0-2.2-1.8-4.1-4.1-4.1-1 0-1.9.4-2.6 1L28.9 5.7c.1-.3.1-.6.1-.8C29 2.7 27.2.8 24.9.8s-4.1 1.8-4.1 4.1c0 .3 0 .6.1.8L9.8 12.1c-.7-.6-1.6-1-2.6-1-2.2 0-4.1 1.8-4.1 4.1 0 1.8 1.2 3.3 2.8 3.8v12.7c-1.6.5-2.8 2-2.8 3.8 0 2.2 1.8 4.1 4.1 4.1 1 0 2-.4 2.7-1.1l11 6.5v.2c0 2.2 1.8 4.1 4.1 4.1s4.1-1.8 4.1-4.1V45l11-6.4c.7.6 1.7 1.1 2.7 1.1 2.2 0 4.1-1.8 4.1-4.1-.2-1.8-1.3-3.4-3-3.8zm-5.2-17.5c-.1.3-.1.6-.1.9 0 1.8 1.2 3.3 2.8 3.8v12.7c-.6.2-1.1.5-1.6.9l-13.9-24c.6-.2 1.1-.5 1.6-.9l11.2 6.6zM11 34.5c0-.2-.1-.4-.2-.5L24.9 9.8l14 24.3c-.1.2-.1.3-.2.5H11zM8.4 19.1c1.6-.5 2.8-2 2.8-3.8 0-.3 0-.6-.1-.9L22.2 8c.5.4 1 .7 1.6.9L9.9 32.7c-.4-.4-1-.7-1.6-.9V19.1h.1zM28 42.5c-.7-.9-1.9-1.5-3.1-1.5s-2.4.6-3.1 1.5l-10.7-6.2V36h27.5v.3L28 42.5z"/></svg>