<?xml version="1.0" encoding="utf-8"?>
<!-- Generator: Adobe Illustrator 26.5.0, SVG Export Plug-In . SVG Version: 6.00 Build 0)  -->
<svg version="1.1" id="Camada_3" xmlns="http://www.w3.org/2000/svg" xmlns:xlink="http://www.w3.org/1999/xlink" x="0px" y="0px"
	 viewBox="0 0 50 50" style="enable-background:new 0 0 50 50;" xml:space="preserve">
<style type="text/css">
	.st0{fill:#A6C1C2;}
	.st1{fill:#B9D7D9;}
	.st2{fill:none;stroke:#444444;stroke-width:2.5;stroke-linecap:round;stroke-linejoin:round;stroke-miterlimit:10;}
	.st3{fill:none;stroke:#494949;stroke-width:0.25;stroke-miterlimit:10;}
	.st4{fill:none;stroke:#494949;stroke-linecap:round;stroke-linejoin:round;stroke-miterlimit:10;}
	.st5{fill:none;stroke:#444444;stroke-width:0.25;stroke-miterlimit:10;}
</style>
<polyline class="st0" points="49.09,28.21 3.03,44.97 2.49,34.08 2.7,24.56 47.28,8.41 47.89,15.56 48.35,23.01 49.09,28.21 "/>
<polyline class="st1" points="48.75,8.41 1.9,25.14 2.68,4.33 5.66,1.44 34.71,1.27 46.17,1.53 48.75,8.41 "/>
<g>
	<path class="st2" d="M24.96,47.85H5.49c-1.87,0-3.39-1.58-3.39-3.54V5.4c0-1.95,1.52-3.54,3.39-3.54h39.01
		c1.87,0,3.39,1.58,3.39,3.54v25.89"/>
	<path class="st2" d="M2.1,15.4"/>
	<path class="st2" d="M47.88,15.4"/>
</g>
<g>
	<g>
		<circle class="st3" cx="25.33" cy="24.56" r="18.93"/>
		<circle class="st3" cx="25.33" cy="24.16" r="7.68"/>
	</g>
	<polygon class="st4" points="11.12,10.99 11.12,19.83 15.87,19.83 15.86,38.73 37.61,38.73 37.62,15.09 27.02,15.09 27.02,10.36 
		11.12,10.36 	"/>
	<g>
		<rect x="25.33" y="5.62" class="st5" width="9.47" height="9.47"/>
		<rect x="34.79" y="5.62" class="st5" width="9.47" height="9.47"/>
		<rect x="25.33" y="15.09" class="st5" width="9.47" height="9.47"/>
		<rect x="34.79" y="15.09" class="st5" width="9.47" height="9.47"/>
		<rect x="6.39" y="5.62" class="st5" width="9.47" height="9.47"/>
		<rect x="15.86" y="5.62" class="st5" width="9.47" height="9.47"/>
		<rect x="6.39" y="15.09" class="st5" width="9.47" height="9.47"/>
		<rect x="15.86" y="15.09" class="st5" width="9.47" height="9.47"/>
		<rect x="25.33" y="24.56" class="st5" width="9.47" height="9.47"/>
		<rect x="34.79" y="24.56" class="st5" width="9.47" height="9.47"/>
		<rect x="25.33" y="34.03" class="st5" width="9.47" height="9.47"/>
		<rect x="34.79" y="34.03" class="st5" width="9.47" height="9.47"/>
		<rect x="6.39" y="24.56" class="st5" width="9.47" height="9.47"/>
		<rect x="15.86" y="24.56" class="st5" width="9.47" height="9.47"/>
		<rect x="6.39" y="34.03" class="st5" width="9.47" height="9.47"/>
		<rect x="15.86" y="34.03" class="st5" width="9.47" height="9.47"/>
	</g>
</g>
</svg>
