<svg xmlns="http://www.w3.org/2000/svg" version="1" viewBox="0 0 50 50"><path fill="#FDCF72" d="M6.243 3.244a10.618 10.618 0 0 1 5.92 6.986l-.003-.006a13.44 13.44 0 0 0-4.426.14c-.354.072-.536.454-.403.79.598 1.505.924 3.145.924 4.864 0 1.853-1.022 3.07-1.715 4.684-.378.88-.193 1.915.506 2.57a13.067 13.067 0 0 0 5.037 2.936v5.447l-.006 1.838c-1.546-1.05-2.584-2.322-3.29-4.078l-.173-.225a9.23 9.23 0 0 0-.69 3.526c0 1.652.345 3.18.982 4.505l28.846-10.498v-.514c1.9-.592 3.62-1.61 5.043-2.942.695-.65.88-1.68.503-2.556-.695-1.613-1.723-2.836-1.723-4.692 0-1.72.327-3.364.926-4.872.133-.33-.048-.71-.397-.78a13.463 13.463 0 0 0-4.278-.163l-.02.026a10.622 10.622 0 0 1 5.964-7.007c.453-.2.458-.852 0-1.045a10.58 10.58 0 0 0-4.128-.838c-3.87 0-7.26 2.067-9.108 5.168l-.02.042a12.788 12.788 0 0 0-5.602-1.282c-1.962 0-3.82.44-5.484 1.23l.005.01a10.584 10.584 0 0 0-9.108-5.168 10.57 10.57 0 0 0-4.085.82c-.474.198-.467.873.003 1.084z"/><path fill="#FFDB92" d="M6.243 3.244a10.618 10.618 0 0 1 5.92 6.986l-.003-.006a13.448 13.448 0 0 0-4.426.14c-.354.072-.536.454-.403.79.555 1.396.862 2.91.906 4.493L44.086 2.6a.53.53 0 0 0-.314-.42 10.57 10.57 0 0 0-4.13-.84c-3.87 0-7.26 2.067-9.108 5.168l-.02.042a12.788 12.788 0 0 0-5.602-1.282c-1.962 0-3.82.44-5.484 1.23l.005.01a10.584 10.584 0 0 0-9.108-5.168 10.57 10.57 0 0 0-4.085.82c-.474.198-.467.873.003 1.084z"/><path fill="#444" d="M44.207 4.21c.603-.27.99-.868.983-1.53a1.637 1.637 0 0 0-.998-1.494 11.623 11.623 0 0 0-4.55-.924c-3.788 0-7.36 1.87-9.532 4.933a13.892 13.892 0 0 0-5.197-1.004c-1.762 0-3.48.34-5.08.97A11.74 11.74 0 0 0 10.328.264c-1.55 0-3.065.304-4.5.903A1.652 1.652 0 0 0 4.81 2.67c-.01.672.38 1.283.99 1.557a9.473 9.473 0 0 1 4.79 4.805c-.075 0-.15-.007-.223-.007-.944 0-1.9.095-2.842.283a1.62 1.62 0 0 0-1.112.82 1.68 1.68 0 0 0-.084 1.423 12.07 12.07 0 0 1 .845 4.47c0 1.06-.442 1.904-.953 2.88-.227.433-.462.88-.675 1.378-.562 1.31-.256 2.83.762 3.782a14.262 14.262 0 0 0 4.694 2.918v4.1a8.313 8.313 0 0 1-1.39-2.277 1.067 1.067 0 0 0-.592-.606 1.047 1.047 0 0 0-.346-.067c-.017 0-.033-.01-.05-.01a1.055 1.055 0 0 0-.402.074c-.006.003-.01.002-.017.004a1.08 1.08 0 0 0-.594.596 10.303 10.303 0 0 0-.767 3.927c0 4.714 3.17 8.85 7.638 10.116.894 4.03 5.076 6.904 10.427 6.904a1.078 1.078 0 0 0 0-2.156c-4.623 0-8.047-2.39-8.417-5.764-.003-.025 0-.05-.005-.076a5.57 5.57 0 0 1-.032-.536c0-2.15.798-4.18 2.253-5.746 1.81 1.31 3.95 2 6.2 2s4.394-.69 6.212-2.002a8.395 8.395 0 0 1 2.255 5.747c0 .19-.016.384-.048.574-.086.512.215.98.68 1.162.04.017.08.033.123.046.03.008.053.027.083.032.027.004.052-.006.08-.003.047.006.09.024.14.024a1.1 1.1 0 0 0 .22-.023c4.85-1 8.37-5.33 8.37-10.3 0-1.368-.258-2.692-.77-3.937l-.003-.006c-.034-.08-.092-.146-.144-.216a1.06 1.06 0 0 0-.865-.443c-.032 0-.06.015-.093.018-.1.01-.203.018-.3.06-.006 0-.01.006-.015.008-.002.002-.003.004-.005.004-.27.118-.468.33-.57.586l-.002.002a8.302 8.302 0 0 1-1.43 2.335v-4.153a14.26 14.26 0 0 0 4.7-2.924c1.015-.95 1.32-2.464.757-3.77a19.63 19.63 0 0 0-.676-1.375c-.514-.98-.958-1.826-.958-2.89 0-1.55.286-3.056.85-4.476a1.67 1.67 0 0 0-.083-1.418 1.618 1.618 0 0 0-1.107-.816 14.58 14.58 0 0 0-2.852-.285l-.075.003c.958-2.112 2.674-3.86 4.822-4.814zM7.714 2.783a9.46 9.46 0 0 1 2.612-.366A9.573 9.573 0 0 1 17.86 6.12a13.925 13.925 0 0 0-3.867 3.38c-.33-.087-.665-.166-1.002-.23a11.604 11.604 0 0 0-5.276-6.486zm1.29 29.934c0-.214.013-.424.03-.635a10.513 10.513 0 0 0 6.61 3.963 10.512 10.512 0 0 0-1.31 4.468 8.39 8.39 0 0 1-5.33-7.796zm31.84-.63c.015.208.03.418.03.63a8.392 8.392 0 0 1-5.372 7.81 10.53 10.53 0 0 0-1.3-4.465 10.468 10.468 0 0 0 6.64-3.976zm.442-20.77a14.234 14.234 0 0 0-.79 4.7c0 1.597.615 2.764 1.207 3.893.207.395.42.796.605 1.228.203.472.103 1.012-.25 1.342a12.064 12.064 0 0 1-4.626 2.7l-.758.236v7.497a8.29 8.29 0 0 1-3.943 1.126c-.086-.096-.166-.196-.257-.29-.63-.633-1.645-.705-2.402-.187l-1.483-7.308a.862.862 0 0 0-1.69.344l1.605 7.902a8.407 8.407 0 0 1-3.59.802 8.386 8.386 0 0 1-3.68-.845l1.6-7.88a.863.863 0 1 0-1.69-.344l-1.476 7.27c-.745-.45-1.703-.36-2.305.247-.088.09-.166.19-.252.282h-.02a8.315 8.315 0 0 1-3.927-1.155v-7.463l-.757-.236a12.066 12.066 0 0 1-4.62-2.694c-.357-.333-.46-.878-.254-1.357.184-.433.396-.835.602-1.23.59-1.125 1.2-2.29 1.2-3.88 0-1.617-.266-3.195-.79-4.7a12.237 12.237 0 0 1 11.717 4.94 1.078 1.078 0 0 0 1.75-1.258 14.374 14.374 0 0 0-5.84-4.74 11.755 11.755 0 0 1 8.743-3.914c3.14 0 6.093 1.222 8.31 3.44.153.152.292.315.436.475A14.372 14.372 0 0 0 27.823 15a1.078 1.078 0 1 0 1.75 1.258 12.255 12.255 0 0 1 8.225-4.95h.01c.054 0 .103-.018.155-.026a12.03 12.03 0 0 1 3.324.035zm-4.298-2.073c-.39.07-.774.157-1.155.257-.34-.43-.695-.85-1.085-1.24-.814-.814-1.72-1.5-2.68-2.08a9.572 9.572 0 0 1 7.575-3.764c.89 0 1.766.123 2.615.366a11.8 11.8 0 0 0-5.27 6.46z"/></svg>