<svg xmlns="http://www.w3.org/2000/svg" id="Layer_1" x="0" y="0" version="1.1" viewBox="0 0 50 50" xml:space="preserve"><style>.st2{fill:#031326}</style><path fill="#7dddfa" d="M42.7 3.3H7.3c-2.8 0-5.1 2.3-5.1 5.1v13.3L46.8 5.4c-.9-1.3-2.4-2.1-4.1-2.1z"/><path fill="#70c6df" d="M47.7 7.8c0-1.1-.3-2.1-.9-2.9L2.3 21.1v21c0 2.8 2.3 5.1 5.1 5.1h.3l40.1-14.6V7.8z"/><path d="M39.7 48.5H6c-2.8 0-5-2.2-5-5v-37c0-2.8 2.2-5 5-5h38c2.8 0 5 2.2 5 5v27.9c0 .7-.6 1.2-1.2 1.2s-1.2-.6-1.2-1.2V6.5C46.5 5.1 45.4 4 44 4H6C4.6 4 3.5 5.1 3.5 6.5v36.9C3.5 44.9 4.6 46 6 46h33.7c.7 0 1.2.6 1.2 1.2s-.5 1.3-1.2 1.3z" class="st2"/><path d="M38 10.4H12l.7 5.1h13.1l-.2.1-.5.2-12 5 .4 4.9 11.6.1h6.2l-.4 6.6-5.8 1.6-5.7-1.4-.3-4.1h-5.3l.7 7.9 10.6 3.2 10.6-3.1L37 20.8H25.1l12.4-5.3.5-5.1z" class="st2"/></svg>