<?xml version="1.0" encoding="utf-8"?>
<!-- Generator: Adobe Illustrator 22.0.1, SVG Export Plug-In . SVG Version: 6.00 Build 0)  -->
<svg version="1.1" id="Layer_1" xmlns="http://www.w3.org/2000/svg" xmlns:xlink="http://www.w3.org/1999/xlink" x="0px" y="0px"
	 viewBox="0 0 50 50" style="enable-background:new 0 0 50 50;" xml:space="preserve">
<style type="text/css">
	.st0{fill:#7DDDFA;}
	.st1{fill:#70C6DF;}
	.st2{fill:#464646;}
</style>
<g>
	<g>
		<path class="st0" d="M42.7,3.3H7.3c-2.8,0-5.1,2.3-5.1,5.1v13.3L46.8,5.4C45.9,4.1,44.4,3.3,42.7,3.3z"/>
	</g>
	<g>
		<path class="st1" d="M47.7,7.8c0-1.1-0.3-2.1-0.9-2.9L2.3,21.1v21c0,2.8,2.3,5.1,5.1,5.1h0.3l40.1-14.6V7.8z"/>
	</g>
	<g>
		<path class="st2" d="M39.7,48.5H6c-2.8,0-5-2.2-5-5V6.5c0-2.8,2.2-5,5-5h38c2.8,0,5,2.2,5,5v27.9c0,0.7-0.6,1.2-1.2,1.2
			s-1.2-0.6-1.2-1.2V6.5C46.5,5.1,45.4,4,44,4H6C4.6,4,3.5,5.1,3.5,6.5v36.9C3.5,44.9,4.6,46,6,46h33.7c0.7,0,1.2,0.6,1.2,1.2
			S40.4,48.5,39.7,48.5z"/>
	</g>
	<g>
		<polygon class="st2" points="38,10.4 38,10.4 25.1,10.4 25.1,10.4 25.1,10.4 12,10.4 12,10.4 12.7,15.5 12.7,15.5 25.1,15.5 
			25.8,15.5 25.6,15.6 25.1,15.8 25.1,15.8 25.1,15.8 13.1,20.8 13.5,25.7 13.5,25.7 13.5,25.7 25.1,25.8 25.1,25.8 31.3,25.8 
			30.9,32.4 25.1,34 25.1,34 25.1,34 19.4,32.6 19.1,28.5 13.9,28.5 13.9,28.5 13.8,28.5 14.5,36.4 25.1,39.6 25.1,39.6 25.1,39.6 
			35.7,36.5 37,20.8 25.1,20.8 25.1,20.8 25.1,20.8 25.1,20.8 37.5,15.5 37.5,15.5 38,10.4 38,10.4 		"/>
	</g>
</g>
</svg>
