<svg xmlns="http://www.w3.org/2000/svg" version="1" viewBox="0 0 50 50"><path fill="#E56060" d="M11.42 23.394h1.49l-.01.005 1.986 18.07 21.063-7.665L37.09 23.4l-.01-.006h1.496c.543 0 .983-.44.983-.983v-1.673a.983.983 0 00-.982-.983l-1.397-.002c-.805-6.7-5.954-11.86-12.183-11.86-6.23 0-11.378 5.158-12.174 11.86l-1.4.002a.983.983 0 00-.984.983v1.674c0 .544.44.984.98.984z"/><path fill="#FF6B6B" d="M11.42 23.394h1.49l-.01.005.004.023 22.914-8.34c-2.08-4.284-6.145-7.19-10.82-7.19-6.23 0-11.38 5.158-12.175 11.86l-1.4.002a.983.983 0 00-.984.983v1.674c0 .542.44.982.98.982z"/><g fill="#031326"><path d="M38.58 18.677h-.483c-.646-3.565-2.45-6.636-4.937-8.76l1.046-5.142L37.71 2.32A1.077 1.077 0 1036.476.554l-3.525 2.47a2.007 2.007 0 00-.854 1.315l-.857 4.208c-1.876-1.1-4-1.732-6.243-1.732-6.39 0-11.862 5.038-13.09 11.86h-.485c-1.136 0-2.06.925-2.06 2.06v1.675c0 1.137.924 2.06 2.06 2.06h.514l2.47 22.49c.182 1.528 1.4 2.68 2.83 2.68h12.822a1.078 1.078 0 000-2.156H17.235c-.34 0-.636-.335-.688-.77L14.103 24.47h13.9L23.94 44.445a1.078 1.078 0 102.113.43l4.15-20.405h5.688l-1.036 9.44a1.077 1.077 0 102.142.236l1.063-9.675h.52c1.135 0 2.06-.923 2.06-2.06v-1.673c0-1.136-.925-2.06-2.06-2.06zm-2.67 0h-4.534l1.278-6.278c1.576 1.658 2.74 3.818 3.256 6.277zM24.997 8.97c2.1 0 4.085.664 5.785 1.82l-1.606 7.887H14.092c1.172-5.61 5.68-9.706 10.905-9.706zm13.487 13.346H11.516v-1.484h26.967v1.484z"/><path d="M18.095 37.367a.863.863 0 00.858-.956l-.058-.524a.87.87 0 00-.95-.764.863.863 0 00-.765.95l.058.525c.048.442.422.77.857.77zm-.327-3.847a.863.863 0 00.763-.952l-.656-5.976a.863.863 0 10-1.714.188l.657 5.975a.863.863 0 00.95.763z"/></g></svg>