<svg xmlns="http://www.w3.org/2000/svg" id="Layer_1" x="0" y="0" version="1.1" viewBox="0 0 50 50" xml:space="preserve"><style>.st1,.st3{fill:none;stroke:#444;stroke-width:2.5;stroke-linecap:round;stroke-linejoin:round;stroke-miterlimit:10}.st3{stroke-width:.5}</style><path fill="#00dffc" d="M47.9 20.3c-.2-.8-2.7-7.5-3.2-8.1l-3-3.5-.2.1L33.9 3l-7.8-.7c-3.2 0-14.5.3-21.4 10.2l-4 10.7-.2.1 4 13.4c.1.3 4.5 5.6 4.8 5.8l5.6 3 32.2-11.7c.7-.4 1.8-8.7.8-13.5z"/><path d="M36.3 45.8c-6.4 3.6-14.5 4.1-21.6.6C3.1 40.8-1.8 26.7 3.9 15.1" class="st1"/><path d="M3.8 15.3C5.2 12 7.5 9.7 7.5 9.7L8 9c6.8-7.1 17.8-9.4 27.1-4.8C46.8 9.9 51.6 23.9 46 35.5" class="st1"/><path fill="none" stroke="#444" stroke-miterlimit="10" d="M25.6 8.8c-.1-.1-.4-.1-.5 0l-.9 1.4c-.3.5-7.6 10.7-7.6 15.4 0 4.9 4 8.9 8.9 8.9s8.9-4 8.9-8.9c0-4.7-7.5-15.2-7.8-15.7l-1-1.1z"/><path d="M24.8 32c-1.3-.2-2.6-.8-3.6-1.9-1-1-1.6-2.1-1.8-3.3m14.9 6c4.2 1 7 2.6 7 4.4 0 2.9-7.1 5.3-15.8 5.3S9.7 40.2 9.7 37.2c0-1.9 2.8-3.5 7.1-4.5" class="st3"/><path d="M32.7 34.6c2.5.6 4.1 1.6 4.1 2.6 0 1.9-5.1 3.4-11.3 3.4s-11.3-1.5-11.3-3.4c0-1.1 1.7-2.1 4.4-2.7" class="st3"/><ellipse cx="25.5" cy="37.2" fill="none" stroke="#444" stroke-miterlimit="10" stroke-width=".5" rx="5.7" ry="1"/></svg>