<?xml version="1.0" encoding="UTF-8"?>
<svg xmlns="http://www.w3.org/2000/svg" version="1.1" viewBox="0 0 50 50">
  <defs>
    <style>
      .cls-1, .cls-2, .cls-3 {
        fill: none;
        stroke: #444;
        stroke-linecap: round;
        stroke-linejoin: round;
      }

      .cls-2 {
        stroke-width: 2.5px;
      }

      .cls-4 {
        fill: #04ad49;
      }

      .cls-5 {
        fill: #22dd6d;
      }

      .cls-3 {
        stroke-width: .5px;
      }
    </style>
  </defs>
  <!-- Generator: Adobe Illustrator 28.7.1, SVG Export Plug-In . SVG Version: 1.2.0 Build 142)  -->
  <g>
    <g id="Camada_1">
      <g>
        <polygon class="cls-4" points="30.9 16.2 38.7 18.6 32 23.4 32.1 31.6 25.5 26.7 17.8 29.3 20.4 21.5 15.5 15 23.7 15.1 28.4 8.4 30.9 16.2"/>
        <g>
          <path class="cls-5" d="M43.9,2.9H4.1c-1.5,0-1.5,4.1-1.5,5.6l-.2,13.8-.6,10.8,1.3,12.5,9,.6,34.5-12.2V5.6h0c0-1.5-1.2-2.7-2.7-2.7Z"/>
          <g>
            <path class="cls-1" d="M7.9,9.6c.8,0,1.5-.7,1.5-1.5s-.7-1.5-1.5-1.5-1.5.7-1.5,1.5.7,1.5,1.5,1.5Z"/>
            <path class="cls-1" d="M13.3,9.6c.8,0,1.5-.7,1.5-1.5s-.7-1.5-1.5-1.5-1.5.7-1.5,1.5.7,1.5,1.5,1.5Z"/>
            <path class="cls-1" d="M18.7,9.6c.8,0,1.5-.7,1.5-1.5s-.7-1.5-1.5-1.5-1.5.7-1.5,1.5.7,1.5,1.5,1.5Z"/>
            <path class="cls-1" d="M15.8,36.1c0-.8.7-1.5,1.5-1.5s1.5.7,1.5,1.5-.7,1.5-1.5,1.5-1.5-.7-1.5-1.5ZM23.6,28.9c0-.8.7-1.5,1.5-1.5s1.5.7,1.5,1.5-.7,1.5-1.5,1.5-1.5-.7-1.5-1.5ZM15.8,20.8c0-.8.7-1.5,1.5-1.5s1.5.7,1.5,1.5-.7,1.5-1.5,1.5-1.5-.7-1.5-1.5ZM40.6,47c-.2.4-.9.4-1.1,0l-4.9-10.6c-.5-1.1.6-2.2,1.7-1.7l10.3,5.1c.5.2.4.9,0,1.1l-1.9.7c-.2,0-.3.3-.4.5,0,.2,0,.4.2.6l4.3,3.9c.3.3.3.8,0,1.1l-1.1,1.1c-.3.3-.8.3-1.1,0l-3.9-4.3c-.1-.1-.3-.2-.5-.2s0,0-.1,0c-.2,0-.4.2-.5.4l-1,2.4Z"/>
            <line class="cls-1" x1="15.8" y1="20.8" x2="6.9" y2="20.8"/>
            <line class="cls-1" x1="23.4" y1="29" x2="6.9" y2="29"/>
            <line class="cls-1" x1="15.8" y1="36.1" x2="6.9" y2="36.1"/>
            <path class="cls-2" d="M47.1,34.9V12s0,0,0,0,0,0,0,0v-5c0-2.3-1.8-4.1-4.1-4.1H6.3c-2.3,0-4.1,1.8-4.1,4.1v35.3c0,2.3,1.8,4.1,4.1,4.1h28.6"/>
          </g>
        </g>
      </g>
      <path class="cls-3" d="M44.5,36.2V15.3c0-1.6-1.3-2.9-2.9-2.9H7.8c-1.6,0-2.9,1.3-2.9,2.9v24.7"/>
    </g>
  </g>
</svg>