<svg xmlns="http://www.w3.org/2000/svg" version="1" viewBox="0 0 50 50"><path fill="#FCC34F" d="M41.393 24.546V6.004a2.647 2.647 0 0 0-2.646-2.646H11.255a2.647 2.647 0 0 0-2.646 2.646v30.474L41.39 24.546z"/><path fill="#FDCF72" d="M40.633 4.152a2.632 2.632 0 0 0-1.887-.794h-27.49a2.647 2.647 0 0 0-2.647 2.646v9.804L40.63 4.152z"/><path fill="#444" d="M38.73 47.524H11.255a3.532 3.532 0 0 1-3.528-3.528V6.004a3.532 3.532 0 0 1 3.528-3.528h27.49a3.532 3.532 0 0 1 3.527 3.528v31.75a3.532 3.532 0 0 1-3.528 3.527h-27.49c-.972 0-1.763.793-1.763 1.766V44c0 .97.793 1.763 1.766 1.763H38.73c.834 0 1.538-.58 1.728-1.358h-26.29a.882.882 0 1 1-.001-1.764h26.75c.362 0 .703.143.96.4s.397.6.395.964a3.55 3.55 0 0 1-3.542 3.52zm2.187-3.122h.01-.01zM11.255 4.24c-.973 0-1.764.79-1.764 1.764V39.99c.52-.3 1.124-.474 1.766-.474h27.49c.972 0 1.763-.79 1.763-1.764V6.004c0-.973-.79-1.764-1.765-1.764h-27.49z"/><path fill="#444" d="M23.007 14.5c-.157 0-.31.04-.455.118-.147.08-.22.196-.22.353 0 .14.054.305.162.5.107.197.25.4.425.617l2.406 3.024 2.437-3.082c.216-.274.4-.51.558-.705.158-.196.236-.342.236-.44 0-.254-.264-.382-.793-.382v-.527h5.96v.528c-.47 0-.818.03-1.043.09a1.05 1.05 0 0 0-.57.38l-5.08 6.284 4.873 6.225c.078.117.17.254.28.41.106.157.24.31.395.455.157.147.327.275.514.382.186.108.396.16.63.16v.53h-5.9v-.53c.313 0 .47-.155.47-.47 0-.135-.064-.293-.19-.47-.128-.175-.28-.37-.456-.586l-2.7-3.522-2.908 3.64c-.098.138-.22.3-.367.486-.145.186-.22.357-.22.514 0 .274.188.41.56.41v.53H16.61v-.53c.372 0 .66-.038.866-.116.205-.077.416-.254.63-.528l5.14-6.548-4.758-6.048c-.333-.43-.636-.73-.91-.895a1.847 1.847 0 0 0-.97-.25v-.527h6.402v.527z"/></svg>