<?xml version="1.0" encoding="utf-8"?>
<!-- Generator: Adobe Illustrator 22.0.1, SVG Export Plug-In . SVG Version: 6.00 Build 0)  -->
<svg version="1.1" id="Layer_1" xmlns="http://www.w3.org/2000/svg" xmlns:xlink="http://www.w3.org/1999/xlink" x="0px" y="0px"
	 viewBox="0 0 50 50" style="enable-background:new 0 0 50 50;" xml:space="preserve">
<style type="text/css">
	.st0{fill:#CE87EA;}
	.st1{fill:#E097FB;}
	.st2{fill:#464646;}
</style>
<g>
	<g>
		<polygon class="st0" points="45.3,2.5 4.8,17.2 4.8,40.8 45.3,26.1 		"/>
	</g>
	<g>
		<polygon class="st1" points="45.3,2.3 4.8,2.3 4.8,17.6 45.3,2.9 		"/>
	</g>
	<g>
		<path class="st2" d="M31.1,49H3.4V1h43v26.3c0,0.7-0.6,1.2-1.2,1.2s-1.2-0.6-1.2-1.2V3.5h-38v43h25.2c0.7,0,1.2,0.6,1.2,1.2
			S31.8,49,31.1,49z"/>
	</g>
	<g>
		<g>
			<path class="st2" d="M41.8,18H8.3V5h33.5V18z M9.8,16.5h30.5v-10H9.8V16.5z"/>
		</g>
		<g>
			<g>
				<path class="st2" d="M42,31.5H20.7v-13H42V31.5z M22.2,30h18.3V20H22.2V30z"/>
			</g>
			<g>
				<path class="st2" d="M19.7,31.5H8.2v-13h11.5V31.5z M9.7,30h8.5V20H9.7V30z"/>
			</g>
		</g>
		<g>
			<g>
				<path class="st2" d="M29.5,45H8.2V32h21.3V45z M9.7,43.5H28v-10H9.7V43.5z"/>
			</g>
			<g>
				<path class="st2" d="M42,45H30.5V32H42V45z M32,43.5h8.5v-10H32V43.5z"/>
			</g>
		</g>
	</g>
</g>
</svg>
