<?xml version="1.0" encoding="utf-8"?>
<!-- Generator: Adobe Illustrator 22.0.1, SVG Export Plug-In . SVG Version: 6.00 Build 0)  -->
<svg version="1.1" id="Camada_1" xmlns="http://www.w3.org/2000/svg" xmlns:xlink="http://www.w3.org/1999/xlink" x="0px" y="0px"
	 viewBox="0 0 50 50" style="enable-background:new 0 0 50 50;" xml:space="preserve">
<style type="text/css">
	.st0{fill:#BEE367;}
	.st1{fill:#D4FF73;}
	.st2{fill:#031326;}
	.st3{fill:none;stroke:#031326;stroke-width:0.5;stroke-linecap:round;stroke-miterlimit:10;}
</style>
<g>
	<g>
		<polygon class="st0" points="47.5,3.5 2.5,19.8 2.5,45.9 47.5,29.5 		"/>
	</g>
	<g>
		<polygon class="st1" points="47.5,2.5 2.5,2.5 2.5,19.8 47.5,3.5 		"/>
	</g>
	<g>
		<path class="st2" d="M31.2,33l-15.3-0.4l-0.5-14.8l16.3-0.7L31.2,33z M16.4,32.1l14.3,0.4l0.5-14.9l-15.3,0.6L16.4,32.1z"/>
	</g>
	<g>
		<path class="st3" d="M47.5,33"/>
	</g>
	<g>
		<path class="st2" d="M34,47.7C34,47.7,34,47.7,34,47.7c-0.2,0-0.3-0.1-0.2-0.3l0.9-13.9l12.9,0.4c0.1,0,0.2,0.1,0.2,0.3
			s-0.1,0.2-0.3,0.2l-12.4-0.4l-0.8,13.4C34.3,47.6,34.2,47.7,34,47.7z"/>
	</g>
	<path class="st2" d="M1.3,1.3v47.5H34c0.7,0,1.2-0.6,1.2-1.2s-0.6-1.2-1.2-1.2h-0.6l0.8-12.7l-14.9-0.4l0.5,13.1h-0.4l-0.5-13.1
		L3.8,32.7v-0.4l11.7,0.3l-0.5-14.8L3.8,18.3v-0.4L25,17V3.8h0.4v13.2l20.8-0.8v0.4l-14.1,0.6L31.6,33l15.9,0.4c0,0,0,0,0,0
		c0.1,0,0.2-0.1,0.2-0.2c0-0.1-0.1-0.3-0.2-0.3l-15.4-0.4l0.5-15L46.2,17v13.3c0,0.7,0.6,1.2,1.2,1.2s1.2-0.6,1.2-1.2V1.3H1.3z
		 M19.8,33.6L33.7,34l-0.8,12.2H20.3L19.8,33.6z M18.4,33.6l0.4,12.6H3.8V33.2L18.4,33.6z M14.4,18.3l0.5,13.7L3.8,31.7v-13
		L14.4,18.3z M24.5,16.5L3.8,17.3V3.8h20.8V16.5z M46.2,15.6L26,16.4V3.8h20.3V15.6z"/>
</g>
</svg>
