<?xml version="1.0" encoding="utf-8"?>
<!-- Generator: Adobe Illustrator 26.5.0, SVG Export Plug-In . SVG Version: 6.00 Build 0)  -->
<svg version="1.1" id="Camada_1" xmlns="http://www.w3.org/2000/svg" xmlns:xlink="http://www.w3.org/1999/xlink" x="0px" y="0px"
	 viewBox="0 0 300 300" style="enable-background:new 0 0 300 300;" xml:space="preserve">
<style type="text/css">
	.st0{fill:#008DD3;}
	.st1{fill:#4D5152;}
	.st2{fill:#F3BD00;}
	.st3{fill:#EAEAEA;}
	.st4{fill:#828D8E;}
	.st5{opacity:0.2;fill:#FFFFFF;enable-background:new    ;}
	.st6{fill:#F14E70;}
	.st7{fill:#FF6780;}
	.st8{fill:#EAEAEA;stroke:#646464;stroke-width:3;stroke-miterlimit:10;}
	.st9{fill:#646464;}
	.st10{fill:#C4CBCC;}
	.st11{fill:#828D8E;stroke:#828D8E;stroke-miterlimit:10;}
	.st12{fill:none;stroke:#828D8E;stroke-miterlimit:10;}
	.st13{fill:none;stroke:#646464;stroke-miterlimit:10;}
</style>
<g>
	<path class="st0" d="M288.6,149.3c0.1,21-4.4,41-12.3,59.1c-22.3,50.5-72.7,85.6-131.5,85.8c-15.6,0.1-30.7-2.4-44.8-6.9
		c-26.4-8.4-49.5-24.4-66.8-45.4c-18-21.7-29.8-48.7-32.6-78.5c-0.4-4.3-0.6-8.6-0.6-13c-0.2-48.9,24.1-92.3,61.3-118.5
		c4.9-3.5,9.9-6.6,15.2-9.3c7.4-4,15.2-7.3,23.3-9.9c7.6-2.4,15.6-4.3,23.8-5.5c6.6-0.9,13.2-1.4,20-1.5c26.6-0.1,51.4,7,72.9,19.4
		c3.9,2.2,7.5,4.6,11.2,7.2c17.2,12.2,31.6,28,42,46.5c1.2,2.1,2.3,4.2,3.3,6.4c0.9,1.9,1.8,3.7,2.6,5.6c2.7,6.2,5.1,12.4,7,18.9
		c2.1,7.3,3.7,14.7,4.6,22.2l0,0C288.2,137.7,288.6,143.5,288.6,149.3z"/>
	<g>
		<g id="computer_00000163041526128484470310000003117613289619445140_">
			<path class="st1" d="M300,199.7H62.7v-136c0-10.8,8.8-19.6,19.6-19.6h198.2c10.8,0,19.6,8.8,19.6,19.6v136H300z"/>
			<path class="st2" d="M288.7,56.9L288.7,56.9H79.5c-2.4,0-4.3,1.9-4.3,4.3v125.7l0,0h209.1c2.4,0,4.3-1.9,4.3-4.3V56.9H288.7z"/>
			<path class="st3" d="M287.4,227.3H75.2c-6.9,0-12.6-5.6-12.6-12.6v-15H300v15C300,221.7,294.4,227.3,287.4,227.3z"/>
			<path class="st3" d="M160.7,255.7c-2.8,0-4.9-2.6-4.2-5.3c1.5-6.2,4.1-16.5,6.2-22.5l0.2-0.5h36.7l0.3,0.8
				c2.6,7.2,4.7,14.6,6.3,22.1c0.6,2.7-1.5,5.2-4.2,5.2L160.7,255.7z"/>
			<path class="st4" d="M198.5,241.5c2.9,0,5-2.8,4.1-5.5c-0.8-2.6-1.7-5.2-2.6-7.8l-0.3-0.8H163l-0.2,0.5c-1,2.7-1.8,5.4-2.6,8.2
				c-0.8,2.7,1.3,5.5,4.1,5.5L198.5,241.5L198.5,241.5z"/>
		</g>
	</g>
	<path class="st5" d="M250.1,69.2c0,0,27.4-3,27.9,21.9v34.6c0,0,0,6.3-5,6.1c-2.1-0.1-6.2,0-6.7-6.1c-0.6-8.1,0-25-11.1-34.6
		c-10.1-8.7-25.5-9.3-34.4-11.2c-11-2.4-11-11.2-0.6-11C230.2,69.1,250.1,69.2,250.1,69.2z"/>
	<path class="st5" d="M279.4,141.6c0,0-4.4-10.4-11.1-1.5s0,13.7,0,13.7s8.5,6.4,11.1,0C282,147.3,279.4,141.6,279.4,141.6z"/>
	<g>
		<g>
			<g>
				<path class="st6" d="M251.1,121.7h-7.5c-2.9,0-5.5-1.8-6.3-4.5c-0.7-2.3-1.6-4.6-2.6-6.8c-1.2-2.5-0.5-5.5,1.4-7.4l5.2-5.2
					c2.6-2.6,2.6-6.9,0-9.5l-9.4-9.4c-2.6-2.6-6.9-2.6-9.5,0l-4.5,4.5c-2,2-5.1,2.6-7.7,1.3c-2.4-1.2-4.9-2.3-7.4-3.2
					c-2.6-0.9-4.3-3.5-4.3-6.3V69c0-3.7-3-6.7-6.7-6.7h-13.3c-3.7,0-6.7,3-6.7,6.7v6.2c0,2.8-1.7,5.4-4.3,6.3s-5,2-7.4,3.2
					c-2.5,1.3-5.7,0.7-7.7-1.3l-4.5-4.5c-2.6-2.6-6.9-2.6-9.5,0l-9.4,9.4c-2.6,2.6-2.6,6.9,0,9.5l5.2,5.2c2,2,2.6,4.9,1.4,7.4
					c-1,2.2-1.9,4.4-2.6,6.8c-0.9,2.7-3.5,4.5-6.3,4.5h-7.5c-3.7,0-6.7,3-6.7,6.7v13.3c0,3.7,3,6.7,6.7,6.7h8c2.8,0,5.4,1.7,6.3,4.4
					c0.7,2.2,1.6,4.3,2.6,6.4c1.2,2.5,0.6,5.6-1.3,7.5l-5.6,5.6c-2.6,2.6-2.6,6.9,0,9.5l9.4,9.4c2.6,2.6,6.9,2.6,9.5,0l5.4-5.4
					c2-2,5.1-2.6,7.6-1.3c2.1,1.1,4.3,2,6.6,2.8c2.6,0.9,4.3,3.5,4.3,6.3v7.6c0,3.7,3,6.7,6.7,6.7H192c3.7,0,6.7-3,6.7-6.7v-7.6
					c0-2.8,1.7-5.4,4.3-6.3c2.3-0.8,4.4-1.7,6.6-2.8c2.5-1.3,5.6-0.7,7.6,1.3l5.4,5.4c2.6,2.6,6.9,2.6,9.5,0l9.4-9.4
					c2.6-2.6,2.6-6.9,0-9.5l-5.6-5.6c-2-2-2.6-5-1.3-7.5c1-2.1,1.9-4.2,2.6-6.4c0.9-2.7,3.5-4.4,6.3-4.4h8c3.7,0,6.7-3,6.7-6.7
					v-13.3C257.8,124.7,254.8,121.7,251.1,121.7z M184.9,172.3c-20.2,0-36.6-16.7-36.6-37.2s16.4-37.2,36.6-37.2
					s36.6,16.7,36.6,37.2S205.1,172.3,184.9,172.3z"/>
			</g>
			<polyline class="st6" points="106.4,129 116.4,122.1 122.4,129 106.4,129 			"/>
			<polygon class="st6" points="140.4,77.3 130.1,84.5 132.5,90 			"/>
			<polygon class="st6" points="165,70.3 175.1,63 178.9,68.1 172,73 			"/>
			<polygon class="st6" points="247.6,152.4 255.5,146.8 252.9,140.8 246.4,142 246.4,151.7 			"/>
			<polygon class="st6" points="220.1,198.8 231.7,191.3 225.9,186 220.1,195 			"/>
			<polygon class="st6" points="195.8,206.5 185.4,213.3 183.9,208 			"/>
			<polygon class="st6" points="136,198.8 146.2,192.4 141.1,183.7 135.2,193.5 			"/>
			<polygon class="st6" points="215.3,83.7 224.5,77.3 224.1,84.7 222.2,87.2 			"/>
		</g>
		<g>
			<path class="st7" d="M243.1,127.3h-7.5c-2.9,0-5.5-1.8-6.3-4.5c-0.7-2.3-1.6-4.6-2.6-6.8c-1.2-2.5-0.5-5.5,1.4-7.4l5.2-5.2
				c2.6-2.6,2.6-6.9,0-9.5l-9.4-9.4c-2.6-2.6-6.9-2.6-9.5,0l-4.5,4.5c-2,2-5.1,2.6-7.7,1.3c-2.4-1.2-4.9-2.3-7.4-3.2
				c-2.6-0.9-4.3-3.5-4.3-6.3v-6.2c0-3.7-3-6.7-6.7-6.7h-13.3c-3.7,0-6.7,3-6.7,6.7v6.2c0,2.8-1.7,5.4-4.3,6.3s-5,2-7.4,3.2
				c-2.5,1.3-5.7,0.7-7.7-1.3l-4.5-4.5c-2.6-2.6-6.9-2.6-9.5,0l-9.4,9.4c-2.6,2.6-2.6,6.9,0,9.5l5.2,5.2c2,2,2.6,4.9,1.4,7.4
				c-1,2.2-1.9,4.4-2.6,6.8c-0.9,2.7-3.5,4.5-6.3,4.5h-7.5c-3.7,0-6.7,3-6.7,6.7v13.3c0,3.7,3,6.7,6.7,6.7h8c2.8,0,5.4,1.7,6.3,4.4
				c0.7,2.2,1.6,4.3,2.6,6.4c1.2,2.5,0.6,5.6-1.3,7.5l-5.6,5.6c-2.6,2.6-2.6,6.9,0,9.5l9.4,9.4c2.6,2.6,6.9,2.6,9.5,0l5.4-5.4
				c2-2,5.1-2.6,7.6-1.3c2.1,1.1,4.3,2,6.6,2.8c2.6,0.9,4.3,3.5,4.3,6.3v7.6c0,3.7,3,6.7,6.7,6.7H184c3.7,0,6.7-3,6.7-6.7v-7.5
				c0-2.8,1.7-5.4,4.3-6.3c2.3-0.8,4.4-1.7,6.6-2.8c2.5-1.3,5.6-0.7,7.6,1.3l5.4,5.4c2.6,2.6,6.9,2.6,9.5,0l9.4-9.4
				c2.6-2.6,2.6-6.9,0-9.5l-5.6-5.6c-2-2-2.6-5-1.3-7.5c1-2.1,1.9-4.2,2.6-6.4c0.9-2.7,3.5-4.4,6.3-4.4h8c3.7,0,6.7-3,6.7-6.7v-13.3
				C249.8,130.3,246.8,127.3,243.1,127.3z M176.9,177.9c-20.2,0-36.6-16.7-36.6-37.2s16.4-37.2,36.6-37.2s36.6,16.7,36.6,37.2
				S197.1,177.9,176.9,177.9z"/>
		</g>
		<g>
			<path class="st6" d="M176.9,172.8c-1.4,0-3.8-2.6-5.7-8.5c-0.9-2.8-1.7-6.1-2.2-9.6h8.4l-1.5-5.4h-7.5c-0.3-2.9-0.4-5.9-0.4-9
				c0-3.1,0.1-6.1,0.4-9h17.3c0.3,2.9,0.4,5.9,0.4,9c0,0.3,0,0.6,0,0.9l5.4,2.9c0-1.3,0.1-2.5,0.1-3.8c0-3-0.1-6.1-0.4-9h17.2
				c0.8,2.9,1.3,5.9,1.3,9c0,3.1-0.4,6.2-1.3,9h-7l10.8,5.7c0.3-0.6,0.5-1.3,0.8-1.9c0-0.1,0.1-0.2,0.1-0.3
				c1.4-3.9,2.1-8.1,2.1-12.5s-0.7-8.6-2.1-12.5c0-0.1-0.1-0.2-0.1-0.3c-5.3-14.7-19.3-25.2-35.8-25.2s-30.5,10.5-35.8,25.2
				c0,0.1-0.1,0.2-0.1,0.3c-1.4,3.9-2.1,8.1-2.1,12.5s0.7,8.6,2.1,12.5c0,0.1,0.1,0.2,0.1,0.3c5.3,14.7,19.3,25.2,35.8,25.2
				c24,0,28.2-15.8,30.4-16.2l-26.2,6.2C179.5,171.4,178,172.8,176.9,172.8z M206.1,125.8h-15.7c-1-6.7-2.6-12.7-5-16.9
				C194.5,111.3,202,117.6,206.1,125.8z M171.2,116.2c2-5.9,4.3-8.5,5.7-8.5s3.8,2.6,5.7,8.5c0.9,2.8,1.7,6.1,2.2,9.6h-16
				C169.5,122.3,170.2,119,171.2,116.2z M168.4,108.8c-2.3,4.3-4,10.3-5,16.9h-15.7C151.9,117.6,159.4,111.3,168.4,108.8z
				 M144.4,140.3c0-3.1,0.4-6.2,1.3-9h17.2c-0.3,3-0.4,6-0.4,9s0.1,6.1,0.4,9h-17.2C144.8,146.4,144.4,143.4,144.4,140.3z
				 M147.8,154.8h15.7c1,6.7,2.6,12.7,5,16.9C159.4,169.3,151.9,163,147.8,154.8z"/>
			<path class="st8" d="M210.9,156.4L210.9,156.4l-0.2-0.1l-7.7-4.1l0,0l-3.5-1.9l-10.3-5.5l0,0l-6-3.2l0,0l-5.4-2.8
				c-1.5-0.8-3.3,0.6-2.8,2.3l1.4,4.9l0,0l0.6,2.2l3.4,12.3l0,0l1.4,5l3.4,12.1c0.5,1.6,2.6,2,3.6,0.6l2.2-3.2l0,0l2.3-3.3
				c0.8-1.1,2.4-1.2,3.2-0.1l8.2,10.3c0.7,0.9,1.9,1,2.8,0.3l3.4-2.8c0.9-0.7,1-1.9,0.3-2.8l-8-10l0,0l-0.2-0.3
				c-0.8-1-0.4-2.6,0.8-3.1l7.4-3c1.6-0.6,1.7-2.8,0.2-3.6L210.9,156.4z"/>
		</g>
	</g>
	<g>
		<polygon class="st9" points="31.7,75.1 21.9,76.9 15.9,72.4 10.4,73.4 21.9,84.4 34.9,79.6 		"/>
		<polygon class="st9" points="116.3,160.1 118.9,153.2 108.7,145.8 107.9,132.9 95.8,130 96.9,139.6 107.7,154.3 		"/>
		<path class="st9" d="M126.1,113.4c-11.6-9-23.7-7.8-30.9-3.4L51.5,74c0,0,0.8-6.7-5.3-13.3C40.1,54.1,31.5,56,31.5,56
			c-2.3-0.2-6.9,1.9-6.9,1.9s-2.6-0.1,2,3.4c4.6,3.6,19.9,15.4,19.9,15.4l20.2,17.6l24.7,24l19.3,6.3l15.9,3.6l4.9,11.5
			C131.5,139.8,138.3,122.8,126.1,113.4z"/>
		<path class="st10" d="M13.7,74.4c0,0-4.4-3.8-4.1,2.1c0.4,5.9,2.2,9,2.2,9s8.6,14.4,23.6,8.5l48.2,36.5c0,0-4.2,15.6,5.4,23.9
			c0,0,9.7,9.8,24.7,7.3c4.4-0.6,2.3-4.4,2.3-4.4l-11.7-8.5l-1-15l13.5-2.8l10.3,7.9c0,0,4.4,4.4,4.5-1.3c0.1-5.6-1-15-8.7-20
			s-17.4-5.5-19.6-4.8c-2.2,0.6-7.3,2.4-7.9,2.8S48.7,77.7,48.7,77.7s-0.2-14-11.4-18.2s-17-0.7-14.6,1.3s7.5,6.5,7.5,6.5l0.8,0.6
			l1.3,10.3l-10.7,2.6L13.7,74.4z"/>
		<path class="st11" d="M53.4,91.5c0,0-2.8-1.9-4-0.3s-1.2,2.8,0.5,4.3c1.7,1.4,28.9,22,28.9,22s2,2.3,3.8,0.3
			c1.9-2-0.9-4.2-0.9-4.2L53.4,91.5z"/>
		<path class="st12" d="M36.5,94.1c0,0,7.5-2.8,12.4-15.3"/>
		<path class="st12" d="M94.3,115.7c0,0-9.6,4.4-11.1,13.8"/>
		<path class="st13" d="M22.5,58.9"/>
	</g>
</g>
</svg>
