<svg xmlns="http://www.w3.org/2000/svg" viewBox="0 0 300 300"><style>.st3{fill:#ef3030}.st19{fill:#c75eeb}.st32{fill:#c4cbcc}.st50{fill:#fff}.st52{fill:#708080}.st53{fill:#9ea8a9}.st55{fill:#a54fc9}.st60{fill:#e2b700}.st62{fill:#00bf5f}.st67{fill:#ddd;stroke:#515759;stroke-miterlimit:10}</style><path id="Camada_18" fill="#008dd3" d="M289.5 147.5c.1 20.9-4.4 40.7-12.3 58.7-22.3 50.1-72.3 85.2-130.7 85.3-15.5.1-30.5-2.4-44.5-6.8-26.3-8.4-49.3-24.2-66.6-45.1C17.5 218 5.7 191.1 3 161.6c-.4-4.3-.6-8.6-.6-13-.2-48.8 23.9-92 61-118 4.8-3.5 9.9-6.5 15.1-9.3 7.4-4 15.1-7.2 23.2-9.9 7.6-2.5 15.5-4.3 23.6-5.4 6.5-.9 13.2-1.4 19.9-1.5 26.4-.1 51.1 6.9 72.5 19.3 3.9 2.2 7.5 4.5 11.1 7.1 17.1 12.2 31.4 27.9 41.8 46.3 1.2 2.1 2.3 4.2 3.4 6.3.9 1.9 1.8 3.7 2.7 5.5 2.8 6.1 5 12.4 6.9 18.8 2.1 7.2 3.7 14.6 4.5 22.2 1 5.8 1.4 11.7 1.4 17.5z"/><g id="Camada_2"><path d="M79.4 107.9l-22.1-6.1 208.1-4 1.8.3 21.8 6z" class="st52"/><path d="M76.3 258l19.2 5.7 5.4-10.4-21.5-5.7z" class="st53"/><path d="M60.7 101.8s-2.5.1-3.2 1.9c-.1.3-.2.7-.2 1.2.2 3.7.4 128.4.4 128.4s1.2 9.7 5.6 14.6c0 0 7.2 9 13 10s170.1-2.6 170.1-2.6 12.5.8 20-10.1c4.6-5.8 5.3-12.3 5.3-12.3V100.1s.2-2.4-3.1-2.3c-3.4.1-207.9 4-207.9 4z" class="st53"/><path fill="#aeb9ba" d="M277.3 100.1l-7.5-2.1-3.2 3 3.2.2v4.5s22 .9 22 .6c0-.4.3-2.1.3-2.1l-14.8-4.1z"/><path fill="#828d8e" d="M95.4 263.7c.9.2 1.9.4 2.9.4l-3.4-.9-13.9-14c-1.4-5-1.2-9.5-1.2-9.5l-22.1-6.2s1.2 9.5 5.5 14.4c0 0 1.8 2.2 4.3 4.6 2.5 2.4 5.8 4.9 8.7 5.4l18.1 5.4c.3.1.5.2.8.2l.3.2z"/><path d="M82.8 107.9s-3.5.1-3.4 3.1c.2 3.7.4 128.4.4 128.4s-.3 8.9 3.4 15c0 0 5.4 9.1 15.2 9.7 6.5 0 170.1-2.6 170.1-2.6s12.5.8 20-10.1c4.6-5.8 5.3-12.3 5.3-12.3V106.3s.2-2.4-3.1-2.3c-3.4 0-207.9 3.9-207.9 3.9z" class="st32"/><path d="M86.1 258.2l-17.9-4.9s3.1 3.6 9 5.2 17.1 4.9 17.1 4.9-4.1-1.2-8.2-5.2z" class="st52"/><path fill="#fff" d="M286.5 205.3s-3.8-13.7-10.6 0c0 0-1.9 15.8-2.7 18.1-.8 2.3-4.8 19.4-25.6 20.2s-29.5 2.9-29.5 2.9-4.9 5.7 0 8 53.2 0 53.2 0 15.1-5.3 15.1-17.4.1-31.8.1-31.8z" opacity=".2"/><path d="M103.5 89.3l7.4-3.7c-.1-.1-.4 8.9-7.4 3.7z" class="st32"/><path d="M59.4 102.5l19.3 5.5 3-3.8-20.1-6.4z" class="st55"/><path d="M60.8 102.7s-3.5-.1-3.5-2.9V80.5s.8-9.5 4.8-14.5c0 0 6.8-9.1 12.6-10.4 5.8-1.3 173-4.1 173-4.1s12.4-1.4 20.5 8.9c4.9 5.5 5.8 11.8 5.8 11.8v24.7s.7 1.9-2.7 2c-3.3.3-210.5 3.8-210.5 3.8z" class="st55"/><path fill="#c17842" d="M75.7 54.6c5.8-1.4 173.5-4.1 173.5-4.1"/><path fill="#7a2a9b" d="M249.4 50.5s3.5-.1 6.8.8c3.2.9 18.2 5 18.2 5l-3.4-.5c-.2 0-2.6 0-2.8-.1-8.3.2-167.1 3-172.8 4.1l-19.1-5.3s14.5-.7 16.9-.7c2.4-.1 15.2-.4 15.2-.4l141-2.9z"/><path fill="#973dc1" d="M77.3 84.7L58 80.5c-.4-.1-.7-.4-.7-.8.7-3.3.4-10.8 9.3-18.8 2.7-2.7 6.1-5.4 9.6-6.2l19.2 5.2s-6.3 2.4-9.8 6.6c-3.5 4.2-6.2 8-7.3 13-1.1 4.1-1 5.2-1 5.2z"/><path d="M80.7 108.1s-3.6 0-3.5-2.9c0-3.7.1-19.8.1-19.8s.8-9.8 4.8-14.9c0 0 6.7-9.3 12.5-10.6 5.8-1.4 172.9-4.2 172.9-4.2s12.4-1.4 20.5 9.1c4.8 5.6 5.9 12 5.9 12V100s.6 4.1-2.6 4.2c-3.3.3-210.6 3.9-210.6 3.9z" class="st19"/><path d="M224.5 81.9c0 4.5-3.6 8.1-8 8.1-2.6 0-5-1.2-6.5-3.2-1-1.4-1.6-3-1.6-4.8 0-4.5 3.6-8.1 8-8.1s8.2 3.6 8.1 8z" class="st3"/><path d="M217.7 74l4.2.9-.2 2.1m-3 13.8l-4.5-1.1.5-2.2 2.6 2.1z" class="st3"/><circle cx="219.8" cy="82.8" r="8.1" fill="#ef5555"/><path d="M251.7 81.6c0 4.5-3.6 8.1-8 8.1-2.6 0-5-1.2-6.5-3.2-1-1.4-1.6-3-1.6-4.8 0-4.5 3.6-8.1 8-8.1 4.3 0 8 3.5 8.1 8z" class="st60"/><path d="M244.7 73.6l4.3 1-.3 2.1m-3 13.7l-4.5-1 .5-2.3 2.6 2.2z" class="st60"/><circle cx="246.9" cy="82.4" r="8.1" fill="#fcd206"/><path d="M278.7 81.7c0 4.5-3.6 8.1-8 8.1-2.6 0-5-1.2-6.5-3.2-1-1.4-1.6-3-1.6-4.8 0-4.5 3.6-8.1 8-8.1 4.5 0 8.1 3.5 8.1 8z" class="st62"/><path d="M271.7 73.7l4.3.9-.2 2.1m-3 13.8l-4.5-1.1.5-2.2 2.6 2.1z" class="st62"/><circle cx="273.9" cy="82.5" r="8.1" fill="#07e570"/><path fill="#fdffff" d="M268 85.8l12.5-4.9s.6 5.9-3.7 7.8c-4.4 1.8-8.8-2.9-8.8-2.9z" opacity=".4"/><path fill="#fff" d="M253.4 82L241 86s4.4 4.7 8.8 2.8c0 0 4.1-1.8 3.6-6.8z" opacity=".4"/><path fill="#fff" d="M226.2 81.9l-12.3 3.9s4.4 4.7 8.8 2.8c0 0 4.1-1.8 3.5-6.7z" opacity=".3"/><path fill="#ddd" stroke="#515759" stroke-miterlimit="10" stroke-width="2" d="M176.3 173.4c4.6.8 8.4 3.8 8.4 3.8l-9.3 11.2c-.1.2-.2.4-.2.6h0c0 .2.1.4.3.6l5.5 4.4c.2.2.5.2.7.2h0c.2 0 .3-.1.5-.3l8.9-11.4s3.5 3.4 5 7.8c1.2 3.7 7.3-21.9 9.1-29.6.2-.9-.7-1.6-1.5-1.3-7.1 3.1-31.3 13.3-27.4 14z"/><path fill="#fff" d="M190.5 172.7c2.1-1.8 6-4.5 7.6-5.8 2-1.7 3.3-2.9 3.9-3.8.2-.4-.2-.7-.6-.5-1.1.4-3.3 1.3-7.8 3.5-1.9.7-12.2 5.5-13 6.1-2.4.9 3.8 1.2 6.1 3.3" opacity=".36"/><path fill="#fff" d="M187.9 172c1.3-.9 3.6-2.3 4.5-3 1.2-.9 2-1.5 2.3-1.9.1-.2-.1-.3-.3-.2-.6.2-1.9.7-4.6 1.9-1.1.4-7.2 3-7.6 3.3-1.4.5 2.2.5 3.4 1.4" opacity=".61"/><path fill="#f6543b" d="M258.8 227.1h-36.5c-3.7 0-6.7-3-6.7-6.7v-32.6c0-3.7 3-6.7 6.7-6.7h36.5c3.7 0 6.7 3 6.7 6.7v32.6c0 3.7-3 6.7-6.7 6.7z"/><path d="M225.7 194.3v20.3c0 1.4 1.4 2.4 2.7 2l28-8.9c1.8-.6 1.9-3.2.2-3.9l-28-11.4c-1.4-.6-2.9.4-2.9 1.9zM272.8 143l-146.4 2.2c-5.8.1-10.5-4.5-10.6-10.3l-.1-6c-.1-5.8 4.5-10.5 10.3-10.6l146.4-2.2c5.8-.1 10.5 4.5 10.6 10.3l.1 6c.1 5.8-4.5 10.5-10.3 10.6z" class="st50"/><path d="M266.9 131.9c-3.3 0-5.9-2.7-5.9-5.9 0-3.3 2.7-5.9 5.9-5.9 3.3 0 5.9 2.7 5.9 5.9.1 3.2-2.6 5.9-5.9 5.9zm0-11.2c-2.9 0-5.3 2.4-5.3 5.2 0 2.9 2.4 5.2 5.3 5.2s5.3-2.4 5.3-5.2c0-2.8-2.4-5.2-5.3-5.2z" class="st67"/><path d="M274.5 139.2c-.1 0-.2-.1-.3-.2l-4.8-8.1c-.1-.2 0-.4.1-.5.2-.1.4 0 .5.1l4.8 8.1c.1.2 0 .4-.1.5-.1.1-.2.1-.2.1z" class="st67"/><g><path d="M114.8 82.6l49.6 13.7-5.9 20.5-1.8 11.8-.1.5s2.5 2.2 6 5.2c5.2 4.6 11 4.8 17 7.7 6.7 3.3 13.9 5.3 20.6 8.6 4.8 2.4 6.6 5.8.4 8-2.7 1-6 .7-8.8.4-5-.6-10.6-3.9-15.4-4-8.3-.1-16 .9-22.3 3.9-4.8 6.8-4.7 12.9-4 21.2 2.4 4.2 4.9 12.1 8.9 14.9 1.9 1.3 4.5 1.3 6.8 1.1 3.8-.3 26.8-3.9 22.8 5.4-.9 2.1-3.4 2.9-5.7 3.5-5.5 1.4-10.9 2.9-16.4 4.3-4.5 1.1-9.3 2.8-13.7.7-5.3-2.5-10.4-8.4-14.3-12.7 4.2 9.9 6.1 20.3 11.3 29.8 1.7 3.1 3.6 6.2 4.4 9.6.8 3.4.4 7.4-2.1 10-2.2.4-4.1-1.5-5.4-3.3-4.2-5.5-8.3-11-12.5-16.4 2 2.7 3.7 13.1.6 15.5-4.5 3.6-8.2-5.1-10.3-7.6-10.7-13.6-16.5-30.9-18.8-48-2 13 5.2 26.2 2.9 39.2-.2 1.2-.5 2.4-1.3 3.4s-2.1 1.6-3.2 1.2c-1.2-.4-1.9-1.7-2.3-2.9-4.2-10.2-8.1-20.9-8.4-32-.2-5.9.2-11.9.4-17.7.3-10.3 8.7-52.3 12.6-63.7l8.4-31.8z" class="st19"/></g></g></svg>