<?xml version="1.0" encoding="utf-8"?>
<!-- Generator: Adobe Illustrator 26.3.1, SVG Export Plug-In . SVG Version: 6.00 Build 0)  -->
<svg version="1.1" id="Camada_1" xmlns="http://www.w3.org/2000/svg" xmlns:xlink="http://www.w3.org/1999/xlink" x="0px" y="0px"
	 viewBox="0 0 50 50" style="enable-background:new 0 0 50 50;" xml:space="preserve">
<style type="text/css">
	.st0{fill:#A475EF;}
	.st1{fill:#BF94F7;}
	.st2{fill:#444444;}
	.st3{fill:none;stroke:#494949;stroke-linecap:round;stroke-linejoin:round;stroke-miterlimit:10;}
	.st4{fill-rule:evenodd;clip-rule:evenodd;fill:#494949;}
	.st5{fill:#494949;}
</style>
<g>
	<g>
		<path class="st0" d="M5,45.4l41.8-15.2V8.6c0-3-2.4-5.4-5.4-5.4H8.6c-3,0-5.4,2.4-5.4,5.4v32.8C3.2,42.9,3.9,44.4,5,45.4z"/>
		<path class="st1" d="M45,4.6c-1-0.9-2.3-1.4-3.6-1.4H8.6c-3,0-5.4,2.4-5.4,5.4v11.3C3.2,19.8,45,4.6,45,4.6z"/>
		<path class="st2" d="M25,48.1H8.5c-3.6,0-6.6-3-6.6-6.6V8.5c0-3.6,2.9-6.6,6.6-6.6h33.1c3.6,0,6.6,2.9,6.6,6.6v21.7
			c0,0.6-0.5,1.2-1.2,1.2c-0.7,0-1.2-0.5-1.2-1.2l0,0V8.5c0-2.3-1.9-4.2-4.2-4.2H8.5c-2.3,0-4.2,1.9-4.2,4.2v33.1
			c0,2.3,1.9,4.2,4.2,4.2H25c0.6,0,1.2,0.5,1.2,1.1S25.7,48.1,25,48.1C25.1,48.1,25,48.1,25,48.1z"/>
	</g>
	<g>
		<line class="st3" x1="25" y1="23.8" x2="25" y2="26.2"/>
		<line class="st3" x1="26.2" y1="25" x2="23.8" y2="25"/>
	</g>
	<path class="st4" d="M17.3,8.8h15.5c0.6,0,1.2,0.3,1.6,0.7c0.4,0.4,0.7,1,0.7,1.6V39c0,0.6-0.3,1.2-0.7,1.6v0
		c-0.4,0.4-1,0.7-1.6,0.7H17.3c-0.6,0-1.2-0.3-1.6-0.7c-0.4-0.4-0.7-1-0.7-1.6V11c0-0.6,0.3-1.2,0.7-1.6l0,0l0,0l0,0
		C16.1,9,16.7,8.8,17.3,8.8L17.3,8.8z M22.9,38.7h4.1c0.2,0,0.4-0.2,0.4-0.4c0-0.2-0.2-0.4-0.4-0.4h-4.1c-0.2,0-0.4,0.2-0.4,0.4
		C22.6,38.6,22.7,38.7,22.9,38.7L22.9,38.7z M17.3,11.9c-0.2,0-0.4,0.2-0.4,0.4v24c0,0.2,0.2,0.4,0.4,0.4h15.4
		c0.2,0,0.4-0.2,0.4-0.4v-24c0-0.2-0.2-0.4-0.4-0.4H17.3L17.3,11.9z M32.3,12.6H17.7v23.3h14.6V12.6L32.3,12.6z M32.7,9.5H17.3
		c-0.4,0-0.8,0.2-1.1,0.4h0c-0.3,0.3-0.4,0.7-0.4,1.1V39c0,0.4,0.2,0.8,0.4,1.1c0.3,0.3,0.7,0.4,1.1,0.4h15.5c0.4,0,0.8-0.2,1.1-0.4
		h0c0.3-0.3,0.4-0.7,0.4-1.1V11c0-0.4-0.2-0.8-0.4-1.1C33.5,9.7,33.1,9.5,32.7,9.5z"/>
	<g>
		<path class="st5" d="M21,19.9h0.9v2.5H21v-0.9h-0.9v0.9h-0.9v-2.5h0.9v0.9H21V19.9z"/>
		<path class="st5" d="M22.9,20.5h-0.9v-0.6h2.6v0.6h-0.9v1.9h-0.9V20.5z"/>
		<path class="st5" d="M27.3,20.3l0.5-0.4h0.3v2.5h-0.9v-1.1l-0.8,0.6l-0.8-0.6v1.1h-0.9v-2.5h0.3l0.5,0.4l0.8,0.6L27.3,20.3z"/>
		<path class="st5" d="M28.6,19.9h0.9v1.9h1.3v0.6h-2.2V19.9z"/>
	</g>
	<g>
		<path class="st5" d="M19.2,28.5c0-0.1,0-0.2,0-0.2V28.5c0-0.6,0.4-1,1-1h2.7v0.9h-2.1c-0.2,0-0.3,0.1-0.3,0.2V30
			c0,0.1,0.1,0.2,0.3,0.2h2.1v0.9h-2.7c-0.5,0-1-0.4-1-1v0.2c0-0.1,0-0.1,0-0.2V28.5z"/>
		<path class="st5" d="M26.6,28.5h-2c-0.1,0-0.1,0-0.1,0.1c0,0.1,0,0.1,0.1,0.1l0.8,0.2c0.5,0.1,0.9,0.2,1.2,0.6
			c0,0,0.1,0.2,0.1,0.2c0.1,0.2,0.1,0.4,0.1,0.6c-0.1,0.4-0.4,0.8-0.8,0.9c-0.1,0-0.1,0-0.2,0h-2.6v-1h2c0.1,0,0.1,0,0.1-0.1
			c0-0.1,0-0.1-0.1-0.1l-0.8-0.2c-0.5-0.1-1-0.2-1.2-0.7c-0.1-0.2-0.1-0.4-0.1-0.6c0.1-0.4,0.4-0.8,0.8-0.9c0.1,0,0.1,0,0.2,0h2.4
			V28.5z"/>
		<path class="st5" d="M30.6,28.5h-2c-0.1,0-0.1,0-0.1,0.1c0,0.1,0,0.1,0.1,0.1l0.8,0.2c0.5,0.1,0.9,0.2,1.2,0.6
			c0,0,0.1,0.2,0.1,0.2c0.1,0.2,0.1,0.4,0.1,0.6c-0.1,0.4-0.4,0.8-0.8,0.9c-0.1,0-0.1,0-0.2,0h-2.6v-1h2c0.1,0,0.1,0,0.1-0.1
			c0-0.1,0-0.1-0.1-0.1l-0.8-0.2c-0.5-0.1-1-0.2-1.2-0.7c-0.1-0.2-0.1-0.4-0.1-0.6c0.1-0.4,0.4-0.8,0.8-0.9c0.1,0,0.1,0,0.2,0h2.4
			V28.5z"/>
	</g>
</g>
</svg>
