<?xml version="1.0" encoding="UTF-8"?>
<svg xmlns="http://www.w3.org/2000/svg" version="1.1" viewBox="0 0 44.6 47.8">
  <defs>
    <style>
      .cls-1 {
        fill: #319327;
      }

      .cls-2, .cls-3, .cls-4, .cls-5 {
        fill: none;
        stroke: #444;
      }

      .cls-2, .cls-3, .cls-5 {
        stroke-linecap: round;
        stroke-linejoin: round;
      }

      .cls-3 {
        stroke-width: 2.5px;
      }

      .cls-6 {
        fill: #5aba52;
      }

      .cls-4 {
        stroke-miterlimit: 10;
      }

      .cls-5 {
        stroke-width: .5px;
      }
    </style>
  </defs>
  <!-- Generator: Adobe Illustrator 28.6.0, SVG Export Plug-In . SVG Version: 1.2.0 Build 709)  -->
  <g>
    <g id="Camada_1">
      <g id="Camada_2">
        <polygon class="cls-1" points="30 23 37.2 25.2 31.1 29.6 31.2 37.1 25.1 32.6 17.9 35 20.4 27.9 15.9 21.8 23.4 21.9 27.8 15.8 30 23"/>
        <g>
          <path class="cls-6" d="M41,6.8H3.1c-1.3,0-1.3,3.5-1.3,4.8l-.2,11.9-.5,9.4,1.1,10.8,11.4.6,29.6-10.5V9.2h0c0-1.3-1-2.4-2.3-2.4h0Z"/>
          <path class="cls-3" d="M36,44.9H4.3c-1.7,0-3.1-1.5-3.1-3.3V9.5c0-1.8,1.4-3.3,3.1-3.3h35.9c1.7,0,3.1,1.5,3.1,3.3v25.3"/>
          <g>
            <g>
              <path class="cls-4" d="M32.8,42.5v-.5c0-.5.2-1,.5-1.5l5.1-6c.3-.4.6-.8.8-1.2h0c.3-.6.4-1.3.4-2v-11.4c0-.4-.3-.7-.8-.7h-.8c-1.1,0-2.1.8-2.2,2l-.8,5.5"/>
              <path class="cls-2" d="M26,42.5v-6.8c0-1,.3-2.1,1.1-2.8l5.5-5.5c.9-.9,2.3-.9,3.2,0h0c.9.9.9,2.3,0,3.2l-3,3"/>
              <path class="cls-4" d="M24.5,44.7h0c0-1.2,1-2.3,2.3-2.3h6c1.2,0,2.3,1,2.3,2.3h0"/>
              <path class="cls-4" d="M11.7,42.5v-.5c0-.5-.2-1-.5-1.5l-5.1-6c-.3-.4-.6-.8-.8-1.2h0c-.3-.6-.4-1.3-.4-2v-11.4c0-.4.3-.7.8-.7h.8c1.1,0,2.1.8,2.2,2l.8,5.5"/>
              <path class="cls-2" d="M18.5,42.5v-6.8c0-1-.3-2.1-1.1-2.8l-5.5-5.5c-.9-.9-2.3-.9-3.2,0h0c-.9.9-.9,2.3,0,3.2l3,3"/>
              <path class="cls-4" d="M20,44.7h0c0-1.2-1-2.3-2.3-2.3h-6c-1.2,0-2.3,1-2.3,2.3h0"/>
            </g>
            <g>
              <polyline class="cls-5" points="27.1 15.5 27.1 12.3 26.2 12.3"/>
              <polyline class="cls-5" points="34.1 15.5 34.1 12.3 33.3 12.3"/>
              <path class="cls-5" d="M28.6,18.4v2c-.3.3-.7.6-1.1.6s-.9-.2-1.1-.6v-2c.3-.3.7-.6,1.1-.6s.9.2,1.1.6Z"/>
              <path class="cls-5" d="M35.6,18.4v2c-.3.3-.7.6-1.1.6s-.9-.2-1.1-.6v-2c.3-.3.7-.6,1.1-.6s.9.2,1.1.6Z"/>
              <path class="cls-5" d="M31.7,12.9v2c-.2.3-.7.6-1.1.6s-.9-.2-1.1-.6v-2c.3-.3.7-.6,1.1-.6s.9.2,1.1.6Z"/>
              <polyline class="cls-5" points="34.1 26.4 34.1 23.3 33.3 23.3"/>
              <path class="cls-5" d="M31.7,23.8v2c-.3.3-.7.6-1.1.6s-.9-.2-1.1-.6v-2c.3-.3.7-.6,1.1-.6s.9.2,1.1.6Z"/>
            </g>
            <g>
              <g>
                <polyline class="cls-5" points="9.9 15.5 9.9 12.3 9.3 12.3"/>
                <polyline class="cls-5" points="16.9 15.5 16.9 12.3 16.1 12.3"/>
                <path class="cls-5" d="M11.4,18.4v2c-.3.3-.7.6-1.1.6s-.9-.2-1.2-.6v-2c.3-.3.7-.6,1.1-.6s1,.2,1.2.6Z"/>
                <path class="cls-5" d="M18.4,18.4v2c-.3.3-.7.6-1.1.6s-.9-.2-1.1-.6v-2c.3-.3.7-.6,1.1-.6s.9.2,1.1.6Z"/>
                <polyline class="cls-5" points="20.8 21 20.8 17.8 20 17.8"/>
                <path class="cls-5" d="M14.5,12.9v2c-.3.3-.7.6-1.1.6s-.9-.2-1.1-.6v-2c.3-.3.7-.6,1.1-.6s.9.2,1.1.6Z"/>
                <path class="cls-5" d="M21.6,12.9v2c-.3.3-.7.6-1.2.6s-.9-.2-1.1-.6v-2c.3-.3.7-.6,1.1-.6s.9.2,1.2.6Z"/>
                <polyline class="cls-5" points="23.9 15.5 23.9 12.3 23.1 12.3"/>
                <polyline class="cls-5" points="16.9 26.4 16.9 23.3 16.1 23.3"/>
                <path class="cls-5" d="M14.5,23.8v2c-.3.3-.7.6-1.1.6s-.9-.2-1.1-.6v-2c.3-.3.7-.6,1.1-.6s.9.2,1.1.6Z"/>
                <polyline class="cls-5" points="23.9 26.4 23.9 23.3 23.1 23.3"/>
              </g>
              <g>
                <polyline class="cls-5" points="16.9 31.1 16.9 27.9 16.1 27.9"/>
                <polyline class="cls-5" points="20.8 36.5 20.8 33.4 20 33.4"/>
                <path class="cls-5" d="M21.6,28.5v2c-.3.3-.7.6-1.2.6s-.9-.2-1.1-.6v-2c.3-.3.7-.6,1.1-.6s.9.2,1.2.6Z"/>
                <polyline class="cls-5" points="23.9 31.1 23.9 27.9 23.1 27.9"/>
              </g>
              <g>
                <polyline class="cls-5" points="27.1 31.1 27.1 27.9 26.2 27.9"/>
                <path class="cls-5" d="M24.2,33.9v2c-.3.3-.7.6-1.1.6s-.9-.2-1.1-.6v-2c.3-.3.7-.6,1.1-.6s.9.2,1.1.6Z"/>
              </g>
            </g>
          </g>
        </g>
      </g>
    </g>
  </g>
</svg>