<?xml version="1.0" encoding="UTF-8"?>
<svg xmlns="http://www.w3.org/2000/svg" version="1.1" viewBox="0 0 50 50">
  <defs>
    <style>
      .cls-1 {
        fill: #f9f941;
      }

      .cls-2 {
        stroke-miterlimit: 10;
        stroke-width: .5px;
      }

      .cls-2, .cls-3, .cls-4 {
        fill: none;
        stroke: #444;
      }

      .cls-3, .cls-4 {
        stroke-linecap: round;
        stroke-linejoin: round;
      }

      .cls-4 {
        stroke-width: 2.5px;
      }

      .cls-5 {
        fill: #444;
      }

      .cls-6 {
        fill: #d1bd00;
      }
    </style>
  </defs>
  <!-- Generator: Adobe Illustrator 28.6.0, SVG Export Plug-In . SVG Version: 1.2.0 Build 709)  -->
  <g>
    <g id="Camada_1">
      <g>
        <polygon class="cls-6" points="30.1 21.2 38 23.7 31.3 28.4 31.4 36.6 24.8 31.7 17 34.3 19.7 26.6 14.8 20 23 20.1 27.7 13.4 30.1 21.2"/>
        <g>
          <path class="cls-1" d="M47.7,20.2c-.2-.8-2.7-7.5-3.2-8.1l-3-3.5h-.2c0,0-7.6-5.7-7.6-5.7l-7.8-.7c-3.2,0-14.5.3-21.4,10.2L.5,23.1h-.2c0,0,4,13.5,4,13.5.1.4,4.5,5.7,4.9,5.9l5.6,3,32.2-11.7c.7-.4,1.7-8.6.8-13.4Z"/>
          <g>
            <path class="cls-4" d="M32,47.5c-7,2.3-15,1.2-21.3-3.6C.3,36.2-1.8,21.5,6,11.1"/>
            <path class="cls-4" d="M5.9,11.3c2-3,4.7-4.7,4.7-4.7l.7-.5C19.3.4,30.5.2,38.8,6.5c10.4,7.8,12.4,22.5,4.7,32.8"/>
          </g>
          <path class="cls-2" d="M20.3,17s3.1.6,5.4-.6.7-.4,1-.5c1-.3,1.9.8,1.3,1.7s-1.4,1.3-3.4,1.5c-4.3.5-5.8,0-5.5-1.4s1.3-.7,1.3-.7Z"/>
          <path class="cls-3" d="M8.5,22.5s3.4,5.5,5.9,5.4,5.8-2,6.6-.3-1.9,2.5-1.9,2.5c0,0,5.2-.5,5,3.4s-5.5,4.5-10.3,3.1-8.6-7.1-9.5-9.8"/>
          <path class="cls-3" d="M39.4,18.8s-2.1,6.1-4.6,6.6-6.1-.7-6.5,1.2,2.4,2.1,2.4,2.1c0,0-5.2.7-4.2,4.4s6.4,3.1,10.7.7,6.8-8.9,7-11.7"/>
          <circle class="cls-5" cx="14.7" cy="13.4" r="1.5"/>
          <circle class="cls-5" cx="30.7" cy="12.2" r="1.5"/>
          <path class="cls-3" d="M16.3,8.5s-3.4-.4-5.7,2.9"/>
          <path class="cls-3" d="M29.3,7.7s3.3-.8,6,2.2"/>
        </g>
      </g>
    </g>
  </g>
</svg>
