<?xml version="1.0" encoding="UTF-8"?>
<svg xmlns="http://www.w3.org/2000/svg" version="1.1" viewBox="0 0 44.6 47.8">
  <defs>
    <style>
      .cls-1 {
        stroke-width: .5px;
      }

      .cls-1, .cls-2, .cls-3, .cls-4 {
        fill: none;
        stroke: #444;
      }

      .cls-1, .cls-4 {
        stroke-miterlimit: 10;
      }

      .cls-2, .cls-3 {
        stroke-linecap: round;
        stroke-linejoin: round;
      }

      .cls-3 {
        stroke-width: 2.5px;
      }

      .cls-5 {
        fill: #7df4eb;
      }

      .cls-6 {
        fill: #444;
      }

      .cls-7 {
        fill: #35d3c3;
      }
    </style>
  </defs>
  <!-- Generator: Adobe Illustrator 28.6.0, SVG Export Plug-In . SVG Version: 1.2.0 Build 709)  -->
  <g>
    <g id="Camada_2">
      <g>
        <polygon class="cls-7" points="26.4 22.9 33.4 25.1 27.4 29.3 27.5 36.7 21.6 32.3 14.6 34.7 17 27.7 12.6 21.8 19.9 21.9 24.2 15.9 26.4 22.9"/>
        <g>
          <path class="cls-5" d="M43.1,20.5c-.1-.7-2.4-6.7-2.9-7.3l-2.7-3.1h-.2c0,0-6.8-5.1-6.8-5.1l-7-.6c-2.9,0-13,.2-19.2,9.2L.8,23.1h-.2c0,0,3.6,12.1,3.6,12.1,0,.3,4.1,5.1,4.4,5.2l5,2.7,28.9-10.5c.6-.3,1.5-7.8.7-12Z"/>
          <g>
            <path class="cls-3" d="M29,45c-6.3,2-13.4,1.1-19.1-3.2C.6,34.8-1.3,21.7,5.7,12.4"/>
            <path class="cls-3" d="M5.6,12.5c1.8-2.7,4.2-4.2,4.2-4.2l.6-.5c7.2-5.1,17.3-5.2,24.7.4,9.3,7,11.2,20.2,4.2,29.5"/>
          </g>
          <g>
            <path class="cls-4" d="M18.5,42.3l.4-.3c.4-.3.8-.5,1.3-.5l7.4-.3c.5,0,.9-.1,1.4-.3h0c.6-.2,1.2-.5,1.6-1l7.9-7.2c.3-.3.3-.7,0-1l-.5-.6c-.7-.8-1.9-.9-2.8-.3l-4.3,3"/>
            <path class="cls-2" d="M14.2,37.6l4.7-4.3c.8-.6,1.6-1.1,2.7-1l7.3.3c1.2,0,2.1,1,2,2.2h0c0,1.2-1,2.1-2.2,2l-4-.2"/>
            <path class="cls-4" d="M18.3,45.2h0c.9-.8.9-2.1.1-3l-3.8-4.2c-.8-.9-2.1-.9-3-.1h0s-3.2,2.5-3.2,2.5"/>
            <path class="cls-4" d="M5.2,27.7l.4-.3c.4-.3.6-.8.7-1.3l1-7.3c0-.5.2-.9.4-1.3h0c.3-.6.6-1.1,1.1-1.5l7.9-7.1c.3-.3.7-.2,1,0l.5.6c.7.8.7,2,0,2.8l-3.4,4"/>
            <path class="cls-2" d="M9.5,32.4l4.7-4.3c.7-.7,1.2-1.5,1.3-2.6l.3-7.3c0-1.2-.8-2.2-2-2.2h0c-1.2,0-2.2.8-2.2,2l-.2,4"/>
            <path class="cls-4" d="M8.9,34.8h0c.9-.8.9-2.1.1-3l-3.8-4.2c-.8-.9-2.1-.9-3-.1h0"/>
          </g>
          <line class="cls-4" x1="8.9" y1="34.8" x2="6.3" y2="37.8"/>
          <g>
            <path class="cls-1" d="M24.1,10.2c7.2,0,13,5.7,13.3,12.8"/>
            <polygon class="cls-6" points="35.2 21.5 35.6 21.1 37.4 22.8 38.9 20.9 39.3 21.2 37.4 23.5 35.2 21.5"/>
          </g>
          <g>
            <path class="cls-1" d="M20.4,13.9c7.1.3,12.8,6.1,12.8,13.3"/>
            <polygon class="cls-6" points="21.9 16.1 22.3 15.8 20.6 14 22.6 12.4 22.3 12.1 19.9 13.9 21.9 16.1"/>
          </g>
        </g>
      </g>
    </g>
  </g>
</svg>