<?xml version="1.0" encoding="utf-8"?>
<!-- Generator: Adobe Illustrator 28.0.0, SVG Export Plug-In . SVG Version: 6.00 Build 0)  -->
<svg version="1.1" id="Layer_1" xmlns="http://www.w3.org/2000/svg" xmlns:xlink="http://www.w3.org/1999/xlink" x="0px" y="0px"
	 viewBox="0 0 50 50" style="enable-background:new 0 0 50 50;" xml:space="preserve">
<style type="text/css">
	.st0{fill:#E589EF;}
	.st1{fill:none;stroke:#444444;stroke-linecap:round;stroke-linejoin:round;stroke-miterlimit:10;}
	.st2{fill:none;stroke:#444444;stroke-width:0.5;stroke-linecap:round;stroke-linejoin:round;stroke-miterlimit:10;}
	.st3{fill:none;stroke:#444444;stroke-width:2.5;stroke-linecap:round;stroke-linejoin:round;stroke-miterlimit:10;}
</style>
<path class="st0" d="M47.3,19.2L38,17.6l0.8-6.2c-0.2-1.9-5.6-7.3-7.4-8.1l-7-1.1C11.1,4.7,12.5,14.8,12.5,17.9l-8.3,1L3.9,45.7
	C4,47,5,48,6.3,48.1L17,48.6L46.8,38C47.5,37.6,48.2,21.1,47.3,19.2z"/>
<path class="st1" d="M4.7,46.4V21.3c0-1.4,1.1-2.5,2.5-2.5H16 M34.5,18.8H45 M5,42.3h33.9"/>
<circle class="st1" cx="35.7" cy="25.7" r="2.1"/>
<path class="st2" d="M35.7,27.8v4.7l-4.9,3.3v6.3"/>
<circle class="st1" cx="15.2" cy="25.7" r="2.1"/>
<path class="st2" d="M15.2,27.8v4.7l4.8,3.3v6.3 M25.4,35.2V42 M25.4,25.5v5"/>
<circle class="st1" cx="25.4" cy="32.8" r="2.1"/>
<path class="st2" d="M20.3,27.2V31 M30.6,27.2V31"/>
<path class="st1" d="M32.7,15.5l0.5-0.5c2.7-2.6,0.1-7.1-3.5-6L29,9.2l-0.2-0.7c-0.9-3.7-6.1-3.7-7,0l-0.2,0.7L21,8.9
	c-3.6-1.1-6.2,3.4-3.5,6l0.5,0.5L17.5,16c-2.7,2.6-0.1,7.1,3.5,6l0.7-0.2l0.2,0.7c0.4,1.8,2,2.7,3.5,2.7s3.1-0.9,3.5-2.7l0.2-0.7
	l0.7,0.2c3.6,1.1,6.2-3.4,3.5-6C33.3,16,32.7,15.5,32.7,15.5z"/>
<circle class="st1" cx="25.4" cy="15.5" r="2.1"/>
<circle class="st1" cx="25.5" cy="45.2" r="1.3"/>
<path class="st3" d="M47.2,39.9V21.6c0-2.1-1.7-3.7-3.7-3.7h-5c0.1-0.8,0.2-1.5,0.2-2.3c0-7.3-5.9-13.2-13.2-13.2
	S12.3,8.3,12.3,15.6c0,0.8,0.1,1.6,0.2,2.3H7.6c-2.1,0-3.7,1.7-3.7,3.7v23.1c0,2.1,1.7,3.7,3.7,3.7h30.1"/>
</svg>
