<?xml version="1.0" encoding="utf-8"?>
<!-- Generator: Adobe Illustrator 28.0.0, SVG Export Plug-In . SVG Version: 6.00 Build 0)  -->
<svg version="1.1" id="Layer_1" xmlns="http://www.w3.org/2000/svg" xmlns:xlink="http://www.w3.org/1999/xlink" x="0px" y="0px"
	 viewBox="0 0 50 50" style="enable-background:new 0 0 50 50;" xml:space="preserve">
<style type="text/css">
	.st0{fill:#00DFFC;}
	.st1{fill:none;stroke:#444444;stroke-linecap:round;stroke-linejoin:round;stroke-miterlimit:10;}
	.st2{fill:none;stroke:#444444;stroke-width:0.5;stroke-linecap:round;stroke-linejoin:round;stroke-miterlimit:10;}
	.st3{fill:none;stroke:#444444;stroke-width:2.5;stroke-linecap:round;stroke-linejoin:round;stroke-miterlimit:10;}
</style>
<g>
	<path class="st0" d="M47.3,19.2L38,17.6l0.8-6.2c-0.2-1.9-5.6-7.3-7.4-8.1l-7-1.1C11.1,4.7,12.5,14.8,12.5,17.9l-8.3,1L3.9,45.7
		C4,47,5,48,6.3,48.1L17,48.6L46.8,38C47.5,37.6,48.2,21.1,47.3,19.2z"/>
	<g>
		<g>
			<g>
				<path class="st1" d="M4.7,46.4V21.3c0-1.4,1.1-2.5,2.5-2.5H16"/>
				<path class="st1" d="M34.5,18.8H45"/>
				<line class="st1" x1="5" y1="42.3" x2="38.9" y2="42.3"/>
			</g>
			<g>
				<g>
					<g>
						<g>
							
								<ellipse transform="matrix(0.9732 -0.2298 0.2298 0.9732 -4.9589 8.8831)" class="st1" cx="35.7" cy="25.7" rx="2.1" ry="2.1"/>
							<polyline class="st2" points="35.7,27.8 35.7,32.5 30.8,35.8 30.8,42.1 							"/>
						</g>
						<g>
							<circle class="st1" cx="15.2" cy="25.7" r="2.1"/>
							<polyline class="st2" points="15.2,27.8 15.2,32.5 20,35.8 20,42.1 							"/>
						</g>
					</g>
					<line class="st2" x1="25.4" y1="35.2" x2="25.4" y2="42"/>
					<line class="st2" x1="25.4" y1="25.5" x2="25.4" y2="30.5"/>
					<circle class="st1" cx="25.4" cy="32.8" r="2.1"/>
					<g>
						<line class="st2" x1="20.3" y1="27.2" x2="20.3" y2="31"/>
						<line class="st2" x1="30.6" y1="27.2" x2="30.6" y2="31"/>
					</g>
				</g>
				<path class="st1" d="M32.7,15.5l0.5-0.5c2.7-2.6,0.1-7.1-3.5-6l-0.7,0.2l-0.2-0.7c-0.9-3.7-6.1-3.7-7,0l-0.2,0.7L21,8.9
					c-3.6-1.1-6.2,3.4-3.5,6l0.5,0.5L17.5,16c-2.7,2.6-0.1,7.1,3.5,6l0.7-0.2l0.2,0.7c0.4,1.8,2,2.7,3.5,2.7c1.5,0,3.1-0.9,3.5-2.7
					l0.2-0.7l0.7,0.2c3.6,1.1,6.2-3.4,3.5-6L32.7,15.5z"/>
				<ellipse transform="matrix(0.2298 -0.9732 0.9732 0.2298 4.4906 36.6665)" class="st1" cx="25.4" cy="15.5" rx="2.1" ry="2.1"/>
				<circle class="st1" cx="25.5" cy="45.2" r="1.3"/>
			</g>
		</g>
		<path class="st3" d="M47.2,39.9V21.6c0-2.1-1.7-3.7-3.7-3.7h-5c0.1-0.8,0.2-1.5,0.2-2.3c0-7.3-5.9-13.2-13.2-13.2
			S12.3,8.3,12.3,15.6c0,0.8,0.1,1.6,0.2,2.3H7.6c-2.1,0-3.7,1.7-3.7,3.7v23.1c0,2.1,1.7,3.7,3.7,3.7h30.1"/>
	</g>
</g>
</svg>
