<?xml version="1.0" encoding="utf-8"?>
<!-- Generator: Adobe Illustrator 28.0.0, SVG Export Plug-In . SVG Version: 6.00 Build 0)  -->
<svg version="1.1" id="Layer_1" xmlns="http://www.w3.org/2000/svg" xmlns:xlink="http://www.w3.org/1999/xlink" x="0px" y="0px"
	 viewBox="0 0 50 50" style="enable-background:new 0 0 50 50;" xml:space="preserve">
<style type="text/css">
	.st0{fill:#04AD49;}
	.st1{fill:#22DD6D;}
	.st2{fill:none;stroke:#444444;stroke-width:2.5;stroke-linecap:round;stroke-linejoin:round;stroke-miterlimit:10;}
	.st3{fill:none;stroke:#444444;stroke-linecap:square;stroke-linejoin:round;}
	.st4{fill:none;stroke:#444444;stroke-width:0.5;stroke-linecap:round;stroke-linejoin:round;}
	.st5{fill:none;stroke:#444444;stroke-linecap:round;stroke-linejoin:round;}
</style>
<polygon class="st0" points="30.5,19.8 38.3,22.2 31.6,26.9 31.7,35.1 25.2,30.2 17.4,32.9 20,25.1 15.1,18.5 23.3,18.6 28.1,11.9 
	"/>
<path class="st1" d="M44.6,12.4l-5.6-3.6l-7.7-4.4l-6-2.8c-3.2,0-21.5,8.9-21.5,12.1l-0.5,7.8l0.5,15.1l11.5,7.6l31-11
	C47.1,32.7,45.6,14.4,44.6,12.4z"/>
<g>
	<g>
		<path class="st2" d="M29.8,46.5l-2.2,1.3c-1.7,1-3.8,1-5.5,0l-15.6-9c-1.7-1-2.7-2.8-2.7-4.7V16c0-2,1-3.8,2.7-4.7l15.6-9
			c1.7-1,3.8-1,5.5,0l15.6,9c1.7,1,2.7,2.8,2.7,4.7v18c0,2-1,3.8-2.7,4.7l-2.5,1.4"/>
	</g>
</g>
<polyline class="st3" points="33.8,32.8 35.5,32.8 35.5,35.1 12.2,35.1 12.2,32.8 13.9,32.8 "/>
<line class="st4" x1="33.8" y1="29.2" x2="18.3" y2="29.2"/>
<polyline class="st4" points="22.8,29.2 19,22.2 14.1,25.4 "/>
<circle class="st4" cx="23.9" cy="23.5" r="2.1"/>
<polyline class="st5" points="25.3,35.1 25.3,39.7 22.5,39.7 22.5,35.1 "/>
<polyline class="st5" points="20,35.1 17.3,39.7 14.5,39.7 17.2,35.1 "/>
<polyline class="st5" points="27.7,35.1 30.4,39.7 33.2,39.7 30.5,35.1 "/>
<g>
	<path class="st4" d="M30.2,19.4c0.3,1.1,1.4,1.9,2.6,1.9c1.2,0,2.2-0.8,2.6-1.9H30.2z"/>
	<g>
		<path class="st4" d="M27.3,19.4h-0.6c-0.3,0-0.6-0.2-0.6-0.6V18c0-0.3,0.2-0.6,0.6-0.6h0.6"/>
		<path class="st4" d="M38.3,19.4H39c0.3,0,0.6-0.2,0.6-0.6V18c0-0.3-0.2-0.6-0.6-0.6h-0.6"/>
	</g>
	<line class="st4" x1="32.8" y1="13.8" x2="32.8" y2="11.5"/>
	<path class="st4" d="M31.8,10.5c0-0.6,0.5-1,1-1c0.6,0,1,0.5,1,1c0,0.6-0.5,1-1,1C32.3,11.5,31.8,11.1,31.8,10.5z"/>
	<g>
		<path class="st4" d="M30.1,17.4c0-0.5,0.4-0.8,0.8-0.8c0.5,0,0.8,0.4,0.8,0.8"/>
		<path class="st4" d="M33.8,17.4c0-0.5,0.4-0.8,0.8-0.8c0.5,0,0.8,0.4,0.8,0.8"/>
	</g>
	<path class="st4" d="M36.1,13.9h-6.5c-1.2,0-2.2,1-2.2,2.2V21c0,1.2,1,2.2,2.2,2.2h0.5c0,0,0,0,0,0V26c0,0,0,0,0,0l2.8-2.8
		c0,0,0,0,0,0h3.2c1.2,0,2.2-1,2.2-2.2v-4.9C38.3,14.9,37.3,13.9,36.1,13.9z"/>
</g>
<polyline class="st3" points="13.9,32.4 13.9,18.3 25.8,18.3 "/>
<line class="st3" x1="33.8" y1="32.8" x2="33.8" y2="23.5"/>
<line class="st4" x1="14" y1="33.1" x2="17.8" y2="33.1"/>
<line class="st4" x1="21.2" y1="33.1" x2="33.6" y2="33.1"/>
</svg>
