<svg xmlns="http://www.w3.org/2000/svg" id="Camada_1" data-name="Camada 1" viewBox="0 0 300 300"><defs><style>.cls-1{fill:#a08500}.cls-2{fill:#ffda00}.cls-3{fill:#dd437a}.cls-4{fill:#9e325e}.cls-5{fill:#07e570}.cls-8{fill:#07a54e}</style></defs><path id="Camada_10" fill="#008dd3" d="M272.3 149.45c.1 19.8-4.1 38.6-11.6 55.7-21.1 47.6-68.6 80.8-124 81-14.7.1-28.9-2.3-42.2-6.5-25-8-46.8-23-63.1-42.8-17-20.4-28.1-46-30.8-74-.4-4-.6-8.2-.6-12.3-.2-46.2 22.7-87.2 57.9-111.9 4.6-3.3 9.4-6.2 14.4-8.8 7-3.8 14.4-6.8 22-9.4 7.2-2.3 14.7-4 22.4-5.2 6.2-.8 12.5-1.3 18.9-1.4 25-.1 48.5 6.6 68.8 18.3 3.7 2.1 7.1 4.3 10.5 6.8 16.2 11.5 29.8 26.5 39.7 43.9 1.1 2 2.2 3.9 3.2 6 .8 1.8 1.7 3.5 2.5 5.3 2.6 5.8 4.8 11.7 6.6 17.8 2 6.8 3.5 13.9 4.3 21 .7 5.4 1.1 10.9 1.1 16.5z" data-name="Camada 10"/><path d="M166.44 135.61c-21.91-20.78-58.99-38.76-91.51-38.81l-2.8 34.07c.87-.03 1.75-.04 2.62-.04 27.08 0 53.36 15.27 69.37 34.62 4.43-9.33 13.62-15.46 17.94-24.94l4.37-4.91z" class="cls-8"/><path d="M87.57 84.02l-52.65 25.59 7.48 5.59h47.54l2.25-29.76-4.62-1.42z" class="cls-8"/><path d="M87.57 84.02l-5.05 66.58-51.73-38.26c-.35-.26-.3-.79.09-.98l56.69-27.34z" class="cls-5"/><path d="M140.96 182.69c4.9-11.11 13.99-33.53 21.81-42.63-22.27-23.66-57.71-41.16-92.75-41.21l-2.8 34.07c.87-.03 1.75-.04 2.62-.04 28.57 0 66.13 20.43 71.11 49.81z" class="cls-5"/><path d="M168.88 1.32l-6.12-.61 1.44 2.99-28.22 48.73h50.58l11.09 3.25 4.83-2.69-33.6-51.67z" class="cls-1"/><path d="M152.4 48.01v62.68c5.52 4.51 6.2 22.21 11.23 27.71 5.58-5.44 16.2-16.92 23.2-21.08V48.01h-34.42z" class="cls-1"/><path d="M131.96 55.74h65.69L163.06.7a.178.178 0 00-.3 0l-31.34 54.09c-.24.42.06.94.54.94z" class="cls-2"/><path d="M146.15 51.32v74.02c6.26 4.51 11.01 10.97 16.04 16.47 5.58-5.44 12.13-16.58 18.94-20.88V51.32h-34.98z" class="cls-2"/><path d="M264.5 97.88c-50.48.07-93.7 28.37-112.39 73.1s0 .01 0 .01c-.02.04-.03.08-.05.12h.02c-9.81 21.55-3.84 89.44-3.07 126.84 0 0 38.76 2.17 38.67.63-1.53-28.34-3.87-91.75.15-115.56a42.996 42.996 0 019.5-20.5c16.01-19.04 40.23-31.18 67.34-31.18.88 0 1.75 0 2.62.02l-2.8-33.48z" class="cls-4"/><path d="M257.35 95.52a.836.836 0 00-.83-.76c-50.15.36-93.03 28.96-111.62 74.47-.02.04-.03.08-.05.12h.02c-9.54 21.35-2.67 90.3-1.63 128.08.02.74.62 1.34 1.36 1.36 6.78.17 37.28.88 37.26.46-1.61-30.98-5.5-91.81-1.27-117.56a44.52 44.52 0 019.67-21.26c16.01-19.3 40.17-31.6 67.21-31.6h1.72c.48 0 .87-.41.83-.89l-2.66-32.42z" class="cls-3"/><path d="M298.56 114.86l.13-.09-1.25-6.89-.12-.06-.02-.13-.13.06-50.89-24.54 3.51 46.28-.89.41-4.1 16.62 5.23 4.21 1.3-.96v.02l47.18-34.89.05-.04z" class="cls-4"/><path d="M239.75 79.94l5.05 66.58 52.5-38.83-57.55-27.75z" class="cls-3"/><path fill="none" stroke="#fff" stroke-linecap="round" stroke-linejoin="round" stroke-width="7" d="M191.96 127.79s-30.81 15.83-41.96 70.72m23.91-83.31V63.7m-11.13-49.85L144.3 48.01h8.1M150 138.4s-41.45-30.36-64.6-28.65m-41.44 3.48l30.64 19.83 2.97-15.75" opacity=".33"/></svg>