<?xml version="1.0" encoding="UTF-8"?>
<svg id="Camada_1" data-name="Camada 1" xmlns="http://www.w3.org/2000/svg" viewBox="0 0 300 300">
  <defs>
    <style>
      .cls-1 {
        fill: #a08500;
      }

      .cls-2 {
        fill: #ffda00;
      }

      .cls-3 {
        fill: #dd437a;
      }

      .cls-4 {
        fill: #9e325e;
      }

      .cls-5 {
        fill: #07e570;
      }

      .cls-6 {
        fill: #008dd3;
      }

      .cls-7 {
        fill: none;
        opacity: .33;
        stroke: #fff;
        stroke-linecap: round;
        stroke-linejoin: round;
        stroke-width: 7px;
      }

      .cls-8 {
        fill: #07a54e;
      }
    </style>
  </defs>
  <g id="Camada_10" data-name="Camada 10">
    <path class="cls-6" d="M272.3,149.45c.1,19.8-4.1,38.6-11.6,55.7-21.1,47.6-68.6,80.8-124,81-14.7.1-28.9-2.3-42.2-6.5-25-8-46.8-23-63.1-42.8C14.4,216.45,3.3,190.85.6,162.85.2,158.85,0,154.65,0,150.55-.2,104.35,22.7,63.35,57.9,38.65c4.6-3.3,9.4-6.2,14.4-8.8,7-3.8,14.4-6.8,22-9.4,7.2-2.3,14.7-4,22.4-5.2,6.2-.8,12.5-1.3,18.9-1.4,25-.1,48.5,6.6,68.8,18.3,3.7,2.1,7.1,4.3,10.5,6.8,16.2,11.5,29.8,26.5,39.7,43.9,1.1,2,2.2,3.9,3.2,6,.8,1.8,1.7,3.5,2.5,5.3,2.6,5.8,4.8,11.7,6.6,17.8,2,6.8,3.5,13.9,4.3,21h0c.7,5.4,1.1,10.9,1.1,16.5Z"/>
  </g>
  <g>
    <g>
      <g>
        <path class="cls-8" d="M166.44,135.61c-21.91-20.78-58.99-38.76-91.51-38.81l-2.8,34.07c.87-.03,1.75-.04,2.62-.04,27.08,0,53.36,15.27,69.37,34.62,4.43-9.33,13.62-15.46,17.94-24.94l4.37-4.91Z"/>
        <polygon class="cls-8" points="87.57 84.02 34.92 109.61 42.4 115.2 89.94 115.2 92.19 85.44 87.57 84.02"/>
        <g>
          <path class="cls-5" d="M87.57,84.02l-5.05,66.58-51.73-38.26c-.35-.26-.3-.79.09-.98l56.69-27.34Z"/>
          <path class="cls-5" d="M140.96,182.69c4.9-11.11,13.99-33.53,21.81-42.63-22.27-23.66-57.71-41.16-92.75-41.21l-2.8,34.07c.87-.03,1.75-.04,2.62-.04,28.57,0,66.13,20.43,71.11,49.81Z"/>
        </g>
      </g>
      <g>
        <polygon class="cls-1" points="168.88 1.32 162.76 .71 164.2 3.7 135.98 52.43 186.56 52.43 197.65 55.68 202.48 52.99 168.88 1.32"/>
        <path class="cls-1" d="M152.4,48.01v62.68c5.52,4.51,6.2,22.21,11.23,27.71,5.58-5.44,16.2-16.92,23.2-21.08V48.01h-34.42Z"/>
        <g>
          <path class="cls-2" d="M131.96,55.74h65.69L163.06.7c-.07-.11-.23-.11-.3,0l-31.34,54.09c-.24.42.06.94.54.94Z"/>
          <path class="cls-2" d="M146.15,51.32v74.02c6.26,4.51,11.01,10.97,16.04,16.47,5.58-5.44,12.13-16.58,18.94-20.88V51.32h-34.98Z"/>
        </g>
      </g>
      <g>
        <path class="cls-4" d="M264.5,97.88c-50.48.07-93.7,28.37-112.39,73.1h0s0,.01,0,.01c-.02.04-.03.08-.05.12h.02c-9.81,21.55-3.84,89.44-3.07,126.84,0,0,38.76,2.17,38.67.63-1.53-28.34-3.87-91.75.15-115.56,1.27-7.53,4.55-14.61,9.5-20.5,16.01-19.04,40.23-31.18,67.34-31.18.88,0,1.75,0,2.62.02l-2.8-33.48Z"/>
        <path class="cls-3" d="M257.35,95.52c-.04-.43-.4-.76-.83-.76-50.15.36-93.03,28.96-111.62,74.47h0s0,0,0,0c-.02.04-.03.08-.05.12h.02c-9.54,21.35-2.67,90.3-1.63,128.08.02.74.62,1.34,1.36,1.36,6.78.17,37.28.88,37.26.46-1.61-30.98-5.5-91.81-1.27-117.56,1.28-7.82,4.61-15.17,9.67-21.26,16.01-19.3,40.17-31.6,67.21-31.6.58,0,1.15,0,1.72,0,.48,0,.87-.41.83-.89l-2.66-32.42Z"/>
        <polygon class="cls-4" points="298.56 114.86 298.69 114.77 297.44 107.88 297.32 107.82 297.3 107.69 297.17 107.75 246.28 83.21 249.79 129.49 248.9 129.9 244.8 146.52 250.03 150.73 251.33 149.77 251.33 149.79 298.51 114.9 298.56 114.86 298.56 114.86"/>
        <polygon class="cls-3" points="239.75 79.94 244.8 146.52 297.3 107.69 239.75 79.94"/>
      </g>
    </g>
    <path class="cls-7" d="M191.96,127.79s-30.81,15.83-41.96,70.72"/>
    <line class="cls-7" x1="173.91" y1="115.2" x2="173.91" y2="63.7"/>
    <polyline class="cls-7" points="162.78 13.85 144.3 48.01 152.4 48.01"/>
    <path class="cls-7" d="M150,138.4s-41.45-30.36-64.6-28.65"/>
    <polyline class="cls-7" points="43.96 113.23 74.6 133.06 77.57 117.31"/>
  </g>
</svg>