<?xml version="1.0" encoding="UTF-8"?>
<svg id="Camada_1" xmlns="http://www.w3.org/2000/svg" version="1.1" xmlns:xlink="http://www.w3.org/1999/xlink" viewBox="0 0 300 300">
  <!-- Generator: Adobe Illustrator 29.8.2, SVG Export Plug-In . SVG Version: 2.1.1 Build 3)  -->
  <defs>
    <style>
      .st0 {
        fill: #56a145;
      }

      .st1 {
        fill: url(#linear-gradient2);
      }

      .st2 {
        isolation: isolate;
        opacity: .39;
      }

      .st3 {
        fill: #fff;
      }

      .st4 {
        fill: url(#linear-gradient1);
      }

      .st5 {
        fill: url(#linear-gradient);
      }

      .st6 {
        fill: #2a2828;
      }
    </style>
    <linearGradient id="linear-gradient" x1="-261.12" y1="393.51" x2="-151.29" y2="393.51" gradientTransform="translate(202.72 -285.35) rotate(-13.32)" gradientUnits="userSpaceOnUse">
      <stop offset="0" stop-color="#ca3328"/>
      <stop offset="1" stop-color="#f79722"/>
    </linearGradient>
    <linearGradient id="linear-gradient1" x1="-207.13" y1="343.78" x2="-97.3" y2="343.78" gradientTransform="translate(202.72 -285.35) rotate(-13.32)" gradientUnits="userSpaceOnUse">
      <stop offset="0" stop-color="#56a145"/>
      <stop offset="1" stop-color="#3d6ce2"/>
    </linearGradient>
    <linearGradient id="linear-gradient2" x1="-126.66" y1="465.7" x2="-16.58" y2="465.7" gradientTransform="translate(202.72 -285.35) rotate(-13.32)" gradientUnits="userSpaceOnUse">
      <stop offset="0" stop-color="#ca3328"/>
      <stop offset="1" stop-color="#9761ff"/>
    </linearGradient>
  </defs>
  <path class="st6" d="M4.67,59.4h212.32c13.73,0,24.88,11.15,24.88,24.88v164.09H25.95c-11.74,0-21.27-9.53-21.27-21.27V59.4h0Z"/>
  <path class="st5" d="M147.35,137.59c3.83,27.77-14.02,54.42-41.86,61.01-29.58,7-59.24-11.3-66.24-40.88-6.92-29.24,10.88-58.55,39.86-65.99.25,1.74.57,3.48.98,5.22,7,29.57,36.65,47.89,66.24,40.88.34-.08.68-.16,1.02-.25Z"/>
  <path class="st4" d="M187.21,71.6c6.92,29.23-10.88,58.55-39.86,65.99-.25-1.74-.57-3.48-.98-5.22-7-29.58-36.65-47.89-66.24-40.88-.34.08-.68.16-1.02.25-3.83-27.77,14.02-54.42,41.86-61.01,29.58-7,59.24,11.3,66.24,40.88Z"/>
  <circle class="st1" cx="240.28" cy="184.32" r="55.04"/>
  <path class="st0" d="M231.72,236.58c7.55-6.36,13.7-13.95,18.3-22.32l-11.24-12,4.81-15.87,16.01-3.74c.82-9.52-.08-19.25-2.83-28.72l-16.44-.53-7.82-14.62,8.68-13.97c-6.36-7.55-13.95-13.69-22.32-18.3l-12,11.24-15.87-4.81-3.74-16.01c-9.51-.82-19.25.08-28.72,2.83l-.53,16.44-14.62,7.82-13.97-8.68c-7.55,6.36-13.7,13.95-18.3,22.32l11.24,12-2.4,7.94c-.62,6.05-4.9,11.33-10.68,11.09l-7.74.59c-.2,2.38-.3,4.77-.29,7.17s.13,4.8.37,7.21c.36,2.5.29,5.5.63,8.13,14.15,11.13,14.08,27.65,4.12,40.6-1.13,1.46-2.28,2.91-3.34,4.42-1.56,2.2-3.64,4.74-4.42,6.75-2.04,5.22-2.93,10.78-1.26,17.11,2,7,7.59,10.54,15.03,10.11,2.85-.16,6.19-1.43,8.74-2.63,3.21-1.58,6.43-3.04,9.67-4.37,2.93-1.35,5.92-2.51,8.97-3.49,8.59-3.62,16.69-6.62,26.65-7.83,3.26-.16,8.42,2.77,11.7,2.79,3.27.01,6.54.1,9.8.23,2.52-.29,5.04-.78,7.56-1.57,2.39-.46,4.78-1.03,7.15-1.72,0,0,.13-4.11.27-8.21-.54-6.31,1.46-10.31,7.58-12.1,3.65-1.99,7.31-3.95,7.31-3.95l13.97,8.68ZM130.91,208.78c6.42-17.16,10.42-36.16,19.33-51.92,1.6-2.54,3.46-4.92,5.63-7.1,2.17-2.18,4.67-4.15,7.56-5.86,2.95-1.58,6.02-2.71,9.13-3.41,15.56-3.52,32.17,3.57,40.06,18.32,3.29,6.15,4.63,12.82,4.24,19.3-.13,2.16-.45,4.3-.96,6.39-2.39,6.03-5.75,11.43-9.78,16.29-2.02,2.43-4.21,4.72-6.55,6.87-17.23,13.97-36.23,24.97-57.23,26.97-9,2-16-8-13.54-16.84.45-2.76,1.16-5.77,2.12-9Z"/>
  <g class="st2">
    <path class="st3" d="M188.18,126.02c13.97-2.52,27.67,5.49,36.6,15.66,6.87,7.35,10.67,18.02,10.03,28.04-.35,6.83-2.21,13.24-5.4,19.18-.48.81-.99,1.74-1.56,2.59-1.49,2.33-4.58,3.01-6.9,1.52-1.54-.98-2.36-2.67-2.3-4.37l.06-1.75c.06-.39.32-1.54.42-2.01,2.88-14.19,1.4-25.66-9.29-35.92-5.56-5.71-12.21-10.45-19.94-12.52,0,0-.42-.11-.42-.11,0,0-.18-.06-.18-.06-.03-.02-.15-.03-.04-.06-6.75.48-7.78-9.25-1.05-10.18h0Z"/>
  </g>
</svg>