<svg xmlns="http://www.w3.org/2000/svg" viewBox="0 0 300 300"><defs><linearGradient id="a" x1="-261.12" x2="-151.29" y1="393.51" y2="393.51" gradientTransform="rotate(-13.32 -1120.536 -1010.741)" gradientUnits="userSpaceOnUse"><stop offset="0" stop-color="#ca3328"/><stop offset="1" stop-color="#f79722"/></linearGradient><linearGradient id="b" x1="-207.13" x2="-97.3" y1="343.78" y2="343.78" gradientTransform="rotate(-13.32 -1120.536 -1010.741)" gradientUnits="userSpaceOnUse"><stop offset="0" stop-color="#56a145"/><stop offset="1" stop-color="#3d6ce2"/></linearGradient><linearGradient id="c" x1="-126.66" x2="-16.58" y1="465.7" y2="465.7" gradientTransform="rotate(-13.32 -1120.536 -1010.741)" gradientUnits="userSpaceOnUse"><stop offset="0" stop-color="#ca3328"/><stop offset="1" stop-color="#9761ff"/></linearGradient></defs><path fill="#2a2828" d="M4.67 59.4h212.32c13.73 0 24.88 11.15 24.88 24.88v164.09H25.95c-11.74 0-21.27-9.53-21.27-21.27V59.4z"/><path fill="url(#a)" d="M147.35 137.59c3.83 27.77-14.02 54.42-41.86 61.01-29.58 7-59.24-11.3-66.24-40.88-6.92-29.24 10.88-58.55 39.86-65.99.25 1.74.57 3.48.98 5.22 7 29.57 36.65 47.89 66.24 40.88.34-.08.68-.16 1.02-.25z"/><path fill="url(#b)" d="M187.21 71.6c6.92 29.23-10.88 58.55-39.86 65.99-.25-1.74-.57-3.48-.98-5.22-7-29.58-36.65-47.89-66.24-40.88-.34.08-.68.16-1.02.25-3.83-27.77 14.02-54.42 41.86-61.01 29.58-7 59.24 11.3 66.24 40.88z"/><circle cx="240.28" cy="184.32" r="55.04" fill="url(#c)"/><path fill="#56a145" d="M231.72 236.58a78.76 78.76 0 0018.3-22.32l-11.24-12 4.81-15.87 16.01-3.74c.82-9.52-.08-19.25-2.83-28.72l-16.44-.53-7.82-14.62 8.68-13.97a78.929 78.929 0 00-22.32-18.3l-12 11.24-15.87-4.81-3.74-16.01c-9.51-.82-19.25.08-28.72 2.83l-.53 16.44-14.62 7.82-13.97-8.68a78.76 78.76 0 00-18.3 22.32l11.24 12-2.4 7.94c-.62 6.05-4.9 11.33-10.68 11.09l-7.74.59c-.2 2.38-.3 4.77-.29 7.17s.13 4.8.37 7.21c.36 2.5.29 5.5.63 8.13 14.15 11.13 14.08 27.65 4.12 40.6-1.13 1.46-2.28 2.91-3.34 4.42-1.56 2.2-3.64 4.74-4.42 6.75-2.04 5.22-2.93 10.78-1.26 17.11 2 7 7.59 10.54 15.03 10.11 2.85-.16 6.19-1.43 8.74-2.63 3.21-1.58 6.43-3.04 9.67-4.37 2.93-1.35 5.92-2.51 8.97-3.49 8.59-3.62 16.69-6.62 26.65-7.83 3.26-.16 8.42 2.77 11.7 2.79 3.27.01 6.54.1 9.8.23 2.52-.29 5.04-.78 7.56-1.57 2.39-.46 4.78-1.03 7.15-1.72 0 0 .13-4.11.27-8.21-.54-6.31 1.46-10.31 7.58-12.1 3.65-1.99 7.31-3.95 7.31-3.95l13.97 8.68zm-100.81-27.8c6.42-17.16 10.42-36.16 19.33-51.92 1.6-2.54 3.46-4.92 5.63-7.1 2.17-2.18 4.67-4.15 7.56-5.86 2.95-1.58 6.02-2.71 9.13-3.41 15.56-3.52 32.17 3.57 40.06 18.32a36.189 36.189 0 014.24 19.3c-.13 2.16-.45 4.3-.96 6.39-2.39 6.03-5.75 11.43-9.78 16.29a70.776 70.776 0 01-6.55 6.87c-17.23 13.97-36.23 24.97-57.23 26.97-9 2-16-8-13.54-16.84.45-2.76 1.16-5.77 2.12-9z"/><path fill="#fff" d="M188.18 126.02c13.97-2.52 27.67 5.49 36.6 15.66 6.87 7.35 10.67 18.02 10.03 28.04-.35 6.83-2.21 13.24-5.4 19.18-.48.81-.99 1.74-1.56 2.59a4.99 4.99 0 01-6.9 1.52 4.97 4.97 0 01-2.3-4.37l.06-1.75c.06-.39.32-1.54.42-2.01 2.88-14.19 1.4-25.66-9.29-35.92-5.56-5.71-12.21-10.45-19.94-12.52l-.42-.11-.18-.06c-.03-.02-.15-.03-.04-.06-6.75.48-7.78-9.25-1.05-10.18z" opacity=".39"/></svg>