<svg xmlns="http://www.w3.org/2000/svg" id="Camada_1" x="0" y="0" version="1.0" viewBox="0 0 50 50" xml:space="preserve"><style>.st2{fill:#444}</style><path fill="#8256d8" d="M23.8 20.8l7.9 2.4-6.7 4.7.1 8.2-6.6-4.9-7.8 2.7 2.6-7.8-4.9-6.6 8.2.1 4.8-6.7z"/><path fill="#a475ef" d="M47.5 27.2s5.8-.8-13.5-20.6c-3.1-3.2-4.8 1.9-4.8 1.9v4.2h-2.5v-4c0-1.4-1.1-2.5-2.5-2.5h-1.1c-1.4 0-2.5 1.1-2.5 2.5v2.1c-1.1-.3-3.7-.6-5 3-1-.2-1.7.1-2.3.6H5.7c-1.1 0-2 .9-2 2v18c0 1.1.9 2 2 2h4.8s-.1 2.9 4.1 1.6c.1 3.9 32.9-10.8 32.9-10.8z"/><path d="M28.3 22.7h-1.2v-1h.7l2-2.9h1.5v1h-1l-2 2.9zm-.2 1.5h4.1v1h-4.1v-1z" class="st2"/><path d="M32.9 21.3c-1.1 0-1.9-.9-1.9-1.9s.9-1.9 1.9-1.9c1.1 0 1.9.9 1.9 1.9s-.8 1.9-1.9 1.9zm0-2.9c-.5 0-1 .4-1 1s.4 1 1 1 1-.4 1-1-.5-1-1-1zm-1.4 12.1h-1.7l-1.9-2.9h-.8v-1h1.3l1.9 2.9h1.2v1z" class="st2"/><path d="M32.9 31.9c-1.1 0-1.9-.9-1.9-1.9s.9-1.9 1.9-1.9c1.1 0 1.9.9 1.9 1.9s-.8 1.9-1.9 1.9zm0-2.9c-.5 0-1 .4-1 1s.4 1 1 1 1-.4 1-1-.5-1-1-1zm.5-2.4c-1.1 0-1.9-.9-1.9-1.9 0-1.1.9-1.9 1.9-1.9s1.9.9 1.9 1.9c0 1-.9 1.9-1.9 1.9zm0-2.9c-.5 0-1 .4-1 1s.4 1 1 1 1-.4 1-1-.5-1-1-1zm-5.5 9.9L25.5 30h-.3v-1h.8l2.8 4-.9.6z" class="st2"/><path d="M29 36.2c-1.1 0-1.9-.9-1.9-1.9s.9-1.9 1.9-1.9 1.9.9 1.9 1.9-.8 1.9-1.9 1.9zm0-2.9c-.5 0-1 .4-1 1s.4 1 1 1 1-.4 1-1-.4-1-1-1zm-3-13h-3.2v-1h2.7l2.3-2.8.7.6-2.5 3.2z" class="st2"/><path d="M29 17.9c-1.1 0-1.9-.9-1.9-1.9s.9-1.9 1.9-1.9 2 .8 2 1.9-.9 1.9-2 1.9zm0-2.9c-.5 0-1 .4-1 1 0 .5.4 1 1 1s1-.4 1-1c0-.5-.4-1-1-1zM18.9 36.7c-1.7 0-3.3-1-3.9-2.4-2.1 0-3.9-1.7-4.2-4.1v-1.5c-.7-1-1.1-2.2-1.1-3.5 0-2.1 1-4 2.4-4.8v-.2c0-2.4 1.6-4.3 3.7-4.5.6-1.4 2-2.5 3.6-2.5 2.1 0 3.9 1.7 3.9 3.9v15.7c0 2.1-2 3.9-4.4 3.9zm-3.3-3.4l.1.3c.5 1.3 1.7 2.1 3.2 2.1 1.9 0 3.4-1.4 3.4-3.1V17c0-1.6-1.3-2.9-2.9-2.9-1.3 0-2.4.9-2.8 2.1l-.1.3h-.3c-1.7 0-3 1.7-3 3.6v.7l-.3.2c-1.3.6-2.2 2.3-2.2 4.1 0 1.2.3 2.3 1 3.1l.1.2v.2c-.1.4-.1.9-.1 1.4.2 2 1.8 3.4 3.5 3.2l.4.1z" class="st2"/><path d="M19.4 20.8c-2.1 0-3.9-1.7-3.9-3.9 0-.4 0-.7.1-1.1l.9.3c-.1.3-.1.5-.1.8 0 1.6 1.3 2.9 2.9 2.9v1h.1zM16 25.7c-.4 0-.8-.1-1.2-.3l.5-.8c.9.5 1.9-.1 2.6-.9.8-.9 1.8-1.4 2.8-1.4.8 0 1.4.3 2 .9l.6.9-.9.4c-.1-.2-.2-.5-.4-.7-.3-.4-.8-.6-1.3-.6-.7 0-1.5.4-2.1 1.1-.8.9-1.7 1.4-2.6 1.4zm6.2-6.8c-1.4 0-2.6-.9-3.2-2.3l.9-.3c.4 1.2 1.6 1.9 2.8 1.6l.2 1h-.7zm-2.4 13.7l-.9-.3c.6-1.6 2.2-2.6 3.9-2.2l-.2 1c-1.2-.4-2.3.3-2.8 1.5z" class="st2"/><path d="M15.6 21.3h-1c0-1.3 1.2-2.1 2.3-2.4l.2.9c-.7.2-1.5.8-1.5 1.5zm-.1 9.6c-1.2-.3-2.3-1.2-2.3-2.4h1c0 .7.8 1.3 1.5 1.4l-.2 1z" class="st2"/><path d="M15.1 34.6c-.3-.6-.5-1.3-.5-2 0-2.1 1.7-3.9 3.9-4 0-1.2 1.4-2.4 2.4-2.4v1c-.5 0-1.4.9-1.4 1.4v1H19c-1.9 0-3.4 1.4-3.4 3.1 0 .5.1 1.1.4 1.5l-.9.4zm-1.9-7.5v-1c.7 0 1.2-.5 1.2-1.2s-.5-1.2-1.2-1.2v-1c1.2 0 2.2 1 2.2 2.2-.1 1.2-1 2.2-2.2 2.2zm9.6-5.3h1.4v1h-1.4v-1zm2.4 0h1v1h-1v-1zm0 4.8h1v1h-1v-1zm-2.4 0h1.4v1h-1.4v-1zm0 2.4h1.4v1h-1.4v-1zm0-4.8h2.4v1h-2.4v-1zm3.4 0h1v1h-1v-1z" class="st2"/><path d="M22.3 12.6h1v24.6h-1V12.6zm0-2.9h1v1.9h-1V9.7zm0 28.5h1v1.9h-1v-1.9z" class="st2"/><path fill="none" stroke="#444" stroke-linecap="round" stroke-linejoin="round" stroke-miterlimit="10" stroke-width=".5" d="M25.8 17.7h-1.9M31 36.5c0 1.1 0 4 1.6 2.2 2.7-3 10.7-12.3 10.7-12.3.8-.6.8-2 0-2.6L32.6 11.6c-.8-.6-1.7.1-1.7 1.3v1m-7.2 18.7h2.8M11.8 17.7H7.6c-.6 0-1.1.7-1.1 1.5v11.9c0 .8.5 1.5 1.1 1.5h2.7"/><path fill="none" stroke="#444" stroke-linecap="round" stroke-miterlimit="10" stroke-width="2.5" d="M46.2 28.3c1-1.3 1.1-1.4 1.1-1.4 1.6-1.6 0-4.1 0-4.1S36.6 9.4 33.2 6.5s-4.8 1.9-4.8 1.9v4.2h-2.5v-4c0-1.4-1.1-2.5-2.5-2.5h-1.1c-1.4 0-2.5 1.1-2.5 2.5v2.1c-1.1-.3-3.7-.6-5 3-1-.2-1.7.1-2.3.6H4.9c-1.1 0-2 .9-2 2v18c0 1.1.9 2 2 2h4.8s-.1 2.9 4.1 1.6c.7 3.5 5.9 1 5.9 1h.1v1.3c0 1.4 1.1 2.5 2.5 2.5h1.1c1.4 0 2.5-1.1 2.5-2.5V39h2.5v2.3s1.4 4.8 4.8 1.9c.4-.3 2.9-2.7 3.5-3.3"/></svg>
