<?xml version="1.0" encoding="UTF-8"?>
<svg xmlns="http://www.w3.org/2000/svg" version="1.1" viewBox="0 0 300 300">
  <defs>
    <style>
      .cls-1 {
        fill: #646464;
      }

      .cls-2 {
        stroke: #646464;
      }

      .cls-2, .cls-3 {
        stroke-linecap: round;
      }

      .cls-2, .cls-3, .cls-4 {
        fill: none;
        stroke-linejoin: round;
        stroke-width: 4px;
      }

      .cls-5 {
        fill: #54c654;
      }

      .cls-6 {
        fill: #ff6780;
      }

      .cls-7 {
        fill: #78d9ff;
      }

      .cls-8 {
        fill: #d34f6e;
      }

      .cls-9 {
        fill: #fff;
      }

      .cls-3, .cls-4 {
        stroke: #f4f4f4;
      }

      .cls-10 {
        fill: #008dd3;
      }

      .cls-11 {
        fill: #fbc304;
      }

      .cls-12 {
        fill: #d1990a;
      }

      .cls-13 {
        isolation: isolate;
        opacity: .4;
      }

      .cls-14 {
        fill: #04a550;
      }

      .cls-15 {
        fill: #50afeb;
      }
    </style>
  </defs>
  <!-- Generator: Adobe Illustrator 28.6.0, SVG Export Plug-In . SVG Version: 1.2.0 Build 709)  -->
  <g>
    <g id="Camada_1">
      <g>
        <path class="cls-10" d="M282.9,149.5c0,20.5-4.3,40-12,57.6-21.8,49.2-70.9,83.4-128.2,83.6-15.2,0-29.9-2.4-43.6-6.7-25.8-8.2-48.4-23.8-65.2-44.2-17.5-21.2-29.1-47.5-31.8-76.5-.4-4.2-.6-8.4-.6-12.7-.2-47.7,23.5-90.1,59.8-115.6,4.8-3.4,9.7-6.4,14.8-9.1,7.2-3.9,14.8-7.1,22.8-9.7,7.4-2.4,15.2-4.2,23.2-5.3,6.4-.9,12.9-1.4,19.5-1.5,25.9,0,50.1,6.8,71.1,18.9,3.8,2.2,7.3,4.5,10.9,7,16.7,11.9,30.8,27.3,41,45.3,1.2,2.1,2.3,4.1,3.3,6.2.9,1.9,1.8,3.6,2.6,5.4,2.7,6,4.9,12.1,6.8,18.4,2.1,7.1,3.6,14.4,4.5,21.7h0c.9,5.7,1.3,11.4,1.3,17.1Z"/>
        <g>
          <g>
            <rect class="cls-14" x="242.6" y="140" width="55.9" height="84.9" rx="27.9" ry="27.9" transform="translate(541 364.8) rotate(-180)"/>
            <g>
              <path class="cls-8" d="M57.9,180.5c0-41.1,33.7-74.8,74.8-74.8h79.7c18.1,0,34.8,6.5,47.8,17.4-13.7-17.5-35-28.8-58.8-28.8h-79.7c-41.1,0-74.8,33.7-74.8,74.8v20.9c0,23,10.5,43.7,27,57.4-10-12.7-16-28.7-16-46v-20.9Z"/>
              <path class="cls-6" d="M201.4,264.8c41.1,0,74.8-33.7,74.8-74.8v-20.9c0-17.3-6-33.3-16-46-13-10.8-29.7-17.4-47.8-17.4h-79.7c-41.1,0-74.8,33.7-74.8,74.8v20.9c0,17.3,6,33.3,16,46,13,10.8,29.7,17.4,47.8,17.4h79.7Z"/>
            </g>
            <rect class="cls-12" x="76.9" y="133.4" width="186.3" height="113.7" rx="56.9" ry="56.9"/>
            <g>
              <path class="cls-15" d="M152.1,71h38.5c5.6,0,10.2,4.6,10.2,10.2h0c0,5.6-4.6,10.2-10.2,10.2h-38.5c-5.6,0-10.2-4.6-10.2-10.2h0c0-5.6,4.6-10.2,10.2-10.2Z" transform="translate(90.2 252.5) rotate(-90)"/>
              <path class="cls-7" d="M155.2,71h38.5c5.6,0,10.2,4.6,10.2,10.2h0c0,5.6-4.6,10.2-10.2,10.2h-38.5c-5.6,0-10.2-4.6-10.2-10.2h0c0-5.6,4.6-10.2,10.2-10.2Z" transform="translate(93.3 255.6) rotate(-90)"/>
              <path class="cls-14" d="M198.9,54.2l.2,1.7c0,8.9-11.2,11.7-20.1,11.7l-14.6,3.5c-8.9,0-18.4-10.8-18.4-19.7h0c0-8.9,7.3-16.2,16.2-16.2h16.8c8.9,0,19.9,10.1,19.9,19Z"/>
              <path class="cls-5" d="M174.5,30.3h0c8.9,0,16.2,7.2,16.2,16.2v16.8c0,8.9-7.2,16.2-16.2,16.2h0c-8.9,0-16.2-7.2-16.2-16.2v-16.8c0-8.9,7.2-16.2,16.2-16.2Z" transform="translate(119.5 229.4) rotate(-90)"/>
            </g>
            <path class="cls-15" d="M211.4,110.1c0,10.5-79.6,10.5-79.6,0h0c0-14.3,11.6-26,26-26h6.5s0,5.3,0,5.3l20.4-1.2v-4.1s.8,0,.8,0c14.3,0,26,11.6,26,26h0Z"/>
            <rect class="cls-5" x="18.1" y="140" width="55.9" height="84.9" rx="27.9" ry="27.9" transform="translate(92.1 364.8) rotate(-180)"/>
            <path class="cls-7" d="M214.3,112.5c0,10.5-79.6,10.5-79.6,0h0c0-14.3,11.6-26,26-26h27.6c14.3,0,26,11.6,26,26h0Z"/>
            <path class="cls-3" d="M211.6,105.7h0c-9.3,11.6-64.4,11.6-73.8,0"/>
            <line class="cls-4" x1="18.1" y1="167.9" x2="74" y2="167.9"/>
            <line class="cls-4" x1="18.1" y1="183.1" x2="74" y2="183.1"/>
            <line class="cls-4" x1="18.1" y1="198.3" x2="74" y2="198.3"/>
            <line class="cls-4" x1="276.2" y1="167.9" x2="298.3" y2="167.9"/>
            <line class="cls-4" x1="276.2" y1="183.1" x2="298.3" y2="183.1"/>
            <line class="cls-4" x1="276.2" y1="198.3" x2="298.3" y2="198.3"/>
            <g class="cls-13">
              <path class="cls-9" d="M190,43c7.3,4.5,9.3,15.9,2.7,21.9-1.7,1.5-4.6,3.7-6.2,1-.5-.8-.3-1.7,0-2.6.8-2.2,1.7-4.1,1.9-6.4.5-3.8-1.2-7.7-2.2-11.3-.6-2.1,2-3.9,3.8-2.7h0Z"/>
            </g>
            <g class="cls-13">
              <path class="cls-9" d="M238.2,120c14.2,3.9,25.5,16.2,29.7,30.1,1.5,4.7,1.9,9.7,1.5,14.5-.1,1.3-1.2,2.3-2.5,2.2-1,0-1.8-.8-2.1-1.6-1.7-4.1-3-8.1-5-11.8-3.7-7.5-8.7-14-14.4-20.1-3-3.1-6.2-6.2-9.4-9.2-1.7-1.6,0-4.6,2.2-4h0Z"/>
            </g>
            <g class="cls-13">
              <path class="cls-9" d="M192.7,90.2c7.3,1,13.1,6.5,15.8,13.1.9,2.2,1.3,4.6,1.3,7,0,.9-.8,1.7-1.7,1.6-.5,0-1-.3-1.3-.6-1.4-1.7-2.4-3.5-3.7-5.1-3.4-4.8-7.7-8.7-11.7-13-1.2-1.1-.4-3.2,1.3-3h0Z"/>
            </g>
            <path class="cls-11" d="M143.3,138.2h67.8c28.7,0,52.1,23.3,52.1,52.1h0c0,31.4-25.5,56.9-56.9,56.9h-67.8c-28.7,0-52.1-23.3-52.1-52.1h0c0-31.4,25.5-56.9,56.9-56.9Z"/>
          </g>
          <g>
            <circle class="cls-1" cx="203.9" cy="180.1" r="9.2"/>
            <path class="cls-1" d="M162.9,192.8h23.9c2.5,0,4.3,2.4,3.6,4.8-1.7,5.5-5.9,13.7-15.4,13.7-9.5,0-13.8-8.2-15.6-13.7-.8-2.4,1-4.8,3.5-4.8Z"/>
            <path class="cls-2" d="M133.1,176.8s13.8-7.1,23.8,6.2"/>
          </g>
          <g class="cls-13">
            <path class="cls-9" d="M224.4,144.6c23.7,9.3,38.5,36.7,33.8,61.6-.2,1-1.2,1.7-2.2,1.5-.8-.2-1.4-.9-1.5-1.7-.6-5.9-1.5-11.6-3-17-3.8-13.7-11.8-25.8-22.2-35.5-2.1-2-4.4-4-6.6-5.7-1.6-1.3-.2-3.9,1.8-3.2h0Z"/>
          </g>
        </g>
      </g>
    </g>
  </g>
</svg>