<?xml version="1.0" encoding="utf-8"?>
<!-- Generator: Adobe Illustrator 27.8.1, SVG Export Plug-In . SVG Version: 6.00 Build 0)  -->
<svg version="1.1" id="Camada_3" xmlns="http://www.w3.org/2000/svg" xmlns:xlink="http://www.w3.org/1999/xlink" x="0px" y="0px"
	 viewBox="0 0 50 50" style="enable-background:new 0 0 50 50;" xml:space="preserve">
<style type="text/css">
	.st0{fill:#C3FF68;}
	.st1{fill:none;stroke:#414141;stroke-width:0.5;stroke-miterlimit:10;}
	.st2{fill:none;stroke:#414141;stroke-miterlimit:10;}
	.st3{fill:none;stroke:#414141;stroke-width:2.5;stroke-linecap:round;stroke-linejoin:round;stroke-miterlimit:10;}
</style>
<g>
	<path class="st0" d="M36.54,2.33H12.66c-1.4,0-10.2,9.4-10.2,10.8l-0.24,8.16l8.64,11.04l9,1.08l0,0
		c-1.15,3.77,1.8,7.56,4.92,10.16l17.8-6.33c1.65-2.99,5.25-7.86,5.25-11.27l-0.48-13.68v1.08v1.17
		C47.34,13.14,37.94,2.33,36.54,2.33z"/>
	<g>
		<g>
			<polyline class="st1" points="30.98,40.34 30.98,37.45 33.29,34.31 35.86,34.31 			"/>
			<line class="st1" x1="29.43" y1="30.58" x2="25.99" y2="30.58"/>
			<g>
				<circle class="st2" cx="14.46" cy="7.73" r="2.11"/>
				<circle class="st2" cx="8.58" cy="13.5" r="2.11"/>
				<circle class="st2" cx="6.91" cy="19.49" r="2.11"/>
				<circle class="st2" cx="14.35" cy="15.6" r="2.11"/>
				<circle class="st2" cx="35.53" cy="7.84" r="2.11"/>
				<circle class="st2" cx="41.52" cy="13.72" r="2.11"/>
				<circle class="st2" cx="41.52" cy="28.8" r="2.11"/>
				<circle class="st2" cx="35.2" cy="25.03" r="2.11"/>
				<circle class="st2" cx="31.54" cy="30.58" r="2.11"/>
				<circle class="st2" cx="35.75" cy="15.6" r="2.11"/>
				<circle class="st2" cx="27.99" cy="17.49" r="2.11"/>
				<circle class="st2" cx="14.23" cy="21.93" r="2.11"/>
				<circle class="st2" cx="22" cy="21.93" r="2.11"/>
				<circle class="st2" cx="20.22" cy="27.91" r="2.11"/>
				<circle class="st2" cx="25.99" cy="38.67" r="2.11"/>
				<circle class="st2" cx="30.98" cy="42.45" r="2.11"/>
				<circle class="st2" cx="37.97" cy="34.9" r="2.11"/>
				<path class="st2" d="M25.99,36.57"/>
			</g>
			<polyline class="st1" points="6.91,21.59 6.91,23.26 10.55,27.43 18.12,27.43 			"/>
			<polyline class="st1" points="25.99,36.57 25.99,24.69 24.09,22.51 			"/>
			<line class="st1" x1="19.89" y1="21.93" x2="16.75" y2="21.93"/>
			<line class="st1" x1="9.8" y1="11.83" x2="12.39" y2="9.04"/>
			<line class="st1" x1="16.75" y1="7.24" x2="33.19" y2="7.24"/>
			<line class="st1" x1="37.19" y1="9.06" x2="40.41" y2="12.05"/>
			<line class="st1" x1="41.52" y1="15.82" x2="41.52" y2="26.69"/>
			<polyline class="st1" points="33.98,13.83 31.5,12.04 18.44,12.04 15.45,14.16 			"/>
			<polyline class="st1" points="28.34,19.69 28.34,21.81 31.36,25.37 32.76,25.37 			"/>
		</g>
		<path class="st3" d="M38.56,39.79c1.26,0,2.43-0.67,3.06-1.76l4.44-7.6c0.6-1.03,0.92-2.19,0.92-3.38v-11.8
			c0-1.81-0.73-3.54-2.02-4.8l-5.58-5.45c-1.23-1.21-2.88-1.89-4.61-1.91L12.74,2.83c-1.19-0.01-2.33,0.49-3.11,1.39L3.1,11.72
			c-0.64,0.74-1,1.69-1,2.67v6.5c0,0.9,0.3,1.77,0.85,2.48l6.37,8.25c0.77,1,1.96,1.58,3.21,1.58h5.03c1.31,0,2.38,1.07,2.38,2.38
			v2.65c0,0.72,0.3,1.41,0.83,1.91l7.29,6.84c0.49,0.46,1.13,0.71,1.79,0.71h2.73"/>
	</g>
</g>
</svg>
