<?xml version="1.0" encoding="utf-8"?>
<!-- Generator: Adobe Illustrator 27.5.0, SVG Export Plug-In . SVG Version: 6.00 Build 0)  -->
<svg version="1.0" id="Camada_1" xmlns="http://www.w3.org/2000/svg" xmlns:xlink="http://www.w3.org/1999/xlink" x="0px" y="0px"
	 viewBox="0 0 50 50" style="enable-background:new 0 0 50 50;" xml:space="preserve">
<style type="text/css">
	.st0{fill:#8256D8;}
	.st1{fill:#A475EF;}
	.st2{fill:#444444;}
	.st3{fill:none;stroke:#444444;stroke-width:0.5;stroke-linecap:round;stroke-linejoin:round;stroke-miterlimit:10;}
	.st4{fill:none;stroke:#444444;stroke-width:2.5;stroke-linecap:round;stroke-miterlimit:10;}
</style>
<polygon class="st0" points="23.8,20.8 31.7,23.2 25,27.9 25.1,36.1 18.5,31.2 10.7,33.9 13.3,26.1 8.4,19.5 16.6,19.6 21.4,12.9 
	"/>
<path class="st1" d="M47.5,27.2c0,0,5.8-0.8-13.5-20.6c-3.1-3.2-4.8,1.9-4.8,1.9v4.2h-2.5v-0.2V8.7c0-1.4-1.1-2.5-2.5-2.5h-1.1
	c-1.4,0-2.5,1.1-2.5,2.5v2.1c-1.1-0.3-3.7-0.6-5,3c-1-0.2-1.7,0.1-2.3,0.6H5.7c-1.1,0-2,0.9-2,2v18c0,1.1,0.9,2,2,2h4.8
	c0,0-0.1,2.9,4.1,1.6C14.7,41.9,47.5,27.2,47.5,27.2z"/>
<path class="st2" d="M28.3,22.7h-1.2v-1h0.7l2-2.9h1.5v1h-1L28.3,22.7z M28.1,24.2h4.1v1h-4.1V24.2z"/>
<path class="st2" d="M32.9,21.3c-1.1,0-1.9-0.9-1.9-1.9s0.9-1.9,1.9-1.9c1.1,0,1.9,0.9,1.9,1.9S34,21.3,32.9,21.3z M32.9,18.4
	c-0.5,0-1,0.4-1,1s0.4,1,1,1s1-0.4,1-1S33.4,18.4,32.9,18.4z M31.5,30.5h-1.7l-1.9-2.9h-0.8v-1h1.3l1.9,2.9h1.2V30.5z"/>
<path class="st2" d="M32.9,31.9C31.8,31.9,31,31,31,30s0.9-1.9,1.9-1.9c1.1,0,1.9,0.9,1.9,1.9S34,31.9,32.9,31.9z M32.9,29
	c-0.5,0-1,0.4-1,1s0.4,1,1,1s1-0.4,1-1S33.4,29,32.9,29z"/>
<path class="st2" d="M33.4,26.6c-1.1,0-1.9-0.9-1.9-1.9c0-1.1,0.9-1.9,1.9-1.9s1.9,0.9,1.9,1.9C35.3,25.7,34.4,26.6,33.4,26.6z
	 M33.4,23.7c-0.5,0-1,0.4-1,1s0.4,1,1,1s1-0.4,1-1S33.9,23.7,33.4,23.7L33.4,23.7z M27.9,33.6L25.5,30h-0.3v-1H26l2.8,4L27.9,33.6z"
	/>
<path class="st2" d="M29,36.2c-1.1,0-1.9-0.9-1.9-1.9s0.9-1.9,1.9-1.9s1.9,0.9,1.9,1.9S30.1,36.2,29,36.2z M29,33.3
	c-0.5,0-1,0.4-1,1s0.4,1,1,1s1-0.4,1-1S29.6,33.3,29,33.3z M26,20.3h-3.2v-1h2.7l2.3-2.8l0.7,0.6L26,20.3z"/>
<path class="st2" d="M29,17.9c-1.1,0-1.9-0.9-1.9-1.9s0.9-1.9,1.9-1.9s2,0.8,2,1.9S30.1,17.9,29,17.9z M29,15c-0.5,0-1,0.4-1,1
	c0,0.5,0.4,1,1,1s1-0.4,1-1C30,15.5,29.6,15,29,15L29,15z"/>
<path class="st2" d="M18.9,36.7c-1.7,0-3.3-1-3.9-2.4c-2.1,0-3.9-1.7-4.2-4.1c0-0.5,0-1,0-1.5c-0.7-1-1.1-2.2-1.1-3.5
	c0-2.1,1-4,2.4-4.8v-0.2c0-2.4,1.6-4.3,3.7-4.5c0.6-1.4,2-2.5,3.6-2.5c2.1,0,3.9,1.7,3.9,3.9v15.7C23.3,34.9,21.3,36.7,18.9,36.7
	L18.9,36.7z M15.6,33.3l0.1,0.3c0.5,1.3,1.7,2.1,3.2,2.1c1.9,0,3.4-1.4,3.4-3.1V17c0-1.6-1.3-2.9-2.9-2.9c-1.3,0-2.4,0.9-2.8,2.1
	l-0.1,0.3h-0.3c-1.7,0-3,1.7-3,3.6c0,0.1,0,0.3,0,0.4v0.3L12.9,21c-1.3,0.6-2.2,2.3-2.2,4.1c0,1.2,0.3,2.3,1,3.1l0.1,0.2v0.2
	c-0.1,0.4-0.1,0.9-0.1,1.4c0.2,2,1.8,3.4,3.5,3.2L15.6,33.3L15.6,33.3z"/>
<path class="st2" d="M19.4,20.8c-2.1,0-3.9-1.7-3.9-3.9c0-0.4,0-0.7,0.1-1.1l0.9,0.3c-0.1,0.3-0.1,0.5-0.1,0.8
	c0,1.6,1.3,2.9,2.9,2.9v1H19.4z M16,25.7c-0.4,0-0.8-0.1-1.2-0.3l0.5-0.8c0.9,0.5,1.9-0.1,2.6-0.9c0.8-0.9,1.8-1.4,2.8-1.4
	c0.8,0,1.4,0.3,2,0.9c0.2,0.3,0.4,0.6,0.6,0.9l-0.9,0.4c-0.1-0.2-0.2-0.5-0.4-0.7c-0.3-0.4-0.8-0.6-1.3-0.6c-0.7,0-1.5,0.4-2.1,1.1
	C17.8,25.2,16.9,25.7,16,25.7z M22.2,18.9c-1.4,0-2.6-0.9-3.2-2.3l0.9-0.3c0.4,1.2,1.6,1.9,2.8,1.6l0.2,1
	C22.6,18.9,22.4,18.9,22.2,18.9L22.2,18.9z M19.8,32.6l-0.9-0.3c0.6-1.6,2.2-2.6,3.9-2.2l-0.2,1C21.4,30.7,20.3,31.4,19.8,32.6z"/>
<path class="st2" d="M15.6,21.3h-1c0-1.3,1.2-2.1,2.3-2.4l0.2,0.9C16.4,20,15.6,20.6,15.6,21.3z M15.5,30.9
	c-1.2-0.3-2.3-1.2-2.3-2.4h1c0,0.7,0.8,1.3,1.5,1.4L15.5,30.9z"/>
<path class="st2" d="M15.1,34.6c-0.3-0.6-0.5-1.3-0.5-2c0-2.1,1.7-3.9,3.9-4l0,0c0-1.2,1.4-2.4,2.4-2.4v1c-0.5,0-1.4,0.9-1.4,1.4v1
	H19c-1.9,0-3.4,1.4-3.4,3.1c0,0.5,0.1,1.1,0.4,1.5L15.1,34.6z M13.2,27.1v-1c0.7,0,1.2-0.5,1.2-1.2s-0.5-1.2-1.2-1.2v-1
	c1.2,0,2.2,1,2.2,2.2C15.3,26.1,14.4,27.1,13.2,27.1z M22.8,21.8h1.4v1h-1.4V21.8z M25.2,21.8h1v1h-1V21.8z M25.2,26.6h1v1h-1V26.6z
	 M22.8,26.6h1.4v1h-1.4V26.6z M22.8,29h1.4v1h-1.4V29z M22.8,24.2h2.4v1h-2.4V24.2z M26.2,24.2h1v1h-1V24.2z"/>
<path class="st2" d="M22.3,12.6h1v24.6h-1V12.6z M22.3,9.7h1v1.9h-1V9.7z M22.3,38.2h1v1.9h-1V38.2z"/>
<line class="st3" x1="25.8" y1="17.7" x2="23.9" y2="17.7"/>
<path class="st3" d="M31,36.5c0,1.1,0,4,1.6,2.2c2.7-3,10.7-12.3,10.7-12.3c0.8-0.6,0.8-2,0-2.6L32.6,11.6c-0.8-0.6-1.7,0.1-1.7,1.3
	v1"/>
<line class="st3" x1="23.7" y1="32.6" x2="26.5" y2="32.6"/>
<path class="st3" d="M11.8,17.7H7.6c-0.6,0-1.1,0.7-1.1,1.5v11.9c0,0.8,0.5,1.5,1.1,1.5h2.7"/>
<path class="st4" d="M46.2,28.3c1-1.3,1.1-1.4,1.1-1.4c1.6-1.6,0-4.1,0-4.1S36.6,9.4,33.2,6.5s-4.8,1.9-4.8,1.9v4.2h-2.5v-0.2V8.6
	c0-1.4-1.1-2.5-2.5-2.5h-1.1c-1.4,0-2.5,1.1-2.5,2.5v2.1c-1.1-0.3-3.7-0.6-5,3c-1-0.2-1.7,0.1-2.3,0.6H4.9c-1.1,0-2,0.9-2,2v18
	c0,1.1,0.9,2,2,2h4.8c0,0-0.1,2.9,4.1,1.6c0.7,3.5,5.9,1,5.9,1s0,0,0.1,0v1.3c0,1.4,1.1,2.5,2.5,2.5h1.1c1.4,0,2.5-1.1,2.5-2.5V39
	h2.5v2.3c0,0,1.4,4.8,4.8,1.9c0.4-0.3,2.9-2.7,3.5-3.3"/>
</svg>
