<?xml version="1.0" encoding="utf-8"?>
<!-- Generator: Adobe Illustrator 27.5.0, SVG Export Plug-In . SVG Version: 6.00 Build 0)  -->
<svg version="1.1" id="Camada_3" xmlns="http://www.w3.org/2000/svg" xmlns:xlink="http://www.w3.org/1999/xlink" x="0px" y="0px"
	 viewBox="0 0 50 50" style="enable-background:new 0 0 50 50;" xml:space="preserve">
<style type="text/css">
	.st0{fill:#00DFFC;}
	.st1{fill:#00C8E2;}
	.st2{fill:none;stroke:#444444;stroke-width:2.5;stroke-linecap:round;stroke-linejoin:round;stroke-miterlimit:10;}
	.st3{fill:none;stroke:#444444;stroke-miterlimit:10;}
	.st4{fill:none;stroke:#444444;stroke-width:0.5;stroke-miterlimit:10;}
	.st5{fill:none;stroke:#444444;stroke-width:0.5;stroke-linecap:round;stroke-miterlimit:10;}
	.st6{fill:#444444;}
</style>
<g>
	<g>
		<path class="st0" d="M45.76,3.65h-32.7c-1.2,0-2.18-0.43-2.18,0.77V22.1L47.94,4.61V4.42C47.94,3.22,46.97,3.65,45.76,3.65z"/>
		<path class="st1" d="M10.52,31.63L1.8,42.72c-1.06,1.52,1.67,4.4,3.41,3.78l10.67-8.17l10.99,0.13l21.07-7.5V4.45L10.46,17.79
			L10.52,31.63z"/>
	</g>
	<g>
		<path class="st2" d="M39.01,38.31H15.67l-9.62,7.9c-1.13,0.93-2.8,0.93-3.85-0.09c-0.01-0.01-0.03-0.03-0.04-0.04
			c-1.06-1.06-1.01-2.8-0.02-3.93l8.49-9.58V6.75c0-2.01,1.63-3.64,3.64-3.64h30.71c2.01,0,3.64,1.63,3.64,3.64V30.4"/>
		<line class="st3" x1="10.16" y1="9.62" x2="48.62" y2="9.62"/>
		<path class="st4" d="M36.73,18.17h6.7c0.6,0,1.08-0.48,1.08-1.08v-1.27c0-0.6-0.48-1.08-1.08-1.08h-6.7
			c-0.6,0-1.08,0.48-1.08,1.08v1.27C35.65,17.68,36.14,18.17,36.73,18.17z"/>
		<line class="st5" x1="44.69" y1="20.55" x2="35.74" y2="20.55"/>
		<line class="st5" x1="44.69" y1="23.5" x2="33.97" y2="23.5"/>
		<line class="st5" x1="44.69" y1="26.14" x2="32.18" y2="26.14"/>
		<path class="st3" d="M26.29,25.48c0.51,0.05,1.17-0.04,1.71-0.18c1.47-0.37,2.61-1.51,3.25-2.88c2.3-4.99,0.86-7.97,0.4-8.73
			c-0.05-0.08-0.17-0.09-0.22,0c-0.28,0.46-1.33,1.67-5,2.59c-1.53,0.38-2.84,1.42-3.48,2.86c-0.48,1.08-0.53,2.14-0.28,3.08"/>
		<path class="st3" d="M5.43,39.24c7.51-7.56,7.29-8.13,8.92-10.29c0.91-1.21,1.97-2.31,3.19-3.2c0.82-0.6,1.76-1.15,2.69-1.38
			c0.11-0.03,0.21-0.09,0.29-0.17l1.51-1.7c0.22-0.25,0.59-0.27,0.84-0.05l3.11,2.76c0.25,0.22,0.27,0.59,0.05,0.84l-1.87,2.11
			l-0.03-0.03c-0.22,0.97-0.79,1.96-1.41,2.81c-0.9,1.22-1.99,2.28-3.2,3.19c-2.16,1.63-7.27,5.59-10.76,9.08"/>
		<line class="st3" x1="24.35" y1="27.84" x2="20.59" y2="24.31"/>
	</g>
	<circle class="st6" cx="14.85" cy="7" r="1.28"/>
	<circle class="st6" cx="18.26" cy="7" r="1.28"/>
	<circle class="st6" cx="21.49" cy="7" r="1.28"/>
</g>
</svg>
