<?xml version="1.0" encoding="UTF-8"?>
<svg id="Camada_1" data-name="Camada 1" xmlns="http://www.w3.org/2000/svg" viewBox="0 0 300 300">
  <defs>
    <style>
      .cls-1 {
        opacity: .33;
      }

      .cls-2 {
        stroke: #138e44;
        stroke-linecap: round;
        stroke-width: 5px;
      }

      .cls-2, .cls-3, .cls-4, .cls-5 {
        fill-rule: evenodd;
      }

      .cls-2, .cls-6, .cls-7 {
        stroke-miterlimit: 10;
      }

      .cls-2, .cls-7 {
        fill: none;
      }

      .cls-8 {
        fill: #00bf5f;
      }

      .cls-9 {
        opacity: .61;
      }

      .cls-9, .cls-10, .cls-11, .cls-12 {
        isolation: isolate;
      }

      .cls-9, .cls-13, .cls-11, .cls-12 {
        fill: #fff;
      }

      .cls-10 {
        opacity: .39;
      }

      .cls-3 {
        fill: #dd437a;
      }

      .cls-11 {
        opacity: .2;
      }

      .cls-6 {
        fill: #ddd;
        stroke: #515759;
        stroke-width: 4px;
      }

      .cls-4, .cls-14 {
        fill: #138e44;
      }

      .cls-15 {
        fill: #005cff;
      }

      .cls-16 {
        fill: #ef3030;
      }

      .cls-17 {
        fill: #008dd3;
      }

      .cls-7 {
        stroke: #f4f4f4;
      }

      .cls-5 {
        fill: #ffdcdf;
      }

      .cls-18 {
        fill: #4ebfe9;
      }

      .cls-19 {
        fill: #eaeaea;
      }

      .cls-12 {
        opacity: .36;
      }

      .cls-20 {
        fill: #004fc1;
      }

      .cls-21 {
        fill: #ed9751;
      }
    </style>
  </defs>
  <g id="Camada_10" data-name="Camada 10">
    <path class="cls-17" d="M285.38,149.42c.1,20.75-4.3,40.45-12.16,58.37-22.11,49.89-71.89,84.68-129.95,84.89-15.41.1-30.29-2.41-44.23-6.81-26.2-8.38-49.05-24.1-66.13-44.86C15.09,219.64,3.46,192.81.63,163.47.21,159.27,0,154.87,0,150.58-.21,102.16,23.79,59.19,60.68,33.3c4.82-3.46,9.85-6.5,15.09-9.22,7.34-3.98,15.09-7.13,23.06-9.85,7.55-2.41,15.41-4.19,23.48-5.45,6.5-.84,13.1-1.36,19.81-1.47,26.2-.1,50.83,6.92,72.1,19.18,3.88,2.2,7.44,4.51,11,7.13,16.98,12.05,31.23,27.77,41.61,46.01,1.15,2.1,2.31,4.09,3.35,6.29.84,1.89,1.78,3.67,2.62,5.55,2.72,6.08,5.03,12.26,6.92,18.65,2.1,7.13,3.67,14.57,4.51,22.01h0c.73,5.66,1.15,11.42,1.15,17.29Z"/>
  </g>
  <path class="cls-11" d="M74.39,154.18s4.4-10.4,11.1-1.5c6.7,8.9,0,13.7,0,13.7,0,0-8.5,6.4-11.1,0-2.6-6.5,0-12.2,0-12.2Z"/>
  <path class="cls-11" d="M99.73,76.74s-27.4-3-27.9,21.9v34.6s0,6.3,5,6.1c2.1-.1,6.2,0,6.7-6.1.6-8.1,0-25,11.1-34.6,10.1-8.7,25.5-9.3,34.4-11.2,11-2.4,11-11.2.6-11-10,.2-29.9.3-29.9.3Z"/>
  <g>
    <path class="cls-20" d="M266.07,73.51H56.59c-11.41,0-20.72,9.3-20.72,20.72v143.74h-.11v15.85c0,7.4,6.02,13.32,13.32,13.32h224.28c7.4,0,13.32-5.92,13.32-13.32v-15.85h.11V94.23c0-11.41-9.3-20.72-20.72-20.72Z"/>
    <g id="computer">
      <path class="cls-18" d="M299.89,230.39H49.09V86.65c0-11.41,9.3-20.72,20.72-20.72h209.48c11.41,0,20.72,9.3,20.72,20.72v143.74h-.11Z"/>
      <path class="cls-19" d="M283.3,216.86c2.51,0,4.54-2.03,4.54-4.54v-125.56c0-4.03-3.27-7.29-7.29-7.29H72.53c-5.65,0-10.23,4.58-10.23,10.23v122.79c0,2.53,2.05,4.59,4.59,4.58l216.42-.21Z"/>
      <path class="cls-15" d="M286.58,259.56H62.3c-7.29,0-13.32-5.92-13.32-13.32v-15.85h250.91v15.85c0,7.4-5.92,13.32-13.32,13.32Z"/>
    </g>
    <g>
      <circle class="cls-16" cx="272.89" cy="91.28" r="5.48"/>
      <circle class="cls-21" cx="254.97" cy="91.28" r="5.48"/>
      <circle class="cls-8" cx="237.04" cy="91.28" r="5.48"/>
    </g>
    <g>
      <path class="cls-6" d="M274.68,226.22l-5.16,6.79,13.34,9.57c.33.19.56.6.58.92h0c.02.42-.06.74-.25,1.07l-7.18,9.31c-.3.34-.61.46-1.14.49h0c-.32.02-.64-.07-.86-.27l-12.94-10.01-4.75,6.89c-1.44,2.08-4.54,1.99-5.84-.18-5.2-8.68-16.25-27.33-20.67-36-.71-1.33.36-2.88,1.86-2.65,9.75,1.5,31.12,6.31,41.03,8.58,2.46.56,3.51,3.48,1.99,5.49Z"/>
      <path class="cls-12" d="M237.06,216.72c1.92.21,5.87.82,13.91,2.47h.11c3.31.44,16.27,3.33,17.79,3.98,4.16.5,1.31,2.65-1.41,6.94h0c-.96.94-2.38,1.22-3.62.71l-5.22-2.13c-4.15-2.09-11.4-4.84-14.56-6.35-3.92-1.89-6.55-3.43-7.78-4.52-.56-.5.03-1.27.78-1.1Z"/>
      <path class="cls-9" d="M250.07,220.68c1.05.24,3.36.72,7.99,1.9h.11c1.89.37,7.83,1.69,8.77,2.04,1.79.36,1.56,1.59.57,3-.65.93-1.86,1.28-2.92.87l-2.31-.9c-.08-.03-.15-.06-.23-.1-2.31-1.21-6.3-2.77-8.14-3.75-2.19-1.11-3.65-1.89-4.37-2.54-.31-.33.01-.53.54-.51Z"/>
    </g>
    <g class="cls-10">
      <path class="cls-13" d="M244.53,106.82c17.91,3.16,34.05,19.49,33.39,38.48-.19,6.23-2.25,12.28-5.7,17.28-1.58,2.34-4.75,2.95-7.09,1.37-1.73-1.17-2.48-3.18-2.18-5.11.66-6.92.66-12.39-1.69-18.34-3.5-8.81-11.06-15.59-18.07-22.07-1.16-1.04-2.58-2.3-3.45-3.55-2.89-3.54.36-8.91,4.79-8.06h0Z"/>
    </g>
    <g>
      <path class="cls-14" d="M78.08,105.65v-7.67h29.08v7.67h-29.08ZM78.08,143.96v-7.71h29.08v7.71h-29.08ZM88.31,143.96v-45.98h8.55v45.98h-8.55Z"/>
      <path class="cls-14" d="M112.95,143.96l13.28-45.98h10.49l13.28,45.98h-9.23l-9-34.75h-.58l-9,34.75h-9.23ZM119.66,135.25v-7.9h23.32v7.9h-23.32Z"/>
    </g>
    <g>
      <g>
        <g>
          <g>
            <path class="cls-3" d="M203.11,130.35l36.43-76.62-13.17-6.26-13.17-6.26-50.61,106.44,2.33,19.93c.4,3.39,4.21,5.21,7.09,3.37l16.93-10.77,14.18-29.83"/>
            <path class="cls-5" d="M162.59,147.65l2.2,18.8c.46,3.92,4.86,6.01,8.18,3.89l15.96-10.16-26.34-12.52Z"/>
            <path class="cls-4" d="M164.18,161.28l1.13,9.69c.21,1.82,2.26,2.8,3.81,1.81l8.23-5.24-13.17-6.26Z"/>
          </g>
          <path class="cls-5" d="M225.2,32.91c8.04-.64,15.08,5.35,15.72,13.39.64,8.04-5.35,15.08-13.39,15.72-8.04.64-15.08-5.35-15.72-13.39-.64-8.04,5.35-15.08,13.39-15.72Z"/>
          <path class="cls-4" d="M225.91,41.82c3.12-.25,5.85,2.08,6.1,5.2.25,3.12-2.08,5.85-5.2,6.1-3.12.25-5.85-2.08-6.1-5.2-.25-3.12,2.08-5.85,5.2-6.1Z"/>
        </g>
        <line class="cls-7" x1="168.85" y1="149.24" x2="213.53" y2="56.86"/>
        <line class="cls-7" x1="175.81" y1="151.62" x2="219.51" y2="62.16"/>
        <line class="cls-7" x1="182.53" y1="154.7" x2="226.9" y2="63.53"/>
      </g>
      <g class="cls-1">
        <path class="cls-13" d="M231.58,35.15c7.59,1.08,11.35,8.31,9.36,15.65-.62,3.26-5.14,8.4-7.94,4.34-.64-1.1-.27-2.87-.41-3.84-.27-1.76-.65-3.77-.69-5.57.01-1.79-1.81-4.4-2.65-6.16,0,0-.39-1.35-.39-1.35-.52-1.66,1.01-3.37,2.71-3.08h0Z"/>
      </g>
      <g class="cls-1">
        <path class="cls-13" d="M228.98,43.23c2.5.45,3.79,3.43,2.81,5.66-.54,1.54-2.68,2.74-3.69,1.02-.27-.53-.41-1.64-.61-2.04-.08-.22-.15-.32-.19-.47-.07-.51-.2-1.11-.12-1.78,0,0,.27-1.39.27-1.39.14-.7.83-1.16,1.53-1.01h0Z"/>
      </g>
    </g>
    <path class="cls-2" d="M73.24,203h186.76c7.12,0,12.9-4.63,12.9-10.34h0c0-5.71-5.77-10.34-12.9-10.34h-92.46"/>
  </g>
</svg>