<svg xmlns="http://www.w3.org/2000/svg" id="Camada_1" data-name="Camada 1" viewBox="0 0 300 300"><defs><style>.cls-1{opacity:.33}.cls-4,.cls-5{fill-rule:evenodd}.cls-13{fill:#fff}.cls-4{fill:#138e44}.cls-5{fill:#ffdcdf}</style></defs><path id="Camada_10" fill="#008dd3" d="M285.38 149.42c.1 20.75-4.3 40.45-12.16 58.37-22.11 49.89-71.89 84.68-129.95 84.89-15.41.1-30.29-2.41-44.23-6.81-26.2-8.38-49.05-24.1-66.13-44.86-17.82-21.37-29.45-48.2-32.28-77.54-.42-4.2-.63-8.6-.63-12.89-.21-48.42 23.79-91.39 60.68-117.28 4.82-3.46 9.85-6.5 15.09-9.22 7.34-3.98 15.09-7.13 23.06-9.85 7.55-2.41 15.41-4.19 23.48-5.45 6.5-.84 13.1-1.36 19.81-1.47 26.2-.1 50.83 6.92 72.1 19.18 3.88 2.2 7.44 4.51 11 7.13a143.485 143.485 0 0141.61 46.01c1.15 2.1 2.31 4.09 3.35 6.29.84 1.89 1.78 3.67 2.62 5.55a149.04 149.04 0 016.92 18.65c2.1 7.13 3.67 14.57 4.51 22.01.73 5.66 1.15 11.42 1.15 17.29z" data-name="Camada 10"/><path style="isolation:isolate" fill="#fff" d="M74.39 154.18s4.4-10.4 11.1-1.5c6.7 8.9 0 13.7 0 13.7s-8.5 6.4-11.1 0c-2.6-6.5 0-12.2 0-12.2zm25.34-77.44s-27.4-3-27.9 21.9v34.6s0 6.3 5 6.1c2.1-.1 6.2 0 6.7-6.1.6-8.1 0-25 11.1-34.6 10.1-8.7 25.5-9.3 34.4-11.2 11-2.4 11-11.2.6-11-10 .2-29.9.3-29.9.3z" opacity=".2"/><path fill="#004fc1" d="M266.07 73.51H56.59c-11.41 0-20.72 9.3-20.72 20.72v143.74h-.11v15.85c0 7.4 6.02 13.32 13.32 13.32h224.28c7.4 0 13.32-5.92 13.32-13.32v-15.85h.11V94.23c0-11.41-9.3-20.72-20.72-20.72z"/><g id="computer"><path fill="#4ebfe9" d="M299.89 230.39H49.09V86.65c0-11.41 9.3-20.72 20.72-20.72h209.48c11.41 0 20.72 9.3 20.72 20.72v143.74h-.11z"/><path fill="#eaeaea" d="M283.3 216.86c2.51 0 4.54-2.03 4.54-4.54V86.76c0-4.03-3.27-7.29-7.29-7.29H72.53c-5.65 0-10.23 4.58-10.23 10.23v122.79c0 2.53 2.05 4.59 4.59 4.58l216.42-.21z"/><path fill="#005cff" d="M286.58 259.56H62.3c-7.29 0-13.32-5.92-13.32-13.32v-15.85h250.91v15.85c0 7.4-5.92 13.32-13.32 13.32z"/></g><circle cx="272.89" cy="91.28" r="5.48" fill="#ef3030"/><circle cx="254.97" cy="91.28" r="5.48" fill="#ed9751"/><circle cx="237.04" cy="91.28" r="5.48" fill="#00bf5f"/><path fill="#ddd" stroke="#515759" stroke-miterlimit="10" stroke-width="4" d="M274.68 226.22l-5.16 6.79 13.34 9.57c.33.19.56.6.58.92h0c.02.42-.06.74-.25 1.07l-7.18 9.31c-.3.34-.61.46-1.14.49h0c-.32.02-.64-.07-.86-.27l-12.94-10.01-4.75 6.89c-1.44 2.08-4.54 1.99-5.84-.18-5.2-8.68-16.25-27.33-20.67-36-.71-1.33.36-2.88 1.86-2.65 9.75 1.5 31.12 6.31 41.03 8.58 2.46.56 3.51 3.48 1.99 5.49z"/><path fill="#fff" d="M237.06 216.72c1.92.21 5.87.82 13.91 2.47h.11c3.31.44 16.27 3.33 17.79 3.98 4.16.5 1.31 2.65-1.41 6.94-.96.94-2.38 1.22-3.62.71l-5.22-2.13c-4.15-2.09-11.4-4.84-14.56-6.35-3.92-1.89-6.55-3.43-7.78-4.52-.56-.5.03-1.27.78-1.1z" opacity=".36" style="isolation:isolate"/><path fill="#fff" d="M250.07 220.68c1.05.24 3.36.72 7.99 1.9h.11c1.89.37 7.83 1.69 8.77 2.04 1.79.36 1.56 1.59.57 3-.65.93-1.86 1.28-2.92.87l-2.31-.9c-.08-.03-.15-.06-.23-.1-2.31-1.21-6.3-2.77-8.14-3.75-2.19-1.11-3.65-1.89-4.37-2.54-.31-.33.01-.53.54-.51z" opacity=".61" style="isolation:isolate"/><path d="M244.53 106.82c17.91 3.16 34.05 19.49 33.39 38.48-.19 6.23-2.25 12.28-5.7 17.28a5.102 5.102 0 01-7.09 1.37c-1.73-1.17-2.48-3.18-2.18-5.11.66-6.92.66-12.39-1.69-18.34-3.5-8.81-11.06-15.59-18.07-22.07-1.16-1.04-2.58-2.3-3.45-3.55-2.89-3.54.36-8.91 4.79-8.06z" class="cls-13" opacity=".39"/><path fill="#138e44" d="M78.08 105.65v-7.67h29.08v7.67H78.08zm0 38.31v-7.71h29.08v7.71H78.08zm10.23 0V97.98h8.55v45.98h-8.55zm24.64 0l13.28-45.98h10.49L150 143.96h-9.23l-9-34.75h-.58l-9 34.75h-9.23zm6.71-8.71v-7.9h23.32v7.9h-23.32z"/><path fill="#dd437a" fill-rule="evenodd" d="M203.11 130.35l36.43-76.62-13.17-6.26-13.17-6.26-50.61 106.44 2.33 19.93c.4 3.39 4.21 5.21 7.09 3.37l16.93-10.77 14.18-29.83"/><path d="M162.59 147.65l2.2 18.8c.46 3.92 4.86 6.01 8.18 3.89l15.96-10.16-26.34-12.52z" class="cls-5"/><path d="M164.18 161.28l1.13 9.69c.21 1.82 2.26 2.8 3.81 1.81l8.23-5.24-13.17-6.26z" class="cls-4"/><path d="M225.2 32.91c8.04-.64 15.08 5.35 15.72 13.39.64 8.04-5.35 15.08-13.39 15.72-8.04.64-15.08-5.35-15.72-13.39-.64-8.04 5.35-15.08 13.39-15.72z" class="cls-5"/><path d="M225.91 41.82a5.668 5.668 0 11.9 11.3 5.668 5.668 0 01-.9-11.3z" class="cls-4"/><path fill="none" stroke="#f4f4f4" stroke-miterlimit="10" d="M168.85 149.24l44.68-92.38m-37.72 94.76l43.7-89.46m-36.98 92.54l44.37-91.17"/><g class="cls-1"><path d="M231.58 35.15c7.59 1.08 11.35 8.31 9.36 15.65-.62 3.26-5.14 8.4-7.94 4.34-.64-1.1-.27-2.87-.41-3.84-.27-1.76-.65-3.77-.69-5.57.01-1.79-1.81-4.4-2.65-6.16l-.39-1.35c-.52-1.66 1.01-3.37 2.71-3.08z" class="cls-13"/></g><g class="cls-1"><path d="M228.98 43.23c2.5.45 3.79 3.43 2.81 5.66-.54 1.54-2.68 2.74-3.69 1.02-.27-.53-.41-1.64-.61-2.04-.08-.22-.15-.32-.19-.47-.07-.51-.2-1.11-.12-1.78l.27-1.39c.14-.7.83-1.16 1.53-1.01z" class="cls-13"/></g><path fill="none" fill-rule="evenodd" stroke="#138e44" stroke-linecap="round" stroke-miterlimit="10" stroke-width="5" d="M73.24 203H260c7.12 0 12.9-4.63 12.9-10.34h0c0-5.71-5.77-10.34-12.9-10.34h-92.46"/></svg>