<svg xmlns="http://www.w3.org/2000/svg" id="Camada_1" x="0" y="0" version="1.1" viewBox="0 0 50 50" xml:space="preserve"><style>.st2,.st3{fill:none;stroke:#444;stroke-miterlimit:10}.st3{stroke-width:.5}</style><switch><g><path fill="#7df4eb" d="M44.6 12.4L39 8.8l-7.7-4.4-6-2.8c-3.2 0-21.5 8.9-21.5 12.1l-.5 7.8.5 15.1 11.5 7.6 31-11c.9-.5-.7-18.8-1.7-20.8z"/><path fill="none" stroke="#444" stroke-linecap="round" stroke-linejoin="round" stroke-miterlimit="10" stroke-width="2.5" d="M29.9 46.5l-2.2 1.3c-1.7 1-3.8 1-5.5 0l-15.6-9C5 37.8 3.9 36 3.9 34V16c0-2 1-3.8 2.7-4.7l15.6-9c1.7-1 3.8-1 5.5 0l15.6 9c1.7 1 2.7 2.8 2.7 4.7v18c0 2-1 3.8-2.7 4.7l-2.5 1.4"/><circle cx="16.8" cy="14.8" r="1.4" class="st2"/><path d="M16.8 16.1v4" class="st3"/><path d="M20 41.7c-.6 0-1.2-.5-1.2-1.2v-2.4c0-.6-.5-1.2-1.2-1.2h-2.9c-.6 0-1.2-.5-1.2-1.2v-4.2c0-.6-.4-1-.9-1.1l-1.3-.3c-.8-.2-1.2-1-.8-1.7l2.4-4.3c.1-.2.1-.4.1-.5v-2.4c0-.6.5-1.1 1.2-1.1h20.4c.6 0 1.1.4 1.2 1 .3 2 .4 6.6-2.8 11-.6.9-1.4 1.7-2.3 2.6v2.6" class="st2"/><path d="M15.9 22.7s.4 1.8 2.4 1.8 2.7-1.8 2.7-1.8" class="st3"/><path d="M25.3 19.9l-2.1-5.3-1.6.7 1.2-4.4 4.8 2-1.8.7 2.9 6.3" class="st2"/><path d="M21.8 20.1v-1.7s-.1-1.6 1.8-1.6h5.3s1.8.1 1.7-1.7v-1.9" class="st3"/><path fill="none" stroke="#444" stroke-linejoin="round" stroke-miterlimit="10" d="M29.4 10.6h2.7v2.5h-2.7z"/><path d="M31.5 20l3.3-7.1 1.8-1.7c.3-.3.8-.1.7.3l-.1 2.4-2.5 5.9m-.6-5.5s1.8-.4 2.5 1" class="st2"/><ellipse cx="16.9" cy="14.7" class="st3" rx="3.5" ry="3.3"/></g></switch></svg>