<svg xmlns="http://www.w3.org/2000/svg" version="1" viewBox="0 0 50 50"><path fill="#00C8E2" d="M7.253 37.788l5.451 3.147L44.948 29.2V16.025a4.402 4.402 0 0 0-2.201-3.812L27.201 3.237a4.404 4.404 0 0 0-4.402 0L7.253 12.212a4.402 4.402 0 0 0-2.201 3.812v17.951c0 1.573.839 3.026 2.201 3.813z"/><path fill="#00DFFC" d="M35.55 8.058l-8.349-4.821a4.404 4.404 0 0 0-4.402 0L7.254 12.212a4.402 4.402 0 0 0-2.201 3.812v3.134l30.497-11.1z"/><path fill="#444" d="M25 48.53a5.578 5.578 0 0 1-2.791-.745L6.664 38.81a5.6 5.6 0 0 1-2.791-4.835v-17.95a5.6 5.6 0 0 1 2.791-4.835l15.545-8.975a5.6 5.6 0 0 1 5.583 0l15.545 8.975a5.598 5.598 0 0 1 2.791 4.835V29.2a1.18 1.18 0 1 1-2.36 0V16.025a3.23 3.23 0 0 0-1.611-2.79L26.611 4.26a3.232 3.232 0 0 0-3.222 0L7.844 13.234a3.23 3.23 0 0 0-1.611 2.79v17.95c0 1.148.617 2.217 1.611 2.79l15.545 8.975a3.227 3.227 0 0 0 3.222 0l4.293-2.478a1.18 1.18 0 0 1 1.18 2.045l-4.293 2.478A5.57 5.57 0 0 1 25 48.53z"/><path fill="#444" d="M32.415 21.84h-14.83a.708.708 0 0 1 0-1.416h14.83a.708.708 0 0 1 0 1.416zm0 5.056h-14.83a.708.708 0 0 1 0-1.416h14.83a.708.708 0 0 1 0 1.416zm0 5.056h-14.83a.708.708 0 0 1 0-1.416h14.83a.708.708 0 0 1 0 1.416z"/></svg>