<?xml version="1.0" encoding="UTF-8"?>
<svg id="Camada_2" data-name="Camada 2" xmlns="http://www.w3.org/2000/svg" width="44.88" height="44.88" viewBox="0 0 44.88 44.88">
  <defs>
    <style>
      .cls-1 {
        fill: #e5e5e5;
      }

      .cls-1, .cls-2 {
        stroke-width: 0px;
      }

      .cls-2 {
        fill: #8852ca;
      }
    </style>
  </defs>
  <g id="PM3">
    <g>
      <g>
        <path class="cls-2" d="m36.8,33.56l7.62,7.96c.3-.68.46-1.43.46-2.22v-2.14l-5.66-5.92-2.42,2.31Z"/>
        <g>
          <path class="cls-2" d="m34.39,33.5c0-.15.05-.3.12-.43l-2.56-2.68c-1.58.85-3.38,1.33-5.29,1.33-6.18,0-11.21-5.03-11.21-11.21s5.03-11.21,11.21-11.21,11.22,5.03,11.22,11.21c0,2.15-.62,4.14-1.67,5.85l2.52,2.64c.16-.1.34-.18.54-.17.27,0,.52.12.7.31l4.91,5.13V6.45c-.05,0-.11-.02-.16-.02H9.2c-1.83,0-3.32,1.49-3.32,3.32v21.96c0,1.83,1.49,3.32,3.32,3.32h1.26c.13,0,.27.03.39.08.05.02.08.05.12.08.07.04.14.08.2.13.09.09.17.2.22.32l1.54,3.64,3.65-3.93s.01,0,.02-.01c.06-.06.13-.1.19-.14.04-.03.08-.06.13-.08.05-.02.1-.02.15-.03.08-.02.15-.05.23-.05,0,0,.01,0,.02,0h15.86c.55,0,1,.45,1,1s-.45,1-1,1h-15.43l-4.41,4.74c-.19.21-.46.32-.73.32-.06,0-.12,0-.17-.02-.33-.06-.62-.28-.75-.6l-1.88-4.45h-.6c-2.93,0-5.32-2.39-5.32-5.32V9.75c0-2.93,2.39-5.32,5.32-5.32h35.52s.03,0,.04,0c-.53-2.53-2.77-4.44-5.46-4.44H5.58C2.5,0,0,2.5,0,5.58v33.72c0,3.08,2.5,5.58,5.58,5.58h33.72c.96,0,1.87-.24,2.66-.67.49-.26.92-.6,1.31-1l-8.6-8.99c-.18-.19-.28-.45-.28-.71Z"/>
          <rect class="cls-2" x="34.55" y="28.28" width="1.87" height="3.13" transform="translate(-10.79 32.8) rotate(-43.72)"/>
          <path class="cls-2" d="m26.66,11.29c-5.08,0-9.21,4.13-9.21,9.21s4.13,9.21,9.21,9.21,9.22-4.13,9.22-9.21-4.13-9.21-9.22-9.21Zm-1,3.77c0-.55.45-1,1-1s1,.45,1,1v7.29c0,.55-.45,1-1,1s-1-.45-1-1v-7.29Zm1,12.33c-.92,0-1.67-.75-1.67-1.66s.75-1.67,1.67-1.67,1.67.75,1.67,1.67-.75,1.66-1.67,1.66Z"/>
        </g>
      </g>
      <g>
        <path class="cls-1" d="m9.2,4.43c-2.93,0-5.32,2.39-5.32,5.32v21.96c0,2.93,2.39,5.32,5.32,5.32h.6l1.88,4.45c.13.31.41.54.75.6.06.01.12.02.17.02.28,0,.54-.11.73-.32l4.41-4.74h15.43c.55,0,1-.45,1-1s-.45-1-1-1h-15.86s-.01,0-.02,0c-.08,0-.16.03-.23.05-.05.01-.1.01-.15.03-.05.02-.08.06-.13.08-.07.04-.14.08-.19.14,0,0-.01,0-.02.01l-3.65,3.93-1.54-3.64c-.05-.12-.13-.23-.22-.32-.06-.06-.13-.09-.2-.13-.04-.03-.08-.06-.12-.08-.12-.05-.25-.08-.39-.08h-1.26c-1.83,0-3.32-1.49-3.32-3.32V9.75c0-1.83,1.49-3.32,3.32-3.32h35.52c.05,0,.11.01.16.02v-.87c0-.39-.04-.77-.12-1.14-.01,0-.03,0-.04,0H9.2Z"/>
        <path class="cls-1" d="m36.8,33.56l2.42-2.31,5.66,5.92v-2.89l-4.91-5.13c-.18-.19-.44-.3-.7-.31-.2-.01-.38.06-.54.17l-2.52-2.64c1.05-1.71,1.67-3.71,1.67-5.85,0-6.18-5.03-11.21-11.22-11.21s-11.21,5.03-11.21,11.21,5.03,11.21,11.21,11.21c1.91,0,3.71-.48,5.29-1.33l2.56,2.68c-.07.13-.11.28-.12.43,0,.27.09.52.28.71l8.6,8.99c.48-.49.88-1.05,1.15-1.69l-7.62-7.96Zm-10.15-3.83c-5.08,0-9.21-4.13-9.21-9.21s4.13-9.21,9.21-9.21,9.22,4.13,9.22,9.21-4.13,9.21-9.22,9.21Zm7.07-.36l1.35-1.29,2.16,2.26-1.35,1.29-2.16-2.26Z"/>
        <path class="cls-1" d="m26.66,23.35c.55,0,1-.45,1-1v-7.29c0-.55-.45-1-1-1s-1,.45-1,1v7.29c0,.55.45,1,1,1Z"/>
        <path class="cls-1" d="m26.66,24.06c-.92,0-1.67.75-1.67,1.67s.75,1.66,1.67,1.66,1.67-.75,1.67-1.66-.75-1.67-1.67-1.67Z"/>
      </g>
    </g>
  </g>
</svg>
