<svg xmlns="http://www.w3.org/2000/svg" id="Camada_2" data-name="Camada 2" viewBox="0 0 44.88 44.88"><defs><style>.cls-1{fill:#b68af3}.cls-2{fill:#e5e5e5}</style></defs><g id="Camada_2-2" data-name="Camada 2"><path d="M42.72 32.96l-2.66-2.64c-.22-.22-.5-.32-.79-.32s-.58.11-.8.33l-.51.52-.51.52c-.43.44-.43 1.15 0 1.58h.01l2.02 2.01 3.82 3.79c.21.21.53.33.79.32.29 0 .56-.12.77-.32V35.1l-.14-.14-2.02-2z" class="cls-1"/><path d="M44.1 40.07c-.56 0-1.09-.22-1.49-.61l-4.54-4.5H16.29l-3.48 3.98c-.19.22-.47.34-.75.34-.05 0-.1 0-.14-.01a.995.995 0 01-.76-.57l-1.71-3.74H8.16c-2.36 0-4.29-1.92-4.29-4.28V7.37c0-2.36 1.92-4.29 4.29-4.29H44.3A5.57 5.57 0 0039.31 0H5.58C2.5 0 0 2.5 0 5.58V39.3c0 3.08 2.5 5.58 5.58 5.58H39.3c.96 0 1.87-.24 2.66-.67a5.583 5.583 0 002.88-4.27c-.23.08-.47.14-.72.14z" class="cls-1"/><path d="M36.81 18.94c0-5.76-4.69-10.45-10.45-10.45s-10.45 4.69-10.45 10.45 4.69 10.45 10.45 10.45a10.4 10.4 0 007.15-2.85l.49-.49c1.74-1.87 2.81-4.36 2.81-7.1zm-10.45 8.48c-4.68 0-8.48-3.81-8.48-8.48s3.81-8.48 8.48-8.48 8.48 3.81 8.48 8.48-3.81 8.48-8.48 8.48z" class="cls-1"/><path d="M26.56 20.19c.19 0 .35-.16.35-.35v-5.63c0-.19-.16-.35-.35-.35s-.34.16-.34.35v5.63c0 .19.15.35.34.35z" class="cls-1"/><path d="M26.37 11.46c-4.13 0-7.48 3.36-7.48 7.48s3.36 7.48 7.48 7.48 7.48-3.36 7.48-7.48-3.36-7.48-7.48-7.48zm-1.15 2.75c0-.74.6-1.35 1.34-1.35s1.35.6 1.35 1.35v5.63c0 .74-.6 1.35-1.35 1.35s-1.34-.6-1.34-1.35v-5.63zm1.34 10.52a1.54 1.54 0 11.001-3.081 1.54 1.54 0 01-.001 3.081z" class="cls-1"/><path d="M26.56 22.65c-.3 0-.54.24-.54.54s.24.54.54.54.54-.24.54-.54-.24-.54-.54-.54z" class="cls-1"/><path d="M5.86 7.37v23.31c0 1.26 1.03 2.28 2.29 2.28h1.94c.39 0 .75.23.91.58l1.34 2.92 2.76-3.16a.98.98 0 01.75-.34h20.46c-.14-.34-.2-.71-.15-1.08l-3.45-3.42a11.386 11.386 0 01-6.33 1.92c-6.31 0-11.45-5.13-11.45-11.45S20.06 7.48 26.38 7.48s11.45 5.13 11.45 11.45c0 2.52-.83 4.85-2.22 6.74L39 29.02c.63-.09 1.29.1 1.78.59l3.38 3.35h.74V5.58c0-.17-.01-.33-.03-.5H8.15a2.29 2.29 0 00-2.29 2.29z" class="cls-1"/><path d="M37.77 29.63l.19-.2-2.98-2.95-.27.27c-.16.17-.32.33-.48.49l-.67.67 2.98 2.95.19-.19 1.02-1.03z" class="cls-1"/><path d="M26.37 10.46c-4.68 0-8.48 3.81-8.48 8.48s3.81 8.48 8.48 8.48 8.48-3.81 8.48-8.48-3.81-8.48-8.48-8.48zm0 15.97c-4.13 0-7.48-3.36-7.48-7.48s3.36-7.48 7.48-7.48 7.48 3.36 7.48 7.48-3.36 7.48-7.48 7.48z" class="cls-2"/><path d="M44.88 38.75c-.21.2-.48.32-.77.32-.27 0-.58-.11-.79-.32l-3.82-3.79-2.02-2h-.01c-.44-.45-.44-1.16 0-1.6l.51-.52.51-.52a1.137 1.137 0 011.59-.01l2.66 2.64 2.02 2 .14.14v-2.14h-.74l-3.38-3.35c-.49-.48-1.15-.67-1.78-.59l-3.39-3.35c1.39-1.89 2.22-4.22 2.22-6.74 0-6.31-5.13-11.45-11.45-11.45S14.93 12.6 14.93 18.92s5.13 11.45 11.45 11.45c2.34 0 4.52-.71 6.33-1.92l3.45 3.42c-.05.36.01.73.15 1.08H15.84a.98.98 0 00-.75.34l-2.76 3.16-1.34-2.92a.989.989 0 00-.91-.58H8.14c-1.26 0-2.29-1.02-2.29-2.28V7.37c0-1.26 1.03-2.29 2.29-2.29h36.71c-.06-.71-.26-1.39-.57-2H8.15C5.79 3.08 3.86 5 3.86 7.37v23.31c0 2.36 1.92 4.28 4.29 4.28h1.29l1.71 3.74c.14.31.43.52.76.57.05 0 .1.01.14.01.29 0 .56-.12.75-.34l3.48-3.98h21.78l4.54 4.5c.4.4.93.61 1.49.61.25 0 .49-.05.72-.14.02-.21.04-.42.04-.64v-.55zm-18.51-9.37c-5.76 0-10.45-4.69-10.45-10.45S20.61 8.48 26.37 8.48s10.45 4.69 10.45 10.45c0 2.74-1.07 5.23-2.81 7.1l-.49.49a10.4 10.4 0 01-7.15 2.85zm10.37 1.29l-.19.19-2.98-2.95.67-.67c.17-.16.33-.32.48-.49l.27-.27 2.98 2.95-.19.2-1.02 1.03z" class="cls-2"/><path d="M26.56 21.19c.74 0 1.35-.6 1.35-1.35v-5.63c0-.74-.6-1.35-1.35-1.35s-1.34.6-1.34 1.35v5.63c0 .74.6 1.35 1.34 1.35zm-.34-6.98c0-.19.15-.35.34-.35s.35.16.35.35v5.63c0 .19-.16.35-.35.35s-.34-.16-.34-.35v-5.63zm.34 7.44a1.54 1.54 0 10.001 3.081 1.54 1.54 0 00-.001-3.081zm0 2.09c-.3 0-.54-.24-.54-.54s.24-.54.54-.54.54.24.54.54-.24.54-.54.54z" class="cls-2"/></g></svg>