<?xml version="1.0" encoding="utf-8"?>
<!-- Generator: Adobe Illustrator 26.4.1, SVG Export Plug-In . SVG Version: 6.00 Build 0)  -->
<svg version="1.1" id="Layer_1" xmlns="http://www.w3.org/2000/svg" xmlns:xlink="http://www.w3.org/1999/xlink" x="0px" y="0px"
	 viewBox="0 0 50 50" style="enable-background:new 0 0 50 50;" xml:space="preserve">
<style type="text/css">
	.st0{fill:#FCC34F;}
	.st1{fill:#FDCF72;}
	.st2{fill:#444444;}
</style>
<g id="Layer_2_00000059279208837492248030000018353883522086443143_">
</g>
<g>
	<g>
		<g>
			<g>
				<path class="st0" d="M6.5,38.2l5.6,3.3l33.5-18.5l-0.1-7.3c0-1.6-0.9-3.1-2.3-4L27.2,2.4c-1.4-0.8-3.2-0.8-4.6,0L6.5,11.7
					c-1.4,0.8-2.3,2.3-2.3,4v18.6C4.2,35.9,5.1,37.4,6.5,38.2z"/>
			</g>
			<g>
				<path class="st1" d="M33.7,6.2l-6.5-3.8c-1.4-0.8-3.2-0.8-4.6,0L6.5,11.7c-1.4,0.8-2.3,2.3-2.3,4l-0.3,7.8L33.7,6.2z"/>
			</g>
			<g>
				<path class="st2" d="M24.8,49.4c-1,0-2-0.3-2.9-0.8L5.8,39.3c-1.8-1-2.9-3-2.9-5V15.7c0-2.1,1.1-4,2.9-5l16.1-9.3
					c1.8-1,4-1,5.8,0l16.1,9.3c1.8,1,2.9,3,2.9,5v13.7c0,0.7-0.5,1.2-1.2,1.2c-0.7,0-1.2-0.5-1.2-1.2V15.7c0-1.2-0.6-2.3-1.7-2.9
					L26.4,3.5c-1-0.6-2.3-0.6-3.3,0L7,12.8c-1,0.6-1.7,1.7-1.7,2.9v18.6c0,1.2,0.6,2.3,1.7,2.9l16.1,9.3c1,0.6,2.3,0.6,3.3,0
					l4.4-2.6c0.6-0.3,1.3-0.1,1.7,0.4c0.3,0.6,0.1,1.3-0.4,1.7l-4.4,2.6C26.8,49.2,25.8,49.4,24.8,49.4z"/>
			</g>
		</g>
	</g>
	<g>
		<path class="st2" d="M28.1,24.9c-0.9,0.2-1.9,0.3-2.8,0.4c-3.6,0.4-5.8,0.8-6.2,3c-0.2,1.3,0.3,2,0.8,2.5c0.6,0.5,1.4,0.8,2.3,0.8
			c0.6,0,1.2-0.1,1.8-0.3c0.6-0.2,1.5-0.6,2.4-1.5c1.1-1,1.9-2.4,2.4-4c0.1-0.2,0-0.4-0.1-0.6C28.5,24.9,28.3,24.8,28.1,24.9z
			 M23.6,30c-1.1,0.4-2.3,0.3-2.9-0.2c-0.2-0.2-0.5-0.6-0.4-1.4c0.2-1.3,1.6-1.6,5.1-2c0.6-0.1,1.2-0.1,1.9-0.2
			C26.2,28.9,24.4,29.8,23.6,30z"/>
		<path class="st2" d="M15.7,33h-1.8c-0.3,0-0.6,0.3-0.6,0.6c0,0.3,0.3,0.6,0.6,0.6h1.5l-0.3,1.8c-0.1,0.3,0.1,0.6,0.5,0.7
			c0,0,0.1,0,0.1,0c0.3,0,0.5-0.2,0.6-0.5l0.4-2h5.7h0h5.8h1.5l-0.3,1.8c-0.1,0.3,0.1,0.6,0.5,0.7c0,0,0.1,0,0.1,0
			c0.3,0,0.5-0.2,0.6-0.5l0.4-2h5c0.3,0,0.6-0.3,0.6-0.6c0-0.3-0.3-0.6-0.6-0.6H31l2-10.8c0,0,0-0.1,0-0.1l0.9-5h1.8
			c0.3,0,0.6-0.3,0.6-0.6c0-0.3-0.3-0.6-0.6-0.6h-1.6l0.3-1.8c0.1-0.3-0.1-0.6-0.5-0.7c-0.3-0.1-0.6,0.1-0.7,0.5l-0.4,2h-13l0.3-1.8
			c0.1-0.3-0.1-0.6-0.5-0.7c-0.3-0.1-0.6,0.1-0.7,0.5l-0.4,2h-5c-0.3,0-0.6,0.3-0.6,0.6c0,0.3,0.3,0.6,0.6,0.6h4.8 M31.3,17.1h1.5
			l-0.3,1.3C32,17.6,31.3,17.1,31.3,17.1z M19.6,17.1h2.7c0,0-0.1,0-0.1,0.1c-1,0.6-1.9,1.5-2.7,2.6c-0.1,0.1-0.1,0.3-0.1,0.4
			c0,0.2,0.1,0.3,0.3,0.4l2.2,1.5c0.1,0.1,0.3,0.1,0.4,0.1c0.2,0,0.3-0.1,0.4-0.3c0.7-1.1,1.8-2.2,4.2-2.2c1.3,0,2,0.3,2.2,0.5
			c0.1,0.1,0.2,0.4,0.1,1.2l-0.1,0.4c-1.1,0.4-2.6,0.6-4.1,0.8l0,0c-1.7,0.2-3.4,0.4-4.9,1c-0.7,0.3-1.3,0.6-1.8,1.1L19.6,17.1z
			 M16.8,33l0.3-1.6c0.3,0.5,0.7,1,1.1,1.4c0.1,0.1,0.2,0.2,0.3,0.2H16.8z M27.4,33h-1.1c0.4-0.2,0.7-0.5,1.1-0.7V33z M28.6,33v-2
			c0-0.2-0.1-0.5-0.4-0.5c-0.2-0.1-0.5,0-0.6,0.1c-0.9,0.9-2,1.6-3.1,2C23.7,32.8,23,33,22.2,33c-1.3,0-2.4-0.4-3.3-1.1
			c-1.1-0.9-1.5-2.3-1.3-3.8l0-0.2c0.3-1.5,1.2-2.5,2.8-3.2c1.3-0.5,3-0.7,4.6-0.9l0,0c1.7-0.2,3.4-0.4,4.7-1
			c0.2-0.1,0.3-0.2,0.3-0.4l0.1-0.7c0.2-0.9,0.1-1.7-0.3-2.2c-0.7-0.8-2-1-3.1-1c-2.7,0-4.1,1.1-4.9,2.2L20.8,20
			c0.6-0.8,1.2-1.3,2-1.8c1.2-0.7,2.6-1.1,4.2-1.1c2,0,3.4,0.5,4.3,1.5c0.7,0.8,0.9,1.9,0.7,3.3l0,0c0,0-2.1,11-2.1,11H28.6z"/>
	</g>
</g>
</svg>
