<?xml version="1.0" encoding="utf-8"?>
<!-- Generator: Adobe Illustrator 27.3.1, SVG Export Plug-In . SVG Version: 6.00 Build 0)  -->
<svg version="1.1" id="Camada_3" xmlns="http://www.w3.org/2000/svg" xmlns:xlink="http://www.w3.org/1999/xlink" x="0px" y="0px"
	 viewBox="0 0 50 50" style="enable-background:new 0 0 50 50;" xml:space="preserve">
<style type="text/css">
	.st0{fill:#C3FF68;}
	.st1{fill:#AFE55D;}
	.st2{fill:none;stroke:#444444;stroke-linecap:round;stroke-linejoin:round;stroke-miterlimit:10;}
	.st3{fill:none;stroke:#444444;stroke-width:0.25;stroke-linecap:round;stroke-linejoin:round;stroke-miterlimit:10;}
	.st4{fill:none;stroke:#444444;stroke-width:2.5;stroke-linecap:round;stroke-linejoin:round;stroke-miterlimit:10;}
</style>
<g>
	<g>
		<path class="st0" d="M28.8,2.4c-1-0.1-2.1-0.2-3.2-0.2s-2.2,0.1-3.2,0.2C11.6,3.8,9.9,9.6,7.9,20.1l29.7-11
			C34,6.1,33.6,3.1,28.8,2.4z"/>
		<path class="st1" d="M37,9L8.5,19.6c-0.3,0.1-0.8-2.5-0.7-2.2c0.4,3.4-4.9,4.6-4.9,6.2c0,7.4,0.7,14.4,5.8,19
			c0.4,0.4,0.6,1,1.1,0.8l37.2-13.2c0.5-0.2-0.1-0.5,0-1c0.2-1.3,0.6-1.4-0.6-1.9c-7.7-2.7-6.9,3-6-12.5C40.4,14.2,37.5,8.8,37,9z"
			/>
	</g>
	<g>
		<g>
			<path class="st2" d="M24.5,8.4c-4.6-0.1-8.5,3.6-8.6,8.2c-0.1,2.4,0.9,4.1,2.2,5.9c1.1,1.5,2,2,2.4,4.3"/>
			<polyline class="st2" points="28.5,26.7 28.5,26.7 20.6,26.7 			"/>
			<path class="st2" d="M28.5,26.7c0.5-2.3,1.3-2.7,2.4-4.3c1.3-1.8,2.3-3.5,2.2-5.9c-0.1-4.6-4-8.2-8.6-8.2"/>
			<line class="st2" x1="21.9" y1="29.3" x2="27.4" y2="29.3"/>
			<g>
				<path class="st3" d="M27.7,12.1c1.4,0.8,2.4,2.2,2.7,3.8"/>
			</g>
			<path class="st3" d="M37.5,33.9C29.7,39.1,24.5,45,24.5,45"/>
			<line class="st3" x1="24.5" y1="32.1" x2="24.5" y2="45"/>
			<path class="st2" d="M27.4,42.1c17,4.7,16.1-10.1,16.1-13.4c-2.6,2.6-7.5-0.5-13.1,3.2c-3.9,2.6-3.3,7.2-3.3,7.2L27.4,42.1z"/>
			<path class="st3" d="M12.7,32.6C20.5,37.2,24.5,45,24.5,45"/>
			<g>
				<path class="st2" d="M21.4,40.4C4.4,44.3,5.5,28.7,6.2,24.1c2.1,2.1,4,2.2,8.2,3.7c1.4,0.5,3.4,1.3,4.4,2.4
					C20.5,32.2,23.2,35.5,21.4,40.4z"/>
			</g>
			<line class="st3" x1="24.5" y1="5.8" x2="24.5" y2="4.5"/>
			<line class="st3" x1="18.9" y1="7.3" x2="18.3" y2="6.2"/>
			<line class="st3" x1="14.8" y1="11.4" x2="13.7" y2="10.7"/>
			<line class="st3" x1="13.4" y1="16.9" x2="12" y2="16.9"/>
			<line class="st3" x1="14.8" y1="22.5" x2="13.7" y2="23.1"/>
			<line class="st3" x1="34.1" y1="22.5" x2="35.2" y2="23.1"/>
			<line class="st3" x1="35.6" y1="16.9" x2="36.9" y2="16.9"/>
			<line class="st3" x1="34.1" y1="11.4" x2="35.2" y2="10.7"/>
			<line class="st3" x1="30" y1="7.3" x2="30.7" y2="6.2"/>
			<path class="st2" d="M21,26.7c0,0,0.1,2.3,0.7,3.8c0.3,0.8,1.1,1.4,2,1.4l1.6,0c0.8,0,1.5-0.4,1.8-1.1c0.4-0.8,0.7-2,0.8-4.1"/>
		</g>
		<path class="st4" d="M45.4,38.3c2-4.9,1.7-9.3,0.9-11.1c-0.6-1.5-2.3-2.1-3.8-1.6c-1.6,0.6-3.9,0.9-3.3-2c0.7-1.9,1.1-4,1-6.2
			C40,9.1,33.2,2.2,24.9,1.8c-9.3-0.4-17,7-17,16.2c0,1.4,0,2.2,0.4,3.6c0,0-5.1-2.5-5.3,3.2c-0.2,5.7-2.1,20.9,17.2,19.3
			c0,0,1.1,4.2,4.3,4.1c3.2-0.1,4-2.5,4-2.5s2.8,0.6,6.1,0.4"/>
	</g>
</g>
</svg>
