<?xml version="1.0" encoding="utf-8"?>
<!-- Generator: Adobe Illustrator 24.3.0, SVG Export Plug-In . SVG Version: 6.00 Build 0)  -->
<svg version="1.1" id="Layer_1" xmlns="http://www.w3.org/2000/svg" xmlns:xlink="http://www.w3.org/1999/xlink" x="0px" y="0px"
	 viewBox="0 0 50 50" style="enable-background:new 0 0 50 50;" xml:space="preserve">
<style type="text/css">
	.st0{fill:#AFE55D;}
	.st1{fill:#C3FF68;}
	.st2{fill:#444444;stroke:#444444;stroke-width:0.3;stroke-miterlimit:10;}
</style>
<path class="st0" d="M36.5,20.9v13.9l-1.9,0.7l-7.3,2.6l-1.9,0.7l-9.6,3.5L13.9,43L2.4,47.2l-1.9,0.6V34l1.9-0.7l11.5-4.2l1.9-0.7
	l6.8-2.4l5.3-2l6.7-2.4L36.5,20.9z"/>
<path class="st1" d="M36.5,13.9v7.6l-1.9,0.7L29.3,24l-5.2,2l-8.3,3l-1.9,0.7L2.4,33.8l-1.9,0.7V20.7L2.4,20l11.5-4.2l1.9-0.7
	L26,11.4l2.8-1l7,2.6C36.2,13.1,36.5,13.5,36.5,13.9z"/>
<path class="st2" d="M26.5,16c0.2,0,0.5-0.1,0.7-0.3s0.3-0.4,0.3-0.7c0-0.2-0.1-0.5-0.3-0.7S26.8,14,26.5,14c-0.2,0-0.5,0.1-0.7,0.3
	s-0.3,0.4-0.3,0.7c0,0.2,0.1,0.5,0.3,0.7C26,15.9,26.2,16,26.5,16z"/>
<path class="st2" d="M48.5,40.4c0.5,0,1-0.4,1-1c0-0.5-0.4-1-1-1H31.8l3.9-1.4h12.8c0.5,0,1-0.4,1-1c0-0.5-0.4-1-1-1h-12V13.9
	c0-0.4-0.3-0.8-0.6-0.9l-7-2.6l-27-9.8c-0.4-0.1-0.7-0.1-1,0.1C0.7,0.9,0.5,1.1,0.5,1.5v47.1c0,0.3,0.2,0.6,0.4,0.8
	c0.2,0.1,0.4,0.2,0.6,0.2h47.1c0.5,0,1-0.4,1-1c0-0.5-0.4-1-1-1H6.9l8.1-3h29.7c0.5,0,1-0.4,1-1c0-0.5-0.4-1-1-1H20.3l6.2-2.3
	L48.5,40.4z M34.6,35.5l-7.3,2.7V26h7.3V35.5z M15.8,7.7L26,11.4l8.6,3.1V24h-7.3v-5.9c0-0.5-0.4-1-1-1c-0.5,0-1,0.4-1,1V24h-9.6
	V7.7C15.7,7.7,15.8,7.7,15.8,7.7z M2.4,2.8L13.9,7v17H2.4V2.8z M13.9,43L2.4,47.2V26h11.5V43z M25.4,38.8l-9.6,3.5V26h9.6V38.8z"/>
<path class="st2" d="M48.5,42.7c-0.3,0-0.5,0.1-0.7,0.3s-0.3,0.4-0.3,0.7s0.1,0.5,0.3,0.7s0.4,0.3,0.7,0.3s0.5-0.1,0.7-0.3
	s0.3-0.4,0.3-0.7s-0.1-0.5-0.3-0.7S48.8,42.7,48.5,42.7z"/>
</svg>
