<?xml version="1.0" encoding="utf-8"?>
<!-- Generator: Adobe Illustrator 22.0.1, SVG Export Plug-In . SVG Version: 6.00 Build 0)  -->
<svg version="1.1" id="Camada_1" xmlns="http://www.w3.org/2000/svg" xmlns:xlink="http://www.w3.org/1999/xlink" x="0px" y="0px"
	 viewBox="0 0 50 50" style="enable-background:new 0 0 50 50;" xml:space="preserve">
<style type="text/css">
	.st0{fill:#CE87EA;}
	.st1{fill:#E097FB;}
	.st2{fill:#464646;}
</style>
<g>
	<path class="st0" d="M41,28.5c0.4-6.3-2.2-11.2-6.3-14.2l-23.2,8.5c-0.7,1.5-1.2,3.3-1.4,5.4c-0.6,7,0,11.7,1.6,14.7l28.7-10.4
		C40.7,31.2,40.9,29.9,41,28.5z"/>
	<path class="st1" d="M31.2,12.3c-2.7-0.9-10.9-1.8-12.7-2.4c-1.8-0.6-3.2-1.2-4.5-2.1c-1.2-1.1-3.2-3.7-3.2-3.7l-1,4.9
		c-0.6,2.2-1.2,5-1,7.3c0.2,2.1,0.8,5.2,3.2,6.1c-0.2,0.3-0.3,0.6-0.4,0.9l23.8-8.7C34.1,13.6,32.7,12.9,31.2,12.3z"/>
	<path class="st2" d="M15.4,34.8l3,0.2l0-0.5l-2.5-0.2c0.2-2.3,2.7-3.1,2.9-3.1l-0.2-0.4c-1.2,0.2-2.9,1-3.2,3.6L15.4,34.8z"/>
	<g>
		<polygon class="st2" points="26.2,24.2 22.2,25.9 21.8,25.2 25.8,23.5 		"/>
		<polygon class="st2" points="13.4,24.2 16.4,26 16.7,25.3 13.7,23.5 		"/>
		<polygon class="st2" points="26,31.7 21.9,29.5 22,28.7 26.2,26.9 26.7,27.7 23.3,29.2 26.5,30.9 		"/>
		<polygon class="st2" points="13.3,31 16.5,29.4 16.5,28.7 13.2,26.5 12.9,27.2 15.5,28.9 12.9,30.2 		"/>
	</g>
	<path class="st2" d="M24,35.9l-8.2,2.8c1,3.1,2.7,6.1,5.6,5C24.9,42.3,24.5,39.1,24,35.9z"/>
	<path class="st2" d="M31.2,10.8L31.2,10.8c-1.6-0.5-4.7-1-7.6-1.5c-2-0.3-4.1-0.6-4.8-0.9c-1.8-0.6-3-1.1-3.9-1.8
		c-1.1-1-2.9-3.4-2.9-3.5L10.2,1L8.7,8.4c-0.9,3.1-1.2,5.5-1,7.6c0.3,3,1.2,5.1,2.7,6.3c-0.7,1.7-1.2,3.6-1.4,5.7
		C8.2,36.6,9.2,42.2,12,45.5c1.8,2.1,4.3,3.2,7.7,3.5c0.3,0,0.7,0,1.1,0c5,0,10.1-2.3,13.7-6.1l0.6,0.4l0.7-0.7
		c0.2-0.2,5.9-5.4,6.5-14.1C42.9,20.4,38.6,13.6,31.2,10.8z M19.9,46.4c-2.7-0.2-4.6-1-6-2.6c-2.3-2.7-3.2-7.8-2.5-15.7
		c0.2-2.2,0.7-4.2,1.6-5.8l0.4-0.7c0.2,0,0.4,0,0.6,0c1.3-0.2,2.4-0.5,3.5-0.8c1.3-0.4,2.5-0.8,4-0.8c2.8,0.2,4.9,0.9,6.8,2.3
		c2.9,2.2,2.7,5.5,2.5,8.4c-0.1,2-0.2,3.8,0.7,5.1l0.8,1.1l0.1-1.3c0.1-0.6,0.2-1.2,0.4-2.1c0.3-1.1,0.9-2.2,1.7-2.6
		c0.4-0.2,0.8-0.3,1.1-0.2c2,0.5,1.5,2.8,1.4,3.5c-0.4,1.5-2.1,3.2-3.2,3.6L33.4,38l0.1,0.5c0.1,0.4,0.3,0.9,0.4,1.4l-0.4,0.4
		C30.1,44.3,24.8,46.7,19.9,46.4z M39.9,28.3c-0.4,5.5-3.2,9.6-4.7,11.3l-0.5-0.8l0,0c0-0.1-0.1-0.2-0.1-0.3c1.4-0.7,3-2.6,3.4-4.1
		c0.6-2.3-0.2-4.2-2.1-4.7c-0.6-0.2-1.3-0.1-1.9,0.3c-1,0.6-1.9,1.9-2.2,3.3c0,0,0,0.1,0,0.1c-0.1-0.8,0-1.7,0.1-2.6
		c0.2-3,0.4-6.8-2.9-9.3c-2-1.5-4.3-2.3-7.3-2.5c-1.6,0-3,0.4-4.3,0.8c-1,0.3-2.1,0.6-3.3,0.8c-0.9,0.1-1.6,0-2.2-0.4
		c-1.1-1-1.5-3.1-1.6-4.4C10,14,10.3,11.8,11.1,9l0.5-2.2c0.5,0.6,1.1,1.3,1.5,1.7l0.1,0.1c1.2,0.9,2.6,1.6,4.8,2.3
		c0.8,0.3,2.5,0.5,5.2,0.9c2.7,0.4,5.8,0.9,7.2,1.3C36.7,15.6,40.3,21.4,39.9,28.3z"/>
</g>
</svg>
