<svg xmlns="http://www.w3.org/2000/svg" version="1" viewBox="0 0 50 50"><path fill="#00C8E2" d="M7.222 26.686a6.485 6.485 0 0 0-.428 2.778v.004a6.486 6.486 0 0 0 5.426 5.98 16.885 16.885 0 0 0 2.793 5.33l28.821-10.49.028-.041a.483.483 0 0 0 0-.522 17.074 17.074 0 0 0-4.75-4.829c.083-.481.143-.971.178-1.466a14.784 14.784 0 0 0-.09-3.095 15.033 15.033 0 0 0-.805-3.251c-.03-.081-.06-.162-.092-.243h-.002a14.57 14.57 0 0 0-.641-1.42l-.019-.037a14.75 14.75 0 0 0 1.73-2.933 14.85 14.85 0 0 0 .816-2.331l.005-.023a14.61 14.61 0 0 0 .38-2.07c.046-.407.076-.819.088-1.235a9.498 9.498 0 0 0-2.709-2.451L37.86 4.3a14.868 14.868 0 0 0-4.244-.174 24.53 24.53 0 0 0-2.961.604h-.002c-.21.058-.628.178-.628.178a15.572 15.572 0 0 0-1.203-.854h-.002a15.788 15.788 0 0 0-2.602-1.349C16.435 5.789 8.647 13.37 5.28 23.026c.004.009.328.809.685 1.569.365.731.786 1.431 1.257 2.091z"/><path fill="#00DFFC" d="M40.642 6.771a9.483 9.483 0 0 0-2.691-2.43L37.86 4.3a14.868 14.868 0 0 0-4.244-.174 24.53 24.53 0 0 0-2.961.604h-.002c-.21.058-.628.178-.628.178a15.382 15.382 0 0 0-1.203-.854h-.002a15.788 15.788 0 0 0-2.602-1.349c-8.381 2.642-15.288 8.591-19.215 16.31L40.642 6.771z"/><path fill="#444" d="M45.118 33.986c-.38-.361-.785-.71-1.205-1.039a29.533 29.533 0 0 0-.312-1.087c.268-.354.667-.892.876-1.213a1.214 1.214 0 0 0-.001-1.323 17.737 17.737 0 0 0-4.569-4.768c.05-.356.089-.714.114-1.069a15.524 15.524 0 0 0-.094-3.245 15.222 15.222 0 0 0-.497-2.361c-.1-.345-.217-.698-.356-1.073l-.273-.701h-.007a14.884 14.884 0 0 0-.297-.652 15.56 15.56 0 0 0 1.544-2.705 15.6 15.6 0 0 0 1.262-4.653c.118-1.053-.267-2.106-1.055-2.89a4.372 4.372 0 0 0-.214-.199c-1.172-1.03-2.721-1.629-4.361-1.685a15.66 15.66 0 0 0-2.16.076c-.982.137-1.976.338-2.956.597l-.38.106c-.318-.238-.64-.461-.961-.666l-.183-.116h-.002a16.586 16.586 0 0 0-2.539-1.295l-.245-.099-.252.079A33.21 33.21 0 0 0 4.599 22.75l-.101.289.098.252c.003.007.331.82.713 1.632a16.42 16.42 0 0 0 1.095 1.872 7.228 7.228 0 0 0-.357 2.252v.075c.021 1.777.678 3.514 1.894 4.811a7.307 7.307 0 0 0 3.715 2.153 17.76 17.76 0 0 0 4.074 6.633l.102.105.439.427a17.6 17.6 0 0 0 12.145 4.824c1.669 0 3.323-.233 4.917-.692a.733.733 0 0 0-.24-1.441l-.16.029a16.27 16.27 0 0 1-4.518.637A16.14 16.14 0 0 1 17.3 42.206l-.435-.423-.082-.084a16.29 16.29 0 0 1-3.748-6.136c.076.003.153.009.229.009a6.928 6.928 0 0 0 2.983-.674.44.44 0 1 0-.382-.793 6.09 6.09 0 0 1-3.575.508.431.431 0 0 0-.27.049 5.677 5.677 0 0 1-1.374-.491 5.775 5.775 0 0 1-3.135-5.122c0-.496.067-.983.19-1.456a.442.442 0 0 0 .074-.122 6.075 6.075 0 0 1 1.97-2.609 6.005 6.005 0 0 1 3.663-1.238l.078.002a5.965 5.965 0 0 1 2.389.523.441.441 0 0 0 .36-.804 6.84 6.84 0 0 0-1.793-.519 25.918 25.918 0 0 1 6.435-7.183c3.047-2.335 6.794-3.696 10.551-3.833.143-.005.279-.008.426-.008 1.056.001 2.102.338 3.026.975a51.858 51.858 0 0 1 2.448 1.78c-.056.079-.111.159-.168.238a14.655 14.655 0 0 0-1.755-.468 15.022 15.022 0 0 0-2.891-.28 14.934 14.934 0 0 0-8.671 2.759l-.167.12a14.967 14.967 0 0 0-5.245 6.944 1.099 1.099 0 0 0-.063.479c.215 2.341.989 4.62 2.242 6.603-.668 1.509-1.969 5.383-1.067 7.809.923 2.484 6.184 5.452 10.427 5.879.497.05 1.008.076 1.519.076 3.104 0 6.481-.833 8.828-2.529 1.662-1.201 2.493-1.89 2.869-2.223.171-.151.312-.326.425-.524.198-.348.517-.908.533-.939.123-.237.241-.478.352-.72l.058-.125c.362-.801.666-1.638.904-2.486a1.19 1.19 0 0 0-.34-1.184zM31.837 10.918c-.138 0-.285.003-.439.009-3.938.144-7.864 1.57-11.055 4.015a26.778 26.778 0 0 0-6.662 7.441c-.07.117-.159.361-.159.361a4.514 4.514 0 0 0-.67.02 6.872 6.872 0 0 0-3.638 1.396 6.942 6.942 0 0 0-1.621 1.754 14.826 14.826 0 0 1-.963-1.631 34.603 34.603 0 0 1-.564-1.278c3.309-9.226 10.8-16.494 20.119-19.52.77.328 1.522.726 2.239 1.186l.099.063c.201.131.403.272.603.418a25.022 25.022 0 0 0-7.92 4.48.44.44 0 1 0 .565.675 24.158 24.158 0 0 1 8.618-4.642.44.44 0 0 0 .248-.168l.207-.059a23.774 23.774 0 0 1 2.846-.583 14.9 14.9 0 0 1 1.933-.066c1.301.045 2.524.514 3.442 1.321.054.048.104.093.147.136.469.467.699 1.081.629 1.699a14.246 14.246 0 0 1-1.142 4.206c-.254.572-.56 1.124-.89 1.66a55.076 55.076 0 0 0-2.43-1.763c-1.069-.738-2.288-1.129-3.542-1.13zM20.369 38.451c-.74-1.99.293-5.534 1.118-7.301a.54.54 0 0 0-.038-.525 14.087 14.087 0 0 1-2.202-6.358.217.217 0 0 1 .012-.095 14.082 14.082 0 0 1 4.937-6.535l.145-.105a14.044 14.044 0 0 1 8.174-2.606c.915 0 1.831.089 2.723.263.578.112 1.151.272 1.714.458l.058.111a13.708 13.708 0 0 1 .606 1.342l.059.155a5.067 5.067 0 0 0-1.546-.082c-.833.088-1.659.477-2.526 1.19a3.581 3.581 0 0 1-.576.387l-.04.022c-1.004.533-2.274.552-3.267.105a5.445 5.445 0 0 0-1.963-.355h-.001c-1.424 0-2.8.654-3.874 1.843-1.004 1.112-1.58 2.514-1.58 3.847 0 3.036 2.679 4.371 4.362 4.909-1.745.926-3.408 2.402-3.688 3.841-.776 3.991 3.075 8.618 4.069 9.549.555.52 1.227.895 1.958 1.096-3.935-.744-7.957-3.335-8.634-5.156zm22.9-1.518l-.057.124c-.116.259-.24.514-.364.754a30.95 30.95 0 0 1-.625 1.102c-.717 1-1.338 1.849-2.388 2.535-1.269.829-2.795 1.473-4.404 1.881-.018.001-.036.002-.053.005-1.262.181-3.971-.13-5.88-.513a3.797 3.797 0 0 1-1.851-.952c-1.244-1.164-4.456-5.398-3.807-8.737.256-1.319 2.268-2.878 4.066-3.624a.522.522 0 0 0 .322-.531.514.514 0 0 0-.409-.457c-1.088-.23-4.637-1.22-4.637-4.306 0-1.102.506-2.319 1.353-3.257.905-1.001 2.048-1.552 3.22-1.552.583 0 1.137.1 1.629.289 1.191.538 2.811.514 4.06-.167l.043-.024c.238-.132.465-.286.675-.459.73-.6 1.403-.925 2.058-.994.6-.064 1.216.009 1.791.21l.011.034c.206.699.358 1.417.451 2.14a14.139 14.139 0 0 1 .085 2.945c-.033.466-.09.934-.169 1.393l-.081.467.392.266a16.284 16.284 0 0 1 4.455 4.482c-.218.318-.588.814-.889 1.21a.92.92 0 0 0-.148.829c.165.535.363 1.208.426 1.499l.032.075a13.938 13.938 0 0 1-7.687 3.391l-.118.014a14.23 14.23 0 0 1-5.935-.648.44.44 0 0 0-.279.835c1.528.51 3.127.769 4.753.769.56 0 1.124-.031 1.675-.093l.155-.019.001-.001a15.03 15.03 0 0 0 8.036-3.605c.282.228.559.461.82.704a16.455 16.455 0 0 1-.728 1.986z"/></svg>