<?xml version="1.0" encoding="utf-8"?>
<!-- Generator: Adobe Illustrator 26.3.1, SVG Export Plug-In . SVG Version: 6.00 Build 0)  -->
<svg version="1.1" id="Layer_1" xmlns="http://www.w3.org/2000/svg" xmlns:xlink="http://www.w3.org/1999/xlink" x="0px" y="0px"
	 viewBox="0 0 50 50" style="enable-background:new 0 0 50 50;" xml:space="preserve">
<style type="text/css">
	.st0{fill:#FCC34F;}
	.st1{fill:#FDCF72;}
	.st2{fill:#494949;stroke:#494949;stroke-miterlimit:10;}
	.st3{fill:#494949;}
</style>
<g>
	<g>
		<polygon class="st0" points="40.8,5.2 40.8,19.5 39.8,19.9 36.8,21 36.1,21.3 31.9,22.8 31.2,23.1 30.3,23.4 29.7,23.6 26.5,24.8 
			25.9,25 23.7,25.8 23.1,26.1 23.1,26.1 20.1,27.1 19.5,27.4 16.3,28.5 15.7,28.8 15.6,28.8 14.9,29 13.4,29.6 11.4,30.3 6.2,32.2 
			5.2,32.6 5.2,18.3 6.2,17.9 9.2,16.8 9.3,16.8 10.5,16.3 23,11.8 23.5,11.6 23.5,11.6 24.4,11.3 35.7,7.1 36.8,6.7 39.8,5.6 		"/>
	</g>
	<g>
		<path class="st1" d="M40.8,1.6v5l-1,0.4L36.8,8l-1,0.4L26,11.9h0l-1.4,0.5L14,16.3l-2.8,1l-5,1.8l-1,0.4v-17l1-0.4l0.3-0.1l2.8-1
			h31C40.6,1,40.8,1.3,40.8,1.6z"/>
	</g>
	<g>
		<g>
			<g>
				<g>
					<path class="st2" d="M40.8,1.6v30.6c0,0.3-0.2,0.5-0.5,0.5c-0.3,0-0.5-0.2-0.5-0.5V2.1H6.2v45.9h28c0.3,0,0.5,0.2,0.5,0.5
						c0,0.3-0.2,0.5-0.5,0.5H5.7c-0.3,0-0.5-0.2-0.5-0.5V1.6C5.2,1.3,5.4,1,5.7,1h34.7C40.6,1,40.8,1.3,40.8,1.6z"/>
				</g>
				<g>
					<path class="st3" d="M36.7,5.4c-0.1-0.2-0.3-0.3-0.5-0.3H9.8c0,0-0.1,0-0.1,0c0,0-0.1,0-0.1,0.1c0,0-0.1,0-0.1,0.1
						c0,0,0,0,0,0.1c0,0-0.1,0.1-0.1,0.1c0,0.1,0,0.1,0,0.2v11.2c0,0.1,0,0.1,0,0.2c0,0.1,0.1,0.2,0.2,0.2c0,0,0,0,0.1,0
						c0.1,0,0.2,0.1,0.2,0.1h26.5c0.1,0,0.2,0,0.2-0.1c0,0,0,0,0.1,0c0.1-0.1,0.1-0.1,0.2-0.2c0-0.1,0-0.1,0-0.2V5.6
						C36.8,5.6,36.8,5.5,36.7,5.4z M35.7,16.3H10.3V6.1h25.5V16.3z"/>
				</g>
				<g>
					<path class="st3" d="M36.3,17.4c-0.1,0-0.1,0-0.2,0L9.5,6.1C9.3,6,9.2,5.7,9.3,5.4c0.1-0.3,0.4-0.4,0.7-0.3l26.5,11.2
						c0.3,0.1,0.4,0.4,0.3,0.7C36.6,17.2,36.4,17.4,36.3,17.4z"/>
				</g>
				<g>
					<path class="st3" d="M9.7,17.4c-0.2,0-0.4-0.1-0.5-0.3c-0.1-0.3,0-0.6,0.3-0.7L36.1,5.2c0.3-0.1,0.6,0,0.7,0.3
						c0.1,0.3,0,0.6-0.3,0.7L9.9,17.3C9.9,17.3,9.8,17.4,9.7,17.4z"/>
				</g>
				<g>
					<g>
						<path class="st3" d="M16,20.4H9.6c-0.1,0-0.2,0-0.2,0.1c-0.1,0.1-0.1,0.2-0.1,0.3V30c0,0.2,0.1,0.4,0.3,0.4H16
							c0.1,0,0.1,0,0.2-0.1c0.1-0.1,0.1-0.2,0.1-0.3v-9.2C16.3,20.6,16.2,20.4,16,20.4z M15.7,29.6H9.9v-8.4h5.8V29.6z"/>
					</g>
					<g>
						<path class="st3" d="M16,30.3c-0.1,0-0.2,0-0.2-0.1L9.3,21c-0.1-0.2-0.1-0.4,0-0.5c0.1-0.1,0.3-0.1,0.5,0l6.4,9.2
							c0.1,0.2,0.1,0.4,0,0.5C16.1,30.3,16.1,30.3,16,30.3z"/>
					</g>
				</g>
				<g>
					<g>
						<path class="st3" d="M26.2,20.4h-6.4c-0.1,0-0.1,0-0.2,0.1c0,0-0.1,0.1-0.1,0.1c0,0.1,0,0.1,0,0.2V30c0,0.2,0.1,0.4,0.3,0.4
							h6.4c0.1,0,0.1,0,0.2-0.1c0.1-0.1,0.1-0.2,0.1-0.3v-9.2C26.5,20.6,26.4,20.4,26.2,20.4z M25.9,29.6h-5.8v-8.4h5.8V29.6z"/>
					</g>
					<g>
						<path class="st3" d="M26.2,30.3c-0.1,0-0.2,0-0.2-0.1L19.5,21c-0.1-0.2-0.1-0.4,0-0.5c0.1-0.1,0.3-0.1,0.5,0l6.4,9.2
							c0.1,0.2,0.1,0.4,0,0.5C26.4,30.3,26.3,30.3,26.2,30.3z"/>
					</g>
				</g>
				<g>
					<g>
						<path class="st3" d="M36.4,20.4H30c-0.1,0-0.1,0-0.2,0.1c0,0-0.1,0.1-0.1,0.1c0,0.1,0,0.1,0,0.2V30c0,0.2,0.1,0.4,0.3,0.4h6.4
							c0.1,0,0.1,0,0.2-0.1c0.1-0.1,0.1-0.2,0.1-0.3v-9.2C36.8,20.6,36.6,20.4,36.4,20.4z M36.1,29.6h-5.8v-8.4h5.8V29.6z"/>
					</g>
					<g>
						<path class="st3" d="M36.4,30.3c-0.1,0-0.2,0-0.2-0.1L29.8,21c-0.1-0.2-0.1-0.4,0-0.5c0.1-0.1,0.3-0.1,0.5,0l6.4,9.2
							c0.1,0.2,0.1,0.4,0,0.5C36.6,30.3,36.5,30.3,36.4,30.3z"/>
					</g>
				</g>
			</g>
		</g>
		<g>
			<path class="st3" d="M17.5,34.2v12h3.3v-12H17.5z"/>
			<path class="st3" d="M31.4,37.6C30.8,37,30,36.7,29,36.7c-0.6,0-1.2,0.1-1.7,0.3c-0.5,0.2-0.9,0.5-1.1,1H26l-0.4-1.1h-2.4v9.3
				h3.2v-4.1c0-1.1,0.1-1.8,0.4-2.2c0.2-0.4,0.6-0.7,1.2-0.7c0.4,0,0.7,0.2,0.9,0.5c0.2,0.3,0.3,0.8,0.3,1.4v5.1h3.2v-6.1
				C32.3,39,32,38.2,31.4,37.6z"/>
			<path class="st3" d="M43.3,35.6c-1.1-1-2.5-1.5-4.5-1.5h-4.2v12h3.9c2,0,3.6-0.5,4.7-1.6c1.1-1.1,1.7-2.6,1.7-4.6
				C44.8,38,44.3,36.6,43.3,35.6z M40.8,42.7c-0.5,0.6-1.2,0.9-2.2,0.9h-0.7v-6.7h0.9c0.9,0,1.5,0.3,2,0.8c0.4,0.5,0.6,1.4,0.6,2.5
				C41.5,41.2,41.2,42.1,40.8,42.7z"/>
		</g>
	</g>
</g>
</svg>
