<?xml version="1.0" encoding="utf-8"?>
<!-- Generator: Adobe Illustrator 22.1.0, SVG Export Plug-In . SVG Version: 6.00 Build 0)  -->
<svg version="1.1" id="Layer_1" xmlns="http://www.w3.org/2000/svg" xmlns:xlink="http://www.w3.org/1999/xlink" x="0px" y="0px"
	 viewBox="0 0 50 50" style="enable-background:new 0 0 50 50;" xml:space="preserve">
<style type="text/css">
	.st0{fill:#DC5E82;}
	.st1{fill:#F56991;}
	.st2{fill:#444444;}
</style>
<g>
	<g>
		<polygon class="st0" points="45.7,32.5 4.4,47.6 4.6,19.7 45.7,4.9 		"/>
	</g>
	<g>
		<polygon class="st1" points="46.3,4.6 4.6,19.9 5.1,2.1 44.5,1.4 		"/>
	</g>
	<g>
		<path class="st2" d="M45.2,49.7h-7c-0.7,0-1.2-0.6-1.2-1.2s0.6-1.2,1.2-1.2H44V2.8H6v44.4h18.7c0.7,0,1.2,0.6,1.2,1.2
			s-0.6,1.2-1.2,1.2H4.8c-0.7,0-1.2-0.6-1.2-1.2V1.6c0-0.7,0.6-1.2,1.2-1.2h40.5c0.7,0,1.2,0.6,1.2,1.2v46.9
			C46.5,49.1,45.9,49.7,45.2,49.7z"/>
	</g>
	<path class="st2" d="M38.8,7.2H11.2c-0.4,0-0.8,0.3-0.8,0.8V42c0,0.4,0.3,0.8,0.8,0.8h17c0.1,0,0.2,0,0.3-0.1
		c0.1,0,0.2-0.1,0.2-0.2l10.7-10.7c0.1-0.1,0.1-0.2,0.2-0.2c0-0.1,0.1-0.2,0.1-0.3V8C39.6,7.5,39.3,7.2,38.8,7.2z M28.9,40.2v-8.1
		H37L28.9,40.2z M38.1,30.6h-9.9c-0.4,0-0.8,0.3-0.8,0.8v9.9H11.9V8.7h26.2V30.6z"/>
</g>
</svg>
