<svg xmlns="http://www.w3.org/2000/svg" id="Camada_1" data-name="Camada 1" viewBox="0 0 300 300"><defs><style>.cls-1{fill:#ff4a75}.cls-3{fill:#ffe}.cls-4{fill:#fac900}.cls-5{fill:#aa57e5}.cls-9{fill:#4ebfe9}.cls-10{fill:#61e061}.cls-12{isolation:isolate;opacity:.1}</style></defs><path id="Camada_10" fill="#008dd3" d="M285.38 149.42c.1 20.75-4.3 40.45-12.16 58.37-22.11 49.89-71.89 84.68-129.95 84.89-15.41.1-30.29-2.41-44.23-6.81-26.2-8.38-49.05-24.1-66.13-44.86-17.82-21.37-29.45-48.2-32.28-77.54-.42-4.2-.63-8.6-.63-12.89-.21-48.42 23.79-91.39 60.68-117.28 4.82-3.46 9.85-6.5 15.09-9.22 7.34-3.98 15.09-7.13 23.06-9.85 7.55-2.41 15.41-4.19 23.48-5.45 6.5-.84 13.1-1.36 19.81-1.47 26.2-.1 50.83 6.92 72.1 19.18 3.88 2.2 7.44 4.51 11 7.13a143.485 143.485 0 0141.61 46.01c1.15 2.1 2.31 4.09 3.35 6.29.84 1.89 1.78 3.67 2.62 5.55a149.04 149.04 0 016.92 18.65c2.1 7.13 3.67 14.57 4.51 22.01.73 5.66 1.15 11.42 1.15 17.29z" data-name="Camada 10"/><path d="M159.21 50.25l5.02 63.86c.09 1.17-.32 2.24-.99 3.08-.05.05-.14.16-.23.21-.09.11-.18.16-.27.27-.09.06-.14.11-.23.17-.6.44-1.32.69-2.1.76l-107.15 8.42c-.78.06-1.53-.13-2.2-.42-.1-.04-.15-.09-.26-.13-.11-.09-.21-.13-.31-.22-.1-.04-.16-.14-.26-.18-.79-.72-1.36-1.71-1.46-2.88l-5.02-63.86c.11 1.42.95 2.68 2.18 3.37l42.5 22.86 12.58-9.4c.28-.22.61-.39.89-.51.05 0 .09-.06.14-.06.62-.25 1.35-.3 2-.21.1 0 .2.03.3.03.1.04.2.03.3.07.1.04.15.04.25.08.2.08.41.16.61.25l12.72 6.72.97.51 4.55-3.45 33.87-25.72c1.07-.82 1.7-2.2 1.58-3.62z" class="cls-4"/><path d="M163.25 101.66l1.04 13.29-23.84-9.34-22.42-16.33.44-3.18c-.38-.51-.81-.97-1.2-1.48l3.89-3.11c6.08 2.91 12.16 5.83 18.29 8.74 7.87 3.86 15.84 7.65 23.81 11.4zm-115.61 9.08l1.04 13.29 22.09-12.94 19.6-19.63-.93-3.07c.3-.56.65-1.08.95-1.65l-4.32-2.46c-5.55 3.83-11.1 7.66-16.7 11.49a2146.95 2146.95 0 01-21.73 14.98z"/><path d="M163.82 108.89l.41 5.18c.09 1.17-.32 2.24-.99 3.08-.05.05-.14.16-.23.21-.09.11-.18.16-.27.27-.09.06-.14.11-.23.17-.6.44-1.32.69-2.1.76l-107.15 8.42c-.78.06-1.53-.13-2.2-.42-.1-.04-.15-.09-.26-.13-.11-.09-.21-.13-.31-.22-.1-.04-.16-.14-.26-.18-.79-.72-1.36-1.71-1.46-2.88l-.41-5.18c-.11-1.42.51-2.84 1.68-3.67l38.4-28.73 12.58-9.4c.28-.22.61-.39.89-.51.05 0 .09-.06.14-.06.09-.06.19-.06.29-.07.58-.14 1.16-.19 1.76-.14.1 0 .2.03.3.03.1.04.2.03.3.07.1.04.15.04.25.08.2.08.41.16.61.25l12.72 6.72.97.51 42.42 22.43c1.19.74 2.03 2 2.14 3.42z" class="cls-4"/><path d="M159.29 51.32l.41 5.18v.05c.1 1.4-.53 2.8-1.68 3.62l-38.4 28.73-12.59 9.4c-.28.22-.61.39-.89.51-.05 0-.09.06-.14.06-.1.06-.19.07-.29.07-.58.14-1.16.19-1.76.14-.1 0-.2-.03-.3-.03-.1-.04-.2-.03-.3-.07-.1-.04-.15-.04-.25-.08-.2-.08-.41-.17-.61-.25l-12.72-6.72-.97-.51-42.42-22.43c-1.17-.73-2.01-1.98-2.13-3.37v-.05l-.41-5.18c-.09-1.17.32-2.24.99-3.08.05-.05.13-.16.23-.22.09-.1.18-.16.27-.27.09-.06.14-.11.23-.17.61-.44 1.32-.7 2.11-.76l107.15-8.42c.78-.06 1.53.13 2.2.42.1.04.15.09.25.13.11.09.21.13.31.22.1.04.16.13.26.18.8.72 1.36 1.71 1.46 2.88z" class="cls-4"/><path d="M159.71 56.61l.21 2.63c.11 1.42-.51 2.84-1.68 3.67l-38.4 28.73-12.59 9.39c-.28.22-.61.39-.89.51-.05 0-.09.05-.14.06-.1.06-.19.07-.29.07-.58.15-1.16.19-1.76.14-.1 0-.2-.03-.3-.03-.1-.04-.2-.03-.3-.07-.1-.04-.15-.04-.25-.08-.2-.08-.41-.17-.61-.25l-12.72-6.72-.97-.51L46.6 71.72c-1.19-.74-2.03-2-2.14-3.42l-.21-2.63v-.06c.12 1.39.96 2.64 2.13 3.37L88.8 91.41l.97.51 12.72 6.72c.2.08.41.17.61.25.1.04.15.04.25.08s.2.03.3.07c.1 0 .2.03.3.03.6.05 1.18 0 1.76-.14.1 0 .19-.02.29-.07.05 0 .09-.06.14-.06.28-.12.62-.29.89-.51l12.59-9.4 38.4-28.73c1.15-.82 1.78-2.22 1.68-3.62v.06z"/><path d="M140.82 104.52l27.09 58.05c.5 1.07.49 2.21.15 3.23-.02.07-.07.2-.14.28-.05.13-.12.22-.16.35-.07.09-.09.15-.16.24a4.03 4.03 0 01-1.71 1.44l-97.4 45.46c-.71.33-1.48.42-2.2.38-.11 0-.17-.03-.28-.03-.13-.05-.24-.05-.37-.1-.11 0-.2-.07-.3-.07-1-.4-1.88-1.13-2.37-2.19l-27.09-58.05c.6 1.29 1.83 2.18 3.22 2.39l47.82 6.51 8.49-13.21c.18-.3.43-.58.66-.79.04-.02.07-.09.11-.11.49-.45 1.16-.76 1.8-.89.09-.04.2-.04.29-.08.11 0 .2-.04.31-.04.11 0 .15-.02.26-.01.22 0 .44.01.66.02l14.27 1.83 1.09.14 3.05-4.83 22.7-35.96c.71-1.14.82-2.65.22-3.94z" class="cls-10"/><path d="M162.63 151.24l5.64 12.08-25.6-.38-26.73-7.43-.7-3.13c-.54-.34-1.1-.62-1.64-.97.85-1.42 1.7-2.85 2.55-4.27 6.72.6 13.43 1.2 20.19 1.77 8.73.85 17.52 1.61 26.29 2.33zM57.54 200.28l5.64 12.08 16.15-19.87 11.47-25.26-1.95-2.55c.08-.63.23-1.24.31-1.88-1.64-.26-3.27-.53-4.91-.79-3.85 5.53-7.71 11.06-11.61 16.61-5 7.25-10.02 14.46-15.1 21.65z"/><path d="M165.69 157.81l2.2 4.71c.5 1.07.49 2.21.15 3.23-.02.07-.07.2-.14.28-.05.13-.12.22-.16.35-.07.09-.09.15-.16.24a4.03 4.03 0 01-1.71 1.44l-97.4 45.46c-.71.33-1.48.42-2.2.38-.11 0-.17-.03-.28-.03-.13-.05-.24-.05-.37-.1-.11 0-.2-.07-.3-.07-1-.4-1.88-1.13-2.37-2.19l-2.2-4.71c-.6-1.29-.52-2.84.28-4.03l25.89-40.37 8.49-13.21c.18-.3.43-.58.66-.79.04-.02.07-.09.11-.11.07-.09.16-.13.25-.17.49-.34 1.02-.59 1.6-.75.09-.04.2-.04.29-.08.11 0 .2-.04.31-.04.11 0 .15-.02.26-.01.22 0 .44.01.66.02l14.27 1.83 1.09.14 47.59 6.13c1.37.28 2.6 1.17 3.2 2.45z" class="cls-10"/><path d="M141.27 105.48l2.2 4.71s.01.03.02.05c.58 1.28.49 2.81-.3 3.98l-25.89 40.37-8.49 13.21c-.18.3-.43.58-.66.79-.05.02-.07.09-.11.11-.07.09-.16.13-.24.17-.49.34-1.02.59-1.6.75-.09.04-.2.04-.29.08-.11 0-.2.04-.31.04-.11 0-.15.02-.26.01-.22 0-.44-.01-.66-.02l-14.27-1.83-1.09-.14-47.59-6.13c-1.36-.27-2.57-1.15-3.18-2.41 0-.01-.02-.03-.02-.04l-2.2-4.71c-.5-1.07-.49-2.21-.15-3.23.02-.07.07-.19.14-.28.05-.13.11-.21.16-.34.07-.09.09-.15.16-.24.41-.63.99-1.11 1.71-1.45l97.4-45.45c.71-.33 1.48-.42 2.21-.38.11 0 .17.03.28.03.13.05.24.05.37.1.11 0 .2.07.31.07 1 .4 1.88 1.12 2.37 2.19z" class="cls-10"/><path d="M143.52 110.29l1.12 2.39c.6 1.29.52 2.84-.29 4.03l-25.89 40.37-8.49 13.21c-.18.3-.43.58-.66.79-.05.02-.07.08-.11.1-.07.09-.16.13-.24.17-.49.34-1.02.59-1.6.75-.09.04-.2.04-.29.08-.11 0-.2.04-.31.04-.11 0-.15.02-.26.02-.22 0-.44-.01-.66-.02l-14.27-1.83-1.09-.14-47.59-6.13c-1.37-.28-2.6-1.17-3.2-2.45l-1.12-2.39s-.02-.04-.02-.06c.6 1.26 1.82 2.14 3.18 2.41l47.59 6.13 1.09.14 14.27 1.83c.22 0 .44.01.66.02.11 0 .15-.02.26-.01.11 0 .2-.04.31-.04.09-.04.2-.04.29-.08.58-.16 1.11-.41 1.6-.75.09-.04.18-.08.24-.17.05-.02.07-.09.11-.11.22-.21.47-.49.66-.79l8.49-13.21 25.89-40.37c.79-1.17.89-2.7.3-3.98l.03.06z"/><path d="M270.26 82.8l-25.56 58.18c-.47 1.07-1.33 1.81-2.31 2.23-.06.02-.19.07-.3.08-.13.05-.24.06-.36.11-.11 0-.17.03-.28.04-.74.1-1.48-.01-2.19-.33l-97.62-42.89c-.71-.31-1.28-.83-1.72-1.39-.07-.08-.09-.15-.16-.23-.05-.13-.12-.21-.17-.34-.07-.08-.07-.19-.14-.28-.35-1.01-.39-2.14.08-3.2l25.56-58.18c-.57 1.29-.43 2.79.33 3.97l26.43 39.92 15.41-2.31c.35-.06.72-.06 1.02-.03.04.02.11 0 .15.01.66.08 1.32.37 1.84.76.09.04.16.12.25.16.07.08.16.12.23.21.07.08.11.1.18.19.14.17.28.33.42.5l7.97 11.84.61.91 5.59-.89 41.67-6.6c1.32-.22 2.51-1.13 3.08-2.42z" class="cls-1"/><path d="M249.68 129.63l-5.32 12.11-16.46-19.34-11.94-24.79 1.87-2.58c-.1-.63-.26-1.23-.35-1.85 1.62-.3 3.24-.6 4.85-.89 3.95 5.4 7.9 10.8 11.89 16.22 5.08 7.06 10.26 14.12 15.46 21.13zM144.36 83.36l-5.32 12.11 25.38-.96 26.34-7.97.63-3.12c.53-.35 1.08-.64 1.61-.99-.87-1.39-1.75-2.79-2.62-4.18-6.65.74-13.29 1.49-19.98 2.21-8.68 1.02-17.34 1.99-26.02 2.9z"/><path d="M246.79 136.22l-2.07 4.72c-.47 1.07-1.33 1.81-2.31 2.23-.06.02-.19.07-.3.08-.13.05-.24.06-.36.11-.11 0-.17.03-.28.04-.74.1-1.48-.01-2.19-.33l-97.62-42.89c-.71-.31-1.28-.83-1.72-1.39-.07-.08-.09-.15-.16-.23-.05-.13-.12-.21-.17-.34-.07-.08-.07-.19-.14-.28-.35-1.01-.39-2.14.08-3.2l2.07-4.72c.57-1.29 1.78-2.24 3.19-2.42l47.04-7.11 15.41-2.31c.35-.06.72-.06 1.02-.03.04.02.11 0 .15.01.11 0 .2.03.29.07.57.15 1.11.38 1.6.7.09.04.16.12.25.16.07.08.16.12.23.21.07.08.11.1.18.19.14.17.28.33.42.5l7.97 11.84.61.91 26.56 39.5c.69 1.21.83 2.7.26 3.99z" class="cls-1"/><path d="M269.84 83.77l-2.07 4.72s-.01.03-.02.04c-.57 1.27-1.78 2.2-3.17 2.38l-47.04 7.11-15.41 2.31c-.34.06-.72.06-1.02.03-.05-.02-.11 0-.15-.01-.11 0-.2-.03-.29-.07-.57-.15-1.11-.38-1.6-.7-.09-.04-.16-.12-.25-.16-.07-.08-.16-.12-.23-.21-.07-.08-.11-.1-.18-.19-.14-.17-.28-.34-.42-.5l-7.97-11.84-.61-.9-26.57-39.5c-.68-1.19-.83-2.67-.28-3.95 0-.02.01-.03.02-.05l2.07-4.72c.47-1.07 1.33-1.81 2.31-2.23.07-.03.19-.07.3-.08.13-.05.23-.06.36-.1.11 0 .17-.03.28-.04.74-.1 1.48.01 2.2.33l97.62 42.89c.71.31 1.28.83 1.73 1.4.07.08.09.15.16.23.05.13.12.21.17.34.07.08.08.19.15.28.36 1.01.39 2.14-.08 3.2z" class="cls-1"/><path d="M267.72 88.59l-1.05 2.4c-.57 1.29-1.78 2.24-3.19 2.42l-47.04 7.11-15.41 2.31c-.34.06-.72.06-1.02.03-.05-.02-.11 0-.15-.02-.11 0-.2-.03-.29-.07-.58-.14-1.11-.38-1.6-.7-.09-.04-.16-.12-.25-.16-.07-.08-.16-.12-.23-.21-.07-.08-.11-.1-.18-.19-.14-.17-.28-.34-.42-.5l-7.97-11.84-.61-.91-26.57-39.5c-.69-1.21-.83-2.7-.26-3.99l1.05-2.4.03-.06c-.55 1.28-.4 2.76.28 3.95l26.57 39.5.61.9 7.97 11.84c.14.17.28.34.42.5.07.08.11.1.18.19.07.08.16.12.23.21.09.04.16.12.25.16.5.32 1.03.56 1.6.7.09.04.18.08.29.07.05.02.11 0 .15.01.31.03.68.03 1.02-.03L217.54 98l47.04-7.11c1.39-.18 2.6-1.11 3.17-2.38 0 .02-.01.04-.02.06z"/><g><path d="M289.55 120.79l10.31 62.71c.19 1.15-.12 2.24-.72 3.12-.04.06-.12.17-.21.23-.08.11-.17.18-.25.29-.09.06-.13.12-.22.18-.56.49-1.25.8-2.02.92l-105.21 17.3c-.77.13-1.53 0-2.21-.23-.1-.03-.16-.07-.26-.1-.11-.08-.22-.11-.33-.19-.1-.03-.17-.12-.27-.15-.85-.65-1.49-1.58-1.68-2.73l-10.31-62.71a4.24 4.24 0 002.44 3.15l43.93 19.04 11.65-10.34c.26-.24.57-.44.84-.58.05 0 .09-.06.14-.07.59-.29 1.31-.41 1.96-.37.1-.02.2.02.3 0 .1.03.2.02.3.05.1.03.15.02.26.06.21.06.42.13.62.19l13.14 5.58 1.01.43 4.2-3.8 31.32-28.26c.99-.9 1.49-2.31 1.26-3.71z" class="cls-9"/><path d="M297.85 171.26l2.15 13.05-24.35-7.23-23.53-14.26.17-3.18c-.42-.47-.89-.89-1.31-1.36 1.19-1.13 2.39-2.26 3.58-3.4 6.25 2.37 12.51 4.74 18.81 7.11 8.11 3.15 16.3 6.24 24.49 9.28zm-113.51 18.67l2.15 13.05 20.75-14.65 17.73-21.05-1.18-2.96c.25-.58.55-1.13.8-1.71-1.49-.69-2.99-1.38-4.48-2.07-5.16 4.25-10.33 8.5-15.54 12.76-6.72 5.59-13.44 11.13-20.23 16.63z"/><path d="M299.02 178.36l.84 5.09c.19 1.15-.12 2.24-.72 3.12-.04.06-.12.17-.21.23-.08.11-.17.18-.25.29-.09.06-.13.12-.22.18-.56.49-1.25.8-2.02.92l-105.21 17.3c-.77.13-1.53 0-2.21-.23-.1-.03-.16-.07-.26-.1-.11-.08-.22-.11-.33-.19-.1-.03-.17-.12-.27-.15-.85-.65-1.49-1.58-1.68-2.73l-.84-5.09c-.23-1.39.27-2.85 1.35-3.77l35.55-31.62 11.65-10.34c.26-.24.57-.44.84-.58.05 0 .09-.06.14-.07.09-.06.18-.08.28-.1a5.1 5.1 0 011.73-.28c.1-.02.2.02.3 0 .1.03.2.02.3.05.1.03.15.02.26.06.21.06.42.13.62.19l13.14 5.58 1.01.43 43.81 18.62c1.24.63 2.17 1.81 2.4 3.2z" class="cls-9"/><path d="M289.73 121.83l.84 5.09v.05c.21 1.38-.29 2.81-1.36 3.72l-35.55 31.62-11.65 10.34c-.26.24-.57.44-.84.58-.05 0-.09.06-.14.07-.09.06-.18.08-.28.1-.56.19-1.14.28-1.73.28-.09.02-.2-.02-.3 0-.11-.03-.2-.02-.31-.05-.1-.03-.15-.03-.25-.06-.21-.06-.42-.13-.62-.19l-13.14-5.58-1-.42-43.81-18.61c-1.22-.63-2.15-1.79-2.39-3.15 0-.02 0-.03-.01-.05l-.84-5.09c-.19-1.15.12-2.24.72-3.12.04-.06.12-.17.21-.23.08-.11.17-.17.25-.29.09-.06.13-.12.21-.18.56-.49 1.25-.8 2.02-.92l105.21-17.3c.77-.13 1.53 0 2.21.23.1.03.16.07.26.1.11.08.22.11.33.19.11.03.17.12.27.15.85.65 1.49 1.58 1.68 2.73z" class="cls-9"/><path d="M290.58 127.03l.42 2.58c.23 1.39-.27 2.85-1.35 3.77L254.1 165l-11.65 10.34c-.26.24-.57.44-.84.58-.05 0-.09.06-.14.07-.09.06-.18.08-.28.1a5.1 5.1 0 01-1.73.28c-.09.02-.2-.02-.3 0-.11-.03-.2-.01-.31-.05-.1-.03-.15-.03-.25-.06-.21-.07-.42-.13-.62-.19l-13.14-5.57-1.01-.43-43.81-18.61c-1.24-.63-2.17-1.81-2.4-3.2l-.42-2.58v-.06c.24 1.37 1.17 2.53 2.39 3.15l43.81 18.61 1 .42 13.14 5.58c.21.06.42.13.62.19.1.03.15.03.25.06.11.03.2.01.31.05.09-.02.2.02.3 0 .59 0 1.17-.09 1.73-.28.09-.02.19-.03.28-.1.05 0 .09-.06.14-.07.27-.14.58-.34.84-.58l11.65-10.34 35.55-31.62c1.07-.91 1.57-2.34 1.36-3.72 0 .02 0 .04.01.06z"/></g><g><path fill="#623689" d="M223.23 188.1c.05-.2.05-.46.05-.66v-5.42c0-1.47-.76-2.89-2.03-3.65l-55.44-35.17a4.318 4.318 0 00-4.66 0l-55.59 35.17c-1.27.81-2.03 2.18-2.03 3.65v5.37c0 .25 0 .46.05.66-.05.2-.05.46-.05.66v5.63c0 1.47.76 2.84 1.98 3.65l55.44 35.73c1.42.91 3.24.91 4.71 0l55.64-35.73c1.27-.81 1.98-2.18 1.98-3.65v-5.63c0-.15-.05-.41-.05-.61z"/><path d="M212.19 159.37v100.85a3.45 3.45 0 01-3.45 3.45h-90.71a3.45 3.45 0 01-3.45-3.45V159.37a3.45 3.45 0 013.45-3.45h90.76c1.88 0 3.4 1.52 3.4 3.45z" class="cls-3"/><path d="M156.95 225.5c-2.99 3.5-5.93 5.02-8.11 5.78-10.34 3.55-24.27-3.4-34.26-17.58v-14.85c14.14 8.87 28.28 17.79 42.37 26.66zm12.46.56c3.14 3.14 6.23 4.51 8.46 5.22 10.84 3.24 24.53-3.8 34.26-17.58v-15.15c-14.19 9.17-28.48 18.34-42.72 27.52z" class="cls-12"/><path d="M223.28 194.39v66.23c0 1.22-.51 2.28-1.27 3.09-.05.05-.15.15-.25.2-.1.1-.2.15-.3.25-.1.05-.15.1-.25.15-.66.41-1.42.61-2.23.61H107.85c-.81 0-1.57-.25-2.23-.61-.1-.05-.15-.1-.25-.15-.1-.1-.2-.15-.3-.25-.1-.05-.15-.15-.25-.2-.76-.81-1.27-1.88-1.27-3.09v-66.23c0 1.47.76 2.84 1.98 3.65l41.96 27.01 13.73-8.67c.3-.2.66-.35.96-.46.05 0 .1-.05.15-.05.66-.2 1.42-.2 2.08-.05.1 0 .2.05.3.05.1.05.2.05.3.1.1.05.15.05.25.1.2.1.41.2.61.3l12.57 7.96.96.61 4.97-3.19 36.99-23.77c1.17-.76 1.93-2.13 1.93-3.6z" class="cls-5"/><path d="M223.28 247.7v13.78l-23.82-11.55-21.79-18.65.71-3.24c-.35-.56-.76-1.06-1.11-1.62 1.42-.96 2.84-1.93 4.26-2.89 6.03 3.5 12.06 6.99 18.14 10.49 7.8 4.61 15.71 9.17 23.62 13.68zm-119.9 0v13.78l23.82-11.55 21.79-18.65-.71-3.24c.35-.56.76-1.06 1.11-1.62-1.42-.96-2.84-1.93-4.26-2.89-6.03 3.5-12.06 6.99-18.14 10.49-7.85 4.61-15.71 9.17-23.62 13.68z" class="cls-12"/><path d="M223.28 255.2v5.37c0 1.22-.51 2.28-1.27 3.09-.05.05-.15.15-.25.2-.1.1-.2.15-.3.25-.1.05-.15.1-.25.15-.66.41-1.42.61-2.23.61H107.85c-.81 0-1.57-.25-2.23-.61-.1-.05-.15-.1-.25-.15-.1-.1-.2-.15-.3-.25-.1-.05-.15-.15-.25-.2-.76-.81-1.27-1.88-1.27-3.09v-5.37c0-1.47.76-2.89 2.03-3.65l41.91-26.5 13.73-8.67c.3-.2.66-.35.96-.46.05 0 .1-.05.15-.05.1-.05.2-.05.3-.05.61-.1 1.22-.1 1.82 0 .1 0 .2.05.3.05.1.05.2.05.3.1.1.05.15.05.25.1.2.1.41.2.61.3l12.57 7.96.96.61 41.91 26.55c1.17.86 1.93 2.23 1.93 3.7z" class="cls-5"/><g id="Camada_6" data-name="Camada 6"><path fill="#d6d6d6" d="M96.51 67.23s-14.2-.69-14.2 27.44h39.84l24.26-3.17-22.4-16.2-17.16-8.07H96.51z"/><path d="M97.27 67.23h81.96c17.92 0 32.47 13.99 32.95 31.5V199.1h-97.47v-98.99s2.27-32.88-17.44-32.88z" class="cls-3"/><path fill="#1a00d6" d="M191.58 188.37c-1.66 1.91-3.42 3.78-5.34 5.44-.91.81-1.86 1.61-2.87 2.37-.91.7-1.86 1.56-2.92 2.06-.76.4-1.76.7-2.32-.15-.4-.6-.5-1.41-.5-2.16.3-.3.6-.6.91-.86 1.46-1.46 2.92-2.92 4.18-4.53 1.11-1.41 2.11-3.07 2.27-4.83.1-.91-.1-1.81-.5-2.62-.35-.76-1.16-.86-1.81-.45-4.28 2.57-7.15 7.4-7.35 12.33-1.36 1.21-2.72 2.37-4.18 3.42-1.06.76-6.64 5.44-7.55 2.77-.2-.5-.15-1.06 0-1.66 1.31-1.16 2.52-2.37 3.72-3.57 1.41-1.51 2.72-3.07 3.98-4.68.65-.86 1.26-1.66 1.81-2.57.5-.7.96-1.51 1.06-2.42.2-2.06-1.71-3.22-3.57-2.57-1.91.65-2.97 2.52-3.98 4.13a51.79 51.79 0 00-3.27 5.99c-.65 1.41-1.36 2.87-1.81 4.43-.91.81-1.81 1.56-2.77 2.27-2.16 1.66-5.39 4.53-8.41 3.32-1.61-.65-1.81-2.42-1.81-3.93 0-.2 0-.4.05-.6 3.57-3.02 6.34-6.9 7.85-11.33.3-.91-.6-1.91-1.56-1.46a14.837 14.837 0 00-7.3 7.35c-.65 1.36-1.06 2.87-1.21 4.33a23.379 23.379 0 01-4.43 2.72c-1.31.6-.45 2.67.91 2.06 1.21-.55 2.37-1.21 3.42-1.91.1 1.16.4 2.32 1.06 3.27 1.16 1.61 3.27 2.21 5.18 2.01 2.01-.2 3.78-1.26 5.39-2.37 1.16-.81 2.27-1.61 3.37-2.52.25 1.06.86 2.01 2.01 2.47 1.86.76 3.98-.15 5.54-1.11 2.37-1.46 4.63-3.17 6.8-4.98.4 1.66 1.41 3.12 3.37 3.17 1.41.05 2.72-.65 3.83-1.46 1.21-.86 2.42-1.76 3.52-2.72 2.57-2.16 4.98-4.58 7.15-7.15.91-1.11-.96-2.42-1.91-1.31zm-38.86 2.31c-.91 1.66-1.96 3.22-3.22 4.63.76-1.81 1.86-3.37 3.22-4.63zm14.04 1.51c.86-1.61 1.81-3.12 2.82-4.63.4-.55.81-1.11 1.41-1.51.2-.1.7-.45.86-.2.2.35-.45 1.21-.65 1.46-.5.76-1.01 1.46-1.56 2.16a52.084 52.084 0 01-3.37 4.08c-.15.2-.35.35-.55.55.4-.6.7-1.26 1.06-1.91zm12.48-2.71a13.24 13.24 0 013.42-4.03c-.1 2.21-2.37 4.48-3.72 5.94-.25.25-.5.55-.81.81.25-.91.65-1.81 1.11-2.72z"/><path fill="#282828" d="M150.56 95.14h-17.37c-.26 0-.48-.21-.48-.48s.21-.48.48-.48h17.37c.26 0 .48.21.48.48s-.21.48-.48.48zm40.95 17.65h-58.04c-.26 0-.48-.21-.48-.48s.21-.48.48-.48h58.04c.26 0 .48.21.48.48s-.21.48-.48.48zm7.44 10.2h-65.49c-.26 0-.48-.21-.48-.48s.21-.48.48-.48h65.49c.26 0 .48.21.48.48s-.21.48-.48.48zm0 10.48h-65.49c-.26 0-.48-.21-.48-.48s.21-.48.48-.48h65.49c.26 0 .48.21.48.48s-.21.48-.48.48zm0 9.93h-65.49c-.26 0-.48-.21-.48-.48s.21-.48.48-.48h65.49c.26 0 .48.21.48.48s-.21.48-.48.48zm0 10.15h-65.49c-.26 0-.48-.21-.48-.48s.21-.48.48-.48h65.49c.26 0 .48.21.48.48s-.21.48-.48.48zm0 10.48h-65.49c-.26 0-.48-.21-.48-.48s.21-.48.48-.48h65.49c.26 0 .48.21.48.48s-.21.48-.48.48zm0 9.93h-65.49c-.26 0-.48-.21-.48-.48s.21-.48.48-.48h65.49c.26 0 .48.21.48.48s-.21.48-.48.48z"/></g></g></svg>