<?xml version="1.0" encoding="utf-8"?>
<!-- Generator: Adobe Illustrator 26.0.3, SVG Export Plug-In . SVG Version: 6.00 Build 0)  -->
<svg version="1.1" id="Camada_1" xmlns="http://www.w3.org/2000/svg" xmlns:xlink="http://www.w3.org/1999/xlink" x="0px" y="0px"
	 viewBox="0 0 50 50" style="enable-background:new 0 0 50 50;" xml:space="preserve">
<style type="text/css">
	.st0{fill:#E589EF;}
	.st1{fill:#F799FF;}
	.st2{fill:#444444;}
	.st3{fill:none;stroke:#494949;stroke-linecap:round;stroke-linejoin:round;}
</style>
<g id="Layer_1">
	<polygon class="st0" points="48.3,26 48.8,30.3 1.8,47.5 1.9,38.4 2.2,33 49,15.9 48.3,19.7 	"/>
	<polygon class="st1" points="48.3,9.1 47.8,16.9 1.9,33.7 1.9,23.7 2.2,19.2 48.5,2.4 	"/>
	<path class="st2" d="M36.8,49.4H1.8c-0.7,0-1.2-0.5-1.2-1.2V1.8c0-0.7,0.5-1.2,1.2-1.2h46.5c0.7,0,1.2,0.5,1.2,1.2V37
		c0,0.7-0.5,1.2-1.2,1.2c-0.7,0-1.2-0.5-1.2-1.2V3.1H3v43.7h33.9c0.7,0,1.2,0.5,1.2,1.2C38,48.6,37.5,49.4,36.8,49.4z"/>
	<line class="st3" x1="25" y1="30.6" x2="25" y2="26.5"/>
	<line class="st3" x1="9.6" y1="24.7" x2="13.8" y2="24.7"/>
	<line class="st3" x1="17" y1="24.8" x2="23.2" y2="24.8"/>
	<line class="st3" x1="26.6" y1="24.8" x2="33" y2="24.8"/>
	<line class="st3" x1="36.5" y1="24.7" x2="39.8" y2="24.7"/>
	<path class="st3" d="M26.6,24.8c0-0.9-0.8-1.7-1.7-1.7c-0.9,0-1.7,0.8-1.7,1.7s0.8,1.7,1.7,1.7c0,0,0,0,0,0
		C25.9,26.5,26.7,25.7,26.6,24.8z"/>
	<path class="st3" d="M30,38.7H20c-0.2,0-0.4-0.2-0.4-0.4V31c0-0.2,0.2-0.4,0.4-0.4h10.1c0.2,0,0.4,0.2,0.4,0.4v7.3
		C30.5,38.5,30.3,38.7,30,38.7z"/>
	<line class="st3" x1="21.9" y1="40.3" x2="28" y2="40.3"/>
	<line class="st3" x1="15.2" y1="23" x2="15.2" y2="19.4"/>
	<line class="st3" x1="34.8" y1="23.1" x2="34.8" y2="19.4"/>
	<path class="st3" d="M17,24.7c0-0.9-0.8-1.7-1.7-1.7c-0.9,0-1.7,0.8-1.7,1.7c0,0.9,0.8,1.7,1.7,1.7C16.2,26.4,17,25.7,17,24.7
		C17,24.7,17,24.7,17,24.7z"/>
	<path class="st3" d="M20.4,17.9H10.2c-0.2,0-0.4-0.2-0.4-0.4v-7.3c0-0.2,0.2-0.4,0.4-0.4h10.1c0.2,0,0.4,0.2,0.4,0.4v7.3
		C20.7,17.7,20.6,17.9,20.4,17.9z"/>
	<line class="st3" x1="12.1" y1="19.4" x2="18.4" y2="19.4"/>
	<path class="st3" d="M36.5,24.7c0-0.9-0.8-1.7-1.7-1.7S33,23.8,33,24.7c0,0.9,0.8,1.7,1.7,1.7C35.7,26.4,36.4,25.7,36.5,24.7
		C36.5,24.7,36.5,24.7,36.5,24.7z"/>
	<path class="st3" d="M39.8,17.9H29.6c-0.2,0-0.4-0.2-0.4-0.4v-7.3c0-0.2,0.2-0.4,0.4-0.4h10.1c0.2,0,0.4,0.2,0.4,0.4v7.3
		C40.2,17.7,40,17.9,39.8,17.9z"/>
	<line class="st3" x1="31.6" y1="19.4" x2="37.8" y2="19.4"/>
</g>
</svg>
