<?xml version="1.0" encoding="utf-8"?>
<!-- Generator: Adobe Illustrator 26.0.1, SVG Export Plug-In . SVG Version: 6.00 Build 0)  -->
<svg version="1.1" id="Layer_1" xmlns="http://www.w3.org/2000/svg" xmlns:xlink="http://www.w3.org/1999/xlink" x="0px" y="0px"
	 viewBox="0 0 50 50" style="enable-background:new 0 0 50 50;" xml:space="preserve">
<style type="text/css">
	.st0{fill:#FCC34F;}
	.st1{fill:#FDCF72;}
	.st2{fill:#444444;}
	.st3{fill:none;stroke:#494949;stroke-linecap:round;stroke-linejoin:round;stroke-miterlimit:10;}
</style>
<g>
	<g>
		<g>
			<polygon class="st0" points="48.4,26.5 48.8,30.8 1.8,48 1.9,38.9 2.2,33.5 49,16.4 48.4,20.2 			"/>
		</g>
		<g>
			<polygon class="st1" points="48.4,9.6 47.8,17.4 1.9,34.2 1.9,24.2 2.2,19.7 48.5,2.9 			"/>
		</g>
		<g>
			<path class="st2" d="M36.9,49.9H1.8c-0.7,0-1.2-0.6-1.2-1.2V2.3c0-0.7,0.6-1.2,1.2-1.2h46.5c0.7,0,1.2,0.6,1.2,1.2v35.2
				c0,0.7-0.6,1.2-1.2,1.2S47,38.2,47,37.5V3.6H3v43.7h33.9c0.7,0,1.2,0.6,1.2,1.2S37.5,49.9,36.9,49.9z"/>
		</g>
	</g>
</g>
<g>
	<line class="st3" x1="25" y1="31.1" x2="25" y2="27"/>
	<line class="st3" x1="9.7" y1="25.2" x2="13.8" y2="25.2"/>
	<line class="st3" x1="17" y1="25.3" x2="23.3" y2="25.3"/>
	<line class="st3" x1="26.7" y1="25.3" x2="33.1" y2="25.3"/>
	<line class="st3" x1="36.5" y1="25.2" x2="39.8" y2="25.2"/>
	<path class="st3" d="M26.7,25.3c0-0.9-0.8-1.7-1.7-1.7c-0.9,0-1.7,0.8-1.7,1.7c0,0.9,0.8,1.7,1.7,1.7C26,27,26.7,26.2,26.7,25.3z"
		/>
	<path class="st3" d="M30.1,39.2H20c-0.2,0-0.4-0.2-0.4-0.4v-7.3c0-0.2,0.2-0.4,0.4-0.4h10.1c0.2,0,0.4,0.2,0.4,0.4v7.3
		C30.5,39,30.3,39.2,30.1,39.2z"/>
	<line class="st3" x1="21.9" y1="40.8" x2="28.1" y2="40.8"/>
	<line class="st3" x1="15.3" y1="23.5" x2="15.3" y2="19.9"/>
	<line class="st3" x1="34.8" y1="23.6" x2="34.8" y2="19.9"/>
	<path class="st3" d="M17,25.2c0-0.9-0.8-1.7-1.7-1.7c-0.9,0-1.7,0.8-1.7,1.7s0.8,1.7,1.7,1.7C16.2,26.9,17,26.2,17,25.2z"/>
	<g>
		<path class="st3" d="M20.4,18.4H10.3c-0.2,0-0.4-0.2-0.4-0.4v-7.3c0-0.2,0.2-0.4,0.4-0.4h10.1c0.2,0,0.4,0.2,0.4,0.4V18
			C20.8,18.2,20.6,18.4,20.4,18.4z"/>
		<line class="st3" x1="12.2" y1="19.9" x2="18.4" y2="19.9"/>
	</g>
	<path class="st3" d="M36.5,25.2c0-0.9-0.8-1.7-1.7-1.7s-1.7,0.8-1.7,1.7s0.8,1.7,1.7,1.7C35.7,26.9,36.5,26.2,36.5,25.2z"/>
	<path class="st3" d="M39.9,18.4H29.7c-0.2,0-0.4-0.2-0.4-0.4v-7.3c0-0.2,0.2-0.4,0.4-0.4h10.1c0.2,0,0.4,0.2,0.4,0.4V18
		C40.3,18.2,40.1,18.4,39.9,18.4z"/>
	<line class="st3" x1="31.7" y1="19.9" x2="37.9" y2="19.9"/>
</g>
</svg>
