<svg xmlns="http://www.w3.org/2000/svg" version="1" viewBox="0 0 50 50"><path fill="#A6C1C2" d="M16.703 22.792v10.687l16.599-6.041v-4.651a11.468 11.468 0 0 0 3.237-8.005c0-6.373-5.166-11.539-11.539-11.539S13.461 8.409 13.461 14.781c0 3.115 1.194 5.888 3.2 7.964l.042.047z"/><path fill="#B9D7D9" d="M33.275 6.792a11.5 11.5 0 0 0-8.314-3.55c-6.11 0-11.098 4.753-11.5 10.761l19.814-7.211z"/><path fill="#444" d="M25 2.221c-6.926 0-12.561 5.635-12.561 12.561a12.42 12.42 0 0 0 3.242 8.414v10.955a3.498 3.498 0 0 0 3.494 3.494h.989v5.297c0 2.668 2.17 4.838 4.838 4.838s4.838-2.17 4.838-4.838v-5.297h.989a1.022 1.022 0 1 0 0-2.044h-3.033v.022h-5.589v-.022h-3.033c-.8 0-1.451-.651-1.451-1.45V30.24c.435.234.924.379 1.451.379H30.82c2.887 0 3.503-.66 3.503-3.182v-4.248a12.471 12.471 0 0 0 3.237-8.407C37.561 7.855 31.926 2.221 25 2.221zm2.797 34.628v6.092a2.798 2.798 0 0 1-2.794 2.795 2.798 2.798 0 0 1-2.795-2.795v-6.092h5.589zm3.024-7.457H19.175c-.59 0-1.11-.281-1.451-.711v-4.715A12.017 12.017 0 0 0 25 26.398c2.671 0 5.191-.863 7.28-2.436v3.475c0 1.48-.072 1.955-1.459 1.955zm1.746-7.317l-.287.298v.007A10.816 10.816 0 0 1 25 25.172a10.806 10.806 0 0 1-7.406-2.91l-.198-.228c-1.879-1.943-2.913-4.519-2.913-7.253 0-5.799 4.718-10.517 10.517-10.517s10.517 4.718 10.517 10.517c0 2.736-1.047 5.327-2.95 7.294z"/></svg>