<?xml version="1.0" encoding="utf-8"?>
<!-- Generator: Adobe Illustrator 24.1.2, SVG Export Plug-In . SVG Version: 6.00 Build 0)  -->
<svg version="1.1" id="Layer_1" xmlns="http://www.w3.org/2000/svg" xmlns:xlink="http://www.w3.org/1999/xlink" x="0px" y="0px"
	 viewBox="0 0 50 50" style="enable-background:new 0 0 50 50;" xml:space="preserve">
<style type="text/css">
	.st0{fill:#DC5E82;}
	.st1{fill:#F56991;}
	.st2{fill:none;stroke:#444444;stroke-linecap:round;stroke-linejoin:round;}
	.st3{fill:none;stroke:#444444;stroke-width:2.5;stroke-linecap:round;stroke-linejoin:round;}
</style>
<g>
	<path class="st0" d="M46.8,23.4l-0.8,0.3l-25.2,9.2c0,0,0,0,0,0L7.3,37.8c-2.4-3.3-3.9-7.3-4.1-11.7c0,0,0,0,0,0c0-0.1,0-0.3,0-0.4
		c0,0,0-0.1,0-0.2v0c0-0.2,0-0.4,0-0.5c0-1.1,0.1-2.2,0.3-3.3C4.9,11.2,14,3.1,25,3.1c5.5,0,10.6,2.1,14.5,5.5
		C43.7,12.2,46.4,17.5,46.8,23.4z"/>
	<path class="st1" d="M25,3.1c5.5,0,10.6,2.1,14.5,5.5L3.3,21.7C4.9,11.2,14,3.1,25,3.1z"/>
	<path class="st2" d="M36.7,19.6c-0.9-0.2-1.9-0.4-2.9-0.5"/>
	<path class="st2" d="M26.5,18.4c-0.5,0-1,0-1.5,0c-0.5,0-1,0-1.5,0"/>
	<path class="st2" d="M16.2,19c-1,0.1-2,0.3-2.9,0.5"/>
	<path class="st2" d="M6.8,21.7c-0.6,0.3-1.3,0.7-1.8,1.1c-1.1,0.9-1.8,1.8-1.8,2.7c0,0,0,0,0,0c0,0,0,0.1,0,0.1c0,0.1,0,0.3,0,0.4
		c0,0,0,0,0,0c0.5,3.4,8,6.2,17.7,6.8c0,0,0,0,0,0C22.2,33,23.6,33,25,33c11.7,0,21.3-3.1,21.9-6.9c0,0,0,0,0,0c0-0.1,0-0.3,0-0.4
		c0-0.1,0-0.1,0-0.1c0,0,0,0,0,0c0-0.6-0.3-1.2-0.8-1.8c-0.3-0.3-0.6-0.6-1-0.9c-0.6-0.4-1.2-0.8-1.8-1.1"/>
	<path class="st2" d="M18.8,13.3c-0.2,0.9-0.4,1.9-0.5,2.9"/>
	<path class="st2" d="M17.7,23.5c0,0.5,0,1,0,1.5c0,0.5,0,1,0,1.5"/>
	<path class="st2" d="M18.3,33.8c0.1,1,0.3,2,0.5,2.9"/>
	<path class="st2" d="M21,6.7c0.3-0.6,0.7-1.3,1.1-1.8C23,3.8,24,3.1,25,3.1c4,0,7.3,9.8,7.3,21.9S29,46.9,25,46.9
		c-1,0-2-0.7-2.9-1.8c-0.4-0.6-0.8-1.2-1.1-1.8"/>
	<path class="st3" d="M46.9,25c0,0.2,0,0.4,0,0.5v0c0,0.2,0,0.3,0,0.5c0,0,0,0,0,0C46.3,37.7,36.7,46.9,25,46.9
		c-7.3,0-13.8-3.6-17.7-9.1c-2.4-3.3-3.9-7.3-4.1-11.7c0,0,0,0,0,0c0-0.2,0-0.3,0-0.5v0c0-0.2,0-0.4,0-0.5c0-1.1,0.1-2.2,0.3-3.3
		C4.9,11.2,14,3.1,25,3.1c5.5,0,10.6,2.1,14.5,5.5c4.2,3.7,7,9,7.4,14.9C46.9,24,46.9,24.5,46.9,25z"/>
</g>
</svg>
