<?xml version="1.0" encoding="utf-8"?>
<!-- Generator: Adobe Illustrator 24.3.0, SVG Export Plug-In . SVG Version: 6.00 Build 0)  -->
<svg version="1.1" id="Camada_1" xmlns="http://www.w3.org/2000/svg" xmlns:xlink="http://www.w3.org/1999/xlink" x="0px" y="0px"
	 viewBox="0 0 50 50" style="enable-background:new 0 0 50 50;" xml:space="preserve">
<style type="text/css">
	.st0{fill:#FDCF72;}
	.st1{fill:#FCC34F;}
	.st2{fill:#464646;}
</style>
<path class="st0" d="M28.6,4.6c-1.1-1-2.4-1.5-3.8-1.5s-2.7,0.5-3.7,1.5L4.7,21.4c-2.2,2.2-2.3,3.5-1.5,4.4l33.9-12.3
	C37.1,13.5,28.6,4.6,28.6,4.6z"/>
<path class="st1" d="M45.8,21.5L37.4,13L3.2,25.4c1.6,1.8,6.8,2.1,9.2,3.6c1.7,1.1-5.5,2.6-4,4c1.3,1.3,7.3,2.6,9.5,3.9l29-10.5
	C47.9,25.1,47.9,23.6,45.8,21.5z"/>
<path class="st2" d="M24.7,5.2c1,0,1.9,0.3,2.6,1l5.9,6c0.5,0.5,0.5,1.7,0.2,2l-2.9-2.4l-0.6,3.5L27.5,14l-4,2.5l-1.3-5.3l-2.1,4.6
	h-5.3c-1,0-0.9-1.1,0.2-2.1c2.1-2.3,6.1-6.2,7.4-7.5C23,5.6,23.8,5.3,24.7,5.2z M17.1,30.3c0.4,0,12.2,1.6,7.7,2.8
	C23.1,33.6,15,30.3,17.1,30.3z"/>
<path class="st2" d="M24.7,48.1c-0.7,0-1.3-0.1-1.8-0.3c-1-0.4-1.7-1.1-1.9-2.1c-0.2-1.1-0.7-1.3-2.1-1.5c-1-0.2-2-0.4-2.9-1.2
	c-1.5-1.6,0.1-3.3,0.7-4l0.6-0.6c-0.7-0.5-2.8-1.1-4.3-1.6c-2.9-0.9-4.7-1.6-5.6-2.5c-0.4-0.4-0.6-1-0.5-1.6
	c0.2-1.2,1.5-1.9,3.1-2.6c0.1-0.1,0.3-0.1,0.4-0.2c-0.8-0.3-1.8-0.6-2.8-0.8c-2.9-0.8-5.6-1.5-6.1-3.7c-0.5-1.9,1-3.7,2.2-4.9
	L20.2,3.7c1.2-1.2,2.8-1.9,4.6-1.9c1.8,0,3.4,0.6,4.7,1.8l17,17.4c1.7,1.7,2.3,3.3,2,4.8c-0.7,3-4.9,4.4-8.9,5.8
	c-1.5,0.5-2.9,1-3.9,1.5c0.2,0.1,0.3,0.2,0.4,0.2c1.4,0.8,3.6,2,2.8,3.9c-0.9,2.3-2.6,2.8-4.1,3.2c-1.2,0.3-2.4,0.6-3.7,1.7
	c0.6,0.3,1.4,0.8,1.5,1.7c0.1,0.4,0,1.1-0.8,1.7C30.1,47,27.1,48.1,24.7,48.1z M18.1,41.4c0.3,0.2,0.8,0.3,1.3,0.4
	c1.4,0.2,3.6,0.6,4.2,3.6c0,0,0,0.1,0.3,0.2c1.1,0.4,3.8-0.2,5.6-1.3c-0.6-0.3-1.2-0.7-1.3-1.5c-0.1-0.4,0-1,0.6-1.7
	c2-2,3.9-2.5,5.3-2.9c1.4-0.4,2-0.6,2.4-1.4c-0.3-0.3-1.2-0.8-1.6-1c-1.3-0.7-2.3-1.3-2.4-2.4c0-0.3,0.1-1,0.8-1.5
	c1.3-0.9,3.3-1.6,5.4-2.3c2.9-1,6.9-2.4,7.3-4c0.2-0.8-0.6-1.8-1.3-2.5l-17-17.3c-0.7-0.7-1.8-1.1-2.9-1.1S22.7,5.1,22,5.8L5.6,22.2
	C3.9,23.9,4,24.6,4,24.7c0.2,0.8,2.7,1.4,4.4,1.9s3.4,0.9,4.7,1.7c0.8,0.5,0.9,1.2,0.8,1.5c-0.1,1.2-1.3,1.7-2.8,2.5
	c-0.3,0.2-0.8,0.4-1.2,0.6c1,0.5,2.7,1,3.9,1.4c2.8,0.9,4.6,1.5,5.5,2.4c1.6,1.6,0,3.3-0.7,4C18.5,40.9,18.2,41.2,18.1,41.4z"/>
</svg>
