<?xml version="1.0" encoding="utf-8"?>
<!-- Generator: Adobe Illustrator 26.5.0, SVG Export Plug-In . SVG Version: 6.00 Build 0)  -->
<svg version="1.1" id="Layer_1" xmlns="http://www.w3.org/2000/svg" xmlns:xlink="http://www.w3.org/1999/xlink" x="0px" y="0px"
	 viewBox="0 0 50 50" style="enable-background:new 0 0 50 50;" xml:space="preserve">
<style type="text/css">
	.st0{fill:#DC5E82;}
	.st1{fill:#F56991;}
	.st2{fill:none;stroke:#494949;stroke-linecap:round;stroke-linejoin:round;stroke-miterlimit:10;}
	.st3{fill:#494949;}
</style>
<g>
	<g>
		<path class="st0" d="M11,18.4c0,0.1,0,0.2,0,0.3c0,4,1.7,7.5,4.3,10.1c0.5,0.4,0.9,0.9,1.3,1.4l9.8-3.6l7.5-2.7l4.6-1.7
			c0.3-1.1,0.4-2.2,0.4-3.4c0-3.5-1.3-6.8-3.5-9.2L35.1,9l-1.5,0.6l-9.6,3.5l-5.6,2.1L16,16l-4.9,1.8L11,18.4z"/>
	</g>
	<g>
		<path class="st1" d="M11,18.4l5.4-2l1-0.4l5.6-2.1l12-4.4l0.4-0.2L35.1,9C32.6,6.4,29,4.7,25,4.7c-7.4,0-13.5,5.8-13.9,13.1
			L11,18.4z"/>
	</g>
	<g id="bulb">
		<g>
			<path class="st2" d="M39,18.7c0,1.2-0.1,2.3-0.4,3.4c-0.7,2.6-2,4.9-3.9,6.7c-1.7,1.6-3.1,3.6-4,5.8c-0.1,0.3-0.2,0.5-0.3,0.8
				c-0.2,0.7-0.4,1.4-0.5,2.1c0,0.1,0,0.2,0,0.3v0c-0.2,0.9-0.2,1.8-0.3,2.7c0,0.5-0.3,1-1,1.5c-0.1,0.1-0.2,0.1-0.3,0.2
				c-0.4,0.2-0.9,0.4-1.5,0.5c-0.5,0.1-1.1,0.2-1.7,0.2c-1.2,0-2.3-0.2-3.2-0.7c-0.2-0.1-0.3-0.2-0.4-0.3c-0.6-0.4-0.9-0.9-0.9-1.4
				c0-0.9-0.1-1.8-0.3-2.7c0-0.1,0-0.2,0-0.3c-0.1-0.7-0.3-1.4-0.5-2.1c-0.1-0.3-0.2-0.6-0.3-0.9c-0.6-1.6-1.6-3.1-2.7-4.4
				c-0.4-0.5-0.8-0.9-1.3-1.4c-2.6-2.5-4.3-6.1-4.3-10.1c0-0.1,0-0.2,0-0.3c0-0.2,0-0.4,0-0.6C11.5,10.5,17.6,4.7,25,4.7
				c4,0,7.6,1.7,10.1,4.3l0.4,0.4C37.7,11.9,39,15.1,39,18.7z"/>
			<path class="st2" d="M29.8,37.8C29.8,37.8,29.8,37.8,29.8,37.8c-0.2,0.4-0.6,0.8-1.2,1.1c-2,1.1-5.2,1.1-7.1,0
				c-0.6-0.3-1-0.7-1.2-1.1"/>
			<path class="st2" d="M30.6,34.5c-0.3,0.5-0.8,0.9-1.4,1.3c-2.3,1.3-6.1,1.3-8.4,0c-0.7-0.4-1.1-0.8-1.4-1.3"/>
			<path class="st2" d="M28.5,41.9c-0.1,1.9-1.6,3.4-3.6,3.4c-1.9,0-3.5-1.5-3.6-3.5"/>
		</g>
	</g>
	<g>
		<path class="st3" d="M25,2.7c8.8,0,16,7.2,16,16c0,4.4-1.7,8.5-4.9,11.5c-1.6,1.5-2.8,3.3-3.5,5.1c-0.1,0.2-0.2,0.5-0.3,0.7
			c-0.2,0.6-0.4,1.3-0.5,1.9c0,0,0,0.1,0,0.1l0,0c0,0,0,0.1,0,0.1c-0.1,0.9-0.2,1.6-0.2,2.4c0,0.6-0.2,1.6-1.1,2.5
			c-0.6,2.5-2.8,4.3-5.4,4.3c-2.7,0-4.9-1.9-5.4-4.5c-0.6-0.7-1-1.5-1-2.3c0-0.7-0.1-1.5-0.2-2.4l0-0.1c0,0,0,0,0-0.1
			c-0.1-0.6-0.3-1.3-0.5-1.9c-0.1-0.2-0.2-0.5-0.3-0.7c-0.8-1.9-1.9-3.6-3.5-5.1C10.8,27.1,9,23,9,18.7C9,9.8,16.2,2.7,25,2.7
			 M25,0.2C14.8,0.2,6.5,8.5,6.5,18.7c0,5.1,2,9.8,5.7,13.3c1.3,1.3,2.3,2.7,2.9,4.2c0.1,0.2,0.1,0.3,0.2,0.5
			c0.2,0.5,0.3,1.1,0.4,1.6c0,0,0,0.1,0,0.1l0,0.1c0.1,0.8,0.2,1.4,0.2,2c0,1.2,0.4,2.4,1.2,3.4c1,3.4,4.1,5.8,7.7,5.8
			c3.6,0,6.6-2.3,7.7-5.6c0.9-1.1,1.4-2.4,1.4-3.7c0-0.6,0.1-1.2,0.2-1.9c0,0,0-0.1,0-0.1c0,0,0-0.1,0-0.1c0.1-0.5,0.2-1,0.4-1.6
			c0.1-0.2,0.1-0.4,0.2-0.6c0.6-1.5,1.6-2.9,2.9-4.2c3.7-3.5,5.7-8.2,5.7-13.3C43.5,8.5,35.2,0.2,25,0.2L25,0.2z"/>
	</g>
</g>
</svg>
