<svg xmlns="http://www.w3.org/2000/svg" id="Layer_1" x="0" y="0" version="1.1" viewBox="0 0 50 50" xml:space="preserve"><style>.st3{fill:#444}</style><path fill="#ff6b6b" d="M34.2 1.3H15.5C9 1.3 3.8 6.6 3.8 13.1v3.2L40.2 3c-1.8-1.1-3.8-1.7-6-1.7z"/><path fill="#e56060" d="M46 31.8V13.1c0-4.3-2.3-8-5.8-10.1L3.8 16.2v15.5c0 6.5 5.3 11.8 11.8 11.8h6l24-8.7c.2-1 .4-2 .4-3z"/><circle cx="24.9" cy="22.4" r="12" fill="none" stroke="#444" stroke-miterlimit="10" stroke-width="2.5"/><circle cx="24.9" cy="22.4" r="8.5" class="st3"/><circle cx="36.9" cy="8.2" r="2.3" class="st3"/><path d="M45.3 42.4V42c0-.3 0-.6-.1-.9l.9-.6v-.1c-.1-.7-.4-1.3-.7-1.9v-.1l-1 .2c-.3-.4-.5-.8-.9-1.1l.4-1-.1-.1c-.5-.4-1-.8-1.6-1.1h-.1l-.7.8c-.4 0-.9-.1-1.4-.2l-.2-1h-.6c-.5 0-1 .1-1.5.1h-.1l-.1 1.1c-.5.1-.9.3-1.4.6l-.8-.7c-.5.4-1 .8-1.5 1.3l-.1.1.6.9c-.3.4-.5.8-.7 1.2l-1.1-.1v.1c-.2.6-.4 1.3-.4 1.9v.1l1 .4c0 .4 0 .8.1 1.2l-.9.5v.1c.2.7.5 1.3.8 1.9v.1l1.1-.2c.2.3.5.6.8.9l-.4 1 .1.1c.5.4 1.1.8 1.8 1.1h.1l.7-.8c.3.1.7.2 1.1.3l.2 1h.7c.5 0 1-.1 1.5-.2h.1l.1-1.1c.4-.1.7-.2 1.1-.4l.8.7h.1c.6-.4 1.1-.8 1.6-1.3l.1-.1-.5-.9c.3-.3.5-.6.7-1l1.1.1v-.1c.3-.6.5-1.3.5-1.9v-.1l-1.2-.4zm-6.1 3c-1.9 0-3.5-1.6-3.5-3.5s1.6-3.5 3.5-3.5 3.5 1.6 3.5 3.5c-.1 2-1.6 3.5-3.5 3.5z" class="st3"/><path d="M41.6 42.1v-.6l.4-.2c-.1-.3-.2-.5-.3-.8l-.4.1c-.1-.2-.2-.3-.4-.5l.2-.4c-.2-.2-.4-.3-.7-.4l-.3.3c-.2-.1-.4-.1-.6-.2l-.1-.4h-.2c-.2 0-.4 0-.6.1v.4c-.2.1-.4.1-.6.2l-.3-.3c-.2.1-.4.3-.6.5l.2.4c-.1.2-.2.3-.3.5h-.4c-.1.2-.2.5-.2.8l.4.2c0 .2 0 .3.1.5l-.4.2c.1.3.2.5.3.8l.4-.1c.1.1.2.3.3.4l-.2.4c.2.2.5.3.7.4l.3-.3c.1 0 .3.1.4.1l.1.4h.2c.2 0 .4 0 .6-.1v-.4c.1 0 .3-.1.4-.2l.3.3c.2-.1.5-.3.7-.5l-.2-.4c.1-.1.2-.3.3-.4h.4c.1-.2.2-.5.2-.8h-.1zm-2.5 1.3c-.8 0-1.4-.6-1.4-1.4 0-.8.6-1.4 1.4-1.4.8 0 1.4.6 1.4 1.4.1.7-.6 1.4-1.4 1.4z" class="st3"/><path fill="none" stroke="#444" stroke-linecap="round" stroke-miterlimit="10" stroke-width="2.5" d="M28.8 43.7H14.4C8.5 43.7 3.7 38.9 3.7 33V12.2c0-5.9 4.8-10.7 10.7-10.7h20.8c6 0 10.8 4.8 10.8 10.7v22.7"/></svg>