<svg xmlns="http://www.w3.org/2000/svg" viewBox="0 0 50 50"><defs><style>.cls-1,.cls-4,.cls-6{fill:none;stroke-miterlimit:10;}.cls-1{stroke:#494949;stroke-width:3.11px;}.cls-2{fill:#bf94f7;}.cls-3{fill:#a475ef;}.cls-4,.cls-6{stroke:#444;stroke-width:2.5px;}.cls-5{fill:#444;}.cls-6{stroke-linecap:round;}</style></defs><g id="Layer_1" data-name="Layer 1"><rect class="cls-1" x="-50.54" y="-96.7" width="425.11" height="443.81"/><path class="cls-2" d="M34.1,1.86H15.4A11.74,11.74,0,0,0,3.7,13.66v3.2L40.1,3.56A11.32,11.32,0,0,0,34.1,1.86Z"/><path class="cls-3" d="M45.9,32.36V13.66a11.72,11.72,0,0,0-5.8-10.1L3.7,16.76v15.5a11.82,11.82,0,0,0,11.8,11.8h6l24-8.7A15.44,15.44,0,0,0,45.9,32.36Z"/><circle class="cls-4" cx="24.8" cy="22.96" r="12"/><circle class="cls-5" cx="24.8" cy="22.96" r="8.5"/><circle class="cls-5" cx="36.8" cy="8.76" r="2.3"/><path class="cls-5" d="M45.2,43v-.4a2.77,2.77,0,0,0-.1-.9l.9-.6V41a6.19,6.19,0,0,0-.7-1.9V39l-1,.2a4.81,4.81,0,0,0-.9-1.1l.4-1-.1-.1a9.06,9.06,0,0,0-1.6-1.1H42l-.7.8a7.84,7.84,0,0,1-1.4-.2l-.2-1h-.6c-.5,0-1,.1-1.5.1h-.1l-.1,1.1a4.24,4.24,0,0,0-1.4.6l-.8-.7h0a17.38,17.38,0,0,0-1.5,1.3l-.1.1.6.9a7.46,7.46,0,0,0-.7,1.2L32.4,40v.1A6.46,6.46,0,0,0,32,42v.1l1,.4h0a4.87,4.87,0,0,0,.1,1.2l-.9.5v.1a10.84,10.84,0,0,0,.8,1.9v.1l1.1-.2a6.47,6.47,0,0,0,.8.9l-.4,1,.1.1a7.84,7.84,0,0,0,1.8,1.1h.1l.7-.8c.3.1.7.2,1.1.3l.2,1h.7a7.72,7.72,0,0,0,1.5-.2h.1l.1-1.1A4.87,4.87,0,0,0,42,48l.8.7h.1a10.1,10.1,0,0,0,1.6-1.3l.1-.1-.5-.9a3.59,3.59,0,0,0,.7-1l1.1.1v-.1a4.49,4.49,0,0,0,.5-1.9v-.1Zm-6.1,3a3.5,3.5,0,1,1,3.5-3.5A3.54,3.54,0,0,1,39.1,46Z"/><path class="cls-5" d="M41.5,42.66v-.6l.4-.2h0c-.1-.3-.2-.5-.3-.8h0l-.4.1a1.76,1.76,0,0,0-.4-.5l.2-.4h0a1.61,1.61,0,0,0-.7-.4h0l-.3.3c-.2-.1-.4-.1-.6-.2l-.1-.4h-.2a1.27,1.27,0,0,0-.6.1h0v.4c-.2.1-.4.1-.6.2l-.3-.3h0a2.65,2.65,0,0,0-.6.5h0l.2.4c-.1.2-.2.3-.3.5h-.4a1.88,1.88,0,0,0-.2.8h0l.4.2h0a.9.9,0,0,0,.1.5l-.4.2h0c.1.3.2.5.3.8h0l.4-.1c.1.1.2.3.3.4l-.2.4h0a2.51,2.51,0,0,0,.7.4h0l.3-.3c.1,0,.3.1.4.1l.1.4h.2a1.27,1.27,0,0,0,.6-.1h0v-.4a.76.76,0,0,0,.4-.2l.3.3h0a3,3,0,0,0,.7-.5h0l-.2-.4c.1-.1.2-.3.3-.4h.4a1.88,1.88,0,0,0,.2-.8h-.1ZM39,44a1.4,1.4,0,1,1,1.4-1.4A1.37,1.37,0,0,1,39,44Z"/><path class="cls-6" d="M28.7,44.26H14.3A10.71,10.71,0,0,1,3.6,33.56V12.76A10.71,10.71,0,0,1,14.3,2.06H35.1a10.73,10.73,0,0,1,10.8,10.7v22.7"/></g></svg>