<svg xmlns="http://www.w3.org/2000/svg" version="1" viewBox="0 0 50 50"><path fill="#DC5E82" d="M6.205 44.124l39.247-14.285V9.592a5.045 5.045 0 0 0-5.045-5.045H9.592a5.045 5.045 0 0 0-5.045 5.045v30.816a5.021 5.021 0 0 0 1.658 3.716z"/><path fill="#F56991" d="M43.793 5.874a5.011 5.011 0 0 0-3.385-1.327H9.592a5.045 5.045 0 0 0-5.045 5.045v10.566L43.793 5.874z"/><path fill="#031326" d="M25.001 46.5H9.592A6.1 6.1 0 0 1 3.5 40.408V9.592A6.098 6.098 0 0 1 9.592 3.5h30.817a6.1 6.1 0 0 1 6.092 6.092v20.245a1.048 1.048 0 1 1-2.096 0V9.592a4.001 4.001 0 0 0-3.997-3.997H9.592a4.001 4.001 0 0 0-3.997 3.997v30.816a4.001 4.001 0 0 0 3.997 3.997h15.409a1.048 1.048 0 1 1 0 2.095z"/><path fill="#031326" d="M17.212 30.409v-15.84h4.424v15.84h-4.424zm11.043 5.023c-.999 0-1.869-.105-2.611-.314v-3.682c.761.19 1.456.285 2.083.285.97 0 1.665-.302 2.083-.906s.628-1.548.628-2.833V14.568h4.424v13.386c0 2.435-.557 4.291-1.67 5.565-1.112 1.275-2.758 1.913-4.937 1.913zm-13.118-3.711h8.572v3.71h-8.572z"/></svg>