<?xml version="1.0" encoding="utf-8"?>
<!-- Generator: Adobe Illustrator 22.1.0, SVG Export Plug-In . SVG Version: 6.00 Build 0)  -->
<svg version="1.1" id="Layer_1" xmlns="http://www.w3.org/2000/svg" xmlns:xlink="http://www.w3.org/1999/xlink" x="0px" y="0px"
	 viewBox="0 0 50 50" style="enable-background:new 0 0 50 50;" xml:space="preserve">
<style type="text/css">
	.st0{fill:#00DFFC;}
	.st1{fill:#00C8E2;}
	.st2{fill:#444444;}
</style>
<g>
	<g>
		<polygon class="st0" points="1.8,11.4 2.2,18.4 48.1,35.1 47.8,26.1 47.4,22 1.5,5.3 		"/>
	</g>
	<g>
		<polygon class="st1" points="2.3,26.8 1.9,28.7 48.3,45.4 48.3,39.5 47.8,34.5 1.3,17.6 2.1,21 		"/>
	</g>
	<g>
		<g>
			<path class="st2" d="M6.2,38.4c-0.7,0-1.2-0.6-1.2-1.2s0.6-1.2,1.2-1.2c12,0,15-6.6,18.3-13.6c3.3-7,7-15,20.6-15
				c0.7,0,1.2,0.6,1.2,1.2S45.7,9.7,45,9.7c-12,0-15,6.6-18.3,13.6C23.5,30.4,19.8,38.4,6.2,38.4z"/>
		</g>
		<g>
			<path class="st2" d="M48.5,46h-47c-0.7,0-1.2-0.6-1.2-1.2V5.3C0.3,4.6,0.8,4,1.5,4s1.2,0.6,1.2,1.2v38.2h45.7
				c0.7,0,1.2,0.6,1.2,1.2S49.2,46,48.5,46z"/>
		</g>
	</g>
	<g>
		<path class="st2" d="M47.5,40.2c-0.4,0-0.8-0.3-0.8-0.8V14c0-0.4,0.3-0.8,0.8-0.8s0.8,0.3,0.8,0.8v25.5
			C48.3,39.9,48,40.2,47.5,40.2z"/>
	</g>
	<g>
		<path class="st2" d="M42.9,40.2c-0.4,0-0.8-0.3-0.8-0.8V17c0-0.4,0.3-0.8,0.8-0.8s0.8,0.3,0.8,0.8v22.5
			C43.7,39.9,43.3,40.2,42.9,40.2z"/>
	</g>
	<g>
		<path class="st2" d="M38.3,40.2c-0.4,0-0.8-0.3-0.8-0.8V21.1c0-0.4,0.3-0.8,0.8-0.8s0.8,0.3,0.8,0.8v18.4
			C39,39.9,38.7,40.2,38.3,40.2z"/>
	</g>
	<g>
		<path class="st2" d="M33.7,40.2c-0.4,0-0.8-0.3-0.8-0.8V23.8c0-0.4,0.3-0.8,0.8-0.8s0.8,0.3,0.8,0.8v15.7
			C34.4,39.9,34.1,40.2,33.7,40.2z"/>
	</g>
	<g>
		<path class="st2" d="M29,40.2c-0.4,0-0.8-0.3-0.8-0.8V29c0-0.4,0.3-0.8,0.8-0.8s0.8,0.3,0.8,0.8v10.5C29.8,39.9,29.4,40.2,29,40.2
			z"/>
	</g>
	<g>
		<path class="st2" d="M24.4,40.2c-0.4,0-0.8-0.3-0.8-0.8v-4.8c0-0.4,0.3-0.8,0.8-0.8s0.8,0.3,0.8,0.8v4.8
			C25.2,39.9,24.8,40.2,24.4,40.2z"/>
	</g>
</g>
</svg>
