<svg xmlns="http://www.w3.org/2000/svg" version="1.0" viewBox="0 0 50 50"><path fill="#E589EF" d="M7.832 28.795l-.222-.483v-7.499l-.191-.146c-1.404-1.019-1.765-3.011-2.028-4.465-.155-.814-.281-1.414-.502-1.74l-.035-.052-.061-.014a1.097 1.097 0 0 1-.252-.087 1.324 1.324 0 0 1-.262-.213c-.273-.274-.446-.632-.446-.919 0-.084.014-.153.046-.223.05-.054.075-.097.091-.109l.087-.044.001-.007 17.02-9.767c.007 0 .041-.005.08-.005.044 0 .094.007.152.021l.114.042c.039.012.071.021.105.041.208.117.412.334.546.584.528.651 1.045 1.587 1.545 2.491l.165.297.056.019c.176.062.362.161.537.288l.765.563.09-.008c.063 0 .099.008.136.021l8.815 4.841.044.082.032-.01c.045.063.051.101.051.127v1.639l.501.377 1.062-.575a.225.225 0 0 1 .115-.033c.038 0 .074.01.109.031l8.851 4.843.047.051.009.001.011.022c.044.061.05.1.05.127v3.031l.719.534c.403.287.633.736.633 1.236v.157l.009.001v8.4c0 .477-.229.877-.627 1.107l-.278.158-18.116 6.594L7.832 28.795zM5.72 13.999l.09.139c.356.555.719 1.206 1.028 1.769.16.29.319.579.479.858l.294.512v-1.385c.035-.594.34-1.085.815-1.354l13.631-7.841.132-.186c-.12-.647-.223-1.194-.39-1.556l-.072-.156-16.007 9.2z"/><path fill="#F799FF" d="M7.61 20.813l-.191-.146c-1.404-1.019-1.765-3.011-2.028-4.465-.155-.814-.281-1.414-.502-1.74l-.035-.052-.061-.014a1.097 1.097 0 0 1-.252-.087 1.324 1.324 0 0 1-.262-.213c-.273-.274-.446-.632-.446-.919 0-.084.014-.153.046-.223.05-.054.075-.097.091-.109l.087-.044.001-.007 17.02-9.767c.007 0 .041-.005.08-.005.044 0 .094.007.152.021l.114.042c.039.012.071.021.105.041.208.117.412.334.546.584.528.651 1.045 1.587 1.544 2.491l.166.297.056.019c.176.062.362.161.537.288l.765.563.09-.008c.063 0 .099.008.136.021l8.815 4.841.044.082.032-.01c.045.063.051.101.051.127v1.639l.189.142-26.89 9.784v-3.173zm-1.89-6.814l.09.139c.356.555.719 1.206 1.028 1.769.16.29.319.579.479.858l.294.512v-1.385c.035-.594.34-1.085.815-1.354l13.631-7.841h.147l-.015-.186c-.12-.647-.223-1.194-.39-1.556l-.072-.156-16.007 9.2z"/><path fill="#031326" d="M48.494 23.5a3.436 3.436 0 0 0-1.244-2.446v-2.136c0-.632-.312-1.516-1.115-1.886l-8.97-4.981c-.208-.125-.583-.35-1.043-.381-.159-.49-.497-.988-.997-1.257-3.166-1.883-8.295-4.898-10.104-5.76-.686-1.101-1.198-1.867-1.527-2.282C22.303.626 20.806.693 20.103 1.012L2.69 11.004c-.523.251-1.101.876-1.197 1.935l-.005.113c0 .794.375 1.646.975 2.249.169.181.354.326.524.439.065.236.135.528.197.789.354 1.474.826 3.444 2.135 4.912v8.904a2.201 2.201 0 0 0-.595.698c-.353.623-.433 1.355-.23 2.12.323 1.223 1.285 2.242 2.056 2.68.657.362 1.204.416 1.472.416.186 0 .54-.057.653-.086l.205-.073c.241-.109.383-.192.472-.252l.623-.367 16.854 9.751v.003c0 1.314.901 2.789 2.153 3.514.489.277.989.418 1.483.418.007 0 .691-.014 1.067-.268l1.416-.818.134-.089c.597-.455.925-1.153.925-1.967 0-.163-.014-.33-.041-.499l4.149-2.479a1.252 1.252 0 0 0 .432-1.715 1.253 1.253 0 0 0-1.715-.432l-4.82 2.881a3.134 3.134 0 0 0-.885-.794c-.387-.226-.742-.285-1.011-.199l-1.261.727-18.344-10.613c.005-.047.024-.082.024-.134 0-.812-.662-1.853-1.475-2.324-.373-.217-.714-.274-.973-.191l-.129.075c.095-.154.23-.282.4-.371l.44-.227 18.418 10.648a.252.252 0 0 0 .342-.092.252.252 0 0 0-.092-.342l-19.15-11.07a1 1 0 0 1-.497-.803v-7.687l-.012-.011v-3.109c.086.095.175.188.281.265l20.815 15.226a3.31 3.31 0 0 0 1.512.605v5.566a.25.25 0 0 0 .5 0v-5.537a3.323 3.323 0 0 0 1.609-.435l13.181-7.578c.108-.062.202-.141.294-.222l.012 7.307c.008.218-.122.437-.342.564l-.867.517a1.252 1.252 0 0 0-.435 1.714 1.253 1.253 0 0 0 1.714.435l.856-.511c1.013-.589 1.614-1.667 1.572-2.768l-.015-8.912zM7.313 15.888c-.001.012.003.023.002.034-.001.007-.007.011-.007.018v.57l-.35-.629a30.888 30.888 0 0 0-1.026-1.774L21.617 5.09c.143.32.244.814.349 1.387-.019.01-.041.013-.06.024L8.265 14.344c-.56.322-.916.899-.952 1.544zm16.172-9.135l.311.081.037.016c.129.055.258.113.375.198l.429.314-1.152.631v-1.24zm1.709.881l3.991 2.19c1.385.803 2.892 1.688 4.355 2.557l-7.858 4.304-8.219-4.502a.513.513 0 0 0-.494 0l-.25.137-.046-.025 8.521-4.661zm10.704 6.573l.021.012 8.354 4.637-7.999 4.38a.504.504 0 0 0-.072-.213c-.003-.008.002-.018-.003-.026a.245.245 0 0 0-.138-.11c-.014-.01-.021-.027-.036-.035l-8.037-4.402 6.489-3.549 1.421-.694zm-9.427 2.984c-.004-.009.002-.019-.003-.028a.249.249 0 0 0-.149-.118c-.011-.007-.016-.021-.028-.027l-.088-.048 7.523-4.121v1.886l-6.258 3.428-.271-.148a.516.516 0 0 0-.493 0l-.146.08v-.626a.503.503 0 0 0-.087-.278zm-9.247-4.57l8.499 4.664-8.506 4.657-8.512-4.662 8.519-4.659zm-.256 9.754v1.029l-5.594-4.092 5.594 3.063zm.5 0l8.591-4.703v.697l-8.181 4.481c-.021.011-.03.033-.049.047a.24.24 0 0 0-.125.1c-.004.007.001.015-.002.022a.502.502 0 0 0-.092.282v.571l-.141-.103v-1.394zm.647 1.134l8.586 4.7v2.315L18.11 24.24l.005-.731zm8.836 4.266l-8.515-4.661 8.521-4.66 8.499 4.664-8.505 4.657zm9.342-3.98l8.457-4.631v3.091l.019.015v3.067l-8.476 4.873v-6.415zM8.066 29.307l.219.126-.156.081a1.536 1.536 0 0 0-.309.215v-.611c.077.067.154.135.246.189zm.448-14.529l13.642-7.843c.259-.148.544-.212.83-.228v1.56l-6.871 3.764c-.023.012-.034.037-.054.052-.046.022-.092.047-.119.095-.004.007.001.014-.002.021a.506.506 0 0 0-.093.283v.317l-7.622 4.175a1.39 1.39 0 0 1 .289-2.196zm23.762 17.743a2.824 2.824 0 0 1-3.077-.17l-1.998-1.461v-2.68l8.592-4.705V30.5l-3.517 2.021zm13.18-7.579l-.188.108v-2.378l.341.274c.232.171.371.426.388.638l.001.755a1.329 1.329 0 0 1-.542.603z"/></svg>