<?xml version="1.0" encoding="UTF-8"?>
<svg xmlns="http://www.w3.org/2000/svg" version="1.1" viewBox="0 0 50 50">
  <defs>
    <style>
      .cls-1 {
        stroke-width: .5px;
      }

      .cls-1, .cls-2, .cls-3 {
        fill: none;
        stroke: #444;
      }

      .cls-1, .cls-3 {
        stroke-miterlimit: 10;
      }

      .cls-4 {
        fill: #8256d8;
      }

      .cls-2 {
        stroke-linecap: round;
        stroke-linejoin: round;
        stroke-width: 2.5px;
      }

      .cls-5 {
        fill: #a475ef;
      }
    </style>
  </defs>
  <!-- Generator: Adobe Illustrator 28.7.1, SVG Export Plug-In . SVG Version: 1.2.0 Build 142)  -->
  <g>
    <g id="Camada_1">
      <g>
        <polygon class="cls-4" points="29.2 16.3 37 18.7 30.3 23.4 30.4 31.6 23.8 26.7 16 29.4 18.7 21.6 13.8 15 22 15.1 26.7 8.4 29.2 16.3"/>
        <g>
          <path class="cls-5" d="M41.9,2.6L7.3,3.3c-1.4,0-1.4,3.8-1.4,5.2l-.2,12.9.2,10.1,2.3,6.8,4.2,4.9,32.1-11.4V5.1h0c0-1.4-1.1-2.6-2.5-2.6Z"/>
          <g>
            <g>
              <path class="cls-3" d="M20.3,24.3l11-5.6c1.1-.5,1.1-2,0-2.6l-11-5.6c-1.1-.5-2.3.2-2.3,1.4v10.8c0,1.2,1.3,2,2.3,1.4Z"/>
              <rect class="cls-3" x="8.7" y="6.1" width="32.8" height="21.6" rx="4.5" ry="4.5"/>
              <g>
                <circle class="cls-3" cx="14.2" cy="33.5" r="2.9"/>
                <circle class="cls-3" cx="24.3" cy="41.1" r="2.9"/>
                <circle class="cls-3" cx="34.6" cy="33.5" r="2.9"/>
                <line class="cls-1" x1="24.3" y1="27.6" x2="24.3" y2="38.2"/>
                <polyline class="cls-1" points="16.9 33.8 20.9 33.8 20.9 27.6"/>
                <polyline class="cls-1" points="31.8 33.8 27.8 33.8 27.8 27.6"/>
              </g>
            </g>
            <path class="cls-2" d="M41.8,38.3c1.9-3,3.1-6.5,3.1-10.2v-4.4s0-16.6,0-16.6c0-2.4-2-4.4-4.5-4.4H9.8c-2.5,0-4.5,1.9-4.5,4.4v21c0,10.6,8.9,19.1,19.8,19.1"/>
          </g>
        </g>
      </g>
    </g>
  </g>
</svg>
