<?xml version="1.0" encoding="utf-8"?>
<!-- Generator: Adobe Illustrator 26.5.0, SVG Export Plug-In . SVG Version: 6.00 Build 0)  -->
<svg version="1.1" id="Layer_1" xmlns="http://www.w3.org/2000/svg" xmlns:xlink="http://www.w3.org/1999/xlink" x="0px" y="0px"
	 viewBox="0 0 50 50" style="enable-background:new 0 0 50 50;" xml:space="preserve">
<style type="text/css">
	.st0{fill:#E56060;}
	.st1{fill:#FF6B6B;}
	.st2{fill:#494949;}
	.st3{fill:#454545;}
	.st4{fill:none;stroke:#444444;stroke-width:2.5;stroke-linecap:round;stroke-linejoin:round;stroke-miterlimit:10;}
</style>
<g>
	<g id="Layer_1_00000058577701952567233890000014275959396035731359_">
		<path class="st0" d="M47.3,26.1l0.5,4.5L2.5,47.1v-9.4l0.2-5.4l45.1-16.5l-0.6,3.9L47.3,26.1z"/>
		<path class="st1" d="M47,8.8l-0.4,8.1L2.4,33L2.2,22.8l0.2-4.6L47,2V8.8z"/>
		<path class="st2" d="M39.1,34.2H25.5c-0.8,0-1.4-0.6-1.4-1.4v-8.4c0-0.8,0.6-1.4,1.4-1.4h13.7c0.8,0,1.4,0.6,1.4,1.4v8.4
			C40.5,33.6,39.9,34.2,39.1,34.2z M25.5,24.2c-0.1,0-0.2,0.1-0.2,0.2v8.4c0,0.1,0.1,0.2,0.2,0.2h13.7c0.1,0,0.2-0.1,0.2-0.2v-8.4
			c0-0.1-0.1-0.2-0.2-0.2C39.2,24.2,25.5,24.2,25.5,24.2z M39.1,48H25.5c-0.8,0-1.4-0.6-1.4-1.4v-8.4c0-0.8,0.6-1.4,1.4-1.4h13.7
			c0.8,0,1.4,0.6,1.4,1.4v8.4C40.5,47.4,39.9,48,39.1,48z M25.5,38c-0.1,0-0.2,0.1-0.2,0.2v8.4c0,0.1,0.1,0.2,0.2,0.2h13.7
			c0.1,0,0.2-0.1,0.2-0.2v-8.4c0-0.1-0.1-0.2-0.2-0.2H25.5z M21.6,43h-5.2c-0.3,0-0.6-0.3-0.6-0.6V22.7c0-0.3,0.3-0.6,0.6-0.6
			s0.6,0.3,0.6,0.6v19.1h4.6c0.3,0,0.6,0.3,0.6,0.6S22,43,21.6,43z"/>
		<path class="st2" d="M21.6,29.2h-5.2c-0.3,0-0.6-0.3-0.6-0.6s0.3-0.6,0.6-0.6h5.2c0.3,0,0.6,0.3,0.6,0.6S22,29.2,21.6,29.2z
			 M16.3,20.8c-4,0-7.3-3.3-7.3-7.3s3.3-7.3,7.3-7.3s7.3,3.3,7.3,7.3S20.4,20.8,16.3,20.8z M16.3,7.2c-3.5,0-6.3,2.8-6.3,6.3
			s2.8,6.3,6.3,6.3s6.3-2.8,6.3-6.3S19.8,7.2,16.3,7.2z"/>
		<path class="st3" d="M34.1,32l-2.3-2.3c-0.2-0.2-0.2-0.5,0-0.7s0.5-0.2,0.7,0l1.6,1.6l3.6-3.8c0.2-0.2,0.5-0.2,0.7,0
			s0.2,0.5,0,0.7C38.4,27.5,34.1,32,34.1,32z"/>
		<circle class="st3" cx="31" cy="44.1" r="0.9"/>
		<circle class="st3" cx="34.2" cy="44.1" r="0.9"/>
		<circle class="st3" cx="37.3" cy="44.1" r="0.9"/>
		<path class="st4" d="M12.7,46.4h-10V2h44.7v44.4"/>
	</g>
	<path class="st3" d="M15.1,17.4c-0.2,0-0.4-0.1-0.6-0.2c-0.4-0.2-0.7-0.7-0.7-1.2v-4.6c0-0.5,0.3-0.9,0.7-1.2
		c0.4-0.2,0.8-0.2,1.2,0l3.7,2.3c0.4,0.2,0.6,0.7,0.6,1.1s-0.2,0.9-0.6,1.1l-3.6,2.5C15.6,17.3,15.3,17.4,15.1,17.4z M15.1,11.2H15
		c0,0-0.2,0.1-0.2,0.3v4.6c0,0.2,0.1,0.3,0.2,0.3h0.2l3.7-2.3C19,14,19,13.9,19,13.8s0-0.2-0.1-0.3L15.1,11.2
		C15.2,11.2,15.1,11.2,15.1,11.2z"/>
</g>
</svg>
