<?xml version="1.0" encoding="utf-8"?>
<!-- Generator: Adobe Illustrator 22.1.0, SVG Export Plug-In . SVG Version: 6.00 Build 0)  -->
<svg version="1.0" id="Layer_1" xmlns="http://www.w3.org/2000/svg" xmlns:xlink="http://www.w3.org/1999/xlink" x="0px" y="0px"
	 viewBox="0 0 50 50" enable-background="new 0 0 50 50" xml:space="preserve">
<g>
	<g>
		<path fill="#E589EF" d="M7.832,28.795L7.61,28.312v-7.499l-0.191-0.146c-1.404-1.019-1.765-3.011-2.028-4.465
			c-0.155-0.814-0.281-1.414-0.502-1.74L4.854,14.41l-0.061-0.014c-0.095-0.021-0.177-0.05-0.252-0.087
			c-0.07-0.045-0.177-0.119-0.262-0.213c-0.273-0.274-0.446-0.632-0.446-0.919c0-0.084,0.014-0.153,0.046-0.223
			c0.05-0.054,0.075-0.097,0.091-0.109l0.087-0.044l0.001-0.007l17.02-9.767c0.007,0,0.041-0.005,0.08-0.005
			c0.044,0,0.094,0.007,0.152,0.021l0.114,0.042c0.039,0.012,0.071,0.021,0.105,0.041c0.208,0.117,0.412,0.334,0.546,0.584
			c0.528,0.651,1.045,1.587,1.545,2.491l0.165,0.297l0.056,0.019c0.176,0.062,0.362,0.161,0.537,0.288l0.765,0.563
			c0,0,0.082-0.008,0.09-0.008c0.063,0,0.099,0.008,0.136,0.021l8.815,4.841l0.044,0.082l0.032-0.01
			c0.045,0.063,0.051,0.101,0.051,0.127v1.639l0.501,0.377l1.062-0.575c0.04-0.023,0.077-0.033,0.115-0.033
			c0.038,0,0.074,0.01,0.109,0.031l8.851,4.843l0.047,0.051l0.009,0.001l0.011,0.022c0.044,0.061,0.05,0.1,0.05,0.127v3.031
			l0.719,0.534c0.403,0.287,0.633,0.736,0.633,1.236v0.157l0.009,0.001v8.4c0,0.477-0.229,0.877-0.627,1.107l-0.278,0.158
			l-18.116,6.594L7.832,28.795z M5.72,13.999l0.09,0.139c0.356,0.555,0.719,1.206,1.028,1.769c0.16,0.29,0.319,0.579,0.479,0.858
			l0.294,0.512v-1.385c0.035-0.594,0.34-1.085,0.815-1.354l13.631-7.841l0.132-0.186c-0.12-0.647-0.223-1.194-0.39-1.556
			l-0.072-0.156L5.72,13.999z"/>
	</g>
	<g>
		<path fill="#F799FF" d="M7.61,20.813l-0.191-0.146c-1.404-1.019-1.765-3.011-2.028-4.465c-0.155-0.814-0.281-1.414-0.502-1.74
			L4.854,14.41l-0.061-0.014c-0.095-0.021-0.177-0.05-0.252-0.087c-0.07-0.045-0.177-0.119-0.262-0.213
			c-0.273-0.274-0.446-0.632-0.446-0.919c0-0.084,0.014-0.153,0.046-0.223c0.05-0.054,0.075-0.097,0.091-0.109l0.087-0.044
			l0.001-0.007l17.02-9.767c0.007,0,0.041-0.005,0.08-0.005c0.044,0,0.094,0.007,0.152,0.021l0.114,0.042
			c0.039,0.012,0.071,0.021,0.105,0.041c0.208,0.117,0.412,0.334,0.546,0.584c0.528,0.651,1.045,1.587,1.544,2.491l0.166,0.297
			l0.056,0.019c0.176,0.062,0.362,0.161,0.537,0.288l0.765,0.563c0,0,0.082-0.008,0.09-0.008c0.063,0,0.099,0.008,0.136,0.021
			l8.815,4.841l0.044,0.082l0.032-0.01c0.045,0.063,0.051,0.101,0.051,0.127v1.639l0.189,0.142L7.61,23.986V20.813z M5.72,13.999
			l0.09,0.139c0.356,0.555,0.719,1.206,1.028,1.769c0.16,0.29,0.319,0.579,0.479,0.858l0.294,0.512v-1.385
			c0.035-0.594,0.34-1.085,0.815-1.354l13.631-7.841h0.147l-0.015-0.186c-0.12-0.647-0.223-1.194-0.39-1.556l-0.072-0.156
			L5.72,13.999z"/>
	</g>
	<path fill="#444444" d="M48.494,23.5c-0.063-0.975-0.528-1.868-1.244-2.446v-2.136c0-0.632-0.312-1.516-1.115-1.886l-8.97-4.981
		c-0.208-0.125-0.583-0.35-1.043-0.381c-0.159-0.49-0.497-0.988-0.997-1.257c-3.166-1.883-8.295-4.898-10.104-5.76
		c-0.686-1.101-1.198-1.867-1.527-2.282c-1.191-1.745-2.688-1.678-3.391-1.359L2.69,11.004c-0.523,0.251-1.101,0.876-1.197,1.935
		l-0.005,0.113c0,0.794,0.375,1.646,0.975,2.249c0.169,0.181,0.354,0.326,0.524,0.439c0.065,0.236,0.135,0.528,0.197,0.789
		c0.354,1.474,0.826,3.444,2.135,4.912v8.904c-0.244,0.193-0.458,0.432-0.595,0.698c-0.353,0.623-0.433,1.355-0.23,2.12
		c0.323,1.223,1.285,2.242,2.056,2.68c0.657,0.362,1.204,0.416,1.472,0.416c0.186,0,0.54-0.057,0.653-0.086L8.88,36.1
		c0.241-0.109,0.383-0.192,0.472-0.252c0.251-0.148,0.456-0.269,0.623-0.367l16.854,9.751c0,0.001,0,0.002,0,0.003
		c0,1.314,0.901,2.789,2.153,3.514c0.489,0.277,0.989,0.418,1.483,0.418c0.007,0,0.691-0.014,1.067-0.268l1.416-0.818l0.134-0.089
		c0.597-0.455,0.925-1.153,0.925-1.967c0-0.163-0.014-0.33-0.041-0.499l4.149-2.479c0.592-0.354,0.785-1.122,0.432-1.715
		c-0.355-0.593-1.123-0.784-1.715-0.432l-4.82,2.881c-0.25-0.322-0.555-0.604-0.885-0.794c-0.387-0.226-0.742-0.285-1.011-0.199
		l-1.261,0.727L10.511,32.902c0.005-0.047,0.024-0.082,0.024-0.134c0-0.812-0.662-1.853-1.475-2.324
		c-0.373-0.217-0.714-0.274-0.973-0.191l-0.129,0.075c0.095-0.154,0.23-0.282,0.4-0.371l0.44-0.227l18.418,10.648
		c0.039,0.022,0.082,0.033,0.125,0.033c0.086,0,0.17-0.045,0.217-0.125c0.068-0.119,0.028-0.272-0.092-0.342L8.316,28.874
		c-0.297-0.173-0.472-0.469-0.497-0.803v-7.687l-0.012-0.011v-3.109c0.086,0.095,0.175,0.188,0.281,0.265l20.815,15.226
		c0.454,0.332,0.975,0.532,1.512,0.605v5.566c0,0.138,0.112,0.25,0.25,0.25s0.25-0.112,0.25-0.25v-5.537
		c0.554-0.008,1.108-0.148,1.609-0.435l13.181-7.578c0.108-0.062,0.202-0.141,0.294-0.222l0.012,7.307
		c0.008,0.218-0.122,0.437-0.342,0.564l-0.867,0.517c-0.593,0.354-0.787,1.121-0.435,1.714c0.354,0.594,1.121,0.785,1.714,0.435
		l0.856-0.511c1.013-0.589,1.614-1.667,1.572-2.768L48.494,23.5z M7.313,15.888c-0.001,0.012,0.003,0.023,0.002,0.034
		c-0.001,0.007-0.007,0.011-0.007,0.018v0.57c-0.117-0.21-0.234-0.419-0.35-0.629c-0.348-0.633-0.687-1.247-1.026-1.774
		l15.685-9.017c0.143,0.32,0.244,0.814,0.349,1.387c-0.019,0.01-0.041,0.013-0.06,0.024L8.265,14.344
		C7.705,14.666,7.349,15.243,7.313,15.888z M23.485,6.753l0.311,0.081c0.009,0.003,0.026,0.012,0.037,0.016
		c0.129,0.055,0.258,0.113,0.375,0.198l0.429,0.314l-1.152,0.631V6.753z M25.194,7.634l3.991,2.19
		c1.385,0.803,2.892,1.688,4.355,2.557l-7.858,4.304l-8.219-4.502c-0.154-0.085-0.339-0.084-0.494,0l-0.25,0.137l-0.046-0.025
		L25.194,7.634z M35.898,14.207c0.007,0.004,0.014,0.008,0.021,0.012l8.354,4.637l-7.999,4.38c-0.011-0.077-0.03-0.15-0.072-0.213
		c-0.003-0.008,0.002-0.018-0.003-0.026c-0.031-0.056-0.083-0.091-0.138-0.11c-0.014-0.01-0.021-0.027-0.036-0.035l-8.037-4.402
		l6.489-3.549L35.898,14.207z M26.471,17.191c-0.004-0.009,0.002-0.019-0.003-0.028c-0.033-0.06-0.088-0.1-0.149-0.118
		c-0.011-0.007-0.016-0.021-0.028-0.027l-0.088-0.048l7.523-4.121v1.886l-6.258,3.428l-0.271-0.148
		c-0.154-0.084-0.339-0.083-0.493,0l-0.146,0.08v-0.626C26.559,17.367,26.524,17.273,26.471,17.191z M17.224,12.621l8.499,4.664
		l-8.506,4.657L8.705,17.28L17.224,12.621z M16.968,22.375v1.029l-5.594-4.092L16.968,22.375z M17.468,22.375l8.591-4.703v0.697
		l-8.181,4.481c-0.021,0.011-0.03,0.033-0.049,0.047c-0.049,0.021-0.097,0.049-0.125,0.1c-0.004,0.007,0.001,0.015-0.002,0.022
		c-0.056,0.083-0.092,0.178-0.092,0.282v0.571l-0.141-0.103V22.375z M18.115,23.509l8.586,4.7v2.315l-8.591-6.284L18.115,23.509z
		 M26.951,27.775l-8.515-4.661l8.521-4.66l8.499,4.664L26.951,27.775z M36.293,23.795l8.457-4.631v3.091l0.019,0.015v3.067
		l-8.476,4.873V23.795z M8.066,29.307l0.219,0.126l-0.156,0.081c-0.114,0.059-0.216,0.133-0.309,0.215v-0.611
		C7.897,29.185,7.974,29.253,8.066,29.307z M8.514,14.778l13.642-7.843c0.259-0.148,0.544-0.212,0.83-0.228v1.56l-6.871,3.764
		c-0.023,0.012-0.034,0.037-0.054,0.052c-0.046,0.022-0.092,0.047-0.119,0.095c-0.004,0.007,0.001,0.014-0.002,0.021
		c-0.056,0.083-0.093,0.179-0.093,0.283v0.317l-7.622,4.175c-0.277-0.279-0.433-0.657-0.411-1.058
		C7.838,15.44,8.101,15.015,8.514,14.778z M32.276,32.521c-0.969,0.557-2.177,0.491-3.077-0.17l-1.998-1.461v-2.68l8.592-4.705
		v6.995L32.276,32.521z M45.456,24.942l-0.188,0.108v-2.378l0.341,0.274c0.232,0.171,0.371,0.426,0.388,0.638l0.001,0.755
		C45.883,24.587,45.702,24.801,45.456,24.942z"/>
</g>
</svg>
