<?xml version="1.0" encoding="utf-8"?>
<!-- Generator: Adobe Illustrator 28.0.0, SVG Export Plug-In . SVG Version: 6.00 Build 0)  -->
<svg version="1.1" id="Layer_1" xmlns="http://www.w3.org/2000/svg" xmlns:xlink="http://www.w3.org/1999/xlink" x="0px" y="0px"
	 viewBox="0 0 50 50" style="enable-background:new 0 0 50 50;" xml:space="preserve">
<style type="text/css">
	.st0{fill:#46B8B0;}
	.st1{fill:#444444;}
	.st2{fill:none;stroke:#444444;stroke-width:0.5;stroke-linecap:round;stroke-linejoin:round;stroke-miterlimit:10;}
	.st3{fill:none;stroke:#444444;stroke-width:2.5;stroke-linecap:round;stroke-linejoin:round;stroke-miterlimit:10;}
	.st4{fill:none;stroke:#444444;stroke-width:0.5;stroke-miterlimit:10;}
	.st5{fill:#444444;stroke:#444444;stroke-width:0.5;stroke-miterlimit:10;}
</style>
<g>
	<path class="st0" d="M32.2,1.6H10.8c-1.6,0-1.6,4.4-1.6,6L8.9,22.6L8.3,34.4L9,47.7l1.3,0.9L36,39.5l-0.2-7.2
		c1.8-0.6,12.5,0.2,12.6-1.7L48.2,14l-12.1-1.2l-0.7-8.2C35.4,3,33.8,1.6,32.2,1.6z"/>
	<g>
		<g>
			<g>
				<path class="st1" d="M28.1,33.9l-2.2-2.5h-2c-1.1,0-2.1-0.9-2.1-2.1V15.7c0-1.1,0.9-2.1,2.1-2.1h22.2c1.1,0,2.1,0.9,2.1,2.1
					v13.6c0,1.1-0.9,2.1-2.1,2.1H31.3l-2.2,2.5C28.8,34.2,28.3,34.2,28.1,33.9z M23.9,14.9c-0.4,0-0.8,0.4-0.8,0.8v13.6
					c0,0.4,0.4,0.8,0.8,0.8h2.2c0.2,0,0.4,0.1,0.6,0.3l1.9,2.2l1.8-2.1c0.2-0.2,0.5-0.3,0.8-0.3h14.9c0.4,0,0.8-0.4,0.8-0.8V15.7
					c0-0.4-0.4-0.8-0.8-0.8H23.9z"/>
				<path class="st1" d="M28.5,24.4c-1.4,0-2.6-1.2-2.6-2.6c0-1.4,1.2-2.6,2.6-2.6c1.4,0,2.6,1.2,2.6,2.6
					C31.1,23.3,30,24.4,28.5,24.4z M28.5,20.6c-0.7,0-1.3,0.6-1.3,1.3c0,0.7,0.6,1.3,1.3,1.3s1.3-0.6,1.3-1.3
					C29.8,21.1,29.3,20.6,28.5,20.6z"/>
				<path class="st1" d="M34.8,24.4c-1.4,0-2.6-1.2-2.6-2.6c0-1.4,1.2-2.6,2.6-2.6c1.4,0,2.6,1.2,2.6,2.6
					C37.4,23.3,36.2,24.4,34.8,24.4z M34.8,20.6c-0.7,0-1.3,0.6-1.3,1.3c0,0.7,0.6,1.3,1.3,1.3c0.7,0,1.3-0.6,1.3-1.3
					C36.1,21.1,35.5,20.6,34.8,20.6z"/>
				<path class="st1" d="M41,24.4c-1.4,0-2.6-1.2-2.6-2.6c0-1.4,1.2-2.6,2.6-2.6c1.4,0,2.6,1.2,2.6,2.6C43.6,23.3,42.5,24.4,41,24.4
					z M41,20.6c-0.7,0-1.3,0.6-1.3,1.3c0,0.7,0.6,1.3,1.3,1.3c0.7,0,1.3-0.6,1.3-1.3C42.3,21.1,41.8,20.6,41,20.6z"/>
			</g>
			<line class="st2" x1="16.8" y1="31.1" x2="22.2" y2="25.7"/>
			<line class="st2" x1="16.8" y1="24.5" x2="22.2" y2="19.2"/>
			<path class="st3" d="M35.4,42.3V31.9H46c1.2,0,2.3-1,2.3-2.3V15.1c0-1.2-1-2.3-2.3-2.3H35.4V5.1c0-2-1.6-3.6-3.6-3.6h-20
				c-2,0-3.6,1.6-3.6,3.6v39.8c0,2,1.6,3.6,3.6,3.6h16.4"/>
		</g>
		<path class="st4" d="M18,5.6h7.2c1.3,0,2.4-1.1,2.4-2.4V2.2c0-0.3-0.3-0.6-0.6-0.6H16.2c-0.3,0-0.6,0.3-0.6,0.6v0.9
			C15.6,4.5,16.7,5.6,18,5.6z"/>
		<line class="st5" x1="8.8" y1="41" x2="35.2" y2="41"/>
	</g>
	<line class="st2" x1="34.4" y1="41.2" x2="34.4" y2="30.9"/>
	<line class="st2" x1="34.4" y1="13.9" x2="34.4" y2="3.3"/>
</g>
</svg>
