<svg xmlns="http://www.w3.org/2000/svg" id="Layer_1" x="0" y="0" version="1.1" viewBox="0 0 50 50" xml:space="preserve"><style>.st2{fill:#031326}</style><path fill="#00dffc" d="M1.8 11.4l.4 7 45.9 16.7-.3-9-.4-4.1L1.5 5.3z"/><path fill="#00c8e2" d="M2.3 26.8l-.4 1.9 46.4 16.7v-5.9l-.5-5L1.3 17.6l.8 3.4z"/><path d="M6.2 38.4c-.7 0-1.2-.6-1.2-1.2S5.6 36 6.2 36c12 0 15-6.6 18.3-13.6 3.3-7 7-15 20.6-15 .7 0 1.2.6 1.2 1.2s-.6 1.1-1.3 1.1c-12 0-15 6.6-18.3 13.6-3.2 7.1-6.9 15.1-20.5 15.1z" class="st2"/><path d="M48.5 46h-47c-.7 0-1.2-.6-1.2-1.2V5.3C.3 4.6.8 4 1.5 4s1.2.6 1.2 1.2v38.2h45.7c.7 0 1.2.6 1.2 1.2s-.4 1.4-1.1 1.4zm-1-5.8c-.4 0-.8-.3-.8-.8V14c0-.4.3-.8.8-.8s.8.3.8.8v25.5c0 .4-.3.7-.8.7z" class="st2"/><path d="M42.9 40.2c-.4 0-.8-.3-.8-.8V17c0-.4.3-.8.8-.8s.8.3.8.8v22.5c0 .4-.4.7-.8.7zm-4.6 0c-.4 0-.8-.3-.8-.8V21.1c0-.4.3-.8.8-.8s.8.3.8.8v18.4c-.1.4-.4.7-.8.7zm-4.6 0c-.4 0-.8-.3-.8-.8V23.8c0-.4.3-.8.8-.8s.8.3.8.8v15.7c-.1.4-.4.7-.8.7zm-4.7 0c-.4 0-.8-.3-.8-.8V29c0-.4.3-.8.8-.8s.8.3.8.8v10.5c0 .4-.4.7-.8.7zm-4.6 0c-.4 0-.8-.3-.8-.8v-4.8c0-.4.3-.8.8-.8s.8.3.8.8v4.8c0 .5-.4.8-.8.8z" class="st2"/></svg>