<?xml version="1.0" encoding="utf-8"?>
<!-- Generator: Adobe Illustrator 28.0.0, SVG Export Plug-In . SVG Version: 6.00 Build 0)  -->
<svg version="1.1" id="Layer_1" xmlns="http://www.w3.org/2000/svg" xmlns:xlink="http://www.w3.org/1999/xlink" x="0px" y="0px"
	 viewBox="0 0 50 50" style="enable-background:new 0 0 50 50;" xml:space="preserve">
<style type="text/css">
	.st0{fill:#B68AF3;}
	.st1{fill:#E5E5E5;}
</style>
<g>
	<path class="st0" d="M17.8,42.4c-3.4,0-6.2-2.8-6.2-6.2v-7.1c-1-0.6-1.7-1.7-1.7-3v-8.9c0-3.7,3-6.8,6.8-6.8h8.7V9.9
		c0-1.7,1.4-3.1,3.1-3.1h7.7c1.7,0,3.1,1.4,3.1,3.1v0.6h8.7c0.1,0,0.2,0,0.2,0V8c0-3.1-2.5-5.6-5.6-5.6H8.8C5.7,2.5,3.2,5,3.2,8
		v31.3v2.5c0,3.1,2.5,5.6,5.6,5.6h0h33.7h0c1,0,1.9-0.2,2.7-0.7c1.6-0.9,2.7-2.5,2.9-4.4c-0.4,0.1-0.9,0.1-1.3,0.1H17.8z"/>
	<path class="st0" d="M41.6,23.1c0.8,0,1.5-0.7,1.5-1.5s-0.7-1.5-1.5-1.5s-1.5,0.7-1.5,1.5S40.7,23.1,41.6,23.1z"/>
	<path class="st0" d="M16.7,12.5c-2.6,0-4.8,2.2-4.8,4.8v8.9c0,0.8,0.7,1.5,1.5,1.5h7V27c0-1.2,1-2.2,2.2-2.2H24
		c1.2,0,2.2,1,2.2,2.2v0.6h5l-1-1.9c-0.3,0.1-0.6,0.2-0.9,0.2c-1.4,0-2.5-1.1-2.5-2.5s1.1-2.5,2.5-2.5s2.5,1.1,2.5,2.5
		c0,0.9-0.5,1.7-1.2,2.1l1.1,2.1h3.5v-0.8c-1.2-0.2-2.1-1.2-2.1-2.5c0-1.4,1.1-2.5,2.5-2.5s2.5,1.1,2.5,2.5c0,1.4-1.1,2.5-2.4,2.5
		v0.7h3V27c0-1.2,1-2.2,2.2-2.2h1.4c1.2,0,2.2,1,2.2,2.2v0.6h3.5v-4.2v-3.1l-3.8-3.2c-0.5,0.5-1.1,0.8-1.8,0.8
		c-1.4,0-2.5-1.1-2.5-2.5c0-0.1,0-0.2,0-0.3H24.8c0,0.1,0,0.1,0,0.2c0,1.4-1.1,2.5-2.5,2.5c-0.8,0-1.5-0.4-1.9-0.9l-2,2.1
		c0.5,0.5,0.8,1.1,0.8,1.8c0,1.4-1.1,2.5-2.5,2.5s-2.5-1.1-2.5-2.5s1.1-2.5,2.5-2.5c0.5,0,0.9,0.1,1.3,0.4l2.1-2.2
		c-0.2-0.3-0.3-0.7-0.3-1.2c0-1.4,1.1-2.5,2.5-2.5c1.1,0,2.1,0.8,2.4,1.8h15.4c0.3-1,1.3-1.7,2.4-1.7c1.4,0,2.5,1.1,2.5,2.5
		c0,0.5-0.1,0.9-0.4,1.3l3.5,2.9v-7.2c-0.1,0-0.2,0-0.2,0H16.7z M23.3,19.3c0.7,0,1.3,0.3,1.7,0.7l1-0.7h12.7l1,0.7
		c0.5-0.5,1.1-0.9,1.9-0.9c1.4,0,2.5,1.1,2.5,2.5s-1.1,2.5-2.5,2.5s-2.5-1.1-2.5-2.5c0-0.5,0.1-0.9,0.3-1.2l-0.9-0.6H26.2l-0.8,0.5
		c0.3,0.4,0.5,0.9,0.5,1.5c0,1.4-1.1,2.5-2.5,2.5s-2.5-1.1-2.5-2.5S21.9,19.3,23.3,19.3z"/>
	<path class="st0" d="M23.3,23.3c0.8,0,1.5-0.7,1.5-1.5s-0.7-1.5-1.5-1.5s-1.5,0.7-1.5,1.5S22.5,23.3,23.3,23.3z"/>
	<path class="st0" d="M42.4,14c-0.8,0-1.5,0.7-1.5,1.5s0.7,1.5,1.5,1.5s1.5-0.7,1.5-1.5S43.3,14,42.4,14z"/>
	<path class="st0" d="M16.6,19.4c-0.8,0-1.5,0.7-1.5,1.5s0.7,1.5,1.5,1.5c0.8,0,1.5-0.7,1.5-1.5S17.5,19.4,16.6,19.4z"/>
	<circle class="st0" cx="22.3" cy="15.4" r="1.5"/>
	<path class="st0" d="M27.8,36.2c0.8,0,1.5-0.7,1.5-1.5s-0.7-1.5-1.5-1.5s-1.5,0.7-1.5,1.5S27,36.2,27.8,36.2z"/>
	<circle class="st0" cx="35.7" cy="24.4" r="1.5"/>
	<path class="st0" d="M43.2,36c0,0.8,0.7,1.5,1.5,1.5c0.8,0,1.5-0.7,1.5-1.5s-0.7-1.5-1.5-1.5C43.9,34.4,43.2,35.1,43.2,36z"/>
	<path class="st0" d="M41,31.7h1.4c0.7,0,1.2-0.5,1.2-1.2V27c0-0.7-0.5-1.2-1.2-1.2H41c-0.7,0-1.2,0.5-1.2,1.2v3.5
		C39.8,31.2,40.3,31.7,41,31.7z"/>
	<path class="st0" d="M22.6,31.7H24c0.7,0,1.2-0.5,1.2-1.2V27c0-0.7-0.5-1.2-1.2-1.2h-1.4c-0.7,0-1.2,0.5-1.2,1.2v3.5
		C21.4,31.2,22,31.7,22.6,31.7z"/>
	<path class="st0" d="M29.3,22c-0.8,0-1.5,0.7-1.5,1.5s0.7,1.5,1.5,1.5s1.5-0.7,1.5-1.5S30.1,22,29.3,22z"/>
	<path class="st0" d="M38.6,38.8c0.8,0,1.5-0.7,1.5-1.5s-0.7-1.5-1.5-1.5s-1.5,0.7-1.5,1.5S37.8,38.8,38.6,38.8z"/>
	<path class="st0" d="M45.7,33.6c0.9,0.4,1.5,1.3,1.5,2.3c0,1.4-1.1,2.5-2.5,2.5c-1.4,0-2.5-1.1-2.5-2.5s1.1-2.5,2.5-2.5
		c0.2,0,0.4,0,0.5,0.1l1.1-3.6h-1.8v0.6c0,1.2-1,2.2-2.2,2.2H41c-1.2,0-2.2-1-2.2-2.2v-0.6h-5.2L31.7,33l1.8,4h2.7
		c0.1-1.3,1.2-2.3,2.5-2.3c1.4,0,2.5,1.1,2.5,2.5s-1.1,2.5-2.5,2.5c-1.3,0-2.4-1-2.5-2.3h-3l-2-4.5l1.9-3.1h-6.7v0.6
		c0,1.2-1,2.2-2.2,2.2h-1.4c-1.2,0-2.2-1-2.2-2.2v-0.6h-5.1v0.3l3.3,3.8h6.7c0.3-1,1.3-1.8,2.4-1.8c1.4,0,2.5,1.1,2.5,2.5
		s-1.1,2.5-2.5,2.5s-2.5-1.1-2.5-2.5c0-0.1,0-0.1,0-0.2h-6.9l-3.6-4.2v-0.5h-1.2v6.4c0,2.3,1.9,4.2,4.2,4.2h28.9
		c0.5,0,0.9-0.1,1.4-0.2V29.9h-1.1L45.7,33.6z"/>
	<path class="st1" d="M36.1,6.8h-7.7c-1.7,0-3.1,1.4-3.1,3.1v0.6h13.8V9.9C39.2,8.2,37.8,6.8,36.1,6.8z M28.1,10.5
		c0-0.8,0.6-1.4,1.2-1.4h6c0.7,0,1.2,0.6,1.2,1.4H28.1z"/>
	<path class="st0" d="M35.3,9.1h-6c-0.7,0-1.2,0.6-1.2,1.4h8.5C36.6,9.7,36,9.1,35.3,9.1z"/>
	<path class="st1" d="M44.6,16.8c0.2-0.4,0.4-0.8,0.4-1.3c0-1.4-1.1-2.5-2.5-2.5c-1.1,0-2,0.7-2.4,1.7H24.7c-0.3-1-1.3-1.8-2.4-1.8
		c-1.4,0-2.5,1.1-2.5,2.5c0,0.4,0.1,0.8,0.3,1.2L18,18.8c-0.4-0.2-0.8-0.4-1.3-0.4c-1.4,0-2.5,1.1-2.5,2.5s1.1,2.5,2.5,2.5
		s2.5-1.1,2.5-2.5c0-0.7-0.3-1.4-0.8-1.8l2-2.1c0.5,0.6,1.2,0.9,1.9,0.9c1.4,0,2.5-1.1,2.5-2.5c0-0.1,0-0.1,0-0.2H40
		c0,0.1,0,0.2,0,0.3c0,1.4,1.1,2.5,2.5,2.5c0.7,0,1.4-0.3,1.8-0.8l3.8,3.2v-0.7L44.6,16.8z M16.6,22.4c-0.8,0-1.5-0.7-1.5-1.5
		s0.7-1.5,1.5-1.5c0.8,0,1.5,0.7,1.5,1.5S17.5,22.4,16.6,22.4z M22.3,16.9c-0.8,0-1.5-0.7-1.5-1.5s0.7-1.5,1.5-1.5s1.5,0.7,1.5,1.5
		S23.1,16.9,22.3,16.9z M42.4,17c-0.8,0-1.5-0.7-1.5-1.5s0.7-1.5,1.5-1.5s1.5,0.7,1.5,1.5S43.3,17,42.4,17z"/>
	<path class="st1" d="M23.3,24.3c1.4,0,2.5-1.1,2.5-2.5c0-0.5-0.2-1-0.5-1.5l0.8-0.5h12.4l0.9,0.6c-0.2,0.4-0.3,0.8-0.3,1.2
		c0,1.4,1.1,2.5,2.5,2.5s2.5-1.1,2.5-2.5s-1.1-2.5-2.5-2.5c-0.8,0-1.4,0.3-1.9,0.9l-1-0.7H26l-1,0.7c-0.4-0.4-1-0.7-1.7-0.7
		c-1.4,0-2.5,1.1-2.5,2.5S21.9,24.3,23.3,24.3z M41.6,20.1c0.8,0,1.5,0.7,1.5,1.5s-0.7,1.5-1.5,1.5s-1.5-0.7-1.5-1.5
		S40.7,20.1,41.6,20.1z M23.3,20.3c0.8,0,1.5,0.7,1.5,1.5s-0.7,1.5-1.5,1.5s-1.5-0.7-1.5-1.5S22.5,20.3,23.3,20.3z"/>
	<path class="st1" d="M48.1,40.2c-0.4,0.1-0.9,0.2-1.4,0.2H17.8c-2.3,0-4.2-1.9-4.2-4.2v-6.4h1.2v0.5l3.6,4.2h6.9c0,0.1,0,0.1,0,0.2
		c0,1.4,1.1,2.5,2.5,2.5s2.5-1.1,2.5-2.5s-1.1-2.5-2.5-2.5c-1.1,0-2.1,0.8-2.4,1.8h-6.7l-3.3-3.8v-0.3h5.1v0.6c0,1.2,1,2.2,2.2,2.2
		H24c1.2,0,2.2-1,2.2-2.2v-0.6H33L31.1,33l2,4.5h3c0.1,1.3,1.2,2.3,2.5,2.3c1.4,0,2.5-1.1,2.5-2.5s-1.1-2.5-2.5-2.5
		c-1.3,0-2.4,1-2.5,2.3h-2.7l-1.8-4l1.9-3.2h5.2v0.6c0,1.2,1,2.2,2.2,2.2h1.4c1.2,0,2.2-1,2.2-2.2v-0.6h1.8l-1.1,3.6
		c-0.2,0-0.3-0.1-0.5-0.1c-1.4,0-2.5,1.1-2.5,2.5s1.1,2.5,2.5,2.5c1.4,0,2.5-1.1,2.5-2.5c0-1-0.6-1.9-1.5-2.3l1.2-3.8h1.1v-2.2h-3.5
		V27c0-1.2-1-2.2-2.2-2.2H41c-1.2,0-2.2,1-2.2,2.2v0.6h-3V27c1.4,0,2.4-1.1,2.4-2.5c0-1.4-1.1-2.5-2.5-2.5s-2.5,1.1-2.5,2.5
		c0,1.2,0.9,2.3,2.1,2.5v0.8h-3.5l-1.1-2.1c0.7-0.4,1.2-1.2,1.2-2.1c0-1.4-1.1-2.5-2.5-2.5s-2.5,1.1-2.5,2.5s1.1,2.5,2.5,2.5
		c0.3,0,0.6-0.1,0.9-0.2l1,1.9h-5V27c0-1.2-1-2.2-2.2-2.2h-1.4c-1.2,0-2.2,1-2.2,2.2v0.6h-7c-0.8,0-1.5-0.7-1.5-1.5v-8.9
		c0-2.6,2.2-4.8,4.8-4.8h31.1c0.1,0,0.2,0,0.2,0v-2c-0.1,0-0.2,0-0.2,0h-8.7v0.3H25.4v-0.3h-8.7c-3.7,0-6.8,3.1-6.8,6.8v8.9
		c0,1.3,0.7,2.4,1.7,3v7.1c0,3.4,2.8,6.2,6.2,6.2h28.9c0.5,0,0.9-0.1,1.3-0.1c0-0.2,0-0.4,0-0.5V40.2z M27.8,33.2
		c0.8,0,1.5,0.7,1.5,1.5s-0.7,1.5-1.5,1.5s-1.5-0.7-1.5-1.5S27,33.2,27.8,33.2z M38.6,35.8c0.8,0,1.5,0.7,1.5,1.5s-0.7,1.5-1.5,1.5
		s-1.5-0.7-1.5-1.5S37.8,35.8,38.6,35.8z M46.3,36c0,0.8-0.7,1.5-1.5,1.5c-0.8,0-1.5-0.7-1.5-1.5s0.7-1.5,1.5-1.5
		C45.6,34.4,46.3,35.1,46.3,36z M39.8,27c0-0.7,0.5-1.2,1.2-1.2h1.4c0.7,0,1.2,0.5,1.2,1.2v3.5c0,0.7-0.5,1.2-1.2,1.2H41
		c-0.7,0-1.2-0.5-1.2-1.2V27z M34.2,24.4c0-0.8,0.7-1.5,1.5-1.5s1.5,0.7,1.5,1.5S36.6,26,35.7,26S34.2,25.3,34.2,24.4z M29.3,25
		c-0.8,0-1.5-0.7-1.5-1.5s0.7-1.5,1.5-1.5s1.5,0.7,1.5,1.5S30.1,25,29.3,25z M21.4,27c0-0.7,0.5-1.2,1.2-1.2H24
		c0.7,0,1.2,0.5,1.2,1.2v3.5c0,0.7-0.5,1.2-1.2,1.2h-1.4c-0.7,0-1.2-0.5-1.2-1.2V27z"/>
	<rect x="25.4" y="10.5" class="st1" width="13.8" height="0.3"/>
</g>
</svg>
