<?xml version="1.0" encoding="utf-8"?>
<!-- Generator: Adobe Illustrator 26.3.1, SVG Export Plug-In . SVG Version: 6.00 Build 0)  -->
<svg version="1.1" id="Layer_1" xmlns="http://www.w3.org/2000/svg" xmlns:xlink="http://www.w3.org/1999/xlink" x="0px" y="0px"
	 viewBox="0 0 50 50" style="enable-background:new 0 0 50 50;" xml:space="preserve">
<style type="text/css">
	.st0{fill:#A475EF;}
	.st1{fill:#BF94F7;}
	.st2{fill:#494949;}
	.st3{fill:#454545;}
	.st4{fill:none;stroke:#444444;stroke-width:2.5;stroke-linecap:round;stroke-linejoin:round;stroke-miterlimit:10;}
</style>
<g id="Layer_2_00000059279208837492248030000018353883522086443143_">
</g>
<g id="Layer_1_00000058577701952567233890000014275959396035731359_">
	<polygon class="st0" points="47.3,26.9 47.8,31.4 2.5,47.9 2.5,38.5 2.7,33.1 47.8,16.6 47.2,20.5 	"/>
	<polygon class="st1" points="47,9.6 46.6,17.7 2.4,33.8 2.2,23.6 2.4,19 47,2.8 	"/>
	<g>
		<g>
			<g>
				<path class="st2" d="M39.1,35H25.5c-0.8,0-1.4-0.6-1.4-1.4v-8.4c0-0.8,0.6-1.4,1.4-1.4h13.7c0.8,0,1.4,0.6,1.4,1.4v8.4
					C40.5,34.4,39.9,35,39.1,35z M25.5,25c-0.1,0-0.2,0.1-0.2,0.2v8.4c0,0.1,0.1,0.2,0.2,0.2h13.7c0.1,0,0.2-0.1,0.2-0.2v-8.4
					c0-0.1-0.1-0.2-0.2-0.2C39.2,25,25.5,25,25.5,25z"/>
			</g>
		</g>
		<g>
			<g>
				<path class="st2" d="M39.1,48.8H25.5c-0.8,0-1.4-0.6-1.4-1.4V39c0-0.8,0.6-1.4,1.4-1.4h13.7c0.8,0,1.4,0.6,1.4,1.4v8.4
					C40.5,48.2,39.9,48.8,39.1,48.8z M25.5,38.8c-0.1,0-0.2,0.1-0.2,0.2v8.4c0,0.1,0.1,0.2,0.2,0.2h13.7c0.1,0,0.2-0.1,0.2-0.2V39
					c0-0.1-0.1-0.2-0.2-0.2H25.5z"/>
			</g>
		</g>
		<g>
			<g>
				<path class="st2" d="M21.6,43.8h-5.2c-0.3,0-0.6-0.3-0.6-0.6V23.5c0-0.3,0.3-0.6,0.6-0.6c0.3,0,0.6,0.3,0.6,0.6v19.1h4.6
					c0.3,0,0.6,0.3,0.6,0.6C22.2,43.5,22,43.8,21.6,43.8z"/>
			</g>
		</g>
		<g>
			<g>
				<path class="st2" d="M21.6,30h-5.2c-0.3,0-0.6-0.3-0.6-0.6s0.3-0.6,0.6-0.6h5.2c0.3,0,0.6,0.3,0.6,0.6S22,30,21.6,30z"/>
			</g>
		</g>
		<g>
			<path class="st2" d="M16.3,21.6c-4,0-7.3-3.3-7.3-7.3S12.3,7,16.3,7s7.3,3.3,7.3,7.3S20.4,21.6,16.3,21.6z M16.3,8
				c-3.5,0-6.3,2.8-6.3,6.3s2.8,6.3,6.3,6.3s6.3-2.8,6.3-6.3C22.6,10.8,19.8,8,16.3,8z"/>
		</g>
	</g>
	<g>
		<path class="st3" d="M34.1,32.8l-2.3-2.3c-0.2-0.2-0.2-0.5,0-0.7s0.5-0.2,0.7,0l1.6,1.6l3.6-3.8c0.2-0.2,0.5-0.2,0.7,0
			s0.2,0.5,0,0.7L34.1,32.8z"/>
	</g>
	<g>
		<g>
			<circle class="st3" cx="31" cy="44.9" r="0.9"/>
		</g>
		<g>
			<circle class="st3" cx="34.2" cy="44.9" r="0.9"/>
		</g>
		<g>
			<circle class="st3" cx="37.3" cy="44.9" r="0.9"/>
		</g>
	</g>
	<polyline class="st4" points="12.7,47.2 2.7,47.2 2.7,2.8 47.4,2.8 47.4,47.2 	"/>
</g>
<g>
	<path class="st3" d="M15.1,18.2c-0.2,0-0.4-0.1-0.6-0.2c-0.4-0.2-0.7-0.7-0.7-1.2v-4.6c0-0.5,0.3-0.9,0.7-1.2
		c0.4-0.2,0.8-0.2,1.2,0l3.7,2.3c0.4,0.2,0.6,0.7,0.6,1.1s-0.2,0.9-0.6,1.1L15.8,18C15.6,18.1,15.3,18.2,15.1,18.2z M15.1,12
		c0,0-0.1,0-0.1,0c0,0-0.2,0.1-0.2,0.3v4.6c0,0.2,0.1,0.3,0.2,0.3c0.1,0,0.1,0,0.2,0l3.7-2.3c0.1-0.1,0.1-0.2,0.1-0.3s0-0.2-0.1-0.3
		v0L15.2,12C15.2,12,15.2,12,15.1,12z"/>
</g>
</svg>
