<?xml version="1.0" encoding="utf-8"?>
<!-- Generator: Adobe Illustrator 27.5.0, SVG Export Plug-In . SVG Version: 6.00 Build 0)  -->
<svg version="1.1" id="Camada_3" xmlns="http://www.w3.org/2000/svg" xmlns:xlink="http://www.w3.org/1999/xlink" x="0px" y="0px"
	 viewBox="0 0 50 50" style="enable-background:new 0 0 50 50;" xml:space="preserve">
<style type="text/css">
	.st0{fill:#C3FF68;}
	.st1{fill:#AFE55D;}
	.st2{fill:none;stroke:#444444;stroke-miterlimit:10;}
	.st3{fill:none;stroke:#444444;stroke-width:0.5;stroke-miterlimit:10;}
	.st4{fill:none;stroke:#444444;stroke-width:2.5;stroke-linecap:round;stroke-linejoin:round;stroke-miterlimit:10;}
</style>
<g>
	<g>
		<path class="st0" d="M34.34,8.41L15.87,8.59c-1.47,0.09,1.01,2.38-1.3,4.6c-2.43,2.34-12.4,5.72-12.24,7.29l1.75,6.58l32.34-13.18
			L34.34,8.41z"/>
		<path class="st1" d="M1.99,25.88l0.97-0.38c1.99,3.03,3.51,4.65,4.51,6.94c5.98,13.74,6.76,3.64,14.32,6.34l22.27-7.9l4.86-8.93
			c0.26-2.34-8.93-6.5-11.58-8.64L1.99,25.88z"/>
	</g>
	<g>
		<circle class="st2" cx="25.09" cy="20.96" r="4.28"/>
		<path class="st2" d="M25.09,25.35c-3.38,0-6.13,1.92-6.13,4.28v6.27c0,0.91,0.74,1.65,1.65,1.65h8.96c0.91,0,1.65-0.74,1.65-1.65
			v-6.27C31.21,27.27,28.47,25.35,25.09,25.35z"/>
	</g>
	<g>
		<path class="st2" d="M31.18,34.08h2.09c0.66,0,1.19-0.53,1.19-1.19V8.92H15.57v4.51"/>
		<path class="st2" d="M19.17,34.08h-2.24c-0.75,0-1.36-0.61-1.36-1.36V13.44L1.88,21.34l10.74,18.61l6.56-3.79"/>
		<path class="st2" d="M32.63,37.18l-1.27-0.8"/>
		<line class="st2" x1="34.6" y1="13.44" x2="48.29" y2="21.34"/>
	</g>
	<path class="st3" d="M20.25,27.01c-1.77-1.42-2.91-3.6-2.91-6.05c0-4.28,3.47-7.75,7.75-7.75s7.75,3.47,7.75,7.75
		c0,2.44-1.13,4.62-2.89,6.04"/>
	<path class="st3" d="M19.04,30.88c-3.31-2.06-5.52-5.73-5.52-9.92c0-6.45,5.23-11.68,11.68-11.68s11.68,5.23,11.68,11.68
		c0,4.27-2.29,8.01-5.72,10.04"/>
	<path class="st3" d="M40.06,16.39c0.42,1.41,0.64,2.9,0.64,4.45c0,6.55-4,12.16-9.7,14.53"/>
	<path class="st3" d="M18.74,35.28c-5.59-2.41-9.49-7.97-9.49-14.44c0-1.36,0.17-2.69,0.5-3.95"/>
	<path class="st3" d="M15.79,38.15C9.56,34.89,5.32,28.36,5.32,20.84c0-0.55,0.02-1.09,0.07-1.63"/>
	<path class="st3" d="M44.29,18.84c0.07,0.66,0.1,1.32,0.1,2c0,7.4-4.11,13.83-10.17,17.15"/>
	<path class="st4" d="M42.12,33.7l6.41-11.21c0.46-0.81,0.19-1.84-0.62-2.31L35.3,12.83l-0.03-2.84c-0.01-1.01-0.83-1.82-1.84-1.83
		L16.59,8.11c-1.03,0-1.87,0.84-1.85,1.87c0.02,1.32,0.05,2.87,0.05,3.02l-12.46,7.2c-0.81,0.47-1.09,1.5-0.62,2.31l9.71,16.98
		c0.46,0.81,1.49,1.09,2.3,0.64l4.93-2.76c0.09-0.05,0.28,1.04,0.67,1.04l11.19-0.09c0.69,0,1-0.93,1-0.93l2.55,1.36"/>
</g>
</svg>
