<?xml version="1.0" encoding="utf-8"?>
<!-- Generator: Adobe Illustrator 27.8.1, SVG Export Plug-In . SVG Version: 6.00 Build 0)  -->
<svg version="1.1" id="Camada_3" xmlns="http://www.w3.org/2000/svg" xmlns:xlink="http://www.w3.org/1999/xlink" x="0px" y="0px"
	 viewBox="0 0 50 50" style="enable-background:new 0 0 50 50;" xml:space="preserve">
<style type="text/css">
	.st0{fill:#FCC34F;}
	.st1{fill:none;stroke:#414141;stroke-width:2.5;stroke-linecap:round;stroke-linejoin:round;stroke-miterlimit:10;}
	.st2{fill:none;stroke:#414141;stroke-linecap:round;stroke-linejoin:round;stroke-miterlimit:10;}
	.st3{fill:none;stroke:#414141;stroke-width:0.5;stroke-linecap:round;stroke-linejoin:round;stroke-miterlimit:10;}
</style>
<g>
	<path class="st0" d="M45.44,4.58L4.56,4.57c-1.48,0-3.24,3.38-3.24,4.86l0.91,24.69c0.1,1.83,1.04,4.18,2.87,4.29l16.05,0.1
		c1.02,1.02,0.87,4.58-0.57,4.58l-5.82,0.09l-0.39,3.28l7.2-2.56l7.73-2.75l1.36-2.74l6.46-0.05l11.36-4.04L48.12,7.5V7.3V7.27
		C48.12,5.78,46.92,4.58,45.44,4.58z"/>
	<g>
		<g>
			<line class="st1" x1="37.68" y1="38.51" x2="29.72" y2="38.51"/>
			<path class="st1" d="M21.16,38.51H6.09c-2.34,0-4.24-1.9-4.24-4.24V8.8c0-2.34,1.9-4.24,4.24-4.24h38.36
				c2.34,0,4.24,1.9,4.24,4.24v25.51"/>
			<polyline class="st1" points="21.16,38.51 21.16,43.17 14.76,43.17 14.76,47.54 35.92,47.54 35.88,43.17 29.49,43.17 
				29.49,38.51 			"/>
		</g>
		<path class="st2" d="M21.43,28.79h-6.04c-1.23,0-2.23-1-2.23-2.23v-3.12c0-1.23,1-2.23,2.23-2.23h6.04c1.23,0,2.23,1,2.23,2.23
			v3.12C23.66,27.79,22.66,28.79,21.43,28.79z"/>
		<rect x="26.86" y="10.4" class="st2" width="10.5" height="7.59"/>
		<polyline class="st3" points="14.72,17.75 14.72,11.29 24.09,11.29 		"/>
		<polyline class="st3" points="12.27,15.46 14.72,17.97 17.16,15.46 		"/>
		<polyline class="st3" points="35.81,21.43 35.81,27.89 26.44,27.89 		"/>
		<polyline class="st3" points="38.26,23.72 35.81,21.21 33.36,23.72 		"/>
		<line class="st3" x1="1.85" y1="33.89" x2="39.75" y2="33.89"/>
		<line class="st2" x1="31.23" y1="14.19" x2="33" y2="14.19"/>
		<line class="st2" x1="17.53" y1="25.16" x2="19.29" y2="25.16"/>
	</g>
</g>
</svg>
