<?xml version="1.0" encoding="utf-8"?>
<!-- Generator: Adobe Illustrator 27.5.0, SVG Export Plug-In . SVG Version: 6.00 Build 0)  -->
<svg version="1.0" id="Camada_1" xmlns="http://www.w3.org/2000/svg" xmlns:xlink="http://www.w3.org/1999/xlink" x="0px" y="0px"
	 viewBox="0 0 50 50" style="enable-background:new 0 0 50 50;" xml:space="preserve">
<style type="text/css">
	.st0{fill:#DC5E82;}
	.st1{fill:#444444;}
	.st2{fill:none;stroke:#444444;stroke-width:2.5;stroke-linecap:round;stroke-linejoin:round;stroke-miterlimit:10;}
	.st3{fill:none;stroke:#444444;stroke-width:0.5;stroke-miterlimit:10;}
</style>
<path class="st0" d="M47.8,19.7c-0.2-0.8-2.7-7.5-3.2-8.1l-3-3.5l-0.2,0.1l-7.6-5.7L26,1.8c-3.2,0-12.8-0.7-21.3,11.5l-2.9,7.9
	l0.5,2l1.8,11.5c0.1,0.4,4.7,7,5.1,7.2l5.6,3L47,33.2C47.7,32.7,48.7,24.5,47.8,19.7z"/>
<g>
	<polygon class="st1" points="23.2,30.7 23.2,30.7 23.2,30.7 	"/>
	<polygon class="st1" points="19,26.5 19,26.5 19,26.5 	"/>
	<polygon class="st1" points="23.2,30.8 23.2,30.8 23.2,30.8 	"/>
	<polygon class="st1" points="23.1,19.7 23.1,19.7 23.1,19.7 	"/>
	<polygon class="st1" points="25.8,30.6 25.8,30.6 25.8,30.6 	"/>
	<path class="st1" d="M24.5,22.5c-1.4,0-2.6,1.2-2.6,2.6s1.2,2.6,2.6,2.6c1.4,0,2.6-1.2,2.6-2.6C27.1,23.7,25.9,22.5,24.5,22.5z
		 M24.5,26.9c-1,0-1.8-0.8-1.8-1.8s0.8-1.8,1.8-1.8s1.8,0.8,1.8,1.8C26.2,26.1,25.4,26.9,24.5,26.9z"/>
	<path class="st1" d="M38.4,24.5L33,19.2c-0.2-0.2-0.5-0.2-0.7,0s-0.2,0.5,0,0.7l4.6,4.6h-4.4v-0.6c0-0.5-0.4-0.8-0.9-0.8
		c0,0-0.1,0-0.1,0h0l0,0h-1c-0.1-0.3-0.2-0.6-0.3-0.8l0.7-0.7c0.2-0.2,0.3-0.4,0.3-0.7c0-0.2-0.1-0.4-0.2-0.6l-1.7-1.7
		c-0.2-0.1-0.4-0.2-0.6-0.2c-0.3,0-0.5,0.1-0.7,0.3l0,0l-0.7,0.7c-0.2-0.1-0.5-0.2-0.8-0.3l0,0l0-1c0,0,0,0,0-0.1
		c0-0.5-0.4-0.8-0.8-0.9h0h-2.4c-0.5,0-0.8,0.4-0.8,0.9c0,0,0,0.1,0,0.1v1c-0.3,0.1-0.6,0.2-0.8,0.3l0,0l-0.7-0.7
		c-0.2-0.2-0.4-0.3-0.7-0.3c-0.2,0-0.4,0.1-0.6,0.2l0,0l-1.7,1.7c-0.1,0.2-0.2,0.4-0.2,0.6c0,0.3,0.1,0.5,0.3,0.7l0,0l0.7,0.7
		c-0.1,0.2-0.2,0.5-0.3,0.8l0,0l-1,0c0,0,0,0-0.1,0c-0.5,0-0.8,0.4-0.9,0.8v0v2.4c0,0.5,0.4,0.8,0.9,0.8c0,0,0.1,0,0.1,0h1
		c0.1,0.3,0.2,0.6,0.3,0.8L18,28.7c-0.2,0.2-0.3,0.4-0.3,0.7c0,0.2,0.1,0.4,0.2,0.6l0,0l1.7,1.7c0.1,0.1,0.3,0.2,0.5,0.2
		c0,0,0,0,0,0c0.3,0,0.5-0.1,0.7-0.3l0,0l0.7-0.7c0.2,0.1,0.5,0.2,0.8,0.3l0,0l0,1c0,0,0,0,0,0.1c0,0.5,0.4,0.8,0.8,0.9h0h2.4
		c0.5,0,0.8-0.4,0.8-0.9c0,0,0-0.1,0-0.1v-1c0.3-0.1,0.6-0.2,0.8-0.3l0.7,0.7c0.2,0.2,0.4,0.3,0.7,0.3h0h0c0,0,0,0,0,0
		c0.2,0,0.4-0.1,0.5-0.2l1.7-1.7c0.1-0.1,0.2-0.3,0.2-0.5c0,0,0,0,0,0c0-0.3-0.1-0.5-0.3-0.7l0,0l-0.7-0.7c0.1-0.2,0.2-0.5,0.3-0.8
		l0,0l1,0c0,0,0,0,0.1,0c0.5,0,0.8-0.4,0.9-0.8v0v-0.9h4.3l-4.5,4.5c-0.2,0.2-0.2,0.5,0,0.7c0.1,0.1,0.2,0.1,0.4,0.1s0.3,0,0.4-0.1
		l5.4-5.4C38.6,25.1,38.6,24.7,38.4,24.5z M31.6,26.3C31.6,26.3,31.6,26.3,31.6,26.3L31.6,26.3L31.6,26.3l-1.3,0c0,0,0,0,0,0
		c-0.1,0-0.2,0.1-0.3,0.1c0,0-0.1,0.1-0.1,0.1l0,0c0,0,0,0,0,0c-0.1,0.5-0.3,0.9-0.5,1.2l0,0c0,0.1,0,0.1,0,0.2c0,0,0,0,0,0
		c0,0,0,0,0,0c0,0.1,0,0.2,0.1,0.3l0,0l0.9,0.9c0.1,0.1,0.1,0.1,0.1,0.1l-1.7,1.7c-0.1,0-0.1,0-0.1-0.1L27.7,30c0,0,0,0,0,0
		c-0.1-0.1-0.2-0.1-0.2-0.1h0c0,0,0,0,0,0h0c-0.1,0-0.1,0-0.2,0l0,0c-0.3,0.2-0.7,0.4-1.2,0.5l0,0c0,0,0,0,0,0c-0.1,0-0.1,0-0.1,0.1
		c0,0,0,0-0.1,0.1l0,0c0,0,0,0,0,0.1l0,0c0,0,0,0.1,0,0.1l0,0c0,0,0,0,0,0v1.3c0,0.1,0,0.1,0,0.1l-2.4,0c0,0,0-0.1,0-0.1
		c0,0,0,0,0,0v0l0-1.3c0,0,0,0,0,0c0,0,0-0.1,0-0.1c0,0,0-0.1,0-0.1c0,0-0.1-0.1-0.1-0.1c0,0,0,0-0.1,0l0,0c0,0-0.1,0-0.1,0l0,0
		c0,0,0,0,0,0c-0.5-0.1-0.9-0.3-1.2-0.5l0,0c-0.1,0-0.1,0-0.2,0c0,0,0,0,0,0c-0.1,0-0.2,0-0.3,0.1h0c0,0,0,0,0,0L20.3,31
		c-0.1,0.1-0.1,0.1-0.1,0.1l-1.7-1.7c0-0.1,0-0.1,0.1-0.1l0.9-0.9l0,0c0.1-0.1,0.1-0.2,0.1-0.3v0c0,0,0,0,0,0c0,0,0,0,0,0
		c0-0.1,0-0.1,0-0.2l0,0c-0.2-0.3-0.4-0.7-0.5-1.2l0,0c0,0,0,0,0,0c0-0.1,0-0.1-0.1-0.1c0,0-0.1-0.1-0.1-0.1l0,0c0,0-0.1,0-0.1,0
		l0,0c0,0,0,0-0.1,0h0c0,0,0,0,0,0h-1.3c-0.1,0-0.1,0-0.1,0l0-2.4c0,0,0.1,0,0.1,0c0,0,0,0,0,0h0l1.3,0c0.1,0,0.2,0,0.2-0.1l0,0
		c0,0,0,0,0,0l0,0c0.1,0,0.1-0.1,0.1-0.2l0,0c0,0,0,0,0,0c0.1-0.5,0.3-0.9,0.5-1.2l0,0c0-0.1,0-0.1,0-0.2c0,0,0,0,0,0c0,0,0,0,0,0
		c0-0.1,0-0.2-0.1-0.3l0,0L18.6,21c-0.1-0.1-0.1-0.1-0.1-0.1l1.7-1.7c0.1,0,0.1,0,0.1,0.1l0,0l0.9,0.9c0,0,0,0,0,0
		c0.1,0.1,0.2,0.1,0.3,0.1c0.1,0,0.1,0,0.2-0.1l0,0c0.3-0.2,0.7-0.4,1.2-0.5l0,0c0,0,0,0,0,0c0,0,0.1,0,0.1,0c0.1,0,0.2-0.1,0.2-0.2
		l0,0c0,0,0-0.1,0-0.1v0c0,0,0,0,0,0V18c0-0.1,0-0.1,0-0.1l2.4,0c0,0,0,0.1,0,0.1c0,0,0,0,0,0v0l0,1.3c0,0,0,0,0,0c0,0,0,0.1,0,0.1
		l0,0c0,0.1,0.1,0.2,0.3,0.3l0,0c0,0,0,0,0,0c0.5,0.1,0.9,0.3,1.2,0.5l0,0c0.1,0,0.1,0.1,0.2,0.1h0c0.1,0,0.2,0,0.3-0.1c0,0,0,0,0,0
		l0.9-0.9c0.1-0.1,0.1-0.1,0.1-0.1l1.7,1.7c0,0.1,0,0.1-0.1,0.1l-0.9,0.9l0,0c-0.1,0.1-0.1,0.2-0.1,0.3v0c0,0,0,0,0,0c0,0,0,0,0,0
		c0,0.1,0,0.1,0,0.2l0,0c0.2,0.3,0.4,0.7,0.5,1.2l0,0c0,0,0,0,0,0c0,0.1,0.1,0.1,0.1,0.2l0,0c0,0,0,0,0,0l0,0c0.1,0,0.1,0.1,0.2,0.1
		h0h1.3c0.1,0,0.1,0,0.1,0l0,2.4C31.7,26.3,31.6,26.3,31.6,26.3z"/>
</g>
<path class="st2" d="M27.8,47.9C15.2,49.5,3.7,40.5,2.1,27.8C0.5,15.2,9.5,3.7,22.2,2.1c12.6-1.6,24.1,7.4,25.7,20.1
	c0.6,5.1-0.5,10-2.8,14.1"/>
<g>
	<path class="st3" d="M32.5,41.2c-2.3,1.1-4.8,1.7-7.5,1.7c-9.5,0-17.3-7.7-17.3-17.3c0-2.4,0.5-4.6,1.3-6.6"/>
	<path class="st3" d="M18.5,9.6c2-0.8,4.3-1.3,6.6-1.3c9.5,0,17.3,7.7,17.3,17.3c0,2.1-0.4,4.1-1,5.9"/>
	<polyline class="st3" points="20.5,5.6 18.4,9.5 22.2,11.6 	"/>
	<polyline class="st3" points="31.4,45.3 32.7,41 28.6,39.7 	"/>
</g>
</svg>
