<svg xmlns="http://www.w3.org/2000/svg" id="Camada_1" x="0" y="0" version="1.0" viewBox="0 0 50 50" xml:space="preserve"><style>.st1{fill:#444}.st3{fill:none;stroke:#444;stroke-width:.5;stroke-miterlimit:10}</style><path fill="#dc5e82" d="M47.8 19.7c-.2-.8-2.7-7.5-3.2-8.1l-3-3.5-.2.1-7.6-5.7-7.8-.7c-3.2 0-12.8-.7-21.3 11.5l-2.9 7.9.5 2 1.8 11.5c.1.4 4.7 7 5.1 7.2l5.6 3L47 33.2c.7-.5 1.7-8.7.8-13.5z"/><path d="M23.2 30.7zM19 26.5zm4.2 4.3zm-.1-11.1zm2.7 10.9zm-1.3-8.1c-1.4 0-2.6 1.2-2.6 2.6s1.2 2.6 2.6 2.6c1.4 0 2.6-1.2 2.6-2.6 0-1.4-1.2-2.6-2.6-2.6zm0 4.4c-1 0-1.8-.8-1.8-1.8s.8-1.8 1.8-1.8 1.8.8 1.8 1.8c-.1 1-.9 1.8-1.8 1.8z" class="st1"/><path d="M38.4 24.5L33 19.2c-.2-.2-.5-.2-.7 0s-.2.5 0 .7l4.6 4.6h-4.4v-.6c0-.5-.4-.8-.9-.8h-1.1c-.1-.3-.2-.6-.3-.8l.7-.7c.2-.2.3-.4.3-.7 0-.2-.1-.4-.2-.6l-1.7-1.7c-.2-.1-.4-.2-.6-.2-.3 0-.5.1-.7.3l-.7.7c-.2-.1-.5-.2-.8-.3V18c0-.5-.4-.8-.8-.9h-2.4c-.5 0-.8.4-.8.9v1.1c-.3.1-.6.2-.8.3l-.7-.7c-.2-.2-.4-.3-.7-.3-.2 0-.4.1-.6.2L18 20.3c-.1.2-.2.4-.2.6 0 .3.1.5.3.7l.7.7c-.1.2-.2.5-.3.8h-1.1c-.5 0-.8.4-.9.8v2.4c0 .5.4.8.9.8h1.1c.1.3.2.6.3.8l-.8.8c-.2.2-.3.4-.3.7 0 .2.1.4.2.6l1.7 1.7c.1.1.3.2.5.2.3 0 .5-.1.7-.3l.7-.7c.2.1.5.2.8.3v1.1c0 .5.4.8.8.9h2.4c.5 0 .8-.4.8-.9v-1.1c.3-.1.6-.2.8-.3l.7.7c.2.2.4.3.7.3.2 0 .4-.1.5-.2l1.7-1.7c.1-.1.2-.3.2-.5 0-.3-.1-.5-.3-.7l-.7-.7c.1-.2.2-.5.3-.8h1.1c.5 0 .8-.4.9-.8v-.9h4.3L32 30.1c-.2.2-.2.5 0 .7.1.1.2.1.4.1s.3 0 .4-.1l5.4-5.4c.4-.3.4-.7.2-.9zm-6.8 1.8h-1.3c-.1 0-.2.1-.3.1l-.1.1c-.1.5-.3.9-.5 1.2v.2c0 .1 0 .2.1.3l.9.9.1.1-1.7 1.7c-.1 0-.1 0-.1-.1l-1-.8c-.1-.1-.2-.1-.2-.1h-.2c-.3.2-.7.4-1.2.5-.1 0-.1 0-.1.1l-.1.1v1.6h-2.4v-1.6l-.1-.1h-.2c-.5-.1-.9-.3-1.2-.5h-.2c-.1 0-.2 0-.3.1l-1.2.9-.1.1-1.7-1.7c0-.1 0-.1.1-.1l.9-.9c.1-.1.1-.2.1-.3v-.2c-.2-.3-.4-.7-.5-1.2 0-.1 0-.1-.1-.1l-.1-.1h-1.6v-2.4h1.4c.1 0 .2 0 .2-.1.1 0 .1-.1.1-.2.1-.5.3-.9.5-1.2v-.2c0-.1 0-.2-.1-.3l-.8-1.1-.1-.1 1.7-1.7c.1 0 .1 0 .1.1l.9.9c.1.1.2.1.3.1.1 0 .1 0 .2-.1.3-.2.7-.4 1.2-.5h.1c.1 0 .2-.1.2-.2v-1.6h2.4v1.5c0 .1.1.2.3.3.5.1.9.3 1.2.5.1 0 .1.1.2.1s.2 0 .3-.1l.9-.9.1-.1 1.7 1.7c0 .1 0 .1-.1.1l-.9.9c-.1.1-.1.2-.1.3v.2c.2.3.4.7.5 1.2 0 .1.1.1.1.2.1 0 .1.1.2.1h1.4v2.4h.2z" class="st1"/><path fill="none" stroke="#444" stroke-linecap="round" stroke-linejoin="round" stroke-miterlimit="10" stroke-width="2.5" d="M27.8 47.9C15.2 49.5 3.7 40.5 2.1 27.8.5 15.2 9.5 3.7 22.2 2.1 34.8.5 46.3 9.5 47.9 22.2c.6 5.1-.5 10-2.8 14.1"/><path d="M32.5 41.2c-2.3 1.1-4.8 1.7-7.5 1.7-9.5 0-17.3-7.7-17.3-17.3 0-2.4.5-4.6 1.3-6.6m9.5-9.4c2-.8 4.3-1.3 6.6-1.3 9.5 0 17.3 7.7 17.3 17.3 0 2.1-.4 4.1-1 5.9" class="st3"/><path d="M20.5 5.6l-2.1 3.9 3.8 2.1m9.2 33.7l1.3-4.3-4.1-1.3" class="st3"/></svg>