<?xml version="1.0" encoding="utf-8"?>
<!-- Generator: Adobe Illustrator 22.1.0, SVG Export Plug-In . SVG Version: 6.00 Build 0)  -->
<svg version="1.1" id="Layer_1" xmlns="http://www.w3.org/2000/svg" xmlns:xlink="http://www.w3.org/1999/xlink" x="0px" y="0px"
	 viewBox="0 0 50 50" style="enable-background:new 0 0 50 50;" xml:space="preserve">
<style type="text/css">
	.st0{fill:#F799FF;}
	.st1{fill:#E589EF;}
	.st2{fill:#031326;}
</style>
<g>
	<path class="st0" d="M36.4,7.5c-5.1-1-8.6-0.8-11.3,0.2c-2.7-1-6.2-1.2-11.3-0.2c-4,0.8-7,3.6-8,5.9c-0.3,0.6-0.7,2-0.9,4.2
		c-0.3,3.3,0.2,4,0.2,4.4c0,0.3-0.4,0.9-1,1.6L41.7,10C40.3,8.8,38.5,7.9,36.4,7.5z"/>
</g>
<g>
	<path class="st1" d="M45.9,29.7c-0.1-0.3-0.2-0.6-0.1-0.8c0.2-0.4,0.9-0.5,1.5-0.7c0.7-0.2,1.4-0.7,1-1.4c-0.2-0.3-0.8-1.3-1.5-2.2
		c-0.8-1.1-1.7-2.1-1.7-2.6c0-0.5,0.5-1.1,0.2-4.4c-0.2-2.2-0.7-3.5-0.9-4.2C44,12.3,43,11,41.7,10L4.1,23.6
		c-0.2,0.3-0.5,0.6-0.7,0.9c-0.7,0.9-1.4,1.8-1.5,2.2c-0.4,0.8,0.3,1.2,1,1.4c0.7,0.2,1.4,0.3,1.5,0.7c0.1,0.2,0,0.5-0.1,0.8
		C4.2,30,4,30.3,4,30.6c0,0.5,0.4,0.5,0.4,0.6c0,0.1-0.4,0.2-0.4,0.8c0.1,0.6,0.8,0.7,0.9,1.2C5,34,3.9,34.6,4.3,36
		c0.2,1,0.9,1.6,3.9,1.5c2.1,0,3.2,0.3,3.4,1.5v2v2l34.6-12.6C46.2,30.2,46,30,45.9,29.7z"/>
</g>
<path class="st2" d="M49.3,26.3c-0.3-0.6-1.4-2.1-1.6-2.4l-0.3-0.4c-0.4-0.5-1-1.3-1.2-1.6c0,0,0,0,0-0.1c0.1-0.6,0.4-1.7,0.2-4.4
	c-0.2-2.4-0.7-3.9-1-4.5c-1.1-2.5-4.3-5.7-8.9-6.6c-5.1-1-8.8-0.8-11.5,0.1c-2.7-0.9-6.4-1.1-11.5-0.1C9,7.3,5.7,10.4,4.6,13
	c-0.3,0.7-0.8,2.1-1,4.5c-0.3,2.7,0,3.8,0.2,4.4c0,0,0,0,0,0.1C3.6,22.3,3,23,2.6,23.5l-0.3,0.4c-0.2,0.3-1.3,1.7-1.6,2.4
	c-0.3,0.6-0.3,1.2-0.1,1.7c0.3,0.6,0.9,1.1,1.8,1.4l0.3,0.1c0.1,0,0.2,0,0.3,0.1c-0.1,0.3-0.3,0.7-0.3,1.2c0,0.2,0.1,0.4,0.1,0.6
	c-0.1,0.3-0.1,0.5-0.1,0.9c0.1,0.6,0.5,1,0.8,1.3c0,0,0,0.1-0.1,0.1c-0.3,0.5-0.8,1.4-0.5,2.8c0.5,2,2.4,2.5,5,2.4
	c1.9,0,2.2,0.3,2.2,0.5v3.9c0,0.6,0.5,1.1,1.1,1.1s1.1-0.5,1.1-1.1v-4.1l0-0.2c-0.5-2.5-3.2-2.4-4.5-2.4c-2.6,0-2.7-0.4-2.8-0.7
	c-0.1-0.4,0-0.7,0.3-1.1C5.8,34.3,6,33.8,6,33.1c0-0.6-0.4-1-0.7-1.2c0.1-0.2,0.2-0.4,0.2-0.6c0-0.2-0.1-0.6-0.4-0.8c0,0,0,0,0,0
	c0-0.1,0.1-0.2,0.1-0.2c0.1-0.3,0.4-0.9,0.1-1.6c-0.3-0.9-1.3-1.1-2-1.3l-0.3-0.1c-0.1,0-0.1,0-0.2-0.1c0.2-0.3,0.7-1,1.3-1.8
	l0.3-0.4c1.1-1.4,1.7-2.2,1.7-2.9c0-0.2-0.1-0.5-0.1-0.7c-0.1-0.5-0.3-1.3-0.1-3.7c0.2-2.2,0.7-3.4,0.8-3.8c0.9-2.1,3.7-4.5,7.2-5.2
	c3.2-0.6,5.7-0.8,7.8-0.5c-1.2,0.8-2.2,1.8-3,2.8c-0.5,0.5-0.9,1.1-1.2,1.8c-0.3,0.6-0.1,1.2,0.5,1.5c0.6,0.3,1.2,0.1,1.5-0.5
	c0.3-0.5,0.6-1,0.9-1.4c1.3-1.5,2.7-2.7,4.6-3.5c1.9,0.8,3.3,2,4.6,3.5c0.4,0.5,0.7,1,1,1.7c0.3,0.6,0.9,0.8,1.5,0.6
	c0.6-0.3,0.8-0.9,0.6-1.5c-0.4-0.8-0.8-1.6-1.4-2.2c-0.9-1-1.9-2-3-2.8c2.1-0.2,4.6-0.1,7.8,0.5c3.5,0.7,6.3,3.2,7.2,5.2
	c0.2,0.4,0.6,1.7,0.8,3.8c0.2,2.3,0,3.2-0.1,3.7c-0.1,0.2-0.1,0.4-0.1,0.7c0,0.8,0.6,1.5,1.7,2.9l0.3,0.4c0.6,0.8,1.1,1.4,1.3,1.8
	c-0.1,0-0.1,0-0.2,0.1l-0.3,0.1c-0.7,0.2-1.6,0.4-2,1.3c-0.2,0.6-0.1,1.2,0.1,1.6c0,0.1,0.1,0.2,0.1,0.2c0,0,0,0,0,0
	c-0.3,0.3-0.3,0.6-0.3,0.8c0,0.3,0.1,0.5,0.2,0.6c-0.3,0.2-0.6,0.6-0.7,1.2c-0.1,0.7,0.2,1.2,0.4,1.6c0.3,0.5,0.4,0.7,0.3,1.1
	c-0.1,0.3-0.2,0.7-2.8,0.7c-1.3,0-4.1-0.1-4.5,2.4l0,4.3c0,0.6,0.5,1.1,1.1,1.1c0.6,0,1.1-0.5,1.1-1.1v-3.9c0.1-0.2,0.3-0.5,2.2-0.5
	c2.7,0.1,4.5-0.4,5-2.4c0.3-1.3-0.2-2.2-0.5-2.8c0,0,0-0.1-0.1-0.1c0.3-0.2,0.7-0.6,0.8-1.3c0-0.3,0-0.6-0.1-0.9
	c0.1-0.2,0.1-0.4,0.1-0.6c0-0.5-0.1-0.9-0.3-1.2c0.1,0,0.2,0,0.3-0.1l0.3-0.1c0.9-0.2,1.5-0.7,1.8-1.4
	C49.6,27.4,49.6,26.8,49.3,26.3z"/>
<g>
	<path class="st2" d="M32.4,19.5c-2.4-1.2-5.8-0.6-7.8,3.2c-3.2-6.3-10.5-3.9-10.5,1c0,4.8,10.4,12.8,10.5,12.9c0,0,0,0,0,0
		s10.5-8.1,10.5-12.9C35.2,21.8,34,20.2,32.4,19.5z M28.6,28.7c0.1,0.2,0.1,0.3,0.1,0.5c0,0.6-0.5,1.1-1.1,1.1
		c-0.2,0-0.4-0.1-0.5-0.1c-0.2,0.2-0.4,0.3-0.7,0.3c-0.1,0-0.2,0-0.3-0.1c0,0,1.1,1.3,0.4,2.4c-0.4-0.9-1.8-1.9-2.3-2.8
		c0.2-0.1,0.4-0.3,0.6-0.5c0.6-0.6,1.2-1.3,3.2-0.6l0.2-0.6c-2.4-0.8-3.2,0.1-3.9,0.7c-0.1,0.1-0.3,0.3-0.4,0.3
		c-0.2,0.1-0.4,0.2-0.6,0.2c-0.3,0-0.6-0.1-0.8-0.4c-0.2,0.1-0.3,0.1-0.5,0.1c-0.6,0-1.1-0.4-1.3-1l0,0c-0.1-0.5,0-0.8,0.4-1.1
		c0.5-0.4,1.3-0.4,2.1-0.1l0.3-0.6c-1-0.4-2-0.4-2.7,0.1c-0.3,0.2-0.5,0.5-0.6,0.9c-0.1-0.2-0.2-0.5-0.2-0.8c0-1,0.8-1.8,1.8-1.8
		c0.1,0,0.1,0,0.2,0c0.2-0.7,0.9-1.1,1.6-1.1c0.3,0,0.5,0.1,0.7,0.2c0.3-0.3,0.7-0.5,1.1-0.5c0.3,0,0.7,0.1,0.9,0.3
		c-0.3,0.2-0.5,0.4-0.7,0.7c0,0,0,0,0,0.1l0,0c-0.2,0.3-0.5,0.6-0.8,0.6c-0.2,0-0.4,0-0.6-0.1l-0.4,0.5c0.2,0.2,0.5,0.3,0.8,0.3
		c0.1,0,0.2,0,0.3,0c0.2,0,0.4-0.1,0.6-0.2c0,0.3,0.1,0.6,0.2,0.8l0.6-0.2c-0.1-0.2-0.3-0.9-0.1-1.3c0.1-0.2,0.3-0.4,0.5-0.5
		c0.1,0,0.2,0,0.3,0c0.8,0,1.5,0.7,1.5,1.5c0,0,0,0,0,0c0.6,0.2,1,0.8,1,1.5C29.4,27.9,29,28.4,28.6,28.7z"/>
</g>
</svg>
