<?xml version="1.0" encoding="UTF-8"?>
<svg id="Camada_3" xmlns="http://www.w3.org/2000/svg" version="1.1" viewBox="0 0 50 50">
  <!-- Generator: Adobe Illustrator 29.2.1, SVG Export Plug-In . SVG Version: 2.1.0 Build 116)  -->
  <defs>
    <style>
      .st0 {
        stroke-miterlimit: 10;
        stroke-width: .5px;
      }

      .st0, .st1 {
        fill: none;
        stroke: #444;
      }

      .st1 {
        stroke-linecap: round;
        stroke-linejoin: round;
        stroke-width: 2.5px;
      }

      .st2 {
        fill: #7df4eb;
      }

      .st3 {
        fill: #444;
      }

      .st4 {
        fill: #35d3c3;
      }
    </style>
  </defs>
  <polygon class="st4" points="25.2 19.1 33.1 21.6 26.4 26.3 26.5 34.5 19.9 29.6 12.1 32.3 14.8 24.5 9.8 17.9 18.1 18 22.8 11.3 25.2 19.1"/>
  <g>
    <path class="st2" d="M43.9,12.4l-5.6-3.6-7.7-4.4-6-2.8C21.4,1.5,3.2,10.4,3.2,13.6l-.5,7.8.5,15.1,11.5,7.6,31-11c.7-.4-.8-18.7-1.8-20.7Z"/>
    <path class="st1" d="M29.2,46.4l-2.2,1.3c-1.7,1-3.8,1-5.5,0l-15.6-9c-1.7-1-2.7-2.8-2.7-4.7V16c0-2,1-3.8,2.7-4.7L21.5,2.2c1.7-1,3.8-1,5.5,0l15.6,9c1.7,1,2.7,2.8,2.7,4.7v18c0,2-1,3.8-2.7,4.7l-2.5,1.4"/>
    <g>
      <g>
        <path class="st0" d="M40.4,25.6h0c-.7,0-1.3.6-1.3,1.3,0,.7.6,1.3,1.3,1.3h0c.7,0,1.3-.6,1.3-1.3,0-.3-.1-.7-.4-.9-.2-.2-.6-.4-.9-.4Z"/>
        <path class="st0" d="M38.5,19.3c-.7,0-1.3.6-1.3,1.3,0,.7.6,1.3,1.3,1.3h0c.7,0,1.3-.6,1.3-1.3,0-.7-.6-1.3-1.3-1.3h0Z"/>
        <path class="st3" d="M38.9,27.3h-5.5c-.3,0-.5-.2-.5-.5,0-.3.2-.5.5-.5h5.5c.3,0,.5.2.5.5,0,.3-.2.5-.5.5Z"/>
        <path class="st3" d="M33.8,25c-.3,0-.5-.2-.5-.5,0-.3.2-.5.5-.5h1.7s1.7-2.3,1.7-2.3c.2-.2.5-.3.7-.1.2.2.3.5.1.7l-1.8,2.5c0,.1-.2.2-.4.2h-1.9s0,0,0,0Z"/>
        <path class="st0" d="M38.5,31.7h0c-.4,0-.7.1-1,.4-.3.3-.4.6-.4,1s.1.7.4,1c.3.3.6.4,1,.4h0c.4,0,.7-.1,1-.4.3-.3.4-.6.4-1s-.1-.7-.4-1c-.3-.3-.6-.4-1-.4Z"/>
        <path class="st3" d="M37.6,32.2c-.1,0-.3,0-.4-.2l-1.6-2.3h-1.7s0,0,0,0c-.3,0-.5-.2-.5-.5,0-.3.2-.5.5-.5h1.9s0,0,0,0c.2,0,.3,0,.4.2l1.8,2.5c.2.2.1.5-.1.7,0,0-.2,0-.3,0Z"/>
      </g>
      <g>
        <path class="st3" d="M19.2,19.5c-2,0-3.4-1.5-3.4-3.8s1.3-3.8,3.4-3.8,3.4,1.5,3.4,3.8-1.3,3.8-3.4,3.8ZM19.2,12.8c-1.8,0-2.4,1.5-2.4,2.9s.6,2.9,2.4,2.9,2.4-1.5,2.4-2.9-.6-2.9-2.4-2.9Z"/>
        <path class="st3" d="M14.5,30.5s0,0,0,0c-.3,0-.4-.3-.4-.5l.5-3.1c0-.3.3-.4.5-.4.3,0,.4.3.4.5l-.5,3.1c0,.2-.2.4-.5.4Z"/>
        <path class="st3" d="M11.3,35.8c-.5,0-1-.2-1.4-.5-.7-.5-1-1.4-.8-2.2l1.8-9c.3-1.7,1.8-2.9,3.6-2.9h7.7c.3,0,.5.3.5.6,0,.3-.2.5-.5.5h-7.7c-1.3-.1-2.4.8-2.6,2.1l-1.8,9c0,.5,0,1,.5,1.3.4.3.9.4,1.4.2l7.6-3.2c.3-.1.5-.4.4-.7,0-.7.3-1.3,1-1.4l1.4-.4c0,0,.2,0,.2-.2s0-.2,0-.3l-.7-2.3c0-.1-.2-.2-.3-.1l-2,.5c-.2,0-.4.2-.5.5l-.5,1.4c-.2.6-.7,1-1.3,1.2l-3.3,1.1c-.3,0-.5,0-.6-.3,0-.3,0-.5.3-.6l3.4-1.1c.3,0,.6-.3.7-.6l.5-1.4c.2-.5.6-.9,1.2-1l2-.5c.6-.2,1.3.2,1.4.8l.7,2.3c0,.3,0,.7-.1,1-.2.3-.5.5-.8.6l-1.4.4c-.2,0-.3.2-.3.4,0,.7-.3,1.5-1,1.7l-7.6,3.2c-.3.1-.6.2-.9.2Z"/>
        <path class="st3" d="M30.5,29.7s0,0,0,0h-1.2c-.2-.1-.5-.2-.6-.4-.2-.2-.2-.4-.2-.7l.6-3.9c0-.5.5-.8.9-.7h1.1c.3.1.6.3.8.5.2.2.3.6.2.9l-.5,3.4c0,.6-.6,1-1.1,1ZM29.4,28.7h1.1c0,0,.2,0,.2,0l.5-3.4c0,0,0-.1,0-.1,0,0,0,0-.1,0h-1.1c0,0-.5,3.6-.5,3.6Z"/>
        <path class="st3" d="M28,34.1h-6.7c-.5,0-.9-.2-1.2-.6-.3-.4-.4-.8-.3-1.3l.5-2.3c0-.3.3-.4.6-.4.3,0,.4.3.4.6l-.5,2.3c0,.2,0,.3.1.5.1.1.3.2.5.2h6.7c.3,0,.5-.2.6-.5l.7-3.5c0-.3.3-.4.6-.4.3,0,.4.3.4.6l-.7,3.5c-.1.7-.8,1.3-1.5,1.3Z"/>
        <path class="st3" d="M21.7,25.8s0,0,0,0c-.3,0-.4-.3-.4-.6l.7-3.3c.1-.7.8-1.3,1.5-1.3h6.7c.5,0,.9.2,1.2.6s.4.8.3,1.3l-.4,2.2c0,.3-.3.4-.6.4-.3,0-.4-.3-.4-.6l.4-2.2c0-.2,0-.3-.1-.5-.1-.1-.3-.2-.5-.2h-6.7c-.3,0-.5.2-.6.5l-.7,3.3c0,.2-.2.4-.5.4Z"/>
        <path class="st3" d="M28.6,36c-1.4,0-3.3-.7-4.1-2.2-.1-.2,0-.5.2-.6.2-.1.5,0,.6.2.8,1.4,3,1.9,3.9,1.6.5-.2.9-.6,1-1.1.6-1.6-.6-4-.7-4-.1-.2,0-.5.2-.6.2-.1.5,0,.6.2,0,.1,1.4,2.8.7,4.8-.3.8-.8,1.3-1.6,1.7-.3.1-.7.2-1,.2Z"/>
        <path class="st3" d="M22.5,48.6s0,0,0,0c-.3,0-.4-.3-.4-.6l2.4-14c0-.3.3-.4.6-.4.3,0,.4.3.4.6l-2.4,14c0,.2-.2.4-.5.4Z"/>
        <path class="st3" d="M10.6,41.1s0,0,0,0c-.3,0-.4-.3-.4-.6l.8-5.2c0-.3.3-.4.6-.4.3,0,.4.3.4.6l-.8,5.2c0,.2-.2.4-.5.4Z"/>
      </g>
    </g>
  </g>
</svg>