<svg xmlns="http://www.w3.org/2000/svg" version="1" viewBox="0 0 50 50"><path fill="#DC5E82" d="M6.205 44.124l39.247-14.285V9.592a5.045 5.045 0 0 0-5.045-5.045H9.592a5.045 5.045 0 0 0-5.045 5.045v30.816a5.021 5.021 0 0 0 1.658 3.716z"/><path fill="#F56991" d="M43.793 5.874a5.011 5.011 0 0 0-3.385-1.327H9.592a5.045 5.045 0 0 0-5.045 5.045v10.566L43.793 5.874z"/><path fill="#444" d="M25.001 46.5H9.592A6.1 6.1 0 0 1 3.5 40.408V9.592A6.098 6.098 0 0 1 9.592 3.5h30.817a6.1 6.1 0 0 1 6.092 6.092v20.245a1.048 1.048 0 1 1-2.096 0V9.592a4.001 4.001 0 0 0-3.997-3.997H9.592a4.001 4.001 0 0 0-3.997 3.997v30.816a4.001 4.001 0 0 0 3.997 3.997h15.409a1.048 1.048 0 1 1 0 2.095z"/><path fill="#444" d="M15.833 33.518V16.234c0-.231.187-.418.418-.418h3.007c.231 0 .418.187.418.418v17.284a.418.418 0 0 1-.418.418h-3.007a.418.418 0 0 1-.418-.418zm10.613.666c-1.628 0-2.906-.632-3.836-1.896-.93-1.264-1.394-3.016-1.394-5.255 0-2.272.473-4.042 1.419-5.311.946-1.268 2.249-1.902 3.91-1.902 1.743 0 3.074.678 3.991 2.033v-4.411c0-.231.187-.418.418-.418h2.796c.231 0 .418.187.418.418v16.077a.418.418 0 0 1-.418.418h-2.201a.418.418 0 0 1-.387-.26l-.625-1.537h-.161c-.861 1.362-2.17 2.044-3.93 2.044zm1.326-3.012c.967 0 1.675-.281 2.125-.843s.696-1.516.737-2.863v-.409c0-1.487-.229-2.553-.688-3.198-.459-.644-1.204-.967-2.237-.967-.843 0-1.498.357-1.964 1.072-.467.715-.7 1.754-.7 3.117s.235 2.386.706 3.067 1.145 1.024 2.021 1.024z"/></svg>