<svg xmlns="http://www.w3.org/2000/svg" id="Layer_1" x="0" y="0" version="1.1" viewBox="0 0 50 50" xml:space="preserve"><style>.st2{fill:#031326}.st3{fill:none}</style><path fill="#afe55d" d="M36.8 19.3l3.8 7.5-3.2.9-9.4 2.5-3 .8-16 4.3-.6.2-3.2.8-3.7-3.7 3-3 7.3 2.4 9.1-9.1-1.9-1.5-10.1-8.2c-.7.7-1.8.7-2.4 0-.7-.7-.7-1.8 0-2.4l7.3-7.3c.7-.7 1.8-.7 2.4 0 .3.3.5.8.5 1.2 0 .4-.2.9-.5 1.2l14.5 7.3 3.6-3.6c1.3-1.3 5.2-3.5 7.6-3.5.6 0 1.1.2 1.5.5 1.7 1.7-1.4 7.4-3 9.1l-3.6 3.6z"/><path fill="#c3ff68" d="M43.4 6.6c1.7 1.7-1.4 7.4-3 9.1l-.1.1-5.1 1.4-4.1 1.1-7.4 2-4.6 1.2-10.2-8.3c-.7.7-1.8.7-2.4 0-.7-.7-.7-1.8 0-2.4l7.3-7.3c.7-.7 1.8-.7 2.4 0 .3.3.5.8.5 1.2 0 .4-.2.9-.5 1.2l14.5 7.3 3.6-3.6c1.3-1.3 5.2-3.5 7.6-3.5.7 0 1.2.1 1.5.5z"/><path d="M43.4 7.3c-.2 0-.4-.1-.5-.2-.3-.3-.3-.8 0-1.1l2.4-2.4c.3-.3.8-.3 1.1 0s.3.8 0 1.1L44 7.1c-.2.1-.4.2-.6.2zm-27.2-3c-.2 0-.4-.1-.5-.2-.3-.3-.3-.8 0-1.1L18.1.6c.3-.3.8-.3 1.1 0s.3.8 0 1.1l-2.4 2.4c-.3.1-.4.2-.6.2z" class="st2"/><path d="M9.6 32.6L5 31l-1.6 1.6 2.8 2.8.3.3L8 34.2zm5.5-23.8l12.2 6.1 1.3-1.3-12.2-6.1zM36 16.1c2-2 2.9-4 2.4-4.5s-2.5.4-4.5 2.4-2.9 4-2.4 4.5 2.5-.4 4.5-2.4zm-9.1-.8L14.7 9.2l-3.9 3.9 10.1 8.2zM8 12.4l7.3-7.3c.1-.1.1-.2.1-.3 0-.1-.1-.2-.1-.3-.1-.1-.2-.1-.3-.1-.1 0-.2 0-.3.1l-7.3 7.3c-.2.2-.2.5 0 .7.1 0 .4 0 .6-.1zm37.2 22.2c-.1 0-.2 0-.3.1L37.7 42c-.1.1-.1.2-.1.3 0 .1 0 .2.1.3.2.2.5.2.7 0l7.3-7.3c.2-.2.2-.5 0-.7h-.5zm-8.8-13.2l-1.3 1.3 6.1 12.2 1.3-1.3zM14.3 43.5l3.1 3.1L19 45l-1.6-4.6z" class="st3"/><path d="M39.5 14.8c.7-.7 1.8-2.3 2.5-4.1.8-2 .7-3 .5-3.2 0 0-.2-.1-.6-.1-1.9 0-5.5 1.9-6.7 3.2l-3.6 3.6-.1.1-17 17-1.7 1.7-2.1 2.1 4.3 4.3 24.5-24.6zm-5.9-1.1c1.8-1.8 4.3-3.3 5.2-2.4.9.9-.6 3.4-2.4 5.2-1.5 1.5-3.3 2.7-4.5 2.7-.3 0-.6-.1-.7-.3-1-.9.5-3.4 2.4-5.2z" class="st3"/><path d="M31.9 19.1c1.2 0 3-1.2 4.5-2.7 1.8-1.8 3.3-4.3 2.4-5.2-.9-.9-3.4.6-5.2 2.4-1.8 1.8-3.3 4.3-2.4 5.2.1.3.4.3.7.3zm2-5.1c2-2 4-2.9 4.5-2.4s-.4 2.5-2.4 4.5-4 2.9-4.5 2.4.4-2.5 2.4-4.5z" class="st2"/><path d="M49.4 30.9c-.3-.3-.8-.3-1.1 0l-1.6 1.6c-.7-.4-1.4-.5-2.1-.3l-6.3-12.6 3-3c1-1 2.3-3 3-5 1.1-2.8 1.1-4.8 0-5.9-.6-.6-1.3-.9-2.3-.9-2.8 0-6.9 2.3-8.5 3.9l-3 3-12.7-6.3c0-.2.1-.4.1-.6 0-.8-.3-1.5-.9-2.1-1.2-1.2-3-1.2-4.2 0L5.6 9.9c-1.2 1.2-1.2 3 0 4.2.6.6 1.3.9 2.1.9.4 0 .8-.1 1.1-.2L19.1 23l-7.6 7.6L7 29.1l1.6-1.6c.4-.5.4-1.3 0-1.8s-1.3-.5-1.8 0l-3 3-3 3c-.2.2-.4.6-.4.9s.1.7.4.9l3.7 3.7 1.2 1.2c.2.2.6.4.9.4s.6-.1.9-.4L9 36.9l4.3 4.3-1.5 1.5c-.5.5-.5 1.3 0 1.8l4.8 4.8c.2.2.6.4.9.4s.6-.1.9-.4l3-3 3-3c.5-.5.5-1.3 0-1.8s-1.3-.5-1.8 0L21 43l-1.5-4.6 9.1-9.1 6.2-6.2 6.1 12.2-5 5c-.6.6-.9 1.3-.9 2.1s.3 1.5.9 2.1c.6.6 1.3.9 2.1.9s1.5-.3 2.1-.9l7.3-7.3c1-1 1.1-2.5.5-3.6l1.6-1.6c.2-.3.2-.8-.1-1.1zM14.7 9.2l12.2 6.1-6 6-10.2-8.1 4-4zm12.6 5.7L15.1 8.8l1.3-1.3 12.2 6.1-1.3 1.3zM7.4 11.7l7.3-7.3c.1-.1.2-.1.3-.1.1 0 .2 0 .3.1.1.1.1.2.1.3 0 .1 0 .2-.1.3L8 12.4c-.2.2-.5.2-.7 0-.1-.2-.1-.5.1-.7zm-.9 24l-.3-.3-2.8-2.8L5 31l4.6 1.5L8 34.2l-1.5 1.5zm6.3-2.8l1.7-1.7 17-17 .1-.1 3.6-3.6C36.4 9.3 40 7.3 42 7.3c.4 0 .5.1.6.1.2.2.3 1.2-.5 3.2-.7 1.8-1.8 3.5-2.5 4.1L14.9 39.3 10.6 35l2.2-2.1zm4.6 13.7l-3.1-3.1 3.1-3.1L19 45l-1.6 1.6zm17.7-23.9l1.3-1.3 6.1 12.2-1.3 1.3-6.1-12.2zm10.5 12.7l-7.3 7.3c-.2.2-.5.2-.7 0-.1-.1-.1-.3-.1-.3 0-.1 0-.2.1-.3l7.3-7.3c.1-.1.2-.1.3-.1.1 0 .2 0 .3.1.3.1.3.4.1.6z" class="st2"/></svg>