<svg xmlns="http://www.w3.org/2000/svg" version="1" viewBox="0 0 50 50"><path fill="#71BAC0" d="M12.394 43.158l33.938-12.352c.503-1.851.776-3.796.776-5.806C47.108 12.79 37.21 2.892 25 2.892S2.892 12.79 2.892 25c0 7.524 3.761 14.165 9.502 18.158z"/><path fill="#7ED0D6" d="M37.116 6.457a22.003 22.003 0 00-12.032-3.565c-9.959 0-18.378 6.586-21.144 15.64L37.116 6.457z"/><path fill="#031326" d="M25 48.358C12.121 48.358 1.642 37.88 1.642 25 1.642 12.121 12.121 1.642 25 1.642c12.88 0 23.358 10.479 23.358 23.358 0 2.079-.273 4.143-.814 6.133a1.25 1.25 0 11-2.412-.654c.482-1.777.727-3.621.727-5.479 0-11.501-9.357-20.858-20.858-20.858S4.142 13.499 4.142 25 13.499 45.858 25 45.858a1.25 1.25 0 010 2.5z"/><path fill="#031326" d="M25 42.352c-9.568 0-17.352-7.784-17.352-17.352 0-9.568 7.784-17.352 17.352-17.352 9.567 0 17.352 7.784 17.352 17.352 0 9.567-7.785 17.352-17.352 17.352zm0-34.454C15.57 7.898 7.898 15.57 7.898 25S15.57 42.102 25 42.102 42.102 34.43 42.102 25 34.43 7.898 25 7.898z"/><path fill="#031326" d="M25.47 32.231c1.375 0 2.271-.003 3.448-.003 3.687 0 4.974-14.318 4.974-14.318.01-.071-.016-.141-.053-.141h-1.69c-3.06 0-4.234 9.326-4.445 11.264-.004.033-.051.031-.053-.002-.103-1.941-.721-11.262-3.122-11.262-1.375 0-2.271.003-3.448.003-3.687 0-4.974 14.318-4.974 14.318-.01.071.016.141.053.141h1.69c3.414 0 4.481-11.614 4.481-11.614.031-.061.085-.031.094.055-.001.001.509 11.559 3.045 11.559z"/></svg>