<?xml version="1.0" encoding="UTF-8"?>
<svg xmlns="http://www.w3.org/2000/svg" version="1.1" viewBox="0 0 300 300">
  <!-- Generator: Adobe Illustrator 29.3.0, SVG Export Plug-In . SVG Version: 2.1.0 Build 146)  -->
  <defs>
    <style>
      .st0, .st1 {
        mix-blend-mode: screen;
        opacity: .2;
      }

      .st2 {
        fill: #ffde00;
      }

      .st3 {
        fill: #ff563a;
        stroke: #ff563a;
        stroke-miterlimit: 10;
        stroke-width: 3px;
      }

      .st4 {
        fill: #92ac00;
      }

      .st5 {
        opacity: .5;
      }

      .st6 {
        fill: #f2f2f2;
      }

      .st7 {
        fill: #008dd3;
      }

      .st1 {
        fill: none;
        stroke: #f2f2f2;
        stroke-linecap: round;
        stroke-linejoin: round;
        stroke-width: 2px;
      }

      .st8 {
        isolation: isolate;
      }

      .st9 {
        fill: #515759;
        mix-blend-mode: multiply;
        opacity: .8;
      }

      .st10 {
        fill: #5f5c5b;
      }
    </style>
  </defs>
  <g class="st8">
    <g id="Camada_1">
      <g id="Camada_10">
        <path class="st7" d="M274.2,149.5c-3.2,171.6-250.6,185.1-271.7,13.4C-5,90.5,48.8,24.8,118.6,15.3c73.7-11.9,146.6,44,154.5,117.7h0c.7,5.4,1.1,10.9,1.1,16.5Z"/>
      </g>
      <g>
        <path class="st3" d="M172.6,30.7l9.7,9.7c0,0,.1.2.2.3,0,.1,0,.2,0,.4,0,.1-.1.3-.3.5-.1.2-.3.4-.5.6-.2.2-.4.4-.6.5-.2.1-.3.2-.5.3-.1,0-.3,0-.4,0-.1,0-.2,0-.3-.2l-9.7-9.7-22-7.3c-.3-.1-.5-.2-.6-.3-.1-.1-.2-.2-.2-.4,0-.1,0-.3.2-.5.1-.2.3-.4.6-.7.3-.3.5-.5.7-.7.2-.2.4-.3.5-.3.1,0,.3-.1.4,0,.1,0,.3,0,.4,0l11.9,4c1.1.4,2.3.8,3.4,1.2,1.2.4,2.3.9,3.5,1.3h0c-.4-1.2-.9-2.3-1.3-3.4-.4-1.1-.9-2.3-1.3-3.4l-4.1-12c0-.1,0-.3,0-.4,0-.1,0-.2,0-.4,0-.1.1-.3.3-.5.1-.2.3-.4.5-.6.3-.3.6-.6.8-.7.2-.2.4-.3.6-.3.2,0,.3,0,.4.2.1.1.2.3.3.6l7.3,22Z"/>
        <path class="st2" d="M293.7,139.8c0,0,0-.1,0-.2-1.5-8.4-5.4-16.3-11.1-23.3,0,0,0,0,0,0,0,0,0,0,0,0-.2-.2-.5-.6-.9-1.1,0,0,0,0,0,0,0,0-.1-.2-.2-.2,0,0-.1-.1-.2-.2,0,0,0,0-.1-.1,0,0-.2-.2-.3-.3-.2-.2-.4-.3-.5-.5,0,0-6.6-7.4-10.8-11.7-.6-.6-1.2-1.2-1.8-1.8-.5-.5-1-1-1.5-1.5-14.1-14-18.8-18.7-20.6-20.4.1-.8.2-1.6.3-2.5,0-.2,0-.5,0-.7,0-.6,0-1.2.1-1.8,0-.3,0-.5,0-.8,0-.6,0-1.2,0-1.7,0-.2,0-.5,0-.7,0-.5,0-1.1,0-1.6h0c-.9-10.4-5.6-20.9-14-29.3-6.2-6.2-44.1-19-59.6-3.5-15.5,15.5-2.8,53.3,3.5,59.6,8.4,8.4,18.9,13.1,29.3,14h0c.3,0,.6,0,1,0,.4,0,.7,0,1.1,0,.5,0,1,0,1.5,0,.3,0,.6,0,1,0,.6,0,1.1,0,1.7,0,.2,0,.5,0,.7,0,.8,0,1.6-.1,2.4-.3,14.8,14.9,26.9,27.3,27,27.6,3.2,5.5,2.5,12.6-2.2,17.3-5.6,5.6-14.7,5.6-20.2,0-.3-.3-14.1-13.8-29.5-28.9h0c-20-19.6-42.8-41.9-42.9-42-1.2-1.2-2.6-2.1-4.1-2.9-14.3-10.4-31.7-13.2-49.9-4.8-.6.3-1.2.6-1.8.9-7.6,3.9-15.4,9.7-23.1,17.8-4.9,5.2-8.3,10.6-10.2,16.1,0,.1,0,.3-.1.4-10.4,30.5,16,57.2,29.1,70.9.3.3.6.7.9,1,6.9,7.2,14.5,15.2,21.8,22.8h0s11.6,12.1,11.6,12.1l20.6,21.5c2.9,3.7,4.8,7.1,5.9,10.2,3,7.8.1,16.6-6.7,21.5h0c-5.6,4-12.9,5.6-19.2,2.6-.3-.2-.7-.4-1.1-.6,0,0-.2-.1-.3-.2-.3-.2-.6-.3-.9-.5-.1,0-.2-.1-.3-.2-.3-.2-.6-.4-1-.6,0,0-.1,0-.2-.1-.4-.3-.7-.5-1.1-.8-.1,0-.2-.2-.3-.2-.3-.2-.5-.4-.8-.6-.1-.1-.3-.2-.4-.3-.2-.2-.4-.4-.7-.6-.1-.1-.2-.2-.3-.3-.2-.2-.4-.4-.5-.6-.1-.1-.3-.3-.4-.4-.3-.3-.6-.7-.8-1,0,0,0,0,0-.1-1.2-1.7-3.7-.4-3,1.6,6.4,17.2,22.9,29.4,42.3,29.4s15.1-2,21.4-5.4c3.1-1.8,6.1-3.9,8.9-6.3.6-.5,1.1-1.1,1.7-1.6.2-.2.3-.4.5-.6.4-.4.7-.8,1.1-1.1.2-.2.4-.5.6-.7.3-.4.6-.7.9-1.1.2-.3.4-.5.6-.8.3-.4.5-.7.8-1.1.2-.3.4-.6.6-.9.2-.4.5-.7.7-1.1.2-.3.4-.6.6-.9.2-.4.5-.7.7-1.1.2-.3.3-.6.5-.9.2-.4.4-.7.6-1.1,0,0,0-.2.1-.3.1-.2.2-.5.4-.7.2-.4.4-.8.5-1.2s.3-.7.4-1c.2-.4.3-.8.5-1.2.1-.3.3-.7.4-1.1.1-.4.3-.8.4-1.2.1-.4.2-.7.3-1.1.1-.4.2-.8.3-1.2,0-.4.2-.7.3-1.1,0-.4.2-.8.3-1.2,0-.4.1-.8.2-1.1,0-.4.1-.8.2-1.3,0-.4.1-.8.2-1.2,0-.4.1-.9.1-1.3,0-.4,0-.8,0-1.2,0-.4,0-.9,0-1.3,0-.4,0-.8,0-1.2,0-.2,0-.4,0-.6s0-.5,0-.7c0-.2,0-.4,0-.6,0-.2,0-.3,0-.5,0-.4,0-.7,0-1,0-.4,0-.8,0-1.1,0-.4,0-.8-.1-1.2,0-.3,0-.6-.1-.9,0-.5-.1-1-.2-1.4,0-.2,0-.3,0-.5-1.4-7.9-4.9-15.1-10-21.1-.7-.8-1.4-1.6-2.1-2.3-.6-.6-1.9-1.9-2.5-2.5-2.5-2.5-5-4.9-7.4-7.4-2.9-2.9-5.8-5.8-8.8-8.8-.2-.2-.5-.5-.7-.7-8-8-16-15.9-23.9-23.9-7.3-7.3-14.6-14.6-21.9-21.9-3.7-3.7-7.3-7.3-11-11,0,0-.1-.1-.2-.2-5.6-5.6-5.6-14.7,0-20.2,5.6-5.6,14.7-5.6,20.2,0,0,0,1.6,1.6,4.3,4,.7.7,1.5,1.4,2.3,2.2,6.1,5.8,15.7,14.8,25.8,24.3h0c2.6,2.5,5.3,5,8,7.5.2.2.5.5.8.7,17,16,32.8,30.9,32.9,31,.4.4,7.7,5.3,18.1,8.8.8.3,1.5.5,2.3.8,13.5,4.1,31.3,5.5,46.4-7.1.2-.2.4-.3.6-.5.6-.5,1.2-1,1.8-1.6,19.6-18.5,26-37.4,23-54.1Z"/>
        <g>
          <path class="st4" d="M257.1,117.8c0-7.6,3.4-14.5,8.9-19-14.1-14-18.8-18.7-20.6-20.4.1-.8.2-1.6.3-2.5,0-.2,0-.5,0-.7,0-.6,0-1.2.1-1.8,0-.3,0-.5,0-.8,0-.6,0-1.2,0-1.7,0-.2,0-.5,0-.7,0-.5,0-1.1,0-1.6h0c-.9-10.4-5.6-20.9-14-29.3-6.2-6.2-44.1-19-59.6-3.5-15.5,15.5-2.8,53.3,3.5,59.6,8.4,8.4,18.9,13.1,29.3,14h0c.3,0,.6,0,1,0,.4,0,.7,0,1.1,0,.5,0,1,0,1.5,0,.3,0,.6,0,1,0,.6,0,1.1,0,1.7,0,.2,0,.5,0,.7,0,.8,0,1.6-.1,2.4-.3,14.8,14.9,26.9,27.3,27,27.6,3.2,5.5,2.5,12.6-2.2,17.3-5.6,5.6-14.7,5.6-20.2,0-.3-.3-14.1-13.8-29.5-28.9h0c-20-19.6-42.8-41.9-42.9-42-1.2-1.2-2.6-2.1-4.1-2.9-14.3-10.4-31.7-13.2-49.9-4.8,4.8,4.5,7.9,11,7.9,18.2,0,13.8-11.2,24.9-24.9,24.9s-13.6-3.1-18.2-7.9c-10.4,30.5,16,57.2,29.1,70.9,4.3-3.6,9.9-5.7,15.9-5.7,13.8,0,24.9,11.2,24.9,24.9s-2.5,12.3-6.5,16.7l20.6,21.5c2.9,3.7,4.8,7.1,5.9,10.2,3,7.8.1,16.6-6.7,21.5h0c-5.6,4-12.9,5.6-19.2,2.6-.3-.2-.7-.4-1.1-.6,0,0-.2-.1-.3-.2-.3-.2-.6-.3-.9-.5-.1,0-.2-.1-.3-.2-.3-.2-.6-.4-1-.6,0,0-.1,0-.2-.1-.4-.3-.7-.5-1.1-.8-.1,0-.2-.2-.3-.2-.3-.2-.5-.4-.8-.6-.1-.1-.3-.2-.4-.3-.2-.2-.4-.4-.7-.6-.1-.1-.2-.2-.3-.3-.2-.2-.4-.4-.5-.6-.1-.1-.3-.3-.4-.4-.3-.3-.6-.7-.8-1,0,0,0,0,0-.1-1.2-1.7-3.7-.4-3,1.6,6.4,17.2,22.9,29.4,42.3,29.4s15.1-2,21.4-5.4c3.1-1.8,6.1-3.9,8.9-6.3.6-.5,1.1-1.1,1.7-1.6.2-.2.3-.4.5-.6.4-.4.7-.8,1.1-1.1.2-.2.4-.5.6-.7.3-.4.6-.7.9-1.1.2-.3.4-.5.6-.8.3-.4.5-.7.8-1.1.2-.3.4-.6.6-.9.2-.4.5-.7.7-1.1.2-.3.4-.6.6-.9.2-.4.5-.7.7-1.1.2-.3.3-.6.5-.9.2-.4.4-.7.6-1.1,0,0,0-.2.1-.3-.2,0-.4,0-.7,0-13.8,0-24.9-11.2-24.9-24.9s8.4-21.9,19.6-24.3c-.7-.8-1.4-1.6-2.1-2.3-.6-.6-1.9-1.9-2.5-2.5-2.5-2.5-5-4.9-7.4-7.4-2.9-2.9-5.8-5.8-8.8-8.8-.2-.2-.5-.5-.7-.7-8-8-16-15.9-23.9-23.9-7.3-7.3-14.6-14.6-21.9-21.9-3.7-3.7-7.3-7.3-11-11,0,0-.1-.1-.2-.2-5.6-5.6-5.6-14.7,0-20.2,5.6-5.6,14.7-5.6,20.2,0,0,0,1.6,1.6,4.3,4,4.6-5.6,11.5-9.2,19.4-9.2,13.8,0,24.9,11.2,24.9,24.9s-3.2,13.8-8.1,18.4c.2.2.5.5.8.7,17,16,32.8,30.9,32.9,31,.4.4,7.7,5.3,18.1,8.8-.1-1-.2-2-.2-3,0-13.8,11.2-24.9,24.9-24.9s22.8,9.2,24.6,21.2c.6-.5,1.2-1,1.8-1.6,19.6-18.5,26-37.4,23-54.1-3.5,1.8-7.4,2.9-11.7,2.9-13.8,0-24.9-11.2-24.9-24.9Z"/>
          <path class="st2" d="M166.1,246.9c0,13.8,11.2,24.9,24.9,24.9s.4,0,.7,0c.1-.2.2-.5.4-.7.2-.4.4-.8.5-1.2s.3-.7.4-1c.2-.4.3-.8.5-1.2.1-.3.3-.7.4-1.1.1-.4.3-.8.4-1.2.1-.4.2-.7.3-1.1.1-.4.2-.8.3-1.2,0-.4.2-.7.3-1.1,0-.4.2-.8.3-1.2,0-.4.1-.8.2-1.1,0-.4.1-.8.2-1.3,0-.4.1-.8.2-1.2,0-.4.1-.9.1-1.3,0-.4,0-.8,0-1.2,0-.4,0-.9,0-1.3,0-.4,0-.8,0-1.2,0-.2,0-.4,0-.6s0-.5,0-.7c0-.2,0-.4,0-.6,0-.2,0-.3,0-.5,0-.4,0-.7,0-1,0-.4,0-.8,0-1.1,0-.4,0-.8-.1-1.2,0-.3,0-.6-.1-.9,0-.5-.1-1-.2-1.4,0-.2,0-.3,0-.5-1.4-7.9-4.9-15.1-10-21.1-11.2,2.4-19.6,12.4-19.6,24.3Z"/>
          <path class="st2" d="M102.2,175.7c-6,0-11.6,2.2-15.9,5.7.3.3.6.7.9,1,6.9,7.2,14.5,15.2,21.8,22.8h0s11.6,12.1,11.6,12.1c4-4.4,6.5-10.3,6.5-16.7,0-13.8-11.2-24.9-24.9-24.9Z"/>
          <path class="st2" d="M75.4,118.5c13.8,0,24.9-11.2,24.9-24.9s-3-13.6-7.9-18.2c-.6.3-1.2.6-1.8.9-7.6,3.9-15.4,9.7-23.1,17.8-4.9,5.2-8.3,10.6-10.2,16.1,0,.1,0,.3-.1.4,4.5,4.9,11,7.9,18.2,7.9Z"/>
          <path class="st2" d="M176.1,143.4c0-13.8-11.2-24.9-24.9-24.9s-14.8,3.6-19.4,9.2c.7.7,1.5,1.4,2.3,2.2,6.1,5.8,15.7,14.8,25.8,24.3h0c2.6,2.5,5.3,5,8,7.5,5-4.6,8.1-11.1,8.1-18.4Z"/>
          <path class="st2" d="M244.4,174.4c-13.8,0-24.9,11.2-24.9,24.9s0,2,.2,3c.8.3,1.5.5,2.3.8,13.5,4.1,31.3,5.5,46.4-7.1.2-.2.4-.3.6-.5-1.8-12-12.1-21.2-24.6-21.2Z"/>
          <path class="st2" d="M282.5,116.4s0,0,0,0c0,0,0,0,0,0-.2-.2-.5-.6-.9-1.1,0,0,0,0,0,0,0,0-.1-.2-.2-.2,0,0-.1-.1-.2-.2,0,0,0,0-.1-.1,0,0-.2-.2-.3-.3-.2-.2-.4-.3-.5-.5,0,0-6.6-7.4-10.8-11.7-.6-.6-1.2-1.2-1.8-1.8-.5-.5-1-1-1.5-1.5-5.4,4.6-8.9,11.4-8.9,19,0,13.8,11.2,24.9,24.9,24.9s8.2-1.1,11.7-2.9c0,0,0-.1,0-.2-1.5-8.4-5.4-16.3-11.1-23.3Z"/>
        </g>
        <path class="st10" d="M184.4,65.6c2.8,2.8,2.8,7.3,0,10-2.8,2.8-7.3,2.8-10,0-2.8-2.8-2.8-7.3,0-10,2.8-2.8,7.3-2.8,10,0Z"/>
        <g class="st0">
          <path class="st6" d="M181.3,33.2c12.3-5,29.2-2.1,40.6,4.1,2.3,1.3,1.3,4.8-1.3,4.8-6.5-.2-13-1.4-19.4-2.3-5.5-.8-10.9-1.4-16.4-1.7-.9,0-2.2,0-3-.3-2.3-.4-2.6-3.7-.5-4.6h0Z"/>
        </g>
        <g class="st0">
          <path class="st6" d="M174.3,68.3c1.1-2.8,4.8-4.6,7.5-2.8.9.6,3,2.3,1.6,3.4-.4.2-.8.2-1.2,0-.6-.3-1.1-.7-1.7-.9-1.6-.8-3.2.4-4.5,1.4-.8.8-2.1,0-1.7-1.1h0Z"/>
        </g>
        <path class="st10" d="M211.6,38.4c2.8,2.8,2.8,7.3,0,10-2.8,2.8-7.3,2.8-10,0-2.8-2.8-2.8-7.3,0-10,2.8-2.8,7.3-2.8,10,0Z"/>
        <g class="st0">
          <path class="st6" d="M201.5,41.2c1.1-2.8,4.8-4.6,7.5-2.8.9.6,3,2.3,1.6,3.4-.4.2-.8.2-1.2,0-.6-.3-1.1-.7-1.7-.9-1.6-.8-3.2.4-4.5,1.4-.8.8-2.1,0-1.7-1.1h0Z"/>
        </g>
        <line class="st1" x1="165.1" y1="8.5" x2="171.5" y2="28"/>
        <g class="st5">
          <path class="st9" d="M141.6,238.9c2.9,3.7,4.8,7.1,5.9,10.2,3,7.8.1,16.6-6.7,21.5h0c-5.6,4-12.9,5.6-19.2,2.6-.3-.2-.7-.4-1.1-.6,0,0-.2-.1-.3-.2-.3-.2-.6-.3-.9-.5-.1,0-.2-.1-.3-.2-.3-.2-.6-.4-1-.6,0,0-.1,0-.2-.1-.4-.3-.7-.5-1.1-.8-.1,0-.2-.2-.3-.2-.3-.2-.5-.4-.8-.6-.1-.1-.3-.2-.4-.3-.2-.2-.4-.4-.7-.6-.1-.1-.2-.2-.3-.3-.2-.2-.4-.4-.5-.6-.1-.1-.3-.3-.4-.4-.3-.3-.6-.7-.8-1,0,0,0,0,0-.1-1.2-1.7-3.7-.4-3,1.6,6.4,17.2,22.9,29.4,42.3,29.4s15.1-2,21.4-5.4c3.1-1.8,6.1-3.9,8.9-6.3.6-.5,1.1-1.1,1.7-1.6.2-.2.3-.4.5-.6.4-.4.7-.8,1.1-1.1.2-.2.4-.5.6-.7.3-.4.6-.7.9-1.1.2-.3.4-.5.6-.8.3-.4.5-.7.8-1.1.2-.3.4-.6.6-.9.2-.4.5-.7.7-1.1.2-.3.4-.6.6-.9.2-.4.5-.7.7-1.1.2-.3.3-.6.5-.9.2-.4.4-.7.6-1.1,0,0,0-.2.1-.3.1-.2.2-.5.4-.7.2-.4.4-.8.5-1.2s.3-.7.4-1c.2-.4.3-.8.5-1.2.1-.3.3-.7.4-1.1.1-.4.3-.8.4-1.2.1-.4.2-.7.3-1.1.1-.4.2-.8.3-1.2,0-.4.2-.7.3-1.1,0-.4.2-.8.3-1.2,0-.4.1-.8.2-1.1,0-.4.1-.8.2-1.3,0-.4.1-.8.2-1.2,0-.4.1-.9.1-1.3,0-.4,0-.8,0-1.2,0-.4,0-.9,0-1.3,0-.4,0-.8,0-1.2,0-.2,0-.4,0-.6s0-.5,0-.7c0-.2,0-.4,0-.6,0-.2,0-.3,0-.5,0-.4,0-.7,0-1,0-.4,0-.8,0-1.1,0-.4,0-.8-.1-1.2,0-.3,0-.6-.1-.9,0-.5-.1-1-.2-1.4,0-.2,0-.3,0-.5-1.4-7.9-4.9-15.1-10-21.1-.7-.8-1.4-1.6-2.1-2.3-.6-.6-1.9-1.9-2.5-2.5-1.1-1.1-2.3-2.3-3.4-3.4-14.2,8.2-28.3,14.6-41.1,19.5l4.6,4.8Z"/>
          <path class="st9" d="M294,140c0,0,0-.1,0-.2-1.5-8.4-5.4-16.3-11.1-23.3,0,0,0,0,0,0,0,0,0,0,0,0-.2-.2-.5-.6-.9-1.1,0,0,0,0,0,0,0,0-.1-.2-.2-.2,0,0-.1-.1-.2-.2,0,0,0,0-.1-.1,0,0-.2-.2-.3-.3-.2-.2-.4-.3-.5-.5,0,0-5.3-6-9.5-10.3-13.4,41.1-38.1,70.8-65.5,92.3,3.2,1.8,8.2,4.4,14.4,6.5.8.3,1.5.5,2.3.8,13.5,4.1,31.3,5.5,46.4-7.1.2-.2.4-.3.6-.5.6-.5,1.2-1,1.8-1.6,19.6-18.5,26-37.4,23-54.1Z"/>
        </g>
        <g class="st0">
          <path class="st6" d="M61.5,131.2c4.7-27.4,26.5-57.7,57.1-55.3,1.4.2,2.9.4,4.2.6,3.3.6,3.3,5.4,0,6-1.3.2-2.7.4-4,.5-1.2.3-2.4.4-3.6.7-24,5.3-37.8,28.4-47.9,49.1-1.4,3.3-6.3,1.9-5.8-1.6h0Z"/>
        </g>
      </g>
    </g>
  </g>
</svg>