<svg xmlns="http://www.w3.org/2000/svg" version="1" viewBox="0 0 50 50"><path fill="#E56060" d="M10.715 28.759h1.224v4.557l28.362-10.323v-5.284c0-.561-.455-1.016-1.016-1.016h-1.224v-.895c0-4.427-2.395-12.639-13.061-12.639-10.667 0-13.061 8.212-13.061 12.639v.895h-1.224c-.561 0-1.016.455-1.016 1.016v10.034c0 .561.455 1.016 1.016 1.016z"/><path fill="#FF6B6B" d="M37.257 11.143C35.887 7.201 32.484 3.159 25 3.159c-10.667 0-13.061 8.212-13.061 12.639v.895h-1.224c-.561 0-1.016.455-1.016 1.016v3.464l27.558-10.03z"/><g fill="#031326"><path d="M39.285 15.784h-.315c-.002-1.473-.272-5.219-2.709-8.507C33.823 3.988 29.929 2.25 25 2.25s-8.823 1.738-11.261 5.027c-2.437 3.289-2.708 7.034-2.709 8.507h-.316a1.928 1.928 0 00-1.925 1.925v10.034c0 1.062.863 1.925 1.925 1.925h.316v5.389c0 2.099 5.306 12.693 7.881 12.693h12.178c2.575 0 7.881-10.594 7.881-12.693a.909.909 0 00-1.818 0c0 1.881-4.708 10.198-6.14 10.875H18.988c-1.432-.677-6.14-8.994-6.14-10.875v-6.276h1.899c.118 8.037 2.783 10.934 5.286 10.934 1.149 0 1.795-.425 2.42-.837.641-.422 1.246-.82 2.547-.82s1.906.398 2.546.82c.625.412 1.271.837 2.42.837 2.561 0 5.297-3.016 5.297-11.48a.545.545 0 00-.545-.545H10.714c-.038 0-.071.014-.107.022v-4.174h4.096c.1 1.054 1.038 1.884 2.195 1.884h16.204c1.156 0 2.094-.83 2.195-1.884h5.005c.713 0 .909-.4.909-1.109v-4.72a1.929 1.929 0 00-1.926-1.925zM25 4.068c11.811 0 12.152 10.529 12.152 11.73v.915H12.848v-.915c0-1.201.341-11.73 12.152-11.73zm4.967 34.557c-.822 0-1.263-.29-1.82-.657-.676-.446-1.519-1.001-3.146-1.001s-2.47.555-3.147 1.001c-.557.367-.997.657-1.82.657-2.039 0-4.09-3.057-4.197-9.844h18.326c-.107 6.787-2.158 9.844-4.196 9.844zM10.608 17.782c.036.007.069.022.107.022h28.571c.038 0 .071-.014.107-.022v4.647c0 .007.004.012.004.018h-4.099c-.1-1.054-1.039-1.884-2.195-1.884H16.898c-1.156 0-2.094.829-2.195 1.884h-4.096v-4.665z"/><path d="M29.221 33.147c-.079-.038-1.957-.94-4.221-.94s-4.142.902-4.221.94a.364.364 0 10.318.654c.018-.009 1.812-.867 3.903-.867s3.885.858 3.903.867a.361.361 0 00.485-.169.362.362 0 00-.167-.485z"/></g></svg>