<svg xmlns="http://www.w3.org/2000/svg" version="1" viewBox="0 0 50 50"><path fill="#FF85AE" d="M48.84 28.67v-7.71a2.74 2.74 0 0 0-2.74-2.74h-4.877v-3.335a2.74 2.74 0 0 0-2.74-2.74h-4.795c0-4.8-3.89-8.69-8.69-8.69s-8.688 3.89-8.688 8.69h-4.795a2.74 2.74 0 0 0-2.74 2.74v3.336H3.9a2.74 2.74 0 0 0-2.74 2.74v22.845c0 .752.304 1.433.795 1.928L48.84 28.67z"/><path fill="#F56991" d="M33.83 12.145h-.14c0-4.8-3.89-8.69-8.69-8.69s-8.69 3.89-8.69 8.69h-4.794a2.74 2.74 0 0 0-2.74 2.74v3.336H3.9a2.74 2.74 0 0 0-2.74 2.74v3.075l32.67-11.89z"/><circle cx="32.803" cy="22.264" r="1.556" fill="#444"/><circle cx="25" cy="22.264" r="1.556" fill="#444"/><circle cx="17.197" cy="22.264" r="1.556" fill="#444"/><path fill="#444" d="M32.803 47.688H3.9a3.888 3.888 0 0 1-3.883-3.883V20.96A3.888 3.888 0 0 1 3.9 17.077h3.733v-2.193A3.888 3.888 0 0 1 11.516 11h3.717c.57-4.884 4.732-8.688 9.767-8.688 5.035 0 9.198 3.804 9.766 8.69h3.717a3.888 3.888 0 0 1 3.883 3.882v2.193H46.1a3.888 3.888 0 0 1 3.883 3.883v22.845a1.143 1.143 0 0 1-2.286 0V20.96a1.6 1.6 0 0 0-1.597-1.597h-6.02v-4.48a1.6 1.6 0 0 0-1.597-1.596h-5.938v-1.143c0-4.16-3.385-7.546-7.546-7.546-4.162 0-7.547 3.385-7.547 7.546v1.143h-5.937a1.6 1.6 0 0 0-1.597 1.597v4.48H3.9a1.6 1.6 0 0 0-1.597 1.596v22.845c0 .88.716 1.596 1.597 1.596h28.903a1.143 1.143 0 0 1 0 2.288z"/><path fill="#444" d="M43.232 43.457a.686.686 0 0 1 0-1.372.502.502 0 0 0 .502-.502v-17.87a.502.502 0 0 0-.502-.502h-6.768v-4.047a.502.502 0 0 0-.502-.502H14.04a.502.502 0 0 0-.503.503v4.048h-6.77a.503.503 0 0 0-.5.503v17.87c0 .277.224.502.5.502h26.036a.686.686 0 0 1 0 1.372H6.768a1.876 1.876 0 0 1-1.874-1.874v-17.87c0-1.033.84-1.874 1.874-1.874h5.397v-2.677c0-1.033.84-1.874 1.874-1.874H35.96c1.033 0 1.874.84 1.874 1.873v2.676h5.397c1.033 0 1.874.84 1.874 1.873v17.87a1.877 1.877 0 0 1-1.875 1.874zM24.816 14.95l-1.865.98a.395.395 0 0 1-.572-.417l.356-2.076a.397.397 0 0 0-.114-.35l-1.51-1.47a.395.395 0 0 1 .22-.675l2.085-.303c.13-.02.24-.1.297-.217l.932-1.89a.395.395 0 0 1 .71 0l.93 1.89c.06.117.17.197.298.216l2.085.302a.395.395 0 0 1 .22.674l-1.51 1.47a.397.397 0 0 0-.114.35l.356 2.077a.395.395 0 0 1-.574.416l-1.865-.98a.393.393 0 0 0-.364 0z"/><path fill="#444" d="M17.085 40.078L13.05 28.463h-.075c.108 1.725.162 3.342.162 4.852v6.764h-2.064V26.17h3.206l3.86 11.064h.058l3.976-11.064h3.215v13.908H23.2V33.2c0-.69.018-1.592.053-2.702.035-1.11.065-1.782.09-2.017h-.076L19.09 40.078h-2.005zM34.97 27.92c-1.306 0-2.334.463-3.082 1.39-.748.925-1.123 2.203-1.123 3.833 0 1.706.36 2.997 1.08 3.872.72.875 1.76 1.313 3.125 1.313.59 0 1.16-.06 1.712-.176a19.697 19.697 0 0 0 1.722-.452v1.95c-1.09.412-2.328.618-3.71.618-2.036 0-3.6-.617-4.69-1.85-1.09-1.234-1.636-2.998-1.636-5.294 0-1.446.265-2.71.794-3.796s1.295-1.915 2.297-2.492c1-.577 2.177-.866 3.528-.866 1.42 0 2.733.298 3.938.894l-.818 1.893c-.47-.222-.966-.417-1.49-.585a5.35 5.35 0 0 0-1.648-.252z"/></svg>