<svg xmlns="http://www.w3.org/2000/svg" id="Layer_1" x="0" y="0" version="1.1" viewBox="0 0 300 300" xml:space="preserve"><style>.st1{fill:#7a2a9b}.st3{fill:#973dc1}.st4{fill:#c75eeb}.st6{opacity:.2;fill:#fff;enable-background:new}.st7{fill:#515759}</style><path id="Camada_10_00000043435031972273141090000000152577836078471299_" fill="#008dd3" d="M273.8 159.6c.1 19.8-4.1 38.6-11.6 55.7-21.1 47.6-68.6 80.8-124 81-14.7.1-28.9-2.3-42.2-6.5-25-8-46.8-23-63.1-42.8-17-20.4-28.1-46-30.8-74-.4-4-.6-8.2-.6-12.3-.2-46.2 22.7-87.2 57.9-111.9 4.6-3.3 9.4-6.2 14.4-8.8 7-3.8 14.4-6.8 22-9.4 7.2-2.3 14.7-4 22.4-5.2 6.2-.8 12.5-1.3 18.9-1.4 25-.1 48.5 6.6 68.8 18.3 3.7 2.1 7.1 4.3 10.5 6.8 16.2 11.5 29.8 26.5 39.7 43.9 1.1 2 2.2 3.9 3.2 6 .8 1.8 1.7 3.5 2.5 5.3 2.6 5.8 4.8 11.7 6.6 17.8 2 6.8 3.5 13.9 4.3 21 .7 5.4 1.1 10.9 1.1 16.5z"/><path d="M197.9 229.1h-50.4c-.2 0-.3-.2-.3-.3v-11.6c0-.2.2-.3.3-.3h50.4c.2 0 .3.2.3.3v11.6c0 .2-.1.3-.3.3z" class="st1"/><path fill="#a54fc9" d="M268.3 207.4l-181.7 7c-.5 0-12.1-4-12.5-4.2-3.9-1.9-3.7-7.2-4-11.4L61.1 67c-.3-4.7 3.3-8.6 8-8.6h189.1c3.9 0 12.3 7.6 15.9 10.6.6.5-6.8-2.8-6.7-2l8.9 131.8c.4 4.7-3.2 8.6-8 8.6z"/><path d="M203.4 229.1H153c-.2 0-.3-.2-.3-.3v-11.6c0-.2.2-.3.3-.3h50.4c.2 0 .3.2.3.3v11.6c0 .2-.1.3-.3.3z" class="st3"/><path d="M235.5 236.9H139c-2.1 0-3.8-1.7-3.8-3.8v-.1c0-2.1 1.7-3.8 3.8-3.8h96.5c2.1 0 3.8 1.7 3.8 3.8v.1c.1 2.1-1.7 3.8-3.8 3.8z" class="st4"/><path d="M85.9 67.9L73 58.4h184s2.7-.5 6.4 1.9 11.6 9.3 11.6 9.3L85.9 67.9z" class="st1"/><path d="M85.9 67.9L73 58.4h-4.3s-7.6.4-7.4 8.6l.6 8.5 11.2 8.1 12.8-15.7zm-16 128.3l11.1 6.6s.6 8.3 5 11.4l.8 1.7-12.6-5.7s-3.9-1.2-3.9-8.6c0-1.2-.4-3.8-.4-5.4z" class="st3"/><path d="M279.6 216.8h-189c-4.7 0-8.9-3.9-9.2-8.6l-9-131.7c-.3-4.7 3.3-8.6 8-8.6h189.1c4.7 0 8.9 3.9 9.2 8.6l8.9 131.8c.4 4.6-3.2 8.5-8 8.5z" class="st4"/><path fill="#c4cbcc" d="M277.2 198.5H90.4a3.4 3.4 0 01-3.4-3.2L79.1 78.2c-.1-2 1.4-3.6 3.4-3.6h187.3c1.8 0 3.3 1.4 3.4 3.2l7.5 117.2c0 1.9-1.5 3.5-3.5 3.5z"/><path d="M272.5 155.6s-2.9-10.3-8 0c0 0-1.4 11.9-2 13.6-.6 1.7-3.6 14.6-19.3 15.2-15.6.6-22.2 2.2-22.2 2.2s-3.7 4.3 0 6c3.7 1.7 40 0 40 0s11.4-4 11.4-13.1.1-23.9.1-23.9z" class="st6"/><circle cx="211" cy="124.5" r="7.3" class="st7"/><circle cx="148.7" cy="126.2" r="7.3" class="st7" transform="matrix(.00765 -1 1 .00765 21.333 273.91)"/><path fill="#fff" d="M166.9 144.2c0 8 6.4 14.4 14.2 14.4 7.9 0 14.2-6.4 14.2-14.4h-28.4z"/><path d="M86.8 118.9s2.9 10.3 8 0c0 0 1.4-11.9 2-13.6.6-1.7 3.6-14.6 19.3-15.2s22.2-2.2 22.2-2.2 3.7-4.3 0-6c-3.7-1.7-40 0-40 0s-11.4 4-11.4 13.1-.1 23.9-.1 23.9z" class="st6"/><path fill="#ddd" stroke="#515759" stroke-miterlimit="10" stroke-width="2.25" d="M223 202.7c1.4-3.8 4.6-6.6 4.6-6.6l8.2 9.8c.1.2.3.3.5.3h0c.2 0 .4-.1.6-.2l4.7-4.1c.2-.2.2-.3.2-.6h0c0-.2-.1-.3-.2-.5l-8.4-9.6s3.5-2.5 7.5-3c3.4-.4-17.8-9.9-24.1-12.7-.7-.3-1.5.3-1.4 1.1 1.6 6.8 6.5 29.3 7.8 26.1z"/><path fill="#fff" d="M224.7 190.2c-1.2-2.1-2.9-5.9-3.8-7.5-1.1-2-2-3.4-2.6-4-.3-.3-.7.1-.6.5.2 1 .6 3.1 1.7 7.3v.1c.3 1.7 2.8 11.4 3.2 12.2.4 2.2 1.7-3.2 3.9-4.7h.1" opacity=".36"/><path fill="#fff" d="M223.6 192.4c-.6-1.2-1.4-3.4-1.9-4.4-.6-1.2-1-2-1.3-2.4-.2-.2-.3 0-.3.3.1.6.3 1.8.9 4.3v.1c.2 1 1.4 6.6 1.6 7.1.2 1.3.7-1.8 1.8-2.8" opacity=".61"/><path d="M294 269.6H117.5c-1.2 0-2.3-.5-3.2-1.3L99.2 253c-3.1-3.6-3.3-3.1-3.1-8.2v-3.6l177.9-.3c.6 5.6 1.1 5.8 1.5 6.2l21.8 13.7-.2 5.1c-.2 2.4.3 3.7-3.1 3.7z" class="st1"/><path d="M295.4 262.5H118.5c-.9 0-1.7-.3-2.3-.9L96.8 243c-1.3-1.2-.4-3.4 1.4-3.4h176.1c1.4 0 2.7.5 3.7 1.5l18.8 18.1c1.3 1.1.4 3.3-1.4 3.3z" class="st4"/><path d="M263.5 259H120.9l-16.5-15.9H247zm25.3-.1h-21.6l-16.5-15.8h21.7z" class="st3"/><path d="M100.5 245.4s-4.8-3.4-2.3-4.6c0 0 1.4-1 5.2-.5 3.8.6-1.8 2-1.8 2s-1 .5.2 2.4c1.2 2-1.3.7-1.3.7zm184.6 14.8s6.2-.1 4.8-1.8c-1.4-1.8-1.2-5.8 2.6-2.3s3.3 4.9-.8 5.2c-4.1.2-12-.7-6.6-1.1z" class="st6"/></svg>