<svg xmlns="http://www.w3.org/2000/svg" version="1" viewBox="0 0 50 50"><path fill="#D2D971" d="M30.807 19.764c4.85 2.13 10.66.52 13.735-3.79a11.338 11.338 0 0 0 1.696-3.52c.032-.115-.108-.197-.196-.118-3.554 3.17-9.226 4.477-13.572 1.968-4.345-2.51-6.056-8.076-5.087-12.74.024-.116-.117-.196-.2-.11a11.226 11.226 0 0 0-1.686 2.23c-3.346 5.792-.993 13.313 5.31 16.08z"/><path fill="#D2D971" d="M23.468 33.22c1.045.46 2.125.772 3.217.968l13.843-5.04c.22-.263.435-.53.636-.812A14.62 14.62 0 0 0 43.35 23.8c.04-.147-.14-.252-.254-.15-4.58 4.086-11.887 5.768-17.486 2.535-5.6-3.232-7.802-10.405-6.554-16.414.03-.15-.15-.253-.257-.143a14.472 14.472 0 0 0-2.174 2.873c-4.31 7.465-1.278 17.156 6.842 20.72zm-7.334 4.808c-5.778-4.568-7.98-12.778-6.528-19.773.04-.193-.193-.326-.33-.185-1.06 1.085-2 2.32-2.79 3.69-3.645 6.313-3.2 13.866.51 19.594l9.138-3.326z"/><path fill="#EAF27E" d="M22.902 24.07c-3.577-3.68-4.874-9.377-3.852-14.3.03-.15-.15-.253-.257-.143A14.472 14.472 0 0 0 16.62 12.5c-2.575 4.46-2.512 9.706-.326 13.974l6.608-2.404zm7.898-4.306c.682.3 1.382.516 2.09.67l11.4-4.15c.082-.104.168-.203.246-.312a11.338 11.338 0 0 0 1.696-3.52c.032-.114-.108-.196-.196-.117-3.554 3.17-9.226 4.477-13.572 1.968-4.345-2.51-6.056-8.076-5.087-12.74.024-.116-.117-.196-.2-.11a11.226 11.226 0 0 0-1.686 2.23c-3.344 5.793-.99 13.314 5.31 16.08zm-20.746 8.982c-1.004-3.414-1.16-7.097-.454-10.49.04-.194-.193-.327-.33-.186-1.06 1.085-2 2.32-2.79 3.69a18.65 18.65 0 0 0-2.51 9.2l6.084-2.214z"/><g fill="#444"><path d="M15.27 49.465a1.09 1.09 0 0 1-.44-.093c-5.288-2.32-9.18-6.596-10.966-12.038a19.897 19.897 0 0 1 1.67-16.125 19.66 19.66 0 0 1 2.955-3.91 1.283 1.283 0 0 1 1.532-.236c.516.275.782.843.664 1.415-1.414 6.808.84 15.83 7.888 19.897 7.044 4.067 15.98 1.51 21.17-3.123a1.295 1.295 0 0 1 1.558-.132c.49.307.715.888.558 1.445a19.842 19.842 0 0 1-2.97 6.165 1.1 1.1 0 1 1-1.792-1.278 18.074 18.074 0 0 0 1.55-2.605c-5.888 3.83-14.302 5.402-21.175 1.435-6.876-3.97-9.725-12.045-9.352-19.06a17.687 17.687 0 0 0-2.163 15.424c1.588 4.838 5.053 8.642 9.76 10.707a1.1 1.1 0 0 1-.446 2.11z"/><path d="M29.265 35.315c-2.074 0-4.167-.417-6.15-1.287-4.065-1.785-7.18-5.207-8.553-9.39a15.518 15.518 0 0 1 1.3-12.577 15.344 15.344 0 0 1 2.306-3.047c.323-.33.812-.406 1.22-.19.41.218.624.67.53 1.127-1.1 5.295.654 12.31 6.132 15.473 5.476 3.16 12.425 1.17 16.46-2.43a1.03 1.03 0 0 1 1.24-.107c.392.244.57.707.447 1.152a15.477 15.477 0 0 1-2.317 4.81c-2.962 4.154-7.734 6.467-12.615 6.467zM17.87 12.165a13.75 13.75 0 0 0-1.635 11.922c1.234 3.765 3.928 6.722 7.587 8.328 5.89 2.588 12.883.657 16.625-4.59a14.05 14.05 0 0 0 1.167-1.95c-4.59 2.957-11.11 4.153-16.444 1.074-5.337-3.08-7.563-9.33-7.3-14.782zM43.35 23.8h.01-.01z"/><path d="M35.306 21.586c-1.636 0-3.287-.33-4.852-1.017a12.294 12.294 0 0 1-6.746-7.408 12.24 12.24 0 0 1 1.026-9.92 12.14 12.14 0 0 1 1.82-2.405.987.987 0 0 1 1.18-.184c.396.21.602.648.51 1.09-.838 4.04.495 9.39 4.666 11.797 4.168 2.408 9.466.885 12.545-1.862a.995.995 0 0 1 1.2-.102.99.99 0 0 1 .43 1.115 12.197 12.197 0 0 1-1.827 3.794c-2.337 3.278-6.102 5.102-9.952 5.102zM26.25 4.14a10.478 10.478 0 0 0-.87 8.474c.94 2.867 2.993 5.12 5.78 6.343 4.49 1.97 9.814.5 12.665-3.496.2-.278.383-.563.552-.855-3.568 2.044-8.374 2.754-12.348.46-3.976-2.294-5.767-6.813-5.78-10.926z"/></g></svg>