<svg xmlns="http://www.w3.org/2000/svg" id="Camada_1" x="0" y="0" version="1.1" viewBox="0 0 300 300" xml:space="preserve"><style>.st4{fill:#00bf5f}.st15{opacity:.2;fill:#fff;enable-background:new}.st17{fill:#4d5152}.st20{fill:#c1a11e}.st21{fill:#ffd200}</style><path id="Camada_6" fill="#e56060" d="M255.3 84.8c48 32.1 35 87.4 35 87.4s-3.6 20.1-22.1 51.8c-13.9 24-48 38.9-48 38.9s-50.4 15.8-73 0c-16-11.3-31.7-14.9-31.7-14.9s-25.4-12-39.4-59.5S87.1 75.7 136 61.3C185 47 230.8 71 230.8 71l24.5 13.8zM192.6 100h-72.4"/><path id="Camada_10_00000075857582566874264420000010351039916759443621_" fill="#008dd3" d="M289.3 150.3c.1 20.8-4.3 40.5-12.2 58.4-22.1 49.9-71.9 84.7-130 84.9-15.4.1-30.3-2.4-44.2-6.8-26.2-8.4-49-24.1-66.1-44.9C19 220.5 7.4 193.7 4.6 164.4c-.4-4.2-.6-8.6-.6-12.9C3.7 103 27.7 60.1 64.6 34.2c4.8-3.5 9.9-6.5 15.1-9.2 7.3-4 15.1-7.1 23.1-9.9 7.5-2.4 15.4-4.2 23.5-5.4 6.5-.8 13.1-1.4 19.8-1.5 26.2-.1 50.8 6.9 72.1 19.2 3.9 2.2 7.4 4.5 11 7.1 17 12.1 31.2 27.8 41.6 46 1.2 2.1 2.3 4.1 3.4 6.3.8 1.9 1.8 3.7 2.6 5.6 2.7 6.1 5 12.3 6.9 18.7 2.1 7.1 3.7 14.6 4.5 22 .7 5.6 1.1 11.3 1.1 17.2z"/><g id="computer_00000056391407837117719280000005228948037967524778_"><path fill="#ef3030" d="M292.2 215.3H54.9v-136c0-10.8 8.8-19.6 19.6-19.6h198.2c10.8 0 19.6 8.8 19.6 19.6v136h-.1z"/><path fill="#eaeaea" d="M276.5 202.5c2.4 0 4.3-1.9 4.3-4.3V79.4c0-3.8-3.1-6.9-6.9-6.9H77c-5.3 0-9.7 4.3-9.7 9.7v116.2c0 2.4 1.9 4.3 4.3 4.3l204.9-.2z"/><path fill="#f96464" d="M279.6 242.9H67.4c-6.9 0-12.6-5.6-12.6-12.6v-15h237.4v15c0 7-5.6 12.6-12.6 12.6z"/></g><path d="M242.3 84.8s27.4-3 27.9 21.9v34.6s0 6.3-5 6.1c-2.1-.1-6.2 0-6.7-6.1-.6-8.1 0-25-11.1-34.6-10.1-8.7-25.5-9.3-34.4-11.2-11-2.4-11-11.2-.6-11 10 .2 29.9.3 29.9.3zm29.3 72.4s-4.4-10.4-11.1-1.5c-6.7 8.9 0 13.7 0 13.7s8.5 6.4 11.1 0c2.6-6.5 0-12.2 0-12.2z" class="st15"/><path fill="none" stroke="#4d5152" stroke-miterlimit="10" stroke-width="3" d="M280.8 94.1H67.3"/><circle cx="266.6" cy="83.7" r="5.2" class="st17"/><circle cx="249.7" cy="83.7" r="5.2" class="st17"/><circle cx="232.7" cy="83.7" r="5.2" class="st17"/><path fill="none" stroke="#4d5152" stroke-linecap="round" stroke-linejoin="round" stroke-miterlimit="10" stroke-width="2" d="M79.9 109.8h48.9m-48.9 12.8h183.8M79.9 135h183.8M79.9 159h100.3M79.9 170.8h100.3m-100.3 13h100.3M79.9 147.3h183.8"/><path id="Camada_10_00000029013286573895291600000007537878542395381149_" fill="#005cff" d="M275.1 178.8c0 7.7-1.6 15.1-4.5 21.8-8.3 18.6-26.8 31.6-48.5 31.7-5.8 0-11.3-.9-16.5-2.5-9.8-3.1-18.3-9-24.7-16.7-6.7-8-11-18-12.1-29-.2-1.6-.2-3.2-.2-4.8-.1-18.1 8.9-34.1 22.7-43.8 1.8-1.3 3.7-2.4 5.6-3.4 2.7-1.5 5.6-2.7 8.6-3.7 2.8-.9 5.8-1.6 8.8-2 2.4-.3 4.9-.5 7.4-.5 9.8 0 19 2.6 26.9 7.2 1.4.8 2.8 1.7 4.1 2.7 6.3 4.5 11.7 10.4 15.5 17.2.4.8.9 1.5 1.3 2.3.3.7.7 1.4 1 2.1 1 2.3 1.9 4.6 2.6 7 .8 2.7 1.4 5.4 1.7 8.2.1 1.8.3 4 .3 6.2z"/><path d="M226.4 140.5s.7-3.4 4.1-2.6 6.7 1.7 6.7 1.7 2.6.3 1.8 4.3c-.8 3.9-20.5 81.8-20.5 81.8s-.8 2.8-3.7 2.3c-3-.5-6.9-1.6-6.9-1.6s-3-.7-2.1-4.5c1-4 20.6-81.4 20.6-81.4z" class="st4"/><path d="M228.4 138l7.5-2 .3 3s-5 .6-5 .5-2.8-1.5-2.8-1.5zm-12.5 90l7.7-2-4.2-3.1-4 2.2z" class="st4"/><path d="M186.3 152l6.7 6.9s1.8 1.6.5 3.4c-1.3 1.6-17.7 19.9-17.7 19.9s-2.1 1.8.4 4.6 16.9 17.9 16.9 17.9 1.5 1.5.2 3.2-7.2 8.2-7.2 8.2-2.4 1.7-4.3 0c-1.7-1.7-28.2-29-28.2-29s-2.3-2.3.2-4.9l27.7-29.9s2.5-2.6 4.8-.3z" class="st20"/><path d="M183.2 216.6l7.1 2-.3-4.8-7.4-1.2zm8.4-63.6l-7-2 .2 4.9 7.4 1.1z" class="st20"/><path d="M193.2 154l6.7 6.9s1.8 1.6.5 3.4c-1.3 1.6-17.7 19.9-17.7 19.9s-2.1 1.8.4 4.6 16.9 17.9 16.9 17.9 1.5 1.5.2 3.2c-1.3 1.7-7.2 8.2-7.2 8.2s-2.4 1.7-4.3 0c-1.7-1.7-28.2-29-28.2-29s-2.3-2.3.2-4.9l27.7-29.9s2.4-2.7 4.8-.3z" class="st21"/><path d="M256.5 216.7l-6.7-6.9s-1.8-1.6-.5-3.4c1.3-1.6 17.7-19.9 17.7-19.9s2.1-1.8-.4-4.6-16.9-17.9-16.9-17.9-1.5-1.5-.2-3.2 7.2-8.2 7.2-8.2 2.4-1.7 4.3 0c1.7 1.7 28.2 29 28.2 29s2.3 2.3-.2 4.9l-27.7 29.9s-2.5 2.7-4.8.3z" class="st20"/><path d="M266.5 154l-6.8-1.9.2 4.8 7.5 1.3zm-8.7 63.6l6.9 1.9-.1-4.8-7.4-1.1z" class="st20"/><path d="M263.3 218.6l-6.7-6.9s-1.8-1.6-.5-3.4c1.3-1.6 17.7-19.9 17.7-19.9s2.1-1.8-.4-4.6-16.9-17.9-16.9-17.9-1.5-1.5-.2-3.2 7.2-8.2 7.2-8.2 2.4-1.7 4.3 0c1.7 1.7 28.2 29 28.2 29s2.3 2.3-.2 4.9l-27.7 29.9s-2.5 2.7-4.8.3z" class="st21"/><path fill="#54c654" d="M233.4 138.7s.7-3.4 4.1-2.6 6.7 1.7 6.7 1.7 2.6.3 1.8 4.3c-.8 3.9-20.5 81.8-20.5 81.8s-.8 2.8-3.7 2.3c-3-.5-6.9-1.6-6.9-1.6s-3-.7-2.1-4.5c1-3.9 20.6-81.4 20.6-81.4z"/><path d="M261 212.6s8-2.3 13.9-5c2.2-1-6.9 8.1-6.9 8.1s-3.3 3.8-7-3.1zm-44.4 10s5.8-6 9.6-11.3c1.4-1.9-2.1 10.5-2.1 10.5s-.8 5.1-7.5.8zm-30.1-9s7-2.8 12.1-5.8c1.8-1.1-5.6 8.2-5.6 8.2s-2.6 3.9-6.5-2.4z" class="st15"/><path fill="#ddd" stroke="#515759" stroke-miterlimit="10" stroke-width="4" d="M144.5 57.9c-3.5 6.3-9.9 10.4-9.9 10.4l-11.7-19.4c-.2-.3-.5-.6-.8-.6h0c-.4-.1-.7 0-1 .1l-9.4 5.9c-.3.3-.5.5-.6 1h0c0 .3 0 .6.2.8l12.1 19.1s-6.8 3.4-14.1 3.3c-6.2-.1 28.6 22.2 38.9 28.8 1.2.8 2.7-.1 2.7-1.5-.8-12.3-3.4-53.3-6.4-47.9z"/><path fill="#fff" d="M138.2 79.3c1.6 4.1 3.5 11.2 4.7 14.3 1.4 3.9 2.6 6.5 3.6 7.7.4.6 1.2.1 1.1-.6 0-1.8-.3-5.6-1.1-13.3v-.1c-.1-3.2-1.8-20.8-2.2-22.3-.1-4-3.8 5.1-8.1 7.3h-.1" opacity=".36"/><path fill="#fff" d="M140.6 75.8c.8 2.3 1.5 6.4 2.2 8.3.7 2.2 1.1 3.7 1.6 4.5.3.3.5.1.6-.4 0-1-.1-3.3-.4-7.8v-.1c0-1.8-.7-12-.8-13 0-2.3-1.8 3-3.9 4.4" opacity=".61"/></svg>