<?xml version="1.0" encoding="utf-8"?>
<!-- Generator: Adobe Illustrator 22.0.1, SVG Export Plug-In . SVG Version: 6.00 Build 0)  -->
<svg version="1.1" id="Layer_1" xmlns="http://www.w3.org/2000/svg" xmlns:xlink="http://www.w3.org/1999/xlink" x="0px" y="0px"
	 viewBox="0 0 50 50" style="enable-background:new 0 0 50 50;" xml:space="preserve">
<style type="text/css">
	.st0{fill:#C86060;}
	.st1{fill:#E06B6B;}
	.st2{fill:#464646;}
</style>
<g>
	<path class="st0" d="M42.4,30.7c1.8-2.1,3.5-4.2,5.3-6.3c0.4-0.5,0.6-1,0.6-1.7c0-6,0-12,0-18c0-1.4-0.7-2-2-2c-0.7,0-1.5,0-2.2,0
		L4.7,17c0.2,0.2,0.4,0.5,0.6,0.8c0.3,0.4,0.7,0.8,1,1.2c-0.7,0-1.5,0-2.2,0c-0.8,0-1.3,0.4-1.6,1.1c-0.3,0.6-0.1,1.2,0.2,1.7
		c0.8,1.1,1.7,2.1,2.6,3.1c1.9,2.3,3.9,4.6,5.8,6.9c1.8,2.1,3.6,4.3,5.4,6.4c0.5,0.6,1,1.2,1.5,1.8l23.8-8.7
		C42,31.1,42.2,30.9,42.4,30.7z"/>
	<g>
		<path class="st1" d="M4.6,3C3.8,3,3.1,3.3,2.7,4.1C2.4,4.9,2.7,5.6,3.2,6.2c1.7,2.1,3.5,4.1,5.2,6.2c-0.2,0.2-0.5,0.1-0.7,0.1
			c-1.1,0-2.2,0-3.4,0c-0.8,0-1.3,0.4-1.7,1.1c-0.3,0.6-0.2,1.3,0.3,1.8c0.6,0.8,1.3,1.6,2,2.4L45.7,3C32,3,18.3,3,4.6,3z"/>
	</g>
	<path class="st2" d="M48.7,10.9l0-5.9c0-2-1.2-3.2-3.2-3.3l-40.9,0c0,0,0,0,0,0c-1.7,0-2.6,1-2.9,1.8C1.1,4.6,1.3,5.7,2.2,6.8
		c1,1.2,2.1,2.5,3.1,3.7c-0.3,0-0.7,0-1,0c-0.5,0-1,0.2-1.4,0.5c-0.5,0.3-1,0.7-1.3,1.4c-0.5,1-0.4,2.1,0.4,3
		c0.6,0.7,1.2,1.5,1.8,2.2l0,0c-0.7,0.1-1.6,0.5-2.2,1.7c-0.5,1-0.4,2.1,0.4,3c0.6,0.7,1.2,1.5,1.8,2.2l7.9,9.4
		c1.3,1.5,2.5,3,3.8,4.5c1,1.2,2,2.3,2.9,3.5l2,2.4c0.3,0.4,0.6,0.8,1,1.1c0.5,0.6,1,1.2,1.6,1.9c0.1,0.1,0.1,0.1,0.2,0.1
		c0.1,0.1,0.1,0.2,0.2,0.3c0.2,0.2,0.6,0.4,0.9,0.4s0.6-0.1,0.9-0.4l8.6-8.6c0.5-0.5,0.5-1.3,0-1.8s-1.3-0.5-1.8,0l-7,7c0-2,0-4,0-6
		c0,0,0-0.1,0-0.1l0-1.1c0-2.2,0-4.5,0-6.7c0-0.5-0.3-0.8-0.4-0.9c-1.1-1.2-2.1-2.4-3.1-3.7c-1-1.2-2-2.4-3-3.5
		c-1.2-1.5-2.5-2.9-3.7-4.4c-1.5-1.8-3-3.5-4.5-5.2L9.7,12l0.1-0.1l-2-2.3C6.6,8.1,5.3,6.6,4.1,5.2C3.8,4.8,3.8,4.7,3.9,4.6
		C3.9,4.4,4,4.3,4.5,4.3c0,0,0,0,0,0l40.9,0c0.6,0,0.7,0.1,0.7,0.8l0,5.9c0,3.9,0,7.8,0,11.7c0,0.3-0.1,0.5-0.3,0.8
		c-1.3,1.6-2.7,3.2-4,4.7L38.7,32c-0.4,0.5-0.4,1.3,0.2,1.8s1.3,0.4,1.8-0.2l3.2-3.8c1.3-1.6,2.7-3.2,4-4.7c0.6-0.7,0.9-1.5,0.9-2.4
		C48.7,18.7,48.7,14.8,48.7,10.9z M23.3,44c-0.3-0.4-0.6-0.8-1-1.2l-2-2.4c-1-1.2-2-2.3-2.9-3.5c-1.3-1.5-2.5-3-3.8-4.5L5.7,23
		c-0.6-0.7-1.2-1.4-1.7-2.1c-0.2-0.2-0.1-0.3-0.1-0.3c0.2-0.4,0.3-0.4,0.4-0.4c0.6,0,1.3,0,1.9,0l1.7,0l4.2,5
		c1.2,1.5,2.5,2.9,3.7,4.4c1,1.1,1.9,2.3,2.9,3.4l1.9,2.2c0.3,0.4,0.6,0.7,0.9,1.1c0.8,0.9,1.6,1.9,2.5,2.8c0,1.9,0,3.8,0,5.7
		C23.8,44.5,23.5,44.2,23.3,44z M14.1,18.7c1.2,1.5,2.5,2.9,3.7,4.4c1,1.2,2,2.4,3,3.5c1,1.2,2.1,2.4,3.1,3.7
		c0.1,0.2,0.1,0.2,0.1,0.3c0,2.2,0,4.5,0,6.7l0,0.4c-0.6-0.6-1.1-1.3-1.7-2c-0.3-0.4-0.6-0.8-1-1.1l-1.9-2.2c-1-1.1-1.9-2.3-2.9-3.4
		c-1.3-1.5-2.5-2.9-3.7-4.4l-7.7-9.1c-0.2-0.2-0.4-0.5-0.6-0.7c-0.2-0.3-0.4-0.5-0.6-0.8c-0.2-0.2-0.1-0.3-0.1-0.3
		c0.2-0.4,0.3-0.4,0.4-0.4c1.1,0,2.1,0,3.3,0c0.2,0,0.9,0.1,1.5-0.5l0.6,0.7C11.1,15.2,12.6,16.9,14.1,18.7z"/>
</g>
</svg>
