<svg xmlns="http://www.w3.org/2000/svg" version="1" viewBox="0 0 50 50"><path fill="#46B8B0" d="M46.963 10.787l-.001-.013-.001-.008c-.084-.753-.05-.436-.102-.901-.051-.467-.411-.455-1.078-.437-.667.019-1.267-.113-1.595-.679l-.001-.001c-.054-.103-.106-.206-.164-.307-.003-.008-.003-.013-.007-.021-.301-.581-.093-1.158.28-1.712.37-.554.574-.851.208-1.145l-.707-.566a.143.143 0 0 0-.015-.011c0-.002-.001-.001-.002-.003-.59-.472-.344-.274-.709-.565-.367-.294-.612-.031-1.072.453-.455.483-.97.811-1.597.649a8.024 8.024 0 0 0-.336-.097c-.012-.005-.016-.011-.028-.015-.625-.197-.884-.753-1.013-1.408-.128-.655-.196-1.007-.663-.956l-.921.102c-.752.084-.437.05-.901.1-.468.054-.455.413-.438 1.079.018.664-.112 1.262-.674 1.592-.107.055-.213.11-.317.17l-.017.006c-.581.303-1.158.094-1.712-.278s-.851-.575-1.145-.208l-.566.707a.251.251 0 0 0-.013.017c-.473.591-.274.344-.566.707-.294.368-.03.614.453 1.072.479.454.807.966.652 1.589a5.208 5.208 0 0 0-.103.35c-.003.01-.008.012-.012.023-.196.625-.753.884-1.407 1.013-.514.101-.833.171-.926.419H7.302a4.373 4.373 0 0 0-4.373 4.373v26.714c0 1.28.56 2.421 1.437 3.221l34.023-12.383V20.388c.012 0 .018.006.03.004.464-.053.149-.017.901-.1l.013-.001.008-.001c.752-.085.436-.051.901-.102.466-.053.456-.412.437-1.078-.019-.666.112-1.267.678-1.595.105-.053.208-.107.309-.166.008-.003.013-.002.021-.007.581-.302 1.158-.092 1.711.279.555.371.851.574 1.145.208.29-.365.093-.117.566-.708l.009-.011.004-.006c.472-.591.274-.345.566-.708.292-.367.03-.613-.453-1.072-.482-.456-.814-.971-.649-1.6.035-.11.067-.221.097-.333.004-.012.011-.015.015-.03.197-.623.754-.883 1.407-1.011.654-.13 1.008-.197.957-.663-.052-.462-.018-.148-.099-.9z"/><path fill="#4ECDC4" d="M46.247 9.424c-.127-.003-.272 0-.436.005-.667.019-1.267-.113-1.595-.679l-.001-.001c-.054-.103-.106-.206-.164-.307-.003-.008-.003-.013-.007-.021-.301-.581-.093-1.158.279-1.712.37-.554.574-.851.208-1.145-.365-.291-.118-.093-.707-.566a.143.143 0 0 0-.015-.011c0-.002-.001-.001-.002-.003-.59-.472-.345-.274-.709-.565-.367-.294-.612-.031-1.072.453-.455.483-.97.811-1.597.649a8.024 8.024 0 0 0-.336-.097c-.012-.005-.015-.011-.028-.015-.625-.197-.884-.753-1.013-1.408-.129-.655-.196-1.007-.663-.956l-.921.102c-.752.084-.437.05-.901.1-.467.053-.454.412-.437 1.078.018.664-.113 1.262-.674 1.592-.107.055-.213.11-.317.17l-.017.006c-.582.303-1.158.094-1.712-.278s-.851-.575-1.145-.208l-.566.707a.251.251 0 0 0-.013.017c-.473.591-.274.344-.566.707-.294.368-.03.614.453 1.072.479.454.807.966.652 1.589a5.208 5.208 0 0 0-.103.35c-.003.01-.008.012-.012.023-.197.625-.753.884-1.407 1.013-.513.101-.833.171-.925.419H7.302a4.373 4.373 0 0 0-4.373 4.373v9.16L32.29 14.35c.044.035.094.062.134.104l13.823-5.03z"/><g fill="#444"><path d="M29.163 29.237c0-.419-.03-.828-.088-1.228l1.297-.771-.027-.123a9.94 9.94 0 0 0-.956-2.591l-.063-.117-1.445.331a8.496 8.496 0 0 0-1.238-1.555l.59-1.379-.091-.08a10.111 10.111 0 0 0-2.28-1.487l-.116-.054-.977 1.117a8.473 8.473 0 0 0-2.01-.52l-.333-1.454-.126-.009a9.793 9.793 0 0 0-.668-.025c-.695 0-1.373.073-2.028.208l-.126.024-.134 1.488a8.657 8.657 0 0 0-1.908.792l-1.116-.977-.109.072c-.765.5-1.459 1.101-2.059 1.784l-.082.094.771 1.291a8.47 8.47 0 0 0-1.002 1.685l-1.474-.133-.044.121a9.805 9.805 0 0 0-.601 2.711l-.01.121 1.388.594-.001.069c0 .59.063 1.169.177 1.725L11 31.719l.032.126a9.894 9.894 0 0 0 1.123 2.597l.064.103 1.477-.334c.322.444.684.861 1.086 1.238l-.586 1.37.097.082a9.969 9.969 0 0 0 2.454 1.492l.112.047.995-1.135c.485.168.997.293 1.518.37l.332 1.46.128.009c.259.022.526.037.798.037.712 0 1.407-.078 2.077-.22l.124-.028.135-1.491a8.62 8.62 0 0 0 1.467-.569l1.134.992.106-.062a9.967 9.967 0 0 0 2.232-1.794l.09-.093-.762-1.276c.355-.43.665-.9.929-1.396l1.507.137.05-.114a9.976 9.976 0 0 0 .765-2.712l.015-.131-1.362-.581c.016-.199.026-.401.026-.606zm-8.532 4.056a4.059 4.059 0 0 1-4.056-4.057 4.061 4.061 0 0 1 4.056-4.056 4.056 4.056 0 1 1 0 8.113z"/><path d="M45.689 13.676c.015-.048.062-.195.636-.308.624-.124 1.924-.383 1.77-1.795l-.203-1.82c-.155-1.416-1.49-1.378-2.141-1.363-.565.016-.638-.113-.676-.183-.03-.058-.06-.116-.092-.174l-.046-.089c-.026-.051-.096-.186.231-.672.353-.529 1.088-1.63-.018-2.519l-1.432-1.144c-1.111-.891-2.025.075-2.478.551-.338.358-.493.371-.522.371h-.005a7.983 7.983 0 0 0-.22-.066l-.146-.046c-.054-.017-.197-.063-.308-.627-.123-.628-.375-1.928-1.794-1.779l-1.825.202c-1.411.16-1.376 1.488-1.359 2.139.015.564-.117.641-.136.653a8.174 8.174 0 0 0-.262.139l-.052.026c-.05.025-.183.095-.661-.226-.49-.329-1.637-1.1-2.528.013l-1.144 1.43c-.89 1.112.113 2.062.55 2.475.356.337.373.493.363.56a5.931 5.931 0 0 0-.067.224l-.035.112c-.017.054-.062.196-.616.305-.362.071-.806.158-1.163.399H7.305a5.418 5.418 0 0 0-5.412 5.412v26.711A5.418 5.418 0 0 0 7.305 48H20.66a1.039 1.039 0 1 0 0-2.078H7.305a3.338 3.338 0 0 1-3.334-3.334V15.877a3.338 3.338 0 0 1 3.334-3.334h21.873l.121 1.096c.115 1.033 1.07 1.011 1.715.992.71-.017.923.174 1.018.333.043.084.087.17.134.253l.045.087c.104.198.155.482-.252 1.088-.35.524-.88 1.315-.069 1.97l1.431 1.143c.815.651 1.476-.047 1.914-.512.488-.517.773-.53.95-.484.103.033.207.064.275.081l.096.034c.214.067.45.231.591.953.045.225.1.492.2.735l.002 13.119a1.04 1.04 0 0 0 2.078 0l-.002-12.101.933-.108c1.416-.16 1.377-1.498 1.359-2.14-.016-.559.114-.639.112-.639.07-.036.139-.071.207-.108l.155-.08c.066-.026.224-.039.642.241.529.354 1.631 1.091 2.541-.04l1.128-1.41c.883-1.11-.081-2.026-.553-2.475-.403-.381-.371-.529-.373-.529l.069-.228.044-.138zm-1.927-.774l-.084.226c-.025.095-.053.19-.098.336-.24.92.076 1.801.945 2.622l.047.044-.536.67-.06-.04c-.936-.628-1.819-.763-2.629-.406l-.208.1c-.082.049-.168.092-.304.163-.827.479-1.229 1.328-1.196 2.523l.002.07-.444.05c-.509.056-.734.078-.825.086a1.748 1.748 0 0 1-.006-.031c-.072-.367-.285-1.463-1.354-1.854l-.139-.051a6.91 6.91 0 0 1-.343-.1c-1.148-.296-1.942.548-2.205.827-.105.11-.227.24-.317.322l-1.253-1.002a7.24 7.24 0 0 1 .246-.383c.205-.304.808-1.203.354-2.251l-.062-.143c-.055-.092-.104-.189-.171-.317-.603-1.023-1.764-.994-2.161-.979a9.239 9.239 0 0 1-.437.002l-.081-.728.176-.503c.09-.02.189-.04.252-.052 1.115-.22 1.838-.755 2.148-1.577l.074-.212c.026-.096.052-.192.084-.286l.023-.08c.227-.912-.091-1.784-.954-2.603a1.626 1.626 0 0 1-.043-.041l.536-.669.058.039c.962.647 1.869.772 2.698.375l.136-.067c.08-.047.163-.089.317-.17.82-.481 1.22-1.327 1.187-2.527l-.001-.06.851-.095.014.069c.211 1.076.716 1.788 1.551 2.133l.244.094c.096.026.192.053.341.099.915.236 1.787-.074 2.602-.929l.469.263.264.211-.039.059c-.615.914-.759 1.779-.406 2.62l.097.216c.038.065.071.13.106.197l.058.108c.479.829 1.342 1.24 2.531 1.197l.063-.002.095.853-.071.014c-1.09.215-1.806.731-2.142 1.57z"/><path d="M38.389 8.648c-1.693 0-3.07 1.377-3.07 3.07s1.377 3.07 3.07 3.07 3.07-1.377 3.07-3.07-1.377-3.07-3.07-3.07zm0 4.893c-1.005 0-1.823-.818-1.823-1.823s.818-1.823 1.823-1.823 1.823.818 1.823 1.823-.818 1.823-1.823 1.823z"/></g></svg>