<svg xmlns="http://www.w3.org/2000/svg" viewBox="0 0 50 50"><path fill="#c86060" d="M42.4 30.7c1.8-2.1 3.5-4.2 5.3-6.3.4-.5.6-1 .6-1.7v-18c0-1.4-.7-2-2-2h-2.2L4.7 17c.2.2.4.5.6.8.3.4.7.8 1 1.2H4.1c-.8 0-1.3.4-1.6 1.1-.3.6-.1 1.2.2 1.7.8 1.1 1.7 2.1 2.6 3.1 1.9 2.3 3.9 4.6 5.8 6.9 1.8 2.1 3.6 4.3 5.4 6.4L18 40l23.8-8.7.6-.6z"/><path fill="#e06b6b" d="M4.6 3c-.8 0-1.5.3-1.9 1.1-.3.8 0 1.5.5 2.1 1.7 2.1 3.5 4.1 5.2 6.2-.2.2-.5.1-.7.1H4.3c-.8 0-1.3.4-1.7 1.1-.3.6-.2 1.3.3 1.8.6.8 1.3 1.6 2 2.4L45.7 3H4.6z"/><path fill="#031326" d="M48.7 10.9V5c0-2-1.2-3.2-3.2-3.3H4.6c-1.7 0-2.6 1-2.9 1.8-.6 1.1-.4 2.2.5 3.3 1 1.2 2.1 2.5 3.1 3.7h-1c-.5 0-1 .2-1.4.5-.5.3-1 .7-1.3 1.4-.5 1-.4 2.1.4 3 .6.7 1.2 1.5 1.8 2.2-.7.1-1.6.5-2.2 1.7-.5 1-.4 2.1.4 3 .6.7 1.2 1.5 1.8 2.2l7.9 9.4c1.3 1.5 2.5 3 3.8 4.5 1 1.2 2 2.3 2.9 3.5l2 2.4c.3.4.6.8 1 1.1.5.6 1 1.2 1.6 1.9.1.1.1.1.2.1.1.1.1.2.2.3.2.2.6.4.9.4s.6-.1.9-.4l8.6-8.6c.5-.5.5-1.3 0-1.8s-1.3-.5-1.8 0l-7 7V30.4c0-.5-.3-.8-.4-.9-1.1-1.2-2.1-2.4-3.1-3.7-1-1.2-2-2.4-3-3.5-1.2-1.5-2.5-2.9-3.7-4.4-1.5-1.8-3-3.5-4.5-5.2l-.6-.7.1-.1-2-2.3c-1.2-1.5-2.5-3-3.7-4.4-.3-.4-.3-.5-.2-.6 0-.2.1-.3.6-.3h40.9c.6 0 .7.1.7.8v17.6c0 .3-.1.5-.3.8-1.3 1.6-2.7 3.2-4 4.7L38.7 32c-.4.5-.4 1.3.2 1.8s1.3.4 1.8-.2l3.2-3.8c1.3-1.6 2.7-3.2 4-4.7.6-.7.9-1.5.9-2.4-.1-4-.1-7.9-.1-11.8zM23.3 44c-.3-.4-.6-.8-1-1.2l-2-2.4c-1-1.2-2-2.3-2.9-3.5-1.3-1.5-2.5-3-3.8-4.5L5.7 23c-.6-.7-1.2-1.4-1.7-2.1-.2-.2-.1-.3-.1-.3.2-.4.3-.4.4-.4h3.6l4.2 5c1.2 1.5 2.5 2.9 3.7 4.4 1 1.1 1.9 2.3 2.9 3.4l1.9 2.2c.3.4.6.7.9 1.1.8.9 1.6 1.9 2.5 2.8v5.7c-.2-.3-.5-.6-.7-.8zm-9.2-25.3c1.2 1.5 2.5 2.9 3.7 4.4 1 1.2 2 2.4 3 3.5 1 1.2 2.1 2.4 3.1 3.7.1.2.1.2.1.3v7.1c-.6-.6-1.1-1.3-1.7-2-.3-.4-.6-.8-1-1.1l-1.9-2.2c-1-1.1-1.9-2.3-2.9-3.4-1.3-1.5-2.5-2.9-3.7-4.4l-7.7-9.1c-.2-.2-.4-.5-.6-.7-.2-.3-.4-.5-.6-.8-.2-.2-.1-.3-.1-.3.2-.4.3-.4.4-.4h3.3c.2 0 .9.1 1.5-.5l.6.7c1.5 1.7 3 3.4 4.5 5.2z"/></svg>