<svg xmlns="http://www.w3.org/2000/svg" id="Layer_1" x="0" y="0" version="1.1" viewBox="0 0 50 50" xml:space="preserve"><style>.st2{fill:#464646}</style><switch><g><path fill="#e097fb" d="M47.5 2.5h-45v16.7l45-16.3z"/><path fill="#ce87ea" d="M47.5 2.9l-45 16.3V47l45-16.4z"/><path d="M9.3 49H1V1h8.3c.7 0 1.2.6 1.2 1.2S10 3.5 9.3 3.5H3.5v43h5.8c.7 0 1.2.6 1.2 1.2S10 49 9.3 49zM49 49h-8.3c-.7 0-1.2-.6-1.2-1.2s.6-1.2 1.2-1.2h5.8v-43h-5.8c-.7 0-1.2-.6-1.2-1.2S40 1 40.7 1H49v48z" class="st2"/><path d="M7.1 6.3h9v9h-9zm0 28.4h9v9h-9zM33.9 6.3h9v9h-9zm0 28.4h9v9h-9z" class="st2"/></g></switch></svg>