<svg xmlns="http://www.w3.org/2000/svg" id="Camada_1" x="0" y="0" version="1.1" viewBox="0 0 300 300" xml:space="preserve"><style>.st0{display:none}.st2{display:inline}.st3{fill:#ff6b6b}.st4{fill:#00bf5f}.st15{opacity:.2;fill:#fff;enable-background:new}.st17{fill:#4d5152}.st20{fill:#c1a11e}.st21{fill:#ffd200}</style><path id="Camada_6" fill="#e56060" d="M255.3 84.8c48 32.1 35 87.4 35 87.4s-3.6 20.1-22.1 51.8c-13.9 24-48 38.9-48 38.9s-50.4 15.8-73 0c-16-11.3-31.7-14.9-31.7-14.9s-25.4-12-39.4-59.5S87.1 75.7 136 61.3C185 47 230.8 71 230.8 71l24.5 13.8zM192.6 100h-72.4"/><g id="Camada_10" class="st0"><g class="st2"><path d="M689.9-245.8s-31.6-21.9-62.1 18c-30.6 39.9-22.5 117.1-22.5 117.1l16.1 16.2s-14.2-130 68.5-151.3zm41.3 15.7s32.9 12.4-66 156.6c0 0 19.6 5.9 35.8-.1 0 0 97.4-136.4 53.1-153.5l-22.9-3z" class="st3"/><path d="M700.9-238.1s6 3.2 12 4.6c0 0 10.9 33.6-62.8 151.1l-11.9-6.1c-.1-.1 20.6-121.5 62.7-149.6z" class="st3"/><path d="M740.4-269.2c16.7 8.5 23.7 17 23.7 17-29.6-.6-32.9 22.1-32.9 22.1-4-.5-17.5-2.6-20.7-3.5 0 0 26.3-34.9 29.9-35.6zm-41.9 31.1c-7.6-3.8-11-7.7-11-7.7 9.7-21.8-8.3-38.9-8.3-38.9 11.4.8 21.5 2.5 30.3 4.5-1.3 7.6 1.2 30.1-11 42.1z" class="st3"/><path d="M724.4-77.9s102.9-114.9 47.1-153.6l-28.1 2.9s1.6-13.7 3-13 29.7-3.2 29.7-3.2 33.9 28.2 17.2 87.6-68.9 79.3-68.9 79.3zm-50-180.2s.1-.7 0-1.9c-.5-4.9-4.6-17.6-32.2-19.2 0 0-40.8 6-58.8 76.7 0 0-8 34.8 5.8 61.7 0 0-14.8-82.9 38.6-111.3 31-17 46.6-6 46.6-6z" class="st3"/></g><g class="st2"><path d="M377.6-35.8c-2.8 3-3.7 5.8-4.4 9.7-.5 2.8-1.8 5.2-2.8 7.8-2.4 6.2-1.8 12.1 4.2 16 4.5 2.9 11.3 4.6 16.2 1.6 5.2-3.2 5.9-10.4 6-15.9.1-4.9.3-11.3-2.2-15.7-3.3-5.6-10-5.5-14.7-1.9-4.5 3.4-9.8 11.3-4.5 16.5 6 5.8 13.3-1.3 13.9-7.7.4-4.2-5.4-7.8-9-5.1-.4.3-.9.7-1.3 1-6 4.6-.1 14.9 6 10.3.4-.3.9-.7 1.3-1l-9-5.1c1.3-.8 2.6-1.5 3.8-2.3l3.6 2.7c2.7 4.2-1 1.5 1.5.9 3.2-.8-1-3.9-1.9-2.2-.2.3.4 3.2.5 3.8.2 4.1.4 8.3-.7 12.4.5-1.6 2 .2.1-.9-.6-.4-1.5-.4-2.1-.7s-1.1-.8-1.7-1.2c.4 1.8.7 1.9.8.3.1-.4.3-.8.4-1.2.8-2.3 2-4.5 2.7-6.8.6-2.1.3-5.1 1.9-6.7 5.1-5.7-3.3-14.2-8.6-8.6z" class="st4"/></g><path fill="#ab67a9" d="M397.5-25.8c-.2 5.5-.6 10 3 14.6 2.5 3.2 4.1 7.3 7.2 9.9 3.6 3 8.8 3.4 12.4.1 3.1-2.9 3.6-7.4 3.8-11.4.3-8.1 1.3-19.7-7.7-23.8-7.3-3.3-19.7 4.6-21.3 11.9-1.7 7.5 9.8 10.6 11.5 3.2.4-1.6 2.6-2.3 4-2.9.7-.3 1.9-.5 2.4-1 .8-.2.7-.3-.4-.1-1-.2-1.2 0-.6.7-.4 1.3.5 4.3.5 5.9-.1 1.9-.1 3.8-.2 5.6 0 .7-.7 3.1-.4 3.6 3.4.3 4.6 0 3.5-1.2-.2-.2-.4-.5-.5-.7-.2-.8-.9-1.6-1.3-2.3-1-1.8-3-3.5-3.9-5.3-.9-2-.1-4.7 0-6.9.1-7.6-11.8-7.6-12 .1z"/><path fill="#ed9751" d="M390.3-8.5c-.1 4.2-.9 8.4-.6 12.7.5 5.7 3.7 11.8 10.3 11.2 6.9-.6 8.5-8.3 8.4-14-.1-3.3-1.7-6.4-5.1-7.4-3-.9-6.3.5-7.9 3.1-4 6.6 6.3 12.6 10.3 6-.2.3-.3.5-.5.8-.9.5-1.8 1-2.6 1.5.2 0 .3-.1.5-.1h-3.2c.2.1.3.1.5.2-.9-.5-1.8-1-2.6-1.5.1.1.2.3.4.4-.5-.9-1-1.8-1.5-2.6.1.4-.5 1.9-.2 2.4-.2.7-.1.8.3.3 1.6 0 3.2-.1 4.9-.1.3.5.3.4 0-.4v.1c.2-.8-.1-2-.1-2.8.1-3.3.6-6.5.6-9.8.1-7.7-11.8-7.7-11.9 0zm42.6-145.8s-17-6.7-19.5 6.5c0 0-5.7 10.4 12.7 28.6 18.4 18.2 79.6 71.5 79.6 71.5l16.6-23.9c0-.1-70.1-70.8-89.4-82.7z"/><path fill="#d2d2d2" d="M518.9-33.3l-11.7-10.1s-3.9-2-.8-6.4 15.9-21.9 15.9-21.9 1.2-1.1 4 .9c2.8 1.9 9.8 10.1 9.8 10.1l1.7 1.5-18.9 25.9z"/><path fill="#cf524b" d="M516.9-35S515.8-15.7 538-7.1c22.3 8.5 20.5-38.3 20.5-38.3s-6.3-16.4-21.8-14.9C521.5-50.9 516.9-35 516.9-35z"/><path fill="#e445c8" d="M535.8-15s-1 18.8 20.4 14.7 27.2-9.6 27.2-9.6 6.1-5.3-1.6-10.3-15-17-15-17-9.1-16.5-12.9-13.3S535.8-15 535.8-15z"/></g><path id="Camada_10_00000075857582566874264420000010351039916759443621_" fill="#008dd3" d="M289.3 150.3c.1 20.8-4.3 40.5-12.2 58.4-22.1 49.9-71.9 84.7-130 84.9-15.4.1-30.3-2.4-44.2-6.8-26.2-8.4-49-24.1-66.1-44.9C19 220.5 7.4 193.7 4.6 164.4c-.4-4.2-.6-8.6-.6-12.9C3.7 103 27.7 60.1 64.6 34.2c4.8-3.5 9.9-6.5 15.1-9.2 7.3-4 15.1-7.1 23.1-9.9 7.5-2.4 15.4-4.2 23.5-5.4 6.5-.8 13.1-1.4 19.8-1.5 26.2-.1 50.8 6.9 72.1 19.2 3.9 2.2 7.4 4.5 11 7.1 17 12.1 31.2 27.8 41.6 46 1.2 2.1 2.3 4.1 3.4 6.3.8 1.9 1.8 3.7 2.6 5.6 2.7 6.1 5 12.3 6.9 18.7 2.1 7.1 3.7 14.6 4.5 22 .7 5.6 1.1 11.3 1.1 17.2z"/><g id="computer_00000056391407837117719280000005228948037967524778_"><path fill="#ef3030" d="M292.2 215.3H54.9v-136c0-10.8 8.8-19.6 19.6-19.6h198.2c10.8 0 19.6 8.8 19.6 19.6v136h-.1z"/><path fill="#eaeaea" d="M276.5 202.5c2.4 0 4.3-1.9 4.3-4.3V79.4c0-3.8-3.1-6.9-6.9-6.9H77c-5.3 0-9.7 4.3-9.7 9.7v116.2c0 2.4 1.9 4.3 4.3 4.3l204.9-.2z"/><path fill="#f96464" d="M279.6 242.9H67.4c-6.9 0-12.6-5.6-12.6-12.6v-15h237.4v15c0 7-5.6 12.6-12.6 12.6z"/></g><path d="M242.3 84.8s27.4-3 27.9 21.9v34.6s0 6.3-5 6.1c-2.1-.1-6.2 0-6.7-6.1-.6-8.1 0-25-11.1-34.6-10.1-8.7-25.5-9.3-34.4-11.2-11-2.4-11-11.2-.6-11 10 .2 29.9.3 29.9.3zm29.3 72.4s-4.4-10.4-11.1-1.5c-6.7 8.9 0 13.7 0 13.7s8.5 6.4 11.1 0c2.6-6.5 0-12.2 0-12.2z" class="st15"/><path fill="none" stroke="#4d5152" stroke-miterlimit="10" stroke-width="3" d="M280.8 94.1H67.3"/><circle cx="266.6" cy="83.7" r="5.2" class="st17"/><circle cx="249.7" cy="83.7" r="5.2" class="st17"/><circle cx="232.7" cy="83.7" r="5.2" class="st17"/><path fill="none" stroke="#4d5152" stroke-linecap="round" stroke-linejoin="round" stroke-miterlimit="10" stroke-width="2" d="M79.9 109.8h48.9m-48.9 12.8h183.8M79.9 135h183.8M79.9 159h100.3M79.9 170.8h100.3m-100.3 13h100.3M79.9 147.3h183.8"/><path id="Camada_10_00000029013286573895291600000007537878542395381149_" fill="#005cff" d="M275.1 178.8c0 7.7-1.6 15.1-4.5 21.8-8.3 18.6-26.8 31.6-48.5 31.7-5.8 0-11.3-.9-16.5-2.5-9.8-3.1-18.3-9-24.7-16.7-6.7-8-11-18-12.1-29-.2-1.6-.2-3.2-.2-4.8-.1-18.1 8.9-34.1 22.7-43.8 1.8-1.3 3.7-2.4 5.6-3.4 2.7-1.5 5.6-2.7 8.6-3.7 2.8-.9 5.8-1.6 8.8-2 2.4-.3 4.9-.5 7.4-.5 9.8 0 19 2.6 26.9 7.2 1.4.8 2.8 1.7 4.1 2.7 6.3 4.5 11.7 10.4 15.5 17.2.4.8.9 1.5 1.3 2.3.3.7.7 1.4 1 2.1 1 2.3 1.9 4.6 2.6 7 .8 2.7 1.4 5.4 1.7 8.2.1 1.8.3 4 .3 6.2z"/><path d="M226.4 140.5s.7-3.4 4.1-2.6 6.7 1.7 6.7 1.7 2.6.3 1.8 4.3c-.8 3.9-20.5 81.8-20.5 81.8s-.8 2.8-3.7 2.3c-3-.5-6.9-1.6-6.9-1.6s-3-.7-2.1-4.5c1-4 20.6-81.4 20.6-81.4z" class="st4"/><path d="M228.4 138l7.5-2 .3 3s-5 .6-5 .5-2.8-1.5-2.8-1.5zm-12.5 90l7.7-2-4.2-3.1-4 2.2z" class="st4"/><path d="M186.3 152l6.7 6.9s1.8 1.6.5 3.4c-1.3 1.6-17.7 19.9-17.7 19.9s-2.1 1.8.4 4.6 16.9 17.9 16.9 17.9 1.5 1.5.2 3.2-7.2 8.2-7.2 8.2-2.4 1.7-4.3 0c-1.7-1.7-28.2-29-28.2-29s-2.3-2.3.2-4.9l27.7-29.9s2.5-2.6 4.8-.3z" class="st20"/><path d="M183.2 216.6l7.1 2-.3-4.8-7.4-1.2zm8.4-63.6l-7-2 .2 4.9 7.4 1.1z" class="st20"/><path d="M193.2 154l6.7 6.9s1.8 1.6.5 3.4c-1.3 1.6-17.7 19.9-17.7 19.9s-2.1 1.8.4 4.6 16.9 17.9 16.9 17.9 1.5 1.5.2 3.2c-1.3 1.7-7.2 8.2-7.2 8.2s-2.4 1.7-4.3 0c-1.7-1.7-28.2-29-28.2-29s-2.3-2.3.2-4.9l27.7-29.9s2.4-2.7 4.8-.3z" class="st21"/><path d="M256.5 216.7l-6.7-6.9s-1.8-1.6-.5-3.4c1.3-1.6 17.7-19.9 17.7-19.9s2.1-1.8-.4-4.6-16.9-17.9-16.9-17.9-1.5-1.5-.2-3.2 7.2-8.2 7.2-8.2 2.4-1.7 4.3 0c1.7 1.7 28.2 29 28.2 29s2.3 2.3-.2 4.9l-27.7 29.9s-2.5 2.7-4.8.3z" class="st20"/><path d="M266.5 154l-6.8-1.9.2 4.8 7.5 1.3zm-8.7 63.6l6.9 1.9-.1-4.8-7.4-1.1z" class="st20"/><path d="M263.3 218.6l-6.7-6.9s-1.8-1.6-.5-3.4c1.3-1.6 17.7-19.9 17.7-19.9s2.1-1.8-.4-4.6-16.9-17.9-16.9-17.9-1.5-1.5-.2-3.2 7.2-8.2 7.2-8.2 2.4-1.7 4.3 0c1.7 1.7 28.2 29 28.2 29s2.3 2.3-.2 4.9l-27.7 29.9s-2.5 2.7-4.8.3z" class="st21"/><path fill="#54c654" d="M233.4 138.7s.7-3.4 4.1-2.6 6.7 1.7 6.7 1.7 2.6.3 1.8 4.3c-.8 3.9-20.5 81.8-20.5 81.8s-.8 2.8-3.7 2.3c-3-.5-6.9-1.6-6.9-1.6s-3-.7-2.1-4.5c1-3.9 20.6-81.4 20.6-81.4z"/><path d="M261 212.6s8-2.3 13.9-5c2.2-1-6.9 8.1-6.9 8.1s-3.3 3.8-7-3.1zm-44.4 10s5.8-6 9.6-11.3c1.4-1.9-2.1 10.5-2.1 10.5s-.8 5.1-7.5.8zm-30.1-9s7-2.8 12.1-5.8c1.8-1.1-5.6 8.2-5.6 8.2s-2.6 3.9-6.5-2.4z" class="st15"/><g><path fill="#ddd" stroke="#515759" stroke-miterlimit="10" stroke-width="4" d="M144.5 57.9c-3.5 6.3-9.9 10.4-9.9 10.4l-11.7-19.4c-.2-.3-.5-.6-.8-.6h0c-.4-.1-.7 0-1 .1l-9.4 5.9c-.3.3-.5.5-.6 1h0c0 .3 0 .6.2.8l12.1 19.1s-6.8 3.4-14.1 3.3c-6.2-.1 28.6 22.2 38.9 28.8 1.2.8 2.7-.1 2.7-1.5-.8-12.3-3.4-53.3-6.4-47.9z"/><path fill="#fff" d="M138.2 79.3c1.6 4.1 3.5 11.2 4.7 14.3 1.4 3.9 2.6 6.5 3.6 7.7.4.6 1.2.1 1.1-.6 0-1.8-.3-5.6-1.1-13.3v-.1c-.1-3.2-1.8-20.8-2.2-22.3-.1-4-3.8 5.1-8.1 7.3h-.1" opacity=".36"/><path fill="#fff" d="M140.6 75.8c.8 2.3 1.5 6.4 2.2 8.3.7 2.2 1.1 3.7 1.6 4.5.3.3.5.1.6-.4 0-1-.1-3.3-.4-7.8v-.1c0-1.8-.7-12-.8-13 0-2.3-1.8 3-3.9 4.4" opacity=".61"/></g></svg>