<svg xmlns="http://www.w3.org/2000/svg" id="Layer_1" version="1.1" viewBox="0 0 50 50"><defs><style>.st2{fill:none;stroke:#444;stroke-miterlimit:10}</style></defs><path fill="#ff6b6b" d="M47.4 26.1l-.5-4L29.8 4.5l-4.4-1.8c-4.1 0-17.8 12.9-17.8 15.5l-4.3 4-.2 5.9 14.2 14.5 24.8-8.8c.6-.3 6.2-6 5.4-7.6z"/><path fill="none" stroke="#444" stroke-linecap="round" stroke-linejoin="round" stroke-width="2.5" d="M29.4 45.5c-2.4 2.4-6.3 2.4-8.7 0L4.4 29.3C2 26.9 2 23 4.4 20.6L20.6 4.3c2.4-2.4 6.3-2.4 8.7 0l16.2 16.2c2.4 2.4 2.4 6.3 0 8.7l-7.4 7.4"/><path fill="#444" d="M17.5 30.8c-.4 0-.5-.5-.2-.7l6.8-5.6c.3-.3.7-.1.8.2l1.9 8.3c.1.3-.3.7-.6.5l-8.7-2.7z"/><path fill="none" stroke="#444" stroke-miterlimit="10" stroke-width=".5" d="M34.4 10l-5.7-1.8c-.7-.2-1.5.1-1.7.8l-1.9 5.3c-.2.7.2 1.4.9 1.6l5.7 1.8c.7.2 1.5-.1 1.7-.8l1.9-5.3c.2-.7-.2-1.4-.9-1.6z"/><path d="M11.2 35.2L27 40s3.6 1.3 5-1.5c1.5-2.9 8.1-24.1 7.6-24m-35.9 7l9.9 2.5s3.6 1.3 5-1.5c1.5-2.9 7.2-20.5 6.7-20.4" class="st2"/><path d="M12.6 38.5l15.8 4.8s3.7 1.4 5-1.5 8.2-25.4 8.2-25.4" class="st2"/></svg>