<?xml version="1.0" encoding="utf-8"?>
<!-- Generator: Adobe Illustrator 23.0.0, SVG Export Plug-In . SVG Version: 6.00 Build 0)  -->
<svg version="1.0" id="Layer_1" xmlns="http://www.w3.org/2000/svg" xmlns:xlink="http://www.w3.org/1999/xlink" x="0px" y="0px"
	 viewBox="0 0 50 50" enable-background="new 0 0 50 50" xml:space="preserve">
<g>
	<g>
		<g>
			<polygon fill="#00C8E2" points="31.716,7.281 16.821,16.067 3.005,37.563 14.758,37.563 			"/>
		</g>
		<g>
			<polygon fill="#00C8E2" points="48.179,36.449 30.949,42.722 14.755,42.722 34.589,37.561 27.188,22.632 33.915,10.592 			"/>
		</g>
	</g>
	<g>
		<g>
			<polygon fill="#00DFFC" points="31.713,7.278 21.808,24.962 7.832,30.047 16.821,16.071 			"/>
		</g>
		<g>
			<polygon fill="#00DFFC" points="38.493,18.886 27.347,22.949 27.188,22.632 33.915,10.592 			"/>
		</g>
	</g>
	<g>
		<path fill="#444444" d="M35.069,3.851L15.93,15.142L0.715,38.813H15.49L35.069,3.851z M5.294,36.313l12.418-19.319l10.65-6.283
			L14.025,36.313H5.294z"/>
		<path fill="#444444" d="M49.278,35.843L33.924,8.02l-8.147,14.579l7.01,14.141L4.988,43.972h26.728c0.69,0,1.25-0.56,1.25-1.25
			s-0.56-1.25-1.25-1.25h-7.188l11.865-3.087l-7.791-15.716l5.309-9.499l13.179,23.88c0.334,0.605,1.094,0.824,1.698,0.491
			C49.392,37.207,49.611,36.447,49.278,35.843z"/>
	</g>
</g>
</svg>
