<svg xmlns="http://www.w3.org/2000/svg" version="1" viewBox="0 0 50 50"><path fill="#A6C1C2" d="M47.56 31.247l-32.217 11.73C8.204 40.258 2.401 35.244 2.401 31.752c0-1.644 1.148-3.826 3.052-6.031 1.099-5.673 3.712-10.5 7.073-13.61 3.223-2.987 9.296-4.477 12.47-4.477 3.183 0 9.304 1.376 12.43 4.436a25.183 25.183 0 0 1 4.583 6.178 24.642 24.642 0 0 1 2.548 7.562c1.733 1.986 2.799 3.94 3.003 5.437z"/><path fill="#B9D7D9" d="M39.656 14.593L4.036 27.56c.407-.602.879-1.221 1.417-1.839 1.099-5.673 3.712-10.5 7.073-13.61 3.223-2.987 9.296-4.477 12.47-4.477 3.183 0 9.304 1.376 12.43 4.436.79.773 1.538 1.62 2.23 2.523z"/><g fill="#031326"><path d="M45.73 25.256c-.696-3.974-2.427-7.88-4.895-11.17 1.854-.596 3.205-2.315 3.205-4.368a4.602 4.602 0 1 0-9.123-.869C31.583 7.167 27.523 6.383 25 6.383c-2.363 0-6.398.8-9.797 2.474a4.597 4.597 0 0 0-4.515-3.747 4.608 4.608 0 0 0-4.609 4.609c0 1.995 1.275 3.678 3.048 4.319-2.295 3.06-3.962 6.89-4.826 11.117-2.029 2.413-3.151 4.748-3.151 6.598 0 6.32 13.374 14.388 23.85 14.388 2.889 0 5.959-.571 9.126-1.698a1.25 1.25 0 0 0-.838-2.356C30.391 43.118 27.603 43.64 25 43.64c-10.04 0-21.35-7.755-21.35-11.888 0-1.275 1.027-3.224 2.747-5.212.014-.016.017-.036.029-.052.058-.074.097-.157.137-.243.033-.07.067-.137.086-.21.007-.025.024-.044.029-.07 1.008-5.213 3.45-9.928 6.699-12.937C16.299 10.324 22.004 8.883 25 8.883c2.977 0 8.706 1.298 11.552 4.083 3.531 3.458 5.999 8.21 6.769 13.038.037.231.139.447.292.624 2.019 2.313 2.737 4.164 2.737 5.124a1.25 1.25 0 0 0 2.5 0c0-1.816-1.106-4.113-3.12-6.496z"/><path d="M17.901 32.168l.019-.001c.087-.006 2.132-.163 3.218-.431.972-.241 3.115-1.318 3.658-1.595.478.294 2.242 1.355 3.212 1.595 1.086.268 3.131.425 3.218.431a.25.25 0 0 0 .038-.498c-.021-.002-2.09-.16-3.136-.419-.894-.22-2.628-1.264-3.076-1.539v-1.824c0-.027-.021-.045-.029-.069.192-.216.864-.874 1.345-1.162.56-.335 1.912-.8 1.821-1.117-.091-.316-1.938-.117-3.38-.115-1.442-.003-3.289-.201-3.38.115-.091.316 1.26.781 1.821 1.117.476.285 1.134.929 1.336 1.153-.01.027-.033.048-.033.079v1.819c-.557.283-2.634 1.323-3.533 1.545-1.045.259-3.115.417-3.135.419a.25.25 0 0 0-.231.268c.008.13.117.229.247.229zm15.12-16.747c-2.739.812-3.705 3.824-2.687 7.255 1.018 3.432 5.497 7.848 8.236 7.035s2.271-6.116 1.253-9.548c-1.018-3.431-4.063-5.554-6.802-4.742zm-16.439 0c-2.739-.812-5.785 1.311-6.803 4.742-1.018 3.432-1.486 8.735 1.253 9.548s7.218-3.604 8.236-7.035c1.019-3.431.053-6.442-2.686-7.255z"/></g></svg>