<?xml version="1.0" encoding="UTF-8"?>
<svg id="Camada_1" data-name="Camada 1" xmlns="http://www.w3.org/2000/svg" viewBox="0 0 300 300">
  <defs>
    <style>
      .cls-1 {
        fill: #fcb1f3;
      }

      .cls-2 {
        fill: #00bf5f;
      }

      .cls-3 {
        opacity: .61;
      }

      .cls-3, .cls-4, .cls-5 {
        fill: #fff;
      }

      .cls-3, .cls-5, .cls-6 {
        isolation: isolate;
      }

      .cls-7 {
        fill: #dd437a;
      }

      .cls-8 {
        fill: #cecece;
      }

      .cls-9 {
        fill: #ddd;
        stroke: #515759;
        stroke-width: 4px;
      }

      .cls-9, .cls-10, .cls-11 {
        stroke-miterlimit: 10;
      }

      .cls-12 {
        fill: #828d8e;
      }

      .cls-13 {
        fill: #f275a8;
      }

      .cls-14 {
        fill: #ef3030;
      }

      .cls-15 {
        fill: #008dd3;
      }

      .cls-10 {
        stroke: #dd437a;
        stroke-linecap: round;
      }

      .cls-10, .cls-11 {
        fill: none;
      }

      .cls-16 {
        fill: #589363;
      }

      .cls-17 {
        fill: #4d5152;
      }

      .cls-18 {
        fill: #ededed;
      }

      .cls-19 {
        fill: #eaeaea;
      }

      .cls-5 {
        opacity: .36;
      }

      .cls-11 {
        stroke: #cecece;
        stroke-width: 2px;
      }

      .cls-20 {
        fill: #ed9751;
      }

      .cls-6 {
        opacity: .1;
      }
    </style>
  </defs>
  <circle class="cls-15" cx="140" cy="150" r="140"/>
  <g>
    <path class="cls-11" d="M201.83,228.53s30.69.89,44.33,4.21,31.56,14.51,31.56,14.51"/>
    <g>
      <g id="computer">
        <path class="cls-17" d="M285.44,187.25H81.14v-117.2c0-9.3,7.6-16.9,16.9-16.9h170.6c9.3,0,16.9,7.6,16.9,16.9v117.1h0l-.1.1Z"/>
        <path class="cls-1" d="M275.54,68.9v103.55c0,2.04-1.66,3.7-3.7,3.7H91.84v-108.2c0-2.04,1.66-3.7,3.7-3.7h175.35c2.57,0,4.65,2.08,4.65,4.65Z"/>
        <path class="cls-18" d="M275.54,68.39v13.46H91.84v-13.9c0-2.04,1.66-3.7,3.7-3.7h175.86c2.28,0,4.14,1.85,4.14,4.14h0Z"/>
        <path class="cls-1" d="M102.98,69.05h116.87c2.49,0,4.5,2.01,4.5,4.5h0c0,2.49-2.01,4.5-4.5,4.5h-116.87c-2.49,0-4.5-2.01-4.5-4.5h0c0-2.49,2.01-4.5,4.5-4.5Z"/>
        <path class="cls-19" d="M274.54,211.05H91.84c-5.9,0-10.9-4.8-10.9-10.9v-12.9h204.4v12.9c0,6-4.8,10.9-10.9,10.9h.1Z"/>
        <path class="cls-19" d="M165.54,235.35c-2.4,0-4.2-2.2-3.6-4.6,1.3-5.3,3.5-14.2,5.3-19.4l.2-.4h31.6l.3.7c2.2,6.2,4,12.6,5.4,19,.5,2.3-1.3,4.5-3.6,4.5l-35.6.2Z"/>
        <path class="cls-12" d="M198.14,223.15c2.5,0,4.3-2.4,3.5-4.7-.7-2.2-1.5-4.5-2.2-6.7l-.3-.7h-31.6l-.2.4c-.9,2.3-1.6,4.7-2.2,7.1-.7,2.3,1.1,4.7,3.5,4.7h29.5v-.1Z"/>
      </g>
      <g>
        <circle class="cls-14" cx="263.34" cy="73.55" r="4.5"/>
        <circle class="cls-20" cx="248.74" cy="73.55" r="4.5"/>
        <circle class="cls-2" cx="234.04" cy="73.55" r="4.5"/>
      </g>
    </g>
    <g>
      <path class="cls-8" d="M261.2,240.71s-5.44,5.05-2.12,14.1,17.69,25.76,35.49,19.25c9.06-3.31,4.05-16.52,4.05-16.52"/>
      <g>
        <path class="cls-19" d="M261.83,257.15c2.3,3.3,5.6,6.6,9.7,9.2,10.6,6.8,22.6,7.2,26.6.8,4-6.3-1.1-16.8-11.5-23.7-.1,0-.2-.1-.3-.2-10.6-6.8-22.6-7.2-26.6-.8-2.5,3.9-1.5,9.4,2.1,14.7h0Z"/>
        <path class="cls-19" d="M261.83,257.15c2.3,3.3,5.6,6.6,9.7,9.2,10.6,6.8,22.6,7.2,26.6.8,4-6.3-1.1-16.8-11.5-23.7-6.9-.6-16.9,1.1-24.9,13.6l.1.1h0Z"/>
        <path class="cls-10" d="M275.8,244.19s-4.85-5.36-11.62-4.43"/>
      </g>
      <path class="cls-10" d="M261.83,257.15s7.33-14.83,24.5-13.9"/>
      <g>
        <path class="cls-13" d="M270.81,240.21l5.62,3.87s1.47-1.99-.98-4.05c-2.14-1.8-4.64.18-4.64.18h0Z"/>
        <polyline class="cls-13" points="275.06 244.62 276.43 244.08 274.56 240.61 270.54 240.56"/>
        <path class="cls-7" d="M269.99,240.9l5.06,3.72s2.34-2.17-.32-4.31c-2.47-1.98-4.74.59-4.74.59h0Z"/>
      </g>
    </g>
    <g>
      <g>
        <path class="cls-8" d="M104.18,248.88l130.93-1c1.08,0,2.09.7,2.67,1.9l15.33,26.62c4.89,6.98-.6,10.55-3.27,10.55H88.42c-2.67,0-5.26-3.74-1.97-10.12l15.05-26.05c.58-1.2,1.59-1.9,2.67-1.9h.01Z"/>
        <path class="cls-19" d="M104.18,245.76h130.93c1.08,0,2.09.67,2.67,1.83l14.73,27.46c1.52,2.89,0,6.84-2.67,6.84H89.59c-2.67,0-4.19-3.95-2.67-6.84l14.59-27.46c.58-1.16,1.59-1.83,2.67-1.83Z"/>
        <g>
          <line class="cls-10" x1="103.03" y1="277.27" x2="116.02" y2="249.54"/>
          <line class="cls-10" x1="115.09" y1="277.27" x2="127.94" y2="249.43"/>
          <line class="cls-10" x1="128.16" y1="277.27" x2="139.38" y2="249.43"/>
          <line class="cls-10" x1="142.31" y1="277.27" x2="149.49" y2="249.43"/>
          <line class="cls-10" x1="155.75" y1="272.68" x2="159.53" y2="249.43"/>
          <line class="cls-10" x1="169.28" y1="249.43" x2="168.67" y2="272.68"/>
          <line class="cls-10" x1="179.39" y1="249.48" x2="181.46" y2="272.78"/>
          <line class="cls-10" x1="189.94" y1="249.48" x2="193.37" y2="272.68"/>
          <line class="cls-10" x1="200.26" y1="249.23" x2="207.45" y2="277.27"/>
          <line class="cls-10" x1="211.99" y1="249.48" x2="215.04" y2="259.28"/>
          <line class="cls-10" x1="221.25" y1="277.27" x2="217.4" y2="266.11"/>
          <line class="cls-10" x1="224.16" y1="249.23" x2="235.84" y2="277.27"/>
          <line class="cls-10" x1="103.03" y1="253.58" x2="235.53" y2="253.58"/>
          <line class="cls-10" x1="96.71" y1="266.38" x2="241.49" y2="266.06"/>
          <line class="cls-10" x1="93.36" y1="272.78" x2="244.46" y2="272.46"/>
          <line class="cls-10" x1="100.01" y1="259.48" x2="215.04" y2="259.48"/>
        </g>
      </g>
      <path class="cls-10" d="M106.07,249.09h126.25c.66,0,1.28.46,1.65,1.23l10.86,22.7c.87,1.82-.07,4.25-1.65,4.25H94.49c-1.6,0-2.54-2.51-1.62-4.32l11.59-22.7c.37-.73.97-1.16,1.62-1.16h-.01Z"/>
      <polygon class="cls-7" points="213.51 253.58 225.97 253.58 231.04 265.74 204.82 266.06 202.89 259.48 215.04 259.28 215.04 258.87 213.51 253.58"/>
      <polyline class="cls-7" points="143.47 272.78 206.28 272.68 207.45 277.27 142.31 277.27"/>
    </g>
  </g>
  <g>
    <path class="cls-16" d="M233.91,100.97c-8.94-18.77-28.09-31.77-50.23-31.77-30.66,0-55.6,24.94-55.6,55.6,0,17.06,7.73,32.35,19.86,42.56,9.67,8.13,22.14,13.04,35.74,13.04,30.66,0,55.6-24.94,55.6-55.6,0-8.52-1.93-16.61-5.38-23.83Z"/>
    <path class="cls-4" d="M183.69,68.1c-31.27,0-56.71,25.44-56.71,56.71s25.44,56.71,56.71,56.71,56.71-25.44,56.71-56.71-25.44-56.71-56.71-56.71ZM239.29,124.26h-10.79c-.07-8.6-1.64-16.74-4.43-24.03h9.49c3.59,7.26,5.64,15.41,5.73,24.03ZM227.41,125.36c-.07,8.61-1.68,16.76-4.5,24.02h-78.43c-2.82-7.26-4.43-15.41-4.5-24.02v-1.1c.07-8.62,1.68-16.76,4.5-24.03h78.43c2.82,7.26,4.43,15.41,4.5,24.03v1.1ZM171.95,150.48h23.49c-1.02,7.96-2.49,14.84-4.26,19.99h-14.96c-1.77-5.15-3.24-12.03-4.26-19.99ZM175.05,170.47h-16.28c-5.79-5.13-10.56-11.99-13.85-19.99h25.88c1,7.95,2.46,14.78,4.25,19.99ZM196.58,150.48h25.88c-3.29,8-8.06,14.86-13.85,19.99h-16.28c1.79-5.21,3.25-12.05,4.25-19.99ZM195.43,99.13h-23.49c1.02-7.96,2.49-14.84,4.26-19.99h14.96c1.77,5.15,3.24,12.03,4.26,19.99ZM192.33,79.14h16.28c5.79,5.13,10.56,11.99,13.85,19.99h-25.88c-1-7.95-2.46-14.78-4.25-19.99ZM170.8,99.13h-25.88c3.29-8,8.06-14.86,13.85-19.99h16.28c-1.79,5.21-3.25,12.05-4.25,19.99ZM233,99.13h-9.36c-3.19-7.91-7.81-14.76-13.42-19.99h5.15c7.37,5.13,13.44,11.99,17.62,19.99ZM213.75,78.04h-4.74c-3.36-2.92-7.04-5.28-10.97-6.96,5.64,1.51,10.92,3.88,15.71,6.96ZM207.32,78.04h-15.39c-1.53-4.15-3.28-7.15-5.18-8.71,7.54.67,14.56,3.77,20.57,8.71ZM183.69,69.2c2.58,0,5.02,3.27,7.09,8.85h-14.18c2.07-5.58,4.5-8.85,7.09-8.85ZM175.44,78.04h-15.39c6.01-4.93,13.03-8.04,20.57-8.71-1.9,1.56-3.65,4.56-5.18,8.71ZM169.33,71.08c-3.93,1.68-7.61,4.04-10.97,6.96h-4.74c4.79-3.09,10.07-5.46,15.71-6.96ZM151.99,79.14h5.15c-5.61,5.23-10.23,12.08-13.42,19.99h-9.36c4.18-8,10.25-14.86,17.62-19.99ZM133.81,100.23h9.49c-2.78,7.29-4.36,15.43-4.43,24.03h-10.79c.09-8.62,2.13-16.76,5.73-24.03ZM128.09,125.36h10.79c.07,8.6,1.64,16.74,4.43,24.02h-9.49c-3.59-7.26-5.64-15.41-5.73-24.02ZM134.37,150.48h9.36c3.19,7.91,7.81,14.76,13.42,19.99h-5.15c-7.37-5.13-13.44-11.99-17.62-19.99ZM153.63,171.57h4.74c3.36,2.92,7.05,5.28,10.97,6.96-5.64-1.51-10.92-3.88-15.71-6.96ZM160.05,171.57h15.39c1.53,4.15,3.28,7.14,5.18,8.71-7.54-.67-14.56-3.77-20.57-8.71ZM183.69,180.41c-2.58,0-5.02-3.27-7.09-8.85h14.18c-2.07,5.58-4.5,8.85-7.09,8.85ZM191.94,171.57h15.39c-6.01,4.93-13.03,8.04-20.57,8.71,1.9-1.57,3.65-4.56,5.18-8.71ZM198.04,178.53c3.93-1.68,7.61-4.04,10.97-6.96h4.74c-4.79,3.09-10.07,5.46-15.71,6.96ZM215.38,170.47h-5.15c5.61-5.23,10.23-12.08,13.42-19.99h9.36c-4.18,8-10.25,14.86-17.62,19.99ZM233.56,149.38h-9.49c2.78-7.28,4.36-15.42,4.43-24.02h10.79c-.09,8.61-2.13,16.76-5.73,24.02Z"/>
    <g>
      <path class="cls-4" d="M187.47,139.81c0-2.14-1.74-3.88-3.88-3.88s-3.88,1.74-3.88,3.88,1.74,3.88,3.88,3.88,3.88-1.74,3.88-3.88Z"/>
      <path class="cls-4" d="M193.47,135.81c-.61,0-1.22-.23-1.68-.7-2.18-2.18-5.09-3.39-8.17-3.39s-5.84,1.14-8,3.21c-.95.91-2.45.88-3.36-.07-.91-.95-.88-2.45.07-3.36,3.05-2.93,7.06-4.54,11.29-4.54s8.45,1.7,11.53,4.78c.93.93.93,2.43,0,3.36-.46.46-1.07.7-1.68.7Z"/>
      <path class="cls-4" d="M199.41,129.76c-.65,0-1.3-.27-1.77-.79-3.58-3.97-8.69-6.25-14.03-6.25s-10.33,2.23-13.9,6.11c-.89.97-2.39,1.03-3.36.14-.97-.89-1.03-2.39-.14-3.36,4.46-4.86,10.8-7.64,17.4-7.64s13.09,2.85,17.56,7.82c.88.98.8,2.48-.18,3.36-.45.41-1.02.61-1.59.61Z"/>
      <path class="cls-4" d="M205.53,123.36c-.6,0-1.2-.23-1.67-.68-5.44-5.34-12.63-8.28-20.25-8.28s-14.69,2.89-20.11,8.15c-.94.91-2.45.89-3.36-.05-.91-.94-.89-2.45.05-3.36,6.31-6.12,14.63-9.49,23.42-9.49s17.25,3.42,23.58,9.64c.94.92.95,2.42.03,3.36-.47.47-1.08.71-1.7.71Z"/>
    </g>
    <path class="cls-6" d="M239.29,124.81c0,30.66-24.94,55.6-55.6,55.6-13.6,0-26.07-4.91-35.74-13.04,20.05,10.79,64.99,11.16,85.97-66.39,3.45,7.23,5.38,15.31,5.38,23.83Z"/>
  </g>
  <g>
    <path class="cls-9" d="M85.56,171.05c8.39,1.15,15.52,6.4,15.52,6.4l-16.22,20.91c-.29.3-.42.81-.34,1.15h0c.1.46.29.77.59,1.07l10.44,7.76c.42.27.79.31,1.36.18h0c.34-.08.66-.26.84-.54l15.67-21.27s6.58,5.97,9.52,13.94c2.44,6.76,12.16-40.48,14.95-54.49.36-1.63-1.25-2.96-2.77-2.26-13.16,6-56.72,26.1-49.55,27.16Z"/>
    <path class="cls-5" d="M111.53,168.94c3.79-3.46,10.68-8.57,13.59-11.12,3.61-3.19,5.95-5.61,6.92-7.14.45-.7-.42-1.34-1.16-.94-1.98.79-6,2.63-14.06,6.8l-.11.03c-3.39,1.46-21.94,10.68-23.36,11.83-4.28,1.78,7.14,2.02,11.32,5.77l.03.11"/>
    <path class="cls-3" d="M106.72,167.72c2.24-1.81,6.34-4.38,8.16-5.86,2.15-1.67,3.57-2.82,4.22-3.68.27-.42-.13-.57-.7-.45-1.09.48-3.5,1.49-8.27,3.73l-.11.03c-1.98.79-12.84,5.81-13.79,6.38-2.52,1.03,3.98.68,6.39,2.42h0"/>
  </g>
</svg>