<svg xmlns="http://www.w3.org/2000/svg" version="1" viewBox="0 0 50 50"><path fill="#87D69B" d="M46.34 15.045C42.586 7.018 34.444 1.453 25 1.453 11.996 1.453 1.454 11.996 1.454 25c0 2.107.28 4.147.8 6.09L46.34 15.045z"/><path fill="#ABE2B9" d="M35.55 3.83a23.44 23.44 0 0 0-10.315-2.376c-9.588 0-17.83 5.734-21.504 13.957L35.55 3.83z"/><path fill="#444" d="M25 .25C11.353.25.25 11.353.25 25c0 1.758.186 3.514.55 5.217a1.204 1.204 0 0 0 2.354-.505A22.506 22.506 0 0 1 2.657 25C2.657 12.68 12.68 2.657 25 2.657S47.343 12.68 47.343 25 37.32 47.343 25 47.343c-7.48 0-14.325-3.648-18.497-9.805l7.452-7.45 5.802 5.802L35.48 20.167v7.54a1.203 1.203 0 0 0 2.406 0V18.23c0-1.197-.973-2.17-2.17-2.17h-9.48a1.203 1.203 0 0 0 0 2.405h7.54L19.76 32.487l-5.802-5.802L3.44 37.2l.502.81C8.492 45.36 16.365 49.75 25 49.75c13.647 0 24.75-11.102 24.75-24.75C49.75 11.353 38.648.25 25 .25z"/></svg>