<svg xmlns="http://www.w3.org/2000/svg" version="1" viewBox="0 0 50 50"><path fill="#FCC34F" d="M4.818 45.536l42.145-15.339V8.454a5.417 5.417 0 00-5.417-5.417H8.454a5.417 5.417 0 00-5.417 5.417v33.091c0 1.587.694 3 1.781 3.991z"/><path fill="#FDCF72" d="M45.18 4.463a5.378 5.378 0 00-3.635-1.425H8.454a5.417 5.417 0 00-5.417 5.417v11.347L45.18 4.463z"/><path fill="#031326" d="M25.001 48.137H8.454a6.599 6.599 0 01-6.591-6.591V8.455a6.599 6.599 0 016.591-6.592h33.091a6.599 6.599 0 016.591 6.592v21.739a1.175 1.175 0 11-2.35 0V8.455a4.247 4.247 0 00-4.242-4.242H8.454a4.247 4.247 0 00-4.242 4.242v33.091a4.247 4.247 0 004.242 4.242h16.547a1.175 1.175 0 110 2.349z"/><path fill="#031326" d="M38.092 31.284A14.43 14.43 0 0039.54 25c0-3.01-.919-5.809-2.491-8.131l-.016-.021c-2.618-3.853-7.034-6.389-12.034-6.389-.317 0-.628.028-.94.048-.044 0-.085-.001-.129.007-5.242.384-9.712 3.552-11.944 8.035a.72.72 0 00-.074.153A14.423 14.423 0 0010.457 25c0 3.01.92 5.809 2.492 8.132l.014.018C15.583 37.004 20 39.541 25 39.541c5.693 0 10.619-3.297 13.005-8.075a.763.763 0 00.087-.182zm-1.197-.968H29.8l6.659-11.534A12.964 12.964 0 0138.039 25a12.922 12.922 0 01-1.144 5.316zm-11.924 0A5.324 5.324 0 0119.68 25a5.324 5.324 0 015.311-5.318h.017A5.324 5.324 0 0130.318 25c0 2.923-2.37 5.3-5.29 5.316h-.057zm10.576-12.953L32.004 23.5l-2.806-4.86-.002-.003-3.846-6.661c4.193.113 7.89 2.209 10.197 5.387zm-11.898-5.334l3.552 6.152h-2.185l-.017-.001-.017.001H13.904c2.075-3.363 5.622-5.726 9.745-6.152zm-10.545 7.652H20.2l-6.661 11.536a12.965 12.965 0 01-.435-11.536zm1.347 12.956l3.544-6.137 6.651 11.523c-4.191-.113-7.888-2.209-10.195-5.386zm11.897 5.334l-3.552-6.155h2.146c.019 0 .038.003.058.003s.038-.003.058-.003h3.431c.004 0 .007.003.011.003.004 0 .007-.003.011-.003h7.585c-2.075 3.366-5.624 5.729-9.748 6.155z"/></svg>