<?xml version="1.0" encoding="utf-8"?>
<!-- Generator: Adobe Illustrator 22.1.0, SVG Export Plug-In . SVG Version: 6.00 Build 0)  -->
<svg version="1.1" id="Layer_1" xmlns="http://www.w3.org/2000/svg" xmlns:xlink="http://www.w3.org/1999/xlink" x="0px" y="0px"
	 viewBox="0 0 50 50" style="enable-background:new 0 0 50 50;" xml:space="preserve">
<style type="text/css">
	.st0{fill:#FFB969;}
	.st1{fill:#FFC787;}
	.st2{fill:#444444;}
</style>
<g>
	<polygon class="st0" points="47.7,26 48.1,30.3 1.6,47.2 1.8,38.1 2.1,32.9 48.4,16.1 47.7,19.8 	"/>
</g>
<g>
	<polygon class="st1" points="47.9,9.3 47.3,17 1.8,33.6 1.9,23.8 2.2,19.3 48,2.7 	"/>
</g>
<g>
	<path class="st2" d="M48,49.1H1.9c-0.7,0-1.2-0.6-1.2-1.2V2.1c0-0.7,0.6-1.2,1.2-1.2h20.4c0.7,0,1.2,0.6,1.2,1.2S23,3.4,22.3,3.4
		H3.1v43.3h43.7V2.8c0-0.7,0.6-1.2,1.2-1.2s1.2,0.6,1.2,1.2v45.1C49.3,48.6,48.7,49.1,48,49.1z"/>
</g>
<g>
	<path class="st2" d="M35.1,17.3c0,1.9-0.5,3.5-1.6,4.8c-1.1,1.3-2.6,2.2-4.5,2.7l5.2,10.7h3.6v3.7h-6.6l-6.5-13.8h-4.1v10.1h3.8
		v3.7H12.1v-3.7h4V13.2h-4V9.6h12.3c3.8,0,6.5,0.6,8.2,1.9C34.3,12.7,35.1,14.6,35.1,17.3z M30.5,17.2c0-1.4-0.4-2.4-1.3-3
		c-0.9-0.6-2.2-1-4.1-1h-4.6v8.4h4.3c1.9,0,3.3-0.3,4.3-1S30.5,18.8,30.5,17.2z"/>
</g>
</svg>
