<?xml version="1.0" encoding="utf-8"?>
<!-- Generator: Adobe Illustrator 22.0.1, SVG Export Plug-In . SVG Version: 6.00 Build 0)  -->
<svg version="1.1" id="Layer_1" xmlns="http://www.w3.org/2000/svg" xmlns:xlink="http://www.w3.org/1999/xlink" x="0px" y="0px"
	 viewBox="0 0 50 50" style="enable-background:new 0 0 50 50;" xml:space="preserve">
<style type="text/css">
	.st0{fill:#46B8B0;}
	.st1{fill:#4ECDC4;}
	.st2{fill:#444444;}
</style>
<g>
	<g>
		<g>
			<path class="st0" d="M47.3,26.1c0-0.4,0-0.8,0-1.1c0-12.3-10-22.3-22.3-22.3S2.7,12.7,2.7,25c0,5.9,2.3,11.2,6,15.2L47.3,26.1z"
				/>
		</g>
		<g>
			<path class="st1" d="M38.1,7C34.4,4.3,29.9,2.7,25,2.7C14.6,2.7,5.8,9.9,3.4,19.6L38.1,7z"/>
		</g>
		<path class="st2" d="M44.8,12.3c0.7-0.9,1.1-1.9,1.1-3.1c0-2.8-2.3-5.1-5.1-5.1c-1.2,0-2.3,0.4-3.1,1.1C34,2.8,29.7,1.5,25,1.5
			C12,1.5,1.5,12,1.5,25S12,48.5,25,48.5c3.9,0,7.8-1,11.3-2.9c0.6-0.3,0.8-1.1,0.5-1.7c-0.3-0.6-1.1-0.8-1.7-0.5
			C32,45.1,28.5,46,25,46C13.4,46,4,36.6,4,25C4,13.4,13.4,4,25,4c4.1,0,7.9,1.2,11.1,3.2c-0.3,0.6-0.4,1.3-0.4,2
			c0,2.8,2.3,5.1,5.1,5.1c0.7,0,1.4-0.2,2-0.4c2,3.2,3.2,7,3.2,11.1c0,0.4,0,0.7,0,1.1c0,0.7,0.5,1.3,1.2,1.3c0.7,0,1.3-0.5,1.3-1.2
			c0-0.4,0-0.8,0-1.2C48.5,20.3,47.2,16,44.8,12.3z"/>
	</g>
	<g>
		<path class="st2" d="M34,31.4h-4.5v6.6h-1.7v-6.6H14.5v-1.2l12.9-18.3h2.1v18H34V31.4z M27.9,29.9v-7.4c0-3.6,0.1-6.6,0.2-9H28
			c-0.2,0.4-1,1.6-2.2,3.3l-9.2,13.1H27.9z"/>
	</g>
</g>
</svg>
