<svg xmlns="http://www.w3.org/2000/svg" version="1" viewBox="0 0 50 50"><path fill="#DC5E82" d="M47.253 26.144c.019-.377.029-.757.029-1.139 0-12.307-9.976-22.283-22.282-22.283S2.718 12.699 2.718 25.005A22.202 22.202 0 0 0 8.69 40.18l38.563-14.036z"/><path fill="#F56991" d="M38.106 6.978a22.178 22.178 0 0 0-13.099-4.261c-10.449 0-19.215 7.194-21.624 16.898L38.106 6.978z"/><g fill="#444"><path d="M44.819 12.337a5.074 5.074 0 0 0 1.092-3.127 5.121 5.121 0 0 0-5.121-5.121c-1.184 0-2.26.418-3.127 1.092A23.386 23.386 0 0 0 25 1.468C12.024 1.468 1.468 12.024 1.468 25S12.024 48.532 25 48.532c3.938 0 7.836-.992 11.271-2.87a1.25 1.25 0 0 0-1.199-2.193 21.05 21.05 0 0 1-10.071 2.563C13.403 46.032 3.968 36.598 3.968 25 3.968 13.403 13.403 3.968 25 3.968a20.87 20.87 0 0 1 11.098 3.2 5.093 5.093 0 0 0-.429 2.042 5.121 5.121 0 0 0 5.121 5.121c.727 0 1.416-.156 2.042-.429 2.015 3.226 3.2 7.022 3.2 11.098 0 .363-.009.724-.027 1.082a1.249 1.249 0 0 0 1.184 1.312 1.236 1.236 0 0 0 1.312-1.184 23.385 23.385 0 0 0-3.682-13.873z"/><path d="M14.697 25c0 5.681 4.622 10.303 10.303 10.303 5.681 0 10.303-4.622 10.303-10.303 0-5.681-4.622-10.303-10.303-10.303-5.681 0-10.303 4.622-10.303 10.303zm19.106 0c0 4.854-3.949 8.803-8.803 8.803-4.854 0-8.803-3.949-8.803-8.803 0-4.854 3.949-8.803 8.803-8.803 4.854 0 8.803 3.949 8.803 8.803z"/></g></svg>