<?xml version="1.0" encoding="utf-8"?>
<!-- Generator: Adobe Illustrator 28.0.0, SVG Export Plug-In . SVG Version: 6.00 Build 0)  -->
<svg version="1.1" id="Layer_1" xmlns="http://www.w3.org/2000/svg" xmlns:xlink="http://www.w3.org/1999/xlink" x="0px" y="0px"
	 viewBox="0 0 50 50" style="enable-background:new 0 0 50 50;" xml:space="preserve">
<style type="text/css">
	.st0{fill:#04AD49;}
	.st1{fill:#22DD6D;}
	.st2{fill:none;stroke:#444444;stroke-width:2.5;stroke-linecap:round;stroke-linejoin:round;stroke-miterlimit:10;}
	.st3{fill:none;stroke:#444444;stroke-linecap:round;stroke-linejoin:round;stroke-miterlimit:10;}
	.st4{fill:none;stroke:#444444;stroke-width:0.5;stroke-linecap:round;stroke-linejoin:round;stroke-miterlimit:10;}
	.st5{fill:#444444;}
</style>
<polygon class="st0" points="30.7,20.4 38.6,22.8 31.9,27.6 32,35.8 25.4,30.9 17.6,33.5 20.3,25.7 15.3,19.1 23.5,19.2 28.3,12.5 
	"/>
<path class="st1" d="M44.6,12.4L39,8.8l-7.7-4.4l-6-2.8c-3.2,0-21.5,8.9-21.5,12.1l-0.5,7.8l0.5,15.1l11.5,7.6l31-11
	C47.2,32.7,45.6,14.4,44.6,12.4z"/>
<g>
	<g>
		<path class="st2" d="M29.9,46.5l-2.2,1.3c-1.7,1-3.8,1-5.5,0l-15.6-9C5,37.8,3.9,36,3.9,34V16c0-2,1-3.8,2.7-4.7l15.6-9
			c1.7-1,3.8-1,5.5,0l15.6,9c1.7,1,2.7,2.8,2.7,4.7v18c0,2-1,3.8-2.7,4.7l-2.5,1.4"/>
	</g>
</g>
<g>
	<g>
		<path class="st3" d="M22.2,17.4c0,0-6,1.8-6.9,7.1c0,0,0,0,0,0.1c-0.1,0.6-0.9,9.1,10,9.7c0,0,0.1,0,0.1,0c1.9,0,5-0.4,8.8-3.2
			c0.1-0.1,0.2-0.1,0.2-0.1l0.9-0.2c0.4-0.1,0.8-0.4,1-0.8l0.3-0.6c0.3-0.5,0.2-1.2-0.2-1.6L35.9,27c-0.1-0.1-0.1-0.2-0.2-0.4
			c-0.1-0.6-0.3-2.3-0.9-4"/>
		<path class="st3" d="M31.4,21.2c0,0,2.3-2.1,5.2-1.2l-2.9,4"/>
		<path class="st3" d="M33.1,20.1c0,0-2.2-1.9-4.7-2.7"/>
		<polyline class="st3" points="17.6,31.3 15.5,35.7 17.6,35.4 18.5,37.2 20.7,33.3 		"/>
		<polyline class="st3" points="29.4,33.6 30.5,37.2 31.7,35.4 33.8,36.3 32.7,32.1 		"/>
		<path class="st4" d="M21.8,20.4c0,0,3.1-2.2,7.8,0"/>
		<path class="st4" d="M15.3,24.4c0,0-2.8-0.8-1.9-2.1c0.6-0.9,2.2,0.8-0.2,2.8"/>
		<circle class="st4" cx="25.4" cy="14.6" r="3.9"/>
		<circle class="st5" cx="34" cy="27.4" r="0.5"/>
	</g>
	<g>
		<path class="st4" d="M26.6,13.7v-0.2c0-0.4-0.3-0.7-0.7-0.7h-1c-0.4,0-0.7,0.3-0.7,0.7v0.3c0,0.4,0.3,0.7,0.7,0.7h1
			c0.4,0,0.7,0.3,0.7,0.7v0.3c0,0.4-0.3,0.7-0.7,0.7h-1c-0.4,0-0.7-0.3-0.7-0.7v0"/>
		<line class="st4" x1="25.4" y1="12.4" x2="25.4" y2="16.8"/>
	</g>
</g>
</svg>
