<svg xmlns="http://www.w3.org/2000/svg" viewBox="0 0 50 50"><defs><style>.cls-3{fill:#444}</style></defs><g id="Layer_4" data-name="Layer 4"><rect width="24.32" height="25.18" x="12.89" y="6.81" fill="#f799ff" rx="1.29" ry="1.29"/><path fill="#e589ef" d="M12.33 23.32v19.6l24.84-9.04v-19.6l-24.84 9.04z"/><path d="M17.91 24.11h-.1A1.14 1.14 0 0 1 16.67 23v-2.16a1.14 1.14 0 0 1 1.14-1.15 1.18 1.18 0 0 1 1.25 1.15V23a1.15 1.15 0 0 1-1.15 1.11zm13.36 0h-.1A1.14 1.14 0 0 1 30 23v-2.16a1.14 1.14 0 0 1 1.14-1.15 1.17 1.17 0 0 1 1.25 1.15V23a1.14 1.14 0 0 1-1.12 1.11zm-6.51 8.65a8.13 8.13 0 0 1-7-4.06.75.75 0 0 1 .27-1 .76.76 0 0 1 .97.3 6.63 6.63 0 0 0 11.48 0 .75.75 0 1 1 1.29.75 8.13 8.13 0 0 1-7.01 4.01z" class="cls-3"/><circle cx="20.71" cy="10.21" r=".54" class="cls-3"/><rect width="6.58" height=".56" x="21.84" y="9.92" class="cls-3" rx=".25" ry=".25"/><path d="M33.87 39.7h-18a1.32 1.32 0 0 1-1.32-1.32v-24.9a1.32 1.32 0 0 1 1.32-1.32h18a1.32 1.32 0 0 1 1.31 1.32v24.9a1.32 1.32 0 0 1-1.31 1.32zm-18-27.05a.82.82 0 0 0-.82.83v24.9a.81.81 0 0 0 .82.82h18a.82.82 0 0 0 .82-.82v-24.9a.83.83 0 0 0-.82-.83z" class="cls-3"/><path d="M42 20.24a11 11 0 0 0-3.39-.45V9.56a3.88 3.88 0 0 0-3.87-3.87H15a3.84 3.84 0 0 0-3.7 2.83.51.51 0 0 0-.53-.39 4.82 4.82 0 0 0 .36 9.63v1.11A5.93 5.93 0 0 1 10.9 7a.49.49 0 0 0 .46-.53.49.49 0 0 0-.52-.47 6.93 6.93 0 0 0 .32 13.85V21A8 8 0 0 1 7 19.83a8.11 8.11 0 0 1 3.52-15 .5.5 0 0 0 .45-.54.51.51 0 0 0-.54-.45 9.1 9.1 0 0 0-3.95 16.8A9.17 9.17 0 0 0 11.16 22v.85A9.94 9.94 0 0 1 10 3.08a.5.5 0 0 0-.13-1 10.94 10.94 0 0 0 1.31 21.79v20.18A3.87 3.87 0 0 0 15 47.91h19.69a3.87 3.87 0 0 0 3.87-3.86 1.24 1.24 0 1 0-2.48 0 1.38 1.38 0 0 1-1.39 1.38H15a1.38 1.38 0 0 1-1.38-1.38V9.56A1.38 1.38 0 0 1 15 8.18h19.69a1.38 1.38 0 0 1 1.39 1.38v23.09a1.24 1.24 0 0 0 2.48 0v-5.76a4 4 0 0 1 1.32.14 3.83 3.83 0 0 1 2.55 4.79 3.88 3.88 0 0 1-3.38 2.71.5.5 0 0 0 0 1 4.87 4.87 0 0 0 4.26-3.41 4.84 4.84 0 0 0-3.21-6 5 5 0 0 0-1.61-.18v-1.16a5.75 5.75 0 0 1 1.93.24A5.94 5.94 0 0 1 39 36.64a.5.5 0 0 0 0 1 6.94 6.94 0 0 0 1.73-13.57 6.5 6.5 0 0 0-2.22-.29v-1.17a7.79 7.79 0 0 1 2.56.34 8.11 8.11 0 0 1-2.31 15.86.5.5 0 0 0 0 1A9.1 9.1 0 0 0 41.41 22a9.29 9.29 0 0 0-2.85-.39v-.84a9.94 9.94 0 1 1-.26 19.87.47.47 0 0 0-.51.47.48.48 0 0 0 .47.52h.51A10.94 10.94 0 0 0 42 20.24zM11.16 9.56v7.2a3.75 3.75 0 0 1-1.94-.55 3.84 3.84 0 0 1 1.67-7.09.53.53 0 0 0 .34-.12 3.08 3.08 0 0 0-.07.56z" class="cls-3"/><path d="M25 45.06a2.35 2.35 0 1 1 2.34-2.35A2.35 2.35 0 0 1 25 45.06zm0-3.69a1.35 1.35 0 1 0 1.34 1.34A1.34 1.34 0 0 0 25 41.37z" class="cls-3"/></g></svg>