<?xml version="1.0" encoding="UTF-8"?>
<svg id="Layer_1" data-name="Layer 1" xmlns="http://www.w3.org/2000/svg" version="1.1" viewBox="0 0 50 50">
  <defs>
    <style>
      .cls-1 {
        fill: #35d3c3;
      }

      .cls-1, .cls-2 {
        stroke-width: 0px;
      }

      .cls-3, .cls-4, .cls-5, .cls-6, .cls-7 {
        fill: none;
      }

      .cls-3, .cls-6 {
        stroke-linecap: round;
        stroke-linejoin: round;
      }

      .cls-3, .cls-6, .cls-7 {
        stroke: #444;
      }

      .cls-8 {
        fill: #1d1d1b;
      }

      .cls-8, .cls-4, .cls-5 {
        stroke: #444;
      }

      .cls-8, .cls-4, .cls-5, .cls-7 {
        stroke-miterlimit: 10;
      }

      .cls-5, .cls-7 {
        stroke-width: .5px;
      }

      .cls-6 {
        stroke-width: 2.5px;
      }

      .cls-2 {
        fill: #7df4eb;
      }
    </style>
  </defs>
  <g>
    <polygon class="cls-1" points="29.5 20.9 37.4 23.4 30.7 28.1 30.8 36.3 24.2 31.4 16.4 34 19.1 26.3 14.2 21.7 22.4 19.8 27.1 13.1 29.5 20.9"/>
    <g>
      <g>
        <path class="cls-2" d="M37,32.4l.2,7.2-25.6,9.1-1.3-.9-.7-13.4.6-11.7.2-14.9c0-1.6,0-6,1.6-6h21.4c1.6,0,3.2,1.3,3.2,2.9l-.2,8.2,4.9,4.8,1.2,5.7-1.1,5.3-1.9,3.3-2.5.4"/>
        <path class="cls-6" d="M29.6,48.4H13.2c-2,0-3.6-1.6-3.6-3.6V5.1c0-2,1.6-3.6,3.6-3.6h20c2,0,3.6,1.6,3.6,3.6v7.8"/>
        <path class="cls-6" d="M36.7,12.9c3.5,2.2,5.8,6,5.8,10.5s-2.5,8.4-5.8,10.6h0v8.4"/>
        <path class="cls-7" d="M19.3,1.6h7.2c1.3,0,2.4,1.1,2.4,2.4v.9c0,.3-.3.6-.6.6h-10.9c-.3,0-.6-.3-.6-.6v-.9c0-1.3,1.1-2.4,2.4-2.4Z" transform="translate(45.8 7.2) rotate(-180)"/>
      </g>
      <circle class="cls-7" cx="23.6" cy="43.4" r="2.3"/>
    </g>
  </g>
  <g>
    <g>
      <circle class="cls-4" cx="29.8" cy="23.8" r="1"/>
      <circle class="cls-4" cx="29.8" cy="28.1" r="1"/>
      <circle class="cls-4" cx="34.7" cy="26.3" r="1"/>
      <circle class="cls-4" cx="25" cy="20.9" r="1"/>
      <line class="cls-8" x1="24" y1="20.9" x2="19.1" y2="20.9"/>
      <path class="cls-4" d="M18.8,24.7h4c.7,0,1.3.6,1.3,1.3v.9c0,.7.6,1.3,1.3,1.3h3.5"/>
      <path class="cls-4" d="M29.7,22.9v-4.4c0-.7-.6-1.3-1.3-1.3h-7.7"/>
      <path class="cls-4" d="M32.2,12.6v6.9c0,.7.6,1.3,1.3,1.3h0c.7,0,1.3.6,1.3,1.3v3.3"/>
      <path class="cls-5" d="M36.6,14.4v8.7c0,.7.6,1.3,1.3,1.3h3.2"/>
      <path class="cls-5" d="M39.6,29.2h-6.8c-.7,0-1.3.6-1.3,1.3v3.9"/>
      <path class="cls-5" d="M21.5,30.8h5.8c.7,0,1.3.6,1.3,1.3v2.4"/>
    </g>
    <circle class="cls-3" cx="30.2" cy="23.3" r="11.4"/>
  </g>
</svg>