<svg xmlns="http://www.w3.org/2000/svg" id="Layer_1" data-name="Layer 1" version="1.1" viewBox="0 0 50 50"><defs><style>.cls-4,.cls-6,.cls-7{fill:none}.cls-6{stroke-linecap:round;stroke-linejoin:round}.cls-4,.cls-6,.cls-7{stroke:#444}.cls-4,.cls-7{stroke-miterlimit:10}.cls-7{stroke-width:.5px}.cls-6{stroke-width:2.5px}</style></defs><path fill="#35d3c3" stroke-width="0" d="M29.5 20.9l7.9 2.5-6.7 4.7.1 8.2-6.6-4.9-7.8 2.6 2.7-7.7-4.9-4.6 8.2-1.9 4.7-6.7 2.4 7.8z"/><path fill="#7df4eb" stroke-width="0" d="M37 32.4l.2 7.2-25.6 9.1-1.3-.9-.7-13.4.6-11.7.2-14.9c0-1.6 0-6 1.6-6h21.4c1.6 0 3.2 1.3 3.2 2.9l-.2 8.2 4.9 4.8 1.2 5.7-1.1 5.3-1.9 3.3-2.5.4"/><path d="M29.6 48.4H13.2c-2 0-3.6-1.6-3.6-3.6V5.1c0-2 1.6-3.6 3.6-3.6h20c2 0 3.6 1.6 3.6 3.6v7.8" class="cls-6"/><path d="M36.7 12.9c3.5 2.2 5.8 6 5.8 10.5S40 31.8 36.7 34v8.4" class="cls-6"/><path d="M19.3 1.6h7.2c1.3 0 2.4 1.1 2.4 2.4v.9c0 .3-.3.6-.6.6H17.4c-.3 0-.6-.3-.6-.6V4c0-1.3 1.1-2.4 2.4-2.4z" class="cls-7" transform="rotate(-180 22.9 3.6)"/><circle cx="23.6" cy="43.4" r="2.3" class="cls-7"/><circle cx="29.8" cy="23.8" r="1" class="cls-4"/><circle cx="29.8" cy="28.1" r="1" class="cls-4"/><circle cx="34.7" cy="26.3" r="1" class="cls-4"/><circle cx="25" cy="20.9" r="1" class="cls-4"/><path fill="#444444" stroke="#444" stroke-miterlimit="10" d="M24 20.9h-4.9"/><path d="M18.8 24.7h4c.7 0 1.3.6 1.3 1.3v.9c0 .7.6 1.3 1.3 1.3h3.5m.8-5.3v-4.4c0-.7-.6-1.3-1.3-1.3h-7.7m11.5-4.6v6.9c0 .7.6 1.3 1.3 1.3.7 0 1.3.6 1.3 1.3v3.3" class="cls-4"/><path fill="none" stroke="#444" stroke-miterlimit="10" stroke-width=".5" d="M36.6 14.4v8.7c0 .7.6 1.3 1.3 1.3h3.2m-1.5 4.8h-6.8c-.7 0-1.3.6-1.3 1.3v3.9m-10-3.6h5.8c.7 0 1.3.6 1.3 1.3v2.4"/><circle cx="30.2" cy="23.3" r="11.4" fill="none" stroke="#444" stroke-linecap="round" stroke-linejoin="round"/></svg>
