<?xml version="1.0" encoding="utf-8"?>
<!-- Generator: Adobe Illustrator 28.0.0, SVG Export Plug-In . SVG Version: 6.00 Build 0)  -->
<svg version="1.1" id="Layer_1" xmlns="http://www.w3.org/2000/svg" xmlns:xlink="http://www.w3.org/1999/xlink" x="0px" y="0px"
	 viewBox="0 0 50 50" style="enable-background:new 0 0 50 50;" xml:space="preserve">
<style type="text/css">
	.st0{fill:#FF6B6B;}
	.st1{fill:none;stroke:#444444;stroke-width:2.5;stroke-linecap:round;stroke-linejoin:round;stroke-miterlimit:10;}
	.st2{fill:none;stroke:#444444;stroke-width:0.5;stroke-linecap:round;stroke-linejoin:round;stroke-miterlimit:10;}
	.st3{fill:#444444;}
	.st4{fill:none;stroke:#444444;stroke-width:0.5;stroke-miterlimit:10;}
	.st5{fill:none;stroke:#444444;stroke-linecap:round;stroke-linejoin:round;stroke-miterlimit:10;}
</style>
<g>
	<g>
		<g>
			<g>
				<path class="st0" d="M11.2,44.8c0,1.1,1.6,2.8,2.6,2.8l9.3,0.6l16-5.7l0.3-13.2c0,0-1.1-1.9,0-4c0.2-4.6,0.2-4.6,0-5.7l-1-14.9
					V4.5l0,0c0.2-1.4-1-2.6-2.5-2.6L14.6,0.8c-1.5,0-3.4,5-3.4,6.5"/>
			</g>
			<g>
				<path class="st1" d="M39.1,19.7V43"/>
				<path class="st1" d="M11.1,6.9c0-2.9,2.3-5.2,5.2-5.2h17.6c2.9,0,5.2,2.3,5.2,5.2v12.5"/>
				<path class="st1" d="M27.9,48.5H16.4c-2.9,0-5.2-2.3-5.2-5.2L11.1,6.9"/>
				<path class="st2" d="M29,5.5h-7.7c-0.8,0-1.6-0.7-1.6-1.6V1.8h10.8v2.1C30.6,4.9,29.9,5.5,29,5.5z"/>
			</g>
		</g>
	</g>
	<g>
		<path class="st3" d="M31.8,42.1h-13c-1.3,0-2.4-1.1-2.4-2.4v0c0-1.3,1.1-2.4,2.4-2.4h13c1.3,0,2.4,1.1,2.4,2.4v0
			C34.2,41,33.1,42.1,31.8,42.1z"/>
		<circle class="st3" cx="19" cy="34" r="2.6"/>
		<path class="st4" d="M34.4,30.5H16.2c-0.7,0-1.3,0.6-1.3,1.3v10.7c0,0.7,0.6,1.3,1.3,1.3h18.1c0.7,0,1.3-0.6,1.3-1.3V31.7
			C35.6,31,35.1,30.5,34.4,30.5z"/>
		<line class="st5" x1="23.3" y1="32.3" x2="26.5" y2="32.3"/>
		<line class="st5" x1="23.2" y1="34.1" x2="33.2" y2="34.1"/>
		<line class="st5" x1="23.2" y1="35.9" x2="33.2" y2="35.9"/>
	</g>
	<g>
		<path class="st3" d="M31.8,27.6h-13c-1.3,0-2.4-1.1-2.4-2.4v0c0-1.3,1.1-2.4,2.4-2.4h13c1.3,0,2.4,1.1,2.4,2.4v0
			C34.2,26.5,33.1,27.6,31.8,27.6z"/>
		<circle class="st3" cx="19" cy="19.4" r="2.6"/>
		<path class="st4" d="M34.4,16H16.2c-0.7,0-1.3,0.6-1.3,1.3v10.7c0,0.7,0.6,1.3,1.3,1.3h18.1c0.7,0,1.3-0.6,1.3-1.3V17.2
			C35.6,16.5,35.1,16,34.4,16z"/>
		<line class="st5" x1="23.3" y1="17.8" x2="26.5" y2="17.8"/>
		<line class="st5" x1="23.2" y1="19.6" x2="33.2" y2="19.6"/>
		<line class="st5" x1="23.2" y1="21.4" x2="33.2" y2="21.4"/>
	</g>
	<g>
		<polyline class="st5" points="19.9,12.8 23.8,12.8 20.9,10 		"/>
		<polyline class="st5" points="30.7,12.8 26.8,12.8 29.7,10 		"/>
		<polyline class="st5" points="28.8,8.7 26.1,11.5 26.2,7.5 		"/>
		<polyline class="st5" points="21.9,8.7 24.5,11.5 24.5,7.5 		"/>
	</g>
</g>
</svg>
