<svg xmlns="http://www.w3.org/2000/svg" id="Camada_3" version="1.1" viewBox="0 0 50 50"><defs><style>.st1,.st2,.st3,.st4{fill:none;stroke:#444}.st3{stroke-width:.5px}.st3,.st4{stroke-miterlimit:10}.st1,.st2{stroke-linejoin:round}.st1,.st2,.st3,.st4{stroke-linecap:round}.st2{stroke-width:2.5px}</style></defs><path fill="#dc5e82" d="M48.5 20c-.2-.8-2.7-7.5-3.2-8.1l-3-3.5H42c0 .1-7.6-5.7-7.6-5.7L26.6 2c-3.2 0-14.5.3-21.4 10.3L1.3 22.8h-.2c0 .1 4 13.5 4 13.5 0 .4 4.6 5.6 4.9 5.9l5.6 3L27 41.1l20.8-7.6c.6-.5 1.6-8.7.7-13.5z"/><path d="M37.2 45.3c-7.9 4.5-18.1 4.2-25.8-1.6C1.1 36-1 21.3 6.8 10.9" class="st2"/><path d="M6.6 11.1c2-3 4.7-4.7 4.7-4.7l.7-.5C20.1.1 31.3 0 39.6 6.3 50 14.1 52 28.8 44.3 39.1" class="st2"/><path d="M33.8 40.7c.5-.2 1-.5 1.4-.8 1.1-.9 4-1.2 5.2.6 0 0 0 1.1.6.8s.5-4.3-1.4-5.9c0 0-.6 0-.2-1.2.4-1.3.8-3.9-1.2-7.8s-5.6-6.4-6-6.1c-.3.3 3.6 5.2 2.2 10.4 0 .5-.3.8-.9.4-.6-.5-6.9-5.2-9.4-7.4-1.3-1.2-1.5-.3-.5.5.4.4 5.6 5.9 5.4 6.1s-6-3.9-7.8-5.7-1.3-.5-1-.1c.4.4 7.5 9.1 9.9 10.4.5.9.8 1.6-4.7 1.9-5.5.4-7.5-2.8-7.8-2.7-.3.2.1 1 1.3 2.1.3.3 1 1 2 1.8.8.7 1.8 1.4 3 2 1.5.8 3.3 1.5 5.3 1.6" class="st4"/><path d="M25.5 32.4h-9.2c-3 0-5.4-2.4-5.4-5.4V13.5c0-3 2.4-5.4 5.4-5.4h9.2c3 0 5.4 2.4 5.4 5.4V27" class="st3"/><path d="M14.8 17.4h6.5" class="st1"/><path d="M14.8 19h6.5" class="st4"/><path d="M14.8 20.5h6.5" class="st1"/><text fill="#444" font-family="OCRAExtended,'OCR A Extended'" font-size="3.5" transform="translate(25.2 13.7)"><tspan x="0" y="0">i</tspan></text><circle cx="26.3" cy="12.7" r="2.1" fill="none" stroke="#444" stroke-miterlimit="10" stroke-width=".5"/><rect width="11.1" height="8.1" x="12.4" y="14.7" class="st3" rx="1.3" ry="1.3"/></svg>