<?xml version="1.0" encoding="UTF-8"?>
<svg id="Layer_1" data-name="Layer 1" xmlns="http://www.w3.org/2000/svg" version="1.1" viewBox="0 0 50 50">
  <defs>
    <style>
      .cls-1 {
        fill: #f9f941;
      }

      .cls-1, .cls-2 {
        stroke-width: 0px;
      }

      .cls-3 {
        stroke-width: .5px;
      }

      .cls-3, .cls-4, .cls-5 {
        fill: none;
        stroke: #444;
        stroke-linecap: round;
        stroke-linejoin: round;
      }

      .cls-2 {
        fill: #d1bd00;
      }

      .cls-5 {
        stroke-width: 2.5px;
      }
    </style>
  </defs>
  <polygon class="cls-2" points="28.4 15.3 36.2 17.7 29.5 22.5 29.6 30.7 23 25.8 15.3 28.4 17.9 20.6 13 14 21.2 14.1 25.9 7.4 28.4 15.3"/>
  <g>
    <g>
      <path class="cls-1" d="M42.5,23.4l-1.6-10-2.9-5.4L28.7,1.5c-3.5,0-14.8,2.7-15.5,6.2s-3.9,2.3-4,2.5l-1.4,7.1c0,.3-.6,6.2-.7,6.5l5,7.7-6.6,10.8c-.1,1.5,2.9,1.2,4.3.7l2,4.9c.7-.8,8.3-9.2,9.5-10.6h7.8c.2,0,1.8,1.9,2,1.8l8.4-2.8c-1.9-2.1-1.8-2.3-1.9-4.1,1.4-2.4,5.6-7.3,4.9-8.8Z"/>
      <path class="cls-4" d="M42,15.8c-.3-1.4-1.3-2.4-2.5-2.7.6-1.1.6-2.5-.2-3.7-.7-1.1-2-1.7-3.2-1.6,0-1.2-.5-2.4-1.5-3.2-1.1-.8-2.6-.8-3.7-.2-.4-1.2-1.4-2.2-2.7-2.5-1.3-.3-2.6.2-3.4,1.2-.8-.9-2-1.4-3.3-1.2-1.4.3-2.4,1.3-2.7,2.5-1.1-.6-2.5-.6-3.7.2-1.1.7-1.7,2-1.6,3.2-1.2,0-2.4.5-3.2,1.5-.8,1.1-.8,2.6-.2,3.7-1.2.4-2.2,1.4-2.5,2.7-.3,1.3.2,2.6,1.2,3.4-.9.8-1.4,2-1.2,3.3.3,1.4,1.3,2.4,2.5,2.7-.6,1.1-.6,2.5.2,3.7.7,1.1,2,1.7,3.2,1.6,0,1.2.5,2.4,1.5,3.2,1.1.8,2.6.8,3.7.2.4,1.2,1.4,2.2,2.7,2.5,1.3.3,2.5-.5,3.3-1.5.8.9,2.1,1.7,3.4,1.5,1.4-.3,2.4-1.3,2.7-2.5,1.1.6,2.5.6,3.7-.2,1.1-.7,1.7-2,1.6-3.2,1.2,0,2.4-.5,3.2-1.5.8-1.1.8-2.6.2-3.7,1.2-.4,2.2-1.4,2.5-2.7.3-1.3-.2-2.6-1.2-3.4.9-.8,1.4-2,1.2-3.3Z"/>
      <path class="cls-5" d="M40.5,37.5c-1-1.5-2.4-4.4-3.4-6.2,0,0,1.7,0,2.7-1.6s.8-2.6.2-3.8c1.3-.4,2.3-1.4,2.6-2.8.3-1.3-.2-2.6-1.2-3.5.9-.8,1.4-2.1,1.2-3.4-.3-1.4-1.3-2.4-2.6-2.8.6-1.1.6-2.6-.2-3.8-.8-1.1-2-1.7-3.3-1.6,0-1.2-.5-2.5-1.6-3.3-1.2-.8-2.6-.8-3.8-.2-.4-1.3-1.4-2.3-2.8-2.6-1.3-.3-2.6.2-3.5,1.2-.8-.9-2.1-1.4-3.4-1.2-1.4.3-2.4,1.3-2.8,2.6-1.1-.6-2.6-.6-3.8.2-1.1.8-1.7,2-1.6,3.3-1.2,0-2.5.5-3.3,1.6-.8,1.2-.8,2.6-.2,3.8-1.3.4-2.3,1.4-2.6,2.8-.3,1.3.2,2.6,1.2,3.5-.9.8-1.4,2.1-1.2,3.4.3,1.4,1.3,2.4,2.6,2.8-.6,1.1-.6,2.6.2,3.8,0,0,1.5,1.8,2.7,1.6-3.3,6.2-8.2,11.7-8.2,11.7l5.8.3,1.9,5.2s4.7-4.4,8.4-11.4h0c.3.1.6.2.9.3,1.3.3,2.6-.2,3.5-1.2.8.9,2.1,1.4,3.4,1.2.3,0,.6-.2.9-.3h0c3.7,7,8.4,11.4,8.4,11.4l1.5-3.8"/>
    </g>
    <g>
      <path class="cls-4" d="M29.3,15.2c-1.4,0-2.8.6-4.5.6s-3.1-.6-4.5-.6-4.5,1.8-4.5,5.4c0,6.1,3.5,10.5,5.7,10.5s2.4-.6,3.2-.6,1,.7,3.2.6c2.2,0,5.7-4.4,5.7-10.5.1-3.6-3-5.4-4.4-5.4Z"/>
      <path class="cls-4" d="M23.3,10.1c.9.9,1.4,3.3,1.4,3.3,0,.4-.2.7-.6.6,0,0-2.4-.5-3.3-1.4-.9-.9-1.4-3.3-1.4-3.3,0-.4.2-.7.6-.6,0,0,2.4.4,3.3,1.4Z"/>
    </g>
    <path class="cls-3" d="M28.4,9.3s-3.9,1.9-3.7,6.6"/>
  </g>
</svg>