<?xml version="1.0" encoding="UTF-8"?>
<svg id="Layer_1" data-name="Layer 1" xmlns="http://www.w3.org/2000/svg" version="1.1" viewBox="0 0 50 50">
  <defs>
    <style>
      .cls-1, .cls-2, .cls-3 {
        stroke-linecap: round;
        stroke-linejoin: round;
      }

      .cls-1, .cls-2, .cls-3, .cls-4 {
        fill: none;
        stroke: #444;
      }

      .cls-1, .cls-4 {
        stroke-width: .5px;
      }

      .cls-5 {
        fill: #8256d8;
      }

      .cls-5, .cls-6 {
        stroke-width: 0px;
      }

      .cls-6 {
        fill: #a475ef;
      }

      .cls-3 {
        stroke-width: 2.5px;
      }

      .cls-4 {
        stroke-miterlimit: 10;
      }
    </style>
  </defs>
  <polygon class="cls-5" points="28.9 18.5 36.8 20.9 30.1 25.7 30.2 33.9 23.6 29 15.8 31.6 18.4 23.8 13.5 17.3 21.7 17.4 26.5 10.7 28.9 18.5"/>
  <g>
    <g>
      <g>
        <path class="cls-6" d="M32.2,1.8H10.8c-1.6,0-1.6,4.4-1.6,6l-.2,14.9-.6,11.7.7,13.4,1.3.9,25.6-9.1-.2-10.2c1.8-.6,12.5.2,12.6-1.7l-.6-16.4-12.1-1.2-.2-5.5c0-1.6-1.6-2.9-3.2-2.9Z"/>
        <path class="cls-3" d="M35.4,42.5v-13.1h8.8c2.2,0,4-1.8,4-4v-10.9c0-2.2-1.8-4-4-4h-8.8v-5.2c0-2-1.6-3.6-3.6-3.6H11.9c-2,0-3.6,1.6-3.6,3.6v39.8c0,2,1.6,3.6,3.6,3.6h16.4"/>
        <path class="cls-4" d="M18,1.8h7.2c1.3,0,2.4,1.1,2.4,2.4v.9c0,.3-.3.6-.6.6h-10.9c-.3,0-.6-.3-.6-.6v-.9c0-1.3,1.1-2.4,2.4-2.4Z" transform="translate(43.3 7.5) rotate(-180)"/>
        <line class="cls-1" x1="34.4" y1="41.4" x2="34.4" y2="28.8"/>
        <line class="cls-1" x1="34.4" y1="11.2" x2="34.4" y2="3.5"/>
      </g>
      <circle class="cls-4" cx="22.3" cy="43.6" r="2.3"/>
    </g>
    <g>
      <g>
        <path class="cls-2" d="M23.4,25.7v-11.9c0-1.4,1.1-2.5,2.5-2.5h19.9c1.3,0,2.4,1.1,2.4,2.4v13.6c0,.8-.6,1.4-1.4,1.4h-20.3"/>
        <line class="cls-1" x1="23.5" y1="14.9" x2="47" y2="14.9"/>
        <line class="cls-1" x1="25.3" y1="13.1" x2="26.5" y2="13.1"/>
        <line class="cls-1" x1="27.7" y1="13.1" x2="28.9" y2="13.1"/>
        <line class="cls-1" x1="30.1" y1="13.1" x2="31.3" y2="13.1"/>
        <line class="cls-1" x1="14.3" y1="19.7" x2="23.4" y2="19.7"/>
        <line class="cls-2" x1="20.5" y1="31.7" x2="30.1" y2="22.1"/>
        <polyline class="cls-2" points="20.5 28.1 20.5 31.7 24.1 31.7"/>
        <polyline class="cls-2" points="30.1 25.7 30.1 22.1 26.5 22.1"/>
        <line class="cls-1" x1="16.9" y1="17.9" x2="18.1" y2="17.9"/>
        <line class="cls-1" x1="19.3" y1="17.9" x2="20.5" y2="17.9"/>
      </g>
      <path class="cls-2" d="M34.2,37.1h-17.5c-1.4,0-2.5-1.1-2.5-2.5v-16.7c0-1.4,1.1-2.4,2.5-2.4h6.1"/>
    </g>
  </g>
</svg>