<svg xmlns="http://www.w3.org/2000/svg" xmlns:xlink="http://www.w3.org/1999/xlink" id="Layer_1" x="0" y="0" version="1.1" viewBox="0 0 50 50" xml:space="preserve"><style>.st4{fill:none;stroke:#444;stroke-miterlimit:10}</style><path fill="#ff6b6b" d="M26.9 45.3L6 45.1c-1.9 0-3.5-1.4-3.5-3.2v-32c0-1.8 1.6-3.2 3.5-3.2h37.5c1.9 0 3.5 1.4 3.5 3.2l.7 26.6"/><path fill="none" stroke="#444" stroke-linecap="round" stroke-miterlimit="10" stroke-width="2.5" d="M47.4 39.1V10.9s.2-3.8-4.5-3.8-36 .2-36 .2-4.7-.3-4.7 3.8v29.7s-.3 4.1 4.6 4.6h27.4"/><path d="M2.4 13.9h44.9m-44.8 5h44.9" class="st4"/><defs><path id="SVGID_1_" d="M6.7 7.8h37V23h-37z"/></defs><clipPath id="SVGID_00000049196631155917947410000004801244910483542705_"><use overflow="visible" xlink:href="#SVGID_1_"/></clipPath><g clip-path="url(#SVGID_00000049196631155917947410000004801244910483542705_)"><path id="_x3C_Repetição_de_grade_x3E__00000064328635353678267660000012231660703625086905_" d="M7.6 18.9l3.5-5-4-5.9" class="st4"/><path id="_x3C_Repetição_de_grade_x3E__00000008121028490199710800000003126085826901463430_" d="M17.1 18.9l3.5-5-4-5.9" class="st4"/><path id="_x3C_Repetição_de_grade_x3E__00000034083215119404502730000015551093334451953556_" d="M26.5 18.9l3.6-5-4-5.9" class="st4"/><path id="_x3C_Repetição_de_grade_x3E__00000069376571227884898450000017595295852312609932_" d="M36 18.9l3.6-5-4-5.9" class="st4"/></g><path d="M32.6 33c.4-1.5 1.5-7.1-6-12-.2-.2-.6-.2-.8.1-.2.2-.2.6 0 .8 0 0 2.8 3.5 1.8 7.5-1.7-1.2-6-4.4-8.5-6.7-.2-.2-.6-.2-.8 0-.2.2-.3.6-.1.8.1.1 1.1 1.5 2.2 3-1-.7-2.2-1.7-3.7-3-.2-.2-.6-.2-.8 0-.2.2-.2.6-.1.8.2.3 5.1 6.5 8.2 8.9-1.5.6-4.8 1.2-9.1-1.6-.2-.2-.6-.2-.8.1-.2.2-.2.5-.1.7.2.2 3.6 6.1 11 6.1 2.1 0 3.2-.6 4.2-1.1.6-.3 1.1-.5 1.6-.5 1.2 0 2.1 1.3 2.1 1.3.1.2.3.3.6.3h.1c.2 0 .4-.2.5-.4.7-2-.9-4.3-1.5-5.1z" class="st4"/></svg>