<svg xmlns="http://www.w3.org/2000/svg" id="Camada_1" x="0" y="0" version="1.1" viewBox="0 0 50 50" xml:space="preserve"><style>.st1{fill:none;stroke:#444;stroke-width:2.5;stroke-linecap:round;stroke-linejoin:round;stroke-miterlimit:10}.st2{fill:#444}</style><path fill="#22dd6d" d="M47.9 19.9c-.2-.8-2.7-7.5-3.2-8.1l-3-3.5-.2.1-7.6-5.8-7.8-.6c-3.2 0-14.6.2-21.5 10.2L.7 22.8l-.2.1 4 13.4c.1.4 4.5 5.7 4.9 5.9l5.6 3 32.2-11.7c.6-.5 1.6-8.8.7-13.6z"/><path d="M32.2 47.2c-7 2.3-15 1.2-21.3-3.6C.5 35.9-1.6 21.2 6.2 10.8" class="st1"/><path d="M6.1 11c2-3 4.7-4.7 4.7-4.7l.7-.5c8-5.8 19.2-5.9 27.5.4C49.4 14 51.5 28.7 43.7 39" class="st1"/><path d="M21.1 21.2l-.5.8c-.2.3-.1.7.2.9.3.2.7.1.9-.2l.6-1.1c-.2-.4-.7-.5-1.2-.4zm.9-1.6h-1.7c-.4 0-.7.3-.7.7 0 .4.3.7.7.7h6.1c.3-.5-.1-1.3-.8-1.3h-2.1l2.9-5c.2-.3.1-.7-.2-.9-.3-.2-.7-.1-.9.2l-.3.4-.3-.5c-.2-.3-.6-.4-.9-.2-.3.2-.4.6-.2.9l.7 1.2-1.2 2-1.1 1.8z" class="st2"/><path d="M29.7 19.6H28c-.1-.2-.2-.3-.2-.4l-.8-1.4c-.4-.6-.7-1.2-.9-1.6-.4.3-.8 1.3-.2 2.3.6 1 1.4 2.4 2.5 4.3.2.3.6.4.9.2.3-.2.4-.6.2-.9l-.7-1.1h1c.4 0 .7-.3.7-.7-.1-.4-.4-.7-.8-.7z" class="st2"/><path d="M35.9 23.5H35c-.2-3.9-2.7-7.4-6.4-8.8l.1-.6c.1-.5 0-1-.3-1.4-.3-.4-.8-.6-1.3-.6h-4.3c-.5 0-1 .2-1.3.6-.3.4-.4.9-.3 1.4l.1.6c-3.7 1.4-6.2 4.9-6.4 8.8H14c-.3 0-.5.2-.5.5v3.2c0 .3.2.5.5.5h1v1.4c0 .3.2.5.5.5l1.9.2c.2.7.4 1.3.8 1.9L17 33.2c-.2.2-.1.5 0 .7l1.8 1.8c.2.2.5.2.7 0l1.5-1.2c.6.4 1.3.6 1.9.8l.2 1.9c0 .3.2.5.5.5h2.6c.3 0 .5-.2.5-.5l.2-1.9c.7-.2 1.3-.4 1.9-.8l1.5 1.2c.2.2.5.1.7 0l1.8-1.8c.2-.2.2-.5 0-.7l-.8-1.4c.4-.6.6-1.3.8-1.9l1.9-.2c.3 0 .5-.2.5-.5v-1.4h.8c.3 0 .5-.2.5-.5V24c0-.3-.3-.5-.6-.5zm-14.3-7.8L22 18l.7-.9c.1-.1.1-.3.1-.5l-.6-2.7c0-.2 0-.4.1-.5.1-.1.3-.2.5-.2h4.3c.2 0 .4.1.5.2.1.1.2.3.1.5l-.6 2.8c0 .2 0 .4.1.5l.8.8.3-1.6c.1-.4.5-.6.8-.4 2.6 1.3 4.4 3.9 4.8 6.9 0 .3-.2.6-.6.6H16.6c-.3 0-.6-.3-.6-.6.5-3.2 2.6-6 5.6-7.2zm12.5 13l-1.8.2c-.2 0-.4.2-.4.4-.2.8-.5 1.6-.9 2.3-.1.2-.1.4 0 .6l1.2 1.4-1.2 1.2-1.4-1.2c-.2-.1-.4-.2-.6 0-.7.5-1.5.8-2.3.9-.2 0-.4.2-.4.4l-.3 2h-1.7l-.2-1.9c0-.2-.2-.4-.4-.4-.8-.2-1.6-.5-2.3-.9-.2-.1-.4-.1-.6 0l-1.4 1.2-1.2-1.2 1.2-1.4c.1-.2.2-.4 0-.6-.5-.7-.8-1.5-.9-2.3 0-.2-.2-.4-.4-.4l-1.8-.2v-1h4.2v.1c0 2.7 2.2 4.8 4.8 4.8 2.7 0 4.8-2.2 4.8-4.8v-.1h4.2v.9zm-13.2-.8v-.1h8.5v.1c0 2.3-1.9 4.2-4.2 4.2-2.4.1-4.3-1.8-4.3-4.2zm14.5-1.2H14.6v-2.2h20.9v2.2z" class="st2"/></svg>