<svg xmlns="http://www.w3.org/2000/svg" id="Layer_1" x="0" y="0" version="1.1" viewBox="0 0 50 50" xml:space="preserve"><style>.st2,.st3{fill:none;stroke:#444;stroke-linecap:round;stroke-linejoin:round;stroke-miterlimit:10}.st3{stroke-width:.5}.st4{fill:#444}</style><path fill="#c3ff68" d="M45.4 12.5l-5.6-3.6-7.7-4.4-6-2.8C23 1.6 4.7 10.6 4.7 13.8l-.5 7.8.5 15.1 11.5 7.6 31-11c.8-.5-.8-18.8-1.8-20.8z"/><path fill="none" stroke="#444" stroke-linecap="round" stroke-linejoin="round" stroke-miterlimit="10" stroke-width="2.5" d="M30.7 46.4l-2.2 1.3c-1.7 1-3.8 1-5.5 0l-15.6-9c-1.7-1-2.7-2.8-2.7-4.7V16c0-2 1-3.8 2.7-4.7l15.6-9c1.7-1 3.8-1 5.5 0l15.6 9c1.7 1 2.7 2.8 2.7 4.7v18c0 2-1 3.8-2.7 4.7l-2.5 1.4"/><path d="M30.8 10s-5.5 2.6-5.2 9.2m6.5-.7c-2 0-3.9.9-6.3.9s-4.3-.9-6.3-.9-6.3 2.5-6.3 7.5c0 8.6 4.9 14.7 8 14.7 3.1 0 3.4-.9 4.5-.9s1.4 1 4.5.9c3.1 0 8-6.1 8-14.7.2-5-4.2-7.5-6.1-7.5z" class="st2"/><path d="M23.7 11.3c1.3 1.3 2 4.6 2 4.6.1.6-.3 1-.9.9 0 0-3.4-.7-4.6-1.9-1.3-1.3-2-4.6-2-4.6-.1-.6.3-1 .9-.9 0-.1 3.4.6 4.6 1.9z" class="st2"/><path d="M13.6 23.2h24.2m-22.1 12h20.4" class="st3"/><circle cx="25.9" cy="37.5" r="1" class="st3"/><circle cx="33.7" cy="21.2" r="1" class="st4"/><circle cx="30.7" cy="21.2" r="1" class="st4"/><circle cx="27.8" cy="21.2" r="1" class="st4"/><path d="M21.5 38.8l-1.2-1.2 1.2-1.2m8.8 2.4l1.2-1.2-1.2-1.2" class="st3"/></svg>