<svg xmlns="http://www.w3.org/2000/svg" id="Camada_1" x="0" y="0" version="1.1" viewBox="0 0 50 50" xml:space="preserve"><style>.st3{fill:none;stroke:#444;stroke-width:.5927;stroke-miterlimit:10}</style><path fill="#00dffc" d="M47.9 20.2c-.2-.8-2.7-7.5-3.2-8.1l-3-3.5-.2.1L33.9 3 26 2.2c-3.2 0-12.8-.7-21.3 11.5l-2.9 7.9.5 2 1.8 11.5c.1.4 4.7 7 5.1 7.2l5.6 3L47 33.6c.8-.4 1.8-8.6.9-13.4z"/><path fill="none" stroke="#444" stroke-linecap="round" stroke-linejoin="round" stroke-miterlimit="10" stroke-width="2.5" d="M27.7 47.7C15.1 49.2 3.6 40.2 2 27.6S9.4 3.5 22.1 1.9 46.2 9.4 47.7 22c.6 5.1-.5 10-2.8 14.1"/><path fill="none" stroke="#444" stroke-miterlimit="10" d="M17.7 18.8l-1.6 2.7 2.3 1.9c-.1.5-.2 1.1-.2 1.7 0 .4 0 .9.1 1.3l-2.4 2 1.6 2.7 2.8-1c.7.7 1.6 1.2 2.6 1.6l.5 3h3.2l.5-2.9c1-.3 1.9-.8 2.7-1.4l2.9 1 1.6-2.7-2.3-1.9c.1-.5.2-1.1.2-1.7 0-.4-.1-.9-.1-1.3l2.4-2-1.5-2.6-2.8 1c-.7-.7-1.6-1.2-2.6-1.6l-.5-3h-3.2l-.5 2.9c-1 .3-1.9.8-2.7 1.4l-3-1.1zm7.6 2.1c2.4 0 4.4 1.9 4.4 4.3s-2 4.3-4.4 4.3c-2.4 0-4.4-1.9-4.4-4.3s2-4.3 4.4-4.3z"/><path d="M28.2 9.7c0-1.6-1.3-2.8-2.9-2.8s-2.9 1.3-2.9 2.8c0 1.6 1.3 2.8 2.9 2.8 1.6.1 2.9-1.2 2.9-2.8zM13.1 15c-1.4-.8-3.1-.3-3.9 1-.8 1.3-.3 3.1 1.1 3.9 1.4.8 3.1.3 3.9-1 .8-1.4.3-3.1-1.1-3.9zM9.2 34.3c.8 1.3 2.5 1.8 3.9 1s1.8-2.5 1.1-3.9c-.8-1.3-2.5-1.8-3.9-1S8.5 33 9.2 34.3zm13.3 6.3c0 1.6 1.3 2.8 2.9 2.8 1.6 0 2.9-1.3 2.9-2.8 0-1.6-1.3-2.8-2.9-2.8-1.6 0-2.9 1.2-2.9 2.8zm15-5.3c1.4.8 3.1.3 3.9-1 .8-1.3.3-3.1-1.1-3.9-1.4-.8-3.1-.3-3.9 1-.7 1.4-.2 3.1 1.1 3.9zm0-20.3c-1.4.8-1.8 2.5-1.1 3.9.8 1.3 2.5 1.8 3.9 1s1.8-2.5 1.1-3.9c-.8-1.3-2.5-1.8-3.9-1z" class="st3"/><path d="M25.3 9.6l-13.7 7.9.1 15.4 13.8 8 13.6-8V17.4z" class="st3"/></svg>