<?xml version="1.0" encoding="utf-8"?>
<!-- Generator: Adobe Illustrator 22.0.1, SVG Export Plug-In . SVG Version: 6.00 Build 0)  -->
<svg version="1.1" id="Layer_1" xmlns="http://www.w3.org/2000/svg" xmlns:xlink="http://www.w3.org/1999/xlink" x="0px" y="0px"
	 viewBox="0 0 50 50" style="enable-background:new 0 0 50 50;" xml:space="preserve">
<style type="text/css">
	.st0{fill:#CE87EA;}
	.st1{fill:#E097FB;}
	.st2{fill:#444444;}
</style>
<g>
	<g>
		<path class="st0" d="M6.5,38.3l7.2,4.1L45.9,23l-0.1-7.3c0-1.6-0.9-3.2-2.3-4L27.3,2.3c-1.4-0.8-3.2-0.8-4.6,0L6.5,11.7
			c-1.4,0.8-2.3,2.3-2.3,4v18.7C4.2,36,5.1,37.5,6.5,38.3z"/>
	</g>
	<g>
		<path class="st1" d="M32.8,5.3l-5.3-2.8c-1.5-0.8-3.3-0.8-4.8,0L5.7,12.3c-1.5,0.8-2.4,2.4-2.4,4.2l0.2,5.9L32.8,5.3z"/>
	</g>
	<g>
		<path class="st2" d="M25,49.5c-1,0-2-0.3-2.9-0.8L5.9,39.4c-1.8-1-2.9-3-2.9-5V15.6c0-2.1,1.1-4,2.9-5l16.2-9.4c1.8-1,4-1,5.8,0
			l16.2,9.4c1.8,1,2.9,3,2.9,5v13.7c0,0.7-0.6,1.2-1.2,1.2s-1.2-0.6-1.2-1.2V15.6c0-1.2-0.6-2.3-1.7-2.9L26.7,3.4
			c-1-0.6-2.3-0.6-3.4,0L7.1,12.7c-1,0.6-1.7,1.7-1.7,2.9v18.7c0,1.2,0.6,2.3,1.7,2.9l16.2,9.4c1,0.6,2.3,0.6,3.4,0l4.5-2.6
			c0.6-0.3,1.3-0.1,1.7,0.5c0.3,0.6,0.1,1.3-0.5,1.7l-4.5,2.6C27,49.3,26,49.5,25,49.5z"/>
	</g>
	<g>
		<g>
			<path class="st2" d="M35.4,28.9c0.5-1.8,1.8-8.6-7.3-14.6c-0.3-0.2-0.7-0.2-1,0.1s-0.3,0.7,0,1c0,0,3.4,4.2,2.2,9.1
				C27.2,23,22,19.2,19,16.4c-0.3-0.3-0.7-0.3-1,0s-0.4,0.7-0.1,1c0.1,0.1,1.3,1.8,2.7,3.6c-1.2-0.9-2.7-2.1-4.5-3.6
				c-0.3-0.2-0.7-0.2-1,0c-0.3,0.3-0.3,0.7-0.1,1c0.3,0.4,6.2,7.9,10,10.8c-1.8,0.7-5.8,1.4-11.1-2c-0.3-0.2-0.7-0.2-1,0.1
				c-0.3,0.2-0.3,0.6-0.1,0.9s4.4,7.4,13.4,7.4c2.5,0,3.9-0.7,5.1-1.3c0.7-0.4,1.3-0.6,1.9-0.6c1.5,0,2.5,1.6,2.5,1.6
				c0.1,0.2,0.4,0.4,0.7,0.4c0,0,0,0,0.1,0c0.3,0,0.5-0.2,0.6-0.5C38.1,32.7,36.2,29.9,35.4,28.9z M33.1,32.3c-1,0-1.8,0.4-2.6,0.8
				c-1.1,0.5-2.3,1.1-4.4,1.1c-4.4,0-7.6-2-9.6-3.8c6.2,2.4,10.2-0.2,10.4-0.4c0.2-0.1,0.4-0.4,0.3-0.7c0-0.3-0.2-0.5-0.4-0.6
				c-1.5-0.9-3.9-3.3-6-5.6c2.4,1.7,3.5,2.3,3.6,2.3c0.4,0.2,0.8,0.1,1-0.3c0.2-0.3,0.1-0.8-0.2-1c-0.4-0.4-1.2-1.2-2-2.2
				c3,2.3,5.7,4.2,5.9,4.3c0.2,0.1,0.4,0.2,0.7,0.1c0.2-0.1,0.4-0.2,0.5-0.5c1.2-3.1,0.6-6-0.2-8.1c5.9,5.5,3.7,10.6,3.6,10.8
				c-0.1,0.3-0.1,0.6,0.1,0.8c0,0,1.6,1.8,1.8,3.7C35.1,32.8,34.2,32.3,33.1,32.3z"/>
		</g>
	</g>
</g>
</svg>
