<?xml version="1.0" encoding="utf-8"?>
<!-- Generator: Adobe Illustrator 27.5.0, SVG Export Plug-In . SVG Version: 6.00 Build 0)  -->
<svg version="1.1" id="Camada_1" xmlns="http://www.w3.org/2000/svg" xmlns:xlink="http://www.w3.org/1999/xlink" x="0px" y="0px"
	 viewBox="0 0 50 50" style="enable-background:new 0 0 50 50;" xml:space="preserve">
<style type="text/css">
	.st0{fill:#22DD6D;}
	.st1{fill:none;stroke:#444444;stroke-width:2.5;stroke-linecap:round;stroke-linejoin:round;stroke-miterlimit:10;}
	.st2{fill:#444444;}
</style>
<path class="st0" d="M47.9,19.9c-0.2-0.8-2.7-7.5-3.2-8.1l-3-3.5l-0.2,0.1l-7.6-5.8L26.1,2C22.9,2,11.5,2.2,4.6,12.2L0.7,22.8
	l-0.2,0.1l4,13.4c0.1,0.4,4.5,5.7,4.9,5.9l5.6,3l32.2-11.7C47.8,33,48.8,24.7,47.9,19.9z"/>
<g>
	<g>
		<g>
			<path class="st1" d="M32.2,47.2c-7,2.3-15,1.2-21.3-3.6C0.5,35.9-1.6,21.2,6.2,10.8"/>
			<path class="st1" d="M6.1,11c2-3,4.7-4.7,4.7-4.7l0.7-0.5C19.5,0,30.7-0.1,39,6.2C49.4,14,51.5,28.7,43.7,39"/>
		</g>
	</g>
</g>
<g>
	<path class="st2" d="M21.1,21.2l-0.5,0.8c-0.2,0.3-0.1,0.7,0.2,0.9c0.3,0.2,0.7,0.1,0.9-0.2l0.6-1.1C22.1,21.2,21.6,21.1,21.1,21.2
		z"/>
	<path class="st2" d="M22,19.6L22,19.6l-1.7,0c-0.4,0-0.7,0.3-0.7,0.7c0,0.4,0.3,0.7,0.7,0.7h6.1c0.3-0.5-0.1-1.3-0.8-1.3h-2.1
		l2.9-5c0.2-0.3,0.1-0.7-0.2-0.9c-0.3-0.2-0.7-0.1-0.9,0.2L25,14.4l-0.3-0.5c-0.2-0.3-0.6-0.4-0.9-0.2c-0.3,0.2-0.4,0.6-0.2,0.9
		l0.7,1.2l-1.2,2l0,0L22,19.6L22,19.6z"/>
	<g>
		<path class="st2" d="M29.7,19.6H28c-0.1-0.2-0.2-0.3-0.2-0.4l0,0l-0.8-1.4l0,0c-0.4-0.6-0.7-1.2-0.9-1.6c-0.4,0.3-0.8,1.3-0.2,2.3
			c0.6,1,1.4,2.4,2.5,4.3c0.2,0.3,0.6,0.4,0.9,0.2c0.3-0.2,0.4-0.6,0.2-0.9l-0.7-1.1h1c0.4,0,0.7-0.3,0.7-0.7
			C30.4,19.9,30.1,19.6,29.7,19.6z"/>
		<path class="st2" d="M35.9,23.5H35c-0.2-3.9-2.7-7.4-6.4-8.8l0.1-0.6c0.1-0.5,0-1-0.3-1.4c-0.3-0.4-0.8-0.6-1.3-0.6h-4.3
			c-0.5,0-1,0.2-1.3,0.6c-0.3,0.4-0.4,0.9-0.3,1.4l0.1,0.6c-3.7,1.4-6.2,4.9-6.4,8.8h-0.9c-0.3,0-0.5,0.2-0.5,0.5v3.2
			c0,0.3,0.2,0.5,0.5,0.5h1v1.4c0,0.3,0.2,0.5,0.5,0.5l1.9,0.2c0.2,0.7,0.4,1.3,0.8,1.9l-1.2,1.5c-0.2,0.2-0.1,0.5,0,0.7l1.8,1.8
			c0.2,0.2,0.5,0.2,0.7,0l1.5-1.2c0.6,0.4,1.3,0.6,1.9,0.8l0.2,1.9c0,0.3,0.2,0.5,0.5,0.5h2.6c0.3,0,0.5-0.2,0.5-0.5l0.2-1.9
			c0.7-0.2,1.3-0.4,1.9-0.8l1.5,1.2c0.2,0.2,0.5,0.1,0.7,0l1.8-1.8c0.2-0.2,0.2-0.5,0-0.7L32,31.8c0.4-0.6,0.6-1.3,0.8-1.9l1.9-0.2
			c0.3,0,0.5-0.2,0.5-0.5v-1.4h0.8c0.3,0,0.5-0.2,0.5-0.5V24C36.5,23.7,36.2,23.5,35.9,23.5z M21.6,15.7L21.6,15.7L22,18l0.7-0.9
			c0.1-0.1,0.1-0.3,0.1-0.5l-0.6-2.7c0-0.2,0-0.4,0.1-0.5c0.1-0.1,0.3-0.2,0.5-0.2h4.3c0.2,0,0.4,0.1,0.5,0.2
			c0.1,0.1,0.2,0.3,0.1,0.5l-0.6,2.8c0,0.2,0,0.4,0.1,0.5L28,18l0.3-1.6c0.1-0.4,0.5-0.6,0.8-0.4c2.6,1.3,4.4,3.9,4.8,6.9
			c0,0.3-0.2,0.6-0.6,0.6H16.6c-0.3,0-0.6-0.3-0.6-0.6C16.5,19.7,18.6,16.9,21.6,15.7z M34.1,28.7l-1.8,0.2c-0.2,0-0.4,0.2-0.4,0.4
			c-0.2,0.8-0.5,1.6-0.9,2.3c-0.1,0.2-0.1,0.4,0,0.6l1.2,1.4l-1.2,1.2l-1.4-1.2c-0.2-0.1-0.4-0.2-0.6,0c-0.7,0.5-1.5,0.8-2.3,0.9
			c-0.2,0-0.4,0.2-0.4,0.4L26,36.9h-1.7L24.1,35c0-0.2-0.2-0.4-0.4-0.4c-0.8-0.2-1.6-0.5-2.3-0.9c-0.2-0.1-0.4-0.1-0.6,0l-1.4,1.2
			l-1.2-1.2l1.2-1.4c0.1-0.2,0.2-0.4,0-0.6c-0.5-0.7-0.8-1.5-0.9-2.3c0-0.2-0.2-0.4-0.4-0.4l-1.8-0.2v-1h4.2c0,0,0,0.1,0,0.1
			c0,2.7,2.2,4.8,4.8,4.8c2.7,0,4.8-2.2,4.8-4.8c0,0,0-0.1,0-0.1h4.2V28.7z M20.9,27.9c0,0,0-0.1,0-0.1h8.5c0,0,0,0.1,0,0.1
			c0,2.3-1.9,4.2-4.2,4.2C22.8,32.2,20.9,30.3,20.9,27.9z M35.4,26.7L35.4,26.7H14.6v-2.2h0.9h0h0h19.1h0h0h0.9V26.7z"/>
	</g>
</g>
</svg>
