<?xml version="1.0" encoding="utf-8"?>
<!-- Generator: Adobe Illustrator 28.0.0, SVG Export Plug-In . SVG Version: 6.00 Build 0)  -->
<svg version="1.1" id="Layer_1" xmlns="http://www.w3.org/2000/svg" xmlns:xlink="http://www.w3.org/1999/xlink" x="0px" y="0px"
	 viewBox="0 0 50 50" style="enable-background:new 0 0 50 50;" xml:space="preserve">
<style type="text/css">
	.st0{fill:#00DFFC;}
	.st1{fill:#444444;}
	.st2{fill:none;stroke:#444444;stroke-miterlimit:10;}
	.st3{fill:none;stroke:#444444;stroke-width:2.5;stroke-linecap:round;stroke-linejoin:round;stroke-miterlimit:10;}
</style>
<path class="st0" d="M7.5,47.2l7.6-7.6c2,1.5,4.2,2.6,6.5,3.3l23.3-8.5c5.3-8.1,4.4-19-2.7-26.1c-8.1-8.1-21.2-8.1-29.4,0
	c-7.4,7.4-8,19-1.9,27.1L3.3,43c-1.2,1.2-1.2,3,0,4.2C4.4,48.4,6.3,48.4,7.5,47.2z"/>
<path class="st1" d="M36.4,13.9c0.1,1.4,0.2,2.7,0,4c-0.2,1.3-0.8,2.6-2.2,4l-2.5,2.5l1.2,1c0.2,0.3,0.4,0.6,0.5,0.9l1,3l-3-1
	c-0.3-0.1-0.6-0.2-0.9-0.5l-1-1.2L27,29.1c-3.3,3.3-4.9,2.5-8,2.2l3.6-3.6l2.2,0l-1.6-0.6l0.6-0.6h1.8l-1.3-0.5l2.7-2.7l-6.6-5.6
	l4,1.3l-1.3-4l5.6,6.6l2.8-2.8l0.5,1.3l0-1.8l0.6-0.6l0.6,1.6v-2.2C33,17.3,36.4,13.9,36.4,13.9z"/>
<circle class="st2" cx="27.7" cy="22.7" r="15.3"/>
<g>
	<path class="st3" d="M27.7,43.2c-11.3,0-20.5-9.2-20.5-20.5S16.4,2.3,27.7,2.3s20.5,9.2,20.5,20.5"/>
	<path class="st3" d="M39.6,6.1c9.2,6.6,11.4,19.4,4.8,28.6"/>
	<path class="st3" d="M10.9,34.7l-3,3l-4.7,4.7c-1.2,1.2-1.2,3.2,0,4.4l0,0c1.2,1.2,3.2,1.2,4.4,0l7.5-7.5"/>
</g>
<line class="st2" x1="7.3" y1="38.3" x2="12" y2="43"/>
</svg>
