<svg xmlns="http://www.w3.org/2000/svg" id="Layer_1" x="0" y="0" version="1.1" viewBox="0 0 50 50" xml:space="preserve"><style>.st2,.st3{fill:none;stroke:#444;stroke-linecap:round;stroke-linejoin:round;stroke-miterlimit:10}.st3{stroke-width:.5}.st4{fill:#444}</style><path fill="#e589ef" d="M45.2 12.4l-5.6-3.6L32 4.4l-6-2.8c-3.2 0-21.5 8.9-21.5 12.1L4 21.5l.5 15.1L16 44.2l31-11c.8-.5-.8-18.8-1.8-20.8z"/><path fill="none" stroke="#444" stroke-linecap="round" stroke-linejoin="round" stroke-miterlimit="10" stroke-width="2.5" d="M30.6 46.3l-2.2 1.3c-1.7 1-3.8 1-5.5 0l-15.6-9c-1.7-1-2.7-2.8-2.7-4.7v-18c0-2 1-3.8 2.7-4.7l15.6-9c1.7-1 3.8-1 5.5 0l15.6 9c1.7 1 2.7 2.8 2.7 4.7v18c0 2-1 3.8-2.7 4.7L41.5 40"/><path d="M30.6 3s-7.1 3-6.7 11.8m8.7-.9c-2.6 0-5.2 1.2-8.4 1.2s-5.8-1.2-8.4-1.2c-2.6 0-8.4 3.4-8.4 10 0 11.5 6.6 19.7 10.8 19.7s4.6-1.3 6.1-1.3 1.9 1.3 6.1 1.3 10.8-8.2 10.8-19.7c-.1-6.7-6-10-8.6-10z" class="st2"/><path d="M21.4 4.3C23.1 6 24 10.5 24 10.5c.2.8-.4 1.4-1.2 1.2 0 0-4.5-.9-6.2-2.6-1.7-1.7-1.5-2.8-1.5-2.8" class="st2"/><path d="M7.8 20.2h14.3M10.7 36.4H38" class="st3"/><circle cx="24.3" cy="39.4" r="1.3" class="st3"/><circle cx="34.8" cy="17.5" r="1.3" class="st4"/><circle cx="30.8" cy="17.5" r="1.3" class="st4"/><circle cx="26.9" cy="17.5" r="1.3" class="st4"/><path d="M18.4 41.1l-1.6-1.6 1.6-1.6m11.8 3.2l1.7-1.6-1.7-1.6m1.9-17.7h8.3" class="st3"/><path d="M19.1 27.8l3.2 1.2c.1 0 .2.2.1.3l-3.1 4.1c-.1.1 0 .2 0 .3L21 35c.1.1.2 0 .3 0l3.3-4.5c.1-.1.2-.1.3 0l2.4 2.2c.1.1.3 0 .3-.1l.2-8.8c0-.1-.1-.2-.3-.2l-8.3 4c-.3 0-.3.2-.1.2z" class="st4"/><path fill="none" stroke="#444" stroke-linecap="round" stroke-linejoin="round" stroke-miterlimit="10" stroke-width=".25" d="M26 21.4l-.3-1.4m4.6 4.1l1.3-.3m-2.7-2.2l.8-1.2"/></svg>