<?xml version="1.0" encoding="utf-8"?>
<!-- Generator: Adobe Illustrator 27.5.0, SVG Export Plug-In . SVG Version: 6.00 Build 0)  -->
<svg version="1.1" id="Camada_3" xmlns="http://www.w3.org/2000/svg" xmlns:xlink="http://www.w3.org/1999/xlink" x="0px" y="0px"
	 viewBox="0 0 50 50" style="enable-background:new 0 0 50 50;" xml:space="preserve">
<style type="text/css">
	.st0{fill:#00DFFC;}
	.st1{fill:#00C8E2;}
	.st2{fill:none;stroke:#444444;stroke-linecap:round;stroke-linejoin:round;stroke-miterlimit:10;}
	.st3{fill:none;stroke:#444444;stroke-width:2.5;stroke-linecap:round;stroke-linejoin:round;stroke-miterlimit:10;}
</style>
<g>
	<g>
		<path class="st0" d="M40.31,1.58L9.11,1.96c-1.17,0-7.44,6.97-7.44,8.14L1.56,21.52L45.92,5.45l-0.58-1.13
			C45.34,3.14,41.48,1.58,40.31,1.58z"/>
		<path class="st1" d="M1.62,21.39l0.61,17.43c0,2.39,1.75,7.5,4,6.7l43.17-15.36l-1.01-19.6c0-1.77-0.8-5.8-2.47-5.2L1.62,21.39z"
			/>
	</g>
	<path class="st2" d="M2.43,8.99c5.01,6.69,12.75,15.97,18.62,18.25c0,0-7.41,5.73-19.13,1.78"/>
	<path class="st2" d="M6.85,3.64C9.84,8,14.22,14.11,17.07,16.86c0,0-6.07-3.46-13.78-9.82"/>
	<path class="st2" d="M27.5,1.43c1.57,4.21,2.68,10.24,0.8,17.46c0,0-12.18-7.54-20.71-15.8"/>
	<path class="st2" d="M2,33.98c4.55,3.13,10.7,5.8,18.54,5.93c3.38,0.06,6.72-0.69,9.92-1.81c9.52-3.32,11.96,2.54,11.96,2.54
		s3.51-7.88-3.28-13.88c0,0,4.32-12.53-7.07-25.01"/>
	<path class="st3" d="M35.25,48.21H12.31c-5.73,0-10.38-4.65-10.38-10.38V12.02c0-5.73,4.65-10.38,10.38-10.38h25.81
		c5.73,0,10.38,4.65,10.38,10.38v22.73"/>
</g>
</svg>
