<?xml version="1.0" encoding="utf-8"?>
<!-- Generator: Adobe Illustrator 27.5.0, SVG Export Plug-In . SVG Version: 6.00 Build 0)  -->
<svg version="1.1" id="Camada_3" xmlns="http://www.w3.org/2000/svg" xmlns:xlink="http://www.w3.org/1999/xlink" x="0px" y="0px"
	 viewBox="0 0 50 50" style="enable-background:new 0 0 50 50;" xml:space="preserve">
<style type="text/css">
	.st0{fill:#F56991;}
	.st1{fill:#DC5E82;}
	.st2{fill:none;stroke:#444444;stroke-width:2.5;stroke-linecap:round;stroke-linejoin:round;stroke-miterlimit:10;}
	.st3{fill:none;stroke:#444444;stroke-linecap:round;stroke-linejoin:round;stroke-miterlimit:10;}
	.st4{fill:none;stroke:#444444;stroke-width:0.5;stroke-linecap:round;stroke-linejoin:round;stroke-miterlimit:10;}
</style>
<g>
	<g>
		<path class="st0" d="M46.42,1.63H3.58c-1.15,0-2.08,0.93-2.08,2.08v16.91L48.5,3.89V3.71C48.5,2.56,47.57,1.63,46.42,1.63z"/>
		<polygon class="st1" points="1.5,20.46 1.5,45.82 48.5,29.09 48.5,3.74 		"/>
	</g>
	<path class="st2" d="M24.96,48.61H4.97c-1.92,0-3.48-1.62-3.48-3.63V5.02c0-2,1.56-3.63,3.48-3.63h40.06
		c1.92,0,3.48,1.62,3.48,3.63v26.58"/>
	<g>
		<rect x="6.27" y="7.7" class="st3" width="37.46" height="24.43"/>
		<line class="st3" x1="5.45" y1="37.83" x2="11.15" y2="37.83"/>
		<line class="st3" x1="20.93" y1="37.83" x2="44.55" y2="37.83"/>
		<path class="st4" d="M19.3,37.83c0,1.8-1.46,3.26-3.26,3.26c-1.8,0-3.26-1.46-3.26-3.26c0-1.8,1.46-3.26,3.26-3.26
			C17.84,34.58,19.3,36.03,19.3,37.83z"/>
		<path class="st3" d="M13.19,22.36c1.63,0,2.85-1.22,2.85-2.9v-0.73c0-1.67-1.22-2.9-2.85-2.9c-1.63,0-2.85,1.23-2.85,2.9v0.73
			C10.34,21.14,11.56,22.36,13.19,22.36z"/>
		<path class="st3" d="M16.86,32.13v-4.07c0,0,3.56-1.68,4.89-2.44c1.68-1.15,1.63-3.11,1.63-4.07c0,0-4.04,1.48-6.28,2.44
			c-1.25,0.54-2.59,0.82-3.95,0.82c-0.51,0-0.97,0-1.17,0c-1.7,0-3,0.24-3.93,0.81"/>
		<polyline class="st4" points="23.46,23.15 30.7,19.1 22.56,14.22 22.56,21.39 		"/>
	</g>
</g>
</svg>
