<svg xmlns="http://www.w3.org/2000/svg" viewBox="0 0 50 50"><defs><style>.cls-1,.cls-2{fill:none;stroke:#444}.cls-1{stroke-miterlimit:10;stroke-width:.5px}.cls-2{stroke-linecap:round;stroke-linejoin:round}</style></defs><g id="Camada_1"><path fill="#00dffc" d="M35.2 12.7l-.7-8.2c0-1.6-1.6-2.9-3.2-2.9H9.9c-1.6 0-1.6 4.4-1.6 6l-.2 14.9-.6 11.7.7 13.4 1.3.9 25.6-9.1-.2-7.2 7.7.4V12.5l-7.4.3"/><path fill="none" stroke="#444" stroke-linecap="round" stroke-linejoin="round" stroke-width="2.5" d="M27.7 48.4H11.3c-2 0-3.6-1.6-3.6-3.6V5c0-2 1.6-3.6 3.6-3.6h20c2 0 3.6 1.6 3.6 3.6v6.9h4.2c2.3 0 4.3 1.9 4.3 4.3v12.7c0 2.3-1.9 4.2-4.2 4.3h-4.3v9.2"/><path d="M17.4 1.5h7.2c1.3 0 2.4 1.1 2.4 2.4v.9c0 .3-.3.6-.6.6H15.5c-.3 0-.6-.3-.6-.6v-.9c0-1.3 1.1-2.4 2.4-2.4z" class="cls-1" transform="rotate(-180 21 3.5)"/><circle cx="21.7" cy="43.3" r="2.3" class="cls-1"/><rect width="6.6" height="6.6" x="13.4" y="15.2" class="cls-2" rx="1.4" ry="1.4"/><rect width="10.9" height="6.6" x="21.3" y="15.2" class="cls-2" rx="1.4" ry="1.4"/><rect width="10.9" height="6.6" x="21.3" y="31.5" class="cls-2" rx="1.4" ry="1.4"/><rect width="8.3" height="6.6" x="23.9" y="7.3" class="cls-2" rx="1.4" ry="1.4"/><rect width="6.6" height="6.6" x="25.6" y="23.5" class="cls-2" rx="1.4" ry="1.4" transform="rotate(180 28.85 26.75)"/><rect width="6.6" height="6.6" x="33.5" y="23.5" class="cls-2" rx="1.4" ry="1.4" transform="rotate(-180 36.8 26.75)"/><rect width="6.6" height="6.6" x="33.5" y="15.2" class="cls-2" rx="1.4" ry="1.4" transform="rotate(180 36.8 18.5)"/><rect width="10.9" height="6.6" x="13.4" y="23.5" class="cls-2" rx="1.4" ry="1.4" transform="rotate(180 18.85 26.75)"/></g></svg>