<?xml version="1.0" encoding="UTF-8"?>
<svg id="Camada_3" xmlns="http://www.w3.org/2000/svg" version="1.1" xmlns:xlink="http://www.w3.org/1999/xlink" viewBox="0 0 50 50">
  <!-- Generator: Adobe Illustrator 29.2.1, SVG Export Plug-In . SVG Version: 2.1.0 Build 116)  -->
  <defs>
    <style>
      .st0, .st1, .st2, .st3, .st4 {
        fill: none;
        stroke: #444;
      }

      .st0, .st3 {
        stroke-width: .5px;
      }

      .st0, .st3, .st4 {
        stroke-miterlimit: 10;
      }

      .st1, .st2 {
        stroke-linejoin: round;
      }

      .st1, .st2, .st3, .st4 {
        stroke-linecap: round;
      }

      .st5 {
        fill: #dc5e82;
      }

      .st2 {
        stroke-width: 2.5px;
      }

      .st6 {
        fill: #444;
        font-family: OCRAExtended, 'OCR A Extended';
        font-size: 3.5px;
      }
    </style>
  </defs>
  <g>
    <path class="st5" d="M48.5,20c-.2-.8-2.7-7.5-3.2-8.1l-3-3.5h-.3c0,.1-7.6-5.7-7.6-5.7l-7.8-.7c-3.2,0-14.5.3-21.4,10.3l-3.9,10.5h-.2c0,.1,4,13.5,4,13.5,0,.4,4.6,5.6,4.9,5.9l5.6,3,11.4-4.1,20.8-7.6c.6-.5,1.6-8.7.7-13.5Z"/>
    <g>
      <path class="st2" d="M37.2,45.3c-7.9,4.5-18.1,4.2-25.8-1.6C1.1,36-1,21.3,6.8,10.9"/>
      <path class="st2" d="M6.6,11.1c2-3,4.7-4.7,4.7-4.7l.7-.5C20.1.1,31.3,0,39.6,6.3c10.4,7.8,12.4,22.5,4.7,32.8"/>
    </g>
  </g>
  <path class="st4" d="M33.8,40.7c.5-.2,1-.5,1.4-.8,1.1-.9,4-1.2,5.2.6,0,0,0,1.1.6.8s.5-4.3-1.4-5.9c0,0-.6,0-.2-1.2.4-1.3.8-3.9-1.2-7.8s-5.6-6.4-6-6.1c-.3.3,3.6,5.2,2.2,10.4,0,.5-.3.8-.9.4-.6-.5-6.9-5.2-9.4-7.4-1.3-1.2-1.5-.3-.5.5.4.4,5.6,5.9,5.4,6.1s-6-3.9-7.8-5.7-1.3-.5-1-.1c.4.4,7.5,9.1,9.9,10.4.5.9.8,1.6-4.7,1.9-5.5.4-7.5-2.8-7.8-2.7-.3.2.1,1,1.3,2.1.3.3,1,1,2,1.8.8.7,1.8,1.4,3,2,1.5.8,3.3,1.5,5.3,1.6"/>
  <path class="st3" d="M25.5,32.4h-9.2c-3,0-5.4-2.4-5.4-5.4v-13.5c0-3,2.4-5.4,5.4-5.4h9.2c3,0,5.4,2.4,5.4,5.4v13.5"/>
  <line class="st1" x1="14.8" y1="17.4" x2="21.3" y2="17.4"/>
  <line class="st4" x1="14.8" y1="19" x2="21.3" y2="19"/>
  <line class="st1" x1="14.8" y1="20.5" x2="21.3" y2="20.5"/>
  <text class="st6" transform="translate(25.2 13.7)"><tspan x="0" y="0">i</tspan></text>
  <circle class="st0" cx="26.3" cy="12.7" r="2.1"/>
  <rect class="st3" x="12.4" y="14.7" width="11.1" height="8.1" rx="1.3" ry="1.3"/>
</svg>