<?xml version="1.0" encoding="utf-8"?>
<!-- Generator: Adobe Illustrator 27.7.0, SVG Export Plug-In . SVG Version: 6.00 Build 0)  -->
<svg version="1.1" id="Camada_3" xmlns="http://www.w3.org/2000/svg" xmlns:xlink="http://www.w3.org/1999/xlink" x="0px" y="0px"
	 viewBox="0 0 50 50" style="enable-background:new 0 0 50 50;" xml:space="preserve">
<style type="text/css">
	.st0{fill:#FF6B6B;}
	.st1{fill:#E56060;}
	.st2{fill:none;stroke:#444444;stroke-width:2.5;stroke-linecap:round;stroke-linejoin:round;stroke-miterlimit:10;}
	.st3{fill:none;stroke:#444444;stroke-linecap:round;stroke-linejoin:round;stroke-miterlimit:10;}
	.st4{fill:none;stroke:#444444;stroke-width:0.5;stroke-linecap:round;stroke-linejoin:round;stroke-miterlimit:10;}
</style>
<g>
	<g>
		<path class="st0" d="M34,2.8l-7.8-0.7C23,2.1,11.7,2.4,4.8,12.3l-4,10.8l41-14.4L34,2.8z"/>
		<path class="st1" d="M0.6,23l4,13.4c0.1,0.4,4.6,5.6,4.9,5.9l5.6,3l32.2-11.7c0.7-0.4,1.7-8.6,0.7-13.4c-0.2-0.8-2.7-7.5-3.2-8.1
			l-3-3.5L0.6,23z"/>
	</g>
	<g>
		<g>
			<g>
				<path class="st2" d="M36.8,45.4c-7.9,4.5-18.1,4.2-25.8-1.6C0.6,36-1.4,21.3,6.3,11"/>
				<path class="st2" d="M6.2,11.2c2-3,4.7-4.7,4.7-4.7l0.7-0.5c8.1-5.7,19.2-5.8,27.6,0.5c10.4,7.8,12.4,22.5,4.7,32.8"/>
			</g>
		</g>
	</g>
</g>
<g>
	<g>
		<path class="st3" d="M34.9,17.8c0,3.8-2.2,8.5-5.5,9.9c-1.2,0.5-2.4-0.8-3.8-0.8c-1.4,0-2.9,1.3-4.1,0.8c-3.3-1.5-5.4-6-5.4-9.8
			c0-2.7,0.5-4.5,2.8-5.6c3-1.5,4,0.3,6.6,0.3c2.5,0,3.5-1.8,6.4-0.5C34.4,13.2,34.9,15,34.9,17.8z"/>
		<path class="st4" d="M23.3,14.2c0,0-4.9-1.4-4.7,4"/>
		<path class="st4" d="M23.3,5.9c0,0,2.2,1.2,2.1,6.6c0,0-0.8-5.5,4.4-6.7c0,0,1.1,5-4.4,6.7"/>
	</g>
	<g>
		<path class="st4" d="M17.4,27.6c0,0,0.9,4-2.3,4.7"/>
		<line class="st4" x1="22.5" y1="30.5" x2="22.5" y2="40.9"/>
		<line class="st4" x1="28.7" y1="30.3" x2="28.7" y2="35.4"/>
		<path class="st4" d="M33.8,27.4c0,0-1.3,6.8,3.2,7.1"/>
		<circle class="st3" cx="13.1" cy="32.5" r="1.7"/>
		<circle class="st3" cx="22.5" cy="42.6" r="1.7"/>
		<circle class="st3" cx="28.7" cy="37.3" r="1.7"/>
		<circle class="st3" cx="39.1" cy="34.5" r="1.7"/>
	</g>
</g>
</svg>
