<svg xmlns="http://www.w3.org/2000/svg" version="1" viewBox="0 0 50 50"><path fill="#46B8B0" d="M47.598 30.007c0 .129-.019.259-.058.376a1.295 1.295 0 0 1-1.25.939c-.253 0-.499-.078-.712-.22a1.069 1.069 0 0 1-.155-.117l-.978.084v.44L10.036 44.038a4.077 4.077 0 0 1-1.677-3.296v-6.611h-.926a1.885 1.885 0 0 1-1.878-1.884v-1.178l-.978-.084a1.287 1.287 0 0 1-.868.337 1.314 1.314 0 0 1 0-2.628c.324 0 .635.123.868.337l.978-.078v-1.185c0-1.036.842-1.884 1.878-1.884h.926v-6.611a4.09 4.09 0 0 1 2.027-3.51c-.57-2.422-.162-4.241 1.101-4.895.298-.149.628-.227.971-.227.57 0 1.198.207 1.839.609.097-1.813.758-3.037 1.865-3.399.207-.065.427-.104.648-.104.55 0 1.127.214 1.703.628.155-1.645.809-2.752 1.845-3.089.207-.065.421-.097.635-.097 1.373 0 2.868 1.321 4.015 3.497 1.146-2.176 2.642-3.497 4.015-3.497.214 0 .427.032.628.097 1.042.337 1.696 1.444 1.852 3.089.576-.414 1.153-.628 1.703-.628.22 0 .434.039.641.104 1.114.363 1.774 1.586 1.871 3.399.641-.401 1.269-.609 1.833-.609.35 0 .68.078.978.227 1.269.654 1.671 2.48 1.101 4.908a4.094 4.094 0 0 1 2.014 3.497v6.611h.919a1.89 1.89 0 0 1 1.884 1.884v1.185l.978.078c.233-.214.544-.337.868-.337a1.306 1.306 0 0 1 1.305 1.313z"/><path fill="#4ECDC4" d="M40.643 16.629L2.499 30.512a1.436 1.436 0 0 1-.097-.505c0-.725.589-1.314 1.308-1.314.324 0 .635.123.868.337l.978-.078v-1.185c0-1.036.842-1.884 1.878-1.884h.926v-6.611a4.09 4.09 0 0 1 2.027-3.51c-.57-2.422-.162-4.241 1.101-4.895.298-.149.628-.227.971-.227.57 0 1.198.207 1.839.609.097-1.813.758-3.037 1.865-3.399.207-.065.427-.104.648-.104.55 0 1.127.214 1.703.628.155-1.645.809-2.752 1.845-3.089.207-.065.421-.097.635-.097 1.373 0 2.868 1.321 4.015 3.497 1.146-2.176 2.642-3.497 4.015-3.497.214 0 .427.032.628.097 1.042.337 1.696 1.444 1.852 3.089.576-.414 1.153-.628 1.703-.628.22 0 .434.039.641.104 1.114.363 1.774 1.586 1.871 3.399.641-.401 1.269-.609 1.833-.609.35 0 .68.078.978.227 1.269.654 1.671 2.48 1.101 4.908a3.96 3.96 0 0 1 1.012.854z"/><g fill="#031326"><path d="M13.515 27.115c0 2.27 1.846 4.116 4.116 4.116s4.116-1.847 4.116-4.116-1.847-4.116-4.116-4.116c-.348 0-.681.057-1.004.138l-2.062-2.579.658 3.235a4.1 4.1 0 0 0-1.708 3.322zm6.232 0a2.118 2.118 0 0 1-2.116 2.116c-1.167 0-2.116-.949-2.116-2.116s.949-2.116 2.116-2.116c1.166 0 2.116.949 2.116 2.116zm12.621 4.116a4.12 4.12 0 0 0 4.116-4.116 4.105 4.105 0 0 0-1.708-3.323l.658-3.235-2.062 2.58a4.062 4.062 0 0 0-1.005-.139c-2.27 0-4.116 1.847-4.116 4.116s1.848 4.117 4.117 4.117zm0-6.232c1.167 0 2.116.949 2.116 2.116s-.949 2.116-2.116 2.116-2.116-.949-2.116-2.116.949-2.116 2.116-2.116zm-3.6 15.214v-6.782h-7.536v8.217h7.536v-1.435zm-7.287-6.531h7.036v3.264h-7.036v-3.264zm0 7.715v-1.185h7.036v1.185h-7.036z"/><path d="M46.241 27.133c-.203 0-.404.021-.6.063a3.142 3.142 0 0 0-2.752-2.547V19.27a5.328 5.328 0 0 0-1.883-4.044c.426-2.645-.252-4.615-1.914-5.472-.718-.367-1.547-.459-2.402-.266-.416-1.438-1.269-2.437-2.458-2.829a3.443 3.443 0 0 0-1.834-.069c-.58-1.656-1.667-2.27-2.365-2.498a3.312 3.312 0 0 0-1.014-.157c-1.403 0-2.81.863-4.013 2.423-1.5-1.944-3.326-2.809-5.04-2.262-.692.227-1.776.84-2.354 2.494a3.425 3.425 0 0 0-1.84.071c-1.185.391-2.036 1.39-2.452 2.827-.854-.194-1.682-.103-2.409.269-1.655.854-2.331 2.82-1.908 5.458a5.319 5.319 0 0 0-1.895 4.055v5.378a3.137 3.137 0 0 0-2.742 2.498 2.923 2.923 0 1 0 0 5.721 3.137 3.137 0 0 0 2.742 2.498v5.378a5.328 5.328 0 0 0 5.322 5.322h25.136a1.25 1.25 0 0 0 0-2.5h-.271V43.5H12.703a3.1 3.1 0 0 1-3.094-3.055v-7.564h-.005v-5.749h.004v-7.781c.002-.111.02-.217.033-.324.009-.103.02-.204.041-.305a3.028 3.028 0 0 1 .654-1.302c.038-.045.073-.094.113-.137.168-.166.356-.315.566-.437l.571-.332a3.072 3.072 0 0 1 1.117-.216h24.593c.4 0 .781.082 1.132.221l.563.331c.209.123.396.273.564.44.035.037.065.079.098.118a2.861 2.861 0 0 1 .52.856c.058.148.107.3.142.458.022.106.034.213.043.322.012.101.029.201.031.305v7.786h.005v5.805a.125.125 0 0 0 .25 0v-5.805h1.916c.223 0 .41.123.523.299a.916.916 0 0 1 .056.277v4.381c0 .041.023.073.054.096v.063a1.25 1.25 0 0 0 2.371.553 2.872 2.872 0 0 0 3.542-2.793 2.876 2.876 0 0 0-2.865-2.878zm-.236 3.156a.404.404 0 0 1 0-.564c.223-.188.601-.011.601.282 0 .294-.38.474-.601.282zm-41.897-.282a.405.405 0 0 1-.342.396c-.207-.014-.412-.169-.412-.396 0-.21.152-.376.348-.409a.41.41 0 0 1 .406.409zm5.246 2.874H7.433c-.062 0-.119-.019-.176-.036a.938.938 0 0 1-.398-.754v-4.385c0-.098.028-.188.056-.278a.617.617 0 0 1 .517-.297h1.922v5.75zm3.349-16.835c-.325 0-.634.061-.932.148l-.168-.716c-.415-1.769-.236-3.143.451-3.498.378-.193.94-.071 1.58.329l1.797 1.123.113-2.117c.066-1.241.445-2.094 1.004-2.278.349-.113.764.013 1.232.349l1.766 1.27.208-2.165c.106-1.097.476-1.852.98-2.017a.835.835 0 0 1 .259-.04c.707 0 1.879.875 2.907 2.829l1.106 2.104 1.107-2.103c1.158-2.2 2.515-2.997 3.151-2.794.517.168.889.924.995 2.022l.21 2.163 1.764-1.269c.468-.336.906-.454 1.223-.352.567.188.946 1.041 1.014 2.282l.114 2.117 1.797-1.125c.926-.58 1.281-.48 1.57-.332.694.358.874 1.735.458 3.508l-.168.713a3.32 3.32 0 0 0-.945-.152H12.703z"/></g></svg>