<?xml version="1.0" encoding="utf-8"?>
<!-- Generator: Adobe Illustrator 22.1.0, SVG Export Plug-In . SVG Version: 6.00 Build 0)  -->
<svg version="1.1" id="Layer_1" xmlns="http://www.w3.org/2000/svg" xmlns:xlink="http://www.w3.org/1999/xlink" x="0px" y="0px"
	 viewBox="0 0 50 50" style="enable-background:new 0 0 50 50;" xml:space="preserve">
<style type="text/css">
	.st0{fill:#C3FF68;}
	.st1{fill:#AFE55D;}
	.st2{fill:#494949;}
</style>
<g>
	<g>
		<path class="st0" d="M25,2C13.7,2,4.4,10.1,2.4,20.8L39.6,7.3C35.7,4,30.6,2,25,2z"/>
	</g>
	<g>
		<path class="st1" d="M48,25c0-7.1-3.3-13.5-8.4-17.7L2.4,20.8C2.1,22.2,2,23.6,2,25c0,6.6,2.8,12.5,7.2,16.7l38.7-14.1
			C47.9,26.7,48,25.9,48,25z"/>
	</g>
	<g>
		<path class="st2" d="M25,49.3C11.6,49.3,0.7,38.4,0.7,25C0.7,11.6,11.6,0.7,25,0.7c13.4,0,24.3,10.9,24.3,24.3
			c0,1.5-0.1,2.9-0.4,4.4c-0.1,0.7-0.8,1.2-1.5,1c-0.7-0.1-1.2-0.8-1-1.5c0.2-1.3,0.4-2.6,0.4-3.9C46.7,13,37,3.3,25,3.3
			C13,3.3,3.3,13,3.3,25C3.3,37,13,46.7,25,46.7c3.5,0,6.8-0.8,9.8-2.3c0.6-0.3,1.4-0.1,1.7,0.6c0.3,0.6,0.1,1.4-0.6,1.7
			C32.6,48.4,28.9,49.3,25,49.3z"/>
	</g>
	<g>
		<path class="st2" d="M25,45.1c-11.1,0-20.1-9-20.1-20.1S13.9,4.9,25,4.9s20.1,9,20.1,20.1S36.1,45.1,25,45.1z M25,5.2
			C14.1,5.2,5.2,14.1,5.2,25c0,10.9,8.9,19.8,19.8,19.8c10.9,0,19.8-8.9,19.8-19.8C44.8,14.1,35.9,5.2,25,5.2z"/>
	</g>
	<path class="st2" d="M25,11c-7.7,0-14,6.3-14,14c0,2.9,0.9,5.7,2.5,7.9l-2.3,2.3c-0.9,0.9-0.9,2.4,0,3.3c0.5,0.5,1.1,0.7,1.6,0.7
		c0.6,0,1.2-0.2,1.6-0.7l2.1-2.1c0,0,0.1-0.1,0.1-0.1C19,38,21.9,39,25,39c7.7,0,14-6.3,14-14S32.7,11,25,11z M15.5,35.3l-2.1,2.1
		c-0.3,0.3-0.9,0.3-1.2,0c-0.3-0.3-0.3-0.9,0-1.2l2.2-2.2C14.7,34.5,15.1,34.9,15.5,35.3C15.5,35.3,15.5,35.3,15.5,35.3z M25,37.5
		c-6.9,0-12.5-5.6-12.5-12.5S18.1,12.5,25,12.5S37.5,18.1,37.5,25S31.9,37.5,25,37.5z"/>
	<g>
		<path class="st2" d="M25,15.1c-5.5,0-9.9,4.5-9.9,9.9c0,5.5,4.5,9.9,9.9,9.9c5.5,0,9.9-4.5,9.9-9.9C34.9,19.5,30.5,15.1,25,15.1z
			 M23,28.6c-1.7-0.5-2.8-3-1.5-5.2c0.1-0.2,0.2-0.3,0.3-0.5c0.7-0.9,0.9-1.9,0.4-3c0,0,0-0.1,0-0.2c0.1,0.1,0.3,0.2,0.4,0.2
			c1.4,0.9,1.7,2.5,0.7,4.1c-0.1,0.2-0.3,0.4-0.5,0.6C21.7,26.1,21.7,27.3,23,28.6z M24.4,23.9c0.2-0.2,0.3-0.5,0.5-0.7
			c1.1-1.4,1.3-2.8,0.5-4.4c0-0.1,0-0.1-0.1-0.3c0.3,0.1,0.5,0.2,0.7,0.3c2.5,1.3,3,3.6,1.4,5.8c-0.2,0.3-0.5,0.6-0.7,0.9
			c-1.8,2.1-1.6,3.8,0.5,5.7C24.4,30.8,22.4,27.3,24.4,23.9z M28.7,27.1c-0.2,0.3-0.4,0.5-0.6,0.8c-0.4,0.6-0.2,1.3,0.2,1.9
			c-1.3-0.7-1.5-1.6-0.6-2.7c0.4-0.6,0.9-1.2,1.3-1.8C29.2,25.9,29.1,26.5,28.7,27.1z"/>
	</g>
</g>
</svg>
