<?xml version="1.0" encoding="utf-8"?>
<!-- Generator: Adobe Illustrator 22.0.1, SVG Export Plug-In . SVG Version: 6.00 Build 0)  -->
<svg version="1.1" id="Layer_1" xmlns="http://www.w3.org/2000/svg" xmlns:xlink="http://www.w3.org/1999/xlink" x="0px" y="0px"
	 viewBox="0 0 50 50" style="enable-background:new 0 0 50 50;" xml:space="preserve">
<style type="text/css">
	.st0{fill:#C05E80;}
	.st1{fill:#D7698D;}
	.st2{fill:#464646;}
	.st3{fill:#444444;}
</style>
<g>
	<g>
		<path class="st0" d="M47.1,5.3c0-1-0.6-1.9-1.6-2.3L2.9,18.5v24.7c0,0.8,0.4,1.5,0.9,1.9l43.2-15.7V5.3z"/>
	</g>
	<g>
		<path class="st1" d="M44.6,3.3H5.4C4,3.3,2.9,4.4,2.9,5.8V19L45.5,3.5C45.2,3.4,44.9,3.3,44.6,3.3z"/>
	</g>
	<g>
		<g>
			<path class="st2" d="M26.5,21.1c-0.7-0.2-1.4,0.3-1.5,1l-2.4,10.7c-0.2,0.7,0.3,1.4,1,1.5c0.1,0,0.2,0,0.3,0c0.6,0,1.1-0.4,1.3-1
				l2.4-10.7C27.6,22,27.2,21.3,26.5,21.1L26.5,21.1z"/>
		</g>
		<g>
			<path class="st2" d="M18.9,22.3c-0.6-0.5-1.4-0.4-1.8,0.2l-3.6,4.4c-0.4,0.5-0.4,1.2,0,1.7l3.6,4.4c0.3,0.3,0.6,0.5,1,0.5
				c0.3,0,0.6-0.1,0.8-0.3c0.6-0.5,0.6-1.3,0.2-1.8l-3-3.6l3-3.6C19.5,23.6,19.5,22.8,18.9,22.3L18.9,22.3z"/>
		</g>
		<g>
			<path class="st2" d="M32.9,22.5c-0.5-0.6-1.3-0.6-1.8-0.2c-0.6,0.5-0.6,1.3-0.2,1.8l3,3.6l-3,3.6c-0.5,0.6-0.4,1.4,0.2,1.8
				c0.2,0.2,0.5,0.3,0.8,0.3c0.4,0,0.7-0.2,1-0.5l3.6-4.4c0.4-0.5,0.4-1.2,0-1.7L32.9,22.5z"/>
		</g>
	</g>
	<path class="st3" d="M45.1,1.8H4.9c-2.1,0-3.8,1.7-3.8,3.8v38.9c0,2.1,1.7,3.8,3.8,3.8h35.2c0.7,0,1.2-0.6,1.2-1.2
		s-0.6-1.2-1.2-1.2H4.9c-0.7,0-1.3-0.6-1.3-1.3V10.9h42.7v20c0,0.7,0.6,1.2,1.2,1.2s1.2-0.6,1.2-1.2V5.6C48.8,3.5,47.1,1.8,45.1,1.8
		z M3.7,8.4V5.6c0-0.7,0.6-1.3,1.3-1.3h40.1c0.7,0,1.3,0.6,1.3,1.3v2.8H3.7z"/>
</g>
</svg>
