<svg xmlns="http://www.w3.org/2000/svg" id="Camada_3" version="1.1" viewBox="0 0 50 50"><defs><style>.st1,.st2{fill:none;stroke:#444}.st2{stroke-miterlimit:10}.st1{stroke-linecap:round;stroke-linejoin:round;stroke-width:2.5px}</style></defs><path fill="#c3ff68" d="M48.4 19.5c-.2-.8-2.7-7.5-3.2-8.1l-3-3.5H42l-7.6-5.7-7.8-.7c-3.2 0-14.5.3-21.4 10.2L1.3 22.3h-.2l4 13.5c.1.4 4.5 5.7 4.9 5.9l4.2 3.9L47.8 33c.7-.4 1.7-8.6.8-13.4z"/><path d="M32.2 47.4c-7 2.3-15 1.2-21.3-3.6C.5 36.1-1.6 21.4 6.2 11.1" class="st1"/><path d="M6.1 11.2c2-3 4.7-4.7 4.7-4.7l.7-.5C19.5.3 30.7.1 39 6.4c10.4 7.8 12.4 22.5 4.7 32.8" class="st1"/><path fill="#444" d="M10.5 14.7l-.8-.6c-1.2 1.6-2.1 3.3-2.7 5.1-.6 1.9-1 3.9-1 5.9s.4 4.5 1.2 6.5l-1.3.7 3.3 2.2.3-4-1.3.6c-.7-1.9-1.1-4-1.1-6.1 0-3.8 1.2-7.4 3.5-10.5zm32 11.6L40 29.4l1.4.2c-2 7.6-9 13-16.9 13s-9.7-2.1-13-5.8l-.8.7c1.7 1.9 3.8 3.4 6.1 4.5 2.4 1.1 5 1.6 7.7 1.6s4.3-.4 6.3-1.1c1.9-.7 3.8-1.7 5.4-3 1.6-1.3 3-2.8 4.1-4.6 1-1.6 1.8-3.4 2.2-5.2l1.5.2-1.4-3.7zM16.6 9.6c2.5-1.3 5.2-1.9 8-1.9 8.4 0 15.6 6 17.2 14.2l1-.2c-.4-2.1-1.2-4.1-2.3-6-1.1-1.8-2.4-3.4-4.1-4.8-1.6-1.4-3.5-2.4-5.5-3.2-2.1-.8-4.2-1.1-6.4-1.1s-3.2.2-4.8.6c-1.3.3-2.6.9-3.8 1.5l-.8-1.2-1.8 3.5 4-.2-.8-1.2z"/><circle cx="24.9" cy="25.1" r="13" class="st2"/><circle cx="24.9" cy="25.1" r="6" fill="none" stroke="#444" stroke-miterlimit="10" stroke-width=".5"/><circle cx="24.9" cy="25.1" r="3.5" class="st2"/></svg>