<svg xmlns="http://www.w3.org/2000/svg" id="Start" viewBox="0 0 300 300"><defs><filter id="drop-shadow-1" filterUnits="userSpaceOnUse"><feOffset dx="-6" dy="-4"/><feGaussianBlur result="blur"/><feFlood flood-color="#f14e70" flood-opacity="1"/><feComposite in2="blur" operator="in"/><feComposite in="SourceGraphic"/></filter><style>.cls-1{fill:#515759}.cls-1,.cls-10,.cls-11,.cls-12,.cls-17,.cls-19,.cls-27,.cls-5,.cls-7{stroke-width:0}.cls-17{fill:#fff}.cls-5{fill:#e2b700}.cls-7{fill:#5ae55a}.cls-10{fill:#9ea8a9}.cls-11{fill:#ef3030}.cls-12{fill:#708080}.cls-19{fill:#c4cbcc}.cls-27{fill:#00bf5f}</style></defs><path fill="none" stroke="#444" stroke-miterlimit="10" stroke-width="3" d="M-71.24-670.8h2331.68V367.8H-71.24z"/><path id="Camada_2" fill="#008dd3" stroke-width="0" d="M281.5 149.4c.1 20.5-4.3 40-12 57.6-21.8 49.2-70.9 83.5-128.2 83.7-15.2.1-29.9-2.3-43.6-6.7-25.8-8.2-48.4-23.8-65.3-44.2C14.8 218.7 3.3 192.3.6 163.3c-.4-4.2-.6-8.4-.6-12.7-.2-47.8 23.5-90.2 59.8-115.7 4.8-3.4 9.7-6.4 14.8-9.1 7.3-3.9 14.8-7.1 22.8-9.7 7.5-2.4 15.2-4.2 23.2-5.3 6.4-.9 12.9-1.4 19.5-1.5 25.9-.1 50.1 6.8 71.1 18.9 3.8 2.1 7.4 4.5 10.9 7 16.8 11.9 30.8 27.3 41 45.4 1.2 2 2.2 4.1 3.3 6.2.9 1.8 1.7 3.6 2.6 5.4 2.7 6 4.9 12.1 6.8 18.4 2 7.1 3.6 14.4 4.5 21.7.8 5.7 1.2 11.4 1.2 17.1z" data-name="Camada 2"/><g id="Camada_2-2" data-name="Camada 2"><path d="M62.75 155.29l-24.43-6.74 230.11-4.43 2 .34 24.1 6.63-231.78 4.2z" class="cls-12"/><path d="M59.33 267.59l21.23 4.39 5.97-8.02-23.78-4.39-3.42 8.02z" class="cls-10"/><path d="M42.07 147.21s-2.76.08-3.54 1.46c-.11.23-.22.54-.22.92.22 2.85.44 98.96.44 98.96s1.33 7.48 6.19 11.25c0 0 7.96 6.94 14.38 7.71 6.41.77 188.1-2 188.1-2s13.82.62 22.12-7.78c5.09-4.47 5.86-9.48 5.86-9.48V145.9s.22-1.85-3.43-1.77c-3.76.08-229.9 3.08-229.9 3.08z" class="cls-10"/><path fill="#aeb9ba" stroke-width="0" d="M281.59 145.9l-8.29-1.62-3.54 2.31 3.54.15v3.47s24.33.69 24.33.46c0-.31.33-1.62.33-1.62l-16.37-3.16z"/><path fill="#828d8e" stroke-width="0" d="M80.45 271.98c1 .15 2.1.31 3.21.31l-3.76-.69-15.37-10.79c-1.55-3.85-1.33-7.32-1.33-7.32l-24.44-4.78s1.33 7.32 6.08 11.1c0 0 1.99 1.7 4.76 3.55 2.76 1.85 6.41 3.78 9.62 4.16l20.02 4.16c.33.08.55.15.88.15l.33.15z"/><path d="M66.51 151.91s-3.87.08-3.76 2.39c.22 2.85.44 98.96.44 98.96s-.33 6.86 3.76 11.56c0 0 5.97 7.01 16.81 7.48 7.19 0 188.1-2 188.1-2s13.82.62 22.12-7.78c5.09-4.47 5.86-9.48 5.86-9.48V150.69s.22-1.85-3.43-1.77c-3.76 0-229.9 3.01-229.9 3.01z" class="cls-19"/><path d="M70.16 267.74l-19.79-3.78s3.43 2.77 9.95 4.01 18.91 3.78 18.91 3.78-4.53-.92-9.07-4.01z" class="cls-12"/><path style="isolation:isolate" fill="#fff" stroke-width="0" d="M291.77 226.97s-4.2-10.56-11.72 0c0 0-2.1 12.18-2.99 13.95-.88 1.77-5.31 14.95-28.31 15.57s-32.62 2.23-32.62 2.23-5.42 4.39 0 6.17c5.42 1.77 58.83 0 58.83 0s16.7-4.08 16.7-13.41.11-24.51.11-24.51z" opacity=".2"/><path d="M89.4 134.72l8.18-4.09c-.11-.11-.44 9.84-8.18 4.09z" class="cls-19"/><path d="M40.64 149.32l21.34 6.08 3.32-4.2-22.23-7.08-2.43 5.2z" class="cls-7"/><path d="M42.19 149.54s-3.87-.11-3.87-3.21v-21.34s.88-10.51 5.31-16.03c0 0 7.52-10.06 13.93-11.5 6.41-1.44 191.31-4.53 191.31-4.53s13.71-1.55 22.67 9.84c5.42 6.08 6.41 13.05 6.41 13.05v27.31s.77 2.1-2.99 2.21c-3.65.33-232.77 4.2-232.77 4.2z" class="cls-7"/><path fill="#c17842" stroke-width="0" d="M58.66 96.35c6.41-1.55 191.86-4.53 191.86-4.53"/><path fill="#089b4e" stroke-width="0" d="M250.74 91.82s3.87-.11 7.52.88c3.54 1 20.13 5.53 20.13 5.53l-3.76-.55c-.22 0-2.88 0-3.1-.11-9.18.22-184.78 3.32-191.08 4.53l-21.12-5.86s16.03-.77 18.69-.77c2.65-.11 16.81-.44 16.81-.44l155.92-3.21z"/><path d="M60.43 129.64L39.09 125c-.44-.11-.77-.44-.77-.88.77-3.65.44-11.94 10.28-20.79 2.99-2.99 6.75-5.97 10.62-6.86l21.23 5.75s-6.97 2.65-10.84 7.3c-3.87 4.64-6.86 8.85-8.07 14.38-1.22 4.53-1.11 5.75-1.11 5.75z" class="cls-27"/><path fill="#54c654" stroke-width="0" d="M64.19 155.51s-3.98 0-3.87-3.21c0-4.09.11-21.9.11-21.9s.88-10.84 5.31-16.48c0 0 7.41-10.28 13.82-11.72 6.41-1.55 191.2-4.64 191.2-4.64s13.71-1.55 22.67 10.06c5.31 6.19 6.52 13.27 6.52 13.27v25.65s.66 4.53-2.88 4.64c-3.65.33-232.88 4.31-232.88 4.31z"/><path d="M223.21 126.54c0 4.98-3.98 8.96-8.85 8.96-2.88 0-5.53-1.33-7.19-3.54-1.11-1.55-1.77-3.32-1.77-5.31 0-4.98 3.98-8.96 8.85-8.96s9.07 3.98 8.96 8.85z" class="cls-11"/><path d="M215.69 117.81l4.64.99-.22 2.32m-3.32 15.26l-4.97-1.21.55-2.44 2.88 2.33 1.54 1.32z" class="cls-11"/><circle cx="218.01" cy="127.54" r="8.96" fill="#ef5555" stroke-width="0"/><path d="M253.29 126.21c0 4.98-3.98 8.96-8.85 8.96-2.88 0-5.53-1.33-7.19-3.54-1.11-1.55-1.77-3.32-1.77-5.31 0-4.98 3.98-8.96 8.85-8.96s8.85 3.87 8.96 8.85z" class="cls-5"/><path d="M245.54 117.36l4.76 1.11-.33 2.32m-3.32 15.15l-4.98-1.11.56-2.54 2.87 2.43 1.55 1.22z" class="cls-5"/><circle cx="247.98" cy="127.09" r="8.96" fill="#fcd206" stroke-width="0"/><path d="M283.14 126.32c0 4.98-3.98 8.96-8.85 8.96-2.88 0-5.53-1.33-7.19-3.54-1.11-1.55-1.77-3.32-1.77-5.31 0-4.98 3.98-8.96 8.85-8.96s8.96 3.87 8.96 8.85z" class="cls-27"/><path d="M275.4 117.47l4.76 1-.22 2.32m-3.32 15.26l-4.98-1.22.55-2.43 2.88 2.32 1.55 1.33z" class="cls-27"/><circle cx="277.83" cy="127.2" r="8.96" fill="#07e570" stroke-width="0"/><path style="isolation:isolate" fill="#fdffff" stroke-width="0" d="M271.31 130.85l13.82-5.42s.66 6.52-4.09 8.63c-4.87 1.99-9.73-3.21-9.73-3.21z" opacity=".4"/><path style="isolation:isolate" fill="#fff" stroke-width="0" d="M255.17 126.65l-13.71 4.42s4.87 5.2 9.73 3.1c0 0 4.53-1.99 3.98-7.52z" opacity=".4"/><path style="isolation:isolate" fill="#fff" stroke-width="0" d="M225.09 126.54l-13.6 4.31s4.87 5.2 9.73 3.1c0 0 4.53-1.99 3.87-7.41z" opacity=".3"/></g><path d="M179.25 197.06h7.92v7.92h-7.92zm0 17.09h7.92v7.92h-7.92zm-67.18-9.89l3.96 3.96 3.96-3.96v-22.7l-1.63-1.63-2.85 2.86-3.44 3.43v18.04zm0 27.93l3.44 3.43 2.85 2.86 1.63-1.64v-22.69l-3.96-3.96-3.96 3.96v18.04zm48.01-27.93l3.95 3.96 3.96-3.96v-22.7l-1.63-1.63-2.85 2.86-3.43 3.43v18.04zm-20.02-18.04l-6.28-6.29-1.63 1.63v22.7l3.96 3.96 3.95-3.96v-18.04zm-2.97 22.98l3.96 3.96h18.04l3.96-3.96-3.96-3.95h-18.04l-3.96 3.95zm22.99 22.99l3.43 3.43 2.85 2.86 1.63-1.64v-22.69l-3.96-3.96-3.95 3.96v18.04zm88.97-53.24l1.63-1.63h27.35l1.63 1.63-6.28 6.28h-18.04l-6.29-6.28zm25.31 7.27l6.29-6.29 1.63 1.63v22.7l-3.96 3.96-3.96-3.96v-18.04zm5.62 53.2l-1.67 1.67h-27.97l-1.66-1.67 6.42-6.42h18.45l6.43 6.42zm-2.64-30.22l-3.96 3.96h-18.04l-3.96-3.96 3.96-3.95h18.04l3.96 3.95zm1.27.29l4.04 4.05v23.21l-1.66 1.67-6.43-6.43v-18.45l4.05-4.05zm-77.56-30.54l1.63-1.63h27.35l1.63 1.63-6.28 6.28h-18.04l-6.29-6.28zm5.3 25.31l-3.96 3.96-3.96-3.96v-22.7l1.63-1.63 2.86 2.86 3.43 3.43v18.04zm25.31 35.2l-1.63 1.63h-27.35l-1.63-1.63 6.29-6.29h18.04l6.28 6.29zm-2.32-30.26l-3.96 3.96h-18.04l-3.96-3.96 3.96-3.95h18.04l3.96 3.95zm.98.99l3.96 3.96v22.69l-1.63 1.64-6.29-6.29v-18.04l3.96-3.96z" class="cls-1"/><path fill="#979a9b" stroke-width="0" d="M117.38 178.95l-1.64-1.63H88.39l-1.63 1.63 6.29 6.28h18.04l6.29-6.28zm-25.32 7.27l-6.28-6.29-1.63 1.63v22.7l3.95 3.96 3.96-3.96v-18.04zm-5.3 53.24l1.63 1.63h27.35l1.64-1.63-6.29-6.29H93.05l-6.29 6.29zm2.33-30.26l3.96 3.96h18.04l3.96-3.96-3.96-3.95H93.05l-3.96 3.95zm-.99.99l-3.95 3.96v22.69l1.63 1.64 6.28-6.29v-18.04l-3.96-3.96zm77.28-31.24l-1.63-1.63h-27.36l-1.63 1.63 6.29 6.28h18.04l6.29-6.28zm-30.62 60.51l1.63 1.63h27.36l1.63-1.63-6.29-6.29h-18.04l-6.29 6.29zm1.35-29.27l-3.96 3.96v22.69l1.63 1.64 6.28-6.29v-18.04l-3.95-3.96zm118.24-5.93l-3.96 3.96-3.96-3.96v-22.7l1.64-1.63 2.85 2.86 3.43 3.43v18.04zm0 27.93l-3.43 3.43-2.85 2.86-1.64-1.64v-22.69l3.96-3.96 3.96 3.96v18.04zm-27.99-45.97l6.29-6.29 1.63 1.63v22.7l-3.96 3.96-3.96-3.96v-18.04zm-20.01 45.97l-3.43 3.43-2.86 2.86-1.63-1.64v-22.69l3.96-3.96 3.96 3.96v18.04z"/><circle cx="121.64" cy="87.37" r="59.66" fill="#ff8da4" stroke-width="0" filter="url(#drop-shadow-1)"/><path d="M122.72 59.44s.47-2.27 2.74-1.75 4.49 1.17 4.49 1.17 1.75.23 1.22 2.86-13.77 55-13.77 55-.52 1.87-2.51 1.52c-1.98-.35-4.61-1.11-4.61-1.11s-2.04-.47-1.4-3.03 13.82-54.65 13.82-54.65z" class="cls-1"/><path d="M124.06 57.81l5.07-1.34.23 2.04s-3.38.41-3.38.35-1.92-1.05-1.92-1.05z" class="cls-1"/><path fill="#ed4f79" stroke-width="0" d="M115.66 118.29l5.19-1.34-2.86-2.1-2.68 1.46.35 1.98z"/><path d="M95.77 67.2l4.49 4.61s1.22 1.11.35 2.27c-.87 1.11-11.9 13.36-11.9 13.36s-1.4 1.22.29 3.09 11.37 12.02 11.37 12.02.99.99.12 2.16-4.84 5.48-4.84 5.48-1.63 1.17-2.86 0c-1.17-1.17-18.96-19.48-18.96-19.48s-1.57-1.52.12-3.32c1.69-1.81 18.61-20.12 18.61-20.12s1.63-1.63 3.21-.06z" class="cls-1"/><path d="M93.67 110.65l4.78 1.34-.23-3.26-4.96-.82.41 2.74zm5.66-42.75l-4.73-1.4.12 3.32 5.02.76-.41-2.68z" class="cls-1"/><path d="M100.38 68.54l4.49 4.61s1.22 1.11.35 2.27c-.87 1.11-11.9 13.36-11.9 13.36s-1.4 1.22.29 3.09 11.37 12.02 11.37 12.02.99.99.12 2.16-4.84 5.48-4.84 5.48-1.63 1.17-2.86 0c-1.17-1.17-18.96-19.48-18.96-19.48s-1.57-1.52.12-3.32c1.69-1.81 18.61-20.12 18.61-20.12s1.63-1.63 3.21-.06z" class="cls-17"/><path d="M142.96 110.71l-4.49-4.61s-1.22-1.11-.35-2.27c.87-1.11 11.9-13.36 11.9-13.36s1.4-1.22-.29-3.09-11.37-12.02-11.37-12.02-.99-.99-.12-2.16 4.84-5.48 4.84-5.48 1.63-1.17 2.86 0c1.17 1.17 18.96 19.48 18.96 19.48s1.57 1.52-.12 3.32c-1.69 1.81-18.61 20.12-18.61 20.12s-1.69 1.63-3.21.06z" class="cls-1"/><path d="M149.67 68.54l-4.61-1.28.17 3.26 5.02.82-.58-2.8zm-5.9 42.75l4.67 1.29-.06-3.21-4.96-.76.35 2.68z" class="cls-1"/><path d="M147.51 111.99l-4.49-4.61s-1.22-1.11-.35-2.27c.87-1.11 11.9-13.36 11.9-13.36s1.4-1.22-.29-3.09-11.37-12.02-11.37-12.02-.99-.99-.12-2.16 4.84-5.48 4.84-5.48 1.63-1.17 2.86 0c1.17 1.17 18.96 19.48 18.96 19.48s1.57 1.52-.12 3.32c-1.69 1.81-18.61 20.12-18.61 20.12s-1.69 1.63-3.21.06zm-20.13-53.72s.47-2.27 2.74-1.75 4.49 1.17 4.49 1.17 1.75.23 1.22 2.86-13.77 55-13.77 55-.52 1.87-2.51 1.52c-1.98-.35-4.61-1.11-4.61-1.11s-2.04-.47-1.4-3.03 13.82-54.65 13.82-54.65z" class="cls-17"/><path fill="#ddd" stroke="#515759" stroke-miterlimit="10" stroke-width="4" d="M240.46 95.2c-6.76-2.51-11.83-8.25-11.83-8.25l17.43-14.54c.29-.2.45-.58.49-.95h0c.04-.37-.11-.73-.3-.96L239 62.09a1.29 1.29 0 00-1.07-.42h0c-.3.02-.61.1-.78.29l-16.98 14.88s-4.42-6.2-5.42-13.36c-.81-6.12-17.58 31.61-22.51 42.8-.59 1.32.53 2.66 1.92 2.39 11.95-2.52 52.06-11.27 46.3-13.48z"/><path style="isolation:isolate" fill="#fff" stroke-width="0" d="M218.39 92.18c-3.78 2.19-10.5 5.18-13.39 6.77-3.6 2-6.01 3.56-7.1 4.73-.46.46.07 1.16.8.99 1.82-.3 5.5-1.08 13.01-3.08h.06c3.14-.57 20.3-4.88 21.72-5.58 3.87-.73-5.57-2.95-8.44-6.93v-.06" opacity=".36"/><path style="isolation:isolate" fill="#fff" stroke-width="0" d="M222.17 94.08c-2.2 1.05-6.14 2.52-7.86 3.37-2.08.99-3.5 1.75-4.19 2.34-.29.26.03.55.46.46 1.03-.19 3.21-.57 7.61-1.58h.06c1.82-.3 11.83-2.52 12.72-2.82 2.3-.39-3.2-1.33-4.85-3.24" opacity=".61"/></svg>