<?xml version="1.0" encoding="utf-8"?>
<!-- Generator: Adobe Illustrator 22.1.0, SVG Export Plug-In . SVG Version: 6.00 Build 0)  -->
<svg version="1.1" id="Layer_1" xmlns="http://www.w3.org/2000/svg" xmlns:xlink="http://www.w3.org/1999/xlink" x="0px" y="0px"
	 viewBox="0 0 50 50" style="enable-background:new 0 0 50 50;" xml:space="preserve">
<style type="text/css">
	.st0{fill:#00C8E2;}
	.st1{fill:none;}
	.st2{fill:#494949;}
	.st3{fill:#00DFFC;}
	.st4{fill:#444444;}
	.st5{fill-rule:evenodd;clip-rule:evenodd;fill:#444444;}
</style>
<g>
	<g>
		<path class="st0" d="M40.7,33.7c4-5.2,5.9-12.9,6.4-19l-0.2,0c0.9-0.9,1.5-1.8,1.7-2.8l-35.8,13c0.4,1.3,0.9,2.5,1.4,3.7
			c-2-0.4-4-1.1-5.6-2.2l-2.5,0.9c3,2.8,7,5.2,10.4,6.5c-4,1.4-6.6,3.5-6.6,5.8c0,1.7,1.4,3.3,3.8,4.6L42,34.1
			C41.6,34,41.2,33.8,40.7,33.7z"/>
	</g>
	<g>
		<path class="st1" d="M14.3,28.7c-0.5-1.2-1-2.5-1.4-3.7l-4.2,1.5C10.3,27.6,12.3,28.2,14.3,28.7z"/>
	</g>
	<g>
		<path class="st2" d="M5.5,22.5c0.6,1.8,1.8,3,3.2,4l4.2-1.5c-0.3-0.8-0.5-1.6-0.7-2.4C10.4,20.6,3.5,16.7,5.5,22.5z"/>
	</g>
	<g>
		<path class="st3" d="M5.5,22.5c-2-5.8,4.9-1.9,6.7,0c0.2,0.8,0.4,1.6,0.7,2.4l35.8-13c1-4.5-5.5-9.3-19.6-9.3
			c-17.2,0-23.1,7.2-17.9,12.2c-0.1,0-0.2,0-0.3,0c0,0.3,0.1,0.7,0.1,1c-0.1-0.1-0.1-0.1-0.1-0.1s0,0.5-0.6,0.6
			c-1.4,0.2-6.9-2.4-8.1,2.7c-0.6,2.8,1.2,5.8,4.1,8.5l2.5-0.9C7.2,25.5,6.1,24.3,5.5,22.5z"/>
	</g>
	<g>
		<path class="st4" d="M5.5,22.6c1.3,3.8,5.1,5.4,8.8,6.2c-0.9-2-1.6-4.1-2.1-6.1C10.4,20.7,3.5,16.7,5.5,22.6z"/>
	</g>
	<path class="st4" d="M41.6,32.6c-0.1,0-0.3-0.1-0.4-0.1c-0.5-0.2-1.1,0-1.4,0.4c-2.9,3.9-6.6,5.9-11.1,5.9c-4,0-7.4-1.7-10.2-4.9
		l-0.2-0.3L18,33.6c-0.6-0.2-1.3-0.5-2-0.8c0,0,0,0,0,0C9.5,30,2.1,23.9,3.1,19.6c0.6-2.4,2.1-2.5,5.1-1.9c0.6,0.1,1.2,0.2,1.6,0.2
		l6.6,1.8c3.1,0.9,7.1,1.5,12,1.5c8,0,13.5-1.5,16.9-3.6c-0.3,2.1-0.7,4.1-1.3,6c-0.2,0.7,0.2,1.4,0.9,1.5c0.1,0,0.2,0,0.3,0
		c0.5,0,1-0.4,1.2-0.9c0.8-2.8,1.4-6,1.6-9c0,0,0-0.1,0-0.1c0.9-1.2,1.3-2.4,1.3-3.6c0-2.7-2-5.2-5.6-6.9c-3.8-1.8-9.1-2.8-15.4-2.8
		c-6.3,0-11.6,1-15.4,2.8c-3.6,1.8-5.6,4.2-5.6,6.9c0,1.3,0.5,2.5,1.4,3.7c0,0-0.1,0-0.1,0c-2-0.4-6.8-1.3-8,3.8
		c-1.3,5.5,5.5,11.4,11.8,14.8C9.6,35.4,8,37.3,8,39.4c0,5.7,10.6,8.7,20.5,8.7c10,0,20.5-3.1,20.5-8.7
		C49.1,36.7,46.4,34.3,41.6,32.6z M28.5,4.3C40.5,4.3,47,8,47,11.5c0,1.7-1.5,3.4-4.2,4.7c-2.4,1.1-6.8,2.5-14.3,2.5
		s-11.9-1.4-14.3-2.5c-2.7-1.3-4.2-3-4.2-4.7C10,8,16.4,4.3,28.5,4.3z M38.3,38.1c0.6,0.5,0.9,1,0.9,1.5c0,2.1-4.9,3.8-10.6,3.8
		c-5.8,0-10.7-1.8-10.7-3.8c0-0.6,0.4-1.2,1.2-1.7c2.8,2.3,6,3.5,9.7,3.5C32.3,41.4,35.5,40.3,38.3,38.1z M28.5,45.7
		c-10.3,0-18-3.3-18-6.2c0-1.4,1.9-3,5-4.2c0.5,0.2,1,0.4,1.4,0.6c0.6,0.6,1.2,1.2,1.8,1.8c-0.8,0.6-1.3,1.3-1.3,2
		c0,2.4,4.9,4.3,11.2,4.3c6.2,0,11.1-1.9,11.1-4.3c0-0.6-0.3-1.3-1-1.8c0.9-0.8,1.8-1.7,2.6-2.7c3.3,1.2,5.3,2.8,5.3,4.3
		C46.6,42.4,38.8,45.7,28.5,45.7z"/>
	<path class="st5" d="M28.8,5c-9.1,0-16.5,3-16.5,6.7s7.4,6.7,16.5,6.7c9.1,0,16.5-3,16.5-6.7S38,5,28.8,5z M43.6,14
		c0.3-0.4,0.5-0.9,0.5-1.3c0-2.9-6.8-5.4-15.2-5.4c-8.4,0-15.2,2.4-15.2,5.4c0,0.5,0.2,0.9,0.5,1.3c-0.8-0.7-1.3-1.5-1.3-2.4
		c0-3.3,7.3-6.2,16-6.2c8.7,0,16,2.8,16,6.2C44.9,12.5,44.4,13.3,43.6,14z"/>
</g>
</svg>
