<?xml version="1.0" encoding="UTF-8"?>
<svg id="Layer_1" data-name="Layer 1" xmlns="http://www.w3.org/2000/svg" version="1.1" viewBox="0 0 48 47">
  <defs>
    <style>
      .cls-1 {
        fill: #f9f941;
      }

      .cls-1, .cls-2, .cls-3 {
        stroke-width: 0px;
      }

      .cls-2 {
        fill: #d1bd00;
      }

      .cls-3 {
        fill: #444;
      }

      .cls-4 {
        fill: none;
        stroke: #444;
        stroke-linecap: round;
        stroke-linejoin: round;
        stroke-width: 2.5px;
      }
    </style>
  </defs>
  <polygon class="cls-2" points="28 20.2 35.8 22.7 29.1 27.4 29.2 35.6 22.7 30.7 14.9 33.3 17.5 25.6 12.6 19 20.8 19.1 25.6 12.4 28 20.2"/>
  <g>
    <path class="cls-1" d="M43.7,3.4H2.6c-1.4,0-1.4,3.8-1.4,5.2l-.2,12.9-.5,10.2,1.2,11.8,12.4.6,32.1-11.4V6h0c0-1.4-1.1-2.6-2.5-2.6Z"/>
    <path class="cls-4" d="M30.8,44.9H4.7c-1.8,0-3.3-1.6-3.3-3.5V6.4c0-1.9,1.5-3.5,3.3-3.5h37.6c1.8,0,3.3,1.6,3.3,3.5v28.5"/>
    <g>
      <circle class="cls-3" cx="6.7" cy="7.9" r="1.3"/>
      <circle class="cls-3" cx="10.4" cy="7.9" r="1.3"/>
      <circle class="cls-3" cx="14" cy="7.9" r="1.3"/>
      <path class="cls-3" d="M14,39l2.3-1.4c.4.8.9,1.5,1.8,1.5s1.5-.4,1.5-1.8v-9.7h2.9v9.7c0,3-1.7,4.3-4.3,4.3s-3.5-1.1-4.2-2.6ZM24.1,38.7l2.3-1.3c.6,1,1.4,1.7,2.8,1.7s1.9-.6,1.9-1.4-.8-1.3-2.1-1.9l-.7-.3c-2.1-.9-3.4-2-3.4-4.3s1.6-3.8,4.2-3.8,3.1.6,4.1,2.3l-2.2,1.4c-.5-.9-1-1.2-1.8-1.2s-1.4.5-1.4,1.2.5,1.2,1.8,1.7l.7.3c2.4,1,3.8,2.1,3.8,4.5s-2,4-4.7,4-4.5-1.2-5.3-2.9ZM41.2,33.6l-1.9,7.5h-1.7l1.9-7h-1.5v1.3h-1.6v-2.8h4.9v1h-.1Z"/>
      <circle class="cls-3" cx="35.3" cy="40.5" r=".6"/>
    </g>
  </g>
</svg>