<svg xmlns="http://www.w3.org/2000/svg" id="Camada_3" data-name="Camada 3" version="1.1" viewBox="0 0 50 50"><defs><style>.cls-1{stroke-width:.5px}.cls-1,.cls-2{fill:none;stroke:#444;stroke-linecap:round;stroke-linejoin:round}.cls-4{fill:#444;stroke-width:0}</style></defs><path fill="#7df4eb" stroke-width="0" d="M44.6 12.4L39 8.8l-7.7-4.4-6-2.8c-3.1-.1-21.4 8.9-21.4 12.1l-.5 7.8.5 15.1 11.5 7.6 31-11c.7-.4-.8-18.7-1.8-20.7z"/><path fill="none" stroke="#444" stroke-linecap="round" stroke-linejoin="round" stroke-width="2.5" d="M29.9 46.4l-2.2 1.3c-1.7 1-3.8 1-5.5 0l-15.6-9c-1.7-1-2.7-2.8-2.7-4.7V16c0-2 1-3.8 2.7-4.7l15.6-9c1.7-1 3.8-1 5.5 0l15.6 9c1.7 1 2.7 2.8 2.7 4.7v18c0 2-1 3.8-2.7 4.7l-2.5 1.4"/><path d="M14 22.3h5.3v6.8H14z" class="cls-1" transform="rotate(-90 16.7 25.7)"/><path d="M14 10.1h5.3v6.8H14z" class="cls-2" transform="rotate(-90 16.7 13.5)"/><path d="M31.9 22.5h5.3v6.8h-5.3z" class="cls-1" transform="rotate(-90 34.6 25.9)"/><path d="M27.4 5.5h5.3v16h-5.3z" class="cls-2" transform="rotate(-90 30 13.5)"/><path d="M23 22.2h5.3V29H23z" class="cls-1" transform="rotate(-90 25.6 25.6)"/><path d="M23.6 24.9h4v24.8h-4z" class="cls-2" transform="rotate(-90 25.65 37.25)"/><path d="M17.9 31.1v3.2" class="cls-1"/><path d="M17.2 31.3l.7-1.3.8 1.3h-1.5z" class="cls-4"/><path d="M33.6 31.1v3.2" class="cls-1"/><path d="M32.9 31.3l.7-1.3.8 1.3h-1.5z" class="cls-4"/><path d="M34.6 18.4v3.2" class="cls-1"/><path d="M33.8 18.7l.8-1.4.8 1.4h-1.6z" class="cls-4"/><path d="M25.6 31.1v3.2" class="cls-1"/><path d="M24.9 31.3l.7-1.3.8 1.3h-1.5z" class="cls-4"/><path d="M25.6 18.4v3.2" class="cls-1"/><path d="M24.9 18.7l.7-1.4.8 1.4h-1.5z" class="cls-4"/><g><path d="M16.7 18.4v3.2" class="cls-1"/><path d="M15.9 18.7l.8-1.4.7 1.4h-1.5z" class="cls-4"/></g></svg>