<svg xmlns="http://www.w3.org/2000/svg" id="Layer_1" x="0" y="0" version="1.1" viewBox="0 0 50 50" xml:space="preserve"><style>.st3{fill:none;stroke:#444;stroke-linecap:round;stroke-linejoin:round;stroke-width:.5}</style><path fill="#c3ff68" d="M41 11.6l-2.4 3.6c-.6.7-2.1.5-2.3.2l-1.8-1.2c-.5-.7-.2-3-1.1-3H29c-.6 0-14.1-.4-14.6 0H8.1c-3 0-3.1-.1-4.9 0l-1.8 1.3c0 .2.1 5.7.1 6V20c0 .2-.1 2.4 0 2.6l.2 2.3-.2 5.9v6.7c0 .1 3.1 1.7 3.1 1.7.1.3 9 .1 9.2 0L49 26.4c.2-.1.4-.3.3-.5l-.6-5.3v-3.3l-1.4-5.8"/><path fill="none" stroke="#444" stroke-linecap="round" stroke-linejoin="round" stroke-miterlimit="10" d="M13.4 20.1l-4.3 4.7 4.3 4.9m11.4-9.6l4.3 4.7-4.3 4.9m-2.7-12.4l-6.3 15.4"/><path fill="none" stroke="#444" stroke-linecap="round" stroke-linejoin="round" stroke-miterlimit="10" stroke-width="2.5" d="M44.7 38.7h-4v-.8c0-1.9-1.6-3.5-3.5-3.5h0c-1.9 0-3.5 1.6-3.5 3.5v.8H4.2c-1.5 0-2.7-1.2-2.7-2.7V14c0-1.5 1.2-2.7 2.7-2.7h29.5v.8c0 1.9 1.6 3.5 3.5 3.5h0c1.9 0 3.5-1.6 3.5-3.5v-.8h5.1c1.5 0 2.7 1.2 2.7 2.7v14.3"/><path d="M36.6 18.3v1" class="st3"/><path fill="none" stroke="#444" stroke-dasharray="2.2914,2.2914" stroke-linecap="round" stroke-linejoin="round" stroke-width=".5" d="M36.6 21.6v8"/><path d="M36.6 30.7v1" class="st3"/></svg>