<svg version="1" xmlns="http://www.w3.org/2000/svg" viewBox="0 0 50 50"><path fill="#DC5E82" d="M12.103 41.73l26.172-9.526c.421-1.093.751-2.231.959-3.413l6.457.64 1.738-1.105V22.9l-1.738-1.105-6.442.639a18.349 18.349 0 0 0-2.823-7.122l3.052-3.052a3.69 3.69 0 0 0 0-5.228 3.695 3.695 0 0 0-5.227 0l-3.074 3.075a18.403 18.403 0 0 0-10.124-3.022c-10.206 0-18.481 8.274-18.481 18.481 0 6.958 3.849 13.012 9.531 16.164z"/><path fill="#F56991" d="M39.479 7.083c-.015-.016-.025-.034-.04-.049a3.695 3.695 0 0 0-5.227 0l-3.074 3.075a18.388 18.388 0 0 0-10.124-3.024c-8.356 0-15.409 5.548-17.695 13.159l36.16-13.161z"/><path fill="#444" d="M45.974 20.606l-5.796.575a19.352 19.352 0 0 0-2.281-5.705l2.399-2.399c.917-.918 1.423-2.136 1.423-3.43s-.505-2.512-1.423-3.43a4.857 4.857 0 0 0-6.861 0l-2.426 2.427a19.553 19.553 0 0 0-9.956-2.714c-10.827 0-19.636 8.809-19.636 19.636s8.809 19.636 19.636 19.636a1.155 1.155 0 1 0 0-2.31c-9.554 0-17.326-7.772-17.326-17.326S11.499 8.24 21.053 8.24c3.324 0 6.549.951 9.341 2.744.032.031.056.068.095.094a17.776 17.776 0 0 1 5.054 5.011c.002.002.005.003.006.006a17.125 17.125 0 0 1 2.561 6.535l.018.106-3.059.254c-1.223-6.693-7.165-11.69-14.02-11.69-7.862 0-14.258 6.4-14.258 14.267s6.396 14.267 14.258 14.267c6.918 0 12.735-4.851 14.009-11.591l3.056.254-.017.095a17.26 17.26 0 0 1-1.154 3.848 1.155 1.155 0 1 0 2.12.917 19.589 19.589 0 0 0 1.094-3.312l5.817.577 2.61-1.659v-6.697l-2.61-1.66zm-13.713-9.949l2.806-2.807a2.543 2.543 0 0 1 4.34 1.797c0 .677-.265 1.316-.746 1.797l-2.779 2.779a19.08 19.08 0 0 0-3.621-3.566zM21.049 38.91c-7.352 0-13.334-5.986-13.334-13.343 0-7.358 5.981-13.343 13.334-13.343 6.38 0 11.914 4.629 13.094 10.842l-.078.006a1.24 1.24 0 0 0-1.131 1.241v2.607c0 .647.486 1.18 1.135 1.241l.063.005c-1.229 6.252-6.645 10.744-13.083 10.744zm25.224-11.216l-.865.55-11.257-1.004a.32.32 0 0 1-.292-.32v-2.607c0-.168.125-.305.287-.32l11.262-1.008.865.55v4.159z"/></svg>