<?xml version="1.0" encoding="utf-8"?>
<!-- Generator: Adobe Illustrator 27.9.0, SVG Export Plug-In . SVG Version: 6.00 Build 0)  -->
<svg version="1.1" id="Camada_3" xmlns="http://www.w3.org/2000/svg" xmlns:xlink="http://www.w3.org/1999/xlink" x="0px" y="0px"
	 viewBox="0 0 50 50" style="enable-background:new 0 0 50 50;" xml:space="preserve">
<style type="text/css">
	.st0{fill:#DC5E82;}
	.st1{fill:none;stroke:#444444;stroke-width:2.5;stroke-linecap:round;stroke-linejoin:round;stroke-miterlimit:10;}
	.st2{fill:#444444;}
	.st3{fill:none;stroke:#444444;stroke-width:0.5;stroke-linecap:round;stroke-linejoin:round;stroke-miterlimit:10;}
</style>
<g>
	<g>
		<path class="st0" d="M47.92,20.13c-0.2-0.8-2.7-7.5-3.2-8.1l-3-3.5l-0.2,0.1l-7.6-5.7l-7.8-0.7c-3.2,0-12.8-0.7-21.3,11.5
			l-2.9,7.9l0.5,2l1.8,11.5c0.1,0.4,4.7,7,5.1,7.2l5.6,3l32.2-11.7C47.82,33.13,48.82,24.93,47.92,20.13z"/>
		<path class="st1" d="M28.12,47.73c-12.6,1.6-24.1-7.4-25.7-20.1c-1.6-12.6,7.4-24.1,20.1-25.7c12.6-1.6,24.1,7.4,25.7,20.1
			c0.6,5.1-0.5,10-2.8,14.1"/>
	</g>
	<g>
		<g>
			<path class="st2" d="M27.34,21.04c-0.58-0.27-1.19-0.4-1.83-0.4c0,0,0,0,0,0c-0.59,0-1.16,0.12-1.7,0.34
				c-0.52,0.22-0.99,0.54-1.39,0.94c-0.4,0.4-0.72,0.87-0.94,1.39c-0.23,0.54-0.35,1.12-0.35,1.71c0,0.4,0.05,0.81,0.16,1.19
				c0.12,0.43,0.3,0.83,0.55,1.21c0.45,0.69,1.09,1.24,1.84,1.59c0.47,0.22,0.96,0.35,1.48,0.39c0.12,0.01,0.24,0.01,0.35,0.01
				c0,0,0,0,0,0c0.59,0,1.16-0.12,1.7-0.34c0.52-0.22,0.99-0.54,1.39-0.94c0.4-0.4,0.72-0.87,0.94-1.39
				c0.23-0.54,0.34-1.12,0.35-1.71c0-0.86-0.25-1.68-0.71-2.4C28.73,21.94,28.09,21.39,27.34,21.04z M27.73,27.26
				c-0.6,0.6-1.39,0.92-2.23,0.92c0,0,0,0,0,0c-0.46,0-0.9-0.1-1.31-0.29c-0.84-0.39-1.47-1.12-1.72-2.02
				c-0.08-0.28-0.12-0.56-0.12-0.85c0-0.84,0.33-1.63,0.93-2.23c0.6-0.6,1.39-0.92,2.23-0.92c0,0,0,0,0,0c0.09,0,0.17,0,0.25,0.01
				c0.37,0.03,0.72,0.12,1.06,0.28c1.12,0.51,1.84,1.64,1.84,2.87C28.66,25.88,28.33,26.67,27.73,27.26z"/>
			<polygon class="st2" points="23.79,20.25 23.79,20.25 23.79,20.25 			"/>
			<path class="st2" d="M33.57,24.95l0-1c0-0.1-0.02-0.2-0.06-0.29c-0.09-0.24-0.3-0.42-0.55-0.49l-0.79-0.21
				c-0.01,0-0.03-0.01-0.04-0.01l-0.01,0l-0.28-0.08l-0.01-0.02c-0.09-0.26-0.2-0.52-0.32-0.77l-0.01-0.02l0.59-1.01
				c0.18-0.32,0.13-0.72-0.13-0.97l-1.52-1.53c-0.26-0.26-0.66-0.31-0.97-0.13l-1.01,0.59l-0.02-0.01c-0.25-0.12-0.5-0.23-0.76-0.32
				l-0.02-0.01l-0.3-1.13c-0.09-0.35-0.41-0.6-0.78-0.6l-2.16,0l-0.01,0c-0.36,0-0.68,0.25-0.77,0.6l-0.3,1.13l-0.02,0.01
				c-0.26,0.09-0.52,0.2-0.76,0.32l-0.02,0.01l-1.01-0.59c-0.32-0.18-0.72-0.13-0.97,0.13l-1.52,1.52
				c-0.26,0.26-0.31,0.66-0.13,0.97l0.59,1.01l-0.01,0.02c-0.12,0.25-0.23,0.51-0.32,0.77l-0.01,0.02l-1.13,0.3
				c-0.35,0.09-0.6,0.41-0.6,0.78l0,2.16c0,0.07,0.01,0.15,0.03,0.22c0.08,0.27,0.29,0.49,0.57,0.56l1.13,0.3l0.01,0.02
				c0.09,0.26,0.2,0.52,0.32,0.77l0.01,0.02L18.92,29c-0.18,0.32-0.13,0.72,0.13,0.97l1.52,1.53c0.07,0.07,0.15,0.12,0.23,0.16
				c0.24,0.11,0.52,0.1,0.74-0.04l1.01-0.59l0.02,0.01c0.25,0.12,0.5,0.23,0.76,0.32l0.02,0.01l0.3,1.13
				c0.09,0.33,0.37,0.57,0.71,0.6c0.02,0,0.04,0,0.06,0l2.16,0c0,0,0,0,0,0c0.36,0,0.68-0.25,0.78-0.6l0.3-1.13l0.02-0.01
				c0.28-0.09,0.54-0.2,0.78-0.31l0.02-0.01l1,0.58c0.32,0.18,0.72,0.13,0.97-0.13l1.52-1.53c0.26-0.26,0.31-0.66,0.13-0.97
				l-0.59-1.01l0.01-0.02c0.12-0.25,0.23-0.51,0.32-0.77l0.01-0.02l1.13-0.3c0.35-0.09,0.6-0.41,0.6-0.78L33.57,24.95z M32.33,25.78
				l-1.14,0.3c-0.21,0.06-0.38,0.22-0.44,0.43c-0.12,0.42-0.28,0.82-0.49,1.19c-0.11,0.19-0.1,0.42,0.01,0.61l0.59,1.02l-1.06,1.06
				l-0.87-0.51c-0.01-0.01-0.02-0.01-0.03-0.02l-0.12-0.07c-0.13-0.07-0.28-0.1-0.43-0.07c-0.07,0.01-0.13,0.04-0.19,0.07
				c-0.38,0.21-0.78,0.38-1.19,0.49c-0.21,0.06-0.37,0.23-0.43,0.44l-0.3,1.14l-1.5,0l-0.3-1.14c-0.06-0.21-0.22-0.38-0.43-0.44
				c-0.41-0.12-0.82-0.28-1.19-0.5c-0.08-0.04-0.16-0.07-0.25-0.08c-0.13-0.01-0.25,0.02-0.36,0.08l-1.02,0.59l-1.06-1.06l0.59-1.02
				c0.11-0.19,0.11-0.42,0-0.61c-0.21-0.38-0.38-0.78-0.49-1.19l0,0c-0.06-0.21-0.23-0.37-0.44-0.43l-1.14-0.3l0-1.5l1.14-0.3
				c0.21-0.06,0.38-0.22,0.44-0.43c0.12-0.41,0.28-0.82,0.49-1.19c0.11-0.19,0.1-0.42,0-0.61l-0.59-1.02l1.06-1.06l1.02,0.59
				c0.19,0.11,0.42,0.11,0.61,0.01c0.38-0.21,0.78-0.38,1.19-0.49c0.21-0.06,0.37-0.23,0.43-0.44l0.3-1.14l1.5,0l0.3,1.14
				c0.05,0.21,0.22,0.38,0.43,0.44c0.41,0.12,0.82,0.28,1.19,0.5c0.19,0.11,0.42,0.1,0.61,0l1.02-0.59l1.06,1.06l-0.59,1.02
				c-0.11,0.19-0.11,0.42,0,0.61c0.21,0.38,0.38,0.78,0.49,1.19l0,0c0.06,0.21,0.23,0.37,0.44,0.43l1.14,0.3l0,0.57L32.33,25.78z"/>
			<path class="st2" d="M25.52,9.36c1.32,0,2.4-1.08,2.4-2.4c0-1.32-1.08-2.4-2.4-2.4c-1.32,0-2.4,1.08-2.4,2.4
				C23.12,8.29,24.19,9.36,25.52,9.36z M25.52,5.71c0.69,0,1.25,0.56,1.25,1.25c0,0.69-0.56,1.25-1.25,1.25
				c-0.69,0-1.25-0.56-1.25-1.25C24.26,6.27,24.83,5.71,25.52,5.71z"/>
			<path class="st2" d="M10.61,19.57c0-1.32-1.08-2.4-2.4-2.4c-1.32,0-2.4,1.08-2.4,2.4c0,1.32,1.08,2.4,2.4,2.4
				C9.53,21.97,10.61,20.89,10.61,19.57z M6.95,19.57c0-0.69,0.56-1.25,1.25-1.25c0.69,0,1.25,0.56,1.25,1.25S8.9,20.82,8.2,20.82
				C7.51,20.82,6.95,20.26,6.95,19.57z"/>
			<path class="st2" d="M42.81,17.17c-1.32,0-2.4,1.08-2.4,2.4c0,1.32,1.08,2.4,2.4,2.4c1.32,0,2.4-1.08,2.4-2.4
				C45.21,18.25,44.13,17.17,42.81,17.17z M42.81,20.82c-0.69,0-1.25-0.56-1.25-1.25s0.56-1.25,1.25-1.25s1.25,0.56,1.25,1.25
				S43.5,20.82,42.81,20.82z"/>
			<path class="st2" d="M36.23,37.5c-1.32,0-2.4,1.08-2.4,2.4s1.08,2.4,2.4,2.4c1.32,0,2.4-1.08,2.4-2.4S37.55,37.5,36.23,37.5z
				 M36.23,41.16c-0.69,0-1.25-0.56-1.25-1.25s0.56-1.25,1.25-1.25s1.25,0.56,1.25,1.25S36.92,41.16,36.23,41.16z"/>
			<path class="st2" d="M14.8,37.5c-1.32,0-2.4,1.08-2.4,2.4s1.08,2.4,2.4,2.4c1.32,0,2.4-1.08,2.4-2.4S16.13,37.5,14.8,37.5z
				 M14.8,41.16c-0.69,0-1.25-0.56-1.25-1.25s0.56-1.25,1.25-1.25s1.25,0.56,1.25,1.25S15.5,41.16,14.8,41.16z"/>
			<path class="st2" d="M7.85,25.03c0-0.32-0.26-0.57-0.57-0.57c-0.32,0-0.57,0.26-0.57,0.57c0,2.11,0.35,4.18,1.03,6.16
				c0.66,1.91,1.63,3.69,2.86,5.3c0.11,0.15,0.28,0.22,0.46,0.22c0.12,0,0.25-0.04,0.35-0.12c0.25-0.19,0.3-0.55,0.1-0.8
				C9.12,32.69,7.85,28.96,7.85,25.03z"/>
			<path class="st2" d="M31.62,41.6c-1.95,0.72-4.01,1.09-6.11,1.09c-2.13,0-4.21-0.37-6.18-1.11c-0.3-0.11-0.63,0.04-0.74,0.34
				c-0.11,0.3,0.04,0.63,0.34,0.74c2.1,0.79,4.32,1.19,6.59,1.19c2.24,0,4.43-0.39,6.51-1.16c0.3-0.11,0.45-0.44,0.34-0.74
				C32.24,41.65,31.91,41.49,31.62,41.6z"/>
			<path class="st2" d="M43.74,24.46c-0.32,0-0.57,0.26-0.57,0.57c0,3.93-1.26,7.65-3.66,10.76c-0.19,0.25-0.15,0.61,0.1,0.8
				c0.1,0.08,0.23,0.12,0.35,0.12c0.17,0,0.34-0.08,0.46-0.22c1.24-1.61,2.2-3.39,2.86-5.3c0.68-1.98,1.03-4.05,1.03-6.16
				C44.31,24.72,44.06,24.46,43.74,24.46z"/>
			<path class="st2" d="M30.64,8.13c3.65,1.11,6.91,3.43,9.16,6.54c0.11,0.15,0.29,0.24,0.46,0.24c0.12,0,0.23-0.04,0.34-0.11
				c0.26-0.19,0.31-0.55,0.13-0.8c-1.19-1.64-2.63-3.08-4.28-4.26c-1.67-1.2-3.51-2.11-5.48-2.7c-0.3-0.09-0.62,0.08-0.72,0.38
				C30.17,7.72,30.34,8.04,30.64,8.13z"/>
			<path class="st2" d="M10.07,15.31c0.1,0.07,0.21,0.1,0.32,0.1c0.18,0,0.37-0.09,0.48-0.25c2.34-3.46,5.83-5.99,9.83-7.12
				c0.31-0.09,0.48-0.4,0.4-0.71c-0.09-0.31-0.4-0.48-0.71-0.4c-4.26,1.2-7.98,3.9-10.47,7.58C9.74,14.78,9.81,15.14,10.07,15.31z"
				/>
		</g>
		<line class="st3" x1="11.78" y1="20.73" x2="17.09" y2="22.41"/>
		<line class="st3" x1="16.9" y1="36.85" x2="20.14" y2="32.33"/>
		<line class="st3" x1="34.34" y1="36.97" x2="30.96" y2="32.55"/>
		<line class="st3" x1="39.44" y1="20.35" x2="34.25" y2="22.34"/>
		<line class="st3" x1="25.54" y1="10.47" x2="25.68" y2="16.04"/>
	</g>
</g>
</svg>
