<?xml version="1.0" encoding="utf-8"?>
<!-- Generator: Adobe Illustrator 27.9.0, SVG Export Plug-In . SVG Version: 6.00 Build 0)  -->
<svg version="1.1" id="Camada_1" xmlns="http://www.w3.org/2000/svg" xmlns:xlink="http://www.w3.org/1999/xlink" x="0px" y="0px"
	 viewBox="0 0 50 50" style="enable-background:new 0 0 50 50;" xml:space="preserve">
<style type="text/css">
	.st0{fill:#5ABA52;}
	.st1{fill:none;stroke:#444444;stroke-linecap:round;stroke-linejoin:round;stroke-miterlimit:10;}
	.st2{fill:#444444;}
	.st3{fill:none;stroke:#444444;stroke-width:2.5;stroke-linecap:round;stroke-linejoin:round;stroke-miterlimit:10;}
	.st4{fill:none;stroke:#444444;stroke-width:0.5;stroke-linecap:round;stroke-linejoin:round;stroke-miterlimit:10;}
	.st5{fill:#444444;stroke:#454444;stroke-width:0.5;stroke-linecap:round;stroke-linejoin:round;stroke-miterlimit:10;}
</style>
<g>
	<g>
		<g>
			<g>
				<g>
					<g>
						<path class="st0" d="M44.6,5.5L8.1,5.6c-2.9,0-6,0.9-6,3.8v13.7L1.9,33.3c0.4,6.3,7,6.5,15.2,6l0.9,5.2l15.4-5.5l15.6-5.5
							L48.7,9.7L44.6,5.5z"/>
						<g>
							<g>
								<g>
									<path class="st1" d="M32.9,38.4L7.2,38.3c-2.6,0-5.5-2-5.5-4.6"/>
									<path class="st1" d="M31.9,44.4H18.1c-0.5,0-0.9-0.6-0.6-1l2.4-4.8h10.3l2.5,4.8C32.8,43.9,32.4,44.4,31.9,44.4z"/>
								</g>
								<circle class="st2" cx="25" cy="35.5" r="1.6"/>
							</g>
							<path class="st3" d="M48.6,33.9V11.5c0-3.4-2.8-6.2-6.2-6.2H7.8c-3.4,0-6.2,2.8-6.2,6.2v21.4c0,3.4,2.8,6.2,6.2,6.2h10.6
								l-1.8,4.5c-0.4,0.9,0.3,1.8,1.2,1.9l14.3,0.1c1,0,1.6-1,1.2-1.9l-1.9-4.6h5.8"/>
						</g>
					</g>
				</g>
			</g>
			<line class="st4" x1="2.6" y1="32.8" x2="48" y2="32.8"/>
			<line class="st4" x1="2.3" y1="32.8" x2="10.4" y2="32.8"/>
		</g>
	</g>
	<g>
		<line class="st5" x1="8" y1="9.4" x2="9.5" y2="9.4"/>
		<line class="st5" x1="11.9" y1="9.4" x2="23.2" y2="9.4"/>
		<line class="st5" x1="24.9" y1="9.4" x2="30.7" y2="9.4"/>
		<line class="st5" x1="16.5" y1="12.4" x2="27.8" y2="12.4"/>
		<line class="st5" x1="29.9" y1="12.4" x2="41.2" y2="12.4"/>
		<line class="st5" x1="8" y1="12.4" x2="9.5" y2="12.4"/>
		<line class="st5" x1="8" y1="15.4" x2="9.5" y2="15.4"/>
		<line class="st5" x1="15.9" y1="15.4" x2="23.6" y2="15.4"/>
		<line class="st5" x1="25.4" y1="15.4" x2="36.4" y2="15.4"/>
		<line class="st5" x1="38.6" y1="15.4" x2="42.8" y2="15.4"/>
		<line class="st5" x1="8" y1="18.4" x2="9.5" y2="18.4"/>
		<line class="st5" x1="8" y1="21.3" x2="9.5" y2="21.3"/>
		<line class="st5" x1="8" y1="24.4" x2="9.5" y2="24.4"/>
		<line class="st5" x1="8" y1="27.3" x2="9.5" y2="27.3"/>
		<line class="st5" x1="8" y1="30.3" x2="9.5" y2="30.3"/>
		<line class="st5" x1="19.9" y1="18.4" x2="28.8" y2="18.4"/>
		<line class="st5" x1="33.9" y1="18.4" x2="42.8" y2="18.4"/>
		<line class="st5" x1="12.2" y1="21.3" x2="22.4" y2="21.3"/>
		<line class="st5" x1="24.6" y1="21.3" x2="34.8" y2="21.3"/>
		<line class="st5" x1="16.9" y1="24.4" x2="19.7" y2="24.4"/>
		<line class="st5" x1="23" y1="24.4" x2="36.8" y2="24.4"/>
		<line class="st5" x1="16.2" y1="27.3" x2="23.8" y2="27.3"/>
		<line class="st5" x1="25.3" y1="27.3" x2="36.7" y2="27.3"/>
		<line class="st5" x1="38.3" y1="27.3" x2="42.9" y2="27.3"/>
		<line class="st5" x1="19.9" y1="30.3" x2="29.1" y2="30.3"/>
		<line class="st5" x1="30.4" y1="30.3" x2="42.6" y2="30.3"/>
	</g>
</g>
</svg>
