<?xml version="1.0" encoding="UTF-8"?>
<svg id="Layer_1" xmlns="http://www.w3.org/2000/svg" version="1.1" viewBox="0 0 50 50">
  <!-- Generator: Adobe Illustrator 29.1.0, SVG Export Plug-In . SVG Version: 2.1.0 Build 142)  -->
  <defs>
    <style>
      .st0, .st1, .st2 {
        fill: none;
        stroke: #444;
        stroke-linecap: round;
        stroke-linejoin: round;
      }

      .st3 {
        fill: #dc5e82;
      }

      .st1 {
        stroke-width: 2.5px;
      }

      .st2 {
        stroke-width: .5px;
      }
    </style>
  </defs>
  <path class="st3" d="M43.3,16.4v-6.4l-11.4-2.7-6-3.8c-2.8,3.6-17.8,7-17.8,7l.5,13,.7,13.2,7.6,6.8,26.3-9.3c.6-.4,1-16.2.1-17.8Z"/>
  <path class="st1" d="M34.1,44.4l-8.1,5.1-7.5-4.6c-9.2-5.4-9.8-11.4-9.8-11.4V10c9.4,0,17.2-6.5,17.2-6.5,0,0,7.2,6.5,17.4,6.5v23.4s0,1.7-1.3,3.1"/>
  <path class="st0" d="M32.4,38.2h-12.8c-.9,0-1.6-.7-1.6-1.6v-13c0-.9.7-1.6,1.6-1.6h12.7c.9,0,1.6.7,1.6,1.6v13c0,.9-.7,1.6-1.5,1.6Z"/>
  <path class="st2" d="M26,25.9l1.4,2.8,3.1.4-2.3,2.2.6,3.1-2.8-1.5-2.8,1.5.6-3.1-2.3-2.2,3.1-.4,1.4-2.8Z"/>
  <path class="st0" d="M22,22v-3.3c0-2.2,1.8-4,4-4s4,1.8,4,4v3.3"/>
</svg>