<?xml version="1.0" encoding="utf-8"?>
<!-- Generator: Adobe Illustrator 26.5.0, SVG Export Plug-In . SVG Version: 6.00 Build 0)  -->
<svg version="1.1" id="Layer_1" xmlns="http://www.w3.org/2000/svg" xmlns:xlink="http://www.w3.org/1999/xlink" x="0px" y="0px"
	 viewBox="0 0 50 50" style="enable-background:new 0 0 50 50;" xml:space="preserve">
<style type="text/css">
	.st0{fill:#B9D7D9;}
	.st1{fill:#A6C1C2;}
	.st2{fill:none;stroke:#444444;stroke-width:2.5;stroke-linecap:round;stroke-linejoin:round;stroke-miterlimit:10;}
	.st3{fill-rule:evenodd;clip-rule:evenodd;fill:none;stroke:#444444;stroke-miterlimit:10;}
	.st4{fill:#444444;}
	.st5{fill-rule:evenodd;clip-rule:evenodd;fill:none;stroke:#444444;stroke-width:0.25;stroke-miterlimit:10;}
</style>
<g>
	<g>
		<polygon class="st0" points="35.8,4 43.1,9.5 45,16.2 1.9,31.9 2.8,18.3 8.6,8.1 22.4,1.8 		"/>
		<polygon class="st1" points="47.1,20.2 47.1,20.7 5,35.8 4,35 1.8,27.1 43.6,11 45.7,15.2 		"/>
		<g>
			<path class="st2" d="M42.8,10.1c6.3,7.5,7.4,18.5,1.9,27.2C38.3,47.4,25.5,51,15,45.9"/>
			<path class="st2" d="M6,38.3c-5.2-7.4-5.7-17.4-0.6-25.5c6.8-10.9,21.1-14.2,32-7.4"/>
			<path class="st2" d="M42.8,10.1c0,0-2.5-3.1-5.6-4.9"/>
		</g>
	</g>
	<path class="st3" d="M31.3,46.6V31.4c0-1.5-1.2-2.7-2.7-2.7H26v19 M38.6,43V31.6c0-1.5-1.2-2.7-2.7-2.7h-2.7v17.3 M46.2,33.7v-2.3
		c0-1.5-1.2-2.7-2.7-2.7h-2.7v12.8 M47.8,22.3H23.4c-0.3,0-0.5,0.2-0.5,0.5v2c0,1.3,1.1,2.4,2.4,2.4h22.2h0.3V22.3z M47.6,20
		c-0.4-3.4-1.7-5.7-1.7-5.7H20c-0.3,0-0.6,0.3-0.6,0.6v2.3c0,1.6,1.3,2.8,2.8,2.8H47.6 M47.9,25.2L47.9,25.2L47.9,25.2L47.9,25.2
		L47.9,25.2z"/>
	<path class="st4" d="M9.6,39c-0.1,2.6-1.6,1.8-3,1.6v2.6c8.3,2.9,5.5-9.5,6-13.8H9.6V39z M23,37.6c-0.6-1.7-3.5-2.4-5-3.3
		c-2.7-2.8,2.5-2.9,4.3-1.7l0.9-2.5c-4-2.6-11.5,0.1-8.1,5.3c0.5,1,4.3,2.3,4.9,2.9c2,3.3-4,2.5-5.8,1.2v2.8
		C17.8,44.7,25.2,42.9,23,37.6z"/>
	<line class="st5" x1="27.6" y1="28.7" x2="27.6" y2="46.9"/>
	<line class="st5" x1="34.9" y1="28.9" x2="34.9" y2="45.1"/>
	<line class="st5" x1="42.6" y1="28.7" x2="42.6" y2="39.5"/>
	<g>
		<line class="st5" x1="19.2" y1="15.9" x2="46.3" y2="15.9"/>
		<line class="st5" x1="22.5" y1="24.1" x2="47.3" y2="24.1"/>
	</g>
</g>
</svg>
