<?xml version="1.0" encoding="utf-8"?>
<!-- Generator: Adobe Illustrator 28.0.0, SVG Export Plug-In . SVG Version: 6.00 Build 0)  -->
<svg version="1.1" id="Layer_1" xmlns="http://www.w3.org/2000/svg" xmlns:xlink="http://www.w3.org/1999/xlink" x="0px" y="0px"
	 viewBox="0 0 50 50" style="enable-background:new 0 0 50 50;" xml:space="preserve">
<style type="text/css">
	.st0{fill:#8256D8;}
	.st1{fill:#A475EF;}
	.st2{fill:none;stroke:#444444;stroke-width:2.5;stroke-linecap:round;stroke-linejoin:round;stroke-miterlimit:10;}
	.st3{fill:none;stroke:#444444;stroke-miterlimit:10;}
	.st4{fill:none;stroke:#444444;stroke-width:0.5;stroke-linecap:round;stroke-miterlimit:10;}
</style>
<polygon class="st0" points="29.6,21.2 37.4,23.7 30.7,28.4 30.8,36.6 24.2,31.7 16.5,34.3 19.1,26.6 14.2,20 22.4,20.1 27.1,13.4 
	"/>
<path class="st1" d="M48,20c-0.2-0.8-2.7-7.5-3.2-8.1l-3-3.5l-0.2,0.1L34,2.7l-7.8-0.7C23,2.1,11.7,2.3,4.8,12.3L0.9,22.9l-0.2,0.1
	l4,13.4c0.1,0.4,4.5,5.7,4.9,5.9l5.6,3l32.2-11.7C47.9,33.1,49,24.8,48,20z"/>
<g>
	<g>
		<g>
			<path class="st2" d="M32.3,47.3c-7,2.3-15,1.2-21.3-3.6C0.7,36-1.4,21.3,6.4,10.9"/>
			<path class="st2" d="M6.2,11.1c2-3,4.7-4.7,4.7-4.7l0.7-0.5C19.7,0.1,30.9,0,39.2,6.3c10.4,7.8,12.4,22.5,4.7,32.8"/>
		</g>
	</g>
</g>
<g>
	<g>
		<path class="st3" d="M13,22.5H9.5c-0.2,0-0.4,0.2-0.4,0.4l0.5,3c0,0.2,0.2,0.3,0.4,0.3h15.8"/>
		<path class="st3" d="M36.8,22.5h3.7c0.2,0,0.4,0.2,0.4,0.4l-0.5,3c0,0.2-0.2,0.3-0.4,0.3H24.2"/>
		<line class="st3" x1="16.8" y1="22.5" x2="32.9" y2="22.5"/>
		<path class="st3" d="M11.2,26.2l1.7,11.5c0.1,0.5,0.5,0.8,0.9,0.8h22.2c0.5,0,0.9-0.4,0.9-0.8l1.6-11.5"/>
		<path class="st3" d="M13.6,24.2L13.6,24.2c-0.6-0.5-0.7-1.3-0.3-1.9l6.9-9.3c0.5-0.6,1.3-0.7,1.9-0.3l0,0c0.6,0.5,0.7,1.3,0.3,1.9
			l-6.9,9.3C15,24.5,14.2,24.6,13.6,24.2z"/>
		<path class="st3" d="M36.1,24.2L36.1,24.2c0.6-0.5,0.7-1.3,0.3-1.9L29.5,13c-0.5-0.6-1.3-0.7-1.9-0.3l0,0
			c-0.6,0.5-0.7,1.3-0.3,1.9l6.9,9.3C34.6,24.5,35.5,24.6,36.1,24.2z"/>
		<line class="st4" x1="15.7" y1="29" x2="16.3" y2="31.7"/>
		<line class="st4" x1="19.4" y1="29" x2="19.8" y2="31.7"/>
		<line class="st4" x1="23.1" y1="29.1" x2="23.2" y2="31.7"/>
		<line class="st4" x1="26.8" y1="29" x2="26.6" y2="31.7"/>
		<line class="st4" x1="30.5" y1="29.1" x2="30.2" y2="31.7"/>
		<line class="st4" x1="34.2" y1="29.2" x2="33.8" y2="31.6"/>
		<line class="st4" x1="16.5" y1="33.3" x2="17" y2="35.8"/>
		<line class="st4" x1="19.9" y1="33.3" x2="20.3" y2="36"/>
		<line class="st4" x1="23.3" y1="33.4" x2="23.4" y2="35.7"/>
		<line class="st4" x1="26.6" y1="33.5" x2="26.6" y2="35.8"/>
		<line class="st4" x1="30" y1="33.5" x2="29.8" y2="35.8"/>
		<line class="st4" x1="33.4" y1="33.5" x2="32.9" y2="35.8"/>
	</g>
	<g>
		<line class="st4" x1="9.4" y1="15.6" x2="10.4" y2="16.6"/>
		<line class="st4" x1="9.4" y1="18.4" x2="10.4" y2="17.5"/>
		<line class="st4" x1="11.3" y1="16.5" x2="12.3" y2="15.6"/>
		<line class="st4" x1="11.4" y1="17.5" x2="12.3" y2="18.4"/>
	</g>
	<g>
		<line class="st4" x1="34.5" y1="11.4" x2="35.5" y2="12.4"/>
		<line class="st4" x1="34.5" y1="14.3" x2="35.5" y2="13.3"/>
		<line class="st4" x1="36.4" y1="12.4" x2="37.4" y2="11.4"/>
		<line class="st4" x1="36.5" y1="13.3" x2="37.4" y2="14.3"/>
	</g>
	<circle class="st4" cx="39.3" cy="16.9" r="1.1"/>
</g>
</svg>
