<?xml version="1.0" encoding="utf-8"?>
<!-- Generator: Adobe Illustrator 24.0.0, SVG Export Plug-In . SVG Version: 6.00 Build 0)  -->
<svg version="1.1" id="Layer_1" xmlns="http://www.w3.org/2000/svg" xmlns:xlink="http://www.w3.org/1999/xlink" x="0px" y="0px"
	 viewBox="0 0 50 50" style="enable-background:new 0 0 50 50;" xml:space="preserve">
<style type="text/css">
	.st0{fill:#00C8E2;}
	.st1{fill:#00DFFC;}
	.st2{fill:#444444;}
</style>
<g>
	<g>
		<polygon class="st0" points="45.8,25.7 46.2,29.8 3.6,45.3 3.7,36.8 3.9,31.8 46.4,16.4 45.8,19.9 		"/>
	</g>
	<g>
		<polygon class="st1" points="46.6,12.4 45.3,17.3 3.7,32.5 3.4,27.4 3.9,24.5 45.7,9.1 		"/>
	</g>
	<g>
		<path class="st2" d="M3.9,49c-0.7,0-1.2-0.6-1.2-1.2L2.4,2.5c0-0.7,0.6-1.3,1.2-1.3L46.2,1c0.3,0,0.7,0.1,0.9,0.4
			c0.2,0.2,0.4,0.6,0.4,0.9l0.2,45.5c0,0.3-0.1,0.7-0.4,0.9C47,48.8,46.7,49,46.3,49H40c-0.7,0-1.2-0.6-1.2-1.2s0.6-1.2,1.2-1.2h5
			l-0.1-43l-40,0.2l0.3,42.8l24.3-0.1l-2.8-2.6c-0.5-0.5-0.5-1.3,0-1.8c0.5-0.5,1.3-0.5,1.8,0l5,4.8c0.4,0.4,0.5,0.9,0.3,1.4
			c-0.2,0.5-0.6,0.8-1.2,0.8L3.9,49C3.9,49,3.9,49,3.9,49z"/>
	</g>
	<g>
		<g>
			<path class="st2" d="M24.8,23.8c-0.1,0-0.2,0-0.4-0.1l-7-3.8c-0.2-0.1-0.4-0.4-0.4-0.7v-6.9c0-0.3,0.1-0.5,0.4-0.7
				c0.2-0.1,0.5-0.1,0.8,0l6.5,4l6-4c0.2-0.2,0.5-0.2,0.8,0c0.2,0.1,0.4,0.4,0.4,0.7v7.4c0,0.3-0.2,0.5-0.4,0.7l-6.3,3.2
				C25,23.7,24.9,23.8,24.8,23.8z M18.5,18.8l6.3,3.4l5.5-2.8v-5.6l-5.2,3.5c-0.2,0.2-0.6,0.2-0.8,0l-5.8-3.6V18.8z"/>
		</g>
		<g>
			<path class="st2" d="M16.8,37.5c-0.1,0-0.3,0-0.4-0.1c-0.2-0.2-0.4-0.4-0.3-0.7l0.9-6.7l-6.2-3.4c-0.2-0.1-0.4-0.4-0.4-0.6
				c0-0.3,0.1-0.5,0.3-0.7l5.4-3.8c0.2-0.2,0.5-0.2,0.8-0.1l6.9,3.5c0.3,0.1,0.4,0.4,0.4,0.7v7.4c0,0.3-0.1,0.5-0.4,0.6l-6.5,3.8
				C17.1,37.5,17,37.5,16.8,37.5z M12.4,25.8l5.7,3.1c0.3,0.1,0.4,0.4,0.4,0.8l-0.7,5.7l4.8-2.9V26l-6.1-3.1L12.4,25.8z"/>
		</g>
		<g>
			<path class="st2" d="M32.8,37.6c-0.1,0-0.3,0-0.4-0.1l-6.5-3.8c-0.2-0.1-0.4-0.4-0.4-0.6v-7.4c0-0.3,0.2-0.5,0.4-0.7l6.9-3.5
				c0.3-0.1,0.5-0.1,0.8,0.1l5.4,3.8c0.2,0.1,0.3,0.4,0.3,0.7c0,0.3-0.2,0.5-0.4,0.6l-6.2,3.4l0.9,6.7c0,0.3-0.1,0.6-0.3,0.7
				C33.1,37.6,33,37.6,32.8,37.6z M27.1,32.6l4.8,2.9l-0.7-5.7c0-0.3,0.1-0.6,0.4-0.8l5.7-3.1l-4-2.9l-6.1,3.1V32.6z"/>
		</g>
	</g>
</g>
</svg>
