<?xml version="1.0" encoding="utf-8"?>
<!-- Generator: Adobe Illustrator 26.5.0, SVG Export Plug-In . SVG Version: 6.00 Build 0)  -->
<svg version="1.1" id="Camada_3" xmlns="http://www.w3.org/2000/svg" xmlns:xlink="http://www.w3.org/1999/xlink" x="0px" y="0px"
	 viewBox="0 0 50 50" style="enable-background:new 0 0 50 50;" xml:space="preserve">
<style type="text/css">
	.st0{fill:#4ECDC4;}
	.st1{fill:#46B8B0;}
	.st2{fill:#444444;}
</style>
<g>
	<polygon class="st0" points="34.38,6.57 43.74,9.47 49,20.17 1.85,33.77 4.41,15.61 17.23,6.57 27.99,9.5 	"/>
	<polygon class="st1" points="48.75,25.1 48.75,25.1 49.14,25.9 6.54,41.21 5.82,40.25 4.8,39.35 1.85,34.23 1.85,31.5 46.2,14.46 
		48.43,16.48 48.04,20.17 	"/>
	<g>
		<path class="st2" d="M24.23,41.21c-1.63,1.19-0.13,0.23-1.79,1.26c-2.72,1.68-5.64,2.53-8.78,2.53c-3.2,0-5.91-0.86-8.11-2.59
			c-2.21-1.73-3.78-4.11-4.71-7.15c-0.93-3.04-1.08-6.51-0.45-10.41c0.63-3.78,1.9-7.15,3.79-10.11c1.89-2.96,4.19-5.28,6.9-6.98
			c2.71-1.69,5.61-2.54,8.71-2.54c3.23,0,5.95,0.87,8.16,2.61c1.71,1.35,2.71,2.2,3.62,4.34c0.85,2.01-0.82,2.49-0.82,2.49
			c-1.25,0.29-2.14-1.57-2.14-1.57c-0.66-1.29-1.23-1.88-2.27-2.78c-1.72-1.49-3.88-2.24-6.5-2.24c-2.73,0-5.25,0.78-7.54,2.33
			c-2.29,1.55-4.23,3.63-5.8,6.25c-1.58,2.62-2.62,5.53-3.14,8.75c-0.53,3.12-0.46,5.95,0.21,8.49c0.68,2.54,1.88,4.56,3.6,6.05
			c1.73,1.49,3.9,2.24,6.51,2.24c2.75,0,5.28-0.77,7.58-2.3c1.28-0.86,0.58-0.4,1.97-1.48c0,0,1.75-1.44,2.66-0.35
			c0.91,1.09-0.39,2.14-0.39,2.14S24.72,40.85,24.23,41.21z"/>
	</g>
	<g>
		<path class="st2" d="M38.93,43.26c-2.72,1.68-5.64,2.53-8.78,2.53c-3.2,0-5.91-0.86-8.11-2.59c-1.68-1.31-1.63-0.24-2.58-2.32
			c0,0-1.32-2.19-0.08-3.08c1.48-1.06,2.85,1.42,2.85,1.42c0.68,2.54-0.29,0.01,1.43,1.5c1.73,1.49,3.9,2.24,6.51,2.24
			c2.75,0,5.28-0.77,7.58-2.3c0,0,1.21-0.64,1.94,0.66C40.39,42.56,38.93,43.26,38.93,43.26z M43.86,36.37
			c-1.09-0.76-0.32-1.95-0.32-1.95c1.56-2.63,2.6-5.55,3.11-8.79c0.52-3.12,0.44-5.95-0.24-8.49c-0.68-2.54-1.87-4.56-3.59-6.05
			c-1.72-1.49-3.88-2.24-6.5-2.24c-2.73,0-5.25,0.78-7.54,2.33c-2.29,1.55-3.06,2.13-4.1,3.9l0,0l0,0c-1.39,2.55-4.06,1.13-2.2-2
			c1.41-2.36,2.88-3.17,5.07-4.54c2.71-1.69,5.61-2.54,8.71-2.54c3.23,0,5.95,0.87,8.16,2.61c2.21,1.74,3.78,4.13,4.71,7.18
			c0.93,3.04,1.09,6.51,0.47,10.39c-0.63,3.78-1.9,7.16-3.79,10.11C45.84,36.3,45.05,37.2,43.86,36.37z"/>
	</g>
	<path class="st2" d="M40.42,28.73c-0.55-1.49-2.08-2.49-3.76-3.32c-1.56-0.77-3.24-1.39-4.4-2.12c-3.24-3.35,0.54-4.39,3.96-3.85
		c1.2,0.19,2.36,0.57,3.15,1.12l1.51-4.08c-1.67-1.06-3.69-1.58-5.7-1.63c-2.08-0.05-4.13,0.42-5.75,1.31
		c-3.05,1.68-4.59,4.87-1.85,9.08c0.32,0.7,1.62,1.48,3.1,2.22c2.03,1.03,4.39,2,4.91,2.61c0.29,0.48,0.45,0.89,0.55,1.26
		c-0.1,0.58-0.19,1.15-0.32,1.71c-1.04,1.06-3.76,1.01-6.19,0.44c-1.44-0.34-2.77-0.86-3.56-1.44v4.69c0.53,0.34,1.13,0.6,1.76,0.82
		c1.92,0.69,4.19,0.88,6.31,0.54C38.77,37.36,42.68,34.19,40.42,28.73z"/>
	<path class="st2" d="M20.51,21.61c-0.1-2.67-0.22-5.09-0.04-6.75h-4.72h-0.03h-0.21v0.64c0,0,0,0,0,0v15.66
		c-0.03,0.9-0.17,1.55-0.38,2.03c-0.81,1.82-2.77,0.98-4.74,0.61v4.35c2.85,1.01,4.91,0.93,6.42,0.11c2.63-1.43,3.52-5.12,3.76-9.28
		C20.69,26.56,20.61,23.98,20.51,21.61z"/>
</g>
</svg>
