<?xml version="1.0" encoding="UTF-8"?>
<svg xmlns="http://www.w3.org/2000/svg" version="1.1" viewBox="0 0 50 50">
  <defs>
    <style>
      .cls-1 {
        stroke: #444;
        stroke-miterlimit: 10;
      }

      .cls-1, .cls-2 {
        fill: none;
      }

      .cls-2 {
        stroke: #444;
        stroke-linecap: round;
        stroke-linejoin: round;
        stroke-width: 2.5px;
      }

      .cls-3 {
        fill: #7df4eb;
      }
    </style>
  </defs>
  <!-- Generator: Adobe Illustrator 28.7.1, SVG Export Plug-In . SVG Version: 1.2.0 Build 142)  -->
  <g>
    <g id="Camada_1">
      <path class="cls-3" d="M44.7,13.2l-5.6-3.6-7.7-4.4-6-2.8C22.2,2.3,4,11.3,4,14.5l-.5,7.8.5,15.1,11.5,7.6,31-11c.7-.4-.8-18.7-1.8-20.7Z"/>
      <path class="cls-2" d="M29.9,47.2l-2.2,1.3c-1.7,1-3.8,1-5.5,0l-15.6-9c-1.7-1-2.7-2.8-2.7-4.7v-18c0-2,1-3.8,2.7-4.7L22.3,3.1c1.7-1,3.8-1,5.5,0l15.6,9c1.7,1,2.7,2.8,2.7,4.7v18c0,2-1,3.8-2.7,4.7l-2.5,1.4"/>
      <g>
        <path class="cls-1" d="M34.1,16.4l-1.3-5c-.3-1.1-1.4-1.7-2.5-1.4l-18.6,4.9c-1.1.3-1.7,1.4-1.4,2.5l2.4,9c.2.8.9,1.4,1.6,1.5"/>
        <path class="cls-1" d="M17.7,34.2l.9,4c.3,1.1,1.4,1.7,2.5,1.4l18.6-4.9c1.1-.3,1.7-1.4,1.4-2.5l-2.4-9c-.2-.8-.9-1.4-1.6-1.5"/>
      </g>
      <path class="cls-1" d="M17.1,21.5c.8,0,1.6-.1,2.3-.1,2.4,0,4.5-.8,6.2-2.3.5-.4.9-.9,1.3-1.4-1,1.1-2.3,1.8-3.8,2.3-1.3.4-2.6.6-4,.6-.8,0-1.5,0-2.3,0-.4,0-.6-.1-.9-.4-.6-.8-.7-1.7-.4-2.5.7-2,2.8-2.7,4.8-2.4,1,.1,2.1.4,3.1.4,2,0,3.7-.5,5-1.8,0,0,0,0,.2-.1,0,.5.1.9.2,1.4.1,1.3.1,2.5-.1,3.8-.3,1.5-.9,2.8-2.5,3.6-.8.4-1.8.5-2.7.5-1.5,0-3-.5-4.4-.9-.6-.2-1.2-.2-1.9-.4,0,0-.1,0-.2,0,0,0,0,0,0-.1Z"/>
      <g>
        <path class="cls-1" d="M33.9,30.2c-.3,1.5-1.3,3.9-2.8,4.7-.8.4-1.8.5-2.7.5-1.5,0-3-.5-4.4-.9-.6-.2-1.2-.2-1.9-.4,0,0-.1,0-.2,0,0,0,0,0,0-.1.8,0,1.6-.1,2.3-.1,2.4,0,4.5-.8,6.2-2.3.5-.4.4-.2.8-.7"/>
        <path class="cls-1" d="M33.3,26.2"/>
      </g>
      <g>
        <path class="cls-1" d="M38.1,26.8l-2.4-9c-.2-.8-.9-1.4-1.6-1.5l1.1,4c.3,1.1-.4,2.2-1.4,2.5l-3.2.9c0,.6,0,1.2-.2,1.8-.3,1.5-.9,2.8-2.5,3.6-.8.4-1.8.5-2.7.5-1.5,0-3-.5-4.4-.9-.6-.2-1.2-.2-1.9-.4,0,0-.1,0-.2,0,0,0,0,0,0-.1.8,0,1.6-.1,2.3-.1,2.4,0,4.5-.8,6.2-2.3.5-.4.9-.9,1.3-1.4-1,1.1-2.3,1.8-3.8,2.3-1.3.4-2.6.6-4,.6-.8,0-1.5,0-2.3,0-.3,0-.4,0-.6-.2l-2.6.7c-.3,0-.6,0-.8,0l1.3,5c.3,1.1,1.4,1.7,2.5,1.4l18.6-4.9c1.1-.3,1.7-1.4,1.4-2.5Z"/>
        <path class="cls-1" d="M20.6,27.3c1.4,0,2.7-.1,4-.6,1.5-.5,2.8-1.2,3.8-2.3-.4.5-.8,1-1.3,1.4-1.7,1.5-3.8,2.2-6.2,2.3-.8,0-1.6,0-2.3.1,0,0,0,0,0,.1,0,0,.1,0,.2,0,.6.1,1.3.2,1.9.4,1.5.4,2.9.8,4.4.9,1,0,1.9,0,2.7-.5,1.5-.8,2.2-2.1,2.5-3.6.1-.6.2-1.2.2-1.8l-12.8,3.4c.2.1.4.2.6.2.8,0,1.5,0,2.3,0Z"/>
      </g>
    </g>
  </g>
</svg>