<?xml version="1.0" encoding="utf-8"?>
<!-- Generator: Adobe Illustrator 26.3.1, SVG Export Plug-In . SVG Version: 6.00 Build 0)  -->
<svg version="1.1" id="Layer_1" xmlns="http://www.w3.org/2000/svg" xmlns:xlink="http://www.w3.org/1999/xlink" x="0px" y="0px"
	 viewBox="0 0 50 50" style="enable-background:new 0 0 50 50;" xml:space="preserve">
<style type="text/css">
	.st0{fill:#AFE55D;}
	.st1{fill:#C3FF68;}
	.st2{fill:#444444;}
	.st3{fill:none;stroke:#494949;stroke-width:1.5;stroke-linecap:round;stroke-linejoin:round;stroke-miterlimit:10;}
</style>
<g>
	<g>
		<path class="st0" d="M44.8,10.7l-1.2,15.6l-35.7,13c-0.5-1.1-0.7-2.5-0.8-4.3L5.2,10.7C5.1,8.3,6.3,6.8,9.6,6l12.8-3.6
			C23.4,2.2,24.2,2,25,2c0.8,0,1.6,0.2,2.6,0.4L40.4,6C43.7,6.8,44.9,8.3,44.8,10.7z"/>
		<path class="st1" d="M36.7,5L5.6,16.3l-0.4-5.6C5.1,8.3,6.3,6.8,9.6,6l12.8-3.6C23.4,2.2,24.2,2,25,2c0.8,0,1.6,0.2,2.6,0.4
			L36.7,5z"/>
		<g>
			<path class="st2" d="M40.7,4.8L27.9,1.3c-1.1-0.3-2-0.5-2.9-0.5c-0.9,0-1.8,0.2-2.9,0.5L9.3,4.8c-3.7,0.9-5.5,2.9-5.4,6L5.8,35
				c0.4,5.7,2.3,7.5,6.2,9.4l10.8,4.4c0.7,0.2,1.5,0.4,2.2,0.4c0.7,0,1.5-0.1,2.2-0.4l6.4-2.6c0.6-0.3,0.9-1,0.7-1.6
				c-0.3-0.6-1-0.9-1.6-0.7c0,0,0,0,0,0l-6.3,2.6c-0.9,0.3-1.8,0.3-2.7,0L13,42.2c-3.1-1.5-4.4-2.6-4.7-7.3L6.4,10.7
				C6.4,9.4,6.6,8,10,7.2l12.8-3.6c0.9-0.3,1.6-0.4,2.2-0.4c0.7,0,1.3,0.1,2.2,0.4l12.9,3.6c3.3,0.8,3.5,2.1,3.5,3.4l-1.2,15.6
				c0,0.7,0.5,1.3,1.2,1.3c0.7,0,1.3-0.5,1.3-1.1l1.2-15.6C46.2,7.6,44.4,5.7,40.7,4.8z"/>
		</g>
	</g>
	<g>
		<path class="st3" d="M12.6,35.7h1.1c1.2,0,2.3-1,2.3-2.3v-1.1L13.5,31c-0.8-0.5-0.8-1.6,0-2l2.5-1.1v-2.3l2.6-0.7
			c0.9-0.2,1.1-1.2,0.6-1.9l-3.2-3v-5.6"/>
		<path class="st3" d="M20.5,30.1l3.4-4.5v-6.8c0-1.2,1-2.3,2.3-2.3h9c1.2,0,2.3,1,2.3,2.3v9c0,1.2-1,2.3-2.3,2.3h-7.9H20.5z"/>
		<line class="st3" x1="28.4" y1="21.1" x2="32.9" y2="21.1"/>
		<line class="st3" x1="28.4" y1="25.6" x2="30.6" y2="25.6"/>
	</g>
</g>
</svg>
