<?xml version="1.0" encoding="utf-8"?>
<!-- Generator: Adobe Illustrator 26.5.0, SVG Export Plug-In . SVG Version: 6.00 Build 0)  -->
<svg version="1.1" id="Camada_1" xmlns="http://www.w3.org/2000/svg" xmlns:xlink="http://www.w3.org/1999/xlink" x="0px" y="0px"
	 viewBox="0 0 300 300" style="enable-background:new 0 0 300 300;" xml:space="preserve">
<style type="text/css">
	.st0{fill:#008DD3;}
	.st1{fill:#9EA8A9;}
	.st2{fill:#AEB9BA;}
	.st3{fill:#708080;}
	.st4{fill:#828D8E;}
	.st5{fill:#C4CBCC;}
	.st6{fill:#F14E70;}
	.st7{fill:#ED4F79;}
	.st8{fill:#309FD6;}
	.st9{fill:#50AFEB;}
	.st10{fill:#FF8DA4;}
	.st11{fill:#C9854D;}
	.st12{fill:#C17842;}
	.st13{fill:#AD7149;}
	.st14{fill:#BA784A;}
	.st15{fill:#ED9751;}
	.st16{fill:#EF3030;}
	.st17{fill:#EF5555;}
	.st18{fill:#E2B700;}
	.st19{fill:#FCD206;}
	.st20{fill:#00BF5F;}
	.st21{fill:#07E570;}
	.st22{opacity:0.2;fill:#FFFFFF;}
	.st23{opacity:0.4;fill:#FDFFFF;}
	.st24{opacity:0.4;fill:#FFFFFF;}
	.st25{opacity:0.3;fill:#FFFFFF;}
</style>
<g>
	<path class="st0" d="M287.4,149.4c0.1,20.9-4.4,40.7-12.3,58.7c-22.3,50.1-72.3,85.2-130.7,85.3c-15.5,0.1-30.5-2.4-44.5-6.8
		c-26.3-8.4-49.3-24.2-66.6-45.1c-17.9-21.6-29.7-48.5-32.4-78c-0.4-4.3-0.6-8.6-0.6-13c-0.2-48.8,23.9-92,61-118
		c4.8-3.5,9.9-6.5,15.1-9.3c7.4-4,15.1-7.2,23.2-9.9c7.6-2.5,15.5-4.3,23.6-5.4c6.5-0.9,13.2-1.4,19.9-1.5
		c26.4-0.1,51.1,6.9,72.5,19.3c3.9,2.2,7.5,4.5,11.1,7.1c17.1,12.2,31.4,27.9,41.8,46.3c1.2,2.1,2.3,4.2,3.4,6.3
		c0.9,1.9,1.8,3.7,2.7,5.5c2.8,6.1,5,12.4,6.9,18.8c2.1,7.2,3.7,14.6,4.5,22.2l0,0C287,137.7,287.4,143.6,287.4,149.4z"/>
	<g>
		<g>
			<g>
				<g>
					<g>
						<polygon class="st1" points="82.2,250.2 101.4,255.9 106.8,245.5 85.3,239.8 						"/>
					</g>
					<g>
						<path class="st1" d="M66.6,94c0,0-2.5,0.1-3.2,1.9c-0.1,0.3-0.2,0.7-0.2,1.2c0.2,3.7,0.4,128.4,0.4,128.4s1.2,9.7,5.6,14.6
							c0,0,7.2,9,13,10c5.8,1,170.1-2.6,170.1-2.6s12.5,0.8,20-10.1c4.6-5.8,5.3-12.3,5.3-12.3v-8.6l0-124.2c0,0,0.2-2.4-3.1-2.3
							C271.1,90.1,66.6,94,66.6,94z"/>
					</g>
				</g>
			</g>
			<path class="st2" d="M283.2,92.3l-7.5-2.1l-3.2,3l3.2,0.2v4.5c0,0,22,0.9,22,0.6c0-0.4,0.3-2.1,0.3-2.1L283.2,92.3z"/>
		</g>
	</g>
	<polygon class="st3" points="88.4,100.1 66.3,94 274.4,90 276.2,90.3 298,96.3 	"/>
	<path class="st4" d="M101.3,255.9L101.3,255.9c0.9,0.2,1.9,0.4,2.9,0.4l-3.4-0.9l-13.9-14c-1.4-5-1.2-9.5-1.2-9.5l-22.1-6.2
		c0,0,1.2,9.5,5.5,14.4c0,0,1.8,2.2,4.3,4.6c2.5,2.4,5.8,4.9,8.7,5.4l18.1,5.4c0.3,0.1,0.5,0.2,0.8,0.2L101.3,255.9z"/>
	<path class="st5" d="M88.7,100.1c0,0-3.5,0.1-3.4,3.1c0.2,3.7,0.4,128.4,0.4,128.4s-0.3,8.9,3.4,15c0,0,5.4,9.1,15.2,9.7
		c6.5,0,170.1-2.6,170.1-2.6s12.5,0.8,20-10.1c4.6-5.8,5.3-12.3,5.3-12.3v-8.6l0-124.2c0,0,0.2-2.4-3.1-2.3
		C293.2,96.2,88.7,100.1,88.7,100.1z"/>
	<path class="st3" d="M92,250.4l-17.9-4.9c0,0,3.1,3.6,9,5.2c5.9,1.6,17.1,4.9,17.1,4.9S96.1,254.4,92,250.4z"/>
	<g>
		<g>
			<g>
				<path class="st6" d="M197.8,125.4c0,0,0.8-3.9,4.7-3s7.7,2,7.7,2s3,0.4,2.1,4.9c-0.9,4.5-23.6,94.3-23.6,94.3s-0.9,3.2-4.3,2.6
					c-3.4-0.6-7.9-1.9-7.9-1.9s-3.5-0.8-2.4-5.2S197.8,125.4,197.8,125.4z"/>
				<path class="st6" d="M200.1,122.6l8.7-2.3l0.4,3.5c0,0-5.8,0.7-5.8,0.6C203.4,124.3,200.1,122.6,200.1,122.6z"/>
			</g>
			<polygon class="st7" points="185.7,226.3 194.6,224 189.7,220.4 185.1,222.9 			"/>
		</g>
		<g>
			<g>
				<path class="st8" d="M151.6,138.7l7.7,7.9c0,0,2.1,1.9,0.6,3.9c-1.5,1.9-20.4,22.9-20.4,22.9s-2.4,2.1,0.5,5.3
					c2.9,3.2,19.5,20.6,19.5,20.6s1.7,1.7,0.2,3.7c-1.5,2-8.3,9.4-8.3,9.4s-2.8,2-4.9,0c-2-2-32.5-33.4-32.5-33.4s-2.7-2.6,0.2-5.7
					c2.9-3.1,31.9-34.5,31.9-34.5S148.9,136,151.6,138.7z"/>
				<polygon class="st8" points="148,213.2 156.2,215.5 155.8,209.9 147.3,208.5 				"/>
			</g>
			<polygon class="st8" points="157.7,139.9 149.6,137.5 149.8,143.2 158.4,144.5 			"/>
			<path class="st9" d="M159.5,141l7.7,7.9c0,0,2.1,1.9,0.6,3.9c-1.5,1.9-20.4,22.9-20.4,22.9s-2.4,2.1,0.5,5.3
				c2.9,3.2,19.5,20.6,19.5,20.6s1.7,1.7,0.2,3.7c-1.5,2-8.3,9.4-8.3,9.4s-2.8,2-4.9,0c-2-2-32.5-33.4-32.5-33.4s-2.7-2.6,0.2-5.7
				c2.9-3.1,31.9-34.5,31.9-34.5S156.8,138.3,159.5,141z"/>
		</g>
		<g>
			<g>
				<g>
					<g>
						<path class="st8" d="M232.5,213.3l-7.7-7.9c0,0-2.1-1.9-0.6-3.9c1.5-1.9,20.4-22.9,20.4-22.9s2.4-2.1-0.5-5.3
							s-19.5-20.6-19.5-20.6s-1.7-1.7-0.2-3.7c1.5-2,8.3-9.4,8.3-9.4s2.8-2,4.9,0c2,2,32.5,33.4,32.5,33.4s2.7,2.6-0.2,5.7
							c-2.9,3.1-31.9,34.5-31.9,34.5S235.1,216,232.5,213.3z"/>
					</g>
					<polygon class="st8" points="244,141 236.1,138.8 236.4,144.4 245,145.8 					"/>
					<polygon class="st8" points="233.9,214.3 241.9,216.5 241.8,211 233.3,209.7 					"/>
				</g>
			</g>
			<path class="st9" d="M240.3,215.5l-7.7-7.9c0,0-2.1-1.9-0.6-3.9c1.5-1.9,20.4-22.9,20.4-22.9s2.4-2.1-0.5-5.3
				c-2.9-3.2-19.5-20.6-19.5-20.6s-1.7-1.7-0.2-3.7c1.5-2,8.3-9.4,8.3-9.4s2.8-2,4.9,0c2,2,32.5,33.4,32.5,33.4s2.7,2.6-0.2,5.7
				c-2.9,3.1-31.9,34.5-31.9,34.5S242.9,218.2,240.3,215.5z"/>
		</g>
		<path class="st10" d="M205.8,123.4c0,0,0.8-3.9,4.7-3c3.9,0.9,7.7,2,7.7,2s3,0.4,2.1,4.9s-23.6,94.3-23.6,94.3s-0.9,3.2-4.3,2.6
			c-3.4-0.6-7.9-1.9-7.9-1.9s-3.5-0.8-2.4-5.2S205.8,123.4,205.8,123.4z"/>
	</g>
	<path class="st5" d="M106.3,70.7l6.7-4.9C112.9,65.8,114.1,74.7,106.3,70.7z"/>
	<g>
		<polygon class="st11" points="65,91 85,93.2 87.3,89 66.4,86 		"/>
		<g>
			<path class="st11" d="M66.4,91c0,0-3.5,0.5-3.9-2.3c-0.6-3.6-3.2-19-3.2-19s-0.8-9.6,2.4-15.2c0,0,5.2-10.1,10.7-12.3
				c5.5-2.2,170-32.5,170-32.5s12-3.4,21.7,5.4c5.7,4.6,7.7,10.7,7.7,10.7l1.4,8.2l2.7,16.2c0,0,1,1.8-2.3,2.4
				C270.2,53.4,66.4,91,66.4,91z"/>
			<path class="st11" d="M246.9,9"/>
		</g>
	</g>
	<path class="st12" d="M73.2,41.1c5.5-2.3,170.5-32.6,170.5-32.6"/>
	<g>
		<path class="st13" d="M243.9,8.4c0,0,3.4-0.7,6.8-0.3c3.3,0.4,18.8,1.9,18.8,1.9l-3.4,0.1c-0.2,0-2.6,0.4-2.8,0.4
			C255.2,12.1,99,41,93.5,43l-19.7-2.1c0,0,14.2-3.1,16.6-3.5c2.4-0.5,14.9-2.9,14.9-2.9L243.9,8.4z"/>
		<path class="st14" d="M79.7,70.5l-19.7-1c-0.4,0-0.8-0.3-0.8-0.7c0.1-3.4-1.4-10.7,6.1-20.1c2.2-3.1,5.1-6.3,8.4-7.7L93.5,43
			c0,0-5.8,3.4-8.6,8.1c-2.8,4.7-4.8,8.9-5.1,14C79.5,69.4,79.7,70.5,79.7,70.5z"/>
	</g>
	<g>
		<path class="st15" d="M87,93c0,0-3.5,0.6-3.9-2.3c-0.6-3.7-3.2-19.5-3.2-19.5s-0.8-9.8,2.3-15.5c0,0,5.1-10.3,10.6-12.5
			c5.5-2.3,169.9-32.6,169.9-32.6s12-3.4,21.7,5.6c5.7,4.7,7.8,10.9,7.8,10.9l1.4,8.4l2.4,14.5c0,0,1.3,3.9-1.9,4.6
			C290.8,55.3,87,93,87,93z"/>
		<g>
			<g>
				<g>
					<g>
						<g>
							<path class="st16" d="M112.9,65.8c0.7,4.4-2.2,8.6-6.6,9.3c-2.6,0.4-5.1-0.4-6.9-2.1c-1.2-1.2-2.1-2.7-2.4-4.5
								c-0.7-4.4,2.2-8.6,6.6-9.3S112.2,61.4,112.9,65.8z"/>
						</g>
						<polyline class="st16" points="104.8,59.1 109.1,59.3 109.3,61.4 						"/>
					</g>
					<polygon class="st16" points="108.6,75.5 104,75.2 104.1,72.9 107,74.6 					"/>
				</g>
				<circle class="st17" cx="108.4" cy="67.4" r="8.1"/>
			</g>
			<g>
				<g>
					<g>
						<g>
							<g>
								<path class="st18" d="M139.6,61c0.7,4.4-2.2,8.6-6.6,9.3c-2.6,0.4-5.1-0.4-6.9-2.1c-1.2-1.2-2.1-2.7-2.4-4.5
									c-0.7-4.4,2.2-8.6,6.6-9.3C134.6,53.7,138.8,56.6,139.6,61z"/>
							</g>
							<polyline class="st18" points="131.4,54.3 135.8,54.5 135.9,56.6 							"/>
						</g>
						<polygon class="st18" points="135.2,70.7 130.6,70.4 130.7,68.1 133.6,69.8 						"/>
					</g>
				</g>
				<circle class="st19" cx="135" cy="62.6" r="8.1"/>
			</g>
			<g>
				<g>
					<g>
						<g>
							<path class="st20" d="M166.3,56.6c0.7,4.4-2.2,8.6-6.6,9.3c-2.6,0.4-5.1-0.4-6.9-2.1c-1.2-1.2-2.1-2.7-2.4-4.5
								c-0.7-4.4,2.2-8.6,6.6-9.3S165.5,52.2,166.3,56.6z"/>
						</g>
						<polyline class="st20" points="158.1,49.9 162.5,50.1 162.6,52.2 						"/>
					</g>
					<polygon class="st20" points="161.9,66.3 157.3,66 157.4,63.7 160.3,65.3 					"/>
				</g>
				<circle class="st21" cx="161.7" cy="58.2" r="8.1"/>
			</g>
		</g>
	</g>
	<path class="st22" d="M283.1,20.7c-2-3.4-9.3-1.5-9.5,2.4c-0.3,7.6-3.2,22.1-19.4,25.5c-19.2,4.1-20,5.8-20,5.8s-5.8,6.4,23.7,1.9
		c6.5-0.8,28.1-4.9,31.2-6.4c3.4-1.7-1.3-19.8-1.3-19.8S286.5,26.6,283.1,20.7z"/>
	<path class="st22" d="M292.4,197.5c0,0-3.8-13.7-10.6,0c0,0-1.9,15.8-2.7,18.1c-0.8,2.3-4.8,19.4-25.6,20.2s-29.5,2.9-29.5,2.9
		s-4.9,5.7,0,8c4.9,2.3,53.2,0,53.2,0s15.1-5.3,15.1-17.4S292.4,197.5,292.4,197.5z"/>
	<path class="st22" d="M237.6,208.5c0,0,9.2-2.6,16-5.8c2.5-1.2-8,9.3-8,9.3S241.9,216.5,237.6,208.5z"/>
	<path class="st22" d="M186.5,220.1c0,0,6.7-6.9,11.1-13c1.6-2.2-2.4,12.1-2.4,12.1S194.2,225,186.5,220.1z"/>
	<path class="st22" d="M151.8,209.7c0,0,8.1-3.2,14-6.7c2.1-1.3-6.5,9.4-6.5,9.4S156.3,216.9,151.8,209.7z"/>
	<path class="st23" d="M156.8,62.4l11.5-6.9c0,0,1.6,5.7-2.4,8.3C161.9,66.3,156.8,62.4,156.8,62.4z"/>
	<path class="st24" d="M141.7,61.1l-11.5,5.9c0,0,5.1,3.9,9.1,1.3C139.3,68.3,143.1,65.9,141.7,61.1z"/>
	<path class="st25" d="M114.9,65.4l-11.5,5.9c0,0,5.1,3.9,9.1,1.3C112.5,72.6,116.3,70.2,114.9,65.4z"/>
</g>
</svg>
