<svg xmlns="http://www.w3.org/2000/svg" version="1" viewBox="0 0 50 50"><path fill="#FCC34F" d="M4.973 45.377l41.819-15.221V8.583a5.376 5.376 0 0 0-5.375-5.375H8.582a5.375 5.375 0 0 0-5.375 5.375v32.835a5.34 5.34 0 0 0 1.766 3.959z"/><path fill="#FDCF72" d="M45.023 4.622a5.337 5.337 0 0 0-3.606-1.414H8.582a5.375 5.375 0 0 0-5.375 5.375v11.259l41.816-15.22z"/><path fill="#444" d="M24.904 37.499c0 2.2-.991 2.482-1.853 2.482-.455 0-1.007-.081-1.64-.238l-.641-.161v3.447l.332.125c.588.224 1.317.336 2.165.336 1.797 0 3.193-.54 4.148-1.603.943-1.047 1.42-2.556 1.42-4.484V24.292h-3.932v13.207zm18.163-1.868c-.316-.659-.814-1.253-1.479-1.769-.647-.5-1.62-1.015-2.971-1.579-1.118-.459-1.893-.832-2.308-1.102-.375-.246-.641-.5-.794-.757-.145-.244-.218-.552-.218-.915 0-.514.177-.912.542-1.219.385-.324.989-.489 1.795-.489 1.158 0 2.506.32 4.007.951l.487.205 1.289-3.31-.449-.199c-1.734-.767-3.505-1.156-5.261-1.156-1.877 0-3.406.465-4.542 1.384-1.17.945-1.763 2.25-1.763 3.882 0 1.289.371 2.413 1.102 3.342.723.917 1.908 1.7 3.62 2.395 1.867.749 2.629 1.247 2.939 1.531.391.361.582.788.582 1.301 0 .574-.203 1.015-.622 1.35-.771.616-2.568.719-4.621.228-.868-.207-1.7-.498-2.47-.86l-.735-.345v3.866l.29.141c1.338.653 3.064.983 5.133.983 2.107 0 3.797-.489 5.02-1.452 1.263-.993 1.902-2.373 1.902-4.103-.002-.874-.161-1.647-.475-2.304z"/><path fill="#444" d="M25.001 48.137H8.454a6.599 6.599 0 0 1-6.591-6.591V8.455a6.599 6.599 0 0 1 6.591-6.592h33.091a6.599 6.599 0 0 1 6.591 6.592v21.739a1.175 1.175 0 1 1-2.35 0V8.455a4.247 4.247 0 0 0-4.242-4.242H8.454a4.247 4.247 0 0 0-4.242 4.242v33.091a4.247 4.247 0 0 0 4.242 4.242h16.547a1.175 1.175 0 1 1 0 2.349z"/></svg>
