<?xml version="1.0" encoding="utf-8"?>
<!-- Generator: Adobe Illustrator 24.0.0, SVG Export Plug-In . SVG Version: 6.00 Build 0)  -->
<svg version="1.1" id="Layer_1" xmlns="http://www.w3.org/2000/svg" xmlns:xlink="http://www.w3.org/1999/xlink" x="0px" y="0px"
	 viewBox="0 0 50 50" style="enable-background:new 0 0 50 50;" xml:space="preserve">
<style type="text/css">
	.st0{fill:#FF6B6B;}
	.st1{fill:#E56060;}
	.st2{fill:#464646;}
	.st3{fill:none;stroke:#444444;stroke-width:1.5;stroke-linecap:round;stroke-linejoin:round;stroke-miterlimit:10;}
</style>
<path class="st0" d="M35.8,4.8H14.2c-0.6,0-1.1,0.3-1.4,0.8l-6.4,11L37.1,5.4C36.8,5,36.3,4.8,35.8,4.8z"/>
<path class="st1" d="M48,25.9c0.3-0.5,0.3-1.1,0-1.6L37.2,5.5c0-0.1-0.1-0.1-0.1-0.1L6.4,16.6L2,24.3c-0.3,0.5-0.3,1.1,0,1.6
	L10.1,40l37.7-13.7C47.8,26.3,48,25.9,48,25.9z"/>
<path class="st2" d="M49.1,23.6L38.3,4.8c-0.5-0.9-1.4-1.4-2.5-1.4H14.2c-1,0-2,0.5-2.5,1.4L0.9,23.6c-0.5,0.9-0.5,2,0,2.8
	l10.8,18.7c0.5,0.9,1.4,1.4,2.5,1.4h21.6c1,0,2-0.5,2.5-1.4l2-3.5c0.3-0.6,0.1-1.4-0.5-1.7s-1.4-0.1-1.7,0.5l-2,3.5
	c-0.1,0.1-0.2,0.2-0.3,0.2H14.2c-0.1,0-0.2-0.1-0.3-0.2L3.1,25.2C3,25.1,3,25,3.1,24.9L13.9,6.1C14,6,14.1,5.9,14.2,5.9h21.6
	c0.1,0,0.2,0.1,0.3,0.2l10.8,18.7c0.1,0.1,0.1,0.2,0,0.3l-1,1.7c-0.3,0.6-0.1,1.4,0.5,1.7c0.6,0.3,1.4,0.1,1.7-0.5l1-1.7
	C49.6,25.5,49.6,24.5,49.1,23.6z"/>
<path class="st2" d="M33.9,42.4h-18c-0.7,0-1.3-0.4-1.7-1l-9-15.6c-0.3-0.6-0.3-1.3,0-1.9l9-15.6c0.3-0.6,1-1,1.7-1h18
	c0.7,0,1.3,0.4,1.7,1l9,15.6c0.3,0.6,0.3,1.3,0,1.9l-9,15.6C35.2,42,34.6,42.4,33.9,42.4z M15.9,8.1c-0.4,0-0.8,0.2-1,0.6l-9,15.6
	c-0.2,0.4-0.2,0.8,0,1.2l9,15.6c0.2,0.4,0.6,0.6,1,0.6h18c0.4,0,0.8-0.2,1-0.6l9-15.6c0.2-0.4,0.2-0.8,0-1.2l-9-15.6
	c-0.2-0.4-0.6-0.6-1-0.6H15.9z"/>
<g>
	<line class="st3" x1="24.2" y1="15.6" x2="24.2" y2="17.1"/>
	<line class="st3" x1="20.3" y1="16.3" x2="20.3" y2="17.9"/>
	<line class="st3" x1="28.1" y1="16.3" x2="28.1" y2="17.9"/>
	<path class="st3" d="M31.2,21h3.1v3.1c0,0.9-0.7,1.6-1.6,1.6h-2"/>
	<path class="st3" d="M24.2,30.4L24.2,30.4c-3.9,0-7-3.1-7-7V21h14.1v2.3C31.2,27.3,28.1,30.4,24.2,30.4z"/>
	<line class="st3" x1="17.2" y1="32.7" x2="31.2" y2="32.7"/>
</g>
</svg>
