<svg xmlns="http://www.w3.org/2000/svg" id="Layer_1" x="0" y="0" version="1.1" viewBox="0 0 50 50" xml:space="preserve"><style>.st2{stroke-width:.5}.st2,.st3{fill:none;stroke:#444;stroke-linecap:round;stroke-linejoin:round;stroke-miterlimit:10}</style><path fill="#fc9d9a" d="M48.6 12.1l.5-1.1L47 6.8l-17 .5c-3.5 0-27.1-2.6-27.1.9L1.1 19.9l1.3 25.9 11.3.1L48 33.7c.8-.4 1.6-19.4.6-21.6z"/><path fill="none" stroke="#444" stroke-linecap="round" stroke-linejoin="round" stroke-miterlimit="10" stroke-width="2.5" d="M31.5 45.6l-26.1.7c-2.1 0-3.7-1.7-3.7-3.9V10.5c0-2.2 1.7-3.9 3.7-3.9L44.8 6c2.1 0 3.7 1.7 3.7 3.9v24.7"/><path d="M25.9 37.1H14.8c-4.4 0-8-3.6-8-8V20c0-4.4 3.6-8 8-8h9.1c4.4 0 8 3.6 8 8v3" class="st2"/><path d="M25.1 38.8H14.2c-5 0-9.1-4.1-9.1-9.1V19.4c0-5 4.1-9.1 9.1-9.1h10.2c5 0 9.1 4.1 9.1 9.1v2.9" class="st2"/><path d="M17.1 20.9L22 23c.2.1.2.3 0 .4l-4.8 2.5" class="st3"/><path d="M24.1 17l3.3 2m-3.9-4.6l6 3.8" class="st2"/><path d="M28.8 33.9c-1.1-3-3.9-5.3-7.2-5.6 2.1-.9 3.5-2.9 3.5-5.3 0-3.2-2.6-5.8-5.8-5.8-3.2 0-5.8 2.6-5.8 5.8 0 2.4 1.4 4.4 3.5 5.3-3.8.4-6.8 2.8-7.5 6.4 0 0 1.9 1.9 5.2 2.2h11.4m10.8-11L32 28c-.2.1-.2.3 0 .4l4.8 2.5" class="st3"/><path d="M45 41.7l-20.3.2v-.1c0-4.4 3.4-8.1 7.7-8.5-2.1-.9-3.5-2.9-3.5-5.3 0-3.2 2.6-5.8 5.8-5.8 3.2 0 5.8 2.6 5.8 5.8 0 2.4-1.4 4.4-3.5 5.3 3.7.4 8 3.1 8 8.4z" class="st3"/></svg>