<svg xmlns="http://www.w3.org/2000/svg" id="Layer_1" x="0" y="0" version="1.1" viewBox="0 0 50 50" xml:space="preserve"><style>.st4{fill:#444}</style><path fill="#00c8e2" d="M40.7 33.7c4-5.2 5.9-12.9 6.4-19h-.2c.9-.9 1.5-1.8 1.7-2.8l-35.8 13c.4 1.3.9 2.5 1.4 3.7-2-.4-4-1.1-5.6-2.2l-2.5.9c3 2.8 7 5.2 10.4 6.5-4 1.4-6.6 3.5-6.6 5.8 0 1.7 1.4 3.3 3.8 4.6L42 34.1c-.4-.1-.8-.3-1.3-.4z"/><path fill="none" d="M14.3 28.7c-.5-1.2-1-2.5-1.4-3.7l-4.2 1.5c1.6 1.1 3.6 1.7 5.6 2.2z"/><path fill="#494949" d="M5.5 22.5c.6 1.8 1.8 3 3.2 4l4.2-1.5c-.3-.8-.5-1.6-.7-2.4-1.8-2-8.7-5.9-6.7-.1z"/><path fill="#00dffc" d="M5.5 22.5c-2-5.8 4.9-1.9 6.7 0 .2.8.4 1.6.7 2.4l35.8-13c1-4.5-5.5-9.3-19.6-9.3C11.9 2.6 6 9.8 11.2 14.8h-.3c0 .3.1.7.1 1l-.1-.1s0 .5-.6.6c-1.4.2-6.9-2.4-8.1 2.7-.6 2.8 1.2 5.8 4.1 8.5l2.5-.9c-1.6-1.1-2.7-2.3-3.3-4.1z"/><path d="M5.5 22.6c1.3 3.8 5.1 5.4 8.8 6.2-.9-2-1.6-4.1-2.1-6.1-1.8-2-8.7-6-6.7-.1z" class="st4"/><path d="M41.6 32.6c-.1 0-.3-.1-.4-.1-.5-.2-1.1 0-1.4.4-2.9 3.9-6.6 5.9-11.1 5.9-4 0-7.4-1.7-10.2-4.9l-.2-.3H18c-.6-.2-1.3-.5-2-.8C9.5 30 2.1 23.9 3.1 19.6c.6-2.4 2.1-2.5 5.1-1.9.6.1 1.2.2 1.6.2l6.6 1.8c3.1.9 7.1 1.5 12 1.5 8 0 13.5-1.5 16.9-3.6-.3 2.1-.7 4.1-1.3 6-.2.7.2 1.4.9 1.5h.3c.5 0 1-.4 1.2-.9.8-2.8 1.4-6 1.6-9v-.1c.9-1.2 1.3-2.4 1.3-3.6 0-2.7-2-5.2-5.6-6.9-3.8-1.8-9.1-2.8-15.4-2.8-6.3 0-11.6 1-15.4 2.8-3.6 1.8-5.6 4.2-5.6 6.9 0 1.3.5 2.5 1.4 3.7h-.1c-2-.4-6.8-1.3-8 3.8-1.3 5.5 5.5 11.4 11.8 14.8C9.6 35.4 8 37.3 8 39.4c0 5.7 10.6 8.7 20.5 8.7 10 0 20.5-3.1 20.5-8.7.1-2.7-2.6-5.1-7.4-6.8zM28.5 4.3C40.5 4.3 47 8 47 11.5c0 1.7-1.5 3.4-4.2 4.7-2.4 1.1-6.8 2.5-14.3 2.5s-11.9-1.4-14.3-2.5c-2.7-1.3-4.2-3-4.2-4.7 0-3.5 6.4-7.2 18.5-7.2zm9.8 33.8c.6.5.9 1 .9 1.5 0 2.1-4.9 3.8-10.6 3.8-5.8 0-10.7-1.8-10.7-3.8 0-.6.4-1.2 1.2-1.7 2.8 2.3 6 3.5 9.7 3.5 3.5 0 6.7-1.1 9.5-3.3zm-9.8 7.6c-10.3 0-18-3.3-18-6.2 0-1.4 1.9-3 5-4.2.5.2 1 .4 1.4.6l1.8 1.8c-.8.6-1.3 1.3-1.3 2 0 2.4 4.9 4.3 11.2 4.3 6.2 0 11.1-1.9 11.1-4.3 0-.6-.3-1.3-1-1.8.9-.8 1.8-1.7 2.6-2.7 3.3 1.2 5.3 2.8 5.3 4.3 0 2.9-7.8 6.2-18.1 6.2z" class="st4"/><path fill="#444" fill-rule="evenodd" d="M28.8 5c-9.1 0-16.5 3-16.5 6.7s7.4 6.7 16.5 6.7 16.5-3 16.5-6.7S38 5 28.8 5zm14.8 9c.3-.4.5-.9.5-1.3 0-2.9-6.8-5.4-15.2-5.4-8.4 0-15.2 2.4-15.2 5.4 0 .5.2.9.5 1.3-.8-.7-1.3-1.5-1.3-2.4 0-3.3 7.3-6.2 16-6.2s16 2.8 16 6.2c0 .9-.5 1.7-1.3 2.4z" clip-rule="evenodd"/></svg>