<svg xmlns="http://www.w3.org/2000/svg" id="Camada_3" x="0" y="0" version="1.1" viewBox="0 0 50 50" xml:space="preserve"><style>.st3,.st4{fill:none;stroke:#444;stroke-linecap:round;stroke-linejoin:round;stroke-miterlimit:10}.st4{fill:#444;stroke-width:.5}</style><path fill="#fdcf72" d="M28.34 1.9c-.98-.12-1.97-.2-2.98-.2s-2.03-.07-2.98.2C4.5 6.95 3.48 15.34 1.6 25.11l40.43-14.67c-3.32-2.77-9.18-7.96-13.69-8.54z"/><path fill="#fcc34f" d="M41.8 10.45L1.6 24.59c-.28 1.43.22 2.19.22 3.71 0 7.17 6.06 13.23 11.16 17.5l33.77-12.01c.28-1.43 1.24-3.97 1.24-5.48-.01-7.18-1.09-13.6-6.19-17.86z"/><path fill="none" stroke="#454444" stroke-linecap="round" stroke-linejoin="round" stroke-miterlimit="10" stroke-width="2.5" d="M45.41 35.74c1.64-3.18 2.57-6.8 2.57-10.63 0-12.81-10.38-23.19-23.19-23.19S1.6 12.31 1.6 25.11 11.98 48.3 24.79 48.3"/><path d="M35.08 26.51c-.3 1.43-.79 3.04-1.59 4.72m-1.32 2.36c-1.13 1.75-2.63 3.53-4.61 5.23H13.08s-8.15-5.54-7.84-15.81c.04-1.37 1.21-2.43 2.58-2.43H32.9c1.46 0 2.64 1.2 2.59 2.66-.01.27-.06.89-.08 1.19" class="st3"/><path d="M5.27 38.82h30.45c.64 0 1.02.71.66 1.23-1 1.47-3.09 3.73-6.59 3.79-5.19.1-19.42 0-19.42 0m25.03-19.4s4.29-2.03 5.64 1.14c.67 1.59-.2 3.7-2.09 5.04-.4.28-.98.63-1.58.96a18.35 18.35 0 01-3.35 1.43l-1.85.58" class="st3"/><path d="M5.27 24.81h18.75M6.4 29.7h16.85M8.73 34.34h10.86" class="st4"/><path d="M35.08 26.51s2.43-1.18 3.53-.9 1.19 1.81-.17 2.92c-1.92 1.55-4.95 2.7-4.95 2.7" class="st3"/><path fill="none" stroke="#444" stroke-linecap="round" stroke-linejoin="round" stroke-miterlimit="10" stroke-width="1.5" d="M17.04 7.42s-1.99 1.24-1.85 3.01c.14 1.76 1.67 2.64 1.67 2.64s3.18 2.21-.68 5.2m7.49-16.13s-1.65 1.41-1.85 3.4c-.22 2.22 1.67 2.99 1.67 2.99s4.39 2.21-.99 7.5"/><path fill="none" stroke="#444" stroke-linecap="round" stroke-linejoin="round" stroke-miterlimit="10" stroke-width=".5" d="M9.63 20.59s-2.64 9.76 5.16 18.23m3.3 0s-5.46-8.27-3.3-17.99"/><path d="M7.86 40.36h11.73m-9.63 1.99h13.29" class="st4"/></svg>