<svg xmlns="http://www.w3.org/2000/svg" id="Layer_1" data-name="Layer 1" version="1.1" viewBox="0 0 48 47"><defs><style>.cls-3{stroke-width:0;fill:#444}</style></defs><path fill="#d1bd00" stroke-width="0" d="M28 20.2l7.8 2.5-6.7 4.7.1 8.2-6.5-4.9-7.8 2.6 2.6-7.7-4.9-6.6 8.2.1 4.8-6.7 2.4 7.8z"/><path fill="#f9f941" stroke-width="0" d="M43.7 3.4H2.6c-1.4 0-1.4 3.8-1.4 5.2L1 21.5.5 31.7l1.2 11.8 12.4.6 32.1-11.4V6c0-1.4-1.1-2.6-2.5-2.6z"/><path fill="none" stroke="#444" stroke-linecap="round" stroke-linejoin="round" stroke-width="2.5" d="M30.8 44.9H4.7c-1.8 0-3.3-1.6-3.3-3.5v-35c0-1.9 1.5-3.5 3.3-3.5h37.6c1.8 0 3.3 1.6 3.3 3.5v28.5"/><circle cx="6.7" cy="7.9" r="1.3" class="cls-3"/><circle cx="10.4" cy="7.9" r="1.3" class="cls-3"/><circle cx="14" cy="7.9" r="1.3" class="cls-3"/><path d="M14 39l2.3-1.4c.4.8.9 1.5 1.8 1.5s1.5-.4 1.5-1.8v-9.7h2.9v9.7c0 3-1.7 4.3-4.3 4.3S14.7 40.5 14 39zm10.1-.3l2.3-1.3c.6 1 1.4 1.7 2.8 1.7s1.9-.6 1.9-1.4-.8-1.3-2.1-1.9l-.7-.3c-2.1-.9-3.4-2-3.4-4.3s1.6-3.8 4.2-3.8 3.1.6 4.1 2.3L31 31.1c-.5-.9-1-1.2-1.8-1.2s-1.4.5-1.4 1.2.5 1.2 1.8 1.7l.7.3c2.4 1 3.8 2.1 3.8 4.5s-2 4-4.7 4-4.5-1.2-5.3-2.9zm17.1-5.1l-1.9 7.5h-1.7l1.9-7H38v1.3h-1.6v-2.8h4.9v1h-.1z" class="cls-3"/><circle cx="35.3" cy="40.5" r=".6" class="cls-3"/></svg>