<?xml version="1.0" encoding="utf-8"?>
<!-- Generator: Adobe Illustrator 22.0.1, SVG Export Plug-In . SVG Version: 6.00 Build 0)  -->
<svg version="1.1" id="Camada_1" xmlns="http://www.w3.org/2000/svg" xmlns:xlink="http://www.w3.org/1999/xlink" x="0px" y="0px"
	 viewBox="0 0 50 50" style="enable-background:new 0 0 50 50;" xml:space="preserve">
<style type="text/css">
	.st0{fill:#BEE367;}
	.st1{fill:#D4FF73;}
	.st2{fill:#444444;}
</style>
<path class="st0" d="M41.6,25.9V3.2c0-1.1-0.9-2-2-2H10.4c-1.1,0-2,0.9-2,2v34.7L41.6,25.9L41.6,25.9z"/>
<path class="st1" d="M41.4,2.4c-0.3-0.7-1-1.1-1.8-1.1H10.4c-1.1,0-2,0.9-2,2v11.1L41.4,2.4L41.4,2.4z"/>
<path class="st2" d="M39.6,0H10.4C8.6,0,7.2,1.5,7.2,3.2v43.6c0,1.8,1.4,3.2,3.2,3.2h23.2c0.7,0,1.2-0.6,1.2-1.3
	c0-0.6-0.5-1.1-1.2-1.2H10.4c-0.4,0-0.7-0.3-0.7-0.7v-5h27.8c0.7,0,1.2-0.5,1.3-1.2s-0.5-1.2-1.2-1.3c0,0-0.1,0-0.1,0H9.7v-5.8h30.7
	v2.9c0,0.7,0.6,1.2,1.3,1.2c0.6,0,1.2-0.5,1.2-1.2V3.2C42.8,1.5,41.4,0,39.6,0L39.6,0z M40.3,31.1H9.7v-5.8h30.7L40.3,31.1
	L40.3,31.1z M9.7,22.8V3.2c0-0.4,0.3-0.7,0.7-0.7h29.2c0.4,0,0.7,0.3,0.7,0.7v19.6L9.7,22.8L9.7,22.8z"/>
<path class="st2" d="M13.7,29.2H25c0.5,0,1-0.4,1-1c0-0.5-0.4-1-1-1H13.7c-0.5,0-1,0.4-1,1C12.7,28.7,13.2,29.2,13.7,29.2z
	 M13.7,35.4c-0.5,0-1,0.4-1,1c0,0.5,0.4,1,1,1H25c0.5,0,1-0.4,1-1c0-0.5-0.4-1-1-1H13.7z M13.7,43.6c-0.5,0-1,0.4-1,1
	c0,0.5,0.4,1,1,1H25c0.5,0,1-0.4,1-1c0-0.5-0.4-1-1-1H13.7z"/>
<circle class="st2" cx="33.6" cy="28.2" r="1.5"/>
<circle class="st2" cx="33.6" cy="36.4" r="1.5"/>
<circle class="st2" cx="33.6" cy="44.6" r="1.5"/>
</svg>
