<?xml version="1.0" encoding="utf-8"?>
<!-- Generator: Adobe Illustrator 26.5.0, SVG Export Plug-In . SVG Version: 6.00 Build 0)  -->
<svg version="1.1" id="Layer_1" xmlns="http://www.w3.org/2000/svg" xmlns:xlink="http://www.w3.org/1999/xlink" x="0px" y="0px"
	 viewBox="0 0 50 50" style="enable-background:new 0 0 50 50;" xml:space="preserve">
<style type="text/css">
	.st0{fill:#FDCF72;}
	.st1{fill:#FCC34F;}
	.st2{fill:none;stroke:#444444;stroke-width:2.5;stroke-linecap:round;stroke-linejoin:round;stroke-miterlimit:10;}
	.st3{fill:none;stroke:#444444;stroke-width:0.25;stroke-linecap:round;stroke-linejoin:round;stroke-miterlimit:10;}
	.st4{fill:#444444;stroke:#444444;stroke-width:0.25;stroke-linecap:round;stroke-linejoin:round;stroke-miterlimit:10;}
</style>
<g>
	<path class="st0" d="M25.39,2.59L42.3,5.42l6.1,10.71c0.45,1.17-0.15,2.48-1.33,2.91L1.6,38.13l0.94-14.37L2.45,12.92l6.62-8.3
		L25.39,2.59z"/>
	<polygon class="st1" points="48.24,25.68 48.55,30.02 7.4,44.81 3.74,41.42 1.48,33.05 47.37,15.41 47.77,20.52 	"/>
	<g>
		<g>
			<g>
				<path class="st2" d="M46.21,39.8c1.29-2.2,2.03-4.75,2.03-7.48V17.66c0-1.73-0.31-3.39-0.87-4.92
					c-0.75-2.04-1.94-3.88-3.47-5.38c-1.21-1.19-2.62-2.17-4.17-2.88c-1.82-0.84-3.85-1.3-5.97-1.3H16.12
					C8.18,3.19,1.67,9.67,1.64,17.6v14.73c0,2.42,0.58,4.7,1.62,6.72c0,0.01,0,0.01,0.01,0.02c0,0,0,0.01,0,0.01c0,0,0,0,0.01,0.01
					c1.86,3.61,5.16,6.37,9.12,7.51c1.3,0.38,2.67,0.58,4.08,0.58h16.93c1.3,0,2.55-0.17,3.75-0.48"/>
			</g>
		</g>
		<path class="st3" d="M1.2,33.97c0,0,30.74-28.68,41.1-28.56"/>
		<path class="st3" d="M3.54,38.06c0,0,30.74-28.68,41.1-28.56"/>
		<path class="st3" d="M6.71,41.97c0,0,30.74-28.68,41.1-28.56"/>
		<path class="st3" d="M10.02,46.19c0,0,28.69-28.49,39.05-28.37"/>
		<path class="st3" d="M14.54,47.41c0,0,25.84-24.85,33.78-24.85"/>
		<line class="st3" x1="24.96" y1="46.68" x2="20.17" y2="42.24"/>
		<line class="st3" x1="33.36" y1="46.43" x2="24.9" y2="38.19"/>
		<line class="st3" x1="34.94" y1="40.47" x2="29.01" y2="34.58"/>
		<line class="st3" x1="39.61" y1="37.45" x2="32.92" y2="31.43"/>
		<line class="st3" x1="46.57" y1="37" x2="36.99" y2="28.35"/>
		<line class="st3" x1="47.37" y1="29.86" x2="42.33" y2="24.9"/>
		<line class="st3" x1="1.96" y1="26.25" x2="11.23" y2="25.11"/>
		<line class="st3" x1="1.96" y1="20.75" x2="17.84" y2="19.71"/>
		<path class="st3" d="M2.67,15.57c0,0,17.09-2.62,21.23-0.56"/>
		<ellipse class="st4" cx="25.39" cy="8.51" rx="7.19" ry="1.82"/>
		<path class="st3" d="M3.54,10.53c0,0,9.89-2.41,15.52-1.14"/>
		<path class="st3" d="M12.93,3.19c11.3,3.18,12.03,3.51,12.03,3.51"/>
		<path class="st3" d="M27.67,2.59c0,0,7.62,3.68,7.59,5.1"/>
	</g>
</g>
</svg>
