<svg version="1" xmlns="http://www.w3.org/2000/svg" viewBox="0 0 50 50"><path fill="#A6C1C2" d="M11.336 34.5l.378-.654 1.913-.179L43.23 22.892c2.727-6.734.162-14.616-6.309-18.352-7.079-4.087-16.13-1.662-20.218 5.417-3.53 6.114-2.193 13.693 2.795 18.28l-.183.317c-.155.268-.301.533-.448.799l-4.819.451.567-.981a2.583 2.583 0 0 0-4.473-2.583l-3.72 6.443s-.65 2.081-1.04 3.984l5.954-2.167z"/><path fill="#B9D7D9" d="M40.945 7.523a14.765 14.765 0 0 0-3.651-2.982C30.215.454 21.164 2.879 17.076 9.958a14.697 14.697 0 0 0-1.968 6.969l25.837-9.404z"/><path fill="#444" d="M45.038 13.277a15.666 15.666 0 0 0-7.347-9.575C30.16-.646 20.498 1.945 16.151 9.474c-3.527 6.11-2.488 13.946 2.419 18.937l-.015.027-2.528.237a3.558 3.558 0 0 0-1.587-4.217 3.556 3.556 0 0 0-4.851 1.3L5.869 32.2l-.085.195c-2.254 7.213-1.159 7.845-.632 8.15.525.302 1.622.935 6.741-4.622l.696-1.159 3.038-.284c-1.335 3.361-2.22 7.012-.372 8.08 1.849 1.063 4.568-1.526 6.812-4.362l1.274 2.777-.638 1.105-1.255 5.132a.968.968 0 0 0 1.882.46l1.172-4.79c.038-.037 2.598-4.417 2.598-4.417l2.742 1.583-.755 1.308a.97.97 0 0 0 1.677.968l1.879-3.255c.474-.821.6-1.778.355-2.694s-.833-1.682-1.654-2.155a3.539 3.539 0 0 0-2.694-.356 3.528 3.528 0 0 0-1.752 1.089l-1.06-2.31.016-.026c6.776 1.756 14.083-1.26 17.612-7.372a15.69 15.69 0 0 0 1.572-11.968zM12.246 25.973a1.615 1.615 0 0 1 1.815 2.366l-.597.91-2.742-1.583.543-.941c.217-.373.565-.64.981-.752zM6.359 38.454c.105-1.185.646-3.454 1.241-5.38l2.542-4.402 2.742 1.583s-2.54 4.434-2.551 4.501c-1.358 1.46-3.015 3.024-3.974 3.698zm6.396-5.652l1.145-1.984 4.586-.43a44.027 44.027 0 0 0-1.013 1.972l-4.718.442zm3.477 8.066c-.248-.45 1.557-6.547 1.557-6.547s2.587-5.17 2.65-5.279c.593.475 1.21.922 1.87 1.303.659.381 1.348.704 2.053.98l-.183.308s-3.039 4.533-3.056 4.612c-2.637 3.5-4.379 4.613-4.891 4.623zm7.973-27.348a6.84 6.84 0 0 1 4.184-3.209 6.846 6.846 0 0 1 5.224.688 6.838 6.838 0 0 1 3.21 4.181 6.842 6.842 0 0 1-.69 5.227 6.905 6.905 0 0 1-7.74 3.211l1.749-3.03.023.001c.315 0 .632-.041.944-.125a3.61 3.61 0 0 0 2.202-1.689 3.601 3.601 0 0 0 .362-2.751 3.606 3.606 0 0 0-1.689-2.202 3.63 3.63 0 0 0-4.953 1.327 3.601 3.601 0 0 0-.362 2.751c.085.316.223.606.383.882l-1.755 3.04a6.889 6.889 0 0 1-1.092-8.302zm3.213 4.18zm.142 1.754c.236.247.495.473.799.648.302.174.622.298.951.379l-5.414 9.379a14.288 14.288 0 0 1-1.006-.521c-.26-.15-.502-.327-.752-.494l5.422-9.391zm1.589 16.278a1.601 1.601 0 0 1 1.225.162c.373.215.64.563.752.98.112.416.054.85-.162 1.224l-.543.941-2.741-1.583.489-.972c.215-.374.563-.641.98-.752zm-3.047 2.132l-1.146 1.985-1.976-4.308c.407-.598.809-1.219 1.202-1.864l1.92 4.187zm15.683-13.59c-3.209 5.557-9.982 8.199-16.103 6.279l-.511-.161a15.897 15.897 0 0 1-.562-.217l3.387-5.866a7.606 7.606 0 0 0 2.158.319 7.687 7.687 0 0 0 6.652-3.833 7.614 7.614 0 0 0 .767-5.814 7.614 7.614 0 0 0-3.572-4.652 7.615 7.615 0 0 0-5.812-.766 7.611 7.611 0 0 0-4.655 3.57 7.661 7.661 0 0 0 1.366 9.379l-3.407 5.9c-.347-.26-.675-.542-.995-.833l-.058-.053c-4.722-4.343-5.82-11.527-2.612-17.084 3.814-6.605 12.29-8.875 18.895-5.063 6.605 3.813 8.876 12.289 5.062 18.895z"/></svg>