<svg xmlns="http://www.w3.org/2000/svg" version="1" viewBox="0 0 50 50"><path fill="#DC5E82" d="M43.56 29.036c.002-.116.017-.228.017-.344 0-8.711-6.004-16-14.093-18.01l-1.712-4.785h1.66a1.584 1.584 0 0 0 .001-3.167h-8.365a1.584 1.584 0 1 0 0 3.168h1.165l-1.68 4.775c-8.108 1.996-14.13 9.295-14.13 18.019 0 4.671 1.737 8.928 4.583 12.192L43.56 29.036z"/><path fill="#F56991" d="M21.103 5.898h1.165l-1.68 4.775a18.58 18.58 0 0 0-8.689 4.922l17.146-6.24-1.237-3.457h1.66a1.584 1.584 0 0 0 .001-3.168h-8.365a1.584 1.584 0 0 0-.001 3.168z"/><g fill="#444"><path d="M30.233 9.865l-1.069-2.988h.268a2.567 2.567 0 0 0 2.564-2.564 2.567 2.567 0 0 0-2.564-2.564h-8.365a2.567 2.567 0 0 0-2.564 2.564 2.568 2.568 0 0 0 2.348 2.555L19.8 9.855A19.501 19.501 0 0 0 5.442 28.692C5.442 39.476 14.216 48.25 25 48.25c1.222 0 2.448-.114 3.644-.339a.98.98 0 0 0-.363-1.927c-1.076.203-2.18.306-3.281.306-9.703 0-17.597-7.895-17.597-17.598 0-7.725 5-14.45 12.287-16.748a.595.595 0 0 0 .132-.016 21.882 21.882 0 0 1 10.389-.004c.012.003.023-.001.034.002a17.538 17.538 0 0 1 12.353 16.766.98.98 0 0 0 1.96 0A19.506 19.506 0 0 0 30.233 9.865zM21.067 3.71h8.365c.333 0 .604.271.604.604a.6.6 0 0 1-.336.534c-.048-.013-.094-.03-.146-.03h-8.798a.594.594 0 0 1-.292-.504c0-.333.27-.604.603-.604zm.629 6.664l1.541-4.38h3.529l1.566 4.378a23.163 23.163 0 0 0-6.636.002z"/><path d="M25 12.766c-8.782 0-15.927 7.145-15.927 15.927S16.218 44.618 25 44.618s15.927-7.144 15.927-15.926S33.782 12.766 25 12.766zm10.275 5.655v6.458h-6.458v-6.458h6.458zm-6.458-.588V14.46c2.32.623 4.41 1.795 6.131 3.373h-6.131zm-7.047 7.635h6.458v6.448H21.77v-6.448zm-.588 6.448h-6.459v-6.448h6.459v6.448zm7.635-6.448h6.458v6.448h-6.458v-6.448zm-.589-.588H21.77v-6.458h6.458v6.458zm-7.046 0h-6.459v-6.458h6.459v6.458zm-6.13-7.047a14.713 14.713 0 0 1 6.13-3.372v3.372h-6.13zm-.917.917v6.129h-3.368a14.72 14.72 0 0 1 3.368-6.129zm0 6.718v6.448h-3.52a14.702 14.702 0 0 1-.366-3.224c0-1.109.133-2.185.366-3.224h3.52zm0 7.036v6.13a14.717 14.717 0 0 1-3.368-6.13h3.368zm.588 6.459v-6.459h6.459v6.459h-6.459zm6.459.588v3.372a14.718 14.718 0 0 1-6.13-3.372h6.13zm.588-7.047h6.458v6.459H21.77v-6.459zm7.047 0h6.458v6.459h-6.458v-6.459zm6.131 7.047a14.717 14.717 0 0 1-6.132 3.373v-3.373h6.132zm.915-.916v-6.132h3.37a14.71 14.71 0 0 1-3.37 6.132zm0-6.719v-6.448h3.521c.233 1.039.366 2.116.366 3.224s-.133 2.185-.366 3.224h-3.521zm0-7.036v-6.131a14.724 14.724 0 0 1 3.37 6.131h-3.37zm-7.635-10.571v3.524H21.77v-3.524a14.696 14.696 0 0 1 3.23-.367c1.11 0 2.188.133 3.228.367zM21.77 43.075v-3.524h6.458v3.524a14.687 14.687 0 0 1-3.229.367c-1.11 0-2.188-.134-3.229-.367z"/></g></svg>