<svg xmlns="http://www.w3.org/2000/svg" viewBox="0 0 50 50"><path fill="#ff6b6b" d="M46.4 21.4v-4.9l-.1-6.3h-.4l.1-.8c.1-.6.6-1.3.2-1.8l-.9-3.9c-.2-.2-1.3-1.8-1.6-2l-3 1.1-.6-.6-.8-.5c-.4-.6-2.2-.1-2.9-.1H19.6c-3.2.4-7.8-.3-8.2.1l-5.1.6c-.4.4-2.4 2.3-2.4 2.9l-.2 10.5c0 .2-.1 3.2 0 3.4v2.7c0 .1-.1 1.3 0 1.5v6.3l.2 5.7 1.9 2.4c0 .1 8.6 1.3 8.6 1.4.1.2.3.4.6.3l30.6-11.1c.2-.1.3-.3.3-.5l.5-4.9v-1.5z"/><path fill="none" stroke="#444" stroke-linecap="round" stroke-linejoin="round" stroke-miterlimit="10" stroke-width="2.5" d="M46.3 27.8V6.5c0-2.6-2.1-4.7-4.7-4.7H8.3c-2.6 0-4.7 2.1-4.7 4.7v27.3c0 2.6 2.1 4.7 4.7 4.7h14.5l9.2 9.3c.9.9 2.5.3 2.5-1v-8.2h4.6"/><path fill="none" stroke="#444" stroke-linecap="round" stroke-linejoin="round" stroke-miterlimit="10" stroke-width=".5" d="M32.3 19.9c-.2-.1-.5-.2-.7-.3l3.1-6.8h-3.6l-2.8 4.6c-.9 1.4-1.4 2.5-1.8 3.3-.3.9-.5 1.7-.5 2.5s.2 1.5.6 2.2c.4.6.9 1.2 1.5 1.5.6.4 1.3.5 2.1.5s1.5-.2 2.1-.5c.6-.4 1.1-.8 1.5-1.5.4-.6.6-1.3.6-2.1s-.2-1.4-.6-2c-.4-.5-.9-1-1.5-1.4zm-11.9-7.1l-2.8 4.6c-.9 1.4-1.4 2.5-1.8 3.3-.3.9-.5 1.7-.5 2.5s.2 1.5.6 2.2c.4.6.9 1.2 1.5 1.5.6.4 1.3.5 2.1.5s1.5-.2 2.1-.5c.6-.4 1.1-.8 1.5-1.5.4-.6.6-1.3.6-2.1s-.2-1.4-.6-2c-.4-.6-.9-1.1-1.5-1.5-.2-.1-.5-.2-.7-.3l3.1-6.8h-3.6z"/></svg>