<svg xmlns="http://www.w3.org/2000/svg" id="Layer_1" version="1.1" viewBox="0 0 50 50"><defs><style>.st0{fill:none;stroke:#444;stroke-linecap:round;stroke-linejoin:round}</style></defs><path fill="#fc9d9a" d="M43.9 16.3c-.2-2.1-.4-4.3-.6-6.4l-12-3.3-5.4-3.2c-1.6.9-3.5 1.9-5.6 2.9-2.1 1-3.2 1.5-4.7 2.1-1.6.6-3.7 1.2-6.2 1.5L8.2 22.5c0 3 0 6.7 1.1 10.9.5 2.2 1.1 4.1 1.8 5.8l6.3 4.2c9-3.2 18-6.3 26.9-9.5-.2-2.7-.4-5.4-.4-8.4v-9.2z"/><path fill="none" stroke="#444" stroke-linecap="round" stroke-linejoin="round" stroke-width="2.5" d="M34.1 44.4L26 49.5l-7.5-4.6c-9.2-5.4-9.8-11.4-9.8-11.4V10c9.4 0 17.2-6.5 17.2-6.5S33.1 10 43.3 10v23.4s0 1.7-1.3 3.1"/><path d="M32.4 38.2H19.6c-.9 0-1.6-.7-1.6-1.6v-13c0-.9.7-1.6 1.6-1.6h12.7c.9 0 1.6.7 1.6 1.6v13c0 .9-.7 1.6-1.5 1.6z" class="st0"/><path fill="none" stroke="#444" stroke-linecap="round" stroke-linejoin="round" stroke-width=".5" d="M26 25.9l1.4 2.8 3.1.4-2.3 2.2.6 3.1-2.8-1.5-2.8 1.5.6-3.1-2.3-2.2 3.1-.4 1.4-2.8z"/><path d="M22 22v-3.3c0-2.2 1.8-4 4-4s4 1.8 4 4V22" class="st0"/></svg>