<?xml version="1.0" encoding="UTF-8"?>
<svg id="Layer_1" xmlns="http://www.w3.org/2000/svg" version="1.1" viewBox="0 0 50 50">
  <!-- Generator: Adobe Illustrator 29.3.1, SVG Export Plug-In . SVG Version: 2.1.0 Build 151)  -->
  <defs>
    <style>
      .st0, .st1, .st2 {
        fill: none;
        stroke: #444;
        stroke-linecap: round;
        stroke-linejoin: round;
      }

      .st1 {
        stroke-width: 2.5px;
      }

      .st3 {
        fill: #fc9d9a;
      }

      .st2 {
        stroke-width: .5px;
      }
    </style>
  </defs>
  <path class="st3" d="M43.9,16.3c-.2-2.1-.4-4.3-.6-6.4-4-1.1-8-2.2-12-3.3l-5.4-3.2c-1.6.9-3.5,1.9-5.6,2.9-2.1,1-3.2,1.5-4.7,2.1-1.6.6-3.7,1.2-6.2,1.5-.4,4.2-.8,8.4-1.2,12.6,0,3,0,6.7,1.1,10.9.5,2.2,1.1,4.1,1.8,5.8,2.1,1.4,4.2,2.8,6.3,4.2,9-3.2,18-6.3,26.9-9.5-.2-2.7-.4-5.4-.4-8.4,0-3.2,0-6.3,0-9.2Z"/>
  <path class="st1" d="M34.1,44.4l-8.1,5.1-7.5-4.6c-9.2-5.4-9.8-11.4-9.8-11.4V10c9.4,0,17.2-6.5,17.2-6.5,0,0,7.2,6.5,17.4,6.5v23.4s0,1.7-1.3,3.1"/>
  <path class="st0" d="M32.4,38.2h-12.8c-.9,0-1.6-.7-1.6-1.6v-13c0-.9.7-1.6,1.6-1.6h12.7c.9,0,1.6.7,1.6,1.6v13c0,.9-.7,1.6-1.5,1.6Z"/>
  <path class="st2" d="M26,25.9l1.4,2.8,3.1.4-2.3,2.2.6,3.1-2.8-1.5-2.8,1.5.6-3.1-2.3-2.2,3.1-.4s1.4-2.8,1.4-2.8Z"/>
  <path class="st0" d="M22,22v-3.3c0-2.2,1.8-4,4-4s4,1.8,4,4v3.3"/>
</svg>