<?xml version="1.0" encoding="utf-8"?>
<!-- Generator: Adobe Illustrator 28.0.0, SVG Export Plug-In . SVG Version: 6.00 Build 0)  -->
<svg version="1.1" id="Layer_1" xmlns="http://www.w3.org/2000/svg" xmlns:xlink="http://www.w3.org/1999/xlink" x="0px" y="0px"
	 viewBox="0 0 50 50" style="enable-background:new 0 0 50 50;" xml:space="preserve">
<style type="text/css">
	.st0{fill:#C3FF68;}
	.st1{fill:none;stroke:#444444;stroke-linecap:round;stroke-linejoin:round;stroke-miterlimit:10;}
	.st2{fill:none;stroke:#444444;stroke-width:2.5;stroke-linecap:round;stroke-linejoin:round;stroke-miterlimit:10;}
	.st3{fill:none;stroke:#444444;stroke-width:0.5;stroke-linecap:round;stroke-linejoin:round;}
	.st4{fill:none;stroke:#444444;stroke-width:0.5;stroke-linecap:round;stroke-linejoin:round;stroke-dasharray:2.2914,2.2914;}
</style>
<path class="st0" d="M41,11.6l-2.4,3.6c-0.6,0.7-2.1,0.5-2.3,0.2l-1.8-1.2c-0.5-0.7-0.2-3-1.1-3H29c-0.6,0-14.1-0.4-14.6,0H8.1
	c-3,0-3.1-0.1-4.9,0l-1.8,1.3c0,0.2,0.1,5.7,0.1,6l0,1.5c0,0.2-0.1,2.4,0,2.6l0.2,2.3l-0.2,5.9v6.7c0,0.1,3.1,1.7,3.1,1.7
	c0.1,0.3,9,0.1,9.2,0l35.2-12.8c0.2-0.1,0.4-0.3,0.3-0.5l-0.6-5.3v-3.3l-1.4-5.8"/>
<g>
	<polyline class="st1" points="13.4,20.1 9.1,24.8 13.4,29.7 	"/>
	<polyline class="st1" points="24.8,20.1 29.1,24.8 24.8,29.7 	"/>
	<line class="st1" x1="22.1" y1="17.3" x2="15.8" y2="32.7"/>
</g>
<path class="st2" d="M44.7,38.7h-4v-0.8c0-1.9-1.6-3.5-3.5-3.5h0c-1.9,0-3.5,1.6-3.5,3.5v0.8H4.2c-1.5,0-2.7-1.2-2.7-2.7V14
	c0-1.5,1.2-2.7,2.7-2.7h29.5v0.8c0,1.9,1.6,3.5,3.5,3.5h0c1.9,0,3.5-1.6,3.5-3.5v-0.8h5.1c1.5,0,2.7,1.2,2.7,2.7v14.3"/>
<g>
	<g>
		<line class="st3" x1="36.6" y1="18.3" x2="36.6" y2="19.3"/>
		<line class="st4" x1="36.6" y1="21.6" x2="36.6" y2="29.6"/>
		<line class="st3" x1="36.6" y1="30.7" x2="36.6" y2="31.7"/>
	</g>
</g>
</svg>
