<?xml version="1.0" encoding="UTF-8"?>
<svg id="Camada_3" data-name="Camada 3" xmlns="http://www.w3.org/2000/svg" version="1.1" viewBox="0 0 50 50">
  <defs>
    <style>
      .cls-1 {
        stroke-width: .5px;
      }

      .cls-1, .cls-2, .cls-3 {
        fill: none;
        stroke: #444;
        stroke-linecap: round;
        stroke-linejoin: round;
      }

      .cls-4 {
        fill: #444;
      }

      .cls-4, .cls-5 {
        stroke-width: 0px;
      }

      .cls-3 {
        stroke-width: 2.5px;
      }

      .cls-5 {
        fill: #7df4eb;
      }
    </style>
  </defs>
  <path class="cls-5" d="M44.6,12.4l-5.6-3.6-7.7-4.4-6-2.8C22.2,1.5,3.9,10.5,3.9,13.7l-.5,7.8.5,15.1,11.5,7.6,31-11c.7-.4-.8-18.7-1.8-20.7Z"/>
  <path class="cls-3" d="M29.9,46.4l-2.2,1.3c-1.7,1-3.8,1-5.5,0l-15.6-9c-1.7-1-2.7-2.8-2.7-4.7v-18c0-2,1-3.8,2.7-4.7L22.2,2.3c1.7-1,3.8-1,5.5,0l15.6,9c1.7,1,2.7,2.8,2.7,4.7v18c0,2-1,3.8-2.7,4.7l-2.5,1.4"/>
  <rect class="cls-1" x="14" y="22.3" width="5.3" height="6.8" transform="translate(-9 42.4) rotate(-90)"/>
  <rect class="cls-2" x="14" y="10.1" width="5.3" height="6.8" transform="translate(3.2 30.2) rotate(-90)"/>
  <rect class="cls-1" x="31.9" y="22.5" width="5.3" height="6.8" transform="translate(8.7 60.5) rotate(-90)"/>
  <rect class="cls-2" x="27.4" y="5.5" width="5.3" height="16" transform="translate(16.5 43.5) rotate(-90)"/>
  <rect class="cls-1" x="23" y="22.2" width="5.3" height="6.8" transform="translate(0 51.2) rotate(-90)"/>
  <rect class="cls-2" x="23.6" y="24.9" width="4" height="24.8" transform="translate(-11.6 62.9) rotate(-90)"/>
  <g>
    <line class="cls-1" x1="17.9" y1="31.1" x2="17.9" y2="34.3"/>
    <polygon class="cls-4" points="17.2 31.3 17.9 30 18.7 31.3 17.2 31.3"/>
  </g>
  <g>
    <line class="cls-1" x1="33.6" y1="31.1" x2="33.6" y2="34.3"/>
    <polygon class="cls-4" points="32.9 31.3 33.6 30 34.4 31.3 32.9 31.3"/>
  </g>
  <g>
    <line class="cls-1" x1="34.6" y1="18.4" x2="34.6" y2="21.6"/>
    <polygon class="cls-4" points="33.8 18.7 34.6 17.3 35.4 18.7 33.8 18.7"/>
  </g>
  <g>
    <line class="cls-1" x1="25.6" y1="31.1" x2="25.6" y2="34.3"/>
    <polygon class="cls-4" points="24.9 31.3 25.6 30 26.4 31.3 24.9 31.3"/>
  </g>
  <g>
    <line class="cls-1" x1="25.6" y1="18.4" x2="25.6" y2="21.6"/>
    <polygon class="cls-4" points="24.9 18.7 25.6 17.3 26.4 18.7 24.9 18.7"/>
  </g>
  <g>
    <line class="cls-1" x1="16.7" y1="18.4" x2="16.7" y2="21.6"/>
    <polygon class="cls-4" points="15.9 18.7 16.7 17.3 17.4 18.7 15.9 18.7"/>
  </g>
</svg>