<?xml version="1.0" encoding="utf-8"?>
<!-- Generator: Adobe Illustrator 26.0.3, SVG Export Plug-In . SVG Version: 6.00 Build 0)  -->
<svg version="1.1" id="Layer_1" xmlns="http://www.w3.org/2000/svg" xmlns:xlink="http://www.w3.org/1999/xlink" x="0px" y="0px"
	 viewBox="0 0 50 50" style="enable-background:new 0 0 50 50;" xml:space="preserve">
<style type="text/css">
	.st0{fill:#00C8E2;}
	.st1{fill:#00DFFC;}
	.st2{fill:#494949;}
	.st3{fill:#444444;}
</style>
<g>
	<g>
		<path class="st0" d="M43.7,12.8v7.5l-1.3,0.5l-1.1,0.4l-1.6,0.6l-1.1,0.4l-5,1.8l-3.2,1.2l-3.2,1.2l-3.7,1.4L11.4,32l-1.1,0.4
			L8.6,33l-1.1,0.4l-1.3,0.5V18.2l1.3-0.5l1.1-0.4l1.7-0.6l1.1-0.4l7-2.5l1-0.4l11.3-4.1L31,9.2l2.7-1L33.9,8l4.8-1.7h0.1l1-0.4
			c0,0.1,0,0.2,0,0.3v2.4c0,0.1,0,0.2-0.1,0.3v2.7h2.9C43.2,11.6,43.7,12.1,43.7,12.8z"/>
	</g>
	<g>
		<path class="st1" d="M39.8,6.2v0.3L39,6.8l-0.2,0.1L35.5,8l-0.3,0.1l-2.7,1l-0.3,0.1L21,13.4l-2.6,0.9l-7,2.6l-1.1,0.4l-1.7,0.6
			l-1.1,0.4l-1.3,0.5v-6c0-0.6,0.5-1.1,1.2-1.1h2.9v-3c0-0.1,0-0.1,0-0.2V6.2c0-1.3,1-2.3,2.3-2.3h24.8c1.2,0,2.1,0.9,2.3,2
			C39.8,6,39.8,6.1,39.8,6.2z"/>
	</g>
	<g>
		<g>
			<g>
				<path class="st2" d="M18.7,43.8c-0.8-0.6,0.8-1.2,0.8-3.8v-2c0-0.7,1.1-0.7,1.1,0c0,2.1,0.2,3.7-1.1,5.7
					C19.3,43.9,18.9,43.9,18.7,43.8z"/>
			</g>
			<g>
				<path class="st2" d="M30.5,43.6c-1.3-1.9-1.1-3.4-1.1-5.7c0-0.7,1.1-0.7,1.1,0c0,2-0.2,3.4,0.9,5C31.8,43.6,30.9,44.2,30.5,43.6
					z"/>
			</g>
			<g>
				<path class="st2" d="M41.9,34.7H8.1c-0.3,0-0.5-0.2-0.5-0.5V14c0-0.3,0.2-0.5,0.5-0.5h2.2c0.7,0,0.7,1.1,0,1.1H8.7v19.1h32.7
					V14.4h-1.5c-0.7,0-0.7-1.1,0-1.1H42c0.3,0,0.5,0.2,0.5,0.5v20.3C42.4,34.5,42.2,34.7,41.9,34.7z"/>
			</g>
			<g>
				<path class="st2" d="M41.9,37.2c-0.8,0-0.8-1.2,0-1.2S42.7,37.2,41.9,37.2z"/>
			</g>
			<g>
				<path class="st2" d="M39.5,37.2c-0.8,0-0.8-1.2,0-1.2S40.3,37.2,39.5,37.2z"/>
			</g>
			<g>
				<path class="st2" d="M37,37.2c-0.8,0-0.8-1.2,0-1.2S37.8,37.2,37,37.2z"/>
			</g>
			<g>
				<path class="st2" d="M39.7,8.7v25.2c0,0.7-1.1,0.7-1.1,0V9.2H11.4v24.5c0,0.7-1.1,0.7-1.1,0v-25c0-0.1,0-0.1,0-0.2
					c0.1-0.2,0.3-0.4,0.5-0.4h28.3C39.5,8.1,39.7,8.4,39.7,8.7z"/>
			</g>
			<g>
				<path class="st2" d="M39.8,5.9c-0.2-1.1-1.1-2-2.3-2H12.7c-1.3,0-2.3,1-2.3,2.3v2.4c0,0.3,0.2,0.5,0.5,0.5h28.3
					c0.2,0,0.4-0.1,0.5-0.3c0-0.1,0.1-0.2,0.1-0.3V6.2C39.8,6.1,39.8,6,39.8,5.9z M12.7,5h24.8c0.7,0,1.2,0.5,1.2,1.1v0.1V8H11.5
					V6.2V6.1C11.5,5.5,12,5,12.7,5z"/>
			</g>
			<g>
				<path class="st2" d="M13.5,6.6c0,0.8,1.2,0.8,1.2,0C14.6,5.8,13.5,5.8,13.5,6.6z"/>
			</g>
			<g>
				<path class="st2" d="M15.6,6.6c0,0.8,1.2,0.8,1.2,0C16.7,5.8,15.6,5.8,15.6,6.6z"/>
			</g>
			<g>
				<path class="st2" d="M17.7,6.6c0,0.8,1.2,0.8,1.2,0C18.8,5.8,17.7,5.8,17.7,6.6z"/>
			</g>
		</g>
		<path class="st3" d="M33.7,23.9c-0.1-0.5-0.2-0.9-0.3-1.2c-0.3-0.6-0.7-1-1.2-1.5c-0.5-0.4-1.3-0.8-2.4-1.3
			c-0.9-0.4-1.6-0.7-1.9-0.9c-0.3-0.2-0.5-0.4-0.7-0.6c-0.1-0.2-0.2-0.5-0.2-0.7c0-0.4,0.1-0.7,0.4-1s0.8-0.4,1.5-0.4
			c0.9,0,2.1,0.3,3.3,0.8l0.4,0.2l1.1-2.7l-0.4-0.2c-1.4-0.6-2.9-0.9-4.3-0.9c-1.6,0-2.8,0.4-3.7,1.1c-1,0.8-1.5,1.9-1.5,3.2
			c0,1.1,0.3,2,0.9,2.8c0.6,0.7,1.6,1.4,3,2c1.5,0.6,2.2,1,2.4,1.3c0.3,0.3,0.5,0.6,0.5,1.1c0,0.1,0,0.2,0,0.3
			c-0.1,0.3-0.2,0.6-0.5,0.8c-0.5,0.4-1.5,0.5-2.7,0.4c-0.4,0-0.7-0.1-1.1-0.2c-0.7-0.2-1.4-0.4-2-0.7L23.6,25v3.2l0.2,0.1
			c1.1,0.5,2.5,0.8,4.2,0.8c1.7,0,3.1-0.4,4.1-1.2c1-0.8,1.6-2,1.6-3.4C33.7,24.3,33.7,24.1,33.7,23.9z M18.4,13.4v10.9
			c0,1.8-0.8,2-1.5,2c-0.4,0-0.8-0.1-1.4-0.2L15,25.9v2.8l0.3,0.1c0.5,0.2,1.1,0.3,1.8,0.3c1.5,0,2.6-0.4,3.4-1.3s1.2-2.1,1.2-3.7
			V13.4H18.4z"/>
	</g>
	<g>
		<g>
			<path class="st2" d="M36.8,5c0.8,0,1.5,0.5,1.9,1.1l0.1,0.1c0.1,0.2,0.1,0.3,0.2,0.5c0,0.1,0,0.3,0,0.4v2.3c0,0.1,0,0.2-0.1,0.3
				v1.8H39h3.6c0.7,0,1.2,0.5,1.2,1.1V37c0,0.7-0.6,1.2-1.2,1.2H30.2c0,1.7-0.1,3,0.8,4.4h3.1c0.3,0,0.5,0.2,0.5,0.5v1.8h7.2
				c0.3,0,0.5,0.2,0.5,0.5s-0.2,0.5-0.5,0.5H9.1c-0.7,0-0.7-1,0-1h6.3v-1.8c0-0.3,0.2-0.5,0.5-0.5H19c0.3-0.5,0.8-1.3,0.8-2.7v-1.6
				H7.4c-0.6,0-1.2-0.5-1.2-1.1V12.8c0-0.6,0.5-1.1,1.2-1.1H11h0.1v-2V9.6V7.2c0-0.4,0.1-0.8,0.3-1.1c0.4-0.6,1.2-1.1,2-1.1H36.8
				 M36.8,2.5H13.4c-1.7,0-3.3,0.9-4.1,2.4C8.9,5.6,8.7,6.4,8.7,7.2v1.9H7.4c-2,0-3.7,1.6-3.7,3.6v24.4c0,2,1.6,3.6,3.7,3.6H14
				c-0.6,0.4-1,1-1.1,1.7H9.1c-1.7,0-3,1.3-3,3s1.3,3,3,3h32.8c1.7,0,3-1.4,3-3c0-1.7-1.4-3-3-3H37c-0.2-0.7-0.6-1.3-1.1-1.7h6.6
				c2.1,0,3.7-1.7,3.7-3.7V12.8c0-2-1.6-3.6-3.7-3.6h-1.1v-2c0-0.3,0-0.6-0.1-0.9c-0.1-0.4-0.2-0.7-0.4-1.1c0,0,0,0,0-0.1
				s-0.1-0.2-0.2-0.3C40,3.4,38.5,2.5,36.8,2.5L36.8,2.5z"/>
		</g>
	</g>
</g>
</svg>
