<svg xmlns="http://www.w3.org/2000/svg" viewBox="0 0 50 50"><path fill="#46b8b0" d="M44.4 4.6L8 4.8c-2.9 0-6 .9-6 3.8v13.7l-.3 10.1c.4 6.3 7 6.5 15.2 6l.9 5.2 15.4-5.5 15.6-5.5-.3-23.8-4.1-4.2z"/><path fill="none" stroke="#444" stroke-linecap="round" stroke-linejoin="round" stroke-miterlimit="10" d="M32.7 37.6L7 37.5c-2.6 0-5.5-2-5.5-4.6m30.2 10.7H17.9c-.5 0-.9-.6-.6-1l2.4-4.8H30l2.5 4.8c.1.5-.3 1-.8 1z"/><circle cx="24.8" cy="34.7" r="1.6" fill="#444"/><path fill="none" stroke="#444" stroke-linecap="round" stroke-linejoin="round" stroke-miterlimit="10" stroke-width="2.5" d="M48.4 33.1V10.7c0-3.4-2.8-6.2-6.2-6.2H7.6c-3.4 0-6.2 2.8-6.2 6.2v21.4c0 3.4 2.8 6.2 6.2 6.2h10.6l-1.8 4.5c-.4.9.3 1.8 1.2 1.9l14.4.1c1 0 1.6-1 1.2-1.9l-1.9-4.6h5.8"/><path fill="none" stroke="#444" stroke-linecap="round" stroke-linejoin="round" stroke-miterlimit="10" stroke-width=".5" d="M2.5 31.9h45.3m-45.7 0h8.1"/><path fill="#444" stroke="#444444" stroke-linecap="round" stroke-linejoin="round" stroke-miterlimit="10" stroke-width=".5" d="M7.9 8.6h1.4m2.4 0H23m1.7 0h5.8m-14.2 3h11.3m2.1 0H41m-33.1 0h1.4m-1.4 3h1.4m6.4 0h7.7m1.8 0h11.1m2.2 0h4.1m-34.7 3h1.4m-1.4 2.8h1.4m-1.4 3.2h1.4m-1.4 2.8h1.4m-1.4 3h1.4m10.4-11.8h8.9m5.1 0h8.9M12 20.4h10.2m2.2 0h10.2m-17.9 3.2h2.9m3.2 0h13.8m-20.5 2.8h7.6m1.4 0h11.4m1.6 0h4.6m-23 3h9.2m1.4 0h12.1"/></svg>
