<?xml version="1.0" encoding="utf-8"?>
<!-- Generator: Adobe Illustrator 28.1.0, SVG Export Plug-In . SVG Version: 6.00 Build 0)  -->
<svg version="1.1" id="Camada_1" xmlns="http://www.w3.org/2000/svg" xmlns:xlink="http://www.w3.org/1999/xlink" x="0px" y="0px"
	 viewBox="0 0 50 50" style="enable-background:new 0 0 50 50;" xml:space="preserve">
<style type="text/css">
	.st0{fill:#C3FF68;}
	.st1{fill:none;stroke:#444444;stroke-width:2.5;stroke-linecap:round;stroke-linejoin:round;stroke-miterlimit:10;}
	.st2{fill:#444444;}
</style>
<g>
	<g>
		<g>
			<path class="st0" d="M48.2,20c-0.2-0.8-2.7-7.5-3.2-8.1l-3-3.5l-0.2,0.1l-7.6-5.8L26.4,2C23.2,2,11.9,2.3,5,12.3L1,22.9l-0.2,0.1
				l4,13.4c0.1,0.4,4.5,5.7,4.9,5.9l5.6,3l32.2-11.7C48.1,33,49.2,24.8,48.2,20z"/>
			<g>
				<g>
					<g>
						<path class="st1" d="M32.5,47.3c-7,2.3-15,1.2-21.3-3.6C0.8,36-1.3,21.3,6.5,10.9"/>
						<path class="st1" d="M6.4,11.1c2-3,4.7-4.7,4.7-4.7l0.7-0.5C19.9,0.1,31,0,39.4,6.3C49.7,14,51.8,28.7,44,39.1"/>
					</g>
				</g>
			</g>
		</g>
	</g>
	<path class="st2" d="M25.3,45.2C14.2,45.2,5.1,36.1,5.1,25S14.2,4.8,25.3,4.8S45.5,13.9,45.5,25S36.4,45.2,25.3,45.2z M25.3,5.6
		C14.6,5.6,5.9,14.3,5.9,25s8.7,19.4,19.4,19.4S44.7,35.7,44.7,25S36,5.6,25.3,5.6z"/>
	<path class="st2" d="M18.3,28.1c0,2-0.9,2.2-1.7,2.2c-0.4,0-0.9-0.1-1.5-0.2L14.6,30v3.1l0.3,0.1c0.5,0.2,1.2,0.3,1.9,0.3
		c1.6,0,2.9-0.5,3.7-1.4c0.8-0.9,1.3-2.3,1.3-4V16.2h-3.5V28.1z M34.7,26.4c-0.3-0.6-0.7-1.1-1.3-1.6s-1.5-0.9-2.7-1.4
		c-1-0.4-1.7-0.7-2.1-1c-0.3-0.2-0.6-0.5-0.7-0.7s-0.2-0.5-0.2-0.8c0-0.5,0.2-0.8,0.5-1.1c0.3-0.3,0.9-0.4,1.6-0.4
		c1,0,2.3,0.3,3.6,0.9l0.4,0.2l1.2-3l-0.4-0.2c-1.6-0.7-3.2-1-4.7-1c-1.7,0-3.1,0.4-4.1,1.2c-1.1,0.9-1.6,2-1.6,3.5
		c0,1.2,0.3,2.2,1,3s1.7,1.5,3.3,2.2c1.7,0.7,2.4,1.1,2.6,1.4c0.4,0.3,0.5,0.7,0.5,1.2S31.4,29.7,31,30c-0.7,0.6-2.3,0.6-4.2,0.2
		c-0.8-0.2-1.5-0.4-2.2-0.8L24,29v3.5l0.3,0.1c1.2,0.6,2.8,0.9,4.6,0.9c1.9,0,3.4-0.4,4.5-1.3s1.7-2.1,1.7-3.7
		C35.1,27.7,35,27,34.7,26.4z"/>
</g>
</svg>
