<svg xmlns="http://www.w3.org/2000/svg" id="Layer_1" x="0" y="0" version="1.1" viewBox="0 0 50 50" xml:space="preserve"><style>.st2{fill:#444}</style><path fill="#00c8e2" d="M45.8 25.7l.4 4.1L3.6 45.3l.1-8.5.2-5 42.5-15.4-.6 3.5z"/><path fill="#00dffc" d="M46.6 12.4l-1.3 4.9L3.7 32.5l-.3-5.1.5-2.9L45.7 9.1z"/><path d="M3.9 49c-.7 0-1.2-.6-1.2-1.2L2.4 2.5c0-.7.6-1.3 1.2-1.3L46.2 1c.3 0 .7.1.9.4.2.2.4.6.4.9l.2 45.5c0 .3-.1.7-.4.9-.3.1-.6.3-1 .3H40c-.7 0-1.2-.6-1.2-1.2s.6-1.2 1.2-1.2h5l-.1-43-40 .2.3 42.8 24.3-.1-2.8-2.6c-.5-.5-.5-1.3 0-1.8s1.3-.5 1.8 0l5 4.8c.4.4.5.9.3 1.4-.2.5-.6.8-1.2.8L3.9 49z" class="st2"/><path d="M24.8 23.8c-.1 0-.2 0-.4-.1l-7-3.8c-.2-.1-.4-.4-.4-.7v-6.9c0-.3.1-.5.4-.7.2-.1.5-.1.8 0l6.5 4 6-4c.2-.2.5-.2.8 0 .2.1.4.4.4.7v7.4c0 .3-.2.5-.4.7l-6.3 3.2c-.2.1-.3.2-.4.2zm-6.3-5l6.3 3.4 5.5-2.8v-5.6l-5.2 3.5c-.2.2-.6.2-.8 0l-5.8-3.6v5.1zm-1.7 18.7c-.1 0-.3 0-.4-.1-.2-.2-.4-.4-.3-.7L17 30l-6.2-3.4c-.2-.1-.4-.4-.4-.6 0-.3.1-.5.3-.7l5.4-3.8c.2-.2.5-.2.8-.1l6.9 3.5c.3.1.4.4.4.7V33c0 .3-.1.5-.4.6l-6.5 3.8c-.2.1-.3.1-.5.1zm-4.4-11.7l5.7 3.1c.3.1.4.4.4.8l-.7 5.7 4.8-2.9V26l-6.1-3.1-4.1 2.9zm20.4 11.8c-.1 0-.3 0-.4-.1l-6.5-3.8c-.2-.1-.4-.4-.4-.6v-7.4c0-.3.2-.5.4-.7l6.9-3.5c.3-.1.5-.1.8.1l5.4 3.8c.2.1.3.4.3.7 0 .3-.2.5-.4.6l-6.2 3.4.9 6.7c0 .3-.1.6-.3.7-.2.1-.3.1-.5.1zm-5.7-5l4.8 2.9-.7-5.7c0-.3.1-.6.4-.8l5.7-3.1-4-2.9-6.1 3.1v6.5z" class="st2"/></svg>