<svg xmlns="http://www.w3.org/2000/svg" id="Camada_1" version="1.1" viewBox="0 0 50 50"><defs><style></style></defs><path fill="#fcc34f" d="M27.6 25.3c-.4 0-1.1-4.8-1.4-6s-6.9-1.2-7-1.4l.9-7.8v-.2l7.9-.2s.1 0 .1-.1l.5-5.5s0-.1-.1-.1C24.8 4 8.1-.5 8.1 3l-4 19.4-2 21.1v.1l11.3 2.8 33.1-11.6c1-.4 1.6-5.6.5-5.7-8.6-.8-3.6-7.8-5.6-9.9-2.9-3.2-11 .1-9.2 5.9s-3.4.3-5 .3z"/><path fill="none" stroke="#444" stroke-linecap="round" stroke-linejoin="round" d="M4.2 22.3l7.8 1.1c-1.7.9-2.9 2.7-2.9 4.9s1.5 4 3.4 4.7c3.3 1.2 6.6-1 7.1-4.2s-.4-3.4-1.6-4.6l5.2.8m2.4 3.6l-.5 4.1c1.1-.8 2.4-1.1 3.8-.9 3.3.5 5.4 3.8 4.2 7.1s-2.6 3.4-4.7 3.5-3.3-.7-4.3-2l-1 7.1"/><path fill="none" stroke="#444" stroke-linecap="round" stroke-linejoin="round" stroke-width="2.5" d="M46.5 38.7l1.4-10-7.8-1.1c1.7-.9 2.9-2.7 2.9-4.9 0-2.1-1.5-4-3.4-4.7-3.3-1.2-6.6 1-7.1 4.2-.2 1.8.4 3.4 1.6 4.6l-7.9-1.1v-.2l.9-7.1c-1.1.8-2.4 1.1-3.8.9-3.3-.5-5.4-3.8-4.2-7.1.7-2 2.6-3.4 4.7-3.5 1.8 0 3.3.7 4.3 2l1-7.1-17-2.3C9.5.9 7 2.8 6.6 5.4L4.2 22.3 1.8 39.4c-.4 2.6 1.5 5.1 4.1 5.5l17 2.4h0l7.4 1.1"/></svg>