<svg xmlns="http://www.w3.org/2000/svg" id="Layer_1" x="0" y="0" version="1.1" viewBox="0 0 50 50" xml:space="preserve"><style>.st2{fill:#444}.st5{fill:none;stroke:#444;stroke-linecap:round;stroke-linejoin:round;stroke-miterlimit:10;stroke-width:2.5}</style><path fill="#e56060" d="M126.4 586.6l1.7 3.5v4.9l-14 5.1-.1-.6-1.1.3-.1 2.5 1.1.5v4.7l-2.7 1.2-2.2-1.6-.1-5.1-7.8 2.8v-2l-4.9-.4.3-9.7 1.5-1.1.2-4.6 16.7-6 .8 3.3 4.2-1.4z"/><path fill="#ff6b6b" d="M114.6 574.3l.1 1.2v8.1l-16.2 5.8 7.5-11.8 3.7-4.5 3-2.9 1.9 3.3z"/><path d="M122.7 605.9l-.1-2.9h-.7c.1 0 .3 0 .4-.1.2-.1.3-.2.4-.4.1-.2.2-.4.2-.6v-1.8c0-.1 0-.3-.1-.4-.1-.2-.2-.3-.4-.4-.2-.1-.4-.2-.6-.2h-.4v-3l.1-.1c.1-.1.2-.1.4-.2s.5-.2.7-.2c.1 0 .2 0 .3-.1v.3c0 .1 0 .3.1.4.1.2.2.3.4.4.2.1.4.2.6.2h1.9c.1 0 .3 0 .4-.1.2-.1.3-.2.4-.4.1-.2.2-.3.2-.6v-8.5c0-.1 0-.3-.1-.4-.1-.2-.2-.3-.4-.4-.2-.1-.4-.2-.6-.2H124c-.1 0-.3 0-.4.1-.2.1-.3.2-.4.4-.1.2-.2.3-.2.6v.6h-3c-.9 0-1.7.2-2.5.5-1.2.5-2.1 1.3-2.8 2.2-.7 1-1.1 2.2-1.1 3.5v5h-.4c-.1 0-.3 0-.4.1-.2.1-.3.2-.4.4-.1.2-.2.3-.2.6v1.8c0 .1 0 .3.1.4.1.2.2.3.4.4.2.1.4.2.6.2h.4l.2 3c0 .3-.1.6-.2.8-.2.4-.4.7-.8.9-.3.2-.8.4-1.2.4-.3 0-.6-.1-.9-.2-.4-.2-.7-.4-1-.8-.2-.3-.4-.7-.4-1.2v-7.2c0-.8-.2-1.5-.4-2.1-.4-1-1.2-1.8-2.1-2.4-.9-.6-2-.9-3.2-.9l-3.5.3v-.4c0-.1 0-.2-.1-.4s-.2-.3-.3-.4c-.1-.1-.3-.2-.5-.2h-1.9c-.1 0-.3 0-.4.1-.2.1-.3.2-.4.3-.1.1-.2.3-.2.5v8c0 .1 0 .2.1.4s.2.3.3.4c.1.1.3.2.5.2h1.9c.1 0 .3 0 .4-.1.2-.1.3-.2.4-.3.1-.1.1-.2.1-.4.1 0 .2 0 .3.1.2 0 .3.1.5.2.1 0 .2.1.3.1.1 0 .1.1.2.1 0 0 .1 0 .1.1v4.1c0 1.3.3 2.6.8 3.8.5 1.2 1.4 3.3 2.3 4.1.9.9 2 1.6 3.2 2.1 1.2.5 2.6.8 3.9.8 1.3 0 2.7-.3 3.9-.8 1.2-.5 2.3-1.2 3.2-2.1.2-.2.4-.5.6-.7.2-.2.1-.5-.1-.7-.2-.2-.5-.1-.7.1l-.6.6c-.8.8-1.8 1.4-2.9 1.9-1.1.5-2.3.7-3.5.7-1.2 0-2.4-.2-3.5-.7-1.1-.4-2-1.1-2.9-1.9-.8-.8-1.7-2.8-2.1-3.8-.5-1.1-.7-2.2-.7-3.4v-4.4c0-.1-.1-.2-.1-.2l-.3-.3c-.1-.1-.2-.1-.3-.2l-.6-.3-.9-.3c-.1 0-.2 0-.3-.1v-5.7l3.6-.3c.6 0 1.2.1 1.8.4.8.3 1.6.9 2.1 1.6.5.7.8 1.6.8 2.5v7.2c0 .4.1.8.3 1.2.2.6.7 1 1.2 1.4.5.3 1.1.5 1.8.5.4 0 .9-.1 1.2-.3.6-.2 1.1-.6 1.4-1.1.3-.5.5-1.1.5-1.7l-.2-2.9h6.5l.5 2.9m-24.1-12.3h1.8v7.2h-1.8v-7.5.3zm26.7-5.8h1.9v7.9H124v-8.2.3zm-1.8 7c-.2.1-.4.1-.6.2-.1.1-.3.1-.4.2-.1 0-.2.1-.3.2-.1 0-.1.1-.2.1-.1.1-.2.2-.2.3 0 .1-.1.1-.1.2v3.7c0 .1.1.3.2.3.1.1.2.1.4.1h.9v1.8h-8.7v-1.8h.9c.1 0 .3-.1.4-.1.1-.1.1-.2.1-.3v-5.5c0-.7.1-1.4.4-2 .4-.9 1.1-1.7 1.9-2.3.9-.6 1.9-.9 3-.9h2.9v5.7c-.1 0-.3 0-.6.1z" class="st2"/><path fill="none" stroke="#444" stroke-linecap="round" stroke-linejoin="round" stroke-miterlimit="10" d="M101.6 593.7s2.7-2.8 3.5-3.2c0 0-.4 3 .3 3.6m2.5 1.8s4-.9 1.3-4.9c-1.4-2.1-4.2-2.9-.8-8.3 0 0-.5 3.1 4.9 5.7.8.4 2.1 1.1 2.7 1.4"/><path fill="none" stroke="#444" stroke-linecap="round" stroke-linejoin="round" stroke-miterlimit="10" stroke-width=".75" d="M98.2 592.9s-1.2-5.2 7.3-13.9c8.2-8.4 7.2-10 7.2-10s2.5.6 1.9 8.4c-.2 2.9-1.9 4.4.1 6.6 2 2.2 6-.3 5.3-1.9 0 0 1.5 1 4.3 5.3"/><path d="M121.8 609.2c0-.1 0-.2.1-.2 0 0-.1.1-.1.2zm.4-1.7l-.3 1.5c.2-.9.3-1.5.3-1.5z" class="st5"/><path d="M122.2 607.5c0-.3.1-.7.1-1v-3.1h.3c.1 0 .3 0 .4-.1.2-.1.3-.2.5-.4.1-.2.2-.4.2-.6v-3c-.1-.2-.2-.3-.4-.4-.2-.1-.4-.2-.6-.2h-.5l-.1-2.4.1-.1c.1-.1.2-.1.4-.2s-.5.3-.2.2c0 0 .2 0 .3-.1v-.2c0 .1 0 .3.1.4.1.2.2.3.4.4.2.1.4.2.6.2h2.9c.1 0 .3 0 .4-.1.2-.1.3-.2.5-.4.1-.2.2-.4.2-.6v-8.7c0-.1 0-.3-.1-.4-.1-.2-.2-.3-.4-.4-.2-.1-.4-.2-.6-.2h-1.9c-.1 0-.3 0-.4.1-1.6-2.1-3-3.4-4-4.1-.4-.3-.9-.1-1 .4-.4 1.5-2.6 3-4.3 1.2-2-2.2-.3-3.8-.1-6.8.4-4.4-.8-6.7-1.9-7.8-.4-.4-1.1-.1-1.1.5.1 1.5-.9 4.3-6.3 9-7.6 6.6-7.8 11.8-7.6 13.6h-.9c-.1 0-.3 0-.4.1-.2.1-.3.2-.4.3-.1.1-.2.3-.2.5v8.3c0 .1 0 .3.1.4.1.2.2.3.3.4.2.1.3.2.5.2h2c.1 0 .3 0 .4-.1.2-.1 0-.1.1-.2s.5-.2.5-.3c.3.1-.1 0 0 0 .2 0 .3.1.5.2.1 0 .2.1.3.1.1 0 .1.1.2.1l.1.1.3 4.1c0 1.3.3 2.7.8 3.9.5 1.2 1.3 2.3 2.2 3.2.9.9 2 1.6 3.3 2.1 1.3.5 2.6.8 4 .8s2.7-.3 4-.8c1-.4 1.9-.9 2.7-1.6.1 0 3.4-2.7 3.7-6.5z" class="st5"/><path fill="#a475ef" d="M45.1 17.6V22l-1 5.7-31.3 11.4-.5-1.4-.6-2-1.4-5.5-2.7-9 30.1-10.9.9 1.4 2.1 1.3z"/><path fill="#bf94f7" d="M29.9 3.2L31.8 9l6.8 1.5-31 11.1-1.8-9.3-.6-3.9L6.9 7l19.3-5.7z"/><path d="M36.7 20.4l-3-3c-.5-.5-1.3-.8-2-.8h-.2l-4.1 1.1c-.9.2-1.6.9-1.8 1.8l-1.1 4.1c-.2.9 0 1.8.6 2.5l3 3c.5.5 1.3.8 2 .8h.2l4.1-1.1c.9-.2 1.6-.9 1.8-1.8l1.1-4.1c.3-.9.1-1.8-.6-2.5z" class="st2"/><path d="M39.6 21.8c0 .1-.1-.1 0 0 0 .3 0 .6-.1.9l-1.7 6c-.2.7-.8 1.3-1.6 1.5l-6 1.5c-.2 0-.3.1-.5.1h-.4l-1.6 5.7c.4.1.8.1 1.2 0l11.8-3c.8-.2 1.3-.8 1.6-1.5l3.3-11.7c.1-.3.1-.7 0-1l-6 1.5zM20 13.2c-.1.1-.1.3-.2.4l-3.3 12c-.2.8 0 1.6.5 2.1l8.7 8.9c.2.2.7.5.7.5l1.6-5.7c-.3-.1-.7-.3-.9-.6l-4.4-4.5c-.6-.6-.8-1.4-.5-2.1l1.7-6.1c.1-.3.2-.6.4-.8L20 13.2zm19 7c0-.1 0 0 0 0-.1-.3-.3-.6-.5-.8L34.2 15c-.5-.6-1.3-.8-2.1-.6l-6 1.5c-.2 0-.3.1-.5.2-.1.1-.2.1-.3.2l-4.1-4.2c.3-.3.6-.5 1-.6l11.8-3c.8-.2 1.5 0 2.1.6l8.5 8.7c.2.2.4.5.5.8L39 20.2zM21 5.1L13.9 7c-.5.1-.8.6-.6 1.1.1.4.5.7.9.7h.2l7.1-1.9c.5-.1.8-.6.6-1.1-.1-.5-.6-.8-1.1-.7z" class="st2"/><path d="M40.5 38.7l-1.6-6.1H37l.9 3.3-23.2 6.2-7.5-28 23.2-6.2 1.2 4.5c.3-.2.7-.2 1.1-.2.3 0 .5 0 .8.1L32 6.6l-.6-2.4c-.3-1.3-1.1-2.3-2.3-3C28 .5 26.7.4 25.4.7L8 5.3c-1.3.3-2.3 1.2-3 2.3-.6 1.1-.8 2.4-.5 3.7l8.6 32.2.6 2.4c.3 1.3 1.1 2.3 2.3 3 .8.4 1.6.7 2.4.7.4 0 .9-.1 1.3-.2l13.7-3.5c-.1-.2-.1-.5-.2-.7-.2-.4-.4-.5-.7-.8l-13.2 3.3c-.8.2-1.6.1-2.3-.3-.7-.4-1.2-1.1-1.4-1.8l-.4-1.5 23.2-6.2 1.3-.2M6.3 10.8c-.4-1.6.5-3.3 2.2-3.7l17.3-4.6c.8-.2 1.6-.1 2.3.3.7.4 1.2 1.1 1.4 1.8l.4 1.5-23.2 6.2-.4-1.5z" class="st2"/><path d="M27.9 41.9l-1.6.4c-.5.1-.8.6-.6 1.1.1.4.5.7.9.7h.2l1.6-.4c.5-.1.8-.6.6-1.1-.1-.5-.6-.8-1.1-.7z" class="st2"/><path fill="none" stroke="#444" stroke-linecap="round" stroke-linejoin="round" stroke-miterlimit="10" stroke-width="2" d="M39.7 38.5c-.2-.8-.4-1.5-.5-2.1-.2-.6.2-1.3.8-1.5 1.2-.5 1.9-1.5 2.1-1.8 0-.1.1-.2.1-.2.3-1 2.2-8 2.8-10.8.6-2.6-.3-4.1-.5-4.5 0-.1-.1-.1-.1-.1-.6-.5-4.7-4.5-7.5-7.2-3-2.5-4.7-1.2-4.8-1.7l-1.2-4.3S30 .6 25.6 1.5C21 2.2 7.8 6 7.8 6s-3.3.9-2.7 4.3c.6 3.7 8.7 33.3 9.3 35.5l.2.6c.4.6 1.2 2.9 4 2.4 2.1-.4 9.5-2.4 14.4-3.8"/></svg>