<?xml version="1.0" encoding="utf-8"?>
<!-- Generator: Adobe Illustrator 26.5.0, SVG Export Plug-In . SVG Version: 6.00 Build 0)  -->
<svg version="1.1" id="Layer_1" xmlns="http://www.w3.org/2000/svg" xmlns:xlink="http://www.w3.org/1999/xlink" x="0px" y="0px"
	 viewBox="0 0 50 50" style="enable-background:new 0 0 50 50;" xml:space="preserve">
<style type="text/css">
	.st0{fill:#FF6B6B;}
	.st1{fill:#E56060;}
	.st2{fill:#444444;}
	.st3{fill:none;stroke:#444444;stroke-miterlimit:10;}
</style>
<polygon class="st0" points="33.57,2.96 39.08,10.92 37.66,21.34 19.41,27.96 13.83,15.18 15.85,6.63 23.57,2.07 "/>
<g>
	<polygon class="st1" points="37.03,21.19 19.41,27.96 23.44,35.46 13.44,36.37 1.91,48.43 6.3,48.63 39.14,36.83 28.59,35.46 	"/>
</g>
<path class="st2" d="M47.44,43.45l-8.16-7.94c-0.18-0.18-0.43-0.28-0.69-0.28h-8.22c0,0,0,0,0,0c2.79-5.02,6.61-11.87,7.19-12.92
	c1.16-2.08,2.49-4.88,2.49-8.06c0-7.48-6.09-13.57-13.57-13.57c-7.48,0-13.57,6.09-13.57,13.57c0,3.17,1.33,5.97,2.49,8.06
	c0.59,1.05,4.4,7.9,7.19,12.92c0,0,0,0,0,0h-8.59c-0.26,0-0.5,0.1-0.69,0.28L0.88,47.62C0.6,47.9,0.51,48.33,0.66,48.7
	c0.15,0.37,0.51,0.61,0.91,0.61h38.12c0.4,0,0.74-0.25,0.9-0.62c0-0.01,0.01-0.02,0.01-0.02c0.28-0.63-0.22-1.33-0.91-1.33H4.01
	c0,0,0,0,0,0L14.42,37.2c0,0,0,0,0,0h11.54c-2.62-4.71-8.11-14.57-8.83-15.85c-1.04-1.88-2.24-4.38-2.24-7.1
	c0-6.39,5.2-11.59,11.59-11.59c6.39,0,11.59,5.2,11.59,11.59c0,2.73-1.2,5.23-2.24,7.1c-0.72,1.28-6.21,11.15-8.83,15.85h11.17
	c0,0,0,0,0,0l7.05,6.86l0.62,0.6c0.43,0.41,1.15,0.43,1.52,0.12l0,0C47.63,44.62,47.87,43.89,47.44,43.45z"/>
<polyline class="st3" points="30.08,32.8 27.29,37.76 26.49,39.08 25.65,37.73 22.36,31.84 "/>
<g>
	<path class="st2" d="M29.41,12.44l-2.31-1.31c-0.42-0.26-0.89-0.26-1.37-0.11c-0.05,0-0.05,0.05-0.11,0.05l-2.31,1.31
		c-0.53,0.32-0.79,0.84-0.79,1.42v2.68c0,0.58,0.32,1.1,0.79,1.42l2.31,1.31c0.42,0.26,0.89,0.26,1.37,0.11
		c0.05,0,0.05-0.05,0.11-0.05l2.31-1.31c0.53-0.32,0.79-0.84,0.79-1.42v-2.68C30.19,13.29,29.88,12.76,29.41,12.44z"/>
	<g>
		<path class="st2" d="M31.35,12.81C31.35,12.87,31.3,12.81,31.35,12.81c0.11,0.16,0.11,0.37,0.11,0.58v3.89
			c0,0.47-0.26,0.95-0.68,1.16l-3.36,1.95c-0.11,0.05-0.21,0.11-0.32,0.11c-0.05,0-0.16,0.05-0.21,0.05v3.68
			c0.26,0,0.47-0.05,0.74-0.16l6.62-3.84c0.42-0.26,0.68-0.68,0.68-1.16v-7.62c0-0.21-0.05-0.42-0.16-0.58L31.35,12.81z"/>
		<path class="st2" d="M18.1,10.92c-0.05,0.11-0.05,0.21-0.05,0.32v7.78c0,0.47,0.26,0.95,0.68,1.21l6.73,3.89
			c0.21,0.11,0.47,0.16,0.47,0.16v-3.73c-0.21,0-0.47-0.05-0.63-0.21l-3.42-2c-0.42-0.26-0.68-0.68-0.68-1.21v-3.94
			c0-0.21,0.05-0.37,0.11-0.53L18.1,10.92L18.1,10.92z"/>
		<path class="st2" d="M30.72,11.92C30.72,11.87,30.77,11.97,30.72,11.92c-0.11-0.16-0.26-0.32-0.42-0.37l-3.36-1.95
			c-0.42-0.26-0.95-0.26-1.37,0l-3.36,1.95c-0.11,0.05-0.16,0.11-0.26,0.21c-0.05,0.05-0.11,0.11-0.16,0.16l-3.21-1.84
			c0.11-0.21,0.32-0.42,0.53-0.53l6.62-3.84c0.42-0.26,0.95-0.26,1.37,0l6.62,3.84c0.16,0.11,0.32,0.26,0.47,0.42L30.72,11.92z"/>
	</g>
</g>
<line class="st3" x1="10.53" y1="40.1" x2="18.12" y2="40.1"/>
<path class="st3" d="M21.01,36.83l-4.39,5.61c0,0-0.32,0.42,0,1.09s1.03,0.87,1.03,0.87h8.58"/>
<path class="st3" d="M26.49,47.34V42.5c0,0,0.03-0.99,0.31-1.57c0.28-0.58,1.07-0.58,1.07-0.58h5.17c0,0,0.82,0.11,1.17-0.42
	c0.35-0.53,0-0.99,0-0.99l-1.94-2.57"/>
<path class="st3" d="M37.12,47.79l-2.19-3.5c0,0-0.38-1.22,0.82-1.51h10.34"/>
</svg>
