<?xml version="1.0" encoding="utf-8"?>
<!-- Generator: Adobe Illustrator 26.5.0, SVG Export Plug-In . SVG Version: 6.00 Build 0)  -->
<svg version="1.1" id="Layer_1" xmlns="http://www.w3.org/2000/svg" xmlns:xlink="http://www.w3.org/1999/xlink" x="0px" y="0px"
	 viewBox="0 0 50 50" style="enable-background:new 0 0 50 50;" xml:space="preserve">
<style type="text/css">
	.st0{fill:#4ECDC4;}
	.st1{fill:#46B8B0;}
	.st2{fill:#444444;}
	.st3{fill:none;stroke:#444444;stroke-width:0.25;stroke-miterlimit:10;}
	.st4{fill:none;stroke:#444444;stroke-width:2.5;stroke-linecap:round;stroke-linejoin:round;stroke-miterlimit:10;}
	.st5{fill:none;stroke:#444444;stroke-linecap:round;stroke-miterlimit:10;}
</style>
<g>
	<polyline class="st0" points="7.5,25.6 8.2,14.8 12.7,6.8 23.6,1.8 34.2,3.5 40,7.9 41.5,13.2 	"/>
	<polygon class="st1" points="43.2,16.4 43.5,25.2 3.3,39.8 9.7,34.4 7.4,21.8 40.4,9.1 42.1,12.4 	"/>
	<g>
		<g>
			<path class="st2" d="M27.7,18.2l-1.6-0.9c-0.3-0.2-0.6-0.2-1-0.1c0,0,0,0-0.1,0l-1.6,0.9c-0.4,0.2-0.6,0.6-0.6,1V21
				c0,0.4,0.2,0.8,0.6,1l1.6,0.9c0.3,0.2,0.6,0.2,1,0.1c0,0,0,0,0.1,0l1.6-0.9c0.4-0.2,0.6-0.6,0.6-1v-1.9
				C28.3,18.8,28.1,18.4,27.7,18.2z"/>
			<g>
				<path class="st2" d="M29.1,18.4C29.1,18.5,29.1,18.4,29.1,18.4c0.1,0.1,0.1,0.3,0.1,0.4v2.7c0,0.3-0.2,0.7-0.5,0.8l-2.4,1.4
					c-0.1,0-0.1,0.1-0.2,0.1c0,0-0.1,0-0.1,0v2.6c0.2,0,0.3,0,0.5-0.1l4.7-2.7c0.3-0.2,0.5-0.5,0.5-0.8v-5.4c0-0.1,0-0.3-0.1-0.4
					L29.1,18.4z"/>
				<path class="st2" d="M19.8,17.1c0,0.1,0,0.1,0,0.2v5.5c0,0.3,0.2,0.7,0.5,0.9l4.7,2.7c0.1,0.1,0.3,0.1,0.3,0.1v-2.6
					c-0.1,0-0.3,0-0.4-0.1l-2.4-1.4c-0.3-0.2-0.5-0.5-0.5-0.9v-2.8c0-0.1,0-0.3,0.1-0.4L19.8,17.1L19.8,17.1z"/>
				<path class="st2" d="M28.7,17.8C28.7,17.8,28.7,17.8,28.7,17.8c-0.1-0.1-0.2-0.2-0.3-0.3L26,16.2c-0.3-0.2-0.7-0.2-1,0l-2.4,1.4
					c-0.1,0-0.1,0.1-0.2,0.1c0,0-0.1,0.1-0.1,0.1l-2.3-1.3c0.1-0.1,0.2-0.3,0.4-0.4l4.7-2.7c0.3-0.2,0.7-0.2,1,0l4.7,2.7
					c0.1,0.1,0.2,0.2,0.3,0.3L28.7,17.8z"/>
			</g>
		</g>
		<path class="st2" d="M37.5,27.3c1.4-0.8,2-2.8,1.2-4.3c-0.3-0.6-0.8-1.1-1.3-1.5c1.4-0.8,2-2.8,1.3-4.4c-0.5-1.1-1.6-1.8-2.7-1.8
			v-4.9c0-2-1.5-3.6-3.3-3.6h-14c-1.8,0-3.3,1.6-3.3,3.6v3.2c-0.6-0.1-1.2-0.1-1.6-0.1c-0.3,0-0.5,0.3-0.5,0.6c0,0-0.1,1.3-0.4,3.1
			c-0.1,0.4-0.4,1.8-2.2,6.1c-0.9,2.2-1.3,4.4-1.3,6.8v3c0,0.6-0.2,1.1-0.5,1.6l-0.1,0.2c0.2,0.5,0.4,1,0.5,1.5l0.6-0.9
			c0.5-0.7,0.7-1.5,0.7-2.3v-3c0-2.2,0.4-4.3,1.2-6.2c1.4-3.4,2.2-5.5,2.3-6.5c0.2-1.1,0.3-2,0.3-2.6c0.7,0,1.8,0.2,2.1,1.3
			c0.5,1.9,0.2,4.2,0,6l0,0.4c-0.4,3.8-0.6,4.9-0.6,5.1c-0.1,0.2-0.1,0.5,0.1,0.8c0,0,0,0.1,0.1,0.1c0,0,1.9,1.9,3.1,6.4
			C20,38,18.3,42,18.3,42c-0.1,0.3,0,0.7,0.3,0.9c0.1,0,0.2,0.1,0.3,0.1c0.2,0,0.4-0.1,0.6-0.4c0,0,0.1-0.2,0.2-0.4h11.3l-3.7,2.6
			c-1.5,1-3.2,1.5-5,1.3l-1.1-0.1c-0.2,0-0.3,0-0.5,0.1l-0.9,0.8c0.3,0.3,0.5,0.7,0.8,1l0.7-0.6l0.8,0.1c2,0.3,4.1-0.3,5.8-1.5
			l5.4-3.8c0,0,0,0,0,0c1.4-0.2,2.6-1.5,2.7-3.1l0.8-0.4c1.3-0.7,1.9-2.5,1.2-4c-0.2-0.5-0.6-1-1.1-1.3l0.5-0.3
			c0.7-0.4,1.2-1.1,1.5-1.9c0.3-0.8,0.2-1.7-0.2-2.5C38.4,28.1,38,27.6,37.5,27.3z M35.9,16.7c0.7,0,1.3,0.4,1.6,1.1
			c0.4,1,0.1,2.1-0.8,2.6l-0.8,0.5V16.7z M35.3,22.7c0.2-0.1,0.5-0.2,0.8-0.2c0.2,0,0.4,0,0.6,0.1c0.4,0.2,0.8,0.5,1,1
			c0.4,1,0.1,2.1-0.8,2.6v0l-1,0.6c-0.9,0.5-1.9,0.1-2.4-0.9c-0.4-1-0.1-2.1,0.8-2.6L35.3,22.7z M20,8.3h11.3v0.3
			c0,0.4-0.3,0.8-0.7,0.8h-9.9C20.3,9.3,20,9,20,8.5V8.3z M32.7,40.8H20c0.5-1.6,0.9-4.1,0.3-6.3c-1.1-3.8-2.6-5.9-3.2-6.7
			c0-0.1,0-0.2,0-0.3c0-0.3,0.1-0.8,0.2-1.4c0.1-0.9,0.2-2.1,0.4-3.5l0-0.4c0.2-2,0.5-4.4-0.1-6.5c-0.2-0.8-0.6-1.3-1.1-1.6v-3.7
			c0-1.2,0.9-2.2,2-2.2h0.1v0.3c0,1.2,0.9,2.1,1.9,2.1h9.9c1.1,0,1.9-1,1.9-2.1V8.3h0.1c1.1,0,2,1,2,2.2v11.1l-1,0.6
			c-1.5,0.8-2.1,2.8-1.3,4.4c0.3,0.6,0.7,1,1.2,1.3c-1.4,0.8-2,2.8-1.2,4.3c0.3,0.7,0.8,1.2,1.4,1.5l-0.3,0.2
			c-1.3,0.7-1.9,2.5-1.2,4c0.5,1,1.4,1.6,2.4,1.6c0,0,0,0,0,0C34.3,40.2,33.5,40.8,32.7,40.8z M36.8,35.2c0.4,0.8,0.1,1.8-0.7,2.1
			l-1,0.5c-0.7,0.4-1.6,0.1-2-0.7c-0.4-0.8-0.1-1.8,0.7-2.1l1-0.5c0.2-0.1,0.4-0.2,0.7-0.2c0.2,0,0.3,0,0.5,0.1
			C36.3,34.6,36.6,34.9,36.8,35.2z M37.7,30.8c-0.1,0.5-0.5,0.9-0.9,1.1l-1,0.6c-0.4,0.2-0.9,0.3-1.3,0.1c-0.4-0.2-0.8-0.5-1-1
			c-0.4-1-0.1-2.1,0.8-2.6l1-0.6c0.3-0.1,0.5-0.2,0.8-0.2c0.6,0,1.3,0.4,1.6,1.1C37.8,29.8,37.8,30.3,37.7,30.8z"/>
		<path class="st2" d="M28,37.9h-4.6c-0.3,0-0.6,0.3-0.6,0.7c0,0.4,0.3,0.7,0.6,0.7H28c0.3,0,0.6-0.3,0.6-0.7
			C28.6,38.2,28.3,37.9,28,37.9z"/>
		<path class="st3" d="M25.8,11c-4.2,0-7.8,2.9-8.8,6.8c0.2,0.6,0.2,1.3,0.1,1.9c0,0.2,0.1,0.5,0.1,0.7c0,0.1,0,0.3,0,0.4
			c0,0.3-0.1,0.5-0.1,0.8c0.1,0.4,0.2,0.9,0.1,1.3c1.2,3.6,4.6,6.2,8.6,6.2c2.8,0,5.2-1.2,6.9-3.2c-0.4-1.4,0.2-3.1,1.8-3.4
			c0.2-0.8,0.4-1.6,0.4-2.5C34.9,15.1,30.8,11,25.8,11z"/>
		<path class="st3" d="M36.8,27.8c5.7-7.7,1.8-19.2-7.5-21.8c-9.7-2.7-19.1,5.9-17.5,15.7"/>
		<path class="st3" d="M18.9,31.8c4.3,2.3,9.5,2.2,13.7-0.2"/>
		<path class="st4" d="M18.9,48.2L18.9,48.2L18.9,48.2l1.8-1.6c0,0,3.2,1.1,6.6-1.2c3.4-2.3,5.4-3,5.4-3s2.5,0.1,3.5-3.3
			c0,0,4.3-2.1,0.9-5.7c4-3,6.7-7.9,6.7-13.3c0-10-8.1-18.2-18.2-18.2S7.5,10,7.5,20.1c0,2.7,0.7,5.2,1.8,7.5
			c-0.3,4.4,0.5,6.8,0.5,6.8l-2.3,2.6l-0.3-0.6l-4.8,5l7.2,6.9"/>
	</g>
	<line class="st5" x1="6.3" y1="36.4" x2="15.3" y2="45.3"/>
</g>
</svg>
