<?xml version="1.0" encoding="utf-8"?>
<!-- Generator: Adobe Illustrator 26.5.0, SVG Export Plug-In . SVG Version: 6.00 Build 0)  -->
<svg version="1.1" id="Layer_1" xmlns="http://www.w3.org/2000/svg" xmlns:xlink="http://www.w3.org/1999/xlink" x="0px" y="0px"
	 viewBox="0 0 50 50" style="enable-background:new 0 0 50 50;" xml:space="preserve">
<style type="text/css">
	.st0{fill:#E56060;}
	.st1{fill:#FF6B6B;}
	.st2{fill:#444444;}
	.st3{fill:none;stroke:#444444;stroke-linecap:round;stroke-linejoin:round;stroke-miterlimit:10;}
	.st4{fill:none;stroke:#444444;stroke-width:0.75;stroke-linecap:round;stroke-linejoin:round;stroke-miterlimit:10;}
	.st5{fill:none;stroke:#444444;stroke-width:2.5;stroke-linecap:round;stroke-linejoin:round;stroke-miterlimit:10;}
	.st6{fill:#A475EF;}
	.st7{fill:#BF94F7;}
	.st8{fill:none;stroke:#444444;stroke-width:2;stroke-linecap:round;stroke-linejoin:round;stroke-miterlimit:10;}
</style>
<g>
	<g>
		<polygon class="st0" points="126.4,586.6 128.1,590.1 128.1,595 114.1,600.1 114,599.5 112.9,599.8 112.8,602.3 113.9,602.8 
			113.9,607.5 111.2,608.7 109,607.1 108.9,602 101.1,604.8 101.1,602.8 96.2,602.4 96.5,592.7 98,591.6 98.2,587 114.9,581 
			115.7,584.3 119.9,582.9 		"/>
		<polygon class="st1" points="114.6,574.3 114.7,575.5 114.7,583.6 98.5,589.4 106,577.6 109.7,573.1 112.7,570.2 114.6,573.5 		
			"/>
	</g>
	<g>
		<g>
			<path class="st2" d="M122.7,605.9l-0.1-2.9l-0.7,0c0.1,0,0.3,0,0.4-0.1c0.2-0.1,0.3-0.2,0.4-0.4c0.1-0.2,0.2-0.4,0.2-0.6v-1.8
				c0-0.1,0-0.3-0.1-0.4c-0.1-0.2-0.2-0.3-0.4-0.4c-0.2-0.1-0.4-0.2-0.6-0.2h-0.4v-3c0,0,0.1-0.1,0.1-0.1c0.1-0.1,0.2-0.1,0.4-0.2
				c0.2-0.1,0.5-0.2,0.7-0.2c0.1,0,0.2,0,0.3-0.1v0.3c0,0.1,0,0.3,0.1,0.4c0.1,0.2,0.2,0.3,0.4,0.4c0.2,0.1,0.4,0.2,0.6,0.2h1.9
				c0.1,0,0.3,0,0.4-0.1c0.2-0.1,0.3-0.2,0.4-0.4c0.1-0.2,0.2-0.3,0.2-0.6v-8.5c0-0.1,0-0.3-0.1-0.4c-0.1-0.2-0.2-0.3-0.4-0.4l0,0
				l0,0c-0.2-0.1-0.4-0.2-0.6-0.2H124c-0.1,0-0.3,0-0.4,0.1c-0.2,0.1-0.3,0.2-0.4,0.4c-0.1,0.2-0.2,0.3-0.2,0.6v0.6h-3
				c-0.9,0-1.7,0.2-2.5,0.5c-1.2,0.5-2.1,1.3-2.8,2.2c-0.7,1-1.1,2.2-1.1,3.5v5h-0.4c-0.1,0-0.3,0-0.4,0.1c-0.2,0.1-0.3,0.2-0.4,0.4
				c-0.1,0.2-0.2,0.3-0.2,0.6v1.8c0,0.1,0,0.3,0.1,0.4c0.1,0.2,0.2,0.3,0.4,0.4c0.2,0.1,0.4,0.2,0.6,0.2h0.4l0.2,3
				c0,0.3-0.1,0.6-0.2,0.8c-0.2,0.4-0.4,0.7-0.8,0.9c-0.3,0.2-0.8,0.4-1.2,0.4l0,0c0,0,0,0,0,0c-0.3,0-0.6-0.1-0.9-0.2
				c-0.4-0.2-0.7-0.4-1-0.8c-0.2-0.3-0.4-0.7-0.4-1.2v0l0-7.2c0-0.8-0.2-1.5-0.4-2.1c-0.4-1-1.2-1.8-2.1-2.4c-0.9-0.6-2-0.9-3.2-0.9
				l0,0l-3.5,0.3v-0.4c0-0.1,0-0.2-0.1-0.4c-0.1-0.2-0.2-0.3-0.3-0.4c-0.1-0.1-0.3-0.2-0.5-0.2h-1.9c-0.1,0-0.3,0-0.4,0.1
				c-0.2,0.1-0.3,0.2-0.4,0.3c-0.1,0.1-0.2,0.3-0.2,0.5v8c0,0.1,0,0.2,0.1,0.4c0.1,0.2,0.2,0.3,0.3,0.4c0.1,0.1,0.3,0.2,0.5,0.2h1.9
				c0.1,0,0.3,0,0.4-0.1c0.2-0.1,0.3-0.2,0.4-0.3c0.1-0.1,0.1-0.2,0.1-0.4c0.1,0,0.2,0,0.3,0.1c0.2,0,0.3,0.1,0.5,0.2
				c0.1,0,0.2,0.1,0.3,0.1c0.1,0,0.1,0.1,0.2,0.1c0,0,0.1,0,0.1,0.1c0,0,0,0,0,0v4.1c0,1.3,0.3,2.6,0.8,3.8c0.5,1.2,1.4,3.3,2.3,4.1
				c0.9,0.9,2,1.6,3.2,2.1c1.2,0.5,2.6,0.8,3.9,0.8c1.3,0,2.7-0.3,3.9-0.8c1.2-0.5,2.3-1.2,3.2-2.1c0.2-0.2,0.4-0.5,0.6-0.7
				c0.2-0.2,0.1-0.5-0.1-0.7c-0.2-0.2-0.5-0.1-0.7,0.1c-0.2,0.2-0.4,0.4-0.6,0.6c-0.8,0.8-1.8,1.4-2.9,1.9c-1.1,0.5-2.3,0.7-3.5,0.7
				c-1.2,0-2.4-0.2-3.5-0.7c-1.1-0.4-2-1.1-2.9-1.9l0,0c-0.8-0.8-1.7-2.8-2.1-3.8c-0.5-1.1-0.7-2.2-0.7-3.4v-4.1c0-0.1,0-0.2,0-0.3
				c0-0.1-0.1-0.2-0.1-0.2c-0.1-0.1-0.2-0.2-0.3-0.3c-0.1-0.1-0.2-0.1-0.3-0.2c-0.2-0.1-0.4-0.2-0.6-0.3c-0.3-0.1-0.6-0.2-0.9-0.3
				c-0.1,0-0.2,0-0.3-0.1v-5.7l3.6-0.3c0.6,0,1.2,0.1,1.8,0.4c0.8,0.3,1.6,0.9,2.1,1.6c0.5,0.7,0.8,1.6,0.8,2.5l0,7.2l0,0
				c0,0.4,0.1,0.8,0.3,1.2c0.2,0.6,0.7,1,1.2,1.4c0.5,0.3,1.1,0.5,1.8,0.5c0,0,0,0,0,0l0,0c0.4,0,0.9-0.1,1.2-0.3
				c0.6-0.2,1.1-0.6,1.4-1.1c0.3-0.5,0.5-1.1,0.5-1.7v0l-0.2-2.9h6.5l0.5,2.9 M97.3,593.6h0.9h0.9v7.2h-0.9h-0.9v-7.5l0,0V593.6z
				 M124,587.8h1.9v7.9H124v-8.2l0,0V587.8z M122.2,594.8c-0.2,0.1-0.4,0.1-0.6,0.2c-0.1,0.1-0.3,0.1-0.4,0.2
				c-0.1,0-0.2,0.1-0.3,0.2c-0.1,0-0.1,0.1-0.2,0.1c-0.1,0.1-0.2,0.2-0.2,0.3c0,0.1-0.1,0.1-0.1,0.2c0,0.1,0,0.1,0,0.2v3.5
				c0,0.1,0.1,0.3,0.2,0.3c0.1,0.1,0.2,0.1,0.4,0.1h0.9v1.8h-8.7v-1.8h0.9c0.1,0,0.3-0.1,0.4-0.1c0.1-0.1,0.1-0.2,0.1-0.3v-5.5
				c0-0.7,0.1-1.4,0.4-2c0.4-0.9,1.1-1.7,1.9-2.3c0.9-0.6,1.9-0.9,3-0.9h2.9v5.7C122.7,594.7,122.5,594.7,122.2,594.8L122.2,594.8
				L122.2,594.8z"/>
			<path class="st3" d="M101.6,593.7c0,0,2.7-2.8,3.5-3.2c0,0-0.4,3,0.3,3.6"/>
			<path class="st3" d="M107.9,595.9c0,0,4-0.9,1.3-4.9c-1.4-2.1-4.2-2.9-0.8-8.3c0,0-0.5,3.1,4.9,5.7c0.8,0.4,2.1,1.1,2.7,1.4"/>
			<path class="st4" d="M98.2,592.9c0,0-1.2-5.2,7.3-13.9c8.2-8.4,7.2-10,7.2-10s2.5,0.6,1.9,8.4c-0.2,2.9-1.9,4.4,0.1,6.6
				c2,2.2,6-0.3,5.3-1.9c0,0,1.5,1,4.3,5.3"/>
		</g>
		<g>
			<path class="st5" d="M121.8,609.2c0-0.1,0-0.2,0.1-0.2C121.9,609,121.8,609.1,121.8,609.2L121.8,609.2z"/>
			<path class="st5" d="M122.2,607.5c-0.1,0.5-0.2,1-0.3,1.5C122.1,608.1,122.2,607.5,122.2,607.5z"/>
			<path class="st5" d="M122.2,607.5c0-0.3,0.1-0.7,0.1-1v-3.1h0.3c0.1,0,0.3,0,0.4-0.1c0.2-0.1,0.3-0.2,0.5-0.4
				c0.1-0.2,0.2-0.4,0.2-0.6v-1.9c0-0.1,0-1,0-1.1c-0.1-0.2-0.2-0.3-0.4-0.4c-0.2-0.1-0.4-0.2-0.6-0.2h-0.5l-0.1-2.4
				c0,0,0.1-0.1,0.1-0.1c0.1-0.1,0.2-0.1,0.4-0.2c0.2-0.1-0.5,0.3-0.2,0.2c0,0,0.2,0,0.3-0.1l0-0.2c0,0.1,0,0.3,0.1,0.4
				c0.1,0.2,0.2,0.3,0.4,0.4c0.2,0.1,0.4,0.2,0.6,0.2l2.9,0c0.1,0,0.3,0,0.4-0.1c0.2-0.1,0.3-0.2,0.5-0.4c0.1-0.2,0.2-0.4,0.2-0.6
				v-8.7c0-0.1,0-0.3-0.1-0.4c-0.1-0.2-0.2-0.3-0.4-0.4c-0.2-0.1-0.4-0.2-0.6-0.2h-1.9c-0.1,0-0.3,0-0.4,0.1c0,0,0,0,0,0
				c-1.6-2.1-3-3.4-4-4.1c-0.4-0.3-0.9-0.1-1,0.4c-0.4,1.5-2.6,3-4.3,1.2c-2-2.2-0.3-3.8-0.1-6.8c0.4-4.4-0.8-6.7-1.9-7.8
				c-0.4-0.4-1.1-0.1-1.1,0.5c0.1,1.5-0.9,4.3-6.3,9c-7.6,6.6-7.8,11.8-7.6,13.6h-0.9c-0.1,0-0.3,0-0.4,0.1
				c-0.2,0.1-0.3,0.2-0.4,0.3c-0.1,0.1-0.2,0.3-0.2,0.5v8.3c0,0.1,0,0.3,0.1,0.4c0.1,0.2,0.2,0.3,0.3,0.4c0.2,0.1,0.3,0.2,0.5,0.2h2
				c0.1,0,0.3,0,0.4-0.1c0.2-0.1,0-0.1,0.1-0.2c0.1-0.1,0.5-0.2,0.5-0.3c0.3,0.1-0.1,0,0,0c0.2,0,0.3,0.1,0.5,0.2
				c0.1,0,0.2,0.1,0.3,0.1c0.1,0,0.1,0.1,0.2,0.1c0,0,0.1,0.1,0.1,0.1c0,0,0,0,0,0l0.3,4.1c0,1.3,0.3,2.7,0.8,3.9
				c0.5,1.2,1.3,2.3,2.2,3.2c0.9,0.9,2,1.6,3.3,2.1c1.3,0.5,2.6,0.8,4,0.8c1.4,0,2.7-0.3,4-0.8c1-0.4,1.9-0.9,2.7-1.6
				C118.6,614,121.9,611.3,122.2,607.5z"/>
		</g>
	</g>
</g>
<g>
	<g>
		<g>
			<polygon class="st6" points="45.1,17.6 45.1,22 44.1,27.7 12.8,39.1 12.3,37.7 11.7,35.7 10.3,30.2 7.6,21.2 37.7,10.3 
				38.6,11.7 40.7,13 			"/>
			<polygon class="st7" points="29.9,3.2 31.8,9 38.6,10.5 7.6,21.6 5.8,12.3 5.2,8.4 6.9,7 26.2,1.3 			"/>
		</g>
		<g>
			<g>
				<path class="st2" d="M36.7,20.4l-3-3c-0.5-0.5-1.3-0.8-2-0.8c-0.1,0-0.1,0-0.2,0l-4.1,1.1c-0.9,0.2-1.6,0.9-1.8,1.8l-1.1,4.1
					c-0.2,0.9,0,1.8,0.6,2.5l3,3c0.5,0.5,1.3,0.8,2,0.8c0.1,0,0.1,0,0.2,0l4.1-1.1c0.9-0.2,1.6-0.9,1.8-1.8l1.1-4.1
					C37.6,22,37.4,21.1,36.7,20.4z"/>
				<g>
					<path class="st2" d="M39.6,21.8C39.6,21.9,39.5,21.7,39.6,21.8c0,0.3,0,0.6-0.1,0.9l-1.7,6c-0.2,0.7-0.8,1.3-1.6,1.5l-6,1.5
						c-0.2,0-0.3,0.1-0.5,0.1c-0.1,0-0.2,0-0.4,0l-1.6,5.7c0.4,0.1,0.8,0.1,1.2,0l11.8-3c0.8-0.2,1.3-0.8,1.6-1.5l3.3-11.7
						c0.1-0.3,0.1-0.7,0-1L39.6,21.8z"/>
					<path class="st2" d="M20,13.2c-0.1,0.1-0.1,0.3-0.2,0.4l-3.3,12c-0.2,0.8,0,1.6,0.5,2.1l8.7,8.9c0.2,0.2,0.7,0.5,0.7,0.5
						l1.6-5.7c-0.3-0.1-0.7-0.3-0.9-0.6l-4.4-4.5c-0.6-0.6-0.8-1.4-0.5-2.1l1.7-6.1c0.1-0.3,0.2-0.6,0.4-0.8L20,13.2L20,13.2z"/>
					<path class="st2" d="M39,20.2C39,20.1,39,20.2,39,20.2c-0.1-0.3-0.3-0.6-0.5-0.8l-4.3-4.4c-0.5-0.6-1.3-0.8-2.1-0.6l-6,1.5
						c-0.2,0-0.3,0.1-0.5,0.2c-0.1,0.1-0.2,0.1-0.3,0.2l-4.1-4.2c0.3-0.3,0.6-0.5,1-0.6l11.8-3c0.8-0.2,1.5,0,2.1,0.6l8.5,8.7
						c0.2,0.2,0.4,0.5,0.5,0.8L39,20.2z"/>
				</g>
			</g>
			<path class="st2" d="M21,5.1L13.9,7c-0.5,0.1-0.8,0.6-0.6,1.1c0.1,0.4,0.5,0.7,0.9,0.7c0.1,0,0.2,0,0.2,0l7.1-1.9
				c0.5-0.1,0.8-0.6,0.6-1.1C22,5.3,21.5,5,21,5.1z"/>
			<path class="st2" d="M40.5,38.7l-1.6-6.1c-0.1,0-0.1,0-0.2,0c-0.6,0-1.2,0-1.7,0l0.9,3.3l-23.2,6.2L7.2,14.1l23.2-6.2l1.2,4.5
				c0.3-0.2,0.7-0.2,1.1-0.2c0.3,0,0.5,0,0.8,0.1l-1.5-5.7v0c0,0,0,0,0,0l-0.6-2.4c-0.3-1.3-1.1-2.3-2.3-3c-1.1-0.7-2.4-0.8-3.7-0.5
				L8,5.3C6.7,5.6,5.7,6.5,5,7.6C4.4,8.7,4.2,10,4.5,11.3l8.6,32.2v0l0,0l0.6,2.4c0.3,1.3,1.1,2.3,2.3,3c0.8,0.4,1.6,0.7,2.4,0.7
				c0.4,0,0.9-0.1,1.3-0.2l13.7-3.5c-0.1-0.2-0.1-0.5-0.2-0.7c-0.2-0.4-0.4-0.5-0.7-0.8l-13.2,3.3c-0.8,0.2-1.6,0.1-2.3-0.3
				c-0.7-0.4-1.2-1.1-1.4-1.8l-0.4-1.5l23.2-6.2l1.3-0.2 M6.3,10.8C5.9,9.2,6.8,7.5,8.5,7.1l17.3-4.6c0.8-0.2,1.6-0.1,2.3,0.3
				c0.7,0.4,1.2,1.1,1.4,1.8l0.4,1.5L6.7,12.3L6.3,10.8z"/>
			<path class="st2" d="M27.9,41.9l-1.6,0.4c-0.5,0.1-0.8,0.6-0.6,1.1c0.1,0.4,0.5,0.7,0.9,0.7c0.1,0,0.2,0,0.2,0l1.6-0.4
				c0.5-0.1,0.8-0.6,0.6-1.1C28.9,42.1,28.4,41.8,27.9,41.9z"/>
		</g>
	</g>
	<path class="st8" d="M39.7,38.5c-0.2-0.8-0.4-1.5-0.5-2.1c-0.2-0.6,0.2-1.3,0.8-1.5c1.2-0.5,1.9-1.5,2.1-1.8c0-0.1,0.1-0.2,0.1-0.2
		c0.3-1,2.2-8,2.8-10.8c0.6-2.6-0.3-4.1-0.5-4.5c0-0.1-0.1-0.1-0.1-0.1c-0.6-0.5-4.7-4.5-7.5-7.2c-3-2.5-4.7-1.2-4.8-1.7l-1.2-4.3
		c0,0-0.9-3.7-5.3-2.8C21,2.2,7.8,6,7.8,6s-3.3,0.9-2.7,4.3c0.6,3.7,8.7,33.3,9.3,35.5l0.2,0.6c0.4,0.6,1.2,2.9,4,2.4
		c2.1-0.4,9.5-2.4,14.4-3.8"/>
</g>
</svg>
