<?xml version="1.0" encoding="utf-8"?>
<!-- Generator: Adobe Illustrator 27.3.1, SVG Export Plug-In . SVG Version: 6.00 Build 0)  -->
<svg version="1.1" id="Camada_3" xmlns="http://www.w3.org/2000/svg" xmlns:xlink="http://www.w3.org/1999/xlink" x="0px" y="0px"
	 viewBox="0 0 50 50" style="enable-background:new 0 0 50 50;" xml:space="preserve">
<style type="text/css">
	.st0{fill:#59C2E2;}
	.st1{fill:#36BAD7;}
	.st2{fill:none;stroke:#454444;stroke-width:2.5;stroke-linecap:round;stroke-linejoin:round;stroke-miterlimit:10;}
	.st3{fill:#444444;}
	.st4{fill:none;stroke:#444444;stroke-linecap:round;stroke-linejoin:round;stroke-miterlimit:10;}
	.st5{fill:none;stroke:#444444;stroke-width:0.25;stroke-linecap:round;stroke-linejoin:round;stroke-miterlimit:10;}
</style>
<g>
	<polygon class="st0" points="48,3.2 2.3,3.2 2.3,21.7 48,5.4 	"/>
	<polygon class="st1" points="2.3,21.7 2.3,46.3 48,30.1 48,5.4 	"/>
</g>
<g>
	<g>
		<path class="st2" d="M25.1,48H5.7c-1.9,0-3.4-1.6-3.4-3.5V5.5c0-2,1.5-3.5,3.4-3.5h39c1.9,0,3.4,1.6,3.4,3.5v25.9"/>
		<path class="st2" d="M2.3,15.5"/>
		<path class="st2" d="M48.1,15.5"/>
	</g>
</g>
<g>
	<path class="st3" d="M28.3,13.2l-2.7-1.5c-0.5-0.3-1-0.3-1.6-0.1c-0.1,0-0.1,0.1-0.1,0.1l-2.7,1.5c-0.6,0.4-0.9,1-0.9,1.6v3.1
		c0,0.7,0.4,1.3,0.9,1.6l2.7,1.5c0.5,0.3,1,0.3,1.6,0.1c0.1,0,0.1-0.1,0.1-0.1l2.7-1.5c0.6-0.4,0.9-1,0.9-1.6v-3.1
		C29.2,14.1,28.8,13.5,28.3,13.2z"/>
	<g>
		<path class="st3" d="M30.5,13.6C30.5,13.7,30.4,13.6,30.5,13.6c0.1,0.2,0.1,0.4,0.1,0.7v4.5c0,0.5-0.3,1.1-0.8,1.3L26,22.3
			c-0.1,0.1-0.2,0.1-0.4,0.1c-0.1,0-0.2,0.1-0.2,0.1v4.2c0.3,0,0.5-0.1,0.8-0.2l7.6-4.4c0.5-0.3,0.8-0.8,0.8-1.3V12
			c0-0.2-0.1-0.5-0.2-0.7L30.5,13.6z"/>
		<path class="st3" d="M15.2,11.4c-0.1,0.1-0.1,0.2-0.1,0.4v9c0,0.5,0.3,1.1,0.8,1.4l7.8,4.5c0.2,0.1,0.7,0.2,0.7,0.2v-4.3
			c-0.2,0-0.7-0.1-0.9-0.2L19.6,20c-0.5-0.3-0.8-0.8-0.8-1.4V14c0-0.2,0.1-0.4,0.1-0.6L15.2,11.4L15.2,11.4z"/>
		<path class="st3" d="M29.8,12.6C29.8,12.5,29.8,12.6,29.8,12.6c-0.1-0.2-0.3-0.4-0.5-0.4l-3.9-2.2c-0.5-0.3-1.1-0.3-1.6,0L20,12.1
			c-0.1,0.1-0.2,0.1-0.3,0.2c-0.1,0.1-0.1,0.1-0.2,0.2l-3.7-2.1c0.1-0.2,0.4-0.5,0.6-0.6L24,5.4c0.5-0.3,1.1-0.3,1.6,0l7.6,4.4
			c0.2,0.1,0.4,0.3,0.5,0.5L29.8,12.6z"/>
	</g>
</g>
<g>
	<polygon class="st4" points="39.4,40.4 39.4,43.8 32.7,43.8 32.7,37 39.4,37 	"/>
	<path class="st4" d="M14,36.5c2.1,0,3.8,1.7,3.8,3.8c0,2.1-1.7,3.8-3.8,3.8c-2.1,0-3.8-1.7-3.8-3.8C10.2,38.3,11.9,36.5,14,36.5z"
		/>
</g>
<polygon class="st4" points="39.4,43.8 32.7,43.8 32.7,37 39.4,37 39.4,40.4 "/>
<polygon class="st4" points="30.4,33.4 24.9,36.7 19.3,33.4 24.9,30.1 "/>
<path class="st4" d="M14,36.5c2.1,0,3.8,1.7,3.8,3.8c0,2.1-1.7,3.8-3.8,3.8c-2.1,0-3.8-1.7-3.8-3.8C10.2,38.3,11.9,36.5,14,36.5z"/>
<polygon class="st4" points="44.2,29.2 39.1,29.2 39.1,21.6 41.6,21.6 44.2,21.6 "/>
<line class="st4" x1="39.5" y1="40.4" x2="39.4" y2="40.4"/>
<g>
	<polyline class="st5" points="30.4,33.4 35.8,33.4 35.8,36.9 	"/>
	<polyline class="st5" points="19.3,33.4 14,33.4 14,36.5 14,36.7 	"/>
	<line class="st5" x1="32.4" y1="40.4" x2="17.8" y2="40.4"/>
	<polyline class="st5" points="24.9,28.1 24.9,30.1 24.9,30.1 	"/>
	<polyline class="st5" points="33.8,16 41.6,16 41.6,21.6 	"/>
	<polyline class="st5" points="41.6,29.2 41.6,40.4 39.4,40.4 	"/>
	<polyline class="st5" points="8.7,21.9 8.7,16.3 16.5,16.3 	"/>
	<polyline class="st5" points="10.2,40.7 10.2,40.7 8.7,40.7 8.7,29.8 	"/>
</g>
<polygon class="st4" points="6.2,29.5 11.3,29.5 11.3,21.9 8.7,21.9 6.2,21.9 "/>
</svg>
