<?xml version="1.0" encoding="utf-8"?>
<!-- Generator: Adobe Illustrator 26.5.0, SVG Export Plug-In . SVG Version: 6.00 Build 0)  -->
<svg version="1.1" id="Layer_1" xmlns="http://www.w3.org/2000/svg" xmlns:xlink="http://www.w3.org/1999/xlink" x="0px" y="0px"
	 viewBox="0 0 50 50" style="enable-background:new 0 0 50 50;" xml:space="preserve">
<style type="text/css">
	.st0{fill:#E589EF;}
	.st1{fill:#F799FF;}
	.st2{fill:#444444;}
	.st3{fill:none;stroke:#444444;stroke-linejoin:round;stroke-miterlimit:10;}
	.st4{fill:none;stroke:#444444;stroke-linecap:round;stroke-linejoin:round;stroke-miterlimit:10;}
</style>
<g>
	<g>
		<g>
			<polygon class="st0" points="39.93,12.04 37.67,12.85 36.03,13.47 34.09,14.19 27.43,16.54 25.9,17.15 24.16,17.77 18.42,19.92 
				17.91,20.02 16.07,20.74 15.15,21.05 8.18,23.61 6.95,24.02 5.11,24.73 4.39,24.94 4.19,25.04 4.19,25.65 4.93,37.21 6.34,38.96 
				7.98,38.35 10.23,37.53 10.74,37.33 11.77,36.92 20.37,33.85 22.01,33.23 26.72,31.49 32.66,29.34 33.99,28.83 34.4,28.62 
				40.95,26.27 42.18,25.86 44.02,25.14 44.02,14.29 40.54,12.34 			"/>
		</g>
		<g>
			<path class="st1" d="M40.06,12.04C34.94,8.86,29.72,5.69,24.5,2.61c-0.51,0.51-1.13,1.02-1.64,1.64L5.25,14.29v10.34l-0.72,0.31
				l-0.2,0.1v0.51l0.2-0.1l0.72-0.2l1.74-0.61l1.33-0.51l6.96-2.56l1.23-0.51l0,0l1.02-0.41l5.73-2.15l3.17-1.13l1.64-0.61
				l7.47-2.76l1.13-0.41l1.64-0.61l2.25-0.82L40.06,12.04z"/>
		</g>
		<path class="st2" d="M45.25,12.25l-18.6-10.6l-0.4-0.2c-0.4-0.3-0.9-0.4-1.3-0.4c-0.4,0-0.9,0.1-1.2,0.3l-1.8,1l-17.2,10
			c-0.8,0.4-1.2,1.3-1.2,2.2v21.9c0,0.9,0.5,1.7,1.2,2.2l2.7,1.6l16.3,9.4c0.4,0.2,0.8,0.3,1.2,0.3c0.4,0,0.9-0.1,1.3-0.3l19-10.9
			c0.8-0.4,1.2-1.3,1.2-2.2v-22.1C46.45,13.55,45.95,12.75,45.25,12.25z M43.95,36.45l-19,10.9l-16.2-9.4l-2.8-1.6v-21.9l17.2-9.9
			l1.8-1l0.4,0.2l14.6,8.5l0.6,0.3l3.4,2V36.45z"/>
	</g>
	<polygon class="st3" points="24.95,13.29 35.99,19.27 35.99,31.87 24.85,38.17 13.91,32.11 13.91,19.14 	"/>
	<polygon class="st3" points="25,16.88 32.86,21.13 32.86,30.1 24.93,34.59 17.14,30.27 17.14,21.04 	"/>
	<line class="st3" x1="4.19" y1="13.37" x2="17.14" y2="21.04"/>
	<line class="st3" x1="45.61" y1="13.6" x2="32.75" y2="21.07"/>
	<line class="st4" x1="24.71" y1="49.06" x2="24.71" y2="34.59"/>
</g>
</svg>
