<?xml version="1.0" encoding="utf-8"?>
<!-- Generator: Adobe Illustrator 26.5.0, SVG Export Plug-In . SVG Version: 6.00 Build 0)  -->
<svg version="1.1" id="Camada_1" xmlns="http://www.w3.org/2000/svg" xmlns:xlink="http://www.w3.org/1999/xlink" x="0px" y="0px"
	 viewBox="0 0 50 50" style="enable-background:new 0 0 50 50;" xml:space="preserve">
<style type="text/css">
	.st0{fill:#FDCF72;}
	.st1{fill:#FCC34F;}
	.st2{fill:#444444;}
	.st3{fill:none;stroke:#444444;stroke-width:0.25;stroke-miterlimit:10;}
	.st4{fill:none;stroke:#444444;stroke-width:2.5;stroke-linecap:round;stroke-linejoin:round;stroke-miterlimit:10;}
	.st5{fill:none;stroke:#444444;stroke-linecap:round;stroke-miterlimit:10;}
</style>
<g>
	<polyline class="st0" points="9.35,25.58 10.05,14.81 14.61,6.78 25.5,1.8 36.11,3.54 41.86,7.87 43.38,13.17 	"/>
	<polygon class="st1" points="45.09,16.35 45.38,25.2 5.21,39.8 11.6,34.36 9.26,21.77 42.26,9.09 43.95,12.37 	"/>
	<g>
		<g>
			<path class="st2" d="M29.6,18.16l-1.63-0.93c-0.3-0.19-0.63-0.19-0.96-0.07c-0.04,0-0.04,0.04-0.07,0.04l-1.63,0.93
				c-0.37,0.22-0.56,0.59-0.56,1v1.89c0,0.41,0.22,0.78,0.56,1l1.63,0.93c0.3,0.19,0.63,0.19,0.96,0.07c0.04,0,0.04-0.04,0.07-0.04
				l1.63-0.93c0.37-0.22,0.56-0.59,0.56-1v-1.89C30.16,18.76,29.94,18.39,29.6,18.16z"/>
			<g>
				<path class="st2" d="M30.97,18.42C30.97,18.46,30.94,18.42,30.97,18.42c0.07,0.11,0.07,0.26,0.07,0.41v2.74
					c0,0.33-0.19,0.67-0.48,0.82l-2.37,1.37c-0.07,0.04-0.15,0.07-0.22,0.07c-0.04,0-0.11,0.04-0.15,0.04v2.59
					c0.19,0,0.33-0.04,0.52-0.11l4.67-2.7c0.3-0.19,0.48-0.48,0.48-0.82v-5.37c0-0.15-0.04-0.3-0.11-0.41L30.97,18.42z"/>
				<path class="st2" d="M21.64,17.09c-0.04,0.07-0.04,0.15-0.04,0.22v5.48c0,0.33,0.19,0.67,0.48,0.85l4.74,2.74
					c0.15,0.07,0.33,0.11,0.33,0.11v-2.63c-0.15,0-0.33-0.04-0.44-0.15l-2.41-1.41c-0.3-0.19-0.48-0.48-0.48-0.85v-2.78
					c0-0.15,0.04-0.26,0.07-0.37L21.64,17.09L21.64,17.09z"/>
				<path class="st2" d="M30.53,17.79C30.53,17.76,30.57,17.83,30.53,17.79c-0.07-0.11-0.19-0.22-0.3-0.26l-2.37-1.37
					c-0.3-0.19-0.67-0.19-0.96,0l-2.37,1.37c-0.07,0.04-0.11,0.07-0.19,0.15c-0.04,0.04-0.07,0.07-0.11,0.11l-2.26-1.3
					c0.07-0.15,0.22-0.3,0.37-0.37l4.67-2.7c0.3-0.19,0.67-0.19,0.96,0l4.67,2.7c0.11,0.07,0.22,0.19,0.33,0.3L30.53,17.79z"/>
			</g>
		</g>
		<path class="st2" d="M39.38,27.34c1.41-0.84,1.97-2.76,1.24-4.34c-0.29-0.64-0.76-1.15-1.34-1.46c1.43-0.83,2-2.77,1.27-4.36
			c-0.52-1.15-1.61-1.83-2.74-1.81v-4.88c0-1.97-1.46-3.57-3.26-3.57H20.53c-1.8,0-3.26,1.6-3.26,3.57v3.16
			c-0.59-0.13-1.16-0.13-1.58-0.06c-0.28,0.04-0.5,0.29-0.53,0.61c0,0.01-0.11,1.28-0.37,3.08c-0.06,0.45-0.44,1.84-2.21,6.12
			c-0.89,2.15-1.34,4.44-1.34,6.8v2.96c0,0.56-0.16,1.1-0.46,1.55l-0.1,0.16c0.2,0.5,0.39,1.01,0.51,1.52l0.59-0.89
			c0.46-0.69,0.7-1.5,0.7-2.35v-2.96c0-2.17,0.42-4.27,1.23-6.24c1.4-3.37,2.17-5.55,2.31-6.47c0.16-1.13,0.26-2.04,0.32-2.59
			c0.66,0,1.81,0.17,2.08,1.27c0.47,1.88,0.22,4.19,0.02,6.04l-0.04,0.37c-0.4,3.85-0.56,4.86-0.61,5.13
			c-0.12,0.23-0.11,0.53,0.05,0.75c0.02,0.03,0.04,0.06,0.07,0.08c0.02,0.02,1.86,1.88,3.11,6.36c0.87,3.13-0.85,7.12-0.87,7.16
			c-0.15,0.34-0.02,0.74,0.29,0.9C20.52,42.98,20.61,43,20.7,43c0.23,0,0.45-0.14,0.56-0.38c0.01-0.03,0.08-0.19,0.18-0.44h11.3
			l-3.69,2.59c-1.48,1.04-3.25,1.48-4.99,1.26l-1.1-0.14c-0.17-0.02-0.33,0.03-0.46,0.15l-0.92,0.82c0.27,0.34,0.55,0.67,0.83,0.99
			l0.66-0.58l0.85,0.11c2.02,0.26,4.08-0.26,5.8-1.46l5.36-3.76c0,0,0,0,0.01,0c1.44-0.25,2.57-1.53,2.73-3.12l0.77-0.42
			c1.33-0.73,1.87-2.5,1.2-3.95c-0.25-0.54-0.63-0.98-1.11-1.26l0.53-0.29c0.72-0.39,1.25-1.07,1.5-1.9
			c0.25-0.83,0.19-1.72-0.16-2.5C40.26,28.11,39.86,27.65,39.38,27.34z M37.82,16.71c0.68-0.02,1.33,0.38,1.64,1.07
			c0.44,0.95,0.08,2.12-0.79,2.59l-0.85,0.46V16.71z M37.15,22.73c0.25-0.14,0.52-0.21,0.79-0.21c0.19,0,0.38,0.03,0.56,0.1
			c0.45,0.16,0.81,0.51,1.02,0.97c0.44,0.95,0.08,2.12-0.79,2.59v0l-1.04,0.57c-0.87,0.48-1.94,0.09-2.37-0.86
			c-0.44-0.95-0.08-2.12,0.79-2.59L37.15,22.73z M21.87,8.25h11.34v0.28c0,0.43-0.32,0.77-0.71,0.77h-9.93
			c-0.39,0-0.71-0.35-0.71-0.77V8.25z M34.56,40.83H21.87c0.47-1.63,0.93-4.12,0.31-6.35c-1.06-3.83-2.56-5.91-3.18-6.65
			c0.01-0.08,0.03-0.17,0.04-0.26c0.05-0.32,0.11-0.78,0.18-1.37c0.11-0.89,0.24-2.06,0.39-3.5l0.04-0.37
			c0.21-1.97,0.47-4.41-0.06-6.54c-0.19-0.76-0.6-1.29-1.09-1.64v-3.69c0-1.23,0.91-2.22,2.03-2.22h0.11v0.28
			c0,1.17,0.87,2.12,1.94,2.12h9.93c1.07,0,1.94-0.95,1.94-2.12V8.25h0.11c1.12,0,2.03,1,2.03,2.22v11.06l-1.03,0.57
			c-1.48,0.81-2.08,2.78-1.34,4.4c0.27,0.58,0.67,1.04,1.15,1.35c-1.41,0.84-1.97,2.76-1.24,4.34c0.3,0.66,0.78,1.17,1.38,1.49
			l-0.31,0.17c-1.33,0.73-1.87,2.5-1.2,3.95c0.47,1.03,1.43,1.63,2.41,1.63c0.01,0,0.03,0,0.04,0
			C36.15,40.25,35.41,40.83,34.56,40.83z M38.67,35.24c0.36,0.79,0.07,1.75-0.65,2.15l-0.96,0.53c-0.72,0.4-1.6,0.07-1.96-0.72
			c-0.36-0.79-0.07-1.75,0.65-2.15l0.96-0.53c0.21-0.11,0.43-0.17,0.65-0.17c0.16,0,0.31,0.03,0.46,0.08
			C38.19,34.58,38.49,34.86,38.67,35.24z M39.52,30.77c-0.15,0.49-0.46,0.89-0.89,1.12l-1.04,0.57c-0.42,0.23-0.9,0.27-1.35,0.11
			c-0.45-0.16-0.81-0.51-1.02-0.97c-0.44-0.95-0.08-2.12,0.79-2.59l1.04-0.57c0.25-0.14,0.52-0.2,0.79-0.2
			c0.65,0,1.27,0.39,1.58,1.07C39.64,29.75,39.67,30.28,39.52,30.77z"/>
		<path class="st2" d="M29.86,37.92h-4.63c-0.34,0-0.62,0.3-0.62,0.67c0,0.37,0.28,0.67,0.62,0.67h4.63c0.34,0,0.62-0.3,0.62-0.67
			C30.48,38.22,30.2,37.92,29.86,37.92z"/>
		<path class="st3" d="M27.69,11.02c-4.23,0-7.77,2.9-8.77,6.82c0.23,0.6,0.25,1.27,0.07,1.89c0.04,0.24,0.08,0.49,0.1,0.73
			c0.01,0.13,0.02,0.25,0.02,0.38c0,0.26-0.06,0.51-0.13,0.75c0.13,0.42,0.17,0.88,0.1,1.32c1.19,3.63,4.59,6.25,8.61,6.25
			c2.75,0,5.21-1.23,6.87-3.16c-0.37-1.38,0.24-3.06,1.84-3.41c0.23-0.79,0.36-1.63,0.36-2.49C36.76,15.08,32.7,11.02,27.69,11.02z"
			/>
		<path class="st3" d="M38.65,27.83c5.75-7.74,1.81-19.21-7.49-21.76C21.5,3.41,12.07,11.92,13.7,21.8"/>
		<path class="st3" d="M20.78,31.76c4.25,2.31,9.53,2.23,13.71-0.21"/>
		<path class="st4" d="M20.8,48.18L20.8,48.18L20.8,48.18l1.84-1.61c0,0,3.2,1.13,6.59-1.21c3.39-2.34,5.41-3.02,5.41-3.02
			s2.53,0.07,3.53-3.25c0,0,4.33-2.1,0.92-5.67c4-2.96,6.66-7.9,6.66-13.32c0-10.05-8.15-18.2-18.2-18.2s-18.2,8.15-18.2,18.2
			c0,2.74,0.68,5.16,1.76,7.49c-0.34,4.43,0.49,6.78,0.49,6.78l-2.32,2.58L9.03,36.3l-4.77,4.96l7.16,6.94"/>
	</g>
	<line class="st5" x1="8.17" y1="36.38" x2="17.13" y2="45.29"/>
</g>
</svg>
