<?xml version="1.0" encoding="utf-8"?>
<!-- Generator: Adobe Illustrator 26.5.0, SVG Export Plug-In . SVG Version: 6.00 Build 0)  -->
<svg version="1.1" id="Layer_1" xmlns="http://www.w3.org/2000/svg" xmlns:xlink="http://www.w3.org/1999/xlink" x="0px" y="0px"
	 viewBox="0 0 50 50" style="enable-background:new 0 0 50 50;" xml:space="preserve">
<style type="text/css">
	.st0{fill:#46B8B0;}
	.st1{fill:#4ECDC4;}
	.st2{fill:#494949;}
</style>
<g>
	<g>
		<polygon class="st0" points="40,12.2 37.8,13 36.2,13.6 34.3,14.3 27.8,16.6 26.3,17.2 24.6,17.8 19,19.9 18.5,20 16.7,20.7 
			15.8,21 9,23.5 7.8,23.9 6,24.6 5.3,24.8 5.1,24.9 5.1,25.5 5.1,38 7.2,38.5 8.8,37.9 11,37.1 11.5,36.9 12.5,36.5 20.9,33.5 
			22.5,32.9 27.1,31.2 32.9,29.1 34.2,28.6 34.6,28.4 41,26.1 42.2,25.7 44,25 44,14.4 40.6,12.5 		"/>
	</g>
	<g>
		<path class="st1" d="M40,12.2C35,9.1,29.9,6,24.8,3c-0.5,0.5-1.1,1-1.6,1.6L6,14.4v10.1l-0.7,0.3l-0.2,0.1v0.5l0.2-0.1L6,25.1
			l1.7-0.6L9,24l6.8-2.5l1.2-0.5l0,0l1-0.4l5.6-2.1l3.1-1.1l1.6-0.6l7.3-2.7l1.1-0.4l1.6-0.6l2.2-0.8L40,12.2z"/>
	</g>
	<path class="st2" d="M38.4,13.3L37.8,13L25,6L7.8,15.4v20l3.2,1.7l14,7.7l17.2-9.4v-20L38.4,13.3z M25,7.5l11.2,6.1l0.6,0.3
		l3.5,1.9l-6.8,3.9l-5.1-2.8l-0.6-0.3L25,15.1l-8.5,4.6l-6.8-3.9L25,7.5z M24.4,43l-11.9-6.5L9,34.6V16.9l6.8,3.9v9.9l5.1,2.8
		l3.5,1.9V43z M22.5,32.9l-4.7-2.6c-0.2-0.1-0.5-0.2-0.7-0.3v-9.2l1.5-0.8l5.9-3.2c0.2-0.1,0.4-0.2,0.6-0.4c0.2,0.1,0.4,0.2,0.6,0.4
		l0.7,0.4l0.6,0.3l6.1,3.3v8.5l0,0V30c-0.2,0.1-0.5,0.2-0.7,0.3L25,34.3L22.5,32.9z M41,34.6L25.6,43v-7.6l8.6-4.7v-9.9l6.8-3.9
		V34.6z"/>
	<g>
		<path class="st2" d="M25,3.5l0.4,0.2L40,12.2l0.6,0.3l3.4,2v21.9L25,47.3L8.8,37.9L6,36.3V14.4l17.2-9.9L25,3.5 M25,1
			c-0.4,0-0.9,0.1-1.2,0.3l-1.8,1L4.8,12.3c-0.8,0.4-1.2,1.3-1.2,2.2v21.9c0,0.9,0.5,1.7,1.2,2.2l2.7,1.6l16.3,9.4
			c0.4,0.2,0.8,0.3,1.2,0.3c0.4,0,0.9-0.1,1.3-0.3l19-10.9c0.8-0.4,1.2-1.3,1.2-2.2V14.4c0-0.9-0.5-1.7-1.2-2.2l-3.4-2L41.2,10
			L26.7,1.6l-0.4-0.2C25.9,1.1,25.4,1,25,1L25,1z"/>
	</g>
</g>
</svg>
