<svg xmlns="http://www.w3.org/2000/svg" version="1" viewBox="0 0 50 50"><path fill="#AFE55D" d="M6.263 36.646l5.886 3.298 32.612-11.869V15.103c0-.725-.392-1.393-1.024-1.748l-17.758-9.95a2.004 2.004 0 0 0-1.959 0l-17.758 9.95a2.004 2.004 0 0 0-1.024 1.748v19.796a2.006 2.006 0 0 0 1.025 1.747z"/><path fill="#C3FF68" d="M36.603 9.358L25.979 3.406a2.004 2.004 0 0 0-1.959 0l-17.758 9.95a2.004 2.004 0 0 0-1.024 1.748v5.671L36.603 9.358z"/><path fill="#444" d="M44.178 12.568L26.42 2.618a2.92 2.92 0 0 0-2.84 0l-17.758 9.95a2.91 2.91 0 0 0-1.485 2.535v19.796c0 1.05.569 2.021 1.486 2.535l17.758 9.95c.436.244.924.367 1.415.367a2.95 2.95 0 0 0 1.439-.375l11.811-6.911a.902.902 0 1 0-.912-1.558l-11.796 6.902h-.001V25.322l18.315-10.268c.001.016.007.032.007.049v12.973a.902.902 0 0 0 1.804 0V15.103c0-1.05-.568-2.022-1.485-2.535zM6.704 35.859a1.101 1.101 0 0 1-.563-.96V15.103c0-.017.006-.033.007-.05l18.307 10.269v20.483L6.704 35.859zm18.292-11.475L6.721 14.133l17.741-9.94a1.114 1.114 0 0 1 1.077 0l17.742 9.941-18.285 10.25z"/></svg>