<svg xmlns="http://www.w3.org/2000/svg" version="1.0" viewBox="0 0 300 300"><path fill="#008DD3" d="M290.236 153.274c0 80.142-64.968 145.109-145.109 145.109C64.985 298.383.018 233.416.018 153.275c0-80.142 64.967-145.11 145.109-145.11s145.109 64.968 145.109 145.109"/><path fill="#8F9D9F" d="M261.03 111.963c4.841 13.301 7.719 26.725 8.778 39.806.08.818.142 1.654.186 2.473.412 6.287.395 12.488-.026 18.546a127.03 127.03 0 01-3.806 23.551c-.227.906-.483 1.797-.739 2.689-2.371 8.28-5.578 16.09-9.584 23.234a97.571 97.571 0 01-1.329 2.299c-4.353 7.32-9.554 13.907-15.528 19.566l2.263 6.218-29.68 10.803a77.277 77.277 0 01-8.987 2.666c-15.632 3.657-31.871 2.356-47.439-3.085a93.942 93.942 0 01-2.485-.91c-7.661-2.898-15.134-6.809-22.265-11.642a83.337 83.337 0 01-2.306-1.581 126.879 126.879 0 01-15.853-13.371 109.915 109.915 0 01-2.19-2.228 139.435 139.435 0 01-11.951-14.186 105.699 105.699 0 01-2.053-2.883 145.865 145.865 0 01-10.874-18.209 153.175 153.175 0 01-6.584-14.93c-.278-.698-.538-1.413-.799-2.129s-.521-1.432-.757-2.144a152.966 152.966 0 01-4.553-15.669 148.841 148.841 0 01-3.385-20.934 149.757 149.757 0 01-.269-3.532c-.402-6.29-.395-12.488.026-18.545.069-1.041.152-2.076.256-3.118.646-7.035 1.833-13.88 3.549-20.433a64.83 64.83 0 01.739-2.689c2.36-8.276 5.567-16.086 9.573-23.23a96.98 96.98 0 011.318-2.295C92.7 51.886 104.315 40.447 118.64 33.2a77.444 77.444 0 018.598-3.735l29.68-10.803 2.263 6.218c8.221.48 16.443 2.194 24.486 5.014l2.507.903c7.654 2.913 15.127 6.823 22.265 11.642.769.518 1.532 1.051 2.284 1.588 5.527 3.917 10.847 8.393 15.863 13.367.74.735 1.468 1.474 2.19 2.228a137.691 137.691 0 0111.94 14.19 56.7 56.7 0 011.447 2.014c7.602 10.702 14.026 22.835 18.867 36.137z"/><path fill="#8A9596" d="M156.921 18.663l.194.534L118.642 33.2a77.444 77.444 0 018.598-3.735l29.681-10.802zm26.75 11.232L84.278 66.071c-.45.757-.886 1.52-1.318 2.295l103.217-37.568-2.506-.903zm27.056 14.133L72.647 94.285a64.83 64.83 0 01.739-2.689L208.442 42.44c.77.518 1.533 1.051 2.285 1.588zm18.053 15.595L68.842 117.836c.069-1.041.152-2.076.256-3.118L226.59 57.395c.74.735 1.468 1.474 2.19 2.228zm12.571 13.961l1.167 3.205-173.433 63.124a149.757 149.757 0 01-.269-3.532l172.535-62.797zm6.929 19.038l1.361 3.739L72.47 160.847c-.309-1.315-.6-2.613-.87-3.918l176.68-64.307zm6.93 19.039l1.555 4.274L78.579 180.79c-.278-.698-.538-1.413-.799-2.129s-.521-1.432-.757-2.144l178.187-64.856zm7.124 19.573l1.361 3.739-176.68 64.307a141.82 141.82 0 01-1.852-3.561l177.171-64.485zm7.124 19.573l1.167 3.205L98.089 216.81a105.699 105.699 0 01-2.053-2.883l173.422-63.12zm7.124 19.573l.972 2.671-165.323 60.173a109.915 109.915 0 01-2.19-2.228l166.541-60.616zm-10.419 25.958c-.227.906-.483 1.797-.739 2.689L130.39 248.175a83.337 83.337 0 01-2.306-1.581l138.079-50.256zm-10.323 25.923a97.571 97.571 0 01-1.329 2.299l-99.371 36.168a93.942 93.942 0 01-2.485-.91l103.185-37.557zm-14.789 27.549l.194.534-29.68 10.803a77.277 77.277 0 01-8.987 2.666l38.473-14.003z"/><ellipse cx="199.082" cy="134.511" fill="#C4CBCC" rx="97.507" ry="123.272" transform="rotate(-19.999 199.082 134.51)"/><path fill="#D6D6D6" d="M233.468 228.976c-17.805 6.48-38.2 3.52-57.428-8.335-20.929-12.904-37.697-34.413-47.215-60.563s-10.498-53.406-2.76-76.744c7.11-21.441 20.83-36.818 38.635-43.299s38.2-3.52 57.427 8.335c20.929 12.904 37.697 34.413 47.215 60.563s10.498 53.406 2.76 76.744c-7.109 21.442-20.83 36.819-38.634 43.299z"/><path fill="#AEB9BA" d="M269.343 108.937c9.516 26.144 10.498 53.409 2.766 76.743-7.115 21.44-20.841 36.818-38.64 43.296a56.727 56.727 0 01-5.486 1.682c15.242-7.423 26.973-21.796 33.356-41.058 7.743-23.338 6.761-50.603-2.755-76.747-9.519-26.154-26.289-47.661-47.222-60.563-17.272-10.653-35.501-14.133-51.944-10.011a53.26 53.26 0 015.28-2.248c17.799-6.478 38.202-3.511 57.434 8.34 20.922 12.905 37.691 34.412 47.211 60.566z"/><path fill="#D6D6D6" d="M258.584 112.853c9.515 26.144 10.498 53.409 2.755 76.747-6.383 19.262-18.115 33.635-33.356 41.058-16.437 4.107-34.663.638-51.944-10.011-20.922-12.905-37.696-34.423-47.211-60.566-9.519-26.154-10.498-53.409-2.765-76.743 6.393-19.266 18.121-33.65 33.356-41.058 16.443-4.122 34.673-.641 51.944 10.011 20.932 12.901 37.702 34.408 47.221 60.562z"/><path fill="#AEB9BA" d="M232.661 169.506c-2.037 7.203-6.693 12.896-13.95 17.072l5.958 16.369-10.298 3.748-5.798-15.929c-5.229 1.459-10.522 1.958-15.901 1.493s-10.043-1.756-13.992-3.846l-.821-19.881c3.597 1.774 7.49 2.955 11.667 3.534 4.165.571 8.196.436 12.081-.439l-8.878-24.393c-5.478.123-10.275-.231-14.379-1.053s-8.01-2.793-11.704-5.904c-3.707-3.12-6.742-7.939-9.117-14.465-2.942-8.083-3.391-15.782-1.342-23.084 2.036-7.311 6.742-13.022 14.109-17.13l-5.901-16.214 10.298-3.748 5.793 15.917c8.792-2.096 16.845-1.662 24.142 1.31l1.393 19.834c-6.676-2.309-12.843-2.932-18.517-1.863l9.038 24.832c5.368-.19 10.081.114 14.142.897 4.053.786 7.934 2.74 11.628 5.851 3.707 3.12 6.725 7.891 9.065 14.322 2.907 7.99 3.334 15.576 1.284 22.77zm-54.847-45.624c1.866 1.085 4.239 1.715 7.101 1.885l-7.55-20.743c-2.294 1.831-3.707 3.92-4.25 6.259-.548 2.353-.363 4.79.558 7.322.887 2.436 2.268 4.195 4.141 5.277zm38.054 37.601c.6-2.211.45-4.525-.437-6.962-.883-2.425-2.246-4.19-4.078-5.287-1.84-1.094-4.173-1.793-6.993-2.086l7.334 20.149c2.181-1.669 3.578-3.618 4.174-5.814z"/><path fill="#AEB9BA" d="M177.858 168.537l8.74-3.18 6.487 17.826-8.74 3.18zm23.997-77.275l8.74-3.18 4.164 11.44-8.74 3.181z"/><path fill="#C4CBCC" d="M241.401 166.325c-2.037 7.203-6.693 12.896-13.95 17.072l5.958 16.369-10.298 3.748-5.798-15.929c-5.229 1.459-10.522 1.958-15.901 1.493s-10.043-1.756-13.992-3.846l-.821-19.881c3.597 1.774 7.49 2.955 11.667 3.535 4.165.571 8.196.436 12.081-.439l-8.878-24.393c-5.478.123-10.275-.231-14.379-1.053-4.104-.822-8.01-2.793-11.704-5.904-3.707-3.12-6.742-7.939-9.117-14.465-2.942-8.083-3.391-15.782-1.342-23.084 2.036-7.311 6.742-13.022 14.109-17.13l-5.901-16.214 10.298-3.748 5.793 15.917c8.792-2.096 16.845-1.662 24.142 1.31l1.393 19.834c-6.676-2.309-12.843-2.932-18.517-1.863l9.038 24.832c5.368-.19 10.081.114 14.142.897 4.053.786 7.934 2.74 11.628 5.851 3.707 3.12 6.725 7.891 9.065 14.322 2.907 7.989 3.334 15.575 1.284 22.769zm-54.846-45.624c1.866 1.085 4.239 1.715 7.101 1.885l-7.55-20.743c-2.294 1.831-3.707 3.92-4.25 6.259-.548 2.353-.363 4.79.558 7.322.886 2.436 2.267 4.195 4.141 5.277zm38.053 37.601c.6-2.211.45-4.525-.437-6.962-.883-2.425-2.246-4.19-4.078-5.287-1.84-1.094-4.173-1.793-6.993-2.086l7.334 20.149c2.181-1.669 3.578-3.618 4.174-5.814z"/></svg>