<?xml version="1.0" encoding="utf-8"?>
<!-- Generator: Adobe Illustrator 24.0.3, SVG Export Plug-In . SVG Version: 6.00 Build 0)  -->
<svg version="1.1" id="Layer_1" xmlns="http://www.w3.org/2000/svg" xmlns:xlink="http://www.w3.org/1999/xlink" x="0px" y="0px"
	 viewBox="0 0 50 50" style="enable-background:new 0 0 50 50;" xml:space="preserve">
<style type="text/css">
	.st0{fill:#FCC34F;}
	.st1{fill:#FDCF72;}
	.st2{fill:none;stroke:#444444;stroke-width:2.5;stroke-linecap:round;stroke-linejoin:round;stroke-miterlimit:10;}
	.st3{fill:#424242;}
	.st4{fill:#424242;stroke:#424242;stroke-width:0.3;stroke-miterlimit:10;}
</style>
<polygon class="st0" points="47.3,13 48,17.9 4.1,33.9 3.6,23.5 3.5,17.6 41.9,3.7 46.8,5.9 "/>
<polygon class="st1" points="45.8,3.8 47.9,6.9 3.2,22.8 4.3,6.4 7.1,3.7 34.8,3.5 "/>
<g>
	<path class="st2" d="M17.5,45.3H6.7c-1.6,0-2.9-1.3-2.9-2.9V6.7c0-1.6,1.3-2.9,2.9-2.9h37.5c1.6,0,2.9,1.3,2.9,2.9v20"/>
	<line class="st2" x1="47.1" y1="15.4" x2="3.9" y2="15.4"/>
</g>
<circle class="st3" cx="10.5" cy="9.7" r="1.5"/>
<circle class="st3" cx="14.7" cy="9.7" r="1.5"/>
<circle class="st3" cx="18.9" cy="9.7" r="1.5"/>
<g>
	<g>
		<g>
			<path class="st4" d="M29.2,26.2c-4.6,0-8.3,3.7-8.3,8.3s3.7,8.3,8.3,8.3s8.3-3.7,8.3-8.3C37.5,29.9,33.8,26.2,29.2,26.2z
				 M29.2,26.9c2.4,0,4.7,1.2,6.1,3.2l-1,1c-0.2-0.1-0.5-0.2-0.8-0.2c-0.9,0-1.6,0.7-1.6,1.6c0,0.3,0.1,0.6,0.2,0.8l-2.6,2.6
				c-0.5-0.3-1.1-0.3-1.6,0L26.2,34c0.1-0.2,0.2-0.5,0.2-0.8c0-0.9-0.7-1.6-1.6-1.6c-0.7,0-1.3,0.5-1.5,1.2h-1.5
				C22.6,29.4,25.7,26.9,29.2,26.9z M34.3,32.5c0,0.4-0.4,0.8-0.8,0.8s-0.8-0.4-0.8-0.8c0-0.4,0.4-0.8,0.8-0.8S34.3,32,34.3,32.5z
				 M29.6,37.2c0,0.4-0.4,0.8-0.8,0.8c-0.4,0-0.8-0.4-0.8-0.8c0-0.4,0.4-0.8,0.8-0.8C29.2,36.4,29.6,36.7,29.6,37.2z M25.6,33.2
				c0,0.4-0.4,0.8-0.8,0.8c-0.4,0-0.8-0.4-0.8-0.8s0.4-0.8,0.8-0.8C25.3,32.5,25.6,32.8,25.6,33.2z M32.8,41
				c-1.1,0.6-2.4,0.9-3.6,0.9c-4.1,0-7.5-3.3-7.5-7.5c0-0.3,0-0.5,0-0.8h1.6c0.2,0.7,0.8,1.2,1.5,1.2c0.3,0,0.6-0.1,0.8-0.2l1.8,1.8
				c-0.1,0.2-0.2,0.5-0.2,0.8c0,0.9,0.7,1.6,1.6,1.6c0.9,0,1.6-0.7,1.6-1.6c0-0.3-0.1-0.6-0.2-0.8l2.6-2.6c0.2,0.1,0.5,0.2,0.8,0.2
				c0.9,0,1.6-0.7,1.6-1.6c0-0.3-0.1-0.6-0.2-0.8l0.9-0.9C37.7,34.4,36.4,39,32.8,41z"/>
		</g>
	</g>
	<g>
		<g>
			<path class="st4" d="M39,28.5c0.7,0,1.3-0.5,1.5-1.2H43v-0.8h-2.4c-0.2-0.7-0.8-1.2-1.5-1.2c-0.9,0-1.6,0.7-1.6,1.6
				c0,0.3,0.1,0.6,0.2,0.8L37,28.4c-3.3-4.3-9.5-5.1-13.8-1.8s-5.1,9.5-1.8,13.8c3.1,4.1,8.9,5.1,13.2,2.3l1.2,1.2l0.6,0.6l3.2,3.2
				c0.8,0.8,2.1,0.8,2.9,0s0.8-2.1,0-2.9l-3.2-3.2l-0.6-0.6l-1.2-1.2c2.1-3.2,2.1-7.4,0-10.7l0.8-0.8C38.5,28.4,38.8,28.5,39,28.5z
				 M39,26.2c0.4,0,0.8,0.4,0.8,0.8c0,0.4-0.4,0.8-0.8,0.8s-0.8-0.4-0.8-0.8C38.2,26.5,38.6,26.2,39,26.2z M41.8,45.2
				c0.5,0.5,0.5,1.3,0,1.8s-1.3,0.5-1.8,0c0,0,0,0,0,0l-3.2-3.2l1.8-1.8L41.8,45.2z M38.1,41.5l-1.8,1.8l-1.1-1.1
				c0.1,0,0.1-0.1,0.2-0.1c0.1,0,0.1-0.1,0.2-0.1c0.1-0.1,0.2-0.1,0.3-0.2c0,0,0.1-0.1,0.1-0.1c0.2-0.2,0.3-0.3,0.5-0.5
				c0,0,0.1-0.1,0.1-0.1c0.1-0.1,0.1-0.2,0.2-0.3c0-0.1,0.1-0.1,0.1-0.2c0-0.1,0.1-0.1,0.1-0.2L38.1,41.5z M36.6,39.7
				c-0.1,0.2-0.3,0.3-0.4,0.5c0,0-0.1,0.1-0.1,0.1c-0.1,0.1-0.2,0.3-0.4,0.4c-0.1,0.1-0.1,0.1-0.2,0.2c-0.1,0.1-0.3,0.3-0.4,0.4
				c0,0-0.1,0.1-0.1,0.1c-0.2,0.1-0.3,0.3-0.5,0.4c-4.1,2.9-9.7,2-12.7-2.1s-2-9.7,2.1-12.7s9.7-2,12.7,2.1
				C38.8,32.3,38.8,36.5,36.6,39.7z"/>
		</g>
	</g>
</g>
</svg>
