<svg xmlns="http://www.w3.org/2000/svg" id="Layer_1" x="0" y="0" version="1.1" viewBox="0 0 50 50" xml:space="preserve"><style>.st3,.st4{fill:#424242}.st4{stroke:#031326;stroke-width:.3;stroke-miterlimit:10}</style><path fill="#fcc34f" d="M47.3 13l.7 4.9-43.9 16-.5-10.4-.1-5.9L41.9 3.7l4.9 2.2z"/><path fill="#fdcf72" d="M45.8 3.8l2.1 3.1L3.2 22.8 4.3 6.4l2.8-2.7 27.7-.2z"/><path fill="none" stroke="#031326" stroke-linecap="round" stroke-linejoin="round" stroke-miterlimit="10" stroke-width="2.5" d="M17.5 45.3H6.7c-1.6 0-2.9-1.3-2.9-2.9V6.7c0-1.6 1.3-2.9 2.9-2.9h37.5c1.6 0 2.9 1.3 2.9 2.9v20m0-11.3H3.9"/><circle cx="10.5" cy="9.7" r="1.5" class="st3"/><circle cx="14.7" cy="9.7" r="1.5" class="st3"/><circle cx="18.9" cy="9.7" r="1.5" class="st3"/><path d="M29.2 26.2c-4.6 0-8.3 3.7-8.3 8.3s3.7 8.3 8.3 8.3 8.3-3.7 8.3-8.3c0-4.6-3.7-8.3-8.3-8.3zm0 .7c2.4 0 4.7 1.2 6.1 3.2l-1 1c-.2-.1-.5-.2-.8-.2-.9 0-1.6.7-1.6 1.6 0 .3.1.6.2.8l-2.6 2.6c-.5-.3-1.1-.3-1.6 0L26.2 34c.1-.2.2-.5.2-.8 0-.9-.7-1.6-1.6-1.6-.7 0-1.3.5-1.5 1.2h-1.5c.8-3.4 3.9-5.9 7.4-5.9zm5.1 5.6c0 .4-.4.8-.8.8s-.8-.4-.8-.8.4-.8.8-.8.8.3.8.8zm-4.7 4.7c0 .4-.4.8-.8.8s-.8-.4-.8-.8.4-.8.8-.8.8.3.8.8zm-4-4c0 .4-.4.8-.8.8s-.8-.4-.8-.8.4-.8.8-.8c.5.1.8.4.8.8zm7.2 7.8c-1.1.6-2.4.9-3.6.9-4.1 0-7.5-3.3-7.5-7.5v-.8h1.6c.2.7.8 1.2 1.5 1.2.3 0 .6-.1.8-.2l1.8 1.8c-.1.2-.2.5-.2.8 0 .9.7 1.6 1.6 1.6.9 0 1.6-.7 1.6-1.6 0-.3-.1-.6-.2-.8l2.6-2.6c.2.1.5.2.8.2.9 0 1.6-.7 1.6-1.6 0-.3-.1-.6-.2-.8l.9-.9c1.8 3.7.5 8.3-3.1 10.3z" class="st4"/><path d="M39 28.5c.7 0 1.3-.5 1.5-1.2H43v-.8h-2.4c-.2-.7-.8-1.2-1.5-1.2-.9 0-1.6.7-1.6 1.6 0 .3.1.6.2.8l-.7.7c-3.3-4.3-9.5-5.1-13.8-1.8s-5.1 9.5-1.8 13.8c3.1 4.1 8.9 5.1 13.2 2.3l1.2 1.2.6.6 3.2 3.2c.8.8 2.1.8 2.9 0s.8-2.1 0-2.9l-3.2-3.2-.6-.6-1.2-1.2c2.1-3.2 2.1-7.4 0-10.7l.8-.8c.2.1.5.2.7.2zm0-2.3c.4 0 .8.4.8.8s-.4.8-.8.8-.8-.4-.8-.8c0-.5.4-.8.8-.8zm2.8 19c.5.5.5 1.3 0 1.8s-1.3.5-1.8 0l-3.2-3.2 1.8-1.8 3.2 3.2zm-3.7-3.7l-1.8 1.8-1.1-1.1c.1 0 .1-.1.2-.1s.1-.1.2-.1c.1-.1.2-.1.3-.2l.1-.1.5-.5.1-.1c.1-.1.1-.2.2-.3 0-.1.1-.1.1-.2s.1-.1.1-.2l1.1 1.1zm-1.5-1.8c-.1.2-.3.3-.4.5l-.1.1c-.1.1-.2.3-.4.4l-.2.2-.4.4-.1.1c-.2.1-.3.3-.5.4-4.1 2.9-9.7 2-12.7-2.1s-2-9.7 2.1-12.7 9.7-2 12.7 2.1c2.2 3.2 2.2 7.4 0 10.6z" class="st4"/></svg>
