<svg xmlns="http://www.w3.org/2000/svg" version="1" viewBox="0 0 50 50"><path fill="#FCC34F" d="M10.205 25.344v1.739c0 .594.486 1.08 1.08 1.08h1.371v10.478l24.686-8.985v-1.493h1.375c.594 0 1.08-.486 1.08-1.08v-1.739a7.743 7.743 0 0 0-.004-15.486h-3.577v-3.76a.744.744 0 0 0-.743-.744H14.525a.743.743 0 0 0-.743.744v3.76h-3.577a7.743 7.743 0 1 0 0 15.486z"/><path fill="#FDCF72" d="M36.535 9.858h-.317v-3.76a.744.744 0 0 0-.743-.744h-20.95a.743.743 0 0 0-.743.744v3.76h-3.577a7.743 7.743 0 0 0-7.743 7.743 7.7 7.7 0 0 0 1.247 4.205L36.535 9.858z"/><path fill="#444" d="M39.795 9.021h-2.74V6.097c0-.871-.709-1.581-1.58-1.581h-20.95c-.871 0-1.58.709-1.58 1.581V9.02h-2.74c-4.731 0-8.58 3.849-8.58 8.58 0 4.449 3.404 8.118 7.744 8.539v.942a1.92 1.92 0 0 0 1.918 1.917h.533v14.565a1.92 1.92 0 0 0 1.918 1.918h11.264a.837.837 0 0 0 0-1.674h-3.614V28.333h7.224v10.05a.502.502 0 0 0 1.004 0v-10.05h6.889v5.595a.837.837 0 0 0 1.674 0V29h.538a1.92 1.92 0 0 0 1.918-1.917v-.943c4.338-.424 7.739-4.093 7.739-8.539.001-4.731-3.848-8.58-8.579-8.58zm-4.414-2.83v3.492H14.619V6.191h20.762zM20.383 43.809h-6.646a.244.244 0 0 1-.244-.244V28.333h6.889v15.476zm-6.889-16.481v-.002h-2.207a.247.247 0 0 1-.244-.243v-1.567a8.248 8.248 0 0 0 5.771-3.289h16.374a8.242 8.242 0 0 0 5.775 3.289v1.566a.246.246 0 0 1-.244.243h-2.212v.002H13.494zm26.304-2.821l-.803.001c-3.445-.383-6.198-3.203-6.418-6.738a.503.503 0 0 0-1.002.063 8.17 8.17 0 0 0 .979 3.391H17.446a8.166 8.166 0 0 0 .979-3.391.503.503 0 0 0-1.002-.063c-.22 3.534-2.971 6.353-6.413 6.737h-.804c-3.808 0-6.906-3.098-6.906-6.906s3.098-6.906 6.906-6.906h4.414v-.007h20.762v.007h4.414a6.914 6.914 0 0 1 6.906 6.906c-.001 3.806-3.098 6.904-6.904 6.906z"/></svg>