<svg xmlns="http://www.w3.org/2000/svg" id="Layer_1" x="0" y="0" version="1.1" viewBox="0 0 300 300" xml:space="preserve"><style>.st2{fill:#e0e0e0}.st4{fill:#fff}</style><path fill="#00bf5f" d="M299 150c0 82.3-66.7 149-149 149S1 232.3 1 150 67.7 1 150 1s149 66.7 149 149"/><path fill="#eaeaea" d="M273.9 249.9h-161c-6.1 0-11.1-5-11.1-11.1V61.2c0-6.1 5-11.1 11.1-11.1h161c6.1 0 11.1 5 11.1 11.1v177.6c0 6.1-5 11.1-11.1 11.1z"/><path d="M259.8 132.2H134.3c-6.3 0-11.4 5.1-11.4 11.4v79.8c0 6.3 5.1 11.4 11.4 11.4h125.5c6.3 0 11.4-5.1 11.4-11.4v-79.8c0-6.3-5.1-11.4-11.4-11.4z" class="st2"/><path fill="#3bc0f4" d="M255.1 127.5H129.6c-6.3 0-11.4 5.1-11.4 11.4v79.8c0 6.3 5.1 11.4 11.4 11.4h125.5c6.3 0 11.4-5.1 11.4-11.4v-79.8c0-6.3-5.1-11.4-11.4-11.4z"/><path d="M265.6 113.9H121.2c-3.1 0-5.6-2.5-5.6-5.6V69.5c0-3.1 2.5-5.6 5.6-5.6h144.3c3.1 0 5.6 2.5 5.6 5.6v38.9c0 3-2.5 5.5-5.5 5.5z" class="st4"/><path d="M118.5 111.1V72.3c0-3.1 2.5-5.6 5.6-5.6h144.3c.8 0 1.6.2 2.3.5-.9-1.9-2.8-3.3-5.1-3.3H121.2c-3.1 0-5.6 2.5-5.6 5.6v38.9c0 2.3 1.3 4.2 3.3 5.1-.2-.8-.4-1.5-.4-2.4z" class="st2"/><path d="M162.9 177c-2-2.6-3-6.3-3-11v-5c0-4.9 1-8.5 2.9-11 2-2.5 5.1-3.7 9.5-3.7s7.5 1.2 9.5 3.6c2 2.4 2.9 5.9 2.9 10.7v5.6c0 4.7-1 8.4-3 10.9s-5.1 3.8-9.5 3.8c-4.1 0-7.3-1.3-9.3-3.9zm13.2-4.8c.7-1.5 1-3.5 1-6v-5.6c0-2.5-.3-4.5-.9-5.8-.6-1.3-1.9-2-3.8-2s-3.2.7-3.8 2.1c-.6 1.4-.9 3.3-.9 5.9v5.6c0 2.5.3 4.5 1 6s1.9 2.2 3.7 2.2c1.8-.1 3.1-.9 3.7-2.4zm21.5-25.4h7.3L187.3 211H180l17.6-64.2zm2.4 49.7v-5c0-4.8 1-8.4 2.9-10.9s5.1-3.7 9.5-3.7 7.5 1.2 9.5 3.6c2 2.4 2.9 6 2.9 10.8v5.5c0 4.8-1 8.4-3 10.9s-5.1 3.7-9.5 3.7c-8.2-.1-12.3-5-12.3-14.9zm16.1 6.3c.7-1.5 1-3.4 1-6v-5.7c0-2.5-.3-4.5-1-5.8-.6-1.3-1.9-2-3.8-2s-3.2.7-3.8 2.1c-.6 1.4-.9 3.3-.9 5.9v5.6c0 2.5.3 4.5 1 6s1.9 2.2 3.7 2.2c1.9-.2 3.1-.9 3.8-2.3z" class="st4"/></svg>