<?xml version="1.0" encoding="utf-8"?>
<!-- Generator: Adobe Illustrator 24.0.0, SVG Export Plug-In . SVG Version: 6.00 Build 0)  -->
<svg version="1.1" id="Layer_1" xmlns="http://www.w3.org/2000/svg" xmlns:xlink="http://www.w3.org/1999/xlink" x="0px" y="0px"
	 viewBox="0 0 50 50" style="enable-background:new 0 0 50 50;" xml:space="preserve">
<style type="text/css">
	.st0{fill:#DC5E82;}
	.st1{fill:#F56991;}
	.st2{fill:none;}
	.st3{fill:#444444;}
</style>
<g>
	<path class="st0" d="M28.8,19.7c1,1.2,2.6,2,4.3,2c3.1,0,5.7-2.5,5.7-5.7c0-1.1-0.3-2-0.8-2.9L27.5,17c0,0.2,0.1,0.4,0.1,0.6"/>
	<path class="st1" d="M16.7,18.4c-2.4,0.4-4.3,2.1-5.1,4.4l9.8-3.6c-0.7-0.4-1.4-0.7-2.2-0.8"/>
	<path class="st1" d="M19.2,12.9c2.5-0.6,4.4-2.8,4.4-5.5c0-3.1-2.5-5.7-5.7-5.7s-5.7,2.5-5.7,5.7c0,2.7,1.9,5,4.4,5.5"/>
	<path class="st1" d="M33.1,10.4c-3.1,0-5.7,2.5-5.7,5.7c0,0.3,0,0.6,0.1,0.9L38,13.1C37,11.5,35.2,10.4,33.1,10.4z"/>
	<path class="st2" d="M27.6,17.5c0-0.2-0.1-0.4-0.1-0.6l-6.2,2.2c0.6,0.4,1.2,0.8,1.7,1.4"/>
	<path class="st2" d="M27.6,32.4l-4.3-3.3c-1,1.3-2.4,2.2-4.1,2.5v5.5c1.4,0.3,2.6,1.1,3.4,2.3l6-2.2c-0.7-0.9-1.1-2.1-1.1-3.4
		C27.4,33.3,27.5,32.8,27.6,32.4z"/>
	<path class="st0" d="M12.3,42.7c0,0.2,0,0.3,0,0.5l10.3-3.7c-0.8-1.1-1.9-1.9-3.3-2.2h-2.6C14.1,37.8,12.3,40,12.3,42.7z"/>
	<path class="st0" d="M24.4,26.8L24.4,26.8c0.2-0.6,0.2-1.2,0.2-1.8c0-0.8-0.1-1.6-0.4-2.3L23,20.6c-0.5-0.5-1-1-1.7-1.4l-9.8,3.6
		c-0.2,0.7-0.4,1.5-0.4,2.2c0,3.1,2.1,5.7,5,6.5h3.5c1-0.3,1.8-0.8,2.6-1.4L24.4,26.8L24.4,26.8z"/>
	<path class="st0" d="M33.1,28.1c-1.7,0-3.3,0.8-4.3,2l0,0l-1.4,2.1l0.2,0.2c-0.1,0.5-0.2,0.9-0.2,1.4c0,1.3,0.4,2.5,1.1,3.4
		l10.2-3.7C38.6,30.5,36.1,28.1,33.1,28.1z"/>
	<path class="st3" d="M33.1,26.9c-2.1,0-4,1-5.3,2.5l-2.3-1.7c0.3-0.8,0.4-1.7,0.4-2.6c0-1-0.2-2-0.6-3l2.4-1.6
		c1.3,1.5,3.2,2.5,5.3,2.5c3.8,0,6.9-3.1,6.9-6.9s-3.1-6.9-6.9-6.9s-6.9,3.1-6.9,6.9c0,0.8,0.1,1.5,0.4,2.2l-2.5,1.6
		c-1.2-1.4-2.9-2.5-4.9-2.8v-3c3.2-0.6,5.7-3.4,5.7-6.8c0-3.8-3.1-6.9-6.9-6.9S11,3.5,11,7.3c0,3.4,2.5,6.2,5.7,6.8v3
		C12.9,17.7,10,21,10,25c0,4,2.9,7.3,6.7,7.9v3c-3.2,0.6-5.7,3.4-5.7,6.8c0,3.8,3.1,6.9,6.9,6.9s6.9-3.1,6.9-6.9
		c0-3.4-2.5-6.2-5.7-6.8v-3c2.1-0.3,3.9-1.4,5.1-3l2.3,1.7c-0.2,0.7-0.4,1.5-0.4,2.2c0,3.8,3.1,6.9,6.9,6.9s6.9-3.1,6.9-6.9
		S36.9,26.9,33.1,26.9z M33.1,11.6c2.4,0,4.4,2,4.4,4.4s-2,4.4-4.4,4.4c-2.4,0-4.4-2-4.4-4.4S30.7,11.6,33.1,11.6z M13.5,7.3
		c0-2.4,2-4.4,4.4-4.4s4.4,2,4.4,4.4s-2,4.4-4.4,4.4S13.5,9.8,13.5,7.3z M22.4,42.7c0,2.4-2,4.4-4.4,4.4s-4.4-2-4.4-4.4
		c0-2.4,2-4.4,4.4-4.4S22.4,40.2,22.4,42.7z M18,30.5c-3,0-5.5-2.5-5.5-5.5s2.5-5.5,5.5-5.5c3,0,5.5,2.5,5.5,5.5S21,30.5,18,30.5z
		 M33.1,38.2c-2.4,0-4.4-2-4.4-4.4s2-4.4,4.4-4.4c2.4,0,4.4,2,4.4,4.4S35.6,38.2,33.1,38.2z"/>
</g>
</svg>
