<?xml version="1.0" encoding="utf-8"?>
<!-- Generator: Adobe Illustrator 26.2.1, SVG Export Plug-In . SVG Version: 6.00 Build 0)  -->
<svg version="1.1" id="Layer_1" xmlns="http://www.w3.org/2000/svg" xmlns:xlink="http://www.w3.org/1999/xlink" x="0px" y="0px"
	 viewBox="0 0 50 50" style="enable-background:new 0 0 50 50;" xml:space="preserve">
<style type="text/css">
	.st0{fill:#E589EF;}
	.st1{fill:#F799FF;}
	.st2{fill:none;stroke:#444444;stroke-width:2.5;stroke-linecap:round;stroke-linejoin:round;stroke-miterlimit:10;}
	.st3{fill:none;stroke:#494949;stroke-linecap:round;stroke-linejoin:round;stroke-miterlimit:10;}
	.st4{fill:#494949;}
	.st5{fill:none;stroke:#494949;stroke-width:0.25;stroke-linecap:round;stroke-linejoin:round;stroke-miterlimit:10;}
</style>
<g>
	<g>
		<polygon class="st0" points="46.9,25.9 47.3,30 2.6,46.3 2.8,37.6 3.2,32.7 47.7,16.5 47,20 		"/>
		<polygon class="st1" points="47.2,10 46.6,17.4 2.9,33.3 2.9,24 3.3,19.7 47.3,3.7 		"/>
		<polyline class="st2" points="6.5,47.3 2.3,47.3 2.3,2.7 47.2,2.7 47.2,47.3 31.7,47.3 		"/>
	</g>
	<g>
		<g>
			<path class="st3" d="M33.3,16.9H9.7c-1.3,0-2.4-1.1-2.4-2.4v-3.2C7.3,10,8.4,9,9.7,9h23.6c1.3,0,2.4,1.1,2.4,2.4v3.2
				C35.7,15.8,34.6,16.9,33.3,16.9z"/>
			<path class="st4" d="M12.9,15.2h-2.6c-0.5,0-0.9-0.4-0.9-0.9v-2.6c0-0.5,0.4-0.9,0.9-0.9h2.6c0.5,0,0.9,0.4,0.9,0.9v2.6
				C13.8,14.8,13.4,15.2,12.9,15.2z"/>
			<g>
				<line class="st5" x1="33.2" y1="11.4" x2="15.5" y2="11.4"/>
				<line class="st5" x1="33.2" y1="12.9" x2="15.5" y2="12.9"/>
				<line class="st5" x1="33.2" y1="14.4" x2="15.5" y2="14.4"/>
			</g>
		</g>
		<g>
			<path class="st3" d="M40.3,29H16.7c-1.3,0-2.4-1.1-2.4-2.4v-3.2c0-1.3,1.1-2.4,2.4-2.4h23.6c1.3,0,2.4,1.1,2.4,2.4v3.2
				C42.7,27.9,41.6,29,40.3,29z"/>
			<path class="st4" d="M19.9,27.2h-2.6c-0.5,0-0.9-0.4-0.9-0.9v-2.6c0-0.5,0.4-0.9,0.9-0.9h2.6c0.5,0,0.9,0.4,0.9,0.9v2.6
				C20.8,26.8,20.4,27.2,19.9,27.2z"/>
			<g>
				<line class="st5" x1="40.1" y1="23.5" x2="22.5" y2="23.5"/>
				<line class="st5" x1="40.1" y1="25" x2="22.5" y2="25"/>
				<line class="st5" x1="40.1" y1="26.5" x2="22.5" y2="26.5"/>
			</g>
		</g>
		<g>
			<path class="st3" d="M33.3,41H9.7c-1.3,0-2.4-1.1-2.4-2.4v-3.2c0-1.3,1.1-2.4,2.4-2.4h23.6c1.3,0,2.4,1.1,2.4,2.4v3.2
				C35.7,40,34.6,41,33.3,41z"/>
			<path class="st4" d="M12.9,39.3h-2.6c-0.5,0-0.9-0.4-0.9-0.9v-2.6c0-0.5,0.4-0.9,0.9-0.9h2.6c0.5,0,0.9,0.4,0.9,0.9v2.6
				C13.8,38.9,13.4,39.3,12.9,39.3z"/>
			<g>
				<line class="st5" x1="33.2" y1="35.6" x2="15.5" y2="35.6"/>
				<line class="st5" x1="33.2" y1="37.1" x2="15.5" y2="37.1"/>
				<line class="st5" x1="33.2" y1="38.6" x2="15.5" y2="38.6"/>
			</g>
		</g>
	</g>
</g>
</svg>
