<?xml version="1.0" encoding="utf-8"?>
<!-- Generator: Adobe Illustrator 26.5.0, SVG Export Plug-In . SVG Version: 6.00 Build 0)  -->
<svg version="1.1" id="Layer_1" xmlns="http://www.w3.org/2000/svg" xmlns:xlink="http://www.w3.org/1999/xlink" x="0px" y="0px"
	 viewBox="0 0 50 50" style="enable-background:new 0 0 50 50;" xml:space="preserve">
<style type="text/css">
	.st0{fill:#E589EF;}
	.st1{fill:#F799FF;}
	.st2{fill:none;}
	.st3{fill:#031326;}
</style>
<path class="st0" d="M47.9,2.1v20L42.7,24l-9.1,3.3l-4.1,1.5L28.8,29l-12.3,4.5l-9.4,3.4l-5,1.8V2.1H47.9z"/>
<path class="st1" d="M47.9,2.1v4.8l-5,1.8l-4.8,1.7L36,11.2L33.8,12l-21.5,7.8l-5.2,1.9l-5,1.8V2.1H47.9z"/>
<path class="st2" d="M21.2,33.7h7.5v7.5h-7.5V33.7z M7.1,19.8h9.5v9.5H7.1V19.8z M21.2,20.8h7.5v7.5h-7.5V20.8z M7.1,32.7h9.5v9.5
	H7.1V32.7z"/>
<path class="st3" d="M17,29.3v-10H6.6v10.5H17V29.3z M16.5,29.3H7.1v-9.5h9.5v9.5H16.5z M30.2,19.3H19.7v10.5h10.5V19.3z M28.7,28.3
	h-7.5v-7.5h7.5V28.3z M32.9,19.2h10.6v10.6H32.9V19.2z M7.1,32.2H6.6v10.5H17V32.2H7.1z M16.5,42.2H7.1v-9.5h9.5L16.5,42.2
	L16.5,42.2z M19.7,42.7h10.5V32.2H19.7V42.7z M21.2,33.7h7.5v7.5h-7.5V33.7z M36.7,11.9l-2.3-2.3l-1.5,1.5l3.8,3.8L43.6,8l-1.5-1.5
	L36.7,11.9z"/>
<path class="st3" d="M0.9,0.9v48.2h28.6c0.7,0,1.2-0.6,1.2-1.2s-0.6-1.2-1.2-1.2H3.4V3.4h43.2v25c0,0.7,0.6,1.2,1.2,1.2
	S49,29,49,28.4V0.9H0.9z"/>
</svg>
