<svg xmlns="http://www.w3.org/2000/svg" id="Layer_1" x="0" y="0" version="1.1" viewBox="0 0 50 50" xml:space="preserve"><style>.st3{fill:none;stroke:#494949;stroke-linecap:round;stroke-linejoin:round;stroke-miterlimit:10}.st4{fill:#494949}.st5{fill:none;stroke:#494949;stroke-width:.25;stroke-linecap:round;stroke-linejoin:round;stroke-miterlimit:10}</style><path fill="#e589ef" d="M46.9 25.9l.4 4.1L2.6 46.3l.2-8.7.4-4.9 44.5-16.2L47 20z"/><path fill="#f799ff" d="M47.2 10l-.6 7.4L2.9 33.3V24l.4-4.3 44-16z"/><path fill="none" stroke="#444" stroke-linecap="round" stroke-linejoin="round" stroke-miterlimit="10" stroke-width="2.5" d="M6.5 47.3H2.3V2.7h44.9v44.6H31.7"/><path d="M33.3 16.9H9.7c-1.3 0-2.4-1.1-2.4-2.4v-3.2C7.3 10 8.4 9 9.7 9h23.6c1.3 0 2.4 1.1 2.4 2.4v3.2c0 1.2-1.1 2.3-2.4 2.3z" class="st3"/><path d="M12.9 15.2h-2.6c-.5 0-.9-.4-.9-.9v-2.6c0-.5.4-.9.9-.9h2.6c.5 0 .9.4.9.9v2.6c0 .5-.4.9-.9.9z" class="st4"/><path d="M33.2 11.4H15.5m17.7 1.5H15.5m17.7 1.5H15.5" class="st5"/><path d="M40.3 29H16.7c-1.3 0-2.4-1.1-2.4-2.4v-3.2c0-1.3 1.1-2.4 2.4-2.4h23.6c1.3 0 2.4 1.1 2.4 2.4v3.2c0 1.3-1.1 2.4-2.4 2.4z" class="st3"/><path d="M19.9 27.2h-2.6c-.5 0-.9-.4-.9-.9v-2.6c0-.5.4-.9.9-.9h2.6c.5 0 .9.4.9.9v2.6c0 .5-.4.9-.9.9z" class="st4"/><path d="M40.1 23.5H22.5M40.1 25H22.5m17.6 1.5H22.5" class="st5"/><path d="M33.3 41H9.7c-1.3 0-2.4-1.1-2.4-2.4v-3.2c0-1.3 1.1-2.4 2.4-2.4h23.6c1.3 0 2.4 1.1 2.4 2.4v3.2c0 1.4-1.1 2.4-2.4 2.4z" class="st3"/><path d="M12.9 39.3h-2.6c-.5 0-.9-.4-.9-.9v-2.6c0-.5.4-.9.9-.9h2.6c.5 0 .9.4.9.9v2.6c0 .5-.4.9-.9.9z" class="st4"/><path d="M33.2 35.6H15.5m17.7 1.5H15.5m17.7 1.5H15.5" class="st5"/></svg>