<svg xmlns="http://www.w3.org/2000/svg" id="Layer_1" x="0" y="0" version="1.1" viewBox="0 0 50 50" xml:space="preserve"><style>.st2,.st3{fill:#494949}.st3{stroke:#4a494a;stroke-linecap:round;stroke-linejoin:round;stroke-miterlimit:10}</style><path fill="#e589ef" d="M49.1 4v14.2L47 19l-1.8.6-.6.2-4.6 1.7-4.3 1.6-2.1.8-2 .8-7.6 2.7-2.1.8-1.9.7-5.6 2.1-11.5 4.1-2 .8V19.1l2-.8 13.4-4.9.8-.3 1.2-.5 1.9-.7 2.5-.9 5.4-2h.3l3.3-1.2 2-.8 5.7-2 2.1-.8L45 2.9h3.1c.6 0 1 .5 1 1.1z"/><path fill="#f799ff" d="M46.7 2.9l-3.5 1.3-2.1.8-7.4 2.7-2 .8-7.2 2.7-2.5.8-3.1 1.1-.5.2-2.1.8L2.9 19l-2 .8V4c0-.6.5-1 1-1l44.8-.1z"/><path d="M48.1 2.9H1.9c-.6 0-1 .5-1 1V46c0 .6.5 1 1 1h46.2c.6 0 1-.5 1-1V4c0-.6-.4-1.1-1-1.1zm-1 42.1H2.9V5h44.2v40z" class="st2"/><path d="M31.7 42.1h2.1v4h-2.1zm0-38.1h2.1v32.1h-2.1zM16.3 32.9h2.1v13.2h-2.1zm0-29.6h2.1v23.5h-2.1z" class="st2"/><path d="M1.9 11.1h46.5v2.1H1.9z" class="st2"/><path d="M7.7 7.1h2.2v2.1H7.7zm14.6 0h2.2v2.1h-2.2zm3.9 0h2.2v2.1h-2.2zm9.4 0h2.2v2.1h-2.2zm3.9 0h2.2v2.1h-2.2zm3.9 0h2.2v2.1h-2.2zM8.8 28.8H25v2.1H8.8z" class="st3"/><path d="M22.3 34l-1.4-1.4 2.7-2.7-2.7-2.7 1.4-1.4 3.5 3.5c.4.4.4 1 0 1.4L22.3 34zm2.8 4h16.2v2.1H25.1z" class="st3"/><path d="M38.7 43.2l-1.4-1.4 2.7-2.7-2.7-2.7 1.4-1.4 3.5 3.5c.4.4.4 1 0 1.4l-3.5 3.3z" class="st3"/><path fill="none" stroke="#494949" stroke-linecap="round" stroke-linejoin="round" stroke-miterlimit="10" d="M35.8 15.5h9.5v4.3h-9.5zm0 6h9.5v4.3h-9.5zm0 5.9h9.5v4.3h-9.5zM20.1 15.5h9.5v4.3h-9.5zm-15 0h9.5v4.3H5.1zm0 6h9.5v4.3H5.1z"/></svg>