<?xml version="1.0" encoding="utf-8"?>
<!-- Generator: Adobe Illustrator 26.5.0, SVG Export Plug-In . SVG Version: 6.00 Build 0)  -->
<svg version="1.1" id="Layer_1" xmlns="http://www.w3.org/2000/svg" xmlns:xlink="http://www.w3.org/1999/xlink" x="0px" y="0px"
	 viewBox="0 0 50 50" style="enable-background:new 0 0 50 50;" xml:space="preserve">
<style type="text/css">
	.st0{fill:#A475EF;}
	.st1{fill:#BF94F7;}
	.st2{fill:none;}
	.st3{fill:#444444;}
</style>
<path class="st0" d="M48.5,2.49v20l-5.2,1.9l-9.1,3.3l-4.1,1.5l-0.7,0.2l-12.3,4.5l-9.4,3.4l-5,1.8V2.49H48.5z"/>
<path class="st1" d="M47.93,2.49v4.8l-5,1.8l-4.8,1.7l-2.2,0.8l-2.2,0.8l-21.5,7.8l-5.2,1.9l-5,1.8V2.49H47.93z"/>
<path class="st2" d="M21.7,34.09h7.5v7.5h-7.5V34.09z M7.7,20.19h9.5v9.5H7.7V20.19z M21.7,21.19h7.5v7.5h-7.5V21.19z M7.7,33.09
	h9.5v9.5H7.7V33.09z"/>
<path class="st3" d="M17.5,29.69v-10H7.2v10.5h10.3V29.69z M17,29.69H7.7v-9.5h9.5v9.5H17z M30.7,19.69H20.3v10.5h10.5v-10.5H30.7z
	 M29.3,28.69h-7.5v-7.5h7.5V28.69z M33.5,19.59h10.6v10.6H33.5V19.59z M7.7,32.59H7.2v10.5h10.3v-10.5H7.7z M17,42.59H7.7v-9.5h9.5
	L17,42.59L17,42.59z M20.3,43.09h10.5v-10.5H20.3V43.09z M21.7,34.09h7.5v7.5h-7.5V34.09z M37.3,12.29L35,9.99l-1.5,1.5l3.8,3.8
	l6.9-6.9l-1.5-1.5L37.3,12.29z"/>
<path class="st3" d="M1.4,1.29v48.2H30c0.7,0,1.2-0.6,1.2-1.2s-0.6-1.2-1.2-1.2H4V3.79h43.2v25c0,0.7,0.6,1.2,1.2,1.2
	s1.2-0.6,1.2-1.2V1.29H1.4z"/>
</svg>
