<?xml version="1.0" encoding="utf-8"?>
<!-- Generator: Adobe Illustrator 26.2.1, SVG Export Plug-In . SVG Version: 6.00 Build 0)  -->
<svg version="1.1" id="Layer_1" xmlns="http://www.w3.org/2000/svg" xmlns:xlink="http://www.w3.org/1999/xlink" x="0px" y="0px"
	 viewBox="0 0 50 50" style="enable-background:new 0 0 50 50;" xml:space="preserve">
<style type="text/css">
	.st0{fill:#E589EF;}
	.st1{fill:#F799FF;}
	.st2{fill:#494949;}
	.st3{fill:#494949;stroke:#4A494A;stroke-linecap:round;stroke-linejoin:round;stroke-miterlimit:10;}
	.st4{fill:none;stroke:#494949;stroke-linecap:round;stroke-linejoin:round;stroke-miterlimit:10;}
</style>
<g>
	<g>
		<path class="st0" d="M49.1,4v14.2L47,19l-1.8,0.6l-0.6,0.2L40,21.5l-4.3,1.6l-2.1,0.8l-2,0.8L24,27.4l-2.1,0.8L20,28.9L14.4,31
			L2.9,35.1l-2,0.8V19.1l2-0.8l13.4-4.9l0.8-0.3l1.2-0.5l1.9-0.7l2.5-0.9l5.4-2l0.3,0l3.3-1.2l2-0.8l5.7-2l2.1-0.8L45,2.9h3.1
			C48.7,2.9,49.1,3.4,49.1,4z"/>
	</g>
	<g>
		<path class="st1" d="M46.7,2.9l-3.5,1.3L41.1,5l-7.4,2.7l-2,0.8l-7.2,2.7L22,12l-3.1,1.1l-0.5,0.2l-2.1,0.8L2.9,19l-2,0.8V4
			c0-0.6,0.5-1,1-1L46.7,2.9L46.7,2.9z"/>
	</g>
	<g>
		<g>
			<g>
				<path class="st2" d="M48.1,2.9H1.9c-0.6,0-1,0.5-1,1V46c0,0.6,0.5,1,1,1h46.2c0.6,0,1-0.5,1-1V4C49.1,3.4,48.7,2.9,48.1,2.9z
					 M47.1,45H2.9V5h44.2C47.1,5,47.1,45,47.1,45z"/>
			</g>
			<rect x="31.7" y="42.1" class="st2" width="2.1" height="4"/>
			<rect x="31.7" y="4" class="st2" width="2.1" height="32.1"/>
			<rect x="16.3" y="32.9" class="st2" width="2.1" height="13.2"/>
			<rect x="16.3" y="3.3" class="st2" width="2.1" height="23.5"/>
			<rect x="1.9" y="11.1" class="st2" width="46.5" height="2.1"/>
			<rect x="7.7" y="7.1" class="st3" width="2.2" height="2.1"/>
			<g>
				<rect x="22.3" y="7.1" class="st3" width="2.2" height="2.1"/>
				<rect x="26.2" y="7.1" class="st3" width="2.2" height="2.1"/>
			</g>
			<g>
				<rect x="35.6" y="7.1" class="st3" width="2.2" height="2.1"/>
				<rect x="39.5" y="7.1" class="st3" width="2.2" height="2.1"/>
				<rect x="43.4" y="7.1" class="st3" width="2.2" height="2.1"/>
			</g>
			<g>
				<rect x="8.8" y="28.8" class="st3" width="16.2" height="2.1"/>
				<path class="st3" d="M22.3,34l-1.4-1.4l2.7-2.7l-2.7-2.7l1.4-1.4l3.5,3.5c0.4,0.4,0.4,1,0,1.4L22.3,34z"/>
			</g>
			<g>
				<rect x="25.1" y="38" class="st3" width="16.2" height="2.1"/>
				<path class="st3" d="M38.7,43.2l-1.4-1.4l2.7-2.7l-2.7-2.7l1.4-1.4l3.5,3.5c0.4,0.4,0.4,1,0,1.4L38.7,43.2z"/>
			</g>
		</g>
	</g>
	<rect x="35.8" y="15.5" class="st4" width="9.5" height="4.3"/>
	<rect x="35.8" y="21.5" class="st4" width="9.5" height="4.3"/>
	<rect x="35.8" y="27.4" class="st4" width="9.5" height="4.3"/>
	<rect x="20.1" y="15.5" class="st4" width="9.5" height="4.3"/>
	<rect x="5.1" y="15.5" class="st4" width="9.5" height="4.3"/>
	<rect x="5.1" y="21.5" class="st4" width="9.5" height="4.3"/>
</g>
</svg>
