<svg xmlns="http://www.w3.org/2000/svg" id="Camada_3" x="0" y="0" version="1.1" viewBox="0 0 50 50" xml:space="preserve"><style>.st0{fill:#afe55d}.st1{fill:#c3ff68}.st2{fill:#444}.st3,.st8{fill:none;stroke:#444;stroke-miterlimit:10}.st8{stroke-width:.75;stroke-linecap:round;stroke-linejoin:round}</style><path d="M103.4 253.6l5.9 6.2 5.9.1 29.2-10.3-3.9-3.9c.3-1.6 5.1-9.6 3.9-10.6l-5-4.6-7.4-.5c-1.2-1-5-4.5-6.5-4l-17.1 6.4c-1.5.6-2.6 1.9-2.8 3.4l.6 8.9c-.3 1.5-4 7.8-2.8 8.9z" class="st0"/><path d="M139.3 231.2l-6.9-1.5-5-5.1c-1.3-1.1-7.4-.1-9 .4l-3.5 5.4-6.1 1.1c-1.6.6-4.7 3.4-4.9 5.1l1 7.1 34.4-12.5z" class="st1"/><circle cx="123.1" cy="244.5" r="4.5" class="st2"/><path d="M141.2 244.5c1.4-1.3 2.5-2.9 2.9-4.8.5-2.3.2-4.7-1-6.7s-3.1-3.5-5.3-4.2c-1.9-.6-3.8-.5-5.6.1-.4-1.9-1.3-3.6-2.7-4.9a9.1 9.1 0 00-6.3-2.5c-2.3 0-4.6.9-6.3 2.5-1.4 1.3-2.4 3-2.7 4.9-1.8-.6-3.8-.7-5.6-.1-2.2.7-4.1 2.2-5.3 4.2-1.2 2-1.5 4.4-1 6.7.4 1.9 1.5 3.6 2.9 4.8-1.4 1.3-2.5 2.9-2.9 4.8-.5 2.3-.2 4.7 1 6.7s3.1 3.5 5.3 4.2c1.9.6 3.8.5 5.6-.1.4 1.9 1.3 3.6 2.7 4.9a9.1 9.1 0 006.3 2.5c2.2 0 4.3-.8 6-2.3-.7-.6-1.4-1.2-2.1-1.9-1.1.8-2.5 1.2-3.9 1.2-3.7 0-6.8-2.9-7-6.6 0-.3-.2-.5-.4-.6-.1-.1-.3-.1-.4-.1-.1 0-.2 0-.4.1-3.3 1.6-7.4.4-9.2-2.8-1.9-3.2-.9-7.3 2.2-9.4.2-.1.4-.4.4-.7 0-.3-.1-.5-.4-.7-3.1-2.1-4-6.2-2.2-9.4 1.9-3.2 5.9-4.4 9.2-2.8.2.1.5.1.8 0 .2-.1.4-.4.4-.6.2-3.7 3.3-6.6 7-6.6s6.8 2.9 7 6.6c0 .3.2.5.4.6.2.1.5.1.8 0 3.3-1.6 7.4-.4 9.2 2.8 1.9 3.2.9 7.3-2.2 9.4-.2.1-.4.4-.4.7 0 .3.1.5.4.7 3.1 2.1 4 6.2 2.2 9.4-.5.8-1.1 1.5-1.8 2 .7.7 1.4 1.3 2.1 2 .9-.7 1.6-1.5 2.1-2.5 1.2-2 1.5-4.4 1-6.7-.4-1.8-1.4-3.5-2.8-4.8z" class="st2"/><path d="M127.1 265.3c-.5-.5-.7-1.5-.1-1.9.7-.5 1.6-.6 2.2-.1s.5 1.4-.1 1.9c-.5.6-1.5.6-2 .1zm13.8-6.8c.5-.5.3-1.5-.2-2s-1.4-.5-1.9 0-.7 1.5-.2 2c.4.6 1.8.5 2.3 0z" class="st2"/><path d="M107.8 234.4s7.6 2.3 7.6 10.2-7.6 9.6-7.6 9.6" class="st3"/><path d="M125.5 226.9s1.7 7.9-6.2 12-13.4-.3-13.4-.3" class="st3"/><path d="M140.5 238.5s-7 4.1-14 .5-5.6-12.2-5.6-12.2" class="st3"/><path d="M138.2 254.2s-7.4-.4-7.1-10.4c.3-9 7.1-8.9 7.1-8.9" class="st3"/><path d="M121.1 262.2s-2.3-9.3 6.2-12.4 12.7.5 12.7.5" class="st3"/><path d="M106.3 250.1s7.4-4.4 14 0c6.2 4.1 5.2 12.1 5.2 12.1" class="st3"/><path fill="#71bac0" d="M306 306.5l-23.1 8.5-9.4.1-4.1-1-1.8-.7v-16.1l37.6-8.5 1.3 5.7"/><path fill="#7ed0d6" d="M267.2 295.2l.1 4.4-.2 3.7 38.6-14.1-6-1.4-8.4.6-4.9-.2z"/><path d="M300.4 312.8c.8-1.3 1.2-2.9 1.2-4.5 0-5.1-4.2-9.3-9.3-9.3-5.1 0-9.3 4.2-9.3 9.3 0 5.1 4.2 9.3 9.3 9.3 2 0 3.8-.6 5.4-1.7l5.8 5.8c.4.4.9.6 1.5.6 1.1 0 2.1-.9 2.1-2.1 0-.6-.2-1.1-.6-1.5l-6.1-5.9zm-16.2-4.6c0-4.4 3.6-8 8-8s8 3.6 8 8-3.6 8-8 8-8-3.6-8-8zm20.6 12.7c-.2 0-.4-.1-.5-.2l-5.7-5.7c.4-.3.7-.7 1-1.1l5.7 5.7c.1.1.2.3.2.5.1.5-.3.8-.7.8z" class="st2"/><circle cx="292.2" cy="308.2" r="7.5" fill="none" stroke="#444" stroke-miterlimit="10" stroke-width="2"/><path fill="none" stroke="#444" stroke-linecap="round" stroke-linejoin="round" stroke-miterlimit="10" stroke-width="2.5" d="M280.2 321.6h13.4m-2.1-2.3l.7 2.2h-10.7l1.6-6.7h-13.6s-2.1-.4-2.1-2.4v-21.9s0-2.4 2.8-2.4h33.3s2.6 0 2.6 2.7v20.7s-.1.9-.6 1.7"/><path d="M280.9 308.1v-5.7s-.2-1-1.4-1c-1.4 0-1.5.9-1.5.9v5.5" class="st2"/><path d="M269.8 308.2H282" class="st8"/><path d="M272.7 307.9v-4.2s0-.8 1.5-.8 1.5.9 1.5.9v4.1m10.7-8.3V298s0-.9-1.5-.9-1.5.8-1.5.8v5s.6-1.5 2.9-3.1l.1-.2zm5.3-2.1v-4.1s0-.9-1.5-.9-1.5.8-1.5.8v5.2s2-.6 2.9-.6l.1-.4zm5.3 1.2v-2.1s0-.9-1.5-.9-1.5.8-1.5.8v1.6s1.9.4 2.9 1l.1-.4zm5.4 7.2v-12.8s0-.9-1.5-.9-1.5.8-1.5.8v7.8c.1.1 2.5 1.7 3 5.1z" class="st2"/><path fill="none" stroke="#444" stroke-linecap="round" stroke-linejoin="round" stroke-miterlimit="10" d="M267.4 311h14.2m20.6 0h4"/><path d="M287.8 307.1s.1-1.1 1-2.1c.5-.6 1.5-1.2 2.7-1.2m1.4 0s.5 0 1 .3" class="st8"/><path fill="none" stroke="#444" stroke-linecap="round" stroke-linejoin="round" stroke-miterlimit="10" stroke-width="2" d="M298.2 314.5l6.6 6.4.8-.8-6.5-6.2"/><path d="M3.5 34.8l6.4 6.7 6.4.1L47 30.8l-3.3-4.5c.3-1.7 4-9.7 2.6-10.9l-3.9-5.6-8.1-.6C33 8 29 4.2 27.4 4.9L8.8 11.8c-1.6.6-2.8 2-3.1 3.7l.6 9.6c-.2 1.7-4.2 8.6-2.8 9.7z" class="st0"/><path d="M42.4 10.5L35 8.8l-5.4-5.6c-1.4-1.2-8-.2-9.7.5L16 9.5l-6.6 1.2c-1.7.6-5.1 3.7-5.4 5.5L5 24l37.4-13.5z" class="st1"/><circle cx="24.9" cy="25" r="4.9" class="st2"/><path d="M44.4 25c1.6-1.4 2.7-3.2 3.2-5.2.6-2.5.2-5.1-1.1-7.3s-3.3-3.8-5.8-4.6c-2-.6-4.1-.6-6.1.1-.4-2-1.4-3.9-3-5.3C29.8 1 27.4 0 24.9 0s-5 1-6.8 2.7c-1.5 1.4-2.6 3.3-3 5.3-2-.6-4.1-.7-6.1-.1-2.4.7-4.5 2.4-5.8 4.6-1.3 2.2-1.7 4.8-1.1 7.3.5 2.1 1.6 3.9 3.2 5.2-1.6 1.4-2.7 3.2-3.2 5.2-.6 2.5-.2 5.1 1.1 7.3s3.3 3.8 5.8 4.6c2 .6 4.1.6 6.1-.1.4 2 1.4 3.9 3 5.3C20 49 22.4 50 24.9 50c2.4 0 4.7-.9 6.5-2.4-.8-.7-1.6-1.3-2.3-2-1.2.8-2.7 1.3-4.2 1.3-4 0-7.4-3.1-7.6-7.1 0-.3-.2-.6-.4-.7-.1-.1-.3-.1-.4-.1-.1 0-.3 0-.4.1-3.6 1.8-8 .4-10-3s-1-8 2.4-10.2c.2-.2.4-.4.4-.7 0-.3-.1-.6-.4-.7C5 22 4 17.6 6 14.1s6.4-4.8 10-3c.3.1.6.1.8 0 .3-.1.4-.4.4-.7.3-4 3.6-7.1 7.6-7.1s7.4 3.1 7.6 7.1c0 .3.2.6.4.7.3.1.6.2.8 0 3.6-1.8 8-.4 10 3 2 3.5 1 8-2.4 10.2 0 .1-.2.4-.2.7 0 .3.1.6.4.7 3.3 2.2 4.4 6.7 2.4 10.2-.5.9-1.2 1.6-1.9 2.2.8.7 1.5 1.4 2.3 2.1.9-.8 1.7-1.7 2.3-2.7 1.3-2.2 1.7-4.8 1.1-7.3-.5-2-1.6-3.8-3.2-5.2z" class="st2"/><path d="M29.2 47.6c-.6-.6-.7-1.6-.1-2.1.8-.5 1.8-.6 2.3-.1.6.6.6 1.6 0 2.2s-1.6.5-2.2 0zm15-7.4c.6-.5.4-1.6-.2-2.1-.6-.5-1.5-.5-2.1 0-.6.5-.7 1.6-.2 2.2.4.5 1.9.4 2.5-.1z" class="st2"/><path d="M8.2 14s8.2 2.5 8.2 11.1-8.2 10.4-8.2 10.4" class="st3"/><path d="M27.4 5.8s1.9 8.6-6.8 13-14.5-.3-14.5-.3" class="st3"/><path d="M43.7 18.4s-7.6 4.5-15.3.6-6.1-13.2-6.1-13.2" class="st3"/><path d="M41.3 35.5s-8.1-.5-7.7-11.3c.3-9.7 7.7-9.7 7.7-9.7" class="st3"/><path d="M22.6 44.2s-2.4-10.1 6.7-13.5 13.8.6 13.8.6" class="st3"/><path d="M6.5 31.1s8-4.7 15.2 0c6.7 4.4 5.6 13.1 5.6 13.1" class="st3"/></svg>