<svg xmlns="http://www.w3.org/2000/svg" id="Camada_3" x="0" y="0" version="1.1" viewBox="0 0 50 50" xml:space="preserve"><style>.st3,.st4{fill:none;stroke-linecap:round;stroke-linejoin:round;stroke-miterlimit:10;stroke:#444}.st4{stroke-width:2.5}</style><path fill="#00dffc" d="M769 1206.7h-43.8c-1.2 0-2.1.9-2.1 2.1v17.3l44.5-15.2c.1 0 0-.4 0-.5 0-1.2 2.6-3.7 1.4-3.7z"/><path fill="#00c8e2" d="M723.1 1226.1v25.9l34.8-12.4-8.9-10.8 13-13.1 4.8-5.2z"/><path d="M768.5 1207.3l-44.4 44.4m26.4-45.7l-27.6 27.3" class="st3"/><path d="M753.6 1252.5h-28.9c-1.1 0-2.1-.9-2.1-2.1V1208c0-1.1.9-2.1 2.1-2.1h43.2c1.4 0 2.1 1.7 1.1 2.7l-20.9 20.7 9.9 9.9 7.9 7.9" class="st4"/><path fill="#c3ff68" d="M47.9 2.4H4.1C2.9 2.4 2 3.3 2 4.5v17.3L46.5 6.6c.1 0 0-.4 0-.5 0-1.2 2.6-3.7 1.4-3.7z"/><path fill="#afe55d" d="M2 21.8v25.9l34.8-12.4-9.2-10.1 13.3-13.8 4.8-5.2z"/><path d="M47.4 3.1L3.1 47.4M29.4 1.8L1.9 29" class="st3"/><path d="M32.5 48.2H3.6c-1.1 0-2.1-.9-2.1-2.1V3.8c0-1.1.9-2.1 2.1-2.1h43.2c1.4 0 2.1 1.7 1.1 2.7L26.4 25.2 36.9 35l7.9 7.9" class="st4"/></svg>
