<svg width="50" height="50" viewBox="0 0 50 50" fill="none" xmlns="http://www.w3.org/2000/svg">
<g clip-path="url(#clip0_1401_2)">
<path d="M47.9 2.3999H4.1C2.9 2.3999 2 3.2999 2 4.4999V21.7999L46.5 6.5999C46.6 6.5999 46.5 6.1999 46.5 6.0999C46.5 4.8999 49.1 2.3999 47.9 2.3999Z" fill="#C3FF68"/>
<path d="M2 21.8V47.7L36.8 35.2999L27.6 25.2L40.9 11.4L45.7 6.19995L2 21.8Z" fill="#AFE55D"/>
<path d="M47.3999 3.10005L3.0999 47.4001M29.3999 1.80005L1.8999 29" stroke="#444444" stroke-miterlimit="10" stroke-linecap="round" stroke-linejoin="round"/>
<path d="M32.5 48.2H3.6C2.5 48.2 1.5 47.2999 1.5 46.0999V3.79995C1.5 2.69995 2.4 1.69995 3.6 1.69995H46.8C48.2 1.69995 48.9 3.39995 47.9 4.39995L26.4 25.2L36.9 35L44.8 42.9" stroke="#444444" stroke-width="2.5" stroke-miterlimit="10" stroke-linecap="round" stroke-linejoin="round"/>
</g>
<defs>
<clipPath id="clip0_1401_2">
<rect width="50" height="50" fill="white"/>
</clipPath>
</defs>
</svg>
