<?xml version="1.0" encoding="utf-8"?>
<!-- Generator: Adobe Illustrator 26.5.0, SVG Export Plug-In . SVG Version: 6.00 Build 0)  -->
<svg version="1.1" id="Camada_3" xmlns="http://www.w3.org/2000/svg" xmlns:xlink="http://www.w3.org/1999/xlink" x="0px" y="0px"
	 viewBox="0 0 50 50" style="enable-background:new 0 0 50 50;" xml:space="preserve">
<style type="text/css">
	.st0{fill:#00DFFC;}
	.st1{fill:#00C8E2;}
	.st2{fill:none;stroke:#444444;stroke-width:2.5;stroke-linecap:round;stroke-linejoin:round;stroke-miterlimit:10;}
	.st3{fill:none;stroke:#444444;stroke-width:1.5;stroke-linecap:round;stroke-linejoin:round;stroke-miterlimit:10;}
</style>
<g>
	<g>
		<polygon class="st0" points="46.82,10.35 46.28,17.72 3.07,33.45 3.07,24.1 3.38,19.87 2.73,3.35 46.93,4.02 		"/>
		<polygon class="st1" points="46.6,26.23 46.98,30.34 2.73,46.44 2.86,37.78 3.19,21.8 47.27,5.76 46.6,20.31 		"/>
		<polyline class="st2" points="32.59,47.22 2.63,47.22 2.63,2.78 47.37,2.78 47.37,37.22 		"/>
	</g>
	<g>
		<g>
			<line class="st3" x1="20.01" y1="7.07" x2="9.71" y2="17.5"/>
			<line class="st3" x1="28.02" y1="7.07" x2="9.16" y2="26.16"/>
			<polyline class="st3" points="9.72,34.89 37.21,7.07 9.16,7.07 9.16,42.93 37.61,42.89 22.37,22.46 			"/>
			<line class="st3" x1="18.23" y1="26.98" x2="30.13" y2="42.93"/>
			<line class="st3" x1="22.76" y1="42.93" x2="13.81" y2="30.93"/>
		</g>
		<g>
			<line class="st3" x1="36.38" y1="27.79" x2="40.84" y2="27.79"/>
			<polyline class="st3" points="31.92,28.35 35.82,25 31.92,21.65 			"/>
		</g>
	</g>
</g>
</svg>
