<?xml version="1.0" encoding="utf-8"?>
<!-- Generator: Adobe Illustrator 27.7.0, SVG Export Plug-In . SVG Version: 6.00 Build 0)  -->
<svg version="1.1" id="Camada_3" xmlns="http://www.w3.org/2000/svg" xmlns:xlink="http://www.w3.org/1999/xlink" x="0px" y="0px"
	 viewBox="0 0 50 50" style="enable-background:new 0 0 50 50;" xml:space="preserve">
<style type="text/css">
	.st0{fill:#00DFFC;}
	.st1{fill:#00C8E2;}
	.st2{fill:none;stroke:#000000;stroke-linecap:round;stroke-linejoin:round;stroke-miterlimit:10;}
	.st3{fill:none;stroke:#444444;stroke-linecap:round;stroke-linejoin:round;stroke-miterlimit:10;}
	.st4{fill:none;stroke:#444444;stroke-width:2.5;stroke-linecap:round;stroke-linejoin:round;stroke-miterlimit:10;}
	.st5{fill:#C3FF68;}
	.st6{fill:#AFE55D;}
</style>
<g>
	<g>
		<path class="st0" d="M769,1206.7h-43.8c-1.2,0-2.1,0.9-2.1,2.1v17.3l44.5-15.2c0.1,0,0-0.4,0-0.5l0,0
			C767.6,1209.2,770.2,1206.7,769,1206.7z"/>
		<polygon class="st1" points="723.1,1226.1 723.1,1252 757.9,1239.6 749,1228.8 762,1215.7 766.8,1210.5 		"/>
	</g>
	<path class="st2" d="M724.4,1251.7"/>
	<path class="st2" d="M746.6,1229.5"/>
	<g>
		<line class="st3" x1="768.5" y1="1207.3" x2="724.1" y2="1251.7"/>
		<line class="st3" x1="750.5" y1="1206" x2="722.9" y2="1233.3"/>
	</g>
	<path class="st4" d="M753.6,1252.5h-28.9c-1.1,0-2.1-0.9-2.1-2.1v-42.4c0-1.1,0.9-2.1,2.1-2.1h43.2c1.4,0,2.1,1.7,1.1,2.7
		l-20.9,20.7l9.9,9.9l7.9,7.9"/>
</g>
<g>
	<g>
		<path class="st5" d="M47.9,2.4H4.1C2.9,2.4,2,3.3,2,4.5v17.3L46.5,6.6c0.1,0,0-0.4,0-0.5l0,0C46.5,4.9,49.1,2.4,47.9,2.4z"/>
		<polygon class="st6" points="2,21.8 2,47.7 36.8,35.3 27.6,25.2 40.9,11.4 45.7,6.2 		"/>
	</g>
	<path class="st2" d="M3.3,47.4"/>
	<path class="st2" d="M25.5,25.2"/>
	<g>
		<line class="st3" x1="47.4" y1="3.1" x2="3.1" y2="47.4"/>
		<line class="st3" x1="29.4" y1="1.8" x2="1.9" y2="29"/>
	</g>
	<path class="st4" d="M32.5,48.2H3.6c-1.1,0-2.1-0.9-2.1-2.1V3.8c0-1.1,0.9-2.1,2.1-2.1h43.2c1.4,0,2.1,1.7,1.1,2.7L26.4,25.2
		L36.9,35l7.9,7.9"/>
</g>
</svg>
