<?xml version="1.0" encoding="utf-8"?>
<!-- Generator: Adobe Illustrator 24.0.0, SVG Export Plug-In . SVG Version: 6.00 Build 0)  -->
<svg version="1.1" id="Layer_1" xmlns="http://www.w3.org/2000/svg" xmlns:xlink="http://www.w3.org/1999/xlink" x="0px" y="0px"
	 viewBox="0 0 50 50" style="enable-background:new 0 0 50 50;" xml:space="preserve">
<style type="text/css">
	.st0{fill:#DC5E82;}
	.st1{fill:#F56991;}
	.st2{fill:#444444;}
</style>
<g>
	<polygon class="st0" points="47.6,9.8 47.7,16 16.9,47.4 10.3,47.4 3.6,47.5 2.4,39.6 2.4,32.7 32.1,2.5 47.6,2.9 	"/>
</g>
<g>
	<polygon class="st1" points="25.3,2.9 32,2.6 2.9,32.2 2.6,22.9 2.4,8.5 2.7,3 10.9,3 	"/>
</g>
<g>
	<path class="st2" d="M47.4,1.8H2.7C2,1.8,1.5,2.3,1.5,3v44.5c0,0.7,0.6,1.2,1.2,1.2h40c0.7,0,1.2-0.6,1.2-1.2s-0.6-1.2-1.2-1.2
		h-5.3l-18-24.1L37,4.3c0,0,0,0,0,0h9.2v26.6c0,0.7,0.6,1.2,1.2,1.2s1.2-0.6,1.2-1.2V3C48.7,2.3,48.1,1.8,47.4,1.8z M4,4.3h10.2
		L4,14.6V4.3z M4,16.8L16.3,4.3h7.5L4,24.4V16.8z M4,46.2v-8.5l4.1-4.2l9.5,12.7H4z M19.4,46.2L9.2,32.5l4-4l13.3,17.8H19.4z
		 M35.5,46.2h-7.2L14.2,27.3l4.1-4.1L35.5,46.2z M4,35.6v-9.1L26,4.3h9L4,35.6z"/>
</g>
</svg>
