<svg xmlns="http://www.w3.org/2000/svg" version="1" viewBox="0 0 50 50"><path fill="#DC5E82" d="M7.993 41.833a6.292 6.292 0 0 0 6.292 6.292c.079 0 .156-.012.234-.014l3.607-1.313c.479-.372.91-.804 1.264-1.297.44.132.887.248 1.339.35l20.314-7.394c-.059-.092-.108-.193-.172-.282a19.45 19.45 0 0 0 3.668-11.227 6.291 6.291 0 0 0-1.841-12.309 6.27 6.27 0 0 0-2.1.366 19.583 19.583 0 0 0-9.312-6.732c.001-.035.005-.069.005-.105a6.292 6.292 0 1 0-12.584 0c0 .036.005.07.005.105A19.579 19.579 0 0 0 9.4 15.005a6.27 6.27 0 0 0-2.1-.366 6.292 6.292 0 0 0-1.841 12.309 19.448 19.448 0 0 0 3.69 11.259 6.255 6.255 0 0 0-1.156 3.626z"/><path fill="#F56991" d="M31.336 8.285l-.033-.013c.001-.035.005-.069.005-.105a6.292 6.292 0 1 0-12.584 0c0 .036.005.07.005.105a19.579 19.579 0 0 0-9.312 6.732 6.266 6.266 0 0 0-2.1-.366 6.29 6.29 0 0 0-6.053 4.592L31.336 8.285z"/><g fill="#031326"><path d="M25 20.557a6.15 6.15 0 0 0-6.144 6.144c0 3.387 2.756 6.143 6.144 6.143s6.144-2.756 6.144-6.143A6.15 6.15 0 0 0 25 20.557z"/><path d="M41.929 13.839c-.519 0-1.036.057-1.547.17a19.865 19.865 0 0 0-8.155-5.897c-.395-3.638-3.485-6.48-7.227-6.48s-6.832 2.842-7.226 6.48a19.871 19.871 0 0 0-8.157 5.896 7.134 7.134 0 0 0-1.545-.169c-4.008 0-7.269 3.261-7.269 7.269a7.226 7.226 0 0 0 4.283 6.629 19.774 19.774 0 0 0 3.261 9.933 7.203 7.203 0 0 0-.863 3.43c0 4.008 3.26 7.269 7.268 7.269a7.28 7.28 0 0 0 5.333-2.34c3.494.889 7.224.807 10.676-.234a1.25 1.25 0 0 0 .835-1.558 1.23 1.23 0 0 0-.305-.497 4.857 4.857 0 0 1-.696-2.491 4.9 4.9 0 0 1 4.894-4.894c.136 0 .27.012.403.023.004 0 .007.004.012.004.003 0 .005-.003.007-.003a4.84 4.84 0 0 1 3.038 1.412 1.25 1.25 0 0 0 2.248.539 19.812 19.812 0 0 0 3.718-10.594 7.225 7.225 0 0 0 4.282-6.629c-.001-4.007-3.26-7.268-7.268-7.268zm-4.895 7.268c0-1.795.982-3.35 2.426-4.202l.014.019.863-.306a4.749 4.749 0 0 1 1.591-.279 4.774 4.774 0 0 1 4.768 4.769 4.743 4.743 0 0 1-3.373 4.56l-.876.268v.013c-.173.019-.342.052-.519.052a4.899 4.899 0 0 1-4.894-4.894zM30.61 10.184a17.394 17.394 0 0 1 8.312 6.009l.386.511a5.152 5.152 0 0 0-1.982 2.149c-1.988-3.125-5.137-5.406-8.704-6.307a5.14 5.14 0 0 0 1.401-2.561l.587.199zm-10.398-.279l.038-.013-.019-.992A4.775 4.775 0 0 1 25 4.131c2.629 0 4.769 2.139 4.77 4.722l-.033 1.033.052.018a4.901 4.901 0 0 1-4.788 3.89 4.9 4.9 0 0 1-4.789-3.889zm-.823.279l.587-.199a5.132 5.132 0 0 0 1.401 2.561c-3.566.901-6.716 3.182-8.704 6.307a5.152 5.152 0 0 0-1.982-2.149l.386-.511a17.401 17.401 0 0 1 8.312-6.009zM8.072 26.001c-.178 0-.346-.034-.519-.052v-.013l-.876-.268a4.743 4.743 0 0 1-3.373-4.56 4.775 4.775 0 0 1 4.769-4.769c.534 0 1.069.094 1.589.278l.863.307.014-.019c1.445.852 2.427 2.407 2.427 4.202a4.9 4.9 0 0 1-4.894 4.894zm-.511.851l-.006-.653c.172.018.34.052.517.052a5.08 5.08 0 0 0 2.352-.596c-.027.35-.048.695-.048 1.047 0 3.478 1.246 6.832 3.5 9.478a5.097 5.097 0 0 0-2.652 1.231l-.37-.512a17.312 17.312 0 0 1-3.293-10.047zm11.946 14.397c0 .721-.166 1.4-.446 2.016l-.44.613a4.781 4.781 0 0 1-3.869 1.99 4.774 4.774 0 0 1-4.768-4.769c0-.987.303-1.938.876-2.746l.517-.729-.008-.01a4.857 4.857 0 0 1 3.245-1.258 4.898 4.898 0 0 1 4.893 4.893zm11.338 2.2a1.219 1.219 0 0 0-.806-.048c-3.25.979-6.783.986-10.045.009l-.632-.19a5.12 5.12 0 0 0 .396-1.972 5.09 5.09 0 0 0-.095-.938 14.532 14.532 0 0 0 10.782-.043 5.115 5.115 0 0 0-.099.981 5.095 5.095 0 0 0 .499 2.201zm-.321-3.476A14.293 14.293 0 0 1 25 41.077c-1.878 0-3.696-.356-5.407-1.055-.554-2.242-2.568-3.916-4.979-3.916-.152 0-.295.032-.444.045a14.367 14.367 0 0 1-3.545-9.448c0-.399.019-.788.055-1.187 1.51-.897 2.535-2.528 2.535-4.409a5.11 5.11 0 0 0-.409-2.008c1.981-3.182 5.183-5.496 8.803-6.361.908.803 2.086 1.306 3.391 1.306a5.098 5.098 0 0 0 3.39-1.306c3.621.864 6.822 3.179 8.803 6.361a5.11 5.11 0 0 0-.409 2.008c0 1.881 1.026 3.512 2.536 4.409.035.399.055.787.055 1.186 0 3.464-1.253 6.807-3.526 9.424-.12-.008-.239-.021-.361-.021-2.393 0-4.392 1.651-4.964 3.868zm8.643-3.102c-.13.181-.186.384-.209.591a5.08 5.08 0 0 0-2.81-1.311 14.607 14.607 0 0 0 3.476-9.448c0-.352-.021-.697-.049-1.047.708.368 1.5.596 2.352.596.177 0 .345-.035.517-.052l-.006.653a17.316 17.316 0 0 1-3.271 10.018z"/></g></svg>