<svg xmlns="http://www.w3.org/2000/svg" version="1" viewBox="0 0 50 50"><path fill="#A6C1C2" d="M8.627 41.206a6.058 6.058 0 006.058 6.058c.077 0 .15-.011.226-.014l3.472-1.264a6.08 6.08 0 001.217-1.249c.424.127.854.239 1.29.337l19.557-7.118c-.057-.089-.104-.185-.165-.272a18.729 18.729 0 003.531-10.809 6.06 6.06 0 00-1.773-11.851c-.71 0-1.388.128-2.021.353a18.853 18.853 0 00-8.965-6.481c.001-.034.005-.067.005-.101a6.058 6.058 0 00-12.116 0c0 .035.004.067.005.101a18.853 18.853 0 00-8.965 6.481 6.016 6.016 0 00-2.021-.353 6.058 6.058 0 00-1.773 11.851 18.727 18.727 0 003.552 10.839 6.014 6.014 0 00-1.114 3.492z"/><path fill="#B9D7D9" d="M31.099 8.908a1.02 1.02 0 01-.031-.012c.001-.034.005-.067.005-.101a6.058 6.058 0 00-12.116 0c0 .035.005.067.005.101a18.853 18.853 0 00-8.965 6.481 6.016 6.016 0 00-2.021-.353 6.056 6.056 0 00-5.828 4.421L31.099 8.908z"/><g fill="#031326"><circle cx="25" cy="26.711" r="6.058"/><path d="M42.039 13.787c-.525 0-1.047.058-1.564.173a19.963 19.963 0 00-8.222-5.943C31.863 4.359 28.759 1.5 25 1.5s-6.864 2.859-7.254 6.516a19.96 19.96 0 00-8.221 5.944 7.187 7.187 0 00-1.564-.173c-4.022 0-7.294 3.272-7.294 7.295a7.248 7.248 0 004.31 6.658 19.874 19.874 0 003.287 10.011 7.23 7.23 0 00-.874 3.455c0 4.023 3.272 7.294 7.294 7.294a7.311 7.311 0 005.361-2.357c3.518.895 7.271.816 10.747-.232a1.237 1.237 0 00.828-1.541 1.224 1.224 0 00-.958-.844 5.196 5.196 0 01-.548-2.32 5.25 5.25 0 015.244-5.244c1.417 0 2.734.558 3.713 1.546-.063.441.1.901.487 1.18a1.237 1.237 0 001.726-.282 19.903 19.903 0 003.738-10.666 7.247 7.247 0 004.31-6.658c.002-4.023-3.271-7.295-7.293-7.295zm-4.855 7.294c0-1.915 1.12-3.559 2.73-4.356a4.782 4.782 0 012.125-.464 4.828 4.828 0 014.822 4.821c0 2.134-1.343 4.013-3.383 4.637-.199.073-.41.128-.635.165a4.921 4.921 0 01-.782.073 4.882 4.882 0 01-4.877-4.876zm-6.53-11.014a17.535 17.535 0 018.377 6.056l.43.569a5.123 5.123 0 00-1.973 2.126l-.149-.22a14.722 14.722 0 00-8.467-6.142l-.337-.086a5.057 5.057 0 001.407-2.545l.712.242zM20.188 8.76c0-.331.034-.654.098-.966A4.827 4.827 0 0125 3.974c1.926 0 3.58 1.143 4.352 2.767.287.616.459 1.296.459 2.019A4.818 4.818 0 0125 13.572a4.818 4.818 0 01-4.812-4.812zm-.843 1.307l.713-.242c.212.985.71 1.862 1.405 2.543l-.331.086a14.726 14.726 0 00-8.469 6.134l-.135.198a5.114 5.114 0 00-1.982-2.104l.423-.56a17.532 17.532 0 018.376-6.055zM7.983 25.947a5.184 5.184 0 01-.89-.09 3.986 3.986 0 01-.563-.147c-1.252-.382-2.228-1.25-2.814-2.34l-.052-.095a4.898 4.898 0 01-.267-.633c-.009-.025-.015-.051-.024-.076A4.826 4.826 0 017.96 16.26a4.8 4.8 0 011.608.282c.188.061.376.14.564.234 1.589.802 2.717 2.407 2.717 4.304 0 2.685-2.183 4.883-4.866 4.867zm-.559.916l-.006-.702c.188.021.369.029.565.033.823 0 1.59-.214 2.28-.561l-.001.014-.013.231a14.753 14.753 0 003.269 10.126l.16.202.034.043a5.084 5.084 0 00-2.567 1.298l-.404-.559a17.462 17.462 0 01-3.317-10.125zm12.061 14.401a4.81 4.81 0 01-.731 2.531l-.158.22a4.833 4.833 0 01-3.911 2.012 4.826 4.826 0 01-4.821-4.821c0-.998.306-1.959.886-2.778.096-.143.203-.279.322-.408.889-.973 2.136-1.614 3.555-1.614a4.863 4.863 0 014.858 4.858zm10.904 2.249c-.103.004-.206-.002-.31.029a17.69 17.69 0 01-10.125.01l-.678-.203a5.067 5.067 0 00.456-2.085 5.03 5.03 0 00-.079-.782 14.634 14.634 0 005.346.999c1.687 0 3.333-.289 4.898-.844-.019.187-.03.377-.03.57.001.81.188 1.588.522 2.306zm-.45-3.15a14.365 14.365 0 01-4.94.869 14.42 14.42 0 01-5.281-.992l-.101-.039a5.112 5.112 0 00-4.992-4.045c-.213 0-.415.037-.621.063l-.132-.167a11.896 11.896 0 01-.161-.204A14.508 14.508 0 0110.51 25.66l.009-.167c1.532-.884 2.578-2.521 2.578-4.414 0-.73-.159-1.421-.436-2.05l.208-.305a14.475 14.475 0 018.326-6.033l.504-.131c.889.773 2.035 1.258 3.302 1.258 1.266 0 2.41-.484 3.299-1.255l.065.017.448.114a14.465 14.465 0 018.311 6.02c.008.019.162.244.232.347a5.092 5.092 0 00-.418 2.019c0 1.874 1.022 3.5 2.529 4.393l.015.199c.009.106.016.212.017.227a14.532 14.532 0 01-3.181 9.906 5.522 5.522 0 00-.957-.092c-2.743.001-5.014 2.022-5.422 4.65zm9.338-3.401c-.063.087-.09.186-.127.281a5.423 5.423 0 00-2.561-1.39 14.775 14.775 0 003.156-9.962l-.017-.238-.003-.039c.704.364 1.49.59 2.336.59.176-.006.347-.025.521-.043l-.006.702a17.479 17.479 0 01-3.299 10.099z"/></g></svg>