<?xml version="1.0" encoding="utf-8"?>
<!-- Generator: Adobe Illustrator 24.0.1, SVG Export Plug-In . SVG Version: 6.00 Build 0)  -->
<svg version="1.1" id="Layer_1" xmlns="http://www.w3.org/2000/svg" xmlns:xlink="http://www.w3.org/1999/xlink" x="0px" y="0px"
	 viewBox="0 0 50 50" style="enable-background:new 0 0 50 50;" xml:space="preserve">
<style type="text/css">
	.st0{fill:#FCC34F;}
	.st1{fill:#FDCF72;}
	.st2{fill:#444444;}
</style>
<g>
	<path class="st0" d="M47.7,24.6c0-2.6-0.5-5.2-1.3-7.5L13.8,5.2C7.2,9.1,2.7,16.3,2.7,24.6c0,0.8,0,1.7,0.1,2.5l37.9,13.8
		C45.1,36.8,47.7,31,47.7,24.6z"/>
</g>
<g>
	<path class="st1" d="M25.5,2.1c-4.3,0-8.3,1.2-11.7,3.2l33.4,12.1C44,8.5,35.5,2.1,25.5,2.1z"/>
</g>
<g>
	<path class="st2" d="M25.2,49.2c-0.4,0-0.8,0-1.2,0c-6.3-0.3-12.2-3.1-16.4-7.8S1.2,30.6,1.5,24.3c0.2-4,1.4-7.9,3.5-11.2
		c0.4-0.6,1.1-0.8,1.7-0.4c0.6,0.4,0.8,1.1,0.4,1.7c-1.9,3-2.9,6.5-3.1,10.1C3.7,30,5.6,35.4,9.4,39.6s9,6.7,14.7,7
		c11.7,0.6,21.7-8.4,22.3-20.1C47.1,14.8,38,4.8,26.3,4.2C22.6,4,18.9,4.8,15.6,6.5C15,6.8,14.2,6.6,13.9,6s-0.1-1.4,0.5-1.7
		c3.7-1.9,7.8-2.8,12-2.6c13.1,0.7,23.2,11.9,22.5,24.9C48.3,39.3,37.8,49.2,25.2,49.2z"/>
</g>
<g>
	<path class="st2" d="M25.2,44.8c-0.5,0-0.9,0-1.4,0c-5.2-0.4-9.9-2.7-13.2-6.6c-3.4-3.9-5-8.9-4.7-14.1c0.2-3.2,1.3-6.4,3-9.1
		c0.1-0.2,0.5-0.3,0.7-0.1c0.2,0.1,0.3,0.5,0.1,0.7C8.1,18,7.1,21,6.9,24.1c-0.3,4.9,1.2,9.6,4.4,13.3s7.7,5.9,12.6,6.3
		c10.1,0.7,18.9-6.9,19.6-17c0.7-10.1-6.9-18.9-17-19.6c-3.2-0.2-6.4,0.4-9.3,1.8c-0.2,0.1-0.5,0-0.7-0.2c-0.1-0.2,0-0.5,0.2-0.7
		c3-1.5,6.4-2.1,9.8-1.9c10.6,0.8,18.7,10,17.9,20.7C43.8,37,35.3,44.8,25.2,44.8z"/>
</g>
<g>
	<path class="st2" d="M38.6,28.3c-1-1.5-2.2-2.2-3.7-2.1c-0.1,0-0.2-0.1-0.3-0.1l0,0c-0.7-0.7-1.4-1.3-2.1-2l-0.8-0.7
		c-0.1-0.1-0.3-0.3-0.4-0.4c-0.2-0.1-0.3-0.3-0.5-0.4c-0.1-0.1-0.2-0.2-0.3-0.3c-0.2-0.1-0.3-0.2-0.4-0.4l-0.4-0.6l0,0v-0.1
		c-0.3-1.1-0.8-2.2-1.7-3.3c-1.5-1.9-3.4-3.6-5.7-4.9s-4.7-2.8-7.1-4.3l-0.6-0.4c-3.1-1.9-6.4-3.9-9.5-6C4.6,2.2,4.2,2,3.7,2
		C3.1,1.9,2.5,2.1,2,2.5C1.6,3,1.4,3.7,1.5,4.3C1.6,5,2,5.4,2.4,5.8c1.9,1.9,4.1,4.1,6.3,6.4c1.4,1.4,2.7,2.9,4.1,4.3
		c0.5,0.5,1,1.1,1.5,1.7c0.8,0.8,1.6,1.7,2.4,2.5c0.2,0.2,0.4,0.3,0.5,0.5c0.3,0.3,0.6,0.6,1,0.9c0.7,0.6,1.4,1.1,2.1,1.6
		c0.7,0.4,1.6,1,2.6,1.4c0.6,0.3,1.1,0.4,1.6,0.6c0.4,0.1,0.8,0.2,1.2,0.2c0.1,0.3,0.4,0.5,0.7,0.7l0.1,0.1l0,0l0.2,0.1l0,0
		c0.2,0.1,0.3,0.2,0.5,0.4l0.3,0.2c1.2,0.9,2.2,1.7,3.3,2.3l0.2,0.1c0.2,0.1,0.4,0.3,0.6,0.4c0,0.3,0,0.6,0.1,0.9
		c0.1,0.6,0.4,1.1,0.6,1.6c-1.4,2.8-4.9,4.7-8.9,4.6c-3.1-0.1-5.8-1.4-7.4-3.3c-0.1,0.3-0.2,0.7-0.3,1c-0.4,3.3,3.7,6.4,9.1,7
		c4.4,0.5,8.3-0.8,9.9-3.1c0.1,0,0.2,0.1,0.3,0.1s0.3,0,0.5-0.1l0.1-0.1c0.1-0.1,0.2-0.1,0.3-0.2c1.6-1.1,2.6-2.4,3.2-3.9
		C40,32.3,39.9,30.2,38.6,28.3z M25.6,24.2c-0.3,0-0.5-0.1-0.8-0.1c-0.4-0.1-0.9-0.3-1.4-0.5c-0.9-0.4-1.7-0.9-2.3-1.3
		c-0.6-0.4-1.2-0.9-1.9-1.5c-0.3-0.3-0.6-0.6-0.9-0.8c-0.2-0.2-0.4-0.4-0.6-0.5c-0.8-0.8-1.6-1.6-2.3-2.4c-0.5-0.6-1-1.1-1.6-1.7
		c-1.4-1.4-2.7-2.8-4.1-4.2C7.6,8.8,5.3,6.5,3.5,4.7C3.2,4.4,3,4.2,3,3.9c0-0.2,0.1-0.3,0.1-0.4c0,0,0.2-0.2,0.4-0.1
		c0.2,0,0.5,0.1,0.7,0.3c3.2,2,6.4,4,9.6,6l0.6,0.4c2.4,1.5,4.9,2.9,7.2,4.3c2.1,1.2,3.9,2.8,5.3,4.5c0.7,0.9,1.1,1.7,1.4,2.5
		C27.1,21.8,26,23,25.6,24.2z M31.8,28.4l-0.2-0.2c-1-0.7-2.1-1.4-3.2-2.3L28,25.8c-0.2-0.1-0.4-0.3-0.5-0.4s-0.2-0.2-0.4-0.2H27
		c0-0.1,0-0.3,0-0.4c0.2-0.7,1-1.7,1.6-1.8c0.1,0,0.1,0,0.2,0c0.1,0.1,0.2,0.2,0.3,0.2c0.2,0.2,0.3,0.3,0.5,0.4
		c0.1,0.1,0.2,0.1,0.2,0.2c0.2,0.2,0.4,0.3,0.5,0.5c0.1,0.1,0.3,0.2,0.4,0.3l0.8,0.7c0.6,0.5,1.1,1.1,1.7,1.6
		C32.6,27.3,32.1,27.8,31.8,28.4C31.8,28.5,31.8,28.5,31.8,28.4z M37.7,34c-0.4,0.9-0.9,1.7-1.7,2.4c0-0.6-0.2-1.2-0.6-1.7
		c-0.3-0.5-0.6-1-1-1.4c-0.1-0.2-0.3-0.4-0.4-0.6c-0.4-0.6-0.8-1.2-1-2c0-0.4,0-0.7,0-1l0,0c0-0.1,0-0.1,0-0.2
		c0.2-0.9,0.8-1.5,1.8-1.8c1.1-0.1,1.9,0.3,2.6,1.4C38.3,30.6,38.4,32.2,37.7,34z"/>
</g>
</svg>
