<?xml version="1.0" encoding="utf-8"?>
<!-- Generator: Adobe Illustrator 28.0.0, SVG Export Plug-In . SVG Version: 6.00 Build 0)  -->
<svg version="1.1" id="Layer_1" xmlns="http://www.w3.org/2000/svg" xmlns:xlink="http://www.w3.org/1999/xlink" x="0px" y="0px"
	 viewBox="0 0 50 50" style="enable-background:new 0 0 50 50;" xml:space="preserve">
<style type="text/css">
	.st0{fill:#04AD49;}
	.st1{fill:#22DD6D;}
	.st2{fill:none;stroke:#444444;stroke-width:2.5;stroke-linecap:round;stroke-linejoin:round;stroke-miterlimit:10;}
	.st3{fill:none;stroke:#444444;stroke-width:0.5;stroke-miterlimit:10;}
	.st4{fill:none;stroke:#444444;stroke-linecap:round;stroke-miterlimit:10;}
</style>
<polygon class="st0" points="29.9,19.3 37.7,21.7 31,26.4 31.1,34.7 24.6,29.7 16.8,32.4 19.4,24.6 14.5,18 22.7,18.1 27.5,11.4 "/>
<path class="st1" d="M44.6,12.3l-5.6-3.6l-7.7-4.4l-6-2.8c-3.2,0-21.5,8.9-21.5,12.1l-0.5,7.8l0.5,15.1l11.5,7.6l31-11
	C47.1,32.6,45.6,14.3,44.6,12.3z"/>
<g>
	<g>
		<path class="st2" d="M29.9,46.4l-2.2,1.3c-1.7,1-3.8,1-5.5,0l-15.6-9c-1.7-1-2.7-2.8-2.7-4.7v-18c0-2,1-3.8,2.7-4.7l15.6-9
			c1.7-1,3.8-1,5.5,0l15.6,9c1.7,1,2.7,2.8,2.7,4.7v18c0,2-1,3.8-2.7,4.7l-2.5,1.4"/>
	</g>
</g>
<g>
	<path class="st3" d="M14.3,35.1V32c0-0.2,0.1-0.3,0.3-0.3h20.7c0.2,0,0.3,0.1,0.3,0.3v3.1"/>
	<line class="st3" x1="24.8" y1="26.6" x2="24.8" y2="35.3"/>
	<g>
		<line class="st3" x1="19.5" y1="31.7" x2="19.5" y2="35.1"/>
		<line class="st3" x1="30.5" y1="31.7" x2="30.5" y2="35.1"/>
	</g>
	<path class="st3" d="M15.7,38.5H13c-0.1,0-0.3-0.1-0.3-0.3v-2.7c0-0.1,0.1-0.3,0.3-0.3h2.7c0.1,0,0.3,0.1,0.3,0.3v2.7
		C16,38.4,15.8,38.5,15.7,38.5z"/>
	<path class="st3" d="M20.8,38.5h-2.7c-0.1,0-0.3-0.1-0.3-0.3v-2.7c0-0.1,0.1-0.3,0.3-0.3h2.7c0.1,0,0.3,0.1,0.3,0.3v2.7
		C21.1,38.4,21,38.5,20.8,38.5z"/>
	<path class="st3" d="M26.2,38.5h-2.7c-0.1,0-0.3-0.1-0.3-0.3v-2.7c0-0.1,0.1-0.3,0.3-0.3h2.7c0.1,0,0.3,0.1,0.3,0.3v2.7
		C26.4,38.4,26.3,38.5,26.2,38.5z"/>
	<path class="st3" d="M31.8,38.5h-2.7c-0.1,0-0.3-0.1-0.3-0.3v-2.7c0-0.1,0.1-0.3,0.3-0.3h2.7c0.1,0,0.3,0.1,0.3,0.3v2.7
		C32.1,38.4,32,38.5,31.8,38.5z"/>
	<path class="st3" d="M37,38.5h-2.7c-0.1,0-0.3-0.1-0.3-0.3v-2.7c0-0.1,0.1-0.3,0.3-0.3H37c0.1,0,0.3,0.1,0.3,0.3v2.7
		C37.2,38.4,37.1,38.5,37,38.5z"/>
</g>
<g>
	<circle class="st4" cx="24.8" cy="19.5" r="7"/>
	<circle class="st4" cx="24.8" cy="19.5" r="1.3"/>
	<line class="st4" x1="24.8" y1="18.1" x2="24.8" y2="9.5"/>
	<line class="st4" x1="32.6" y1="13.3" x2="25.8" y2="18.6"/>
	<line class="st4" x1="17" y1="13.2" x2="23.7" y2="18.6"/>
	<line class="st4" x1="20.6" y1="28.5" x2="24.2" y2="20.7"/>
	<line class="st4" x1="29.2" y1="28.5" x2="25.5" y2="20.6"/>
	<line class="st4" x1="15.1" y1="21.5" x2="23.5" y2="19.8"/>
	<line class="st4" x1="34.6" y1="21.5" x2="26.1" y2="19.8"/>
</g>
</svg>
