<svg xmlns="http://www.w3.org/2000/svg" viewBox="0 0 50 50"><defs><style>.cls-6{fill:#444}</style></defs><g id="Camada_1"><path fill="#5aba52" d="M42.7 35.3c1.7.4 3.3-.3 4.2-1.6l-4.6 1.6h.3zm4.5-1.8v-.3c0 .1-.2.3-.2.4h.3zm-7.7 2.7l2.9-1-1.9-.5-.9 1.5zM12 45.5l.6-.2-.6.3z"/><path fill="#fcc34f" d="M45.6 28.1l-2-.5v-.7c0-2.5-.5-5-1.4-7.2l1.2-.9c1.7-1.3 2.1-3.8.7-5.6-1.3-1.7-3.8-2.1-5.6-.7l-1 .8c-2.2-1.9-4.8-3.2-7.7-3.9v-1c0-2.2-1.7-4-3.9-4s-4 1.7-4 3.9v1.1c-2.7.6-5.1 1.9-7.2 3.6l-.9-.8c-1.7-1.4-4.2-1.2-5.6.4-1.4 1.7-1.2 4.2.4 5.6l1.3 1.1c-1 2.1-1.5 4.5-1.6 7s0 .6 0 .8l-1.9.4c-2.1.4-3.5 2.5-3.1 4.6.4 2.1 2.5 3.6 4.6 3.1l2.5-.5c1.2 2.2 2.8 4.1 4.7 5.6l-1.3 2.4c-.5.9-.5 1.9-.3 2.8l26.9-9.1.9-1.5 1.9.5 4.6-1.6c0-.1.2-.3.2-.4.1-.3.3-.5.3-.8.5-2.1-.8-4.3-2.9-4.8z"/><path fill="none" stroke="#444" stroke-linecap="round" stroke-linejoin="round" stroke-width="2.5" d="M36.7 42.5l-1.2-2.6c2-1.5 3.6-3.3 4.8-5.5l2.3.6c2.1.5 4.3-.8 4.8-2.9h0c.5-2.1-.8-4.3-2.9-4.8l-2-.5v-.7c0-2.5-.5-5-1.4-7.2l1.2-.9c1.7-1.3 2.1-3.8.7-5.6h0c-1.3-1.7-3.8-2.1-5.6-.7l-1 .8c-2.2-1.9-4.8-3.2-7.7-3.9v-1c0-2.2-1.7-4-3.9-4h0c-2.2 0-4 1.7-4 3.9v1.1c-2.7.6-5.1 1.9-7.2 3.6l-.9-.8c-1.7-1.4-4.2-1.2-5.6.4h0c-1.4 1.7-1.2 4.2.4 5.6l1.3 1.1c-1 2.1-1.5 4.5-1.6 7s0 .6 0 .8l-1.9.4c-2.1.4-3.5 2.5-3.1 4.6h0c.4 2.1 2.5 3.6 4.6 3.1l2.5-.5c1.2 2.2 2.8 4.1 4.7 5.6l-1.3 2.4c-1 1.9-.2 4.3 1.7 5.3h0c1.9 1 4.3.2 5.3-1.7l1.4-2.7c1.1.2 2.3.4 3.4.4s2.4 0 3.6-.3"/><circle id="_x3C_Repetição_radial_x3E_" cx="33" cy="42.7" r=".8" class="cls-6"/><circle id="_x3C_Repetição_radial_x3E_-2" cx="17.1" cy="42.7" r=".8" class="cls-6" data-name="_x3C_Repetição_radial_x3E_"/><circle id="_x3C_Repetição_radial_x3E_-3" cx="7" cy="30.4" r=".8" class="cls-6" data-name="_x3C_Repetição_radial_x3E_"/><circle id="_x3C_Repetição_radial_x3E_-4" cx="10.3" cy="14.4" r=".8" class="cls-6" data-name="_x3C_Repetição_radial_x3E_"/><circle id="_x3C_Repetição_radial_x3E_-5" cx="25.1" cy="7.2" r=".8" class="cls-6" data-name="_x3C_Repetição_radial_x3E_"/><circle id="_x3C_Repetição_radial_x3E_-6" cx="39.9" cy="14.7" r=".8" class="cls-6" data-name="_x3C_Repetição_radial_x3E_"/><circle id="_x3C_Repetição_radial_x3E_-7" cx="42.9" cy="30.8" r=".8" class="cls-6" data-name="_x3C_Repetição_radial_x3E_"/><path fill="none" stroke="#444444" stroke-linecap="round" stroke-linejoin="round" stroke-width=".5" d="M23.8 10.6v18.3l9.5 1.9-9.5-20.2zm-1.3 7.6v10.7l-5.4 1.9 5.4-12.6z"/><path fill="none" stroke="#444444" stroke-linecap="round" stroke-linejoin="round" d="M13.6 33.4h24.6l-17.5 4.8-7.1-4.8z"/></g></svg>
