<svg xmlns="http://www.w3.org/2000/svg" viewBox="0 0 50 50"><defs><style>.cls-3{fill:none;stroke:#444;stroke-miterlimit:10;stroke-linecap:round}</style></defs><g id="Layer_1"><path fill="#00dffc" d="M44.5 13.2l-5.6-3.6-7.7-4.4-6-2.8C22 2.4 3.7 11.3 3.7 14.5l-.5 7.8.5 15.1L15.2 45l31-11c.8-.5-.7-18.8-1.7-20.8z"/><path fill="none" stroke="#444" stroke-linecap="round" stroke-linejoin="round" stroke-width="2.5" d="M29.9 46.4l-2.2 1.3c-1.7 1-3.8 1-5.5 0l-15.6-9c-1.7-1-2.7-2.8-2.7-4.7V16c0-2 1-3.8 2.7-4.7l15.6-9c1.7-1 3.8-1 5.5 0l15.6 9c1.7 1 2.7 2.8 2.7 4.7v18c0 2-1 3.8-2.7 4.7l-2.5 1.4"/><path fill="none" stroke="#444" stroke-miterlimit="10" stroke-width=".5" d="M14.3 35.1V32c0-.2.1-.3.3-.3h20.7c.2 0 .3.1.3.3v3.1m-10.8-8.5v8.7m-5.3-3.6v3.4m11-3.4v3.4m-14.8 3.4H13c-.1 0-.3 0-.3-.3v-2.7s.1-.3.3-.3h2.7c.1 0 .3 0 .3.3v2.7c0 .2-.2.3-.3.3zm5.1 0h-2.7c-.1 0-.3 0-.3-.3v-2.7s.1-.3.3-.3h2.7c.1 0 .3 0 .3.3v2.7c0 .2-.1.3-.3.3zm5.4 0h-2.7c-.1 0-.3 0-.3-.3v-2.7s.1-.3.3-.3h2.7c.1 0 .3 0 .3.3v2.7c-.1.2-.2.3-.3.3zm5.6 0h-2.7c-.1 0-.3 0-.3-.3v-2.7s.1-.3.3-.3h2.7c.1 0 .3 0 .3.3v2.7c0 .2 0 .3-.3.3zm5.2 0h-2.7s-.3 0-.3-.3v-2.7s0-.3.3-.3H37s.3 0 .3.3v2.7c0 .2-.2.3-.3.3z"/><circle cx="24.8" cy="19.5" r="7" class="cls-3"/><circle cx="24.8" cy="19.5" r="1.3" class="cls-3"/><path d="M24.8 18.1V9.5m7.8 3.8l-6.8 5.3M17 13.2l6.7 5.4m-3.1 9.9l3.6-7.8m5 7.8l-3.7-7.9m-10.4.9l8.4-1.7m11.1 1.7l-8.5-1.7" class="cls-3"/></g></svg>