<?xml version="1.0" encoding="utf-8"?>
<!-- Generator: Adobe Illustrator 21.1.0, SVG Export Plug-In . SVG Version: 6.00 Build 0)  -->
<svg version="1.0" id="Layer_1" xmlns="http://www.w3.org/2000/svg" xmlns:xlink="http://www.w3.org/1999/xlink" x="0px" y="0px"
	 viewBox="0 0 50 50" enable-background="new 0 0 50 50" xml:space="preserve">
<g>
	<path fill="#71BAC0" d="M3.405,32.749c0.128,0,0.264-0.016,0.392-0.04l2.792-0.64c1.419,4.398,4.373,8.099,8.233,10.494
		L43.38,32.168c0.011-0.035,0.027-0.068,0.038-0.102c0,0,0.057,0.013,0.151,0.034l4.729-1.721c-0.194-0.576-0.67-1.042-1.312-1.184
		l-2.784-0.632c0.104-0.808,0.16-1.632,0.16-2.464c0-3.944-1.176-7.608-3.209-10.663l2.233-1.783
		c0.776-0.616,0.896-1.752,0.272-2.528c-0.616-0.776-1.752-0.896-2.528-0.272l-2.224,1.792c-3.128-3.232-7.36-5.376-12.103-5.816
		V3.973c0-0.992-0.808-1.8-1.8-1.8c-0.992,0-1.8,0.808-1.8,1.8l-0.001,2.856c-4.744,0.44-8.975,2.585-12.103,5.816l-2.224-1.792
		C8.1,10.23,6.964,10.35,6.348,11.126c-0.624,0.776-0.504,1.912,0.272,2.528l2.232,1.784c-2.032,3.056-3.207,6.72-3.207,10.664
		c0,0.832,0.056,1.656,0.16,2.464l-2.792,0.632c-0.976,0.216-1.584,1.176-1.368,2.144C1.837,32.181,2.582,32.749,3.405,32.749z"/>
	<path fill="#7ED0D6" d="M6.556,13.775l2.232,1.784c-0.618,0.93-1.147,1.923-1.598,2.957L33.58,8.91
		c-2.092-1.047-4.396-1.733-6.841-1.96V4.094c0-0.992-0.808-1.8-1.8-1.8c-0.992,0-1.8,0.808-1.8,1.8L23.139,6.95
		c-4.744,0.44-8.975,2.585-12.103,5.816l-2.224-1.792c-0.776-0.624-1.912-0.504-2.528,0.272C5.66,12.023,5.78,13.159,6.556,13.775z"
		/>
	<g>
		<path fill="#444444" d="M49.188,29.304c-0.44-0.692-1.124-1.17-1.921-1.346l-1.691-0.384c0.037-0.493,0.054-0.987,0.054-1.474
			c0-3.679-0.966-7.242-2.803-10.377l1.347-1.076c0.639-0.508,1.041-1.235,1.132-2.049c0.091-0.819-0.144-1.624-0.656-2.26
			c-0.507-0.639-1.234-1.041-2.048-1.132c-0.822-0.094-1.625,0.143-2.269,0.661l-1.347,1.085c-3.036-2.804-6.842-4.633-10.916-5.245
			V3.973c0-1.692-1.376-3.068-3.067-3.068c-1.692,0-3.068,1.376-3.068,3.067l-0.001,1.734c-4.072,0.612-7.879,2.441-10.916,5.246
			L9.67,9.865C9.026,9.348,8.22,9.113,7.402,9.206c-0.813,0.091-1.541,0.493-2.043,1.126c-0.517,0.643-0.751,1.449-0.66,2.268
			c0.091,0.813,0.493,1.54,1.129,2.044l1.35,1.079c-1.836,3.136-2.802,6.699-2.802,10.378c0,0.486,0.018,0.98,0.054,1.475
			l-1.692,0.382c-0.803,0.178-1.487,0.657-1.927,1.347c-0.439,0.691-0.583,1.512-0.403,2.317c0.322,1.41,1.554,2.394,2.997,2.394
			c0.204,0,0.421-0.023,0.676-0.071l1.691-0.388c1.499,3.876,4.144,7.215,7.586,9.574l-0.759,1.561
			c-0.731,1.515-0.092,3.353,1.441,4.106c0.419,0.197,0.864,0.297,1.326,0.297c1.167,0,2.251-0.679,2.767-1.735l0.75-1.56
			c1.968,0.615,4.019,0.926,6.113,0.926c0.003,0,0.006,0,0.009,0c2.088,0,4.138-0.31,6.114-0.921l0.753,1.56
			c0.712,1.461,2.536,2.16,4.108,1.423c1.515-0.744,2.153-2.582,1.421-4.1l-1.247-2.568c-0.306-0.63-1.064-0.895-1.694-0.587
			c-0.63,0.305-0.893,1.064-0.587,1.694l1.245,2.565c0.13,0.268,0.017,0.585-0.234,0.707c-0.233,0.111-0.564,0.099-0.729-0.243
			l-8.441-17.428h-1.427L15.85,46.254c-0.17,0.35-0.535,0.339-0.709,0.258c-0.273-0.135-0.386-0.45-0.258-0.715l8.374-17.468
			l-0.883-1.114L3.565,31.463c-0.307,0.052-0.616-0.105-0.682-0.398c-0.042-0.185,0.025-0.328,0.069-0.396
			c0.044-0.069,0.146-0.191,0.341-0.235l18.821-4.332l0.342-1.372L7.408,12.66c-0.143-0.113-0.179-0.263-0.188-0.342
			c-0.009-0.083-0.006-0.245,0.121-0.403c0.114-0.144,0.264-0.18,0.343-0.189c0.083-0.011,0.245-0.006,0.396,0.115l15.084,12.004
			l1.308-0.632V3.973c0-0.293,0.239-0.532,0.532-0.532c0.293,0,0.531,0.238,0.531,0.532v19.225l1.297,0.639l15.093-11.995
			c0.154-0.124,0.314-0.127,0.397-0.116c0.079,0.009,0.23,0.045,0.349,0.195c0.122,0.152,0.125,0.313,0.115,0.395
			c-0.009,0.08-0.045,0.23-0.191,0.347l-15.06,12.07l0.345,1.37l18.833,4.331c0.19,0.042,0.292,0.163,0.336,0.233
			c0.044,0.068,0.111,0.211,0.07,0.39c-0.052,0.224-0.232,0.387-0.452,0.417c-0.393-0.076-1.755-0.373-2.971-0.644
			c-0.689-0.154-1.361,0.277-1.514,0.961c-0.153,0.684,0.277,1.361,0.961,1.514c3.184,0.71,3.285,0.71,3.452,0.71
			c1.443,0,2.674-0.984,2.998-2.4C49.77,30.815,49.627,29.994,49.188,29.304z M25.004,44.19c-0.002,0-0.005,0-0.008,0
			c-2.177,0-4.299-0.383-6.306-1.138l1.21-2.561c0.311,0.111,0.621,0.227,0.941,0.314c1.337,0.381,2.738,0.575,4.164,0.575
			c1.768,0,3.481-0.307,5.108-0.884l1.212,2.56C29.302,43.808,27.176,44.19,25.004,44.19z M24.901,29.903
			c0.066,0.002,0.133,0.002,0.198,0l4.578,9.671c-2.727,0.942-5.792,1.043-8.563,0.253c-0.267-0.073-0.52-0.17-0.778-0.26
			L24.901,29.903z M7.797,31.68l2.724-0.64c1.147,3.315,3.373,6.117,6.338,7.976l-1.255,2.546
			C11.896,39.299,9.124,35.793,7.797,31.68z M22.033,28.515L17.31,38.1c-2.695-1.718-4.726-4.273-5.796-7.293l10.4-2.443
			C21.953,28.416,21.992,28.467,22.033,28.515z M21.217,25.26l-10.433,2.297c-0.052-0.484-0.087-0.981-0.087-1.498
			c0-2.703,0.759-5.306,2.183-7.573l8.38,6.594C21.244,25.138,21.23,25.198,21.217,25.26z M9.904,16.145l2.174,1.711
			c-1.563,2.45-2.396,5.273-2.396,8.204c0,0.592,0.042,1.163,0.106,1.717L7.06,28.377c-0.098-0.764-0.148-1.531-0.148-2.276
			C6.913,22.534,7.947,19.091,9.904,16.145z M23.299,8.095l0.004,2.78c-3.456,0.415-6.692,1.936-9.212,4.33l-2.077-1.68
			C15.016,10.423,19.023,8.496,23.299,8.095z M23.23,22.594l-8.343-6.746c2.319-2.163,5.266-3.547,8.417-3.951l0.014,10.646
			C23.288,22.56,23.259,22.577,23.23,22.594z M37.973,13.505l-2.143,1.736c-2.413-2.411-5.557-3.967-8.916-4.378
			c-0.067-0.01-0.137-0.013-0.206-0.021l0.004-2.747C30.977,8.497,34.974,10.418,37.973,13.505z M26.744,22.601
			c-0.018-0.008-0.036-0.017-0.053-0.025l0.015-10.717c0.027,0.003,0.05,0.004,0.077,0.008c3.106,0.381,6.01,1.808,8.253,4.016
			L26.744,22.601z M40.098,16.138c1.96,2.947,2.996,6.391,2.996,9.961c0,0.747-0.05,1.509-0.146,2.265l-2.735-0.599
			c0.065-0.58,0.107-1.146,0.107-1.706c0-2.946-0.836-5.775-2.404-8.221l2.174-1.714L40.098,16.138z M28.732,25.079l8.383-6.61
			c1.428,2.264,2.19,4.873,2.19,7.59c0,0.488-0.035,0.982-0.088,1.488l-10.44-2.287C28.762,25.198,28.748,25.138,28.732,25.079z"/>
		<path fill="#444444" d="M28.054,27.324l-0.408-0.172l-0.911,1.17l5.495,11.257l0.472-0.275c3.358-1.956,5.828-5.068,6.957-8.762
			l0.022-0.715l-0.4-0.086C35.484,28.924,28.238,27.364,28.054,27.324z M32.657,38.143L27.96,28.52
			c0.044-0.052,0.086-0.105,0.126-0.159c0.805,0.179,3.2,0.697,10.479,2.263C37.52,33.735,35.442,36.378,32.657,38.143z"/>
	</g>
</g>
</svg>
