<?xml version="1.0" encoding="UTF-8"?>
<svg id="Camada_1" data-name="Camada 1" xmlns="http://www.w3.org/2000/svg" version="1.1" viewBox="0 0 50 50">
  <defs>
    <style>
      .cls-1 {
        stroke-width: .5px;
      }

      .cls-1, .cls-2, .cls-3 {
        fill: none;
        stroke: #444;
        stroke-linecap: round;
        stroke-linejoin: round;
      }

      .cls-4 {
        fill: #35d3c3;
      }

      .cls-4, .cls-5, .cls-6 {
        stroke-width: 0px;
      }

      .cls-5 {
        fill: #444;
      }

      .cls-3 {
        stroke-width: 2.5px;
      }

      .cls-6 {
        fill: #7df4eb;
      }
    </style>
  </defs>
  <polygon class="cls-4" points="30.6 22.8 38.4 25.2 31.7 30 31.8 38.2 25.2 33.3 17.4 35.9 20.1 28.1 15.2 21.5 23.4 21.7 28.1 15 30.6 22.8"/>
  <g>
    <path class="cls-6" d="M47.7,32.7c-.2-.6.2-3.4-.3-3.6l-2.9-1.2c0-.8-.7-.7-.7-1.6,0-3.8-.2-7.3-2.2-10.3l1.6-1.4c.8-.6.5-2.3,0-2.9-.6-.8-1.9-1.3-2.6-.7l-2,.8c-3-3.1-6-4.1-10.6-4.5l-.5-2.6c0-1-1.5-1.7-2.5-1.7s-1,.2-1.3.6c-.3.3-2,.2-2,.7l-.2,2.9c-4.6.4-6.7,1.8-9.7,4.9l-2.1-1.2c-.6-.5-1.8.2-2.4.5-.3.1-.5.3-.7.5-.6.7-1.4,2.2-.6,2.8l1.2,2c-.6.9-1.1,2.2-1.6,3.2l.2.9c-1,2.3-.8,3-.8,5.7v1.6s-2,.6-2,.6c-1,.2-1.2,1.9-1,2.7.2.9.9,2.9,1.7,2.9l2.4-.9,6.7,9.2c1.4,4.3-.1.8,0,2.5"/>
    <g>
      <path class="cls-1" d="M21.5,29.8l-5.2,10.7c-.2.4-.6.5-1,.3-2.9-2.1-5-5.1-6.5-8.3s0-.8.5-.9l11.4-2.7c.5-.1,1,.4.8.9Z"/>
      <path class="cls-1" d="M19.7,26l-11.4,2.5c-.4,0-.8-.2-.8-.6-.3-3.6.5-7.2,2.2-10.3.2-.4.7-.4,1-.2l9.3,7.4c.4.4.3,1.1-.3,1.2Z"/>
      <path class="cls-1" d="M25.4,30.8l5.1,10.7c.2.4,0,.8-.4.9-3.4,1-7.1,1-10.5,0-.4,0-.6-.6-.4-.9l5-10.6c.2-.5,1-.5,1.2,0Z"/>
      <path class="cls-1" d="M21.9,22.2l-9.2-7.5c-.3-.3-.3-.7,0-1,2.7-2.4,6-4,9.6-4.4s.7.3.7.7v11.7c0,.6-.6.9-1.1.5h0Z"/>
      <path class="cls-1" d="M29.2,24.7l9.4-7.2c.3-.2.8-.2,1,.2,1.7,3.2,2.4,6.8,2,10.4s-.4.7-.8.6l-11.4-2.8c-.5-.1-.7-.8-.2-1.2Z"/>
      <path class="cls-1" d="M26.2,21.7v-11.8c-.1-.4.2-.7.6-.7,3.5.5,6.9,2.1,9.5,4.6.3.3.3.7,0,1l-9,7.5c-.4.4-1.1,0-1.1-.5h0Z"/>
      <path class="cls-1" d="M28.8,28.7l11.3,2.9c.4.2.6.5.5.9-1.3,3.3-3.7,6.2-6.7,8.2-.3.2-.8,0-1-.3l-4.9-10.8c-.2-.5.2-1.1.8-.9Z"/>
      <path class="cls-3" d="M42,33.3c3.1.7,3.2.7,3.3.7,1.3,0,2.6-1,2.9-2.3.3-.8,0-1.5-.3-2.2-.4-.7-1.1-1.1-1.8-1.2l-1.6-.4v-1.4c0-3.5-1-6.9-2.7-9.9l1.2-1.1c.6-.5,1-1.1,1.1-1.9s0-1.5-.7-2.2c-.5-.6-1.1-1-1.9-1.1s-1.5,0-2.2.7l-1.2,1.1c-2.9-2.7-6.5-4.4-10.4-5v-1.7c0-1.6-1.3-3-3-3s-3,1.3-3,3v1.6c-3.8.6-7.5,2.3-10.4,5.1l-1.2-1.1c-.7-.6-1.4-.8-2.2-.7s-1.4.5-1.9,1.1-.8,1.3-.7,2.2c0,.8.5,1.4,1.1,1.9l1.2,1.1c-1.7,3-2.6,6.4-2.7,9.9s0,1,0,1.4l-1.6.4c-.8.2-1.4.7-1.8,1.2-.4.7-.6,1.4-.4,2.2.3,1.3,1.5,2.3,2.9,2.3s.4,0,.7,0l1.6-.4c1.4,3.7,3.9,6.9,7.3,9.2l-.8,1.5c-.7,1.4,0,3.3,1.3,3.9.4.2.9.3,1.2.3,1.1,0,2.2-.7,2.7-1.6l.8-1.5c1.9.6,3.8.9,5.8.9s3.9-.3,5.8-.9l.8,1.5c.7,1.4,2.4,2.1,3.9,1.3,1.4-.7,2.1-2.5,1.3-3.9l-1.1-2.5"/>
      <circle class="cls-5" cx="24.7" cy="26.2" r="3"/>
      <path class="cls-2" d="M38.7,28c0-.6.1-1.1.1-1.7,0-2.6-.7-5-1.9-7.1"/>
      <path class="cls-2" d="M32.3,38.1c2.7-1.7,4.5-3.8,5.6-6.8"/>
      <path class="cls-2" d="M20.3,39.7c1.3.4,2.9.7,4.4.7,0,0,3.1-.2,4.7-.8"/>
      <path class="cls-2" d="M11.3,31.4c1.1,2.9,3.3,5.2,5.8,6.9"/>
      <path class="cls-2" d="M12.4,19.1c-1.3,2.1-1.9,4.5-1.9,7.1s0,1,0,1.4"/>
      <path class="cls-2" d="M22.7,12.2c-3.1.4-5.7,1.7-7.9,3.8"/>
      <path class="cls-2" d="M34.4,16c-2.2-2.2-4.7-3.5-7.9-3.9"/>
      <polyline class="cls-2" points="3.7 31.2 24.6 26.4 41.5 12.8"/>
      <polyline class="cls-2" points="7.8 12.9 24.6 26.4 24.7 4.8"/>
      <polyline class="cls-2" points="15.5 46 24.6 26.4 34.2 45.9"/>
      <line class="cls-2" x1="45.8" y1="31.1" x2="24.6" y2="26.4"/>
    </g>
  </g>
</svg>
