<?xml version="1.0" encoding="UTF-8"?>
<svg xmlns="http://www.w3.org/2000/svg" version="1.1" viewBox="0 0 50 50">
  <defs>
    <style>
      .cls-1, .cls-2, .cls-3, .cls-4 {
        fill: none;
      }

      .cls-1, .cls-3, .cls-4 {
        stroke-linecap: round;
        stroke-linejoin: round;
      }

      .cls-1, .cls-4 {
        stroke: #454444;
      }

      .cls-2 {
        stroke-miterlimit: 10;
        stroke-width: .5px;
      }

      .cls-2, .cls-3 {
        stroke: #444;
      }

      .cls-3 {
        stroke-width: 2.5px;
      }

      .cls-4 {
        stroke-width: .5px;
      }

      .cls-5 {
        fill: #5aba52;
      }

      .cls-6 {
        fill: #444;
      }

      .cls-7 {
        fill: #fcc34f;
      }
    </style>
  </defs>
  <!-- Generator: Adobe Illustrator 28.7.1, SVG Export Plug-In . SVG Version: 1.2.0 Build 142)  -->
  <g>
    <g id="Camada_1">
      <g>
        <g>
          <g>
            <path class="cls-5" d="M42.7,35.3c1.7.4,3.3-.3,4.2-1.6l-4.6,1.6h.3Z"/>
            <path class="cls-5" d="M47.2,33.5c0,0,0-.2,0-.3,0,.1-.2.3-.2.4h.3Z"/>
            <path class="cls-5" d="M39.5,36.2l2.9-1-1.9-.5c-.3.5-.6,1-.9,1.5Z"/>
            <path class="cls-5" d="M12,45.5l.6-.2s0,0,0,0l-.6.3Z"/>
            <path class="cls-7" d="M45.6,28.1l-2-.5c0-.2,0-.5,0-.7,0-2.5-.5-5-1.4-7.2l1.2-.9c1.7-1.3,2.1-3.8.7-5.6h0c-1.3-1.7-3.8-2.1-5.6-.7l-1,.8c-2.2-1.9-4.8-3.2-7.7-3.9v-1c0-2.2-1.7-4-3.9-4h0c-2.2,0-4,1.7-4,3.9v1.1c-2.7.6-5.1,1.9-7.2,3.6l-.9-.8c-1.7-1.4-4.2-1.2-5.6.4h0c-1.4,1.7-1.2,4.2.4,5.6l1.3,1.1c-1,2.1-1.5,4.5-1.6,7s0,.6,0,.8l-1.9.4c-2.1.4-3.5,2.5-3.1,4.6h0c.4,2.1,2.5,3.6,4.6,3.1l2.5-.5c1.2,2.2,2.8,4.1,4.7,5.6l-1.3,2.4c-.5.9-.5,1.9-.3,2.8,0,0,0,0,0,0l26.9-9.1c.3-.5.6-1,.9-1.5l1.9.5,4.6-1.6c0-.1.2-.3.2-.4.1-.3.3-.5.3-.8h0c.5-2.1-.8-4.3-2.9-4.8Z"/>
          </g>
          <path class="cls-3" d="M36.7,42.5l-1.2-2.6c2-1.5,3.6-3.3,4.8-5.5l2.3.6c2.1.5,4.3-.8,4.8-2.9h0c.5-2.1-.8-4.3-2.9-4.8l-2-.5c0-.2,0-.5,0-.7,0-2.5-.5-5-1.4-7.2l1.2-.9c1.7-1.3,2.1-3.8.7-5.6h0c-1.3-1.7-3.8-2.1-5.6-.7l-1,.8c-2.2-1.9-4.8-3.2-7.7-3.9v-1c0-2.2-1.7-4-3.9-4h0c-2.2,0-4,1.7-4,3.9v1.1c-2.7.6-5.1,1.9-7.2,3.6l-.9-.8c-1.7-1.4-4.2-1.2-5.6.4h0c-1.4,1.7-1.2,4.2.4,5.6l1.3,1.1c-1,2.1-1.5,4.5-1.6,7s0,.6,0,.8l-1.9.4c-2.1.4-3.5,2.5-3.1,4.6h0c.4,2.1,2.5,3.6,4.6,3.1l2.5-.5c1.2,2.2,2.8,4.1,4.7,5.6l-1.3,2.4c-1,1.9-.2,4.3,1.7,5.3h0c1.9,1,4.3.2,5.3-1.7l1.4-2.7c1.1.2,2.3.4,3.4.4s2.4,0,3.6-.3"/>
        </g>
        <g>
          <g id="_x3C_Repetição_radial_x3E_">
            <circle class="cls-6" cx="33" cy="42.7" r=".8"/>
          </g>
          <g id="_x3C_Repetição_radial_x3E_-2" data-name="_x3C_Repetição_radial_x3E_">
            <circle class="cls-6" cx="17.1" cy="42.7" r=".8"/>
          </g>
          <g id="_x3C_Repetição_radial_x3E_-3" data-name="_x3C_Repetição_radial_x3E_">
            <circle class="cls-6" cx="7" cy="30.4" r=".8"/>
          </g>
          <g id="_x3C_Repetição_radial_x3E_-4" data-name="_x3C_Repetição_radial_x3E_">
            <circle class="cls-6" cx="10.3" cy="14.4" r=".8"/>
          </g>
          <g id="_x3C_Repetição_radial_x3E_-5" data-name="_x3C_Repetição_radial_x3E_">
            <circle class="cls-6" cx="25.1" cy="7.2" r=".8"/>
          </g>
          <g id="_x3C_Repetição_radial_x3E_-6" data-name="_x3C_Repetição_radial_x3E_">
            <g>
              <path class="cls-2" d="M39.9,14.7"/>
              <circle class="cls-6" cx="39.9" cy="14.7" r=".8"/>
            </g>
          </g>
          <g id="_x3C_Repetição_radial_x3E_-7" data-name="_x3C_Repetição_radial_x3E_">
            <circle class="cls-6" cx="42.9" cy="30.8" r=".8"/>
          </g>
        </g>
      </g>
      <polygon class="cls-4" points="23.8 10.6 23.8 28.9 33.3 30.8 23.8 10.6"/>
      <polygon class="cls-4" points="22.5 18.2 22.5 28.9 17.1 30.8 22.5 18.2"/>
      <polygon class="cls-1" points="13.6 33.4 38.2 33.4 20.7 38.2 13.6 33.4"/>
    </g>
  </g>
</svg>