<svg xmlns="http://www.w3.org/2000/svg" id="Camada_1" data-name="Camada 1" version="1.1" viewBox="0 0 50 50"><defs><style>.cls-2{fill:none;stroke:#444;stroke-linecap:round;stroke-linejoin:round}</style></defs><path fill="#e589ef" stroke-width="0" d="M48.1 31.7c-.2-.6.2-3.4-.3-3.6l-2.9-1.2c0-.8-.7-.7-.7-1.6 0-3.8-.2-7.3-2.2-10.3l1.6-1.4c.8-.6.5-2.3 0-2.9-.6-.8-1.9-1.3-2.6-.7l-2 .8c-3-3.1-6-4.1-10.6-4.5l-.5-2.6c0-1-1.5-1.7-2.5-1.7s-1 .2-1.3.6c-.3.3-2 .2-2 .7l-.2 2.9c-4.6.4-6.7 1.8-9.7 4.9l-2.1-1.2c-.6-.5-1.8.2-2.4.5-.3.1-.5.3-.7.5-.6.7-1.4 2.2-.6 2.8l1.2 2c-.6.9-1.1 2.2-1.6 3.2l.2.9c-1 2.3-.8 3-.8 5.7v1.6l-2 .6c-1 .2-1.2 1.9-1 2.7.2.9.9 2.9 1.7 2.9l2.4-.9 6.7 9.2c1.4 4.3-.1.8 0 2.5"/><path fill="none" stroke="#444" stroke-linecap="round" stroke-linejoin="round" stroke-width=".5" d="M21.9 28.8l-5.2 10.7c-.2.4-.6.5-1 .3-2.9-2.1-5-5.1-6.5-8.3s0-.8.5-.9l11.4-2.7c.5-.1 1 .4.8.9zM20.1 25L8.7 27.5c-.4 0-.8-.2-.8-.6-.3-3.6.5-7.2 2.2-10.3.2-.4.7-.4 1-.2l9.3 7.4c.4.4.3 1.1-.3 1.2zm5.7 4.8l5.1 10.7c.2.4 0 .8-.4.9-3.4 1-7.1 1-10.5 0-.4 0-.6-.6-.4-.9l5-10.6c.2-.5 1-.5 1.2 0zm-3.5-8.6l-9.2-7.5c-.3-.3-.3-.7 0-1 2.7-2.4 6-4 9.6-4.4s.7.3.7.7v11.7c0 .6-.6.9-1.1.5zm7.3 2.5l9.4-7.2c.3-.2.8-.2 1 .2 1.7 3.2 2.4 6.8 2 10.4s-.4.7-.8.6l-11.4-2.8c-.5-.1-.7-.8-.2-1.2zm-3-3V8.9c-.1-.4.2-.7.6-.7 3.5.5 6.9 2.1 9.5 4.6.3.3.3.7 0 1l-9 7.5c-.4.4-1.1 0-1.1-.5zm2.6 7l11.3 2.9c.4.2.6.5.5.9-1.3 3.3-3.7 6.2-6.7 8.2-.3.2-.8 0-1-.3l-4.9-10.8c-.2-.5.2-1.1.8-.9z"/><path fill="none" stroke="#444" stroke-linecap="round" stroke-linejoin="round" stroke-width="2.5" d="M42.4 32.3c3.1.7 3.2.7 3.3.7 1.3 0 2.6-1 2.9-2.3.3-.8 0-1.5-.3-2.2-.4-.7-1.1-1.1-1.8-1.2l-1.6-.4v-1.4c0-3.5-1-6.9-2.7-9.9l1.2-1.1c.6-.5 1-1.1 1.1-1.9s0-1.5-.7-2.2c-.5-.6-1.1-1-1.9-1.1s-1.5 0-2.2.7l-1.2 1.1c-2.9-2.7-6.5-4.4-10.4-5V4.4c0-1.6-1.3-3-3-3s-3 1.3-3 3V6c-3.8.6-7.5 2.3-10.4 5.1L10.5 10c-.7-.6-1.4-.8-2.2-.7s-1.4.5-1.9 1.1-.8 1.3-.7 2.2c0 .8.5 1.4 1.1 1.9L8 15.6c-1.7 3-2.6 6.4-2.7 9.9s0 1 0 1.4l-1.6.4c-.8.2-1.4.7-1.8 1.2-.4.7-.6 1.4-.4 2.2C1.8 32 3 33 4.4 33h.7l1.6-.4c1.4 3.7 3.9 6.9 7.3 9.2l-.8 1.5c-.7 1.4 0 3.3 1.3 3.9.4.2.9.3 1.2.3 1.1 0 2.2-.7 2.7-1.6l.8-1.5c1.9.6 3.8.9 5.8.9s3.9-.3 5.8-.9l.8 1.5c.7 1.4 2.4 2.1 3.9 1.3 1.4-.7 2.1-2.5 1.3-3.9l-1.1-2.5"/><circle cx="25.1" cy="25.2" r="3" fill="#444" stroke-width="0"/><path d="M39.1 26.9c0-.6.1-1.1.1-1.7 0-2.6-.7-5-1.9-7.1m-4.6 19c2.7-1.7 4.5-3.8 5.6-6.8m-17.6 8.4c1.3.4 2.9.7 4.4.7 0 0 3.1-.2 4.7-.8m-18.1-8.2c1.1 2.9 3.3 5.2 5.8 6.9m-4.7-19.2c-1.3 2.1-1.9 4.5-1.9 7.1v1.4m12.2-15.4c-3.1.4-5.7 1.7-7.9 3.8m19.6 0c-2.2-2.2-4.7-3.5-7.9-3.9M4.1 30.2L25 25.4l16.9-13.6" class="cls-2"/><path d="M8.2 11.9L25 25.4l.1-21.6M15.9 45L25 25.4l9.6 19.5m11.6-14.8L25 25.4" class="cls-2"/></svg>