<?xml version="1.0" encoding="utf-8"?>
<!-- Generator: Adobe Illustrator 24.0.0, SVG Export Plug-In . SVG Version: 6.00 Build 0)  -->
<svg version="1.1" id="Camada_1" xmlns="http://www.w3.org/2000/svg" xmlns:xlink="http://www.w3.org/1999/xlink" x="0px" y="0px"
	 viewBox="0 0 50 50" style="enable-background:new 0 0 50 50;" xml:space="preserve">
<style type="text/css">
	.st0{fill:#00C8E2;}
	.st1{fill:#00DFFC;}
	.st2{fill:#444444;}
</style>
<title>abap</title>
<g>
	<g>
		<polygon class="st0" points="47.4,22.8 47.5,27.1 1.7,43.5 1.2,30.8 1.2,26.8 47.4,10 		"/>
	</g>
	<g>
		<polygon class="st1" points="47.9,7.4 47.9,10.9 1.8,27.8 2,20.5 2,16.6 47.9,1.8 		"/>
	</g>
	<g>
		<path class="st2" d="M48.1,49.4h-16c-0.7,0-1.2-0.6-1.2-1.2s0.6-1.2,1.2-1.2h14.7V3.7H3.3v43.3h3.1c0.7,0,1.2,0.6,1.2,1.2
			S7,49.4,6.3,49.4H2c-0.7,0-1.2-0.6-1.2-1.2V2.4c0-0.7,0.6-1.2,1.2-1.2h46.1c0.7,0,1.2,0.6,1.2,1.2v45.8
			C49.3,48.9,48.8,49.4,48.1,49.4z"/>
	</g>
	<g>
		<g>
			<path class="st2" d="M39.5,23.5h-3.2c-0.2-2.6-1.2-5-2.9-6.9l2.3-2.3c0.3-0.3,0.3-0.8,0-1.1c-0.3-0.3-0.8-0.3-1.1,0l-2.3,2.3
				c-1.9-1.6-4.3-2.7-6.9-2.9V9.4c0-0.4-0.3-0.8-0.8-0.8c-0.4,0-0.8,0.3-0.8,0.8v3.2c-2.7,0.2-5.1,1.2-7,2.9l-2.3-2.3
				c-0.3-0.3-0.8-0.3-1.1,0c-0.3,0.3-0.3,0.8,0,1.1l2.3,2.3c-1.6,1.9-2.7,4.3-2.9,6.9H9.8c-0.4,0-0.8,0.3-0.8,0.8
				c0,0.4,0.3,0.8,0.8,0.8H20c0.3,2,1.9,3.6,3.9,3.9v10.2c0,0.4,0.3,0.8,0.8,0.8c0.4,0,0.8-0.3,0.8-0.8v-3.2
				c2.7-0.2,5.1-1.2,6.9-2.9l2.3,2.3c0.1,0.1,0.3,0.2,0.5,0.2s0.4-0.1,0.5-0.2c0.3-0.3,0.3-0.8,0-1.1L33.4,32
				c1.7-1.9,2.7-4.3,2.9-6.9h3.2c0.4,0,0.8-0.3,0.8-0.8C40.3,23.9,39.9,23.5,39.5,23.5z M25.4,14.2c2.2,0.2,4.3,1,5.9,2.4l-3.9,3.9
				c-0.6-0.4-1.3-0.7-2-0.8V14.2z M20,23.5h-5.5c0.1-2.3,1-4.3,2.4-5.9l3.9,3.9C20.4,22.1,20.2,22.8,20,23.5z M18,16.6
				c1.6-1.4,3.6-2.3,5.9-2.4v5.5c-0.7,0.1-1.4,0.4-2,0.8L18,16.6z M24.7,27.5c-1.8,0-3.2-1.4-3.2-3.2c0-0.9,0.4-1.7,0.9-2.3
				c0.6-0.6,1.4-0.9,2.3-0.9s1.7,0.4,2.3,0.9c0.6,0.6,0.9,1.4,0.9,2.3c0,0.9-0.4,1.7-0.9,2.3S25.6,27.5,24.7,27.5z M25.4,34.4v-5.5
				c0.7-0.1,1.4-0.4,2-0.8l3.9,3.9C29.7,33.3,27.7,34.2,25.4,34.4z M32.4,30.9L28.5,27c0.4-0.6,0.7-1.3,0.8-2h5.5
				C34.6,27.3,33.7,29.3,32.4,30.9z M29.3,23.5c-0.1-0.7-0.4-1.4-0.8-2l3.9-3.9c1.4,1.6,2.3,3.6,2.4,5.9H29.3z"/>
		</g>
		<g>
			<path class="st2" d="M21.9,27.1L21.9,27.1z"/>
		</g>
		<g>
			<path class="st2" d="M14.2,34.8L14.2,34.8z"/>
		</g>
	</g>
	<g>
		<rect x="16.6" y="31.4" class="st2" width="4.6" height="4.6"/>
	</g>
	<g>
		<rect x="13.6" y="36" class="st2" width="3" height="3"/>
	</g>
	<g>
		<rect x="11.2" y="33.5" class="st2" width="2.5" height="2.5"/>
	</g>
</g>
</svg>
