<?xml version="1.0" encoding="utf-8"?>
<!-- Generator: Adobe Illustrator 27.9.0, SVG Export Plug-In . SVG Version: 6.00 Build 0)  -->
<svg version="1.1" id="Camada_3" xmlns="http://www.w3.org/2000/svg" xmlns:xlink="http://www.w3.org/1999/xlink" x="0px" y="0px"
	 viewBox="0 0 50 50" style="enable-background:new 0 0 50 50;" xml:space="preserve">
<style type="text/css">
	.st0{fill:#00DFFC;}
	.st1{fill:none;stroke:#444444;stroke-width:2.5;stroke-linecap:round;stroke-linejoin:round;stroke-miterlimit:10;}
	.st2{fill:none;stroke:#3C3835;stroke-linecap:round;stroke-linejoin:round;stroke-miterlimit:10;}
	.st3{fill:none;stroke:#3C3835;stroke-width:0.5;stroke-linecap:round;stroke-linejoin:round;stroke-miterlimit:10;}
</style>
<g>
	<path class="st0" d="M44.87,12.7l-5.6-3.6l-7.7-4.4l-6-2.8c-3.2,0-21.5,8.9-21.5,12.1l-0.5,7.8l0.5,15.1l11.5,7.6l31-11
		C47.47,33,45.87,14.7,44.87,12.7z"/>
	<g>
		<g>
			<path class="st1" d="M30.15,46.6l-2.2,1.3c-1.7,1-3.8,1-5.5,0l-15.6-9c-1.7-1-2.7-2.8-2.7-4.7v-18c0-2,1-3.8,2.7-4.7l15.6-9
				c1.7-1,3.8-1,5.5,0l15.6,9c1.7,1,2.7,2.8,2.7,4.7v18c0,2-1,3.8-2.7,4.7l-2.5,1.4"/>
		</g>
	</g>
	<g>
		<path class="st2" d="M12.6,18.08c0,0,3.73-7.17,12.28-7.17s12.91,7.37,12.91,7.37s-3.85-0.21-6.13,2.19c0,0-7.36-3.41-12.99,0
			C18.68,20.47,16.12,18.09,12.6,18.08z"/>
		<g>
			<path class="st2" d="M34.25,39.49h-18.1c-0.59,0-1.06-0.48-1.06-1.06V28.23c0-0.59,0.48-1.06,1.06-1.06h18.1
				c0.59,0,1.06,0.48,1.06,1.06v10.19C35.31,39.01,34.84,39.49,34.25,39.49z"/>
			<line class="st2" x1="15.09" y1="30.11" x2="35.09" y2="30.11"/>
			<circle class="st3" cx="16.58" cy="28.67" r="0.48"/>
			<circle class="st3" cx="18.22" cy="28.67" r="0.48"/>
			<circle class="st3" cx="19.86" cy="28.67" r="0.48"/>
			<line class="st3" x1="19.04" y1="36.1" x2="31.41" y2="32.48"/>
			<line class="st3" x1="25.54" y1="37.62" x2="30.68" y2="35.98"/>
		</g>
		<line class="st2" x1="18.68" y1="20.47" x2="24.91" y2="26.72"/>
		<line class="st2" x1="12.6" y1="18.08" x2="24.91" y2="26.72"/>
		<line class="st2" x1="31.67" y1="20.47" x2="25.23" y2="26.97"/>
		<line class="st2" x1="37.8" y1="18.28" x2="25.23" y2="26.97"/>
		<path class="st3" d="M18.86,18.45c0,0,2.33-4.86,5.36-6.37"/>
		<path class="st3" d="M31.05,18.52c0,0-2.33-4.86-5.36-6.37"/>
	</g>
</g>
</svg>
