<svg xmlns="http://www.w3.org/2000/svg" id="Layer_1" x="0" y="0" version="1.1" viewBox="0 0 50 50" xml:space="preserve"><style>.st2{fill:#444}</style><path fill="#dc5e82" d="M44.6 12.4L39 8.8l-7.7-4.4-6-2.8c-3.2 0-21.5 8.9-21.5 12.1l-.5 7.8.5 15.1 11.5 7.6 31-11c.9-.5-.7-18.8-1.7-20.8z"/><path fill="none" stroke="#444" stroke-linecap="round" stroke-linejoin="round" stroke-miterlimit="10" stroke-width="2.5" d="M29.9 46.5l-2.2 1.3c-1.7 1-3.8 1-5.5 0l-15.6-9C5 37.8 3.9 36 3.9 34V16c0-2 1-3.8 2.7-4.7l15.6-9c1.7-1 3.8-1 5.5 0l15.6 9c1.7 1 2.7 2.8 2.7 4.7v18c0 2-1 3.8-2.7 4.7l-2.5 1.4"/><path d="M36.2 13.8c-2.4-2.5-6.4-2.5-8.9 0L22.1 19c-.6.6-1 1.2-1.3 1.9-.2.4-.3.9-.4 1.4.4-.2.8-.5 1.2-.6.1-.4.3-.8.6-1.2.2-.3.4-.5.6-.8l5.2-5.2c1-1 2.4-1.5 3.7-1.5 1.4 0 2.7.5 3.7 1.5 2.1 2.1 2.1 5.4 0 7.5l-5.2 5.2c-.2.2-.5.4-.8.6-.4.3-.8.5-1.2.6-.6.2-1.2.3-1.8.3h-.7c-.4 0-.8-.1-1.1-.3-.7-.2-1.4-.7-1.9-1.2-.6-.5-1-1.2-1.2-1.9-.1-.4-.2-.7-.3-1.1l-.2.2-.7.7c.1.4.2.7.4 1 .3.7.7 1.3 1.3 1.9.5.5 1.2 1 1.9 1.3.3.2.7.3 1 .4.5.1 1 .2 1.6.2.4 0 .8 0 1.2-.1.5-.1.9-.2 1.4-.4.7-.3 1.3-.7 1.9-1.3l5.2-5.2c2.5-2.7 2.5-6.7 0-9.1z" class="st2"/><path d="M34.1 15.9c-1.2-1.2-3.3-1.2-4.5 0l-5.4 5.4s0 .1-.1.1c.4 0 .8.1 1.1.3l5.1-5c.4-.4 1-.6 1.5-.6.6 0 1.1.2 1.6.7.8.8.8 2.2 0 3.1L28 25.1c-.4.4-.9.6-1.4.6-.4 0-.8-.1-1.1-.2-.2-.1-.3-.2-.5-.4s-.3-.3-.4-.5c-.2-.4-.3-.8-.3-1.2-.3-.1-.7-.1-1-.1 0 .3 0 .7.1 1 .1.5.4 1 .8 1.5.4.4.9.7 1.5.8.3.1.5.1.8.1h.2c.7 0 1.4-.3 2-.8 0 0 .1 0 .1-.1l5.4-5.4c1.2-1.2 1.2-3.2-.1-4.5z" class="st2"/><path d="M27.8 22.2c-.6-.6-1.2-1-1.9-1.3l-.8.8c.7.2 1.4.6 1.9 1.2s1 1.2 1.2 1.9l.8-.8c-.2-.7-.6-1.3-1.2-1.8zm.6 6.2c-.1.4-.4.8-.6 1.2-.2.3-.4.5-.6.8L22 35.5c-1 1-2.3 1.5-3.7 1.5-1.4 0-2.8-.5-3.7-1.5-2.1-2.1-2.1-5.4 0-7.5l5.2-5.2c.2-.2.5-.4.8-.6.4-.2.8-.5 1.2-.6.6-.2 1.2-.3 1.8-.3h.7c.4 0 .8.1 1.1.3.7.2 1.4.6 1.9 1.2s1 1.2 1.2 1.9c.1.4.2.8.3 1.1 0 0 .1 0 .1-.1l.8-.8c-.1-.4-.2-.7-.4-1-.3-.7-.7-1.3-1.3-1.8-.6-.6-1.2-1-1.9-1.3-.3-.2-.7-.3-1.1-.4-.9-.2-1.8-.3-2.7-.1-.5.1-.9.2-1.4.4-.7.3-1.3.7-1.9 1.3l-5.2 5.2C12.6 28.4 12 30 12 31.7s.6 3.2 1.8 4.5c1.2 1.2 2.8 1.8 4.4 1.8 1.7 0 3.3-.6 4.4-1.8l5.2-5.2c.6-.6 1-1.2 1.3-1.9.2-.4.3-.9.4-1.4-.3.3-.7.5-1.1.7z" class="st2"/><path d="M21.6 25.2l.3-.3c.4-.4.9-.6 1.4-.6h.1c.4 0 .7.1 1.1.3.2.1.4.2.5.4.2.2.3.3.4.5.2.4.3.8.2 1.1.3.1.5.1.8.1h.2c0-.3 0-.7-.1-1-.1-.5-.4-1.1-.9-1.5-.4-.4-.9-.7-1.5-.8-.3-.1-.7-.1-1-.1-.7 0-1.3.3-1.9.8l-.2.2-.7.7-4.7 4.7c-1.2 1.2-1.2 3.3 0 4.5.6.6 1.4.9 2.2.9.8 0 1.6-.3 2.2-.9l4.7-4.7.7-.7c.1-.1.1-.1.1-.2-.4 0-.8-.1-1.1-.3l-5.1 5.1c-.8.8-2.3.8-3.1 0-.8-.9-.8-2.2 0-3.1l5.4-5.1z" class="st2"/><path fill="none" stroke="#444" stroke-linecap="round" stroke-miterlimit="10" stroke-width=".5" d="M17.4 20.7l-5.7-1.5m8.1-1.4l-1.2-4.9m-.5 5.9L14.4 15m17.9 14.7l5.7 1.5m-8.1 1.3l1.2 5m.5-6l3.7 3.8"/></svg>