<?xml version="1.0" encoding="utf-8"?>
<!-- Generator: Adobe Illustrator 24.0.1, SVG Export Plug-In . SVG Version: 6.00 Build 0)  -->
<svg version="1.1" id="Camada_1" xmlns="http://www.w3.org/2000/svg" xmlns:xlink="http://www.w3.org/1999/xlink" x="0px" y="0px"
	 viewBox="0 0 50 50" style="enable-background:new 0 0 50 50;" xml:space="preserve">
<style type="text/css">
	.st0{fill:#E56060;}
	.st1{fill:#FF6B6B;}
	.st2{fill:#444444;}
</style>
<g>
	<path class="st0" d="M48.8,20.5c-0.2-0.9-1-1.5-1.9-1.5H35.7c-1.1,0-2,0.9-2,2l0,0v5L48.8,20.5L48.8,20.5z M3.1,33.1h11l1.2-0.4
		v-28c0-1.1-0.9-2-2-2l0,0H3.1c-1.1,0-2,0.9-2,2v26.4C1.1,32.2,2,33.1,3.1,33.1L3.1,33.1z"/>
	<path class="st1" d="M15.3,17.8V4.7c0-1.1-0.9-2-2-2l0,0H3.1c-1.1,0-2,0.9-2,2v18.2L15.3,17.8z"/>
	<path class="st2" d="M46.9,17.8H35.7c-1.7,0-3.1,1.4-3.1,3.1v11H16.4V4.7c0-1.7-1.4-3.1-3.1-3.1H3.1C1.4,1.6,0,3,0,4.7v26.4
		c0,1.7,1.4,3.1,3.1,3.1h10.8v11.5c0,1.5,1.2,2.6,2.6,2.6h7.8c0.6,0,1.1-0.5,1.1-1.1c0-0.6-0.5-1.1-1.1-1.1h-7.8
		c-0.2,0-0.4-0.2-0.4-0.4V34.2h16.4v5.9c0,0.6,0.5,1.1,1.1,1.1s1.1-0.5,1.1-1.1v-5.9h12.1c1.7,0,3.1-1.4,3.1-3.1V20.9
		C50,19.2,48.6,17.9,46.9,17.8L46.9,17.8z M3.1,32c-0.5,0-0.8-0.4-0.8-0.8V4.7c0-0.5,0.4-0.8,0.8-0.8h10.2c0.5,0,0.8,0.4,0.8,0.8V32
		L3.1,32L3.1,32z M47.7,31.1c0,0.5-0.4,0.8-0.8,0.8H34.8v-11c0-0.5,0.4-0.8,0.8-0.8l0,0h11.2c0.5,0,0.8,0.4,0.8,0.8l0,0L47.7,31.1
		L47.7,31.1z"/>
</g>
</svg>
