<svg xmlns="http://www.w3.org/2000/svg" viewBox="0 0 50 50"><defs><style>.cls-1{stroke-width:.5px}.cls-1,.cls-3{fill:none;stroke:#444;stroke-miterlimit:10}</style></defs><g id="Camada_1"><path fill="#35d3c3" d="M20.2 17.9h12.7v12.2H20.2z"/><path fill="#7df4eb" d="M45.2 4.7H4.1c-1.4 0-1.4 3.8-1.4 5.2l-.2 12.9L2 33l1.2 11.8 12.4.6L47.7 34V7.2c0-1.4-1.1-2.6-2.5-2.6z"/><path fill="none" stroke="#444" stroke-linecap="round" stroke-linejoin="round" stroke-width="2.5" d="M32.6 46.1h-27c-1.9 0-3.4-1.6-3.4-3.5V7.7c0-1.9 1.5-3.5 3.4-3.5h39c1.9 0 3.4 1.6 3.4 3.5v28.5"/><path d="M45 38l-8.7-6.8v3.1h-4s2.5-3.2 2.7-8.8v-1.2c-.3-7.6-5.3-13.9-12.5-15.7V5.2L13.8 12l1.8 1.4c-2.6.6-4.8 1.9-6.5 4.1C7.2 20 6.3 23 6.6 26.1c.4 3.3 2.2 6.2 4.7 8.1H3l4.7 3.7-4.9 3.6h33.4v3.2l8.7-6.8zM35 25.8c-.3 7.1-5.3 13.1-12.1 15.1-1.4.5-3 .7-4.7.7m4.5-25.1c3.1 1.6 5.2 4.8 5.2 8.6 0 5.3-4.3 9.6-9.6 9.6s-9.6-4.3-9.6-9.6 4.2-9.6 9.5-9.6l4.5 3.6v-2.6z" class="cls-3"/><path d="M21.5 21.4h-6.7c-.5 0-.9.4-.9.9v8c0 .5.4.9.9.9h6.7c.5 0 .9-.4.9-.9v-8c0-.4-.4-.9-.9-.9z" class="cls-3"/><rect width="1.4" height="1.4" x="15.2" y="28.5" class="cls-1" rx=".4" ry=".4"/><rect width="1.4" height="1.4" x="15.2" y="26.2" class="cls-1" rx=".4" ry=".4"/><rect width="1.4" height="1.4" x="17.5" y="28.5" class="cls-1" rx=".4" ry=".4"/><rect width="1.4" height="1.4" x="17.5" y="26.2" class="cls-1" rx=".4" ry=".4"/><rect width="1.4" height="3.7" x="19.8" y="26.2" class="cls-1" rx=".4" ry=".4"/><rect width="6.1" height="1.9" x="15.2" y="22.7" class="cls-1" rx=".7" ry=".7"/></g></svg>