<?xml version="1.0" encoding="utf-8"?>
<!-- Generator: Adobe Illustrator 22.0.1, SVG Export Plug-In . SVG Version: 6.00 Build 0)  -->
<svg version="1.1" id="Camada_1" xmlns="http://www.w3.org/2000/svg" xmlns:xlink="http://www.w3.org/1999/xlink" x="0px" y="0px"
	 viewBox="0 0 50 50" style="enable-background:new 0 0 50 50;" xml:space="preserve">
<style type="text/css">
	.st0{fill:#89B8BD;}
	.st1{fill:#99CED4;}
	.st2{fill:none;}
	.st3{fill:#464646;}
</style>
<g>
	<g>
		<path class="st0" d="M36.4,25.1l0-1.3c-0.1-4.5-1.9-8.6-4.8-11.6L7.2,21.1c-0.4,1.4-0.6,3-0.4,4.6c0.4,4.1,2.9,7.5,6.3,9.3
			l23.1-8.4C36.3,26.1,36.4,25.6,36.4,25.1z"/>
	</g>
	<g>
		<path class="st1" d="M22.2,7.1V4.9L15.8,10l3.1,2.4c-0.5,0-1,0-1.4,0.1c-5,0.5-8.9,4-10.2,8.6l24.2-8.8
			C29.1,9.7,25.9,7.8,22.2,7.1z"/>
	</g>
	<path class="st2" d="M10.4,18.1c-1.8,2.2-2.6,5-2.3,7.9c0.5,4.9,4.2,8.7,8.9,9.5l1.9,0c1.1,0,2-0.1,3-0.4c4.3-1.3,7.4-5.1,7.6-9.6
		l0-1.2c-0.2-3.8-2.5-7.2-5.9-8.9v2.8l-5.1-4c-0.3,0-0.6,0-0.9,0C14.8,14.4,12.2,15.8,10.4,18.1z"/>
	<path class="st3" d="M19.8,11.9L19.8,11.9C19.8,11.9,19.8,11.9,19.8,11.9z"/>
	<path class="st3" d="M48.8,39.6L39,31.9v3.5h-4.5c0.1-0.1,0.2-0.2,0.3-0.4c0.4-0.6,0.2-1.4-0.4-1.7c-0.6-0.4-1.4-0.2-1.7,0.4
		c-2.9,4.4-7.7,7.2-12.9,7.5H8.8l2-1.5l-2.2-1.7l8.2,0l2.1,0c0.4,0,0.8,0,1.2-0.1c0.8-0.1,1.6-0.2,2.4-0.4c5.3-1.6,9.1-6.3,9.4-11.9
		l0-1.3c-0.3-5.5-4-10.3-9.3-11.9l-1.6-0.5v1.1l-1.2-1l-0.1-0.1l-1.9-1.5l3.2-2.6v0.7l1,0.2c7.5,1.4,12.9,7.8,13.1,15.5l0,1.2
		c0,0.7-0.1,1.3-0.2,2c-0.1,0.7,0.4,1.3,1,1.4c0.7,0.1,1.3-0.4,1.4-1c0.1-0.7,0.2-1.5,0.2-2.3l0-1.3c-0.3-8.6-6-15.7-14.1-17.7V2.7
		l-9.8,7.7l2,1.6c-2.9,0.7-5.4,2.2-7.3,4.6c-2.2,2.8-3.2,6.2-2.8,9.7C6,30,8,33.3,10.8,35.4l-9.4,0l5.3,4.2l-5.5,4.1H5l13,0l0,0h21
		v3.6L48.8,39.6z M8.1,26c-0.3-2.9,0.5-5.7,2.3-7.9c1.8-2.2,4.4-3.6,7.2-3.9c0.3,0,0.6,0,0.9,0l5.1,4v-2.8c3.4,1.7,5.7,5.1,5.9,8.9
		l0,1.2c-0.2,4.5-3.3,8.3-7.6,9.6c-0.9,0.3-1.9,0.4-3,0.4l-1.9,0C12.4,34.7,8.6,30.9,8.1,26z M29.6,41.2c1-0.7,1.9-1.5,2.8-2.4
		c0.3-0.3,0.5-0.5,0.7-0.8h8.3v-0.9l3.2,2.6l-3.2,2.6v-1H29.6z"/>
	<g>
		<path class="st3" d="M22.6,19.8h-7.5c-0.6,0-1,0.5-1,1v8.9c0,0.6,0.5,1,1,1h7.5c0.6,0,1-0.5,1-1v-8.9
			C23.6,20.3,23.1,19.8,22.6,19.8z M17.1,28.8c0,0.3-0.2,0.5-0.5,0.5h-0.6c-0.3,0-0.5-0.2-0.5-0.5v-0.6c0-0.3,0.2-0.5,0.5-0.5h0.6
			c0.3,0,0.5,0.2,0.5,0.5V28.8z M17.1,26.2c0,0.3-0.2,0.5-0.5,0.5h-0.6c-0.3,0-0.5-0.2-0.5-0.5v-0.6c0-0.3,0.2-0.5,0.5-0.5h0.6
			c0.3,0,0.5,0.2,0.5,0.5V26.2z M19.7,28.8c0,0.3-0.2,0.5-0.5,0.5h-0.6c-0.3,0-0.5-0.2-0.5-0.5v-0.6c0-0.3,0.2-0.5,0.5-0.5h0.6
			c0.3,0,0.5,0.2,0.5,0.5V28.8z M19.7,26.2c0,0.3-0.2,0.5-0.5,0.5h-0.6c-0.3,0-0.5-0.2-0.5-0.5v-0.6c0-0.3,0.2-0.5,0.5-0.5h0.6
			c0.3,0,0.5,0.2,0.5,0.5V26.2z M22.3,28.7c0,0.3-0.2,0.5-0.5,0.5h-0.6c-0.3,0-0.5-0.2-0.5-0.5v-3.1c0-0.3,0.2-0.5,0.5-0.5h0.6
			c0.3,0,0.5,0.2,0.5,0.5C22.3,25.6,22.3,28.7,22.3,28.7z M22.3,22.6c0,0.4-0.4,0.8-0.8,0.8h-5.2c-0.4,0-0.8-0.4-0.8-0.8v-0.5
			c0-0.4,0.4-0.8,0.8-0.8h5.2c0.4,0,0.8,0.4,0.8,0.8L22.3,22.6L22.3,22.6z"/>
	</g>
</g>
</svg>
