<?xml version="1.0" encoding="utf-8"?>
<!-- Generator: Adobe Illustrator 27.7.0, SVG Export Plug-In . SVG Version: 6.00 Build 0)  -->
<svg version="1.1" id="Layer_1" xmlns="http://www.w3.org/2000/svg" xmlns:xlink="http://www.w3.org/1999/xlink" x="0px" y="0px"
	 viewBox="0 0 50 50" style="enable-background:new 0 0 50 50;" xml:space="preserve">
<style type="text/css">
	.st0{fill:#DC5E82;}
	.st1{fill:none;stroke:#444444;stroke-width:2.5;stroke-linecap:round;stroke-linejoin:round;stroke-miterlimit:10;}
	.st2{fill:none;stroke:#444444;stroke-width:0.5;stroke-linecap:round;stroke-linejoin:round;stroke-miterlimit:10;}
	.st3{fill:none;stroke:#444444;stroke-linecap:round;stroke-linejoin:round;stroke-miterlimit:10;}
</style>
<g>
	<g>
		<g>
			<path class="st0" d="M47.3,20.2c-0.2-0.8-2.7-7.5-3.2-8.1l-3-3.5l-0.2,0.1l-7.6-5.7l-7.8-0.7c-3.2,0-12.8-0.7-21.3,11.5l-2.9,7.9
				l0.5,2l1.8,11.5c0.1,0.4,4.7,7,5.1,7.2l5.6,3l32.2-11.7C47.2,33.2,48.3,24.9,47.3,20.2z"/>
			<path class="st1" d="M27.6,47.8C15,49.3,3.5,40.3,1.9,27.7S9.3,3.6,22,2s24.1,7.4,25.7,20.1c0.6,5.1-0.5,10-2.8,14.1"/>
		</g>
	</g>
	<g>
		<g>
			<circle class="st2" cx="24.7" cy="24.8" r="16.8"/>
			<circle class="st3" cx="24.7" cy="24.8" r="9.6"/>
			<circle class="st2" cx="24.7" cy="24.8" r="2.6"/>
		</g>
		<line class="st3" x1="24.7" y1="19.8" x2="24.7" y2="5.5"/>
		<polyline class="st3" points="26.4,18.4 24.8,20.5 23,18.4 		"/>
		<line class="st3" x1="29.5" y1="24.8" x2="43.9" y2="24.8"/>
		<polyline class="st3" points="30.9,23.1 28.9,24.7 30.9,26.5 		"/>
		<line class="st3" x1="19.7" y1="24.8" x2="5.3" y2="24.8"/>
		<polyline class="st3" points="18.3,23.1 20.3,24.7 18.3,26.5 		"/>
		<line class="st3" x1="24.7" y1="30" x2="24.7" y2="44.3"/>
		<polyline class="st3" points="26.4,31.4 24.8,29.3 23,31.4 		"/>
	</g>
</g>
</svg>
