<?xml version="1.0" encoding="utf-8"?>
<!-- Generator: Adobe Illustrator 22.1.0, SVG Export Plug-In . SVG Version: 6.00 Build 0)  -->
<svg version="1.1" id="Layer_1" xmlns="http://www.w3.org/2000/svg" xmlns:xlink="http://www.w3.org/1999/xlink" x="0px" y="0px"
	 viewBox="0 0 50 50" style="enable-background:new 0 0 50 50;" xml:space="preserve">
<style type="text/css">
	.st0{fill:#71BAC0;}
	.st1{fill:#7ED0D6;}
	.st2{fill:#494949;}
</style>
<g>
	<g>
		<path class="st0" d="M43.9,9L6.2,22.7c0.6,7.3,2.7,14.7,9.6,20.1l25.6-9.3C44.8,25.6,43.9,16.4,43.9,9z"/>
	</g>
	<g>
		<path class="st1" d="M44.1,10.3c-7.8,0-13.8-2.2-18.9-7.2C20.1,8,14.1,10.3,6.2,10.3c0,4.2-0.3,9,0.1,13.8L44.1,10.3
			C44.1,10.3,44.1,10.3,44.1,10.3z"/>
	</g>
	<g>
		<path class="st2" d="M25,49.5l-0.4-0.1C4.2,42.3,4.5,25.5,4.8,13.2c0-1.3,0-2.6,0-3.8V8.2h1.2c7.5,0,13.3-2.2,18.1-6.8L25,0.5
			l0.9,0.8C30.7,6,36.4,8.2,43.9,8.2h1.2v1.2c0,1.2,0,2.5,0,3.8c0.1,7.3,0.3,15.6-3.4,22.9c-0.3,0.6-1.1,0.9-1.7,0.5
			c-0.6-0.3-0.9-1.1-0.5-1.7c3.4-6.7,3.2-14.7,3.1-21.7c0-0.9,0-1.8,0-2.6C35.5,10.4,29.8,8.3,25,3.9c-4.8,4.3-10.5,6.5-17.7,6.7
			c0,0.9,0,1.7,0,2.6C7,25.3,6.8,40.3,25,46.9c3.3-1.2,6.2-2.7,8.5-4.5c0.5-0.4,1.3-0.3,1.8,0.2s0.3,1.3-0.2,1.8
			c-2.6,2-5.9,3.7-9.6,5L25,49.5z"/>
	</g>
	<g>
		<path class="st2" d="M25,43.7l-0.1,0C9.2,38.3,9.5,25.8,9.6,15.8c0-1,0-2.1,0-3v-0.4h0.4c6.1,0,10.8-1.8,14.7-5.6L25,6.6l0.3,0.3
			c3.9,3.8,8.6,5.6,14.7,5.6h0.4v0.4c0,1,0,2,0,3c0.2,10,0.4,22.5-15.2,27.9L25,43.7z M10.4,13.1c0,0.9,0,1.8,0,2.7
			C10.2,25.5,10,37.7,25,42.9c15-5.3,14.8-17.4,14.6-27.2c0-0.9,0-1.8,0-2.7c-6-0.1-10.6-1.8-14.6-5.5C21.1,11.3,16.4,13,10.4,13.1z
			"/>
	</g>
	<g>
		<g>
			<g>
				<path class="st2" d="M31.1,23.1H30v-1.4c0-2.8-2.2-5-5-5s-5,2.2-5,5v1.4h-1.1c-0.2,0-0.4,0.2-0.4,0.4v8.9c0,0.8,0.6,1.4,1.4,1.4
					h10c0.8,0,1.4-0.6,1.4-1.4v-8.9C31.4,23.2,31.3,23.1,31.1,23.1z M26.1,30.5c0,0.1,0,0.2-0.1,0.3c-0.1,0.1-0.2,0.1-0.3,0.1h-1.4
					c-0.1,0-0.2,0-0.3-0.1s-0.1-0.2-0.1-0.3l0.2-2c-0.4-0.3-0.6-0.7-0.6-1.1c0-0.8,0.6-1.4,1.4-1.4c0.8,0,1.4,0.6,1.4,1.4
					c0,0.5-0.2,0.9-0.6,1.1L26.1,30.5z M27.9,23.1h-5.7v-1.4c0-1.6,1.3-2.9,2.9-2.9c1.6,0,2.9,1.3,2.9,2.9V23.1z"/>
			</g>
		</g>
	</g>
</g>
</svg>
