<?xml version="1.0" encoding="utf-8"?>
<!-- Generator: Adobe Illustrator 24.0.3, SVG Export Plug-In . SVG Version: 6.00 Build 0)  -->
<svg version="1.1" id="Layer_1" xmlns="http://www.w3.org/2000/svg" xmlns:xlink="http://www.w3.org/1999/xlink" x="0px" y="0px"
	 viewBox="0 0 50 50" style="enable-background:new 0 0 50 50;" xml:space="preserve">
<style type="text/css">
	.st0{fill:#00C8E2;}
	.st1{fill:#E589EF;}
	.st2{fill:#00DFFC;}
	.st3{fill:#444444;stroke:#444444;stroke-width:0.5;stroke-miterlimit:10;}
	.st4{fill:#444444;}
</style>
<g>
	<path class="st0" d="M36.9,17.9c1.2,1.9,1.9,4.1,2.1,6.4l-1.3,0.5l-5.4,2l-1.3,0.5l-9.8,3.6L20,31.2l-2.5,0.9l-1.4,0.5l-2,0.7
		l-1.3,0.5c-1.3-1.8-2.2-3.9-2.5-6.2c0-0.1,0-0.2,0-0.3l1.3-0.5l8.6-3.1l1.3-0.5l7-2.5l1.3-0.5l5.7-2.1l1.3-0.5
		C36.8,17.7,36.8,17.8,36.9,17.9z"/>
</g>
<g>
	<path class="st1" d="M42.8,22.4l0,0.5l-1,0.4C42,22.9,42.3,22.6,42.8,22.4z"/>
</g>
<g>
	<path class="st2" d="M45.6,7.3l-1.3,0.5c0.1,0.2,0.1,0.5,0.1,0.8c0,1.7-1.3,3-3,3c-1.2,0-2.2-0.7-2.7-1.7l-1.3,0.5
		c0.1,0.3,0.3,0.6,0.5,0.8l-3.7,3.7c-0.9-0.9-2-1.6-3.1-2.2l-1.8,0.7l-16.2,5.9l-1.8,0.7c-0.7,1.5-1,3.2-1.1,4.9h-2
		c-0.3-1.4-1.5-2.5-2.9-2.7l-2.8,1l-0.9,2.6l-0.1,0.5c0.3,1.6,1.7,2.8,3.4,2.8c1.7,0,3.1-1.2,3.4-2.8h2c0,0.4,0.1,0.8,0.1,1.2
		c0,0.1,0,0.2,0,0.3l1.3-0.5l8.7-3.2l1.4-0.5l6.8-2.5l1.4-0.5l5.8-2.1l1.3-0.5c0-0.1-0.1-0.2-0.1-0.2c-0.5-0.7-1-1.3-1.5-2l3.6-3.6
		c0.7,0.5,1.6,0.8,2.6,0.8c2.4,0,4.4-2,4.4-4.4C45.8,8.1,45.8,7.6,45.6,7.3z M4.7,27.5c-1.1,0-2.1-0.9-2.1-2.1
		c0-1.2,0.9-2.1,2.1-2.1c1.1,0,2.1,0.9,2.1,2.1C6.8,26.6,5.8,27.5,4.7,27.5z"/>
</g>
<g>
	<g>
		<g>
			<g>
				<path class="st3" d="M41,26.1c0.3,1.6,1.7,2.8,3.4,2.8c1.9,0,3.4-1.5,3.4-3.4c0-1.9-1.5-3.4-3.4-3.4c-0.6,0-1.1,0.1-1.6,0.4
					c-0.4,0.2-0.8,0.5-1.1,0.9c-0.3,0.4-0.6,0.9-0.7,1.4h-2c0-0.2,0-0.3,0-0.5c-0.2-2.3-0.9-4.5-2.1-6.4c0-0.1-0.1-0.2-0.1-0.2
					c-0.5-0.7-1-1.3-1.5-2l3.6-3.6c0.7,0.5,1.6,0.8,2.6,0.8c2.4,0,4.4-2,4.4-4.4c0-0.4-0.1-0.8-0.2-1.2c-0.5-1.8-2.2-3.1-4.2-3.1
					c-2.4,0-4.4,2-4.4,4.4c0,0.6,0.1,1.2,0.4,1.7c0.1,0.3,0.3,0.6,0.5,0.8l-3.7,3.7c-0.9-0.9-2-1.6-3.1-2.2
					c-1.8-0.9-3.8-1.5-5.9-1.6v-2C26.8,8.6,28,7.2,28,5.6c0-1.9-1.5-3.4-3.4-3.4c-1.9,0-3.4,1.5-3.4,3.4c0,1.7,1.2,3.1,2.8,3.4v2
					c-3.5,0.2-6.6,1.6-9.1,3.8l-3.7-3.7c0.5-0.7,0.8-1.6,0.8-2.6c0-1.5-0.7-2.8-1.9-3.6C9.8,4.7,9.3,4.8,9.1,5.1
					C8.9,5.4,9,5.8,9.3,6c0.8,0.6,1.3,1.5,1.3,2.5c0,1.7-1.3,3-3,3c-1.6,0-3-1.3-3-3c0-1.3,0.9-2.5,2.2-2.9c0.4-0.1,0.6-0.5,0.5-0.8
					C7.2,4.4,6.8,4.2,6.4,4.3C4.6,4.8,3.3,6.6,3.3,8.5c0,2.4,2,4.4,4.4,4.4c1,0,1.8-0.3,2.6-0.8l3.7,3.6c-1.1,1.2-2,2.6-2.6,4.1
					c-0.7,1.5-1,3.2-1.1,4.9h-2c-0.3-1.4-1.5-2.5-2.9-2.7c-0.1,0-0.3,0-0.5,0c-1.9,0-3.4,1.5-3.4,3.4c0,0.2,0,0.5,0.1,0.7
					c0.3,1.6,1.7,2.8,3.4,2.8c1.7,0,3.1-1.2,3.4-2.8h2c0,0.4,0.1,0.8,0.1,1.2c0,0.1,0,0.2,0,0.3c0.3,2.3,1.2,4.4,2.5,6.2
					c0.3,0.5,0.7,0.9,1.1,1.3l-3.7,3.6C9.5,38.3,8.6,38,7.6,38c-2.4,0-4.4,2-4.4,4.4c0,2.4,2,4.4,4.4,4.4c2.4,0,4.4-2,4.4-4.4
					c0-1-0.3-1.8-0.8-2.6l3.7-3.7c2.4,2.2,5.6,3.6,9.1,3.8v2c-1.6,0.3-2.8,1.7-2.8,3.4c0,1.9,1.5,3.4,3.4,3.4c1.9,0,3.4-1.5,3.4-3.4
					c0-1.7-1.2-3.1-2.8-3.4v-2c3.5-0.2,6.6-1.6,9-3.8l3.7,3.7c-0.5,0.7-0.8,1.6-0.8,2.6c0,2.4,2,4.4,4.4,4.4c2.4,0,4.4-2,4.4-4.4
					c0-0.5-0.1-0.9-0.2-1.4c-0.1-0.4-0.5-0.5-0.9-0.4c-0.4,0.1-0.6,0.5-0.4,0.9c0.1,0.3,0.2,0.6,0.2,1c0,1.7-1.3,3-3,3
					c-1.6,0-3-1.3-3-3s1.3-3,3-3c0.4,0,0.8,0.1,1.1,0.2c0.3,0.1,0.7,0,0.9-0.4c0.1-0.4,0-0.7-0.4-0.9C42.5,38.1,42,38,41.5,38
					c-1,0-1.8,0.3-2.6,0.8l-3.6-3.6c2.2-2.4,3.6-5.6,3.8-9H41z M44.4,23.3c1.2,0,2.1,0.9,2.1,2.1c0,1.1-0.9,2.1-2.1,2.1
					c-1.1,0-2.1-0.9-2.1-2.1C42.3,24.3,43.3,23.3,44.4,23.3z M38.5,8.5c0-1.6,1.3-3,3-3c1.4,0,2.6,0.9,2.9,2.2
					c0.1,0.2,0.1,0.5,0.1,0.8c0,1.7-1.3,3-3,3c-1.2,0-2.2-0.7-2.7-1.7C38.6,9.4,38.5,8.9,38.5,8.5z M4.7,27.5
					c-1.1,0-2.1-0.9-2.1-2.1c0-1.2,0.9-2.1,2.1-2.1c1.1,0,2.1,0.9,2.1,2.1C6.8,26.6,5.8,27.5,4.7,27.5z M7.6,45.3c-1.6,0-3-1.3-3-3
					s1.4-3,3-3c1.7,0,3,1.3,3,3S9.3,45.3,7.6,45.3z M22.5,5.6c0-1.1,0.9-2.1,2.1-2.1s2.1,0.9,2.1,2.1c0,1.2-0.9,2.1-2.1,2.1
					S22.5,6.7,22.5,5.6z M26.6,45.3c0,1.1-0.9,2.1-2.1,2.1s-2.1-0.9-2.1-2.1c0-1.2,0.9-2.1,2.1-2.1S26.6,44.1,26.6,45.3z M24.5,38.5
					c-4.3,0-8-2-10.4-5.2c-1.4-1.8-2.3-3.9-2.6-6.2c0-0.1,0-0.2,0-0.3c0-0.5-0.1-0.9-0.1-1.4c0-2.3,0.6-4.4,1.6-6.3
					c2.2-4.1,6.5-6.8,11.5-6.8c1.7,0,3.3,0.3,4.8,0.9c2.5,1,4.6,2.7,6.1,4.9l0.1,0.2c1.2,1.9,1.9,4.1,2,6.4c0,0.2,0,0.4,0,0.7
					C37.6,32.6,31.8,38.5,24.5,38.5z"/>
			</g>
		</g>
	</g>
</g>
<g>
	<path class="st4" d="M18,33h3.4c0,0,0,0,0,0c0,0,0,0,0,0h2c0.3,0,0.6-0.3,0.6-0.6s-0.3-0.6-0.6-0.6H22v-1c0-0.3-0.3-0.6-0.6-0.6
		c-0.3,0-0.6,0.3-0.6,0.6v1h-2.2v-2.9c0-1.4,1.2-2.6,2.6-2.6h7.1c1.4,0,2.6,1.2,2.6,2.6v2.9h-2.2v-1c0-0.3-0.3-0.6-0.6-0.6
		s-0.6,0.3-0.6,0.6v1h-1.4c-0.3,0-0.6,0.3-0.6,0.6s0.3,0.6,0.6,0.6h2c0,0,0,0,0,0s0,0,0,0h3.4c0.3,0,0.6-0.3,0.6-0.6v-3.5
		c0-2.1-1.7-3.8-3.8-3.8h-0.4c0.9-0.8,1.5-2.1,1.5-3.4c0-2.5-2.1-4.6-4.6-4.6s-4.6,2.1-4.6,4.6c0,1.4,0.6,2.6,1.5,3.4h-0.4
		c-2.1,0-3.8,1.7-3.8,3.8v3.5C17.4,32.7,17.7,33,18,33L18,33z M21.3,21.6c0-1.9,1.5-3.4,3.4-3.4c1.9,0,3.4,1.5,3.4,3.4
		c0,1.9-1.5,3.4-3.4,3.4C22.9,25,21.3,23.5,21.3,21.6L21.3,21.6z"/>
</g>
</svg>
