<?xml version="1.0" encoding="utf-8"?>
<!-- Generator: Adobe Illustrator 28.0.0, SVG Export Plug-In . SVG Version: 6.00 Build 0)  -->
<svg version="1.1" id="Layer_1" xmlns="http://www.w3.org/2000/svg" xmlns:xlink="http://www.w3.org/1999/xlink" x="0px" y="0px"
	 viewBox="0 0 50 50" style="enable-background:new 0 0 50 50;" xml:space="preserve">
<style type="text/css">
	.st0{fill:#4B187B;}
	.st1{fill:#E5E5E5;}
</style>
<g>
	<path class="st0" d="M29.1,12.2c-1.6,0-2.6,1-2.6,2.6v1.8c0,1.6,1,2.6,2.6,2.6s2.6-1,2.6-2.6v-1.8C31.7,13.2,30.6,12.2,29.1,12.2z"
		/>
	<path class="st0" d="M43.4,19.3v-1.8c0-1.6-1-2.6-2.6-2.6s-2.6,1-2.6,2.6v1.8c0,1.6,1,2.6,2.6,2.6S43.4,20.8,43.4,19.3z"/>
	<path class="st0" d="M34.5,28.2c0.6,0,1,0.4,1,1v8.7c0.9-0.5,1.6-1.5,1.6-2.4v-8.1c0-1.9-4.9-3.5-8-3.5s-8,1.6-8,3.5v8.1
		c0,0.9,0.7,1.9,1.6,2.4v-8.7c0-0.6,0.4-1,1-1s1,0.4,1,1v18.7h3.4v-9.7c0-0.6,0.4-1,1-1s1,0.4,1,1v9.7h3.4V29.2
		C33.5,28.6,33.9,28.2,34.5,28.2z"/>
	<path class="st0" d="M45.3,30.9c0.6,0,1,0.4,1,1v7.9c0.4-0.1,0.9-0.2,1.4-0.4V28.2c-2.2-1-5.2-1.6-6.9-1.6c-0.6,0-1-0.4-1-1
		s0.4-1,1-1c1.4,0,4.3,0.5,6.9,1.5v-2V8.6c0-3.1-2.5-5.6-5.6-5.6H8.4C5.3,3,2.8,5.5,2.8,8.6v31.3v2.5c0,3.1,2.5,5.6,5.6,5.6h0h3.4
		v-6.1c-1.9-0.3-3.6-1.6-3.6-3.6v-8.1c0-3.8,6-5.5,9.1-5.5c0.6,0,1,0.4,1,1s-0.4,1-1,1c-2.8,0-7.1,1.5-7.1,3.5v8.1
		c0,0.8,0.8,1.3,1.6,1.6v-7.9c0-0.6,0.4-1,1-1s1,0.4,1,1v16h8.8V40c-2-0.5-3.6-2.4-3.6-4.5v-8.1c0-3.8,6.6-5.5,10-5.5s10,1.7,10,5.5
		v8.1c0,2.1-1.6,4-3.6,4.5v7.9h6.7h0c0.8,0,1.5-0.2,2.2-0.4V31.9C44.3,31.3,44.7,30.9,45.3,30.9z M21.9,19.3c0,2.7-1.9,4.6-4.6,4.6
		s-4.6-1.9-4.6-4.6v-1.8c0-2.7,1.9-4.6,4.6-4.6s4.6,1.9,4.6,4.6V19.3z M33.7,16.6c0,2.7-1.9,4.6-4.6,4.6s-4.6-1.9-4.6-4.6v-1.8
		c0-2.7,1.9-4.6,4.6-4.6s4.6,1.9,4.6,4.6V16.6z M36.2,19.3v-1.8c0-2.7,1.9-4.6,4.6-4.6s4.6,1.9,4.6,4.6v1.8c0,2.7-1.9,4.6-4.6,4.6
		S36.2,21.9,36.2,19.3z"/>
	<path class="st0" d="M17.3,14.9c-1.6,0-2.6,1-2.6,2.6v1.8c0,1.6,1,2.6,2.6,2.6s2.6-1,2.6-2.6v-1.8C19.9,15.9,18.9,14.9,17.3,14.9z"
		/>
	<path class="st0" d="M46.3,46c0.9-1,1.4-2.3,1.4-3.7v-0.8c-0.5,0.1-1,0.3-1.4,0.3V46z"/>
	<path class="st1" d="M39.1,35.5v-8.1c0-3.8-6.6-5.5-10-5.5s-10,1.7-10,5.5v8.1c0,2.1,1.6,4,3.6,4.5v7.9h2V29.2c0-0.6-0.4-1-1-1
		s-1,0.4-1,1v8.7c-0.9-0.5-1.6-1.5-1.6-2.4v-8.1c0-1.9,4.9-3.5,8-3.5s8,1.6,8,3.5v8.1c0,0.9-0.7,1.9-1.6,2.4v-8.7c0-0.6-0.4-1-1-1
		s-1,0.4-1,1v18.7h2V40C37.5,39.5,39.1,37.6,39.1,35.5z"/>
	<path class="st1" d="M39.8,25.6c0,0.6,0.4,1,1,1c1.8,0,4.8,0.7,6.9,1.6v-2.1c-2.6-1-5.6-1.5-6.9-1.5C40.2,24.6,39.8,25,39.8,25.6z"
		/>
	<path class="st1" d="M46.3,39.8v-7.9c0-0.6-0.4-1-1-1s-1,0.4-1,1v15.5c0.2-0.1,0.3-0.1,0.5-0.2c0.6-0.3,1.1-0.7,1.5-1.2v-4.2
		c0.4-0.1,0.9-0.2,1.4-0.3v-2.1C47.2,39.6,46.7,39.7,46.3,39.8z"/>
	<path class="st1" d="M29.1,10.2c-2.7,0-4.6,1.9-4.6,4.6v1.8c0,2.7,1.9,4.6,4.6,4.6s4.6-1.9,4.6-4.6v-1.8
		C33.7,12.1,31.7,10.2,29.1,10.2z M31.7,16.6c0,1.6-1,2.6-2.6,2.6s-2.6-1-2.6-2.6v-1.8c0-1.6,1-2.6,2.6-2.6s2.6,1,2.6,2.6V16.6z"/>
	<path class="st1" d="M29.1,37.2c-0.6,0-1,0.4-1,1v9.7h2v-9.7C30.1,37.7,29.6,37.2,29.1,37.2z"/>
	<path class="st1" d="M45.4,19.3v-1.8c0-2.7-1.9-4.6-4.6-4.6s-4.6,1.9-4.6,4.6v1.8c0,2.7,1.9,4.6,4.6,4.6S45.4,21.9,45.4,19.3z
		 M38.2,19.3v-1.8c0-1.6,1-2.6,2.6-2.6s2.6,1,2.6,2.6v1.8c0,1.6-1,2.6-2.6,2.6S38.2,20.8,38.2,19.3z"/>
	<path class="st1" d="M12.8,30.9c-0.6,0-1,0.4-1,1v7.9c-0.8-0.2-1.6-0.7-1.6-1.6v-8.1c0-2,4.3-3.5,7.1-3.5c0.6,0,1-0.4,1-1
		s-0.4-1-1-1c-3.1,0-9.1,1.7-9.1,5.5v8.1c0,2,1.7,3.3,3.6,3.6v6.1h2v-16C13.8,31.3,13.4,30.9,12.8,30.9z"/>
	<path class="st1" d="M17.3,12.9c-2.7,0-4.6,1.9-4.6,4.6v1.8c0,2.7,1.9,4.6,4.6,4.6s4.6-1.9,4.6-4.6v-1.8
		C21.9,14.8,20,12.9,17.3,12.9z M19.9,19.3c0,1.6-1,2.6-2.6,2.6s-2.6-1-2.6-2.6v-1.8c0-1.6,1-2.6,2.6-2.6s2.6,1,2.6,2.6V19.3z"/>
</g>
</svg>
