<?xml version="1.0" encoding="utf-8"?>
<!-- Generator: Adobe Illustrator 27.8.1, SVG Export Plug-In . SVG Version: 6.00 Build 0)  -->
<svg version="1.1" id="Camada_3" xmlns="http://www.w3.org/2000/svg" xmlns:xlink="http://www.w3.org/1999/xlink" x="0px" y="0px"
	 viewBox="0 0 50 50" style="enable-background:new 0 0 50 50;" xml:space="preserve">
<style type="text/css">
	.st0{fill:#FC9D9A;}
	.st1{fill:none;stroke:#444444;stroke-width:2.5;stroke-linecap:round;stroke-linejoin:round;stroke-miterlimit:10;}
	.st2{fill:none;stroke:#444444;stroke-linecap:round;stroke-linejoin:round;stroke-miterlimit:10;}
	.st3{fill:none;stroke:#444444;stroke-width:0.5;stroke-linecap:round;stroke-linejoin:round;stroke-miterlimit:10;}
</style>
<g>
	<g>
		<g>
			<path class="st0" d="M44.42,12.52l-5.63-3.59l-7.67-4.43l-5.97-2.84c-3.2,0-21.45,8.94-21.45,12.14l-0.53,7.8L3.7,36.74
				l11.5,7.56l31.02-11.04C46.96,32.84,45.4,14.51,44.42,12.52z"/>
			<g>
				<g>
					<path class="st1" d="M29.8,46.62l-2.2,1.27c-1.69,0.98-3.78,0.98-5.47,0L6.56,38.9c-1.69-0.98-2.74-2.78-2.74-4.74V16.18
						c0-1.96,1.04-3.76,2.74-4.74l15.57-8.99c1.69-0.98,3.78-0.98,5.47,0l15.57,8.99c1.69,0.98,2.74,2.78,2.74,4.74v17.98
						c0,1.96-1.04,3.76-2.74,4.74l-2.46,1.42"/>
				</g>
			</g>
		</g>
	</g>
	<g>
		<ellipse class="st2" cx="24.96" cy="10.83" rx="2.85" ry="3.4"/>
		<line class="st2" x1="22.36" y1="20.29" x2="22.36" y2="34.56"/>
		<line class="st2" x1="27.66" y1="20.29" x2="27.66" y2="34.56"/>
		<line class="st2" x1="24.96" y1="25.68" x2="24.96" y2="34.46"/>
		<g>
			<path class="st2" d="M22.33,26.09c0,0-2.46-0.09-2.46-4.43s0.09-3.38,0.09-3.38s0-2.43,5-2.43"/>
			<path class="st2" d="M27.68,26.09c0,0,2.38-0.09,2.38-4.43s-0.09-3.38-0.09-3.38s0-2.43-5-2.43"/>
		</g>
		<path class="st3" d="M19.66,28.96l-8.83,5.21c-0.55,0.32-0.55,1.11-0.01,1.44L13.11,37c0,0,1.64,0.63,1.85-0.85
			s2.39-1.71,3.78-0.95c1.4,0.77,2.67,3.17-0.4,3.17s0.11,1.59,0.11,1.59l3.35,1.89c0.25,0.14,0.56,0.14,0.82,0l4.03-2.21
			c0,0,1.8-0.82,2.38,0.53c0.81,1.87,3.28,1.64,4.49,0.85c1.22-0.79,1.19-2.48,0.16-3.07c-1.01-0.57-2.48-0.53-1.85-1.22l2.23-1.23
			c0.57-0.32,0.58-1.14,0.01-1.47l-4.25-2.43"/>
		<path class="st3" d="M3.25,31.41l3.97-2.31c0,0,1.77-0.87,2.39,0.46c0.86,1.85,3.32,1.55,4.51,0.73s1.12-2.52,0.08-3.07
			c-1.03-0.54-2.5-0.46-1.88-1.17l2.2-1.29c0.57-0.33,0.55-1.16-0.03-1.47L4.01,17.5"/>
		<path class="st3" d="M45.67,30.9c-0.77-0.11-1.48-0.51-1.86-1.34c-0.62-1.33-2.39-0.46-2.39-0.46l-3.97,2.31
			c-0.25,0.15-0.56,0.15-0.82,0.02l-3.4-1.8c0,0-3.21-1.5-0.15-1.58c3.06-0.08,1.73-2.45,0.31-3.18c-0.64-0.33-1.43-0.45-2.13-0.34"
			/>
		<path class="st3" d="M31.39,20.34l2.77-1.73l1.74-1.08c0.41-0.26,0.93-0.28,1.37-0.07l7.11,3.52l1.56,0.84"/>
	</g>
</g>
</svg>
