<?xml version="1.0" encoding="utf-8"?>
<!-- Generator: Adobe Illustrator 28.0.0, SVG Export Plug-In . SVG Version: 6.00 Build 0)  -->
<svg version="1.1" id="Layer_1" xmlns="http://www.w3.org/2000/svg" xmlns:xlink="http://www.w3.org/1999/xlink" x="0px" y="0px"
	 viewBox="0 0 50 50" style="enable-background:new 0 0 50 50;" xml:space="preserve">
<style type="text/css">
	.st0{fill:#8852CA;}
	.st1{fill:none;stroke:#E5E5E5;stroke-width:2;stroke-linejoin:round;stroke-miterlimit:10;}
	.st2{fill:none;stroke:#E5E5E5;stroke-width:2;stroke-linecap:round;stroke-linejoin:round;stroke-miterlimit:10;}
</style>
<g>
	<path class="st0" d="M41.9,2.6H8.1c-3.1,0-5.6,2.5-5.6,5.6v31.3v2.5c0,3.1,2.5,5.6,5.6,5.6h0h33.7h0c1,0,1.9-0.2,2.7-0.7
		c1.7-0.9,2.9-2.8,2.9-4.9V23.6V8.1C47.4,5.1,44.9,2.6,41.9,2.6z"/>
</g>
<g>
	<path class="st1" d="M17.6,47.4v-4.3c0-0.4,0.3-0.6,0.6-0.6H33c0.4,0,0.6,0.3,0.6,0.6v4.3"/>
	<path class="st2" d="M18.9,42.5v-2.6l-3.4-5.8c-0.4-0.7-0.6-1.5-0.6-2.3v-8.1c0-0.7,0.5-1.2,1.2-1.2h0.2c1,0,1.9,0.7,2.2,1.6
		l0.5,1.6c0.3,0.9,0.4,1.8,0.4,2.7v2.2"/>
	<path class="st2" d="M19.3,27.8V15.4c0-1,0.8-1.9,1.8-1.9h0c1.1,0,2,0.8,2,1.9v10"/>
	<path class="st2" d="M23.1,15.4V13c0-1.1,0.9-2,2-2h0c1.1,0,2,0.9,2,2v12.4"/>
	<path class="st2" d="M30.9,25.9V15.2c0-1.1-0.9-1.9-1.9-1.9h0c-1.1,0-1.9,0.9-1.9,1.9v0.9"/>
	<path class="st2" d="M32.5,42.5l0.2-1.4c0.1-0.5,0.2-1.1,0.4-1.6l1.1-2.8c0.6-1.5,0.9-3.1,0.8-4.6l-0.9-14.1
		c-0.1-0.8-0.8-1.5-1.6-1.5h0c-0.9,0-1.6,0.7-1.6,1.6v0.8"/>
	<path class="st1" d="M2.6,18h3.8c0.4,0,0.8-0.1,1.1-0.4l4.1-2.9c0.5-0.4,1.2-0.6,1.9-0.6h6.4"/>
	<path class="st1" d="M2.6,31.8h2.9c0.4,0,0.7,0.1,1,0.2l3.9,1.7c0.7,0.3,1.4,0.5,2.2,0.5h3"/>
	<line class="st2" x1="13.1" y1="18.3" x2="19.3" y2="18.3"/>
	<path class="st1" d="M17.8,2.6v4c0,0.4,0.3,0.6,0.6,0.6H33c0.4,0,0.6-0.3,0.6-0.6v-4"/>
	<path class="st2" d="M18.8,7.2v1c0,0.4-0.2,1.1-1,2.2c0,0-1.2,1.6-1.4,3.8"/>
	<path class="st2" d="M32.5,7.2v2c0,0.3,0.1,0.7,0.3,0.9l2.8,4.8"/>
	<path class="st1" d="M34.7,35h1.9c0.5,0,1-0.2,1.4-0.5l4.2-2.9c0.5-0.3,1-0.5,1.6-0.5h3.5"/>
	<path class="st1" d="M30.9,15.1l6.4-0.2c0.8,0,1.5,0.1,2.2,0.4l3.7,1.6c0.5,0.2,1,0.3,3.3,0.3h0.9"/>
</g>
</svg>
