<?xml version="1.0" encoding="utf-8"?>
<!-- Generator: Adobe Illustrator 28.0.0, SVG Export Plug-In . SVG Version: 6.00 Build 0)  -->
<svg version="1.1" id="Camada_1" xmlns="http://www.w3.org/2000/svg" xmlns:xlink="http://www.w3.org/1999/xlink" x="0px" y="0px"
	 viewBox="0 0 50 50" style="enable-background:new 0 0 50 50;" xml:space="preserve">
<style type="text/css">
	.st0{fill:#46B8B0;}
	.st1{fill:none;stroke:#444444;stroke-width:2.5;stroke-linecap:round;stroke-linejoin:round;stroke-miterlimit:10;}
	.st2{fill:#444444;}
	.st3{fill:none;stroke:#444444;stroke-width:0.5;stroke-linecap:round;stroke-linejoin:round;stroke-miterlimit:10;}
</style>
<g>
	<path class="st0" d="M47.8,17.5l0.5-11l-1.9-3.8L31,3.1c-3.2,0-27.8-3-27.8,0.2L1.5,24l1.2,23.5l13.6,0.6l31-11
		C48,36.7,48.8,19.5,47.8,17.5z"/>
	<path class="st1" d="M32.4,48h-27C3.5,48,2,46.4,2,44.5V5.5C2,3.6,3.5,2,5.4,2h39c1.9,0,3.4,1.6,3.4,3.5V38"/>
	<g>
		<path class="st2" d="M39,25.6c0.3,1.5,1.7,2.6,3.4,2.4c1.2-0.2,2.2-1.2,2.4-2.4c0.3-1.9-1.1-3.4-2.9-3.4c-0.5,0-0.9,0.1-1.4,0.3
			c-0.3,0.2-0.7,0.4-0.9,0.8c-0.3,0.3-0.5,0.8-0.6,1.2h-1.7V24c-0.2-2-0.8-3.9-1.8-5.5c0-0.1-0.1-0.2-0.1-0.2
			c-0.4-0.6-0.9-1.1-1.3-1.7l3.1-3.1c0.6,0.4,1.4,0.7,2.2,0.7c2.1,0,3.8-1.7,3.8-3.8c0-0.3-0.1-0.7-0.2-1c-0.5-1.9-2.5-3.1-4.7-2.5
			c-1.7,0.5-2.8,2.1-2.7,3.8c0,0.5,0.1,0.9,0.3,1.3c0.1,0.3,0.3,0.5,0.4,0.7l-3.2,3.2c-0.8-0.8-1.7-1.4-2.7-1.9
			c-1.6-0.8-3.3-1.3-5.1-1.4v-1.7c1.7-0.5,3-2.5,1.9-4.4C27,5.7,26.2,5.1,25.3,5c-1.8-0.2-3.3,1.1-3.3,2.9c0,1.5,1,2.7,2.4,2.9v1.7
			c-3,0.2-5.7,1.4-7.8,3.3l-3.2-3.2c0.4-0.6,0.7-1.4,0.7-2.2c0-1.3-0.6-2.4-1.6-3.1c-0.3-0.2-0.7-0.1-0.9,0.2
			c-0.2,0.3-0.1,0.6,0.2,0.8c0.7,0.5,1.1,1.3,1.1,2.2c0,1.5-1.1,2.6-2.6,2.6c-1.4,0-2.6-1.1-2.6-2.6c0-1.1,0.8-2.2,1.9-2.5
			C9.9,7.8,10,7.5,10,7.2C9.9,6.9,9.5,6.7,9.2,6.8c-2.6,0.7-4,4.6-0.9,6.8c0.6,0.4,1.3,0.7,2,0.7c0.9,0,1.5-0.3,2.2-0.7l3.2,3.1
			c-0.9,1-1.7,2.2-2.2,3.5c-0.6,1.3-0.9,2.8-0.9,4.2h-1.7c-0.3-1.2-1.3-2.2-2.5-2.3H7.9C6.3,22,5,23.3,5,25c0,0.2,0,0.4,0.1,0.6
			C5.3,26.9,6.5,28,8,28s2.7-1,2.9-2.4h1.7c0,0.3,0.1,0.7,0.1,1v0.3c0.3,2,1,3.8,2.2,5.3c0.3,0.4,0.6,0.8,0.9,1.1l-3.2,3.1
			c-0.7-0.3-1.4-0.6-2.2-0.6c-2-0.1-3.8,1.4-4,3.4c-0.3,2.7,2.4,5,5.2,4c1.5-0.6,2.4-2,2.4-3.5c0-0.9-0.3-1.6-0.7-2.2l3.2-3.2
			c2.1,1.9,4.8,3.1,7.8,3.3v1.7c-1.5,0.3-2.6,1.7-2.4,3.4c0.2,1.2,1.2,2.2,2.4,2.4c1.9,0.3,3.4-1.1,3.4-2.9c0-1.5-1-2.7-2.4-2.9
			v-1.7c3-0.2,5.7-1.4,7.8-3.3l3.2,3.2c-0.4,0.6-0.7,1.3-0.7,2.1c0,1.7,1,3.2,2.6,3.7c2.5,0.8,5-1.2,5-3.6c0-0.4-0.1-0.8-0.2-1.2
			c-0.1-0.3-0.4-0.4-0.8-0.3c-0.3,0.1-0.5,0.4-0.3,0.8c0.1,0.4,0.3,0.8,0.1,1.4c-0.2,0.8-0.7,1.4-1.4,1.8c-1.8,0.8-3.7-0.5-3.7-2.3
			c0-1.5,1.1-2.6,2.6-2.6c0.3,0,0.7,0.1,0.9,0.2c0.3,0.1,0.6,0,0.8-0.3c0.1-0.3,0-0.6-0.3-0.8c-0.6-0.3-1-0.3-1.5-0.3
			c-0.9,0-1.6,0.3-2.2,0.7l-3.1-3.1c1.9-2.1,3.1-4.8,3.3-7.8L39,25.6L39,25.6z M42,23.1c1.1,0,1.9,0.9,1.9,2c0,1-0.9,2-2,2
			c-1.1,0-2-0.9-2-2.1C40,23.9,40.9,23,42,23.1z M36.9,10.4c0-1.4,1.1-2.6,2.6-2.6c1.2,0,2.2,0.8,2.5,1.9C42,9.9,42,10.1,42,10.3
			c0,1.2-0.8,2.3-1.9,2.5c-1.3,0.3-2.5-0.3-3-1.4C36.9,11.2,36.9,10.7,36.9,10.4z M7.9,27c-1,0-2-0.8-2-2c0-1.1,0.8-2,2-2
			c1,0,2,0.8,2,2C9.9,26.1,8.9,27,7.9,27z M11.4,41.8c-1.8,0.9-3.8-0.4-3.8-2.3c0-1.5,1.2-2.6,2.6-2.6c1.5,0,2.7,1.2,2.6,2.8
			C12.7,40.6,12.2,41.4,11.4,41.8z M23.1,7.9c0-1,0.8-1.9,1.9-1.8c1,0,1.7,0.9,1.7,1.9c0,1-0.8,1.8-1.8,1.8
			C23.8,9.7,23.1,8.8,23.1,7.9z M26.6,42.1c0,1-0.8,1.9-1.9,1.8c-1,0-1.7-0.9-1.7-1.9c0-1,0.8-1.8,1.8-1.8
			C25.8,40.3,26.6,41.1,26.6,42.1z M25,36.4c-3.8,0-7-1.8-9.1-4.6c-1.2-1.6-2-3.4-2.3-5.4v-0.3c0-0.4-0.1-0.8-0.1-1.2
			c0-2,0.5-3.9,1.4-5.5c1.9-3.6,5.7-6,10.1-6c1.5,0,2.9,0.3,4.2,0.8c2.2,0.9,4,2.4,5.3,4.3l0.1,0.2c1.1,1.7,1.7,3.6,1.8,5.6V25
			C36.4,31.3,31.4,36.4,25,36.4z M9.1,15.3"/>
		<g>
			<path class="st3" d="M27.9,24.6h-6c-2.3,0-4.2,1.9-4.2,4.2v3.1c0,0.2,0.2,0.4,0.4,0.4h13.4c0.2,0,0.4-0.2,0.4-0.4v-3.1
				C32.1,26.5,30.2,24.6,27.9,24.6z"/>
			<circle class="st3" cx="24.9" cy="21.1" r="3.5"/>
			<line class="st3" x1="21.5" y1="30.6" x2="21.5" y2="32.3"/>
			<line class="st3" x1="28.4" y1="30.6" x2="28.4" y2="32.3"/>
		</g>
	</g>
</g>
</svg>
