<?xml version="1.0" encoding="utf-8"?>
<!-- Generator: Adobe Illustrator 27.7.0, SVG Export Plug-In . SVG Version: 6.00 Build 0)  -->
<svg version="1.1" id="Layer_1" xmlns="http://www.w3.org/2000/svg" xmlns:xlink="http://www.w3.org/1999/xlink" x="0px" y="0px"
	 viewBox="0 0 50 50" style="enable-background:new 0 0 50 50;" xml:space="preserve">
<style type="text/css">
	.st0{fill:#EC6A6D;}
	.st1{fill:#E46160;}
	.st2{fill:none;stroke:#444444;stroke-width:2.5;stroke-linecap:round;stroke-linejoin:round;stroke-miterlimit:10;}
	.st3{fill:none;stroke:#444444;stroke-linecap:round;stroke-linejoin:round;stroke-miterlimit:10;}
	.st4{fill:none;stroke:#444444;stroke-width:0.5;stroke-linecap:round;stroke-linejoin:round;stroke-miterlimit:10;}
</style>
<g>
	<g>
		<path class="st0" d="M30.4,2c-1.1-0.1-8,0.6-9.1,0.6s0.6,3.9-0.5,4.1c-2.1,0.3-2.8,1.1-4.7,1.9c-0.3,0.1-3.5-3.1-3.9-3
			c-1.2,0.5-4.3,4.3-5.4,5C3.4,12.9,9.4,13.3,9,15c-0.3,1-1.3,2.9-1.7,4c-0.5,1.2-4.1-0.8-4.9,3.1L41.4,8c-1.8-1.5-3.4-1.2-6.1,0.5
			c-1.2,0.8-3-1.3-4.4-1.6C29.9,6.7,31.4,2.1,30.4,2z"/>
		<path class="st1" d="M40,8.1L4.1,20.5c-1,0.4-1.7,1.2-1.8,2.3c-0.1,1,0,5.3,0,6.4c0,1.8,3.8,0.2,4.6,1.3c4.3,5.8-3,5.3,0.3,9
			c2.9,3.2,3.7,4.7,5,4c0.4-0.2,3.4-2,3.8-1.9l2.9,0.7L42.2,34L44,31c1-0.4,4.2,0.2,4.3-0.8c0.1-1-0.1-8-0.1-9
			c-7,0.3-7.4-3.9-3.5-8.8C45.4,11.6,41,7.7,40,8.1z"/>
	</g>
	<g>
		<g>
			<g>
				<path class="st2" d="M41.2,42.1c1.2-1,2.3-2.1,3.2-3.5l-3.3-3.5c0.9-1.5,1.6-3,2.1-4.7l4.8,0.1c0.3-1.5,0.6-3.1,0.6-4.7
					s-0.1-3.2-0.3-4.7L43.5,21c-0.4-1.7-1-3.4-1.8-4.9l3.5-3.3c-1.7-2.7-3.8-5-6.4-6.8l-3.5,3.3c-1.5-0.9-3-1.6-4.7-2.1l0.1-4.8
					c-1.5-0.3-3.1-0.6-4.7-0.6c-1.6,0-3.2,0.1-4.7,0.3L21.1,7c-1.4,0.4-3.4,1-4.9,1.8L13,5.3c-2.2,1.6-5,3.8-6.8,6.4l3.3,3.5
					c-0.9,1.5-1.6,3-2.1,4.7l-4.8-0.1c-0.3,1.5-0.6,3.1-0.6,4.7c0,1.6,0.1,3.2,0.3,4.7l4.8,0.1c0.1,1.4,1,3.4,1.8,4.9l-3.5,3.3
					c1.7,2.7,4.5,5.3,6.4,6.8l3.5-3.3c1.2,0.7,3,1.6,4.7,2.1l-0.1,4.8c1.5,0.3,3.1,0.6,4.7,0.6"/>
			</g>
		</g>
		<g>
			<path class="st3" d="M19.3,35.2v-1.4c0-0.8-1.9-2-3.4-2s-3.4,1.2-3.4,2v1.4"/>
			<path class="st3" d="M15.9,26.6c-1.2,0-2.3,0.8-2.3,1.9v1.4c0,1,1.1,1.9,2.3,1.9c1.2,0,2.3-0.8,2.3-1.9v-1.4
				C18.2,27.4,17.1,26.6,15.9,26.6z"/>
			<path class="st3" d="M28.5,35.2v-1.4c0-0.8-1.9-2-3.4-2s-3.4,1.2-3.4,2v1.4"/>
			<path class="st3" d="M25.1,26.6c-1.2,0-2.3,0.8-2.3,1.9v1.4c0,1,1.1,1.9,2.3,1.9c1.2,0,2.3-0.8,2.3-1.9v-1.4
				C27.4,27.4,26.3,26.6,25.1,26.6z"/>
			<path class="st3" d="M28.5,19.1v-1.4c0-0.8-1.9-2-3.4-2s-3.4,1.2-3.4,2v1.4"/>
			<path class="st3" d="M25.1,10.5c-1.2,0-2.3,0.9-2.3,2.1v1c0,1.1,1.1,2.1,2.3,2.1c1.2,0,2.3-0.9,2.3-2.1v-1
				C27.4,11.4,26.3,10.5,25.1,10.5z"/>
			<path class="st3" d="M37.7,35.2v-1.4c0-0.8-1.9-2-3.4-2s-3.4,1.2-3.4,2v1.4"/>
			<path class="st3" d="M34.3,26.6c-1.2,0-2.3,0.8-2.3,1.9v1.4c0,1,1.1,1.9,2.3,1.9c1.2,0,2.3-0.8,2.3-1.9v-1.4
				C36.5,27.4,35.4,26.6,34.3,26.6z"/>
			<line class="st4" x1="25.1" y1="19.1" x2="25.1" y2="24.8"/>
			<polyline class="st4" points="34.3,24.8 34.3,22 15.9,22 15.9,24.8 			"/>
		</g>
	</g>
</g>
</svg>
