<?xml version="1.0" encoding="UTF-8"?>
<svg width="54px" height="56px" viewBox="0 0 54 56" version="1.1" xmlns="http://www.w3.org/2000/svg" xmlns:xlink="http://www.w3.org/1999/xlink">
    <title>Group 32</title>
    <g id="Page-1" stroke="none" stroke-width="1" fill="none" fill-rule="evenodd">
        <g id="Group-32" transform="translate(0.000000, 1.000000)">
            <polygon id="Fill-1" fill="#00C8E2" points="47.9298875 28.4372604 51.7712833 34.0088854 10.826575 48.8786979 9.28405417 42.6302187 4.50190833 36.1498646 3.61967917 32.4785104 45.1529083 17.7919896"></polygon>
            <polygon id="Fill-2" fill="#00DFFC" points="43.8064875 14.7688917 45.2297583 17.7148083 1.84815417 33.4017042 2.02482083 26.7833292 2.06457083 23.7998708 41.3938833 9.42582917"></polygon>
            <g id="Group-31" transform="translate(0.000000, 0.486827)">
                <path d="M11.5636062,50.8995437 L35.8961271,50.8995437 L35.8961271,45.9539812 C35.8917104,44.8233146 36.8026479,43.9013354 37.9344187,43.8936062 L42.6160854,43.8936062 C44.1508771,43.8759396 45.3798146,42.6193979 45.3643562,41.0857104 L45.3643562,35.8872937 C45.3643562,35.4754396 45.6989187,35.1419812 46.1118771,35.1419812 L50.9381896,35.1419812 L46.8516688,26.8242937 C45.9959396,25.1139396 45.4537937,23.2644604 45.2517312,21.3619812 C44.2016687,9.68873125 34.0676271,0.96029375 22.3667729,1.65150208 C11.4012937,2.33498125 2.50502292,11.6375854 2.11525208,22.8305229 C1.93196042,27.9593771 3.51975208,32.9943771 6.61252292,37.0897312 C9.70418958,41.0404396 11.4421479,45.8833146 11.5636062,50.8995437 M36.6425437,52.3934812 L10.8205021,52.3934812 C10.4075437,52.3934812 10.0729812,52.0589187 10.0729812,51.6459604 L10.0729812,51.2606062 C10.0310229,46.4464396 8.39575208,41.7802312 5.42223125,37.9940437 C2.12298125,33.6237521 0.428085417,28.2508771 0.62241875,22.7786271 C1.03979375,10.8293354 10.5488771,0.891835417 22.2729187,0.16198125 C34.7742937,-0.58001875 45.6072729,8.73914792 46.7379396,21.2129187 C46.9223354,22.9376271 47.4158979,24.6148562 48.1921271,26.1662104 L52.8086479,35.5560437 C52.9930437,35.9259396 52.8417729,36.3742312 52.4718771,36.5575229 C52.3680854,36.6094187 52.2532521,36.6348146 52.1373146,36.6348146 L46.8582938,36.6348146 L46.8582938,41.0890229 C46.8726479,43.4464187 44.9745854,45.3709812 42.6160854,45.3908562 L37.9344187,45.3908562 C37.6263562,45.3974812 37.3845438,45.6503354 37.3900646,45.9572937 L37.3900646,51.6459604 C37.3900646,52.0589187 37.0555021,52.3934812 36.6425437,52.3934812" id="Fill-3" fill="#444444"></path>
                <path d="M11.5636062,50.8995437 L35.8961271,50.8995437 L35.8961271,45.9539812 C35.8917104,44.8233146 36.8026479,43.9013354 37.9344187,43.8936062 L42.6160854,43.8936062 C44.1508771,43.8759396 45.3798146,42.6193979 45.3643562,41.0857104 L45.3643562,35.8872937 C45.3643562,35.4754396 45.6989187,35.1419812 46.1118771,35.1419812 L50.9381896,35.1419812 L46.8516688,26.8242937 C45.9959396,25.1139396 45.4537937,23.2644604 45.2517312,21.3619812 C44.2016687,9.68873125 34.0676271,0.96029375 22.3667729,1.65150208 C11.4012937,2.33498125 2.50502292,11.6375854 2.11525208,22.8305229 C1.93196042,27.9593771 3.51975208,32.9943771 6.61252292,37.0897312 C9.70418958,41.0404396 11.4421479,45.8833146 11.5636062,50.8995437 Z M36.6425437,52.3934812 L10.8205021,52.3934812 C10.4075437,52.3934812 10.0729812,52.0589187 10.0729812,51.6459604 L10.0729812,51.2606062 C10.0310229,46.4464396 8.39575208,41.7802312 5.42223125,37.9940437 C2.12298125,33.6237521 0.428085417,28.2508771 0.62241875,22.7786271 C1.03979375,10.8293354 10.5488771,0.891835417 22.2729187,0.16198125 C34.7742937,-0.58001875 45.6072729,8.73914792 46.7379396,21.2129187 C46.9223354,22.9376271 47.4158979,24.6148562 48.1921271,26.1662104 L52.8086479,35.5560437 C52.9930437,35.9259396 52.8417729,36.3742312 52.4718771,36.5575229 C52.3680854,36.6094187 52.2532521,36.6348146 52.1373146,36.6348146 L46.8582938,36.6348146 L46.8582938,41.0890229 C46.8726479,43.4464187 44.9745854,45.3709812 42.6160854,45.3908562 L37.9344187,45.3908562 C37.6263562,45.3974812 37.3845438,45.6503354 37.3900646,45.9572937 L37.3900646,51.6459604 C37.3900646,52.0589187 37.0555021,52.3934812 36.6425437,52.3934812 Z" id="Stroke-5" stroke="#444444" stroke-width="1.1" stroke-linecap="round" stroke-linejoin="round"></path>
                <polygon id="Fill-7" fill="#444444" points="23.9984 34.6637667 24.9601292 34.6505167 24.972275 35.61335 24.0105458 35.6254958"></polygon>
                <polygon id="Fill-9" fill="#444444" points="32.2591125 31.5195417 32.9304458 30.8305417 33.6183417 31.501875 32.9470083 32.1897708"></polygon>
                <polygon id="Fill-11" fill="#444444" points="35.8724979 22.4888938 36.8342271 22.4767479 36.8463729 23.4384771 35.8846438 23.4506229"></polygon>
                <path d="M15.0507854,14.7640333 C13.5866604,16.3904708 12.6249312,18.3039917 12.1622854,20.3102625 L13.2487854,19.8973042 C13.7997646,17.9837833 14.8575562,16.1862 16.4111187,14.7176583 C20.3033062,11.0418875 26.1310979,10.5759292 30.5146396,13.3606375 L31.6066604,12.9487833 C26.5020979,9.29178333 19.3570354,9.98630417 15.0507854,14.7640333 L15.0507854,14.7640333 Z M37.8308479,25.3540958 L34.5437437,25.39495 C34.3273271,25.3916375 34.1407229,25.5407 34.0844104,25.7527 C33.8834521,26.5068458 33.5930562,27.2378042 33.2143271,27.9234917 C33.1105354,28.1123042 33.1502854,28.3530125 33.3037646,28.502075 L35.6567438,30.7976375 L32.2956604,34.2382208 L29.9426812,31.9437625 C29.7892021,31.7924917 29.5540146,31.7648875 29.3674104,31.8742 C28.6916604,32.2639708 27.9673271,32.5720333 27.2131812,32.7928667 C27.0078062,32.8547 26.8642646,33.0435125 26.8664729,33.2610333 L26.9073271,36.5525542 L22.0964729,36.6121792 L22.0556188,33.3217625 C22.0523063,33.1097625 21.9098687,32.9176375 21.6978687,32.8624292 C20.9437229,32.6603667 20.2127646,32.3688667 19.5270771,31.9967625 C19.3316396,31.894075 19.0975562,31.9260958 18.9462854,32.0806792 L16.6518271,34.4325542 L15.2738271,33.0954083 L19.9908271,28.2591583 C22.8318479,30.6596167 27.0817854,30.2996583 29.4811396,27.4586375 C31.1186187,25.5130958 31.4852021,22.8851792 30.5996604,20.6370958 C30.3147854,19.9193875 29.9073479,19.2436375 29.3718271,18.6407625 L34.0822021,13.8100333 L35.4602021,15.1549083 L33.1657437,17.5012625 C33.0155771,17.6558458 32.9835562,17.8965542 33.0917646,18.0831583 C33.3490354,18.5193042 33.5665563,18.9742208 33.7421188,19.4479083 C33.8503271,19.7051792 33.9364521,19.9679708 34.0159521,20.2362833 C34.0766812,20.4416583 34.2665979,20.5852 34.4841187,20.5840958 L37.7701187,20.5421375 L37.8308479,25.3540958 Z M28.3670354,18.9808458 C28.9610771,19.5671583 29.3972229,20.25395 29.6832021,20.989325 C30.4837229,23.0508042 30.0564104,25.47445 28.3979521,27.14395 C26.1840979,29.3843042 22.5812021,29.429575 20.3066188,27.2455333 C20.1167021,27.0600333 19.8119521,27.06445 19.6264521,27.2543667 L15.9352229,31.0383458 C14.8354729,29.8723458 14.0194938,28.5329917 13.5038479,27.1141375 C12.6823479,24.8936583 12.5708271,22.4700125 13.1648688,20.2042625 C13.1869521,20.0982625 13.2145562,19.9977833 13.2487854,19.8973042 C13.7997646,17.9837833 14.8575562,16.1862 16.4111187,14.7176583 C20.3033063,11.0418875 26.1310979,10.5759292 30.5146396,13.3606375 C30.6029729,13.4191583 30.6979313,13.476575 30.7873688,13.5406167 C31.2246188,13.8332208 31.6397854,14.1633667 32.0439104,14.5222208 L28.3582021,18.3006792 C28.1727021,18.4905958 28.1771188,18.7953458 28.3670354,18.9808458 L28.3670354,18.9808458 Z M11.7040562,27.7932 C10.8958062,25.6202 10.6738687,23.27495 11.0327229,21.0114083 C11.0426604,20.9175542 11.0603271,20.817075 11.0757854,20.7177 C11.5362229,18.1582417 12.7441812,15.7080958 14.6919312,13.7117625 C19.5359104,8.74522083 27.3114521,8.30134583 32.6754938,12.54245 C32.7583062,12.6053875 32.8411187,12.6694292 32.9195146,12.7323667 C33.0785146,12.8659708 33.2330979,13.0039917 33.3865771,13.1431167 L32.7152437,13.8321167 C32.4358896,13.5847833 32.1576396,13.3529083 31.8617229,13.1331792 C31.7778062,13.0702417 31.6949938,13.0062 31.6066604,12.9487833 C26.5020979,9.29178333 19.3570354,9.98630417 15.0507854,14.7640333 C13.5866604,16.3904708 12.6249312,18.3039917 12.1622854,20.3102625 C12.1402021,20.4107417 12.1181187,20.5045958 12.0949313,20.605075 C11.6311813,22.8763458 11.8023271,25.2569292 12.6094729,27.4464917 C13.1814312,28.9956375 14.0669729,30.4509292 15.2627854,31.7207208 L14.5969729,32.4097208 C13.2874312,31.0416583 12.3234937,29.4638042 11.7040562,27.7932 L11.7040562,27.7932 Z M38.2393896,19.5737833 L34.8297229,19.6168458 C34.7745146,19.4468042 34.7082646,19.2712417 34.6420146,19.1089292 C34.4896396,18.6992833 34.3085562,18.3084083 34.1042854,17.9230542 L36.4859729,15.4817417 C36.6714729,15.291825 36.6670563,14.9859708 36.4771396,14.8004708 L34.4101396,12.7842625 C34.2555562,12.6340958 34.1009729,12.4839292 33.9408687,12.3448042 C33.8702021,12.2752417 33.7984312,12.2056792 33.7211396,12.1482625 C31.0865979,9.83945 27.8094312,8.653575 24.5157021,8.59505417 C20.9227438,8.52328333 17.3065979,9.78865833 14.4810354,12.3889708 C14.3187229,12.5369292 14.1619312,12.6915125 14.0062437,12.8460958 C11.6808687,15.1880333 10.3216396,18.1207 9.93076458,21.1538458 C9.91530625,21.2488042 9.90426458,21.3426583 9.89984792,21.4365125 C9.64588958,23.6934292 9.92634792,26.0022417 10.7511604,28.15095 C11.4556187,30.0147833 12.5575771,31.7560542 14.0614521,33.2499917 C14.1265979,33.3206583 14.1928479,33.3835958 14.2568896,33.4421167 L16.3249937,35.458325 C16.5149104,35.643825 16.8207646,35.6394083 17.0062646,35.4494917 L19.3868479,33.0137 C19.9367229,33.2886375 20.5075771,33.5160958 21.0983063,33.696075 L21.1402646,37.1057417 C21.1435771,37.3707417 21.3633063,37.5838458 21.6272021,37.5805714 L27.4019937,37.5087625 C27.6658896,37.50545 27.8789937,37.2857208 27.8756812,37.021825 L27.8337229,33.6121583 C28.4178271,33.417825 28.9842646,33.1760125 29.5264104,32.8867208 L31.9677229,35.2617833 C32.1576396,35.4472833 32.4634937,35.4439708 32.6489938,35.2551583 L36.6814104,31.1244708 C36.8669104,30.9356583 36.8635979,30.6298042 36.6736813,30.4443042 L34.2312646,28.0626167 C34.5062021,27.5138458 34.7336604,26.9407833 34.9136396,26.3467417 L38.3233063,26.3036792 C38.5927229,26.3003667 38.8025146,26.0872625 38.7992408,25.8167417 L38.7263271,20.048575 C38.7230146,19.7846792 38.5088062,19.5704708 38.2393896,19.5737833 L38.2393896,19.5737833 Z M15.0507854,14.7640333 C13.5866604,16.3904708 12.6249312,18.3039917 12.1622854,20.3102625 L13.2487854,19.8973042 C13.7997646,17.9837833 14.8575562,16.1862 16.4111187,14.7176583 C20.3033062,11.0418875 26.1310979,10.5759292 30.5146396,13.3606375 L31.6066604,12.9487833 C26.5020979,9.29178333 19.3570354,9.98630417 15.0507854,14.7640333 L15.0507854,14.7640333 Z" id="Fill-13" fill="#444444"></path>
                <path d="M24.3466542,24.0761333 C23.8166542,24.0827583 23.3794042,23.6576542 23.3727792,23.12655 C23.3661542,22.5954458 23.7912583,22.1593 24.3234667,22.152675 C24.8545708,22.14605 25.2896125,22.5711542 25.2962375,23.1022583 C25.3039667,23.6344667 24.8777583,24.0695083 24.3466542,24.0761333 M24.7927375,21.2527792 L24.7264875,15.8942583 C24.723175,15.6292583 24.50455,15.41505 24.2384458,15.4183246 C23.9734458,15.4227792 23.7614458,15.6403 23.7647583,15.9064042 L23.8310083,21.264925 C23.1607792,21.4493208 22.6407167,21.9815292 22.4739875,22.6572792 L19.0378208,22.6992375 C18.7728208,22.70255 18.5608208,22.921175 18.564095,23.186175 C18.5674458,23.4522792 18.7849667,23.6653833 19.0499667,23.6609667 L22.4850292,23.6190083 C22.7610708,24.6425708 23.81555,25.2487583 24.8391125,24.9727167 C25.8637792,24.696675 26.4699667,23.6421958 26.193925,22.6186333 C26.0106333,21.9417792 25.4740083,21.4184042 24.7927375,21.2527792" id="Fill-15" fill="#444444"></path>
                <path d="M24.2205583,13.9757687 C23.9555583,13.9790813 23.7380375,13.7670812 23.734725,13.5009771 L23.7225792,12.5392479 C23.7181625,12.2731437 23.9312667,12.0556229 24.1973708,12.0523104 C24.4623708,12.0489979 24.6809958,12.2609979 24.6843083,12.5271021 L24.6964542,13.4899354 C24.6997667,13.7549354 24.4866625,13.9724562 24.2205583,13.9757687" id="Fill-17" fill="#444444"></path>
                <path d="M29.0469813,15.2050375 C28.7808771,15.20835 28.5633563,14.9952458 28.5600438,14.7291417 C28.5600438,14.645225 28.5799188,14.5624125 28.6207729,14.4895375 L29.0922521,13.6492667 C29.2236479,13.4184958 29.5173563,13.3378917 29.7481271,13.4692875 C29.9766896,13.5995792 30.0583979,13.889975 29.9314187,14.1196417 L29.4610438,14.9588083 C29.3771271,15.108975 29.2181271,15.2028292 29.0469813,15.2050375" id="Fill-19" fill="#444444"></path>
                <path d="M19.4274812,15.3247292 C19.2552312,15.3280417 19.0951271,15.2375 19.0067937,15.0895417 L18.5165437,14.2625208 C18.3818354,14.0328542 18.4591271,13.7380417 18.6876896,13.6044375 C18.9151479,13.4708333 19.2077521,13.5459167 19.3435646,13.7711667 L19.8338146,14.5992917 C19.9696271,14.82675 19.8945437,15.1215625 19.6670854,15.257375 C19.5931062,15.3015417 19.5113979,15.323625 19.4274812,15.3247292" id="Fill-21" fill="#444444"></path>
                <path d="M15.9500187,18.8895312 C15.8661021,18.8906354 15.7832896,18.8696562 15.7082063,18.8276979 L14.8690396,18.3584271 C14.6393729,18.2259271 14.5576646,17.9333229 14.6890604,17.7025521 C14.8204563,17.4739896 15.1097479,17.3922812 15.3394146,17.5192604 L16.1796854,17.9896354 C16.4115604,18.1199271 16.4932687,18.4125313 16.3640813,18.6433021 C16.2801646,18.7934687 16.1222687,18.8873229 15.9500187,18.8895312" id="Fill-23" fill="#444444"></path>
                <path d="M14.7218542,23.7159542 L13.760125,23.7281 C13.495125,23.7314125 13.2753958,23.5183083 13.2731875,23.2522042 C13.269875,22.9872042 13.481875,22.7696833 13.7479792,22.7663708 L14.7097083,22.754225 C14.9747083,22.7509125 15.1933333,22.9629125 15.19775,23.2290167 C15.2010625,23.4940167 14.9868542,23.7126417 14.7218542,23.7159542" id="Fill-25" fill="#444444"></path>
                <path d="M15.2437938,29.0006063 C14.9787937,29.0039188 14.7612729,28.7919188 14.7579604,28.5247104 C14.7557521,28.3535646 14.8451896,28.1945646 14.9920438,28.1051271 L15.8190646,27.6148771 C16.0476271,27.4768562 16.3424396,27.5508354 16.4804604,27.7782937 C16.6173771,28.0057521 16.5445021,28.3005646 16.3170437,28.4374812 C16.3148354,28.4396896 16.3137313,28.4407937 16.3115229,28.4418979 L15.4845021,28.9321479 C15.4105229,28.9763146 15.3288146,28.9995021 15.2437938,29.0006063" id="Fill-27" fill="#444444"></path>
                <path d="M24.3952375,27.9234917 C23.1188208,27.9444708 21.887675,27.4498042 20.9778417,26.5554292 C20.7846125,26.3732417 20.7768833,26.0684917 20.9590708,25.8763667 C21.1412583,25.6831375 21.4460083,25.6743042 21.6392375,25.8564917 L21.6513833,25.8686375 C23.1552583,27.3669917 25.5899458,27.3614708 27.0883,25.8575958 C28.5888625,24.3537208 28.5833417,21.9190333 27.0794667,20.4184708 C27.0595917,20.4008042 27.0408208,20.3809292 27.0209458,20.3621583 C26.8266125,20.1799708 26.816675,19.876325 26.9988625,19.6819917 C27.18105,19.4876583 27.4858,19.4799292 27.6790292,19.6610125 C27.6834458,19.6654292 27.6867583,19.6676375 27.691175,19.6720542 C29.59255,21.5281583 29.6289875,24.57345 27.7739875,26.474825 C26.8840292,27.3857625 25.6683417,27.9069292 24.3952375,27.9234917" id="Fill-29" fill="#444444"></path>
            </g>
        </g>
    </g>
</svg>