<?xml version="1.0" encoding="UTF-8"?>
<svg xmlns="http://www.w3.org/2000/svg" version="1.1" viewBox="0 0 50 50">
  <defs>
    <style>
      .cls-1, .cls-2, .cls-3, .cls-4 {
        fill: none;
        stroke: #444;
      }

      .cls-1, .cls-2, .cls-4 {
        stroke-linecap: round;
        stroke-linejoin: round;
      }

      .cls-5 {
        fill: #dc5e82;
      }

      .cls-2 {
        stroke-width: 2.5px;
      }

      .cls-2, .cls-6, .cls-3 {
        fill-rule: evenodd;
      }

      .cls-6, .cls-7 {
        fill: #444;
      }

      .cls-3 {
        stroke-miterlimit: 10;
      }

      .cls-3, .cls-4 {
        stroke-width: .5px;
      }
    </style>
  </defs>
  <!-- Generator: Adobe Illustrator 28.6.0, SVG Export Plug-In . SVG Version: 1.2.0 Build 709)  -->
  <g>
    <g id="Camada_1">
      <path class="cls-5" d="M48,23.3c-.2-.9-.5-6.4-1.1-7.1l-1.3-4.1-3.3-3.5-5.9-4.6-8.6-2.8c-3.6,0-10.4-.6-19.9,13.1l-.9,9.6-5.4,9.9h4.6c.1.4.5,6.2.8,6.4l8.5,2.7v6.4s27-11.6,27-11.6c.7-.4,6.6-9,5.5-14.3Z"/>
      <path class="cls-2" d="M41.2,44.9c.1-4.8-.4-5.5,2.5-9.3,2.9-3.9,4.4-8.7,4.3-13.5-.4-10.6-8.8-19.4-19.2-20.1-11.1-.7-20.7,7.6-21.7,18.7-.2,1.8-.7,3.6-1.5,5.2l-3.9,7.9h4.6c.4,0,.7.3.7.7v4.9c0,1.5,1.2,2.6,2.6,2.7h4.4c1.1,0,1.9.9,1.9,2v4.7s2.3,0,2.3,0"/>
      <path class="cls-6" d="M38.7,19h.9s0,.9,0,.9h-.9s0-.9,0-.9ZM35.3,27.6l.6-.7.7.6-.6.7-.7-.6ZM27.5,30.6h.9s0,.9,0,.9h-.9s0-.9,0-.9Z"/>
      <path class="cls-3" d="M41,15.9h-3.3c-.2-.5-.4-1.1-.7-1.6.1-.4,2.9-2.3,2.3-3-5.4-7.1-15-8.1-21.7-2.1-7.3,6.6-5.1,17,1.9,22.1.6.7,2.6-2.2,3-2.4.5.3,1.1.5,1.7.7.2.4-.4,3.9.5,3.8,0,0,5.7,0,5.7,0,.9.1.3-3.4.4-3.8.6-.2,1.1-.4,1.7-.7.4.2,2.5,3,3.1,2.3,0,0,4-4,4-4,.7-.6-2.2-2.6-2.4-3,.3-.5.5-1.1.7-1.7.4-.2,3.9.4,3.8-.5-.2-.4.4-6.3-.5-6.1Z"/>
      <path class="cls-6" d="M27.2,24.2c-1.2,0-2.4-.5-3.2-1.3-.2-.2-.2-.5,0-.6.2-.2.5-.2.6,0h0c3.5,3.4,8.6-1.7,5.2-5.2,0,0,0,0,0,0-.2-.2-.2-.5,0-.6.2-.2.5-.2.6,0h0c2.9,2.9.9,7.8-3.1,7.8"/>
      <circle class="cls-7" cx="27.5" cy="20.4" r="1.3"/>
      <line class="cls-1" x1="27.4" y1="19.6" x2="27.1" y2="14.5"/>
      <line class="cls-1" x1="27.3" y1="20.4" x2="23.8" y2="20.2"/>
      <path class="cls-4" d="M18.9,11.2c-4.4,4.4-4.4,11.5,0,15.9l3.3-3.3c2.6,2.6,6.7,2.6,9.3,0,2.6-2.6,2.6-6.7,0-9.3l3.3-3.3c-4.4-4.4-11.5-4.4-15.9,0Z"/>
      <g>
        <line class="cls-1" x1="19.8" y1="23.4" x2="20.6" y2="22.8"/>
        <line class="cls-1" x1="17.9" y1="19" x2="18.9" y2="18.9"/>
        <line class="cls-1" x1="18.8" y1="14.2" x2="19.7" y2="14.7"/>
        <line class="cls-1" x1="22.2" y1="10.7" x2="22.7" y2="11.6"/>
        <line class="cls-1" x1="26.9" y1="9.7" x2="26.8" y2="10.7"/>
        <line class="cls-1" x1="31.4" y1="11.5" x2="30.8" y2="12.3"/>
      </g>
    </g>
  </g>
</svg>