<svg xmlns="http://www.w3.org/2000/svg" id="Camada_1" x="0" y="0" version="1.1" viewBox="0 0 300 300" xml:space="preserve"><style>.st1{fill:#9ea8a9}.st3{fill:#708080}.st5{fill:#c4cbcc}.st6{fill:#f14e70}.st8{fill:#309fd6}.st9{fill:#50afeb}.st11{fill:#c9854d}.st16{fill:#ef3030}.st18{fill:#e2b700}.st20{fill:#00bf5f}</style><path fill="#008dd3" d="M287.4 149.4c.1 20.9-4.4 40.7-12.3 58.7-22.3 50.1-72.3 85.2-130.7 85.3-15.5.1-30.5-2.4-44.5-6.8-26.3-8.4-49.3-24.2-66.6-45.1-17.9-21.6-29.7-48.5-32.4-78-.4-4.3-.6-8.6-.6-13-.2-48.8 23.9-92 61-118 4.8-3.5 9.9-6.5 15.1-9.3 7.4-4 15.1-7.2 23.2-9.9 7.6-2.5 15.5-4.3 23.6-5.4 6.5-.9 13.2-1.4 19.9-1.5 26.4-.1 51.1 6.9 72.5 19.3 3.9 2.2 7.5 4.5 11.1 7.1 17.1 12.2 31.4 27.9 41.8 46.3 1.2 2.1 2.3 4.2 3.4 6.3.9 1.9 1.8 3.7 2.7 5.5 2.8 6.1 5 12.4 6.9 18.8 2.1 7.2 3.7 14.6 4.5 22.2 1 5.8 1.4 11.7 1.4 17.5z"/><path d="M82.2 250.2l19.2 5.7 5.4-10.4-21.5-5.7z" class="st1"/><path d="M66.6 94s-2.5.1-3.2 1.9c-.1.3-.2.7-.2 1.2.2 3.7.4 128.4.4 128.4s1.2 9.7 5.6 14.6c0 0 7.2 9 13 10s170.1-2.6 170.1-2.6 12.5.8 20-10.1c4.6-5.8 5.3-12.3 5.3-12.3V92.3s.2-2.4-3.1-2.3c-3.4.1-207.9 4-207.9 4z" class="st1"/><path fill="#aeb9ba" d="M283.2 92.3l-7.5-2.1-3.2 3 3.2.2v4.5s22 .9 22 .6c0-.4.3-2.1.3-2.1l-14.8-4.1z"/><path d="M88.4 100.1L66.3 94l208.1-4 1.8.3 21.8 6z" class="st3"/><path fill="#828d8e" d="M101.3 255.9c.9.2 1.9.4 2.9.4l-3.4-.9-13.9-14c-1.4-5-1.2-9.5-1.2-9.5l-22.1-6.2s1.2 9.5 5.5 14.4c0 0 1.8 2.2 4.3 4.6 2.5 2.4 5.8 4.9 8.7 5.4l18.1 5.4c.3.1.5.2.8.2l.3.2z"/><path d="M88.7 100.1s-3.5.1-3.4 3.1c.2 3.7.4 128.4.4 128.4s-.3 8.9 3.4 15c0 0 5.4 9.1 15.2 9.7 6.5 0 170.1-2.6 170.1-2.6s12.5.8 20-10.1c4.6-5.8 5.3-12.3 5.3-12.3V98.5s.2-2.4-3.1-2.3c-3.4 0-207.9 3.9-207.9 3.9z" class="st5"/><path d="M92 250.4l-17.9-4.9s3.1 3.6 9 5.2 17.1 4.9 17.1 4.9-4.1-1.2-8.2-5.2z" class="st3"/><path d="M197.8 125.4s.8-3.9 4.7-3 7.7 2 7.7 2 3 .4 2.1 4.9c-.9 4.5-23.6 94.3-23.6 94.3s-.9 3.2-4.3 2.6c-3.4-.6-7.9-1.9-7.9-1.9s-3.5-.8-2.4-5.2 23.7-93.7 23.7-93.7z" class="st6"/><path d="M200.1 122.6l8.7-2.3.4 3.5s-5.8.7-5.8.6c0-.1-3.3-1.8-3.3-1.8z" class="st6"/><path fill="#ed4f79" d="M185.7 226.3l8.9-2.3-4.9-3.6-4.6 2.5z"/><path d="M151.6 138.7l7.7 7.9s2.1 1.9.6 3.9c-1.5 1.9-20.4 22.9-20.4 22.9s-2.4 2.1.5 5.3c2.9 3.2 19.5 20.6 19.5 20.6s1.7 1.7.2 3.7-8.3 9.4-8.3 9.4-2.8 2-4.9 0c-2-2-32.5-33.4-32.5-33.4s-2.7-2.6.2-5.7c2.9-3.1 31.9-34.5 31.9-34.5s2.8-2.8 5.5-.1z" class="st8"/><path d="M148 213.2l8.2 2.3-.4-5.6-8.5-1.4zm9.7-73.3l-8.1-2.4.2 5.7 8.6 1.3z" class="st8"/><path d="M159.5 141l7.7 7.9s2.1 1.9.6 3.9c-1.5 1.9-20.4 22.9-20.4 22.9s-2.4 2.1.5 5.3c2.9 3.2 19.5 20.6 19.5 20.6s1.7 1.7.2 3.7-8.3 9.4-8.3 9.4-2.8 2-4.9 0c-2-2-32.5-33.4-32.5-33.4s-2.7-2.6.2-5.7c2.9-3.1 31.9-34.5 31.9-34.5s2.8-2.8 5.5-.1z" class="st9"/><path d="M232.5 213.3l-7.7-7.9s-2.1-1.9-.6-3.9c1.5-1.9 20.4-22.9 20.4-22.9s2.4-2.1-.5-5.3-19.5-20.6-19.5-20.6-1.7-1.7-.2-3.7 8.3-9.4 8.3-9.4 2.8-2 4.9 0c2 2 32.5 33.4 32.5 33.4s2.7 2.6-.2 5.7c-2.9 3.1-31.9 34.5-31.9 34.5s-2.9 2.8-5.5.1z" class="st8"/><path d="M244 141l-7.9-2.2.3 5.6 8.6 1.4zm-10.1 73.3l8 2.2-.1-5.5-8.5-1.3z" class="st8"/><path d="M240.3 215.5l-7.7-7.9s-2.1-1.9-.6-3.9c1.5-1.9 20.4-22.9 20.4-22.9s2.4-2.1-.5-5.3c-2.9-3.2-19.5-20.6-19.5-20.6s-1.7-1.7-.2-3.7 8.3-9.4 8.3-9.4 2.8-2 4.9 0c2 2 32.5 33.4 32.5 33.4s2.7 2.6-.2 5.7c-2.9 3.1-31.9 34.5-31.9 34.5s-2.9 2.8-5.5.1z" class="st9"/><path fill="#ff8da4" d="M205.8 123.4s.8-3.9 4.7-3c3.9.9 7.7 2 7.7 2s3 .4 2.1 4.9-23.6 94.3-23.6 94.3-.9 3.2-4.3 2.6c-3.4-.6-7.9-1.9-7.9-1.9s-3.5-.8-2.4-5.2 23.7-93.7 23.7-93.7z"/><path d="M106.3 70.7l6.7-4.9c-.1 0 1.1 8.9-6.7 4.9z" class="st5"/><path d="M65 91l20 2.2 2.3-4.2-20.9-3z" class="st11"/><path d="M66.4 91s-3.5.5-3.9-2.3c-.6-3.6-3.2-19-3.2-19s-.8-9.6 2.4-15.2c0 0 5.2-10.1 10.7-12.3 5.5-2.2 170-32.5 170-32.5s12-3.4 21.7 5.4c5.7 4.6 7.7 10.7 7.7 10.7l1.4 8.2 2.7 16.2s1 1.8-2.3 2.4C270.2 53.4 66.4 91 66.4 91z" class="st11"/><path fill="#c17842" d="M73.2 41.1c5.5-2.3 170.5-32.6 170.5-32.6"/><path fill="#ad7149" d="M243.9 8.4s3.4-.7 6.8-.3c3.3.4 18.8 1.9 18.8 1.9l-3.4.1c-.2 0-2.6.4-2.8.4C255.2 12.1 99 41 93.5 43l-19.7-2.1s14.2-3.1 16.6-3.5c2.4-.5 14.9-2.9 14.9-2.9L243.9 8.4z"/><path fill="#ba784a" d="M79.7 70.5l-19.7-1c-.4 0-.8-.3-.8-.7.1-3.4-1.4-10.7 6.1-20.1 2.2-3.1 5.1-6.3 8.4-7.7l19.8 2s-5.8 3.4-8.6 8.1c-2.8 4.7-4.8 8.9-5.1 14-.3 4.3-.1 5.4-.1 5.4z"/><path fill="#ed9751" d="M87 93s-3.5.6-3.9-2.3c-.6-3.7-3.2-19.5-3.2-19.5s-.8-9.8 2.3-15.5c0 0 5.1-10.3 10.6-12.5 5.5-2.3 169.9-32.6 169.9-32.6s12-3.4 21.7 5.6c5.7 4.7 7.8 10.9 7.8 10.9l1.4 8.4L296 50s1.3 3.9-1.9 4.6C290.8 55.3 87 93 87 93z"/><path d="M112.9 65.8c.7 4.4-2.2 8.6-6.6 9.3-2.6.4-5.1-.4-6.9-2.1-1.2-1.2-2.1-2.7-2.4-4.5-.7-4.4 2.2-8.6 6.6-9.3s8.6 2.2 9.3 6.6z" class="st16"/><path d="M104.8 59.1l4.3.2.2 2.1m-.7 14.1l-4.6-.3.1-2.3 2.9 1.7z" class="st16"/><circle cx="108.4" cy="67.4" r="8.1" fill="#ef5555"/><path d="M139.6 61c.7 4.4-2.2 8.6-6.6 9.3-2.6.4-5.1-.4-6.9-2.1-1.2-1.2-2.1-2.7-2.4-4.5-.7-4.4 2.2-8.6 6.6-9.3 4.3-.7 8.5 2.2 9.3 6.6z" class="st18"/><path d="M131.4 54.3l4.4.2.1 2.1m-.7 14.1l-4.6-.3.1-2.3 2.9 1.7z" class="st18"/><circle cx="135" cy="62.6" r="8.1" fill="#fcd206"/><path d="M166.3 56.6c.7 4.4-2.2 8.6-6.6 9.3-2.6.4-5.1-.4-6.9-2.1-1.2-1.2-2.1-2.7-2.4-4.5-.7-4.4 2.2-8.6 6.6-9.3s8.5 2.2 9.3 6.6z" class="st20"/><path d="M158.1 49.9l4.4.2.1 2.1m-.7 14.1l-4.6-.3.1-2.3 2.9 1.6z" class="st20"/><circle cx="161.7" cy="58.2" r="8.1" fill="#07e570"/><path fill="#fff" d="M283.1 20.7c-2-3.4-9.3-1.5-9.5 2.4-.3 7.6-3.2 22.1-19.4 25.5-19.2 4.1-20 5.8-20 5.8s-5.8 6.4 23.7 1.9c6.5-.8 28.1-4.9 31.2-6.4 3.4-1.7-1.3-19.8-1.3-19.8s-1.3-3.5-4.7-9.4zm9.3 176.8s-3.8-13.7-10.6 0c0 0-1.9 15.8-2.7 18.1-.8 2.3-4.8 19.4-25.6 20.2s-29.5 2.9-29.5 2.9-4.9 5.7 0 8 53.2 0 53.2 0 15.1-5.3 15.1-17.4.1-31.8.1-31.8zm-54.8 11s9.2-2.6 16-5.8c2.5-1.2-8 9.3-8 9.3s-3.7 4.5-8-3.5zm-51.1 11.6s6.7-6.9 11.1-13c1.6-2.2-2.4 12.1-2.4 12.1s-1 5.8-8.7.9zm-34.7-10.4s8.1-3.2 14-6.7c2.1-1.3-6.5 9.4-6.5 9.4s-3 4.5-7.5-2.7z" opacity=".2"/><path fill="#fdffff" d="M156.8 62.4l11.5-6.9s1.6 5.7-2.4 8.3c-4 2.5-9.1-1.4-9.1-1.4z" opacity=".4"/><path fill="#fff" d="M141.7 61.1L130.2 67s5.1 3.9 9.1 1.3c0 0 3.8-2.4 2.4-7.2z" opacity=".4"/><path fill="#fff" d="M114.9 65.4l-11.5 5.9s5.1 3.9 9.1 1.3c0 0 3.8-2.4 2.4-7.2z" opacity=".3"/></svg>