<svg xmlns="http://www.w3.org/2000/svg" viewBox="0 0 50 50"><path fill="#e589ef" d="M43.2 7.7l-36-.3c-1.2 0-2 2.5-2 3.7 0 0 1.6 26.7-3.2 23.4-.7-.5-1.2 6.8-.4 7 2 3 8.5.4 13.6 1.2l28.5-10.1c-.2-1 .6-24.9-.5-24.9z"/><path fill="#444" fill-rule="evenodd" d="M16.2 18.3h3.6v12.2h-3.6zm17.7 4v8.2h-3.6V24c0-1.3-1-2.3-2.3-2.3-1.3 0-2.3 1-2.3 2.3v6.5h-3.6V18.3h3.6v1.8c1-1.7 3-2.6 4.9-2 2 .5 3.3 2.2 3.3 4.2zM18 16.4c1.2 0 2.2-1 2.2-2.2 0-1.2-1-2.2-2.2-2.2-1.2 0-2.2 1-2.2 2.2 0 1.3 1 2.2 2.2 2.2z" clip-rule="evenodd"/><path fill="none" stroke="#444" stroke-miterlimit="10" stroke-width=".5" d="M37.2 32.6H12.6c-2.2 0-4.1-1.8-4.1-4.1V14.4c0-2.2 1.8-4.1 4.1-4.1h24.7c2.2 0 4 1.8 4 4.1v14.1c0 2.3-1.8 4.1-4.1 4.1z"/><g fill="none" stroke="#444" stroke-miterlimit="10"><path d="M47.2 35.1h-16v.8c0 1.1-.9 2-2 2h-8.7c-1.1 0-2-.9-2-2v-.8H2.6"/><path stroke-linecap="round" stroke-linejoin="round" stroke-width="2.5" d="M40.4 42.3h-37c-1.2 0-2.1-1-2.1-2.1v-3c0-1.6 1.3-2.8 2.8-2.8h1.1V11.1c0-2.2 1.8-3.9 3.9-3.9h31.3c2.2 0 3.9 1.8 3.9 3.9v23.1h1.3c1.6 0 2.8 1.3 2.8 2.8"/></g></svg>