<svg xmlns="http://www.w3.org/2000/svg" version="1" viewBox="0 0 50 50"><path fill="#00C8E2" d="M4.818 45.536l42.145-15.339V8.454a5.417 5.417 0 00-5.417-5.417H8.454a5.417 5.417 0 00-5.417 5.417v33.091c0 1.587.694 3 1.781 3.991z"/><path fill="#00DFFC" d="M45.18 4.463a5.378 5.378 0 00-3.635-1.425H8.454a5.417 5.417 0 00-5.417 5.417v11.347L45.18 4.463z"/><path fill="#444" d="M25.001 48.137H8.454a6.599 6.599 0 01-6.591-6.591V8.455a6.599 6.599 0 016.591-6.592h33.091a6.599 6.599 0 016.591 6.592v21.739a1.175 1.175 0 11-2.35 0V8.455a4.247 4.247 0 00-4.242-4.242H8.454a4.247 4.247 0 00-4.242 4.242v33.091a4.247 4.247 0 004.242 4.242h16.547a1.175 1.175 0 110 2.349z"/><path fill="#444" d="M13.811 15.568c0-1.49.83-2.234 2.489-2.234 1.66 0 2.489.745 2.489 2.234 0 .71-.207 1.262-.622 1.657-.415.395-1.037.592-1.867.592-1.659 0-2.489-.75-2.489-2.249zm4.372 21.099h-3.78a.397.397 0 01-.397-.397V20.298c0-.219.178-.397.397-.397h3.78c.219 0 .397.178.397.397V36.27a.397.397 0 01-.397.397zm17.608 0h-3.78a.397.397 0 01-.397-.397v-9.395c0-1.21-.215-2.117-.645-2.722-.43-.605-1.115-.907-2.054-.907-1.28 0-2.204.427-2.774 1.282-.57.855-.855 2.272-.855 4.251v7.491a.397.397 0 01-.397.397h-3.78a.397.397 0 01-.397-.397V20.298c0-.219.178-.397.397-.397h2.798c.177 0 .333.117.382.288l.532 1.857h.255a4.832 4.832 0 012.107-1.837c.895-.415 1.912-.622 3.052-.622 1.949 0 3.429.527 4.439 1.582 1.01 1.055 1.515 2.577 1.515 4.566V36.27a.399.399 0 01-.398.397z"/></svg>