<svg xmlns="http://www.w3.org/2000/svg" version="1" viewBox="0 0 50 50"><path fill="#A6C1C2" d="M45.409 26.585v-2.803C45.409 12.51 36.272 3.373 25 3.373c-11.272 0-20.409 9.137-20.409 20.409v15.965c0 .556.15 1.082.408 1.546l40.41-14.708z"/><path fill="#B9D7D9" d="M41.148 11.334C37.416 6.5 31.58 3.373 25 3.373c-11.272 0-20.409 9.137-20.409 20.409v.858l36.557-13.306z"/><g fill="#444"><path d="M25 2.282c-11.855 0-21.5 9.645-21.5 21.5v15.965a4.245 4.245 0 0 0 2.672 3.961c3.735 1.497 11.147 4.01 18.828 4.01 3.148 0 6.562-.426 10.149-1.267a1.09 1.09 0 1 0-.498-2.124c-3.424.803-6.671 1.21-9.651 1.21-7.314 0-14.427-2.415-18.016-3.854a2.074 2.074 0 0 1-1.303-1.936V23.782c0-.772.051-1.532.139-2.281a9.921 9.921 0 0 1 8.565-4.898c4.282 0 7.997 2.846 9.395 4.07.697.611 1.751.61 2.448-.001 1.396-1.223 5.105-4.069 9.386-4.069a9.92 9.92 0 0 1 8.565 4.898c.089.749.139 1.509.139 2.281v9.827a1.091 1.091 0 0 0 2.182 0v-9.827c0-11.855-9.645-21.5-21.5-21.5zm10.615 13.012c-4.725 0-8.741 3.072-10.248 4.393a.544.544 0 0 1-.723 0c-1.51-1.321-5.531-4.394-10.257-4.394a11.244 11.244 0 0 0-8.001 3.334C8.647 10.47 16.133 4.463 25 4.463c8.868 0 16.354 6.008 18.615 14.166a11.24 11.24 0 0 0-8-3.335z"/><circle cx="34.899" cy="28.222" r="3.168"/><circle cx="15.102" cy="28.222" r="3.168"/><path d="M24.365 28.645l-2.743 2.048a1.06 1.06 0 0 0-.31 1.334l2.743 5.369a1.061 1.061 0 0 0 1.891 0l2.743-5.369a1.063 1.063 0 0 0-.31-1.334l-2.743-2.048a1.064 1.064 0 0 0-1.271 0z"/></g></svg>