<?xml version="1.0" encoding="utf-8"?>
<!-- Generator: Adobe Illustrator 24.0.1, SVG Export Plug-In . SVG Version: 6.00 Build 0)  -->
<svg version="1.1" id="Layer_1" xmlns="http://www.w3.org/2000/svg" xmlns:xlink="http://www.w3.org/1999/xlink" x="0px" y="0px"
	 viewBox="0 0 48 47" style="enable-background:new 0 0 48 47;" xml:space="preserve">
<style type="text/css">
	.st0{fill:#F799FF;}
	.st1{fill:#E589EF;}
	.st2{fill:#444444;}
	.st3{fill-rule:evenodd;clip-rule:evenodd;fill:#494949;}
</style>
<g>
	<path class="st0" d="M39.3,9.8l-2.1,0.8l-9.8,3.6l-1.3,0.5L25.3,15l-3.6,1.3l-0.2,0.1l-2.4,0.8L7,21.6l-2.1,0.8v-1
		c0-5.2,2.1-9.9,5.5-13.4c1-1.2,3.2-3.4,6.7-4.8c4-1.6,7.5-1.2,9-0.9c1.7,0.2,3.1,0.5,4,0.8c3.6,1.2,6.7,3.4,9,6.2
		C39.1,9.6,39.2,9.7,39.3,9.8z"/>
	<path class="st1" d="M43.3,20.2L41.1,21l-10,3.6l-2.7,1l-3.2,1.2L19,29.1l-8.3,3l-2.1,0.8c-2.2-3-3.5-6.5-3.7-10.5v-0.5L7,21.1
		l12.3-4.5l2.1-0.8l0.5-0.2l3.2-1.2l1-0.4l1.1-0.4l9.6-3.5l2.1-0.8c0.1,0.1,0.2,0.2,0.3,0.4C41.6,12.8,43,16.3,43.3,20.2z"/>
	<path class="st2" d="M42.6,31.6C41.4,34,39.5,36,39.5,36c-2,2.2-4.2,3.6-5.6,4.3c-0.2-0.1-0.5-0.4-0.8-0.8c-0.3-0.5-0.3-1-0.3-1.3
		c1.3-0.7,3-1.8,4.6-3.5c1.9-1.9,2.8-3.8,3.1-4.2c0.1-0.2,0.2-0.3,0.2-0.5c1.9-3.9,2.3-8.1,1.5-12c0-0.2-0.1-0.3-0.1-0.5
		c-1.2-5-4.5-9.5-9.4-12.1c-9-4.7-20.1-1.4-24.9,7.4c-0.1,0.1-0.1,0.2-0.2,0.3l-0.1,0.1c-2,3.8-2.5,8-1.7,12c0.3,1.4,1.3,6,5.2,9.8
		c1.4,1.4,2.7,2.2,3.6,2.8c0.8,1,1,2,0.6,2.4c-0.1,0-0.3,0.3-0.9,0.1c-1.2-0.6-2.9-1.7-4.7-3.4c-4.9-4.7-6-10.5-6.2-12
		c-0.6-4-0.1-8.1,1.7-12c0.1-0.2,0.1-0.3,0.2-0.5s0.1-0.3,0.2-0.4c2.6-5,7.1-8.5,12.1-10.1c5.2-1.7,11-1.3,16.2,1.4
		C34.4,3.6,35,4,35.6,4.4c4.8,3.2,7.9,8.1,8.9,13.4c0,0.2,0.1,0.3,0.1,0.5c0.7,4,0.2,8.1-1.5,12C43,30.8,42.8,31.2,42.6,31.6z"/>
	<path class="st3" d="M22.4,16.2c0.6,0,1.1,0.5,1.1,1.1s-0.5,1.1-1.1,1.1s-1.1-0.5-1.1-1.1S21.8,16.2,22.4,16.2 M31.5,43.8
		c8.2-6.3,3.1-17.5-2.7-25.6c-6.1-8.6-11.4-2-16.5-0.9c14.2,2.3-8.3,13.7,4,25.9c-1.2-3.4-1.3-7.4-0.3-10.9c1.4,1.5,3.6,2.3,6.4,2.7
		c-2.6-3.7-7.8-10.5,1.6-10.5c10.8,0,1.7,8.5-1.1,11.7c3.4-0.2,6.7-0.9,9.2-3.3C33.1,36.4,32.9,40.4,31.5,43.8z M20.7,44.2
		c1.5,0,2.8,0.8,2.8,1.9h-5.6C17.9,45,19.2,44.2,20.7,44.2 M27.4,44.2c1.5,0,2.8,0.8,2.8,1.9h-5.6C24.6,45,25.8,44.2,27.4,44.2"/>
</g>
</svg>
