<?xml version="1.0" encoding="UTF-8"?>
<svg id="Camada_1" xmlns="http://www.w3.org/2000/svg" version="1.1" viewBox="0 0 300 300">
  <!-- Generator: Adobe Illustrator 29.1.0, SVG Export Plug-In . SVG Version: 2.1.0 Build 142)  -->
  <defs>
    <style>
      .st0, .st1 {
        fill: #646464;
      }

      .st2 {
        fill: #ffda00;
      }

      .st3 {
        opacity: .6;
      }

      .st3, .st4, .st5 {
        fill: #fff;
      }

      .st3, .st6, .st5 {
        isolation: isolate;
      }

      .st7 {
        fill: none;
      }

      .st7, .st8 {
        stroke-width: 6px;
      }

      .st7, .st8, .st1 {
        stroke: #646464;
        stroke-miterlimit: 10;
      }

      .st9 {
        fill: #008dd3;
      }

      .st6 {
        opacity: .1;
      }

      .st10, .st8 {
        fill: #ccc;
      }

      .st5 {
        opacity: .4;
      }

      .st11 {
        fill: #f9b4c4;
      }
    </style>
  </defs>
  <path class="st9" d="M289,148.1c.1,20.7-4.3,40.4-12.1,58.2-22,49.7-71.6,84.3-129.5,84.5-15.4.1-30.2-2.4-44.1-6.8-26.1-8.3-48.9-24-65.9-44.7-17.7-21.4-29.4-48-32.1-77.3-.4-4.2-.6-8.5-.6-12.8-.2-48.2,23.7-91,60.4-116.8,4.8-3.4,9.8-6.5,15-9.2,7.3-3.9,15-7.2,23-9.8,7.5-2.4,15.4-4.2,23.4-5.4,6.5-.9,13-1.4,19.7-1.5,26.2,0,50.6,6.9,71.8,19.1,3.8,2.2,7.4,4.5,11,7.1,16.9,12,31.1,27.6,41.4,45.8,1.2,2.1,2.3,4.1,3.3,6.3.9,1.9,1.8,3.6,2.6,5.5,2.7,6.1,5,12.2,6.9,18.6,2.1,7.2,3.6,14.5,4.5,21.9h0c.9,5.8,1.3,11.5,1.3,17.3Z"/>
  <g>
    <g>
      <g>
        <polygon class="st0" points="71.4 240.3 100 246.5 112.1 233.2 83.5 227.1 71.4 240.3"/>
        <path class="st1" d="M242.7,89.4c4.5-5.4,3.7-13.4-1.7-17.8-5.4-4.5-13.4-3.7-17.8,1.7l-64.2,70.7,28.6,6.2,55.2-60.7Z"/>
        <path class="st0" d="M44.5,289.7c5.4,4.5,13.4,3.7,17.8-1.7l5.3-5.9-27.2-5.9c-1.4,4.7,0,10.1,4,13.4Z"/>
        <polygon class="st0" points="50.5 263.4 79.1 269.6 88.6 259 60.1 252.9 50.5 263.4"/>
        <polygon class="st0" points="94.9 214.5 123.4 220.7 133 210.2 104.4 204 94.9 214.5"/>
        <polygon class="st0" points="176.1 162.7 147.6 156.5 138 167.1 166.6 173.2 176.1 162.7"/>
        <polygon class="st0" points="126.6 179.6 115.8 191.5 144.4 197.6 155.2 185.8 126.6 179.6"/>
        <polygon class="st11" points="187.5 150.2 159 144 147.6 156.5 176.1 162.7 187.5 150.2"/>
        <polygon class="st11" points="166.6 173.2 138 167.1 126.6 179.6 155.2 185.8 166.6 173.2"/>
        <polygon class="st11" points="104.4 204 133 210.2 144.4 197.6 115.8 191.5 104.4 204"/>
        <polygon class="st11" points="60.1 252.9 88.6 259 100 246.5 71.4 240.3 60.1 252.9"/>
        <path class="st11" d="M42.8,271.8c-1.1,1.3-1.9,2.8-2.4,4.4l27.2,5.9,11.4-12.5-28.6-6.2-7.7,8.4Z"/>
        <polygon class="st11" points="83.5 227.1 112.1 233.2 123.4 220.7 94.9 214.5 83.5 227.1"/>
        <path class="st7" d="M241,71.6c-5.4-4.5-13.4-3.7-17.8,1.7l-64.2,70.7-11.4,12.5-9.6,10.5-11.4,12.5-10.8,11.9-11.4,12.5-9.6,10.5-11.4,12.5-12,13.3-11.4,12.5-9.6,10.5-7.7,8.4c-1.1,1.3-1.9,2.8-2.4,4.4-1.4,4.7,0,10.1,4,13.4,5.4,4.5,13.4,3.7,17.8-1.7l5.3-5.9,11.4-12.5,9.6-10.5,11.4-12.5,12-13.3,11.4-12.5,9.6-10.5,11.4-12.5,10.8-11.9,11.4-12.5,9.6-10.5,11.4-12.5,55.2-60.7c4.5-5.4,3.7-13.4-1.7-17.8Z"/>
      </g>
      <g class="st6">
        <path class="st4" d="M228.6,84.4c-57.1,64.4-114.2,129.5-174.1,191.4-2,2-5.5-.6-3.5-3.2,27.8-33,56.6-65.1,85.7-96.9,29.2-31.8,58.3-63.6,88.5-94.6,2.1-2.1,5.5.9,3.4,3.3h0Z"/>
      </g>
    </g>
    <g>
      <path class="st10" d="M212.9,213.9c-1.8-1.7-5-1.7-6.6.3-1.6,2-1.6,4.9.3,6.6,1.8,1.7,5,1.7,6.6-.3,1.6-2,1.6-4.9-.3-6.6Z"/>
      <path class="st10" d="M272.3,188.1c-1.8-1.7-5-1.7-6.6.3-1.6,2-1.6,4.9.3,6.6,1.8,1.7,5,1.7,6.6-.3,1.6-2,1.6-4.9-.3-6.6Z"/>
      <path class="st10" d="M269.3,141.7c1.6-2,1.6-4.9-.3-6.6-1.8-1.7-5-1.7-6.6.3-1.6,2-1.6,4.9.3,6.6,1.8,1.7,5,1.7,6.6-.3Z"/>
      <path class="st10" d="M117,159.7c-1.8-1.7-5-1.7-6.6.3-1.6,2-1.6,4.9.3,6.6,1.8,1.7,5,1.7,6.6-.3,1.6-2,1.6-4.9-.3-6.6Z"/>
      <path class="st10" d="M200.4,41.8c1.6-2,1.6-4.9-.3-6.6-1.8-1.7-5-1.7-6.6.3-1.6,2-1.6,4.9.3,6.6,1.8,1.7,5,1.7,6.6-.3Z"/>
      <path class="st10" d="M253.9,37c1.8,1.7,5,1.7,6.6-.3,1.6-2,1.6-4.9-.3-6.6-1.8-1.7-5-1.7-6.6.3-1.6,2-1.6,4.9.3,6.6Z"/>
      <path class="st10" d="M96.5,118.5c-1.8-1.7-5-1.7-6.6.3-1.6,2-1.6,4.9.3,6.6,1.8,1.7,5,1.7,6.6-.3,1.6-2,1.6-4.9-.3-6.6Z"/>
      <path class="st10" d="M165.6,33.8c-1.8-1.7-5-1.7-6.6.3-1.6,2-1.6,4.9.3,6.6,1.8,1.7,5,1.7,6.6-.3,1.6-2,1.6-4.9-.3-6.6Z"/>
    </g>
    <g>
      <path class="st11" d="M229.5,22c.2-1.9-1.2-3.7-3.1-3.9-1.9-.2-3.7,1.2-3.9,3.1l-2.8,25.2c-.1,1.2.3,2.3,1.1,3,.5.5,1.2.8,2,.9,1.9.2,3.7-1.2,3.9-3.1l2.8-25.2Z"/>
      <path class="st11" d="M161.8,64.7l-18.7-17.2c-1.4-1.3-3.7-1.2-5,.2s-1.2,3.7.2,5l18.7,17.2s0,0,0,0c1.4,1.3,3.6,1.2,5-.2,1.3-1.4,1.2-3.7-.2-5Z"/>
      <path class="st11" d="M266.6,167.5l-18.7-17.2c-1.4-1.3-3.7-1.2-5,.2-1.3,1.4-1.2,3.7.2,5l18.7,17.2s0,0,0,0c1.4,1.3,3.6,1.2,5-.2,1.3-1.4,1.2-3.7-.2-5Z"/>
      <path class="st11" d="M293.2,89.2c-.4-1.9-2.2-3.1-4.1-2.8l-24.9,5c-1.9.4-3.1,2.2-2.8,4.1.2.8.5,1.4,1.1,1.9.8.7,1.9,1.1,3.1.9l24.9-5c1.9-.4,3.1-2.2,2.8-4.1Z"/>
      <path class="st11" d="M138.9,132.8c-.4-1.9-2.2-3.1-4.1-2.8l-24.9,5c-1.9.4-3.1,2.2-2.8,4.1.2.8.5,1.4,1.1,1.9.8.7,1.9,1.1,3.1.9l24.9-5c1.9-.4,3.1-2.2,2.8-4.1Z"/>
      <path class="st11" d="M183.1,206.9c-.8-.7-1.3-1.8-1.1-3l2.8-25.2c.2-1.9,2-3.3,3.9-3.1,1.9.2,3.3,2,3.1,3.9l-2.8,25.2c-.2,1.9-2,3.3-3.9,3.1-.8,0-1.5-.4-2-.9Z"/>
    </g>
    <path class="st2" d="M119.7,84.9l-2.1-4.7c-.2-.4-.1-.9,0-1.2l2.7-4.4c.6-.9-.2-2.1-1.3-2l-5.1.5c-.4,0-.9-.1-1.1-.5l-3.3-3.9c-.7-.8-2.1-.5-2.3.6l-1.1,5c0,.4-.4.8-.8.9l-4.8,1.9c-1,.4-1.1,1.8-.2,2.4l4.4,2.6c.4.2.6.6.7,1l.4,5.1c0,1.1,1.4,1.6,2.2.9l3.8-3.4c.3-.3.8-.4,1.2-.3l5,1.2c1.1.3,2-.8,1.5-1.8Z"/>
    <path class="st2" d="M166.5,16.3c0,.4-.2.9-.5,1.1l-4.1,3.1c-.9.7-.6,2.1.5,2.3l5,1.3c.4.1.8.4.9.8l1.7,4.8c.4,1,1.8,1.2,2.4.3l2.8-4.3c.2-.4.6-.6,1.1-.6l5.1-.2c1.1,0,1.7-1.3,1-2.2l-3.2-4c-.3-.3-.4-.8-.2-1.2l1.4-4.9c.3-1.1-.7-2-1.8-1.6l-4.8,1.9c-.4.2-.9.1-1.2-.1l-4.2-2.9c-.9-.6-2.1,0-2.1,1.2l.3,5.1Z"/>
    <path class="st2" d="M248.6,212.6l-1.1-5c0-.4,0-.9.3-1.2l3.5-3.8c.7-.8.2-2.1-.8-2.2l-5.1-.5c-.4,0-.8-.3-1-.7l-2.5-4.5c-.5-1-1.9-.9-2.4.1l-2,4.7c-.2.4-.5.7-1,.8l-5,1c-1.1.2-1.4,1.6-.6,2.3l3.8,3.4c.3.3.5.7.4,1.2l-.6,5.1c-.1,1.1,1,1.9,2,1.3l4.4-2.6c.4-.2.8-.2,1.2,0l4.7,2.2c1,.5,2.1-.4,1.9-1.5Z"/>
    <g>
      <path class="st8" d="M179.4,139l26.3,49.9c5.1,5.6,14.4,3.7,16.6-3.6,9.8-30.8,30.8-97.2,38.7-125.9,1.3-4.4-2.8-8.4-7.2-6.8-29.4,10.8-96.1,37.8-123.7,48.9-5.7,2.3-7,9.7-2.4,13.8l51.5,23.6h0Z"/>
      <path class="st5" d="M170.6,124.9h0l12.7-7.7c.4-.3.7-.5,1.1-.8,11.2-8.7,30.8-21.1,39.2-27.4,10.6-8,18.7-16.2,21.7-20.3,1.4-1.8-.9-3.8-3-2.8-5.6,1.8-20.3,6.7-43.3,16.5h0c-9.6,3.3-51.5,21-55.7,23.9-12.2,4,7.7,13.8,27.4,18.6Z"/>
      <path class="st3" d="M165.1,115.4l2.1-1.3c.5-.3.9-.6,1.3-.9,6.4-4.8,17.3-11.4,22.3-15.2,6-4.5,10-7.6,11.9-9.9.8-1.1-.3-1.6-1.9-1.3-3,1.3-9.8,3.9-23.1,9.8h-.3c-5.5,2.1-26.8,9.6-29.4,11.1-3.5,1.3-3.1,3.3-.9,5.6,4.7,4.9,12.2,5.5,18,2.1Z"/>
    </g>
  </g>
</svg>