<svg xmlns="http://www.w3.org/2000/svg" id="Camada_1" version="1.1" viewBox="0 0 300 300"><defs><style>.st0{fill:#646464}.st11{fill:#f9b4c4}</style></defs><path fill="#008dd3" d="M289 148.1c.1 20.7-4.3 40.4-12.1 58.2-22 49.7-71.6 84.3-129.5 84.5-15.4.1-30.2-2.4-44.1-6.8-26.1-8.3-48.9-24-65.9-44.7C19.7 217.9 8 191.3 5.3 162c-.4-4.2-.6-8.5-.6-12.8-.2-48.2 23.7-91 60.4-116.8 4.8-3.4 9.8-6.5 15-9.2 7.3-3.9 15-7.2 23-9.8 7.5-2.4 15.4-4.2 23.4-5.4 6.5-.9 13-1.4 19.7-1.5 26.2 0 50.6 6.9 71.8 19.1 3.8 2.2 7.4 4.5 11 7.1 16.9 12 31.1 27.6 41.4 45.8 1.2 2.1 2.3 4.1 3.3 6.3.9 1.9 1.8 3.6 2.6 5.5 2.7 6.1 5 12.2 6.9 18.6 2.1 7.2 3.6 14.5 4.5 21.9.9 5.8 1.3 11.5 1.3 17.3z"/><path d="M71.4 240.3l28.6 6.2 12.1-13.3-28.6-6.1-12.1 13.2z" class="st0"/><path fill="#646464" stroke="#646464" stroke-miterlimit="10" d="M242.7 89.4c4.5-5.4 3.7-13.4-1.7-17.8-5.4-4.5-13.4-3.7-17.8 1.7L159 144l28.6 6.2 55.2-60.7z"/><path d="M44.5 289.7c5.4 4.5 13.4 3.7 17.8-1.7l5.3-5.9-27.2-5.9c-1.4 4.7 0 10.1 4 13.4zm6-26.3l28.6 6.2 9.5-10.6-28.5-6.1-9.6 10.5zm44.4-48.9l28.5 6.2 9.6-10.5-28.6-6.2-9.5 10.5zm81.2-51.8l-28.5-6.2-9.6 10.6 28.6 6.1 9.5-10.5zm-49.5 16.9l-10.8 11.9 28.6 6.1 10.8-11.8-28.6-6.2z" class="st0"/><path d="M187.5 150.2L159 144l-11.4 12.5 28.5 6.2 11.4-12.5zm-20.9 23l-28.6-6.1-11.4 12.5 28.6 6.2 11.4-12.6zM104.4 204l28.6 6.2 11.4-12.6-28.6-6.1-11.4 12.5zm-44.3 48.9l28.5 6.1 11.4-12.5-28.6-6.2-11.3 12.6zm-17.3 18.9c-1.1 1.3-1.9 2.8-2.4 4.4l27.2 5.9L79 269.6l-28.6-6.2-7.7 8.4zm40.7-44.7l28.6 6.1 11.3-12.5-28.5-6.2-11.4 12.6z" class="st11"/><path fill="none" stroke="#646464" stroke-miterlimit="10" stroke-width="6" d="M241 71.6c-5.4-4.5-13.4-3.7-17.8 1.7L159 144l-11.4 12.5L138 167l-11.4 12.5-10.8 11.9-11.4 12.5-9.6 10.5-11.4 12.5-12 13.3L60 252.7l-9.6 10.5-7.7 8.4c-1.1 1.3-1.9 2.8-2.4 4.4-1.4 4.7 0 10.1 4 13.4 5.4 4.5 13.4 3.7 17.8-1.7l5.3-5.9 11.4-12.5 9.6-10.5 11.4-12.5 12-13.3 11.4-12.5 9.6-10.5 11.4-12.5 10.8-11.9 11.4-12.5 9.6-10.5 11.4-12.5 55.2-60.7c4.5-5.4 3.7-13.4-1.7-17.8z"/><path fill="#fff" d="M228.6 84.4c-57.1 64.4-114.2 129.5-174.1 191.4-2 2-5.5-.6-3.5-3.2 27.8-33 56.6-65.1 85.7-96.9 29.2-31.8 58.3-63.6 88.5-94.6 2.1-2.1 5.5.9 3.4 3.3z" opacity=".1"/><path fill="#ccc" d="M212.9 213.9c-1.8-1.7-5-1.7-6.6.3-1.6 2-1.6 4.9.3 6.6 1.8 1.7 5 1.7 6.6-.3 1.6-2 1.6-4.9-.3-6.6zm59.4-25.8c-1.8-1.7-5-1.7-6.6.3-1.6 2-1.6 4.9.3 6.6 1.8 1.7 5 1.7 6.6-.3 1.6-2 1.6-4.9-.3-6.6zm-3-46.4c1.6-2 1.6-4.9-.3-6.6-1.8-1.7-5-1.7-6.6.3-1.6 2-1.6 4.9.3 6.6 1.8 1.7 5 1.7 6.6-.3zm-152.3 18c-1.8-1.7-5-1.7-6.6.3-1.6 2-1.6 4.9.3 6.6 1.8 1.7 5 1.7 6.6-.3 1.6-2 1.6-4.9-.3-6.6zm83.4-117.9c1.6-2 1.6-4.9-.3-6.6-1.8-1.7-5-1.7-6.6.3-1.6 2-1.6 4.9.3 6.6 1.8 1.7 5 1.7 6.6-.3zm53.5-4.8c1.8 1.7 5 1.7 6.6-.3 1.6-2 1.6-4.9-.3-6.6-1.8-1.7-5-1.7-6.6.3-1.6 2-1.6 4.9.3 6.6zM96.5 118.5c-1.8-1.7-5-1.7-6.6.3-1.6 2-1.6 4.9.3 6.6 1.8 1.7 5 1.7 6.6-.3 1.6-2 1.6-4.9-.3-6.6zm69.1-84.7c-1.8-1.7-5-1.7-6.6.3-1.6 2-1.6 4.9.3 6.6 1.8 1.7 5 1.7 6.6-.3 1.6-2 1.6-4.9-.3-6.6z"/><path d="M229.5 22c.2-1.9-1.2-3.7-3.1-3.9-1.9-.2-3.7 1.2-3.9 3.1l-2.8 25.2c-.1 1.2.3 2.3 1.1 3 .5.5 1.2.8 2 .9 1.9.2 3.7-1.2 3.9-3.1l2.8-25.2zm-67.7 42.7l-18.7-17.2c-1.4-1.3-3.7-1.2-5 .2s-1.2 3.7.2 5L157 69.9c1.4 1.3 3.6 1.2 5-.2 1.3-1.4 1.2-3.7-.2-5zm104.8 102.8l-18.7-17.2c-1.4-1.3-3.7-1.2-5 .2-1.3 1.4-1.2 3.7.2 5l18.7 17.2c1.4 1.3 3.6 1.2 5-.2 1.3-1.4 1.2-3.7-.2-5zm26.6-78.3c-.4-1.9-2.2-3.1-4.1-2.8l-24.9 5c-1.9.4-3.1 2.2-2.8 4.1.2.8.5 1.4 1.1 1.9.8.7 1.9 1.1 3.1.9l24.9-5c1.9-.4 3.1-2.2 2.8-4.1zm-154.3 43.6c-.4-1.9-2.2-3.1-4.1-2.8l-24.9 5c-1.9.4-3.1 2.2-2.8 4.1.2.8.5 1.4 1.1 1.9.8.7 1.9 1.1 3.1.9l24.9-5c1.9-.4 3.1-2.2 2.8-4.1zm44.2 74.1c-.8-.7-1.3-1.8-1.1-3l2.8-25.2c.2-1.9 2-3.3 3.9-3.1 1.9.2 3.3 2 3.1 3.9l-2.8 25.2c-.2 1.9-2 3.3-3.9 3.1-.8 0-1.5-.4-2-.9z" class="st11"/><path fill="#ffda00" d="M119.7 84.9l-2.1-4.7c-.2-.4-.1-.9 0-1.2l2.7-4.4c.6-.9-.2-2.1-1.3-2l-5.1.5c-.4 0-.9-.1-1.1-.5l-3.3-3.9c-.7-.8-2.1-.5-2.3.6l-1.1 5c0 .4-.4.8-.8.9l-4.8 1.9c-1 .4-1.1 1.8-.2 2.4l4.4 2.6c.4.2.6.6.7 1l.4 5.1c0 1.1 1.4 1.6 2.2.9l3.8-3.4c.3-.3.8-.4 1.2-.3l5 1.2c1.1.3 2-.8 1.5-1.8zm46.8-68.6c0 .4-.2.9-.5 1.1l-4.1 3.1c-.9.7-.6 2.1.5 2.3l5 1.3c.4.1.8.4.9.8l1.7 4.8c.4 1 1.8 1.2 2.4.3l2.8-4.3c.2-.4.6-.6 1.1-.6l5.1-.2c1.1 0 1.7-1.3 1-2.2l-3.2-4c-.3-.3-.4-.8-.2-1.2l1.4-4.9c.3-1.1-.7-2-1.8-1.6l-4.8 1.9c-.4.2-.9.1-1.2-.1l-4.2-2.9c-.9-.6-2.1 0-2.1 1.2l.3 5.1zm82.1 196.3l-1.1-5c0-.4 0-.9.3-1.2l3.5-3.8c.7-.8.2-2.1-.8-2.2l-5.1-.5c-.4 0-.8-.3-1-.7l-2.5-4.5c-.5-1-1.9-.9-2.4.1l-2 4.7c-.2.4-.5.7-1 .8l-5 1c-1.1.2-1.4 1.6-.6 2.3l3.8 3.4c.3.3.5.7.4 1.2l-.6 5.1c-.1 1.1 1 1.9 2 1.3l4.4-2.6c.4-.2.8-.2 1.2 0l4.7 2.2c1 .5 2.1-.4 1.9-1.5z"/><path fill="#ccc" stroke="#646464" stroke-miterlimit="10" stroke-width="6" d="M179.4 139l26.3 49.9c5.1 5.6 14.4 3.7 16.6-3.6 9.8-30.8 30.8-97.2 38.7-125.9 1.3-4.4-2.8-8.4-7.2-6.8-29.4 10.8-96.1 37.8-123.7 48.9-5.7 2.3-7 9.7-2.4 13.8l51.5 23.6h0z"/><path style="isolation:isolate" fill="#fff" d="M170.6 124.9l12.7-7.7c.4-.3.7-.5 1.1-.8 11.2-8.7 30.8-21.1 39.2-27.4 10.6-8 18.7-16.2 21.7-20.3 1.4-1.8-.9-3.8-3-2.8-5.6 1.8-20.3 6.7-43.3 16.5-9.6 3.3-51.5 21-55.7 23.9-12.2 4 7.7 13.8 27.4 18.6z" opacity=".4"/><path style="isolation:isolate" fill="#fff" d="M165.1 115.4l2.1-1.3c.5-.3.9-.6 1.3-.9 6.4-4.8 17.3-11.4 22.3-15.2 6-4.5 10-7.6 11.9-9.9.8-1.1-.3-1.6-1.9-1.3-3 1.3-9.8 3.9-23.1 9.8h-.3c-5.5 2.1-26.8 9.6-29.4 11.1-3.5 1.3-3.1 3.3-.9 5.6 4.7 4.9 12.2 5.5 18 2.1z" opacity=".6"/></svg>