<svg xmlns="http://www.w3.org/2000/svg" viewBox="0 0 300 300"><defs><style>.cls-1{fill:#646464}.cls-2{fill:#fff}.cls-5{fill:#464445}.cls-7{isolation:isolate;opacity:.1}.cls-8{fill:#f4f4f4}</style></defs><g id="Camada_1"><path fill="#008dd3" d="M279.8 153.5c0 20.3-4.2 39.5-11.8 56.9-21.5 48.6-70 82.5-126.7 82.7-15.1 0-29.5-2.3-43.1-6.7-25.5-8.1-47.8-23.5-64.5-43.7-17.3-20.9-28.8-47-31.4-75.6-.4-4.1-.6-8.3-.6-12.5-.2-47.2 23.2-89 59.1-114.3 4.7-3.3 9.6-6.4 14.7-9 7.1-3.8 14.7-7 22.5-9.6 7.3-2.3 15.1-4.1 22.9-5.3 6.4-.9 12.7-1.4 19.3-1.5 25.6 0 49.5 6.8 70.2 18.7 3.7 2.2 7.2 4.4 10.8 6.9 16.5 11.7 30.4 27 40.5 44.8 1.2 2.1 2.3 4 3.2 6.2.9 1.9 1.8 3.5 2.5 5.4 2.6 6 4.9 11.9 6.8 18.2 2.1 7 3.5 14.2 4.4 21.4.9 5.7 1.3 11.3 1.3 16.9z"/><path fill="#383838" d="M296 120.5c-3.7 4.8-19.6 1.5-30.1 8.4-8.6 5.7-18.9 11.2-29.6 15-.1 0-.3.1-.4.2-11.2 3.9-21.7 4.2-32.9 4.2-10.3 0-21.2 0-33.5 2.3-3 .6-6.1 1.3-9.3 2.3-9 2.6-17.1 7-24.1 11.8-16.1 11.2-25.9 24.9-26.4 25.6l10 24.3s8.2-14.6 26.6-24.8c6.5-3.6 14.2-6.6 23.3-8.3 4.3-.8 8.4-1.3 12.2-1.7 13.1-1.3 23.8-.6 34.7-1.2 9.8-.6 19.8-2.2 31.7-7.2 2.4-1 5-2.2 7.6-3.6 8.2-4.2 14.8-8.8 20.2-13.4 16.9-14.3 19.8-25.4 19.8-25.4v-8.5z"/><path d="M114.4 110.9c-16.1 9.1-25 21.8-26.6 24.2L77.9 111c1.5-1.6 12.9-13.9 27.1-22.7l9.4 22.5zm20.2 48.2c-16.1 11.2-25.9 24.9-26.4 25.6l-10.6-25.8c.7-1.1 10.4-14.8 26.5-24.7l10.4 25zm112.1 6.6c-12 5.1-21.9 6.7-31.7 7.2l-13.6-30.2c11.2 0 21.7-.3 32.9-4.2.1 0 .3 0 .4-.2 6.3 13.6 11 24.4 11.9 27.4z" class="cls-1"/><path d="M139.4 78c-6.6.5-12.6 1.3-17.6 2.7-5.7 1.6-11.4 4.4-16.8 7.7L94.2 62.6c4.1-1.9 8.9-3.5 14.5-4.6 7.8-1.5 14.9-1.7 21.7-1.1l9 21.2zm19.2 45c-4.5.6-9 1.4-13.2 2.4-7.9 1.8-15 5-21.2 8.8l-9.7-23.2c5.7-3.3 12.4-6.1 19.9-7.8 4.8-1.1 9.7-1.9 14.7-2.6l9.5 22.4zm45.1-50.9c-7.2 3.3-19 4.2-31.8 4.7s-6.8-15.2-6.8-15.2c9.6.6 19.6-.4 31-5.7.7 1.4 3.6 7.5 7.7 16.2zm-2.2 70.6c-10.3 0-21.2 0-33.5 2.3l-9.4-22.1c10.6-1.5 21.7-2.2 32.6-3.2l10.3 22.9z" class="cls-1"/><path d="M224.2 115.4c-10.1 2.3-21.4 3.4-33 4.4L181.4 98c11.4-.8 22.3-2 32.2-5.1 3.4 7.2 7 14.9 10.6 22.5zM275 81.6c-1.7 2.4-9 12.5-21 20.9-4.3-8.3-8.8-16.7-13.1-24.6 12.3-9.2 19.9-18.1 21.4-19.9l12.8 23.7zm-25.4-47.1c-2.1 8.3-10.3 16.4-20 23.2-5.6-9.9-9.5-16.8-10.2-17.9 6-5.9 10.2-11.9 13-16.8s8.7-4.2 11 .1l6.1 11.4zm46.4 86s-4.5 14-21.4 28.3c-1.3-5.7-5.1-14.8-10.2-25.4 10.5-6.9 19.4-13.9 23-18.7l8.6 15.9z" class="cls-1"/><path d="M249.7 34.4v.1M77.9 111.1l-.2.2m184.8-53.7s0 .1-.3.3M87.8 135.1c-.2.3-.3.4-.3.4m187.9-54.4s-.1.2-.4.5m12.6 22.8s-.1.2-.2.2m-179.2 80.1" class="cls-5"/><path d="M168 145.1c-3 .6-6.1 1.3-9.3 2.3-9 2.6-17.1 7-24.1 11.8l10.2 25.1c6.5-3.6 14.2-6.6 23.3-8.3 4.3-.8 8.4-1.3 12.2-1.7l-12.4-29.1z" class="cls-1"/><path d="M94.2 62.5l-.1-.3m86.3 112.1l-.1-.1M130.4 56.8l-.1-.4m85 117.2l-.3-.6M165.1 61.6l-.1-.1" class="cls-5"/><path d="M181.4 98c-10.6.7-21.5 1.1-32.4 2.5L139.4 78c10.2-.8 21.7-.8 32.5-1.2s9.5 21.2 9.5 21.2z" class="cls-1"/><path d="M246.7 165.7c.1.3.2.5.2.7M196.1 55.9c-.1-.2-.2-.3-.2-.3m78.7 93.3" class="cls-5"/><path d="M191.2 119.8c-10.9.9-22 1.7-32.6 3.2l-9.5-22.4c10.9-1.4 21.8-1.8 32.4-2.5l9.8 21.8zm-83 64.9l10 24.3s8.2-14.6 26.6-24.8l-10.2-25.1c-16.1 11.2-25.9 24.9-26.4 25.6zM105 88.4c-14.2 8.8-25.6 21.1-27.1 22.7l-8.7-21.2s4-17.7 25-27.4L105 88.3zm19.1 45.7c-16.2 9.9-25.8 23.7-26.5 24.7l-9.7-23.7c1.6-2.4 10.5-15.1 26.6-24.2l9.7 23.2zM215 173c-10.9.6-21.6 0-34.7 1.2l-12.4-29.1c12.3-2.4 23.2-2.3 33.5-2.3L215 173zm59.6-24.2c-5.4 4.6-12.1 9.2-20.2 13.4-2.6 1.3-5.1 2.5-7.6 3.6-.9-3-5.7-13.8-11.9-27.4 10.7-3.8 21-9.3 29.6-15 5 10.6 8.8 19.8 10.2 25.4zm-44.9-91.1c-8.4 5.8-18 10.8-25.9 14.4-4.1-8.7-7-14.8-7.7-16.2.2-.1.5-.2.7-.3 9.6-4.5 17-10.1 22.7-15.7.6 1.1 4.6 8 10.2 17.9zm-57.8 19.1c-10.7.4-22.2.4-32.5 1.2l-9-21.2c12.1 1 23.1 4 34.6 4.8l6.8 15.2zm90.4-18.9c-1.5 1.8-9.1 10.7-21.4 19.9-4-7.4-7.9-14.3-11.2-20.2 9.7-6.7 17.8-14.9 20-23.2l12.6 23.4zm25.1 46.7c-3.7 4.8-12.6 11.9-23 18.7-3.1-6.6-6.7-13.7-10.4-20.9 12-8.4 19.4-18.5 21-20.9l12.4 23z" class="cls-8"/><path d="M149 100.5c-4.9.6-9.8 1.4-14.7 2.6-7.6 1.8-14.2 4.6-19.9 7.8L105 88.3c5.3-3.3 11.1-6.1 16.8-7.7 5-1.4 11.1-2.2 17.6-2.7l9.6 22.5zm64.6-7.6c-9.9 3.1-20.8 4.3-32.2 5.1l-9.5-21.2c12.8-.5 24.6-1.4 31.8-4.7 2.8 6 6.2 13.1 9.9 20.9zm21.2 45.4c-.1 0-.3.1-.4.2-11.2 3.9-21.7 4.2-32.9 4.2l-10.3-22.9c11.6-1 22.9-2.1 33-4.4 3.7 8 7.4 15.8 10.6 22.9zm-66.8 6.8c-3 .6-6.1 1.3-9.3 2.3-9 2.6-17.1 7-24.1 11.8l-10.4-25c6.2-3.8 13.3-7 21.2-8.8 4.3-1 8.7-1.7 13.2-2.4l9.4 22.1z" class="cls-8"/><path d="M254 102.5c-4.9 3.4-10.6 6.6-17.1 9.2-3.9 1.5-8.2 2.8-12.7 3.8-3.6-7.6-7.2-15.3-10.6-22.5 3.5-1.1 6.9-2.5 10.1-4.2 6.4-3.4 12.2-7.2 17.1-10.9 4.3 7.9 8.8 16.3 13.1 24.6z" class="cls-8"/><path d="M240.9 77.8c-5 3.7-10.7 7.5-17.1 10.9-3.2 1.7-6.6 3.1-10.1 4.2-3.6-7.7-7-14.9-9.9-20.9 7.9-3.6 17.5-8.6 25.9-14.4 3.3 5.9 7.1 12.8 11.2 20.2z" class="cls-1"/><path d="M219.5 39.8v-.2" class="cls-5"/><path d="M264.4 123.4c-8.6 5.7-18.9 11.2-29.6 15-3.2-7.1-6.9-14.9-10.6-22.9 4.5-1 8.7-2.2 12.7-3.8 6.5-2.6 12.3-5.8 17.1-9.2 3.7 7.2 7.3 14.3 10.4 20.9z" class="cls-1"/><path fill="#444" d="M131.8 278.6l-80.3-190c-2.3-4.9-.3-10.7 4.6-13 4.9-2.3 10.7-.3 13 4.6l80.2 190c2.3 4.9.3 10.7-4.6 13-4.9 2.3-10.7.3-13-4.6z"/><g class="cls-7"><path d="M61.6 88.2c26.8 60.5 54.1 121.2 77.3 183.2.9 2.7-2.9 4.6-4.3 1.8-21.6-44.9-40.4-90.9-59.2-137-6.2-15.5-12.4-30.7-18.1-46.4-1-2.8 3.2-4.5 4.4-1.7z" class="cls-2"/></g><g class="cls-7"><path d="M253.2 71.9c-5.1-4.1-9-9.4-12.6-14.7-3.6-5.2-7-10.6-9.7-16.3l14.8.2c-2 3.9-4.5 7.5-7.4 10.9-5.8 6.4-12.8 12-21 15.1-4.2 1.5-8.7 2.3-13.1 1.8-2-.2-3.5-2-3.3-4 .1-1.2.8-2.1 1.7-2.8 3-2.5 5.7-4.5 8.3-6.8C218.6 48.8 225 41 231 32.9c1.9-4.1 6.6-6 10.7-4.2 2 .8 3.2 2.4 4.2 4.2 1.6 2.7 3 5.5 4.4 8.4 3.3 7.2 6.6 14.5 8.4 22.4.4 1.6.6 3.2.8 5 .2 2.1-1.4 3.9-3.5 4.1-1 0-1.9-.2-2.7-.8z" class="cls-2"/></g></g></svg>