<svg xmlns="http://www.w3.org/2000/svg" id="Camada_1" data-name="Camada 1" version="1.1" viewBox="0 0 290.3 278.9"><defs><clipPath id="clippath"><circle cx="138.8" cy="138.6" r="134.3" fill="none" stroke-width="0"/></clipPath><style>.cls-5{stroke-width:0;isolation:isolate}.cls-14{fill:none;stroke:#fff;stroke-miterlimit:10}.cls-5{fill:#000;opacity:.2}</style></defs><g style="isolation:isolate"><g id="Camada_3" data-name="Camada 3"><circle cx="138.8" cy="138.6" r="134.3" fill="#008dd3" stroke-width="0"/><g clip-path="url(#clippath)"><path fill="none" stroke="#fff" stroke-miterlimit="10" stroke-width="7" d="M40.2 42.5v66.1c0 8.8 10.3 13.3 16.9 7.5l58.5-52.2c2.6-2.3 6-3.6 9.5-3.6h128.6m-134.1 1.9V3.3"/><path d="M43.5 105l76.8-65.2h125.9" class="cls-14"/><path d="M41.7 86.9l76.8-65.2H245" class="cls-14"/><path d="M39.7 68l76.8-65.1H243m-171.2 17V102M96.2-11.2v92.8m54.1-114v92.7m29.5-95.2v92.6M205.9-33v92.8m29.4-95.4v92.7" class="cls-14"/></g><circle cx="118.6" cy="184" r="72.9" fill="#ccc" stroke-width="0"/><circle cx="118.6" cy="184" r="72.9" fill="#fafafa" stroke-width="0"/><path fill="#2b2b2b" stroke-width="0" d="M186.4 168.4c-2.3-2.8-10-11.7-19.2-16.7-3.2-10.2-11.2-20.8-13-23 .7-1.1 2.4-4.1 3.3-6.4-.4-.3-.9-.5-1.3-.8-.8 2-2.4 4.9-3.3 6.4-12-3.2-25.6-1.9-27.7-1.7-8.8-5.8-20.2-8.7-23.6-9.4.9-1.7 2.2-3.4 3.1-4.4-.8 0-1.5.3-2.3.5-6.8 1.5-13.4 4.1-19.7 7.6s-11.9 8-16.7 12.9c-.5.6-1.1 1.1-1.6 1.7 1.4-.2 3.5-.4 5.4-.4-1.1 3.3-4.5 14.5-4.1 25-1.2 1.6-9.4 12.7-12.9 24.6-1.8 0-5.1-.1-7.2-.5v1.5c2.4.4 5.9.5 7.2.5 1 2.6 5.9 15 13 23-.5 10.5 3.1 21.6 4.3 25.1-1.8-.1-4-.4-5.4-.7.5.6 1.1 1.2 1.7 1.8 9.2 9.4 20.7 16 33.1 19.3.7.2 1.4.4 2.1.5-1.2-1.8-2-3.8-2.3-4.9 2.9-.6 12.9-3 23.3-8.2 1.5.3 9.4 1.6 27.7.1l3.3 5.9c.2-.1.4-.2.7-.4s.4-.2.6-.4l-3.3-5.9c10.8-14.9 13.7-22.3 14.2-23.8 9.8-6.2 17.1-13.6 19.1-15.7.7.8 2.1 2.5 3 4.5.2-.7.4-1.3.6-2 3.5-12.3 3.9-25.6.6-38.3-.2-.8-.4-1.6-.6-2.3-.5 1.3-1.4 3.4-2.2 4.9zM71.5 134.6c1.2-.9 8.3-5.8 14.1-9.1 5.8-3.3 13.7-6.8 15.1-7.4 1.8.4 14 3.1 23.5 9.2-2.3 5.9-3.5 20.5-3.7 23.4-1.8.6-8.7 3.1-16.4 7.5s-13.4 9-14.9 10.2c-2.6-1.3-15.7-7.9-21.9-8.9-.3-11.2 3.7-23.1 4.3-24.8zm50.2 106.1c-11.1 5.5-21.8 7.8-23.3 8-10.5-2.6-24.9-13.2-26.5-14.4-.6-1.7-5-13.9-4.6-25 2-.4 8.8-1.9 24.4-8 13.3 10 23.8 14.4 26.1 15.2 1.2 13.6 3.3 21.9 3.9 24.2zm10.5-32.7c-5.2 3-12.2 6.4-13.7 7.1-1.8-.7-12.4-4.9-25.9-15.1 0-3.2-.9-24.7-2.5-30.5 1.4-1.2 7-5.7 14.7-10s14.4-6.8 16.2-7.4c4.1 4.4 22.2 16.2 24.8 17.9 1.7 16.9-.1 28.1-.5 30-1.4.9-7.9 5.1-13.1 8zm52.2-7.8c-1 1.1-8.4 9.1-18.9 15.8-1.6-1.7-7.7-7.8-18.7-15.9.4-2.4 2.1-13.6.4-30.2 13.3-10.1 18.2-15.2 19.5-16.7 9.7 5.4 17.9 15.4 19 16.8.2 2.1 1.9 19.9-1.4 30.2z"/><path d="M127.8 111.7c13.9 6.1 26 16.6 34 30.9 19.8 35.1 7.4 79.5-27.7 99.3-14.2 8-30 10.8-45.1 8.8 20.3 9 44.5 8.6 65.3-3.2 35.1-19.8 47.5-64.3 27.7-99.3-11.8-20.8-32.2-33.7-54.3-36.5z" class="cls-5"/><path fill="#515759" stroke-width="0" d="M258.8 166.8l25.4 31.3c5.5 6.8 4.5 16.7-2.3 22.2l-20.1 16.3c-6.8 5.5-16.7 4.5-22.2-2.3L214.2 203l44.6-36.3z"/><g stroke-width="0"><path fill="#ffd200" d="M209.1 165.2c6.6.6 12.4 3.6 17.8 7.1 3.4 2.3 6.8 4.5 10.1 6.8.3.2.6.5.7.9l24.8-20.5s-9-20.9-4.7-38.4 1.7-22.1-4.3-23.5c-6-1.4-11.2.7-12.6 6-1.4 5.3-6.4 19.2-6.4 19.2s-1.5 4.6-7.5-4.3-27.8-44.2-27.8-44.2-6.1-8.9-12.4-5.3c-6.3 3.6-4.2 10.8-4.2 10.8l12.7 29.8c.2.6-.5 1-.9.6L167 78s-8.2-5.7-13.7-1.1-.7 13.2-.7 13.2l26.6 31.2c.4.5-.2 1.2-.8.8l-29.2-22.7s-8.2-4.1-11.8 1.9.5 10.8.5 10.8l24.7 25.5c.5.5-.1 1.2-.7.8l-15.4-10s-8.6-3.4-12.2 2.2c-3.6 5.5 0 11 0 11l37.2 30.2c1.6 1.3 3.1 2.7 4.5 4.2h.1c2.7-2 5.3-4.2 8.3-6 7.7-4.3 15.8-5.6 24.4-4.9h.3z"/><path fill="#efc100" d="M239.9 178.1c-.1-.4-.4-.7-.8-.9l-10.8-7.2c-5.8-3.8-12-7-19.1-7.6-9.2-.8-17.9.6-26.1 5.2-3.3 2-6 4.3-8.9 6.6l31.1 32.5 34.5-28.5h.1z"/></g><path fill="#3b3b44" stroke-width="0" d="M270.5 180l-46.6 38.7c-2.9 2.4-7.7 1.4-10.7-2.3l-7.8-9.7 57.2-47.4 7.9 9.9c2.9 3.6 3 8.5 0 10.8z"/><path d="M281.6 219.8c6.8-5.5 7.8-15.4 2.3-22.2l-14.2-17.4.7-.5c2.9-2.4 2.8-7.2 0-10.8l-7.9-9.9c-.8-1.8-8.8-21.6-4.7-38.3 4.3-17.5 1.7-22.1-4.3-23.5-6-1.4-11.2.7-12.6 6-1.4 5.3-6.4 19.2-6.4 19.2s-1.5 4.6-7.5-4.3-27.8-44.2-27.8-44.2-6.1-8.9-12.4-5.3-4.2 10.8-4.2 10.8l12.7 29.8c.2.6-.5 1.1-.9.6 0 0 41.4 43.4 52.2 62.6 0 0 2.9 11.9 13.3 16.4 0 0 13.4 11.7 21.7 31.1z" class="cls-5"/><path fill="#f2f2f2" stroke-width="0" style="mix-blend-mode:screen;isolation:isolate" d="M131.5 148.5c6.7 15-3.7 34.2-23.2 42.9S67.6 195 60.9 180c-6.7-15 3.7-34.2 23.2-42.9 19.5-8.7 40.7-3.6 47.4 11.4zm88.1-27.3c3.5 4.4-4.4 16.5-17.7 27s-26.9 15.4-30.4 10.9c-3.5-4.4 4.4-16.5 17.7-27s26.9-15.4 30.4-10.9z" opacity=".2"/></g></g></svg>