<?xml version="1.0" encoding="UTF-8"?>
<svg id="Camada_1" data-name="Camada 1" xmlns="http://www.w3.org/2000/svg" viewBox="0 0 300 300">
  <defs>
    <style>
      .cls-1 {
        isolation: isolate;
        opacity: .35;
      }

      .cls-1, .cls-2 {
        fill: #5c885c;
      }

      .cls-3 {
        fill: #ff4a75;
      }

      .cls-4 {
        fill: #78d9ff;
      }

      .cls-5 {
        opacity: .3;
      }

      .cls-6 {
        fill: #6b3b17;
      }

      .cls-7 {
        fill: #fff;
      }

      .cls-8 {
        fill: #ae7660;
      }

      .cls-9 {
        fill: #db6258;
      }

      .cls-10 {
        fill: #008dd3;
      }

      .cls-11 {
        fill: #ffbe00;
      }

      .cls-12 {
        fill: #66b9d3;
      }

      .cls-13 {
        fill: #f6543b;
      }

      .cls-14 {
        fill: #e28a17;
      }

      .cls-15 {
        fill: #b95b52;
      }

      .cls-16 {
        fill: #f98776;
      }

      .cls-17 {
        fill: #ff739b;
      }

      .cls-18 {
        fill: #f77979;
      }

      .cls-19 {
        fill: #f7941e;
      }

      .cls-20 {
        fill: #ce9300;
      }

      .cls-21 {
        fill: #138e44;
      }

      .cls-22 {
        fill: #ededed;
      }

      .cls-23 {
        fill: #93c3a7;
      }

      .cls-24 {
        fill: #b2392d;
      }

      .cls-25 {
        fill: #c56d0b;
      }
    </style>
  </defs>
  <circle class="cls-10" cx="140" cy="150" r="140"/>
  <g>
    <g>
      <path class="cls-24" d="M133.7,200.92l-24.78-113.92c-1.33-6.12-7.43-10.04-13.55-8.71l-73.61,16.01c-6.12,1.33-10.04,7.43-8.71,13.55l24.78,113.92c1.33,6.12,7.43,10.04,13.55,8.71l73.61-16.01c6.12-1.33,10.04-7.43,8.71-13.55Z"/>
      <g>
        <g>
          <rect class="cls-13" x="35.23" y="79.63" width="98.12" height="139.37" rx="12" ry="12" transform="translate(-29.81 21.33) rotate(-12.27)"/>
          <rect class="cls-22" x="43.59" y="91.49" width="81.41" height="115.64" rx="12" ry="12" transform="translate(-29.81 21.33) rotate(-12.27)"/>
        </g>
        <g>
          <g>
            <path class="cls-19" d="M90.21,175.92c.14-.19.24-.4.19-.63-1.07-5.04-7.31-34.35-8.28-38.92-.05-.25-.08-.45-.07-.63.02-.67.43-1,.99-2.05,1.67-2.8,4.42-7.51,6.29-10.64.91-1.55,1.73-2.94,2.32-3.93.4-.66.67-1.15.88-1.41.15-.19.28-.26.44-.22,3.58,2.94,11.93,10.01,15.08,13.05l.26,1.16c2.22,8.85,6.33,28.77,7.44,33.81-.01.7-.9.85-1.43,1.14-1.72.7-5.04,2.05-7.04,2.86-4,1.64-11.44,4.51-16.1,6.38-.02,0-.05.02-.07.02h-.89Z"/>
            <path class="cls-2" d="M86.4,156.11c-.08.47.27,1.64.67,3.61,1.07,4.81,2.36,11.13,3.5,15.93.09.28.15.39.18.34-.59-4.14-3.16-14.64-3.96-18.75-.07-.3-.27-1.14-.38-1.13h0s0,0,0,0Z"/>
            <path class="cls-15" d="M50.19,142.14c.16.36.8,1.15,1.31,1,4.76-.99,29.11-5.73,33.61-6.99,1.09-.3,1.46-.89.14-1.08-.38-.02-.86.12-1.26.19-7.47,1.55-19.84,4.13-27.68,5.76-2.76.58-4.89.46-6.02.5-.12.24-.23.39-.11.62h0Z"/>
            <path class="cls-13" d="M96.34,116.67c.64.05.01.66-.61,1.67-2.53,3.82-6.62,9.96-9.2,13.86-.67.91.18,2.03-.67,2.51-1.96.86-5.99,1.52-8.37,1.96-4.03.74-8.01,1.67-12,2.5-3.27.68-6.44,1.34-9.71,2.02-1.42.29-3,.64-4.43.9-.67.11-1.06.12-1.17-.07-.15-.24.42-.93,1.09-1.91,2.52-3.62,6.26-8.96,8.65-12.39,1.36-2.01,1.83-2.88,4.13-3.35,6.53-1.6,13-3.15,19.56-4.74,3.33-.81,6.7-1.62,10.06-2.44.82-.19,1.97-.51,2.64-.52h.03s0,0,0,0Z"/>
            <path class="cls-15" d="M111.91,131.42c-2.88,1.02-4.77-.75-6.8-2.65-2.68-2.39-5.27-4.69-7.95-7.08-1.05-.82-1.74-2.03-1.5-3.38.13-.86.36-2.09,1.17-1.31,2.14,1.94,9.47,8.64,12.72,11.6.45.41.88.81,1.32,1.21.75.76,1.64,1.22,1.06,1.6h-.03s0,.01,0,.01Z"/>
            <path class="cls-11" d="M112.07,131.41c-.54.3-1.62-.2-2.09-.73-2.67-2.45-10.97-10.06-13.53-12.42-.55-.4-1.06-1.65-.05-1.61.32.03.68.37,1.2.86,3.55,3.27,8.49,7.81,12.04,11.08.43.4.85.78,1.27,1.17.77.78,1.62,1.24,1.17,1.63h-.02s0,0,0,0Z"/>
            <path class="cls-11" d="M96.74,116.96c.25.89-.34,1.25-.93,2.33-.18.28-.35.56-.54.86-1.26,2-2.59,4.12-4.07,6.49-1.68,2.66-3.71,6.66-5.16,8.93-.29.46-.79.23-1.4-.09-.27-.11-.35-.13-.29-.47,1.88-3.3,9.28-14.65,11.24-17.82.25-.45.89-.76,1.14-.24v.02s0,0,0,0Z"/>
            <path class="cls-11" d="M104.33,133.86c.29.29.42,1.04.7,2.28.23,1.07.53,2.45.82,3.77.32,1.71.81,3.13.86,4.48-.08.59-.75.6-1.25.73-2.57.5-9.38,1.83-12.18,2.36-1.73.33-1.84-.26-2.15-1.79-.55-2.51-1.58-7.25-2.07-9.55-.22-1.08-.36-1.6.93-1.63,2.14-.15,7.77-.51,11.3-.75.87-.01,2.69-.33,3.02.07l.02.02h0Z"/>
            <path class="cls-11" d="M105.48,150.56c-1.66.17-4.74.72-6.35,1.24-1.15.4-1.49.93-1.46,1.7.86,4.37,2.54,12.91,3.78,17.03.79,1.27,3.83-.97,5.68-1.45,2.26-.69,4.1-1.11,3.81-2.99-.54-3.38-1.53-8.13-2.36-12.24-.42-1.77-.42-3.63-3-3.29h-.1s0,0,0,0Z"/>
          </g>
          <polygon class="cls-25" points="91.17 175.91 57.63 176.34 50.3 142.66 82.42 135.67 91.17 175.91"/>
        </g>
      </g>
      <g class="cls-5">
        <path class="cls-7" d="M32.16,98.27c3.35,8.07,5.59,16.44,7.56,24.91,1.9,8.48,3.58,16.98,4.37,25.66.26,3.46-4.54,4.57-5.84,1.38-3.17-8.12-5.47-16.47-7.56-24.91-2.02-8.45-3.76-16.94-4.37-25.66-.19-3.4,4.51-4.49,5.84-1.38h0Z"/>
      </g>
    </g>
    <g>
      <path class="cls-20" d="M280.8,105.83l-72.46-20.62c-6.03-1.71-12.36,1.81-14.08,7.84l-31.91,112.13c-1.71,6.03,1.81,12.36,7.84,14.08l72.46,20.62c6.03,1.71,12.36-1.81,14.08-7.84l31.91-112.13c1.71-6.03-1.81-12.36-7.84-14.08Z"/>
      <g>
        <g>
          <rect class="cls-11" x="187.51" y="92.86" width="98.12" height="139.37" rx="12" ry="12" transform="translate(53.52 -58.54) rotate(15.88)"/>
          <rect class="cls-22" x="195.86" y="104.73" width="81.41" height="115.64" rx="12" ry="12" transform="translate(53.52 -58.54) rotate(15.88)"/>
        </g>
        <g>
          <ellipse class="cls-1" cx="230.42" cy="193.83" rx="2.43" ry="23.07" transform="translate(-19.07 362.39) rotate(-74.12)"/>
          <g>
            <path class="cls-18" d="M244.42,145.01c-14.85-4.23-21.26-2.61-25.96-3.81-.16-.04-.31.07-.33.23l-3.71,43.04c-.24,2.72,1.49,5.22,4.11,5.97l22.27,6.34c2.55.73,5.27-.41,6.55-2.74l21.24-38.57c-1.73-1.78-9-6.14-24.17-10.46h0Z"/>
            <path class="cls-16" d="M218.46,141.2c-.16-.04-.31.07-.33.23l-3.71,43.04s0,.02,0,.03c6.29,5.37,16.56,6.52,22.09,1.99,7.09-5.97,11.56-20.14,12.72-31.91.22-2.73.19-5.52-.12-8.16-1.48-.47-3.03-.95-4.7-1.42-14.85-4.23-21.26-2.61-25.95-3.81h0Z"/>
            <path class="cls-9" d="M238.79,196.21l2.02.57c2.55.73,5.27-.41,6.54-2.74l21.24-38.57c-.47-.48-1.35-1.15-2.66-1.95l-3.98,1.63s-14.59,38.89-23.15,41.06h0Z"/>
            <ellipse class="cls-16" cx="243.37" cy="148.3" rx="4.02" ry="26.21" transform="translate(34.13 341.79) rotate(-74.12)"/>
            <ellipse class="cls-8" cx="243.59" cy="147.93" rx="1.92" ry="22.97" transform="translate(34.63 341.73) rotate(-74.12)"/>
          </g>
          <g>
            <g>
              <path class="cls-21" d="M242.96,152.91s-.07,0-.11,0c-.66-.07-1.11-.67-.99-1.33,3.05-17.6,8.23-26.63,8.45-27,.34-.59,1.09-.83,1.67-.52.58.3.77,1.03.43,1.62-.05.09-5.18,9.06-8.14,26.16-.11.63-.68,1.09-1.3,1.07h0Z"/>
              <g>
                <path class="cls-3" d="M252.77,125.39s2.64.6,3.82-1.69-2.35-4.33-3.79-4.98c-1.24-.55-3.85-1.23-4.7.67-.85,1.9,3.39,5.26,3.39,5.26.78.82,1.28.73,1.28.73Z"/>
                <path class="cls-17" d="M250.43,126.2c-2.62.84-6.79-2.53-7.42-3.11s-6.52-7.52-.73-6.17c5.79,1.35,9.07,8.19,9.07,8.19.31.59-.34.91-.92,1.09h0Z"/>
                <path class="cls-17" d="M253.18,127.69c2.27,2.94,6.71,3.28,7.4,3.26.68-.02,7.34-1.56,1.75-5.1-5.58-3.54-9.81.07-9.81.07-.39.29.16,1.13.66,1.77Z"/>
                <path class="cls-11" d="M251.83,123.62c.93.28,1.85,1.31,1.81,2.51s-1.05,2.12-1.97,1.84-1.64-1.83-1.59-3.03.83-1.6,1.76-1.32h0Z"/>
                <path class="cls-3" d="M249.38,128.86c-6.25-.18-8.88-3.71-8.96-4.49s3.14-1.06,6.25-.98,4.28,1.55,4.74,2.3.03,3.25-2.02,3.18h0Z"/>
                <path class="cls-3" d="M254.36,130.72c5.81,4.23,8.91,2.81,8.86,2.03-.11-1.7-2.78-3.22-5.66-5.34-2.88-2.12-4.16-1.54-4.68-1.15-.51.4-.44,3.08,1.48,4.46h0Z"/>
                <path class="cls-17" d="M251.29,126.17s-1.25-.07-2.1,2.07,2.5,3.62,3.08,3.8,2.49.37,3.08-1.39c.59-1.76-2.79-4.1-2.79-4.1-.81-.55-1.27-.38-1.27-.38h0Z"/>
              </g>
            </g>
            <path class="cls-21" d="M243.29,135.42c-1.39.09-3.18.59-5.29,2-5.16,3.46,5.56,2.94,7.2,1.24.97-1.01-.01-3.37-1.91-3.24h0Z"/>
            <path class="cls-21" d="M244.2,148.08c1.16-.95,2.87-1.89,5.33-2.36,6.02-1.15-2.85,6.34-5.09,6.24-1.33-.06-1.83-2.58-.24-3.88h0Z"/>
          </g>
          <g>
            <path class="cls-21" d="M226.64,160.01s.06.03.1.04c.62.25,1.29-.06,1.5-.7,5.61-16.96,5.3-27.37,5.29-27.81-.02-.69-.57-1.24-1.23-1.25-.65,0-1.16.55-1.14,1.23,0,.1.29,10.43-5.16,26.92-.2.6.09,1.28.64,1.56h0Z"/>
            <path class="cls-21" d="M231.51,139.67c-.86-1.23-2.26-2.59-4.5-3.71-5.49-2.74,1.04,6.87,3.22,7.38,1.3.3,2.46-1.99,1.27-3.67h0Z"/>
            <path class="cls-23" d="M229.16,150.52c1.16-.96,2.86-1.91,5.32-2.39,6.02-1.19-2.82,6.35-5.06,6.27-1.33-.05-1.84-2.57-.26-3.88h0Z"/>
            <g>
              <path class="cls-11" d="M230.29,132.85c-1.48-2.04-.2-7.1,3.01-6.83,3.33.91,2.37,6.99.27,7.68-.78.47-2.19.49-3.15-.68l-.12-.16h0Z"/>
              <path class="cls-17" d="M235.39,127.22c-1.08.02-2.14.71-2.9,1.39-.2-.36-1.24-1.94-1.62-2.17-1.1,1.11-1.63,2.83-1.63,4.38.14.37.14.65.36.96l.18.24c1.41,1.78,3.57,1.67,4.82.88.29-.11.25-.34.5-.55.58-1.51.98-3.54.28-5.14h0Z"/>
              <path class="cls-3" d="M232.05,131.71c-.12-.26-2.2-2.73-2.99-2.86-.78,1.34-.4,2.99.28,4.07l.12.18c.96,1.33,2.8,1.5,3.93,1.13,1.29-.19,2.5-1.41,3.14-2.97-1.35-.74-3.27-.12-4.48.45h0Z"/>
            </g>
          </g>
          <path class="cls-21" d="M258.82,148.93s-5.32,2.82-7.42,6.89c-2.11,4.07,1.17,2.58,1.17,2.58,0,0,9.85-7.42,10.27-8.91.43-1.53-1.79-1.96-4.01-.56h0Z"/>
          <g>
            <path class="cls-13" d="M265.63,154.37c-1.61.6-10.37-1.12-22.57-4.6-12.2-3.47-19.91-6.46-21.17-7.59-.13-.12-.3-.31-.5-.54-1.07-.08-2.03-.21-2.93-.44-.16-.04-.31.07-.33.23l-3.71,43.04c-.24,2.72,1.49,5.22,4.11,5.97l22.27,6.34c2.55.73,5.27-.41,6.55-2.74l21.24-38.57c-.4-.41-1.11-.96-2.12-1.62-.48.31-.79.5-.83.52h0Z"/>
            <path class="cls-13" d="M265.63,154.37c-.34.13-1.02.15-1.97.07l-1.72.71s-14.59,38.89-23.15,41.06l2.02.57c2.55.73,5.27-.41,6.54-2.74l21.24-38.57c-.4-.41-1.12-.96-2.13-1.61-.48.31-.78.5-.82.52h0Z"/>
            <path class="cls-16" d="M267.09,153.44c-.86.57-1.39.91-1.45.93-1.61.6-10.37-1.12-22.57-4.6-12.2-3.47-19.91-6.46-21.17-7.59-.34-.3-.89-1.01-1.57-1.97-1.24.12-2.01.41-2.15.91-.61,2.14,10.19,7.08,24.11,11.04,13.92,3.96,25.7,5.44,26.31,3.31.15-.52-.4-1.22-1.5-2.03h0Z"/>
            <path class="cls-13" d="M249.36,151.5c-1.97-.51-4.08-1.09-6.3-1.72-12.2-3.47-19.91-6.46-21.17-7.59-.13-.12-.3-.31-.5-.54-1.07-.08-2.03-.21-2.93-.44-.16-.04-.31.07-.33.23l-3.71,43.04s0,.02,0,.03c6.29,5.37,16.56,6.52,22.09,1.99,7.09-5.97,11.56-20.14,12.72-31.91.08-1.03.12-2.06.13-3.09h0Z"/>
          </g>
          <g>
            <path class="cls-17" d="M262.83,149.49s1.97,1.02,4.85-.85c2.87-1.88,1.22-4.4.39-5.24-.71-.73-2.6-1.82-4.87-.24-2.27,1.58-.98,5.44-.98,5.44.08.89.61.9.61.9h0Z"/>
            <path class="cls-3" d="M260.04,149.81c-3.08.3-4.29-3.54-4.42-4.19s-.14-8.07,4.15-5.78,1.97,9.14,1.97,9.14c-.17.6-1.03.77-1.7.83h0Z"/>
            <path class="cls-3" d="M261.42,151.66c-.2,3.1,3.64,4.22,4.29,4.33.65.1,8-.1,5.61-4.36-2.39-4.25-9.12-1.71-9.12-1.71-.59.19-.73,1.06-.78,1.74Z"/>
            <path class="cls-11" d="M263.35,147.69c.64.42.69,1.53-.29,2.62s-2.62,1.75-3.26,1.33-.08-1.97.9-3.06,2.01-1.31,2.66-.89h0Z"/>
            <path class="cls-17" d="M256.98,152.05c-5.63-1.3-5.3-5.01-4.77-5.73s3.73-.4,6.54.23c2.82.63,2.75,2.19,2.58,2.96s-2.51,2.98-4.35,2.54h0Z"/>
            <path class="cls-17" d="M260.14,154.65c2.06,4.92,6.04,4.19,6.6,3.46,1.23-1.57-.05-3.46-1.05-5.92-1.01-2.46-2.64-2.17-3.43-1.89-.78.28-2.81,2.74-2.12,4.35h0Z"/>
            <path class="cls-3" d="M260.86,149.93s-1.1-.29-3.56,1.52-.53,3.77-.13,4.03,2.01.79,3.94-.71.63-4.27.63-4.27c-.33-.65-.88-.58-.88-.58h0Z"/>
          </g>
        </g>
      </g>
      <g class="cls-5">
        <path class="cls-7" d="M259.18,162.37c-3.12,8.34-8.12,15.67-13.53,22.66-1.83,2.3-3.73,4.56-5.88,6.65-1.22,1.18-3.16,1.15-4.34-.06-.86-.89-1.08-2.17-.66-3.25,1.08-2.8,2.42-5.42,3.82-8.01,4.32-7.7,9.12-15.18,15.58-21.3,1.26-1.15,3.22-1.06,4.37.2.79.87,1,2.07.63,3.11h0Z"/>
      </g>
      <g class="cls-5">
        <path class="cls-7" d="M211.34,216.55c8.67,1.04,17.07,3.18,25.41,5.61,8.32,2.49,16.55,5.2,24.51,8.76,3.14,1.47,1.76,6.2-1.66,5.77-8.63-1.22-17.04-3.3-25.41-5.61-8.36-2.38-16.61-5.02-24.51-8.76-3.06-1.5-1.7-6.13,1.66-5.77h0Z"/>
      </g>
    </g>
    <g>
      <g>
        <path class="cls-12" d="M198.57,73.03l-76.35-7.05c-6.24-.58-11.82,4.06-12.39,10.3l-10.89,118c-.58,6.24,4.06,11.81,10.3,12.39l76.35,7.05c6.24.58,11.81-4.06,12.39-10.3l10.89-118c.58-6.24-4.06-11.81-10.3-12.39Z"/>
        <g>
          <rect class="cls-4" x="112.52" y="62.91" width="99.46" height="141.28" rx="12" ry="12" transform="translate(12.96 -14.34) rotate(5.27)"/>
          <rect class="cls-22" x="122.12" y="73.74" width="82.53" height="117.22" rx="12" ry="12" transform="translate(12.85 -14.45) rotate(5.27)"/>
          <g>
            <path class="cls-14" d="M135,118.56c4.71-3.64,17.86-.75,17.86-.75,0,0,12.62-5.73,25.09-.97l-.03-.07s.05.04.15.1c1.93-.85,10.96-2.14,14.4,7.21,4.11,11.17,10.85,18.16,6.22,18.05-3.75-.1-11.52-1.43-12.92-2.78l-.48,1.95s4.79,3.43,5.15,10.89-4.31,19.06-17.87,16.16c-13.55-2.91-22.7-8.25-26.95-20.37,0,0-2.86-.46-4.53-3.02,0,0-10.43,3.08-14.07-.28-3.64-3.36,3.26-22.46,7.97-26.1Z"/>
            <path d="M190.04,154.71c.2-.51.1-1.11-.28-1.5-.77-.77-2.42-1.88-5.59-1.76-2.55.1-4.47.62-5.72,1.08-.92.33-1.22,1.5-.59,2.24,1.5,1.77,4.27,4.58,6.88,4.73,2.96.19,4.67-3.23,5.31-4.79h0Z"/>
            <path d="M180.18,140.87c-.07,0-.13-.02-.2-.04-.46-.16-.7-.65-.54-1.11.8-2.32,1.84-3.74,3.11-4.24,1.06-.42,1.88-.01,1.97.04.42.23.58.75.35,1.18-.22.42-.73.57-1.15.37-.04-.02-.26-.09-.59.06-.42.19-1.25.85-2.04,3.16-.13.39-.51.62-.9.58Z"/>
            <path d="M170.93,140.93c-.22-.02-.43-.12-.59-.31-.17-.2-4.26-4.95-8.45-2.62-.42.23-.95.08-1.19-.34-.23-.42-.08-.95.34-1.19,4.36-2.43,8.86.92,10.63,3.02.31.37.26.92-.11,1.23-.19.16-.42.22-.64.2Z"/>
            <g>
              <g>
                <path class="cls-6" d="M153.42,160.64c-.14-.01-.28-.06-.41-.15-9.2-6.25-8.28-12.4-8.24-12.66.08-.47.55-.81,1-.72.47.08.8.53.72,1-.03.21-.7,5.36,7.5,10.93.4.27.5.81.23,1.21-.18.27-.5.41-.8.38Z"/>
                <g>
                  <path class="cls-6" d="M172.25,163.61c-1.73-.16-3.54-.56-5.4-1.31-3.41-1.38-5.3-3.14-5.63-5.22-.42-2.72,2.05-4.8,2.15-4.89.37-.3.92-.25,1.22.11.31.37.26.92-.11,1.23-.02.02-1.82,1.55-1.54,3.29.22,1.41,1.8,2.75,4.56,3.87,8.64,3.5,16.77-1.49,16.85-1.54.25-.16.56-.18.83-.05s.45.38.5.67c.09.64.28,1.07.51,1.16.36.15,1.14-.24,1.56-.58.37-.3.92-.24,1.22.13.3.37.24.92-.13,1.22-.18.15-1.83,1.43-3.29.84-.58-.23-1.01-.69-1.29-1.36-1.97,1.01-6.55,2.93-12.02,2.42Z"/>
                  <path class="cls-6" d="M183.74,131.31c-.29-.03-.57-.2-.7-.48-.28-.56-1.27-2.08-2.49-2.33-.69-.13-1.38.12-2.15.77-.37.32-.92.27-1.23-.09-.31-.37-.27-.92.09-1.23,1.19-1.02,2.41-1.42,3.64-1.16,2.32.48,3.65,3.16,3.7,3.27.21.43.03.95-.4,1.16-.15.07-.31.1-.46.08Z"/>
                  <path class="cls-6" d="M158.87,132.43c-.07,0-.15-.02-.23-.05-.45-.17-.68-.67-.51-1.12.04-.12,1.1-2.91,3.37-3.61,1.2-.37,2.45-.11,3.74.79.39.28.49.82.21,1.21-.28.39-.82.48-1.21.21-.82-.58-1.55-.76-2.21-.56-1.2.37-2.03,1.97-2.26,2.56-.14.37-.51.59-.9.56Z"/>
                  <path class="cls-6" d="M157.28,123.01c-.3-.03-.58-.21-.71-.5-1.48-3.21-.95-6.9,1.31-9.18,1.86-1.89,5.26-3.14,7.85-1.71.58.32,1.09.75,1.52,1.28.98-.24,2.08-.27,3.18.23,1.2.55,2.14,1.56,2.73,2.89.82-.18,1.74-.31,2.75-.39.48-.04.9.31.94.79.04.48-.32.9-.79.94-.91.08-1.7.19-2.38.33,0,.04.01.08.02.12.25,1.44.14,3.25-.67,4.04-.85.81-2.46,1.26-3.61.59-.43-.25-1.02-.79-1.1-1.92-.28.7-.7,1.31-1.29,1.7-.72.47-1.72.61-2.74.37-1.08-.25-2.01-.88-2.49-1.68-1.31-2.19.79-5.26,2.62-6.64.22-.16.6-.42,1.09-.68-.18-.17-.38-.31-.6-.43-1.79-.98-4.33-.05-5.77,1.4-1.76,1.77-2.15,4.68-.97,7.23.2.44.01.95-.43,1.15-.14.07-.3.09-.44.08ZM166.5,115.02c-.52.25-.9.52-1.05.63-1.52,1.14-2.8,3.3-2.17,4.35.24.4.77.74,1.39.88.55.12,1.08.08,1.39-.13.54-.36,1.06-1.61.99-3.32-.03-.77-.2-1.64-.54-2.41ZM171.97,118.15c-1.16.42-1.72.89-1.81,1.24-.21.8-.16,1.38.12,1.54.35.21,1.14.02,1.52-.34.14-.17.39-1.13.17-2.45ZM168.18,114.5c.35.85.56,1.82.6,2.86.01.29,0,.6,0,.92.47-.73,1.38-1.33,2.67-1.79-.34-.68-.88-1.38-1.74-1.78-.5-.22-1.02-.27-1.52-.22Z"/>
                  <path class="cls-6" d="M131.83,148.22c-1.79-.16-3.44-.86-4.58-2.51-2-2.9-2.01-6.79-2.01-6.95,0-.48.39-.87.87-.87.47,0,.87.39.87.87,0,.04.02,3.51,1.7,5.96,2.98,4.32,11.9-.48,11.99-.53.34-.18.76-.13,1.04.15.81.81,3.3,2.79,5.02,2.23,1.45-.47,2.08-2.69,2.36-4.46,1.5-9.56-1.88-14.94-1.91-14.99-.26-.4-.15-.94.26-1.2.4-.26.94-.15,1.2.25.16.24,3.78,5.95,2.17,16.21-.52,3.29-1.71,5.26-3.55,5.85-2.48.8-5.23-1.27-6.31-2.22-1.48.73-5.56,2.54-9.12,2.21Z"/>
                </g>
              </g>
              <path class="cls-6" d="M185.22,142.16c-.06,0-.12-.02-.18-.04-.46-.14-.72-.63-.58-1.09.04-.12,3.5-11.84-4.59-19.79-.34-.34-.35-.89-.01-1.23.34-.34.89-.34,1.23-.01,8.86,8.71,5.19,21.03,5.03,21.55-.12.4-.51.65-.91.61Z"/>
            </g>
            <path class="cls-6" d="M164.7,167.09c-.09,0-.19-.03-.28-.07l-3.96-1.8c-.44-.2-.63-.72-.43-1.15.2-.44.71-.63,1.15-.43l3.96,1.8c.44.2.63.72.43,1.15-.16.35-.51.54-.87.51Z"/>
          </g>
        </g>
      </g>
      <g class="cls-5">
        <path class="cls-7" d="M128.23,72.86c.43,8.77-.27,17.45-1.27,26.13-1.06,8.67-2.35,17.28-4.52,25.76-.92,3.35-5.82,2.78-5.96-.67-.25-8.76.4-17.44,1.27-26.13.94-8.69,2.17-17.31,4.52-25.76.96-3.27,5.76-2.71,5.96.67h0Z"/>
      </g>
      <g class="cls-5">
        <path class="cls-7" d="M144.56,191.11c8.72-.43,17.36.28,25.99,1.28,8.62,1.07,17.19,2.36,25.63,4.53,3.35.92,2.77,5.82-.67,5.96-8.71.24-17.35-.4-25.99-1.28-8.64-.94-17.22-2.17-25.63-4.53-3.27-.97-2.71-5.76.67-5.96h0Z"/>
      </g>
    </g>
  </g>
</svg>