<svg xmlns="http://www.w3.org/2000/svg" fill="none" viewBox="0 0 50 50"><path fill="#319327" d="M27.6 19l7.9 2.4-6.7 4.8.1 8.2-6.6-4.9-7.8 2.6 2.7-7.8-4.9-6.6 8.2.2 4.7-6.7 2.4 7.8z"/><path fill="#5ABA52" d="M44.7 12.9l-5.6-3.6-7.7-4.4-6-2.8C22.2 2.1 4 11 4 14.2L3.5 22 4 37.1l11.5 7.6 31-11c.7-.4-.8-18.7-1.8-20.7v-.1z"/><path stroke="#444" stroke-linecap="round" stroke-linejoin="round" stroke-width="2.5" d="M30 46.6l-2.2 1.3c-1.7 1-3.8 1-5.5 0l-15.6-9C5 37.9 4 36.1 4 34.2v-18c0-2 1-3.8 2.7-4.7l15.6-9c1.7-1 3.8-1 5.5 0l15.6 9c1.7 1 2.7 2.8 2.7 4.7v18c0 2-1 3.8-2.7 4.7l-2.5 1.4"/><path stroke="#444" stroke-linecap="round" stroke-linejoin="round" stroke-width=".5" d="M38.8 20.5c.1.2 0 .4-.1.5-.2.1-.4 0-.5-.1l-4.5-7.7h-.1c-.5.1-1 0-1.5-.2-.5-.3-.8-.7-.9-1.2-.1-.5 0-1 .2-1.4.3-.5.7-.8 1.2-.9.5-.1 1 0 1.5.2.5.3.8.7.9 1.2.1.5 0 1-.2 1.5-.1.2-.2.4-.4.5l4.5 7.7-.1-.1zm-28.5 3.2c.3.3.5.6.6 1 .1.5 0 1-.2 1.5-.3.5-.7.8-1.2.9-.5.1-1 0-1.4-.2-.4-.3-.7-.7-.9-1.2-.1-.5 0-1 .2-1.4.3-.4.7-.7 1.2-.9h1.1l4.5-7.7c.1-.2.3-.2.5-.1s.2.3.1.5l-4.5 7.7v-.1zm6.3-14.3c.5-.1 1 0 1.4.2.5.3.8.7.9 1.2v.1h8.9c.2 0 .4.2.4.4s-.2.4-.4.4h-8.9c0 .2-.1.4-.2.6-.3.5-.7.8-1.2.9-.5.1-1 0-1.5-.2-.9-.5-1.2-1.7-.7-2.6.3-.5.7-.8 1.2-.9l.1-.1zM42 23.5c.4.3.7.7.9 1.2.1.5 0 1-.2 1.4-.3.5-.7.8-1.2.9h-1.1l-4.5 7.7c-.1.2-.3.2-.5.1s-.2-.3-.1-.5l4.5-7.7c-.7-.6-.9-1.6-.4-2.4.3-.4.7-.7 1.2-.9.5-.1 1 0 1.4.2zm-9.4 13.7c.5-.1 1 0 1.5.2.5.3.8.7.9 1.2.1.5 0 1-.2 1.4-.3.5-.7.8-1.2.9-.5.1-1 0-1.4-.2-.5-.3-.8-.7-.9-1.2v-.1h-8.9c-.2 0-.4-.2-.4-.4s.2-.4.4-.4h8.9c0-.2.1-.4.2-.6.3-.5.7-.8 1.2-.9l-.1.1zm-16 0c.5-.1 1 0 1.4.2.4.3.7.7.9 1.2.1.5 0 1-.2 1.4-.3.4-.7.7-1.2.9-.5.1-1 0-1.5-.2-.5-.3-.8-.7-.9-1.2-.1-.5 0-1 .2-1.5.1-.2.2-.4.4-.5l-4.5-7.7c-.1-.2 0-.4.1-.5.2-.1.4 0 .5.1l4.5 7.7h.1l.2.1z" clip-rule="evenodd"/><path stroke="#444" stroke-linecap="round" stroke-linejoin="round" d="M25.1 21.6c1 0 1.9.4 2.5 1 .6.6 1 1.5 1 2.5s-.4 1.9-1 2.5c-.6.6-1.5 1-2.5 1s-1.9-.4-2.5-1c-.6-.6-1-1.5-1-2.5s.4-1.9 1-2.5c.6-.6 1.5-1 2.5-1z" clip-rule="evenodd"/><path stroke="#444" stroke-linecap="round" stroke-linejoin="round" d="M24.1 16c-.2 0-.4 0-.5.2-.1.1-.2.3-.2.5v1.5h-.1c-.3 0-.6.2-.9.3-.3.1-.6.3-.9.4l-1.1-.9c-.2-.1-.3-.2-.5-.2s-.4 0-.5.2l-1.3 1.3c-.1.1-.2.3-.2.5s0 .4.2.5l.9 1.1c-.2.3-.3.6-.4.9l-.3.9h-1.5c-.2.2-.4.2-.5.4-.1.1-.2.3-.2.5V26c0 .2 0 .4.2.5.1.1.3.2.5.2h1.5v.1c0 .3.2.6.3.9.1.3.3.6.4.9l-.9 1.1c-.1.2-.2.3-.2.5s0 .4.2.5l1.3 1.3c.1.1.3.2.5.2s.4 0 .5-.2l1.1-.9c.3.2.6.3.9.4l.9.3v1.5c.2.2.2.4.4.5.1.1.3.2.5.2h1.9c.2 0 .4 0 .5-.2.1-.1.2-.3.2-.5v-1.5h.1c.3 0 .6-.2.9-.3.3-.1.6-.3.9-.4l1.1.9c.2.1.3.2.5.2s.4 0 .5-.2l1.3-1.3c.1-.1.2-.3.2-.5s0-.4-.2-.5l-.9-1.1c.2-.3.3-.6.4-.9l.3-.9h1.5c.2-.2.4-.2.5-.4.1-.1.2-.3.2-.5V24c0-.2 0-.4-.2-.5-.1-.1-.3-.2-.5-.2h-1.5v-.1c0-.3-.2-.6-.3-.9-.1-.3-.3-.6-.4-.9l.9-1.1c.1-.2.2-.3.2-.5s0-.4-.2-.5L30.8 18c-.1-.1-.3-.2-.5-.2s-.4 0-.5.2l-1.1.9c-.3-.2-.6-.3-.9-.4l-.9-.3v-1.5c-.2-.2-.2-.4-.4-.5-.1-.1-.3-.2-.5-.2h-1.9z" clip-rule="evenodd"/><path fill="#9B12EF" d="M2 23.85a1 1 0 01.84-.987l44-7.174a1 1 0 011.16.987v9.474a1 1 0 01-.84.987l-44 7.174A1 1 0 012 33.324V23.85z"/><path fill="#fff" d="M15.157 30.122l-1.05-7.197 2.756-.402c.52-.075.964-.056 1.332.057.37.111.662.295.874.551.214.256.347.562.4.918a1.59 1.59 0 01-.06.777 1.432 1.432 0 01-.38.568c-.17.157-.37.28-.595.37l.01.071c.257-.023.514.02.769.128.257.106.479.277.666.513.188.236.308.537.362.902.054.372.013.72-.124 1.044-.138.322-.375.595-.713.819-.339.224-.783.376-1.334.456l-2.913.425zm1.145-1.28l1.402-.204c.473-.07.801-.209.983-.42a.897.897 0 00.214-.749 1.087 1.087 0 00-.751-.895 1.51 1.51 0 00-.718-.05l-1.437.21.307 2.108zm-.444-3.046l1.29-.188c.224-.033.421-.104.59-.212.168-.11.292-.25.373-.417a.96.96 0 00.078-.571.903.903 0 00-.396-.646c-.22-.152-.523-.2-.907-.144l-1.318.192.29 1.986zm8.151 3.143c-.54.078-1.024.034-1.45-.133a2.309 2.309 0 01-1.044-.831c-.272-.387-.449-.862-.531-1.427-.081-.555-.047-1.057.103-1.508.151-.452.401-.824.749-1.114.347-.292.779-.476 1.294-.55.333-.05.654-.041.965.023.313.063.6.188.86.378.261.189.483.446.664.771.181.323.306.721.375 1.194l.057.39-4.424.645-.125-.857 3.205-.467a1.383 1.383 0 00-.253-.627 1.161 1.161 0 00-.498-.39 1.228 1.228 0 00-.664-.073c-.26.038-.48.135-.658.29-.178.153-.308.34-.388.56a1.43 1.43 0 00-.068.688l.109.748c.046.314.142.575.29.783.147.206.332.354.556.443.223.087.473.11.75.07.185-.027.348-.077.49-.15a1.14 1.14 0 00.357-.293.991.991 0 00.193-.42l1.207-.039a1.87 1.87 0 01-.308.885 2.112 2.112 0 01-.723.658 3.1 3.1 0 01-1.09.353zm5.37-6.403l.143.983-3.103.453-.143-.984 3.102-.452zm-2.526-.953l1.272-.185.739 5.067c.025.17.07.298.135.382a.422.422 0 00.237.152.81.81 0 00.296.007c.08-.011.15-.028.215-.049a1.91 1.91 0 00.15-.054l.36.963a2.414 2.414 0 01-.73.236c-.318.055-.612.05-.883-.019a1.353 1.353 0 01-.68-.41c-.18-.203-.294-.474-.341-.812l-.77-5.278zm5.945 6.077c-.342.05-.659.034-.95-.048a1.523 1.523 0 01-.727-.453c-.192-.219-.314-.505-.365-.859-.045-.304-.026-.564.058-.78a1.32 1.32 0 01.39-.545c.178-.148.383-.27.618-.366.237-.1.485-.182.743-.249.311-.078.564-.145.757-.2.192-.056.329-.12.41-.189.083-.072.115-.168.097-.29l-.003-.021c-.038-.265-.147-.459-.325-.58-.178-.123-.415-.163-.71-.12-.311.046-.549.15-.711.312-.161.162-.26.34-.296.535l-1.212.004c.046-.341.16-.638.344-.89.183-.253.422-.458.718-.614a3.058 3.058 0 011.008-.32c.26-.037.523-.044.79-.021.267.023.517.09.75.2.234.106.432.27.596.49.166.22.275.509.328.867l.526 3.613-1.222.178-.109-.741-.042.006a1.572 1.572 0 01-.265.47c-.12.148-.279.278-.478.388a2.133 2.133 0 01-.718.223zm.194-.983c.256-.037.47-.12.643-.247a1.13 1.13 0 00.372-.471 1.05 1.05 0 00.074-.574l-.092-.636a.608.608 0 01-.19.12 2.88 2.88 0 01-.306.12 9.926 9.926 0 01-.34.107l-.292.086a2.24 2.24 0 00-.492.201.855.855 0 00-.319.298.607.607 0 00-.071.42c.034.234.145.398.334.493.188.094.415.122.68.083z"/></svg>