<svg xmlns="http://www.w3.org/2000/svg" id="Layer_1" x="0" y="0" version="1.1" viewBox="0 0 50 50" xml:space="preserve"><style>.st3{fill:none;stroke:#444;stroke-linecap:round;stroke-linejoin:round;stroke-miterlimit:10}.st4{fill:#444}.st5{fill:none;stroke:#444;stroke-width:.5;stroke-linecap:round;stroke-linejoin:round;stroke-miterlimit:10}</style><path fill="#d1bd00" d="M27.7 20.7l7.9 2.5-6.7 4.7.1 8.2-6.6-4.9-7.8 2.6 2.6-7.7-4.9-6.6 8.2.1 4.8-6.7z"/><path fill="#f9f941" d="M44.6 12.4L39 8.8l-7.7-4.4-6-2.8c-3.2 0-21.5 8.9-21.5 12.1l-.5 7.8.5 15.1 11.5 7.6 31-11c.8-.5-.8-18.8-1.7-20.8z"/><path fill="none" stroke="#444" stroke-linecap="round" stroke-linejoin="round" stroke-miterlimit="10" stroke-width="2.5" d="M29.9 46.5l-2.2 1.3c-1.7 1-3.8 1-5.5 0l-15.6-9c-1.7-1-2.7-2.8-2.7-4.7V16c0-2 1-3.8 2.7-4.7l15.6-9c1.7-1 3.8-1 5.5 0l15.6 9c1.7 1 2.7 2.8 2.7 4.7v18c0 2-1 3.8-2.7 4.7l-2.5 1.4"/><path d="M32.9 22.1v12.1c0 1.4-1.1 2.5-2.5 2.5H15.7c-1.4 0-2.5-1.1-2.5-2.5V23.8c0-1.4 1.1-2.5 2.5-2.5h13.4" class="st3"/><circle cx="17.9" cy="28.3" r="1.3" class="st4" transform="rotate(-75.753 17.867 28.325)"/><circle cx="28.2" cy="28.3" r="1.3" class="st4"/><path d="M26 30.6c-.7.8-1.8 1.3-3 1.3s-2.3-.5-3-1.3" class="st5"/><path d="M11.7 33h1.5v-8h-1.5c-1.3 0-2.3 1-2.3 2.3v3.3c0 1.3 1.1 2.4 2.3 2.4zm21.2 0h1.5c1.3 0 2.3-1 2.3-2.3v-3.3c0-1.3-1-2.3-2.3-2.3h-1.5" class="st3"/><path d="M35.1 33v4.6c0 1.3-1 2.3-2.3 2.3h-8m-1-.9h-1.2c-.5 0-.9.4-.9.9s.4.9.9.9h1.2c.5 0 .9-.4.9-.9s-.4-.9-.9-.9zM23 21.3v-2.2m.9-1.1c0 .5-.4.9-.9.9s-.9-.4-.9-.9.4-.9.9-.9.9.4.9.9z" class="st5"/><path d="M33.1 11.3c-3.7 0-6.8 2.4-6.8 5.4 0 1.8 1.1 3.4 2.8 4.4l-.5 2.8 3.4-1.8c.3 0 .7.1 1 .1 3.7 0 6.8-2.4 6.8-5.4.1-3.1-3-5.5-6.7-5.5z" class="st3"/><ellipse cx="33.1" cy="14.2" class="st5" rx="2.6" ry=".9"/><path fill="none" stroke="#444" stroke-linecap="round" stroke-linejoin="round" stroke-miterlimit="10" stroke-width=".171" d="M35.1 15.6c-.1 0-.1 0 0 0m0 1.7c-.1 0-.1 0 0 0m0 1.7c-.1 0-.1 0 0 0"/><path d="M35.7 15.9c0 .5-1.2.9-2.6.9-1.5 0-2.6-.4-2.6-.9m5.2 1.6c0 .5-1.2.9-2.6.9-1.5 0-2.6-.4-2.6-.9m5.2 1.6c0 .5-1.2.9-2.6.9-1.5 0-2.6-.4-2.6-.9m0-.1v-4.8m5.2 0v4.9" class="st5"/></svg>