<?xml version="1.0" encoding="utf-8"?>
<!-- Generator: Adobe Illustrator 27.7.0, SVG Export Plug-In . SVG Version: 6.00 Build 0)  -->
<svg version="1.1" id="Layer_1" xmlns="http://www.w3.org/2000/svg" xmlns:xlink="http://www.w3.org/1999/xlink" x="0px" y="0px"
	 viewBox="0 0 50 50" style="enable-background:new 0 0 50 50;" xml:space="preserve">
<style type="text/css">
	.st0{fill:none;stroke:#444444;stroke-linecap:round;stroke-linejoin:round;stroke-miterlimit:10;}
	.st1{fill:#46B8B0;}
	.st2{fill:none;stroke:#444444;stroke-width:0.5;stroke-linecap:round;stroke-linejoin:round;stroke-miterlimit:10;}
	.st3{fill:none;stroke:#444444;stroke-width:2.5;stroke-linecap:round;stroke-linejoin:round;stroke-miterlimit:10;}
</style>
<g>
	<path class="st0" d="M-21.4,38.3"/>
</g>
<path class="st0" d="M-20.8,41.4"/>
<g>
	<path class="st1" d="M45.33,10.63c-0.16-1.12-9.27,0.46-12.64,0.87c-0.12,0.01-0.9-3.47-3.11-5.55c-0.88-0.83-7.42-1.37-8.37-0.63
		l-4.41,5.4c-1.45,0-14.4-2.88-12.6,4.59l-2.34,0.72c-0.09,0.22-0.02,4.76-0.03,5L1.29,31.27l1.3,12.27l12.92,0.64l33.48-11.91
		V17.04v-0.19v-0.04c0-1.34-1.48-1.93-2.85-2.02C46.01,14.78,45.48,11.65,45.33,10.63z"/>
	<path class="st0" d="M25.17,40.78L6.73,38.91c-1.07-0.11-1.88-1-1.88-2.08V13.1c0-1.24,1.07-2.2,2.3-2.08l10.9,1.11"/>
	<line class="st2" x1="25.17" y1="26.74" x2="25.17" y2="40.3"/>
	<path class="st0" d="M25.17,40.78l18.44-1.87c1.07-0.11,1.88-1,1.88-2.08V13.1c0-1.24-1.07-2.2-2.3-2.08l-11.64,1.18"/>
	<path class="st3" d="M38.4,43.67H4.38c-1.58,0-2.85-1.28-2.85-2.85V18.07c0-1.58,0.76-3.15,2.34-3.15V13.1
		c0-1.71,1.47-3.05,3.18-2.89l10.39,0.99c0,0,0.78-6.84,7.56-6.84s7.44,6.9,7.44,6.9L43.15,10c1.61-0.19,3.03,1.06,3.05,2.68
		l0.03,2.54c1.58,0,2.27,1.28,2.27,2.85v17.85"/>
	<g>
		<path class="st0" d="M31.58,11.71c0-3.66-2.99-6.62-6.67-6.57c-3.5,0.05-6.44,3.01-6.47,6.52c-0.02,2.34,1.19,4.39,3.02,5.57
			c0.77,0.5,1.21,1.37,1.21,2.28v0.91c0,0.51,0.41,0.92,0.92,0.92h2.83c0.51,0,0.92-0.41,0.92-0.92v-0.9c0-0.9,0.41-1.78,1.17-2.26
			C30.36,16.1,31.58,14.05,31.58,11.71z"/>
		<line class="st0" x1="23.35" y1="22.95" x2="26.95" y2="22.95"/>
		<line class="st0" x1="23.98" y1="24.93" x2="26.32" y2="24.93"/>
	</g>
	<g>
		<path class="st2" d="M10.23,24.37L10.23,24.37c-0.71,0-1.29-0.58-1.29-1.29v-1.04c0-0.71,0.58-1.29,1.29-1.29h0
			c0.71,0,1.29,0.58,1.29,1.29v1.04C11.51,23.79,10.93,24.37,10.23,24.37z"/>
		<line class="st2" x1="13.04" y1="20.79" x2="13.04" y2="24.33"/>
		<path class="st2" d="M13.29,29.44L13.29,29.44c-0.71,0-1.29-0.58-1.29-1.29v-1.04c0-0.71,0.58-1.29,1.29-1.29h0
			c0.71,0,1.29,0.58,1.29,1.29v1.04C14.57,28.86,13.99,29.44,13.29,29.44z"/>
		<path class="st2" d="M20.31,29.44L20.31,29.44c-0.71,0-1.29-0.58-1.29-1.29v-1.04c0-0.71,0.58-1.29,1.29-1.29h0
			c0.71,0,1.29,0.58,1.29,1.29v1.04C21.59,28.86,21.02,29.44,20.31,29.44z"/>
		<line class="st2" x1="16.1" y1="25.86" x2="16.1" y2="29.41"/>
		<path class="st2" d="M10.16,34.5L10.16,34.5c-0.71,0-1.29-0.58-1.29-1.29v-1.04c0-0.71,0.58-1.29,1.29-1.29h0
			c0.71,0,1.29,0.58,1.29,1.29v1.04C11.44,33.92,10.87,34.5,10.16,34.5z"/>
		<path class="st2" d="M15.79,34.5L15.79,34.5c-0.71,0-1.29-0.58-1.29-1.29v-1.04c0-0.71,0.58-1.29,1.29-1.29h0
			c0.71,0,1.29,0.58,1.29,1.29v1.04C17.08,33.92,16.5,34.5,15.79,34.5z"/>
		<path class="st2" d="M19.82,34.5L19.82,34.5c-0.71,0-1.29-0.58-1.29-1.29v-1.04c0-0.71,0.58-1.29,1.29-1.29h0
			c0.71,0,1.29,0.58,1.29,1.29v1.04C21.11,33.92,20.53,34.5,19.82,34.5z"/>
		<line class="st2" x1="12.97" y1="30.92" x2="12.97" y2="34.47"/>
		<line class="st2" x1="10.4" y1="25.86" x2="10.4" y2="29.41"/>
		<line class="st2" x1="8.87" y1="25.86" x2="8.87" y2="29.41"/>
		<line class="st2" x1="17.42" y1="25.86" x2="17.42" y2="29.41"/>
		<path class="st2" d="M15.86,24.37L15.86,24.37c-0.71,0-1.29-0.58-1.29-1.29v-1.04c0-0.71,0.58-1.29,1.29-1.29h0
			c0.71,0,1.29,0.58,1.29,1.29v1.04C17.15,23.79,16.57,24.37,15.86,24.37z"/>
		<line class="st2" x1="18.54" y1="20.79" x2="18.54" y2="24.33"/>
	</g>
	<g>
		<path class="st2" d="M40.11,24.37L40.11,24.37c0.71,0,1.29-0.58,1.29-1.29v-1.04c0-0.71-0.58-1.29-1.29-1.29l0,0
			c-0.71,0-1.29,0.58-1.29,1.29v1.04C38.82,23.79,39.4,24.37,40.11,24.37z"/>
		<line class="st2" x1="37.29" y1="20.79" x2="37.29" y2="24.33"/>
		<path class="st2" d="M37.05,29.44L37.05,29.44c0.71,0,1.29-0.58,1.29-1.29v-1.04c0-0.71-0.58-1.29-1.29-1.29h0
			c-0.71,0-1.29,0.58-1.29,1.29v1.04C35.76,28.86,36.34,29.44,37.05,29.44z"/>
		<path class="st2" d="M30.03,29.44L30.03,29.44c0.71,0,1.29-0.58,1.29-1.29v-1.04c0-0.71-0.58-1.29-1.29-1.29h0
			c-0.71,0-1.29,0.58-1.29,1.29v1.04C28.74,28.86,29.32,29.44,30.03,29.44z"/>
		<line class="st2" x1="34.23" y1="25.86" x2="34.23" y2="29.41"/>
		<path class="st2" d="M40.18,34.5L40.18,34.5c0.71,0,1.29-0.58,1.29-1.29v-1.04c0-0.71-0.58-1.29-1.29-1.29l0,0
			c-0.71,0-1.29,0.58-1.29,1.29v1.04C38.89,33.92,39.47,34.5,40.18,34.5z"/>
		<path class="st2" d="M34.55,34.5L34.55,34.5c0.71,0,1.29-0.58,1.29-1.29v-1.04c0-0.71-0.58-1.29-1.29-1.29h0
			c-0.71,0-1.29,0.58-1.29,1.29v1.04C33.26,33.92,33.84,34.5,34.55,34.5z"/>
		<path class="st2" d="M30.52,34.5L30.52,34.5c0.71,0,1.29-0.58,1.29-1.29v-1.04c0-0.71-0.58-1.29-1.29-1.29h0
			c-0.71,0-1.29,0.58-1.29,1.29v1.04C29.23,33.92,29.81,34.5,30.52,34.5z"/>
		<line class="st2" x1="37.36" y1="30.92" x2="37.36" y2="34.47"/>
		<line class="st2" x1="39.94" y1="25.86" x2="39.94" y2="29.41"/>
		<line class="st2" x1="41.47" y1="25.86" x2="41.47" y2="29.41"/>
		<line class="st2" x1="32.91" y1="25.86" x2="32.91" y2="29.41"/>
		<path class="st2" d="M34.48,24.37L34.48,24.37c0.71,0,1.29-0.58,1.29-1.29v-1.04c0-0.71-0.58-1.29-1.29-1.29h0
			c-0.71,0-1.29,0.58-1.29,1.29v1.04C33.19,23.79,33.77,24.37,34.48,24.37z"/>
		<line class="st2" x1="31.8" y1="20.79" x2="31.8" y2="24.33"/>
	</g>
	<path class="st2" d="M27.51,8.11c0,0,3.06,2.88,0.36,6.93"/>
</g>
</svg>
