<svg xmlns="http://www.w3.org/2000/svg" id="Camada_1" data-name="Camada 1" viewBox="0 0 300 300"><defs><style>.cls-2,.cls-3,.cls-4,.cls-5{stroke-width:0}.cls-2{fill:#f9b4c4}.cls-3{fill:#f4f4f4}.cls-4{fill:#ff6780}.cls-5{fill:#d34f6e}</style></defs><circle cx="140" cy="150" r="140" fill="#008dd3" stroke-width="0"/><path d="M300 145.43c0 4.48-.23 8.91-.69 13.27a124.18 124.18 0 01-15.11 47.53s-.03 0-.03.02c-21.32 38.1-62.09 63.85-108.84 63.85-21.4 0-41.55-5.4-59.15-14.91-39-21.06-65.51-62.32-65.51-109.76 0-5.57.37-11.06 1.09-16.46 1.06-8.16 2.93-16.06 5.52-23.68a118.128 118.128 0 012.54-6.82c.32-.8.65-1.59.99-2.37.62-1.43 1.26-2.85 1.93-4.25.15-.32.31-.64.46-.95l.15-.3c.32-.66.65-1.32.99-1.97a.94.94 0 01.12-.22c.38-.76.78-1.52 1.19-2.27.34-.64.7-1.28 1.06-1.91.16-.3.33-.6.5-.89 1.24-2.16 2.54-4.27 3.91-6.34.45-.69.91-1.38 1.38-2.06.66-.95 1.33-1.9 2.01-2.84.27-.38.55-.76.83-1.13.34-.46.68-.91 1.03-1.36.4-.51.8-1.03 1.2-1.54a165.897 165.897 0 013.12-3.78c.58-.67 1.16-1.33 1.75-1.99 1.17-1.32 2.37-2.61 3.62-3.87.62-.63 1.24-1.25 1.87-1.87.51-.51 1.03-1.01 1.55-1.51a124.331 124.331 0 0149.27-28.81c.07-.02.15-.05.22-.07 1.66-.5 3.32-.99 5.01-1.42 2.1-.56 4.23-1.05 6.39-1.48 2.22-.45 4.47-.85 6.74-1.18.47-.07.94-.14 1.41-.2.67-.09 1.34-.18 2.02-.26.65-.08 1.3-.15 1.95-.21.93-.1 1.86-.18 2.8-.26.78-.06 1.56-.12 2.34-.17h.12c.82-.05 1.64-.09 2.47-.13.85-.03 1.7-.06 2.55-.07.85-.02 1.7-.03 2.56-.03 1.02 0 2.04 0 3.05.04 1.02.02 2.03.06 3.04.11 1 .04 2.01.1 3.01.18 1 .07 2 .15 3 .25.94.09 1.88.19 2.82.3.11.02.22.03.33.04.73.09 1.46.18 2.18.29.02 0 .04 0 .06.01.5.07 1 .14 1.49.22 1.75.26 3.49.57 5.21.91.82.15 1.63.32 2.45.5l.12.03c.94.2 1.87.42 2.8.65 1.03.25 2.06.51 3.08.79.78.21 1.55.43 2.33.65.72.21 1.43.43 2.14.65.47.15.95.3 1.42.45 1.46.47 2.9.97 4.33 1.5.42.15.83.3 1.24.46.54.2 1.08.4 1.61.62.17.07.33.13.5.2.3.12.61.24.91.37.47.19.94.38 1.4.58.47.2.93.4 1.4.6.12.05.23.1.34.15.81.36 1.62.72 2.42 1.1l.39.18c.33.15.65.3.97.47.39.18.77.37 1.14.55.07.03.15.07.22.11.26.12.52.25.78.39.44.22.89.45 1.33.68.2.11.39.21.58.31.45.23.89.47 1.33.71.02.01.03.01.05.02.16.09.31.18.47.26.42.23.83.46 1.24.7.85.47 1.7.96 2.53 1.46.28.17.56.34.83.5.52.31 1.03.62 1.53.94.36.23.71.45 1.06.68.02.01.04.02.06.04.43.26.85.53 1.26.81.31.2.62.4.92.62.11.07.22.14.33.22.25.17.51.34.76.52.12.07.24.15.35.24.12.07.24.15.35.24.34.23.68.47 1.01.71l1.17.84c.08.05.15.11.22.16.35.25.69.51 1.03.76.15.11.3.22.44.33.25.19.5.39.75.58.05.03.1.07.15.11.24.19.48.37.72.56.08.06.16.12.23.18.03.02.06.04.08.07.4.3.79.61 1.18.93.01 0 .01.01.02.01.61.49 1.21.98 1.8 1.48.17.14.33.28.49.41l.41.35c.13.12.26.23.39.34.12.09.23.19.33.29.21.17.41.35.61.52.92.81 1.83 1.63 2.73 2.47.11.11.23.21.34.32.62.57 1.23 1.16 1.83 1.75.36.35.71.7 1.06 1.05.52.51 1.03 1.04 1.55 1.57.23.24.46.48.69.73.28.29.56.59.84.89.08.08.16.17.24.26.03.02.05.05.07.08.31.32.61.65.91.99.61.67 1.22 1.35 1.81 2.05.11.12.22.24.33.37.11.13.23.27.34.41.25.28.5.57.74.87.13.15.26.31.39.47l.27.33c.15.18.31.37.46.56.12.15.24.29.35.43.2.24.39.49.59.74.11.14.23.29.34.44.29.36.57.72.85 1.08.02.03.05.06.07.1l.39.51c.62.81 1.24 1.64 1.83 2.48.15.2.29.39.43.59.15.21.3.42.45.64.29.4.57.82.86 1.24.39.56.77 1.13 1.15 1.71.04.06.08.13.13.2.42.63.83 1.27 1.24 1.93.27.42.55.86.81 1.3.13.22.27.43.4.65.07.11.14.23.21.35.31.51.61 1.02.9 1.52.02.04.04.08.06.11.28.48.55.95.82 1.43l.24.42c.04.08.09.16.14.25.19.34.38.68.57 1.03.24.44.48.88.71 1.33.01.03.02.05.03.07.25.47.49.93.73 1.4.03.05.06.11.09.18.26.53.53 1.05.79 1.58a134.17 134.17 0 011.21 2.54c.11.23.22.45.31.68.75 1.61 1.45 3.25 2.11 4.9.2.47.37.95.55 1.42.05.13.1.26.16.4.15.39.3.78.45 1.16l.12.33v.03a119.884 119.884 0 013.96 12.7 114.086 114.086 0 011.85 8.53c0 .03 0 .06.02.1.12.68.24 1.37.35 2.06.24 1.49.46 2.99.64 4.5.09.69.17 1.38.24 2.07.08.74.15 1.47.22 2.21 0 .02 0 .04.01.06.06.72.12 1.45.17 2.17.05.73.1 1.46.14 2.19.04.81.08 1.61.1 2.42.03.62.04 1.24.05 1.86.02.84.03 1.68.03 2.53z" class="cls-2"/><path d="M300 145.43c0 4.48-.23 8.91-.69 13.27a124.18 124.18 0 01-15.11 47.53s-.03 0-.03.02c-24.51 15.69-53.64 24.8-84.9 24.8-14.8 0-29.13-2.04-42.71-5.86-6.7-1.88-13.22-4.2-19.53-6.91a157.293 157.293 0 01-34.27-20.24c-22.83-17.72-40.65-41.56-51-69.07 1.06-8.16 2.93-16.06 5.52-23.68a118.128 118.128 0 012.54-6.82c.32-.8.65-1.59.99-2.37.62-1.43 1.26-2.85 1.93-4.25.15-.32.31-.64.46-.95l.15-.3c.32-.66.65-1.32.99-1.97a.94.94 0 01.12-.22c.38-.76.78-1.52 1.19-2.27.34-.64.7-1.28 1.06-1.91.16-.3.33-.6.5-.89 1.24-2.16 2.54-4.27 3.91-6.34.45-.69.91-1.38 1.38-2.06.66-.95 1.33-1.9 2.01-2.84.27-.38.55-.76.83-1.13.34-.46.68-.91 1.03-1.36.4-.51.8-1.03 1.2-1.54a165.897 165.897 0 013.12-3.78c.58-.67 1.16-1.33 1.75-1.99 1.17-1.32 2.37-2.61 3.62-3.87.62-.63 1.24-1.25 1.87-1.87.51-.51 1.03-1.01 1.55-1.51a124.331 124.331 0 0149.27-28.81c.07-.02.15-.05.22-.07 1.66-.5 3.32-.99 5.01-1.42 2.1-.56 4.23-1.05 6.39-1.48 2.22-.45 4.47-.85 6.74-1.18.47-.07.94-.14 1.41-.2.67-.09 1.34-.18 2.02-.26.65-.08 1.3-.15 1.95-.21.93-.1 1.86-.18 2.8-.26.78-.06 1.56-.12 2.34-.17h.12c.82-.05 1.64-.09 2.47-.13.85-.03 1.7-.06 2.55-.07.85-.02 1.7-.03 2.56-.03 1.02 0 2.04 0 3.05.04 1.02.02 2.03.06 3.04.11 1 .04 2.01.1 3.01.18 1 .07 2 .15 3 .25.94.09 1.88.19 2.82.3.11.02.22.03.33.04.73.09 1.46.18 2.18.29.02 0 .04 0 .06.01.5.07 1 .14 1.49.22 1.75.26 3.49.57 5.21.91.82.15 1.63.32 2.45.5l.12.03c.94.2 1.87.42 2.8.65 1.03.25 2.06.51 3.08.79.78.21 1.55.43 2.33.65.72.21 1.43.43 2.14.65.47.15.95.3 1.42.45 1.46.47 2.9.97 4.33 1.5.42.15.83.3 1.24.46.54.2 1.08.4 1.61.62.17.07.33.13.5.2.3.12.61.24.91.37.47.19.94.38 1.4.58.47.2.93.4 1.4.6.12.05.23.1.34.15.81.36 1.62.72 2.42 1.1l.39.18c.33.15.65.3.97.47.39.18.77.37 1.14.55.07.03.15.07.22.11.26.12.52.25.78.39.44.22.89.45 1.33.68.2.11.39.21.58.31.45.23.89.47 1.33.71.02.01.03.01.05.02.16.09.31.18.47.26.42.23.83.46 1.24.7.85.47 1.7.96 2.53 1.46.28.17.56.34.83.5.52.31 1.03.62 1.53.94.36.23.71.45 1.06.68.02.01.04.02.06.04.43.26.85.53 1.26.81.31.2.62.4.92.62.11.07.22.14.33.22.25.17.51.34.76.52.12.07.24.15.35.24.12.07.24.15.35.24.34.23.68.47 1.01.71l1.17.84c.08.05.15.11.22.16.35.25.69.51 1.03.76.15.11.3.22.44.33.25.19.5.39.75.58.05.03.1.07.15.11.24.19.48.37.72.56.08.06.16.12.23.18.03.02.06.04.08.07.4.3.79.61 1.18.93.01 0 .01.01.02.01.61.49 1.21.98 1.8 1.48.17.14.33.28.49.41l.41.35c.13.12.26.23.39.34.12.09.23.19.33.29.21.17.41.35.61.52.92.81 1.83 1.63 2.73 2.47.11.11.23.21.34.32.62.57 1.23 1.16 1.83 1.75.36.35.71.7 1.06 1.05.52.51 1.03 1.04 1.55 1.57.23.24.46.48.69.73.28.29.56.59.84.89.08.08.16.17.24.26.03.02.05.05.07.08.31.32.61.65.91.99.61.67 1.22 1.35 1.81 2.05.11.12.22.24.33.37.11.13.23.27.34.41.25.28.5.57.74.87.13.15.26.31.39.47l.27.33c.15.18.31.37.46.56.12.15.24.29.35.43.2.24.39.49.59.74.11.14.23.29.34.44.29.36.57.72.85 1.08.02.03.05.06.07.1l.39.51c.62.81 1.24 1.64 1.83 2.48.15.2.29.39.43.59.15.21.3.42.45.64.29.4.57.82.86 1.24.39.56.77 1.13 1.15 1.71.04.06.08.13.13.2.42.63.83 1.27 1.24 1.93.27.42.55.86.81 1.3.13.22.27.43.4.65.07.11.14.23.21.35.31.51.61 1.02.9 1.52.02.04.04.08.06.11.28.48.55.95.82 1.43l.24.42c.04.08.09.16.14.25.19.34.38.68.57 1.03.24.44.48.88.71 1.33.01.03.02.05.03.07.25.47.49.93.73 1.4.03.05.06.11.09.18.26.53.53 1.05.79 1.58a134.17 134.17 0 011.21 2.54c.11.23.22.45.31.68.75 1.61 1.45 3.25 2.11 4.9.2.47.37.95.55 1.42.05.13.1.26.16.4.15.39.3.78.45 1.16l.12.33v.03a119.884 119.884 0 013.96 12.7 114.086 114.086 0 011.85 8.53c0 .03 0 .06.02.1.12.68.24 1.37.35 2.06.24 1.49.46 2.99.64 4.5.09.69.17 1.38.24 2.07.08.74.15 1.47.22 2.21 0 .02 0 .04.01.06.06.72.12 1.45.17 2.17.05.73.1 1.46.14 2.19.04.81.08 1.61.1 2.42.03.62.04 1.24.05 1.86.02.84.03 1.68.03 2.53z" class="cls-4"/><path d="M300 145.43c0 4.48-.23 8.91-.69 13.27-27.21 22.36-62.06 35.8-100.04 35.8-3.19 0-6.36-.09-9.51-.29-7.98-.47-15.8-1.54-23.42-3.16-8.31-1.76-16.37-4.18-24.13-7.2-37.29-14.49-67.69-42.76-84.93-78.56a118.128 118.128 0 012.54-6.82c.32-.8.65-1.59.99-2.37.54-1.25 1.09-2.49 1.67-3.71.08-.18.17-.36.26-.54.15-.32.31-.64.46-.95l.15-.3c.32-.66.65-1.32.99-1.97a.94.94 0 01.12-.22c.38-.76.78-1.52 1.19-2.27.34-.64.7-1.28 1.06-1.91.16-.3.33-.6.5-.89 1.24-2.16 2.54-4.27 3.91-6.34.45-.69.91-1.38 1.38-2.06.66-.95 1.33-1.9 2.01-2.84.27-.38.55-.76.83-1.13.34-.46.68-.91 1.03-1.36.4-.51.8-1.03 1.2-1.54a165.897 165.897 0 013.12-3.78 132.463 132.463 0 015.37-5.86c.62-.63 1.24-1.25 1.87-1.87.51-.51 1.03-1.01 1.55-1.51 3.66-3.48 7.54-6.73 11.61-9.75 7.13-5.29 14.86-9.85 23.05-13.53 6.35-2.87 12.98-5.23 19.84-7.02a123.08 123.08 0 0113.13-2.66c.47-.07.94-.14 1.41-.2.67-.09 1.34-.18 2.02-.26.65-.08 1.3-.15 1.95-.21.93-.1 1.86-.18 2.8-.26.78-.06 1.56-.12 2.34-.17h.12c.82-.05 1.64-.09 2.47-.13.85-.03 1.7-.06 2.55-.07.85-.02 1.7-.03 2.56-.03 1.02 0 2.04 0 3.05.04 1.02.02 2.03.06 3.04.11 1 .04 2.01.1 3.01.18 1 .07 2 .15 3 .25.94.09 1.88.19 2.82.3.11.02.22.03.33.04.73.09 1.46.18 2.18.29.02 0 .04 0 .06.01.5.07 1 .14 1.49.22 1.75.26 3.49.57 5.21.91.82.15 1.63.32 2.45.5l.12.03c.94.2 1.87.42 2.8.65 1.03.25 2.06.51 3.08.79.78.21 1.55.43 2.33.65.72.21 1.43.43 2.14.65.47.15.95.3 1.42.45 1.46.47 2.9.97 4.33 1.5.42.15.83.3 1.24.46.54.2 1.08.4 1.61.62.18.06.35.13.52.2.3.12.59.24.89.37.44.17.87.35 1.31.53.03.02.07.03.11.05l1.38.6c.12.05.23.1.34.15.82.35 1.62.72 2.42 1.1l.39.18c.33.15.65.3.97.47.11.04.22.1.33.15.27.13.54.26.81.4.07.03.15.07.22.11.26.12.52.25.78.39.44.22.89.45 1.33.68.2.11.39.21.58.31.45.23.89.47 1.33.71.02.01.03.01.05.02.16.09.31.18.47.26.42.23.83.46 1.24.7.85.47 1.7.96 2.53 1.46.28.17.56.34.83.5.52.31 1.03.62 1.53.94.36.22.71.45 1.06.68.02.01.04.02.06.04.43.26.85.53 1.26.81.31.2.62.4.92.62.1.06.2.12.3.19.01.01.02.01.03.03.03.01.06.03.09.05.34.23.68.46 1.02.71.12.07.24.15.35.24.35.23.7.48 1.04.72.39.28.77.55 1.14.83.08.05.15.11.22.16.35.25.69.51 1.03.76.15.11.3.22.44.33.25.19.5.38.75.58.05.03.1.07.15.11.24.19.48.37.72.56.08.06.16.12.23.18.03.02.06.04.08.07.37.28.74.57 1.11.86.03.03.06.05.09.08.61.49 1.21.98 1.8 1.48.17.14.33.28.49.41l.41.35c.13.12.26.23.39.34.15.13.3.25.45.38l.49.43c.92.81 1.83 1.63 2.73 2.47.11.11.23.21.34.32.62.57 1.23 1.16 1.83 1.75.36.35.71.7 1.06 1.05.52.51 1.03 1.04 1.55 1.57.23.24.46.48.69.73.28.29.56.59.84.89.08.08.16.17.24.26.03.02.05.05.07.08.31.32.61.65.91.99.61.67 1.22 1.35 1.81 2.05.11.12.22.24.33.37.11.13.23.27.34.41.25.29.5.58.74.87.13.15.26.31.39.47l.27.33c.15.18.31.37.46.56.12.14.23.28.35.43.2.24.39.49.59.74.12.14.23.29.34.44.29.36.57.72.85 1.08.02.02.03.04.05.06 0 .01.01.03.02.04l.39.51c.62.81 1.24 1.64 1.83 2.48.15.2.29.39.43.59.15.21.3.42.45.64.29.4.57.82.86 1.24.39.56.77 1.13 1.15 1.71.04.06.08.13.13.2.42.63.83 1.27 1.24 1.93.27.42.55.86.81 1.3.13.22.27.43.4.65.07.11.14.23.21.35.31.51.61 1.02.9 1.52.02.04.04.08.06.11.28.48.55.95.82 1.43l.24.42c.04.08.09.16.14.25.35.64.7 1.28 1.04 1.93a113.773 113.773 0 011.09 2.08c.26.53.53 1.05.79 1.58a134.17 134.17 0 011.21 2.54c.1.22.2.45.31.68.27.6.55 1.21.81 1.83.25.57.5 1.15.74 1.73.28.66.55 1.33.81 1.99.16.39.31.78.46 1.17.15.39.3.78.45 1.16l.12.33v.03c.22.61.45 1.22.66 1.84.2.55.39 1.1.57 1.65.12.33.23.67.33 1 .2.59.39 1.19.57 1.78.24.75.46 1.5.68 2.25a117.081 117.081 0 011.67 6.29c.5 2.12.94 4.26 1.33 6.42 0 .03 0 .06.02.1.12.68.24 1.37.35 2.06.24 1.49.46 2.99.64 4.5.09.69.17 1.38.24 2.07.08.74.15 1.47.22 2.21 0 .02 0 .04.01.06.06.72.12 1.45.17 2.17.05.73.1 1.46.14 2.19.04.81.08 1.61.1 2.42.03.62.04 1.24.05 1.86.02.84.03 1.68.03 2.53z" class="cls-2"/><path d="M172.35 94.21h23.27v113.22h-23.27z" class="cls-4" transform="rotate(39.05 183.995 150.833)"/><path d="M295.03 110.55c-1.64 5.8-4.68 10.92-9.11 14.91-11.45 10.33-29.38 10.56-46.58 2.33-4.9-2.33-9.74-5.36-14.35-9.04a83.432 83.432 0 01-10.01-9.44 81.328 81.328 0 01-6.11-7.63c-6.16-8.64-10.23-17.9-12.12-26.83-3.16-14.98-.17-29.05 9.5-37.77 4.3-3.87 9.53-6.34 15.29-7.47h.02c.74.3 1.47.6 2.2.9.03.02.06.03.09.05h.02l1.38.6c.12.05.23.1.34.15.82.35 1.62.72 2.42 1.1l.39.18c.44.2.87.41 1.3.62.27.13.54.26.81.4.07.03.15.07.22.11.26.12.52.25.78.39.44.22.89.45 1.33.68.2.11.39.21.58.31.45.23.89.47 1.33.71.02.01.03.01.05.02.16.09.31.18.47.26.42.23.83.46 1.24.7.85.47 1.7.96 2.53 1.46.28.17.56.34.83.5.52.31 1.03.62 1.53.94.36.22.71.45 1.06.68.02.01.04.02.06.04.43.26.85.53 1.26.81.31.2.62.4.92.62.1.06.2.12.3.19.04.03.08.06.12.08.22.16.45.31.67.47.12.07.24.15.35.24.12.07.24.15.35.24.34.23.68.47 1.01.71.01 0 .02.01.03.01.39.28.77.55 1.14.83.08.05.15.11.22.16.35.25.69.51 1.03.76.15.11.3.22.44.33.25.19.5.38.75.58.05.03.1.07.15.11.24.19.48.37.72.56.08.06.16.12.23.18.03.02.06.04.08.07.37.28.74.57 1.11.86.02.03.05.05.07.07.01 0 .01.01.02.01.61.49 1.21.98 1.8 1.48.17.14.33.28.49.41l.41.35c.13.12.26.23.39.34.12.09.23.19.33.29l.12.09.49.43c.92.81 1.83 1.63 2.73 2.47.11.11.23.21.34.32.62.57 1.23 1.16 1.83 1.75.36.35.71.7 1.06 1.05.52.51 1.03 1.04 1.55 1.57.23.24.46.48.69.73.28.29.56.59.84.89.08.08.16.17.24.26.03.02.05.05.07.08.31.32.61.65.91.99.61.67 1.22 1.35 1.81 2.05.11.12.22.24.33.37.11.13.23.27.34.41.25.28.5.57.74.87.13.15.26.31.39.47l.27.33c.15.18.31.37.46.56.12.14.23.28.35.43.2.24.39.49.59.74.12.14.23.29.34.44.29.36.57.72.85 1.08.02.02.03.04.05.06.14.19.27.37.41.55.62.81 1.24 1.64 1.83 2.48.15.2.29.39.43.59.15.21.3.42.45.64.29.4.57.82.86 1.24.39.56.77 1.13 1.15 1.71.04.07.08.13.13.2.42.63.83 1.27 1.24 1.93.27.42.55.86.81 1.3.13.22.27.43.4.65.07.11.14.23.21.35.31.51.61 1.02.9 1.52.02.04.04.08.06.11.28.48.55.95.82 1.43l.24.42c.04.08.09.16.14.25.19.34.38.68.57 1.03.16.3.32.6.47.9.08.15.16.29.24.43.01.03.02.05.03.07.25.47.49.93.73 1.4.03.05.06.11.09.18.26.53.53 1.05.79 1.58a134.17 134.17 0 011.21 2.54c.1.22.2.45.31.68.27.6.55 1.21.81 1.83.25.57.5 1.15.74 1.73.19.44.37.89.56 1.34.08.22.17.44.25.65.16.39.31.78.46 1.17.19.5.38.99.57 1.49v.03c.22.61.45 1.22.66 1.84.2.55.39 1.1.57 1.65.12.33.23.67.33 1 .2.59.39 1.19.57 1.78.24.75.46 1.5.68 2.25z" class="cls-4"/><path fill="#dd5b74" stroke-width="0" d="M224.85 64.68l20.11-7.98 30.43 34.36-6.07 16.57c-1.13 3.07-4.14 5.06-7.4 4.82-11.9-.88-38.48-7.29-37.07-46.95v-.82z"/><path d="M265.57 69.55c8.5 9.91 12.31 20.59 8.5 23.86-3.81 3.27-13.79-2.12-22.29-12.03s-12.31-20.59-8.5-23.86c.47-.4 1.03-.67 1.67-.82 4.57-1.05 13.16 4.16 20.62 12.85z" class="cls-2"/><path d="M264.73 72.43c6.43 7.5 9.31 15.58 6.43 18.05-2.88 2.47-10.43-1.6-16.86-9.1s-9.31-15.58-6.43-18.05c.35-.3.78-.51 1.27-.62 3.46-.8 9.96 3.15 15.6 9.72z" class="cls-4"/><circle cx="126.75" cy="107.63" r="25.35" class="cls-5"/><circle cx="126.75" cy="107.63" r="23.39" class="cls-4"/><path d="M145.11 107.64c0 2.83-.65 5.51-1.82 7.92-.33.69-.71 1.35-1.12 1.99-.27.44-.56.87-.88 1.28-.41.55-.86 1.07-1.36 1.56-.92.98-1.95 1.81-3.07 2.56-.72.49-1.47.92-2.24 1.26l-.06.03c-.65.32-1.31.6-2 .81-.32.11-.65.2-.99.28-.72.23-1.46.38-2.24.46-.83.15-1.69.2-2.58.2-.18 0-.35 0-.49-.02-.55 0-1.08-.03-1.6-.1-.21-.03-.43-.07-.64-.11-.47-.05-.92-.12-1.36-.23-.58-.12-1.14-.29-1.69-.48-.77-.23-1.52-.55-2.24-.89a15.88 15.88 0 01-3.07-1.9 18.032 18.032 0 01-2.25-2.01c-.29-.31-.56-.62-.83-.95-2.61-3.18-4.19-7.23-4.19-11.66s1.58-8.49 4.19-11.67c.26-.33.54-.64.83-.95.34-.36.71-.71 1.08-1.04l.09-.09c.35-.31.71-.6 1.08-.88.94-.75 1.98-1.38 3.07-1.9.72-.34 1.47-.66 2.24-.89.55-.19 1.11-.36 1.69-.48.44-.11.89-.18 1.36-.23.21-.04.43-.08.64-.11.52-.07 1.05-.1 1.6-.1.14-.02.31-.02.49-.02.89 0 1.75.05 2.58.2.78.08 1.52.23 2.24.46.34.08.67.17.99.28.69.22 1.35.49 2 .81l.06.03c.77.34 1.52.77 2.24 1.26 1.12.75 2.15 1.58 3.07 2.56.5.49.95 1.01 1.36 1.56.32.41.61.84.88 1.28.41.64.79 1.3 1.12 1.99 1.17 2.41 1.82 5.09 1.82 7.93z" class="cls-2"/><circle cx="227.15" cy="129.43" r="2.36" class="cls-5"/><circle cx="178.64" cy="186.84" r="2.36" class="cls-5"/><circle cx="146.08" cy="230.2" r="2.36" class="cls-5"/><circle cx="138.03" cy="175.46" r="2.36" class="cls-5"/><circle cx="200.26" cy="100.73" r="2.36" class="cls-5"/><circle cx="81.01" cy="157.46" r="6.86" class="cls-3"/><circle cx="143.72" cy="201.55" r="6.86" class="cls-3"/><circle cx="220.84" cy="210.87" r="6.86" class="cls-3"/><path fill="#1a202c" stroke-width="0" d="M300 145.43c0 4.48-.23 8.91-.69 13.27a124.18 124.18 0 01-15.11 47.53s-.03 0-.03.02c-21.32 38.1-62.09 63.85-108.84 63.85-21.4 0-41.55-5.4-59.15-14.91 2.38-1.56 4.92-3.26 7.61-5.11 4.58-3.15 9.57-6.72 14.85-10.69 5.68-4.27 11.7-9.01 17.92-14.2 10.74-8.98 22.06-19.32 33.2-30.98 18-18.8 35.56-41.01 49.58-66.42 3.28-5.93 6.36-12.03 9.21-18.31 3.28-7.23 6.26-14.68 8.86-22.36.21-.62.42-1.24.62-1.87 1.12-3.38 2.17-6.8 3.13-10.26.46-1.65.91-3.31 1.33-4.99.26-1 .51-2.02.74-3.03.65-2.68 1.25-5.38 1.8-8.11.23.23.46.47.69.72.28.29.56.59.84.89.08.08.16.17.24.26.03.02.05.05.07.08.31.32.61.65.91.99.61.67 1.22 1.35 1.81 2.05.11.12.22.24.33.37.11.13.23.27.34.41.25.28.5.57.74.87.13.15.26.31.39.47l.27.33c.15.18.31.37.46.56.12.15.24.29.35.43.2.24.39.49.59.74.12.14.23.29.34.44.29.36.57.72.85 1.08.02.02.03.04.05.06.14.19.27.37.41.55.62.81 1.24 1.64 1.83 2.48.15.2.29.39.43.59.15.21.3.42.45.64.29.4.57.82.86 1.24.39.56.77 1.13 1.15 1.71.04.06.08.13.13.2.42.63.83 1.27 1.24 1.93.27.42.55.86.81 1.3.13.22.27.43.4.65.07.11.14.23.21.35.31.51.61 1.02.9 1.52.02.04.04.08.06.11.28.48.55.95.82 1.43l.24.42c.04.08.09.16.14.25.19.34.38.68.57 1.03.24.44.48.88.71 1.33.01.03.02.05.03.07.25.47.49.93.73 1.4.03.05.06.11.09.18.26.53.53 1.05.79 1.58a134.17 134.17 0 011.21 2.54c.11.23.22.45.31.68.75 1.61 1.45 3.25 2.11 4.9.2.47.37.95.55 1.42.05.13.1.26.16.4.15.39.3.78.45 1.16l.12.33v.03a119.884 119.884 0 013.96 12.7 114.086 114.086 0 011.85 8.53c0 .03 0 .06.02.1.12.68.24 1.37.35 2.06.24 1.49.46 2.99.64 4.5.09.69.17 1.38.24 2.07.08.74.15 1.47.22 2.21 0 .02 0 .04.01.06.06.72.12 1.45.17 2.17.05.73.1 1.46.14 2.19.04.81.08 1.61.1 2.42.03.62.04 1.24.05 1.86.02.84.03 1.68.03 2.53z" opacity=".12"/><path d="M114.58 121.38V93.89l-.09.09-1.91 1.99v23.33l2 2.08zm10.08-31.98v36.47c-.21-.03-.43-.07-.64-.11-.47-.05-.92-.12-1.36-.23V89.74c.44-.11.89-.18 1.36-.23.21-.04.43-.08.64-.11zm9.9 34.84V91.03l-2-.81v34.83l2-.81zm8.73-24.53v15.85c-.33.69-.71 1.35-1.12 1.99-.27.44-.56.87-.88 1.28V96.44c.32.41.61.84.88 1.28.41.64.79 1.3 1.12 1.99z" class="cls-5"/><path style="isolation:isolate" fill="#fff" stroke-width="0" d="M98.77 112.65c-.83 4.78-7.85 6.97-10.21 3.15-.03-.04-.05-.09-.08-.13-13.21-21.59-2.08-52.38 24.85-68.28 25.77-15.21 56.96-10.89 69.94 9.68l.33.54c2.34 3.85-2.77 9.14-7.43 7.69-14.62-4.53-32.65-2.29-48.61 7.47s-26.17 24.79-28.8 39.88z" opacity=".2"/></svg>