<svg xmlns="http://www.w3.org/2000/svg" id="Camada_1" x="0" y="0" version="1.1" viewBox="0 0 300 300" xml:space="preserve"><style>.st2{fill:#fbc304}.st3{fill:#ff8da4}.st4{fill:#f14e70}.st5{fill:#54c654}.st6{fill:#50afeb}.st7{fill:#ab67a9}.st10{opacity:.2;fill:#fff;enable-background:new}</style><path fill="#008dd3" d="M286.2 149.4c.1 20.7-4.3 40.4-12.1 58.2-22 49.7-71.6 84.3-129.5 84.5-15.4.1-30.2-2.4-44.1-6.8-26.1-8.3-48.9-24-65.9-44.7-17.7-21.4-29.4-48-32.1-77.3-.4-4.2-.6-8.5-.6-12.8-.2-48.2 23.7-91 60.4-116.8 4.8-3.4 9.8-6.5 15-9.2 7.3-3.9 15-7.2 23-9.8 7.5-2.4 15.4-4.2 23.4-5.4 6.5-.9 13-1.4 19.7-1.5 26.2-.1 50.6 6.9 71.8 19.1 3.8 2.2 7.4 4.5 11 7.1 16.9 12 31.1 27.6 41.4 45.8 1.2 2.1 2.3 4.1 3.3 6.3.9 1.9 1.8 3.6 2.6 5.5 2.7 6.1 5 12.2 6.9 18.6 2.1 7.2 3.6 14.5 4.5 21.9.9 5.8 1.3 11.5 1.3 17.3z"/><path fill="#e247d7" d="M136.7 224.6l.3-.3c-.3-2.2-.5-4.6-.6-6.9l.3 7.2z"/><path d="M212.8 220.4c10 3.9 15.6 5.6 24.6 7.8 24.4 6 41.7 4.4 47.4-4.6s-.2-25.2-16-44.9C252 158 226.2 136 195.9 116.9c-23.4-14.8-45.6-25.6-64.9-32.8 1-1.9 1.3-4.2.8-6.3 20.8 7.5 43.8 18.9 67.4 33.9 30.8 19.5 57.2 42 74.4 63.2 17.9 22.1 23.7 40.5 16.4 52-3.2 5.1-8.8 8.4-16.4 10-9.5 1.9-22.3 1-37.7-2.7-8.8-2.1-15.8-4.4-25.5-8.2 1-1.9 3-3.5 2.4-5.6z" class="st2"/><path d="M146.4 110.8c21.6-13.3 42.7-23.6 62.1-30.7v.2c40.5-15.1 73-16.2 82.8-.1 12.7 20.6-16.4 61.4-67.8 98.4 0 0 .1 0 .1.1-2.2 1.6-4.5 3.2-6.8 4.8-.1-2.4-.3-4.9-.5-7.3 53.7-37.7 79.5-76.8 69.7-92.7-5.4-8.7-21.7-11-44.9-6.4-18.3 3.7-41 11.8-65.9 24.8l-.2-.2c-8.3 4.3-16.8 9-25.4 14.4-5.4 3.2-10.4 6.6-15.3 9.9-.3-.6-.8-.9-1.4-1.2.1 0 .2.1.3.1-.9-.4-1.8-.9-2.6-1.5-.4-.4-.8-.7-1.1-1.2 0-.1-.1-.2-.1-.2 5.3-3.8 11.1-7.5 17-11.2z" class="st2"/><path d="M134.2 217.1c.8 0 1.6 0 2.4-.1 1.3-.2 2.7-.7 3.9-1.4 2.8 19.6 9.7 50.6 25.3 56.8l6-7.8c.6-.8 1.4-1.2 2.3-1.1.9.1 1.7.6 2.4 1.5l7.8 10.9c5.1-6.2 19.9-29 25.5-52.6.2-1.4.4-2.8.5-4.3 2.2-23-4-45.6-18.6-67.2-1.2-1.7-.9-4.4.5-6 .8-.8 1.8-1.2 2.7-1.1.8.1 1.5.6 2 1.3 14.1 20.9 21 42.6 20.6 65 .1-.2.2-.3.2-.3-.1 1.8-.2 3.6-.4 5.4-.1 1.1-.6 1.9-.7 3-.2 2.3-.4 4.3-.7 6.4-.1-.1.1.4 0 .3-6.9 33.8-28.6 58.7-29.4 59.6-1.3 1.3-3.2 1-4.5-.7l-7.7-10.7-4.9 6.4c-.7.9-1.7 1.3-2.8 1-20.6-5.6-29.1-41.7-32.4-64.3z" class="st3"/><path d="M174.4 274.1l-.1-96.1 27.2-20.7 12.9 32.2.3 26.5-11.3 32-16.2 33.3z" class="st3"/><path d="M174.4 274.1l-4.9 6.4c-.7.9-1.7 1.3-2.8 1-20.9-5.8-29.3-41.9-32.6-64.4.8 0 1.6 0 2.4-.1 1.3-.2 2.7-.7 3.9-1.4 2.8 19.6 9.7 50.6 25.3 56.8l6-7.8c.6-.8 1.4-1.2 2.3-1.1l.4 10.6z" class="st4"/><path d="M174.3 268.9l2.7-91-13.3 14.5-22.5 22.6-1.4 14.4 14.7 36.8s9.5 5.8 10.9 8.2c2.4 4.1 8.9-5.5 8.9-5.5z" class="st4"/><path d="M93.9 154.1c.4.7.9 1.4 1.4 2 .9 1 2 1.9 3.3 2.6-15.1 12.9-37.6 35.2-34.4 51.7l9.8.8c1 .1 1.8.6 2.2 1.4.4.8.4 1.8 0 2.8l-5.3 12.5c7.9.9 35.1 1.4 58.1-6.6 1.3-.6 2.5-1.2 3.8-1.8 20.6-10.3 36.3-27.7 46.9-51.6.8-1.9 3.2-3.1 5.4-2.7 1.1.2 2 .9 2.3 1.7.3.7.3 1.6-.1 2.4-10.1 23-24.9 40.5-44 52.1h.4c-1.6.9-3.1 1.7-4.8 2.5-1 .5-1.9.5-2.9 1-2 1-3.7 1.9-5.8 2.8 0-.1-.3.3-.3.1-32.3 12.4-64.9 7.3-66.1 7-1.8-.4-2.6-2.2-1.8-4.2l5.1-12.3-8-.7c-1.2-.1-2.1-.8-2.4-1.8-6.1-20.3 19.9-46.8 37.2-61.7z" class="st3"/><path d="M67.2 218.6l85.8-54.2 27.5 14.7-20.4 28.2-22.1 14.4-33.2 7.5-36.8 4z" class="st3"/><path d="M67.3 218.6l-8-.7c-1.2-.1-2.1-.8-2.4-1.8-6.3-20.7 19.7-47.2 37.1-62 .4.7.9 1.4 1.4 2 .9 1 2 1.9 3.3 2.6-15.1 12.9-37.6 35.2-34.4 51.7l9.8.8c1 .1 1.8.6 2.2 1.4l-9 6z" class="st4"/><path d="M67.2 218.6l86.9-53.7-6.6-28.4-52 14.9-9.3 13.6-23.1 32.1.8 12.6z" class="st4"/><path d="M135.6 84.7c-.5.6.4 2.3.1 3-.6 1.2-.2 2.5-.3 3.9-17.7-9-47-21.2-61.1-11.9l2.9 9.4c.3.9.2 1.9-.4 2.5-.6.7-1.5 1.1-2.6 1.1l-13.5.1c2.1 7.7 12.3 32.9 28.4 51.1 1 1 2 1.9 3.1 2.8 17.4 15.1 39.6 22.9 65.7 23.4 2.1 0 4.2 1.8 4.6 3.8.2 1.1 0 2.1-.7 2.8-.5.6-1.3.9-2.3.9-25.1-.5-47-7.4-65-20.6.1.2.1.4.1.4-1.4-1.1-2.8-2.3-4.2-3.4-.9-.7-1.2-1.5-2-2.3-1.7-1.5-3.2-2.7-4.9-4.3.1 0-.4-.2-.3-.2-23.8-25-31.6-57.1-31.9-58.3-.3-1.8 1-3.2 3.1-3.2l13.3-.1-2.4-7.6c-.4-1.1-.1-2.2.8-2.9 17-13.7 49.3-.6 69.5 9.6z" class="st3"/><path d="M76.9 91.7l76.7 51.2-4.7 29-34.6-4.8-21.8-15-19.7-27.7L55 92z" class="st3"/><path d="M68.1 85.7l-4.7-11.1c-.4-1.1-.1-2.2.8-2.9 16.8-13.7 51.2 0 71.5 10.4-.5.6-.9 1.3-1.3 2.1-.6 1.2-.9 2.6-1.1 4-17.8-9-47.1-21.3-61.2-11.9l2.9 9.4c.3.9 2.4 5.4 1.8 6.1l-8.7-6.1z" class="st4"/><path d="M76.9 91.7l67.7 45.6-14.2-13.1 3.2-35.7-10.9-9.4L84.1 70l-14.5.9z" class="st4"/><path d="M130.6 84.3c0-.4.1-.7.2-1.1.2-.9.3-1.9.5-2.8-.1.3-.1.5 0-.2 7.6-39.8 22.2-66 39.9-66.4 9.4-.2 18.4 6.8 26.2 19.9 0 .1.1.1.1.2.3.5.5.9.8 1.4.2.3.3.6.5.9.1.3.3.5.4.8.3.5.5 1 .8 1.6 0 .1.1.2.1.3.7 1.3 1.3 2.6 1.9 4v.1c1.6 3.5 3.1 7.4 4.7 11.5 2.3 6.6 5 15.6 6.8 23.2.4 1.4.2.7.1.2.3 1.4.6 2.8.9 4.3h-.2c4.3 20.4 6.9 44.1 7.1 69.8.2 21.5-.1 38.7-3 57.4-.6 4-1.6 10.1-2 13.2-.1.8-.9 4.7-1 5.3-5.1-1.7-3.2-.7-5.2-1.9l-.4-3c4-21 5.8-45.6 5.5-70.8-.3-30.1-3.7-56.4-8.9-77.5-1.6-6.3-3.5-13-5.4-18-3.9-10.9-8.4-19.7-13.1-26-5.2-6.8-10.7-10.4-16.1-10.4-.8 0-1.5.1-2.3.2-9.7 1.9-19.2 15.4-26.3 37.6-2.1 6.6-4.4 15.8-6 23.4-.3 1.4-.5 2.9-.8 4.4l-.1-.1c-2 11.6-3.4 24.6-4.2 38.6-1.9-.8-4.2-1-6.2-.5 1-14.1 2.6-27.5 4.7-39.6z" class="st2"/><circle cx="197.9" cy="42.3" r="13" class="st5"/><path d="M198.1 58.4c-4.3 0-8.4-1.6-11.4-4.6-3-3-4.8-7-4.9-11.3 0-4.3 1.6-8.4 4.6-11.4 3-3 7-4.8 11.3-4.9 4.3 0 8.3 1.6 11.4 4.6 3 3 4.8 7 4.9 11.3.1 7.8-5.5 14.4-12.9 15.9-1 .3-2 .4-3 .4zm-7.3-23.1c-1.8 1.9-2.8 4.4-2.8 7 0 2.6 1.1 5.2 2.9 7 1.9 1.8 4.4 2.8 7 2.8 5.5-.1 9.8-4.6 9.8-10 0-2.6-1.1-5.2-2.9-7-1.9-1.8-4.4-2.8-7-2.8-.6 0-1.3.1-1.9.2-1.9.5-3.7 1.4-5.1 2.8z" class="st5"/><circle cx="256.2" cy="233.1" r="13" class="st6"/><path d="M257.4 249.2c-8.8.7-16.6-6-17.2-14.8-.7-8.8 6-16.6 14.8-17.2 8.8-.7 16.6 6 17.2 14.8.6 8.2-5 15.4-12.9 17-.5.1-1.2.2-1.9.2zm-.3-3zm-10.8-12.3c.2 2.6 1.4 5.1 3.4 6.8 2 1.7 4.6 2.5 7.2 2.3 5.5-.4 9.5-5.2 9.1-10.6s-5.2-9.5-10.6-9.1c-.4 0-.8.1-1.2.2-4.8.9-8.3 5.4-7.9 10.4z" class="st6"/><circle cx="276.8" cy="122.8" r="18.2" class="st7"/><path d="M277.1 144c-5.7.1-11-2.1-15.1-6.1s-6.4-9.3-6.4-15c-.1-11.7 9.3-21.4 21.1-21.5 5.7-.1 11 2.1 15.1 6.1 4 3.9 6.4 9.3 6.4 15 .1 10.3-7.3 19.1-17 21.1-1.4.2-2.7.4-4.1.4zm0-3zm-10.9-28.9c-2.8 2.8-4.4 6.7-4.4 10.7 0 4 1.6 7.8 4.6 10.6 2.8 2.8 6.7 4.4 10.7 4.4s7.8-1.6 10.6-4.6c2.8-2.8 4.4-6.7 4.4-10.7 0-4-1.6-7.8-4.6-10.6-2.8-2.8-6.7-4.4-10.7-4.4-1 0-1.9.1-2.9.3-3 .7-5.6 2.2-7.7 4.3z" class="st7"/><path d="M198 146.9c13.6 19.6 20.4 40.3 20.2 61.6v1.7c-.1 1.7 0 1.4-.2 3.1-.1 1.1-.3 2.3-.4 3.3-.2 2.1-.6 3.5-.9 5.7-.1-.1.1.4 0 .3-6.1 32.3-26.4 56.1-27.2 57" class="st3"/><path fill="none" stroke="#ff6780" stroke-miterlimit="10" d="M197.3 158.8s12.8 17.7 13.5 46.8m-20.1-42.2s11 20.1 12.3 49.6m-18.6-43.7s10.1 22.5 9.9 59.2M179.2 172s5.8 14.7 3.8 32.1m-7.9-23.5s-9.5 19.6-34.6 34.2m27.4-37.8s-12.5 19.2-37.7 34.4m29.6-37.1s-14.9 19.6-47.4 37.1m41.5-41.4s-11.9 14.3-28.2 21m22.1-22.4s-21.9.2-46.1-15.9m46.2 7.9s-22.8-2.6-47.6-18.5m46.3 10s-24.2-4.7-54.2-26m55 19s-18.7-2.8-31.9-14.4"/><path d="M96.3 98.4c5.5-.6 10.4 3.3 11 8.9.6 5.5-3.3 10.4-8.9 11-5.5.6-10.4-3.3-11-8.9-.7-5.5 3.4-10.4 8.9-11zm.4 4c-3.2.3-5.6 3.2-5.3 6.6.3 3.2 3.2 5.6 6.6 5.3 3.2-.3 5.6-3.2 5.3-6.6-.5-3.3-3.4-5.7-6.6-5.3zm69 140.9c-3.2-4.5-2.1-10.7 2.3-14 4.5-3.2 10.7-2.1 14 2.3 3.2 4.5 2.1 10.7-2.3 14-4.5 3.3-10.7 2.3-14-2.3zm3.4-2.3c1.9 2.6 5.6 3.2 8.3 1.4 2.6-1.9 3.2-5.6 1.4-8.3-1.9-2.6-5.6-3.2-8.3-1.4-2.8 1.9-3.4 5.7-1.4 8.3zm-76-46.8c1.8-5.2 7.6-7.9 12.8-6.1 5.2 1.8 7.9 7.6 6.1 12.8-1.8 5.2-7.6 7.9-12.8 6.1-5.2-1.8-7.9-7.6-6.1-12.8zm3.9 1.4c-1.1 3 .5 6.5 3.6 7.6 3 1.1 6.5-.5 7.6-3.6 1.1-3-.5-6.5-3.6-7.6-3.2-1.1-6.5.5-7.6 3.6z" class="st2"/><path d="M102.5 112.7c.1 1 .7 2 1.6 2.5l47.1 26.7c1.6.9 3.6.3 4.6-1.2.9-1.6.3-3.6-1.2-4.6l-47-26.7c-1.6-.9-3.6-.3-4.6 1.2-.4.7-.6 1.4-.5 2.1zm7.2 81.1c1 .3 2.1.2 3-.4l44.4-30.8c1.5-1 1.9-3.1.8-4.7-1-1.5-3.1-1.9-4.7-.8L108.9 188c-1.5 1-1.9 3.1-.8 4.7.4.4 1 .8 1.6 1.1zm66.4 37.5c.8-.6 1.4-1.6 1.4-2.7l.2-54.1c0-1.8-1.5-3.3-3.3-3.3-1.8 0-3.3 1.5-3.3 3.3l-.2 54.1c0 1.8 1.5 3.3 3.3 3.3.7.1 1.4-.2 1.9-.6z" class="st2"/><path d="M173.2 178c-15.4-.1-27.8-12.7-27.7-28 0-7.5 3-14.5 8.3-19.6 5.3-5.3 12.4-8.1 19.7-8 7.5 0 14.5 3 19.6 8.3 5.3 5.3 8.1 12.4 8 19.7 0 7.5-3 14.5-8.3 19.6-4 3.9-9 6.6-14.5 7.6-1.5.3-3.3.5-5.1.4zm0-3zm-21.6-25c-.1 11.9 9.6 21.8 21.6 21.9 5.8 0 11.2-2.2 15.4-6.3 4.2-4 6.5-9.5 6.5-15.3s-2.2-11.2-6.3-15.4c-4-4.2-9.5-6.5-15.3-6.5-1.4 0-2.8.1-4.2.4-10 1.9-17.6 10.7-17.7 21.2z" class="st4"/><circle cx="173.4" cy="150.1" r="24.8" class="st4"/><g opacity=".59"><path d="M71.3 232.3s23.3 5.1 53.9-5.8c.2-.1.4-.2.6-.4 2.7-2 .8-7.6-2.2-6.2-16.7 8.1-69.6 9.8-52.3 12.4zm113.8-99.4c1.5 6.7 3.3 18.9 1.1 34-.4 2.6 2.8 4 4.6 2.1 4-4.4 8.5-11.3 8.3-20.9-.3-10-5.7-15.5-10-18.1-2-1.2-4.6.6-4 2.9z" class="st10"/><path fill="#fff" d="M285.8 111.5c1 4.4 2.2 12.6.7 22.6-.3 1.7 1.8 2.7 3 1.4 2.6-2.8 5.7-7.5 5.5-13.9-.2-6.7-3.7-10.2-6.6-12-1.3-.8-2.9.3-2.6 1.9zm-82-79.4c.8 3.6 1.8 10.4.6 18.7-.2 1.4 1.5 2.2 2.5 1.2 2.2-2.3 4.7-6.3 4.6-11.4-.1-5.6-3.1-8.5-5.5-10-1.1-.7-2.4.2-2.2 1.5z" opacity=".44"/><path fill="#fff" d="M262.1 223.7c.8 3.6 1.8 10.4.6 18.7-.2 1.4 1.5 2.2 2.5 1.2 2.2-2.3 4.7-6.3 4.6-11.4-.1-5.6-3.1-8.5-5.5-10-1.1-.8-2.5.2-2.2 1.5z" opacity=".43"/><path d="M57.1 95.8s5.3 23.2 27.8 46.4c.2.2.4.3.6.4h.1c2.9 1.6 7.2-2.4 4.7-4.7C76.1 126.2 52.2 79 57.1 95.8zm129.8 184.8s16.9-16.7 24.5-48.2c.1-.2.1-.5 0-.7v-.1c-.2-3.4-5.9-4.9-6.4-1.4-2.4 18.2-29.8 63.5-18.1 50.4z" class="st10"/></g></svg>