<svg xmlns="http://www.w3.org/2000/svg" viewBox="0 0 300 300"><defs><style>.cls-1{opacity:.3}.cls-2{fill:#fff}.cls-4,.cls-7{fill:#07e570;fill-rule:evenodd}.cls-7{fill:#ffdcdf}</style></defs><g id="Camada_1"><path id="Camada_10" fill="#008dd3" d="M283.5 151.5c.1 19.8-4.1 38.6-11.6 55.7-21.1 47.6-68.6 80.8-124 81-14.7.1-28.9-2.3-42.2-6.5-25-8-46.8-23-63.1-42.8-17-20.4-28.1-46-30.8-74-.4-4-.6-8.2-.6-12.3-.2-46.2 22.7-87.2 57.9-111.9 4.6-3.3 9.4-6.2 14.4-8.8 7-3.8 14.4-6.8 22-9.4 7.2-2.3 14.7-4 22.4-5.2 6.2-.8 12.5-1.3 18.9-1.4 25-.1 48.5 6.6 68.8 18.3 3.7 2.1 7.1 4.3 10.5 6.8 16.2 11.5 29.8 26.5 39.7 43.9 1.1 2 2.2 3.9 3.2 6 .8 1.8 1.7 3.5 2.5 5.3 2.6 5.8 4.8 11.7 6.6 17.8 2 6.8 3.5 13.9 4.3 21 .7 5.4 1.1 10.9 1.1 16.5z"/><path fill="#07e570" d="M247.7 115.5c0-1.5-.7-2.8-1.9-3.6L126.5 36.3c-10.8-7.9-21.5-8-29.5-3.8-3.2 1.7-6 4.1-8.1 6.9-2.1 2.8-3.6 6.1-4.3 9.7C82.8 58 86 68.3 96.7 76.4l.3.2 115.4 73.2c4.9 3.3 6.4 7.3 5.9 10.7-.2 1.3-.8 2.6-1.6 3.8-.8 1.2-1.8 2.2-3 2.9-2.8 1.9-6.6 2.2-10.1-.2h-.1L84.1 91.2c-5.9-3.9-11.6-3.6-15.9-1-1.7 1.1-3.2 2.5-4.3 4.2-1.1 1.7-1.8 3.6-2 5.7-.5 5.1 1.8 10.8 8.3 14.9s89.5 56.8 89.5 56.8c8.1 5.1 10.9 12.1 10.1 18.2-.3 2.4-1.2 4.7-2.5 6.7s-3 3.8-5.1 5.1c-5.5 3.5-13.5 3.9-22.2-1.6l-34.6-22c-15.8-10.9-31.2-10.1-42.5-3.2-4.5 2.8-8.4 6.5-11.3 10.8-3 4.3-5 9.3-6 14.6-2.5 13.7 2.3 29.2 18.5 40.3h.1l67.6 43c1.9 1.2 4.4.6 5.6-1.3 1.2-1.9.6-4.4-1.3-5.6L68.6 234c-13-9-17-21.3-15-32 .8-4.1 2.4-8 4.7-11.5 2.3-3.4 5.3-6.3 8.8-8.4 8.8-5.4 21-5.8 33.7 3h.1l34.6 22c11.8 7.5 23 6.6 30.9 1.6 3.1-2 5.7-4.6 7.6-7.6 1.9-3 3.2-6.4 3.7-10 1.2-9-2.6-19-13.8-26.1s-89.5-56.8-89.5-56.8c-3.6-2.3-4.8-4.9-4.6-7.2 0-.8.3-1.5.7-2.2.4-.6 1-1.2 1.6-1.6 1.7-1 4.3-1 7.1.8s119.3 75.7 119.3 75.7c6.6 4.5 13.8 3.8 19.2.3 2.1-1.4 3.9-3.1 5.3-5.2s2.4-4.4 2.8-7c1.1-6.4-1.3-13.5-9.5-19L101 69.6c-7.7-5.9-10-13-8.8-19.1.5-2.3 1.5-4.5 2.9-6.4 1.4-1.9 3.2-3.4 5.3-4.5 5.5-2.9 13-2.6 20.9 3.2l.2.2L241 118.8c2.7 1.7 6.1-.1 6.3-3.3z"/><path fill="#ffbe00" fill-rule="evenodd" d="M289.4 66l-23.3-13.1-23.3-13.1-105.8 188 1.7 36.7c.3 6.2 7 10 12.5 7l32.3-17.5L289.3 66z"/><path d="M137 227.9l1.6 34.6c.3 7.2 8.1 11.6 14.5 8.1l30.4-16.5-46.5-26.2z" class="cls-7"/><path d="M138.2 253l.8 17.8c.2 3.4 3.8 5.4 6.7 3.8l15.7-8.5-23.3-13.1z" class="cls-4"/><path d="M265.8 26.2c14.8-.2 26.9 11.7 27 26.4.2 14.8-11.7 26.9-26.4 27-14.8.2-26.9-11.7-27-26.4-.2-14.8 11.7-26.9 26.4-27z" class="cls-7"/><path d="M266 42.6c5.7 0 10.4 4.5 10.5 10.3 0 5.7-4.5 10.4-10.3 10.5-5.7 0-10.4-4.5-10.5-10.3 0-5.7 4.5-10.4 10.3-10.5z" class="cls-4"/><path fill="none" stroke="#998014" stroke-linecap="round" stroke-linejoin="round" d="M148.2 231.6l93.3-163.1m-80.9 168.3l91.1-157.9m-79.2 164.4l92.5-161"/><g class="cls-1"><path d="M276.1 32.9c7.1 2.6 13.1 9 13.7 16.8.4 7.1-1.1 15.1-7.2 19.5-1.9 1.5-4.8-.4-4.1-2.8.8-2.8 1.7-5.1 1.8-7.9.1-2.2 0-5.9.1-8.2-.1-4.6-4-9.5-6.9-13.1-1.9-2 0-5.1 2.6-4.3z" class="cls-2"/></g><g class="cls-1"><path d="M270.6 46.5c3.4 1.5 5 5.9 3.5 9.2-.7 1.6-2.7 4.2-4.3 2.3-.7-1 .2-2.6.1-3.6.3-2.2-.8-4.1-1.4-6.1-.4-1.2 1-2.3 2.1-1.8z" class="cls-2"/></g></g></svg>