<?xml version="1.0" encoding="utf-8"?>
<!-- Generator: Adobe Illustrator 27.7.0, SVG Export Plug-In . SVG Version: 6.00 Build 0)  -->
<svg version="1.1" id="Layer_1" xmlns="http://www.w3.org/2000/svg" xmlns:xlink="http://www.w3.org/1999/xlink" x="0px" y="0px"
	 viewBox="0 0 50 50" style="enable-background:new 0 0 50 50;" xml:space="preserve">
<style type="text/css">
	.st0{fill:none;stroke:#444444;stroke-linecap:round;stroke-linejoin:round;stroke-miterlimit:10;}
	.st1{fill:#F9F941;}
	.st2{fill:none;stroke:#444444;stroke-width:0.5;stroke-linecap:round;stroke-linejoin:round;stroke-miterlimit:10;}
	.st3{fill:none;stroke:#444444;stroke-width:2.5;stroke-linecap:round;stroke-linejoin:round;stroke-miterlimit:10;}
</style>
<g>
	<path class="st0" d="M-21.4,38.3"/>
</g>
<path class="st0" d="M-20.8,41.4"/>
<g>
	<g>
		<path class="st1" d="M45.3,12.2c-0.2-1.1-4.4-0.4-7.7,0c-0.1,0-1.9-3.8-4-5.9c-4.2-4.3-13.4-3.1-14.4-2.3l-6.7,7.8
			c-1.5,0-10.1-2.4-8.3,5.1l-2.3,0.7c-0.1,0.2,0,4.8,0,5L1.3,32.8l1.3,12.3l12.9,0.6L49,33.8V18.6v-0.2v0c0-1.3-1.5-1.9-2.9-2
			C46,16.3,45.5,13.2,45.3,12.2z"/>
		<path class="st0" d="M25.2,42.3L6.7,40.5c-1.1-0.1-1.9-1-1.9-2.1V14.6c0-1.2,1.1-2.2,2.3-2.1l10.9,1.1"/>
		<line class="st2" x1="25.2" y1="28.3" x2="25.2" y2="41.8"/>
		<path class="st0" d="M25.2,42.3l18.4-1.9c1.1-0.1,1.9-1,1.9-2.1V14.6c0-1.2-1.1-2.2-2.3-2.1l-10.4,1.1"/>
		<path class="st3" d="M48.5,37.5V19.6c0-1.6-0.7-2.9-2.3-2.9l0-2.5c0-1.6-1.4-2.9-3-2.7l-5.3,0.7l0,0C36.3,7,31,2.8,25.2,2.8
			c-5.8,0-11.1,4.3-12.6,9.5l0,0l-5.6-0.5c-1.7-0.2-3.2,1.2-3.2,2.9v1.8c-1.6,0-2.3,1.6-2.3,3.1v22.7c0,1.6,1.3,2.9,2.9,2.9h34"/>
		<g>
			<path class="st2" d="M13.3,31L13.3,31c-0.7,0-1.3-0.6-1.3-1.3v-1c0-0.7,0.6-1.3,1.3-1.3h0c0.7,0,1.3,0.6,1.3,1.3v1
				C14.6,30.4,14,31,13.3,31z"/>
			<path class="st2" d="M20.3,31L20.3,31c-0.7,0-1.3-0.6-1.3-1.3v-1c0-0.7,0.6-1.3,1.3-1.3h0c0.7,0,1.3,0.6,1.3,1.3v1
				C21.6,30.4,21,31,20.3,31z"/>
			<line class="st2" x1="16.1" y1="27.4" x2="16.1" y2="30.9"/>
			<path class="st2" d="M10.2,36L10.2,36c-0.7,0-1.3-0.6-1.3-1.3v-1c0-0.7,0.6-1.3,1.3-1.3h0c0.7,0,1.3,0.6,1.3,1.3v1
				C11.5,35.5,10.9,36,10.2,36z"/>
			<path class="st2" d="M15.8,36L15.8,36c-0.7,0-1.3-0.6-1.3-1.3v-1c0-0.7,0.6-1.3,1.3-1.3h0c0.7,0,1.3,0.6,1.3,1.3v1
				C17.1,35.5,16.5,36,15.8,36z"/>
			<path class="st2" d="M19.8,36L19.8,36c-0.7,0-1.3-0.6-1.3-1.3v-1c0-0.7,0.6-1.3,1.3-1.3h0c0.7,0,1.3,0.6,1.3,1.3v1
				C21.1,35.5,20.5,36,19.8,36z"/>
			<line class="st2" x1="13" y1="32.5" x2="13" y2="36"/>
			<line class="st2" x1="10.4" y1="27.4" x2="10.4" y2="30.9"/>
			<line class="st2" x1="8.9" y1="27.4" x2="8.9" y2="30.9"/>
			<line class="st2" x1="17.4" y1="27.4" x2="17.4" y2="30.9"/>
		</g>
		<g>
			<path class="st2" d="M37.1,31L37.1,31c0.7,0,1.3-0.6,1.3-1.3v-1c0-0.7-0.6-1.3-1.3-1.3h0c-0.7,0-1.3,0.6-1.3,1.3v1
				C35.8,30.4,36.4,31,37.1,31z"/>
			<path class="st2" d="M30,31L30,31c0.7,0,1.3-0.6,1.3-1.3v-1c0-0.7-0.6-1.3-1.3-1.3h0c-0.7,0-1.3,0.6-1.3,1.3v1
				C28.8,30.4,29.3,31,30,31z"/>
			<line class="st2" x1="34.2" y1="27.4" x2="34.2" y2="30.9"/>
			<path class="st2" d="M40.2,36L40.2,36c0.7,0,1.3-0.6,1.3-1.3v-1c0-0.7-0.6-1.3-1.3-1.3h0c-0.7,0-1.3,0.6-1.3,1.3v1
				C38.9,35.5,39.5,36,40.2,36z"/>
			<path class="st2" d="M34.6,36L34.6,36c0.7,0,1.3-0.6,1.3-1.3v-1c0-0.7-0.6-1.3-1.3-1.3l0,0c-0.7,0-1.3,0.6-1.3,1.3v1
				C33.3,35.5,33.9,36,34.6,36z"/>
			<path class="st2" d="M30.5,36L30.5,36c0.7,0,1.3-0.6,1.3-1.3v-1c0-0.7-0.6-1.3-1.3-1.3h0c-0.7,0-1.3,0.6-1.3,1.3v1
				C29.2,35.5,29.8,36,30.5,36z"/>
			<line class="st2" x1="37.4" y1="32.5" x2="37.4" y2="36"/>
			<line class="st2" x1="40" y1="27.4" x2="40" y2="30.9"/>
			<line class="st2" x1="41.5" y1="27.4" x2="41.5" y2="30.9"/>
			<line class="st2" x1="32.9" y1="27.4" x2="32.9" y2="30.9"/>
		</g>
	</g>
	<g>
		<circle class="st0" cx="25.4" cy="15.5" r="4.4"/>
		<path class="st0" d="M35.3,16.9v-2.7l-2.9-0.2c-0.2-0.8-0.5-1.6-0.9-2.3l1.9-2.2l-1.9-1.9l-2.2,1.9C28.6,9,27.8,8.6,27,8.5
			l-0.2-2.9h-2.7l-0.2,2.9C23,8.6,22.3,9,21.6,9.4l-2.2-1.9l-1.9,1.9l1.9,2.2c-0.4,0.7-0.8,1.5-0.9,2.3l-2.9,0.2v2.7l2.9,0.2
			c0.2,0.8,0.5,1.6,0.9,2.3l-1.9,2.2l1.9,1.9l2.2-1.9c0.7,0.4,1.5,0.8,2.3,0.9l0.2,2.9h2.7l0.2-2.9c0.8-0.2,1.6-0.5,2.3-0.9l2.2,1.9
			l1.9-1.9l-1.9-2.2c0.4-0.7,0.8-1.5,0.9-2.3L35.3,16.9z"/>
	</g>
	<line class="st2" x1="9.1" y1="18.8" x2="14.6" y2="19.7"/>
	<line class="st2" x1="9" y1="21.3" x2="14.5" y2="22.2"/>
	<line class="st2" x1="9" y1="23.6" x2="17" y2="24.9"/>
	<line class="st2" x1="41.3" y1="18.8" x2="35.8" y2="19.7"/>
	<line class="st2" x1="41.4" y1="21.3" x2="35.9" y2="22.2"/>
	<line class="st2" x1="41.4" y1="23.6" x2="33.4" y2="24.9"/>
</g>
</svg>
