<svg xmlns="http://www.w3.org/2000/svg" id="Camada_3" x="0" y="0" version="1.1" viewBox="0 0 50 50" xml:space="preserve"><style>.st3{fill:#444}.st4,.st5{fill:#444;stroke:#444;stroke-width:.25;stroke-miterlimit:10}.st5{stroke-width:2.5}</style><path fill="#00c8e2" d="M15.76 18.62l1.91.03-.01-.03z"/><path fill="#71bac0" d="M33.58 25.18l2.97.81-4.72-1.87-7.45-4.54c-.25-1.49-.63-2.82-1.36-2.55l.56-3.05-9.04 3.28 3.57 1.42-.44-.01.63 4.21c.08 1.58-6.69 10.16-5.2 9.62l2.04 9.23 23.56-8.57-5.12-7.98z"/><path fill="#7ed0d6" d="M29.08 3.37l-.19 4.06c.75.02-4.08 1.67-3.65 2.29l-2.2 2.1c.88 1.27 1.46 1.63 0 2.15l-.02.65-7.35 2.63-2.24-5.39c-1.59.57 2.68-1.97 2.79-3.66l4.25-.04c.04-.58 4.35-5.54 4.77-5.95"/><path d="M26.51 1.1a4.178 4.178 0 00-3.47 6.51l1.79-1.78c-.06-.18-.09-.36-.09-.55 0-.97.79-1.76 1.76-1.76s1.76.79 1.76 1.76-.79 1.76-1.76 1.76c-.19 0-.37-.03-.55-.09l-1.78 1.78c1.91 1.3 4.51.8 5.8-1.11s.8-4.51-1.11-5.8a4.07 4.07 0 00-2.35-.72zm-1.67 12.17c0-1.41-.45-2.79-1.3-3.91l-2.32 2.31a3.34 3.34 0 01-.63 4.01l1.26 3.08a6.515 6.515 0 002.99-5.49z" class="st3"/><path d="M18.37 16.59h-.06c-1.84 0-3.32-1.49-3.32-3.32s1.49-3.32 3.32-3.32c.65 0 1.28.19 1.83.55l2.29-2.29c-2.8-2.27-6.92-1.84-9.19.96s-1.84 6.92.96 9.19c1.16.94 2.61 1.46 4.11 1.46.44 0 .89-.04 1.32-.13l-1.26-3.1zm18.22 17.48c0 1.51-.35 2.93-.95 4.21-.5.77.07 1.27.07 1.27l.86.68c.16.13.35.34.54.45.01.01.02.01.03.02.12.09.24.18.35.27.23.18.47.36.71.54.73.56 1.31-.14 1.52-.55 2.12-4.04 2.37-8.99.21-13.4a14.83 14.83 0 00-13.31-8.3h-.01c-1.45 0-2.89.21-4.28.63l1.84 4.48c.8-.2 1.62-.3 2.44-.3 5.51 0 9.98 4.48 9.98 10zm-4.61 9.56l.76.97c.18.24.37.47.55.71.06.08.13.16.19.24.01.01.11.14.18.23.24.31.59 1.01-.52 1.61-7.35 3.6-16.23.56-19.83-6.79-3.6-7.35-.56-16.23 6.79-19.83l1.82 4.47c-.88.47-1.68 1.06-2.38 1.76-2.7 2.7-3.7 6.8-2.29 10.6 1.29 3.5 4.55 6.01 8.27 6.41 1.84.2 3.6-.11 5.15-.8-.03 0 .76-.28 1.31.42zM23.04 7.61l-.61.59" class="st3"/><path d="M24.31 8.78l-.57.57-.16.16" class="st4"/><path d="M26.92 7.92l-4.66 4.68" class="st5"/><path d="M23.02 7.44l-.58.55-.16.16" class="st4"/><path d="M23.84 4.85l-4.67 4.57" class="st5"/><path d="M21.94 18.62l.52 1.26" class="st4"/><path d="M22.15 15.94L24.79 22" class="st5"/><path d="M19.48 19.65l.3.74.2.47" class="st4"/><path d="M17.38 17.94l2.52 6.03" class="st5"/></svg>