<svg xmlns="http://www.w3.org/2000/svg" version="1" viewBox="0 0 50 50"><path fill="#DC5E82" d="M16.852 40.704L41.315 31.8c2.681-6.423 1.434-14.094-3.794-19.322-6.915-6.916-18.128-6.916-25.043 0-6.916 6.915-6.916 18.128 0 25.043a17.533 17.533 0 004.374 3.183z"/><path fill="#F56991" d="M33.54 9.563C26.794 5.78 18.105 6.74 12.368 12.478a17.606 17.606 0 00-4.03 6.258L33.54 9.563z"/><path fill="#031326" d="M25 43.958a18.83 18.83 0 01-13.405-5.553A18.83 18.83 0 016.042 25a18.83 18.83 0 015.553-13.405A18.83 18.83 0 0125 6.042a18.83 18.83 0 0113.405 5.553 18.934 18.934 0 014.165 20.539 1.25 1.25 0 01-2.316-.94 16.44 16.44 0 00-3.616-17.832A16.35 16.35 0 0025 8.542a16.354 16.354 0 00-11.638 4.82A16.354 16.354 0 008.542 25c0 4.396 1.712 8.529 4.82 11.638s7.241 4.82 11.638 4.82a1.25 1.25 0 010 2.5z"/><circle cx="32.237" cy="17.763" r="2.666" fill="#031326"/><path fill="#031326" d="M43.336 10.441a2.665 2.665 0 00-3.771-3.763C30.381-.632 16.936-.052 8.443 8.442c-9.13 9.13-9.13 23.986 0 33.116C12.865 45.98 18.745 48.417 25 48.417s12.135-2.437 16.558-6.859S48.417 31.255 48.417 25a23.231 23.231 0 00-5.081-14.559zm-2.132 30.763C36.876 45.533 31.121 47.917 25 47.917s-11.876-2.384-16.205-6.713c-8.935-8.935-8.935-23.473 0-32.409C13.264 4.328 19.131 2.094 25 2.094a22.867 22.867 0 0114.245 4.968 2.664 2.664 0 00.303 3.399 2.664 2.664 0 003.398.305 22.734 22.734 0 014.971 14.233 22.764 22.764 0 01-6.713 16.205z"/></svg>