<?xml version="1.0" encoding="utf-8"?>
<!-- Generator: Adobe Illustrator 24.0.1, SVG Export Plug-In . SVG Version: 6.00 Build 0)  -->
<svg version="1.1" id="Layer_1" xmlns="http://www.w3.org/2000/svg" xmlns:xlink="http://www.w3.org/1999/xlink" x="0px" y="0px"
	 viewBox="0 0 50 50" style="enable-background:new 0 0 50 50;" xml:space="preserve">
<style type="text/css">
	.st0{fill:#A475EF;}
	.st1{fill:#BF94F7;}
	.st2{fill:#444444;}
</style>
<g>
	<path class="st0" d="M48.5,22.8l-2.1,0.8l0,0l-0.3,0.1l-15.6,5.7h-0.1l-5.5,2l-8,3h-0.1l-2.5,0.9l0,0l-2.5,0.9l-0.3,0.1l-0.4,0.1
		l0,0L9.3,37c-0.2,0-0.4,0-0.7-0.1c-0.2,0-0.3-0.1-0.5-0.1c-1.8-0.4-3.4-1.2-4.7-2.4c0,0,0,0,0-0.1c-0.5-0.5-0.9-1-1.3-1.6
		c-1.3-1.9-1.8-4.1-1.6-6.4c0-0.4,0.1-0.7,0.1-1c0-0.1,0-0.1,0-0.2c0-0.2,0.1-0.3,0.1-0.4s0-0.1,0.1-0.2h0.1l2.6-0.9l0.3-0.1
		l0.4-0.2l26.6-9.7l0.5-0.2l0.2-0.1l2.8-1h0.1c0.1,0.1,0.3,0.2,0.4,0.3c0.1,0,0.1,0.1,0.2,0.1l0,0c0.9,0.7,1.7,1.5,2.4,2.6
		c0.1,0.2,0.2,0.3,0.3,0.5l0,0c0.1,0.1,0.6,0.7,0.7,0.9c0.1,0.2,0.5,0.5,0.8,0.5h0.2C43.3,17.1,46.9,19.3,48.5,22.8z"/>
	<path class="st1" d="M35,12.7l-2.6,1l-0.2,0.1l-0.4,0.1L3.9,24l-0.4,0.1l-0.3,0.1l-2.5,0.9c0-0.2,0.1-0.3,0.1-0.4s0-0.1,0.1-0.2
		l0,0c0.5-1.8,1.4-3.4,2.9-4.7c1.3-1.2,2.8-2,4.5-2.4C8.7,17.3,9,17,9,16.5c0.3-3.9,2.1-6.8,5.5-8.5c1.6-0.8,3.1-1.2,4.7-1.2
		c1.9,0,3.7,0.6,5.6,1.7c0.1,0.1,0.3,0.2,0.4,0.3c0.5,0.4,0.9,0.8,1.3,1.2c0.1,0.2,0.3,0.3,0.5,0.4l0,0c0.3,0.3,0.5,0.4,0.9,0.4
		c0.1,0,0.1,0,0.2,0h1.1c0.9,0,1.8,0.1,2.6,0.4c0.9,0.3,1.7,0.6,2.5,1c0.1,0,0.2,0.1,0.3,0.2c0.1,0,0.1,0.1,0.2,0.1
		C34.9,12.5,34.9,12.6,35,12.7C35,12.6,35,12.6,35,12.7z"/>
	<g>
		<path class="st2" d="M48.1,32.6c-1.6,2.5-3.9,4.1-7,4.6c0,0-0.5,0.1-0.7,0.1s-0.4-0.1-0.6-0.2c-0.5-0.3-0.7-0.8-0.6-1.4
			c0.1-0.5,0.6-0.8,1.2-0.9c2.5-0.3,4.4-1.5,5.7-3.7c1.4-2.3,1.5-5.2,0.3-7.6c0,0,0-0.1-0.1-0.1c-0.5-0.9-1.2-1.8-2.1-2.4
			c-1.4-1.1-3-1.7-4.7-1.7c-0.9,0-1.7,0.2-2.6,0.4c-0.4-2.6-2.1-5-4.5-6.1c-0.1,0-0.8-0.3-1-0.4c0,0-1.4-0.3-2.4-0.2
			s-1.9,0.2-2.9,0.5c-1.1-2.3-3-3.7-5.4-4.3c-0.4-0.1-1-0.2-1.6-0.2c-1.3,0-2.6,0.3-3.8,1c-2.8,1.6-5,5.3-3.6,9.4
			c-0.4-0.1-0.8-0.1-1.2-0.1c-2.2,0-4.3,1-5.8,2.6c-0.2,0.3-0.5,0.6-0.8,1c-0.1,0.1-0.6,0.9-0.6,1s-0.1,0.2-0.1,0.3
			c-0.5,1.2-0.6,2.5-0.5,3.7c0.4,3.1,2.2,5.3,5.2,6.4c0.7,0.3,1.4,0.3,2.1,0.4c0.7,0.1,1.2,0.5,1.2,1.2V36c0,0.2,0,0.3-0.1,0.4l0,0
			c-0.2,0.4-0.6,0.7-1,0.7H10c-0.2,0-0.4,0-0.7,0C9.1,37,8.9,37,8.6,36.9c-0.2,0-0.3-0.1-0.5-0.1c-1.8-0.4-3.4-1.2-4.7-2.4
			c0,0,0,0,0-0.1c-0.6-0.5-1.1-1.2-1.5-1.9c-1.3-1.9-1.8-4.1-1.6-6.4c0-0.4,0.2-1.7,0.3-1.8c0.5-1.8,1.4-3.4,2.9-4.7
			c1.3-1.2,2.8-2,4.5-2.4c0.4-0.1,0.7-0.4,0.7-0.9c0.3-3.9,2.1-6.8,5.5-8.5c1.6-0.8,3.1-1.2,4.7-1.2c1.9,0,3.7,0.6,5.6,1.7
			c0.3,0.2,0.5,0.4,0.8,0.6c0.5,0.4,0.9,0.8,1.3,1.2c0.1,0.2,0.3,0.3,0.5,0.4l0,0c0.2,0.1,0.3,0.1,0.5,0.1c0.1,0,0.1,0,0.2,0h1.1
			c0.9,0,1.8,0.1,2.6,0.4c1,0.3,1.9,0.7,2.8,1.2c0.1,0,0.8,0.5,0.8,0.5c0.9,0.7,1.7,1.5,2.4,2.6c0.1,0.2,0.9,1.2,1,1.4
			c0.1,0.2,0.5,0.5,0.8,0.5h0.2c3.9,0,7.5,2.2,9.1,5.6c0,0,0,0,0,0.1c0.1,0.2,0.2,0.5,0.4,0.9C50.1,26.8,49.8,29.8,48.1,32.6z"/>
	</g>
	<path class="st2" d="M35.2,32.6c-1.1-1.8-2.7-2.9-4.6-3.2c-0.1,0-0.2,0-0.2,0c-0.3,0-0.7,0-1.1,0h-8.1c-1.8,0-3.5,0.7-4.8,2
		c-1.2,1.1-1.9,2.5-2.1,4v0.1c-0.3,1.8,0.2,3.6,1.4,5.2c1.3,1.7,3,2.7,5.2,2.8c1.4,0.1,2.9,0,4.3,0h4c1.9,0,3.6-0.7,4.9-2
		C36.5,38.9,36.9,35.4,35.2,32.6z M32.2,40c-0.9,0.7-1.9,1-3,1h-7.9c-2.8,0-5-2.4-4.8-5.2c0-0.5,0.2-1,0.4-1.4c0,0,0,0,0-0.1
		c0.7-1.6,2.2-2.8,4.2-2.9H29c1.6,0,3,0.5,4,1.8C34.6,35.2,34.3,38.3,32.2,40z"/>
</g>
</svg>
