<?xml version="1.0" encoding="utf-8"?>
<!-- Generator: Adobe Illustrator 24.1.2, SVG Export Plug-In . SVG Version: 6.00 Build 0)  -->
<svg version="1.1" xmlns="http://www.w3.org/2000/svg" xmlns:xlink="http://www.w3.org/1999/xlink" x="0px" y="0px"
	 viewBox="0 0 50 50" style="enable-background:new 0 0 50 50;" xml:space="preserve">
<style type="text/css">
	.st0{fill:#46B8B0;}
	.st1{fill:#4ECDC4;}
	.st2{fill:#444444;}
	.st3{fill:#444545;}
</style>
<g id="Layer_2">
	<g>
		<g>
			<g>
				<g>
					<path class="st0" d="M6.62,38.24l2.16,0.91l37.9-13.71l-1.02-9.74c0-1.63-0.87-3.13-2.28-3.95l-16.1-9.3
						c-1.41-0.81-3.15-0.81-4.56,0l-16.1,9.29c-1.41,0.81-2.28,2.32-2.28,3.95V34.3C4.34,35.92,5.21,37.43,6.62,38.24z"/>
				</g>
			</g>
			<g>
				<g>
					<path class="st1" d="M35.93,7.45l-8.65-4.99c-1.41-0.81-3.15-0.81-4.56,0l-16.1,9.29c-1.41,0.81-2.28,2.32-2.28,3.95v3.25
						L35.93,7.45z"/>
				</g>
			</g>
			<g>
				<g>
					<path class="st2" d="M25,49.37c-1,0-2-0.26-2.89-0.77L6.01,39.3c-1.78-1.03-2.89-2.95-2.89-5.01V15.71
						c0-2.06,1.11-3.98,2.89-5.01l16.1-9.29c1.78-1.03,4-1.03,5.78,0l16.1,9.29c1.78,1.03,2.89,2.95,2.89,5.01v13.64
						c0,0.68-0.55,1.22-1.22,1.22c-0.68,0-1.22-0.55-1.22-1.22V15.71c0-1.19-0.64-2.3-1.67-2.89l-16.1-9.29
						c-1.03-0.59-2.31-0.59-3.34,0l-16.1,9.29c-1.03,0.59-1.67,1.7-1.67,2.89v18.59c0,1.19,0.64,2.3,1.67,2.89l16.1,9.29
						c1.03,0.6,2.31,0.59,3.34,0l4.45-2.57c0.58-0.34,1.33-0.14,1.67,0.45c0.34,0.58,0.14,1.33-0.45,1.67l-4.45,2.57
						C27,49.11,26,49.37,25,49.37z"/>
				</g>
			</g>
		</g>
		<g>
			<g>
				<path class="st2" d="M16.09,26.95c-0.12,0-0.23-0.03-0.34-0.08c-0.37-0.19-0.51-0.64-0.33-1.01c1.21-2.36,3.32-4.25,5.8-5.18
					c0.39-0.15,0.82,0.05,0.97,0.44c0.15,0.39-0.05,0.82-0.44,0.97c-2.13,0.8-3.95,2.43-4.99,4.46
					C16.62,26.8,16.36,26.95,16.09,26.95z"/>
			</g>
			<g>
				<path class="st2" d="M33.91,26.95c-0.27,0-0.53-0.15-0.67-0.41c-1.66-3.24-5.1-5.21-8.74-5.04c-0.4,0.02-0.77-0.3-0.79-0.71
					c-0.02-0.41,0.3-0.77,0.71-0.79c4.24-0.21,8.21,2.09,10.15,5.85c0.19,0.37,0.04,0.82-0.32,1.01
					C34.15,26.92,34.03,26.95,33.91,26.95z"/>
			</g>
			<g>
				<path class="st2" d="M25.23,31.66c-1.52,0-2.94-0.94-3.48-2.45c-0.56-1.57-0.48-9.45-0.46-11.02c0-0.32,0.21-0.6,0.52-0.7
					c0.3-0.1,0.64,0.01,0.83,0.27c0.56,0.75,5.49,7.41,6.05,8.99c0.33,0.93,0.28,1.93-0.15,2.82c-0.42,0.89-1.17,1.56-2.1,1.89
					C26.05,31.59,25.63,31.66,25.23,31.66z M22.78,20.47c0,3.38,0.09,7.41,0.39,8.23c0.4,1.14,1.65,1.73,2.79,1.33
					c0.55-0.19,0.99-0.59,1.24-1.12s0.28-1.12,0.09-1.67C26.99,26.42,24.73,23.16,22.78,20.47z"/>
			</g>
		</g>
		<g>
			<g>
				<path class="st2" d="M38.21,18.33c-0.14,0-0.28-0.06-0.38-0.17l-1.86-2.1c-0.08-0.09-0.13-0.21-0.13-0.33l0.01-8.3
					c0-0.28,0.22-0.5,0.5-0.5h0c0.28,0,0.5,0.22,0.5,0.5l-0.01,8.11l1.73,1.96c0.18,0.21,0.16,0.52-0.04,0.71
					C38.44,18.29,38.32,18.33,38.21,18.33z"/>
			</g>
			<g>
				<path class="st2" d="M32.72,13.15c-0.28,0-0.5-0.22-0.5-0.5V5.43c0-0.28,0.22-0.5,0.5-0.5s0.5,0.22,0.5,0.5v7.22
					C33.22,12.93,33,13.15,32.72,13.15z"/>
			</g>
			<g>
				<path class="st2" d="M27.33,13.8c-0.13,0-0.27-0.05-0.37-0.16c-0.19-0.2-0.17-0.52,0.03-0.71l1.61-1.48v-8.2
					c0-0.28,0.22-0.5,0.5-0.5s0.5,0.22,0.5,0.5v8.42c0,0.14-0.06,0.27-0.16,0.37l-1.77,1.63C27.57,13.76,27.45,13.8,27.33,13.8z"/>
			</g>
			<g>
				<circle class="st3" cx="38.21" cy="17.83" r="1.32"/>
			</g>
			<g>
				<circle class="st3" cx="32.72" cy="12.65" r="1.32"/>
			</g>
			<g>
				<circle class="st3" cx="27.33" cy="13.3" r="1.32"/>
			</g>
		</g>
		<g>
			<g>
				<path class="st2" d="M17.08,43.83c-0.28,0-0.5-0.22-0.5-0.5v-8.76c0-0.28,0.22-0.5,0.5-0.5s0.5,0.22,0.5,0.5v8.76
					C17.58,43.6,17.36,43.83,17.08,43.83z"/>
			</g>
			<g>
				<path class="st2" d="M13.93,42.14c-0.28,0-0.5-0.22-0.5-0.5v-3.54l-1.02-1.36c-0.06-0.09-0.1-0.19-0.1-0.3v-4.06
					c0-0.28,0.22-0.5,0.5-0.5s0.5,0.22,0.5,0.5v3.9l1.02,1.36c0.06,0.09,0.1,0.19,0.1,0.3v3.71C14.43,41.91,14.21,42.14,13.93,42.14
					z"/>
			</g>
			<g>
				<circle class="st3" cx="12.81" cy="32.37" r="1.32"/>
			</g>
			<g>
				<circle class="st3" cx="17.16" cy="34.27" r="1.32"/>
			</g>
			<g>
				<path class="st2" d="M20.24,46.6c-0.28,0-0.5-0.22-0.5-0.5l-0.01-6.07c0-0.13,0.05-0.26,0.15-0.35l1.86-1.86
					c0.2-0.2,0.51-0.2,0.71,0s0.2,0.51,0,0.71l-1.71,1.71l0.01,5.86C20.75,46.37,20.52,46.6,20.24,46.6L20.24,46.6z"/>
			</g>
			<g>
				<circle class="st3" cx="22.09" cy="38.17" r="1.32"/>
			</g>
		</g>
	</g>
</g>
<g id="Layer_1">
</g>
</svg>
