<?xml version="1.0" encoding="utf-8"?>
<!-- Generator: Adobe Illustrator 22.0.1, SVG Export Plug-In . SVG Version: 6.00 Build 0)  -->
<svg version="1.1" id="Layer_1" xmlns="http://www.w3.org/2000/svg" xmlns:xlink="http://www.w3.org/1999/xlink" x="0px" y="0px"
	 viewBox="0 0 50 50" style="enable-background:new 0 0 50 50;" xml:space="preserve">
<style type="text/css">
	.st0{fill:#E56060;}
	.st1{fill:#FF6B6B;}
	.st2{fill:#444444;}
</style>
<g>
	<polygon class="st0" points="44.3,23.1 43.1,20.3 44.3,14.3 43.2,8.4 5.4,22.2 7.9,35.4 	"/>
	<polyline class="st1" points="43.7,8.9 43.7,8.9 29.5,1.6 25,4 22.3,1.6 17.1,2.9 7.9,8 5.4,13.4 7.9,20.3 4.9,23 	"/>
	<g>
		<path class="st2" d="M43.9,20.1c1.3-1.8,2-3.8,2-6c0-5.4-4.3-9.9-9.7-10.2c-1.1-2.2-3.3-3.6-5.8-3.6c-2.2,0-4.1,1.1-5.3,2.7
			c-1.2-1.7-3.1-2.7-5.3-2.7c-2.5,0-4.7,1.4-5.8,3.6C8.4,4.2,4.1,8.7,4.1,14.1c0,2.1,0.7,4.2,2,6c-1.3,1.2-2,2.9-2,4.7
			c0,1.8,0.8,3.6,2.1,4.8C6,30.4,5.9,31.2,5.9,32c0,5.6,4.6,10.2,10.2,10.2c0.9,0,1.8-0.1,2.7-0.4c-0.1,0.5-0.2,0.9-0.2,1.4
			c0,3.5,2.9,6.4,6.4,6.4s6.4-2.9,6.4-6.4c0-0.5-0.1-1-0.2-1.4c0.9,0.2,1.7,0.4,2.7,0.4c5.6,0,10.2-4.6,10.2-10.2
			c0-0.8-0.1-1.5-0.3-2.3c1.3-1.3,2.1-3,2.1-4.8C45.9,23,45.1,21.3,43.9,20.1z M22,25.3h-1.5v-1.8H22c0.1-0.2,0.1-0.4,0.2-0.6l-1-1
			l1.3-1.3l1,1c0.2-0.1,0.4-0.2,0.6-0.2v-1.5h1.8v1.5c0.2,0.1,0.4,0.1,0.6,0.2l1-1l1.3,1.3l-1,1c0.1,0.2,0.2,0.4,0.2,0.6h1.5v1.8H28
			c-0.1,0.2-0.1,0.4-0.2,0.6l1,1l-1.3,1.3l-1-1c-0.2,0.1-0.4,0.2-0.6,0.2v1.5h-1.8v-1.5c-0.2-0.1-0.4-0.1-0.6-0.2l-1,1l-1.3-1.3l1-1
			C22.2,25.7,22.1,25.5,22,25.3z M24.5,38.4h1.1V40h-1.1V38.4z M21.8,43.7h-1.6v-1.1h1.6V43.7z M22.4,41.3l-0.8-0.8
			c0.3-0.2,0.6-0.4,0.9-0.6l0.7,0.7L22.4,41.3z M29.8,43.7h-1.6v-1.1h1.6V43.7z M26.4,42.5c0.1,0.2,0.2,0.4,0.2,0.7
			c0,0.9-0.7,1.6-1.6,1.6c-0.9,0-1.6-0.7-1.6-1.6c0-0.9,0.7-1.6,1.6-1.6c0.2,0,0.5,0.1,0.7,0.2l1.9-1.9c0.3,0.2,0.6,0.4,0.9,0.6
			L26.4,42.5z M41.6,28.2c-0.4,0.3-0.6,0.9-0.5,1.4c0.3,0.9,0.4,1.6,0.4,2.4c0,4.2-3.4,7.7-7.7,7.7c-4.2,0-7.5-3.3-7.7-7.5
			c3.8-0.6,6.6-3.8,6.6-7.8c0-4.4-3.5-7.9-7.9-7.9c-4.4,0-7.9,3.5-7.9,7.9c0,3.9,2.9,7.2,6.6,7.8c-0.1,4.1-3.5,7.5-7.7,7.5
			c-4.2,0-7.7-3.4-7.7-7.7c0-0.8,0.1-1.5,0.4-2.4c0.2-0.5,0-1.1-0.5-1.4c-1.1-0.8-1.7-2-1.7-3.4c0-1.1,0.4-2.1,1.2-2.9
			c1.8,1.5,4.1,2.4,6.5,2.4c0.7,0,1.2-0.6,1.2-1.2s-0.6-1.2-1.2-1.2c-2.1,0-4.1-0.9-5.5-2.4c0,0,0,0,0,0c-1.4-1.5-2.2-3.3-2.2-5.3
			c0-4.2,3.4-7.7,7.7-7.7h0.4c0.5,0,1-0.3,1.2-0.8c0.6-1.6,2.1-2.7,3.8-2.7c2.3,0,4.1,1.8,4.1,4.1s-1.8,4.1-4.1,4.1
			c-0.7,0-1.2,0.6-1.2,1.2s0.6,1.2,1.2,1.2c2.2,0,4.1-1.1,5.3-2.7c1.2,1.7,3.1,2.7,5.3,2.7c0.7,0,1.2-0.6,1.2-1.2s-0.6-1.2-1.2-1.2
			c-2.3,0-4.1-1.8-4.1-4.1s1.8-4.1,4.1-4.1c1.7,0,3.2,1.1,3.8,2.7c0.2,0.5,0.6,0.8,1.2,0.8h0.4c4.2,0,7.7,3.4,7.7,7.7
			c0,1.9-0.8,3.8-2.2,5.3c0,0,0,0,0,0c-1.4,1.5-3.4,2.4-5.5,2.4c-0.7,0-1.2,0.6-1.2,1.2s0.6,1.2,1.2,1.2c2.4,0,4.7-0.9,6.5-2.4
			c0.8,0.8,1.2,1.8,1.2,2.9C43.4,26.1,42.7,27.4,41.6,28.2z"/>
		<path class="st2" d="M25,25.7c0.7,0,1.3-0.6,1.3-1.3c0-0.7-0.6-1.3-1.3-1.3c-0.7,0-1.3,0.6-1.3,1.3C23.7,25.1,24.3,25.7,25,25.7z"
			/>
	</g>
</g>
</svg>
