<svg xmlns="http://www.w3.org/2000/svg" version="1" viewBox="0 0 50 50"><path fill="#a6c1c2" d="M9.4 29.1h1.3v5.2l31-11.3v-6c0-.6-.5-1.1-1.1-1.1h-1.3v-1c0-4.8-2.6-13.8-14.3-13.8s-14.3 9-14.3 13.8v1H9.4c-.6 0-1.1.5-1.1 1.1v11c0 .6.5 1.1 1.1 1.1z"/><path fill="#b9d7d9" d="M38.4 9.9C36.9 5.6 33.2 1.1 25 1.1c-11.7 0-14.3 9-14.3 13.8v1H9.4c-.6 0-1.1.5-1.1 1.1v3.8L38.4 9.9z"/><path fill="#444" d="M40.6 14.8h-.2c0-1.7-.4-5.7-3-9.2C35.5 3 31.9 0 25 0S14.5 3 12.6 5.6c-2.6 3.5-3 7.5-3 9.2h-.2c-1.2 0-2.2 1-2.2 2.2v11c0 1.2 1 2.2 2.2 2.2h.2V36c0 2.6 5.9 14 8.8 14h13.3c2.9 0 8.8-11.5 8.8-14 0-.6-.5-1.1-1.1-1.1s-1.1.5-1.1 1.1c0 2-5 10.9-6.6 11.7H18.5c-1.6-.9-6.6-9.7-6.6-11.7v-5.7h1.6c.2 8.6 3.3 11.7 6.1 11.7 1.3 0 2.1-.5 2.8-1 .7-.5 1.3-.8 2.6-.8s1.9.4 2.6.8c.7.5 1.5 1 2.8 1 2.9 0 5.9-3.2 6.1-12.2.1-.2.2-.4.2-.7 0-.6-.5-1.1-1.1-1.1H9.4v-4.6h4.4c.2 1 1.2 1.7 2.4 1.7h17.7c1.1 0 2.1-.7 2.4-1.7h4.9c1.1 0 1.7-.6 1.7-1.2V17c0-1.2-1.1-2.2-2.3-2.2zM30.4 40.1c-.8 0-1.2-.3-1.8-.7-.8-.5-1.7-1.1-3.6-1.1s-2.8.6-3.6 1.1c-.6.4-1 .7-1.8.7-1.5 0-4-2.1-4.3-9.9h19.4c-.2 7.8-2.8 9.9-4.3 9.9zM25 2.3c12.3 0 13.1 10.6 13.1 12.5H11.9C12 2.6 23.7 2.3 25 2.3zM9.4 17.1h31.1v4.6h-4.4c-.3-1-1.2-1.7-2.4-1.7H16.1c-1.1 0-2.1.7-2.4 1.7H9.4v-4.6z"/><path fill="#444" d="M29.7 34.2c-.1 0-2.2-1.1-4.7-1.1s-4.6 1-4.7 1.1c-.3.2-.5.6-.3.9.1.2.4.4.6.4.1 0 .2 0 .3-.1 0 0 1.9-.9 4.1-.9s4.1.9 4.1.9c.3.2.7 0 .9-.3.2-.3.1-.7-.3-.9z"/></svg>