<?xml version="1.0" encoding="utf-8"?>
<!-- Generator: Adobe Illustrator 28.0.0, SVG Export Plug-In . SVG Version: 6.00 Build 0)  -->
<svg version="1.1" id="Layer_1" xmlns="http://www.w3.org/2000/svg" xmlns:xlink="http://www.w3.org/1999/xlink" x="0px" y="0px"
	 viewBox="0 0 50 50" style="enable-background:new 0 0 50 50;" xml:space="preserve">
<style type="text/css">
	.st0{fill:#FCC34F;}
	.st1{fill:none;stroke:#444444;stroke-width:2.5;stroke-linecap:round;stroke-linejoin:round;stroke-miterlimit:10;}
	.st2{fill:none;stroke:#444444;stroke-width:0.5;stroke-linecap:round;stroke-linejoin:round;stroke-miterlimit:10;}
	.st3{fill:#444444;}
</style>
<path class="st0" d="M44.5,19.3l0-6.1L35,7.5l-9.6-6.2C22.1,4.2,4.5,13.1,4.8,14L4.5,25.9v10.3l15.3,10l26.3-9.3
	C46.7,36.5,45.4,20.9,44.5,19.3z"/>
<path class="st1" d="M45.2,36.7V14.5c0-0.5-0.3-1-0.7-1.3L25.8,1.9c-0.5-0.3-1.1-0.3-1.6,0L5.5,13.2c-0.5,0.3-0.7,0.8-0.7,1.3v21.4
	c0,0.5,0.3,1,0.7,1.3l18.6,11.1"/>
<line class="st2" x1="4.8" y1="14" x2="45" y2="37.2"/>
<line class="st2" x1="45.2" y1="14" x2="4.5" y2="36.1"/>
<line class="st2" x1="24.4" y1="25.3" x2="24.4" y2="47.7"/>
<g>
	<circle class="st3" cx="10.5" cy="31.6" r="0.5"/>
	<circle class="st3" cx="14.7" cy="32.1" r="0.5"/>
	<circle class="st3" cx="17.8" cy="29.4" r="0.5"/>
	<circle class="st3" cx="21.4" cy="30.6" r="0.5"/>
	<circle class="st3" cx="23.3" cy="28.4" r="0.5"/>
	<circle class="st3" cx="28.7" cy="19.4" r="0.5"/>
	<circle class="st3" cx="33.9" cy="15.7" r="0.5"/>
	<circle class="st3" cx="35" cy="20.4" r="0.5"/>
	<circle class="st3" cx="28.7" cy="28.9" r="0.5"/>
	<circle class="st3" cx="34.4" cy="26.1" r="0.5"/>
	<circle class="st3" cx="29.2" cy="33.7" r="0.5"/>
	<circle class="st3" cx="36.1" cy="31.1" r="0.5"/>
	<circle class="st3" cx="22.2" cy="36.4" r="0.5"/>
	<circle class="st3" cx="37.9" cy="26.4" r="0.5"/>
	<circle class="st3" cx="32.3" cy="23.6" r="0.5"/>
	<circle class="st3" cx="33.4" cy="21" r="0.5"/>
	<circle class="st3" cx="39.3" cy="16.6" r="0.5"/>
	<circle class="st3" cx="39" cy="21.8" r="0.5"/>
	<circle class="st3" cx="37.1" cy="18.1" r="0.5"/>
	<circle class="st3" cx="38.2" cy="14.8" r="0.5"/>
	<circle class="st3" cx="20" cy="27.7" r="0.5"/>
	<circle class="st3" cx="13.3" cy="29.4" r="0.5"/>
</g>
</svg>
