<?xml version="1.0" encoding="utf-8"?>
<!-- Generator: Adobe Illustrator 22.1.0, SVG Export Plug-In . SVG Version: 6.00 Build 0)  -->
<svg version="1.1" id="Layer_1" xmlns="http://www.w3.org/2000/svg" xmlns:xlink="http://www.w3.org/1999/xlink" x="0px" y="0px"
	 viewBox="0 0 50 50" style="enable-background:new 0 0 50 50;" xml:space="preserve">
<style type="text/css">
	.st0{fill:#00C8E2;}
	.st1{fill:#00DFFC;}
	.st2{fill:#444444;}
</style>
<g>
	<g>
		<polygon class="st0" points="32,21.8 8.5,30.3 5.1,26.2 3.2,19 28.2,9.9 31.2,15.7 		"/>
	</g>
	<g>
		<polygon class="st1" points="27,10.4 4,18.7 7.8,11 17.9,5.8 		"/>
	</g>
	<g>
		<path class="st2" d="M18,31.8c-6.1,0-11-4.9-11-11c0-6.1,4.9-11,11-11c0.4,0,0.8,0.3,0.8,0.8c0,0.4-0.3,0.8-0.8,0.8
			c-5.2,0-9.5,4.2-9.5,9.5c0,5.2,4.2,9.5,9.5,9.5s9.5-4.2,9.5-9.5c0-0.4,0.3-0.8,0.8-0.8s0.8,0.3,0.8,0.8C29,26.8,24.1,31.8,18,31.8
			z"/>
	</g>
	<g>
		<path class="st2" d="M30.9,8.6c1,0,1.8-0.7,1.9-1.6l11.3-3.4c0.3,0.3,0.8,0.5,1.3,0.5c1.1,0,1.9-0.9,1.9-1.9
			c0-1.1-0.9-1.9-1.9-1.9c-1.1,0-1.9,0.9-1.9,1.9L32.4,5.5c-0.3-0.5-0.9-0.7-1.5-0.7c-1.1,0-1.9,0.9-1.9,1.9c0,0.4,0.1,0.8,0.3,1.1
			l-1,1.6c-2.7-2.5-6.4-4-10.3-4c-8.5,0-15.4,6.9-15.4,15.4c0,8.5,6.9,15.4,15.4,15.4c1.4,0,2.8-0.2,4-0.5l12.3,12.2
			c1.3,1.3,3,1.9,4.7,1.9c1.8,0,3.5-0.7,4.9-2c2.6-2.7,2.6-7-0.1-9.6L32.5,26.9c-0.1-0.1-0.2-0.2-0.3-0.2c0.8-1.8,1.2-3.8,1.2-5.9
			c0-4-1.5-7.6-4-10.3l1.2-2C30.7,8.5,30.8,8.6,30.9,8.6z M42.1,39.9c1.7,1.7,1.7,4.4,0.1,6.1c-1.7,1.7-4.4,1.7-6.1,0.1L24.7,34.7
			c2.6-1.3,4.9-3.3,6.4-5.7L42.1,39.9z M30.9,20.8c0,7.1-5.8,12.9-12.9,12.9S5.1,27.9,5.1,20.8c0-7.1,5.8-12.9,12.9-12.9
			c3.5,0,6.7,1.4,9,3.7L21,21.7c-0.2-0.1-0.4-0.1-0.5-0.1c-0.6,0-1.1,0.2-1.4,0.6l-4.1-2.7c0-0.2,0.1-0.3,0.1-0.5c0-1.1-0.9-2-2-2
			c-1.1,0-2,0.9-2,2c0,1.1,0.9,2,2,2c0.4,0,0.7-0.1,1-0.3l4.4,2.9c0,1.1,0.9,1.9,2,1.9c1.1,0,2-0.9,2-2c0-0.3-0.1-0.7-0.2-0.9v0
			l5.9-9.9C29.9,15,30.9,17.8,30.9,20.8z"/>
	</g>
</g>
</svg>
