<svg xmlns="http://www.w3.org/2000/svg" id="Camada_1" x="0" y="0" version="1.1" viewBox="0 0 50 50" xml:space="preserve"><style>.st2{fill:#444}</style><path fill="#4ecdc4" d="M25 1.8C13.7 1.8 4.3 9.9 2.2 20.6L39.6 7c-4-3.3-9-5.2-14.6-5.2z"/><path fill="#46b8b0" d="M48.2 25c0-7.3-3.3-13.8-8.6-18L2.2 20.6c-.3 1.4-.4 2.9-.4 4.4 0 7.5 3.6 14.2 9.1 18.4L47.7 30c.3-1.6.5-3.3.5-5z"/><path d="M35.6 18.6c-.9-.2-1.8-.3-2.6-.5-.4-.1-1.2-.3-1.3-.7-.1-.2-.3-.4-.5-.6-.5-.6-1.2-1-2-1.1-.9-.1-1.8.2-2.5.8-.5.4-.8 1-1 1.7-3.6.2-7.2.2-9.7 3.1-3.5 3.9-1.2 9.3 3.2 10.1l.6 2c-.2.2-1.1.8-1.2 1H26c-.9-1.4-2.4-.7-3-1.8l-.5-1.7c.4-.1.7-.3.9-.4.5-.3.9-.6 1.3-1.1.2-.2.4-.5.6-.8.2-.4.4-.8.5-1.3.2-.7.1-1.4 0-2 1.7-1.4 3-2.7 4.7-4 .5-.4 1.2-1 1.3-1.6 1.8-.4 6.5.4 8 .8-.8-1.2-3-1.6-4.2-1.9zm-15.3 14l-.3-1.2h.7c.4-.1.7-.1 1-.2l.6 2.1c0 .1-.1.2-.1.3-.8-.4-1.5-.3-1.9-1z" class="st2"/><path d="M25 49.5C11.5 49.5.5 38.5.5 25S11.5.5 25 .5s24.5 11 24.5 24.5c0 2.2-.3 4.3-.9 6.4-.2.7-.9 1.1-1.5.9-.7-.2-1.1-.9-.9-1.5.5-1.9.8-3.8.8-5.8 0-12.1-9.9-22-22-22S3 12.9 3 25s9.9 22 22 22c4.3 0 8.4-1.2 12-3.6.6-.4 1.4-.2 1.7.4.4.6.2 1.4-.4 1.7-3.9 2.6-8.5 4-13.3 4z" class="st2"/><path d="M25 43.4C14.9 43.4 6.6 35.1 6.6 25S14.9 6.6 25 6.6 43.4 14.9 43.4 25 35.1 43.4 25 43.4zm0-35.8C15.4 7.6 7.6 15.4 7.6 25c0 9.6 7.8 17.4 17.4 17.4 9.6 0 17.4-7.8 17.4-17.4 0-9.6-7.8-17.4-17.4-17.4z" class="st2"/></svg>