<svg version="1" xmlns="http://www.w3.org/2000/svg" viewBox="0 0 50 50"><path fill="#A6C1C2" d="M9.501 45.814c0 .959.777 1.736 1.736 1.736h4.022L40.5 38.363v-6.178a18.66 18.66 0 0 0 3.249-10.545c0-3.911-1.2-7.54-3.249-10.544v-6.91c0-.959-.777-1.736-1.736-1.736H11.237c-.959 0-1.736.777-1.736 1.736v6.91A18.66 18.66 0 0 0 6.252 21.64a18.66 18.66 0 0 0 3.249 10.545v13.629z"/><path fill="#B9D7D9" d="M39.726 3.163a1.726 1.726 0 0 0-1.396-.713H10.804c-.959 0-1.736.777-1.736 1.736v6.91a18.737 18.737 0 0 0-2.051 3.972L39.726 3.163z"/><g fill="#444"><path d="M25 5.641c-8.822 0-15.999 7.177-15.999 15.999s7.177 16 15.999 16c8.822 0 15.999-7.178 15.999-16S33.822 5.641 25 5.641zm0 30.999c-8.271 0-14.999-6.729-14.999-15S16.73 6.641 25 6.641 39.999 13.37 39.999 21.64c0 8.271-6.728 15-14.999 15z"/><circle cx="25" cy="21.64" r="4.746"/><path d="M41.749 10.717V4.186A2.99 2.99 0 0 0 38.764 1.2H11.237a2.99 2.99 0 0 0-2.986 2.986v6.531c-2.126 3.254-3.249 7.022-3.249 10.923s1.122 7.669 3.249 10.923v13.25a2.99 2.99 0 0 0 2.986 2.986H25a1.25 1.25 0 0 0 0-2.499H11.237a.487.487 0 0 1-.486-.486V34.311A18.961 18.961 0 0 0 25 40.713a18.965 18.965 0 0 0 14.249-6.402v4.051a1.25 1.25 0 0 0 2.5 0v-5.798c2.127-3.253 3.249-7.021 3.249-10.923s-1.122-7.671-3.249-10.924zm-2.5-6.531v4.783A19.049 19.049 0 0 0 31.454 3.7h7.309c.268 0 .486.218.486.486zM11.237 3.7h7.286a18.924 18.924 0 0 0-7.772 5.27V4.186c0-.268.218-.486.486-.486zm28.229 27.781l-.217.318v.129A17.49 17.49 0 0 1 25 39.213a17.489 17.489 0 0 1-14.249-7.287v-.127l-.217-.318c-1.983-2.91-3.031-6.312-3.031-9.84s1.048-6.931 3.031-9.84l.217-.319v-.127A17.484 17.484 0 0 1 25 4.068a17.56 17.56 0 0 1 14.249 7.3v.114l.217.318c1.983 2.909 3.032 6.312 3.032 9.84s-1.049 6.931-3.032 9.841z"/></g></svg>