<?xml version="1.0" encoding="utf-8"?>
<!-- Generator: Adobe Illustrator 24.3.0, SVG Export Plug-In . SVG Version: 6.00 Build 0)  -->
<svg version="1.1" id="Layer_1" xmlns="http://www.w3.org/2000/svg" xmlns:xlink="http://www.w3.org/1999/xlink" x="0px" y="0px"
	 viewBox="0 0 50 50" style="enable-background:new 0 0 50 50;" xml:space="preserve">
<style type="text/css">
	.st0{fill:#00C8E2;}
	.st1{fill:#00DFFC;}
	.st2{fill:#444444;}
	.st3{fill:#494949;}
</style>
<g>
	<g>
		<g>
			<path class="st0" d="M6.5,38.4l5.7,3.3L45.9,23l-0.1-7.3c0-1.6-0.9-3.2-2.3-4L27.3,2.3c-1.4-0.8-3.2-0.8-4.6,0L6.5,11.6
				c-1.4,0.8-2.3,2.3-2.3,4v18.8C4.2,36,5,37.5,6.5,38.4z"/>
		</g>
		<g>
			<path class="st1" d="M33.9,6.1l-6.6-3.9c-1.4-0.8-3.2-0.8-4.6,0L6.5,11.6c-1.4,0.8-2.3,2.3-2.3,4l-0.3,7.9L33.9,6.1z"/>
		</g>
		<g>
			<path class="st2" d="M25,49.6c-1,0-2-0.3-2.9-0.8L5.8,39.4c-1.8-1-2.9-3-2.9-5.1V15.6c0-2.1,1.1-4,2.9-5.1l16.2-9.4
				c1.8-1,4-1,5.8,0l16.2,9.4c1.8,1,2.9,3,2.9,5.1v13.8c0,0.7-0.6,1.2-1.2,1.2c-0.7,0-1.2-0.6-1.2-1.2V15.6c0-1.2-0.6-2.3-1.7-2.9
				L26.7,3.3c-1-0.6-2.3-0.6-3.4,0L7.1,12.7c-1,0.6-1.7,1.7-1.7,2.9v18.8c0,1.2,0.6,2.3,1.7,2.9l16.2,9.4c1,0.6,2.3,0.6,3.4,0
				l4.5-2.6c0.6-0.3,1.3-0.1,1.7,0.5c0.3,0.6,0.1,1.3-0.5,1.7l-4.5,2.6C27,49.3,26,49.6,25,49.6z"/>
		</g>
	</g>
	<g>
		<g>
			<path class="st3" d="M23.4,37.7c-0.2,0-0.5-0.2-0.5-0.4l-0.1-2.7c-1-0.2-2-0.6-2.9-1.2l-2,1.8c-0.2,0.2-0.5,0.2-0.6,0l-2.4-2.4
				c-0.2-0.2-0.2-0.5,0-0.6l1.8-2c-0.6-0.9-1-1.9-1.2-2.9l-2.7-0.1c-0.2,0-0.4-0.2-0.5-0.5l0-2h6.5l0,0.2c0,0,0,0,0,0c0,0,0,0,0,0
				c0,1.7,0.7,3.2,1.9,4.4c1.2,1.1,2.7,1.8,4.3,1.8c0,0,0.1,0,0.1,0l0,0c3.4,0,6.1-2.8,6.1-6.2l0-0.2h6.5l0,1.7
				c0,0.3-0.2,0.5-0.4,0.5l-2.7,0.1c-0.2,1-0.6,2-1.2,2.9l1.8,2c0.2,0.2,0.2,0.5,0,0.6l-2.4,2.4c-0.2,0.2-0.5,0.2-0.6,0l-2-1.8
				c-0.9,0.6-1.9,1-2.9,1.2l-0.1,2.7c0,0.2-0.2,0.4-0.5,0.5L23.4,37.7C23.4,37.7,23.4,37.7,23.4,37.7z"/>
		</g>
		<g>
			<path class="st3" d="M24.3,30.7c-0.2,0-0.3-0.1-0.3-0.3l-0.1-1.1c-0.4-0.1-0.8-0.3-1.2-0.5l-0.8,0.7c-0.1,0.1-0.3,0.1-0.4,0
				l-1.1-1c-0.1-0.1-0.1-0.3,0-0.4l0.7-0.8c-0.2-0.4-0.4-0.8-0.5-1.2l-1.1,0c-0.2,0-0.3-0.1-0.3-0.3l0-1h3.1l0,0.2l0,0
				c0,1.4,1.2,2.6,2.6,2.6c0,0,0,0,0,0l0,0c1.4,0,2.6-1.2,2.6-2.6l0-0.2h3.1l0,0.9c0,0.2-0.1,0.3-0.3,0.3L29.3,26
				c-0.1,0.4-0.3,0.8-0.5,1.2l0.7,0.8c0.1,0.1,0.1,0.3,0,0.4l-1,1.1c-0.1,0.1-0.3,0.1-0.4,0l-0.8-0.7c-0.4,0.2-0.8,0.4-1.2,0.5
				l0,1.1c0,0.2-0.1,0.3-0.3,0.3L24.3,30.7C24.3,30.7,24.3,30.7,24.3,30.7z"/>
		</g>
		<g>
			<g>
				<path class="st3" d="M19.3,24.3h-6.9V23c0-2.2,1.8-4,4-4h2.3c0.8,0,1.3,0.2,2,0.6l0.2,0.1l-0.2,0.2c-1,0.8-1.4,1.9-1.4,3.3V24.3
					z"/>
			</g>
			<g>
				<path class="st3" d="M17.6,13.2c-1.4,0-2.5,1.1-2.5,2.5s1.1,2.5,2.5,2.5c1.4,0,2.5-1.1,2.5-2.5S19,13.2,17.6,13.2z"/>
			</g>
		</g>
		<g>
			<g>
				<path class="st3" d="M37.6,24.3h-6.9v-1.2c0-1.3-0.5-2.4-1.5-3.3L29,19.7l0.2-0.1c0.6-0.4,1.2-0.6,2-0.6h2.3c2.2,0,4,1.8,4,4
					V24.3z"/>
			</g>
			<g>
				<path class="st3" d="M32.5,13.2c-1.4,0-2.5,1.1-2.5,2.5s1.1,2.5,2.5,2.5c1.4,0,2.5-1.1,2.5-2.5S33.9,13.2,32.5,13.2z"/>
			</g>
		</g>
		<g>
			<g>
				<path class="st3" d="M25,18.6c-1.7,0-3.2-1.4-3.2-3.2s1.4-3.2,3.2-3.2s3.2,1.4,3.2,3.2S26.7,18.6,25,18.6z"/>
			</g>
			<g>
				<path class="st3" d="M30.3,24.3H19.6v-1.2c0-2.3,1.9-4.1,4.1-4.1h2.4c2.3,0,4.1,1.9,4.1,4.1V24.3z"/>
			</g>
		</g>
	</g>
</g>
</svg>
