<?xml version="1.0" encoding="utf-8"?>
<!-- Generator: Adobe Illustrator 28.1.0, SVG Export Plug-In . SVG Version: 6.00 Build 0)  -->
<svg version="1.1" id="Camada_1" xmlns="http://www.w3.org/2000/svg" xmlns:xlink="http://www.w3.org/1999/xlink" x="0px" y="0px"
	 viewBox="0 0 50 50" style="enable-background:new 0 0 50 50;" xml:space="preserve">
<style type="text/css">
	.st0{fill:#04AD49;}
	.st1{fill:#22DD6D;}
	.st2{fill:#414042;}
</style>
<g>
	<polygon class="st0" points="22.8,32.6 28.3,34.3 23.6,37.6 23.7,43.4 19.1,40 13.6,41.8 15.5,36.4 12,31.7 17.8,31.8 21.1,27.1 	
		"/>
	<g>
		<path class="st1" d="M46.8,16.4l-11.4-0.9l-5.6,6.9l-17.2-0.1C14,6.2,8.7,3,8.7,6.7L7.8,28.1l-3.6,1.4L2,45.8
			c3.2,0.2,11.4,2.1,14.4,1.1l31.5-11.2C48.7,35.1,47.9,18.8,46.8,16.4z"/>
		<path class="st2" d="M48.7,18.1c0-1.1-0.4-2.1-1.2-2.8s-1.7-1.2-2.9-1.2l-7.6,0.1c-1.3,0-2.4,0.6-3.2,1.6l-4.2,5.6H13.9V7.2
			c0-2-1.7-3.7-3.7-3.7S6.5,5.2,6.5,7.2l0,20.5H4.6c-0.9,0-1.6,0.7-1.6,1.6l-0.1,3.4L0.7,45.2c-0.1,0.6,0.1,1.2,0.5,1.7
			c0.4,0.5,1,0.7,1.6,0.7h15.5c0.6,0,1.2-0.3,1.6-0.7c0.2-0.3,0.3-0.7,0.4-1.1L40,45.8c0.8,0,1.5-0.6,1.5-1.5c0-0.8-0.6-1.5-1.5-1.5
			l-21.2-0.1c0,0-0.1,0-0.1,0h-1.5l-1.3-9.1c0-0.1,0-0.2-0.1-0.2v-3.1c0-0.4-0.3-0.8-0.7-0.8h-3.3c0,0,0,0,0,0v-1.2h34L46,38
			c0,0.8,0.7,1.4,1.5,1.4c0,0,0,0,0,0c0.8,0,1.4-0.7,1.4-1.5L48.7,18.1z M9.4,8.2c0-1,0.4-1.6,0.6-1.6s0.6,0.6,0.6,1.6v20.9H9.4V8.2
			z M16.4,44.7h-2.6l-0.5-5.9c0-0.3-0.3-0.5-0.6-0.5c-0.3,0-0.6,0.3-0.5,0.6l0.5,5.8h-2l0.1-5.8c0-0.3-0.3-0.6-0.6-0.6c0,0,0,0,0,0
			c-0.3,0-0.6,0.3-0.6,0.6l-0.1,5.8H7.4l0.8-5.9c0-0.3-0.2-0.6-0.5-0.7c-0.3-0.1-0.6,0.2-0.7,0.5l-0.8,6H3.9l0.8-5.7l0.8-4.5h9.4
			L16.4,44.7z M14.7,30.9v2.4h-9l0-0.1c0-0.1,0-0.1,0-0.2l0.1-2.1H14.7z M11.9,27.8v-3.6h2.6c0,0,0,0,0,0H30c0.7,0,1.4-0.4,1.8-0.9
			l4.4-5.8c0.2-0.3,0.5-0.4,0.9-0.4l7.6-0.1c0.3,0,0.6,0.1,0.8,0.3c0.2,0.2,0.3,0.5,0.3,0.8l0.1,9.7H11.9z"/>
	</g>
</g>
</svg>
