<svg xmlns="http://www.w3.org/2000/svg" id="Camada_1" data-name="Camada 1" viewBox="0 0 300 300"><defs><style>.cls-1{font-family:BaiJamjuree-Medium,&apos;Bai Jamjuree&apos;;font-size:23.33px;font-weight:500}.cls-3{fill:#005cff}</style></defs><path id="Camada_10" fill="#008dd3" d="M285.38 149.42c.1 20.75-4.3 40.45-12.16 58.37-22.11 49.89-71.89 84.68-129.95 84.89-15.41.1-30.29-2.41-44.23-6.81-26.2-8.38-49.05-24.1-66.13-44.86-17.82-21.37-29.45-48.2-32.28-77.54-.42-4.2-.63-8.6-.63-12.89-.21-48.42 23.79-91.39 60.68-117.28 4.82-3.46 9.85-6.5 15.09-9.22 7.34-3.98 15.09-7.13 23.06-9.85 7.55-2.41 15.41-4.19 23.48-5.45 6.5-.84 13.1-1.36 19.81-1.47 26.2-.1 50.83 6.92 72.1 19.18 3.88 2.2 7.44 4.51 11 7.13a143.485 143.485 0 0141.61 46.01c1.15 2.1 2.31 4.09 3.35 6.29.84 1.89 1.78 3.67 2.62 5.55a149.04 149.04 0 016.92 18.65c2.1 7.13 3.67 14.57 4.51 22.01.73 5.66 1.15 11.42 1.15 17.29z" data-name="Camada 10"/><path fill="#37393a" d="M252.92 277.59L86.15 267.05c-12.37-.78-21.76-11.44-20.98-23.81L77.46 48.79c.78-12.37 22.68-27.6 35.05-26.82l155.54 16.38c12.37.78 21.76 11.44 20.98 23.81l-1.5 195.58c-.78 12.37-22.24 20.64-34.61 19.86z"/><rect width="211.99" height="239.72" x="82.34" y="27" fill="#eaeaea" rx="23.63" ry="23.63" transform="rotate(3.62 188.2 146.732)"/><rect width="170.88" height="53.02" x="105.88" y="51.9" fill="#07e570" rx="21.54" ry="21.54" transform="rotate(3.62 191.109 78.378)"/><text class="cls-1" transform="rotate(3.62 -1234.402 2040.469)"><tspan x="0" y="0">012345</tspan><tspan x="79.03" y="0" letter-spacing="-.02em">6</tspan><tspan x="92.96" y="0" letter-spacing="-.01em">7</tspan><tspan x="104.32" y="0">89</tspan></text><rect width="34.03" height="34.03" x="104.58" y="114.13" class="cls-3" rx="15.48" ry="15.48" transform="rotate(3.62 121.503 131.101)"/><rect width="34.03" height="34.03" x="148.23" y="116.89" class="cls-3" rx="15.48" ry="15.48" transform="rotate(3.62 165.145 133.84)"/><rect width="34.03" height="34.03" x="193.79" y="119.77" class="cls-3" rx="15.48" ry="15.48" transform="rotate(3.62 210.69 136.677)"/><rect width="34.03" height="34.03" x="101.7" y="159.8" class="cls-3" rx="15.48" ry="15.48" transform="rotate(3.62 118.666 176.646)"/><rect width="34.03" height="34.03" x="145.35" y="162.55" class="cls-3" rx="15.48" ry="15.48" transform="rotate(3.62 162.308 179.385)"/><rect width="34.03" height="34.03" x="190.9" y="165.43" class="cls-3" rx="15.48" ry="15.48" transform="rotate(3.62 207.694 182.227)"/><rect width="34.03" height="34.03" x="98.67" y="207.66" class="cls-3" rx="15.48" ry="15.48" transform="rotate(3.62 115.583 224.416)"/><rect width="34.03" height="34.03" x="142.32" y="210.42" class="cls-3" rx="15.48" ry="15.48" transform="rotate(3.62 159.23 227.313)"/><rect width="34.03" height="34.03" x="187.87" y="213.3" class="cls-3" rx="15.48" ry="15.48" transform="rotate(3.62 204.774 230.15)"/><rect width="34.03" height="34.03" x="239" y="122.63" class="cls-3" rx="15.48" ry="15.48" transform="rotate(3.62 255.76 139.529)"/><rect width="34.03" height="34.03" x="236.11" y="168.29" class="cls-3" rx="15.48" ry="15.48" transform="rotate(3.62 252.923 185.074)"/><rect width="34.03" height="34.03" x="233.09" y="216.16" class="cls-3" rx="15.48" ry="15.48" transform="rotate(3.62 249.844 233.002)"/><text class="cls-1" transform="rotate(3.62 -3701.063 3953.895)"><tspan x="0" y="0">0</tspan></text><text class="cls-1" transform="rotate(3.62 -3678.577 3242.054)"><tspan x="0" y="0">3</tspan></text><text class="cls-1" transform="rotate(3.62 -3655.804 2519.275)"><tspan x="0" y="0">2</tspan></text><text class="cls-1" transform="rotate(3.62 -3635.486 1874.18)"><tspan x="0" y="0">1</tspan></text><text class="cls-1" transform="rotate(3.62 -2943.417 4027.515)"><tspan x="0" y="0">-</tspan></text><text class="cls-1" transform="rotate(3.62 -2919.27 3263.04)"><tspan x="0" y="0">6</tspan></text><text class="cls-1" transform="rotate(3.62 -2896.33 2535.504)"><tspan x="0" y="0">5</tspan></text><text class="cls-1" transform="rotate(3.62 -2874.891 1855.689)"><tspan x="0" y="0">4</tspan></text><text class="cls-1" transform="rotate(3.62 -2203.013 4016.63)"><tspan x="0" y="0">+</tspan></text><text class="cls-1" transform="rotate(3.62 -2180.025 3285.609)"><tspan x="0" y="0">9</tspan></text><text class="cls-1" transform="rotate(3.62 -2156.874 2554.74)"><tspan x="0" y="0">8</tspan></text><text class="cls-1" transform="rotate(3.62 -2136.18 1896.489)"><tspan x="0" y="0">7</tspan></text></svg>