<?xml version="1.0" encoding="UTF-8"?>
<svg id="Camada_1" data-name="Camada 1" xmlns="http://www.w3.org/2000/svg" viewBox="0 0 300 300">
  <defs>
    <style>
      .cls-1 {
        font-family: BaiJamjuree-Medium, 'Bai Jamjuree';
        font-size: 23.33px;
        font-weight: 500;
      }

      .cls-2 {
        fill: #07e570;
      }

      .cls-3 {
        fill: #005cff;
      }

      .cls-4 {
        fill: #008dd3;
      }

      .cls-5 {
        letter-spacing: -.01em;
      }

      .cls-6 {
        letter-spacing: -.02em;
      }

      .cls-7 {
        fill: #37393a;
      }

      .cls-8 {
        fill: #eaeaea;
      }
    </style>
  </defs>
  <g id="Camada_10" data-name="Camada 10">
    <path class="cls-4" d="M285.38,149.42c.1,20.75-4.3,40.45-12.16,58.37-22.11,49.89-71.89,84.68-129.95,84.89-15.41.1-30.29-2.41-44.23-6.81-26.2-8.38-49.05-24.1-66.13-44.86C15.09,219.64,3.46,192.81.63,163.47.21,159.27,0,154.87,0,150.58-.21,102.16,23.79,59.19,60.68,33.3c4.82-3.46,9.85-6.5,15.09-9.22,7.34-3.98,15.09-7.13,23.06-9.85,7.55-2.41,15.41-4.19,23.48-5.45,6.5-.84,13.1-1.36,19.81-1.47,26.2-.1,50.83,6.92,72.1,19.18,3.88,2.2,7.44,4.51,11,7.13,16.98,12.05,31.23,27.77,41.61,46.01,1.15,2.1,2.31,4.09,3.35,6.29.84,1.89,1.78,3.67,2.62,5.55,2.72,6.08,5.03,12.26,6.92,18.65,2.1,7.13,3.67,14.57,4.51,22.01h0c.73,5.66,1.15,11.42,1.15,17.29Z"/>
  </g>
  <g>
    <path class="cls-7" d="M252.92,277.59l-166.77-10.54c-12.37-.78-21.76-11.44-20.98-23.81l12.29-194.45c.78-12.37,22.68-27.6,35.05-26.82l155.54,16.38c12.37.78,21.76,11.44,20.98,23.81l-1.5,195.58c-.78,12.37-22.24,20.64-34.61,19.86Z"/>
    <rect class="cls-8" x="82.34" y="27" width="211.99" height="239.72" rx="23.63" ry="23.63" transform="translate(9.64 -11.59) rotate(3.62)"/>
    <rect class="cls-2" x="105.88" y="51.9" width="170.88" height="53.02" rx="21.54" ry="21.54" transform="translate(5.33 -11.91) rotate(3.62)"/>
    <text class="cls-1" transform="translate(126.37 82.01) rotate(3.62)"><tspan x="0" y="0">012345</tspan><tspan class="cls-6" x="79.03" y="0">6</tspan><tspan class="cls-5" x="92.96" y="0">7</tspan><tspan x="104.32" y="0">89</tspan></text>
    <rect class="cls-3" x="104.58" y="114.13" width="34.03" height="34.03" rx="15.48" ry="15.48" transform="translate(8.52 -7.41) rotate(3.62)"/>
    <rect class="cls-3" x="148.23" y="116.89" width="34.03" height="34.03" rx="15.48" ry="15.48" transform="translate(8.78 -10.16) rotate(3.62)"/>
    <rect class="cls-3" x="193.79" y="119.77" width="34.03" height="34.03" rx="15.48" ry="15.48" transform="translate(9.05 -13.03) rotate(3.62)"/>
    <rect class="cls-3" x="101.7" y="159.8" width="34.03" height="34.03" rx="15.48" ry="15.48" transform="translate(11.39 -7.14) rotate(3.62)"/>
    <rect class="cls-3" x="145.35" y="162.55" width="34.03" height="34.03" rx="15.48" ry="15.48" transform="translate(11.65 -9.89) rotate(3.62)"/>
    <rect class="cls-3" x="190.9" y="165.43" width="34.03" height="34.03" rx="15.48" ry="15.48" transform="translate(11.92 -12.75) rotate(3.62)"/>
    <rect class="cls-3" x="98.67" y="207.66" width="34.03" height="34.03" rx="15.48" ry="15.48" transform="translate(14.4 -6.85) rotate(3.62)"/>
    <rect class="cls-3" x="142.32" y="210.42" width="34.03" height="34.03" rx="15.48" ry="15.48" transform="translate(14.67 -9.6) rotate(3.62)"/>
    <rect class="cls-3" x="187.87" y="213.3" width="34.03" height="34.03" rx="15.48" ry="15.48" transform="translate(14.94 -12.47) rotate(3.62)"/>
    <rect class="cls-3" x="239" y="122.63" width="34.03" height="34.03" rx="15.48" ry="15.48" transform="translate(9.32 -15.87) rotate(3.62)"/>
    <rect class="cls-3" x="236.11" y="168.29" width="34.03" height="34.03" rx="15.48" ry="15.48" transform="translate(12.19 -15.6) rotate(3.62)"/>
    <rect class="cls-3" x="233.09" y="216.16" width="34.03" height="34.03" rx="15.48" ry="15.48" transform="translate(15.21 -15.31) rotate(3.62)"/>
    <text class="cls-1" transform="translate(242.26 241.57) rotate(3.62)"><tspan x="0" y="0">0</tspan></text>
    <text class="cls-1" transform="translate(197.36 238.73) rotate(3.62)"><tspan x="0" y="0">3</tspan></text>
    <text class="cls-1" transform="translate(151.77 235.85) rotate(3.62)"><tspan x="0" y="0">2</tspan></text>
    <text class="cls-1" transform="translate(111.08 233.28) rotate(3.62)"><tspan x="0" y="0">1</tspan></text>
    <text class="cls-1" transform="translate(248.42 193.88) rotate(3.62)"><tspan x="0" y="0">-</tspan></text>
    <text class="cls-1" transform="translate(200.2 190.83) rotate(3.62)"><tspan x="0" y="0">6</tspan></text>
    <text class="cls-1" transform="translate(154.31 187.93) rotate(3.62)"><tspan x="0" y="0">5</tspan></text>
    <text class="cls-1" transform="translate(111.43 185.22) rotate(3.62)"><tspan x="0" y="0">4</tspan></text>
    <text class="cls-1" transform="translate(249.21 147.11) rotate(3.62)"><tspan x="0" y="0">+</tspan></text>
    <text class="cls-1" transform="translate(203.1 144.2) rotate(3.62)"><tspan x="0" y="0">9</tspan></text>
    <text class="cls-1" transform="translate(157 141.28) rotate(3.62)"><tspan x="0" y="0">8</tspan></text>
    <text class="cls-1" transform="translate(115.48 138.66) rotate(3.62)"><tspan x="0" y="0">7</tspan></text>
  </g>
</svg>