<svg xmlns="http://www.w3.org/2000/svg" id="Layer_1" x="0" y="0" version="1.1" viewBox="0 0 50 50" xml:space="preserve"><style>.st3{fill:#031326}</style><path fill="#71bac0" d="M46.9 13L9.7 20.6l6.8 7.8-2.8 8.6L35 32.6l-1.5-4.2z"/><path fill="#7ed0d6" d="M43.4 1.9L5.9 3.1l-4.5 8.8 7.3 8.9 39.9-8.2z"/><path fill="none" d="M15.1 9.7h19.8l5.7-6.6H9.4l5.7 6.6zm9.7 17.5c-5.4 0-9.8 4.4-9.8 9.8s4.4 9.8 9.8 9.8 9.8-4.4 9.8-9.8-4.4-9.8-9.8-9.8zm-1.7 10.4L20 40.7c-.1.1-.3.2-.5.2s-.4-.1-.5-.2c-.3-.3-.3-.8 0-1.1l2.6-2.6-2.6-2.6c-.3-.3-.3-.8 0-1.1s.8-.3 1.1 0l3 3c.2.1.3.4.3.6 0 .3-.1.6-.3.7zm6.9 3.3h-4.9c-.4 0-.8-.3-.8-.8s.3-.8.8-.8H30c.4 0 .8.3.8.8s-.4.8-.8.8z"/><path d="M49.7 10.4s-5.1-9.1-5.2-9.2c-.1-.1-.1-.2-.2-.3-.1-.1-.2-.2-.3-.2h-.1c-.1 0-.2-.1-.3-.1h-37c-.4 0-.8.3-1 .6-.1.1-5.2 9.2-5.2 9.2-.2.4-.2.9 0 1.2l.3.3L10 22.7c.2.3.6.4.9.4.3 0 .6-.1.8-.3.5-.5.6-1.2.1-1.8L3 10.9c2-3.5 3.2-5.6 3.9-6.8l14.8 17c.5.5 1.2.6 1.8.1.5-.5.6-1.2.1-1.8l-6.3-7.2h15.5l-6.3 7.2c-.5.5-.4 1.3.1 1.8s1.3.4 1.8-.1L43.2 4c.3.5.6 1 1 1.7l-5.9 6.9c-.2.2-.2.5.1.7.1.1.2.1.3.1.1 0 .3-.1.4-.2l5.7-6.6c.6 1.1 1.4 2.5 2.4 4.2L32.6 27.5c-2.1-1.7-4.9-2.8-7.8-2.8-6.8 0-12.3 5.5-12.3 12.3 0 6.8 5.5 12.3 12.3 12.3 6.8 0 12.3-5.5 12.3-12.3 0-2.9-1-5.6-2.8-7.8L49.2 12c.1-.1.3-.2.4-.4.3-.3.3-.8.1-1.2zm-14.8-.7H15.1L9.4 3.1h31.3l-5.8 6.6zM34.6 37c0 5.4-4.4 9.8-9.8 9.8S15 42.4 15 37s4.4-9.8 9.8-9.8 9.8 4.4 9.8 9.8z" class="st3"/><path d="M20.1 33.4c-.3-.3-.8-.3-1.1 0s-.3.8 0 1.1l2.6 2.6-2.6 2.5c-.3.3-.3.8 0 1.1.1.1.3.2.5.2s.4-.1.5-.2l3.1-3.1c.2-.1.3-.4.3-.6 0-.2-.1-.5-.3-.6l-3-3zm9.9 6h-4.9c-.4 0-.8.3-.8.8s.3.8.8.8H30c.4 0 .8-.3.8-.8s-.4-.8-.8-.8z" class="st3"/></svg>