<svg xmlns="http://www.w3.org/2000/svg" version="1" viewBox="0 0 50 50"><path fill="#71BAC0" d="M4.977 43.066l42.332-15.408V10.06a3.3 3.3 0 0 0-3.301-3.301H5.993a3.301 3.301 0 0 0-3.301 3.301v29.88a3.288 3.288 0 0 0 2.285 3.126z"/><path fill="#7ED0D6" d="M38.886 6.758H5.993a3.301 3.301 0 0 0-3.301 3.301v9.872L38.886 6.758z"/><path fill="#031326" d="M44.007 5.734H5.993a4.331 4.331 0 0 0-4.326 4.326v29.88a4.33 4.33 0 0 0 4.326 4.326h29.704a1.025 1.025 0 0 0 0-2.05H5.993a2.28 2.28 0 0 1-2.277-2.277v-2.124h31.981a.615.615 0 0 0 0-1.23H3.716V19.26h42.568v8.397a1.025 1.025 0 0 0 2.05 0V10.06a4.332 4.332 0 0 0-4.327-4.326zM3.716 18.031V10.06a2.28 2.28 0 0 1 2.277-2.277h38.015a2.28 2.28 0 0 1 2.277 2.277v7.971H3.716z"/><path fill="#031326" d="M22.841 10.712a.408.408 0 0 0-.57-.103l-2.58 1.792a.688.688 0 0 0 0 1.13l2.58 1.792a.409.409 0 0 0 .467-.673l-2.424-1.684 2.424-1.684a.407.407 0 0 0 .103-.57zm4.888-.102a.41.41 0 1 0-.467.673l2.424 1.684-2.424 1.684a.41.41 0 1 0 .467.673l2.58-1.792a.69.69 0 0 0 0-1.13l-2.58-1.792zM26 9.236a.41.41 0 0 0-.502.29l-1.787 6.67a.41.41 0 1 0 .791.212l1.787-6.67A.41.41 0 0 0 26 9.236z"/><circle cx="12.975" cy="12.967" r="1.328" fill="#031326"/><circle cx="37.025" cy="12.967" r="1.328" fill="#031326"/><path fill="#031326" d="M24.875 31.124h-1.284v1.981a.231.231 0 0 1-.231.231h-1.743a.231.231 0 0 1-.231-.231v-1.981h-4.183a.37.37 0 0 1-.371-.371V29.66c0-.069.021-.136.059-.193l4.502-6.63a.393.393 0 0 1 .324-.172h1.48c.217 0 .392.176.392.392v6.315h1.284c.121 0 .218.098.218.218v1.315a.215.215 0 0 1-.216.219zm-3.488-1.752v-1.81c0-.302.012-.74.036-1.314.024-.574.044-.907.058-1h-.058c-.18.399-.397.788-.65 1.168l-1.956 2.956h2.57zm11.456 3.963h-6.876a.26.26 0 0 1-.259-.259v-1.175c0-.086.034-.169.095-.23l2.584-2.612c.793-.813 1.311-1.376 1.555-1.69s.418-.605.525-.872c.107-.268.161-.545.161-.832 0-.428-.118-.747-.354-.956-.236-.209-.551-.314-.945-.314-.414 0-.815.095-1.204.285a5.785 5.785 0 0 0-.972.614.324.324 0 0 1-.446-.041l-.815-.966a.33.33 0 0 1 .045-.463c.413-.336.763-.581 1.05-.735a4.804 4.804 0 0 1 1.131-.427c.409-.1.866-.15 1.372-.15.667 0 1.255.122 1.766.365.511.243.907.584 1.19 1.022s.423.939.423 1.503c0 .491-.086.952-.259 1.383-.173.431-.44.872-.803 1.325-.362.452-1.001 1.097-1.916 1.934l-1.372 1.292v.102h4.326c.178 0 .323.145.323.323v1.251a.325.325 0 0 1-.325.323z"/></svg>