<?xml version="1.0" encoding="UTF-8"?>
<svg xmlns="http://www.w3.org/2000/svg" version="1.1" viewBox="0 0 50 50">
  <defs>
    <style>
      .cls-1 {
        fill-rule: evenodd;
      }

      .cls-1, .cls-2, .cls-3, .cls-4 {
        fill: none;
        stroke: #444;
        stroke-linecap: round;
        stroke-linejoin: round;
      }

      .cls-3 {
        stroke-width: 2.5px;
      }

      .cls-5 {
        fill: #fc9d9a;
      }

      .cls-4 {
        stroke-width: .5px;
      }
    </style>
  </defs>
  <!-- Generator: Adobe Illustrator 28.7.1, SVG Export Plug-In . SVG Version: 1.2.0 Build 142)  -->
  <g>
    <g id="Camada_1">
      <g>
        <path class="cls-5" d="M42.4,1.8l-37.2.4c-1.4,0-2,3.6-2,5v18.4c.1,0-.4,10.2-.4,10.2l1.2,11.8,9.4.8,32.1-11.4V10.2h0c0-1.4-1.7-8.3-3.1-8.3Z"/>
        <path class="cls-3" d="M31.1,48.5H6.5c-1.7,0-3.1-1.8-3.1-3.9V5.8c0-2.2,1.4-3.9,3.1-3.9h35.5c1.7,0,3.1,1.8,3.1,3.9v31.6"/>
        <g>
          <g>
            <path class="cls-1" d="M36.5,43.5H15.5c-1.7,0-3-1.3-3-3v-20.7c0-1.7,1.3-3,3-3h20.8c1.7,0,3,1.3,3,3v20.8c0,1.6-1.3,2.8-2.8,2.8Z"/>
            <path class="cls-1" d="M16.7,14.4c0-4.1,3.4-7.5,7.5-7.5s7.5,3.4,7.5,7.5"/>
            <path class="cls-1" d="M13.5,42.8l-3-2.7c-.8-.8-1.3-1.9-1.3-3.1s0,0,0,0v-20.7c0-1.7,1.3-3,3-3h20.8s1.3,0,2.5,1.2l2.3,2.8"/>
            <line class="cls-2" x1="10" y1="14.4" x2="13.2" y2="17.9"/>
          </g>
          <line class="cls-4" x1="15.4" y1="39.5" x2="35.9" y2="39.5"/>
          <path class="cls-4" d="M18.8,29.8h.8c1.1,0,1.9.9,1.9,1.9v7.7h-4.6v-7.7c0-1.1.9-1.9,1.9-1.9Z"/>
          <path class="cls-4" d="M25.2,26.4h.8c1.1,0,1.9.9,1.9,1.9v11.1h-4.6v-11.1c0-1.1.9-1.9,1.9-1.9Z"/>
          <path class="cls-4" d="M31.9,22.5h.8c1.1,0,1.9.9,1.9,1.9v15.1h-4.6v-15.1c0-1.1.9-1.9,1.9-1.9Z"/>
        </g>
      </g>
    </g>
  </g>
</svg>