<?xml version="1.0" encoding="utf-8"?>
<!-- Generator: Adobe Illustrator 24.3.0, SVG Export Plug-In . SVG Version: 6.00 Build 0)  -->
<svg version="1.1" id="Layer_1" xmlns="http://www.w3.org/2000/svg" xmlns:xlink="http://www.w3.org/1999/xlink" x="0px" y="0px"
	 viewBox="0 0 50 50" style="enable-background:new 0 0 50 50;" xml:space="preserve">
<style type="text/css">
	.st0{fill:#71BAC0;}
	.st1{fill:#7ED0D6;}
	.st2{fill:#494949;}
</style>
<g>
	<g>
		<path class="st0" d="M40.1,15.3c-0.9,1-1.7,2-2.6,3c0.6,0.9,1.3,1.8,1.9,2.8l-4.5,1.6l-19.3,7.1L5.4,33.5l-3,1.1
			c-0.3-1.7,0.1-3.5,1.3-5c2.7-1.9,5.4-3.7,8.1-5.6l3.5-5.6l0.4-0.6l12.8-4.7l4.5-1.6c1.4-0.3,2.7-0.6,4.1-0.9
			C38,12.2,39,13.7,40.1,15.3z"/>
	</g>
	<g>
		<path class="st1" d="M33.1,11.9l-4.5,1.6l0,0l-13.4,4.9l0.4-0.6l7.8-12.3l1.9-1.4c0,0,1.7-1.4,2.9,0.7l4.6,6.7
			C32.9,11.7,33,11.8,33.1,11.9z"/>
	</g>
	<g>
		<path class="st2" d="M38.6,17.8l0.1-0.1l1.7-2.1c0.1-0.2,0.1-0.4,0-0.6l-3.1-4.6c-0.1-0.2-0.3-0.3-0.5-0.2c-1,0.2-1.9,0.5-2.9,0.7
			c-1.5-2.2-3.1-4.4-4.6-6.6c-0.7-1.2-1.6-1.6-2.3-1.7c-1.4-0.2-2.4,0.6-2.5,0.7l-1.9,1.4c-0.1,0.1-0.2,0.2-0.3,0.3L10.8,23.2
			c-2.7,1.9-5.5,3.7-8.2,5.6c-0.4,0.5-2.1,2.9-1.5,6c0.1,0.6,0.4,1.9,1.5,3.2c1.4,1.7,3.5,2.6,5.6,2.6c0.9,0,1.8-0.2,2.7-0.5
			l3.8,5.3c0.2,0.3,0.5,0.8,0.9,1.2c0.3,0.3,1.4,1.3,3,1.4c1.7,0.1,2.9-1,3.1-1.2c0.1-0.1,1.4-0.9,1.7-2.5c0.2-1.1-0.1-2.2-0.9-3.4
			l-0.7-1.1l2.6-1.7c0.3-0.2,0.5-0.5,0.5-0.8s0-0.7-0.3-1l-1.7-2.2L40,30.8c0.2,0,0.3-0.1,0.5-0.2c0,0,1.1-0.8,2.4-1.7
			c1.7-1.1,1.3-3.1,0.6-4.2L38.6,17.8z M36.7,11.2l2.7,4L38.1,17l-3.5-5.2L36.7,11.2z M4.6,36.5c-0.5-0.6-0.8-1.3-1-2.1
			c-0.3-1.4,0.1-2.7,0.9-3.8l7.5-5.2l5.1,7.6L16,33.8l0,0l0,0l-5.3,3.7l-0.3,0.2C8.3,38.7,5.9,38.2,4.6,36.5z M20.9,43.8
			c-0.1,0.6-0.6,0.9-0.7,1c-0.7,0.6-1.4,0.8-2,0.7c-0.2-0.1-0.6-0.3-0.9-0.5c-0.3-0.3-0.5-0.5-0.6-0.8L13,38.9l3.3-2.3l4.1,5.8
			C20.8,42.9,21,43.4,20.9,43.8z M21.8,36.8l-1.5,1l-1.9-2.7l0.3-0.2l1.4-0.3L21.8,36.8z M41.3,27L41.3,27c-0.8,0.6-1.6,1.1-2,1.4
			l-11-16c-0.2-0.2-0.5-0.3-0.7-0.1s-0.3,0.5-0.1,0.7l10.8,15.7L18,32.5l-5.2-7.8l0,0L23.9,7.2l2,3c0.1,0.1,0.3,0.2,0.4,0.2
			s0.2,0,0.3-0.1c0.2-0.2,0.3-0.5,0.1-0.7l-2.2-3.3l1.6-1.2c0,0,0.3-0.2,0.5-0.2s0.4,0.2,0.6,0.6l14,20.5
			C41.3,26.2,41.7,26.8,41.3,27z"/>
		<path class="st2" d="M37.8,8L37.8,8c0.3,0,0.5-0.2,0.6-0.4l1-5C39.5,2.3,39.3,2.1,39,2c-0.3-0.1-0.5,0.1-0.6,0.4l-1,5
			C37.4,7.7,37.6,8,37.8,8z"/>
		<path class="st2" d="M48.9,5.6c-0.2-0.2-0.5-0.3-0.7-0.1l-6.3,4.2c-0.2,0.2-0.3,0.5-0.1,0.7c0.1,0.1,0.3,0.2,0.4,0.2
			c0.1,0,0.2,0,0.3-0.1l6.3-4.2C49,6.1,49.1,5.8,48.9,5.6z"/>
		<path class="st2" d="M48.2,15L43,14c-0.3-0.1-0.5,0.1-0.6,0.4c-0.1,0.3,0.1,0.5,0.4,0.6l5.2,1h0.1c0.2,0,0.4-0.2,0.5-0.4
			C48.6,15.3,48.5,15,48.2,15z"/>
		<path class="st2" d="M12.1,33.8c-0.2-0.2-0.5-0.3-0.7-0.1l-2.2,1.6c-1.5,0.6-2.3-0.5-2.4-0.7l-1-1.5C5.6,32.9,5.3,32.8,5,33
			c-0.2,0.2-0.3,0.5-0.1,0.7l1,1.5c0.1,0.1,1,1.3,2.4,1.3c0.6,0,1.1-0.2,1.4-0.4l2.3-1.7C12.2,34.3,12.2,34,12.1,33.8z"/>
		<path class="st2" d="M13.2,33.7c0.4-0.1,0.7-0.4,0.6-0.8c-0.1-0.4-0.4-0.7-0.8-0.6c-0.4,0.1-0.7,0.4-0.6,0.8S12.8,33.7,13.2,33.7z
			"/>
	</g>
</g>
</svg>
