<svg xmlns="http://www.w3.org/2000/svg" version="1" viewBox="0 0 50 50"><path fill="#FFC787" d="M45.092 28.69l.14-.175V9.305c0-.564-.458-1.022-1.023-1.022H5.79a1.02 1.02 0 0 0-1.02 1.022v34.06L45.09 28.69z"/><path fill="#FFD49C" d="M45.202 9.16a1.01 1.01 0 0 0-.993-.877H5.79a1.02 1.02 0 0 0-1.02 1.022v14.572L45.2 9.16z"/><g fill="#444"><path d="M44.448 6.935L31.674 3.66a1.144 1.144 0 0 0-.568 2.216l4.033 1.035H12.67l12.7-4.345A1.144 1.144 0 0 0 24.63.4L5.522 6.938a2.16 2.16 0 0 0-1.897 2.138v38.418a2.17 2.17 0 0 0 2.167 2.167h23.292c.016 0 .03-.008.046-.008a1.34 1.34 0 0 0 .355-.072c.02-.007.038-.01.057-.018.51-.202.87-.696.87-1.276v-7.63l-2.722.78-1.11-1.1-1.105.468-1.627-1.05-1.626 2.346-2.632-2.16v7.434H5.913V9.2H19.59v11.437l2.722-.763 1.11 1.074 1.104-.457 1.628 1.028 1.627-2.293 2.633 2.112V9.2H44.09v19.086a1.144 1.144 0 0 0 2.287 0V9.076a2.164 2.164 0 0 0-1.93-2.14zM21.42 43.843l1.172.962 1.746-2.52.962.62.87-.37 1.002.994 1.41-.405v4.247H21.42v-3.53zm7.16-26.32l-1.17-.94-1.747 2.462-.96-.607-.872.36-1-.97-1.41.396V9.2h7.162v8.323z"/><path d="M11.16 23.863A1.94 1.94 0 0 0 9.22 25.8v4.972a1.94 1.94 0 0 0 1.937 1.937h4.97a1.94 1.94 0 0 0 1.938-1.938V25.8a1.94 1.94 0 0 0-1.937-1.937h-4.97zm5.078 1.937v4.972c0 .06-.047.107-.106.107H11.16a.106.106 0 0 1-.106-.108V25.8c0-.06.047-.107.106-.107h4.972c.06 0 .106.048.106.107z"/></g></svg>