<?xml version="1.0" encoding="utf-8"?>
<!-- Generator: Adobe Illustrator 22.0.1, SVG Export Plug-In . SVG Version: 6.00 Build 0)  -->
<svg version="1.1" id="Layer_1" xmlns="http://www.w3.org/2000/svg" xmlns:xlink="http://www.w3.org/1999/xlink" x="0px" y="0px"
	 viewBox="0 0 50 50" style="enable-background:new 0 0 50 50;" xml:space="preserve">
<style type="text/css">
	.st0{fill:#AFE55D;}
	.st1{fill:#C3FF68;}
	.st2{fill:#444444;}
	.st3{fill:none;stroke:#444444;stroke-linecap:round;stroke-miterlimit:10;}
</style>
<g>
	<g>
		<g>
			<polygon class="st0" points="35.6,37.9 42,45.1 43.5,42.2 37.9,35.9 			"/>
		</g>
	</g>
	<g>
		<g>
			<polygon class="st0" points="4.2,28.2 2.5,42.3 31.6,41.4 33.6,42.1 36.3,40.9 40.8,44.1 41,36.4 42,33.6 37.9,30 36.7,15.9 			
				"/>
		</g>
	</g>
	<g>
		<g>
			<polygon class="st1" points="36.5,12.5 6.6,12.5 4.5,28.8 37,17 			"/>
		</g>
	</g>
	<g>
		<g>
			<path class="st2" d="M40.7,43.1c-0.1,0-0.1,0-0.2-0.1L36,38.7c-0.1-0.1-0.1-0.3,0-0.4c0.1-0.1,0.3-0.1,0.4,0l4.5,4.3
				c0.1,0.1,0.1,0.3,0,0.4C40.9,43.1,40.8,43.1,40.7,43.1z"/>
		</g>
	</g>
	<g>
		<g>
			<path class="st2" d="M33.1,44.8L28.3,29l17.4,4.4l-5.2,2c-0.2,0.1-0.4,0-0.5-0.2c-0.1-0.2,0-0.4,0.2-0.5l3-1.2L29.4,30l3.9,12.6
				l1.7-3.6c0.1-0.2,0.3-0.3,0.5-0.2c0.2,0.1,0.3,0.3,0.2,0.5L33.1,44.8z"/>
		</g>
	</g>
	<g>
		<path class="st2" d="M43.6,45.3l-8.4-8.4l-2,4.8c-0.2-0.3-0.6-0.4-1-0.4v0h-8.1h-0.7H3.8l3.4-27.1h5v4.3c0,0.7,0.6,1.2,1.2,1.2
			s1.2-0.6,1.2-1.2v-4.3H27v4.3c0,0.7,0.6,1.2,1.2,1.2s1.2-0.6,1.2-1.2v-4.3h5L36.8,32l0,0c0.1,0.5,0.4,0.9,0.9,1l3.8,1.1l-4.6,2
			l6.6,6.6c0.2,0.2,0.6,0.4,0.9,0.4s0.6-0.1,0.9-0.4c0.5-0.5,0.5-1.3,0-1.8l-4-4l7.7-3.3l-9.8-2.7l-2.4-19.1h-7.2V9.2
			c0-4.7-3.9-8.6-8.6-8.6c-4.7,0-8.6,3.9-8.6,8.6v2.4H5L1,43.7h22.5h0.7h7.2l1.5,5.3l3.3-7.7l5.8,5.8l2.1,2c0.2,0.2,0.6,0.3,0.9,0.3
			c0.3,0,0.7-0.1,0.9-0.4c0.5-0.5,0.5-1.3,0-1.8L43.6,45.3z M14.7,9.2c0-3.4,2.8-6.1,6.1-6.1c3.4,0,6.1,2.8,6.1,6.1v2.4H14.7V9.2z"
			/>
	</g>
	<g>
		<g>
			<path class="st3" d="M37,32"/>
		</g>
	</g>
	<g>
		<g>
			<g>
				<path class="st2" d="M26,27.4c-0.2,0-0.4-0.1-0.5-0.2L23.2,25c-0.3-0.3-0.3-0.8,0-1.1s0.8-0.3,1.1,0l2.2,2.2
					c0.3,0.3,0.3,0.8,0,1.1C26.4,27.4,26.2,27.4,26,27.4z"/>
			</g>
		</g>
		<g>
			<g>
				<path class="st2" d="M32.8,26.8c-0.4,0-0.7-0.3-0.7-0.6l-0.7-4.9c-0.1-0.4,0.2-0.8,0.6-0.9c0.4-0.1,0.8,0.2,0.9,0.6l0.7,4.9
					c0.1,0.4-0.2,0.8-0.6,0.9C32.8,26.8,32.8,26.8,32.8,26.8z"/>
			</g>
		</g>
		<g>
			<g>
				<path class="st2" d="M26.4,35c0,0-0.1,0-0.1,0l-4.9-0.8c-0.4-0.1-0.7-0.4-0.6-0.9c0.1-0.4,0.5-0.7,0.9-0.6l4.9,0.8
					c0.4,0.1,0.7,0.4,0.6,0.9C27.1,34.8,26.8,35,26.4,35z"/>
			</g>
		</g>
	</g>
</g>
</svg>
