<svg xmlns="http://www.w3.org/2000/svg" id="Layer_1" x="0" y="0" version="1.1" viewBox="0 0 50 50" xml:space="preserve"><style>.st2{fill:#444}</style><path fill="#a475ef" d="M44.7 25l.4 4L3.9 44v-8.5l.2-5 41-14.9-.5 3.5z"/><path fill="#bf94f7" d="M44.4 9.3l-.4 7.2L3.8 31.2l-.2-9.3.2-4.1L44.3 3z"/><path d="M11.6 49.3H4.2c-.7 0-1.2-.6-1.2-1.2V1.9C3 1.2 3.6.7 4.2.7h41.1c.7 0 1.2.6 1.2 1.2v27c0 .7-.6 1.2-1.2 1.2s-1.2-.6-1.2-1.2V3.2H5.4v43.6h6.1c.7 0 1.2.6 1.2 1.2s-.4 1.3-1.1 1.3z" class="st2"/><path d="M10.9 33.9H22c.4 0 .8-.3.8-.8s-.3-.8-.8-.8H10.9c-.4 0-.8.3-.8.8s.4.8.8.8zm11.2 3H10.9c-.4 0-.8.3-.8.8s.3.8.8.8H22c.4 0 .8-.3.8-.8s-.3-.8-.7-.8zm0 4.5H10.9c-.4 0-.8.3-.8.8s.3.8.8.8H22c.4 0 .8-.3.8-.8s-.3-.8-.7-.8zm17.3-27.7c0-.4-.3-.8-.8-.8s-.8.3-.8.8v11.4H34v-12l5.1-4.6c.3-.3.3-.8 0-1.1-.3-.3-.8-.3-1.1 0L27.5 17l-6-5.5c-.3-.3-.7-.3-1 0l-8.8 7.4v-6.6c0-.4-.3-.8-.8-.8s-.8.3-.8.8v13.6c0 .4.3.8.8.8h27.7c.4 0 .8-.3.8-.8V13.7zm-6.9 11.4h-4.1v-7l4.1-3.7v10.7zm-5.5 0h-4.2V14.7l4.2 3.8v6.6zM21 13l.4.3v11.8h-4.1v-9L21 13zm-9.3 7.8c.1 0 .1-.1.2-.1l3.9-3.2v7.7h-4v-4.4zm26.1 12.9c-1.5 0-2.8.4-4 1.1l-1.4-2.1.1-2.2c0-.3-.2-.5-.5-.5s-.5.2-.5.5l-.1.9-.7-1c-.1-.4-.4-.4-.7-.3-.2.2-.3.5-.1.7l.7 1-1.1-.4c-.3-.1-.5 0-.6.3s0 .5.3.6l2.4.9 1.4 2.1c-1.8 1.4-3 3.7-3 6.2 0 4.3 3.5 7.9 7.9 7.9s7.9-3.5 7.9-7.9-3.7-7.8-8-7.8zm0 14.2c-3.5 0-6.4-2.9-6.4-6.4 0-2 .9-3.8 2.3-4.9l.8 1.1c-1.1.9-1.8 2.3-1.8 3.8 0 2.8 2.3 5 5 5 2.8 0 5-2.3 5-5 0-2.8-2.3-5-5-5-.9 0-1.7.3-2.4.7l-.7-1.2c.9-.5 2-.9 3.2-.9 3.5 0 6.4 2.9 6.4 6.4s-2.9 6.4-6.4 6.4zm-.5-6.4c.1 0 .2 0 .3-.1.2-.1.3-.4.2-.6.4 0 .7.3.7.7s-.3.7-.7.7-.7-.3-.7-.7h.2zm.5 2.2c1.2 0 2.2-1 2.2-2.2s-1-2.2-2.2-2.2c-.3 0-.6.1-.9.2l-.7-1.1c.5-.3 1-.4 1.6-.4 1.9 0 3.5 1.6 3.5 3.5S39.7 45 37.8 45s-3.5-1.6-3.5-3.5c0-1 .4-1.9 1.1-2.5l.8 1.2c-.3.4-.5.9-.5 1.4-.1 1.1.9 2.1 2.1 2.1z" class="st2"/></svg>