<?xml version="1.0" encoding="utf-8"?>
<!-- Generator: Adobe Illustrator 22.1.0, SVG Export Plug-In . SVG Version: 6.00 Build 0)  -->
<svg version="1.1" id="Layer_1" xmlns="http://www.w3.org/2000/svg" xmlns:xlink="http://www.w3.org/1999/xlink" x="0px" y="0px"
	 viewBox="0 0 50 50" style="enable-background:new 0 0 50 50;" xml:space="preserve">
<style type="text/css">
	.st0{fill:#A475EF;}
	.st1{fill:#BF94F7;}
	.st2{fill:#444444;}
</style>
<g>
	<polygon class="st0" points="44.7,25 45.1,29 3.9,44 3.9,35.5 4.1,30.5 45.1,15.6 44.6,19.1 	"/>
</g>
<g>
	<polygon class="st1" points="44.4,9.3 44,16.5 3.8,31.2 3.6,21.9 3.8,17.8 44.3,3 	"/>
</g>
<g>
	<path class="st2" d="M11.6,49.3H4.2c-0.7,0-1.2-0.6-1.2-1.2V1.9c0-0.7,0.6-1.2,1.2-1.2h41.1c0.7,0,1.2,0.6,1.2,1.2v27
		c0,0.7-0.6,1.2-1.2,1.2s-1.2-0.6-1.2-1.2V3.2H5.4v43.6h6.1c0.7,0,1.2,0.6,1.2,1.2S12.3,49.3,11.6,49.3z"/>
</g>
<g>
	<path class="st2" d="M10.9,33.9h11.1c0.4,0,0.8-0.3,0.8-0.8s-0.3-0.8-0.8-0.8H10.9c-0.4,0-0.8,0.3-0.8,0.8S10.5,33.9,10.9,33.9z"/>
	<path class="st2" d="M22.1,36.9H10.9c-0.4,0-0.8,0.3-0.8,0.8s0.3,0.8,0.8,0.8h11.1c0.4,0,0.8-0.3,0.8-0.8S22.5,36.9,22.1,36.9z"/>
	<path class="st2" d="M22.1,41.4H10.9c-0.4,0-0.8,0.3-0.8,0.8s0.3,0.8,0.8,0.8h11.1c0.4,0,0.8-0.3,0.8-0.8S22.5,41.4,22.1,41.4z"/>
</g>
<path class="st2" d="M39.4,13.7c0-0.4-0.3-0.8-0.8-0.8s-0.8,0.3-0.8,0.8v11.4H34v-12l5.1-4.6c0.3-0.3,0.3-0.8,0-1.1
	c-0.3-0.3-0.8-0.3-1.1,0L27.5,17l-6-5.5c-0.3-0.3-0.7-0.3-1,0l-8.8,7.4v-6.6c0-0.4-0.3-0.8-0.8-0.8s-0.8,0.3-0.8,0.8v13.6
	c0,0.4,0.3,0.8,0.8,0.8h27.7c0.4,0,0.8-0.3,0.8-0.8c0,0,0,0,0-0.1c0,0,0,0,0-0.1V13.7z M32.5,25.1h-4.1v-7l4.1-3.7V25.1z M27,25.1
	h-4.2V14.7l4.2,3.8V25.1z M21,13l0.4,0.3v11.8h-4.1v-9L21,13z M11.7,20.8c0.1,0,0.1-0.1,0.2-0.1l3.9-3.2v7.7h-4V20.8z"/>
<path class="st2" d="M37.8,33.7c-1.5,0-2.8,0.4-4,1.1l-1.4-2.1c0,0,0,0,0,0l0.1-2.2c0-0.3-0.2-0.5-0.5-0.5c-0.3,0-0.5,0.2-0.5,0.5
	l-0.1,0.9l-0.7-1C30.6,30,30.3,30,30,30.1c-0.2,0.2-0.3,0.5-0.1,0.7l0.7,1l-1.1-0.4c-0.3-0.1-0.5,0-0.6,0.3s0,0.5,0.3,0.6l2.4,0.9
	l1.4,2.1c-1.8,1.4-3,3.7-3,6.2c0,4.3,3.5,7.9,7.9,7.9s7.9-3.5,7.9-7.9S42.1,33.7,37.8,33.7z M37.8,47.9c-3.5,0-6.4-2.9-6.4-6.4
	c0-2,0.9-3.8,2.3-4.9l0.8,1.1c-1.1,0.9-1.8,2.3-1.8,3.8c0,2.8,2.3,5,5,5c2.8,0,5-2.3,5-5c0-2.8-2.3-5-5-5c-0.9,0-1.7,0.3-2.4,0.7
	L34.6,36c0.9-0.5,2-0.9,3.2-0.9c3.5,0,6.4,2.9,6.4,6.4S41.3,47.9,37.8,47.9z M37.3,41.5c0.1,0,0.2,0,0.3-0.1
	c0.2-0.1,0.3-0.4,0.2-0.6c0,0,0,0,0,0c0.4,0,0.7,0.3,0.7,0.7s-0.3,0.7-0.7,0.7s-0.7-0.3-0.7-0.7c0,0,0,0,0,0
	C37.2,41.5,37.3,41.5,37.3,41.5z M37.8,43.7c1.2,0,2.2-1,2.2-2.2s-1-2.2-2.2-2.2c-0.3,0-0.6,0.1-0.9,0.2l-0.7-1.1
	c0.5-0.3,1-0.4,1.6-0.4c1.9,0,3.5,1.6,3.5,3.5c0,1.9-1.6,3.5-3.5,3.5c-1.9,0-3.5-1.6-3.5-3.5c0-1,0.4-1.9,1.1-2.5l0.8,1.2
	c-0.3,0.4-0.5,0.9-0.5,1.4C35.6,42.7,36.6,43.7,37.8,43.7z"/>
</svg>
