<svg xmlns="http://www.w3.org/2000/svg" viewBox="0 0 50 50"><defs><style>.cls-1{fill:none;stroke:#444;stroke-linecap:round;stroke-linejoin:round;fill-rule:evenodd}</style></defs><g id="Camada_1"><path fill="#fc9d9a" d="M42.4 1.8l-37.2.4c-1.4 0-2 3.6-2 5v18.4c.1 0-.4 10.2-.4 10.2L4 47.6l9.4.8L45.5 37V10.2c0-1.4-1.7-8.3-3.1-8.3z"/><path fill="none" stroke="#444" stroke-linecap="round" stroke-linejoin="round" stroke-width="2.5" d="M31.1 48.5H6.5c-1.7 0-3.1-1.8-3.1-3.9V5.8c0-2.2 1.4-3.9 3.1-3.9H42c1.7 0 3.1 1.8 3.1 3.9v31.6"/><path d="M36.5 43.5h-21c-1.7 0-3-1.3-3-3V19.8c0-1.7 1.3-3 3-3h20.8c1.7 0 3 1.3 3 3v20.8c0 1.6-1.3 2.8-2.8 2.8zM16.7 14.4c0-4.1 3.4-7.5 7.5-7.5s7.5 3.4 7.5 7.5" class="cls-1"/><path d="M13.5 42.8l-3-2.7c-.8-.8-1.3-1.9-1.3-3.1V16.3c0-1.7 1.3-3 3-3H33s1.3 0 2.5 1.2l2.3 2.8" class="cls-1"/><path fill="none" stroke="#444" stroke-linecap="round" stroke-linejoin="round" d="M10 14.4l3.2 3.5"/><path fill="none" stroke="#444" stroke-linecap="round" stroke-linejoin="round" stroke-width=".5" d="M15.4 39.5h20.5m-17.1-9.7h.8c1.1 0 1.9.9 1.9 1.9v7.7h-4.6v-7.7c0-1.1.9-1.9 1.9-1.9zm6.4-3.4h.8c1.1 0 1.9.9 1.9 1.9v11.1h-4.6V28.3c0-1.1.9-1.9 1.9-1.9zm6.7-3.9h.8c1.1 0 1.9.9 1.9 1.9v15.1H30V24.4c0-1.1.9-1.9 1.9-1.9z"/></g></svg>