<?xml version="1.0" encoding="utf-8"?>
<!-- Generator: Adobe Illustrator 27.3.1, SVG Export Plug-In . SVG Version: 6.00 Build 0)  -->
<svg version="1.1" id="Camada_3" xmlns="http://www.w3.org/2000/svg" xmlns:xlink="http://www.w3.org/1999/xlink" x="0px" y="0px"
	 viewBox="0 0 50 50" style="enable-background:new 0 0 50 50;" xml:space="preserve">
<style type="text/css">
	.st0{fill:#FDCE74;}
	.st1{fill:#FBC14F;}
	.st2{fill:none;stroke:#444444;stroke-width:2.5;stroke-linecap:round;stroke-linejoin:round;stroke-miterlimit:10;}
	.st3{fill:none;stroke:#444444;stroke-width:2.5;stroke-linejoin:round;stroke-miterlimit:10;}
	.st4{fill:none;stroke:#444444;stroke-width:0.25;stroke-linecap:round;stroke-linejoin:round;stroke-miterlimit:10;}
	.st5{fill:none;stroke:#444444;stroke-width:0.75;stroke-linecap:round;stroke-linejoin:round;stroke-miterlimit:10;}
	.st6{fill:none;stroke:#444444;stroke-linecap:round;stroke-linejoin:round;stroke-miterlimit:10;}
	.st7{fill:none;stroke:#444444;stroke-width:1.2;stroke-linecap:round;stroke-linejoin:round;stroke-miterlimit:10;}
</style>
<g>
	<g>
		<path class="st0" d="M41.4,7.2H9l-7.1,8.6C1.5,16.6,6,18.2,6.5,19v2.7L44,8.4L41.4,7.2z"/>
		<path class="st1" d="M6.5,22.6v8.4c0,0.5-0.3,1-0.9,1.2l-2.3,0.8c-0.6,0.2-1,0.9-0.8,1.6c0.4,1.1,1.6,2.1,2.7,2.1l13.7,0.6
			c0.2,0,0.3,0,0.5-0.1l23.7-8.4c0.5-0.2,0.5-9.5,0.5-10l4.7-3.1c0-0.9-5.3-7.1-6.1-6.8L7.4,21.4C6.9,21.6,6.5,22.1,6.5,22.6z"/>
	</g>
	<path class="st2" d="M43.8,37c1.6,0,1.4,0,2,0c1.5,0,2.1-1.1,2.3-2.2c0.2-1.1,0-2.2,0-2.2h-4.5"/>
	<path class="st2" d="M6.8,32.7H2.4c0,0-0.7,4.3,2.3,4.3c3,0,20,0,20.5,0c0,0,0,0,0,0c0.2,0,4.7,0,7.2,0"/>
	<line class="st3" x1="7.2" y1="17.5" x2="7.2" y2="33.1"/>
	<path class="st2" d="M43.5,32.7V18.4c0,0,5,0.4,5.1-4l-5.6-6c-0.6-0.7-1.5-1.1-2.4-1.2h0c-0.3,0-0.6,0-0.9,0H25.5c0,0-0.1,0-0.3,0
		c-1.8,0-13.4,0-15.6,0h0C8.8,7.4,8,7.8,7.4,8.4l-5.1,5.4c-0.5,0.5-0.7,1.3-0.4,2c1.1,2.9,5.3,2.7,5.3,2.7"/>
	<path class="st2" d="M25.4,7.2"/>
	<polyline class="st4" points="9,16.3 9,32 41.4,32 41.4,16.9 	"/>
	<line class="st5" x1="22.2" y1="34.9" x2="28.5" y2="34.9"/>
	<polygon class="st6" points="8.6,8.4 2.3,14.9 25.1,14.9 25.1,8.6 	"/>
	<path class="st6" d="M2.3,14.9c0,0,0.6,2.7,3.8,2.7c2.4,0,3.2-1,3.8-2.7"/>
	<path class="st6" d="M17.5,14.9c0,0,0.6,2.7,3.8,2.7c2.4,0,3.2-1,3.8-2.7"/>
	<path class="st6" d="M14,8.6l-4.1,6.3c0,0,0.6,2.7,3.8,2.7c2.4,0,3.2-1,3.8-2.7l2.4-6.2"/>
	<polygon class="st6" points="41.7,8.4 47.9,14.9 25.1,14.9 25.1,8.6 	"/>
	<path class="st6" d="M47.9,15c0,0-0.6,2.7-3.8,2.7c-2.4,0-3.2-1-3.8-2.7"/>
	<path class="st6" d="M32.7,15c0,0-0.6,2.7-3.8,2.7c-2.4,0-3.2-1-3.8-2.7"/>
	<path class="st6" d="M36.2,8.7l4.1,6.3c0,0-0.6,2.7-3.8,2.7c-2.4,0-3.2-1-3.8-2.7l-2.4-6.2"/>
	<path class="st4" d="M23.3,32c-0.5-1.1-0.7-2.3-0.7-3.6c0-4.9,4-9,9-9s9,4,9,9c0,1.3-0.3,2.5-0.7,3.6"/>
	<path class="st4" d="M26.9,31.9c-0.7-1-1.2-2.2-1.2-3.5c0-3.2,2.6-5.8,5.8-5.8s5.8,2.6,5.8,5.8c0,1.3-0.5,2.6-1.2,3.6"/>
	<circle class="st4" cx="31.5" cy="28.4" r="2.3"/>
	<line class="st4" x1="14.2" y1="22.3" x2="31.7" y2="28.4"/>
	<polygon class="st4" points="20,24.3 19.5,21.9 14.2,20.3 14.8,22.5 13.1,24.1 18.1,25.7 	"/>
	<line class="st7" x1="2.6" y1="33.4" x2="48.6" y2="33.4"/>
	<line class="st6" x1="6.5" y1="9" x2="6.5" y2="10.5"/>
</g>
</svg>
