<svg xmlns="http://www.w3.org/2000/svg" version="1.0" viewBox="0 0 50 50"><path fill="#00C8E2" d="M47.049 25.002c0 4.443-1.311 8.581-3.577 12.041l-24.891 9.055C9.542 43.352 2.957 34.946 2.957 25.002c0-12.18 9.87-22.05 22.043-22.05 12.179.001 22.049 9.871 22.049 22.05z"/><path fill="#00DFFC" d="M34.557 5.123L4.916 15.912C8.369 8.27 16.069 2.953 25 2.953c3.423 0 6.672.779 9.557 2.17z"/><g fill="#031326"><path d="M25.002 1.704c-12.846 0-23.297 10.452-23.297 23.298S12.156 48.3 25.002 48.3a1.25 1.25 0 0 0 0-2.5c-11.468 0-20.797-9.33-20.797-20.798 0-11.468 9.33-20.798 20.797-20.798 11.469 0 20.799 9.33 20.799 20.798 0 4.047-1.169 7.973-3.38 11.353a1.25 1.25 0 0 0 2.091 1.369A23.17 23.17 0 0 0 48.3 25.002c.001-12.846-10.451-23.298-23.298-23.298z"/><path d="M25.002 9.373c-8.617 0-15.628 7.011-15.628 15.629 0 8.618 7.011 15.629 15.628 15.629 8.618 0 15.629-7.011 15.629-15.629 0-8.617-7.011-15.629-15.629-15.629zm0 31.008c-8.479 0-15.378-6.899-15.378-15.379S16.522 9.623 25.002 9.623s15.379 6.899 15.379 15.379-6.9 15.379-15.379 15.379z"/><path d="M25.002 13.963c-6.086 0-11.038 4.952-11.038 11.039s4.952 11.039 11.038 11.039c6.087 0 11.039-4.952 11.039-11.039s-4.952-11.039-11.039-11.039zm0 21.828c-5.949 0-10.788-4.84-10.788-10.789s4.839-10.789 10.788-10.789 10.789 4.84 10.789 10.789-4.84 10.789-10.789 10.789z"/><path d="M31.364 18.641a3.888 3.888 0 0 0-3.272-1.096 3.888 3.888 0 0 0-3.089-1.539 3.888 3.888 0 0 0-3.089 1.539 3.887 3.887 0 0 0-3.272 1.096 3.888 3.888 0 0 0-1.096 3.272 3.89 3.89 0 0 0-1.539 3.089c0 1.263.609 2.375 1.539 3.089-.152 1.163.203 2.379 1.096 3.272s2.11 1.248 3.272 1.096a3.888 3.888 0 0 0 3.089 1.539 3.887 3.887 0 0 0 3.089-1.539c1.163.152 2.379-.203 3.272-1.096s1.248-2.11 1.096-3.272a3.888 3.888 0 0 0 1.539-3.089 3.888 3.888 0 0 0-1.539-3.089 3.888 3.888 0 0 0-1.096-3.272zm-7.29 10.965l-3.97-3.963 2.061-2.061 1.909 1.901 4.21-4.21 2.061 2.062-6.271 6.271z"/></g></svg>