<svg xmlns="http://www.w3.org/2000/svg" version="1" viewBox="0 0 50 50"><path fill="#FCC34F" d="M4.789 45.565l42.204-15.361V8.431a5.425 5.425 0 0 0-5.425-5.425H8.431a5.425 5.425 0 0 0-5.425 5.425v33.137a5.398 5.398 0 0 0 1.783 3.997z"/><path fill="#FDCF72" d="M45.208 4.434a5.386 5.386 0 0 0-3.64-1.427H8.431a5.425 5.425 0 0 0-5.425 5.425v11.362l42.202-15.36z"/><g fill="#444"><path d="M41.569 1.925H8.431a6.513 6.513 0 0 0-6.506 6.507v33.137a6.514 6.514 0 0 0 6.506 6.507H24.02c1.295 0 1.304-.916 1.304-1.082V4.088h5.279v31.844a.65.65 0 0 0 1.298 0V4.088h9.667a4.348 4.348 0 0 1 4.343 4.343v21.77a1.081 1.081 0 1 0 2.164 0V8.431a6.514 6.514 0 0 0-6.506-6.506zM4.089 41.569V8.431a4.348 4.348 0 0 1 4.343-4.343h9.667v41.823H8.431a4.346 4.346 0 0 1-4.342-4.342zm20.586 3.642c0 .649-.172.701-.655.701h-4.624V4.088h5.279v41.123z"/><path d="M41.778 6.418h-5.871c-.654 0-1.186.532-1.186 1.186v5.871c0 .654.532 1.186 1.186 1.186h5.871c.654 0 1.186-.532 1.186-1.186V7.604c0-.654-.532-1.186-1.186-1.186zm.537 7.057a.538.538 0 0 1-.537.537h-5.871a.538.538 0 0 1-.537-.537V7.604c0-.296.241-.537.537-.537h5.871c.296 0 .537.241.537.537v5.871z"/></g></svg>