<?xml version="1.0" encoding="utf-8"?>
<!-- Generator: Adobe Illustrator 22.0.1, SVG Export Plug-In . SVG Version: 6.00 Build 0)  -->
<svg version="1.1" id="Layer_1" xmlns="http://www.w3.org/2000/svg" xmlns:xlink="http://www.w3.org/1999/xlink" x="0px" y="0px"
	 viewBox="0 0 50 50" style="enable-background:new 0 0 50 50;" xml:space="preserve">
<style type="text/css">
	.st0{fill:#ECC158;}
	.st1{fill:#F0CD77;}
	.st2{fill:#464646;}
</style>
<g>
	<g>
		<polygon class="st0" points="45.1,28.1 45,13.2 37.3,8.8 4.9,20.6 4.9,28.1 8.3,33.8 6.5,36.6 8.1,36.7 9,38 10.8,38.1 9.8,39.5 
			11.7,39.5 12.5,41.1 14.4,42.1 42.9,31.7 		"/>
	</g>
	<g>
		<polygon class="st1" points="25,1.7 4.9,13.3 4.9,20.6 37.3,8.8 		"/>
	</g>
	<g>
		<g>
			<path class="st2" d="M25.1,49.7L11.6,42L11,40.8H7.5l1-1.5l-0.1,0l-0.9-1.3l-3.1-0.1l2.5-4l-3.2-5.4V12.5L25,0.3l21.2,12.2
				l0.1,15.9l-3.1,5.3l2.2,4l-2.9,0.1L40.8,41l-1.4-0.6l-0.7,1.3L25.1,49.7z M13.5,40.2l11.6,6.6l11.8-6.9l1.5-2.7l1.4,0.6l1.3-2.4
				l0.3,0l-1-1.8l3.5-5.9l-0.1-13.8L25,3.2L6.2,14v13.7l3.6,6.1l-1,1.7l0,0l0.9,1.3l3.4,0.1l-0.9,1.4h0.3L13.5,40.2z"/>
		</g>
		<g>
			<path class="st2" d="M33.6,29.4l-4.4-2.5l-4.3,2.5l-4.3-2.5l-4.4,2.5v5.1l4.4,2.4l0.1,5.2l2.2,1.2l2.1-1.2l2.3,1.3l2.1-1.2
				l0.1-5.1l4.4-2.5L33.6,29.4z M22.1,34.4h-2.8l-1.4-2.5l1.4-2.5h2.8l1.4,2.5L22.1,34.4z M30.7,34.4h-2.8l-1.4-2.5l1.4-2.5h2.8
				l1.4,2.5L30.7,34.4z"/>
		</g>
	</g>
</g>
</svg>
