<?xml version="1.0" encoding="utf-8"?>
<!-- Generator: Adobe Illustrator 24.0.0, SVG Export Plug-In . SVG Version: 6.00 Build 0)  -->
<svg version="1.1" id="Layer_1" xmlns="http://www.w3.org/2000/svg" xmlns:xlink="http://www.w3.org/1999/xlink" x="0px" y="0px"
	 viewBox="0 0 50 50" style="enable-background:new 0 0 50 50;" xml:space="preserve">
<style type="text/css">
	.st0{fill:#F799FF;}
	.st1{fill:#E589EF;}
	.st2{fill:#494949;}
	.st3{fill-rule:evenodd;clip-rule:evenodd;fill:#494949;}
</style>
<g>
	<g>
		<path class="st0" d="M37.8,6.7c-0.7-1.2-2-1.9-3.4-1.9H15.6c-1.4,0-2.7,0.7-3.4,1.9L2.8,23.1c-0.7,1.2-0.7,2.7,0,3.9l0,0l38.6-14
			L37.8,6.7z"/>
	</g>
	<g>
		<path class="st1" d="M47.8,26.9c0.7-1.2,0.7-2.8,0-4l-6-10.3L2.2,27l9.7,16.7c0.2,0.4,0.5,0.7,0.9,1l31.5-11.4L47.8,26.9z"/>
	</g>
	<g>
		<path class="st2" d="M34.6,46.7H15.4c-1.8,0-3.5-1-4.5-2.6L1.4,27.6c-0.9-1.6-0.9-3.6,0-5.1L11,5.9c0.9-1.6,2.6-2.6,4.5-2.6h19.1
			c1.8,0,3.5,1,4.5,2.6l9.6,16.6c0.9,1.6,0.9,3.6,0,5.1L45,34.1c-0.3,0.6-1.1,0.8-1.7,0.5c-0.6-0.3-0.8-1.1-0.5-1.7l3.7-6.5
			c0.5-0.8,0.5-1.8,0-2.6L36.9,7.1c-0.5-0.8-1.3-1.3-2.3-1.3H15.4c-0.9,0-1.8,0.5-2.3,1.3L3.6,23.7c-0.5,0.8-0.5,1.8,0,2.6l9.6,16.6
			c0.5,0.8,1.3,1.3,2.3,1.3h19.1c0.9,0,1.8-0.5,2.3-1.3l0.8-1.4c0.3-0.6,1.1-0.8,1.7-0.5c0.6,0.3,0.8,1.1,0.5,1.7L39,44.1
			C38.1,45.7,36.4,46.7,34.6,46.7z"/>
	</g>
	<g>
		<path class="st2" d="M32.7,42.5H17.3c-1.5,0-2.9-0.8-3.6-2.1L6,27.1c-0.7-1.3-0.7-2.9,0-4.1l7.7-13.3c0.7-1.3,2.1-2.1,3.6-2.1
			h15.4c1.5,0,2.9,0.8,3.6,2.1L44,22.9c0.7,1.3,0.7,2.9,0,4.1l-7.7,13.3C35.5,41.7,34.2,42.5,32.7,42.5z M17.3,8
			c-1.3,0-2.5,0.7-3.2,1.8L6.5,23.2c-0.6,1.1-0.6,2.5,0,3.6l7.7,13.3c0.6,1.1,1.9,1.8,3.2,1.8h15.4c1.3,0,2.5-0.7,3.2-1.8l7.7-13.3
			c0.6-1.1,0.6-2.5,0-3.6L35.9,9.8C35.2,8.7,34,8,32.7,8H17.3z"/>
	</g>
	<g>
		<g>
			<path class="st2" d="M19,37.1c-0.1,0-0.2-0.1-0.2-0.2V11.2c0-0.1,0.1-0.2,0.2-0.2s0.2,0.1,0.2,0.2v25.7
				C19.3,37,19.2,37.1,19,37.1z"/>
		</g>
		<g>
			<g>
				
					<rect x="29.9" y="18.1" transform="matrix(0.6312 -0.7756 0.7756 0.6312 -3.0087 30.2289)" class="st3" width="0.7" height="0.4"/>
			</g>
			<g>
				<rect x="30.7" y="17.2" transform="matrix(0.631 -0.7758 0.7758 0.631 -2.0535 30.512)" class="st3" width="0.7" height="0.4"/>
			</g>
			<g>
				
					<rect x="31.5" y="16.3" transform="matrix(0.631 -0.7758 0.7758 0.631 -1.0202 30.8034)" class="st3" width="0.7" height="0.4"/>
			</g>
			<g>
				
					<rect x="27.6" y="21" transform="matrix(0.6312 -0.7756 0.7756 0.6312 -6.1511 29.5093)" class="st3" width="0.7" height="0.4"/>
			</g>
			<g>
				
					<rect x="28.4" y="20" transform="matrix(0.6316 -0.7753 0.7753 0.6316 -5.0997 29.7024)" class="st3" width="0.7" height="0.4"/>
			</g>
			<g>
				
					<rect x="29.2" y="19.1" transform="matrix(0.631 -0.7758 0.7758 0.631 -4.0597 30.0211)" class="st3" width="0.7" height="0.4"/>
			</g>
			<g>
				
					<rect x="25.3" y="23.8" transform="matrix(0.631 -0.7758 0.7758 0.631 -9.1871 28.7367)" class="st3" width="0.7" height="0.4"/>
			</g>
			<g>
				
					<rect x="26.1" y="22.9" transform="matrix(0.6316 -0.7753 0.7753 0.6316 -8.1569 29.0031)" class="st3" width="0.7" height="0.4"/>
			</g>
			<g>
				
					<rect x="26.8" y="21.9" transform="matrix(0.6316 -0.7753 0.7753 0.6316 -7.104 29.2111)" class="st3" width="0.7" height="0.4"/>
			</g>
			<g>
				<rect x="23" y="26.7" transform="matrix(0.631 -0.7758 0.7758 0.631 -12.2471 28.038)" class="st3" width="0.7" height="0.4"/>
			</g>
			<g>
				
					<rect x="23.7" y="25.7" transform="matrix(0.6318 -0.7751 0.7751 0.6318 -11.1954 28.2101)" class="st3" width="0.7" height="0.4"/>
			</g>
			<g>
				
					<rect x="24.5" y="24.8" transform="matrix(0.6316 -0.7753 0.7753 0.6316 -10.2446 28.4914)" class="st3" width="0.7" height="0.4"/>
			</g>
			<g>
				
					<rect x="20.7" y="29.5" transform="matrix(0.6316 -0.7753 0.7753 0.6316 -15.2837 27.2267)" class="st3" width="0.7" height="0.4"/>
			</g>
			<g>
				<rect x="21.5" y="28.6" transform="matrix(0.631 -0.7758 0.7758 0.631 -14.2527 27.55)" class="st3" width="0.7" height="0.4"/>
			</g>
			<g>
				
					<rect x="22.2" y="27.6" transform="matrix(0.6312 -0.7756 0.7756 0.6312 -13.2836 27.7271)" class="st3" width="0.7" height="0.4"/>
			</g>
			<g>
				
					<rect x="18.4" y="32.4" transform="matrix(0.6318 -0.7751 0.7751 0.6318 -18.3403 26.5164)" class="st3" width="0.7" height="0.4"/>
			</g>
			<g>
				
					<rect x="19.1" y="31.4" transform="matrix(0.631 -0.7758 0.7758 0.631 -17.3757 26.7473)" class="st3" width="0.7" height="0.4"/>
			</g>
			<g>
				
					<rect x="19.9" y="30.5" transform="matrix(0.631 -0.7758 0.7758 0.631 -16.3424 27.0387)" class="st3" width="0.7" height="0.4"/>
			</g>
			<g>
				
					<rect x="16" y="35.2" transform="matrix(0.6318 -0.7751 0.7751 0.6318 -21.3759 25.7333)" class="st3" width="0.7" height="0.4"/>
			</g>
			<g>
				
					<rect x="16.8" y="34.3" transform="matrix(0.631 -0.7758 0.7758 0.631 -20.4357 26.0486)" class="st3" width="0.7" height="0.4"/>
			</g>
			<g>
				
					<rect x="17.6" y="33.3" transform="matrix(0.631 -0.7758 0.7758 0.631 -19.3819 26.2564)" class="st3" width="0.7" height="0.4"/>
			</g>
		</g>
		<g>
			<path class="st2" d="M38.2,32.6H15.8c-0.1,0-0.2-0.1-0.2-0.2s0.1-0.2,0.2-0.2h22.4c0.1,0,0.2,0.1,0.2,0.2S38.4,32.6,38.2,32.6z"
				/>
		</g>
		<g>
			<path class="st2" d="M19.7,36h-0.8v-1.5h0.8c6.5,0,11.8-4.7,11.8-10.5s-5.3-10.5-11.8-10.5h-0.8V12h0.8C27,12,33,17.3,33,24
				C33,30.6,27,36,19.7,36z"/>
		</g>
	</g>
</g>
</svg>
