<svg xmlns="http://www.w3.org/2000/svg" id="Layer_1" x="0" y="0" version="1.1" viewBox="0 0 50 50" xml:space="preserve"><style>.st2,.st3{fill:#031326}.st3{fill-rule:evenodd;clip-rule:evenodd}</style><path fill="#f799ff" d="M37.8 6.7c-.7-1.2-2-1.9-3.4-1.9H15.6c-1.4 0-2.7.7-3.4 1.9L2.8 23.1c-.7 1.2-.7 2.7 0 3.9l38.6-14-3.6-6.3z"/><path fill="#e589ef" d="M47.8 26.9c.7-1.2.7-2.8 0-4l-6-10.3L2.2 27l9.7 16.7c.2.4.5.7.9 1l31.5-11.4 3.5-6.4z"/><path d="M34.6 46.7H15.4c-1.8 0-3.5-1-4.5-2.6L1.4 27.6c-.9-1.6-.9-3.6 0-5.1L11 5.9c.9-1.6 2.6-2.6 4.5-2.6h19.1c1.8 0 3.5 1 4.5 2.6l9.6 16.6c.9 1.6.9 3.6 0 5.1L45 34.1c-.3.6-1.1.8-1.7.5-.6-.3-.8-1.1-.5-1.7l3.7-6.5c.5-.8.5-1.8 0-2.6L36.9 7.1c-.5-.8-1.3-1.3-2.3-1.3H15.4c-.9 0-1.8.5-2.3 1.3L3.6 23.7c-.5.8-.5 1.8 0 2.6l9.6 16.6c.5.8 1.3 1.3 2.3 1.3h19.1c.9 0 1.8-.5 2.3-1.3l.8-1.4c.3-.6 1.1-.8 1.7-.5.6.3.8 1.1.5 1.7l-.9 1.4c-.9 1.6-2.6 2.6-4.4 2.6z" class="st2"/><path d="M32.7 42.5H17.3c-1.5 0-2.9-.8-3.6-2.1L6 27.1c-.7-1.3-.7-2.9 0-4.1l7.7-13.3c.7-1.3 2.1-2.1 3.6-2.1h15.4c1.5 0 2.9.8 3.6 2.1L44 22.9c.7 1.3.7 2.9 0 4.1l-7.7 13.3c-.8 1.4-2.1 2.2-3.6 2.2zM17.3 8c-1.3 0-2.5.7-3.2 1.8L6.5 23.2c-.6 1.1-.6 2.5 0 3.6l7.7 13.3c.6 1.1 1.9 1.8 3.2 1.8h15.4c1.3 0 2.5-.7 3.2-1.8l7.7-13.3c.6-1.1.6-2.5 0-3.6L35.9 9.8C35.2 8.7 34 8 32.7 8H17.3z" class="st2"/><path d="M19 37.1c-.1 0-.2-.1-.2-.2V11.2c0-.1.1-.2.2-.2s.2.1.2.2v25.7c.1.1 0 .2-.2.2z" class="st2"/><path d="M29.9 18.1h.7v.4h-.7z" class="st3" transform="rotate(-50.861 30.283 18.279)"/><path d="M30.7 17.2h.7v.4h-.7z" class="st3" transform="rotate(-50.876 31.047 17.414)"/><path d="M31.5 16.3h.7v.4h-.7z" class="st3" transform="rotate(-50.876 31.87 16.474)"/><path d="M27.6 21h.7v.4h-.7z" class="st3" transform="rotate(-50.861 27.955 21.224)"/><path d="M28.4 20h.7v.4h-.7z" class="st3" transform="rotate(-50.832 28.704 20.217)"/><path d="M29.2 19.1h.7v.4h-.7z" class="st3" transform="rotate(-50.876 29.528 19.277)"/><path d="M25.3 23.8h.7v.4h-.7z" class="st3" transform="rotate(-50.876 25.614 24.025)"/><path d="M26.1 22.9h.7v.4h-.7z" class="st3" transform="rotate(-50.832 26.44 23.084)"/><path d="M26.8 21.9h.7v.4h-.7z" class="st3" transform="rotate(-50.832 27.185 22.08)"/><path d="M23 26.7h.7v.4H23z" class="st3" transform="rotate(-50.876 23.35 26.892)"/><path d="M23.7 25.7h.7v.4h-.7z" class="st3" transform="rotate(-50.817 24.097 25.89)"/><path d="M24.5 24.8h.7v.4h-.7z" class="st3" transform="rotate(-50.832 24.858 25.025)"/><path d="M20.7 29.5h.7v.4h-.7z" class="st3" transform="rotate(-50.832 21.007 29.695)"/><path d="M21.5 28.6h.7v.4h-.7z" class="st3" transform="rotate(-50.876 21.834 28.757)"/><path d="M22.2 27.6h.7v.4h-.7z" class="st3" transform="rotate(-50.861 22.515 27.833)"/><path d="M18.4 32.4h.7v.4h-.7z" class="st3" transform="rotate(-50.817 18.741 32.564)"/><path d="M19.1 31.4h.7v.4h-.7z" class="st3" transform="rotate(-50.876 19.429 31.638)"/><path d="M19.9 30.5h.7v.4h-.7z" class="st3" transform="rotate(-50.876 20.252 30.698)"/><path d="M16 35.2h.7v.4H16z" class="st3" transform="rotate(-50.817 16.399 35.368)"/><path d="M16.8 34.3h.7v.4h-.7z" class="st3" transform="rotate(-50.876 17.164 34.505)"/><path d="M17.6 33.3h.7v.4h-.7z" class="st3" transform="rotate(-50.876 17.91 33.502)"/><path d="M38.2 32.6H15.8c-.1 0-.2-.1-.2-.2s.1-.2.2-.2h22.4c.1 0 .2.1.2.2s0 .2-.2.2z" class="st2"/><path d="M19.7 36h-.8v-1.5h.8c6.5 0 11.8-4.7 11.8-10.5s-5.3-10.5-11.8-10.5h-.8V12h.8C27 12 33 17.3 33 24c0 6.6-6 12-13.3 12z" class="st2"/></svg>