<svg xmlns="http://www.w3.org/2000/svg" id="Camada_1" data-name="Camada 1" viewBox="0 0 300 300"><defs><style>.cls-1{fill:#88d188}.cls-5{fill:#a77fbf}.cls-7{fill:#f4ca60}.cls-9{fill:#cf9ae8}.cls-11{fill:#f96a58}</style></defs><path fill="#fff" d="M192.24 41.68c-50.08 0-92.29 34.34-104.32 80.72l-20.64 5.32s-.05.02-.07.02c-.25.07-.49.15-.73.25l-.12.06c-.2.09-.4.2-.6.31-.04.03-.09.05-.13.08-.21.13-.41.28-.61.44-.04.04-.08.07-.12.11l-.24.21-31.22 31.04-31.22 31.04c-.93.93-1.52 2.14-1.66 3.45l-.52 4.74c-.02.14 0 .28-.01.42 0 .14-.02.28-.01.41 0 .18.03.36.06.54.02.12.02.24.04.36.05.23.11.45.19.68.02.07.03.13.06.2.11.29.24.56.39.83 0 0 0 .02.01.03.13.23.28.45.44.66.03.03.06.06.09.1.15.18.3.36.47.52.06.06.14.12.2.18.14.12.28.24.43.35.08.06.17.11.25.17.15.1.31.19.47.27l.15.09c.06.03.11.05.17.07.09.04.17.07.26.11.14.05.27.1.41.14.09.03.17.05.26.07.15.04.3.07.46.09.08.01.15.03.23.04.22.03.44.04.67.04h.06c.21 0 .41-.02.62-.04.07 0 .14-.02.2-.03.16-.02.31-.05.47-.09.04 0 .08-.01.12-.02l67.52-17.41 3.58 1.25-24.23 24.08c-.93.93-1.52 2.14-1.66 3.45l-.52 4.74v.2c0 .06-.02.12-.02.19v.44c0 .1.02.19.03.29.01.13.03.26.05.39l.03.22c.02.09.05.18.07.27.03.14.07.27.12.41.02.06.03.13.05.19.03.08.08.16.11.24.05.13.11.26.18.38.03.07.06.14.1.21 0 0 0 .02.01.03.04.08.1.15.15.22.06.09.12.19.18.28.04.05.07.11.11.16.03.04.06.07.09.1.05.06.1.11.15.17.06.07.12.15.19.21.04.04.08.09.13.13.06.06.14.12.2.18.07.06.14.13.21.19.03.02.05.05.08.07.04.03.09.06.14.09.08.06.17.11.25.17.1.07.21.14.31.2l.18.09c.04.02.08.05.12.07.06.03.11.04.17.07.09.04.18.07.26.11.06.02.12.05.18.07l41.83 14.56c.62.22 1.26.32 1.89.32 1.49 0 2.96-.58 4.05-1.67l14.08-14c9.66 9.31 21.05 16.83 33.63 22.03l.73 4.76a5.76 5.76 0 003.88 4.59 5.731 5.731 0 005.85-1.38l3.35-3.33c8.71 2.28 17.85 3.5 27.26 3.5 59.42 0 107.76-48.34 107.76-107.76S251.69 41.67 192.27 41.67z"/><circle cx="192.24" cy="149.44" r="102.01" fill="#95d3e5"/><path d="M235.59 73.36L166.45 91.3l37.83 13.17 37.84 13.17.24.09-6.77-44.37" class="cls-11"/><path d="M137.39 120.19l-69.2 17.83-31.22 31.04 69.19-17.83 31.23-31.04" class="cls-9"/><path d="M106.16 151.23l-69.19 17.83-31.23 31.03 69.21-17.84 31.21-31.02" class="cls-11"/><path d="M137.38 120.2l-31.23 31.03-31.2 31.02 37.94 13.22 20.91 7.28h.01l17.03 5.94-13.46-88.49" class="cls-7"/><path d="M137.39 120.19l13.46 88.49 62.45-62.06-75.91-26.43" class="cls-1"/><path d="M166.45 91.3l-29.06 28.89 75.91 26.43 29.06-28.89-37.95-13.22-37.96-13.21m-32.64 111.45l-76.24 19.64 41.84 14.56 34.4-34.2" class="cls-7"/><path d="M91.98 188.19l-34.41 34.2 76.24-19.64-20.91-7.28-20.92-7.28" class="cls-1"/><path d="M213.3 146.63l-31.22 31.04 6.73 44.25 31.23-31.03-6.74-44.26" class="cls-9"/><path d="M182.08 177.67l-31.24 31.04 6.74 44.25 31.23-31.04-6.73-44.25" class="cls-11"/><path d="M68.19 138.02l.52-4.74 69.2-17.82-.52 4.73-69.2 17.83z" class="cls-5"/><path fill="#cc5e56" d="M166.45 91.3l.52-4.73 63.91-15.72 4.71 2.51-69.14 17.94z"/><path d="M216.52 143.42l-3.22 3.21 6.74 44.26 2.79-6.45-6.31-41.02zM36.97 169.06l.52-4.74 31.22-31.04-.52 4.74-31.22 31.04z" class="cls-5"/><path fill="#dbb358" d="M137.39 120.2l.52-4.74 29.06-28.89-.52 4.73-29.06 28.9z"/><path fill="#ce4c42" d="M5.74 200.09l.52-4.73 31.23-31.04-.52 4.74-31.23 31.03z"/><path fill="#67a367" d="M57.57 222.39l.53-4.74 30.75-30.56 3.13 1.1-34.41 34.2z"/></svg>