<svg version="1" xmlns="http://www.w3.org/2000/svg" viewBox="0 0 50 50"><path fill="#FFA9A9" d="M20.407 30.553l13.767-5.01-.64-2.29-6.7-18.403a1.03 1.03 0 0 0-.615-.615l-7.865-2.847c-.47-.17-.992.022-1.24.455L12.97 9.058a1.03 1.03 0 0 0-.074.863l7.51 20.633z"/><path fill="#FC9D9A" d="M13.96 12.84L27.9 7.77l-1.065-2.92a1.03 1.03 0 0 0-.616-.615l-7.865-2.847c-.47-.17-.992.022-1.24.455L12.97 9.058a1.03 1.03 0 0 0-.074.863l1.065 2.92z"/><path fill="#444" d="M38.02 35.44a1.168 1.168 0 0 0-1.65-.06l-3.975 3.693-2.312-6.352 4.814-8.382c.253-.397-.196-1.297-.264-1.485l-6.7-18.403a2.185 2.185 0 0 0-1.315-1.313L18.754.29a2.194 2.194 0 0 0-2.652.97l-4.144 7.217a2.194 2.194 0 0 0-.16 1.844l11.114 30.53a1.94 1.94 0 0 0 1.82 1.273h6.784l2.586 7.104a.934.934 0 1 0 1.756-.64l-2.596-7.132 4.698-4.366c.473-.44.5-1.178.06-1.65zM18.964 23.17l6.512 2.357 2.21 6.07-6.512-2.356-2.21-6.07zm11.118-5.987l-3.46 6.026-2.206-6.066 3.46-6.026 2.207 6.065zm-5.23 6.627l-6.512-2.358-2.21-6.07 6.512 2.357 2.21 6.07zm8.077 1.14l-3.472 6.046-2.207-6.064 3.46-6.026 2.22 6.045zM18.07 2.527l7.69 2.785 1.486 4.085-3.46 6.026-1.173-3.22a.936.936 0 0 0-1.757.64l1.158 3.182-6.512-2.358-1.486-4.082 4.053-7.056zm6.94 37.26l-3.213-8.828 6.512 2.358 2.354 6.47H25.01z"/></svg>