<?xml version="1.0" encoding="utf-8"?>
<!-- Generator: Adobe Illustrator 28.0.0, SVG Export Plug-In . SVG Version: 6.00 Build 0)  -->
<svg version="1.1" id="Layer_1" xmlns="http://www.w3.org/2000/svg" xmlns:xlink="http://www.w3.org/1999/xlink" x="0px" y="0px"
	 viewBox="0 0 50 50" style="enable-background:new 0 0 50 50;" xml:space="preserve">
<style type="text/css">
	.st0{fill:#D1BD00;}
	.st1{fill:#F9F941;}
	.st2{fill:none;stroke:#444444;stroke-width:2.5;stroke-linecap:round;stroke-linejoin:round;stroke-miterlimit:10;}
	.st3{fill:none;stroke:#444444;stroke-width:0.5;stroke-linecap:round;stroke-linejoin:round;stroke-miterlimit:10;}
	.st4{fill:none;stroke:#444444;stroke-linecap:round;stroke-linejoin:round;stroke-miterlimit:10;}
</style>
<polygon class="st0" points="29.3,21.4 37.1,23.8 30.4,28.6 30.5,36.8 24,31.9 16.2,34.5 18.8,26.7 13.9,20.2 22.1,20.3 26.9,13.6 
	"/>
<path class="st1" d="M48.1,11.4l0.5-1l-2.1-4.2L29.9,6.7c-3.5,0-26.7-2.6-26.7,0.9L1.4,19l1.3,25.6l11.2,0.1l33.7-12
	C48.3,32.2,49.2,13.5,48.1,11.4z"/>
<path class="st2" d="M31.4,44.4L5.6,45c-2,0-3.7-1.7-3.7-3.8V9.8C1.9,7.7,3.6,6,5.6,6l38.8-0.6c2,0,3.7,1.7,3.7,3.8v24.3"/>
<g>
	<path class="st3" d="M25.8,36H14.9C10.5,36,7,32.5,7,28.1v-8.9c0-4.4,3.5-7.9,7.9-7.9h8.9c4.4,0,7.9,3.5,7.9,7.9v2.9"/>
	<path class="st3" d="M25.1,37.6H14.3c-4.9,0-8.9-4-8.9-8.9V18.6c0-4.9,4-8.9,8.9-8.9h10.1c4.9,0,8.9,4,8.9,8.9v2.8"/>
	<path class="st4" d="M17.2,20l4.8,2.1c0.2,0.1,0.2,0.3,0,0.4l-4.7,2.4"/>
	<line class="st3" x1="24.1" y1="16.2" x2="27.3" y2="18.2"/>
	<line class="st3" x1="23.5" y1="13.6" x2="29.3" y2="17.3"/>
	<path class="st4" d="M28.7,32.8c-1.1-3-3.8-5.2-7.1-5.5c2-0.9,3.5-2.9,3.5-5.2c0-3.1-2.5-5.7-5.7-5.7c-3.1,0-5.7,2.5-5.7,5.7
		c0,2.4,1.4,4.4,3.5,5.2c-3.7,0.4-6.7,2.8-7.4,6.3c0,0,1.8,1.9,5.1,2.2h11.3"/>
	<path class="st4" d="M36.6,24.9L31.8,27c-0.2,0.1-0.2,0.3,0,0.4l4.7,2.4"/>
	<path class="st4" d="M44.6,40.6l-20,0.2v-0.1c0-4.4,3.3-8,7.6-8.4c-2-0.9-3.5-2.9-3.5-5.2c0-3.1,2.5-5.7,5.7-5.7
		c3.1,0,5.7,2.5,5.7,5.7c0,2.4-1.4,4.4-3.5,5.2C40.4,32.6,44.6,35.3,44.6,40.6L44.6,40.6z"/>
</g>
</svg>
