<?xml version="1.0" encoding="utf-8"?>
<!-- Generator: Adobe Illustrator 24.0.0, SVG Export Plug-In . SVG Version: 6.00 Build 0)  -->
<svg version="1.1" id="Layer_1" xmlns="http://www.w3.org/2000/svg" xmlns:xlink="http://www.w3.org/1999/xlink" x="0px" y="0px"
	 viewBox="0 0 50 50" style="enable-background:new 0 0 50 50;" xml:space="preserve">
<style type="text/css">
	.st0{fill:#E56060;}
	.st1{fill:#FF6B6B;}
	.st2{fill:none;stroke:#444444;stroke-width:2.5;stroke-linecap:round;stroke-linejoin:round;stroke-miterlimit:10;}
	.st3{fill:#444444;}
</style>
<polygon class="st0" points="48.4,25.6 48.8,30 1.2,47.4 1.3,38.1 1.7,32.7 49.1,15.4 48.4,19.3 "/>
<polygon class="st1" points="48.4,8.5 47.8,16.5 1.3,33.4 1.3,23.3 1.6,18.8 48.5,1.7 "/>
<polyline class="st2" points="32.8,48.2 1.7,48.2 1.7,1.9 48.2,1.9 48.2,37.8 "/>
<g>
	<path class="st3" d="M14.3,26.2c0.1,0.8,1.6,5,5.9,8.3c-0.5,0.3-1,0.4-1.5,0.4c-2.2,0-4.8-1.6-6.8-4.3c-1.5-2-2.5-4.3-2.9-6.6
		l3.2,1.1l-3.5-2.9c-0.2-2-0.1-3.9,0.3-5.4c1.3,2.5,3.5,3.9,5.6,5.2c1,0.6,2,1.2,2.9,1.9l1.3,4.3l0.2-2.9c1.7,1.8,3.2,4.2,2.8,6.6
		c0.2,0.2,1.1,0.8,1.5,1c1-3.3-0.8-6.5-3.2-9c-1.4-1.5-3-2.4-4.6-3.4c-2.6-1.6-4.9-2.9-5.6-6.3l-0.5-2l-1.1,1.8
		c-2.3,3.9-2,12,2.2,17.5c2.4,3.1,5.4,5,8.2,5c1.3,0,2.2-0.4,3-1.1c2.5,1.5,4.7,2.1,7,2.1C26.3,36.5,21.2,34.8,14.3,26.2z"/>
	<path class="st3" d="M21.5,37.6c2.3,0,4.5-0.6,7-2.1c0.8,0.7,1.7,1.1,3,1.1c2.7,0,5.8-1.9,8.2-5c4.2-5.5,4.5-13.6,2.2-17.5
		l-1.1-1.8l-0.5,2c-0.8,3.3-3,4.7-5.6,6.3c-1.5,0.9-3.1,1.9-4.6,3.4c-2.4,2.5-4.2,5.7-3.2,9c0.3-0.2,1.2-0.8,1.5-1
		c-0.4-2.5,1-4.8,2.8-6.6l0.2,2.9l1.3-4.3c0.9-0.7,1.9-1.3,2.9-1.9c2.1-1.3,4.4-2.6,5.6-5.2c0.4,1.5,0.5,3.4,0.3,5.4L38,25.2
		l3.2-1.1c-0.5,2.3-1.4,4.6-2.9,6.6c-2.1,2.7-4.6,4.3-6.8,4.3c-0.5,0-1.1-0.1-1.5-0.4c4.3-3.3,5.7-7.5,5.9-8.3
		C28.8,34.8,23.7,36.5,21.5,37.6z"/>
</g>
</svg>
