<svg xmlns="http://www.w3.org/2000/svg" version="1" viewBox="0 0 50 50"><path fill="#71BAC0" d="M12.195 43.445l34.474-12.547c.511-1.88.788-3.856.788-5.898C47.457 12.597 37.403 2.543 25 2.543S2.543 12.597 2.543 25c0 7.642 3.82 14.389 9.652 18.445z"/><path fill="#7ED0D6" d="M37.307 6.164a22.348 22.348 0 0 0-12.222-3.621c-10.117 0-18.668 6.69-21.478 15.887l33.7-12.266z"/><path fill="#444" d="M25 48.5C12.042 48.5 1.5 37.958 1.5 25S12.042 1.5 25 1.5 48.5 12.042 48.5 25c0 2.093-.275 4.169-.818 6.171a1.042 1.042 0 1 1-2.014-.546c.495-1.824.746-3.717.746-5.625 0-11.808-9.606-21.414-21.414-21.414C13.192 3.586 3.586 13.192 3.586 25S13.192 46.414 25 46.414a1.043 1.043 0 0 1 0 2.086z"/><path fill="#444" d="M25 43.124c-9.993 0-18.124-8.131-18.124-18.124S15.007 6.876 25 6.876c9.994 0 18.124 8.131 18.124 18.124 0 9.994-8.13 18.124-18.124 18.124zm0-34.997C15.696 8.127 8.127 15.696 8.127 25S15.696 41.873 25 41.873 41.873 34.304 41.873 25 34.304 8.127 25 8.127z"/><path fill="#444" d="M27.475 28.915l6.994-12.264v-.48a.476.476 0 0 0-.476-.476H31.18a.476.476 0 0 0-.413.24l-5.386 9.403 2.094 3.577zm6.994-11.102l-3.897 7.113v8.61l3.897-9.987zm-18.938-.746v16.438l3.548-9.532zm15.353 17.205a.475.475 0 0 0 .164.033h2.945a.476.476 0 0 0 .476-.476v-8.744l-3.585 9.187zm-11.65-18.338a.478.478 0 0 0-.413-.24h-2.813a.47.47 0 0 0-.419.262l7.854 15.097h2.729l.824-1.351-7.762-13.768zm.191 8.712l-3.583 9.626a.481.481 0 0 0 .166.033h2.945a.476.476 0 0 0 .476-.476v-9.176l-.004-.007z"/></svg>