<svg xmlns="http://www.w3.org/2000/svg" version="1" viewBox="0 0 50 50"><path fill="#DC5E82" d="M7.79 37.06l35.831-13.041.017-.034 1.359-12.478a1.902 1.902 0 0 0-.753-1.732c-2.326-1.74-9.22-6.16-19.245-6.16S8.081 8.034 5.755 9.775a1.902 1.902 0 0 0-.753 1.732l2.78 25.52c.001.011.007.021.008.033z"/><path fill="#F56991" d="M42.361 8.498C39.097 6.473 33.064 3.615 25 3.615c-10.025 0-16.918 4.42-19.245 6.16a1.902 1.902 0 0 0-.753 1.732l1.11 10.185L42.361 8.498z"/><path fill="#031326" d="M25.001 47.377c-.446 0-.89-.102-1.295-.304L8.38 39.41a2.886 2.886 0 0 1-1.584-2.276l-2.78-25.521a2.913 2.913 0 0 1 1.145-2.634C7.716 7.068 14.764 2.623 25 2.623S42.285 7.068 44.84 8.98a2.906 2.906 0 0 1 1.143 2.634l-1.359 12.478a.991.991 0 0 1-1.971-.215l1.359-12.478a.902.902 0 0 0-.361-.83C41.255 8.776 34.64 4.607 25 4.607S8.746 8.776 6.349 10.568a.907.907 0 0 0-.361.831l2.78 25.519a.91.91 0 0 0 .499.717l15.324 7.663a.91.91 0 0 0 .815 0l8.394-4.196a.992.992 0 0 1 .886 1.774l-8.393 4.196a2.877 2.877 0 0 1-1.292.305z"/><path fill="#031326" d="M31.276 20.842l-6 8h-.684l-5.869-8.027v13.396H15.25V15.789h4.001l5.762 7.921 5.764-7.921h3.973v18.422h-3.474V20.842z"/></svg>