<?xml version="1.0" encoding="utf-8"?>
<!-- Generator: Adobe Illustrator 24.3.0, SVG Export Plug-In . SVG Version: 6.00 Build 0)  -->
<svg version="1.1" id="Layer_1" xmlns="http://www.w3.org/2000/svg" xmlns:xlink="http://www.w3.org/1999/xlink" x="0px" y="0px"
	 viewBox="0 0 50 50" style="enable-background:new 0 0 50 50;" xml:space="preserve">
<style type="text/css">
	.st0{fill:#FCC34F;}
	.st1{fill:#FDCF72;}
	.st2{fill:#444444;}
	.st3{fill:none;stroke:#494949;stroke-linecap:round;stroke-linejoin:round;stroke-miterlimit:10;}
</style>
<g>
	<g>
		<g>
			<g>
				<polygon class="st0" points="48.4,26 48.8,30.3 1.8,47.5 1.9,38.4 2.2,33 49,15.9 48.4,19.7 				"/>
			</g>
			<g>
				<polygon class="st1" points="48.4,9.1 47.8,16.9 1.9,33.8 1.9,23.7 2.2,19.2 48.5,2.4 				"/>
			</g>
			<g>
				<path class="st2" d="M36.9,49.4H1.8c-0.7,0-1.2-0.6-1.2-1.2V1.8c0-0.7,0.6-1.2,1.2-1.2h46.5c0.7,0,1.2,0.6,1.2,1.2V37
					c0,0.7-0.6,1.2-1.2,1.2S47,37.8,47,37V3.1H3v43.7h33.9c0.7,0,1.2,0.6,1.2,1.2S37.5,49.4,36.9,49.4z"/>
			</g>
		</g>
	</g>
	<g>
		<path class="st3" d="M33.3,28.4l2,2c0.8,0.8,0.8,2.1,0,2.9l0,0c-0.8,0.8-2.1,0.8-2.9,0l-2-2"/>
		<path class="st3" d="M27.6,34.1l0.9,0.9c0.8,0.8,0.8,2.1,0,2.8l0,0c-0.4,0.4-0.9,0.6-1.4,0.6"/>
		<polyline class="st3" points="12.1,23.7 12.1,20.6 10.1,18.6 17.3,11.3 18.8,12.9 21.4,12.9 		"/>
		<path class="st3" d="M24.1,36.8c0.8-0.8,0.8-2.1,0-2.9s-2.1-0.8-2.9,0c-0.3,0.4-0.7,0.7-1,1.1c-0.8,0.8-0.8,2.1,0,2.8
			c0.8,0.8,2.1,0.8,2.8,0C23.4,37.5,23.7,37.1,24.1,36.8z"/>
		<path class="st3" d="M18.2,31.2c0.9-0.9,0.9-2.2,0.1-3s-2.1-0.7-3,0.1c-0.4,0.4-0.7,0.8-1.1,1.2c-0.9,0.9-0.9,2.2-0.1,3
			c0.8,0.8,2.1,0.7,3-0.1C17.5,32,17.8,31.6,18.2,31.2z"/>
		<path class="st3" d="M21.8,33.3c0.9-0.9,1.1-2.3,0.4-3s-2.1-0.6-3,0.4l-0.6,0.6l-0.1,0.1l-0.1,0.1l-0.6,0.6
			c-0.1,0.1-0.1,0.1-0.2,0.2c0,0,0,0-0.1,0.1l-0.3,0.3c-0.9,0.9-1.1,2.3-0.3,3c0.7,0.7,2.1,0.6,3-0.3C20.5,34.7,21.2,34,21.8,33.3z"
			/>
		<path class="st3" d="M14.4,29.3l-0.3,0.3c-0.8,0.8-2,0.8-2.8,0c0,0,0,0-0.1-0.1c-0.7-0.8-0.7-1.9,0-2.7l0.3-0.3
			c0.8-0.8,2-0.8,2.8,0C15.1,27.2,15.2,28.5,14.4,29.3z"/>
		<path class="st3" d="M32,32.9c0.8,0.8,0.8,2.1,0,2.8l0,0l0,0c-0.8,0.8-2.1,0.8-2.8,0L28.5,35"/>
		<path class="st3" d="M34.7,29.8c0.8,0.8,2,0.8,2.8,0c0,0,0,0,0.1-0.1l0,0c0.7-0.8,0.7-1.9,0-2.7l-6.5-6.7"/>
		<path class="st3" d="M37.9,23.7v-3.1l2.1-2.1l-7.2-7.2l-1.5,1.5h-3.4c-1.6,0-3.2,0.7-4.4,1.8l-4.7,4.9c-0.7,0.7-0.7,1.8,0,2.5
			c0.6,0.6,1.5,0.7,2.2,0.2l5.1-3.3c1.7,1.9,4.6,2.1,6.5,0.4c0.2-0.1,0.3-0.3,0.5-0.5"/>
	</g>
</g>
</svg>
