<svg xmlns="http://www.w3.org/2000/svg" viewBox="0 0 49 50"><g fill="none" fill-rule="evenodd"><path fill="#00C8E2" d="M6.589 36.221l-.1 4.63.2 8.073 35.837-12.632-.46-3.85-.206-5.53.429-3.275z"/><path fill="#00DFFC" d="M47.402 17.203l-1.96 3.04-3.52-1.68-.16 5.918L6.34 36.807l-.33-8.726.109-3.934 34.076-12.01 1.289.867z"/><path fill="#031326" d="M44.915 19.105L24.588 6.306a.777.777 0 00-.82 0l-20.325 12.8-1.397-1.853L24.178 3.231 46.31 17.253l-1.395 1.852zm-18.54-2.835h-4.39a2.327 2.327 0 014.389 0zm-2.197 2.323a.771.771 0 01-.774-.773h1.55a.774.774 0 01-.776.773zm-10.85 19.38h21.703v-1.55H13.328v1.55zm1.55-3.099h1.55v-1.55h-1.55v1.55zm12.4 0h1.55v-1.55h-1.55v1.55zm-3.1-3.104h7.753v-4.65h-7.753v4.65zm7.752 16.28h1.551v-8.526h-1.55v8.526zm-7.752-6.977h6.203v-1.55h-6.203v1.55zm6.203 6.977H17.978v-8.526h4.65v2.326c0 .425.35.773.776.773h6.977v5.427zm-15.503 0h1.55v-8.526h-1.55v8.526zm33.017-31.627l-.043-.03-23.257-14.73a.774.774 0 00-.835 0L.503 16.393a.778.778 0 00-.232 1.071l.033.043 2.327 3.101a.776.776 0 001.03.195l1.913-1.208v29.228c0 .428.35.777.778.777h31.413a.77.77 0 00.747-.773.775.775 0 00-.747-.777h-2.734v-8.526h.774a.778.778 0 00.776-.777v-3.1a.774.774 0 00-.776-.773h-5.424v-1.55h2.323a.777.777 0 00.777-.777v-6.2a.777.777 0 00-.777-.777h-9.3a.777.777 0 00-.776.776v6.2c0 .43.35.777.776.777h2.324v1.551h-7.75v-2.328a.778.778 0 00-.777-.776h-.098l.773-1.122-1.285-.854-.94 1.36-.908-1.36-1.284.854.772 1.122h-.13a.774.774 0 00-.773.776v2.328h-.777a.774.774 0 00-.777.772v3.101c0 .428.35.776.777.776h.777v8.526H7.124V18.594l16.28-10.225v4.88a3.873 3.873 0 00-3.103 3.795c0 .428.348.777.777.777h.776a2.326 2.326 0 004.651 0h.772a.779.779 0 00.778-.777c0-1.84-1.296-3.43-3.1-3.796v-4.88L41.23 18.593v24.451a.776.776 0 001.55 0V19.596l1.916 1.207a.779.779 0 001.031-.195l2.324-3.1a.772.772 0 00-.157-1.086z"/><path stroke="#031326" stroke-linecap="round" stroke-linejoin="round" stroke-width="2.5" d="M24.116 2.25L47.4 17.203l-1.96 3.04L23.892 6.935 3.292 20.1 1.25 16.706z"/><path stroke="#031326" stroke-linecap="round" stroke-linejoin="round" stroke-width="2.5" d="M6.414 18.91v29.562H38.07m3.915-29.831v25.242"/></g></svg>