<?xml version="1.0" encoding="utf-8"?>
<!-- Generator: Adobe Illustrator 24.0.0, SVG Export Plug-In . SVG Version: 6.00 Build 0)  -->
<svg version="1.1" id="Layer_1" xmlns="http://www.w3.org/2000/svg" xmlns:xlink="http://www.w3.org/1999/xlink" x="0px" y="0px"
	 viewBox="0 0 50 50" style="enable-background:new 0 0 50 50;" xml:space="preserve">
<style type="text/css">
	.st0{fill:#DC5E82;}
	.st1{fill:#F56991;}
	.st2{fill:#444444;}
	.st3{fill:none;stroke:#444444;stroke-linecap:round;stroke-linejoin:round;stroke-miterlimit:10;}
</style>
<polygon class="st0" points="46,27.2 41.6,29 43.4,32.5 11.8,44.1 12.8,36.1 9,31.3 43,18.4 46.3,25 "/>
<polygon class="st1" points="42.1,11.6 42,19.3 8.9,31.3 4.6,23.3 3.9,18.8 38.2,6.6 39.9,8.5 "/>
<g>
	<path class="st2" d="M47.2,25v2.4c0,0.5-0.3,0.9-0.7,1l-3.6,1.2l0.9,1.3c0.1,0.2,0.2,0.4,0.2,0.6V39c0,0.8-0.2,1.5-0.5,2.2
		c-0.6,1.4-1.7,2.6-3.1,3.1c-1.4,0.6-3,0.6-4.5,0l-2.5-1v5.3c0,0.6-0.5,1.1-1.1,1.1h-8.1c0,0-0.1,0-0.2,0c-0.5,0-0.9-0.5-0.9-1
		c0-0.5,0.4-1,0.9-1c0,0,0.1,0,0.1,0h7v-5.1l-4.5-1.9l0.8-2l9.1,3.8c0.5,0.2,0.9,0.3,1.4,0.3c2,0,3.7-1.7,3.7-3.7v-7.1l-1.4-2.2
		c-0.1-0.1-0.1-0.2-0.1-0.2c-0.2-0.6,0.1-1.2,0.7-1.4l4.2-1.4v-1.4l-3.9-7.1c-0.2-0.3-0.2-0.7,0-1l0.6-1.3c0.5-0.9,0.4-2-0.1-2.9
		C38,6.5,31.1,2.5,23.7,2.5h-3.1c-8.7,0-15.7,7-15.7,15.7c0,3.2,1,6.3,2.8,8.9l6,8.7c0.2,0.2,0.2,0.5,0.2,0.8l-1.5,11h3.5
		c0.6,0,1.1,0.5,1.1,1.1c0,0.6-0.5,1.1-1,1.1h-4.8c-0.1,0-0.1,0-0.2,0c-0.5-0.1-0.9-0.6-0.9-1.2l1.6-11.8l-5.8-8.4
		c-2.1-3-3.1-6.5-3.1-10.1c0-9.8,8-17.8,17.8-17.8h3.1c8.2,0,15.9,4.5,19.9,11.6c0.8,1.5,0.9,3.3,0.1,4.9l-0.4,0.8l3.8,6.8
		C47.2,24.6,47.2,24.8,47.2,25z"/>
</g>
<g>
	<polyline class="st3" points="31.1,14.6 24.1,21.6 20,17.6 16,21.6 	"/>
	<polyline class="st3" points="25.1,14.6 31.1,14.6 31.1,20.6 	"/>
</g>
</svg>
