<?xml version="1.0" encoding="utf-8"?>
<!-- Generator: Adobe Illustrator 24.0.3, SVG Export Plug-In . SVG Version: 6.00 Build 0)  -->
<svg version="1.1" id="Layer_1" xmlns="http://www.w3.org/2000/svg" xmlns:xlink="http://www.w3.org/1999/xlink" x="0px" y="0px"
	 viewBox="0 0 50 50" style="enable-background:new 0 0 50 50;" xml:space="preserve">
<style type="text/css">
	.st0{fill:#A475EF;}
	.st1{fill:#BF94F7;}
	.st2{fill:#444444;}
</style>
<g>
	<polygon class="st0" points="47.59,22.7 47.64,26.99 1.53,43.48 1.05,30.73 1.02,26.74 47.58,9.79 	"/>
</g>
<g>
	<polygon class="st1" points="48.04,7.2 48.04,10.71 1.61,27.69 1.84,20.37 1.84,16.4 48.06,1.53 	"/>
</g>
<g>
	<path class="st2" d="M48.26,49.48H32.2c-0.69,0-1.25-0.56-1.25-1.25s0.56-1.25,1.25-1.25h14.81V3.42H3.14v43.56h3.09
		c0.69,0,1.25,0.56,1.25,1.25s-0.56,1.25-1.25,1.25H1.89c-0.69,0-1.25-0.56-1.25-1.25V2.17c0-0.69,0.56-1.25,1.25-1.25h46.37
		c0.69,0,1.25,0.56,1.25,1.25v46.06C49.51,48.92,48.95,49.48,48.26,49.48z"/>
</g>
<g>
	<g>
		<path class="st2" d="M37.44,18.86v3.17c0,0.43-0.35,0.78-0.78,0.78c-0.44,0-0.78-0.35-0.78-0.78v-3.17c0-1.9-1.54-3.44-3.44-3.44
			h-4.45l2.89,2.89c0.3,0.3,0.3,0.8,0,1.1c-0.16,0.16-0.35,0.23-0.55,0.23c-0.2,0-0.4-0.07-0.55-0.23l-4.22-4.22
			c-0.15-0.15-0.23-0.34-0.23-0.55c0-0.21,0.08-0.41,0.23-0.55l4.22-4.22c0.3-0.31,0.8-0.31,1.1,0c0.3,0.3,0.3,0.79,0,1.1
			l-2.89,2.89h4.45C35.19,13.86,37.44,16.1,37.44,18.86z"/>
	</g>
	<g>
		<path class="st2" d="M24.77,35.76c0,0.1-0.02,0.21-0.06,0.3c-0.04,0.09-0.09,0.18-0.17,0.25l-4.22,4.22
			c-0.16,0.16-0.35,0.23-0.55,0.23s-0.4-0.07-0.55-0.23c-0.3-0.3-0.3-0.79,0-1.1l2.89-2.89h-4.45c-2.75,0-5-2.24-5-5v-3.17
			c0-0.43,0.35-0.78,0.78-0.78c0.44,0,0.78,0.35,0.78,0.78v3.17c0,1.9,1.54,3.44,3.44,3.44h4.45l-2.89-2.89c-0.3-0.3-0.3-0.8,0-1.1
			c0.3-0.3,0.8-0.3,1.1,0l4.22,4.22c0.07,0.07,0.13,0.16,0.17,0.25C24.75,35.55,24.77,35.65,24.77,35.76z"/>
	</g>
	<g>
		<path class="st2" d="M21.88,23.87H9.21c-0.43,0-0.78-0.35-0.78-0.78v-1.05c0-1.01,0.54-1.97,1.41-2.49
			c1.12-0.67,3.03-1.47,5.71-1.47c2.65,0,4.56,0.8,5.69,1.47c0.88,0.52,1.42,1.47,1.42,2.49v1.04
			C22.66,23.52,22.31,23.87,21.88,23.87z M9.99,22.31H21.1v-0.26c0-0.48-0.24-0.91-0.65-1.15c-0.97-0.57-2.6-1.26-4.9-1.26
			c-2.33,0-3.95,0.68-4.91,1.25c-0.41,0.24-0.65,0.67-0.65,1.14V22.31z"/>
	</g>
	<g>
		<path class="st2" d="M15.54,16.48c-2.18,0-3.95-1.77-3.95-3.95s1.77-3.95,3.95-3.95s3.95,1.77,3.95,3.95S17.72,16.48,15.54,16.48z
			 M15.54,10.15c-1.32,0-2.39,1.07-2.39,2.39c0,1.32,1.07,2.39,2.39,2.39s2.39-1.07,2.39-2.39C17.93,11.22,16.86,10.15,15.54,10.15z
			"/>
	</g>
	<g>
		<path class="st2" d="M40.88,41.82H28.21c-0.43,0-0.78-0.35-0.78-0.78v-1.05c0-1.01,0.54-1.97,1.41-2.49
			c1.12-0.67,3.02-1.47,5.71-1.47c2.65,0,4.56,0.8,5.7,1.47c0.88,0.52,1.42,1.47,1.42,2.49v1.04
			C41.66,41.47,41.31,41.82,40.88,41.82z M28.99,40.25H40.1V40c0-0.48-0.25-0.91-0.65-1.15c-0.97-0.57-2.6-1.26-4.9-1.26
			c-2.32,0-3.95,0.68-4.9,1.25c-0.41,0.24-0.65,0.67-0.65,1.14V40.25z"/>
	</g>
	<g>
		<path class="st2" d="M34.55,34.43c-2.18,0-3.95-1.77-3.95-3.95s1.77-3.95,3.95-3.95c2.18,0,3.95,1.77,3.95,3.95
			S36.72,34.43,34.55,34.43z M34.55,28.09c-1.31,0-2.39,1.07-2.39,2.39c0,1.31,1.07,2.39,2.39,2.39c1.32,0,2.39-1.07,2.39-2.39
			C36.93,29.16,35.86,28.09,34.55,28.09z"/>
	</g>
</g>
</svg>
