<svg version="1" xmlns="http://www.w3.org/2000/svg" viewBox="0 0 50 50"><path fill="#E56060" d="M14.72 35.427L42.458 25.33 28.83 1.728a2.077 2.077 0 1 0-3.6 2.078l2.93 5.076a2.07 2.07 0 0 1-.757 2.83c-.994.574-2.26.24-2.836-.754l-1.72-2.98a2.078 2.078 0 1 0-3.6 2.08l5.172 8.957a2.075 2.075 0 0 1-3.595 2.075L12.928 7.41a2.077 2.077 0 0 0-2.84-.76 2.07 2.07 0 0 0-.753 2.836L15.1 19.47c.574.996.23 2.26-.764 2.834a2.073 2.073 0 0 1-2.836-.754l-1.344-2.328a2.078 2.078 0 0 0-2.84-.76 2.077 2.077 0 0 0-.754 2.835l8.158 14.13z"/><path fill="#FF6B6B" d="M9.82 26.94l27.738-10.095L28.83 1.727a2.077 2.077 0 1 0-3.6 2.078l2.93 5.076a2.07 2.07 0 0 1-.757 2.83c-.994.574-2.26.24-2.836-.754l-1.72-2.98a2.078 2.078 0 1 0-3.6 2.08l5.172 8.957a2.075 2.075 0 0 1-3.595 2.075L12.928 7.41a2.077 2.077 0 0 0-2.84-.76 2.072 2.072 0 0 0-.754 2.836L15.1 19.47c.573.996.23 2.26-.765 2.834a2.073 2.073 0 0 1-2.836-.754l-1.345-2.328a2.078 2.078 0 0 0-2.84-.76 2.077 2.077 0 0 0-.754 2.835l3.26 5.644z"/><path fill="#444" d="M31.15 46.632a11.89 11.89 0 0 1-3.086-.41 11.773 11.773 0 0 1-7.193-5.518c-3.265-5.657-1.32-12.916 4.337-16.182 5.658-3.266 12.916-1.32 16.182 4.336a11.77 11.77 0 0 1 1.182 8.99 11.77 11.77 0 0 1-5.52 7.192 11.78 11.78 0 0 1-5.903 1.592zm-.037-21.914c-1.707 0-3.435.434-5.016 1.347a9.997 9.997 0 0 0-4.69 6.11 9.997 9.997 0 0 0 1.007 7.64 10.002 10.002 0 0 0 6.11 4.69c2.6.695 5.31.338 7.64-1.007a9.994 9.994 0 0 0 4.688-6.11 9.997 9.997 0 0 0-1.006-7.64 10.07 10.07 0 0 0-8.733-5.03z"/><path fill="#444" d="M24.093 39.735a.89.89 0 0 1-.772-.445 8.96 8.96 0 0 1-.9-6.842 8.953 8.953 0 0 1 4.2-5.475.89.89 0 1 1 .89 1.542 7.186 7.186 0 0 0-3.37 4.394 7.192 7.192 0 0 0 .723 5.49.89.89 0 0 1-.77 1.335z"/><path fill="#444" d="M31.156 50.204c-5.335 0-10.53-2.767-13.385-7.71L5.79 21.743a2.953 2.953 0 0 1-.297-2.25 2.937 2.937 0 0 1 1.378-1.8 2.958 2.958 0 0 1 2.254-.298 2.95 2.95 0 0 1 1.803 1.384l1.344 2.327a1.184 1.184 0 0 0 1.62.428 1.185 1.185 0 0 0 .44-1.616L8.562 9.93a2.97 2.97 0 0 1 1.08-4.05A2.972 2.972 0 0 1 13.7 6.965l7.897 13.678c.157.272.41.466.717.548a1.18 1.18 0 0 0 1.45-.837c.083-.306.04-.624-.116-.896l-5.172-8.96a2.953 2.953 0 0 1-.297-2.252 2.95 2.95 0 0 1 1.383-1.803 2.972 2.972 0 0 1 4.055 1.087l1.72 2.98a1.186 1.186 0 0 0 1.62.428c.563-.326.757-1.05.43-1.613L24.46 4.25A2.974 2.974 0 0 1 25.545.194a2.957 2.957 0 0 1 2.253-.297A2.946 2.946 0 0 1 29.6 1.28l14.89 25.79a.89.89 0 0 1-1.543.89L28.057 2.172a1.18 1.18 0 0 0-.72-.554A1.19 1.19 0 0 0 26 3.36l2.93 5.076a2.966 2.966 0 1 1-5.135 2.966l-1.72-2.98a1.188 1.188 0 1 0-2.058 1.19l5.172 8.957c.394.683.498 1.48.293 2.246a2.945 2.945 0 0 1-1.378 1.8 2.95 2.95 0 0 1-2.25.297 2.94 2.94 0 0 1-1.802-1.378l-7.896-13.68a1.19 1.19 0 0 0-1.623-.434 1.186 1.186 0 0 0-.428 1.62l5.765 9.986c.397.687.502 1.487.295 2.25a2.954 2.954 0 0 1-1.385 1.8 2.97 2.97 0 0 1-4.052-1.08l-1.344-2.328a1.18 1.18 0 0 0-.72-.554 1.177 1.177 0 0 0-.903.12 1.172 1.172 0 0 0-.547.716 1.18 1.18 0 0 0 .12.902l11.98 20.753c3.762 6.516 12.123 8.757 18.64 4.994a.89.89 0 1 1 .89 1.54 15.34 15.34 0 0 1-7.687 2.064z"/></svg>