<svg width="50" height="50" viewBox="0 0 50 50" fill="none" xmlns="http://www.w3.org/2000/svg">
<path d="M47.7004 26.1L47.2004 22.1L30.1004 4.50001L25.7004 2.70001C21.6004 2.70001 7.90039 15.6 7.90039 18.2L3.60039 22.2L3.40039 28.1L17.6004 42.6L42.4004 33.8C43.0004 33.5 48.6004 27.8 47.8004 26.2L47.7004 26.1Z" fill="#FC9D9A"/>
<path d="M29.7004 45.4C27.3004 47.8 23.4004 47.8 21.0004 45.4L4.70039 29.2C2.30039 26.8 2.30039 22.9 4.70039 20.5L20.9004 4.3C23.3004 1.9 27.2004 1.9 29.6004 4.3L45.8004 20.5C48.2004 22.9 48.2004 26.8 45.8004 29.2L38.4004 36.6" stroke="#444444" stroke-width="2.5" stroke-linecap="round" stroke-linejoin="round"/>
<path d="M15.9 39.9H32.3C33.9 39.9 35.3 38.6 35.3 36.9V17.8L28.7 11.2H14.7M10.7 14.9H19.2M7.5 17.7H14.1M28.4 11.2L35.2 18H29.8C29 18 28.4 17.4 28.4 16.6V11.2Z" stroke="#444444" stroke-linecap="round" stroke-linejoin="round"/>
<path d="M11.7004 26.2H5.80039C5.30333 26.2 4.90039 26.603 4.90039 27.1V29.5C4.90039 29.9971 5.30333 30.4 5.80039 30.4H11.7004C12.1974 30.4 12.6004 29.9971 12.6004 29.5V27.1C12.6004 26.603 12.1974 26.2 11.7004 26.2Z" stroke="#444444" stroke-width="0.5" stroke-linecap="round" stroke-linejoin="round"/>
<path d="M20.4006 31.5H14.5006C14.0035 31.5 13.6006 31.9029 13.6006 32.4V34.8C13.6006 35.2971 14.0035 35.7 14.5006 35.7H20.4006C20.8976 35.7 21.3006 35.2971 21.3006 34.8V32.4C21.3006 31.9029 20.8976 31.5 20.4006 31.5Z" stroke="#444444" stroke-width="0.5" stroke-linecap="round" stroke-linejoin="round"/>
<path d="M30.0008 32.4V34.8C30.0008 35.3 29.6008 35.7 29.1008 35.7H23.2008C22.7008 35.7 22.3008 35.3 22.3008 34.8V32.4C22.3008 31.9 22.7008 31.5 23.2008 31.5H29.1008" stroke="#444444" stroke-width="0.5" stroke-linecap="round" stroke-linejoin="round"/>
<path d="M29.1008 26.2H23.2008C22.7037 26.2 22.3008 26.603 22.3008 27.1V29.5C22.3008 29.9971 22.7037 30.4 23.2008 30.4H29.1008C29.5978 30.4 30.0008 29.9971 30.0008 29.5V27.1C30.0008 26.603 29.5978 26.2 29.1008 26.2Z" stroke="#444444" stroke-width="0.5" stroke-linecap="round" stroke-linejoin="round"/>
<path d="M29.1008 20.9H23.2008C22.7037 20.9 22.3008 21.303 22.3008 21.8V24.2C22.3008 24.6971 22.7037 25.1 23.2008 25.1H29.1008C29.5978 25.1 30.0008 24.6971 30.0008 24.2V21.8C30.0008 21.303 29.5978 20.9 29.1008 20.9Z" stroke="#444444" stroke-width="0.5" stroke-linecap="round" stroke-linejoin="round"/>
<path d="M43.8 31.6L38.8 26.6C37.9 25.7 37.9 24.4 38.8 23.5L43.8 18.5" stroke="#444444" stroke-width="0.5" stroke-linecap="round" stroke-linejoin="round"/>
<path d="M39.3008 35.1L23.1008 18.9C22.2008 18 22.2008 16.4 23.1008 15.5L31.7008 6.90002" stroke="#444444" stroke-width="0.5" stroke-linecap="round" stroke-linejoin="round"/>
<path d="M5.90039 20.7H11.3004" stroke="#444444" stroke-linecap="round" stroke-linejoin="round"/>
<path d="M13.4004 20.7H19.9004" stroke="#444444" stroke-linecap="round" stroke-linejoin="round"/>
<path d="M4.10059 23.2H12.7006" stroke="#444444" stroke-linecap="round" stroke-linejoin="round"/>
<path d="M15.4004 23.2H20.8004" stroke="#444444" stroke-linecap="round" stroke-linejoin="round"/>
<path d="M28.4004 46.8L3.40039 21.8" stroke="#444444" stroke-width="0.5" stroke-miterlimit="10"/>
</svg>
