<svg xmlns="http://www.w3.org/2000/svg" id="Layer_1" x="0" y="0" version="1.1" viewBox="0 0 50 50" xml:space="preserve"><style>.st0{fill:#b68af3}.st1{fill:#e5e5e5}</style><path d="M17 25.3h-4c.3 8.4 7.1 15.2 15.5 15.5v-4c-6.3-.3-11.3-5.3-11.5-11.5z" class="st0"/><path d="M31 31.8c-.1.1-.2.1-.3.1-.1 0-.3-.1-.4-.2l-.8-1v4c5.1-.3 9.2-4.3 9.4-9.4h-4.4l1 .9c.2.2.2.5.1.7-.1.1-.3.1-.4.1-.1 0-.2 0-.3-.1l-2-1.8c-.1-.1-.2-.2-.2-.4 0-.1.1-.3.2-.4l2-1.7c.2-.2.5-.1.7.1.2.2.1.5-.1.7l-1 .8h4.4c-.3-5.1-4.3-9.2-9.4-9.4V19l.8-1c.2-.2.5-.2.7-.1.2.2.2.5.1.7l-1.7 2c-.1.1-.2.2-.4.2-.1 0-.3-.1-.4-.2l-1.8-2c-.2-.2-.2-.5.1-.7.2-.2.5-.2.7.1l.9 1v-4.2c-5.1.3-9.2 4.3-9.4 9.4h4.1l-1-.8c-.2-.2-.2-.5-.1-.7.2-.2.5-.2.7-.1l2 1.7c.1.1.2.2.2.4 0 .1-.1.3-.2.4l-2 1.8c-.1.1-.3.1-.4.1-.1 0-.3-.1-.4-.2-.2-.2-.2-.5.1-.7l1-.9H19c.3 5.1 4.3 9.2 9.4 9.4v-4l-.9 1c-.2.2-.5.2-.7.1-.2-.2-.2-.5-.1-.7l1.8-2c.1-.1.3-.2.4-.2.1 0 .3.1.4.2l1.7 2c.2.3.2.6 0 .8zm-2.1-4.2c-1.6 0-2.9-1.3-2.9-2.9s1.3-2.9 2.9-2.9c1.6 0 2.9 1.3 2.9 2.9s-1.3 2.9-2.9 2.9z" class="st0"/><path d="M28.4 12.8v-4c-8.4.3-15.2 7.1-15.5 15.5h4c.3-6.2 5.3-11.2 11.5-11.5z" class="st0"/><path d="M29.4 42.8v1.8c0 .3-.2.5-.5.5s-.5-.2-.5-.5v-1.8c-9.5-.3-17.2-8-17.5-17.5H9.3c-.3 0-.5-.2-.5-.5s.2-.5.5-.5h1.6c.3-9.5 8-17.2 17.5-17.5V5.3c0-.3.2-.5.5-.5s.5.2.5.5v1.5c9.5.3 17.2 8 17.5 17.5h.6V8c0-3.1-2.5-5.6-5.6-5.6H8.2C5.1 2.5 2.6 5 2.6 8v33.8c0 3.1 2.5 5.6 5.6 5.6h33.7c1 0 1.9-.2 2.7-.7 1.7-.9 2.9-2.8 2.9-4.9V25.3h-.6c-.2 9.5-7.9 17.2-17.5 17.5z" class="st0"/><path d="M28.9 23.9c-.5 0-.9.4-.9.9s.4.9.9.9.9-.4.9-.9-.4-.9-.9-.9zm.5 12.8v4c8.4-.3 15.2-7.1 15.5-15.5h-4c-.3 6.3-5.3 11.3-11.5 11.5zm0-27.9v4c6.2.3 11.2 5.2 11.4 11.4h4c-.1-8.3-6.9-15.1-15.4-15.4z" class="st0"/><path d="M28.9 21.9c-1.6 0-2.9 1.3-2.9 2.9s1.3 2.9 2.9 2.9c1.6 0 2.9-1.3 2.9-2.9s-1.3-2.9-2.9-2.9zm0 3.7c-.5 0-.9-.4-.9-.9s.4-.9.9-.9.9.4.9.9-.4.9-.9.9z" class="st1"/><path d="M46.9 24.3c-.3-9.5-8-17.2-17.5-17.5V5.3c0-.3-.2-.5-.5-.5s-.5.2-.5.5v1.5c-9.5.3-17.2 8-17.5 17.5H9.3c-.3 0-.5.2-.5.5s.2.5.5.5h1.6c.3 9.5 8 17.2 17.5 17.5v1.8c0 .3.2.5.5.5s.5-.2.5-.5v-1.8c9.5-.3 17.2-8 17.5-17.5h.6v-1h-.6zM28.4 8.8v4c-6.2.3-11.2 5.2-11.4 11.4h-4c.2-8.3 7-15.1 15.4-15.4zm0 32c-8.4-.3-15.2-7.1-15.5-15.5h4c.3 6.2 5.2 11.2 11.4 11.4v4.1zm1-11.7c-.1-.1-.2-.2-.4-.2-.1 0-.3.1-.4.2l-1.8 2c-.2.2-.2.5.1.7.2.2.5.2.7-.1l.9-1v4c-5.1-.3-9.2-4.3-9.4-9.4h4.1l-1 .9c-.2.2-.2.5-.1.7.1.1.2.2.4.2.1 0 .2 0 .3-.1l2-1.8c.1-.1.2-.2.2-.4 0-.1-.1-.3-.2-.4l-2-1.7c-.2-.2-.5-.1-.7.1-.2.2-.1.5.1.7l1 .8H19c.3-5.1 4.3-9.2 9.4-9.4V19l-.9-1c-.2-.2-.5-.2-.7-.1-.2.2-.2.5-.1.7l1.8 2c.1.1.2.2.4.2.1 0 .3-.1.4-.2l1.7-2c.2-.2.1-.5-.1-.7-.2-.2-.5-.1-.7.1l-.8 1v-4.2c5.1.3 9.2 4.3 9.4 9.4h-4.4l1-.8c.2-.2.2-.5.1-.7-.2-.2-.5-.2-.7-.1l-2 1.7c-.1.1-.2.2-.2.4 0 .1.1.3.2.4l2 1.8c.2.1.3.1.4.1.1 0 .3-.1.4-.2.2-.2.2-.5-.1-.7l-1-.9h4.4c-.3 5.1-4.3 9.2-9.4 9.4v-4l.8 1c.1.1.2.2.4.2.1 0 .2 0 .3-.1.2-.2.2-.5.1-.7l-1.7-1.9zm0 11.7v-4c6.2-.3 11.2-5.2 11.4-11.4h4c-.1 8.3-6.9 15.1-15.4 15.4zm11.5-16.5c-.3-6.2-5.2-11.2-11.4-11.4v-4c8.4.3 15.2 7.1 15.5 15.5h-4.1z" class="st1"/></svg>