<svg xmlns="http://www.w3.org/2000/svg" version="1" viewBox="0 0 50 50"><path fill="#00C8E2" d="M6.351 43.976l38.943-14.174V9.712a5.005 5.005 0 0 0-5.005-5.005H9.711a5.005 5.005 0 0 0-5.005 5.005v30.577c0 1.465.641 2.771 1.645 3.687z"/><path fill="#00DFFC" d="M43.647 6.023a4.97 4.97 0 0 0-3.358-1.317H9.711a5.005 5.005 0 0 0-5.005 5.005v10.484L43.647 6.023z"/><path fill="#031326" d="M35.557 29.431c0 1.797-.647 3.213-1.94 4.247-1.293 1.035-3.093 1.552-5.398 1.552-1.872 0-3.553-.31-5.044-.931a.99.99 0 0 1-.592-.918v-1.773c0-.705.715-1.178 1.371-.919.764.302 1.444.531 2.039.688.93.245 1.781.368 2.553.368.926 0 1.636-.177 2.131-.531.495-.354.742-.88.742-1.579 0-.39-.109-.737-.327-1.041-.218-.304-.538-.597-.96-.878-.422-.281-1.282-.731-2.58-1.348-1.216-.572-2.128-1.121-2.736-1.647s-1.094-1.139-1.457-1.838-.545-1.516-.545-2.45c0-1.761.597-3.145 1.79-4.152 1.193-1.007 2.843-1.511 4.949-1.511 1.035 0 2.022.123 2.961.368.652.17 1.325.388 2.019.655.515.198.756.795.545 1.305l-.604 1.456a.999.999 0 0 1-1.273.546 16.09 16.09 0 0 0-1.735-.558 8.499 8.499 0 0 0-2.049-.259c-.799 0-1.411.186-1.838.558-.427.372-.64.858-.64 1.457 0 .372.086.697.259.973.172.277.447.545.824.803.377.259 1.268.724 2.675 1.395 1.861.889 3.136 1.781 3.825 2.675s1.035 1.989 1.035 3.287z"/><path fill="#031326" d="M40.289 3.667H9.711a6.052 6.052 0 0 0-6.045 6.045v30.577a6.052 6.052 0 0 0 6.045 6.045H25a1.039 1.039 0 1 0 0-2.078H13.47V5.745h26.818a3.97 3.97 0 0 1 3.966 3.966V29.8a1.039 1.039 0 1 0 2.078 0V9.711a6.049 6.049 0 0 0-6.043-6.044zM12.223 44.255H9.711a3.964 3.964 0 0 1-3.956-3.872h4.043a.416.416 0 1 0 0-.832H5.745v-2.495H7.65a.416.416 0 1 0 0-.832H5.745v-2.495H7.65a.416.416 0 1 0 0-.832H5.745v-2.495h4.053a.416.416 0 1 0 0-.832H5.745v-2.495H7.65c.23 0 .416-.186.416-.416s-.186-.412-.416-.412H5.745v-2.495H7.65a.416.416 0 1 0 0-.831H5.745v-2.495h4.053a.416.416 0 1 0 0-.832H5.745V17.1H7.65a.416.416 0 1 0 0-.831H5.745v-2.495H7.65a.416.416 0 1 0 0-.832H5.745v-2.495h4.053a.416.416 0 1 0 0-.832H5.755a3.965 3.965 0 0 1 3.956-3.871h2.512v38.511z"/></svg>