<svg xmlns="http://www.w3.org/2000/svg" id="Camada_1" x="0" y="0" version="1.1" viewBox="0 0 48 48" xml:space="preserve"><style>.st3{fill:none;stroke:#444;stroke-width:.25;stroke-linecap:round;stroke-linejoin:round;stroke-miterlimit:10}</style><path fill="#e56060" d="M5.49 39.58l11.8 4.03 25.67-9.19.03-6.46V7.9L35.7 5.1 23.41 2.96l-8.97 3.08.01 4.8-8.97 3.08z"/><path fill="#ff6b6b" d="M5.48 17.12L36.69 5.44l-12.38-4.3L5.48 7.68l.41 5.19-1.23.84 1.23 1.22z"/><path fill="none" stroke="#444" stroke-linecap="round" stroke-linejoin="round" stroke-miterlimit="10" stroke-width="2.5" d="M5.14 7.97l18.82-6.54 18.69 6.54v32.35L23.83 46.7 5.14 40.26z"/><path d="M14.97 4.98v5.15L5.2 13.51l8.74 2.99 9.95-3.52-8.85-2.83" class="st3"/><path d="M15.07 4.84l8.96 3.01v21.99l-10.09 3.43 10.09 3.49 9.95-3.49-9.82-3.4" class="st3"/><path d="M24.03 36.88v10.4l10.1-3.46-.04-16.15-9.93-3.53 8.63-3.06 9.86 3.56-8.43 2.98m-1.43-6.66l.01-16m-.16-.12l-8.61 3.01M13.94 43.82V16.5" class="st3"/></svg>