<svg xmlns="http://www.w3.org/2000/svg" viewBox="0 0 50 50"><defs><style>.cls-3{fill:#444}</style></defs><g id="Layer_4" data-name="Layer 4"><path fill="#00dffc" d="M6.83 1.6h30.31v27.76H6.83z"/><path fill="#00c8e2" d="M36.83 2.55L6.28 13.68V42.9l31-11.3V3.91a2.17 2.17 0 0 0-.45-1.36z"/><path d="M17.53 23.3a.36.36 0 0 1-.33-.22 4.91 4.91 0 0 1-.29-1.66 4.73 4.73 0 1 1 9.46 0 4.81 4.81 0 0 1-.29 1.65.35.35 0 0 1-.46.21.35.35 0 0 1-.2-.45 4 4 0 0 0 .25-1.41 4 4 0 1 0-8.06 0 4 4 0 0 0 .25 1.41.35.35 0 0 1-.2.45.3.3 0 0 1-.13.02z" class="cls-3"/><path d="M16.66 25a.35.35 0 0 1-.29-.16 6.23 6.23 0 0 1-1-3.45 6.3 6.3 0 1 1 11.92 2.86.36.36 0 0 1-.48.15.35.35 0 0 1-.15-.47 5.47 5.47 0 0 0 .61-2.54A5.6 5.6 0 1 0 17 24.48a.36.36 0 0 1-.1.49.33.33 0 0 1-.24.03zM32.68 18.08h-2.27a.86.86 0 0 1-.86-.86V15a.86.86 0 0 1 .86-.86h2.27a.86.86 0 0 1 .87.86v2.27a.86.86 0 0 1-.87.81zm-2.27-3.25a.12.12 0 0 0-.12.12v2.27a.12.12 0 0 0 .12.12h2.27a.12.12 0 0 0 .13-.12V15a.12.12 0 0 0-.13-.12z" class="cls-3"/><path d="M30.33 21.67H29a.87.87 0 0 1-.86-.86v-1.32a.86.86 0 0 1 .86-.86h1.32a.85.85 0 0 1 .86.86v1.32a.86.86 0 0 1-.85.86zM29 19.37a.12.12 0 0 0-.12.12v1.32a.12.12 0 0 0 .12.12h1.32a.12.12 0 0 0 .13-.12v-1.32a.12.12 0 0 0-.13-.12zM33.38 24.28h-1.32a.87.87 0 0 1-.87-.86V22.1a.87.87 0 0 1 .87-.87h1.32a.87.87 0 0 1 .86.87v1.32a.87.87 0 0 1-.86.86zM32.06 22a.13.13 0 0 0-.13.13v1.32a.13.13 0 0 0 .13.12h1.32a.13.13 0 0 0 .12-.12V22.1a.13.13 0 0 0-.12-.13zM12.66 18.08h-2.27a.86.86 0 0 1-.87-.86V15a.86.86 0 0 1 .87-.86h2.27a.86.86 0 0 1 .86.86v2.27a.86.86 0 0 1-.86.81zm-2.27-3.25a.12.12 0 0 0-.13.12v2.27a.12.12 0 0 0 .13.12h2.27a.12.12 0 0 0 .12-.12V15a.12.12 0 0 0-.12-.12zM14.05 21.67h-1.31a.87.87 0 0 1-.87-.86v-1.32a.86.86 0 0 1 .87-.86h1.31a.86.86 0 0 1 .87.86v1.32a.87.87 0 0 1-.87.86zm-1.31-2.3a.12.12 0 0 0-.13.12v1.32a.12.12 0 0 0 .13.12h1.31a.12.12 0 0 0 .13-.12v-1.32a.12.12 0 0 0-.13-.12zM12.25 25.2h-1.46a.85.85 0 0 1-.86-.86v-1.46a.85.85 0 0 1 .86-.86h1.46a.86.86 0 0 1 .87.86v1.46a.86.86 0 0 1-.87.86zm-1.46-2.44a.12.12 0 0 0-.12.12v1.46a.12.12 0 0 0 .12.12h1.46a.12.12 0 0 0 .13-.12v-1.46a.12.12 0 0 0-.13-.12z" class="cls-3"/><rect width="7.67" height=".92" x="18.23" y="3.76" class="cls-3" rx=".33" ry=".33"/><rect width="2.06" height=".92" x="27.17" y="3.76" class="cls-3" rx=".33" ry=".33"/><rect width="2.06" height=".92" x="14.89" y="3.76" class="cls-3" rx=".33" ry=".33"/><path d="M28.57 45.54a.72.72 0 0 1-.42-.13l-9.6-6.48a3.37 3.37 0 1 1 3.78-5.59l2.89 1.95a.75.75 0 1 1-.84 1.24l-2.89-2a1.88 1.88 0 1 0-2.1 3.11L29 44.17a.75.75 0 0 1-.42 1.37z" class="cls-3"/><path d="M30.35 49.15a.76.76 0 0 1-.69-.45l-4.14-9.44a.75.75 0 0 1 1.38-.6L31 48.1a.75.75 0 0 1-.39 1 .66.66 0 0 1-.26.05z" class="cls-3"/><path d="M26.21 39.71a.76.76 0 0 1-.69-.45l-6.31-14.4a2.71 2.71 0 0 1 0-2.23A3.13 3.13 0 0 1 20.87 21a3.2 3.2 0 0 1 2.41 0 2.67 2.67 0 0 1 1.51 1.44L29.43 33a.75.75 0 1 1-1.37.6L23.42 23a1.21 1.21 0 0 0-.69-.64 1.63 1.63 0 0 0-1.26.05 1.64 1.64 0 0 0-.87.83 1.21 1.21 0 0 0 0 1l6.3 14.42a.76.76 0 0 1-.39 1 .8.8 0 0 1-.3.05z" class="cls-3"/><path d="M30 36.79a.75.75 0 0 1-.68-.45L27.8 33a3.05 3.05 0 0 1 5.59-2.45l1.54 3.52a.75.75 0 0 1-.38 1 .76.76 0 0 1-1-.39L32 31.16a1.55 1.55 0 1 0-2.84 1.25l1.46 3.33a.76.76 0 0 1-.38 1 .85.85 0 0 1-.24.05z" class="cls-3"/><path d="M34.39 35.46a.76.76 0 0 1-.69-.46l-.92-2.1a3.06 3.06 0 0 1-.05-2.34 3.06 3.06 0 0 1 4-1.73 3.05 3.05 0 0 1 1.69 1.62l1.13 2.59a.75.75 0 0 1-.38 1 .76.76 0 0 1-1-.39L37 31.06a1.52 1.52 0 0 0-.85-.82 1.58 1.58 0 0 0-1.19 0 1.54 1.54 0 0 0-.82.86 1.56 1.56 0 0 0 0 1.18l.93 2.11a.75.75 0 0 1-.39 1 .66.66 0 0 1-.29.07z" class="cls-3"/><path d="M39.66 36a.75.75 0 0 1-.69-.45l-1.17-2.66a3 3 0 1 1 5.58-2.45l1.18 2.68a.75.75 0 0 1-1.38.6L42 31a1.55 1.55 0 0 0-2.87.06 1.51 1.51 0 0 0 0 1.18L40.34 35a.73.73 0 0 1-.34 1 .66.66 0 0 1-.34 0zM36.81 6.63h-30a.5.5 0 0 1-.5-.5.5.5 0 0 1 .5-.5h30a.5.5 0 0 1 .5.5.5.5 0 0 1-.5.5z" class="cls-3"/><path d="M24.94 49.65H8.8a3.42 3.42 0 0 1-3.42-3.42V3.77A3.42 3.42 0 0 1 8.8.35h26.53a3.42 3.42 0 0 1 3.41 3.42v22.84a1.25 1.25 0 0 1-2.5 0V3.77a.92.92 0 0 0-.91-.92H8.8a.92.92 0 0 0-.92.92v42.46a.92.92 0 0 0 .92.92h16.14a1.25 1.25 0 1 1 0 2.5z" class="cls-3"/></g></svg>