<?xml version="1.0" encoding="utf-8"?>
<!-- Generator: Adobe Illustrator 24.1.2, SVG Export Plug-In . SVG Version: 6.00 Build 0)  -->
<svg version="1.1" id="Layer_1" xmlns="http://www.w3.org/2000/svg" xmlns:xlink="http://www.w3.org/1999/xlink" x="0px" y="0px"
	 viewBox="0 0 50 50" style="enable-background:new 0 0 50 50;" xml:space="preserve">
<style type="text/css">
	.st0{fill:#00C8E2;}
	.st1{fill:#00DFFC;}
	.st2{fill:#424242;}
	.st3{fill:none;stroke:#424242;stroke-width:2.5;stroke-linecap:round;stroke-linejoin:round;stroke-miterlimit:10;}
	.st4{fill:none;stroke:#424242;stroke-linecap:round;stroke-linejoin:round;stroke-miterlimit:10;}
</style>
<g>
	<g>
		<path class="st0" d="M40.1,19.4C40,19.2,40,18.9,40,18.6c0-0.1,0-0.2,0-0.3c0-0.1,0-0.2,0-0.3c0-0.1,0-0.2,0-0.3c0,0,0,0,0,0
			c0-0.1-0.1-0.2-0.1-0.3c0-0.1,0-0.2,0-0.3c0-0.1,0.1-0.3,0.2-0.4c0.1-0.1,0.2-0.2,0.3-0.3c0.1-0.1,0.3-0.1,0.4-0.1
			c0.1,0,0.3,0,0.4,0c0.1,0,0.2,0.1,0.3,0.1c0.1-0.1,0.2-0.2,0.4-0.2c0.1,0,0.3,0,0.4,0l0-4.9c-2.6-2.8-5.7-5.1-8.5-7.8H8.3
			c-0.1,0-0.8-0.1-1.4,0.4C6.1,4.5,6.1,5.6,6.2,5.6v32.1L6.7,38l6.9-3.8l1.7-0.9l5.1-2.8L40.1,19.4C40.1,19.5,40.1,19.5,40.1,19.4z"
			/>
	</g>
	<g>
		<path class="st1" d="M33.7,3.5c0.1,0.1,0.1,0.1,0.2,0.2l-11.5,6.9L22,10.9l-0.8,0.5l-0.4,0.3l-2.8,1.7c0,0,0,0,0,0l-0.5,0.3
			l-2.7,1.6l-0.3,0.2l-1.5,0.9l-0.4,0.3l-0.9,0.5l-0.4,0.3l-5,3V5.6c0-0.1-0.1-1.1,0.7-1.7c0.6-0.5,1.3-0.4,1.4-0.4H33.7z"/>
	</g>
	<g>
		<g>
			<g>
				<path class="st2" d="M23.9,14.8c0.3-0.5,0.3-1.2-0.2-1.7c-0.2-0.2-0.3-0.5-0.2-0.8c0.1-0.6-0.2-1.2-0.8-1.5
					c-0.1-0.1-0.3-0.2-0.3-0.3c-0.1-0.1-0.1-0.2-0.1-0.3c-0.1-0.6-0.6-1.1-1.2-1.1c-0.3,0-0.5-0.2-0.7-0.4c-0.3-0.5-1-0.8-1.6-0.6
					c-0.3,0.1-0.6,0-0.8-0.1c-0.5-0.4-1.2-0.4-1.7,0c-0.2,0.2-0.5,0.2-0.8,0.1c-0.6-0.2-1.3,0.1-1.6,0.6c-0.1,0.3-0.4,0.4-0.7,0.4
					c-0.6,0-1.1,0.5-1.3,1.1c0,0.3-0.2,0.5-0.5,0.6c-0.6,0.3-0.9,0.9-0.8,1.5c0.1,0.3,0,0.6-0.2,0.8c-0.4,0.5-0.5,1.2-0.1,1.7
					c0.1,0.2,0.2,0.5,0.1,0.8c-0.2,0.6,0,1.3,0.5,1.6c0.1,0,0.1,0.1,0.2,0.2c0.1,0.2,0.2,0.3,0.2,0.5c0,0.6,0.4,1.2,1,1.3
					c0.2,0,0.3,0.2,0.5,0.3L11.4,23c-0.2,0.5,0.3,1,0.8,0.8l1.5-0.5c0,0,0.1,0,0.1,0l0.8,1.4c0.2,0.5,0.9,0.4,1.1,0l1.5-3.6h0.1
					l1.5,3.6c0.2,0.5,0.9,0.5,1.1,0l0.8-1.4c0,0,0.1-0.1,0.1,0l1.5,0.5c0.5,0.2,0.9-0.3,0.7-0.8l-1.4-3.4c0.1-0.1,0.3-0.3,0.4-0.3
					c0.6-0.2,1-0.7,1-1.3c0-0.3,0.1-0.5,0.3-0.7c0.5-0.4,0.7-1,0.5-1.6C23.7,15.4,23.7,15.1,23.9,14.8z M15.2,24.6
					c0,0.1-0.1,0.1-0.2,0l-0.8-1.4c-0.1-0.3-0.4-0.4-0.7-0.3L12,23.3c-0.1,0-0.2-0.1-0.1-0.1l1.3-3c0.3,0.4,0.8,0.6,1.3,0.5
					c0.3,0,0.6,0.1,0.7,0.3c0.3,0.3,0.6,0.5,1,0.5c0.1,0,0.2,0,0.4,0L15.2,24.6z M22.4,23.2c0,0.1,0,0.2-0.1,0.1l-1.5-0.5
					c-0.3-0.1-0.6,0-0.7,0.3l-0.8,1.4c0,0.1-0.1,0.1-0.2,0l-1.3-3.1c0.5,0.1,1,0,1.4-0.4c0.2-0.2,0.5-0.3,0.7-0.3
					c0.5,0.1,1-0.1,1.3-0.5L22.4,23.2z M23.4,14.5c-0.3,0.4-0.3,0.8-0.1,1.3c0.1,0.4,0,0.8-0.3,1c-0.4,0.3-0.6,0.7-0.6,1.1
					c0,0.4-0.3,0.7-0.6,0.8c-0.4,0.1-0.7,0.3-0.8,0.6c0,0.1-0.1,0.1-0.1,0.2c-0.1,0.4-0.5,0.6-0.9,0.5c-0.5,0-0.9,0.1-1.2,0.5
					c-0.3,0.3-0.7,0.4-1,0.2c-0.1-0.1-0.2-0.1-0.4-0.1c0,0,0,0,0,0c-0.2,0-0.3,0-0.5,0c-0.1,0-0.3,0.1-0.4,0.1
					c-0.4,0.2-0.8,0.1-1-0.2s-0.6-0.5-1-0.5h-0.2c-0.4,0.1-0.8-0.2-0.9-0.5c0-0.1-0.1-0.1-0.1-0.2c-0.2-0.3-0.5-0.6-0.8-0.6
					c-0.4-0.1-0.6-0.5-0.6-0.8c0-0.3-0.1-0.6-0.3-0.8c-0.1-0.1-0.2-0.2-0.3-0.3c-0.3-0.2-0.4-0.6-0.3-1c0.2-0.4,0.1-0.9-0.1-1.3
					c-0.2-0.3-0.2-0.8,0.1-1c0.3-0.3,0.4-0.8,0.3-1.2c-0.1-0.4,0.1-0.8,0.5-1c0.4-0.2,0.7-0.6,0.8-1c0.1-0.4,0.4-0.7,0.8-0.7
					c0.5,0,0.8-0.3,1.1-0.7c0.2-0.3,0.6-0.5,1-0.4c0.4,0.1,0.9,0,1.3-0.2c0.3-0.2,0.7-0.2,1,0c0.4,0.3,0.8,0.4,1.3,0.2
					c0.4-0.1,0.8,0,1,0.4c0.2,0.4,0.6,0.6,1.1,0.7c0.4,0,0.7,0.3,0.8,0.7c0,0.2,0.1,0.4,0.2,0.5c0.1,0.2,0.3,0.4,0.5,0.5
					c0.4,0.2,0.6,0.6,0.5,1c-0.1,0.4,0,0.9,0.3,1.2C23.6,13.8,23.6,14.2,23.4,14.5z"/>
				<path class="st2" d="M12.3,14.2c0.1,0,0.3-0.1,0.3-0.2c0.3-2.3,2.2-4,4.6-4c2.3,0,4.3,1.7,4.6,4c0,0.1,0.1,0.2,0.3,0.2
					c0,0,0,0,0,0c0.1,0,0.2-0.1,0.2-0.3c-0.3-2.6-2.5-4.5-5.1-4.5c-2.6,0-4.8,1.9-5.1,4.5C12,14.1,12.1,14.2,12.3,14.2L12.3,14.2z"
					/>
				<path class="st2" d="M22,14.9c-0.1,0-0.3,0.1-0.3,0.2c-0.3,2.3-2.2,4-4.6,4c-2.3,0-4.3-1.7-4.6-4c0-0.1-0.1-0.2-0.3-0.2
					c-0.1,0-0.2,0.1-0.2,0.3c0.3,2.6,2.5,4.5,5.1,4.5c2.6,0,4.8-1.9,5.1-4.5C22.2,15,22.1,14.9,22,14.9z"/>
			</g>
		</g>
		<g id="Cloud_3_">
			<g>
				<path class="st2" d="M19.7,14.4c-0.2-0.2-0.3-0.2-0.5-0.3c-0.1-0.5-0.5-0.8-1-0.8c-0.1,0-0.2,0-0.3,0c0,0,0,0,0,0
					c-0.1,0-0.1,0-0.2,0.1c-0.1-0.2-0.2-0.3-0.4-0.4c-0.2-0.2-0.5-0.2-0.8-0.2c-0.7,0-1.3,0.6-1.3,1.3c0,0,0,0,0,0
					c-0.2,0-0.4,0.1-0.5,0.3c-0.2,0.2-0.3,0.4-0.3,0.7c0,0.1,0,0.2,0.1,0.3c0,0.1,0.1,0.3,0.2,0.4c0.2,0.2,0.4,0.3,0.7,0.3H19
					c0.3,0,0.5-0.1,0.7-0.3c0.2-0.2,0.3-0.4,0.3-0.7C20,14.9,19.9,14.6,19.7,14.4z M19,15.8h-3.6c-0.3,0-0.6-0.2-0.7-0.5
					c0,0,0-0.1,0-0.1c0-0.4,0.3-0.7,0.7-0.7h0.2l0-0.2c0-0.1,0-0.1,0-0.1c0-0.5,0.5-1,1-1c0.4,0,0.7,0.2,0.9,0.5c0,0,0,0.1,0.1,0.1
					l0.1,0.2l0.2-0.2c0.1-0.1,0.3-0.2,0.5-0.2c0.4,0,0.7,0.3,0.7,0.7v0.2H19c0.4,0,0.7,0.3,0.7,0.7C19.6,15.5,19.3,15.8,19,15.8z"/>
			</g>
		</g>
	</g>
	<path class="st3" d="M41.7,13.2c0-0.6,0-1.1,0-1.7c-2.6-2.6-5.3-5.3-7.9-7.9c-0.1-0.1-0.1-0.1-0.2-0.2c-8.5,0-17,0-25.4,0
		c-0.1,0-0.8-0.1-1.4,0.4C6.1,4.5,6.1,5.5,6.2,5.6c0,4.9,0,9.9,0,14.8c0,5.6,0,11.2,0,16.7c0,2.1,0,4.3,0,6.4c0,0.1-0.1,1.2,0.7,1.9
		C7.6,46.1,8.4,46,8.5,46c9.7,0,19.3,0,29,0"/>
	<path class="st3" d="M33.6,4.6c0,1.7,0,3.3,0,5c0,0.2,0.1,0.8,0.7,1.3c0.4,0.3,0.8,0.4,1,0.4c1.9,0,3.8,0,5.7,0"/>
	<g>
		<rect x="39.7" y="16.2" class="st4" width="4.2" height="24.6"/>
		<rect x="39.7" y="16.2" class="st4" width="4.2" height="3.6"/>
		<polygon class="st4" points="41.8,46.5 39.7,40.9 43.9,40.9 		"/>
	</g>
	<g>
		<rect x="10.7" y="29.3" class="st4" width="4.4" height="4.4"/>
		<g>
			<line class="st4" x1="19.1" y1="32.9" x2="34.5" y2="32.9"/>
			<line class="st4" x1="19.1" y1="30" x2="30.2" y2="30"/>
		</g>
	</g>
	<g>
		<rect x="10.7" y="37.5" class="st4" width="4.4" height="4.4"/>
		<g>
			<line class="st4" x1="19.1" y1="41.1" x2="34.5" y2="41.1"/>
			<line class="st4" x1="19.1" y1="38.2" x2="30.2" y2="38.2"/>
		</g>
	</g>
</g>
</svg>
