<?xml version="1.0" encoding="utf-8"?>
<!-- Generator: Adobe Illustrator 24.0.0, SVG Export Plug-In . SVG Version: 6.00 Build 0)  -->
<svg version="1.1" id="Layer_1" xmlns="http://www.w3.org/2000/svg" xmlns:xlink="http://www.w3.org/1999/xlink" x="0px" y="0px"
	 viewBox="0 0 50 50" style="enable-background:new 0 0 50 50;" xml:space="preserve">
<style type="text/css">
	.st0{fill:#E56060;}
	.st1{fill:#FF6B6B;}
	.st2{fill:#444444;}
	.st3{fill:#424242;}
</style>
<g>
	<g>
		<g>
			<path class="st0" d="M6.6,38.6l5.6,3.3l33.5-18.5l-0.1-11.2c0-1.6-0.9-3.1-2.3-3.9l-16.1-6c-1.4-0.8-3.1-0.8-4.6,0l-16.1,6
				C5.2,9,4.3,10.5,4.3,12.1v22.6C4.3,36.3,5.2,37.8,6.6,38.6z"/>
		</g>
	</g>
	<g>
		<g>
			<path class="st1" d="M33.8,5.9l-6.5-3.8c-1.4-0.8-3.1-0.8-4.6,0l-16.1,6c-1.4,0.9-2.3,2.4-2.3,4L4,23.9L33.8,5.9z"/>
		</g>
	</g>
	<g>
		<g>
			<path class="st2" d="M25,49.7c-1,0-2-0.3-2.9-0.8L6,39.6c-1.8-1-2.9-2.9-2.9-5V12.1c0-2.1,1.1-4,2.9-5l16.1-6c1.8-1,4-1,5.8,0
				l16.1,6c1.8,1,2.9,2.9,2.9,5v17.6c0,0.7-0.5,1.2-1.2,1.2s-1.2-0.5-1.2-1.2V12.1c0-1.2-0.6-2.3-1.7-2.9l-16.1-6
				c-1-0.6-2.3-0.6-3.3,0l-16.1,6c-1,0.6-1.7,1.7-1.7,2.9v22.6c0,1.2,0.6,2.3,1.7,2.9l16.1,9.3c1,0.6,2.3,0.6,3.3,0l4.4-2.6
				c0.6-0.3,1.3-0.1,1.7,0.4c0.3,0.6,0.1,1.3-0.4,1.7L28,49C27,49.5,26,49.7,25,49.7z"/>
		</g>
	</g>
</g>
<g>
	<g>
		<g>
			<path class="st3" d="M36.9,22.6c0-0.2,0.1-0.5,0.2-0.7c0.7-1,0.6-2.4-0.3-3.3c-0.3-0.3-0.4-0.7-0.3-1.1c0.2-1.2-0.3-2.4-1.5-3
				c-0.4-0.2-0.6-0.5-0.7-0.9c-0.2-1.2-1.2-2.1-2.4-2.2c-0.4,0-0.8-0.3-1-0.6c-0.6-1.1-1.9-1.6-3.1-1.2c-0.4,0.1-0.8,0-1.1-0.2
				c-1-0.8-2.3-0.8-3.3,0c-0.3,0.3-0.8,0.3-1.1,0.2c-1.2-0.4-2.5,0.1-3.1,1.2c-0.2,0.3-0.6,0.6-1,0.6c-1.2,0.1-2.2,1-2.4,2.2
				c-0.1,0.4-0.3,0.8-0.7,0.9c-1.1,0.5-1.7,1.8-1.5,3c0.1,0.4,0,0.8-0.3,1.1c-0.9,0.9-1,2.2-0.3,3.3c0.2,0.3,0.3,0.8,0.1,1.2
				c-0.5,1.1-0.1,2.5,0.9,3.2c0.3,0.2,0.5,0.6,0.5,1.1c0,1.2,0.8,2.3,2,2.6c0.2,0.1,0.4,0.2,0.6,0.3l-2.4,5.9
				c-0.2,0.5-0.1,1,0.2,1.4c0.4,0.4,0.9,0.5,1.4,0.4l2.7-0.8l1.3,2.5c0.2,0.4,0.7,0.7,1.2,0.7h0.1c0.5,0,1-0.3,1.2-0.8l2.4-5.9
				l2.4,5.9c0.2,0.5,0.6,0.8,1.2,0.8c0.5,0,1-0.2,1.2-0.7l1.3-2.5L34,38c0.5,0.2,1,0,1.4-0.4c0.3-0.4,0.4-0.9,0.2-1.4l-2.6-6
				c0.2-0.2,0.4-0.3,0.6-0.3c1.2-0.3,2-1.4,2-2.6c0-0.4,0.2-0.8,0.5-1.1c1-0.7,1.4-2,0.9-3.2C36.9,22.9,36.9,22.8,36.9,22.6z
				 M21.3,38.8L20,36.4c-0.2-0.4-0.7-0.7-1.2-0.7c-0.1,0-0.3,0-0.4,0.1l-2.6,0.8l2-4.8c0.6,0.6,1.4,0.8,2.2,0.7
				c0.4,0,0.8,0.1,1.1,0.4c0.6,0.7,1.4,1,2.2,0.9L21.3,38.8z M34.1,36.5l-2.6-0.8c-0.6-0.2-1.3,0.1-1.6,0.7l-1.3,2.4l-2.1-5
				c0.8,0.1,1.7-0.2,2.2-0.9c0.3-0.3,0.7-0.5,1.1-0.4c0.8,0.1,1.6-0.2,2.2-0.7L34.1,36.5z M35.9,21.1c-0.5,0.7-0.6,1.7-0.2,2.5
				c0.2,0.5,0,1.2-0.4,1.5c-0.7,0.5-1.1,1.3-1.1,2.2c0,0.6-0.4,1.1-0.9,1.2c-0.7,0.2-1.3,0.6-1.6,1.2l0,0c-0.1,0.1-0.1,0.3-0.2,0.4
				c-0.2,0.6-0.7,0.9-1.3,0.8c-0.9-0.1-1.7,0.2-2.3,0.9c-0.4,0.4-1,0.6-1.5,0.3c-0.4,0-0.6-0.1-0.9-0.1c-0.2,0-0.3-0.1-0.5-0.1
				s-0.3,0-0.5,0h-0.1c-0.2,0-0.5,0.1-0.7,0.3c-0.5,0.3-1.1,0.2-1.5-0.3c-0.6-0.7-1.4-1-2.3-0.9c-0.6,0.1-1.1-0.3-1.3-0.8
				c0-0.1-0.1-0.3-0.2-0.4c-0.3-0.6-0.9-1.1-1.6-1.2c-0.6-0.1-1-0.7-0.9-1.2c0-0.9-0.4-1.7-1.1-2.2c-0.5-0.3-0.6-1-0.4-1.5
				c0.3-0.8,0.2-1.7-0.2-2.5c-0.3-0.5-0.3-1.1,0.1-1.5c0.6-0.6,0.9-1.5,0.7-2.4c-0.1-0.6,0.2-1.1,0.7-1.4c0.8-0.4,1.3-1.1,1.5-2
				c0.1-0.6,0.6-1,1.1-1c0.9-0.1,1.7-0.5,2.1-1.3c0.3-0.5,0.9-0.7,1.4-0.6c0.8,0.3,1.8,0.1,2.4-0.5c0.5-0.4,1.1-0.4,1.6,0
				c0.7,0.5,1.6,0.7,2.4,0.5c0.6-0.2,1.2,0.1,1.4,0.6c0.4,0.8,1.2,1.2,2.1,1.3c0.6,0,1,0.5,1.1,1c0.2,0.9,0.7,1.6,1.5,2
				c0.5,0.2,0.8,0.8,0.7,1.4c-0.2,0.9,0.1,1.8,0.7,2.4c0.2,0.2,0.3,0.5,0.3,0.9C36.1,20.7,36.1,20.9,35.9,21.1z"/>
		</g>
		<g>
			<path class="st3" d="M34.2,20.1c0,0.4-0.2,0.7-0.6,0.8h-0.1c-0.3,0-0.6-0.3-0.7-0.6c-0.5-4-3.9-6.9-7.8-6.9s-7.4,3-7.8,6.9
				c0,0.2-0.1,0.4-0.3,0.5c-0.2,0.1-0.3,0.2-0.5,0.1c-0.4,0-0.6-0.3-0.6-0.7v-0.1c0.6-4.7,4.5-8.2,9.2-8.2S33.7,15.5,34.2,20.1z"/>
		</g>
		<g>
			<path class="st3" d="M34.2,22.4c-0.6,4.7-4.5,8.2-9.2,8.2s-8.7-3.5-9.2-8.2c0-0.4,0.2-0.7,0.6-0.8s0.7,0.2,0.8,0.6
				c0.5,4,3.9,6.9,7.8,6.9s7.4-3,7.8-6.9c0-0.2,0.1-0.3,0.3-0.5c0.2-0.1,0.3-0.2,0.5-0.1c0.2,0,0.3,0.1,0.5,0.3
				C34.2,22,34.3,22.2,34.2,22.4z"/>
		</g>
	</g>
</g>
<g id="Cloud_1_">
	<g>
		<g>
			<path class="st3" d="M29.6,20.8c-0.3-0.3-0.6-0.4-0.9-0.5c-0.2-0.9-1-1.5-1.9-1.5c-0.3,0-0.6,0.1-0.8,0.2
				c-0.2-0.2-0.4-0.4-0.6-0.6c-0.4-0.3-0.9-0.5-1.5-0.5c-1.4,0-2.5,1-2.6,2.4c-0.3,0.1-0.6,0.3-0.9,0.5c-0.4,0.4-0.6,0.9-0.6,1.4
				s0.2,1,0.6,1.4s0.9,0.6,1.4,0.6h6.4c0.5,0,1-0.2,1.4-0.6s0.6-0.9,0.6-1.4C30.2,21.7,30,21.2,29.6,20.8z M28.2,23.2h-6.4
				c-0.5,0-0.9-0.4-0.9-0.9s0.4-0.9,0.9-0.9h0.7l-0.1-0.6c0-0.1,0-0.1,0-0.2c0-0.8,0.7-1.5,1.5-1.5c0.6,0,1.2,0.4,1.4,1l0.3,0.8
				l0.6-0.6c0.2-0.2,0.4-0.3,0.7-0.3c0.5,0,0.9,0.4,0.9,0.9v0.5h0.5c0.5,0,0.9,0.4,0.9,0.9S28.7,23.2,28.2,23.2z"/>
		</g>
	</g>
</g>
</svg>
