<?xml version="1.0" encoding="utf-8"?>
<!-- Generator: Adobe Illustrator 26.5.0, SVG Export Plug-In . SVG Version: 6.00 Build 0)  -->
<svg version="1.1" id="Camada_1" xmlns="http://www.w3.org/2000/svg" xmlns:xlink="http://www.w3.org/1999/xlink" x="0px" y="0px"
	 viewBox="0 0 50 50" style="enable-background:new 0 0 50 50;" xml:space="preserve">
<style type="text/css">
	.st0{fill:#A475EF;}
	.st1{fill:#BF94F7;}
	.st2{fill:none;stroke:#444444;stroke-width:0.5;stroke-linecap:round;stroke-linejoin:round;stroke-miterlimit:10;}
	.st3{fill:none;stroke:#444444;stroke-width:2.5;stroke-linecap:round;stroke-linejoin:round;stroke-miterlimit:10;}
</style>
<g>
	<polyline class="st0" points="14,18.2 14,15.4 29.1,8.4 34,10.6 34.7,12.4 41.9,16.6 42.8,25.4 13.4,36.1 	"/>
	<polygon class="st1" points="24.5,6.3 28.6,9.3 33.5,10.7 13.4,17.9 14,10.5 14.1,2.7 15.5,1.3 20.4,3.9 	"/>
	<path class="st2" d="M46.8,12.4L46.8,12.4"/>
	<path class="st2" d="M3.2,52.6"/>
	<path class="st2" d="M25.7,8.4"/>
	<path class="st2" d="M14.7,14.3"/>
	<line class="st3" x1="39.5" y1="34.1" x2="41.9" y2="32.7"/>
	<path class="st3" d="M41.9,16.6L16.9,1.8C15.6,1.1,14,2,14,3.5l0,42.7c0,1.5,1.7,2.5,3,1.7l13.6-8.2"/>
	<polygon class="st2" points="14.4,16.8 14.4,32.9 28.3,24.9 	"/>
	<polygon class="st2" points="28.3,24.9 28.3,8.8 14.3,16.8 	"/>
	<polygon class="st2" points="28.3,40.9 28.3,24.9 14.3,32.9 	"/>
	<path class="st3" d="M41.9,32.7V16.6l-12.7,7.3c-0.6,0.3-0.6,1.1,0,1.5L41.9,32.7z"/>
</g>
</svg>
