<?xml version="1.0" encoding="utf-8"?>
<!-- Generator: Adobe Illustrator 27.3.1, SVG Export Plug-In . SVG Version: 6.00 Build 0)  -->
<svg version="1.1" id="Camada_3" xmlns="http://www.w3.org/2000/svg" xmlns:xlink="http://www.w3.org/1999/xlink" x="0px" y="0px"
	 viewBox="0 0 50 50" style="enable-background:new 0 0 50 50;" xml:space="preserve">
<style type="text/css">
	.st0{fill:#EC6A6D;}
	.st1{fill:#E46160;}
	.st2{fill:none;stroke:#454444;stroke-width:0.5;stroke-linecap:round;stroke-linejoin:round;stroke-miterlimit:10;}
	.st3{fill:none;stroke:#454444;stroke-width:2.5;stroke-linecap:round;stroke-linejoin:round;stroke-miterlimit:10;}
	.st4{fill:none;stroke:#444444;stroke-width:2.5;stroke-linecap:round;stroke-linejoin:round;stroke-miterlimit:10;}
	.st5{fill:none;stroke:#444444;stroke-width:0.5;stroke-linecap:round;stroke-linejoin:round;stroke-miterlimit:10;}
</style>
<g>
	<polygon class="st0" points="12.77,1.72 10.81,2.76 10.81,14.46 25.83,9.13 	"/>
	<path class="st1" d="M10.81,14.46v12.31l-0.66,14.88L39.84,31.1l-0.99-12.42c-0.08-1.06-11.97-9.66-13.03-9.55L10.81,14.46z"/>
</g>
<g>
	<path class="st2" d="M22.55,8.53"/>
	<path class="st2" d="M11.56,14.48"/>
	<line class="st3" x1="32.16" y1="36.8" x2="38.7" y2="32.83"/>
	<path class="st4" d="M38.7,16.74L13.76,1.99c-1.3-0.77-2.95,0.17-2.95,1.68v42.66c0,1.52,1.67,2.46,2.97,1.67l10.98-6.66"/>
	<path class="st4" d="M38.7,32.83V16.75l-12.67,7.31c-0.56,0.32-0.56,1.13,0,1.46L38.7,32.83z"/>
</g>
<polygon class="st5" points="24.69,24.28 24.69,9.13 11.56,16.7 "/>
<polygon class="st5" points="24.69,40.45 24.69,25.3 11.56,32.88 "/>
<path class="st5" d="M11.56,16.7"/>
<polygon class="st5" points="18.13,44.24 18.13,36.67 11.56,40.45 "/>
<polygon class="st5" points="18.13,36.67 18.13,44.24 24.69,40.45 "/>
<polygon class="st5" points="31.32,20.1 31.32,12.52 24.76,16.31 "/>
<polygon class="st5" points="31.32,12.52 31.32,20.1 37.88,16.31 "/>
<polygon class="st5" points="31.32,36.67 31.32,29.09 24.76,32.88 "/>
<polygon class="st5" points="31.32,29.09 31.32,36.67 37.88,32.88 "/>
<polygon class="st5" points="31.32,20.8 31.32,28.38 37.88,24.59 "/>
<polygon class="st5" points="18.13,12.91 18.13,5.34 11.56,9.13 "/>
<polygon class="st5" points="18.13,5.34 18.13,12.91 24.69,9.13 "/>
</svg>
