<?xml version="1.0" encoding="utf-8"?>
<!-- Generator: Adobe Illustrator 26.5.0, SVG Export Plug-In . SVG Version: 6.00 Build 0)  -->
<svg version="1.1" id="Camada_1" xmlns="http://www.w3.org/2000/svg" xmlns:xlink="http://www.w3.org/1999/xlink" x="0px" y="0px"
	 viewBox="0 0 48 48" style="enable-background:new 0 0 48 48;" xml:space="preserve">
<style type="text/css">
	.st0{fill:#E56060;}
	.st1{fill:#FF6B6B;}
	.st2{fill:none;stroke:#444444;stroke-width:2.5;stroke-linecap:round;stroke-linejoin:round;stroke-miterlimit:10;}
	.st3{fill:none;stroke:#444444;stroke-width:0.25;stroke-linecap:round;stroke-linejoin:round;stroke-miterlimit:10;}
</style>
<g>
	<g>
		<g>
			<g>
				<polygon class="st0" points="5.49,39.58 17.29,43.61 42.96,34.42 42.99,27.96 42.99,7.9 35.7,5.1 23.41,2.96 14.44,6.04 
					14.45,10.84 5.48,13.92 				"/>
			</g>
			<g>
				<polygon class="st1" points="5.48,17.12 36.69,5.44 24.31,1.14 5.48,7.68 5.89,12.87 4.66,13.71 5.89,14.93 				"/>
			</g>
		</g>
	</g>
	<g>
		<polygon class="st2" points="5.14,7.97 23.96,1.43 42.65,7.97 42.65,40.32 23.83,46.7 5.14,40.26 		"/>
	</g>
	<polyline class="st3" points="14.97,4.98 14.97,10.13 5.2,13.51 13.94,16.5 23.89,12.98 15.04,10.15 	"/>
	<polyline class="st3" points="15.07,4.84 24.03,7.85 24.03,29.84 13.94,33.27 24.03,36.76 33.98,33.27 24.16,29.87 	"/>
	<polyline class="st3" points="24.03,36.88 24.03,47.28 34.13,43.82 34.09,27.67 24.16,24.14 32.79,21.08 42.65,24.64 34.22,27.62 	
		"/>
	<line class="st3" x1="32.79" y1="20.96" x2="32.8" y2="4.96"/>
	<line class="st3" x1="32.64" y1="4.84" x2="24.03" y2="7.85"/>
	<line class="st3" x1="13.94" y1="43.82" x2="13.94" y2="16.5"/>
</g>
</svg>
