<?xml version="1.0" encoding="UTF-8"?>
<svg width="48px" height="47px" viewBox="0 0 48 47" version="1.1" xmlns="http://www.w3.org/2000/svg" xmlns:xlink="http://www.w3.org/1999/xlink">
    <title>Group 12</title>
    <g id="Page-1" stroke="none" stroke-width="1" fill="none" fill-rule="evenodd">
        <g id="Group-12" transform="translate(1.000000, 0.000000)">
            <polygon id="Fill-1" fill="#AFE55D" points="44.2947 24.6811 44.6777 28.7821 0.4697 44.8711 0.5977 36.2201 0.9297 31.2461 44.9687 15.2181 44.2947 18.7621"></polygon>
            <polygon id="Fill-2" fill="#C3FF68" points="44.2947 8.8173 43.7627 16.1823 0.5977 31.8933 0.5977 22.5503 0.9077 18.3213 44.4027 2.4903"></polygon>
            <g id="Group-11" transform="translate(0.000000, 0.900500)">
                <polyline id="Stroke-3" stroke="#444444" stroke-width="2.5" stroke-linecap="round" stroke-linejoin="round" points="30.1765 44.7503 0.2495 44.7503 0.2495 0.3493 44.9435 0.3493 44.9435 34.7613"></polyline>
                <path d="M19.6868,28.221 C19.5648,28.099 19.3948,28.029 19.2218,28.029 C19.0478,28.029 18.8778,28.099 18.7548,28.221 C18.6328,28.344 18.5628,28.514 18.5628,28.687 C18.5628,28.861 18.6328,29.03 18.7548,29.153 C18.8788,29.276 19.0478,29.345 19.2218,29.345 C19.3948,29.345 19.5638,29.276 19.6868,29.153 C19.8098,29.03 19.8798,28.861 19.8798,28.687 C19.8798,28.514 19.8098,28.344 19.6868,28.221" id="Fill-5" fill="#444444"></path>
                <path d="M28.5886,19.2601 C28.4666,19.1371 28.2976,19.0671 28.1236,19.0671 C27.9496,19.0671 27.7806,19.1371 27.6576,19.2601 C27.5356,19.3831 27.4656,19.5521 27.4656,19.7251 C27.4656,19.8991 27.5356,20.0691 27.6576,20.1911 C27.7806,20.3141 27.9496,20.3841 28.1236,20.3841 C28.2966,20.3841 28.4666,20.3141 28.5886,20.1911 C28.7126,20.0691 28.7816,19.8991 28.7816,19.7251 C28.7816,19.5531 28.7126,19.3831 28.5886,19.2601" id="Fill-7" fill="#444444"></path>
                <path d="M37.8084,31.2054 C37.3004,31.2054 36.8864,30.7924 36.8864,30.2834 C36.8864,29.7744 37.3004,29.3614 37.8084,29.3614 C38.3174,29.3614 38.7304,29.7744 38.7304,30.2834 C38.7304,30.7924 38.3174,31.2054 37.8084,31.2054 L37.8084,31.2054 Z M30.1384,26.2844 L23.8494,29.7684 L23.8494,22.8464 L26.0664,21.6184 C26.3844,21.4424 26.4994,21.0414 26.3234,20.7234 C26.1474,20.4054 25.7454,20.2904 25.4274,20.4664 L23.1914,21.7054 L16.9444,18.2444 L23.1914,14.7834 L30.1384,18.6324 L30.1384,26.2844 Z M24.1134,37.0754 C24.1134,37.5844 23.7004,37.9974 23.1914,37.9974 C22.6834,37.9974 22.2694,37.5844 22.2694,37.0754 C22.2694,36.5674 22.6834,36.1544 23.1914,36.1544 C23.7004,36.1544 24.1134,36.5674 24.1134,37.0754 L24.1134,37.0754 Z M22.2694,7.8414 C22.2694,7.3324 22.6834,6.9194 23.1914,6.9194 C23.7004,6.9194 24.1134,7.3324 24.1134,7.8414 C24.1134,8.3494 23.7004,8.7634 23.1914,8.7634 C22.6834,8.7634 22.2694,8.3494 22.2694,7.8414 L22.2694,7.8414 Z M8.5744,31.2054 C8.0654,31.2054 7.6524,30.7924 7.6524,30.2834 C7.6524,29.7744 8.0654,29.3614 8.5744,29.3614 C9.0824,29.3614 9.4964,29.7744 9.4964,30.2834 C9.4964,30.7924 9.0824,31.2054 8.5744,31.2054 L8.5744,31.2054 Z M8.5744,15.5554 C8.0654,15.5554 7.6524,15.1424 7.6524,14.6334 C7.6524,14.1254 8.0654,13.7114 8.5744,13.7114 C9.0824,13.7114 9.4964,14.1254 9.4964,14.6334 C9.4964,15.1424 9.0824,15.5554 8.5744,15.5554 L8.5744,15.5554 Z M37.8084,13.7114 C38.3174,13.7114 38.7304,14.1254 38.7304,14.6334 C38.7304,15.1424 38.3174,15.5554 37.8084,15.5554 C37.3004,15.5554 36.8864,15.1424 36.8864,14.6334 C36.8864,14.1254 37.3004,13.7114 37.8084,13.7114 L37.8084,13.7114 Z M37.8084,28.0454 C36.8034,28.0454 35.9514,28.7114 35.6684,29.6254 L34.6794,29.6254 L31.4554,26.4004 L31.4554,18.5164 L34.6794,15.2914 L35.6684,15.2914 C35.9514,16.2064 36.8034,16.8724 37.8084,16.8724 C39.0434,16.8724 40.0474,15.8684 40.0474,14.6334 C40.0474,13.3994 39.0434,12.3944 37.8084,12.3944 C36.8034,12.3944 35.9514,13.0604 35.6684,13.9754 L34.4074,13.9754 C34.2324,13.9754 34.0644,14.0444 33.9414,14.1674 L30.6814,17.4274 L23.8494,13.6424 L23.8494,9.9804 C24.7634,9.6994 25.4304,8.8464 25.4304,7.8414 C25.4304,6.6064 24.4254,5.6024 23.1914,5.6024 C21.9564,5.6024 20.9524,6.6064 20.9524,7.8414 C20.9524,8.8464 21.6194,9.6994 22.5334,9.9804 L22.5334,13.6424 L15.7014,17.4274 L12.4414,14.1674 C12.3184,14.0444 12.1504,13.9754 11.9754,13.9754 L10.7134,13.9754 C10.4324,13.0604 9.5794,12.3944 8.5744,12.3944 C7.3394,12.3944 6.3354,13.3994 6.3354,14.6334 C6.3354,15.8684 7.3394,16.8724 8.5744,16.8724 C9.5794,16.8724 10.4324,16.2064 10.7134,15.2914 L11.7034,15.2914 L14.9274,18.5164 L14.9274,26.4004 L11.7034,29.6254 L10.7134,29.6254 C10.4324,28.7114 9.5794,28.0454 8.5744,28.0454 C7.3394,28.0454 6.3354,29.0494 6.3354,30.2834 C6.3354,31.5174 7.3394,32.5214 8.5744,32.5214 C9.5794,32.5214 10.4324,31.8554 10.7134,30.9414 L11.9754,30.9414 C12.1504,30.9414 12.3184,30.8724 12.4414,30.7494 L15.7014,27.4894 L16.5154,27.9404 C16.8334,28.1164 17.2344,28.0024 17.4104,27.6844 C17.5864,27.3654 17.4724,26.9654 17.1534,26.7884 L16.2444,26.2844 L16.2444,19.3624 L22.5334,22.8464 L22.5334,29.7684 L21.7074,29.3114 C21.3894,29.1354 20.9884,29.2504 20.8124,29.5684 C20.6364,29.8864 20.7504,30.2874 21.0694,30.4634 L22.5334,31.2744 L22.5334,34.9354 C21.6194,35.2184 20.9524,36.0704 20.9524,37.0764 C20.9524,38.3104 21.9564,39.3144 23.1914,39.3144 C24.4254,39.3144 25.4304,38.3104 25.4304,37.0764 C25.4304,36.0704 24.7634,35.2184 23.8494,34.9354 L23.8494,31.2744 L30.6814,27.4894 L33.9414,30.7494 C34.0644,30.8724 34.2324,30.9414 34.4074,30.9414 L35.6684,30.9414 C35.9514,31.8554 36.8034,32.5214 37.8084,32.5214 C39.0434,32.5214 40.0474,31.5174 40.0474,30.2834 C40.0474,29.0494 39.0434,28.0454 37.8084,28.0454 L37.8084,28.0454 Z" id="Fill-9" fill="#444444"></path>
            </g>
        </g>
    </g>
</svg>