<?xml version="1.0" encoding="utf-8"?>
<!-- Generator: Adobe Illustrator 26.5.0, SVG Export Plug-In . SVG Version: 6.00 Build 0)  -->
<svg version="1.1" id="Layer_1" xmlns="http://www.w3.org/2000/svg" xmlns:xlink="http://www.w3.org/1999/xlink" x="0px" y="0px"
	 viewBox="0 0 50 50" style="enable-background:new 0 0 50 50;" xml:space="preserve">
<style type="text/css">
	.st0{fill:#E589EF;}
	.st1{fill:#F799FF;}
	.st2{fill:none;stroke:#494949;stroke-linecap:round;stroke-linejoin:round;stroke-miterlimit:10;}
	.st3{fill:#494949;}
	.st4{fill:none;stroke:#494949;stroke-width:2.5;stroke-linecap:round;stroke-linejoin:round;stroke-miterlimit:10;}
	.st5{fill:none;stroke:#505050;stroke-width:2;stroke-miterlimit:10;}
</style>
<g>
	<g>
		<polygon class="st0" points="48.1,3.5 48.1,17 34.5,22 1.9,33.9 1.9,15.3 17,9.8 34.3,3.5 		"/>
	</g>
	<g>
		<polygon class="st1" points="47.7,3.5 30.5,9.8 1.9,20.3 1.9,3.5 		"/>
	</g>
	<g>
		<path class="st2" d="M30.3,43.4v-3.1h-2.5c-0.2-1-0.5-1.6-1-2.3l2.5-2.5l-3.7-3.7l-2.5,2.5c-0.7-0.4-1.5-0.7-2.3-1v-3.5h-5.2v3.5
			c-0.8,0.2-1.6,0.5-2.3,1l-2.5-2.5L7,35.4l2.5,2.5c-0.4,0.7-0.7,1.3-1,2.3H6.1v3.1"/>
		<path class="st3" d="M14.6,43.4c0-2,1.6-3.7,3.7-3.7s3.7,1.6,3.7,3.7H14.6z"/>
		<path class="st2" d="M45,16.1h-3.1v2.5c-1,0.2-1.6,0.5-2.3,1L37,17l-3.7,3.7l2.5,2.5c-0.4,0.7-0.7,1.3-1,2.3h-3.5v5.2h3.1
			c0.2,0.8,0.9,1.6,1.3,2.3l-2.5,2.5l3.7,3.7l2.5-2.5c0.7,0.4,1.3,0.7,2.3,1v2.5H45"/>
		<path class="st3" d="M45,31.8c-2,0-3.7-1.6-3.7-3.7c0-2,1.6-3.7,3.7-3.7V31.8z"/>
		<rect x="1.9" y="3.5" class="st4" width="46.2" height="43"/>
		<line class="st4" x1="1.9" y1="9.8" x2="48.1" y2="9.8"/>
		<line class="st5" x1="5.1" y1="6.6" x2="7.2" y2="6.6"/>
		<line class="st5" x1="9.3" y1="6.6" x2="11.4" y2="6.6"/>
		<line class="st5" x1="13.5" y1="6.6" x2="15.6" y2="6.6"/>
	</g>
</g>
</svg>
