<svg xmlns="http://www.w3.org/2000/svg" viewBox="0 0 50 50"><defs><style>.cls-2{stroke-width:.5px;fill:none;stroke:#444;stroke-miterlimit:10}.cls-5{fill:#444}</style></defs><g id="Layer_1"><g id="Layer_2"><path fill="#d1bd00" d="M30.3 17.8l7.8 2.4-6.7 4.8.1 8.2-6.6-4.9-7.7 2.6 2.6-7.8-4.9-6.5 8.2.1 4.7-6.7 2.5 7.8z"/><path fill="#f9f941" d="M44.6 12.4L39 8.8l-7.7-4.4-6-2.8c-3.1-.1-21.4 8.9-21.4 12.1l-.5 7.8.5 15.1 11.5 7.6 31-11c.7-.4-.8-18.8-1.8-20.7z"/><path fill="none" stroke="#444" stroke-linecap="round" stroke-linejoin="round" stroke-width="2.5" d="M29.9 46.5l-2.2 1.3c-1.7 1-3.8 1-5.5 0l-15.6-9c-1.7-1-2.7-2.8-2.7-4.7v-18c0-2 1-3.8 2.7-4.7l15.6-9.1c1.7-1 3.8-1 5.5 0l15.6 9c1.7 1 2.7 2.8 2.7 4.7v18c0 2-1 3.8-2.7 4.7l-2.5 1.4"/></g><g id="Camada_3"><path fill="none" stroke="#444" stroke-miterlimit="10" d="M23.1 23.9c.2.1.3.3.4.4l.4.4 1.2-.5c.3-.1.7-.1 1 0s.6.4.7.7l.8 1.9c.2.4.1.7 0 1s-.4.6-.7.7l-1.2.5v1.2l1.2.5c.3.1.6.4.7.7.1.3.2.7 0 1l-.8 1.9c-.1.3-.4.6-.7.7-.3.1-.7.2-1 0l-1.2-.5c-.1.2-.3.3-.4.4l-.4.4.5 1.2c.2.3.1.7 0 1s-.4.6-.7.7L21 39c-.3.2-.7.1-1 0s-.6-.4-.7-.7l-.5-1.2h-1.2l-.5 1.2c-.1.3-.4.6-.7.7-.3.1-.7.2-1 0l-1.9-.8c-.3-.1-.6-.4-.7-.7-.1-.3-.2-.7 0-1l.5-1.2c-.2-.1-.3-.3-.4-.4l-.4-.4-1.2.5c-.3.2-.7.1-1 0s-.6-.4-.7-.7l-.8-1.9c-.2-.3-.1-.7 0-1s.4-.6.7-.7l1.2-.5V29l-1.2-.5c-.3-.1-.6-.4-.7-.7-.1-.3-.2-.7 0-1l.8-1.9c.1-.4.4-.6.7-.7.3-.1.7-.1 1 0l1.2.5.4-.4.4-.4-.5-1.2c-.2-.4-.1-.7 0-1s.4-.6.7-.7l1.9-.8c.3-.1.7-.1 1 0s.6.4.7.7l.5 1.2h1.2l.5-1.2c.1-.4.4-.6.7-.7.3-.1.7-.1 1 0l1.9.8c.3.1.6.4.7.7.1.3.2.7 0 1l-.5 1.2h0z"/><circle cx="18.1" cy="29.8" r="3.9" class="cls-2"/><rect width="9.7" height="5.1" x="28.2" y="16.8" class="cls-2" rx="1.1" ry="1.1"/><rect width="9.7" height="5.1" x="32" y="26.7" class="cls-2" rx="1.1" ry="1.1"/><rect width="9.7" height="5.1" x="16.8" y="10.4" class="cls-2" rx="1.1" ry="1.1"/><circle cx="18.1" cy="11.7" r=".2" class="cls-5"/><circle cx="19" cy="11.7" r=".2" class="cls-5"/><circle cx="20" cy="11.7" r=".2" class="cls-5"/><circle cx="29.4" cy="18.3" r=".2" class="cls-5"/><circle cx="30.4" cy="18.3" r=".2" class="cls-5"/><circle cx="31.4" cy="18.3" r=".2" class="cls-5"/><g><circle cx="33.3" cy="28.3" r=".2" class="cls-5"/><circle cx="34.3" cy="28.3" r=".2" class="cls-5"/><circle cx="35.2" cy="28.3" r=".2" class="cls-5"/></g></g></g></svg>