<svg xmlns="http://www.w3.org/2000/svg" id="Layer_1" x="0" y="0" version="1.1" viewBox="0 0 50 50" xml:space="preserve"><style>.st5{fill:none;stroke:#444;stroke-linecap:round;stroke-linejoin:round;stroke-miterlimit:10}</style><path fill="#c3ff68" d="M47.1 20.2c-.2-.8-2.7-7.5-3.2-8.1l-3-3.5-.2.1L33.1 3l-7.8-.7c-3.2 0-12.8-.7-21.3 11.5l-2.9 7.9.5 2 1.8 11.5c.1.4 4.7 7 5.1 7.2l5.6 3 32.2-11.7c.7-.5 1.8-8.8.8-13.5z"/><path fill="none" stroke="#444" stroke-linecap="round" stroke-linejoin="round" stroke-miterlimit="10" stroke-width="2.5" d="M27.4 47.8C14.8 49.3 3.3 40.3 1.7 27.7S9.1 3.6 21.8 2s24.1 7.4 25.7 20.1c.6 5.1-.5 10-2.8 14.1"/><path fill="#444" d="M14.6 19.8l2.4.9c.1 0 .1.1.1.2L14.7 24v.2l1.3.9h.2l2.5-3.4c0-.1.1-.1.2 0l1.8 1.7c.1.1.2 0 .2-.1l.1-6.6c0-.1-.1-.2-.2-.1l-6.2 3c-.2 0-.1.1 0 .2z"/><path fill="none" stroke="#444" stroke-linecap="round" stroke-linejoin="round" stroke-miterlimit="10" stroke-width=".25" d="M19.7 15l-.2-1m3.4 3l1-.2m-2-1.6l.6-.9"/><path d="M11 27.7h28.8v2.5H11zm14.4 2.5v12.5m-9.4 0l7-12.5m11.8 12.5l-7.1-12.5" class="st5"/><path d="M12.2 11.4h26.3v16.3H12.2zM16 8.9h18.8v2.5H16zm2.5 26.3h13.7" class="st5"/></svg>