<svg xmlns="http://www.w3.org/2000/svg" id="Camada_1" x="0" y="0" version="1.1" viewBox="0 0 50 50" xml:space="preserve"><style>.st2{fill:#031326}</style><path fill="#e589ef" d="M39.6 27.2v.7l6.3-2.3v-6.2l2-1.9c1.9-2.6 1.1-7-1.1-10.1l-45 16.4c.9 5.4 3.4 11.1 6.8 15.4l30.1-11c.4-.3.6-.7.9-1z"/><path fill="#f799ff" d="M40.3 3.8l-3.1 1c-1.1-.2-2-.1-2.9 0-4.5.8-12.6 2.4-18.7 3.6-3-1.3-5.8-1.3-8 0-3.5.9-6 4.2-6.5 9.6-.2 2-.1 4 .3 6.1L47.3 7.4c-1.7-2.4-4.2-4.1-7-3.6z"/><path d="M28.1 29.3c-1-4.9-3.4-9.9-6.6-13.8l-.3-.3-8.7 5.3-.1.1c-.8.5-1.4 1.5-1.6 3-.3 3.2 1.6 7.4 4.3 9.2 1.1.8 2.2 1 3.1.8h.2l9.7-3.9v-.4zm-7.9 2.6c.2-.4.3-.9.3-1.5.3-3.2-1.6-7.4-4.3-9.2-.5-.4-1-.6-1.5-.8l6.3-3.8c2.9 3.5 5 8.1 6 12.6l-6.8 2.7z" class="st2"/><path d="M47.9 7.7c-2.1-3.5-5.2-5.2-8.4-4.7l-2.9.9c-1.2-.2-2.2-.1-2.9.1-4.2.7-11.8 2.1-17.7 3.3-3-1.2-6-1.2-8.4.2-4 1.1-6.5 4.8-7 10.3-.8 9.5 4.8 21.6 12.6 27 2.6 1.8 5.2 2.8 7.6 2.8 1.5 0 2.9-.3 4.1-1 3.4-.9 5.8-3.9 6.7-8.3l6.4-7.6v4.6c0 2.4 2 4.4 4.4 4.4s4.4-2 4.4-4.4c0-.7-.6-1.2-1.2-1.2s-1.2.6-1.2 1.2c0 1-.8 1.9-1.9 1.9s-1.9-.8-1.9-1.9V24.9c.5-.6.9-1.1 1.3-1.6l.2-.2c.9-1.1 2-2.3 2-4.6v-.1l2.1-1.7c.3-.2.3-.6.1-.9-.2-.3-.6-.3-.9-.1L44 17c-.1-.9-.4-1.8-.7-2.7l2.4-1.5c.3-.2.4-.6.2-.9-.2-.3-.6-.4-.9-.2l-2.2 1.4c-.4-.9-.9-1.8-1.4-2.6L44 9.3c.3-.1.5-.5.3-.8-.1-.3-.5-.5-.8-.3l-2.8 1.3c-.5-.7-1.1-1.3-1.7-1.9l1.6-.5c.2-.1.4-.4.3-.8-.1-.3-.4-.5-.8-.4l-2.5.7c-.2-.1-.4-.2-.5-.3l2.9-.9c2.1-.3 4.2 1 5.8 3.6 1.7 2.8 2 6 .8 7.8l-2.2 2.1v7.5c0 .7.6 1.2 1.2 1.2s1.2-.6 1.2-1.2V20l1.5-1.5.1-.2c2.4-3 1.4-7.5-.5-10.6zm-33 33.8C8 36.7 3 26 3.8 17.6c.2-2.6 1-4.7 2.2-6.2l.4-.4c-1.1 1.5-1.8 3.6-2 6.1-.8 8.4 4.2 19.1 11.1 24 2.5 1.8 5 2.6 7.2 2.4-2.2.7-4.9.1-7.8-2zm12.8-5.9c-.2 2.4-.9 4.4-2 5.8l-.3.2c-2.4 1.6-5.8 1.1-9.2-1.3-6.6-4.7-11.4-15-10.7-23.1.3-3.5 1.6-6.1 3.8-7.4l.7-.4h.6c1.9 0 3.9.8 6.1 2.3 6.7 4.8 11.7 15.5 11 23.9zm10-27.7c.7.6 1.4 1.2 2 1.9.3.3.5.7.8 1 .6.9 1.1 1.8 1.5 2.7.2.4.3.8.5 1.2.3 1 .6 2 .6 2.9v.8c0 1.9-.9 2.9-1.8 4l-.2.2c-3 3.5-7.9 9.4-11.7 13.8 0-.2.1-.5.1-.7.8-9-4.6-20.6-12-25.8-.2-.2-.4-.3-.7-.4C22.6 8.4 29.9 7 34 6.2c.7.1 1.5.3 2.3.7h.1c.6.5 1 .7 1.3 1z" class="st2"/><path fill="none" d="M38.6 28.1l.8-.3v-.7c-.3.4-.6.7-.8 1z"/></svg>