<svg xmlns="http://www.w3.org/2000/svg" viewBox="0 0 44.6 47.8"><defs><style>.cls-1{stroke-miterlimit:10;stroke-width:.5px;fill:none;stroke:#444}</style></defs><g id="Camada_2"><path fill="#8256d8" d="M24.6 17.4l7.5 2.4-6.4 4.5.1 8-6.4-4.8-7.5 2.6 2.6-7.5-4.8-6.4 7.9.1 4.6-6.5 2.4 7.6z"/><path fill="#a475ef" d="M31.5 1.8H11.3c-1.5 0-2.8 5.1-2.8 6.6l.3 14.4.2 9.9.7 12.7 1.2.9 24.3-8.6-.4-34"/><path fill="none" stroke="#444" stroke-linecap="round" stroke-linejoin="round" stroke-width="2.5" d="M34.7 4.8c0-2.9-3.9-3.1-3.9-3.1H12.3c-1.9 0-3.4 1.5-3.4 3.4v37.7c0 1.9 1.5 3.4 3.4 3.4h15.6m6.8-25.1V4.8l-.1 35.6.1-19.3z"/><path d="M18.3 1.8h6.6c1.3 0 2.4 1.1 2.4 2.4v.7c0 .3-.3.6-.6.6H16.4c-.3 0-.6-.3-.6-.6v-.7c0-1.3 1.1-2.4 2.4-2.4z" class="cls-1" transform="rotate(180 21.55 3.65)"/><circle cx="22.2" cy="41.3" r="2.2" class="cls-1"/><path d="M21.8 24c-1.2 0-2.3-1-2.3-2.3s1-2.3 2.3-2.3 2.3 1 2.3 2.3-1 2.3-2.3 2.3z" class="cls-1"/><path d="M29.9 24c0-4.5-3.7-8.2-8.2-8.2s-8.2 3.7-8.2 8.2 1.3 5.1 3.4 6.6h.1c1.3.9 2.9 1.5 4.7 1.5s3.4-.6 4.7-1.5c2-1.5 3.4-3.9 3.4-6.6zm-12.1 5c0-2.2 1.8-4 4-4s4 1.8 4 4c-1.1.8-2.5 1.2-4 1.2s-2.8-.4-4-1.2z" class="cls-1"/><path fill="none" stroke="#444" stroke-linecap="round" stroke-linejoin="round" d="M14.7 34.3h-2.4c-.3 0-.5-.2-.5-.5v-2.4m17.1 2.9h2.4c.3 0 .5-.2.5-.5v-2.4M14.7 13.7h-2.4c-.3 0-.5.2-.5.5v2.4m17.1-2.9h2.4c.3 0 .5.2.5.5v2.4"/></g></svg>
