<svg xmlns="http://www.w3.org/2000/svg" viewBox="0 0 50 50"><path fill="#35d3c3" d="M29.2 18.3l8 2.5-6.8 4.8.1 8.3-6.7-4.9-7.9 2.6 2.7-7.9-5-6.6 8.3.1 4.8-6.8z"/><path fill="#7df4eb" d="M49.1 16.6l-4.5-9.8-9.1-3.4-10.2 5.4c-3.2 0-2.8-4-12.9-6.1L3.3 9 1.4 19.9 6.9 31c1.3.9 10 12.3 11.5 11.8l22.1-7.9c2-3.5 7.6-12.5 8.1-17.5.3-3.2.9.1.5-.8z"/><path fill="none" stroke="#444" stroke-linecap="round" stroke-linejoin="round" stroke-miterlimit="10" stroke-width="2.5" d="M26.5 45.9c-.9.6-2.1.6-3.1 0-9.4-5.8-22.6-18.6-22-30C2 4.3 15.8-1.1 23.3 8.5c.8 1.1 2.5 1.1 3.3 0 7.5-9.6 21.3-4.2 21.9 7.3.4 7-4.5 14.6-10.4 20.7" clip-rule="evenodd"/><path fill="none" stroke="#444" stroke-miterlimit="10" d="M25 39.6C18.7 36.1 8.9 27 9.3 19c.4-8.4 11-11.9 15.7-3.2 4.6-8.7 15.3-5.1 15.7 3.2.4 8-9.4 17.1-15.7 20.6z" clip-rule="evenodd"/><path fill="#444" fill-rule="evenodd" d="M25 29.6c-1.9-1.1-5-3.9-4.8-6.4.1-2.6 3.4-3.7 4.8-1 1.4-2.7 4.7-1.6 4.8 1 .1 2.5-2.9 5.3-4.8 6.4z" clip-rule="evenodd"/></svg>