<?xml version="1.0" encoding="utf-8"?>
<!-- Generator: Adobe Illustrator 24.0.0, SVG Export Plug-In . SVG Version: 6.00 Build 0)  -->
<svg version="1.1" id="Camada_1" xmlns="http://www.w3.org/2000/svg" xmlns:xlink="http://www.w3.org/1999/xlink" x="0px" y="0px"
	 viewBox="0 0 50 50" style="enable-background:new 0 0 50 50;" xml:space="preserve">
<style type="text/css">
	.st0{fill:#E589EF;}
	.st1{fill:#F799FF;}
	.st2{fill:#444444;}
	.st3{fill:none;}
</style>
<g>
	<g>
		<path class="st0" d="M39.6,27.2v0.7l6.3-2.3v-6.2l2-1.9c1.9-2.6,1.1-7-1.1-10.1l-45,16.4c0.9,5.4,3.4,11.1,6.8,15.4l30.1-11
			C39.1,27.9,39.3,27.5,39.6,27.2z"/>
	</g>
	<g>
		<path class="st1" d="M40.3,3.8l-3.1,1c-1.1-0.2-2-0.1-2.9,0c-4.5,0.8-12.6,2.4-18.7,3.6c-3-1.3-5.8-1.3-8,0
			c-3.5,0.9-6,4.2-6.5,9.6c-0.2,2-0.1,4,0.3,6.1L47.3,7.4C45.6,5,43.1,3.3,40.3,3.8z"/>
	</g>
	<path class="st2" d="M28.1,29.3c-1-4.9-3.4-9.9-6.6-13.8l-0.3-0.3l-8.7,5.3c0,0,0,0-0.1,0.1c-0.8,0.5-1.4,1.5-1.6,3
		c-0.3,3.2,1.6,7.4,4.3,9.2c1.1,0.8,2.2,1,3.1,0.8c0,0,0,0,0,0c0.1,0,0.1,0,0.2,0l9.7-3.9L28.1,29.3z M20.2,31.9
		c0.2-0.4,0.3-0.9,0.3-1.5c0.3-3.2-1.6-7.4-4.3-9.2c-0.5-0.4-1-0.6-1.5-0.8l6.3-3.8c2.9,3.5,5,8.1,6,12.6L20.2,31.9z"/>
	<path class="st2" d="M47.9,7.7c-2.1-3.5-5.2-5.2-8.4-4.7l-2.9,0.9c-1.2-0.2-2.2-0.1-2.9,0.1C29.5,4.7,21.9,6.1,16,7.3
		c-3-1.2-6-1.2-8.4,0.2c-4,1.1-6.5,4.8-7,10.3c-0.8,9.5,4.8,21.6,12.6,27c2.6,1.8,5.2,2.8,7.6,2.8c1.5,0,2.9-0.3,4.1-1
		c3.4-0.9,5.8-3.9,6.7-8.3l6.4-7.6v4.6c0,2.4,2,4.4,4.4,4.4s4.4-2,4.4-4.4c0-0.7-0.6-1.2-1.2-1.2s-1.2,0.6-1.2,1.2
		c0,1-0.8,1.9-1.9,1.9s-1.9-0.8-1.9-1.9V24.9c0.5-0.6,0.9-1.1,1.3-1.6l0.2-0.2c0.9-1.1,2-2.3,2-4.6c0,0,0,0,0-0.1l2.1-1.7
		c0.3-0.2,0.3-0.6,0.1-0.9c-0.2-0.3-0.6-0.3-0.9-0.1L44,17c-0.1-0.9-0.4-1.8-0.7-2.7l2.4-1.5c0.3-0.2,0.4-0.6,0.2-0.9
		c-0.2-0.3-0.6-0.4-0.9-0.2l-2.2,1.4c-0.4-0.9-0.9-1.8-1.4-2.6l2.6-1.2c0.3-0.1,0.5-0.5,0.3-0.8c-0.1-0.3-0.5-0.5-0.8-0.3l-2.8,1.3
		c-0.5-0.7-1.1-1.3-1.7-1.9l1.6-0.5C40.8,7,41,6.7,40.9,6.3c-0.1-0.3-0.4-0.5-0.8-0.4l-2.5,0.7c-0.2-0.1-0.4-0.2-0.5-0.3L40,5.4
		c2.1-0.3,4.2,1,5.8,3.6c1.7,2.8,2,6,0.8,7.8l-2.2,2.1v7.5c0,0.7,0.6,1.2,1.2,1.2s1.2-0.6,1.2-1.2V20l1.5-1.5l0.1-0.2
		C50.8,15.3,49.8,10.8,47.9,7.7z M14.9,41.5C8,36.7,3,26,3.8,17.6C4,15,4.8,12.9,6,11.4c0.1-0.1,0.3-0.3,0.4-0.4
		c-1.1,1.5-1.8,3.6-2,6.1c-0.8,8.4,4.2,19.1,11.1,24h0c2.5,1.8,5,2.6,7.2,2.4C20.5,44.2,17.8,43.6,14.9,41.5z M27.7,35.6
		c-0.2,2.4-0.9,4.4-2,5.8l-0.3,0.2c-2.4,1.6-5.8,1.1-9.2-1.3h0c-6.6-4.7-11.4-15-10.7-23.1c0.3-3.5,1.6-6.1,3.8-7.4l0.7-0.4
		c0.2,0,0.4,0,0.6,0c1.9,0,3.9,0.8,6.1,2.3C23.4,16.5,28.4,27.2,27.7,35.6z M37.7,7.9c0.7,0.6,1.4,1.2,2,1.9c0.3,0.3,0.5,0.7,0.8,1
		c0.6,0.9,1.1,1.8,1.5,2.7c0.2,0.4,0.3,0.8,0.5,1.2c0.3,1,0.6,2,0.6,2.9c0,0.3,0,0.6,0,0.8c0,0,0,0,0,0c0,1.9-0.9,2.9-1.8,4
		l-0.2,0.2c-3,3.5-7.9,9.4-11.7,13.8c0-0.2,0.1-0.5,0.1-0.7c0.8-9-4.6-20.6-12-25.8c-0.2-0.2-0.4-0.3-0.7-0.4
		c5.8-1.1,13.1-2.5,17.2-3.3c0.7,0.1,1.5,0.3,2.3,0.7c0,0,0,0,0.1,0C37,7.4,37.4,7.6,37.7,7.9z"/>
</g>
<g>
	<path class="st3" d="M38.6,28.1l0.8-0.3v-0.7C39.1,27.5,38.8,27.8,38.6,28.1z"/>
</g>
</svg>
