<?xml version="1.0" encoding="utf-8"?>
<!-- Generator: Adobe Illustrator 28.0.0, SVG Export Plug-In . SVG Version: 6.00 Build 0)  -->
<svg version="1.1" id="Layer_1" xmlns="http://www.w3.org/2000/svg" xmlns:xlink="http://www.w3.org/1999/xlink" x="0px" y="0px"
	 viewBox="0 0 50 50" style="enable-background:new 0 0 50 50;" xml:space="preserve">
<style type="text/css">
	.st0{fill:#C3FF68;}
	.st1{fill:none;stroke:#444444;stroke-width:2.5;stroke-linecap:round;stroke-linejoin:round;stroke-miterlimit:10;}
	.st2{fill:#444444;}
	.st3{fill:none;stroke:#444444;stroke-width:0.25;stroke-linecap:round;stroke-linejoin:round;stroke-miterlimit:10;}
	.st4{fill:none;stroke:#444444;stroke-linecap:round;stroke-linejoin:round;stroke-miterlimit:10;}
	.st5{fill:none;stroke:#444444;stroke-linecap:round;stroke-linejoin:round;stroke-miterlimit:10;}
</style>
<g>
	<path class="st0" d="M47.1,20.2c-0.2-0.8-2.7-7.5-3.2-8.1l-3-3.5l-0.2,0.1l-7.6-5.7l-7.8-0.7c-3.2,0-12.8-0.7-21.3,11.5l-2.9,7.9
		l0.5,2l1.8,11.5c0.1,0.4,4.7,7,5.1,7.2l5.6,3l32.2-11.7C47,33.2,48.1,24.9,47.1,20.2z"/>
	<path class="st1" d="M27.4,47.8C14.8,49.3,3.3,40.3,1.7,27.7S9.1,3.6,21.8,2s24.1,7.4,25.7,20.1c0.6,5.1-0.5,10-2.8,14.1"/>
	<g>
		<path class="st2" d="M14.6,19.8l2.4,0.9c0.1,0,0.1,0.1,0.1,0.2L14.7,24c0,0.1,0,0.1,0,0.2l1.3,0.9c0.1,0,0.1,0,0.2,0l2.5-3.4
			c0-0.1,0.1-0.1,0.2,0l1.8,1.7c0.1,0.1,0.2,0,0.2-0.1l0.1-6.6c0-0.1-0.1-0.2-0.2-0.1l-6.2,3C14.4,19.6,14.5,19.7,14.6,19.8z"/>
		<line class="st3" x1="19.7" y1="15" x2="19.5" y2="14"/>
		<line class="st3" x1="22.9" y1="17" x2="23.9" y2="16.8"/>
		<line class="st3" x1="21.9" y1="15.2" x2="22.5" y2="14.3"/>
		<path class="st4" d="M9,25.9"/>
	</g>
	<g>
		<rect x="11" y="27.7" class="st5" width="28.8" height="2.5"/>
		<line class="st5" x1="25.4" y1="30.2" x2="25.4" y2="42.7"/>
		<line class="st5" x1="16" y1="42.7" x2="23" y2="30.2"/>
		<line class="st5" x1="34.8" y1="42.7" x2="27.7" y2="30.2"/>
		<rect x="12.2" y="11.4" class="st5" width="26.3" height="16.3"/>
		<rect x="16" y="8.9" class="st5" width="18.8" height="2.5"/>
		<line class="st5" x1="18.5" y1="35.2" x2="32.2" y2="35.2"/>
	</g>
</g>
</svg>
