<?xml version="1.0" encoding="utf-8"?>
<!-- Generator: Adobe Illustrator 28.2.0, SVG Export Plug-In . SVG Version: 6.00 Build 0)  -->
<svg version="1.1" id="Camada_1" xmlns="http://www.w3.org/2000/svg" xmlns:xlink="http://www.w3.org/1999/xlink" x="0px" y="0px"
	 viewBox="0 0 50 50" style="enable-background:new 0 0 50 50;" xml:space="preserve">
<style type="text/css">
	.st0{fill:#35D3C3;}
	.st1{fill:#7DF4EB;}
	
		.st2{fill-rule:evenodd;clip-rule:evenodd;fill:none;stroke:#444444;stroke-width:2.5;stroke-linecap:round;stroke-linejoin:round;stroke-miterlimit:10;}
	.st3{fill-rule:evenodd;clip-rule:evenodd;fill:none;stroke:#444444;stroke-miterlimit:10;}
	.st4{fill-rule:evenodd;clip-rule:evenodd;fill:#444444;}
</style>
<g>
	<polygon class="st0" points="29.2,18.3 37.2,20.8 30.4,25.6 30.5,33.9 23.8,29 15.9,31.6 18.6,23.7 13.6,17.1 21.9,17.2 26.7,10.4 
			"/>
	<g>
		<path class="st1" d="M49.1,16.6l-4.5-9.8l-9.1-3.4L25.3,8.8c-3.2,0-2.8-4-12.9-6.1L3.3,9L1.4,19.9L6.9,31
			c1.3,0.9,10,12.3,11.5,11.8l22.1-7.9c2-3.5,7.6-12.5,8.1-17.5C48.9,14.2,49.5,17.5,49.1,16.6z"/>
		<path class="st2" d="M26.5,45.9c-0.9,0.6-2.1,0.6-3.1,0c-9.4-5.8-22.6-18.6-22-30C2,4.3,15.8-1.1,23.3,8.5c0.8,1.1,2.5,1.1,3.3,0
			c7.5-9.6,21.3-4.2,21.9,7.3c0.4,7-4.5,14.6-10.4,20.7"/>
		<path class="st3" d="M25,39.6C18.7,36.1,8.9,27,9.3,19C9.7,10.6,20.3,7.1,25,15.8c4.6-8.7,15.3-5.1,15.7,3.2
			C41.1,27,31.3,36.1,25,39.6z"/>
		<path class="st4" d="M25,29.6c-1.9-1.1-5-3.9-4.8-6.4c0.1-2.6,3.4-3.7,4.8-1c1.4-2.7,4.7-1.6,4.8,1C29.9,25.7,26.9,28.5,25,29.6z"
			/>
	</g>
</g>
</svg>
