<?xml version="1.0" encoding="utf-8"?>
<!-- Generator: Adobe Illustrator 26.5.0, SVG Export Plug-In . SVG Version: 6.00 Build 0)  -->
<svg version="1.1" id="Camada_1" xmlns="http://www.w3.org/2000/svg" xmlns:xlink="http://www.w3.org/1999/xlink" x="0px" y="0px"
	 viewBox="0 0 300 300" style="enable-background:new 0 0 300 300;" xml:space="preserve">
<style type="text/css">
	.st0{fill:#333F31;}
	.st1{fill:#454D51;}
	.st2{fill:#4B5459;}
	.st3{fill:#EAEAEA;}
	.st4{fill:none;stroke:#4B5459;stroke-width:9;stroke-miterlimit:10;}
	.st5{fill:#F2F2F2;}
	.st6{fill:#E74C44;}
	.st7{fill:#F8604D;}
	.st8{fill:#008DD3;}
	.st9{fill:#FBC304;}
	.st10{fill:#FBD40B;}
	.st11{fill:#EBB704;}
</style>
<g>
	<g>
		<circle class="st8" cx="145.2" cy="153.4" r="145.2"/>
	</g>
	<g>
		<g>
			<path class="st1" d="M270.4,239.1c-25.6,6-58.7,11.4-97.5,11.7c-37.8,0.3-70.3-4.2-95.7-9.5c-3.6-0.6-8.5-2.1-12.1-6.2
				c-0.9-1-2.5-3.1-3.6-6.4c-16.9-52.3-13.6-104-13.6-104c1.6-25,4.9-57.2,12.2-94.5c0.4-2.3,1.5-6.7,5-9.8c2.1-1.9,4.7-2.9,6.4-3.6
				c2.1-0.8,3.9-1.3,5.2-1.6c26.3-4.7,57.9-8.3,93.8-8.5c38.2-0.1,71.7,3.7,99.2,8.7c2.2,0.3,6.8,1.2,10.2,5
				c1.9,2.1,2.9,4.6,3.6,6.4c1.1,2.8,1.5,5.2,1.7,7c4,27,7,58.8,6.8,94.4c-0.2,36.9-3.6,69.7-8.2,97.4c-0.2,1.4-1.2,5.7-5,9.3
				C275.6,238,271.9,238.8,270.4,239.1z"/>
			<path class="st2" d="M271,233.7c-25,5.9-57.4,11.1-95.3,11.5c-37,0.3-68.7-4.1-93.5-9.3c-3.5-0.6-8.3-2.1-11.8-6
				c-0.9-1-2.5-3-3.5-6.3c-16.5-51.1-13.3-101.7-13.3-101.7c1.6-24.4,4.8-55.9,11.9-92.4c0.4-2.3,1.4-6.5,4.9-9.6
				c2.1-1.8,4.6-2.8,6.3-3.5c2-0.8,3.8-1.3,5-1.5c25.7-4.6,56.6-8.1,91.7-8.3c37.3-0.1,70.1,3.7,96.9,8.5c2.1,0.3,6.7,1.2,9.9,4.8
				c1.9,2.1,2.8,4.5,3.5,6.3c1.1,2.7,1.5,5.1,1.7,6.8c3.9,26.4,6.8,57.5,6.6,92.3c-0.2,36.1-3.5,68.1-8,95.2
				c-0.2,1.4-1.1,5.6-4.9,9.1C276,232.7,272.4,233.5,271,233.7z"/>
			<path class="st3" d="M260.6,222.3c-22.4,5.3-51.3,10-85.2,10.3c-33.1,0.3-61.5-3.7-83.6-8.3c-3.1-0.5-7.4-1.8-10.6-5.4
				c-0.8-0.9-2.2-2.7-3.2-5.6c-14.8-45.7-11.9-90.9-11.9-90.9c1.4-21.8,4.3-50,10.7-82.6c0.3-2,1.3-5.8,4.4-8.6
				c1.9-1.6,4.1-2.5,5.6-3.2c1.8-0.7,3.4-1.1,4.5-1.4c23-4.1,50.6-7.3,82-7.4c33.4-0.1,62.7,3.3,86.7,7.6c1.9,0.2,6,1.1,8.9,4.3
				c1.7,1.9,2.5,4,3.2,5.6c0.9,2.4,1.3,4.6,1.5,6.1c3.5,23.6,6.1,51.4,5.9,82.5c-0.2,32.2-3.2,60.9-7.1,85.1c-0.2,1.2-1,5-4.4,8.1
				C265.1,221.4,261.9,222.1,260.6,222.3z"/>
			<path class="st4" d="M167,12.7c5.4,30.5,9.6,66.4,10.3,106.8c0.8,45.3-3,85.3-8.2,118.7"/>
			<path class="st4" d="M57.2,129.7c30.5-5.4,66.4-9.6,106.8-10.3c45.3-0.8,85.3,3,118.7,8.2"/>
			<path class="st5" d="M115,214.4c1.7-0.4,3.1-2.1,3.2-4.2c0.2-2.5-1.4-4.8-3.5-5c-8.7-1-14.1-2.7-17.1-3.9
				c-1.2-0.5-2.1-1.7-2.4-3.2c-1.1-6.1-3.4-18.6-6-36.6c-0.3-2.1-2.1-3.6-4.2-3.5c-0.1,0-0.1,0-0.2,0c-2.1,0.3-3.7,2.2-3.4,4.4
				c2.4,18.6,4.5,31.5,5.6,37.9c0.8,4.6,3.6,8.4,7.5,9.9c3.8,1.5,10,3.3,19.4,4.2h0C114.4,214.5,114.7,214.4,115,214.4"/>
		</g>
		<g>
			<path class="st6" d="M137.9,141c-2.3,0.9-3.9,1.5-5.5,2.1c-16.6,5.8-25.7,18.1-29.9,34.6c-1.2,4.8-1.8,9.7-0.6,14.8
				c1.7,7.8,5.5,13.7,12.5,17.5c7.8,4.2,16.3,6,25.1,6.8c12.4,1.1,24.8,0.1,37.1-1.1c14.4-1.4,28.5-4.1,42.3-8.9
				c3.8-1.3,7.4-3,10.3-5.9c7.9-7.9,16.9-14.8,23.9-23.5c1.4-1.7,2.9-3.4,4.1-5.3c1.5-2.2,2.1-4.4-0.6-6.5c-2.2-1.6-2.4-4.5-2.5-6.8
				c-0.2-4.1-1.5-7.8-2.6-11.6c-1.8-5.7-3.6-11.4-5.7-17.1c-3.3-8.9-7.6-17.3-12-25.6c-2.8-5.2-6-10.3-9.2-15.3
				c-6-9.3-13.7-17.1-22.8-23.4c-9.3-6.4-20-8.5-31.1-9.2c-6.3-0.4-12.3,1-18.5,1.7c-3.3,0.4-5.9,2.7-8.7,4.2
				c-7.4,3.7-13.7,8.8-18.5,15.8c-3.4,4.9-5,10.4-5.6,16c-1.7,14.8,2,28.1,12.2,39.3C133.5,135.6,135.3,137.9,137.9,141z"/>
			<path class="st7" d="M257.5,89.9c-1.2-3.6-2.1-7.2-3.5-10.7c-5.4-13-13.3-24.3-24.4-33.2c-6.9-5.5-14.8-8-23.3-9.2
				c-11.3-1.6-22.4,0.1-32.8,4.5c-14.5,6.3-25.1,16.7-30.8,31.7c-1.1,2.8-1.5,5.8-1.3,8.8c0.4,6.2,0.7,12.4,2.7,18.3
				c1.1,3.3,2.1,6.7,3.1,10c1.8,6,4.3,11.6,8.2,16.6c0.6,0.8,1,1.7,1.4,2.6c0.5,1,0.4,1.9-0.6,2.6c-1.9,1.2-3.8,2.4-5.7,3.5
				c-8.3,4.7-14,11.8-17.8,20.5c-1.9,4.4-2.5,9.1-0.9,13.8c0.5,1.4,1,2.8,1.3,4.3c1.5,7.2,6.5,11.5,12.4,15.1
				c4.5,2.7,9.4,4.8,14.5,5.8c7.3,1.4,14.7,2.7,22.2,2.8c13.6,0.2,27.2,0.6,40.8-0.3c8.2-0.5,15.5-3.3,21.6-9
				c1.5-1.4,2.8-2.8,4.3-4.2c2-1.9,3.9-3.8,6.8-4.3c2.8-0.5,4.3-2.5,5.1-5c0.7-2.1,1.3-4.3,1.7-6.5c1.9-12,2.2-24.2,2.3-36.4
				C265.1,117.7,262.5,103.6,257.5,89.9z"/>
			<path class="st0" d="M272.2,120.8c-0.2,0-0.5-0.2-0.6-0.4c-1.5-2-3.5-1.6-5.4-1c-4,1.3-8.3,2.1-10.6,6.3
				c-0.1,0.3-0.9,0.4-1.3,0.3c-0.9-0.3-0.9-1.1-0.6-1.8c0.4-0.9,0.9-1.8,1.6-2.5c4-3.8,9-5.4,14.3-5.7c2.6-0.1,4-1,5.8-2.5
				c8.5-7.4,19.4-4.4,23.3,6.2c2,5.5,1.6,10.7-0.4,16c-3.7,9.6-10,17.1-18.3,23c-2.2,1.5-4,3-4.2,5.7c-0.2,2.3-2.1,3.3-2.4,3.6
				c-1.9,3.1-10.9,16.5-26.2,31.8c-8.1,8.1-11.5,10.2-15.5,9.9c-2.6-0.2-6.6-1.5-7.4-4.3c-1.3-4.2,6.9-11,23.3-24.4
				c7.8-6.4,9.1-6.9,11-10.1c0.9-1.5,5-8.5,8.2-10.2c1.6-0.9,3.1-1.5,3.1-1.5c3-0.8,4.7-2.6,6.1-5c1.9-3.2,3.5-6.6,4.7-10.2
				c1.6-5,1.9-9.7,0.3-13.5C279.2,125.5,277.9,121.1,272.2,120.8z M284.1,151.6c5.2-4.8,9.2-10.5,11.6-17.2c2.1-5.9,2.3-11.6-1.8-17
				c-4.6-5.9-10.1-6.8-16.1-2.2c-0.6,0.4-1,1.1-1.8,1.9c5.6,4.5,9.4,10.2,9.6,17.6c0.2,6.8-2.2,13-5.4,19
				C282.5,154.3,283.1,152.5,284.1,151.6z"/>
			<path class="st6" d="M247.8,132.2c-2-7.6-6.9-16.4-13-24.6c-4.9-6.6-11.3-10.2-19.8-9.4c-3.8,0.4-6.9,2.2-9.2,5.2
				c-3.7,4.5-2.9,9.8-1.9,14.9c0.6,3.1,2.1,5.9,3.7,8.8c5.1,9.3,12.5,16.5,20.7,22.9c4.3,3.4,8.5,6.8,12.1,10.9
				c1.1,1.3,2.5,2.4,4,3.3c3.6,2.2,7.1,0.5,7.8-3.6c0.2-1.2,0.3-2.5,0.2-3.7c0-0.7-0.6-1.5-0.4-2.2
				C253.7,147.4,250.5,141.1,247.8,132.2z"/>
			<path class="st6" d="M161.4,152.5c-1.2,0.4-2.4,0.7-3.5,1.2c-2.4,1.1-3.3,4-1.9,6.3c1.5,2.4,3.6,4,6.1,5.4
				c6.1,3.5,12.8,5.6,19.2,8.2c10.8,4.3,22.2,7,33.4,10.1c0.7,0.2,1.4,0.6,2.1,0.6c1.7,0.2,2.9-0.6,3.6-2.1c0.7-1.4,0.5-3.4-0.9-4
				c-3.6-1.5-5.5-4.9-8.3-7.2c-7.5-6.2-15.2-11.9-24.8-14.8c-3.8-1.1-7.3-3.1-11.2-4C170.6,151.2,165.9,150.7,161.4,152.5z"/>
			<path class="st6" d="M162.5,87.7c1.1,1.4,2.2,3.4,3.9,4.7c5.2,3.8,9.9,8.1,14.2,12.8c0.5,0.5,1.1,1,1.7,1.4
				c2.1,1.4,4.3,1.5,5.5,0.4c1.9-1.9,2.7-4.7,1.6-6.8c-0.7-1.3-1.6-2.4-2.5-3.6c-4.3-5.8-9.5-10.6-15.7-14.3c-2-1.3-4.1-1.5-6.3-0.4
				C163.2,82.6,161.8,85.4,162.5,87.7z"/>
			<path class="st6" d="M210.2,56.2c0.3,2.1,1.9,3.4,3.2,4.9c2.8,3.1,5.6,6.3,6.7,10.6c0.1,0.2,0.2,0.5,0.3,0.7
				c1.1,2.1,4.2,3.8,6.2,3.3c1.8-0.5,4-3.8,3.5-6c-0.9-3.4-1.9-6.7-3.5-9.8c-1.3-2.6-3.4-4.8-5.2-7.2c-1.4-1.9-3.5-2.7-5.6-3.6
				c-1.8-0.8-3.5-0.1-4.9,1c-1.4,1.2-1.8,2.9-1.1,4.8C209.9,55.2,210,55.7,210.2,56.2z"/>
			<path class="st6" d="M204.2,81.5c-0.2-0.4-0.9-2-1.9-3.4c-3.3-4.6-6.7-9.1-10.1-13.6c-0.6-0.8-1.2-1.6-2-2.1
				c-1.9-1.2-5.3-1.2-6.2,0c-1.6,2.1-2.4,4.4-0.9,6.9c0.8,1.3,1.7,2.4,2.6,3.6c3.9,4.7,7.8,9.5,11.8,14.1c0.9,1.1,1.8,2.3,3.7,2
				C205.1,88.2,206,86.7,204.2,81.5z"/>
			<path class="st6" d="M188.3,124.4c-0.5-1.4-1.1-2.7-2.3-3.7c-4.9-3.9-10.3-6.9-16.1-9.3c-1.9-0.8-3.4-0.2-4.5,1.4
				c-1.5,2.2-1.6,3.7-0.3,5.3c2.1,2.4,4.4,4.7,7.4,6.2c1.5,0.7,2.9,1.9,4.3,2.8c1.7,1,3.4,2,5.2,3c2,1.1,3.9,0.6,5.5-0.9
				C188.9,127.9,189,126.1,188.3,124.4z"/>
		</g>
		<g>
			<path class="st9" d="M4.6,23.6c-0.2,4.1,0.8,8,1.8,11.9C9,46.1,13.5,56,17.9,66c2,4.5,4,9.1,6.3,13.5c3.4,6.6,7.3,12.9,11.4,19
				c1.6,2.4,3.8,4.4,5.9,6.4c1.4,1.3,3.2,1.4,4.8,2c0.5,0.2,1.3-0.2,1.8-0.5c1.5-1,2.7-2.3,3.7-3.8c1.3-1.9,2.5-3.7,3.7-5.6
				c0.4-0.7,0.8-1.4,1.3-2c2.9-3.2,5.6-6.7,8.8-9.6c2.5-2.3,4.6-4.9,7-7.3c2-2.1,3.4-4.6,3.9-7.6c0.2-1.1,0.4-2.2-0.1-3.3
				c-0.3-0.7-0.4-1.5-0.7-2.3c-1.8-4.8-5.1-7.6-10.3-8.2c-1.9-0.2-3.7-0.9-5.7-0.9c-3.8-0.1-6.7-2.1-8.9-5
				c-2.3-3.3-4.6-6.6-6.5-10.1C39.8,32,33.7,24.3,28.1,16.3c-1.9-2.6-4.2-4.9-6.7-6.9C18.4,7,15.1,5.6,11.1,7.3
				c-2.2,1-3.9,2.3-4.6,4.5C5.2,15.7,4.4,19.6,4.6,23.6z"/>
			<path class="st10" d="M36.5,52.7c0,3.5-0.2,7.1,0,10.6c0.7,12.8,2.3,25.5,6.6,37.8c0.4,1.1,0.7,2.1,1.2,3.2c1.3,3,3.7,4.1,7,3.2
				c2.9-0.8,5.6-2.3,8.6-3c9.8-2.3,19.6-4.7,29.4-7c4.2-1,8.3-2.3,12.4-3.9c5.6-2.2,9.9-6,13.5-10.6c2.6-3.3,2.2-8-0.7-11.6
				c-3.4-4.2-7.7-7.3-12.4-9.8c-1.1-0.6-2.3-1.2-3.5-1.7c-7.4-3-11.8-8.6-13.7-16.2c-1-4-1.9-8.1-2.8-12.2
				c-2.9-12.1-9.7-21.2-20.4-27.4c-2.4-1.4-4.8-2.5-7.7-2.6C49.4,1.2,46.2,3.2,44,7c-2.3,3.8-3.5,7.9-4.5,12.1
				c-1,4.5-1.7,9.1-2.3,13.7C36.4,39.5,36.6,46.1,36.5,52.7z"/>
			<path class="st0" d="M14.5,82.3c2.2,7.4,7.8,11.5,14.1,15.1c0.5,0.3,1,0,1.2-0.4c0.1-0.2,0.1-0.7,0-0.9c-0.9-1.1-2-2.1-2.9-3.2
				c-3.2-3.8-6.3-7.7-7.2-12.9c-0.2-1.4,0-2.5,0.5-3.7c1.2-3,5.5-4.7,9-2.5c0.3,0.2,0.5,0.8,0.5,1.2c0,0.9-0.6,0.9-1.3,0.6
				c-0.6-0.2-1.2-0.5-1.8-0.5c-2.5-0.1-3.9,1.3-4,3.8c-0.1,2.3,0.4,4.4,1.4,6.5c2.3,4.5,5.8,8.1,9.5,11.5c1,0.9,2.2,1.5,3.5,1.5
				c2.1,0,3.6,1.1,5.2,2.2c10.3,6.7,23,9.2,23.1,14.8c0.1,2.4-2.1,5.1-4.4,5.8c-3.8,1.1-6.4-3.7-17-11.4c-4.5-3.3-8.5-6.1-14.1-9.2
				c-3.2-1.8-6.3-3.8-9.3-6c-4.8-3.5-7.8-8-9.2-13.7c-0.3-1.1-0.5-2.2-0.5-3.3c0-3.6,2.4-6.4,6-7c0.4-0.1,0.9,0.2,1.3,0.4
				c0.3,0.1,0.6,0.4,0.6,0.7c0,0.2-0.2,0.6-0.4,0.8c-0.7,0.4-1.4,0.7-2.1,1.1c-1.7,1-2.5,2.5-2.3,4.5C13.9,79.5,14.1,80.9,14.5,82.3
				z M31,97.5c-0.7,0.6-0.2,0.9,0.3,1.3c0.3,0.4,0.7,0.8,1.1,0.4c0.4-0.5-0.1-0.8-0.5-1C31.5,97.9,31,97.4,31,97.5z"/>
			<path class="st11" d="M97.9,71.3c-1.3-0.3-2.5,0.5-3.5,1.1c-4.3,2.5-8.5,5-12.7,7.6c-5.1,3.2-10,6.9-15.3,9.9
				c-2.2,1.3-4.1,3-6.4,4.2c-1.1,0.6-1.4,1.9-0.9,2.9c0.6,1,1.7,1.5,2.9,1.2c6.4-1.8,12.9-3.7,18.9-6.7c6.3-3.2,12.4-6.6,17.4-11.8
				c1.1-1.2,2.1-2.4,2.8-3.9C102,73.2,100.7,71.2,97.9,71.3z"/>
			<path class="st11" d="M58.8,41.3c-0.1,2.1,0.5,3.3,1.7,3.6c1.3,0.4,2.7,0.3,3.5-0.9c3.2-4.4,6.5-8.6,8.8-13.6
				c0.7-1.6,0.4-2.5-1-3.8c-1.2-1-2.9-1.3-4-0.4c-1,0.8-2,1.7-2.7,2.7c-2.3,3.3-4,6.9-5.7,10.5C59,40.2,58.9,41,58.8,41.3z"/>
			<path class="st11" d="M50,32.5c0.1,0.3,0.1,0.9,0.4,1.5c0.4,1.2,2.2,1.7,3.2,1c1-0.8,1.8-1.7,2.2-3.1c1.1-3.8,2.3-7.6,3.4-11.4
				c0.3-1.1,0.3-2.2,0.4-3.3c0.2-1.4-0.6-2.4-1.6-3.3c-0.7-0.6-1.4-0.7-2.1-0.1c-1.2,0.9-2,2.1-2.4,3.5c-1.2,4.3-2.2,8.6-3.3,12.9
				C50,30.9,50.1,31.6,50,32.5z"/>
			<path class="st11" d="M67.5,80.5c0,1,0.5,1.4,1,1.8c0.6,0.5,1.2,0.4,1.7-0.1c2-1.9,4.1-3.7,5.7-5.8c2.2-3,4.9-5.5,7.5-8.2
				c0.7-0.7,1.4-1.4,1.9-2.2c0.6-0.8,0.5-1.8,0.2-2.8c-0.3-1.1-1.6-1.5-2.7-1.1c-2.1,0.7-3.4,2.4-4.7,4c-2.7,3.2-5.3,6.4-7.8,9.7
				c-0.9,1.1-1.7,2.3-2.5,3.5C67.6,79.7,67.6,80.2,67.5,80.5z"/>
			<path class="st11" d="M72.7,40.3c-1.2-0.1-2.2,0.4-2.9,1.3c-2.4,3-4.3,6.3-5.8,9.8c-0.4,0.9,0.2,1.6,0.9,2
				c1.1,0.7,2.8,0.7,3.5-0.2c2.3-2.8,4.6-5.7,6.8-8.6c0.7-0.9,1.2-1.9,0.4-3.1C74.9,40.4,73.9,40.2,72.7,40.3z"/>
			<path class="st11" d="M43.4,52.4c0.3,8.8,1.2,17.9,2.5,27c0.2,1.4,0.2,2.9,0.4,4.3c0.1,0.4,0.5,0.8,0.9,1
				c0.6,0.3,1.3,0.1,1.7-0.4c0.4-0.5,0.7-1.1,1-1.7c2.9-7.5,4.2-15.1,3.1-23.2c-0.5-4-1.1-8-2.4-11.8c-0.5-1.4-1.1-2.7-1.8-3.9
				c-0.7-1.3-2-1.8-3.3-1.4c-1.2,0.3-1.8,1.3-2.1,2.4C43.1,47.1,43.4,49.6,43.4,52.4z"/>
		</g>
	</g>
</g>
</svg>
