<svg xmlns="http://www.w3.org/2000/svg" id="Camada_1" x="0" y="0" version="1.1" viewBox="0 0 300 300" xml:space="preserve"><style>.st4{fill:none;stroke:#4b5459;stroke-width:9;stroke-miterlimit:10}.st6{fill:#e74c44}.st8{fill:#008dd3}</style><circle cx="145.2" cy="153.4" r="145.2" fill="#008dd3"/><path fill="#454d51" d="M270.4 239.1c-25.6 6-58.7 11.4-97.5 11.7a451 451 0 01-95.7-9.5c-3.6-.6-8.5-2.1-12.1-6.2-.9-1-2.5-3.1-3.6-6.4-16.9-52.3-13.6-104-13.6-104 1.6-25 4.9-57.2 12.2-94.5.4-2.3 1.5-6.7 5-9.8 2.1-1.9 4.7-2.9 6.4-3.6 2.1-.8 3.9-1.3 5.2-1.6 26.3-4.7 57.9-8.3 93.8-8.5 38.2-.1 71.7 3.7 99.2 8.7 2.2.3 6.8 1.2 10.2 5 1.9 2.1 2.9 4.6 3.6 6.4 1.1 2.8 1.5 5.2 1.7 7 4 27 7 58.8 6.8 94.4-.2 36.9-3.6 69.7-8.2 97.4-.2 1.4-1.2 5.7-5 9.3-3.2 3.1-6.9 3.9-8.4 4.2z"/><path fill="#4b5459" d="M271 233.7c-25 5.9-57.4 11.1-95.3 11.5-37 .3-68.7-4.1-93.5-9.3-3.5-.6-8.3-2.1-11.8-6-.9-1-2.5-3-3.5-6.3-16.5-51.1-13.3-101.7-13.3-101.7 1.6-24.4 4.8-55.9 11.9-92.4.4-2.3 1.4-6.5 4.9-9.6 2.1-1.8 4.6-2.8 6.3-3.5 2-.8 3.8-1.3 5-1.5 25.7-4.6 56.6-8.1 91.7-8.3 37.3-.1 70.1 3.7 96.9 8.5 2.1.3 6.7 1.2 9.9 4.8 1.9 2.1 2.8 4.5 3.5 6.3 1.1 2.7 1.5 5.1 1.7 6.8 3.9 26.4 6.8 57.5 6.6 92.3-.2 36.1-3.5 68.1-8 95.2-.2 1.4-1.1 5.6-4.9 9.1-3.1 3.1-6.7 3.9-8.1 4.1z"/><path fill="#eaeaea" d="M260.6 222.3c-22.4 5.3-51.3 10-85.2 10.3-33.1.3-61.5-3.7-83.6-8.3-3.1-.5-7.4-1.8-10.6-5.4-.8-.9-2.2-2.7-3.2-5.6-14.8-45.7-11.9-90.9-11.9-90.9 1.4-21.8 4.3-50 10.7-82.6.3-2 1.3-5.8 4.4-8.6 1.9-1.6 4.1-2.5 5.6-3.2 1.8-.7 3.4-1.1 4.5-1.4 23-4.1 50.6-7.3 82-7.4 33.4-.1 62.7 3.3 86.7 7.6 1.9.2 6 1.1 8.9 4.3 1.7 1.9 2.5 4 3.2 5.6.9 2.4 1.3 4.6 1.5 6.1 3.5 23.6 6.1 51.4 5.9 82.5-.2 32.2-3.2 60.9-7.1 85.1-.2 1.2-1 5-4.4 8.1-2.9 2.9-6.1 3.6-7.4 3.8z"/><path d="M167 12.7c5.4 30.5 9.6 66.4 10.3 106.8.8 45.3-3 85.3-8.2 118.7" class="st4"/><path d="M57.2 129.7c30.5-5.4 66.4-9.6 106.8-10.3 45.3-.8 85.3 3 118.7 8.2" class="st4"/><path fill="#f2f2f2" d="M115 214.4c1.7-.4 3.1-2.1 3.2-4.2.2-2.5-1.4-4.8-3.5-5-8.7-1-14.1-2.7-17.1-3.9-1.2-.5-2.1-1.7-2.4-3.2-1.1-6.1-3.4-18.6-6-36.6-.3-2.1-2.1-3.6-4.2-3.5h-.2c-2.1.3-3.7 2.2-3.4 4.4 2.4 18.6 4.5 31.5 5.6 37.9.8 4.6 3.6 8.4 7.5 9.9 3.8 1.5 10 3.3 19.4 4.2.5.1.8 0 1.1 0"/><path d="M137.9 141c-2.3.9-3.9 1.5-5.5 2.1-16.6 5.8-25.7 18.1-29.9 34.6-1.2 4.8-1.8 9.7-.6 14.8 1.7 7.8 5.5 13.7 12.5 17.5 7.8 4.2 16.3 6 25.1 6.8 12.4 1.1 24.8.1 37.1-1.1 14.4-1.4 28.5-4.1 42.3-8.9 3.8-1.3 7.4-3 10.3-5.9 7.9-7.9 16.9-14.8 23.9-23.5 1.4-1.7 2.9-3.4 4.1-5.3 1.5-2.2 2.1-4.4-.6-6.5-2.2-1.6-2.4-4.5-2.5-6.8-.2-4.1-1.5-7.8-2.6-11.6-1.8-5.7-3.6-11.4-5.7-17.1-3.3-8.9-7.6-17.3-12-25.6-2.8-5.2-6-10.3-9.2-15.3-6-9.3-13.7-17.1-22.8-23.4-9.3-6.4-20-8.5-31.1-9.2-6.3-.4-12.3 1-18.5 1.7-3.3.4-5.9 2.7-8.7 4.2-7.4 3.7-13.7 8.8-18.5 15.8-3.4 4.9-5 10.4-5.6 16-1.7 14.8 2 28.1 12.2 39.3 1.9 2 3.7 4.3 6.3 7.4z" class="st6"/><path fill="#f8604d" d="M257.5 89.9c-1.2-3.6-2.1-7.2-3.5-10.7-5.4-13-13.3-24.3-24.4-33.2-6.9-5.5-14.8-8-23.3-9.2-11.3-1.6-22.4.1-32.8 4.5C159 47.6 148.4 58 142.7 73c-1.1 2.8-1.5 5.8-1.3 8.8.4 6.2.7 12.4 2.7 18.3 1.1 3.3 2.1 6.7 3.1 10 1.8 6 4.3 11.6 8.2 16.6.6.8 1 1.7 1.4 2.6.5 1 .4 1.9-.6 2.6-1.9 1.2-3.8 2.4-5.7 3.5-8.3 4.7-14 11.8-17.8 20.5-1.9 4.4-2.5 9.1-.9 13.8.5 1.4 1 2.8 1.3 4.3 1.5 7.2 6.5 11.5 12.4 15.1 4.5 2.7 9.4 4.8 14.5 5.8 7.3 1.4 14.7 2.7 22.2 2.8 13.6.2 27.2.6 40.8-.3 8.2-.5 15.5-3.3 21.6-9 1.5-1.4 2.8-2.8 4.3-4.2 2-1.9 3.9-3.8 6.8-4.3 2.8-.5 4.3-2.5 5.1-5 .7-2.1 1.3-4.3 1.7-6.5 1.9-12 2.2-24.2 2.3-36.4.3-14.3-2.3-28.4-7.3-42.1z"/><path d="M272.2 120.8c-.2 0-.5-.2-.6-.4-1.5-2-3.5-1.6-5.4-1-4 1.3-8.3 2.1-10.6 6.3-.1.3-.9.4-1.3.3-.9-.3-.9-1.1-.6-1.8.4-.9.9-1.8 1.6-2.5 4-3.8 9-5.4 14.3-5.7 2.6-.1 4-1 5.8-2.5 8.5-7.4 19.4-4.4 23.3 6.2 2 5.5 1.6 10.7-.4 16-3.7 9.6-10 17.1-18.3 23-2.2 1.5-4 3-4.2 5.7-.2 2.3-2.1 3.3-2.4 3.6-1.9 3.1-10.9 16.5-26.2 31.8-8.1 8.1-11.5 10.2-15.5 9.9-2.6-.2-6.6-1.5-7.4-4.3-1.3-4.2 6.9-11 23.3-24.4 7.8-6.4 9.1-6.9 11-10.1.9-1.5 5-8.5 8.2-10.2 1.6-.9 3.1-1.5 3.1-1.5 3-.8 4.7-2.6 6.1-5 1.9-3.2 3.5-6.6 4.7-10.2 1.6-5 1.9-9.7.3-13.5-1.8-5-3.1-9.4-8.8-9.7zm11.9 30.8c5.2-4.8 9.2-10.5 11.6-17.2 2.1-5.9 2.3-11.6-1.8-17-4.6-5.9-10.1-6.8-16.1-2.2-.6.4-1 1.1-1.8 1.9 5.6 4.5 9.4 10.2 9.6 17.6.2 6.8-2.2 13-5.4 19 2.3.6 2.9-1.2 3.9-2.1z" class="st8"/><path d="M247.8 132.2c-2-7.6-6.9-16.4-13-24.6-4.9-6.6-11.3-10.2-19.8-9.4-3.8.4-6.9 2.2-9.2 5.2-3.7 4.5-2.9 9.8-1.9 14.9.6 3.1 2.1 5.9 3.7 8.8 5.1 9.3 12.5 16.5 20.7 22.9 4.3 3.4 8.5 6.8 12.1 10.9 1.1 1.3 2.5 2.4 4 3.3 3.6 2.2 7.1.5 7.8-3.6.2-1.2.3-2.5.2-3.7 0-.7-.6-1.5-.4-2.2 1.7-7.3-1.5-13.6-4.2-22.5zm-86.4 20.3c-1.2.4-2.4.7-3.5 1.2-2.4 1.1-3.3 4-1.9 6.3 1.5 2.4 3.6 4 6.1 5.4 6.1 3.5 12.8 5.6 19.2 8.2 10.8 4.3 22.2 7 33.4 10.1.7.2 1.4.6 2.1.6 1.7.2 2.9-.6 3.6-2.1.7-1.4.5-3.4-.9-4-3.6-1.5-5.5-4.9-8.3-7.2-7.5-6.2-15.2-11.9-24.8-14.8-3.8-1.1-7.3-3.1-11.2-4-4.6-1-9.3-1.5-13.8.3zm1.1-64.8c1.1 1.4 2.2 3.4 3.9 4.7 5.2 3.8 9.9 8.1 14.2 12.8.5.5 1.1 1 1.7 1.4 2.1 1.4 4.3 1.5 5.5.4 1.9-1.9 2.7-4.7 1.6-6.8-.7-1.3-1.6-2.4-2.5-3.6-4.3-5.8-9.5-10.6-15.7-14.3-2-1.3-4.1-1.5-6.3-.4-1.7.7-3.1 3.5-2.4 5.8zm47.7-31.5c.3 2.1 1.9 3.4 3.2 4.9 2.8 3.1 5.6 6.3 6.7 10.6.1.2.2.5.3.7 1.1 2.1 4.2 3.8 6.2 3.3 1.8-.5 4-3.8 3.5-6-.9-3.4-1.9-6.7-3.5-9.8-1.3-2.6-3.4-4.8-5.2-7.2-1.4-1.9-3.5-2.7-5.6-3.6-1.8-.8-3.5-.1-4.9 1-1.4 1.2-1.8 2.9-1.1 4.8.1.3.2.8.4 1.3zm-6 25.3c-.2-.4-.9-2-1.9-3.4-3.3-4.6-6.7-9.1-10.1-13.6-.6-.8-1.2-1.6-2-2.1-1.9-1.2-5.3-1.2-6.2 0-1.6 2.1-2.4 4.4-.9 6.9.8 1.3 1.7 2.4 2.6 3.6 3.9 4.7 7.8 9.5 11.8 14.1.9 1.1 1.8 2.3 3.7 2 3.9-.8 4.8-2.3 3-7.5zm-15.9 42.9c-.5-1.4-1.1-2.7-2.3-3.7-4.9-3.9-10.3-6.9-16.1-9.3-1.9-.8-3.4-.2-4.5 1.4-1.5 2.2-1.6 3.7-.3 5.3 2.1 2.4 4.4 4.7 7.4 6.2 1.5.7 2.9 1.9 4.3 2.8 1.7 1 3.4 2 5.2 3 2 1.1 3.9.6 5.5-.9 1.4-1.3 1.5-3.1.8-4.8z" class="st6"/><path fill="#fbc304" d="M4.6 23.6c-.2 4.1.8 8 1.8 11.9C9 46.1 13.5 56 17.9 66c2 4.5 4 9.1 6.3 13.5 3.4 6.6 7.3 12.9 11.4 19 1.6 2.4 3.8 4.4 5.9 6.4 1.4 1.3 3.2 1.4 4.8 2 .5.2 1.3-.2 1.8-.5 1.5-1 2.7-2.3 3.7-3.8 1.3-1.9 2.5-3.7 3.7-5.6.4-.7.8-1.4 1.3-2 2.9-3.2 5.6-6.7 8.8-9.6 2.5-2.3 4.6-4.9 7-7.3 2-2.1 3.4-4.6 3.9-7.6.2-1.1.4-2.2-.1-3.3-.3-.7-.4-1.5-.7-2.3-1.8-4.8-5.1-7.6-10.3-8.2-1.9-.2-3.7-.9-5.7-.9-3.8-.1-6.7-2.1-8.9-5-2.3-3.3-4.6-6.6-6.5-10.1-4.5-8.7-10.6-16.4-16.2-24.4-1.9-2.6-4.2-4.9-6.7-6.9-3-2.4-6.3-3.8-10.3-2.1-2.2 1-3.9 2.3-4.6 4.5-1.3 3.9-2.1 7.8-1.9 11.8z"/><path fill="#fbd40b" d="M36.5 52.7c0 3.5-.2 7.1 0 10.6.7 12.8 2.3 25.5 6.6 37.8.4 1.1.7 2.1 1.2 3.2 1.3 3 3.7 4.1 7 3.2 2.9-.8 5.6-2.3 8.6-3 9.8-2.3 19.6-4.7 29.4-7 4.2-1 8.3-2.3 12.4-3.9 5.6-2.2 9.9-6 13.5-10.6 2.6-3.3 2.2-8-.7-11.6-3.4-4.2-7.7-7.3-12.4-9.8-1.1-.6-2.3-1.2-3.5-1.7-7.4-3-11.8-8.6-13.7-16.2-1-4-1.9-8.1-2.8-12.2-2.9-12.1-9.7-21.2-20.4-27.4-2.4-1.4-4.8-2.5-7.7-2.6-4.6-.3-7.8 1.7-10 5.5-2.3 3.8-3.5 7.9-4.5 12.1-1 4.5-1.7 9.1-2.3 13.7-.8 6.7-.6 13.3-.7 19.9z"/><path d="M14.5 82.3c2.2 7.4 7.8 11.5 14.1 15.1.5.3 1 0 1.2-.4.1-.2.1-.7 0-.9-.9-1.1-2-2.1-2.9-3.2-3.2-3.8-6.3-7.7-7.2-12.9-.2-1.4 0-2.5.5-3.7 1.2-3 5.5-4.7 9-2.5.3.2.5.8.5 1.2 0 .9-.6.9-1.3.6-.6-.2-1.2-.5-1.8-.5-2.5-.1-3.9 1.3-4 3.8-.1 2.3.4 4.4 1.4 6.5 2.3 4.5 5.8 8.1 9.5 11.5 1 .9 2.2 1.5 3.5 1.5 2.1 0 3.6 1.1 5.2 2.2 10.3 6.7 23 9.2 23.1 14.8.1 2.4-2.1 5.1-4.4 5.8-3.8 1.1-6.4-3.7-17-11.4-4.5-3.3-8.5-6.1-14.1-9.2-3.2-1.8-6.3-3.8-9.3-6-4.8-3.5-7.8-8-9.2-13.7-.3-1.1-.5-2.2-.5-3.3 0-3.6 2.4-6.4 6-7 .4-.1.9.2 1.3.4.3.1.6.4.6.7 0 .2-.2.6-.4.8-.7.4-1.4.7-2.1 1.1-1.7 1-2.5 2.5-2.3 4.5 0 1.4.2 2.8.6 4.2zM31 97.5c-.7.6-.2.9.3 1.3.3.4.7.8 1.1.4.4-.5-.1-.8-.5-1-.4-.3-.9-.8-.9-.7z" class="st8"/><path fill="#ebb704" d="M97.9 71.3c-1.3-.3-2.5.5-3.5 1.1-4.3 2.5-8.5 5-12.7 7.6-5.1 3.2-10 6.9-15.3 9.9-2.2 1.3-4.1 3-6.4 4.2-1.1.6-1.4 1.9-.9 2.9.6 1 1.7 1.5 2.9 1.2 6.4-1.8 12.9-3.7 18.9-6.7 6.3-3.2 12.4-6.6 17.4-11.8 1.1-1.2 2.1-2.4 2.8-3.9.9-2.6-.4-4.6-3.2-4.5zm-39.1-30c-.1 2.1.5 3.3 1.7 3.6 1.3.4 2.7.3 3.5-.9 3.2-4.4 6.5-8.6 8.8-13.6.7-1.6.4-2.5-1-3.8-1.2-1-2.9-1.3-4-.4-1 .8-2 1.7-2.7 2.7-2.3 3.3-4 6.9-5.7 10.5-.4.8-.5 1.6-.6 1.9zM50 32.5c.1.3.1.9.4 1.5.4 1.2 2.2 1.7 3.2 1 1-.8 1.8-1.7 2.2-3.1 1.1-3.8 2.3-7.6 3.4-11.4.3-1.1.3-2.2.4-3.3.2-1.4-.6-2.4-1.6-3.3-.7-.6-1.4-.7-2.1-.1-1.2.9-2 2.1-2.4 3.5-1.2 4.3-2.2 8.6-3.3 12.9-.2.7-.1 1.4-.2 2.3zm17.5 48c0 1 .5 1.4 1 1.8.6.5 1.2.4 1.7-.1 2-1.9 4.1-3.7 5.7-5.8 2.2-3 4.9-5.5 7.5-8.2.7-.7 1.4-1.4 1.9-2.2.6-.8.5-1.8.2-2.8-.3-1.1-1.6-1.5-2.7-1.1-2.1.7-3.4 2.4-4.7 4-2.7 3.2-5.3 6.4-7.8 9.7-.9 1.1-1.7 2.3-2.5 3.5-.2.4-.2.9-.3 1.2zm5.2-40.2c-1.2-.1-2.2.4-2.9 1.3-2.4 3-4.3 6.3-5.8 9.8-.4.9.2 1.6.9 2 1.1.7 2.8.7 3.5-.2 2.3-2.8 4.6-5.7 6.8-8.6.7-.9 1.2-1.9.4-3.1-.7-1.1-1.7-1.3-2.9-1.2zM43.4 52.4c.3 8.8 1.2 17.9 2.5 27 .2 1.4.2 2.9.4 4.3.1.4.5.8.9 1 .6.3 1.3.1 1.7-.4.4-.5.7-1.1 1-1.7 2.9-7.5 4.2-15.1 3.1-23.2-.5-4-1.1-8-2.4-11.8-.5-1.4-1.1-2.7-1.8-3.9-.7-1.3-2-1.8-3.3-1.4-1.2.3-1.8 1.3-2.1 2.4-.3 2.4 0 4.9 0 7.7z"/></svg>