<?xml version="1.0" encoding="UTF-8"?>
<svg id="Camada_3" xmlns="http://www.w3.org/2000/svg" version="1.1" viewBox="0 0 50 50">
  <!-- Generator: Adobe Illustrator 29.6.1, SVG Export Plug-In . SVG Version: 2.1.1 Build 9)  -->
  <defs>
    <style>
      .st0 {
        fill: #f9f941;
      }

      .st1, .st2, .st3, .st4 {
        stroke: #444;
      }

      .st1, .st2, .st4 {
        fill: none;
      }

      .st1, .st3 {
        stroke-width: .5px;
      }

      .st1, .st3, .st4 {
        stroke-miterlimit: 10;
      }

      .st2 {
        stroke-linecap: round;
        stroke-linejoin: round;
        stroke-width: 2.5px;
      }

      .st3, .st5 {
        fill: #444;
      }

      .st6 {
        fill: #d1bd00;
      }
    </style>
  </defs>
  <polygon class="st6" points="28.77 21.23 36.61 23.66 29.91 28.4 30.01 36.61 23.44 31.7 15.66 34.34 18.3 26.56 13.39 19.99 21.6 20.09 26.34 13.39 28.77 21.23"/>
  <g>
    <path class="st0" d="M45.82,6.62H3.23c-1.45,0-1.69,2.51-1.69,3.96l.72,9.78v17.7l15.84.48-2.26,5.18,33.29-11.84-.69-22.41v-.23c0-1.45-1.17-2.62-2.62-2.62Z"/>
    <path class="st2" d="M48.63,32.88V9.39c0-1.86-1.5-3.36-3.36-3.36H4.83c-1.86,0-3.36,1.5-3.36,3.36v25.92c0,1.86,1.5,3.36,3.36,3.36l14.22.03h0l-3.5,4.21c-.12.55.29,1.07.86,1.07h16.46c.55,0,.96-.5.86-1.03l-3.43-4.25h0l4.34-.02"/>
    <line class="st1" x1="47.84" y1="32.88" x2="1.63" y2="32.88"/>
    <circle class="st5" cx="25.05" cy="36.91" r=".98"/>
    <line class="st1" x1="2.13" y1="10.28" x2="47.97" y2="10.28"/>
    <circle class="st3" cx="4.98" cy="8.8" r=".4"/>
    <circle class="st3" cx="6.78" cy="8.8" r=".4"/>
    <circle class="st3" cx="8.46" cy="8.8" r=".4"/>
  </g>
  <g>
    <path class="st4" d="M19,18.78l-2.24,10.66c-.03.15.08.29.23.29h1.73c.1,0,.18-.06.22-.15l4.29-11.77c.04-.09.01-.19-.06-.26l-4.07-4.4s-.1-.07-.17-.07h-1.89c-.17,0-.29.17-.22.33l2.15,5.22s.02.09.01.14Z"/>
    <path class="st4" d="M23.95,18.78l-2.24,10.66c-.03.15.08.29.23.29h1.73c.1,0,.18-.06.22-.15l4.36-12.08c.04-.09.01-.19-.06-.26l-4.14-4.09s-.1-.07-.17-.07h-1.89c-.17,0-.29.17-.22.33l2.15,5.22s.02.09.01.14Z"/>
    <path class="st4" d="M28.76,18.78l-2.24,10.66c-.03.15.08.29.23.29h1.73c.1,0,.18-.06.22-.15l4.52-13.49c.04-.09.01-.19-.06-.26l-4.3-2.68s-.1-.07-.17-.07h-1.89c-.17,0-.29.17-.22.33l2.15,5.22s.02.09.01.14Z"/>
  </g>
</svg>