<?xml version="1.0" encoding="utf-8"?>
<!-- Generator: Adobe Illustrator 24.0.0, SVG Export Plug-In . SVG Version: 6.00 Build 0)  -->
<svg version="1.1" id="Layer_1" xmlns="http://www.w3.org/2000/svg" xmlns:xlink="http://www.w3.org/1999/xlink" x="0px" y="0px"
	 viewBox="0 0 50 50" style="enable-background:new 0 0 50 50;" xml:space="preserve">
<style type="text/css">
	.st0{fill:#00C8E2;}
	.st1{fill:#00DFFC;}
	.st2{fill:none;stroke:#444444;stroke-width:2.5;stroke-linecap:round;stroke-linejoin:round;stroke-miterlimit:10;}
	.st3{fill:#444444;}
</style>
<polygon class="st0" points="45.9,27.8 46.4,31.9 3.7,47 3.6,38.4 3.8,33.5 46.4,18.4 45.8,22 "/>
<polygon class="st1" points="46.1,12.1 45.8,19.4 4.1,34.1 3.9,24.8 4.1,20.6 46.1,5.8 "/>
<polyline class="st2" points="24,48.2 3.7,48.2 3.7,1.8 46.3,1.8 46.3,32 "/>
<g>
	<g>
		<path class="st3" d="M28.3,9.7c-1.1-0.2-2.2-0.3-3.3-0.3c-4.4,0-8.5,1.7-11.6,4.8c-3.1,3.1-4.8,7.2-4.8,11.6c0,3.6,1.2,7.2,3.4,10
			c-0.3,0.4-0.4,0.9-0.4,1.5c0,0.8,0.3,1.5,0.8,2.1c0.6,0.5,1.3,0.8,2.1,0.8c0.8,0,1.5-0.3,2-0.8c0.5-0.6,0.8-1.3,0.8-2.1
			c0-0.8-0.3-1.5-0.8-2c-0.5-0.5-1.3-0.8-2-0.8c-0.4,0-0.8,0.1-1.2,0.3c-1.9-2.5-3-5.7-3-8.9c0-8.1,6.6-14.6,14.7-14.6
			c1,0,2,0.1,2.9,0.3c0.2,0,0.5,0,0.7-0.1s0.3-0.3,0.4-0.6C29,10.2,28.7,9.8,28.3,9.7z M14.5,36.1c0.3,0,0.6,0.1,0.8,0.3
			c0.2,0.2,0.3,0.5,0.3,0.8c0,0.3-0.1,0.6-0.3,0.8c-0.4,0.4-1.2,0.4-1.6,0c-0.2-0.2-0.3-0.5-0.3-0.8c0-0.3,0.1-0.6,0.3-0.8
			C13.9,36.2,14.2,36.1,14.5,36.1z"/>
	</g>
	<g>
		<path class="st3" d="M38,15.7c0.7-1.1,0.5-2.6-0.5-3.5c-0.6-0.5-1.3-0.9-2.1-0.9c-0.8,0-1.5,0.3-2,0.9c-0.5,0.5-0.8,1.3-0.8,2
			c0,0.8,0.3,1.5,0.8,2.1c0.5,0.5,1.3,0.8,2,0.8c0.4,0,0.8-0.1,1.2-0.3c1.9,2.5,3,5.7,3,8.8c0,8.1-6.6,14.7-14.7,14.7
			c-1,0-1.9-0.1-2.9-0.3c-0.2,0-0.5,0-0.7,0.1c-0.2,0.1-0.3,0.3-0.4,0.6c-0.1,0.5,0.2,0.9,0.7,1c1.1,0.2,2.1,0.3,3.2,0.3
			c4.4,0,8.5-1.7,11.6-4.8c3.1-3.1,4.8-7.2,4.8-11.6C41.4,22.1,40.2,18.6,38,15.7z M36.3,13.5c0.4,0.4,0.4,1.2,0,1.6
			c-0.4,0.4-1.2,0.4-1.6,0c-0.2-0.2-0.3-0.5-0.3-0.8c0-0.3,0.1-0.6,0.3-0.8C35.1,13,35.8,13,36.3,13.5z"/>
		<path class="st3" d="M35.9,22.9h-1c-0.2-0.7-0.5-1.4-0.9-2.1l0.7-0.7c0.2-0.2,0.3-0.4,0.3-0.6c0-0.2-0.1-0.5-0.3-0.6L31.9,16
			c-0.3-0.3-0.9-0.3-1.2,0l-0.7,0.7c-0.7-0.4-1.3-0.7-2.1-0.9v-1c0-0.5-0.4-0.9-0.9-0.9H23c-0.5,0-0.9,0.4-0.9,0.9v1
			c-0.7,0.2-1.4,0.5-2.1,0.9L19.3,16c-0.3-0.3-0.9-0.3-1.2,0l-2.8,2.8C15.1,19,15,19.2,15,19.5c0,0.2,0.1,0.4,0.3,0.6l0.7,0.7
			c-0.4,0.7-0.7,1.4-0.9,2.1h-1c-0.5,0-0.9,0.4-0.9,0.9v4c0,0.2,0.1,0.5,0.3,0.6c0.2,0.2,0.4,0.3,0.6,0.3h1c0.2,0.7,0.5,1.4,0.9,2.1
			l-0.7,0.7C15.1,31.6,15,31.8,15,32c0,0.2,0.1,0.5,0.3,0.6l2.8,2.8c0.3,0.3,0.9,0.3,1.2,0l0.7-0.7c0.7,0.4,1.3,0.6,2.1,0.9v1
			c0,0.5,0.4,0.9,0.9,0.9H27c0.5,0,0.9-0.4,0.9-0.9v-1c0.7-0.2,1.4-0.5,2.1-0.9l0.7,0.7c0.3,0.3,0.9,0.3,1.2,0l2.8-2.8
			c0.3-0.3,0.3-0.9,0-1.2L34,30.7c0.4-0.7,0.7-1.4,0.9-2.1h1c0.5,0,0.9-0.4,0.9-0.9v-4C36.7,23.3,36.3,22.9,35.9,22.9z M35,26.8
			h-0.8c-0.4,0-0.8,0.3-0.9,0.7c-0.2,1-0.6,1.9-1.2,2.8c-0.2,0.3-0.2,0.8,0.1,1.1l0.6,0.6l-1.5,1.5L30.7,33
			c-0.3-0.3-0.8-0.3-1.1-0.1c-0.9,0.5-1.8,0.9-2.8,1.2c-0.4,0.1-0.7,0.4-0.7,0.9v0.8h-2.2v-0.8c0-0.4-0.3-0.8-0.7-0.9
			c-1-0.2-1.9-0.6-2.8-1.2c-0.3-0.2-0.8-0.2-1.1,0.1l-0.6,0.6L17.2,32l0.6-0.6c0.3-0.3,0.3-0.8,0.1-1.1c-0.6-0.9-1-1.8-1.2-2.8
			c-0.1-0.4-0.4-0.7-0.9-0.7H15v-2.2h0.8c0.4,0,0.8-0.3,0.9-0.7c0.2-1,0.6-2,1.2-2.8c0.2-0.3,0.2-0.8-0.1-1.1l-0.6-0.6l1.5-1.6
			l0.6,0.6c0.3,0.3,0.8,0.3,1.1,0.1c0.9-0.6,1.8-1,2.8-1.2c0.4-0.1,0.7-0.5,0.7-0.9v-0.8h2.2v0.8c0,0.4,0.3,0.8,0.7,0.9
			c1,0.2,1.9,0.6,2.8,1.2c0.3,0.2,0.8,0.2,1.1-0.1l0.6-0.6l1.5,1.6L32.2,20c-0.3,0.3-0.3,0.8-0.1,1.1c0.6,0.9,1,1.8,1.2,2.8
			c0.1,0.4,0.4,0.7,0.9,0.7H35V26.8z"/>
	</g>
	<g>
		<path class="st3" d="M25,20.3c-3,0-5.5,2.4-5.5,5.5c0,3,2.5,5.5,5.5,5.5s5.5-2.5,5.5-5.5C30.5,22.7,28,20.3,25,20.3z M25,29.5
			c-2,0-3.7-1.7-3.7-3.7c0-2,1.7-3.7,3.7-3.7s3.7,1.7,3.7,3.7C28.7,27.8,27,29.5,25,29.5z"/>
	</g>
	<g>
		<path class="st3" d="M31.7,11.3c0,0.2-0.1,0.5-0.3,0.6c-0.2,0.2-0.4,0.3-0.6,0.3c-0.2,0-0.5-0.1-0.6-0.3c-0.2-0.2-0.3-0.4-0.3-0.6
			c0-0.2,0.1-0.5,0.3-0.6c0.3-0.3,0.9-0.3,1.2,0C31.6,10.9,31.7,11.1,31.7,11.3z"/>
	</g>
	<g>
		<path class="st3" d="M20.1,40.2c0,0.2-0.1,0.5-0.3,0.6C19.7,41,19.5,41,19.2,41c-0.2,0-0.5-0.1-0.6-0.3c-0.2-0.2-0.3-0.4-0.3-0.6
			c0-0.2,0.1-0.5,0.3-0.6c0.3-0.3,0.9-0.3,1.2,0C20,39.7,20.1,39.9,20.1,40.2z"/>
	</g>
</g>
</svg>
