<?xml version="1.0" encoding="utf-8"?>
<!-- Generator: Adobe Illustrator 24.0.0, SVG Export Plug-In . SVG Version: 6.00 Build 0)  -->
<svg version="1.1" id="Layer_1" xmlns="http://www.w3.org/2000/svg" xmlns:xlink="http://www.w3.org/1999/xlink" x="0px" y="0px"
	 viewBox="0 0 50 50" style="enable-background:new 0 0 50 50;" xml:space="preserve">
<style type="text/css">
	.st0{fill:#A475EF;}
	.st1{fill:#BF94F7;}
	.st2{fill:none;stroke:#464646;stroke-width:2.5;stroke-miterlimit:10;}
	.st3{fill:#464646;}
</style>
<g>
	<g>
		<path class="st0" d="M48.5,26.1c0-0.2,0.1-0.4,0.1-0.6c0-2-1.4-3.7-3.4-4.1c-0.1-0.2-0.2-0.4-0.3-0.6c0,0,0-0.1,0-0.1
			c0.9-0.6,1.5-1.7,1.5-2.8c0-1.9-1.5-3.4-3.4-3.4c-0.5,0-0.9,0.1-1.4,0.3c-0.3-0.1-0.7-0.2-0.9-0.4c-0.2-0.1-0.3-0.3-0.5-0.5
			c0.1-0.4,0.2-0.8,0.2-1.2c0-0.6-0.1-1.1-0.4-1.6l-38.6,14C1.1,25.7,1,26.3,1,26.9c0,2.3,1.9,4.2,4.2,4.2c1.4,0,2.8-0.7,3.6-2
			c0.3-0.1,0.6-0.1,0.9,0c0.3,0,0.6,0.2,0.9,0.3c0.5,1.3,1.7,2.2,3.1,2.2c0.7,0,1.4-0.3,2-0.7l1.7,0.5c0.2,1.1,1.2,2,2.4,2
			c0.2,0,0.5,0,0.7-0.1c0.1,0,0.2,0.1,0.3,0.1c0.6,0,1.4,0.5,1.7,0.7c0.1,0.4,0.3,0.8,0.6,1.2"/>
	</g>
	<g>
		<path class="st1" d="M36.6,9.9c-0.6,0-1.2,0.2-1.8,0.5c-0.1,0-0.2,0-0.3,0c-0.2,0-1.3,0-2.2-0.1c-0.2-1.2-1.1-2.2-2.2-2.5
			c0,0,0,0,0,0c-0.2-0.2-0.5-0.5-4.9-0.2c-0.7-0.9-1.7-1.4-2.9-1.4c-1.9,0-3.5,1.5-3.7,3.4l-0.4-0.4C18.2,8,17.2,7,15.8,7
			c-1.4,0-2.6,1.1-2.6,2.6c0,0.5,0.2,1,0.5,1.5c-0.3,0-0.6,0-0.9,0c-0.1,0-0.2,0-0.3,0c-0.5-0.3-1-0.4-1.6-0.4c-1.7,0-3,1.3-3,3
			c0,0.7,0.2,1.3,0.6,1.8l-0.1,0.9c-0.3-0.1-0.6-0.2-1-0.2c-2,0-3.7,1.6-3.7,3.7c0,1.1,0.5,2.2,1.4,2.9c0,0.1,0,0.2,0,0.3
			c-0.1,0.2-0.2,0.5-0.4,0.7c-1.5,0.2-2.7,1.2-3.3,2.5l38.6-14.1C39.5,10.8,38.1,9.9,36.6,9.9z"/>
	</g>
	<g>
		<path class="st2" d="M38.8,32.4"/>
	</g>
	<g>
		<path class="st3" d="M30.4,45.9c-2.9,0-5.3-2.4-5.3-5.3c0-1,0.3-2.1,0.9-2.9c0,0,0,0,0,0c0,0-0.1-0.1-0.2-0.1
			c-1.8-0.2-3.4-1.4-4.1-3.1C21.4,34.1,21.2,34,21,34c-0.1,0-0.2,0-0.3,0c-1.8,0.3-3.3-0.6-3.9-2.1l-0.4-0.1
			c-0.6,0.3-1.4,0.5-2.1,0.5c-1.7,0-3.2-0.9-4-2.4c0,0-0.1,0-0.1,0c0,0,0,0,0,0c-1,1.2-2.5,2-4.2,2c-3,0-5.4-2.4-5.4-5.4
			c0-2.3,1.4-4.3,3.5-5c-0.6-0.8-0.9-1.8-0.9-2.8c0-2.5,1.9-4.5,4.3-4.8c-0.1-0.4-0.2-0.8-0.2-1.2c0-2.3,1.9-4.2,4.2-4.2
			c0.3,0,0.7,0,1,0.1c0.1-2,1.7-3.6,3.7-3.6c1,0,2,0.4,2.6,1.1c0.9-1.1,2.3-1.8,3.8-1.8c1.2,0,2.4,0.5,3.3,1.3
			c3.3-0.2,4.3,0,4.8,0.3c1.2,0.4,2.1,1.2,2.5,2.3c0.4,0,0.7,0,0.9,0c0.1,0,0.1,0,0.2,0c0.7-0.3,1.4-0.5,2.1-0.5c2.8,0,5,2.2,5,5
			c0,0.2,0,0.4,0,0.7c0.4-0.1,0.9-0.2,1.3-0.2c2.5,0,4.6,2,4.6,4.6c0,0.9-0.3,1.8-0.8,2.6c1.8,0.9,3,2.7,3,4.7
			c0,2.9-2.4,5.3-5.3,5.3c-0.7,0-1.2-0.6-1.2-1.2s0.6-1.2,1.2-1.2c1.5,0,2.8-1.2,2.8-2.8c0-1.3-1-2.5-2.3-2.7l-0.5-0.1l-0.3-0.4
			c-0.3-0.3-0.5-0.7-0.5-1.1l0-0.2l-0.1-0.7l0.6-0.4c0.6-0.4,0.9-1,0.9-1.7c0-1.1-0.9-2.1-2.1-2.1c-0.3,0-0.6,0.1-0.8,0.2L41.5,16
			l-0.4-0.1c-0.5-0.1-1-0.3-1.4-0.6c-0.3-0.2-0.5-0.4-0.7-0.7L38.6,14l0.2-0.6c0.1-0.2,0.1-0.5,0.1-0.8c0-1.4-1.1-2.5-2.5-2.5
			c-0.4,0-0.8,0.1-1.1,0.3l-0.3,0.2l-0.2,0l-0.1,0c-0.4,0.1-1.6,0-2.5-0.1l-1-0.1l-0.1-1c-0.1-0.7-0.6-1.2-1.2-1.3L29.5,8l-0.1-0.1
			c-0.3,0-1.3-0.1-3.9,0.1l-0.7,0l-0.4-0.5c-0.5-0.6-1.1-0.9-1.8-0.9c-1.2,0-2.2,1-2.3,2.2l-0.2,2.7l-2.6-2.5l0-0.5
			c-0.1-0.6-0.6-1.1-1.2-1.1c-0.7,0-1.2,0.6-1.2,1.2c0,0.2,0.1,0.5,0.2,0.7l1.4,2l-2.4,0c-0.3,0-0.5,0-0.8,0l-0.4,0.2l-0.6-0.3
			c-0.3-0.2-0.6-0.3-0.9-0.3c-0.9,0-1.7,0.7-1.7,1.7c0,0.4,0.2,0.8,0.3,1l0.3,0.4L10,16.7l-1.4-0.4c-0.2-0.1-0.4-0.1-0.6-0.1
			c-1.3,0-2.3,1-2.3,2.3c0,0.7,0.3,1.4,0.9,1.8l0.5,0.4v0.6c0,0.2,0,0.4-0.1,0.6c-0.1,0.5-0.4,0.9-0.7,1.2L6,23.5l-0.4,0.1
			c-1.4,0.2-2.5,1.4-2.5,2.8c0,1.6,1.3,2.9,2.9,2.9c1,0,1.9-0.5,2.4-1.3l0.3-0.4l0.5-0.1c0.5-0.1,0.9-0.1,1.4-0.1
			c0.5,0.1,0.9,0.3,1.3,0.5l0.3,0.2l0.1,0.4c0.3,0.8,1,1.3,1.9,1.3c0.5,0,0.9-0.2,1.2-0.4l0.5-0.4l3,0.9l0.1,0.7
			c0.1,0.5,0.5,0.9,1.1,0.9c0.1,0,0.2,0,0.3-0.1l0.5-0.1l0.3,0.2c1,0.1,2,0.8,2.2,0.9l0.4,0.3l0.1,0.4c0.3,1,1.2,1.8,2.3,1.8l0.2,0
			l0.2,0.1c0.7,0.3,1.3,0.8,1.6,1.4c0.3,0.5,0.4,1.2,0.3,1.8l-0.1,0.3l-0.2,0.3c-0.4,0.5-0.6,1.1-0.6,1.7c0,1.6,1.3,2.8,2.8,2.8
			s2.8-1.3,2.8-2.8c0-0.6-0.2-1.2-0.6-1.7l-0.2-0.3l0-0.4c0-0.5,0.1-0.9,0.3-1.3c0.2-0.3,0.4-0.6,0.8-0.8l0.4-0.2l0.4,0
			c1.1,0,1.9-0.9,1.9-2c0-0.7,0.6-1.2,1.2-1.2s1.2,0.6,1.2,1.2c0,2.1-1.5,3.9-3.5,4.4c0.4,0.7,0.6,1.6,0.6,2.4
			C35.7,43.5,33.3,45.9,30.4,45.9z"/>
	</g>
	<g>
		<g>
			<path class="st3" d="M27.8,13.5c0,0.9,0.7,1.6,1.6,1.6c0.9,0,1.6-0.7,1.6-1.6c0-0.9-0.7-1.6-1.6-1.6C28.5,12,27.8,12.7,27.8,13.5
				z"/>
		</g>
		<g>
			<path class="st3" d="M19.1,12.8c0,0.7,0.6,1.3,1.3,1.3c0.7,0,1.3-0.6,1.3-1.3c0-0.7-0.6-1.3-1.3-1.3
				C19.7,11.5,19.1,12.1,19.1,12.8z"/>
		</g>
		<g>
			<circle class="st3" cx="17.3" cy="15.4" r="1.6"/>
		</g>
		<g>
			<path class="st3" d="M19.7,17c0,1,0.8,1.8,1.8,1.8c1,0,1.8-0.8,1.8-1.8c0-1-0.8-1.8-1.8-1.8C20.5,15.2,19.7,16,19.7,17z"/>
		</g>
		<g>
			<path class="st3" d="M17.9,21c0,0.9,0.7,1.5,1.5,1.5c0.9,0,1.5-0.7,1.5-1.5c0-0.9-0.7-1.5-1.5-1.5C18.6,19.4,17.9,20.1,17.9,21z"
				/>
		</g>
		<g>
			<path class="st3" d="M21.8,27.4c0,0.7,0.5,1.2,1.2,1.2c0.7,0,1.2-0.5,1.2-1.2c0-0.7-0.5-1.2-1.2-1.2
				C22.4,26.2,21.8,26.7,21.8,27.4z"/>
		</g>
		<g>
			<path class="st3" d="M29.1,19.9c0,1.2,0.9,2.1,2.1,2.1c1.2,0,2.1-0.9,2.1-2.1c0-1.2-0.9-2.1-2.1-2.1
				C30.1,17.8,29.1,18.7,29.1,19.9z"/>
		</g>
		<g>
			<path class="st3" d="M28.9,24.7c0,1,0.8,1.7,1.7,1.7c1,0,1.7-0.8,1.7-1.7c0-1-0.8-1.7-1.7-1.7C29.7,22.9,28.9,23.7,28.9,24.7z"/>
		</g>
		<g>
			<path class="st3" d="M34.3,27.1c0,0.7,0.6,1.2,1.2,1.2c0.7,0,1.2-0.6,1.2-1.2c0-0.7-0.6-1.2-1.2-1.2
				C34.8,25.8,34.3,26.4,34.3,27.1z"/>
		</g>
		<g>
			<path class="st3" d="M33.4,22.9c0,0.7,0.6,1.2,1.2,1.2c0.7,0,1.2-0.6,1.2-1.2c0-0.7-0.6-1.2-1.2-1.2
				C33.9,21.7,33.4,22.3,33.4,22.9z"/>
		</g>
		<g>
			<g>
				<path class="st3" d="M33.9,17.7c-1.2,0-2.1-1-2.1-2.1c0-1.2,1-2.1,2.1-2.1c1.2,0,2.1,1,2.1,2.1c0,0.3-0.1,0.6-0.2,0.8
					c0.1,0.2,0.3,0.4,0.5,0.5c0.2,0.2,0.5,0.3,0.9,0.3c0.3-0.1,0.5-0.2,0.8-0.2c1,0,1.9,0.8,1.9,1.9c0,0.7-0.4,1.3-0.9,1.6
					c0,0.1,0,0.2,0,0.3c0,0.2,0.2,0.4,0.3,0.6c1.1,0.1,2,1.1,2,2.3c0,1.3-1,2.3-2.3,2.3c-1.3,0-2.3-1-2.3-2.3c0-0.8,0.4-1.6,1.1-2
					C38,21.5,38,21.3,38,21c0-0.1-0.1-0.2-0.1-0.3c-0.9-0.1-1.6-0.9-1.6-1.8c0-0.2,0-0.3,0.1-0.5c-0.1-0.3-0.3-0.5-0.6-0.7
					c-0.2-0.2-0.5-0.3-0.8-0.3C34.6,17.6,34.3,17.7,33.9,17.7z"/>
			</g>
			<g>
				<path class="st3" d="M13.4,22.3c0.2-0.2,0.4-0.4,0.5-0.7c0-0.2,0-0.3,0-0.5c-0.5-0.4-0.9-1-0.9-1.7c0-1.1,0.9-2,2-2
					c1.1,0,2,0.9,2,2c0,1-0.8,1.9-1.8,2c-0.1,0.1-0.2,0.3-0.2,0.5c-0.1,0.3,0,0.6,0.1,0.9c0.5,0.4,0.8,0.9,0.9,1.5
					c0.2,0.2,0.5,0.3,0.8,0.3c0.3,0,0.6,0,0.9-0.1c0.3-0.5,0.9-0.8,1.5-0.8c0.4,0,0.7,0.1,1,0.3c0.3,0,0.6-0.1,0.8-0.2
					c0.4-0.2,0.7-0.5,0.8-1c0-0.1,0-0.3,0-0.4c0-1.8,1.4-3.2,3.2-3.2c0.1,0,0.3,0,0.4,0c0.2-0.2,0.3-0.4,0.4-0.7
					c0.1-0.2,0.1-0.3,0.1-0.5c-0.3-0.3-0.4-0.6-0.4-1c0-0.1,0-0.2,0-0.3c0,0,0,0,0,0l0,0c0-0.2,0.1-0.4,0.2-0.5
					c0-0.2-0.1-0.3-0.2-0.5c-0.2-0.3-0.4-0.5-0.7-0.6c-0.1,0-0.1,0-0.2,0c-1.1,0-2-0.9-2-2c0-1.1,0.9-2,2-2c1.1,0,2,0.9,2,2
					c0,0.5-0.2,0.9-0.5,1.3c0,0.3,0.1,0.6,0.2,0.8c0.1,0.1,0.2,0.2,0.3,0.4c0.1,0,0.2,0,0.2,0c0.8,0,1.5,0.7,1.5,1.5
					c0,0.8-0.6,1.4-1.4,1.5c-0.1,0.1-0.2,0.3-0.2,0.5c-0.1,0.2-0.1,0.5-0.1,0.8c0.9,0.6,1.5,1.6,1.5,2.7c0,1.8-1.4,3.2-3.2,3.2
					c-0.9,0-1.7-0.4-2.3-0.9c-0.4-0.1-0.8,0-1.2,0.2c-0.2,0.1-0.5,0.3-0.6,0.6c0,0,0,0,0,0.1c0,1-0.8,1.8-1.8,1.8
					c-0.8,0-1.5-0.5-1.7-1.3c-0.2-0.2-0.5-0.3-0.8-0.3c-0.3,0-0.6,0-0.9,0.1c-0.4,0.7-1.2,1.2-2.1,1.2c-1.3,0-2.4-1.1-2.4-2.4
					C11.2,23.4,12.2,22.4,13.4,22.3z"/>
			</g>
			<g>
				<path class="st3" d="M27.2,26.6c1.2,0,2.2,1,2.2,2.2c0,0.5-0.2,1-0.5,1.4c-0.1,0.4,0,0.7,0.1,1c0.2,0.3,0.4,0.5,0.8,0.7
					c0.1,0,0.1,0,0.2,0c0.2,0,0.3,0,0.5,0.1c0.2-0.1,0.4-0.3,0.5-0.5c0.1-0.2,0.1-0.4,0.1-0.6c-0.2-0.3-0.4-0.7-0.4-1.1
					c0-1,0.8-1.8,1.8-1.8c1,0,1.8,0.8,1.8,1.8c0,1-0.8,1.8-1.8,1.8c0,0-0.1,0-0.1,0c-0.2,0.1-0.4,0.3-0.5,0.5
					c-0.1,0.2-0.2,0.5-0.1,0.7c0.3,0.4,0.6,0.9,0.6,1.5c0,1.3-1.1,2.4-2.4,2.4c-1.3,0-2.4-1.1-2.4-2.4c0-0.6,0.2-1.1,0.6-1.5
					c0.1-0.4,0-0.7-0.1-1c-0.2-0.3-0.5-0.6-0.9-0.7c-1.2,0-2.1-1-2.1-2.2C25,27.5,26,26.6,27.2,26.6z"/>
			</g>
		</g>
	</g>
</g>
</svg>
