<?xml version="1.0" encoding="utf-8"?>
<!-- Generator: Adobe Illustrator 24.3.0, SVG Export Plug-In . SVG Version: 6.00 Build 0)  -->
<svg version="1.1" id="Layer_1" xmlns="http://www.w3.org/2000/svg" xmlns:xlink="http://www.w3.org/1999/xlink" x="0px" y="0px"
	 viewBox="0 0 50 50" style="enable-background:new 0 0 50 50;" xml:space="preserve">
<style type="text/css">
	.st0{fill:#DC5E82;}
	.st1{fill:#F56991;}
	.st2{fill:none;stroke:#444444;stroke-width:2.5;stroke-linecap:round;stroke-linejoin:round;stroke-miterlimit:10;}
	.st3{fill:none;stroke:#494949;stroke-width:0.5;stroke-linecap:round;stroke-linejoin:round;stroke-miterlimit:10;}
	.st4{fill:none;stroke:#494949;stroke-linecap:round;stroke-linejoin:round;stroke-miterlimit:10;}
</style>
<g>
	<g>
		<polygon class="st0" points="46.7,26.2 47.1,30.3 2.8,46.4 3,37.8 3.3,32.8 47.4,16.8 46.7,20.3 		"/>
		<polygon class="st1" points="46.7,10.4 46.2,17.7 3,33.5 3,24.1 3.3,19.9 46.8,4 		"/>
		<polyline class="st2" points="32.6,47.2 2.6,47.2 2.6,2.8 47.4,2.8 47.4,37.2 		"/>
	</g>
	<g>
		<g>
			<line class="st3" x1="23.8" y1="37.4" x2="37.5" y2="37.4"/>
			<line class="st3" x1="23.8" y1="23" x2="37.5" y2="23"/>
			<path class="st4" d="M25.5,20.3h10.3c0.9,0,1.7,0.8,1.7,1.7v17.1c0,0.9-0.8,1.7-1.7,1.7H25.5c-0.9,0-1.7-0.8-1.7-1.7V22
				C23.8,21,24.6,20.3,25.5,20.3z"/>
		</g>
		<path class="st4" d="M20.3,24.3v-1.7c0-0.4-0.3-0.7-0.7-0.7h-2.5H16h-2.5c-0.4,0-0.7,0.3-0.7,0.7v6c0,0.4,0.3,0.7,0.7,0.7H16h1.2
			h2.5c0.4,0,0.7-0.3,0.7-0.7v-1.7l1.7-1.3L20.3,24.3z"/>
		<g>
			<path class="st4" d="M24.8,10.3v5.9c0,0.6-0.5,1.1-1.1,1.1H22v3.1l-3.9-3.1h-4.5c-0.6,0-1.1-0.5-1.1-1.1v-5.9
				c0-0.6,0.5-1.1,1.1-1.1h10.1C24.3,9.2,24.8,9.7,24.8,10.3z"/>
		</g>
		<g>
			<path class="st4" d="M34.7,11.6c0.2,0,0.5,0,0.7,0c0.5,0,0.9,0.4,0.9,0.9v3.7c0,0.5-0.4,0.9-0.9,0.9h-0.9v1.7L31.9,17
				c-0.3,0-0.6,0-0.9,0"/>
			<path class="st4" d="M33.6,9.8h-6.1c-0.5,0-0.9,0.4-0.9,0.9v3.7c0,0.5,0.4,0.9,0.9,0.9h0.9v2.2l3.1-2.2h2.2
				c0.5,0,0.9-0.4,0.9-0.9v-3.7C34.5,10.2,34.1,9.8,33.6,9.8z"/>
		</g>
		<line class="st3" x1="28.2" y1="11.6" x2="32.8" y2="11.6"/>
		<line class="st3" x1="28.2" y1="13.2" x2="30.9" y2="13.2"/>
		<path class="st3" d="M20.8,11.3c-0.6-0.6-1.4-0.6-2,0c-0.1,0.1-0.1,0.1-0.2,0.2c-0.4-0.7-1.3-0.8-2-0.4s-0.8,1.3-0.4,2
			c0.1,0.1,0.1,0.2,0.2,0.2l2.2,2.2l2.2-2.2C21.4,12.8,21.4,11.9,20.8,11.3z"/>
		<g>
			<path class="st3" d="M17.6,24.5c0,0.5-0.4,1.3-0.9,1.3s-0.9-0.8-0.9-1.3s0.4-0.9,0.9-0.9S17.6,24,17.6,24.5z"/>
			<path class="st3" d="M15.2,26c-0.3,0.3-0.5,0.7-0.6,1.1c1.2,0.8,2.8,0.8,4,0c-0.1-0.4-0.3-0.8-0.6-1.1"/>
		</g>
	</g>
</g>
</svg>
