<?xml version="1.0" encoding="utf-8"?>
<!-- Generator: Adobe Illustrator 22.0.1, SVG Export Plug-In . SVG Version: 6.00 Build 0)  -->
<svg version="1.1" id="Layer_1" xmlns="http://www.w3.org/2000/svg" xmlns:xlink="http://www.w3.org/1999/xlink" x="0px" y="0px"
	 viewBox="0 0 50 50" style="enable-background:new 0 0 50 50;" xml:space="preserve">
<style type="text/css">
	.st0{fill:#BEE367;}
	.st1{fill:#D4FF73;}
	.st2{fill:#464646;}
</style>
<g>
	<g>
		<path class="st0" d="M33.8,18.9L33.8,18.9c0.5,0.1,1,0.2,1.5,0.2c4.7,0,8.6-3.5,9.1-8.1L7.8,24.3c0.7,5.2,1.5,10.6,2,14.6
			l22.4-8.1C32.7,26.8,33.3,22.5,33.8,18.9z"/>
	</g>
	<g>
		<path class="st1" d="M44.2,10.2c0-5-4.1-9.1-9.1-9.1c-4.4,0-8.1,3.1-8.9,7.3c0,0.1,0,0.1,0,0.2h-5.8H6.7c-0.6,0-0.9,0.3-0.9,0.9
			c0,0.3,1,7.4,2,15.1l36.2-13.2C44.1,10.9,44.2,10.6,44.2,10.2z"/>
	</g>
	<g>
		<path class="st2" d="M36.8,11.3l4.3,4.3c1-1.2,1.7-2.7,1.8-4.3H36.8z"/>
	</g>
	<g>
		<path class="st2" d="M36.8,10.1h6.1c-0.1-1.6-0.8-3.1-1.8-4.3L36.8,10.1z"/>
	</g>
	<g>
		<path class="st2" d="M14.9,30.2c-0.3,0-0.5-0.1-0.7-0.2c-0.4-0.2-0.7-0.5-0.8-0.9c-0.3-0.9-0.1-1.8,0.6-2.7l0.2-0.3l0.3,0.1
			c1.2,0.3,1.9,0.9,2.2,1.8l0,0c0.1,0.4,0.1,0.8-0.1,1.2c-0.2,0.4-0.6,0.8-1.1,0.9C15.3,30.1,15.1,30.2,14.9,30.2z M14.5,27.2
			c-0.3,0.5-0.4,1.1-0.2,1.5c0.1,0.2,0.2,0.3,0.3,0.3c0.2,0.1,0.4,0.1,0.6,0c0.2-0.1,0.4-0.2,0.5-0.4c0.1-0.1,0.1-0.3,0-0.4h0
			C15.6,27.8,15.2,27.4,14.5,27.2z"/>
	</g>
	<g>
		<path class="st2" d="M23.9,38.6c-0.3,0-0.6-0.1-0.9-0.2c-1-0.5-1.7-1.5-1.9-2.9l0-0.3l0.3-0.2c1.3-0.8,2.5-0.9,3.5-0.4l0,0
			c0.5,0.2,0.9,0.7,1,1.2c0.1,0.5,0.1,1.1-0.2,1.6C25.3,38.2,24.6,38.6,23.9,38.6z M22.2,35.7c0.2,0.9,0.6,1.5,1.3,1.8
			c0.6,0.3,1.1-0.1,1.3-0.5c0.1-0.3,0.2-0.6,0.1-0.9c0-0.2-0.2-0.4-0.5-0.6C23.8,35.2,23.1,35.2,22.2,35.7z"/>
	</g>
	<g>
		<path class="st2" d="M25.8,26.2c-1,0-1.9-0.3-2.6-0.9l0,0c-0.5-0.4-0.8-1.1-0.8-1.7c0-0.6,0.3-1.3,0.7-1.8c0.4-0.5,1-0.8,1.7-0.9
			c0.7-0.1,1.3,0.1,1.8,0.6c1.1,0.9,1.5,2.3,1.3,4.1l0,0.3l-0.3,0.1C26.9,26.1,26.3,26.2,25.8,26.2z M25.1,21.8c-0.1,0-0.1,0-0.2,0
			c-0.4,0-0.7,0.2-1,0.6c-0.3,0.3-0.5,0.8-0.5,1.1c0,0.4,0.1,0.7,0.4,1l0,0c0.8,0.7,1.8,0.8,3.1,0.5c0.1-1.3-0.2-2.2-1-2.9
			C25.7,21.9,25.4,21.8,25.1,21.8z"/>
	</g>
	<g>
		<path class="st2" d="M19.6,43c-0.7,0-1.3-0.1-2-0.4c-1.2-0.5-2.1-1.4-2.7-2.6c-0.5-1.2-0.5-2.5,0-3.7c0.1-0.3,0.4-0.4,0.7-0.3
			c0.3,0.1,0.4,0.4,0.3,0.7c-0.4,0.9-0.4,1.9,0,2.9c0.4,0.9,1.2,1.7,2.1,2.1c1,0.4,2,0.4,3,0.1c1-0.4,1.7-1.1,2.1-2
			c0.1-0.3,0.4-0.4,0.7-0.3c0.3,0.1,0.4,0.4,0.3,0.7c-0.5,1.2-1.4,2.1-2.6,2.5C20.7,42.9,20.2,43,19.6,43z"/>
	</g>
	<g>
		<path class="st2" d="M22.8,39.7l-2.7-1.2l1.1,2.8C21.9,41,22.5,40.4,22.8,39.7z"/>
	</g>
	<g>
		<path class="st2" d="M19,38.5l-2.8,1.1c0.3,0.7,0.9,1.3,1.6,1.6L19,38.5z"/>
	</g>
	<g>
		<path class="st2" d="M19.6,38.8l-1.2,2.7c0.8,0.3,1.6,0.3,2.3,0L19.6,38.8z"/>
	</g>
	<g>
		<path class="st2" d="M18.8,38l-2.7-1.2c-0.3,0.8-0.3,1.6,0,2.3L18.8,38z"/>
	</g>
	<g>
		<path class="st2" d="M19.5,34.3c-1.5,0-3-0.7-3.9-2c-0.2-0.2-0.1-0.5,0.1-0.7c0.2-0.2,0.5-0.1,0.7,0.1c1.2,1.7,3.7,2.1,5.5,0.8
			c0.9-0.6,1.5-1.5,1.7-2.6c0.2-1,0-2.1-0.6-2.9c-0.2-0.2-0.1-0.5,0.1-0.7c0.2-0.2,0.5-0.1,0.7,0.1c0.8,1.1,1,2.4,0.8,3.7
			c-0.2,1.3-1,2.4-2.1,3.2C21.5,34,20.5,34.3,19.5,34.3z"/>
	</g>
	<g>
		<path class="st2" d="M22.7,27.2L20.3,29l3,0.5C23.3,28.7,23.2,27.9,22.7,27.2z"/>
	</g>
	<g>
		<path class="st2" d="M19.7,29.9l-0.5,3c0.8,0.1,1.6-0.1,2.3-0.5L19.7,29.9z"/>
	</g>
	<g>
		<path class="st2" d="M20.2,29.6l1.8,2.5c0.6-0.5,1-1.2,1.2-2L20.2,29.6z"/>
	</g>
	<g>
		<path class="st2" d="M19.1,29.8l-2.5,1.8c0.5,0.6,1.2,1,2,1.2L19.1,29.8z"/>
	</g>
	<path class="st2" d="M35.3,0.8c-4.3,0-8.2,2.9-9.4,7H13.7L12,1.5C11.8,1.1,11.4,0.9,11,1c-0.4,0.1-0.6,0.5-0.5,0.9l1.6,5.8H7
		C6.3,7.8,5.7,8,5.3,8.5c-0.4,0.4-0.5,1-0.5,1.6c0,0.4,1.2,8.8,2.4,17.8c1.1,8.2,2.2,16.4,2.3,17.2c0.4,3.1,1.7,4.1,5.7,4.1H26
		c4,0,5.3-1,5.7-4.1c0.1-0.8,1.2-9.1,2.4-17.4c0.3-2.5,0.7-4.9,1-7.1c0.1,0,0.2,0,0.3,0c5.4,0,9.9-4.4,9.9-9.9
		C45.2,5.2,40.7,0.8,35.3,0.8z M31.5,27.3c-1.1,8.3-2.3,16.7-2.4,17.5c-0.2,1.6-0.2,1.9-3.2,1.9H15.3c-3,0-3-0.3-3.2-1.9
		c-0.1-0.8-1.2-9-2.3-17.2c-1-7.2-2.1-15.2-2.3-17.3h5.4l2.1,7.4h-4.6l0.1,0.8c1,10.5,2.6,21.7,2.8,22.7c0.5,2.6,1.3,4,4.1,4h7
		c2.5,0,3.6-1.1,4.1-4c0.2-0.9,1.8-12.1,2.8-22.7l0.1-0.8H16.5l-2.1-7.4h19.5C33.6,12.3,32.5,19.9,31.5,27.3z M18.8,26l-1.9-6.8
		h12.8c-1,10.3-2.6,20.9-2.7,21.8c-0.4,2.3-1.1,2.7-2.6,2.7h-7c-1.8,0-2.2-0.5-2.6-2.7c-0.2-1-1.7-11.6-2.7-21.8h3.4l2,7.2
		c0.1,0.3,0.4,0.5,0.7,0.5c0.1,0,0.1,0,0.2,0C18.7,26.8,18.9,26.4,18.8,26z M35.3,19c0,0-0.1,0-0.1,0c0.3-2.4,0.6-4.4,0.8-6v5.2
		c1.6-0.1,3.1-0.8,4.3-1.8l-4.2-4.2c0.2-1.3,0.3-2.1,0.3-2.2c0-0.4,0-0.7-0.1-1.1l4.1-4.1c-1.2-1-2.7-1.7-4.3-1.8v5.4
		c0,0,0-0.1-0.1-0.1c-0.3-0.3-0.7-0.5-1.1-0.6V3.2c-1.6,0.1-3.1,0.8-4.3,1.8l2.8,2.8h-1.7l-2-2c-0.5,0.6-0.9,1.3-1.2,2h-1
		c1.2-3.2,4.3-5.5,7.8-5.5c4.6,0,8.4,3.8,8.4,8.4C43.7,15.3,39.9,19,35.3,19z"/>
</g>
</svg>
