<svg xmlns="http://www.w3.org/2000/svg" version="1" viewBox="0 0 50 50"><path fill="#f799ff" d="M13.138 27.88s-.097 1.86 0 3.978l27.167-9.888a14.98 14.98 0 0 0 1.194-5.874c0-8.323-6.748-15.07-15.072-15.07s-15.07 6.748-15.07 15.07c0 1.508.718 2.98.718 2.98s-3.528 7.57-3.357 8.187c.17.617 4.418.617 4.418.617z"/><path fill="#fdabff" d="M37.374 5.815c-2.75-2.94-6.654-4.79-10.997-4.79-8.05 0-14.608 6.318-15.03 14.263l26.027-9.473z"/><g fill="#444"><path d="M30.068.404c-5.29-1.21-10.942.34-14.85 4.11-3.485 3.365-6.11 9.308-4.435 14.134.02.062.085.272.153.438-.06.158-.112.325-.18.462-.438.885-.76 1.85-1.133 2.763L7.71 26.977c-.195.475.216 1.207.726 1.278l3.616.505c-.087 2.377-.033 4.86.536 7.15.98 3.948 5.152 4.04 8.58 3.278 2.023-.45 2.87-1.964 4.228-3.365 1.508-1.555 3.33-2.755 5.21-3.813 1.352-.76 3.03-1.682 4.003.02.926 1.62.573 3.497-1.04 4.423-.675.387-.675 1.408 0 1.795 1.83 1.05 1.89 2.578 0 3.663-.675.388-.675 1.41 0 1.796 3.39 1.946-.082 4.214-2.566 4.214-2.43 0-6.038-2.22-2.565-4.214.673-.387.673-1.408 0-1.795-1.832-1.05-1.89-2.577 0-3.662 1.16-.666.113-2.462-1.05-1.795-2.763 1.586-3.16 4.397-1.2 6.342-1.122 1.06-1.746 2.513-1.062 4.11.94 2.194 3.67 3.093 5.876 3.093 2.21 0 4.935-.9 5.876-3.094.685-1.597.06-3.05-1.063-4.11 1.626-1.612 1.627-3.818 0-5.432 1.11-1.06 1.514-2.42 1.256-4.184-.274-1.87-1.227-3.78-3.236-4.203-2.285-.48-4.624 1.35-6.404 2.534-1.5.998-2.906 2.133-4.1 3.49-.57.65-1.082 1.53-1.873 1.938-1.465.753-5.198 1.058-6.333-.187-1.084-1.188-.925-3.927-.976-5.416a41.326 41.326 0 0 1 .02-3.467c.02-.404-.333-.942-.762-1.002l-3.234-.45 1.22-2.98c.487-1.185 1.55-2.806 1.68-4.09.104-1.058-.64-2.154-.683-3.256-.062-1.577.28-3.215.803-4.695a14.082 14.082 0 0 1 5.61-7.085c5.402-3.493 12.707-2.8 17.34 1.672 5.28 5.095 5.636 13.433 1.043 19.1-.835 1.03.627 2.51 1.47 1.47C46.06 17.416 41.848 3.1 30.068.403z"/><path d="M22.418 12.516c0 3.328 2.707 6.035 6.035 6.035s6.036-2.706 6.036-6.034-2.71-6.036-6.037-6.036-6.035 2.708-6.035 6.036zm6.035 4.373v-4.374H24.08a4.378 4.378 0 0 1 4.372-4.373v4.373h4.373c0 2.41-1.96 4.372-4.372 4.373z"/></g></svg>