<svg xmlns="http://www.w3.org/2000/svg" id="Layer_1" x="0" y="0" version="1.1" viewBox="0 0 50 50" xml:space="preserve"><style>.st2{fill:#464646}</style><path fill="#bee367" d="M33.8 18.9c.5.1 1 .2 1.5.2 4.7 0 8.6-3.5 9.1-8.1L7.8 24.3c.7 5.2 1.5 10.6 2 14.6l22.4-8.1c.5-4 1.1-8.3 1.6-11.9z"/><path fill="#d4ff73" d="M44.2 10.2c0-5-4.1-9.1-9.1-9.1-4.4 0-8.1 3.1-8.9 7.3v.2H6.7c-.6 0-.9.3-.9.9 0 .3 1 7.4 2 15.1L44 11.4c.1-.5.2-.8.2-1.2z"/><path d="M36.8 11.3l4.3 4.3c1-1.2 1.7-2.7 1.8-4.3h-6.1zm0-1.2h6.1c-.1-1.6-.8-3.1-1.8-4.3l-4.3 4.3zM14.9 30.2c-.3 0-.5-.1-.7-.2-.4-.2-.7-.5-.8-.9-.3-.9-.1-1.8.6-2.7l.2-.3.3.1c1.2.3 1.9.9 2.2 1.8.1.4.1.8-.1 1.2-.2.4-.6.8-1.1.9-.2 0-.4.1-.6.1zm-.4-3c-.3.5-.4 1.1-.2 1.5.1.2.2.3.3.3.2.1.4.1.6 0 .2-.1.4-.2.5-.4.1-.1.1-.3 0-.4-.1-.4-.5-.8-1.2-1zm9.4 11.4c-.3 0-.6-.1-.9-.2-1-.5-1.7-1.5-1.9-2.9v-.3l.3-.2c1.3-.8 2.5-.9 3.5-.4.5.2.9.7 1 1.2.1.5.1 1.1-.2 1.6-.4.8-1.1 1.2-1.8 1.2zm-1.7-2.9c.2.9.6 1.5 1.3 1.8.6.3 1.1-.1 1.3-.5.1-.3.2-.6.1-.9 0-.2-.2-.4-.5-.6-.6-.3-1.3-.3-2.2.2zm3.6-9.5c-1 0-1.9-.3-2.6-.9-.5-.4-.8-1.1-.8-1.7 0-.6.3-1.3.7-1.8.4-.5 1-.8 1.7-.9.7-.1 1.3.1 1.8.6 1.1.9 1.5 2.3 1.3 4.1v.3l-.3.1c-.7.1-1.3.2-1.8.2zm-.7-4.4h-.2c-.4 0-.7.2-1 .6-.3.3-.5.8-.5 1.1 0 .4.1.7.4 1 .8.7 1.8.8 3.1.5.1-1.3-.2-2.2-1-2.9-.2-.2-.5-.3-.8-.3zM19.6 43c-.7 0-1.3-.1-2-.4-1.2-.5-2.1-1.4-2.7-2.6-.5-1.2-.5-2.5 0-3.7.1-.3.4-.4.7-.3.3.1.4.4.3.7-.4.9-.4 1.9 0 2.9.4.9 1.2 1.7 2.1 2.1 1 .4 2 .4 3 .1 1-.4 1.7-1.1 2.1-2 .1-.3.4-.4.7-.3.3.1.4.4.3.7-.5 1.2-1.4 2.1-2.6 2.5-.8.2-1.3.3-1.9.3z" class="st2"/><path d="M22.8 39.7l-2.7-1.2 1.1 2.8c.7-.3 1.3-.9 1.6-1.6zM19 38.5l-2.8 1.1c.3.7.9 1.3 1.6 1.6l1.2-2.7zm.6.3l-1.2 2.7c.8.3 1.6.3 2.3 0l-1.1-2.7zm-.8-.8l-2.7-1.2c-.3.8-.3 1.6 0 2.3l2.7-1.1zm.7-3.7c-1.5 0-3-.7-3.9-2-.2-.2-.1-.5.1-.7.2-.2.5-.1.7.1 1.2 1.7 3.7 2.1 5.5.8.9-.6 1.5-1.5 1.7-2.6.2-1 0-2.1-.6-2.9-.2-.2-.1-.5.1-.7.2-.2.5-.1.7.1.8 1.1 1 2.4.8 3.7-.2 1.3-1 2.4-2.1 3.2-1 .7-2 1-3 1z" class="st2"/><path d="M22.7 27.2L20.3 29l3 .5c0-.8-.1-1.6-.6-2.3zm-3 2.7l-.5 3c.8.1 1.6-.1 2.3-.5l-1.8-2.5zm.5-.3l1.8 2.5c.6-.5 1-1.2 1.2-2l-3-.5zm-1.1.2l-2.5 1.8c.5.6 1.2 1 2 1.2l.5-3z" class="st2"/><path d="M35.3.8c-4.3 0-8.2 2.9-9.4 7H13.7L12 1.5c-.2-.4-.6-.6-1-.5-.4.1-.6.5-.5.9l1.6 5.8H7c-.7.1-1.3.3-1.7.8-.4.4-.5 1-.5 1.6 0 .4 1.2 8.8 2.4 17.8 1.1 8.2 2.2 16.4 2.3 17.2.4 3.1 1.7 4.1 5.7 4.1H26c4 0 5.3-1 5.7-4.1.1-.8 1.2-9.1 2.4-17.4.3-2.5.7-4.9 1-7.1h.3c5.4 0 9.9-4.4 9.9-9.9-.1-5.5-4.6-9.9-10-9.9zm-3.8 26.5c-1.1 8.3-2.3 16.7-2.4 17.5-.2 1.6-.2 1.9-3.2 1.9H15.3c-3 0-3-.3-3.2-1.9-.1-.8-1.2-9-2.3-17.2-1-7.2-2.1-15.2-2.3-17.3h5.4l2.1 7.4h-4.6l.1.8c1 10.5 2.6 21.7 2.8 22.7.5 2.6 1.3 4 4.1 4h7c2.5 0 3.6-1.1 4.1-4 .2-.9 1.8-12.1 2.8-22.7l.1-.8H16.5l-2.1-7.4h19.5c-.3 2-1.4 9.6-2.4 17zM18.8 26l-1.9-6.8h12.8c-1 10.3-2.6 20.9-2.7 21.8-.4 2.3-1.1 2.7-2.6 2.7h-7c-1.8 0-2.2-.5-2.6-2.7-.2-1-1.7-11.6-2.7-21.8h3.4l2 7.2c.1.3.4.5.7.5h.2c.3-.1.5-.5.4-.9zm16.5-7h-.1c.3-2.4.6-4.4.8-6v5.2c1.6-.1 3.1-.8 4.3-1.8l-4.2-4.2c.2-1.3.3-2.1.3-2.2 0-.4 0-.7-.1-1.1l4.1-4.1c-1.2-1-2.7-1.7-4.3-1.8v5.4s0-.1-.1-.1c-.3-.3-.7-.5-1.1-.6V3.2c-1.6.1-3.1.8-4.3 1.8l2.8 2.8h-1.7l-2-2c-.5.6-.9 1.3-1.2 2h-1c1.2-3.2 4.3-5.5 7.8-5.5 4.6 0 8.4 3.8 8.4 8.4 0 4.6-3.8 8.3-8.4 8.3z" class="st2"/></svg>