<svg xmlns="http://www.w3.org/2000/svg" viewBox="0 0 50 50"><defs><style>.cls-1,.cls-3{fill:none;stroke:#444;stroke-linecap:round;stroke-linejoin:round}.cls-5{fill:#444}.cls-3{stroke-width:.5px}</style></defs><g id="Camada_3"><path fill="#dc5e82" d="M47.9 18.1l.5-11-1.9-3.8-15.4.5c-3.2 0-27.8-3-27.8.2L1.6 24.6l1.2 23.5 13.6.6 31-11c.7-.4 1.5-17.6.5-19.6z"/><path fill="none" stroke="#444" stroke-linecap="round" stroke-linejoin="round" stroke-width="2.5" d="M33 48.7H6c-1.9 0-3.4-1.6-3.4-3.5V6.3c0-1.9 1.5-3.5 3.4-3.5h39c1.9 0 3.4 1.6 3.4 3.5v32.5"/><rect width="8.5" height="8.5" x="20.8" y="5.9" class="cls-3" rx="1.6" ry="1.6"/><rect width="8.5" height="8.5" x="34.9" y="12.2" class="cls-3" rx="1.6" ry="1.6"/><rect width="8.5" height="8.5" x="6.9" y="12.2" class="cls-3" rx="1.6" ry="1.6"/><rect width="8.5" height="8.5" x="6.9" y="32.1" class="cls-3" rx="1.6" ry="1.6"/><rect width="8.5" height="8.5" x="35.5" y="32.1" class="cls-3" rx="1.6" ry="1.6"/><rect width="11.7" height="12.5" x="19.1" y="21.2" class="cls-3" rx="1.6" ry="1.6"/><path d="M11.1 23.3v2.3h6.7" class="cls-1"/><path d="M10.1 23.6l1-1.8 1 1.8h-2z" class="cls-5"/><path d="M39.8 23.3v2.3h-6.7" class="cls-1"/><path d="M38.7 23.6l1.1-1.8 1 1.8h-2.1z" class="cls-5"/><path d="M25 16.5v3.4" class="cls-1"/><path d="M24 16.8l1-1.8 1.1 1.8H24z" class="cls-5"/><path d="M39.8 29.7v-2.4h-6.7" class="cls-1"/><path d="M40.8 29.4l-1 1.8-1.1-1.8h2.1z" class="cls-5"/><path d="M11.1 29.7v-2.4h6.7" class="cls-1"/><path d="M12.1 29.4l-1 1.8-1-1.8h2z" class="cls-5"/><path d="M20.8 24.6h8.4m7.6-9.6h4.7m-4.7 2h4.7M22.6 9.1h4.8m-4.8 2h4.8M8.7 15.4h4.8m-4.8 2h4.8M8.7 35.7h4.8m-4.8 2h4.8m23.9-2.4h4.7m-4.7 2h4.7M20.8 26.5h8.4m-8.4 1.9h8.4m-8.4 1.9h8.4" class="cls-1"/></g></svg>