<?xml version="1.0" encoding="utf-8"?>
<!-- Generator: Adobe Illustrator 22.0.1, SVG Export Plug-In . SVG Version: 6.00 Build 0)  -->
<svg version="1.1" id="Layer_1" xmlns="http://www.w3.org/2000/svg" xmlns:xlink="http://www.w3.org/1999/xlink" x="0px" y="0px"
	 viewBox="0 0 50 50" style="enable-background:new 0 0 50 50;" xml:space="preserve">
<style type="text/css">
	.st0{fill:#9674EA;}
	.st1{fill:#B292F3;}
	.st2{fill:#444444;}
</style>
<g>
	<path class="st0" d="M43.3,25.5V7.4c0-1.9-8.2-3.9-18.3-3.9S6.7,5.5,6.7,7.4v31.5L43.3,25.5z"/>
	<path class="st1" d="M39.8,5.2c-3.3-1-8.7-1.7-14.8-1.7c-10.1,0-18.3,2-18.3,3.9v9.9L39.8,5.2z"/>
	<path class="st2" d="M25,2.2c-5.4,0-19.6,0.9-19.6,5.2v35.1c0,4.3,14.1,5.2,19.6,5.2c0.7,0,1.3-0.6,1.3-1.3s-0.6-1.3-1.3-1.3
		c-9.7,0-16.1-1.8-17-2.8v-9.5c3.7,1.7,11.8,2.2,17,2.2c4.2,0,8.1-0.3,11.4-0.8c0.4-0.1,0.7-0.4,0.6-0.9c-0.1-0.4-0.4-0.7-0.9-0.6
		c-3.2,0.5-7.1,0.7-11.2,0.7c-9.4,0-15.4-1.3-17-2.3V21c3.7,1.7,11.8,2.2,17,2.2s13.3-0.5,17-2.2v7.7c0,0.7,0.6,1.3,1.3,1.3
		s1.3-0.6,1.3-1.3V7.4C44.6,3.2,30.4,2.2,25,2.2z M42,7.5c-1.8,1-7.7,2.3-17,2.3S9.8,8.5,8,7.5c1-1,7.4-2.8,17-2.8
		C34.6,4.8,40.9,6.5,42,7.5z M25,21.7c-9.4,0-15.4-1.3-17-2.3V9.2c3.7,1.7,11.8,2.2,17,2.2s13.3-0.5,17-2.2v10.2
		C40.4,20.3,34.4,21.7,25,21.7z"/>
	<circle class="st2" cx="36.2" cy="38.6" r="1.8"/>
	<circle class="st2" cx="36.2" cy="26.6" r="1.8"/>
	<circle class="st2" cx="36.2" cy="14.7" r="1.8"/>
</g>
</svg>
