<?xml version="1.0" encoding="utf-8"?>
<!-- Generator: Adobe Illustrator 26.5.0, SVG Export Plug-In . SVG Version: 6.00 Build 0)  -->
<svg version="1.1" id="Layer_1" xmlns="http://www.w3.org/2000/svg" xmlns:xlink="http://www.w3.org/1999/xlink" x="0px" y="0px"
	 viewBox="0 0 50 50" style="enable-background:new 0 0 50 50;" xml:space="preserve">
<style type="text/css">
	.st0{fill:#FF6B6B;}
	.st1{fill:#E56060;}
	.st2{fill:none;stroke:#494949;stroke-width:2.5;stroke-linecap:round;stroke-linejoin:round;stroke-miterlimit:10;}
	.st3{fill:none;stroke:#494949;stroke-linecap:round;stroke-linejoin:round;stroke-miterlimit:10;}
</style>
<g>
	<path class="st0" d="M29,15.5l-6.4,2.3l-2.8,1L13,21.3l0.9-1.3l3.4-4.7c0.5-0.6,0.3-1.5-0.3-1.9c-0.4-0.3-1-0.3-1.4-0.1
		c-0.1,0.1-0.2,0.1-0.3,0.2c-0.1,0.1-0.2,0.2-0.2,0.2l-3.6,5l-1.9-2.2c-0.1-0.1-0.1-0.1-0.2-0.2c-0.5-0.4-1.2-0.4-1.7,0.1
		c-0.6,0.5-0.7,1.4-0.1,2l1.7,2l1.3,1.5c0,0,0.1,0.1,0.1,0.1c0,0,0.1,0.1,0.1,0.1c0,0,0,0,0,0l-5.7,2l-2.8,1
		c-0.2-0.4-0.2-0.8-0.2-1.3V7.1c0-0.4,0.4-0.8,0.8-0.7c1.1,0.1,3,0.1,5-0.6c2-0.7,3.3-1.8,4-2.6c0.3-0.3,0.8-0.3,1.1,0
		c0.7,0.8,2,1.9,4,2.6c2,0.7,3.9,0.7,5,0.6c0.4,0,0.8,0.3,0.8,0.7v8.4H29z"/>
	<path class="st1" d="M48.1,16.5v8.4l-9.9,3.6v-1.8h-3.1V29c-0.9,0.3-1.7,0.7-2.4,1.4l-2-1.1l-1.5,2.5L6.9,39.9L4,40.9
		c-0.6-0.8-1-1.8-1-2.8V26.6c-0.4-0.5-0.7-1-0.9-1.5l2.8-1l5.7-2l2.2-0.8h0l6.8-2.4l2.8-1l6.4-2.3l1.7-0.6h0
		c0.4-1.7,1.9-2.9,3.6-2.9h9.3C46.1,12,48.1,14,48.1,16.5z"/>
	<path class="st0" d="M22.6,7.1v3.2l-2.8,1l-15,5.5l-2.8,1V7.1c0-0.4,0.4-0.8,0.8-0.7c1.1,0.1,3,0.1,5-0.6c2-0.7,3.3-1.8,4-2.6
		c0.3-0.3,0.8-0.3,1.1,0c0.7,0.8,2,1.9,4,2.6c2,0.7,3.9,0.7,5,0.6C22.2,6.4,22.6,6.7,22.6,7.1z"/>
	<path class="st0" d="M34.3,12h4.6l-8.2,2.9C31.1,13.2,32.6,12,34.3,12z"/>
	<g>
		<path class="st2" d="M6.9,29.8v12.8c0,0,0,0,0,0c-1.2-0.2-2.2-0.8-2.9-1.6c-0.6-0.8-1-1.8-1-2.8V26.6C4,27.8,5.4,28.9,6.9,29.8z"
			/>
		<polygon class="st2" points="30.6,15.5 29.7,19.9 22.6,19.9 22.6,15.5 		"/>
		<path class="st2" d="M48.1,16.5v26.1c0,2.5-2,4.5-4.5,4.5H11.4c-2.5,0-4.5-2-4.5-4.5c0,0,0,0,0,0V29.8c2.2,1.3,4.3,2.2,5.1,2.5
			c0.2,0.1,0.4,0.1,0.5,0c1.6-0.6,10.1-4.2,10.1-8.5v-3.9h7.1l0.9-4.4l0.1-0.5c0,0,0,0,0-0.1h0c0.4-1.7,1.9-2.9,3.6-2.9h9.3
			C46.1,12,48.1,14,48.1,16.5z"/>
		<g>
			<path class="st3" d="M21.8,6.4c-1.1,0.1-3,0.1-5-0.6c-2-0.7-3.3-1.8-4-2.6c-0.3-0.3-0.8-0.3-1.1,0c-0.7,0.8-2,1.9-4,2.6
				c-2,0.7-3.9,0.7-5,0.6c-0.4,0-0.8,0.3-0.8,0.7v16.7c0,0.4,0.1,0.9,0.2,1.3c0.2,0.5,0.5,1,0.9,1.5c1,1.2,2.4,2.3,3.9,3.2
				c2.2,1.3,4.3,2.2,5.1,2.5c0.2,0.1,0.4,0.1,0.5,0c1.6-0.6,10.1-4.2,10.1-8.5V7.1C22.6,6.7,22.2,6.4,21.8,6.4z M19.8,23.3
				c0,1.8-4,4.3-7.3,5.7C12.3,29,12.1,29,12,29c-1.7-0.7-3.6-1.8-5.1-2.8c-0.9-0.7-1.6-1.4-1.9-2c-0.2-0.3-0.2-0.6-0.2-0.8V10
				c0-0.4,0.3-0.6,0.6-0.7c1-0.1,2.2-0.3,3.4-0.7C9.5,8.4,10.3,8,11,7.6c0.3-0.2,0.6-0.4,0.9-0.6c0.2-0.2,0.6-0.2,0.8,0
				c0.3,0.2,0.5,0.4,0.9,0.6c0.6,0.4,1.4,0.8,2.2,1.1c1.2,0.4,2.4,0.6,3.4,0.7c0.3,0,0.6,0.3,0.6,0.6V23.3z"/>
			<path class="st3" d="M19.1,9.3c-1-0.1-2.2-0.3-3.4-0.7c-0.8-0.3-1.6-0.7-2.2-1.1c-0.3-0.2-0.6-0.4-0.9-0.6
				c-0.2-0.2-0.6-0.2-0.8,0c-0.3,0.2-0.6,0.4-0.9,0.6C10.3,8,9.5,8.4,8.7,8.6C7.5,9.1,6.4,9.3,5.3,9.3C5,9.4,4.7,9.7,4.7,10v13.3
				c0,0.3,0.1,0.6,0.2,0.8c0.3,0.7,1,1.3,1.9,2c1.4,1.1,3.4,2.1,5.1,2.8c0.2,0.1,0.3,0.1,0.5,0c3.3-1.4,7.3-3.9,7.3-5.7V10
				C19.8,9.6,19.5,9.4,19.1,9.3z M12.6,21.7c-0.2,0.3-0.6,0.6-1.1,0.6c-0.1,0-0.2,0-0.3,0c-0.1,0-0.2,0-0.3-0.1c0,0-0.1,0-0.1-0.1
				c0,0-0.1,0-0.1-0.1c0,0-0.1,0-0.1-0.1c-0.1,0-0.1-0.1-0.2-0.2l-1.3-1.5l-1.7-2c-0.5-0.6-0.4-1.5,0.2-2c0.6-0.5,1.5-0.4,2,0.2
				l1.9,2.2l3.6-5c0.4-0.6,1.3-0.8,1.9-0.3c0.6,0.4,0.8,1.3,0.3,2l-3.4,4.7L13,21.3L12.6,21.7z"/>
			<g>
				<path class="st3" d="M17.3,15.2L13.9,20l-1.3,1.8c-0.2,0.3-0.6,0.6-1.1,0.6c-0.1,0-0.2,0-0.3,0c-0.3-0.1-0.6-0.2-0.8-0.5
					l-1.3-1.5l-1.7-2c-0.5-0.6-0.4-1.5,0.2-2c0.6-0.5,1.5-0.4,2,0.2l1.9,2.2l3.6-5c0.4-0.6,1.3-0.8,1.9-0.3
					C17.6,13.7,17.7,14.6,17.3,15.2z"/>
			</g>
		</g>
	</g>
	<g>
		<path class="st2" d="M21.8,6.4c-1.1,0.1-3,0.1-5-0.6c-2-0.7-3.3-1.8-4-2.6c-0.3-0.3-0.8-0.3-1.1,0c-0.7,0.8-2,1.9-4,2.6
			c-2,0.7-3.9,0.7-5,0.6c-0.4,0-0.8,0.3-0.8,0.7v16.7c0,1,0.4,1.9,1.1,2.8c1,1.2,2.4,2.3,3.9,3.2c2.1,1.3,4.3,2.2,5.1,2.5
			c0.2,0.1,0.4,0.1,0.5,0c1.6-0.6,10.1-4.2,10.1-8.5V7.1C22.6,6.7,22.2,6.4,21.8,6.4z"/>
	</g>
	<g>
		<circle class="st3" cx="36.7" cy="34.4" r="2.6"/>
		<path class="st3" d="M42.3,34.4c0-0.5-0.1-0.9-0.2-1.4l2-1.1l-1.5-2.7l-2,1.1c-0.7-0.6-1.5-1.1-2.4-1.4v-2.3h-3.1V29
			c-0.9,0.3-1.7,0.7-2.4,1.4l-2-1.1l-1.5,2.7l2,1.1c-0.1,0.4-0.2,0.9-0.2,1.4c0,0.5,0.1,0.9,0.2,1.4l-2,1.1l1.5,2.7l2-1.1
			c0.7,0.6,1.5,1.1,2.4,1.4v2.3h3.1v-2.3c0.9-0.3,1.7-0.7,2.4-1.4l2,1.1l1.5-2.7l-2-1.1C42.2,35.3,42.3,34.9,42.3,34.4z"/>
	</g>
</g>
</svg>
