<?xml version="1.0" encoding="UTF-8"?>
<svg id="Camada_1" data-name="Camada 1" xmlns="http://www.w3.org/2000/svg" viewBox="0 0 300 300">
  <defs>
    <style>
      .cls-1 {
        fill: #88d188;
      }

      .cls-2 {
        fill: #dbb358;
      }

      .cls-3 {
        fill: #fff;
      }

      .cls-4 {
        fill: #95d3e5;
      }

      .cls-5 {
        fill: #a77fbf;
      }

      .cls-6 {
        fill: #ce4c42;
      }

      .cls-7 {
        fill: #f4ca60;
      }

      .cls-8 {
        fill: #67a367;
      }

      .cls-9 {
        fill: #cf9ae8;
      }

      .cls-10 {
        fill: #cc5e56;
      }

      .cls-11 {
        fill: #f96a58;
      }
    </style>
  </defs>
  <path class="cls-3" d="M192.24,41.68c-50.08,0-92.29,34.34-104.32,80.72l-20.64,5.32s-.05.02-.07.02c-.25.07-.49.15-.73.25-.04.02-.08.04-.12.06-.2.09-.4.2-.6.31-.04.03-.09.05-.13.08-.21.13-.41.28-.61.44-.04.04-.08.07-.12.11-.08.07-.16.14-.24.21l-31.22,31.04-31.22,31.04c-.93.93-1.52,2.14-1.66,3.45l-.52,4.74c-.02.14,0,.28-.01.42,0,.14-.02.28-.01.41,0,.18.03.36.06.54.02.12.02.24.04.36.05.23.11.45.19.68.02.07.03.13.06.2.11.29.24.56.39.83,0,0,0,.02.01.03.13.23.28.45.44.66.03.03.06.06.09.1.15.18.3.36.47.52.06.06.14.12.2.18.14.12.28.24.43.35.08.06.17.11.25.17.15.1.31.19.47.27.05.03.1.06.15.09.06.03.11.05.17.07.09.04.17.07.26.11.14.05.27.1.41.14.09.03.17.05.26.07.15.04.3.07.46.09.08.01.15.03.23.04.22.03.44.04.67.04.01,0,.02,0,.03,0,.01,0,.02,0,.03,0,.21,0,.41-.02.62-.04.07,0,.14-.02.2-.03.16-.02.31-.05.47-.09.04,0,.08-.01.12-.02l67.52-17.41,3.58,1.25-24.23,24.08c-.93.93-1.52,2.14-1.66,3.45l-.52,4.74c0,.07,0,.13,0,.2,0,.06-.02.12-.02.19,0,.06,0,.13,0,.19,0,.08,0,.17,0,.25,0,.1.02.19.03.29.01.13.03.26.05.39.01.07.02.15.03.22.02.09.05.18.07.27.03.14.07.27.12.41,0,0,0,0,0,0,.02.06.03.13.05.19.03.08.08.16.11.24.05.13.11.26.18.38.03.07.06.14.1.21,0,0,0,.02.01.03.04.08.1.15.15.22.06.09.12.19.18.28.04.05.07.11.11.16.03.04.06.07.09.1.05.06.1.11.15.17.06.07.12.15.19.21.04.04.08.09.13.13.06.06.14.12.2.18.07.06.14.13.21.19.03.02.05.05.08.07.04.03.09.06.14.09.08.06.17.11.25.17.1.07.21.14.31.2.06.03.12.06.18.09.04.02.08.05.12.07.06.03.11.04.17.07.09.04.18.07.26.11.06.02.12.05.18.07l41.83,14.56c.62.22,1.26.32,1.89.32,1.49,0,2.96-.58,4.05-1.67l14.08-14c9.66,9.31,21.05,16.83,33.63,22.03l.73,4.76c.33,2.14,1.83,3.91,3.88,4.59.59.19,1.2.29,1.8.29,1.49,0,2.96-.58,4.05-1.67l3.35-3.33c8.71,2.28,17.85,3.5,27.26,3.5,59.42,0,107.76-48.34,107.76-107.76s-48.34-107.76-107.76-107.76Z"/>
  <g>
    <circle class="cls-4" cx="192.24" cy="149.44" r="102.01"/>
    <g>
      <g>
        <polyline class="cls-11" points="235.59 73.36 166.45 91.3 204.28 104.47 242.12 117.64 242.12 117.64 242.36 117.73 235.59 73.36"/>
        <polyline class="cls-9" points="137.39 120.19 68.19 138.02 36.97 169.06 106.16 151.23 137.39 120.19"/>
        <polyline class="cls-11" points="106.16 151.23 36.97 169.06 5.74 200.09 74.95 182.25 106.16 151.23"/>
        <polyline class="cls-7" points="137.38 120.2 106.15 151.23 74.95 182.25 112.89 195.47 133.8 202.75 133.81 202.75 150.84 208.69 137.38 120.2"/>
        <polyline class="cls-1" points="137.39 120.19 150.85 208.68 213.3 146.62 137.39 120.19"/>
        <polyline class="cls-7" points="166.45 91.3 137.39 120.19 213.3 146.62 242.36 117.73 242.36 117.73 204.41 104.51 166.45 91.3"/>
        <polyline class="cls-7" points="133.81 202.75 57.57 222.39 99.41 236.95 133.81 202.75 133.81 202.75"/>
        <polyline class="cls-1" points="91.98 188.19 57.57 222.39 133.81 202.75 112.9 195.47 91.98 188.19"/>
        <polyline class="cls-9" points="213.3 146.63 182.08 177.67 188.81 221.92 220.04 190.89 213.3 146.63"/>
        <polyline class="cls-11" points="182.08 177.67 150.84 208.71 157.58 252.96 188.81 221.92 182.08 177.67"/>
      </g>
      <polygon class="cls-5" points="68.19 138.02 68.71 133.28 137.91 115.46 137.39 120.19 68.19 138.02"/>
      <polygon class="cls-10" points="166.45 91.3 166.97 86.57 230.88 70.85 235.59 73.36 166.45 91.3"/>
      <polygon class="cls-5" points="216.52 143.42 213.3 146.63 220.04 190.89 222.83 184.44 216.52 143.42"/>
      <polygon class="cls-5" points="36.97 169.06 37.49 164.32 68.71 133.28 68.19 138.02 36.97 169.06"/>
      <polygon class="cls-2" points="137.39 120.2 137.91 115.46 166.97 86.57 166.45 91.3 137.39 120.2"/>
      <polygon class="cls-6" points="5.74 200.09 6.26 195.36 37.49 164.32 36.97 169.06 5.74 200.09"/>
      <polygon class="cls-8" points="57.57 222.39 58.1 217.65 88.85 187.09 91.98 188.19 57.57 222.39"/>
    </g>
  </g>
</svg>