<svg xmlns="http://www.w3.org/2000/svg" id="Camada_1" version="1.1" viewBox="0 0 300 300"><defs><style>.st9{stroke:#444;fill:none;stroke-linecap:round;stroke-linejoin:round;stroke-width:3px}</style></defs><path id="Camada_2" fill="#008dd3" d="M287.4 150.4c.1 20.5-4.3 40-12 57.6-21.8 49.2-70.9 83.5-128.2 83.7-15.2.1-29.9-2.3-43.6-6.7-25.8-8.2-48.4-23.8-65.3-44.2-17.6-21.1-29.1-47.5-31.8-76.5-.4-4.2-.6-8.4-.6-12.7-.2-47.8 23.5-90.2 59.8-115.7 4.8-3.4 9.7-6.4 14.8-9.1 7.3-3.9 14.8-7.1 22.8-9.7 7.5-2.4 15.2-4.2 23.2-5.3 6.4-.9 12.9-1.4 19.5-1.5 25.9-.1 50.1 6.8 71.1 18.9 3.8 2.1 7.4 4.5 10.9 7 16.8 11.9 30.8 27.3 41 45.4 1.2 2 2.2 4.1 3.3 6.2.9 1.8 1.7 3.6 2.6 5.4 2.7 6 4.9 12.1 6.8 18.4 2 7.1 3.6 14.4 4.5 21.7.8 5.7 1.2 11.4 1.2 17.1z"/><path fill="#145616" d="M265.4 268.5H57.2c-5.2 0-9.3-4.2-9.3-9.3v-147c0-5.2 4.2-9.3 9.3-9.3h210.3c5.2 0 9.3 4.2 9.3 9.3v96l-.3 49.1c0 6.1-5 11.1-11.2 11.1z"/><path fill="#d9eee4" d="M202.7 121.3H63.4V252h139.3V121.3zm-22.8 128.5v-22.1h20.9v22.1h-20.9zm-68.7-77.1h20.9v25.7h-20.9v-25.7zm-2 25.7H88.3v-25.7h20.9v25.7zm68.7-74.9V144H157v-20.5h20.9zM155 172.7v25.7h-20.9v-25.7H155zm-20.9-2.2v-24.3H155v24.3h-20.9zm22.9 2.2h20.9v25.7H157v-25.7zm0-2.2v-24.3h20.9v24.3H157zm-2-47V144h-20.9v-20.5H155zm-22.9 0V144h-20.9v-20.5h20.9zm0 22.7v24.3h-20.9v-24.3h20.9zm0 54.4v24.9h-20.9v-24.9h20.9zm2 0H155v24.9h-20.9v-24.9zm22.9 0h20.9v24.9H157v-24.9zm22.9 0h20.9v24.9h-20.9v-24.9zm0-2.2v-25.7h20.9v25.7h-20.9zm0-27.9v-24.3h20.9v24.3h-20.9zM182 144l18.8-19.7V144H182zm-2.1-.6v-20H199l-19.1 20zm-70.7-19.9V144H88.3v-20.5h20.9zm0 22.7v24.3H88.3v-24.3h20.9zm-22.9 24.3H65.4v-24.3h20.9v24.3zm0 2.2v25.7H65.4v-25.7h20.9zm0 27.9v24.9H65.4v-24.9h20.9zm2 0h20.9v24.9H88.3v-24.9zm20.9 27.1v22.1H88.3v-22.1h20.9zm2 0h20.9v22.1h-20.9v-22.1zm22.9 0H155v22.1h-20.9v-22.1zm22.9 0h20.9v22.1H157v-22.1zM86.3 123.5V144H65.4v-20.5h20.9zM65.4 227.7h20.9v22.1H65.4v-22.1z"/><path fill="#86d18f" d="M292.8 77.1v170.5c0 5.2-4.2 9.3-9.3 9.3H136.6c-5.2 0-9.3-4.2-9.3-9.3V37.3c0-5.2 4.2-9.3 9.3-9.3h96l60.3 49.1z"/><path fill="#089b4e" d="M232.5 67.7V27.9L292.8 77h-50.9c-5.2 0-9.3-4.2-9.3-9.3z"/><path fill="#ffd200" d="M221.8 141.7c-8.3-8.3-19.8-13.4-32.5-13.4v45.9l32.5-32.5z"/><path fill="#f96464" d="M189.4 128.2c-25.4 0-45.9 20.6-45.9 45.9s20.6 45.9 45.9 45.9 24.2-5.1 32.5-13.4l-32.5-32.5v-45.9z"/><path fill="#54c654" d="M221.8 141.7l-32.5 32.5 32.5 32.5c8.3-8.3 13.4-19.8 13.4-32.5s-5.1-24.2-13.4-32.5z"/><path d="M204.7 143.2v-38.8h17.5m-54.8 93.8v31.3h51.2m-5.8-65.5l19.5-22h12.9m-17.4-37.6h14.8m-14.8 5.6h35m-35 10.1h35m-35-5h35M139.1 48.5h29.1m-29.1 10.9h68.7m-68.7 19.8h68.7m-68.7-9.7h68.7M249.9 142h14.9m-14.9 5.8H285m-35.1 10.1H285m-35.1-4.9H285M224 229h14.8m-14.8 5.3h35m-35 10.1h35m-35-4.9h35" class="st9"/><g><path fill="#ddd" stroke="#444" stroke-miterlimit="10" stroke-width="4" d="M88.9 89.2c6.9-3.1 11.8-9.4 11.8-9.4l-19.2-14c-.3-.2-.6-.6-.6-.9h0c0-.4 0-.7.2-1.1l7.1-9.3c.3-.3.6-.5 1.1-.5h0c.3 0 .6 0 .9.3L109 68.7s4.2-6.8 4.7-14.4c.4-6.4 20.5 31.9 26.4 43.3.7 1.3-.3 2.9-1.8 2.6-12.8-1.9-55.4-8.4-49.4-11.1z"/><path style="isolation:isolate" fill="#fff" d="M111.9 84.6c4.1 2 11.3 4.7 14.5 6.2 3.9 1.9 6.5 3.4 7.7 4.4.6.5 0 1.3-.8 1.1-1.9-.2-5.8-.8-13.8-2.4h-.1c-3.3-.4-21.6-3.8-23.1-4.4-4.1-.5 5.7-3.5 8.3-7.8" opacity=".4"/><path style="isolation:isolate" fill="#fff" d="M108 86.8c2.4 1 6.5 2.2 8.5 3 2.3.9 3.8 1.5 4.5 2.1.3.3 0 .5-.5.6-1.1-.1-3.4-.4-8.1-1.2h-.1c-1.9-.2-12.5-1.8-13.5-2.1-2.4-.3 3.3-1.6 4.9-3.7" opacity=".6"/></g></svg>