<?xml version="1.0" encoding="utf-8"?>
<!-- Generator: Adobe Illustrator 22.0.1, SVG Export Plug-In . SVG Version: 6.00 Build 0)  -->
<svg version="1.1" id="Layer_1" xmlns="http://www.w3.org/2000/svg" xmlns:xlink="http://www.w3.org/1999/xlink" x="0px" y="0px"
	 viewBox="0 0 50 50" style="enable-background:new 0 0 50 50;" xml:space="preserve">
<style type="text/css">
	.st0{fill:#A6C1C2;}
	.st1{fill:#B9D7D9;}
	.st2{fill:none;stroke:#444444;stroke-width:2.5;stroke-linecap:round;stroke-miterlimit:10;}
	.st3{fill:#444444;}
</style>
<g>
	<g>
		<polygon class="st0" points="46.2,12.4 6.3,27.2 6.3,47.3 46.2,32.5 		"/>
	</g>
	<g>
		<path class="st1" d="M46.2,1.3h-26H6.8H4.9c-0.8,0-1.4,0.6-1.4,1.4v23.2c0,0.8,0.6,1.4,1.4,1.4h1.9v0l39.3-14.8V1.3z"/>
	</g>
	<g>
		<path class="st2" d="M9.5,7.7"/>
	</g>
	<path class="st3" d="M44.6,0.4H6.2c-0.3,0-0.6,0-0.9,0.1c-0.1,0-0.1,0-0.2,0c-0.1,0-0.2,0-0.2,0.1c0,0-0.1,0-0.1,0
		C2.7,1.3,1.2,3.2,1.2,5.6c0,0,0,0,0,0.1c0,0,0,0,0,0.1v22h4.1c0.1,0,0.2,0,0.2,0v22h27.9h2.4c0.7,0,1.3-0.6,1.3-1.3
		s-0.6-1.3-1.3-1.3h-2.4H8.2V9.1h36.5v23.6c0,0.7,0.6,1.3,1.3,1.3c0.7,0,1.3-0.6,1.3-1.3V8c0.9-0.8,1.5-2,1.5-3.3
		C48.8,2.3,46.9,0.4,44.6,0.4z M8.6,6.5h-3v18.6c-0.1,0-0.2,0-0.2,0H3.8V5.7c0,0,0,0,0-0.1c0,0,0,0,0-0.1c0-1.2,0.8-2.2,1.9-2.4
		c0.1,0,0.2,0,0.2,0c0.1,0,0.2,0,0.3,0c1.4,0,2.5,1.1,2.5,2.5C8.8,5.9,8.7,6.2,8.6,6.5z M44.8,6.3c-0.2,0-0.3,0.1-0.5,0.2h-33
		c0.1-0.3,0.1-0.6,0.1-1c0-0.9-0.3-1.8-0.7-2.5h33.8c0.9,0,1.7,0.7,1.7,1.7C46.2,5.5,45.6,6.2,44.8,6.3z"/>
	<g>
		<g>
			
				<rect x="41.1" y="18.4" transform="matrix(-1 -8.985980e-11 8.985980e-11 -1 84.4841 38.9955)" class="st3" width="2.2" height="2.2"/>
		</g>
		<g>
			
				<rect x="41.1" y="14.7" transform="matrix(-1 -8.944369e-11 8.944369e-11 -1 84.4841 31.6498)" class="st3" width="2.2" height="2.2"/>
		</g>
		<g>
			
				<rect x="41.1" y="11.1" transform="matrix(-1 -8.985980e-11 8.985980e-11 -1 84.4841 24.3042)" class="st3" width="2.2" height="2.2"/>
		</g>
	</g>
	<path class="st3" d="M33.4,12.8h-4.1c-0.7,0-1.3,0.6-1.3,1.3v2.5h-3.8c-0.7,0-1.3,0.6-1.3,1.3v2.2h-3.8c-0.7,0-1.3,0.6-1.3,1.3v8.1
		c0,0.7,0.6,1.3,1.3,1.3h4.1c0.2,0,0.4,0,0.5-0.1c0.2,0.1,0.3,0.1,0.5,0.1h4.1c0.2,0,0.4,0,0.5-0.1c0.2,0.1,0.3,0.1,0.5,0.1h4.1
		c0.7,0,1.3-0.6,1.3-1.3V14.1C34.7,13.4,34.1,12.8,33.4,12.8z M19.3,21.7h3.5v7.6h-3.5V21.7z M24.5,21.4v-3.2H28v11.1h-3.5V21.4z
		 M33.1,29.3h-3.5V18v-3.6h3.5V29.3z"/>
	<g>
		<g>
			<path class="st3" d="M35.3,35.5H16.2c-0.3,0-0.5-0.2-0.5-0.5v-0.2c0-0.3,0.2-0.5,0.5-0.5h19.2c0.3,0,0.5,0.2,0.5,0.5V35
				C35.8,35.3,35.6,35.5,35.3,35.5z"/>
		</g>
		<g>
			<path class="st3" d="M27.8,37.9H16.2c-0.3,0-0.5-0.2-0.5-0.5v-0.2c0-0.3,0.2-0.5,0.5-0.5h11.7c0.3,0,0.5,0.2,0.5,0.5v0.2
				C28.3,37.7,28.1,37.9,27.8,37.9z"/>
		</g>
		<g>
			<path class="st3" d="M22.7,40.3h-6.6c-0.3,0-0.5-0.2-0.5-0.5v-0.2c0-0.3,0.2-0.5,0.5-0.5h6.6c0.3,0,0.5,0.2,0.5,0.5v0.2
				C23.2,40.1,23,40.3,22.7,40.3z"/>
		</g>
	</g>
</g>
</svg>
