<?xml version="1.0" encoding="UTF-8"?>
<svg id="Camada_1" xmlns="http://www.w3.org/2000/svg" version="1.1" viewBox="0 0 300 300">
  <!-- Generator: Adobe Illustrator 29.3.1, SVG Export Plug-In . SVG Version: 2.1.0 Build 151)  -->
  <defs>
    <style>
      .st0 {
        fill: #089b4e;
      }

      .st1 {
        fill: #54c654;
      }

      .st2 {
        opacity: .6;
      }

      .st2, .st3 {
        fill: #fff;
        isolation: isolate;
      }

      .st4 {
        fill: #ffd200;
      }

      .st5 {
        fill: #145616;
      }

      .st6 {
        fill: #008dd3;
      }

      .st7 {
        fill: #86d18f;
      }

      .st8 {
        fill: #ddd;
        stroke-miterlimit: 10;
        stroke-width: 4px;
      }

      .st8, .st9 {
        stroke: #444;
      }

      .st10 {
        fill: #d9eee4;
      }

      .st9 {
        fill: none;
        stroke-linecap: round;
        stroke-linejoin: round;
        stroke-width: 3px;
      }

      .st11 {
        fill: #f96464;
      }

      .st3 {
        opacity: .4;
      }
    </style>
  </defs>
  <g id="Camada_2">
    <path class="st6" d="M287.4,150.4c.1,20.5-4.3,40-12,57.6-21.8,49.2-70.9,83.5-128.2,83.7-15.2.1-29.9-2.3-43.6-6.7-25.8-8.2-48.4-23.8-65.3-44.2-17.6-21.1-29.1-47.5-31.8-76.5-.4-4.2-.6-8.4-.6-12.7-.2-47.8,23.5-90.2,59.8-115.7,4.8-3.4,9.7-6.4,14.8-9.1,7.3-3.9,14.8-7.1,22.8-9.7,7.5-2.4,15.2-4.2,23.2-5.3,6.4-.9,12.9-1.4,19.5-1.5,25.9-.1,50.1,6.8,71.1,18.9,3.8,2.1,7.4,4.5,10.9,7,16.8,11.9,30.8,27.3,41,45.4,1.2,2,2.2,4.1,3.3,6.2.9,1.8,1.7,3.6,2.6,5.4,2.7,6,4.9,12.1,6.8,18.4,2,7.1,3.6,14.4,4.5,21.7h0c.8,5.7,1.2,11.4,1.2,17.1Z"/>
  </g>
  <g>
    <g>
      <path class="st5" d="M265.4,268.5H57.2c-5.2,0-9.3-4.2-9.3-9.3V112.2c0-5.2,4.2-9.3,9.3-9.3h210.3c5.2,0,9.3,4.2,9.3,9.3v96l-.3,49.1c0,6.1-5,11.1-11.2,11.1Z"/>
      <path class="st10" d="M202.7,121.3H63.4v130.7h139.3V121.3ZM179.9,249.8v-22.1h20.9v22.1h-20.9ZM111.2,172.7h20.9v25.7h-20.9v-25.7ZM109.2,198.4h-20.9v-25.7h20.9v25.7ZM177.9,123.5v20.5h-20.9v-20.5h20.9ZM155,172.7v25.7h-20.9v-25.7h20.9ZM134.1,170.5v-24.3h20.9v24.3h-20.9ZM157,172.7h20.9v25.7h-20.9v-25.7ZM157,170.5v-24.3h20.9v24.3h-20.9ZM155,123.5v20.5h-20.9v-20.5h20.9ZM132.1,123.5v20.5h-20.9v-20.5h20.9ZM132.1,146.2v24.3h-20.9v-24.3h20.9ZM132.1,200.6v24.9h-20.9v-24.9h20.9ZM134.1,200.6h20.9v24.9h-20.9v-24.9ZM157,200.6h20.9v24.9h-20.9v-24.9ZM179.9,200.6h20.9v24.9h-20.9v-24.9ZM179.9,198.4v-25.7h20.9v25.7h-20.9ZM179.9,170.5v-24.3h20.9v24.3h-20.9ZM182,144l18.8-19.7v19.7h-18.8ZM179.9,143.4v-20h19.1l-19.1,20ZM109.2,123.5v20.5h-20.9v-20.5h20.9ZM109.2,146.2v24.3h-20.9v-24.3h20.9ZM86.3,170.5h-20.9v-24.3h20.9v24.3ZM86.3,172.7v25.7h-20.9v-25.7h20.9ZM86.3,200.6v24.9h-20.9v-24.9h20.9ZM88.3,200.6h20.9v24.9h-20.9v-24.9ZM109.2,227.7v22.1h-20.9v-22.1h20.9ZM111.2,227.7h20.9v22.1h-20.9v-22.1ZM134.1,227.7h20.9v22.1h-20.9v-22.1ZM157,227.7h20.9v22.1h-20.9v-22.1ZM86.3,123.5v20.5h-20.9v-20.5h20.9ZM65.4,227.7h20.9v22.1h-20.9v-22.1Z"/>
      <path class="st7" d="M292.8,77.1v170.5c0,5.2-4.2,9.3-9.3,9.3h-146.9c-5.2,0-9.3-4.2-9.3-9.3V37.3c0-5.2,4.2-9.3,9.3-9.3h96l60.3,49.1Z"/>
      <path class="st0" d="M232.5,67.7V27.9l60.3,49.1h-50.9c-5.2,0-9.3-4.2-9.3-9.3Z"/>
    </g>
    <g>
      <g>
        <path class="st4" d="M221.8,141.7c-8.3-8.3-19.8-13.4-32.5-13.4v45.9l32.5-32.5Z"/>
        <path class="st11" d="M189.4,128.2c-25.4,0-45.9,20.6-45.9,45.9s20.6,45.9,45.9,45.9,24.2-5.1,32.5-13.4l-32.5-32.5v-45.9Z"/>
        <path class="st1" d="M221.8,141.7l-32.5,32.5,32.5,32.5c8.3-8.3,13.4-19.8,13.4-32.5s-5.1-24.2-13.4-32.5Z"/>
      </g>
      <polyline class="st9" points="204.7 143.2 204.7 104.4 222.2 104.4"/>
      <polyline class="st9" points="167.4 198.2 167.4 229.5 218.6 229.5"/>
      <polyline class="st9" points="212.8 164 232.3 142 245.2 142"/>
      <g>
        <line class="st9" x1="227.8" y1="104.4" x2="242.6" y2="104.4"/>
        <line class="st9" x1="227.8" y1="110" x2="262.8" y2="110"/>
        <line class="st9" x1="227.8" y1="120.1" x2="262.8" y2="120.1"/>
        <line class="st9" x1="227.8" y1="115.1" x2="262.8" y2="115.1"/>
      </g>
      <g>
        <line class="st9" x1="139.1" y1="48.5" x2="168.2" y2="48.5"/>
        <line class="st9" x1="139.1" y1="59.4" x2="207.8" y2="59.4"/>
        <line class="st9" x1="139.1" y1="79.2" x2="207.8" y2="79.2"/>
        <line class="st9" x1="139.1" y1="69.5" x2="207.8" y2="69.5"/>
      </g>
      <g>
        <line class="st9" x1="249.9" y1="142" x2="264.8" y2="142"/>
        <line class="st9" x1="249.9" y1="147.8" x2="285" y2="147.8"/>
        <line class="st9" x1="249.9" y1="157.9" x2="285" y2="157.9"/>
        <line class="st9" x1="249.9" y1="153" x2="285" y2="153"/>
      </g>
      <g>
        <line class="st9" x1="224" y1="229" x2="238.8" y2="229"/>
        <line class="st9" x1="224" y1="234.3" x2="259" y2="234.3"/>
        <line class="st9" x1="224" y1="244.4" x2="259" y2="244.4"/>
        <line class="st9" x1="224" y1="239.5" x2="259" y2="239.5"/>
      </g>
    </g>
    <g>
      <path class="st8" d="M88.9,89.2c6.9-3.1,11.8-9.4,11.8-9.4l-19.2-14c-.3-.2-.6-.6-.6-.9h0c0-.4,0-.7.2-1.1l7.1-9.3c.3-.3.6-.5,1.1-.5h0c.3,0,.6,0,.9.3l18.8,14.4s4.2-6.8,4.7-14.4c.4-6.4,20.5,31.9,26.4,43.3.7,1.3-.3,2.9-1.8,2.6-12.8-1.9-55.4-8.4-49.4-11.1Z"/>
      <path class="st3" d="M111.9,84.6c4.1,2,11.3,4.7,14.5,6.2,3.9,1.9,6.5,3.4,7.7,4.4.6.5,0,1.3-.8,1.1-1.9-.2-5.8-.8-13.8-2.4h-.1c-3.3-.4-21.6-3.8-23.1-4.4-4.1-.5,5.7-3.5,8.3-7.8h0"/>
      <path class="st2" d="M108,86.8c2.4,1,6.5,2.2,8.5,3,2.3.9,3.8,1.5,4.5,2.1.3.3,0,.5-.5.6-1.1-.1-3.4-.4-8.1-1.2h-.1c-1.9-.2-12.5-1.8-13.5-2.1-2.4-.3,3.3-1.6,4.9-3.7h0"/>
    </g>
  </g>
</svg>