<?xml version="1.0" encoding="UTF-8"?>
<svg xmlns="http://www.w3.org/2000/svg" version="1.1" viewBox="0 0 50 50">
  <defs>
    <style>
      .cls-1, .cls-2, .cls-3 {
        fill: none;
        stroke: #444;
        stroke-linecap: round;
        stroke-linejoin: round;
      }

      .cls-4 {
        fill: #dc5e82;
      }

      .cls-2 {
        stroke-width: 2.5px;
      }

      .cls-5 {
        fill: #444;
      }

      .cls-3 {
        stroke-width: .5px;
      }
    </style>
  </defs>
  <!-- Generator: Adobe Illustrator 28.6.0, SVG Export Plug-In . SVG Version: 1.2.0 Build 709)  -->
  <g>
    <g id="Camada_3">
      <path class="cls-4" d="M47.9,18.1l.5-11-1.9-3.8-15.4.5c-3.2,0-27.8-3-27.8.2l-1.7,20.6,1.2,23.5,13.6.6,31-11c.7-.4,1.5-17.6.5-19.6Z"/>
      <path class="cls-2" d="M33,48.7H6c-1.9,0-3.4-1.6-3.4-3.5V6.3c0-1.9,1.5-3.5,3.4-3.5h39c1.9,0,3.4,1.6,3.4,3.5v32.5"/>
      <rect class="cls-3" x="20.8" y="5.9" width="8.5" height="8.5" rx="1.6" ry="1.6"/>
      <rect class="cls-3" x="34.9" y="12.2" width="8.5" height="8.5" rx="1.6" ry="1.6"/>
      <rect class="cls-3" x="6.9" y="12.2" width="8.5" height="8.5" rx="1.6" ry="1.6"/>
      <rect class="cls-3" x="6.9" y="32.1" width="8.5" height="8.5" rx="1.6" ry="1.6"/>
      <rect class="cls-3" x="35.5" y="32.1" width="8.5" height="8.5" rx="1.6" ry="1.6"/>
      <rect class="cls-3" x="19.1" y="21.2" width="11.7" height="12.5" rx="1.6" ry="1.6"/>
      <g>
        <polyline class="cls-1" points="11.1 23.3 11.1 25.6 17.8 25.6"/>
        <polygon class="cls-5" points="10.1 23.6 11.1 21.8 12.1 23.6 10.1 23.6"/>
      </g>
      <g>
        <polyline class="cls-1" points="39.8 23.3 39.8 25.6 33.1 25.6"/>
        <polygon class="cls-5" points="38.7 23.6 39.8 21.8 40.8 23.6 38.7 23.6"/>
      </g>
      <g>
        <line class="cls-1" x1="25" y1="16.5" x2="25" y2="19.9"/>
        <polygon class="cls-5" points="24 16.8 25 15 26.1 16.8 24 16.8"/>
      </g>
      <g>
        <polyline class="cls-1" points="39.8 29.7 39.8 27.3 33.1 27.3"/>
        <polygon class="cls-5" points="40.8 29.4 39.8 31.2 38.7 29.4 40.8 29.4"/>
      </g>
      <g>
        <polyline class="cls-1" points="11.1 29.7 11.1 27.3 17.8 27.3"/>
        <polygon class="cls-5" points="12.1 29.4 11.1 31.2 10.1 29.4 12.1 29.4"/>
      </g>
      <line class="cls-1" x1="20.8" y1="24.6" x2="29.2" y2="24.6"/>
      <line class="cls-1" x1="36.8" y1="15" x2="41.5" y2="15"/>
      <line class="cls-1" x1="36.8" y1="17" x2="41.5" y2="17"/>
      <line class="cls-1" x1="22.6" y1="9.1" x2="27.4" y2="9.1"/>
      <line class="cls-1" x1="22.6" y1="11.1" x2="27.4" y2="11.1"/>
      <line class="cls-1" x1="8.7" y1="15.4" x2="13.5" y2="15.4"/>
      <line class="cls-1" x1="8.7" y1="17.4" x2="13.5" y2="17.4"/>
      <line class="cls-1" x1="8.7" y1="35.7" x2="13.5" y2="35.7"/>
      <line class="cls-1" x1="8.7" y1="37.7" x2="13.5" y2="37.7"/>
      <line class="cls-1" x1="37.4" y1="35.3" x2="42.1" y2="35.3"/>
      <line class="cls-1" x1="37.4" y1="37.3" x2="42.1" y2="37.3"/>
      <line class="cls-1" x1="20.8" y1="26.5" x2="29.2" y2="26.5"/>
      <line class="cls-1" x1="20.8" y1="28.4" x2="29.2" y2="28.4"/>
      <line class="cls-1" x1="20.8" y1="30.3" x2="29.2" y2="30.3"/>
    </g>
  </g>
</svg>