<svg xmlns="http://www.w3.org/2000/svg" id="Layer_1" x="0" y="0" version="1.1" viewBox="0 0 50 50" xml:space="preserve"><style>.st2{fill:none;stroke:#444;stroke-linecap:round;stroke-miterlimit:10}.st2,.st3{stroke-linejoin:round}.st3,.st5{fill:none;stroke:#444;stroke-width:.5;stroke-linecap:round;stroke-miterlimit:10}</style><path fill="#dc5e82" d="M44.6 12.4L39 8.8l-7.7-4.4-6-2.8c-3.2 0-21.5 8.9-21.5 12.1l-.5 7.8.5 15.1 11.5 7.6 31-11c.9-.5-.7-18.8-1.7-20.8z"/><path fill="none" stroke="#444" stroke-linecap="round" stroke-linejoin="round" stroke-miterlimit="10" stroke-width="2.5" d="M29.9 46.5l-2.2 1.3c-1.7 1-3.8 1-5.5 0l-15.6-9C5 37.8 3.9 36 3.9 34V16c0-2 1-3.8 2.7-4.7l15.6-9c1.7-1 3.8-1 5.5 0l15.6 9c1.7 1 2.7 2.8 2.7 4.7v18c0 2-1 3.8-2.7 4.7l-2.5 1.4"/><path d="M36.3 33.1v4.4c0 .5-.4.9-.9.9H14.1m0-15.8c-1.3 0-2.3-.6-2.3-1.4 0-.8 1-1.4 2.3-1.4m0 18.6c-1.3 0-2.3-.6-2.3-1.4m0 0V21.7m2.3-1.8h9.2m12.1 2.7v-1.9c0-.5-.4-.9-.9-.9h-2.6" class="st2"/><circle cx="31.2" cy="30.5" r=".9" class="st3"/><path d="M29.9 28.2h6.4m.5-1.9h.5c.5 0 .9.4.9.9v4.6c0 .5-.4.9-.9.9H30c-.6 0-1.1-.5-1.1-1.1v-2.5c0-.6.5-1.1 1.1-1.1" class="st3"/><path fill="#dc5e82" stroke="#444" stroke-linecap="round" stroke-linejoin="round" stroke-miterlimit="10" stroke-width=".5" d="M32.8 22.6l-1.9-5.5-16.2 5.5"/><path d="M26.3 17.4v-2.2l2.1-1.8m-3.7 4v-5m-1.5 5V15L21 13.1" class="st5"/><circle cx="29.5" cy="12.6" r="1.3" class="st5"/><circle cx="24.7" cy="10.7" r="1.4" class="st5"/><circle cx="20" cy="12.3" r="1.3" class="st5"/><path d="M14.1 22.6h21.3c.5 0 .9.4.9.9V28" class="st2"/></svg>