<?xml version="1.0" encoding="utf-8"?>
<!-- Generator: Adobe Illustrator 27.5.0, SVG Export Plug-In . SVG Version: 6.00 Build 0)  -->
<svg version="1.1" id="Camada_3" xmlns="http://www.w3.org/2000/svg" xmlns:xlink="http://www.w3.org/1999/xlink" x="0px" y="0px"
	 viewBox="0 0 50 50" style="enable-background:new 0 0 50 50;" xml:space="preserve">
<style type="text/css">
	.st0{fill:#E5E5E5;}
	.st1{fill:#B68AF3;}
</style>
<g>
	<path class="st0" d="M37.7,46.7c0.1-0.1,0.2-0.2,0.3-0.3c0,0,0.1-0.1,0.1-0.2c0.1-0.1,0.1-0.2,0.2-0.3c0-0.1,0.1-0.1,0.1-0.2
		c0.1-0.1,0.1-0.2,0.1-0.4c0-0.1,0-0.1,0-0.2c0-0.2,0.1-0.4,0.1-0.6v0V43c0-0.8-0.4-1.6-1-2.2c-0.6-0.5-1.5-0.8-2.3-0.6
		c-1.2,0.2-3.2,0.4-5.4,0.4c-2.2,0-4.1-0.2-5.4-0.4c-0.8-0.1-1.7,0.1-2.3,0.6c-0.6,0.5-1,1.3-1,2.2v1.6v0c0,0.2,0,0.4,0.1,0.6
		c0,0.1,0,0.1,0,0.2c0,0.1,0.1,0.3,0.1,0.4c0,0.1,0.1,0.1,0.1,0.2c0.1,0.1,0.1,0.2,0.2,0.3c0,0.1,0.1,0.1,0.1,0.2
		c0.1,0.1,0.2,0.2,0.3,0.3c0,0,0,0.1,0.1,0.1c-0.1,0.2-0.1,0.5-0.1,0.7h4.4c0.3-0.2,0.5-0.5,0.5-0.9c0.1-0.7-0.4-1.3-1.1-1.4
		c-0.7-0.1-1.4-0.2-1.9-0.3c-0.2,0-0.4-0.2-0.4-0.4V43c0-0.2,0.1-0.3,0.2-0.3c0,0,0.1,0,0.1-0.1c0,0,0,0,0.1,0c0.1,0,0.1,0,0.2,0
		c1.3,0.2,3.4,0.5,5.8,0.5c0.3,0,0.6,0,0.9,0c2-0.1,3.7-0.3,4.9-0.5c0.2,0,0.3,0,0.4,0.1c0.1,0.1,0.2,0.2,0.2,0.3v1.6
		c0,0.2-0.2,0.4-0.4,0.4c-0.5,0.1-1.2,0.2-1.9,0.3c-0.7,0.1-1.1,0.7-1.1,1.4c0,0.4,0.3,0.7,0.5,0.9h4.3C37.8,47.3,37.7,47,37.7,46.7
		C37.7,46.8,37.7,46.7,37.7,46.7z"/>
	<g>
		<path class="st0" d="M40.7,8.9c-3.4-3.1-8-4.5-12.6-4c-7.6,0.8-13.6,7-14.3,14.5c-0.4,4.2,1,8.5,4,12.3c1.9,2.4,2.8,4.4,3.1,6.8
			c0.1,0.6,0.6,1.1,1.2,1.1c0,0,0.1,0,0.2,0c0.7-0.1,1.1-0.7,1.1-1.4c-0.4-2.8-1.4-5.2-3.6-8c-2.7-3.4-3.9-6.9-3.5-10.6
			C16.8,13.2,21.9,8,28.4,7.3c4-0.4,7.8,0.8,10.8,3.4c2.9,2.6,4.6,6.3,4.6,10.3c0,3.2-1.2,6.3-3.5,9.2c-2.3,2.9-3.4,5.2-3.7,8
			c0,0,0,0.1,0,0.2c0,0.7,0.5,1.2,1.2,1.2c0.6,0,1.1-0.5,1.2-1.1c0.3-2.4,1.2-4.3,3.2-6.8c2.7-3.4,4.1-7,4.1-10.7
			C46.1,16.4,44.2,12,40.7,8.9z"/>
		<g>
			<path class="st1" d="M32.9,46.7c-0.1-0.7,0.4-1.3,1.1-1.4c0.7-0.1,1.4-0.2,1.9-0.3c0.2,0,0.4-0.2,0.4-0.4V43
				c0-0.2-0.1-0.3-0.2-0.3c-0.1,0-0.2-0.1-0.4-0.1c-1.2,0.2-2.9,0.4-4.9,0.5c-0.3,0-0.6,0-0.9,0c-2.3,0-4.4-0.3-5.8-0.5
				c-0.1,0-0.1,0-0.2,0c0,0-0.1,0-0.1,0c0,0-0.1,0-0.1,0.1c-0.1,0.1-0.2,0.2-0.2,0.3v1.6c0,0.2,0.2,0.4,0.4,0.4
				c0.5,0.1,1.2,0.2,1.9,0.3c0.7,0.1,1.1,0.7,1.1,1.4c0,0.4-0.3,0.7-0.5,0.9h7C33.1,47.3,32.9,47,32.9,46.7z"/>
			<path class="st1" d="M41.8,2.6H8C5,2.6,2.5,5.1,2.5,8.2v31.3v2.5C2.5,45,5,47.5,8,47.5h0h14c0-0.3,0.1-0.5,0.1-0.7
				c0,0,0-0.1-0.1-0.1c-0.1-0.1-0.2-0.2-0.3-0.3c0-0.1-0.1-0.1-0.1-0.2c-0.1-0.1-0.1-0.2-0.2-0.3c0-0.1-0.1-0.1-0.1-0.2
				c-0.1-0.1-0.1-0.2-0.1-0.4c0-0.1,0-0.1,0-0.2c0-0.2-0.1-0.4-0.1-0.6v0V43c0-0.8,0.4-1.6,1-2.2c0.6-0.5,1.5-0.8,2.3-0.6
				c1.2,0.2,3.2,0.4,5.4,0.4c2.2,0,4.1-0.2,5.4-0.4c0.8-0.1,1.7,0.1,2.3,0.6c0.6,0.5,1,1.3,1,2.2v1.6v0c0,0.2,0,0.4-0.1,0.6
				c0,0.1,0,0.1,0,0.2c0,0.1-0.1,0.3-0.1,0.4c0,0.1-0.1,0.1-0.1,0.2c-0.1,0.1-0.1,0.2-0.2,0.3c0,0.1-0.1,0.1-0.1,0.2
				c-0.1,0.1-0.2,0.2-0.3,0.3c0,0,0,0,0,0c0.1,0.2,0.1,0.5,0.1,0.8h4h0c1,0,1.9-0.2,2.7-0.7c1.7-0.9,2.9-2.8,2.9-4.9V23.7V8.2
				C47.3,5.1,44.8,2.6,41.8,2.6z M33.9,38.4c0,0.3-0.3,0.6-0.6,0.6c0,0,0,0,0,0c-0.3,0-0.6-0.3-0.6-0.6c0-8.7,0.5-11.9,1.8-14.1
				c-1.2,0.2-2.7,0.1-4.5-0.9c-1.8,1-3.4,1.1-4.5,0.9c1.3,2.2,1.8,5.4,1.8,13.9c0,0.3-0.3,0.6-0.6,0.6c0,0,0,0,0,0
				c-0.3,0-0.6-0.3-0.6-0.6c0-11.5-0.9-12.9-3.1-15.1c-0.2-0.2-0.3-0.6,0-0.9c0.2-0.2,0.6-0.3,0.8,0c0.4,0.4,2.5,2,5.9-0.1
				c0,0,0.1,0,0.1,0c0,0,0.1,0,0.1,0c0,0,0.1,0,0.1,0c0,0,0.1,0,0.1,0c0,0,0.1,0,0.1,0c0,0,0.1,0,0.1,0c3.4,2.1,5.5,0.5,5.9,0.1
				c0.2-0.2,0.6-0.2,0.9,0c0.2,0.2,0.2,0.6,0,0.8C34.8,25.3,33.9,26.7,33.9,38.4z M42.1,31.7c-2,2.5-2.9,4.4-3.2,6.8
				c-0.1,0.6-0.6,1.1-1.2,1.1c-0.7,0-1.2-0.5-1.2-1.2c0,0,0-0.1,0-0.2c0.3-2.8,1.4-5.2,3.7-8c2.3-2.9,3.5-6,3.5-9.2
				c0-3.9-1.7-7.6-4.6-10.3c-3-2.6-6.8-3.9-10.8-3.4C21.9,8,16.8,13.2,16.2,19.6c-0.3,3.7,0.8,7.2,3.5,10.6c2.2,2.8,3.3,5.2,3.6,8
				c0.1,0.7-0.4,1.3-1.1,1.4c0,0-0.1,0-0.2,0c-0.6,0-1.1-0.5-1.2-1.1c-0.3-2.4-1.2-4.4-3.1-6.8c-3-3.8-4.4-8.1-4-12.3
				c0.7-7.6,6.7-13.7,14.3-14.5c4.6-0.5,9.2,1,12.6,4c3.4,3.1,5.4,7.5,5.4,12.1C46.1,24.7,44.8,28.3,42.1,31.7z"/>
		</g>
		<path class="st0" d="M37,22.3c-0.2-0.2-0.6-0.2-0.9,0c-0.4,0.3-2.5,1.9-5.9-0.1c0,0-0.1,0-0.1,0c0,0-0.1,0-0.1,0c0,0-0.1,0-0.1,0
			c0,0-0.1,0-0.1,0c0,0-0.1,0-0.1,0c0,0-0.1,0-0.1,0c-3.4,2.1-5.5,0.5-5.9,0.1c-0.2-0.2-0.6-0.2-0.8,0c-0.2,0.2-0.2,0.6,0,0.9
			c2.2,2.2,3.1,3.6,3.1,15.1c0,0.3,0.3,0.6,0.6,0.6c0,0,0,0,0,0c0.3,0,0.6-0.3,0.6-0.6c0-8.5-0.5-11.7-1.8-13.9
			c1.2,0.2,2.7,0.1,4.5-0.9c1.8,1,3.4,1.1,4.5,0.9c-1.3,2.2-1.8,5.4-1.8,14.1c0,0.3,0.3,0.6,0.6,0.6c0,0,0,0,0,0
			c0.3,0,0.6-0.3,0.6-0.6c0-11.7,0.9-13,3.2-15.3C37.3,22.8,37.2,22.5,37,22.3z"/>
	</g>
</g>
</svg>
