<?xml version="1.0" encoding="utf-8"?>
<!-- Generator: Adobe Illustrator 27.5.0, SVG Export Plug-In . SVG Version: 6.00 Build 0)  -->
<svg version="1.1" id="Camada_3" xmlns="http://www.w3.org/2000/svg" xmlns:xlink="http://www.w3.org/1999/xlink" x="0px" y="0px"
	 viewBox="0 0 50 50" style="enable-background:new 0 0 50 50;" xml:space="preserve">
<style type="text/css">
	.st0{fill:#8C47DF;}
	.st1{fill:#C6A8EE;}
</style>
<g>
	<g>
		<g>
			<path class="st0" d="M43.8,41.6c0-1.5-1.2-2.7-2.7-2.7c-1.5,0-2.7,1.2-2.7,2.7c0,1.5,1.2,2.7,2.7,2.7
				C42.6,44.3,43.8,43.1,43.8,41.6z"/>
		</g>
		<g>
			<g>
				<g>
					<g>
						<path class="st0" d="M9.9,41.8h20c0.6,0,1.1,0.5,1.1,1.1c0,0.6-0.5,1.1-1.1,1.1H8.8c-0.6,0-1.1-0.5-1.1-1.1V17.2v-5.3
							c0-2.1,1.7-3.8,3.8-3.8h35.1V7.8c0-3.1-2.5-5.6-5.6-5.6H7.2c-3.1,0-5.6,2.5-5.6,5.6V39v2.5c0,3.1,2.5,5.6,5.6,5.6h0h28.1
							c-0.4-0.4-0.7-0.8-1-1.3L33,46.1l-0.2-0.4c-0.6-1.3-0.9-2.6-0.9-4l0-0.6l0.4-0.2l0.9-0.2c0.1-0.6,0.2-1.2,0.4-1.8l-1.1-0.9
							l0.2-0.4c0.6-1.3,1.5-2.4,2.7-3.3l0.4-0.3L37,35c0.5-0.3,1-0.6,1.6-0.8v-1.4l0.4-0.1c0.7-0.2,1.4-0.3,2.1-0.3c0,0,0,0,0,0
							c0.7,0,1.4,0.1,2.1,0.3l0.4,0.1v1.4c0.6,0.2,1.1,0.5,1.6,0.8l1.1-0.9l0.2,0.2v-11v-4.9H9.9V41.8z M17.4,29.8
							c0.6,0,1.1,0.3,1.4,0.6l2.7-1.2c0-0.1,0-0.1,0-0.2c0-1,0.8-1.9,1.9-1.9s1.9,0.8,1.9,1.9c0,0,0,0,0,0l2.5,0.8
							c0.3-0.5,0.9-0.8,1.5-0.8c0.4,0,0.8,0.1,1.1,0.3l3.1-2.4c-0.1-0.2-0.1-0.4-0.1-0.7c0-1,0.8-1.9,1.9-1.9c0.7,0,1.3,0.4,1.6,0.9
							l2.4-0.5c0.1-1,0.9-1.7,1.9-1.7c1,0,1.9,0.8,1.9,1.9S42.1,27,41.1,27c-0.7,0-1.3-0.4-1.6-0.9L37,26.6c-0.1,1-0.9,1.7-1.9,1.7
							c-0.4,0-0.8-0.1-1.1-0.3L31,30.4c0.1,0.2,0.1,0.4,0.1,0.7c0,1-0.8,1.9-1.9,1.9s-1.9-0.8-1.9-1.9c0,0,0,0,0,0l-2.5-0.8
							c-0.3,0.5-0.9,0.8-1.5,0.8c-0.6,0-1.1-0.3-1.4-0.6l-2.7,1.2c0,0.1,0,0.1,0,0.2c0,1-0.8,1.9-1.9,1.9c-1,0-1.9-0.8-1.9-1.9
							S16.3,29.8,17.4,29.8z"/>
					</g>
				</g>
				<g>
					<g>
						<path class="st0" d="M9.9,11.9v4.1h36.6v-5.7H11.4C10.6,10.4,9.9,11.1,9.9,11.9z M24.6,11.4c1,0,1.9,0.8,1.9,1.9
							s-0.8,1.9-1.9,1.9s-1.9-0.8-1.9-1.9S23.6,11.4,24.6,11.4z M19.3,11.4c1,0,1.9,0.8,1.9,1.9s-0.8,1.9-1.9,1.9s-1.9-0.8-1.9-1.9
							S18.3,11.4,19.3,11.4z M14.1,11.4c1,0,1.9,0.8,1.9,1.9s-0.8,1.9-1.9,1.9s-1.9-0.8-1.9-1.9S13,11.4,14.1,11.4z"/>
					</g>
				</g>
				<g>
					<g>
						<path class="st0" d="M40.9,47.1c1,0,1.9-0.2,2.7-0.7c1.7-0.9,2.9-2.8,2.9-4.9v-5.7c-0.1-0.1-0.1-0.1-0.2-0.2l-1,0.8l-0.4-0.3
							c-0.6-0.4-1.3-0.8-2-1l-0.4-0.1v-1.3c-1-0.2-1.9-0.2-2.8,0v1.3l-0.4,0.1c-0.7,0.2-1.4,0.5-2,1l-0.4,0.3l-1-0.8
							c-0.7,0.6-1.3,1.4-1.8,2.2l1,0.8l-0.2,0.4c-0.3,0.7-0.5,1.4-0.5,2.2l0,0.4L33.1,42c0,1,0.2,1.9,0.6,2.8l1.3-0.3l0.2,0.4
							c0.3,0.7,0.8,1.3,1.4,1.8l0.3,0.3l0,0.1H40.9L40.9,47.1z M37.2,41.6c0-2.1,1.7-3.9,3.9-3.9c2.1,0,3.9,1.7,3.9,3.9
							c0,2.1-1.7,3.9-3.9,3.9C39,45.5,37.2,43.7,37.2,41.6z"/>
					</g>
				</g>
				<g>
					<path class="st0" d="M14.1,14c0.4,0,0.8-0.3,0.8-0.8s-0.3-0.8-0.8-0.8c-0.4,0-0.8,0.3-0.8,0.8S13.6,14,14.1,14z"/>
				</g>
				<g>
					<circle class="st0" cx="24.6" cy="13.3" r="0.8"/>
				</g>
				<g>
					<circle class="st0" cx="19.3" cy="13.3" r="0.8"/>
				</g>
				<g>
					<path class="st0" d="M17.4,32.5c0.4,0,0.8-0.3,0.8-0.8c0-0.4-0.3-0.8-0.8-0.8c-0.4,0-0.8,0.3-0.8,0.8
						C16.6,32.1,16.9,32.5,17.4,32.5z"/>
				</g>
				<g>
					<path class="st0" d="M29.2,31.8c0.4,0,0.8-0.3,0.8-0.8s-0.3-0.8-0.8-0.8s-0.8,0.3-0.8,0.8S28.8,31.8,29.2,31.8z"/>
				</g>
				<g>
					<path class="st0" d="M35.2,27.2c0.4,0,0.8-0.3,0.8-0.8c0-0.4-0.3-0.8-0.8-0.8c-0.4,0-0.8,0.3-0.8,0.8
						C34.4,26.9,34.7,27.2,35.2,27.2z"/>
				</g>
				<g>
					<path class="st0" d="M23.3,29.8c0.4,0,0.8-0.3,0.8-0.8s-0.3-0.8-0.8-0.8s-0.8,0.3-0.8,0.8S22.9,29.8,23.3,29.8z"/>
				</g>
				<g>
					<path class="st0" d="M41.1,25.9c0.4,0,0.8-0.3,0.8-0.8c0-0.4-0.3-0.8-0.8-0.8c-0.4,0-0.8,0.3-0.8,0.8
						C40.3,25.5,40.7,25.9,41.1,25.9z"/>
				</g>
			</g>
		</g>
	</g>
</g>
<g>
	<g>
		<path class="st1" d="M14.1,15.1c1,0,1.9-0.8,1.9-1.9s-0.8-1.9-1.9-1.9s-1.9,0.8-1.9,1.9S13,15.1,14.1,15.1z M14.1,12.5
			c0.4,0,0.8,0.3,0.8,0.8S14.5,14,14.1,14c-0.4,0-0.8-0.3-0.8-0.8S13.6,12.5,14.1,12.5z"/>
		<path class="st1" d="M19.3,15.1c1,0,1.9-0.8,1.9-1.9s-0.8-1.9-1.9-1.9s-1.9,0.8-1.9,1.9S18.3,15.1,19.3,15.1z M19.3,12.5
			c0.4,0,0.8,0.3,0.8,0.8S19.7,14,19.3,14s-0.8-0.3-0.8-0.8S18.9,12.5,19.3,12.5z"/>
		<path class="st1" d="M24.6,15.1c1,0,1.9-0.8,1.9-1.9s-0.8-1.9-1.9-1.9s-1.9,0.8-1.9,1.9S23.6,15.1,24.6,15.1z M24.6,12.5
			c0.4,0,0.8,0.3,0.8,0.8S25,14,24.6,14s-0.8-0.3-0.8-0.8S24.2,12.5,24.6,12.5z"/>
		<path class="st1" d="M9.9,16.1v-4.1c0-0.8,0.7-1.5,1.5-1.5h35.1V8.2H11.4c-2.1,0-3.8,1.7-3.8,3.8v5.3v25.7c0,0.6,0.5,1.1,1.1,1.1
			h21.1c0.6,0,1.1-0.5,1.1-1.1c0-0.6-0.5-1.1-1.1-1.1h-20V18.3h36.6v-2.3H9.9z"/>
		<path class="st1" d="M17.4,33.6c1,0,1.9-0.8,1.9-1.9c0-0.1,0-0.1,0-0.2l2.7-1.2c0.3,0.4,0.8,0.6,1.4,0.6c0.6,0,1.2-0.3,1.5-0.8
			l2.5,0.8c0,0,0,0,0,0c0,1,0.8,1.9,1.9,1.9s1.9-0.8,1.9-1.9c0-0.2,0-0.4-0.1-0.7l3.1-2.4c0.3,0.2,0.7,0.3,1.1,0.3
			c1,0,1.8-0.8,1.9-1.7l2.4-0.5c0.3,0.6,0.9,0.9,1.6,0.9c1,0,1.9-0.8,1.9-1.9s-0.8-1.9-1.9-1.9c-1,0-1.8,0.8-1.9,1.7l-2.4,0.5
			c-0.3-0.6-0.9-0.9-1.6-0.9c-1,0-1.9,0.8-1.9,1.9c0,0.2,0,0.4,0.1,0.7l-3.1,2.4c-0.3-0.2-0.7-0.3-1.1-0.3c-0.6,0-1.2,0.3-1.5,0.8
			l-2.5-0.8c0,0,0,0,0,0c0-1-0.8-1.9-1.9-1.9s-1.9,0.8-1.9,1.9c0,0.1,0,0.1,0,0.2l-2.7,1.2c-0.3-0.4-0.8-0.6-1.4-0.6
			c-1,0-1.9,0.8-1.9,1.9S16.3,33.6,17.4,33.6z M41.1,24.4c0.4,0,0.8,0.3,0.8,0.8c0,0.4-0.3,0.8-0.8,0.8c-0.4,0-0.8-0.3-0.8-0.8
			C40.3,24.7,40.7,24.4,41.1,24.4z M35.2,25.7c0.4,0,0.8,0.3,0.8,0.8c0,0.4-0.3,0.8-0.8,0.8c-0.4,0-0.8-0.3-0.8-0.8
			C34.4,26,34.7,25.7,35.2,25.7z M29.2,30.3c0.4,0,0.8,0.3,0.8,0.8s-0.3,0.8-0.8,0.8s-0.8-0.3-0.8-0.8S28.8,30.3,29.2,30.3z
			 M23.3,28.3c0.4,0,0.8,0.3,0.8,0.8s-0.3,0.8-0.8,0.8s-0.8-0.3-0.8-0.8S22.9,28.3,23.3,28.3z M17.4,31c0.4,0,0.8,0.3,0.8,0.8
			c0,0.4-0.3,0.8-0.8,0.8c-0.4,0-0.8-0.3-0.8-0.8C16.6,31.3,16.9,31,17.4,31z"/>
		<path class="st1" d="M45.2,35c-0.5-0.3-1-0.6-1.6-0.8v-1.4l-0.4-0.1c-0.7-0.2-1.4-0.3-2.1-0.3c0,0,0,0,0,0c-0.7,0-1.4,0.1-2.1,0.3
			l-0.4,0.1v1.4C38,34.4,37.5,34.7,37,35l-1.1-0.9l-0.4,0.3c-1.1,0.9-2,2-2.7,3.3l-0.2,0.4l1.1,0.9c-0.2,0.6-0.3,1.2-0.4,1.8
			L32.4,41L32,41.2l0,0.6c0,1.4,0.3,2.7,0.9,4l0.2,0.4l1.4-0.3c0.3,0.5,0.6,0.9,1,1.3h1.5l0-0.1l-0.3-0.3c-0.6-0.5-1-1.1-1.4-1.8
			L35,44.5l-1.3,0.3c-0.4-0.9-0.6-1.8-0.6-2.8l1.3-0.3l0-0.4c0.1-0.8,0.2-1.5,0.5-2.2l0.2-0.4l-1-0.8c0.5-0.8,1.1-1.6,1.8-2.2l1,0.8
			l0.4-0.3c0.6-0.4,1.3-0.8,2-1l0.4-0.1v-1.3c0.9-0.2,1.9-0.2,2.8,0v1.3l0.4,0.1c0.7,0.2,1.4,0.5,2,1l0.4,0.3l1-0.8
			c0.1,0.1,0.1,0.1,0.2,0.2v-1.5l-0.2-0.2L45.2,35z"/>
		<path class="st1" d="M44.9,41.6c0-2.1-1.7-3.9-3.9-3.9c-2.1,0-3.9,1.7-3.9,3.9c0,2.1,1.7,3.9,3.9,3.9
			C43.2,45.5,44.9,43.7,44.9,41.6z M38.4,41.6c0-1.5,1.2-2.7,2.7-2.7c1.5,0,2.7,1.2,2.7,2.7c0,1.5-1.2,2.7-2.7,2.7
			C39.6,44.3,38.4,43.1,38.4,41.6z"/>
	</g>
</g>
</svg>
