<svg xmlns="http://www.w3.org/2000/svg" id="Camada_3" x="0" y="0" version="1.1" viewBox="0 0 50 50" xml:space="preserve"><style>.st0{fill:#a169e9}.st1{fill:#d5c7ea}</style><path d="M13.9 17.8l4-1.3c.1 0 .1-.1.2-.2l1.3-4c0-.1 0-.2-.1-.3l-4.8-4.8c-.1-.1-.1-.1-.2-.1h-.1s-.1 0-.2.2l-1.1 3.2c-.1.4-.4.7-.8.8l-3.2 1.1c-.1 0-.2.1-.2.2s0 .1.1.2l4.8 4.8c.1.2.2.2.3.2z" class="st0"/><path d="M8.7 28.4c0-3 .6-5.9 1.8-8.6.2-.5.8-.7 1.3-.5.5.2.7.8.5 1.3-1.1 2.4-1.6 5-1.6 7.8 0 9.3 6.7 17.1 15.6 18.8h7.1c6.7-1.3 12.2-6 14.5-12.3v-13c-2.7-7.4-9.7-12.7-18-12.7-2.7 0-5.3.6-7.7 1.6-.5.2-1.1 0-1.3-.5-.2-.5 0-1.1.5-1.3C24.1 7.8 27 7.2 30 7.2c7.6 0 14.3 4.1 18 10.1V7.9c0-3.1-2.5-5.6-5.6-5.6H8.6C5.5 2.3 3 4.8 3 7.9v33.8c0 3.1 2.5 5.6 5.6 5.6h11.7C13.4 43.6 8.7 36.5 8.7 28.4zm14.1-11.7c2.1-1.3 4.6-2 7.1-2 7.5 0 13.7 6.1 13.7 13.7S37.4 42 29.9 42s-13.7-6.1-13.7-13.7c0-2.5.7-5 2-7.1.3-.5.9-.6 1.4-.3.5.3.6.9.3 1.4-1.1 1.8-1.7 3.9-1.7 6.1 0 6.4 5.2 11.7 11.7 11.7s11.7-5.2 11.7-11.7-5.2-11.7-11.7-11.7c-2.2 0-4.3.6-6.1 1.7-.5.3-1.1.1-1.4-.3-.3-.5-.1-1.1.4-1.4zm7.1 15.9c2.3 0 4.2-1.9 4.2-4.2s-1.9-4.2-4.2-4.2c-.2 0-.5 0-.7.1-.5.1-1.1-.3-1.2-.8-.1-.5.3-1.1.8-1.2 3.9-.7 7.3 2.3 7.3 6.1 0 3.4-2.8 6.2-6.2 6.2s-6.2-2.8-6.2-6.2c0-.4 0-.7.1-1.1.1-.5.6-.9 1.2-.8.5.1.9.6.8 1.2 0 .3-.1.5-.1.7 0 2.3 1.9 4.2 4.2 4.2zm-21.8-19c-.3-.3-.4-.7-.3-1.2.1-.4.4-.8.8-.9l3.2-1.1c.1 0 .1-.1.2-.2L13.1 7c.1-.4.5-.7.9-.8.4-.1.9 0 1.2.3l4.8 4.8c.3.3.5.8.3 1.3l-1.3 4v.1L30.2 28c.2.2.2.5 0 .7-.1.1-.2.1-.4.1s-.3 0-.4-.1L18.2 17.4h-.1l-4 1.3c-.1 0-.3.1-.4.1-.3 0-.6-.1-.9-.4l-4.7-4.8zm31.4 33.6h2.8c1 0 1.9-.2 2.7-.7 1.7-.9 2.9-2.8 2.9-4.9v-2.2c-2 3.3-4.9 6-8.4 7.8z" class="st0"/><path d="M29.9 7.2c-3 0-5.9.6-8.6 1.8-.5.2-.7.8-.5 1.3.2.5.8.7 1.3.5 2.4-1.1 5-1.6 7.7-1.6 8.3 0 15.3 5.3 18 12.7v-4.6c-3.6-6-10.3-10.1-17.9-10.1zm18 32.2v-4.6c-2.3 6.3-7.7 11.1-14.5 12.3h6.1c3.5-1.7 6.4-4.4 8.4-7.7zm-37.2-11c0-2.7.6-5.3 1.6-7.8.2-.5 0-1.1-.5-1.3-.5-.2-1.1 0-1.3.5-1.2 2.7-1.8 5.6-1.8 8.6 0 8.2 4.7 15.3 11.5 18.8h6.1c-8.8-1.7-15.6-9.5-15.6-18.8z" class="st1"/><path d="M23.8 18.4c1.8-1.1 3.9-1.7 6.1-1.7 6.4 0 11.7 5.2 11.7 11.7S36.3 40 29.9 40s-11.7-5.2-11.7-11.7c0-2.2.6-4.3 1.7-6.1.3-.5.1-1.1-.3-1.4-.5-.3-1.1-.1-1.4.3-1.3 2.1-2 4.6-2 7.1 0 7.5 6.1 13.7 13.7 13.7s13.7-6.1 13.7-13.7-6.1-13.7-13.7-13.7c-2.5 0-5 .7-7.1 2-.5.3-.6.9-.3 1.4.2.6.8.8 1.3.5z" class="st1"/><path d="M24.9 26.5c-.5-.1-1.1.3-1.2.8-.1.4-.1.7-.1 1.1 0 3.4 2.8 6.2 6.2 6.2s6.2-2.8 6.2-6.2c0-3.8-3.4-6.8-7.3-6.1-.5.1-.9.6-.8 1.2.1.5.6.9 1.2.8.3 0 .5-.1.7-.1 2.3 0 4.2 1.9 4.2 4.2s-1.9 4.2-4.2 4.2c-2.3 0-4.2-1.9-4.2-4.2 0-.2 0-.5.1-.7.1-.6-.2-1.2-.8-1.2z" class="st1"/><path d="M13.8 18.8c.1 0 .3 0 .4-.1l4-1.3h.1l11.3 11.3c.1.1.2.1.4.1s.3 0 .4-.1c.2-.2.2-.5 0-.7L18.9 16.7v-.1l1.3-4c.1-.5 0-.9-.3-1.3l-4.8-4.8c-.3-.3-.7-.4-1.2-.3-.4.1-.8.4-.9.8l-1 3.3c0 .1-.1.1-.2.2l-3.2 1.1c-.4.1-.7.5-.8.9-.1.4 0 .9.3 1.2l4.8 4.8c.3.2.6.3.9.3zm-5.1-6.1s0-.1.2-.2l3.2-1.1c.4-.1.7-.4.8-.8L14 7.4c0-.1.1-.2.2-.2h.1s.1 0 .2.1l4.8 4.8c.1.1.1.2.1.3l-1.3 4c0 .1-.1.1-.2.2l-4 1.3c-.1 0-.2 0-.3-.1L8.8 13c-.1-.2-.1-.3-.1-.3z" class="st1"/></svg>