<?xml version="1.0" encoding="utf-8"?>
<!-- Generator: Adobe Illustrator 27.5.0, SVG Export Plug-In . SVG Version: 6.00 Build 0)  -->
<svg version="1.1" id="Camada_3" xmlns="http://www.w3.org/2000/svg" xmlns:xlink="http://www.w3.org/1999/xlink" x="0px" y="0px"
	 viewBox="0 0 50 50" style="enable-background:new 0 0 50 50;" xml:space="preserve">
<style type="text/css">
	.st0{fill:#7726D5;}
	.st1{fill:#B68AF3;}
</style>
<g>
	<g>
		<g>
			<path class="st0" d="M32.7,47.9c-0.1-0.7,0.4-1.3,1.1-1.4c0.7-0.1,1.4-0.2,1.9-0.3c0.2,0,0.4-0.2,0.4-0.4v-1.6
				c0-0.2-0.1-0.3-0.2-0.3c-0.1,0-0.2-0.1-0.4-0.1c-1.2,0.2-2.9,0.4-4.9,0.5c-0.3,0-0.6,0-0.9,0c-2.3,0-4.4-0.3-5.8-0.5
				c-0.1,0-0.1,0-0.2,0c0,0-0.1,0-0.1,0c0,0-0.1,0-0.1,0.1c-0.1,0.1-0.2,0.2-0.2,0.3v1.6c0,0.2,0.2,0.4,0.4,0.4
				c0.5,0.1,1.2,0.2,1.9,0.3c0.7,0.1,1.1,0.7,1.1,1.4c0,0.4-0.3,0.7-0.5,0.9h7C33,48.6,32.8,48.3,32.7,47.9z"/>
		</g>
		<g>
			<g>
				<path class="st0" d="M41.6,3.9H7.9c-3.1,0-5.6,2.5-5.6,5.6v31.3v2.5c0,3.1,2.5,5.6,5.6,5.6h0h14c0-0.3,0.1-0.5,0.1-0.7
					c0,0,0-0.1-0.1-0.1c-0.1-0.1-0.2-0.2-0.3-0.3c0-0.1-0.1-0.1-0.1-0.2c-0.1-0.1-0.1-0.2-0.2-0.3c0-0.1-0.1-0.1-0.1-0.2
					c-0.1-0.1-0.1-0.2-0.1-0.4c0-0.1,0-0.1,0-0.2c0-0.2-0.1-0.4-0.1-0.6v0v-1.6c0-0.8,0.4-1.6,1-2.2c0.6-0.5,1.5-0.8,2.3-0.6
					c1.2,0.2,3.2,0.4,5.4,0.4c2.2,0,4.1-0.2,5.4-0.4c0.8-0.1,1.7,0.1,2.3,0.6c0.6,0.5,1,1.3,1,2.2v1.6v0c0,0.2,0,0.4-0.1,0.6
					c0,0.1,0,0.1,0,0.2c0,0.1-0.1,0.3-0.1,0.4c0,0.1-0.1,0.1-0.1,0.2c-0.1,0.1-0.1,0.2-0.2,0.3c0,0.1-0.1,0.1-0.1,0.2
					c-0.1,0.1-0.2,0.2-0.3,0.3c0,0,0,0,0,0c0.1,0.2,0.1,0.5,0.1,0.8h4h0c1,0,1.9-0.2,2.7-0.7c1.7-0.9,2.9-2.8,2.9-4.9V25V9.5
					C47.2,6.4,44.7,3.9,41.6,3.9z M33.7,39.6c0,0.3-0.3,0.6-0.6,0.6c0,0,0,0,0,0c-0.3,0-0.6-0.3-0.6-0.6c0-8.7,0.5-11.9,1.8-14.1
					c-1.2,0.2-2.7,0.1-4.5-0.9c-1.8,1-3.4,1.1-4.5,0.9c1.3,2.2,1.8,5.4,1.8,13.9c0,0.3-0.3,0.6-0.6,0.6c0,0,0,0,0,0
					c-0.3,0-0.6-0.3-0.6-0.6c0-11.5-0.9-12.9-3.1-15.1c-0.2-0.2-0.3-0.6,0-0.9c0.2-0.2,0.6-0.3,0.8,0c0.4,0.4,2.5,2,5.9-0.1
					c0,0,0.1,0,0.1,0c0,0,0.1,0,0.1,0c0,0,0.1,0,0.1,0c0,0,0.1,0,0.1,0c0,0,0.1,0,0.1,0c0,0,0.1,0,0.1,0c3.4,2.1,5.5,0.5,5.9,0.1
					c0.2-0.2,0.6-0.2,0.9,0c0.2,0.2,0.2,0.6,0,0.8C34.6,26.6,33.7,27.9,33.7,39.6z M41.9,32.9c-2,2.5-2.9,4.4-3.2,6.8
					c-0.1,0.6-0.6,1.1-1.2,1.1c-0.7,0-1.2-0.5-1.2-1.2c0,0,0-0.1,0-0.2c0.3-2.8,1.4-5.2,3.7-8c2.3-2.9,3.5-6,3.5-9.2
					c0-3.9-1.7-7.6-4.6-10.3c-3-2.6-6.8-3.9-10.8-3.4C21.8,9.3,16.7,14.5,16,20.9c-0.3,3.7,0.8,7.2,3.5,10.6c2.2,2.8,3.3,5.2,3.6,8
					c0.1,0.7-0.4,1.3-1.1,1.4c0,0-0.1,0-0.2,0c-0.6,0-1.1-0.5-1.2-1.1c-0.3-2.4-1.2-4.4-3.1-6.8c-3-3.8-4.4-8.1-4-12.3
					C14.3,13.1,20.3,7,27.9,6.1c4.6-0.5,9.2,1,12.6,4c3.4,3.1,5.4,7.5,5.4,12.1C45.9,26,44.6,29.6,41.9,32.9z"/>
			</g>
		</g>
	</g>
</g>
<g>
	<path class="st1" d="M37.5,48c0.1-0.1,0.2-0.2,0.3-0.3c0,0,0.1-0.1,0.1-0.2c0.1-0.1,0.1-0.2,0.2-0.3c0-0.1,0.1-0.1,0.1-0.2
		c0.1-0.1,0.1-0.2,0.1-0.4c0-0.1,0-0.1,0-0.2c0-0.2,0.1-0.4,0.1-0.6v0v-1.6c0-0.8-0.4-1.6-1-2.2c-0.6-0.5-1.5-0.8-2.3-0.6
		c-1.2,0.2-3.2,0.4-5.4,0.4c-2.2,0-4.1-0.2-5.4-0.4c-0.8-0.1-1.7,0.1-2.3,0.6c-0.6,0.5-1,1.3-1,2.2v1.6v0c0,0.2,0,0.4,0.1,0.6
		c0,0.1,0,0.1,0,0.2c0,0.1,0.1,0.3,0.1,0.4c0,0.1,0.1,0.1,0.1,0.2c0.1,0.1,0.1,0.2,0.2,0.3c0,0.1,0.1,0.1,0.1,0.2
		c0.1,0.1,0.2,0.2,0.3,0.3c0,0,0,0.1,0.1,0.1c-0.1,0.2-0.1,0.5-0.1,0.7h4.4c0.3-0.2,0.5-0.5,0.5-0.9c0.1-0.7-0.4-1.3-1.1-1.4
		c-0.7-0.1-1.4-0.2-1.9-0.3c-0.2,0-0.4-0.2-0.4-0.4v-1.6c0-0.2,0.1-0.3,0.2-0.3c0,0,0.1,0,0.1-0.1c0,0,0,0,0.1,0c0.1,0,0.1,0,0.2,0
		c1.3,0.2,3.4,0.5,5.8,0.5c0.3,0,0.6,0,0.9,0c2-0.1,3.7-0.3,4.9-0.5c0.2,0,0.3,0,0.4,0.1c0.1,0.1,0.2,0.2,0.2,0.3v1.6
		c0,0.2-0.2,0.4-0.4,0.4c-0.5,0.1-1.2,0.2-1.9,0.3c-0.7,0.1-1.1,0.7-1.1,1.4c0,0.4,0.3,0.7,0.5,0.9h4.3C37.6,48.5,37.5,48.3,37.5,48
		C37.5,48,37.5,48,37.5,48z"/>
	<path class="st1" d="M40.5,10.2c-3.4-3.1-8-4.5-12.6-4c-7.6,0.8-13.6,7-14.3,14.5c-0.4,4.2,1,8.5,4,12.3c1.9,2.4,2.8,4.4,3.1,6.8
		c0.1,0.6,0.6,1.1,1.2,1.1c0,0,0.1,0,0.2,0c0.7-0.1,1.1-0.7,1.1-1.4c-0.4-2.8-1.4-5.2-3.6-8c-2.7-3.4-3.9-6.9-3.5-10.6
		c0.6-6.4,5.7-11.6,12.1-12.3c4-0.4,7.8,0.8,10.8,3.4c2.9,2.6,4.6,6.3,4.6,10.3c0,3.2-1.2,6.3-3.5,9.2c-2.3,2.9-3.4,5.2-3.7,8
		c0,0,0,0.1,0,0.2c0,0.7,0.5,1.2,1.2,1.2c0.6,0,1.1-0.5,1.2-1.1c0.3-2.4,1.2-4.3,3.2-6.8c2.7-3.4,4.1-7,4.1-10.7
		C45.9,17.6,44,13.2,40.5,10.2z"/>
	<path class="st1" d="M36.8,23.5c-0.2-0.2-0.6-0.2-0.9,0c-0.4,0.3-2.5,1.9-5.9-0.1c0,0-0.1,0-0.1,0c0,0-0.1,0-0.1,0c0,0-0.1,0-0.1,0
		c0,0-0.1,0-0.1,0c0,0-0.1,0-0.1,0c0,0-0.1,0-0.1,0c-3.4,2.1-5.5,0.5-5.9,0.1c-0.2-0.2-0.6-0.2-0.8,0c-0.2,0.2-0.2,0.6,0,0.9
		c2.2,2.2,3.1,3.6,3.1,15.1c0,0.3,0.3,0.6,0.6,0.6c0,0,0,0,0,0c0.3,0,0.6-0.3,0.6-0.6c0-8.5-0.5-11.7-1.8-13.9
		c1.2,0.2,2.7,0.1,4.5-0.9c1.8,1,3.4,1.1,4.5,0.9c-1.3,2.2-1.8,5.4-1.8,14.1c0,0.3,0.3,0.6,0.6,0.6c0,0,0,0,0,0
		c0.3,0,0.6-0.3,0.6-0.6c0-11.7,0.9-13,3.2-15.3C37.1,24.1,37.1,23.8,36.8,23.5z"/>
</g>
</svg>
