<?xml version="1.0" encoding="utf-8"?>
<!-- Generator: Adobe Illustrator 27.5.0, SVG Export Plug-In . SVG Version: 6.00 Build 0)  -->
<svg version="1.1" id="Camada_3" xmlns="http://www.w3.org/2000/svg" xmlns:xlink="http://www.w3.org/1999/xlink" x="0px" y="0px"
	 viewBox="0 0 50 50" style="enable-background:new 0 0 50 50;" xml:space="preserve">
<style type="text/css">
	.st0{fill:#7726D5;}
	.st1{fill:#B68AF3;}
</style>
<g>
	<g>
		<g>
			<g>
				<g>
					<path class="st0" d="M13,18.4l4-1.3c0.1,0,0.1-0.1,0.2-0.2l1.3-4c0-0.1,0-0.2-0.1-0.3l-4.8-4.8c-0.1-0.1-0.1-0.1-0.2-0.1
						c0,0,0,0-0.1,0c0,0-0.1,0-0.2,0.2l-1.1,3.2c-0.1,0.4-0.4,0.7-0.8,0.8L8,13.1v0c-0.1,0-0.2,0.1-0.2,0.2c0,0.1,0,0.1,0.1,0.2
						l4.8,4.8C12.9,18.4,13,18.5,13,18.4z"/>
				</g>
				<g>
					<g>
						<path class="st0" d="M7.9,29c0-3,0.6-5.9,1.8-8.6c0.2-0.5,0.8-0.7,1.3-0.5c0.5,0.2,0.7,0.8,0.5,1.3c-1.1,2.4-1.6,5-1.6,7.8
							c0,9.3,6.7,17.1,15.6,18.8h7.1c6.7-1.3,12.2-6,14.5-12.3V23.9v-1.4c-2.7-7.4-9.7-12.7-18-12.7c-2.7,0-5.3,0.6-7.7,1.6
							c-0.5,0.2-1.1,0-1.3-0.5c-0.2-0.5,0-1.1,0.5-1.3C23.1,8.4,26,7.8,29,7.8c7.6,0,14.3,4.1,18,10.1V8.5c0-3.1-2.5-5.6-5.6-5.6
							H7.7c-3.1,0-5.6,2.5-5.6,5.6v31.3v2.5c0,3.1,2.5,5.6,5.6,5.6h0h11.7C12.6,44.3,7.9,37.2,7.9,29z M21.9,17.3
							c2.1-1.3,4.6-2,7.1-2c7.5,0,13.7,6.1,13.7,13.7S36.6,42.7,29,42.7S15.3,36.5,15.3,29c0-2.5,0.7-5,2-7.1
							c0.3-0.5,0.9-0.6,1.4-0.3c0.5,0.3,0.6,0.9,0.3,1.4c-1.1,1.8-1.7,3.9-1.7,6.1c0,6.4,5.2,11.7,11.7,11.7S40.7,35.4,40.7,29
							S35.5,17.3,29,17.3c-2.2,0-4.3,0.6-6.1,1.7c-0.5,0.3-1.1,0.1-1.4-0.3C21.3,18.2,21.4,17.6,21.9,17.3z M29,33.2
							c2.3,0,4.2-1.9,4.2-4.2s-1.9-4.2-4.2-4.2c-0.2,0-0.5,0-0.7,0.1c-0.5,0.1-1.1-0.3-1.2-0.8c-0.1-0.5,0.3-1.1,0.8-1.2
							c3.9-0.7,7.3,2.3,7.3,6.1c0,3.4-2.8,6.2-6.2,6.2s-6.2-2.8-6.2-6.2c0-0.4,0-0.7,0.1-1.1c0.1-0.5,0.6-0.9,1.2-0.8
							c0.5,0.1,0.9,0.6,0.8,1.2c0,0.3-0.1,0.5-0.1,0.7C24.8,31.3,26.7,33.2,29,33.2z M7.2,14.2c-0.3-0.3-0.4-0.7-0.3-1.2
							c0.1-0.4,0.4-0.8,0.8-0.9l3.2-1.1c0.1,0,0.1-0.1,0.2-0.2l1.1-3.2c0.1-0.4,0.5-0.7,0.9-0.8c0.4-0.1,0.9,0,1.2,0.3l4.8,4.8
							c0.3,0.3,0.5,0.8,0.3,1.3l-1.3,4c0,0,0,0,0,0.1l11.3,11.3c0.2,0.2,0.2,0.5,0,0.7c-0.1,0.1-0.2,0.1-0.4,0.1s-0.3,0-0.4-0.1
							L17.4,18c0,0,0,0-0.1,0l-4,1.3c-0.1,0-0.3,0.1-0.4,0.1c-0.3,0-0.6-0.1-0.9-0.4L7.2,14.2z"/>
					</g>
				</g>
			</g>
		</g>
		<g>
			<path class="st0" d="M38.6,47.8h2.8h0c1,0,1.9-0.2,2.7-0.7c1.7-0.9,2.9-2.8,2.9-4.9V40C45,43.3,42.1,46,38.6,47.8z"/>
		</g>
	</g>
</g>
<g>
	<g>
		<path class="st1" d="M29,7.8c-3,0-5.9,0.6-8.6,1.8c-0.5,0.2-0.7,0.8-0.5,1.3c0.2,0.5,0.8,0.7,1.3,0.5c2.4-1.1,5-1.6,7.7-1.6
			c8.3,0,15.3,5.3,18,12.7v-4.6C43.3,11.9,36.6,7.8,29,7.8z"/>
		<path class="st1" d="M47,40v-4.6c-2.3,6.3-7.7,11.1-14.5,12.3h6.1C42.1,46,45,43.3,47,40z"/>
		<path class="st1" d="M9.9,29c0-2.7,0.6-5.3,1.6-7.8c0.2-0.5,0-1.1-0.5-1.3c-0.5-0.2-1.1,0-1.3,0.5C8.5,23.1,7.9,26,7.9,29
			c0,8.2,4.7,15.3,11.5,18.8h6.1C16.6,46.1,9.9,38.3,9.9,29z"/>
		<path class="st1" d="M22.9,19c1.8-1.1,3.9-1.7,6.1-1.7c6.4,0,11.7,5.2,11.7,11.7S35.5,40.7,29,40.7S17.3,35.4,17.3,29
			c0-2.2,0.6-4.3,1.7-6.1c0.3-0.5,0.1-1.1-0.3-1.4c-0.5-0.3-1.1-0.1-1.4,0.3c-1.3,2.1-2,4.6-2,7.1c0,7.5,6.1,13.7,13.7,13.7
			S42.7,36.5,42.7,29S36.6,15.3,29,15.3c-2.5,0-5,0.7-7.1,2c-0.5,0.3-0.6,0.9-0.3,1.4C21.9,19.1,22.5,19.3,22.9,19z"/>
		<path class="st1" d="M24.1,27.1c-0.5-0.1-1.1,0.3-1.2,0.8c-0.1,0.4-0.1,0.7-0.1,1.1c0,3.4,2.8,6.2,6.2,6.2s6.2-2.8,6.2-6.2
			c0-3.8-3.4-6.8-7.3-6.1c-0.5,0.1-0.9,0.6-0.8,1.2c0.1,0.5,0.6,0.9,1.2,0.8c0.3,0,0.5-0.1,0.7-0.1c2.3,0,4.2,1.9,4.2,4.2
			s-1.9,4.2-4.2,4.2c-2.3,0-4.2-1.9-4.2-4.2c0-0.2,0-0.5,0.1-0.7C25,27.7,24.6,27.2,24.1,27.1z"/>
		<path class="st1" d="M13,19.4c0.1,0,0.3,0,0.4-0.1l4-1.3c0,0,0,0,0.1,0l11.3,11.3c0.1,0.1,0.2,0.1,0.4,0.1s0.3,0,0.4-0.1
			c0.2-0.2,0.2-0.5,0-0.7L18.1,17.3c0,0,0,0,0-0.1l1.3-4c0.1-0.5,0-0.9-0.3-1.3l-4.8-4.8c-0.3-0.3-0.7-0.4-1.2-0.3
			c-0.4,0.1-0.8,0.4-0.9,0.8l-1.1,3.2c0,0.1-0.1,0.1-0.2,0.2l-3.2,1.1c-0.4,0.1-0.7,0.5-0.8,0.9c-0.1,0.4,0,0.9,0.3,1.2l4.8,4.8
			C12.3,19.3,12.6,19.4,13,19.4z M7.9,13.3c0,0,0-0.1,0.2-0.2v0l3.2-1.1c0.4-0.1,0.7-0.4,0.8-0.8L13.2,8c0-0.1,0.1-0.2,0.2-0.2
			c0,0,0,0,0.1,0c0,0,0.1,0,0.2,0.1l4.8,4.8c0.1,0.1,0.1,0.2,0.1,0.3l-1.3,4c0,0.1-0.1,0.1-0.2,0.2l-4,1.3c-0.1,0-0.2,0-0.3-0.1
			L8,13.5C7.9,13.4,7.9,13.3,7.9,13.3z"/>
	</g>
</g>
</svg>
