<svg xmlns="http://www.w3.org/2000/svg" id="Camada_3" x="0" y="0" version="1.1" viewBox="0 0 50 50" xml:space="preserve"><style>.st0{fill:#a169e9}.st1{fill:#d5c7ea}</style><path d="M44.7 42.8c0-1.5-1.2-2.7-2.7-2.7-1.5 0-2.7 1.2-2.7 2.7 0 1.5 1.2 2.7 2.7 2.7 1.4 0 2.7-1.2 2.7-2.7z" class="st0"/><path d="M10.8 43h20c.6 0 1.1.5 1.1 1.1 0 .6-.5 1.1-1.1 1.1H9.6c-.6 0-1.1-.5-1.1-1.1v-31c0-2.1 1.7-3.8 3.8-3.8h35.1v-.4c0-3.1-2.5-5.6-5.6-5.6H8c-3 .1-5.5 2.6-5.5 5.6v33.8c0 3.1 2.5 5.6 5.6 5.6h28.1c-.4-.4-.7-.8-1-1.3l-1.4.3-.2-.4c-.6-1.3-.9-2.6-.9-4v-.6l.4-.2.9-.2c.1-.6.2-1.2.4-1.8l-1.1-.9.2-.4c.6-1.3 1.5-2.4 2.7-3.3l.4-.3 1.1.9c.5-.3 1-.6 1.6-.8V34l.4-.1c.7-.2 1.4-.3 2.1-.3.7 0 1.4.1 2.1.3l.4.1v1.4c.6.2 1.1.5 1.6.8l1.1-.9.2.2V19.6H10.8V43zm7.4-12c.6 0 1.1.3 1.4.6l2.7-1.2v-.2c0-1 .8-1.9 1.9-1.9s1.9.8 1.9 1.9l2.5.8c.3-.5.9-.8 1.5-.8.4 0 .8.1 1.1.3l3.1-2.4c-.1-.2-.1-.4-.1-.7 0-1 .8-1.9 1.9-1.9.7 0 1.3.4 1.6.9l2.4-.5c.1-1 .9-1.7 1.9-1.7 1 0 1.9.8 1.9 1.9S43.1 28 42 28c-.7 0-1.3-.4-1.6-.9l-2.4.5c-.1 1-.9 1.7-1.9 1.7-.4 0-.8-.1-1.1-.3l-3.1 2.4c.1.2.1.4.1.7 0 1-.8 1.9-1.9 1.9s-1.9-.8-1.9-1.9l-2.5-.8c-.3.5-.9.8-1.5.8s-1.1-.3-1.4-.6l-2.7 1.2v.2c0 1-.8 1.9-1.9 1.9-1 0-1.9-.8-1.9-1.9s.9-1.9 1.9-1.9z" class="st0"/><path d="M10.8 13.1v4.1h36.6v-5.7H12.3c-.9.1-1.5.8-1.5 1.6zm14.6-.6c1 0 1.9.8 1.9 1.9s-.8 1.9-1.9 1.9-1.9-.8-1.9-1.9.9-1.9 1.9-1.9zm-5.2 0c1 0 1.9.8 1.9 1.9s-.8 1.9-1.9 1.9-1.9-.8-1.9-1.9.8-1.9 1.9-1.9zm-5.3 0c1 0 1.9.8 1.9 1.9s-.8 1.9-1.9 1.9-1.9-.8-1.9-1.9.9-1.9 1.9-1.9zm26.9 35.7c1 0 1.9-.2 2.7-.7 1.7-.9 2.9-2.8 2.9-4.9v-5.7l-.2-.2-1 .8-.4-.3c-.6-.4-1.3-.8-2-1l-.4-.1v-1.3c-1-.2-1.9-.2-2.8 0v1.3l-.4.1c-.7.2-1.4.5-2 1l-.4.3-1-.8c-.7.6-1.3 1.4-1.8 2.2l1 .8-.2.4c-.3.7-.5 1.4-.5 2.2v.4L34 43c0 1 .2 1.9.6 2.8l1.3-.3.2.4c.3.7.8 1.3 1.4 1.8l.3.3v.1h4v.1zm-3.7-5.4c0-2.1 1.7-3.9 3.9-3.9 2.1 0 3.9 1.7 3.9 3.9 0 2.1-1.7 3.9-3.9 3.9-2.2-.1-3.9-1.8-3.9-3.9z" class="st0"/><path d="M14.9 15.2c.4 0 .8-.3.8-.8s-.3-.8-.8-.8c-.4 0-.8.3-.8.8s.4.8.8.8z" class="st0"/><circle cx="25.4" cy="14.4" r=".8" class="st0"/><circle cx="20.2" cy="14.4" r=".8" class="st0"/><path d="M18.2 33.6c.4 0 .8-.3.8-.8 0-.4-.3-.8-.8-.8-.4 0-.8.3-.8.8s.4.8.8.8zm11.9-.6c.4 0 .8-.3.8-.8s-.3-.8-.8-.8-.8.3-.8.8.3.8.8.8zm5.9-4.6c.4 0 .8-.3.8-.8 0-.4-.3-.8-.8-.8-.4 0-.8.3-.8.8 0 .4.4.8.8.8zM24.1 31c.4 0 .8-.3.8-.8s-.3-.8-.8-.8-.8.3-.8.8.4.8.8.8zm17.8-4c.4 0 .8-.3.8-.8 0-.4-.3-.8-.8-.8-.4 0-.8.3-.8.8.1.5.4.8.8.8z" class="st0"/><path d="M14.9 16.3c1 0 1.9-.8 1.9-1.9s-.8-1.9-1.9-1.9-1.9.9-1.9 1.9.9 1.9 1.9 1.9zm0-2.6c.4 0 .8.3.8.8s-.3.8-.8.8c-.4 0-.8-.3-.8-.8s.4-.8.8-.8zm5.3 2.6c1 0 1.9-.8 1.9-1.9s-.8-1.9-1.9-1.9-1.9.8-1.9 1.9.8 1.9 1.9 1.9zm0-2.6c.4 0 .8.3.8.8s-.3.8-.8.8-.8-.3-.8-.8.4-.8.8-.8zm5.2 2.6c1 0 1.9-.8 1.9-1.9s-.8-1.9-1.9-1.9-1.9.8-1.9 1.9.9 1.9 1.9 1.9zm0-2.6c.4 0 .8.3.8.8s-.3.8-.8.8-.8-.3-.8-.8.4-.8.8-.8z" class="st1"/><path d="M10.8 17.2v-4.1c0-.8.7-1.5 1.5-1.5h35.1V9.3H12.3c-2.1 0-3.8 1.7-3.8 3.8v31c0 .6.5 1.1 1.1 1.1h21.1c.6 0 1.1-.5 1.1-1.1 0-.6-.5-1.1-1.1-1.1h-20V19.5h36.6v-2.3H10.8z" class="st1"/><path d="M18.2 34.8c1 0 1.9-.8 1.9-1.9v-.2l2.7-1.2c.3.4.8.6 1.4.6.6 0 1.2-.3 1.5-.8l2.5.8c0 1 .8 1.9 1.9 1.9s1.9-.8 1.9-1.9c0-.2 0-.4-.1-.7L35 29c.3.2.7.3 1.1.3 1 0 1.8-.8 1.9-1.7l2.4-.5c.3.6.9.9 1.6.9 1 0 1.9-.8 1.9-1.9s-.8-1.9-1.9-1.9c-1 0-1.8.8-1.9 1.7l-2.4.5c-.3-.6-.9-.9-1.6-.9-1 0-1.9.8-1.9 1.9 0 .2 0 .4.1.7l-3.1 2.4c-.3-.2-.7-.3-1.1-.3-.6 0-1.2.3-1.5.8l-2.6-.7c0-1-.8-1.9-1.9-1.9s-1.9.8-1.9 1.9v.2l-2.7 1.2c-.3-.4-.8-.6-1.4-.6-1 0-1.9.8-1.9 1.9s1 1.8 2 1.8zm23.7-9.3c.4 0 .8.3.8.8 0 .4-.3.8-.8.8-.4 0-.8-.3-.8-.8.1-.4.4-.8.8-.8zM36 26.9c.4 0 .8.3.8.8 0 .4-.3.8-.8.8-.4 0-.8-.3-.8-.8s.4-.8.8-.8zm-5.9 4.6c.4 0 .8.3.8.8s-.4.7-.8.7-.8-.3-.8-.8.3-.7.8-.7zm-6-2c.4 0 .8.3.8.8s-.4.7-.8.7-.8-.3-.8-.8.4-.7.8-.7zm-5.9 2.6c.4 0 .8.3.8.8 0 .4-.3.8-.8.8-.4 0-.8-.3-.8-.8 0-.4.4-.8.8-.8zm27.9 4.1c-.5-.3-1-.6-1.6-.8V34l-.5-.1c-.7-.2-1.4-.3-2.1-.3-.7 0-1.4.1-2.1.3l-.4.1v1.4c-.6.2-1.1.5-1.6.8l-1.1-.9-.4.3c-1.1.9-2 2-2.7 3.3l-.2.4 1.1.9c-.2.6-.3 1.2-.4 1.8l-.9.2-.4.2v.6c0 1.4.3 2.7.9 4l.2.4 1.4-.3c.3.5.6.9 1 1.3h1.5v-.1l-.3-.3c-.6-.5-1-1.1-1.4-1.8l-.2-.4-1.4.2c-.4-.9-.6-1.8-.6-2.8l1.3-.3v-.4c.1-.8.2-1.5.5-2.2l.2-.4-1-.8c.5-.8 1.1-1.6 1.8-2.2l1 .8.4-.3c.6-.4 1.3-.8 2-1l.4-.1V35c.9-.2 1.9-.2 2.8 0v1.3l.4.1c.7.2 1.4.5 2 1l.4.3 1-.8.2.2v-1.5l-.2-.2-1 .8z" class="st1"/><path d="M45.8 42.8c0-2.1-1.7-3.9-3.9-3.9-2.1 0-3.9 1.7-3.9 3.9 0 2.1 1.7 3.9 3.9 3.9 2.2-.1 3.9-1.8 3.9-3.9zm-6.6 0c0-1.5 1.2-2.7 2.7-2.7 1.5 0 2.7 1.2 2.7 2.7 0 1.5-1.2 2.7-2.7 2.7-1.5 0-2.7-1.2-2.7-2.7z" class="st1"/></svg>