<?xml version="1.0" encoding="utf-8"?>
<!-- Generator: Adobe Illustrator 27.5.0, SVG Export Plug-In . SVG Version: 6.00 Build 0)  -->
<svg version="1.1" id="Camada_3" xmlns="http://www.w3.org/2000/svg" xmlns:xlink="http://www.w3.org/1999/xlink" x="0px" y="0px"
	 viewBox="0 0 50 50" style="enable-background:new 0 0 50 50;" xml:space="preserve">
<style type="text/css">
	.st0{fill:#7726D5;}
	.st1{fill:none;}
	.st2{fill:#B68AF3;}
</style>
<g>
	<path class="st0" d="M41,1.9H7.3c-3.1,0-5.6,2.5-5.6,5.6v31.3v2.5c0,3.1,2.5,5.6,5.6,5.6h0H41h0c1,0,1.9-0.2,2.7-0.7
		c1.7-0.9,2.9-2.8,2.9-4.9V23V7.5C46.6,4.4,44.1,1.9,41,1.9z"/>
	<polygon class="st1" points="17.8,46.8 21.6,46.8 16.5,29 11.1,29 	"/>
	<path class="st1" d="M20.5,26c-0.7,0-1.2-0.6-1.2-1.2v-9.2H9.3c-1,0-1.7,0.8-1.7,1.7v7.4c0,1,0.8,1.7,1.7,1.7h11.2h0.1c0,0,0,0,0,0
		c6.8,0,15,2.7,19.6,6.3c0.1,0.1,0.3,0.1,0.4,0c0.1,0,0.2-0.1,0.2-0.3V9.6c0-0.2-0.1-0.3-0.2-0.3c-0.1,0-0.2-0.1-0.4,0
		c-4.3,3.4-11.9,5.9-18.5,6.2v9.2C21.7,25.4,21.1,26,20.5,26z M16,23.5h-5.2c-0.1,0-0.2-0.1-0.2-0.2s0.1-0.2,0.2-0.2H16
		c0.1,0,0.2,0.1,0.2,0.2S16.1,23.5,16,23.5z M16,19h-5.2c-0.1,0-0.2-0.1-0.2-0.2s0.1-0.2,0.2-0.2H16c0.1,0,0.2,0.1,0.2,0.2
		S16.1,19,16,19z"/>
	<g>
		<g>
			<path class="st2" d="M16,18.5h-5.2c-0.1,0-0.2,0.1-0.2,0.2s0.1,0.2,0.2,0.2H16c0.1,0,0.3-0.1,0.3-0.2S16.1,18.5,16,18.5z"/>
			<path class="st2" d="M16,23h-5.2c-0.1,0-0.2,0.1-0.2,0.2s0.1,0.2,0.2,0.2H16c0.1,0,0.3-0.1,0.3-0.2S16.1,23,16,23z"/>
			<path class="st2" d="M41.7,7c-1-0.5-2.1-0.4-3,0.3c-4.2,3.3-11.9,5.7-18.2,5.7H9.3c-2.3,0-4.2,1.9-4.2,4.2v7.4
				c0,2,1.4,3.7,3.3,4.1l6.7,17.9h2.7L11.1,29h5.4l5,17.8h2.6l-3.6-12.6h0.6c1.9,0,3.4-1.5,3.4-3.4l0-1.5c5.2,0.8,10.7,2.8,14,5.4
				c0.5,0.4,1.1,0.6,1.7,0.6c0.4,0,0.9-0.1,1.3-0.3c1-0.5,1.6-1.5,1.6-2.6V9.6C43.3,8.5,42.7,7.5,41.7,7z M22.2,30.7
				c0,0.5-0.4,0.9-0.9,0.9h-1.3L19.1,29h1.3c0.6,0,1.1,0,1.7,0.1L22.2,30.7z M40.8,32.4c0,0.2-0.1,0.3-0.2,0.3c-0.1,0-0.2,0.1-0.4,0
				c-4.6-3.6-12.8-6.2-19.6-6.3c-0.1,0-0.1,0-0.2,0H9.3c-1,0-1.7-0.8-1.7-1.7v-7.4c0-1,0.8-1.7,1.7-1.7h9.9v9.2
				c0,0.7,0.6,1.2,1.2,1.2s1.2-0.6,1.2-1.2v-9.2c6.6-0.3,14.2-2.8,18.5-6.2c0.1-0.1,0.3-0.1,0.4,0c0.1,0,0.2,0.1,0.2,0.3V32.4z"/>
		</g>
	</g>
</g>
</svg>
