<?xml version="1.0" encoding="utf-8"?>
<!-- Generator: Adobe Illustrator 27.5.0, SVG Export Plug-In . SVG Version: 6.00 Build 0)  -->
<svg version="1.1" id="Camada_3" xmlns="http://www.w3.org/2000/svg" xmlns:xlink="http://www.w3.org/1999/xlink" x="0px" y="0px"
	 viewBox="0 0 50 50" style="enable-background:new 0 0 50 50;" xml:space="preserve">
<style type="text/css">
	.st0{fill:#A169E9;}
	.st1{fill:#D5C7EA;}
</style>
<g>
	<path class="st0" d="M42.1,2.3H8.4c-3.1,0-5.6,2.5-5.6,5.6v31.3v2.5c0,3.1,2.5,5.6,5.6,5.6h0h33.7h0c1,0,1.9-0.2,2.7-0.7
		c1.7-0.9,2.9-2.8,2.9-4.9V23.3V7.9C47.7,4.8,45.2,2.3,42.1,2.3z"/>
</g>
<g>
	<g>
		<path class="st1" d="M42.7,20.9c-0.1-0.3-0.1-0.5,0-0.8c0.1-0.2,0.2-0.3,0.4-0.4l0.1-0.1c1.7-1.1,2.3-3.4,1.2-5.1
			c-1.1-1.9-3.3-2.9-5.4-2.6l-0.2,0c-1,0.1-1.9,0.7-2.5,1.5c-0.6,0.8-0.9,1.8-0.7,2.8c0,0.2,0,0.4-0.1,0.6c-0.1,0.2-0.3,0.4-0.6,0.5
			c-0.3,0.1-0.5,0.1-0.8,0l-6.6-3.1c-0.1,0-0.1,0-0.2,0c-0.2,0-0.4,0.1-0.5,0.3l-2.8,6.1c-0.5,1,0,2.2,1,2.7
			c0.4,0.2,0.8,0.2,1.2,0.2c0.7-0.1,1.5,0.1,2.1,0.5c0.6,0.4,1,1.1,1.1,1.8l0,0.2c0.2,1.8-0.6,3.5-2.2,4.5c-1.3,0.8-2.9,0.4-3.7-0.9
			l-0.1-0.1c-0.2-0.3-0.5-0.6-0.9-0.8c-0.5-0.2-1-0.2-1.5-0.1c-0.5,0.2-0.9,0.6-1.1,1c-0.1,0.3,0,0.5,0.2,0.7c0.2,0.1,0.5,0,0.7-0.2
			c0.2-0.5,0.8-0.7,1.3-0.5c0.2,0.1,0.3,0.2,0.4,0.4l0.1,0.1c0.7,1.1,1.9,1.8,3.2,1.8c0.7,0,1.3-0.2,1.9-0.5
			c1.9-1.1,2.9-3.3,2.6-5.4l0-0.2c-0.1-1-0.7-1.9-1.5-2.5c-0.8-0.6-1.8-0.9-2.8-0.7c-0.2,0-0.4,0-0.6-0.1c-0.2-0.1-0.4-0.3-0.5-0.6
			c-0.1-0.3-0.1-0.5,0-0.8l2.6-5.6l6.1,2.8c0.5,0.2,1,0.3,1.5,0.1s0.9-0.6,1.2-1.1c0.2-0.4,0.2-0.8,0.2-1.2
			c-0.1-0.7,0.1-1.5,0.5-2.1c0.4-0.6,1.1-1,1.8-1.1l0.2,0c1.8-0.2,3.5,0.6,4.5,2.2c0.8,1.3,0.4,2.9-0.9,3.7l-0.1,0.1
			c-0.3,0.2-0.6,0.5-0.8,0.9c-0.5,1,0,2.2,1,2.7l4.9,2.3v-1.1l-4.5-2.1C42.9,21.3,42.8,21.1,42.7,20.9z"/>
		<path class="st1" d="M23.4,45.8c-0.8-1.3-0.4-2.9,0.9-3.7l0.1-0.1c0.3-0.2,0.6-0.5,0.8-0.9c0.5-1,0-2.2-1-2.7
			c-0.2-0.1-0.5,0-0.7,0.2c-0.1,0.3,0,0.5,0.2,0.7c0.2,0.1,0.4,0.3,0.5,0.6c0.1,0.3,0.1,0.5,0,0.8c-0.1,0.2-0.2,0.3-0.4,0.4
			l-0.1,0.1c-1.7,1.1-2.3,3.4-1.2,5.1c0.2,0.3,0.4,0.6,0.6,0.8h1.5C24.2,46.8,23.8,46.4,23.4,45.8z"/>
		<path class="st1" d="M46.3,30.8c-0.1,0.2-0.3,0.4-0.6,0.5c-0.3,0.1-0.5,0.1-0.8,0c-0.2-0.1-0.3-0.2-0.4-0.4l-0.1-0.1
			c-1.1-1.7-3.4-2.3-5.1-1.2c-1.9,1.1-2.9,3.3-2.6,5.4l0,0.2c0.1,1,0.7,1.9,1.5,2.5c0.8,0.6,1.8,0.9,2.8,0.7c0.2,0,0.4,0,0.6,0.1
			c0.2,0.1,0.4,0.3,0.5,0.6c0.1,0.3,0.1,0.5,0,0.8l-2.6,5.6l-6.1-2.8c-0.5-0.2-1-0.3-1.5-0.1c-0.5,0.2-0.9,0.6-1.2,1.1
			c-0.2,0.4-0.2,0.8-0.2,1.2c0.1,0.7-0.1,1.5-0.5,2.1c-0.1,0.1-0.2,0.2-0.3,0.3h1.3c0.5-0.7,0.6-1.6,0.5-2.5c0-0.2,0-0.4,0.1-0.6
			c0.1-0.2,0.3-0.4,0.6-0.5c0.3-0.1,0.5-0.1,0.8,0l6.6,3.1c0.1,0,0.1,0,0.2,0c0,0,0,0,0,0c0,0,0,0,0,0c0.1,0,0.1,0,0.2-0.1
			c0,0,0,0,0.1,0c0.1,0,0.1-0.1,0.2-0.2c0,0,0,0,0,0l2.8-6.1c0.2-0.5,0.2-1,0.1-1.5s-0.6-0.9-1.1-1.2c-0.4-0.2-0.8-0.2-1.2-0.2
			c-0.7,0.1-1.5-0.1-2.1-0.5c-0.6-0.4-1-1.1-1.1-1.8l0-0.2c-0.2-1.8,0.6-3.5,2.2-4.5c1.3-0.8,2.9-0.4,3.7,0.9l0.1,0.1
			c0.2,0.3,0.5,0.6,0.9,0.8c1,0.5,2.2,0,2.7-1l0.5-1.1v-2.4L46.3,30.8z"/>
		<path class="st1" d="M23,14.9V10c0-2.3-1.9-4.2-4.2-4.2H16c-2.3,0-4.2,1.9-4.2,4.2v4.9c0,2.3,1.9,4.2,4.2,4.2h2.8
			C21.1,19.1,23,17.2,23,14.9z M21,14.9c0,1.2-1,2.2-2.2,2.2H16c-1.2,0-2.2-1-2.2-2.2V10c0-1.2,1-2.2,2.2-2.2h2.8
			c1.2,0,2.2,1,2.2,2.2V14.9z"/>
		<path class="st1" d="M13.7,38.9h4.4c1.3,0,2.5-0.5,3.4-1.5c0.9-0.9,1.3-2.2,1.2-3.5c0-0.4-0.4-0.8-0.8-0.9l-6.4-1.2l-2.1-3.7
			c-0.3-0.5-0.9-0.7-1.4-0.4c-0.5,0.3-0.7,0.9-0.4,1.4l2.3,4.1c0.1,0.3,0.4,0.4,0.7,0.5l6,1.1c-0.1,0.5-0.3,0.9-0.6,1.2
			c-0.5,0.5-1.2,0.8-1.9,0.8h-4.4c-1.4,0-2.7-0.8-3.3-2l-2.3-4c-0.4-0.7-0.6-1.4-0.6-2.2v-1.5c0-2.4,2-4.4,4.4-4.4l8.1-0.1
			c0.6,0,1-0.5,1-1c0-0.5-0.5-1-1-1c0,0,0,0,0,0l-8.1,0.1c-3.5,0-6.4,2.9-6.4,6.4v1.5c0,1.1,0.3,2.2,0.8,3.1l2.3,4
			c0.5,0.9,1.2,1.6,2,2.1v9.2h2v-8.4C13,38.8,13.3,38.9,13.7,38.9z"/>
	</g>
</g>
</svg>
