<svg xmlns="http://www.w3.org/2000/svg" id="Camada_3" x="0" y="0" version="1.1" viewBox="0 0 50 50" xml:space="preserve"><style>.st2{fill:#b68af3}</style><path fill="#7726d5" d="M41 1.9H7.3c-3.1 0-5.6 2.5-5.6 5.6v33.8c0 3.1 2.5 5.6 5.6 5.6H41c1 0 1.9-.2 2.7-.7 1.7-.9 2.9-2.8 2.9-4.9V7.5c0-3.1-2.5-5.6-5.6-5.6z"/><path fill="none" d="M17.8 46.8h3.8L16.5 29h-5.4zM20.5 26c-.7 0-1.2-.6-1.2-1.2v-9.2h-10c-1 0-1.7.8-1.7 1.7v7.4c0 1 .8 1.7 1.7 1.7h11.3c6.8 0 15 2.7 19.6 6.3.1.1.3.1.4 0 .1 0 .2-.1.2-.3V9.6c0-.2-.1-.3-.2-.3s-.2-.1-.4 0c-4.3 3.4-11.9 5.9-18.5 6.2v9.2c0 .7-.6 1.3-1.2 1.3zM16 23.5h-5.2c-.1 0-.2-.1-.2-.2s.1-.2.2-.2H16c.1 0 .2.1.2.2s-.1.2-.2.2zm0-4.5h-5.2c-.1 0-.2-.1-.2-.2s.1-.2.2-.2H16c.1 0 .2.1.2.2s-.1.2-.2.2z"/><path d="M16 18.5h-5.2c-.1 0-.2.1-.2.2s.1.2.2.2H16c.1 0 .3-.1.3-.2s-.2-.2-.3-.2zm0 4.5h-5.2c-.1 0-.2.1-.2.2s.1.2.2.2H16c.1 0 .3-.1.3-.2s-.2-.2-.3-.2z" class="st2"/><path d="M41.7 7c-1-.5-2.1-.4-3 .3-4.2 3.3-11.9 5.7-18.2 5.7H9.3c-2.3 0-4.2 1.9-4.2 4.2v7.4c0 2 1.4 3.7 3.3 4.1l6.7 17.9h2.7L11.1 29h5.4l5 17.8h2.6l-3.6-12.6h.6c1.9 0 3.4-1.5 3.4-3.4v-1.5c5.2.8 10.7 2.8 14 5.4.5.4 1.1.6 1.7.6.4 0 .9-.1 1.3-.3 1-.5 1.6-1.5 1.6-2.6V9.6c.2-1.1-.4-2.1-1.4-2.6zM22.2 30.7c0 .5-.4.9-.9.9H20l-.9-2.6h1.3c.6 0 1.1 0 1.7.1l.1 1.6zm18.6 1.7c0 .2-.1.3-.2.3s-.2.1-.4 0c-4.6-3.6-12.8-6.2-19.6-6.3H9.3c-1 0-1.7-.8-1.7-1.7v-7.4c0-1 .8-1.7 1.7-1.7h9.9v9.2c0 .7.6 1.2 1.2 1.2s1.2-.6 1.2-1.2v-9.2c6.6-.3 14.2-2.8 18.5-6.2.1-.1.3-.1.4 0 .1 0 .2.1.2.3v22.7z" class="st2"/></svg>