<?xml version="1.0" encoding="utf-8"?>
<!-- Generator: Adobe Illustrator 27.5.0, SVG Export Plug-In . SVG Version: 6.00 Build 0)  -->
<svg version="1.1" id="Camada_3" xmlns="http://www.w3.org/2000/svg" xmlns:xlink="http://www.w3.org/1999/xlink" x="0px" y="0px"
	 viewBox="0 0 50 50" style="enable-background:new 0 0 50 50;" xml:space="preserve">
<style type="text/css">
	.st0{fill:#6821B7;}
	.st1{fill:#A169E9;}
</style>
<g>
	<g>
		<g>
			<path class="st0" d="M45.7,42.2c0-1.5-1.2-2.7-2.7-2.7c-1.5,0-2.7,1.2-2.7,2.7c0,1.5,1.2,2.7,2.7,2.7
				C44.5,45,45.7,43.7,45.7,42.2z"/>
		</g>
		<g>
			<g>
				<g>
					<g>
						<path class="st0" d="M11.8,42.4h20c0.6,0,1.1,0.5,1.1,1.1c0,0.6-0.5,1.1-1.1,1.1H10.7c-0.6,0-1.1-0.5-1.1-1.1V17.8v-5.3
							c0-2.1,1.7-3.8,3.8-3.8h35.1V8.4c0-3.1-2.5-5.6-5.6-5.6H9.1C6,2.8,3.5,5.3,3.5,8.4v31.3v2.5c0,3.1,2.5,5.6,5.6,5.6h0h28.1
							c-0.4-0.4-0.7-0.8-1-1.3L35,46.7l-0.2-0.4c-0.6-1.3-0.9-2.6-0.9-4l0-0.6l0.4-0.2l0.9-0.2c0.1-0.6,0.2-1.2,0.4-1.8l-1.1-0.9
							l0.2-0.4c0.6-1.3,1.5-2.4,2.7-3.3l0.4-0.3l1.1,0.9c0.5-0.3,1-0.6,1.6-0.8v-1.4l0.4-0.1c0.7-0.2,1.4-0.3,2.1-0.3c0,0,0,0,0,0
							c0.7,0,1.4,0.1,2.1,0.3l0.4,0.1v1.4c0.6,0.2,1.1,0.5,1.6,0.8l1.1-0.9l0.2,0.2v-11V19H11.8V42.4z M19.3,30.5
							c0.6,0,1.1,0.3,1.4,0.6l2.7-1.2c0-0.1,0-0.1,0-0.2c0-1,0.8-1.9,1.9-1.9s1.9,0.8,1.9,1.9c0,0,0,0,0,0l2.5,0.8
							c0.3-0.5,0.9-0.8,1.5-0.8c0.4,0,0.8,0.1,1.1,0.3l3.1-2.4c-0.1-0.2-0.1-0.4-0.1-0.7c0-1,0.8-1.9,1.9-1.9c0.7,0,1.3,0.4,1.6,0.9
							l2.4-0.5c0.1-1,0.9-1.7,1.9-1.7c1,0,1.9,0.8,1.9,1.9S44,27.6,43,27.6c-0.7,0-1.3-0.4-1.6-0.9l-2.4,0.5c-0.1,1-0.9,1.7-1.9,1.7
							c-0.4,0-0.8-0.1-1.1-0.3L32.9,31c0.1,0.2,0.1,0.4,0.1,0.7c0,1-0.8,1.9-1.9,1.9s-1.9-0.8-1.9-1.9c0,0,0,0,0,0l-2.5-0.8
							c-0.3,0.5-0.9,0.8-1.5,0.8c-0.6,0-1.1-0.3-1.4-0.6l-2.7,1.2c0,0.1,0,0.1,0,0.2c0,1-0.8,1.9-1.9,1.9c-1,0-1.9-0.8-1.9-1.9
							C17.4,31.3,18.2,30.5,19.3,30.5z"/>
					</g>
				</g>
				<g>
					<g>
						<path class="st0" d="M11.8,12.6v4.1h36.6v-5.7H13.3C12.5,11.1,11.8,11.7,11.8,12.6z M26.5,12c1,0,1.9,0.8,1.9,1.9
							s-0.8,1.9-1.9,1.9s-1.9-0.8-1.9-1.9S25.5,12,26.5,12z M21.3,12c1,0,1.9,0.8,1.9,1.9s-0.8,1.9-1.9,1.9s-1.9-0.8-1.9-1.9
							S20.2,12,21.3,12z M16,12c1,0,1.9,0.8,1.9,1.9S17,15.8,16,15.8s-1.9-0.8-1.9-1.9S14.9,12,16,12z"/>
					</g>
				</g>
				<g>
					<g>
						<path class="st0" d="M42.8,47.7c1,0,1.9-0.2,2.7-0.7c1.7-0.9,2.9-2.8,2.9-4.9v-5.7c-0.1-0.1-0.1-0.1-0.2-0.2l-1,0.8l-0.4-0.3
							c-0.6-0.4-1.3-0.8-2-1l-0.4-0.1v-1.3c-1-0.2-1.9-0.2-2.8,0v1.3l-0.4,0.1c-0.7,0.2-1.4,0.5-2,1l-0.4,0.3l-1-0.8
							c-0.7,0.6-1.3,1.4-1.8,2.2l1,0.8l-0.2,0.4c-0.3,0.7-0.5,1.4-0.5,2.2l0,0.4L35,42.6c0,1,0.2,1.9,0.6,2.8l1.3-0.3l0.2,0.4
							c0.3,0.7,0.8,1.3,1.4,1.8l0.3,0.3l0,0.1H42.8L42.8,47.7z M39.1,42.2c0-2.1,1.7-3.9,3.9-3.9c2.1,0,3.9,1.7,3.9,3.9
							c0,2.1-1.7,3.9-3.9,3.9C40.9,46.1,39.1,44.4,39.1,42.2z"/>
					</g>
				</g>
				<g>
					<path class="st0" d="M16,14.6c0.4,0,0.8-0.3,0.8-0.8s-0.3-0.8-0.8-0.8c-0.4,0-0.8,0.3-0.8,0.8S15.6,14.6,16,14.6z"/>
				</g>
				<g>
					<circle class="st0" cx="26.5" cy="13.9" r="0.8"/>
				</g>
				<g>
					<circle class="st0" cx="21.3" cy="13.9" r="0.8"/>
				</g>
				<g>
					<path class="st0" d="M19.3,33.1c0.4,0,0.8-0.3,0.8-0.8c0-0.4-0.3-0.8-0.8-0.8c-0.4,0-0.8,0.3-0.8,0.8
						C18.5,32.8,18.9,33.1,19.3,33.1z"/>
				</g>
				<g>
					<path class="st0" d="M31.1,32.4c0.4,0,0.8-0.3,0.8-0.8c0-0.4-0.3-0.8-0.8-0.8s-0.8,0.3-0.8,0.8C30.4,32.1,30.7,32.4,31.1,32.4z
						"/>
				</g>
				<g>
					<path class="st0" d="M37.1,27.8c0.4,0,0.8-0.3,0.8-0.8c0-0.4-0.3-0.8-0.8-0.8c-0.4,0-0.8,0.3-0.8,0.8
						C36.3,27.5,36.7,27.8,37.1,27.8z"/>
				</g>
				<g>
					<path class="st0" d="M25.2,30.5c0.4,0,0.8-0.3,0.8-0.8s-0.3-0.8-0.8-0.8s-0.8,0.3-0.8,0.8S24.8,30.5,25.2,30.5z"/>
				</g>
				<g>
					<path class="st0" d="M43,26.5c0.4,0,0.8-0.3,0.8-0.8c0-0.4-0.3-0.8-0.8-0.8c-0.4,0-0.8,0.3-0.8,0.8
						C42.2,26.2,42.6,26.5,43,26.5z"/>
				</g>
			</g>
		</g>
	</g>
</g>
<g>
	<path class="st1" d="M16,15.8c1,0,1.9-0.8,1.9-1.9S17,12,16,12s-1.9,0.8-1.9,1.9S14.9,15.8,16,15.8z M16,13.1
		c0.4,0,0.8,0.3,0.8,0.8s-0.3,0.8-0.8,0.8c-0.4,0-0.8-0.3-0.8-0.8S15.6,13.1,16,13.1z"/>
	<path class="st1" d="M21.3,15.8c1,0,1.9-0.8,1.9-1.9S22.3,12,21.3,12s-1.9,0.8-1.9,1.9S20.2,15.8,21.3,15.8z M21.3,13.1
		c0.4,0,0.8,0.3,0.8,0.8s-0.3,0.8-0.8,0.8s-0.8-0.3-0.8-0.8S20.8,13.1,21.3,13.1z"/>
	<path class="st1" d="M26.5,15.8c1,0,1.9-0.8,1.9-1.9S27.6,12,26.5,12s-1.9,0.8-1.9,1.9S25.5,15.8,26.5,15.8z M26.5,13.1
		c0.4,0,0.8,0.3,0.8,0.8s-0.3,0.8-0.8,0.8s-0.8-0.3-0.8-0.8S26.1,13.1,26.5,13.1z"/>
	<path class="st1" d="M11.8,16.7v-4.1c0-0.8,0.7-1.5,1.5-1.5h35.1V8.8H13.3c-2.1,0-3.8,1.7-3.8,3.8v5.3v25.7c0,0.6,0.5,1.1,1.1,1.1
		h21.1c0.6,0,1.1-0.5,1.1-1.1c0-0.6-0.5-1.1-1.1-1.1h-20V19h36.6v-2.3H11.8z"/>
	<path class="st1" d="M19.3,34.2c1,0,1.9-0.8,1.9-1.9c0-0.1,0-0.1,0-0.2l2.7-1.2c0.3,0.4,0.8,0.6,1.4,0.6c0.6,0,1.2-0.3,1.5-0.8
		l2.5,0.8c0,0,0,0,0,0c0,1,0.8,1.9,1.9,1.9s1.9-0.8,1.9-1.9c0-0.2,0-0.4-0.1-0.7l3.1-2.4c0.3,0.2,0.7,0.3,1.1,0.3
		c1,0,1.8-0.8,1.9-1.7l2.4-0.5c0.3,0.6,0.9,0.9,1.6,0.9c1,0,1.9-0.8,1.9-1.9S44,23.9,43,23.9c-1,0-1.8,0.8-1.9,1.7l-2.4,0.5
		c-0.3-0.6-0.9-0.9-1.6-0.9c-1,0-1.9,0.8-1.9,1.9c0,0.2,0,0.4,0.1,0.7l-3.1,2.4c-0.3-0.2-0.7-0.3-1.1-0.3c-0.6,0-1.2,0.3-1.5,0.8
		l-2.5-0.8c0,0,0,0,0,0c0-1-0.8-1.9-1.9-1.9s-1.9,0.8-1.9,1.9c0,0.1,0,0.1,0,0.2l-2.7,1.2c-0.3-0.4-0.8-0.6-1.4-0.6
		c-1,0-1.9,0.8-1.9,1.9C17.4,33.4,18.2,34.2,19.3,34.2z M43,25c0.4,0,0.8,0.3,0.8,0.8c0,0.4-0.3,0.8-0.8,0.8c-0.4,0-0.8-0.3-0.8-0.8
		C42.2,25.3,42.6,25,43,25z M37.1,26.3c0.4,0,0.8,0.3,0.8,0.8c0,0.4-0.3,0.8-0.8,0.8c-0.4,0-0.8-0.3-0.8-0.8
		C36.3,26.7,36.7,26.3,37.1,26.3z M31.1,30.9c0.4,0,0.8,0.3,0.8,0.8c0,0.4-0.3,0.8-0.8,0.8s-0.8-0.3-0.8-0.8
		C30.4,31.3,30.7,30.9,31.1,30.9z M25.2,28.9c0.4,0,0.8,0.3,0.8,0.8s-0.3,0.8-0.8,0.8s-0.8-0.3-0.8-0.8S24.8,28.9,25.2,28.9z
		 M19.3,31.6c0.4,0,0.8,0.3,0.8,0.8c0,0.4-0.3,0.8-0.8,0.8c-0.4,0-0.8-0.3-0.8-0.8C18.5,31.9,18.9,31.6,19.3,31.6z"/>
	<path class="st1" d="M47.1,35.6c-0.5-0.3-1-0.6-1.6-0.8v-1.4l-0.4-0.1c-0.7-0.2-1.4-0.3-2.1-0.3c0,0,0,0,0,0
		c-0.7,0-1.4,0.1-2.1,0.3l-0.4,0.1v1.4c-0.6,0.2-1.1,0.5-1.6,0.8l-1.1-0.9L37.4,35c-1.1,0.9-2,2-2.7,3.3l-0.2,0.4l1.1,0.9
		c-0.2,0.6-0.3,1.2-0.4,1.8l-0.9,0.2l-0.4,0.2l0,0.6c0,1.4,0.3,2.7,0.9,4l0.2,0.4l1.4-0.3c0.3,0.5,0.6,0.9,1,1.3h1.5l0-0.1l-0.3-0.3
		c-0.6-0.5-1-1.1-1.4-1.8l-0.2-0.4l-1.3,0.3c-0.4-0.9-0.6-1.8-0.6-2.8l1.3-0.3l0-0.4c0.1-0.8,0.2-1.5,0.5-2.2l0.2-0.4l-1-0.8
		c0.5-0.8,1.1-1.6,1.8-2.2l1,0.8l0.4-0.3c0.6-0.4,1.3-0.8,2-1l0.4-0.1v-1.3c0.9-0.2,1.9-0.2,2.8,0v1.3l0.4,0.1c0.7,0.2,1.4,0.5,2,1
		l0.4,0.3l1-0.8c0.1,0.1,0.1,0.1,0.2,0.2v-1.5l-0.2-0.2L47.1,35.6z"/>
	<path class="st1" d="M46.9,42.2c0-2.1-1.7-3.9-3.9-3.9c-2.1,0-3.9,1.7-3.9,3.9c0,2.1,1.7,3.9,3.9,3.9
		C45.1,46.1,46.9,44.4,46.9,42.2z M40.3,42.2c0-1.5,1.2-2.7,2.7-2.7c1.5,0,2.7,1.2,2.7,2.7c0,1.5-1.2,2.7-2.7,2.7
		C41.5,45,40.3,43.7,40.3,42.2z"/>
</g>
</svg>
