<?xml version="1.0" encoding="utf-8"?>
<!-- Generator: Adobe Illustrator 27.5.0, SVG Export Plug-In . SVG Version: 6.00 Build 0)  -->
<svg version="1.1" id="Camada_3" xmlns="http://www.w3.org/2000/svg" xmlns:xlink="http://www.w3.org/1999/xlink" x="0px" y="0px"
	 viewBox="0 0 50 50" style="enable-background:new 0 0 50 50;" xml:space="preserve">
<style type="text/css">
	.st0{fill:#8C47DF;}
	.st1{fill:none;}
	.st2{fill:#D5C7EA;}
	.st3{fill:#C6A8EE;}
</style>
<g>
	<path class="st0" d="M42.1,2.1H8.4c-3.1,0-5.6,2.5-5.6,5.6v31.3v2.5c0,3.1,2.5,5.6,5.6,5.6h0h33.7h0c1,0,1.9-0.2,2.7-0.7
		c1.7-0.9,2.9-2.8,2.9-4.9V23.2V7.7C47.7,4.6,45.2,2.1,42.1,2.1z"/>
	<path class="st1" d="M20.9,31.9h1.3c0.5,0,0.9-0.4,0.9-0.9l0-1.7c-0.6,0-1.2-0.1-1.7-0.1h-1.3L20.9,31.9z"/>
	<polygon class="st1" points="18.8,47 22.6,47 17.6,29.1 12.1,29.1 	"/>
	<path class="st1" d="M21.5,26.2c-0.7,0-1.2-0.6-1.2-1.2v-9.2h-9.9c-1,0-1.7,0.8-1.7,1.7v7.4c0,1,0.8,1.7,1.7,1.7h11.2h0.1
		c0,0,0,0,0,0c6.8,0,15,2.7,19.6,6.3c0.1,0.1,0.3,0.1,0.4,0c0.1,0,0.2-0.1,0.2-0.3V9.8c0-0.2-0.1-0.3-0.2-0.3c-0.1,0-0.2-0.1-0.4,0
		c-4.3,3.4-11.9,5.9-18.5,6.2v9.2C22.7,25.6,22.2,26.2,21.5,26.2z M17,23.7h-5.2c-0.1,0-0.2-0.1-0.2-0.2s0.1-0.2,0.2-0.2H17
		c0.1,0,0.2,0.1,0.2,0.2S17.2,23.7,17,23.7z M17,19.2h-5.2c-0.1,0-0.2-0.1-0.2-0.2s0.1-0.2,0.2-0.2H17c0.1,0,0.2,0.1,0.2,0.2
		S17.2,19.2,17,19.2z"/>
	<path class="st2" d="M21.5,26.6c0.1,0,0.1,0,0.2,0c0,0,0,0,0,0H21.5z"/>
	<g>
		<g>
			<path class="st3" d="M17,18.7h-5.2c-0.1,0-0.2,0.1-0.2,0.2s0.1,0.2,0.2,0.2H17c0.1,0,0.2-0.1,0.2-0.2S17.2,18.7,17,18.7z"/>
			<path class="st3" d="M17,23.2h-5.2c-0.1,0-0.2,0.1-0.2,0.2s0.1,0.2,0.2,0.2H17c0.1,0,0.2-0.1,0.2-0.2S17.2,23.2,17,23.2z"/>
			<path class="st3" d="M42.7,7.2c-1-0.5-2.1-0.4-3,0.3c-4.2,3.3-11.9,5.7-18.2,5.7H10.3c-2.3,0-4.2,1.9-4.2,4.2v7.4
				c0,2,1.4,3.7,3.3,4.1L16.1,47h2.7l-6.7-17.8h5.4l5,17.8h2.6l-3.6-12.6h0.6c1.9,0,3.4-1.5,3.4-3.4l0-1.5c5.2,0.8,10.7,2.8,14,5.4
				c0.5,0.4,1.1,0.6,1.7,0.6c0.4,0,0.9-0.1,1.3-0.3c1-0.5,1.6-1.5,1.6-2.6V9.8C44.3,8.7,43.7,7.7,42.7,7.2z M23.2,30.9
				c0,0.5-0.4,0.9-0.9,0.9h-1.3l-0.8-2.7h1.3c0.6,0,1.1,0,1.7,0.1L23.2,30.9z M41.8,32.6c0,0.2-0.1,0.3-0.2,0.3
				c-0.1,0-0.2,0.1-0.4,0c-4.6-3.6-12.8-6.2-19.6-6.3c-0.1,0-0.1,0-0.2,0H10.3c-1,0-1.7-0.8-1.7-1.7v-7.4c0-1,0.8-1.7,1.7-1.7h9.9
				v9.2c0,0.7,0.6,1.2,1.2,1.2s1.2-0.6,1.2-1.2v-9.2c6.6-0.3,14.2-2.8,18.5-6.2c0.1-0.1,0.3-0.1,0.4,0c0.1,0,0.2,0.1,0.2,0.3V32.6z"
				/>
		</g>
	</g>
</g>
</svg>
