<?xml version="1.0" encoding="utf-8"?>
<!-- Generator: Adobe Illustrator 27.5.0, SVG Export Plug-In . SVG Version: 6.00 Build 0)  -->
<svg version="1.1" id="Camada_3" xmlns="http://www.w3.org/2000/svg" xmlns:xlink="http://www.w3.org/1999/xlink" x="0px" y="0px"
	 viewBox="0 0 50 50" style="enable-background:new 0 0 50 50;" xml:space="preserve">
<style type="text/css">
	.st0{fill:#7726D5;}
	.st1{fill:#B68AF3;}
</style>
<g>
	<g>
		<g>
			<path class="st0" d="M33.4,11.5c0-0.3-0.2-0.6-0.6-0.6h-2.3c-0.6,0-1-0.4-1-1V8.4c0-0.3-0.2-0.6-0.6-0.6h-6.2
				c-0.3,0-0.6,0.2-0.6,0.6V10c0,0.6-0.4,1-1,1h-2.3c-0.3,0-0.6,0.2-0.6,0.6v1.3h15.1V11.5z"/>
		</g>
		<g>
			<g>
				<path class="st0" d="M41.2,3H7.5C4.4,3,1.9,5.5,1.9,8.6v31.3v2.5c0,3.1,2.5,5.6,5.6,5.6l0,0h0.3v-34c0-1.4,1.1-2.6,2.6-2.6h3.9
					c0.6,0,1,0.4,1,1s-0.4,1-1,1h-3.9c-0.3,0-0.6,0.3-0.6,0.6v34h31.4l0,0c0.3,0,0.5,0,0.8-0.1V13.9c0-0.3-0.3-0.6-0.6-0.6h-3.9
					c-0.6,0-1-0.4-1-1s0.4-1,1-1h3.9c1.4,0,2.6,1.1,2.6,2.6v33.3c1.7-1,2.8-2.8,2.8-4.8V24.1V8.6C46.8,5.5,44.3,3,41.2,3z
					 M16.3,11.5c0-1.4,1.1-2.6,2.6-2.6h1.3V8.4c0-1.4,1.1-2.6,2.6-2.6H29c1.4,0,2.6,1.1,2.6,2.6V9h1.3c1.4,0,2.6,1.1,2.6,2.6v2.3
					c0,0.6-0.4,1-1,1H17.3c-0.6,0-1-0.4-1-1V11.5z M15.4,23.6c-0.2-0.2-0.2-0.5,0-0.7s0.5-0.2,0.7,0l2,2l2-2c0.2-0.2,0.5-0.2,0.7,0
					s0.2,0.5,0,0.7l-2,2l2,2c0.2,0.2,0.2,0.5,0,0.7c-0.1,0.1-0.2,0.1-0.4,0.1s-0.3,0-0.4-0.1l-2-2l-2,2c-0.1,0.1-0.2,0.1-0.4,0.1
					s-0.3,0-0.4-0.1c-0.2-0.2-0.2-0.5,0-0.7l2-2L15.4,23.6z M30.7,35l-1.5-3.7c-3.1,5.4-7.7,9.8-13.2,12.8c-0.1,0-0.2,0.1-0.2,0.1
					c-0.2,0-0.3-0.1-0.4-0.3c-0.1-0.2,0-0.5,0.2-0.7c5.3-2.9,9.7-7.2,12.8-12.4l-3.8,0.7c-0.3,0-0.5-0.1-0.6-0.4
					c0-0.3,0.1-0.5,0.4-0.6l4.9-0.8c0,0,0.1,0,0.1,0c0,0,0,0,0.1,0c0.1,0,0.2,0.1,0.3,0.2c0,0,0,0,0,0.1c0,0,0,0,0,0.1l1.9,4.6
					c0.1,0.3,0,0.5-0.3,0.7c-0.1,0-0.1,0-0.2,0C31,35.3,30.8,35.2,30.7,35z M36.6,43.9c0.2,0.2,0.2,0.5,0,0.7
					c-0.1,0.1-0.2,0.1-0.4,0.1s-0.3,0-0.4-0.1l-2-2l-2,2c-0.1,0.1-0.2,0.1-0.4,0.1s-0.3,0-0.4-0.1c-0.2-0.2-0.2-0.5,0-0.7l2-2l-2-2
					c-0.2-0.2-0.2-0.5,0-0.7s0.5-0.2,0.7,0l2,2l2-2c0.2-0.2,0.5-0.2,0.7,0s0.2,0.5,0,0.7l-2,2L36.6,43.9z M38,22.4
					c0,2-1.6,3.6-3.6,3.6s-3.6-1.6-3.6-3.6c0-2,1.6-3.6,3.6-3.6S38,20.4,38,22.4z"/>
			</g>
		</g>
		<g>
			<path class="st0" d="M31.8,22.4c0,1.4,1.2,2.6,2.6,2.6s2.6-1.2,2.6-2.6c0-1.4-1.2-2.6-2.6-2.6S31.8,21,31.8,22.4z"/>
		</g>
	</g>
</g>
<g>
	<g>
		<g>
			<path class="st1" d="M41.4,11.3h-3.9c-0.6,0-1,0.4-1,1s0.4,1,1,1h3.9c0.3,0,0.6,0.3,0.6,0.6v33.9c0.7-0.1,1.3-0.3,1.9-0.6
				c0,0,0.1,0,0.1-0.1V13.9C44,12.5,42.8,11.3,41.4,11.3z"/>
		</g>
		<g>
			<path class="st1" d="M9.8,13.9c0-0.3,0.3-0.6,0.6-0.6h3.9c0.6,0,1-0.4,1-1s-0.4-1-1-1h-3.9c-1.4,0-2.6,1.1-2.6,2.6v34h2V13.9z"/>
		</g>
		<g>
			<g>
				<path class="st1" d="M17.3,14.9h17.1c0.6,0,1-0.4,1-1v-2.3c0-1.4-1.1-2.6-2.6-2.6h-1.3V8.4c0-1.4-1.1-2.6-2.6-2.6h-6.2
					c-1.4,0-2.6,1.1-2.6,2.6V9h-1.3c-1.4,0-2.6,1.1-2.6,2.6v2.3C16.3,14.4,16.8,14.9,17.3,14.9z M18.3,11.5c0-0.3,0.2-0.6,0.6-0.6
					h2.3c0.6,0,1-0.4,1-1V8.4c0-0.3,0.2-0.6,0.6-0.6H29c0.3,0,0.6,0.2,0.6,0.6V10c0,0.6,0.4,1,1,1h2.3c0.3,0,0.6,0.2,0.6,0.6v1.3
					H18.3V11.5z"/>
			</g>
		</g>
		<g>
			<g>
				<path class="st1" d="M30.8,22.4c0,2,1.6,3.6,3.6,3.6s3.6-1.6,3.6-3.6c0-2-1.6-3.6-3.6-3.6S30.8,20.4,30.8,22.4z M37,22.4
					c0,1.4-1.2,2.6-2.6,2.6s-2.6-1.2-2.6-2.6c0-1.4,1.2-2.6,2.6-2.6S37,21,37,22.4z"/>
			</g>
		</g>
		<g>
			<path class="st1" d="M15.4,28.2c0.1,0.1,0.2,0.1,0.4,0.1s0.3,0,0.4-0.1l2-2l2,2c0.1,0.1,0.2,0.1,0.4,0.1s0.3,0,0.4-0.1
				c0.2-0.2,0.2-0.5,0-0.7l-2-2l2-2c0.2-0.2,0.2-0.5,0-0.7s-0.5-0.2-0.7,0l-2,2l-2-2c-0.2-0.2-0.5-0.2-0.7,0s-0.2,0.5,0,0.7l2,2
				l-2,2C15.2,27.7,15.2,28,15.4,28.2z"/>
		</g>
		<g>
			<path class="st1" d="M36.6,39.2c-0.2-0.2-0.5-0.2-0.7,0l-2,2l-2-2c-0.2-0.2-0.5-0.2-0.7,0s-0.2,0.5,0,0.7l2,2l-2,2
				c-0.2,0.2-0.2,0.5,0,0.7c0.1,0.1,0.2,0.1,0.4,0.1s0.3,0,0.4-0.1l2-2l2,2c0.1,0.1,0.2,0.1,0.4,0.1s0.3,0,0.4-0.1
				c0.2-0.2,0.2-0.5,0-0.7l-2-2l2-2C36.8,39.7,36.8,39.4,36.6,39.2z"/>
		</g>
		<g>
			<path class="st1" d="M31.4,35.3c0.3-0.1,0.4-0.4,0.3-0.7L29.8,30c0,0,0-0.1,0-0.1c0,0,0,0,0-0.1c-0.1-0.1-0.2-0.2-0.3-0.2
				c0,0,0,0-0.1,0c0,0-0.1,0-0.1,0l-4.9,0.8c-0.3,0-0.5,0.3-0.4,0.6c0,0.3,0.3,0.5,0.6,0.4l3.8-0.7c-3.1,5.2-7.5,9.5-12.8,12.4
				c-0.2,0.1-0.3,0.4-0.2,0.7c0.1,0.2,0.3,0.3,0.4,0.3c0.1,0,0.2,0,0.2-0.1c5.5-3,10.1-7.4,13.2-12.8l1.5,3.7
				c0.1,0.2,0.3,0.3,0.5,0.3C31.3,35.3,31.3,35.3,31.4,35.3z"/>
		</g>
	</g>
</g>
</svg>
