<svg xmlns="http://www.w3.org/2000/svg" id="Camada_3" x="0" y="0" version="1.1" viewBox="0 0 50 50" xml:space="preserve"><style>.st0{fill:#4b187b}.st1{fill:#895bd3}</style><path d="M34.6 11.1c0-.3-.2-.6-.6-.6h-2.3c-.6 0-1-.4-1-1V8c0-.3-.2-.6-.6-.6H24c-.3 0-.6.2-.6.6v1.6c0 .6-.4 1-1 1h-2.3c-.3 0-.6.2-.6.6v1.3h15.1v-1.4z" class="st0"/><path d="M42.4 2.6H8.7c-3.1 0-5.6 2.5-5.6 5.6V42c0 3.1 2.5 5.6 5.6 5.6H9v-34c0-1.4 1.1-2.6 2.6-2.6h3.9c.6 0 1 .4 1 1s-.4 1-1 1h-3.9c-.3 0-.6.3-.6.6v34h31.4c.3 0 .5 0 .8-.1V13.4c0-.3-.3-.6-.6-.6h-3.9c-.6 0-1-.4-1-1s.4-1 1-1h3.9c1.4 0 2.6 1.1 2.6 2.6v33.3c1.7-1 2.8-2.8 2.8-4.8V8.1c0-3-2.5-5.5-5.6-5.5zm-24.9 8.5c0-1.4 1.1-2.6 2.6-2.6h1.3V8c0-1.4 1.1-2.6 2.6-2.6h6.2c1.4 0 2.6 1.1 2.6 2.6v.6h1.3c1.4 0 2.6 1.1 2.6 2.6v2.3c0 .6-.4 1-1 1H18.5c-.6 0-1-.4-1-1v-2.4zm-.9 12c-.2-.2-.2-.5 0-.7s.5-.2.7 0l2 2 2-2c.2-.2.5-.2.7 0s.2.5 0 .7l-2 2 2 2c.2.2.2.5 0 .7-.1.1-.2.1-.4.1s-.3 0-.4-.1l-2-2-2 2c-.1.1-.2.1-.4.1s-.3 0-.4-.1c-.2-.2-.2-.5 0-.7l2-2-1.8-2zm15.3 11.5l-1.5-3.7c-3.1 5.4-7.7 9.8-13.2 12.8-.1 0-.2.1-.2.1-.2 0-.3-.1-.4-.3-.1-.2 0-.5.2-.7 5.3-2.9 9.7-7.2 12.8-12.4l-3.8.7c-.3 0-.5-.1-.6-.4 0-.3.1-.5.4-.6l4.9-.8h.2c.1 0 .2.1.3.2v.2l1.9 4.6c.1.3 0 .5-.3.7h-.2c-.2-.1-.4-.2-.5-.4zm5.9 8.8c.2.2.2.5 0 .7-.1.1-.2.1-.4.1s-.3 0-.4-.1l-2-2-2 2c-.1.1-.2.1-.4.1s-.3 0-.4-.1c-.2-.2-.2-.5 0-.7l2-2-2-2c-.2-.2-.2-.5 0-.7s.5-.2.7 0l2 2 2-2c.2-.2.5-.2.7 0s.2.5 0 .7l-2 2 2.2 2zM39.3 22c0 2-1.6 3.6-3.6 3.6S32 24 32 22s1.6-3.6 3.6-3.6 3.7 1.6 3.7 3.6z" class="st0"/><path d="M33 22c0 1.4 1.2 2.6 2.6 2.6s2.6-1.2 2.6-2.6c0-1.4-1.2-2.6-2.6-2.6S33 20.5 33 22z" class="st0"/><path d="M42.6 10.9h-3.9c-.6 0-1 .4-1 1s.4 1 1 1h3.9c.3 0 .6.3.6.6v33.9c.7-.1 1.3-.3 1.9-.6 0 0 .1 0 .1-.1V13.4c0-1.4-1.2-2.5-2.6-2.5zM11 13.4c0-.3.3-.6.6-.6h3.9c.6 0 1-.4 1-1s-.4-1-1-1h-3.9C10.1 10.9 9 12 9 13.4v34h2v-34zm7.5 1h17.1c.6 0 1-.4 1-1v-2.3c0-1.4-1.1-2.6-2.6-2.6h-1.3V8c0-1.4-1.1-2.6-2.6-2.6H24c-1.4 0-2.6 1.1-2.6 2.6v.6h-1.3c-1.4 0-2.6 1.1-2.6 2.6v2.3c0 .5.5.9 1 .9zm1-3.3c0-.3.2-.6.6-.6h2.3c.6 0 1-.4 1-1V8c0-.3.2-.6.6-.6h6.2c.3 0 .6.2.6.6v1.6c0 .6.4 1 1 1h2.3c.3 0 .6.2.6.6v1.3H19.5v-1.4z" class="st1"/><path d="M32 22c0 2 1.6 3.6 3.6 3.6s3.6-1.6 3.6-3.6-1.6-3.6-3.6-3.6S32 20 32 22zm6.3 0c0 1.4-1.2 2.6-2.6 2.6S33 23.4 33 22c0-1.4 1.2-2.6 2.6-2.6s2.7 1.1 2.7 2.6zm-21.7 5.8c.1.1.2.1.4.1s.3 0 .4-.1l2-2 2 2c.1.1.2.1.4.1s.3 0 .4-.1c.2-.2.2-.5 0-.7l-2-2 2-2c.2-.2.2-.5 0-.7s-.5-.2-.7 0l-2 2-2-2c-.2-.2-.5-.2-.7 0s-.2.5 0 .7l2 2-2 2c-.4.2-.4.5-.2.7zm21.2 11c-.2-.2-.5-.2-.7 0l-2 2-2-2c-.2-.2-.5-.2-.7 0s-.2.5 0 .7l2 2-2 2c-.2.2-.2.5 0 .7.1.1.2.1.4.1s.3 0 .4-.1l2-2 2 2c.1.1.2.1.4.1s.3 0 .4-.1c.2-.2.2-.5 0-.7l-2-2 2-2c0-.2 0-.5-.2-.7zm-5.2-3.9c.3-.1.4-.4.3-.7L31 29.6v-.2c-.1-.1-.2-.2-.3-.2h-.2l-4.9.8c-.3 0-.5.3-.4.6 0 .3.3.5.6.4l3.8-.7c-3.1 5.2-7.5 9.5-12.8 12.4-.2.1-.3.4-.2.7.1.2.3.3.4.3.1 0 .2 0 .2-.1 5.5-3 10.1-7.4 13.2-12.8l1.5 3.7c.1.2.3.3.5.3.1.1.1.1.2.1z" class="st1"/></svg>