<?xml version="1.0" encoding="utf-8"?>
<!-- Generator: Adobe Illustrator 27.5.0, SVG Export Plug-In . SVG Version: 6.00 Build 0)  -->
<svg version="1.1" id="Camada_3" xmlns="http://www.w3.org/2000/svg" xmlns:xlink="http://www.w3.org/1999/xlink" x="0px" y="0px"
	 viewBox="0 0 50 50" style="enable-background:new 0 0 50 50;" xml:space="preserve">
<style type="text/css">
	.st0{fill:#6821B7;}
	.st1{fill:none;}
	.st2{fill:#D5C7EA;}
	.st3{fill:#A169E9;}
</style>
<g>
	<path class="st0" d="M40.9,3H7.1C4.1,3,1.6,5.5,1.6,8.6v31.3v2.5c0,3.1,2.5,5.6,5.6,5.6h0h33.7h0c1,0,1.9-0.2,2.7-0.7
		c1.7-0.9,2.9-2.8,2.9-4.9V24.1V8.6C46.4,5.5,43.9,3,40.9,3z"/>
	<path class="st1" d="M19.7,32.8H21c0.5,0,0.9-0.4,0.9-0.9l0-1.7c-0.6,0-1.2-0.1-1.7-0.1H19L19.7,32.8z"/>
	<polygon class="st1" points="17.6,47.9 21.4,47.9 16.4,30 10.9,30 	"/>
	<path class="st1" d="M20.3,27.1c-0.7,0-1.2-0.6-1.2-1.2v-9.2H9.1c-1,0-1.7,0.8-1.7,1.7v7.4c0,1,0.8,1.7,1.7,1.7h11.2h0.1
		c0,0,0,0,0,0c6.8,0,15,2.7,19.6,6.3c0.1,0.1,0.3,0.1,0.4,0c0.1,0,0.2-0.1,0.2-0.3V10.7c0-0.2-0.1-0.3-0.2-0.3c-0.1,0-0.2-0.1-0.4,0
		c-4.3,3.4-11.9,5.9-18.5,6.2v9.2C21.5,26.5,21,27.1,20.3,27.1z M15.8,24.6h-5.2c-0.1,0-0.2-0.1-0.2-0.2s0.1-0.2,0.2-0.2h5.2
		c0.1,0,0.2,0.1,0.2,0.2S16,24.6,15.8,24.6z M15.8,20.1h-5.2c-0.1,0-0.2-0.1-0.2-0.2s0.1-0.2,0.2-0.2h5.2c0.1,0,0.2,0.1,0.2,0.2
		S16,20.1,15.8,20.1z"/>
	<path class="st2" d="M20.3,27.5c0.1,0,0.1,0,0.2,0c0,0,0,0,0,0H20.3z"/>
	<g>
		<g>
			<path class="st3" d="M15.8,19.6h-5.2c-0.1,0-0.2,0.1-0.2,0.2s0.1,0.2,0.2,0.2h5.2c0.1,0,0.2-0.1,0.2-0.2S16,19.6,15.8,19.6z"/>
			<path class="st3" d="M15.8,24.1h-5.2c-0.1,0-0.2,0.1-0.2,0.2s0.1,0.2,0.2,0.2h5.2c0.1,0,0.2-0.1,0.2-0.2S16,24.1,15.8,24.1z"/>
			<path class="st3" d="M41.5,8.1c-1-0.5-2.1-0.4-3,0.3c-4.2,3.3-11.9,5.7-18.2,5.7H9.1c-2.3,0-4.2,1.9-4.2,4.2v7.4
				c0,2,1.4,3.7,3.3,4.1l6.7,17.9h2.7L10.9,30h5.4l5,17.8H24l-3.6-12.6H21c1.9,0,3.4-1.5,3.4-3.4l0-1.5c5.2,0.8,10.7,2.8,14,5.4
				c0.5,0.4,1.1,0.6,1.7,0.6c0.4,0,0.9-0.1,1.3-0.3c1-0.5,1.6-1.5,1.6-2.6V10.7C43.1,9.6,42.5,8.6,41.5,8.1z M22,31.8
				c0,0.5-0.4,0.9-0.9,0.9h-1.3L19,30h1.3c0.6,0,1.1,0,1.7,0.1L22,31.8z M40.6,33.5c0,0.2-0.1,0.3-0.2,0.3c-0.1,0-0.2,0.1-0.4,0
				c-4.6-3.6-12.8-6.2-19.6-6.3c-0.1,0-0.1,0-0.2,0H9.1c-1,0-1.7-0.8-1.7-1.7v-7.4c0-1,0.8-1.7,1.7-1.7H19v9.2
				c0,0.7,0.6,1.2,1.2,1.2s1.2-0.6,1.2-1.2v-9.2c6.6-0.3,14.2-2.8,18.5-6.2c0.1-0.1,0.3-0.1,0.4,0c0.1,0,0.2,0.1,0.2,0.3V33.5z"/>
		</g>
	</g>
</g>
</svg>
