<svg xmlns="http://www.w3.org/2000/svg" id="Camada_3" x="0" y="0" version="1.1" viewBox="0 0 50 50" xml:space="preserve"><style>.st0{fill:#6821b7}.st1{fill:#a169e9}</style><path d="M45.7 42.2c0-1.5-1.2-2.7-2.7-2.7-1.5 0-2.7 1.2-2.7 2.7 0 1.5 1.2 2.7 2.7 2.7 1.5.1 2.7-1.2 2.7-2.7z" class="st0"/><path d="M11.8 42.4h20c.6 0 1.1.5 1.1 1.1 0 .6-.5 1.1-1.1 1.1H10.7c-.6 0-1.1-.5-1.1-1.1v-31c0-2.1 1.7-3.8 3.8-3.8h35.1v-.3c0-3.1-2.5-5.6-5.6-5.6H9.1C6 2.8 3.5 5.3 3.5 8.4v33.8c0 3.1 2.5 5.6 5.6 5.6h28.1c-.4-.4-.7-.8-1-1.3l-1.2.2-.2-.4c-.6-1.3-.9-2.6-.9-4v-.6l.4-.2.9-.2c.1-.6.2-1.2.4-1.8l-1.1-.9.2-.4c.6-1.3 1.5-2.4 2.7-3.3l.4-.3 1.1.9c.5-.3 1-.6 1.6-.8v-1.4l.4-.1c.7-.2 1.4-.3 2.1-.3.7 0 1.4.1 2.1.3l.4.1v1.4c.6.2 1.1.5 1.6.8l1.1-.9.2.2V19H11.8v23.4zm7.5-11.9c.6 0 1.1.3 1.4.6l2.7-1.2v-.2c0-1 .8-1.9 1.9-1.9s1.9.8 1.9 1.9l2.5.8c.3-.5.9-.8 1.5-.8.4 0 .8.1 1.1.3l3.1-2.4c-.1-.2-.1-.4-.1-.7 0-1 .8-1.9 1.9-1.9.7 0 1.3.4 1.6.9l2.4-.5c.1-1 .9-1.7 1.9-1.7 1 0 1.9.8 1.9 1.9s-1 2-2 2c-.7 0-1.3-.4-1.6-.9l-2.4.5c-.1 1-.9 1.7-1.9 1.7-.4 0-.8-.1-1.1-.3L32.9 31c.1.2.1.4.1.7 0 1-.8 1.9-1.9 1.9s-1.9-.8-1.9-1.9l-2.5-.8c-.3.5-.9.8-1.5.8s-1.1-.3-1.4-.6l-2.7 1.2v.2c0 1-.8 1.9-1.9 1.9-1 0-1.9-.8-1.9-1.9.1-1.2.9-2 2-2z" class="st0"/><path d="M11.8 12.6v4.1h36.6V11H13.3c-.8.1-1.5.7-1.5 1.6zm14.7-.6c1 0 1.9.8 1.9 1.9s-.8 1.9-1.9 1.9-1.9-.8-1.9-1.9.9-1.9 1.9-1.9zm-5.2 0c1 0 1.9.8 1.9 1.9s-.8 1.9-1.9 1.9-1.9-.8-1.9-1.9.8-1.9 1.9-1.9zM16 12c1 0 1.9.8 1.9 1.9s-.9 1.9-1.9 1.9-1.9-.8-1.9-1.9.8-1.9 1.9-1.9zm26.8 35.7c1 0 1.9-.2 2.7-.7 1.7-.9 2.9-2.8 2.9-4.9v-5.7l-.2-.2-1 .8-.4-.3c-.6-.4-1.3-.8-2-1l-.4-.1v-1.3c-1-.2-1.9-.2-2.8 0v1.3l-.4.1c-.7.2-1.4.5-2 1l-.4.3-1-.8c-.7.6-1.3 1.4-1.8 2.2l1 .8-.2.4c-.3.7-.5 1.4-.5 2.2v.4l-1.3.4c0 1 .2 1.9.6 2.8l1.3-.3.2.4c.3.7.8 1.3 1.4 1.8l.3.3v.1h4zm-3.7-5.5c0-2.1 1.7-3.9 3.9-3.9 2.1 0 3.9 1.7 3.9 3.9 0 2.1-1.7 3.9-3.9 3.9-2.1 0-3.9-1.7-3.9-3.9z" class="st0"/><path d="M16 14.6c.4 0 .8-.3.8-.8s-.3-.8-.8-.8c-.4 0-.8.3-.8.8s.4.8.8.8z" class="st0"/><circle cx="26.5" cy="13.9" r=".8" class="st0"/><circle cx="21.3" cy="13.9" r=".8" class="st0"/><path d="M19.3 33.1c.4 0 .8-.3.8-.8 0-.4-.3-.8-.8-.8-.4 0-.8.3-.8.8s.4.8.8.8zm11.8-.7c.4 0 .8-.3.8-.8 0-.4-.3-.8-.8-.8s-.8.3-.8.8c.1.5.4.8.8.8zm6-4.6c.4 0 .8-.3.8-.8 0-.4-.3-.8-.8-.8-.4 0-.8.3-.8.8s.4.8.8.8zm-11.9 2.7c.4 0 .8-.3.8-.8s-.3-.8-.8-.8-.8.3-.8.8.4.8.8.8zm17.8-4c.4 0 .8-.3.8-.8 0-.4-.3-.8-.8-.8-.4 0-.8.3-.8.8s.4.8.8.8z" class="st0"/><path d="M16 15.8c1 0 1.9-.8 1.9-1.9S17 12 16 12s-1.9.8-1.9 1.9.8 1.9 1.9 1.9zm0-2.7c.4 0 .8.3.8.8s-.3.8-.8.8c-.4 0-.8-.3-.8-.8s.4-.8.8-.8zm5.3 2.7c1 0 1.9-.8 1.9-1.9s-.9-1.9-1.9-1.9-1.9.8-1.9 1.9.8 1.9 1.9 1.9zm0-2.7c.4 0 .8.3.8.8s-.3.8-.8.8-.8-.3-.8-.8.3-.8.8-.8zm5.2 2.7c1 0 1.9-.8 1.9-1.9s-.8-1.9-1.9-1.9-1.9.8-1.9 1.9.9 1.9 1.9 1.9zm0-2.7c.4 0 .8.3.8.8s-.3.8-.8.8-.8-.3-.8-.8.4-.8.8-.8z" class="st1"/><path d="M11.8 16.7v-4.1c0-.8.7-1.5 1.5-1.5h35.1V8.8H13.3c-2.1 0-3.8 1.7-3.8 3.8v31c0 .6.5 1.1 1.1 1.1h21.1c.6 0 1.1-.5 1.1-1.1 0-.6-.5-1.1-1.1-1.1h-20V19h36.6v-2.3H11.8z" class="st1"/><path d="M19.3 34.2c1 0 1.9-.8 1.9-1.9v-.2l2.7-1.2c.3.4.8.6 1.4.6.6 0 1.2-.3 1.5-.8l2.5.8c0 1 .8 1.9 1.9 1.9s1.9-.8 1.9-1.9c0-.2 0-.4-.1-.7l3.1-2.4c.3.2.7.3 1.1.3 1 0 1.8-.8 1.9-1.7l2.4-.5c.3.6.9.9 1.6.9 1 0 1.9-.8 1.9-1.9s-1-1.6-2-1.6-1.8.8-1.9 1.7l-2.4.5c-.3-.6-.9-.9-1.6-.9-1 0-1.9.8-1.9 1.9 0 .2 0 .4.1.7l-3.1 2.4c-.3-.2-.7-.3-1.1-.3-.6 0-1.2.3-1.5.8l-2.5-.8c0-1-.8-1.9-1.9-1.9s-1.9.8-1.9 1.9v.2l-2.7 1.2c-.3-.4-.8-.6-1.4-.6-1 0-1.9.8-1.9 1.9.1.8.9 1.6 2 1.6zM43 25c.4 0 .8.3.8.8 0 .4-.3.8-.8.8-.4 0-.8-.3-.8-.8s.4-.8.8-.8zm-5.9 1.3c.4 0 .8.3.8.8 0 .4-.3.8-.8.8-.4 0-.8-.3-.8-.8 0-.4.4-.8.8-.8zm-6 4.6c.4 0 .8.3.8.8 0 .4-.3.8-.8.8s-.8-.3-.8-.8c.1-.4.4-.8.8-.8zm-5.9-2c.4 0 .8.3.8.8s-.3.8-.8.8-.8-.3-.8-.8.4-.8.8-.8zm-5.9 2.7c.4 0 .8.3.8.8 0 .4-.3.8-.8.8-.4 0-.8-.3-.8-.8s.4-.8.8-.8zm27.8 4c-.5-.3-1-.6-1.6-.8v-1.4l-.4-.1c-.7-.2-1.4-.3-2.1-.3-.7 0-1.4.1-2.1.3l-.4.1v1.4c-.6.2-1.1.5-1.6.8l-1.1-.9-.4.3c-1.1.9-2 2-2.7 3.3l-.2.4 1.1.9c-.2.6-.3 1.2-.4 1.8l-.9.2-.4.2v.6c0 1.4.3 2.7.9 4l.2.4 1.4-.3c.3.5.6.9 1 1.3h1.5v-.1l-.3-.3c-.6-.5-1-1.1-1.4-1.8l-.2-.4-1.3.3c-.4-.9-.6-1.8-.6-2.8l1.3-.3V42c.1-.8.2-1.5.5-2.2l.2-.4-1-.8c.5-.8 1.1-1.6 1.8-2.2l1 .8.4-.3c.6-.4 1.3-.8 2-1l.4-.1v-1.3c.9-.2 1.9-.2 2.8 0v1.3l.4.1c.7.2 1.4.5 2 1l.4.3 1-.8.2.2v-1.5l-.2-.2-1.2.7z" class="st1"/><path d="M46.9 42.2c0-2.1-1.7-3.9-3.9-3.9-2.1 0-3.9 1.7-3.9 3.9 0 2.1 1.7 3.9 3.9 3.9 2.1 0 3.9-1.7 3.9-3.9zm-6.6 0c0-1.5 1.2-2.7 2.7-2.7 1.5 0 2.7 1.2 2.7 2.7 0 1.5-1.2 2.7-2.7 2.7-1.5.1-2.7-1.2-2.7-2.7z" class="st1"/></svg>