<?xml version="1.0" encoding="utf-8"?>
<!-- Generator: Adobe Illustrator 27.5.0, SVG Export Plug-In . SVG Version: 6.00 Build 0)  -->
<svg version="1.1" id="Camada_3" xmlns="http://www.w3.org/2000/svg" xmlns:xlink="http://www.w3.org/1999/xlink" x="0px" y="0px"
	 viewBox="0 0 50 50" style="enable-background:new 0 0 50 50;" xml:space="preserve">
<style type="text/css">
	.st0{fill:#4B187B;}
	.st1{fill:#895BD3;}
</style>
<g>
	<g>
		<g>
			<path class="st0" d="M34.6,11.1c0-0.3-0.2-0.6-0.6-0.6h-2.3c-0.6,0-1-0.4-1-1V8c0-0.3-0.2-0.6-0.6-0.6H24c-0.3,0-0.6,0.2-0.6,0.6
				v1.6c0,0.6-0.4,1-1,1h-2.3c-0.3,0-0.6,0.2-0.6,0.6v1.3h15.1V11.1z"/>
		</g>
		<g>
			<g>
				<path class="st0" d="M42.4,2.6H8.7c-3.1,0-5.6,2.5-5.6,5.6v31.3v2.5c0,3.1,2.5,5.6,5.6,5.6l0,0H9v-34c0-1.4,1.1-2.6,2.6-2.6h3.9
					c0.6,0,1,0.4,1,1s-0.4,1-1,1h-3.9c-0.3,0-0.6,0.3-0.6,0.6v34h31.4l0,0c0.3,0,0.5,0,0.8-0.1V13.4c0-0.3-0.3-0.6-0.6-0.6h-3.9
					c-0.6,0-1-0.4-1-1s0.4-1,1-1h3.9c1.4,0,2.6,1.1,2.6,2.6v33.3c1.7-1,2.8-2.8,2.8-4.8V23.6V8.1C48,5.1,45.5,2.6,42.4,2.6z
					 M17.5,11.1c0-1.4,1.1-2.6,2.6-2.6h1.3V8c0-1.4,1.1-2.6,2.6-2.6h6.2c1.4,0,2.6,1.1,2.6,2.6v0.6h1.3c1.4,0,2.6,1.1,2.6,2.6v2.3
					c0,0.6-0.4,1-1,1H18.5c-0.6,0-1-0.4-1-1V11.1z M16.6,23.1c-0.2-0.2-0.2-0.5,0-0.7s0.5-0.2,0.7,0l2,2l2-2c0.2-0.2,0.5-0.2,0.7,0
					s0.2,0.5,0,0.7l-2,2l2,2c0.2,0.2,0.2,0.5,0,0.7c-0.1,0.1-0.2,0.1-0.4,0.1s-0.3,0-0.4-0.1l-2-2l-2,2c-0.1,0.1-0.2,0.1-0.4,0.1
					s-0.3,0-0.4-0.1c-0.2-0.2-0.2-0.5,0-0.7l2-2L16.6,23.1z M31.9,34.6l-1.5-3.7c-3.1,5.4-7.7,9.8-13.2,12.8c-0.1,0-0.2,0.1-0.2,0.1
					c-0.2,0-0.3-0.1-0.4-0.3c-0.1-0.2,0-0.5,0.2-0.7c5.3-2.9,9.7-7.2,12.8-12.4l-3.8,0.7c-0.3,0-0.5-0.1-0.6-0.4
					c0-0.3,0.1-0.5,0.4-0.6l4.9-0.8c0,0,0.1,0,0.1,0c0,0,0,0,0.1,0c0.1,0,0.2,0.1,0.3,0.2c0,0,0,0,0,0.1c0,0,0,0,0,0.1l1.9,4.6
					c0.1,0.3,0,0.5-0.3,0.7c-0.1,0-0.1,0-0.2,0C32.2,34.9,32,34.8,31.9,34.6z M37.8,43.4c0.2,0.2,0.2,0.5,0,0.7
					c-0.1,0.1-0.2,0.1-0.4,0.1s-0.3,0-0.4-0.1l-2-2l-2,2c-0.1,0.1-0.2,0.1-0.4,0.1s-0.3,0-0.4-0.1c-0.2-0.2-0.2-0.5,0-0.7l2-2l-2-2
					c-0.2-0.2-0.2-0.5,0-0.7s0.5-0.2,0.7,0l2,2l2-2c0.2-0.2,0.5-0.2,0.7,0s0.2,0.5,0,0.7l-2,2L37.8,43.4z M39.3,22
					c0,2-1.6,3.6-3.6,3.6S32,24,32,22c0-2,1.6-3.6,3.6-3.6S39.3,20,39.3,22z"/>
			</g>
		</g>
		<g>
			<path class="st0" d="M33,22c0,1.4,1.2,2.6,2.6,2.6s2.6-1.2,2.6-2.6c0-1.4-1.2-2.6-2.6-2.6S33,20.5,33,22z"/>
		</g>
	</g>
</g>
<g>
	<path class="st1" d="M42.6,10.9h-3.9c-0.6,0-1,0.4-1,1s0.4,1,1,1h3.9c0.3,0,0.6,0.3,0.6,0.6v33.9c0.7-0.1,1.3-0.3,1.9-0.6
		c0,0,0.1,0,0.1-0.1V13.4C45.2,12,44,10.9,42.6,10.9z"/>
	<path class="st1" d="M11,13.4c0-0.3,0.3-0.6,0.6-0.6h3.9c0.6,0,1-0.4,1-1s-0.4-1-1-1h-3.9C10.1,10.9,9,12,9,13.4v34h2V13.4z"/>
	<path class="st1" d="M18.5,14.4h17.1c0.6,0,1-0.4,1-1v-2.3c0-1.4-1.1-2.6-2.6-2.6h-1.3V8c0-1.4-1.1-2.6-2.6-2.6H24
		c-1.4,0-2.6,1.1-2.6,2.6v0.6h-1.3c-1.4,0-2.6,1.1-2.6,2.6v2.3C17.5,14,18,14.4,18.5,14.4z M19.5,11.1c0-0.3,0.2-0.6,0.6-0.6h2.3
		c0.6,0,1-0.4,1-1V8c0-0.3,0.2-0.6,0.6-0.6h6.2c0.3,0,0.6,0.2,0.6,0.6v1.6c0,0.6,0.4,1,1,1h2.3c0.3,0,0.6,0.2,0.6,0.6v1.3H19.5V11.1
		z"/>
	<path class="st1" d="M32,22c0,2,1.6,3.6,3.6,3.6s3.6-1.6,3.6-3.6c0-2-1.6-3.6-3.6-3.6S32,20,32,22z M38.3,22c0,1.4-1.2,2.6-2.6,2.6
		S33,23.4,33,22c0-1.4,1.2-2.6,2.6-2.6S38.3,20.5,38.3,22z"/>
	<path class="st1" d="M16.6,27.8c0.1,0.1,0.2,0.1,0.4,0.1s0.3,0,0.4-0.1l2-2l2,2c0.1,0.1,0.2,0.1,0.4,0.1s0.3,0,0.4-0.1
		c0.2-0.2,0.2-0.5,0-0.7l-2-2l2-2c0.2-0.2,0.2-0.5,0-0.7s-0.5-0.2-0.7,0l-2,2l-2-2c-0.2-0.2-0.5-0.2-0.7,0s-0.2,0.5,0,0.7l2,2l-2,2
		C16.4,27.3,16.4,27.6,16.6,27.8z"/>
	<path class="st1" d="M37.8,38.8c-0.2-0.2-0.5-0.2-0.7,0l-2,2l-2-2c-0.2-0.2-0.5-0.2-0.7,0s-0.2,0.5,0,0.7l2,2l-2,2
		c-0.2,0.2-0.2,0.5,0,0.7c0.1,0.1,0.2,0.1,0.4,0.1s0.3,0,0.4-0.1l2-2l2,2c0.1,0.1,0.2,0.1,0.4,0.1s0.3,0,0.4-0.1
		c0.2-0.2,0.2-0.5,0-0.7l-2-2l2-2C38,39.3,38,39,37.8,38.8z"/>
	<path class="st1" d="M32.6,34.9c0.3-0.1,0.4-0.4,0.3-0.7L31,29.6c0,0,0-0.1,0-0.1c0,0,0,0,0-0.1c-0.1-0.1-0.2-0.2-0.3-0.2
		c0,0,0,0-0.1,0c0,0-0.1,0-0.1,0l-4.9,0.8c-0.3,0-0.5,0.3-0.4,0.6c0,0.3,0.3,0.5,0.6,0.4l3.8-0.7c-3.1,5.2-7.5,9.5-12.8,12.4
		c-0.2,0.1-0.3,0.4-0.2,0.7c0.1,0.2,0.3,0.3,0.4,0.3c0.1,0,0.2,0,0.2-0.1c5.5-3,10.1-7.4,13.2-12.8l1.5,3.7c0.1,0.2,0.3,0.3,0.5,0.3
		C32.5,34.9,32.5,34.9,32.6,34.9z"/>
</g>
</svg>
