<?xml version="1.0" encoding="utf-8"?>
<!-- Generator: Adobe Illustrator 27.5.0, SVG Export Plug-In . SVG Version: 6.00 Build 0)  -->
<svg version="1.1" id="Camada_3" xmlns="http://www.w3.org/2000/svg" xmlns:xlink="http://www.w3.org/1999/xlink" x="0px" y="0px"
	 viewBox="0 0 50 50" style="enable-background:new 0 0 50 50;" xml:space="preserve">
<style type="text/css">
	.st0{fill:#4B187B;}
	.st1{fill:#895BD3;}
</style>
<g>
	<g>
		<g>
			<path class="st0" d="M45,42.4c0-1.5-1.2-2.7-2.7-2.7c-1.5,0-2.7,1.2-2.7,2.7c0,1.5,1.2,2.7,2.7,2.7C43.8,45.1,45,43.9,45,42.4z"
				/>
		</g>
		<g>
			<g>
				<g>
					<g>
						<path class="st0" d="M11.1,42.6h20c0.6,0,1.1,0.5,1.1,1.1c0,0.6-0.5,1.1-1.1,1.1H10c-0.6,0-1.1-0.5-1.1-1.1V18v-5.3
							c0-2.1,1.7-3.8,3.8-3.8h35.1V8.6c0-3.1-2.5-5.6-5.6-5.6H8.4C5.3,3,2.8,5.5,2.8,8.6v31.3v2.5c0,3.1,2.5,5.6,5.6,5.6h0h28.1
							c-0.4-0.4-0.7-0.8-1-1.3l-1.4,0.3L34,46.5c-0.6-1.3-0.9-2.6-0.9-4l0-0.6l0.4-0.2l0.9-0.2c0.1-0.6,0.2-1.2,0.4-1.8l-1.1-0.9
							l0.2-0.4c0.6-1.3,1.5-2.4,2.7-3.3l0.4-0.3l1.1,0.9c0.5-0.3,1-0.6,1.6-0.8v-1.4l0.4-0.1c0.7-0.2,1.4-0.3,2.1-0.3c0,0,0,0,0,0
							c0.7,0,1.4,0.1,2.1,0.3l0.4,0.1V35c0.6,0.2,1.1,0.5,1.6,0.8l1.1-0.9l0.2,0.2v-11v-4.9H11.1V42.6z M18.6,30.6
							c0.6,0,1.1,0.3,1.4,0.6l2.7-1.2c0-0.1,0-0.1,0-0.2c0-1,0.8-1.9,1.9-1.9s1.9,0.8,1.9,1.9c0,0,0,0,0,0l2.5,0.8
							c0.3-0.5,0.9-0.8,1.5-0.8c0.4,0,0.8,0.1,1.1,0.3l3.1-2.4c-0.1-0.2-0.1-0.4-0.1-0.7c0-1,0.8-1.9,1.9-1.9c0.7,0,1.3,0.4,1.6,0.9
							l2.4-0.5c0.1-1,0.9-1.7,1.9-1.7c1,0,1.9,0.8,1.9,1.9s-0.8,1.9-1.9,1.9c-0.7,0-1.3-0.4-1.6-0.9l-2.4,0.5
							c-0.1,1-0.9,1.7-1.9,1.7c-0.4,0-0.8-0.1-1.1-0.3l-3.1,2.4c0.1,0.2,0.1,0.4,0.1,0.7c0,1-0.8,1.9-1.9,1.9s-1.9-0.8-1.9-1.9
							c0,0,0,0,0,0L26,31c-0.3,0.5-0.9,0.8-1.5,0.8c-0.6,0-1.1-0.3-1.4-0.6l-2.7,1.2c0,0.1,0,0.1,0,0.2c0,1-0.8,1.9-1.9,1.9
							c-1,0-1.9-0.8-1.9-1.9C16.7,31.5,17.5,30.6,18.6,30.6z"/>
					</g>
				</g>
				<g>
					<g>
						<path class="st0" d="M11.1,12.7v4.1h36.6v-5.7H12.6C11.8,11.2,11.1,11.9,11.1,12.7z M25.8,12.2c1,0,1.9,0.8,1.9,1.9
							s-0.8,1.9-1.9,1.9s-1.9-0.8-1.9-1.9S24.8,12.2,25.8,12.2z M20.5,12.2c1,0,1.9,0.8,1.9,1.9s-0.8,1.9-1.9,1.9s-1.9-0.8-1.9-1.9
							S19.5,12.2,20.5,12.2z M15.3,12.2c1,0,1.9,0.8,1.9,1.9s-0.8,1.9-1.9,1.9s-1.9-0.8-1.9-1.9S14.2,12.2,15.3,12.2z"/>
					</g>
				</g>
				<g>
					<g>
						<path class="st0" d="M42.1,47.9c1,0,1.9-0.2,2.7-0.7c1.7-0.9,2.9-2.8,2.9-4.9v-5.7c-0.1-0.1-0.1-0.1-0.2-0.2l-1,0.8L46.1,37
							c-0.6-0.4-1.3-0.8-2-1l-0.4-0.1v-1.3c-1-0.2-1.9-0.2-2.8,0v1.3L40.5,36c-0.7,0.2-1.4,0.5-2,1l-0.4,0.3l-1-0.8
							c-0.7,0.6-1.3,1.4-1.8,2.2l1,0.8l-0.2,0.4c-0.3,0.7-0.5,1.4-0.5,2.2l0,0.4l-1.3,0.3c0,1,0.2,1.9,0.6,2.8l1.3-0.3l0.2,0.4
							c0.3,0.7,0.8,1.3,1.4,1.8l0.3,0.3l0,0.1H42.1L42.1,47.9z M38.4,42.4c0-2.1,1.7-3.9,3.9-3.9c2.1,0,3.9,1.7,3.9,3.9
							c0,2.1-1.7,3.9-3.9,3.9C40.2,46.3,38.4,44.5,38.4,42.4z"/>
					</g>
				</g>
				<g>
					<path class="st0" d="M15.3,14.8c0.4,0,0.8-0.3,0.8-0.8s-0.3-0.8-0.8-0.8c-0.4,0-0.8,0.3-0.8,0.8S14.8,14.8,15.3,14.8z"/>
				</g>
				<g>
					<circle class="st0" cx="25.8" cy="14.1" r="0.8"/>
				</g>
				<g>
					<circle class="st0" cx="20.5" cy="14.1" r="0.8"/>
				</g>
				<g>
					<path class="st0" d="M18.6,33.3c0.4,0,0.8-0.3,0.8-0.8c0-0.4-0.3-0.8-0.8-0.8c-0.4,0-0.8,0.3-0.8,0.8
						C17.8,32.9,18.1,33.3,18.6,33.3z"/>
				</g>
				<g>
					<path class="st0" d="M30.4,32.6c0.4,0,0.8-0.3,0.8-0.8c0-0.4-0.3-0.8-0.8-0.8s-0.8,0.3-0.8,0.8C29.7,32.3,30,32.6,30.4,32.6z"
						/>
				</g>
				<g>
					<path class="st0" d="M36.4,28c0.4,0,0.8-0.3,0.8-0.8c0-0.4-0.3-0.8-0.8-0.8c-0.4,0-0.8,0.3-0.8,0.8C35.6,27.7,35.9,28,36.4,28z
						"/>
				</g>
				<g>
					<path class="st0" d="M24.5,30.6c0.4,0,0.8-0.3,0.8-0.8s-0.3-0.8-0.8-0.8s-0.8,0.3-0.8,0.8S24.1,30.6,24.5,30.6z"/>
				</g>
				<g>
					<path class="st0" d="M42.3,26.7c0.4,0,0.8-0.3,0.8-0.8c0-0.4-0.3-0.8-0.8-0.8c-0.4,0-0.8,0.3-0.8,0.8
						C41.5,26.3,41.9,26.7,42.3,26.7z"/>
				</g>
			</g>
		</g>
	</g>
</g>
<g>
	<path class="st1" d="M15.3,15.9c1,0,1.9-0.8,1.9-1.9s-0.8-1.9-1.9-1.9s-1.9,0.8-1.9,1.9S14.2,15.9,15.3,15.9z M15.3,13.3
		c0.4,0,0.8,0.3,0.8,0.8s-0.3,0.8-0.8,0.8c-0.4,0-0.8-0.3-0.8-0.8S14.8,13.3,15.3,13.3z"/>
	<path class="st1" d="M20.5,15.9c1,0,1.9-0.8,1.9-1.9s-0.8-1.9-1.9-1.9s-1.9,0.8-1.9,1.9S19.5,15.9,20.5,15.9z M20.5,13.3
		c0.4,0,0.8,0.3,0.8,0.8s-0.3,0.8-0.8,0.8s-0.8-0.3-0.8-0.8S20.1,13.3,20.5,13.3z"/>
	<path class="st1" d="M25.8,15.9c1,0,1.9-0.8,1.9-1.9s-0.8-1.9-1.9-1.9s-1.9,0.8-1.9,1.9S24.8,15.9,25.8,15.9z M25.8,13.3
		c0.4,0,0.8,0.3,0.8,0.8s-0.3,0.8-0.8,0.8s-0.8-0.3-0.8-0.8S25.4,13.3,25.8,13.3z"/>
	<path class="st1" d="M11.1,16.9v-4.1c0-0.8,0.7-1.5,1.5-1.5h35.1V9H12.6c-2.1,0-3.8,1.7-3.8,3.8V18v25.7c0,0.6,0.5,1.1,1.1,1.1
		h21.1c0.6,0,1.1-0.5,1.1-1.1c0-0.6-0.5-1.1-1.1-1.1h-20V19.1h36.6v-2.3H11.1z"/>
	<path class="st1" d="M18.6,34.4c1,0,1.9-0.8,1.9-1.9c0-0.1,0-0.1,0-0.2l2.7-1.2c0.3,0.4,0.8,0.6,1.4,0.6c0.6,0,1.2-0.3,1.5-0.8
		l2.5,0.8c0,0,0,0,0,0c0,1,0.8,1.9,1.9,1.9s1.9-0.8,1.9-1.9c0-0.2,0-0.4-0.1-0.7l3.1-2.4c0.3,0.2,0.7,0.3,1.1,0.3
		c1,0,1.8-0.8,1.9-1.7l2.4-0.5c0.3,0.6,0.9,0.9,1.6,0.9c1,0,1.9-0.8,1.9-1.9S43.3,24,42.3,24c-1,0-1.8,0.8-1.9,1.7L38,26.3
		c-0.3-0.6-0.9-0.9-1.6-0.9c-1,0-1.9,0.8-1.9,1.9c0,0.2,0,0.4,0.1,0.7l-3.1,2.4c-0.3-0.2-0.7-0.3-1.1-0.3c-0.6,0-1.2,0.3-1.5,0.8
		l-2.5-0.8c0,0,0,0,0,0c0-1-0.8-1.9-1.9-1.9s-1.9,0.8-1.9,1.9c0,0.1,0,0.1,0,0.2L20,31.3c-0.3-0.4-0.8-0.6-1.4-0.6
		c-1,0-1.9,0.8-1.9,1.9C16.7,33.6,17.5,34.4,18.6,34.4z M42.3,25.2c0.4,0,0.8,0.3,0.8,0.8c0,0.4-0.3,0.8-0.8,0.8
		c-0.4,0-0.8-0.3-0.8-0.8C41.5,25.5,41.9,25.2,42.3,25.2z M36.4,26.5c0.4,0,0.8,0.3,0.8,0.8c0,0.4-0.3,0.8-0.8,0.8
		c-0.4,0-0.8-0.3-0.8-0.8C35.6,26.8,35.9,26.5,36.4,26.5z M30.4,31.1c0.4,0,0.8,0.3,0.8,0.8c0,0.4-0.3,0.8-0.8,0.8s-0.8-0.3-0.8-0.8
		C29.7,31.4,30,31.1,30.4,31.1z M24.5,29.1c0.4,0,0.8,0.3,0.8,0.8s-0.3,0.8-0.8,0.8s-0.8-0.3-0.8-0.8S24.1,29.1,24.5,29.1z
		 M18.6,31.8c0.4,0,0.8,0.3,0.8,0.8c0,0.4-0.3,0.8-0.8,0.8c-0.4,0-0.8-0.3-0.8-0.8C17.8,32.1,18.1,31.8,18.6,31.8z"/>
	<path class="st1" d="M46.4,35.8c-0.5-0.3-1-0.6-1.6-0.8v-1.4l-0.4-0.1c-0.7-0.2-1.4-0.3-2.1-0.3c0,0,0,0,0,0
		c-0.7,0-1.4,0.1-2.1,0.3l-0.4,0.1V35c-0.6,0.2-1.1,0.5-1.6,0.8l-1.1-0.9l-0.4,0.3c-1.1,0.9-2,2-2.7,3.3l-0.2,0.4l1.1,0.9
		c-0.2,0.6-0.3,1.2-0.4,1.8l-0.9,0.2L33.2,42l0,0.6c0,1.4,0.3,2.7,0.9,4l0.2,0.4l1.4-0.3c0.3,0.5,0.6,0.9,1,1.3H38l0-0.1l-0.3-0.3
		c-0.6-0.5-1-1.1-1.4-1.8l-0.2-0.4l-1.3,0.3c-0.4-0.9-0.6-1.8-0.6-2.8l1.3-0.3l0-0.4c0.1-0.8,0.2-1.5,0.5-2.2l0.2-0.4l-1-0.8
		c0.5-0.8,1.1-1.6,1.8-2.2l1,0.8l0.4-0.3c0.6-0.4,1.3-0.8,2-1l0.4-0.1v-1.3c0.9-0.2,1.9-0.2,2.8,0v1.3l0.4,0.1c0.7,0.2,1.4,0.5,2,1
		l0.4,0.3l1-0.8c0.1,0.1,0.1,0.1,0.2,0.2v-1.5l-0.2-0.2L46.4,35.8z"/>
	<path class="st1" d="M46.1,42.4c0-2.1-1.7-3.9-3.9-3.9c-2.1,0-3.9,1.7-3.9,3.9c0,2.1,1.7,3.9,3.9,3.9
		C44.4,46.3,46.1,44.5,46.1,42.4z M39.6,42.4c0-1.5,1.2-2.7,2.7-2.7c1.5,0,2.7,1.2,2.7,2.7c0,1.5-1.2,2.7-2.7,2.7
		C40.8,45.1,39.6,43.9,39.6,42.4z"/>
</g>
</svg>
