<?xml version="1.0" encoding="utf-8"?>
<!-- Generator: Adobe Illustrator 27.5.0, SVG Export Plug-In . SVG Version: 6.00 Build 0)  -->
<svg version="1.1" id="Camada_3" xmlns="http://www.w3.org/2000/svg" xmlns:xlink="http://www.w3.org/1999/xlink" x="0px" y="0px"
	 viewBox="0 0 50 50" style="enable-background:new 0 0 50 50;" xml:space="preserve">
<style type="text/css">
	.st0{fill:#B68AF3;}
	.st1{fill:#E5E5E5;}
</style>
<g>
	<g>
		<g>
			<path class="st0" d="M33.6,11.4c0-0.3-0.2-0.6-0.6-0.6h-2.3c-0.6,0-1-0.4-1-1V8.3c0-0.3-0.2-0.6-0.6-0.6H23
				c-0.3,0-0.6,0.2-0.6,0.6v1.6c0,0.6-0.4,1-1,1h-2.3c-0.3,0-0.6,0.2-0.6,0.6v1.3h15.1V11.4z"/>
		</g>
		<g>
			<g>
				<path class="st0" d="M41.4,2.8H7.7c-3.1,0-5.6,2.5-5.6,5.6v31.3v2.5c0,3.1,2.5,5.6,5.6,5.6l0,0H8v-34c0-1.4,1.1-2.6,2.6-2.6h3.9
					c0.6,0,1,0.4,1,1s-0.4,1-1,1h-3.9c-0.3,0-0.6,0.3-0.6,0.6v34h31.4l0,0c0.3,0,0.5,0,0.8-0.1V13.7c0-0.3-0.3-0.6-0.6-0.6h-3.9
					c-0.6,0-1-0.4-1-1s0.4-1,1-1h3.9c1.4,0,2.6,1.1,2.6,2.6V47c1.7-1,2.8-2.8,2.8-4.8V23.9V8.4C47,5.3,44.5,2.8,41.4,2.8z
					 M16.5,11.4c0-1.4,1.1-2.6,2.6-2.6h1.3V8.3c0-1.4,1.1-2.6,2.6-2.6h6.2c1.4,0,2.6,1.1,2.6,2.6v0.6h1.3c1.4,0,2.6,1.1,2.6,2.6v2.3
					c0,0.6-0.4,1-1,1H17.5c-0.6,0-1-0.4-1-1V11.4z M15.6,23.4c-0.2-0.2-0.2-0.5,0-0.7s0.5-0.2,0.7,0l2,2l2-2c0.2-0.2,0.5-0.2,0.7,0
					s0.2,0.5,0,0.7l-2,2l2,2c0.2,0.2,0.2,0.5,0,0.7c-0.1,0.1-0.2,0.1-0.4,0.1s-0.3,0-0.4-0.1l-2-2l-2,2c-0.1,0.1-0.2,0.1-0.4,0.1
					c-0.1,0-0.3,0-0.4-0.1c-0.2-0.2-0.2-0.5,0-0.7l2-2L15.6,23.4z M30.9,34.8l-1.5-3.7C26.3,36.6,21.7,41,16.2,44
					C16.1,44,16,44,16,44c-0.2,0-0.3-0.1-0.4-0.3c-0.1-0.2,0-0.5,0.2-0.7c5.3-2.9,9.7-7.2,12.8-12.4l-3.8,0.7
					c-0.3,0-0.5-0.1-0.6-0.4c0-0.3,0.1-0.5,0.4-0.6l4.9-0.8c0,0,0.1,0,0.1,0c0,0,0,0,0.1,0c0.1,0,0.2,0.1,0.3,0.2c0,0,0,0,0,0.1
					c0,0,0,0,0,0.1l1.9,4.6c0.1,0.3,0,0.5-0.3,0.7c-0.1,0-0.1,0-0.2,0C31.2,35.2,31,35,30.9,34.8z M36.8,43.7c0.2,0.2,0.2,0.5,0,0.7
					c-0.1,0.1-0.2,0.1-0.4,0.1s-0.3,0-0.4-0.1l-2-2l-2,2c-0.1,0.1-0.2,0.1-0.4,0.1s-0.3,0-0.4-0.1c-0.2-0.2-0.2-0.5,0-0.7l2-2l-2-2
					c-0.2-0.2-0.2-0.5,0-0.7s0.5-0.2,0.7,0l2,2l2-2c0.2-0.2,0.5-0.2,0.7,0s0.2,0.5,0,0.7l-2,2L36.8,43.7z M38.2,22.2
					c0,2-1.6,3.6-3.6,3.6S31,24.2,31,22.2c0-2,1.6-3.6,3.6-3.6S38.2,20.3,38.2,22.2z"/>
			</g>
		</g>
		<g>
			<path class="st0" d="M32,22.2c0,1.4,1.2,2.6,2.6,2.6s2.6-1.2,2.6-2.6c0-1.4-1.2-2.6-2.6-2.6S32,20.8,32,22.2z"/>
		</g>
	</g>
</g>
<g>
	<g>
		<g>
			<path class="st1" d="M41.6,11.1h-3.9c-0.6,0-1,0.4-1,1s0.4,1,1,1h3.9c0.3,0,0.6,0.3,0.6,0.6v33.9c0.7-0.1,1.3-0.3,1.9-0.6
				c0,0,0.1,0,0.1-0.1V13.7C44.2,12.3,43,11.1,41.6,11.1z"/>
		</g>
		<g>
			<path class="st1" d="M10,13.7c0-0.3,0.3-0.6,0.6-0.6h3.9c0.6,0,1-0.4,1-1s-0.4-1-1-1h-3.9c-1.4,0-2.6,1.1-2.6,2.6v34h2V13.7z"/>
		</g>
		<g>
			<g>
				<path class="st1" d="M17.5,14.7h17.1c0.6,0,1-0.4,1-1v-2.3c0-1.4-1.1-2.6-2.6-2.6h-1.3V8.3c0-1.4-1.1-2.6-2.6-2.6H23
					c-1.4,0-2.6,1.1-2.6,2.6v0.6h-1.3c-1.4,0-2.6,1.1-2.6,2.6v2.3C16.5,14.3,17,14.7,17.5,14.7z M18.5,11.4c0-0.3,0.2-0.6,0.6-0.6
					h2.3c0.6,0,1-0.4,1-1V8.3c0-0.3,0.2-0.6,0.6-0.6h6.2c0.3,0,0.6,0.2,0.6,0.6v1.6c0,0.6,0.4,1,1,1h2.3c0.3,0,0.6,0.2,0.6,0.6v1.3
					H18.5V11.4z"/>
			</g>
		</g>
		<g>
			<g>
				<path class="st1" d="M31,22.2c0,2,1.6,3.6,3.6,3.6s3.6-1.6,3.6-3.6c0-2-1.6-3.6-3.6-3.6S31,20.3,31,22.2z M37.2,22.2
					c0,1.4-1.2,2.6-2.6,2.6S32,23.7,32,22.2c0-1.4,1.2-2.6,2.6-2.6S37.2,20.8,37.2,22.2z"/>
			</g>
		</g>
		<g>
			<path class="st1" d="M15.6,28c0.1,0.1,0.2,0.1,0.4,0.1c0.1,0,0.3,0,0.4-0.1l2-2l2,2c0.1,0.1,0.2,0.1,0.4,0.1s0.3,0,0.4-0.1
				c0.2-0.2,0.2-0.5,0-0.7l-2-2l2-2c0.2-0.2,0.2-0.5,0-0.7s-0.5-0.2-0.7,0l-2,2l-2-2c-0.2-0.2-0.5-0.2-0.7,0s-0.2,0.5,0,0.7l2,2
				l-2,2C15.4,27.5,15.4,27.8,15.6,28z"/>
		</g>
		<g>
			<path class="st1" d="M36.8,39c-0.2-0.2-0.5-0.2-0.7,0l-2,2l-2-2c-0.2-0.2-0.5-0.2-0.7,0s-0.2,0.5,0,0.7l2,2l-2,2
				c-0.2,0.2-0.2,0.5,0,0.7c0.1,0.1,0.2,0.1,0.4,0.1s0.3,0,0.4-0.1l2-2l2,2c0.1,0.1,0.2,0.1,0.4,0.1s0.3,0,0.4-0.1
				c0.2-0.2,0.2-0.5,0-0.7l-2-2l2-2C37,39.6,37,39.2,36.8,39z"/>
		</g>
		<g>
			<path class="st1" d="M31.6,35.1c0.3-0.1,0.4-0.4,0.3-0.7l-1.9-4.6c0,0,0-0.1,0-0.1c0,0,0,0,0-0.1c-0.1-0.1-0.2-0.2-0.3-0.2
				c0,0,0,0-0.1,0c0,0-0.1,0-0.1,0l-4.9,0.8c-0.3,0-0.5,0.3-0.4,0.6c0,0.3,0.3,0.5,0.6,0.4l3.8-0.7c-3.1,5.2-7.5,9.5-12.8,12.4
				c-0.2,0.1-0.3,0.4-0.2,0.7c0.1,0.2,0.3,0.3,0.4,0.3c0.1,0,0.2,0,0.2-0.1c5.5-3,10.1-7.4,13.2-12.8l1.5,3.7
				c0.1,0.2,0.3,0.3,0.5,0.3C31.4,35.2,31.5,35.1,31.6,35.1z"/>
		</g>
	</g>
</g>
</svg>
