<svg xmlns="http://www.w3.org/2000/svg" id="Camada_3" x="0" y="0" version="1.1" viewBox="0 0 50 50" xml:space="preserve"><style>.st3{fill:#c6a8ee}</style><path fill="#8c47df" d="M42.1 2.1H8.4c-3.1 0-5.6 2.5-5.6 5.6v33.8c0 3.1 2.5 5.6 5.6 5.6h33.7c1 0 1.9-.2 2.7-.7 1.7-.9 2.9-2.8 2.9-4.9V7.7c0-3.1-2.5-5.6-5.6-5.6z"/><path fill="none" d="M20.9 31.9h1.3c.5 0 .9-.4.9-.9v-1.7c-.6 0-1.2-.1-1.7-.1h-1.3l.8 2.7zM18.8 47h3.8l-5-17.9h-5.5zm2.7-20.8c-.7 0-1.2-.6-1.2-1.2v-9.2h-9.9c-1 0-1.7.8-1.7 1.7v7.4c0 1 .8 1.7 1.7 1.7h11.3c6.8 0 15 2.7 19.6 6.3.1.1.3.1.4 0 .1 0 .2-.1.2-.3V9.8c0-.2-.1-.3-.2-.3s-.2-.1-.4 0c-4.3 3.4-11.9 5.9-18.5 6.2v9.2c-.1.7-.6 1.3-1.3 1.3zM17 23.7h-5.2c-.1 0-.2-.1-.2-.2s.1-.2.2-.2H17c.1 0 .2.1.2.2s0 .2-.2.2zm0-4.5h-5.2c-.1 0-.2-.1-.2-.2s.1-.2.2-.2H17c.1 0 .2.1.2.2s0 .2-.2.2z"/><path fill="#d5c7ea" d="M21.5 26.6h.2-.2z"/><path d="M17 18.7h-5.2c-.1 0-.2.1-.2.2s.1.2.2.2H17c.1 0 .2-.1.2-.2s0-.2-.2-.2zm0 4.5h-5.2c-.1 0-.2.1-.2.2s.1.2.2.2H17c.1 0 .2-.1.2-.2s0-.2-.2-.2z" class="st3"/><path d="M42.7 7.2c-1-.5-2.1-.4-3 .3-4.2 3.3-11.9 5.7-18.2 5.7H10.3c-2.3 0-4.2 1.9-4.2 4.2v7.4c0 2 1.4 3.7 3.3 4.1L16.1 47h2.7l-6.7-17.8h5.4l5 17.8h2.6l-3.6-12.6h.6c1.9 0 3.4-1.5 3.4-3.4v-1.5c5.2.8 10.7 2.8 14 5.4.5.4 1.1.6 1.7.6.4 0 .9-.1 1.3-.3 1-.5 1.6-1.5 1.6-2.6V9.8c.2-1.1-.4-2.1-1.4-2.6zM23.2 30.9c0 .5-.4.9-.9.9H21l-.8-2.7h1.3c.6 0 1.1 0 1.7.1v1.7zm18.6 1.7c0 .2-.1.3-.2.3s-.2.1-.4 0c-4.6-3.6-12.8-6.2-19.6-6.3H10.3c-1 0-1.7-.8-1.7-1.7v-7.4c0-1 .8-1.7 1.7-1.7h9.9V25c0 .7.6 1.2 1.2 1.2s1.2-.6 1.2-1.2v-9.2c6.6-.3 14.2-2.8 18.5-6.2.1-.1.3-.1.4 0 .1 0 .2.1.2.3v22.7z" class="st3"/></svg>