<svg xmlns="http://www.w3.org/2000/svg" id="Camada_3" x="0" y="0" version="1.1" viewBox="0 0 50 50" xml:space="preserve"><style>.st0{fill:#7726d5}.st1{fill:#b68af3}</style><path d="M32.7 47.9c-.1-.7.4-1.3 1.1-1.4.7-.1 1.4-.2 1.9-.3.2 0 .4-.2.4-.4v-1.6c0-.2-.1-.3-.2-.3s-.2-.1-.4-.1c-1.2.2-2.9.4-4.9.5h-.9c-2.3 0-4.4-.3-5.8-.5h-.3s-.1 0-.1.1c-.1.1-.2.2-.2.3v1.6c0 .2.2.4.4.4.5.1 1.2.2 1.9.3.7.1 1.1.7 1.1 1.4 0 .4-.3.7-.5.9h7c-.2-.2-.4-.5-.5-.9z" class="st0"/><path d="M41.6 3.9H7.9c-3.1 0-5.6 2.5-5.6 5.6v33.8c0 3.1 2.5 5.6 5.6 5.6h14c0-.3.1-.5.1-.7 0 0 0-.1-.1-.1l-.3-.3c0-.1-.1-.1-.1-.2-.1-.1-.1-.2-.2-.3 0-.1-.1-.1-.1-.2-.1-.1-.1-.2-.1-.4v-.2c0-.2-.1-.4-.1-.6v-1.6c0-.8.4-1.6 1-2.2.6-.5 1.5-.8 2.3-.6 1.2.2 3.2.4 5.4.4s4.1-.2 5.4-.4c.8-.1 1.7.1 2.3.6.6.5 1 1.3 1 2.2v1.6c0 .2 0 .4-.1.6v.2c0 .1-.1.3-.1.4 0 .1-.1.1-.1.2-.1.1-.1.2-.2.3 0 .1-.1.1-.1.2l-.3.3c.1.2.1.5.1.8h4c1 0 1.9-.2 2.7-.7 1.7-.9 2.9-2.8 2.9-4.9V9.5c0-3.1-2.5-5.6-5.6-5.6zm-7.9 35.7c0 .3-.3.6-.6.6s-.6-.3-.6-.6c0-8.7.5-11.9 1.8-14.1-1.2.2-2.7.1-4.5-.9-1.8 1-3.4 1.1-4.5.9 1.3 2.2 1.8 5.4 1.8 13.9 0 .3-.3.6-.6.6s-.6-.3-.6-.6c0-11.5-.9-12.9-3.1-15.1-.2-.2-.3-.6 0-.9.2-.2.6-.3.8 0 .4.4 2.5 2 5.9-.1h.6c3.4 2.1 5.5.5 5.9.1.2-.2.6-.2.9 0 .2.2.2.6 0 .8-2.3 2.4-3.2 3.7-3.2 15.4zm8.2-6.7c-2 2.5-2.9 4.4-3.2 6.8-.1.6-.6 1.1-1.2 1.1-.7 0-1.2-.5-1.2-1.2v-.2c.3-2.8 1.4-5.2 3.7-8 2.3-2.9 3.5-6 3.5-9.2 0-3.9-1.7-7.6-4.6-10.3-3-2.6-6.8-3.9-10.8-3.4-6.3.8-11.4 6-12.1 12.4-.3 3.7.8 7.2 3.5 10.6 2.2 2.8 3.3 5.2 3.6 8 .1.7-.4 1.3-1.1 1.4h-.2c-.6 0-1.1-.5-1.2-1.1-.3-2.4-1.2-4.4-3.1-6.8-3-3.8-4.4-8.1-4-12.3.8-7.6 6.8-13.7 14.4-14.6 4.6-.5 9.2 1 12.6 4 3.4 3.1 5.4 7.5 5.4 12.1 0 3.8-1.3 7.4-4 10.7z" class="st0"/><path d="M37.5 48l.3-.3s.1-.1.1-.2c.1-.1.1-.2.2-.3 0-.1.1-.1.1-.2.1-.1.1-.2.1-.4v-.2c0-.2.1-.4.1-.6v-1.6c0-.8-.4-1.6-1-2.2-.6-.5-1.5-.8-2.3-.6-1.2.2-3.2.4-5.4.4s-4.1-.2-5.4-.4c-.8-.1-1.7.1-2.3.6-.6.5-1 1.3-1 2.2v1.6c0 .2 0 .4.1.6v.2c0 .1.1.3.1.4 0 .1.1.1.1.2.1.1.1.2.2.3 0 .1.1.1.1.2l.3.3s0 .1.1.1c-.1.2-.1.5-.1.7h4.4c.3-.2.5-.5.5-.9.1-.7-.4-1.3-1.1-1.4-.7-.1-1.4-.2-1.9-.3-.2 0-.4-.2-.4-.4v-1.6c0-.2.1-.3.2-.3 0 0 .1 0 .1-.1h.3c1.3.2 3.4.5 5.8.5h.9c2-.1 3.7-.3 4.9-.5.2 0 .3 0 .4.1.1.1.2.2.2.3v1.6c0 .2-.2.4-.4.4-.5.1-1.2.2-1.9.3-.7.1-1.1.7-1.1 1.4 0 .4.3.7.5.9h4.3c0-.3-.1-.5-.1-.8zm3-37.8c-3.4-3.1-8-4.5-12.6-4-7.6.8-13.6 7-14.3 14.5-.4 4.2 1 8.5 4 12.3 1.9 2.4 2.8 4.4 3.1 6.8.1.6.6 1.1 1.2 1.1h.2c.7-.1 1.1-.7 1.1-1.4-.4-2.8-1.4-5.2-3.6-8-2.7-3.4-3.9-6.9-3.5-10.6.6-6.4 5.7-11.6 12.1-12.3 4-.4 7.8.8 10.8 3.4 2.9 2.6 4.6 6.3 4.6 10.3 0 3.2-1.2 6.3-3.5 9.2-2.3 2.9-3.4 5.2-3.7 8v.2c0 .7.5 1.2 1.2 1.2.6 0 1.1-.5 1.2-1.1.3-2.4 1.2-4.3 3.2-6.8 2.7-3.4 4.1-7 4.1-10.7-.2-4.7-2.1-9.1-5.6-12.1z" class="st1"/><path d="M36.8 23.5c-.2-.2-.6-.2-.9 0-.4.3-2.5 1.9-5.9-.1h-.6c-3.4 2.1-5.5.5-5.9.1-.2-.2-.6-.2-.8 0-.2.2-.2.6 0 .9 2.2 2.2 3.1 3.6 3.1 15.1 0 .3.3.6.6.6s.6-.3.6-.6c0-8.5-.5-11.7-1.8-13.9 1.2.2 2.7.1 4.5-.9 1.8 1 3.4 1.1 4.5.9-1.3 2.2-1.8 5.4-1.8 14.1 0 .3.3.6.6.6s.6-.3.6-.6c0-11.7.9-13 3.2-15.3.3-.3.3-.6 0-.9z" class="st1"/></svg>
