<?xml version="1.0" encoding="utf-8"?>
<!-- Generator: Adobe Illustrator 26.5.0, SVG Export Plug-In . SVG Version: 6.00 Build 0)  -->
<svg version="1.1" id="Camada_3" xmlns="http://www.w3.org/2000/svg" xmlns:xlink="http://www.w3.org/1999/xlink" x="0px" y="0px"
	 viewBox="0 0 50 50" style="enable-background:new 0 0 50 50;" xml:space="preserve">
<style type="text/css">
	.st0{fill:#A6C1C2;}
	.st1{fill:#B9D7D9;}
	.st2{fill:none;stroke:#444444;stroke-width:2.5;stroke-linecap:round;stroke-linejoin:round;stroke-miterlimit:10;}
	.st3{fill:none;stroke:#444444;stroke-width:2.5;stroke-linejoin:round;stroke-miterlimit:10;}
	.st4{fill:none;stroke:#424242;stroke-linecap:square;stroke-miterlimit:10;}
	.st5{fill:#424242;}
	.st6{fill:none;stroke:#444444;stroke-linecap:round;stroke-linejoin:round;stroke-miterlimit:10;}
	.st7{fill:none;stroke:#444444;stroke-width:0.5;stroke-linecap:round;stroke-linejoin:round;stroke-miterlimit:10;}
	.st8{fill:#444444;}
	.st9{fill:none;stroke:#444444;stroke-miterlimit:10;}
</style>
<g>
	<g>
		<polygon class="st0" points="45.2,18.76 45.08,26.98 5.9,41.24 5.25,28.4 5.2,19.8 44.25,7.11 44.8,12.27 		"/>
		<polygon class="st1" points="43.47,5.19 45.43,8.01 4.62,22.59 5.59,7.63 8.19,5.11 14.65,5.08 19.17,1.66 20.48,5.04 33.48,4.97 
					"/>
	</g>
	<g>
		<path class="st2" d="M21.84,5.26h20.4c1.45,0,2.64,1.37,2.64,3.05v21.19"/>
		<path class="st2" d="M5.34,17.39V8.32c0-1.69,1.18-3.05,2.64-3.05h4.15"/>
		<path class="st2" d="M11.67,44.96h-3.7c-1.45,0-2.64-1.37-2.64-3.05V31.22"/>
		<line class="st3" x1="44.88" y1="17.48" x2="28.35" y2="17.48"/>
	</g>
	<g>
		<path class="st4" d="M42.27,34.5c0.01,1.02-2.68,1.81-5.75,1.85c-3.06,0.04-5.78-0.68-5.79-1.7l0.13,9.76
			c0.01,1.02,2.73,1.74,5.79,1.7c3.06-0.04,5.76-0.83,5.75-1.85L42.27,34.5z M42.34,39.39c0.01,1.02-2.68,1.81-5.75,1.85
			c-3.06,0.04-5.78-0.68-5.79-1.7"/>
		<path class="st4" d="M42.27,34.5c-0.01-1.02-2.73-1.74-5.79-1.7c-3.06,0.04-5.76,0.83-5.75,1.85"/>
	</g>
	<circle class="st5" cx="30.73" cy="10.59" r="1.34"/>
	<circle class="st5" cx="35.11" cy="10.59" r="1.34"/>
	<circle class="st5" cx="39.49" cy="10.59" r="1.34"/>
	<line class="st6" x1="4.57" y1="8.32" x2="4.57" y2="41.24"/>
	<polyline class="st6" points="5.08,32.65 5.08,18.91 6.03,18.91 	"/>
	<polyline class="st6" points="12.32,4.51 14.78,4.51 13.38,5.16 	"/>
	<line class="st6" x1="22.77" y1="4.51" x2="20.07" y2="4.51"/>
	<line class="st7" x1="20.73" y1="6.27" x2="44.88" y2="6.27"/>
	<g>
		<path class="st8" d="M23.46,13.15c-1.49-1.91-4.5-3.9-5.4-8.64C15.84,5.79,7.11,14.84,7.13,26.23c-0.41,7.5,7.11,13.88,9.59,15.4
			l-0.01-1.65l0.13-6.75c-3.05-0.95-4.79-3.97-4.86-4.1c-0.17-0.31-0.07-0.7,0.23-0.87c0.3-0.18,0.69-0.07,0.86,0.24
			c0.02,0.03,1.42,2.47,3.8,3.4l0.11-5.69c-3.05-0.95-4.79-3.97-4.86-4.1c-0.17-0.31-0.07-0.7,0.23-0.87
			c0.3-0.18,0.69-0.07,0.86,0.24c0.02,0.03,1.42,2.47,3.8,3.4l0.22-11.95c0.01-0.35,0.29-0.63,0.64-0.63
			c0.35,0.01,0.62,0.3,0.62,0.65l-0.15,8.11c2.4-0.83,3.91-3.22,3.92-3.25c0.18-0.3,0.57-0.39,0.87-0.2
			c0.29,0.19,0.38,0.58,0.2,0.88c-0.08,0.13-1.93,3.08-5.01,3.91l-0.11,5.69c2.4-0.83,3.91-3.22,3.92-3.25
			c0.18-0.3,0.57-0.39,0.87-0.2c0.29,0.19,0.38,0.58,0.2,0.88c-0.08,0.13-1.93,3.08-5.01,3.91l-0.11,5.69
			c2.4-0.83,3.91-3.22,3.92-3.25c0.18-0.3,0.57-0.39,0.87-0.2c0.29,0.19,0.38,0.58,0.2,0.88c-0.08,0.13-1.93,3.08-5.01,3.91
			l-0.11,5.71c1.93-0.58,3.69-1.84,5.13-3.1c2.62-2.8,4.72-7.21,4.82-12.06C28.01,19.65,25.57,15.84,23.46,13.15z"/>
		<path class="st9" d="M5.34,26.21c-0.09,4.66,2,9.19,6.05,13.09c2.41,2.33,3.87,3.68,4.81,4.2l-0.07,3.91
			c-0.01,0.4,0.71,0.91,1.1,0.92c0.39,0.01,1.26-0.4,1.26-0.81l0.07-3.84c2.24-0.79,10.79-4.62,11.02-17.01
			c0.17-8.86-2.36-12.08-4.8-15.2c-1.59-1.88-4.97-4.93-5.02-9.04c-0.03-0.25-0.18-0.47-0.41-0.58c-0.22-0.11-0.66-0.08-0.87,0.05
			C16.41,2.63,5.06,11.6,5.34,26.21z"/>
	</g>
</g>
</svg>
