<svg xmlns="http://www.w3.org/2000/svg" version="1" viewBox="0 0 50 50"><path fill="#AFE55D" d="M14.214 32.046l22.916-8.34.036-.094c-2.486-9.277-13.59-18.987-17.518-22.19a1.294 1.294 0 00-2.032.543c-1.8 4.74-6.562 18.7-4.076 27.977.198.74.425 1.438.674 2.104z"/><path fill="#C3FF68" d="M28.568 9.556c-3.384-3.67-6.827-6.625-8.678-8.134a1.294 1.294 0 00-2.032.544c-.932 2.455-2.658 7.385-3.76 12.857l14.47-5.267z"/><path fill="#031326" d="M38.213 23.332C35.685 13.897 24.867 4.28 20.333.582a2.386 2.386 0 00-2.12-.457 2.387 2.387 0 00-1.61 1.456c-2.078 5.47-6.637 19.21-4.11 28.643 2.873 10.72 11.15 14.024 15.732 14.024.24 0 .458-.02.677-.037l1.324 4.94a1.084 1.084 0 002.093-.56l-1.574-5.87a1.087 1.087 0 00-.19-.386c-.05-.063-.118-.104-.18-.155l-1.674-6.253 4.324-4.357a.867.867 0 10-1.23-1.22l-3.614 3.64-1.44-5.376 3.873-3.904a.867.867 0 10-1.23-1.22l-3.163 3.186-1.55-5.786 2.83-2.85a.867.867 0 00-1.232-1.22l-2.117 2.133-.756-2.822a.866.866 0 10-1.674.448l.756 2.823-2.902-.788a.866.866 0 00-.455 1.673l3.875 1.055 1.55 5.786-4.332-1.18a.867.867 0 10-.455 1.674l5.307 1.445 1.44 5.375-4.948-1.346a.866.866 0 10-.456 1.673l5.923 1.61 1.527 5.7c-3.614.234-11.343-2.616-13.97-12.412-2.43-9.07 2.48-23.2 4.043-27.313a.205.205 0 01.144-.132.214.214 0 01.192.043c3.41 2.78 14.726 12.56 17.156 21.63a1.084 1.084 0 102.095-.56z"/></svg>