<?xml version="1.0" encoding="utf-8"?>
<!-- Generator: Adobe Illustrator 27.5.0, SVG Export Plug-In . SVG Version: 6.00 Build 0)  -->
<svg version="1.1" id="Camada_3" xmlns="http://www.w3.org/2000/svg" xmlns:xlink="http://www.w3.org/1999/xlink" x="0px" y="0px"
	 viewBox="0 0 50 50" style="enable-background:new 0 0 50 50;" xml:space="preserve">
<style type="text/css">
	.st0{fill:#FDCF72;}
	.st1{fill:#FCC34F;}
	.st2{fill:none;stroke:#444444;stroke-width:2.5;stroke-linecap:round;stroke-linejoin:round;stroke-miterlimit:10;}
	.st3{fill:none;stroke:#444444;stroke-width:0.5;stroke-linecap:round;stroke-linejoin:round;stroke-miterlimit:13.3333;}
	.st4{fill:#444444;}
	.st5{fill:none;stroke:#444444;stroke-linecap:round;stroke-linejoin:round;stroke-miterlimit:13.3333;}
</style>
<g>
	<g>
		<g>
			<g>
				<g>
					<path class="st0" d="M32.15,4.22l-5.85-2.84c-3.13,0-20.99,8.94-20.99,12.14l-0.52,7.8L39.66,8.65L32.15,4.22z"/>
					<path class="st1" d="M4.8,21.32l0.52,15.13l11.25,7.56l30.36-11.04c0.72-0.42-0.8-18.75-1.77-20.74l-5.51-3.59L4.8,21.32z"/>
				</g>
				<g>
					<g>
						<path class="st2" d="M30.51,46.57l-2.2,1.27c-1.69,0.98-3.78,0.98-5.47,0L7.27,38.85c-1.69-0.98-2.74-2.78-2.74-4.74V16.13
							c0-1.96,1.04-3.76,2.74-4.74L22.84,2.4c1.69-0.98,3.78-0.98,5.47,0l15.57,8.99c1.69,0.98,2.74,2.78,2.74,4.74v17.98
							c0,1.96-1.04,3.76-2.74,4.74l-2.46,1.42"/>
					</g>
				</g>
			</g>
			<path class="st3" d="M5.15,24.89c0,0,8.55,3.15,9.27-2.16c0.72-5.31-3.15-9.09,1.35-10.62s9.81-0.09,10.44-2.79
				c0.63-2.7-3.6-6.12-3.6-6.12"/>
			<path class="st3" d="M45.74,20.21c0,0-5.67,2.52-4.86,7.92c0.81,5.4,4.77,5.49,4.77,5.49"/>
		</g>
		<path class="st3" d="M4.13,22.23c0,0,8.02-0.14,2.47-9.94"/>
		<path class="st3" d="M13.65,8.62c0,0,13.14,2.52,5.4-3.06"/>
		<path class="st3" d="M45.87,24.19c0,0-5.4,0.72-0.18,7.38"/>
	</g>
	<g>
		<circle class="st4" cx="30.91" cy="19.96" r="2.43"/>
		<path class="st3" d="M18.06,29.9c-0.93,0-1.93,0.6-2.44,1.35c-0.62,0.9-0.66,2.1-0.24,3.09c0.23-0.25,0.36-0.63,0.63-0.89
			c0.3-0.3,0.69-0.53,1.11-0.55c0.7-0.05,1.37,0.54,1.46,1.23c0.09,0.68-0.31,1.34-0.82,1.8c-1.33,1.19-3.3,1.43-5.01,1.3
			c0.43,0.22,0.88,0.43,1.28,0.62c0.57,0.27,1.18,0.47,1.8,0.61c1.34,0.3,2.79,0.09,3.99-0.6c1.28-0.74,3.09-2.71,2.47-4.34"/>
		<g>
			<polygon class="st5" points="24.2,35.17 16.55,28.53 19.25,27.04 25.29,32.28 			"/>
		</g>
		<path class="st5" d="M38.13,11.47c0,0-11.79-2.28-18.96,15.54l6.13,5.32C41.94,22.73,38.13,11.47,38.13,11.47"/>
		<path class="st5" d="M26.39,31.74l1.08,3.06l3.12-2.56c1.69-1.39,2.76-3.41,2.93-5.54l0.06-0.81"/>
		<path class="st5" d="M19.54,25.8l-3.18-0.64l2.1-3.45c1.14-1.87,2.99-3.21,5.07-3.68l0.79-0.18"/>
		<line class="st5" x1="33.42" y1="12.35" x2="37.91" y2="16.24"/>
		<circle class="st4" cx="27.5" cy="23.91" r="1.14"/>
		<path class="st3" d="M18.33,30.46c0,0-1.47,0.33-1.75,1.63c0,0,1.9-0.78,2.98,0.59s-0.33,3.69-1.17,4.01c0,0,2.35-0.28,3.07-3.29"
			/>
	</g>
</g>
</svg>
