<svg xmlns="http://www.w3.org/2000/svg" xmlns:xlink="http://www.w3.org/1999/xlink" version="1" viewBox="0 0 300 300"><pattern id="a" width="36.702" height="44.992" y="300" overflow="visible" patternUnits="userSpaceOnUse" viewBox="0 -47.125 36.702 44.992"><path fill="none" d="M0-47.125h36.702v44.992H0z"/><circle cx="27.527" cy="-44.992" r="1.169" fill="#6D2C20"/><circle cx="22.565" cy="-41.367" r=".674" fill="#6D2C20"/><circle cx="15.002" cy="-44.173" r="1.169" fill="#6D2C20"/><circle cx="1.169" cy="-46.16" r="1.169" fill="#6D2C20"/><circle cx="8.879" cy="-48.087" r="1.738" fill="#6D2C20"/><circle cx="3.292" cy="-38.644" r="2.767" fill="#6D2C20"/><circle cx="11.84" cy="-38.644" r=".954" fill="#6D2C20"/><circle cx="33.353" cy="-21.677" r="1.169" fill="#6D2C20"/><circle cx="19.52" cy="-23.664" r="1.169" fill="#6D2C20"/><circle cx="9.176" cy="-22.496" r="1.169" fill="#6D2C20"/><circle cx="12.791" cy="-29.505" r="1.186" fill="#6D2C20"/><circle cx="2.712" cy="-31.007" r="1.502" fill="#6D2C20"/><circle cx="21.173" cy="-33.633" r=".738" fill="#6D2C20"/><circle cx="31.532" cy="-38.604" r="1.022" fill="#6D2C20"/><circle cx="27.231" cy="-25.591" r="1.738" fill="#6D2C20"/><circle cx="21.643" cy="-16.148" r="2.767" fill="#6D2C20"/><circle cx="30.191" cy="-16.148" r=".954" fill="#6D2C20"/><circle cx="4.214" cy="-18.871" r=".674" fill="#6D2C20"/><circle cx="27.527" cy="-32.127" r=".674" fill="#6D2C20"/><circle cx="31.142" cy="-7.009" r="1.186" fill="#6D2C20"/><circle cx="21.063" cy="-8.512" r="1.502" fill="#6D2C20"/><circle cx="1.169" cy="-1.169" r="1.169" fill="#6D2C20"/><circle cx="2.821" cy="-11.138" r=".738" fill="#6D2C20"/><circle cx="13.18" cy="-16.109" r="1.022" fill="#6D2C20"/><circle cx="8.879" cy="-3.095" r="1.738" fill="#6D2C20"/><circle cx="9.176" cy="-9.631" r=".674" fill="#6D2C20"/></pattern><pattern id="c" width="36.702" height="44.992" y="300" overflow="visible" patternUnits="userSpaceOnUse" viewBox="1.099 -45.976 36.702 44.992"><path fill="none" d="M1.099-45.976h36.702V-.984H1.099z"/><circle cx="32.07" cy="-45.976" r=".909" fill="#6D2C20"/><circle cx="37.377" cy="-32.87" r=".675" fill="#6D2C20"/><circle cx="23.664" cy="-40.218" r=".954" fill="#6D2C20"/><circle cx="3.38" cy="-39.265" r="2.236" fill="#6D2C20"/><circle cx="10.723" cy="-46.334" r="1.342" fill="#6D2C20"/><circle cx=".675" cy="-32.87" r=".675" fill="#6D2C20"/><circle cx="14.982" cy="-43.037" r=".899" fill="#6D2C20"/><circle cx="11.228" cy="-37.524" r=".954" fill="#6D2C20"/><circle cx="21.732" cy="-16.769" r="2.236" fill="#6D2C20"/><circle cx="13.719" cy="-23.48" r=".909" fill="#6D2C20"/><circle cx="19.999" cy="-36.07" r="1.342" fill="#6D2C20"/><circle cx="29.074" cy="-23.838" r="1.342" fill="#6D2C20"/><circle cx="19.026" cy="-10.374" r=".675" fill="#6D2C20"/><circle cx="33.333" cy="-20.541" r=".899" fill="#6D2C20"/><circle cx="4.03" cy="-27.417" r="2.236" fill="#6D2C20"/><circle cx="32.63" cy="-37.456" r="1.022" fill="#6D2C20"/><circle cx="12.609" cy="-30.543" r="1.11" fill="#6D2C20"/><circle cx="22.18" cy="-25.181" r="1.325" fill="#6D2C20"/><circle cx="26.745" cy="-29.076" r=".497" fill="#6D2C20"/><circle cx="29.579" cy="-15.028" r=".954" fill="#6D2C20"/><circle cx="5.313" cy="-17.722" r=".954" fill="#6D2C20"/><circle cx="31.207" cy="-30.979" r=".674" fill="#6D2C20"/><circle cx="32.07" cy="-.984" r=".909" fill="#6D2C20"/><circle cx="38.351" cy="-13.575" r="1.342" fill="#6D2C20"/><circle cx="22.381" cy="-4.921" r="2.236" fill="#6D2C20"/><circle cx="30.96" cy="-8.047" r="1.11" fill="#6D2C20"/><circle cx="1.648" cy="-13.575" r="1.342" fill="#6D2C20"/><circle cx="10.723" cy="-1.342" r="1.342" fill="#6D2C20"/><circle cx="14.279" cy="-14.96" r="1.022" fill="#6D2C20"/><circle cx="3.829" cy="-2.685" r="1.325" fill="#6D2C20"/><circle cx="8.394" cy="-6.58" r=".497" fill="#6D2C20"/><circle cx="12.856" cy="-8.483" r=".674" fill="#6D2C20"/></pattern><path fill="#00BF5F" d="M290.236 153.274c0 80.142-64.968 145.109-145.109 145.109C64.985 298.383.018 233.416.018 153.275c0-80.142 64.967-145.11 145.109-145.11s145.109 64.968 145.109 145.109"/><path fill="#591F13" d="M273.899 48.776l25.894 95.608a3.044 3.044 0 01-.978 3.126l-95.047 79.513a2.66 2.66 0 01-.837.509 2.511 2.511 0 01-.317.102c-.103.027-.205.056-.313.069a2.67 2.67 0 01-.979-.018l-122.183-20.68-.014.005a2.779 2.779 0 01-.812-.268c-.13-.075-.256-.134-.376-.228a2.976 2.976 0 01-1.234-1.71l-25.894-95.608a3.034 3.034 0 01-.102-.899c.009-.144.031-.292.055-.439.037-.151.079-.289.12-.426.109-.297.25-.586.452-.83.132-.209.28-.358.457-.517l90.913-76.082a15.282 15.282 0 0111.895-3.222l116.884 19.805a3.025 3.025 0 011.478.699l.233.22c.33.351.57.774.705 1.271z"/><path fill="#733930" d="M286.85 96.58l12.944 47.796a3.04 3.04 0 01-.976 3.126l-95.043 79.528a3.098 3.098 0 01-1.16.596l-13.373-49.378L286.85 96.58z"/><path fill="#80413A" d="M189.242 178.249l13.373 49.378a3.167 3.167 0 01-1.301.07L79.127 207.003a3.072 3.072 0 01-2.422-2.206l-12.944-47.796 125.481 21.248z"/><path fill="#591F13" d="M175.789 128.577l13.453 49.672-125.481-21.248-12.949-47.811a2.952 2.952 0 01.072-1.765l124.905 21.152z"/><path fill="#4D140A" d="M273.901 48.77l12.949 47.81-97.608 81.669-13.453-49.672 97.173-81.298c.45.381.776.89.939 1.491z"/><path fill="#6D2C20" d="M272.96 47.286l-97.172 81.299-124.906-21.153c.109-.297.25-.586.452-.83.132-.209.28-.358.457-.517l90.913-76.082a15.282 15.282 0 0111.895-3.222l116.884 19.805c.561.1 1.066.34 1.477.7z"/><pattern id="b" patternTransform="scale(1.5176 -1.5176) rotate(15.153 -591.938 16265.37)" xlink:href="#a"/><path fill="url(#b)" d="M202.615 227.627L78.955 206.94a2.762 2.762 0 01-2.211-2.003l-12.983-47.936 125.481 21.248 13.373 49.378z"/><pattern id="d" patternTransform="matrix(-1.4648 .3967 -.3967 -1.4648 -17105.48 5282.016)" xlink:href="#c"/><path fill="url(#d)" d="M202.615 227.627l96.319-80.265a2.765 2.765 0 00.898-2.846L286.85 96.58l-97.608 81.669 13.373 49.378z"/><path fill="#591F13" d="M75.032 98.845c26.106 3.896 51.694 10.372 77.617 14.423 3.231.499 6.469.963 9.676 1.288 1.595.156 3.208.294 4.708.298.728.012 1.53-.039 1.895-.129 0 0 .127-.061-.148.085-.045.051-.236.159-.468.521a1.94 1.94 0 00-.234.629 1.782 1.782 0 00-.007.621c.146.642.276.623.258.642-.026-.021-.084-.085-.192-.166-.42-.331-1.091-.729-1.752-1.085a45.12 45.12 0 00-2.099-1.053c-1.44-.68-2.928-1.327-4.426-1.958-3.001-1.261-6.052-2.462-9.112-3.648-12.257-4.744-24.672-9.202-36.918-14.338-3.061-1.295-6.112-2.636-9.141-4.131-1.515-.752-3.023-1.54-4.528-2.441a29.16 29.16 0 01-2.262-1.494c-.76-.586-1.524-1.157-2.329-2.212-.371-.552-.892-1.269-.943-2.59a3.602 3.602 0 01.505-1.894c.314-.527.7-.914 1.024-1.149.332-.248.694-.49.99-.611l.472-.214c.15-.059.285-.096.43-.144.588-.199 1.091-.282 1.605-.369 1.991-.275 3.745-.21 5.484-.1 3.459.24 6.769.766 10.067 1.337 13.131 2.394 25.903 5.677 38.698 8.802 6.392 1.562 12.78 3.112 19.169 4.475 3.192.674 6.39 1.307 9.558 1.784 1.582.236 3.161.435 4.683.529.766.057 1.498.059 2.186.038.653-.017 1.329-.164 1.424-.215l-.057.027-.028.033-.115.091c-.103.093-.104.143-.23.314-.117.165-.163.383-.198.562-.05.176-.039.395-.002.546 0 .092.024.186.066.266l.025.069-.014-.022c-.165-.221-.704-.71-1.267-1.108-1.165-.838-2.542-1.636-3.931-2.394-2.801-1.516-5.746-2.918-8.71-4.279-5.94-2.719-11.997-5.287-18.054-7.872-6.06-2.584-12.138-5.157-18.184-7.886-3.023-1.367-6.037-2.77-9.033-4.29a89.016 89.016 0 01-4.476-2.426c-1.489-.887-2.958-1.775-4.472-3.099a9.36 9.36 0 01-1.165-1.233c-.187-.205-.411-.608-.59-.917a5.475 5.475 0 01-.266-.68c-.039-.123-.077-.229-.106-.367a5.51 5.51 0 01-.056-.482c-.083-.602.108-1.413.42-1.982.161-.267.347-.526.549-.762.184-.188.366-.332.56-.486l.293-.214.253-.138.517-.258c.317-.128.606-.214.913-.312 2.204-.515 3.919-.414 5.689-.355 3.479.192 6.79.681 10.09 1.222 6.585 1.103 13.055 2.487 19.51 3.907 12.903 2.827 25.687 6.057 38.516 8.753 3.204.669 6.412 1.304 9.607 1.828 1.596.261 3.192.495 4.763.659.781.077 1.565.148 2.316.174.753.036 1.499.027 2.088-.046.163-.012.279-.04.383-.064.144-.019.153-.048.203-.052l-.062.035-.041.045-.15.129c-.09.11-.149.213-.271.463a1.096 1.096 0 00-.074.349c-.012.102-.029.186-.022.283a.968.968 0 00.056.274l.024.108.057.114-.019-.03-.101-.105c-.056-.071-.171-.168-.285-.265a4.325 4.325 0 00-.374-.299c-1.098-.824-2.526-1.605-3.919-2.338-2.837-1.466-5.821-2.801-8.817-4.102-12.029-5.174-24.399-9.753-36.597-14.836a331.958 331.958 0 01-9.135-3.923c-3.036-1.391-6.043-2.75-9.037-4.626-.757-.515-1.496-.971-2.325-1.899a2.608 2.608 0 01-.322-.436c-.11-.192-.206-.289-.312-.61a4.218 4.218 0 01-.125-.425 1.64 1.64 0 01-.045-.522c.012-.413.098-.8.299-1.118a3.51 3.51 0 01.317-.467 3.33 3.33 0 01.29-.262c.197-.164.429-.326.566-.38a9.71 9.71 0 01.486-.225l.41-.13c1.064-.3 1.935-.362 2.828-.437a40.373 40.373 0 012.585-.07c3.393.018 6.705.258 10.012.543 13.207 1.195 26.252 3.128 39.288 5.162 13.031 2.051 26.03 4.241 38.999 6.641a.758.758 0 01-.255 1.495c-13.021-1.977-26.057-3.888-39.107-5.632a1120.051 1120.051 0 00-19.589-2.441c-6.53-.762-13.069-1.465-19.597-1.937-3.26-.23-6.531-.41-9.727-.375-.8.007-1.585.046-2.354.1-.745.067-1.524.167-2.043.329l-.179.056-.073.04.055-.04.05-.067.159-.202c.06-.152.14-.331.14-.537-.034-.24-.006-.241-.051-.351-.067-.114-.013-.056-.023-.07l.048.057c.271.303.917.774 1.535 1.157 2.618 1.588 5.647 2.926 8.62 4.223 2.996 1.293 6.037 2.523 9.087 3.732 12.228 4.817 24.589 9.372 36.828 14.484 3.058 1.297 6.106 2.626 9.137 4.16 1.52.793 3.015 1.564 4.571 2.698.195.144.389.286.594.468.2.169.401.336.62.574.109.116.208.21.32.347.119.152.233.31.343.47.101.123.241.418.341.659.052.131.1.247.143.392.041.188.069.385.083.581.127.716-.337 1.823-.776 2.204a3.435 3.435 0 01-.36.356l-.302.208c-.193.12-.455.286-.602.331-.336.137-.707.271-.973.318a6.229 6.229 0 01-.831.153c-1.045.135-1.953.134-2.845.105a41.183 41.183 0 01-2.612-.174 87.855 87.855 0 01-5.031-.652c-3.312-.515-6.574-1.134-9.824-1.784-12.981-2.644-25.802-5.678-38.641-8.506-6.416-1.399-12.841-2.757-19.256-3.818-3.2-.519-6.422-.978-9.524-1.141-1.511-.076-3.133-.056-4.144.199l-.256.088-.034.022-.022.001.05-.022.085-.094a.666.666 0 00.191-.259c.033-.091.143-.257.153-.406.009-.169.042-.265.03-.389l-.036-.174-.008-.076-.046-.104c.05.031-.01.017.087.112.103.138.312.349.538.552.967.853 2.314 1.708 3.658 2.492a83.12 83.12 0 004.217 2.274c2.884 1.456 5.846 2.83 8.829 4.171 5.971 2.68 12.034 5.233 18.1 7.805 6.068 2.575 12.151 5.138 18.198 7.892 3.024 1.383 6.038 2.804 9.035 4.418 1.501.82 2.989 1.664 4.505 2.745.761.573 1.526 1.122 2.379 2.2.098.111.218.305.327.492.111.206.207.331.313.611.103.278.187.569.248.857.05.355.043.782-.008 1.162-.06.382-.229.779-.415 1.136-.197.368-.389.535-.618.787-.107.106-.24.24-.334.306l-.29.197c-.19.121-.416.265-.589.34-1.42.612-2.416.642-3.399.719-.957.035-1.875.026-2.753-.036-1.767-.107-3.459-.32-5.135-.566-3.348-.498-6.619-1.14-9.874-1.821-6.502-1.373-12.925-2.919-19.337-4.472l-19.191-4.66c-6.386-1.526-12.781-3.005-19.171-4.183-3.188-.572-6.395-1.093-9.509-1.325-1.544-.116-3.104-.146-4.38.027-.603.069-1.168.308-1.11.289-.02-.007.09-.074.19-.252.103-.168.198-.493.189-.719-.041-.488-.137-.444-.036-.334.185.269.714.749 1.263 1.157.568.421 1.197.837 1.854 1.237 1.317.799 2.726 1.549 4.157 2.269 2.872 1.438 5.848 2.768 8.846 4.057 12.032 5.129 24.405 9.657 36.697 14.495 3.076 1.212 6.15 2.441 9.217 3.751 1.533.658 3.065 1.332 4.599 2.067.767.37 1.534.751 2.311 1.176.781.437 1.547.862 2.423 1.549.217.172.461.389.719.667.249.327.639.649.865 1.7.042.274.052.608-.008.927a2.662 2.662 0 01-.348.914c-.332.543-.69.784-.917.928-.615.39-.899.416-1.288.545-1.244.269-2.105.247-3.021.25-1.794-.018-3.468-.179-5.149-.351-3.348-.359-6.631-.851-9.908-1.376-13.085-2.144-26.004-4.808-38.916-7.534l-9.658-2.15c-3.207-.775-6.421-1.509-9.615-2.338-6.397-1.615-12.767-3.339-19.073-5.337a.76.76 0 01-.495-.956.764.764 0 01.838-.518z"/></svg>