<?xml version="1.0" encoding="utf-8"?>
<!-- Generator: Adobe Illustrator 24.0.0, SVG Export Plug-In . SVG Version: 6.00 Build 0)  -->
<svg version="1.1" id="Camada_1" xmlns="http://www.w3.org/2000/svg" xmlns:xlink="http://www.w3.org/1999/xlink" x="0px" y="0px"
	 viewBox="0 0 42 48" style="enable-background:new 0 0 42 48;" xml:space="preserve">
<style type="text/css">
	.st0{fill:#C3FF68;}
	.st1{fill:#AFE55D;}
	.st2{fill:#444444;}
</style>
<g>
	<title>administracao-do-sql-server-2017</title>
	<desc>Created with Sketch.</desc>
	<g>
		<polygon class="st0" points="34.1,15.9 34.2,17.8 6.7,24.1 6.2,24.1 6.3,17.4 33.7,11.8 		"/>
	</g>
	<g>
		<polygon class="st1" points="34,20.7 34.1,26.6 6.6,33 6.1,28.9 6.3,23.3 33.9,17.4 		"/>
	</g>
	<g>
		<path class="st2" d="M33.7,47.4c-0.1,0-0.1,0-0.2,0L6.4,42.7c-0.6-0.1-1-0.6-1-1.2v-35c0-0.6,0.4-1.1,1-1.2L33.3,1
			c0.4-0.1,0.7,0,1,0.3c0.3,0.2,0.4,0.6,0.4,0.9v24.2c0,0.7-0.5,1.2-1.2,1.2s-1.2-0.5-1.2-1.2V3.6l-24.4,4v32.9l24.6,4.2v-4.5
			c0-0.7,0.5-1.2,1.2-1.2s1.2,0.5,1.2,1.2v5.9c0,0.4-0.2,0.7-0.4,0.9C34.2,47.3,33.9,47.4,33.7,47.4z"/>
	</g>
	<g>
		<path class="st2" d="M30.1,21.5c-0.1-0.3-0.4-0.5-0.7-0.5h-3.3V9.8c0-0.2-0.1-0.4-0.3-0.6C25.7,9.1,25.4,9,25.2,9l-14.4,2.6
			c-0.4,0.1-0.7,0.4-0.6,0.9c0.1,0.4,0.4,0.7,0.9,0.6l13.5-2.5v10.4h-3.7c-0.3,0-0.6,0.2-0.7,0.5c-0.1,0.3,0,0.6,0.2,0.8l4.2,4.2
			c0.1,0.1,0.3,0.2,0.5,0.2c0.2,0,0.4-0.1,0.5-0.2l4.2-4.2C30.1,22.1,30.2,21.8,30.1,21.5z M25.1,25l-2.5-2.5h4.9L25.1,25z"/>
	</g>
	<g>
		<path class="st2" d="M16.9,38.9c-0.2,0-0.4-0.1-0.5-0.2L11.7,34c-0.1-0.1-0.2-0.3-0.2-0.5s0.1-0.4,0.2-0.5l4.6-4.6
			c0.3-0.3,0.8-0.3,1,0l4.6,4.6c0.1,0.1,0.2,0.3,0.2,0.5s-0.1,0.4-0.2,0.5l-4.6,4.6C17.3,38.8,17.1,38.9,16.9,38.9z M13.3,33.5
			l3.6,3.6l3.6-3.6l-3.6-3.6L13.3,33.5z"/>
	</g>
</g>
</svg>
