<svg xmlns="http://www.w3.org/2000/svg" viewBox="0 0 50 50"><defs><style>.cls-4{fill:none;stroke:#444;stroke-linecap:round;stroke-linejoin:round;stroke-width:.5px}</style></defs><g id="Camada_1"><path fill="#35d3c3" d="M27.5 22.8l7.8 2.4-6.7 4.8.1 8.2-6.5-4.9-7.8 2.6 2.6-7.8-4.9-6.6 8.2.1 4.8-6.7 2.4 7.9z"/><path fill="#7df4eb" d="M42 9.9l-4.8-.8C33-1.8 23.4 4.5 21.2 6.6l-7.3 3c-12.2-2-7.6 10.6-7.8 11.2l-.8 2.1c-3.5 0-6.1 8 1.4 9.2l-2 5.5 2.8 6.5 6.2 1.9 33-11.7c5-6.2-2.7-8.7-3.1-9.2-3.7-4.5 2-5.1 1.4-7.9s-2.5-7.2-2.9-7.3z"/><path d="M43.8 16c0 3.4-2.8 6.1-6.1 6.1h-2.2c-1.2-1.7-3.2-2.8-5.4-2.8s-2.8.4-3.9 1.2c-.8-2.7-3.4-4.6-6.3-4.6s-4.6 1.3-5.8 3.3c-.6-.3-1.3-.4-2.1-.4-1.5 0-2.9.7-3.8 1.7-1.3-1.1-2.1-2.8-2.1-4.6 0-3.4 2.7-6.1 6.1-6.1s1.8.2 2.7.6c.8-1.6 2.5-2.7 4.4-2.7s2 .3 2.8.9c1-2.7 3.6-4.5 6.6-4.5s6.5 2.6 7 6c.6-.2 1.2-.3 1.9-.3 3.4 0 6.1 2.8 6.1 6.1z" class="cls-4"/><path d="M26.3 20.6c-.6.4-1.1 1-1.6 1.6-.8 1.1-1.3 2.4-1.3 3.9v.8c-.7-.3-1.5-.4-2.3-.4-3.1 0-6 2-7 4.7H6.2c-2.1 0-3.8-1.7-3.8-3.8s1.7-3.8 3.8-3.8h.7c0-1.2.5-2.2 1.2-3 .9-1.1 2.3-1.7 3.8-1.7s1.4.2 2.1.4c1.1-2 3.3-3.3 5.8-3.3s5.5 1.9 6.3 4.6z" class="cls-4"/><path d="M47.5 30.7c0 2.1-1.7 3.8-3.8 3.8h-.9c-1.1-1.4-3.2-2.4-5.1-2.4s-1.9.2-2.7.6c-.8-1.6-2.5-2.7-4.4-2.7s-.8 0-1.2.2c-.6.2-1.1.4-1.6.7-.7-1.9-2.3-3.5-4.3-4.2v-.8c0-1.4.5-2.8 1.3-3.9.4-.6.9-1.1 1.6-1.6 1.1-.8 2.4-1.2 3.9-1.2 2.2 0 4.2 1.1 5.4 2.8.1.2.2.3.3.5.6-.3 1.3-.4 2.1-.4 2.7 0 4.9 2.1 5.1 4.8h.7c2.1 0 3.8 1.7 3.8 3.8z" class="cls-4"/><path fill="#444" d="M44.7 24.8c-.4-1-.9-1.9-1.6-2.6 1.7-1.5 2.9-3.8 2.9-6.3 0-4.6-3.7-8.3-8.3-8.3h-.3c-1.4-3.4-4.7-5.8-8.5-5.8s-5.8 1.5-7.5 3.9c-.6-.2-1.2-.2-1.9-.2-2 0-3.9.8-5.2 2.3-1.1-.2-2.1-.3-3.2 0-2.8.5-5.2 2.3-6.2 4.9s-.7 5.8.9 8.1l-.3.7C2.7 22 .6 24.4.6 27.4S3 33 6 33.3c-1.2 1.5-1.8 3.5-1.7 5.6.3 4.4 4.2 7.8 8.6 7.8h21.4c.6 0 1.1-.5 1.1-1.1 0-.6-.5-1.1-1.1-1.1H12.2c-3.3 0-6.1-2.8-6.1-6.1s2.7-6.1 6.1-6.1 1.3.1 1.9.3c0-.5.2-.9.3-1.3H6.3c-2.1 0-3.8-1.7-3.8-3.8s1.7-3.8 3.8-3.8H7c0-1.2.5-2.2 1.2-3-1.3-1.1-2.1-2.8-2.1-4.6 0-3.4 2.7-6.1 6.1-6.1s1.8.2 2.7.6c.8-1.6 2.5-2.7 4.4-2.7s2 .3 2.8.9c1-2.7 3.6-4.5 6.6-4.5s6.5 2.6 7 6c.5-.2 1-.3 1.6-.3 3.2-.2 5.9 2 6.4 5.1.6 3.8-2.3 7.2-6.1 7.2h.3c2.7 0 4.9 2.2 5.1 4.9h.7c2.3 0 4.2 2.1 3.7 4.6s-2 3-3.8 3h-1.1c.8 1 1.3 2.4 1.3 3.8s-.2 1.9-.7 2.8-.1.8.1 1.1c.5.6 1.5.5 1.8-.2.6-1.1.9-2.4.9-3.7s0-1.3-.2-2c2.3-.8 3.9-3 3.9-5.6s-2.1-5.4-4.9-5.9z"/></g></svg>