<?xml version="1.0" encoding="UTF-8"?>
<svg xmlns="http://www.w3.org/2000/svg" version="1.1" viewBox="0 0 50 50">
  <defs>
    <style>
      .cls-1 {
        fill: #7df4eb;
      }

      .cls-2 {
        fill: #444;
      }

      .cls-3 {
        fill: #35d3c3;
      }

      .cls-4 {
        fill: none;
        stroke: #444;
        stroke-linecap: round;
        stroke-linejoin: round;
        stroke-width: .5px;
      }
    </style>
  </defs>
  <!-- Generator: Adobe Illustrator 28.7.1, SVG Export Plug-In . SVG Version: 1.2.0 Build 142)  -->
  <g>
    <g id="Camada_1">
      <g>
        <polygon class="cls-3" points="27.5 22.8 35.3 25.2 28.6 30 28.7 38.2 22.2 33.3 14.4 35.9 17 28.1 12.1 21.5 20.3 21.6 25.1 14.9 27.5 22.8"/>
        <g>
          <g>
            <path class="cls-1" d="M42,9.9l-4.8-.8c-4.2-10.9-13.8-4.6-16-2.5l-7.3,3c-12.2-2-7.6,10.6-7.8,11.2l-.8,2.1c-3.5,0-6.1,8,1.4,9.2l-2,5.5,2.8,6.5,6.2,1.9,33-11.7c5-6.2-2.7-8.7-3.1-9.2-3.7-4.5,2-5.1,1.4-7.9s-2.5-7.2-2.9-7.3Z"/>
            <path class="cls-4" d="M43.8,16c0,3.4-2.8,6.1-6.1,6.1h-2.2c-1.2-1.7-3.2-2.8-5.4-2.8s-2.8.4-3.9,1.2c-.8-2.7-3.4-4.6-6.3-4.6s-4.6,1.3-5.8,3.3c-.6-.3-1.3-.4-2.1-.4-1.5,0-2.9.7-3.8,1.7-1.3-1.1-2.1-2.8-2.1-4.6,0-3.4,2.7-6.1,6.1-6.1s1.8.2,2.7.6c.8-1.6,2.5-2.7,4.4-2.7s2,.3,2.8.9c1-2.7,3.6-4.5,6.6-4.5s6.5,2.6,7,6c.6-.2,1.2-.3,1.9-.3,3.4,0,6.1,2.8,6.1,6.1Z"/>
            <g>
              <path class="cls-4" d="M26.3,20.6c-.6.4-1.1,1-1.6,1.6-.8,1.1-1.3,2.4-1.3,3.9s0,.5,0,.8c-.7-.3-1.5-.4-2.3-.4-3.1,0-6,2-7,4.7h-7.9c-2.1,0-3.8-1.7-3.8-3.8s1.7-3.8,3.8-3.8.5,0,.7,0c0-1.2.5-2.2,1.2-3,.9-1.1,2.3-1.7,3.8-1.7s1.4.2,2.1.4c1.1-2,3.3-3.3,5.8-3.3s5.5,1.9,6.3,4.6Z"/>
              <path class="cls-4" d="M47.5,30.7c0,2.1-1.7,3.8-3.8,3.8h-.9c-1.1-1.4-3.2-2.4-5.1-2.4s-1.9.2-2.7.6c-.8-1.6-2.5-2.7-4.4-2.7s-.8,0-1.2.2c-.6.2-1.1.4-1.6.7-.7-1.9-2.3-3.5-4.3-4.2,0-.3,0-.5,0-.8,0-1.4.5-2.8,1.3-3.9.4-.6.9-1.1,1.6-1.6,1.1-.8,2.4-1.2,3.9-1.2,2.2,0,4.2,1.1,5.4,2.8.1.2.2.3.3.5.6-.3,1.3-.4,2.1-.4,2.7,0,4.9,2.1,5.1,4.8.2,0,.4,0,.7,0,2.1,0,3.8,1.7,3.8,3.8Z"/>
            </g>
            <path class="cls-2" d="M44.7,24.8c-.4-1-.9-1.9-1.6-2.6,1.7-1.5,2.9-3.8,2.9-6.3,0-4.6-3.7-8.3-8.3-8.3s-.2,0-.3,0c-1.4-3.4-4.7-5.8-8.5-5.8s-5.8,1.5-7.5,3.9c-.6-.2-1.2-.2-1.9-.2-2,0-3.9.8-5.2,2.3-1.1-.2-2.1-.3-3.2,0-2.8.5-5.2,2.3-6.2,4.9s-.7,5.8.9,8.1l-.3.7c-2.8.5-4.9,2.9-4.9,5.9s2.4,5.6,5.4,5.9c-1.2,1.5-1.8,3.5-1.7,5.6.3,4.4,4.2,7.8,8.6,7.8h21.4c.6,0,1.1-.5,1.1-1.1h0c0-.6-.5-1.1-1.1-1.1H12.2c-3.3,0-6.1-2.8-6.1-6.1s2.7-6.1,6.1-6.1,1.3.1,1.9.3c0-.5.2-.9.3-1.3H6.3c-2.1,0-3.8-1.7-3.8-3.8s1.7-3.8,3.8-3.8.5,0,.7,0c0-1.2.5-2.2,1.2-3-1.3-1.1-2.1-2.8-2.1-4.6,0-3.4,2.7-6.1,6.1-6.1s1.8.2,2.7.6c.8-1.6,2.5-2.7,4.4-2.7s2,.3,2.8.9c1-2.7,3.6-4.5,6.6-4.5s6.5,2.6,7,6c.5-.2,1-.3,1.6-.3,3.2-.2,5.9,2,6.4,5.1.6,3.8-2.3,7.2-6.1,7.2h.3c2.7,0,4.9,2.2,5.1,4.9.2,0,.4,0,.7,0,2.3,0,4.2,2.1,3.7,4.6s-2,3-3.8,3h-1.1c.8,1,1.3,2.4,1.3,3.8s-.2,1.9-.7,2.8-.1.8.1,1.1,0,0,0,0c.5.6,1.5.5,1.8-.2.6-1.1.9-2.4.9-3.7s0-1.3-.2-2c2.3-.8,3.9-3,3.9-5.6s-2.1-5.4-4.9-5.9Z"/>
          </g>
          <path class="cls-2" d="M29.5,43.1"/>
        </g>
      </g>
    </g>
  </g>
</svg>