<?xml version="1.0" encoding="UTF-8"?>
<svg id="Layer_1" xmlns="http://www.w3.org/2000/svg" version="1.1" viewBox="0 0 50 50">
  <!-- Generator: Adobe Illustrator 29.5.1, SVG Export Plug-In . SVG Version: 2.1.0 Build 141)  -->
  <defs>
    <style>
      .st0 {
        stroke-width: .6px;
      }

      .st0, .st1, .st2 {
        fill: none;
        stroke: #444;
        stroke-linecap: round;
        stroke-linejoin: round;
      }

      .st3 {
        fill: #8256d8;
      }

      .st4 {
        fill: #a475ef;
      }

      .st1 {
        stroke-width: 1.1px;
      }

      .st2 {
        stroke-width: 3px;
      }
    </style>
  </defs>
  <polygon class="st3" points="24.2 16.9 32.9 13.8 30.1 22.6 35.8 29.9 26.6 29.9 21.4 37.6 18.5 28.8 9.6 26.2 17 20.8 16.7 11.5 24.2 16.9"/>
  <g>
    <path class="st4" d="M44.8,22.7l.4-20.4-21.4-.6v6.1c-4.3,0-16.1,0-16.1,0v15.9s-5.7.8-5.7.8v20.7c2.8.1,18.2,1.1,20.7.2l.7-6.7,16.6-5.9-.2-2.2-.6-6.1c.4-.8,6.8.7,5.6-1.9Z"/>
    <g>
      <rect class="st1" x="18.4" y="8.7" width="20.4" height="20.4"/>
      <rect class="st1" x="8.6" y="8.7" width="20.4" height="20.4" transform="translate(37.5 37.8) rotate(180)"/>
      <path class="st1" d="M24.5,39.7h-16v-20.4h20.4v14.3"/>
      <rect class="st0" x="23.7" y="3.4" width="20.4" height="20.4"/>
      <rect class="st0" x="3.3" y="23.9" width="20.4" height="20.4" transform="translate(47.6 20.6) rotate(90)"/>
    </g>
    <polyline class="st2" points="39.6 34.5 39.6 23.9 45.2 23.9 45.2 2.4 23.7 2.4 23.7 7.9 18.1 7.9 7.8 7.9 7.8 19 7.8 23.9 2.2 23.9 2.2 45.3 23.7 45.3 23.7 40.5 27.3 40.5"/>
  </g>
</svg>