<svg xmlns="http://www.w3.org/2000/svg" fill="none" viewBox="0 0 50 50"><path fill="#00C8E2" d="M24.2 16.9l8.7-3.1-2.8 8.8 5.7 7.3h-9.2l-5.2 7.7-2.9-8.8-8.9-2.6 7.4-5.4-.3-9.3 7.5 5.4z"/><path fill="#00DFFC" d="M44.8 22.7l.4-20.4-21.4-.6v6.1H7.7v15.9l-5.7.8v20.7c2.8.1 18.2 1.1 20.7.2l.7-6.7L40 32.8l-.2-2.2-.6-6.1c.4-.8 6.8.7 5.6-1.9v.1z"/><path stroke="#444" stroke-linecap="round" stroke-linejoin="round" stroke-width="1.1" d="M18.4 8.7h20.4v20.4H18.4V8.7z"/><path stroke="#444" stroke-linecap="round" stroke-linejoin="round" stroke-width="1.1" d="M28.9 29.1H8.5V8.7h20.4v20.4z"/><path stroke="#444" stroke-linecap="round" stroke-linejoin="round" stroke-width="1.1" d="M24.5 39.7h-16V19.3h20.4v14.3"/><path stroke="#444" stroke-linecap="round" stroke-linejoin="round" stroke-width=".6" d="M23.7 3.4h20.4v20.4H23.7V3.4zm0 20.5v20.4H3.3V23.9h20.4z"/><path stroke="#444" stroke-linecap="round" stroke-linejoin="round" stroke-width="3" d="M39.6 34.5V23.9h5.6V2.4H23.7v5.5H7.8v16H2.2v21.4h21.5v-4.8h3.6"/></svg>