<svg xmlns="http://www.w3.org/2000/svg" id="Camada_1" data-name="Camada 1" version="1.1" viewBox="0 0 50 50"><defs><style>.cls-2{stroke-width:0;fill:#444}.cls-4{fill:none;stroke:#444;stroke-linecap:round;stroke-linejoin:round;stroke-width:2.5px}</style></defs><path fill="#fcc34f" stroke-width="0" d="M48.8 20.3c-.2-.8-2.7-7.5-3.2-8.1l-3-3.5h-.2L34.8 3 27 2.3c-3.2 0-14.5.3-21.4 10.2L1.7 23.1h-.2l4 13.5c.1.4 4.5 5.7 4.9 5.9l5.6 3 32.2-11.7c.7-.4 1.7-8.6.8-13.4z"/><path d="M32.5 47.5c-7 2.3-15 1.2-21.3-3.6C.8 36.2-1.3 21.5 6.5 11.1" class="cls-4"/><path d="M6.4 11.3c2-3 4.7-4.7 4.7-4.7l.7-.5C19.9.4 31 .2 39.4 6.5c10.4 7.8 12.4 22.5 4.7 32.8" class="cls-4"/><path d="M22.9 25.6c.2-.1.4-.2.6-.2h.2c.3 0 .5.2.7.4l5.4 7.4c0 .1.2.2.4.2h.2c.2-.1.2-.4 0-.6L25 25.4c-.3-.4-.8-.7-1.3-.8h-.3c-.4 0-.8.1-1.1.4-.4.3-.7.8-.8 1.3 0 .5 0 1 .3 1.4s7.3 10 7.3 10c0 .1.2.2.4.2h.2s.2-.2.2-.3v-.3l-7.3-10c-.2-.2-.2-.5-.2-.8 0-.3.2-.5.4-.7zm21 13.4c-.2-.2-.3-.8-.5-1.8-.1-.8-.2-1.7-.6-2.3-.7-1-4.6-6.3-5-6.9-.3-.5-.9-.7-1.4-.7s-.7.1-1 .3c-.1.1-.3.2-.4.4-.1.2-.1.5 0 .6h.3c.1 0 .3 0 .3-.2l.2-.2c.2-.1.3-.2.5-.2.3 0 .5.1.7.4 0 .1 4.3 5.8 5 6.9.3.4.4 1.2.5 1.9.2 1.2.4 1.9.7 2.2 0 0 .2.1.3.1.2 0 .3-.1.4-.3v-.4z" class="cls-2"/><path d="M37.2 43.5c-.3-.3-.9-.6-1.7-.8-.6-.2-1.3-.4-2.1-.6-1.6-.4-3.3-.8-4-1.4L26.3 38c-.2-.2-.3-.5-.3-.8 0-.3 0-.6.3-.8.2-.2.4-.3.7-.3.2 0 .4-.2.4-.5 0-.2-.2-.4-.4-.4-.5 0-.9.3-1.2.6-.4.4-.6.9-.5 1.4 0 .5.2 1 .5 1.3l3.1 2.7c.9.7 2.6 1.2 4.4 1.6.7.2 1.4.4 2 .5.7.2 1.2.4 1.4.6 0 0 .2.1.3.1.2 0 .4-.1.4-.3 0-.2 0-.3-.1-.4zm-3.5-14.4h.2c.3 0 .5.2.7.4l.3.4c0 .1.2.2.4.2h.2c.2-.1.2-.4 0-.6l-.3-.4c-.3-.4-.8-.7-1.3-.8h-.3c-.4 0-.8.1-1.1.4-.2.2-.4.3-.5.6-.1.2 0 .5.1.6h.2c.2 0 .3 0 .4-.2 0-.1.2-.2.3-.3.2-.1.4-.2.6-.2zm-1.8 1.8l.4.5c0 .1.2.2.4.2h.2s.2-.2.2-.3V31l-.4-.5c-.4-.5-1-.8-1.6-.8s-.8.1-1.1.4c-.1 0-.2.2-.3.3 0 0-.1.2-.1.3 0 .1 0 .2.1.3 0 0 .2.1.3.1.1 0 .2 0 .3-.1 0 0 .1-.1.2-.1.2-.1.4-.2.6-.2.3 0 .7.2.9.4zm-9.4-.3c-2.4-.4-4.1-2.7-3.7-5.2.4-2.4 2.7-4.1 5.2-3.7 2.4.4 4.1 2.7 3.7 5.2 0 .2.1.5.4.5.2 0 .4-.1.4-.4.1-.7 0-1.4 0-2.1-.2-.7-.4-1.3-.8-1.9-.4-.6-.9-1-1.5-1.4-.6-.4-1.3-.6-2-.8-.7-.1-1.4 0-2.1 0-.7.2-1.3.4-1.9.8-.6.4-1 .9-1.4 1.5-.4.6-.6 1.3-.8 2-.1.7 0 1.4 0 2.1.2.7.4 1.3.8 1.9.4.6.9 1 1.5 1.4.6.4 1.3.6 2 .8.2 0 .4-.1.4-.4 0-.2-.1-.5-.4-.5z" class="cls-2"/><path fill="none" stroke="#444" stroke-miterlimit="10" stroke-width=".5" d="M33.3 14.1h.3c.8 0 1.5-.6 1.6-1.4.2-.9-.5-1.8-1.4-1.9-.4 0-.9 0-1.2.3-.4.3-.6.6-.7 1.1 0 .4 0 .9.3 1.2.3.4.6.6 1.1.7zm6.1 5.7c-.2 1.1.6 2.2 1.7 2.4h.4c.4 0 .9-.1 1.2-.4.5-.3.8-.8.9-1.4.2-1.1-.6-2.2-1.7-2.4-1.1-.2-2.2.6-2.4 1.7zM15 11.3h.2c.3 0 .5 0 .7-.2.3-.2.4-.5.5-.8.1-.7-.3-1.3-1-1.4-.7-.1-1.3.3-1.4 1-.1.7.3 1.3 1 1.4zm.1 10.5c.1-.7 0-1.4-.4-2-.4-.6-1-1-1.7-1.1-.7-.1-1.4 0-2 .4-.6.4-1 1-1.1 1.7-.2 1.4.7 2.8 2.2 3.1h.4c1.3 0 2.4-.9 2.6-2.2zm-7.6 8.3c-.6-.1-1.3.3-1.4 1-.1.6.3 1.3 1 1.4h.2c.6 0 1.1-.4 1.2-1 .1-.6-.3-1.3-1-1.4zm17.8-15.4h.3c.4 0 .8-.1 1.1-.4.4-.3.7-.8.8-1.3 0-.5 0-1-.3-1.5-.3-.4-.8-.7-1.3-.8-.5 0-1 0-1.5.3-.4.3-.7.8-.8 1.3-.2 1.1.5 2.1 1.6 2.3zm-9 19.2c-.5 0-1.1 0-1.5.3-.4.3-.7.8-.8 1.3 0 .5 0 1.1.3 1.5.3.4.8.7 1.3.8h.3c1 0 1.8-.7 2-1.7.2-1.1-.5-2.1-1.6-2.3z"/><path d="M30.3 16.8h.2c.2 0 .3 0 .4-.2h.1c.2-.3.1-.6 0-.8-.2-.2-.5-.1-.6 0h-.1c-.2.3-.1.6 0 .8zM27 20.5h-.1c-.2.3-.1.6 0 .8h.2c.2 0 .3 0 .4-.2h.1c.2-.3.1-.6 0-.8-.2-.2-.5-.1-.6 0zm2.2-2.2h.2c.2 0 .3 0 .4-.2h.1c.2-.3.1-.6 0-.8-.2-.2-.5-.1-.6 0h-.1c-.2.3-.1.6 0 .8zm-1.1 1.5h.2c.2 0 .3 0 .4-.2h.1c.2-.3.1-.6 0-.8-.2-.2-.5-.1-.6 0h-.1c-.2.3-.1.6 0 .8zm3.3-4.4h.2c.2 0 .3 0 .4-.2h.1c.2-.3.1-.6 0-.8-.2-.2-.5-.1-.6 0h-.1c-.2.3-.1.6 0 .8zm-7.4 4v.2c0 .3 0 .5.4.5.3 0 .5-.1.5-.4v-.2c0-.3 0-.5-.4-.5-.3 0-.5.1-.5.4zm1.2-1.4v-.2c0-.3 0-.5-.4-.5-.3 0-.5.1-.5.4v.2c0 .3 0 .5.4.5.3 0 .5-.1.5-.4zm.3-1.8V16c0-.3 0-.5-.4-.5-.3 0-.5.1-.5.4v.2c0 .3 0 .5.4.5.3 0 .5-.1.5-.4zm-9.3-4.3c-.2.1-.3.4-.2.6 0 .3.2.4.3.4h.3c.2-.1.3-.4.2-.6-.1-.4-.4-.5-.6-.3zm3.6 8.5c0 .3.2.4.3.4h.3c.2-.1.3-.4.2-.6-.1-.4-.4-.5-.6-.3-.2.1-.3.4-.2.6zm-3.1-6.3c0 .3.2.4.3.4h.3c.2-.1.3-.4.2-.6-.1-.4-.4-.5-.6-.3-.2.1-.3.4-.2.6zm1.6 3.1c0 .3.2.4.3.4h.3c.2-.1.3-.4.2-.6-.1-.4-.4-.5-.6-.3-.2.1-.3.4-.2.6zm.8 1.6c0 .3.2.4.3.4h.3c.2-.1.3-.4.2-.6-.1-.4-.4-.5-.6-.3-.2.1-.3.4-.2.6zm-1.6-3.1c0 .3.2.4.3.4h.3c.2-.1.3-.4.2-.6-.1-.4-.4-.5-.6-.3-.2.1-.3.4-.2.6zm.4 8.1c.1-.2 0-.5-.2-.6h-.1c-.2-.2-.5 0-.6.2-.1.2 0 .5.2.6h.2c.2 0 .4 0 .5-.3zm-2.1-.4h.1c.2 0 .4 0 .5-.3.1-.2 0-.5-.2-.6h-.1c-.2-.2-.5 0-.6.2-.1.2 0 .5.2.6h.1zm-6 6.6h-.2c-.2.1-.4.4-.3.6 0 .2.2.3.4.3h.4c.2-.1.4-.4.3-.6 0-.2-.3-.4-.6-.3zm3.5-1.1h-.2c-.2.1-.4.4-.3.6 0 .2.2.3.4.3h.4c.2-.1.4-.4.3-.6 0-.2-.3-.4-.6-.3zm-1.8.6h-.2c-.2.1-.4.4-.3.6 0 .2.2.3.4.3h.4c.2-.1.4-.4.3-.6 0-.2-.3-.4-.6-.3zm5.2-.7h.4c.2-.1.4-.4.3-.6 0-.2-.3-.4-.6-.3h-.2c-.2.1-.4.4-.3.6 0 .2.2.3.4.3zm-1.7-.4h-.2c-.2.1-.4.4-.3.6 0 .2.2.3.4.3h.4c.2-.1.4-.4.3-.6 0-.2-.3-.4-.6-.3zm3.4 4.3c-.2-.2-.5-.1-.7 0h-.1c-.2.3-.1.6 0 .8h.2c.2 0 .3 0 .4-.2h.1c.2-.3.1-.6 0-.8zm1.1-1.5c-.2-.2-.5-.1-.7 0h-.1c-.2.3-.1.6 0 .8h.2c.2 0 .3 0 .4-.2h.1c.2-.3.1-.6 0-.8zm10.2-7.5h-.2c-.2.1-.4.4-.3.6 0 .2.2.3.4.3h.4c.2-.1.4-.4.3-.6 0-.2-.3-.4-.6-.3zm1.2.1c0 .2.2.3.4.3h.4c.2-.1.4-.4.3-.6 0-.2-.3-.4-.6-.3h-.2c-.2.1-.4.4-.3.6zm2.2-1.2h-.2c-.2.1-.4.4-.3.6 0 .2.2.3.4.3h.4c.2-.1.4-.4.3-.6 0-.2-.3-.4-.6-.3zm1.2.1c0 .2.2.3.4.3h.4c.2-.1.4-.4.3-.6 0-.2-.3-.4-.6-.3h-.2c-.2.1-.4.4-.3.6zm2.2-1.2h-.2c-.2.1-.4.4-.3.6 0 .2.2.3.4.3h.4c.2-.1.4-.4.3-.6 0-.2-.3-.4-.6-.3zm1.3.1c0 .2.2.3.4.3h.4c.2-.1.4-.4.3-.6 0-.2-.3-.4-.6-.3h-.2c-.2.1-.4.4-.3.6z" class="cls-2"/></svg>