<?xml version="1.0" encoding="UTF-8"?>
<svg id="Camada_1" data-name="Camada 1" xmlns="http://www.w3.org/2000/svg" version="1.1" viewBox="0 0 50 50">
  <defs>
    <style>
      .cls-1 {
        fill: #35d3c3;
      }

      .cls-1, .cls-2, .cls-3 {
        stroke-width: 0px;
      }

      .cls-2, .cls-4 {
        fill: #444;
      }

      .cls-4 {
        stroke-linecap: round;
        stroke-linejoin: round;
      }

      .cls-4, .cls-5 {
        stroke: #444;
      }

      .cls-5 {
        fill: none;
        stroke-miterlimit: 10;
        stroke-width: .5px;
      }

      .cls-3 {
        fill: #7df4eb;
      }
    </style>
  </defs>
  <polygon class="cls-1" points="25.3 24.3 33.2 26.7 26.5 31.5 26.6 39.7 20 34.8 12.2 37.4 14.9 29.6 10 23.1 18.2 23.2 22.9 16.5 25.3 24.3"/>
  <g>
    <path class="cls-3" d="M42.7,14.1c2.1,0,3.7-1.7,3.7-3.7v-4.7c0-.8-.2-1.5-.7-2.1h0s0,0,0,0c-.1-.2-.3-.4-.5-.5,0,0-.1-.1-.2-.2-.1-.1-.3-.2-.4-.3,0,0-.2,0-.3-.1-.2,0-.3-.1-.5-.2,0,0-.2,0-.2,0-.3,0-.5,0-.8-.1,0,0,0,0,0,0H7.4c-2.1,0-3.7,1.7-3.7,3.7v4.7h0c0,2.1,1.7,3.7,3.7,3.7h0s.9,0,.9,0v4.2h-.9c-2.1,0-3.7,1.7-3.7,3.7v5.2c0,2.1,1.7,3.7,3.7,3.7h0s.9,0,.9,0v4.2h-.9c-2.1,0-3.7,1.7-3.7,3.7v4.7c0,2.1,1.7,3.7,3.7,3.7h0s.9,0,.9,0c0,.9.9,1.6,1.8,1.3l34.8-12.7c-.6-.5-1.4-.8-2.2-.8h-.9v-4.7h.9c2.1,0,3.7-1.7,3.7-3.7v-4.7c0-2.1-1.7-3.7-3.7-3.7h-.9v-4.2h.9Z"/>
    <g>
      <path class="cls-2" d="M42.7,15.3c2.7,0,4.9-2.2,4.9-4.9v-4.7c0-2.7-2.2-4.9-4.9-4.9H7.4c-2.7,0-4.9,2.2-4.9,4.9v4.7c0,2.7,2.2,4.9,4.9,4.9v2.4c-2.7,0-4.9,2.2-4.9,4.9v4.7c0,2.7,2.2,4.9,4.9,4.9v2.4c-2.7,0-4.9,2.2-4.9,4.9v4.7c0,2.7,2.2,4.9,4.9,4.9h23.7c.6,0,1.1-.6,1.1-1.2,0-.6-.5-1.1-1.1-1.1H7.4c-1.4,0-2.6-1.2-2.6-2.6v-4.7c0-1.4,1.2-2.6,2.6-2.6h35.3c1.4,0,2.6,1.2,2.6,2.6v4.4c0,.6.6,1.1,1.2,1.1.6,0,1.1-.5,1.1-1.1v-4.4c0-2.7-2.2-4.9-4.9-4.9v-2.4c2.7,0,4.9-2.2,4.9-4.9v-4.7c0-2.7-2.2-4.9-4.9-4.9v-2.4h0ZM4.8,10.4v-4.7c0-1.4,1.2-2.6,2.6-2.6h35.3c1.4,0,2.6,1.2,2.6,2.6v4.7c0,1.4-1.2,2.6-2.6,2.6H7.4c-1.4,0-2.6-1.2-2.6-2.6h0ZM40.9,34.5H9.2v-2.4h31.7s0,2.4,0,2.4ZM45.3,22.5v4.7c0,1.4-1.2,2.6-2.6,2.6H7.4c-1.4,0-2.6-1.2-2.6-2.6v-4.7c0-1.4,1.2-2.6,2.6-2.6h35.3c1.4,0,2.6,1.2,2.6,2.6h0ZM40.9,17.7H9.2v-2.4h31.7s0,2.4,0,2.4Z"/>
      <path class="cls-5" d="M15.5,44.1c-1.1,0-2-.9-2-2,0-1.1.9-2,2-2,1.1,0,2,.9,2,2,0,1.1-.9,2-2,2h0Z"/>
      <path class="cls-5" d="M15.5,26.6c-1.1,0-2-.9-2-2,0-1.1.9-2,2-2,1.1,0,2,.9,2,2,0,1.1-.9,2-2,2h0Z"/>
      <path class="cls-5" d="M15.5,9.9c-1.1,0-2-.9-2-2,0-1.1.9-2,2-2,1.1,0,2,.9,2,2,0,1.1-.9,2-2,2h0Z"/>
      <line class="cls-4" x1="4.5" y1="7.9" x2="12.2" y2="7.9"/>
      <line class="cls-4" x1="4.5" y1="24.7" x2="12.2" y2="24.7"/>
      <line class="cls-4" x1="4.4" y1="42.2" x2="12.1" y2="42.2"/>
    </g>
  </g>
</svg>