<?xml version="1.0" encoding="UTF-8"?>
<svg id="Camada_1" data-name="Camada 1" xmlns="http://www.w3.org/2000/svg" version="1.1" viewBox="0 0 50 50">
  <defs>
    <style>
      .cls-1 {
        fill: #fcc34f;
      }

      .cls-1, .cls-2, .cls-3 {
        stroke-width: 0px;
      }

      .cls-2 {
        fill: #444;
      }

      .cls-4 {
        stroke-linecap: round;
        stroke-linejoin: round;
        stroke-width: 2.5px;
      }

      .cls-4, .cls-5 {
        fill: none;
        stroke: #444;
      }

      .cls-3 {
        fill: #7ed0d6;
      }

      .cls-5 {
        stroke-miterlimit: 10;
        stroke-width: .5px;
      }
    </style>
  </defs>
  <path class="cls-3" d="M34.4,3.4"/>
  <path class="cls-1" d="M48.8,20.3c-.2-.8-2.7-7.5-3.2-8.1l-3-3.5h-.2c0,0-7.6-5.7-7.6-5.7l-7.8-.7c-3.2,0-14.5.3-21.4,10.2l-3.9,10.6h-.2c0,0,4,13.5,4,13.5.1.4,4.5,5.7,4.9,5.9l5.6,3,32.2-11.7c.7-.4,1.7-8.6.8-13.4Z"/>
  <g>
    <path class="cls-4" d="M32.5,47.5c-7,2.3-15,1.2-21.3-3.6C.8,36.2-1.3,21.5,6.5,11.1"/>
    <path class="cls-4" d="M6.4,11.3c2-3,4.7-4.7,4.7-4.7l.7-.5C19.9.4,31,.2,39.4,6.5c10.4,7.8,12.4,22.5,4.7,32.8"/>
  </g>
  <g>
    <path class="cls-2" d="M22.9,25.6c.2-.1.4-.2.6-.2s.1,0,.2,0c.3,0,.5.2.7.4l5.4,7.4c0,.1.2.2.4.2s.1,0,.1,0c0,0,0,0,.1,0,.2-.1.2-.4,0-.6l-5.4-7.4h0c-.3-.4-.8-.7-1.3-.8-.1,0-.2,0-.3,0-.4,0-.8.1-1.1.4-.4.3-.7.8-.8,1.3,0,.5,0,1,.3,1.4h0s7.3,10,7.3,10c0,.1.2.2.4.2h0c0,0,.1,0,.1,0,0,0,0,0,.1,0,0,0,.2-.2.2-.3,0-.1,0-.2,0-.3l-7.3-10h0c-.2-.2-.2-.5-.2-.8,0-.3.2-.5.4-.7Z"/>
    <path class="cls-2" d="M43.9,39c-.2-.2-.3-.8-.5-1.8-.1-.8-.2-1.7-.6-2.3-.7-1-4.6-6.3-5-6.9h0c-.3-.5-.9-.7-1.4-.7s-.7.1-1,.3c-.1.1-.3.2-.4.4-.1.2-.1.5,0,.6,0,0,.2,0,.3,0,.1,0,.3,0,.3-.2,0,0,.1-.1.2-.2.2-.1.3-.2.5-.2.3,0,.5.1.7.4h0s0,0,0,0c0,.1,4.3,5.8,5,6.9.3.4.4,1.2.5,1.9.2,1.2.4,1.9.7,2.2,0,0,.2.1.3.1.2,0,.3-.1.4-.3,0-.1,0-.3,0-.4Z"/>
    <path class="cls-2" d="M37.2,43.5c-.3-.3-.9-.6-1.7-.8-.6-.2-1.3-.4-2.1-.6h0c-1.6-.4-3.3-.8-4-1.4l-3.1-2.7s0,0,0,0c-.2-.2-.3-.5-.3-.8,0-.3,0-.6.3-.8.2-.2.4-.3.7-.3.2,0,.4-.2.4-.5,0-.2-.2-.4-.4-.4s0,0,0,0c-.5,0-.9.3-1.2.6-.4.4-.6.9-.5,1.4,0,.5.2,1,.5,1.3,0,0,0,0,0,0l3.1,2.7h0s0,0,0,0c.9.7,2.6,1.2,4.4,1.6h0c.7.2,1.4.4,2,.5.7.2,1.2.4,1.4.6,0,0,.2.1.3.1h0c.2,0,.4-.1.4-.3,0-.2,0-.3-.1-.4Z"/>
    <path class="cls-2" d="M33.7,29.1c0,0,.1,0,.2,0,.3,0,.5.2.7.4l.3.4c0,.1.2.2.4.2s.1,0,.1,0c0,0,0,0,.1,0,.2-.1.2-.4,0-.6l-.3-.4c-.3-.4-.8-.7-1.3-.8-.1,0-.2,0-.3,0-.4,0-.8.1-1.1.4-.2.2-.4.3-.5.6-.1.2,0,.5.1.6,0,0,.1,0,.2,0h0c.2,0,.3,0,.4-.2,0-.1.2-.2.3-.3.2-.1.4-.2.6-.2Z"/>
    <path class="cls-2" d="M31.9,30.9l.4.5c0,.1.2.2.4.2s.1,0,.1,0c0,0,0,0,.1,0,0,0,.2-.2.2-.3,0-.1,0-.2,0-.3l-.4-.5c-.4-.5-1-.8-1.6-.8s-.8.1-1.1.4c-.1,0-.2.2-.3.3,0,0-.1.2-.1.3,0,.1,0,.2.1.3,0,0,.2.1.3.1h0c.1,0,.2,0,.3-.1,0,0,.1-.1.2-.1.2-.1.4-.2.6-.2.3,0,.7.2.9.4Z"/>
    <path class="cls-2" d="M22.5,30.6c-2.4-.4-4.1-2.7-3.7-5.2.4-2.4,2.7-4.1,5.2-3.7,2.4.4,4.1,2.7,3.7,5.2,0,.2.1.5.4.5,0,0,0,0,0,0,.2,0,.4-.1.4-.4.1-.7,0-1.4,0-2.1-.2-.7-.4-1.3-.8-1.9-.4-.6-.9-1-1.5-1.4-.6-.4-1.3-.6-2-.8-.7-.1-1.4,0-2.1,0-.7.2-1.3.4-1.9.8-.6.4-1,.9-1.4,1.5-.4.6-.6,1.3-.8,2-.1.7,0,1.4,0,2.1.2.7.4,1.3.8,1.9.4.6.9,1,1.5,1.4.6.4,1.3.6,2,.8,0,0,0,0,0,0,.2,0,.4-.1.4-.4,0-.2-.1-.5-.4-.5Z"/>
    <path class="cls-5" d="M33.3,14.1c0,0,.2,0,.3,0,.8,0,1.5-.6,1.6-1.4h0c.2-.9-.5-1.8-1.4-1.9-.4,0-.9,0-1.2.3-.4.3-.6.6-.7,1.1,0,.4,0,.9.3,1.2.3.4.6.6,1.1.7Z"/>
    <path class="cls-5" d="M39.4,19.8c-.2,1.1.6,2.2,1.7,2.4.1,0,.2,0,.4,0,.4,0,.9-.1,1.2-.4.5-.3.8-.8.9-1.4.2-1.1-.6-2.2-1.7-2.4-1.1-.2-2.2.6-2.4,1.7Z"/>
    <path class="cls-5" d="M15,11.3c0,0,.1,0,.2,0,.3,0,.5,0,.7-.2.3-.2.4-.5.5-.8h0c.1-.7-.3-1.3-1-1.4-.7-.1-1.3.3-1.4,1-.1.7.3,1.3,1,1.4Z"/>
    <path class="cls-5" d="M15.1,21.8c.1-.7,0-1.4-.4-2-.4-.6-1-1-1.7-1.1-.7-.1-1.4,0-2,.4-.6.4-1,1-1.1,1.7-.2,1.4.7,2.8,2.2,3.1.1,0,.3,0,.4,0,1.3,0,2.4-.9,2.6-2.2Z"/>
    <path class="cls-5" d="M7.5,30.1c-.6-.1-1.3.3-1.4,1-.1.6.3,1.3,1,1.4,0,0,.1,0,.2,0,.6,0,1.1-.4,1.2-1h0c.1-.6-.3-1.3-1-1.4Z"/>
    <path class="cls-5" d="M25.3,14.7c.1,0,.2,0,.3,0,.4,0,.8-.1,1.1-.4.4-.3.7-.8.8-1.3h0c0-.5,0-1-.3-1.5-.3-.4-.8-.7-1.3-.8-.5,0-1,0-1.5.3-.4.3-.7.8-.8,1.3-.2,1.1.5,2.1,1.6,2.3Z"/>
    <path class="cls-5" d="M16.3,33.9c-.5,0-1.1,0-1.5.3-.4.3-.7.8-.8,1.3,0,.5,0,1.1.3,1.5.3.4.8.7,1.3.8.1,0,.2,0,.3,0,1,0,1.8-.7,2-1.7.2-1.1-.5-2.1-1.6-2.3Z"/>
    <path class="cls-2" d="M30.3,16.8c0,0,.1,0,.2,0,.2,0,.3,0,.4-.2h.1c.2-.3.1-.6,0-.8-.2-.2-.5-.1-.6,0h-.1c-.2.3-.1.6,0,.8Z"/>
    <path class="cls-2" d="M27,20.5h-.1c-.2.3-.1.6,0,.8,0,0,.1,0,.2,0,.2,0,.3,0,.4-.2h.1c.2-.3.1-.6,0-.8-.2-.2-.5-.1-.6,0Z"/>
    <path class="cls-2" d="M29.2,18.3c0,0,.1,0,.2,0,.2,0,.3,0,.4-.2h.1c.2-.3.1-.6,0-.8-.2-.2-.5-.1-.6,0h-.1c-.2.3-.1.6,0,.8Z"/>
    <path class="cls-2" d="M28.1,19.8c0,0,.1,0,.2,0,.2,0,.3,0,.4-.2h.1c.2-.3.1-.6,0-.8-.2-.2-.5-.1-.6,0h-.1c-.2.3-.1.6,0,.8Z"/>
    <path class="cls-2" d="M31.4,15.4c0,0,.1,0,.2,0,.2,0,.3,0,.4-.2h.1c.2-.3.1-.6,0-.8-.2-.2-.5-.1-.6,0h-.1c-.2.3-.1.6,0,.8Z"/>
    <path class="cls-2" d="M24,19.4v.2c0,.3,0,.5.4.5.3,0,.5-.1.5-.4v-.2c0-.3,0-.5-.4-.5-.3,0-.5.1-.5.4Z"/>
    <path class="cls-2" d="M25.2,18v-.2c0-.3,0-.5-.4-.5-.3,0-.5.1-.5.4v.2c0,.3,0,.5.4.5.3,0,.5-.1.5-.4Z"/>
    <path class="cls-2" d="M25.5,16.2v-.2c0-.3,0-.5-.4-.5-.3,0-.5.1-.5.4v.2c0,.3,0,.5.4.5.3,0,.5-.1.5-.4Z"/>
    <path class="cls-2" d="M16.2,11.9c-.2.1-.3.4-.2.6h0c0,.3.2.4.3.4,0,0,.2,0,.3,0,.2-.1.3-.4.2-.6h0c-.1-.4-.4-.5-.6-.3Z"/>
    <path class="cls-2" d="M19.8,20.4h0c0,.3.2.4.3.4,0,0,.2,0,.3,0,.2-.1.3-.4.2-.6h0c-.1-.4-.4-.5-.6-.3-.2.1-.3.4-.2.6Z"/>
    <path class="cls-2" d="M16.7,14.1h0c0,.3.2.4.3.4,0,0,.2,0,.3,0,.2-.1.3-.4.2-.6h0c-.1-.4-.4-.5-.6-.3-.2.1-.3.4-.2.6Z"/>
    <path class="cls-2" d="M18.3,17.2h0c0,.3.2.4.3.4,0,0,.2,0,.3,0,.2-.1.3-.4.2-.6h0c-.1-.4-.4-.5-.6-.3-.2.1-.3.4-.2.6Z"/>
    <path class="cls-2" d="M19.1,18.8h0c0,.3.2.4.3.4,0,0,.2,0,.3,0,.2-.1.3-.4.2-.6h0c-.1-.4-.4-.5-.6-.3-.2.1-.3.4-.2.6Z"/>
    <path class="cls-2" d="M17.5,15.7h0c0,.3.2.4.3.4,0,0,.2,0,.3,0,.2-.1.3-.4.2-.6h0c-.1-.4-.4-.5-.6-.3-.2.1-.3.4-.2.6Z"/>
    <path class="cls-2" d="M17.9,23.8c.1-.2,0-.5-.2-.6h-.1c-.2-.2-.5,0-.6.2-.1.2,0,.5.2.6h.1c0,0,0,0,.1,0,.2,0,.4,0,.5-.3Z"/>
    <path class="cls-2" d="M15.8,23.4s0,0,.1,0c.2,0,.4,0,.5-.3.1-.2,0-.5-.2-.6h-.1c-.2-.2-.5,0-.6.2-.1.2,0,.5.2.6h.1Z"/>
    <path class="cls-2" d="M9.8,30h-.2c-.2.1-.4.4-.3.6,0,.2.2.3.4.3,0,0,.1,0,.2,0h.2c.2-.1.4-.4.3-.6,0-.2-.3-.4-.6-.3Z"/>
    <path class="cls-2" d="M13.3,28.9h-.2c-.2.1-.4.4-.3.6,0,.2.2.3.4.3,0,0,.1,0,.2,0h.2c.2-.1.4-.4.3-.6,0-.2-.3-.4-.6-.3Z"/>
    <path class="cls-2" d="M11.5,29.5h-.2c-.2.1-.4.4-.3.6,0,.2.2.3.4.3,0,0,.1,0,.2,0h.2c.2-.1.4-.4.3-.6,0-.2-.3-.4-.6-.3Z"/>
    <path class="cls-2" d="M16.7,28.8c0,0,.1,0,.2,0h.2c.2-.1.4-.4.3-.6,0-.2-.3-.4-.6-.3h-.2c-.2.1-.4.4-.3.6,0,.2.2.3.4.3Z"/>
    <path class="cls-2" d="M15,28.4h-.2c-.2.1-.4.4-.3.6,0,.2.2.3.4.3,0,0,.1,0,.2,0h.2c.2-.1.4-.4.3-.6,0-.2-.3-.4-.6-.3Z"/>
    <path class="cls-2" d="M18.4,32.7c-.2-.2-.5-.1-.7,0h-.1c-.2.3-.1.6,0,.8,0,0,.1,0,.2,0,.2,0,.3,0,.4-.2h.1c.2-.3.1-.6,0-.8Z"/>
    <path class="cls-2" d="M19.5,31.2c-.2-.2-.5-.1-.7,0h-.1c-.2.3-.1.6,0,.8,0,0,.1,0,.2,0,.2,0,.3,0,.4-.2h.1c.2-.3.1-.6,0-.8Z"/>
    <path class="cls-2" d="M29.7,23.7h-.2c-.2.1-.4.4-.3.6,0,.2.2.3.4.3,0,0,.1,0,.2,0h.2c.2-.1.4-.4.3-.6,0-.2-.3-.4-.6-.3Z"/>
    <path class="cls-2" d="M30.9,23.8c0,.2.2.3.4.3,0,0,.1,0,.2,0h.2c.2-.1.4-.4.3-.6,0-.2-.3-.4-.6-.3h-.2c-.2.1-.4.4-.3.6Z"/>
    <path class="cls-2" d="M33.1,22.6h-.2c-.2.1-.4.4-.3.6,0,.2.2.3.4.3,0,0,.1,0,.2,0h.2c.2-.1.4-.4.3-.6,0-.2-.3-.4-.6-.3Z"/>
    <path class="cls-2" d="M34.3,22.7c0,.2.2.3.4.3,0,0,.1,0,.2,0h.2c.2-.1.4-.4.3-.6,0-.2-.3-.4-.6-.3h-.2c-.2.1-.4.4-.3.6Z"/>
    <path class="cls-2" d="M36.5,21.5h-.2c-.2.1-.4.4-.3.6,0,.2.2.3.4.3,0,0,.1,0,.2,0h.2c.2-.1.4-.4.3-.6,0-.2-.3-.4-.6-.3Z"/>
    <path class="cls-2" d="M37.8,21.6c0,.2.2.3.4.3,0,0,.1,0,.2,0h.2c.2-.1.4-.4.3-.6,0-.2-.3-.4-.6-.3h-.2c-.2.1-.4.4-.3.6Z"/>
  </g>
</svg>