<svg xmlns="http://www.w3.org/2000/svg" viewBox="0 0 50 50"><path fill="#dc5e82" d="M47 26.3l-.5-4L29.3 4.7l-4.4-1.8c-4.1 0-17.8 12.9-17.8 15.5l-4.3 4-.2 5.9 14.2 14.5L41.6 34c.6-.3 6.2-6 5.4-7.6z"/><path fill="none" stroke="#444" stroke-linecap="round" stroke-linejoin="round" stroke-width="2.5" d="M28.9 45.7c-2.4 2.4-6.3 2.4-8.7 0L4 29.5c-2.4-2.4-2.4-6.3 0-8.7L20.2 4.5c2.4-2.4 6.3-2.4 8.7 0l16.2 16.2c2.4 2.4 2.4 6.3 0 8.7l-7.4 7.4"/><g stroke="#444" stroke-miterlimit="10"><circle cx="25.1" cy="23.1" r="2.1" fill="none"/><circle cx="33.9" cy="23.1" r="2.1" fill="none"/><circle cx="30.1" cy="12.8" r="2.1" fill="none"/><circle cx="19" cy="33" r="2.1" fill="none"/><path fill="#444444" d="M19 35.1v10.3"/><path fill="none" d="M26.8 46.1v-8.4c0-1.5 1.2-2.6 2.6-2.6h1.9c1.5 0 2.6-1.2 2.6-2.6v-7.3m-10.8-1.9H14c-1.5 0-2.6 1.2-2.6 2.6v10.8M6.5 18.2h9.4c1.5 0 2.6-1.2 2.6-2.6h0c0-1.5 1.2-2.6 2.6-2.6h6.8M15.8 8.9h7.7c1.5 0 2.6-1.2 2.6-2.6V2.5m10.2 9.3v5c0 1.5 1.2 2.6 2.6 2.6h5.4"/><path fill="none" stroke-width=".5" d="M39.7 35.6v-7.4c0-1.5 1.2-2.6 2.6-2.6h5"/></g><path fill="none" stroke="#444" stroke-miterlimit="10" stroke-width=".5" d="M45.4 29.1H15.5c-1 0-1.8-.8-1.8-1.8V10.6M6.9 31.7L31.3 7.3"/></svg>
