<svg xmlns="http://www.w3.org/2000/svg" id="Camada_3" x="0" y="0" version="1.1" viewBox="0 0 50 50" xml:space="preserve"><style>.st2{fill:#444}.st3{fill:none;stroke:#444;stroke-width:1.0551;stroke-linecap:round;stroke-linejoin:round;stroke-miterlimit:10}</style><path fill="#00618a" d="M1102.4 535.3c-5.2-4.4-9-9.6-13.5-14-9.1-8.9-18.8-16.8-29.7-23.2-19.3-11.3-36.6-24.9-48.6-44.1-4.1-6.6-6.8-14.1-9.5-21.4-.9-2.3 1.5-4.6 3.7-5.7 10.8-5.3 22-9.3 33.8-12.1 9.5-2.2 19-1.9 28.6-2.1 3.7-.1 3-1.9 1.8-3.7-2.5-3.8-5.6-7.1-9.3-10-13.1-10.2-24.5-22.5-37.7-32.6-8.5-6.6-18.6-9.8-28.1-14.4-7.9-3.7-17-5.6-22.6-12.8-5.1-6.5-8.4-14.3-11.3-22.1-7.5-20.1-14-40.5-21.8-60.5-6.5-16.8-10.8-34.3-16.9-51.2-4.8-13.3-11.4-25.9-18.1-38.4-10.1-18.9-21.6-36.8-35.2-53.2-9.6-11.6-20-22.5-31.5-32.5-12.1-10.3-24.5-19.7-38.4-27-7.9-4.1-16.1-8.1-25.6-7.3-6.6.5-12.9-2-19.6-2.1-4.4 0-7-4.3-9.5-7.3-6.3-7.6-14.3-13-22.5-18-6.8-4.1-13.6-8.3-21.3-10.8-4.4-1.4-8.3-1.3-11.4 2-3.2 3.4-4 7.6-2.8 12.3 2.7 11.1 8.4 20.7 14.5 30.1 14.8 22.9 23.5 48.1 29.1 74.6 4 18.8 8.9 37.5 19.9 53.7 3 4.5 6.7 8.5 8.8 13.5 2.1 5 .8 10-.3 14.9-2.7 11.7-5.9 23.2-8.5 34.9-3 13.4-2.8 27.2-3.1 40.9-.2 8.8 1 17.4 1.9 26 1.5 15.7 5.7 30.4 12.2 44.6 1.5 3.3 4.3 5.3 7 7.5 1.7 1.4 3.7 1 3.8-1.4.1-2.7 1.5-5 1.2-7.7-.7-9.3 2.1-18.2 2.9-27.3.5-5.5 1-10.8 2.3-16.1 2.1-8.7 6.6-16.3 11.6-23.6.6-.8 1.3-1.5 1.7-2.4.6-1.6 1-3.8 2.8-3.6 2.2.2 2.1 2.9 2.4 4.4 2.5 12.5 7.2 24.4 11.4 36.4 6.1 17.4 13.9 34 21.7 50.7 9 19.3 19.4 37.7 33.7 53.7.7.8 1.9 1.4 1.7 2.9-1.9 1.2-2.5-.8-3.4-1.6-6.3-6-10.6-13.6-16.8-19.7-7.2-7.2-13.1-15.6-19.7-23.3-10-11.6-17.1-24.5-22.4-38.6-2.4-6.3-5-12.4-8.2-18.6.8 5.1-4.6 9-2.1 14.7 1 2.4-.3 6.1-1.2 9-.6 2-.3 3.9-.5 5.9-.8 8.5-1.8 17-8.4 23.2-7.7 7.2-13.9 6.5-20.8 0-12.1-11.3-17.7-26.3-21.6-41.8-2.8-11.5-4.2-23.4-5.4-35.2-1.1-10.8-.9-21.5-.6-32.2.2-8.6 2-17.1 3.4-25.6 1.1-6.6 2.5-13.2 3.4-19.8.7-5.4 1.4-11.1 3.5-16 2.6-6.1.5-10.6-3.2-14.7-5.6-6.1-8.1-13.8-11.1-21.1-5.5-13.5-9.7-27.5-13.3-41.6-2.1-8.4-4.8-16.6-6.4-25.1-2.3-12.6-9-23.4-14.9-34.5-5.9-11.2-13.5-21.4-18.5-33.2-6.2-14.5-6.2-35.7 5.5-46 6.1-5.4 13-7 20.5-5.3 21.4 4.8 38.3 17 53.2 32.6 6.1 6.3 14 5.2 21.7 4.4.7-.1.9-1.2 2-.7 10.8 5.1 23 7 33.3 13.2 14.4 8.6 27 19.8 39.3 31.1 12.4 11.4 23.7 23.7 34.1 36.9 7.4 9.3 14.2 19.1 20.7 29.2 7 10.9 13.4 22.2 19.2 33.9 6.9 14 13.1 28.4 17.4 43.5 5 17.7 11.6 34.9 18 52.1 6.1 16.5 12.6 32.9 18.6 49.4 2.6 7.2 7 11.5 13.9 15.2 17.7 9.4 35.1 19.6 49.3 34.2 10 10.2 20.1 20.3 30.1 30.4 5.8 5.9 9.5 13.2 13.4 20.3 4.4 8.1 4 7.8-4.9 10.8-7.9 2.7-15.9 4-24.2 5.3-10.1 1.6-19.8 5.7-29.7 8.7-1.7.5-1.6 1.5-1 2.9 2.1 5.1 5.3 9.2 9.4 12.9 13 11.6 27.7 21.3 38.9 34.9 6.5 7.9 11.2 17 17.5 25 3.5 4.4 6.9 8.7 9 14 1.2 1.6 2.2 3.4 1.3 6.4z"/><path fill="#00dffc" d="M3.9 47.2L48 31.1V8.3c0-3.1-2.5-5.7-5.7-5.7H7.7C4.6 2.6 2 5.1 2 8.3v34.6c.1 1.7.8 3.2 1.9 4.3z"/><path d="M25.1 49.2H7.7c-3.8 0-6.9-3.1-6.9-6.9V7.6C.8 3.8 3.9.7 7.7.7h34.6c3.8 0 6.9 3.1 6.9 6.9v22.8c0 .7-.6 1.2-1.2 1.2s-1.2-.6-1.2-1.2V7.6c0-2.4-2-4.4-4.4-4.4H7.7c-2.4 0-4.4 2-4.4 4.4v34.6c0 2.4 2 4.4 4.4 4.4H25c.7 0 1.2.6 1.2 1.2s-.5 1.4-1.1 1.4z" class="st2"/><path d="M45.8 39.9c-.3-.3-.6-.6-.8-.9-.6-.6-1.2-1-1.9-1.4-1.2-.7-2.3-1.6-3-2.8-.3-.4-.4-.9-.6-1.3-.1-.1.1-.3.2-.4.7-.3 1.4-.6 2.1-.8.6-.1 1.2-.1 1.8-.1.2 0 .2-.1.1-.2l-.6-.6c-.8-.6-1.5-1.4-2.4-2-.5-.4-1.2-.6-1.8-.9-.5-.2-1.1-.4-1.4-.8-.3-.4-.5-.9-.7-1.4-.5-1.3-.9-2.5-1.4-3.8-.4-1-.7-2.1-1.1-3.2-.3-.8-.7-1.6-1.1-2.4-.6-1.2-1.4-2.3-2.2-3.3-.6-.7-1.2-1.4-2-2-.7-.6-1.5-1.2-2.4-1.7-.5-.3-1-.5-1.6-.5-.4 0-.8-.1-1.2-.1-.3 0-.4-.3-.6-.5-.4-.5-.9-.8-1.4-1.1-.4-.3-.8-.5-1.3-.7-.3-.1-.5-.1-.7.1-.2.2-.2.5-.2.8.2.7.5 1.3.9 1.9.9 1.4 1.5 3 1.8 4.7.2 1.2.6 2.3 1.2 3.4.2.3.4.5.6.8.1.3 0 .6 0 .9-.2.7-.4 1.5-.5 2.2-.2.8-.2 1.7-.2 2.6 0 .5.1 1.1.1 1.6.1 1 .4 1.9.8 2.8.1.2.3.3.4.5.1.1.2.1.2-.1s.1-.3.1-.5c0-.6.1-1.1.2-1.7 0-.3.1-.7.1-1 .1-.5.4-1 .7-1.5 0-.1.1-.1.1-.2s.1-.2.2-.2.1.2.2.3c.2.8.4 1.5.7 2.3.4 1.1.9 2.1 1.4 3.2.6 1.2 1.2 2.4 2.1 3.4 0 0 .1.1.1.2-.1.1-.2 0-.2-.1-.4-.4-.7-.8-1-1.2-.5-.4-.8-1-1.2-1.5-.6-.7-1.1-1.5-1.4-2.4-.1-.4-.3-.8-.5-1.2.1.3-.3.6-.1.9.1.1 0 .4-.1.6v.4c-.1.5-.1 1.1-.5 1.5-.5.5-.9.4-1.3 0-.8-.7-1.1-1.6-1.3-2.6-.2-.7-.3-1.5-.3-2.2-.1-.7-.1-1.3 0-2 0-.5.1-1.1.2-1.6.1-.4.2-.8.2-1.2 0-.3.1-.7.2-1 .2-.4 0-.7-.2-.9-.4-.4-.5-.9-.7-1.3-.3-.8-.6-1.7-.8-2.6-.1-.5-.3-1-.4-1.6-.1-.8-.6-1.5-.9-2.2-.4-.7-.8-1.3-1.2-2.1-.6-1.2-.6-2.5.2-3.2.4-.3.8-.4 1.3-.3 1.3.3 2.4 1.1 3.3 2 .4.4.9.4 1.3.3 0 0 .1-.1.1 0 .7.3 1.4.4 2.1.8.9.5 1.7 1.2 2.5 1.9s1.5 1.5 2.1 2.3c.5.6.9 1.2 1.3 1.8l1.2 2.1c.4.9.8 1.8 1.1 2.7.3 1.1.7 2.2 1.1 3.3.4 1 .8 2.1 1.2 3.1.2.4.4.7.9.9 1.1.6 2.2 1.2 3.1 2.1l1.9 1.9c.4.4.6.8.8 1.3.3.5.2.5-.3.7-.5.2-1 .2-1.5.3-.6.1-1.2.4-1.9.5-.1.2-.1.2-.1.3.1.3.3.6.6.8.8.7 1.7 1.3 2.4 2.2.4.5.7 1.1 1.1 1.6.2.3.4.5.6.9.1.1.1.2.1.4z" class="st2"/><circle cx="8.1" cy="20.3" r="1.9" class="st2"/><path d="M12.2 20.4h11.2" class="st3"/><circle cx="8.1" cy="27.3" r="1.9" class="st2"/><path d="M12.2 27.5h11.2" class="st3"/><circle cx="8.1" cy="34.5" r="1.9" class="st2"/><path d="M12.2 34.7h18.6" class="st3"/></svg>