<svg xmlns="http://www.w3.org/2000/svg" id="Camada_1" x="0" y="0" version="1.0" viewBox="0 0 50 50" xml:space="preserve"><style>.st1{stroke-linecap:round}.st1,.st2{fill:none;stroke:#444;stroke-miterlimit:10}</style><path fill="#e589ef" d="M35.9 19.9s1.8-12.4-4.5-15S10-1.1 4.3 7.5c0 0-1.9 2.7-1.7 9.7s0 13 0 13 .6 5.7 6.9 6.9 9.6 1.5 9.6 1.5l4.7 1.5.3 3.7L46.8 35s1.1-9.9-1.8-11.1c-2.7-1.3-8.6-1.4-9.1-4z"/><path d="M7.3 28.6V11m23.4 8v5M19 16.9c6.5 0 11.7-2.6 11.7-5.9S25.5 5.2 19 5.2C12.5 5.2 7.3 7.8 7.3 11s5.2 5.9 11.7 5.9zm11.7 2.9c0 3.2-5.2 5.9-11.7 5.9-6.5 0-11.7-2.6-11.7-5.9m17.6 13.9c-1.7.5-3.7.8-5.9.8-6.5 0-11.7-2.6-11.7-5.9" class="st1"/><path d="M27.9 40.7V29.4" class="st2"/><path d="M42.9 35v5.7" class="st1"/><path d="M35.4 33.1c4.2 0 7.5-1.7 7.5-3.8s-3.4-3.8-7.5-3.8c-4.2 0-7.5 1.7-7.5 3.8s3.3 3.8 7.5 3.8z" class="st2"/><path d="M42.9 35c0 2.1-3.4 3.8-7.5 3.8-4.2 0-7.5-1.7-7.5-3.8" class="st1"/><path d="M42.9 40.7c0 2.1-3.4 3.8-7.5 3.8-4.2 0-7.5-1.7-7.5-3.8" class="st2"/><path fill="none" stroke="#444" stroke-linecap="round" stroke-miterlimit="10" stroke-width="2.5" d="M36.5 48.4c-9.6 0-12.5-3.3-12.7-4.7-.1-.7-.2-2.1-.2-3.2 0-1-.8-1.7-1.8-1.7-5.1 0-18.6-.5-19.1-9.7V12s-1-10.3 17-10.3c16.8.1 16 10.7 16 10.7v7.2c0 1.2.9 2.1 2 2.3 3 .3 9.5 1.6 9.5 6.3v11.6"/></svg>