<svg xmlns="http://www.w3.org/2000/svg" id="Camada_1" version="1.1" viewBox="0 0 50 50"><defs><style>.st1{stroke-width:2.5px}.st1,.st2,.st3{fill:none}.st1,.st3{stroke:#444;stroke-linecap:round;stroke-linejoin:round}.st2{stroke:#444;stroke-miterlimit:10}.st3{stroke-width:.5px}</style></defs><path fill="#d1bd00" d="M29.9 21.1l7.8 2.5-6.7 4.7.1 8.2-6.5-4.9-7.8 2.6 2.6-7.7-4.9-6.6 8.2.1 4.8-6.7 2.4 7.8z"/><path fill="#f9f941" d="M48.5 20.1c-.2-.8-2.7-7.5-3.2-8.1l-3-3.5h-.2l-7.6-5.7-7.8-.7c-3.2 0-14.5.3-21.4 10.2L1.4 22.9h-.2l4 13.5c.1.4 4.5 5.7 4.9 5.9l5.6 3 32.2-11.7c.7-.4 1.7-8.6.8-13.4z"/><path d="M32.8 47.4c-7 2.3-15 1.2-21.3-3.6C1.1 36.1-1 21.4 6.8 11" class="st1"/><path d="M6.7 11.2c2-3 4.7-4.7 4.7-4.7l.7-.5C20.2.2 31.3.1 39.7 6.4c10.4 7.8 12.4 22.5 4.7 32.8" class="st1"/><path d="M28.7 32.6c0 .1.3.2.4 0l1.6-1.1c.1 0 .2-.3 0-.4l-.3-.5c.3-.3.5-.7.7-1.1h.6c0 .1.2 0 .2 0s.1-.1.1-.2l.3-1.9c0-.2 0-.3-.3-.4h-.6c0-.5-.1-.9-.3-1.3l.5-.3c.1 0 .2-.3 0-.4l-1.1-1.6c0-.1-.3-.2-.4 0l-.5.3c-.3-.3-.7-.5-1.1-.7v-.6c.1 0 0-.2 0-.2s-.1-.1-.2-.1l-1.9-.3c-.2 0-.3 0-.4.3v.6c-.5 0-.9.1-1.3.3l-.3-.5c0-.1-.3-.2-.4 0l-1.6 1.1c-.1 0-.2.3 0 .4l.3.5c-.3.3-.5.7-.7 1.1h-.6c-.2-.1-.3 0-.4.2l-.3 1.9v.2s.1.1.2.1h.6c0 .5.1.9.3 1.3l-.5.3c-.1 0-.2.3 0 .4l1.1 1.6s.1.1.2.1h.2l.5-.3c.3.3.7.5 1.1.7v.6c-.1.2 0 .3.1.4l1.9.3h.2s.1-.1.1-.2v-.6c.5 0 .9-.1 1.3-.3l.3.5z" class="st2"/><path d="M29.5 25.5c-1.1-1.6-3.3-1.9-4.8-.8s-1.9 3.3-.8 4.8 3.3 1.9 4.8.8 1.9-3.3.8-4.8zM24.7 48.3c.6-.7.4.7.8-.2l1.3.2c.2 0 .4 0 .5-.1s.3-.3.3-.4l.7-4.2c0-.4-.2-.7-.6-.8l-1.3-.2c0-.9-.3-1.9-.6-2.7l1.1-.8c.3-.2.4-.6.2-1l-2.5-3.5c-.2-.3-.6-.4-1-.2l-1.1.8c-.7-.6-1.5-1.1-2.4-1.5l.2-1.3c0-.2 0-.4-.1-.5s-.3-.3-.4-.3l-4.2-.7c-.4 0-.7.2-.8.6l-.2 1.3c-.9 0-1.9.3-2.7.6l-.8-1.1c-.2-.3-.6-.4-1-.2l-3.5 2.5c-.3.2-.4.6-.2 1l.8 1.1c-.6.7-1.1 1.5-1.5 2.4" class="st2"/><path d="M22.9 47.7c1.7-3.9 0-8.4-3.8-10.2s-8.4 0-10.2 3.8M41.7 7.2l-1.4.6c-.4 0-.6.4-.5.8l.3 1.3c-.8.4-1.6 1-2.3 1.6l-1.1-.7c-.3-.2-.7-.1-1 .2l-2.3 3.6c-.1.2-.1.3 0 .5s.1.3.3.4l1.1.7c-.3.9-.4 1.8-.5 2.8l-1.3.3c-.4 0-.6.4-.5.8l1 4.2c0 .2.1.3.3.4.1 0 .3.1.5 0l1.3-.3c.4.8 1 1.6 1.6 2.3l-.7 1.1c-.2.3-.1.7.2 1l3.6 2.3c.1 0 .3.1.5 0 .2 0 .3-.1.4-.3l.7-1.1c.9.3 1.8.4 2.8.5l.3 1.3c0 .4.4.6.8.5l1.5-.3" class="st2"/><path d="M44.2 11.5c-4.1.9-7.4 5.6-6.5 9.7s5.3 7.6 10.1 5.2" class="st2"/><g><path d="M19.8 23.4L17 26c-1.3 1.2-3.2 1.6-4.9 1.2-.5-.1-1-.3-1.4-.6-.4-.2-.7-.5-1-.9l-2.6-2.8c-.2-.2-.2-.6 0-.8l9.3-8.6" class="st3"/><path d="M18.9 16.5c-1.5 1.4-1.7 2.6-1.6 3.7l4.7-4.4c.8-.8 2.1-.7 2.8.1s.7 2.1-.1 2.8l-5.2 4.8m-.4-7.1l4.2-3.9 5.1-1c.5-.1 1-.4 1.4-.7s.3-.3.5-.5c.4-.7.6-1.4.4-2.2v-.5c-.1-.2-.2-.3-.3-.4-.1 0-.3-.1-.5 0l-8.7 1.9c-.1 0-.2 0-.3.2l-4.6 4.3" class="st3"/><path d="M18.9 20.3c-.6-.3-1.3-.2-1.9.3s-.3.4-.4.6c-.2.6-.1 1.3.3 1.8s.4.3.6.4c.6.3 1.3.2 1.9-.3s.7-1.2.5-1.8c0-.2-.2-.4-.4-.6s-.4-.3-.6-.4zm-.6-6.8c-.5-.2-1.2-.2-1.7.2-.4.4-.6 1.1-.4 1.6 0 .2.2.4.3.6s.4.4.7.4c.5.2 1.1 0 1.5-.3.4-.4.6-1.1.4-1.6 0-.2-.2-.4-.3-.6s-.3-.3-.6-.4zM1 24.3l3.5-1.2h.4c.1 0 .2.2.3.4v.4c.1 0 .4 1.1.4 1.1l1 3.4.3 1.2.2.6c0 .2 0 .4-.2.6s-.1.1-.2.1l-3 .9m8.4-4.5l-5 2.5M5.4 24l1.8-.8m16.3-10.6L21 9.1" class="st3"/></g></svg>