<?xml version="1.0" encoding="UTF-8"?>
<svg id="Layer_1" xmlns="http://www.w3.org/2000/svg" version="1.1" viewBox="0 0 50 50">
  <!-- Generator: Adobe Illustrator 29.2.1, SVG Export Plug-In . SVG Version: 2.1.0 Build 116)  -->
  <defs>
    <style>
      .st0, .st1, .st2 {
        fill: none;
        stroke: #444;
        stroke-linecap: round;
        stroke-linejoin: round;
      }

      .st1 {
        stroke-width: 2.5px;
      }

      .st3 {
        fill: #444;
      }

      .st4 {
        fill: #46b8b0;
      }

      .st2 {
        stroke-width: .5px;
      }
    </style>
  </defs>
  <path class="st4" d="M43,9.5l-6.7-2.3-7.7-4.4-5.5-.4c-3.2,0-13.5,5.1-18.1,7.5l.3,9.8.6,13.9,6.7,9,31-11c.7-.4.2-20-.7-22Z"/>
  <g>
    <ellipse class="st2" cx="25" cy="12.3" rx="11.4" ry="3.8"/>
    <path class="st2" d="M36.3,18.3c0,2.1-5.1,3.8-11.4,3.8s-3.9-.2-5.5-.5"/>
    <path class="st2" d="M36.3,24.1c0,2.1-5.1,3.8-11.4,3.8"/>
    <path class="st2" d="M36.3,29.4c0,2.1-5.1,3.8-11.4,3.8"/>
    <path class="st2" d="M21.9,38.8c7.9.7,14.4-1.7,14.4-3.9V12.3"/>
    <line class="st2" x1="13.6" y1="12.3" x2="13.6" y2="25.4"/>
  </g>
  <g>
    <rect class="st0" x="11.8" y="28.5" width="10.3" height="10.8" rx="1.8" ry="1.8"/>
    <path class="st0" d="M20.8,28.3c0-2.5-1.7-4.4-3.8-4.4s-3.8,2-3.8,4.4"/>
  </g>
  <circle class="st3" cx="16.9" cy="33.2" r="1.1"/>
  <rect class="st3" x="16.5" y="33.3" width=".9" height="2.2"/>
  <path class="st1" d="M38.9,38.6c.5-.5.9-1.1,1.4-1.7.9-1.2,1.8-2.5,2.7-3.9V9.5L23.8,1.8,5.4,9.3v23.7c4.5,11.4,18.8,15.6,18.8,15.6"/>
</svg>