<?xml version="1.0" encoding="utf-8"?>
<!-- Generator: Adobe Illustrator 24.0.0, SVG Export Plug-In . SVG Version: 6.00 Build 0)  -->
<svg version="1.1" id="Layer_1" xmlns="http://www.w3.org/2000/svg" xmlns:xlink="http://www.w3.org/1999/xlink" x="0px" y="0px"
	 viewBox="0 0 50 50" style="enable-background:new 0 0 50 50;" xml:space="preserve">
<style type="text/css">
	.st0{fill:#ADE35D;}
	.st1{fill:#C0FF68;}
	.st2{fill:#444444;}
</style>
<g>
	<g>
		<g>
			<polygon class="st0" points="5.5,41.6 17.8,45.9 44.5,36.1 44.5,24.3 34.8,20.9 34.8,5 25,1.7 15.2,5 15.2,10.3 5.5,13.6 			"/>
		</g>
		<g>
			<polygon class="st1" points="5.5,16.1 34.8,5.5 34.8,5 25,1.7 15.2,5 15.2,10.3 5.5,13.6 			"/>
		</g>
	</g>
	<g>
		<g>
			<g>
				<g>
					<path class="st2" d="M25,8.9L25,8.9l-9.8-3.4c-0.1,0-0.1-0.1-0.1-0.2s0.1-0.1,0.2-0.1L25,8.7l9.7-3.4c0.1,0,0.1,0,0.2,0.1
						s0,0.1-0.1,0.2L25,8.9z"/>
				</g>
				<g>
					<path class="st2" d="M25,30.2c-0.1,0-0.1-0.1-0.1-0.1V8.8c0-0.1,0.1-0.1,0.1-0.1s0.1,0.1,0.1,0.1v21.3
						C25.1,30.2,25.1,30.2,25,30.2z"/>
				</g>
			</g>
			<g>
				<g>
					<path class="st2" d="M25,36.9L25,36.9l-9.8-3.4c-0.1,0-0.1-0.1-0.1-0.2s0.1-0.1,0.2-0.1l9.7,3.4l9.7-3.4c0.1,0,0.1,0,0.2,0.1
						s0,0.1-0.1,0.2L25,36.9z"/>
				</g>
				<g>
					<path class="st2" d="M34.8,45.1c-0.1,0-0.1-0.1-0.1-0.1V33.5L25,30.2l-9.6,3.3V45c0,0.1-0.1,0.1-0.1,0.1S15.1,45,15.1,45V33.4
						l0.1,0l9.8-3.4l0,0l9.9,3.4V45C34.9,45,34.8,45.1,34.8,45.1z"/>
				</g>
				<g>
					<path class="st2" d="M25,48.4c-0.1,0-0.1-0.1-0.1-0.1V36.8c0-0.1,0.1-0.1,0.1-0.1s0.1,0.1,0.1,0.1v11.5
						C25.1,48.4,25.1,48.4,25,48.4z"/>
				</g>
			</g>
			<g>
				<g>
					<path class="st2" d="M34.8,28.1L34.8,28.1L25,24.7c-0.1,0-0.1-0.1-0.1-0.2c0-0.1,0.1-0.1,0.2-0.1l9.7,3.4l9.7-3.4
						c0.1,0,0.1,0,0.2,0.1c0,0.1,0,0.1-0.1,0.2L34.8,28.1z"/>
				</g>
				<g>
					<path class="st2" d="M25,24.8c-0.1,0-0.1,0-0.1-0.1c0-0.1,0-0.1,0.1-0.2l9.8-3.4c0.1,0,0.1,0,0.2,0.1c0,0.1,0,0.1-0.1,0.2
						L25,24.8C25,24.7,25,24.8,25,24.8z"/>
				</g>
				<g>
					<path class="st2" d="M34.8,45.1c-0.1,0-0.1-0.1-0.1-0.1V28c0-0.1,0.1-0.1,0.1-0.1s0.1,0.1,0.1,0.1v17
						C34.9,45,34.8,45.1,34.8,45.1z"/>
				</g>
			</g>
			<g>
				<g>
					<path class="st2" d="M15.2,17.5l-9.8-3.4c-0.1,0-0.1-0.1-0.1-0.2c0-0.1,0.1-0.1,0.2-0.1l9.7,3.3l9.7-3.7c0.1,0,0.1,0,0.2,0.1
						c0,0.1,0,0.1-0.1,0.2L15.2,17.5z"/>
				</g>
				<g>
					<path class="st2" d="M25,14.1C25,14.1,25,14.1,25,14.1l-9.8-3.4c-0.1,0-0.1-0.1-0.1-0.2s0.1-0.1,0.2-0.1l9.8,3.4
						c0.1,0,0.1,0.1,0.1,0.2C25.1,14.1,25,14.1,25,14.1z"/>
				</g>
				<g>
					<path class="st2" d="M15.2,45.1c-0.1,0-0.1-0.1-0.1-0.1V17.3c0-0.1,0.1-0.1,0.1-0.1s0.1,0.1,0.1,0.1V45
						C15.4,45,15.3,45.1,15.2,45.1z"/>
				</g>
			</g>
		</g>
		<g>
			<path class="st2" d="M25,49.6L4.2,42.5l0-29.8L14,9.4l0-5.2l11-3.8l11,3.8l0,15.9l9.8,3.4v12.7c0,0.7-0.6,1.2-1.2,1.2
				s-1.2-0.6-1.2-1.2V25.2l-9.8-3.4l0-15.9L25,3l-8.5,2.9l0,5.2l-9.8,3.4l0,26.2L25,47l8.5-2.9c0.6-0.2,1.4,0.1,1.6,0.8
				c0.2,0.7-0.1,1.4-0.8,1.6L25,49.6z"/>
		</g>
	</g>
</g>
</svg>
