<?xml version="1.0" encoding="UTF-8"?>
<svg width="42px" height="48px" viewBox="0 0 42 48" version="1.1" xmlns="http://www.w3.org/2000/svg" xmlns:xlink="http://www.w3.org/1999/xlink">
    <!-- Generator: Sketch 52.5 (67469) - http://www.bohemiancoding.com/sketch -->
    <title>administracao-do-sql-server-2017</title>
    <desc>Created with Sketch.</desc>
    <g id="Page-1" stroke="none" stroke-width="1" fill="none" fill-rule="evenodd">
        <g id="administracao-do-sql-server-2017">
            <polygon id="Path" fill="#E589EF" points="2.17 39.995 14.09 44.1 39.829 34.732 39.829 23.337 30.412 20.096 30.414 4.762 20.995 1.523 11.582 4.762 11.585 9.8 2.167 13.037"></polygon>
            <polygon id="Path" fill="#F799FF" points="2.167 15.445 30.414 5.164 30.414 4.762 20.995 1.523 11.582 4.762 11.585 9.8 2.167 13.037"></polygon>
            <path d="M31.667,19.205 L31.668,3.87 L21,0.201 L10.336,3.871 L10.339,8.908 L0.921,12.145 L0.924,40.887 L21,47.799 L29.978,44.709 C30.631,44.484 30.978,43.773 30.753,43.121 C30.7032671,42.9878943 30.6308645,42.8644039 30.539,42.756 L30.539,26.968 L38.539,24.213 L38.583,24.228 L38.583,34.731 C38.583,35.4213559 39.1426441,35.981 39.833,35.981 C40.5233559,35.981 41.083,35.4213559 41.083,34.731 L41.083,22.445 L31.667,19.205 Z M12.84,10.43 L12.837,5.716 L20.87,8.482 L20.87,13.194 L12.84,10.43 Z M20.87,28.806 L11.707,31.961 L11.707,16.699 L20.87,13.544 L20.87,28.806 Z M11.71,32.31 L20.873,35.465 L20.873,45.111 L11.71,41.956 L11.71,32.31 Z M20.998,35.244 L11.969,32.135 L20.995,29.027 L30.028,32.135 L20.998,35.244 Z M30.289,31.961 L21.12,28.806 L21.12,23.811 L30.289,26.968 L30.289,31.961 Z M21.12,8.484 L29.168,5.713 L29.167,20.695 L21.12,23.466 L21.12,8.484 Z M28.868,5.551 L20.998,8.261 L13.131,5.552 L21,2.845 L28.868,5.551 Z M12.837,10.693 L20.612,13.369 L11.582,16.477 L3.802,13.798 L12.837,10.693 Z M3.421,13.931 L11.457,16.698 L11.457,41.869 L3.424,39.103 L3.421,13.931 Z M29.165,42.346 L21.123,45.112 L21.123,35.465 L30.287,32.31 L30.287,42.531 C29.968,42.302 29.561,42.207 29.165,42.346 Z M30.414,26.747 L21.387,23.638 L29.167,20.959 L29.167,20.987 L38.155,24.08 L30.414,26.747 Z" id="Shape" fill="#444444" fill-rule="nonzero"></path>
        </g>
    </g>
</svg>