<?xml version="1.0" encoding="utf-8"?>
<!-- Generator: Adobe Illustrator 22.1.0, SVG Export Plug-In . SVG Version: 6.00 Build 0)  -->
<svg version="1.1" id="Layer_1" xmlns="http://www.w3.org/2000/svg" xmlns:xlink="http://www.w3.org/1999/xlink" x="0px" y="0px"
	 viewBox="0 0 50 50" style="enable-background:new 0 0 50 50;" xml:space="preserve">
<style type="text/css">
	.st0{fill:#71BAC0;}
	.st1{fill:#7ED0D6;}
	.st2{fill:#444444;}
</style>
<path class="st0" d="M6.2,41l11.9,4.1l25.7-9.4V24.3l-9.4-3.2l0-15.3L25,2.5l-9.4,3.2l0,5L6.2,14L6.2,41z"/>
<path class="st1" d="M6.2,16.4L34.4,6.2V5.8L25,2.5l-9.4,3.2l0,5L6.2,14L6.2,16.4z"/>
<path class="st2" d="M35.7,20.2l0-15.3L25,1.2L14.3,4.9l0,5l-9.4,3.2l0,28.7L25,48.8l9-3.1c0.7-0.2,1-0.9,0.8-1.6
	c0-0.1-0.1-0.3-0.2-0.4V28l8-2.8l0,0v10.5c0,0.7,0.6,1.2,1.2,1.2s1.2-0.6,1.2-1.2V23.4L35.7,20.2z M16.8,11.4l0-4.7l8,2.8v4.7
	L16.8,11.4z M24.9,29.8L15.7,33V17.7l9.2-3.2V29.8z M15.7,33.3l9.2,3.2v9.6L15.7,43V33.3z M25,36.2l-9-3.1l9-3.1l9,3.1
	C34,33.1,25,36.2,25,36.2z M34.3,33l-9.2-3.2v-5l9.2,3.2C34.3,28,34.3,33,34.3,33z M25.1,9.5l8-2.8l0,15l-8,2.8
	C25.1,24.5,25.1,9.5,25.1,9.5z M32.9,6.6L25,9.3l-7.9-2.7L25,3.8L32.9,6.6z M16.8,11.7l7.8,2.7l-9,3.1l-7.8-2.7L16.8,11.7z
	 M7.4,14.9l8,2.8v25.2l-8-2.8C7.4,40.1,7.4,14.9,7.4,14.9z M33.2,43.3l-8,2.8v-9.6l9.2-3.2v10.2C34,43.3,33.6,43.2,33.2,43.3z
	 M34.4,27.7l-9-3.1l7.8-2.7v0l9,3.1C42.2,25.1,34.4,27.7,34.4,27.7z"/>
<g>
	<circle class="st1" cx="-53.3" cy="37.2" r="20"/>
	<circle class="st0" cx="-33.3" cy="37.2" r="20"/>
</g>
</svg>
