<?xml version="1.0" encoding="utf-8"?>
<!-- Generator: Adobe Illustrator 28.0.0, SVG Export Plug-In . SVG Version: 6.00 Build 0)  -->
<svg version="1.1" id="Layer_1" xmlns="http://www.w3.org/2000/svg" xmlns:xlink="http://www.w3.org/1999/xlink" x="0px" y="0px"
	 viewBox="0 0 50 50" style="enable-background:new 0 0 50 50;" xml:space="preserve">
<style type="text/css">
	.st0{fill:#C3FF68;}
	.st1{fill:none;stroke:#444444;stroke-width:2.5;stroke-linecap:round;stroke-linejoin:round;stroke-miterlimit:10;}
	.st2{fill:none;stroke:#444444;stroke-width:0.5;stroke-linecap:round;stroke-linejoin:round;stroke-miterlimit:10;}
	.st3{fill:none;stroke:#444444;stroke-linecap:round;stroke-linejoin:round;stroke-miterlimit:10;}
	.st4{fill:#444444;}
</style>
<path class="st0" d="M48,20c-0.2-0.8-2.7-7.5-3.2-8.1l-3-3.5l-0.2,0.1L34,2.7l-7.8-0.7C23,2.1,11.7,2.3,4.8,12.3L0.8,22.9l-0.2,0.1
	l4,13.4c0.1,0.4,4.5,5.7,4.9,5.9l5.6,3l32.2-11.7C47.9,33.1,49,24.8,48,20z"/>
<g>
	<g>
		<g>
			<path class="st1" d="M32.3,47.3c-7,2.3-15,1.2-21.3-3.6C0.6,36-1.4,21.3,6.3,10.9"/>
			<path class="st1" d="M6.2,11.1c2-3,4.7-4.7,4.7-4.7l0.7-0.5C19.7,0.1,30.8,0,39.2,6.3c10.4,7.8,12.4,22.5,4.7,32.8"/>
		</g>
	</g>
</g>
<g>
	<g>
		<g id="g73_00000132087793742380203640000004235224869332614565_" transform="translate(435.3838,46.1084)">
			<path id="path75_00000083072956773988542920000014248743809048565412_" class="st2" d="M-397.6-7.9c-1.3,1-2.7,1.6-4.2,1.8
				c-2.6,0.4-5.3-0.4-7.2-2.4l12.4-12.4c2,2,2.7,4.6,2.4,7.2c-0.2,1.7-1,3.3-2.2,4.7L-397.6-7.9z"/>
		</g>
		<g id="g77_00000130616784034753644350000013963888409032368813_" transform="translate(433.1523,288.1611)">
			<path id="path79_00000004526008650177335940000005589039215241121179_" class="st2" d="M-395.4-261.9c1.6,1.6,2.3,3.9,2,6
				c-0.2,1.5-0.9,3-2.1,4.2c-1.2,1.2-2.6,1.9-4.2,2.1c-2.1,0.3-4.4-0.3-6-2L-395.4-261.9z"/>
		</g>
		<g id="g81_00000114783823223593534540000000977308479864952209_" transform="translate(455.9502,125.0186)">
			<path id="path83_00000087377386223071743870000005383803899322064786_" class="st2" d="M-417.1-90.7l-6.3-2.9l2.8,6.4"/>
		</g>
		<g id="g85_00000180343334844060040910000011880855501623091368_" transform="translate(466.4395,209.145)">
			<path id="path87_00000020387230832923769750000002614135165810582688_" class="st2" d="M-427.1-179l-6.8,1.2l-1.3,7"/>
		</g>
	</g>
	<g>
		<g>
			<g>
				<ellipse class="st3" cx="22.8" cy="14.7" rx="11" ry="3.7"/>
			</g>
			<path class="st3" d="M28.3,20.8c-0.1,0-0.2,0.1-0.3,0.1"/>
			<path class="st3" d="M30.9,20.4c-0.1,0-0.2,0.1-0.3,0.1"/>
			<path class="st3" d="M28.3,28C28.2,28,28.1,28,28,28"/>
			<path class="st3" d="M30.9,27.6c-0.1,0-0.2,0.1-0.3,0.1"/>
			<g>
				<path class="st3" d="M33.8,21.5c0,2.1-4.9,3.7-11,3.7s-11-1.7-11-3.7"/>
			</g>
			<g>
				<path class="st3" d="M26.4,31.9c-1.1,0.1-2.4,0.2-3.7,0.2c-6.1,0-11-1.7-11-3.7"/>
			</g>
			<g>
				<path class="st3" d="M26.6,38.7c-1.2,0.2-2.5,0.2-3.8,0.2c-6.1,0-11-1.7-11-3.7V14.7"/>
				<line class="st3" x1="33.8" y1="14.7" x2="33.8" y2="29.5"/>
			</g>
		</g>
		<polygon class="st4" points="33.3,29 33.3,30.6 34.3,29.6 34.3,29.5 34.3,28.7 		"/>
		<path class="st4" d="M26.6,38.3h0.5l0.4,0.4c0,0,0.6,0.4-1.2,0.6L26.6,38.3z"/>
	</g>
</g>
</svg>
