<svg xmlns="http://www.w3.org/2000/svg" data-name="Camada 1" viewBox="0 0 50 50"><path fill="#35d3c3" d="M25.3 24.3l7.9 2.4-6.7 4.8.1 8.2-6.6-4.9-7.8 2.6 2.7-7.8-4.9-6.5 8.2.1 4.7-6.7 2.4 7.8z"/><path fill="#7df4eb" d="M42.7 14.1c2.1 0 3.7-1.7 3.7-3.7V5.7c0-.8-.2-1.5-.7-2.1-.1-.2-.3-.4-.5-.5l-.2-.2c-.1-.1-.3-.2-.4-.3 0 0-.2 0-.3-.1-.2 0-.3-.1-.5-.2h-.2c-.3 0-.5 0-.8-.1H7.4c-2.1 0-3.7 1.7-3.7 3.7v4.7c0 2.1 1.7 3.7 3.7 3.7h.9v4.2h-.9c-2.1 0-3.7 1.7-3.7 3.7v5.2c0 2.1 1.7 3.7 3.7 3.7h.9v4.2h-.9c-2.1 0-3.7 1.7-3.7 3.7v4.7c0 2.1 1.7 3.7 3.7 3.7h.9c0 .9.9 1.6 1.8 1.3L44.9 36c-.6-.5-1.4-.8-2.2-.8h-.9v-4.7h.9c2.1 0 3.7-1.7 3.7-3.7v-4.7c0-2.1-1.7-3.7-3.7-3.7h-.9v-4.2h.9z"/><path fill="#444" d="M42.7 15.3c2.7 0 4.9-2.2 4.9-4.9V5.7C47.6 3 45.4.8 42.7.8H7.4C4.7.8 2.5 3 2.5 5.7v4.7c0 2.7 2.2 4.9 4.9 4.9v2.4c-2.7 0-4.9 2.2-4.9 4.9v4.7c0 2.7 2.2 4.9 4.9 4.9v2.4c-2.7 0-4.9 2.2-4.9 4.9v4.7c0 2.7 2.2 4.9 4.9 4.9h23.7c.6 0 1.1-.6 1.1-1.2s-.5-1.1-1.1-1.1H7.4c-1.4 0-2.6-1.2-2.6-2.6v-4.7c0-1.4 1.2-2.6 2.6-2.6h35.3c1.4 0 2.6 1.2 2.6 2.6v4.4c0 .6.6 1.1 1.2 1.1s1.1-.5 1.1-1.1v-4.4c0-2.7-2.2-4.9-4.9-4.9v-2.4c2.7 0 4.9-2.2 4.9-4.9v-4.7c0-2.7-2.2-4.9-4.9-4.9v-2.4zM4.8 10.4V5.7c0-1.4 1.2-2.6 2.6-2.6h35.3c1.4 0 2.6 1.2 2.6 2.6v4.7c0 1.4-1.2 2.6-2.6 2.6H7.4c-1.4 0-2.6-1.2-2.6-2.6zm36.1 24.1H9.2v-2.4h31.7v2.4zm4.4-12v4.7c0 1.4-1.2 2.6-2.6 2.6H7.4c-1.4 0-2.6-1.2-2.6-2.6v-4.7c0-1.4 1.2-2.6 2.6-2.6h35.3c1.4 0 2.6 1.2 2.6 2.6zm-4.4-4.8H9.2v-2.4h31.7v2.4z"/><path fill="none" stroke="#444" stroke-miterlimit="10" stroke-width=".5" d="M15.5 44.1c-1.1 0-2-.9-2-2s.9-2 2-2 2 .9 2 2-.9 2-2 2zm0-17.5c-1.1 0-2-.9-2-2s.9-2 2-2 2 .9 2 2-.9 2-2 2zm0-16.7c-1.1 0-2-.9-2-2s.9-2 2-2 2 .9 2 2-.9 2-2 2z"/><path fill="#444" stroke="#444" stroke-linecap="round" stroke-linejoin="round" d="M4.5 7.9h7.7M4.5 24.7h7.7M4.4 42.2h7.7"/></svg>