<svg xmlns="http://www.w3.org/2000/svg" id="Layer_1" x="0" y="0" version="1.1" viewBox="0 0 50 50" xml:space="preserve"><style>.st2{fill:#444}.st3{fill:none;stroke:#444;stroke-linecap:round;stroke-linejoin:round;stroke-miterlimit:10}</style><path fill="#fc9d9a" d="M44.6 12.4L39 8.8l-7.7-4.4-6-2.8c-3.2 0-21.5 8.9-21.5 12.1l-.5 7.8.5 15.1 11.5 7.6 31-11c.9-.5-.7-18.8-1.7-20.8z"/><path fill="none" stroke="#444" stroke-linecap="round" stroke-linejoin="round" stroke-miterlimit="10" stroke-width="2.5" d="M29.9 46.5l-2.2 1.3c-1.7 1-3.8 1-5.5 0l-15.6-9C5 37.8 3.9 36 3.9 34V16c0-2 1-3.8 2.7-4.7l15.6-9c1.7-1 3.8-1 5.5 0l15.6 9c1.7 1 2.7 2.8 2.7 4.7v18c0 2-1 3.8-2.7 4.7l-2.5 1.4"/><circle cx="35.8" cy="27.8" r="2.6" class="st2"/><path d="M30.7 33.7s-.7 2.6.7 2.6H40s1-.1 1-1.3c0 0 0-2.6-2.2-4-.4-.3-.8-.3-1.3-.2l-1.1.4c-.4.2-.9.2-1.3 0l-1.3-.4c-.4-.1-.9-.1-1.3.2-.5.4-1.3 1.2-1.8 2.7z" class="st2"/><ellipse cx="21.7" cy="14.8" class="st3" rx="10.1" ry="3.4"/><path fill="none" stroke="#444" stroke-linecap="round" stroke-linejoin="round" stroke-miterlimit="10" stroke-width=".5" d="M26.8 20.4c-.1 0-.2 0-.3.1m2.7-.4c-.1 0-.2.1-.3.1M26.8 27c-.1 0-.2 0-.3.1m2.7-.5c-.1 0-.2.1-.3.1"/><path d="M31.8 21.1c0 1.9-4.5 3.4-10.1 3.4S11.6 23 11.6 21.1M25 30.6c-1 .1-2.2.2-3.4.2-5.6 0-10.1-1.5-10.1-3.4" class="st3"/><path d="M25.2 36.8c-1.1.1-2.2.2-3.5.2-5.6 0-10.1-1.5-10.1-3.4V14.8m20.2 0v13.5" class="st3"/></svg>