<svg xmlns="http://www.w3.org/2000/svg" id="Layer_1" x="0" y="0" version="1.1" viewBox="0 0 50 50" xml:space="preserve"><style>.st2,.st3{fill:none;stroke:#444;stroke-linecap:round;stroke-linejoin:round;stroke-miterlimit:10}.st3{stroke-width:.5}</style><path fill="#35d3c3" d="M30.3 21.2l7.9 2.5-6.7 4.7.1 8.2-6.6-4.9-7.8 2.6 2.7-7.7L15 20l8.2.1 4.7-6.7z"/><path fill="#7df4eb" fill-rule="evenodd" d="M46.9 6.7l-4-2.4-2.8-.8L36 2.3l-4.7.7-5 .9-3.7 2.5-6.8-.4-7.9.7-4.3 2.6-.7 6.1v17.9l.5 5.5c.1 3.3 6.7 5.7 9.8 4.7L45.8 32l.6-4.7.4-9.7.1-10.9z" clip-rule="evenodd"/><path d="M28.2 11.1c0 1.9-5.6 3.5-12.4 3.5-6.9 0-12.4-1.6-12.4-3.5 0-.2 0-.3.1-.5.5-1 2.3-1.8 4.9-2.3h.1c2-.4 4.6-.7 7.3-.7s5.2.2 7.3.7h.1c2.6.5 4.5 1.4 4.9 2.3 0 .1.1.3.1.5zM3.4 18.6c0 1.9 5.6 3.5 12.4 3.5 6.9 0 12.4-1.6 12.4-3.5M3.4 26.1c0 1.8 4.9 3.3 11.1 3.5h2.6c6.3-.2 11.1-1.7 11.1-3.5M3.4 33.7c0 1.2 2 2.2 5.1 2.9 2 .4 4.6.7 7.3.7s5.2-.2 7.3-.7c3.1-.6 5.1-1.7 5.1-2.9M3.4 41.2c0 1.9 5.6 3.5 12.4 3.5 6.9 0 12.4-1.6 12.4-3.5M3.4 11.1v30.1m24.8-30.1v30.1" class="st2"/><path d="M14.8 18.4h2m-2 7.6h2m-2 7.6h2m-2 7.6h2" class="st3"/><path d="M17 29.7h-2.5m13.6-19.1c1.9.4 4.3.6 6.8.6 6.5 0 11.8-1.5 11.8-3.3 0-1.8-5.3-3.3-11.8-3.3-6.5 0-11.8 1.5-11.8 3.3 0 .1 0 .3.1.4m5 9.5c1.9.4 4.2.6 6.7.6 6.5 0 11.8-1.5 11.8-3.3m-18.5 9.8c1.9.4 4.2.6 6.7.6 6.5 0 11.8-1.5 11.8-3.3m-18.5 9.9c1.9.4 4.2.6 6.7.6 6.5 0 11.8-1.5 11.8-3.3M23.1 8.2v-.4m23.5 0v21.5" class="st2"/><path d="M33.9 14.8h1.9M33.9 22h1.9m-1.9 7.3h1.9m-1.9 7.2h1.9" class="st3"/><path d="M36.1 25.5h-2.5M8.5 7.8v.4" class="st2"/><path fill="none" stroke="#444" stroke-linecap="round" stroke-linejoin="round" stroke-miterlimit="10" stroke-width="2.5" d="M46.6 32.7V7.5S44.4 4 34.5 3.8c0 0-9.2-.1-11.5 3.5 0 0-4.2-1-9.8-.3 0 0-9.1.9-9.9 4v30.2s1.1 3.2 12.9 3.5c0 0 9.9.2 12.8-3.1v-2.3s3.2 1.2 11.6.2"/></svg>