<?xml version="1.0" encoding="utf-8"?>
<!-- Generator: Adobe Illustrator 27.5.0, SVG Export Plug-In . SVG Version: 6.00 Build 0)  -->
<svg version="1.0" id="Camada_1" xmlns="http://www.w3.org/2000/svg" xmlns:xlink="http://www.w3.org/1999/xlink" x="0px" y="0px"
	 viewBox="0 0 50 50" style="enable-background:new 0 0 50 50;" xml:space="preserve">
<style type="text/css">
	.st0{fill:#E589EF;}
	.st1{fill:none;stroke:#444444;stroke-linecap:round;stroke-miterlimit:10;}
	.st2{fill:none;stroke:#444444;stroke-miterlimit:10;}
	.st3{fill:none;stroke:#444444;stroke-width:2.5;stroke-linecap:round;stroke-miterlimit:10;}
</style>
<path class="st0" d="M35.9,19.9c0,0,1.8-12.4-4.5-15S10-1.1,4.3,7.5c0,0-1.9,2.7-1.7,9.7s0,13,0,13s0.6,5.7,6.9,6.9s9.6,1.5,9.6,1.5
	l4.7,1.5l0.3,3.7l22.7-8.8c0,0,1.1-9.9-1.8-11.1C42.3,22.6,36.4,22.5,35.9,19.9z"/>
<g>
	<g>
		<path class="st1" d="M7.3,28.6V11"/>
		<path class="st1" d="M30.7,19v5"/>
		<path class="st1" d="M19,16.9c6.5,0,11.7-2.6,11.7-5.9S25.5,5.2,19,5.2C12.5,5.2,7.3,7.8,7.3,11S12.5,16.9,19,16.9z"/>
		<path class="st1" d="M30.7,19.8c0,3.2-5.2,5.9-11.7,5.9c-6.5,0-11.7-2.6-11.7-5.9"/>
		<path class="st1" d="M24.9,33.7c-1.7,0.5-3.7,0.8-5.9,0.8c-6.5,0-11.7-2.6-11.7-5.9"/>
	</g>
	<path class="st2" d="M27.9,40.7V29.4"/>
	<g>
		<path class="st1" d="M42.9,35v5.7"/>
		<path class="st2" d="M35.4,33.1c4.2,0,7.5-1.7,7.5-3.8s-3.4-3.8-7.5-3.8c-4.2,0-7.5,1.7-7.5,3.8S31.2,33.1,35.4,33.1z"/>
		<path class="st1" d="M42.9,35c0,2.1-3.4,3.8-7.5,3.8c-4.2,0-7.5-1.7-7.5-3.8"/>
		<path class="st2" d="M42.9,40.7c0,2.1-3.4,3.8-7.5,3.8c-4.2,0-7.5-1.7-7.5-3.8"/>
	</g>
</g>
<path class="st3" d="M36.5,48.4c-9.6,0-12.5-3.3-12.7-4.7c-0.1-0.7-0.2-2.1-0.2-3.2c0-1-0.8-1.7-1.8-1.7c-5.1,0-18.6-0.5-19.1-9.7
	V12c0,0-1-10.3,17-10.3c16.8,0.1,16,10.7,16,10.7v7.2c0,1.2,0.9,2.1,2,2.3c3,0.3,9.5,1.6,9.5,6.3v11.6"/>
</svg>
