<svg xmlns="http://www.w3.org/2000/svg" id="Layer_1" x="0" y="0" version="1.1" viewBox="0 0 50 50" xml:space="preserve"><style>.st2,.st3{fill:none;stroke:#444;stroke-linecap:round;stroke-linejoin:round;stroke-miterlimit:10}.st3{stroke-width:.5}</style><path fill="#fc9d9a" d="M44.6 12.4L39 8.8l-7.7-4.4-6-2.8c-3.2 0-21.5 8.9-21.5 12.1l-.5 7.8.5 15.1 11.5 7.6 31-11c.9-.5-.7-18.8-1.7-20.8z"/><path fill="none" stroke="#444" stroke-linecap="round" stroke-linejoin="round" stroke-miterlimit="10" stroke-width="2.5" d="M29.9 46.5l-2.2 1.3c-1.7 1-3.8 1-5.5 0l-15.6-9C5 37.8 3.9 36 3.9 34V16c0-2 1-3.8 2.7-4.7l15.6-9c1.7-1 3.8-1 5.5 0l15.6 9c1.7 1 2.7 2.8 2.7 4.7v18c0 2-1 3.8-2.7 4.7l-2.5 1.4"/><path d="M22.7 38.4l-2.5 2.5-8.5-8.5 2.5-2.5 3.1 3.1.7.7.1.1 3.5 3.5.8.8zm-.6-.6h9.3c1.7 0 2.3-.2 2.7-.7l6.3-6.3c.2-.2.4-.5.4-.8 0-.5-.3-1.1-.9-1.2-1-.1-1.8.3-3 1.1l-4.3 3.2" class="st2"/><path d="M24.3 34.6h6.5c1 0 1.7-.6 1.8-1.3 0-.2 0-.4-.1-.5-.4-.9-1.2-1.6-2.7-1.6H25c-1.2-1.4-3.1-2.5-5.3-2.5-1.8 0-3.6.9-4.8 1.9" class="st2"/><g id="g_197"><path id="path_151" d="M30.4 13.8c-1-.3-2.7-.3-3.7 0l-9.1 2.7c-1 .3-1 .8 0 1.1l9.1 2.7c1 .3 2.7.3 3.7 0l9.1-2.7c1-.3 1-.8 0-1.1l-9.1-2.7z" class="st3"/></g><g id="g_198"><path id="path_152" d="M38.7 21.9c-.7 0-1.2.5-1.2 1.2v1.1c0 .7.5 1.2 1.2 1.2s1.2-.5 1.2-1.2v-1.1c0-.7-.5-1.2-1.2-1.2z" class="st3"/></g><g id="g_199"><path id="path_153" d="M21.5 18.9V23c0 1.3 3.2 2.4 7.1 2.4 3.9 0 7.1-1.1 7.1-2.4v-4.1" class="st3"/></g><g id="g_200"><path id="path_154" d="M38.7 21.7V18" class="st3"/></g><g><path d="M14.6 16.6h-1.5c-.1 0-.2-.1-.2-.2v-1.1m1.7 4.2h-4.1m4.1-1.5H12s-.1 0-.1-.1L11 17" class="st3"/><circle cx="12.9" cy="14.5" r=".8" class="st3"/><circle cx="10.5" cy="16.3" r=".8" class="st3"/><circle cx="9.7" cy="19.5" r=".8" class="st3"/><path d="M14.6 22.3h-1.5c-.1 0-.2.1-.2.2v1.1m1.7-2.6H12s-.1 0-.1.1l-.9.8" class="st3"/><circle cx="12.9" cy="24.4" r=".8" class="st3"/><circle cx="10.5" cy="22.6" r=".8" class="st3"/></g></svg>