<svg xmlns="http://www.w3.org/2000/svg" id="Camada_1" version="1.1" viewBox="0 0 300 300"><defs><style>.st0{fill:#78d9ff}</style></defs><circle cx="142.9" cy="148.4" r="140" fill="#008dd3"/><path fill="#2b2b2b" d="M293.4 255.7s-3.1 9.8-8.9 15.4c-3.3 3.2-11.6 7.1-18.7 7.1H71.6c-7.1 0-13.2-4.3-16.5-7.6-5.8-5.6-5.4-15.1-5.4-15.1V117.6c0-10.4 12.1-17.6 12.1-17.6"/><path fill="#f96464" d="M58.3 116.8H291v122.8H58.3z"/><path fill="#515759" d="M57.8 116.1v-.9c-.1-9.9 8-18 17.9-18h197c9.9 0 18 8.1 18 18v.9h-233zM290.7 241v8.3c0 9.9-8.1 18-18 18H75.6c-9.9 0-18-8.1-18-18V241h233.1z"/><path fill="none" stroke="#515759" stroke-miterlimit="10" stroke-width="5" d="M57.8 115.3H291M57.8 240.5H291"/><path fill="none" stroke="#515759" stroke-miterlimit="10" stroke-width="6" d="M274.1 266.9H74.8c-9.3 0-17-7.6-17-17v-135c0-9.3 7.6-17 17-17h199.3c9.3 0 17 7.6 17 17v135c0 9.4-7.7 17-17 17z"/><path style="isolation:isolate" d="M291 133c-1 0-3.3.4-3.3 1.5v103.3l-227 .1v-11.6c0-1.1-2.2-1.4-3.2-1.4s-2.9.3-2.9 1.4v23.9c0 10.2 8.5 19.9 20.6 19.9h199.6c8.4 0 19.5-7.4 19.5-20.1V134.4c0-1.1-2.3-1.5-3.2-1.5z" opacity=".3"/><path fill="#f14e70" d="M60.8 118.1l226.9 119.8H60.8V118.1z"/><path d="M70.4 259.1v-10.5c0-.9.8-1.5 1.4-1.3l11.1 4.6c1 .4 1 1.9.1 2.5l-11.2 5.8c-.6.4-1.4-.2-1.4-1.2z" class="st0"/><circle cx="94.7" cy="253.9" r="5.1" class="st0"/><path fill="none" stroke="#78d9ff" stroke-linecap="round" stroke-miterlimit="10" stroke-width="2" d="M114.2 249.1v9.1m-6.8-9.1v9.1m156.4-1.5v3.2c0 .5.4.9.9.9h3.1m0-13.2h-3.1c-.5 0-.9.4-.9.9v3m13.2 0v-3c0-.5-.4-.9-.9-.9H273m0 13.2h3.1c.5 0 .9-.4.9-.9v-3.2"/><path fill="#ffd473" d="M82.6 71.2l-1.5 144.4c0 5.6 4.4 10.2 10 10.3l159.4 1.7c5.6 0 10.2-4.4 10.3-10l2-187.6c0-5.6-4.4-10.2-10-10.3l-104.1-1.1-66 52.6z"/><path fill="#f7941e" d="M148.1 61.8l.5-43.2-66 52.6 55.3.6c5.6 0 10.2-4.4 10.3-10z"/><path fill="#ef3030" d="M183.1 93.8c-8.9-9.1-21.3-14.8-35.1-15l-.5 49.8 35.6-34.9z"/><path fill="#7a2a9b" d="M148 78.8c-27.5-.3-50.1 21.8-50.4 49.3-.3 27.5 21.8 50.1 49.3 50.4 13.8.1 26.3-5.3 35.4-14.2l-34.9-35.6.5-49.8z"/><path fill="#030072" d="M183.1 93.8l-35.6 34.9 34.9 35.6c9.1-8.9 14.8-21.3 15-35.1.1-13.8-5.3-26.3-14.2-35.4z"/><path fill="none" stroke="#444" stroke-linecap="round" stroke-linejoin="round" stroke-width="3.3" d="M164.4 95.2l.5-42.1 18.9.2m-60.4 101.1l-.4 34 55.5.6m-5.5-71.2l21.5-23.5 13.9.1m-18.5-41l16.2.2m-16.2 5.8l38 .5m-38.1 10.5l38 .4m-38-5.8l38.1.5m-14.4 29l16.2.2m-16.2 6.1l38 .4m-38.1 10.5l38 .4m-38-5.7l38 .4m-67 81.7l16.1.2m-16.2 5.7l38 .4m-38.1 10.5l38 .4m-37.9-5.8l38 .5"/></svg>