<?xml version="1.0" encoding="utf-8"?>
<!-- Generator: Adobe Illustrator 27.9.0, SVG Export Plug-In . SVG Version: 6.00 Build 0)  -->
<svg version="1.1" id="Camada_1" xmlns="http://www.w3.org/2000/svg" xmlns:xlink="http://www.w3.org/1999/xlink" x="0px" y="0px"
	 viewBox="0 0 49 50" style="enable-background:new 0 0 49 50;" xml:space="preserve">
<style type="text/css">
	.st0{fill:#FCC34F;}
	.st1{fill:none;stroke:#444444;stroke-width:2.5;stroke-linecap:round;stroke-linejoin:round;stroke-miterlimit:10;}
	.st2{fill:none;stroke:#444444;stroke-linecap:round;stroke-linejoin:round;stroke-miterlimit:10;}
	.st3{fill:none;stroke:#444444;stroke-width:0.5;stroke-linecap:round;stroke-linejoin:round;stroke-miterlimit:10;}
</style>
<g>
	<g>
		<path class="st0" d="M44.6,2.6H3.5C2.1,2.6,2,6.5,2,7.9L1.9,24.8L1.3,35l1.2,11.8L15,47.4l32.1-11.4V5.4V5.2v0
			C47.1,3.8,46,2.6,44.6,2.6z"/>
		<path class="st1" d="M31.9,48.1h-27c-1.9,0-3.4-1.6-3.4-3.5V5.6c0-1.9,1.5-3.5,3.4-3.5h39c1.9,0,3.4,1.6,3.4,3.5v32.5"/>
	</g>
	<g>
		<g>
			<path class="st2" d="M33,19.8c-0.7,3-3.5,5.3-6.8,5.3c-3.3,0-6-2.3-6.8-5.3"/>
			<polygon class="st3" points="26.1,27.1 29.1,31.8 26.7,43.8 25.4,43.8 23,31.8 			"/>
			<path class="st2" d="M16,27.3h3.4"/>
			<path class="st2" d="M10.8,43.8h30.7l-2.4-12.6c-0.4-2.3-2.4-3.9-4.7-3.9h-1.7"/>
			<line class="st3" x1="32.6" y1="35.8" x2="37.1" y2="35.8"/>
			<path class="st2" d="M22.3,7.5c-0.5,0.5-1.1,0.8-1.7,1.1c-1,0.4-2.4,1.4-2.5,3.8c-0.3,3.9,1.6,7.4,1.6,7.4s-0.4-2.6-0.1-4.6
				c0.1-0.9,0.4-1.6,1-2c1.8-1.3,1.8-1.3,1.8-1.3s2.7,3.1,5.6,3.2s3.9-1.3,4.9,0.1c0.9,1.5,0.4,4.5,0.4,4.5c0,0.1,2-2.9,1.5-6
				c-0.5-3-1.5-7.1-7.8-7.4C24.2,6.3,22.9,6.9,22.3,7.5z"/>
		</g>
		<path class="st2" d="M7.2,28.5V26h1.2c1.6,0,3.1-0.9,3.6-2.4v0h3.8v20.2h-5.2v-13c0-1.3-1.1-2.4-2.4-2.3L7.2,28.5z"/>
	</g>
</g>
</svg>
