<svg xmlns="http://www.w3.org/2000/svg" version="1" viewBox="0 0 50 50"><path fill="#FCC34F" d="M37.9 34.7L12.2 44V15.8L35.3 2.3l2.5 1.6z"/><path fill="#FDCF72" d="M37.9 3.9V9l-25.7 9.3v-2.5L35.3 2.3z"/><g fill="#031326"><path d="M16.8 18.8l-.1 25.6 19.1-11.1h.1V7.8l-19.1 11zm.2 25.1v-25L35.6 8.1v25L17 43.9z"/><path d="M33.2 15.2c-.3-.1-.6-.1-1 .1-4 2-8 4.4-12 7-.6.4-1.2 1.2-1.2 1.9-.3 3.1-.3 6.1 0 8.9 0 .3.2.5.4.6.1.1.2.1.4.1s.4-.1.6-.2c4-2 8.1-4.4 12-7 .6-.4 1.2-1.2 1.2-1.9.3-3.1.3-6.1 0-8.9 0-.2-.2-.5-.4-.6zm.1 9.6c-.1.6-.5 1.4-1.1 1.7-4 2.6-8 5-12 7-.3.1-.5.2-.7.1-.1-.1-.2-.2-.3-.5-.3-2.8-.3-5.8 0-8.9.1-.6.5-1.4 1.1-1.7 4-2.6 8-5 12-7 .2-.1.3-.1.5-.1.1 0 .2 0 .3.1s.2.2.3.5c.2 2.7.2 5.7-.1 8.8z"/><path d="M28.4 22.9h-3.1c-.3 0-.5.2-.5.5v3.5c0 .5.6.7.9.3l3.1-3.6c.3-.2 0-.7-.4-.7z"/><path d="M39.1 3.2L35.3.9 10.9 15v32.2l2.1 1.3c.2.1.4.2.6.2.4 0 .8-.2 1.1-.6.1-.2.1-.4.2-.5V17.4L36.6 4.8v29.9c0 .7.6 1.2 1.2 1.2s1.2-.6 1.2-1.2l.1-31.5zM13.5 16.4L35.2 3.8l1.2.7-21.7 12.7-1.2-.8zm-.1 29.4V16.7l.2.1 1 .6v29.2l-1.2-.8z"/></g></svg>