<?xml version="1.0" encoding="utf-8"?>
<!-- Generator: Adobe Illustrator 27.3.1, SVG Export Plug-In . SVG Version: 6.00 Build 0)  -->
<svg version="1.1" id="Camada_3" xmlns="http://www.w3.org/2000/svg" xmlns:xlink="http://www.w3.org/1999/xlink" x="0px" y="0px"
	 viewBox="0 0 50 50" style="enable-background:new 0 0 50 50;" xml:space="preserve">
<style type="text/css">
	.st0{fill:#EC6A6D;}
	.st1{fill:#E46160;}
	.st2{fill:none;stroke:#444444;stroke-width:2.5;stroke-linecap:round;stroke-linejoin:round;stroke-miterlimit:10;}
	
		.st3{fill-rule:evenodd;clip-rule:evenodd;fill:none;stroke:#444444;stroke-linecap:round;stroke-linejoin:round;stroke-miterlimit:10;}
	
		.st4{fill-rule:evenodd;clip-rule:evenodd;fill:none;stroke:#444444;stroke-width:0.5;stroke-linecap:round;stroke-linejoin:round;stroke-miterlimit:10;}
</style>
<g>
	<g>
		<path class="st0" d="M35.48,8.54L11.12,7.59c-3.6,0-6.51,2.91-6.51,6.51v10.29l39.97-14.22l0,0C44.57,9.06,36.58,8.54,35.48,8.54z
			"/>
		<path class="st1" d="M4.11,29.11l0.81,10.6c0.2,0.92,2.9,3.1,3.84,3.04l8.73-0.53l28.31-10.07c0.73-0.26,1.29-6,1.25-6.76
			l-2.05-15.38L3.3,24.85C2.71,25.06,4.04,28.49,4.11,29.11z"/>
	</g>
	<path class="st2" d="M37.79,42.86H9.82c-0.01,0,0,0-0.01,0c-0.12,0.03-5.7,0.11-5.7-7.26v-6.49c0-0.83-0.22-1.66-0.71-2.33
		c-0.42-0.57-1.07-1.08-2.04-1.08l0,0c0.97,0,1.62-0.51,2.04-1.08c0.49-0.67,0.71-1.5,0.71-2.33v-6.31c0-7.51,5.59-7.46,5.7-7.43
		c0,0,0,0,0.01,0h30.47c0,0,0,0,0.01,0C40.4,8.52,46,8.46,46,15.98v6.31c0,0.83,0.22,1.66,0.71,2.33c0.42,0.57,1.07,1.08,2.04,1.08
		l0,0c-0.97,0-1.62,0.51-2.04,1.08c-0.49,0.67-0.71,1.5-0.71,2.33v6.49"/>
	<g>
		<g>
			<path class="st3" d="M20.99,24.96c0,2.07,1.67,3.74,3.74,3.74s3.74-1.67,3.74-3.74"/>
			<path class="st3" d="M28.47,24.96c0-1.65-1.23-6.73-3.74-6.73c-2.75,0-3.74,5.08-3.74,6.73"/>
		</g>
		<g>
			<path class="st3" d="M16.53,24.03c0.52,1.82,2.3,2.94,4.12,2.68c0.17-0.02,0.34-0.06,0.5-0.11"/>
			<path class="st3" d="M22.34,19.23c-1.07-1.61-2.6-3.11-4.06-2.69c-2.64,0.75-2.2,5.91-1.75,7.5"/>
		</g>
		<g>
			<path class="st3" d="M28.24,26.48c1.74,0.34,3.52-0.59,4.2-2.29"/>
			<path class="st3" d="M32.44,24.19c0.61-1.54,1.34-6.71-1-7.64c-1.72-0.68-3.54,1.07-4.74,2.75"/>
		</g>
		<path class="st4" d="M7.57,24.35c0,0,10.6,13.28,33.81,9.82"/>
		<path class="st4" d="M13.45,22.93c0,0,5.99,10.79,24.34,9.78"/>
		<path class="st4" d="M7.57,28.9l5.22,0.17c0.05,0,0.08,0.06,0.05,0.1l-1.57,2.14"/>
		<line class="st4" x1="10.3" y1="24.79" x2="15.04" y2="25.21"/>
		<line class="st4" x1="16.19" y1="28.93" x2="17.5" y2="31.39"/>
		<path class="st4" d="M11.17,34.18c0,0,19.02,0.25,24.89-13.41"/>
		<path class="st4" d="M19.34,34.8c0,0,7.08,0.79,16.6-5.33"/>
		<path class="st4" d="M36.12,31.61c0,0,3.67-1.24,6.6-4.86"/>
		<line class="st4" x1="40.09" y1="29.33" x2="43.07" y2="30.11"/>
		<line class="st4" x1="29.73" y1="28.6" x2="33.35" y2="28.36"/>
		<line class="st4" x1="33.35" y1="25.21" x2="39.99" y2="23.66"/>
		<line class="st4" x1="38.91" y1="26.91" x2="36.94" y2="24.52"/>
	</g>
</g>
</svg>
