<?xml version="1.0" encoding="utf-8"?>
<!-- Generator: Adobe Illustrator 27.5.0, SVG Export Plug-In . SVG Version: 6.00 Build 0)  -->
<svg version="1.1" id="Camada_3" xmlns="http://www.w3.org/2000/svg" xmlns:xlink="http://www.w3.org/1999/xlink" x="0px" y="0px"
	 viewBox="0 0 50 50" style="enable-background:new 0 0 50 50;" xml:space="preserve">
<style type="text/css">
	.st0{fill:#C3FF68;}
	.st1{fill:#AFE55D;}
	.st2{fill:none;stroke:#444444;stroke-width:2.5;stroke-linecap:round;stroke-linejoin:round;stroke-miterlimit:10;}
	.st3{fill:none;stroke:#444444;stroke-width:0.5;stroke-linecap:round;stroke-linejoin:round;stroke-miterlimit:10;}
	.st4{fill:none;stroke:#444444;stroke-miterlimit:10;}
</style>
<g>
	<g>
		<g>
			<path class="st0" d="M34.4,2.72l-7.78-0.67c-3.2,0-14.54,0.27-21.43,10.21l-4.01,10.8L42.23,8.62L34.4,2.72z"/>
			<path class="st1" d="M1.06,22.93l3.96,13.41c0.11,0.36,4.55,5.65,4.86,5.85l5.62,2.97l32.19-11.74c0.65-0.37,1.7-8.64,0.75-13.41
				c-0.16-0.79-2.69-7.49-3.21-8.1l-3-3.51L1.06,22.93z"/>
		</g>
		<g>
			<g>
				<g>
					<path class="st2" d="M32.73,47.3c-7.01,2.27-14.98,1.21-21.32-3.56C1.05,35.96-1.04,21.26,6.75,10.91"/>
					<path class="st2" d="M6.62,11.08c2.03-2.99,4.73-4.73,4.73-4.73l0.66-0.54c8.08-5.69,19.24-5.82,27.57,0.45
						c10.36,7.78,12.44,22.48,4.65,32.83"/>
				</g>
			</g>
		</g>
	</g>
	<g>
		<polyline class="st3" points="12.99,18.53 4.99,26.52 12.95,34.48 		"/>
		<path class="st4" d="M32.63,13.72c0.04-2.37-1.15-4.46-2.97-5.68c-0.49-0.33-1.15,0.04-1.11,0.63l0.26,3.59l-2.88,2.13l-2.58-2.25
			c-0.06-0.06,0.03-2.18,0.09-3.58c0.03-0.57-0.6-0.92-1.09-0.62c-1.88,1.19-3.12,3.28-3.12,5.67c0,2.72,1.63,5.06,3.96,6.11v21.97
			c0,1.24,1.01,2.25,2.25,2.25h0.99c1.24,0,2.25-1.01,2.25-2.25V19.71c0,0,0-0.01,0-0.01C30.95,18.64,32.59,16.34,32.63,13.72z"/>
		<line class="st3" x1="10.17" y1="13.51" x2="12.22" y2="13.51"/>
		<line class="st3" x1="14.63" y1="13.51" x2="17.73" y2="13.51"/>
		<line class="st3" x1="14.77" y1="22.65" x2="20.34" y2="22.65"/>
		<line class="st3" x1="19.97" y1="26.51" x2="22.98" y2="26.51"/>
		<line class="st3" x1="20.34" y1="30.42" x2="14.77" y2="30.42"/>
		<line class="st3" x1="10.17" y1="39.47" x2="12.38" y2="39.47"/>
		<line class="st3" x1="14.63" y1="39.47" x2="17.7" y2="39.47"/>
		<line class="st3" x1="19.49" y1="39.47" x2="21.45" y2="39.47"/>
		<polyline class="st3" points="39.04,34.45 47.04,26.45 39.08,18.49 		"/>
		<line class="st3" x1="41.87" y1="39.47" x2="39.81" y2="39.47"/>
		<line class="st3" x1="37.41" y1="39.47" x2="34.31" y2="39.47"/>
		<line class="st3" x1="37.26" y1="30.32" x2="31.7" y2="30.32"/>
		<line class="st3" x1="32.07" y1="26.46" x2="29.06" y2="26.46"/>
		<line class="st3" x1="31.7" y1="22.55" x2="37.26" y2="22.55"/>
		<line class="st3" x1="41.87" y1="13.51" x2="39.65" y2="13.51"/>
		<line class="st3" x1="37.41" y1="13.51" x2="34.33" y2="13.51"/>
		<line class="st3" x1="32.54" y1="39.44" x2="30.59" y2="39.44"/>
	</g>
</g>
</svg>
