<?xml version="1.0" encoding="UTF-8"?>
<svg width="45px" height="51px" viewBox="0 0 45 51" version="1.1" xmlns="http://www.w3.org/2000/svg" xmlns:xlink="http://www.w3.org/1999/xlink">
    <title>nestjs-3</title>
    <defs>
        <polygon id="path-1" points="0 0.70735 44.259 0.70735 44.259 50 0 50"></polygon>
    </defs>
    <g id="Page-1" stroke="none" stroke-width="1" fill="none" fill-rule="evenodd">
        <g id="nestjs-3">
            <path d="M3.5406,39.0409 L9.2496,42.3379 L43.0226,30.0459 L43.0226,16.2459 C43.0226,14.5999 42.1446,13.0759 40.7186,12.2529 L24.4346,2.8519 C23.0086,2.0279 21.2506,2.0279 19.8236,2.8519 L3.5406,12.2519 C2.1136,13.0749 1.2346,14.5989 1.2346,16.2449 L1.2346,35.0479 C1.2346,36.6949 2.1136,38.2169 3.5406,39.0409" id="Fill-1" fill="#00C8E2" fill-rule="nonzero"></path>
            <path d="M33.1793,7.9013 L24.4343,2.8513 C23.0083,2.0283 21.2503,2.0283 19.8243,2.8513 L3.5413,12.2523 C2.1153,13.0753 1.2363,14.5983 1.2363,16.2453 L1.2363,19.5273 L33.1793,7.9013 Z" id="Fill-3" fill="#00DFFC" fill-rule="nonzero"></path>
            <g id="Fill-5-Clipped" transform="translate(0.000000, 0.292800)">
                <mask id="mask-2" fill="white">
                    <use xlink:href="#path-1"></use>
                </mask>
                <g id="path-1"></g>
                <path d="M22.1295,50.0001 C21.1185,50.0001 20.1075,49.7401 19.2055,49.2201 L2.9235,39.8191 C1.1195,38.7761 -0.0005,36.8371 -0.0005,34.7551 L-0.0005,15.9531 C-0.0005,13.8711 1.1205,11.9301 2.9235,10.8891 L19.2055,1.4881 C21.0085,0.4471 23.2495,0.4471 25.0535,1.4881 L41.3355,10.8891 C43.1395,11.9301 44.2595,13.8711 44.2595,15.9531 L44.2595,29.7531 C44.2595,30.4361 43.7065,30.9891 43.0235,30.9891 C42.3405,30.9891 41.7875,30.4361 41.7875,29.7531 L41.7875,15.9531 C41.7875,14.7521 41.1415,13.6311 40.1005,13.0301 L23.8165,3.6301 C22.7745,3.0281 21.4825,3.0301 20.4425,3.6301 L4.1595,13.0291 C3.1175,13.6311 2.4725,14.7511 2.4725,15.9521 L2.4725,34.7541 C2.4725,35.9561 3.1175,37.0751 4.1595,37.6761 L20.4425,47.0761 C21.4835,47.6791 22.7765,47.6781 23.8165,47.0761 L28.3135,44.4811 C28.9025,44.1411 29.6595,44.3421 30.0015,44.9341 C30.3435,45.5241 30.1405,46.2801 29.5495,46.6231 L25.0525,49.2191 C24.1515,49.7401 23.1405,50.0001 22.1295,50.0001" id="Fill-5" fill="#444444" fill-rule="nonzero" mask="url(#mask-2)"></path>
            </g>
            <path d="M23.3765,9.7733 C23.0455,9.7733 22.7135,9.8303 22.3615,9.9473 C21.8185,10.1273 21.4265,10.6033 21.3505,11.1703 C21.2735,11.7383 21.5275,12.2993 22.0045,12.6183 L22.0195,12.6143 C22.0195,12.6163 22.0205,12.6183 22.0205,12.6203 C21.9715,12.7123 21.9025,12.8433 21.8375,13.0143 C21.6185,13.5413 21.5595,14.1153 21.6545,14.6673 C21.4535,14.6373 21.2515,14.6123 21.0495,14.5913 C21.0175,14.5863 20.9845,14.5823 20.9525,14.5793 L20.9525,14.5783 C20.4835,14.5313 20.0295,14.5083 19.5645,14.5083 C19.2545,14.5083 18.9235,14.5213 18.5545,14.5463 C18.1335,14.5743 17.6715,14.6293 17.1495,14.7143 C17.0585,14.7263 16.9225,14.7523 16.7865,14.7803 C16.5585,14.8243 16.3285,14.8773 16.1055,14.9313 L15.9165,14.9813 L15.7605,15.0233 C15.7025,15.0383 15.6465,15.0573 15.5905,15.0803 C15.5055,15.1133 15.4245,15.1503 15.3445,15.1863 L15.2585,15.2243 L15.0445,15.3223 C15.0015,15.3393 14.9585,15.3593 14.9155,15.3803 L14.9155,15.3793 L14.8655,15.4043 C14.8295,15.4213 14.7955,15.4383 14.7605,15.4563 C14.7375,15.4653 14.7175,15.4753 14.6965,15.4863 C14.6105,15.5253 14.5265,15.5703 14.4515,15.6113 C14.4125,15.6293 14.3735,15.6493 14.3355,15.6693 C14.3135,15.6803 14.2845,15.6973 14.2535,15.7133 C14.2365,15.7223 14.2165,15.7333 14.2005,15.7423 C14.1285,15.7833 14.0555,15.8233 13.9885,15.8643 C13.8855,15.9223 13.7935,15.9823 13.7115,16.0403 C13.6595,16.0743 13.6135,16.1063 13.5695,16.1383 C13.4925,16.1913 13.4065,16.2533 13.3315,16.3163 C13.3185,16.3273 13.3075,16.3373 13.2945,16.3493 L13.2895,16.3523 L13.2875,16.3543 C13.2565,16.3763 13.2265,16.3983 13.1965,16.4213 C13.1575,16.4533 13.1165,16.4883 13.0775,16.5243 C13.0225,16.5673 12.9735,16.6133 12.9275,16.6633 C12.9045,16.6833 12.8855,16.7013 12.8675,16.7173 C12.8525,16.7323 12.8365,16.7473 12.8205,16.7623 C12.7725,16.8053 12.7255,16.8523 12.6785,16.8993 L12.6695,16.9083 C12.6675,16.9103 12.6665,16.9123 12.6645,16.9133 C12.6325,16.9453 12.6005,16.9773 12.5685,17.0113 C12.5485,17.0303 12.5295,17.0473 12.5125,17.0653 C12.4805,17.0973 12.4495,17.1313 12.4205,17.1663 L12.3965,17.1883 C12.3645,17.2193 12.3345,17.2523 12.3065,17.2873 L12.2535,17.3423 L12.2075,17.3903 C12.1965,17.4013 12.1655,17.4333 12.1545,17.4443 C12.0855,17.5183 12.0135,17.5933 11.9345,17.6593 C11.8215,17.7573 11.7405,17.8223 11.6605,17.8773 C11.5475,17.9573 11.4525,18.0163 11.3485,18.0763 C11.2795,18.1133 11.1865,18.1583 11.0885,18.1983 C10.9855,18.2413 10.8955,18.2753 10.8075,18.3043 C10.6905,18.3323 10.5735,18.3653 10.4585,18.3973 C10.3815,18.4193 10.3075,18.4453 10.2355,18.4583 C10.1605,18.4623 10.0835,18.4723 10.0085,18.4843 C9.9615,18.4903 9.9105,18.4993 9.8645,18.5083 C9.7885,18.5263 9.7205,18.5433 9.6515,18.5603 C9.5975,18.5743 9.5425,18.5903 9.4895,18.6103 L9.3225,18.6723 C9.2215,18.7113 9.1175,18.7593 9.0155,18.8103 C8.9445,18.8453 8.8765,18.8873 8.8125,18.9323 C8.7755,18.9523 8.7165,18.9893 8.6605,19.0293 C8.5755,19.0893 8.4905,19.1593 8.4115,19.2313 C8.3165,19.3093 8.2435,19.3823 8.1945,19.4313 C8.1675,19.4593 8.1415,19.4873 8.1155,19.5163 C8.0335,19.6083 7.9725,19.6813 7.9165,19.7593 C7.8985,19.7853 7.8815,19.8103 7.8645,19.8363 C7.8295,19.8843 7.7955,19.9373 7.7625,19.9923 C7.7015,20.0833 7.6445,20.1803 7.5955,20.2793 C7.5845,20.2983 7.5755,20.3193 7.5665,20.3393 C7.5155,20.4513 7.4795,20.5363 7.4475,20.6243 C7.4245,20.6903 7.3995,20.7623 7.3755,20.8353 C7.3625,20.8713 7.3525,20.9093 7.3435,20.9463 C7.3255,21.0163 7.3095,21.0863 7.2965,21.1573 C7.2955,21.1613 7.2945,21.1663 7.2935,21.1693 L7.2925,21.1693 C7.2705,21.2743 7.2545,21.3983 7.2465,21.5063 C7.2305,21.6293 7.2225,21.7193 7.2225,21.8213 C7.2225,21.9133 7.2265,22.0313 7.2505,22.1683 C7.2665,22.2673 7.2895,22.3843 7.3345,22.5193 C7.3545,22.5773 7.3745,22.6343 7.3985,22.6933 C7.4175,22.7453 7.4385,22.7953 7.4635,22.8443 C7.5105,22.9383 7.5695,23.0353 7.6325,23.1283 C7.6905,23.2163 7.7485,23.2983 7.8185,23.3823 C7.8485,23.4183 7.8795,23.4523 7.9115,23.4853 C7.9615,23.5343 8.0165,23.5873 8.0725,23.6383 C8.1375,23.6993 8.2035,23.7553 8.2745,23.8103 L8.2845,23.8193 C8.3595,23.8853 8.4305,23.9463 8.5095,24.0063 C8.5155,24.0203 8.5225,24.0353 8.5295,24.0483 C8.5355,24.0693 8.5595,24.1213 8.5845,24.1733 C8.6005,24.2043 8.6165,24.2343 8.6355,24.2653 C8.6665,24.3253 8.6965,24.3793 8.7285,24.4343 C8.7535,24.4783 8.7795,24.5203 8.8095,24.5613 L8.8455,24.6103 L8.9135,24.7073 C8.9355,24.7373 8.9575,24.7663 8.9815,24.7943 C9.0435,24.8693 9.1175,24.9543 9.1915,25.0273 C9.2555,25.0913 9.3185,25.1473 9.3925,25.2103 C9.4305,25.2433 9.4705,25.2743 9.5115,25.3043 C9.5415,25.3283 9.5715,25.3513 9.6025,25.3743 C9.6285,25.5643 9.6735,25.7343 9.7455,25.8973 C9.9215,26.2923 10.2735,26.5983 10.6815,26.7363 C10.9755,27.0653 11.3895,27.2563 11.8335,27.2563 C12.5425,27.2563 13.0395,26.8453 13.5505,26.1153 C13.8825,26.0663 14.2135,26.0423 14.5415,26.0423 C17.0045,26.0423 19.1565,27.4153 20.2565,29.4803 C20.2515,29.4833 20.2465,29.4863 20.2425,29.4903 C20.1265,29.4603 20.0065,29.4433 19.8825,29.4413 L19.8625,29.4413 C19.4695,29.4413 19.1045,29.5943 18.8325,29.8513 C18.6605,29.3283 18.3075,29.0173 18.1475,28.8993 C18.1275,28.8843 18.1075,28.8703 18.0875,28.8563 C17.9715,28.7793 17.8535,28.7153 17.7135,28.6553 C17.6565,28.6313 17.5995,28.6113 17.5415,28.5933 C17.5335,28.5913 17.5255,28.5883 17.5185,28.5863 C17.4965,28.5793 17.4755,28.5713 17.4505,28.5623 C17.4305,28.5563 17.4095,28.5493 17.3895,28.5443 C17.3105,28.5213 17.2305,28.5013 17.1505,28.4853 C17.0395,28.4593 16.9265,28.4423 16.8135,28.4343 C16.7205,28.4233 16.6225,28.4173 16.5345,28.4173 C16.4785,28.4173 16.4215,28.4193 16.3645,28.4243 C16.2355,28.4283 16.1095,28.4443 15.9855,28.4723 C15.8975,28.4863 15.8095,28.5043 15.7205,28.5303 C15.6115,28.5613 15.5055,28.5953 15.3975,28.6423 L15.2905,28.6903 C15.2635,28.7013 15.2045,28.7283 15.1785,28.7413 C15.1435,28.7583 15.1075,28.7783 15.0705,28.7983 C15.0115,28.8273 14.9535,28.8593 14.8975,28.8963 C13.9045,29.5443 13.3595,30.5783 13.3615,31.8073 C13.3625,32.5193 13.5585,33.2633 13.8905,33.9263 C13.7425,34.1993 13.6785,34.5153 13.7175,34.8273 C13.7735,35.2833 14.0295,35.6953 14.4235,35.9333 C14.7805,36.1503 15.1565,36.3363 15.5705,36.5033 C15.6025,36.5163 15.6335,36.5283 15.6655,36.5393 C16.0885,36.6773 16.5075,36.7963 16.7275,36.8573 C16.7995,36.8843 16.8755,36.9063 16.9535,36.9213 C17.4935,37.0333 18.0475,37.0883 18.5985,37.0883 C18.7605,37.0883 18.9225,37.0843 19.0855,37.0743 C19.6335,37.0363 20.1645,36.9453 20.6755,36.8053 C20.6455,37.0843 20.6915,37.3733 20.8255,37.6393 C20.8935,37.7753 20.9815,37.9003 21.0855,38.0113 C20.9365,38.0893 20.7845,38.1653 20.6315,38.2353 C19.9745,38.5393 19.6275,39.2683 19.8075,39.9703 C19.9795,40.6363 20.5795,41.0973 21.2595,41.0973 C21.2945,41.0973 21.3295,41.0963 21.3645,41.0933 C22.2955,41.0293 23.1935,40.8733 24.0355,40.6303 C25.1185,40.3103 26.1385,39.8563 27.0745,39.2833 C27.1185,39.3433 27.1665,39.4023 27.2195,39.4573 C27.5115,39.7583 27.9025,39.9143 28.2985,39.9143 C28.5835,39.9143 28.8705,39.8333 29.1235,39.6663 C29.8835,39.1653 30.5905,38.5773 31.2255,37.9193 C31.8555,37.2603 32.4055,36.5443 32.8725,35.7813 C33.0005,35.8153 33.1305,35.8323 33.2585,35.8323 C33.7315,35.8323 34.1895,35.6073 34.4785,35.2063 C39.9675,27.5493 35.2235,19.6883 32.9495,17.3103 C32.7915,17.0953 32.5745,16.9223 32.3165,16.8163 C32.1315,16.7393 31.9375,16.7023 31.7435,16.7023 L31.7365,16.7023 L31.7295,16.7023 C31.6175,16.7023 31.5065,16.7143 31.3955,16.7403 L31.3955,16.7343 C31.3585,16.5283 31.3135,16.3313 31.2605,16.1323 C31.2525,16.1063 31.2445,16.0803 31.2355,16.0533 L31.2075,15.9683 C31.1615,15.8303 31.1145,15.6873 31.0635,15.5503 C30.9895,15.3593 30.8995,15.1683 30.8095,14.9853 C30.7995,14.9673 30.7905,14.9503 30.7815,14.9323 C30.6895,14.7673 30.5995,14.6033 30.5005,14.4473 C30.4905,14.4313 30.4805,14.4163 30.4695,14.4003 C30.3615,14.2443 30.2545,14.0943 30.1395,13.9463 C30.1195,13.9213 30.1005,13.8973 30.0795,13.8743 C29.9635,13.7433 29.8505,13.6143 29.7295,13.4863 C29.6225,13.3773 29.5375,13.2943 29.4525,13.2193 C29.4285,13.1983 29.4035,13.1773 29.3775,13.1573 C29.0355,12.8913 28.6745,12.6363 28.3025,12.3983 C28.2815,12.3853 28.2605,12.3733 28.2395,12.3613 C28.1775,12.3253 28.1205,12.2953 28.0635,12.2673 C27.7375,12.0753 27.4385,11.9643 27.1595,11.8763 C27.0095,11.8273 26.8545,11.8033 26.6985,11.8033 C26.5625,11.8033 26.4255,11.8223 26.2935,11.8593 C26.0465,10.9863 25.3335,10.4783 25.0625,10.2863 C25.0315,10.2643 25.0005,10.2443 24.9695,10.2243 C24.4735,9.9243 23.9375,9.7733 23.3765,9.7733 M26.6985,13.3033 L26.6985,13.3033 C26.9135,13.3723 27.1285,13.4483 27.3565,13.5933 C27.4045,13.6143 27.4465,13.6353 27.4945,13.6633 C27.8195,13.8713 28.1455,14.0983 28.4565,14.3403 C28.5195,14.3963 28.5815,14.4593 28.6365,14.5143 C28.7475,14.6313 28.8515,14.7503 28.9545,14.8673 C29.0525,14.9923 29.1425,15.1163 29.2315,15.2483 C29.3145,15.3783 29.3915,15.5173 29.4675,15.6563 C29.5365,15.7943 29.6055,15.9393 29.6605,16.0853 C29.7165,16.2303 29.7645,16.3823 29.8135,16.5273 C29.8545,16.6793 29.8895,16.8323 29.9165,16.9913 C29.9385,17.1433 29.9585,17.2953 29.9725,17.4553 C29.9795,17.5653 29.9855,17.6763 29.9855,17.7873 C29.9855,17.9393 29.9725,18.0983 29.9585,18.2573 C29.9445,18.4103 29.9165,18.5623 29.8895,18.7213 C29.8545,18.8733 29.8195,19.0253 29.7715,19.1703 C29.7235,19.3233 29.6675,19.4683 29.6055,19.6143 C29.5435,19.7583 29.4745,19.8973 29.3975,20.0363 C29.3355,20.1463 29.2665,20.2573 29.1965,20.3683 C29.1835,20.3883 29.1695,20.4173 29.1555,20.4373 C29.0655,20.5613 28.9695,20.6863 28.8645,20.8103 C28.7615,20.9283 28.6575,21.0453 28.5395,21.1503 C28.4295,21.2603 28.3115,21.3643 28.1875,21.4613 C28.0625,21.5583 27.9315,21.6483 27.7995,21.7383 C27.6605,21.8213 27.5295,21.8973 27.3845,21.9663 C27.2455,22.0363 27.1005,22.1053 26.9475,22.1603 C26.8035,22.2153 26.6505,22.2633 26.4985,22.3053 C26.3465,22.3463 26.1935,22.3813 26.0345,22.4093 C25.8825,22.4373 25.7305,22.4513 25.5785,22.4643 L25.5855,22.4643 C25.7375,22.5133 25.8895,22.5543 26.0485,22.5823 C26.2005,22.6173 26.3595,22.6373 26.5195,22.6513 C26.6715,22.6653 26.8305,22.6793 26.9895,22.6793 C27.1005,22.6793 27.2115,22.6713 27.3215,22.6653 C27.4745,22.6513 27.6335,22.6373 27.7925,22.6103 C27.9445,22.5823 28.1045,22.5473 28.2565,22.5053 C28.4085,22.4643 28.5615,22.4163 28.7055,22.3613 C28.8515,22.2983 28.9965,22.2363 29.1425,22.1673 C29.2795,22.0973 29.4185,22.0143 29.5505,21.9313 C29.6885,21.8483 29.8135,21.7583 29.9385,21.6623 C29.9925,21.6133 30.0415,21.5723 30.0965,21.5233 C30.1655,21.4683 30.2285,21.4133 30.2975,21.3503 C30.4075,21.2403 30.5195,21.1283 30.6225,21.0043 C30.7195,20.8863 30.8155,20.7623 30.9065,20.6303 C30.9965,20.5063 31.0795,20.3683 31.1555,20.2363 C31.2305,20.0983 31.3005,19.9533 31.3625,19.8143 C31.4255,19.6693 31.4805,19.5173 31.5285,19.3723 C31.5705,19.2193 31.6115,19.0673 31.6475,18.9153 C31.6745,18.7623 31.6945,18.6103 31.7155,18.4513 C31.7235,18.3683 31.7305,18.2853 31.7305,18.2023 C31.7365,18.2093 31.7365,18.2093 31.7365,18.2153 C31.7365,18.2093 31.7365,18.2093 31.7435,18.2023 C31.7435,18.2153 31.7505,18.2223 31.7575,18.2373 C33.6745,20.1393 38.2545,27.3643 33.2595,34.3323 C33.3625,33.2173 33.2935,32.0893 33.0585,30.9963 C32.7125,33.2043 31.6945,35.2583 30.1455,36.8773 C29.5845,37.4593 28.9695,37.9713 28.2975,38.4143 C29.2385,37.0853 29.8755,35.5633 30.1585,33.9643 C28.7545,36.4903 26.4085,38.3663 23.6195,39.1893 C22.8525,39.4113 22.0565,39.5423 21.2605,39.5973 C22.9825,38.8013 24.4575,37.5903 25.5575,36.0893 C24.9135,36.3593 24.2425,36.5873 23.5515,36.7533 C23.5095,36.7673 23.4675,36.7743 23.4265,36.7883 C23.3775,36.7943 23.3295,36.8083 23.2805,36.8163 C23.2465,36.8233 23.2185,36.8303 23.1845,36.8363 C23.1355,36.8503 23.0805,36.8643 23.0315,36.8713 C22.8525,36.9063 22.6725,36.9403 22.4915,36.9673 L22.4845,36.9673 C22.3885,36.9823 22.2915,36.9963 22.1945,37.0093 L22.1885,37.0093 L22.1665,36.9673 C22.2225,36.9333 22.2715,36.8983 22.3185,36.8643 C22.3325,36.8503 22.3545,36.8433 22.3675,36.8303 C22.4235,36.7883 22.4785,36.7473 22.5335,36.7113 C23.3635,36.0893 24.0275,35.2943 24.4785,34.3863 C24.4845,34.3793 24.4845,34.3733 24.4915,34.3663 C24.4985,34.3523 24.5055,34.3383 24.5125,34.3183 C24.5475,34.2553 24.5745,34.1863 24.6025,34.1243 L24.6095,34.1243 C24.6375,34.0543 24.6645,33.9933 24.6925,33.9233 C24.7205,33.8613 24.7405,33.7923 24.7695,33.7223 C24.7965,33.6533 24.8165,33.5913 24.8445,33.5223 C24.8655,33.4533 24.8865,33.3833 24.9065,33.3143 C24.9065,33.3143 24.9065,33.3073 24.9135,33.3003 C24.9285,33.2383 24.9485,33.1753 24.9695,33.1073 L24.9695,33.0853 C24.9895,33.0243 25.0045,32.9613 25.0185,32.8993 C25.0185,32.8923 25.0245,32.8783 25.0245,32.8723 L25.0655,32.6843 L25.0655,32.6643 C25.0795,32.6013 25.0945,32.5333 25.1075,32.4703 L25.1075,32.4633 L25.1075,32.4573 C25.1145,32.3873 25.1285,32.3253 25.1355,32.2553 C25.1425,32.2353 25.1425,32.2143 25.1425,32.1933 C25.1485,32.1383 25.1555,32.0893 25.1625,32.0343 C25.1625,32.0133 25.1625,31.9933 25.1705,31.9723 C25.1705,31.9173 25.1775,31.8683 25.1775,31.8203 C25.1845,31.7853 25.1845,31.7573 25.1845,31.7303 C25.1845,31.6813 25.1905,31.6393 25.1905,31.5913 L25.1905,31.4953 C25.1905,31.4533 25.1975,31.4123 25.1975,31.3703 C25.1975,31.3353 25.1905,31.2943 25.1905,31.2593 L25.1905,31.1483 C25.1905,31.0723 25.1845,30.9963 25.1775,30.9193 C25.1775,30.8653 25.1705,30.8023 25.1635,30.7403 L25.1635,30.7123 C25.1555,30.6573 25.1485,30.5953 25.1355,30.5333 L25.1355,30.5263 C25.1215,30.3943 25.0945,30.2623 25.0725,30.1383 C25.0595,30.0763 25.0455,30.0203 25.0315,29.9593 C24.5745,33.0313 22.0635,35.3623 18.9975,35.5773 C18.8635,35.5853 18.7305,35.5883 18.5985,35.5883 C18.1465,35.5883 17.6975,35.5443 17.2545,35.4533 L17.2545,35.4453 C17.0465,35.3903 16.5755,35.2583 16.1335,35.1133 C15.8085,34.9823 15.4965,34.8303 15.1985,34.6503 C15.1985,34.6503 15.2055,34.6433 15.2125,34.6353 C15.3305,34.5453 15.7525,34.4563 16.1675,34.3793 C15.0675,33.6683 14.1055,31.2043 15.7185,30.1523 C15.7665,30.1313 15.8085,30.1033 15.8495,30.0833 C15.8975,30.0623 15.9395,30.0423 15.9875,30.0203 C16.0365,30.0003 16.0845,29.9863 16.1335,29.9723 C16.1815,29.9593 16.2305,29.9513 16.2785,29.9443 C16.3265,29.9303 16.3755,29.9233 16.4305,29.9233 C16.4655,29.9233 16.4995,29.9173 16.5345,29.9173 C16.5825,29.9173 16.6385,29.9233 16.6875,29.9303 C16.7345,29.9303 16.7835,29.9373 16.8325,29.9513 C16.8805,29.9593 16.9295,29.9723 16.9775,29.9863 C16.9985,29.9933 17.0125,30.0003 17.0325,30.0063 C17.0605,30.0133 17.0955,30.0273 17.1225,30.0353 C17.1715,30.0553 17.2125,30.0763 17.2545,30.1033 C17.4685,30.2623 17.4685,30.5333 17.3515,30.8653 C17.3165,30.9133 17.2955,30.9613 17.2685,31.0103 C17.2475,31.0583 17.2325,31.1073 17.2195,31.1553 C17.2055,31.2043 17.1915,31.2523 17.1855,31.3003 L17.1855,31.4043 C17.1855,31.4603 17.1855,31.5083 17.1915,31.5563 C17.1985,31.6053 17.2125,31.6543 17.2325,31.7023 C17.2475,31.7513 17.2685,31.7983 17.2885,31.8473 C17.3095,31.8753 17.3165,31.9173 17.3445,31.9373 C17.6665,32.3823 18.2605,32.6893 18.8725,32.6893 C18.9165,32.6893 18.9605,32.6883 19.0045,32.6843 C19.4125,32.1723 19.7105,31.5783 19.8625,30.9413 C19.9595,31.3973 19.9805,31.8683 19.9325,32.3253 C20.4995,31.9173 20.8525,31.2593 21.0605,30.7473 C21.1035,30.7363 21.1505,30.7313 21.2025,30.7313 C21.6605,30.7313 22.4115,31.1343 22.4925,31.8053 C22.0835,27.6463 18.6515,24.5423 14.5415,24.5423 C13.9205,24.5423 13.2825,24.6133 12.6395,24.7613 C12.3255,25.2803 11.9705,25.7563 11.8335,25.7563 C11.8135,25.7563 11.7975,25.7463 11.7875,25.7233 C11.7185,25.5573 11.7465,24.9973 11.7875,24.5193 C11.5225,24.9403 11.2585,25.3143 11.1525,25.3143 C11.1375,25.3143 11.1245,25.3053 11.1165,25.2883 C11.0615,25.1633 11.0675,24.8103 11.0885,24.4363 C11.0615,24.4293 11.0265,24.4223 10.9985,24.4163 C10.9845,24.4093 10.9785,24.4093 10.9715,24.4023 C10.9225,24.3883 10.8745,24.3753 10.8325,24.3533 C10.7775,24.3333 10.7225,24.3053 10.6735,24.2773 C10.6185,24.2503 10.5695,24.2223 10.5215,24.1873 C10.4805,24.1603 10.4385,24.1253 10.3975,24.0903 C10.3905,24.0903 10.3835,24.0843 10.3835,24.0843 C10.3345,24.0423 10.2935,24.0073 10.2515,23.9653 C10.2105,23.9243 10.1685,23.8763 10.1345,23.8353 C10.0995,23.7863 10.0645,23.7383 10.0295,23.6893 C10.0025,23.6403 9.9755,23.5923 9.9465,23.5373 C9.9395,23.5303 9.9335,23.5163 9.9265,23.5023 C9.9055,23.4613 9.8925,23.4193 9.8705,23.3773 C9.8505,23.3303 9.8295,23.2743 9.8155,23.2113 C9.8025,23.1563 9.7875,23.1013 9.7805,23.0453 C9.7735,23.0323 9.7735,23.0253 9.7735,23.0113 C9.7675,23.0113 9.7605,23.0043 9.7535,23.0043 C9.7115,22.9833 9.6775,22.9693 9.6435,22.9493 C9.4285,22.8373 9.3865,22.7903 9.2205,22.6443 C9.1725,22.6103 9.1305,22.5753 9.0895,22.5343 C9.0475,22.4993 9.0065,22.4583 8.9715,22.4223 C8.9375,22.3813 8.9085,22.3393 8.8815,22.2983 C8.8545,22.2563 8.8255,22.2153 8.8055,22.1733 L8.8055,22.1673 C8.7845,22.1263 8.7715,22.0843 8.7575,22.0433 C8.7425,22.0013 8.7355,21.9603 8.7295,21.9113 C8.7225,21.8833 8.7225,21.8483 8.7225,21.8213 C8.7225,21.7723 8.7295,21.7313 8.7355,21.6823 C8.7425,21.6413 8.7425,21.5583 8.7575,21.4963 C8.7575,21.4893 8.7645,21.4823 8.7645,21.4753 C8.7715,21.4193 8.7845,21.3643 8.7985,21.3093 C8.8185,21.2473 8.8405,21.1843 8.8605,21.1283 C8.8815,21.0673 8.9085,21.0113 8.9375,20.9493 C8.9645,20.8933 8.9995,20.8383 9.0335,20.7903 C9.0615,20.7343 9.1035,20.6863 9.1375,20.6303 C9.1725,20.5833 9.2135,20.5413 9.2555,20.4923 C9.2965,20.4513 9.3455,20.4023 9.3935,20.3683 C9.4355,20.3263 9.4835,20.2853 9.5315,20.2503 C9.5805,20.2153 9.6355,20.1883 9.6845,20.1533 C9.7395,20.1263 9.7945,20.0983 9.8505,20.0773 C9.9055,20.0563 9.9605,20.0363 10.0165,20.0153 C10.0715,20.0013 10.1275,19.9873 10.1885,19.9733 C10.2445,19.9663 10.3075,19.9533 10.3615,19.9533 C10.6185,19.9313 10.9155,19.8143 11.2065,19.7523 C11.3585,19.7043 11.5115,19.6483 11.6555,19.5863 C11.8085,19.5233 11.9535,19.4553 12.0925,19.3783 C12.2375,19.2953 12.3685,19.2123 12.5075,19.1153 C12.6395,19.0253 12.7705,18.9213 12.8955,18.8113 C13.0195,18.7073 13.1375,18.5893 13.2475,18.4713 L13.2685,18.4513 C13.3235,18.3963 13.3725,18.3403 13.4275,18.2853 C13.4345,18.2713 13.4485,18.2643 13.4555,18.2513 C13.4965,18.2093 13.5385,18.1683 13.5725,18.1263 C13.5865,18.1123 13.6075,18.0983 13.6215,18.0853 C13.6555,18.0433 13.6905,18.0083 13.7255,17.9733 C13.7315,17.9733 13.7315,17.9663 13.7385,17.9603 C13.7805,17.9193 13.8215,17.8773 13.8635,17.8423 C13.8705,17.8363 13.8705,17.8283 13.8775,17.8283 C13.9185,17.7873 13.9605,17.7523 14.0015,17.7103 C14.0095,17.7043 14.0225,17.6973 14.0295,17.6833 C14.0635,17.6553 14.0995,17.6213 14.1335,17.5933 C14.1475,17.5853 14.1605,17.5723 14.1755,17.5653 C14.2095,17.5383 14.2435,17.5103 14.2785,17.4823 L14.2925,17.4683 C14.3345,17.4343 14.3825,17.3993 14.4245,17.3723 C14.4315,17.3653 14.4385,17.3653 14.4445,17.3583 C14.4855,17.3233 14.5345,17.2953 14.5835,17.2613 C14.6315,17.2263 14.6875,17.1923 14.7495,17.1573 C14.8045,17.1233 14.8665,17.0873 14.9295,17.0533 C14.9425,17.0463 14.9705,17.0333 14.9915,17.0193 C15.0325,16.9983 15.0815,16.9703 15.1295,16.9503 C15.1915,16.9153 15.2685,16.8743 15.3445,16.8383 C15.3575,16.8323 15.3715,16.8253 15.3935,16.8183 C15.4545,16.7843 15.5175,16.7553 15.5865,16.7213 C15.5935,16.7143 15.6065,16.7143 15.6205,16.7083 C15.6965,16.6723 15.7725,16.6383 15.8495,16.6033 C15.9455,16.5623 16.0435,16.5133 16.1475,16.4723 C16.2505,16.4443 16.3555,16.4173 16.4585,16.3893 C16.6585,16.3403 16.8665,16.2933 17.0805,16.2513 C17.1855,16.2303 17.2885,16.2093 17.3925,16.1953 C17.8145,16.1273 18.2365,16.0713 18.6585,16.0433 C18.9565,16.0223 19.2605,16.0083 19.5645,16.0083 C19.9805,16.0083 20.3885,16.0293 20.8045,16.0713 C20.8175,16.0713 20.8245,16.0783 20.8385,16.0783 C21.2605,16.1193 21.6825,16.1813 22.0985,16.2643 C22.2425,16.2993 22.3885,16.3343 22.5335,16.3693 C22.8035,16.4303 23.0665,16.5003 23.3365,16.5763 L24.9285,17.1923 C24.9135,17.1643 24.8935,17.1293 24.8795,17.0953 C24.8585,17.0403 24.8455,16.9843 24.8235,16.9283 C24.8105,16.8743 24.7965,16.8183 24.7895,16.7623 C24.7755,16.7013 24.7695,16.6453 24.7695,16.5893 C24.7625,16.5483 24.7625,16.5063 24.7625,16.4653 C24.7625,16.4103 24.7695,16.3473 24.7695,16.2933 C24.7755,16.2643 24.7755,16.2373 24.7825,16.2093 C24.7895,16.1813 24.7895,16.1473 24.7965,16.1193 C24.8105,16.0643 24.8235,16.0083 24.8455,15.9463 C24.8585,15.8913 24.8795,15.8423 24.8995,15.7873 C24.9285,15.7323 24.9485,15.6833 24.9765,15.6273 C25.0045,15.5803 25.0385,15.5313 25.0725,15.4833 C25.1015,15.4343 25.1425,15.3853 25.1775,15.3443 C25.2185,15.2953 25.2535,15.2543 25.3015,15.2123 C25.3435,15.1713 25.3845,15.1363 25.4335,15.1023 C25.4745,15.0603 25.5225,15.0333 25.5705,14.9993 C25.7235,14.8943 25.8895,14.8113 26.0345,14.7013 C26.0835,14.6663 26.1245,14.6253 26.1665,14.5893 L26.1665,14.5833 C26.2155,14.5483 26.2495,14.5003 26.2905,14.4593 C26.3255,14.4173 26.3595,14.3693 26.3955,14.3203 C26.4085,14.2993 26.4225,14.2793 26.4365,14.2573 C26.4575,14.2303 26.4715,14.2033 26.4915,14.1743 C26.5195,14.1203 26.5395,14.0713 26.5675,14.0153 C26.5885,13.9603 26.6085,13.9053 26.6235,13.8493 C26.6445,13.7943 26.6575,13.7393 26.6715,13.6833 C26.6785,13.6283 26.6785,13.5593 26.6855,13.5033 C26.6915,13.4203 26.6715,13.4623 26.6985,13.3033 M23.3765,11.2733 C23.6255,11.2733 23.8955,11.3283 24.1925,11.5083 C24.5045,11.7293 24.8985,12.0473 24.8775,12.5253 C24.6075,13.0723 23.1475,13.3353 23.4105,15.0853 C23.3765,15.0373 23.3485,14.9823 23.3275,14.9333 C23.0855,14.5323 23.0305,14.0343 23.2305,13.5703 C23.3625,13.2113 23.5495,13.1343 23.5225,12.5253 C23.5225,12.4843 23.5155,12.4423 23.5085,12.4013 C23.5005,12.3523 23.4865,12.3183 23.4805,12.2693 C23.3835,11.9173 23.1895,11.6053 22.8365,11.3703 C23.0025,11.3143 23.1825,11.2733 23.3765,11.2733" id="Fill-8" fill="#444444" fill-rule="nonzero"></path>
        </g>
    </g>
</svg>