<svg xmlns="http://www.w3.org/2000/svg" xmlns:xlink="http://www.w3.org/1999/xlink" viewBox="0 0 45 51"><defs><path id="a" d="M0 .707h44.259V50H0z"/></defs><g fill="none" fill-rule="evenodd"><path fill="#00C8E2" fill-rule="nonzero" d="M3.54 39.04l5.71 3.298 33.773-12.292v-13.8c0-1.646-.878-3.17-2.304-3.993L24.435 2.852a4.61 4.61 0 00-4.611 0l-16.283 9.4a4.611 4.611 0 00-2.306 3.993v18.803c0 1.647.879 3.169 2.306 3.993"/><path fill="#00DFFC" fill-rule="nonzero" d="M33.18 7.901l-8.746-5.05a4.612 4.612 0 00-4.61 0L3.541 12.252a4.611 4.611 0 00-2.305 3.993v3.282L33.18 7.901z"/><g transform="translate(0 .293)"><mask id="b" fill="#fff"><use xlink:href="#a"/></mask><path fill="#031326" fill-rule="nonzero" d="M22.13 50a5.853 5.853 0 01-2.924-.78l-16.282-9.4a5.865 5.865 0 01-2.925-5.065V15.953a5.865 5.865 0 012.925-5.064l16.282-9.4a5.866 5.866 0 015.848 0l16.282 9.4a5.863 5.863 0 012.924 5.064v13.8a1.236 1.236 0 11-2.472 0v-13.8A3.385 3.385 0 0040.1 13.03l-16.284-9.4a3.382 3.382 0 00-3.373 0l-16.284 9.4a3.384 3.384 0 00-1.686 2.922v18.802a3.38 3.38 0 001.687 2.922l16.282 9.4a3.375 3.375 0 003.375 0l4.497-2.595a1.237 1.237 0 011.235 2.142l-4.497 2.596A5.838 5.838 0 0122.13 50" mask="url(#b)"/></g><path fill="#031326" fill-rule="nonzero" d="M23.377 9.773c-.331 0-.663.057-1.015.174a1.5 1.5 0 00-.357 2.671l.015-.004v.006a3.294 3.294 0 00-.183.394 2.987 2.987 0 00-.183 1.653 13.69 13.69 0 00-.701-.088 13.783 13.783 0 00-2.398-.033 14.923 14.923 0 00-1.768.234c-.229.044-.459.097-.681.151l-.19.05-.155.042a1.305 1.305 0 00-.17.057c-.085.033-.166.07-.246.106l-.087.038-.213.098a1.828 1.828 0 00-.13.058l-.05.024-.104.052a2.508 2.508 0 00-.425.213c-.023.011-.052.028-.082.044l-.053.03c-.072.04-.146.08-.213.121a3.185 3.185 0 00-.277.176 3.42 3.42 0 00-.142.098 3.2 3.2 0 00-.275.211l-.005.003-.002.002a3.045 3.045 0 00-.09.067 2.73 2.73 0 00-.12.103 1.241 1.241 0 00-.15.14l-.06.053-.047.045c-.047.043-.095.09-.142.137l-.009.01-.005.004a4.482 4.482 0 00-.095.098c-.02.02-.04.036-.057.054a1.469 1.469 0 00-.091.101l-.024.022a1.057 1.057 0 00-.09.1l-.053.054-.046.048-.053.054a3.082 3.082 0 01-.494.433c-.114.08-.209.14-.313.2a3.845 3.845 0 01-.541.228c-.116.027-.233.06-.348.092-.077.022-.152.048-.223.061a2.19 2.19 0 00-.228.026 2.275 2.275 0 00-.143.024l-.213.052a1.59 1.59 0 00-.162.05l-.168.062a3.586 3.586 0 00-.306.138 1.538 1.538 0 00-.204.122c-.037.02-.095.057-.151.097-.085.06-.17.13-.25.202a2.662 2.662 0 00-.216.2 3.176 3.176 0 00-.433.561 2.556 2.556 0 00-.166.287l-.03.06a3.82 3.82 0 00-.223.607 2.56 2.56 0 00-.046.211l-.003.012h-.001a2.704 2.704 0 00-.046.337 2.313 2.313 0 00-.024.315 2.177 2.177 0 00.176.872c.019.052.04.102.064.151.048.094.106.191.17.284a2.573 2.573 0 00.279.357c.05.05.105.102.16.153.066.061.132.117.203.172l.01.01c.075.065.146.126.224.186a.541.541 0 00.02.042 1.219 1.219 0 00.107.217 2.75 2.75 0 00.173.296l.037.05.068.096a3.2 3.2 0 00.479.503c.038.033.078.064.119.094l.09.07c.027.19.072.36.143.523.177.395.529.701.937.84.293.328.707.52 1.152.52.709 0 1.206-.412 1.716-1.142.332-.049.663-.073.991-.073a6.46 6.46 0 015.715 3.438l-.014.01a1.532 1.532 0 00-.36-.049h-.02c-.392 0-.757.153-1.03.41a1.975 1.975 0 00-.745-.995 2.285 2.285 0 00-.373-.2 1.863 1.863 0 00-.172-.063l-.024-.007-.067-.024-.061-.018a2.872 2.872 0 00-.24-.059 2.143 2.143 0 00-.336-.05 2.441 2.441 0 00-.45-.01c-.129.003-.255.02-.379.047a2.525 2.525 0 00-.588.17l-.107.048a2.26 2.26 0 00-.111.051c-.036.017-.072.037-.109.057a1.563 1.563 0 00-.172.098c-.993.648-1.538 1.682-1.537 2.911.002.712.197 1.456.53 2.12a1.505 1.505 0 00-.174.9c.056.456.313.868.707 1.106a7.807 7.807 0 001.242.606c.422.138.841.257 1.061.318.072.027.148.05.226.064a8.119 8.119 0 002.133.153 8.14 8.14 0 001.59-.269 1.519 1.519 0 00.41 1.206 9.553 9.553 0 01-.454.224 1.5 1.5 0 00.732 2.858 12.82 12.82 0 002.671-.463 12.717 12.717 0 003.04-1.347 1.5 1.5 0 002.049.383 12.449 12.449 0 002.102-1.747c.63-.659 1.18-1.375 1.647-2.138a1.504 1.504 0 001.606-.575c5.489-7.657.745-15.518-1.53-17.896a1.485 1.485 0 00-.633-.494 1.487 1.487 0 00-.573-.114h-.013c-.113 0-.224.012-.335.038v-.006a7.404 7.404 0 00-.134-.602 3.512 3.512 0 00-.026-.079l-.027-.085c-.046-.138-.093-.28-.144-.418a7.16 7.16 0 00-.282-.618c-.093-.165-.183-.329-.282-.485a10.132 10.132 0 00-.361-.501c-.02-.025-.038-.049-.06-.072-.116-.13-.229-.26-.35-.388a5.326 5.326 0 00-.276-.267 1.544 1.544 0 00-.075-.062 14.375 14.375 0 00-1.076-.759 4.208 4.208 0 00-1.143-.522 1.481 1.481 0 00-.866-.017c-.246-.873-.96-1.38-1.23-1.573-.031-.022-.063-.042-.093-.062a3.04 3.04 0 00-1.593-.45m3.322 3.53c.214.068.43.144.657.29.048.02.09.041.138.07.326.207.651.434.962.676.064.056.125.12.18.174.111.117.216.236.319.353.098.125.188.25.277.381a4.599 4.599 0 01.429.837c.055.145.104.297.152.442.042.152.077.305.104.464.021.152.041.304.055.464.008.11.013.221.013.332 0 .152-.012.311-.026.47-.014.153-.043.305-.07.464-.034.152-.07.304-.117.45a4.815 4.815 0 01-.575 1.197c-.014.02-.027.05-.041.07a6.64 6.64 0 01-.291.372 3.723 3.723 0 01-.325.34c-.11.11-.229.214-.352.311a7.76 7.76 0 01-.389.277c-.139.083-.27.16-.415.228-.139.07-.284.14-.436.194a5.007 5.007 0 01-1.37.304h.008c.152.05.304.09.463.118.152.035.31.055.47.07.153.013.312.027.47.027.111 0 .223-.008.332-.014.153-.014.313-.028.471-.055a5.527 5.527 0 00.913-.249c.147-.063.292-.125.438-.194.136-.07.276-.153.407-.236a4.11 4.11 0 00.389-.269c.053-.049.102-.09.157-.139.07-.055.133-.11.201-.173.11-.11.223-.222.325-.346a5.552 5.552 0 00.534-.768c.075-.138.145-.283.207-.422.063-.145.117-.297.166-.442.041-.153.082-.305.119-.457.026-.153.047-.305.067-.464a2.31 2.31 0 00.015-.249c.006.007.006.007.006.013 0-.006 0-.006.008-.013 0 .013.006.02.014.035 1.917 1.902 6.497 9.127 1.502 16.095a11.055 11.055 0 00-.201-3.336 10.97 10.97 0 01-2.913 5.881 10.862 10.862 0 01-1.849 1.537 11.037 11.037 0 001.861-4.45 11.05 11.05 0 01-6.539 5.225c-.767.222-1.563.353-2.358.408a11.093 11.093 0 004.297-3.508c-.645.27-1.316.498-2.006.664-.043.014-.084.021-.125.035-.05.006-.098.02-.146.028l-.096.02a1.205 1.205 0 01-.153.035 12.19 12.19 0 01-.54.096h-.008c-.096.015-.193.03-.29.042h-.005l-.023-.042c.056-.034.105-.069.152-.103.014-.014.037-.02.05-.034.056-.042.11-.083.166-.119a6.548 6.548 0 001.945-2.325c.006-.007.006-.013.012-.02a.216.216 0 00.021-.048c.035-.063.063-.132.09-.194h.008c.027-.07.055-.13.082-.2.029-.063.049-.132.078-.202.027-.069.047-.13.075-.2l.062-.208s0-.007.006-.014c.015-.062.035-.125.056-.193v-.022c.02-.06.035-.124.05-.186 0-.007.006-.02.006-.027l.04-.188v-.02c.014-.063.03-.13.043-.194v-.013c.006-.07.02-.132.027-.202.007-.02.007-.04.007-.062l.02-.159c0-.02 0-.04.009-.062 0-.055.006-.104.006-.152.008-.035.008-.063.008-.09 0-.049.006-.09.006-.139v-.096c0-.042.007-.083.007-.125 0-.035-.008-.076-.008-.11v-.112c0-.076-.006-.152-.013-.229a1.69 1.69 0 00-.014-.179v-.028c-.008-.055-.015-.117-.027-.179v-.007c-.014-.132-.041-.264-.063-.388l-.041-.179c-.457 3.072-2.968 5.403-6.035 5.618a6.668 6.668 0 01-1.743-.124v-.008a22.372 22.372 0 01-1.12-.332 6.503 6.503 0 01-.936-.463s.008-.007.014-.015c.119-.09.54-.179.956-.256-1.1-.71-2.063-3.175-.45-4.227.049-.02.09-.049.132-.069.048-.02.09-.04.138-.063a1.235 1.235 0 01.291-.076.532.532 0 01.151-.02c.035 0 .07-.007.105-.007.047 0 .104.006.152.013a.53.53 0 01.145.021c.049.008.098.021.145.035.021.007.035.014.055.02.029.007.064.021.09.03.05.02.09.04.133.067.213.16.213.43.097.762-.035.048-.056.096-.084.145a1.032 1.032 0 00-.049.145c-.014.05-.027.097-.034.145v.104c0 .056 0 .104.007.152a.602.602 0 00.04.146c.015.05.037.096.056.145.021.028.029.07.056.09.322.445.916.752 1.528.752.044 0 .088 0 .133-.005a4.47 4.47 0 00.858-1.743c.096.456.117.927.07 1.384.567-.408.92-1.066 1.128-1.578a.571.571 0 01.142-.016c.457 0 1.209.403 1.29 1.074-.41-4.159-3.841-7.263-7.951-7.263a8.48 8.48 0 00-1.902.22c-.315.518-.67.994-.806.994-.02 0-.037-.01-.046-.033-.07-.166-.042-.726 0-1.204-.265.421-.53.795-.636.795-.014 0-.027-.009-.035-.026-.056-.125-.05-.478-.029-.852-.026-.007-.061-.014-.09-.02-.013-.007-.02-.007-.026-.014-.05-.014-.098-.027-.14-.049a1.058 1.058 0 01-.159-.076 1.312 1.312 0 01-.276-.187c-.007 0-.014-.006-.014-.006-.048-.042-.09-.077-.131-.119a1.96 1.96 0 01-.118-.13l-.104-.146-.083-.152c-.007-.007-.013-.02-.02-.035-.021-.04-.034-.083-.056-.125a.95.95 0 01-.056-.166c-.012-.055-.027-.11-.034-.166-.008-.013-.008-.02-.008-.034-.005 0-.012-.007-.02-.007-.042-.02-.075-.035-.11-.055-.215-.112-.257-.159-.423-.305a.99.99 0 01-.13-.11 1.592 1.592 0 01-.118-.112 1.382 1.382 0 01-.09-.124c-.027-.042-.056-.083-.076-.125v-.006c-.021-.04-.034-.083-.048-.124a.593.593 0 01-.028-.132c-.008-.028-.008-.063-.008-.09 0-.049.008-.09.014-.139.006-.04.006-.124.021-.186 0-.007.008-.014.008-.02a1.357 1.357 0 01.095-.348c.022-.06.049-.117.078-.179.026-.056.061-.11.095-.159.029-.056.07-.104.104-.16.035-.047.076-.089.118-.138.041-.04.09-.09.138-.124.042-.042.09-.083.138-.118.05-.035.104-.062.153-.097.056-.027.11-.055.167-.076.054-.02.11-.04.165-.062l.172-.042c.056-.007.12-.02.173-.02.257-.022.554-.139.845-.2.152-.049.306-.105.45-.167a4.068 4.068 0 00.851-.471 4.04 4.04 0 00.389-.304c.123-.104.241-.222.351-.34l.021-.02c.055-.055.104-.11.16-.166.006-.014.02-.02.027-.034.041-.042.084-.083.117-.125.014-.014.036-.028.05-.04.034-.043.069-.078.104-.113.005 0 .005-.007.012-.013.043-.04.084-.083.126-.118.006-.006.006-.014.013-.014.041-.04.083-.076.124-.118.008-.006.022-.013.029-.027.034-.028.07-.062.104-.09.014-.008.027-.02.041-.028l.103-.083.014-.014a1.57 1.57 0 01.133-.096c.006-.007.013-.007.02-.014.04-.035.09-.063.139-.097.048-.035.104-.069.165-.104.056-.034.117-.07.18-.104.014-.007.041-.02.063-.034.04-.02.09-.049.137-.069.063-.035.14-.076.216-.112.012-.006.026-.013.048-.02.061-.034.124-.063.193-.097.008-.007.02-.007.034-.013l.23-.105c.095-.04.194-.09.298-.13.102-.029.207-.056.31-.084.2-.049.409-.096.623-.138.105-.02.207-.042.311-.056a13.653 13.653 0 012.172-.187c.416 0 .825.021 1.24.063.014 0 .02.007.035.007.422.041.844.103 1.26.186l.434.105c.27.061.534.131.803.207l1.593.616c-.015-.028-.035-.063-.05-.097-.02-.055-.034-.11-.056-.167-.012-.054-.026-.11-.034-.166a.76.76 0 01-.02-.173c-.006-.04-.006-.083-.006-.124 0-.055.006-.118.006-.172.007-.029.007-.056.014-.084.006-.028.006-.062.014-.09.014-.055.026-.11.049-.173.012-.055.034-.104.053-.159.03-.055.05-.104.078-.16a2.25 2.25 0 01.096-.144c.029-.049.07-.098.104-.139a1.04 1.04 0 01.125-.132 1 1 0 01.131-.11c.041-.042.09-.069.137-.103.154-.105.32-.188.465-.298.049-.035.09-.076.131-.112v-.006c.05-.035.084-.083.125-.124.035-.042.069-.09.104-.139l.041-.063c.021-.027.035-.054.055-.083.029-.054.049-.103.076-.159.021-.055.041-.11.056-.166.021-.055.034-.11.049-.166.006-.055.006-.124.014-.18.006-.083-.014-.04.012-.2m-3.322-2.03c.25 0 .52.055.816.235.313.221.706.54.686 1.017-.27.547-1.73.81-1.468 2.56a.843.843 0 01-.082-.152 1.48 1.48 0 01-.098-1.363c.133-.359.32-.436.293-1.045a.748.748 0 00-.014-.124c-.009-.049-.023-.083-.029-.132a1.526 1.526 0 00-.643-.899 1.68 1.68 0 01.54-.097"/></g></svg>