<?xml version="1.0" encoding="utf-8"?>
<!-- Generator: Adobe Illustrator 24.3.0, SVG Export Plug-In . SVG Version: 6.00 Build 0)  -->
<svg version="1.1" id="Layer_1" xmlns="http://www.w3.org/2000/svg" xmlns:xlink="http://www.w3.org/1999/xlink" x="0px" y="0px"
	 viewBox="0 0 50 50" style="enable-background:new 0 0 50 50;" xml:space="preserve">
<style type="text/css">
	.st0{fill:#AFE55D;}
	.st1{fill:#C3FF68;}
	.st2{fill:#444444;}
</style>
<path class="st0" d="M45.1,22.7v2.5l0.8,0.2v7.8l-27.5,10L4,39.5V25.3l4.9-1.3L4,22.7V8.6l21-5.2l7.4,1.8v0l10.4-2.6l2.4,0.7v5.1
	l0.8,0.2v13.8L45.1,22.7z"/>
<path class="st1" d="M45.5,8.6L5.6,23.1L4,22.7V8.6l21-5.2l7.4,1.8v0l10.4-2.6l2.4,0.7v5.1L45.5,8.6z"/>
<path class="st2" d="M46.4,6.5v-4l-5.7-1.5L30.3,3.5L25,2.1L2.8,7.6v32.9l13.5,3.4v4.3l3.7,0.9l9.9-2.4c0.7-0.2,1.1-0.8,0.9-1.5
	s-0.8-1.1-1.5-0.9l0,0l-9.1,2.2V9.8l23-5.7l0.8,0.2v3.6l-0.6-0.2c0,0-0.1,0-0.1,0l-9.7,2.5c-0.1,0-0.1,0-0.2,0.1
	c0,0-0.1,0.1-0.1,0.1c0,0,0,0.1,0,0.1l-0.7-0.2c0,0-0.1,0-0.1,0l-10,2.5c-0.1,0-0.1,0.1-0.2,0.1c0,0.1,0,0.2,0,0.2v14
	c0,0.1,0,0.1,0.1,0.2c0,0,0.1,0.1,0.1,0.1l2,0.5c0,0,0.1,0,0.1,0l10.2-2.4c0,0,0,0,0.1,0c0,0,0.1,0,0.1-0.1c0,0,0-0.1,0-0.1
	c0,0,0,0,0-0.1v-0.3l0.4,0.1c0,0,0.1,0,0.1,0l8.5-2.1v1.4l-0.6-0.2c0,0-0.1,0-0.1,0l-9.8,2.4c0,0-0.2,0.1-0.2,0.2s0,0.2,0,0.2
	l-0.5-0.1c0,0-0.1,0-0.1,0l-10.1,2.4c-0.1,0-0.1,0.1-0.2,0.2c0,0.1,0,0.2,0,0.2v14.1c0,0,0,0,0,0.1c0,0,0,0.1,0,0.1s0,0,0.1,0.1
	c0,0,0,0,0.1,0l2,0.5c0,0,0.1,0,0.1,0l10.2-2.5c0.1,0,0.1-0.1,0.2-0.1c0-0.1,0-0.2,0-0.2l0.4,0.1c0,0,0,0,0.1,0c0.1,0,0.1,0,0.2-0.1
	c0,0,0.1-0.1,0.1-0.2V27.9l9-2.2v7.4c0,0.7,0.6,1.2,1.2,1.2s1.2-0.6,1.2-1.2V6.6C47.2,6.6,46.4,6.5,46.4,6.5z M35.4,10.7l-1-0.2
	l8.8-2.2l1.2,0.3C44.4,8.6,35.4,10.7,35.4,10.7z M32.4,10.9l1.2,0.3l-9.1,2.2l-1-0.2C23.4,13.1,32.4,10.9,32.4,10.9z M22.7,13.5
	l1.5,0.4v13.7l-1.5-0.4V13.5z M24.7,13.8l9.7-2.3v13.7l-9.7,2.3C24.7,27.6,24.7,13.8,24.7,13.8z M10.7,24.7l7.5,1.9v2.3l-11.9-3
	C6.3,25.9,10.7,24.7,10.7,24.7z M18.2,26.1l-6.5-1.6l-1.9-0.5l-4.5-1.2V9.6l13,3.2V26.1z M5.3,38.5V26.2l0,0l12.9,3.2v12.4L5.3,38.5
	z M18.2,8.5v3.8l-12-3L25,4.7l4.2,1.1L18.2,8.5z M19.6,9.4v37l-0.9-0.2V42l0,0V8.9l11.5-2.8l0,0l10.4-2.6l1.5,0.4L19.6,9.4z
	 M34.9,11.2C34.9,11.2,34.9,11.2,34.9,11.2C34.9,11.2,34.8,11.1,34.9,11.2L34.9,11.2l0.3,0v13.6l-0.3-0.1L34.9,11.2
	C34.9,11.2,34.9,11.2,34.9,11.2z M35.6,24.8V11.2l9-2.2v13.5l-0.8,0.2v0L35.6,24.8z M44.3,25.2l-9,2.2l-1.1-0.3l8.9-2.2l0.7,0.2v0
	C43.9,25.1,44.3,25.2,44.3,25.2z M32.5,27.6l1.1,0.3l-9.2,2.2l-1-0.3C23.4,29.8,32.5,27.6,32.5,27.6z M22.7,30.2l1.5,0.4v13.7
	l-1.5-0.4V30.2z M24.7,30.6l9.7-2.3v13.7l-9.7,2.3C24.7,44.3,24.7,30.6,24.7,30.6z M34.9,27.8C34.9,27.8,34.8,27.8,34.9,27.8
	L34.9,27.8l0.3,0v13.8l-0.3-0.1L34.9,27.8C34.9,27.9,34.9,27.9,34.9,27.8z"/>
</svg>
