<svg xmlns="http://www.w3.org/2000/svg" id="Camada_1" x="0" y="0" version="1.1" viewBox="0 0 300 300" xml:space="preserve"><style></style><path id="Camada_6" fill="#e56060" d="M255.3 84.8c48 32.1 35 87.4 35 87.4s-3.6 20.1-22.1 51.8c-13.9 24-48 38.9-48 38.9s-50.4 15.8-73 0c-16-11.3-31.7-14.9-31.7-14.9s-25.4-12-39.4-59.5S87.1 75.7 136 61.3C185 47 230.8 71 230.8 71l24.5 13.8zM192.6 100h-72.4"/><path id="Camada_10_00000043440236814045651880000003122256126959337099_" fill="#008dd3" d="M288.8 147.3c.1 20.8-4.3 40.5-12.2 58.5-22.1 50-72 84.8-130.1 85-15.4.1-30.3-2.4-44.3-6.8-26.3-8.4-49.1-24.2-66.2-45-17.8-21.4-29.5-48.3-32.3-77.7-.4-4.2-.6-8.6-.6-12.9C2.8 100 26.8 56.9 63.8 31c4.8-3.5 9.9-6.5 15.1-9.2 7.3-4 15.1-7.1 23.1-9.9 7.6-2.4 15.4-4.2 23.5-5.5 6.5-.8 13.1-1.4 19.8-1.5 26.2-.1 50.9 6.9 72.2 19.2 3.9 2.2 7.5 4.5 11 7.1 17 12.1 31.3 27.8 41.7 46.1 1.2 2.1 2.3 4.1 3.4 6.3.8 1.9 1.8 3.7 2.6 5.6 2.7 6.1 5 12.3 6.9 18.7 2.1 7.1 3.7 14.6 4.5 22 .8 5.8 1.2 11.5 1.2 17.4z"/><path fill="#fff" d="M108.3 26.3c-10.4 0-18.9 8.4-18.9 18.9v199.5H72.7v16.8h201.5c9.3 0 16.8-7.5 16.8-16.8V45.2c0-10.4-8.4-18.9-18.9-18.9H108.3z"/><path fill="#1a00d6" d="M106.3 51.5h167.9v16.8H106.3z"/><path fill="#f14e70" d="M207 93.5h67.2v75.6H207z"/><path fill="#c4cbcc" d="M106.3 93.5h84v8.4h-84zm0 33.6h84v8.4h-84zm0 33.6h84v8.4h-84zm0-50.4h84v8.4h-84zm0 33.6h84v8.4h-84zm0 50.3h167.9v8.4H106.3zm0 33.6h167.9v8.4H106.3zm0-50.3h167.9v8.4H106.3zm0 33.5h167.9v8.4H106.3z"/><path fill="#ffd200" d="M106.3 76.7h167.9v8.4H106.3z"/><path fill="#515759" d="M55.9 144.9v99.3c0 9 6.9 16.8 16 17.2 9.6.5 17.6-7.2 17.6-16.8V127.1H73.7c-9.8 0-17.8 7.9-17.8 17.8z"/></svg>