<svg xmlns="http://www.w3.org/2000/svg" id="Layer_1" x="0" y="0" version="1.1" viewBox="0 0 50 50" xml:space="preserve"><style>.st2{fill:#444}</style><path fill="#e589ef" d="M47.5 26.2l.4 4.3L1.8 47.3l.2-9.1.3-5.2 45.9-16.7-.7 3.7z"/><path fill="#f799ff" d="M47.7 9.6l-.6 7.7L2 33.7v-9.8l.4-4.4L47.8 3z"/><path d="M32.7 49.1H1.9c-.7 0-1.2-.6-1.2-1.2V2.1c0-.7.6-1.2 1.2-1.2h46c.7 0 1.2.6 1.2 1.2v35.4c0 .7-.6 1.2-1.2 1.2s-1.2-.6-1.2-1.2V3.4H3.2v43.2h29.6c.7 0 1.2.6 1.2 1.2s-.6 1.3-1.3 1.3z" class="st2"/><path d="M36.6 24l-1.4.7v-11c-.2-.3-.5-.7-1-.7H11.9c-.5 0-.9.5-.9 1v16.7c0 .5.4.9.9.9h10.3v1.3c0 1 .7 1.9 1.7 2.1l-.8 4.5c-.1.6.3 1.1.9 1.1h3.7c.4 0 .8-.3.9-.8l.8-4.7 7.1 3.5c.6.3 1.3-.1 1.3-.8v-13c.1-.6-.6-1.1-1.2-.8zm-5.5-9.1L23 20.3l-8.1-5.4h16.2zm-18.3.8l9.7 6.5c.3.2.7.2 1 0l9.8-6.5v10l-4 2h-5c-1.2 0-2.1.9-2.2 2.1h-9.3V15.7zm11.5 17.5c-.2 0-.3-.1-.3-.3v-3.1c0-.2.1-.3.3-.3h4.3v3.7h-4.3zm.8 5.6l.6-3.7h1.9l-.7 3.7h-1.8zm11-2.4l-5.6-2.8v-4.4l5.6-2.8v10zm5-7.9l1-.4c.5-.2.7-.8.5-1.2-.2-.5-.8-.7-1.2-.5l-1 .4c-.5.2-.7.8-.5 1.2.2.5.7.7 1.2.5zm1 6.1l-1-.4c-.5-.2-1 0-1.2.5-.2.5 0 1 .5 1.2l1 .4c.5.2 1 0 1.2-.5.2-.4 0-.9-.5-1.2zm-.4-4.2h-1c-.5 0-.9.4-.9.9s.4.9.9.9h1c.5 0 .9-.4.9-.9s-.4-.9-.9-.9z" class="st2"/></svg>