<?xml version="1.0" encoding="utf-8"?>
<!-- Generator: Adobe Illustrator 26.5.0, SVG Export Plug-In . SVG Version: 6.00 Build 0)  -->
<svg version="1.1" id="Camada_1" xmlns="http://www.w3.org/2000/svg" xmlns:xlink="http://www.w3.org/1999/xlink" x="0px" y="0px"
	 viewBox="0 0 50 50" style="enable-background:new 0 0 50 50;" xml:space="preserve">
<style type="text/css">
	.st0{fill:#00C8E2;}
	.st1{fill:#00DFFC;}
	.st2{fill:none;stroke:#494949;stroke-width:2.5;stroke-linecap:round;stroke-linejoin:round;stroke-miterlimit:10;}
</style>
<g>
	<polygon class="st0" points="42.6,7.1 42.6,7.1 42.6,7.1 	"/>
	<path class="st0" d="M48.1,22.8L1.9,39.6h0l-0.1,0L1.2,28.5l0-0.9l0-4.8v-0.8l0,0l0.7-0.2l3.4-1.2l16.3-5.9l17.7-6.4
		c1.1,0.4,1.8,1.4,1.8,2.6v9.5h3.5C46.5,20.4,47.9,21.4,48.1,22.8z"/>
	<path class="st1" d="M38.7,7.6c-1.3-0.2-2.5-0.4-3.8-0.7C25.7,7.1,16.5,7.3,7.3,7.6c-0.8,1-1.7,2-2.5,3c-0.8,0.8-1.6,1.6-2.5,2.3
		c-0.3,3.1-0.7,6.1-1,9.2c0,0.3,0,0.5,0,0.8l-0.3,4.9l0.3-0.1l0.7-0.2l3.4-1.2l1-0.4l15-5.4l19.8-7.1v-2.5c0-1.2-0.8-2.2-1.8-2.6
		C39.1,8,38.9,7.8,38.7,7.6z"/>
	<g id="file">
		<g>
			<path class="st2" d="M4.8,11.6c-1.6,0-2.9,1.3-2.9,2.9v25.3"/>
			<path class="st2" d="M41.1,20.4v-7.1v-2.5c0-1.2-0.8-2.2-1.8-2.6c-0.3-0.1-0.6-0.1-0.9-0.1H8c-1.5,0-2.7,1.2-2.7,2.7v9.7v5.5v2.5
				"/>
			<path class="st2" d="M48,24.2l-4.8,14.7c-0.7,2.1-3.2,3.8-5.7,3.8h-32c-2.1,0-3.5-1.2-3.5-2.9c0,0,0-0.1,0-0.1
				c0-0.2,0.1-0.5,0.1-0.8l4.3-13.1l0.5-1.6c0.6-2.1,3.2-3.8,5.7-3.8h32c2,0,3.3,1,3.5,2.5C48.1,23.2,48.1,23.7,48,24.2z"/>
			<line class="st2" x1="12.1" y1="14.7" x2="35" y2="14.7"/>
		</g>
	</g>
</g>
</svg>
