<svg xmlns="http://www.w3.org/2000/svg" id="Camada_1" data-name="Camada 1" version="1.1" viewBox="0 0 50 50"><defs><style>.cls-4,.cls-5,.cls-8{fill:none;stroke:#444}.cls-4,.cls-5{stroke-linecap:round;stroke-linejoin:round}.cls-4,.cls-8{stroke-width:.5px}.cls-8{stroke-miterlimit:10}</style></defs><path fill="#04ad49" stroke-width="0" d="M23.9 27.2l7.8 2.4-6.7 4.8.1 8.2-6.5-4.9-7.8 2.6 2.6-7.8-4.9-6.6 8.2.1 4.8-6.7 2.4 7.9z"/><path fill="#22dd6d" stroke-width="0" d="M37.7 11.5h-9.8l-.8.6-.7 6.8c-3 0-15.7-.2-20.4 0l-1 .7-.2 21.8-2.2.3c-.5.2-1 2.9.9 3l20.6-.2 12-4.3c.4-.1 0-6.4 0-8.2s1.7-.8 2.2-1 0-6.5.1-6.6l7-.2c.5 0 2.4-1.2 2.5-1.7l-.2-4.6-1.8-1.4-7.5-.4c.7-.4.3-2.7-.7-4.6z"/><path d="M38.4 16.3v-3.4c0-.8-.7-1.5-1.5-1.5h-8.6c-.8 0-1.5.7-1.5 1.5v17.2c0 .8.7 1.5 1.5 1.5H37c.8 0 1.5-.7 1.5-1.5v-5.7" class="cls-5"/><path d="M31 11.4h2.7c.7 0 1.2.6 1.2 1.2v.2c0 .2-.1.3-.3.3H30c-.2 0-.3-.1-.3-.3v-.2c0-.7.6-1.2 1.2-1.2z" class="cls-8" transform="rotate(-180 32.4 12.3)"/><circle cx="32.7" cy="29.5" r="1" class="cls-8"/><path fill="#444" stroke-width="0" d="M3.3 42h33.5s.5 0 .5-.4-.5-.4-.5-.4h-.3v-8.9c0-.2-.2-.4-.4-.4s-.4.2-.4.4v8.9H5.3V20.5c0-.6.5-1.1 1.1-1.1h20.1c.2 0 .4-.2.4-.4s-.2-.4-.4-.4H6.3c-1.1 0-1.9.9-1.9 1.9v20.7"/><path d="M12.4 21.8c-2.4 0-4.3 1.9-4.3 4.3s1.9 4.3 4.3 4.3 4.3-1.9 4.3-4.3" class="cls-5"/><circle cx="16.2" cy="34" r="1" class="cls-5"/><circle cx="19.4" cy="34" r="1" class="cls-5"/><circle cx="22.4" cy="34" r="1" class="cls-5"/><circle cx="25.6" cy="34" r="1" class="cls-5"/><circle cx="32.1" cy="20.3" r="1.3" class="cls-4"/><circle cx="36.1" cy="20.3" r="1.3" class="cls-4"/><circle cx="40" cy="20.3" r="1.3" class="cls-4"/><circle cx="44.1" cy="20.3" r="1.3" class="cls-4"/><path d="M14.1 36.9h13.3" class="cls-4"/><path fill="none" stroke="#444" stroke-miterlimit="10" d="M44.5 16.4h-13c-1.7 0-3.2 1.4-3.2 3.2v1.6c0 1.7 1.4 3.1 3.1 3.2v1.8c0 .2.1.4.3.5h.2c.1 0 .2 0 .3-.1l3-2.3h9.3c1.7 0 3.2-1.4 3.2-3.2v-1.6c0-1.7-1.4-3.2-3.2-3.2z"/><path d="M10.3 25.8l1.9 1.9 5.3-5.7" class="cls-4"/><path fill="none" stroke="#444" stroke-linecap="round" stroke-linejoin="round" stroke-width="2.5" d="M31.7 45.1H3.3c-.4 0-.7-.2-.9-.5l-.5-1c-.7-1.2.1-2.8 1.6-2.8h.4V20.7c0-1.5 1.2-2.8 2.8-2.8H25c.4 0 .7-.3.7-.7v-4.5c0-1.2 1-2.3 2.3-2.3h9c1.2 0 2.3 1 2.3 2.3v2.8h6.4c1.7 0 3.1 1.4 3.1 3.1v3.5c0 1.7-1.4 3.1-3.1 3.1h-6.4v6.9c0 .4-.3.7-.7.7h-1.4c-.4 0-.7.3-.7.7v7.3"/></svg>