<?xml version="1.0" encoding="utf-8"?>
<!-- Generator: Adobe Illustrator 28.3.0, SVG Export Plug-In . SVG Version: 6.00 Build 0)  -->
<svg version="1.1" id="Layer_1" xmlns="http://www.w3.org/2000/svg" xmlns:xlink="http://www.w3.org/1999/xlink" x="0px" y="0px"
	 viewBox="0 0 50 50" style="enable-background:new 0 0 50 50;" xml:space="preserve">
<style type="text/css">
	.st0{fill:#7DF4EB;}
	.st1{fill-rule:evenodd;clip-rule:evenodd;fill:none;stroke:#444444;stroke-linecap:round;stroke-linejoin:round;}
	.st2{fill-rule:evenodd;clip-rule:evenodd;fill:none;stroke:#444444;stroke-width:2.5;stroke-linecap:round;stroke-linejoin:round;}
	.st3{fill:none;stroke:#444444;stroke-linecap:round;stroke-linejoin:round;stroke-miterlimit:10;}
	.st4{fill:none;stroke:#444444;stroke-width:0.5;stroke-linecap:round;stroke-linejoin:round;stroke-miterlimit:10;}
	.st5{fill:none;stroke:#444444;stroke-linejoin:round;stroke-miterlimit:10;}
</style>
<g>
	<g>
		<g>
			<path class="st0" d="M38.2,3.4L14.8,2.7c-1.5,0-0.6,10.3-0.6,11.9H6.4l-0.7,25L2,40.4c-0.8,0.2,0.7,4.5,1.4,4.9l0,0
				c7.8,2.4,10-0.4,28.1,0.8l17-5.8l0.4-22.7l-1.1-2.9l-8.4-1.1C39.4,12,39.8,3.4,38.2,3.4z"/>
			<g>
				<path class="st1" d="M45.1,13.8c1.9,0,3.4,1.5,3.4,3.4V40"/>
				<path class="st1" d="M5.3,40l0-22.8c0-1.9,1.5-3.4,3.4-3.4l0,0"/>
				<path class="st1" d="M48.5,40.8h-17l-0.2,0.7c0,0.3-0.2,0.5-0.6,0.5h-7.7c-0.3,0-0.6-0.2-0.6-0.5v-0.6H1.2c0,2.8,2.8,5,6.2,5
					h36.2"/>
			</g>
			<path class="st2" d="M48.5,40l0-22.8c0-1.9-1.5-3.4-3.4-3.4h-6.3l0-9.7c0-0.9-0.7-1.6-1.6-1.6L15.4,2.6c-0.9,0-1.6,0.7-1.6,1.6
				l0.1,9.6H8.7c-1.9,0-3.4,1.5-3.4,3.4l0,22.8H1.2c0,3.3,2.8,5.9,6.2,5.9h36.2"/>
		</g>
		<g>
			<path class="st3" d="M24,24.1h-7.4c-1.1,0-1.9-0.9-1.9-1.9V4.9c0-1.1,0.9-1.9,1.9-1.9h19.3c1.1,0,1.9,0.9,1.9,1.9v17.2
				c0,1.1-0.9,1.9-1.9,1.9h-7"/>
			<line class="st4" x1="17.2" y1="6.5" x2="23.4" y2="6.5"/>
			<line class="st4" x1="17.3" y1="9.5" x2="35.2" y2="9.5"/>
			<line class="st4" x1="17.3" y1="11.9" x2="35.2" y2="11.9"/>
			<line class="st4" x1="17.3" y1="14.2" x2="35.2" y2="14.2"/>
			<line class="st4" x1="17.3" y1="16.6" x2="35.2" y2="16.6"/>
			<line class="st4" x1="17.3" y1="18.5" x2="35.2" y2="18.5"/>
			<line class="st4" x1="17.3" y1="20.9" x2="35.2" y2="20.9"/>
			<line class="st5" x1="26.2" y1="20.9" x2="26.2" y2="27.6"/>
			<line class="st3" x1="9.5" y1="29.8" x2="23.5" y2="29.8"/>
			<line class="st3" x1="28.6" y1="29.8" x2="42.7" y2="29.8"/>
			<circle class="st5" cx="26.2" cy="29.6" r="2.3"/>
		</g>
	</g>
	<line class="st4" x1="9.5" y1="33.9" x2="43.6" y2="33.9"/>
	<line class="st4" x1="9.5" y1="35.9" x2="43.6" y2="35.9"/>
	<line class="st4" x1="9.5" y1="37.9" x2="43.6" y2="37.9"/>
</g>
</svg>
