<svg xmlns="http://www.w3.org/2000/svg" id="Layer_1" x="0" y="0" version="1.1" viewBox="0 0 50 50" xml:space="preserve"><style>.st3,.st4{stroke-linecap:round}.st3{fill:none;stroke:#444;stroke-linejoin:round;stroke-miterlimit:10}.st4{stroke-width:.5}.st4,.st5{fill:none;stroke:#444;stroke-linejoin:round;stroke-miterlimit:10}</style><path fill="#7df4eb" d="M38.2 3.4l-23.4-.7c-1.5 0-.6 10.3-.6 11.9H6.4l-.7 25-3.7.8c-.8.2.7 4.5 1.4 4.9 7.8 2.4 10-.4 28.1.8l17-5.8.4-22.7-1.1-2.9-8.4-1.1c0-1.6.4-10.2-1.2-10.2z"/><path fill="none" fill-rule="evenodd" stroke="#444" stroke-linecap="round" stroke-linejoin="round" d="M45.1 13.8c1.9 0 3.4 1.5 3.4 3.4V40M5.3 40V17.2c0-1.9 1.5-3.4 3.4-3.4m39.8 27h-17l-.2.7c0 .3-.2.5-.6.5H23c-.3 0-.6-.2-.6-.5v-.6H1.2c0 2.8 2.8 5 6.2 5h36.2" clip-rule="evenodd"/><path fill="none" fill-rule="evenodd" stroke="#444" stroke-linecap="round" stroke-linejoin="round" stroke-width="2.5" d="M48.5 40V17.2c0-1.9-1.5-3.4-3.4-3.4h-6.3V4.1c0-.9-.7-1.6-1.6-1.6l-21.8.1c-.9 0-1.6.7-1.6 1.6l.1 9.6H8.7c-1.9 0-3.4 1.5-3.4 3.4V40H1.2c0 3.3 2.8 5.9 6.2 5.9h36.2" clip-rule="evenodd"/><path d="M24 24.1h-7.4c-1.1 0-1.9-.9-1.9-1.9V4.9c0-1.1.9-1.9 1.9-1.9h19.3c1.1 0 1.9.9 1.9 1.9v17.2c0 1.1-.9 1.9-1.9 1.9h-7" class="st3"/><path d="M17.2 6.5h6.2m-6.1 3h17.9m-17.9 2.4h17.9m-17.9 2.3h17.9m-17.9 2.4h17.9m-17.9 1.9h17.9m-17.9 2.4h17.9" class="st4"/><path d="M26.2 20.9v6.7" class="st5"/><path d="M9.5 29.8h14m5.1 0h14.1" class="st3"/><circle cx="26.2" cy="29.6" r="2.3" class="st5"/><path d="M9.5 33.9h34.1m-34.1 2h34.1m-34.1 2h34.1" class="st4"/></svg>