<?xml version="1.0" encoding="utf-8"?>
<!-- Generator: Adobe Illustrator 26.0.3, SVG Export Plug-In . SVG Version: 6.00 Build 0)  -->
<svg version="1.1" id="Camada_1" xmlns="http://www.w3.org/2000/svg" xmlns:xlink="http://www.w3.org/1999/xlink" x="0px" y="0px"
	 viewBox="0 0 50 50" style="enable-background:new 0 0 50 50;" xml:space="preserve">
<style type="text/css">
	.st0{fill:#E589EF;}
	.st1{fill:#494949;}
	.st2{fill:#F799FF;}
	.st3{fill:none;stroke:#494949;stroke-width:2.5;stroke-linecap:round;stroke-linejoin:round;stroke-miterlimit:10;}
	.st4{fill:none;stroke:#494949;stroke-linecap:round;stroke-linejoin:round;stroke-miterlimit:10;}
	.st5{fill:#444444;}
</style>
<g>
	<g>
		<path class="st0" d="M46.9,8.8V17L40,19.5l-0.7,0.2l-2.1,0.8l-2.6,0.9L34,21.6l-2.4,0.9l-0.9,0.3l-0.9,0.3l-3.5,1.3l-3,1.1l-2.3,1
			l-2.5,0.9L14,29.1l-1.4,0.5l-0.9,0.3l-1.5,0.5L3.1,33V18.7L34.7,7.2h10.5C46.2,7.2,46.9,7.9,46.9,8.8z"/>
	</g>
	<g>
		<path class="st1" d="M10.2,24.5v3.7l-2.1-3.7H6.7v6h1.4v-3.7l2.1,3.7l0,0h1.4v-6H10.2z"/>
		<path class="st1" d="M16.7,25.6v-1.1h-4.1v6h4.1v-1.1H14V28h2.3v-1.1H14v-1.2L16.7,25.6L16.7,25.6z"/>
		<path class="st1" d="M20.4,27.5l0.5-1l1.1-2h-1.6l-1,2l-1-2h-1.6l1.6,2.9v0.1l-1.7,3h1.7l1-2l1,2H22L20.4,27.5z"/>
		<path class="st1" d="M22.3,24.5v1.1h1.8v4.9h1.4v-4.9h1.8v-1.1H22.3z"/>
		<path class="st1" d="M30.8,26.6v2.7c0,0.2-0.2,0.4-0.4,0.4c-0.2,0-0.4-0.2-0.4-0.4h-1c0,0.2,0,0.4,0.2,0.7
			c0.4,0.6,1.4,0.8,2.1,0.3c0.5-0.4,0.5-1.1,0.5-1.2v-2.7h-1C30.8,26.4,30.8,26.6,30.8,26.6z"/>
		<path class="st1" d="M34.7,28.5c-0.2-0.1-0.4-0.2-0.7-0.3c-0.3-0.1-0.5-0.2-0.6-0.2c-0.1-0.1-0.2-0.2-0.2-0.3c0-0.1,0-0.2,0.1-0.3
			c0.1-0.1,0.2-0.1,0.4-0.1s0.3,0,0.4,0.1c0.1,0.1,0.1,0.2,0.1,0.4h0.9c0-0.2-0.1-0.5-0.2-0.6c-0.1-0.1-0.3-0.3-0.5-0.4
			c-0.1,0-0.9-0.4-1.6,0c-0.1,0.1-0.7,0.4-0.7,1c0,0.5,0.5,0.9,0.8,1c0,0,0.2,0.1,0.6,0.2c0.4,0.1,0.5,0.2,0.6,0.3
			c0.1,0.2-0.1,0.3-0.1,0.3c-0.2,0.2-0.6,0.2-0.9,0.1C33,29.6,33,29.6,33,29.5s-0.1-0.2-0.1-0.3H32c0,0.1,0,0.2,0,0.2s0,0.2,0.2,0.5
			s0.5,0.6,1.1,0.7s1-0.1,1.2-0.2s0.4-0.2,0.6-0.5c0,0,0.3-0.6,0.1-1C35,28.7,34.8,28.6,34.7,28.5z"/>
		<circle class="st1" cx="27.4" cy="30" r="0.5"/>
	</g>
	<g>
		<path class="st2" d="M36.2,7.2L3.1,19.3V8.8c0-0.9,0.7-1.6,1.6-1.6C4.7,7.2,36.2,7.2,36.2,7.2z"/>
	</g>
	<g>
		<path class="st3" d="M46.9,8.8v26.8c0,0.9-0.7,1.6-1.6,1.6H4.7c-0.9,0-1.6-0.7-1.6-1.6V8.8c0-0.9,0.7-1.6,1.6-1.6h40.5
			C46.2,7.2,46.9,7.9,46.9,8.8z"/>
		<line class="st4" x1="3.1" y1="33.1" x2="46.9" y2="33.1"/>
		<line class="st3" x1="34.7" y1="42.8" x2="15.3" y2="42.8"/>
		<line class="st3" x1="28.2" y1="37.2" x2="30.7" y2="42.8"/>
		<line class="st3" x1="21.8" y1="37.2" x2="19.3" y2="42.8"/>
	</g>
	<path class="st5" d="M39.5,21.3c-2.1,0-3.8-1.7-3.8-3.8c0-0.4,0-0.7,0.1-1c0.4-1.7,2-2.8,3.7-2.8c0.8,0,1.6,0.3,2.1,0.7
		c1,0.7,1.7,1.8,1.7,3.2C43.5,19.6,41.8,21.3,39.5,21.3z M44.1,17.5c0-1.1-0.4-2.2-1.1-3c-0.8-1-2.1-1.6-3.5-1.6
		c-0.9,0-1.8,0.3-2.5,0.7c-0.1-0.3-0.3-0.7-0.5-1l0.4-0.7l-1.6-1.6l-0.7,0.4c-0.5-0.3-1-0.5-1.6-0.7l-0.3-0.8h-2.3L30.2,10
		c-0.6,0.1-1.1,0.4-1.6,0.7l-0.7-0.4l-1.6,1.6l0.4,0.7c-0.3,0.5-0.5,1-0.7,1.6l-0.8,0.3v2.3l0.8,0.3c0.1,0.6,0.4,1.1,0.7,1.6
		l-0.4,0.7l1.6,1.6l0.7-0.4c0.5,0.3,1,0.5,1.6,0.7l0.3,0.8h2.3l0.3-0.8c0.6-0.1,1.1-0.4,1.6-0.7l0.7,0.4l0.6-0.6
		c0.5,0.7,1.2,1.2,2,1.4v0.9h-0.6v0.6H38v3.4c0,0.8,0.7,1.5,1.5,1.5s1.5-0.7,1.5-1.5v-3.4h0.6v-0.6H41v-0.9
		C42.8,21.2,44.1,19.5,44.1,17.5z M35.2,20.2l-0.7-0.3L34.4,20c-0.5,0.3-1.1,0.6-1.7,0.7h-0.2l-0.2,0.7h-1.4l-0.2-0.7h-0.2
		c-0.6-0.1-1.2-0.4-1.7-0.7l-0.1-0.1L28,20.2L27.8,20L27,19.3l0.3-0.7l-0.1-0.1c-0.3-0.5-0.6-1.1-0.7-1.7v-0.2l-0.7-0.2V15l0.7-0.2
		v-0.2c0.1-0.6,0.4-1.2,0.7-1.7l0.1-0.1L27,12.1l1-1l0.7,0.3l0.1-0.1c0.5-0.3,1.1-0.6,1.7-0.7h0.2l0.2-0.7h1.4l0.2,0.7h0.2
		c0.6,0.1,1.2,0.4,1.7,0.7l0.1,0.1l0.7-0.3l0.7,0.7l0.2,0.2l0.1,0.1l-0.3,0.7l0.1,0.1c0.2,0.4,0.4,0.8,0.6,1.2
		c-0.2,0.2-0.3,0.3-0.5,0.5c-0.2-0.8-0.7-1.6-1.3-2.2c-0.1-0.1-0.1-0.1-0.2-0.2c-0.8-0.7-1.9-1.1-3-1.1c-2.3,0-4.2,1.7-4.5,3.9
		c0,0.1,0,0.1,0,0.2c0,0.2,0,0.3,0,0.5c0,1.6,0.9,3.1,2.2,3.9c0.7,0.4,1.5,0.7,2.4,0.7c1.4,0,2.6-0.6,3.5-1.6
		c0.1,0.4,0.3,0.9,0.5,1.2L35.2,20.2z M35,17.7c-0.3,0.5-0.7,0.9-1.2,1.2v-0.8c0-0.1,0-0.2,0-0.3c0-0.1,0.1-0.2,0.1-0.2
		c0.2-0.3,0.5-0.4,0.8-0.4H35c0,0.1,0,0.2,0,0.3l0,0C35,17.6,35,17.7,35,17.7z M27.7,15c0-0.1,0-0.2,0-0.2c0-0.2,0.1-0.4,0.2-0.6H28
		c0.3,0,0.5,0.1,0.8,0.2c0.1,0,0.1,0.1,0.2,0.1c0.2,0.1,0.3,0.3,0.4,0.5c0.2,0.4,0.5,0.6,1,0.6c0.2,0,0.4,0.2,0.4,0.4v0.5
		c0,0.5,0.4,0.9,0.9,0.9c0.2,0,0.3,0.1,0.3,0.3c0,0.2-0.1,0.3-0.3,0.3c-0.7,0-1.3,0.5-1.5,1.1v0.1c0,0-0.1,0-0.1-0.1
		c-1.4-0.6-2.3-2-2.3-3.6C27.7,15.4,27.7,15.2,27.7,15z M31.2,18.8L31.2,18.8c0.1-0.1,0.2-0.1,0.3-0.1h0.1c0.3,0,0.5-0.1,0.7-0.3
		c0.2-0.2,0.3-0.4,0.3-0.6c0-0.5-0.4-0.9-0.9-0.9c-0.2,0-0.3-0.1-0.3-0.3v-0.5c0-0.6-0.5-1-1-1c-0.2,0-0.3-0.1-0.4-0.3
		s-0.2-0.4-0.3-0.5c0-0.1-0.1-0.1-0.1-0.2c-0.3-0.3-0.7-0.5-1.2-0.6c0.4-0.6,1-1.1,1.6-1.5l0.3,0.7c0.2,0.4,0.5,0.6,0.9,0.7l0,0
		c0.1,0,0.1,0,0.2,0h0.3l0,0c0.2,0,0.4,0.2,0.5,0.4c0.1,0.5,0.6,0.8,1.1,0.8h0.1c0.2,0,0.4,0.1,0.4,0.3l0.2,0.3
		c0.2,0.4,0.6,0.6,1,0.6h0.4c-0.1,0.2-0.1,0.4-0.2,0.6h-0.3c-0.5,0-1,0.3-1.3,0.7c-0.2,0.2-0.3,0.5-0.3,0.8V18v1.1
		c-0.5,0.2-1,0.3-1.5,0.3c-0.3,0-0.6,0-0.9-0.1C30.8,19.2,30.9,19,31.2,18.8z M35.5,15.4h-0.6c-0.2,0-0.4-0.1-0.4-0.3l-0.2-0.3
		c-0.2-0.4-0.6-0.6-1-0.6h-0.1c-0.2,0-0.4-0.2-0.5-0.4c0-0.2-0.2-0.4-0.3-0.5s-0.1-0.1-0.2-0.1C32,13.1,31.8,13,31.6,13h-0.3
		c-0.2,0-0.4-0.1-0.5-0.3L30.5,12c0.4-0.1,0.7-0.2,1.1-0.2c0.9,0,1.7,0.3,2.3,0.8c0.1,0,0.1,0.1,0.2,0.1
		C34.9,13.3,35.5,14.2,35.5,15.4C35.5,15.3,35.5,15.3,35.5,15.4z M40.5,26.6c0,0.5-0.4,0.9-0.9,0.9s-0.9-0.4-0.9-0.9v-3.4h1.8
		C40.5,23.2,40.5,26.6,40.5,26.6z M40.5,22.7h-1.8V22c0.3,0.1,0.6,0.1,0.9,0.1c0.3,0,0.6,0,0.9-0.1C40.5,22,40.5,22.7,40.5,22.7z"/>
</g>
</svg>
