<svg xmlns="http://www.w3.org/2000/svg" xmlns:xlink="http://www.w3.org/1999/xlink" id="Camada_3" x="0" y="0" version="1.1" viewBox="0 0 50 50" xml:space="preserve"><style>.st2,.st3{fill:none;stroke:#444;stroke-miterlimit:10}.st2{stroke-linecap:round;stroke-linejoin:round;stroke-width:2.5}.st3{stroke-width:.5}.st5{fill:#444}</style><path fill="#f799ff" d="M34 2.7L26.2 2C23 2 11.7 2.3 4.8 12.3l-4 10.8 41-14.4-7.8-6z"/><path fill="#e589ef" d="M.7 22.9l4 13.4c.1.4 4.6 5.6 4.9 5.9l5.6 3 32.2-11.7c.6-.5 1.6-8.7.7-13.5-.2-.8-2.7-7.5-3.2-8.1l-3-3.5L.7 22.9z"/><path d="M36.8 45.3c-7.9 4.5-18.1 4.2-25.8-1.6C.7 36-1.4 21.3 6.4 10.9" class="st2"/><path d="M6.2 11.1c2-3 4.7-4.7 4.7-4.7l.7-.5C19.7.1 30.9 0 39.2 6.3c10.4 7.8 12.4 22.5 4.7 32.8" class="st2"/><path d="M21.5 17.9v.8c0 .4-.1.7-.1 1.1-.2.9-.5 1.7-1 2.4s-1.1 1.4-1.8 1.9c-.1.1-.2.2-.4.3-.3-.4-.6-.9-.9-1.3-.8-1.3-1.7-2.5-2.5-3.8-.4-.6-.8-1.3-1.3-1.9-.4-.5-.7-1.1-1.1-1.6 0-.1-.1-.1-.2-.1h-.5c-.1 0-.2.1-.2.3v5.5c0 .1.1.2.2.3h.4c.1 0 .2-.1.2-.2v-4.1c.8 1.2 1.7 2.5 2.5 3.7.9 1.2 1.8 2.4 2.6 3.7-.8.4-1.6.7-2.5.8h-1.6c-.7-.1-1.5-.3-2.2-.6-.8-.3-1.5-.8-2.1-1.4-.7-.7-1.2-1.5-1.6-2.4-.3-.7-.5-1.3-.5-2.1v-.8c0-.8.1-1.5.4-2.2.3-.9.8-1.8 1.5-2.5.9-1 2-1.7 3.3-2.1 1-.3 2-.3 3-.2.8.1 1.6.4 2.4.8.9.5 1.7 1.2 2.4 2 .5.6.8 1.3 1.1 2.1.1.5.3 1 .3 1.4.2-.1.2 0 .2.2zm-4.6 2.7v-4.9c0-.2-.1-.3-.3-.3h-.2c-.2 0-.3.1-.3.3v3.6c.1.1.2.2.2.4l.6.9z" class="st3"/><defs><path id="SVGID_1_" d="M31.8 15.7h-8.1c-.8 0-1.6.1-2.4.2.2.7.3 1.4.3 2.1 0 4.1-3.4 7.4-7.4 7.4-1.6 0-3.2-.5-4.4-1.5-1.2 2.2-1.9 4.8-1.9 7.5v1c0 8.7 7.1 15.9 15.9 15.9h8.1c8.7 0 15.9-7.1 15.9-15.9v-1c-.1-8.6-7.3-15.7-16-15.7z"/></defs><clipPath id="SVGID_00000067917751022096708040000003839464046000525204_"><use overflow="visible" xlink:href="#SVGID_1_"/></clipPath><g clip-path="url(#SVGID_00000067917751022096708040000003839464046000525204_)"><path d="M36.7 31.1c0 .1.1.1.1.2 1.6 2.6 3.3 5.2 4.9 7.8l.1.1c.2.3 0 .7-.4.7H10.5c-.3 0-.5-.4-.4-.7 0 0 0-.1.1-.1 1.6-2.6 3.3-5.2 4.9-7.8v-.1c0-.1.1-.1 0-.2-.1-.2-.1-.4-.1-.5V18.7c0-.2 0-.3.1-.5.2-.5.7-.9 1.3-.9h19c.2 0 .4 0 .5.1.6.2 1 .7 1 1.3v11.7c-.1.1-.1.4-.2.7zm-10.8-.2h9.6c.2 0 .3-.1.4-.3V18.7c0-.2-.1-.3-.3-.4H16.5c-.2 0-.3.2-.3.3v12c0 .2.2.3.4.3h9.3zm14.5 8c0-.1 0-.1 0 0-1.5-2.4-2.9-4.7-4.4-7H15.7c0 .1-.1.1-.1.2-1.1 1.7-2.2 3.4-3.3 5.2l-.9 1.5-.1.1h9.3l.1-.1c.4-.7.9-1.4 1.3-2.1 0 0 0-.1.1-.1.1-.1.2-.2.4-.2H29c.2 0 .3.1.4.2 0 0 0 .1.1.1.4.7.9 1.4 1.3 2.1l.1.1h9.5c-.1 0 0 0 0 0zm-18.5 0h7.9c-.1-.1-.1-.2-.2-.4-.1-.1-.2-.3-.2-.4-.1-.1-.2-.2-.2-.4-.1-.1-.1-.3-.2-.4h-6c-.4.5-.7 1-1.1 1.6.1-.1.1-.1 0 0z" class="st5"/><path d="M27.5 33.4h7.3c.3 0 .5.2.5.5 0 .2-.2.5-.4.5H20.4c-.3 0-.5-.2-.5-.5s.2-.5.5-.5h7.1zm-9.7 1h-.9c-.2-.1-.3-.3-.3-.5s.2-.4.4-.4h1.6c.2.1.4.3.4.5s-.2.4-.4.4h-.8z" class="st5"/><path d="M17.8 22.1h16.1v4.4H17.8zm-.1 5.7h4.7v2.3h-4.7zm5.7 0h4.7v2.3h-4.7zm5.7 0h4.7v2.3h-4.7z" class="st3"/></g><path d="M11.6 15.7l.1 5.7.8-.1.1-4 5.1 7.2.6-.2-5.9-8.7zm4.4 0l.1 3.6.8 1.3v-5.2l-.5-.1z" class="st5"/></svg>