<?xml version="1.0" encoding="utf-8"?>
<!-- Generator: Adobe Illustrator 26.4.1, SVG Export Plug-In . SVG Version: 6.00 Build 0)  -->
<svg version="1.1" id="Layer_1" xmlns="http://www.w3.org/2000/svg" xmlns:xlink="http://www.w3.org/1999/xlink" x="0px" y="0px"
	 viewBox="0 0 44.4 48.2" style="enable-background:new 0 0 44.4 48.2;" xml:space="preserve">
<style type="text/css">
	.st0{fill:#00C8E2;}
	.st1{fill:#00DFFC;}
	.st2{fill:#444444;}
	.st3{fill:none;stroke:#444444;stroke-width:2;stroke-miterlimit:10;}
	.st4{fill:#444444;stroke:#444444;stroke-width:2;stroke-linejoin:round;}
</style>
<path class="st0" d="M3.3,36.5L9,39.7l34-18.3l-0.1-7.2c0-1.6-0.9-3.1-2.3-3.9L24.3,1.1c-1.4-0.8-3.2-0.8-4.6,0L3.3,10.3
	C1.9,11.1,1,12.6,1,14.2v18.4C1,34.2,1.9,35.7,3.3,36.5z"/>
<path class="st1" d="M30.5,5.7l-6.4-3.9C22.7,1,21,1,19.6,1.8L3.7,11.2c-1.4,0.8-2.3,2.4-2.2,4l-0.3,7.9L30.5,5.7z"/>
<path class="st2" d="M22.2,48.2c-1,0-2-0.3-2.9-0.8L2.9,38.3c-1.8-1-2.9-2.9-2.9-5V14.9c0-2.1,1.1-4,2.9-5l16.3-9.1c1.8-1,4-1,5.9,0
	L41.4,10c1.8,1,2.9,2.9,2.9,5v13.5c0,0.7-0.6,1.2-1.2,1.2c-0.7,0-1.2-0.6-1.2-1.2V14.9c0-1.2-0.7-2.3-1.7-2.9L23.9,2.9
	c-1.1-0.6-2.3-0.6-3.4,0L4.2,12.1c-1,0.6-1.7,1.7-1.7,2.9v18.4c0,1.2,0.6,2.3,1.7,2.9l16.3,9.2c1,0.6,2.3,0.6,3.4,0l4.5-2.5
	c0.6-0.3,1.3-0.1,1.7,0.4c0.3,0.6,0.1,1.3-0.4,1.7l0,0l-4.5,2.5C24.2,48,23.2,48.2,22.2,48.2z"/>
<path class="st3" d="M22.2,12.7c6.3,0,11.4,5.1,11.4,11.4"/>
<path class="st3" d="M10.8,24.1c0-6.3,5.1-11.4,11.4-11.4l0,0"/>
<path class="st1" d="M17.1,11.9c-0.5,0.5-0.5,1.3,0,1.8l2.2,2.2c1-0.4,2-0.6,3.1-0.6v-5.1c-1.5,0-3,0.2-4.4,0.7L17.1,11.9z"/>
<path class="st0" d="M17.1,13.7l2.2,2.2c1-0.4,2-0.6,3.1-0.6v-5.1"/>
<path class="st3" d="M22.2,35.5c-6.3,0-11.4-5.1-11.4-11.4"/>
<g>
	<path class="st2" d="M22.2,34.5C22.2,34.5,22.1,34.5,22.2,34.5l-0.1,2c0,0,0.1,0,0.1,0V34.5z"/>
	<path class="st2" d="M32.6,24.1c0,4.2-2.5,7.8-6.1,9.5l1,1c0.2,0.2,0.2,0.3,0.3,0.5c4-2.1,6.8-6.2,6.8-11H32.6z"/>
</g>
<polygon class="st4" points="22.2,39.3 22.2,31.7 26,35.5 "/>
<polygon class="st4" points="22.2,8.9 22.2,16.5 18.4,12.7 "/>
<path class="st2" d="M26.6,25.2l-0.7-0.4c0-0.2,0.1-0.5,0.1-0.7s0-0.5-0.1-0.7l0.7-0.4c0.3-0.2,0.4-0.6,0.2-0.9l0,0L26.2,21
	c-0.2-0.3-0.5-0.4-0.8-0.2l0,0L25,21c-0.2,0.1-0.5,0.1-0.7,0s-0.4-0.2-0.6-0.3c-0.2-0.1-0.3-0.3-0.3-0.6v-0.4c0-0.3-0.3-0.6-0.6-0.6
	h-1.3c-0.3,0-0.6,0.3-0.6,0.6v0.4c0,0.2-0.1,0.5-0.3,0.6c-0.2,0.1-0.4,0.2-0.6,0.3c-0.2,0.1-0.5,0.1-0.7,0L19,20.8
	c-0.3-0.2-0.7-0.1-0.9,0.2l-0.6,1.1c-0.2,0.3-0.1,0.7,0.2,0.9l0.7,0.4c0,0.2-0.1,0.5-0.1,0.7s0,0.5,0.1,0.7l-0.7,0.4
	c-0.3,0.2-0.4,0.6-0.2,0.9l0.6,1.1c0.2,0.3,0.6,0.4,0.9,0.2l0.4-0.2c0.2-0.1,0.5-0.1,0.7,0s0.4,0.2,0.6,0.3c0.2,0.1,0.3,0.3,0.3,0.6
	v0.4c0,0.3,0.3,0.6,0.6,0.6h1.3c0.3,0,0.6-0.3,0.6-0.6v-0.4c0-0.2,0.1-0.5,0.3-0.6c0.2-0.1,0.4-0.2,0.6-0.3c0.2-0.1,0.5-0.1,0.7,0
	l0.4,0.2c0.3,0.2,0.7,0.1,0.9-0.2l0.6-1.1C27.1,25.8,27,25.4,26.6,25.2C26.7,25.2,26.7,25.2,26.6,25.2z M22.2,26.6
	c-1.4,0-2.5-1.2-2.5-2.6s1.2-2.5,2.6-2.5s2.5,1.2,2.5,2.6l0,0C24.7,25.5,23.6,26.6,22.2,26.6L22.2,26.6L22.2,26.6z"/>
</svg>
