<?xml version="1.0" encoding="utf-8"?>
<!-- Generator: Adobe Illustrator 26.3.1, SVG Export Plug-In . SVG Version: 6.00 Build 0)  -->
<svg version="1.1" id="Camada_1" xmlns="http://www.w3.org/2000/svg" xmlns:xlink="http://www.w3.org/1999/xlink" x="0px" y="0px"
	 viewBox="0 0 50 50" style="enable-background:new 0 0 50 50;" xml:space="preserve">
<style type="text/css">
	.st0{fill:#A6C1C2;}
	.st1{fill:#B9D7D9;}
	.st2{fill:#444444;}
	.st3{fill-rule:evenodd;clip-rule:evenodd;fill:#494949;}
</style>
<g>
	<g>
		<g>
			<path class="st0" d="M6.5,38.3l5.7,3.3L45.9,23l-0.1-7.3c0-1.6-0.9-3.2-2.3-4L27.3,2.3c-1.4-0.8-3.2-0.8-4.6,0L6.5,11.7
				c-1.4,0.8-2.3,2.3-2.3,4v18.7C4.2,36,5.1,37.5,6.5,38.3z"/>
		</g>
		<g>
			<path class="st1" d="M33.8,6.2l-6.6-3.8c-1.4-0.8-3.2-0.8-4.6,0L6.5,11.7c-1.4,0.8-2.3,2.3-2.3,4l-0.3,7.9L33.8,6.2z"/>
		</g>
		<g>
			<path class="st2" d="M25,49.5c-1,0-2-0.3-2.9-0.8L5.9,39.4c-1.8-1-2.9-3-2.9-5V15.6c0-2.1,1.1-4,2.9-5l16.2-9.4c1.8-1,4-1,5.8,0
				l16.2,9.4c1.8,1,2.9,3,2.9,5v13.7c0,0.7-0.6,1.2-1.2,1.2s-1.2-0.6-1.2-1.2V15.6c0-1.2-0.6-2.3-1.7-2.9L26.7,3.4
				c-1-0.6-2.3-0.6-3.4,0L7.1,12.7c-1,0.6-1.7,1.7-1.7,2.9v18.7c0,1.2,0.6,2.3,1.7,2.9l16.2,9.4c1,0.6,2.3,0.6,3.4,0l4.5-2.6
				c0.6-0.3,1.3-0.1,1.7,0.5c0.3,0.6,0.1,1.3-0.5,1.7l-4.5,2.6C27,49.3,26,49.5,25,49.5z"/>
		</g>
	</g>
	<g>
		<path class="st3" d="M12.3,23.2c-1.1,0-2.1-0.4-2.8-1.2c-0.7-0.7-1.2-1.7-1.2-2.8c0-1,0.4-1.9,1-2.6l0,0c0.6-0.7,1.3-1.1,2.2-1.3
			c0.2-1.3,0.9-2.4,1.8-3.3c1-0.9,2.2-1.4,3.6-1.4c0.9,0,1.8,0.2,2.5,0.6c0.7,0.4,1.4,0.9,1.9,1.6c0.1,0,0.3-0.1,0.4-0.1
			c0.2,0,0.4,0,0.6,0c0.9,0,1.6,0.3,2.3,0.7c0.6,0.4,1.1,1.1,1.4,1.8c0.9,0.1,1.8,0.6,2.4,1.3c0.6,0.7,1,1.6,1,2.6l0,0l0,0l0,0
			c0,1.1-0.4,2.1-1.2,2.8c-0.7,0.7-1.7,1.2-2.8,1.2l0,0l0,0l0,0L12.3,23.2L12.3,23.2z M9.7,21.7c0.2,0.2,0.6,0.5,1.1,0.7
			c0.4,0.2,0.9,0.3,1.4,0.3h13.2c1,0,1.8-0.4,2.5-1c0.6-0.6,1-1.5,1-2.5c0-0.9-0.3-1.7-0.9-2.3s-1.3-1-2.2-1.1
			c-0.1,0-0.2-0.1-0.2-0.2c-0.2-0.7-0.7-1.3-1.3-1.7c-0.6-0.4-1.3-0.6-2-0.6c-0.2,0-0.3,0-0.5,0s-0.3,0.1-0.5,0.1
			c-0.1,0-0.2,0-0.2-0.1c-0.5-0.7-1.1-1.2-1.8-1.6c-0.7-0.4-1.5-0.6-2.3-0.6c-1.3,0-2.5,0.5-3.3,1.3c-0.9,0.8-1.5,1.9-1.7,3.1
			c0,0.1-0.1,0.2-0.2,0.2c-0.5,0.1-1.4,0.4-2.1,1.2C8.5,18.3,8.6,20.6,9.7,21.7z"/>
		<path class="st3" d="M19.3,41.2h23.9c0.1,0,0.2,0,0.2-0.1c0.1-0.1,0.1-0.1,0.1-0.2v-0.5c0-0.1,0-0.2-0.1-0.2l0,0
			C43.3,40,43.3,40,43.2,40H42H20.5h-1.2c-0.1,0-0.2,0-0.2,0.1C19,40.2,19,40.2,19,40.3v0.5c0,0.1,0,0.2,0.1,0.2l0,0
			C19.1,41.1,19.2,41.2,19.3,41.2L19.3,41.2z M21.1,25.3h20.3c0.2,0,0.4,0.1,0.6,0.2c0.1,0.1,0.2,0.3,0.2,0.6v13.5h1
			c0.2,0,0.4,0.1,0.5,0.2l0,0c0.1,0.1,0.2,0.3,0.2,0.6v0.5c0,0.2-0.1,0.4-0.2,0.6c-0.1,0.1-0.3,0.2-0.6,0.2H19.3
			c-0.2,0-0.4-0.1-0.6-0.2l0,0l0,0c-0.1-0.1-0.2-0.3-0.2-0.6v-0.5c0-0.2,0.1-0.4,0.2-0.6l0,0c0.1-0.1,0.3-0.2,0.6-0.2h1V26.1
			c0-0.2,0.1-0.4,0.2-0.6l0,0l0,0C20.7,25.4,20.9,25.3,21.1,25.3L21.1,25.3z M41.4,25.7H21.1c-0.1,0-0.2,0-0.2,0.1l0,0
			c-0.1,0.1-0.1,0.1-0.1,0.2v13.5h21V26.1c0-0.1,0-0.2-0.1-0.2C41.6,25.8,41.5,25.7,41.4,25.7L41.4,25.7z M27.4,40.8
			c-0.1,0-0.2-0.1-0.2-0.2c0-0.1,0.1-0.2,0.2-0.2h7.5c0.1,0,0.2,0.1,0.2,0.2c0,0.1-0.1,0.2-0.2,0.2H27.4L27.4,40.8z M21.7,26.4
			c-0.1,0-0.2,0.1-0.2,0.2v12.1c0,0.1,0.1,0.2,0.2,0.2h19.2c0.1,0,0.2-0.1,0.2-0.2V26.6c0-0.1-0.1-0.2-0.2-0.2H21.7L21.7,26.4z
			 M40.6,26.8H21.9v11.6h18.7V26.8z"/>
	</g>
</g>
</svg>
