<?xml version="1.0" encoding="utf-8"?>
<!-- Generator: Adobe Illustrator 28.3.0, SVG Export Plug-In . SVG Version: 6.00 Build 0)  -->
<svg version="1.1" id="Layer_1" xmlns="http://www.w3.org/2000/svg" xmlns:xlink="http://www.w3.org/1999/xlink" x="0px" y="0px"
	 viewBox="0 0 50 50" style="enable-background:new 0 0 50 50;" xml:space="preserve">
<style type="text/css">
	.st0{fill:#D1BD00;}
	.st1{fill:#F9F941;}
	.st2{fill:none;stroke:#444444;stroke-linecap:round;stroke-linejoin:round;stroke-miterlimit:10;}
	.st3{fill:#444444;}
	.st4{fill:none;stroke:#444444;stroke-width:2.5;stroke-linecap:round;stroke-linejoin:round;stroke-miterlimit:10;}
	.st5{fill:none;stroke:#444444;stroke-width:0.5;stroke-linecap:round;stroke-linejoin:round;stroke-miterlimit:10;}
	.st6{fill:#444444;stroke:#454444;stroke-linecap:round;stroke-linejoin:round;stroke-miterlimit:10;}
	.st7{fill:#444444;stroke:#454444;stroke-width:0.5;stroke-linecap:round;stroke-linejoin:round;stroke-miterlimit:10;}
</style>
<g>
	<polygon class="st0" points="29,20.5 36.8,22.9 30.1,27.6 30.2,35.8 23.6,30.9 15.9,33.6 18.5,25.8 13.6,19.2 21.8,19.3 26.5,12.6 
			"/>
	<g>
		<g>
			<g>
				<g>
					<g>
						<g>
							<g>
								<path class="st1" d="M44.6,8.5L8.2,8.7c-2.9,0-6,0.9-6,3.8v13.7L1.9,36.3c0.4,6.3,7,6.5,15.2,6l0.9,5.2l15.4-5.5l15.6-5.5
									l-0.2-23.9L44.6,8.5z"/>
								<g>
									<g>
										<g>
											<path class="st2" d="M32.9,41.5L7.2,41.4c-2.6,0-5.5-2-5.5-4.6"/>
											<path class="st2" d="M31.9,47.5H18.1c-0.5,0-0.9-0.6-0.6-1l2.4-4.8h10.3l2.5,4.8C32.8,47,32.4,47.5,31.9,47.5z"/>
										</g>
										<circle class="st3" cx="25" cy="38.6" r="1.6"/>
									</g>
									<path class="st4" d="M48.6,37V14.6c0-3.4-2.8-6.2-6.2-6.2H7.8c-3.4,0-6.2,2.8-6.2,6.2V36c0,3.4,2.8,6.2,6.2,6.2h10.6
										l-1.8,4.5c-0.4,0.9,0.3,1.8,1.2,1.9l14.3,0.1c1,0,1.6-1,1.2-1.9l-1.9-4.6h5.8"/>
								</g>
							</g>
						</g>
					</g>
					<line class="st5" x1="2.7" y1="35.8" x2="48" y2="35.8"/>
					<line class="st5" x1="2.3" y1="35.8" x2="10.4" y2="35.8"/>
				</g>
			</g>
			<g>
				<path class="st3" d="M8,8.2h8.9l10.5,11.4L42.6,36h-8.9L22.9,23.9L8,8.2z M41.8,8.2L27.3,23.7L16.9,36H8l15.1-16.3l9.9-11.5
					H41.8z"/>
			</g>
		</g>
		<line class="st6" x1="6.7" y1="16.3" x2="10.5" y2="16.3"/>
		<line class="st7" x1="6.7" y1="29.1" x2="10.5" y2="29.1"/>
		<line class="st7" x1="6.7" y1="27" x2="12.8" y2="27"/>
		<line class="st7" x1="6.7" y1="18.9" x2="15.4" y2="18.9"/>
		<line class="st7" x1="6.7" y1="24.4" x2="15.4" y2="24.4"/>
		<line class="st7" x1="6.7" y1="21.8" x2="17.5" y2="21.8"/>
		<line class="st6" x1="43.1" y1="16.3" x2="39.3" y2="16.3"/>
		<line class="st7" x1="43.1" y1="29.1" x2="39.3" y2="29.1"/>
		<line class="st7" x1="43.1" y1="27" x2="37" y2="27"/>
		<line class="st7" x1="43.1" y1="18.9" x2="34.4" y2="18.9"/>
		<line class="st7" x1="43.1" y1="24.4" x2="34.4" y2="24.4"/>
		<line class="st7" x1="43.1" y1="21.8" x2="32.3" y2="21.8"/>
	</g>
</g>
</svg>
