<?xml version="1.0" encoding="utf-8"?>
<!-- Generator: Adobe Illustrator 26.4.1, SVG Export Plug-In . SVG Version: 6.00 Build 0)  -->
<svg version="1.1" id="Layer_1" xmlns="http://www.w3.org/2000/svg" xmlns:xlink="http://www.w3.org/1999/xlink" x="0px" y="0px"
	 viewBox="0 0 50 50" style="enable-background:new 0 0 50 50;" xml:space="preserve">
<style type="text/css">
	.st0{fill:#00C8E2;}
	.st1{fill:#00DFFC;}
	.st2{fill:none;stroke:#444444;stroke-width:2.5;stroke-linecap:round;stroke-linejoin:round;stroke-miterlimit:10;}
	.st3{fill:#444444;}
	.st4{fill:none;stroke:#444444;stroke-width:0.5;stroke-linecap:round;stroke-linejoin:round;stroke-miterlimit:10;}
	.st5{fill:none;stroke:#444444;stroke-width:0.5;stroke-linecap:square;stroke-linejoin:round;stroke-miterlimit:10;}
</style>
<g id="Layer_2_00000059279208837492248030000018353883522086443143_">
</g>
<polygon class="st0" points="47.7,11.5 48.5,16.7 2.4,33.5 1.9,22.6 1.8,16.4 42.1,1.8 47.3,4.1 "/>
<polygon class="st1" points="46.1,1.9 48.4,5.1 1.5,21.8 2.6,4.7 5.6,1.8 34.7,1.6 "/>
<g>
	<path class="st2" d="M18.1,48.2H5.5c-1.9,0-3.4-1.6-3.4-3.5V5.7c0-2,1.5-3.5,3.4-3.5h39c1.9,0,3.4,1.6,3.4,3.5v24.6"/>
	<path class="st2" d="M2.1,15.7"/>
	<path class="st2" d="M47.9,15.7"/>
</g>
<circle class="st3" cx="8.2" cy="8.1" r="1.4"/>
<circle class="st3" cx="12.1" cy="8.1" r="1.4"/>
<circle class="st3" cx="15.9" cy="8.1" r="1.4"/>
<line class="st4" x1="14.9" y1="19.7" x2="41.7" y2="19.7"/>
<line class="st4" x1="14.9" y1="26.9" x2="41.7" y2="26.9"/>
<line class="st4" x1="14.9" y1="34.8" x2="41.7" y2="34.8"/>
<line class="st5" x1="35.3" y1="13.1" x2="35.3" y2="42"/>
<line class="st4" x1="35.3" y1="11.7" x2="35.3" y2="42"/>
<line class="st4" x1="20.3" y1="12" x2="20.3" y2="42.4"/>
<g>
	<rect x="20.3" y="27.1" class="st3" width="8.2" height="7.6"/>
	<rect x="28.2" y="34.7" class="st3" width="7.3" height="7.6"/>
	<rect x="28.2" y="27.1" class="st3" width="7.3" height="7.6"/>
	<rect x="20.3" y="19.7" class="st3" width="7.6" height="7.6"/>
</g>
</svg>
