<?xml version="1.0" encoding="utf-8"?>
<!-- Generator: Adobe Illustrator 26.5.0, SVG Export Plug-In . SVG Version: 6.00 Build 0)  -->
<svg version="1.1" id="Camada_1" xmlns="http://www.w3.org/2000/svg" xmlns:xlink="http://www.w3.org/1999/xlink" x="0px" y="0px"
	 viewBox="0 0 50 50" style="enable-background:new 0 0 50 50;" xml:space="preserve">
<style type="text/css">
	.st0{fill:#A475EF;}
	.st1{fill:#BF94F7;}
	.st2{fill:#494949;}
</style>
<g>
	<path class="st0" d="M42.1,4.2L1.4,18.9v23.1l9.4-3.4c0.8-1.1,2.2-1.4,3.4-1.8c1.6-0.5,3-1.1,4.5-1.8c0.5-0.2,1.1-0.2,1.5,0.2
		L48.4,25V4.2H42.1z M17.8,29.6H7.7V17.3h10.2V29.6z"/>
	<polygon class="st1" points="1.4,4.2 1.4,26.1 7.7,23.9 7.7,17.3 17.8,17.3 17.8,20.2 48.4,9.3 48.4,4.2 	"/>
	<g>
		<path class="st2" d="M1.8,43c0.5,0.3,1.1,0.5,1.7,0.5h4.3c0.7,0,1.3-0.6,1.3-1.3c0-0.7-0.6-1.3-1.3-1.3l0,0H3.5
			c-0.1,0-0.1,0-0.2,0c-0.1,0-0.2-0.1-0.2-0.2C3,40.7,3,40.6,3,40.5V14.1h44v26.4c0,0.1,0,0.1,0,0.2c0,0.1-0.1,0.2-0.2,0.2
			C46.7,41,46.6,41,46.5,41h-4.3c-0.7,0-1.3,0.6-1.3,1.3c0,0.7,0.6,1.3,1.3,1.3h4.3c0.4,0,0.8-0.1,1.2-0.2c0.6-0.2,1-0.6,1.4-1.1
			c0.3-0.5,0.5-1.1,0.5-1.7V12.8l0,0c0,0,0,0,0,0V6.1c0-0.4-0.1-0.8-0.2-1.2c-0.2-0.6-0.6-1-1.1-1.4c-0.5-0.3-1.1-0.5-1.7-0.5h-27
			c-0.7,0-1.3,0.6-1.3,1.3c0,0.7,0.6,1.3,1.3,1.3l0,0h27c0.1,0,0.1,0,0.2,0c0.1,0,0.2,0.1,0.2,0.2C47,5.9,47,6,47,6.1v5.4H3V6.1
			C3,6.1,3,6,3,5.9c0-0.1,0.1-0.2,0.2-0.2c0.1-0.1,0.2-0.1,0.3-0.1h9.1C13.4,5.6,14,5,14,4.3c0-0.7-0.6-1.3-1.3-1.3H3.5
			c-0.4,0-0.8,0.1-1.2,0.2C1.8,3.5,1.3,3.9,1,4.4C0.7,4.9,0.5,5.5,0.5,6.1v34.3c0,0.4,0.1,0.8,0.2,1.2C0.9,42.2,1.3,42.7,1.8,43
			L1.8,43L1.8,43z"/>
		<path class="st2" d="M44.1,8.8c0-0.9-0.7-1.6-1.6-1.6c-0.9,0-1.6,0.7-1.6,1.6c0,0.9,0.7,1.6,1.6,1.6C43.3,10.4,44.1,9.7,44.1,8.8
			L44.1,8.8L44.1,8.8z"/>
		<path class="st2" d="M38.7,8.8c0-0.9-0.7-1.6-1.6-1.6c-0.9,0-1.6,0.7-1.6,1.6c0,0.9,0.7,1.6,1.6,1.6C37.9,10.4,38.7,9.7,38.7,8.8
			L38.7,8.8L38.7,8.8z"/>
		<path class="st2" d="M33.3,8.8c0-0.9-0.7-1.6-1.6-1.6c-0.9,0-1.6,0.7-1.6,1.6c0,0.9,0.7,1.6,1.6,1.6C32.5,10.4,33.3,9.7,33.3,8.8
			L33.3,8.8L33.3,8.8z"/>
		<path class="st2" d="M27.6,34c0.1-0.3-0.1-0.6-0.4-0.7c-0.3-0.1-0.7,0.1-0.8,0.4l-1.9,5.3l0,0l-0.1,0.4v0l-0.4,1.2l-2.1,5.7
			c-0.1,0.3,0.1,0.6,0.4,0.7c0.3,0.1,0.7-0.1,0.8-0.4l0,0l2.1-5.7l0.4-1.2l0,0l0.1-0.4v0L27.6,34L27.6,34L27.6,34z"/>
		<polygon class="st2" points="20.8,41.4 20.8,41.4 20.8,41.4 20.8,41.4 20.8,41.4 		"/>
		<polygon class="st2" points="21,35.6 21,35.6 21,35.6 21,35.6 21,35.6 		"/>
		<path class="st2" d="M21.2,42.7c0-0.2,0-0.4-0.1-0.7c-0.1-0.2-0.2-0.4-0.3-0.6c-0.2-0.3-0.5-0.6-0.8-0.8v0c0,0,0,0,0,0
			c0,0,0,0,0,0l0,0c-0.1,0-0.1-0.1-0.2-0.1l0,0l-2.1-0.9l2.2-0.9l0,0c0.2-0.1,0.4-0.2,0.6-0.4c0.2-0.2,0.3-0.4,0.4-0.6v0
			c0.2-0.4,0.3-0.7,0.3-1.1c0-0.3-0.1-0.6-0.2-0.9c-0.1-0.3-0.3-0.5-0.5-0.8c-0.2-0.2-0.4-0.4-0.7-0.6l0,0c-0.3-0.2-0.7-0.3-1.1-0.3
			c-0.1,0-0.1,0-0.2,0c-0.1,0-0.2,0-0.3,0.1c-0.1,0-0.2,0.1-0.4,0.1c0,0-0.1,0-0.1,0l-6.6,2.9l0,0c-0.4,0.2-0.7,0.4-1,0.7
			c-0.3,0.3-0.5,0.7-0.6,1.1v0c0,0.2-0.1,0.4-0.1,0.6c0,0,0,0.1,0,0.1l0,0c0,0,0,0,0,0c0,0,0,0,0,0h0c0,0.4,0.1,0.9,0.4,1.2
			c0.1,0.3,0.3,0.5,0.5,0.7c0.2,0.2,0.5,0.3,0.7,0.5l0,0l0.1,0l0,0l6.6,2.9c0,0,0.1,0,0.1,0c0.2,0,0.3,0.1,0.5,0.1
			c0.1,0,0.1,0,0.2,0c0,0,0.1,0,0.1,0c0,0,0.1,0,0.1,0c0.3,0,0.7-0.1,1-0.2c0.3-0.1,0.6-0.4,0.8-0.6c0.2-0.2,0.3-0.5,0.4-0.8
			C21.1,43.3,21.2,43,21.2,42.7L21.2,42.7L21.2,42.7z M19.5,42.9c0,0.1-0.1,0.2-0.2,0.3l0,0c-0.1,0.1-0.1,0.1-0.2,0.1
			c-0.1,0-0.1,0-0.2,0c0,0-0.1,0-0.1,0c-0.1,0-0.2,0-0.3-0.1l-6.6-2.9v0l-0.1,0l0,0c-0.1-0.1-0.2-0.1-0.3-0.2
			c-0.1-0.1-0.1-0.1-0.1-0.2v0c-0.1-0.2-0.2-0.4-0.2-0.5v0l0,0v0c0-0.1,0-0.2,0-0.3c0-0.1,0.1-0.2,0.2-0.3c0.1-0.1,0.2-0.2,0.4-0.3
			l6.6-2.9c0.1,0,0.2-0.1,0.3-0.1c0,0,0.1,0,0.1,0c0.1,0,0.2,0,0.2,0.1c0.1,0.1,0.2,0.1,0.3,0.2c0.1,0.1,0.1,0.2,0.2,0.3l0,0
			c0,0.1,0.1,0.2,0.1,0.2c0,0.1,0,0.2-0.1,0.4c0,0,0,0.1-0.1,0.1c0,0,0,0-0.1,0.1l0,0l-3,1.2l-1.1,0.5c-0.3,0.1-0.5,0.4-0.5,0.8
			c0,0.3,0.2,0.6,0.5,0.8l0.1,0h0l3.9,1.6l0,0v0l0,0l0,0c0.1,0.1,0.2,0.1,0.2,0.3l0,0c0.1,0.1,0.1,0.2,0.1,0.2c0,0.1,0,0.1,0,0.1
			C19.5,42.8,19.5,42.9,19.5,42.9L19.5,42.9L19.5,42.9z"/>
		<polygon class="st2" points="20.6,44.3 20.6,44.3 20.6,44.3 20.6,44.3 20.6,44.3 		"/>
		<polygon class="st2" points="9.9,40.9 9.9,40.9 9.9,40.9 9.9,40.9 9.9,40.9 		"/>
		<polygon class="st2" points="40.5,38.9 40.5,38.9 40.5,38.9 40.5,38.9 40.5,38.9 		"/>
		<polygon class="st2" points="40.2,40.9 40.2,40.9 40.2,40.9 40.2,40.9 40.2,40.9 		"/>
		<polygon class="st2" points="29.3,41.4 29.3,41.4 29.3,41.4 29.3,41.4 29.3,41.4 		"/>
		<path class="st2" d="M40.5,39.5c0-0.2,0-0.4-0.1-0.6c-0.1-0.4-0.3-0.8-0.6-1.1c-0.3-0.3-0.6-0.5-1-0.7l0,0l-6.6-2.9
			c0,0-0.1,0-0.1,0c-0.2,0-0.3-0.1-0.5-0.1c-0.1,0-0.1,0-0.2,0c-0.1,0-0.1,0-0.2,0c-0.4,0-0.8,0.1-1.1,0.3l0,0
			c-0.3,0.2-0.5,0.4-0.7,0.6c-0.2,0.2-0.4,0.5-0.5,0.8l0,0c0,0,0,0,0,0c0,0,0,0,0,0h0c-0.1,0.3-0.2,0.6-0.2,0.9c0,0.2,0,0.4,0.1,0.7
			c0.1,0.3,0.2,0.6,0.4,0.9c0.2,0.3,0.5,0.4,0.8,0.6l0,0l2.2,0.9l-2.1,0.9l0,0c-0.1,0-0.1,0.1-0.2,0.1v0c0,0,0,0,0,0c0,0,0,0,0,0v0
			c-0.3,0.2-0.6,0.5-0.8,0.8c-0.1,0.2-0.2,0.4-0.3,0.6c-0.1,0.2-0.1,0.4-0.1,0.7c0,0.3,0.1,0.6,0.1,0.9c0.1,0.3,0.2,0.5,0.4,0.8
			c0.2,0.3,0.5,0.5,0.8,0.6c0.3,0.1,0.7,0.2,1,0.2c0.1,0,0.1,0,0.1,0c0.1,0,0.1,0,0.1,0c0.1,0,0.3-0.1,0.6-0.1c0,0,0.1,0,0.2-0.1
			l6.6-2.9l0,0l0.1,0l0,0c0.3-0.1,0.5-0.3,0.7-0.4c0.2-0.2,0.4-0.4,0.5-0.7c0.2-0.4,0.3-0.8,0.4-1.3C40.5,39.6,40.5,39.5,40.5,39.5
			L40.5,39.5L40.5,39.5z M38.7,40.1L38.7,40.1c0,0.1-0.1,0.1-0.2,0.2c-0.1,0.1-0.2,0.1-0.3,0.2l0,0l-0.1,0v0l-6.5,2.9
			c-0.2,0-0.3,0.1-0.4,0.1c0,0-0.1,0-0.1,0c-0.1,0-0.2,0-0.2,0c-0.1,0-0.1-0.1-0.2-0.1c-0.1-0.1-0.1-0.2-0.2-0.3c0-0.1,0-0.2,0-0.3
			c0,0,0-0.1,0-0.1c0-0.1,0.1-0.1,0.1-0.2l0,0c0.1-0.1,0.2-0.2,0.2-0.3l0,0l0,0l0,0l3.9-1.6l0.1,0c0.3-0.1,0.5-0.4,0.5-0.8
			c0-0.3-0.2-0.6-0.5-0.8l-1.1-0.5l-3-1.2l0,0c-0.1,0-0.1,0-0.1-0.1c0,0-0.1,0-0.1-0.1c0-0.1-0.1-0.2-0.1-0.4c0-0.1,0-0.2,0.1-0.3
			l0,0c0-0.1,0.1-0.2,0.2-0.3c0.1-0.1,0.2-0.2,0.3-0.2c0.1,0,0.1-0.1,0.2-0.1c0,0,0.1,0,0.1,0c0.1,0,0.2,0,0.3,0.1l6.5,2.9l0,0
			c0.2,0.1,0.4,0.2,0.4,0.3c0.1,0.1,0.1,0.2,0.2,0.3v0c0,0.1,0,0.2,0,0.3c0,0,0,0,0,0C38.8,39.7,38.8,39.9,38.7,40.1L38.7,40.1
			L38.7,40.1z"/>
		<path class="st2" d="M18.3,30.1c0.3-0.3,0.5-0.7,0.5-1.2V17.8c0-0.5-0.2-0.9-0.5-1.2c-0.3-0.3-0.7-0.5-1.2-0.5H8.5
			c-0.5,0-0.9,0.2-1.2,0.5c-0.3,0.3-0.5,0.7-0.5,1.2v11.1c0,0.5,0.2,0.9,0.5,1.2c0.3,0.3,0.7,0.5,1.2,0.5h8.5
			C17.5,30.6,18,30.4,18.3,30.1L18.3,30.1L18.3,30.1z M8.5,28.9L8.5,28.9l0-11.1l0,0l0,0h8.5l0,0l0,0v11.1l0,0l0,0L8.5,28.9
			L8.5,28.9L8.5,28.9L8.5,28.9z"/>
		<path class="st2" d="M43,16.1H24.1c-0.5,0-0.8,0.4-0.8,0.8c0,0.5,0.4,0.8,0.8,0.8H43c0.5,0,0.8-0.4,0.8-0.8
			C43.9,16.5,43.5,16.1,43,16.1L43,16.1L43,16.1z"/>
		<path class="st2" d="M24.1,22.2h13.3c0.5,0,0.8-0.4,0.8-0.8c0-0.5-0.4-0.8-0.8-0.8H24.1c-0.5,0-0.8,0.4-0.8,0.8
			C23.3,21.8,23.6,22.2,24.1,22.2L24.1,22.2L24.1,22.2z"/>
		<path class="st2" d="M43.9,25.7c0-0.5-0.4-0.8-0.8-0.8H24.1c-0.5,0-0.8,0.4-0.8,0.8c0,0.5,0.4,0.8,0.8,0.8H43
			C43.5,26.6,43.9,26.2,43.9,25.7L43.9,25.7L43.9,25.7z"/>
		<path class="st2" d="M43,20.5h-1.9c-0.5,0-0.8,0.4-0.8,0.8c0,0.5,0.4,0.8,0.8,0.8H43c0.5,0,0.8-0.4,0.8-0.8
			C43.9,20.9,43.5,20.5,43,20.5L43,20.5L43,20.5z"/>
	</g>
</g>
</svg>
