<svg xmlns="http://www.w3.org/2000/svg" id="Layer_1" version="1.1" viewBox="0 0 50 50"><defs><style>.st2{fill:none;stroke:#444;stroke-linecap:round;stroke-linejoin:round}.st3{fill:#444}.st2{stroke-width:.5px}</style></defs><path fill="#46b8b0" d="M45.1 5.1H4c-1.4 0-1.4 3.8-1.4 5.2l-.2 12.9-.5 10.2 1.2 11.8 12.4.6 32.1-11.4V7.6c0-1.4-1.1-2.6-2.5-2.6z"/><path fill="none" stroke="#444" stroke-linecap="round" stroke-linejoin="round" stroke-width="2.5" d="M32.5 46.5h-27c-1.9 0-3.4-1.6-3.4-3.5V8c0-1.9 1.5-3.5 3.4-3.5h39c1.9 0 3.4 1.6 3.4 3.5v28.5"/><path d="M5.1 14.3c0 1.8 1.9 3.3 4.2 3.3s4.2-1.5 4.2-3.3" class="st2"/><circle cx="7.2" cy="12.7" r="1.1" class="st3"/><circle cx="11" cy="12.7" r="1.1" class="st3"/><path d="M5.7 33.9c0-1.7 1.8-3.2 4.1-3.2s4.1 1.4 4.1 3.2" class="st2"/><circle cx="7.8" cy="28.4" r="1.2" class="st3"/><circle cx="12" cy="28.3" r="1.2" class="st3"/><path fill="none" stroke="#444" stroke-linecap="round" stroke-linejoin="round" d="M16.5 13.2H44m-27.5 1.7H44M16.5 17h11.1M16.2 28.8h27.6m-27.6 1.7h27.6m-27.6 2.1h11.1"/><path d="M5.1 21.2h39.8M5.1 38.7h39.7" class="st2"/></svg>