<?xml version="1.0" encoding="UTF-8"?>
<svg id="Layer_1" xmlns="http://www.w3.org/2000/svg" version="1.1" viewBox="0 0 50 50">
  <!-- Generator: Adobe Illustrator 29.0.1, SVG Export Plug-In . SVG Version: 2.1.0 Build 192)  -->
  <defs>
    <style>
      .st0, .st1, .st2 {
        fill: none;
        stroke: #444;
        stroke-linecap: round;
        stroke-linejoin: round;
      }

      .st1 {
        stroke-width: 2.5px;
      }

      .st3 {
        fill: #444;
      }

      .st4 {
        fill: #46b8b0;
      }

      .st2 {
        stroke-width: .5px;
      }
    </style>
  </defs>
  <path class="st4" d="M45.1,5.1H4c-1.4,0-1.4,3.8-1.4,5.2l-.2,12.9-.5,10.2,1.2,11.8,12.4.6,32.1-11.4V7.6h0c0-1.4-1.1-2.6-2.5-2.6Z"/>
  <path class="st1" d="M32.5,46.5H5.5c-1.9,0-3.4-1.6-3.4-3.5V8c0-1.9,1.5-3.5,3.4-3.5h39c1.9,0,3.4,1.6,3.4,3.5v28.5"/>
  <path class="st2" d="M5.1,14.3c0,1.8,1.9,3.3,4.2,3.3s4.2-1.5,4.2-3.3"/>
  <circle class="st3" cx="7.2" cy="12.7" r="1.1"/>
  <circle class="st3" cx="11" cy="12.7" r="1.1"/>
  <path class="st2" d="M5.7,33.9c0-1.7,1.8-3.2,4.1-3.2s4.1,1.4,4.1,3.2"/>
  <circle class="st3" cx="7.8" cy="28.4" r="1.2"/>
  <circle class="st3" cx="12" cy="28.3" r="1.2"/>
  <line class="st0" x1="16.5" y1="13.2" x2="44" y2="13.2"/>
  <line class="st0" x1="16.5" y1="14.9" x2="44" y2="14.9"/>
  <line class="st0" x1="16.5" y1="17" x2="27.6" y2="17"/>
  <line class="st0" x1="16.2" y1="28.8" x2="43.8" y2="28.8"/>
  <line class="st0" x1="16.2" y1="30.5" x2="43.8" y2="30.5"/>
  <line class="st0" x1="16.2" y1="32.6" x2="27.3" y2="32.6"/>
  <line class="st2" x1="5.1" y1="21.2" x2="44.9" y2="21.2"/>
  <line class="st2" x1="5.1" y1="38.7" x2="44.8" y2="38.7"/>
</svg>