<?xml version="1.0" encoding="utf-8"?>
<!-- Generator: Adobe Illustrator 22.0.1, SVG Export Plug-In . SVG Version: 6.00 Build 0)  -->
<svg version="1.1" id="Layer_1" xmlns="http://www.w3.org/2000/svg" xmlns:xlink="http://www.w3.org/1999/xlink" x="0px" y="0px"
	 viewBox="0 0 50 50" style="enable-background:new 0 0 50 50;" xml:space="preserve">
<style type="text/css">
	.st0{fill:#C05E80;}
	.st1{fill:#D7698D;}
	.st2{fill:#464646;}
</style>
<g>
	<g>
		<path class="st0" d="M44,25c0-5.8-2.6-10.9-6.6-14.4L6.3,21.9C6.1,22.9,6,24,6,25c0,6.6,3.3,12.4,8.4,15.8l28.8-10.5
			C43.7,28.6,44,26.8,44,25z"/>
	</g>
	<g>
		<path class="st1" d="M25.2,5.6C15.2,5.6,7,12.9,5.5,22.4l32.7-11.9C34.7,7.4,30.1,5.6,25.2,5.6z"/>
	</g>
	<g>
		<path class="st2" d="M10.4,43.4c-0.3,0-0.6-0.1-0.8-0.3C4.3,38.5,1.2,31.9,1.2,25c0-0.7,0.6-1.2,1.2-1.2s1.2,0.6,1.2,1.2
			c0,6.2,2.7,12.1,7.4,16.2c0.5,0.4,0.6,1.2,0.1,1.8C11.1,43.2,10.7,43.4,10.4,43.4z"/>
	</g>
	<g>
		<path class="st2" d="M25,48.8c-0.7,0-1.2-0.6-1.2-1.2s0.6-1.2,1.2-1.2c7.1,0,13.7-3.5,17.6-9.4c0.4-0.6,1.2-0.7,1.7-0.3
			c0.6,0.4,0.7,1.2,0.3,1.7C40.3,44.8,32.9,48.8,25,48.8z"/>
	</g>
	<g>
		<path class="st2" d="M47.5,26.2c-0.7,0-1.2-0.6-1.2-1.2c0-7.3-3.7-14-9.9-17.9c-0.6-0.4-0.8-1.1-0.4-1.7c0.4-0.6,1.1-0.8,1.7-0.4
			c6.9,4.4,11,11.9,11,20.1C48.8,25.7,48.2,26.2,47.5,26.2z"/>
	</g>
	<g>
		<path class="st2" d="M4.1,17.9c-0.2,0-0.3,0-0.5-0.1c-0.6-0.3-1-1-0.7-1.6c3.6-9.1,12.3-15,22.1-15c0.7,0,1.2,0.6,1.2,1.2
			S25.7,3.8,25,3.8C16.2,3.8,8.5,9,5.2,17.2C5,17.6,4.6,17.9,4.1,17.9z"/>
	</g>
	<g>
		<path class="st2" d="M25,45.2c-0.2,0-0.4,0-0.7,0c-0.7,0-1.2-0.6-1.2-1.3c0-0.7,0.6-1.3,1.3-1.2c0.2,0,0.4,0,0.6,0
			c0.7,0,1.2,0.6,1.2,1.2S25.7,45.2,25,45.2z"/>
	</g>
	<g>
		<path class="st2" d="M24.4,45.2C24.4,45.2,24.3,45.2,24.4,45.2C13.3,44.9,4.8,36,4.8,25C4.8,13.8,13.8,4.8,25,4.8
			S45.2,13.8,45.2,25c0,4-1.2,7.9-3.4,11.2c-0.4,0.6-1.2,0.7-1.7,0.3c-0.6-0.4-0.7-1.2-0.3-1.7c1.9-2.9,3-6.3,3-9.8
			c0-9.8-8-17.8-17.8-17.8c-9.8,0-17.8,8-17.8,17.8c0,9.6,7.5,17.4,17.2,17.7c0.7,0,1.2,0.6,1.2,1.3C25.6,44.7,25,45.2,24.4,45.2z"
			/>
	</g>
	<g>
		<g>
			<path class="st2" d="M25.4,40.1c-8.4,0-15.2-6.8-15.2-15.2c0-8.4,6.8-15.2,15.2-15.2s15.2,6.8,15.2,15.2
				C40.6,33.3,33.8,40.1,25.4,40.1z M25.4,11.2c-7.5,0-13.7,6.1-13.7,13.7c0,7.5,6.1,13.7,13.7,13.7s13.7-6.1,13.7-13.7
				C39.1,17.4,32.9,11.2,25.4,11.2z"/>
		</g>
		<g>
			<g>
				<path class="st2" d="M20.5,28.7h-3.4c-0.6,0-1-0.4-1-1v-3.4c0-0.6,0.4-1,1-1h3.4c0.6,0,1,0.4,1,1v3.4
					C21.5,28.2,21,28.7,20.5,28.7z"/>
			</g>
			<g>
				<path class="st2" d="M26.1,25.4h-1.2c-0.3,0-0.5-0.2-0.5-0.5v-1.2c0-0.3,0.2-0.5,0.5-0.5h1.2c0.3,0,0.5,0.2,0.5,0.5v1.2
					C26.6,25.2,26.4,25.4,26.1,25.4z"/>
			</g>
			<g>
				<path class="st2" d="M27.2,32.2h-2.5c-0.6,0-1-0.4-1-1v-2.5c0-0.6,0.4-1,1-1h2.5c0.6,0,1,0.4,1,1v2.5
					C28.2,31.8,27.7,32.2,27.2,32.2z"/>
			</g>
			<g>
				<path class="st2" d="M33.7,26.8h-4.1c-0.6,0-1-0.4-1-1v-4.1c0-0.6,0.4-1,1-1h4.1c0.6,0,1,0.4,1,1v4.1
					C34.7,26.4,34.3,26.8,33.7,26.8z"/>
			</g>
			<g>
				<path class="st2" d="M24.5,21.4h-1.7c-0.6,0-1-0.4-1-1v-1.7c0-0.6,0.4-1,1-1h1.7c0.6,0,1,0.4,1,1v1.7
					C25.5,20.9,25,21.4,24.5,21.4z"/>
			</g>
		</g>
	</g>
</g>
</svg>
