<?xml version="1.0" encoding="UTF-8"?>
<svg id="Camada_1" data-name="Camada 1" xmlns="http://www.w3.org/2000/svg" viewBox="0 0 50 50">
  <defs>
    <style>
      .cls-1 {
        stroke-width: .5px;
      }

      .cls-1, .cls-2, .cls-3 {
        fill: none;
        stroke: #444;
        stroke-linecap: round;
        stroke-linejoin: round;
      }

      .cls-4 {
        fill: #00dffc;
      }

      .cls-4, .cls-5 {
        stroke-width: 0px;
      }

      .cls-5 {
        fill: #444;
      }

      .cls-3 {
        stroke-width: 2.5px;
      }
    </style>
  </defs>
  <path class="cls-4" d="M45.12,33.43l-.18,1.45-3.1,1.15-3.1,1.15-5.03,1.88-1.22.46-1.14.42-7.4,2.78-3.58,1.35c-.8-1.24-1.51-2.74-2.12-4.45-5.39,1.66-9.82,1.39-11.67-1.18-1.02-1.41-1.14-3.34-.49-5.56.44-1.52,1.24-3.17,2.35-4.88.72-1.12,1.59-2.27,2.58-3.42-4.17-5.18-5.8-10.17-3.74-13.02.63-.88,1.57-1.49,2.74-1.84,1.46-.44,3.28-.49,5.35-.17.94.14,1.93.35,2.95.65,1.81-4.99,4.52-8.15,7.56-8.15s5.69,3.09,7.51,7.97c4.81-1.23,8.69-.81,10.39,1.54,1.17,1.62,1.15,3.92.16,6.56-.57,1.5-1.45,3.11-2.61,4.75-.39.57-.82,1.14-1.28,1.71,2.67,3.12,4.44,6.21,5.07,8.85Z"/>
  <path class="cls-3" d="M25.88,47.95c-2.04,0-3.94-1.43-5.51-3.88-.8-1.24-1.51-2.74-2.12-4.45-.98-2.75-1.7-6.05-2.04-9.67-.15-1.59-.23-3.25-.23-4.95,0-1.93.1-3.81.3-5.61.37-3.44,1.08-6.57,2.04-9.19,1.81-4.99,4.52-8.15,7.56-8.15s5.69,3.09,7.51,7.97c1.05,2.83,1.81,6.26,2.17,10.04.15,1.59.23,3.24.23,4.94,0,1.46-.06,2.88-.17,4.26-.3,3.64-.96,6.98-1.91,9.8-.08.25-.17.5-.26.74-.63,1.73-1.37,3.24-2.2,4.48"/>
  <path class="cls-3" d="M44.49,38.44c-1.78,2.46-5.94,2.81-11.04,1.36-.31-.08-.63-.18-.96-.28-2.2-.71-4.55-1.73-6.96-3.05-1.8-.98-3.64-2.13-5.45-3.44-1.38-.99-2.67-2.03-3.87-3.08-2-1.76-3.75-3.57-5.19-5.37-4.17-5.18-5.8-10.17-3.74-13.02.63-.88,1.57-1.49,2.74-1.84,1.46-.44,3.28-.49,5.35-.17.94.14,1.93.35,2.95.65,2.26.64,4.71,1.63,7.21,2.94,2.03,1.07,4.1,2.35,6.15,3.83,1.38,1,2.68,2.03,3.88,3.09,1.69,1.48,3.2,3,4.49,4.52,2.67,3.12,4.44,6.21,5.07,8.85.48,1.99.3,3.72-.63,5.01Z"/>
  <path class="cls-3" d="M43.94,18.12c-.57,1.5-1.45,3.11-2.61,4.75-.39.57-.82,1.14-1.28,1.71-.93,1.16-1.99,2.33-3.16,3.48-.1.09-.19.19-.29.28-.09.09-.18.18-.28.26-.23.22-.46.44-.7.66-.84.78-1.74,1.54-2.68,2.28-.1.08-.2.17-.31.24-.11.09-.21.17-.32.25-.43.34-.88.67-1.33,1-1.81,1.31-3.64,2.46-5.45,3.44-2.52,1.39-4.99,2.44-7.28,3.15-5.39,1.66-9.82,1.39-11.67-1.18-1.02-1.41-1.14-3.34-.49-5.56.44-1.52,1.24-3.17,2.35-4.88.72-1.12,1.59-2.27,2.58-3.42.88-1.04,1.86-2.08,2.93-3.11.1-.08.19-.18.29-.27.1-.09.2-.18.3-.27.56-.52,1.14-1.03,1.74-1.54.53-.45,1.08-.89,1.64-1.33.1-.08.2-.16.31-.24.11-.08.21-.16.32-.24.27-.21.55-.41.83-.61,2.05-1.48,4.12-2.76,6.15-3.83,2.75-1.44,5.42-2.49,7.86-3.12,4.81-1.23,8.69-.81,10.39,1.54,1.17,1.62,1.15,3.92.16,6.56Z"/>
  <circle class="cls-2" cx="25.94" cy="24.98" r="5.98"/>
  <path class="cls-1" d="M22.35,25.88s0-4.06,3.91-4.06"/>
  <g>
    <path class="cls-4" d="M37.43,30.26c0,1.47-1.18,2.65-2.64,2.65-.49,0-.95-.13-1.34-.36-.78-.46-1.3-1.31-1.3-2.29,0-1.46,1.18-2.64,2.64-2.64.43,0,.84.11,1.21.28.85.45,1.43,1.34,1.43,2.36Z"/>
    <path class="cls-5" d="M36.89,28.06c-.21-.2-.45-.38-.72-.52-.14-.07-.29-.13-.43-.17-.31-.1-.63-.15-.95-.15-1.68,0-3.04,1.36-3.04,3.04,0,.64.2,1.26.56,1.77.24.35.56.64.93.86.46.28.99.42,1.55.42.11,0,.22-.01.33-.02,1.53-.16,2.71-1.46,2.71-3.03,0-.84-.34-1.63-.94-2.2ZM35.25,32.46c-.15.03-.3.05-.46.05-.41,0-.8-.11-1.14-.31-.29-.17-.53-.39-.71-.66-.25-.37-.39-.81-.39-1.28,0-1.24,1-2.24,2.24-2.24.3,0,.61.06.9.18.04,0,.09.03.13.05.18.1.35.22.5.35.45.43.71,1.03.71,1.66,0,1.08-.76,1.99-1.78,2.2Z"/>
  </g>
  <g>
    <path class="cls-4" d="M18.62,19.2c0,1.47-1.18,2.65-2.64,2.65-.49,0-.95-.13-1.34-.36-.78-.46-1.3-1.31-1.3-2.29,0-1.46,1.18-2.64,2.64-2.64.43,0,.84.11,1.21.28.85.45,1.43,1.34,1.43,2.36Z"/>
    <path class="cls-5" d="M18.55,17.58c-.28-.45-.69-.83-1.19-1.1-.21-.1-.42-.17-.63-.23-.25-.06-.5-.09-.75-.09-1.68,0-3.04,1.36-3.04,3.04,0,.88.37,1.7,1.01,2.27.14.14.31.26.48.36.46.28,1,.42,1.55.42h.08c1.64-.04,2.96-1.4,2.96-3.05,0-.59-.17-1.14-.47-1.62ZM16.11,21.44s-.09.01-.13.01c-.41,0-.8-.1-1.14-.3-.11-.06-.21-.13-.3-.22-.51-.42-.8-1.05-.8-1.73,0-1.23,1-2.24,2.24-2.24.21,0,.41.03.61.09.14.03.28.08.42.15.39.2.69.5.91.86.19.34.3.73.3,1.14,0,1.2-.93,2.18-2.11,2.24Z"/>
  </g>
</svg>