<svg xmlns="http://www.w3.org/2000/svg" id="Layer_1" x="0" y="0" version="1.1" viewBox="0 0 50 50" xml:space="preserve"><style>.st2{fill:#031326}</style><path fill="#e56060" d="M5.6 37.9l2.1 1.2 38-13.8.1-.3V14.7c0-1.1-.6-2-1.5-2.5L26.5 1.8c-.9-.5-2-.5-2.9 0l-18 10.3c-.9.5-1.5 1.5-1.5 2.5v20.7c0 1.1.6 2.1 1.5 2.6z"/><path fill="#ff6b6b" d="M37.2 7.9L26.5 1.8c-.9-.5-2-.5-2.9 0l-18 10.3c-.9.5-1.5 1.5-1.5 2.5V20L37.2 7.9z"/><path d="M25 49.9c-.7 0-1.5-.2-2.1-.6L5 39c-1.3-.7-2.1-2.1-2.1-3.6V14.7c0-1.5.8-2.9 2.1-3.6L22.9.7c1.3-.7 2.9-.7 4.2 0L45 11c1.3.7 2.1 2.1 2.1 3.6V25c0 .7-.6 1.2-1.2 1.2s-1.2-.6-1.2-1.2V14.7c0-.6-.3-1.2-.8-1.5L25.8 2.8c-.5-.3-1.2-.3-1.7 0L6.2 13.2c-.5.3-.8.9-.8 1.5v20.7c0 .6.3 1.2.8 1.5l17.9 10.3c.5.3 1.2.3 1.7 0l9-5.2c.6-.3 1.4-.1 1.7.5.3.6.1 1.4-.5 1.7l-9 5.2c-.5.3-1.3.5-2 .5z" class="st2"/><path d="M25 45.7c-.5 0-1-.1-1.5-.4L8.1 36.4c-.9-.5-1.5-1.5-1.5-2.5V16c0-1 .6-2 1.5-2.5l15.4-8.9c.9-.5 2-.5 2.9 0l15.4 8.9c.9.5 1.5 1.5 1.5 2.5v8.9c0 .2-.2.4-.4.4s-.4-.2-.4-.4V16c0-.8-.4-1.5-1.1-1.9L26.1 5.2c-.7-.4-1.5-.4-2.2 0L8.5 14.1c-.7.4-1.1 1.1-1.1 1.9v17.8c0 .8.4 1.5 1.1 1.9l15.4 8.9c.7.4 1.5.4 2.2 0l7.8-4.5c.2-.1.4 0 .5.1.1.2 0 .4-.1.5l-7.8 4.5c-.5.3-1 .5-1.5.5z" class="st2"/><path id="MobileMe" d="M33 35H17c-3.4 0-6.2-2.8-6.2-6.2 0-2.8 1.8-5.1 4.3-5.9.1-2.3 2-4.1 4.3-4.1.6 0 1.2.1 1.7.4 1.1-2.2 2.8-4 6.4-4 5.1 0 7.4 4 7.6 7.8 2.4.9 4.1 3.2 4.1 5.9 0 3.3-2.7 6.1-6.2 6.1zM19.4 20.7c-1.3 0-2.3 1-2.3 2.3v.4l.2 1-1 .2c-2 .3-3.5 2.1-3.5 4.2 0 2.3 1.9 4.2 4.2 4.2h16c2.3 0 4.2-1.9 4.2-4.2 0-2-1.4-3.7-3.4-4.1l-.8-.3.1-.9v-.4c0-2.8-1.5-6.1-5.6-6.1-2.9 0-4 1.3-5.1 3.8l-.5 1.2-1-.9c-.4-.2-1-.4-1.5-.4z" class="st2"/><path d="M29.1 25.9l-.6-.1-.3-.6.4-.5c.2-.2.1-.5-.1-.7l-.5-.6c-.1-.1-.2-.2-.4-.2-.1 0-.2 0-.3.1l-.5.4-.6-.3-.1-.6c0-.3-.3-.5-.6-.5h-.8c-.3 0-.5.2-.6.5l-.1.7-.6.3-.5-.4c-.1-.1-.2-.1-.3-.1-.2 0-.3.1-.4.2l-.6.6c-.2.2-.2.5-.1.7l.4.5-.3.6-.7.1c-.3 0-.5.3-.5.6v.8c0 .3.2.5.5.6l.7.1.3.6-.4.5c-.2.2-.1.5.1.7l.6.6c.1.1.2.2.4.2.1 0 .2 0 .3-.1l.5-.4c.2.1.4.2.6.2v.6c0 .3.3.5.6.5h.8c.3 0 .5-.2.6-.5l.1-.6.6-.3.5.4c.1.1.2.1.3.1.2 0 .3-.1.4-.2l.6-.6c.2-.2.2-.5.1-.7l-.4-.5.3-.6.6-.1c.3 0 .5-.3.5-.6v-.8c0-.3-.2-.5-.5-.6zm-4.1 3c-1.1 0-2-.9-2-2s.9-2 2-2 2 .9 2 2-.9 2-2 2z" class="st2"/></svg>