<?xml version="1.0" encoding="utf-8"?>
<!-- Generator: Adobe Illustrator 24.3.0, SVG Export Plug-In . SVG Version: 6.00 Build 0)  -->
<svg version="1.1" id="Layer_1" xmlns="http://www.w3.org/2000/svg" xmlns:xlink="http://www.w3.org/1999/xlink" x="0px" y="0px"
	 viewBox="0 0 48 47" style="enable-background:new 0 0 48 47;" xml:space="preserve">
<style type="text/css">
	.st0{fill:#E589EF;}
	.st1{fill:#F799FF;}
	.st2{fill:none;stroke:#444444;stroke-width:2.5;stroke-linecap:round;stroke-linejoin:round;stroke-miterlimit:10;}
	.st3{fill:#494949;stroke:#494949;stroke-linecap:round;stroke-linejoin:round;stroke-miterlimit:10;}
	.st4{fill:none;stroke:#494949;stroke-linecap:round;stroke-linejoin:round;stroke-miterlimit:10;}
</style>
<g>
	<g>
		<polygon class="st0" points="45.9,24.4 46.3,28.5 1.6,44.8 1.8,36.1 2.2,31.2 46.7,15 46,18.5 		"/>
		<polygon class="st1" points="46.2,8.5 45.6,15.9 1.9,31.8 1.9,22.5 2.3,18.2 46.3,2.2 		"/>
		<polyline class="st2" points="5.5,45.8 1.3,45.8 1.3,1.2 46.2,1.2 46.2,45.8 30.7,45.8 		"/>
	</g>
	<g>
		<polygon class="st3" points="36.9,11.1 36.9,16.9 31.8,19.8 26.8,16.9 26.8,11.1 31.8,8.2 		"/>
		<polygon class="st4" points="30.9,21.4 30.9,27.2 25.9,30 20.9,27.2 20.9,21.4 25.9,18.5 		"/>
		<polygon class="st4" points="25,11.1 25,16.9 20,19.8 15,16.9 15,11.1 20,8.2 		"/>
		<polygon class="st4" points="19,21.3 19,27.1 14,30 9,27.1 9,21.3 14,18.4 		"/>
		<polygon class="st3" points="25,31.6 25,37.4 20,40.3 15,37.4 15,31.6 20,28.7 		"/>
	</g>
</g>
</svg>
