<svg xmlns="http://www.w3.org/2000/svg" id="Layer_1" x="0" y="0" version="1.1" viewBox="0 0 50 50" xml:space="preserve"><style>.st1,.st2{fill:none;stroke:#444;stroke-linecap:round;stroke-linejoin:round;stroke-miterlimit:10}.st2{stroke-width:.5}.st4{fill:#444}</style><path fill="#fc9d9a" d="M34.1 2l-16.2.5c-1.3 0-6.5 7.7-6.5 9l-4.6 2.2.2 23.1 5.2 2.2c.7.4 9.9-2 7.9 3.7L16 49.2l16.8-6c-6.5-5.9 12.8-4.2 12.7-6.6l.2-22-3.4-2.8-2.1-3c0-1.3-4.8-6.8-6.1-6.8z"/><path d="M7.3 33.2h37" class="st1"/><path d="M25.4 35.6H27" class="st2"/><path d="M17.2 47.7c0-2 1.5-3.5 3.3-3.5H32" class="st1"/><path fill="none" stroke="#444" stroke-linecap="round" stroke-linejoin="round" stroke-miterlimit="10" stroke-width="2.5" d="M31.8 38.8h9.3c1.1 0 2.2-.4 3-1.2.9-.8 1.4-1.9 1.4-3.2V15.9c0-2.4-2-4.4-4.4-4.4h-.4c0-5.4-4.5-9.9-10-9.9H22c-5.5 0-10 4.5-10 9.9h-1.2c-2.4 0-4.4 2-4.4 4.4v18.5c0 2.4 2 4.4 4.4 4.4h9m5.5 9.7H16s-.2-4.7 4.2-4.9v-4.8m11.3.1v4.7s1.8.1 3 1.4"/><path d="M42.5 16.7c-1-1.9-2.6-3.3-4.9-4.3-.5-.2-1.1-.4-1.7-.6L37 10c.1-.2.1-.5-.1-.7-1.8-1.5-4.1-2-6.3-2l.6-1.9c.1-.3-.1-.6-.3-.7-3.5-1.3-7.1-.4-9.5.7-2.9 1.3-5.1 3.1-6.1 4.4h-.8c-.2 0-.3.1-.4.2-.1.1-.1.3-.1.5l5.8 20.9c.1.2.3.4.5.4h.7c.2 0 .3-.1.4-.2.1-.1.1-.3.1-.5l-4.6-16.9c.1 0 .1-.1.2-.1 1.3-1.8 3.2-3.4 5.3-4.4v.2l.1.3.9 2.8c0 .2.2.3.3.3.1.1.3 0 .5 0 1.4-.8 3-1.4 4.5-1.6v3.1c0 .1.1.3.2.4.1.1.3.1.4.1 4.3-.5 8.3 1 10 3.6.1.2.3.3.6.2.2 0 .4-.2.4-.4 0-.3.1-.6.1-.9 0-.4 0-.7-.1-1.1.5.2 1 .4 1.6.7.2.1.4.1.5 0 .1-.1.2-.3.2-.4 0-.2 0-.2-.1-.3z" class="st4"/><path d="M21 31.2h-.7l-5.8-20.9h.7zm9.8-26c-6.1-2.3-13.3 2.3-15.1 5l.9 3.5c3.2-4.4 8.9-6.8 13.3-5.7l.9-2.8zm11.3 11.7c-2.1-3.9-6.9-5.3-10.4-5.3l.5-.3c-.7-.1-2.4-.2-3 .2v3.2c4.2-.4 8.6.9 10.5 3.9.1-1 0-1.8-.2-2.7.8.3 1.6.6 2.6 1z" class="st4"/><path fill="none" stroke="#fc9d9a" stroke-miterlimit="10" stroke-width=".5" d="M17.4 14.6s2.3-6.5 15.5-7.8m-11.9 8s8.7-6.3 18-2.4m-11.5 2.7s4.6-.4 8.9 1.6"/><path d="M19.5 18H28m-7.6 2.4H28M10.6 18h4.3m-4.3 2.4h4.8m6 2.7h18.8m-18.1 2.4h18.1M23 27.6h17.2m-16.6 2.2h16.6m-29.5-6.7h5m-5 2.4h5.8m-5.8 2.1h6.4m-6.4 2.2h6.8" class="st2"/></svg>