<?xml version="1.0" encoding="utf-8"?>
<!-- Generator: Adobe Illustrator 27.7.0, SVG Export Plug-In . SVG Version: 6.00 Build 0)  -->
<svg version="1.1" id="Layer_1" xmlns="http://www.w3.org/2000/svg" xmlns:xlink="http://www.w3.org/1999/xlink" x="0px" y="0px"
	 viewBox="0 0 47.4 47.1" style="enable-background:new 0 0 47.4 47.1;" xml:space="preserve">
<style type="text/css">
	.st0{fill:#7DF4EB;}
	.st1{fill:none;stroke:#444444;stroke-width:2.5;stroke-linecap:round;stroke-linejoin:round;stroke-miterlimit:10;}
	.st2{fill:none;stroke:#494949;stroke-miterlimit:10;}
	.st3{fill:none;stroke:#494949;stroke-width:0.5;stroke-miterlimit:10;}
</style>
<g>
	<g>
		<g>
			<path class="st0" d="M41.6,11.8l-5.3-3.4L29,4.2l-5.7-2.7c-3,0-20.3,8.5-20.3,11.5l-0.5,7.4l0.5,14.3L14,41.8l29.3-10.4
				C44,31,42.5,13.6,41.6,11.8z"/>
			<g>
				<g>
					<path class="st1" d="M27.7,44l-2.1,1.2c-1.6,0.9-3.6,0.9-5.2,0L5.7,36.7c-1.6-0.9-2.6-2.6-2.6-4.5v-17c0-1.9,1-3.6,2.6-4.5
						l14.7-8.5c1.6-0.9,3.6-0.9,5.2,0l14.7,8.5c1.6,0.9,2.6,2.6,2.6,4.5v17c0,1.9-1,3.6-2.6,4.5L38,38"/>
				</g>
			</g>
		</g>
	</g>
	<g>
		<path class="st2" d="M25.3,12.5v4.7c0,0.2-0.1,0.5-0.3,0.6l-4.1,2.4c-0.2,0.1-0.5,0.1-0.7,0L16,17.8c-0.2-0.1-0.3-0.3-0.3-0.6
			v-4.7c0-0.2,0.1-0.5,0.3-0.6l4.1-2.4c0.2-0.1,0.5-0.1,0.7,0l4.1,2.4C25.1,12,25.3,12.2,25.3,12.5z"/>
		<g>
			<path class="st2" d="M25.2,31.9v4.7c0,0.2-0.1,0.5-0.3,0.6l-4,2.3c-0.2,0.1-0.5,0.1-0.7,0l-4-2.3c-0.2-0.1-0.3-0.3-0.3-0.6v-4.7
				c0-0.2,0.1-0.5,0.3-0.6l4-2.3c0.2-0.1,0.5-0.1,0.7,0l4,2.3C25.1,31.4,25.2,31.6,25.2,31.9z"/>
		</g>
		<g>
			<path class="st2" d="M36.1,12.5v4.7c0,0.2-0.1,0.5-0.3,0.6l-4.1,2.4c-0.2,0.1-0.5,0.1-0.7,0l-4.1-2.4c-0.2-0.1-0.3-0.3-0.3-0.6
				v-4.7c0-0.2,0.1-0.5,0.3-0.6L31,9.5c0.2-0.1,0.5-0.1,0.7,0l4.1,2.4C36,12,36.1,12.2,36.1,12.5z"/>
		</g>
		<path class="st2" d="M19.8,22.1v4.7c0,0.2-0.1,0.5-0.3,0.6l-4.1,2.4c-0.2,0.1-0.5,0.1-0.7,0l-4.1-2.4c-0.2-0.1-0.3-0.3-0.3-0.6
			v-4.7c0-0.2,0.1-0.5,0.3-0.6l4.1-2.4c0.2-0.1,0.5-0.1,0.7,0l4.1,2.4C19.7,21.7,19.8,21.9,19.8,22.1z"/>
		<path class="st2" d="M30.7,22.1v4.7c0,0.2-0.1,0.5-0.3,0.6l-4.1,2.4c-0.2,0.1-0.5,0.1-0.7,0l-4.1-2.4c-0.2-0.1-0.3-0.3-0.3-0.6
			v-4.7c0-0.2,0.1-0.5,0.3-0.6l4.1-2.4c0.2-0.1,0.5-0.1,0.7,0l4.1,2.4C30.6,21.7,30.7,21.9,30.7,22.1z"/>
	</g>
	<g>
		<path class="st3" d="M28.8,23.2v2.5c0,0.2-0.1,0.5-0.3,0.6l-2.1,1.2c-0.2,0.1-0.5,0.1-0.7,0l-2.1-1.2c-0.2-0.1-0.3-0.3-0.3-0.6
			v-2.5c0-0.2,0.1-0.5,0.3-0.6l2.1-1.2c0.2-0.1,0.5-0.1,0.7,0l2.1,1.2C28.6,22.8,28.8,23,28.8,23.2z"/>
		<path class="st3" d="M23.3,13.6v2.5c0,0.2-0.1,0.5-0.3,0.6l-2.1,1.2c-0.2,0.1-0.5,0.1-0.7,0L18,16.7c-0.2-0.1-0.3-0.3-0.3-0.6
			v-2.5c0-0.2,0.1-0.5,0.3-0.6l2.1-1.2c0.2-0.1,0.5-0.1,0.7,0L23,13C23.2,13.1,23.3,13.3,23.3,13.6z"/>
		<path class="st3" d="M17.7,23.2v2.5c0,0.2-0.1,0.5-0.3,0.6l-2.1,1.2c-0.2,0.1-0.5,0.1-0.7,0l-2.1-1.2C12.1,26.2,12,26,12,25.7
			v-2.5c0-0.2,0.1-0.5,0.3-0.6l2.1-1.2c0.2-0.1,0.5-0.1,0.7,0l2.1,1.2C17.5,22.8,17.7,23,17.7,23.2z"/>
	</g>
</g>
</svg>
