<?xml version="1.0" encoding="utf-8"?>
<!-- Generator: Adobe Illustrator 26.3.1, SVG Export Plug-In . SVG Version: 6.00 Build 0)  -->
<svg version="1.1" id="Camada_1" xmlns="http://www.w3.org/2000/svg" xmlns:xlink="http://www.w3.org/1999/xlink" x="0px" y="0px"
	 viewBox="0 0 50 50" style="enable-background:new 0 0 50 50;" xml:space="preserve">
<style type="text/css">
	.st0{fill:#AFE55D;}
	.st1{fill:#C3FF68;}
	.st2{fill:#444444;}
	.st3{fill:none;stroke:#494949;stroke-width:0.5;stroke-linecap:round;stroke-linejoin:round;stroke-miterlimit:10;}
	.st4{fill:none;stroke:#494949;stroke-linecap:round;stroke-linejoin:round;stroke-miterlimit:10;}
</style>
<g>
	<g>
		<g>
			<path class="st0" d="M5,45.4l41.8-15.2V8.6c0-3-2.4-5.4-5.4-5.4H8.6c-3,0-5.4,2.4-5.4,5.4v32.8C3.2,42.9,3.9,44.4,5,45.4z"/>
			<path class="st1" d="M45,4.6c-1-0.9-2.3-1.4-3.6-1.4H8.6c-3,0-5.4,2.4-5.4,5.4v11.3C3.2,19.8,45,4.6,45,4.6z"/>
			<path class="st2" d="M25,48.1H8.5c-3.6,0-6.6-3-6.6-6.6V8.5c0-3.6,2.9-6.6,6.6-6.6h33.1c3.6,0,6.6,2.9,6.6,6.6v21.7
				c0,0.6-0.5,1.2-1.2,1.2c-0.7,0-1.2-0.5-1.2-1.2l0,0V8.5c0-2.3-1.9-4.2-4.2-4.2H8.5c-2.3,0-4.2,1.9-4.2,4.2v33.1
				c0,2.3,1.9,4.2,4.2,4.2H25c0.6,0,1.2,0.5,1.2,1.1S25.7,48.1,25,48.1C25.1,48.1,25,48.1,25,48.1z"/>
		</g>
	</g>
	<g>
		<circle class="st3" cx="16.1" cy="15.8" r="2.3"/>
		<circle class="st4" cx="26.5" cy="39.4" r="2.3"/>
		<circle class="st4" cx="36.8" cy="15.8" r="2.3"/>
		<polyline class="st4" points="21.3,25.6 21.3,34.2 24.8,37.8 		"/>
		<circle class="st4" cx="39.1" cy="39.4" r="2.3"/>
		<path class="st4" d="M31.1,32.5h-2.9l-1.7-1.7V29h-1.7l-6.2-6.2c-3.9,1.4-8.2-0.7-9.6-4.6s0.7-8.2,4.6-9.6s8.2,0.7,9.6,4.6
			c0.6,1.6,0.6,3.4,0,5l2.1,2.1h6.9l3-3"/>
		<polyline class="st4" points="39.1,37.1 39.1,34.2 32.8,27.9 31.1,27.9 31.1,26.2 28.2,23.3 		"/>
	</g>
</g>
</svg>
