<?xml version="1.0" encoding="UTF-8"?>
<svg id="Layer_1" xmlns="http://www.w3.org/2000/svg" version="1.1" viewBox="0 0 50 50">
  <!-- Generator: Adobe Illustrator 29.5.0, SVG Export Plug-In . SVG Version: 2.1.0 Build 137)  -->
  <defs>
    <style>
      .st0 {
        stroke-miterlimit: 10;
      }

      .st0, .st1, .st2 {
        stroke: #444;
      }

      .st0, .st1, .st2, .st3 {
        fill: none;
      }

      .st0, .st3 {
        stroke-width: .5px;
      }

      .st1, .st2, .st3 {
        stroke-linecap: round;
        stroke-linejoin: round;
      }

      .st4 {
        fill: #dc5e82;
      }

      .st2 {
        stroke-width: 2.5px;
      }

      .st3 {
        stroke: #454444;
      }
    </style>
  </defs>
  <path class="st4" d="M44.7,12.3l-5.6-3.6-7.7-4.4-6-2.8C22.2,1.4,4,10.4,4,13.6l-.5,7.8.5,15.1,11.5,7.6,31-11c.7-.4-.8-18.7-1.8-20.7Z"/>
  <path class="st2" d="M29.9,46.3l-2.2,1.3c-1.7,1-3.8,1-5.5,0l-15.6-9c-1.7-1-2.7-2.8-2.7-4.7V15.9c0-2,1-3.8,2.7-4.7L22.3,2.2c1.7-1,3.8-1,5.5,0l15.6,9c1.7,1,2.7,2.8,2.7,4.7v18c0,2-1,3.8-2.7,4.7l-2.5,1.4"/>
  <path class="st3" d="M3.5,19.6l8.2-1.3c1.9-.3,3.2-2.1,2.9-4l-1.3-7.6"/>
  <line class="st3" x1="20.7" y1="47.7" x2="45.8" y2="22.6"/>
  <circle class="st0" cx="25" cy="4.9" r="2.8"/>
  <g>
    <polygon class="st1" points="19.8 10.5 35.7 10.5 31.3 22 27.7 16.2 24.1 22 19.8 10.5"/>
    <circle class="st1" cx="24" cy="25" r="2.2"/>
    <circle class="st1" cx="31.5" cy="25" r="2.2"/>
    <circle class="st1" cx="13.8" cy="25" r="2.2"/>
    <path class="st1" d="M33.4,26.1s1.1,1.8,1,3.5-1.7,3.7-3.8,4-4.5-.7-10.8,2.9c-.8.5-1.8.5-2.7.6-4.1,0-7.6-1.8-4-9.9"/>
    <path class="st1" d="M22.4,26.6s-.9,3.6-3.8,4.5-2,0-2.8-.7c-1.2-1.1-1.6-1.3-2-3.2"/>
  </g>
</svg>