<?xml version="1.0" encoding="utf-8"?>
<!-- Generator: Adobe Illustrator 24.0.0, SVG Export Plug-In . SVG Version: 6.00 Build 0)  -->
<svg version="1.1" id="Layer_1" xmlns="http://www.w3.org/2000/svg" xmlns:xlink="http://www.w3.org/1999/xlink" x="0px" y="0px"
	 viewBox="0 0 50 50" style="enable-background:new 0 0 50 50;" xml:space="preserve">
<style type="text/css">
	.st0{fill:#00C8E2;}
	.st1{fill:#00DFFC;}
	.st2{fill:#444444;}
</style>
<g>
	<g>
		<path class="st0" d="M5.6,37.9l2.1,1.2l38-13.8l0.1-0.3V14.7c0-1.1-0.6-2-1.5-2.5L26.5,1.8c-0.9-0.5-2-0.5-2.9,0l-18,10.3
			c-0.9,0.5-1.5,1.5-1.5,2.5v20.7C4.1,36.4,4.7,37.4,5.6,37.9z"/>
	</g>
	<g>
		<path class="st1" d="M37.2,7.9L26.5,1.8c-0.9-0.5-2-0.5-2.9,0l-18,10.3c-0.9,0.5-1.5,1.5-1.5,2.5V20L37.2,7.9z"/>
	</g>
	<g>
		<path class="st2" d="M25,49.9c-0.7,0-1.5-0.2-2.1-0.6L5,39c-1.3-0.7-2.1-2.1-2.1-3.6V14.7c0-1.5,0.8-2.9,2.1-3.6L22.9,0.7
			c1.3-0.7,2.9-0.7,4.2,0L45,11c1.3,0.7,2.1,2.1,2.1,3.6V25c0,0.7-0.6,1.2-1.2,1.2s-1.2-0.6-1.2-1.2V14.7c0-0.6-0.3-1.2-0.8-1.5
			L25.8,2.8c-0.5-0.3-1.2-0.3-1.7,0L6.2,13.2c-0.5,0.3-0.8,0.9-0.8,1.5v20.7c0,0.6,0.3,1.2,0.8,1.5l17.9,10.3c0.5,0.3,1.2,0.3,1.7,0
			l9-5.2c0.6-0.3,1.4-0.1,1.7,0.5s0.1,1.4-0.5,1.7l-9,5.2C26.5,49.7,25.7,49.9,25,49.9z"/>
	</g>
	<g>
		<path class="st2" d="M25,45.7c-0.5,0-1-0.1-1.5-0.4L8.1,36.4c-0.9-0.5-1.5-1.5-1.5-2.5V16c0-1,0.6-2,1.5-2.5l15.4-8.9
			c0.9-0.5,2-0.5,2.9,0l15.4,8.9c0.9,0.5,1.5,1.5,1.5,2.5v8.9c0,0.2-0.2,0.4-0.4,0.4s-0.4-0.2-0.4-0.4V16c0-0.8-0.4-1.5-1.1-1.9
			L26.1,5.2c-0.7-0.4-1.5-0.4-2.2,0L8.5,14.1c-0.7,0.4-1.1,1.1-1.1,1.9v17.8c0,0.8,0.4,1.5,1.1,1.9l15.4,8.9c0.7,0.4,1.5,0.4,2.2,0
			l7.8-4.5c0.2-0.1,0.4,0,0.5,0.1c0.1,0.2,0,0.4-0.1,0.5l-7.8,4.5C26,45.5,25.5,45.7,25,45.7z"/>
	</g>
	<g>
		<g id="MobileMe">
			<path class="st2" d="M33,35H17c-3.4,0-6.2-2.8-6.2-6.2c0-2.8,1.8-5.1,4.3-5.9c0.1-2.3,2-4.1,4.3-4.1c0.6,0,1.2,0.1,1.7,0.4
				c1.1-2.2,2.8-4,6.4-4c5.1,0,7.4,4,7.6,7.8c2.4,0.9,4.1,3.2,4.1,5.9C39.2,32.2,36.5,35,33,35z M19.4,20.7c-1.3,0-2.3,1-2.3,2.3
				c0,0.1,0,0.3,0,0.4l0.2,1l-1,0.2c-2,0.3-3.5,2.1-3.5,4.2c0,2.3,1.9,4.2,4.2,4.2h16c2.3,0,4.2-1.9,4.2-4.2c0-2-1.4-3.7-3.4-4.1
				L33,24.4l0.1-0.9c0-0.1,0-0.3,0-0.4c0-2.8-1.5-6.1-5.6-6.1c-2.9,0-4,1.3-5.1,3.8L21.9,22l-1-0.9C20.5,20.9,19.9,20.7,19.4,20.7z"
				/>
		</g>
	</g>
	<g>
		<path class="st2" d="M29.1,25.9l-0.6-0.1c-0.1-0.2-0.2-0.4-0.3-0.6l0.4-0.5c0.2-0.2,0.1-0.5-0.1-0.7L28,23.4
			c-0.1-0.1-0.2-0.2-0.4-0.2c-0.1,0-0.2,0-0.3,0.1l-0.5,0.4c-0.2-0.1-0.4-0.2-0.6-0.3l-0.1-0.6c0-0.3-0.3-0.5-0.6-0.5h-0.8
			c-0.3,0-0.5,0.2-0.6,0.5L24,23.5c-0.2,0.1-0.4,0.2-0.6,0.3l-0.5-0.4c-0.1-0.1-0.2-0.1-0.3-0.1c-0.2,0-0.3,0.1-0.4,0.2l-0.6,0.6
			c-0.2,0.2-0.2,0.5-0.1,0.7l0.4,0.5c-0.1,0.2-0.2,0.4-0.3,0.6L20.9,26c-0.3,0-0.5,0.3-0.5,0.6v0.8c0,0.3,0.2,0.5,0.5,0.6l0.7,0.1
			c0.1,0.2,0.2,0.4,0.3,0.6l-0.4,0.5c-0.2,0.2-0.1,0.5,0.1,0.7l0.6,0.6c0.1,0.1,0.2,0.2,0.4,0.2c0.1,0,0.2,0,0.3-0.1l0.5-0.4
			c0.2,0.1,0.4,0.2,0.6,0.2V31c0,0.3,0.3,0.5,0.6,0.5h0.8c0.3,0,0.5-0.2,0.6-0.5l0.1-0.6c0.2-0.1,0.4-0.2,0.6-0.3l0.5,0.4
			c0.1,0.1,0.2,0.1,0.3,0.1c0.2,0,0.3-0.1,0.4-0.2l0.6-0.6c0.2-0.2,0.2-0.5,0.1-0.7l-0.4-0.5c0.1-0.2,0.2-0.4,0.3-0.6l0.6-0.1
			c0.3,0,0.5-0.3,0.5-0.6v-0.8C29.6,26.2,29.4,26,29.1,25.9z M25,28.9c-1.1,0-2-0.9-2-2s0.9-2,2-2s2,0.9,2,2S26.1,28.9,25,28.9z"/>
	</g>
</g>
</svg>
