<svg xmlns="http://www.w3.org/2000/svg" version="1" viewBox="0 0 50 50"><path fill="#87D69B" d="M5.7 37.835l2.068 1.195L45.62 25.252l.145-.252V14.703a2.928 2.928 0 0 0-1.465-2.537L26.465 1.868a2.932 2.932 0 0 0-2.93 0L5.7 12.166a2.93 2.93 0 0 0-1.466 2.537v20.595c0 1.046.56 2.013 1.465 2.537z"/><path fill="#ABE2B9" d="M37.11 8.015L26.466 1.868a2.932 2.932 0 0 0-2.93 0L5.7 12.166a2.93 2.93 0 0 0-1.466 2.537v5.278L37.11 8.016z"/><path fill="#444" d="M25 49.633c-.7 0-1.397-.18-2.02-.54L5.144 38.796a4.054 4.054 0 0 1-2.02-3.5V14.704a4.05 4.05 0 0 1 2.02-3.498L22.98.907a4.048 4.048 0 0 1 4.04 0l17.834 10.297a4.052 4.052 0 0 1 2.02 3.5V25a1.11 1.11 0 0 1-2.22 0V14.703c0-.648-.35-1.252-.91-1.576L25.91 2.83a1.825 1.825 0 0 0-1.82 0L6.254 13.125c-.56.324-.91.928-.91 1.576v20.595c0 .648.35 1.252.91 1.576L24.09 47.17a1.82 1.82 0 0 0 1.82 0l8.953-5.168a1.11 1.11 0 1 1 1.11 1.922l-8.955 5.17a4.03 4.03 0 0 1-2.02.54z"/><path fill="#444" d="M25 36.305a2.19 2.19 0 0 1-1.093-.29l-7.9-4.562a2.19 2.19 0 0 1-1.09-1.893v-9.12c0-.78.418-1.504 1.09-1.893l7.9-4.56a2.196 2.196 0 0 1 2.186 0l7.9 4.56a2.19 2.19 0 0 1 1.09 1.893v9.12c0 .78-.418 1.505-1.09 1.894l-7.9 4.56c-.338.194-.716.29-1.094.29zm0-20.835a.41.41 0 0 0-.206.055l-7.9 4.56a.41.41 0 0 0-.204.356v9.122a.41.41 0 0 0 .205.355l7.9 4.56a.41.41 0 0 0 .41 0l7.898-4.56a.41.41 0 0 0 .205-.355V20.44a.41.41 0 0 0-.205-.355l-7.9-4.56A.41.41 0 0 0 25 15.47z"/></svg>