<svg xmlns="http://www.w3.org/2000/svg" id="Camada_1" data-name="Camada 1" version="1.1" viewBox="0 0 50 50"><defs><style>.cls-2{fill:none;stroke:#444;stroke-linecap:round;stroke-linejoin:round}</style></defs><path fill="#35d3c3" stroke-width="0" d="M26.4 23.8l7.8 2.4-6.7 4.8.1 8.2-6.6-4.9-7.8 2.6 2.7-7.8-4.9-6.5 8.2.1 4.7-6.7 2.5 7.8z"/><path fill="#7df4eb" stroke-width="0" d="M44.5 12.5l-5.6-3.6-7.7-4.4-6-2.8C22 1.7 3.8 10.6 3.8 13.8l-.5 7.8.5 15.1 11.5 7.6 31-11c.7-.4-.8-18.7-1.8-20.7z"/><path fill="none" stroke="#444" stroke-linecap="round" stroke-linejoin="round" stroke-width="2.5" d="M29.8 46.6l-2.2 1.3c-1.7 1-3.8 1-5.5 0l-15.6-9c-1.7-1-2.7-2.8-2.7-4.7v-18c0-2 1-3.8 2.7-4.7l15.6-9.1c1.7-1 3.8-1 5.5 0l15.6 9c1.7 1 2.7 2.8 2.7 4.7v18c0 2-1 3.8-2.7 4.7l-2.5 1.4"/><path d="M4.2 12.9l20.5 35.8" class="cls-2"/><path fill="none" stroke="#444" stroke-linecap="round" stroke-linejoin="round" stroke-width=".5" d="M4 37.3L11.5 26M45 12.9L38.5 24"/><path d="M25 1.3l20.9 35.5" class="cls-2"/></svg>