<svg xmlns="http://www.w3.org/2000/svg" data-name="Camada 2" viewBox="0 0 44.59 49.41"><g data-name="Ícones"><path fill="#a475ef" d="M41.97 12.1l-5.63-3.59-7.67-4.43-5.97-2.84c-3.2.01-21.45 8.95-21.45 12.15l-.53 7.8.53 15.13 11.5 7.56 31.02-11.04c.74-.42-.82-18.75-1.8-20.74z"/><path fill="none" stroke="#444" stroke-linecap="round" stroke-linejoin="round" stroke-width="2.5" d="M27.23 46.16l-2.2 1.27c-1.69.98-3.78.98-5.47 0L3.99 38.44a5.48 5.48 0 01-2.74-4.74V15.71a5.46 5.46 0 012.74-4.74l15.57-8.98c1.69-.98 3.78-.98 5.47 0l15.57 8.99a5.48 5.48 0 012.74 4.74V33.7a5.46 5.46 0 01-2.74 4.74l-2.46 1.42"/><path fill="none" stroke="#494949" stroke-miterlimit="10" d="M24.69 12.87v4.97c0 .26-.14.49-.36.62l-4.38 2.49c-.22.13-.49.12-.71 0l-4.29-2.49a.71.71 0 01-.35-.62v-4.98c0-.25.14-.49.35-.62l4.29-2.49c.22-.13.49-.13.71 0l4.38 2.49c.22.13.36.36.36.62zm-.06 20.52v4.96c0 .26-.14.5-.36.63L20 41.46c-.23.13-.5.13-.73 0L15 38.98a.735.735 0 01-.36-.63v-4.96c0-.26.14-.5.36-.63l4.27-2.48c.23-.13.5-.13.73 0l4.27 2.48c.22.13.36.37.36.63zm11.55-20.52v4.97c0 .26-.14.49-.36.62l-4.38 2.49c-.22.13-.49.12-.71 0l-4.29-2.49a.71.71 0 01-.35-.62v-4.98c0-.25.14-.49.35-.62l4.29-2.49c.22-.13.49-.13.71 0l4.38 2.49c.22.13.36.36.36.62zM18.93 23.06v4.97c0 .26-.14.49-.36.62l-4.38 2.49c-.22.13-.49.12-.71 0l-4.29-2.49a.71.71 0 01-.35-.62v-4.98c0-.25.14-.49.35-.62l4.29-2.49c.22-.13.49-.13.71 0l4.38 2.49c.22.13.36.36.36.62zm11.52 0v4.97c0 .26-.14.49-.36.62l-4.38 2.49c-.22.13-.49.12-.71 0l-4.29-2.49a.71.71 0 01-.35-.62v-4.98c0-.25.14-.49.35-.62L25 19.94c.22-.13.49-.13.71 0l4.38 2.49c.22.13.36.36.36.62z"/><path fill="none" stroke="#494949" stroke-miterlimit="10" stroke-width=".5" d="M28.38 24.23v2.64c0 .25-.14.49-.35.62l-2.27 1.32c-.22.13-.49.13-.71 0l-2.27-1.32a.71.71 0 01-.35-.62v-2.64c0-.25.14-.49.35-.62l2.27-1.32c.22-.13.49-.13.71 0l2.27 1.32c.22.13.35.36.35.62zm-5.77-10.19v2.64c0 .25-.14.49-.35.62l-2.27 1.32c-.22.13-.49.13-.71 0l-2.27-1.32a.71.71 0 01-.35-.62v-2.64c0-.25.14-.49.35-.62l2.27-1.32c.22-.13.49-.13.71 0l2.27 1.32c.22.13.35.36.35.62zm-5.97 10.19v2.64c0 .25-.14.49-.35.62l-2.27 1.32c-.22.13-.49.13-.71 0l-2.27-1.32a.71.71 0 01-.35-.62v-2.64c0-.25.14-.49.35-.62l2.27-1.32c.22-.13.49-.13.71 0l2.27 1.32c.22.13.35.36.35.62z"/></g></svg>