<?xml version="1.0" encoding="UTF-8"?>
<svg id="Camada_1" data-name="Camada 1" xmlns="http://www.w3.org/2000/svg" version="1.1" viewBox="0 0 50 50">
  <defs>
    <style>
      .cls-1 {
        stroke-width: .5px;
      }

      .cls-1, .cls-2, .cls-3 {
        fill: none;
        stroke: #444;
        stroke-linecap: round;
        stroke-linejoin: round;
      }

      .cls-4 {
        fill: #35d3c3;
      }

      .cls-4, .cls-5 {
        stroke-width: 0px;
      }

      .cls-3 {
        stroke-width: 2.5px;
      }

      .cls-5 {
        fill: #7df4eb;
      }
    </style>
  </defs>
  <polygon class="cls-4" points="26.4 23.8 34.2 26.2 27.5 31 27.6 39.2 21 34.3 13.2 36.9 15.9 29.1 11 22.6 19.2 22.7 23.9 16 26.4 23.8"/>
  <g>
    <path class="cls-5" d="M44.5,12.5l-5.6-3.6-7.7-4.4-6-2.8C22,1.7,3.8,10.6,3.8,13.8l-.5,7.8.5,15.1,11.5,7.6,31-11c.7-.4-.8-18.7-1.8-20.7Z"/>
    <path class="cls-3" d="M29.8,46.6l-2.2,1.3c-1.7,1-3.8,1-5.5,0l-15.6-9c-1.7-1-2.7-2.8-2.7-4.7v-18c0-2,1-3.8,2.7-4.7L22.1,2.4c1.7-1,3.8-1,5.5,0l15.6,9c1.7,1,2.7,2.8,2.7,4.7v18c0,2-1,3.8-2.7,4.7l-2.5,1.4"/>
    <g>
      <line class="cls-2" x1="4.2" y1="12.9" x2="24.7" y2="48.7"/>
      <line class="cls-1" x1="4" y1="37.3" x2="11.5" y2="26"/>
      <line class="cls-1" x1="45" y1="12.9" x2="38.5" y2="24"/>
      <line class="cls-2" x1="25" y1="1.3" x2="45.9" y2="36.8"/>
    </g>
  </g>
</svg>