<?xml version="1.0" encoding="utf-8"?>
<!-- Generator: Adobe Illustrator 26.3.1, SVG Export Plug-In . SVG Version: 6.00 Build 0)  -->
<svg version="1.1" id="Layer_1" xmlns="http://www.w3.org/2000/svg" xmlns:xlink="http://www.w3.org/1999/xlink" x="0px" y="0px"
	 viewBox="0 0 50 50" style="enable-background:new 0 0 50 50;" xml:space="preserve">
<style type="text/css">
	.st0{fill:#A475EF;}
	.st1{fill:#BF94F7;}
	.st2{fill:none;stroke:#444444;stroke-width:2.5;stroke-linecap:round;stroke-linejoin:round;stroke-miterlimit:10;}
	.st3{fill:#494949;}
	.st4{fill:none;stroke:#494949;stroke-width:0.5;stroke-linecap:round;stroke-linejoin:round;stroke-miterlimit:10;}
</style>
<g>
	<g>
		<polygon class="st0" points="46.9,25.9 47.3,30 2.6,46.3 2.8,37.6 3.2,32.7 47.7,16.5 47,20 		"/>
		<polygon class="st1" points="47.2,10 46.6,17.4 2.9,33.3 2.9,24 3.3,19.7 47.3,3.7 		"/>
		<polyline class="st2" points="6.5,47.3 2.3,47.3 2.3,2.7 47.2,2.7 47.2,47.3 31.7,47.3 		"/>
	</g>
	<g>
		<g>
			<circle class="st3" cx="9" cy="14.4" r="1.7"/>
			<circle class="st3" cx="17" cy="14.4" r="1.7"/>
			<circle class="st3" cx="25" cy="14.4" r="1.7"/>
			<circle class="st3" cx="33" cy="14.4" r="1.7"/>
			<circle class="st3" cx="41" cy="14.4" r="1.7"/>
		</g>
		<g>
			<circle class="st3" cx="9" cy="21.5" r="1.7"/>
			<circle class="st3" cx="17" cy="21.5" r="1.7"/>
			<circle class="st3" cx="25" cy="21.5" r="1.7"/>
			<circle class="st3" cx="33" cy="21.5" r="1.7"/>
			<circle class="st3" cx="41" cy="21.5" r="1.7"/>
		</g>
		<g>
			<circle class="st3" cx="25" cy="28.5" r="1.7"/>
			<circle class="st3" cx="33" cy="28.5" r="1.7"/>
			<circle class="st3" cx="41" cy="28.5" r="1.7"/>
		</g>
		<g>
			<circle class="st3" cx="33" cy="35.6" r="1.7"/>
			<circle class="st3" cx="41" cy="35.6" r="1.7"/>
		</g>
		<polyline class="st4" points="8.7,14.4 17,14.4 25,21.5 33,21.5 41,28.5 		"/>
		<polyline class="st4" points="9,21.5 17,21.5 25,14.4 41,14.4 		"/>
		<polyline class="st4" points="24.8,28.5 33,28.5 41,21.5 		"/>
		<line class="st4" x1="32.7" y1="35.6" x2="41" y2="35.6"/>
	</g>
</g>
</svg>
