<?xml version="1.0" encoding="utf-8"?>
<!-- Generator: Adobe Illustrator 27.3.1, SVG Export Plug-In . SVG Version: 6.00 Build 0)  -->
<svg version="1.1" id="Camada_3" xmlns="http://www.w3.org/2000/svg" xmlns:xlink="http://www.w3.org/1999/xlink" x="0px" y="0px"
	 viewBox="0 0 50 50" style="enable-background:new 0 0 50 50;" xml:space="preserve">
<style type="text/css">
	.st0{fill:#C3FF68;}
	.st1{fill:#AFE55D;}
	.st2{fill:none;stroke:#454444;stroke-width:2.5;stroke-linecap:round;stroke-linejoin:round;stroke-miterlimit:10;}
	.st3{fill:none;stroke:#444444;stroke-linecap:round;stroke-linejoin:round;stroke-miterlimit:10;}
	.st4{fill:none;stroke:#444444;stroke-linecap:square;stroke-linejoin:round;stroke-miterlimit:10;}
	.st5{fill:none;stroke:#444444;stroke-width:0.25;stroke-linecap:round;stroke-linejoin:round;stroke-miterlimit:10;}
</style>
<g>
	<path class="st0" d="M33.55,4.84l8.81,5.56l3.37,7.05L3.44,33.85l0.16-13.9c-0.07-1.11,0.37-5.19,1.11-6.02l5.25-4.02l13.19-8.2
		L33.55,4.84z"/>
	<polygon class="st1" points="45.86,22.13 45.84,22.61 45.81,24.16 6.89,38.14 4.42,36.74 3.37,35.51 2.86,32.43 3.12,28.56 
		45.43,12.3 44.91,12.5 46.14,16.16 	"/>
	<g>
		<g>
			<path class="st2" d="M21.76,48.22c1.69,0.98,3.78,0.98,5.47,0l15.57-8.99c1.69-0.98,2.74-2.78,2.74-4.74V16.51
				c0-1.96-1.04-3.76-2.74-4.74L27.24,2.78c-1.69-0.98-3.78-0.98-5.47,0L6.19,11.77c-1.69,0.98-2.74,2.78-2.74,4.74v17.98
				c0,1.96,1.04,3.76,2.74,4.74l3.16,1.82"/>
		</g>
	</g>
	<g>
		<path class="st3" d="M22.41,31.73l-6.23-6.23c-0.69-0.69-0.64-1.85,0.05-2.54l1.19-1.19"/>
		<path class="st3" d="M27.39,26.75l-8.1-8.1c-0.69-0.69-1.78-0.71-2.47-0.03l-0.01,0.01c-0.69,0.69-0.7,1.82-0.01,2.5l8.1,8.1"/>
		<path class="st4" d="M30.1,41.91l-1.46-1.46c-1.1-1.1-3.57-1.08-4.98-2.49l-7.47-7.47c-0.69-0.69-0.64-1.85,0.05-2.54l1.19-1.19"
			/>
		<path class="st3" d="M30.5,24.88c-0.37-0.37-6.85-6.85-6.85-6.85c-0.69-0.69-1.75-0.74-2.44-0.05l-1.3,1.3"/>
		<path class="st4" d="M39.56,32.69l-1.58-1.58c-1.06-1.06-1.39-2.25-1.65-3.63c-0.37-1.98-1.31-3.06-2.09-3.84
			c-0.78-0.78-1.61-1.61-3.11-3.11c-0.93-0.93-1.87-0.62-2.49,0l-1.25,1.25"/>
		<polyline class="st5" points="31.98,45.59 29.6,43.2 40.68,32.12 44.66,36.1 		"/>
		<path class="st4" d="M8.39,20.37l2.02,2.02c1.1,1.1,1.08,3.57,2.49,4.98l3.25,3.1"/>
		<path class="st4" d="M17.78,10.92l1.52,1.52c1.06,1.06,2.25,1.39,3.63,1.65c1.98,0.37,3.06,1.31,3.84,2.09
			c0.78,0.78,3.52,3.5,5.02,5.01"/>
		<polyline class="st5" points="3.63,18.14 6.74,21.25 18.26,9.73 15.15,6.62 		"/>
		<path class="st4" d="M17.95,40.65l1.48-1.48c0.76-0.76,2.18-0.99,3.46-1.52"/>
		<path class="st4" d="M8.53,31.39l1.56-1.56c1-1,1.32-2.48,1.58-3.76"/>
		<polyline class="st5" points="18.26,41.73 7.17,30.64 4.05,33.75 		"/>
		<path class="st4" d="M39.56,18.31l-1.58,1.58c-0.76,0.76-0.83,3.75-2.69,4.98"/>
		<path class="st4" d="M30.1,9.09l-1.46,1.46c-1,1-4.13,0.37-5.44,3.13"/>
		<polyline class="st5" points="45.34,14.92 41.04,19.22 29.52,7.7 31.9,5.32 		"/>
	</g>
</g>
</svg>
