<?xml version="1.0" encoding="utf-8"?>
<!-- Generator: Adobe Illustrator 26.5.0, SVG Export Plug-In . SVG Version: 6.00 Build 0)  -->
<svg version="1.1" id="Camada_3" xmlns="http://www.w3.org/2000/svg" xmlns:xlink="http://www.w3.org/1999/xlink" x="0px" y="0px"
	 viewBox="0 0 50 50" style="enable-background:new 0 0 50 50;" xml:space="preserve">
<style type="text/css">
	.st0{fill:#C3FF68;}
	.st1{fill:#AFE55D;}
	.st2{fill:none;stroke:#444444;stroke-width:2.5;stroke-linecap:round;stroke-linejoin:round;stroke-miterlimit:10;}
	.st3{fill:#444444;stroke:#444444;stroke-width:0.5;stroke-miterlimit:10;}
</style>
<g>
	<polygon class="st0" points="33.96,5.31 43.89,9.96 47.27,17.01 4.97,33.42 5.54,14.05 11.49,9.48 24.68,1.28 	"/>
	<polygon class="st1" points="47.39,21.7 47.37,22.17 47.34,23.72 7.5,38.04 5.95,36.3 4.89,35.07 4.39,31.99 4.64,28.12 
		46.96,11.86 46.44,12.06 47.66,15.72 	"/>
	<path class="st2" d="M31.11,46.57l-2.2,1.27c-1.69,0.98-3.78,0.98-5.47,0L7.86,38.85c-1.69-0.98-2.74-2.78-2.74-4.74V16.13
		c0-1.96,1.04-3.76,2.74-4.74L23.43,2.4c1.69-0.98,3.78-0.98,5.47,0l15.57,8.99c1.69,0.98,2.74,2.78,2.74,4.74v17.98
		c0,1.96-1.04,3.76-2.74,4.74l-2.46,1.42"/>
</g>
<g>
	<g>
		<g>
			<g>
				<path class="st3" d="M36.04,19.14c1.31-4.77,0.98-8.37-1.15-9.52c-1.64-0.98-4.1-0.17-7.06,2.13c-0.67,0.5-1.31,1.15-1.81,1.64
					c-0.67-0.67-1.31-1.15-1.81-1.64c-2.79-2.29-5.41-3.12-7.06-2.13c-2.13,1.15-2.46,4.92-1.15,9.52
					c-4.77,1.31-7.71,3.44-7.71,5.75c0,2.46,2.96,4.6,7.71,5.75c-0.17,0.81-0.5,1.64-0.5,2.46c-0.67,3.6,0,6.23,1.64,7.06
					c0.5,0.33,0.98,0.5,1.64,0.5c1.48,0,3.29-0.81,5.41-2.46c0.67-0.5,1.31-1.15,1.81-1.64c0.67,0.67,1.31,1.15,1.81,1.64
					c1.98,1.64,3.94,2.46,5.41,2.46c0.67,0,1.15-0.17,1.64-0.5c1.64-0.98,2.29-3.44,1.64-7.06c-0.17-0.81-0.33-1.64-0.5-2.46
					c4.77-1.31,7.71-3.44,7.71-5.75C43.75,22.41,40.79,20.28,36.04,19.14z M28.32,12.08c1.98-1.48,3.6-2.29,4.92-2.29
					c0.5,0,0.98,0.17,1.31,0.33c1.81,0.98,1.98,4.43,0.81,8.87c-1.64-0.33-3.44-0.67-5.41-0.81c-1.15-1.64-2.29-2.96-3.44-4.27
					C27.17,13.23,27.67,12.56,28.32,12.08z M31.44,27.99c-0.67,0.98-1.31,2.13-1.98,2.96c-1.15,0.17-2.29,0.17-3.6,0.17
					c-1.15,0-2.46,0-3.6-0.17c-0.67-0.98-1.31-1.98-1.98-2.96c-0.67-0.98-1.15-2.13-1.64-3.12c0.5-0.98,0.98-2.13,1.64-3.12
					c0.67-0.98,1.31-2.13,1.98-2.96c1.15-0.17,2.29-0.17,3.6-0.17c1.31,0,2.46,0,3.6,0.17c0.67,0.98,1.31,1.98,1.98,2.96
					c0.67,0.98,1.15,2.13,1.64,3.12C32.58,25.87,32.1,27.01,31.44,27.99z M33.56,25.7c0.67,1.48,1.31,2.96,1.64,4.43
					c-1.48,0.33-2.96,0.67-4.77,0.81c0.5-0.81,1.15-1.64,1.64-2.62C32.58,27.51,33.08,26.51,33.56,25.7z M26.02,35.55
					c-0.98-1.15-2.13-2.29-3.12-3.77c0.98,0,1.98,0.17,3.12,0.17c1.15,0,2.13,0,3.12-0.17C28.15,33.07,27,34.4,26.02,35.55z
					 M21.59,30.95c-1.64-0.17-3.29-0.5-4.77-0.81c0.5-1.48,0.98-2.96,1.64-4.43c0.5,0.81,0.98,1.81,1.48,2.62
					C20.44,29.3,20.94,30.13,21.59,30.95z M18.49,24.05c-0.67-1.48-1.31-3.12-1.64-4.43c1.48-0.33,2.96-0.67,4.77-0.81
					c-0.5,0.81-1.15,1.64-1.64,2.62C19.46,22.41,18.97,23.24,18.49,24.05z M26.02,14.21c0.98,1.15,2.13,2.29,3.12,3.77
					c-1,0.02-1.98-0.15-3.12-0.15c-1.15,0-2.13,0-3.12,0.17C23.9,16.66,25.05,15.35,26.02,14.21z M32.1,21.43
					c-0.5-0.81-0.98-1.81-1.64-2.62c1.64,0.17,3.29,0.5,4.77,0.81c-0.5,1.48-0.98,2.96-1.64,4.43
					C33.08,23.24,32.58,22.24,32.1,21.43z M17.49,10.1c1.31-0.81,3.6,0,6.23,1.98c0.67,0.5,1.15,0.98,1.81,1.64
					c-1.15,1.31-2.29,2.62-3.44,4.27c-1.98,0.17-3.77,0.5-5.41,0.81C15.53,14.54,15.7,11.1,17.49,10.1z M8.95,24.87
					c0-2.13,2.96-3.94,7.23-5.08c0.5,1.64,1.15,3.29,1.98,5.08c-0.81,1.81-1.48,3.44-1.98,5.08C11.91,28.82,8.95,27.01,8.95,24.87z
					 M23.73,37.67c-2.62,2.13-4.92,2.79-6.23,1.98s-1.81-3.12-1.31-6.39c0.17-0.81,0.33-1.64,0.5-2.46
					c1.64,0.33,3.44,0.67,5.41,0.81c1.15,1.64,2.29,2.96,3.44,4.27C24.88,36.53,24.38,37.17,23.73,37.67z M35.87,33.24
					c0.5,3.29,0,5.58-1.31,6.39c-1.31,0.81-3.6,0-6.23-1.98c-0.67-0.5-1.15-0.98-1.81-1.64c1.15-1.31,2.29-2.62,3.44-4.27
					c1.98-0.17,3.77-0.5,5.41-0.81C35.54,31.61,35.87,32.42,35.87,33.24z M35.87,29.97c-0.5-1.64-1.15-3.44-1.98-5.08
					c0.81-1.81,1.48-3.44,1.98-5.08c4.27,1.15,7.23,2.96,7.23,5.08S40.14,28.82,35.87,29.97z"/>
			</g>
		</g>
	</g>
	<circle class="st3" cx="25.53" cy="24.92" r="2.88"/>
</g>
</svg>
