<svg xmlns="http://www.w3.org/2000/svg" version="1" viewBox="0 0 50 50"><path fill="#FDABFF" d="M48.884 24.342V3.847a2.73 2.73 0 0 0-2.73-2.73H3.846a2.73 2.73 0 0 0-2.73 2.73v37.88l47.767-17.385z"/><path fill="#F799FF" d="M48.69 2.845a2.728 2.728 0 0 0-2.537-1.73H3.847a2.73 2.73 0 0 0-2.73 2.73V20.16L48.688 2.845z"/><path fill="#031326" d="M35.06 50H3.846A3.852 3.852 0 0 1 0 46.153V3.847A3.852 3.852 0 0 1 3.847 0h42.306A3.852 3.852 0 0 1 50 3.847V25a1.116 1.116 0 0 1-2.232 0V3.847c0-.89-.724-1.615-1.615-1.615H3.847c-.89 0-1.615.724-1.615 1.615v42.306c0 .89.724 1.615 1.615 1.615H35.06a1.116 1.116 0 0 1 0 2.232z"/><path fill="#031326" d="M14.594 42.61c-4.16 0-7.544-3.384-7.544-7.545 0-4.16 3.384-7.544 7.544-7.544s7.544 3.385 7.544 7.545-3.384 7.545-7.544 7.545zm0-13.303a5.765 5.765 0 0 0-5.76 5.758c0 3.176 2.584 5.76 5.76 5.76s5.76-2.584 5.76-5.76a5.765 5.765 0 0 0-5.76-5.758zM10.36 22.48c-.212 0-.423-.066-.603-.197a1.023 1.023 0 0 1-.41-1.008l.716-4.18-3.037-2.96a1.022 1.022 0 0 1-.26-1.057c.122-.376.442-.644.833-.7l4.195-.61 1.877-3.803c.175-.354.53-.574.923-.574.395 0 .75.22.923.575l1.877 3.803 4.197.61c.39.056.71.324.83.7.123.376.024.78-.26 1.057l-3.036 2.96.717 4.18c.067.39-.09.776-.41 1.008-.322.233-.738.26-1.087.076l-3.75-1.973-3.756 1.973c-.152.08-.316.12-.48.12zm-.35-1.7l-.004.002.005-.003zm9.164-.003l.005.003c-.003 0-.004-.002-.006-.003zm-9.806-6.852l2.613 2.547-.616 3.596 3.23-1.698 3.23 1.698-.617-3.596 2.613-2.547-3.61-.525-1.616-3.272L12.98 13.4l-3.612.525zm11.966.22h.002-.002zm-13.48 0zm34.064 28.227H28.2c-.487 0-.94-.262-1.184-.683a1.373 1.373 0 0 1 0-1.368l6.858-11.88a1.37 1.37 0 0 1 2.368 0l6.858 11.88a1.368 1.368 0 0 1-1.182 2.05zm-12.993-1.786h12.268L35.06 29.962l-6.135 10.624zM41.38 21.587H28.738a.33.33 0 0 1-.33-.33V8.613a.33.33 0 0 1 .33-.33H41.38a.33.33 0 0 1 .33.33v12.644a.33.33 0 0 1-.33.33z"/></svg>