<svg xmlns="http://www.w3.org/2000/svg" id="Camada_1" version="1.1" viewBox="0 0 300 300"><defs><style>.st7{fill:#030072}.st8{fill:#1a00d6}</style></defs><circle cx="143.19" cy="150" r="140" fill="#008dd3"/><g id="computer"><path fill="#545454" d="M64.48 84.48v131.3a5.56 5.56 0 005.56 5.56h222.1c2.59 0 4.68-2.1 4.68-4.68V84.98c0-2.86-2.32-5.18-5.18-5.18H69.16a4.68 4.68 0 00-4.68 4.68z"/><path fill="#ccc" d="M296.81 102.32H64.48v114.34c0 2.58 2.49 4.67 5.56 4.67h222.1c2.59 0 4.68-1.76 4.68-3.94V102.31z"/></g><path fill="#fff" d="M289.37 166.86s-4.79-11.32-12.08-1.63c-7.29 9.69 0 14.92 0 14.92s9.25 6.97 12.08 0c2.83-7.08 0-13.28 0-13.28z" opacity=".2" style="isolation:isolate"/><circle cx="284.98" cy="91.58" r="5.66" fill="#ef3030"/><circle cx="266.47" cy="91.58" r="5.66" fill="#f77839"/><circle cx="247.96" cy="91.58" r="5.66" fill="#54c654"/><path fill="#979a9b" d="M105.24 147.68a51.43 51.43 0 00-15.19-10.98l-7.33 7.76-10.48-2.49-3.06-10.23c-6.2-.15-12.47.81-18.5 2.97l.31 10.68-9.17 5.65-9.4-5.07a51.43 51.43 0 00-10.98 15.19l7.76 7.33-2.49 10.48-10.23 3.06c-.15 6.2.81 12.47 2.97 18.5l10.68-.31 5.65 9.17-5.07 9.4a51.43 51.43 0 0015.19 10.98l7.33-7.76 10.48 2.49 3.06 10.23c6.2.15 12.47-.81 18.5-2.97l-.31-10.68 9.17-5.65 9.4 5.07a51.43 51.43 0 0010.98-15.19l-7.76-7.33 2.49-10.48 10.23-3.06c.15-6.2-.81-12.47-2.97-18.5l-10.68.31-5.65-9.17 5.07-9.4zm-24.89 55.66c-11.1 6.84-25.64 3.38-32.48-7.71-6.84-11.1-3.38-25.64 7.71-32.48 11.1-6.84 25.64-3.38 32.48 7.71 6.84 11.1 3.38 25.64-7.71 32.48zm111.1 24.75c.06-4.22-.63-8.48-2.14-12.57l-7.26.27-3.9-6.2 3.39-6.42c-3.03-3.13-6.57-5.6-10.4-7.37l-4.94 5.33-7.14-1.63-2.14-6.94c-4.22-.06-8.48.63-12.57 2.14l.27 7.26-6.2 3.9-6.43-3.39c-3.13 3.03-5.6 6.57-7.37 10.4l5.33 4.94-1.63 7.14-6.94 2.14c-.06 4.22.63 8.48 2.14 12.57l7.26-.27 3.9 6.2-3.39 6.42c3.03 3.13 6.57 5.6 10.4 7.37l4.94-5.33 7.14 1.63 2.14 6.94c4.22.06 8.48-.63 12.57-2.14l-.27-7.26 6.2-3.9 6.43 3.39c3.13-3.03 5.6-6.57 7.37-10.4l-5.33-4.94 1.63-7.14 6.94-2.14zm-26.49 13.09c-7.51 4.72-17.42 2.46-22.14-5.05-4.72-7.51-2.46-17.42 5.05-22.14 7.51-4.72 17.42-2.46 22.14 5.05 4.72 7.51 2.46 17.42-5.05 22.14zM54.21 106.05a43.03 43.03 0 009.74 12.38l7.72-4.58 7.89 4.43.11 8.97a43.12 43.12 0 0015.64 1.87l2.22-8.7 8.71-2.45 6.42 6.27a43.03 43.03 0 0012.38-9.74l-4.58-7.72 4.43-7.89 8.97-.11a43.095 43.095 0 001.87-15.64l-8.7-2.22-2.45-8.71 6.27-6.42a43.03 43.03 0 00-9.74-12.38l-7.72 4.58-7.89-4.43-.11-8.97a43.095 43.095 0 00-15.64-1.87l-2.22 8.7-8.71 2.45-6.42-6.27a43.03 43.03 0 00-12.38 9.74l4.58 7.72-4.43 7.89-8.97.11a43.095 43.095 0 00-1.87 15.64l8.7 2.22 2.45 8.71-6.27 6.42zm32.96-39.22c10.55-2.96 21.5 3.19 24.46 13.73 2.96 10.55-3.19 21.5-13.73 24.46-10.55 2.96-21.5-3.19-24.46-13.73-2.96-10.55 3.19-21.5 13.73-24.46z"/><path d="M93.5 169.57l-6.81-10.73 6.78-2.85 77.6-36.16 6.41 10.16-83.98 39.58z" class="st7"/><path d="M88.73 160.54l75.9 34.76c3.36 1.54 7.18-.92 7.18-4.61v-68.21c0-3.66-3.76-6.11-7.11-4.64l-75.9 33.45c-4 1.76-4.04 7.42-.07 9.25z" class="st7"/><path d="M95.49 171.19l75.9 34.76c3.36 1.54 7.18-.92 7.18-4.61v-68.21c0-3.66-3.76-6.11-7.11-4.64l-75.9 33.45c-4 1.76-4.04 7.42-.07 9.25z" class="st8"/><path d="M191.74 169.57l-6.81-10.73 6.77-2.85 77.6-36.16 6.42 10.16-83.98 39.58z" class="st7"/><path d="M186.97 160.54l75.9 34.76c3.36 1.54 7.18-.92 7.18-4.61v-68.21c0-3.66-3.76-6.11-7.11-4.64l-75.9 33.45c-4 1.76-4.04 7.42-.07 9.25z" class="st7"/><path d="M193.73 171.19l75.9 34.76c3.36 1.54 7.18-.92 7.18-4.61v-68.21c0-3.66-3.76-6.11-7.11-4.64l-75.9 33.45c-4 1.76-4.04 7.42-.07 9.25z" class="st8"/></svg>