<?xml version="1.0" encoding="UTF-8"?>
<svg id="Camada_1" data-name="Camada 1" xmlns="http://www.w3.org/2000/svg" version="1.1" viewBox="0 0 300 300">
  <defs>
    <style>
      .cls-1 {
        fill: #00bf5f;
      }

      .cls-1, .cls-2, .cls-3, .cls-4 {
        stroke-width: 0px;
      }

      .cls-2 {
        fill: #008e43;
      }

      .cls-5 {
        fill: none;
        isolation: isolate;
        opacity: .2;
        stroke: #fff;
        stroke-linecap: round;
        stroke-linejoin: round;
        stroke-width: 9px;
      }

      .cls-3 {
        fill: #008dd3;
      }

      .cls-4 {
        fill: #fff;
      }
    </style>
  </defs>
  <circle class="cls-3" cx="140" cy="150" r="140"/>
  <g>
    <path class="cls-2" d="M280.3,261.9l-5.7-.7h0c-.1-1.7-.6-3.3-1.5-4.8l-17-29.2c31.2-33.6,40.2-84.1,18.8-127.7-27.8-56.4-96-79.6-152.4-51.9-56.4,27.8-79.6,96-51.9,152.4,27.8,56.4,96,79.6,152.4,51.9.6-.3,1.1-.6,1.7-.9l33.1,20.3c3.1,1.9,7,2.2,10.2.7h0s0,0,0,0c0,0,.1,0,.2-.1l12.1-10.1Z"/>
    <g>
      <path class="cls-1" d="M80.6,191.2c-27.8-56.4-4.5-124.7,51.9-152.4,56.4-27.8,124.7-4.5,152.4,51.9,21.4,43.6,18.6,86.8-12.6,120.4l10.8,36.5c2.7,4.7,1.7,10.8-2.6,14.2s-.2.1-.3.2c-3.6,2.8-8.6,3-12.4.6l-33.1-20.3c-.6.3-1.1.6-1.7.9-56.4,27.8-124.7,4.5-152.4-51.9Z"/>
      <polygon class="cls-4" points="117.4 153.8 175.2 199.7 255 97.6 230.8 79.7 171.1 157.9 137.7 128.9 117.4 153.8"/>
      <path class="cls-5" d="M87,166s23,81,100.6,72"/>
    </g>
  </g>
</svg>