<?xml version="1.0" encoding="UTF-8"?>
<svg xmlns="http://www.w3.org/2000/svg" version="1.1" viewBox="0 0 300 300">
  <defs>
    <style>
      .cls-1 {
        fill: #646464;
      }

      .cls-2 {
        fill: #00bf5f;
      }

      .cls-3 {
        fill: #54c654;
      }

      .cls-4 {
        fill: #ffda00;
      }

      .cls-5 {
        fill: #fff;
        isolation: isolate;
        opacity: .2;
      }

      .cls-6 {
        fill: #828d8e;
      }

      .cls-7 {
        fill: #ef3030;
      }

      .cls-8 {
        fill: #008dd3;
      }

      .cls-9 {
        stroke: #54c654;
        stroke-miterlimit: 10;
        stroke-width: 4px;
      }

      .cls-9, .cls-10 {
        fill: none;
      }

      .cls-11 {
        fill: #f7941e;
      }

      .cls-10 {
        stroke: #4d5152;
        stroke-linecap: round;
        stroke-linejoin: round;
        stroke-width: 2px;
      }

      .cls-12 {
        fill: #37393a;
      }

      .cls-13 {
        fill: #4d5152;
      }

      .cls-14 {
        fill: #eaeaea;
      }

      .cls-15 {
        fill: #979a9b;
      }

      .cls-16 {
        fill: #ed9751;
      }
    </style>
  </defs>
  <!-- Generator: Adobe Illustrator 28.6.0, SVG Export Plug-In . SVG Version: 1.2.0 Build 709)  -->
  <g>
    <g id="Camada_1">
      <g>
        <g id="Camada_2">
          <path class="cls-3" d="M286,149.2c.1,20.5-4.3,40-12,57.6-21.8,49.2-70.9,83.5-128.2,83.7-15.2.1-29.9-2.3-43.6-6.7-25.8-8.2-48.4-23.8-65.3-44.2-17.6-21.1-29.1-47.5-31.8-76.5-.4-4.2-.6-8.4-.6-12.7-.2-47.8,23.5-90.2,59.8-115.7,4.8-3.4,9.7-6.4,14.8-9.1,7.3-3.9,14.8-7.1,22.8-9.7,7.5-2.4,15.2-4.2,23.2-5.3,6.4-.9,12.9-1.4,19.5-1.5,25.9-.1,50.1,6.8,71.1,18.9,3.8,2.1,7.4,4.5,10.9,7,16.8,11.9,30.8,27.3,41,45.4,1.2,2,2.2,4.1,3.3,6.2.9,1.8,1.7,3.6,2.6,5.4,2.7,6,4.9,12.1,6.8,18.4,2,7.1,3.6,14.4,4.5,21.7h0c.8,5.7,1.2,11.4,1.2,17.1Z"/>
        </g>
        <g>
          <g>
            <g>
              <g id="computer">
                <path class="cls-13" d="M286.9,217.8H82.5v-117.2c0-9.3,7.6-16.9,16.9-16.9h170.7c9.3,0,16.9,7.6,16.9,16.9v117.2h0Z"/>
                <path class="cls-8" d="M277.2,94.8H96.9c-2.1,0-3.7,1.6-3.7,3.7v108.3h180.1c2.1,0,3.7-1.6,3.7-3.7v-108.3h0Z"/>
                <path class="cls-14" d="M276,241.6H93.2c-5.9,0-10.9-4.8-10.9-10.9v-12.9h204.5v12.9c0,6-4.8,10.9-10.9,10.9Z"/>
                <path class="cls-14" d="M166.9,266c-2.4,0-4.2-2.2-3.6-4.6,1.3-5.3,3.5-14.2,5.3-19.4l.2-.4h31.6l.3.7c2.2,6.2,4,12.6,5.4,19,.5,2.3-1.3,4.5-3.6,4.5l-35.6.2Z"/>
                <path class="cls-6" d="M199.5,253.8c2.5,0,4.3-2.4,3.5-4.7-.7-2.2-1.5-4.5-2.2-6.7l-.3-.7h-31.6l-.2.4c-.9,2.3-1.6,4.7-2.2,7.1-.7,2.3,1.1,4.7,3.5,4.7h29.5Z"/>
              </g>
              <path class="cls-5" d="M243.9,105.4s23.6-2.6,24,18.9v29.8s0,5.4-4.3,5.3c-1.8,0-5.3,0-5.8-5.3-.5-7,0-21.5-9.6-29.8-8.7-7.5-22-8-29.6-9.6-9.5-2.1-9.5-9.6-.5-9.5,8.6.2,25.8.3,25.8.3Z"/>
              <path class="cls-5" d="M269.1,167.7s-3.8-9-9.6-1.3c-5.8,7.7,0,11.8,0,11.8,0,0,7.3,5.5,9.6,0,2.2-5.6,0-10.5,0-10.5Z"/>
            </g>
            <line class="cls-10" x1="103.5" y1="121.3" x2="139.6" y2="121.3"/>
            <line class="cls-10" x1="112" y1="134" x2="260.8" y2="134"/>
            <line class="cls-10" x1="112" y1="146.5" x2="260.8" y2="146.5"/>
            <line class="cls-10" x1="112" y1="170.5" x2="193.2" y2="170.5"/>
            <line class="cls-10" x1="112" y1="182.2" x2="166.4" y2="182.2"/>
            <line class="cls-10" x1="112" y1="195.2" x2="153" y2="195.2"/>
            <line class="cls-10" x1="112" y1="158.7" x2="260.8" y2="158.7"/>
          </g>
          <g>
            <line class="cls-9" x1="277.1" y1="113" x2="92.7" y2="113"/>
            <g>
              <circle class="cls-7" cx="264.8" cy="104.1" r="4.5"/>
              <circle class="cls-16" cx="250.2" cy="104.1" r="4.5"/>
              <circle class="cls-2" cx="235.5" cy="104.1" r="4.5"/>
            </g>
          </g>
        </g>
      </g>
      <g>
        <g>
          <g>
            <path class="cls-4" d="M47,121.8l-4.9,23c0,0,9.5,2.6,15.6-1l-6.3-22.6-4.4.5Z"/>
            <g>
              <path class="cls-11" d="M47.9,123.7l-3.4,21.9c.3.1.7.2,1.1.2l2.3-22.1Z"/>
              <path class="cls-11" d="M49.8,124.3l1.7,21.6c.3,0,.5,0,.8,0l-2.5-21.5Z"/>
              <path class="cls-11" d="M50.8,123.6l4.8,21.4c.4,0,.8-.2,1.1-.4l-5.9-21Z"/>
            </g>
          </g>
          <g>
            <g>
              <path class="cls-1" d="M80.3,120c4.6,5.8,16.7,4.9,25.3,3.5,7.2-1.2,19.1-4.8,26.9-7.9,1.4-.6,3.1-1.3,4.8-2.1h0c6.7-3.2,15-7.9,19.7-11.2,3.7-2.6,8-6.1,11.1-9.8.7-.9,1.4-1.8,2-2.7,1.7-2.6,2.7-5.3,2.4-7.9-1.5-3.6-6.1-13.1-10.1-21.4-3.7-7.5-6.9-14-6.9-14,0,0-1.9,1.5-4.8,3.8-1,.8-2.1,1.6-3.2,2.5-9.4,7.3-24.5,18.6-32,21.7-3.3,1.4-8.9,2.7-15.1,3.8-14.8,2.8-33.1,4.6-33.1,4.6,0,0,2.2,6.5,4.9,14.2,3,8.8,6.6,19.1,8.2,22.8Z"/>
              <path class="cls-12" d="M78.8,120.5c4.6,5.8,16.7,4.9,25.3,3.5,7.2-1.2,19.1-4.8,26.9-7.9,1.4-.6,3.1-1.3,4.8-2.1-12.2,4.1-21.9,2.9-29.3-6.3-3.9-4.8-7.4-12.4-7.4-19.8,0-3-.1-6.2-.2-8.9-14.8,2.8-33.1,4.6-33.1,4.6,0,0,10.2,30.1,13,37Z"/>
              <path class="cls-5" d="M147.5,52.8c1.8,2.6,3.3,5,4.8,7.6,2.6,4.8,4.9,8.6,7.6,14.4,2.1,4.6,6,13.3,8.3,17.6.7-.9,1.4-1.8,2-2.7-.8-8-6.4-17.7-10.6-24.8-2.6-4.4-5.3-9.4-8.8-14.6-1,.8-2.1,1.6-3.2,2.5Z"/>
            </g>
            <path class="cls-12" d="M162,61.4l-38.5,35.1-51.4,2.7c-2.7-7.9-5-14.7-5-14.7,0,0,2.4-.2,6.1-.7,1.2-.1,2.6-.3,4.1-.5,11.8-1.5,30.5-4.2,38-7.3,3.3-1.4,8.2-4.4,13.4-8,12.4-8.5,26.7-20.1,26.7-20.1,0,0,3.1,6.2,6.6,13.5Z"/>
            <g>
              <path class="cls-1" d="M193.6,23h0c0-.1-.1-.2-.2-.3,0-.1,0-.2-.2-.3h0c-.2-.5-.5-.9-.7-1.3l-72.5,63.7-95.9,5.4c0,.9,0,2,.1,3.1,0,0,0,0,0,0,0,0,0,0,0,0h0c0,.5.1,1,.2,1.4l97.5-5.3L194.2,24.4c-.2-.4-.4-.9-.6-1.4Z"/>
              <g>
                <polygon class="cls-15" points="100.1 30.3 24.2 90.2 120.5 85.9 192.6 21.1 100.1 30.3"/>
                <path class="cls-5" d="M177.3,24.7l-33.4,3c-1.2.1-1.2,1.9,0,2l21.5.6c.8,0,1.3,1,.7,1.7l-32,33.7c-.9.9.4,2.2,1.4,1.4l43.3-38.7c1.5-1.3.4-3.8-1.6-3.6Z"/>
              </g>
            </g>
            <path class="cls-4" d="M103.9,57.4l-.8-.7c-8.6,4-20,10-26.6,13.7-6.6,3.6-19,10-23.3,12.8-4.5,2.9-6.2,3.4-6.2,10v27.7h1.8c0,0,1.7,0,1.7,0l-.5-28.4c0-4.3.7-5.2,3.3-6.7,6.3-3.7,17.8-9.9,24.2-13.3,6.5-3.4,20.3-10.8,27.4-14.1l-1-.9Z"/>
            <g>
              <path class="cls-1" d="M115.3,51.2c-1-2.3-5-2.1-9.3-.3-4.3,1.8-7.4,4.5-6.4,6.8,1,2.3,5.3,2.9,9.6,1.1,4.3-1.8,7.1-5.1,6.1-7.6Z"/>
              <path class="cls-5" d="M108.6,50.3c-4.4,1.8-4.1,4.7.7,2.9,1.7-.6,3.8-1.6,5.2-2.7-1-1.3-4.5-.8-5.9-.2Z"/>
            </g>
          </g>
        </g>
        <g>
          <path class="cls-11" d="M52,121.8c0-1.6-1.4-2.8-3-2.8,0,0,0,0,0,0,0,0,0,0,0,0,0,0-.1,0-.2,0-.1,0-.3,0-.4,0,0,0,0,0-.1,0-.1,0-.3,0-.4.1,0,0,0,0-.1,0-.1,0-.2.1-.4.2,0,0,0,0-.1.1-.1,0-.2.2-.3.3,0,0,0,.1-.1.2,0,0-.2.2-.2.3,0,0,0,.1-.1.2,0,0,0,.2-.1.3,0,.1,0,.2,0,.3,0,0,0,.1,0,.2,0,.2,0,.3,0,.5,0,0,0,0,0,0,0,.8.4,1.5.9,2,.3.3.6.5.9.6.3.1.7.2,1.1.2.2,0,.4,0,.5,0,0,0,.1,0,.2,0,.1,0,.2,0,.3-.1,0,0,.1,0,.2-.1,0,0,.2,0,.3-.2,0,0,.1,0,.2-.1,0,0,0,0,.1,0,0,0,0,0,0,0,.6-.5,1-1.4,1-2.3Z"/>
          <path class="cls-5" d="M50.3,119.7c-2-.1-1.4,3.2.2,3.2,1.8,0,1.4-3.1-.2-3.2Z"/>
        </g>
      </g>
    </g>
  </g>
</svg>
