<svg xmlns="http://www.w3.org/2000/svg" version="1.0" viewBox="0 0 300 300"><circle cx="145.127" cy="154.873" r="145.127" fill="#FFBE00"/><path fill="#515759" d="M144.149 18.162s-17.73 7.742-19.144 16.458c-7.346 34.659-16.982 43.831-56.38 65.403-50.842 27.837-49.062 82.993-4.934 100.942s73.491-18.806 94.694-97.375c21.204-78.57-14.236-85.428-14.236-85.428zm-28.324 162.212c-23.666 38.446-60.319 19.797-63.422 1.834-3.103-17.964 13.186-49.078 39.401-59.72 52.723-21.402 45.351-62.196 54.079-73.016 22.015-26.154-6.392 92.456-30.058 130.902z"/><path fill="#FF8900" d="M283.799 182.728L169.144 34.693l-21.133 17.706-43.987 70.808 43.4 96.444 87.378 25.618 21.133-17.705z"/><path fill="#FF981E" d="M169.144 34.693l-43.987 70.808 43.399 96.444 87.379 25.619 43.993-70.791-43.399-96.444z"/><path fill="#FF981E" d="M180.945 187.722l-36.418-80.931 32.296-51.988 67.316 19.748 36.419 80.93-32.302 51.975z"/><path fill="#FF981E" d="M175.805 190.292l-36.419-80.931 32.297-51.988 67.316 19.748 36.418 80.931-32.301 51.974z"/><path fill="#FF981E" d="M169.144 34.693l-43.987 70.808 43.399 96.444 87.379 25.619 43.993-70.791-43.399-96.444z"/><path fill="#FFB243" d="M244.138 74.551l-67.312-19.747-2.142 3.452-30.157 48.534 36.42 80.934 64.314 18.848 2.998.883 32.299-51.978z"/><path fill="#FF8900" d="M280.558 155.477l-32.299 51.978-2.998-.883 30.157-48.524-36.42-80.927-64.314-18.865 2.142-3.452 67.312 19.747zm-110.88-127.54c-3.152-6.759-11.187-9.684-17.946-6.532L138.447 27.6c-6.76 3.152-9.684 11.187-6.532 17.946l9.094 19.503 37.762-17.609-9.093-19.503zm-9.577 12.299c-2.08.97-4.551.07-5.521-2.01a4.151 4.151 0 012.015-5.51l.252-.118a4.152 4.152 0 015.516 1.999 4.098 4.098 0 01.135 3.175 4.094 4.094 0 01-2.144 2.346l-.253.118z"/><path fill="#FF981E" d="M182.539 21.94c-3.152-6.759-11.187-9.684-17.946-6.532l-13.284 6.195c-6.759 3.152-9.684 11.187-6.532 17.946l9.094 19.503 37.762-17.609-9.094-19.503zm-22.438 18.296c-2.08.97-4.551.07-5.521-2.01a4.151 4.151 0 012.015-5.51l.252-.118a4.152 4.152 0 015.516 1.999 4.098 4.098 0 01.135 3.175 4.094 4.094 0 01-2.144 2.346l-.253.118z"/><path fill="#FF8900" d="M173.215 34.121l-12.861 5.997a4.094 4.094 0 002.144-2.346c.373-1 .35-2.136-.135-3.175a4.152 4.152 0 00-5.516-1.999l12.861-5.997a4.152 4.152 0 015.516 1.999c.485 1.04.497 2.18.135 3.175a4.1 4.1 0 01-2.144 2.346z"/><path fill="#606666" d="M169.843 30.434l-15.455 7.033-7.103-15.61a4.66 4.66 0 00-6.174-2.312l15.688-7.138a8.818 8.818 0 0111.679 4.374l3.554 7.81a4.412 4.412 0 01-2.189 5.843z"/><path fill="#FF8900" d="M211.698 88.237l-4.666-4.725-6.831 4.041 8.622 76.81-4.955-6.239.128-1-2.045-1.413-12.819-16.138 1.706-13.914 2.574-7.478-1.448-1.7 1.293-10.544-6.831 4.041-13.328 38.736 29.371 20.29 6.447-3.814 1.473 13.121 7.664.436 6.831-4.042-3.706-2.855z"/><path fill="#FF8900" d="M237.131 145.557l3.554-14.973 4.472-12.998-1.192-.823.073-.309-21.422-23.2-6.831 4.042-1.077 6.312.242.181-.692 5.387 19.375 13.388-8.79 25.555 6.985 8.203 6.831-4.041z"/><path fill="#FF981E" d="M222.616 93.255l-1.527 11.88 19.375 13.388-8.791 25.554 6.986 8.204 13.329-38.736zm-15.584-9.743l10.188 90.757 7.664.436-10.188-90.757zm-13.775 22.425l-13.329 38.736 29.372 20.29 1.527-11.881-19.38-13.385 8.796-25.557z"/></svg>