<?xml version="1.0" encoding="utf-8"?>
<!-- Generator: Adobe Illustrator 22.1.0, SVG Export Plug-In . SVG Version: 6.00 Build 0)  -->
<svg version="1.0" id="Layer_1" xmlns="http://www.w3.org/2000/svg" xmlns:xlink="http://www.w3.org/1999/xlink" x="0px" y="0px"
	 viewBox="0 0 300 300" enable-background="new 0 0 300 300" xml:space="preserve">
<g>
	<g>
		<g>
			<circle fill="#FFBE00" cx="145.092" cy="154.908" r="145.092"/>
		</g>
	</g>
	<g>
		<path fill="#515759" d="M158.115,6.81c0,0-19.753,8.006-21.566,17.563c-9.107,37.955-19.989,47.773-64.011,70.373
			c-56.809,29.165-56.468,89.96-8.397,111.022s81.487-18.554,107.144-104.46C196.944,15.403,158.115,6.81,158.115,6.81z
			 M122.162,184.623c-27.192,41.646-67.011,20.032-69.901,0.158c-2.89-19.874,16.058-53.413,45.145-64.613s51.77-67.165,61.7-78.825
			C184.118,13.185,149.354,142.977,122.162,184.623z"/>
		<path fill="#FF8900" d="M184.819,18.293c-3.008-7.106-11.207-10.429-18.313-7.421l-13.966,5.911
			c-7.107,3.008-10.429,11.207-7.421,18.313l8.679,20.504l39.701-16.804L184.819,18.293z M174.46,30.654
			c-2.186,0.925-4.709-0.097-5.634-2.283c-0.921-2.175,0.102-4.697,2.288-5.623l0.265-0.112c2.186-0.925,4.709,0.097,5.629,2.272
			c0.463,1.093,0.444,2.268,0.021,3.288c-0.407,1.027-1.211,1.883-2.304,2.346L174.46,30.654z"/>
		<g>
			<polygon fill="#FF8900" points="254.093,197.53 253.434,160.357 264.1,105.373 224.625,69.641 209.638,48.071 227.934,12.501 
				192.106,22.839 153.67,45.997 148.356,47.004 146.307,43.843 110.479,54.182 111.525,113.068 100.859,168.053 140.334,203.785 
				172.85,250.578 208.678,240.239 207.923,229.447 211.286,227.42 254.477,219.235 290.306,208.897 			"/>
			<g>
				<polygon fill="#FF981E" points="227.934,12.501 189.498,35.658 146.307,43.843 147.353,102.73 136.687,157.714 176.163,193.446 
					208.678,240.239 247.114,217.082 290.305,208.897 289.263,150.019 299.928,95.034 260.453,59.303 				"/>
			</g>
			<g>
				<path fill="#FFB243" d="M193.756,52.223c-29.967,11.503-43.273,54.024-29.714,94.973c13.562,40.957,48.851,64.824,78.818,53.321
					c29.967-11.503,43.274-54.024,29.712-94.982C259.013,64.587,223.723,40.72,193.756,52.223"/>
			</g>
			<g>
				<path fill="#FF8900" d="M244.269,199.939c25.301-14.808,35.711-53.992,23.174-91.831
					c-13.555-40.952-48.844-64.824-78.821-53.314c-0.463,0.175-0.915,0.36-1.367,0.555c2.076-1.213,4.244-2.251,6.505-3.124
					c29.966-11.51,65.256,12.362,78.81,53.314C285.919,145.844,273.238,187.669,244.269,199.939z"/>
			</g>
			<g>
				<polygon fill="#FF8900" points="236.26,129.297 245.266,100.118 219.157,104.839 215.812,101.084 206.444,76.672 
					197.219,80.212 197.389,113.193 174.824,127.151 201.039,142.814 209.031,176.068 218.256,172.528 220.628,159.213 
					225.063,152.767 252.567,159.361 261.791,155.821 239.593,135.442 				"/>
				<polygon fill="#FF981E" points="234.287,149.227 218.256,172.528 210.264,139.274 184.049,123.611 206.613,109.653 
					206.444,76.672 228.381,101.299 254.491,96.578 245.485,125.757 261.791,155.821 				"/>
			</g>
		</g>
		<path fill="#FF981E" d="M198.34,12.57c-3.008-7.106-11.207-10.429-18.313-7.421L166.06,11.06
			c-7.106,3.008-10.429,11.207-7.421,18.313l8.679,20.504l39.701-16.804L198.34,12.57z M174.46,30.654
			c-2.186,0.925-4.709-0.097-5.634-2.283c-0.921-2.175,0.102-4.697,2.288-5.623l0.265-0.112c2.186-0.925,4.709,0.097,5.629,2.272
			c0.463,1.093,0.444,2.268,0.021,3.288c-0.407,1.027-1.211,1.883-2.304,2.346L174.46,30.654z"/>
		<path fill="#FF8900" d="M188.246,24.819l-13.521,5.723c1.093-0.463,1.897-1.319,2.304-2.346c0.423-1.02,0.442-2.195-0.021-3.288
			c-0.921-2.175-3.443-3.197-5.629-2.272l13.521-5.723c2.186-0.925,4.709,0.097,5.629,2.272c0.463,1.093,0.433,2.273,0.021,3.288
			C190.143,23.5,189.339,24.356,188.246,24.819z"/>
		<path fill="#606666" d="M186.053,21.079l-17.227,7.291l-7.364-17.399c-1.106-2.612-4.119-3.833-6.731-2.728l17.486-7.401
			c4.941-2.091,10.642,0.219,12.733,5.16l3.685,8.706C189.681,17.18,188.525,20.033,186.053,21.079z"/>
	</g>
</g>
</svg>
