<svg xmlns="http://www.w3.org/2000/svg" version="1.0" viewBox="0 0 300 300"><circle cx="145.127" cy="154.873" r="145.127" fill="#FFBE00"/><path fill="#515759" d="M144.184 18.095s-17.734 7.744-19.148 16.462c-7.347 34.668-16.986 43.842-56.394 65.418-50.854 27.844-49.074 83.012-4.936 100.966s73.508-18.811 94.717-97.398c21.209-78.588-14.239-85.448-14.239-85.448zm-28.331 162.251c-23.672 38.456-60.334 19.802-63.437 1.834-3.104-17.968 13.282-48.865 39.411-59.734s45.361-62.211 54.092-73.033c22.019-26.161-6.394 92.477-30.066 130.933z"/><path fill="#FF8900" d="M283.866 182.7L169.184 34.63l-21.138 17.71-43.997 70.825 43.41 96.467 87.399 25.624 21.138-17.71z"/><g fill="#FF981E"><path d="M169.184 34.63l-43.997 70.825 43.409 96.467 87.4 25.624L300 156.739l-43.41-96.467z"/><path d="M180.988 187.695l-36.427-80.95 32.304-52.001 67.333 19.753 36.427 80.95-32.309 51.987z"/><path d="M175.847 190.266l-36.427-80.95 32.304-52.001 67.332 19.753 36.427 80.95-32.309 51.987z"/></g><path fill="#FF981E" d="M169.184 34.63l-43.997 70.825 43.409 96.467 87.4 25.624L300 156.739l-43.41-96.467z"/><path fill="#FFB243" d="M244.197 74.497l-67.329-19.752-2.142 3.454-30.164 48.545 36.428 80.954 64.329 18.852 3 .883 32.306-51.99z"/><path fill="#FF8900" d="M280.625 155.443l-32.306 51.99-3-.883 30.164-48.536-36.428-80.946-64.329-18.869 2.142-3.454 67.329 19.752z"/><path fill="#FF8900" d="M229.807 133.639l8.412-28.257-25.161 4.81-3.266-3.592-9.281-23.477-8.871 3.507.484 31.838-21.649 13.694 25.46 14.867 8.038 32.027 8.871-3.507 2.161-12.878 4.219-6.266 26.617 6.099 8.871-3.507-21.628-19.459z"/><path fill="#FF981E" d="M228.095 152.898l-15.251 22.651-8.038-32.027-25.46-14.867 21.649-13.694-.484-31.839 21.418 23.563 25.161-4.81-8.412 28.257 16.034 28.865z"/><path fill="#FF8900" d="M169.718 27.872c-3.153-6.761-11.19-9.686-17.95-6.533l-13.288 6.196c-6.761 3.153-9.686 11.189-6.533 17.95l9.097 19.508 37.771-17.613-9.097-19.508zm-9.578 12.302c-2.08.97-4.552.07-5.522-2.01a4.152 4.152 0 012.015-5.511l.252-.118a4.153 4.153 0 015.517 1.999 4.096 4.096 0 01.135 3.176 4.097 4.097 0 01-2.144 2.346l-.253.118z"/><path fill="#FF981E" d="M182.582 21.873c-3.153-6.761-11.189-9.686-17.95-6.533l-13.288 6.196c-6.761 3.153-9.686 11.189-6.533 17.95l9.097 19.508 37.771-17.613-9.097-19.508zM160.14 40.174c-2.08.97-4.552.07-5.522-2.01a4.152 4.152 0 012.015-5.511l.252-.118a4.153 4.153 0 015.517 1.999 4.096 4.096 0 01.135 3.176 4.097 4.097 0 01-2.144 2.346l-.253.118z"/><path fill="#FF8900" d="M173.256 34.058l-12.864 5.999a4.094 4.094 0 002.144-2.346c.373-1 .35-2.136-.135-3.176a4.153 4.153 0 00-5.517-1.999l12.864-5.999a4.153 4.153 0 015.517 1.999 4.146 4.146 0 01.135 3.176 4.094 4.094 0 01-2.144 2.346z"/><path fill="#606666" d="M169.884 30.37l-15.459 7.034-7.105-15.613a4.662 4.662 0 00-6.175-2.313l15.691-7.14a8.82 8.82 0 0111.682 4.375l3.555 7.812a4.413 4.413 0 01-2.189 5.845z"/></svg>