<?xml version="1.0" encoding="utf-8"?>
<!-- Generator: Adobe Illustrator 22.1.0, SVG Export Plug-In . SVG Version: 6.00 Build 0)  -->
<svg version="1.0" id="Layer_1" xmlns="http://www.w3.org/2000/svg" xmlns:xlink="http://www.w3.org/1999/xlink" x="0px" y="0px"
	 viewBox="0 0 300 300" enable-background="new 0 0 300 300" xml:space="preserve">
<g>
	<g>
		<g>
			<g>
				<circle fill="#FFBE00" cx="145.127" cy="154.873" r="145.127"/>
			</g>
		</g>
	</g>
</g>
<g>
	<g>
		<path fill="#515759" d="M132.779,10.083c0,0-17.53,9.765-18.118,18.905c-4.118,36.517-13.149,46.949-51.666,73.159
			c-49.705,33.823-42.352,90.587,5,104.704c47.352,14.117,73.99-26.764,88.024-109.998
			C170.053,13.619,132.779,10.083,132.779,10.083z M119.759,180.382c-20.588,42.058-60.293,26.47-65.293,8.235
			s8.823-51.764,34.705-65.594s40.6-68.745,48.529-80.788C157.812,13.031,140.347,138.323,119.759,180.382z"/>
		<path fill="#F14E70" d="M129.474,52.133c-39.711,22.927-49.123,80.97-21.021,129.643c28.101,48.672,83.074,69.543,122.784,46.616
			l35.561-20.756L165.036,31.377L129.474,52.133z"/>
		<path fill="#F14E70" d="M159.058,17.722c-3.633-6.292-11.678-8.447-17.97-4.815l-12.365,7.139
			c-6.292,3.633-8.448,11.678-4.815,17.97l10.481,18.154l35.15-20.294L159.058,17.722z M150.809,30.47
			c-1.936,1.118-4.411,0.454-5.528-1.481c-1.112-1.926-0.449-4.401,1.487-5.518l0.235-0.136c1.936-1.118,4.411-0.454,5.522,1.471
			c0.559,0.968,0.677,2.068,0.4,3.07c-0.261,1.007-0.914,1.9-1.881,2.458L150.809,30.47z"/>
		<path fill="#FF6780" d="M171.029,10.811c-3.633-6.292-11.678-8.447-17.97-4.815l-12.365,7.139
			c-6.292,3.632-8.448,11.678-4.815,17.97l10.481,18.154l35.15-20.294L171.029,10.811z M150.809,30.47
			c-1.936,1.118-4.411,0.454-5.528-1.481c-1.112-1.926-0.449-4.401,1.487-5.518l0.235-0.136c1.936-1.118,4.411-0.454,5.522,1.471
			c0.559,0.968,0.677,2.068,0.4,3.07c-0.261,1.007-0.914,1.9-1.881,2.458L150.809,30.47z"/>
		
			<ellipse transform="matrix(0.866 -0.5 0.5 0.866 -32.6584 122.2735)" fill="#FF6780" cx="211.836" cy="122.078" rx="83.026" ry="101.763"/>
		<path fill="#F14E70" d="M253.893,194.922c-1.151,0.665-2.326,1.289-3.52,1.856c28.304-19.398,33.536-64.735,11.201-103.42
			c-22.335-38.685-64.213-56.822-95.165-42.009c1.088-0.751,2.216-1.456,3.367-2.121c31.217-18.023,75.487-0.003,98.675,40.159
			C291.645,129.561,285.11,176.899,253.893,194.922z"/>
		<path fill="#FF8DA4" d="M250.373,196.778c-30.941,14.808-72.82-3.33-95.155-42.015c-22.329-38.675-17.103-84.021,11.191-103.414
			c30.951-14.813,72.83,3.324,95.165,42.009C283.909,132.043,278.677,177.38,250.373,196.778z"/>
		<g>
			<polygon fill="#F14E70" points="230.47,124 235.188,91.049 207.883,100.586 203.642,97.115 189.39,72.43 180.063,77.816 
				185.873,113.294 163.961,132.172 194.857,144.562 209.135,179 218.462,173.615 218.745,158.875 222.419,151.179 253.155,153.585 
				262.483,148.2 235.106,130.047 			"/>
			<polygon fill="#FF6780" points="231.747,145.794 218.462,173.615 204.184,139.177 173.288,126.787 195.2,107.909 189.39,72.43 
				217.211,95.201 244.515,85.664 239.797,118.615 262.483,148.2 			"/>
		</g>
		<path fill="#F14E70" d="M163.015,23.423l-11.971,6.912c0.968-0.559,1.62-1.452,1.881-2.458c0.277-1.002,0.159-2.102-0.4-3.07
			c-1.112-1.926-3.587-2.589-5.522-1.471l11.971-6.912c1.936-1.118,4.411-0.454,5.522,1.471c0.559,0.968,0.667,2.074,0.4,3.07
			C164.635,21.971,163.983,22.864,163.015,23.423z"/>
		<path fill="#606666" d="M160.533,20.183l-15.252,8.806l-8.894-15.405c-1.335-2.313-4.292-3.105-6.605-1.77l15.482-8.938
			c4.375-2.526,9.969-1.027,12.494,3.348l4.45,7.708C163.472,16.12,162.722,18.919,160.533,20.183z"/>
	</g>
</g>
</svg>
