<svg version="1" xmlns="http://www.w3.org/2000/svg" viewBox="0 0 50 50"><path fill="#DC5E82" d="M4.818 45.536l42.145-15.339V8.454a5.417 5.417 0 0 0-5.417-5.417H8.454a5.417 5.417 0 0 0-5.417 5.417v33.091c0 1.587.694 3 1.781 3.991z"/><path fill="#F56991" d="M45.18 4.463a5.378 5.378 0 0 0-3.635-1.425H8.454a5.417 5.417 0 0 0-5.417 5.417v11.347L45.18 4.463z"/><path fill="#444" d="M25.001 48.137H8.454a6.599 6.599 0 0 1-6.591-6.591V8.455a6.599 6.599 0 0 1 6.591-6.592h33.091a6.599 6.599 0 0 1 6.591 6.592v21.739a1.175 1.175 0 1 1-2.35 0V8.455a4.247 4.247 0 0 0-4.242-4.242H8.454a4.247 4.247 0 0 0-4.242 4.242v33.091a4.247 4.247 0 0 0 4.242 4.242h16.547a1.175 1.175 0 1 1 0 2.349z"/><path fill="#444" d="M26.996 37.246c-3.576 0-6.294-1.043-8.154-3.132-1.859-2.087-2.789-5.083-2.789-8.986 0-3.976.973-7.032 2.918-9.169 1.945-2.138 4.755-3.207 8.431-3.207 2.243 0 4.285.375 6.124 1.125.343.14.504.539.374.886l-1.044 2.778a.693.693 0 0 1-.888.396c-1.835-.663-3.371-.996-4.61-.996-4.09 0-6.134 2.715-6.134 8.143 0 2.65.509 4.641 1.528 5.973 1.019 1.333 2.512 1.999 4.478 1.999 1.867 0 3.65-.387 5.35-1.162.466-.213.998.101.998.613v2.845a.705.705 0 0 1-.366.622 9.957 9.957 0 0 1-2.509.929c-1.017.229-2.254.343-3.707.343z"/></svg>