<?xml version="1.0" encoding="utf-8"?>
<!-- Generator: Adobe Illustrator 24.3.0, SVG Export Plug-In . SVG Version: 6.00 Build 0)  -->
<svg version="1.1" id="Layer_1" xmlns="http://www.w3.org/2000/svg" xmlns:xlink="http://www.w3.org/1999/xlink" x="0px" y="0px"
	 viewBox="0 0 50 50" style="enable-background:new 0 0 50 50;" xml:space="preserve">
<style type="text/css">
	.st0{fill:#A6C1C2;}
	.st1{fill:#B9D7D9;}
	.st2{fill:#494949;}
</style>
<g>
	<g>
		<path class="st0" d="M45.6,23L42,24.3l-0.7,0.3l-15.7,5.7l0,0l-1,0.4L8,36.8C5.6,33.4,4.3,29.4,4.3,25c0-0.8,0-1.7,0.1-2.5
			c0-0.2,0.1-0.4,0.1-0.7l9.7-3.5l2.3-0.8l22.1-8.1c0.2,0.1,0.3,0.3,0.5,0.4C42.7,13.2,45.1,17.8,45.6,23z"/>
	</g>
	<g>
		<path class="st1" d="M39.1,9.8L16.8,18l-2.4,0.9l-9.9,3.6c0-0.2,0.1-0.4,0.1-0.7C6,11.9,14.6,4.3,25,4.3c5.2,0,10,1.9,13.6,5.1
			C38.8,9.5,39,9.7,39.1,9.8z"/>
	</g>
	<path shape-rendering="geometricPrecision" class="st2" d="M32.9,18.9c-2.5,4.3-8,5.8-12.4,3.3c-0.1,0-0.1-0.1-0.2-0.1
		c-0.8-0.5-1.4-1-2-1.7c-1.6-1.8-2.4-4.1-2.3-6.4c0-0.3,0-0.5,0-0.5c0-0.4,0.2-1.2,0.4-1.9c0.1-0.2,0.2-0.5,0.4-1
		c0.1-0.2,0.1-0.3,0.2-0.4c0.3-0.6,0.6-1,0.9-1.3c0.1-0.1,0.2-0.2,0.6-0.6c0.6-0.6,0.6-0.6,0.6-0.6c0.1-0.1,0.4-0.3,0.7-0.5
		C19.9,7.1,19.9,7.1,20,7c0.1,0,0.2-0.1,0.2-0.1c-5.4,2.7-7.6,9.3-5,14.7c0,0.1,0.1,0.2,0.1,0.3c0.1,0,0.3,0,0.4,0
		c0.1,0,0.3,0,0.6,0c3.6,0.2,7.6,3.5,8.1,7.6c0.1,0.9,0.2,1.8,0,2.7c-0.2,1.7-1,3.3-2.1,4.6c-0.6,0.8-1.4,1.4-2.3,1.9
		c-1.7,1-3.7,1.4-5.6,1.2c-0.4,0-0.7-0.1-1.1-0.2c-0.2-0.1-0.4-0.1-0.7-0.2c1,0.4,2,0.7,3.1,0.9c1,0.1,2,0.1,3,0
		c1.8-0.3,3.5-1,4.9-2c1.1-0.8,2-1.8,2.7-2.9c0,0,0-0.1,0.1-0.1s0-0.1,0-0.1c0-0.1-0.1-0.1-0.1-0.2c0-0.1-0.1-0.1-0.1-0.2
		c-0.1-0.2-0.2-0.5-0.3-0.7c-0.2-0.5-0.3-1-0.4-1.5c-0.2-1.1-0.2-2.2,0-3.4c0.2-0.9,0.5-1.9,1-2.7c0.2-0.3,2-3.5,5.4-4.4
		c0,0,1.5-0.4,3.2-0.3c0.5,0,1,0.1,1,0.1c0.3,0.1,0.6,0.1,0.8,0.2c0.3,0.1,0.7,0.2,1.2,0.4c0.2,0.1,0.4,0.2,0.6,0.3
		c0.4,0.2,0.8,0.4,1.2,0.7c0.3,0.2,0.8,0.6,1.3,1.2c0.4,0.4,0.6,0.8,0.8,1.1c0,0,0,0,0.7,1.1c0.1,0.2,0.2,0.4,0.3,0.6
		c0.1,0.3,0.1,0.3,0.2,0.5c0.2,0.4,0.2,0.6,0.2,0.5c-0.3-2-1.1-3.9-2.3-5.5s-2.7-2.4-3.4-2.8C35.7,19.4,34,19,32.9,18.9z"/>
	<g>
		<path class="st2" d="M25,4.3c5.2,0,10,1.9,13.6,5.1c0.2,0.1,0.3,0.3,0.5,0.4c3.6,3.4,6,8,6.5,13.2c0.1,0.7,0.1,1.3,0.1,2
			c0,11.5-9.3,20.7-20.7,20.7c-7.1,0-13.3-3.5-17-8.9C5.6,33.4,4.3,29.4,4.3,25c0-0.8,0-1.7,0.1-2.5c0-0.2,0.1-0.4,0.1-0.7
			C6,11.9,14.6,4.3,25,4.3 M25,1.8c-11.4,0-21.2,8.5-23,19.7c0,0.2,0,0.5-0.1,0.7C1.8,23.1,1.8,24,1.8,25c0,4.7,1.4,9.3,4.1,13.2
			c4.3,6.3,11.5,10,19.1,10c12.8,0,23.2-10.4,23.2-23.2c0-0.7,0-1.4-0.1-2.2C47.6,17.1,45,11.9,40.8,8c-0.2-0.2-0.4-0.4-0.6-0.5
			C36,3.8,30.6,1.8,25,1.8L25,1.8z"/>
	</g>
</g>
</svg>
