<?xml version="1.0" encoding="utf-8"?>
<!-- Generator: Adobe Illustrator 24.0.0, SVG Export Plug-In . SVG Version: 6.00 Build 0)  -->
<svg version="1.1" id="Camada_1" xmlns="http://www.w3.org/2000/svg" xmlns:xlink="http://www.w3.org/1999/xlink" x="0px" y="0px"
	 viewBox="0 0 50 51" style="enable-background:new 0 0 50 51;" xml:space="preserve">
<style type="text/css">
	.st0{fill:#00C8E2;}
	.st1{fill:#00DFFC;}
	.st2{fill:#444444;}
</style>
<g>
	<title>Group 12</title>
	<path class="st0" d="M43.8,27.8c0,1.3,0,2.7-0.2,3.9l-1.4,0.7l-3.7,1.4l-2.6,0.9l-7.4,2.7l0,0l-5.9,2.2L17,41.7l-2.6,0.9L10.6,44
		l-1.3,0.1c-2.5-2.1-4.8-4-6.2-7C3,37,3,36.8,3,36.8l1.2-0.6l3-1.1L9,34.4l3-1.1l1.8-0.7l3-1.1l1.9-0.7l8.5-3.1l1.9-0.7l3-1.1
		l1.8-0.7l3-1.1l1.8-0.7l3-1.1l1.8-0.7c0,0.1,0.1,0.2,0.1,0.4C44.3,23.8,43.8,25.8,43.8,27.8z"/>
	<path class="st1" d="M48.6,8.4L45,12.1c-0.7,0.7-1.2,1.2-2.2,1.2l-0.2,0.1L38,13.2c1.9,2.3,3.6,5.4,4.5,8.3c0,0.1,0.3,0.6,0.4,0.7
		L42,22.6l-3,1.1l-1.8,0.7l-3,1.1l-1.8,0.7l-3.1,1.1l-2,0.7L19,31l-2,0.7l-3,1.2l-1.8,0.7l-3,1.1l-1.8,0.7l-3,1.1L3,36.7
		c0-0.1,0.1-0.3,0.1-0.4c-1.3-2.8-1.9-5.2-1.9-8.5c0-1.7,0.2-2.9,0.6-4.5L3.2,22l3.9-1.4l2.8-1L27,13.4l2.8-1l3.9-1.4l1.9-0.4
		c0.2,0.1,0.6,0.1,0.7,0.2l0.9-0.4l0.6-0.7l0.1,1.1l2-1.4L46.1,7l2.4-0.1c0.2,0,0.5,0,0.6,0.1L49,7.5C49.2,8.1,48.8,8.2,48.6,8.4z"
		/>
	<g>
		<g>
			<g>
				<g>
					<path class="st2" d="M13.1,15.8c-0.4,0-0.8-0.2-0.9-0.6c-0.1-0.4,0-0.8,0.3-1.1s0.8-0.3,1.1-0.1c0.4,0.2,0.5,0.6,0.5,1
						C13.9,15.5,13.5,15.8,13.1,15.8L13.1,15.8z"/>
				</g>
			</g>
			<g>
				<g>
					<path class="st2" d="M30.8,35.7c-0.4,0-0.8-0.3-0.9-0.6c-0.1-0.4,0-0.8,0.3-1.1s0.8-0.3,1.1-0.1c0.3,0.2,0.5,0.6,0.5,1
						C31.7,35.4,31.3,35.7,30.8,35.7L30.8,35.7z"/>
				</g>
			</g>
		</g>
		<g>
			<g>
				<path class="st2" d="M39,23.7l-1.8,0.7c0.2,1.1,0.4,2.2,0.4,3.4c0,2.5-0.6,4.9-1.7,6.9c-2.5,4.8-7.5,8.1-13.3,8.1
					c-2,0-3.9-0.4-5.6-1.1c-3.4-1.4-6.1-3.9-7.8-7.1C9,34.5,9,34.5,9,34.4c-1-2-1.5-4.2-1.5-6.6c0-2.9,0.8-5.7,2.4-8.1
					c0.1-0.2,0.3-0.5,0.5-0.7c0.3-0.4,0.2-1.1-0.2-1.4s-1-0.2-1.3,0.2c-0.7,0.9-1.2,1.9-1.7,2.8c-1.1,2.2-1.6,4.7-1.6,7.2
					c0,2.6,0.6,5.1,1.6,7.3c0,0.1,0.1,0.2,0.1,0.2c1.5,3.1,4,5.7,7,7.4c2.4,1.3,5.2,2.1,8.2,2.1c7.2,0,13.5-4.6,15.9-11
					c0.7-1.9,1.1-3.9,1.1-6C39.4,26.4,39.3,25,39,23.7z M35.8,34.7c-2.5,4.8-7.5,8.1-13.3,8.1c-2,0-3.9-0.4-5.6-1.1
					c-3.4-1.4-6.1-3.9-7.8-7.1C9,34.5,9,34.5,9,34.4c-1-2-1.5-4.2-1.5-6.6c0-2.9,0.8-5.7,2.4-8.1c0.1-0.2,0.3-0.5,0.5-0.7
					c0.3-0.4,0.2-1.1-0.2-1.4s-1-0.2-1.3,0.2c-0.7,0.9-1.2,1.9-1.7,2.8c-1.1,2.2-1.6,4.7-1.6,7.2c0,2.6,0.6,5.1,1.6,7.3
					c0,0.1,0.1,0.2,0.1,0.2c1.5,3.1,4,5.7,7,7.4c2.4,1.3,5.2,2.1,8.2,2.1c7.2,0,13.5-4.6,15.9-11L35.8,34.7z M10.1,17.6
					c-0.4-0.3-1-0.2-1.3,0.2c-0.7,0.9-1.2,1.9-1.7,2.8l2.8-1c0.1-0.2,0.3-0.5,0.5-0.7C10.6,18.5,10.5,17.9,10.1,17.6z M49.9,7.5
					C49.9,7.4,49.9,7.4,49.9,7.5c-0.1-0.3-0.2-0.4-0.3-0.5s-0.3-0.2-0.5-0.2l-2.8-0.2l-2.5-0.2L43.3,1c0-0.4-0.3-0.7-0.6-0.8
					c-0.4-0.1-0.8,0-1,0.2l-4.2,4.2c-0.7,0.7-1.1,1.6-1.1,2.6v0.1V10v0.5c-0.1-0.1-0.3-0.2-0.4-0.3c-3.7-2.9-8.4-4.6-13.4-4.6
					C12,5.7,3.2,13,0.9,22.8c-0.4,1.6-0.6,3.3-0.6,5c0,3.2,0.7,6.3,2,9.1c0,0.1,0.1,0.2,0.1,0.2c1.4,3,3.5,5.7,6,7.8
					c3.8,3.2,8.7,5,14,5c10.9,0,19.9-7.9,21.8-18.3c0.2-1.2,0.3-2.5,0.3-3.8c0-2-0.3-4-0.8-5.8c0-0.1-0.1-0.2-0.1-0.4
					c-0.9-2.9-2.3-5.6-4.2-7.9l3.2,0.1h0.1c1,0,1.9-0.4,2.6-1.1l4.2-4.2C49.9,8.2,50,7.8,49.9,7.5z M41.9,22.3
					c0,0.1,0.1,0.2,0.1,0.4c0.4,1.6,0.7,3.3,0.7,5.1c0,1.6-0.2,3.1-0.6,4.6C40,41.3,32,47.9,22.5,47.9c-4.4,0-8.5-1.4-11.9-3.9
					c-2.7-2-4.9-4.6-6.3-7.6c0-0.1-0.1-0.2-0.1-0.2c-1.2-2.6-1.8-5.4-1.8-8.4c0-2,0.3-3.9,0.8-5.8C5.6,13.7,13.4,7.6,22.5,7.6
					c4.2,0,8,1.3,11.2,3.4c0.8,0.5,1.5,1.1,2.2,1.7L33.7,15c-1.2-1-2.5-1.9-3.9-2.6c-2.2-1.1-4.7-1.7-7.3-1.7c-2,0-3.9,0.3-5.8,1
					C16.2,12,16,12.5,16.1,13c0.2,0.5,0.7,0.8,1.2,0.6c1.6-0.6,3.3-0.9,5.1-0.9c1.6,0,3.1,0.2,4.5,0.7c2,0.6,3.8,1.6,5.3,2.9
					L30,18.6c-2.1-1.7-4.7-2.7-7.6-2.7c-6.5,0-11.9,5.3-11.9,11.9c0,2,0.5,3.9,1.4,5.5c0,0.1,0.1,0.2,0.1,0.2
					c2,3.6,5.9,6.1,10.4,6.1l0,0c1.9,0,3.7-0.4,5.3-1.3c0.3-0.2,0.5-0.5,0.5-0.9l0,0c0-0.2,0-0.3-0.1-0.4c-0.2-0.5-0.8-0.7-1.3-0.4
					c-1.4,0.7-2.9,1.1-4.5,1.1c-3.6,0-6.8-1.9-8.5-4.8c0-0.1-0.1-0.2-0.1-0.2c-0.8-1.4-1.3-3.1-1.3-4.8c0-5.5,4.4-9.9,9.9-9.9
					c2.3,0,4.5,0.8,6.2,2.2l-2.3,2.3c-1.1-0.8-2.5-1.3-3.9-1.3c-3.7,0-6.7,3-6.7,6.7c0,1.4,0.4,2.7,1.1,3.7c0.1,0.1,0.1,0.2,0.2,0.2
					c1.2,1.7,3.2,2.8,5.4,2.8c3.7,0,6.7-3,6.7-6.7c0-0.2,0-0.3,0-0.5c0-0.1,0-0.2,0-0.3c-0.1-1.2-0.6-2.4-1.4-3.3l2.3-2.2
					c1.1,1.3,1.8,2.8,2.1,4.5c0,0.1,0,0.2,0.1,0.4c0.1,0.5,0.1,1,0.1,1.6c0,1.1-0.2,2.1-0.5,3.1c-0.2,0.5,0.1,1.1,0.6,1.2
					c0.5,0.2,1.1-0.1,1.2-0.6c0.4-1.2,0.6-2.5,0.6-3.7c0-0.8-0.1-1.5-0.2-2.3c0-0.1,0-0.2-0.1-0.3c-0.4-1.9-1.3-3.7-2.6-5.2l2.2-2.2
					c1.6,1.8,2.8,3.9,3.4,6.3c0,0.1,0,0.2,0.1,0.4c0.2,1.1,0.4,2.2,0.4,3.4c0,2.5-0.6,4.9-1.7,6.9c-2.5,4.8-7.5,8.1-13.3,8.1
					c-2,0-3.9-0.4-5.6-1.1c-3.4-1.4-6.1-3.9-7.8-7.1C9,34.5,9,34.5,9,34.4c-1-2-1.5-4.2-1.5-6.6c0-2.9,0.8-5.7,2.4-8.1
					c0.1-0.2,0.3-0.5,0.5-0.7c0.3-0.4,0.2-1.1-0.2-1.4s-1-0.2-1.3,0.2c-0.7,0.9-1.2,1.9-1.7,2.8c-1.1,2.2-1.6,4.7-1.6,7.2
					c0,2.6,0.6,5.1,1.6,7.3c0,0.1,0.1,0.2,0.1,0.2c1.5,3.1,4,5.7,7,7.4c2.4,1.3,5.2,2.1,8.2,2.1c7.2,0,13.5-4.6,15.9-11
					c0.7-1.9,1.1-3.9,1.1-6c0-1.4-0.2-2.7-0.5-4c0-0.1-0.1-0.2-0.1-0.3c-0.7-2.7-2-5.1-3.8-7l2.2-2.3C39.4,16.4,41,19.2,41.9,22.3z
					 M27.3,27.8c0,0.1,0,0.2,0,0.2c-0.1,2.5-2.2,4.6-4.8,4.6c-1.4,0-2.6-0.6-3.5-1.5c-0.1-0.1-0.1-0.1-0.2-0.2
					c-0.7-0.8-1.1-1.9-1.1-3c0-2.6,2.2-4.8,4.8-4.8c0.9,0,1.8,0.3,2.5,0.7l-3.1,3.1c-0.4,0.4-0.4,1,0,1.4c0.2,0.2,0.4,0.3,0.7,0.3
					c0.2,0,0.5-0.1,0.7-0.3l3.1-3.1C26.9,26,27.2,26.9,27.3,27.8C27.3,27.8,27.3,27.8,27.3,27.8z M38.3,10.4v-1V7.3
					c0-0.5,0.2-0.9,0.6-1.3l2.7-2.7l0.3,3.6L40,8.8L38.3,10.4z M44,11.3c-0.4,0.3-0.8,0.5-1.3,0.6l-3-0.1l1.9-1.9l1.7-1.7l3.6,0.3
					L44,11.3z M10.1,17.6c-0.4-0.3-1-0.2-1.3,0.2c-0.7,0.9-1.2,1.9-1.7,2.8l2.8-1c0.1-0.2,0.3-0.5,0.5-0.7
					C10.6,18.5,10.5,17.9,10.1,17.6z M39,23.7l-1.8,0.7c0.2,1.1,0.4,2.2,0.4,3.4c0,2.5-0.6,4.9-1.7,6.9c-2.5,4.8-7.5,8.1-13.3,8.1
					c-2,0-3.9-0.4-5.6-1.1c-3.4-1.4-6.1-3.9-7.8-7.1C9,34.5,9,34.5,9,34.4c-1-2-1.5-4.2-1.5-6.6c0-2.9,0.8-5.7,2.4-8.1
					c0.1-0.2,0.3-0.5,0.5-0.7c0.3-0.4,0.2-1.1-0.2-1.4s-1-0.2-1.3,0.2c-0.7,0.9-1.2,1.9-1.7,2.8c-1.1,2.2-1.6,4.7-1.6,7.2
					c0,2.6,0.6,5.1,1.6,7.3c0,0.1,0.1,0.2,0.1,0.2c1.5,3.1,4,5.7,7,7.4c2.4,1.3,5.2,2.1,8.2,2.1c7.2,0,13.5-4.6,15.9-11
					c0.7-1.9,1.1-3.9,1.1-6C39.4,26.4,39.3,25,39,23.7z M39,23.7l-1.8,0.7c0.2,1.1,0.4,2.2,0.4,3.4c0,2.5-0.6,4.9-1.7,6.9
					c-2.5,4.8-7.5,8.1-13.3,8.1c-2,0-3.9-0.4-5.6-1.1c-3.4-1.4-6.1-3.9-7.8-7.1C9,34.5,9,34.5,9,34.4c-1-2-1.5-4.2-1.5-6.6
					c0-2.9,0.8-5.7,2.4-8.1c0.1-0.2,0.3-0.5,0.5-0.7c0.3-0.4,0.2-1.1-0.2-1.4s-1-0.2-1.3,0.2c-0.7,0.9-1.2,1.9-1.7,2.8
					c-1.1,2.2-1.6,4.7-1.6,7.2c0,2.6,0.6,5.1,1.6,7.3c0,0.1,0.1,0.2,0.1,0.2c1.5,3.1,4,5.7,7,7.4c2.4,1.3,5.2,2.1,8.2,2.1
					c7.2,0,13.5-4.6,15.9-11c0.7-1.9,1.1-3.9,1.1-6C39.4,26.4,39.3,25,39,23.7z"/>
			</g>
		</g>
	</g>
</g>
<circle class="st2" cx="30.8" cy="34.7" r="1"/>
<circle class="st2" cx="13.1" cy="14.8" r="1"/>
</svg>
