<svg xmlns="http://www.w3.org/2000/svg" data-name="Camada 1" viewBox="0 0 192.96 39"><path fill="#000050" d="M58.92 12.52c-2.69 0-5.11 1.08-6.8 2.97V5.86c0-.38-.3-.68-.68-.68h-1.97a.68.68 0 00-.68.68v25.19c0 .38.3.68.68.68h1.97c.38 0 .68-.31.68-.68v-1.87c1.69 1.89 4.11 2.97 6.8 2.97 5.43 0 9.52-4.22 9.52-9.81s-4.09-9.81-9.52-9.81zm-.34 3.28c3.68 0 6.46 2.81 6.46 6.53s-2.78 6.53-6.46 6.53-6.46-2.81-6.46-6.53 2.78-6.53 6.46-6.53zm33.16-2.87h-1.97a.68.68 0 00-.68.68v1.87c-1.69-1.89-4.11-2.97-6.8-2.97-5.41 0-9.49 4.22-9.49 9.81s4.08 9.81 9.49 9.81c2.69 0 5.11-1.08 6.8-2.97v1.87c0 .38.3.68.68.68h1.97c.38 0 .68-.31.68-.68V13.61c0-.38-.3-.68-.68-.68zm-9.11 15.93c-3.66 0-6.43-2.81-6.43-6.53s2.76-6.53 6.43-6.53 6.46 2.81 6.46 6.53-2.78 6.53-6.46 6.53zm25.74-16.34c-2.48 0-4.56.81-6.05 2.32v-1.23c0-.38-.3-.68-.68-.68h-1.97a.68.68 0 00-.68.68v17.44c0 .38.3.68.68.68h1.97c.38 0 .68-.31.68-.68v-9.91c0-3.24 2.15-5.33 5.48-5.33s5.2 2.07 5.2 5.26v9.98c0 .38.3.68.68.68h1.97c.38 0 .68-.31.68-.68V20.49c0-4.76-3.2-7.97-7.96-7.97zm24.02.48h-.51c-2.34 0-4.38.87-5.85 2.45v-1.84c0-.38-.3-.68-.68-.68h-1.97a.68.68 0 00-.68.68v17.44c0 .38.3.68.68.68h1.97c.38 0 .68-.31.68-.68V22.4c0-3.69 2.24-5.98 5.85-5.98h.51c.38 0 .68-.31.68-.68v-2.05c0-.38-.3-.68-.68-.68zm5.99-.07h1.97c.38 0 .68.3.68.68v17.44c0 .38-.31.68-.68.68h-1.97c-.38 0-.68-.3-.68-.68V13.61c0-.38.31-.68.68-.68zm.98-6.94c-1.16 0-2.11.94-2.11 2.09s.93 2.12 2.11 2.12 2.14-.93 2.14-2.12-.94-2.09-2.14-2.09zm15.29 14.69c-2.64-.63-4.37-1.16-4.37-2.72s1.85-2.26 3.67-2.26 3.38.68 4.46 1.86c.14.15.33.23.53.22.2 0 .39-.11.51-.27l1.12-1.47c.21-.27.18-.66-.06-.9-1.69-1.69-4.03-2.63-6.6-2.63-4.15 0-7.04 2.29-7.04 5.57 0 4 3.72 4.95 6.71 5.72 2.58.63 4.28 1.16 4.28 2.69s-1.68 2.46-4.08 2.46c-2.11 0-3.94-.77-5.17-2.16a.703.703 0 00-.53-.23c-.2 0-.39.1-.52.26l-1.12 1.44c-.21.27-.19.65.04.9 1.8 1.89 4.47 2.98 7.33 2.98 4.46 0 7.45-2.35 7.45-5.85 0-3.98-3.82-4.93-6.61-5.62zm27.73-7.75h-1.97a.68.68 0 00-.68.68V23.9c0 3.01-1.96 4.96-5 4.96s-5.03-1.95-5.03-4.96V13.61c0-.38-.3-.68-.68-.68h-1.97a.68.68 0 00-.68.68v10.56c0 4.76 3.36 7.97 8.37 7.97s8.33-3.2 8.33-7.97V13.61c0-.38-.3-.68-.68-.68zm7.76-7.76h1.97c.38 0 .68.3.68.68v25.2c0 .38-.31.68-.68.68h-1.97c-.38 0-.68-.3-.68-.68V5.86c0-.38.31-.68.68-.68z"/><path fill="#0095ff" d="M31.63 9.81L27.1 1.92A2.516 2.516 0 0024.92.66h-9.06c-.9 0-1.73.48-2.18 1.26L9.15 9.81a2.52 2.52 0 000 2.52l4.53 7.89c.45.78 1.28 1.26 2.18 1.26h3.29l1.24-2.16h-4.53c-.13 0-.25-.07-.31-.18l-4.53-7.89a.382.382 0 010-.36L15.55 3c.06-.11.18-.18.31-.18h9.06c.13 0 .25.07.31.18l4.53 7.89c.06.11.06.25 0 .36l-2.63 4.59h2.49l2.01-3.5c.45-.78.45-1.74 0-2.52z"/><path fill="#a070fe" d="M23.65 24.99l-2.01-3.5h-2.49l2.63 4.59c.06.11.06.25 0 .36l-4.53 7.89c-.06.11-.18.18-.31.18H7.89c-.13 0-.25-.07-.31-.18l-4.53-7.89a.382.382 0 010-.36l4.53-7.89c.06-.11.18-.18.31-.18h4.53l-1.24-2.16H7.89c-.9 0-1.73.48-2.18 1.26L1.18 25a2.52 2.52 0 000 2.52l4.53 7.89c.45.78 1.28 1.26 2.18 1.26h9.06c.9 0 1.73-.48 2.18-1.26l4.53-7.89c.45-.78.45-1.74 0-2.52z"/><path fill="#00cfcb" d="M39.61 24.99l-4.53-7.89a2.516 2.516 0 00-2.18-1.26h-9.06c-.9 0-1.73.48-2.18 1.26l-2.52 4.38h2.49l1.9-3.3c.06-.11.18-.18.31-.18h9.06c.13 0 .25.07.31.18l4.53 7.89c.06.11.06.25 0 .36l-4.53 7.89c-.06.11-.18.18-.31.18h-9.06c-.13 0-.25-.07-.31-.18l-1.9-3.29-1.24 2.16 1.28 2.21c.45.78 1.28 1.26 2.18 1.26h9.06c.9 0 1.73-.48 2.18-1.26l4.53-7.89c.45-.78.45-1.74 0-2.52z"/></svg>