<svg xmlns="http://www.w3.org/2000/svg" fill="none" viewBox="0 0 56 56"><circle cx="28" cy="28" r="28" fill="#000050"/><path fill="#0095FF" d="M39.779 17.148L35.25 9.26A2.515 2.515 0 0033.07 8h-9.057c-.9 0-1.73.48-2.18 1.26l-4.528 7.888a2.52 2.52 0 000 2.519l4.529 7.888c.45.78 1.28 1.26 2.18 1.26h3.288l1.24-2.16h-4.529c-.13 0-.25-.07-.31-.18l-4.528-7.888a.382.382 0 010-.36l4.528-7.888c.06-.11.18-.18.31-.18h9.058c.13 0 .25.07.31.18l4.529 7.888c.06.11.06.25 0 .36l-2.63 4.589h2.49l2.009-3.5c.45-.779.45-1.739 0-2.518v-.01z"/><path fill="#A070FE" d="M31.801 32.323l-2.01-3.499h-2.489l2.63 4.589c.06.11.06.25 0 .36l-4.53 7.888a.35.35 0 01-.309.18h-9.047c-.13 0-.25-.07-.31-.18l-4.53-7.888a.383.383 0 010-.36l4.53-7.888c.06-.11.18-.18.31-.18h4.528l-1.24-2.16h-3.288c-.9 0-1.73.48-2.18 1.26l-4.529 7.888a2.52 2.52 0 000 2.52l4.53 7.887A2.512 2.512 0 0016.045 44h9.058c.9 0 1.73-.48 2.18-1.26l4.528-7.887c.45-.78.45-1.74 0-2.52l-.01-.01z"/><path fill="#00CFCB" d="M47.757 32.323l-4.53-7.888a2.515 2.515 0 00-2.178-1.26H31.99c-.9 0-1.73.48-2.18 1.26l-2.519 4.38h2.49l1.9-3.3c.06-.11.18-.18.31-.18h9.056c.13 0 .25.07.31.18l4.53 7.888c.06.11.06.25 0 .36l-4.53 7.888c-.06.11-.18.18-.31.18H31.99c-.13 0-.25-.07-.31-.18l-1.9-3.29-1.239 2.16 1.28 2.21c.45.78 1.28 1.259 2.18 1.259h9.056c.9 0 1.73-.48 2.18-1.26l4.529-7.887c.45-.78.45-1.74 0-2.52h-.01z"/></svg>