<?xml version="1.0" encoding="utf-8"?>
<!-- Generator: Adobe Illustrator 28.3.0, SVG Export Plug-In . SVG Version: 6.00 Build 0)  -->
<svg version="1.1" id="Layer_1" xmlns="http://www.w3.org/2000/svg" xmlns:xlink="http://www.w3.org/1999/xlink" x="0px" y="0px"
	 viewBox="0 0 50 50" style="enable-background:new 0 0 50 50;" xml:space="preserve">
<style type="text/css">
	.st0{fill:#D1BD00;}
	.st1{fill:#F9F941;}
	.st2{fill:none;stroke:#444444;stroke-miterlimit:10;}
	.st3{fill:none;stroke:#444444;stroke-linecap:round;stroke-linejoin:round;stroke-miterlimit:10;}
	.st4{fill:none;stroke:#444444;stroke-width:0.5;stroke-linecap:round;stroke-linejoin:round;stroke-miterlimit:10;}
	.st5{fill:none;stroke:#444444;stroke-width:2.5;stroke-linecap:round;stroke-linejoin:round;stroke-miterlimit:10;}
	.st6{fill:#444444;}
	.st7{fill:none;stroke:#444444;stroke-width:0.5;stroke-miterlimit:10;}
</style>
<g>
	<polygon class="st0" points="30.1,20.4 37.9,22.8 31.2,27.6 31.3,35.8 24.7,30.9 16.9,33.5 19.6,25.7 14.7,19.1 22.9,19.3 
		27.6,12.6 	"/>
	<g>
		<path class="st1" d="M27.2,6.7l-5,0.7L20,12.2c-0.2,0-3.8,0.7-4,0.8L9.4,18c-3.2,0-6.8,1.4-6.8,4.6l-0.7,8.2l5.3,4.2l8.7,6.8
			c1.3,1,3,1.3,4.6,0.7l26.8-9.7c0.4-0.2,2.2-2.2,1.7-7.8c-0.3-3.4-8.6-8.8-15.8-11.3C27.4,11.8,28.9,7,27.2,6.7z"/>
		<g>
			<path class="st2" d="M29,19.6l-9,0c-2,0-3.9,0.8-5.2,2.1c-1.4,1.4-2.3,3.4-2.1,5.6c0.2,3.9,3.7,6.8,7.6,6.8l9,0
				c2,0,3.9-0.8,5.2-2.1c1.4-1.4,2.3-3.4,2.1-5.6C36.4,22.5,33,19.6,29,19.6z"/>
			<path class="st2" d="M10.6,22c1.9-3.9,5.8-6.6,10.5-6.6h7.3C33,15.3,37,18,38.8,22"/>
			<path class="st3" d="M22,38.5h-0.9c-4.7,0-8.7-2.7-10.5-6.7"/>
			<path class="st3" d="M10.6,31.7C10.6,31.8,10.5,31.8,10.6,31.7c-3,0-5.3-2.1-5.3-4.8c0-2.7,2.5-4.9,5.3-4.9c0,0,0.1,0,0.1,0.1
				L10.6,31.7z"/>
			<path class="st3" d="M38.9,31.5c0,0,0,0.3,0,0.3c2.9,0,5.3-2.2,5.3-4.9c0-2.7-2.5-4.9-5.3-4.9c0,0-0.1,0-0.1,0.1L38.9,31.5z"/>
			<circle class="st4" cx="24.8" cy="11.2" r="1.8"/>
			<ellipse class="st4" cx="25.3" cy="38.5" rx="3" ry="2.4"/>
			<line class="st2" x1="24.7" y1="12.9" x2="24.7" y2="19.6"/>
		</g>
		<path class="st5" d="M29.6,42.2c-0.7,0.5-2.3,1.3-4.6,1.2h-0.1c-1.7,0-2.9-0.6-3.5-1.1c-0.4-0.3-0.9-0.4-1.3-0.5
			c-7.4-0.2-10-3.5-10.9-5.4c-0.4-0.8-1.1-1.4-2-1.5c-3.7-0.7-5.8-3.8-5.8-8c0-4.3,3.2-7.9,7.3-8.4c0.7-0.1,1.4-0.5,1.8-1.1
			c1.1-1.5,3.6-4.1,8.4-4.5c0.7-0.1,1.2-0.6,1.3-1.3c0.2-1.8,1-4.9,4.5-4.9h0.6c3.5,0,4.3,3.1,4.5,4.9c0.1,0.7,0.6,1.2,1.3,1.3
			c4.7,0.4,7.3,3,8.4,4.5c0.4,0.6,1.1,0.9,1.8,1.1c4.1,0.6,7.3,4.1,7.3,8.4c0,4.1-2,7.2-5.6,7.9c0,0-4.3,0-6.4,1.9"/>
		<circle class="st6" cx="19.2" cy="25.7" r="1.2"/>
		<circle class="st6" cx="30.2" cy="25.7" r="1.2"/>
		<path class="st7" d="M24.7,30.9c-1.4,0-2.6-0.8-2.9-1.8c-0.1-0.3,0.2-0.6,0.5-0.6h4.5c0.7,0,1,0.4,0.8,0.7
			C27.2,30.1,26.1,30.9,24.7,30.9z"/>
		<line class="st3" x1="38.9" y1="22" x2="38.9" y2="31.5"/>
		<line class="st3" x1="10.6" y1="31.7" x2="10.5" y2="22"/>
	</g>
</g>
</svg>
