<?xml version="1.0" encoding="utf-8"?>
<!-- Generator: Adobe Illustrator 27.9.0, SVG Export Plug-In . SVG Version: 6.00 Build 0)  -->
<svg version="1.1" id="Camada_1" xmlns="http://www.w3.org/2000/svg" xmlns:xlink="http://www.w3.org/1999/xlink" x="0px" y="0px"
	 viewBox="0 0 49 50" style="enable-background:new 0 0 49 50;" xml:space="preserve">
<style type="text/css">
	.st0{fill:#FF6B6B;}
	.st1{fill:none;stroke:#444444;stroke-miterlimit:10;}
	.st2{fill:none;stroke:#444444;stroke-linecap:round;stroke-linejoin:round;stroke-miterlimit:10;}
	.st3{fill:none;stroke:#444444;stroke-width:0.5;stroke-linecap:round;stroke-linejoin:round;stroke-miterlimit:10;}
	.st4{fill:none;stroke:#444444;stroke-width:2.5;stroke-linecap:round;stroke-linejoin:round;stroke-miterlimit:10;}
	.st5{fill:#444444;}
	.st6{fill:none;stroke:#444444;stroke-width:0.5;stroke-miterlimit:10;}
</style>
<g>
	<path class="st0" d="M27,6l-5,0.7l-2.1,4.8c-0.2,0-3.7,0.7-3.9,0.8l-6.6,4.8c-3.1,0-6.7,1.3-6.7,4.5l-0.7,8l5.2,4.1l8.6,6.7
		c1.3,1,3,1.3,4.5,0.7l26.4-9.5c0.4-0.2,2.2-2.1,1.6-7.6c-0.3-3.3-8.5-8.7-15.6-11.1C27.1,11,28.7,6.2,27,6z"/>
	<g>
		<path class="st1" d="M28.8,18.7l-8.8,0c-2,0-3.8,0.8-5.1,2.1c-1.4,1.4-2.2,3.4-2.1,5.6c0.2,3.8,3.6,6.7,7.5,6.7l8.8,0
			c2,0,3.8-0.8,5.1-2.1c1.4-1.4,2.2-3.4,2.1-5.6C36,21.6,32.6,18.7,28.8,18.7z"/>
		<path class="st1" d="M10.6,21c1.8-3.9,5.8-6.5,10.3-6.5h7.2c4.5,0,8.5,2.7,10.3,6.5"/>
		<path class="st2" d="M21.8,37.3h-0.9c-4.6,0-8.5-2.7-10.3-6.6"/>
		<path class="st2" d="M10.6,30.6C10.6,30.6,10.6,30.7,10.6,30.6c-2.9,0-5.3-2.1-5.3-4.7c0-2.6,2.5-4.8,5.2-4.9c0,0,0.1,0,0.1,0.1
			L10.6,30.6z"/>
		<path class="st2" d="M38.5,30.4c0,0,0,0.3,0,0.3c2.9,0,5.2-2.2,5.2-4.8c0-2.6-2.5-4.8-5.2-4.9c0,0-0.1,0-0.1,0.1L38.5,30.4z"/>
		<circle class="st3" cx="24.6" cy="10.4" r="1.8"/>
		<ellipse class="st3" cx="25.1" cy="37.3" rx="3" ry="2.4"/>
		<line class="st1" x1="24.5" y1="12.1" x2="24.5" y2="18.7"/>
	</g>
	<path class="st4" d="M29.3,40.9c-0.7,0.5-2.3,1.3-4.5,1.2h-0.1c-1.7,0-2.8-0.6-3.5-1.1c-0.4-0.3-0.8-0.4-1.3-0.4
		c-7.3-0.2-9.9-3.4-10.8-5.4c-0.4-0.8-1.1-1.4-1.9-1.5c-3.7-0.6-5.7-3.7-5.7-7.8c0-4.2,3.1-7.7,7.2-8.3c0.7-0.1,1.4-0.5,1.8-1
		c1.1-1.4,3.6-4,8.2-4.4c0.7-0.1,1.2-0.6,1.3-1.3C20.1,9.1,20.9,6,24.4,6H25c3.5,0,4.3,3.1,4.4,4.8c0.1,0.7,0.6,1.2,1.3,1.3
		c4.7,0.4,7.2,3,8.2,4.4c0.4,0.6,1.1,0.9,1.8,1c4.1,0.6,7.2,4.1,7.2,8.3c0,4.1-2,7.1-5.6,7.8c0,0-4.2,0-6.3,1.9"/>
	<circle class="st5" cx="19.1" cy="24.7" r="1.2"/>
	<circle class="st5" cx="29.9" cy="24.7" r="1.2"/>
	<path class="st6" d="M24.5,29.8c-1.4,0-2.5-0.7-2.9-1.8c-0.1-0.3,0.2-0.6,0.5-0.6l4.4,0c0.7,0,1,0.4,0.8,0.7
		C27,29.1,25.9,29.8,24.5,29.8z"/>
	<line class="st2" x1="38.5" y1="21" x2="38.5" y2="30.4"/>
	<line class="st2" x1="10.6" y1="30.6" x2="10.6" y2="21"/>
</g>
</svg>
