<svg xmlns="http://www.w3.org/2000/svg" id="Layer_1" x="0" y="0" version="1.1" viewBox="0 0 50 50" xml:space="preserve"><style>.st2,.st3{fill:none;stroke:#444;stroke-linecap:round;stroke-linejoin:round;stroke-miterlimit:10}.st3{stroke-width:.5}</style><path fill="#fcc34f" d="M45.3 1.9L5.1 1.6c-2 0-3.6 1.6-3.6 3.6v14.5l-.1 6.9h.1v3.9l-.3 13.3c0 2 1.6 3.7 3.6 3.6l17.1-.2c.4 0 .8-.1 1.2-.2l23.2-8.7c1.4-.5 2.3-1.9 2.3-3.3V21.7l.1-10-.2-.5.1-5.5V5"/><path fill="none" stroke="#444" stroke-linecap="round" stroke-linejoin="round" stroke-miterlimit="10" stroke-width="2.5" d="M33.8 48.1H3.9c-1.1 0-2-.9-2-2V3.9c0-1.1.9-2 2-2h42.3c1.1 0 2 .9 2 2v32.8"/><path d="M2 10.5h46.1m-37.7 6.1l-2.2 2.1 2.2 2.3m6.5-4.4l2.3 2.1-2.3 2.3m-4-4.4l1.6 4.4m5.6 20.4h11.6c2 0 3.6-1.6 3.6-3.6v-3.9c0-5.2-4.2-9.3-9.3-9.3-5.2 0-9.3 4.2-9.3 9.3v3.9c-.1 2 1.5 3.6 3.4 3.6zM35.3 31.9c1.6 0 2.8 1.3 2.8 2.8v.3c0 1.6-1.3 2.8-2.8 2.8M40 35h-1.9" class="st2"/><circle cx="41.7" cy="35" r="1.4" class="st2"/><circle cx="22.1" cy="31.4" r="1.5" class="st3"/><circle cx="29.7" cy="31.4" r="1.5" class="st3"/><path d="M28.5 38.6h-5.2c-.8 0-1.5-.7-1.5-1.5s.7-1.5 1.5-1.5h5.2c.8 0 1.5.7 1.5 1.5s-.7 1.5-1.5 1.5zm-4.1-3v3m3-3v3" class="st3"/><path d="M16.6 31.9c-1.6 0-2.8 1.3-2.8 2.8v.3c0 1.6 1.3 2.8 2.8 2.8M11.9 35h1.9" class="st2"/><circle cx="10.2" cy="35" r="1.4" class="st2"/><path d="M21.2 6.8H43m-36.6 0h1.5m2 0h1.5M25.9 24.6v-2.4" class="st3"/><circle cx="25.9" cy="21" r="1.1" class="st3"/></svg>