<?xml version="1.0" encoding="UTF-8"?>
<svg id="Camada_1" xmlns="http://www.w3.org/2000/svg" version="1.1" viewBox="0 0 300 300">
  <!-- Generator: Adobe Illustrator 29.7.1, SVG Export Plug-In . SVG Version: 2.1.1 Build 8)  -->
  <defs>
    <style>
      .st0 {
        fill: #54c654;
      }

      .st1 {
        fill: #ffda00;
      }

      .st2 {
        fill: #78d9ff;
      }

      .st3 {
        fill: #cc0e0e;
      }

      .st4 {
        fill: #fff;
      }

      .st5 {
        fill: #145616;
      }

      .st6 {
        fill: #f77839;
      }

      .st7 {
        fill: #008dd3;
      }

      .st8 {
        stroke: #9b0707;
        stroke-linecap: round;
        stroke-linejoin: round;
      }

      .st8, .st9 {
        fill: none;
      }

      .st10 {
        stroke: #ba784a;
      }

      .st10, .st9 {
        stroke-miterlimit: 10;
      }

      .st10, .st11 {
        fill: #ed9751;
      }

      .st12 {
        fill: #f96464;
      }

      .st13 {
        fill: #9b0707;
      }

      .st14 {
        fill: #3a8257;
      }

      .st9 {
        stroke: #646464;
      }
    </style>
  </defs>
  <path class="st7" d="M273.17,143.09c.1,19.8-4.1,38.6-11.6,55.7-21.1,47.6-68.6,80.8-124,81-14.7.1-28.9-2.3-42.2-6.5-25-8-46.8-23-63.1-42.8C15.27,210.09,4.17,184.49,1.47,156.49c-.4-4-.6-8.2-.6-12.3-.2-46.2,22.7-87.2,57.9-111.9,4.6-3.3,9.4-6.2,14.4-8.8,7-3.8,14.4-6.8,22-9.4,7.2-2.3,14.7-4,22.4-5.2,6.2-.8,12.5-1.3,18.9-1.4,25-.1,48.5,6.6,68.8,18.3,3.7,2.1,7.1,4.3,10.5,6.8,16.2,11.5,29.8,26.5,39.7,43.9,1.1,2,2.2,3.9,3.2,6,.8,1.8,1.7,3.5,2.5,5.3,2.6,5.8,4.8,11.7,6.6,17.8,2,6.8,3.5,13.9,4.3,21h0c.7,5.4,1.1,10.9,1.1,16.5Z"/>
  <path class="st13" d="M283.21,65.26l-219.96,5.02-22.87-11.96c5.01-3.18,12.44-5.54,23.5-5.54h184.34c7.68,0,15.25,1.9,22.02,5.53l12.97,6.95Z"/>
  <path class="st3" d="M63.25,70.29l-9.93,161.93-14.06-7.53c-5.68-3.04-9.23-8.97-9.23-15.42V74.95s0-10.05,10.35-16.62l22.87,11.96Z"/>
  <path class="st2" d="M291.98,192.8h0c0,23.87-19.35,43.22-43.22,43.22H76.15c-12.61,0-22.82-10.22-22.82-22.82v-18.41c6.18-3.49,12.28-7.58,18.17-12.26,25.88-20.57,25.15-79.15,27.51-103.04,5.24,1.84,27.27,20.13,33.15,20.13,16.54,0,31.23-7.9,40.5-20.13,9.27,12.23,23.97,20.13,40.5,20.13,5.96,0,32.15-18.24,37.46-20.13,2.99,23.4-1.98,81.03,23.2,101.05,5.89,4.68,11.99,8.77,18.17,12.26Z"/>
  <g>
    <line class="st9" x1="213.86" y1="79.36" x2="213.86" y2="134.76"/>
    <path class="st6" d="M218.59,111.88l.42-.77-.11.87c-.56,4.23,3.8,7.4,7.66,5.56l.79-.38-.6.63c-2.94,3.1-1.27,8.22,2.92,9l.86.16-.86.16c-4.2.78-5.86,5.9-2.92,9l.6.63-.79-.38c-3.85-1.84-8.21,1.33-7.66,5.56l.11.87-.42-.77c-2.04-3.75-7.42-3.75-9.46,0l-.42.77.11-.87c.56-4.23-3.8-7.4-7.66-5.56l-.79.38.6-.63c2.94-3.1,1.27-8.22-2.92-9l-.86-.16.86-.16c4.2-.78,5.86-5.9,2.92-9l-.6-.63.79.38c3.85,1.84,8.21-1.33,7.66-5.56l-.11-.87.42.77c2.04,3.75,7.42,3.75,9.46,0Z"/>
    <circle class="st1" cx="213.86" cy="126.95" r="10.07"/>
  </g>
  <line class="st9" x1="115.18" y1="95.3" x2="115.18" y2="142.18"/>
  <line class="st9" x1="246.57" y1="88.45" x2="246.57" y2="153.46"/>
  <path class="st4" d="M248.5,144.94c-6.74,0-12.86,2.22-17.38,5.82-4.1-2.41-9.09-3.83-14.49-3.83-7.19,0-13.68,2.52-18.26,6.56-4.39-6.16-12.44-10.29-21.65-10.29-.55,0-1.1.02-1.64.05-3.71-7.75-12.77-13.22-23.38-13.22-9.37,0-17.53,4.28-21.87,10.61-5.16-2.17-10.98-3.4-17.15-3.4-21.05,0-38.12,14.25-38.12,31.82s17.07,31.82,38.12,31.82c7.44,0,14.38-1.79,20.25-4.86,3.74,14.29,18.99,25,37.23,25,21.05,0,38.12-14.25,38.12-31.82,0-.49-.02-.97-.04-1.45,2.62.77,5.44,1.2,8.38,1.2,6.74,0,12.86-2.22,17.38-5.82,4.1,2.41,9.09,3.83,14.49,3.83,13.9,0,25.17-9.4,25.17-21.01s-11.27-21.01-25.17-21.01Z"/>
  <line class="st9" x1="139.44" y1="92.77" x2="139.44" y2="177.78"/>
  <path class="st0" d="M284.79,161.06c-1.26-9.03-8.69-16.21-17.76-17.15-12.08-1.26-22.27,8.19-22.27,20.01,0,.44.04.86.07,1.29-3.98-1.9-8.44-2.97-13.14-2.97-12.6,0-23.42,7.64-28.07,18.54-3.38-2.58-7.59-4.12-12.17-4.12-8.38,0-15.56,5.13-18.59,12.42-3.08-1.91-6.7-3.03-10.59-3.03-2.11,0-4.14.33-6.05.93-.4-16.51-13.89-29.77-30.5-29.77-2.87,0-5.64.4-8.28,1.15-5.53-9.81-16.32-16.26-28.55-15.5-14.88.93-27.09,12.78-28.43,27.62-.83,9.25,2.47,17.73,8.26,23.82v41.71h183.36c17.25,0,31.24-13.99,31.24-31.24v-32.82c1.43-3.27,2.02-6.98,1.48-10.89Z"/>
  <path class="st11" d="M292.06,194.78H53.33v37.43c3.73,1.68,9.33,3.8,15.38,3.8h204.92c10.18,0,18.43-8.25,18.43-18.43v-22.8Z"/>
  <path class="st10" d="M98.99,204.71h20.6c1.47,0,2.67,1.19,2.67,2.67v5.36c0,1.47-1.19,2.67-2.67,2.67h-22c-1.31,0-2.38-1.07-2.38-2.38v-4.52c0-2.09,1.7-3.79,3.79-3.79Z"/>
  <rect class="st10" x="114.41" y="215.4" width="27.05" height="10.69" rx="2.67" ry="2.67"/>
  <path class="st10" d="M204.06,202.22h22.66c1.21,0,2.19.98,2.19,2.19v5.83c0,1.47-1.19,2.67-2.67,2.67h-21.72c-1.47,0-2.67-1.19-2.67-2.67v-5.83c0-1.21.98-2.19,2.19-2.19Z"/>
  <rect class="st10" x="77.73" y="220.74" width="27.05" height="10.69" rx="3.24" ry="3.24"/>
  <rect class="st10" x="231.73" y="218.2" width="27.05" height="10.69" rx="2.67" ry="2.67"/>
  <rect class="st10" x="174.12" y="218.2" width="27.05" height="10.69" rx="2.67" ry="2.67"/>
  <g>
    <line class="st9" x1="239.25" y1="91.09" x2="239.25" y2="186.59"/>
    <line class="st9" x1="101.03" y1="90" x2="101.03" y2="193.07"/>
    <path class="st5" d="M84.38,184.35s12.91-12.62,27.96,4.05c0,0,16.33-4.33,20.81,10.53,0,0,18.12-5.13,18.12,10.85h-66.88v-25.44Z"/>
    <path class="st14" d="M273.82,174.78s-12.91-12.62-27.96,4.05c0,0-16.33-4.33-20.81,10.53,0,0-18.12-5.13-18.12,10.85h66.88s0-25.44,0-25.44Z"/>
    <path class="st12" d="M291.98,77.17v115.63c-6.18-3.49-12.28-7.58-18.17-12.26-25.18-20.02-21.73-65.37-24.72-88.77-44.72,19.71-67.17-.05-76.44-12.28-9.27,12.23-34.99,34.26-74.79,11.9-2.37,23.88-.5,70.57-26.37,91.14-5.89,4.68-11.99,8.77-18.17,12.26v-110.99c0-10.23,8.3-18.53,18.53-18.53h211.36c3.94,2.05,8.77,5.33,8.77,11.9Z"/>
    <g>
      <g>
        <path class="st12" d="M84.3,139.92l3.57,70.68s-11.52,8.34-26.61,7.54l7.54-77.04,15.49-1.19Z"/>
        <path class="st12" d="M69.21,152.23l3.57,70.68s-11.52,8.34-26.61,7.54l7.54-77.04,15.49-1.19Z"/>
      </g>
      <g>
        <path class="st12" d="M261.01,139.92l-3.57,70.68s11.52,8.34,26.61,7.54l-7.54-77.04-15.49-1.19Z"/>
        <path class="st12" d="M276.1,152.23l-3.57,70.68s11.52,8.34,26.61,7.54l-7.54-77.04-15.49-1.19Z"/>
      </g>
    </g>
  </g>
  <g>
    <path class="st8" d="M185.17,76.22s31.35,28.88,76.82-2.12"/>
    <path class="st8" d="M201.17,71.3s16.6,15.67,41.61,1.14"/>
    <path class="st8" d="M257.44,87.22s1.84,58.88,13.3,72.27,8.98,67.31,8.98,67.31"/>
    <path class="st8" d="M253.65,91.09s.64,48.25,11.04,66.87c2.42,4.33,4.36,8.92,5.46,13.75,2.33,10.19,4,27,2.38,45.37"/>
    <path class="st8" d="M279.91,73.72s-1.88,64.19,6.08,83.87,8.59,72.92,8.59,72.92"/>
  </g>
  <g>
    <path class="st8" d="M160.14,76.22s-31.35,28.88-76.82-2.12"/>
    <path class="st8" d="M144.14,71.3s-16.6,15.67-41.61,1.14"/>
    <path class="st8" d="M87.88,87.22s-1.84,58.88-13.3,72.27c-11.46,13.39-8.98,67.31-8.98,67.31"/>
    <path class="st8" d="M91.66,91.09s-.64,48.25-11.04,66.87c-2.42,4.33-4.36,8.92-5.46,13.75-2.33,10.19-4,27-2.38,45.37"/>
    <path class="st8" d="M65.4,73.72s1.88,64.19-6.08,83.87c-7.96,19.67-8.59,72.92-8.59,72.92"/>
  </g>
</svg>