<svg xmlns="http://www.w3.org/2000/svg" id="Camada_1" version="1.1" viewBox="0 0 300 300"><defs><style>.st8{stroke:#9b0707;stroke-linecap:round;stroke-linejoin:round}.st8,.st9{fill:none}.st10{stroke:#ba784a}.st10,.st9{stroke-miterlimit:10}.st10{fill:#ed9751}.st12{fill:#f96464}.st9{stroke:#646464}</style></defs><path fill="#008dd3" d="M273.17 143.09c.1 19.8-4.1 38.6-11.6 55.7-21.1 47.6-68.6 80.8-124 81-14.7.1-28.9-2.3-42.2-6.5-25-8-46.8-23-63.1-42.8-17-20.4-28.1-46-30.8-74-.4-4-.6-8.2-.6-12.3-.2-46.2 22.7-87.2 57.9-111.9 4.6-3.3 9.4-6.2 14.4-8.8 7-3.8 14.4-6.8 22-9.4 7.2-2.3 14.7-4 22.4-5.2 6.2-.8 12.5-1.3 18.9-1.4 25-.1 48.5 6.6 68.8 18.3 3.7 2.1 7.1 4.3 10.5 6.8 16.2 11.5 29.8 26.5 39.7 43.9 1.1 2 2.2 3.9 3.2 6 .8 1.8 1.7 3.5 2.5 5.3 2.6 5.8 4.8 11.7 6.6 17.8 2 6.8 3.5 13.9 4.3 21 .7 5.4 1.1 10.9 1.1 16.5z"/><path fill="#9b0707" d="M283.21 65.26L63.25 70.28 40.38 58.32c5.01-3.18 12.44-5.54 23.5-5.54h184.34c7.68 0 15.25 1.9 22.02 5.53l12.97 6.95z"/><path fill="#cc0e0e" d="M63.25 70.29l-9.93 161.93-14.06-7.53a17.492 17.492 0 01-9.23-15.42V74.95s0-10.05 10.35-16.62l22.87 11.96z"/><path fill="#78d9ff" d="M291.98 192.8c0 23.87-19.35 43.22-43.22 43.22H76.15c-12.61 0-22.82-10.22-22.82-22.82v-18.41c6.18-3.49 12.28-7.58 18.17-12.26 25.88-20.57 25.15-79.15 27.51-103.04 5.24 1.84 27.27 20.13 33.15 20.13 16.54 0 31.23-7.9 40.5-20.13 9.27 12.23 23.97 20.13 40.5 20.13 5.96 0 32.15-18.24 37.46-20.13 2.99 23.4-1.98 81.03 23.2 101.05 5.89 4.68 11.99 8.77 18.17 12.26z"/><path d="M213.86 79.36v55.4" class="st9"/><path fill="#f77839" d="M218.59 111.88l.42-.77-.11.87c-.56 4.23 3.8 7.4 7.66 5.56l.79-.38-.6.63c-2.94 3.1-1.27 8.22 2.92 9l.86.16-.86.16c-4.2.78-5.86 5.9-2.92 9l.6.63-.79-.38c-3.85-1.84-8.21 1.33-7.66 5.56l.11.87-.42-.77c-2.04-3.75-7.42-3.75-9.46 0l-.42.77.11-.87c.56-4.23-3.8-7.4-7.66-5.56l-.79.38.6-.63c2.94-3.1 1.27-8.22-2.92-9l-.86-.16.86-.16c4.2-.78 5.86-5.9 2.92-9l-.6-.63.79.38c3.85 1.84 8.21-1.33 7.66-5.56l-.11-.87.42.77c2.04 3.75 7.42 3.75 9.46 0z"/><circle cx="213.86" cy="126.95" r="10.07" fill="#ffda00"/><path d="M115.18 95.3v46.88m131.39-53.73v65.01" class="st9"/><path fill="#fff" d="M248.5 144.94c-6.74 0-12.86 2.22-17.38 5.82-4.1-2.41-9.09-3.83-14.49-3.83-7.19 0-13.68 2.52-18.26 6.56-4.39-6.16-12.44-10.29-21.65-10.29-.55 0-1.1.02-1.64.05-3.71-7.75-12.77-13.22-23.38-13.22-9.37 0-17.53 4.28-21.87 10.61-5.16-2.17-10.98-3.4-17.15-3.4-21.05 0-38.12 14.25-38.12 31.82s17.07 31.82 38.12 31.82c7.44 0 14.38-1.79 20.25-4.86 3.74 14.29 18.99 25 37.23 25 21.05 0 38.12-14.25 38.12-31.82 0-.49-.02-.97-.04-1.45 2.62.77 5.44 1.2 8.38 1.2 6.74 0 12.86-2.22 17.38-5.82 4.1 2.41 9.09 3.83 14.49 3.83 13.9 0 25.17-9.4 25.17-21.01s-11.27-21.01-25.17-21.01z"/><path d="M139.44 92.77v85.01" class="st9"/><path fill="#54c654" d="M284.79 161.06c-1.26-9.03-8.69-16.21-17.76-17.15-12.08-1.26-22.27 8.19-22.27 20.01 0 .44.04.86.07 1.29-3.98-1.9-8.44-2.97-13.14-2.97-12.6 0-23.42 7.64-28.07 18.54a19.979 19.979 0 00-12.17-4.12c-8.38 0-15.56 5.13-18.59 12.42-3.08-1.91-6.7-3.03-10.59-3.03-2.11 0-4.14.33-6.05.93-.4-16.51-13.89-29.77-30.5-29.77-2.87 0-5.64.4-8.28 1.15-5.53-9.81-16.32-16.26-28.55-15.5-14.88.93-27.09 12.78-28.43 27.62-.83 9.25 2.47 17.73 8.26 23.82v41.71h183.36c17.25 0 31.24-13.99 31.24-31.24v-32.82c1.43-3.27 2.02-6.98 1.48-10.89z"/><path fill="#ed9751" d="M292.06 194.78H53.33v37.43c3.73 1.68 9.33 3.8 15.38 3.8h204.92c10.18 0 18.43-8.25 18.43-18.43v-22.8z"/><path d="M98.99 204.71h20.6a2.67 2.67 0 012.67 2.67v5.36a2.67 2.67 0 01-2.67 2.67h-22c-1.31 0-2.38-1.07-2.38-2.38v-4.52c0-2.09 1.7-3.79 3.79-3.79z" class="st10"/><rect width="27.05" height="10.69" x="114.41" y="215.4" class="st10" rx="2.67" ry="2.67"/><path d="M204.06 202.22h22.66c1.21 0 2.19.98 2.19 2.19v5.83a2.67 2.67 0 01-2.67 2.67h-21.72a2.67 2.67 0 01-2.67-2.67v-5.83c0-1.21.98-2.19 2.19-2.19z" class="st10"/><rect width="27.05" height="10.69" x="77.73" y="220.74" class="st10" rx="3.24" ry="3.24"/><rect width="27.05" height="10.69" x="231.73" y="218.2" class="st10" rx="2.67" ry="2.67"/><rect width="27.05" height="10.69" x="174.12" y="218.2" class="st10" rx="2.67" ry="2.67"/><path d="M239.25 91.09v95.5M101.03 90v103.07" class="st9"/><path fill="#145616" d="M84.38 184.35s12.91-12.62 27.96 4.05c0 0 16.33-4.33 20.81 10.53 0 0 18.12-5.13 18.12 10.85H84.39v-25.44z"/><path fill="#3a8257" d="M273.82 174.78s-12.91-12.62-27.96 4.05c0 0-16.33-4.33-20.81 10.53 0 0-18.12-5.13-18.12 10.85h66.88v-25.44z"/><path d="M291.98 77.17V192.8c-6.18-3.49-12.28-7.58-18.17-12.26-25.18-20.02-21.73-65.37-24.72-88.77-44.72 19.71-67.17-.05-76.44-12.28-9.27 12.23-34.99 34.26-74.79 11.9-2.37 23.88-.5 70.57-26.37 91.14-5.89 4.68-11.99 8.77-18.17 12.26V83.8c0-10.23 8.3-18.53 18.53-18.53h211.36c3.94 2.05 8.77 5.33 8.77 11.9z" class="st12"/><path d="M84.3 139.92l3.57 70.68s-11.52 8.34-26.61 7.54l7.54-77.04 15.49-1.19z" class="st12"/><path d="M69.21 152.23l3.57 70.68s-11.52 8.34-26.61 7.54l7.54-77.04 15.49-1.19zm191.8-12.31l-3.57 70.68s11.52 8.34 26.61 7.54l-7.54-77.04-15.49-1.19z" class="st12"/><path d="M276.1 152.23l-3.57 70.68s11.52 8.34 26.61 7.54l-7.54-77.04-15.49-1.19z" class="st12"/><path d="M185.17 76.22s31.35 28.88 76.82-2.12m-60.82-2.8s16.6 15.67 41.61 1.14m14.66 14.78s1.84 58.88 13.3 72.27 8.98 67.31 8.98 67.31" class="st8"/><path d="M253.65 91.09s.64 48.25 11.04 66.87c2.42 4.33 4.36 8.92 5.46 13.75 2.33 10.19 4 27 2.38 45.37m7.38-143.36s-1.88 64.19 6.08 83.87 8.59 72.92 8.59 72.92M160.14 76.22s-31.35 28.88-76.82-2.12m60.82-2.8s-16.6 15.67-41.61 1.14M87.88 87.22s-1.84 58.88-13.3 72.27c-11.46 13.39-8.98 67.31-8.98 67.31" class="st8"/><path d="M91.66 91.09s-.64 48.25-11.04 66.87c-2.42 4.33-4.36 8.92-5.46 13.75-2.33 10.19-4 27-2.38 45.37M65.4 73.72s1.88 64.19-6.08 83.87c-7.96 19.67-8.59 72.92-8.59 72.92" class="st8"/></svg>