<?xml version="1.0" encoding="utf-8"?>
<!-- Generator: Adobe Illustrator 24.0.1, SVG Export Plug-In . SVG Version: 6.00 Build 0)  -->
<svg version="1.1" id="Layer_1" xmlns="http://www.w3.org/2000/svg" xmlns:xlink="http://www.w3.org/1999/xlink" x="0px" y="0px"
	 viewBox="0 0 50 50" style="enable-background:new 0 0 50 50;" xml:space="preserve">
<style type="text/css">
	.st0{fill:#46B8B0;}
	.st1{fill:#4ECDC4;}
	.st2{fill:#444444;}
</style>
<g>
	<path class="st0" d="M46.8,16.2c-2.6-5.3-7.5-8.8-13.1-8.8H16.2C7.9,7.3,1.1,15.2,1.1,25c0,2.6,0.5,5.1,1.4,7.3L46.8,16.2
		L46.8,16.2z"/>
	<path class="st1" d="M35.5,7.6c-0.7-0.1-1.5-0.2-2.3-0.2H15.6C8.8,7.3,3,12.7,1.1,20L35.5,7.6L35.5,7.6z"/>
	<path class="st2" d="M30.1,33.6H19.9c-4.4,0-8.1-3.6-8.1-8.1v-1.2c0-4.4,3.6-8.1,8.1-8.1h10.2c4.4,0,8.1,3.6,8.1,8.1v1.2
		C38.2,30,34.6,33.6,30.1,33.6L30.1,33.6z M19.9,18.2c-3.4,0-6.2,2.8-6.2,6.2v1.2c0,3.4,2.8,6.2,6.2,6.2h10.2c3.4,0,6.2-2.8,6.2-6.2
		v-1.2c0-3.4-2.8-6.2-6.2-6.2H19.9z"/>
	<path class="st2" d="M33.8,43.8H16.3C7.3,43.8,0,35.4,0,25S7.3,6.2,16.2,6.2h17.5c9,0,16.2,8.4,16.2,18.8c0,0.6-0.5,1.1-1.1,1.1
		s-1.1-0.5-1.1-1.1c0-9.1-6.3-16.5-13.9-16.5H16.2C8.5,8.5,2.3,15.9,2.3,25s6.3,16.5,13.9,16.5h17.5c0.6,0,1.1,0.5,1.1,1.1
		S34.5,43.8,33.8,43.8z"/>
</g>
<g>
	<circle class="st1" cx="-165.9" cy="60.5" r="20"/>
	<circle class="st0" cx="-145.9" cy="60.5" r="20"/>
</g>
</svg>
