<?xml version="1.0" encoding="utf-8"?>
<!-- Generator: Adobe Illustrator 26.0.3, SVG Export Plug-In . SVG Version: 6.00 Build 0)  -->
<svg version="1.1" id="Layer_1" xmlns="http://www.w3.org/2000/svg" xmlns:xlink="http://www.w3.org/1999/xlink" x="0px" y="0px"
	 viewBox="0 0 50 50" style="enable-background:new 0 0 50 50;" xml:space="preserve">
<style type="text/css">
	.st0{fill:#DC5E82;}
	.st1{fill:#F56991;}
	.st2{fill:none;stroke:#494949;stroke-width:2.5;stroke-linecap:round;stroke-linejoin:round;stroke-miterlimit:10;}
	.st3{fill:none;stroke:#494949;stroke-linecap:round;stroke-linejoin:round;stroke-miterlimit:10;}
	.st4{fill:none;stroke:#494949;stroke-width:0.5;stroke-linecap:round;stroke-linejoin:round;stroke-miterlimit:10;}
</style>
<g>
	<g>
		<path class="st0" d="M48.1,22.1l-7.3,2.7l-18.2,6.7l-12.2,4.5l-1.2,0.5c-3.3-1.6-5.9-4.6-6.8-8.2l-0.7,0.3v-1.7l0.1-2l0.2-0.1
			l33.2-12.1h0.8c2,0,3.9,0.5,5.5,1.3C44.7,15.4,47.2,18.4,48.1,22.1z"/>
	</g>
	<g>
		<path class="st1" d="M41.4,13.8l-23.9,8.8l-1.8,0.7l-0.4,0.2L2.3,28.1l-0.7,0.3v-1.7l0.1-2l0.2-0.1c0.2-6.8,5.7-12.1,12.5-12.1
			h21.5C37.9,12.5,39.7,13,41.4,13.8z"/>
	</g>
	<path class="st2" d="M48.1,22.1c-0.9-3.7-3.4-6.7-6.7-8.3c-1.7-0.8-3.5-1.3-5.5-1.3H14.4c-6.8,0-12.3,5.4-12.5,12.1
		c0,0.1,0,0.3,0,0.4c0,1.1,0.1,2.1,0.4,3.1c0.9,3.7,3.5,6.7,6.8,8.2c1.6,0.8,3.4,1.2,5.3,1.2h21.5c6.9,0,12.5-5.6,12.5-12.5
		C48.4,24,48.3,23,48.1,22.1z"/>
	<g>
		<path class="st3" d="M11.4,28c0,0.6-0.5,1.1-1.1,1.1c-0.6,0-1.1-0.5-1.1-1.1s0.5-1.1,1.1-1.1C10.9,26.9,11.4,27.4,11.4,28z"/>
		<path class="st3" d="M17.5,22.4c0,0.6-0.5,1.1-1.1,1.1c-0.6,0-1.1-0.5-1.1-1.1c0-0.6,0.5-1.1,1.1-1.1C17,21.3,17.5,21.8,17.5,22.4
			z"/>
		<path class="st3" d="M24.4,24.2c0,0.6-0.5,1.1-1.1,1.1c-0.6,0-1.1-0.5-1.1-1.1c0-0.6,0.5-1.1,1.1-1.1
			C23.9,23.1,24.4,23.6,24.4,24.2z"/>
		<path class="st3" d="M29.7,27.9c0,0.6-0.5,1.1-1.1,1.1c-0.6,0-1.1-0.5-1.1-1.1c0-0.6,0.5-1.1,1.1-1.1c0.4,0,0.8,0.2,1,0.6
			C29.6,27.6,29.7,27.7,29.7,27.9z"/>
		<path class="st3" d="M35.8,23.7c0,0.6-0.5,1.1-1.1,1.1c-0.6,0-1.1-0.5-1.1-1.1c0-0.6,0.5-1.1,1.1-1.1
			C35.3,22.6,35.8,23.1,35.8,23.7z"/>
		<path class="st3" d="M41.8,20.2c0,0.6-0.5,1.1-1.1,1.1c-0.6,0-1.1-0.5-1.1-1.1c0-0.6,0.5-1.1,1.1-1.1
			C41.4,19.1,41.8,19.6,41.8,20.2z"/>
		<line class="st4" x1="10.3" y1="31.4" x2="10.3" y2="32.4"/>
		<line class="st4" x1="10.3" y1="35" x2="10.3" y2="36.1"/>
		<line class="st4" x1="16.4" y1="31.4" x2="16.4" y2="32.4"/>
		<line class="st4" x1="16.4" y1="35" x2="16.4" y2="36.1"/>
		<line class="st4" x1="22.5" y1="31.4" x2="22.5" y2="32.4"/>
		<line class="st4" x1="22.5" y1="35" x2="22.5" y2="36.1"/>
		<line class="st4" x1="28.6" y1="35" x2="28.6" y2="36.1"/>
		<line class="st4" x1="34.7" y1="31.4" x2="34.7" y2="32.4"/>
		<line class="st4" x1="28.6" y1="31.4" x2="28.6" y2="32.4"/>
		<line class="st4" x1="34.7" y1="35" x2="34.7" y2="36.1"/>
		<line class="st4" x1="40.8" y1="31.4" x2="40.8" y2="32.4"/>
		<line class="st4" x1="40.8" y1="35" x2="40.8" y2="36.1"/>
		<line class="st4" x1="40.8" y1="24" x2="40.8" y2="25.1"/>
		<line class="st4" x1="40.8" y1="27.7" x2="40.8" y2="28.7"/>
		<line class="st4" x1="34.7" y1="27.7" x2="34.7" y2="28.7"/>
		<line class="st4" x1="22.5" y1="27.7" x2="22.5" y2="28.7"/>
		<line class="st4" x1="16.4" y1="27.7" x2="16.4" y2="28.7"/>
	</g>
	<line class="st3" x1="11.2" y1="27.3" x2="15.5" y2="23.1"/>
	<line class="st3" x1="17.5" y1="22.6" x2="22.2" y2="24"/>
	<line class="st3" x1="24.3" y1="24.5" x2="27.6" y2="27.4"/>
	<line class="st3" x1="29.7" y1="27.5" x2="33.8" y2="24.4"/>
	<line class="st3" x1="35.8" y1="23.1" x2="39.8" y2="20.8"/>
</g>
</svg>
