<svg version="1" xmlns="http://www.w3.org/2000/svg" viewBox="0 0 50 50"><path fill="#FCC34F" d="M34.01 23.712v15.484h6.187v.027l-24.007 8.74h-3.172l-3.224-5.787v-2.98h6.431V23.712h-4.252L8.749 4.863V2.781h32.502v2.082l-3.224 18.849z"/><path fill="#FDCF72" d="M41.251 2.781v2.082l-.731 4.296-29.218 10.64L8.749 4.863V2.781z"/><path fill="#444" d="M39.08 24.961l3.4-19.889.018-4.285h-35v4.074l3.418 20.1h3.802v12.783H8.546v4.754l3.738 6.712h7.894a1.25 1.25 0 0 0 0-2.5h-6.425l-2.457-4.411h21.093a.125.125 0 0 0 0-.25H11.157l-.111-.199v-1.605H40.2a1.25 1.25 0 0 0 0-2.5h-4.764l.037-12.783 3.607-.001zm-5.852-13.334a.125.125 0 0 0-.027-.084.126.126 0 0 0-.093-.041H17.127a.127.127 0 0 0-.093.041.131.131 0 0 0-.028.084h-.005v10.834h-3.977L10.038 4.987h29.921l-2.988 17.475h-3.737V11.627h-.006zM9.999 3.287h30v1.449h-30V3.287zm7.253 10.909l2.514 25.771h-2.514V14.196zm.013-2.444h15.706l-2.752 28.215H20.018l-2.753-28.215zm13.204 28.215l2.514-25.775-.053 25.775h-2.461z"/></svg>