<svg xmlns="http://www.w3.org/2000/svg" id="Layer_1" x="0" y="0" version="1.1" viewBox="0 0 50 50" xml:space="preserve"><style>.st1{fill:none;stroke:#e5e5e5;stroke-width:2;stroke-linecap:round;stroke-linejoin:round;stroke-miterlimit:10}.st2{fill:#e5e5e5}</style><path fill="#8852ca" d="M47.4 8.1v33.7c0 2.1-1.2 4-2.9 4.9-.8.4-1.7.7-2.7.7H8.1c-3.1 0-5.6-2.5-5.6-5.6V8.1C2.5 5 5 2.5 8.1 2.5h33.7c3.1.1 5.6 2.6 5.6 5.6z"/><path d="M26.2 18.9s-4.6-3-1.3-8.7c0 0 4.4-7.3 14.4-3.4 0 0 3.6 1.4 4.6 5.1.5 1.7.4 3.5-.4 5-1.3 2.5-4.7 6-13.7 4.1l-3.5 1.1c-.4.1-.7-.2-.7-.6l.6-2.6z" class="st1"/><circle cx="15.2" cy="16" r="4.3" class="st1"/><path d="M15.5 32.5h-9c-.4 0-.7-.3-.7-.7v-4.3c0-2 1.4-3.7 3.4-4.1 3.1-.6 8-1.1 12.6.3 1.3.4 2.2 1.5 2.5 2.9.1.7.3 1.4.3 1.8m-13.8 4.1l-.2-4.2m23.7.4v13.4c0 .9-1 1.4-1.7.9l-4.9-3.2c-.7-.4-1.5-.7-2.3-.7h-4.2c-1.3 0-2.4-1.1-2.4-2.4V34c0-1.3 1.1-2.4 2.4-2.4h4.3c.8 0 1.7-.2 2.4-.7l4.8-3.2c.6-.4 1.6.1 1.6 1zm-10.1 3v7.5" class="st1"/><path d="M20.5 39.2l1.2 4.4c.1.3.4.5.7.5h1.1c.5 0 .9-.5.7-1l-1-3.9m11.7-6.4c1.4 0 2.5 1.1 2.5 2.5v1.2c0 1.4-1.1 2.5-2.5 2.5" class="st1"/><circle cx="29.5" cy="13.5" r="1.1" class="st2"/><circle cx="34.3" cy="13.5" r="1.1" class="st2"/><circle cx="39.1" cy="13.5" r="1.1" class="st2"/></svg>