<svg xmlns="http://www.w3.org/2000/svg" id="Camada_1" x="0" y="0" version="1.1" viewBox="0 0 300 300" xml:space="preserve"><style>.st43{fill:#c4cbcc}.st58{fill:#515759}.st60{fill:none;stroke:#515151;stroke-width:5;stroke-linecap:round;stroke-linejoin:round;stroke-miterlimit:10}</style><path id="Camada_2_00000004547203601795818520000015993910348774109104_" fill="#008dd3" d="M282.7 150.7c.1 20.5-4.3 40-12 57.6-21.8 49.2-70.9 83.5-128.2 83.7-15.2.1-29.9-2.3-43.6-6.7-25.8-8.2-48.4-23.8-65.3-44.2C16 220 4.5 193.6 1.8 164.6c-.4-4.2-.6-8.4-.6-12.7C1 104.1 24.7 61.7 61 36.2c4.8-3.4 9.7-6.4 14.8-9.1 7.3-3.9 14.8-7.1 22.8-9.7 7.5-2.4 15.2-4.2 23.2-5.3 6.4-.9 12.9-1.4 19.5-1.5 25.9-.1 50.1 6.8 71.1 18.9 3.8 2.1 7.4 4.5 10.9 7 16.8 11.9 30.8 27.3 41 45.4 1.2 2 2.2 4.1 3.3 6.2.9 1.8 1.7 3.6 2.6 5.4 2.7 6 4.9 12.1 6.8 18.4 2 7.1 3.6 14.4 4.5 21.7.8 5.7 1.2 11.4 1.2 17.1z"/><path d="M120.6 266h159.2c2.6 0 4.7-2.1 4.7-4.7V22.8c0-2.6-2.1-4.7-4.7-4.7H119.7c-9.7 0-17.6 7.9-17.6 17.6v211.8c0 10.2 8.3 18.5 18.5 18.5z" class="st58"/><g id="_x31_5_00000091696152266369507570000003526313944816328371_"><path fill="#9ea8a9" d="M119.9 24.3h157.2c1.6 0 2.8 1.3 2.8 2.8v17.7l-4.1 4.3c-1.5-2-6.5-7.6-9.2-7.6-4.5 0-8.2 3.7-8.2 8.2 0 4.5 3.7 8.2 8.2 8.2 2.9 0 5.5-1.5 7-3.9h6.3v24.5l-4.1 4.3c-1.5-2-6.5-7.6-9.2-7.6-4.5 0-8.2 3.7-8.2 8.2s3.7 8.2 8.2 8.2c2.9 0 5.5-1.5 7-3.9h6.3v24.5l-4.1 4.3c-1.5-2-6.5-7.6-9.2-7.6-4.5 0-8.2 3.7-8.2 8.2 0 4.5 3.7 8.2 8.2 8.2 2.9 0 5.5-1.5 7-3.9h6.3v24.5l-4.1 4.3c-1.5-2-6.5-7.6-9.2-7.6-4.5 0-8.2 3.7-8.2 8.2 0 4.5 3.7 8.2 8.2 8.2 2.9 0 5.5-1.5 7-3.9h6.3v24.5l-4.1 4.3c-1.5-2-6.5-7.6-9.2-7.6-4.5 0-8.2 3.7-8.2 8.2 0 4.5 3.7 8.2 8.2 8.2 2.9 0 5.5-1.5 7-3.9h6.3v24.5l-4.1 4.3c-1.5-2-6.5-7.6-9.2-7.6-4.5 0-8.2 3.7-8.2 8.2 0 4.5 3.7 8.2 8.2 8.2 2.9 0 5.5-1.5 7-3.9h6.3V247l-4.1 4.3c-1.5-2-6.5-7.6-9.2-7.6-4.5 0-8.2 3.7-8.2 8.2 0 4.5 3.7 8.2 8.2 8.2 2.9 0 5.5-1.5 7-3.9h6.3v9c0 1.6-3 5.1-7 5l-153.1-4.3c-10.6 0-19.3-8.6-19.3-19.3v-203c.2-10.6 8.8-19.3 19.4-19.3z"/><path fill="#fff" d="M115.8 28.7H273c1.6 0 2.8 1.3 2.8 2.8v17.7h-6.7c-1.5-2-3.9-3.3-6.5-3.3-4.5 0-8.2 3.7-8.2 8.2 0 4.5 3.7 8.2 8.2 8.2 2.9 0 5.5-1.5 7-3.9h6.3V83h-6.7c-1.5-2-3.9-3.3-6.5-3.3-4.5 0-8.2 3.7-8.2 8.2s3.7 8.2 8.2 8.2c2.9 0 5.5-1.5 7-3.9h6.3v24.5h-6.7c-1.5-2-3.9-3.3-6.5-3.3-4.5 0-8.2 3.7-8.2 8.2 0 4.5 3.7 8.2 8.2 8.2 2.9 0 5.5-1.5 7-3.9h6.3v24.5h-6.7c-1.5-2-3.9-3.3-6.5-3.3-4.5 0-8.2 3.7-8.2 8.2 0 4.5 3.7 8.2 8.2 8.2 2.9 0 5.5-1.5 7-3.9h6.3v24.5h-6.7c-1.5-2-3.9-3.3-6.5-3.3-4.5 0-8.2 3.7-8.2 8.2 0 4.5 3.7 8.2 8.2 8.2 2.9 0 5.5-1.5 7-3.9h6.3v24.5h-6.7c-1.5-2-3.9-3.3-6.5-3.3-4.5 0-8.2 3.7-8.2 8.2 0 4.5 3.7 8.2 8.2 8.2 2.9 0 5.5-1.5 7-3.9h6.3v25h-6.7c-1.5-2-3.9-3.3-6.5-3.3-4.5 0-8.2 3.7-8.2 8.2 0 4.5 3.7 8.2 8.2 8.2 2.9 0 5.5-1.5 7-3.9h6.3v6.9c0 1.6-1.3 2.8-2.8 2.8H115.8c-10.6 0-19.3-8.6-19.3-19.3V47.9c0-10.6 8.7-19.2 19.3-19.2z"/><path fill="#ef3030" d="M262.3 53.7c0-1.9 1.6-3.5 3.5-3.5h20.4c2.1 0 3.9-1.7 3.9-3.9 0-2.1-1.7-3.9-3.9-3.9h-1.7v-6.9h1.7c5.9 0 10.8 4.8 10.8 10.8s-4.8 10.8-10.8 10.8h-20.4c-2 0-3.5-1.5-3.5-3.4zm0 33.8c0-1.9 1.6-3.5 3.5-3.5h20.4c2.1 0 3.9-1.7 3.9-3.9 0-2.1-1.7-3.9-3.9-3.9h-1.7v-6.9h1.7c5.9 0 10.8 4.8 10.8 10.8 0 5.9-4.8 10.8-10.8 10.8h-20.4c-2 0-3.5-1.5-3.5-3.4zm0 33.8c0-1.9 1.6-3.5 3.5-3.5h20.4c2.1 0 3.9-1.7 3.9-3.9 0-2.1-1.7-3.9-3.9-3.9h-1.7v-6.9h1.7c5.9 0 10.8 4.8 10.8 10.8 0 5.9-4.8 10.8-10.8 10.8h-20.4c-2 0-3.5-1.5-3.5-3.4zm0 33.8c0-1.9 1.6-3.5 3.5-3.5h20.4c2.1 0 3.9-1.7 3.9-3.9 0-2.1-1.7-3.9-3.9-3.9h-1.7V137h1.7c5.9 0 10.8 4.8 10.8 10.8 0 5.9-4.8 10.8-10.8 10.8h-20.4c-2-.1-3.5-1.6-3.5-3.5zm0 33.8c0-1.9 1.6-3.5 3.5-3.5h20.4c2.1 0 3.9-1.7 3.9-3.9 0-2.1-1.7-3.9-3.9-3.9h-1.7v-6.9h1.7c5.9 0 10.8 4.8 10.8 10.8s-4.8 10.8-10.8 10.8h-20.4c-2 0-3.5-1.5-3.5-3.4zm0 33.8c0-1.9 1.6-3.5 3.5-3.5h20.4c2.1 0 3.9-1.7 3.9-3.9 0-2.1-1.7-3.9-3.9-3.9h-1.7v-6.9h1.7c5.9 0 10.8 4.8 10.8 10.8 0 5.9-4.8 10.8-10.8 10.8h-20.4c-2 0-3.5-1.5-3.5-3.4zm0 33.8c0-1.9 1.6-3.5 3.5-3.5h20.4c2.1 0 3.9-1.7 3.9-3.9 0-2.1-1.7-3.9-3.9-3.9h-1.7v-6.9h1.7c5.9 0 10.8 4.8 10.8 10.8s-4.8 10.8-10.8 10.8h-20.4c-2 0-3.5-1.5-3.5-3.4z"/></g><path d="M176.7 170.2l15.5 37.8m11.2-26.6l-37.9 15.5" class="st60"/><path fill="none" stroke="#00bf5f" stroke-linecap="round" stroke-linejoin="round" stroke-miterlimit="10" stroke-width="5" d="M154.6 47.8v42.5c0 9.8 4.9 19.1 13.4 25.2l44.7 32.2c8.5 6.1 13.4 15.4 13.4 25.2v16.7M154.6 47.8l21.5 19.4m-21.5-19.4l-21.4 19.4"/><path d="M205.2 235.4l6-10.1v22.2m13.7-172s6.5-5.6 10.8-.8c5.8 6.6-11.4 19.8-11.4 19.8h14" class="st60"/><path d="M73.9 275.1s-3.5-1.8-3.5-6.2c0-4.2 9.9-11.1 11.9-12.4 4.7-3.2 2.1-13.2-2-13.3-4.8 0 11.4-.1 11.4-5.3 0-3.2-9.3-7.1-9.3-7.1S64.1 224 64.1 217c.1-15.9 5.6-63.6 20.6-78.5 8-7.9 21.3-10.4 29.5-13.8 6-2.5 18.3-1.6 19.3-.6 1.6 1.6-6.3 7.7-6.3 7.7s3 2.1 7.7 6.8c2.2 2.2 6.6 9.5 10.4 15.6 1.8 2.9 6.9 7.5 8.3 10.7.8 1.8 1.7 7.7.9 10.7-.4 1.3-4.4 0-7.1 0 0 2.5 3.1 4.1.8 4.1-4.5 0-8.3.6-9.4-.5-3.2-3.2-7.9-8.7-15.2-8.7-3.7 0-8-.4-10.4-2.8-3.6 14.4 23.7 24.1 29.4 43.1 2.3 7.5-7.6 20.3-7.6 20.3s-12.9.9-12.3 3.7c.6 3.3 20.5 9.4 15 9.4-7 0-7.9 8-3.7 12.2 4.1 4.2 13.6 9.4 13.5 14 0 4.6-3.6 5.5-3.6 5.5s-16.2 6.6-33 6.6-37-7.4-37-7.4z" class="st58"/><path d="M141.5 234.1v5.7c0 2.1-1.5 4-3.6 4.3-9.3 1.8-34.9 5.6-58.5.1-2-.5-3.4-2.3-3.4-4.3v-5.1c0-2.8 2.5-4.9 5.2-4.4 8.1 1.5 26 3.4 55.2-.8 2.7-.2 5.1 1.8 5.1 4.5zm3.1 44.7v1.5c0 2.3-1.6 4.3-3.9 4.7-10 1.9-37.8 6.1-63.3.1-2.2-.5-3.7-2.4-3.7-4.7v-.8c0-3 2.7-5.3 5.7-4.7 8.8 1.6 28.1 3.7 59.8-.9 2.8-.4 5.4 1.9 5.4 4.8z" class="st43"/><path d="M82.4 230.8s-15.2-73.9 10.9-98.3c0 0-13.7 1.4-21.1 30.4-7.4 29-9.5 50.4-9.5 50.4s-.9 6.7 5.4 10.8 14.3 6.7 14.3 6.7zm47.8-83.2s-1.8-4.9-8.4-4.8c0 0 1.1 4.1 4.1 4.4s4.3.4 4.3.4zm-1.7-22.5c.9.1 1.2 1.2.5 1.8-1.1 1-2.6 2.1-3.5 2.4-1.4.5-5.7-1.2-7.5-2-.4-.2-.5-.7-.1-1 .9-.7 3-1.6 7.6-1.6.3 0 .6 0 .9.1l2.1.3zm-15.2 42.4s-11.9-2.8-13.2-20.1c0 0-11.2 21.1.9 35.8 12.1 14.8 41 25.2 41 25.2s-5.4-15.8-17.8-23.8c-12.4-7.9-10.9-17.1-10.9-17.1z" class="st43"/></svg>