<?xml version="1.0" encoding="utf-8"?>
<!-- Generator: Adobe Illustrator 22.1.0, SVG Export Plug-In . SVG Version: 6.00 Build 0)  -->
<svg version="1.1" id="Layer_1" xmlns="http://www.w3.org/2000/svg" xmlns:xlink="http://www.w3.org/1999/xlink" x="0px" y="0px"
	 viewBox="0 0 50 50" style="enable-background:new 0 0 50 50;" xml:space="preserve">
<style type="text/css">
	.st0{fill:#AFE55D;}
	.st1{fill:#C3FF68;}
	.st2{fill:#444444;}
</style>
<g>
	<g>
		<polygon class="st0" points="47.6,23.5 7.4,38.1 5.8,35.1 1.3,33.7 1.4,30.8 4.6,28.1 3.2,26.4 40.7,12.9 		"/>
	</g>
	<g>
		<polygon class="st1" points="40.7,12.9 4,26.5 4.2,18.8 10.2,11.6 18,6.4 21.8,4.6 25.7,2.3 32.3,7.3 		"/>
	</g>
</g>
<path class="st2" d="M45.7,28c1.1-1,1.9-2.5,1.9-4.3v-1.5c0-2.6-1.6-4.7-3.8-5.4c0,0,0,0,0,0C40.9,11.3,36,7.4,30.2,5.8
	c-0.5-2.5-2.6-4.3-5.2-4.3c-2.5,0-4.5,1.7-5.1,4.1C13.7,6.9,8.5,11,5.5,16.6l-0.4,0.7c-1.6,0.9-2.7,2.7-2.7,4.9v1.5
	c0,1.8,0.7,3.3,1.9,4.3c-2.2,0.8-4,2.2-4,3.5v2.2c0,1.1,0.9,2.1,2.1,2.1h2.9c0,0.1,0,0.3,0.1,0.4c2.5,5,6.9,8.8,12.2,10.6
	c0.1,1.1,1,1.9,2.1,1.9h10.8c1.1,0,2.1-0.9,2.1-2.1v-2.2c0-1.4-1.9-2.7-4-3.5c1.1-1,1.8-2.5,1.8-4.3v-1.5c0-3.2-2.3-5.6-5.3-5.6
	s-5.3,2.4-5.3,5.6v1.5c0,1.8,0.7,3.3,1.9,4.3c-2.2,0.8-4,2.2-4,3.5V45c-4.4-1.7-8.2-5-10.4-9.2h6c1.1,0,2.1-0.9,2.1-2.1v-2.2
	c0-1.4-1.9-2.7-4-3.5c1.1-1,1.9-2.5,1.9-4.3v-1.5c0-3.2-2.3-5.6-5.3-5.6c-0.1,0-0.2,0-0.3,0c2.7-4.6,7.1-7.9,12.2-9.2v1.3
	c0,1.8,0.7,3.3,1.9,4.3c-2.2,0.8-4,2.2-4,3.5v2.2c0,1.1,0.9,2.1,2.1,2.1h10.8c1.1,0,2.1-0.9,2.1-2.1v-2.2c0-1.4-1.8-2.7-4-3.5
	c1.1-1,1.8-2.5,1.8-4.3v-1c4.8,1.4,8.8,4.7,11.3,9c-2.7,0.3-4.7,2.6-4.7,5.6v1.5c0,1.8,0.7,3.3,1.9,4.3c-2.2,0.8-4,2.2-4,3.5v2.2
	c0,1.1,0.9,2.1,2.1,2.1h10.8c1.1,0,2.1-0.9,2.1-2.1v-2.2C49.7,30.2,47.8,28.8,45.7,28z M21.7,35.1c0-2.1,1.4-3.6,3.3-3.6
	s3.3,1.5,3.3,3.6v1.5c0,2.1-1.4,3.6-3.3,3.6s-3.3-1.5-3.3-3.6V35.1z M25,42.2c2.5,0,5.2,1.7,5.5,2.2v2.2c0,0,0,0.1-0.1,0.1H19.6
	c0,0-0.1,0-0.1-0.1l0-2.1C19.8,43.9,22.5,42.2,25,42.2z M13.2,31.5v2.2c0,0,0,0.1-0.1,0.1H2.4c0,0-0.1,0-0.1-0.1l0-2.1
	c0.2-0.6,2.9-2.3,5.5-2.3C10.3,29.3,13,31,13.2,31.5z M7.8,18.6c1.9,0,3.3,1.5,3.3,3.6v1.5c0,2.1-1.4,3.6-3.3,3.6s-3.3-1.5-3.3-3.6
	v-1.5C4.5,20.1,5.9,18.6,7.8,18.6z M21.7,7.1c0-2.1,1.4-3.6,3.3-3.6s3.3,1.5,3.3,3.6v1.5c0,2.1-1.4,3.6-3.3,3.6s-3.3-1.5-3.3-3.6
	V7.1z M30.5,16.5v2.2c0,0,0,0.1-0.1,0.1H19.6c0,0-0.1,0-0.1-0.1l0-2.1c0.2-0.6,2.9-2.3,5.5-2.3C27.5,14.3,30.2,15.9,30.5,16.5z
	 M38.9,22.2c0-2.1,1.4-3.6,3.3-3.6c1.9,0,3.3,1.5,3.3,3.6v1.5c0,2.1-1.4,3.6-3.3,3.6c-1.9,0-3.3-1.5-3.3-3.6V22.2z M47.7,33.7
	C47.7,33.7,47.6,33.8,47.7,33.7l-10.8,0.1c0,0-0.1,0-0.1-0.1l0-2.1c0.2-0.6,2.9-2.3,5.5-2.3c2.5,0,5.2,1.7,5.5,2.2V33.7z"/>
</svg>
