<svg xmlns="http://www.w3.org/2000/svg" id="Layer_1" x="0" y="0" version="1.1" viewBox="0 0 50 50" xml:space="preserve"><style>.st2{fill:#444}</style><path fill="#c3ff68" d="M47.5 8.7c0-1.2-1-2.2-2.2-2.2h-6.5V2.2h-3.6v4.3H15.6V2.2H12v4.3H5.5c-1.2 0-2.2 1-2.2 2.2v21.5l44.3-16.1V8.7z"/><path fill="#afe55d" d="M47.5 14.1L3.3 30.2v13.7c0 1.2 1 2.2 2.2 2.2h8.7L47.5 34V14.1z"/><path d="M44.9 6.1h-5.2V1.8h-6.1v4.3H16.4V1.8h-6.1v4.3H5.1c-1.9 0-3.5 1.6-3.5 3.5v35.2c0 1.9 1.6 3.5 3.5 3.5h32.4c.7 0 1.2-.6 1.2-1.2s-.6-1.2-1.2-1.2H5.1c-.5 0-1-.4-1-1V15.6h41.8v20.1c0 .7.6 1.2 1.2 1.2s1.2-.6 1.2-1.2V9.5c.1-1.9-1.5-3.4-3.4-3.4zm-40.8 7V9.5c0-.5.4-1 1-1h7.7V4.3h1.1v4.3h22.2V4.3h1.1v4.3h7.7c.5 0 1 .4 1 1v3.6H4.1z" class="st2"/><path d="M36 11.7H14.8c-.4 0-.8-.3-.8-.8s.3-.8.8-.8H36c.4 0 .8.3.8.8s-.4.8-.8.8zM17 28.1H8v-9h9v9zm-7.4-1.5h6v-6h-6v6zm19.9 1.5h-9v-9h9v9zM22 26.6h6v-6h-6v6zm19.9 1.5h-9v-9h9v9zm-7.4-1.5h6v-6h-6v6zM17 40.2H8v-9h9v9zm-7.4-1.5h6v-6h-6v6zm19.9 1.5h-9v-9h9v9zM22 38.7h6v-6h-6v6zM44.7 30c-.4-.5-1.2-.6-1.8-.2l-2.2 1.8h-7.5v2l-.7-.7c-.5-.5-1.3-.5-1.8 0s-.5 1.3 0 1.8l2.5 2.5v2.7h8.2v-5.6l3-2.5c.7-.5.8-1.3.3-1.8zm-10.6 2.3h5.8l-4.3 3.5-1.5-1.5v-2zm0 5.5l1.2 1.2h-1.2v-1.2zm6.7 1.2h-5.2l5.2-4.2V39z" class="st2"/></svg>