<?xml version="1.0" encoding="utf-8"?>
<!-- Generator: Adobe Illustrator 24.0.1, SVG Export Plug-In . SVG Version: 6.00 Build 0)  -->
<svg version="1.1" id="Layer_1" xmlns="http://www.w3.org/2000/svg" xmlns:xlink="http://www.w3.org/1999/xlink" x="0px" y="0px"
	 viewBox="0 0 50 50" style="enable-background:new 0 0 50 50;" xml:space="preserve">
<style type="text/css">
	.st0{fill:#C3FF68;}
	.st1{fill:#AFE55D;}
	.st2{fill:#444444;}
</style>
<g>
	<g>
		<path class="st0" d="M47.5,8.7c0-1.2-1-2.2-2.2-2.2h-6.5V2.2h-3.6v4.3H15.6V2.2h-3.6v4.3H5.5c-1.2,0-2.2,1-2.2,2.2v21.5l44.3-16.1
			V8.7z"/>
	</g>
	<g>
		<path class="st1" d="M47.5,14.1L3.3,30.2v13.7c0,1.2,1,2.2,2.2,2.2h8.7L47.5,34V14.1z"/>
	</g>
	<path class="st2" d="M44.9,6.1h-5.2V1.8h-6.1v4.3H16.4V1.8h-6.1v4.3H5.1c-1.9,0-3.5,1.6-3.5,3.5v35.2c0,1.9,1.6,3.5,3.5,3.5h32.4
		c0.7,0,1.2-0.6,1.2-1.2s-0.6-1.2-1.2-1.2H5.1c-0.5,0-1-0.4-1-1V15.6h41.8v20.1c0,0.7,0.6,1.2,1.2,1.2s1.2-0.6,1.2-1.2V9.5
		C48.4,7.6,46.8,6.1,44.9,6.1z M4.1,13.1V9.5c0-0.5,0.4-1,1-1h7.7V4.3h1.1v4.3h22.2V4.3h1.1v4.3h7.7c0.5,0,1,0.4,1,1v3.6H4.1z"/>
	<g>
		<path class="st2" d="M36,11.7H14.8c-0.4,0-0.8-0.3-0.8-0.8s0.3-0.8,0.8-0.8H36c0.4,0,0.8,0.3,0.8,0.8S36.4,11.7,36,11.7z"/>
	</g>
	<g>
		<g>
			<path class="st2" d="M17,28.1h-9v-9h9V28.1z M9.6,26.6h6v-6h-6V26.6z"/>
		</g>
		<g>
			<path class="st2" d="M29.5,28.1h-9v-9h9V28.1z M22,26.6h6v-6h-6V26.6z"/>
		</g>
		<g>
			<path class="st2" d="M41.9,28.1h-9v-9h9V28.1z M34.5,26.6h6v-6h-6V26.6z"/>
		</g>
	</g>
	<g>
		<path class="st2" d="M17,40.2h-9v-9h9V40.2z M9.6,38.7h6v-6h-6V38.7z"/>
	</g>
	<g>
		<path class="st2" d="M29.5,40.2h-9v-9h9V40.2z M22,38.7h6v-6h-6V38.7z"/>
	</g>
	<path class="st2" d="M44.7,30c-0.4-0.5-1.2-0.6-1.8-0.2l-2.2,1.8h-7.5v2l-0.7-0.7c-0.5-0.5-1.3-0.5-1.8,0s-0.5,1.3,0,1.8l2.5,2.5
		v2.7h8.2v-5.6l3-2.5C45.1,31.3,45.2,30.5,44.7,30z M34.1,32.3h5.8l-4.3,3.5l-1.5-1.5V32.3z M34.1,37.8l1.2,1.2h-1.2V37.8z M40.8,39
		h-5.2l5.2-4.2V39z"/>
</g>
</svg>
