<svg xmlns="http://www.w3.org/2000/svg" viewBox="0 0 50 50"><path fill="#afe55d" d="M47.6 23.5L7.4 38.1l-1.6-3-4.5-1.4.1-2.9 3.2-2.7-1.4-1.7 37.5-13.5z"/><path fill="#c3ff68" d="M40.7 12.9L4 26.5l.2-7.7 6-7.2L18 6.4l3.8-1.8 3.9-2.3 6.6 5z"/><path fill="#444" d="M45.7 28c1.1-1 1.9-2.5 1.9-4.3v-1.5c0-2.6-1.6-4.7-3.8-5.4-2.9-5.5-7.8-9.4-13.6-11-.5-2.5-2.6-4.3-5.2-4.3-2.5 0-4.5 1.7-5.1 4.1-6.2 1.3-11.4 5.4-14.4 11l-.4.7c-1.6.9-2.7 2.7-2.7 4.9v1.5c0 1.8.7 3.3 1.9 4.3-2.2.8-4 2.2-4 3.5v2.2c0 1.1.9 2.1 2.1 2.1h2.9c0 .1 0 .3.1.4 2.5 5 6.9 8.8 12.2 10.6.1 1.1 1 1.9 2.1 1.9h10.8c1.1 0 2.1-.9 2.1-2.1v-2.2c0-1.4-1.9-2.7-4-3.5 1.1-1 1.8-2.5 1.8-4.3v-1.5c0-3.2-2.3-5.6-5.3-5.6s-5.3 2.4-5.3 5.6v1.5c0 1.8.7 3.3 1.9 4.3-2.2.8-4 2.2-4 3.5v.6c-4.4-1.7-8.2-5-10.4-9.2h6c1.1 0 2.1-.9 2.1-2.1v-2.2c0-1.4-1.9-2.7-4-3.5 1.1-1 1.9-2.5 1.9-4.3v-1.5c0-3.2-2.3-5.6-5.3-5.6h-.3c2.7-4.6 7.1-7.9 12.2-9.2v1.3c0 1.8.7 3.3 1.9 4.3-2.2.8-4 2.2-4 3.5v2.2c0 1.1.9 2.1 2.1 2.1h10.8c1.1 0 2.1-.9 2.1-2.1v-2.2c0-1.4-1.8-2.7-4-3.5 1.1-1 1.8-2.5 1.8-4.3v-1c4.8 1.4 8.8 4.7 11.3 9-2.7.3-4.7 2.6-4.7 5.6v1.5c0 1.8.7 3.3 1.9 4.3-2.2.8-4 2.2-4 3.5v2.2c0 1.1.9 2.1 2.1 2.1H48c1.1 0 2.1-.9 2.1-2.1v-2.2c-.4-1.4-2.3-2.8-4.4-3.6zm-24 7.1c0-2.1 1.4-3.6 3.3-3.6s3.3 1.5 3.3 3.6v1.5c0 2.1-1.4 3.6-3.3 3.6s-3.3-1.5-3.3-3.6v-1.5zm3.3 7.1c2.5 0 5.2 1.7 5.5 2.2v2.2s0 .1-.1.1H19.6s-.1 0-.1-. 1v-2.1c.3-.6 3-2.3 5.5-2.3zM13.2 31.5v2.2s0 .1-.1.1H2.4s-.1 0-.1-.1v-2.1c.2-.6 2.9-2.3 5.5-2.3 2.5 0 5.2 1.7 5.4 2.2zM7.8 18.6c1.9 0 3.3 1.5 3.3 3.6v1.5c0 2.1-1.4 3.6-3.3 3.6s-3.3-1.5-3.3-3.6v-1.5c0-2.1 1.4-3.6 3.3-3.6zM21.7 7.1c0-2.1 1.4-3.6 3.3-3.6s3.3 1.5 3.3 3.6v1.5c0 2.1-1.4 3.6-3.3 3.6s-3.3-1.5-3.3-3.6V7.1zm8.8 9.4v2.2s0 .1-.1.1H19.6s-.1 0-.1-.1v-2.1c.2-.6 2.9-2.3 5.5-2.3 2.5 0 5.2 1.6 5.5 2.2zm8.4 5.7c0-2.1 1.4-3.6 3.3-3.6s3.3 1.5 3.3 3.6v1.5c0 2.1-1.4 3.6-3.3 3.6s-3.3-1.5-3.3-3.6v-1.5zm8.8 11.5s-.1.1 0 0l-10.8.1s-.1 0-.1-.1v-2.1c.2-.6 2.9-2.3 5.5-2.3 2.5 0 5.2 1.7 5.5 2.2v2.2z"/></svg>
