<?xml version="1.0" encoding="UTF-8"?>
<svg id="Camada_1" data-name="Camada 1" xmlns="http://www.w3.org/2000/svg" xmlns:xlink="http://www.w3.org/1999/xlink" viewBox="0 0 300 300">
  <defs>
    <style>
      .cls-1 {
        fill: #206029;
      }

      .cls-2 {
        fill: none;
      }

      .cls-3 {
        fill: #fac900;
      }

      .cls-4 {
        fill: #aa57e5;
      }

      .cls-5 {
        fill: #a150bc;
      }

      .cls-6 {
        fill: #008dd3;
      }

      .cls-7 {
        fill: #8a38ad;
      }

      .cls-8 {
        fill: #964c47;
      }

      .cls-9 {
        fill: #425466;
      }

      .cls-10 {
        fill: #cc6744;
      }

      .cls-11 {
        fill: #61e061;
      }

      .cls-12 {
        fill: #873018;
      }

      .cls-13 {
        fill: #7c2929;
      }

      .cls-14 {
        fill: #bc615e;
      }

      .cls-15 {
        clip-path: url(#clippath);
      }

      .cls-16 {
        fill: #8c315f;
      }
    </style>
    <clipPath id="clippath">
      <ellipse class="cls-2" cx="212.36" cy="214.35" rx="87.88" ry="85.35" transform="translate(-58.23 80.85) rotate(-19.01)"/>
    </clipPath>
  </defs>
  <circle class="cls-6" cx="140" cy="150" r="140"/>
  <g>
    <g>
      <g class="cls-15">
        <ellipse class="cls-8" cx="212.36" cy="214.35" rx="87.88" ry="85.35" transform="translate(-58.23 80.85) rotate(-19.01)"/>
        <g>
          <path class="cls-10" d="M240.97,297.16c-2.68-2.55-4.1-6.12-4-10.05l.47-18.09c.18-6.83,4.91-13.09,11.5-15.21l11.31-3.65c6.45-2.08,13.27.75,16.21,6.74l4.87,9.91c1.53,3.1,1.82,6.79.82,10.37h0s-2.89,10.4-2.89,10.4c-1.84,6.63-7.62,11.59-14.05,12.08l-13.84,1.05c-.72.05-1.43.06-2.13.01-3.16-.21-6.04-1.43-8.26-3.55ZM276.35,275.56c.6-2.16.45-4.33-.42-6.1l-4.87-9.91c-1.64-3.33-5.32-4.84-8.96-3.66l-11.31,3.65c-4.2,1.36-7.21,5.32-7.33,9.64l-.47,18.09c-.06,2.21.7,4.17,2.13,5.54,1.46,1.4,3.52,2.07,5.79,1.9l13.84-1.05c3.89-.29,7.55-3.53,8.71-7.69l2.89-10.4h0Z"/>
          <path class="cls-10" d="M248.25,289.64c-1.79-1.77-2.73-4.21-2.65-6.87l.34-10.4c.14-4.45,3.09-8.46,7.33-9.98l6.55-2.34c4.42-1.58,9.16.22,11.26,4.27l3.05,5.89c1.12,2.15,1.35,4.71.65,7.2l-1.77,6.34c-1.27,4.54-5.28,7.85-9.75,8.05l-8.2.37c-.37.02-.74.01-1.1-.01-2.19-.14-4.19-1.02-5.72-2.53ZM261.85,265.72l-6.55,2.34c-1.9.68-3.27,2.53-3.34,4.5l-.34,10.4c-.03.96.27,1.81.86,2.39.57.57,1.4.85,2.31.81l8.2-.37c1.84-.08,3.66-1.66,4.22-3.66l1.77-6.34h0c.28-1,.21-2.03-.2-2.81l-3.05-5.9c-.5-.96-1.39-1.52-2.43-1.58-.47-.03-.96.04-1.46.22Z"/>
        </g>
        <g>
          <path class="cls-10" d="M132.45,214.46l-8.04-7.16c-5.09-4.54-6.87-12.02-4.23-17.78l5.69-12.45c1.61-3.53,4.45-6.14,7.99-7.35,3.59-1.22,7.5-.87,11.03.99l16.17,8.51c6.14,3.23,9.56,10.2,8.31,16.93l-2.12,11.43c-1.23,6.63-6.89,11.16-13.77,11.02l-11.32-.22c-.22,0-.43-.01-.64-.03-3.28-.22-6.48-1.58-9.07-3.89ZM135.81,175.41c-1.96.67-3.54,2.14-4.46,4.15l-5.69,12.45c-1.57,3.42-.4,7.96,2.77,10.78l8.04,7.16h0c1.68,1.5,3.75,2.35,5.82,2.39l11.32.22c3.87.08,7.05-2.43,7.73-6.1l2.12-11.43c.77-4.17-1.36-8.49-5.19-10.51l-16.17-8.51c-1.1-.58-2.26-.91-3.41-.99-.98-.06-1.95.06-2.88.37Z"/>
          <path class="cls-10" d="M135.76,207.97l2.01-2.24-2.01,2.24-4.9-4.38c-3.5-3.13-4.62-8.28-2.65-12.25l3.6-7.27c1.13-2.28,3.06-3.95,5.43-4.71,2.44-.78,5.08-.51,7.44.75l9.27,4.95c4,2.14,6.23,6.55,5.56,10.97l-1.03,6.72c-.69,4.55-4.55,7.85-9.16,7.85h-6.81c-.21,0-.42,0-.63-.02-2.22-.15-4.37-1.06-6.12-2.62ZM139.08,185.11c-.82.26-1.46.83-1.87,1.65l-3.6,7.27c-.77,1.56-.23,3.75,1.27,5.09l4.9,4.38c.79.71,1.79,1.11,2.73,1.11h6.81c1.67,0,2.97-1.1,3.22-2.74l1.03-6.72c.29-1.88-.72-3.83-2.44-4.75l-9.27-4.95c-.51-.27-1.05-.43-1.58-.47-.41-.03-.81.02-1.19.14Z"/>
        </g>
        <path class="cls-10" d="M165.87,304.06c.45.03.92-.04,1.37-.23,6.93-2.93,12.27-8.34,15.04-15.21,2.67-6.63,2.61-13.86-.18-20.36-4.55-10.62-17.12-15.5-28.03-10.89-4.22,1.79-7.48,5.08-9.17,9.28-1.63,4.06-1.59,8.48.11,12.46,2.84,6.64,10.69,9.7,17.49,6.82,2.7-1.14,4.78-3.25,5.87-5.94,1.05-2.61,1.02-5.46-.07-8.02-1.88-4.4-7.07-6.43-11.56-4.53-1.53.65-2.25,2.41-1.6,3.95.65,1.53,2.41,2.25,3.95,1.6,1.45-.61,3.1,0,3.68,1.35.46,1.08.47,2.29.02,3.4-.48,1.19-1.41,2.13-2.63,2.64-3.75,1.59-8.07-.04-9.61-3.64-1.07-2.5-1.09-5.28-.06-7.84,1.09-2.7,3.19-4.82,5.93-5.98,7.86-3.33,16.9.13,20.15,7.71,2.15,5.02,2.19,10.61.13,15.74-2.17,5.38-6.36,9.61-11.8,11.92-1.53.65-2.25,2.41-1.6,3.95.46,1.08,1.48,1.76,2.58,1.83Z"/>
        <path class="cls-10" d="M221.98,246.3l-8.23-1.47c-8.78-1.57-14.84-9.64-13.8-18.37l1.46-12.29c.62-5.25,3.76-10.02,8.4-12.76l7.22-4.26c4.16-2.46,9.19-3.11,13.8-1.78,4.53,1.3,8.19,4.28,10.33,8.39l4.19,8.07c2.39,4.6,2.49,9.97.27,14.72h0s-4.64,9.95-4.64,9.95c-3.07,6.58-9.89,10.51-17.05,10.04-.65-.04-1.3-.12-1.95-.24ZM240.17,224c1.42-3.04,1.36-6.47-.16-9.4l-4.19-8.07c-1.37-2.63-3.73-4.54-6.65-5.38-3.03-.87-6.34-.44-9.08,1.18l-7.22,4.26c-3.03,1.79-5.08,4.89-5.48,8.28l-1.46,12.29c-.67,5.66,3.15,10.71,8.88,11.73l8.23,1.47c5.17.92,10.3-1.72,12.49-6.42l4.64-9.95h0Z"/>
        <path class="cls-10" d="M222.1,234.17l-3.64-.65c-4.75-.85-8.04-5.23-7.47-9.97l.65-5.43c.34-2.84,2.03-5.41,4.53-6.89l3.19-1.88c2.23-1.32,4.94-1.67,7.42-.96,2.45.7,4.44,2.32,5.6,4.55l1.85,3.57c1.3,2.5,1.35,5.41.15,7.99,0,0,0,0,0,0l-2.05,4.4c-1.65,3.54-5.32,5.66-9.17,5.4-.35-.02-.7-.07-1.05-.13ZM228.91,221.95c.41-.87.39-1.84-.04-2.67l-1.85-3.57c-.39-.75-1.07-1.3-1.91-1.54-.91-.26-1.87-.14-2.7.35l-3.19,1.88c-.89.53-1.49,1.43-1.61,2.41l-.65,5.43c-.19,1.61.91,3.04,2.55,3.34l3.64.65c1.49.27,3.06-.53,3.7-1.89l2.05-4.4h0Z"/>
        <path class="cls-10" d="M245.91,161.52l-3.18-3.89c-2.02-2.47-2.89-5.58-2.44-8.75.45-3.21,2.27-6.12,4.98-7.99l4.72-3.25c2.94-2.03,6.59-2.64,10.01-1.69l6.53,1.82c5.28,1.47,8.73,6.27,8.39,11.68l-.32,5.03c-.38,6.03-5.3,10.75-11.43,10.99l-7.75.3c-.41.02-.82,0-1.22-.02-3.22-.21-6.25-1.74-8.27-4.22ZM253.4,142.6l-4.72,3.25c-1.35.93-2.21,2.31-2.43,3.87-.21,1.49.19,2.94,1.14,4.1l3.18,3.89c1.09,1.34,2.82,2.1,4.61,2.03l7.75-.3c2.99-.11,5.47-2.46,5.65-5.35l.32-5.03c.16-2.54-1.48-4.8-4-5.5l-6.53-1.82h0c-.39-.11-.79-.18-1.19-.2-1.32-.09-2.66.28-3.78,1.05ZM259.17,138.85h0s0,0,0,0Z"/>
        <path class="cls-10" d="M281.3,233.42c-6.31-5.91-10.07-14.73-10.31-24.22h0c-.45-17.8,11.55-32.79,26.76-33.42,6.59-.27,13.05,2.21,18.17,7.01,6.31,5.91,10.07,14.73,10.31,24.22.45,17.8-11.55,32.79-26.76,33.42-.85.04-1.7.02-2.54-.03-5.69-.38-11.17-2.8-15.63-6.98ZM298,181.8c-11.94.5-21.35,12.72-20.99,27.26h0c.2,7.88,3.26,15.16,8.4,19.97,3.94,3.68,8.84,5.6,13.81,5.39,11.94-.5,21.35-12.72,20.99-27.26-.2-7.88-3.26-15.16-8.4-19.97-3.44-3.22-7.61-5.08-11.92-5.37-.63-.04-1.26-.05-1.89-.02ZM273.99,209.13h0s0,0,0,0Z"/>
        <path class="cls-10" d="M291.74,226.44c-4.63-4.33-7.38-10.79-7.56-17.71h0c-.33-13.04,8.52-24.03,19.73-24.5,4.89-.2,9.67,1.64,13.47,5.18,4.63,4.33,7.38,10.79,7.56,17.71.33,13.04-8.52,24.03-19.73,24.5-.63.03-1.26.02-1.89-.02-4.22-.28-8.27-2.07-11.57-5.16ZM304.16,190.24c-7.95.33-14.21,8.55-13.96,18.33.13,5.33,2.19,10.24,5.65,13.47,2.64,2.47,5.79,3.7,9.1,3.57,7.95-.33,14.21-8.55,13.96-18.33-.13-5.33-2.19-10.24-5.65-13.47-2.3-2.15-4.98-3.36-7.82-3.55-.42-.03-.85-.03-1.28-.02ZM287.18,208.65h0s0,0,0,0Z"/>
      </g>
      <path class="cls-14" d="M116.08,185.03c1.71,4.97,5.29,8.79,9.67,10.93h0c11.57,6.16,41.51,3.29,74.32-8.02,29.95-10.32,53.7-24.7,61.66-36.24.02-.02.03-.04.04-.06,3.74-4.9,5.03-11.52,2.87-17.79-1.74-5.05-5.38-8.89-9.85-11.02-11.52-6.21-41.53-3.34-74.4,7.98-34.67,11.94-61.03,29.32-64.21,41.45,0,0,0,.01,0,.02-1.45,3.97-1.59,8.44-.11,12.74Z"/>
      <path class="cls-13" d="M139.45,169.04c.33.97,1.17,1.72,2.45,2.28,7.01,3.07,27.23.17,49.82-7.61,22.77-7.84,40.6-18.11,44.02-24.84.6-1.16.76-2.23.44-3.15-.68-1.96-3.44-3.08-7.75-3.39-8.6-.64-23.35,1.9-39.81,7.16-1.56.5-3.13,1.02-4.72,1.57-1.51.52-3,1.05-4.46,1.59-16.12,5.95-29.27,12.97-35.76,18.76-3.35,2.98-4.93,5.63-4.24,7.64Z"/>
      <path class="cls-12" d="M138.61,199.37c35.64,2.35,76.91-14.04,104.69-30.93,13.07-7.94,20.01-17.98,20.08-18.08.19-.27.12-.65-.16-.84-.28-.19-.65-.12-.84.16-.07.1-6.88,9.93-19.71,17.73-29.34,17.84-73.78,35.11-110.51,30.1-.32-.04-.63.19-.68.52-.04.33.19.63.52.68,2.17.3,4.38.52,6.6.66Z"/>
      <g>
        <rect class="cls-11" x="167.62" y="116.22" width="26.42" height="31.77" rx="11.28" ry="11.28" transform="translate(394.83 198.1) rotate(160.99)"/>
        <path class="cls-4" d="M141.91,171.32c7.01,3.07,27.23.17,49.82-7.61,22.77-7.84,40.6-18.11,44.02-24.84-2.35-2.35-4.8-4.59-7.3-6.54-3.59-2.8-7.28-5.03-10.9-6.19-7.11-2.27-15.86-1.46-20.44-.74-1,.16-1.74,1.05-1.68,2.06.28,4.4-2.82,9.09-6.79,12.02-1.38,1.02-2.86,1.82-4.34,2.34s-3.12.78-4.84.82c-5.02.14-10.51-1.67-13.05-5.34-.58-.84-1.72-1.08-2.61-.57-4,2.27-11.18,7.07-15.37,13.22-2.12,3.11-3.64,7.09-4.74,11.46-.8,3.17-1.37,6.53-1.79,9.93Z"/>
        <g>
          <path class="cls-11" d="M210.58,167.72c5.11-.68,4.43-5.73,4.06-9.3-.16-1.55.89-3.77,1.53-4.69.25-.36.63-.14,1.17.41,4.54,3.96,1.8,19.17,10.52,15.58,1.4-.58,2.32-1.49,2.87-2.63,3.16-1.18,5.19-2.8,6.42-4.64,7.29-2.79,6.79-8.32,5.71-13.96-.37-1.95-1.64-7.29-5.46-10.22-3.9-3-8.8-4.09-16.99-1.27-12.23,4.21-14.8,12.29-15.39,15.51-.66,3.58.44,15.9,5.55,15.22Z"/>
          <path class="cls-1" d="M237.11,163.04c.21.01.42-.08.54-.27,4.86-7.25-1.76-17.31-2.05-17.73-.19-.28-.56-.35-.84-.17-.28.18-.35.56-.17.84.06.1,6.45,9.82,2.05,16.39-.19.28-.11.65.16.84.09.06.19.09.3.1Z"/>
          <path class="cls-1" d="M230.69,167.68c.24.02.47-.11.58-.34,3-6.13-3.91-17.79-4.21-18.28-.17-.29-.54-.38-.83-.21-.29.17-.38.54-.21.83.07.12,6.87,11.59,4.16,17.13-.15.3-.02.66.28.81.07.04.15.06.22.06Z"/>
        </g>
      </g>
      <g>
        <g>
          <path class="cls-11" d="M86.97,130.87c-3.99,3.4,2.28,5.94,3.5,9.1.14.31.61,1.67.27,1.67-3.87.07-7.34-12.18-12.07-7.23-.72.76-.88,1.69-.83,2.56-1.5,1.79-2.16,3.46-2.27,4.99-8.66,11.34,16.76,22.84,16.76,22.84l7.18,5.61,14.14-15.9-5.28-8.19-10.49-8.75c-2.29-3.04-7.48-8.89-10.93-6.7Z"/>
          <path class="cls-1" d="M84.71,152.44c.12,0,.24-.06.29-.17.07-.15.01-.33-.14-.4-3.05-1.48-3.84-3.74-4.54-5.74-.71-2.04-1.38-3.96-4.23-4.54-.16-.03-.32.07-.35.24-.03.16.07.32.24.35,2.52.51,3.08,2.11,3.78,4.15.73,2.11,1.57,4.49,4.84,6.09.04.02.07.03.11.03Z"/>
          <path class="cls-1" d="M87.15,146.47c.13,0,.26-.07.31-.21.05-.16-.03-.33-.19-.38-1.79-.58-2.77-2.59-3.72-4.53-1.19-2.43-2.42-4.94-5.26-4.66-.17.02-.29.16-.27.33.02.17.17.29.33.27,2.43-.23,3.52,1.98,4.67,4.33,1.01,2.05,2.05,4.17,4.08,4.84.02,0,.05.01.07.01Z"/>
          <path class="cls-1" d="M98.14,153.24c.11,0,.21-.04.27-.14.09-.14.05-.33-.09-.42-.07-.05-7.41-4.8-7.28-11.04,0-.17-.14-.31-.29-.31-.17,0-.3.13-.31.3-.13,6.57,7.24,11.35,7.56,11.56.04.03.09.04.14.05Z"/>
        </g>
        <polygon class="cls-4" points="175.88 163.22 149.43 194.17 125.04 177 148.79 149.49 175.88 163.22"/>
        <path class="cls-4" d="M109.82,146.28c-.49-.42-1.25-.24-1.5.35l-9.8,23.08c-1,2.37.02,5.12,2.33,6.26l39.46,19.67-2.63-33.26-27.85-16.1Z"/>
        <circle class="cls-4" cx="143.45" cy="184.92" r="10.91"/>
      </g>
    </g>
    <g>
      <path class="cls-7" d="M169.82,85.2c12.32-2.82,23.79-6.2,32.29-9.53,8.47-3.32,17.93-7.51,16.58-13.43-.59-2.59-4.53-4.11-7.58-3.41-2.24.51-3.91,2.09-4.41,3.91-3.1,2.31-16.41,7.92-39.03,13.1-22.61,5.17-37.04,5.91-40.84,5.17-1.24-1.43-3.43-2.12-5.67-1.61-3.05.7-5.1,3.62-4.5,6.21,1.35,5.91,10.86,5.74,19.93,5.05,9.1-.7,20.9-2.63,33.22-5.45Z"/>
      <g>
        <g>
          <g>
            <path class="cls-11" d="M133.82,113.32c1.24,3.47,3.14,6.59,5.49,9.25,6.57,7.45,16.66,11.34,25.97,9.52l27.08-6.2c9.2-2.42,17.31-10.51,20.42-20.21,1.11-3.42,1.59-7.06,1.26-10.71-.02-.27-.05-.54-.08-.8-.14-1.15-.35-2.29-.65-3.43-.08-.33-.18-.66-.27-.98-.48-1.64-1.09-3.2-1.8-4.68-.56-1.19-1.2-2.33-1.89-3.41.02-1.42-.05-2.85-.22-4.28-.13-1.18-.33-2.37-.6-3.55,0-.06-.02-.12-.04-.18-1.24-5.41-3.7-10.25-7.08-14.34-.63-.78-1.3-1.52-2-2.23-.27-.28-.55-.55-.83-.82-.8-.76-1.62-1.49-2.49-2.18-1.31-1.05-2.69-2.01-4.13-2.88-.12-.08-.24-.15-.36-.22-.65-.39-1.32-.75-1.99-1.1-.37-.19-.74-.38-1.12-.55-1-.47-2.02-.91-3.05-1.3-.35-.13-.7-.26-1.05-.38-7.23-2.52-15.4-3.09-23.63-1.21-8.72,2-16.19,6.44-21.71,12.34-.7.75-1.38,1.53-2.02,2.32-.05.07-.1.13-.15.19-.68.86-1.33,1.74-1.93,2.65-.07.11-.15.23-.22.33,0,0,0,.01-.01.02-2.37,3.64-4.03,7.61-5,11.79-.12.53-.3,1.08-.4,1.62h0c-.17.93-.3,1.85-.4,2.79-.38,3.68-.17,7.45.69,11.22.01.06.03.12.05.18.28,1.18.61,2.34,1.01,3.46.47,1.37,1.03,2.7,1.66,3.96-.18,1.48-.25,2.99-.21,4.53.03,1.44.16,2.89.4,4.35.05.33.11.67.18,1,.28,1.43.66,2.81,1.15,4.13Z"/>
            <g>
              <g>
                <path class="cls-11" d="M242.37,66.51s-16.9,36.23-30.37,27.95c-13.47-8.28-10.73-16.94-7.83-19.22,2.91-2.27,42.13-22.93,38.19-8.74Z"/>
                <path class="cls-1" d="M219.42,86.74c.85-.38,1.57-1.14,2.08-2.23.63-1.33.63-2.43,0-3.27-1.66-2.24-7.37-1.86-9.49-1.63,8.42-7.24,23.11-12.35,23.26-12.41.13-.04.2-.18.15-.31s-.18-.2-.31-.15c-.16.05-15.63,5.44-24.01,13.03-.08.07-.1.19-.06.29.05.1.15.15.26.14.08-.01,7.98-1.13,9.82,1.34.51.68.49,1.62-.05,2.77-1.23,2.61-3.19,2.32-3.98,2.08-1.43-.45-2.59-1.74-2.42-2.72.14-.81,1.23-1.24,3.01-1.19.13,0,.25-.1.25-.24,0-.13-.1-.25-.24-.25-2.8-.08-3.4.96-3.5,1.6-.2,1.22,1.08,2.74,2.76,3.26.89.28,1.73.23,2.48-.1Z"/>
              </g>
              <g>
                <path class="cls-11" d="M95.96,100s30.97,25.28,39.5,11.97c8.53-13.31,2.3-19.93-1.31-20.71s-47.9-2.33-38.19,8.74Z"/>
                <path class="cls-1" d="M126.68,107.95c.36-.16.71-.4,1.03-.7,1.28-1.2,1.78-3.13,1.06-4.14-.37-.52-1.36-1.21-3.85.09-.12.06-.17.21-.1.33.06.12.21.17.33.1,1.58-.82,2.75-.91,3.22-.24.57.81.09,2.47-1,3.5-.6.56-2.24,1.68-4.48-.14-.99-.8-1.41-1.64-1.25-2.47.58-3.03,8.18-5.45,8.26-5.48.1-.03.17-.13.17-.24,0-.11-.07-.2-.18-.23-10.84-3.19-27.13-1.31-27.29-1.29-.13.02-.23.14-.21.27.02.13.14.23.27.21.16-.02,15.6-1.8,26.34,1.06-2.01.72-7.32,2.86-7.84,5.6-.2,1.03.28,2.02,1.43,2.94,1.37,1.11,2.83,1.39,4.09.82Z"/>
              </g>
            </g>
            <g>
              <path d="M185.4,90c.6,2.68,2.58,4.51,4.42,4.1,1.84-.42,2.85-2.92,2.25-5.6-.6-2.68-2.58-4.51-4.42-4.1-1.84.42-2.84,2.92-2.25,5.6Z"/>
              <path d="M157.52,96.56c.62,2.67-.37,5.18-2.2,5.61-1.84.43-3.84-1.39-4.46-4.07-.62-2.67.36-5.18,2.2-5.61,1.84-.43,3.83,1.39,4.46,4.07Z"/>
            </g>
            <path class="cls-9" d="M193.87,74.21c-4.51-4.31-10.95-4.36-14.22,1.39-.19.33-.07.75.26.94.29.17.66.09.87-.15,1.5-1.76,3.38-3.23,5.71-3.32,1.98-.11,4.02.7,5.74,1.71.27.16.54.33.78.49.69.46,1.45-.46.87-1.05h0Z"/>
            <path class="cls-9" d="M143.43,86.57c1.15-1.94,2.79-3.9,4.89-4.77,2.14-.93,4.47-.42,6.59.5.35.16.76,0,.91-.36.13-.31.02-.66-.24-.84-1.1-.76-2.38-1.33-3.78-1.59-4.4-.83-8.24,2.59-9.63,6.52-.26.81.87,1.28,1.26.53h0Z"/>
            <path class="cls-1" d="M179.83,112.91s.05,0,.08,0c10.5-2.03,11.1-9.41,11.11-9.48.01-.17-.11-.31-.28-.32h0c-.17-.01-.31.11-.32.28-.02.28-.6,6.99-10.62,8.93-.16.03-.27.19-.24.35.03.14.14.23.28.24Z"/>
          </g>
          <g>
            <polygon class="cls-9" points="140.63 65.35 140.77 65.5 140.83 65.3 140.63 65.35"/>
            <polygon class="cls-9" points="140.63 65.35 140.77 65.5 140.83 65.3 140.63 65.35"/>
            <polygon class="cls-9" points="140.63 65.35 140.77 65.5 140.83 65.3 140.63 65.35"/>
            <polygon class="cls-9" points="140.83 65.3 140.63 65.35 140.77 65.5 140.83 65.3"/>
            <path class="cls-9" d="M129.65,76.11c-.05.2-.09.39-.13.59.07-.33.14-.65.22-.97-.03.13-.06.26-.09.38Z"/>
          </g>
          <path class="cls-9" d="M142.55,73.75l.2-.05-.06.19-.14-.15Z"/>
          <path class="cls-9" d="M132.08,103.15c.78.43,3.49,1.3,3.27-7.53,0-.01,0-.02,0-.03-.01-.38-.03-.77-.05-1.17,0-.02,0-.05,0-.08-.03-.68-.03-1.33-.02-1.96.99.02,4.5,2.33,7.08-5.17l3.38-10.77,4.21,4.48c1.22,1.3,3.42.8,3.96-.91l3.71-11.8,6.49,6.91c.92.98,2.36,1.11,3.45.86,1.08-.25,2.33-1,2.73-2.27l2.84-9.04,8.47,9.01c1.22,1.3,3.42.8,3.96-.9l1.84-5.87,7.73,8.23c5.13,6.09,8.43,2.85,8.63,1.58.3.58.59,1.19.87,1.84.1.23.2.45.29.67,3.68,7.47,5.71,6.81,6.5,6.01-.04-.08-.08-.16-.12-.24,0-.01-.01-.02-.02-.04-1.08-2.26-1.81-4.67-2.06-7.16-.02-.19-.04-.37-.06-.56-.14-1.19-.34-2.39-.61-3.59,0-.06-.02-.12-.03-.18-.72-3.14-1.85-6.08-3.34-8.8-.08-.15-.17-.32-.27-.48-.23-.41-.47-.81-.71-1.21-.12-.21-.25-.4-.39-.6-.11-.17-.22-.34-.33-.51-.33-.5-.65-.95-1.06-1.48l-.46-.59c-.21-.26-.42-.52-.63-.78-.16-.2-.33-.39-.49-.58-.28-.33-.56-.65-.86-.96-.37-.39-.74-.78-1.13-1.15-.13-.13-.26-.27-.39-.39-2.03-1.94-4.29-3.64-6.74-5.09h-.01c-.12-.08-.24-.15-.35-.22-.96-.55-1.94-1.08-2.95-1.55-.08-.04-.15-.07-.23-.1-.94-.44-1.9-.85-2.88-1.22-7.45-2.82-15.98-3.61-24.61-1.8-8.55,2.12-15.89,6.54-21.38,12.32-.72.76-1.41,1.54-2.06,2.35-.06.07-.11.13-.16.19-.69.87-1.36,1.77-1.98,2.68-.07.11-.15.22-.22.34v.02c-1.58,2.37-2.88,4.89-3.87,7.52-.07.17-.12.34-.19.51-.19.5-.36,1.02-.52,1.53-.13.41-.25.82-.36,1.24-.07.24-.13.49-.19.73-.08.33-.16.65-.23.98-.05.25-.11.49-.16.74-.13.66-.22,1.2-.31,1.79-.03.2-.05.4-.08.6-.03.24-.06.47-.09.71-.04.47-.08.93-.12,1.4-.02.18-.02.37-.03.54-.15,3.09.1,6.24.82,9.37.01.06.03.12.05.17.27,1.19.61,2.36,1.01,3.49.06.19.13.37.2.55.86,2.34,1.24,4.82,1.25,7.32,0,.01,0,.03,0,.04,0,.01,0,.03,0,.04Z"/>
          <path class="cls-1" d="M166.67,102.12c.07,0,.13-.01.19-.05,6.35-4.41,10.73-2.24,10.77-2.21.15.08.33.02.41-.13.08-.15.02-.33-.13-.41-.19-.1-4.74-2.36-11.39,2.25-.14.09-.17.28-.08.42.05.08.14.12.23.13Z"/>
        </g>
        <g>
          <path class="cls-5" d="M126.07,73.82l78.91-18.05-11.9-14.52-28.82-35.17c-9.21-9.56-17.97-7.74-22.18,4.69l-11.61,44.8-4.4,18.25Z"/>
          <path class="cls-16" d="M126.07,73.82l78.91-18.05-9.88-13.85c-.43-.61-1.08-1.02-1.82-1.14-9.86-1.59-21.91-1.06-32.92,1.46-11.02,2.52-21.64,7.18-29.79,12.9-.59.41-.99,1.04-1.13,1.75l-3.38,16.93Z"/>
          <path class="cls-3" d="M152.74,43.52c.09-.04.18-.07.27-.09l14.61-3.34c.38-.09.77-.02,1.1.19.33.21.56.53.65.91l3.09,13.5c.15.68-.19,1.38-.83,1.66-.09.04-.18.07-.27.09l-14.61,3.34c-.38.09-.77.02-1.1-.19s-.56-.53-.65-.91l-3.09-13.5c-.15-.68.19-1.38.83-1.66M152.14,42.19c-1.25.56-1.97,1.95-1.66,3.33l3.09,13.5c.36,1.57,1.94,2.56,3.51,2.2l14.61-3.34c.19-.04.37-.11.55-.18,1.25-.56,1.97-1.95,1.66-3.33l-3.09-13.5c-.36-1.57-1.94-2.56-3.51-2.2l-14.61,3.34c-.19.04-.37.11-.55.18h0Z"/>
          <path class="cls-5" d="M119.71,89.35c1.03-1.45,2.07-2.49,3.9-3.87,1.94-1.46,4-2.72,6.16-3.82,5.94-3.02,17.57-8.15,36.75-12.54,23.1-5.28,37.94-5.59,41.88-4.56,2.3.39,3.64.57,9.07,2.43,1.46-1.99,2.03-3.89,1.32-7-1.63-7.13-11.51-7.83-20.83-7.36-9.35.47-21.43,2.32-34.02,5.2-12.59,2.88-24.27,6.47-32.9,10.11-8.6,3.63-17.17,8.3-15.54,15.43.71,3.12,2.06,5.39,4.2,5.98Z"/>
          <g>
            <g>
              <path class="cls-5" d="M194.28,42.27l.05-.24s-.54-.11-1.44-.26l-.04.24c.9.15,1.43.26,1.44.26Z"/>
              <path class="cls-5" d="M187.34,41.31l.02-.24c.92.08,1.85.18,2.77.3l-.03.24c-.92-.12-1.85-.22-2.76-.3ZM181.79,41.02v-.24c.91,0,1.85.04,2.79.09v.24c-.95-.05-1.89-.08-2.79-.09ZM176.25,41.25l-.02-.24c.89-.09,1.83-.15,2.78-.19v.24c-.94.04-1.87.1-2.76.19Z"/>
              <path class="cls-5" d="M173.5,41.62l-.04-.24c-.49.08-.98.18-1.44.28l.05.24c.46-.1.95-.19,1.43-.28Z"/>
            </g>
            <path class="cls-5" d="M198.49,52.02v-.24c1.87-.04,2.92,0,2.93,0v.24s-1.07-.03-2.93,0ZM192.65,52.31l-.02-.24c.99-.08,1.97-.14,2.93-.19v.24c-.94.05-1.92.11-2.91.19ZM186.82,52.88l-.03-.24c.97-.12,1.95-.22,2.92-.32l.02.24c-.96.09-1.94.2-2.91.32ZM181.02,53.69l-.04-.24c.96-.15,1.94-.3,2.9-.43l.03.24c-.96.13-1.93.28-2.9.43ZM175.26,54.73l-.05-.24c.95-.19,1.92-.38,2.88-.55l.04.24c-.96.17-1.92.36-2.88.55Z"/>
            <path class="cls-5" d="M166.21,42.5l-.03-.24c1.78-.24,2.91-.32,2.93-.32l.02.24s-1.14.08-2.91.32ZM160.45,43.52l-.05-.24c.94-.21,1.91-.4,2.88-.57l.04.24c-.97.17-1.93.36-2.87.57ZM154.81,45.07l-.08-.23c.9-.3,1.84-.59,2.81-.85l.06.24c-.97.26-1.91.55-2.8.85Z"/>
            <path class="cls-5" d="M168.84,55.49l-.04-.24c1.97-.31,2.89-.33,2.92-.33v.24s-.94.02-2.89.32ZM163.11,56.66l-.06-.24c.99-.24,1.95-.45,2.86-.64l.05.24c-.91.19-1.87.4-2.85.64ZM157.46,58.18l-.07-.23c.96-.28,1.91-.55,2.82-.8l.06.24c-.91.25-1.86.51-2.82.79Z"/>
            <path class="cls-5" d="M131.73,55.3c.78-.55,1.6-1.1,2.44-1.63l.13.21c-.84.53-1.66,1.07-2.43,1.62l-.14-.2ZM147.41,47.45l-.09-.23c1.7-.64,2.76-.97,2.77-.98l.07.23s-1.07.33-2.76.97ZM136.7,52.17c.83-.47,1.7-.94,2.58-1.39l.11.22c-.88.45-1.75.92-2.58,1.39l-.12-.21ZM142.89,49.32c-.28.13-.57.26-.86.4l-.1-.22c.29-.14.58-.27.87-.4.6-.27,1.21-.54,1.82-.79l.09.22c-.6.25-1.21.52-1.81.79Z"/>
            <path class="cls-5" d="M149.99,60.22l-.07-.23c1.74-.49,2.83-.76,2.84-.77l.06.24s-1.09.27-2.83.77ZM144.38,61.92l-.08-.23c.92-.3,1.86-.6,2.8-.88l.07.23c-.94.28-1.88.58-2.79.88ZM138.85,63.85l-.09-.23c.89-.33,1.82-.67,2.76-1l.08.23c-.94.33-1.87.66-2.75,1ZM128.08,68.46c.8-.46,1.68-.92,2.59-1.38l.11.22c-.91.45-1.78.92-2.58,1.37l-.12-.21ZM133.43,66.06l-.1-.22c.86-.38,1.77-.77,2.7-1.15l.09.23c-.93.38-1.84.76-2.69,1.15Z"/>
          </g>
        </g>
      </g>
    </g>
  </g>
</svg>