<svg xmlns="http://www.w3.org/2000/svg" version="1.0" viewBox="0 0 50 50"><path fill="#46B8B0" d="M44.749 25.971l-1.813 2.59-6.073 1.822-5.305-2.313.366 5.296-10.601 3.858.911-13.396H11.661l-6.412-5.099v-2.456l6.591-2.054h11.047l.5-7.207c0-1.277 1.482-2.322 3.367-2.322 1.884 0 3.367 1.045 3.367 2.385l.152 2.411 6.046-5.76 5.135-1.027 2.697.429L39.007 13.7l-5.743 5.546 4.841 2.134 6.644 4.591z"/><path fill="#4ECDC4" d="M44.151 3.126L41.722 8.11 7.544 20.559l-2.295-1.831v-2.456l6.591-2.054h11.047l.5-7.207c0-1.277 1.482-2.322 3.367-2.322 1.884 0 3.367 1.045 3.367 2.385l.152 2.411 6.046-5.76 5.135-1.027 2.697.428z"/><path fill="#444" d="M38.818 20.356l-3.347-1.503 4.565-4.403 5.976-12.297-4.584-.726-5.703 1.146-4.384 4.077c-.258-1.832-2.18-3.213-4.587-3.213-1.457 0-2.79.498-3.657 1.367-.619.62-.959 1.404-.956 2.119l-.417 6.043H11.649l-7.651 2.387v3.975l7.229 5.754h9.671l-1.35 19.838c0 2.276 2.694 3.635 7.207 3.635a1.25 1.25 0 0 0 0-2.5c-2.368 0-3.854-.461-4.431-.793l-.011-.01c-.138-.113-.228-.226-.229-.33v-.003c.004-.519 1.776-1.242 4.66-1.242 1.645 0 3.2.26 4.06.679a.25.25 0 0 0 .219-.449c-.938-.457-2.537-.729-4.278-.729-1.849 0-3.708.313-4.606.915l1.096-16.524.34-4.985h-.009l.472-7.116h.02l.582-8.458c0-.173.124-.333.228-.438.306-.306.962-.633 1.888-.633 1.247 0 2.116.598 2.119 1.213l.274 4.344-1.775 1.698v8.63h2.135l.343-.325.329 4.604-.008-.003.503 7.353c.004.054.031.098.042.149l.007.102c.003.042.03.072.051.106.196.499.687.847 1.233.805a1.25 1.25 0 0 0 1.162-1.332l-.222-3.245 3.837 1.673 6.926-2.073 2.788-3.98-7.682-5.302zM12.1 22.582l-5.602-4.459v-.607l5.709 4.307h10.908l-.05.759H12.1zm11.047-1.26H12.374l-5.592-4.219 5.248-1.638h11.506l-.389 5.857zm9.121-12.12l4.643-4.317 4.042-.813-4.248 8.325-8.833 8.587v-7.577l4.396-4.205zm-2.96 12.121H28.24l8.843-8.597 4.479-8.749.729.116-4.308 8.865-6.923 6.676.021.009-1.773 1.68zm2.268-1.46l5.919 2.617 5.388 3.718-5.568 1.528-6.729-2.947-.267-3.726 1.257-1.19zm-.95 5.48l6.568 2.876.081.036 5.384-1.478-.498.711-5.217 1.562-6.248-2.724-.07-.983z"/></svg>