<svg version="1" xmlns="http://www.w3.org/2000/svg" viewBox="0 0 50 50"><path fill="#DC5E82" d="M46.491 23.44C45.757 12.156 36.377 3.229 24.907 3.229c-11.949 0-21.637 9.688-21.637 21.637 0 4.782 1.556 9.201 4.183 12.783L46.491 23.44z"/><path fill="#F56991" d="M37.936 7.549a21.53 21.53 0 0 0-12.97-4.32c-10.253 0-18.834 7.134-21.066 16.708L37.938 7.551l-.002-.002z"/><g fill="#444"><path d="M25.028 2.221C12.475 2.221 2.262 12.439 2.262 25s10.213 22.779 22.766 22.779a1.008 1.008 0 1 0 0-2.016c-11.441 0-20.75-9.314-20.75-20.763 0-11.448 9.308-20.763 20.75-20.763 10.836 0 19.926 8.461 20.696 19.263a1.009 1.009 0 0 0 2.012-.144C46.891 11.505 36.917 2.221 25.028 2.221z"/><path d="M32.552 10.004a.673.673 0 0 0-.351-.389l-.289-.111-.221.081-.11-.035-.184.143-13.827 5.085a.788.788 0 0 0-.504.873l1.032 6.052c-.893.557-3.6 2.17-5.346 3.204a.79.79 0 0 0-.343.948l5.095 14.146a.682.682 0 0 0 .876.408l8.766-3.225a.606.606 0 0 0-.418-1.136l-6.691 2.461 6.331-4.917-1.051-8.122 5.366 2.504a.85.85 0 0 0 .014.137l1.064 6.234c.057.33.371.558.698.495a.605.605 0 0 0 .495-.698l-.998-5.847c.894-.557 3.6-2.17 5.346-3.204a.79.79 0 0 0 .343-.948l-5.093-14.139zm3.344 12.851l-3.359-2.934-.273-7.147 3.632 10.081zm-17.64 15.661l-.32-8.406 7.236 3.391-6.816 5.293-.1-.278zm-1.145-8.845l.242 6.339-3.221-8.941 2.979 2.602zm1.232-.245l6.164-3.947.939 7.261-7.103-3.314zm.998-7.633l-1.024-6 .097-.036 4.932.771.983 7.593-4.988-2.328zm5.801 2.32l-.939-7.262 7.103 3.314-6.164 3.948zm-.666-8.023l6.267-4.867.646-.238.324 8.496-7.237-3.391zm-.894-.327l-3.621-.576 8.284-3.046-4.663 3.622zm-4.595 6.755l5.002 2.334-6.444 4.127-3.755-3.28c3.252-1.925 4.63-2.745 5.197-3.181zm12.336 4.78a.406.406 0 0 0-.246-.029l-5.418-2.528 6.444-4.127 4.198 3.667c-2.865 1.694-4.286 2.539-4.978 3.017z"/></g></svg>