<?xml version="1.0" encoding="utf-8"?>
<!-- Generator: Adobe Illustrator 27.9.0, SVG Export Plug-In . SVG Version: 6.00 Build 0)  -->
<svg version="1.1" id="Camada_3" xmlns="http://www.w3.org/2000/svg" xmlns:xlink="http://www.w3.org/1999/xlink" x="0px" y="0px"
	 viewBox="0 0 50 50" style="enable-background:new 0 0 50 50;" xml:space="preserve">
<style type="text/css">
	.st0{fill:#DC5E82;}
	.st1{fill:none;stroke:#444444;stroke-miterlimit:10;}
	.st2{fill:none;stroke:#444444;stroke-width:2.5;stroke-linecap:round;stroke-linejoin:round;stroke-miterlimit:10;}
	.st3{fill:#444444;}
</style>
<g>
	<path class="st0" d="M34.37,6.84L24.29,1.68c-1.4,0-19.44,10.24-19.44,11.64L4.49,26.4l-0.36,6.84l0.72,3.84l13.8,8.28l26.64-9.96
		l-0.12-19.56l-5.52-5.88l-2.28-1.2C36.29,7.44,35.77,6.84,34.37,6.84z"/>
	<g>
		<path class="st1" d="M39.9,15.45l-5.72-3.36c-0.42-0.25-0.94-0.23-1.34,0.05l-1.41,0.99v-1.77c0-0.44-0.23-0.85-0.61-1.07
			l-5.77-3.39c-0.39-0.23-0.88-0.23-1.27,0.01l-6.18,3.74v1.86l-1.65-0.83l-6.38,3.57c-0.39,0.22-0.64,0.63-0.64,1.08v6.76
			c0,0.47,0.27,0.9,0.69,1.11l1.79,0.9l-1.86,1.09c-0.38,0.22-0.62,0.63-0.62,1.07v6.82c0,0.45,0.24,0.86,0.64,1.08l5.74,3.21
			c0.4,0.22,0.89,0.21,1.27-0.04l1.65-1.05v1.96c0,0.45,0.24,0.86,0.64,1.08l5.75,3.21c0.39,0.22,0.87,0.21,1.25-0.02l6.19-3.75
			v-1.86l1.65,0.83l6.19-3.56c0.38-0.22,0.62-0.63,0.62-1.07v-6.62c0-0.44-0.23-0.85-0.62-1.07l-1.86-1.09l1.86-1.09
			c0.38-0.22,0.62-0.63,0.62-1.07v-6.63C40.51,16.08,40.28,15.67,39.9,15.45z"/>
		<path class="st2" d="M40.48,39.78l3.44-1.98c0.49-0.28,0.79-0.8,0.79-1.36v-8.38v-5.46V14.2c0-0.56-0.29-1.07-0.77-1.35L36.7,8.59
			l-4.26-2.27l-7.3-4.3c-0.5-0.29-1.12-0.29-1.61,0.01L15.7,6.77l-2.09,1.31l-8.08,4.52c-0.5,0.28-0.8,0.8-0.8,1.37v8.56v5.27v8.63
			c0,0.57,0.31,1.09,0.8,1.37l7.26,4.06l4.5,2.47l7.28,4.07c0.49,0.28,1.1,0.27,1.58-0.03l3.52-2.13"/>
		<path class="st3" d="M32.07,20.47l-2.77-1.63c-0.2-0.12-0.46-0.11-0.65,0.03l-0.68,0.48v-0.86c0-0.21-0.11-0.41-0.3-0.52
			l-2.79-1.64c-0.19-0.11-0.43-0.11-0.62,0l-2.99,1.81v0.9l-0.8-0.4l-3.09,1.73c-0.19,0.11-0.31,0.31-0.31,0.52v3.28
			c0,0.23,0.13,0.44,0.33,0.54l0.87,0.43l-0.9,0.53c-0.18,0.11-0.3,0.31-0.3,0.52v3.3c0,0.22,0.12,0.42,0.31,0.52l2.78,1.55
			c0.19,0.11,0.43,0.1,0.62-0.02l0.8-0.51V32c0,0.22,0.12,0.42,0.31,0.52l2.79,1.56c0.19,0.11,0.42,0.1,0.6-0.01l3-1.82v-0.9
			l0.8,0.4l3-1.73c0.19-0.11,0.3-0.31,0.3-0.52v-3.21c0-0.21-0.11-0.41-0.3-0.52l-0.9-0.53l0.9-0.53c0.18-0.11,0.3-0.31,0.3-0.52
			v-3.21C32.37,20.78,32.26,20.58,32.07,20.47z"/>
	</g>
</g>
</svg>