<svg xmlns="http://www.w3.org/2000/svg" id="Layer_1" x="0" y="0" version="1.1" viewBox="0 0 50 50" xml:space="preserve"><style>.st2{fill:#464646}</style><path fill="#70c6df" d="M44.7 13.5l-.2-.2-40 14.6v8.8l6.7 3.9 33.5-12.2z"/><path fill="#7dddfa" d="M24.6 1.9L4.5 13.5v14.4l40-14.6z"/><path d="M25.1 49.7L3.6 37.3V12.7L25 .3l21.3 12.3v16.6c0 .7-.6 1.2-1.2 1.2s-1.2-.6-1.2-1.2V14.1L25 3.2 6.1 14.1v21.8L25 46.8l5.9-3.4c.6-.3 1.4-.1 1.7.5.3.6.1 1.4-.5 1.7l-7 4.1z" class="st2"/><path d="M25.5 41.7L19 38.2v-1.3l-1 .6-6.5-3.5v-7.6l1.2-.7-1.1-.7v-7.6l6.3-3.8.6.4v-.7l6.3-3.8 6.4 3.8v1.1l1-.6 6.4 3.8v7.3l-1.3.8 1.3.8v7.3l-6.3 3.7-.6-.3v.7l-6.2 3.8zm-4.9-4.4l4.9 2.7 4.9-2.9v-2.4l2.1 1.1 4.9-2.9v-5.6l-2.8-1.6 2.8-1.6v-5.6l-4.9-2.9-2.7 1.4v-2.8l-4.9-2.9-4.8 2.9v2.5L18 15.4l-4.8 2.9v5.9l2.7 1.5-2.7 1.6V33l4.9 2.7 2.5-1.5v3.1zm17.5-12.8z" class="st2"/><path fill="#444" d="M33 21.4l-3.4-2-1 .7v-1.2l-3.4-2-3.3 2v.9l-.8-.4-3.4 1.9v4l1.2.6-1.2.7v4l3.4 1.9 1.1-.7v1.3l3.4 1.9 3.3-2v-.9l.8.4 3.3-1.9v-3.9l-1.2-.7 1.2-.7z"/></svg>