<?xml version="1.0" encoding="utf-8"?>
<!-- Generator: Adobe Illustrator 22.0.1, SVG Export Plug-In . SVG Version: 6.00 Build 0)  -->
<svg version="1.1" id="Layer_1" xmlns="http://www.w3.org/2000/svg" xmlns:xlink="http://www.w3.org/1999/xlink" x="0px" y="0px"
	 viewBox="0 0 50 50" style="enable-background:new 0 0 50 50;" xml:space="preserve">
<style type="text/css">
	.st0{fill:#70C6DF;}
	.st1{fill:#7DDDFA;}
	.st2{fill:#464646;}
	.st3{fill:#444444;}
	.st4{fill:none;stroke:#464646;stroke-width:0.5;stroke-linecap:round;stroke-miterlimit:10;}
</style>
<g>
	<g>
		<polygon class="st0" points="44.7,13.5 44.5,13.3 4.5,27.9 4.5,36.7 11.2,40.6 44.7,28.4 		"/>
	</g>
	<g>
		<polygon class="st1" points="24.6,1.9 4.5,13.5 4.5,27.9 44.5,13.3 		"/>
	</g>
	<g>
		<path class="st2" d="M25.1,49.7L3.6,37.3V12.7L25,0.3l21.3,12.3v16.6c0,0.7-0.6,1.2-1.2,1.2s-1.2-0.6-1.2-1.2V14.1L25,3.2
			L6.1,14.1v21.8l18.9,10.9l5.9-3.4c0.6-0.3,1.4-0.1,1.7,0.5c0.3,0.6,0.1,1.4-0.5,1.7L25.1,49.7z"/>
	</g>
	<g>
		<path class="st2" d="M25.5,41.7l-6.5-3.5v-1.3l-1,0.6l-6.5-3.5v-7.6l1.2-0.7L11.6,25v-7.6l6.3-3.8l0.6,0.4v-0.7l6.3-3.8l6.4,3.8
			v1.1l1-0.6l6.4,3.8v7.3l-1.3,0.8l1.3,0.8v7.3l-6.3,3.7l-0.6-0.3v0.7L25.5,41.7z M20.6,37.3l4.9,2.7l4.9-2.9v-2.4l2.1,1.1l4.9-2.9
			v-5.6l-2.8-1.6l2.8-1.6v-5.6l-4.9-2.9L29.8,17v-2.8l-4.9-2.9l-4.8,2.9v2.5L18,15.4l-4.8,2.9v5.9l2.7,1.5l-2.7,1.6V33l4.9,2.7
			l2.5-1.5V37.3z M38.1,24.5L38.1,24.5L38.1,24.5z"/>
	</g>
	<g>
		<polygon class="st3" points="33,21.4 29.6,19.4 28.6,20.1 28.6,18.9 25.2,16.9 21.9,18.9 21.9,19.8 21.1,19.4 17.7,21.3 
			17.7,25.3 18.9,25.9 17.7,26.6 17.7,30.6 21.1,32.5 22.2,31.8 22.2,33.1 25.6,35 28.9,33 28.9,32.1 29.7,32.5 33,30.6 33,26.7 
			31.8,26 33,25.3 		"/>
	</g>
	<g>
		<path class="st4" d="M13.3,26.8"/>
	</g>
</g>
</svg>
