<?xml version="1.0" encoding="utf-8"?>
<!-- Generator: Adobe Illustrator 22.0.1, SVG Export Plug-In . SVG Version: 6.00 Build 0)  -->
<svg version="1.1" id="Layer_1" xmlns="http://www.w3.org/2000/svg" xmlns:xlink="http://www.w3.org/1999/xlink" x="0px" y="0px"
	 viewBox="0 0 50 50" style="enable-background:new 0 0 50 50;" xml:space="preserve">
<style type="text/css">
	.st0{fill:#ECC158;}
	.st1{fill:#F0CD77;}
	.st2{fill:#464646;}
	.st3{fill:#444444;}
	.st4{fill:none;stroke:#464646;stroke-width:0.5;stroke-linecap:round;stroke-miterlimit:10;}
</style>
<g>
	<g>
		<polygon class="st0" points="44.9,13.4 44.7,13.2 4.4,27.9 4.4,36.8 11.2,40.7 44.9,28.4 		"/>
	</g>
	<g>
		<polygon class="st1" points="24.7,1.9 4.6,13.5 4.6,27.9 44.5,13.3 		"/>
	</g>
	<g>
		<path class="st2" d="M25.2,49.7L3.7,37.3V12.7L25.1,0.3l21.3,12.3v16.6c0,0.7-0.6,1.2-1.2,1.2s-1.2-0.6-1.2-1.2V14.1L25.1,3.2
			L6.2,14.1v21.8l18.9,10.9l5.9-3.4c0.6-0.3,1.4-0.1,1.7,0.5s0.1,1.4-0.5,1.7L25.2,49.7z"/>
	</g>
	<g>
		<path class="st2" d="M25.6,41.7l-6.5-3.5v-1.3l-1,0.6L11.6,34v-7.6l1.2-0.7L11.7,25v-7.6l6.3-3.8l0.6,0.4v-0.7l6.3-3.8l6.4,3.8
			v1.1l1-0.6l6.4,3.8v7.3l-1.3,0.8l1.3,0.8v7.3l-6.3,3.7l-0.6-0.3v0.7L25.6,41.7z M20.7,37.3l4.9,2.7l4.9-2.9v-2.4l2.1,1.1l4.9-2.9
			v-5.6l-2.8-1.6l2.8-1.6v-5.6l-4.9-2.9L29.9,17v-2.8L25,11.3l-4.8,2.9v2.5l-2.1-1.3l-4.8,2.9v5.9l2.7,1.5l-2.7,1.6V33l4.9,2.7
			l2.5-1.5V37.3z M38.1,24.5L38.1,24.5L38.1,24.5z"/>
	</g>
	<g>
		<polygon class="st3" points="33,21.4 29.7,19.4 28.7,20.1 28.7,18.9 25.3,16.9 22,18.9 22,19.8 21.2,19.4 17.8,21.3 17.8,25.3 
			19,25.9 17.8,26.6 17.8,30.6 21.2,32.5 22.3,31.8 22.3,33.1 25.7,35 29,33 29,32.1 29.8,32.5 33,30.6 33,26.7 31.9,26 33,25.3 		
			"/>
	</g>
	<g>
		<path class="st4" d="M13.4,26.8"/>
	</g>
</g>
</svg>
