<?xml version="1.0" encoding="utf-8"?>
<!-- Generator: Adobe Illustrator 28.0.0, SVG Export Plug-In . SVG Version: 6.00 Build 0)  -->
<svg version="1.1" id="Layer_1" xmlns="http://www.w3.org/2000/svg" xmlns:xlink="http://www.w3.org/1999/xlink" x="0px" y="0px"
	 viewBox="0 0 50 50" style="enable-background:new 0 0 50 50;" xml:space="preserve">
<style type="text/css">
	.st0{fill:#35D3C3;}
	.st1{fill:#7DF4EB;}
	.st2{fill:none;stroke:#444444;stroke-width:2.5;stroke-linecap:round;stroke-miterlimit:10;}
	.st3{fill:none;stroke:#444444;stroke-linecap:round;stroke-miterlimit:10;}
	.st4{fill:none;stroke:#444444;stroke-width:0.5;stroke-miterlimit:10;}
</style>
<polygon class="st0" points="27,21.5 31.2,22.8 27.6,25.3 27.7,29.7 24.2,27.1 20,28.5 21.4,24.4 18.8,20.9 23.2,20.9 25.7,17.4 "/>
<path class="st1" d="M32.2,9.9H3.6c-1.3,0-1.6,1.7-1.6,3L2.2,16L2,25.4v10.9l16.1,0.6L48,26.3l0.3-10L48.2,12l-1-2.1
	C47.2,8.7,33.5,9.9,32.2,9.9z"/>
<path class="st2" d="M48,29.1V11.2c0-0.7-0.6-1.3-1.3-1.3H3.6c-0.7,0-1.3,0.6-1.3,1.3v23.9c0,0.7,0.6,1.3,1.3,1.3h39.6"/>
<path class="st3" d="M43.7,13.5H6.5c-0.3,0-0.6,0.3-0.6,0.6v18.1c0,0.3,0.3,0.6,0.6,0.6h37.2c0.3,0,0.6-0.3,0.6-0.6V14.1
	C44.3,13.7,44,13.5,43.7,13.5z"/>
<line class="st2" x1="12" y1="36.5" x2="10.4" y2="40.6"/>
<line class="st2" x1="38.2" y1="36.5" x2="39.8" y2="40.6"/>
<g>
	<path class="st4" d="M30.4,26.4v-5.8c0-0.1-0.1-0.2-0.2-0.3l-5-2.9c-0.1-0.1-0.2-0.1-0.4,0l-5,2.9c-0.1,0.1-0.2,0.2-0.2,0.3v5.8
		c0,0.1,0.1,0.2,0.2,0.3l5,2.9c0.1,0.1,0.2,0.1,0.4,0l5-2.9C30.3,26.7,30.4,26.5,30.4,26.4z"/>
	<path class="st4" d="M30.2,26.4l-5.1-8.9c-0.1-0.1-0.2-0.1-0.2,0l-5.1,8.9c-0.1,0.1,0,0.2,0.1,0.2h10.3
		C30.2,26.6,30.3,26.5,30.2,26.4z"/>
</g>
</svg>
