<?xml version="1.0" encoding="utf-8"?>
<!-- Generator: Adobe Illustrator 24.0.0, SVG Export Plug-In . SVG Version: 6.00 Build 0)  -->
<svg version="1.1" id="Camada_1" xmlns="http://www.w3.org/2000/svg" xmlns:xlink="http://www.w3.org/1999/xlink" x="0px" y="0px"
	 viewBox="0 0 50 50" style="enable-background:new 0 0 50 50;" xml:space="preserve">
<style type="text/css">
	.st0{fill:#00C8E2;}
	.st1{fill:#00DFFC;}
	.st2{fill:none;stroke:#444444;stroke-width:2.5;stroke-linecap:round;stroke-linejoin:round;stroke-miterlimit:10;}
	.st3{fill:none;stroke:#444444;stroke-linecap:round;stroke-linejoin:round;stroke-miterlimit:10;}
	.st4{fill:none;stroke:#444444;stroke-width:1.5;stroke-linecap:round;stroke-linejoin:round;stroke-miterlimit:10;}
</style>
<polygon class="st0" points="47.4,22.1 47.4,28.3 1.6,42.7 1.2,30.3 1.2,26.4 47.5,9.6 "/>
<polygon class="st1" points="47.4,6.9 46.8,10.1 1.1,26.7 1.2,20.3 1.2,16.3 47.9,1.4 "/>
<polyline class="st2" points="6.4,47.8 2.1,47.8 2.1,2 48.1,2 48.1,47.8 32.2,47.8 "/>
<g>
	<circle class="st3" cx="37.1" cy="12.8" r="2"/>
	<path class="st3" d="M43.4,13.7V12l-1.8-0.2c-0.1-0.5-0.3-1-0.6-1.4L42.1,9l-1.2-1.2L39.5,9c-0.4-0.3-0.9-0.5-1.4-0.6l-0.2-1.8
		h-1.7l-0.2,1.8c-0.5,0.1-1,0.3-1.4,0.6l-1.4-1.2L32,9l1.2,1.4c-0.3,0.4-0.5,0.9-0.6,1.4L30.8,12v1.7l1.8,0.2c0.1,0.5,0.3,1,0.6,1.4
		L32,16.7l1.2,1.2l1.4-1.2c0.4,0.3,0.9,0.5,1.4,0.6l0.2,1.8h1.7l0.2-1.8c0.5-0.1,1-0.3,1.4-0.6l1.4,1.2l1.2-1.2l-1.2-1.4
		c0.3-0.4,0.5-0.9,0.6-1.4L43.4,13.7z"/>
</g>
<g>
	<circle class="st4" cx="20" cy="32.9" r="6"/>
	<path class="st4" d="M33.5,34.7V31l-3.9-0.3c-0.2-1.1-0.7-2.1-1.3-3.1l2.5-3l-2.6-2.6l-3,2.5c-0.9-0.6-2-1-3.1-1.3l-0.3-3.9h-3.7
		l-0.3,3.9c-1.1,0.2-2.1,0.7-3.1,1.3l-3-2.5l-2.6,2.6l2.5,3c-0.6,0.9-1,2-1.3,3.1L6.6,31v3.7l3.9,0.3c0.2,1.1,0.7,2.1,1.3,3.1
		l-2.5,3l2.6,2.6l3-2.5c0.9,0.6,2,1,3.1,1.3l0.3,3.9h3.7l0.3-3.9c1.1-0.2,2.1-0.7,3.1-1.3l3,2.5l2.6-2.6l-2.5-3c0.6-0.9,1-2,1.3-3.1
		L33.5,34.7z"/>
</g>
<polyline class="st4" points="17.7,32.6 19.7,34.6 22.9,31.4 "/>
</svg>
