<svg xmlns="http://www.w3.org/2000/svg" id="Camada_1" x="0" y="0" version="1.1" viewBox="0 0 50 50" xml:space="preserve"><style>.st3,.st4{fill:none;stroke:#031326;stroke-linecap:round;stroke-linejoin:round;stroke-miterlimit:10}.st4{stroke-width:1.5}</style><path fill="#00c8e2" d="M47.4 22.1v6.2L1.6 42.7l-.4-12.4v-3.9L47.5 9.6z"/><path fill="#00dffc" d="M47.4 6.9l-.6 3.2L1.1 26.7l.1-6.4v-4L47.9 1.4z"/><path fill="none" stroke="#031326" stroke-linecap="round" stroke-linejoin="round" stroke-miterlimit="10" stroke-width="2.5" d="M6.4 47.8H2.1V2h46v45.8H32.2"/><circle cx="37.1" cy="12.8" r="2" class="st3"/><path d="M43.4 13.7V12l-1.8-.2c-.1-.5-.3-1-.6-1.4L42.1 9l-1.2-1.2L39.5 9c-.4-.3-.9-.5-1.4-.6l-.2-1.8h-1.7L36 8.4c-.5.1-1 .3-1.4.6l-1.4-1.2L32 9l1.2 1.4c-.3.4-.5.9-.6 1.4l-1.8.2v1.7l1.8.2c.1.5.3 1 .6 1.4L32 16.7l1.2 1.2 1.4-1.2c.4.3.9.5 1.4.6l.2 1.8h1.7l.2-1.8c.5-.1 1-.3 1.4-.6l1.4 1.2 1.2-1.2-1.2-1.4c.3-.4.5-.9.6-1.4l1.9-.2z" class="st3"/><circle cx="20" cy="32.9" r="6" class="st4"/><path d="M33.5 34.7V31l-3.9-.3c-.2-1.1-.7-2.1-1.3-3.1l2.5-3-2.6-2.6-3 2.5c-.9-.6-2-1-3.1-1.3l-.3-3.9h-3.7l-.3 3.9c-1.1.2-2.1.7-3.1 1.3l-3-2.5-2.6 2.6 2.5 3c-.6.9-1 2-1.3 3.1l-3.7.3v3.7l3.9.3c.2 1.1.7 2.1 1.3 3.1l-2.5 3 2.6 2.6 3-2.5c.9.6 2 1 3.1 1.3l.3 3.9H22l.3-3.9c1.1-.2 2.1-.7 3.1-1.3l3 2.5 2.6-2.6-2.5-3c.6-.9 1-2 1.3-3.1l3.7-.3z" class="st4"/><path d="M17.7 32.6l2 2 3.2-3.2" class="st4"/></svg>