<svg xmlns="http://www.w3.org/2000/svg" viewBox="0 0 50 50"><path fill="#d1bd00" d="M25 20.6l7.8 2.4-6.7 4.8.1 8.2-6.6-4.9-7.7 2.6 2.6-7.8-4.9-6.5 8.2.1 4.7-6.7z"/><path fill="#f9f941" d="M44.3 5.9L7.8 6c-2.9 0-6 .9-6 3.8v13.7l-.3 10.2c.4 6.3 7 6.5 15.2 6l.9 5.2L33 39.5 48.5 34l-.2-23.9-4-4.2z"/><path fill="none" stroke="#444" stroke-linecap="round" stroke-linejoin="round" stroke-miterlimit="10" d="M32.5 38.9l-25.7-.1c-2.6 0-5.5-2-5.5-4.6m30.2 10.7H17.7c-.5 0-.9-.6-.6-1l2.4-4.8h10.3l2.5 4.8c.1.4-.3 1-.8 1z"/><circle cx="24.6" cy="36" r="1.6" fill="#444"/><path fill="none" stroke="#444" stroke-linecap="round" stroke-linejoin="round" stroke-miterlimit="10" stroke-width="2.5" d="M48.3 34.3V11.9c0-3.4-2.8-6.2-6.2-6.2H7.4c-3.4 0-6.2 2.8-6.2 6.2v21.4c0 3.4 2.8 6.2 6.2 6.2H18L16.2 44c-.4.9.3 1.8 1.2 1.9l14.4.1c1 0 1.6-1 1.2-1.9l-1.9-4.6h5.8"/><path fill="none" stroke="#444" stroke-linecap="round" stroke-linejoin="round" stroke-miterlimit="10" stroke-width=".5" d="M2.3 33.2h45.3m-45.7 0h8.2"/><path fill="none" stroke="#454545" stroke-linecap="round" stroke-linejoin="round" stroke-miterlimit="10" stroke-width=".5" d="M10.5 14.6v-3.8h-1m9.6 3.8v-3.8h-1m-1.9.6V14c-.4.4-.9.7-1.4.7s-1.1-.3-1.4-.7v-2.5c.4-.4.9-.7 1.4-.7s1.1.2 1.4.6zm8.6 0V14c-.4.4-.9.7-1.4.7-.6 0-1.1-.3-1.4-.7v-2.5c.4-.4.9-.7 1.4-.7.6 0 1.1.2 1.4.6zm2.9 3.2v-3.8h-.9m4.8 3.8v-3.8h-1m9.6 3.8v-3.8h-.9m-2 .6V14c-.4.4-.9.7-1.4.7-.6 0-1.1-.3-1.4-.7v-2.5c.4-.4.9-.7 1.4-.7.6 0 1.1.2 1.4.6zM14.7 22.9v6.3m0-13.5v4.1m4.4 3.1v6.3m0-13.5v6.1m4.3-2.8v10.2m0-13.5v1.5M10.5 19v10.2m0-13.5v1.5m17.2 10.1v1.9m0-13.5v10.6m3.8-3.4v6.3m0-13.5v6.1m4.3-2.8v10.2m0-13.5v1.5m4.3 10.1v1.9m0-13.5v10.6"/></svg>