<svg xmlns="http://www.w3.org/2000/svg" id="Camada_1" x="0" y="0" version="1.1" viewBox="0 0 50 50" xml:space="preserve"><style>.st2{fill:none;stroke:#444;stroke-width:2.5;stroke-linecap:round;stroke-linejoin:round;stroke-miterlimit:10}.st3{fill:#444}.st4{fill:none;stroke:#444;stroke-width:.5;stroke-miterlimit:10}</style><path fill="#04ad49" d="M29.1 21l7.8 2.5-6.7 4.7.1 8.2-6.6-4.9-7.7 2.6 2.6-7.7-4.9-6.6 8.2.1 4.7-6.7z"/><path fill="#22dd6d" d="M47.7 20.3c-.2-.8-2.7-7.5-3.2-8.1l-3-3.5-.2.1L33.7 3l-7.8-.7c-3.2 0-14.5.3-21.4 10.2l-4 10.6-.2.1 4 13.4c.1.4 4.5 5.7 4.9 5.9l5.6 3L47 33.7c.6-.4 1.7-8.7.7-13.4z"/><path d="M32 47.5c-7 2.3-15 1.2-21.3-3.6C.3 36.2-1.8 21.5 6 11.2" class="st2"/><path d="M5.9 11.3c2-3 4.7-4.7 4.7-4.7l.7-.5C19.4.4 30.5.3 38.9 6.5c10.4 7.8 12.4 22.5 4.7 32.8" class="st2"/><path d="M28.7 24l-.7.7v.4c0 .7-.2 1.3-.5 1.8s-.8.9-1.4 1.2c-.4.2-.8.2-1.2.2-.9 0-1.7-.3-2.3-.9-.6-.6-.9-1.4-.9-2.3 0-1.3.8-2.5 2-3 .4-.2.8-.2 1.2-.2.8 0 1.5.3 2.1.7l.6-.6c-.7-.6-1.6-1-2.6-1a4.025 4.025 0 00-4 4c0 1.1.4 2.1 1.2 2.8.8.8 1.8 1.2 2.8 1.2a4.025 4.025 0 004-4c-.2-.3-.2-.6-.3-1z" class="st3"/><path d="M23.2 35.2l-.4-2.2c-.8-.2-1.5-.5-2.2-.9l-1.8 1.4-2.4-2.4 1.4-1.8c-.4-.7-.7-1.4-.9-2.2l-2.3-.3v-3.3l2.3-.3c.2-.8.5-1.5.9-2.1l-1.4-1.8 2.4-2.4 1.8 1.4c.7-.4 1.4-.7 2.1-.9l.3-2.3h3.3l.3 2.3c.8.2 1.5.5 2.2.9l1.8-1.4 2.4 2.4-1.2 1.7c.4.7.7 1.4.9 2.2l2.3.3v3.3l-2.3.3c-.2.8-.5 1.5-.9 2.2l1.4 1.8-2.4 2.4-1.8-1.4c-.7.4-1.4.7-2.2.9l-.3 2.3-3.3-.1zm3.2-3c.9-.2 1.7-.5 2.4-1l.2-.2 1.7 1.3 1.4-1.4-1.3-1.7.2-.2c.5-.7.8-1.5 1-2.4l.1-.3 2.1-.3v-1.9l-2.2-.2-.1-.3c-.2-.9-.5-1.7-1-2.4l-.2-.2 1.3-1.7-1.4-1.4-1.6 1.3-.2-.2c-.7-.5-1.5-.8-2.4-1h-.3l-.3-2.1h-1.9l-.4 2.1h-.2c-.8.2-1.7.5-2.4 1l-.2.2-1.7-1.3-1.4 1.4 1.3 1.7-.2.2c-.5.7-.8 1.5-1 2.4l-.1.3-2.1.3v1.9l2.1.3.1.3c.2.9.5 1.7 1 2.4l.2.2-1.3 1.7 1.4 1.4 1.7-1.3.2.2c.7.5 1.5.8 2.4 1l.3.1.3 2.1h1.9l.3-2.1.3-.2zm-14.9-1.6c-.4-.9.1-2 1-2.4.9-.4 2 .1 2.4 1 .4.9-.1 2-1 2.4-1 .4-2 0-2.4-1zm.7-.3c.2.5.8.8 1.4.6.5-.2.8-.8.6-1.4-.2-.5-.8-.8-1.4-.6-.6.3-.8.9-.6 1.4z" class="st3"/><path d="M9.1 33.1l.9.9-.4 1.4 2.1.9.7-1.2c.4.1.8.1 1.3 0l.7 1.2 2.1-.9-.2-1.4c.4-.3.7-.6.9-.9l-.6-.6c-.3.4-.6.7-1 1l-.2.2.3 1.2-.8.4-.7-1.1-.3.1c-.5.1-1 .1-1.5 0l-.3-.1-.7 1.1-.8-.4.3-1.2-.2-.2c-.4-.3-.8-.7-1.1-1.1l-.2-.2-1.2.3-.4-.8L9 31v-.3c-.1-.5-.1-1 0-1.5v-.3l-1.1-.7.4-.8 1.2.3.2-.2c.3-.4.7-.8 1.1-1.1l.2-.2-.4-1.2.8-.4.7 1.1.3-.1c.5-.1 1-.1 1.5 0v-.8c-.4-.1-.9-.1-1.3 0l-.7-1.2-2.1.9.4 1.4-.9.9-1.4-.4-.9 2.1 1.2.7c-.1.4-.1.8 0 1.3l-1.2.7.9 2.1 1.2-.2zM34.8 21c-.4-.9.1-2 1-2.4.9-.4 2 .1 2.4 1 .4.9-.1 2-1 2.4-1 .4-2.1-.1-2.4-1zm.7-.3c.2.5.8.8 1.4.6.5-.2.8-.8.6-1.4-.2-.5-.8-.8-1.4-.6-.6.3-.8.9-.6 1.4z" class="st3"/><path d="M35.7 25.4c.4.1.9.1 1.4 0l.7 1.2 2.1-.9-.4-1.4.9-.9 1.4.4.9-2.1-1.2-.7c.1-.4.1-.8 0-1.3l1.2-.7-.9-2.1-1.4.4-.9-.9.4-1.4-2.1-1-.7 1.2c-.4-.1-.8-.1-1.3 0l-.7-1.2-2.1.9.4 1.4c-.4.3-.7.6-.9 1l.6.6c.3-.4.6-.8 1.1-1l.2-.2-.3-1.2.8-.4.7 1.1.3-.1c.5-.1 1-.1 1.5 0l.3.1.7-1.1.8.4-.3 1.2.2.2c.4.3.8.7 1.1 1.1v.1l.1.2 1.2-.3.4.8-1.1.7v.3c.1.5.1 1 0 1.5l-.1.3 1.1.7-.3.8-1.2-.3H40c-.3.4-.7.8-1.1 1.1l-.2.1.3 1.2-.8.4-.7-1.1-.3.1c-.5.1-1 .1-1.5 0v.8z" class="st3"/><path d="M43.7 26c-.3 10-8.5 18.1-18.6 18.1-5.7 0-10.8-2.6-14.2-6.6" class="st4"/><path d="M41.5 27.6l.4.4 1.7-1.8 1.6 1.9.4-.3-1.9-2.3z" class="st3"/><g><path d="M6.4 25C6.7 14.9 14.9 6.9 25 6.9c4.7 0 8.9 1.7 12.2 4.6" class="st4"/><path d="M8.6 23.4l-.4-.4-1.8 1.8-1.5-1.9-.4.3 1.9 2.3z" class="st3"/></g><g><path fill="none" stroke="#444" stroke-linecap="round" stroke-linejoin="round" stroke-miterlimit="10" stroke-width=".5" d="M22.4 24.9l2.2 2.2 3.9-4.8"/></g></svg>