<svg xmlns="http://www.w3.org/2000/svg" id="Layer_1" x="0" y="0" version="1.1" viewBox="0 0 50 50" xml:space="preserve"><style>.st2,.st4{fill:none;stroke:#444;stroke-miterlimit:10}.st2{stroke-linecap:round;stroke-width:2.5}.st4{stroke-width:.5}</style><path fill="#35d3c3" d="M27 21.5l4.2 1.3-3.6 2.5.1 4.4-3.5-2.6-4.2 1.4 1.4-4.1-2.6-3.5h4.4l2.5-3.5z"/><path fill="#7df4eb" d="M32.2 9.9H3.6c-1.3 0-1.6 1.7-1.6 3l.2 3.1-.2 9.4v10.9l16.1.6L48 26.3l.3-10-.1-4.3-1-2.1c0-1.2-13.7 0-15 0z"/><path d="M48 29.1V11.2c0-.7-.6-1.3-1.3-1.3H3.6c-.7 0-1.3.6-1.3 1.3v23.9c0 .7.6 1.3 1.3 1.3h39.6" class="st2"/><path fill="none" stroke="#444" stroke-linecap="round" stroke-miterlimit="10" d="M43.7 13.5H6.5c-.3 0-.6.3-.6.6v18.1c0 .3.3.6.6.6h37.2c.3 0 .6-.3.6-.6V14.1c0-.4-.3-.6-.6-.6z"/><path d="M12 36.5l-1.6 4.1m27.8-4.1l1.6 4.1" class="st2"/><path d="M30.4 26.4v-5.8c0-.1-.1-.2-.2-.3l-5-2.9c-.1-.1-.2-.1-.4 0l-5 2.9c-.1.1-.2.2-.2.3v5.8c0 .1.1.2.2.3l5 2.9c.1.1.2.1.4 0l5-2.9c.1 0 .2-.2.2-.3z" class="st4"/><path d="M30.2 26.4l-5.1-8.9c-.1-.1-.2-.1-.2 0l-5.1 8.9c-.1.1 0 .2.1.2h10.3s.1-.1 0-.2z" class="st4"/></svg>