<?xml version="1.0" encoding="utf-8"?>
<!-- Generator: Adobe Illustrator 22.1.0, SVG Export Plug-In . SVG Version: 6.00 Build 0)  -->
<svg version="1.1" id="Layer_1" xmlns="http://www.w3.org/2000/svg" xmlns:xlink="http://www.w3.org/1999/xlink" x="0px" y="0px"
	 viewBox="0 0 50 50" style="enable-background:new 0 0 50 50;" xml:space="preserve">
<style type="text/css">
	.st0{fill:#FDCF72;}
	.st1{fill:#FCC34F;}
	.st2{fill:#444444;}
</style>
<g>
	<g>
		<path class="st0" d="M44.2,6.6c-1-0.5-1.8-0.4-2.4,0c-0.3,0.1-0.5,0.1-0.7,0.3c0,0-0.1,0-0.2,0.1c-0.1,0-0.2-0.1-0.3-0.1
			c-1.5-0.7-2.8-0.6-3.7,0c-0.3,0.1-7.1,3.5-8.1,4.1c0,0-0.1,0-0.1,0l-19,1.4c-4.3-0.8-7.6,2.2-7.9,7.9c-0.1,1.3,0,2.7,0.3,4
			L46.2,8.1C45.6,7.5,44.9,6.9,44.2,6.6z"/>
	</g>
	<g>
		<path class="st1" d="M40.2,21.3c2.1-1,4.3-2.1,4.4-2.2c1.3-0.4,2.1-1.8,2-3.8c0,0,0-0.1,0-0.1c0.2-0.1,0.4-0.2,0.4-0.2
			c0.9-0.3,1.4-1.2,1.3-2.6c-0.1-1.4-0.9-3-2-4.1L2.1,24.2c0.8,4.7,3.3,9.7,6.5,13.3L40,26.1L40.2,21.3z"/>
	</g>
	<path class="st2" d="M49.6,12.6C49.3,10,47.2,7,44.8,5.9c-1.3-0.6-2.5-0.6-3.5-0.1c-0.2,0-0.3,0.1-0.5,0.2
		c-1.7-0.7-3.4-0.6-4.7,0.2c-1.4,0.6-6.6,3.3-7.8,3.9L9.7,11.4c-2.3-0.4-4.3,0.1-5.9,1.4c-2,1.6-3.2,4.3-3.3,7.8
		c-0.4,7.9,4.7,17.7,11.4,21.9c2.1,1.4,4.3,2,6.2,2c2.5,0,4.6-1.1,6.1-3.3l7.2-8.6c0.9,1.5,2.5,2.5,4.3,2.6c2.9,0.1,5.4-2.1,5.5-5.1
		l0.3-7.7c2.4-1.2,3.3-1.7,3.6-1.9c1.7-0.6,2.7-2.2,2.8-4.4C49.1,15.7,49.7,14.4,49.6,12.6z M37.2,8.6l0.2-0.1l0.2-0.1
		c0.5-0.3,1.2-0.3,2.1,0c0,0,0,0,0,0c0.4,0.2,0.9,0.5,1.3,0.8L37,11.2c-0.3-0.3-0.6-0.5-0.8-0.7c-0.4-0.3-0.8-0.5-1.2-0.7
		C36.1,9.1,37.1,8.7,37.2,8.6z M28.7,12.7L28.7,12.7l0.7-0.2c0.4-0.2,1.8-1,3.4-1.7c0.5,0.2,0.9,0.5,1.4,0.8
		c0.2,0.2,0.4,0.3,0.6,0.5l-15.7,7c-1.5-2-3.3-3.7-5.2-5c-0.2-0.1-0.5-0.3-0.7-0.4L28.7,12.7z M10.8,21.9c1.3-0.7,3.5,0.7,5,3.3
		c1.4,2.5,1.5,5.2,0.2,5.9c-1.3,0.7-3.5-0.7-5-3.3C9.5,25.3,9.4,22.7,10.8,21.9z M13.6,32.1c1.2,0.8,2.4,1,3.3,0.6l0,0l0,0
		c0.1,0,0.2-0.1,0.3-0.1c0,0,3.3-1.7,5.1-2.7c-0.2,0.8-0.5,1.4-1.1,1.8c-0.2,0.1-0.4,0.3-0.7,0.3l-3.2,1.5c-0.1,0-0.2,0.1-0.3,0.1
		c-0.9,0.4-2.1,0.2-3.3-0.6c-2.7-1.6-4.8-5.4-4.7-8.3c0-0.4,0.1-0.7,0.2-1.1C9.1,26.7,11.1,30.4,13.6,32.1z M3.1,20.7
		c0.1-2.6,0.9-4.7,2.3-5.8c0.8-0.6,1.8-1,2.9-1c0.4,0,0.7,0,1.1,0.1l0.2,0l2.1-0.2c0.6,0.3,1.2,0.6,1.8,1c1,0.7,2,1.5,3,2.4
		c-1.3,0.7-5.5,2.9-5.5,2.9c-0.1,0.1-0.3,0.1-0.4,0.2l0,0l0,0c0,0,0,0,0,0C8,20.9,5.3,22.2,3.4,25C3.2,23.5,3,22.1,3.1,20.7z
		 M23.7,34.5c-0.1,1.8-0.5,3.4-1.2,4.6L22,39.7l-0.1,0.1c-0.2,0.3-0.4,0.6-0.6,0.8c-0.3,0.3-0.6,0.5-1,0.7C19,41.9,17.6,42,16,41.6
		c-0.9-0.3-1.8-0.7-2.8-1.3c-4.6-2.9-8.3-8.8-9.6-14.6c1.6-2.6,3.9-4,6.2-4.6c-0.2,0.3-0.3,0.6-0.4,1c-0.5,0.6-0.9,1.5-0.9,2.6
		c-0.1,3.1,2.1,7.1,5,8.8c0.9,0.5,1.8,0.8,2.6,0.8c0.4,0,0.8-0.1,1.1-0.2c0.1,0,0.2-0.1,0.3-0.1l3.2-1.5c0.3-0.1,0.6-0.2,0.9-0.4
		c0.7-0.5,1.2-1.4,1.3-2.5c0.1-0.1,0.2-0.1,0.3-0.1C23.5,31.1,23.7,32.9,23.7,34.5z M32.5,27.1C32.5,27.1,32.5,27.2,32.5,27.1
		l-8.4,10c0.2-0.8,0.3-1.7,0.4-2.6c0.2-4.8-1.8-10.5-5-14.9l15.8-7.1c1.7,1.7,3.1,4.3,3.8,7.1c-1.4,1.6-3.3,3.8-5.8,6.6l0,0
		l-0.5,0.6C32.6,26.9,32.6,27,32.5,27.1z M35.7,32.7c-1.2-0.1-2.1-0.9-2.4-1.9c0.7,0.5,1.6,0.8,2.5,0.8c0.1,0,0.1,0,0.2,0
		c0.8,0,1.6-0.2,2.2-0.6C37.8,32,36.8,32.7,35.7,32.7z M38.5,30.2c0,0.1,0,0.1,0,0.2c-0.8,0.5-1.7,0.8-2.6,0.8c-1,0-1.9-0.4-2.6-1.1
		l0-0.6c0.8,0.5,1.7,0.9,2.6,0.9c0.1,0,0.1,0,0.2,0c0.9,0,1.7-0.3,2.5-0.7L38.5,30.2z M38.9,20.9l-0.4,8c-0.8,0.6-1.7,0.9-2.7,0.8
		c-1,0-1.9-0.4-2.6-1.1l0-1.6c2.5-2.8,4.5-5.1,5.9-6.8c0,0.1,0.1,0.3,0.1,0.4L38.9,20.9z M39.7,20.5c-0.8-3.9-2.8-7.5-5.2-9.3
		c-0.4-0.3-0.7-0.5-1.1-0.7c0.3-0.2,0.6-0.3,0.9-0.5c0.5,0.2,1,0.5,1.5,0.8c2.4,1.8,4.2,5.3,4.9,9.1C40.4,20.2,40.1,20.3,39.7,20.5z
		 M44.2,18.2l-0.2,0.1l-0.1,0.1c-0.2,0.1-1.2,0.6-2.6,1.3c-0.6-3.2-2-6.2-3.8-8.2l4.2-2c1.8,1.5,3.2,3.8,3.6,6l0,0.1
		c0,0.1,0,0.1,0,0.1C45.2,16.4,45.3,17.9,44.2,18.2z M46.4,14.1l-0.2,0.1c-0.1,0-0.2,0.1-0.3,0.2l-0.4,0.2c-0.7-2.1-2.1-4.1-3.8-5.6
		c0,0,0,0,0,0c-0.1-0.1-0.3-0.2-0.4-0.3l0.2-0.1l0.3-0.1l0.2-0.2c0,0,0,0,0.1,0C44,9.6,45.6,11.8,46.4,14.1L46.4,14.1z M46.8,13.7
		c-0.8-2.2-2.4-4.3-4.2-5.6c0.2-0.1,0.6,0,1,0.2c1.6,0.7,3.1,2.9,3.2,4.6v0C46.9,13,46.9,13.4,46.8,13.7z"/>
</g>
</svg>
