<svg xmlns="http://www.w3.org/2000/svg" viewBox="0 0 50 50"><path fill="#35d3c3" d="M29.2 21l7.9 2.4-6.7 4.8.1 8.2-6.6-4.9-7.8 2.6 2.7-7.8-4.9-6.6 8.2.1 4.7-6.7z"/><path fill="#7df4eb" fill-rule="evenodd" d="M40.1 8l-4.8-.2-1.6-3h-4.1L28.3 2h-6.1l-1.8 2.9h-4.1l-.9 2.9-5.2.2-.3 11.6v24.9c.1 2.8 0 4.2 2.6 3.3l27.4-9.7.5-3.9-.3-8.1V8z" clip-rule="evenodd"/><path fill="none" stroke="#444" stroke-linecap="round" stroke-linejoin="round" stroke-miterlimit="10" stroke-width=".5" d="M14.6 17.4l1.7 1.7 2.8-3.3m-4.5 9.6l1.7 1.7 2.8-3.3m-4.5 9.5l1.7 1.8 2.8-3.3m-4.5 9.5l1.7 1.7 2.8-3.3m3.7-21.9h12.5m-12.5 7.9h12.5m-12.5 7.9h12.5m-12.5 8h12.5"/><circle cx="25" cy="5.7" r=".8" fill="#444"/><path fill="none" stroke="#444" stroke-linecap="round" stroke-linejoin="round" stroke-miterlimit="10" stroke-width="2.5" d="M15.8 7.8h-4.2c-.9 0-1.6.7-1.6 1.6v36.9c0 .9.7 1.6 1.6 1.6h18.9m3.7-40.1h4.2c.9 0 1.6.7 1.6 1.6V38M15.8 7.8V5.4c0-.3.2-.5.5-.5h4.1c.3 0 .5-.2.5-.5 0-1.4 1-2.4 2.4-2.4h3.4C28 2 29 3 29 4.3c0 .3.2.5.5.5h4.1c.3 0 .5.2.5.5v2.4"/><path fill="none" stroke="#444" stroke-linecap="round" stroke-linejoin="round" stroke-miterlimit="10" d="M16.5 8v2.5h17V8"/></svg>