<svg xmlns="http://www.w3.org/2000/svg" id="Layer_1" data-name="Layer 1" version="1.1" viewBox="0 0 50 50"><defs><style>.cls-2{stroke:#444444;stroke-width:.2px;fill:#444444;stroke-miterlimit:10}</style></defs><path fill="#46b8b0" stroke-width="0" d="M44.8 11.7c0-.5-3.3 1.6-7-1.7-2.4-2.2-2.4-5-2.7-5.2l-4.3-2.4-3 2.6h-5.4l-3-2.6-2.7 1c-2.1 0 0 4.6-6.7 8.2-2.6-.3-3 .2-4.9 2s2.5 3.2 1.1 5.3l-.9 4.9-2.2 1.9-.9 4.2 3.5 1.5 3.7 5.3c.1.4-1 3.7-.7 3.9l3.4 2.9 34.1-12.2c.2-.1 3.1-3.8 1.8-5s-2.9-3.1-3.3-5.3c-.6-3.5.4-7.4 0-9.4z"/><path fill="none" stroke="#444" stroke-linecap="round" stroke-linejoin="round" stroke-width="2.5" d="M28.9 44.3l-1.5 3.3h-4.5l-1.5-3.3c-2.4-.9-3.7-1.3-6-2.2l-3.2 1.5c-1.6-1.4-1.8-1.5-3.4-2.9l1-3.5-3.2-5.5-3.5-.9-.8-4.4 3-2 1.1-6.3-2.1-2.9 2.2-3.9 3.6.3L15 7.5l.3-3.6 4.2-1.5L22 5h6.4l2.5-2.6 4.2 1.5.3 3.6c1.9 1.6 3 2.5 4.9 4.1l3.6-.3c1.1 1.8 1.2 2 2.2 3.9L44 18.1c.4 2.5.7 3.8 1.1 6.3l3 2c-.4 2.1-.4 2.3-.8 4.4l-3.5.9"/><path d="M20.8 22.6h1.3c.2 0 .4-.2.4-.4s-.2-.4-.4-.4h-1.3c-.2 0-.4.2-.4.4s.2.4.4.4z" class="cls-2"/><path fill="#444444" stroke="#444444" stroke-miterlimit="10" stroke-width=".5" d="M25.9 22.6h3.6c.2 0 .4-.2.4-.4s-.2-.4-.4-.4h-3.6c-.2 0-.4.2-.4.4s.2.4.4.4z"/><path d="M20.8 28.4h1.3c.2 0 .4-.2.4-.4s-.2-.4-.4-.4h-1.3c-.2 0-.4.2-.4.4s.2.4.4.4zm5.1 0h3.6c.2 0 .4-.2.4-.4s-.2-.4-.4-.4h-3.6c-.2 0-.4.2-.4.4s.2.4.4.4z" class="cls-2"/><path fill="none" stroke="#444444" stroke-linecap="round" stroke-linejoin="round" stroke-width=".5" d="M18.5 19.4h13.4v11.2H18.5zm0 5.6h13.4"/><path fill="none" stroke="#444" stroke-miterlimit="10" stroke-width=".5" d="M41.9 24.8v1.6c-.2 2-1.1 3.8-2.6 5.2-1.7 1.7-3.8 2.5-6.2 2.5h-15c-1.6 0-3.1-.3-4.5-1.1-2.4-1.4-3.9-3.5-4.3-6.2-.4-2.5.2-4.7 1.8-6.7 1.5-1.9 3.5-2.9 5.9-3.2.2 0 .3-.1.4-.3.3-.7.6-1.4 1-2.1 2.1-3.3 6.4-4.7 10-3.3 2.6 1 4.4 2.8 5.3 5.4 0 .2.2.3.4.3.3 0 .7 0 1 .1 3 .7 5.2 2.6 6.3 5.5.3.7.4 1.5.5 2.3z"/></svg>
