<?xml version="1.0" encoding="UTF-8"?>
<svg id="Layer_1" data-name="Layer 1" xmlns="http://www.w3.org/2000/svg" version="1.1" viewBox="0 0 50 50">
  <defs>
    <style>
      .cls-1, .cls-2, .cls-3 {
        stroke: #454444;
      }

      .cls-1, .cls-3, .cls-4 {
        stroke-width: .5px;
      }

      .cls-1, .cls-4, .cls-5 {
        fill: none;
      }

      .cls-1, .cls-5 {
        stroke-linecap: round;
        stroke-linejoin: round;
      }

      .cls-2 {
        stroke-width: .2px;
      }

      .cls-2, .cls-3 {
        fill: #454444;
      }

      .cls-2, .cls-3, .cls-4 {
        stroke-miterlimit: 10;
      }

      .cls-6 {
        fill: #46b8b0;
        stroke-width: 0px;
      }

      .cls-4 {
        stroke: #444;
      }

      .cls-5 {
        stroke: #444;
        stroke-width: 2.5px;
      }
    </style>
  </defs>
  <path class="cls-6" d="M44.8,11.7c0-.5-3.3,1.6-7-1.7-2.4-2.2-2.4-5-2.7-5.2l-4.3-2.4-3,2.6h-5.4s-3-2.6-3-2.6l-2.7,1c-2.1,0,0,4.6-6.7,8.2-2.6-.3-3,.2-4.9,2s2.5,3.2,1.1,5.3l-.9,4.9-2.2,1.9-.9,4.2,3.5,1.5,3.7,5.3c.1.4-1,3.7-.7,3.9l3.4,2.9,34.1-12.2c.2-.1,3.1-3.8,1.8-5s-2.9-3.1-3.3-5.3c-.6-3.5.4-7.4,0-9.4Z"/>
  <path class="cls-5" d="M28.9,44.3l-1.5,3.3h-4.5s-1.5-3.3-1.5-3.3c-2.4-.9-3.7-1.3-6-2.2l-3.2,1.5c-1.6-1.4-1.8-1.5-3.4-2.9l1-3.5-3.2-5.5-3.5-.9-.8-4.4,3-2,1.1-6.3-2.1-2.9,2.2-3.9,3.6.3,4.9-4.1.3-3.6,4.2-1.5,2.5,2.6h6.4s2.5-2.6,2.5-2.6l4.2,1.5.3,3.6c1.9,1.6,3,2.5,4.9,4.1l3.6-.3c1.1,1.8,1.2,2,2.2,3.9l-2.1,2.9c.4,2.5.7,3.8,1.1,6.3l3,2c-.4,2.1-.4,2.3-.8,4.4l-3.5.9"/>
  <g>
    <path class="cls-2" d="M20.8,22.6h1.3c.2,0,.4-.2.4-.4s-.2-.4-.4-.4h-1.3c-.2,0-.4.2-.4.4,0,.2.2.4.4.4Z"/>
    <path class="cls-3" d="M25.9,22.6h3.6c.2,0,.4-.2.4-.4s-.2-.4-.4-.4h-3.6c-.2,0-.4.2-.4.4,0,.2.2.4.4.4Z"/>
    <path class="cls-2" d="M20.8,28.4h1.3c.2,0,.4-.2.4-.4s-.2-.4-.4-.4h-1.3c-.2,0-.4.2-.4.4,0,.2.2.4.4.4Z"/>
    <path class="cls-2" d="M25.9,28.4h3.6c.2,0,.4-.2.4-.4s-.2-.4-.4-.4h-3.6c-.2,0-.4.2-.4.4,0,.2.2.4.4.4Z"/>
    <rect class="cls-1" x="18.5" y="19.4" width="13.4" height="11.2"/>
    <line class="cls-1" x1="18.5" y1="25" x2="31.9" y2="25"/>
  </g>
  <path class="cls-4" d="M41.9,24.8v1.3c0,.1,0,.2,0,.3-.2,2-1.1,3.8-2.6,5.2-1.7,1.7-3.8,2.5-6.2,2.5-5,0-10,0-15,0-1.6,0-3.1-.3-4.5-1.1-2.4-1.4-3.9-3.5-4.3-6.2-.4-2.5.2-4.7,1.8-6.7,1.5-1.9,3.5-2.9,5.9-3.2.2,0,.3-.1.4-.3.3-.7.6-1.4,1-2.1,2.1-3.3,6.4-4.7,10-3.3,2.6,1,4.4,2.8,5.3,5.4,0,.2.2.3.4.3.3,0,.7,0,1,.1,3,.7,5.2,2.6,6.3,5.5.3.7.4,1.5.5,2.3Z"/>
</svg>