<?xml version="1.0" encoding="UTF-8"?>
<svg id="Layer_1" data-name="Layer 1" xmlns="http://www.w3.org/2000/svg" version="1.1" viewBox="0 0 50 50">
  <defs>
    <style>
      .cls-1, .cls-2, .cls-3, .cls-4 {
        stroke: #444;
        stroke-linecap: round;
        stroke-linejoin: round;
      }

      .cls-1, .cls-2, .cls-4 {
        fill: none;
      }

      .cls-1, .cls-3 {
        stroke-width: .5px;
      }

      .cls-5 {
        fill: #fcc34f;
      }

      .cls-5, .cls-6, .cls-7 {
        stroke-width: 0px;
      }

      .cls-6 {
        fill: #d1bd00;
      }

      .cls-7, .cls-3 {
        fill: #444;
      }

      .cls-4 {
        stroke-width: 2.5px;
      }
    </style>
  </defs>
  <path class="cls-6" d="M26.4,21.9l7.8,2.4-6.7,4.8v8.2c.1,0-6.5-4.9-6.5-4.9l-7.7,2.6,2.6-7.8-4.9-6.5h8.2c0,.1,4.7-6.6,4.7-6.6l2.5,7.8Z"/>
  <path class="cls-5" d="M5.3,32.7l-3.7,7.8c0,5,5.4,3.7,19.7,3.2l25.2-8.9-.2-21.8-1.1-2c-.2-.9-1.5-1.4-2.5-1.4l-34.9.4c-1.1,0-3,2.4-3,3.5v11.9"/>
  <path class="cls-4" d="M48.7,39l-2.5-5.6V14.1c0-2.1-1.7-3.8-3.8-3.8H8.8c-2.1,0-3.8,1.7-3.8,3.8v19.2l-3.3,7c-.9,1.7.4,3.8,2.3,3.8h34.8"/>
  <path class="cls-1" d="M7.4,35.4h36M27.3,41.4h-3.8"/>
  <path class="cls-2" d="M4.8,33.3h41.2"/>
  <path class="cls-3" d="M44.6,39.5H6.2l1.1-2.2h36.1l1.2,2.2Z"/>
  <path class="cls-1" d="M6.1,15.4h39.2"/>
  <circle class="cls-7" cx="13.3" cy="13.7" r=".7"/>
  <circle class="cls-7" cx="10.8" cy="13.7" r=".7"/>
  <circle class="cls-7" cx="8.3" cy="13.7" r=".7"/>
  <path class="cls-7" d="M16.9,23.9c.9,0,1-.5,1-.9s0-.7-.1-1-.1-.7-.1-1c0-1.1.7-1.6,1.7-1.6h.3v.7h-.2c-.7,0-.9.4-.9,1s0,.6.1.9c0,.3.1.6.1.9,0,.8-.3,1.2-.9,1.3.5.1.9.5.9,1.3s0,.6-.1.9c0,.3-.1.6-.1.9,0,.7.3,1,.9,1h.2v.7h-.3c-1,0-1.7-.4-1.7-1.6s0-.7.1-1,.1-.6.1-1-.1-.9-1-.9c0,0,0-.6,0-.6ZM33.3,24.5c-.9,0-1,.5-1,.9s0,.6,0,1,0,.7,0,1c0,1.2-.8,1.6-1.7,1.6h-.3v-.7h.2c.7,0,1-.4,1-1s0-.6-.1-.9c0-.3-.1-.6-.1-.9,0-.8.3-1.2.9-1.3-.5-.1-.9-.5-.9-1.3s0-.6.1-.9c0-.3.1-.6.1-.9,0-.6-.3-1-.9-1h-.2v-.7h.2c1,0,1.8.5,1.8,1.6s0,.7,0,1,0,.7,0,1,0,.9,1,.9v.6h-.1Z"/>
</svg>
