<svg xmlns="http://www.w3.org/2000/svg" id="Camada_1" x="0" y="0" version="1.1" viewBox="0 0 300 300" xml:space="preserve"><style>.st0{display:none}.st3{fill:#ff6b6b}.st15{fill:#c4cbcc}</style><path id="Camada_6" fill="#e56060" d="M255.3 84.8c48 32.1 35 87.4 35 87.4s-3.6 20.1-22.1 51.8c-13.9 24-48 38.9-48 38.9s-50.4 15.8-73 0c-16-11.3-31.7-14.9-31.7-14.9s-25.4-12-39.4-59.5S87.1 75.7 136 61.3C185 47 230.8 71 230.8 71l24.5 13.8zM192.6 100h-72.4"/><g id="Camada_10" class="st0"><path d="M689.9-245.8s-31.6-21.9-62.1 18c-30.6 39.9-22.5 117.1-22.5 117.1l16.1 16.2s-14.2-130 68.5-151.3zm41.3 15.7s32.9 12.4-66 156.6c0 0 19.6 5.9 35.8-.1 0 0 97.4-136.4 53.1-153.5l-22.9-3z" class="st3"/><path d="M700.9-238.1s6 3.2 12 4.6c0 0 10.9 33.6-62.8 151.1l-11.9-6.1c-.1-.1 20.6-121.5 62.7-149.6z" class="st3"/><path d="M740.4-269.2c16.7 8.5 23.7 17 23.7 17-29.6-.6-32.9 22.1-32.9 22.1-4-.5-17.5-2.6-20.7-3.5 0 0 26.3-34.9 29.9-35.6zm-41.9 31.1c-7.6-3.8-11-7.7-11-7.7 9.7-21.8-8.3-38.9-8.3-38.9 11.4.8 21.5 2.5 30.3 4.5-1.3 7.6 1.2 30.1-11 42.1z" class="st3"/><path d="M724.4-77.9s102.9-114.9 47.1-153.6l-28.1 2.9s1.6-13.7 3-13 29.7-3.2 29.7-3.2 33.9 28.2 17.2 87.6-68.9 79.3-68.9 79.3zm-50-180.2s.1-.7 0-1.9c-.5-4.9-4.6-17.6-32.2-19.2 0 0-40.8 6-58.8 76.7 0 0-8 34.8 5.8 61.7 0 0-14.8-82.9 38.6-111.3 31-17 46.6-6 46.6-6z" class="st3"/><path fill="#00bf5f" d="M377.6-35.8c-2.8 3-3.7 5.8-4.4 9.7-.5 2.8-1.8 5.2-2.8 7.8-2.4 6.2-1.8 12.1 4.2 16 4.5 2.9 11.3 4.6 16.2 1.6 5.2-3.2 5.9-10.4 6-15.9.1-4.9.3-11.3-2.2-15.7-3.3-5.6-10-5.5-14.7-1.9-4.5 3.4-9.8 11.3-4.5 16.5 6 5.8 13.3-1.3 13.9-7.7.4-4.2-5.4-7.8-9-5.1-.4.3-.9.7-1.3 1-6 4.6-.1 14.9 6 10.3.4-.3.9-.7 1.3-1l-9-5.1c1.3-.8 2.6-1.5 3.8-2.3l3.6 2.7c2.7 4.2-1 1.5 1.5.9 3.2-.8-1-3.9-1.9-2.2-.2.3.4 3.2.5 3.8.2 4.1.4 8.3-.7 12.4.5-1.6 2 .2.1-.9-.6-.4-1.5-.4-2.1-.7s-1.1-.8-1.7-1.2c.4 1.8.7 1.9.8.3.1-.4.3-.8.4-1.2.8-2.3 2-4.5 2.7-6.8.6-2.1.3-5.1 1.9-6.7 5.1-5.7-3.3-14.2-8.6-8.6z"/><path fill="#ab67a9" d="M397.5-25.8c-.2 5.5-.6 10 3 14.6 2.5 3.2 4.1 7.3 7.2 9.9 3.6 3 8.8 3.4 12.4.1 3.1-2.9 3.6-7.4 3.8-11.4.3-8.1 1.3-19.7-7.7-23.8-7.3-3.3-19.7 4.6-21.3 11.9-1.7 7.5 9.8 10.6 11.5 3.2.4-1.6 2.6-2.3 4-2.9.7-.3 1.9-.5 2.4-1 .8-.2.7-.3-.4-.1-1-.2-1.2 0-.6.7-.4 1.3.5 4.3.5 5.9-.1 1.9-.1 3.8-.2 5.6 0 .7-.7 3.1-.4 3.6 3.4.3 4.6 0 3.5-1.2-.2-.2-.4-.5-.5-.7-.2-.8-.9-1.6-1.3-2.3-1-1.8-3-3.5-3.9-5.3-.9-2-.1-4.7 0-6.9.1-7.6-11.8-7.6-12 .1z"/><path fill="#ed9751" d="M390.3-8.5c-.1 4.2-.9 8.4-.6 12.7.5 5.7 3.7 11.8 10.3 11.2 6.9-.6 8.5-8.3 8.4-14-.1-3.3-1.7-6.4-5.1-7.4-3-.9-6.3.5-7.9 3.1-4 6.6 6.3 12.6 10.3 6-.2.3-.3.5-.5.8-.9.5-1.8 1-2.6 1.5.2 0 .3-.1.5-.1h-3.2c.2.1.3.1.5.2-.9-.5-1.8-1-2.6-1.5.1.1.2.3.4.4-.5-.9-1-1.8-1.5-2.6.1.4-.5 1.9-.2 2.4-.2.7-.1.8.3.3 1.6 0 3.2-.1 4.9-.1.3.5.3.4 0-.4v.1c.2-.8-.1-2-.1-2.8.1-3.3.6-6.5.6-9.8.1-7.7-11.8-7.7-11.9 0zm42.6-145.8s-17-6.7-19.5 6.5c0 0-5.7 10.4 12.7 28.6 18.4 18.2 79.6 71.5 79.6 71.5l16.6-23.9c0-.1-70.1-70.8-89.4-82.7z"/><path fill="#d2d2d2" d="M518.9-33.3l-11.7-10.1s-3.9-2-.8-6.4 15.9-21.9 15.9-21.9 1.2-1.1 4 .9c2.8 1.9 9.8 10.1 9.8 10.1l1.7 1.5-18.9 25.9z"/><path fill="#cf524b" d="M516.9-35S515.8-15.7 538-7.1c22.3 8.5 20.5-38.3 20.5-38.3s-6.3-16.4-21.8-14.9C521.5-50.9 516.9-35 516.9-35z"/><path fill="#e445c8" d="M535.8-15s-1 18.8 20.4 14.7 27.2-9.6 27.2-9.6 6.1-5.3-1.6-10.3-15-17-15-17-9.1-16.5-12.9-13.3S535.8-15 535.8-15z"/></g><path id="Camada_10_00000043440236814045651880000003122256126959337099_" fill="#008dd3" d="M288.8 147.3c.1 20.8-4.3 40.5-12.2 58.5-22.1 50-72 84.8-130.1 85-15.4.1-30.3-2.4-44.3-6.8-26.3-8.4-49.1-24.2-66.2-45-17.8-21.4-29.5-48.3-32.3-77.7-.4-4.2-.6-8.6-.6-12.9C2.8 100 26.8 56.9 63.8 31c4.8-3.5 9.9-6.5 15.1-9.2 7.3-4 15.1-7.1 23.1-9.9 7.6-2.4 15.4-4.2 23.5-5.5 6.5-.8 13.1-1.4 19.8-1.5 26.2-.1 50.9 6.9 72.2 19.2 3.9 2.2 7.5 4.5 11 7.1 17 12.1 31.3 27.8 41.7 46.1 1.2 2.1 2.3 4.1 3.4 6.3.8 1.9 1.8 3.7 2.6 5.6 2.7 6.1 5 12.3 6.9 18.7 2.1 7.1 3.7 14.6 4.5 22 .8 5.8 1.2 11.5 1.2 17.4z"/><path fill="#fff" d="M108.3 26.3c-10.4 0-18.9 8.4-18.9 18.9v199.5H72.7v16.8h201.5c9.3 0 16.8-7.5 16.8-16.8V45.2c0-10.4-8.4-18.9-18.9-18.9H108.3z"/><path fill="#1a00d6" d="M106.3 51.5h167.9v16.8H106.3z"/><path fill="#f14e70" d="M207 93.5h67.2v75.6H207z"/><path d="M106.3 93.5h84v8.4h-84zm0 33.6h84v8.4h-84zm0 33.6h84v8.4h-84zm0-50.4h84v8.4h-84zm0 33.6h84v8.4h-84zM106.3 194.2h167.9v8.4H106.3zm0 33.6h167.9v8.4H106.3zm0-50.3h167.9v8.4H106.3zm0 33.5h167.9v8.4H106.3z" class="st15"/><path fill="#ffd200" d="M106.3 76.7h167.9v8.4H106.3z"/><path fill="#515759" d="M55.9 144.9v99.3c0 9 6.9 16.8 16 17.2 9.6.5 17.6-7.2 17.6-16.8V127.1H73.7c-9.8 0-17.8 7.9-17.8 17.8z"/></svg>