<svg xmlns="http://www.w3.org/2000/svg" id="Camada_1" x="0" y="0" version="1.1" viewBox="0 0 300 300" xml:space="preserve"><style>.st15{fill:#2b2b2b}</style><path id="Camada_6" fill="#e56060" d="M255.3 84.8c48 32.1 35 87.4 35 87.4s-3.6 20.1-22.1 51.8c-13.9 24-48 38.9-48 38.9s-50.4 15.8-73 0c-16-11.3-31.7-14.9-31.7-14.9s-25.4-12-39.4-59.5S87.1 75.7 136 61.3C185 47 230.8 71 230.8 71l24.5 13.8zM192.6 100h-72.4"/><g id="Camada_17"><path id="Camada_10_00000077288284598738139340000000979927638953333645_" fill="#008dd3" d="M275.6 151.2c.1 19.8-4.1 38.6-11.6 55.7-21.1 47.6-68.6 80.8-124 81-14.7.1-28.9-2.3-42.2-6.5-25-8-46.8-23-63.1-42.8-17-20.4-28.1-46-30.8-74-.4-4-.6-8.2-.6-12.3C3.1 106.1 26 65.1 61.2 40.4c4.6-3.3 9.4-6.2 14.4-8.8 7-3.8 14.4-6.8 22-9.4 7.2-2.3 14.7-4 22.4-5.2 6.2-.8 12.5-1.3 18.9-1.4 25-.1 48.5 6.6 68.8 18.3 3.7 2.1 7.1 4.3 10.5 6.8 16.2 11.5 29.8 26.5 39.7 43.9 1.1 2 2.2 3.9 3.2 6 .8 1.8 1.7 3.5 2.5 5.3 2.6 5.8 4.8 11.7 6.6 17.8 2 6.8 3.5 13.9 4.3 21 .7 5.4 1.1 10.9 1.1 16.5z"/><path fill="#ffd200" stroke="#515759" stroke-miterlimit="10" stroke-width="19" d="M237.1 265.4H117.3c-28.3 0-51.3-23-51.3-51.3V94.3C66 66 89 43 117.3 43h119.8c28.3 0 51.3 23 51.3 51.3v119.8c0 28.3-23 51.3-51.3 51.3z"/><path fill="none" stroke="#fff" stroke-linecap="round" stroke-linejoin="round" stroke-miterlimit="10" stroke-width="15" d="M90.7 107.7V93.9c0-14.4 11.7-26.1 26.1-26.1h12.8"/><path fill="#f1f3f3" d="M106 129.3l1.7-13.3 30.2-30.2 81.3 1.7 29.2 30.6-4.1 26.8-27.6 29.4-25.6 5.3 10.8 19.4-4 20.9-37.8 5.3-12.9-17.5 14.8-26.2-15.9-10.2-.6-30.4-23.4 1.9z"/><g id="XMLID_00000087384587280367697430000008176148275959958188_"><path d="M253.5 136.5V147c0 1.9-1.5 3.5-3.5 3.5h-10.4v-13.9h13.9z" class="st15"/><path d="M239.6 122.7h13.9v13.9h-13.9zm13.9-10.5v10.4h-13.9v-13.9H250c1.9.1 3.5 1.6 3.5 3.5zm-13.9 38.2v10.4c0 1.9-1.5 3.5-3.5 3.5h-10.4v-10.1c0-2.1 1.7-3.8 3.8-3.8h10.1zm0-52.1v10.4h-10.1c-2.1 0-3.8-1.7-3.8-3.8v-10h10.4c1.9 0 3.5 1.5 3.5 3.4zm-13.9 66v10.4c0 1.9-1.5 3.5-3.5 3.5h-10.4v-13.9h13.9zm0-79.8v10.4h-13.9V81h10.4c2 0 3.5 1.5 3.5 3.5zM211.8 206v10.4c0 1.9-1.5 3.5-3.5 3.5h-10.4V206h13.9zm0-10.5V206h-13.9v-13.9h10.4c2 0 3.5 1.5 3.5 3.4z" class="st15"/><path d="M211.8 164.3v13.9h-13.9v-10.1c0-2.1 1.7-3.8 3.8-3.8h10.1zM197.9 81h13.9v13.9h-13.9zm0 138.9v10.4c0 1.9-1.5 3.5-3.5 3.5H184v-13.9h13.9z" class="st15"/><path d="M184.1 178.2H198v13.9h-13.9zm13.8-41.7v10.1c0 2.1-1.7 3.8-3.8 3.8H184v-13.9h13.9z" class="st15"/><path d="M197.9 126.5v10.1H184v-13.9h10.1c2.1 0 3.8 1.7 3.8 3.8zM184.1 81H198v13.9h-13.9zm-13.9 138.9h13.9v13.9h-13.9zm0-41.7h13.9v13.9h-13.9z" class="st15"/><path d="M170.2 136.5h13.9v13.9h-13.9z" class="st15"/><path d="M170.2 122.7h13.9v13.9h-13.9zm0-41.7h13.9v13.9h-13.9zm0 138.9v13.9h-10.4c-1.9 0-3.5-1.5-3.5-3.5v-10.4h13.9zm-13.9-41.7h13.9v13.9h-13.9z" class="st15"/><path d="M156.3 136.5h13.9v13.9h-13.9z" class="st15"/><path d="M170.2 122.7v13.9h-13.9v-10.1c0-2.1 1.7-3.8 3.8-3.8h10.1zM156.3 81h13.9v13.9h-13.9zm0 125v13.9h-10.4c-1.9 0-3.5-1.5-3.5-3.5V206h13.9zm0-13.9V206h-13.9v-10.4c0-1.9 1.5-3.5 3.5-3.5h10.4zm0-27.8v13.9h-10.4c-1.9 0-3.5-1.5-3.5-3.5v-10.4h13.9zm-13.9-13.9h13.9v13.9h-13.9z" class="st15"/><path d="M142.4 136.5h13.9v13.9h-13.9zm0-55.5h13.9v13.9h-13.9zm-13.9 55.5h13.9v13.9h-13.9zM142.4 81v13.9h-13.9V84.5c0-1.9 1.5-3.5 3.5-3.5h10.4zm-13.9 55.5v13.9h-10.4c-1.9 0-3.5-1.5-3.5-3.5v-10.4h13.9zm0-41.6V105c0 2.1-1.7 3.8-3.8 3.8h-10.1V98.3c0-1.9 1.5-3.5 3.5-3.5h10.4zm-13.9 27.8v13.9h-10.4c-1.9 0-3.5-1.5-3.5-3.5v-10.4h13.9z" class="st15"/><path d="M114.6 108.8v13.9h-13.9v-10.4c0-1.9 1.5-3.5 3.5-3.5h10.4z" class="st15"/></g></g></svg>