<svg xmlns="http://www.w3.org/2000/svg" id="Layer_1" x="0" y="0" version="1.1" viewBox="0 0 50 50" xml:space="preserve"><style>.st2{fill:none}.st3{fill:#031326}</style><path fill="#afe55d" d="M44.6 20.8l.9 2.7-2.2.8-3.3 1.3-6.9 2.5-2.7 1-2.1.8-5 1.8-1.3.5-14.8 5.3-2.2.8C2.4 33.5 3.2 27.8 4.7 23c.2-.8.5-1.5.8-2.2.6-1.5 1.3-3 2.2-4.5-2.5-1-4.3-3.5-4.3-6.3 0-3.7 3-6.7 6.8-6.7 2.7 0 5.1 1.7 6.2 4.1C18.8 6 21.7 5.2 25 5.2s6.2.9 8.7 2.3C34.8 5 37.3 3.3 40 3.3c3 0 5.5 1.9 6.4 4.6.2.7.3 1.4.3 2.1 0 2.8-1.8 5.3-4.3 6.3.9 1.5 1.6 3 2.2 4.5z"/><path fill="#c3ff68" d="M46.4 7.9l-2.2.8-6 2.2-2.4.9-15.6 5.7-2.4.9-3.9 1.4-3.5 1.2-3 1.1-2.7 1c.2-.8.5-1.5.8-2.2.6-1.5 1.3-3 2.2-4.5-2.5-1-4.3-3.5-4.3-6.3 0-3.7 3-6.7 6.8-6.7 2.7 0 5.1 1.7 6.2 4.1C18.8 6 21.7 5.2 25 5.2s6.2.9 8.7 2.3C34.8 5 37.3 3.3 40 3.3c2.9 0 5.5 1.9 6.4 4.6z"/><path d="M29.1 28.8h-8.2c-.1 0-.2.1-.2.1 0 .1-.1.2 0 .3l4.1 5.4c.1.2.3.2.4 0l4.1-5.4c.1-.1.1-.2 0-.3 0 0-.1-.1-.2-.1zM34 17.4c-.9 0-2 .3-2.5 2.4-.3 1-.4 1.4 1.2 3.6 1.7 2.5 3.1 3.6 4.3 3.6.4 0 .8-.3 1.1-.5.7-.7 1.1-1.9 1.1-2.9 0-1.7-2.5-6.2-5.2-6.2zm-28.5-8c0-2 1.7-3.7 3.7-3.7 1.4 0 2.7.9 3.3 2.1l.9-.6c-.7-2-2.7-3.4-4.7-3.4C6 3.8 3.8 6 3.8 8.7c0 2.2 1.5 4.1 3.6 4.7.1-.2.2-.4.4-.5-1.4-.6-2.3-2-2.3-3.5zm10.5 8c-2.7 0-5.1 4.4-5.2 6.2 0 1.1.4 2.2 1.1 2.9.2.2.6.5 1.1.5 1.2 0 2.6-1.2 4.3-3.6 1.6-2.2 1.4-2.6 1.2-3.6-.5-2.1-1.6-2.4-2.5-2.4zm30.2-8.7c0-2.7-2.2-4.9-4.9-4.9-2 0-4 1.4-4.7 3.4 2.3 1.7 4.3 3.8 6 6.2 2.1-.6 3.6-2.5 3.6-4.7z" class="st2"/><path d="M9.2 6.2C7.4 6.2 6 7.7 6 9.4c0 1.4.9 2.5 2.1 3 1.2-1.5 2.5-3 4-4.2-.5-1.1-1.7-2-2.9-2z" class="st2"/><path d="M20.9 19.2c-.9-3.6-3.2-4.3-4.9-4.3-4.3 0-7.6 5.8-7.7 8.6 0 1.7.7 3.6 1.8 4.7.8.8 1.8 1.3 2.8 1.3 2.7 0 4.7-2.4 6.3-4.7 2-2.6 2.2-3.7 1.7-5.6zm-3.6 4.2C15.6 25.9 14.2 27 13 27c-.4 0-.8-.3-1.1-.5-.7-.7-1.1-1.9-1.1-2.9 0-1.7 2.5-6.2 5.2-6.2.9 0 2 .3 2.5 2.4.2 1 .4 1.4-1.2 3.6zM34 14.9c-1.8 0-4 .7-4.9 4.3-.5 1.8-.3 3 1.6 5.7 1.6 2.3 3.7 4.7 6.3 4.7 1 0 2-.4 2.8-1.3 1.2-1.2 1.9-3 1.8-4.7 0-2.9-3.3-8.7-7.6-8.7zm4.1 11.6c-.2.2-.6.5-1.1.5-1.2 0-2.6-1.2-4.3-3.6-1.6-2.2-1.4-2.6-1.2-3.6.5-2.1 1.6-2.4 2.5-2.4 2.7 0 5.1 4.4 5.2 6.2 0 1.1-.5 2.2-1.1 2.9zm-9 .8h-8.2c-.7 0-1.3.4-1.6 1-.3.6-.2 1.3.2 1.9l4.1 5.4c.3.5.9.7 1.4.7.6 0 1.1-.3 1.4-.7l4.1-5.4c.4-.5.5-1.2.2-1.9-.3-.6-.9-1-1.6-1zm.2 1.9l-4.1 5.4c-.1.2-.3.2-.4 0l-4.1-5.4c-.1-.1-.1-.2 0-.3 0-.1.1-.1.2-.1h8.2c.1 0 .2.1.2.1.1.1.1.2 0 .3z" class="st3"/><path d="M46.4 20.5c-.6-1.7-1.4-3.3-2.4-4.9 2.8-1.1 4.7-3.8 4.7-6.9 0-.8-.1-1.6-.4-2.3-1-2.9-3.8-5-7-5-2.9 0-5.6 1.9-6.8 4.5-2.8-1.5-5.9-2.5-9.5-2.5s-6.7.9-9.5 2.5c-1.2-2.7-3.9-4.5-6.8-4.5-4.1 0-7.4 3.3-7.4 7.4 0 3.1 1.9 5.8 4.7 6.9-.9 1.6-1.7 3.3-2.4 4.9-.3.8-.6 1.6-.8 2.4-1.6 5-2.5 11.4.3 16.6.2.5.5.9.8 1.3 3.6 5.2 10.7 7.8 21.1 7.8.7 0 1.2-.6 1.2-1.2 0-.7-.6-1.2-1.2-1.2-9.5 0-15.9-2.3-19-6.7-.2-.2-.3-.5-.5-.8-3-5.1-1.6-11.9.3-16.9.1-.1.1-.3.2-.4C8.9 14 15.3 6 25 6c4.7 0 8.6 1.9 11.8 4.7 3.4 3 5.8 7 7.2 10.8.4.9.7 1.9 1 2.9 1.2 4.3 1.9 9.4-.1 13.6-.3.6 0 1.4.6 1.7s1.4 0 1.7-.6c2.4-4.9 1.7-10.8.3-15.6-.4-1.1-.8-2.1-1.1-3zM8.1 12.4C6.9 12 6 10.8 6 9.4c0-1.8 1.4-3.2 3.2-3.2 1.2 0 2.4.8 2.9 1.9-1.5 1.3-2.8 2.8-4 4.3zm4.4-4.6c-.6-1.2-1.9-2.1-3.3-2.1-2 0-3.7 1.7-3.7 3.7 0 1.5.9 2.8 2.3 3.4-.1.2-.2.4-.4.5-2.1-.6-3.6-2.5-3.6-4.7C3.8 6 6 3.8 8.7 3.8c2 0 4 1.5 4.7 3.4l-.9.6zm26.9 1.8c-.9-.9-1.8-1.6-2.8-2.4.7-2 2.7-3.4 4.7-3.4 2.2 0 4 1.4 4.6 3.4.1.5.2 1 .2 1.5 0 2.2-1.5 4.1-3.6 4.7-.8-1.4-1.9-2.7-3.1-3.8z" class="st3"/></svg>