<?xml version="1.0" encoding="utf-8"?>
<!-- Generator: Adobe Illustrator 27.3.1, SVG Export Plug-In . SVG Version: 6.00 Build 0)  -->
<svg version="1.1" id="Camada_3" xmlns="http://www.w3.org/2000/svg" xmlns:xlink="http://www.w3.org/1999/xlink" x="0px" y="0px"
	 viewBox="0 0 50 50" style="enable-background:new 0 0 50 50;" xml:space="preserve">
<style type="text/css">
	.st0{fill:#00DFFC;}
	.st1{fill:#00C8E2;}
	.st2{fill:none;stroke:#444444;stroke-width:2.5;stroke-miterlimit:10;}
	.st3{fill:none;stroke:#444444;stroke-width:0.5;stroke-linecap:round;stroke-linejoin:round;stroke-miterlimit:10;}
	.st4{fill:none;stroke:#444444;stroke-width:2.5;stroke-linecap:round;stroke-linejoin:round;stroke-miterlimit:10;}
	.st5{fill:none;stroke:#444444;stroke-linecap:round;stroke-linejoin:round;stroke-miterlimit:10;}
</style>
<g>
	<g>
		<g>
			<path class="st0" d="M42.06,5.23c-1.32-0.16-1.92,2.28-3.3,2.28s-8.37-3.4-9.69-3.24c-2.39,0.31-6.13,8.19-8.19,8.67
				c-3.11,0.73-7.79-0.41-11.91-4.14c-3.12,2.71-4.47,2.37-7.25,5.87c-0.89,1.12,3.24,1.56,2.9,3.31l-0.71,5.68L45.17,8.99
				l-0.74-1.57C44.01,6.79,43.23,5.8,42.06,5.23z"/>
			<path class="st1" d="M45.17,8.99L4.68,22.26c-0.26,1.34-0.5,0.72-0.5,2.14c0,6.73,1.31,7.77,3.83,10.79l8.05,6.56l29.69-10.56
				l0.17-2.77c0.26-1.34-0.17-11.95-0.17-13.36C47.79,12.49,49.96,12.98,45.17,8.99z"/>
		</g>
		<path class="st2" d="M20.8,44.08c0,0-22.78-8.52-15.48-26.37"/>
		<path class="st3" d="M6.32,12.38l1.48-2.7c0.3-0.55,1.1-0.55,1.4,0l1.48,2.7c0.07,0.13,0.18,0.24,0.32,0.32l2.7,1.48
			c0.55,0.3,0.55,1.1,0,1.4l-2.7,1.48c-0.13,0.07-0.24,0.18-0.32,0.32l-1.48,2.7c-0.3,0.55-1.1,0.55-1.4,0l-1.48-2.7
			C6.25,17.24,6.14,17.13,6,17.06l-2.7-1.48c-0.55-0.3-0.55-1.1,0-1.4L6,12.7C6.14,12.63,6.25,12.52,6.32,12.38z"/>
		<path class="st3" d="M39.51,9.46l1.48-2.7c0.3-0.55,1.1-0.55,1.4,0l1.48,2.7c0.07,0.13,0.18,0.24,0.32,0.32l2.7,1.48
			c0.55,0.3,0.55,1.1,0,1.4l-2.7,1.48c-0.13,0.07-0.24,0.18-0.32,0.32l-1.48,2.7c-0.3,0.55-1.1,0.55-1.4,0l-1.48-2.7
			c-0.07-0.13-0.18-0.24-0.32-0.32l-2.7-1.48c-0.55-0.3-0.55-1.1,0-1.4l2.7-1.48C39.33,9.71,39.44,9.6,39.51,9.46z"/>
		<path class="st4" d="M5.23,17.95L5.23,17.95c-8.59-3.66,0.05-6.15,0.05-6.15l0,0l1.47-2.53c2.58-3.89,4.89,2.56,4.89,2.56l0,0
			c0,0,9.52,5.38,12.42-1.66s10.25-7.84,14.55-1.22l1.27-2.52c0,0,0.59-1.26,1.72-1.26c1.13,0,1.7,1.08,1.7,1.08l1.34,2.44
			l2.67,1.52c0,0,1.27,0.86,1.27,2.04s-3.71,2.81-3.71,2.81"/>
		<path class="st4" d="M44.87,15.05c0,0,0.18,0.37,0.85,9.08c0.37,4.79-1.71,10.32-1.71,10.32"/>
		<path class="st4" d="M32.72,44.35c0,0,3.53-1.33,5.81-2.88"/>
		<g>
			<path class="st5" d="M35.57,35.33l0.14-0.73V24.2c0-1.13-0.93-2.06-2.06-2.06c-1.02,0-1.87,0.76-2.03,1.74v-1.85
				c0-1.13-0.93-2.06-2.06-2.06s-2.06,0.93-2.06,2.06V20.7c0-1.13-0.93-2.06-2.06-2.06c-1.13,0-2.06,0.93-2.06,2.06v2.16
				c0-1.13-0.93-2.06-2.06-2.06c-1.13,0-2.06,0.93-2.06,2.06v9.99l-1.45-1.92c-0.68-0.9-1.98-1.08-2.88-0.4
				c-0.9,0.68-1.08,1.98-0.4,2.88l6.28,8.31v3.37"/>
			<path class="st5" d="M35.03,37.18c0.37-1.07,0.54-1.85,0.54-1.85L35.03,37.18z"/>
			<path class="st5" d="M35.03,37.18c-0.46,1.35-2,2.91-3.15,4.26v3.4v0.25l0.77,0.25c0.72,0.44,1.16,1.3,0.94,2.24
				c-0.22,0.96-1.16,1.58-2.14,1.58l-10.13,0c-0.97,0-1.87-0.62-2.09-1.56c-0.29-1.2,0.5-2.29,1.59-2.52h6.68"/>
		</g>
		<line class="st5" x1="23.38" y1="22.86" x2="23.38" y2="29.62"/>
		<line class="st5" x1="27.5" y1="22.03" x2="27.5" y2="29.62"/>
		<line class="st5" x1="31.62" y1="23.87" x2="31.62" y2="29.62"/>
		<line class="st5" x1="30.51" y1="45.09" x2="31.88" y2="45.09"/>
	</g>
	<line class="st3" x1="8.74" y1="24.98" x2="13.23" y2="20.49"/>
	<line class="st3" x1="8.74" y1="28.49" x2="13.23" y2="24"/>
	<line class="st3" x1="10.98" y1="29.56" x2="17.24" y2="23.3"/>
	<line class="st3" x1="35.7" y1="25.32" x2="40.2" y2="20.83"/>
	<line class="st3" x1="35.7" y1="28.68" x2="40.2" y2="24.18"/>
</g>
</svg>
