<?xml version="1.0" encoding="utf-8"?>
<!-- Generator: Adobe Illustrator 27.3.1, SVG Export Plug-In . SVG Version: 6.00 Build 0)  -->
<svg version="1.1" id="Camada_3" xmlns="http://www.w3.org/2000/svg" xmlns:xlink="http://www.w3.org/1999/xlink" x="0px" y="0px"
	 viewBox="0 0 50 50" style="enable-background:new 0 0 50 50;" xml:space="preserve">
<style type="text/css">
	.st0{fill:#FDCF72;}
	.st1{fill:#FCC34F;}
	.st2{fill:none;stroke:#444444;stroke-linecap:round;stroke-linejoin:round;stroke-miterlimit:10;}
	.st3{fill:none;stroke:#444444;stroke-width:0.5;stroke-linecap:round;stroke-linejoin:round;stroke-miterlimit:10;}
	.st4{fill:none;stroke:#444444;stroke-width:2.5;stroke-linecap:round;stroke-linejoin:round;stroke-miterlimit:10;}
	.st5{fill:none;stroke:#444444;stroke-width:0.5;stroke-miterlimit:10;}
	.st6{fill:#444444;}
</style>
<g>
	<g>
		<path class="st0" d="M29.22,7.01l-2.75,0.88c-1.18,0-23.86,9.32-23.86,10.51L1.75,26.7l39.33-13.19v-0.19
			C41.08,12.15,30.41,7.01,29.22,7.01z"/>
		<polygon class="st1" points="1.32,26.92 10.78,33.79 10.4,38.98 47.96,25.62 48.68,21.53 47.89,16.44 41.55,12.6 		"/>
	</g>
	<g>
		<g>
			<path class="st2" d="M11.97,33.21l-7.31-4.02c-1.31-0.72-2.1-2.12-2.04-3.62l0.16-4c0.06-1.5,0.96-2.83,2.32-3.45l21.69-9.8
				c1.42-0.64,3.05-0.58,4.41,0.17l15.66,8.62c1.43,0.79,1.34,2.86-0.14,3.53l-21.69,9.8c-0.55,0.25-1.19,0.23-1.73-0.05L6.45,21.64
				c-0.64-0.34-1.42,0.11-1.44,0.84l-0.12,3.14c0,0,0.04,1.36,1.04,1.92c1.38,0.93,6.05,3.42,6.05,3.42"/>
			<path class="st2" d="M18.36,36.73l4.58,2.52c0.54,0.3,1.2,0.33,1.77,0.07l15.34-6.43"/>
			<path class="st2" d="M46.3,21.04l-0.17,4.34c0,0,0.07,1.32-1.36,2.24c-1.46,0.93-3.82,1.95-3.82,1.95s-14.19,6.35-15.69,6.8
				c-1.5,0.44-2.65-0.18-2.65-0.18l-4.14-2.21"/>
			<polygon class="st3" points="17.78,42.28 14.95,38.68 11.97,39.03 12.36,29.16 18.17,32.41 			"/>
		</g>
		<path class="st4" d="M46.79,29.87c3.44-1.84,0.62-4.59,0.62-4.59l0.03-3.69c1.33-1.24,1.38-2.5,1.1-3.45
			c-0.26-0.88-0.9-1.59-1.71-2.03c-3.01-1.65-13.41-7.35-15.31-8.41c-1.11-0.62-2.37-0.73-3.36-0.69c-0.89,0.04-1.75,0.27-2.56,0.64
			c-3.91,1.75-19.7,8.8-21.67,9.7c-2.26,1.02-2.27,3.91-2.27,3.91v3.29c-0.03,0.7,0.02,1.31,0.13,1.85c0.3,1.48,1.28,2.72,2.59,3.45
			l6.79,3.76l-0.22,5.26c-0.03,0.66,0.52,1.2,1.18,1.16l2.39-0.13l2.14,2.65c0.65,0.8,1.94,0.42,2.05-0.61l0.41-3.89l2.89,1.72
			c0,0,1.18,1.22,4.47-0.29s13.83-5.96,13.83-5.96"/>
		<line class="st5" x1="18.12" y1="33.49" x2="19.2" y2="34.09"/>
		<line class="st5" x1="11.16" y1="30.79" x2="12.24" y2="31.39"/>
		<line class="st5" x1="17.93" y1="36.22" x2="19" y2="36.82"/>
		<polygon class="st6" points="6.96,22.2 5.43,21.22 32.36,9.2 33.82,9.94 35.17,10.93 8.63,22.77 		"/>
		<polygon class="st6" points="33.74,15.75 30.73,14.11 36.17,11.68 39.33,13.25 		"/>
		<polygon class="st6" points="20.91,21.53 18.02,19.84 24.77,16.83 27.59,18.49 20.91,21.53 		"/>
		<polygon class="st6" points="29.44,17.66 26.48,16.01 28.96,14.9 31.96,16.54 		"/>
		<polygon class="st6" points="17.11,23.38 14.15,21.73 16.64,20.62 19.64,22.26 		"/>
		<polygon class="st6" points="13.02,25.27 10.06,23.61 12.55,22.5 15.55,24.15 		"/>
		<polygon class="st6" points="16.54,26.96 15.02,25.98 41.95,13.96 43.4,14.7 44.76,15.69 18.21,27.54 		"/>
		<polygon class="st6" points="43.32,20.51 40.31,18.87 45.76,16.44 47.97,18.44 		"/>
		<polygon class="st6" points="30.5,26.3 27.6,24.6 34.35,21.59 37.17,23.26 30.5,26.3 		"/>
		<polygon class="st6" points="39.03,22.43 36.06,20.77 38.55,19.66 41.55,21.3 		"/>
		<polygon class="st6" points="26.7,28.15 23.73,26.49 26.22,25.38 29.22,27.02 		"/>
		<polygon class="st6" points="22.61,30.04 19.65,28.38 22.13,27.27 25.13,28.91 		"/>
	</g>
</g>
</svg>
