<?xml version="1.0" encoding="utf-8"?>
<!-- Generator: Adobe Illustrator 22.1.0, SVG Export Plug-In . SVG Version: 6.00 Build 0)  -->
<svg version="1.1" id="Layer_1" xmlns="http://www.w3.org/2000/svg" xmlns:xlink="http://www.w3.org/1999/xlink" x="0px" y="0px"
	 viewBox="0 0 50 50" style="enable-background:new 0 0 50 50;" xml:space="preserve">
<style type="text/css">
	.st0{fill:#00C8E2;}
	.st1{fill:#00DFFC;}
	.st2{fill:#444444;}
</style>
<g>
	<g>
		<polygon class="st0" points="36.2,28.8 7.3,39.3 5.1,30.4 39.1,18.2 34.2,24.3 		"/>
	</g>
	<g>
		<polygon class="st1" points="39.1,18.2 6.2,30.4 9.4,22.3 18.7,17.9 26.1,18.2 30.8,13.9 34.8,13.1 		"/>
	</g>
	<g>
		<g>
			<path class="st2" d="M11,46.1c-0.3,0-0.6-0.1-0.8-0.3c-3.7-3.3-5.8-7.9-5.8-12.7c0-9.3,7.6-16.9,16.9-16.9S38,23.8,38,33.1
				c0,0.7-0.6,1.2-1.2,1.2s-1.2-0.6-1.2-1.2c0-7.9-6.4-14.4-14.3-14.4S6.9,25.1,6.9,33.1c0,4.1,1.8,8.1,5,10.9
				c0.5,0.5,0.6,1.2,0.1,1.8C11.7,46,11.3,46.1,11,46.1z"/>
		</g>
		<g>
			<path class="st2" d="M33.8,24.4c-0.6,0-1.2-0.5-1.2-1.1c-0.1-0.7,0.4-1.3,1.1-1.4c2-0.2,3.5-2,3.3-4s-2-3.5-4-3.3
				c-1,0.1-1.9,0.6-2.5,1.4c-0.6,0.8-0.9,1.7-0.8,2.7c0.1,0.7-0.4,1.3-1.1,1.4s-1.3-0.4-1.4-1.1c-0.2-1.6,0.3-3.2,1.4-4.5
				c1-1.3,2.5-2.1,4.2-2.2c3.4-0.4,6.4,2.1,6.8,5.5c0.4,3.4-2.1,6.4-5.5,6.8C33.9,24.3,33.8,24.4,33.8,24.4z"/>
		</g>
		<g>
			<path class="st2" d="M8.2,24.6H8.1c-3.4-0.4-5.8-3.4-5.5-6.8c0.1-1.6,0.9-3.1,2.2-4.2s2.9-1.5,4.5-1.4c3.4,0.4,5.9,3.4,5.5,6.8
				c-0.1,0.7-0.7,1.2-1.4,1.1s-1.2-0.7-1.1-1.4c0.2-2-1.3-3.8-3.3-4c-1-0.1-1.9,0.2-2.6,0.8C5.6,16.2,5.1,17,5,18
				c-0.2,2.1,1.3,3.8,3.3,4.1c0.7,0.1,1.2,0.7,1.1,1.4C9.4,24.1,8.8,24.6,8.2,24.6z"/>
		</g>
		<g>
			<path class="st2" d="M21.2,49.4c-5.2,0-9.5-4.2-9.5-9.5c0-5.2,4.2-9.4,9.5-9.4s9.5,4.2,9.5,9.4C30.7,45.2,26.4,49.4,21.2,49.4z
				 M21.2,32.1c-4.4,0-8,3.6-8,7.9c0,4.4,3.6,8,8,8s8-3.6,8-8S25.6,32.1,21.2,32.1z"/>
		</g>
		<g>
			<g>
				<path class="st2" d="M21.2,40.6c-2.3,0-4.6-0.8-4.6-2.4c0-3.1,9.1-3.1,9.1,0C25.8,39.7,23.5,40.6,21.2,40.6z M21.2,37.4
					c-1.9,0-3,0.6-3.1,0.9c0.1,0.2,1.1,0.8,3.1,0.8s3-0.6,3.1-0.9C24.2,38,23.1,37.4,21.2,37.4z"/>
			</g>
			<g>
				<g>
					<path class="st2" d="M18.4,44c-0.8,0-1.7-0.1-2.8-0.5c-0.4-0.1-0.6-0.5-0.5-0.9s0.5-0.6,0.9-0.5c2.3,0.7,3.3,0.4,4.6-0.1
						c0.4-0.1,0.8,0.1,1,0.5c0.1,0.4-0.1,0.8-0.5,1C20.4,43.7,19.6,44,18.4,44z"/>
				</g>
				<g>
					<path class="st2" d="M23.9,44c-0.8,0-1.7-0.1-2.8-0.5c-0.4-0.1-0.6-0.5-0.5-0.9s0.5-0.6,0.9-0.5c2.3,0.7,3.3,0.4,4.6-0.1
						c0.4-0.1,0.8,0.1,1,0.5c0.1,0.4-0.1,0.8-0.5,1C25.9,43.7,25.1,44,23.9,44z"/>
				</g>
				<g>
					<path class="st2" d="M21.1,43.4c-0.4,0-0.8-0.3-0.8-0.8v-2.4c0-0.4,0.3-0.8,0.8-0.8s0.8,0.3,0.8,0.8v2.4
						C21.9,43,21.5,43.4,21.1,43.4z"/>
				</g>
			</g>
		</g>
	</g>
</g>
<g>
	<path class="st2" d="M27.7,26.4H14.5c-0.4,0-0.8-0.3-0.8-0.8s0.3-0.8,0.8-0.8h12.6l14-14.9l4-7.6c0.2-0.4,0.6-0.5,1-0.3
		s0.5,0.6,0.3,1l-4.2,8L27.7,26.4z"/>
</g>
<g>
	<circle class="st2" cx="45.9" cy="2.4" r="2.3"/>
</g>
<g>
	<g>
		<circle class="st2" cx="27.3" cy="25.5" r="2.3"/>
	</g>
	<g>
		<circle class="st2" cx="14.4" cy="25.5" r="2.3"/>
	</g>
</g>
<g>
	<circle class="st2" cx="41.5" cy="10.2" r="2.3"/>
</g>
</svg>
