<?xml version="1.0" encoding="utf-8"?>
<!-- Generator: Adobe Illustrator 27.3.1, SVG Export Plug-In . SVG Version: 6.00 Build 0)  -->
<svg version="1.1" id="Camada_3" xmlns="http://www.w3.org/2000/svg" xmlns:xlink="http://www.w3.org/1999/xlink" x="0px" y="0px"
	 viewBox="0 0 50 50" style="enable-background:new 0 0 50 50;" xml:space="preserve">
<style type="text/css">
	.st0{fill:#FDCF72;}
	.st1{fill:#FCC34F;}
	.st2{fill:none;stroke:#444444;stroke-width:2.5;stroke-linecap:round;stroke-linejoin:round;stroke-miterlimit:10;}
	.st3{fill:none;stroke:#444444;stroke-width:0.5;stroke-linecap:round;stroke-linejoin:round;stroke-miterlimit:10;}
	.st4{fill:none;stroke:#444444;stroke-linecap:round;stroke-linejoin:round;stroke-miterlimit:10;}
	.st5{fill:#444444;}
	.st6{fill:none;stroke:#444444;stroke-miterlimit:10;}
</style>
<g>
	<path class="st0" d="M46,2.6H4.28c-1.12,0-2.03,0.91-2.03,2.03v16.47L48.03,4.8V4.63C48.03,3.5,47.13,2.6,46,2.6z"/>
	<polygon class="st1" points="2.25,21.09 2.25,45.78 48.03,29.5 48.03,4.8 	"/>
</g>
<g>
	<g>
		<g>
			<path class="st2" d="M25.2,48H5.73c-1.87,0-3.39-1.58-3.39-3.54V5.55C2.34,3.6,3.86,2,5.73,2h39.01c1.87,0,3.39,1.58,3.39,3.54
				v25.89"/>
			<path class="st2" d="M2.34,15.55"/>
			<path class="st2" d="M48.12,15.55"/>
		</g>
	</g>
</g>
<g>
	<line class="st3" x1="25.19" y1="34.36" x2="25.19" y2="37.2"/>
	<line class="st3" x1="27.32" y1="39.33" x2="33" y2="39.33"/>
	<line class="st3" x1="23.06" y1="39.33" x2="17.38" y2="39.33"/>
	<circle class="st4" cx="25.19" cy="39.33" r="2.13"/>
	<circle class="st4" cx="35.13" cy="39.33" r="2.13"/>
	<circle class="st4" cx="15.25" cy="39.33" r="2.13"/>
	<path class="st4" d="M29.79,10.18l-2.45,2.45c-0.28,0.28-0.66,0.44-1.05,0.44H10.97c-0.82,0-1.49,0.67-1.49,1.49v17.77
		c0,0.82,0.67,1.49,1.49,1.49h28.56c0.82,0,1.49-0.67,1.49-1.49V11.23c0-0.82-0.67-1.49-1.49-1.49h-8.68
		C30.45,9.74,30.07,9.9,29.79,10.18z"/>
	<rect x="14.96" y="12.92" class="st5" width="3.55" height="1.3"/>
	<rect x="14.96" y="31.63" class="st5" width="3.55" height="2.36"/>
	<rect x="9.48" y="13.47" class="st5" width="2.77" height="7.24"/>
	<polygon class="st5" points="11.05,33.91 9.48,33.04 9.48,32.55 9.48,29.21 12.25,29.21 12.25,33.99 	"/>
	<rect x="9.48" y="23.23" class="st5" width="2.77" height="3.55"/>
	<g>
		<path class="st5" d="M29.92,10.35l-0.4,0.45l-3.23,2.26l0.02,3.33c1.38,0.2,2.62,0.81,3.61,1.7V10.35z"/>
		<path class="st5" d="M29.92,29.95v-1.59c-0.84,0.76-1.88,1.32-3.02,1.59H29.92z"/>
		<path class="st5" d="M18.4,22.71h-3.44v7.24l3.55,0v-5.39c-0.08-0.43-0.13-0.88-0.13-1.34C18.37,23.05,18.38,22.88,18.4,22.71z"/>
		<rect x="14.96" y="16.73" class="st5" width="3.55" height="3.55"/>
		<path class="st5" d="M24.34,13.47h-3.55v4.5c0.98-0.84,2.2-1.41,3.55-1.59V13.47z"/>
		<path class="st5" d="M20.79,29.21v4.6h0.57l1.78,0.1l1.2,0.08v-3.92c-0.91-0.12-1.75-0.42-2.51-0.86H20.79z"/>
		<path class="st5" d="M32.24,13.47l-0.1,8.79c0.04,0.31,0.07,0.63,0.07,0.96c0,0.38-0.04,0.75-0.1,1.12L32,33.97l3.79-0.3v-20.2
			H32.24z"/>
	</g>
	<rect x="38.33" y="11.11" class="st5" width="2.69" height="3.1"/>
	<path class="st5" d="M39.53,33.97h-1.19l0-2.34l2.69,0l0,0.85C41.02,33.3,40.35,33.97,39.53,33.97z"/>
	<rect x="38.33" y="22.71" class="st5" width="2.69" height="7.24"/>
	<rect x="38.33" y="16.73" class="st5" width="2.69" height="3.55"/>
	<rect x="32.12" y="9.58" class="st5" width="3.55" height="2.43"/>
	<rect x="26.37" y="31.41" class="st5" width="3.55" height="2.4"/>
	<polyline class="st3" points="24.09,18.58 24.09,23.99 21.68,23.99 25.29,28.2 28.9,23.99 26.49,23.99 26.49,18.58 	"/>
	<circle class="st6" cx="25.29" cy="23.39" r="6.92"/>
</g>
</svg>
