<svg xmlns="http://www.w3.org/2000/svg" version="1" viewBox="0 0 50 50"><path fill="#46B8B0" d="M46.404 23.437C45.672 12.175 36.31 3.265 24.861 3.265c-11.926 0-21.596 9.67-21.596 21.596 0 4.773 1.553 9.184 4.175 12.758l38.964-14.182z"/><path fill="#4ECDC4" d="M37.865 7.577A21.486 21.486 0 0 0 24.92 3.265c-10.233 0-18.798 7.121-21.026 16.676L37.867 7.579l-.002-.002z"/><g fill="#031326"><path d="M41.106 8.884C32.223 0 17.768 0 8.883 8.884 0 17.767 0 32.222 8.883 41.105a22.637 22.637 0 0 0 16.112 6.674 1.055 1.055 0 1 0 0-2.11 20.542 20.542 0 0 1-14.62-6.056c-8.06-8.061-8.06-21.177 0-29.238 8.062-8.06 21.178-8.059 29.238 0a20.542 20.542 0 0 1 6.056 14.617 1.054 1.054 0 1 0 2.11 0c0-6.085-2.37-11.806-6.673-16.108z"/><path d="M35.165 38.275l-1.454-2.002a.421.421 0 1 0-.682.496l1.345 1.851a16.468 16.468 0 0 1-8.956 2.941v-2.319a.422.422 0 0 0-.844 0v2.315a16.431 16.431 0 0 1-8.967-2.923l1.355-1.865a.42.42 0 1 0-.682-.496l-1.344 1.849a16.763 16.763 0 0 1-1.644-1.424 16.43 16.43 0 0 1-3.883-6.195l2.166-.704a.422.422 0 0 0-.261-.803l-2.184.71a16.67 16.67 0 0 1 0-9.422l2.184.71a.42.42 0 0 0 .531-.271.422.422 0 0 0-.271-.532l-2.166-.704a16.41 16.41 0 0 1 3.883-6.195c.52-.521 1.075-.986 1.644-1.424l1.344 1.849a.419.419 0 0 0 .589.093.421.421 0 0 0 .093-.589l-1.353-1.862a16.473 16.473 0 0 1 8.964-2.915v2.305a.422.422 0 0 0 .844 0V8.442a16.464 16.464 0 0 1 8.959 2.923l-1.348 1.855a.42.42 0 1 0 .682.496l1.719-2.366c.004-.006.011-.008.015-.014a.633.633 0 0 0-.149-.882 17.758 17.758 0 0 0-22.9 1.943c-6.947 6.947-6.947 18.251 0 25.198 3.474 3.474 8.018 5.251 12.594 5.251 3.649 0 7.371-1.06 10.48-3.433.438-.335-.303-1.138-.303-1.138z"/><path d="M32.967 15.898l-1.803 1.189a.622.622 0 0 0-.23-.351c-4.085-2.977-9.646-2.539-13.224 1.039a10.143 10.143 0 0 0-2.991 7.223.633.633 0 0 0 1.266 0 8.884 8.884 0 0 1 2.62-6.327 8.894 8.894 0 0 1 11.562-.926l-4.596 3.031a4.254 4.254 0 0 0-3.599 1.196 4.274 4.274 0 0 0 6.044 6.044 4.254 4.254 0 0 0 1.197-3.599l4.878-7.396c.487-.736-.387-1.609-1.124-1.123zm8.501 14.006l-2.792-.908a.422.422 0 0 0-.261.803l2.792.908a.42.42 0 0 0 .531-.271.422.422 0 0 0-.27-.532zm-.261-10.621l-2.792.907a.422.422 0 0 0 .26.803l2.792-.907a.422.422 0 0 0-.26-.803z"/></g></svg>