<?xml version="1.0" encoding="utf-8"?>
<!-- Generator: Adobe Illustrator 22.1.0, SVG Export Plug-In . SVG Version: 6.00 Build 0)  -->
<svg version="1.1" id="Layer_1" xmlns="http://www.w3.org/2000/svg" xmlns:xlink="http://www.w3.org/1999/xlink" x="0px" y="0px"
	 viewBox="0 0 50 50" style="enable-background:new 0 0 50 50;" xml:space="preserve">
<style type="text/css">
	.st0{fill:none;stroke:#FDCF72;stroke-miterlimit:10;}
	.st1{fill:#FFB969;}
	.st2{fill:#FFC787;}
	.st3{fill:#444444;}
</style>
<g>
	<g>
		<path class="st0" d="M29.6,41.9"/>
	</g>
	<g>
		<polygon class="st1" points="41.9,27.4 10.5,40.6 8.4,36.4 8.2,23.8 33.7,14.5 41.3,23.6 		"/>
	</g>
	<g>
		<polygon class="st2" points="33.7,14.5 9.1,23.6 13.7,17.2 20.4,13.6 14.8,7.6 15.8,3 20.9,1.6 		"/>
	</g>
	<g>
		<path class="st3" d="M25.1,49.6c-10.4,0-18.9-8.5-18.9-18.9c0-7.8,4.8-14.7,11.9-17.6l-3-2.8c-0.1,0-0.1-0.1-0.1-0.2
			c-1-1-1.5-2.4-1.5-3.8c0-3.1,2.5-5.5,5.5-5.5c1.3,0,2.6,0.5,3.6,1.4c0.1,0,0.1,0.1,0.2,0.1l15.6,14.9c0,0,0.1,0.1,0.1,0.2
			c2.8,2.8,4.7,6.4,5.3,10.4c0.1,0.7-0.4,1.3-1,1.4c-0.7,0.1-1.3-0.4-1.4-1c-0.6-3.5-2.2-6.6-4.7-9.1c0,0-0.1-0.1-0.1-0.1L21.2,4.3
			c-0.1,0-0.1-0.1-0.2-0.1c-0.6-0.5-1.3-0.8-2.1-0.8c-1.7,0-3,1.4-3,3c0,0.8,0.3,1.6,0.9,2.2c0,0,0.1,0.1,0.1,0.1l4.4,4.1
			c0.3,0.3,0.5,0.8,0.4,1.2c-0.1,0.4-0.4,0.8-0.9,0.9c-7.1,1.9-12.1,8.5-12.1,15.8c0,9.1,7.4,16.4,16.4,16.4c0.7,0,1.3,0.6,1.3,1.2
			S25.8,49.6,25.1,49.6z"/>
	</g>
	<g>
		<path class="st3" d="M31,31.5c0.2-0.3,0.4-0.6,0.4-1l0-0.2c0-0.3-0.2-0.5-0.3-0.7c0,0,0,0,0,0l-5.5-5.5l0,0
			c-0.3-0.3-0.7-0.5-1.2-0.5c-0.9,0-1.7,0.7-1.7,1.6c0,0.4,0.2,0.8,0.5,1.1l0,0l0,0c0,0,0,0,0.1,0.1l2.6,2.6h0c-1.8,0-3.7,0-5.5,0
			l0,0c0,0,0,0,0,0c-0.8,0-1.5,0.7-1.5,1.5c0,0.8,0.7,1.5,1.5,1.5c0,0,0,0,0,0v0h5.6l-2.7,2.7l0,0c-0.3,0.3-0.5,0.7-0.5,1.2
			c0,0.9,0.7,1.7,1.7,1.7c0.5,0,0.9-0.2,1.2-0.5l0,0l5.4-5.4C30.9,31.6,30.9,31.6,31,31.5L31,31.5C31,31.5,31,31.5,31,31.5z"/>
	</g>
</g>
</svg>
