<?xml version="1.0" encoding="utf-8"?>
<!-- Generator: Adobe Illustrator 28.0.0, SVG Export Plug-In . SVG Version: 6.00 Build 0)  -->
<svg version="1.1" id="Layer_1" xmlns="http://www.w3.org/2000/svg" xmlns:xlink="http://www.w3.org/1999/xlink" x="0px" y="0px"
	 viewBox="0 0 50 50" style="enable-background:new 0 0 50 50;" xml:space="preserve">
<style type="text/css">
	.st0{fill:#04AD49;}
	.st1{fill:#46B8B0;}
	.st2{fill:#22DD6D;}
	.st3{fill:none;stroke:#444444;stroke-width:2.5;stroke-linecap:round;stroke-linejoin:round;stroke-miterlimit:10;}
	.st4{fill:none;stroke:#444444;stroke-linecap:round;stroke-linejoin:round;stroke-miterlimit:10;}
	.st5{fill:none;stroke:#444444;stroke-width:0.5;stroke-linecap:round;stroke-linejoin:round;stroke-miterlimit:10;}
</style>
<polygon class="st0" points="27.5,21.2 35.3,23.7 28.6,28.4 28.7,36.6 22.2,31.7 14.4,34.3 17,26.6 12.1,20 20.3,20.1 25.1,13.4 "/>
<path class="st1" d="M48.4,7.9l0.2-2.6c0.2-1.9-1.3-3.6-3.3-3.6L6,1.5c-1.8,0-3.3,1.5-3.3,3.3v13.8v2.9l-0.1,6.4l0.1,0v3.6L2.4,43.7
	c0,1.9,1.5,3.4,3.3,3.4l18-0.2c0.4,0,0.8-0.1,1.1-0.2l21.4-8c1.3-0.5,2.1-1.7,2.1-3.1V23.3l0.1-9.2l0.5-0.1l-0.5-5.4
	C48.4,8.4,48.4,8.1,48.4,7.9z"/>
<path class="st2" d="M48.4,7.9l0.2-2.6c0.2-1.9-1.3-3.6-3.3-3.6L6,1.5c-1.8,0-3.3,1.5-3.3,3.3v13.8v2.9l-0.1,6.4l0.1,0v3.6L2.4,43.7
	c0,1.9,1.5,3.4,3.3,3.4l18-0.2c0.4,0,0.8-0.1,1.1-0.2l21.4-8c1.3-0.5,2.1-1.7,2.1-3.1V23.3l0.1-9.2l0.5-0.1l-0.5-5.4
	C48.4,8.4,48.4,8.1,48.4,7.9z"/>
<path class="st3" d="M32.4,47.8h-27c-1.9,0-3.4-1.6-3.4-3.5V5.3c0-1.9,1.5-3.5,3.4-3.5h39c1.9,0,3.4,1.6,3.4,3.5v32.5"/>
<g id="loyalty_program_x2F_bouns_1_">
	<g id="_x3C_Grupo_x3E__21_">
		<g>
			<line class="st4" x1="26.4" y1="14.7" x2="17.9" y2="14.7"/>
			<polyline class="st4" points="36.2,21.7 35.9,14.7 29.6,14.7 			"/>
			<path class="st4" d="M14.7,14.7h-3.2l-1.1,23.8c0,1.2,0.9,2.1,2.1,2.1h12.7"/>
		</g>
		<g>
			<path class="st4" d="M17.9,18.4v-4.8c0-3.2,2.6-5.8,5.8-5.8s5.8,2.6,5.8,5.8v4.8"/>
			<circle class="st4" cx="29.6" cy="19" r="0.5"/>
			<circle class="st4" cx="17.9" cy="19" r="0.5"/>
		</g>
	</g>
</g>
<g>
	<path class="st5" d="M36.9,38.2h-9.7c-0.6,0-1.2-0.5-1.2-1.2v-9.7c0-0.6,0.5-1.2,1.2-1.2h9.7c0.6,0,1.2,0.5,1.2,1.2V37
		C38.1,37.6,37.6,38.2,36.9,38.2z"/>
	<g>
		<line class="st5" x1="28.4" y1="23.7" x2="28.4" y2="25.6"/>
		<line class="st5" x1="30.9" y1="23.7" x2="30.9" y2="25.6"/>
		<line class="st5" x1="33.4" y1="23.7" x2="33.4" y2="25.6"/>
		<line class="st5" x1="35.9" y1="23.7" x2="35.9" y2="25.6"/>
	</g>
	<g>
		<line class="st5" x1="28.4" y1="38.7" x2="28.4" y2="40.5"/>
		<line class="st5" x1="30.9" y1="38.7" x2="30.9" y2="40.5"/>
		<line class="st5" x1="33.4" y1="38.7" x2="33.4" y2="40.5"/>
		<line class="st5" x1="35.9" y1="38.7" x2="35.9" y2="40.5"/>
	</g>
	<g>
		<line class="st5" x1="23.7" y1="35.9" x2="25.6" y2="35.9"/>
		<line class="st5" x1="23.7" y1="33.4" x2="25.6" y2="33.4"/>
		<line class="st5" x1="23.7" y1="30.9" x2="25.6" y2="30.9"/>
		<line class="st5" x1="23.7" y1="28.3" x2="25.6" y2="28.3"/>
	</g>
	<g>
		<line class="st5" x1="38.7" y1="35.9" x2="40.5" y2="35.9"/>
		<line class="st5" x1="38.7" y1="33.4" x2="40.5" y2="33.4"/>
		<line class="st5" x1="38.7" y1="30.9" x2="40.5" y2="30.9"/>
		<line class="st5" x1="38.7" y1="28.3" x2="40.5" y2="28.3"/>
	</g>
	<g>
		<line class="st5" x1="28.7" y1="29.5" x2="28.7" y2="35"/>
		<polyline class="st5" points="30.3,35 31.1,33 32.7,29.2 33.4,29.2 35.5,35 		"/>
		<line class="st5" x1="34.8" y1="33" x2="31.2" y2="33"/>
	</g>
</g>
</svg>
