<?xml version="1.0" encoding="utf-8"?>
<!-- Generator: Adobe Illustrator 28.0.0, SVG Export Plug-In . SVG Version: 6.00 Build 0)  -->
<svg version="1.1" id="Layer_1" xmlns="http://www.w3.org/2000/svg" xmlns:xlink="http://www.w3.org/1999/xlink" x="0px" y="0px"
	 viewBox="0 0 50 50" style="enable-background:new 0 0 50 50;" xml:space="preserve">
<style type="text/css">
	.st0{fill:#46B8B0;}
	.st1{fill:none;stroke:#444444;stroke-width:2.5;stroke-linecap:round;stroke-linejoin:round;}
	.st2{fill:none;stroke:#444444;stroke-linecap:round;stroke-linejoin:round;}
	.st3{fill:none;stroke:#444444;stroke-width:0.5;stroke-linecap:round;stroke-linejoin:round;}
</style>
<path class="st0" d="M43.7,17v-2.6l0.7-2.4l-1.3-1.7c-3.2,0-39.5-2.3-39.5,0.9v27.3l13.8,1.1c0.6,0.6,0.2,3.7-0.6,4
	c-1.5,0.4-4.9,1.2-4.9,1.3l1.4,3.8L29.5,43l-0.9-3.8L39,39.6l5.4-1.9C45.1,37.3,44.7,19,43.7,17z"/>
<g>
	<path class="st1" d="M32.7,44h-3.5c-0.2-0.7-0.6-4.5-0.6-4.5l13.8-0.2c0.9,0,1.6-0.7,1.6-1.6V11.5c0-0.9-0.7-1.6-1.6-1.6H5
		c-0.9,0-1.6,0.7-1.6,1.6v26.2c0,0.9,0.7,1.6,1.6,1.6l12.6,0.2c0,0-0.4,3.8-0.6,4.5h-3.6c-1.1,0-1.9,0.9-1.9,1.9l0,0
		c0,1.1,0.9,1.9,1.9,1.9h14.5"/>
	<path class="st1" d="M34.6,45.9"/>
</g>
<line class="st2" x1="16.9" y1="38.7" x2="29" y2="38.7"/>
<line class="st2" x1="12.3" y1="44.7" x2="33.2" y2="44.7"/>
<g>
	<polyline class="st3" points="8.4,19.8 8.4,15.9 7.4,15.9 	"/>
	<polyline class="st3" points="17,19.8 17,15.9 16,15.9 	"/>
	<path class="st3" d="M10.3,23.3v2.5c-0.4,0.4-0.9,0.7-1.4,0.7s-1.1-0.3-1.5-0.7v-2.5c0.4-0.4,0.9-0.7,1.4-0.7S10,22.9,10.3,23.3z"
		/>
	<path class="st3" d="M18.9,23.3v2.5c-0.4,0.4-0.9,0.7-1.4,0.7s-1.1-0.3-1.4-0.7v-2.5c0.4-0.4,0.9-0.7,1.4-0.7
		C18.1,22.6,18.6,22.9,18.9,23.3z"/>
	<polyline class="st3" points="21.8,26.5 21.8,22.6 20.8,22.6 	"/>
	<path class="st3" d="M14.1,16.6v2.5c-0.4,0.4-0.9,0.7-1.4,0.7s-1.1-0.3-1.4-0.7v-2.5c0.4-0.4,0.9-0.7,1.4-0.7S13.8,16.2,14.1,16.6z
		"/>
	<path class="st3" d="M22.8,16.6v2.5c-0.4,0.4-0.9,0.7-1.5,0.7s-1.1-0.3-1.4-0.7v-2.5c0.4-0.4,0.9-0.7,1.4-0.7S22.4,16.2,22.8,16.6z
		"/>
	<polyline class="st3" points="25.6,19.8 25.6,15.9 24.7,15.9 	"/>
	<polyline class="st3" points="17,33.2 17,29.3 16,29.3 	"/>
	<path class="st3" d="M14.1,30v2.5c-0.4,0.4-0.9,0.7-1.4,0.7s-1.1-0.3-1.4-0.7V30c0.4-0.4,0.9-0.7,1.4-0.7S13.8,29.6,14.1,30z"/>
	<polyline class="st3" points="25.6,33.2 25.6,29.3 24.7,29.3 	"/>
</g>
<g>
	<polyline class="st3" points="29.5,19.8 29.5,15.9 28.5,15.9 	"/>
	<polyline class="st3" points="38.1,19.8 38.1,15.9 37.2,15.9 	"/>
	<path class="st3" d="M31.4,23.3v2.5c-0.4,0.4-0.9,0.7-1.4,0.7s-1.1-0.3-1.4-0.7v-2.5c0.4-0.4,0.9-0.7,1.4-0.7
		C30.6,22.6,31.1,22.9,31.4,23.3z"/>
	<path class="st3" d="M40,23.3v2.5c-0.4,0.4-0.9,0.7-1.4,0.7s-1.1-0.3-1.4-0.7v-2.5c0.4-0.4,0.9-0.7,1.4-0.7
		C39.2,22.6,39.7,22.9,40,23.3z"/>
	<path class="st3" d="M35.2,16.6v2.5c-0.3,0.4-0.8,0.7-1.4,0.7s-1.1-0.3-1.4-0.7v-2.5c0.4-0.4,0.9-0.7,1.4-0.7S34.9,16.2,35.2,16.6z
		"/>
	<polyline class="st3" points="38.1,33.2 38.1,29.3 37.2,29.3 	"/>
	<path class="st3" d="M35.2,30v2.5c-0.4,0.4-0.9,0.7-1.4,0.7s-1.1-0.3-1.4-0.7V30c0.4-0.4,0.9-0.7,1.4-0.7
		C34.4,29.3,34.9,29.6,35.2,30z"/>
</g>
</svg>
