<svg xmlns="http://www.w3.org/2000/svg" id="Layer_1" x="0" y="0" version="1.1" viewBox="0 0 50 50" xml:space="preserve"><style>.st3{fill:none;stroke:#444;stroke-linecap:round;stroke-linejoin:round;stroke-width:.5}</style><path fill="#46b8b0" d="M43.7 17v-2.6l.7-2.4-1.3-1.7c-3.2 0-39.5-2.3-39.5.9v27.3l13.8 1.1c.6.6.2 3.7-.6 4-1.5.4-4.9 1.2-4.9 1.3l1.4 3.8L29.5 43l-.9-3.8 10.4.4 5.4-1.9c.7-.4.3-18.7-.7-20.7z"/><path fill="none" stroke="#444" stroke-linecap="round" stroke-linejoin="round" stroke-width="2.5" d="M32.7 44h-3.5c-.2-.7-.6-4.5-.6-4.5l13.8-.2c.9 0 1.6-.7 1.6-1.6V11.5c0-.9-.7-1.6-1.6-1.6H5c-.9 0-1.6.7-1.6 1.6v26.2c0 .9.7 1.6 1.6 1.6l12.6.2s-.4 3.8-.6 4.5h-3.6c-1.1 0-1.9.9-1.9 1.9 0 1.1.9 1.9 1.9 1.9h14.5"/><path fill="none" stroke="#444" stroke-linecap="round" stroke-linejoin="round" d="M16.9 38.7H29m-16.7 6h20.9"/><path d="M8.4 19.8v-3.9h-1m9.6 3.9v-3.9h-1m-5.7 7.4v2.5c-.4.4-.9.7-1.4.7s-1.1-.3-1.5-.7v-2.5c.4-.4.9-.7 1.4-.7s1.2.3 1.5.7zm8.6 0v2.5c-.4.4-.9.7-1.4.7s-1.1-.3-1.4-.7v-2.5c.4-.4.9-.7 1.4-.7.6 0 1.1.3 1.4.7zm2.9 3.2v-3.9h-1m-6.7-6v2.5c-.4.4-.9.7-1.4.7s-1.1-.3-1.4-.7v-2.5c.4-.4.9-.7 1.4-.7s1.1.3 1.4.7zm8.7 0v2.5c-.4.4-.9.7-1.5.7s-1.1-.3-1.4-.7v-2.5c.4-.4.9-.7 1.4-.7s1.1.3 1.5.7zm2.8 3.2v-3.9h-.9M17 33.2v-3.9h-1m-1.9.7v2.5c-.4.4-.9.7-1.4.7s-1.1-.3-1.4-.7V30c.4-.4.9-.7 1.4-.7s1.1.3 1.4.7zm11.5 3.2v-3.9h-.9M29.5 19.8v-3.9h-1m9.6 3.9v-3.9h-.9m-5.8 7.4v2.5c-.4.4-.9.7-1.4.7s-1.1-.3-1.4-.7v-2.5c.4-.4.9-.7 1.4-.7.6 0 1.1.3 1.4.7zm8.6 0v2.5c-.4.4-.9.7-1.4.7s-1.1-.3-1.4-.7v-2.5c.4-.4.9-.7 1.4-.7.6 0 1.1.3 1.4.7zm-4.8-6.7v2.5a1.75 1.75 0 01-2.8 0v-2.5c.4-.4.9-.7 1.4-.7s1.1.3 1.4.7zm2.9 16.6v-3.9h-.9m-2 .7v2.5c-.4.4-.9.7-1.4.7s-1.1-.3-1.4-.7V30c.4-.4.9-.7 1.4-.7.6 0 1.1.3 1.4.7z" class="st3"/></svg>