<svg xmlns="http://www.w3.org/2000/svg" id="Layer_1" x="0" y="0" version="1.1" viewBox="0 0 50 50" xml:space="preserve"><style>.st2{fill:none;stroke:#444;stroke-linecap:round;stroke-linejoin:round;stroke-miterlimit:10}.st4{fill:#444}</style><path fill="#c3ff68" d="M45.3 12.5l-5.6-3.6L32 4.5l-6-2.8c-3.2-.1-21.4 8.9-21.4 12l-.5 7.8.5 15.2 11.5 7.6 31-11c.8-.5-.8-18.8-1.8-20.8z"/><path fill="none" stroke="#444" stroke-linecap="round" stroke-linejoin="round" stroke-miterlimit="10" stroke-width="2.5" d="M30.6 46.5l-2.2 1.3c-1.7 1-3.8 1-5.5 0l-15.6-9c-1.7-1-2.7-2.8-2.7-4.7v-18c0-2 1-3.8 2.7-4.7l15.6-9c1.7-1 3.8-1 5.5 0l15.6 9c1.7 1 2.7 2.8 2.7 4.7v18c0 2-1 3.8-2.7 4.7l-2.5 1.4"/><path d="M8.6 27.7c1-1.8 0-5.3 1.8-6.6m8.9 4.3s1.6 1.8 1.2 5.1m4-2.7s.7 1.1 1.6 2.3m-1.2.6s-2.1 3.9-1.3 6.5l3.6.1s.2-.4-.3-.9c-.8-.8 1.3-3 1.3-3m-15.7-5.6c-.1.8-.2 2.3-.3 2.9-.2.8-2.1 3.9-1.3 6.5l3.6.1s.1-.5-.3-.9c-.4-.5.5-2 1.4-3.2" class="st2"/><path d="M25.3 15.2c-1.8.2-1.4 1.4-6.2 1.4-9 0-9.2 5.4-8.4 7.9 1.3 4 3.7 3.9 4.6 7.3s1.5 5.3 1.5 5.3h4.1s.2-.3-.3-.9c-.5-.6-.9-.5-.4-3.9.1-.7.3-1.3.4-1.9h.1s1.2.4 3 .2 2.5-.6 2.5-.6c.8 1.1 1.6 2.3 2 3 .9 1.3 3 4.2 3 4.2l4.1-.1s.3-.6-.7-1.4c-1.2-.9-2.9-7-3.1-9.2" class="st2"/><path d="M32.7 22.7s1.3 2.7 6.7 1.6c3.8 8.2-1.4 9.9-1.4 9.9v1.2c12-4.2 1.2-18.8 1.2-18.8s.3-1.2-1-2.6c-1.7-1.9-4.7-.7-4.7-.7s-5.5-2.2-6.7-2.1-1.8 4.7-1 8.9c.6 3 2.4 5.8 7 6.7-.1-.1-.5-2.8-.1-4.1z" class="st2"/><path fill="none" stroke="#444" stroke-linecap="round" stroke-linejoin="round" stroke-miterlimit="10" stroke-width=".5" d="M36.5 19.3c0 .4-.3.7-.7.7s-.7-.3-.7-.7c0-.4.3-.7.7-.7.4 0 .7.3.7.7z"/><path d="M32.6 23s.4-1.2-.5-4.2" class="st2"/><path d="M7.8 29.4s-.2-.6.1-1.2c.2-.5.4-.9.7-.9h.1c.4.2.1.8 0 1.2-.2.6-.8.9-.9.9v.1-.1z" class="st4"/><path d="M8.7 27.4c.4.1.3.6 0 1.1-.2.5-.8.8-.8.8s-.2-.6.1-1.1c.2-.5.4-.8.7-.8m0-.2c-.4 0-.6.5-.8 1-.3.6-.1 1.2-.1 1.2l.1.2.2-.1s.6-.3.8-.9c.2-.4.5-1.1 0-1.4h-.2z" class="st4"/></svg>