<svg xmlns="http://www.w3.org/2000/svg" version="1" viewBox="0 0 50 50"><path fill="#00C8E2" d="M39.447 30.192V7.019a3.123 3.123 0 0 0-3.123-3.123H13.676a3.123 3.123 0 0 0-3.123 3.123V40.71l28.894-10.518z"/><path fill="#00DFFC" d="M37.766 4.264a3.082 3.082 0 0 0-1.442-.369H13.676a3.123 3.123 0 0 0-3.123 3.123v7.15l27.213-9.904z"/><path fill="#444" d="M36.777 47.066H13.223a3.635 3.635 0 0 1-3.631-3.631V6.565a3.635 3.635 0 0 1 3.631-3.631h23.555a3.635 3.635 0 0 1 3.631 3.631v23.624a.96.96 0 1 1-1.922 0V6.565c0-.942-.767-1.709-1.709-1.709H13.223c-.942 0-1.709.767-1.709 1.709v36.87a1.71 1.71 0 0 0 1.709 1.709h23.555a.96.96 0 1 1-.001 1.922z"/><path fill="#444" d="M35.555 39.051H14.444a1.154 1.154 0 0 1-1.153-1.153V7.787c0-.636.517-1.153 1.153-1.153h21.111c.636 0 1.153.517 1.153 1.153v30.111c0 .636-.517 1.153-1.153 1.153zM14.444 7.403a.384.384 0 0 0-.384.384v30.111c0 .212.172.384.384.384h21.111a.385.385 0 0 0 .384-.384V7.787a.384.384 0 0 0-.384-.384H14.444z"/><circle cx="33.201" cy="26.026" r="1.871" fill="#444"/><circle cx="17.065" cy="26.026" r="1.871" fill="#444"/><path fill="#444" d="M25 31.586c-4.407 0-6.697-1.051-6.792-1.096a.576.576 0 0 1 .489-1.044c.036.017 2.196.987 6.303.987 4.165 0 6.566-.986 6.59-.996a.577.577 0 1 1 .446 1.063c-.106.044-2.642 1.086-7.036 1.086z"/></svg>