<?xml version="1.0" encoding="utf-8"?>
<!-- Generator: Adobe Illustrator 22.0.1, SVG Export Plug-In . SVG Version: 6.00 Build 0)  -->
<svg version="1.1" id="Layer_1" xmlns="http://www.w3.org/2000/svg" xmlns:xlink="http://www.w3.org/1999/xlink" x="0px" y="0px"
	 viewBox="0 0 50 50" style="enable-background:new 0 0 50 50;" xml:space="preserve">
<style type="text/css">
	.st0{fill:#ECC158;}
	.st1{fill:#F0CD77;}
	.st2{fill:#444444;}
	.st3{fill:#464646;}
</style>
<g>
	<path class="st0" d="M37,32.3l0.3-0.4c2.1-3.1,3.2-6.7,3.2-10.4c0-5.1-2-9.7-5.3-13.1L3,20.1c0,0.4-0.1,0.9-0.1,1.3
		c0,10.4,8.4,18.8,18.8,18.8c3.5,0,6.9-1,9.9-2.8l0.4-0.2l1.6,2l8-2.9L37,32.3z"/>
	<path class="st1" d="M21.7,2.6c-9.9,0-18,7.7-18.7,17.5L35.2,8.3C31.8,4.8,27,2.6,21.7,2.6z"/>
	<g>
		<path class="st2" d="M42.7,48.7c-1.4,0-2.7-0.5-3.8-1.5l-0.1-0.1c-0.1-0.1-0.2-0.2-0.3-0.4l-6.7-8c-3.1,1.8-6.5,2.7-10.1,2.7
			c-11.1,0-20-9-20-20c0-11.1,9-20,20-20s20,9,20,20c0,3.8-1.1,7.4-3.1,10.6l4,3.4c0.5,0.4,0.6,1.2,0.1,1.8
			c-0.4,0.5-1.2,0.6-1.8,0.1l-5.7-4.9l0.9-1.3c1.9-2.9,3-6.2,3-9.7c0-9.7-7.9-17.5-17.5-17.5C12,3.8,4.1,11.7,4.1,21.4
			c0,9.7,7.9,17.5,17.5,17.5c3.3,0,6.5-0.9,9.3-2.6l1.3-0.8l8.1,9.7c0.1,0.1,0.1,0.1,0.1,0.1l0.1,0.1c1.3,1.2,3.3,1,4.5-0.3
			c1.2-1.3,1.1-3.4-0.2-4.6l-0.5-0.4c-0.5-0.4-0.6-1.2-0.1-1.8c0.4-0.5,1.2-0.6,1.8-0.1l0.5,0.5c2.4,2.1,2.6,5.8,0.4,8.1
			C45.8,48,44.2,48.7,42.7,48.7z"/>
	</g>
	<path class="st3" d="M21.6,6.6c-8.2,0-14.9,6.7-14.9,14.9c0,3.6,1.3,6.8,3.4,9.4v-2.2c0-2.2,1.7-4,3.8-4.2c0.4,0.2,0.8,0.3,1.2,0.4
		c0.3,0.1,0.5,0.1,0.8,0.1c0,0,0,0,0,0c0.3,0,0.5,0,0.8-0.1c0.3-0.1,0.6-0.2,0.9-0.3c0,0.2,0,0.4,0.1,0.7c0,0.1,0,0.1,0,0.2
		c0.1,0.3,0.2,0.6,0.4,0.9c0,0,0,0,0,0c0.2,0.4,0.4,0.7,0.7,1c0,0,0.1,0.1,0.1,0.1c-2.2,0.6-3.7,2.5-3.7,4.9v0.3v0.8
		c-1.1,0-2.1-0.2-3.1-0.4c1.2,0.9,2.5,1.7,3.9,2.3c0,0,0-0.1,0-0.1v-1v-0.8v-0.8v-0.3c0-2.2,1.7-4,3.8-4.2c0.3,0.2,0.7,0.3,1.1,0.4
		c0,0,0,0,0,0c0.3,0.1,0.5,0.1,0.8,0.1h0c0,0,0.1,0,0.1,0c0.2,0,0.5,0,0.7-0.1c0,0,0,0,0,0c0.5-0.1,0.9-0.2,1.3-0.5l0,0
		c2.2,0.2,3.8,2,3.8,4.2v0.3v0.8v0.8V35c0.3-0.1,0.6-0.3,0.9-0.4c0.8-0.4,1.5-0.9,2.2-1.5c-0.7,0.1-1.5,0.2-2.2,0.2v-0.8v-0.2
		c0-0.8-0.2-1.5-0.5-2.2c-0.3-0.7-0.8-1.3-1.5-1.8c-0.5-0.4-1.1-0.7-1.8-0.9l0.2-0.2c0.3-0.3,0.5-0.6,0.7-1v0
		c0.2-0.3,0.3-0.6,0.4-0.9c0,0,0-0.1,0-0.1c0-0.2,0.1-0.4,0.1-0.6c0.2,0.1,0.3,0.1,0.5,0.2c0.1,0,0.1,0,0.2,0c0.2,0,0.4,0.1,0.6,0.1
		c0.1,0,0.1,0,0.2,0h0c0.2,0,0.4,0,0.6,0c0.1,0,0.1,0,0.2,0c0.4-0.1,0.8-0.2,1.2-0.4c2.2,0.2,3.8,2,3.8,4.2v0.5V30v0.3
		c0.3-0.4,0.6-0.8,0.8-1.2c1.4-2.3,2.1-5,2.1-7.6C36.4,13.3,29.8,6.6,21.6,6.6z M17.7,23.6L17.7,23.6c-0.3,0.3-0.6,0.4-1,0.5
		c-0.3,0.1-0.5,0.1-0.8,0.1h0c-0.3,0-0.6,0-0.8-0.1c-0.4-0.1-0.7-0.2-1.1-0.5c-1.1-0.7-1.8-2.1-1.5-3.6c0.2-1.3,1.5-2.6,2.8-2.8
		c0.8-0.1,1.6,0,2.3,0.4c0.3,0.1,0.5,0.3,0.7,0.5c0.2,0.2,0.4,0.4,0.5,0.7c0.3,0.5,0.5,1.2,0.5,1.9c0,0.1,0,0.1,0,0.2
		C18.5,21.5,17.9,22.5,17.7,23.6z M25.4,24.3l0,0.2c0,0,0,0.1,0,0.1c0,0,0,0.1,0,0.1c0,0,0,0,0,0c0,0,0,0.1,0,0.1c0,0,0,0.1,0,0.1
		c0,0.1,0,0.1,0,0.2c0,0,0,0.1,0,0.1c0,0,0,0.1,0,0.1c0,0,0,0,0,0c0,0,0,0.1,0,0.1c0,0.1,0,0.1-0.1,0.2c-0.1,0.3-0.3,0.6-0.5,0.9
		c-0.2,0.3-0.5,0.6-0.8,0.8c0,0,0,0,0,0l0,0c-0.1,0.1-0.2,0.1-0.3,0.2h0c-0.2,0.1-0.5,0.2-0.7,0.3c-0.1,0-0.1,0-0.2,0
		c-0.2,0-0.4,0.1-0.6,0.1l0,0c0,0,0,0,0,0c0,0,0,0,0,0c-0.1,0-0.1,0-0.2,0c-0.2,0-0.4,0-0.6-0.1v0c-0.1,0-0.2,0-0.3-0.1v0
		c-0.1,0-0.3-0.1-0.4-0.2h0h0c-0.1-0.1-0.3-0.1-0.4-0.2c0,0,0,0,0,0h0c-0.3-0.2-0.6-0.4-0.8-0.7c-0.1-0.1-0.2-0.2-0.2-0.3
		c-0.1-0.2-0.2-0.4-0.3-0.6c0-0.1,0-0.1-0.1-0.2c-0.1-0.3-0.2-0.6-0.2-0.9c0-0.1,0-0.1,0-0.2c0-0.1,0-0.1,0-0.2c0-0.1,0-0.3,0-0.4
		c0,0,0,0,0,0c0-0.1,0.1-0.3,0.1-0.4c0.1-0.3,0.2-0.6,0.4-0.9c0-0.1,0.1-0.1,0.2-0.2c0.1-0.1,0.2-0.2,0.3-0.3
		c0.2-0.2,0.5-0.4,0.7-0.6c0.2-0.1,0.4-0.2,0.6-0.3c0.1,0,0.2-0.1,0.3-0.1c0.1,0,0.3-0.1,0.5-0.1s0.3,0,0.5,0c0,0,0,0,0,0l0,0
		c0.5,0,1,0.1,1.5,0.3v0c0.3,0.2,0.7,0.4,0.9,0.6c0,0,0,0,0,0c0.4,0.4,0.7,0.9,0.9,1.4v0c0.1,0.2,0.1,0.3,0.1,0.5
		C25.4,23.9,25.4,24.1,25.4,24.3L25.4,24.3z M31.1,21c0,0,0,0.1,0,0.1c0,0.3-0.1,0.6-0.2,0.9c-0.3,0.7-0.7,1.2-1.4,1.6
		c-0.3,0.2-0.7,0.4-1,0.4v0c0,0,0,0,0,0c0,0-0.1,0-0.1,0c0,0,0,0,0,0c0,0-0.1,0-0.1,0c0,0-0.1,0-0.1,0c0,0-0.1,0-0.1,0c0,0,0,0,0,0
		c0,0-0.1,0-0.1,0c0,0,0,0,0,0c0,0,0,0-0.1,0c0,0,0,0-0.1,0c0,0,0,0,0,0c0,0,0,0-0.1,0c0,0-0.1,0-0.1,0c0,0,0,0,0,0c0,0,0,0-0.1,0
		c0,0,0,0,0,0h0c0,0-0.1,0-0.1,0h0c0,0-0.1,0-0.1,0c-0.1,0-0.2,0-0.2,0c0,0-0.1,0-0.1,0c0,0,0,0,0,0c0,0,0,0,0,0c0,0,0,0,0,0
		c-0.2-0.1-0.4-0.1-0.6-0.2l0,0c0-0.1,0-0.2,0-0.2c0-0.3-0.1-0.6-0.2-0.9c-0.2-0.5-0.5-1-0.9-1.4c-0.3-0.3-0.5-0.5-0.9-0.7
		c0-0.7,0.2-1.3,0.5-1.8c0.2-0.2,0.3-0.5,0.5-0.7c0.2-0.2,0.5-0.4,0.7-0.5c0.5-0.3,1.1-0.4,1.7-0.4c0.5,0,1,0.1,1.4,0.3
		c0.3,0.1,0.6,0.3,0.8,0.5l0,0c0.6,0.5,1,1.2,1.2,2v0c0,0.1,0,0.2,0,0.3c0,0.1,0,0.3,0,0.4C31.1,20.8,31.1,20.9,31.1,21z"/>
</g>
</svg>
