<?xml version="1.0" encoding="utf-8"?>
<!-- Generator: Adobe Illustrator 24.3.0, SVG Export Plug-In . SVG Version: 6.00 Build 0)  -->
<svg version="1.1" id="Layer_1" xmlns="http://www.w3.org/2000/svg" xmlns:xlink="http://www.w3.org/1999/xlink" x="0px" y="0px"
	 viewBox="0 0 50 50" style="enable-background:new 0 0 50 50;" xml:space="preserve">
<style type="text/css">
	.st0{fill:#46B8B0;}
	.st1{fill:#4ECDC4;}
	.st2{fill:#494949;}
	.st3{fill:#444444;}
</style>
<g>
	<g>
		<polygon class="st0" points="45,3.6 5,18.2 5,44.5 45,29.9 		"/>
	</g>
	<g>
		<path class="st1" d="M45.5,3.5c0-1.1-0.9-2-2-2H6.3c-1.1,0-2,0.9-2,2v15.2l41.2-15V3.5z"/>
	</g>
	<g>
		<path class="st2" d="M43.1,49.4H6.9c-1.7,0-3.1-1.4-3.1-3.1V3.7c0-1.7,1.4-3.1,3.1-3.1h36.3c1.7,0,3.1,1.4,3.1,3.1v26.9
			c0,0.7-0.6,1.2-1.2,1.2s-1.2-0.6-1.2-1.2V3.7c0-0.4-0.3-0.6-0.6-0.6H6.9c-0.4,0-0.6,0.3-0.6,0.6v42.6c0,0.4,0.3,0.6,0.6,0.6h36.3
			c0.4,0,0.6-0.3,0.6-0.6v-6.8c0-0.7,0.6-1.2,1.2-1.2s1.2,0.6,1.2,1.2v6.8C46.3,48,44.9,49.4,43.1,49.4z"/>
	</g>
	<g>
		<path class="st2" d="M30.7,45.5H19.3c-0.2,0-0.3-0.1-0.3-0.3v-0.7c0-0.2,0.1-0.3,0.3-0.3h11.4c0.2,0,0.3,0.1,0.3,0.3v0.7
			C31,45.4,30.9,45.5,30.7,45.5z"/>
	</g>
	<g>
		<g>
			<g>
				<g>
					<path class="st3" d="M39,10.2c1.1,0,1.9-0.9,1.9-1.9s-0.8-2-1.9-2s-1.9,0.9-1.9,1.9C37.1,9.3,38,10.2,39,10.2z M39,7.2
						c0.5,0,1,0.4,1,1c0,0.5-0.4,1-1,1c-0.5,0-1-0.4-1-1C38,7.7,38.5,7.2,39,7.2z"/>
				</g>
				<g>
					<path class="st3" d="M16.1,35.3h-1.5c-0.3,0-0.4,0.2-0.4,0.4s0.2,0.4,0.4,0.4h1.5c0.3,0,0.4-0.2,0.4-0.4S16.4,35.3,16.1,35.3z"
						/>
				</g>
				<g>
					<path class="st3" d="M28,35.3h-1.5c-0.3,0-0.4,0.2-0.4,0.4s0.2,0.4,0.4,0.4H28c0.3,0,0.4-0.2,0.4-0.4S28.2,35.3,28,35.3z"/>
				</g>
				<g>
					<path class="st3" d="M20.1,35.3h-1.5c-0.3,0-0.4,0.2-0.4,0.4s0.2,0.4,0.4,0.4h1.5c0.3,0,0.4-0.2,0.4-0.4S20.4,35.3,20.1,35.3z"
						/>
				</g>
				<g>
					<path class="st3" d="M24,35.3h-1.5c-0.3,0-0.4,0.2-0.4,0.4s0.2,0.4,0.4,0.4H24c0.3,0,0.4-0.2,0.4-0.4
						C24.5,35.5,24.2,35.3,24,35.3z"/>
				</g>
				<g>
					<path class="st3" d="M35.8,35.3h-1.5c-0.3,0-0.4,0.2-0.4,0.4s0.2,0.4,0.4,0.4h1.5c0.3,0,0.4-0.2,0.4-0.4S36.1,35.3,35.8,35.3z"
						/>
				</g>
				<g>
					<path class="st3" d="M31.9,35.3h-1.5c-0.3,0-0.4,0.2-0.4,0.4s0.2,0.4,0.4,0.4h1.5c0.3,0,0.4-0.2,0.4-0.4S32.2,35.3,31.9,35.3z"
						/>
				</g>
				<g>
					<path class="st3" d="M11.9,23.2c0-0.3-0.2-0.4-0.4-0.4c-0.3,0-0.4,0.2-0.4,0.4v1.5c0,0.3,0.2,0.4,0.4,0.4
						c0.3,0,0.4-0.2,0.4-0.4V23.2z"/>
				</g>
				<g>
					<path class="st3" d="M11.9,19.3c0-0.3-0.2-0.4-0.4-0.4c-0.3,0-0.4,0.2-0.4,0.4v1.5c0,0.3,0.2,0.4,0.4,0.4
						c0.3,0,0.4-0.2,0.4-0.4V19.3z"/>
				</g>
				<g>
					<path class="st3" d="M11.9,27.1c0-0.3-0.2-0.4-0.4-0.4c-0.3,0-0.4,0.2-0.4,0.4v1.5c0,0.3,0.2,0.4,0.4,0.4
						c0.3,0,0.4-0.2,0.4-0.4V27.1z"/>
				</g>
				<g>
					<path class="st3" d="M11.4,30.7c-0.3,0-0.4,0.2-0.4,0.4v1.5c0,0.3,0.2,0.4,0.4,0.4c0.3,0,0.4-0.2,0.4-0.4v-1.5
						C11.9,30.8,11.7,30.7,11.4,30.7z"/>
				</g>
				<g>
					<path class="st3" d="M11.9,11.4c0-0.3-0.2-0.4-0.4-0.4c-0.3,0-0.4,0.2-0.4,0.4v1.5c0,0.3,0.2,0.4,0.4,0.4
						c0.3,0,0.4-0.2,0.4-0.4V11.4z"/>
				</g>
				<g>
					<path class="st3" d="M11.9,15.3c0-0.3-0.2-0.4-0.4-0.4c-0.3,0-0.4,0.2-0.4,0.4v1.5c0,0.3,0.2,0.4,0.4,0.4
						c0.3,0,0.4-0.2,0.4-0.4V15.3z"/>
				</g>
				<g>
					<path class="st3" d="M18.6,8.6h1.5c0.3,0,0.4-0.2,0.4-0.4c0-0.3-0.2-0.4-0.4-0.4h-1.5c-0.3,0-0.4,0.2-0.4,0.4
						C18.1,8.5,18.3,8.6,18.6,8.6z"/>
				</g>
				<g>
					<path class="st3" d="M34.3,8.6h1.5c0.3,0,0.4-0.2,0.4-0.4c0-0.3-0.2-0.4-0.4-0.4h-1.5c-0.3,0-0.4,0.2-0.4,0.4
						C33.9,8.5,34.1,8.6,34.3,8.6z"/>
				</g>
				<g>
					<path class="st3" d="M22.5,8.6H24c0.3,0,0.4-0.2,0.4-0.4c0-0.3-0.2-0.4-0.4-0.4h-1.5c-0.3,0-0.4,0.2-0.4,0.4
						C22,8.5,22.2,8.6,22.5,8.6z"/>
				</g>
				<g>
					<path class="st3" d="M26.5,8.6H28c0.3,0,0.4-0.2,0.4-0.4c0-0.3-0.2-0.4-0.4-0.4h-1.5c-0.3,0-0.4,0.2-0.4,0.4
						C26,8.5,26.2,8.6,26.5,8.6z"/>
				</g>
				<g>
					<path class="st3" d="M30.3,8.6h1.5c0.3,0,0.4-0.2,0.4-0.4c0-0.3-0.2-0.4-0.4-0.4h-1.5c-0.3,0-0.4,0.2-0.4,0.4
						C29.9,8.5,30.2,8.6,30.3,8.6z"/>
				</g>
				<g>
					<path class="st3" d="M14.6,8.6h1.5c0.3,0,0.4-0.2,0.4-0.4c0-0.3-0.2-0.4-0.4-0.4h-1.5c-0.3,0-0.4,0.2-0.4,0.4
						C14.2,8.5,14.3,8.6,14.6,8.6z"/>
				</g>
				<g>
					<path class="st3" d="M39.5,23.2c0-0.3-0.2-0.4-0.4-0.4s-0.4,0.2-0.4,0.4v1.5c0,0.3,0.2,0.4,0.4,0.4s0.4-0.2,0.4-0.4V23.2z"/>
				</g>
				<g>
					<path class="st3" d="M39.5,19.3c0-0.3-0.2-0.4-0.4-0.4s-0.4,0.2-0.4,0.4v1.5c0,0.3,0.2,0.4,0.4,0.4s0.4-0.2,0.4-0.4V19.3z"/>
				</g>
				<g>
					<path class="st3" d="M39,30.7c-0.3,0-0.4,0.2-0.4,0.4v1.5c0,0.3,0.2,0.4,0.4,0.4c0.3,0,0.4-0.2,0.4-0.4v-1.5
						C39.5,30.8,39.3,30.7,39,30.7z"/>
				</g>
				<g>
					<path class="st3" d="M39.5,27.1c0-0.3-0.2-0.4-0.4-0.4s-0.4,0.2-0.4,0.4v1.5c0,0.3,0.2,0.4,0.4,0.4s0.4-0.2,0.4-0.4V27.1z"/>
				</g>
				<g>
					<path class="st3" d="M39.5,15.3c0-0.3-0.2-0.4-0.4-0.4s-0.4,0.2-0.4,0.4v1.5c0,0.3,0.2,0.4,0.4,0.4s0.4-0.2,0.4-0.4V15.3z"/>
				</g>
				<g>
					<path class="st3" d="M39.5,11.4c0-0.3-0.2-0.4-0.4-0.4s-0.4,0.2-0.4,0.4v1.5c0,0.3,0.2,0.4,0.4,0.4s0.4-0.2,0.4-0.4V11.4z"/>
				</g>
				<g>
					<path class="st3" d="M11.5,10.2c1.1,0,1.9-0.9,1.9-1.9s-0.9-1.9-1.9-1.9S9.6,7.1,9.6,8.2S10.5,10.2,11.5,10.2z M11.5,7.2
						c0.5,0,1,0.4,1,1c0,0.5-0.4,1-1,1c-0.5,0-1-0.4-1-1C10.5,7.7,10.9,7.2,11.5,7.2z"/>
				</g>
				<g>
					<path class="st3" d="M39,33.8c-1.1,0-1.9,0.9-1.9,1.9s0.9,1.9,1.9,1.9c1.1,0,1.9-0.9,1.9-1.9S40.1,33.8,39,33.8L39,33.8z
						 M39,36.8c-0.5,0-1-0.4-1-1s0.4-1,1-1c0.5,0,1,0.4,1,1C40,36.3,39.5,36.8,39,36.8z"/>
				</g>
				<g>
					<path class="st3" d="M11.5,33.8c-1.1,0-1.9,0.9-1.9,1.9s0.9,1.9,1.9,1.9s1.9-0.9,1.9-1.9S12.5,33.8,11.5,33.8L11.5,33.8z
						 M11.5,36.8c-0.5,0-1-0.4-1-1s0.4-1,1-1c0.5,0,1,0.4,1,1S12,36.8,11.5,36.8z"/>
				</g>
				<g>
					<path class="st3" d="M37.3,12c0-0.9-0.7-1.6-1.6-1.6h-21c-0.9,0-1.6,0.7-1.6,1.6v1.6c0,0.3,0.2,0.4,0.4,0.4
						c0.3,0,0.4-0.2,0.4-0.4V12c0-0.4,0.4-0.7,0.7-0.7h21c0.4,0,0.7,0.4,0.7,0.7v11.4l-1.9-1.2c-0.2-0.2-0.5-0.1-0.6,0.2
						c-0.2,0.2-0.1,0.5,0.2,0.6l2.4,1.5v7.4c0,0.4-0.4,0.7-0.7,0.7h-3.5v-3.5c0-1-0.4-1.9-1.2-2.6l-4.9-3.6l3.1-1.8
						c0.5-0.4,1.2-0.4,1.9,0l1.1,0.7c0.2,0.2,0.5,0.1,0.6-0.2c0.2-0.2,0.1-0.5-0.2-0.6l-1.1-0.7c-0.9-0.5-1.9-0.5-2.7-0.1l-3.4,1.9
						L21.2,19c-0.9-0.6-2-0.7-2.9-0.3l-4.2,2.4v-5.3c0-0.3-0.2-0.4-0.4-0.4s-0.4,0.2-0.4,0.4V32c0,0.9,0.7,1.6,1.6,1.6h21
						c0.9,0,1.6-0.7,1.6-1.6C37.4,25.3,37.4,18.7,37.3,12z M31.2,32.7H14.8c-0.4,0-0.7-0.4-0.7-0.7v-9.7l4.7-2.6
						c0.6-0.4,1.4-0.3,1.9,0.2l9.6,7.4c0.5,0.4,0.9,1.1,0.9,1.9C31.2,29.2,31.2,32.7,31.2,32.7z"/>
				</g>
				<g>
					<path class="st3" d="M31.5,18.2c1.5,0,2.7-1.2,2.7-2.7s-1.2-2.7-2.7-2.7s-2.7,1.2-2.7,2.7S30,18.2,31.5,18.2L31.5,18.2z
						 M31.5,13.6c1,0,1.9,0.8,1.9,1.9c0,1-0.8,1.9-1.9,1.9c-1,0-1.9-0.8-1.9-1.9C29.6,14.4,30.5,13.6,31.5,13.6z"/>
				</g>
			</g>
		</g>
	</g>
</g>
</svg>
