<?xml version="1.0" encoding="utf-8"?>
<!-- Generator: Adobe Illustrator 24.0.3, SVG Export Plug-In . SVG Version: 6.00 Build 0)  -->
<svg version="1.1" id="Layer_1" xmlns="http://www.w3.org/2000/svg" xmlns:xlink="http://www.w3.org/1999/xlink" x="0px" y="0px"
	 viewBox="0 0 50 50" style="enable-background:new 0 0 50 50;" xml:space="preserve">
<style type="text/css">
	.st0{fill:#DC5E82;}
	.st1{fill:#F56991;}
	.st2{fill:none;stroke:#444444;stroke-width:2.5;stroke-linecap:round;stroke-linejoin:round;stroke-miterlimit:10;}
	.st3{fill:#444444;}
	.st4{display:none;opacity:0.36;fill:#444444;enable-background:new    ;}
	.st5{fill:none;stroke:#444444;stroke-width:0.25;stroke-miterlimit:10;}
</style>
<g>
	<polygon class="st0" points="46.5,26.6 46.9,30.7 2.7,46.8 2.8,38.1 3.1,33.2 47.2,17.1 46.5,20.7 	"/>
	<polygon class="st1" points="46.5,10.7 46,18.1 2.8,33.8 2.8,24.5 3.1,20.2 46.6,4.4 	"/>
	<polyline class="st2" points="32.4,47.6 2.4,47.6 2.4,3.1 47.2,3.1 47.2,37.6 	"/>
</g>
<g>
	<g>
		<g>
			<g>
				<path class="st3" d="M30,18.9c0.4,0,0.7-0.3,0.7-0.7s-0.3-0.7-0.7-0.7c-0.4,0-0.7,0.3-0.7,0.7C29.3,18.5,29.6,18.9,30,18.9z
					 M30,17.8c0.2,0,0.4,0.2,0.4,0.4c0,0.2-0.2,0.4-0.4,0.4s-0.4-0.2-0.4-0.4C29.6,17.9,29.8,17.8,30,17.8z"/>
				<path class="st3" d="M21.4,28.4h-0.6c-0.1,0-0.2,0.1-0.2,0.2s0.1,0.2,0.2,0.2h0.6c0.1,0,0.2-0.1,0.2-0.2S21.5,28.4,21.4,28.4z"
					/>
				<path class="st3" d="M25.8,28.4h-0.6c-0.1,0-0.2,0.1-0.2,0.2s0.1,0.2,0.2,0.2h0.6c0.1,0,0.2-0.1,0.2-0.2S25.9,28.4,25.8,28.4z"
					/>
				<path class="st3" d="M22.9,28.4h-0.6c-0.1,0-0.2,0.1-0.2,0.2s0.1,0.2,0.2,0.2h0.6c0.1,0,0.2-0.1,0.2-0.2
					C23,28.5,23,28.4,22.9,28.4z"/>
				<path class="st3" d="M24.4,28.4h-0.6c-0.1,0-0.2,0.1-0.2,0.2s0.1,0.2,0.2,0.2h0.6c0.1,0,0.2-0.1,0.2-0.2
					C24.5,28.5,24.5,28.4,24.4,28.4z"/>
				<path class="st3" d="M28.8,28.4h-0.6c-0.1,0-0.2,0.1-0.2,0.2s0.1,0.2,0.2,0.2h0.6c0.1,0,0.2-0.1,0.2-0.2S28.9,28.4,28.8,28.4z"
					/>
				<path class="st3" d="M27.3,28.4h-0.6c-0.1,0-0.2,0.1-0.2,0.2s0.1,0.2,0.2,0.2h0.6c0.1,0,0.2-0.1,0.2-0.2S27.4,28.4,27.3,28.4z"
					/>
				<path class="st3" d="M19.8,23.8c0-0.1-0.1-0.2-0.2-0.2s-0.2,0.1-0.2,0.2v0.6c0,0.1,0.1,0.2,0.2,0.2s0.2-0.1,0.2-0.2V23.8z"/>
				<path class="st3" d="M19.8,22.3c0-0.1-0.1-0.2-0.2-0.2s-0.2,0.1-0.2,0.2v0.6c0,0.1,0.1,0.2,0.2,0.2s0.2-0.1,0.2-0.2V22.3z"/>
				<path class="st3" d="M19.8,25.3c0-0.1-0.1-0.2-0.2-0.2s-0.2,0.1-0.2,0.2v0.6c0,0.1,0.1,0.2,0.2,0.2s0.2-0.1,0.2-0.2V25.3z"/>
				<path class="st3" d="M19.6,26.6c-0.1,0-0.2,0.1-0.2,0.2v0.6c0,0.1,0.1,0.2,0.2,0.2s0.2-0.1,0.2-0.2v-0.6
					C19.8,26.7,19.7,26.6,19.6,26.6z"/>
				<path class="st3" d="M19.8,19.3c0-0.1-0.1-0.2-0.2-0.2s-0.2,0.1-0.2,0.2v0.6c0,0.1,0.1,0.2,0.2,0.2s0.2-0.1,0.2-0.2V19.3z"/>
				<path class="st3" d="M19.8,20.8c0-0.1-0.1-0.2-0.2-0.2s-0.2,0.1-0.2,0.2v0.6c0,0.1,0.1,0.2,0.2,0.2s0.2-0.1,0.2-0.2V20.8z"/>
				<path class="st3" d="M22.3,18.3h0.6c0.1,0,0.2-0.1,0.2-0.2C23,18,23,18,22.9,18h-0.6c-0.1,0-0.2,0.1-0.2,0.2
					C22.1,18.2,22.2,18.3,22.3,18.3z"/>
				<path class="st3" d="M28.3,18.3h0.6c0.1,0,0.2-0.1,0.2-0.2s-0.1-0.2-0.2-0.2h-0.6c-0.1,0-0.2,0.1-0.2,0.2
					C28.1,18.2,28.2,18.3,28.3,18.3z"/>
				<path class="st3" d="M23.8,18.3h0.6c0.1,0,0.2-0.1,0.2-0.2s-0.1-0.2-0.2-0.2h-0.6c-0.1,0-0.2,0.1-0.2,0.2
					C23.6,18.2,23.7,18.3,23.8,18.3z"/>
				<path class="st3" d="M25.3,18.3h0.6c0.1,0,0.2-0.1,0.2-0.2s-0.1-0.2-0.2-0.2h-0.6c-0.1,0-0.2,0.1-0.2,0.2
					C25.1,18.2,25.2,18.3,25.3,18.3z"/>
				<path class="st3" d="M26.8,18.3h0.6c0.1,0,0.2-0.1,0.2-0.2s-0.1-0.2-0.2-0.2h-0.6c-0.1,0-0.2,0.1-0.2,0.2
					C26.6,18.2,26.7,18.3,26.8,18.3z"/>
				<path class="st3" d="M20.8,18.3h0.6c0.1,0,0.2-0.1,0.2-0.2s-0.1-0.2-0.2-0.2h-0.6c-0.1,0-0.2,0.1-0.2,0.2
					C20.6,18.2,20.7,18.3,20.8,18.3z"/>
				<path class="st3" d="M30.2,23.8c0-0.1-0.1-0.2-0.2-0.2s-0.2,0.1-0.2,0.2v0.6c0,0.1,0.1,0.2,0.2,0.2s0.2-0.1,0.2-0.2V23.8z"/>
				<path class="st3" d="M30.2,22.3c0-0.1-0.1-0.2-0.2-0.2s-0.2,0.1-0.2,0.2v0.6c0,0.1,0.1,0.2,0.2,0.2s0.2-0.1,0.2-0.2V22.3z"/>
				<path class="st3" d="M30,26.6c-0.1,0-0.2,0.1-0.2,0.2v0.6c0,0.1,0.1,0.2,0.2,0.2s0.2-0.1,0.2-0.2v-0.6
					C30.2,26.7,30.1,26.6,30,26.6z"/>
				<path class="st3" d="M30.2,25.3c0-0.1-0.1-0.2-0.2-0.2s-0.2,0.1-0.2,0.2v0.6c0,0.1,0.1,0.2,0.2,0.2s0.2-0.1,0.2-0.2V25.3z"/>
				<path class="st3" d="M30.2,20.8c0-0.1-0.1-0.2-0.2-0.2s-0.2,0.1-0.2,0.2v0.6c0,0.1,0.1,0.2,0.2,0.2s0.2-0.1,0.2-0.2V20.8z"/>
				<path class="st3" d="M30.2,19.3c0-0.1-0.1-0.2-0.2-0.2s-0.2,0.1-0.2,0.2v0.6c0,0.1,0.1,0.2,0.2,0.2s0.2-0.1,0.2-0.2V19.3z"/>
				<path class="st3" d="M19.6,18.9c0.4,0,0.7-0.3,0.7-0.7s-0.3-0.7-0.7-0.7s-0.7,0.3-0.7,0.7C18.9,18.5,19.2,18.9,19.6,18.9z
					 M19.6,17.8c0.2,0,0.4,0.2,0.4,0.4c0,0.2-0.2,0.4-0.4,0.4c-0.2,0-0.4-0.2-0.4-0.4C19.2,17.9,19.4,17.8,19.6,17.8z"/>
				<path class="st3" d="M30,27.8c-0.4,0-0.7,0.3-0.7,0.7c0,0.4,0.3,0.7,0.7,0.7c0.4,0,0.7-0.3,0.7-0.7C30.7,28.1,30.4,27.8,30,27.8
					L30,27.8z M30,28.9c-0.2,0-0.4-0.2-0.4-0.4s0.2-0.4,0.4-0.4c0.2,0,0.4,0.2,0.4,0.4C30.4,28.8,30.2,28.9,30,28.9z"/>
				<path class="st3" d="M19.6,27.8c-0.4,0-0.7,0.3-0.7,0.7c0,0.4,0.3,0.7,0.7,0.7c0.4,0,0.7-0.3,0.7-0.7
					C20.3,28.1,20,27.8,19.6,27.8L19.6,27.8z M19.6,28.9c-0.2,0-0.4-0.2-0.4-0.4s0.2-0.4,0.4-0.4c0.2,0,0.4,0.2,0.4,0.4
					C20,28.8,19.8,28.9,19.6,28.9z"/>
				<path class="st4" d="M29.4,19.6c0-0.3-0.3-0.6-0.6-0.6h-7.9c-0.3,0-0.6,0.3-0.6,0.6v0.6c0,0.1,0.1,0.2,0.2,0.2s0.2-0.1,0.2-0.2
					v-0.6c0-0.1,0.1-0.3,0.3-0.3h7.9c0.1,0,0.3,0.1,0.3,0.3v4.3l-0.7-0.5c-0.1-0.1-0.2,0-0.2,0.1c-0.1,0.1,0,0.2,0.1,0.2l0.9,0.6
					v2.8c0,0.1-0.1,0.3-0.3,0.3h-1.3V26c0-0.4-0.2-0.7-0.5-1l-1.8-1.4l1.2-0.7c0.2-0.1,0.5-0.1,0.7,0l0.4,0.3c0.1,0.1,0.2,0,0.2-0.1
					c0.1-0.1,0-0.2-0.1-0.2l-0.4-0.3c-0.3-0.2-0.7-0.2-1,0l-1.3,0.7l-1.5-1.2c-0.6-0.1-1-0.1-1.4,0.1l-1.6,0.9v-2
					c0-0.1-0.1-0.2-0.2-0.2s-0.2,0.1-0.2,0.2v6.1c0,0.3,0.3,0.6,0.6,0.6h7.9c0.3,0,0.6-0.3,0.6-0.6L29.4,19.6
					C29.3,19.6,29.4,19.6,29.4,19.6z M27.1,27.4h-6.2c-0.1,0-0.3-0.1-0.3-0.3v-3.7l1.8-1c0.2-0.1,0.5-0.1,0.7,0.1l3.6,2.8
					c0.2,0.2,0.3,0.4,0.3,0.7L27.1,27.4L27.1,27.4z"/>
				<path class="st5" d="M28.2,27.6h-6.4c-0.6,0-1.1-0.5-1.1-1.1v-6.2c0-0.6,0.5-1.1,1.1-1.1h6.4c0.6,0,1.1,0.5,1.1,1.1v6.2
					C29.2,27.1,28.8,27.6,28.2,27.6z"/>
				<path id="Shape_1_" class="st3" d="M21.3,26.5v-0.6l2.7-3.4l2.5,3.2c0.1,0.1,0.1,0.1,0.2,0.1s0.2-0.1,0.2-0.2s0-0.2,0-0.2
					l-0.6-0.8l0.9-0.9l1.5,1.5v1.1l0,0v0.2L21.3,26.5L21.3,26.5z M21.3,20.2h7.4v0.7v3.6l-1.3-1.3c-0.1-0.1-0.2-0.1-0.3,0L26,24.3
					L24.2,22c-0.1-0.1-0.1-0.1-0.2-0.1c-0.1,0-0.1,0-0.2,0.1l-2.5,3.2V20.2z"/>
			</g>
		</g>
	</g>
	<g>
		<path class="st3" d="M30.8,9.5L30.8,9.5c-0.4-0.1-0.7-0.1-1.1-0.1h-9.8c-0.3,0-0.7,0-1,0.1h-0.1c-2.9,0.5-5,3-5,6v19.7
			c0,3.4,2.8,6.1,6.1,6.1h9.8c3.4,0,6.1-2.8,6.1-6.1V15.5C35.9,12.5,33.7,10,30.8,9.5z M28.1,11.8l-0.5,0.7
			c-0.1,0.1-0.2,0.2-0.3,0.2h-4.9c-0.1,0-0.3-0.1-0.3-0.2l-0.5-0.7H28.1z M33.4,35.2c0,2-1.7,3.7-3.7,3.7h-9.8c-2,0-3.7-1.7-3.7-3.7
			V15.5c0-1.6,1-2.9,2.4-3.4L20,14c0.5,0.7,1.4,1.1,2.3,1.1h4.9c0.9,0,1.8-0.4,2.3-1.1l1.4-1.9c1.4,0.5,2.4,1.9,2.4,3.4v19.7H33.4z"
			/>
		<path class="st3" d="M26.5,34h-3.3c-0.7,0-1.2,0.6-1.2,1.2s0.6,1.2,1.2,1.2h3.3c0.7,0,1.2-0.6,1.2-1.2S27.1,34,26.5,34z"/>
	</g>
	<g id="_x31_7">
		<path class="st3" d="M28.6,30.4l1,2.2l-0.4,0.2l-1.1-2.3l-1.3,1.6c0-0.4,0-5.2,0-5.2l3.6,3.6L28.6,30.4z"/>
	</g>
</g>
</svg>
