<svg xmlns="http://www.w3.org/2000/svg" id="Layer_1" x="0" y="0" version="1.1" viewBox="0 0 50 50" xml:space="preserve"><style>.st2{fill:#464646}</style><path fill="#c86060" d="M44.7 21.9L23.9 10 4.6 17v20.3l40.8-14.9c-.2-.2-.4-.4-.7-.5z"/><path fill="#e06b6b" d="M9.1 2.3c-2-1.2-4.6.3-4.6 2.6v12.8l19.3-7L9.1 2.3z"/><path d="M7.8 49.5c-.7 0-1.5-.2-2.2-.6-1.3-.8-2.1-2.2-2.1-3.7V4.8c0-1.5.8-2.9 2.1-3.7C7 .3 8.6.3 9.9 1l35.5 20.2c.6.3.8 1.1.5 1.7-.3.6-1.1.8-1.7.5L8.7 3.2c-.6-.3-1.2-.3-1.8 0-.6.4-.9.9-.9 1.6v40.4c0 .6.3 1.2.9 1.6.6.3 1.2.3 1.8 0L38.2 30c.6-.3 1.4-.1 1.7.5.3.6.1 1.4-.5 1.7L9.9 49c-.6.3-1.4.5-2.1.5z" class="st2"/><path d="M20.9 20.8c0 1.5-.5 2.7-1.4 3.5-1 .8-2.3 1.2-4.1 1.2h-1.3v4.8c0 .2-.1.3-.3.3h-2.4c-.2 0-.3-.1-.3-.3V16.7c0-.2.1-.3.3-.3h4.2c1.7 0 3.1.4 4 1.1.9.7 1.3 1.9 1.3 3.3zm-6.8 2.3h1c.9 0 1.6-.2 2.1-.6.5-.4.7-.9.7-1.6 0-.7-.2-1.2-.6-1.6-.4-.3-1-.5-1.8-.5h-1.4v4.3zm15.5 4.4c0 1.1-.4 2-1.2 2.6-.8.6-1.9.9-3.5.9-.8 0-1.5-.1-2-.2s-.9-.2-1.4-.4c-.1 0-.2-.2-.2-.3v-1.7c0-.2.2-.4.4-.3.4.2.9.3 1.4.5.7.2 1.3.3 1.8.3 1.1 0 1.6-.3 1.6-.9 0-.2-.1-.4-.2-.6-.1-.1-.4-.3-.7-.5l-1.4-.7c-.8-.4-1.5-.7-1.9-1-.4-.3-.7-.6-.9-1s-.3-.9-.3-1.4c0-1 .4-1.7 1.1-2.3.8-.5 1.8-.8 3.2-.8 1.2 0 2.4.2 3.6.7.2.1.2.3.2.4l-.6 1.6c-.1.2-.3.2-.4.2-.4-.1-.7-.3-1-.4-.5-.2-1-.3-1.6-.3-.9 0-1.4.2-1.4.7 0 .3.1.5.4.7.3.2.9.5 1.9.9.9.3 1.5.7 1.9 1 .4.3.7.6.9 1 .2.2.3.7.3 1.3z" class="st2"/></svg>