<?xml version="1.0" encoding="utf-8"?>
<!-- Generator: Adobe Illustrator 22.1.0, SVG Export Plug-In . SVG Version: 6.00 Build 0)  -->
<svg version="1.1" id="Layer_1" xmlns="http://www.w3.org/2000/svg" xmlns:xlink="http://www.w3.org/1999/xlink" x="0px" y="0px"
	 viewBox="0 0 50 50" style="enable-background:new 0 0 50 50;" xml:space="preserve">
<style type="text/css">
	.st0{fill:#E56060;}
	.st1{fill:#FF6B6B;}
	.st2{fill:#444444;}
</style>
<g>
	<g>
		<path class="st0" d="M48.1,25c0-7-3.1-13.3-8.1-17.5L2.2,21.3C2,22.5,1.9,23.7,1.9,25c0,6.5,2.7,12.3,7,16.5L48,27.3
			C48.1,26.5,48.1,25.8,48.1,25z"/>
	</g>
	<g>
		<path class="st1" d="M25,1.9c-11.5,0-21,8.4-22.8,19.4L40.1,7.5C36,4,30.8,1.9,25,1.9z"/>
	</g>
	<g>
		<path class="st2" d="M25,49.4C11.6,49.4,0.6,38.4,0.6,25S11.6,0.6,25,0.6S49.4,11.6,49.4,25c0,1.3-0.1,2.6-0.3,3.8
			c-0.1,0.7-0.7,1.2-1.4,1c-0.7-0.1-1.1-0.7-1-1.4c0.2-1.1,0.3-2.3,0.3-3.5c0-12.1-9.8-21.9-21.9-21.9C12.9,3.1,3.1,12.9,3.1,25
			c0,12.1,9.8,21.9,21.9,21.9c6,0,11.5-2.4,15.7-6.6c0.5-0.5,1.3-0.5,1.8,0c0.5,0.5,0.5,1.3,0,1.8C37.8,46.7,31.6,49.4,25,49.4z"/>
	</g>
	<path class="st2" d="M45.7,25c0-11.4-9.3-20.7-20.7-20.7c-0.3,0-0.6,0.2-0.7,0.5C13.5,5.3,4.8,14.1,4.8,25c0,11.1,9,20.2,20.2,20.2
		c10.9,0,19.7-8.7,20.1-19.5C45.4,25.6,45.7,25.3,45.7,25z M25,44.7C14.2,44.7,5.3,35.8,5.3,25c0-10.6,8.4-19.3,19-19.6
		c0.1,0.3,0.4,0.5,0.7,0.5c10.6,0,19.2,8.6,19.2,19.2c0,0.3,0.2,0.6,0.5,0.7C44.3,36.2,35.6,44.7,25,44.7z"/>
	<g>
		<path class="st2" d="M25,45.7C13.6,45.7,4.3,36.4,4.3,25c0-0.4,0.3-0.8,0.8-0.8s0.8,0.3,0.8,0.8c0,10.6,8.6,19.2,19.2,19.2
			c0.4,0,0.8,0.3,0.8,0.8S25.4,45.7,25,45.7z"/>
	</g>
	<g>
		<path class="st2" d="M36.3,27.9l-1.9-0.4v-2.1l-1.5-0.5l0,0l-1.7-0.5v-0.5c0-1.1-0.7-2-1.6-2.4v-0.9l2.6-0.9l-0.1-0.2
			c0.3-0.1,0.7-0.2,1.1-0.4L33,17.8l-0.3-0.9L32.1,15l0.5-0.5l-0.2-0.2l0.2-0.2l0.8-0.7l-0.2-0.3l-1.9,1.7l0.4,1.6l0,0l0.5,2
			l-0.3,0.1l0,0l-0.8,0.2l-0.2,0.1l0,0l-1.4,0.4c-0.2-0.6-0.6-1.1-1.3-1.3v-1c0-0.8-0.7-1.5-1.5-1.5h0v-1.8c0,0.5-0.9,1.8-1.8,1.8
			c-0.9,0-1.8-1.3-1.8-1.8v1.8h0c-0.8,0-1.5,0.7-1.5,1.5v1c-0.6,0.2-1.1,0.7-1.3,1.3l-2.3-0.7v0l-0.3-0.1l0.5-2h0l0.4-1.6l-1.9-1.7
			l-0.2,0.3l0.8,0.7l0.2,0.2l-0.2,0.2l0.5,0.5l-0.5,1.9L17,17.8L16.7,19c0.5,0.2,0.8,0.3,1.1,0.4l-0.1,0.2l2.6,0.9v0.9
			c-0.9,0.4-1.6,1.3-1.6,2.4v0.5l-1.7,0.5l0,0l-1.5,0.5v2.1l-1.9,0.4l0.1,0.3l1.1-0.2l0.1,0.3l1.4-0.2l0.1-1.2l0-0.5l0-0.4l0.3-0.1
			l0.4-0.1l0.1,0l0.1,0.2l1.3-0.3v3.6c0,0.6,0.1,1.2,0.3,1.7l-0.2,0.2v0L17.8,32v3.1v0.7l-1.1,0.9l0.2,0.3l0.7-0.5l0.2-0.2l0.2,0.2
			l0.5-0.4l0.1-1.9l0.1-0.9l0-0.5l0-0.1l0-0.1l0-0.1c0,0,0.1,0,0.1-0.1l0.1,0.2l0.8-0.5c0.8,1,2.1,1.7,3.5,1.7H25h1.8
			c1.4,0,2.7-0.7,3.5-1.7l0.8,0.5l0.1-0.2c0.1,0,0.1,0.1,0.1,0.1l0,0.1l0,0.1l0,0.1l0,0.5l0.1,0.9l0.1,1.9l0.5,0.4l0.2-0.2l0.2,0.2
			l0.7,0.5l0.2-0.3l-0.9-0.7l0,0l-0.2-0.2v-0.7V32l-1.1-0.8l0,0L30.9,31c0.2-0.5,0.3-1.1,0.3-1.7v-3.6l1.3,0.3l0.1-0.2l0.1,0
			l0.4,0.1l0.3,0.1l0,0.4l0,0.5l0.1,1.2l1.4,0.2l0.1-0.3l1.1,0.2L36.3,27.9z"/>
	</g>
</g>
</svg>
