<?xml version="1.0" encoding="utf-8"?>
<!-- Generator: Adobe Illustrator 22.1.0, SVG Export Plug-In . SVG Version: 6.00 Build 0)  -->
<svg version="1.1" id="Layer_1" xmlns="http://www.w3.org/2000/svg" xmlns:xlink="http://www.w3.org/1999/xlink" x="0px" y="0px"
	 viewBox="0 0 50 50" style="enable-background:new 0 0 50 50;" xml:space="preserve">
<style type="text/css">
	.st0{fill:#F799FF;}
	.st1{fill:#E589EF;}
	.st2{fill:#444444;}
</style>
<g>
	<g>
		<path class="st0" d="M23.7,6.2c-10.3,0-18.9,7.1-21.3,16.6l34.1-12.4C32.9,7.7,28.5,6.2,23.7,6.2z"/>
	</g>
	<g>
		<path class="st1" d="M45.6,28.1c0-7.3-3.6-13.8-9.1-17.7L2.5,22.8c-0.4,1.7-0.7,3.5-0.7,5.3c0,6.2,2.5,11.7,6.6,15.7l37.1-13.5
			C45.6,29.6,45.6,28.8,45.6,28.1z"/>
	</g>
	<g>
		<path class="st2" d="M23,38.1c-6,0-10.9-4.9-10.9-10.9S17,16.4,23,16.4s10.9,4.9,10.9,10.9c0,3.6-1.7,6.9-4.7,8.9
			c-0.2,0.1-0.4,0.1-0.5-0.1c-0.1-0.2-0.1-0.4,0.1-0.5c2.7-1.9,4.3-5,4.3-8.3c0-5.6-4.5-10.1-10.1-10.1s-10.1,4.5-10.1,10.1
			c0,5.6,4.5,10.1,10.1,10.1c0.5,0,1.1,0,1.6-0.1c0.2,0,0.4,0.1,0.4,0.3c0,0.2-0.1,0.4-0.3,0.4C24.2,38.1,23.6,38.1,23,38.1z"/>
	</g>
	<g>
		<g>
			<g>
				<circle class="st2" cx="20" cy="24.4" r="2.4"/>
			</g>
			<g>
				<path class="st2" d="M27.6,33L27.6,33l0.1-7.1c0-2.7-1.9-4.9-4.5-5.4c0.6,0.6,1.1,1.1,1.5,1.9c0.1,0.3,0,0.6-0.3,0.7
					c-0.3,0.1-0.6,0-0.7-0.3c-0.6-1.5-2-2.4-3.7-2.4c-2.2,0-4,1.8-4,4s1.8,4,4,4c0.3,0,0.6,0.3,0.6,0.6s-0.3,0.6-0.6,0.6
					c-0.6,0-1.1-0.1-1.7-0.3c0.1,0.4,0.3,0.7,0.6,1.1c0.3,0.6,0.6,1,1.2,1.4c1,0.7,2.2,1.1,3.8,1l-0.9-1.1v-0.1
					c0-0.1,0.1-0.3,0.2-0.4c0.3-0.2,0.6-0.1,0.7,0.1c0.8,1.1,2.1,1.7,3.5,1.7C27.4,33,27.5,33,27.6,33z M20,27.4
					c-1.7,0-3.1-1.4-3.1-3.1c0-1.7,1.4-3.1,3.1-3.1c1.7,0,3.1,1.4,3.1,3.1C22.9,26.2,21.6,27.4,20,27.4z M25.3,28.9
					c-0.5,0-0.8-0.4-0.8-0.8c0-0.5,0.4-0.8,0.8-0.8c0.5,0,0.8,0.4,0.8,0.8C26,28.5,25.6,28.9,25.3,28.9z"/>
			</g>
			<g>
				<path class="st2" d="M29.3,36.9c-0.9,0-1.7-0.7-1.7-1.7V34c-0.1,0-0.2,0-0.3,0c-0.1,0-0.2,0-0.4,0c-0.6,0-1.1-0.1-1.6-0.3v1.5
					c0,1.9,1.7,3.4,3.5,3.4c1.5,0,3.2-0.9,3.4-2.6l-1.5-0.2C30.6,36.5,30,36.9,29.3,36.9z"/>
			</g>
		</g>
		<g>
			<path class="st2" d="M29.6,33.2c0.2-0.2,0.3-0.6,0.1-0.7c0-0.1-0.1-0.1-0.2-0.2c-0.2,0-0.4,0-0.6,0.1c-0.1,0.1-0.2,0.2-0.3,0.2
				c-0.1,0.1-0.3,0.2-0.5,0.3v1.1C28.7,33.8,29.2,33.6,29.6,33.2z"/>
		</g>
	</g>
	<path class="st2" d="M31.4,13c-0.4-0.2-0.8-0.1-1,0.3c-0.2,0.4-0.1,0.8,0.3,1c4.9,2.7,7.9,7.9,7.9,13.4c0,8.5-6.9,15.4-15.4,15.4
		c-4.9,0-9.6-2.4-12.4-6.4l2.5,0.4c0.4,0.1,0.8-0.2,0.9-0.6c0.1-0.4-0.2-0.8-0.6-0.9L9.6,35c-0.3-0.1-0.6,0-0.9,0.2
		c-0.3,0.2-0.4,0.5-0.5,0.8l-0.7,3.9c-0.1,0.4,0.2,0.8,0.6,0.9c0,0,0.1,0,0.1,0c0.4,0,0.7-0.3,0.7-0.6l0.5-2.6
		c3.2,4.4,8.3,7.1,13.7,7.1c9.3,0,16.9-7.6,16.9-16.9C40.1,21.6,36.7,16,31.4,13z"/>
	<path class="st2" d="M49.3,32.3c-0.3-0.6-1.1-0.8-1.7-0.5l-1.1,0.6c0.3-1.4,0.4-2.8,0.4-4.3c0-12.8-10.4-23.2-23.2-23.2
		S0.6,15.3,0.6,28.1c0,6.3,2.5,12.2,7,16.6c0.2,0.2,0.6,0.4,0.9,0.4c0.3,0,0.7-0.1,0.9-0.4c0.5-0.5,0.5-1.3,0-1.8
		c-4-3.9-6.3-9.2-6.3-14.8c0-11.4,9.3-20.7,20.7-20.7c11.4,0,20.7,9.3,20.7,20.7c0,1.3-0.1,2.5-0.3,3.7l-0.7-1.4
		c-0.3-0.6-1.1-0.8-1.7-0.5c-0.6,0.3-0.8,1.1-0.5,1.7l1.9,3.5c0.2,0.4,0.6,0.7,1,0.8c0.2,0,0.3,0.1,0.5,0.1c0.3,0,0.6-0.1,0.8-0.2
		l3.5-1.9C49.4,33.6,49.6,32.9,49.3,32.3z"/>
</g>
</svg>
