<?xml version="1.0" encoding="utf-8"?>
<!-- Generator: Adobe Illustrator 22.0.1, SVG Export Plug-In . SVG Version: 6.00 Build 0)  -->
<svg version="1.1" id="Layer_1" xmlns="http://www.w3.org/2000/svg" xmlns:xlink="http://www.w3.org/1999/xlink" x="0px" y="0px"
	 viewBox="0 0 50 50" style="enable-background:new 0 0 50 50;" xml:space="preserve">
<style type="text/css">
	.st0{fill:#C05E80;}
	.st1{fill:#D7698D;}
	.st2{fill:#464646;}
</style>
<g>
	<path class="st0" d="M38.8,32c-0.9-0.9-2.1-1-3.1-0.5l-2.8-2.8c4.9-6.8,4.3-16.3-1.8-22.3c-0.2-0.2-0.5-0.4-0.7-0.6L1.9,16.1
		c-0.7,5.2,0.9,10.6,4.9,14.6c6,6,15.5,6.7,22.3,1.8l2.8,2.8c-0.5,1-0.3,2.2,0.5,3.1l1.2,1.2l9.4-3.4L38.8,32z"/>
	<path class="st1" d="M6.7,6.9C4,9.7,2.4,13.1,1.9,16.6L30.2,6.3C23.5,0.3,13.1,0.5,6.7,6.9z"/>
	<path class="st2" d="M49.4,42.8c-0.1-0.7-0.7-1.2-1.4-1.1c-0.7,0.1-1.2,0.7-1.1,1.4c0.2,1-0.2,2.1-0.9,2.8c-1.2,1.2-3.4,1.2-4.7,0
		l-8-8c-0.3-0.3-0.4-0.7-0.4-1.1l3.9-3.9c0,0,0.1,0,0.1-0.1c0.4,0,0.8,0.1,1.1,0.4l3.8,3.8c0.5,0.5,1.3,0.5,1.8,0s0.5-1.3,0-1.8
		l-3.8-3.8c-1-1-2.3-1.4-3.6-1.1L34.6,29c4.7-7.3,3.7-16.8-2.5-23.1c-7.2-7.2-19-7.2-26.2,0c-7.2,7.2-7.2,19,0,26.2
		c6.2,6.2,15.8,7.2,23.1,2.5l1.6,1.6c-0.3,1.3,0.1,2.7,1.1,3.6l8,8c1.1,1.1,2.5,1.7,4.1,1.7c1.5,0,3-0.6,4.1-1.7
		C49.1,46.5,49.7,44.7,49.4,42.8z M29.3,31.3L28.4,32c-6.4,4.6-15.1,4-20.7-1.6c-6.2-6.2-6.2-16.4,0-22.6c6.2-6.2,16.4-6.2,22.6,0
		c5.6,5.6,6.3,14.3,1.6,20.7l-0.6,0.9l3.6,3.6l-2.1,2.1L29.3,31.3z"/>
	<path class="st2" d="M26.4,21.1l-1.6-1.5c-0.1-0.1-0.2-0.1-0.3-0.1l-1.2-0.1V19c0-0.5-0.1-1-0.2-1.5l1.6-0.6c0.1,0,0.2-0.1,0.3-0.2
		l0.9-2c0.1-0.2,0-0.5-0.2-0.6c-0.2-0.1-0.5,0-0.6,0.2l-0.9,1.8l-1.3,0.5c-0.2-0.4-0.4-0.8-0.7-1.1c0,0-0.1-0.1-0.2-0.2v-1.7
		c0-0.6-0.3-1.2-0.8-1.5l-1.2-0.8c-0.2-0.2-0.5-0.2-0.9-0.2c-0.3,0-0.6,0.1-0.9,0.2l-1.2,0.8c-0.5,0.3-0.8,1-0.8,1.5v1.7
		c-0.1,0.1-0.2,0.2-0.2,0.2c-0.2,0.3-0.5,0.6-0.6,1L14,16.1l-0.9-1.8C13,14,12.8,13.9,12.5,14c-0.2,0.1-0.3,0.4-0.2,0.6l0.9,2
		c0.1,0.1,0.1,0.2,0.3,0.2l1.4,0.6c-0.1,0.5-0.2,1-0.2,1.5v0.3l-1.2,0.1c-0.1,0-0.2,0.1-0.3,0.1l-1.6,1.5c-0.2,0.2-0.2,0.5,0,0.7
		c0.1,0.1,0.2,0.1,0.3,0.1c0.1,0,0.2,0,0.3-0.1l1.4-1.4l1-0.1v1.5c0,0.3,0,0.5,0.1,0.8l-1,0.5c-0.1,0-0.2,0.1-0.2,0.2
		c-0.4,0.9-1.1,2.2-1.2,2.4c-0.1,0.2-0.1,0.5,0.1,0.6c0.1,0.1,0.2,0.1,0.3,0.1c0.2,0,0.3-0.1,0.4-0.2c0,0,0.1-0.1,1.2-2.3l0.8-0.4
		c0.7,1.5,2.2,2.6,3.9,2.6s3.3-1.1,3.9-2.6l0.8,0.4c1.1,2.2,1.1,2.3,1.2,2.3c0.1,0.1,0.2,0.2,0.4,0.2c0.1,0,0.2,0,0.3-0.1
		c0.2-0.1,0.3-0.4,0.1-0.6c-0.1-0.1-0.8-1.5-1.2-2.4c0-0.1-0.1-0.2-0.2-0.2l-1-0.5c0-0.2,0.1-0.5,0.1-0.8v-1.5l1,0.1l1.4,1.4
		c0.1,0.1,0.2,0.1,0.3,0.1c0.1,0,0.2,0,0.3-0.1C26.6,21.6,26.6,21.3,26.4,21.1z"/>
	<g>
		<path class="st2" d="M19,33.3c-8,0-14.5-6.5-14.5-14.5S11,4.2,19,4.2c8,0,14.5,6.5,14.5,14.5S27,33.3,19,33.3z M19,5.7
			c-7.2,0-13,5.8-13,13s5.8,13,13,13c7.2,0,13-5.8,13-13S26.2,5.7,19,5.7z"/>
	</g>
</g>
</svg>
