<?xml version="1.0" encoding="utf-8"?>
<!-- Generator: Adobe Illustrator 26.5.0, SVG Export Plug-In . SVG Version: 6.00 Build 0)  -->
<svg version="1.1" id="Layer_1" xmlns="http://www.w3.org/2000/svg" xmlns:xlink="http://www.w3.org/1999/xlink" x="0px" y="0px"
	 viewBox="0 0 50 50" style="enable-background:new 0 0 50 50;" xml:space="preserve">
<style type="text/css">
	.st0{fill:#E56060;}
	.st1{fill:#FF6B6B;}
	.st2{fill:#444444;}
</style>
<g>
	<g>
		<path class="st0" d="M35.2,16.9v15.2l-1.9,2.5l0,0l-7.8,1.1v-0.6c-1,0.1-1.9,0.2-2.8,0.2c-3.5,0-6.5-1-8.9-2.8
			c-1.6-1.3-2.8-2.8-3.6-4.3c-1.1-2-1.5-3.9-1.7-4.9c-3-2.2-5.1-5.8-5.1-9.8C3.4,7,8.7,1.7,15.2,1.7c0.5,0,1,0,1.4,0.1
			c0.4,0,1.5,0,3.6,0C28.5,1.8,35.2,8.6,35.2,16.9z"/>
	</g>
	<g>
		<path class="st1" d="M35.2,16.9V19l-2.3,0.9l-3.8,1.4l-3.5,1.2l-13,4.7l-2.4,0.9c-1.1-2-1.5-3.9-1.7-4.9c-3-2.1-5.1-5.7-5.1-9.7
			C3.4,7,8.7,1.7,15.2,1.7c0.5,0,1,0,1.4,0.1c0.4,0,1.5,0,3.6,0C28.5,1.8,35.2,8.6,35.2,16.9z"/>
	</g>
	<path class="st2" d="M46.2,39.2l-4.7-0.9c-1-0.2-2.1,0.4-2.4,1.4c-0.2,0.7-0.8,1.1-1.5,1.1c-0.8,0-1.5-0.7-1.5-1.5v-3.6
		c1.2-0.4,2.4-1.1,3.4-1.9c0.5-0.4,0.6-1.2,0.2-1.7c-0.1-0.2-0.3-0.3-0.5-0.4c-0.4-0.1-0.8-0.1-1.2,0.2c-0.2,0.2-0.5,0.4-0.8,0.5
		C36.8,32.6,36.4,33,36,33V16.8C36,8,28.9,0.9,20.1,0.9c-2.2,0-3.4,0-3.8,0c-0.5-0.1-1-0.1-1.5-0.1C8.1,0.8,2.6,6.4,2.6,13.2
		c0,4.2,2.1,8,5.4,10.2c0.1,1.1,0.6,3.1,1.8,5.2c0.7,1.2,1.5,2.5,2.7,3.6l-6.4,5.9c-0.4-0.3-0.9-0.4-1.4-0.4c-1.4,0-2.6,1.2-2.6,2.6
		c0,1.4,1.2,2.6,2.6,2.6s2.6-1.2,2.6-2.6c0-0.4-0.1-0.7-0.2-1l6.6-6.1c2.5,1.9,5.6,2.9,9.3,2.9c0.9,0,1.9-0.1,2.9-0.2v3.4
		c0,5.9,5.1,10.8,11.1,10.8c5.6,0,10.2-3.6,10.9-8.7C47.9,40.5,47.2,39.5,46.2,39.2z M24.3,29.9c-0.4-0.6-1.2-0.7-1.7-0.3
		c-0.3,0.2-0.5,0.6-0.5,1c0,0.1-0.1,0.2-0.1,0.3l2.3,2.6c-3.5,0.3-6.5-0.4-8.8-2.1L26,21.8c0.3,0.1,0.5,0.1,0.8,0.1
		c1.4,0,2.6-1.2,2.6-2.6s-1.2-2.6-2.6-2.6c-0.7,0-1.3,0.3-1.7,0.7l-3.4-1.8c0.3-0.8,0.4-1.6,0.4-2.5c0-4-3.3-7.3-7.3-7.3
		S7.5,9,7.5,13s3.3,7.3,7.3,7.3c2.6,0,4.9-1.4,6.2-3.5l3.4,1.7c-0.1,0.2-0.1,0.4-0.1,0.7c0,0.6,0.2,1.1,0.5,1.6l-10.4,9.7
		c-0.9-0.8-1.6-1.8-2.1-2.7c-0.6-1-1-1.9-1.2-2.7c1.2,0.4,2.6,0.7,4,0.7c0.7,0,1.3-0.6,1.3-1.3c0-0.7-0.6-1.3-1.3-1.3
		c-5.4,0-9.8-4.4-9.8-9.8C5.2,7.8,9.6,3.5,15,3.5c3.9,0,7.4,2.3,9,5.9c0.3,0.7,1.1,1,1.8,0.7s1-1.1,0.7-1.8c-0.8-1.8-2-3.4-3.5-4.6
		c6.1,1.2,10.8,6.7,10.8,13.2v17c-0.1,0-0.2,0-0.3,0c-0.2,0-0.4,0.1-0.6,0.1C29.4,34.2,26.2,32.8,24.3,29.9z M14.8,10.4
		c-1.4,0-2.6,1.2-2.6,2.6s1.2,2.6,2.6,2.6c0.8,0,1.5-0.4,2-0.9l2.8,1.4c-1,1.6-2.8,2.6-4.8,2.6c-3.2,0-5.8-2.6-5.8-5.8
		s2.6-5.8,5.8-5.8s5.8,2.6,5.8,5.8c0,0.6-0.1,1.2-0.3,1.8l-2.9-1.5c0-0.1,0-0.2,0-0.3C17.4,11.5,16.3,10.4,14.8,10.4z M36.9,47.8
		c-4.7,0-8.6-3.8-8.6-8.4v-3.6c1.2,0.4,2.5,0.6,3.8,0.6c0.3,0,0.6,0,0.9,0c0.2,0,0.5,0,0.7-0.1v3c0,2.2,1.8,4,4,4
		c1.7,0,3.1-1,3.7-2.5l3.9,0.8C44.5,45.6,40.6,47.8,36.9,47.8z"/>
</g>
</svg>
