<?xml version="1.0" encoding="utf-8"?>
<!-- Generator: Adobe Illustrator 22.1.0, SVG Export Plug-In . SVG Version: 6.00 Build 0)  -->
<svg version="1.1" id="Layer_1" xmlns="http://www.w3.org/2000/svg" xmlns:xlink="http://www.w3.org/1999/xlink" x="0px" y="0px"
	 viewBox="0 0 50 50" style="enable-background:new 0 0 50 50;" xml:space="preserve">
<style type="text/css">
	.st0{fill:#FDCF72;}
	.st1{fill:#FCC34F;}
	.st2{fill:#444444;}
</style>
<g>
	<g>
		<path class="st0" d="M30.2,7h1.4C32.4,7,33,6.4,33,5.6v-2c0-0.8-0.6-1.4-1.4-1.4H18.4c-0.8,0-1.4,0.6-1.4,1.4v2
			C17,6.4,17.6,7,18.4,7h1.4v7.4c-1.3,0.4-2.5,1-3.7,1.6L30.2,11V7z"/>
	</g>
	<g>
		<path class="st1" d="M30.2,14.4V11l-14.1,5.1c-5.1,3-8.6,8.6-8.6,15c0,3.5,1.1,6.8,2.9,9.6l31.9-11.6
			C41.5,22.2,36.7,16.5,30.2,14.4z"/>
	</g>
	<path class="st2" d="M31.4,13.2V7.9h0.2c1.5,0,2.7-1.2,2.7-2.7v-2c0-1.5-1.2-2.7-2.7-2.7H18.4c-1.5,0-2.7,1.2-2.7,2.7v2
		c0,1.5,1.2,2.7,2.7,2.7h0.2v5.3c-7.4,2.7-12.2,9.6-12.2,17.5c0,10.3,8.4,18.7,18.7,18.7c10.3,0,18.7-8.4,18.7-18.7
		C43.7,22.8,38.8,15.9,31.4,13.2z M18.4,5.4c-0.1,0-0.2-0.1-0.2-0.2v-2c0-0.1,0.1-0.2,0.2-0.2h13.2c0.1,0,0.2,0.1,0.2,0.2v2
		c0,0.1-0.1,0.2-0.2,0.2H18.4z M20.2,15.3l0.9-0.3V7.9h7.9V15l0.9,0.3c5.8,1.8,10,6.6,11.1,12.4c-3.5,1.5-6.3-0.2-6.5-0.3
		c-5.1-2.7-9.3-0.7-10.4,0c-3.7,2-6.8,0.1-7,0c-3.1-1.6-5.8-1.6-7.6-1C10.9,21.2,14.8,17,20.2,15.3z M25,47
		c-8.9,0-16.2-7.3-16.2-16.2c0-0.6,0-1.3,0.1-1.9c0.5-0.5,3.2-1.8,7.1,0.3c0.2,0.1,4.1,2.6,9,0c0.9-0.6,4.3-2.2,8.4,0
		c0.1,0.1,1.9,1.2,4.5,1.2c1,0,2.1-0.2,3.2-0.6c0,0.3,0,0.7,0,1C41.2,39.7,33.9,47,25,47z"/>
	<g>
		<circle class="st2" cx="18" cy="33.9" r="2.4"/>
	</g>
	<g>
		<circle class="st2" cx="30.7" cy="35.2" r="2.4"/>
	</g>
	<g>
		<circle class="st2" cx="21.6" cy="41.3" r="1.8"/>
	</g>
	<g>
		<circle class="st2" cx="23.3" cy="11.5" r="1"/>
	</g>
	<g>
		<circle class="st2" cx="23.7" cy="23" r="1.3"/>
	</g>
	<g>
		<circle class="st2" cx="26.3" cy="17.3" r="1.8"/>
	</g>
</g>
</svg>
