<?xml version="1.0" encoding="utf-8"?>
<!-- Generator: Adobe Illustrator 22.1.0, SVG Export Plug-In . SVG Version: 6.00 Build 0)  -->
<svg version="1.1" id="Layer_1" xmlns="http://www.w3.org/2000/svg" xmlns:xlink="http://www.w3.org/1999/xlink" x="0px" y="0px"
	 viewBox="0 0 50 50" style="enable-background:new 0 0 50 50;" xml:space="preserve">
<style type="text/css">
	.st0{fill:#FDCF72;}
	.st1{fill:#FCC34F;}
	.st2{fill:#444444;}
	.st3{fill:#444344;}
</style>
<g>
	<g>
		<path class="st0" d="M42.1,6.5c0-0.5-0.1-1-0.4-1.4c-0.2-0.4-0.5-0.7-0.9-0.9c-0.5-0.3-1-0.5-1.5-0.5H14.9c-1.5,0-2.8,1.3-2.8,2.8
			v1.8c0,0.1,0,0.2,0,0.4v8.4c-1.2,0.2-2.2,1-2.7,2c-1.9,0.5-3.7,1.5-5,2.9c-0.4,0.4-0.7,0.7-1,1.1L42.1,9V6.5z"/>
	</g>
	<g>
		<path class="st1" d="M45.4,20.7c0-1.9-1.4-3.5-3.2-3.7V9L3.4,23.1c-1.2,1.6-1.9,3.5-1.9,5.5c0,2.5,1,4.8,2.8,6.6
			C5.6,36.5,7.2,37.5,9,38v0.5H8.2c-1.3,0-2.4,1.1-2.4,2.4v0.8v0.8c0,0,0,0,0,0l39.5-14.4V20.7z"/>
	</g>
	<g>
		<path class="st2" d="M44.7,47.5H9.6c-2.7,0-5-2.2-5-5V41c0-1.1,0.5-2.2,1.4-2.8c-0.9-0.5-1.8-1.2-2.5-1.9
			c-2.1-2.1-3.2-4.7-3.2-7.5c0-2.8,1.1-5.5,3.2-7.5c1.4-1.4,3.1-2.4,5.1-3.1c0.6-0.8,1.3-1.5,2.3-1.9V8.8c0-0.1,0-0.3,0-0.4V6.5
			c0-2.2,1.8-4.1,4-4.1h24.4c0.8,0,1.5,0.2,2.2,0.7c0.5,0.3,1,0.8,1.3,1.4c0.4,0.6,0.6,1.3,0.6,2.1v9.6c1.9,0.7,3.2,2.6,3.2,4.7v6.1
			c0,0.7-0.6,1.2-1.2,1.2s-1.2-0.6-1.2-1.2v-6.1c0-1.2-0.9-2.3-2.2-2.5l-1.1-0.1V6.6c0-0.3-0.1-0.5-0.2-0.8
			c-0.1-0.2-0.3-0.4-0.5-0.6C39.9,5.1,39.6,5,39.3,5H14.9c-0.9,0-1.5,0.7-1.5,1.6v1.8c0,0.1,0,0.1,0,0.2l0,0.2v9.5l-1,0.2
			c-0.8,0.1-1.4,0.6-1.8,1.3l-0.2,0.5l-0.5,0.1c-1.7,0.5-3.3,1.4-4.5,2.6c-1.6,1.6-2.5,3.6-2.5,5.8s0.9,4.2,2.5,5.8
			c1.1,1.1,2.5,2,4.1,2.5l0.9,0.3v2.7h-2c-0.6,0-1.1,0.5-1.1,1.1v1.5c0,1.4,1.1,2.5,2.5,2.5h35.1c1.4,0,2.5-1.1,2.5-2.5V41
			c0-0.6-0.5-1.1-1.1-1.1h-2v-5.7c0-0.7,0.6-1.2,1.2-1.2s1.2,0.6,1.2,1.2v3.3c1.8,0.2,3.1,1.8,3.1,3.6v1.5
			C49.7,45.3,47.5,47.5,44.7,47.5z"/>
	</g>
	<g>
		<g>
			<path class="st2" d="M34.7,8.2c0,0.3-0.2,0.5-0.5,0.5c-0.3,0-0.5-0.2-0.5-0.5c0-0.3,0.2-0.5,0.5-0.5C34.5,7.7,34.7,7.9,34.7,8.2z
				"/>
		</g>
		<g>
			<path class="st2" d="M36.2,8.2c0,0.3-0.2,0.5-0.5,0.5c-0.3,0-0.5-0.2-0.5-0.5c0-0.3,0.2-0.5,0.5-0.5C36,7.7,36.2,7.9,36.2,8.2z"
				/>
		</g>
		<g>
			<path class="st2" d="M37.7,8.2c0,0.3-0.2,0.5-0.5,0.5c-0.3,0-0.5-0.2-0.5-0.5c0-0.3,0.2-0.5,0.5-0.5C37.4,7.7,37.7,7.9,37.7,8.2z
				"/>
		</g>
	</g>
	<g>
		<path class="st3" d="M40.4,19.5h-1V6.5L15,6.5l0.1,13h-1V6.5c0-0.5,0.4-0.9,0.9-0.9h24.4c0.5,0,0.9,0.4,0.9,0.9V19.5z"/>
	</g>
	<g>
		<path class="st3" d="M43.6,41.6H10.9V20.9c0-1,0.8-1.9,1.9-1.9h28.9c1,0,1.9,0.8,1.9,1.9V41.6z M11.9,40.6h30.6V20.9
			c0-0.5-0.4-0.9-0.9-0.9H12.8c-0.5,0-0.9,0.4-0.9,0.9V40.6z"/>
	</g>
	<g>
		<path class="st2" d="M44.8,44.5H9.7c-1,0-1.9-0.8-1.9-1.9v-2h38.9v2C46.7,43.6,45.8,44.5,44.8,44.5z M8.8,41.6v1
			c0,0.5,0.4,0.9,0.9,0.9h35.1c0.5,0,0.9-0.4,0.9-0.9v-1H8.8z"/>
	</g>
	<g>
		<g>
			<g>
				<path class="st2" d="M37,33.3H26.5c-0.6,0-1-0.6-1-1.5v-6.6c0-0.8,0.4-1.5,1-1.5H37c0.6,0,1,0.6,1,1.5v6.6
					C38,32.7,37.6,33.3,37,33.3z M37,24.5l-10.5,0c-0.1,0-0.2,0.3-0.2,0.7v6.6c0,0.5,0.2,0.7,0.2,0.7l10.5,0c0.1,0,0.2-0.3,0.2-0.7
					v-6.6C37.3,24.8,37.1,24.5,37,24.5z"/>
			</g>
			<g>
				<g>
					<g>
						<polygon class="st2" points="32.4,26.9 31.1,28.8 30.2,27.9 28,31 35.3,31 						"/>
					</g>
				</g>
				<g>
					<g>
						<path class="st2" d="M34.4,27.8c0.5,0,0.8-0.4,0.8-0.8c0-0.5-0.4-0.8-0.8-0.8c-0.5,0-0.8,0.4-0.8,0.8
							C33.6,27.4,33.9,27.8,34.4,27.8z"/>
					</g>
				</g>
			</g>
		</g>
		<g>
			<g>
				<path class="st2" d="M37.6,37.4H26c-0.1,0-0.2-0.1-0.2-0.2s0.1-0.2,0.2-0.2h11.6c0.1,0,0.2,0.1,0.2,0.2S37.7,37.4,37.6,37.4z"/>
			</g>
			<g>
				<path class="st2" d="M37.6,38.5H26c-0.1,0-0.2-0.1-0.2-0.2S25.8,38,26,38h11.6c0.1,0,0.2,0.1,0.2,0.2S37.7,38.5,37.6,38.5z"/>
			</g>
			<g>
				<path class="st2" d="M37.6,36.4H26c-0.1,0-0.2-0.1-0.2-0.2s0.1-0.2,0.2-0.2h11.6c0.1,0,0.2,0.1,0.2,0.2S37.7,36.4,37.6,36.4z"/>
			</g>
			<g>
				<path class="st2" d="M37.6,35.4H26c-0.1,0-0.2-0.1-0.2-0.2s0.1-0.2,0.2-0.2h11.6c0.1,0,0.2,0.1,0.2,0.2S37.7,35.4,37.6,35.4z"/>
			</g>
		</g>
	</g>
	<g>
		<g>
			<path class="st2" d="M20.1,11.4c0-0.2,0.2-0.5,0.5-0.5h1.7c1,0,1.8,0.6,1.8,1.9c0,1.2-0.9,1.8-1.8,1.8h-1.2v1
				c0,0.3-0.2,0.5-0.5,0.5c-0.2,0-0.5-0.2-0.5-0.5C20.1,15.6,20.1,11.4,20.1,11.4z M21.1,11.8v1.8h1.2c0.5,0,0.9-0.4,0.9-0.9
				c0-0.5-0.4-0.9-0.9-0.9L21.1,11.8L21.1,11.8z"/>
		</g>
		<g>
			<path class="st2" d="M24.9,15.6v-4.2c0-0.3,0.2-0.5,0.5-0.5c0.3,0,0.5,0.2,0.5,0.5V13h2.4v-1.6c0-0.3,0.2-0.5,0.5-0.5
				c0.3,0,0.5,0.2,0.5,0.5v4.2c0,0.3-0.2,0.5-0.5,0.5c-0.3,0-0.5-0.2-0.5-0.5V14h-2.4v1.6c0,0.3-0.2,0.5-0.5,0.5
				C25.1,16.1,24.9,15.9,24.9,15.6z"/>
		</g>
		<g>
			<path class="st2" d="M30.4,11.4c0-0.2,0.2-0.5,0.5-0.5h1.7c1,0,1.8,0.6,1.8,1.9c0,1.2-0.9,1.8-1.8,1.8h-1.2v1
				c0,0.3-0.2,0.5-0.5,0.5c-0.2,0-0.5-0.2-0.5-0.5V11.4L30.4,11.4z M31.3,11.8v1.8h1.2c0.5,0,0.9-0.4,0.9-0.9c0-0.5-0.4-0.9-0.9-0.9
				L31.3,11.8L31.3,11.8z"/>
		</g>
	</g>
	<g>
		<g>
			<g>
				<path class="st2" d="M21.9,29h-4c-0.5,0-0.9-0.4-0.9-0.9v-3.5c0-0.5,0.4-0.9,0.9-0.9h4c0.5,0,0.9,0.4,0.9,0.9v3.5
					C22.8,28.6,22.4,29,21.9,29z M18,24.5c-0.1,0-0.1,0.1-0.1,0.1v3.5c0,0.1,0.1,0.1,0.1,0.1h4c0.1,0,0.1-0.1,0.1-0.1v-3.5
					c0-0.1-0.1-0.1-0.1-0.1H18z"/>
			</g>
			<g>
				<path class="st2" d="M21.9,34h-4c-0.5,0-0.9-0.4-0.9-0.9v-3.5c0-0.5,0.4-0.9,0.9-0.9h4c0.5,0,0.9,0.4,0.9,0.9v3.5
					C22.8,33.6,22.4,34,21.9,34z M18,29.5c-0.1,0-0.1,0.1-0.1,0.1v3.5c0,0.1,0.1,0.1,0.1,0.1h4c0.1,0,0.1-0.1,0.1-0.1v-3.5
					c0-0.1-0.1-0.1-0.1-0.1H18z"/>
			</g>
			<g>
				<path class="st2" d="M21.9,39h-4c-0.5,0-0.9-0.4-0.9-0.9v-3.5c0-0.5,0.4-0.9,0.9-0.9h4c0.5,0,0.9,0.4,0.9,0.9v3.5
					C22.8,38.6,22.4,39,21.9,39z M18,34.6c-0.1,0-0.1,0.1-0.1,0.1v3.5c0,0.1,0.1,0.1,0.1,0.1h4c0.1,0,0.1-0.1,0.1-0.1v-3.5
					c0-0.1-0.1-0.1-0.1-0.1H18z"/>
			</g>
		</g>
		<g>
			<g>
				<g>
					<path class="st2" d="M19.2,32.3c0.6-1.1,1-2.3,1-3.6c0-4.2-3.6-7.5-8.1-7.5s-8.1,3.4-8.1,7.5s3.6,7.5,8.1,7.5
						c1.7,0,3.3-0.5,4.7-1.4l6.6,3.1L19.2,32.3z M8.3,30.4c-0.6,0-1.1-0.5-1.1-1.2c0-0.7,0.5-1.2,1.1-1.2s1.1,0.5,1.1,1.2
						C9.4,29.9,8.9,30.4,8.3,30.4z M12,30.4c-0.6,0-1.1-0.5-1.1-1.2c0-0.7,0.5-1.2,1.1-1.2c0.6,0,1.1,0.5,1.1,1.2
						C13.1,29.9,12.6,30.4,12,30.4z M15.7,30.4c-0.6,0-1.1-0.5-1.1-1.2c0-0.7,0.5-1.2,1.1-1.2c0.6,0,1.1,0.5,1.1,1.2
						C16.8,29.9,16.3,30.4,15.7,30.4z"/>
				</g>
			</g>
			<g>
				<path class="st1" d="M15.7,28c-0.6,0-1.1,0.5-1.1,1.2c0,0.7,0.5,1.2,1.1,1.2c0.6,0,1.1-0.5,1.1-1.2C16.8,28.5,16.3,28,15.7,28z"
					/>
			</g>
			<g>
				<path class="st1" d="M12,28c-0.6,0-1.1,0.5-1.1,1.2c0,0.7,0.5,1.2,1.1,1.2c0.6,0,1.1-0.5,1.1-1.2C13.1,28.5,12.6,28,12,28z"/>
			</g>
		</g>
	</g>
</g>
</svg>
