<?xml version="1.0" encoding="UTF-8"?>
<svg width="45px" height="46px" viewBox="0 0 45 46" version="1.1" xmlns="http://www.w3.org/2000/svg" xmlns:xlink="http://www.w3.org/1999/xlink">
    <!-- Generator: Sketch 54.1 (76490) - https://sketchapp.com -->
    <title>php-primeiros-passos-4</title>
    <desc>Created with Sketch.</desc>
    <g id="Page-1" stroke="none" stroke-width="1" fill="none" fill-rule="evenodd">
        <g id="php-primeiros-passos-4">
            <g id="Group-20">
                <polygon id="Fill-1" fill="#E56060" points="42.4046 20.1223 10.2236 31.8353 9.2866 31.3533 12.8046 23.9663 5.8566 24.4943 3.3936 20.6173 43.8506 8.9043 41.8286 14.9953"></polygon>
                <polygon id="Fill-2" fill="#FF6B6B" points="32.6808 3.7384 28.7238 1.2754 1.7228 11.0374 3.8338 14.6434 4.4838 23.6104 44.1568 9.1704 42.2678 2.4194 35.5828 0.9234"></polygon>
                <g id="Group-19" transform="translate(0.000000, 0.056500)">
                    <path d="M39.471,0.3871 C37.994,-0.0509 36.489,0.0021 35.117,0.5431 C33.975,0.9931 32.967,1.7751 32.157,2.8321 C31.075,1.7511 29.609,1.2031 27.792,1.2031 C26.706,1.2031 25.719,1.7011 24.766,2.1831 C23.958,2.5911 23.197,2.9751 22.528,2.9751 C21.858,2.9751 21.095,2.5911 20.288,2.1831 C19.334,1.7011 18.348,1.2031 17.262,1.2031 C15.446,1.2031 13.98,1.7511 12.898,2.8321 C12.547,2.3741 12.159,1.9671 11.736,1.6161 C11.365,1.3071 10.814,1.3581 10.505,1.7291 C10.197,2.1001 10.247,2.6511 10.618,2.9601 C11.066,3.3321 11.467,3.7911 11.817,4.3291 C11.126,5.6551 10.808,7.3001 10.716,9.0951 C10.024,8.0931 9.202,7.3231 8.244,6.7691 C7.826,6.5281 7.292,6.6711 7.05,7.0891 C6.809,7.5071 6.952,8.0411 7.37,8.2831 C8.975,9.2091 10.121,11.0051 10.875,13.7691 C11.047,15.5351 11.31,17.3111 11.556,18.9651 C11.611,19.3421 11.665,19.7101 11.718,20.0671 C11.881,21.1921 11.99,22.2161 12.015,23.1581 C11.528,23.2441 11.063,23.3601 10.611,23.4731 C9.52,23.7451 8.49,24.0031 7.308,23.7661 C6.228,23.5491 5.405,23.0111 4.861,22.1671 C4.046,20.9021 3.875,19.0161 4.378,16.8581 C4.831,14.9121 3.966,13.2141 3.13,11.5721 C2.543,10.4191 1.988,9.3301 1.913,8.2241 C1.784,6.3171 2.505,4.5181 3.892,3.2891 C4.253,2.9691 4.286,2.4161 3.966,2.0551 C3.646,1.6941 3.094,1.6601 2.733,1.9811 C0.937,3.5721 0.003,5.8901 0.169,8.3421 C0.268,9.8041 0.931,11.1061 1.572,12.3651 C2.298,13.7901 2.984,15.1371 2.675,16.4611 C2.064,19.0841 2.318,21.4461 3.391,23.1131 C4.189,24.3521 5.424,25.1711 6.964,25.4791 C8.532,25.7941 9.804,25.4761 11.034,25.1691 C11.343,25.0921 11.646,25.0161 11.948,24.9521 C11.638,27.6101 10.317,29.5791 7.105,31.4531 C6.784,31.6391 6.617,32.0061 6.686,32.3691 C6.754,32.7331 7.044,33.0141 7.409,33.0721 C8.116,33.1821 10.617,33.4671 13.154,32.4841 C14.923,31.7991 16.35,30.6351 17.384,29.0541 L18.409,40.9491 C18.601,43.1731 20.296,44.8501 22.352,44.8501 C24.408,44.8501 26.102,43.1731 26.294,40.9491 L26.359,40.1941 C26.401,39.7131 26.044,39.2891 25.563,39.2481 C25.082,39.2061 24.658,39.5631 24.617,40.0441 L24.552,40.7991 C24.453,41.9431 23.666,43.1021 22.352,43.1021 C21.037,43.1021 20.25,41.9431 20.152,40.7991 L18.131,17.3581 C18.029,16.2161 17.116,15.2011 16.256,14.7031 C15.838,14.4611 15.303,14.6041 15.061,15.0211 C14.82,15.4391 14.961,15.9741 15.379,16.2161 C15.843,16.4851 16.348,17.0441 16.389,17.5111 L16.942,23.9221 C15.75,23.3151 14.707,23.0741 13.764,23.0321 C13.73,21.9551 13.602,20.8731 13.449,19.8161 C13.396,19.4561 13.341,19.0871 13.285,18.7091 C12.598,14.0791 11.671,7.8421 13.553,4.8081 C13.564,4.7921 13.575,4.7751 13.585,4.7581 C13.696,4.5851 13.816,4.4221 13.945,4.2721 C14.711,3.3831 15.796,2.9511 17.262,2.9511 C17.931,2.9511 18.694,3.3361 19.5,3.7431 C20.454,4.2251 21.442,4.7241 22.528,4.7241 C23.613,4.7241 24.6,4.2251 25.554,3.7431 C26.361,3.3361 27.123,2.9511 27.792,2.9511 C29.258,2.9511 30.343,3.3831 31.11,4.2721 C31.24,4.4221 31.359,4.5851 31.47,4.7581 C31.48,4.7751 31.491,4.7921 31.501,4.8081 C33.383,7.8421 32.457,14.0791 31.769,18.7091 C31.713,19.0871 31.659,19.4561 31.606,19.8161 C31.452,20.8731 31.325,21.9551 31.291,23.0321 C30.251,23.0781 29.091,23.3661 27.744,24.1181 L28.314,17.5141 C28.356,17.0441 28.861,16.4851 29.324,16.2161 C29.742,15.9741 29.884,15.4391 29.642,15.0211 C29.4,14.6041 28.866,14.4621 28.448,14.7031 C27.588,15.2021 26.674,16.2161 26.573,17.3611 L25.292,32.2061 C25.251,32.6871 25.608,33.1101 26.088,33.1521 C26.114,33.1541 26.14,33.1551 26.164,33.1551 C26.614,33.1551 26.995,32.8111 27.034,32.3561 L27.363,28.5511 C28.413,30.3891 29.949,31.7281 31.901,32.4841 C33.364,33.0511 34.816,33.1961 35.917,33.1961 C36.726,33.1961 37.346,33.1181 37.645,33.0721 C38.01,33.0141 38.3,32.7331 38.368,32.3691 C38.437,32.0061 38.269,31.6391 37.95,31.4521 C34.737,29.5791 33.416,27.6101 33.107,24.9521 C33.409,25.0161 33.71,25.0921 34.02,25.1691 C35.25,25.4761 36.523,25.7941 38.09,25.4791 C39.63,25.1711 40.866,24.3521 41.663,23.1131 C42.736,21.4461 42.991,19.0841 42.379,16.4611 C42.071,15.1371 42.756,13.7901 43.483,12.3651 C44.04,11.2691 44.615,10.1411 44.82,8.9021 L44.82,6.6251 C44.391,3.6921 42.359,1.2451 39.471,0.3871 M13.224,27.2361 C13.496,26.4431 13.651,25.6191 13.723,24.7811 C14.655,24.8281 15.679,25.1331 16.942,25.9321 C15.613,30.0281 12.537,31.1581 10.248,31.3981 C11.717,30.1721 12.682,28.8141 13.224,27.2361 M34.805,31.3981 C32.516,31.1581 29.442,30.0271 28.113,25.9321 C29.375,25.1331 30.399,24.8281 31.331,24.7811 C31.403,25.6191 31.558,26.4431 31.829,27.2361 C32.372,28.8141 33.336,30.1721 34.805,31.3981 M43.141,8.2231 C43.066,9.3291 42.511,10.4181 41.924,11.5711 C41.088,13.2141 40.223,14.9121 40.676,16.8581 C41.179,19.0161 41.008,20.9011 40.194,22.1661 C39.65,23.0111 38.826,23.5491 37.746,23.7651 C36.565,24.0031 35.533,23.7451 34.444,23.4731 C33.992,23.3601 33.527,23.2441 33.039,23.1581 C33.065,22.2161 33.173,21.1911 33.336,20.0671 C33.388,19.7091 33.443,19.3421 33.498,18.9651 C33.744,17.3101 34.007,15.5351 34.179,13.7691 C34.933,11.0051 36.079,9.2091 37.684,8.2831 C38.102,8.0411 38.245,7.5071 38.004,7.0891 C37.762,6.6711 37.228,6.5271 36.81,6.7691 C35.852,7.3221 35.031,8.0931 34.338,9.0941 C34.246,7.3001 33.928,5.6551 33.238,4.3291 C34.596,2.2361 36.709,1.3901 38.973,2.0631 C41.138,2.7061 43.366,4.9081 43.141,8.2231" id="Fill-3" fill="#444444"></path>
                    <path d="M39.471,0.3871 C37.994,-0.0509 36.489,0.0021 35.117,0.5431 C33.975,0.9931 32.967,1.7751 32.157,2.8321 C31.075,1.7511 29.609,1.2031 27.792,1.2031 C26.706,1.2031 25.719,1.7011 24.766,2.1831 C23.958,2.5911 23.197,2.9751 22.528,2.9751 C21.858,2.9751 21.095,2.5911 20.288,2.1831 C19.334,1.7011 18.348,1.2031 17.262,1.2031 C15.446,1.2031 13.98,1.7511 12.898,2.8321 C12.547,2.3741 12.159,1.9671 11.736,1.6161 C11.365,1.3071 10.814,1.3581 10.505,1.7291 C10.197,2.1001 10.247,2.6511 10.618,2.9601 C11.066,3.3321 11.467,3.7911 11.817,4.3291 C11.126,5.6551 10.808,7.3001 10.716,9.0951 C10.024,8.0931 9.202,7.3231 8.244,6.7691 C7.826,6.5281 7.292,6.6711 7.05,7.0891 C6.809,7.5071 6.952,8.0411 7.37,8.2831 C8.975,9.2091 10.121,11.0051 10.875,13.7691 C11.047,15.5351 11.31,17.3111 11.556,18.9651 C11.611,19.3421 11.665,19.7101 11.718,20.0671 C11.881,21.1921 11.99,22.2161 12.015,23.1581 C11.528,23.2441 11.063,23.3601 10.611,23.4731 C9.52,23.7451 8.49,24.0031 7.308,23.7661 C6.228,23.5491 5.405,23.0111 4.861,22.1671 C4.046,20.9021 3.875,19.0161 4.378,16.8581 C4.831,14.9121 3.966,13.2141 3.13,11.5721 C2.543,10.4191 1.988,9.3301 1.913,8.2241 C1.784,6.3171 2.505,4.5181 3.892,3.2891 C4.253,2.9691 4.286,2.4161 3.966,2.0551 C3.646,1.6941 3.094,1.6601 2.733,1.9811 C0.937,3.5721 0.003,5.8901 0.169,8.3421 C0.268,9.8041 0.931,11.1061 1.572,12.3651 C2.298,13.7901 2.984,15.1371 2.675,16.4611 C2.064,19.0841 2.318,21.4461 3.391,23.1131 C4.189,24.3521 5.424,25.1711 6.964,25.4791 C8.532,25.7941 9.804,25.4761 11.034,25.1691 C11.343,25.0921 11.646,25.0161 11.948,24.9521 C11.638,27.6101 10.317,29.5791 7.105,31.4531 C6.784,31.6391 6.617,32.0061 6.686,32.3691 C6.754,32.7331 7.044,33.0141 7.409,33.0721 C8.116,33.1821 10.617,33.4671 13.154,32.4841 C14.923,31.7991 16.35,30.6351 17.384,29.0541 L18.409,40.9491 C18.601,43.1731 20.296,44.8501 22.352,44.8501 C24.408,44.8501 26.102,43.1731 26.294,40.9491 L26.359,40.1941 C26.401,39.7131 26.044,39.2891 25.563,39.2481 C25.082,39.2061 24.658,39.5631 24.617,40.0441 L24.552,40.7991 C24.453,41.9431 23.666,43.1021 22.352,43.1021 C21.037,43.1021 20.25,41.9431 20.152,40.7991 L18.131,17.3581 C18.029,16.2161 17.116,15.2011 16.256,14.7031 C15.838,14.4611 15.303,14.6041 15.061,15.0211 C14.82,15.4391 14.961,15.9741 15.379,16.2161 C15.843,16.4851 16.348,17.0441 16.389,17.5111 L16.942,23.9221 C15.75,23.3151 14.707,23.0741 13.764,23.0321 C13.73,21.9551 13.602,20.8731 13.449,19.8161 C13.396,19.4561 13.341,19.0871 13.285,18.7091 C12.598,14.0791 11.671,7.8421 13.553,4.8081 C13.564,4.7921 13.575,4.7751 13.585,4.7581 C13.696,4.5851 13.816,4.4221 13.945,4.2721 C14.711,3.3831 15.796,2.9511 17.262,2.9511 C17.931,2.9511 18.694,3.3361 19.5,3.7431 C20.454,4.2251 21.442,4.7241 22.528,4.7241 C23.613,4.7241 24.6,4.2251 25.554,3.7431 C26.361,3.3361 27.123,2.9511 27.792,2.9511 C29.258,2.9511 30.343,3.3831 31.11,4.2721 C31.24,4.4221 31.359,4.5851 31.47,4.7581 C31.48,4.7751 31.491,4.7921 31.501,4.8081 C33.383,7.8421 32.457,14.0791 31.769,18.7091 C31.713,19.0871 31.659,19.4561 31.606,19.8161 C31.452,20.8731 31.325,21.9551 31.291,23.0321 C30.251,23.0781 29.091,23.3661 27.744,24.1181 L28.314,17.5141 C28.356,17.0441 28.861,16.4851 29.324,16.2161 C29.742,15.9741 29.884,15.4391 29.642,15.0211 C29.4,14.6041 28.866,14.4621 28.448,14.7031 C27.588,15.2021 26.674,16.2161 26.573,17.3611 L25.292,32.2061 C25.251,32.6871 25.608,33.1101 26.088,33.1521 C26.114,33.1541 26.14,33.1551 26.164,33.1551 C26.614,33.1551 26.995,32.8111 27.034,32.3561 L27.363,28.5511 C28.413,30.3891 29.949,31.7281 31.901,32.4841 C33.364,33.0511 34.816,33.1961 35.917,33.1961 C36.726,33.1961 37.346,33.1181 37.645,33.0721 C38.01,33.0141 38.3,32.7331 38.368,32.3691 C38.437,32.0061 38.269,31.6391 37.95,31.4521 C34.737,29.5791 33.416,27.6101 33.107,24.9521 C33.409,25.0161 33.71,25.0921 34.02,25.1691 C35.25,25.4761 36.523,25.7941 38.09,25.4791 C39.63,25.1711 40.866,24.3521 41.663,23.1131 C42.736,21.4461 42.991,19.0841 42.379,16.4611 C42.071,15.1371 42.756,13.7901 43.483,12.3651 C44.04,11.2691 44.615,10.1411 44.82,8.9021 L44.82,6.6251 C44.391,3.6921 42.359,1.2451 39.471,0.3871 Z M13.224,27.2361 C13.496,26.4431 13.651,25.6191 13.723,24.7811 C14.655,24.8281 15.679,25.1331 16.942,25.9321 C15.613,30.0281 12.537,31.1581 10.248,31.3981 C11.717,30.1721 12.682,28.8141 13.224,27.2361 Z M34.805,31.3981 C32.516,31.1581 29.442,30.0271 28.113,25.9321 C29.375,25.1331 30.399,24.8281 31.331,24.7811 C31.403,25.6191 31.558,26.4431 31.829,27.2361 C32.372,28.8141 33.336,30.1721 34.805,31.3981 Z M43.141,8.2231 C43.066,9.3291 42.511,10.4181 41.924,11.5711 C41.088,13.2141 40.223,14.9121 40.676,16.8581 C41.179,19.0161 41.008,20.9011 40.194,22.1661 C39.65,23.0111 38.826,23.5491 37.746,23.7651 C36.565,24.0031 35.533,23.7451 34.444,23.4731 C33.992,23.3601 33.527,23.2441 33.039,23.1581 C33.065,22.2161 33.173,21.1911 33.336,20.0671 C33.388,19.7091 33.443,19.3421 33.498,18.9651 C33.744,17.3101 34.007,15.5351 34.179,13.7691 C34.933,11.0051 36.079,9.2091 37.684,8.2831 C38.102,8.0411 38.245,7.5071 38.004,7.0891 C37.762,6.6711 37.228,6.5271 36.81,6.7691 C35.852,7.3221 35.031,8.0931 34.338,9.0941 C34.246,7.3001 33.928,5.6551 33.238,4.3291 C34.596,2.2361 36.709,1.3901 38.973,2.0631 C41.138,2.7061 43.366,4.9081 43.141,8.2231 Z" id="Stroke-5" stroke="#444444" stroke-width="0.3"></path>
                    <path d="M20.2669,19.2415 L24.2469,19.2415" id="Stroke-7" stroke="#444444" stroke-width="1.5" stroke-linecap="round" stroke-linejoin="round"></path>
                    <path d="M20.8313,25.1288 L23.6833,25.1288" id="Stroke-9" stroke="#444444" stroke-width="1.5" stroke-linecap="round" stroke-linejoin="round"></path>
                    <path d="M21.5003,31.0164 L23.0143,31.0164" id="Stroke-11" stroke="#444444" stroke-width="1.5" stroke-linecap="round" stroke-linejoin="round"></path>
                    <path d="M21.7747,36.9037 L22.7397,36.9037" id="Stroke-13" stroke="#444444" stroke-width="1.5" stroke-linecap="round" stroke-linejoin="round"></path>
                    <path d="M17.9446,8.6122 C17.9446,8.6122 21.1596,11.7062 26.3436,8.6122" id="Stroke-15" stroke="#444444" stroke-width="1.5" stroke-linecap="round" stroke-linejoin="round"></path>
                    <path d="M26.1546,32.2196 L25.4756,40.2426" id="Stroke-17" stroke="#444444" stroke-width="2.05" stroke-linecap="round" stroke-linejoin="round"></path>
                </g>
            </g>
        </g>
    </g>
</svg>