<svg xmlns="http://www.w3.org/2000/svg" version="1" viewBox="0 0 50 50"><path fill="#71BAC0" d="M42.564 30.106h-.284V8.388c0-.583-.467-1.061-1.061-1.061h-3.045v-3.83a1.05 1.05 0 0 0-1.061-1.061h-24.23c-.584 0-1.061.467-1.061 1.061v3.83H8.779c-.584 0-1.061.478-1.061 1.061V24.2l-3.346 5.906a1.06 1.06 0 0 0-1.061 1.06v13.227l39.253-14.287z"/><path fill="#7ED0D6" d="M38.185 7.327h-.038v-3.83a1.05 1.05 0 0 0-1.061-1.061h-24.23c-.584 0-1.061.467-1.061 1.061v3.83H8.751c-.584 0-1.061.478-1.061 1.061v10.039l30.495-11.1z"/><g fill="#444"><path d="M47.381 29.975l-.001-.003-4.039-6.148V8.388c0-1.17-.952-2.122-2.122-2.122h-1.984V3.497a2.1 2.1 0 0 0-2.122-2.122h-24.23c-1.17 0-2.122.952-2.122 2.122v2.769H8.778c-1.17 0-2.122.952-2.122 2.122v15.453L2.65 29.936c-.026.037-.05.074-.074.112l-.008.012-.004.01a2.097 2.097 0 0 0-.315 1.097v15.341c0 1.168.949 2.117 2.117 2.117h23.746a1.06 1.06 0 1 0 0-2.122l-23.74.005-.001-15.329.008-.012 3.337.001h.002l8.899.002v2.342c0 1.176.956 2.132 2.132 2.132h12.5a2.134 2.134 0 0 0 2.132-2.132l.003-2.346h8.89l.005.001.005-.001h3.343v9.437a1.061 1.061 0 1 0 2.122 0v-9.437a2.091 2.091 0 0 0-.368-1.191zm-3.148-.93h-.892v-1.357l.892 1.357zM12.884 3.497h24.23v2.769h-24.23V3.497zM6.657 27.703v1.343h-.883l.883-1.343zm24.604 3.467l-.01 2.353-12.511-.01V31.17a2.127 2.127 0 0 0-2.125-2.125H8.778V8.388H41.22v20.657h-7.834a2.127 2.127 0 0 0-2.125 2.125z"/><path d="M21.887 39.81a.796.796 0 0 0 0 1.592h6.225a.796.796 0 0 0 0-1.592h-6.225zm-5.469-27.121H33.58a.796.796 0 0 0 0-1.592H16.418a.796.796 0 0 0 0 1.592zm19.869 3.713H11.823a.796.796 0 0 0 0 1.592h24.464a.796.796 0 0 0 0-1.592zm-24.464 4.774h17.568a.796.796 0 0 0 0-1.592H11.823a.796.796 0 0 0 0 1.592zm0 3.182H33.58a.796.796 0 0 0 0-1.592H11.823a.796.796 0 0 0 0 1.592zm24.464 1.592H11.823a.796.796 0 0 0 0 1.592h24.464a.796.796 0 0 0 0-1.592z"/></g></svg>