<?xml version="1.0" encoding="utf-8"?>
<!-- Generator: Adobe Illustrator 22.0.1, SVG Export Plug-In . SVG Version: 6.00 Build 0)  -->
<svg version="1.1" id="Layer_1" xmlns="http://www.w3.org/2000/svg" xmlns:xlink="http://www.w3.org/1999/xlink" x="0px" y="0px"
	 viewBox="0 0 50 50" style="enable-background:new 0 0 50 50;" xml:space="preserve">
<style type="text/css">
	.st0{fill:#70C6DF;}
	.st1{fill:#7DDDFA;}
	.st2{fill:#464646;}
	.st3{fill-rule:evenodd;clip-rule:evenodd;fill:#464646;}
</style>
<g>
	<g>
		<path class="st0" d="M47,24.5c0-6.2-2.5-11.8-6.6-15.8L2.7,22.4c-0.1,0.7-0.1,1.4-0.1,2.1c0,6.3,2.6,11.9,6.8,16l37.5-13.6
			C47,26,47,25.3,47,24.5z"/>
	</g>
	<g>
		<path class="st1" d="M24.8,2.3c-11.5,0-21,8.8-22.1,20.1L40.4,8.6C36.4,4.7,30.9,2.3,24.8,2.3z"/>
	</g>
	<path class="st2" d="M46,14.1c-3-5.8-8.1-10-14.4-11.8C22.7-0.3,13,2.6,7,9.7l-0.4,0.5l1.1,4.5c0.2,0.7,0.8,1.1,1.5,0.9
		c0.2-0.1,0.4-0.2,0.6-0.4l0.1,0c4.5-6.8,12.8-9.9,20.7-7.6C31.7,8,33,8.5,34.1,9.1l-1,3.3l10.9,3.2c0.2,0.2,0.5,0.3,0.8,0.3
		c0.2,0,0.4,0,0.6-0.1C46.1,15.5,46.3,14.7,46,14.1z M35.4,8.1c-1.4-0.8-2.9-1.4-4.5-1.9c-7.8-2.3-16.1,0.4-21.1,6.6l-0.5-2
		c5.4-6,13.8-8.4,21.6-6.2c5,1.5,9.2,4.6,12,9L35,11.4l0.9-3L35.4,8.1z"/>
	<path class="st2" d="M24.8,43.4c-0.3-0.3-0.8-0.4-1.2-0.3c-7.9-0.7-14.4-6.3-16.3-14c-0.3-1.3-0.5-2.6-0.5-3.9l3.4-0.8L7.3,13.3
		c0.1-0.5,0-1.1-0.5-1.4c-0.6-0.4-1.4-0.2-1.7,0.4c-3.5,5.5-4.6,12-3,18.4c2.2,9,9.6,16,18.7,17.6l0.6,0.1l3.3-3.2
		C25.3,44.7,25.3,43.9,24.8,43.4z M20.6,45.7C12.7,44,6.4,37.9,4.5,30.1C3.2,25,3.9,19.8,6.3,15.2l2,8L5.2,24v0.6
		c0,1.6,0.2,3.2,0.6,4.8c1.9,7.9,8.3,13.7,16.2,15L20.6,45.7z"/>
	<path class="st2" d="M47.3,17l-0.2-0.6l-4.4-1.3c-0.7-0.2-1.4,0.2-1.5,0.9c-0.1,0.5,0,1,0.4,1.3c3.2,7.2,1.7,15.5-4.1,21
		c-0.9,0.9-2,1.7-3.1,2.4L32,38.2l-8.3,8c-0.5,0.1-0.9,0.6-0.9,1.1c0,0.7,0.5,1.3,1.2,1.3c0.4,0,0.7,0,1.1,0
		c6.1,0,11.9-2.3,16.4-6.6C48.1,35.6,50.4,25.8,47.3,17z M39.7,40.3c-3.8,3.6-8.6,5.6-13.8,5.9l6-5.8l2.2,2.3l0.5-0.3
		c1.4-0.8,2.7-1.8,3.9-2.9c5.9-5.6,7.7-14,4.9-21.5l1.8,0.5C47.6,26.1,45.5,34.6,39.7,40.3z"/>
	<g>
		<g>
			<path class="st3" d="M30.3,23.7h-0.4v3.1h0.3c0.5,0,0.8-0.1,1-0.4c0.2-0.3,0.3-0.7,0.3-1.2c0-0.5-0.1-0.9-0.3-1.1
				C31,23.9,30.7,23.7,30.3,23.7z"/>
		</g>
		<g>
			<path class="st3" d="M24.7,23.7h-0.4v3.1h0.3c0.5,0,0.8-0.1,1-0.4c0.2-0.3,0.3-0.7,0.3-1.2c0-0.5-0.1-0.9-0.3-1.1
				C25.4,23.9,25.1,23.7,24.7,23.7z"/>
		</g>
		<g>
			<path class="st3" d="M19.5,25.7H19v1.2h0.5c0.5,0,0.7-0.2,0.7-0.6c0-0.2-0.1-0.3-0.2-0.4C19.9,25.8,19.7,25.7,19.5,25.7z"/>
		</g>
		<g>
			<path class="st3" d="M20,24.5c0.1-0.1,0.2-0.2,0.2-0.4c0-0.3-0.2-0.5-0.7-0.5H19v1h0.4C19.7,24.6,19.8,24.6,20,24.5z"/>
		</g>
		<g>
			<path class="st3" d="M25.3,12.5c-7.1,0-12.8,5.7-12.8,12.8c0,7.1,5.7,12.8,12.8,12.8c7.1,0,12.8-5.7,12.8-12.8
				C38.1,18.2,32.4,12.5,25.3,12.5z M21.2,27.6c-0.4,0.3-0.9,0.4-1.5,0.4h-2.1v-5.5h1.9c0.8,0,1.3,0.1,1.7,0.3
				c0.4,0.2,0.5,0.6,0.5,1c0,0.3-0.1,0.6-0.2,0.8c-0.2,0.2-0.4,0.4-0.6,0.4v0c0.3,0.1,0.6,0.2,0.7,0.5c0.2,0.2,0.2,0.5,0.2,0.8
				C21.8,26.9,21.6,27.3,21.2,27.6z M26.7,27.3c-0.5,0.5-1.2,0.7-2.1,0.7h-1.8v-5.5h1.9c0.9,0,1.6,0.2,2.1,0.7
				c0.5,0.5,0.7,1.1,0.7,2C27.4,26.1,27.2,26.8,26.7,27.3z M32.3,27.3c-0.5,0.5-1.2,0.7-2.1,0.7h-1.8v-5.5h1.9
				c0.9,0,1.6,0.2,2.1,0.7c0.5,0.5,0.7,1.1,0.7,2C33.1,26.1,32.8,26.8,32.3,27.3z"/>
		</g>
	</g>
</g>
</svg>
