<svg xmlns="http://www.w3.org/2000/svg" id="Layer_1" x="0" y="0" version="1.1" viewBox="0 0 50 50" xml:space="preserve"><style>.st2{fill:#444}</style><path fill="#46b8b0" d="M4.1 25.5v.8c0 6.1 2.6 11.6 6.8 15.4-.1.4-.2.7-.2 1.2 0 2.2 1.8 4 4 4 1.1 0 2-.4 2.7-1.1 1.6.6 3.3 1 5.1 1.3l17.6-6.4c3.5-3.7 5.7-8.8 5.7-14.3v-.9c1.2-.7 2.1-2 2.1-3.5 0-2.2-1.7-3.9-3.8-4-2.7-6.4-8.4-11-15.3-12.3-.5-1.7-2-2.9-3.8-2.9-1.8 0-3.3 1.2-3.8 2.9-7 1.3-12.7 6-15.4 12.3-2.1.2-3.8 1.9-3.8 4 0 1.5.9 2.8 2.1 3.5z"/><path fill="#4ecdc4" d="M36.7 8.9c-2.3-1.6-5-2.7-7.8-3.2-.5-1.7-2-2.9-3.8-2.9-1.8 0-3.3 1.2-3.8 2.9C14.2 7 8.5 11.7 5.8 18c-1.9.1-3.4 1.6-3.7 3.5L36.7 8.9z"/><path d="M25 11c-8.4 0-15.2 6.8-15.2 15.2 0 8.4 6.8 15.2 15.2 15.2s15.2-6.8 15.2-15.2C40.2 17.9 33.4 11 25 11zm0 30.3c-8.3 0-15-6.7-15-15s6.7-15 15-15 15 6.7 15 15c0 8.2-6.7 15-15 15z" class="st2"/><path d="M49.2 21.8c0-2.5-1.8-4.7-4.2-5.2C42 10.4 36.4 6 29.8 4.5c-.9-1.8-2.7-3-4.8-3-2.1 0-3.9 1.2-4.8 3-6.7 1.5-12.4 6-15.3 12.3-2.4.5-4.1 2.6-4.1 5.1 0 1.6.8 3.1 2 4.1v.1c0 5.9 2.4 11.7 6.7 15.8 0 .3-.1.5-.1.7 0 2.9 2.4 5.3 5.3 5.3 1.1 0 2.1-.3 3-.9 2.4.8 4.8 1.3 7.3 1.3 2.4 0 4.9-.4 7.2-1.2.9.6 1.9.9 2.9.9.7 0 1.2-.6 1.2-1.2s-.6-1.2-1.2-1.2c-.7 0-1.3-.3-1.9-.7l-.4-.3c1.8-.8 3.4-1.8 4.9-3-.1.4 0 .8.3 1.1.5.5 1.3.6 1.8.1 4.7-4.2 7.3-10.2 7.3-16.4v-.3c1.3-1.1 2.1-2.6 2.1-4.3zm-5.1-2.7c1.5.1 2.6 1.3 2.6 2.8 0 1-.6 1.9-1.5 2.4l-.4.2c-.2-1.9-.6-3.7-1.3-5.4h.6zm-21.7-13c.3-1.2 1.4-2 2.6-2s2.3.8 2.6 2l.1.5c-.9-.1-1.8-.2-2.8-.2s-1.9.1-2.8.2l.3-.5zM17 44.5l-.4.4c-.5.5-1.2.8-1.9.8-1.5 0-2.8-1.2-2.8-2.8 0-.2 0-.5.1-.8l.1-.5c1.6 1.1 3.2 2.1 4.9 2.9zM5.1 24.6l-.4-.2c-.9-.5-1.4-1.4-1.4-2.4 0-1.4 1.1-2.6 2.6-2.7h.5c-.7 1.6-1.1 3.4-1.3 5.3zm27.6 19.8c-1.3.5-2.6.9-3.9 1.2-1.7.3-3.5.5-5.3.3-1.8-.1-3.6-.5-5.2-1.1-.1 0-.2-.1-.3-.1l-.7-.3c-1.8-.8-3.5-1.8-5-3.1l-.5-.4c-4.1-3.7-6.4-9-6.4-14.5V25c.1-2.2.6-4.3 1.4-6.2l.1-.2v-.1c.2-.4.4-.9.6-1.3.1-.2.2-.3.3-.5.3-.5.5-.9.8-1.4v-.1c.3-.5.7-.9 1-1.3l.2-.2c.4-.4.8-.9 1.2-1.3l.1-.1c.4-.4.8-.8 1.3-1.1l.1-.1c.4-.4.9-.7 1.3-1 .1-.1.2-.1.3-.2.4-.2.8-.5 1.1-.7.2-.1.3-.2.5-.3.4-.2.7-.4 1.1-.5.3-.1.5-.2.8-.3.2-.1.4-.2.6-.2.5-.2 1-.3 1.6-.5.1 0 .3-.1.4-.1.3-.1.7-.2 1-.2h.1c1.1-.2 2.3-.3 3.5-.3 1.2 0 2.3.1 3.5.3h.1c.3.1.7.1 1 .2.1 0 .3.1.4.1.5.1 1.1.3 1.6.5.4-.1.6 0 .8.1.3.1.5.2.8.3.3.1.6.3.9.5.3.1.5.3.8.4.3.2.6.4.9.5.2.1.3.2.5.3l1.2.9c.1.1.2.2.4.3.3.3.7.6 1 .9.1.1.2.1.2.2.4.4.7.7 1 1.1.1.1.2.3.4.4.3.4.6.7.8 1.1.1.2.3.4.4.6.2.3.3.5.5.8.1.2.3.5.4.7.2.3.3.6.5 1 0 .1.1.1.1.2l.2.4c.8 1.8 1.2 3.8 1.4 5.9l.1 1.2v.5c0 5.5-2.4 10.9-6.5 14.6-1.3 1.2-2.7 2.2-4.3 3l-1.2.6z" class="st2"/><path fill="none" d="M21.6 19.7c-1.3 0-2.4 1.1-2.4 2.4 0 1.3 1.1 2.4 2.4 2.4 1.3 0 2.4-1.1 2.4-2.4 0-1.3-1.1-2.4-2.4-2.4zm0 4.3c-1.1 0-1.9-.9-1.9-1.9 0-1.1.9-1.9 1.9-1.9 1.1 0 1.9.9 1.9 1.9 0 1.1-.9 1.9-1.9 1.9z"/><circle cx="20.4" cy="20.6" r="2.6" class="st2"/><path d="M28.6 29.9h.1v-7.6c0-2.9-2-5.3-4.8-5.8.7.6 1.2 1.2 1.6 2.1.1.3 0 .6-.3.8-.3.1-.6 0-.8-.3-.7-1.6-2.2-2.6-4-2.6-2.4 0-4.3 1.9-4.3 4.3s1.9 4.3 4.3 4.3c.3 0 .6.3.6.6s-.3.6-.6.6c-.6 0-1.2-.1-1.8-.3.1.4.3.8.6 1.2.3.6.7 1.1 1.3 1.5 1.1.8 2.4 1.2 4.1 1.1l-1-1.2v-.1c0-.1.1-.3.2-.4.3-.2.6-.1.8.1.9 1.2 2.3 1.8 3.8 1.8 0-.1.1-.1.2-.1zm-8.2-6c-1.8 0-3.3-1.5-3.3-3.3 0-1.8 1.5-3.3 3.3-3.3 1.8 0 3.3 1.5 3.3 3.3-.1 1.9-1.5 3.3-3.3 3.3zm5.7 1.6c-.5 0-.9-.4-.9-.9s.4-.9.9-.9.9.4.9.9c-.1.4-.5.9-.9.9zm4.4 8.6c-1 0-1.8-.8-1.8-1.8V31H28c-.6 0-1.2-.1-1.7-.3v1.6c0 2 1.8 3.7 3.8 3.7 1.6 0 3.4-1 3.7-2.8l-1.6-.2c-.3.7-1 1.1-1.7 1.1zm.3-4c.2-.2.3-.6.1-.8 0-.1-.1-.1-.2-.2-.2 0-.4 0-.6.1-.1.1-.2.2-.3.2-.1.1-.3.2-.5.3v1.2c.5-.2 1-.4 1.5-.8z" class="st2"/></svg>