<svg xmlns="http://www.w3.org/2000/svg" id="Camada_1" x="0" y="0" version="1.1" viewBox="0 0 50 50" xml:space="preserve"><style>.st4{fill:none;stroke:#444;stroke-width:.5;stroke-miterlimit:10}</style><path fill="#e589ef" d="M47.6 17.3l.5-11-1.9-3.8-16-.9c-3.2 0-28-1.3-28 1.9l-1 20.2 1.2 23.5 13.6.6 31-11c.8-.3 1.6-17.5.6-19.5z"/><path fill="none" stroke="#444" stroke-linecap="round" stroke-linejoin="round" stroke-miterlimit="10" stroke-width="2.5" d="M32.3 48h-27c-1.9 0-3.4-1.6-3.4-3.5v-39C1.9 3.6 3.4 2 5.3 2h39c1.9 0 3.4 1.6 3.4 3.5V38"/><path fill="none" stroke="#444" stroke-linecap="round" stroke-linejoin="round" stroke-miterlimit="10" stroke-width=".5" d="M43.7 27.5s.1-9.2-2.1-10.5m-25 2.9l-.3 4.1v.5c.1 1.1 1 1.8 2.1 1.7 1.6-.2 4.1-1.1 6-4 0 0 1.3-2.8 1.2-5.6 0-.6-.4-1.2-.9-1.5-1-.6-1.8-1-2.4-1.4-.7-.4-1.5-.4-2.2 0l-1.3.7"/><path fill="none" stroke="#444" stroke-linecap="round" stroke-linejoin="round" stroke-miterlimit="10" d="M19.3 26.2v5.7s-2.1.2-1.6 3.8c0 .2 6.6 0 6.6 0v-9.2s3.2 2.8 8.6.6c1 1.9 1.7 2.3 2.5 2.7v2.3s-1.7-.6-2.4 1.3c-.1 1.6-.1 2.3-.1 2.3h6.7l.7-7.6s2.6-9.8.4-12.6c-2.2-2.8-4.5-4.5-8.2-4.3-3.8.2-5.8-.2-6.8-.9s-4.1-.5-4.8.4c-2-.3-8.6-1.3-11.7 6.6 0 0-2 6.4-1 11.5s3.7 6.9 5.2 7.5c1.1-1.2 1.8-2.3 1.8-2.3s-4.2-3.7-3.1-10c2.4-.4 3.5-.5 3.9-.6"/><circle cx="15.3" cy="17.2" r=".7" class="st4"/><circle cx="47.9" cy="25.5" r=".7" class="st4"/></svg>