<svg xmlns="http://www.w3.org/2000/svg" id="Layer_1" x="0" y="0" version="1.1" viewBox="0 0 50 50" xml:space="preserve"><style>.st3{fill:#031326}</style><path fill="#afe55d" d="M41.9 27.4L10.5 40.6l-2.1-4.2-.2-12.6 25.5-9.3 7.6 9.1z"/><path fill="#c3ff68" d="M33.7 14.5L9.1 23.6l4.6-6.4 6.7-3.6-5.6-6 1-4.6 5.1-1.4z"/><path d="M25.1 49.6c-10.4 0-18.9-8.5-18.9-18.9 0-7.8 4.8-14.7 11.9-17.6l-3-2.8c-.1 0-.1-.1-.1-.2-1-1-1.5-2.4-1.5-3.8C13.5 3.2 16 .8 19 .8c1.3 0 2.6.5 3.6 1.4.1 0 .1.1.2.1l15.6 14.9s.1.1.1.2c2.8 2.8 4.7 6.4 5.3 10.4.1.7-.4 1.3-1 1.4-.7.1-1.3-.4-1.4-1-.6-3.5-2.2-6.6-4.7-9.1l-.1-.1L21.2 4.3c-.1 0-.1-.1-.2-.1-.6-.5-1.3-.8-2.1-.8-1.7 0-3 1.4-3 3 0 .8.3 1.6.9 2.2l.1.1 4.4 4.1c.3.3.5.8.4 1.2s-.4.8-.9.9c-7.1 1.9-12.1 8.5-12.1 15.8 0 9.1 7.4 16.4 16.4 16.4.7 0 1.3.6 1.3 1.2s-.6 1.3-1.3 1.3z" class="st3"/><path d="M31 31.5c.2-.3.4-.6.4-1v-.2c0-.3-.2-.5-.3-.7l-5.5-5.5c-.3-.3-.7-.5-1.2-.5-.9 0-1.7.7-1.7 1.6 0 .4.2.8.5 1.1l.1.1 2.6 2.6h-5.5c-.8 0-1.5.7-1.5 1.5s.7 1.5 1.5 1.5H26l-2.7 2.7c-.3.3-.5.7-.5 1.2 0 .9.7 1.7 1.7 1.7.5 0 .9-.2 1.2-.5l5.4-5.4c-.2-.1-.2-.1-.1-.2z" class="st3"/></svg>