<?xml version="1.0" encoding="utf-8"?>
<!-- Generator: Adobe Illustrator 22.0.1, SVG Export Plug-In . SVG Version: 6.00 Build 0)  -->
<svg version="1.1" id="Layer_1" xmlns="http://www.w3.org/2000/svg" xmlns:xlink="http://www.w3.org/1999/xlink" x="0px" y="0px"
	 viewBox="0 0 50 50" style="enable-background:new 0 0 50 50;" xml:space="preserve">
<style type="text/css">
	.st0{fill:#D4FF73;}
	.st1{fill:#BEE367;}
	.st2{fill:#464646;}
	.st3{fill:#444444;}
</style>
<g>
	<g>
		<path class="st0" d="M35.8,4.8H14.2c-0.6,0-1.1,0.3-1.4,0.8l-6.4,11L37.1,5.4C36.8,5,36.3,4.8,35.8,4.8z"/>
	</g>
	<g>
		<path class="st1" d="M48,25.9c0.3-0.5,0.3-1.1,0-1.6L37.2,5.5c0-0.1-0.1-0.1-0.1-0.1L6.4,16.6L2,24.3c-0.3,0.5-0.3,1.1,0,1.6
			L10.1,40l37.7-13.7L48,25.9z"/>
	</g>
	<path class="st2" d="M49.1,23.6L38.3,4.8c-0.5-0.9-1.4-1.4-2.5-1.4H14.2c-1,0-2,0.5-2.5,1.4L0.9,23.6c-0.5,0.9-0.5,2,0,2.8
		l10.8,18.7c0.5,0.9,1.4,1.4,2.5,1.4h21.6c1,0,2-0.5,2.5-1.4l2-3.5c0.3-0.6,0.1-1.4-0.5-1.7c-0.6-0.3-1.4-0.1-1.7,0.5l-2,3.5
		c0,0,0,0,0,0c-0.1,0.1-0.2,0.2-0.3,0.2H14.2c-0.1,0-0.2-0.1-0.3-0.2L3.1,25.2c-0.1-0.1-0.1-0.2,0-0.3L13.9,6.1
		c0.1-0.1,0.2-0.2,0.3-0.2h21.6c0.1,0,0.2,0.1,0.3,0.2l10.8,18.7c0.1,0.1,0.1,0.2,0,0.3l-1,1.7c-0.3,0.6-0.1,1.4,0.5,1.7
		c0.6,0.3,1.4,0.1,1.7-0.5l1-1.7C49.6,25.5,49.6,24.5,49.1,23.6z"/>
	<g>
		<path class="st2" d="M33.9,42.4h-18c-0.7,0-1.3-0.4-1.7-1l-9-15.6c-0.3-0.6-0.3-1.3,0-1.9l9-15.6c0.3-0.6,1-1,1.7-1h18
			c0.7,0,1.3,0.4,1.7,1l9,15.6c0.3,0.6,0.3,1.3,0,1.9l-9,15.6C35.2,42,34.6,42.4,33.9,42.4z M15.9,8.1c-0.4,0-0.8,0.2-1,0.6l-9,15.6
			c-0.2,0.4-0.2,0.8,0,1.2l9,15.6c0.2,0.4,0.6,0.6,1,0.6h18c0.4,0,0.8-0.2,1-0.6l9-15.6c0.2-0.4,0.2-0.8,0-1.2l-9-15.6
			c-0.2-0.4-0.6-0.6-1-0.6H15.9z"/>
	</g>
	<g>
		<g>
			<g>
				<g>
					<circle class="st3" cx="20.7" cy="19.5" r="2.9"/>
				</g>
			</g>
			<g>
				<g>
					<path class="st3" d="M29.8,29.8L29.8,29.8l0.1-8.4c0-3.2-2.2-5.9-5.3-6.4c0.7,0.7,1.3,1.3,1.8,2.3c0.1,0.4,0,0.7-0.4,0.8
						c-0.4,0.1-0.7,0-0.8-0.4c-0.7-1.8-2.4-2.9-4.4-2.9c-2.6,0-4.8,2.2-4.8,4.8s2.2,4.8,4.8,4.8c0.4,0,0.7,0.4,0.7,0.7
						c0,0.4-0.4,0.7-0.7,0.7c-0.7,0-1.3-0.1-2-0.4c0.1,0.5,0.4,0.8,0.7,1.3c0.4,0.7,0.7,1.2,1.4,1.7c1.2,0.8,2.6,1.3,4.6,1.2
						l-1.1-1.3v-0.1c0-0.1,0.1-0.4,0.2-0.5c0.4-0.2,0.7-0.1,0.8,0.1c1,1.3,2.5,2,4.2,2C29.6,29.8,29.7,29.8,29.8,29.8z M20.7,23.2
						c-2,0-3.6-1.7-3.6-3.6c0-2,1.7-3.6,3.6-3.6s3.6,1.7,3.6,3.6C24.3,21.6,22.7,23.2,20.7,23.2z M27.1,25c-0.6,0-1-0.5-1-1
						c0-0.5,0.5-1,1-1c0.6,0,1,0.5,1,1C27.9,24.4,27.5,25,27.1,25z"/>
				</g>
			</g>
			<g>
				<g>
					<path class="st3" d="M32,34.5c-1.1,0-2-0.8-2-2V31c-0.1,0-0.2,0-0.4,0s-0.2,0-0.5,0c-0.7,0-1.3-0.1-1.9-0.4v1.8
						c0,2.2,2,4.1,4.2,4.1c1.8,0,3.7-1.1,4.1-3.1l-1.8-0.2C33.4,34,32.7,34.5,32,34.5z"/>
				</g>
			</g>
		</g>
		<g>
			<g>
				<path class="st3" d="M32.2,30c0.2-0.2,0.4-0.7,0.1-0.8c0-0.1-0.1-0.1-0.2-0.2c-0.2,0-0.5,0-0.7,0.1c-0.1,0.1-0.2,0.2-0.4,0.2
					c-0.1,0.1-0.4,0.2-0.6,0.4V31C31.1,30.7,31.7,30.5,32.2,30z"/>
			</g>
		</g>
	</g>
</g>
</svg>
