<svg xmlns="http://www.w3.org/2000/svg" version="1" viewBox="0 0 50 50"><path fill="#71BAC0" d="M44.022 23.4l1.04-17.37c.098-1.864-1.374-3.43-3.224-3.43H8.162c-1.85 0-3.323 1.567-3.226 3.433l1.862 31.056L44.022 23.4z"/><path fill="#7ED0D6" d="M38.894 2.598H8.162c-1.85 0-3.323 1.567-3.226 3.433l.524 8.737 33.434-12.17z"/><path fill="#444" d="M25.55 48.5c-.51 0-1.026-.09-1.518-.275L8.597 42.43a4.356 4.356 0 0 1-2.81-3.86L3.838 6.097a4.393 4.393 0 0 1 1.194-3.25A4.27 4.27 0 0 1 8.16 1.499h33.675c1.193 0 2.304.477 3.128 1.345a4.408 4.408 0 0 1 1.196 3.243l-1.95 32.54c-.036.605-.554 1.047-1.162 1.032a1.098 1.098 0 0 1-1.03-1.163l1.95-32.532a2.163 2.163 0 0 0-.596-1.607 2.099 2.099 0 0 0-1.535-.662H8.162c-.584 0-1.13.235-1.535.662a2.161 2.161 0 0 0-.594 1.616L7.98 38.447a2.16 2.16 0 0 0 1.39 1.925l15.435 5.795c.49.183 1.032.18 1.522-.016l4.17-1.553a1.1 1.1 0 0 1 .767 2.06L27.12 48.2c-.5.2-1.033.3-1.57.3z"/><path fill="#444" d="M20.36 35.49l8.47-18.36H17.74a.348.348 0 0 1-.347-.347v-2.42c0-.192.155-.348.347-.348h14.865v2.468l-8.56 19.294a.348.348 0 0 1-.317.206h-3.054a.347.347 0 0 1-.315-.492z"/></svg>