<?xml version="1.0" encoding="utf-8"?>
<!-- Generator: Adobe Illustrator 28.0.0, SVG Export Plug-In . SVG Version: 6.00 Build 0)  -->
<svg version="1.1" id="Layer_1" xmlns="http://www.w3.org/2000/svg" xmlns:xlink="http://www.w3.org/1999/xlink" x="0px" y="0px"
	 viewBox="0 0 50 50" style="enable-background:new 0 0 50 50;" xml:space="preserve">
<style type="text/css">
	.st0{fill:#00DFFC;}
	.st1{fill:none;stroke:#444444;stroke-width:2.5;stroke-linecap:round;stroke-linejoin:round;stroke-miterlimit:10;}
	.st2{fill:none;stroke:#444444;stroke-linecap:round;stroke-linejoin:round;stroke-miterlimit:10;}
	.st3{fill:none;stroke:#444444;stroke-width:0.5;stroke-linecap:round;stroke-linejoin:round;stroke-miterlimit:10;}
</style>
<g>
	<path class="st0" d="M47.5,17.5l0.5-11l-1.9-3.8L30.7,3.1c-3.2,0-27.8-3-27.8,0.2L1.2,24l1.2,23.5l13.6,0.6l31-11
		C47.7,36.7,48.5,19.5,47.5,17.5z"/>
	<path class="st1" d="M32.6,48.1h-27c-1.9,0-3.4-1.6-3.4-3.5V5.7c0-1.9,1.5-3.5,3.4-3.5h39c1.9,0,3.4,1.6,3.4,3.5v32.5"/>
	<g>
		<path class="st2" d="M46.9,6H32.7c-1,0-1.8,0.8-1.8,1.8v9.5L9.2,33.7"/>
		<polyline class="st2" points="40.1,38.1 40.1,15.2 46.9,15.2 		"/>
		<circle class="st2" cx="12.5" cy="38.1" r="5.5"/>
		<ellipse transform="matrix(0.2308 -0.973 0.973 0.2308 -27.4229 41.4409)" class="st3" cx="12.5" cy="38.1" rx="3" ry="3"/>
		<circle class="st2" cx="23.5" cy="38.1" r="5.5"/>
		<circle class="st2" cx="34.6" cy="38.1" r="5.5"/>
		<polyline class="st2" points="19.3,34.6 34,17.5 34,9.1 46.9,9.1 		"/>
		<polyline class="st2" points="29.6,35.8 37,17.8 37,12.1 46.9,12.1 		"/>
		<ellipse transform="matrix(0.1765 -0.9843 0.9843 0.1765 -18.0829 54.5165)" class="st3" cx="23.5" cy="38.1" rx="3" ry="3"/>
		<ellipse transform="matrix(0.2308 -0.973 0.973 0.2308 -10.4396 62.9246)" class="st3" cx="34.6" cy="38.1" rx="3" ry="3"/>
	</g>
</g>
</svg>
