<svg xmlns="http://www.w3.org/2000/svg" version="1" viewBox="0 0 50 50"><path fill="#AFE55D" d="M27.25 46.474l17.5-6.369v-2.386l-2.198-3.436L44.75 32.6v-6.191l-2.198-3.438 2.198-1.681v-6.192l-3.262-9.497-2.851-2.075H11.354L8.512 5.601 5.25 15.098v6.192l2.113 1.618-2.113 3.501V32.6l2.22 1.701-2.22 3.418v6.2l3.357 2.555z"/><path fill="#C3FF68" d="M39.124 3.88l-.488-.354H11.354L8.512 5.601 5.25 15.098v1.112z"/><path fill="#444" d="M46 14.889L42.542 4.822l-3.499-2.546H10.947l-3.49 2.547L4 14.889v7.018l1.715 1.313L4 26.061v7.156l1.792 1.373L4 37.349v7.189l4.186 3.187h25.8a1.25 1.25 0 0 0 0-2.5H9.029L6.5 43.3v-5.211l2.444-3.764h32.151l2.405 3.759v2.021a1.25 1.25 0 0 0 2.5 0v-2.752l-1.776-2.776L46 33.217v-7.174l-1.776-2.777L46 21.907v-7.018zM8.72 12.787h32.551l2.226 2.511.003.008v5.366l-2.385 1.825H8.882L6.5 20.672v-5.366l.005-.013 2.215-2.506zM6.5 31.982v-5.227l2.27-3.759h32.315l2.416 3.777v5.209l-2.406 1.843H8.905L6.5 31.982zm36.574-17.915l-1.467-1.655-2.029-6.656.856.623 2.64 7.688zM38.23 4.776l.676.492 2.14 7.019H8.945l2.139-7.016.678-.495H38.23zM9.566 6.379l.845-.617-2.027 6.65-1.455 1.646 2.637-7.679z"/></svg>