<svg xmlns="http://www.w3.org/2000/svg" id="Layer_1" x="0" y="0" version="1.1" viewBox="0 0 50 50" xml:space="preserve"><style>.st2{fill:#444}</style><path fill="#afe55d" d="M19.3 45.3l23.2-8.4c2.3-3.4 3.7-7.5 3.7-11.9 0-11.6-9.5-21.1-21.1-21.1S3.9 13.4 3.9 25c0 9.7 6.5 17.8 15.4 20.3z"/><path fill="#c3ff68" d="M34.7 6.3c-2.9-1.5-6.2-2.4-9.7-2.4-8.8 0-16.3 5.4-19.5 13L34.7 6.3z"/><path d="M25 47.4c-12.3 0-22.4-10-22.4-22.4S12.7 2.6 25 2.6s22.4 10 22.4 22.4c0 4.5-1.3 8.8-3.8 12.5-.4.6-1.2.7-1.7.3-.6-.4-.7-1.2-.3-1.7C43.8 32.8 45 29 45 25c-.1-11-9-19.9-20-19.9S5.1 14 5.1 25 14 44.9 25 44.9c.7 0 1.2.6 1.2 1.2s-.5 1.3-1.2 1.3z" class="st2"/><path d="M25 39.3c-7.9 0-14.3-6.4-14.3-14.3S17.1 10.7 25 10.7 39.3 17.1 39.3 25 32.9 39.3 25 39.3zM25 11c-7.7 0-14 6.3-14 14s6.3 14 14 14 14-6.3 14-14-6.3-14-14-14z" class="st2"/><path d="M25 35.1c-5.6 0-10.1-4.5-10.1-10.1S19.4 14.9 25 14.9 35.1 19.4 35.1 25 30.6 35.1 25 35.1zm0-19.9c-5.4 0-9.8 4.4-9.8 9.8s4.4 9.8 9.8 9.8 9.8-4.4 9.8-9.8-4.4-9.8-9.8-9.8z" class="st2"/><path d="M25 17.1c-4.3 0-7.9 3.5-7.9 7.9s3.5 7.9 7.9 7.9 7.9-3.5 7.9-7.9-3.6-7.9-7.9-7.9zm-.7 2.9h1.4c.2 0 .3.1.3.3l-.3 5.8c0 .2-.1.3-.3.3h-.8c-.2 0-.3-.1-.3-.3l-.3-5.8c0-.2.1-.3.3-.3zm.7 10c-.8 0-1.4-.6-1.4-1.4 0-.8.6-1.4 1.4-1.4s1.4.6 1.4 1.4S25.8 30 25 30z" class="st2"/></svg>
