<?xml version="1.0" encoding="utf-8"?>
<!-- Generator: Adobe Illustrator 22.1.0, SVG Export Plug-In . SVG Version: 6.00 Build 0)  -->
<svg version="1.1" id="Layer_1" xmlns="http://www.w3.org/2000/svg" xmlns:xlink="http://www.w3.org/1999/xlink" x="0px" y="0px"
	 viewBox="0 0 50 50" style="enable-background:new 0 0 50 50;" xml:space="preserve">
<style type="text/css">
	.st0{fill:#C3FF68;}
	.st1{fill:#AFE55D;}
	.st2{fill:#444444;}
</style>
<g>
	<g>
		<polygon class="st0" points="28.9,7 28.9,5.4 28.9,3.7 27,3.7 27,2 25.1,2 23.1,2 23.1,3.7 21.2,3.7 21.2,5.4 21.2,7 21.2,8.7 
			21.2,10.3 21.2,10.7 28.9,7.9 		"/>
	</g>
	<g>
		<polygon class="st1" points="27.9,37 27.9,35.6 27.9,34.9 28.8,34.9 30.6,34.9 32.3,34.9 32.3,32.9 34,32.9 34,31 32.3,31 
			30.6,31 28.9,31 28.9,30.2 28.9,28.6 28.9,26.9 28.9,25.3 28.9,23.6 28.9,21.9 28.9,20.3 28.9,18.6 28.9,17 28.9,15.3 28.9,13.7 
			28.9,12 28.9,10.3 28.9,8.7 28.9,7.9 21.2,10.7 21.2,12 21.2,13.7 21.2,15.3 21.2,17 21.2,18.6 21.2,20.3 21.2,21.9 21.2,23.6 
			21.2,25.3 21.2,26.9 21.2,28.6 21.2,30.2 21.2,31 20.1,31 18.4,31 16.6,31 16.6,32.9 18.4,32.9 18.4,34.9 20.1,34.9 21.8,34.9 
			22.7,34.9 22.7,35.6 22.7,37 22.7,38.5 22.7,39.1 27.9,37.2 		"/>
	</g>
	<path class="st2" d="M29.9,29.4v-7V9.3c0-0.7-0.6-1.2-1.2-1.2s-1.2,0.6-1.2,1.2v13.1v7h-4.9V4.3h1.8V2.8h1.2v1.6h1.8v0.3
		c0,0.7,0.6,1.2,1.2,1.2s1.2-0.6,1.2-1.2V1.8h-1.8V0.3h-6.2v1.6h-1.8v27.6h-4.7v4.5H17v2h4.2v5.6h-1.3v8.2h10.1v-8.2h-1.3v-5.6H33
		v-2h1.7v-4.5H29.9z M27.6,47.2h-5.1V44h5.1V47.2z M23.8,40.7v-4.9h2.5v4.9H23.8z M30.5,33.4h-1.7h-7.5h-1.7v-1.5h10.9V33.4z"/>
</g>
</svg>
