<?xml version="1.0" encoding="UTF-8"?>
<svg id="Camada_1" data-name="Camada 1" xmlns="http://www.w3.org/2000/svg" xmlns:xlink="http://www.w3.org/1999/xlink" viewBox="0 0 300 300">
  <defs>
    <style>
      .cls-1 {
        fill: #00bf5f;
      }

      .cls-2 {
        opacity: .54;
      }

      .cls-2, .cls-3 {
        fill: #8765fb;
      }

      .cls-4 {
        fill: url(#Gradiente_sem_nome_2);
      }

      .cls-5 {
        fill: #ef3030;
      }

      .cls-6 {
        fill: none;
        stroke: url(#Gradiente_sem_nome);
        stroke-miterlimit: 10;
        stroke-width: 2px;
      }

      .cls-7 {
        fill: #995ff5;
      }

      .cls-8 {
        fill: url(#Gradiente_sem_nome_2-2);
      }

      .cls-9 {
        fill: #50deff;
      }

      .cls-10 {
        fill: #f4f4f4;
      }

      .cls-11 {
        fill: #2a2828;
      }

      .cls-12 {
        fill: #ed9751;
      }
    </style>
    <linearGradient id="Gradiente_sem_nome" data-name="Gradiente sem nome" x1="15.4" y1="197.28" x2="249.25" y2="197.28" gradientTransform="translate(0 299.89) scale(1 -1)" gradientUnits="userSpaceOnUse">
      <stop offset="0" stop-color="#ca3328"/>
      <stop offset="1" stop-color="#9761ff"/>
    </linearGradient>
    <linearGradient id="Gradiente_sem_nome_2" data-name="Gradiente sem nome 2" x1="189.59" y1="119.02" x2="235.23" y2="119.02" gradientUnits="userSpaceOnUse">
      <stop offset="0" stop-color="#3d6ce2"/>
      <stop offset="1" stop-color="#50deff"/>
    </linearGradient>
    <linearGradient id="Gradiente_sem_nome_2-2" data-name="Gradiente sem nome 2" x1="240.43" y1="124.43" x2="287.82" y2="124.43" xlink:href="#Gradiente_sem_nome_2"/>
  </defs>
  <path class="cls-11" d="M.1,54.55h212.32c13.73,0,24.88,11.15,24.88,24.88v164.09H21.38c-11.74,0-21.27-9.53-21.27-21.27V54.55h0Z"/>
  <path class="cls-9" d="M250.67,213.22L16.19,247.15c-8.54,1.24-16.19-5.39-16.19-14.01V100.79c0-7.04,5.17-13.01,12.13-14.01l234.48-33.93c8.54-1.24,16.19,5.39,16.19,14.01v132.34c0,7.04-5.17,13.01-12.13,14.01h0Z"/>
  <path class="cls-10" d="M239.07,201.22l-210.13,30.97c-7.06,1.02-13.39-4.46-13.39-11.59v-109.45c0-5.82,4.27-10.76,10.03-11.59l210.13-30.97c7.06-1.02,13.39,4.46,13.39,11.59v109.45c0,5.82-4.27,10.76-10.03,11.59Z"/>
  <line class="cls-6" x1="15.55" y1="120.43" x2="249.1" y2="84.79"/>
  <g>
    <circle class="cls-5" cx="61.16" cy="104.25" r="5.18"/>
    <circle class="cls-12" cx="44.39" cy="106.83" r="5.18"/>
    <circle class="cls-1" cx="27.63" cy="109.39" r="5.18"/>
  </g>
  <g>
    <g>
      <polygon class="cls-3" points="161.05 199.04 167.74 197.94 165.35 154.96 158.66 156.07 161.05 199.04"/>
      <polygon class="cls-3" points="149.88 200.89 156.56 199.78 154.99 171.58 148.31 172.68 149.88 200.89"/>
      <polygon class="cls-3" points="138.7 202.73 145.39 201.63 141.79 136.92 135.1 138.03 138.7 202.73"/>
      <polygon class="cls-3" points="127.52 204.58 134.21 203.47 133.35 187.93 126.66 189.03 127.52 204.58"/>
      <polygon class="cls-3" points="116.35 206.42 123.04 205.32 119.92 149.26 113.23 150.37 116.35 206.42"/>
      <polygon class="cls-3" points="105.17 208.27 111.86 207.16 109.28 160.81 102.59 161.92 105.17 208.27"/>
      <polygon class="cls-3" points="94 210.11 100.68 209.01 98.69 173.21 92 174.31 94 210.11"/>
      <polygon class="cls-3" points="82.82 211.95 89.51 210.85 85.18 133.07 78.49 134.17 82.82 211.95"/>
      <polygon class="cls-3" points="71.64 213.8 78.33 212.7 74.46 143.14 67.77 144.24 71.64 213.8"/>
      <polygon class="cls-3" points="60.47 215.64 67.16 214.54 63.98 157.43 57.29 158.54 60.47 215.64"/>
      <polygon class="cls-3" points="49.29 217.49 55.98 216.39 55.2 202.28 48.51 203.39 49.29 217.49"/>
      <polygon class="cls-3" points="38.12 219.33 44.81 218.23 42.5 176.73 35.81 177.84 38.12 219.33"/>
    </g>
    <path class="cls-2" d="M145.91,123.04l29.43-4.86c1.29-.21,2.42,1.1,2.53,2.94s-.86,3.5-2.16,3.71l-29.43,4.86c-1.29.21-2.42-1.1-2.53-2.94s.86-3.5,2.16-3.71Z"/>
    <path class="cls-2" d="M145.33,112.64l29.43-4.86c1.29-.21,2.42,1.1,2.53,2.94s-.86,3.5-2.16,3.71l-29.43,4.86c-1.29.21-2.42-1.1-2.53-2.94s.86-3.5,2.16-3.71Z"/>
    <path class="cls-2" d="M92.82,131.8l29.43-4.86c1.29-.21,2.42,1.1,2.53,2.94.1,1.84-.86,3.5-2.16,3.71l-29.43,4.86c-1.29.21-2.42-1.1-2.53-2.94s.86-3.5,2.16-3.71Z"/>
    <path class="cls-2" d="M92.24,121.41l29.43-4.86c1.29-.21,2.42,1.1,2.53,2.94.1,1.84-.86,3.5-2.16,3.71l-29.43,4.86c-1.29.21-2.42-1.1-2.53-2.94s.86-3.5,2.16-3.71Z"/>
  </g>
  <g>
    <path class="cls-4" d="M218.26,139.35c3.25-5.97,9.34-10.14,16.47-10.8l.5-29.85c-20.33.13-37.81,12.09-45.64,29.56l28.67,11.09Z"/>
    <path class="cls-8" d="M240.43,128.78c9.6,1.66,17.07,9.64,17.96,19.36l29.43,1.75c-.37-26.23-20.78-48.24-46.89-50.91l-.5,29.81Z"/>
    <path class="cls-7" d="M258.16,153.76c-1.74,9.89-10.42,17.32-20.93,17.19-3.1-.04-6.06-.73-8.73-1.95l-15.92,25.36c7.36,4,15.76,6.29,24.65,6.33,26.47.12,47.94-19.75,50.36-45.23l-29.43-1.71Z"/>
    <path class="cls-7" d="M207.66,191.33l15.97-25.38c-4.81-3.98-7.89-9.97-7.89-16.63,0-1.61.18-3.17.52-4.67l-28.7-11.06c-1.51,4.78-2.32,9.88-2.32,15.18,0,17.55,8.9,33.14,22.43,42.56Z"/>
  </g>
</svg>