<svg xmlns="http://www.w3.org/2000/svg" id="Layer_1" x="0" y="0" version="1.1" viewBox="0 0 50 50" xml:space="preserve"><style>.st2{fill:#444}</style><path fill="#e589ef" d="M48.2 26.1l.4 4.3L2 47.3l.1-9.1.4-5.2 46.4-16.9-.7 3.7z"/><path fill="#f799ff" d="M48.2 9.3l-.6 7.8L2.1 33.7v-9.9l.3-4.4L48.3 2.7z"/><path d="M36.8 49.1H2c-.7 0-1.2-.6-1.2-1.2V2.1C.8 1.4 1.4.9 2 .9h46c.7 0 1.2.6 1.2 1.2V37c0 .7-.6 1.2-1.2 1.2s-1.2-.6-1.2-1.2V3.4H3.2v43.3h33.5c.7 0 1.2.6 1.2 1.2s-.5 1.2-1.1 1.2z" class="st2"/><path d="M32.2 12.1c-3.4 0-6.1 2.8-6.1 6.1 0 3.4 2.8 6.1 6.1 6.1 1 0 2-.3 2.9-.7l-.9 6.4H17.6l-1.8-11.9h7.9c.4 0 .8-.3.8-.8 0-.4-.3-.8-.8-.8h-8.1l-.6-3.7c0-.4-.4-.6-.7-.6h-3.6c-.4 0-.8.3-.8.8 0 .4.3.8.8.8h2.9l2.6 17.3c.1.4.4.6.8.6h17.9c.4 0 .7-.3.8-.6l1.1-8.6c1-1.1 1.6-2.5 1.6-4.1-.1-3.5-2.9-6.3-6.2-6.3zm0 10.8c-2.5 0-4.6-2.1-4.6-4.6 0-2.5 2.1-4.6 4.6-4.6s4.6 2.1 4.6 4.6c0 2.5-2.1 4.6-4.6 4.6z" class="st2"/><path d="M34.7 18.2c0 .4-.3.8-.8.8h-1v1c0 .4-.3.8-.8.8-.4 0-.8-.3-.8-.8v-1h-1c-.4 0-.8-.3-.8-.8 0-.4.3-.8.8-.8h1v-1c0-.4.3-.8.8-.8.4 0 .8.3.8.8v1h1c.5.1.8.4.8.8zm-16 22.3c-1.9 0-3.4-1.5-3.4-3.4s1.5-3.4 3.4-3.4 3.4 1.5 3.4 3.4-1.5 3.4-3.4 3.4zm0-5.4c-1.1 0-1.9.9-1.9 1.9s.9 1.9 1.9 1.9c1.1 0 1.9-.9 1.9-1.9s-.8-1.9-1.9-1.9zM34 40.5c-1.9 0-3.4-1.5-3.4-3.4s1.5-3.4 3.4-3.4 3.4 1.5 3.4 3.4-1.5 3.4-3.4 3.4zm0-5.4c-1.1 0-1.9.9-1.9 1.9s.8 2 1.9 2 1.9-.9 1.9-1.9-.9-2-1.9-2z" class="st2"/></svg>