<svg version="1" xmlns="http://www.w3.org/2000/svg" viewBox="0 0 50 50"><path fill="#46B8B0" d="M35.943 27.9l-5.504 6.226-4.454 1.623-12.827 4.67c0-.01 0-.028.009-.038.019-.142.047-.283.084-.422l.028-.113c.047-.164.106-.323.178-.478.065-.159.15-.328.244-.478l.019-.019c.094-.159.197-.309.319-.45L22.9 27.797c.281-.337.506-.712.647-1.106a3.863 3.863 0 0 0 0-2.879l-.019-.018c-.009-.075-.047-.141-.075-.206-.009-.01-.319-.572-.516-.825L13.935 11.52a3.99 3.99 0 0 1 .3-5.298l1.069-1.069a3.965 3.965 0 0 1 5.832.225l14.843 17.3a3.976 3.976 0 0 1-.036 5.222z"/><path fill="#4ECDC4" d="M16.249 14.403l9.627-3.504-4.74-5.524a3.966 3.966 0 0 0-5.83-.224l-1.073 1.072a3.973 3.973 0 0 0-.294 5.293l2.31 2.887z"/><path fill="#444" d="M36.753 22.014L21.91 4.715a5.014 5.014 0 0 0-3.613-1.748 4.994 4.994 0 0 0-3.713 1.465l-1.069 1.069a4.996 4.996 0 0 0-.375 6.654l8.992 11.231c.075.099.307.513.507.902.251.659.238 1.339-.052 2.06-.109.291-.268.56-.47.796l-8.846 10.607a3.882 3.882 0 0 0-.359.486l-.076.112c-.128.205-.23.403-.312.605-.094.199-.17.405-.227.617l-.031.123a3.63 3.63 0 0 0-.055.229l-.073.084v.342a5.023 5.023 0 0 0 1.426 4.156l1.075 1.066a4.94 4.94 0 0 0 3.524 1.463l.149-.002a4.967 4.967 0 0 0 3.602-1.682 1.019 1.019 0 1 0-1.521-1.354 2.955 2.955 0 0 1-2.14 1 2.908 2.908 0 0 1-2.177-.868l-1.075-1.066a2.975 2.975 0 0 1-.856-2.325l.03-.225c.013-.098.033-.195.058-.293l.025-.103c.027-.102.063-.201.108-.296l.038-.086a1.59 1.59 0 0 1 .108-.224l.082-.125c.065-.111.14-.217.224-.314l8.862-10.625c.37-.445.647-.921.808-1.376.035-.086.049-.174.079-.261.605 2.005 1.001 4.337 1.001 6.293 0 .865-.064 1.724-.191 2.559-.052.375-.118.747-.198 1.117a.612.612 0 0 0 1.193.263c.088-.399.156-.798.214-1.202.135-.889.204-1.81.204-2.736 0-3.554-1.257-8.314-2.76-10.512a4.305 4.305 0 0 0-.301-.466l-9-11.241a2.961 2.961 0 0 1 .224-3.943l1.071-1.071c.587-.591 1.362-.899 2.196-.868s1.595.4 2.142 1.039l14.845 17.302a2.968 2.968 0 0 1-.029 3.883l-5.504 6.227a1.02 1.02 0 0 0 1.526 1.35l5.505-6.228c1.644-1.868 1.663-4.688.048-6.561z"/></svg>