<?xml version="1.0" encoding="utf-8"?>
<!-- Generator: Adobe Illustrator 24.0.0, SVG Export Plug-In . SVG Version: 6.00 Build 0)  -->
<svg version="1.1" id="Layer_1" xmlns="http://www.w3.org/2000/svg" xmlns:xlink="http://www.w3.org/1999/xlink" x="0px" y="0px"
	 viewBox="0 0 50 50" style="enable-background:new 0 0 50 50;" xml:space="preserve">
<style type="text/css">
	.st0{fill:#F56991;}
	.st1{fill:#DC5E82;}
	.st2{fill:#444444;}
</style>
<g>
	<g>
		<path class="st0" d="M32.5,14.9l-8.4-8.3c-0.1-0.1-0.4-0.1-0.5,0l-1.9,1.9l-5.8-5.8c-0.9-0.9-2.3-0.9-3.2,0
			c-0.4,0.4-0.7,1-0.7,1.6s0.2,1.2,0.7,1.6l5.8,5.8l-7.8,7.8l-5.8-5.8c-0.9-0.9-2.3-0.9-3.2,0c-0.9,0.9-0.9,2.3,0,3.2l5.8,5.8
			l-1.9,1.9c-0.1,0.1-0.1,0.2-0.1,0.3c0,0.1,0,0.2,0.1,0.3l1.6,1.6l26.9-9.8C33.7,16.1,33.1,15.5,32.5,14.9z"/>
	</g>
	<g>
		<path class="st1" d="M38.6,30.1L36,27.4c0.3-1.1,0.4-2.2,0.4-3.3c0-2.6-0.8-5.2-2.2-7.3L7.3,26.6l6.8,6.8c2,2,4.6,3.3,7.4,3.7
			l17.5-6.4C38.9,30.5,38.8,30.3,38.6,30.1z"/>
	</g>
	<g>
		<path class="st2" d="M39,48.6c-0.4,0-0.8-0.2-1.1-0.5c-0.7-0.7-1.1-1.7-1.1-2.8s0.4-2,1.1-2.8l8.3-8.3c0.1-0.1,0.1-0.3,0-0.5
			c-0.2-0.2-0.3-0.2-0.5,0l-4.8,4.8c-0.7,0.7-1.7,1.1-2.8,1.1c0,0,0,0,0,0c-1,0-2-0.4-2.8-1.1l-0.2-0.2l-2.7,2.7c-1,1-2.6,1-3.6,0
			l-2.2-2.2c-0.9,0.2-1.9,0.3-2.9,0.3c-3.8,0-7.4-1.5-10.1-4.2l-8.4-8.3c-0.3-0.3-0.5-0.7-0.5-1.1c0-0.4,0.2-0.8,0.5-1.1l1-1l-5-5
			c-1.4-1.4-1.4-3.6,0-4.9s3.6-1.4,4.9,0l5,5l6.1-6.1l-5-5c-0.7-0.7-1-1.5-1-2.5c0-0.9,0.4-1.8,1-2.5c1.4-1.4,3.6-1.4,4.9,0l5,5l1-1
			c0.6-0.6,1.7-0.6,2.3,0l8.4,8.3c2.7,2.7,4.2,6.3,4.2,10.1c0,1-0.1,1.9-0.3,2.9l2.2,2.2c0.5,0.5,0.5,1.3,0,1.8s-1.3,0.5-1.8,0
			l-3.2-3.2l0.2-0.7c0.2-1,0.4-2,0.4-3c0-3.2-1.2-6.1-3.5-8.4l-7.7-7.7l-2.2,2.2l-6.7-6.7c-0.4-0.4-1-0.4-1.4,0
			c-0.2,0.2-0.3,0.4-0.3,0.7c0,0.3,0.1,0.5,0.3,0.7l6.7,6.7l-9.6,9.6l-6.7-6.7c-0.4-0.4-1-0.4-1.4,0c-0.4,0.4-0.4,1,0,1.4l6.7,6.7
			l-2.2,2.2l7.7,7.7c2.2,2.2,5.2,3.5,8.4,3.5c1,0,2-0.1,3-0.4l0.7-0.2l3.2,3.2l6.1-6c0.5-0.5,1.3-0.5,1.8,0s0.5,1.3,0,1.8l-1.1,1.1
			l0.2,0.2c0.3,0.3,0.7,0.3,1,0l4.8-4.8c1.3-1.3,3.7-1.3,5,0c1.4,1.4,1.4,3.6,0,5l-8.3,8.3C40,45,40,45.2,40,45.4s0.1,0.4,0.2,0.5
			c0.3,0.3,0.5,0.7,0.5,1.1c0,0.4-0.2,0.8-0.5,1.1C39.9,48.4,39.5,48.6,39,48.6z M38.4,47.6C38.4,47.6,38.4,47.6,38.4,47.6
			C38.4,47.6,38.4,47.6,38.4,47.6z"/>
	</g>
	<g>
		<g>
			<path class="st2" d="M15.6,24.7c0,3.1,1.8,5.9,4.5,7.1l-3.8-10.4C15.8,22.5,15.6,23.6,15.6,24.7L15.6,24.7z"/>
		</g>
		<g>
			<path class="st2" d="M28.9,24.3c0-1-0.4-1.7-0.7-2.2c-0.4-0.7-0.8-1.2-0.8-1.9c0-0.7,0.6-1.4,1.3-1.4c0,0,0.1,0,0.1,0
				c-1.4-1.3-3.3-2.1-5.4-2.1c-2.8,0-5.2,1.4-6.6,3.6c0.2,0,0.4,0,0.5,0c0.8,0,2.1-0.1,2.1-0.1c0.4,0,0.5,0.6,0.1,0.7
				c0,0-0.4,0.1-0.9,0.1l2.9,8.6l1.7-5.2L22,21c-0.4,0-0.8-0.1-0.8-0.1c-0.4,0-0.4-0.7,0.1-0.7c0,0,1.3,0.1,2.1,0.1
				c0.8,0,2.1-0.1,2.1-0.1c0.4,0,0.5,0.6,0.1,0.7c0,0-0.4,0.1-0.9,0.1l2.9,8.5l0.8-2.6C28.6,25.8,28.9,25,28.9,24.3L28.9,24.3z"/>
		</g>
		<g>
			<path class="st2" d="M23.7,25.4l-2.4,6.9c0.7,0.2,1.5,0.3,2.2,0.3c0.9,0,1.8-0.2,2.6-0.4c0,0,0-0.1-0.1-0.1L23.7,25.4L23.7,25.4z
				"/>
		</g>
		<g>
			<path class="st2" d="M30.5,20.9c0,0.3,0.1,0.5,0.1,0.8c0,0.8-0.2,1.7-0.6,2.8l-2.4,7c2.4-1.4,3.9-3.9,3.9-6.9
				C31.4,23.3,31.1,22,30.5,20.9L30.5,20.9z"/>
		</g>
	</g>
</g>
</svg>
