<svg xmlns="http://www.w3.org/2000/svg" id="Layer_1" x="0" y="0" version="1.1" viewBox="0 0 50 50" xml:space="preserve"><style>.st2{fill:#031326}</style><path fill="#f56991" d="M32.5 14.9l-8.4-8.3c-.1-.1-.4-.1-.5 0l-1.9 1.9-5.8-5.8c-.9-.9-2.3-.9-3.2 0-.4.4-.7 1-.7 1.6s.2 1.2.7 1.6l5.8 5.8-7.8 7.8-5.8-5.8c-.9-.9-2.3-.9-3.2 0-.9.9-.9 2.3 0 3.2l5.8 5.8-1.9 1.9c-.1.1-.1.2-.1.3 0 .1 0 .2.1.3l1.6 1.6L34.1 17c-.4-.9-1-1.5-1.6-2.1z"/><path fill="#dc5e82" d="M38.6 30.1L36 27.4c.3-1.1.4-2.2.4-3.3 0-2.6-.8-5.2-2.2-7.3L7.3 26.6l6.8 6.8c2 2 4.6 3.3 7.4 3.7L39 30.7c-.1-.2-.2-.4-.4-.6z"/><path d="M39 48.6c-.4 0-.8-.2-1.1-.5-.7-.7-1.1-1.7-1.1-2.8s.4-2 1.1-2.8l8.3-8.3c.1-.1.1-.3 0-.5-.2-.2-.3-.2-.5 0l-4.8 4.8c-.7.7-1.7 1.1-2.8 1.1-1 0-2-.4-2.8-1.1l-.2-.2-2.7 2.7c-1 1-2.6 1-3.6 0l-2.2-2.2c-.9.2-1.9.3-2.9.3-3.8 0-7.4-1.5-10.1-4.2l-8.4-8.3c-.3-.3-.5-.7-.5-1.1 0-.4.2-.8.5-1.1l1-1-5-5c-1.4-1.4-1.4-3.6 0-4.9s3.6-1.4 4.9 0l5 5 6.1-6.1-5-5c-.7-.7-1-1.5-1-2.5 0-.9.4-1.8 1-2.5 1.4-1.4 3.6-1.4 4.9 0l5 5 1-1c.6-.6 1.7-.6 2.3 0l8.4 8.3C36.5 17.4 38 21 38 24.8c0 1-.1 1.9-.3 2.9l2.2 2.2c.5.5.5 1.3 0 1.8s-1.3.5-1.8 0l-3.2-3.2.2-.7c.2-1 .4-2 .4-3 0-3.2-1.2-6.1-3.5-8.4l-7.7-7.7-2.2 2.2-6.7-6.7c-.4-.4-1-.4-1.4 0-.2.2-.3.4-.3.7 0 .3.1.5.3.7l6.7 6.7-9.6 9.6-6.7-6.7c-.4-.4-1-.4-1.4 0-.4.4-.4 1 0 1.4l6.7 6.7-2.2 2.2 7.7 7.7c2.2 2.2 5.2 3.5 8.4 3.5 1 0 2-.1 3-.4l.7-.2 3.2 3.2 6.1-6c.5-.5 1.3-.5 1.8 0s.5 1.3 0 1.8l-1.1 1.1.2.2c.3.3.7.3 1 0l4.8-4.8c1.3-1.3 3.7-1.3 5 0 1.4 1.4 1.4 3.6 0 5L40 44.9v.5c0 .2.1.4.2.5.3.3.5.7.5 1.1 0 .4-.2.8-.5 1.1-.3.3-.7.5-1.2.5zm-.6-1z" class="st2"/><path d="M15.6 24.7c0 3.1 1.8 5.9 4.5 7.1l-3.8-10.4c-.5 1.1-.7 2.2-.7 3.3zm13.3-.4c0-1-.4-1.7-.7-2.2-.4-.7-.8-1.2-.8-1.9s.6-1.4 1.3-1.4h.1c-1.4-1.3-3.3-2.1-5.4-2.1-2.8 0-5.2 1.4-6.6 3.6h.5c.8 0 2.1-.1 2.1-.1.4 0 .5.6.1.7 0 0-.4.1-.9.1l2.9 8.6 1.7-5.2L22 21c-.4 0-.8-.1-.8-.1-.4 0-.4-.7.1-.7 0 0 1.3.1 2.1.1s2.1-.1 2.1-.1c.4 0 .5.6.1.7 0 0-.4.1-.9.1l2.9 8.5.8-2.6c.2-1.1.5-1.9.5-2.6z" class="st2"/><path d="M23.7 25.4l-2.4 6.9c.7.2 1.5.3 2.2.3.9 0 1.8-.2 2.6-.4 0 0 0-.1-.1-.1l-2.3-6.7zm6.8-4.5c0 .3.1.5.1.8 0 .8-.2 1.7-.6 2.8l-2.4 7c2.4-1.4 3.9-3.9 3.9-6.9-.1-1.3-.4-2.6-1-3.7z" class="st2"/></svg>