<svg xmlns="http://www.w3.org/2000/svg" version="1.0" viewBox="0 0 50 50"><path fill="#DC5E82" d="M46.63 34.448L16.062 45.574a25.335 25.335 0 0 1-3.825-1.823 25.243 25.243 0 0 1-4.676-3.532 24.613 24.613 0 0 1-4.433-5.627l5.284-3.053a19.632 19.632 0 0 1-1.923-4.619 18.666 18.666 0 0 1-.672-4.955c0-3.49.93-6.764 2.574-9.582l.007-.007C11.707 6.639 17.907 2.778 25 2.778c3.554 0 6.879.972 9.732 2.653a19.193 19.193 0 0 1 6.879 6.95 18.935 18.935 0 0 1 2.574 9.582c-.129 4.483-1.258 7.158-2.581 9.574l5.026 2.911z"/><path fill="#F56991" d="M41.704 12.553L6.158 25.495a18.948 18.948 0 0 1 2.231-13.114l.007-.007C11.707 6.639 17.907 2.778 25 2.778c3.554 0 6.879.972 9.732 2.653a19.193 19.193 0 0 1 6.879 6.95c.035.057.064.114.093.172z"/><path fill="#444" d="M47.279 33.337l-3.758-2.181c1.128-2.27 2.085-5.046 2.207-9.244 0-3.657-.963-7.239-2.78-10.353a20.75 20.75 0 0 0-7.433-7.51A20.746 20.746 0 0 0 25 1.191c-7.321 0-14.147 3.911-17.856 10.216l-.088.147a20.562 20.562 0 0 0-2.784 10.358c0 3.176.761 6.349 2.209 9.25l-5.395 3.122.623 1.081a26.305 26.305 0 0 0 4.719 5.983 26.582 26.582 0 0 0 4.983 3.765c4.141 2.42 8.84 3.699 13.59 3.699s9.449-1.279 13.59-3.699a1.25 1.25 0 1 0-1.262-2.158 24.468 24.468 0 0 1-12.204 3.353c.003-.198.003-.547.002-1.205l-.001-1.862v-.406c0-.706.001-1.362.004-1.817l.001-.123.005-.332c.322-.002.641-.037.961-.056 2.167-.117 4.18-.576 6.003-1.38.116-.049.237-.088.351-.14l.003.006.09-.043c.017-.008.035-.013.051-.021l.079-.037v-.006l.006-.003-.014-.156v-.22l-.018.018-.278-3.18 3.537 1.647.024-.018.006.001.06-.045a13.879 13.879 0 0 0 .586-.452 18.081 18.081 0 0 0 2.007-1.904c.066-.072.134-.141.199-.214.307-.348.597-.71.876-1.079.137-.18.272-.359.403-.544.116-.165.224-.334.334-.503l5.622 3.263a1.25 1.25 0 0 0 1.255-2.16zm-7.76-.277c-.266.351-.536.699-.827 1.031-.064.074-.131.146-.197.219a18.381 18.381 0 0 1-1.203 1.222c-.451.414-.922.806-1.411 1.171l-3.797-1.769v.003l-.006-.003.332 3.801c-.158.075-.328.129-.49.199a17.493 17.493 0 0 1-4.896 1.274c-.402.042-.818.052-1.232.068-.223.009-.444.032-.668.033v-7.055c.145-.002.287-.027.432-.034.339-.017.679-.033 1.012-.08.206-.029.406-.082.609-.123.279-.056.56-.106.833-.183.22-.062.431-.146.646-.221.253-.088.507-.172.752-.278.19-.082.372-.182.557-.276.269-.134.537-.269.794-.425.04-.024.084-.041.123-.066.149-.092.284-.204.429-.302.192-.132.387-.259.571-.403.226-.176.435-.371.646-.564.133-.122.272-.235.4-.364.232-.234.443-.487.654-.742.092-.111.193-.213.281-.328.254-.333.484-.683.699-1.043.03-.051.068-.095.098-.146a11.104 11.104 0 0 0 1.5-5.58v-.002c0-.484-.033-.967-.095-1.444-.017-.128-.053-.251-.074-.378-.058-.348-.116-.696-.206-1.037-.043-.16-.107-.313-.156-.471-.094-.301-.184-.603-.304-.895-.068-.165-.156-.32-.232-.481-.119-.254-.227-.512-.364-.757l6.109-3.527a18.053 18.053 0 0 1 2.38 8.943c-.159 4.428-1.347 6.966-2.456 8.991l-.585 1.069.005.003c-.071.108-.137.22-.211.327a20.5 20.5 0 0 1-.452.623zM23.03 40.21a17.576 17.576 0 0 1-4.988-1.292c-.149-.065-.307-.114-.453-.184l.332-3.801-.006.003v-.003l-3.797 1.769a18.25 18.25 0 0 1-1.417-1.176l-.027-.026a18.43 18.43 0 0 1-1.176-1.196c-.062-.069-.125-.137-.186-.208a18.509 18.509 0 0 1-.834-1.04c-.15-.201-.299-.402-.441-.608-.075-.109-.142-.222-.215-.332l.036-.021-.621-1.081a18.365 18.365 0 0 1-2.448-8.553c-.003-.123-.011-.246-.011-.369 0-3.171.823-6.277 2.382-8.992l6.109 3.526c-.165.293-.298.6-.435.905-.048.106-.107.206-.151.314-.168.409-.307.828-.426 1.254-.009.034-.024.066-.033.1-.252.94-.386 1.912-.386 2.892a11.12 11.12 0 0 0 1.501 5.582c.024.042.056.078.081.12.222.375.462.737.726 1.081.057.074.123.14.182.212.241.299.491.59.762.863.091.091.191.171.284.259.248.232.498.46.766.668.151.118.311.22.468.33.17.118.331.249.507.358.047.029.098.049.146.078.233.141.476.262.719.385.209.106.414.218.628.311.222.096.453.17.682.252.236.084.469.176.71.243.258.073.524.119.787.173.216.044.429.1.648.131.331.047.667.063 1.003.08.146.007.29.033.436.035v7.055a18.32 18.32 0 0 1-1.388-.073c-.15-.01-.306-.009-.456-.024zm10.637-11.499c-.088.115-.19.219-.283.33-.204.245-.408.49-.631.716-.124.125-.26.237-.39.356-.207.19-.413.38-.634.553-.176.138-.363.26-.547.386-.182.126-.363.254-.552.368-.262.16-.536.296-.81.432-.175.086-.345.182-.524.259-.261.113-.531.2-.8.291-.194.066-.384.144-.582.199-.326.091-.659.151-.992.211-.146.026-.288.067-.435.088a10.777 10.777 0 0 1-2.971 0c-.163-.023-.32-.067-.481-.097-.316-.058-.632-.114-.941-.2-.219-.061-.429-.146-.643-.221-.246-.085-.494-.164-.733-.267-.201-.086-.391-.192-.586-.29-.25-.126-.502-.25-.743-.396-.22-.132-.43-.28-.64-.427-.152-.106-.309-.207-.455-.321a10.77 10.77 0 0 1-.749-.653c-.091-.086-.189-.164-.277-.253a11.067 11.067 0 0 1-.751-.85c-.055-.068-.118-.13-.171-.2a10.967 10.967 0 0 1-.71-1.058c-.011-.019-.025-.035-.036-.054h18.802c-.017.03-.039.056-.057.086-.211.35-.433.691-.678 1.012zM25 3.881a18.257 18.257 0 0 1 15.712 9.004l-6.109 3.527c-.122-.206-.27-.392-.404-.589-.131-.19-.25-.39-.392-.571-.162-.207-.344-.394-.52-.588-.149-.166-.289-.341-.447-.497-.188-.185-.395-.347-.595-.518-.166-.142-.323-.295-.497-.427-.212-.161-.44-.296-.662-.441-.18-.117-.352-.247-.538-.354-.236-.135-.487-.244-.732-.362-.187-.09-.367-.194-.559-.273-.263-.109-.538-.188-.809-.277-.187-.061-.367-.137-.557-.189-.304-.082-.617-.131-.929-.188-.166-.03-.328-.077-.496-.099a10.984 10.984 0 0 0-2.932-.001c-.161.022-.317.067-.477.095-.318.057-.637.107-.947.191-.191.052-.373.128-.56.19-.27.088-.544.167-.805.276-.192.079-.372.183-.559.273-.245.118-.495.226-.731.361-.188.108-.361.238-.543.357-.22.144-.446.278-.656.437-.177.134-.338.29-.507.435-.196.168-.399.327-.584.509-.16.157-.3.334-.451.501-.174.193-.355.378-.515.583-.139.178-.257.374-.386.562-.137.199-.286.388-.411.598L9.294 12.88A18.26 18.26 0 0 1 25 3.881zm.076 7.314a10.947 10.947 0 0 1 9.374 5.451 10.885 10.885 0 0 1 1.461 5.448 10.85 10.85 0 0 1-1.433 5.387l-9.402-16.286zm-10.98 10.9c0-1.928.505-3.814 1.46-5.456a10.942 10.942 0 0 1 9.371-5.444l-9.404 16.288a10.596 10.596 0 0 1-.599-1.208 10.92 10.92 0 0 1-.828-4.18zM8.152 39.539a23.842 23.842 0 0 1-3.626-4.357l5.077-2.938c.088.134.174.27.265.402.135.194.276.383.419.572.286.381.582.756.897 1.115.053.06.11.117.164.176a18.39 18.39 0 0 0 2.07 1.972c.175.142.353.28.539.417l.069.051.06.045.004-.002.002.002 3.537-1.647-.278 3.179-.018-.017v.22l-.014.156.005.003-.001.006.009.004v.002l.212.095.003-.006c.116.053.24.092.358.142 1.823.803 3.835 1.26 6 1.377.32.018.637.054.958.056l.005.332.001.126c.003.455.004 1.109.004 1.813v.413l-.001 1.855a93.28 93.28 0 0 0 .002 1.205 24.468 24.468 0 0 1-12.204-3.353 24.095 24.095 0 0 1-4.518-3.416z"/></svg>