<?xml version="1.0" encoding="utf-8"?>
<!-- Generator: Adobe Illustrator 28.2.0, SVG Export Plug-In . SVG Version: 6.00 Build 0)  -->
<svg version="1.1" id="Camada_1" xmlns="http://www.w3.org/2000/svg" xmlns:xlink="http://www.w3.org/1999/xlink" x="0px" y="0px"
	 viewBox="0 0 50 50" style="enable-background:new 0 0 50 50;" xml:space="preserve">
<style type="text/css">
	.st0{fill:#D1BD00;}
	.st1{fill:#F9F941;}
	.st2{fill:none;stroke:#444444;stroke-width:0.5;stroke-miterlimit:10;}
	.st3{fill:#444444;}
	.st4{fill:none;stroke:#444444;stroke-width:2.5;stroke-linecap:round;stroke-linejoin:round;stroke-miterlimit:10;}
</style>
<g>
	<polygon class="st0" points="25,24.2 32.9,26.7 26.2,31.4 26.3,39.6 19.7,34.7 11.9,37.3 14.6,29.6 9.7,23 17.9,23.1 22.6,16.4 	
		"/>
	<g>
		<path class="st1" d="M47.4,13.8l0.2-2.6c0.2-1.9-1.3-3.6-3.3-3.6L5,7.3c-1.8,0-3.3,1.5-3.3,3.3v5.1v2.9l-0.1,6.4l0.1,0v3.6
			L1.4,40.7c0,1.9,1.5,3.4,3.3,3.4l18-0.2c0.4,0,0.8-0.1,1.1-0.2l21.4-8c1.3-0.5,2.1-1.7,2.1-3.1V20.4l0.1-9.2L48,11l-0.1,2.4
			C47.8,13.2,47.4,14,47.4,13.8z"/>
		<g>
			<g>
				<g>
					<path class="st2" d="M2.7,14.3H47v-4.1c0-0.9-0.7-1.6-1.6-1.6H4.3c-0.9,0-1.6,0.7-1.6,1.6V14.3z"/>
				</g>
				<g>
					<g>
						<path class="st3" d="M5.5,12.1c-0.1,0-0.2,0-0.3-0.1C5.2,12,5.1,12,5,11.9c-0.1-0.1-0.1-0.1-0.2-0.2c0-0.1-0.1-0.2-0.1-0.3
							c0,0,0-0.1,0-0.1c0,0,0-0.1,0-0.1c0,0,0-0.1,0.1-0.1C5,11,5,11,5,10.9c0,0,0.1-0.1,0.1-0.1c0,0,0.1,0,0.1-0.1c0,0,0.1,0,0.1,0
							c0.2,0,0.5,0,0.6,0.2c0,0,0.1,0.1,0.1,0.1c0,0,0,0.1,0.1,0.1c0,0,0,0.1,0,0.1c0,0,0,0.1,0,0.1c0,0.2-0.1,0.4-0.2,0.5
							C6,12,5.9,12,5.8,12.1C5.7,12.1,5.6,12.1,5.5,12.1z"/>
					</g>
					<g>
						<path class="st3" d="M11.2,12.1c-0.2,0-0.4-0.1-0.5-0.2c-0.1-0.1-0.2-0.3-0.2-0.5c0,0,0-0.1,0-0.1c0,0,0-0.1,0-0.1
							c0,0,0-0.1,0.1-0.1c0,0,0.1-0.1,0.1-0.1c0.3-0.3,0.7-0.3,1,0c0,0,0.1,0.1,0.1,0.1c0,0,0,0.1,0.1,0.1c0,0,0,0.1,0,0.1
							c0,0,0,0.1,0,0.1c0,0.2-0.1,0.4-0.2,0.5c-0.1,0.1-0.1,0.1-0.2,0.2C11.4,12.1,11.3,12.1,11.2,12.1z"/>
					</g>
					<g>
						<path class="st3" d="M8.4,12.1c-0.1,0-0.2,0-0.3-0.1C8,12,7.9,12,7.9,11.9c-0.1-0.1-0.2-0.3-0.2-0.5c0,0,0-0.1,0-0.1
							c0,0,0-0.1,0-0.1c0,0,0-0.1,0.1-0.1c0,0,0.1-0.1,0.1-0.1c0.3-0.3,0.7-0.3,1,0c0,0,0.1,0.1,0.1,0.1c0,0,0,0.1,0.1,0.1
							c0,0,0,0.1,0,0.1c0,0,0,0.1,0,0.1c0,0.2-0.1,0.4-0.2,0.5C8.7,12.1,8.5,12.1,8.4,12.1z"/>
					</g>
				</g>
			</g>
			<g>
				<path class="st3" d="M42.3,40.6H7.4c-0.4,0-0.7-0.3-0.7-0.7s0.3-0.7,0.7-0.7h34.9c0.4,0,0.7,0.3,0.7,0.7S42.7,40.6,42.3,40.6z"
					/>
			</g>
			<g>
				<g>
					<path class="st3" d="M14.7,40.6H9.8c-0.4,0-0.7-0.3-0.7-0.7V34c0-0.4,0.3-0.7,0.7-0.7h4.9c0.4,0,0.7,0.3,0.7,0.7v5.8
						C15.4,40.2,15.1,40.6,14.7,40.6z M10.5,39.2H14v-4.4h-3.5V39.2z"/>
				</g>
				<g>
					<path class="st3" d="M23.1,40.6h-4.9c-0.4,0-0.7-0.3-0.7-0.7V27c0-0.4,0.3-0.7,0.7-0.7h4.9c0.4,0,0.7,0.3,0.7,0.7v12.8
						C23.8,40.2,23.5,40.6,23.1,40.6z M18.9,39.2h3.5V27.8h-3.5V39.2z"/>
				</g>
				<g>
					<path class="st3" d="M31.5,40.6h-4.9c-0.4,0-0.7-0.3-0.7-0.7v-9.1c0-0.4,0.3-0.7,0.7-0.7h4.9c0.4,0,0.7,0.3,0.7,0.7v9.1
						C32.2,40.2,31.9,40.6,31.5,40.6z M27.3,39.2h3.5v-7.7h-3.5V39.2z"/>
				</g>
				<g>
					<path class="st3" d="M39.9,40.6H35c-0.4,0-0.7-0.3-0.7-0.7V22.4c0-0.4,0.3-0.7,0.7-0.7h4.9c0.4,0,0.7,0.3,0.7,0.7v17.5
						C40.6,40.2,40.3,40.6,39.9,40.6z M35.7,39.2h3.5V23.1h-3.5V39.2z"/>
				</g>
			</g>
			<path class="st4" d="M38.2,44.3H5.6c-2,0-3.5-1.6-3.5-3.5V11.6c0-2,1.6-3.5,3.5-3.5h37.9c2,0,3.5,1.6,3.5,3.5v22.9"/>
		</g>
	</g>
</g>
</svg>
