<svg xmlns="http://www.w3.org/2000/svg" id="Layer_1" x="0" y="0" version="1.1" viewBox="0 0 50 50" xml:space="preserve"><style>.st1{stroke-width:2.5}.st1,.st2{fill:none;stroke:#444;stroke-linecap:round;stroke-linejoin:round;stroke-miterlimit:10}</style><path fill="#00dffc" d="M48.7 20.3c-.2-.8-2.7-7.5-3.2-8.1l-3-3.5-.2.1L34.7 3l-7.8-.7c-3.2 0-14.5.3-21.4 10.2l-4 10.6-.2.1 4 13.4c.1.4 4.5 5.7 4.9 5.9l5.6 3L48 33.7c.6-.4 1.7-8.6.7-13.4z"/><path d="M32.4 47.5c-7 2.3-15 1.2-21.3-3.6C.8 36.1-1.3 21.4 6.5 11.1" class="st1"/><path d="M6.3 11.2c2-3 4.7-4.7 4.7-4.7l.7-.5C19.8.3 31 .1 39.3 6.4c10.4 7.8 12.4 22.5 4.7 32.8" class="st1"/><path d="M6.2 25.4H17m-3.7-3.3l3.9 3.4-3.6 3.2m30.6-3.3H33.4m3.7 3.3l-3.9-3.3 3.6-3.3M25.3 44.3V33.4M22 37.2l3.3-3.9 3.3 3.6M25.3 6v10.9m3.3-3.8L25.2 17 22 13.4" class="st2"/><circle cx="25.3" cy="22.5" r="2.8" class="st2"/><path d="M25.7 26.3h-.9c-2.7 0-4.8 2.2-4.8 4.8h10.6c-.1-2.6-2.2-4.8-4.9-4.8z" class="st2"/><circle cx="25.3" cy="25.4" r="16.2" fill="none" stroke="#444" stroke-linecap="round" stroke-linejoin="round" stroke-miterlimit="10" stroke-width=".5"/></svg>