<svg xmlns="http://www.w3.org/2000/svg" id="Layer_1" x="0" y="0" version="1.1" viewBox="0 0 50 50" xml:space="preserve"><style>.st1{fill:none;stroke:#444;stroke-width:2.5;stroke-linecap:round;stroke-linejoin:round;stroke-miterlimit:10}</style><path fill="#00dffc" d="M47.5 20.3c-.2-.8-2.7-7.5-3.2-8.1l-3-3.5-.2.1L33.5 3l-7.8-.7c-3.2 0-12.8-.7-21.3 11.5l-2.9 7.9.5 2 1.8 11.5c.1.4 4.7 7 5.1 7.2l5.6 3 32.2-11.7c.7-.4 1.8-8.7.8-13.4z"/><path d="M27.8 47.9C15.1 49.4 3.6 40.4 2.1 27.8s7.4-24.1 20-25.7 24.1 7.4 25.7 20.1c.6 5.1-.5 10-2.8 14.1" class="st1"/><path d="M48.6 36.6L43.9 38l-1.4-4.7M3.9 9.3l4.9-.5.5 4.8" class="st1"/><path fill="none" stroke="#444" stroke-linecap="round" stroke-linejoin="round" stroke-miterlimit="10" d="M33.8 24.9c0-1.3-.3-2.5-.9-3.6l2.2-2.1-2.2-2.8-2.6 1.7c-1-.7-2.1-1.3-3.3-1.5l-.3-3h-3.6l-.3 3.1c-1.2.3-2.3.9-3.3 1.6L17 16.6l-2.2 2.8 2.2 2.1c-.5 1.1-.8 2.3-.8 3.6l-2.9.9.8 3.5 3.1-.4c.6 1.1 1.4 2.1 2.3 2.8l-1 2.8 3.2 1.6 1.6-2.6c.6.1 1.1.2 1.7.2.7 0 1.3-.1 2-.2l1.6 2.6 3.2-1.6-1.1-2.9c.9-.8 1.7-1.8 2.3-2.9l3 .4.8-3.5-3-.9zM25 29.8c-2.6 0-4.7-2.1-4.7-4.7s2.1-4.7 4.7-4.7 4.7 2.1 4.7 4.7c-.1 2.6-2.2 4.7-4.7 4.7z"/></svg>