<?xml version="1.0" encoding="utf-8"?>
<!-- Generator: Adobe Illustrator 22.0.1, SVG Export Plug-In . SVG Version: 6.00 Build 0)  -->
<svg version="1.1" id="Layer_1" xmlns="http://www.w3.org/2000/svg" xmlns:xlink="http://www.w3.org/1999/xlink" x="0px" y="0px"
	 viewBox="0 0 50 50" style="enable-background:new 0 0 50 50;" xml:space="preserve">
<style type="text/css">
	.st0{fill:#CE87EA;}
	.st1{fill:#E097FB;}
	.st2{fill:#464646;}
</style>
<g>
	<g>
		<path class="st0" d="M48,25c0-7.5-3.6-14.2-9.2-18.4L2.6,19.8C2.2,21.5,2,23.2,2,25c0,7.8,3.9,14.6,9.8,18.8l35.5-12.9
			C47.7,29,48,27,48,25z"/>
	</g>
	<g>
		<path class="st1" d="M25.2,1.9C13.9,1.9,4.5,9.8,2.1,20.3L39.5,6.7C35.5,3.7,30.6,1.9,25.2,1.9z"/>
	</g>
	<g>
		<g>
			<path class="st2" d="M29,17.4c1.1,0.7,1.6,1.5,1.8,2.3c1.6-0.5,1.9-1.7,1.9-1.7c0.2-0.9,0-1.8-0.5-2.4c-0.5-0.6-1.2-0.9-2-1
				c0.1,0.5,0,0.9,0,1c0,0.2-0.2,0.3-0.4,0.3c0,0-0.1,0-0.1,0c-0.2-0.1-0.3-0.3-0.3-0.5c0,0,0.1-0.5-0.1-1c-0.6-0.9-1.6-1.2-2.3-1.2
				c-0.8,0-1.6,0.3-1.6,1.1v3C26.2,16.9,27.5,16.5,29,17.4z"/>
		</g>
		<g>
			<path class="st2" d="M23,13.1c-0.7,0-1.7,0.3-2.3,1.2c-0.2,0.5-0.1,1-0.1,1c0.1,0.2-0.1,0.4-0.3,0.5c0,0-0.1,0-0.1,0
				c-0.2,0-0.3-0.1-0.4-0.3c0,0-0.1-0.4,0-1c-0.8,0.1-1.5,0.5-2,1c-0.5,0.6-0.7,1.5-0.5,2.4c0,0.1,0.3,1.2,1.9,1.7
				c0.2-0.8,0.7-1.6,1.8-2.3c1.5-0.9,2.8-0.5,3.6-0.2v-3C24.6,13.5,23.8,13.1,23,13.1z"/>
		</g>
		<g>
			<path class="st2" d="M21.4,18.1c-1,0.6-1.4,1.4-1.5,2.1c0,0,0,0.1,0,0.1c0,0,0,0,0,0.1c-0.1,0.8,0.1,1.4,0.1,1.4
				c0.1,0.2,0,0.4-0.3,0.5c0,0-0.1,0-0.1,0c-0.2,0-0.3-0.1-0.4-0.3c0,0-0.2-0.6-0.1-1.5c-1.5-0.4-2.1-1.4-2.4-1.9
				c-0.7,0.3-1.3,0.8-1.6,1.5c-0.2,0.5-0.3,1.3,0.3,2.1c0,0,0.5,0.7,1.7,1c0.2,0,0.3,0.3,0.3,0.5c0,0.2-0.2,0.3-0.4,0.3
				c0,0-0.1,0-0.1,0c-0.9-0.2-1.5-0.7-1.9-1c-0.8,0.6-0.9,1.4-0.9,1.9c0,0.8,0.5,1.7,0.9,2c0,0,0,0,0,0c0,0,0,0,0,0
				c0.1,0,1.2,0.9,3.4,0.5c0.1-0.7,0.4-1.3,0.8-1.8c1-1,2.6-1.1,2.7-1.1c0,0,0,0,0,0c0.2,0,0.4,0.2,0.4,0.4c0,0.2-0.2,0.4-0.4,0.4
				c-0.1,0-2.8,0-2.8,2.6c0,0.8,0.3,1.4,0.8,1.9c0.6,0.6,1.4,0.7,1.9,0.7c0.2,0,0.4,0.1,0.4,0.4c0,0.2-0.1,0.4-0.4,0.4
				c-0.1,0-0.2,0-0.2,0c-0.8,0-1.7-0.3-2.3-0.9c-0.6-0.6-1-1.3-1-2.3c-0.4,0.1-0.7,0.1-1.1,0.1c-1.2,0-2-0.3-2.4-0.6
				c-0.3,0.5-0.5,1.1-0.4,1.8c0.1,0.8,0.5,1.4,1.3,1.8c0.1-0.3,0.3-0.7,0.7-1c0.2-0.1,0.4-0.1,0.6,0c0.1,0.2,0.1,0.4,0,0.6
				c-0.4,0.4-0.6,0.9-0.6,1c-0.2,1.2,0.2,1.9,0.6,2.4c0.5,0.6,1.1,0.9,1.8,1c-0.1-0.3-0.2-0.7-0.2-1c0-0.2,0.2-0.4,0.4-0.4
				c0,0,0,0,0,0c0.2,0,0.4,0.2,0.4,0.4c0,0.4,0.3,1,0.4,1.2c0,0,0,0,0,0c0.5,1,1.7,1.3,2.6,1.3c0.6,0,1.2-0.1,1.6-0.4
				c0.4-0.3,0.6-0.6,0.6-1v-1.4c-0.3,0.3-0.8,0.5-1.3,0.5c0,0,0,0,0,0c-1.3,0-2-0.7-2-0.8c-0.1-0.2-0.1-0.4,0-0.6
				c0.2-0.1,0.4-0.1,0.6,0c0,0,0.5,0.5,1.4,0.5c0.9,0,1.3-0.8,1.3-1v-4.2c-0.3,0.1-0.6,0.2-1,0.2c-0.4,0-0.9-0.1-1.5-0.3
				c-0.2-0.1-0.3-0.3-0.2-0.5c0.1-0.2,0.3-0.3,0.5-0.2c1.2,0.4,1.9,0.2,2.2,0v-5.3c0-0.5-0.3-0.7-0.5-0.7c-0.4-0.2-1.1-0.1-1.5,0.4
				c-0.1,0.2-0.4,0.2-0.6,0c-0.2-0.1-0.2-0.4,0-0.6c0.7-0.8,1.7-0.9,2.4-0.7c0.1,0,0.2,0.1,0.3,0.1v-3
				C24.2,17.8,22.8,17.2,21.4,18.1z"/>
		</g>
		<g>
			<path class="st2" d="M32.7,28.3c-0.3,0-0.7,0-1.1-0.1c0,0.9-0.4,1.7-1,2.3c-0.6,0.6-1.5,0.9-2.3,0.9c-0.1,0-0.2,0-0.2,0
				c-0.2,0-0.4-0.2-0.4-0.4c0-0.2,0.2-0.4,0.4-0.4c0.5,0,1.3-0.1,1.9-0.7c0.5-0.5,0.8-1.1,0.8-1.9c0-2.6-2.7-2.6-2.8-2.6
				c-0.2,0-0.4-0.2-0.4-0.4c0-0.2,0.2-0.4,0.4-0.4c0,0,0,0,0,0c0.1,0,1.6,0,2.7,1.1c0.5,0.5,0.7,1.1,0.8,1.8
				c2.2,0.4,3.4-0.5,3.4-0.5c0,0,0,0,0,0c0,0,0,0,0,0c0.4-0.2,0.9-1.2,0.9-2c0-0.5-0.2-1.2-0.9-1.9c-0.3,0.3-0.9,0.8-1.9,1
				c0,0-0.1,0-0.1,0c-0.2,0-0.3-0.1-0.4-0.3c0-0.2,0.1-0.4,0.3-0.5c1.1-0.3,1.6-0.9,1.7-1c0.6-0.9,0.5-1.6,0.3-2.1
				c-0.3-0.7-0.9-1.3-1.6-1.5c-0.2,0.6-0.9,1.5-2.4,1.9c0.1,0.8-0.1,1.5-0.1,1.5c-0.1,0.2-0.2,0.3-0.4,0.3c0,0-0.1,0-0.1,0
				c-0.2-0.1-0.3-0.3-0.3-0.5c0,0,0.2-0.7,0.1-1.4c0,0,0,0,0,0c0,0,0,0,0,0c-0.1-0.7-0.5-1.5-1.5-2.1c-1.4-0.8-2.7-0.3-3.2,0v3
				c0.1,0,0.2-0.1,0.3-0.1c0.7-0.3,1.7-0.1,2.4,0.7c0.1,0.2,0.1,0.4,0,0.6c-0.2,0.1-0.4,0.1-0.6,0c-0.4-0.5-1.1-0.6-1.5-0.4
				c-0.2,0.1-0.5,0.3-0.5,0.7v5.3c0.3,0.2,1,0.4,2.2,0c0.2-0.1,0.4,0,0.5,0.2c0.1,0.2,0,0.4-0.2,0.5c-0.6,0.2-1.1,0.3-1.5,0.3
				c-0.4,0-0.7-0.1-1-0.2v4.2c0.1,0.2,0.4,1,1.3,1c0.9,0,1.4-0.5,1.4-0.5c0.1-0.2,0.4-0.2,0.6,0c0.2,0.1,0.2,0.4,0,0.6
				c0,0-0.7,0.8-2,0.8c0,0,0,0,0,0c-0.6,0-1-0.2-1.3-0.5v1.4c0,1,1.1,1.4,2.1,1.4c0.9,0,2.1-0.3,2.6-1.3c0,0,0,0,0,0
				c0.1-0.2,0.4-0.8,0.4-1.2c0-0.2,0.2-0.4,0.4-0.4c0,0,0,0,0,0c0.2,0,0.4,0.2,0.4,0.4c0,0.3-0.1,0.7-0.2,1c0.7-0.1,1.3-0.5,1.8-1
				c0.4-0.5,0.8-1.3,0.6-2.4c0-0.1-0.2-0.7-0.6-1c-0.2-0.1-0.2-0.4,0-0.6c0.1-0.2,0.4-0.2,0.6,0c0.3,0.3,0.6,0.7,0.7,1
				c0.7-0.4,1.2-1,1.3-1.8c0.1-0.6-0.1-1.3-0.4-1.8C34.7,28,33.8,28.3,32.7,28.3z"/>
		</g>
	</g>
	<g>
		<path class="st2" d="M25,45C14,45,5,36,5,25S14,5,25,5s20,9,20,20S36,45,25,45z M25,5.8C14.4,5.8,5.8,14.4,5.8,25
			c0,10.6,8.6,19.2,19.2,19.2c10.6,0,19.2-8.6,19.2-19.2C44.2,14.4,35.6,5.8,25,5.8z"/>
	</g>
	<g>
		<path class="st2" d="M25,48.9C11.8,48.9,1.1,38.2,1.1,25S11.8,1.1,25,1.1S48.9,11.8,48.9,25c0,3.2-0.6,6.4-1.9,9.3
			c-0.3,0.6-1,0.9-1.6,0.7c-0.6-0.3-0.9-1-0.7-1.6c1.1-2.6,1.7-5.4,1.7-8.3c0-11.8-9.6-21.4-21.4-21.4C13.2,3.6,3.6,13.2,3.6,25
			c0,11.8,9.6,21.4,21.4,21.4c1.8,0,3.5-0.2,5.2-0.6c0.7-0.2,1.3,0.2,1.5,0.9c0.2,0.7-0.2,1.3-0.9,1.5C28.9,48.7,27,48.9,25,48.9z"
			/>
	</g>
</g>
</svg>
