<?xml version="1.0" encoding="UTF-8"?>
<svg id="Layer_1" xmlns="http://www.w3.org/2000/svg" version="1.1" viewBox="0 0 50 50">
  <!-- Generator: Adobe Illustrator 29.5.0, SVG Export Plug-In . SVG Version: 2.1.0 Build 137)  -->
  <defs>
    <style>
      .st0 {
        stroke-miterlimit: 10;
      }

      .st0, .st1, .st2, .st3 {
        fill: none;
        stroke: #444;
      }

      .st0, .st3 {
        stroke-width: .5px;
      }

      .st1, .st2, .st3 {
        stroke-linecap: round;
        stroke-linejoin: round;
      }

      .st4 {
        fill: #00dffc;
      }

      .st2 {
        stroke-width: 2.5px;
      }
    </style>
  </defs>
  <path class="st4" d="M48.5,19.5c-.2-.8-2.7-7.5-3.2-8.1l-3-3.5h-.2c0,0-7.6-5.7-7.6-5.7l-7.8-.7c-3.2,0-14.5.3-21.4,10.2l-3.9,10.6h-.2c0,0,4,13.5,4,13.5.1.4,4.5,5.7,4.9,5.9l5.6,3,32.2-11.7c.7-.4,1.7-8.6.8-13.4Z"/>
  <g>
    <path class="st2" d="M32.7,47.3c-7,2.3-15,1.2-21.3-3.6C1,36-1,21.3,6.7,10.9"/>
    <path class="st2" d="M6.6,11.1c2-3,4.7-4.7,4.7-4.7l.7-.5C20.1.1,31.2,0,39.6,6.3c10.4,7.8,12.4,22.5,4.7,32.8"/>
  </g>
  <path class="st0" d="M5.7,13.7c1.6.2,4,.3,5.5.2s1.1-.2,1.6-.2c4.9-.2,9.6,2.9,13.8,4.9s3.2,1.1,4.1,2,.2.8.5,1.1c.4.5,1.5,1,2,1.5s.8.7.7.9c-.4.5-.8,1.1-1.4,1.5-1.5.8-1.7.4-3.2.5s-1.6.3-2.4.4c-2.7.2-5.6-.2-8.2-.5.2,1.7.4,3.5.7,5.1s.3,1.3.4,1.7c.3.7,1.9,1.3,2.6,1.7s2.1,1.3.6,1.6-3.2,0-4,0-.8-.2-1-.3c-.6-.3-2.4-2.7-2.8-3.4-1-1.8-1.8-3.8-2.6-5.7-.1,0-.4.2-.4.3-1,1-1.6,1.9-2,3.3s-.8,3.3-.5,3.7c.5.4,2.4,1,2.6,1.6s-.1.3-.3.4c-.5.2-3.8,0-4.5,0s-1.1-.2-1.4-1.1c-.4-1.3-.6-3.3-.7-4.7s-.2-2,.2-3l-3.3.4"/>
  <path class="st1" d="M11.4,37.5c3.4,3.8,8.5,6.3,14,6.3s6.5-.8,7.9-1.7"/>
  <path class="st1" d="M44.2,25c0-10.4-8.4-18.2-18.8-18.8s-11.1,1.5-16,6.1"/>
  <line class="st1" x1="38.9" y1="17.6" x2="38.9" y2="30"/>
  <path class="st3" d="M35.4,32.9c.2,0,7.1,0,7.1,0,0,0,.7-2.6-3.5-2.6s-3.6,2.5-3.6,2.5Z"/>
  <path class="st3" d="M35.8,33s-1.2,2-1.2,2.1-.3.9.8,1,6.8,0,6.8,0c0,0,1.7,0,1.2-1s-1.4-2.1-1.4-2.1"/>
  <line class="st3" x1="36.3" y1="36.1" x2="36.8" y2="34.6"/>
  <line class="st3" x1="41.9" y1="36.1" x2="41.3" y2="34.6"/>
  <line class="st3" x1="39" y1="36.1" x2="39" y2="34.8"/>
</svg>