<?xml version="1.0" encoding="UTF-8"?>
<svg id="Camada_3" xmlns="http://www.w3.org/2000/svg" version="1.1" viewBox="0 0 50 50">
  <!-- Generator: Adobe Illustrator 29.3.1, SVG Export Plug-In . SVG Version: 2.1.0 Build 151)  -->
  <defs>
    <style>
      .st0 {
        stroke-miterlimit: 10;
      }

      .st0, .st1, .st2, .st3 {
        fill: none;
        stroke: #444;
      }

      .st0, .st3 {
        stroke-width: .5px;
      }

      .st1, .st2, .st3 {
        stroke-linecap: round;
        stroke-linejoin: round;
      }

      .st2 {
        stroke-width: 2.5px;
      }

      .st4 {
        fill: #7df4eb;
      }

      .st5 {
        font-family: OCRAExtended, 'OCR A Extended';
        font-size: 12px;
      }

      .st6 {
        fill: #35d3c3;
      }
    </style>
  </defs>
  <polygon class="st6" points="29.53 17.48 33.19 18.99 30.42 20.77 30.9 24.47 27.68 21.91 24.32 22.69 25.09 19.33 22.54 16.1 26.24 16.58 28.02 13.82 29.53 17.48"/>
  <path class="st4" d="M35.57,2.27l-24.84-.36c-1.08,0-1.19,14.89-1.19,15.98l-.14,13.13.37,8.58.18,8.42,9.6.47,24.89-8.86V9.26h0l-.36.33c0-1.08-7.44-7.32-8.52-7.32Z"/>
  <path class="st2" d="M33.49,48.56H13.38c-1.91,0-3.46-1.55-3.46-3.46V5.3c0-1.91,1.55-3.46,3.46-3.46h22.63l8.1,7.74v31.53"/>
  <polyline class="st1" points="44.56 10.02 35.83 10.11 35.74 1.2"/>
  <polyline class="st1" points="28.24 13.74 13.09 13.74 13.09 47.66 27.7 47.66"/>
  <line class="st1" x1="28.24" y1="19.14" x2="13.62" y2="19.14"/>
  <line class="st1" x1="23.64" y1="28.59" x2="13.18" y2="28.59"/>
  <line class="st1" x1="21.41" y1="33" x2="13.18" y2="33"/>
  <line class="st1" x1="20.67" y1="36.85" x2="13.53" y2="36.85"/>
  <line class="st1" x1="20.67" y1="13.74" x2="20.67" y2="46.95"/>
  <g>
    <path class="st3" d="M36.74,27.91c.09-.22-.74-.79-.9-1.42-.19-.75.17-.96-.06-1.59-.3-.83-1.02-.79-1.23-1.68-.08-.32-.03-.55-.24-.78-.25-.28-.63-.33-.84-.36-.3-.04-.63-.08-.84.12-.22.22-.23.65-.03,1.05"/>
    <line class="st3" x1="34.36" y1="23.12" x2="34.03" y2="23.57"/>
    <path class="st3" d="M32.32,22.55c-.36,0-.86.04-1.44.18-1.26.31-2.1.91-2.89,1.5-1.21.91-1.97,1.79-2.53,2.44-.27.32-1.16,1.39-2.1,3.01-.72,1.24-1.56,2.69-2.04,4.78-.31,1.35-.34,2.4-.36,3.28-.04,1.88-.08,3.5.69,5.32.36.84,1.04,2.46,2.71,3.43.91.53,1.74.65,2.77.78,2.11.28,3.58-.01,5.02-.18,1.43-.17,3.5-.3,6.1-.09"/>
    <path class="st3" d="M38.54,46.94c-.24.06-.3.07-.3.06,0-.03.43-.11.81-.42.32-.25.47-.55.6-.81.14-.27.2-.52.33-1.02.22-.86.17-1.03.12-1.14-.01-.02-.18-.36-.51-.42-.32-.06-.62.18-.69.24-.16.13-.15.19-.24.21-.21.05-.39-.26-.78-.6-.22-.2-.4-.3-.75-.51-.54-.32-.59-.25-1.11-.54-.63-.36-.65-.52-1.08-.66-.24-.08-.45-.1-.99-.09-.47,0-1.1.04-1.86.12"/>
    <path class="st3" d="M34.74,40.9c.15-.67.1-1.2.04-1.52-.08-.44-.23-.76-.44-1.24-.23-.51-.47-.92-.64-1.2"/>
    <path class="st3" d="M28.53,35.53c.41.23,1.07.56,1.92.76.53.13.67.1,2.12.24,1.63.16,1.77.23,2.57.24.71.01,1.24.01,1.92-.16.63-.16,1.28-.33,1.72-.92.08-.11.4-.56.4-1.16,0-.17,0-.67-.32-.88-.17-.12-.36-.09-.56-.08-.35.01-.72-.1-1.44-.32-.17-.05-.9-.28-1.76-.8-.83-.5-.78-.66-1.56-1.12-.36-.21-.93-.54-1.68-.72-.46-.11-1.35-.25-2.49.04"/>
    <path class="st3" d="M32.5,30.6c-.03-.18-.05-.53.16-.76.19-.21.47-.22,1.03-.24.68-.02.8.09,1.23,0,.42-.09.71-.28.83-.36.64-.43,1.06-1.14.99-1.32"/>
    <ellipse class="st3" cx="34.58" cy="26.49" rx=".36" ry=".11" transform="translate(-.39 52.45) rotate(-74.04)"/>
    <polyline class="st3" points="38.06 33.33 38.92 30.94 42.73 32.38 40.57 38.5 36.75 37.94 36.88 37.42 37 36.94"/>
    <polyline class="st3" points="36.75 37.4 36.2 37.4 36.28 36.78"/>
    <polyline class="st3" points="37.34 33.23 38.28 30.94 38.83 31.21"/>
    <path class="st3" d="M37.4,32.67c-.17-.02-.4-.06-.66-.12-.46-.1-.8-.22-1.02-.3-.27-.1-.47-.18-.76-.3-.35-.15-.65-.28-.86-.38"/>
    <path class="st3" d="M34.99,39.92c.46-.03.78.06.98.14.05.02.09.04.62.34.41.23.62.35.66.38.41.29.72.58.72.58.09.09.12.12.18.14.28.11.51-.17.72-.06.14.07.18.25.2.36.05.25-.04.46-.1.6-.18.41-.49.65-.68.78"/>
  </g>
  <path class="st1" d="M27.86,23.87c-4.96,0-14.27,0-14.27,0"/>
  <line class="st1" x1="20.23" y1="40.75" x2="13.09" y2="40.75"/>
  <line class="st1" x1="22.02" y1="44.91" x2="13.09" y2="44.91"/>
  <line class="st0" x1="27.88" y1="23.62" x2="28.8" y2="23.62"/>
  <line class="st0" x1="23.6" y1="28.33" x2="24.08" y2="28.33"/>
  <line class="st0" x1="22.03" y1="45.16" x2="22.71" y2="45.16"/>
  <line class="st0" x1="21.31" y1="32.75" x2="21.79" y2="32.75"/>
  <text class="st5" transform="translate(58 21.72)"><tspan x="0" y="0" xml:space="preserve">        </tspan></text>
</svg>