<?xml version="1.0" encoding="UTF-8"?>
<svg id="Layer_1" xmlns="http://www.w3.org/2000/svg" version="1.1" viewBox="0 0 50 50">
  <!-- Generator: Adobe Illustrator 29.4.0, SVG Export Plug-In . SVG Version: 2.1.0 Build 152)  -->
  <defs>
    <style>
      .st0 {
        stroke: #444;
        stroke-width: 2.5px;
      }

      .st0, .st1 {
        stroke-linecap: round;
        stroke-linejoin: round;
      }

      .st0, .st1, .st2 {
        fill: none;
      }

      .st3 {
        fill: #fcc34f;
      }

      .st1, .st2 {
        stroke: #444;
      }

      .st2 {
        stroke-miterlimit: 10;
        stroke-width: .5px;
      }
    </style>
  </defs>
  <path class="st3" d="M48.4,20c-.2-.8-2.7-7.5-3.2-8.1l-3-3.5h-.2c0,0-7.6-5.7-7.6-5.7l-7.8-.7c-3.2,0-14.5.3-21.4,10.2l-3.9,10.6h-.2c0,0,4,13.5,4,13.5.1.4,4.5,5.7,4.9,5.9l5.6,3,32.2-11.7c.7-.4,1.7-8.6.8-13.4Z"/>
  <g>
    <path class="st0" d="M32.7,47.3c-7,2.3-15,1.2-21.3-3.6C1,36-1,21.3,6.7,10.9"/>
    <path class="st0" d="M6.6,11.1c2-3,4.7-4.7,4.7-4.7l.7-.5C20.1.1,31.2,0,39.6,6.3c10.4,7.8,12.4,22.5,4.7,32.8"/>
  </g>
  <path class="st2" d="M5.7,13.7c1.6.2,4,.3,5.5.2s1.1-.2,1.6-.2c4.9-.2,9.6,2.9,13.8,4.9s3.2,1.1,4.1,2,.2.8.5,1.1c.4.5,1.5,1,2,1.5s.8.7.7.9c-.4.5-.8,1.1-1.4,1.5-1.5.8-1.7.4-3.2.5s-1.6.3-2.4.4c-2.7.2-5.6-.2-8.2-.5.2,1.7.4,3.5.7,5.1s.3,1.3.4,1.7c.3.7,1.9,1.3,2.6,1.7s2.1,1.3.6,1.6-3.2.1-4,0-.8-.2-1-.3c-.6-.3-2.4-2.7-2.8-3.4-1-1.8-1.8-3.8-2.6-5.7-.1,0-.4.2-.4.3-1,1-1.6,1.9-2,3.3s-.8,3.3-.5,3.7c.5.4,2.4,1,2.6,1.6s-.1.3-.3.4c-.5.2-3.8.1-4.5,0s-1.1-.2-1.4-1.1c-.4-1.3-.6-3.3-.7-4.7s-.2-2,.2-3l-3.3.4"/>
  <rect class="st2" x="34.7" y="25.9" width="3" height="14.9" rx=".5" ry=".5"/>
  <rect class="st2" x="38.9" y="20.3" width="3" height="20.5" rx=".5" ry=".5"/>
  <rect class="st2" x="30.4" y="29.7" width="3" height="11.1" rx=".4" ry=".4"/>
  <path class="st1" d="M11.4,37.5c3.4,3.8,8.5,6.3,14,6.3s5.5-.6,7.9-1.7"/>
  <path class="st1" d="M44.2,25c0-10.4-8.4-18.8-18.8-18.8s-10.9,2.6-14.3,6.6"/>
</svg>