<svg xmlns="http://www.w3.org/2000/svg" id="Camada_3" version="1.1" viewBox="0 0 50 50"><defs><style>.st1,.st3{fill:none;stroke:#444}.st3{stroke-width:.5px}.st1,.st3{stroke-linecap:round;stroke-linejoin:round}</style></defs><path fill="#35d3c3" d="M29.53 17.48l3.66 1.51-2.77 1.78.48 3.7-3.22-2.56-3.36.78.77-3.36-2.55-3.23 3.7.48 1.78-2.76 1.51 3.66z"/><path fill="#7df4eb" d="M35.57 2.27l-24.84-.36c-1.08 0-1.19 14.89-1.19 15.98L9.4 31.02l.37 8.58.18 8.42 9.6.47 24.89-8.86V9.26l-.36.33c0-1.08-7.44-7.32-8.52-7.32z"/><path fill="none" stroke="#444" stroke-linecap="round" stroke-linejoin="round" stroke-width="2.5" d="M33.49 48.56H13.38c-1.91 0-3.46-1.55-3.46-3.46V5.3c0-1.91 1.55-3.46 3.46-3.46h22.63l8.1 7.74v31.53"/><path d="M44.56 10.02l-8.73.09-.09-8.91m-7.5 12.54H13.09v33.92H27.7m.54-28.52H13.62m10.02 9.45H13.18M21.41 33h-8.23m7.49 3.85h-7.14m7.14-23.11v33.21" class="st1"/><path d="M36.74 27.91c.09-.22-.74-.79-.9-1.42-.19-.75.17-.96-.06-1.59-.3-.83-1.02-.79-1.23-1.68-.08-.32-.03-.55-.24-.78-.25-.28-.63-.33-.84-.36-.3-.04-.63-.08-.84.12-.22.22-.23.65-.03 1.05m1.76-.13l-.33.45m-1.71-1.02c-.36 0-.86.04-1.44.18-1.26.31-2.1.91-2.89 1.5-1.21.91-1.97 1.79-2.53 2.44-.27.32-1.16 1.39-2.1 3.01-.72 1.24-1.56 2.69-2.04 4.78-.31 1.35-.34 2.4-.36 3.28-.04 1.88-.08 3.5.69 5.32.36.84 1.04 2.46 2.71 3.43.91.53 1.74.65 2.77.78 2.11.28 3.58-.01 5.02-.18 1.43-.17 3.5-.3 6.1-.09" class="st3"/><path d="M38.54 46.94c-.24.06-.3.07-.3.06 0-.03.43-.11.81-.42.32-.25.47-.55.6-.81.14-.27.2-.52.33-1.02.22-.86.17-1.03.12-1.14-.01-.02-.18-.36-.51-.42-.32-.06-.62.18-.69.24-.16.13-.15.19-.24.21-.21.05-.39-.26-.78-.6-.22-.2-.4-.3-.75-.51-.54-.32-.59-.25-1.11-.54-.63-.36-.65-.52-1.08-.66-.24-.08-.45-.1-.99-.09-.47 0-1.1.04-1.86.12m2.65-.46c.15-.67.1-1.2.04-1.52-.08-.44-.23-.76-.44-1.24-.23-.51-.47-.92-.64-1.2m-5.17-1.41c.41.23 1.07.56 1.92.76.53.13.67.1 2.12.24 1.63.16 1.77.23 2.57.24.71.01 1.24.01 1.92-.16.63-.16 1.28-.33 1.72-.92.08-.11.4-.56.4-1.16 0-.17 0-.67-.32-.88-.17-.12-.36-.09-.56-.08-.35.01-.72-.1-1.44-.32-.17-.05-.9-.28-1.76-.8-.83-.5-.78-.66-1.56-1.12-.36-.21-.93-.54-1.68-.72-.46-.11-1.35-.25-2.49.04m3.13-.05c-.03-.18-.05-.53.16-.76.19-.21.47-.22 1.03-.24.68-.02.8.09 1.23 0 .42-.09.71-.28.83-.36.64-.43 1.06-1.14.99-1.32" class="st3"/><ellipse cx="34.58" cy="26.49" class="st3" rx=".36" ry=".11" transform="rotate(-74.04 34.581 26.484)"/><path d="M38.06 33.33l.86-2.39 3.81 1.44-2.16 6.12-3.82-.56.13-.52.12-.48m-.25.46h-.55l.08-.62" class="st3"/><path d="M37.34 33.23l.94-2.29.55.27m-1.43 1.46c-.17-.02-.4-.06-.66-.12-.46-.1-.8-.22-1.02-.3-.27-.1-.47-.18-.76-.3-.35-.15-.65-.28-.86-.38m.89 8.35c.46-.03.78.06.98.14.05.02.09.04.62.34.41.23.62.35.66.38.41.29.72.58.72.58.09.09.12.12.18.14.28.11.51-.17.72-.06.14.07.18.25.2.36.05.25-.04.46-.1.6-.18.41-.49.65-.68.78" class="st3"/><path d="M27.86 23.87H13.59m6.64 16.88h-7.14m8.93 4.16h-8.93" class="st1"/><path fill="none" stroke="#444" stroke-miterlimit="10" stroke-width=".5" d="M27.88 23.62h.92m-5.2 4.71h.48m-2.05 16.83h.68m-1.4-12.41h.48"/><text font-family="OCRAExtended,'OCR A Extended'" font-size="12" transform="translate(58 21.72)"/></svg>