<?xml version="1.0" encoding="utf-8"?>
<!-- Generator: Adobe Illustrator 22.0.1, SVG Export Plug-In . SVG Version: 6.00 Build 0)  -->
<svg version="1.1" id="Layer_1" xmlns="http://www.w3.org/2000/svg" xmlns:xlink="http://www.w3.org/1999/xlink" x="0px" y="0px"
	 viewBox="0 0 50 50" style="enable-background:new 0 0 50 50;" xml:space="preserve">
<style type="text/css">
	.st0{fill:#AFE55D;}
	.st1{fill:#C3FF68;}
	.st2{fill:none;stroke:#031326;stroke-width:2.5;stroke-linecap:round;stroke-miterlimit:10;}
	.st3{fill:none;stroke:#031326;stroke-width:0.75;stroke-linecap:round;stroke-miterlimit:10;}
	.st4{fill:#031326;}
</style>
<g>
	<polygon class="st0" points="48.4,7.1 1.6,24.1 1.6,42.7 48.4,25.7 	"/>
	<polygon class="st1" points="48.4,7 1.6,7 1.6,24.1 48.4,7.1 	"/>
	<polygon class="st2" points="48.4,43 39.4,43 1.6,43 1.6,7 48.4,7 48.4,30.6 	"/>
	<g>
		<line class="st3" x1="25" y1="6.8" x2="25" y2="8.7"/>
		<line class="st3" x1="25" y1="11.7" x2="25" y2="13.7"/>
		<line class="st3" x1="25" y1="16.7" x2="25" y2="18.6"/>
		<line class="st3" x1="25" y1="21.6" x2="25" y2="23.5"/>
		<line class="st3" x1="25" y1="26.5" x2="25" y2="28.4"/>
		<line class="st3" x1="25" y1="31.4" x2="25" y2="33.3"/>
		<line class="st3" x1="25" y1="36.3" x2="25" y2="38.3"/>
		<line class="st3" x1="25" y1="41.3" x2="25" y2="43.2"/>
	</g>
	<line class="st2" x1="6.2" y1="17.6" x2="6.2" y2="24.5"/>
	<line class="st2" x1="43.9" y1="30.6" x2="43.9" y2="37.5"/>
	<circle class="st4" cx="39.4" cy="33" r="1.7"/>
</g>
</svg>
