<?xml version="1.0" encoding="utf-8"?>
<!-- Generator: Adobe Illustrator 22.0.1, SVG Export Plug-In . SVG Version: 6.00 Build 0)  -->
<svg version="1.1" id="Layer_1" xmlns="http://www.w3.org/2000/svg" xmlns:xlink="http://www.w3.org/1999/xlink" x="0px" y="0px"
	 viewBox="0 0 50 50" style="enable-background:new 0 0 50 50;" xml:space="preserve">
<style type="text/css">
	.st0{fill:#9674EA;}
	.st1{fill:#B292F3;}
	.st2{fill:#464646;}
</style>
<g>
	<path class="st0" d="M47.7,17.4c0.3-1.1,0-2.3-0.7-3.3c-0.5-0.7-1.3-1.2-2.1-1.4l0.3-2.2L1.5,26.5l0,15.4c0,0.9,0.2,1.7,0.8,2.4
		l42.5-15.5L47.7,17.4z"/>
	<path class="st1" d="M45.3,9.2c0.1-1.1-0.2-2.1-0.9-3C43.7,5.4,42.6,5,41.6,5h-8.7c-1.5,0-2.8,0.8-3.4,2.2C29.2,7.6,28.6,8,28.1,8
		l-21,0C4,8,1.5,10.5,1.5,13.5l0,13l43.6-15.9L45.3,9.2z"/>
	<path class="st2" d="M48.1,13.2c-0.5-0.6-1.1-1.1-1.7-1.4l0.3-2.7c0.2-1.4-0.3-2.8-1.2-3.9c-0.9-1.1-2.3-1.7-3.7-1.7h-8.6
		c-1.9,0-3.7,1.1-4.5,2.9c0,0.1-0.1,0.1-0.2,0.1l-20.7,0c-3.7,0-6.7,3-6.8,6.7l0,28c0,1.2,0.3,2.3,1,3.2c0.9,1.2,2.4,1.9,3.9,1.9
		h31.8c2.3,0,4.3-1.5,4.8-3.7L49,17.5C49.3,16,49,14.4,48.1,13.2z M44.3,13.8l0.4,0.1c0.6,0.1,1.1,0.4,1.4,0.9
		c0.1,0.1,0.1,0.2,0.2,0.3c0.1,0.4,0.2,0.8,0.1,1.2l-6.8,26.3c-0.1,0.5-0.5,0.9-0.9,1.2c-0.3,0.1-0.7,0.2-1,0.2H5.9
		c-0.8,0-1.5-0.3-2-1c-0.4-0.5-0.5-1-0.5-1.7l0-2.9L9,16.6c0.4-1.7,2-2.9,3.7-2.9H44.3z M7.7,9.1l20.7,0c1.1,0,2-0.6,2.5-1.6
		c0.4-0.9,1.3-1.4,2.2-1.4h8.6c0.7,0,1.4,0.3,1.8,0.8c0.5,0.5,0.7,1.2,0.6,1.9L43.7,13H12.7c-2.1,0-3.9,1.4-4.4,3.4l-4.9,19l0-22.2
		C3.4,11,5.3,9.1,7.7,9.1z"/>
</g>
</svg>
