<?xml version="1.0" encoding="utf-8"?>
<!-- Generator: Adobe Illustrator 21.1.0, SVG Export Plug-In . SVG Version: 6.00 Build 0)  -->
<svg version="1.0" id="Layer_1" xmlns="http://www.w3.org/2000/svg" xmlns:xlink="http://www.w3.org/1999/xlink" x="0px" y="0px"
	 viewBox="0 0 50 50" enable-background="new 0 0 50 50" xml:space="preserve">
<path fill="#E56060" d="M9.831,42.045l37.792-13.757c0.164-1.109,0.246-2.229,0.247-3.35c0-12.63-10.239-22.87-22.87-22.87
	S2.13,12.308,2.13,24.938C2.131,31.746,5.109,37.855,9.831,42.045z"/>
<path fill="#FF6B6B" d="M37.745,5.903c-3.738-2.479-8.125-3.799-12.61-3.793c-10.37,0-19.12,6.903-21.925,16.362L37.745,5.903z"/>
<path fill="#444444" d="M25,0.881c-13.3,0-24.12,10.82-24.12,24.12S11.701,49.119,25,49.119c4.769,0,9.38-1.39,13.335-4.019
	c0.469-0.312,0.641-0.882,0.487-1.395c0-0.009,0.004-0.018,0.003-0.027c-0.125-1.405-0.774-2.701-1.928-3.854
	c-0.905-0.901-2.019-1.582-3.095-2.24c-1.703-1.041-3.453-2.126-4.491-4.132c2.98-2.113,5.697-6.047,5.697-10.559
	c0-6.732-4.49-12.209-10.008-12.209S14.992,16.16,14.992,22.893c0,4.512,2.715,8.444,5.695,10.558
	c-1.032,2.004-2.781,3.089-4.483,4.13c-1.078,0.659-2.192,1.341-3.096,2.244c-0.624,0.615-1.125,1.343-1.477,2.145
	C6.612,38.008,3.381,31.876,3.381,25c0-11.921,9.699-21.62,21.62-21.62S46.619,13.08,46.619,25c0,1.062-0.078,2.127-0.23,3.168
	c-0.095,0.684,0.383,1.315,1.066,1.41c0.673,0.093,1.297-0.368,1.406-1.038l0.001-0.009c0.17-1.161,0.257-2.349,0.257-3.531
	C49.119,11.7,38.299,0.88,25,0.881z M16.492,22.894c0-5.905,3.816-10.709,8.508-10.709s8.508,4.804,8.508,10.709
	c0,5.704-5.303,10.709-8.508,10.709S16.492,28.597,16.492,22.894z M14.169,40.886c0.777-0.777,1.769-1.383,2.818-2.024
	c1.769-1.082,3.75-2.314,4.978-4.623c1.057,0.552,2.105,0.865,3.036,0.865c0.93,0,1.977-0.312,3.034-0.863
	c1.234,2.31,3.216,3.542,4.986,4.624c1.049,0.642,2.04,1.247,2.818,2.022c0.643,0.643,1.075,1.332,1.307,2.054
	c-0.064,0.028-0.133,0.039-0.193,0.079c-3.541,2.354-7.699,3.607-11.951,3.601c-4.325,0.005-8.551-1.295-12.126-3.73
	C13.113,42.19,13.537,41.518,14.169,40.886z"/>
</svg>
