<svg xmlns="http://www.w3.org/2000/svg" viewBox="0 0 50 50"><path fill="#35d3c3" d="M30.9 22.3l7.8 2.4-6.7 4.7.1 8.2-6.6-4.9-7.8 2.7 2.7-7.8-4.9-6.6 8.2.1 4.7-6.7z"/><path fill="#7df4eb" d="M38.4 3.6L14.9 3c-1.5 0-.6 10.3-.6 11.9H6.5l-.7 25-3.6.8c-.8.2.7 4.5 1.4 4.9 7.8 2.4 10-.4 28.1.8l17-5.8.4-22.7L48 15l-8.4-1.1c0-1.6.3-10.3-1.2-10.3z"/><path fill="none" stroke="#444" stroke-linecap="round" stroke-linejoin="round" d="M45.3 14.1c1.9 0 3.4 1.5 3.4 3.4v22.8m-43.2 0V17.5c0-1.9 1.5-3.4 3.4-3.4m39.8 27h-17l-.2.7c0 .3-.2.5-.6.5h-7.7c-.3 0-.6-.2-.6-.5v-.6H1.4c0 2.8 2.8 5 6.2 5h36.2m-22.9-8.8v-5.6m4.1 5.6v-9.8m4.1 9.8v-7.1m4.2 7.1v-5.6m-20.6 5.6v-6.6m4.1 6.6v-8.3m20.6 8.3v-8.3m4.1 8.3V26.8M9.8 37.4h34" clip-rule="evenodd"/><path fill="none" stroke="#444" stroke-linecap="round" stroke-linejoin="round" stroke-width="2.5" d="M48.7 40.3V17.5c0-1.9-1.5-3.4-3.4-3.4H39V4.4c0-.9-.7-1.6-1.6-1.6H15.6c-.9 0-1.6.7-1.6 1.6l.1 9.6H8.9c-1.9 0-3.4 1.5-3.4 3.4v22.8H1.4c0 3.3 2.8 5.9 6.2 5.9h36.2" clip-rule="evenodd"/><path fill="#444" d="M18.6 22c-.9 0-1.6-.7-1.6-1.6v-4.3c0-.9.7-1.6 1.6-1.6.9 0 1.6.7 1.6 1.6v4.3c0 .9-.7 1.6-1.6 1.6zm6.5-2v-9c0-1.1-.7-2-1.6-2s-1.6.9-1.6 2v9c0 1.1.7 2 1.6 2 .8-.1 1.6-1 1.6-2zm5.2.8v-8.1c0-.7-.7-1.2-1.6-1.2-.9 0-1.6.5-1.6 1.2v8.2c0 .7.7 1.2 1.6 1.2.8-.1 1.6-.6 1.6-1.3zm4.9-.3V7c0-.9-.7-1.6-1.6-1.6S32 6.1 32 7v13.4c0 .9.7 1.6 1.6 1.6.9 0 1.6-.7 1.6-1.5z"/><path fill="none" stroke="#444" stroke-linecap="round" stroke-linejoin="round" stroke-miterlimit="10" d="M21.4 23.5h-3.2c-1.9 0-3.4-1.5-3.4-3.4V2.9h23.3v17.3c0 1.9-1.5 3.4-3.4 3.4h-3"/></svg>