<?xml version="1.0" encoding="utf-8"?>
<!-- Generator: Adobe Illustrator 26.5.0, SVG Export Plug-In . SVG Version: 6.00 Build 0)  -->
<svg version="1.1" id="Camada_3" xmlns="http://www.w3.org/2000/svg" xmlns:xlink="http://www.w3.org/1999/xlink" x="0px" y="0px"
	 viewBox="0 0 50 50" style="enable-background:new 0 0 50 50;" xml:space="preserve">
<style type="text/css">
	.st0{fill:#00C8E2;}
	.st1{fill:#00DFFC;}
	.st2{fill:none;stroke:#444444;stroke-width:2.5;stroke-linecap:round;stroke-linejoin:round;stroke-miterlimit:10;}
	.st3{fill:#444444;}
</style>
<g>
	<g>
		<polygon class="st0" points="48.46,16.5 49.2,21.7 3.14,38.46 2.6,27.57 2.56,21.33 47.13,5.18 48,9.05 		"/>
		<polygon class="st1" points="46.28,1.97 48.53,5.21 1.68,21.94 2.79,4.77 5.77,1.88 34.82,1.71 		"/>
		<g>
			<path class="st2" d="M25.07,48.29H5.6c-1.87,0-3.39-1.58-3.39-3.54V5.84c0-1.95,1.52-3.54,3.39-3.54h39.01
				c1.87,0,3.39,1.58,3.39,3.54v25.89"/>
			<path class="st2" d="M2.21,15.84"/>
			<path class="st2" d="M47.99,15.84"/>
		</g>
	</g>
	<g>
		<polygon class="st3" points="6.86,8.02 10.32,8.02 12.93,12.89 15.7,8.02 19,8.02 14.85,14.41 19,21.33 16.01,21.33 12.93,16.02 
			9.94,21.33 6.86,21.33 11.17,14.63 		"/>
		<g>
			<path class="st3" d="M34.5,42.88l0-22.66c0-0.72-0.73-1.3-1.63-1.3h-3.79c-0.9,0-1.63,0.58-1.63,1.3v1.71l0.35,0.02
				c0.9,0,1.53,0.89,1.61,1.65v18.92l0,0.43c-0.03,0.27-0.18,0.87-0.8,1.1c0,0,0.33,0.12,0.77,0.12h-0.06h0.06c0.01,0,0.02,0,0.03,0
				v0l3.46,0C33.77,44.18,34.5,43.6,34.5,42.88z"/>
			<path class="st3" d="M28.46,42.88V23.96c0-0.72-0.73-1.3-1.63-1.3h-3.79c-0.9,0-1.63,0.58-1.63,1.3v0.67v0.24
				c0.9,0,1.53,0.75,1.69,1.43v16.11l-0.02,0.51c-0.02,0.18-0.14,0.87-0.84,1.13c0,0,0.34,0.13,0.8,0.13h3.79
				C27.73,44.18,28.46,43.59,28.46,42.88z"/>
			<path class="st3" d="M22.23,42.88V26.77c0-0.72-0.73-1.3-1.63-1.3h-3.89c-0.9,0-1.63,0.58-1.63,1.3v16.11
				c0,0.72,0.73,1.3,1.63,1.3v0h3.89C21.5,44.18,22.23,43.6,22.23,42.88z"/>
			<path class="st3" d="M36.97,5.82l-7.05,4.68h3.52l0.07,7.77h0.38c0.74,0.04,1.43,0.98,1.51,1.52l0,22.41l0.01,0.77
				c-0.04,0.28-0.2,0.85-0.79,1.07c0,0,0.36,0.12,0.81,0.12l0,0l3.44,0c0.9,0,1.63-0.58,1.63-1.3V10.5h3.52L36.97,5.82z"/>
		</g>
	</g>
</g>
</svg>
