<?xml version="1.0" encoding="UTF-8"?>
<svg xmlns="http://www.w3.org/2000/svg" version="1.1" viewBox="0 0 50 50">
  <defs>
    <style>
      .cls-1, .cls-2, .cls-3 {
        fill: none;
        stroke: #444;
        stroke-linecap: round;
        stroke-linejoin: round;
      }

      .cls-1, .cls-3 {
        fill-rule: evenodd;
      }

      .cls-4 {
        fill: #319327;
      }

      .cls-2 {
        stroke-width: 2.5px;
      }

      .cls-5 {
        fill: #5aba52;
      }

      .cls-3 {
        stroke-width: .5px;
      }
    </style>
  </defs>
  <!-- Generator: Adobe Illustrator 28.6.0, SVG Export Plug-In . SVG Version: 1.2.0 Build 709)  -->
  <g>
    <g id="Camada_1">
      <polygon class="cls-4" points="27.6 19 35.5 21.4 28.8 26.2 28.9 34.4 22.3 29.5 14.5 32.1 17.2 24.3 12.3 17.7 20.5 17.9 25.2 11.2 27.6 19"/>
      <g>
        <path class="cls-5" d="M44.7,12.9l-5.6-3.6-7.7-4.4-6-2.8C22.2,2.1,4,11,4,14.2l-.5,7.8.5,15.1,11.5,7.6,31-11c.7-.4-.8-18.7-1.8-20.7Z"/>
        <path class="cls-2" d="M30,46.6l-2.2,1.3c-1.7,1-3.8,1-5.5,0l-15.6-9c-1.7-1-2.7-2.8-2.7-4.7v-18c0-2,1-3.8,2.7-4.7L22.3,2.5c1.7-1,3.8-1,5.5,0l15.6,9c1.7,1,2.7,2.8,2.7,4.7v18c0,2-1,3.8-2.7,4.7l-2.5,1.4"/>
        <g>
          <path class="cls-3" d="M38.8,20.5c.1.2,0,.4-.1.5-.2.1-.4,0-.5-.1l-4.5-7.7s0,0-.1,0c-.5.1-1,0-1.5-.2h0c-.5-.3-.8-.7-.9-1.2-.1-.5,0-1,.2-1.4,0,0,0,0,0,0,.3-.5.7-.8,1.2-.9.5-.1,1,0,1.5.2.5.3.8.7.9,1.2.1.5,0,1-.2,1.5h0c-.1.2-.2.4-.4.5l4.5,7.7h0ZM10.3,23.7c.3.3.5.6.6,1,.1.5,0,1-.2,1.5h0c-.3.5-.7.8-1.2.9-.5.1-1,0-1.4-.2,0,0,0,0,0,0-.4-.3-.7-.7-.9-1.2-.1-.5,0-1,.2-1.4,0,0,0,0,0,0,.3-.4.7-.7,1.2-.9.4,0,.8,0,1.1,0l4.5-7.7c.1-.2.3-.2.5-.1.2.1.2.3.1.5l-4.5,7.7h0ZM16.6,9.4c.5-.1,1,0,1.4.2,0,0,0,0,0,0,.5.3.8.7.9,1.2,0,0,0,0,0,.1h8.9c.2,0,.4.2.4.4s-.2.4-.4.4h-8.9c0,.2-.1.4-.2.6h0c-.3.5-.7.8-1.2.9-.5.1-1,0-1.5-.2h0c-.9-.5-1.2-1.7-.7-2.6.3-.5.7-.8,1.2-.9h0ZM42,23.5s0,0,0,0c.4.3.7.7.9,1.2.1.5,0,1-.2,1.4,0,0,0,0,0,0h0c-.3.5-.7.8-1.2.9-.4,0-.8,0-1.1,0l-4.5,7.7c-.1.2-.3.2-.5.1-.2-.1-.2-.3-.1-.5l4.5-7.7c-.7-.6-.9-1.6-.4-2.4,0,0,0,0,0,0,.3-.4.7-.7,1.2-.9.5-.1,1,0,1.4.2h0ZM32.6,37.2c.5-.1,1,0,1.5.2h0c.5.3.8.7.9,1.2.1.5,0,1-.2,1.4,0,0,0,0,0,0-.3.5-.7.8-1.2.9-.5.1-1,0-1.4-.2,0,0,0,0,0,0h0c-.5-.3-.8-.7-.9-1.2,0,0,0,0,0-.1h-8.9c-.2,0-.4-.2-.4-.4s.2-.4.4-.4h8.9c0-.2.1-.4.2-.6,0,0,0,0,0,0h0c.3-.5.7-.8,1.2-.9h0ZM16.6,37.2c.5-.1,1,0,1.4.2,0,0,0,0,0,0,.4.3.7.7.9,1.2.1.5,0,1-.2,1.4,0,0,0,0,0,0-.3.4-.7.7-1.2.9-.5.1-1,0-1.5-.2-.5-.3-.8-.7-.9-1.2-.1-.5,0-1,.2-1.5.1-.2.2-.4.4-.5l-4.5-7.7c-.1-.2,0-.4.1-.5.2-.1.4,0,.5.1l4.5,7.7s0,0,.1,0h0Z"/>
          <path class="cls-1" d="M25.1,21.6c1,0,1.9.4,2.5,1,.6.6,1,1.5,1,2.5s-.4,1.9-1,2.5-1.5,1-2.5,1-1.9-.4-2.5-1c-.6-.6-1-1.5-1-2.5s.4-1.9,1-2.5,1.5-1,2.5-1h0Z"/>
          <path class="cls-1" d="M24.1,16c-.2,0-.4,0-.5.2-.1.1-.2.3-.2.5v1.5c-.1,0-.1,0-.1,0,0,0,0,0,0,0-.3,0-.6.2-.9.3-.3.1-.6.3-.9.4,0,0,0,0,0,0,0,0,0,0,0,0l-1.1-.9c-.2-.1-.3-.2-.5-.2-.2,0-.4,0-.5.2l-1.3,1.3c-.1.1-.2.3-.2.5,0,.2,0,.4.2.5l.9,1.1s0,0,0,0c0,0,0,0,0,0-.2.3-.3.6-.4.9-.1.3-.2.6-.3.9,0,0,0,0,0,0,0,0,0,0,0,0h-1.5c-.2.2-.4.2-.5.4-.1.1-.2.3-.2.5v1.9c0,.2,0,.4.2.5.1.1.3.2.5.2h1.5q0,.1,0,.1h0s0,0,0,0c0,0,0,0,0,0,0,.3.2.6.3.9.1.3.3.6.4.9,0,0,0,0,0,0,0,0,0,0,0,0l-.9,1.1c-.1.2-.2.3-.2.5,0,.2,0,.4.2.5l1.3,1.3c.1.1.3.2.5.2.2,0,.4,0,.5-.2l1.1-.9s0,0,0,0c0,0,0,0,0,0,.3.2.6.3.9.4.3.1.6.2.9.3,0,0,0,0,0,0,0,0,0,0,0,0v1.5c.2.2.2.4.4.5.1.1.3.2.5.2h1.9c.2,0,.4,0,.5-.2.1-.1.2-.3.2-.5v-1.5q.1,0,.1,0h0s0,0,0,0c0,0,0,0,0,0,.3,0,.6-.2.9-.3.3-.1.6-.3.9-.4,0,0,0,0,0,0,0,0,0,0,0,0l1.1.9c.2.1.3.2.5.2.2,0,.4,0,.5-.2l1.3-1.3c.1-.1.2-.3.2-.5,0-.2,0-.4-.2-.5l-.9-1.1s0,0,0,0c0,0,0,0,0,0,.2-.3.3-.6.4-.9.1-.3.2-.6.3-.9,0,0,0,0,0,0,0,0,0,0,0,0h1.5c.2-.2.4-.2.5-.4.1-.1.2-.3.2-.5v-1.9c0-.2,0-.4-.2-.5-.1-.1-.3-.2-.5-.2h-1.5c0-.1,0-.1,0-.1,0,0,0,0,0,0,0-.3-.2-.6-.3-.9-.1-.3-.3-.6-.4-.9,0,0,0,0,0,0,0,0,0,0,0,0l.9-1.1c.1-.2.2-.3.2-.5,0-.2,0-.4-.2-.5l-1.3-1.3c-.1-.1-.3-.2-.5-.2-.2,0-.4,0-.5.2l-1.1.9s0,0,0,0c0,0,0,0,0,0-.3-.2-.6-.3-.9-.4-.3-.1-.6-.2-.9-.3,0,0,0,0,0,0,0,0,0,0,0,0v-1.5c-.2-.2-.2-.4-.4-.5-.1-.1-.3-.2-.5-.2h-1.9Z"/>
        </g>
      </g>
    </g>
  </g>
</svg>