<?xml version="1.0" encoding="utf-8"?>
<!-- Generator: Adobe Illustrator 22.0.1, SVG Export Plug-In . SVG Version: 6.00 Build 0)  -->
<svg version="1.1" id="Layer_1" xmlns="http://www.w3.org/2000/svg" xmlns:xlink="http://www.w3.org/1999/xlink" x="0px" y="0px"
	 viewBox="0 0 50 50" style="enable-background:new 0 0 50 50;" xml:space="preserve">
<style type="text/css">
	.st0{fill:#81CBC2;}
	.st1{fill:#75B6AE;}
	.st2{fill:#464646;}
</style>
<g>
	<path class="st0" d="M45.5,4.6H7.1l41,14.9V7.2C48.2,5.8,47,4.6,45.5,4.6z"/>
</g>
<g>
	<path class="st1" d="M44.9,39.2c1.4,0,2.6-1.2,2.6-2.6V19.3L7.1,4.6H4.7c-1.4,0-2.6,1.2-2.6,2.6v17.7l39.2,14.3H44.9z"/>
</g>
<g>
	<path class="st2" d="M45.3,40.6H23.9c-0.7,0-1.2-0.6-1.2-1.2s0.6-1.2,1.2-1.2h21.3c0.7,0,1.3-0.6,1.3-1.3V7.4
		c0-0.7-0.6-1.3-1.3-1.3H5.1c-0.7,0-1.3,0.6-1.3,1.3v18.2c0,0.7-0.6,1.3-1.2,1.3s-1.2-0.6-1.2-1.3V7.4c0-2.1,1.7-3.8,3.8-3.8h40.2
		c2.1,0,3.8,1.7,3.8,3.8v29.4C49.1,38.9,47.4,40.6,45.3,40.6z"/>
</g>
<path class="st2" d="M40.4,11.8h-7.8c-1.3,0-2.4,1.1-2.4,2.4v2.6h-4c-0.8,0-1.5,0.5-1.8,1.2l-8.2,20.9c-0.1,0.1-0.2,0.2-0.3,0.2
	h-2.2v-2.7c0-1.3-1.1-2.4-2.4-2.4H3.4c-1.3,0-2.4,1.1-2.4,2.4v7.8c0,1.3,1.1,2.4,2.4,2.4h7.8c1.3,0,2.4-1.1,2.4-2.4v-2.6h2.2
	c1.2,0,2.2-0.7,2.6-1.8l8.1-20.5h3.6V22c0,1.3,1.1,2.4,2.4,2.4h7.8c1.3,0,2.4-1.1,2.4-2.4v-7.8C42.8,12.9,41.7,11.8,40.4,11.8z
	 M11.1,44.1H3.4v-7.7h7.7V44.1z"/>
</svg>
