<?xml version="1.0" encoding="utf-8"?>
<!-- Generator: Adobe Illustrator 27.5.0, SVG Export Plug-In . SVG Version: 6.00 Build 0)  -->
<svg version="1.1" id="Camada_1" xmlns="http://www.w3.org/2000/svg" xmlns:xlink="http://www.w3.org/1999/xlink" x="0px" y="0px"
	 viewBox="0 0 50 50" style="enable-background:new 0 0 50 50;" xml:space="preserve">
<style type="text/css">
	.st0{fill:#7DF4EB;}
	.st1{fill:none;stroke:#444444;stroke-width:2.5;stroke-linecap:round;stroke-linejoin:round;stroke-miterlimit:10;}
	.st2{fill:#444444;stroke:#444444;stroke-width:0.25;stroke-miterlimit:10;}
	.st3{fill:#444444;}
	.st4{fill:none;stroke:#444444;stroke-width:0.5;stroke-miterlimit:10;}
	.st5{fill:none;}
	.st6{font-family:'MyriadPro-Regular';}
	.st7{font-size:7px;}
	.st8{fill:none;stroke:#444444;stroke-width:0.5;stroke-linecap:round;stroke-miterlimit:10;}
</style>
<path class="st0" d="M44.6,12.4L39,8.8l-7.7-4.4l-6-2.8c-3.2,0-21.5,8.9-21.5,12.1l-0.5,7.8l0.5,15.1l11.5,7.6l31-11
	C47.2,32.7,45.6,14.4,44.6,12.4z"/>
<g>
	<g>
		<path class="st1" d="M29.9,46.5l-2.2,1.3c-1.7,1-3.8,1-5.5,0l-15.6-9C5,37.8,3.9,36,3.9,34V16c0-2,1-3.8,2.7-4.7l15.6-9
			c1.7-1,3.8-1,5.5,0l15.6,9c1.7,1,2.7,2.8,2.7,4.7v18c0,2-1,3.8-2.7,4.7l-2.5,1.4"/>
	</g>
</g>
<g>
	<path class="st2" d="M36.7,32.2L36.7,32.2c0,0.5,0,1,0,1.4c0,1.5,0,3,0,4.5c0,0.1,0,0.1,0,0.2c0,0.1-0.1,0.2-0.1,0.3
		c0,0.1-0.1,0.2-0.2,0.3c-0.1,0.1-0.1,0.2-0.2,0.2c-0.1,0.1-0.2,0.2-0.3,0.2c-0.1,0.1-0.3,0.2-0.4,0.2s-0.2,0.1-0.3,0.1
		s-0.3,0-0.4,0c-0.1,0-0.2,0-0.3-0.1c-0.2,0-0.3-0.1-0.4-0.2c-0.1,0-0.2-0.1-0.3-0.2c-0.1,0-0.1-0.1-0.2-0.1
		c-0.1-0.1-0.1-0.2-0.1-0.3s0-0.1,0-0.2c0-0.1,0.1-0.1,0.2-0.2c0.1,0,0.1,0,0.2,0s0.1,0,0.2,0.1c0.1,0.1,0.2,0.1,0.4,0.2
		c0.2,0.1,0.3,0.1,0.4,0.1c0.2,0,0.3-0.1,0.4-0.2c0.1-0.1,0.2-0.2,0.3-0.3s0.1-0.2,0.1-0.3c0-0.1,0-0.1,0-0.2c0-1.1,0-2.1,0-3.1
		v-0.1c0-0.8,0-1.5,0-2.3c0-0.1,0-0.2,0-0.3c0-0.2-0.1-0.3-0.2-0.4c-0.1-0.1-0.2-0.2-0.3-0.2c-0.2-0.1-0.4-0.1-0.5-0.2
		c-0.2-0.1-0.4-0.1-0.4-0.2c-0.2-0.1-0.3-0.1-0.4-0.2c-0.2-0.1-0.4-0.1-0.5-0.2s-0.3-0.1-0.4-0.2c-0.2-0.1-0.4-0.1-0.6-0.2
		c-0.2-0.1-0.3-0.1-0.4-0.2c-0.2-0.1-0.4-0.1-0.5-0.2C31.3,30,31.1,30,31,29.9c-0.1,0-0.2-0.1-0.4-0.1c-0.2-0.1-0.4-0.1-0.5-0.2
		c-0.3-0.1-0.4-0.2-0.7-0.2c-0.4-0.1-0.6-0.2-1-0.3c-0.2-0.1-0.4-0.1-0.5-0.2c-0.3-0.1-0.5-0.2-0.8-0.3c-0.1,0-0.2-0.1-0.3-0.1h-0.1
		c-0.1,0-0.2-0.1-0.3-0.1c-0.2,0-0.4,0.1-0.5,0.3c-0.1,0.1-0.1,0.2-0.1,0.4c0,1.3,0,2.7,0,4c0,0.1,0,0.2-0.1,0.3
		c-0.1,0.1-0.2,0.1-0.3,0.2c-0.1,0-0.2,0-0.4-0.1c-0.1,0-0.1-0.1-0.1-0.2c0,0,0,0,0-0.1c0,0,0,0,0-0.1c0-1.4,0-2.8,0-4.2
		c0-0.2,0-0.4,0.1-0.5c0-0.1,0.1-0.2,0.2-0.3c0-0.1,0.1-0.1,0.2-0.2c0.1-0.1,0.1-0.1,0.2-0.1c0.1-0.1,0.3-0.1,0.4-0.2
		c0.2,0,0.3,0,0.4,0c0.1,0,0.3,0,0.4,0.1c0.1,0,0.3,0.1,0.4,0.1c0.1,0,0.2,0.1,0.4,0.1c0.2,0.1,0.4,0.1,0.6,0.2
		c0.3,0.1,0.4,0.2,0.7,0.2c0.3,0.1,0.5,0.2,0.8,0.3c0.3,0.1,0.5,0.2,0.7,0.2c0.2,0.1,0.4,0.1,0.5,0.2c0.2,0.1,0.4,0.1,0.6,0.2
		c0.2,0.1,0.4,0.1,0.5,0.2c0.2,0.1,0.4,0.1,0.6,0.2c0.2,0.1,0.4,0.1,0.4,0.2c0.3,0.1,0.4,0.1,0.7,0.2c0.2,0.1,0.4,0.1,0.6,0.2
		c0.3,0.1,0.4,0.2,0.7,0.2c0.2,0,0.3,0.1,0.4,0.1c0.1,0,0.3,0.1,0.4,0.1c0.1,0,0.2,0.1,0.2,0.1c0.1,0.1,0.2,0.2,0.3,0.3
		c0.1,0.2,0.2,0.3,0.2,0.4c0,0.1,0,0.3,0,0.4C36.7,32.2,36.7,32.2,36.7,32.2L36.7,32.2L36.7,32.2z"/>
	<path class="st2" d="M33.2,36.3c0,1.2,0,2.5,0,3.8c0,0.3-0.2,0.4-0.4,0.4c0,0,0,0-0.1,0c-0.3,0-0.4,0-0.7,0c-0.1,0-0.2,0-0.3-0.1
		c-0.1-0.1-0.2-0.2-0.2-0.3v-0.1c0-0.8,0-1.5,0-2.3c0-1.8,0-3.5,0-5.2c0-0.1,0-0.2,0.1-0.3c0.1-0.1,0.2-0.2,0.4-0.2
		c0.1,0,0.1,0,0.2,0c0.2,0,0.4,0,0.5,0c0.1,0,0.2,0,0.3,0.1c0.1,0.1,0.2,0.2,0.2,0.4C33.2,33.8,33.2,35.1,33.2,36.3z"/>
	<path class="st2" d="M29.4,36.6c0-1,0-1.9,0-2.8c0-0.1,0-0.2,0.1-0.3c0.1-0.1,0.1-0.1,0.2-0.2c0.1,0,0.1,0,0.2,0c0.2,0,0.4,0,0.5,0
		c0.1,0,0.2,0,0.3,0.1c0.1,0.1,0.2,0.2,0.2,0.3v0.1c0,1.9,0,3.7,0,5.6c0,0.2-0.1,0.4-0.3,0.4c-0.1,0-0.1,0.1-0.2,0.1
		c-0.2,0-0.4,0-0.6,0c-0.1,0-0.2,0-0.3-0.1c-0.1-0.1-0.1-0.2-0.2-0.3c0,0,0,0,0-0.1C29.4,38.5,29.4,37.5,29.4,36.6z"/>
	<path class="st2" d="M27.2,36.5c0-0.7,0-1.4,0-2.1c0-0.1,0-0.2,0.1-0.3c0.1-0.1,0.3-0.2,0.4-0.2c0.2,0,0.4,0,0.4,0
		c0.2,0,0.3,0.1,0.4,0.2c0.1,0.1,0.1,0.1,0.1,0.2c0,0.1,0,0.1,0,0.2c0,1.4,0,2.8,0,4.2c0,0.3-0.2,0.4-0.4,0.4h-0.1
		c-0.2,0-0.4,0-0.5,0c-0.1,0-0.2,0-0.3-0.1c-0.1-0.1-0.1-0.1-0.2-0.2c0-0.1,0-0.1,0-0.2C27.2,37.9,27.2,37.2,27.2,36.5z"/>
	<path class="st2" d="M25,36.5c0-0.4,0-0.9,0-1.3c0-0.2,0.1-0.3,0.2-0.4c0.1-0.1,0.2-0.1,0.3-0.1c0.2,0,0.4,0,0.5,0
		c0.1,0,0.2,0,0.3,0.1c0.1,0.1,0.2,0.2,0.2,0.3l0,0c0,0.9,0,1.9,0,2.8c0,0.2-0.1,0.4-0.3,0.4c-0.1,0-0.2,0.1-0.3,0.1
		c-0.2,0-0.4,0-0.5,0c-0.2,0-0.3-0.1-0.4-0.2c-0.1-0.1-0.1-0.2-0.1-0.3C25,37.4,25,37,25,36.5z"/>
	<path class="st2" d="M36.7,32.2L36.7,32.2L36.7,32.2L36.7,32.2z"/>
</g>
<g>
	<path class="st3" d="M18.8,31.5c0,0.2,0.1,0.3,0.3,0.3h1.3c0.2,0,0.3-0.1,0.3-0.3v-1.9c0-0.2-0.1-0.3-0.3-0.3
		c-0.2,0-0.3,0.1-0.3,0.3v1.6h-1C19,31.2,18.8,31.3,18.8,31.5z"/>
	<path class="st3" d="M29.1,25.3L29.1,25.3l-2.6-4.9l2.2-2.8c0.1-0.1,0.1-0.2,0-0.3c0-0.1-0.1-0.2-0.2-0.2h-3l0.4-1
		c0.2,0,0.4-0.1,0.6-0.2c0.8,0,1.1,0.5,1.1,0.7c0,0.1,0.1,0.2,0.2,0.2l1,0.1c0,0,0,0,0,0c0.1,0,0.2,0,0.2-0.1
		c0.1-0.1,0.1-0.2,0.1-0.2c-0.2-1-1-1.9-1.9-2.3c-0.1-0.4-0.3-0.8-0.7-1.1c-0.4-0.3-1-0.4-1.5-0.2l-0.4-0.2l0-0.1
		c0-0.1-0.1-0.2-0.2-0.3l-0.8-0.3c-0.1-0.1-0.3,0-0.4,0.2l-0.9,2.1c0,0.1,0,0.1,0,0.2c0,0.1,0.1,0.1,0.2,0.1l0.7,0.3
		c0.1,0,0.2,0,0.3,0l0.1-0.1l0.4,0.2c0,0.1,0.1,0.3,0.2,0.4l-0.9,1.7h-2.9l0.3-0.8c0-0.1,0-0.1,0-0.2l-0.7-1.6
		c0-0.1-0.2-0.2-0.3-0.2l-0.9,0.1c-0.1,0-0.2,0.1-0.3,0.2l-0.4,1.7c0,0.1,0,0.1,0,0.2l0.5,0.9l0,0.6L17.2,20c-0.3-0.9-0.6-2-0.7-2.6
		c0,0,0-0.1,0.1-0.1c0.2-0.5,0.3-1,0.2-1.4c-0.2-0.7-0.7-1.5-1.9-1.8c-0.1,0-0.2,0-0.3,0.1c-0.1,0.1-0.1,0.2-0.1,0.3l0.5,1.5l-1,0.4
		l-0.6-1.4c0-0.1-0.1-0.1-0.2-0.2c-0.1,0-0.2,0-0.3,0.1c-0.5,0.5-0.8,1.4-0.4,2.3c0,0,0,0,0,0l-3.6,0c-0.1,0-0.2,0.1-0.3,0.2
		c0,0.1,0,0.2,0.1,0.3l3.1,2.8l-2.9,3.8c-0.1,0.1-0.1,0.2,0,0.3c0,0.1,0.1,0.2,0.2,0.2l2.8,0v7.9c0,0.2,0.1,0.3,0.3,0.3H24v-0.6h-2
		V21.5l2.1,4.1c0,0.1,0.1,0.1,0.2,0.1h0l2.2,0l0,1.6h0.6l0-1.6l1.7,0c0.1,0,0.2-0.1,0.2-0.1C29.1,25.5,29.1,25.4,29.1,25.3z
		 M27.9,17.7L26,20.1l-1.6,0l0.8-2.4L27.9,17.7z M23.7,14.3c-0.1,0-0.2,0-0.3,0l-0.1,0.1L23,14.3l0.7-1.6l0.3,0.1l0,0.1
		c0,0.1,0.1,0.2,0.2,0.3l0.7,0.3c0.1,0,0.1,0,0.2,0c0.4-0.2,0.8-0.1,1.1,0.1c0.3,0.2,0.4,0.5,0.4,0.8c0,0.1,0.1,0.2,0.2,0.3
		c0.7,0.3,1.3,0.9,1.6,1.6l-0.4,0c-0.2-0.3-0.6-0.9-1.7-0.9c-0.1,0-0.1,0-0.2,0.1c-0.2,0.1-0.4,0.2-0.6,0.2h0c-0.2,0-0.3,0-0.5-0.1
		c-0.1-0.1-0.2-0.1-0.3-0.2c0,0,0,0,0,0c-0.1-0.1-0.2-0.3-0.2-0.4c0-0.1-0.1-0.2-0.2-0.2L23.7,14.3z M24.6,15.9
		c0.1,0,0.1,0.1,0.2,0.1c0.1,0.1,0.2,0.1,0.4,0.1l-1.4,4l-1.4,0L24.6,15.9z M19.2,14.9l0.5,0l0.6,1.3l-0.3,0.9c0,0,0,0.1,0,0.1
		l0,0.2c0,0,0,0,0,0l0.3,2.6l-0.7,0l-0.1-2v0l0-0.8c0,0,0-0.1,0-0.1l-0.4-0.9L19.2,14.9z M18.9,18.9l0.1,1.2l-1.1,0L18.9,18.9z
		 M16.7,20.1l-1,0c-0.3-0.6-0.6-1.2-0.9-1.7c0.2,0,0.4-0.1,0.6-0.1c0.2-0.1,0.4-0.2,0.6-0.4C16.3,18.6,16.5,19.4,16.7,20.1z
		 M13.2,15.6l0.5,1.1c0.1,0.1,0.2,0.2,0.3,0.2l1.5-0.5c0.1-0.1,0.2-0.2,0.2-0.3l-0.4-1.2c0.6,0.3,0.9,0.8,1,1.2
		c0.1,0.7-0.2,1.6-1,1.8c-0.2,0.1-0.4,0.1-0.6,0.1c-0.1,0-0.2,0-0.3,0c0,0,0,0,0,0c-0.5-0.1-1-0.4-1.2-1C13,16.4,13.1,16,13.2,15.6z
		 M9.8,17.7l3.2,0c0.2,0.3,0.5,0.5,0.8,0.6c0.1,0,0.2,0.1,0.3,0.1c0.2,0.4,0.6,1.1,0.9,1.7l-2.6,0L9.8,17.7z M9.9,24.2l2.6-3.4
		l4.7,0c0,0,0,0,0,0c0,0,0,0,0,0l1.9,0h0l2,0l-2.6,3.5L9.9,24.2z M21.5,32.3l-8.9,0l0-7.6l6.1,0h0c0.1,0,0.2,0,0.2-0.1l2.5-3.4V32.3
		z M21.8,20.1L21.8,20.1L21.8,20.1l-1.1,0l-0.2-2.4H23L21.8,20.1z M26.9,25.2L26.9,25.2l-2.3,0l-2.4-4.6l3.7,0l2.4,4.5L26.9,25.2z"
		/>
</g>
<path class="st4" d="M28.2,19.8l1.5,3.2c0.2,0.4,0.8,0.3,0.8-0.2v-5.4c0-0.2,0.2-0.4,0.4-0.4h8.6c0.2,0,0.4,0.2,0.4,0.4v2"/>
<rect x="33.9" y="18.3" class="st5" width="7.1" height="6.4"/>
<text transform="matrix(1 0 0 1 33.9165 23.3031)" class="st2 st6 st7">x</text>
<line class="st8" x1="30.5" y1="25.4" x2="40.2" y2="25.4"/>
</svg>
