<svg xmlns="http://www.w3.org/2000/svg" viewBox="0 0 50 50"><defs><style>.cls-1{fill:none;stroke:#444;stroke-linecap:round;stroke-linejoin:round}</style></defs><g id="Camada_1"><path fill="#00dffc" d="M47.7 33l-.3-18-11-.9-.2-6.4C32.6 7.7 3.7-.1 3.7 3.5l-.8 19 1 25.1h8.5l23.7-8.3.6-5.8c.8-.5 12 1.8 10.9-.4z"/><rect width="18.1" height="18.1" x="28.8" y="15.1" class="cls-1" rx="1.4" ry="1.4"/><path d="M12.6 47.7V3.4M7.5 47.2V3.8" class="cls-1"/><path fill="none" stroke="#444" stroke-linecap="round" stroke-linejoin="round" stroke-width=".5" d="M46.8 16.4L30.1 33.2m5.8-.2l10.9-11.4"/><path d="M30.6 17.4h2.1m-1.9 3.2h7.3m-7.3-1.5h7.3" class="cls-1"/><path fill="none" stroke="#444" stroke-linecap="round" stroke-linejoin="round" stroke-width="2.5" d="M27.5 45l-14.1 3.6c-.7.2-1.3-.1-1.6-.7h0l-1.5.4c-.6.2-1.3.1-1.9 0l-.9-.3h0c-2.2.6-4.3-1.1-4.3-3.3V3.8c0-.9.9-1.6 1.8-1.4l2.6.6.8-.3c.6-.2 1.2-.2 1.9 0l1.7.4c.3-.5.9-.8 1.5-.6l21.9 5.1c.7.2 1.1.7 1.1 1.4v5.2h10c.8 0 1.4.6 1.4 1.4v17c0 .8-.6 1.4-1.4 1.4h-10v5.8"/></g></svg>