<?xml version="1.0" encoding="utf-8"?>
<!-- Generator: Adobe Illustrator 26.5.0, SVG Export Plug-In . SVG Version: 6.00 Build 0)  -->
<svg version="1.1" id="Camada_3" xmlns="http://www.w3.org/2000/svg" xmlns:xlink="http://www.w3.org/1999/xlink" x="0px" y="0px"
	 viewBox="0 0 50 50" style="enable-background:new 0 0 50 50;" xml:space="preserve">
<style type="text/css">
	.st0{fill:#47B7AF;}
	.st1{fill:#5EBEBB;}
	.st2{fill:none;stroke:#444444;stroke-width:2.5;stroke-linecap:round;stroke-linejoin:round;stroke-miterlimit:10;}
	.st3{fill:none;stroke:#444444;stroke-width:0.25;stroke-linecap:round;stroke-linejoin:round;stroke-miterlimit:10;}
	.st4{fill:#444444;}
</style>
<g>
	<g>
		<g>
			<path class="st0" d="M42.51,19.47l-0.11,7.41c0,0.02,0,0.05,0,0.07l0.62,5.26c0.03,0.24-0.11,0.47-0.34,0.55l-35.2,12.8
				c-0.35,0.13-0.72-0.14-0.7-0.51l0.63-14.67c0-0.02,0-0.03,0-0.05l-0.49-8.94c-0.01-0.23,0.13-0.44,0.34-0.52L39.49,9.2
				c0.43-0.15,0.47-0.74,0.07-0.95l-5.11-2.7l7.08,3.07c0.18,0.08,0.3,0.25,0.31,0.44l0.67,10.37
				C42.51,19.45,42.51,19.46,42.51,19.47z"/>
			<path class="st1" d="M40.42,6.08l2.33,3.35c0.38,0.55,0.53,1.22,0.42,1.88l-0.53,3.17c-0.15,0.92-0.79,1.68-1.66,1.99
				L10.31,27.43c-1.39,0.5-2.92-0.29-3.32-1.71l-0.01-0.05c-0.07-0.23-0.1-0.47-0.1-0.72L7.03,5.64c0.01-0.7,0.3-1.37,0.81-1.85
				l2.78-2.6c0.47-0.44,1.09-0.69,1.73-0.69l21.03-0.14c0.85-0.01,1.65,0.41,2.13,1.12l1.07,1.57c0.18,0.27,0.41,0.5,0.68,0.68
				l2.5,1.69C40.01,5.6,40.24,5.82,40.42,6.08z"/>
		</g>
	</g>
</g>
<g>
	<path class="st2" d="M34.74,48.45H10.29c-1.41,0-2.56-1.14-2.56-2.56V3.91c0-1.41,1.14-2.56,2.56-2.56h22.99
		c0.68,0,1.33,0.27,1.81,0.75l6.57,6.57c0.48,0.48,0.75,1.13,0.75,1.81v29.55"/>
	<path class="st2" d="M34.33,2.24v4.74c0,1.41,1.14,2.56,2.56,2.56l4.92,0.12"/>
</g>
<g>
	<g>
		<path class="st3" d="M30.36,22.14v-8.81v-4.8c0-1.53-1.24-2.76-2.76-2.76H14.33c-1.53,0-2.76,1.24-2.76,2.76v7.36v3.69
			c0,1.41,1.14,2.56,2.56,2.56h21.89c1.41,0,2.56-1.14,2.56-2.56v-3.69c0-1.41-1.14-2.56-2.56-2.56H11.57"/>
		<line class="st3" x1="11.57" y1="17.06" x2="38.57" y2="17.06"/>
		<polyline class="st3" points="21.81,22.14 21.81,13.33 21.81,5.76 		"/>
		<polyline class="st3" points="15.82,5.76 15.86,13.33 15.86,22.14 		"/>
	</g>
</g>
<line class="st3" x1="11.62" y1="8.01" x2="30.31" y2="8.01"/>
<line class="st3" x1="11.57" y1="10.66" x2="30.19" y2="10.66"/>
<g>
	<path class="st4" d="M34.28,44.93h0.06c1,0,1.81-0.82,1.81-1.81v-6.17c0-1-0.82-1.81-1.81-1.81h-0.06c-1,0-1.81,0.82-1.81,1.81
		v6.17C32.47,44.12,33.28,44.93,34.28,44.93z"/>
	<path class="st4" d="M28.12,44.93h0.06c1,0,1.81-0.82,1.81-1.81V33.9c0-1-0.82-1.81-1.81-1.81h-0.06c-1,0-1.81,0.82-1.81,1.81v9.22
		C26.31,44.12,27.12,44.93,28.12,44.93z"/>
	<path class="st4" d="M21.96,44.93h0.06c1,0,1.81-0.82,1.81-1.81V30.27c0-1-0.82-1.81-1.81-1.81h-0.06c-1,0-1.81,0.82-1.81,1.81
		v12.85C20.14,44.12,20.96,44.93,21.96,44.93z"/>
	<path class="st4" d="M15.79,44.93h0.06c1,0,1.81-0.82,1.81-1.81V26.93c0-1-0.82-1.81-1.81-1.81h-0.06c-1,0-1.81,0.82-1.81,1.81
		v16.19C13.98,44.12,14.8,44.93,15.79,44.93z"/>
</g>
</svg>
