<svg xmlns="http://www.w3.org/2000/svg" id="Layer_1" x="0" y="0" version="1.1" viewBox="0 0 50 50" xml:space="preserve"><style>.st2{fill:#464646}</style><path fill="#81cbc2" d="M45.5 4.6H7.1l41 14.9V7.2c.1-1.4-1.1-2.6-2.6-2.6z"/><path fill="#75b6ae" d="M44.9 39.2c1.4 0 2.6-1.2 2.6-2.6V19.3L7.1 4.6H4.7c-1.4 0-2.6 1.2-2.6 2.6v17.7l39.2 14.3h3.6z"/><path d="M45.3 40.6H23.9c-.7 0-1.2-.6-1.2-1.2s.6-1.2 1.2-1.2h21.3c.7 0 1.3-.6 1.3-1.3V7.4c0-.7-.6-1.3-1.3-1.3H5.1c-.7 0-1.3.6-1.3 1.3v18.2c0 .7-.6 1.3-1.2 1.3s-1.2-.6-1.2-1.3V7.4c0-2.1 1.7-3.8 3.8-3.8h40.2c2.1 0 3.8 1.7 3.8 3.8v29.4c-.1 2.1-1.8 3.8-3.9 3.8z" class="st2"/><path d="M40.4 11.8h-7.8c-1.3 0-2.4 1.1-2.4 2.4v2.6h-4c-.8 0-1.5.5-1.8 1.2l-8.2 20.9c-.1.1-.2.2-.3.2h-2.2v-2.7c0-1.3-1.1-2.4-2.4-2.4H3.4C2.1 34 1 35.1 1 36.4v7.8c0 1.3 1.1 2.4 2.4 2.4h7.8c1.3 0 2.4-1.1 2.4-2.4v-2.6h2.2c1.2 0 2.2-.7 2.6-1.8l8.1-20.5h3.6V22c0 1.3 1.1 2.4 2.4 2.4h7.8c1.3 0 2.4-1.1 2.4-2.4v-7.8c.1-1.3-1-2.4-2.3-2.4zM11.1 44.1H3.4v-7.7h7.7v7.7z" class="st2"/></svg>