<svg xmlns="http://www.w3.org/2000/svg" id="Camada_1" data-name="Camada 1" version="1.1" viewBox="0 0 50 50"><defs><clipPath id="clippath"><path fill="none" stroke-width="0" d="M4.8 9.7h8.5v3.6H4.8z"/></clipPath><style>.cls-3{fill:none;stroke-miterlimit:10;stroke:#444;stroke-width:.5px}</style></defs><path fill="#dc5e82" stroke-width="0" d="M46.4 8.3H3.5C2 8.3 2 12.3 2 13.8l-.2.2-.6 10.6 1.3 12.3 13 .6 33.6-12V10.9c0-1.5-1.2-2.7-2.7-2.7z"/><path fill="none" stroke="#444" stroke-miterlimit="10" d="M16.8 34.4c-1.6 0-2.9-1.2-2.9-2.6v-7c0-1.4 1.3-2.6 2.9-2.6s2.9 1.2 2.9 2.6v7c0 1.4-1.3 2.6-2.9 2.6zm11.5-.2v-12c0-1.4-1.3-2.6-2.9-2.6s-2.9 1.2-2.9 2.6v12c0 1.4 1.3 2.6 2.9 2.6 1.6 0 2.9-1.3 2.9-2.7zm8.5 2.7V19.7c0-1.4-1.3-2.6-2.9-2.6S31 18.3 31 19.7v17.2c0 1.4 1.3 2.6 2.9 2.6s2.9-1.2 2.9-2.6zm8.6 2.4V16.9c0-1.4-1.3-2.6-2.9-2.6s-2.9 1.2-2.9 2.6v22.4c0 1.4 1.3 2.6 2.9 2.6s2.9-1.2 2.9-2.6z"/><path fill="none" stroke="#444" stroke-linecap="round" stroke-linejoin="round" stroke-width="2" d="M17.1 37.7H7.3s-6.1.4-6.1-5.4V13.1S1 8 6.5 8h36.7s5.6-.6 5.6 5.1v16.7"/><path d="M1.5 12.8h46.8" class="cls-3"/><g clip-path="url(#clippath)"><circle cx="5.9" cy="10.9" r=".9" class="cls-3"/><circle cx="8.8" cy="10.9" r=".9" class="cls-3"/><circle cx="11.7" cy="10.9" r=".9" class="cls-3"/></g></svg>