<?xml version="1.0" encoding="UTF-8"?>
<svg xmlns="http://www.w3.org/2000/svg" version="1.1" viewBox="0 0 50 50">
  <defs>
    <style>
      .cls-1, .cls-2, .cls-3 {
        fill: none;
        stroke: #444;
        stroke-linecap: round;
        stroke-linejoin: round;
      }

      .cls-4 {
        fill: #00dffc;
      }

      .cls-2 {
        stroke-width: 2.5px;
      }

      .cls-3 {
        stroke-width: .5px;
      }
    </style>
  </defs>
  <!-- Generator: Adobe Illustrator 28.6.0, SVG Export Plug-In . SVG Version: 1.2.0 Build 709)  -->
  <g>
    <g id="Camada_1">
      <g>
        <path class="cls-4" d="M47.7,33l-.3-18-11-.9-.2-6.4C32.6,7.7,3.7-.1,3.7,3.5l-.8,19,1,25.1h8.5c0,0,23.7-8.3,23.7-8.3l.6-5.8c.8-.5,12,1.8,10.9-.4Z"/>
        <rect class="cls-1" x="28.8" y="15.1" width="18.1" height="18.1" rx="1.4" ry="1.4"/>
        <path class="cls-1" d="M12.6,47.7V3.4"/>
        <path class="cls-1" d="M7.5,47.2V3.8"/>
        <line class="cls-3" x1="46.8" y1="16.4" x2="30.1" y2="33.2"/>
        <line class="cls-3" x1="35.9" y1="33" x2="46.8" y2="21.6"/>
        <line class="cls-1" x1="30.6" y1="17.4" x2="32.7" y2="17.4"/>
        <line class="cls-1" x1="30.8" y1="20.6" x2="38.1" y2="20.6"/>
        <line class="cls-1" x1="30.8" y1="19.1" x2="38.1" y2="19.1"/>
        <path class="cls-2" d="M27.5,45l-14.1,3.6c-.7.2-1.3-.1-1.6-.7h0s-1.5.4-1.5.4c-.6.2-1.3.1-1.9,0l-.9-.3h0c-2.2.6-4.3-1.1-4.3-3.3V3.8c0-.9.9-1.6,1.8-1.4l2.6.6.8-.3c.6-.2,1.2-.2,1.9,0l1.7.4c.3-.5.9-.8,1.5-.6l21.9,5.1c.7.2,1.1.7,1.1,1.4v5.2h0c0,0,10,0,10,0,.8,0,1.4.6,1.4,1.4v17c0,.8-.6,1.4-1.4,1.4h-10v5.8"/>
      </g>
    </g>
  </g>
</svg>