<svg xmlns="http://www.w3.org/2000/svg" viewBox="0 0 50 50"><path fill="#dc5e82" d="M44.6 12.4L39 8.8l-7.7-4.4-6-2.8c-3.2 0-21.5 8.9-21.5 12.1l-.5 7.8.5 15.1 11.5 7.6 31-11c.9-.5-.7-18.8-1.7-20.8z"/><path fill="none" stroke="#444" stroke-linecap="round" stroke-linejoin="round" stroke-miterlimit="10" stroke-width="2.5" d="M29.9 46.5l-2.2 1.3c-1.7 1-3.8 1-5.5 0l-15.6-9C5 37.8 3.9 36 3.9 34V16c0-2 1-3.8 2.7-4.7l15.6-9c1.7-1 3.8-1 5.5 0l15.6 9c1.7 1 2.7 2.8 2.7 4.7v18c0 2-1 3.8-2.7 4.7l-2.5 1.4"/><path fill="none" stroke="#444" stroke-linecap="round" stroke-linejoin="round" stroke-miterlimit="10" d="M9.2 31.8h31.7v.6c0 1.3-1 2.3-2.3 2.3H11.5c-1.3 0-2.3-1-2.3-2.3v-.6z"/><path fill="none" stroke="#444" stroke-miterlimit="10" d="M37.8 31.8V16.3c0-.6-.5-1-1-1H13.2c-.6 0-1 .5-1 1v15.4"/><path fill="none" stroke="#444" stroke-linecap="round" stroke-linejoin="round" stroke-miterlimit="10" stroke-width=".5" d="M14 29.4V17.8c0-.3.3-.6.6-.6h20.8c.3 0 .6.3.6.6v11.6"/><text fill="none" stroke="#444" stroke-linecap="round" stroke-linejoin="round" stroke-width=".5" font-family="ArialMT" font-size="9.826" transform="translate(16.047 27.328)">Aa</text></svg>