<?xml version="1.0" encoding="utf-8"?>
<!-- Generator: Adobe Illustrator 27.8.1, SVG Export Plug-In . SVG Version: 6.00 Build 0)  -->
<svg version="1.1" id="Camada_3" xmlns="http://www.w3.org/2000/svg" xmlns:xlink="http://www.w3.org/1999/xlink" x="0px" y="0px"
	 viewBox="0 0 50 50" style="enable-background:new 0 0 50 50;" xml:space="preserve">
<style type="text/css">
	.st0{fill:#C3FF68;}
	.st1{fill-rule:evenodd;clip-rule:evenodd;fill:none;stroke:#444444;stroke-linecap:round;stroke-linejoin:round;}
	.st2{fill-rule:evenodd;clip-rule:evenodd;fill:none;stroke:#444444;stroke-width:2.5;stroke-linecap:round;stroke-linejoin:round;}
	.st3{fill:none;stroke:#444444;stroke-linecap:round;stroke-linejoin:round;stroke-miterlimit:10;}
	.st4{fill:none;stroke:#444444;stroke-width:0.5;stroke-linecap:round;stroke-linejoin:round;stroke-miterlimit:10;}
</style>
<g>
	<g>
		<path class="st0" d="M38.1,3.4L14.6,2.8c-1.5,0-0.6,10.3-0.6,11.9H6.2l-0.7,25l-3.6,0.8c-0.8,0.2,0.7,4.5,1.4,4.9l0,0
			c7.8,2.4,10-0.4,28.1,0.8l17-5.8l0.4-22.7l-1.1-2.9l-8.4-1.1C39.3,12,39.6,3.4,38.1,3.4z"/>
		<g>
			<path class="st1" d="M45,13.8c1.9,0,3.4,1.5,3.4,3.4V40"/>
			<path class="st1" d="M5.2,40l0-22.8c0-1.9,1.5-3.4,3.4-3.4l0,0"/>
			<path class="st1" d="M48.4,40.8h-17l-0.2,0.7c0,0.3-0.2,0.5-0.6,0.5h-7.7c-0.3,0-0.6-0.2-0.6-0.5v-0.6H1.1c0,2.8,2.8,5,6.2,5
				h36.2"/>
			<line class="st1" x1="20.6" y1="37.1" x2="20.6" y2="31.6"/>
			<line class="st1" x1="24.7" y1="37.1" x2="24.7" y2="27.4"/>
			<line class="st1" x1="28.8" y1="37.1" x2="28.8" y2="30.1"/>
			<line class="st1" x1="33" y1="37.1" x2="33" y2="31.5"/>
			<line class="st1" x1="12.4" y1="37.1" x2="12.4" y2="30.5"/>
			<line class="st1" x1="16.5" y1="37.1" x2="16.5" y2="28.9"/>
			<line class="st1" x1="37.1" y1="37.1" x2="37.1" y2="28.9"/>
			<line class="st1" x1="41.2" y1="37.1" x2="41.2" y2="26.5"/>
			<line class="st1" x1="9.5" y1="37.1" x2="43.5" y2="37.1"/>
		</g>
		<path class="st2" d="M48.4,40l0-22.8c0-1.9-1.5-3.4-3.4-3.4h-6.3l0-9.7c0-0.9-0.7-1.6-1.6-1.6L15.3,2.6c-0.9,0-1.6,0.7-1.6,1.6
			l0.1,9.6H8.6c-1.9,0-3.4,1.5-3.4,3.4l0,22.8H1.1c0,3.3,2.8,5.9,6.2,5.9h36.2"/>
	</g>
	<g>
		<path class="st3" d="M35.9,24.1H16.7c-1.1,0-1.9-0.9-1.9-1.9V4.9c0-1.1,0.9-1.9,1.9-1.9h19.3c1.1,0,1.9,0.9,1.9,1.9v17.2
			C37.8,23.2,37,24.1,35.9,24.1z"/>
		<rect x="17.7" y="6.1" class="st4" width="3.1" height="3.1"/>
		<rect x="17.7" y="12.5" class="st4" width="3.1" height="3.1"/>
		<rect x="17.7" y="18.6" class="st4" width="3.1" height="3.1"/>
		<polyline class="st4" points="17.3,6.9 18.7,8.6 22.7,4.9 		"/>
		<polyline class="st4" points="17.3,13.2 18.7,14.9 22.7,11.2 		"/>
		<polyline class="st4" points="17.3,19.1 18.7,20.9 22.7,17.2 		"/>
		<polyline class="st4" points="23.3,6.8 25.1,8.6 27.4,6.7 29.4,8.7 32,4.9 34.1,8.3 34.8,6.9 		"/>
		<polyline class="st4" points="23.3,12.8 25.1,14.7 27.4,12.7 29.4,14.7 32,10.9 34.1,14.3 34.8,12.9 		"/>
		<polyline class="st4" points="23.3,18.6 25.1,20.4 27.4,18.5 29.4,20.5 32,16.7 34.1,20.1 34.8,18.7 		"/>
	</g>
</g>
</svg>
