<?xml version="1.0" encoding="utf-8"?>
<!-- Generator: Adobe Illustrator 24.0.0, SVG Export Plug-In . SVG Version: 6.00 Build 0)  -->
<svg version="1.1" id="Camada_1" xmlns="http://www.w3.org/2000/svg" xmlns:xlink="http://www.w3.org/1999/xlink" x="0px" y="0px"
	 viewBox="0 0 50 50" style="enable-background:new 0 0 50 50;" xml:space="preserve">
<style type="text/css">
	.st0{fill:#FCC34F;}
	.st1{fill:#FDCF72;}
	.st2{fill:#444444;}
</style>
<g>
	<polygon class="st0" points="47.4,21.9 47.4,28.1 1.3,42.6 0.9,30.1 0.9,26.2 47.5,9.2 	"/>
</g>
<g>
	<polygon class="st1" points="47.4,6.6 46.8,9.8 0.8,26.5 0.9,20 0.9,16 48,1 	"/>
</g>
<g>
	<path class="st2" d="M48.2,49c-0.7,0-1.2-0.6-1.2-1.2V2.9H3v43.6h19.7c0.7,0,1.2,0.6,1.2,1.2S23.5,49,22.8,49h-21
		c-0.7,0-1.2-0.6-1.2-1.2V1.6c0-0.7,0.6-1.2,1.2-1.2h46.4c0.7,0,1.2,0.6,1.2,1.2v46.1C49.4,48.4,48.9,49,48.2,49z"/>
</g>
<g>
	<g>
		<path class="st2" d="M40.4,28.8V17c2.1-0.4,3.7-2.2,3.7-4.3c0-2.4-2-4.4-4.4-4.4c-2.4,0-4.3,1.9-4.4,4.3H5.9v24.7h18.4
			c0.4,5.2,4.7,9.2,9.9,9.2c5.5,0,9.9-4.4,9.9-9.9C44.1,33.5,42.7,30.7,40.4,28.8z M39.7,9.8c1.6,0,2.9,1.3,2.9,2.9
			s-1.3,2.9-2.9,2.9c-1.6,0-2.9-1.3-2.9-2.9S38,9.8,39.7,9.8z M24.3,35.7H7.5V14.1h28c0.1,0.4,0.3,0.8,0.6,1.2l-3.6,3.6
			c-0.5-0.2-1-0.2-1.5,0l-1.1-1.1C30,17.5,30,17.2,30,17c0-1.1-0.9-2-2-2c-1.1,0-2,0.9-2,2c0,0.3,0,0.5,0.2,0.8l-2.9,2.9
			c-0.2-0.1-0.5-0.2-0.8-0.2c-1.1,0-2,0.9-2,2c0,1.1,0.9,2,2,2s2-0.9,2-2c0-0.3,0-0.5-0.1-0.8l2.9-2.9c0.5,0.2,1,0.2,1.5,0l1.1,1.1
			c-0.1,0.2-0.2,0.5-0.2,0.8c0,1.1,0.9,2,2,2c1.1,0,2-0.9,2-2c0-0.3,0-0.5-0.2-0.8l3.6-3.6c0.5,0.4,1.1,0.6,1.8,0.7v10.8
			c-1.5-0.8-3.1-1.2-4.7-1.2c-2.7,0-5.3,1.1-7.2,3.1v-2.5h-4v7.6h1.4C24.3,35.1,24.3,35.4,24.3,35.7z M32.2,20.6
			c0,0.2-0.2,0.5-0.5,0.5c-0.2,0-0.5-0.2-0.5-0.5c0-0.3,0.2-0.5,0.5-0.5C32,20.2,32.2,20.4,32.2,20.6z M28.5,17
			c0,0.3-0.2,0.5-0.5,0.5c-0.2,0-0.5-0.2-0.5-0.5c0-0.2,0.2-0.5,0.5-0.5C28.3,16.5,28.5,16.7,28.5,17z M23,22.5
			c0,0.2-0.2,0.5-0.5,0.5s-0.5-0.2-0.5-0.5c0-0.3,0.2-0.5,0.5-0.5S23,22.2,23,22.5z M38.9,36.5c0,2.6-2.1,4.7-4.7,4.7
			c-2.6,0-4.7-2.1-4.7-4.7s2.1-4.7,4.7-4.7C36.8,31.8,38.9,33.9,38.9,36.5z M25.5,31.7c-0.3,0.5-0.5,1-0.7,1.5h-0.2v-4.6h0.9V31.7z
			 M25.8,36.5c0-4.3,3.3-8,7.6-8.3v2.1c-3.1,0.4-5.5,3-5.5,6.2c0,0.9,0.2,1.7,0.5,2.5L26.5,40C26,38.9,25.8,37.7,25.8,36.5z
			 M34.2,44.9c-2.7,0-5.3-1.3-6.9-3.6l1.9-1.1c1.2,1.6,3,2.5,5,2.5c2,0,3.8-0.9,5-2.5l1.9,1.1C39.4,43.6,36.9,44.9,34.2,44.9z
			 M41.8,40l-1.9-1.1c0.3-0.8,0.5-1.6,0.5-2.5c0-3.2-2.3-5.8-5.5-6.2v-2.1c4.3,0.4,7.6,4,7.6,8.3C42.5,37.7,42.3,38.9,41.8,40z"/>
	</g>
	<g>
		<path class="st2" d="M34.2,32.7c-2.1,0-3.8,1.7-3.8,3.8c0,2.1,1.7,3.8,3.8,3.8c2.1,0,3.8-1.7,3.8-3.8C38,34.4,36.3,32.7,34.2,32.7
			z M34.2,38.8c-1.3,0-2.3-1-2.3-2.3c0-1.3,1-2.3,2.3-2.3c1.3,0,2.3,1,2.3,2.3C36.5,37.8,35.4,38.8,34.2,38.8z"/>
	</g>
	<g>
		<rect x="10.8" y="19.9" class="st2" width="8.8" height="1.5"/>
		<rect x="10.8" y="15" class="st2" width="8.8" height="1.5"/>
		<rect x="10.8" y="17.4" class="st2" width="8.8" height="1.5"/>
		<rect x="10.8" y="22.3" class="st2" width="8.8" height="1.5"/>
		<rect x="8.4" y="17.4" class="st2" width="1.5" height="1.5"/>
		<rect x="8.4" y="15" class="st2" width="1.5" height="1.5"/>
		<rect x="8.4" y="19.9" class="st2" width="1.5" height="1.5"/>
		<rect x="8.4" y="22.3" class="st2" width="1.5" height="1.5"/>
	</g>
	<g>
		<path class="st2" d="M8.4,28.4v6.4h4v-6.4H8.4z M9.9,33.3v-3.4h0.9v3.4H9.9z"/>
	</g>
	<g>
		<path class="st2" d="M13.2,29.6v5.2h4v-5.2H13.2z M14.8,33.3v-2.1h0.9v2.1H14.8z"/>
	</g>
	<g>
		<path class="st2" d="M18.1,24.8v10.1h4V24.8H18.1z M19.7,33.3v-7h0.9v7H19.7z"/>
	</g>
</g>
</svg>
