<?xml version="1.0" encoding="utf-8"?>
<!-- Generator: Adobe Illustrator 28.0.0, SVG Export Plug-In . SVG Version: 6.00 Build 0)  -->
<svg version="1.1" id="Layer_1" xmlns="http://www.w3.org/2000/svg" xmlns:xlink="http://www.w3.org/1999/xlink" x="0px" y="0px"
	 viewBox="0 0 50 50" style="enable-background:new 0 0 50 50;" xml:space="preserve">
<style type="text/css">
	.st0{fill:#319327;}
	.st1{fill:#5ABA52;}
	.st2{fill:none;stroke:#444444;stroke-width:2.5;stroke-linecap:round;stroke-linejoin:round;stroke-miterlimit:10;}
	.st3{fill:#444444;}
	.st4{fill:none;stroke:#464646;stroke-miterlimit:10;}
	.st5{fill:none;stroke:#464646;stroke-width:0.5;stroke-miterlimit:10;}
	.st6{fill:none;stroke:#464646;stroke-width:0.5;stroke-linecap:round;stroke-linejoin:round;stroke-miterlimit:10;}
</style>
<polygon class="st0" points="24.8,22.1 30.8,24 25.7,27.7 25.7,34 20.6,30.2 14.6,32.3 16.7,26.3 12.9,21.2 19.2,21.3 22.9,16.1 "/>
<path class="st1" d="M27.3,11.2l-3.4,0.1c-3.8,0.1-6.3,0.3-8,0.3l-5.5-0.3c-1.7,0-2.5,0.1-4.8,0.3l0.4,9.1l-0.7,2.5l-0.7,2.9L4,28.5
	l-0.7,4.2l-1.2,4.8c0,1.7,3.9,0.7,5.6,0.6L24.2,38c0.4,0,0.7-0.1,1-0.2l19.6-7.4c1.2-0.4,2-1.6,2-2.8V16.4l-3.6-3.6L37,11.1L34.6,11
	C34.6,10.8,27.2,11.3,27.3,11.2z"/>
<path class="st2" d="M44.6,32 M44.6,32c1.1-1.7,1.9-3.6,2.3-5.6c0.2-0.9,0.3-1.8,0.5-2.8c1.2-6.9-3.3-12.5-10.4-12.5
	c-4.8,0-9.5,0-14.1,0c-0.9,0-2.2,0-3.2,0c-0.2,0-0.4,0-0.5,0c-4.7,0-9.4,0-14.1,0c1.2,1.4,1.5,3.1,1.1,5.5C4.8,24,3.6,31.5,2.2,38.9
	h12.6c1.1,0,2.2,0,3.2,0c4.7,0,7.3,0,12.1,0"/>
<g>
	<path class="st3" d="M21.7,22.6c0.1-0.7,0.1-1.3-0.1-1.7c-1.3-0.1-2.4,0.2-3,0.3c-0.4,0.1-1.8,0.4-2,0.4c0,0,0.1,0.1,0.5,0.1
		c1.4-0.1,2.2,0.2,2.2,0.8c0,0.2-0.2,0.3-0.8,0.3c-0.6,0-1.4-0.2-2.2-0.6c-0.9-0.4-1.7-0.7-2.2-0.7c-0.2,0-0.6,0.1-1.1,0.2
		c-0.1,0.1,0.4,0,0.6,0.1c0.5,0,0.7,0.1,1.1,0.2c0.4,0.2,0.5,0.4,0.5,0.6c0,0.2-0.3,0.4-0.9,0.4c-0.1,0-0.3,0-0.6,0
		c-0.2,0-0.4,0-0.5,0c-0.4,0-0.9,0.1-1.5,0.3c-0.6,0.3-1.3,0.5-1.4,0.6c-0.1,0,1.6-0.5,2.3-0.4c0.6,0.1,1.2,0.2,2,0.7
		c0.7,0.4,1.4,0.6,1.8,0.6c0.2,0,0.5,0,0.8-0.1c0.4-0.1,0.6-0.1,0.9-0.1c0.6,0,0.9,0.1,0.9,0.4c0,0.5-0.5,0.8-1.6,0.8
		c-0.6,0-1.4-0.2-2.3-0.6c-0.9-0.4-1.7-0.6-2.3-0.6c-0.5,0-1.1,0.1-1.9,0.4c-0.7,0.3-1.4,0.4-1.8,0.4c-0.3,0-0.9-0.1-1-0.1
		c0.7,0.3,1.4,0.5,2.2,0.5c0.2,0,1.2-0.1,1.4-0.1c1.4,0,2.1,0.3,2.1,0.9c0,0.3-0.3,0.5-1,0.5c-0.2,0-0.6,0-1.1-0.1
		c-0.4-0.1-0.7-0.1-1.1-0.1c-0.3,0-0.5,0-1,0.1C9.2,27.4,9,27.5,9,27.5c0.2,0,0.9-0.1,1.2-0.1c0.4,0,1,0.1,1.6,0.4
		c0.6,0.3,1.2,0.5,1.6,0.5c0.4,0,0.9-0.1,1.4-0.3c0.6-0.2,2-0.3,2.1,0.1c0.1,0.3-0.1,0.5-0.6,0.6c-0.3,0.1-0.6,0.1-1.4,0.2
		c-0.6,0.1-0.9,0.1-1.2,0.3l-0.2,0.1c0,0.1,0.2-0.3,1.1-0.2c0.3,0,0.4,0,1.1,0.2c0.7,0.2,1.8,0.1,2.1-0.1c-0.2,0.4-0.9,0.9-1.3,1
		c-0.1,0,2.3,0,3.8,0C20.8,27.8,21.2,25.2,21.7,22.6z"/>
</g>
<g>
	<path class="st4" d="M28.1,33.9c-2.7,0-5-3.9-5-8.8s2.2-8.8,5-8.8"/>
	<path class="st4" d="M28.1,33.9c-2.7,0-5-3.9-5-8.8s2.2-8.8,5-8.8h5.4c2.7,0,5,3.9,5,8.8s-2.2,8.8-5,8.8H28.1z"/>
	<ellipse class="st4" cx="28.1" cy="25" rx="2.7" ry="5.4"/>
	<path class="st5" d="M30.1,28.6c-0.7-0.7-1.2-2.1-1.2-3.5s0.5-2.8,1.2-3.5"/>
	<path class="st6" d="M32.7,21.6c0.3,1.1,0.4,2.2,0.4,3.4c0,4.9-2.2,8.8-5,8.8"/>
	<path class="st6" d="M32.2,20.1c-0.3-0.7-0.6-1.4-1-1.9"/>
</g>
</svg>
