<?xml version="1.0" encoding="UTF-8"?>
<svg id="Layer_1" xmlns="http://www.w3.org/2000/svg" version="1.1" viewBox="0 0 50 50">
  <!-- Generator: Adobe Illustrator 29.2.1, SVG Export Plug-In . SVG Version: 2.1.0 Build 116)  -->
  <defs>
    <style>
      .st0, .st1, .st2 {
        fill: none;
        stroke: #444;
        stroke-linecap: round;
        stroke-linejoin: round;
      }

      .st3 {
        fill: #00dffc;
      }

      .st1 {
        stroke-width: 2.5px;
      }

      .st4 {
        fill: #444;
      }

      .st2 {
        stroke-width: .5px;
      }
    </style>
  </defs>
  <g>
    <g>
      <path class="st3" d="M44.4,7.7H7.9c-2.9.1-6,1-6,3.9v13.7l-.2,10.1c.4,6.3,7,6.5,15.2,6l.9,5.2,15.4-5.5,15.6-5.5-.2-23.9-4.1-4.2Z"/>
      <g>
        <g>
          <g>
            <path class="st0" d="M32.6,40.7H7c-2.6,0-5.5-2.1-5.5-4.7"/>
            <path class="st0" d="M31.7,46.7h-13.8c-.5,0-.9-.6-.6-1l2.4-4.8h10.3l2.5,4.8c.2.5-.1,1-.7,1Z"/>
          </g>
          <circle class="st4" cx="24.8" cy="37.8" r="1.6"/>
        </g>
        <path class="st1" d="M48.4,36.1V13.8c0-3.4-2.8-6.2-6.2-6.2H7.6c-3.4,0-6.2,2.8-6.2,6.2v21.4c0,3.4,2.8,6.2,6.2,6.2h10.6l-1.8,4.5c-.4.9.3,1.8,1.2,1.9h14.3c1,0,1.6-.9,1.2-1.8l-1.9-4.6h5.8"/>
      </g>
    </g>
    <line class="st2" x1="2.4" y1="35" x2="47.8" y2="35"/>
    <line class="st2" x1="2" y1="35" x2="10.2" y2="35"/>
  </g>
  <rect class="st4" x="30.3" y="11.5" width="5.4" height="21.6" rx="2.7" ry="2.7" transform="translate(65.9 44.5) rotate(-180)"/>
  <rect class="st4" x="21.6" y="19" width="5.4" height="14" rx="2.7" ry="2.7" transform="translate(48.6 52.1) rotate(-180)"/>
  <rect class="st4" x="12.9" y="27.6" width="5.4" height="5.4" rx="2.7" ry="2.7" transform="translate(31.2 60.7) rotate(180)"/>
</svg>