<svg xmlns="http://www.w3.org/2000/svg" id="Layer_1" x="0" y="0" version="1.1" viewBox="0 0 50 50" xml:space="preserve"><style>.st3{fill:none;stroke:#444;stroke-miterlimit:10}</style><path fill="#8256d8" d="M30.2 21l7.8 2.5-6.7 4.7.1 8.2-6.5-4.9-7.8 2.7 2.6-7.8-4.9-6.6 8.2.1 4.8-6.7z"/><path fill="#a475ef" d="M38.8 34l3.3-4.8 1.8-4.7h.4l.1-.4c.1-.4.4-.4.2-.8L45 22c-.1-.1.1-2.3 0-2.4l-1.1-4.1c-.2-.1-2.1-4.2-2.2-4.3L37.1 6c-.3-.4-6.4-3.1-6.9-3.1l-7.3-.4c-.4 0-7.2 3.5-7.5 3.7l-5.7 7.1c-.3.3-1 5.6-1 6l-4.5 8.3c1.1 1.5 3.6 1 3.7 1.1v5.6c-.7 1.8.8 4.8.8 4.9l4.6 1 4-.9.1 5.2v.1c.1.2.2.2.4.2L38 37.5c.1 0 .2-.2.2-.3l-.4-3 1-.2z"/><path fill="none" stroke="#444" stroke-linecap="round" stroke-linejoin="round" stroke-miterlimit="10" stroke-width="2.5" d="M37.3 37.6c-.2-1.2.2-2.4 1.1-3.2 4.1-3.5 6.6-8.9 6.2-14.7-.5-9.2-8-16.7-17.2-17.1-10.4-.5-19 7.8-19 18.1 0 .3-4.2 6.6-4.2 6.6-.8 1 0 2.5 1.3 2.5h2.1v7.3c0 1.5 1.1 2.5 2.4 2.6l5.8.3c.7 0 1.3.7 1.3 1.4v5.8h11.3"/><path d="M23.2 11.7c0 .8.6 1.4 1.4 1.4.8 0 1.4-.6 1.4-1.4 0-.8-.6-1.4-1.4-1.4-.8 0-1.4.6-1.4 1.4zm-3.9 3.4c0 .8.6 1.4 1.4 1.4.8 0 1.4-.6 1.4-1.4 0-.8-.6-1.4-1.4-1.4-.8 0-1.4.6-1.4 1.4zM15.4 19c0 .8.6 1.4 1.4 1.4.8 0 1.4-.6 1.4-1.4 0-.8-.6-1.4-1.4-1.4-.8-.1-1.4.6-1.4 1.4zm14-5.5c0 .8.6 1.4 1.4 1.4.8 0 1.4-.6 1.4-1.4 0-.8-.6-1.4-1.4-1.4-.7 0-1.4.6-1.4 1.4z" class="st3"/><circle cx="35.3" cy="20" r="1.4" class="st3" transform="rotate(-13.286 35.245 20)"/><path fill="none" stroke="#444" stroke-linecap="round" stroke-miterlimit="10" d="M24.6 13.3v4.3c0 .3.1.7.3 1l1.3 2.1c.2.3.3.6.3 1V32m-5.8-15.4v2.6c0 .4.1.7.3 1l2.6 3.9c.2.3.3.6.3 1v6.7m6.9-16.7v4c0 .3-.1.6-.2.9l-1.4 2.6c-.1.3-.2.6-.2.9v8.4M16.8 20.6v.7c0 .4.1.7.3 1l3.9 5.8c.2.3.3.7.3 1v2.6m14-10.2v1.2c0 .4-.1.7-.3 1.1l-3.1 4.4c-.2.3-.3.7-.3 1.1v2.5"/></svg>