<svg xmlns="http://www.w3.org/2000/svg" id="Layer_1" version="1.1" viewBox="0 0 50 50"><defs><style>.st2{fill:none;stroke:#444;stroke-miterlimit:10}</style></defs><path fill="#dc5e82" d="M45.1 4.6H4c-1.4 0-1.4 3.8-1.4 5.2l-.2 12.9-.5 10.2 1.2 11.8 12.4.6 32.1-11.4V7.1c0-1.4-1.1-2.6-2.5-2.6z"/><path fill="none" stroke="#444" stroke-linecap="round" stroke-linejoin="round" stroke-width="2.5" d="M32.5 46h-27c-1.9 0-3.4-1.6-3.4-3.5v-35C2.1 5.6 3.6 4 5.5 4h39c1.9 0 3.4 1.6 3.4 3.5V36"/><circle cx="30" cy="24.3" r="4.8" class="st2"/><path d="M18.9 9.3h-5c-2.6 0-4.8 2.1-4.8 4.7s2.1 4.8 4.8 4.8h5s-.2-9.7 0-9.5m-.1 9.5h-4.9c-2.6 0-4.8 2.1-4.8 4.8s2.1 4.8 4.8 4.8h4.8s.2-9.6.2-9.5" class="st2"/><path d="M18.8 28.4h-4.7c-2.5 0-4.7 1.8-5 4.3s2 5.3 4.8 5.3h.2c2.6-.2 4.6-2.4 4.6-5V9.3c.2-.2 0 9.5 0 9.5h4.8c2.5 0 4.7-1.8 5-4.3.3-2.9-2-5.3-4.8-5.3h-5" class="st2"/><path fill="#444" d="M41.2 34.9c-.3 0-.6-.1-.9-.4-.4-.4-1.5-1.3-2.2-1.9-.2-.1-.3-.3-.4-.4l-1 2c-.5 1-.4.6-.8.6h-.2c-.4 0-.7-.3-.9-.7-.6-1.3-1.1-2.4-1.6-3.6-.5-1.2-1-2.4-1.6-3.6v-.1c0-.2-.2-.3-.2-.5-.1-.4 0-.8.1-1 .2-.3.5-.4.9-.4h.5c1.1.3 3.3.9 5.2 1.3 1.3.3 2.5.6 2.8.7.4.1.7.4.8.7.1.3.2.8-.4 1.1-.9.6-1.4 1-1.8 1.2.7.6 2.1 1.8 2.6 2.2.4.3.6.7.6 1.1 0 .6-.3 1.1-.8 1.4-.2.1-.4.2-.7.2zm-3.7-3.5h.3c0 .1.2.2.2.3.1.1.3.2.5.4.7.6 1.8 1.5 2.2 1.9.1.1.3.2.5.2h.3c.3-.1.4-.4.4-.7 0-.2-.1-.4-.3-.6-.5-.5-2.2-1.9-2.8-2.4 0 0-.1-.2-.1-.3 0-.1 0-.2.2-.3 0 0 .1 0 .2-.1.3-.2.9-.6 1.9-1.4.2-.1.2-.1.1-.2 0-.1-.1-.2-.3-.3-.4-.1-1.5-.4-2.8-.7-1.8-.5-4.1-1-5.2-1.3h-.2s-.2 0-.3.1v.4c0 .1.1.3.2.4v.1c.6 1.3 1.1 2.5 1.6 3.6s1 2.3 1.6 3.6c.1.2.2.3.3.3l.1-.2c.8-1.7 1.1-2.3 1.1-2.4 0-.1.1-.2.3-.2z"/></svg>