<svg xmlns="http://www.w3.org/2000/svg" viewBox="0 0 50 50"><defs><style>.cls-1{fill:#dc5e82}.cls-3,.cls-5{fill:none;stroke-linecap:round;stroke-linejoin:round}.cls-5{stroke:#444}.cls-3{stroke-width:2.43px;stroke:#444444}.cls-5{stroke-width:.53px}</style></defs><g id="Camada_3"><path d="M48.58 32.35L47.9 7.52l-.34.12.15-.05c.32-.46-.39-.54-.07-.99l-.47-.19c-.52-.53-1.78-.15-2.28-.67L3.98 5.52c-.51.52-.8.8-1.3 1.31l-.56 15.13c.63.45.2 1.16.52 1.68l-1.22.43 1.8 13.53 15.71 2.21-3.81 4.45 33.46-11.9z" class="cls-1"/><path d="M19.1 38.28H6.58a4.1 4.1 0 01-4.1-4.1V8.6a4.1 4.1 0 014.1-4.1h37.59a4.1 4.1 0 014.1 4.1v24.57m-8.85 5.11h-7.59" class="cls-3"/><path fill="none" stroke="#444444" stroke-linecap="round" stroke-linejoin="round" stroke-width=".24" d="M2.98 30.65h44.1"/><path d="M18.8 41.2v-2.92h13.49v2.92m-13.49 0c-4.54 0-4.66 4.3-4.66 4.3h22.44s.82-4.3-4.29-4.3" class="cls-3"/><path fill="none" stroke="#444" stroke-linecap="round" stroke-linejoin="round" stroke-width=".49" d="M23.33 34.04c0-1.13.91-2.03 2.03-2.03s2.03.91 2.03 2.03-.91 2.03-2.03 2.03c-1.12 0-2.03-.9-2.03-2.03z"/><path d="M8.46 12.03h13.01M8.46 13.89h10.79M8.46 15.75h13.01M8.38 17.61h10.79m6.96-6.15h14.79v6.72H26.13zM8.38 21.39h6.78v4.48H8.38zm0 5.27h6.78v.99H8.38zM16.97 21.39h6.78v4.48h-6.78zm0 5.27h6.78v.99h-6.78zM25.56 21.39h6.78v4.48h-6.78zm0 5.27h6.78v.99h-6.78zM34.15 21.39h6.78v4.48h-6.78zm0 5.27h6.78v.99h-6.78z" class="cls-5"/><path d="M27.6 9.81h13.97v6.75H27.6z" class="cls-1"/><path fill="none" stroke="#444" stroke-miterlimit="10" stroke-width="1.06" d="M33.37 16.03c-.53-2.78-1.32-3.57-4.1-4.1-.32-.06-.32-.52 0-.58 2.78-.53 3.57-1.32 4.1-4.1.06-.32.52-.32.58 0 .53 2.78 1.32 3.57 4.1 4.1.32.06.32.52 0 .58-2.78.53-3.57 1.32-4.1 4.1-.06.32-.52.32-.58 0z"/><path fill="none" stroke="#444" stroke-miterlimit="10" stroke-width=".53" d="M40.69 15.19c-.24-1.16-.62-1.53-1.78-1.78-.18-.04-.18-.3 0-.34 1.16-.24 1.53-.62 1.78-1.78.04-.18.3-.18.34 0 .24 1.16.62 1.53 1.78 1.78.18.04.18.3 0 .34-1.16.24-1.53.62-1.78 1.78-.04.18-.3.18-.34 0zm-1.28-4.52c-.18-.84-.45-1.11-1.29-1.29-.13-.03-.13-.22 0-.25.84-.18 1.11-.45 1.29-1.29.03-.13.22-.13.25 0 .18.84.45 1.11 1.29 1.29.13.03.13.22 0 .25-.84.18-1.11.45-1.29 1.29-.03.13-.22.13-.25 0z"/></g></svg>
