<svg xmlns="http://www.w3.org/2000/svg" id="Layer_1" version="1.1" viewBox="0 0 50 50"><defs><style>.st4{fill:#444}</style></defs><path fill="#00dffc" d="M44.4 7.7H7.9c-2.9.1-6 1-6 3.9v13.7l-.2 10.1c.4 6.3 7 6.5 15.2 6l.9 5.2 15.4-5.5 15.6-5.5-.2-23.9-4.1-4.2z"/><path fill="none" stroke="#444" stroke-linecap="round" stroke-linejoin="round" d="M32.6 40.7H7c-2.6 0-5.5-2.1-5.5-4.7m30.2 10.7H17.9c-.5 0-.9-.6-.6-1l2.4-4.8H30l2.5 4.8c.2.5-.1 1-.7 1z"/><circle cx="24.8" cy="37.8" r="1.6" class="st4"/><path fill="none" stroke="#444" stroke-linecap="round" stroke-linejoin="round" stroke-width="2.5" d="M48.4 36.1V13.8c0-3.4-2.8-6.2-6.2-6.2H7.6c-3.4 0-6.2 2.8-6.2 6.2v21.4c0 3.4 2.8 6.2 6.2 6.2h10.6l-1.8 4.5c-.4.9.3 1.8 1.2 1.9h14.3c1 0 1.6-.9 1.2-1.8l-1.9-4.6H37"/><path fill="none" stroke="#444" stroke-linecap="round" stroke-linejoin="round" stroke-width=".5" d="M2.4 35h45.4M2 35h8.2"/><rect width="5.4" height="21.6" x="30.3" y="11.5" class="st4" rx="2.7" ry="2.7" transform="rotate(-180 32.95 22.25)"/><rect width="5.4" height="14" x="21.6" y="19" class="st4" rx="2.7" ry="2.7" transform="rotate(-180 24.3 26.05)"/><rect width="5.4" height="5.4" x="12.9" y="27.6" class="st4" rx="2.7" ry="2.7" transform="rotate(180 15.6 30.35)"/></svg>