<?xml version="1.0" encoding="utf-8"?>
<!-- Generator: Adobe Illustrator 26.5.0, SVG Export Plug-In . SVG Version: 6.00 Build 0)  -->
<svg version="1.1" id="Layer_1" xmlns="http://www.w3.org/2000/svg" xmlns:xlink="http://www.w3.org/1999/xlink" x="0px" y="0px"
	 viewBox="0 0 50 50" style="enable-background:new 0 0 50 50;" xml:space="preserve">
<style type="text/css">
	.st0{fill:#A475EF;}
	.st1{fill:#BF94F7;}
	.st2{fill:#494949;}
	.st3{fill:#4D4D4D;}
</style>
<g>
	<g>
		<polygon class="st0" points="42.9,21.2 45,21.2 45,16.9 40.5,16.9 40.5,18.4 34.6,18.4 34.6,18.6 31.1,18.6 31.1,11.7 22.4,14.9 
			14.3,17.9 10.9,19.1 6.8,20.6 6.8,29.1 4.9,29.1 4.9,33 9.1,33 9.1,31.1 18.9,31.1 18.9,36.8 26,34.2 36.8,30.2 42.9,28 		"/>
	</g>
	<g>
		<polygon class="st1" points="31.1,8.8 33.2,8.8 33.2,5 28.7,5 28.7,7.1 8.9,7.1 8.9,4.9 4.9,4.9 4.9,9.4 6.8,9.4 6.8,21.4 
			11.6,19.6 13,19.1 21.1,16.1 31.1,12.5 		"/>
	</g>
	<g>
		<g>
			<g>
				<path class="st2" d="M9.8,9.8H4.5V4.5h5.3V9.8z M5.8,8.4h2.6V5.8H5.8V8.4z"/>
			</g>
			<g>
				<path class="st2" d="M33.6,9.8h-5.3V4.5h5.3V9.8z M29.6,8.4h2.6V5.8h-2.6V8.4z"/>
			</g>
			<g>
				<path class="st2" d="M9.8,33.6H4.5v-5.3h5.3V33.6z M5.8,32.3h2.6v-2.6H5.8V32.3z"/>
			</g>
			<g>
				<rect x="6.5" y="9.1" class="st2" width="1.3" height="19.9"/>
			</g>
			<g>
				<rect x="30.3" y="9.1" class="st2" width="1.3" height="9.9"/>
			</g>
			<g>
				<rect x="9.1" y="30.3" class="st2" width="9.9" height="1.3"/>
			</g>
			<g>
				<rect x="9.1" y="6.5" class="st2" width="19.9" height="1.3"/>
			</g>
			<g>
				<path class="st2" d="M21.7,21.7h-5.3v-5.3h5.3V21.7z M17.7,20.4h2.6v-2.6h-2.6V20.4z"/>
			</g>
			<g>
				<path class="st2" d="M45.5,21.7h-5.3v-5.3h5.3V21.7z M41.6,20.4h2.6v-2.6h-2.6V20.4z"/>
			</g>
			<g>
				<path class="st2" d="M21.7,45.5h-5.3v-5.3h5.3V45.5z M17.7,44.2h2.6v-2.6h-2.6V44.2z"/>
			</g>
			<g>
				<path class="st2" d="M45.5,45.5h-5.3v-5.3h5.3V45.5z M41.6,44.2h2.6v-2.6h-2.6V44.2z"/>
			</g>
			<g>
				<rect x="18.4" y="21" class="st2" width="1.3" height="19.9"/>
			</g>
			<g>
				<rect x="42.2" y="21" class="st2" width="1.3" height="19.9"/>
			</g>
			<g>
				<rect x="21" y="42.2" class="st2" width="19.9" height="1.3"/>
			</g>
			<g>
				<rect x="21" y="18.4" class="st2" width="19.9" height="1.3"/>
			</g>
		</g>
		<path class="st3" d="M25.7,9.9c-0.1,0.1,0,0.3,0.1,0.4l0.7,0.4H10.3c-0.1,0-0.2,0.1-0.3,0.2c0,0.1,0.1,0.3,0.3,0.3
			c5.4,0,10.8,0,16.3,0l-0.7,0.4c-0.1,0.1-0.1,0.1-0.1,0.2c0,0,0,0.1,0,0.1c0.1,0.1,0.2,0.2,0.4,0.1l1.6-0.9c0.1,0,0.1-0.1,0.1-0.2
			c0-0.1-0.1-0.2-0.1-0.2l-1.6-0.9C26,9.7,25.8,9.8,25.7,9.9z"/>
		<path class="st3" d="M37.7,21.8c-0.1,0.1,0,0.3,0.1,0.4l0.7,0.4H22.2c-0.2,0-0.3,0.2-0.3,0.3c0,0.1,0.1,0.2,0.3,0.2
			c5.4,0,10.8,0,16.3,0l-0.7,0.4c-0.1,0.1-0.1,0.1-0.1,0.2c0,0,0,0.1,0,0.1c0.1,0.1,0.2,0.2,0.4,0.1l1.6-0.9c0.1,0,0.1-0.1,0.1-0.2
			s-0.1-0.2-0.1-0.2L38,21.7C37.9,21.6,37.7,21.7,37.7,21.8z"/>
		<path class="st3" d="M40.1,37.8l-0.4,0.7V25.1c0-0.2-0.1-0.3-0.3-0.3c-0.1,0-0.3,0.1-0.3,0.3c0,4.5,0,8.9,0,13.4l-0.4-0.7
			c-0.1-0.1-0.1-0.1-0.2-0.1c0,0-0.1,0-0.1,0c-0.1,0.1-0.2,0.2-0.1,0.4l0.9,1.6c0,0.1,0.1,0.1,0.2,0.1c0.1,0,0.2-0.1,0.2-0.1
			l0.9-1.6c0.1-0.1,0-0.3-0.1-0.4C40.3,37.6,40.2,37.7,40.1,37.8z"/>
		<path class="st3" d="M14.5,27.3h-3.6c-0.5,0-0.9-0.4-0.9-0.9V13.6c0-0.5,0.4-0.9,0.9-0.9h3.6c0.5,0,0.9,0.4,0.9,0.9v12.8
			C15.4,26.9,15,27.3,14.5,27.3z"/>
		<path class="st3" d="M21.6,15.4v-1.8c0-0.5-0.4-0.9-0.9-0.9h-3.6c-0.5,0-0.9,0.4-0.9,0.9v1.8H21.6z"/>
		<path class="st3" d="M17.7,22.3h-1.5v4.2c0,0.5,0.4,0.9,0.9,0.9h0.6V22.3z"/>
		<path class="st3" d="M27.8,17.5v-3.8c0-0.5-0.4-0.9-0.9-0.9h-3.6c-0.5,0-0.9,0.4-0.9,0.9v3.8H27.8z"/>
		<path class="st3" d="M25.8,29h-4c-0.3,0-0.5-0.2-0.5-0.5v-3.2c0-0.3,0.2-0.5,0.5-0.5h4c0.3,0,0.5,0.2,0.5,0.5v3.2
			C26.3,28.8,26.1,29,25.8,29z"/>
		<path class="st3" d="M25.8,33.9h-4c-0.3,0-0.5-0.2-0.5-0.5v-3.2c0-0.3,0.2-0.5,0.5-0.5h4c0.3,0,0.5,0.2,0.5,0.5v3.2
			C26.3,33.7,26.1,33.9,25.8,33.9z"/>
		<path class="st3" d="M31.2,33.9h-3.5c-0.4,0-0.7-0.3-0.7-0.7v-7.7c0-0.4,0.3-0.7,0.7-0.7h3.5c0.4,0,0.7,0.3,0.7,0.7v7.7
			C31.8,33.6,31.5,33.9,31.2,33.9z"/>
		<path class="st3" d="M36.7,33.9h-3.5c-0.4,0-0.7-0.3-0.7-0.7v-7.7c0-0.4,0.3-0.7,0.7-0.7h3.5c0.4,0,0.7,0.3,0.7,0.7v7.7
			C37.4,33.6,37.1,33.9,36.7,33.9z"/>
		<path class="st3" d="M25.8,38.8h-4c-0.3,0-0.5-0.2-0.5-0.5v-3.2c0-0.3,0.2-0.5,0.5-0.5h4c0.3,0,0.5,0.2,0.5,0.5v3.2
			C26.3,38.6,26.1,38.8,25.8,38.8z"/>
		<path class="st3" d="M36.7,38.8h-9.1c-0.4,0-0.7-0.3-0.7-0.7v-2.8c0-0.4,0.3-0.7,0.7-0.7h9.1c0.4,0,0.7,0.3,0.7,0.7v2.8
			C37.4,38.5,37.1,38.8,36.7,38.8z"/>
	</g>
	<g>
		<g>
			<g>
				<path class="st2" d="M35.1,3v8.3h-2v5.6h5.6v-2H47v8.3h-2v15.5h2V47h-8.3v-2H23.2v2h-8.3v-8.3h2v-5.6h-5.6v2H3v-8.3h2V11.3H3V3
					h8.3v2h15.5V3H35.1 M35.1,0.5h-8.3c-1.2,0-2.2,0.9-2.4,2H13.7c-0.2-1.1-1.2-2-2.4-2H3C1.6,0.5,0.5,1.6,0.5,3v8.3
					c0,1.2,0.9,2.2,2,2.4v10.7c-1.1,0.2-2,1.2-2,2.4v8.3c0,1.4,1.1,2.5,2.5,2.5h8.3c1.2,0,2.2-0.9,2.4-2h0.7v0.7
					c-1.1,0.2-2,1.2-2,2.4V47c0,1.4,1.1,2.5,2.5,2.5h8.3c1.2,0,2.2-0.9,2.4-2h10.6c0.2,1.1,1.2,2,2.4,2H47c1.4,0,2.5-1.1,2.5-2.5
					v-8.3c0-1.2-0.8-2.2-2-2.4V25.6c1.1-0.2,2-1.2,2-2.4v-8.3c0-1.4-1.1-2.5-2.5-2.5h-8.3c-1.2,0-2.2,0.9-2.4,2h-0.7v-0.7
					c1.1-0.2,2-1.2,2-2.4V3C37.6,1.6,36.5,0.5,35.1,0.5L35.1,0.5z"/>
			</g>
		</g>
	</g>
</g>
</svg>
