<?xml version="1.0" encoding="utf-8"?>
<!-- Generator: Adobe Illustrator 22.0.1, SVG Export Plug-In . SVG Version: 6.00 Build 0)  -->
<svg version="1.1" id="Layer_1" xmlns="http://www.w3.org/2000/svg" xmlns:xlink="http://www.w3.org/1999/xlink" x="0px" y="0px"
	 viewBox="0 0 50 50" style="enable-background:new 0 0 50 50;" xml:space="preserve">
<style type="text/css">
	.st0{fill:#B9D7D9;}
	.st1{fill:#A6C1C2;}
	.st2{fill:#444444;}
	.st3{fill:none;stroke:#444444;stroke-width:2.5;stroke-linecap:round;stroke-miterlimit:10;}
</style>
<g>
	<g>
		<g>
			<path class="st0" d="M22.5,5.7C12.3,5.7,4,14,4,24.3C4,24.9,4,25.5,4,26l33.7-12.3C34.4,8.9,28.8,5.7,22.5,5.7z"/>
		</g>
		<g>
			<path class="st1" d="M41,24.3c0-3.9-1.2-7.5-3.3-10.5L4,26c0.4,4.6,2.5,8.7,5.7,11.6l31.2-11.3C41,25.7,41,25,41,24.3z"/>
		</g>
	</g>
	<path class="st2" d="M16.5,7.2c-0.3-0.7-1.1-1-1.8-0.7c-1.5,0.6-2.9,1.5-4.2,2.5c-5.1,3.8-8,9.6-8,16c0,5,1.8,9.7,5.1,13.4
		c0.3,0.3,0.6,0.4,1,0.4c0.3,0,0.6-0.1,0.9-0.3c0.6-0.5,0.6-1.3,0.1-1.9c-2.9-3.2-4.4-7.3-4.4-11.6c0-5.5,2.5-10.5,6.9-13.8
		c1.1-0.9,2.4-1.6,3.7-2.1C16.5,8.7,16.8,7.9,16.5,7.2z"/>
	<g>
		<path class="st2" d="M22.4,40.2c-5.3,0-10.2-2.7-13-7.2c-0.1-0.1,0-0.3,0.1-0.4c0.1-0.1,0.3,0,0.4,0.1c2.7,4.4,7.4,7,12.5,7
			c8.1,0,14.7-6.6,14.7-14.7c0-7.2-5.2-13.4-12.3-14.5c-0.1,0-0.2-0.2-0.2-0.3c0-0.1,0.2-0.2,0.3-0.2c7.4,1.2,12.8,7.5,12.8,15.1
			C37.7,33.3,30.8,40.2,22.4,40.2z"/>
	</g>
	<path class="st2" d="M45.5,39.7c-0.5-0.5-1.4-0.5-1.9,0c-0.5,0.5-0.5,1.4,0,1.9l0.8,0.8h-8.9c-0.7,0-1.3,0.6-1.3,1.3
		s0.6,1.3,1.3,1.3h8.7l-0.8,0.8c-0.5,0.5-0.5,1.4,0,1.9c0.3,0.3,0.6,0.4,1,0.4s0.7-0.1,1-0.4l4.1-4.1L45.5,39.7z"/>
	<path class="st2" d="M40.5,16C37.1,9.2,30.2,4.9,22.6,4.9c0,0,0,0,0,0l0.8-0.8c0.5-0.5,0.5-1.4,0-1.9c-0.5-0.5-1.4-0.5-1.9,0
		l-3.9,3.9l4.1,4.1c0.3,0.3,0.6,0.4,1,0.4c0.3,0,0.7-0.1,1-0.4c0.5-0.5,0.5-1.4,0-1.9l-0.8-0.8c6.6,0.1,12.4,3.7,15.4,9.6
		c1.2,2.4,1.8,5,1.8,7.7c0,2.5-0.5,4.8-1.5,7.1C35.6,38,29.6,42,23,42.2l-0.4,0H1.9c-0.7,0-1.3,0.6-1.3,1.3s0.6,1.3,1.3,1.3H23
		c0,0,0,0,0,0l0,0c7.7-0.2,14.6-4.8,17.8-11.8c1.2-2.6,1.7-5.3,1.7-8.2C42.6,21.8,41.9,18.8,40.5,16z"/>
	<g>
		<path class="st3" d="M22,14.2"/>
	</g>
	<path class="st2" d="M19.6,9.9c-4.5,0.8-8.5,3.8-10.7,7.9l-0.3-1.4c0-0.1-0.2-0.2-0.3-0.2c-0.1,0-0.2,0.2-0.2,0.3l0.6,2.3l2.2-0.5
		c0.1,0,0.2-0.2,0.2-0.3c0-0.1-0.2-0.2-0.3-0.2L9.4,18c2.1-3.9,5.9-6.8,10.3-7.6c0.1,0,0.2-0.2,0.2-0.3C19.9,10,19.8,9.9,19.6,9.9z"
		/>
	<g>
		<g>
			<path class="st2" d="M22.5,30.6c-3.8,0-6.9-3.1-6.9-6.9c0-3.8,3.1-6.9,6.9-6.9s6.9,3.1,6.9,6.9C29.4,27.5,26.3,30.6,22.5,30.6z
				 M22.5,17.9c-3.2,0-5.8,2.6-5.8,5.8c0,3.2,2.6,5.8,5.8,5.8s5.8-2.6,5.8-5.8C28.3,20.5,25.7,17.9,22.5,17.9z"/>
		</g>
		<g>
			<path class="st2" d="M22.5,20.1c-2,0-3.7,1.6-3.7,3.7c0,2,1.6,3.7,3.7,3.7c2,0,3.7-1.6,3.7-3.7C26.2,21.7,24.6,20.1,22.5,20.1z
				 M24.3,23.2l-2.2,2l-1.3-1.4c-0.2-0.2-0.2-0.4,0-0.6c0.2-0.2,0.4-0.2,0.6,0l0.8,0.8l1.7-1.5c0.2-0.1,0.4-0.1,0.6,0
				C24.5,22.8,24.5,23.1,24.3,23.2z"/>
		</g>
	</g>
</g>
</svg>
