<?xml version="1.0" encoding="UTF-8"?>
<svg id="Layer_1" xmlns="http://www.w3.org/2000/svg" version="1.1" viewBox="0 0 50 50">
  <!-- Generator: Adobe Illustrator 29.2.1, SVG Export Plug-In . SVG Version: 2.1.0 Build 116)  -->
  <defs>
    <style>
      .st0 {
        stroke-width: 2.5px;
      }

      .st0, .st1, .st2 {
        stroke: #444;
      }

      .st0, .st2 {
        fill: none;
        stroke-linecap: round;
        stroke-linejoin: round;
      }

      .st3, .st1 {
        fill: #7df4eb;
      }

      .st1 {
        stroke-miterlimit: 10;
      }

      .st2 {
        stroke-width: .5px;
      }
    </style>
  </defs>
  <path class="st3" d="M44.7,12.4l-5.6-3.6-7.7-4.4-6-2.8C22.2,1.5,4,10.5,4,13.7l-.5,7.8.5,15.1,11.5,7.6,31-11c.7-.4-.8-18.7-1.8-20.7Z"/>
  <path class="st0" d="M29.9,46.4l-2.2,1.3c-1.7,1-3.8,1-5.5,0l-15.6-9c-1.7-1-2.7-2.8-2.7-4.7v-18c0-2,1-3.8,2.7-4.7L22.3,2.3c1.7-1,3.8-1,5.5,0l15.6,9c1.7,1,2.7,2.8,2.7,4.7v18c0,2-1,3.8-2.7,4.7l-2.5,1.4"/>
  <polyline class="st2" points="5.1 34.8 8.6 25.7 16.8 31.1 21.1 21.3 35.8 27.3 40.4 16.5 45.1 17.8"/>
  <g>
    <rect class="st1" x="26.3" y="8.4" width="6.9" height="26.7" rx="3.5" ry="3.5" transform="translate(-7 18.9) rotate(-31.6)"/>
    <rect class="st1" x="16.5" y="8.4" width="6.9" height="26.7" rx="3.5" ry="3.5" transform="translate(13.2 -7) rotate(29.2)"/>
    <rect class="st1" x="11.7" y="26.9" width="6.9" height="6.9" rx="3.5" ry="3.5" transform="translate(16.8 -3.5) rotate(29.2)"/>
  </g>
</svg>