<?xml version="1.0" encoding="UTF-8"?>
<svg id="Layer_1" xmlns="http://www.w3.org/2000/svg" version="1.1" xmlns:xlink="http://www.w3.org/1999/xlink" viewBox="0 0 50 50">
  <!-- Generator: Adobe Illustrator 29.2.1, SVG Export Plug-In . SVG Version: 2.1.0 Build 116)  -->
  <defs>
    <style>
      .st0 {
        fill: #dc5e82;
      }

      .st1 {
        stroke-linecap: round;
        stroke-linejoin: round;
        stroke-width: 2.5px;
      }

      .st1, .st2 {
        fill: none;
        stroke: #444;
      }

      .st3 {
        fill: #444;
      }

      .st2 {
        stroke-miterlimit: 10;
      }
    </style>
  </defs>
  <path class="st0" d="M45.1,4.6H4c-1.4,0-1.4,3.8-1.4,5.2l-.2,12.9-.5,10.2,1.2,11.8,12.4.6,32.1-11.4V7.1h0c0-1.4-1.1-2.6-2.5-2.6Z"/>
  <path class="st1" d="M32.5,46H5.5c-1.9,0-3.4-1.6-3.4-3.5V7.5c0-1.9,1.5-3.5,3.4-3.5h39c1.9,0,3.4,1.6,3.4,3.5v28.5"/>
  <circle class="st2" cx="30" cy="24.3" r="4.8"/>
  <path class="st2" d="M18.9,9.3h-5c-2.6,0-4.8,2.1-4.8,4.7s2.1,4.8,4.8,4.8h5s-.2-9.7,0-9.5"/>
  <path class="st2" d="M18.8,18.8h-4.9c-2.6,0-4.8,2.1-4.8,4.8s2.1,4.8,4.8,4.8h4.8s.2-9.6.2-9.5"/>
  <path class="st2" d="M18.8,28.4h-4.7c-2.5,0-4.7,1.8-5,4.3s2,5.3,4.8,5.3c0,0,0,0,.2,0,2.6-.2,4.6-2.4,4.6-5V9.3c.2-.2,0,9.5,0,9.5h4.8c2.5,0,4.7-1.8,5-4.3.3-2.9-2-5.3-4.8-5.3h-5"/>
  <path class="st3" d="M41.2,34.9c-.3,0-.6-.1-.9-.4-.4-.4-1.5-1.3-2.2-1.9-.2-.1-.3-.3-.4-.4-.2.4-.5,1-1,2s-.4.6-.8.6-.1,0-.2,0c-.4,0-.7-.3-.9-.7-.6-1.3-1.1-2.4-1.6-3.6-.5-1.2-1-2.4-1.6-3.6,0,0,0,0,0-.1,0-.2-.2-.3-.2-.5-.1-.4,0-.8.1-1,.2-.3.5-.4.9-.4s0,0,.1,0c.1,0,.2,0,.4,0,1.1.3,3.3.9,5.2,1.3,1.3.3,2.5.6,2.8.7.4.1.7.4.8.7.1.3.2.8-.4,1.1-.9.6-1.4,1-1.8,1.2.7.6,2.1,1.8,2.6,2.2.4.3.6.7.6,1.1,0,.6-.3,1.1-.8,1.4-.2.1-.4.2-.7.2ZM37.5,31.4c0,0,.2,0,.2,0h.1c0,.1.2.2.2.3.1.1.3.2.5.4.7.6,1.8,1.5,2.2,1.9.1.1.3.2.5.2s.2,0,.3,0c.3-.1.4-.4.4-.7,0-.2-.1-.4-.3-.6-.5-.5-2.2-1.9-2.8-2.4,0,0,0,0,0,0,0,0,0,0,0,0,0,0-.1-.2-.1-.3,0-.1,0-.2.2-.3,0,0,.1,0,.2-.1.3-.2.9-.6,1.9-1.4.2-.1.2-.1.1-.2,0-.1-.1-.2-.3-.3-.4-.1-1.5-.4-2.8-.7-1.8-.5-4.1-1-5.2-1.3-.1,0-.2,0-.2,0,0,0,0,0,0,0,0,0-.2,0-.3.1,0,0,0,.2,0,.4,0,.1.1.3.2.4,0,0,0,0,0,.1.6,1.3,1.1,2.5,1.6,3.6.5,1.1,1,2.3,1.6,3.6.1.2.2.3.3.3,0,0,0,0,0,0,0,0,0,0,.1-.2.8-1.7,1.1-2.3,1.1-2.4,0-.1.1-.2.3-.2,0,0,0,0,0,0Z"/>
</svg>