<?xml version="1.0" encoding="UTF-8"?>
<svg xmlns="http://www.w3.org/2000/svg" version="1.1" viewBox="0 0 50 50">
  <defs>
    <style>
      .cls-1 {
        stroke-miterlimit: 10;
      }

      .cls-1, .cls-2, .cls-3 {
        fill: none;
      }

      .cls-1, .cls-3 {
        stroke: #e5e5e5;
        stroke-width: 2px;
      }

      .cls-4 {
        fill: #e5e5e5;
      }

      .cls-3 {
        stroke-linecap: round;
        stroke-linejoin: round;
      }

      .cls-5 {
        fill: #8852ca;
      }
    </style>
  </defs>
  <!-- Generator: Adobe Illustrator 28.7.1, SVG Export Plug-In . SVG Version: 1.2.0 Build 142)  -->
  <g>
    <g id="Camada_1">
      <path class="cls-5" d="M26,47.3h16.9c1,0,1.9-.2,2.7-.7,1.7-.9,2.9-2.8,2.9-4.9V8c0-3.1-2.5-5.6-5.6-5.6H9.2c-3.1,0-5.6,2.5-5.6,5.6v33.7c0,3.1,2.5,5.6,5.6,5.6h16.8Z"/>
      <path class="cls-1" d="M10.7,47.3V12.9c0-2.2,1.8-3.9,3.9-3.9h33.9"/>
      <path class="cls-2" d="M25.2,47.3h16.9c1,0,1.9-.2,2.7-.7,1.7-.9,2.9-2.8,2.9-4.9V8c0-3.1-2.5-5.6-5.6-5.6H8.4c-3.1,0-5.6,2.5-5.6,5.6v33.7c0,3.1,2.5,5.6,5.6,5.6h16.8Z"/>
      <g>
        <path class="cls-4" d="M27.1,13c.3,0,.8,0,1.4,0s1.1.1,1.4.4c.3.2.5.6.5,1.1s-.2.9-.4,1.1c-.4.3-.9.5-1.5.5s-.3,0-.4,0v1.7h-1.1v-4.7ZM28.2,15.1c0,0,.2,0,.4,0,.6,0,.9-.3.9-.8s-.3-.7-.8-.7-.4,0-.4,0v1.4Z"/>
        <path class="cls-4" d="M31.2,13c.3,0,.9,0,1.4,0s1.2.1,1.5.4c.3.2.4.6.4,1s-.4,1-.8,1.2h0c.3.2.5.5.6.9.1.5.3,1.1.4,1.3h-1.1c0-.1-.2-.5-.3-1.1-.1-.6-.3-.7-.8-.8h-.3v1.9h-1.1v-4.7ZM32.2,15h.4c.5,0,.8-.3.8-.7s-.3-.7-.8-.7c-.3,0-.4,0-.5,0v1.3Z"/>
        <path class="cls-4" d="M35.3,13c.4,0,.9,0,1.4,0,.9,0,1.5.2,1.9.5.5.4.8.9.8,1.8s-.3,1.5-.8,1.9c-.5.4-1.3.6-2.2.6s-.9,0-1.2,0v-4.6ZM36.4,16.8c0,0,.2,0,.4,0,1,0,1.6-.5,1.6-1.7,0-1-.6-1.5-1.5-1.5s-.4,0-.5,0v3.1Z"/>
      </g>
      <line class="cls-3" x1="47.4" y1="22.8" x2="18.6" y2="22.8"/>
      <line class="cls-3" x1="47.3" y1="28.5" x2="18.6" y2="28.5"/>
      <line class="cls-3" x1="47.4" y1="34.1" x2="18.6" y2="34.1"/>
      <line class="cls-3" x1="31.9" y1="39.8" x2="18.6" y2="39.8"/>
    </g>
  </g>
</svg>