<?xml version="1.0" encoding="UTF-8"?>
<svg id="Camada_3" xmlns="http://www.w3.org/2000/svg" version="1.1" viewBox="0 0 50 50">
  <!-- Generator: Adobe Illustrator 29.1.0, SVG Export Plug-In . SVG Version: 2.1.0 Build 142)  -->
  <defs>
    <style>
      .st0, .st1, .st2 {
        fill: none;
        stroke: #444;
        stroke-linecap: round;
        stroke-linejoin: round;
      }

      .st1 {
        stroke-width: 2.5px;
      }

      .st3 {
        fill: #04ad49;
      }

      .st4 {
        fill: #22dd6d;
      }

      .st2 {
        stroke-width: .5px;
      }
    </style>
  </defs>
  <polygon class="st3" points="30.5 15.2 38.4 17.6 31.7 22.4 31.8 30.6 25.2 25.7 17.4 28.3 20.1 20.5 15.2 14 23.4 14.1 28.1 7.4 30.5 15.2"/>
  <g>
    <path class="st4" d="M48.2,20.2c-.2-.8-2.7-7.5-3.2-8.1l-3-3.5h-.2c0,0-7.6-5.7-7.6-5.7l-7.8-.7c-3.2,0-14.5.3-21.4,10.2l-3.9,10.6h-.2c0,0,4,13.5,4,13.5.1.4,4.5,5.7,4.9,5.9l5.6,3,32.2-11.7c.7-.4,1.7-8.6.8-13.4Z"/>
    <g>
      <path class="st1" d="M32.5,47.5c-7,2.3-15,1.2-21.3-3.6C.8,36.2-1.3,21.5,6.5,11.1"/>
      <path class="st1" d="M6.4,11.3c2-3,4.7-4.7,4.7-4.7l.7-.5C19.9.4,31,.2,39.4,6.5c10.4,7.8,12.4,22.5,4.7,32.8"/>
    </g>
    <g>
      <polyline class="st0" points="3.7 15.6 38 15.6 38 19.1"/>
      <line class="st0" x1="2.9" y1="29.6" x2="9.7" y2="29.6"/>
      <line class="st0" x1="47.5" y1="16.9" x2="38.1" y2="16.9"/>
      <line class="st0" x1="47.5" y1="28.1" x2="38.1" y2="28.1"/>
      <line class="st0" x1="47.5" y1="22.3" x2="41.1" y2="22.3"/>
      <path class="st0" d="M20.3,24.6l-6.7,6.7c-.8.8-2,.8-2.8,0l-.3-.3c-.8-.8-.8-2,0-2.8l8.6-8.6h3l4.2,4.2c.9.9,2.4.9,3.2,0h0c.9-.9.9-2.4,0-3.2l-5-4.9"/>
      <path class="st0" d="M23.7,27.5l-4.6,4.6c-1,1-2.5,1-3.5,0h0c-.8-.8-.8-2,0-2.8"/>
      <path class="st0" d="M27,30.6l-4.1,4c-.8.8-2,.8-2.8,0l-.3-.3c-.8-.8-.8-2,0-2.8"/>
      <path class="st0" d="M38,25.7v4h-3.3l-7.6,7c-.8.8-2,.8-2.8,0l-.3-.3c-.8-.8-.8-2,0-2.8"/>
      <circle class="st0" cx="37.9" cy="22.4" r="3.2"/>
      <line class="st2" x1="12.1" y1="26.5" x2="15.1" y2="29.5"/>
      <line class="st2" x1="15.4" y1="23.2" x2="18.4" y2="26.2"/>
      <line class="st2" x1="18.5" y1="26.3" x2="21.5" y2="29.3"/>
      <line class="st2" x1="21.9" y1="29.7" x2="24.9" y2="32.7"/>
    </g>
  </g>
</svg>