<svg version="1" xmlns="http://www.w3.org/2000/svg" viewBox="0 0 50 50"><path fill="#46B8B0" d="M43.663 11.294v15.512l-25.366 9.237-11.96 4.352V8.027c0-1.527 1.095-2.77 2.447-2.77h2.135l1.746-3.486a.514.514 0 0 1 .46-.265h8.593c.192 0 .376.1.46.267l1.747 3.488h2.134c1.353 0 2.448 1.242 2.448 2.77v2.16h14.048c.608 0 1.105.498 1.105 1.106l.003-.002z"/><path fill="#4ECDC4" d="M27.736 6.014c-.44-.467-1.026-.758-1.676-.758h-2.13L22.18 1.77a.514.514 0 0 0-.46-.268h-8.59c-.2 0-.38.105-.46.268l-1.753 3.486h-2.13c-1.353 0-2.45 1.24-2.45 2.77v5.777l21.4-7.79z"/><path fill="#444" d="M26.06 45.88H8.788c-1.977 0-3.586-1.753-3.586-3.906V8.026c0-2.153 1.61-3.905 3.586-3.905H26.06c1.977 0 3.586 1.754 3.586 3.907v2.16c0 .628-2.27.628-2.27 0v-2.16c0-.902-.59-1.635-1.316-1.635H8.788c-.726 0-1.316.735-1.316 1.636v33.95c0 .9.59 1.634 1.316 1.634H26.06c.726 0 1.316-.733 1.316-1.635v-2.16a1.135 1.135 0 1 1 2.272-.001v2.16c0 2.153-1.61 3.905-3.587 3.905z"/><path fill="#444" d="M25.773 6.394H9.075l2.58-5.133a1.66 1.66 0 0 1 1.475-.89h8.59c.62 0 1.2.35 1.473.892l2.58 5.134v-.002zm-13.018-2.27h9.337l-.747-1.487h-7.843l-.747 1.487zm8.964-1.487h.007-.01.002zm0 46.996h-8.59a1.63 1.63 0 0 1-1.475-.893l-2.58-5.133h16.7l-2.58 5.133c-.278.55-.843.893-1.475.893zm-8.04-1.913h.01-.01zm-.18-.357h7.844l.747-1.487h-9.336l.746 1.487zm4.8-5.04a1.134 1.134 0 0 1-1.134-1.134V8.81c0-.626.508-1.134 1.135-1.134.63 0 1.137.508 1.137 1.135v32.38c0 .627-.508 1.135-1.135 1.135H18.3z"/><path fill="#444" d="M28.508 40.95H17.162V9.055H42.56a2.241 2.241 0 0 1 2.238 2.24v15.51a1.135 1.135 0 1 1-2.27 0V11.323H19.432V38.68h9.075a1.134 1.134 0 1 1 .001 2.27z"/><path fill="#444" d="M21.825 14.018v.92c0 .506-.405.92-.92.92H18.3v-2.76h2.605c.515 0 .92.414.92.92zm8.897 1.838h-4.294a.92.92 0 0 1-.92-.92v-.92a.92.92 0 0 1 .92-.92h4.294a.92.92 0 0 1 .92.92v.92a.92.92 0 0 1-.92.92zm9.814 0h-4.294a.92.92 0 0 1-.92-.92v-.92a.92.92 0 0 1 .92-.92h4.294a.92.92 0 0 1 .92.92v.92a.92.92 0 0 1-.92.92zM21.825 35.07v.92c0 .505-.405.92-.92.92H18.3v-2.76h2.605c.515 0 .92.413.92.92zm8.897 1.837h-4.294a.92.92 0 0 1-.92-.92v-.92a.92.92 0 0 1 .92-.92h4.294a.92.92 0 0 1 .92.92v.92a.92.92 0 0 1-.92.92z"/></svg>