<?xml version="1.0" encoding="utf-8"?>
<!-- Generator: Adobe Illustrator 27.3.1, SVG Export Plug-In . SVG Version: 6.00 Build 0)  -->
<svg version="1.1" id="Camada_3" xmlns="http://www.w3.org/2000/svg" xmlns:xlink="http://www.w3.org/1999/xlink" x="0px" y="0px"
	 viewBox="0 0 50 50" style="enable-background:new 0 0 50 50;" xml:space="preserve">
<style type="text/css">
	.st0{fill:#BF94F7;}
	.st1{fill:#A475EF;}
	.st2{fill:none;stroke:#444444;stroke-width:0.5;stroke-miterlimit:10;}
	.st3{fill:none;stroke:#444444;stroke-width:0.5;stroke-linecap:round;stroke-linejoin:round;stroke-miterlimit:10;}
	.st4{fill:none;stroke:#454444;stroke-width:2.5;stroke-linecap:round;stroke-linejoin:round;stroke-miterlimit:10;}
	.st5{fill:#454444;}
	.st6{fill:#444444;}
</style>
<g>
	<g>
		<path class="st0" d="M46.88,5.06H3.12c-1.18,0-2.13,0.95-2.13,2.13v17.27L49.01,7.37V7.18C49.01,6.01,48.05,5.06,46.88,5.06z"/>
		<polygon class="st1" points="0.99,24.45 2.74,44.98 14.92,45.4 49.01,33.27 49.01,7.37 		"/>
	</g>
	<polyline class="st2" points="48.79,14.03 1.6,14.03 1.6,44.69 	"/>
	<line class="st3" x1="1.6" y1="29.36" x2="48.79" y2="29.36"/>
	<line class="st3" x1="25.2" y1="14.03" x2="25.2" y2="29.36"/>
	<polyline class="st3" points="1.6,31.73 16.31,31.73 48.79,31.73 	"/>
	<path class="st2" d="M16.39,44.69"/>
	<line class="st3" x1="1.6" y1="42.58" x2="33.56" y2="42.58"/>
	<line class="st3" x1="16.31" y1="31.73" x2="16.31" y2="42.58"/>
	<line class="st3" x1="17.76" y1="31.73" x2="17.76" y2="42.58"/>
	<path class="st3" d="M1.6,33.56h8.27c0.79,0,1.44,0.64,1.44,1.44v7.59"/>
	<line class="st3" x1="17.76" y1="33.87" x2="48.79" y2="33.87"/>
	<line class="st3" x1="23.28" y1="31.73" x2="23.28" y2="42.26"/>
	<g>
		<path class="st4" d="M39.21,45.94l-27.97-0.05h-6.2c-1.85,0-3.37-1.5-3.37-3.37L1.61,14.75"/>
		<path class="st4" d="M1.61,14.47l0-6.05c0-1.86,1.51-3.37,3.37-3.37h40.44c1.86,0,3.37,1.51,3.37,3.37v31.43"/>
		<line class="st4" x1="1.94" y1="14.03" x2="48.79" y2="14.03"/>
	</g>
	<circle class="st5" cx="39.3" cy="9.61" r="1.46"/>
	<circle class="st5" cx="43.47" cy="9.61" r="1.46"/>
	<circle class="st5" cx="35.02" cy="9.61" r="1.46"/>
	<path class="st6" d="M40.88,23.41l-5.98,3.34c-0.73,0.41-1.63-0.12-1.63-0.96v-6.68c0-0.84,0.9-1.36,1.63-0.96l5.98,3.34
		C41.63,21.91,41.63,22.99,40.88,23.41L40.88,23.41z"/>
</g>
</svg>
