<?xml version="1.0" encoding="UTF-8"?>
<svg id="Camada_1" xmlns="http://www.w3.org/2000/svg" version="1.1" viewBox="0 0 300 300">
  <!-- Generator: Adobe Illustrator 29.5.1, SVG Export Plug-In . SVG Version: 2.1.0 Build 141)  -->
  <defs>
    <style>
      .st0 {
        opacity: .3;
      }

      .st1 {
        stroke-width: 3px;
      }

      .st1, .st2 {
        stroke: #515151;
      }

      .st1, .st2, .st3 {
        stroke-linejoin: round;
      }

      .st1, .st2, .st3, .st4 {
        fill: none;
        stroke-linecap: round;
      }

      .st5 {
        fill: #cc0e0e;
      }

      .st6 {
        fill: #ffe8d6;
      }

      .st7 {
        fill: #fff;
      }

      .st8 {
        fill: #1e272e;
      }

      .st2 {
        stroke-width: 2px;
      }

      .st9 {
        fill: #008dd3;
      }

      .st3 {
        stroke: #998014;
        stroke-width: 1px;
      }

      .st4 {
        stroke: #a54fc9;
        stroke-miterlimit: 10;
        stroke-width: 4.8px;
      }

      .st10 {
        fill: #ffebfe;
      }

      .st11 {
        fill: #ffdcdf;
      }

      .st11, .st12, .st13 {
        fill-rule: evenodd;
      }

      .st12 {
        fill: #ffbe00;
      }

      .st13 {
        fill: #a54fc9;
      }

      .st14 {
        fill: #57e250;
      }
    </style>
  </defs>
  <circle class="st9" cx="144.6" cy="147.6" r="140"/>
  <g>
    <ellipse class="st10" cx="161.1" cy="267.2" rx="17.9" ry="63.8" transform="translate(-106.5 427.6) rotate(-89.9)"/>
    <path class="st6" d="M224.9,267.4c-.1-6.2-19.3-27.8-67.2-27.2-46.1.6-59.5,23.8-59.5,23.8l126.6,3.3Z"/>
  </g>
  <path class="st10" d="M64.7,62.4c-2.1,1.1-4.2,2.1-6.3,3.2-1.5.8-2.5,2.3-2.5,4.1v162.9c0,1.4.7,2.7,1.8,3.6,6.8,5.2,33.9,22.8,90.5,25,65.5,2.6,96.3-20.9,99.4-23.4.2-.1.4-.3.6-.4l17.3-10.1c1.4-.8,2.2-2.3,2.2-3.9V68.3c0-2.4-1.9-4.4-4.3-4.5-65.8-3.3-131.4-4.3-196.7-1.9-.7,0-1.3.2-1.9.5Z"/>
  <path class="st10" d="M55.8,69.6c-1.9,52.9-1.8,107.7,0,162.2l23-83.3-23-78.9Z"/>
  <path class="st10" d="M267.6,77.9l13.6,11.7c3.6,3.1,5.7,7.7,5.7,12.5v93.7c0,1.6-.7,3.1-2,4.1l-17.3,13.7V77.9Z"/>
  <path class="st8" d="M283.8,190.4c-3.8,2.2-7.6,4.4-11.4,6.6-.7.4,0,1.5.7,1.1,3.8-2.2,7.6-4.4,11.4-6.6.7-.4,0-1.5-.7-1.1h0Z"/>
  <path class="st8" d="M283.8,185.1c-3.8,2.2-7.6,4.4-11.4,6.6-.7.4,0,1.5.7,1.1,3.8-2.2,7.6-4.4,11.4-6.6.7-.4,0-1.5-.7-1.1h0Z"/>
  <path class="st8" d="M283.8,179.9c-3.8,2.2-7.6,4.4-11.4,6.6-.7.4,0,1.5.7,1.1,3.8-2.2,7.6-4.4,11.4-6.6.7-.4,0-1.5-.7-1.1h0Z"/>
  <path class="st8" d="M283.8,174.6c-3.8,2.2-7.6,4.4-11.4,6.6-.7.4,0,1.5.7,1.1,3.8-2.2,7.6-4.4,11.4-6.6.7-.4,0-1.5-.7-1.1h0Z"/>
  <path class="st8" d="M283.8,169.3c-3.8,2.2-7.6,4.4-11.4,6.6-.7.4,0,1.5.7,1.1,3.8-2.2,7.6-4.4,11.4-6.6.7-.4,0-1.5-.7-1.1h0Z"/>
  <path class="st8" d="M283.8,164.1c-3.8,2.2-7.6,4.4-11.4,6.6-.7.4,0,1.5.7,1.1,3.8-2.2,7.6-4.4,11.4-6.6.7-.4,0-1.5-.7-1.1h0Z"/>
  <path class="st8" d="M283.8,158.8c-3.8,2.2-7.6,4.4-11.4,6.6-.7.4,0,1.5.7,1.1,3.8-2.2,7.6-4.4,11.4-6.6.7-.4,0-1.5-.7-1.1h0Z"/>
  <path class="st8" d="M283.8,153.5c-3.8,2.2-7.6,4.4-11.4,6.6-.7.4,0,1.5.7,1.1,3.8-2.2,7.6-4.4,11.4-6.6.7-.4,0-1.5-.7-1.1h0Z"/>
  <path class="st8" d="M283.8,148.3c-3.8,2.2-7.6,4.4-11.4,6.6-.7.4,0,1.5.7,1.1,3.8-2.2,7.6-4.4,11.4-6.6.7-.4,0-1.5-.7-1.1h0Z"/>
  <ellipse class="st5" cx="190.9" cy="236.8" rx="4.7" ry="4.9"/>
  <path class="st14" d="M228.4,93.3c0-1.7-1.4-3.1-3.1-3.1,0,0-55.5-1.5-74-1.7-17-.2-67.8,0-67.8,0-1.7,0-3.1,1.4-3.1,3.1-1.6,47.5-1.5,76.1,0,121.8,0,1.7,1.4,3.1,3,3.1,31.7,2,117.1,4.5,141.8,3.6,1.7,0,3.1-1.4,3.1-3.1,0,0,1.1-40.9,1.1-54.3s-1.1-69.3-1.1-69.3Z"/>
  <polyline class="st2" points="56.6 67.8 249.1 71.2 264.8 64.1"/>
  <line class="st2" x1="247.9" y1="74.2" x2="247.9" y2="235.6"/>
  <path class="st2" d="M104.7,255.8s62.3,14.7,109.5-2.5"/>
  <path class="st2" d="M244.1,223.4h-21.6s-1.5,4.4-15.7,4.4-118.3-3.4-118.3-3.4c0,0-11.3-1-11.3-5.9h-19.6"/>
  <line class="st2" x1="267.6" y1="77.9" x2="267.6" y2="212.1"/>
  <g>
    <line class="st4" x1="158.4" y1="175.7" x2="136" y2="193.9"/>
    <line class="st4" x1="164.3" y1="183.3" x2="142" y2="201.6"/>
    <line class="st4" x1="158.4" y1="175.7" x2="132.3" y2="163.3"/>
  </g>
  <polyline class="st1" points="193.2 112.7 199.1 105.7 196.3 122.7"/>
  <path class="st1" d="M150.5,135s3.2-5.8,7.7-3.5c6,3.2-2.9,17.5-2.9,17.5h0l10.3-3.8"/>
  <path class="st1" d="M103.6,161.9l10.5,5.3c2.8-4.2,1-9.6-2.6-11.8-4.1-2.5-9.3-.3-11.7,2-.4.4-4.2,4.2-1.7,9.4,1.8,3.8,6.3,6.8,11.1,7.3"/>
  <g>
    <ellipse class="st1" cx="111" cy="119.6" rx="6.4" ry="7.4" transform="translate(-8.5 8.5) rotate(-4.2)"/>
    <path class="st1" d="M118.9,110.2s1.5,13,8.5,12.3c7-.7,1.9-15.9,1.9-15.9l3.8,13.5"/>
  </g>
  <g>
    <g>
      <g>
        <g>
          <path class="st12" d="M292.3,94.2l-11.1-10.9-11.1-10.9-88.1,89.5-4.6,20.9c-.8,3.6,2.4,6.7,6,5.9l20.8-4.9,88.1-89.5Z"/>
          <path class="st11" d="M182,161.9l-4.4,19.7c-.9,4.1,2.8,7.7,6.9,6.8l19.6-4.6-22.1-21.8Z"/>
          <path class="st13" d="M178.9,176.1l-2.2,10.2c-.4,1.9,1.3,3.6,3.2,3.2l10.1-2.4-11.1-10.9Z"/>
        </g>
        <path class="st11" d="M285.1,68.2c8.3,2.2,13.3,10.7,11.1,19-2.2,8.3-10.7,13.3-19,11.1-8.3-2.2-13.3-10.7-11.1-19,2.2-8.3,10.7-13.3,19-11.1Z"/>
        <path class="st13" d="M282.7,77.5c3.2.8,5.2,4.1,4.3,7.4-.8,3.2-4.1,5.2-7.4,4.3-3.2-.8-5.2-4.1-4.3-7.4.8-3.2,4.1-5.2,7.4-4.3Z"/>
      </g>
      <line class="st3" x1="187.8" y1="165.6" x2="265" y2="88.3"/>
      <line class="st3" x1="194" y1="170.5" x2="269.2" y2="95.7"/>
      <line class="st3" x1="199.6" y1="175.9" x2="276.1" y2="99.7"/>
    </g>
    <g class="st0">
      <path class="st7" d="M289.9,73.6c6,4.3,6.7,11,2.9,17.3-.8,1.7-5.5,6.1-6.8,3.3-.2-.5-.1-1,.1-1.4.9-1.5,1.7-2.6,2.2-4.2.4-1.2,1-3.3,1.3-4.6.3-1.1.2-2.4-.2-3.9-.4-1.5-1.1-3.2-1.8-4.7-.6-1.3,1-2.7,2.2-1.8h0Z"/>
    </g>
    <g class="st0">
      <path class="st7" d="M284.7,80.4c1.7,1.4,1.9,4.1.5,5.7-.6.8-2.2,1.9-2.8.6-.2-.7.5-1.4.6-2,.5-1.2.1-2.4.2-3.7,0-.7.9-1.1,1.4-.7h0Z"/>
    </g>
  </g>
</svg>