<svg xmlns="http://www.w3.org/2000/svg" id="Layer_1" x="0" y="0" version="1.1" viewBox="0 0 50 50" xml:space="preserve"><style>.st2{fill:#031326}</style><path fill="#d4ff73" d="M42.7 2.2H8.1l-4.3 8.5v3.2c0 1.3.6 2.5 1.6 3.3v4.1L44.8 6.9l-2.1-4.7z"/><path fill="#bee367" d="M44.9 17.2c1-.8 1.6-2 1.6-3.3v-3.2l-1.7-3.8L5.4 21.3v17.3l39.5-14.4v-7z"/><path d="M31.8 48.6H16.4c-.7 0-1.3-.6-1.3-1.3v-.5c0-2.1 1.7-3.8 3.8-3.8h2.2c.4 0 .8.3.8.8s-.3.8-.8.8H19c-1.3 0-2.3 1-2.3 2.3v.3h14.9v-.3c0-1.3-1-2.3-2.3-2.3h-.7c-.4 0-.8-.3-.8-.8s.3-.8.8-.8h.7c2.1 0 3.8 1.7 3.8 3.8v.5c-.1.7-.6 1.3-1.3 1.3zM44 39.4H5.8c-.7 0-1.3-.6-1.3-1.3v-5.5h40.8v5.5c0 .7-.6 1.3-1.3 1.3zM6.1 37.9h37.8v-3.8H6.1v3.8z" class="st2"/><path d="M25.5 36.5h-1.1c-.3 0-.5-.2-.5-.5s.2-.5.5-.5h1.1c.3 0 .5.2.5.5s-.2.5-.5.5zm-.9-18.6c-2.6 0-4.7-2.1-4.7-4.7V9.6h9.3v3.6c.1 2.6-2 4.7-4.6 4.7zm-3.7-7.3v2.6c0 2 1.6 3.7 3.7 3.7 2 0 3.7-1.6 3.7-3.7v-2.6h-7.4z" class="st2"/><path d="M33 17.9c-2.6 0-4.7-2.1-4.7-4.7V9.6h9.3v3.6c0 2.6-2.1 4.7-4.6 4.7zm-3.7-7.3v2.6c0 2 1.6 3.7 3.7 3.7s3.7-1.6 3.7-3.7v-2.6h-7.4z" class="st2"/><path d="M41.3 17.9c-2.6 0-4.7-2.1-4.7-4.7V9.6H46v3.6c0 2.6-2.1 4.7-4.7 4.7zm-3.7-7.3v2.6c0 2 1.6 3.7 3.7 3.7s3.7-1.6 3.7-3.7v-2.6h-7.4zM7.9 17.9c-2.6 0-4.7-2.1-4.7-4.7V9.6h9.3v3.6c.1 2.6-2 4.7-4.6 4.7zm-3.6-7.3v2.6c0 2 1.6 3.7 3.7 3.7 2 0 3.7-1.6 3.7-3.7v-2.6H4.3z" class="st2"/><path d="M16.3 17.9c-2.6 0-4.7-2.1-4.7-4.7V9.6h9.3v3.6c0 2.6-2 4.7-4.6 4.7zm-3.7-7.3v2.6c0 2 1.6 3.7 3.7 3.7s3.7-1.6 3.7-3.7v-2.6h-7.4z" class="st2"/><path d="M46.2 10.6H3l4.7-9.3h34.5l4 9.3zm-41.6-1h40.1l-3.2-7.3H8.3L4.6 9.6z" class="st2"/><path d="M20.9 10.6h-9.5l2.9-9.3H22l-1.1 9.3zm-8.1-1H20l.9-7.3h-5.8l-2.3 7.3zm25 1h-9.5l-1.2-9.3h7.7l3 9.3zm-8.6-1h7.2l-2.3-7.3h-5.8l.9 7.3z" class="st2"/><path d="M32.9 49.5h-16c-1 0-1.8-.8-1.8-1.8v-.5c0-2.5 2-4.4 4.4-4.4.2 0 .3-.2.3-.3v-1.4H5.7c-.7 0-1.4-.4-1.6-1.1-.1-.2-.1-.5-.1-.7V17.9c-1-1-1.6-2.4-1.6-3.9v-3.5L7 1.1h36.3l4.2 9.5v3.5c0 1.5-.6 2.8-1.6 3.9v21.2c0 1-.8 1.8-1.8 1.8H29.9v1.4c0 .2.2.3.3.3 2.5 0 4.4 2 4.4 4.4v.5c.1 1.1-.7 1.9-1.7 1.9zM17.6 47h14.5c-.1-1-.9-1.8-1.9-1.8-1.6 0-2.8-1.3-2.8-2.8v-3.9h16V16.8l.5-.4c.7-.6 1.1-1.4 1.1-2.3v-2.9l-3.3-7.5H8.6l-3.8 7.6v2.9c0 .9.4 1.8 1.1 2.3l.5.4v21.6h16v3.9c0 1.6-1.3 2.8-2.8 2.8-1.1 0-1.9.8-2 1.8z" class="st2"/><path fill="none" stroke="#031326" stroke-linecap="round" stroke-miterlimit="10" stroke-width="1.5" d="M10.6 21.6v7.9m3.5-7.9v7.9m3.5-7.9v7.9m3.5-7.9v7.9m3.5-7.9v7.9m3.5-7.9v7.9m3.5-7.9v7.9m3.5-7.9v7.9m3.5-7.9v7.9"/></svg>