<svg xmlns="http://www.w3.org/2000/svg" viewBox="0 0 300 300"><defs><style></style></defs><g id="Camada_1"><path id="Camada_2" fill="#008dd3" d="M292.8 149.1c.1 20.5-4.3 40-12 57.6-21.8 49.2-70.9 83.5-128.2 83.7-15.2.1-29.9-2.3-43.6-6.7-25.8-8.2-48.4-23.8-65.3-44.2C26.1 218.4 14.6 192 11.9 163c-.4-4.2-.6-8.4-.6-12.7-.2-47.8 23.5-90.2 59.8-115.7 4.8-3.4 9.7-6.4 14.8-9.1 7.3-3.9 14.8-7.1 22.8-9.7 7.5-2.4 15.2-4.2 23.2-5.3 6.4-.9 12.9-1.4 19.5-1.5 25.9-.1 50.1 6.8 71.1 18.9 3.8 2.1 7.4 4.5 10.9 7 16.8 11.9 30.8 27.3 41 45.4 1.2 2 2.2 4.1 3.3 6.2.9 1.8 1.7 3.6 2.6 5.4 2.7 6 4.9 12.1 6.8 18.4 2 7.1 3.6 14.4 4.5 21.7.8 5.7 1.2 11.4 1.2 17.1z"/><path fill="#37393a" fill-rule="evenodd" d="M62.1 99.8C50 109 51.8 118.2 52 131.2c.2 13-1.3 29.9-.4 46.9s4.1 34 9.1 49.1c5 15.1 11.8 28.1 21.7 38 9.9 10 22.9 16.9 36.1 20.8 13.1 3.9 26.3 4.9 36.4 4.3 10.1-.6 17-2.8 24-5 7.2-1.3 14.3-2.6 23.5-6.8 9.2-4.2 20.4-11.2 30.2-20.8 9.8-9.6 18.1-21.8 22.2-35.2 4.1-13.4 4.1-28.1 1.5-43.8-2.6-15.7-7.7-32.3-14.8-47.7-7.1-15.4-16.3-29.7-22.2-41.3s-8.6-20.7-23.6-23.1c-15-2.5-42.3 1.7-69.6 5.8C100 81.5 74 90.5 61.9 99.7z"/><path fill="#4ebfe9" d="M230.8 198.7c-.6-23.1-3.5-52.2-7.5-76.8-4-24.6-9.2-44.8-15.1-61.7-5.9-16.9-12.4-30.6-20.4-39.5S170.5 7.8 157.6 7.5c-9.9-.2-21.9 1.8-34.4 4.3L150 120.4c1.5 6-2.2 12.2-8.3 13.7-6 1.5-12.2-2.2-13.7-8.3L101.2 17.2c-12.4 3.6-24.2 7.5-33 12.4-11.3 6.3-17.6 14.2-20.6 25.7-2.9 11.5-2.3 26.7.4 44.4 2.7 17.7 7.5 38 15.4 61.6 7.9 23.7 19 50.7 29.2 71.5s19.5 35.1 28.2 44.3c8.7 9.2 16.9 13.1 26.6 14.4 9.7 1.3 21.1-.2 32.5-1.6 10.7-4 21.4-8.1 29.5-13.7 8-5.7 13.4-12.9 16.8-25.1 3.4-12.2 5-29.2 4.3-52.3z"/><path fill="#114da5" d="M141.8 134c6-1.5 9.7-7.6 8.3-13.7L123.3 11.8l-11.4 2.4-10.5 3 26.8 108.6c1.5 6 7.6 9.7 13.7 8.3z"/><path fill="#4ebfe9" fill-rule="evenodd" d="M128.2 51.3c-.1-.3-.2-.7-.4-1-.1-.2-.2-.5-.4-.7-.2-.3-.5-.6-.7-.9l-.6-.6c-.4-.3-.8-.6-1.2-.8l-.6-.3c-.2 0-.5-.2-.7-.2-1.1-.3-2.2-.3-3.3 0s-2.1.8-2.9 1.5c-.4.3-.7.7-1 1.1-.3.4-.5.8-.7 1.3s0 0 0 .1c-.1.3-.2.5-.3.8-.1.4-.2.8-.2 1.2v.8c0 .4 0 .7.1 1.1v.8c.1 0 .4 1 .4 1l.2.8.3 1 .2.8.3 1 .2.8.3 1 .2.8.3 1 .2.8.3 1 .2.8.3 1 .2.8.3 1 .2.8.3 1 .2.8.3 1 .2.8.3 1 .2.8.3 1 .2.8c0 .4.2.7.4 1l.3.6c.2.3.4.6.7.9l.6.6c.4.3.7.6 1.2.8 0 0 .1 0 .2.1.1 0 .2.1.3.2 0 0 .2 0 .3.1.1 0 .2 0 .4.1h.1c1.2.4 2.5.5 3.8.1s2.4-1 3.3-1.9l.3-.3s.1-.2.2-.2c0-.1.1-.2.2-.3 0 0 0-.1.1-.2.3-.4.5-.8.6-1.3l.3-.9c0-.4.1-.8.2-1.1V74.6c0-.4 0-.7-.2-1.1l-.2-.8-.3-1-.2-.8-.3-1-.2-.8-.3-1-.2-.8-.3-1-.2-.8-.3-1-.2-.8-.3-1-.2-.8-.3-1-.2-.8-.3-1-.2-.8-.3-1-.2-.8-.3-1-.2-.8-.3-1-.2-.8-.3-1v-.5c-.2-.1-.2-.2-.2-.3z"/><path fill="none" stroke="#a9ebff" stroke-miterlimit="10" stroke-width="5" d="M148.9 115.5l69.6-17.2c.2 0 .4 0 .6-.1M56.8 138.3h.3L127 121"/><path fill="#a9ebff" d="M214.5 79.5c-1.9-6.9-3.9-13.3-6-19.3-5.9-16.9-12.4-30.6-20.4-39.5-8-8.9-17.3-12.9-30.2-13.2-10-.2-22.1 1.8-34.7 4.3l14.6 59 11 44.6 69.6-17.2c.2 0 .4 0 .6-.1-1.4-6.6-3-12.8-4.6-18.7zM68.6 29.6C57.3 35.9 51 43.8 48 55.3c-2.9 11.5-2.3 26.7.4 44.4 1 6.3 2.2 12.9 3.7 19.9 1.3 6 2.9 12.2 4.6 18.7h.3l69.9-17.3-11-44.6-14.6-59C89 21 77.3 24.9 68.6 29.7z"/><path fill="#fff" d="M216 121.8c5.1 26.7 7.1 53.5 6.5 80.7-.4 13.8-1.6 27.8-4.6 41.4-2.7 14.2-12.4 35.6-30.3 34.5-4.3-.3-6.3-5.8-3.3-8.8 1.2-1.2 2.7-2.8 3.4-4.1 4.3-8 6.2-17.5 8.7-26.5 5.3-24.7 6.4-51.2 7.6-76.8.6-13.1 1-26.4 1.5-39.6.3-6.1 9.1-6.8 10.4-.8z" opacity=".3"/><path fill="none" fill-rule="evenodd" stroke="#fff" stroke-linecap="round" stroke-linejoin="round" stroke-width="12" d="M168.7 21.7s24.8 21.2 33.5 69" opacity=".3"/><path fill="none" stroke="#fff" stroke-linecap="round" stroke-linejoin="round" stroke-width="3" d="M124.9 51.4l6.1 24.9" opacity=".3"/></g></svg>