<svg xmlns="http://www.w3.org/2000/svg" id="Layer_1" x="0" y="0" version="1.1" viewBox="0 0 50 50" xml:space="preserve"><style>.st2{fill:#031326}</style><path fill="#fdcf72" d="M37.3 5.5l-2.7 2.2c-1.7-.9-3.6-1.6-5.5-2l-.6-3.4c-2.3-.3-4.6-.3-6.8 0L21 5.7c-1.9.4-3.8 1.1-5.5 2l-2.7-2.2c-2 1.2-3.7 2.7-5.2 4.4l1.7 3C8 14.4 7 16.2 6.3 18H2.8c-.6 1.9-1 3.9-1.1 5.9L41.9 9.3c-1.4-1.5-2.9-2.8-4.6-3.8z"/><path fill="#fcc34f" d="M45.1 26l3.3-1.2c-.1-2.3-.5-4.6-1.2-6.7h-3.5c-.7-1.8-1.7-3.5-2.9-5.1l1.7-3-.6-.6L1.7 23.9c0 .3 0 .5-.1.8L4.9 26c.1 2 .4 3.9 1 5.8L3.2 34c.8 2.1 2 4.1 3.4 5.9l3.3-1.2c1 1.2 2.2 2.2 3.5 3.1l31-11.3c.4-1.4.7-3 .7-4.5z"/><path d="M29.1 49.5l-1.8-3.1c-1.5.2-3 .2-4.6 0l-1.8 3.1-.9-.2c-2.4-.5-4.6-1.3-6.8-2.5l-.8-.4.6-3.5c-1.3-.8-2.4-1.8-3.5-2.9l-3.4 1.2-.6-.7c-1.5-1.9-2.7-4-3.6-6.2l-.3-.8 2.7-2.3c-.4-1.5-.7-3-.8-4.5L.2 25.5v-.9c.1-2.4.5-4.8 1.3-7.1l.3-.8h3.6c.6-1.4 1.4-2.7 2.3-3.9L6 9.5l.6-.7C8.2 7 10 5.4 12.1 4.2l.8-.5L15.6 6c1.4-.7 2.8-1.2 4.3-1.6l.6-3.5.9-.1c2.4-.4 4.8-.4 7.2 0l.9.1.6 3.5c1.5.4 2.9.9 4.3 1.6l2.7-2.3.8.5C40 5.4 41.8 7 43.4 8.8l.6.7-1.8 3.1c.9 1.2 1.7 2.6 2.3 3.9h3.6l.3.8c.8 2.3 1.2 4.7 1.2 7.1v.9l-3.3 1.2c-.1 1.8-.5 3.6-1 5.3-.2.7-.9 1-1.6.8-.7-.2-1-.9-.8-1.6.6-1.8.9-3.6 1-5.4v-.8l3.2-1.2c-.1-1.6-.4-3.1-.8-4.6h-3.4l-.3-.8c-.7-1.7-1.6-3.3-2.8-4.8l-.5-.7 1.7-3c-1.1-1.1-2.3-2.1-3.6-3L34.7 9l-.7-.4c-1.6-.9-3.4-1.5-5.2-1.9l-.8-.2-.6-3.4c-1.6-.2-3.1-.2-4.7 0L22 6.5l-.8.2c-1.8.4-3.6 1-5.2 1.9l-.7.4-2.6-2.2c-1.3.9-2.5 1.9-3.6 3l1.7 3-.5.7c-1.1 1.4-2.1 3.1-2.8 4.8l-.4.7H3.7c-.4 1.5-.7 3.1-.8 4.6l3.2 1.2v.8c.1 1.8.4 3.7 1 5.4l.3.8L4.8 34c.6 1.4 1.4 2.8 2.4 4.1l3.2-1.1.6.6c1.2 1.4 2.6 2.6 4.2 3.5l.7.4-.6 3.4c1.4.7 2.9 1.2 4.4 1.6l1.7-3 .8.1c1.8.3 3.7.3 5.5 0l.8-.1 1.7 3c1.8-.4 3.6-1.1 5.2-2 .6-.3 1.4-.1 1.7.5s.1 1.4-.5 1.7c-2.1 1.1-4.4 2-6.8 2.5l-.7.3z" class="st2"/><path d="M25 36.1c-6 0-10.9-4.9-10.9-10.9s4.9-11 10.9-11 10.9 4.9 10.9 10.9-4.9 11-10.9 11zm0-20.4c-5.2 0-9.4 4.2-9.4 9.4s4.2 9.4 9.4 9.4 9.4-4.2 9.4-9.4-4.2-9.4-9.4-9.4z" class="st2"/></svg>