<svg version="1" xmlns="http://www.w3.org/2000/svg" viewBox="0 0 50 50"><path fill="#E56060" d="M9.24 13.849l2.628.001.741 6.899h-.859a.216.216 0 0 0-.214.238l1.601 14.931c.012.11.104.193.214.193l.905-.001.412 3.868 22.645-8.242 1.152-10.75a.215.215 0 0 0-.213-.238h-.857l.741-6.899 2.626-.001c.12 0 .218-.098.218-.218V8.164a.219.219 0 0 0-.218-.218h-2.628l-3.206-4.485a.247.247 0 0 0-.2-.096H15.273a.251.251 0 0 0-.2.096l-3.205 4.485H9.239a.218.218 0 0 0-.218.218v5.467a.22.22 0 0 0 .219.218z"/><path fill="#FF6B6B" d="M9.24 13.849l2.61.001 23.917-8.705-.839-1.683a.248.248 0 0 0-.2-.096H15.273a.251.251 0 0 0-.2.096l-3.206 4.485H9.24a.218.218 0 0 0-.218.218v5.467c0 .119.097.217.218.217z"/><path fill="#464646" d="M40.761 6.831h-2.054L35.818 2.79a1.37 1.37 0 0 0-1.091-.54H15.273c-.428 0-.836.202-1.108.563l-2.872 4.018H9.24c-.735 0-1.334.598-1.334 1.334v5.467c0 .735.598 1.334 1.333 1.334h1.626l.507 4.722a1.334 1.334 0 0 0-.947 1.418l1.6 14.931a1.329 1.329 0 0 0 1.225 1.186l.995 9.333a1.331 1.331 0 0 0 1.327 1.194H29.76a1.116 1.116 0 1 0 0-2.232H16.38l-1.014-9.514h12.072a.669.669 0 1 0 0-1.338H14.256c-.046 0-.086.017-.129.026l-1.344-12.543h24.435l-1.015 9.474a1.115 1.115 0 1 0 2.218.237l1.153-10.756a1.334 1.334 0 0 0-.944-1.416l.507-4.723h1.623c.736 0 1.334-.598 1.334-1.334V8.164c0-.735-.598-1.333-1.333-1.333zM36.265 20.81H13.738l-.756-7.04h24.039l-.756 7.04zm-26.128-8.379V9.308h29.725v3.123H10.137zm5.578-7.95h18.57l2.493 3.488H13.222l2.493-3.488z"/></svg>