<svg version="1" xmlns="http://www.w3.org/2000/svg" viewBox="0 0 50 50"><path fill="#00C8E2" d="M5.419 42.551c.307.366.633.732.969 1.068.157.153.324.292.485.44L41.42 31.485c.516-.9.96-1.846 1.304-2.838l.111-.336c.043-.064.096-.139.15-.193l1.498-1.499c2.184-2.537 3.468-5.866 3.554-9.301v-.781c-.203-8.038-6.914-14.568-14.963-14.568a14.941 14.941 0 0 0-10.383 4.185l-.899.9a.598.598 0 0 1-.182.149l-.336.111a16.629 16.629 0 0 0-4.506 2.43l-5.566 5.566-.546.546c-.161.182-.289.321-.385.428a1.145 1.145 0 0 0-.129.15 8.91 8.91 0 0 0-1.509 2.698c-.011.01-.011.021-.021.032a5.92 5.92 0 0 0-.303 1.243c-1.188 1.188-2.228 2.221-2.228 2.221a4.34 4.34 0 0 0-.198.218c-.158.178-.317.356-.465.534a8.02 8.02 0 0 0-.445.574c-.129.168-.247.336-.366.504l-.059.089c-.267.396-.524.811-.752 1.237a7.29 7.29 0 0 0-.346.682c-.099.208-.198.416-.287.633a14.95 14.95 0 0 0-.712 2.097c-.059.247-.119.484-.168.732a15.334 15.334 0 0 0-.307 3.037c0 3.125.95 6.014 2.572 8.418.277.406.564.792.871 1.168z"/><path fill="#00DFFC" d="M42.873 5.685c-2.64-2.303-6.071-3.715-9.799-3.715a14.941 14.941 0 0 0-10.383 4.185l-.899.9a.598.598 0 0 1-.182.149l-.336.111a16.629 16.629 0 0 0-4.506 2.43l-5.566 5.566-.546.546c-.161.182-.289.321-.385.428a1.145 1.145 0 0 0-.129.15 8.986 8.986 0 0 0-.995 1.526L42.873 5.685z"/><g fill="#444"><path d="M16.601 42.854a9.481 9.481 0 1 0 0-18.963 9.481 9.481 0 0 0 0 18.963zM20.502 28.5a.945.945 0 1 1 .001 1.89.945.945 0 0 1-.001-1.89zm-2.817 1.478a2.31 2.31 0 1 1 0 4.622 2.31 2.31 0 0 1 0-4.622z"/><path d="M33.071.718c-4.203 0-8.198 1.61-11.267 4.551l-.823.823-.126.042a17.923 17.923 0 0 0-4.844 2.611l-6.294 6.281-.333.373a2.542 2.542 0 0 0-.239.275 10.168 10.168 0 0 0-1.601 2.785l-.117.296c-.132.381-.226.72-.291 1.053-1.061 1.061-1.938 1.933-1.941 1.936a4.882 4.882 0 0 0-.248.271c-.168.188-.335.376-.486.559a9.235 9.235 0 0 0-.482.619c-.125.163-.24.326-.356.489l-.112.166c-.312.461-.587.914-.804 1.32-.151.267-.29.534-.397.783a16.266 16.266 0 0 0-1.075 2.953l-.027.111c-.054.225-.107.443-.151.665a16.595 16.595 0 0 0-.331 3.285c0 3.265.964 6.418 2.789 9.123.3.442.606.851.945 1.266.366.436.707.812 1.057 1.162.369.357.747.704 1.141 1.034a16.274 16.274 0 0 0 10.384 3.731 1.25 1.25 0 0 0 1.251-1.248c0-.39-.19-.725-.47-.954h.075c.149-.009.286-.018.429-.036.23-.02.472-.057.696-.092.224-.028.456-.074.646-.117.015 0 .046 0 .079-.015a8.11 8.11 0 0 0 .623-.144l.099-.026c.157-.037.306-.074.456-.121l.171-.054c.174-.056.357-.12.53-.183.229-.08.458-.17.695-.274a5.73 5.73 0 0 0 .52-.232c.028-.005.048-.018.06-.025.415-.198.798-.401 1.138-.606.12-.074.24-.147.355-.228a9.64 9.64 0 0 0 .65-.44c.167-.119.332-.238.488-.367l.473-.39 1.443-1.447a.225.225 0 0 0 .08-.086h-.001a13.453 13.453 0 0 0 1.724-2.547 13.892 13.892 0 0 0 1.604-6.488c0-7.695-6.261-13.956-13.956-13.956-2.265 0-4.511.555-6.496 1.604-.494.257-.967.549-1.421.863l.568-.568c.013-.007.02-.019.03-.03l1.931-1.93a6.72 6.72 0 0 1 3.545-1.873 15.443 15.443 0 0 1 4.486-.162c6.978.756 12.625 6.361 13.429 13.328.159 1.37.138 2.743-.062 4.081a.126.126 0 0 0 .124.144c.06 0 .114-.045.124-.108.202-1.359.223-2.754.062-4.147-.817-7.081-6.557-12.779-13.649-13.547a15.84 15.84 0 0 0-4.559.165 6.971 6.971 0 0 0-3.678 1.942l-1.612 1.612c.093-.376.178-.667.267-.908a8.187 8.187 0 0 1 1.39-2.481.803.803 0 0 1 .107-.124l.079-.087c.077-.086.17-.188.274-.307l5.671-5.671a15.349 15.349 0 0 1 4.155-2.241 15.595 15.595 0 0 1 5.155-.878c8.536 0 15.48 6.949 15.48 15.491a15.37 15.37 0 0 1-.8 4.964c-.31.875-.695 1.727-1.155 2.529a1.25 1.25 0 1 0 2.168 1.244 17.985 17.985 0 0 0 1.396-3.071l.04-.121 1.48-1.484c2.393-2.781 3.762-6.363 3.856-10.117v-.813C49.063 7.8 41.79.718 33.071.718zM10.523 21.026a13.693 13.693 0 0 1 6.38-1.575c7.558 0 13.706 6.148 13.706 13.706 0 2.226-.544 4.429-1.575 6.372a13.164 13.164 0 0 1-1.691 2.501l-1.501 1.51-.463.382a8.984 8.984 0 0 1-.477.358c-.184.137-.393.278-.642.435-.117.08-.233.152-.348.222-.328.199-.698.395-1.124.601l-.041.015a5.73 5.73 0 0 1-.52.232 9.439 9.439 0 0 1-.682.27c-.17.063-.35.126-.522.18l-.172.054a6.05 6.05 0 0 1-.437.116l-.102.027c-.191.05-.414.107-.626.144l-.035.006-.004.003-.002.001a8.543 8.543 0 0 1-.656.117c-.224.035-.46.071-.687.09-.142.018-.276.026-.411.035-.679.05-1.812.033-3.633-.327a13.742 13.742 0 0 1-5.997-2.869 18.974 18.974 0 0 1-.987-.895 15.101 15.101 0 0 1-.885-.975c-.284-.348-.55-.706-.803-1.076a13.744 13.744 0 0 1-2.358-7.72c0-.862.091-1.733.253-2.599.036-.182.078-.359.122-.538l.024-.1a13.597 13.597 0 0 1 .91-2.488c.08-.183.182-.385.314-.617.191-.357.413-.725.683-1.124l.067-.081V25.4l.018-.022c.099-.139.198-.278.307-.422.112-.162.24-.327.403-.519.135-.162.28-.325.426-.49.052-.061.113-.13.175-.192l.56-.561c.195-.185.368-.337.532-.469a12.886 12.886 0 0 1 2.501-1.699zm36.264-3.742c-.079 3.148-1.234 6.173-3.188 8.449L42.1 27.232l-.02.023c.31-1.24.468-2.54.468-3.881 0-8.68-7.056-15.741-15.73-15.741-1.577 0-3.139.239-4.655.705h-.002c.202-.099.39-.257.546-.433l.849-.848a13.704 13.704 0 0 1 9.518-3.837c7.375 0 13.527 5.988 13.713 13.314v.75z"/></g></svg>