<?xml version="1.0" encoding="utf-8"?>
<!-- Generator: Adobe Illustrator 24.0.3, SVG Export Plug-In . SVG Version: 6.00 Build 0)  -->
<svg version="1.1" id="Layer_1" xmlns="http://www.w3.org/2000/svg" xmlns:xlink="http://www.w3.org/1999/xlink" x="0px" y="0px"
	 viewBox="0 0 50 50" style="enable-background:new 0 0 50 50;" xml:space="preserve">
<style type="text/css">
	.st0{fill:#A475EF;}
	.st1{fill:#BF94F7;}
	.st2{fill:none;stroke:#444444;stroke-width:2.5;stroke-linecap:round;stroke-linejoin:round;stroke-miterlimit:10;}
	.st3{fill:#444444;stroke:#444444;stroke-width:0.3;stroke-miterlimit:10;}
</style>
<g>
	<polygon class="st0" points="47.3,26.9 47.6,30.7 2.3,47.2 2.7,39 3.2,34.3 48.3,17.9 47.5,21.3 	"/>
	<polygon class="st1" points="47.6,11.9 46.9,18.8 2.7,34.9 2.9,26.1 3.4,22.1 47.9,5.9 	"/>
	<polyline class="st2" points="33.1,48 2.4,48 2.4,2.6 48.2,2.6 48.2,37.8 	"/>
</g>
<g>
	<path class="st3" d="M22.7,38.8l-0.1,0.5L22.7,38.8c-0.3-0.1-0.5,0.1-0.6,0.4c-0.1,0.3,0.1,0.5,0.4,0.6c0,0,0,0,0,0
		c0,0,0.1,0,0.1,0c0.2,0,0.4-0.2,0.5-0.4C23.2,39.1,23,38.9,22.7,38.8z"/>
	<path class="st3" d="M26.5,39l0,0.5L26.5,39c-0.3,0-0.5,0.3-0.4,0.6c0,0.3,0.2,0.5,0.5,0.5c0,0,0,0,0.1,0l0,0
		c0.3,0,0.5-0.3,0.4-0.6C27.1,39.1,26.8,38.9,26.5,39z"/>
	<path class="st3" d="M24.6,39C24.6,39,24.6,39,24.6,39c-0.3,0-0.5,0.2-0.5,0.5c0,0.3,0.2,0.5,0.5,0.5c0,0,0,0,0,0
		c0.3,0,0.5-0.2,0.5-0.5C25.1,39.3,24.9,39.1,24.6,39z"/>
	<path class="st3" d="M20.9,38.3L20.9,38.3c-0.3-0.1-0.6,0-0.6,0.3c-0.1,0.3,0,0.5,0.3,0.6c0.1,0,0.1,0,0.2,0c0.2,0,0.4-0.1,0.5-0.3
		C21.3,38.7,21.1,38.4,20.9,38.3z"/>
	<path class="st3" d="M28.4,38.6l0.1,0.5L28.4,38.6c-0.3,0.1-0.4,0.3-0.4,0.6c0.1,0.2,0.3,0.4,0.5,0.4c0,0,0.1,0,0.1,0c0,0,0,0,0,0
		c0.3-0.1,0.4-0.3,0.4-0.6C29,38.7,28.7,38.6,28.4,38.6z"/>
	<path class="st3" d="M30.3,38l0.2,0.5L30.3,38c-0.3,0.1-0.4,0.4-0.3,0.7c0.1,0.2,0.3,0.3,0.5,0.3c0.1,0,0.1,0,0.2,0c0,0,0,0,0,0
		c0.3-0.1,0.4-0.4,0.3-0.7C30.8,38,30.5,37.9,30.3,38z"/>
	<path class="st3" d="M19,15.1c0.1,0,0.2,0,0.2-0.1c0.2-0.1,0.3-0.4,0.2-0.7c-0.1-0.2-0.4-0.3-0.7-0.2l0,0c-0.2,0.1-0.3,0.4-0.2,0.7
		C18.6,15.1,18.8,15.1,19,15.1z"/>
	<path class="st3" d="M13.2,20.7c0.1,0,0.2,0.1,0.2,0.1c0.2,0,0.4-0.1,0.4-0.3l0,0c0.1-0.2,0-0.5-0.2-0.7c-0.2-0.1-0.5,0-0.7,0.2
		C12.8,20.3,12.9,20.6,13.2,20.7z"/>
	<path class="st3" d="M13.1,22.3L13.1,22.3c-0.1,0.2-0.3,0.4-0.5,0.4c-0.1,0-0.1,0-0.2,0c-0.1,0-0.3-0.2-0.3-0.3c0-0.1,0-0.2,0-0.3
		c0.1-0.3,0.4-0.4,0.6-0.3c0.2,0,0.3,0.2,0.3,0.3C13.1,22.1,13.1,22.2,13.1,22.3z"/>
	<path class="st3" d="M14.1,19c0.1,0.1,0.2,0.1,0.3,0.1c0.2,0,0.3-0.1,0.4-0.2l0,0c0.2-0.2,0.1-0.5-0.1-0.7
		c-0.2-0.2-0.5-0.1-0.7,0.1l0.4,0.3L14,18.3C13.9,18.5,13.9,18.8,14.1,19z"/>
	<path class="st3" d="M17.2,16.2c0.1,0,0.2,0,0.3-0.1c0.2-0.2,0.3-0.5,0.1-0.7c-0.2-0.2-0.5-0.3-0.7-0.1l0,0
		c-0.2,0.2-0.3,0.5-0.1,0.7C16.9,16.2,17.1,16.2,17.2,16.2z"/>
	<path class="st3" d="M12.7,30.5C12.7,30.5,12.6,30.6,12.7,30.5c-0.1,0-0.1,0-0.1,0h0c0,0-0.1,0-0.1,0c-0.2,0-0.4-0.1-0.5-0.3
		c0,0,0,0,0,0c-0.1-0.3,0.1-0.5,0.3-0.6c0.3-0.1,0.5,0.1,0.6,0.3C13,30.2,12.9,30.4,12.7,30.5z"/>
	<path class="st3" d="M15.7,17.6c0.1,0,0.3-0.1,0.4-0.2c0.2-0.2,0.2-0.5,0-0.7c-0.2-0.2-0.5-0.2-0.7,0l0,0c-0.2,0.2-0.2,0.5,0,0.7
		C15.5,17.5,15.6,17.6,15.7,17.6z"/>
	<path class="st3" d="M12.6,28c0,0.3-0.1,0.5-0.4,0.6c0,0-0.1,0-0.1,0c-0.2,0-0.5-0.2-0.5-0.4v0c0-0.3,0.2-0.5,0.4-0.6
		C12.3,27.6,12.5,27.8,12.6,28z"/>
	<path class="st3" d="M12.4,26.1L12.4,26.1c0,0.3-0.2,0.5-0.5,0.5c0,0,0,0,0,0c-0.3,0-0.5-0.2-0.5-0.5c0-0.3,0.2-0.5,0.5-0.5
		C12.2,25.6,12.4,25.8,12.4,26.1z"/>
	<path class="st3" d="M12.6,24.2C12.6,24.2,12.6,24.2,12.6,24.2c0,0.3-0.3,0.4-0.5,0.4c0,0-0.1,0-0.1,0c-0.3,0-0.5-0.3-0.4-0.6
		c0-0.3,0.3-0.5,0.6-0.4C12.5,23.6,12.7,23.9,12.6,24.2z"/>
	<path class="st3" d="M36.4,19.3c-0.1,0.1-0.2,0.1-0.3,0.1c-0.2,0-0.3-0.1-0.4-0.2l0,0c-0.2-0.2-0.1-0.5,0.1-0.7
		c0.2-0.2,0.5-0.1,0.7,0.1h0C36.7,18.8,36.6,19.1,36.4,19.3z"/>
	<path class="st3" d="M38.8,24.6c0,0.3-0.2,0.5-0.4,0.6c0,0,0,0-0.1,0c-0.2,0-0.5-0.2-0.5-0.4v0c0-0.3,0.2-0.5,0.4-0.6
		C38.5,24.2,38.8,24.4,38.8,24.6z"/>
	<path class="st3" d="M38,23.1c0,0-0.1,0-0.1,0c-0.2,0-0.4-0.1-0.5-0.4v0c-0.1-0.3,0.1-0.5,0.3-0.6c0.3-0.1,0.5,0.1,0.6,0.3v0
		C38.4,22.8,38.3,23,38,23.1z"/>
	<path class="st3" d="M37.4,21.1c-0.1,0-0.1,0.1-0.2,0.1c-0.2,0-0.4-0.1-0.5-0.3l0,0c-0.1-0.3,0-0.6,0.2-0.7c0.3-0.1,0.6,0,0.7,0.2
		C37.7,20.7,37.6,21,37.4,21.1z"/>
	<path class="st3" d="M35.1,17.6c-0.1,0.1-0.2,0.1-0.3,0.1c-0.1,0-0.3-0.1-0.4-0.2l0,0c-0.2-0.2-0.2-0.5,0-0.7
		c0.2-0.2,0.5-0.2,0.7,0C35.3,17.1,35.3,17.4,35.1,17.6z"/>
	<path class="st3" d="M38.9,26.8L38.9,26.8c0,0.3-0.2,0.5-0.5,0.5h0c-0.3,0-0.5-0.2-0.5-0.5c0-0.3,0.2-0.5,0.5-0.5
		C38.7,26.3,38.9,26.5,38.9,26.8z"/>
	<path class="st3" d="M31.2,15.1L31.2,15.1c0.1,0,0.2,0.1,0.2,0.1c0.2,0,0.4-0.1,0.4-0.3c0.1-0.2,0-0.5-0.2-0.7l-0.2,0.4l0.2-0.4
		c-0.2-0.1-0.5,0-0.7,0.2C30.9,14.7,31,15,31.2,15.1z"/>
	<path class="st3" d="M33.6,16.1c-0.1,0.1-0.2,0.2-0.4,0.2c-0.1,0-0.2,0-0.3-0.1l0,0c-0.2-0.2-0.3-0.5-0.1-0.7
		c0.2-0.2,0.5-0.3,0.7-0.1h0C33.7,15.6,33.8,15.9,33.6,16.1z"/>
	<path class="st3" d="M42.6,33.9l-2.3-2.4c-0.2-0.2-0.5-0.3-0.8-0.3c-0.3,0-0.6,0.1-0.7,0.3l-0.1,0.1l-0.2-0.2
		c-0.2-0.2-0.3-0.4-0.4-0.7c0,0,0-0.1,0-0.1c-0.1-0.2-0.1-0.4-0.1-0.6v-0.7c0,0,0.1,0,0.1,0c0,0,0.1,0,0.1,0c0.2,0,0.5-0.2,0.5-0.4
		c0.1-0.3-0.1-0.5-0.4-0.6c-0.1,0-0.2,0-0.3,0c0-0.7-0.3-1.4-0.8-1.9l-2.3-2.3c-0.5-0.5-1.2-0.8-1.9-0.8h0c-0.6,0-1.1,0.2-1.5,0.5
		l-0.1-0.1l-0.1-0.1V18c0-0.7-0.3-1.4-0.7-1.9c-0.1-0.1-0.2-0.2-0.2-0.3c-0.2-0.3-0.3-0.7-0.3-1v-0.4h0c0.6,0,1.1-0.5,1.1-1.1V9.9
		c0-0.6-0.5-1.1-1.1-1.1h-9.4c-0.6,0-1.1,0.5-1.1,1.1v3.3c0,0.6,0.5,1.1,1.1,1.1h0.1v0.2c0,0.5-0.2,1-0.6,1.4l-1,1
		c-0.5,0.5-0.8,1.3-0.8,2v3.2c0,0.4,0.1,0.9,0.3,1.2c-0.7,0-1.3,0.3-1.8,0.8l-2.3,2.3c-0.5,0.5-0.8,1.2-0.8,2V30c0,0.1,0,0.1,0,0.2
		c0,0.1,0,0.2-0.1,0.3c-0.1,0.3-0.3,0.6-0.5,0.9l-0.2,0.2l-0.1-0.1c-0.2-0.2-0.5-0.3-0.7-0.3c-0.3,0-0.6,0.1-0.8,0.3L9,33.9
		c-0.4,0.4-0.4,1.1,0,1.5l0.8,0.8c0.2,0.2,0.5,0.2,0.7,0c0.2-0.2,0.2-0.5,0-0.7l-0.8-0.8c0,0,0-0.1,0-0.1l2.3-2.4c0,0,0.1,0,0.1,0
		l0.4,0.4l4.9,4.9l1.3,1.3c0,0,0,0.1,0,0.1l-2.3,2.4c0,0-0.1,0-0.1,0l-2.5-2.5l-1.9-1.9c-0.2-0.2-0.5-0.2-0.7,0
		c-0.2,0.2-0.2,0.5,0,0.7l1.6,1.6l2.8,2.8c0.2,0.2,0.5,0.3,0.8,0.3c0.3,0,0.6-0.1,0.7-0.3l2.4-2.4c0.4-0.4,0.4-1.1,0-1.5l0,0
		l0.3-0.3c0.3-0.3,0.8-0.6,1.3-0.6c0.7,0,1.3-0.3,1.8-0.8l1.4-1.4l0.8-0.8c0.6-0.2,1.1-0.7,1.2-1.3c0.2,0.1,0.5,0.2,0.7,0.2
		c0.9,0,1.7-0.8,1.7-1.7v-1.2c0.2,0.1,0.5,0.2,0.7,0.2c0.9,0,1.7-0.8,1.7-1.7v-3.5l1.5,1.5c0.1,0.1,0.2,0.2,0.4,0.2s0.3,0,0.4-0.1
		c0.2-0.2,0.2-0.5,0-0.7l-1.3-1.3c0.2-0.1,0.5-0.2,0.8-0.2c0.5,0,0.9,0.2,1.2,0.5l2.3,2.3c0.3,0.3,0.5,0.8,0.5,1.3V30
		c0,0.1,0,0.3,0,0.4c0.1,0.6,0.4,1.3,0.9,1.7l0.2,0.2L37.2,33l-4.4,4.4l-0.2-0.3c0,0,0,0,0,0l0,0c-0.5-0.5-1.2-0.8-1.9-0.9
		c-0.4,0-0.9-0.2-1.2-0.5l-1.6-1.6c-0.2-0.2-0.5-0.2-0.7,0c-0.2,0.2-0.2,0.5,0,0.7l1.6,1.6c0.5,0.5,1.1,0.8,1.8,0.8
		c0.5,0,1,0.2,1.3,0.6l0,0c0,0,0,0,0,0l0.2,0.2l0,0c-0.4,0.4-0.4,1.1,0,1.5l2.4,2.4c0.2,0.2,0.5,0.3,0.7,0.3c0.3,0,0.6-0.1,0.8-0.3
		l6.6-6.6C43,35,43,34.3,42.6,33.9z M20.9,36.2C20.9,36.2,20.9,36.2,20.9,36.2c-0.6,0-1.1,0.2-1.5,0.5c-0.1,0.1-0.3,0.2-0.4,0.3
		l-0.3,0.3l-0.3-0.3l-4.8-4.9l0.2-0.2c0.5-0.5,0.9-1.2,0.9-2c0,0,0-0.1,0-0.1v-1.4c0-0.5,0.2-1,0.5-1.3l2.3-2.3
		c0.3-0.3,0.8-0.5,1.2-0.5c0.3,0,0.6,0.1,0.8,0.2L18.2,26c-0.2,0.2-0.2,0.5,0,0.7c0.1,0.1,0.2,0.1,0.4,0.1c0.1,0,0.3,0,0.4-0.1
		l1.5-1.5v6.3c0,0.9,0.8,1.7,1.7,1.7c0.3,0,0.5-0.1,0.7-0.2c0.1,0.5,0.4,0.9,0.9,1.2l-1.6,1.6c-0.1,0.1-0.1,0.1-0.2,0.2
		C21.7,36.1,21.3,36.2,20.9,36.2z M30.1,28.6c0,0.4-0.3,0.7-0.7,0.7s-0.7-0.3-0.7-0.7v-5.6c0-0.3-0.2-0.5-0.5-0.5
		c-0.3,0-0.5,0.2-0.5,0.5v8.3c0,0.4-0.3,0.7-0.7,0.7c-0.3,0-0.6-0.3-0.7-0.6V23c0-0.3-0.2-0.5-0.5-0.5c-0.1,0-0.2,0-0.2,0.1
		c-0.2,0.1-0.3,0.3-0.3,0.4v8.3c0,0.1,0,0.1,0,0.2v1c0,0.4-0.3,0.7-0.7,0.7c-0.4,0-0.7-0.3-0.7-0.7V23c0-0.3-0.2-0.5-0.5-0.5
		c-0.3,0-0.5,0.2-0.5,0.5v8.4c0,0.4-0.3,0.7-0.7,0.7c-0.4,0-0.7-0.3-0.7-0.7v-9.3c0-0.3-0.2-0.5-0.5-0.5c-0.3,0-0.5,0.2-0.5,0.5v1.7
		c0,0-0.1,0-0.1,0.1c-0.6-0.2-1.1-0.9-1.1-1.6V19c0-0.5,0.2-1,0.5-1.3l1-1c0.6-0.6,0.9-1.3,0.9-2.1v-0.2h1c0.3,0,0.5-0.2,0.5-0.5
		c0-0.3-0.2-0.5-0.5-0.5h-2.1c0,0-0.1,0-0.1-0.1V9.9c0,0,0-0.1,0.1-0.1h9.4c0,0,0.1,0,0.1,0.1v3.3c0,0,0,0.1-0.1,0.1H25
		c-0.3,0-0.5,0.2-0.5,0.5c0,0.3,0.2,0.5,0.5,0.5h3.9v0.4c0,0.5,0.1,0.9,0.3,1.4c0.1,0.2,0.3,0.4,0.4,0.6c0.3,0.3,0.5,0.8,0.5,1.2
		V28.6z M41.9,34.7l-6.6,6.6c0,0,0,0,0,0c0,0,0,0,0,0l-2.3-2.4c0,0,0-0.1,0-0.1l0.4-0.4l3.8-3.8l2.4-2.4c0,0,0.1,0,0.1,0L41.9,34.7
		C41.9,34.6,41.9,34.6,41.9,34.7z"/>
</g>
</svg>
