<?xml version="1.0" encoding="utf-8"?>
<!-- Generator: Adobe Illustrator 27.8.1, SVG Export Plug-In . SVG Version: 6.00 Build 0)  -->
<svg version="1.1" id="Camada_3" xmlns="http://www.w3.org/2000/svg" xmlns:xlink="http://www.w3.org/1999/xlink" x="0px" y="0px"
	 viewBox="0 0 50 50" style="enable-background:new 0 0 50 50;" xml:space="preserve">
<style type="text/css">
	.st0{fill:#B68AF3;}
	.st1{fill:#E5E5E5;}
</style>
<g>
	<path class="st0" d="M37.8,16.2c-1.9-1.9-4.5-3-7.2-3.2v4.7c0.3-0.2,0.7-0.3,1.1-0.3c1.3,0,2.3,1,2.3,2.3c0,1.3-1,2.3-2.3,2.3
		c-0.4,0-0.7-0.1-1.1-0.3v5.8c0,0.2-0.2,0.4-0.4,0.4h-6c-0.2,0-0.4-0.1-0.4-0.3c0-0.2,0-0.4,0.2-0.5c0.5-0.3,0.8-0.7,0.8-1.3
		c0-0.8-0.7-1.5-1.5-1.5c-0.8,0-1.5,0.7-1.5,1.5c0,0.5,0.3,1,0.8,1.3c0.2,0.1,0.3,0.3,0.2,0.5c0,0.2-0.2,0.3-0.4,0.3H20
		c0.4,1,1,2,1.7,2.8c2.3,2.8,3.7,6.3,3.7,9.8l9.7-0.1c0-3.6,1.3-7.1,3.6-9.9c1.6-2,2.4-4.4,2.4-7C41,20.9,39.8,18.2,37.8,16.2z"/>
	<path class="st0" d="M24.5,14.4c0.3,0.4,0.7,0.6,1.1,0.6c0.8,0,1.5-0.7,1.5-1.5S26.5,12,25.7,12c-0.5,0-0.9,0.2-1.1,0.6
		c-0.1,0.1-0.3,0.2-0.5,0.1c-0.2-0.1-0.3-0.2-0.3-0.4V6.7c-2.8,0.1-5.4,1.2-7.4,3.2c-2.1,2.1-3.2,4.9-3.2,7.8c0,1.1,0.2,2.2,0.5,3.2
		h1.6c-0.2-0.4-0.3-0.8-0.3-1.2c0-1.3,1-2.3,2.3-2.3c1.3,0,2.3,1,2.3,2.3c0,0.4-0.1,0.9-0.3,1.2h4.5v-6.3c0-0.2,0.1-0.4,0.3-0.4
		C24.2,14.2,24.4,14.2,24.5,14.4z"/>
	<path class="st0" d="M34.6,46.7l0-1.1l-8.7,0.1l0,1.1c0,0.1,0,0.2,0,0.3h8.6C34.6,46.9,34.6,46.8,34.6,46.7z"/>
	<path class="st0" d="M46.8,26.3c-0.5,0-1-0.4-1-1c0-0.3,0.1-0.5,0.3-0.7c0.2-0.2,0.4-0.3,0.7-0.3l1,0v-1V7.8c0-3.1-2.5-5.6-5.6-5.6
		H8.4c-3.1,0-5.6,2.5-5.6,5.6V39v2.5c0,3.1,2.5,5.6,5.6,5.6h0h15.7c0-0.1,0-0.2,0-0.3l0-2c0-0.2,0.1-0.5,0.3-0.7
		c0.2-0.2,0.4-0.3,0.7-0.3l10.5-0.1c0.5,0,0.9,0.4,0.9,0.9l0,2c0,0.1,0,0.3,0,0.4h5.7h0c1,0,1.9-0.2,2.7-0.7
		c1.7-0.9,2.9-2.8,2.9-4.9V26.3L46.8,26.3L46.8,26.3z M40.8,12.2l1.1-1.2c0.4-0.4,1-0.4,1.4,0c0.4,0.4,0.4,1,0,1.4l-1.1,1.2
		c-0.2,0.2-0.4,0.3-0.7,0.3c-0.3,0-0.5-0.1-0.7-0.3C40.4,13.2,40.4,12.6,40.8,12.2z M29,5.3c0.5,0,1,0.4,1,1l0,1.6c0,0.5-0.4,1-1,1
		h0h0c-0.5,0-1-0.4-1-1l0-1.6C28,5.7,28.5,5.3,29,5.3z M11.6,26.6l-1.6,0h0c-0.5,0-1-0.4-1-1c0-0.3,0.1-0.5,0.3-0.7
		c0.2-0.2,0.4-0.3,0.7-0.3l1.6,0c0.5,0,1,0.4,1,1C12.6,26.1,12.2,26.6,11.6,26.6z M17.5,38.8L16.3,40c-0.2,0.2-0.4,0.3-0.7,0.3
		c-0.3,0-0.5-0.1-0.7-0.3c-0.4-0.4-0.4-1,0-1.4l1.1-1.2c0.4-0.4,1-0.4,1.4,0c0.2,0.2,0.3,0.4,0.3,0.7S17.6,38.6,17.5,38.8z
		 M17.8,21.5c0-0.2,0-0.4,0.2-0.5c0.5-0.3,0.8-0.7,0.8-1.3c0-0.8-0.7-1.5-1.5-1.5c-0.8,0-1.5,0.7-1.5,1.5c0,0.5,0.3,1,0.8,1.3
		c0.2,0.1,0.3,0.3,0.2,0.5c0,0.2-0.2,0.3-0.4,0.3h-3c-0.2,0-0.3-0.1-0.4-0.3c-0.4-1.2-0.6-2.5-0.7-3.8c0-3.2,1.2-6.2,3.4-8.4
		C18,7.1,21,5.8,24.1,5.8c0,0,0,0,0,0c0.2,0,0.4,0.2,0.4,0.4v5.1c0.3-0.2,0.7-0.3,1.1-0.3c1.3,0,2.3,1,2.3,2.3c0,1.3-1,2.3-2.3,2.3
		c-0.4,0-0.7-0.1-1.1-0.3v5.8c0,0.2-0.2,0.4-0.4,0.4h-6C18,21.8,17.8,21.7,17.8,21.5z M36,40.8l0,0.2c0,0.2-0.2,0.4-0.4,0.4L25,41.6
		c0,0,0,0,0,0c-0.1,0-0.2,0-0.3-0.1c-0.1-0.1-0.1-0.2-0.1-0.3l0-0.4c0-3.3-1.3-6.7-3.5-9.3c-0.9-1.1-1.6-2.3-2.1-3.7
		c0-0.1,0-0.3,0.1-0.4c0.1-0.1,0.2-0.2,0.4-0.2h1.9c-0.2-0.4-0.3-0.8-0.3-1.2c0-1.3,1-2.3,2.3-2.3c1.3,0,2.3,1,2.3,2.3
		c0,0.4-0.1,0.9-0.3,1.2h4.5v-6.3c0-0.2,0.1-0.4,0.3-0.4c0.2-0.1,0.4,0,0.5,0.1c0.3,0.4,0.7,0.6,1.1,0.6c0.8,0,1.5-0.7,1.5-1.5
		c0-0.8-0.7-1.5-1.5-1.5c-0.5,0-0.9,0.2-1.1,0.6C30.4,19,30.2,19.1,30,19c-0.2-0.1-0.3-0.2-0.3-0.4v-6c0-0.1,0-0.2,0.1-0.3
		c0.1-0.1,0.2-0.1,0.3-0.1l0,0c3.1,0,6,1.2,8.2,3.4c2.2,2.2,3.5,5.1,3.5,8.2c0,2.7-0.9,5.4-2.6,7.5C37.1,34,35.9,37.4,36,40.8z
		 M43.6,39.6c-0.2,0.2-0.4,0.3-0.7,0.3c-0.3,0-0.5-0.1-0.7-0.3L41,38.5c-0.4-0.4-0.4-1,0-1.4c0.4-0.4,1-0.4,1.4,0l1.2,1.1
		c0.2,0.2,0.3,0.4,0.3,0.7C43.9,39.1,43.8,39.4,43.6,39.6z"/>
	<path class="st1" d="M36.5,44.7c0-0.5-0.4-0.9-0.9-0.9L25,43.8c-0.2,0-0.5,0.1-0.7,0.3c-0.2,0.2-0.3,0.4-0.3,0.7l0,2
		c0,0.1,0,0.2,0,0.3H26c0-0.1,0-0.2,0-0.3l0-1.1l8.7-0.1l0,1.1c0,0.1,0,0.3,0,0.4h1.9c0-0.1,0-0.3,0-0.4L36.5,44.7z"/>
	<path class="st1" d="M29,8.9L29,8.9L29,8.9c0.6,0,1-0.5,1-1l0-1.6c0-0.5-0.4-1-1-1c-0.5,0-1,0.5-1,1l0,1.6
		C28.1,8.4,28.5,8.9,29,8.9z"/>
	<path class="st1" d="M11.6,24.6l-1.6,0c-0.3,0-0.5,0.1-0.7,0.3C9.1,25.1,9,25.4,9,25.6c0,0.5,0.4,1,1,1h0l1.6,0c0.5,0,1-0.5,1-1
		C12.6,25,12.2,24.6,11.6,24.6z"/>
	<path class="st1" d="M46.8,24.3c-0.3,0-0.5,0.1-0.7,0.3c-0.2,0.2-0.3,0.4-0.3,0.7c0,0.5,0.4,1,1,1h0l1,0v-2L46.8,24.3z"/>
	<path class="st1" d="M42.4,37c-0.4-0.4-1-0.4-1.4,0c-0.4,0.4-0.4,1,0,1.4l1.2,1.1c0.2,0.2,0.4,0.3,0.7,0.3c0.3,0,0.5-0.1,0.7-0.3
		c0.2-0.2,0.3-0.4,0.3-0.7c0-0.3-0.1-0.5-0.3-0.7L42.4,37z"/>
	<path class="st1" d="M16.1,37.4l-1.1,1.2c-0.4,0.4-0.4,1,0,1.4c0.2,0.2,0.4,0.3,0.7,0.3c0.3,0,0.5-0.1,0.7-0.3l1.1-1.2
		c0.2-0.2,0.3-0.4,0.3-0.7s-0.1-0.5-0.3-0.7C17.1,37,16.4,37,16.1,37.4z"/>
	<path class="st1" d="M41.5,13.9c0.3,0,0.5-0.1,0.7-0.3l1.1-1.2c0.4-0.4,0.4-1,0-1.4c-0.4-0.4-1-0.4-1.4,0l-1.1,1.2
		c-0.4,0.4-0.4,1,0,1.4C41,13.8,41.3,13.9,41.5,13.9z"/>
	<path class="st1" d="M38.4,15.5c-2.2-2.2-5.1-3.4-8.2-3.4l0,0c-0.1,0-0.2,0-0.3,0.1c-0.1,0.1-0.1,0.2-0.1,0.3v6
		c0,0.2,0.1,0.4,0.3,0.4c0.2,0.1,0.4,0,0.5-0.1c0.3-0.4,0.7-0.6,1.1-0.6c0.8,0,1.5,0.7,1.5,1.5c0,0.8-0.7,1.5-1.5,1.5
		c-0.5,0-0.9-0.2-1.1-0.6c-0.1-0.1-0.3-0.2-0.5-0.1c-0.2,0.1-0.3,0.2-0.3,0.4v6.3h-4.5c0.2-0.4,0.3-0.8,0.3-1.2c0-1.3-1-2.3-2.3-2.3
		c-1.3,0-2.3,1-2.3,2.3c0,0.4,0.1,0.9,0.3,1.2h-1.9c-0.1,0-0.3,0.1-0.4,0.2c-0.1,0.1-0.1,0.3-0.1,0.4c0.5,1.3,1.2,2.6,2.1,3.7
		c2.2,2.7,3.5,6,3.5,9.3l0,0.4c0,0.1,0,0.2,0.1,0.3c0.1,0.1,0.2,0.1,0.3,0.1c0,0,0,0,0,0l10.5-0.1c0.2,0,0.4-0.2,0.4-0.4l0-0.2
		c0-3.4,1.2-6.8,3.4-9.6c1.7-2.1,2.6-4.8,2.6-7.5C41.8,20.6,40.6,17.7,38.4,15.5z M38.6,30.7c-2.3,2.9-3.5,6.4-3.6,9.9l-9.7,0.1
		c0-3.5-1.4-7-3.7-9.8c-0.7-0.8-1.3-1.8-1.7-2.8h2.3c0.2,0,0.4-0.1,0.4-0.3c0-0.2,0-0.4-0.2-0.5c-0.5-0.3-0.8-0.7-0.8-1.3
		c0-0.8,0.7-1.5,1.5-1.5c0.8,0,1.5,0.7,1.5,1.5c0,0.5-0.3,1-0.8,1.3c-0.2,0.1-0.3,0.3-0.2,0.5c0,0.2,0.2,0.3,0.4,0.3h6
		c0.2,0,0.4-0.2,0.4-0.4v-5.8c0.3,0.2,0.7,0.3,1.1,0.3c1.3,0,2.3-1,2.3-2.3c0-1.3-1-2.3-2.3-2.3c-0.4,0-0.7,0.1-1.1,0.3V13
		c2.7,0.1,5.2,1.2,7.2,3.2c2,2,3.2,4.7,3.2,7.6C41.1,26.3,40.2,28.7,38.6,30.7z"/>
	<path class="st1" d="M24.6,21.4v-5.8c0.3,0.2,0.7,0.3,1.1,0.3c1.3,0,2.3-1,2.3-2.3c0-1.3-1-2.3-2.3-2.3c-0.4,0-0.7,0.1-1.1,0.3V6.3
		c0-0.2-0.2-0.4-0.4-0.4c0,0,0,0,0,0c-3.2,0-6.1,1.2-8.4,3.5c-2.2,2.3-3.5,5.2-3.4,8.4c0,1.3,0.2,2.6,0.7,3.8
		c0.1,0.2,0.2,0.3,0.4,0.3h3c0.2,0,0.4-0.1,0.4-0.3c0-0.2,0-0.4-0.2-0.5c-0.5-0.3-0.8-0.7-0.8-1.3c0-0.8,0.7-1.5,1.5-1.5
		c0.8,0,1.5,0.7,1.5,1.5c0,0.5-0.3,1-0.8,1.3c-0.2,0.1-0.3,0.3-0.2,0.5c0,0.2,0.2,0.3,0.4,0.3h6C24.4,21.8,24.6,21.6,24.6,21.4z
		 M23.7,14.6v6.3h-4.5c0.2-0.4,0.3-0.8,0.3-1.2c0-1.3-1-2.3-2.3-2.3c-1.3,0-2.3,1-2.3,2.3c0,0.4,0.1,0.9,0.3,1.2h-1.6
		c-0.3-1-0.5-2.1-0.5-3.2c0-2.9,1.1-5.7,3.2-7.8c2-2,4.6-3.1,7.4-3.2v5.6c0,0.2,0.1,0.4,0.3,0.4c0.2,0.1,0.4,0,0.5-0.1
		c0.3-0.4,0.7-0.6,1.1-0.6c0.8,0,1.5,0.7,1.5,1.5s-0.7,1.5-1.5,1.5c-0.5,0-0.9-0.2-1.1-0.6c-0.1-0.1-0.3-0.2-0.5-0.1
		C23.8,14.3,23.7,14.4,23.7,14.6z"/>
</g>
</svg>
