<svg xmlns="http://www.w3.org/2000/svg" id="Camada_3" x="0" y="0" version="1.1" viewBox="0 0 50 50" xml:space="preserve"><style>.st0{fill:#b68af3}.st1{fill:#e5e5e5}</style><path d="M37.8 16.2c-1.9-1.9-4.5-3-7.2-3.2v4.7c.3-.2.7-.3 1.1-.3 1.3 0 2.3 1 2.3 2.3 0 1.3-1 2.3-2.3 2.3-.4 0-.7-.1-1.1-.3v5.8c0 .2-.2.4-.4.4h-6c-.2 0-.4-.1-.4-.3 0-.2 0-.4.2-.5.5-.3.8-.7.8-1.3 0-.8-.7-1.5-1.5-1.5s-1.5.7-1.5 1.5c0 .5.3 1 .8 1.3.2.1.3.3.2.5 0 .2-.2.3-.4.3H20c.4 1 1 2 1.7 2.8 2.3 2.8 3.7 6.3 3.7 9.8l9.7-.1c0-3.6 1.3-7.1 3.6-9.9 1.6-2 2.4-4.4 2.4-7-.1-2.6-1.3-5.3-3.3-7.3zm-13.3-1.8c.3.4.7.6 1.1.6.8 0 1.5-.7 1.5-1.5s-.6-1.5-1.4-1.5c-.5 0-.9.2-1.1.6-.1.1-.3.2-.5.1s-.3-.2-.3-.4V6.7c-2.8.1-5.4 1.2-7.4 3.2-2.1 2.1-3.2 4.9-3.2 7.8 0 1.1.2 2.2.5 3.2h1.6c-.2-.4-.3-.8-.3-1.2 0-1.3 1-2.3 2.3-2.3 1.3 0 2.3 1 2.3 2.3 0 .4-.1.9-.3 1.2h4.5v-6.3c0-.2.1-.4.3-.4.1 0 .3 0 .4.2zm10.1 32.3v-1.1l-8.7.1v1.4h8.6c.1-.2.1-.3.1-.4z" class="st0"/><path d="M46.8 26.3c-.5 0-1-.4-1-1 0-.3.1-.5.3-.7.2-.2.4-.3.7-.3h1V7.8c0-3.1-2.5-5.6-5.6-5.6H8.4c-3.1 0-5.6 2.5-5.6 5.6v33.7c0 3.1 2.5 5.6 5.6 5.6h15.7v-2.3c0-.2.1-.5.3-.7.2-.2.4-.3.7-.3l10.5-.1c.5 0 .9.4.9.9V47h5.7c1 0 1.9-.2 2.7-.7 1.7-.9 2.9-2.8 2.9-4.9V26.3h-1zm-6-14.1l1.1-1.2c.4-.4 1-.4 1.4 0 .4.4.4 1 0 1.4l-1.1 1.2c-.2.2-.4.3-.7.3-.3 0-.5-.1-.7-.3-.4-.4-.4-1 0-1.4zM29 5.3c.5 0 1 .4 1 1v1.6c0 .5-.4 1-1 1-.5 0-1-.4-1-1V6.3c0-.6.5-1 1-1zM11.6 26.6H10c-.5 0-1-.4-1-1 0-.3.1-.5.3-.7.2-.2.4-.3.7-.3h1.6c.5 0 1 .4 1 1 0 .5-.4 1-1 1zm5.9 12.2L16.3 40c-.2.2-.4.3-.7.3-.3 0-.5-.1-.7-.3-.4-.4-.4-1 0-1.4l1.1-1.2c.4-.4 1-.4 1.4 0 .2.2.3.4.3.7s-.1.5-.2.7zm.3-17.3c0-.2 0-.4.2-.5.5-.3.8-.7.8-1.3 0-.8-.7-1.5-1.5-1.5s-1.5.7-1.5 1.5c0 .5.3 1 .8 1.3.2.1.3.3.2.5 0 .2-.2.3-.4.3h-3c-.2 0-.3-.1-.4-.3-.4-1.2-.6-2.5-.7-3.8 0-3.2 1.2-6.2 3.4-8.4C18 7.1 21 5.8 24.1 5.8c.2 0 .4.2.4.4v5.1c.3-.2.7-.3 1.1-.3 1.3 0 2.3 1 2.3 2.3 0 1.3-1 2.3-2.3 2.3-.4 0-.7-.1-1.1-.3v5.8c0 .2-.2.4-.4.4h-6c-.1.3-.3.2-.3 0zM36 40.8v.2c0 .2-.2.4-.4.4l-10.6.2c-.1 0-.2 0-.3-.1-.1-.1-.1-.2-.1-.3v-.4c0-3.3-1.3-6.7-3.5-9.3-.9-1.1-1.6-2.3-2.1-3.7 0-.1 0-.3.1-.4.1-.1.2-.2.4-.2h1.9c-.2-.4-.3-.8-.3-1.2 0-1.3 1-2.3 2.3-2.3 1.3 0 2.3 1 2.3 2.3 0 .4-.1.9-.3 1.2h4.5v-6.3c0-.2.1-.4.3-.4.2-.1.4 0 .5.1.3.4.7.6 1.1.6.8 0 1.5-.7 1.5-1.5s-.7-1.5-1.5-1.5c-.5 0-.9.2-1.1.6-.3.2-.5.3-.7.2-.2-.1-.3-.2-.3-.4v-6c0-.1 0-.2.1-.3.1-.1.2-.1.3-.1 3.1 0 6 1.2 8.2 3.4 2.2 2.2 3.5 5.1 3.5 8.2 0 2.7-.9 5.4-2.6 7.5-2.1 2.7-3.3 6.1-3.2 9.5zm7.6-1.2c-.2.2-.4.3-.7.3-.3 0-.5-.1-.7-.3L41 38.5c-.4-.4-.4-1 0-1.4.4-.4 1-.4 1.4 0l1.2 1.1c.2.2.3.4.3.7 0 .2-.1.5-.3.7z" class="st0"/><path d="M36.5 44.7c0-.5-.4-.9-.9-.9H25c-.2 0-.5.1-.7.3-.2.2-.3.4-.3.7v2.3h2v-1.4l8.7-.1v1.5h1.9v-.4l-.1-2zM29 8.9c.6 0 1-.5 1-1V6.3c0-.5-.4-1-1-1-.5 0-1 .5-1 1v1.6c.1.5.5 1 1 1zM11.6 24.6H10c-.3 0-.5.1-.7.3-.2.2-.3.5-.3.7 0 .5.4 1 1 1h1.6c.5 0 1-.5 1-1 0-.6-.4-1-1-1zm35.2-.3c-.3 0-.5.1-.7.3-.2.2-.3.4-.3.7 0 .5.4 1 1 1h1v-2h-1zM42.4 37c-.4-.4-1-.4-1.4 0-.4.4-.4 1 0 1.4l1.2 1.1c.2.2.4.3.7.3.3 0 .5-.1.7-.3.2-.2.3-.4.3-.7 0-.3-.1-.5-.3-.7L42.4 37zm-26.3.4L15 38.6c-.4.4-.4 1 0 1.4.2.2.4.3.7.3.3 0 .5-.1.7-.3l1.1-1.2c.2-.2.3-.4.3-.7s-.1-.5-.3-.7c-.4-.4-1.1-.4-1.4 0zm25.4-23.5c.3 0 .5-.1.7-.3l1.1-1.2c.4-.4.4-1 0-1.4-.4-.4-1-.4-1.4 0l-1.1 1.2c-.4.4-.4 1 0 1.4.2.2.5.3.7.3zm-3.1 1.6c-2.2-2.2-5.1-3.4-8.2-3.4-.1 0-.2 0-.3.1-.1.1-.1.2-.1.3v6c0 .2.1.4.3.4.2.1.4 0 .5-.1.3-.4.7-.6 1.1-.6.8 0 1.5.7 1.5 1.5s-.7 1.5-1.5 1.5c-.5 0-.9-.2-1.1-.6-.1-.1-.3-.2-.5-.1s-.3.2-.3.4v6.3h-4.5c.2-.4.3-.8.3-1.2 0-1.3-1-2.3-2.3-2.3-1.3 0-2.3 1-2.3 2.3 0 .4.1.9.3 1.2h-1.9c-.1 0-.3.1-.4.2-.1.1-.1.3-.1.4.5 1.3 1.2 2.6 2.1 3.7 2.2 2.7 3.5 6 3.5 9.3v.4c0 .1 0 .2.1.3.1.1.2.1.3.1l10.5-.1c.2 0 .4-.2.4-.4v-.2c0-3.4 1.2-6.8 3.4-9.6 1.7-2.1 2.6-4.8 2.6-7.5 0-3.2-1.2-6.1-3.4-8.3zm.2 15.2a16.7 16.7 0 00-3.6 9.9l-9.7.1c0-3.5-1.4-7-3.7-9.8-.7-.8-1.3-1.8-1.7-2.8h2.3c.2 0 .4-.1.4-.3 0-.2 0-.4-.2-.5-.5-.3-.8-.7-.8-1.3 0-.8.7-1.5 1.5-1.5s1.5.7 1.5 1.5c0 .5-.3 1-.8 1.3-.2.1-.3.3-.2.5 0 .2.2.3.4.3h6c.2 0 .4-.2.4-.4v-5.8c.3.2.7.3 1.1.3 1.3 0 2.3-1 2.3-2.3 0-1.3-1-2.3-2.3-2.3-.4 0-.7.1-1.1.3V13c2.7.1 5.2 1.2 7.2 3.2s3.2 4.7 3.2 7.6c.3 2.5-.6 4.9-2.2 6.9z" class="st1"/><path d="M24.6 21.4v-5.8c.3.2.7.3 1.1.3 1.3 0 2.3-1 2.3-2.3 0-1.3-1-2.3-2.3-2.3-.4 0-.7.1-1.1.3V6.3c0-.2-.2-.4-.4-.4-3.2 0-6.1 1.2-8.4 3.5-2.2 2.3-3.5 5.2-3.4 8.4 0 1.3.2 2.6.7 3.8.1.2.2.3.4.3h3c.2 0 .4-.1.4-.3 0-.2 0-.4-.2-.5-.5-.3-.8-.7-.8-1.3 0-.8.7-1.5 1.5-1.5s1.5.7 1.5 1.5c0 .5-.3 1-.8 1.3-.2.1-.3.3-.2.5 0 .2.2.3.4.3h6c.1-.1.3-.3.3-.5zm-.9-6.8v6.3h-4.5c.2-.4.3-.8.3-1.2 0-1.3-1-2.3-2.3-2.3-1.3 0-2.3 1-2.3 2.3 0 .4.1.9.3 1.2h-1.6c-.3-1-.5-2.1-.5-3.2 0-2.9 1.1-5.7 3.2-7.8 2-2 4.6-3.1 7.4-3.2v5.6c0 .2.1.4.3.4.2.1.4 0 .5-.1.3-.4.7-.6 1.1-.6.8 0 1.5.7 1.5 1.5s-.7 1.5-1.5 1.5c-.5 0-.9-.2-1.1-.6-.1-.1-.3-.2-.5-.1-.2 0-.3.1-.3.3z" class="st1"/></svg>