<svg xmlns="http://www.w3.org/2000/svg" id="Layer_1" x="0" y="0" version="1.1" viewBox="0 0 50 50" xml:space="preserve"><style>.st0{fill:#00dffc}.st2{fill:#444}</style><path d="M48 6.7l-4.5 4.4-3.1 2.1L6.5 24.6l.6-15.4 25.7-2h3.4l5.9-6z" class="st0"/><path fill="#00c8e2" d="M41.6 30L7 40.3l-.1-15.7 35.2-12z"/><path d="M25.5 44.4h-2.8c-.4 0-.8-.3-.8-.8s.3-.8.8-.8h2.8c.4 0 .8.3.8.8s-.4.8-.8.8z" class="st2"/><path d="M38 6.7H10.2c-2.6 0-4.7 2.1-4.7 4.7v33.5c0 2.6 2.1 4.7 4.7 4.7H38c2.6 0 4.7-2.1 4.7-4.7V11.5c.1-2.7-2-4.8-4.7-4.8zm2.3 38.2c0 1.2-1 2.2-2.2 2.2H10.2c-1.2 0-2.2-1-2.2-2.2v-4.8h32.4v4.8zm0-6.3H7.9V11.5c0-1.2 1-2.2 2.2-2.2H38c1.2 0 2.2 1 2.2 2.2v27.1z" class="st2"/><path d="M38.2 6.2l-3.1 3.1 5.1 3 2.5-1.6.7-1.9-1-1.9s-.2-1.6-.9-1.5c-.6.2-3.3.8-3.3.8z" class="st0"/><path d="M42.8 10.7l-2.5 2.6-.6-.6s.5-1.2.6-1.2l1.5-.7 1-.1z" class="st0"/><path d="M48.4 6.2L42.8.6c-.3-.3-.8-.3-1.1 0L22 20.2c-.1.1-.1.2-.2.3L19 29c-.1.3 0 .6.2.8.1.1.3.2.5.2h.2l8.4-2.8c.1 0 .2-.1.3-.2l3.2-3.3c.3-.3.3-.8 0-1.1-.3-.3-.8-.3-1.1 0L28 25.5l-4.3-4.8L37.3 7.1l4.6 4.6-4.5 4.5c-.3.3-.3.8 0 1.1.3.3.8.3 1.1 0l9.9-9.9c.3-.4.3-.9 0-1.2zm-5.2 4.1l-4.6-4.6.8-.7L44 9.5l-.8.8zm2.1-2.1l-4.6-4.6 1.5-1.5 4.6 4.6-1.5 1.5z" class="st2"/></svg>