<svg xmlns="http://www.w3.org/2000/svg" id="Layer_1" x="0" y="0" version="1.1" viewBox="0 0 50 50" xml:space="preserve"><style>.st2{fill:#031326}</style><switch><g><path fill="#ce87ea" d="M48.3 7.1c0-.9-.2-1.8-.5-2.6L1.7 21.3v19.6c0 3.5 2.9 6.4 6.4 6.4H10l38.3-14V7.1z"/><path fill="#e097fb" d="M41.9 1.7H8.1c-3.5 0-6.4 2.9-6.4 6.4v14.2L47.8 5.5c-1-2.3-3.3-3.8-5.9-3.8z"/><path d="M44 8.3c0-.3 0-.6-.1-.8 0-.6-.2-1.2-.4-1.8 0-.1 0-.1-.1-.2v1c0 .9-.3 1.9-.6 2.7-.1.3-.2.5-.3.8-.2.4-.4.7-.6 1.1-.3.5-.7 1-1.1 1.5-.1.2-.3.3-.4.5l-.4.4c-.2.2-.4.3-.6.5-.2.2-.4.3-.6.5-.2.1-.3.2-.5.4-.2.1-.4.3-.5.4-.2.1-.4.3-.6.4-.4.3-.8.5-1.2.8-.6.4-1.2.7-1.9 1.1-.5.2-1 .5-1.5.7-.3.1-.7.3-1 .4-1.5.6-2.9 1.2-4.4 1.7-.5.1-1 .3-1.4.4l-1.5.3c-.4.1-.7.2-1.1.3-.3.1-.7.2-1 .3-.2 0-.4.1-.6.2-.3.1-.5.1-.7.2-.2 0-.5.1-.7.2-.2 0-.3.1-.5.2-.4.1-.8.3-1.1.5-.1 0-.2.1-.3.2-.3.1-.6.3-.9.5-.3.1-.5.3-.8.4-.2.1-.4.2-.5.3l-.9.6c-.4.2-.7.5-1.1.8-.2.1-.5.3-.7.5-.2.1-.4.3-.6.5-.2.1-.3.3-.5.4-.2.1-.3.3-.5.5s-.4.4-.6.7c-.2.2-.4.4-.5.6-.1.1-.3.3-.4.5-.1.1-.2.2-.3.4-.1.1-.2.2-.3.4-.2.2-.3.4-.4.6-.1.1-.2.3-.3.4l-.3.6c-.2.3-.3.6-.5.9-.4.8-.8 1.6-1 2.5-.2.9-.5 1.7-.6 2.6-.2.6-.3 1.2-.3 1.8-.1.5-.1 1-.2 1.4-.1.9-.2 1.8-.2 2.7v.7c.1-.1 0-.3.1-.3.1-.2.1-.5.2-.7.4-1.3.8-2.5 1.4-3.6.1-.3.2-.6.4-.9 0-.1.1-.1.1-.2.2-.3.5-.7.7-1 .6-.8 1.3-1.4 2-2.1.4-.3.8-.5 1.2-.8.1 0 .1-.1.2-.1.3-.2.6-.3.9-.5h.1c.2-.1.5-.2.7-.3.3-.1.6-.2 1-.3.3-.1.5-.2.8-.2l1.2-.3c.2 0 .4-.1.6-.1.2 0 .4-.1.6-.1.4-.1.7-.2 1.1-.2.5-.1.9-.2 1.4-.3.5-.1.9-.2 1.3-.3l1.2-.3c.3-.1.6-.2.9-.2.2-.1.5-.1.7-.2.3-.1.6-.2.8-.3.6-.2 1.2-.4 1.7-.6.1 0 .1 0 .2-.1.4-.2.8-.3 1.3-.5.3-.1.6-.2.9-.4.3-.1.6-.3.9-.4l.6-.3c.3-.2.7-.3 1-.5.4-.2.8-.4 1.2-.7.2-.1.4-.2.6-.4.1 0 .2-.1.3-.2.2 0 .3-.1.4-.2.1-.1.2-.1.3-.2.1-.1.2-.2.3-.2.3-.2.5-.4.8-.6.7-.5 1.4-1.1 2-1.7.2-.2.4-.3.5-.6.1-.1.3-.2.4-.4l.4-.4c.2-.2.3-.4.5-.6.2-.2.4-.5.5-.7.2-.2.4-.5.5-.8.2-.3.4-.6.5-.9.2-.3.3-.5.5-.8.2-.3.3-.6.4-.9.1-.3.3-.5.3-.8.2-.4.3-.7.4-1.1.2-.4.3-.9.4-1.3.1-.4.2-.8.3-1.3.4-1.9.6-3.6.4-5.3zM24.4 21.6c0-.1 0-.1 0 0zm3 .8zm6.6-1.9zm.4.9zm-21.7 7.5zM11 35.2z" class="st2"/><path d="M41.9 49.6H8.1c-4.2 0-7.7-3.4-7.7-7.7V8.1C.4 3.9 3.8.4 8.1.4h33.8c4.2 0 7.7 3.4 7.7 7.7v33.8c0 4.2-3.5 7.7-7.7 7.7zM8.1 2.9c-2.8 0-5.2 2.3-5.2 5.2v33.8c0 2.8 2.3 5.2 5.2 5.2h33.8c2.8 0 5.2-2.3 5.2-5.2V8.1c0-2.8-2.3-5.2-5.2-5.2H8.1z" class="st2"/></g></switch></svg>