<?xml version="1.0" encoding="utf-8"?>
<!-- Generator: Adobe Illustrator 26.5.0, SVG Export Plug-In . SVG Version: 6.00 Build 0)  -->
<svg version="1.1" id="Layer_1" xmlns="http://www.w3.org/2000/svg" xmlns:xlink="http://www.w3.org/1999/xlink" x="0px" y="0px"
	 viewBox="0 0 50 50" style="enable-background:new 0 0 50 50;" xml:space="preserve">
<style type="text/css">
	.st0{fill:#A475EF;}
	.st1{fill:#BF94F7;}
	.st2{fill:none;stroke:#444444;stroke-width:2.5;stroke-linecap:round;stroke-linejoin:round;stroke-miterlimit:10;}
	.st3{fill:#424242;}
	.st4{fill:none;stroke:#494949;stroke-linecap:round;stroke-linejoin:round;stroke-miterlimit:10;}
</style>
<g>
	<g>
		<g>
			<g>
				<polygon class="st0" points="48.4,13.8 49.1,19.2 1.8,36.4 1.2,25.2 1.2,18.8 42.6,3.8 47.9,6.1 				"/>
				<polygon class="st1" points="46.7,3.9 49,7.2 0.9,24.4 2,6.7 5.1,3.8 34.9,3.6 				"/>
				<g>
					<path class="st2" d="M16.3,46.4H4.6c-1.7,0-3.1-1.4-3.1-3.1V7.1c0-1.7,1.4-3.1,3.1-3.1h40.5c1.7,0,3.1,1.4,3.1,3.1v21.6"/>
				</g>
				<circle class="st3" cx="8.7" cy="10.2" r="1.6"/>
				<circle class="st3" cx="13.8" cy="10.2" r="1.6"/>
				<circle class="st3" cx="19" cy="10.2" r="1.6"/>
			</g>
		</g>
	</g>
	<g id="_x33_D_3_">
		<g>
			<path class="st4" d="M15.3,38V25.5c0-0.8,0.7-1.5,1.5-1.5"/>
			<path class="st4" d="M43.5,38V25.5c0-0.8-0.7-1.5-1.5-1.5"/>
			<path class="st4" d="M41.5,44.1H17.3c-1.9,0-3.5-1.6-3.5-3.5l0,0h12.6v1h6l0-1H45l0,0C45,42.5,43.4,44.1,41.5,44.1z"/>
		</g>
		<g>
			<polyline class="st4" points="37,28.5 39.5,30 29.4,36 19.4,30 21.9,28.5 			"/>
			<polyline class="st4" points="19.4,18.4 29.4,24.5 39.5,18.4 29.4,12.9 19.4,18.4 			"/>
			<line class="st4" x1="39.5" y1="18.4" x2="39.5" y2="30"/>
			<polygon class="st4" points="29.4,18.4 23.9,21.4 23.9,27.5 29.4,31 34.9,27.5 34.9,21.4 			"/>
			<line class="st4" x1="29.4" y1="24.5" x2="29.4" y2="36"/>
			<line class="st4" x1="29.4" y1="12.9" x2="29.4" y2="15.4"/>
			<line class="st4" x1="19.4" y1="18.4" x2="19.4" y2="30"/>
		</g>
	</g>
</g>
</svg>
