<?xml version="1.0" encoding="utf-8"?>
<!-- Generator: Adobe Illustrator 26.5.0, SVG Export Plug-In . SVG Version: 6.00 Build 0)  -->
<svg version="1.1" id="Camada_3" xmlns="http://www.w3.org/2000/svg" xmlns:xlink="http://www.w3.org/1999/xlink" x="0px" y="0px"
	 viewBox="0 0 50 50" style="enable-background:new 0 0 50 50;" xml:space="preserve">
<style type="text/css">
	.st0{fill:#E589EF;}
	.st1{fill:#F799FF;}
	.st2{fill:#444444;}
	.st3{fill:none;stroke:#444444;stroke-width:0.25;stroke-miterlimit:10;}
	.st4{fill:none;stroke:#444444;stroke-width:2.5;stroke-linecap:round;stroke-linejoin:round;stroke-miterlimit:10;}
	.st5{fill:none;stroke:#444444;stroke-linecap:round;stroke-linejoin:round;stroke-miterlimit:10;}
	.st6{fill:none;stroke:#444444;stroke-miterlimit:10;}
</style>
<g>
	<g>
		<polygon class="st0" points="49.09,17.11 49.09,30.56 2.31,47.59 0.95,28.89 0.9,22.27 48.2,5.13 49.12,9.24 		"/>
		<polygon class="st1" points="41.9,2.95 45.97,1.8 49.07,5.82 0.88,22.57 1.12,4.67 4.28,1.61 35.11,1.43 35.47,2.96 		"/>
	</g>
	<path class="st2" d="M28.72,27.14l-16.2,9.05c-1.98,1.11-4.42-0.33-4.42-2.6V15.49c0-2.27,2.44-3.7,4.42-2.6l16.2,9.05
		C30.75,23.09,30.75,26.01,28.72,27.14L28.72,27.14z"/>
	<g>
		<polygon class="st2" points="40.31,11.03 35.66,11.03 35.66,6.79 40.31,6.79 40.31,11.03 		"/>
		<polygon class="st2" points="40.31,17.86 35.66,17.86 35.66,13.62 40.31,13.62 40.31,17.86 		"/>
		<polygon class="st2" points="40.31,24.69 35.66,24.69 35.66,20.45 40.31,20.45 40.31,24.69 		"/>
		<polygon class="st2" points="40.31,31.52 35.66,31.52 35.66,27.28 40.31,27.28 40.31,31.52 		"/>
		<polygon class="st2" points="40.31,38.35 35.66,38.35 35.66,34.11 40.31,34.11 40.31,38.35 		"/>
		<polygon class="st2" points="40.31,45.18 35.66,45.18 35.66,40.94 40.31,40.94 40.31,45.18 		"/>
		<g>
			<polygon class="st3" points="41.2,11.03 34.88,11.03 34.88,6.79 41.2,6.79 41.2,11.03 			"/>
			<polygon class="st3" points="41.2,17.86 34.88,17.86 34.88,13.62 41.2,13.62 41.2,17.86 			"/>
			<polygon class="st3" points="41.2,24.69 34.88,24.69 34.88,20.45 41.2,20.45 41.2,24.69 			"/>
			<polygon class="st3" points="41.2,31.52 34.88,31.52 34.88,27.28 41.2,27.28 41.2,31.52 			"/>
			<polygon class="st3" points="41.2,38.35 34.88,38.35 34.88,34.11 41.2,34.11 41.2,38.35 			"/>
			<polygon class="st3" points="41.2,45.18 34.88,45.18 34.88,40.94 41.2,40.94 41.2,45.18 			"/>
		</g>
	</g>
	<path class="st4" d="M32.89,48.57H5.7c-2.06,0-3.73-1.67-3.73-3.73V5.88c0-2.06,1.67-3.73,3.73-3.73h29.18v1.2h6.83l-0.03-1.22
		l2.98,0.03l0,0c2.06,0,3.73,1.67,3.73,3.73v38.96c0,2.06-1.67,3.73-3.73,3.73h-1.59"/>
	<path class="st2" d="M32.89,3.34"/>
	<line class="st5" x1="33.92" y1="2.96" x2="33.68" y2="48.57"/>
	<line class="st6" x1="42.47" y1="3.2" x2="42.26" y2="48.57"/>
</g>
</svg>
