<?xml version="1.0" encoding="UTF-8"?>
<svg id="Layer_1" data-name="Layer 1" xmlns="http://www.w3.org/2000/svg" version="1.1" viewBox="0 0 50 50">
  <defs>
    <style>
      .cls-1 {
        fill: #8256d8;
      }

      .cls-1, .cls-2 {
        stroke-width: 0px;
      }

      .cls-2 {
        fill: #a475ef;
      }

      .cls-3, .cls-4, .cls-5 {
        fill: none;
      }

      .cls-3, .cls-5 {
        stroke: #444;
        stroke-linecap: round;
        stroke-linejoin: round;
      }

      .cls-4 {
        stroke: #444;
        stroke-miterlimit: 10;
        stroke-width: .5px;
      }

      .cls-5 {
        stroke-width: 2.5px;
      }
    </style>
  </defs>
  <polygon class="cls-1" points="26 19.5 33.8 21.9 27.1 26.6 27.2 34.8 20.6 29.9 12.9 32.6 15.5 24.8 10.6 18.2 18.8 18.3 23.5 11.6 26 19.5"/>
  <g>
    <g>
      <path class="cls-2" d="M44.8,11.7l-5.8-3.4-7.8-4.1-6.1-2.6c-3.2.1-21.1,9.7-21,12.9l-.2,7.8,1.1,15.1,11.8,7.1,30.6-12.1c.7-.4-1.5-18.7-2.5-20.7Z"/>
      <path class="cls-5" d="M30.4,46.4l-2.2,1.3c-1.7,1-3.8,1-5.5,0l-15.6-9c-1.7-1-2.7-2.8-2.7-4.7v-18c0-2,1-3.8,2.7-4.7L22.8,2.3c1.7-1,3.8-1,5.5,0l15.6,9c1.7,1,2.7,2.8,2.7,4.7v18c0,2-1,3.8-2.7,4.7l-2.5,1.4"/>
    </g>
    <g>
      <g>
        <path class="cls-3" d="M32.5,29.5l-1.2-.2q-.3.6-.7,1.2l.8.9c0,.4,0,.6-.1,1.1l-1,.7q.2.7.4,1.3h1.2c.3.4.4.6.7,1l-.2,1.2q.6.3,1.2.7l.9-.8c.4,0,.6,0,1.1.1l.7,1q.7-.2,1.3-.4v-1.2c.4-.3.6-.4,1-.7l1.2.2q.3-.6.7-1.2l-.8-.9c0-.4,0-.6.1-1.1l1-.7q-.2-.7-.4-1.3h-1.2c-.3-.4-.4-.6-.7-1l.2-1.2q-.6-.3-1.2-.7l-.9.8c-.4,0-.6,0-1.1-.1l-.7-1q-.7.2-1.3.4v1.2c-.4.3-.6.4-1,.7Z"/>
        <circle class="cls-3" cx="35.5" cy="32.5" r="1.9"/>
      </g>
      <circle class="cls-4" cx="14.2" cy="30.1" r="2.1"/>
      <circle class="cls-4" cx="20.7" cy="33.4" r="2.1"/>
      <path class="cls-4" d="M13.5,38.2c0-.8.7-1.5,1.5-1.5s1.5.7,1.5,1.5-.7,1.5-1.5,1.5-1.5-.7-1.5-1.5Z"/>
      <polyline class="cls-4" points="16.6 38.2 23.3 38.2 28.2 36 32.5 36"/>
      <polyline class="cls-4" points="16.3 30.1 19.5 30.1 23 26.6 27.1 26.6 30.6 30.1"/>
      <line class="cls-4" x1="22.8" y1="33.4" x2="30.3" y2="33.4"/>
    </g>
    <g>
      <path class="cls-3" d="M17,24.8h1.7l1.3,1.4q1-.4,2-.8v-1.9c.4-.5.6-.7,1.1-1.2h1.9q.4-.9.8-1.9l-1.4-1.3v-1.7l1.4-1.3q-.4-1-.8-2h-1.9c-.5-.4-.7-.6-1.2-1.1v-1.9c0,0-1.9-.8-1.9-.8l-1.3,1.4h-1.7l-1.3-1.4q-1,.4-2,.8v1.9c-.4.5-.6.7-1.1,1.2h-1.9q-.4.9-.8,1.9l1.4,1.3c0,.7,0,1,0,1.7l-1.4,1.3q.4,1,.8,2h1.9c.5.4.7.6,1.2,1.1v1.9q.9.4,1.9.8l1.3-1.4ZM14.6,18.2c0-1.8,1.4-3.2,3.2-3.2s3.2,1.4,3.2,3.2-1.4,3.2-3.2,3.2-3.2-1.4-3.2-3.2Z"/>
      <path class="cls-4" d="M42.9,22c0,1.1-.9,2.1-2.1,2.1s-2.1-.9-2.1-2.1.9-2.1,2.1-2.1,2.1.9,2.1,2.1Z"/>
      <path class="cls-4" d="M32.4,23.6c0,.6-.5,1-1,1s-1-.5-1-1,.5-1,1-1,1,.5,1,1Z"/>
      <path class="cls-4" d="M38.2,17c0,.6-.5,1-1,1s-1-.5-1-1,.5-1,1-1,1,.5,1,1Z"/>
      <polyline class="cls-4" points="36.3 17.1 32.4 17.1 27 11.6 22 11.6"/>
      <polyline class="cls-4" points="38.7 22.1 34.6 22.1 29.1 16.4 25.4 16.4"/>
      <polyline class="cls-4" points="30.3 23.7 28.1 21.5 25.2 21.5"/>
    </g>
  </g>
</svg>