<?xml version="1.0" encoding="utf-8"?>
<!-- Generator: Adobe Illustrator 26.5.0, SVG Export Plug-In . SVG Version: 6.00 Build 0)  -->
<svg version="1.1" id="Camada_3" xmlns="http://www.w3.org/2000/svg" xmlns:xlink="http://www.w3.org/1999/xlink" x="0px" y="0px"
	 viewBox="0 0 50 50" style="enable-background:new 0 0 50 50;" xml:space="preserve">
<style type="text/css">
	.st0{fill:#BF94F7;}
	.st1{fill:#A475EF;}
	.st2{fill:none;stroke:#444444;stroke-width:2.5;stroke-linecap:round;stroke-linejoin:round;stroke-miterlimit:10;}
	.st3{fill:#444444;}
</style>
<g>
	<g>
		<polygon class="st0" points="34.96,4.91 41.82,10.08 43.64,16.41 2.98,31.24 3.82,18.37 9.27,8.78 22.27,2.83 		"/>
		<polygon class="st1" points="45.68,20.22 45.66,20.62 5.9,34.91 4.89,34.19 2.87,26.69 42.3,11.54 44.32,15.47 		"/>
		<path class="st2" d="M39.96,8.67c8.64,7.21,8.56,19.41,3.38,27.67c-5.97,9.55-18.09,12.91-28,8.15"/>
		<path class="st2" d="M6.8,37.25c-4.86-6.98-5.39-16.46-0.6-24.12C12.62,2.86,26.13-0.25,36.38,6.16"/>
	</g>
	<polyline class="st2" points="36.38,2.28 37.68,6.96 32.53,7.89 	"/>
	<polyline class="st2" points="14.41,47.78 13.68,42.98 18.91,42.68 	"/>
</g>
<g>
	<path class="st3" d="M10.89,25.03c0,7.17,5.83,13,13,13c7.17,0,13-5.83,13-13c0-7.17-5.83-13-13-13
		C16.72,12.03,10.89,17.86,10.89,25.03z M34.89,25.03c0,6.07-4.93,11-11,11s-11-4.93-11-11s4.93-11,11-11S34.89,18.97,34.89,25.03z"
		/>
	<path class="st3" d="M21.59,25.33c-0.39-0.39-1.02-0.39-1.41,0c-0.39,0.39-0.39,1.02,0,1.41l2,2c0.19,0.19,0.44,0.29,0.71,0.29
		c0.03,0,0.07,0,0.1,0c0.3-0.03,0.57-0.19,0.73-0.44l4-6c0.31-0.46,0.18-1.08-0.28-1.39c-0.46-0.31-1.08-0.18-1.39,0.28l-3.32,4.99
		L21.59,25.33z"/>
</g>
</svg>
