<svg xmlns="http://www.w3.org/2000/svg" id="Layer_1" data-name="Layer 1" version="1.1" viewBox="0 0 50 50"><defs><style>.cls-3,.cls-4{fill:none}.cls-3{stroke:#444;stroke-linecap:round;stroke-linejoin:round}.cls-4{stroke:#444;stroke-miterlimit:10;stroke-width:.5px}</style></defs><path fill="#8256d8" stroke-width="0" d="M26 19.5l7.8 2.4-6.7 4.7.1 8.2-6.6-4.9-7.7 2.7 2.6-7.8-4.9-6.6 8.2.1 4.7-6.7 2.5 7.9z"/><path fill="#a475ef" stroke-width="0" d="M44.8 11.7L39 8.3l-7.8-4.1-6.1-2.6c-3.2.1-21.1 9.7-21 12.9l-.2 7.8L5 37.4l11.8 7.1 30.6-12.1c.7-.4-1.5-18.7-2.5-20.7z"/><path fill="none" stroke="#444" stroke-linecap="round" stroke-linejoin="round" stroke-width="2.5" d="M30.4 46.4l-2.2 1.3c-1.7 1-3.8 1-5.5 0l-15.6-9c-1.7-1-2.7-2.8-2.7-4.7V16c0-2 1-3.8 2.7-4.7l15.7-9c1.7-1 3.8-1 5.5 0l15.6 9c1.7 1 2.7 2.8 2.7 4.7v18c0 2-1 3.8-2.7 4.7l-2.5 1.4"/><path d="M32.5 29.5l-1.2-.2q-.3.6-.7 1.2l.8.9c0 .4 0 .6-.1 1.1l-1 .7q.2.7.4 1.3h1.2c.3.4.4.6.7 1l-.2 1.2q.6.3 1.2.7l.9-.8c.4 0 .6 0 1.1.1l.7 1q.7-.2 1.3-.4v-1.2c.4-.3.6-.4 1-.7l1.2.2q.3-.6.7-1.2l-.8-.9c0-.4 0-.6.1-1.1l1-.7q-.2-.7-.4-1.3h-1.2c-.3-.4-.4-.6-.7-1l.2-1.2q-.6-.3-1.2-.7l-.9.8c-.4 0-.6 0-1.1-.1l-.7-1q-.7.2-1.3.4v1.2c-.4.3-.6.4-1 .7z" class="cls-3"/><circle cx="35.5" cy="32.5" r="1.9" class="cls-3"/><circle cx="14.2" cy="30.1" r="2.1" class="cls-4"/><circle cx="20.7" cy="33.4" r="2.1" class="cls-4"/><path d="M13.5 38.2c0-.8.7-1.5 1.5-1.5s1.5.7 1.5 1.5-.7 1.5-1.5 1.5-1.5-.7-1.5-1.5zm3.1 0h6.7l4.9-2.2h4.3m-16.2-5.9h3.2l3.5-3.5h4.1l3.5 3.5m-7.8 3.3h7.5" class="cls-4"/><path d="M17 24.8h1.7l1.3 1.4 2-.8v-1.9c.4-.5.6-.7 1.1-1.2H25q.4-.9.8-1.9l-1.4-1.3v-1.7l1.4-1.3-.8-2h-1.9c-.5-.4-.7-.6-1.2-1.1v-1.9l-1.9-.8-1.3 1.4H17l-1.3-1.4-2 .8V13c-.4.5-.6.7-1.1 1.2h-1.9q-.4.9-.8 1.9l1.4 1.3v1.7l-1.4 1.3.8 2h1.9c.5.4.7.6 1.2 1.1v1.9q.9.4 1.9.8l1.3-1.4zm-2.4-6.6c0-1.8 1.4-3.2 3.2-3.2s3.2 1.4 3.2 3.2-1.4 3.2-3.2 3.2-3.2-1.4-3.2-3.2z" class="cls-3"/><path d="M42.9 22c0 1.1-.9 2.1-2.1 2.1s-2.1-.9-2.1-2.1.9-2.1 2.1-2.1 2.1.9 2.1 2.1zm-10.5 1.6c0 .6-.5 1-1 1s-1-.5-1-1 .5-1 1-1 1 .5 1 1zm5.8-6.6c0 .6-.5 1-1 1s-1-.5-1-1 .5-1 1-1 1 .5 1 1z" class="cls-4"/><path d="M36.3 17.1h-3.9L27 11.6h-5m16.7 10.5h-4.1l-5.5-5.7h-3.7m4.9 7.3l-2.2-2.2h-2.9" class="cls-4"/></svg>