<?xml version="1.0" encoding="utf-8"?>
<!-- Generator: Adobe Illustrator 24.3.0, SVG Export Plug-In . SVG Version: 6.00 Build 0)  -->
<svg version="1.1" id="Layer_1" xmlns="http://www.w3.org/2000/svg" xmlns:xlink="http://www.w3.org/1999/xlink" x="0px" y="0px"
	 viewBox="0 0 50 50" style="enable-background:new 0 0 50 50;" xml:space="preserve">
<style type="text/css">
	.st0{fill:#DC5E82;}
	.st1{fill:#F56991;}
	.st2{fill:#444444;}
</style>
<g>
	<g>
		<g>
			<path class="st0" d="M47.9,7.2c-0.3-1.3-1.2-2.3-2.5-2.7c-0.3-0.1-0.6-0.2-0.9-0.2l-23.4,8.5l-3.8,1.4l-3.8,1.4L9.7,17l-7.5,2.7
				v8c0,0.2,0,0.4,0,0.7c0,0.4,0,0.7,0,1V34h0.1l15.1-5.5l3.8-1.4l7.7-2.8l3.8-1.4l3.8-1.4l3.8-1.4l7.6-2.8
				C47.9,17.3,47.9,7.2,47.9,7.2z"/>
		</g>
	</g>
	<g>
		<g>
			<path class="st1" d="M44.5,4.3c-0.1,0-0.2,0-0.3,0H6.7L2.8,5.7L2.1,6v14.4l7.5-2.8l3.8-1.4l3.8-1.4l3.8-1.4l24.3-8.9
				C45.1,4.4,44.8,4.3,44.5,4.3z"/>
		</g>
	</g>
	<g>
		<g>
			<path class="st2" d="M25,47c-0.4,0-0.7-0.2-1-0.5l-7.3-8.8H5.8c-2.1,0-4-1.3-4.7-3.2c-0.2-0.6-0.3-1.2-0.3-1.8V8.1
				c0-1.2,0.4-2.3,1.1-3.2c1-1.2,2.4-1.9,4-1.9h38.4c0.2,0,0.3,0,0.5,0c0.4,0,0.8,0.1,1.2,0.3c1.7,0.6,3,2.1,3.3,3.9
				c0.1,0.3,0.1,0.6,0.1,0.9v24.5c0,2.8-2.3,5.1-5.1,5.1h-11L26,46.5C25.7,46.8,25.4,47,25,47z M5.8,5.5c-0.8,0-1.5,0.3-2,1
				C3.4,7,3.2,7.5,3.2,8.1v24.5c0,0.3,0.1,0.6,0.2,0.9c0.4,1,1.3,1.6,2.4,1.6h11.5c0.4,0,0.7,0.2,1,0.5l6.7,8.1l6.7-8.1
				c0.2-0.3,0.6-0.5,1-0.5h11.5c1.4,0,2.6-1.2,2.6-2.6V8.1c0-0.2,0-0.3,0-0.4c-0.2-1-0.8-1.7-1.7-2c-0.2-0.1-0.4-0.1-0.6-0.1
				c-0.1,0-0.2,0-0.3,0C31.4,5.6,18.6,5.5,5.8,5.5z"/>
		</g>
		<g>
			<path class="st2" d="M9.7,25.5c-0.3,0-0.5-0.2-0.5-0.5v-9.2c0-0.3,0.2-0.5,0.5-0.5s0.5,0.2,0.5,0.5V25
				C10.2,25.3,9.9,25.5,9.7,25.5z"/>
		</g>
		<g>
			<path class="st2" d="M13.5,28.8c-0.3,0-0.5-0.2-0.5-0.5V12.5c0-0.3,0.2-0.5,0.5-0.5s0.5,0.2,0.5,0.5v15.8
				C14,28.6,13.8,28.8,13.5,28.8z"/>
		</g>
		<g>
			<path class="st2" d="M21.2,28.8c-0.3,0-0.5-0.2-0.5-0.5V12.5c0-0.3,0.2-0.5,0.5-0.5s0.5,0.2,0.5,0.5v15.8
				C21.7,28.6,21.4,28.8,21.2,28.8z"/>
		</g>
		<g>
			<path class="st2" d="M28.8,25.5c-0.3,0-0.5-0.2-0.5-0.5v-9.2c0-0.3,0.2-0.5,0.5-0.5s0.5,0.2,0.5,0.5V25
				C29.3,25.3,29.1,25.5,28.8,25.5z"/>
		</g>
		<g>
			<path class="st2" d="M36.5,25.5c-0.3,0-0.5-0.2-0.5-0.5v-9.2c0-0.3,0.2-0.5,0.5-0.5s0.5,0.2,0.5,0.5V25
				C37,25.3,36.8,25.5,36.5,25.5z"/>
		</g>
		<g>
			<path class="st2" d="M17.3,30.1c-0.3,0-0.5-0.2-0.5-0.5V11.2c0-0.3,0.2-0.5,0.5-0.5s0.5,0.2,0.5,0.5v18.4
				C17.8,29.9,17.6,30.1,17.3,30.1z"/>
		</g>
		<g>
			<path class="st2" d="M25,24c-0.3,0-0.5-0.2-0.5-0.5v-6.1c0-0.3,0.2-0.5,0.5-0.5s0.5,0.2,0.5,0.5v6.1C25.5,23.7,25.3,24,25,24z"/>
		</g>
		<g>
			<path class="st2" d="M40.3,24c-0.3,0-0.5-0.2-0.5-0.5v-6.1c0-0.3,0.2-0.5,0.5-0.5s0.5,0.2,0.5,0.5v6.1C40.8,23.7,40.6,24,40.3,24
				z"/>
		</g>
		<g>
			<path class="st2" d="M32.7,27c-0.3,0-0.5-0.2-0.5-0.5V14.3c0-0.3,0.2-0.5,0.5-0.5s0.5,0.2,0.5,0.5v12.3
				C33.2,26.8,32.9,27,32.7,27z"/>
		</g>
	</g>
</g>
</svg>
