<?xml version="1.0" encoding="utf-8"?>
<!-- Generator: Adobe Illustrator 28.0.0, SVG Export Plug-In . SVG Version: 6.00 Build 0)  -->
<svg version="1.1" id="Camada_1" xmlns="http://www.w3.org/2000/svg" xmlns:xlink="http://www.w3.org/1999/xlink" x="0px" y="0px"
	 viewBox="0 0 48 47" style="enable-background:new 0 0 48 47;" xml:space="preserve">
<style type="text/css">
	.st0{fill:#46B8B0;}
	.st1{fill:none;stroke:#444444;stroke-width:2.5;stroke-linecap:round;stroke-linejoin:round;stroke-miterlimit:10;}
	.st2{fill:none;stroke:#444444;stroke-width:0.5;stroke-linecap:round;stroke-linejoin:round;stroke-miterlimit:10;}
	.st3{fill:none;stroke:#444444;stroke-linecap:round;stroke-linejoin:round;stroke-miterlimit:10;}
	
		.st4{fill:none;stroke:#444444;stroke-width:0.5;stroke-linecap:round;stroke-linejoin:round;stroke-miterlimit:10;stroke-dasharray:15.592,15.592;}
</style>
<g>
	<path class="st0" d="M45.6,19.4c-0.1-0.8-2.5-7.3-3-7.9l-2.8-3.4l-0.2,0.1l-7.1-5.6L25.3,2c-3,0-11.9-0.7-19.8,11.2l-2.7,7.7
		l0.5,1.9L5,34c0.1,0.3,4.4,6.8,4.7,7l5.2,2.9l30-11.4C45.5,32.1,46.5,24.1,45.6,19.4z"/>
	<path class="st1" d="M27,45C15.2,46.5,4.5,38.1,3.1,26.4S10,3.9,21.7,2.5s22.5,6.9,23.9,18.7c0.6,4.7-0.4,9.3-2.6,13.2"/>
	<g>
		<path class="st2" d="M36.7,36.2c0.7-0.7,1.3-1.4,1.9-2.2c-0.4-0.7-0.8-1.3-1.2-1.9c0.9-1.3,1.5-2.8,1.9-4.3
			c0.8-0.1,1.5-0.2,2.3-0.3c0.2-0.9,0.3-1.9,0.4-2.8c-0.7-0.4-1.4-0.7-2.1-1c0-1.6-0.2-3.1-0.7-4.6c0.6-0.5,1.2-1,1.7-1.5
			c-0.3-0.9-0.7-1.8-1.2-2.6c-0.8,0.1-1.5,0.2-2.3,0.3c-0.8-1.3-1.9-2.5-3.1-3.5c0.2-0.7,0.5-1.4,0.6-2.2C34.3,9,33.5,8.5,32.6,8
			c-0.6,0.5-1.2,1-1.7,1.5c-1.4-0.7-2.9-1.1-4.5-1.3C26.2,7.5,26,6.7,25.8,6c-0.9-0.1-1.9-0.1-2.8,0c-0.3,0.7-0.5,1.5-0.7,2.2
			c-1.6,0.2-3.1,0.7-4.5,1.3C17.2,9,16.6,8.5,16,8c-0.8,0.5-1.6,1-2.4,1.5c0.2,0.8,0.4,1.5,0.6,2.2c-1.2,1-2.2,2.2-3.1,3.5
			C10.5,15.2,9.7,15.1,9,15c-0.5,0.8-0.9,1.7-1.2,2.6c0.6,0.5,1.1,1,1.7,1.5c-0.5,1.5-0.7,3.1-0.7,4.6c-0.7,0.3-1.4,0.6-2.1,1
			c0.1,0.9,0.2,1.9,0.4,2.8c0.7,0.2,1.5,0.3,2.3,0.3c0.4,1.5,1.1,3,1.9,4.3c-0.4,0.6-0.8,1.3-1.2,1.9c0.6,0.8,1.2,1.5,1.9,2.1"/>
		<path class="st3" d="M24.9,36.3c0.1,0,0.2-0.1,0.3-0.1c0.2-0.3,0.5-1.2,0.5-1.2c0.2-0.3,0-0.8-0.4-0.8h-1.9
			c-0.3,0-0.5,0.4-0.4,0.8c0,0,0.3,0.9,0.5,1.2c0,0.1,0.1,0.1,0.3,0.1H24.9z"/>
		<polyline class="st3" points="23.8,36.3 23.2,42 24.4,43 25.5,42 24.9,36.3 		"/>
		<path class="st3" d="M19.9,34.3c-3.6,0.2-6.4,0.4-6.8,7.4"/>
		<path class="st3" d="M35.1,38.5c-1-3.9-3.4-4-6.3-4.2"/>
		<polygon class="st3" points="23,34.2 21.4,36.9 19.9,34.3 21.2,32.8 		"/>
		<polygon class="st3" points="25.7,34.2 27.3,36.9 28.8,34.3 27.5,32.8 		"/>
		<g>
			<g>
				<g>
					<path class="st4" d="M33.7,30.4c1.2-1.8,1.9-4,1.9-6.3c0-6.2-5-11.3-11.3-11.3c-6.2,0-11.3,5-11.3,11.3c0,2.7,0.9,5.2,2.5,7.1"
						/>
				</g>
			</g>
		</g>
		<circle class="st3" cx="24.4" cy="24.1" r="6.9"/>
	</g>
</g>
</svg>
