<svg xmlns="http://www.w3.org/2000/svg" id="Camada_1" x="0" y="0" version="1.1" viewBox="0 0 48 47" xml:space="preserve"><style>.st3{fill:none;stroke:#444;stroke-linecap:round;stroke-linejoin:round;stroke-miterlimit:10}</style><path fill="#46b8b0" d="M45.6 19.4c-.1-.8-2.5-7.3-3-7.9l-2.8-3.4-.2.1-7.1-5.6-7.2-.6c-3 0-11.9-.7-19.8 11.2l-2.7 7.7.5 1.9L5 34c.1.3 4.4 6.8 4.7 7l5.2 2.9 30-11.4c.6-.4 1.6-8.4.7-13.1z"/><path fill="none" stroke="#444" stroke-linecap="round" stroke-linejoin="round" stroke-miterlimit="10" stroke-width="2.5" d="M27 45C15.2 46.5 4.5 38.1 3.1 26.4S10 3.9 21.7 2.5s22.5 6.9 23.9 18.7c.6 4.7-.4 9.3-2.6 13.2"/><path fill="none" stroke="#444" stroke-linecap="round" stroke-linejoin="round" stroke-miterlimit="10" stroke-width=".5" d="M36.7 36.2c.7-.7 1.3-1.4 1.9-2.2-.4-.7-.8-1.3-1.2-1.9.9-1.3 1.5-2.8 1.9-4.3.8-.1 1.5-.2 2.3-.3.2-.9.3-1.9.4-2.8-.7-.4-1.4-.7-2.1-1 0-1.6-.2-3.1-.7-4.6.6-.5 1.2-1 1.7-1.5-.3-.9-.7-1.8-1.2-2.6-.8.1-1.5.2-2.3.3-.8-1.3-1.9-2.5-3.1-3.5.2-.7.5-1.4.6-2.2-.6-.6-1.4-1.1-2.3-1.6-.6.5-1.2 1-1.7 1.5-1.4-.7-2.9-1.1-4.5-1.3-.2-.7-.4-1.5-.6-2.2-.9-.1-1.9-.1-2.8 0-.3.7-.5 1.5-.7 2.2-1.6.2-3.1.7-4.5 1.3L16 8l-2.4 1.5c.2.8.4 1.5.6 2.2-1.2 1-2.2 2.2-3.1 3.5-.6 0-1.4-.1-2.1-.2-.5.8-.9 1.7-1.2 2.6.6.5 1.1 1 1.7 1.5-.5 1.5-.7 3.1-.7 4.6-.7.3-1.4.6-2.1 1 .1.9.2 1.9.4 2.8.7.2 1.5.3 2.3.3.4 1.5 1.1 3 1.9 4.3-.4.6-.8 1.3-1.2 1.9.6.8 1.2 1.5 1.9 2.1"/><path d="M24.9 36.3c.1 0 .2-.1.3-.1.2-.3.5-1.2.5-1.2.2-.3 0-.8-.4-.8h-1.9c-.3 0-.5.4-.4.8 0 0 .3.9.5 1.2 0 .1.1.1.3.1h1.1zm-1.1 0l-.6 5.7 1.2 1 1.1-1-.6-5.7m-5-2c-3.6.2-6.4.4-6.8 7.4m22-3.2c-1-3.9-3.4-4-6.3-4.2m-5.8-.1l-1.6 2.7-1.5-2.6 1.3-1.5zm2.7 0l1.6 2.7 1.5-2.6-1.3-1.5z" class="st3"/><path fill="none" stroke="#444" stroke-dasharray="15.592,15.592" stroke-linecap="round" stroke-linejoin="round" stroke-miterlimit="10" stroke-width=".5" d="M33.7 30.4c1.2-1.8 1.9-4 1.9-6.3 0-6.2-5-11.3-11.3-11.3-6.2 0-11.3 5-11.3 11.3 0 2.7.9 5.2 2.5 7.1"/><circle cx="24.4" cy="24.1" r="6.9" class="st3"/></svg>