<svg xmlns="http://www.w3.org/2000/svg" version="1" viewBox="0 0 50 50"><path fill="#00C8E2" d="M10.753 19.165V33.3a5.946 5.946 0 0 0-3.832 10.493l9.686-3.525c.057-.332.094-.671.094-1.02h2.707l22.182-8.073a8.38 8.38 0 0 0-2.342-.338V16.702a5.948 5.948 0 1 0-5.947-5.947l-14.135-.001a8.411 8.411 0 1 0-8.413 8.411z"/><path fill="#00DFFC" d="M42.932 6.091a5.92 5.92 0 0 0-3.685-1.285 5.95 5.95 0 0 0-5.826 4.746l9.511-3.461zM8.152 18.75l21.969-7.996-10.957-.001a8.411 8.411 0 0 0-16.822 0c0 3.738 2.439 6.901 5.81 7.997z"/><path fill="#031326" d="M40.256 29.881V17.637c3.359-.49 5.947-3.39 5.947-6.884 0-1.858-.723-3.605-2.037-4.919s-3.061-2.037-4.919-2.038c-3.493 0-6.393 2.588-6.884 5.947H20.117c-.505-4.721-4.511-8.411-9.364-8.411-5.194 0-9.42 4.226-9.42 9.42a9.36 9.36 0 0 0 2.759 6.661 9.35 9.35 0 0 0 5.652 2.706v12.243c-3.36.49-5.948 3.39-5.948 6.883a6.965 6.965 0 0 0 6.957 6.957c3.493 0 6.393-2.588 6.884-5.947H29.88a9.35 9.35 0 0 0 2.706 5.652 9.352 9.352 0 0 0 6.659 2.759h.002a1.01 1.01 0 0 0 0-2.018h-.002a7.352 7.352 0 0 1-5.232-2.167 7.351 7.351 0 0 1-2.162-5.107c.099-1.11.405-2.19.923-3.157l.212-.397-7.122-7.12 2.846-2.846 7.13 7.125.396-.212a8.205 8.205 0 0 1 3.068-.918c4.055.031 7.344 3.337 7.344 7.398a1.01 1.01 0 0 0 2.018 0c.001-4.853-3.689-8.861-8.41-9.366zm-6.791-18.118c.02.057.031.106.054.166l-8.513 8.516-6.503-6.503a9.36 9.36 0 0 0 .711-2.179h14.251zM5.519 15.987a7.353 7.353 0 0 1-2.167-5.234c0-4.081 3.321-7.401 7.402-7.402 4.057 0 7.358 3.281 7.398 7.329a8.202 8.202 0 0 1-.92 3.093l-.212.396 7.13 7.131-2.842 2.843-7.131-7.132-.396.212a8.25 8.25 0 0 1-3.078.929 7.348 7.348 0 0 1-5.184-2.165zm14.933 9.012l-8.514 8.516c-.058-.018-.118-.024-.176-.041V19.215a9.467 9.467 0 0 0 2.186-.72l6.504 6.504zm11.051 11.05a9.364 9.364 0 0 0-.713 2.189H16.524c-.015-.052-.021-.108-.038-.16l8.522-8.522 6.495 6.493zm-16.428 1.727l.149.371c.242.602.364 1.265.364 1.968v.012c0 .021.01.038.012.058a4.945 4.945 0 0 1-4.846 4 4.944 4.944 0 0 1-4.938-4.938 4.945 4.945 0 0 1 4.011-4.848c.02.002.036.011.056.011.682 0 1.356.124 2.003.368l.366.138 22.686-22.695-.274-.69c-.226-.576-.246-.894-.246-1.657 0-.027-.012-.05-.015-.075a4.945 4.945 0 0 1 4.844-3.984 4.91 4.91 0 0 1 3.492 1.446 4.905 4.905 0 0 1 1.446 3.492 4.945 4.945 0 0 1-3.98 4.843c-.028-.004-.053-.017-.082-.017a5.283 5.283 0 0 1-1.969-.364l-.371-.149-22.708 22.71zm20.993-6.281l-6.502-6.498 8.519-8.519c.049.016.103.021.152.036v14.27a9.44 9.44 0 0 0-2.169.711z"/></svg>