<svg xmlns="http://www.w3.org/2000/svg" id="Camada_1" version="1.1" viewBox="0 0 300 300"><defs><style>.st1{fill:#cc0e0e}.st2{fill:#fff}.st3{fill:#07e570}.st6{isolation:isolate;opacity:.2}.st7{fill:#ef5555}.st8{fill:#04a550}</style></defs><path fill="#008dd3" d="M287.7 157.4c.1 20.7-4.3 40.4-12.1 58.2-22 49.7-71.6 84.3-129.5 84.5-15.4.1-30.2-2.4-44.1-6.8-26.1-8.3-48.9-24-65.9-44.7-17.7-21.4-29.4-48-32.1-77.3-.4-4.2-.6-8.5-.6-12.8-.2-48.2 23.7-91 60.4-116.8 4.8-3.4 9.8-6.5 15-9.2 7.3-3.9 15-7.2 23-9.8 7.5-2.4 15.4-4.2 23.4-5.4 6.5-.9 13-1.4 19.7-1.5 26.2 0 50.6 6.9 71.8 19.1 3.8 2.2 7.4 4.5 11 7.1 16.9 12 31.1 27.6 41.4 45.8 1.2 2.1 2.3 4.1 3.3 6.3.9 1.9 1.8 3.6 2.6 5.5 2.7 6.1 5 12.2 6.9 18.6 2.1 7.2 3.6 14.5 4.5 21.9.9 5.8 1.3 11.5 1.3 17.3z"/><path fill="#50afeb" d="M300.7 207.3l-96 39.5-.4-61.2 96.4-39.1v60.8z"/><path d="M300.7 146.5l-96.4 39.1v-61.1l96.4-39.1v61.1z" class="st3"/><path fill="#54c654" d="M300.7 85.4l-96.4 39.1L127.8 70l96.4-39.1 76.5 54.5z"/><path d="M129.5 132.2l74.8 53.4v-61.1L127.8 70l1.7 62.2zM187.8 72V59.7H150v13.5c0 5.5 8.5 10 19 10s19-4.5 19-10 0-.8-.1-1.2z" class="st8"/><ellipse cx="169" cy="60.2" class="st3" rx="19" ry="10"/><path d="M225.8 96.2V83.9H188v13.5c0 5.5 8.5 10 19 10s19-4.5 19-10 0-.8-.1-1.2z" class="st8"/><ellipse cx="207" cy="84.5" class="st3" rx="19" ry="10"/><path d="M237.4 52.2V39.9h-37.8v13.5c0 5.5 8.5 10 19 10s19-4.5 19-10 0-.8-.1-1.2z" class="st8"/><ellipse cx="218.5" cy="40.4" class="st3" rx="19" ry="10"/><path d="M275.4 78.1V65.8h-37.8v13.5c0 5.5 8.5 10 19 10s19-4.5 19-10 0-.8-.1-1.2z" class="st8"/><ellipse cx="256.5" cy="66.3" class="st3" rx="19" ry="10"/><path d="M204.7 246.8l-96.4 39.1v-61.1l96-39.2.4 61.2z" class="st7"/><path fill="#ef3030" d="M204.3 185.6l-96 39.2-76.5-54.5 96.4-39.1 76.1 54.4z"/><path d="M31.8 223.7l76.5 62.2v-61.1l-76.5-54.5v53.4zm60-51.4V160H54v13.5c0 5.5 8.5 10 19 10s19-4.5 19-10 0-.8-.1-1.2z" class="st1"/><ellipse cx="73" cy="160.6" class="st7" rx="19" ry="10"/><path d="M129.8 196.6v-12.3H92v13.5c0 5.5 8.5 10 19 10s19-4.5 19-10 0-.8-.1-1.2z" class="st1"/><ellipse cx="111" cy="184.8" class="st7" rx="19" ry="10"/><path d="M141.4 152.5v-12.3h-37.8v13.5c0 5.5 8.5 10 19 10s19-4.5 19-10 0-.8-.1-1.2z" class="st1"/><ellipse cx="122.5" cy="140.7" class="st7" rx="19" ry="10"/><path d="M179.4 178.4v-12.3h-37.8v13.5c0 5.5 8.5 10 19 10s19-4.5 19-10 0-.8-.1-1.2z" class="st1"/><ellipse cx="160.5" cy="166.6" class="st7" rx="19" ry="10"/><g class="st6"><path d="M107.5 139.1c5.7-7 16.3-8.2 24.2-4.5 2.2 1.1 4.2 2.5 5.9 4.2.2.2.2.5 0 .7-.1.1-.3.2-.5.1-2.6-.6-4.9-1.4-7.4-1.8-7.2-1.5-14.5-.5-21.5 2-.5.2-1-.4-.6-.8z" class="st2"/></g><g class="st6"><path d="M57.4 158.9c5.7-7 16.3-8.2 24.2-4.5 2.2 1.1 4.2 2.5 5.9 4.2.2.2.2.5 0 .7-.1.1-.3.2-.5.1-2.6-.6-4.9-1.4-7.4-1.8-7.2-1.5-14.5-.5-21.5 2-.5.2-1-.4-.6-.8z" class="st2"/></g><g class="st6"><path d="M95.6 183c5.7-7 16.3-8.2 24.2-4.5 2.2 1.1 4.2 2.5 5.9 4.2.2.2.2.5 0 .7-.1.1-.3.2-.5.1-2.6-.6-4.9-1.4-7.4-1.8-7.2-1.5-14.5-.5-21.5 2-.5.2-1-.4-.6-.8z" class="st2"/></g><g class="st6"><path d="M145.8 164.5c5.7-7 16.3-8.2 24.2-4.5 2.2 1.1 4.2 2.5 5.9 4.2.2.2.2.5 0 .7-.1.1-.3.2-.5.1-2.6-.6-4.9-1.4-7.4-1.8-7.2-1.5-14.5-.5-21.5 2-.5.2-1-.4-.6-.8z" class="st2"/></g><g class="st6"><path d="M203.6 38.8c5.7-7 16.3-8.2 24.2-4.5 2.2 1.1 4.2 2.5 5.9 4.2.2.2.2.5 0 .7-.1.1-.3.2-.5.1-2.6-.6-4.9-1.4-7.4-1.8-7.2-1.5-14.5-.5-21.5 2-.5.2-1-.4-.6-.8z" class="st2"/></g><g class="st6"><path d="M153.6 58.6c5.7-7 16.3-8.2 24.2-4.5 2.2 1.1 4.2 2.5 5.9 4.2.2.2.2.5 0 .7-.1.1-.3.2-.5.1-2.6-.6-4.9-1.4-7.4-1.8-7.2-1.5-14.5-.5-21.5 2-.5.2-1-.4-.6-.8z" class="st2"/></g><g class="st6"><path d="M191.7 82.8c5.7-7 16.3-8.2 24.2-4.5 2.2 1.1 4.2 2.5 5.9 4.2.2.2.2.5 0 .7-.1.1-.3.2-.5.1-2.6-.6-4.9-1.4-7.4-1.8-7.2-1.5-14.5-.5-21.5 2-.5.2-1-.4-.6-.8z" class="st2"/></g><g class="st6"><path d="M241.9 64.2c5.7-7 16.3-8.2 24.2-4.5 2.2 1.1 4.2 2.5 5.9 4.2.2.2.2.5 0 .7-.1.1-.3.2-.5.1-2.6-.6-4.9-1.4-7.4-1.8-7.2-1.5-14.5-.5-21.5 2-.5.2-1-.4-.6-.8z" class="st2"/></g><g class="st6"><path d="M197.2 200l2.7 40.3c.1 2.1-1.1 3.9-3 4.6l-75.6 29.6c-1.2.5-2.5-.1-3-1.3-.4-1.1 0-2.4 1.2-2.9l73.5-34.5-3 4.6 2.7-40.3c.2-2.8 4.4-2.9 4.6 0z" class="st2"/></g><g class="st6"><path d="M294.8 160.4l2.7 40.3c.1 2.1-1.1 3.9-3 4.6l-75.6 29.6c-1.2.5-2.5-.1-3-1.3-.4-1.1 0-2.4 1.2-2.9l73.5-34.5-3 4.6 2.7-40.3c.2-2.8 4.4-2.9 4.6 0z" class="st2"/></g><g class="st6"><path d="M294.8 100.2l2.7 40.3c.1 2.1-1.1 3.9-3 4.6l-75.6 29.6c-1.2.5-2.5-.1-3-1.3-.4-1.1 0-2.4 1.2-2.9l73.5-34.5-3 4.6 2.7-40.3c.2-2.8 4.4-2.9 4.6 0z" class="st2"/></g></svg>