<svg xmlns="http://www.w3.org/2000/svg" xmlns:xlink="http://www.w3.org/1999/xlink" id="Layer_1" viewBox="0 0 130 170"><style>.st2{fill:#fff}</style><path fill="#e3e4e3" d="M117.7 21.9l-109.2.2c-4.2 0-7.5 3.3-7.5 7.5l.2 114.7c0 4.2 3.3 7.5 7.5 7.5l109.2-.2c4.2 0 7.5-3.3 7.5-7.5l-.2-114.7c0-4.3-3.4-7.6-7.5-7.5z"/><path fill="#f7f7f6" d="M121.2 18.3L12 18.5c-4.2 0-7.5 3.3-7.5 7.5l.2 114.7c0 4.2 3.3 7.5 7.5 7.5l109.2-.2c4.2 0 7.5-3.3 7.5-7.5l-.2-114.7c0-4.1-3.3-7.5-7.5-7.5z"/><path d="M11.3 30.8l110.7-.2.3 111-110.8-.1z" class="st2"/><path fill="#8484bf" d="M73 50.8c6.4.2 10.9-4.4 16.6-4.4s17.9 22 17.9 24.3c0 8.3-8.7 6-12.8 14.1-2.6 5.1-7.7 7.7-9 7.7L69.1 70.7 73 50.8m-10.3 0c-6.4.2-10.9-4.4-16.6-4.4-5.8 0-17.9 22-17.9 24.3 0 8.3 8.7 6 12.8 14.1 2.6 5.1 7.7 7.7 9 7.7l16.6-21.8-3.9-19.9"/><path fill="#696995" d="M51.2 65.6s-1.3 15.4 9 20.5V65.6h-9zm33.3 0s1.3 15.4-9 20.5V65.6h9z"/><path d="M56.4 102.3c.3-2.1 1.3-6.1 5.1-11.1l-3.8-3.8c-.9 2-3.3 10.8-2.1 15 0 .5.7.4.8-.1z" class="st2"/><defs><path id="SVGID_1_" d="M28.2 46.4h79.4v79.3H28.2z"/></defs><clipPath id="SVGID_2_"><use overflow="visible" xlink:href="#SVGID_1_"/></clipPath><path fill="#fff" d="M78.2 87.3l-3.8 3.8c3.8 5 4.8 9 5.1 11.1.1.5.8.6.9.1 1.1-4.1-1.3-12.9-2.2-15z" clip-path="url(#SVGID_2_)"/><path fill="#9998cb" d="M85.8 64.3c0-2.6 1.3-14.1-17.9-14.1S50 61.7 50 64.3c0 2.6 6.4 2.6 7.7 5.8V79c0 1.4-1.3 8.3-1.3 8.3l5.2 5.2c.7 9.8 1.3 26.1 3.7 30.6 1.7 3 6 4.1 11.5-1.3 2.2-2.2 3.6-4.7 4.4-6.3.4-.7.1-1.7-.7-2-.7-.3-1.5-.1-1.9.5-1.5 2.1-4.9 6.6-5.7 5.3-.7-1.1.8-21.3 1.2-26.8l5.2-5.2S78 80.4 78 79v-8.9c1.4-3.2 7.8-3.2 7.8-5.8z" clip-path="url(#SVGID_2_)"/><path fill="#464655" d="M55.7 68.1c1.1 0 1.9.9 1.9 1.9 0 1.1-.9 1.9-1.9 1.9-1.1 0-1.9-.9-1.9-1.9 0-1 .8-1.9 1.9-1.9zm24.3 0c1.1 0 1.9.9 1.9 1.9 0 1.1-.9 1.9-1.9 1.9-1.1 0-1.9-.9-1.9-1.9 0-1 .9-1.9 1.9-1.9z"/></svg>