<svg xmlns="http://www.w3.org/2000/svg" xmlns:xlink="http://www.w3.org/1999/xlink" viewBox="0 0 300 300"><defs><linearGradient id="a" x1="24.59" x2="27.59" y1="217.67" y2="217.67" data-name="Gradiente sem nome 22" gradientUnits="userSpaceOnUse"><stop offset="0" stop-color="#3d6ce2"/><stop offset="1" stop-color="#50deff"/></linearGradient><linearGradient id="d" x1="-1007.96" x2="-984.25" y1="-7208.77" y2="-7208.77" data-name="Gradiente sem nome 22" gradientTransform="rotate(135 -2015.258 -3302.712)" xlink:href="#a"/><linearGradient id="e" x1="-1108.8" x2="-1085.09" y1="-7172.92" y2="-7172.92" data-name="Gradiente sem nome 22" gradientTransform="rotate(135 -2015.258 -3302.712)" xlink:href="#a"/><linearGradient id="f" x1=".54" x2="92.45" y1="182.49" y2="182.49" data-name="Gradiente sem nome 22" xlink:href="#a"/><linearGradient id="g" x1="-.71" x2="37.95" y1="101.51" y2="101.51" data-name="Gradiente sem nome 22" xlink:href="#a"/><linearGradient id="h" x1="-.71" x2="61.84" y1="83.28" y2="83.28" data-name="Gradiente sem nome 22" xlink:href="#a"/><linearGradient id="b" x1="175.92" x2="294.58" y1="194.23" y2="194.23" gradientUnits="userSpaceOnUse"><stop offset="0" stop-color="#ca3328"/><stop offset="1" stop-color="#9761ff"/></linearGradient><linearGradient id="i" x1="45.74" x2="164.41" xlink:href="#b"/><linearGradient id="c" x1="111.48" x2="171.99" y1="106.92" y2="106.92" gradientUnits="userSpaceOnUse"><stop offset="0" stop-color="#56a145"/><stop offset="1" stop-color="#3d6ce2"/></linearGradient><linearGradient id="j" x1="189.54" x2="193.54" y1="101.03" y2="101.03" xlink:href="#c"/><linearGradient id="k" x1="208.75" x2="230.2" y1="91" y2="91" xlink:href="#c"/><linearGradient id="l" x1="179.68" x2="230.54" y1="95.94" y2="95.94" xlink:href="#c"/></defs><path fill="#2a2828" d="M.54 57.46h212.32c13.73 0 24.88 11.15 24.88 24.88v164.09H21.82c-11.74 0-21.27-9.53-21.27-21.27V57.46z"/><path fill="none" stroke="url(#a)" stroke-miterlimit="10" stroke-width="3" d="M26.09 246.43v-57.52"/><circle cx="26.09" cy="179.94" r="10.36" fill="none" stroke="url(#d)" stroke-miterlimit="10" stroke-width="3"/><circle cx="72.05" cy="83.28" r="10.36" fill="none" stroke="url(#e)" stroke-miterlimit="10" stroke-width="3"/><path fill="none" stroke="url(#f)" stroke-miterlimit="10" stroke-width="3" d="M58.01 246.43v-36.32h32.94v-90.06H.54"/><path fill="none" stroke="url(#g)" stroke-miterlimit="10" stroke-width="3" d="M-.71 144.05h37.16V57.46"/><path fill="none" stroke="url(#h)" stroke-miterlimit="10" stroke-width="3" d="M-.71 83.28h62.55"/><path fill="url(#b)" d="M288.45 130.5c-17.79 0-15.31 44.45-64.66 45.87-1.33.04-2.44-1.16-2.44-2.68s1-2.62 2.26-2.67c4.46-.2 13.95-1.3 13.95-7.1 0-7.58-38.7-19.61-54.03 11.14-15.33 30.75-2.75 82.9-2.75 82.9h35.37v-45.91s16.98 2.75 39.69-10.03c25.54-14.37 50.69-71.53 32.62-71.53z"/><path fill="url(#i)" d="M102.77 163.93c0 5.8 9.49 6.9 13.95 7.1 1.27.06 2.26 1.24 2.26 2.67 0 1.51-1.11 2.72-2.44 2.68-49.34-1.42-46.87-45.87-64.66-45.87s7.07 57.16 32.62 71.53c22.71 12.78 39.69 10.03 39.69 10.03v45.91h35.37s12.57-52.15-2.75-82.9c-15.33-30.75-54.03-18.72-54.03-11.14z"/><path fill="url(#c)" d="M171.99 137.63c-59.83 5.35-60.5-61.5-60.5-61.5s34.61-4.38 57.75 25.05"/><path fill="none" stroke="#54a044" stroke-miterlimit="10" d="M130.2 91l43.23 44.96"/><path fill="#56a145" d="M171.99 137.63s-24.74-88.25 74.21-95.6c0 0 22.06 95.93-74.21 95.6z"/><path fill="none" stroke="url(#j)" stroke-miterlimit="10" d="M193.04 87.16l-3 27.75"/><path fill="none" stroke="url(#k)" stroke-miterlimit="10" d="M230.15 89.83l-21.35 2.34"/><path fill="none" stroke="url(#l)" stroke-miterlimit="10" d="M230.15 64.43l-50.08 63.02"/><path fill="#fff" d="M181.92 202.6c-2.19-12.07 3.69-24.48 12.24-32.76 3.84-3.64 8.33-6.59 13.24-8.54 1.78-.72 3.81.14 4.52 1.93.49 1.21.25 2.53-.52 3.48-3.69 4.3-7.77 8.06-11.2 12.52-5.48 6.63-9.51 14.47-11.48 22.84l-1.29 1.78c-1.51 2.19-5.11 1.35-5.52-1.25z" opacity=".39"/></svg>