<svg xmlns="http://www.w3.org/2000/svg" version="1" viewBox="0 0 50 50"><path fill="#A6C1C2" d="M5.658 43.3c.115.831.826 1.45 1.665 1.45h9.342l28.673-10.436 2.416-17.424-1.093-3.854a1.682 1.682 0 0 0-1.618-1.223h-.236V6.925c0-.925-.75-1.675-1.676-1.675H6.742c-.926 0-1.676.75-1.676 1.675v9.964h-1.14a1.682 1.682 0 0 0-1.666 1.913L5.658 43.3z"/><path fill="#B9D7D9" d="M29.662 5.25H6.483c-.925 0-1.675.75-1.675 1.675v7.371L29.662 5.25z"/><path fill="#031326" d="M18.703 34.398c0 1.91-.861 2.155-1.609 2.155-.395 0-.875-.07-1.424-.206l-.556-.14V39.2l.289.108c.511.194 1.144.292 1.88.292 1.56 0 2.773-.469 3.602-1.392.819-.91 1.233-2.22 1.233-3.894V22.93h-3.415v11.468zm15.773-1.621c-.275-.572-.707-1.088-1.284-1.536-.562-.434-1.406-.882-2.58-1.371-.971-.399-1.644-.722-2.005-.957-.325-.213-.556-.434-.689-.658-.126-.212-.189-.479-.189-.794 0-.446.154-.792.471-1.058.334-.282.859-.425 1.559-.425 1.006 0 2.176.278 3.479.826l.423.178 1.12-2.874-.39-.173c-1.506-.666-3.044-1.004-4.569-1.004-1.63 0-2.958.404-3.945 1.202-1.016.82-1.531 1.954-1.531 3.371 0 1.12.322 2.096.957 2.902.628.796 1.657 1.476 3.143 2.08 1.622.651 2.283 1.083 2.552 1.329.339.313.506.684.506 1.13 0 .499-.177.882-.541 1.172-.67.535-2.23.624-4.013.198a11.09 11.09 0 0 1-2.145-.747l-.638-.299v3.357l.252.122c1.162.567 2.661.854 4.457.854 1.83 0 3.297-.425 4.359-1.261 1.097-.862 1.651-2.061 1.651-3.563.001-.759-.137-1.431-.41-2.001z"/><path fill="#031326" d="M34.887 45.931H7.324a2.874 2.874 0 0 1-2.835-2.47L1.091 18.964a2.86 2.86 0 0 1 2.794-3.255V6.925a2.86 2.86 0 0 1 2.856-2.856h36.39a2.86 2.86 0 0 1 2.856 2.856v3.868a2.874 2.874 0 0 1 1.81 1.92l1.161 4.092-2.45 17.67a1.186 1.186 0 0 1-1.332 1.008 1.182 1.182 0 0 1-1.008-1.332l2.382-17.179-1.024-3.615a.504.504 0 0 0-.482-.364h-1.417V6.925a.496.496 0 0 0-.495-.494H6.742a.495.495 0 0 0-.494.494V18.07H3.927a.494.494 0 0 0-.378.172.492.492 0 0 0-.118.398l3.397 24.497a.504.504 0 0 0 .496.433h27.563a1.18 1.18 0 1 1 0 2.361z"/><path fill="#031326" d="M25.232 18.253H3.927a.472.472 0 1 1 0-.944h20.592l.996-3.511a2.162 2.162 0 0 1 2.073-1.566h17.457a.472.472 0 1 1 0 .944H27.587c-.538 0-1.017.362-1.164.879l-1.191 4.198z"/><g fill="#031326"><path d="M17.093 36.553c-.395 0-.875-.07-1.424-.206l-.556-.14V39.2l.289.108c.511.194 1.144.292 1.88.292 1.56 0 2.773-.469 3.602-1.392.819-.91 1.233-2.22 1.233-3.894V22.93h-3.415v11.468c.001 1.911-.86 2.155-1.609 2.155zm13.87-.437c-.67.535-2.23.625-4.013.198a11.09 11.09 0 0 1-2.145-.747l-.638-.299v3.357l.252.122c1.161.567 2.661.854 4.457.854 1.83 0 3.297-.425 4.359-1.261 1.097-.862 1.651-2.061 1.651-3.563 0-.757-.138-1.429-.411-1.999-.275-.572-.707-1.088-1.284-1.536-.562-.434-1.406-.882-2.58-1.371-.971-.399-1.644-.722-2.005-.957-.325-.213-.556-.434-.689-.658-.126-.212-.189-.479-.189-.794 0-.446.154-.792.471-1.058.334-.282.859-.425 1.559-.425 1.006 0 2.176.278 3.479.826l.423.178 1.12-2.874-.39-.173c-1.506-.667-3.044-1.004-4.569-1.004-1.63 0-2.958.404-3.945 1.202-1.016.82-1.531 1.954-1.531 3.371 0 1.12.322 2.096.957 2.902.628.796 1.657 1.476 3.143 2.08 1.622.651 2.283 1.083 2.552 1.329.339.313.506.684.506 1.13.001.497-.176.88-.54 1.17z"/><path d="M47.865 12.694a2.947 2.947 0 0 0-1.808-1.95V6.925A2.927 2.927 0 0 0 43.132 4H6.742a2.929 2.929 0 0 0-2.926 2.925v8.716a2.934 2.934 0 0 0-2.794 3.333L4.42 43.471A2.944 2.944 0 0 0 7.324 46h27.563a1.25 1.25 0 0 0 0-2.5H7.324a.433.433 0 0 1-.427-.373L3.499 18.631a.428.428 0 0 1 .102-.343.444.444 0 0 1 .289-.139c.013.001.023.007.036.007h21.232l1.17-4.127c.159-.559.676-.95 1.258-.95h17.457c.011 0 .02-.005.031-.006.178.014.336.13.385.304l1.021 3.602-2.38 17.164a1.25 1.25 0 0 0 2.476.344l2.452-17.685-1.163-4.108zm-22.257 1.13l-1.016 3.582H6.316V6.925c0-.234.191-.425.425-.425h36.39c.234 0 .426.191.426.425v5.403h-15.97a2.065 2.065 0 0 0-1.979 1.496z"/></g></svg>