<svg version="1" xmlns="http://www.w3.org/2000/svg" viewBox="0 0 50 50"><path fill="#AFE55D" d="M19.51 13.464h10.98c.447 0 .808-.36.808-.807V1.675a.807.807 0 0 0-.807-.807H19.51a.807.807 0 0 0-.808.807v10.982c0 .446.36.807.807.807zm17.833 17.834h10.982c.446 0 .807-.36.807-.807V19.51a.807.807 0 0 0-.807-.808H37.343a.807.807 0 0 0-.807.807v10.98c0 .447.36.808.807.808zm-35.668 0h10.983c.446 0 .807-.36.807-.807V19.51a.807.807 0 0 0-.807-.808H1.675a.807.807 0 0 0-.807.807v10.98c0 .447.36.808.807.808zm29.623 10.649v-4.33a1.08 1.08 0 0 0-1.08-1.08H19.782a1.08 1.08 0 0 0-1.08 1.08v8.914l12.595-4.583z"/><path fill="#C3FF68" d="M19.51 13.464h10.98c.447 0 .808-.36.808-.807V1.675a.807.807 0 0 0-.807-.807H19.51a.807.807 0 0 0-.808.807v10.982c0 .446.36.807.807.807zM13.464 21.9v-2.392a.807.807 0 0 0-.807-.807H1.675a.807.807 0 0 0-.807.808v6.976L13.464 21.9z"/><path d="M48.326 17.655h-4.652V9.547a3.218 3.218 0 0 0-3.215-3.215h-4.02l.992-.992a.837.837 0 0 0-1.184-1.184L34.213 6.19c-.268.27-.402.62-.404.97 0 .004-.003.006-.003.01l.002.008c0 .35.135.702.402.97l2.035 2.034a.834.834 0 0 0 1.184 0 .837.837 0 0 0 0-1.184l-.99-.992h4.018c.85 0 1.54.69 1.54 1.54v8.108h-4.655a1.856 1.856 0 0 0-1.854 1.854V30.49c0 1.022.83 1.854 1.853 1.854h10.982a1.856 1.856 0 0 0 1.854-1.854V19.51a1.857 1.857 0 0 0-1.854-1.855zm-.24 12.597H37.583V19.748h10.503v10.504zm-4.271 3.963a1.364 1.364 0 0 0-.85-.38c-.044-.008-.084-.027-.13-.027-.044 0-.083.02-.127.026-.315.027-.62.15-.85.38l-2.035 2.035a.837.837 0 0 0 1.184 1.183l.992-.99v4.018c0 .85-.692 1.542-1.54 1.542h-8.114v-4.384a2.13 2.13 0 0 0-2.128-2.127H19.783a2.13 2.13 0 0 0-2.128 2.128v10.435a2.13 2.13 0 0 0 2.128 2.128h10.435a1.047 1.047 0 0 0 0-2.093l-10.47-.034.035-10.468 10.47.034v4.465c0 .245.096.46.237.638-.006.04-.024.076-.024.118 0 .464.375.838.837.838h9.155a3.22 3.22 0 0 0 3.215-3.216v-4.02l.992.992a.834.834 0 0 0 1.184 0 .837.837 0 0 0 0-1.184l-2.035-2.035zM6.188 15.794c.26.262.61.406.98.406.368 0 .716-.144.977-.405l2.035-2.035a.837.837 0 0 0-1.184-1.184l-.992.992v-4.02c0-.85.69-1.54 1.54-1.54h8.11v4.65c0 1.02.832 1.853 1.854 1.853H30.49a1.856 1.856 0 0 0 1.854-1.853V1.674A1.856 1.856 0 0 0 30.49-.18H19.51a1.856 1.856 0 0 0-1.855 1.854v4.658h-8.11A3.218 3.218 0 0 0 6.33 9.547v4.02l-.992-.993a.837.837 0 0 0-1.184 1.184l2.034 2.036zm13.56-13.88H30.25v10.503h-10.5V1.914zm-5.992 37.9a.837.837 0 0 0-1.184 1.184l.992.992h-4.02c-.848 0-1.54-.69-1.54-1.54v-8.105h4.653a1.856 1.856 0 0 0 1.854-1.854V19.51a1.856 1.856 0 0 0-1.853-1.855H1.674A1.856 1.856 0 0 0-.18 19.51v10.98c0 1.023.832 1.855 1.854 1.855H6.33v8.104a3.22 3.22 0 0 0 3.215 3.215h4.02l-.993.99a.837.837 0 0 0 1.184 1.185l2.036-2.035c.26-.26.404-.608.404-.977 0-.37-.144-.718-.405-.978l-2.034-2.036zM1.914 19.748h10.503V30.25H1.914v-10.5z" fill="#444"/></svg>