<svg xmlns="http://www.w3.org/2000/svg" version="1" viewBox="0 0 50 50"><path fill="#FFDB92" d="M44.372 28.28V7.888a2.163 2.163 0 0 0-2.163-2.163h-2.74V1.95a.81.81 0 0 0-.81-.81H11.34a.81.81 0 0 0-.81.81v3.775H7.79c-1.194 0-2.162.97-2.162 2.163v34.496L44.372 28.28z"/><path fill="#FDCF72" d="M39.574 5.725h-.104V1.95a.81.81 0 0 0-.81-.81H11.34a.81.81 0 0 0-.81.81v3.775H7.79c-1.194 0-2.162.97-2.162 2.163V18.08L39.574 5.725z"/><g fill="#444"><path d="M42.21 4.597h-1.612V1.95A1.94 1.94 0 0 0 38.66.012H11.34A1.94 1.94 0 0 0 9.4 1.95v2.647H7.79a3.294 3.294 0 0 0-3.29 3.29v38.81a3.294 3.294 0 0 0 3.29 3.29h23a1.128 1.128 0 0 0 0-2.255h-23c-.57 0-1.034-.464-1.034-1.035V7.887c0-.57.464-1.035 1.035-1.035H42.21c.57 0 1.035.464 1.035 1.035v20.607a1.128 1.128 0 0 0 2.256 0V7.887a3.296 3.296 0 0 0-3.29-3.29zm-30.553 0V2.27h26.685v2.327H11.657z"/><path d="M25 12.34c-2.262 0-4.428.45-6.455 1.34a3.538 3.538 0 0 0-3.096-1.816 3.54 3.54 0 0 0-3.543 3.53c0 .92.352 1.783.96 2.43A16.058 16.058 0 0 0 8.84 28.498c0 8.904 7.25 16.148 16.16 16.148a16.06 16.06 0 0 0 11.426-4.732.902.902 0 1 0-1.277-1.276A14.268 14.268 0 0 1 25 42.843c-7.918 0-14.357-6.434-14.357-14.344 0-3.824 1.49-7.426 4.194-10.142l.857-.86-1.07-.572a1.73 1.73 0 0 1 .824-3.257c.84 0 1.557.593 1.705 1.41l.217 1.202 1.085-.56a14.116 14.116 0 0 1 6.543-1.578c7.915 0 14.355 6.44 14.355 14.355a.902.902 0 0 0 1.804 0C41.16 19.587 33.91 12.34 25 12.34z"/><path d="M25 18.113a.902.902 0 0 0-.902.902v6.522c-1.27.39-2.204 1.56-2.204 2.957A3.11 3.11 0 0 0 25 31.6c.53 0 1.02-.144 1.455-.377l2.42 2.42a.9.9 0 0 0 1.276 0 .9.9 0 0 0 0-1.276l-2.42-2.42c.234-.435.378-.925.378-1.452a3.1 3.1 0 0 0-2.205-2.957v-6.522c0-.5-.405-.903-.903-.903zm1.302 10.382c0 .718-.584 1.302-1.302 1.302-.718 0-1.302-.584-1.302-1.302s.584-1.302 1.302-1.302c.718 0 1.302.584 1.302 1.302z"/></g></svg>