<svg id="Layer_1" xmlns="http://www.w3.org/2000/svg" viewBox="0 0 130 170"><style>.st0{fill:#e2d559}.st1{fill:#9ac3ea}.st2{fill:#e9a520}.st3{fill:#ebcd53}.st4{fill:#ece268}.st5{fill:#3d7cbf}.st6{fill:#a8cdee}.st7{fill:#e0b940}.st8{fill:#3a387b}.st9{fill:#2d6894}.st10{fill:#5d94cf}.st11{fill:#fafafa}.st12{fill:#d6d7d7}.st13{fill:#8fb5d9}.st14{fill:#3774b3}.st15{fill:#6e75b6}.st16{fill:#74a3d7}.st17{fill:#6d97c7}.st18{fill:#1c3e7b}.st19{opacity:.5;fill:#c2e0f7}.st20{fill:#fff}</style><path class="st0" d="M18.4 24.3L33.9 6.5l1.2 1.4-15.5 17.8z"/><path class="st0" d="M32.8 7.9l1.1-1.3 15.6 17.7-1.2 1.4z"/><path class="st1" d="M7.5 108.6h1.7v45.9H7.5z"/><path class="st2" d="M34.8 149.4h1.7V167h-1.7zM19.5 149.4h1.7V167h-1.7z"/><path class="st3" d="M19.7 150.1l1.2-1.4 15.3 17.6-1.1 1.4z"/><path class="st3" d="M19.7 166.3l15.4-17.6 1.1 1.4-15.3 17.5z"/><path class="st2" d="M36.5 149.4h-1.7v-16.6H21.2v16.6h-1.7v-18.5h17z"/><path class="st3" d="M19.7 132.5l1.2-1.3 15.3 17.5-1.1 1.4z"/><path class="st3" d="M19.7 148.7l15.4-17.6 1.2 1.4-15.4 17.6z"/><path class="st3" d="M36.5 132.8h-17v-18.5h1.7v16.6h13.6v-16.6h1.7z"/><path class="st3" d="M19.7 114.9l1.2-1.3 15.3 17.6-1.1 1.3z"/><path class="st3" d="M19.7 131.1l15.4-17.5 1.1 1.3-15.3 17.6z"/><path class="st3" d="M36.5 114.3h-1.7V97.6H21.2v16.7h-1.7V95.7h17z"/><path class="st3" d="M19.7 97.3l1.2-1.3 15.3 17.6-1.1 1.3z"/><path class="st3" d="M19.7 113.5L35.1 96l1.1 1.3-15.3 17.6z"/><path class="st3" d="M36.5 97.6h-17V79.1h1.7v16.6h13.6V79.1h1.7z"/><path class="st3" d="M19.7 79.8l1.2-1.4L36.2 96 35 97.3z"/><path class="st3" d="M19.7 96l15.4-17.6 1.1 1.4-15.3 17.5z"/><path class="st3" d="M36.5 79.1h-1.7V62.5H21.2v16.6h-1.7V60.5h17z"/><path class="st3" d="M19.7 62.2l1.2-1.3 15.3 17.5-1.1 1.4z"/><path class="st3" d="M19.7 78.4l15.4-17.6 1.1 1.4-15.3 17.5z"/><path class="st4" d="M36.5 62.5h-17V43h17v19.5zm-15.3-2h13.7V44.9H21.2v15.6z"/><path class="st2" d="M19.7 44.6l1.2-1.3 15.3 17.5-1.1 1.4z"/><path class="st2" d="M19.7 60.8l15.4-17.5 1.2 1.3-15.4 17.6z"/><path class="st2" d="M36.5 44.9h-17V26.4h1.7V43h13.6V26.4h1.7z"/><path class="st3" d="M19.7 27l1.2-1.3 15.3 17.6-1.1 1.3z"/><path class="st3" d="M19.7 43.2l15.4-17.5 1.1 1.3-15.3 17.6z"/><path class="st5" d="M.9 160.5h19.4v6.5H.9z"/><path class="st6" d="M3.3 154h17v6.5h-17z"/><path class="st5" d="M.9 147.6h19.4v6.5H.9z"/><path class="st6" d="M3.3 141.1h17v6.5h-17z"/><path class="st1" d="M7.5 26.4h1.7v39.7H7.5zM4.2 68.3h1.7v38.2H4.2z"/><path class="st3" d="M18.7 26.3h2.6v140.6h-2.6zM34.8 26.3h2.6v140.6h-2.6z"/><path class="st7" d="M38.4 150.1l1.2-1.3L55 166.3l-1.2 1.4z"/><path class="st7" d="M38.4 166.3l15.4-17.6 1.2 1.4-15.4 17.5zM55.2 132.8h-17v-18.5h1.7v16.6h13.6v-16.6h1.7z"/><path class="st7" d="M38.4 114.9l1.2-1.3L55 131.2l-1.2 1.3z"/><path class="st7" d="M38.5 131.1l15.3-17.5 1.2 1.3-15.4 17.6z"/><path class="st7" d="M38.4 97.4l1.2-1.4 15.3 17.6-1.1 1.3z"/><path class="st7" d="M38.4 113.6L53.8 96l1.1 1.3-15.3 17.6z"/><path class="st7" d="M55.2 97.6h-17V79.1h1.7v16.6h13.6V79.1h1.7z"/><path class="st7" d="M38.4 79.8l1.2-1.4L54.9 96l-1.1 1.3z"/><path class="st7" d="M38.5 96l15.3-17.6 1.2 1.4-15.4 17.5z"/><path class="st7" d="M38.4 62.2l1.2-1.3L55 78.4l-1.2 1.4z"/><path class="st7" d="M38.4 78.4l15.4-17.6 1.2 1.4-15.4 17.5z"/><path class="st7" d="M55.2 62.5h-17V43.9h1.7v16.6h13.6V43.9h1.7z"/><path class="st7" d="M38.4 44.6l1.2-1.3 15.3 17.5-1.1 1.4z"/><path class="st7" d="M38.5 60.8l15.3-17.5 1.2 1.3-15.4 17.6z"/><path class="st7" d="M38.4 27.1l1.2-1.4L55 43.3l-1.2 1.3z"/><path class="st7" d="M38.4 43.3l15.4-17.6L55 27 39.6 44.6z"/><path class="st7" d="M37.4 26.3H40v140.6h-2.6zM53.4 26.3H56v140.6h-2.6z"/><g><path class="st1" d="M8.5 25.6L7.6 24 33 3.2l.9 1.6z"/></g><g><path class="st5" d="M10.8 72.4c1.6 0 3-1.5 3-3.4s-1.3-3.4-3-3.4H6.2v6.8h4.6z"/><ellipse class="st1" cx="5.8" cy="69" rx="3" ry="3.4"/><path class="st8" d="M4.6 69c0 .8.5 1.3 1.2 1.3S7 69.7 7 69c0-.8-.5-1.3-1.2-1.3s-1.2.6-1.2 1.3z"/></g><g><path class="st5" d="M10.8 102.3c1.6 0 3 1.5 3 3.4s-1.3 3.4-3 3.4H6.2v-6.8h4.6z"/><ellipse class="st1" cx="5.8" cy="105.7" rx="3" ry="3.4"/><path class="st8" d="M4.6 105.7c0-.8.5-1.3 1.2-1.3s1.2.6 1.2 1.3c0 .8-.5 1.3-1.2 1.3s-1.2-.6-1.2-1.3z"/></g><g><path class="st9" d="M11.2 107.4c-.4 0-.8-.4-.8-1V68.2c0-.5.4-1 .8-1s.8.4.8 1v38.2c.1.6-.3 1-.8 1z"/></g><g><path class="st5" d="M36.5 9c1.6 0 3-1.5 3-3.4s-1.3-3.4-3-3.4h-4.6V9h4.6z"/><ellipse class="st1" cx="31.5" cy="5.7" rx="3" ry="3.4"/><ellipse class="st8" cx="31.5" cy="5.7" rx="1.2" ry="1.3"/></g><g><path class="st9" d="M43.3 15.4c-.2 0-.4-.1-.6-.3l-6.8-7.8c-.3-.4-.3-1 0-1.3s.9-.4 1.2 0l6.8 7.8c.3.4.3 1 0 1.3-.1.2-.4.3-.6.3z"/></g><g><path class="st3" d="M51.7 22.5L44 13.7c-.4-.4-1-.4-1.3 0L35 22.5c-.3.3-.3.8-.2 1.2.1.4.5.7.9.7H51c.4 0 .7-.3.9-.7.1-.5.1-.9-.2-1.2zm-13.8-.4l5.4-6.2 5.4 6.2H37.9z"/><path class="st3" d="M66.3 24.3H51c-.4 0-.7-.3-.9-.7-.1-.4-.1-.9.2-1.2l7.7-8.8c.4-.4 1-.4 1.3 0l7.7 8.8c.3.3.3.8.2 1.2-.1.4-.5.7-.9.7zm-13-2.2h10.8L58.7 16l-5.4 6.1z"/><path class="st3" d="M81.7 24.3H66.3c-.4 0-.7-.3-.9-.7-.1-.4-.1-.9.2-1.2l7.7-8.8c.2-.2.4-.3.7-.3.2 0 .5.1.7.3l7.7 8.8c.3.3.3.8.2 1.2s-.5.7-.9.7zm-13.1-2.2h10.8L74 16l-5.4 6.1z"/><path class="st3" d="M97.1 24.3H81.7c-.4 0-.7-.3-.9-.7-.1-.4-.1-.9.2-1.2l7.7-8.8c.2-.2.4-.3.7-.3.2 0 .5.1.7.3l7.7 8.8c.3.3.3.8.2 1.2-.2.4-.6.7-.9.7zM84 22.1h10.8L89.4 16 84 22.1z"/><path class="st3" d="M112.4 24.3H97c-.4 0-.7-.3-.9-.7-.1-.4-.1-.9.2-1.2l7.7-8.8c.2-.2.4-.3.7-.3.2 0 .5.1.7.3l7.7 8.8c.3.3.3.8.2 1.2-.2.4-.5.7-.9.7zm-13.1-2.2h10.8l-5.4-6.2-5.4 6.2z"/><path class="st3" d="M43.3 13.3h61.4v2.1H43.3z"/><path class="st7" d="M128.4 22.5l-6.1-6.9-1.6-1.9h-.1c-.1-.1-.2-.1-.3-.2h-.1-17.7l1.6 1.8 7.7 8.8c.2.2.4.3.7.3h15.4c.4 0 .7-.3.9-.7-.1-.5-.1-.9-.4-1.2zm-8.6-1.1l-10.9-5.9h10.3l.6 5.9zm-10.6-3.3l7.4 4h-3.9l-3.5-4zm12.5 4l-.4-4.8 4.2 4.8h-3.8z"/></g><g><path class="st5" d="M28 29h9v32.5h-9z"/><path class="st1" d="M15.8 29H28v32.5H15.8z"/><path class="st10" d="M17.5 30.9h8.9v14.3h-8.9z"/><path class="st11" d="M18 31.5h8.3v13.6H18z"/><path class="st12" d="M29.4 30.9h6.3v14.3h-6.3z"/><path class="st13" d="M15.8 58.8H28v2.7H15.8z"/><path class="st14" d="M28 58.8h9v2.7h-9z"/></g><path class="st7" d="M109.9 22.1h18.7v4.2h-18.7z"/><path class="st3" d="M109.9 22.1H7.7c-1 0-1.8 1-1.8 2.1s.8 2.1 1.8 2.1H110v-4.2z"/><path class="st5" d="M16.3 141.1h2.5V167h-2.5z"/><g><path class="st7" d="M55.2 149.4h-1.7v-16.6H39.9v16.6h-1.7v-18.5h17z"/><path class="st7" d="M38.4 132.5l1.2-1.3 15.3 17.5-1.1 1.4z"/><path class="st7" d="M38.5 148.7l15.3-17.5 1.2 1.3-15.4 17.6z"/></g><g><path class="st15" d="M104.7 26.2h.7v12.4h-.7zM100.9 26.2h.7v12.4h-.7zM108.6 26.2h.7v12.4h-.7z"/><path class="st5" d="M112.9 39.7l-4.6 8.2h-3.2v-8.2z"/><path class="st14" d="M105.1 36.7h7.8v3h-7.8z"/><path class="st16" d="M97.3 39.7l4.7 8.2h3.1v-8.2z"/><path class="st17" d="M97.3 36.7h7.8v3h-7.8z"/><path class="st7" d="M104.3 47.9h1.6v1.9h-1.6z"/><path class="st7" d="M108.7 53.3c0 .5-.1.9-.3 1.3-.5 1.3-1.8 2.2-3.3 2.2-2 0-3.6-1.6-3.6-3.6 0-.5.1-1 .3-1.4l2.1 2.1c.3.3.7.4 1.1.4.4 0 .8-.1 1.1-.4.6-.6.6-1.6 0-2.2l-1.9-1.9c.3-.1.6-.1.8-.1.3 0 .7 0 1 .1 1.6.5 2.7 1.8 2.7 3.5z"/></g><g><path class="st18" d="M105.1 54.4h.4v11.2h-.4z"/><path transform="rotate(-63.685 101.655 60.48)" class="st18" d="M94.8 60.3h13.8v.4H94.8z"/><path transform="rotate(-26.311 108.365 59.419)" class="st18" d="M108.2 53.7h.4v11.4h-.4z"/><path class="st19" d="M71.7 68.7l45.3-8.6c2.4-.5 4.7 1.1 5.1 3.5l2.1 11c.5 2.4-1.1 4.7-3.5 5.1l-45.3 8.6c-2.4.5-4.7-1.1-5.1-3.5l-2.1-11c-.4-2.4 1.1-4.7 3.5-5.1z"/><path class="st16" d="M70.2 67.5l45.3-8.6c2.4-.5 4.7 1.1 5.1 3.5l2.1 11c.5 2.4-1.1 4.7-3.5 5.1l-45.3 8.6c-2.4.5-4.7-1.1-5.1-3.5l-2.1-11c-.4-2.4 1.2-4.6 3.5-5.1z"/><path class="st20" d="M120.5 72.8c-.3-1.4-1.5-2.4-2.9-2.4-.2 0-.4 0-.6.1l-32.9 6.2c-.8.2-1.5.6-1.9 1.2-.5.7-.6 1.5-.5 2.3.3 1.4 1.5 2.4 2.9 2.4.2 0 .4 0 .6-.1l32.9-6.2c1.7-.3 2.7-1.9 2.4-3.5zm-2.5 2.8l-32.9 6.2c-.1 0-.3.1-.4.1-1.1 0-2-.8-2.2-1.9-.2-1.2.6-2.4 1.8-2.6l32.9-6.2c.1 0 .3-.1.4-.1 1.1 0 2 .8 2.2 1.9.2 1.2-.6 2.3-1.8 2.6zM118.8 63.8c-.3-1.4-1.5-2.4-2.9-2.4-.2 0-.4 0-.6.1l-32.9 6.2c-.8.2-1.5.6-1.9 1.2-.5.7-.6 1.5-.5 2.3.3 1.4 1.5 2.4 2.9 2.4.2 0 .4 0 .6-.1l32.9-6.2c.8-.2 1.5-.6 1.9-1.2.5-.7.7-1.6.5-2.3zm-2.5 2.8l-32.9 6.2c-.1 0-.3.1-.4.1-1.1 0-2-.8-2.2-1.9-.2-1.2.6-2.4 1.8-2.6l32.9-6.2c.1 0 .3-.1.4-.1 1.1 0 2 .8 2.2 1.9.2 1.1-.6 2.3-1.8 2.6zM73.8 69.1l-2.3.4c-1.7.3-2.8 2-2.5 3.7.3 1.7 2 2.8 3.7 2.5l2.3-.4c1.7-.3 2.8-2 2.5-3.7s-2-2.8-3.7-2.5zM75.5 78.2l-2.3.4c-1.7.3-2.8 2-2.5 3.7s2 2.8 3.7 2.5l2.3-.4c1.7-.3 2.8-2 2.5-3.7-.3-1.8-2-2.9-3.7-2.5z"/><path class="st20" d="M88.1 69.6c-.1-.7-.8-1.2-1.6-1.1-.7.1-1.2.8-1.1 1.6.1.7.8 1.2 1.6 1.1.8-.2 1.3-.9 1.1-1.6zM93.3 68.6c-.1-.7-.8-1.2-1.6-1.1-.7.1-1.2.8-1.1 1.6.1.7.8 1.2 1.6 1.1.7-.1 1.2-.8 1.1-1.6zM98.4 67.6c-.1-.7-.8-1.2-1.6-1.1-.7.1-1.2.8-1.1 1.6.1.7.8 1.2 1.6 1.1.7-.1 1.2-.8 1.1-1.6z"/><ellipse class="st20" cx="102.2" cy="66.9" rx="1.4" ry="1.4"/><path class="st20" d="M108.6 65.7c-.1-.7-.8-1.2-1.6-1.1-.7.1-1.2.8-1.1 1.6.1.7.8 1.2 1.6 1.1.8-.1 1.3-.8 1.1-1.6zM113.7 64.7c-.1-.7-.8-1.2-1.6-1.1-.7.1-1.2.8-1.1 1.6.1.7.8 1.2 1.6 1.1.8-.1 1.3-.8 1.1-1.6z"/><g><path class="st20" d="M89.8 78.6c-.1-.7-.8-1.2-1.6-1.1-.7.1-1.2.8-1.1 1.6.1.7.8 1.2 1.6 1.1.8-.1 1.3-.9 1.1-1.6zM94.9 77.6c-.1-.7-.8-1.2-1.6-1.1-.7.1-1.2.8-1.1 1.6.1.7.8 1.2 1.6 1.1.8-.1 1.3-.8 1.1-1.6zM100.1 76.7c-.1-.7-.8-1.2-1.6-1.1-.7.1-1.2.8-1.1 1.6.1.7.8 1.2 1.6 1.1.7-.2 1.2-.9 1.1-1.6zM105.2 75.7c-.1-.7-.8-1.2-1.6-1.1-.7.1-1.2.8-1.1 1.6.1.7.8 1.2 1.6 1.1.8-.2 1.3-.9 1.1-1.6z"/><ellipse class="st20" cx="109" cy="75" rx="1.4" ry="1.4"/><ellipse class="st20" cx="114.1" cy="74" rx="1.4" ry="1.4"/></g></g></svg>