<svg xmlns="http://www.w3.org/2000/svg" version="1" viewBox="0 0 50 50"><path fill="#FE4365" d="M38.385 23.005V11.367a2.438 2.438 0 0 0-2.437-2.437h-6.61V3.555c0-1.84-1.96-3.015-3.583-2.15L12.908 8.24a2.438 2.438 0 0 0-1.293 2.153V32.75l26.77-9.745z"/><path fill="#FF6C8F" d="M29.337 8.922V3.555c0-1.84-1.958-3.015-3.582-2.15L12.908 8.24a2.438 2.438 0 0 0-1.293 2.153v4.98l17.722-6.45z"/><g fill="#444"><path d="M39.5 11.367a3.555 3.555 0 0 0-3.553-3.552H30.45v-4.26A3.523 3.523 0 0 0 28.727.511 3.523 3.523 0 0 0 25.23.42L12.384 7.26a3.547 3.547 0 0 0-1.883 3.135v31.192a3.555 3.555 0 0 0 3.553 3.55h5.122v1.308c0 1.146.53 2.19 1.455 2.867a3.516 3.516 0 0 0 3.172.518l13.22-4.204a3.537 3.537 0 0 0 2.477-3.384V39.43a1.114 1.114 0 0 0-2.23 0v2.812c0 .578-.37 1.085-.92 1.26l-13.222 4.204c-.406.13-.838.06-1.18-.192a1.313 1.313 0 0 1-.543-1.068v-29.98c0-.58.37-1.086.922-1.26L35.55 11a1.31 1.31 0 0 1 1.18.194c.344.252.542.64.542 1.067v10.475a1.114 1.114 0 0 0 2.228 0V11.368zm-13.22-8.98c.42-.222.893-.21 1.3.034a1.3 1.3 0 0 1 .642 1.135v4.26h-12.14L26.28 2.387zm-4.63 10.694a3.54 3.54 0 0 0-2.475 3.386V42.91h-5.122c-.73 0-1.323-.594-1.323-1.324v-30.22c0-.73.593-1.322 1.323-1.322H31.2l-9.55 3.037z"/><path d="M26.17 33.055l-.416.14c-.503.17-.734.413-.734.713v9.595c0 .29.203.39.7.232l.418-.133c.502-.16.717-.38.717-.66l.012-9.666c0-.295-.203-.387-.697-.22zm4.41.985c-1.6.547-2.494 2.57-2.494 5.14 0 2.743.97 3.553 2.247 3.15.733-.233 1.292-.743 1.565-1.38.072.315.096.785.474.665.296-.094 1.282-.48 1.282-.753 0-.24-.13-.35-.13-1.923 0-3.34 0-6.118.003-8.566 0-.235-.184-.282-.68-.124l-.333.106c-.506.16-.73.347-.73.593 0 1.042 0 1.738.004 3.172-.256-.157-.652-.274-1.21-.083zm1.21 1.82l.01 3.637c-.213.53-.525 1.014-.96 1.134-.627.176-.958-.436-.966-1.987-.008-1.6.357-2.6 1.086-2.835.36-.114.638-.038.83.05z"/></g></svg>