<svg xmlns="http://www.w3.org/2000/svg" viewBox="0 0 130 170"><path fill="#f8f7f7" d="M9.9 8.8H120v152.4H9.9z"/><path fill="#f2eeee" d="M22.6 23.6h84.8v90.3H22.6z"/><path fill="#fff" d="M28.3 30.7h73.5v16.6H28.3zm0 19.9h73.5v16.6H28.3zm0 20h73.5v16.6H28.3zm0 20h73.5v16.6H28.3z"/><path fill="#f2eeee" d="M39.5 121.6H94v39.7H39.5z"/><path fill="#fff" d="M48.5 134.8h36.4v4.7H48.5zm0 9.7h36.4v4.7H48.5z"/><circle cx="35.7" cy="39" r="1.9" fill="#e89282"/><circle cx="42.8" cy="39" r="1.9" fill="#f4ca60"/><path fill="#3be29e" d="M83.8 35.9h13.3v2H83.8zm-.1 4.1H97v2H83.7z"/><path fill="#50b6ef" d="M65 35.9h13.3v2H65zm0 4.1h13.3v2H65z"/><circle cx="35.7" cy="58.9" r="1.9" fill="#e89282"/><circle cx="42.8" cy="58.9" r="1.9" fill="#f4ca60"/><path fill="#3be29e" d="M83.8 55.9h13.3v2H83.8zm-.1 4.1H97v2H83.7z"/><path fill="#50b6ef" d="M65 55.9h13.3v2H65zm0 4.1h13.3v2H65z"/><circle cx="35.7" cy="78.9" r="1.9" fill="#e89282"/><circle cx="42.8" cy="78.9" r="1.9" fill="#f4ca60"/><path fill="#3be29e" d="M83.8 75.9h13.3v2H83.8zm-.1 4H97v2H83.7z"/><path fill="#50b6ef" d="M65 75.9h13.3v2H65zm0 4h13.3v2H65z"/><circle cx="35.7" cy="98.9" r="1.9" fill="#e89282"/><circle cx="42.8" cy="98.9" r="1.9" fill="#f4ca60"/><path fill="#3be29e" d="M83.8 95.8h13.3v2H83.8zm-.1 4.1H97v2H83.7z"/><path fill="#50b6ef" d="M65 95.8h13.3v2H65zm0 4.1h13.3v2H65z"/></svg>