<?xml version="1.0" encoding="UTF-8"?>
<svg id="Camada_1" xmlns="http://www.w3.org/2000/svg" version="1.1" xmlns:xlink="http://www.w3.org/1999/xlink" viewBox="0 0 300 300">
  <!-- Generator: Adobe Illustrator 29.8.2, SVG Export Plug-In . SVG Version: 2.1.1 Build 3)  -->
  <defs>
    <style>
      .st0 {
        fill: #56a145;
      }

      .st1 {
        fill: url(#linear-gradient2);
      }

      .st2 {
        stroke: url(#linear-gradient4);
      }

      .st2, .st3, .st4, .st5, .st6, .st7, .st8, .st9, .st10, .st11 {
        fill: none;
        stroke-miterlimit: 10;
      }

      .st3 {
        stroke: url(#Gradiente_sem_nome_221);
      }

      .st3, .st4, .st5, .st6, .st9, .st10 {
        stroke-width: 3px;
      }

      .st12 {
        isolation: isolate;
        opacity: .39;
      }

      .st4 {
        stroke: url(#Gradiente_sem_nome_222);
      }

      .st13 {
        fill: #fff;
      }

      .st14 {
        fill: url(#linear-gradient1);
      }

      .st5 {
        stroke: url(#Gradiente_sem_nome_225);
      }

      .st6 {
        stroke: url(#Gradiente_sem_nome_224);
      }

      .st7 {
        stroke: url(#linear-gradient5);
      }

      .st8 {
        stroke: url(#linear-gradient3);
      }

      .st9 {
        stroke: url(#Gradiente_sem_nome_22);
      }

      .st15 {
        fill: url(#linear-gradient);
      }

      .st16 {
        fill: #2a2828;
      }

      .st10 {
        stroke: url(#Gradiente_sem_nome_223);
      }

      .st11 {
        stroke: #54a044;
      }
    </style>
    <linearGradient id="Gradiente_sem_nome_22" data-name="Gradiente sem nome 22" x1="24.59" y1="217.67" x2="27.59" y2="217.67" gradientUnits="userSpaceOnUse">
      <stop offset="0" stop-color="#3d6ce2"/>
      <stop offset="1" stop-color="#50deff"/>
    </linearGradient>
    <linearGradient id="Gradiente_sem_nome_221" data-name="Gradiente sem nome 22" x1="-1007.96" y1="-7208.77" x2="-984.25" y2="-7208.77" gradientTransform="translate(-5775.63 -4213.08) rotate(135)" xlink:href="#Gradiente_sem_nome_22"/>
    <linearGradient id="Gradiente_sem_nome_222" data-name="Gradiente sem nome 22" x1="-1108.8" y1="-7172.92" x2="-1085.09" y2="-7172.92" gradientTransform="translate(-5775.63 -4213.08) rotate(135)" xlink:href="#Gradiente_sem_nome_22"/>
    <linearGradient id="Gradiente_sem_nome_223" data-name="Gradiente sem nome 22" x1=".54" y1="182.49" x2="92.45" y2="182.49" xlink:href="#Gradiente_sem_nome_22"/>
    <linearGradient id="Gradiente_sem_nome_224" data-name="Gradiente sem nome 22" x1="-.71" y1="101.51" x2="37.95" y2="101.51" xlink:href="#Gradiente_sem_nome_22"/>
    <linearGradient id="Gradiente_sem_nome_225" data-name="Gradiente sem nome 22" x1="-.71" y1="83.28" x2="61.84" y2="83.28" xlink:href="#Gradiente_sem_nome_22"/>
    <linearGradient id="linear-gradient" x1="175.92" y1="194.23" x2="294.58" y2="194.23" gradientUnits="userSpaceOnUse">
      <stop offset="0" stop-color="#ca3328"/>
      <stop offset="1" stop-color="#9761ff"/>
    </linearGradient>
    <linearGradient id="linear-gradient1" x1="45.74" x2="164.41" xlink:href="#linear-gradient"/>
    <linearGradient id="linear-gradient2" x1="111.48" y1="106.92" x2="171.99" y2="106.92" gradientUnits="userSpaceOnUse">
      <stop offset="0" stop-color="#56a145"/>
      <stop offset="1" stop-color="#3d6ce2"/>
    </linearGradient>
    <linearGradient id="linear-gradient3" x1="189.54" y1="101.03" x2="193.54" y2="101.03" xlink:href="#linear-gradient2"/>
    <linearGradient id="linear-gradient4" x1="208.75" y1="91" x2="230.2" y2="91" xlink:href="#linear-gradient2"/>
    <linearGradient id="linear-gradient5" x1="179.68" y1="95.94" x2="230.54" y2="95.94" xlink:href="#linear-gradient2"/>
  </defs>
  <path class="st16" d="M.54,57.46h212.32c13.73,0,24.88,11.15,24.88,24.88v164.09H21.82c-11.74,0-21.27-9.53-21.27-21.27V57.46h0Z"/>
  <line class="st9" x1="26.09" y1="246.43" x2="26.09" y2="188.91"/>
  <circle class="st3" cx="26.09" cy="179.94" r="10.36"/>
  <circle class="st4" cx="72.05" cy="83.28" r="10.36"/>
  <polyline class="st10" points="58.01 246.43 58.01 210.11 90.95 210.11 90.95 120.05 .54 120.05"/>
  <polyline class="st6" points="-.71 144.05 36.45 144.05 36.45 57.46"/>
  <line class="st5" x1="-.71" y1="83.28" x2="61.84" y2="83.28"/>
  <g>
    <g>
      <path class="st15" d="M288.45,130.5c-17.79,0-15.31,44.45-64.66,45.87-1.33.04-2.44-1.16-2.44-2.68s1-2.62,2.26-2.67c4.46-.2,13.95-1.3,13.95-7.1,0-7.58-38.7-19.61-54.03,11.14-15.33,30.75-2.75,82.9-2.75,82.9h35.37v-45.91s16.98,2.75,39.69-10.03c25.54-14.37,50.69-71.53,32.62-71.53Z"/>
      <path class="st14" d="M102.77,163.93c0,5.8,9.49,6.9,13.95,7.1,1.27.06,2.26,1.24,2.26,2.67,0,1.51-1.11,2.72-2.44,2.68-49.34-1.42-46.87-45.87-64.66-45.87s7.07,57.16,32.62,71.53c22.71,12.78,39.69,10.03,39.69,10.03v45.91h35.37s12.57-52.15-2.75-82.9c-15.33-30.75-54.03-18.72-54.03-11.14Z"/>
    </g>
    <g>
      <path class="st1" d="M171.99,137.63c-59.83,5.35-60.5-61.5-60.5-61.5,0,0,34.61-4.38,57.75,25.05"/>
      <line class="st11" x1="130.2" y1="91" x2="173.43" y2="135.96"/>
      <path class="st0" d="M171.99,137.63s-24.74-88.25,74.21-95.6c0,0,22.06,95.93-74.21,95.6Z"/>
      <line class="st8" x1="193.04" y1="87.16" x2="190.04" y2="114.91"/>
      <line class="st2" x1="230.15" y1="89.83" x2="208.8" y2="92.17"/>
      <line class="st7" x1="230.15" y1="64.43" x2="180.07" y2="127.45"/>
    </g>
  </g>
  <g class="st12">
    <path class="st13" d="M181.92,202.6c-2.19-12.07,3.69-24.48,12.24-32.76,3.84-3.64,8.33-6.59,13.24-8.54,1.78-.72,3.81.14,4.52,1.93.49,1.21.25,2.53-.52,3.48-3.69,4.3-7.77,8.06-11.2,12.52-5.48,6.63-9.51,14.47-11.48,22.84,0,0-1.29,1.78-1.29,1.78-1.51,2.19-5.11,1.35-5.52-1.25h0Z"/>
  </g>
</svg>