<svg xmlns="http://www.w3.org/2000/svg" fill="none" viewBox="0 0 36 36"><path fill="#FF65B8" d="M12.528 12.888h6.192v1.44h-6.192v-1.44zm0 3.24h4.032v1.44h-4.032v-1.44zm0 3.312h4.032v1.44h-4.032v-1.44z"/><path fill="#FF65B8" d="M26.784 18.36c0-1.944-1.44-3.6-3.312-3.96V9.216H9.288v15.336h9.144v-1.44h-7.704V10.656h11.304V14.4c-1.872.36-3.312 1.944-3.312 3.96 0 1.08.432 2.016 1.08 2.736v5.688l2.88-1.44 2.88 1.44v-5.688a3.72 3.72 0 001.224-2.736zm-4.032-2.592a2.581 2.581 0 012.592 2.592 2.581 2.581 0 01-2.592 2.592 2.581 2.581 0 01-2.592-2.592c.072-1.44 1.224-2.592 2.592-2.592zm0 7.992l-1.44.72v-2.448c.432.216.936.288 1.44.288.504 0 1.008-.072 1.44-.288v2.448l-1.44-.72z"/><path fill="#FF65B8" d="M36 18c0 9.941-8.059 18-18 18S0 27.941 0 18 8.059 0 18 0s18 8.059 18 18zM2.137 18c0 8.76 7.102 15.863 15.863 15.863 8.76 0 15.863-7.102 15.863-15.863C33.863 9.24 26.76 2.137 18 2.137S2.137 9.24 2.137 18z"/></svg>