<svg xmlns="http://www.w3.org/2000/svg" id="Layer_1" data-name="Layer 1" version="1.1" viewBox="0 0 50 50"><defs><style>.cls-3{stroke-width:0;fill:#444}.cls-5{fill:none;stroke:#444;stroke-miterlimit:10;stroke-width:.5px}</style></defs><path fill="#04ad49" stroke-width="0" d="M31.1 19.7l7.8 2.4-6.7 4.7.1 8.2-6.5-4.9-7.8 2.7 2.6-7.8-4.9-6.6 8.2.1 4.8-6.7 2.4 7.9z"/><path fill="#22dd6d" stroke-width="0" d="M45.4 3.7H4.3c-1.4 0-1.4 3.8-1.4 5.2l-.2 12.9L2.2 32l1.2 11.8 12.4.6L47.9 33V6.3c0-1.4-1.1-2.6-2.5-2.6z"/><path fill="none" stroke="#444" stroke-linecap="round" stroke-linejoin="round" stroke-width="2.5" d="M38.5 45.2H5.8c-1.9 0-3.4-1.6-3.4-3.5v-35c0-1.9 1.5-3.5 3.4-3.5h39c1.9 0 3.4 1.6 3.4 3.5v28.5"/><path d="M37.9 44.4c-.4 0-.6-.3-.6-.6v-2.6c0-.4.3-.6.6-.6s.6.3.6.6v2.6c0 .4-.3.6-.6.6z" class="cls-3"/><path d="M40.4 41.4H27.7c-.2 0-.3 0-.5-.2-.1-.1-.2-.3-.2-.5l.7-8.7c0-.4.3-.6.7-.6.4 0 .6.3.6.7l-.7 8h11.3l-.5-6.1c0-.3.2-.1.6-.1.3 0 .7-.3.7 0l.5 6.8c0 .2 0 .4-.2.5-.1.1-.3.2-.5.2z" class="cls-3"/><path d="M34.1 44.4c-.4 0-.6-.3-.6-.6v-2.6c0-.4.3-.6.6-.6s.6.3.6.6v2.6c0 .4-.3.6-.6.6zm-3.8 0c-.4 0-.6-.3-.6-.6v-2.6c0-.4.3-.6.6-.6s.6.3.6.6v2.6c0 .4-.3.6-.6.6zm10.6-29.1c-.2-.9-.2-2-.2-2.8v-.7c-.1-4.7-3.4-5.6-5.3-5.7h-1.7c-2.3 0-6 1.5-6.1 5.7v.5c0 .8 0 2-.2 2.9-.1.6 0 1.2.4 1.6.4.4.9.7 1.4.7h2.9c.6.4 1.3.6 2.2.6s1.4-.2 2-.5h2.9c.6 0 1.1-.3 1.5-.7.3-.4.5-1 .4-1.5zm-9.7-2c0-1.5.7-3.2 2.5-3.5.6 1.1 1.7 1.9 3 2.1.1.4.2.9.2 1.3 0 1.6-.7 3.5-2.9 3.5s-2.9-1.9-2.9-3.5zm8.3 2.7c-.1.2-.3.3-.5.3h-1.6c.5-.8.8-1.8.8-3s-.1-1.5-.4-2.2V11c-.1-.1-.3-.2-.5-.2-1.1 0-2.2-.7-2.5-1.8 0 0 0-.1-.1-.2 0 0-.1 0-.2-.1h-.2c-2.4 0-4.1 2-4.1 4.8s.3 2.1.7 2.9h-1.6c-.2 0-.4-.1-.4-.2-.1-.2-.2-.4-.1-.6.2-1.1.2-2.3.3-3.1V12c.1-3.3 3-4.5 4.8-4.5h1.7c2.6.2 4 1.7 4.1 4.5v.6c0 .9 0 2.1.2 3.1 0 .2 0 .4-.1.5zm4.3 9.5l-.5 1.7c0 .3-.3.5-.6.5h-.2c-.3 0-.5-.5-.4-.8l.4-1.3" class="cls-3"/><path d="M42 31.7h-1c-.4 0-.7-.2-.9-.4-.2-.3-.3-.7-.2-1l.6-2.1c.2-.6.8-1.1 1.5-1.1h1c.4 0 .7.2.9.4.2.3.3.7.2 1l-.6 2.1c-.2.6-.8 1.1-1.5 1.1zm-.9-1.3zm.2 0h.8s.2 0 .2-.2l.6-2h-.8s-.2 0-.2.2l-.6 2zm-.7-7.6c-.6-2.5-2.4-3.6-5.4-3.6h-3c-1.3 0-4.9.8-5.5 4.3l-.6 4.7c0 .6.1 1.2.6 1.8.6.7 1.5 1.1 2.3 1.1h4.2c.4 0 .4.3.4.7s0 .6-.4.6H29c-1.2 0-2.5-.6-3.3-1.5-.7-.8-1.1-1.8-.9-2.8l.6-4.7c.6-4 4.4-5.4 6.8-5.4h3c3.5 0 6 1.8 6.7 4.9" class="cls-3"/><path d="M34.4 28.9h-3.6c-.6 0-1.2-.3-1.7-.8-.4-.5-.6-1.1-.4-1.8l.2-.9c0-.3.4-.6.7-.5.3 0 .6.4.5.7l-.2.9c0 .3 0 .5.2.7.2.2.4.3.7.3h3.6c.4 0 .4.1.4.5s0 .8-.4.8zM19.6 17.1c-2.6 0-4.3-2-4.3-5s1.7-5 4.3-5 4.3 2 4.3 5-1.7 5-4.3 5zm0-8.8c-2.2 0-3 1.9-3 3.8s.8 3.8 3 3.8 3-1.9 3-3.8-.8-3.8-3-3.8z" class="cls-3"/><path d="M10.2 23.8l1.9-4.3c.7-1.5 2.2-2.5 3.8-2.5h6.4c1.8 0 3.4 1.1 4.1 2.8l.7 1.4c.2.3 0 .7-.3.9-.3.2-.7 0-.9-.3l-.8-1.4c-.5-1.2-1.6-2-2.9-2h-6.4c-1.2 0-2.2.7-2.7 1.7L11.4 24m14 6l-4.3-.5c-1-.1-1.8-1-1.8-2.1v-.6c0-.5.3-1 .7-1.4.4-.4.9-.5 1.5-.5l3.7.3c.3 0 .6.3.6.7 0 .3-.3.6-.7.6l-3.7-.3c-.2 0-.4 0-.5.2-.1.1-.2.3-.2.5v.6c0 .4.2.7.6.8l4.3.5c.3 0 .6.4.6.7 0 .3-.3.6-.6.6z" class="cls-3"/><path d="M23.7 44.7c-.4 0-.6-.3-.6-.6V29.7c0-.4.3-.6.6-.6s.6.3.6.6v14.4c0 .4-.3.6-.6.6zm-5.3-.1c-.4 0-.6-.3-.6-.6v-7.4c0-.4.3-.6.6-.6s.6.3.6.6V44c0 .4-.3.6-.6.6z" class="cls-3"/><path d="M15.6 44.7c-.4 0-.6-.3-.6-.7l.4-1.7v-.2l2.3-4.6c.2-.3.5-.4.9-.3.3.2.4.5.3.9l-2.3 4.5-.4 1.6c0 .3-.3.6-.6.6zm-1.4-14.2l-3.3 11.9v1.9c0 .4-.3.6-.6.6s-.6-.3-.6-.6v-2.2l3.2-11.7M8 29.8H6.9c-.6 0-1.2-.4-1.4-1l-.7-1.7c-.2-.5-.1-1 .2-1.4.3-.4.8-.7 1.3-.7h1.1c.6 0 1.2.4 1.4 1l.7 1.7c.2.5.1 1-.2 1.4-.3.4-.8.7-1.3.7zm-1.9-3.5c-.1 0-.2 0-.2.1v.3l.7 1.7c0 .1.1.2.3.2H8c.1 0 .2 0 .2-.1v-.3l-.7-1.7c0-.1-.1-.2-.3-.2H6.1zm17 .1c-.4 0-.6-.3-.6-.6v-1.9c0-.4.3-.6.6-.6s.6.3.6.6v1.9c0 .4-.3.6-.6.6z" class="cls-3"/><path d="M6.4 25.7l-.2-.5c-.2-.9.4-1.3 1-1.3h8.6c.6 0 1.2.3 1.4.9l1.7 4.5c.2.7-.2 1.3-.9 1.3H9.1c-1.1 0-1.2-.5-1.4-1.1" class="cls-5"/><path d="M43.3 25.5l-.6 2.2" class="cls-3"/><path d="M41.7 31.3l-.6 2.1c-.1.4-.4.6-.8.6H34c-.6 0-1-.6-.8-1.1l3-9.6c.1-.4.4-.6.8-.6h8.1c.6 0 1 .6.8 1.1l-.4 1.2c-.1.4-.4.6-.8.6h-6.4c-.5 0-.9-.5-.8-1 .1-.8.1-1.7-1-1.8" class="cls-5"/></svg>