<svg xmlns="http://www.w3.org/2000/svg" id="Camada_1" version="1.1" viewBox="0 0 300 300"><defs><linearGradient id="linear-gradient" x1="147.22" x2="249.61" y1="172.69" y2="172.69" gradientUnits="userSpaceOnUse"><stop offset="0" stop-color="#ca3328"/><stop offset="1" stop-color="#f79722"/></linearGradient><style>.st4{fill:#f4f4f4}.st7{fill:#2a2828}</style></defs><path d="M27.83 52.63h212.32c13.73 0 24.88 11.15 24.88 24.88V241.6H49.11c-11.74 0-21.27-9.53-21.27-21.27V52.63z" class="st7"/><path fill="#9761ff" d="M239.36 111.52c.34-22.8-19.27-40.42-40.76-39.38-7.47.36-14.32 2.85-20.08 6.8-8.95-10.28-22.31-16.52-36.94-15.82-20.08.96-39.51 14.61-41.13 33.33-19.66 5.64-34.47 23.97-33.46 45.38.63 13.23 6.85 24.86 16.25 32.71-2.38 6.79-2.15 14.77 2.19 22.73 2.32 4.27 5.99 7.72 10.37 9.79 8.01 3.79 15.57 3.6 21.95 1.1l.51 36.96c.03 2.22 2.87 3.09 4.13 1.27l19.23-27.91c17.92 7.37 34-3.69 35.2-20.05 4.77 2.38 10.16 3.64 15.85 3.37 16.44-.79 29.4-13.8 30.65-29.86 8.98 5.38 20.71 6.52 32.35.65a29.017 29.017 0 0014.07-15.65c9.01-23.95-8.46-45.73-30.39-45.39z"/><path style="isolation:isolate" fill="none" stroke="#fff" stroke-linecap="round" stroke-miterlimit="10" stroke-width="3" d="M106.96 156.77c-10.6.51-19.45 7.21-23.24 16.47m158.4-61.69c-6.81-.45-13.17 1.19-18.54 4.32" opacity=".3"/><path fill="#fff" d="M99.26 110.71c-7.6 4.86-10.88 13.64-13.4 21.99-2.49 9.16-3.36 18.01-3.29 27.74 0 1.32-1.07 2.4-2.39 2.4-.76 0-1.45-.36-1.89-.92-1.75-2.25-3-4.83-3.93-7.51-4.5-13.6-1.04-29.24 8.26-40.13 3.9-4.41 9.58-8.25 15.75-8.04 2.45.11 3.06 3.43.89 4.47z" opacity=".3"/><path fill="url(#linear-gradient)" d="M233.1 121.5h-69.37c-9.1 0-16.51 7.41-16.51 16.51v69.37c0 9.1 7.41 16.51 16.51 16.51h69.37c9.1 0 16.51-7.41 16.51-16.51v-69.37c0-9.1-7.41-16.51-16.51-16.51z"/><path fill="none" stroke="#fff" stroke-linecap="round" stroke-linejoin="round" stroke-width="1.53" d="M222.16 137.63h-47.51c-6.23 0-11.31 5.07-11.31 11.31v47.51c0 6.23 5.07 11.31 11.31 11.31h47.51c6.23 0 11.31-5.07 11.31-11.31v-47.51c0-6.23-5.07-11.31-11.31-11.31h0z"/><path d="M182.06 128.07c-2.63 0-4.79-2.15-4.79-4.79v-18.49c0-2.63 2.15-4.79 4.79-4.79 2.63 0 4.79 2.15 4.79 4.79v18.49c0 2.63-2.15 4.79-4.79 4.79zm16.51 0c-2.63 0-4.79-2.15-4.79-4.79v-18.49c0-2.63 2.15-4.79 4.79-4.79 2.63 0 4.79 2.15 4.79 4.79v18.49c0 2.63-2.15 4.79-4.79 4.79zm16.18 0c-2.63 0-4.79-2.15-4.79-4.79v-18.49c0-2.63 2.15-4.79 4.79-4.79 2.63 0 4.79 2.15 4.79 4.79v18.49c0 2.63-2.15 4.79-4.79 4.79zm-32.69 118.4c-2.63 0-4.79-2.15-4.79-4.79v-18.49c0-2.63 2.15-4.79 4.79-4.79 2.63 0 4.79 2.15 4.79 4.79v18.49c0 2.63-2.15 4.79-4.79 4.79zm16.51 0c-2.63 0-4.79-2.15-4.79-4.79v-18.49c0-2.63 2.15-4.79 4.79-4.79 2.63 0 4.79 2.15 4.79 4.79v18.49c0 2.63-2.15 4.79-4.79 4.79zm16.18 0c-2.63 0-4.79-2.15-4.79-4.79v-18.49c0-2.63 2.15-4.79 4.79-4.79 2.63 0 4.79 2.15 4.79 4.79v18.49c0 2.63-2.15 4.79-4.79 4.79z" class="st4"/><rect width="28.07" height="9.58" x="125.41" y="184.25" class="st4" rx="3.54" ry="3.54"/><path d="M153.48 172.52c0 2.63-2.15 4.79-4.79 4.79H130.2c-2.63 0-4.79-2.15-4.79-4.79 0-2.63 2.15-4.79 4.79-4.79h18.49c2.63 0 4.79 2.15 4.79 4.79zm0-16.17c0 2.63-2.15 4.79-4.79 4.79H130.2c-2.63 0-4.79-2.15-4.79-4.79 0-2.63 2.15-4.79 4.79-4.79h18.49c2.63 0 4.79 2.15 4.79 4.79z" class="st4"/><rect width="28.07" height="9.58" x="242.33" y="184.25" class="st4" rx="4.79" ry="4.79"/><path d="M270.4 172.52c0 2.63-2.15 4.79-4.79 4.79h-18.49c-2.63 0-4.79-2.15-4.79-4.79 0-2.63 2.15-4.79 4.79-4.79h18.49c2.63 0 4.79 2.15 4.79 4.79zm0-16.17c0 2.63-2.15 4.79-4.79 4.79h-18.49c-2.63 0-4.79-2.15-4.79-4.79 0-2.63 2.15-4.79 4.79-4.79h18.49c2.63 0 4.79 2.15 4.79 4.79z" class="st4"/><path d="M175.91 163.33v-4.69h17.78v4.69h-17.78zm0 23.42v-4.72h17.78v4.72h-17.78zm6.26 0v-28.12h5.22v28.12h-5.22zm15.08 0l8.12-28.12h6.41l8.12 28.12h-5.64l-5.51-21.25h-.36l-5.51 21.25h-5.64.02zm4.09-5.32v-4.83h14.26v4.83h-14.26z" class="st7"/></svg>