<?xml version="1.0" encoding="UTF-8"?>
<svg id="Camada_1" xmlns="http://www.w3.org/2000/svg" version="1.1" xmlns:xlink="http://www.w3.org/1999/xlink" viewBox="0 0 296.85 224.29">
  <!-- Generator: Adobe Illustrator 29.8.2, SVG Export Plug-In . SVG Version: 2.1.1 Build 3)  -->
  <defs>
    <style>
      .st0 {
        fill: #56a145;
      }

      .st1 {
        stroke: url(#Gradiente_sem_nome_5);
      }

      .st1, .st2, .st3, .st4 {
        fill: none;
        stroke-linecap: round;
        stroke-linejoin: round;
        stroke-width: 3px;
      }

      .st5 {
        fill: url(#Gradiente_sem_nome_2);
      }

      .st6 {
        fill: url(#Gradiente_sem_nome);
      }

      .st2 {
        stroke: url(#Gradiente_sem_nome_4);
      }

      .st7 {
        fill: #f79722;
      }

      .st3 {
        stroke: url(#Gradiente_sem_nome_3);
      }

      .st4 {
        stroke: #54a044;
      }

      .st8 {
        fill: #2a2828;
      }
    </style>
    <linearGradient id="Gradiente_sem_nome" data-name="Gradiente sem nome" x1="47.63" y1="121.23" x2="212.65" y2="121.23" gradientTransform="translate(0 224) scale(1 -1)" gradientUnits="userSpaceOnUse">
      <stop offset="0" stop-color="#ca3328"/>
      <stop offset="1" stop-color="#9761ff"/>
    </linearGradient>
    <linearGradient id="Gradiente_sem_nome_2" data-name="Gradiente sem nome 2" x1="108.72" y1="159.11" x2="169.22" y2="159.11" gradientTransform="translate(0 224) scale(1 -1)" gradientUnits="userSpaceOnUse">
      <stop offset="0" stop-color="#56a145"/>
      <stop offset="1" stop-color="#3d6ce2"/>
    </linearGradient>
    <linearGradient id="Gradiente_sem_nome_3" data-name="Gradiente sem nome 3" x1="185.78" y1="165" x2="191.79" y2="165" gradientTransform="translate(0 224) scale(1 -1)" gradientUnits="userSpaceOnUse">
      <stop offset="0" stop-color="#56a145"/>
      <stop offset="1" stop-color="#3d6ce2"/>
    </linearGradient>
    <linearGradient id="Gradiente_sem_nome_4" data-name="Gradiente sem nome 4" x1="204.54" y1="175.03" x2="228.88" y2="175.03" gradientTransform="translate(0 224) scale(1 -1)" gradientUnits="userSpaceOnUse">
      <stop offset="0" stop-color="#56a145"/>
      <stop offset="1" stop-color="#3d6ce2"/>
    </linearGradient>
    <linearGradient id="Gradiente_sem_nome_5" data-name="Gradiente sem nome 5" x1="175.81" y1="170.09" x2="228.88" y2="170.09" gradientTransform="translate(0 224) scale(1 -1)" gradientUnits="userSpaceOnUse">
      <stop offset="0" stop-color="#56a145"/>
      <stop offset="1" stop-color="#3d6ce2"/>
    </linearGradient>
  </defs>
  <path class="st8" d="M0,24.1h212.32c13.73,0,24.88,11.15,24.88,24.88v164.09H21.27c-11.74,0-21.27-9.53-21.27-21.27V24.1h0Z"/>
  <path class="st6" d="M49.41,45.13s-16.47,115.28,50.92,115.28,112.32-82.84,112.32-115.28h-38.97l-16.84,48.42-7.09-48.42h-40.44l-7.49,46.93-7.49-46.93h-21.97s-8.49,60.37-7.49,57.64,0-57.64,0-57.64h-15.48.02Z"/>
  <g>
    <path class="st7" d="M296.08,190.97l-18.6-52.49c-1.87-5.28-6.85-8.8-12.45-8.8h-31.34l-1.22-3.42c-2.62-7.37-9.58-12.29-17.4-12.29h-73.17c-10.2,0-18.46,8.27-18.46,18.46v17.98l-74.05-34.18c-2.84-1.32-6.22-.51-8.16,1.95l-4.87,6.18c-2.3,2.95-1.79,7.21,1.15,9.52l85.92,67.35v4.61c0,10.2,8.26,18.46,18.46,18.46h99.19c9.56,0,16.97-7.1,18.26-15.71h24.3c9.11,0,15.49-9.02,12.44-17.61h0ZM268.86,191.2h-13.38l-15.64-44.12h18.61c3.13,0,5.92,1.96,6.96,4.92l10.41,29.35c1.7,4.8-1.86,9.85-6.96,9.85h0Z"/>
    <g>
      <path class="st5" d="M169.22,95.6c-59.83,5.35-60.5-61.5-60.5-61.5,0,0,34.61-4.38,57.75,25.05"/>
      <line class="st4" x1="127.44" y1="48.97" x2="170.67" y2="93.93"/>
      <path class="st0" d="M169.22,95.6S144.48,7.35,243.43,0c0,0,22.06,95.93-74.21,95.6Z"/>
      <line class="st3" x1="190.28" y1="45.13" x2="187.28" y2="72.87"/>
      <line class="st2" x1="227.38" y1="47.8" x2="206.04" y2="50.14"/>
      <line class="st1" x1="227.38" y1="22.4" x2="177.31" y2="85.42"/>
    </g>
  </g>
</svg>