<svg xmlns="http://www.w3.org/2000/svg" version="1" viewBox="0 0 50 50"><path fill="#FCC34F" d="M7.025 47L47 32.45V6.931L43.07 3H6.931L3 6.931V43.07L6.931 47z"/><path fill="#FDCF72" d="M31.41 3H6.931L3 6.931v6.409z"/><path fill="#444" d="M43.718 43.279H7.159V6.721h36.559v36.558zm-35.559-1h34.559V7.721H8.159v34.558z"/><path fill="#444" d="M43.069 48.25H6.414L1.75 43.587V6.414L6.414 1.75h37.173l4.663 4.664v26.04a1.25 1.25 0 0 1-2.5 0V7.449L42.552 4.25H7.449L4.25 7.449v35.103l3.199 3.198H43.07a1.25 1.25 0 1 1-.001 2.5z"/><path fill="#444" d="M28.367 15.125a.993.993 0 0 0-.764-.358h-.895a.995.995 0 0 0-.977.812l-3.435 18.479a.993.993 0 0 0 .977 1.175h.895c.478 0 .89-.342.977-.812l3.435-18.479a.994.994 0 0 0-.213-.817zm-6.401 13.648v-.889a.996.996 0 0 0-.555-.892l-4.023-1.98 4.023-1.98a.994.994 0 0 0 .555-.892v-.91a.993.993 0 0 0-1.435-.89l-6.775 3.348a.993.993 0 0 0-.553.891v.867c0 .378.215.725.556.892l6.775 3.327a.99.99 0 0 0 .963-.048.993.993 0 0 0 .469-.844zm15.154-5.085l-6.775-3.348a.994.994 0 0 0-1.435.89v.91c0 .378.215.724.555.892l4.023 1.98-4.023 1.98a.994.994 0 0 0-.555.892v.889a.99.99 0 0 0 .994.993c.149 0 .3-.034.438-.102l6.775-3.327a.992.992 0 0 0 .556-.892v-.867a.994.994 0 0 0-.553-.89z"/></svg>