<?xml version="1.0" encoding="utf-8"?>
<!-- Generator: Adobe Illustrator 24.3.0, SVG Export Plug-In . SVG Version: 6.00 Build 0)  -->
<svg version="1.1" id="Layer_1" xmlns="http://www.w3.org/2000/svg" xmlns:xlink="http://www.w3.org/1999/xlink" x="0px" y="0px"
	 viewBox="0 0 50 50" style="enable-background:new 0 0 50 50;" xml:space="preserve">
<style type="text/css">
	.st0{fill:#FDCF72;}
	.st1{fill:#FCC34F;}
	.st2{fill:#494949;}
	.st3{fill:#444444;}
</style>
<g>
	<g>
		<path class="st0" d="M41.3,12.1L39,13l-10.4,3.8l-1.4,0.5l-0.8,0.3L22.5,19l-0.3,0.1L19.7,20L6.7,24.8l-2.3,0.8c0-0.2,0-0.3,0-0.5
			c0-0.2,0-0.3,0-0.5c0-5.6,2.2-10.6,5.9-14.3c1.1-1.3,3.4-3.6,7.1-5.1c4.3-1.7,8-1.3,9.6-1c1.8,0.2,3.3,0.6,4.3,0.9
			c3.8,1.2,7.2,3.6,9.6,6.7C41.1,11.9,41.2,12,41.3,12.1z"/>
	</g>
	<g>
		<path class="st1" d="M45.5,23.2l-2.3,0.8L32.6,28L29.7,29l-3.4,1.3l-6.6,2.4L10.7,36l-2.3,0.8c-2.3-3.2-3.8-7-4-11.2
			c0-0.2,0-0.3,0-0.5l2.3-0.8l13.1-4.8l2.3-0.8l0.6-0.2l3.4-1.3l1.1-0.4l1.2-0.4l10.2-3.7l2.3-0.8c0.1,0.1,0.2,0.2,0.3,0.4
			C43.7,15.3,45.2,19.1,45.5,23.2z"/>
	</g>
	<g>
		<path class="st2" d="M20.6,35c0,2,2,3.7,4.4,3.7s4.4-1.6,4.4-3.7H20.6z M17.7,31.2v2.7h14.7v-2.7H17.7z M31.3,26.5
			c0,0-0.7,0.2-1.7,0.4c0.9-1.1,1.5-2.4,1.5-3.9c0-2.2-0.5-3.3-1.4-4.8c-0.2-0.4-0.5-1-0.7-1.7c-0.1-0.2-0.1-0.3-0.1-0.5
			c-0.1-0.7-0.1-1.5,0.2-2.2c-0.7,0.5-1.2,1.6-1.5,2.7c0,0.2-0.1,0.4-0.1,0.6c-0.3,1.3-0.4,2.8-0.5,4c-0.2-1-0.2-2.5-0.5-3.6
			c0-0.2-0.1-0.4-0.1-0.5c0,0,0,0,0,0c-0.9-3-2-4.1-1.2-5.5c-1,0.1-1.9,1.7-1.9,3.2c0,1-0.2,2.5-0.7,3.8c-0.1,0.2-0.2,0.5-0.3,0.6
			c-0.1,0.2-0.2,0.3-0.3,0.5c0-0.1,0-0.2,0-0.3c0-0.2,0-0.4,0-0.5c-0.2-2.2-1-3.5-1.8-3.6c0.5,1.3-0.1,2.8-0.7,4.5
			c-0.1,0.2-0.2,0.4-0.2,0.6c-0.3,0.9-0.6,1.9-0.6,3c0,1.4,0.5,2.8,1.5,3.9c-1-0.2-1.6-0.3-1.6-0.3c-1.3-0.3-3.1-0.7-3.1-0.7
			c0.3,1,0.7,1.9,2.2,3.7c0,0.1,0.1,0.1,0.1,0.2h14.6c0.4-0.4,0.7-0.8,1-1.2c1.1-1.5,1.4-2.8,1.4-2.8L31.3,26.5z"/>
	</g>
	<g>
		<g>
			<g>
				<path class="st3" d="M47.4,25c0,4.5-1.3,8.8-3.8,12.5c-0.4,0.6-1.2,0.7-1.7,0.3c-0.6-0.4-0.7-1.2-0.3-1.7
					c2.2-3.3,3.4-7.1,3.4-11.1c0-0.2,0-0.4,0-0.6c-0.1-4.6-1.8-8.8-4.6-12.1c-0.1-0.1-0.2-0.3-0.3-0.4c-3.7-4.1-9-6.8-14.9-6.8
					c-10.8,0-19.7,8.7-19.9,19.5c0,0.1,0,0.3,0,0.4v0.2c0,4.6,1.6,8.8,4.3,12.2c3.6,4.6,9.3,7.5,15.6,7.5c0.7,0,1.2,0.6,1.2,1.2
					s-0.6,1.2-1.2,1.2c-7.4,0-13.9-3.6-18-9.1c-2.5-3.4-4.1-7.6-4.3-12.2c0-0.2,0-0.4,0-0.5c0-0.2,0-0.3,0-0.5
					C2.6,18.9,5,13.4,9,9.4c4.1-4.2,9.7-6.8,16-6.8c0.8,0,1.5,0,2.3,0.1c6.1,0.6,11.5,3.7,15.1,8.2c0.1,0.1,0.2,0.3,0.3,0.4
					c2.6,3.4,4.3,7.6,4.6,12.1C47.4,24,47.4,24.5,47.4,25z"/>
			</g>
		</g>
	</g>
</g>
</svg>
