<?xml version="1.0" encoding="utf-8"?>
<!-- Generator: Adobe Illustrator 22.1.0, SVG Export Plug-In . SVG Version: 6.00 Build 0)  -->
<svg version="1.1" id="Layer_1" xmlns="http://www.w3.org/2000/svg" xmlns:xlink="http://www.w3.org/1999/xlink" x="0px" y="0px"
	 viewBox="0 0 50 50" style="enable-background:new 0 0 50 50;" xml:space="preserve">
<style type="text/css">
	.st0{fill:#00C8E2;}
	.st1{fill:#00DFFC;}
	.st2{fill:#444444;}
</style>
<g>
	<g>
		<polygon class="st0" points="38.3,22.3 45,28.9 2,44.5 1.7,27.2 2,19.5 38.4,6.3 38.3,13 		"/>
	</g>
	<g>
		<polygon class="st1" points="39.2,6.2 2.1,19.7 1.2,8.6 1.7,4 35.4,3.7 		"/>
	</g>
	<g>
		<path class="st2" d="M21.7,24.6H7.6c-0.4,0-0.8-0.3-0.8-0.8s0.3-0.8,0.8-0.8h14.1c0.4,0,0.8,0.3,0.8,0.8S22.2,24.6,21.7,24.6z"/>
	</g>
	<g>
		<path class="st2" d="M18.2,30.5H7.6c-0.4,0-0.8-0.3-0.8-0.8S7.2,29,7.6,29h10.6c0.4,0,0.8,0.3,0.8,0.8S18.6,30.5,18.2,30.5z"/>
	</g>
	<g>
		<path class="st2" d="M18.2,36.4H7.6c-0.4,0-0.8-0.3-0.8-0.8s0.3-0.8,0.8-0.8h10.6c0.4,0,0.8,0.3,0.8,0.8S18.6,36.4,18.2,36.4z"/>
	</g>
	<path class="st2" d="M49.1,45.1l-5.7-5.7c1.7-1.9,2.8-4.3,2.8-7c0-4.5-2.8-8.2-6.8-9.7c0-0.1,0.1-0.2,0.1-0.3V4.1
		c0-0.7-0.6-1.2-1.2-1.2H1.7c-0.7,0-1.2,0.6-1.2,1.2v41.3c0,0.7,0.6,1.2,1.2,1.2h23.8c0.7,0,1.3-0.6,1.3-1.2s-0.6-1.2-1.3-1.2H3V5.3
		h34V22c-0.4,0-0.8-0.1-1.2-0.1c-5.7,0-10.4,4.7-10.4,10.4c0,5.7,4.7,10.4,10.4,10.4c2.1,0,4.1-0.6,5.7-1.7l5.8,5.8
		c0.2,0.2,0.6,0.4,0.9,0.4s0.6-0.1,0.9-0.4C49.6,46.3,49.6,45.6,49.1,45.1z M27.9,32.3c0-4.3,3.5-7.9,7.9-7.9s7.9,3.5,7.9,7.9
		s-3.5,7.9-7.9,7.9S27.9,36.7,27.9,32.3z"/>
	<g>
		<g>
			<polyline class="st2" points="11.2,14.4 11.2,18.3 9.5,17.4 7.9,18.3 7.9,14.4 			"/>
		</g>
		<g>
			<circle class="st2" cx="9.5" cy="12" r="3.4"/>
		</g>
	</g>
</g>
</svg>
