<svg xmlns="http://www.w3.org/2000/svg" version="1" viewBox="0 0 50 50"><path fill="#46B8B0" d="M47.723 34.893V6.001a3.724 3.724 0 00-3.724-3.724H6.001a3.724 3.724 0 00-3.724 3.724v37.998a3.724 3.724 0 003.724 3.724h6.471l35.251-12.83"/><path fill="#4ECDC4" d="M40.258 2.277H6.001a3.724 3.724 0 00-3.724 3.724v10.1L40.258 2.277z"/><g fill="#031326"><path d="M43.999 1.027H6.001a4.98 4.98 0 00-4.974 4.974v37.998a4.98 4.98 0 004.974 4.974h32.428a1.25 1.25 0 000-2.5H6.001a2.476 2.476 0 01-2.474-2.474V6.001a2.477 2.477 0 012.474-2.474h37.998a2.477 2.477 0 012.474 2.474v28.892a1.25 1.25 0 002.5 0V6.001a4.98 4.98 0 00-4.974-4.974z"/><path d="M41.512 6.129H8.488a2.361 2.361 0 00-2.359 2.359v33.024a2.361 2.361 0 002.359 2.359h33.024a2.362 2.362 0 002.359-2.359V8.488a2.362 2.362 0 00-2.359-2.359zm1.859 35.383a1.861 1.861 0 01-1.859 1.859H8.488a1.861 1.861 0 01-1.859-1.859V8.488c0-1.025.834-1.859 1.859-1.859h33.024c1.025 0 1.859.834 1.859 1.859v33.024z"/><path d="M37.881 15.588c0-.087-.036-.14-.176-.14h-2.827a.177.177 0 00-.176.176v4.565c-.351-.035-.544-.035-.913-.035-4.319 0-6.953 3.196-6.953 7.287 0 4.776 2.721 7.129 6.533 7.128 1.475 0 3.02-.316 4.495-1.018.105-.053.105-.07.105-.193-.088-.65-.088-1.247-.088-1.721V15.588zm-3.195 7.357v8.692c-.334.14-.791.193-1.212.193-1.967 0-3.477-1.299-3.477-4.53 0-2.827 1.475-4.53 3.687-4.53.419 0 .752.053 1.015.175h-.013zm-13.838 1.651l4.636-8.902c.088-.158.035-.263-.105-.263h-2.827c-.176 0-.228.088-.316.228-1.071 2.3-2.195 4.635-3.213 6.953h-.035c-1.054-2.353-2.178-4.654-3.284-6.989-.053-.158-.14-.193-.316-.193h-3.02c-.123 0-.228.123-.123.263l4.653 9.201-4.811 9.254c-.088.106-.071.246.105.246h2.915c.14 0 .228-.053.316-.193 1.124-2.317 2.282-4.881 3.336-7.234h.035a762.898 762.898 0 003.442 7.217c.088.175.176.228.369.228h3.055c.14 0 .193-.141.105-.281l-4.917-9.535z"/></g></svg>