<svg xmlns="http://www.w3.org/2000/svg" id="Layer_1" x="0" y="0" version="1.1" viewBox="0 0 50 50" xml:space="preserve"><style>.st2{fill:#444}</style><path fill="#dc5e82" d="M44.8 10.7l-1.2 15.6-35.7 13c-.5-1.1-.7-2.5-.8-4.3L5.2 10.7C5.1 8.3 6.3 6.8 9.6 6l12.8-3.6c1-.2 1.8-.4 2.6-.4s1.6.2 2.6.4L40.4 6c3.3.8 4.5 2.3 4.4 4.7z"/><path fill="#f56991" d="M36.7 5L5.6 16.3l-.4-5.6C5.1 8.3 6.3 6.8 9.6 6l12.8-3.6c1-.2 1.8-.4 2.6-.4s1.6.2 2.6.4c0 .1 9.1 2.6 9.1 2.6z"/><path d="M40.7 4.8L27.9 1.3c-1.1-.3-2-.5-2.9-.5-.9 0-1.8.2-2.9.5L9.3 4.8c-3.7.9-5.5 2.9-5.4 6L5.8 35c.4 5.7 2.3 7.5 6.2 9.4l10.8 4.4c.7.2 1.5.4 2.2.4.7 0 1.5-.1 2.2-.4l6.4-2.6c.6-.3.9-1 .7-1.6-.3-.6-1-.9-1.6-.7l-6.3 2.6c-.9.3-1.8.3-2.7 0L13 42.2c-3.1-1.5-4.4-2.6-4.7-7.3L6.4 10.7c0-1.3.2-2.7 3.6-3.5l12.8-3.6c.9-.3 1.6-.4 2.2-.4.7 0 1.3.1 2.2.4l12.9 3.6c3.3.8 3.5 2.1 3.5 3.4l-1.2 15.6c0 .7.5 1.3 1.2 1.3s1.3-.5 1.3-1.1l1.2-15.6c.1-3.2-1.7-5.1-5.4-6z" class="st2"/><path d="M36.3 29.4c0-.3.2-.5.5-.5h1.8c-.2-3.4-1.6-6.4-3.9-8.6l-.7 1c-.1.1-.3.2-.4.2-.1 0-.2 0-.3-.1-.2-.2-.3-.5-.1-.7l.8-1.1c-2.1-1.8-4.9-2.9-7.9-3v1c0 .3-.2.5-.5.5s-.5-.2-.5-.5v-1c-3.2.1-6 1.4-8.2 3.4l.6.8c.2.2.1.5-.1.7-.1.1-.2.1-.3.1-.2 0-.3-.1-.4-.2l-.5-.7c-2.1 2.2-3.4 5.1-3.6 8.3h1.6c.3 0 .5.2.5.5s-.2.5-.5.5h-1.5c.2.5.6.9 1.2.9h23.6c.6 0 1-.4 1.2-.9h-1.8c-.4-.1-.6-.3-.6-.6zm-21.2-1c.6-5.2 5.1-9.3 10.5-9.3s9.8 4.1 10.5 9.3h-21z" class="st2"/></svg>