<?xml version="1.0" encoding="utf-8"?>
<!-- Generator: Adobe Illustrator 27.9.0, SVG Export Plug-In . SVG Version: 6.00 Build 0)  -->
<svg version="1.1" id="Camada_1" xmlns="http://www.w3.org/2000/svg" xmlns:xlink="http://www.w3.org/1999/xlink" x="0px" y="0px"
	 viewBox="0 0 49 50" style="enable-background:new 0 0 49 50;" xml:space="preserve">
<style type="text/css">
	.st0{fill:#00DFFC;}
	.st1{fill:none;stroke:#444444;stroke-linecap:round;stroke-miterlimit:10;}
	.st2{fill:none;stroke:#444444;stroke-width:2.5;stroke-linecap:round;stroke-miterlimit:10;}
</style>
<g>
	<path class="st0" d="M17.6,9.7l-4-7.3c-1.4,0-10.2,3.9-10.2,5.3L2,14.3c0,0.2,2.9,3.3,2.9,3.5l-1.6,3l-1,19.8l7.4,7.5
		c0.5,0.3,5.8,1.6,6.4,1.4l32.2-11.5l-7.8-27.2L27,14l-2.7-4.3C24.4,8.3,19,9.7,17.6,9.7z"/>
	<g>
		<path class="st1" d="M10.7,47.6l-6.9-6.9V21c0-1.1,0.9-2,2-2h3.7"/>
		<path class="st1" d="M27.4,19.1h6.9c1.1,0,2,0.9,2,2v20.1"/>
		<polyline class="st1" points="4.3,40.1 11,40.1 11,47.3 		"/>
		<path class="st1" d="M20.5,24l3.7,3.6c0.8,0.7,2,0.7,2.8,0l0,0c0.8-0.8,0.8-2,0-2.8l-3.6-3.6"/>
		<path class="st1" d="M10.4,18.8c-2.2,2-2.4,5.1-0.8,6.6c2.3,2.3,8.3,0.6,12.1-3.2s5-8.8,2.7-11c-1.5-1.5-4.2-1.4-6.9-0.2"/>
		<path class="st1" d="M14.6,8.3l4,4c0.7,0.7,0.6,1.8,0.4,2.9"/>
		<path class="st1" d="M17.2,17.9c-1.8,1.8-4.4,2.4-5.6,1.3l-3.9-4"/>
		<path class="st1" d="M5.7,6.3c-3,3-4.2,6.6-2.6,8.2c1.5,1.5,5.2,0.4,8.2-2.6c3-3,4.2-6.6,2.6-8.2C12.3,2.1,8.7,3.3,5.7,6.3z"/>
		<path class="st1" d="M28.4,14.2l10.1-2.8c1.1-0.3,2.1,0.4,2.4,1.4L47,36.5c0.3,1.1-0.4,2.1-1.4,2.4l-9.3,2.4"/>
	</g>
	<path class="st2" d="M26.8,48.4l-14.6,0.1c-1.4,0-2.8-0.5-3.9-1.5l-3.2-2.8c-1.5-1.3-2.3-3.2-2.3-5.2V21.1c0-1.9,1.5-3.4,3.4-3.3
		l2.6,0l-1.9-1.5C1.5,17.3,1,13.4,1,13.4S0.5,6.1,9.5,2.5C17.4-0.7,15,7.1,15,7.1l2.8,2.9c8-3.3,8.7,3.9,8.7,3.9L38,10.4
		c1.5-0.5,3.1,0.4,3.5,1.9l6.3,23.8c0.4,1.4-0.3,2.8-1.6,3.5L37,41.8v1.9"/>
</g>
</svg>
