<?xml version="1.0" encoding="utf-8"?>
<!-- Generator: Adobe Illustrator 22.0.1, SVG Export Plug-In . SVG Version: 6.00 Build 0)  -->
<svg version="1.1" id="Layer_1" xmlns="http://www.w3.org/2000/svg" xmlns:xlink="http://www.w3.org/1999/xlink" x="0px" y="0px"
	 viewBox="0 0 50 50" style="enable-background:new 0 0 50 50;" xml:space="preserve">
<style type="text/css">
	.st0{fill:#46B8B0;}
	.st1{fill:#4ECDC4;}
	.st2{fill:#444444;}
</style>
<path class="st0" d="M7.3,37.8l5.5,3.1l32.2-11.7V16c0-1.6-0.8-3-2.2-3.8l-15.5-9c-1.4-0.8-3-0.8-4.4,0l-15.5,9
	C5.9,13,5.1,14.5,5.1,16v18C5.1,35.5,5.9,37,7.3,37.8z"/>
<path class="st1" d="M35.5,8.1l-8.3-4.8c-1.4-0.8-3-0.8-4.4,0l-15.5,9C5.9,13,5.1,14.5,5.1,16v3.1L35.5,8.1z"/>
<path class="st2" d="M25,48.5c-1,0-1.9-0.2-2.8-0.7l-15.5-9c-1.7-1-2.8-2.8-2.8-4.8V16c0-2,1.1-3.8,2.8-4.8l15.5-9
	c1.7-1,3.9-1,5.6,0l15.5,9c1.7,1,2.8,2.8,2.8,4.8v13.2c0,0.7-0.5,1.2-1.2,1.2s-1.2-0.5-1.2-1.2V16c0-1.1-0.6-2.2-1.6-2.8l-15.5-9
	c-1-0.6-2.2-0.6-3.2,0l-15.5,9c-1,0.6-1.6,1.6-1.6,2.8V34c0,1.1,0.6,2.2,1.6,2.8l15.5,9c1,0.6,2.2,0.6,3.2,0l4.3-2.5
	c0.6-0.3,1.3-0.1,1.6,0.4c0.3,0.6,0.1,1.3-0.4,1.6l-4.3,2.5C26.9,48.3,26,48.5,25,48.5z"/>
<path class="st2" d="M25,24.4c2.8,0,5-2.2,5.1-4.9v-0.3c0-2.8-2.3-5.1-5.2-5.1c-2.8,0-5.1,2.3-5.2,5.1h4c0.2,0,0.4,0.2,0.4,0.4
	s-0.2,0.4-0.4,0.4h-5.1h-0.1C16,20.1,14,22.3,14,25c0,2.7,2,4.9,4.7,5.1C19,26.9,21.7,24.4,25,24.4z M23.7,17.7
	c-0.5,0-0.9-0.4-0.9-0.9s0.4-0.9,0.9-0.9s0.9,0.4,0.9,0.9S24.2,17.7,23.7,17.7z"/>
<path class="st2" d="M31.3,19.8c-0.3,3.2-3,5.8-6.3,5.8c-2.8,0-5,2.2-5.1,4.9v0.2c0,2.9,2.3,5.2,5.2,5.2c2.8,0,5.1-2.3,5.2-5.1h-4
	c-0.2,0-0.4-0.2-0.4-0.4s0.2-0.4,0.4-0.4h4.9C33.8,30,36,27.7,36,25C36,22.3,33.9,20.1,31.3,19.8z M26.3,32.3c0.5,0,0.9,0.4,0.9,0.9
	s-0.4,0.9-0.9,0.9s-0.9-0.4-0.9-0.9S25.8,32.3,26.3,32.3z"/>
</svg>
