<svg xmlns="http://www.w3.org/2000/svg" id="Layer_1" x="0" y="0" version="1.1" viewBox="0 0 50 50" xml:space="preserve"><style>.st2{fill:#031326}</style><switch><g><path fill="#e589ef" d="M11.8 43.7l35.6-13c.5-1.9.8-4 .8-6.1C48.2 11.8 37.8 1.4 25 1.4S1.8 11.8 1.8 24.7c0 7.9 3.9 14.8 10 19z"/><path fill="#f799ff" d="M37.7 5.2c-3.6-2.4-8-3.7-12.6-3.7C14.6 1.4 5.8 8.4 2.9 17.9L37.7 5.2z"/><path d="M25 49.5C11.5 49.5.5 38.5.5 25S11.5.5 25 .5s24.5 11 24.5 24.5-11 24.5-24.5 24.5zM25 3C12.9 3 3 12.9 3 25s9.9 22 22 22 22-9.9 22-22S37.1 3 25 3z" class="st2"/><path d="M15.2 42.4c-.1 0-.3 0-.4-.1C5.2 36.5 2.2 24 8 14.5c.2-.4.7-.5 1-.3.4.2.5.7.3 1-2.6 4.3-3.4 9.3-2.2 14.2s4.2 9 8.5 11.6c.4.2.5.7.3 1-.2.3-.5.4-.7.4zm10.2 2.8c-1.2 0-2.4-.1-3.6-.3-.4-.1-.7-.5-.6-.9.1-.4.5-.7.9-.6 7.7 1.4 15.3-2.1 19.3-8.7 2.6-4.3 3.4-9.3 2.2-14.2S39.3 11.6 35 9c-.4-.2-.5-.7-.3-1 .2-.4.7-.5 1-.3 4.6 2.8 7.9 7.3 9.2 12.5 1.3 5.3.4 10.7-2.4 15.3-3.6 6.1-10.2 9.7-17.1 9.7z" class="st2"/><path d="M15.4 35.5c-.2 0-.4-.1-.5-.2-3.1-2.8-5-6.6-5.2-10.7-.2-4.2 1.1-8.2 3.9-11.3 5.7-6.4 15.6-7 22-1.3 3.1 2.8 5 6.6 5.2 10.7.2 4.2-1.2 8.2-3.9 11.3-.3.3-.8.3-1.1.1-.3-.3-.3-.8-.1-1.1 2.5-2.8 3.8-6.4 3.5-10.2s-1.9-7.2-4.7-9.7c-5.8-5.2-14.7-4.6-19.9 1.2-2.5 2.8-3.8 6.4-3.5 10.2.2 3.8 1.9 7.2 4.7 9.7.3.3.3.8.1 1.1 0 .1-.3.2-.5.2z" class="st2"/><path d="M14.3 9.9c-.2 0-.5-.1-.6-.3-.2-.3-.2-.8.2-1C17.2 6.2 21 5 25.1 5c2.7 0 5.2.5 7.7 1.6.4.2.6.6.4 1-.2.4-.6.6-1 .4-2.2-1-4.6-1.4-7.1-1.4-3.7 0-7.3 1.1-10.4 3.2-.1 0-.3.1-.4.1zm11.1 31c-3.3 0-6.6-.8-9.5-2.5-.4-.2-.5-.7-.3-1 .2-.4.7-.5 1-.3 3.2 1.8 6.9 2.6 10.6 2.2 2.5-.2 4.8-1 6.9-2.1.4-.2.8-.1 1 .3.2.4.1.8-.3 1-2.3 1.3-4.8 2-7.5 2.3-.6 0-1.3.1-1.9.1zm.1-10.6c0 .3.3.6.6.6s.6-.3.6-.6-.3-.6-.6-.6c-.4 0-.6.3-.6.6zM25 19.2c0-.3-.3-.6-.6-.6s-.6.3-.6.6.3.6.6.6.6-.3.6-.6z" class="st2"/><path d="M25.2 13.8c-6.1 0-11 4.9-11 11s4.9 11 11 11 11-4.9 11-11-4.9-11-11-11zm-7.4 11c0-1.8 1.4-3.3 3.1-3.5h3.5c.1 0 .2-.1.2-.2s-.1-.2-.2-.2h-2.7c0-1.9 1.6-3.4 3.5-3.4s3.5 1.6 3.5 3.5c-.1 1.8-1.6 3.3-3.5 3.3-2.2 0-4 1.7-4.3 3.9-1.7-.1-3.1-1.6-3.1-3.4zm11.5 3.4H26c-.1 0-.2.1-.2.2s.1.2.2.2h2.7c0 1.9-1.6 3.4-3.5 3.4s-3.5-1.6-3.5-3.5v-.2c.1-1.8 1.6-3.3 3.5-3.3 2.2 0 4.1-1.7 4.3-3.9 1.8.2 3.1 1.7 3.1 3.5 0 2-1.4 3.5-3.3 3.6z" class="st2"/></g></switch></svg>