<?xml version="1.0" encoding="utf-8"?>
<!-- Generator: Adobe Illustrator 24.0.1, SVG Export Plug-In . SVG Version: 6.00 Build 0)  -->
<svg version="1.1" id="Layer_1" xmlns="http://www.w3.org/2000/svg" xmlns:xlink="http://www.w3.org/1999/xlink" x="0px" y="0px"
	 viewBox="0 0 50 50" style="enable-background:new 0 0 50 50;" xml:space="preserve">
<style type="text/css">
	.st0{fill:#A7ACB0;}
	.st1{fill:#4ECDC4;}
	.st2{fill:#46B8B0;}
	.st3{fill:#444444;}
</style>
<g>
	<g>
		<path class="st0" d="M0.2,14.2L0.2,14.2L0.2,14.2z"/>
	</g>
	<g>
		<path class="st1" d="M25.6,1.2c-11.5,0-21.1,8.1-23.3,19l38-13.8C36.2,3.1,31.2,1.2,25.6,1.2z"/>
	</g>
	<g>
		<path class="st2" d="M49.3,25c0-7.6-3.6-14.3-9.1-18.7l-38,13.8c-0.3,1.6-0.5,3.2-0.5,4.8c0,7,3.1,13.4,7.9,17.7l39.5-14.4
			C49.2,27.3,49.3,26.1,49.3,25z"/>
	</g>
	<g>
		<g>
			<path class="st3" d="M25.6,24c2.6,0,4.7-2,4.8-4.6v-0.2c0-2.6-2.2-4.8-4.8-4.8s-4.8,2.1-4.8,4.7h3.8c0.2,0,0.3,0.1,0.3,0.3
				s-0.1,0.3-0.3,0.3h-4.8h-0.1c-2.4,0.3-4.3,2.3-4.3,4.8s1.9,4.5,4.4,4.8C20,26.4,22.5,24,25.6,24z M24.4,17.8
				c-0.5,0-0.9-0.4-0.9-0.9s0.4-0.9,0.9-0.9s0.9,0.4,0.9,0.9C25.3,17.4,24.9,17.8,24.4,17.8z"/>
		</g>
		<g>
			<path class="st3" d="M31.5,19.8c-0.3,3-2.8,5.4-5.9,5.4c-2.6,0-4.7,2-4.8,4.6V30c0,2.7,2.2,4.8,4.8,4.8s4.8-2.1,4.8-4.7h-3.8
				c-0.2,0-0.3-0.1-0.3-0.3c0-0.2,0.1-0.3,0.3-0.3h4.6c2.5-0.1,4.6-2.2,4.6-4.8S33.8,20,31.5,19.8z M26.8,31.5
				c0.5,0,0.9,0.4,0.9,0.9c0,0.5-0.4,0.9-0.9,0.9s-0.9-0.4-0.9-0.9C25.9,31.8,26.3,31.5,26.8,31.5z"/>
		</g>
	</g>
	<path class="st3" d="M25.6,0.7C12.2,0.7,1.3,11.6,1.3,25s10.9,24.3,24.3,24.3S49.8,38.4,49.8,25S39,0.7,25.6,0.7z M25.6,46.8
		c-1.4,0-2.8-0.1-4.2-0.4c-2.9-1.6-5.3-4.9-7-9.1c3.4,1.1,7.2,1.7,11.2,1.7s7.8-0.6,11.1-1.7c-1.6,4.2-4.1,7.5-7,9.1
		C28.4,46.7,27,46.8,25.6,46.8z M25.6,38.1c-4.2,0-8.2-0.7-11.6-1.9c-1.1-3.3-1.8-7.1-1.8-11.2c0-4.3,0.7-8.3,2-11.7
		c3.3-1.2,7.2-1.8,11.4-1.8c4.1,0,8,0.7,11.4,1.8c1.2,3.4,2,7.4,2,11.7c0,4.1-0.6,7.9-1.8,11.2C33.8,37.4,29.8,38.1,25.6,38.1z
		 M3.8,25c0-1.6,0.2-3.1,0.5-4.6c1.6-2.8,4.7-5.2,8.8-6.8c-1.1,3.4-1.8,7.2-1.8,11.3c0,3.9,0.6,7.5,1.6,10.7
		c-4.1-1.7-7.2-4.1-8.8-6.9C3.9,27.6,3.8,26.3,3.8,25z M25.6,3.2c1.4,0,2.8,0.1,4.2,0.4c2.8,1.5,5.1,4.6,6.7,8.5
		c-3.3-1-7-1.6-10.9-1.6s-7.6,0.6-10.9,1.6c1.6-3.9,4-7,6.7-8.5C22.8,3.3,24.2,3.2,25.6,3.2z M39.8,25c0-4.1-0.6-8-1.8-11.3
		c4.1,1.6,7.2,4,8.8,6.8c0.3,1.5,0.5,3,0.5,4.6c0,1.3-0.1,2.6-0.3,3.8c-1.5,2.8-4.7,5.3-8.8,6.9C39.2,32.5,39.8,28.9,39.8,25z
		 M46.1,17.9c-2-2.2-5-4.1-8.5-5.4c-1.3-3.5-3.2-6.3-5.4-8.3C38.8,6.4,44,11.4,46.1,17.9z M18.9,4.2c-2.2,1.9-4,4.8-5.4,8.3
		c-3.6,1.3-6.5,3.2-8.5,5.4C7.2,11.4,12.4,6.4,18.9,4.2z M4.7,31.3c2,2.3,4.9,4.2,8.6,5.6c1.3,3.7,3.3,6.8,5.6,8.8
		C12.1,43.6,6.8,38.1,4.7,31.3z M32.2,45.8c2.3-2,4.3-5.1,5.6-8.8c3.6-1.4,6.6-3.3,8.6-5.6C44.3,38.1,39,43.6,32.2,45.8z"/>
</g>
<g>
	<circle class="st1" cx="-99.4" cy="43" r="20"/>
	<circle class="st2" cx="-79.4" cy="43" r="20"/>
</g>
</svg>
