<?xml version="1.0" encoding="utf-8"?>
<!-- Generator: Adobe Illustrator 27.5.0, SVG Export Plug-In . SVG Version: 6.00 Build 0)  -->
<svg version="1.1" id="Camada_3" xmlns="http://www.w3.org/2000/svg" xmlns:xlink="http://www.w3.org/1999/xlink" x="0px" y="0px"
	 viewBox="0 0 50 50" style="enable-background:new 0 0 50 50;" xml:space="preserve">
<style type="text/css">
	.st0{fill:#F56991;}
	.st1{fill:#DC5E82;}
	.st2{fill:#444444;}
	.st3{fill:none;stroke:#444444;stroke-linecap:round;stroke-linejoin:round;stroke-miterlimit:10;}
	.st4{fill:none;stroke:#444444;stroke-width:0.5;stroke-linecap:round;stroke-linejoin:round;stroke-miterlimit:10;}
	.st5{fill:none;stroke:#444444;stroke-width:2.5;stroke-linecap:round;stroke-linejoin:round;stroke-miterlimit:10;}
</style>
<g>
	<g>
		<path class="st0" d="M33.63,2.57L20.5,1.33c-1.23,0-14.82,7.19-14.82,8.42L0.83,21.29L42.01,6.64l0,0
			C42.01,5.41,34.86,2.57,33.63,2.57z"/>
		<path class="st1" d="M0.83,21.29l0.83,23.06l0.94,3.3L49,31.15c0.65-0.23-0.74-17.34-0.95-17.99l-6.03-6.52L0.83,21.29z"/>
	</g>
	<g>
		<g>
			<path class="st2" d="M25.07,19.86c2.62,0,4.68-2.06,4.77-4.59v-0.28c0-2.62-2.15-4.77-4.87-4.77c-2.62,0-4.77,2.15-4.87,4.77
				h3.74c0.19,0,0.37,0.19,0.37,0.37c0,0.19-0.19,0.37-0.37,0.37h-4.77h-0.09c-2.34,0.09-4.21,2.15-4.21,4.68s1.87,4.59,4.4,4.77
				C19.45,22.2,21.98,19.86,25.07,19.86z M23.85,13.59c-0.47,0-0.84-0.37-0.84-0.84c0-0.47,0.37-0.84,0.84-0.84
				c0.47,0,0.84,0.37,0.84,0.84C24.69,13.21,24.32,13.59,23.85,13.59z"/>
			<path class="st2" d="M30.96,15.55c-0.28,3-2.81,5.43-5.9,5.43c-2.62,0-4.68,2.06-4.77,4.59v0.19c0,2.71,2.15,4.87,4.87,4.87
				c2.62,0,4.77-2.15,4.87-4.77h-3.74c-0.19,0-0.37-0.19-0.37-0.37s0.19-0.37,0.37-0.37h4.59c2.43,0,4.49-2.15,4.49-4.68
				S33.4,15.83,30.96,15.55z M26.28,27.25c0.47,0,0.84,0.37,0.84,0.84c0,0.47-0.37,0.84-0.84,0.84c-0.47,0-0.84-0.37-0.84-0.84
				C25.44,27.63,25.82,27.25,26.28,27.25z"/>
			<path class="st3" d="M25.16,31.84v10.69l-0.27-0.27c-0.92-0.92-2.16-1.43-3.46-1.43H10.42c-1.79,0-3.24-1.45-3.24-3.24V21.71
				c0-1.79,1.45-3.24,3.24-3.24h2.59v1.46"/>
			<path class="st3" d="M37.31,40.82h-8.68c-1.13,0-2.21,0.45-3.01,1.25l-0.45,0.45V31.84"/>
			<path class="st4" d="M4.92,20.96v17.6c0,2.86,2.32,5.18,5.18,5.18h12.4c0,0,0.73,2.19,2.67,2.19s2.67-2.19,2.67-2.19h8.26"/>
			<line class="st4" x1="45.37" y1="20.96" x2="45.37" y2="37.33"/>
			<line class="st4" x1="11.67" y1="10.78" x2="16.75" y2="13.78"/>
			<line class="st4" x1="18.11" y1="6.95" x2="20.43" y2="10.01"/>
			<line class="st4" x1="24.93" y1="5.36" x2="24.93" y2="8.74"/>
			<line class="st4" x1="32.56" y1="6.95" x2="30.25" y2="10.01"/>
			<line class="st4" x1="33.93" y1="13.78" x2="39.01" y2="10.78"/>
			<path class="st3" d="M19.61,25.52"/>
			<path class="st3" d="M13.26,25.6"/>
			<path class="st3" d="M11.27,33.59"/>
			<polygon class="st3" points="34.55,34.3 39.47,45.6 41.68,43.25 44.11,45.68 46.05,43.74 43.38,41.07 45.32,39.12 			"/>
			<path class="st3" d="M36.58,20.06c0,6.51-5.27,11.78-11.78,11.78s-11.78-5.27-11.78-11.78"/>
			<path class="st3" d="M36.58,19.93v-1.46h3.32c1.79,0,3.24,1.45,3.24,3.24v16.2"/>
		</g>
		<path class="st5" d="M48.84,39.99V20.57c0-11.55-10.59-19.09-23.4-19.09c-12.59,0-23.56,7.68-23.95,18.9l-0.02,0v24.9
			c0,1.88,1.74,3.4,3.89,3.4h33.63"/>
	</g>
</g>
</svg>
