<?xml version="1.0" encoding="UTF-8"?>
<svg id="Camada_3" xmlns="http://www.w3.org/2000/svg" version="1.1" viewBox="0 0 50 50">
  <!-- Generator: Adobe Illustrator 29.2.1, SVG Export Plug-In . SVG Version: 2.1.0 Build 116)  -->
  <defs>
    <style>
      .st0 {
        fill: #ff6b6b;
      }

      .st1, .st2, .st3, .st4, .st5 {
        fill: none;
        stroke: #444;
      }

      .st1, .st2, .st3, .st5 {
        stroke-linecap: round;
      }

      .st1, .st2, .st5 {
        stroke-linejoin: round;
      }

      .st2 {
        stroke-width: 2.5px;
      }

      .st6 {
        fill: #444;
      }

      .st3, .st4 {
        stroke-miterlimit: 10;
      }

      .st5 {
        stroke-width: .5px;
      }
    </style>
  </defs>
  <g>
    <g>
      <path class="st0" d="M44.5,5.6H8c-2.9.1-6,1-6,3.9v13.7l-.2,10.1c.4,6.3,7,6.5,15.2,6l.9,5.2,15.4-5.5,15.6-5.5-.2-23.9-4.1-4.2Z"/>
      <g>
        <g>
          <g>
            <path class="st1" d="M32.7,38.6H7.1c-2.6,0-5.5-2.1-5.5-4.7"/>
            <path class="st1" d="M31.8,44.6h-13.8c-.5,0-.9-.6-.6-1l2.4-4.8h10.3l2.5,4.8c.2.5-.1,1-.7,1Z"/>
          </g>
          <circle class="st6" cx="24.9" cy="35.7" r="1.6"/>
        </g>
        <path class="st2" d="M48.5,34V11.6c0-3.4-2.8-6.2-6.2-6.2H7.7c-3.4,0-6.2,2.8-6.2,6.2v21.4c0,3.4,2.8,6.2,6.2,6.2h10.6l-1.8,4.5c-.4.9.3,1.8,1.2,1.9h14.3c1,0,1.6-.9,1.2-1.8l-1.9-4.6h5.8"/>
      </g>
    </g>
    <line class="st5" x1="2.5" y1="32.9" x2="47.9" y2="32.9"/>
    <line class="st5" x1="2.1" y1="32.9" x2="10.3" y2="32.9"/>
  </g>
  <g>
    <g>
      <path class="st6" d="M23.1,11.6h-.2c-.4,0-.7.3-.7.7s.3.7.7.7h.2c.4,0,.7-.3.7-.7s-.3-.7-.7-.7Z"/>
      <path class="st4" d="M29.2,18.5v-7.8c0-.7-.6-1.3-1.3-1.3h-7c-.7,0-1.3.6-1.3,1.3v2.6c0,.7-.6,1.3-1.3,1.3h-2.3c-.7,0-1.3.6-1.3,1.3v7.1c0,.7.6,1.3,1.3,1.3h2.5c.7,0,1.3-.6,1.3-1.3v-1.8c0-.7.6-1.3,1.3-1.3h6.9c.7,0,1.3-.6,1.3-1.3Z"/>
      <line class="st3" x1="21.6" y1="14.5" x2="16.3" y2="14.5"/>
    </g>
    <g>
      <path class="st6" d="M26.1,27.8h.2c.4,0,.7-.3.7-.7s-.3-.7-.7-.7h-.2c-.4,0-.7.3-.7.7s.3.7.7.7Z"/>
      <path class="st4" d="M19.9,20.9v7.8c0,.7.6,1.3,1.3,1.3h7c.7,0,1.3-.6,1.3-1.3v-2.6c0-.7.6-1.3,1.3-1.3h2.3c.7,0,1.3-.6,1.3-1.3v-7.1c0-.7-.6-1.3-1.3-1.3h-2.5c-.7,0-1.3.6-1.3,1.3v1.8c0,.7-.6,1.3-1.3,1.3h-6.9c-.7,0-1.3.6-1.3,1.3Z"/>
      <line class="st3" x1="27.6" y1="24.9" x2="32.9" y2="24.9"/>
    </g>
  </g>
</svg>