<?xml version="1.0" encoding="UTF-8"?>
<svg id="Camada_1" xmlns="http://www.w3.org/2000/svg" version="1.1" viewBox="0 0 50 50">
  <!-- Generator: Adobe Illustrator 29.1.0, SVG Export Plug-In . SVG Version: 2.1.0 Build 142)  -->
  <defs>
    <style>
      .st0 {
        fill: #f9f941;
      }

      .st1 {
        stroke-miterlimit: 10;
        stroke-width: .5px;
      }

      .st1, .st2, .st3 {
        fill: none;
        stroke: #444;
      }

      .st2, .st3 {
        stroke-linecap: round;
        stroke-linejoin: round;
      }

      .st3 {
        stroke-width: 2.5px;
      }

      .st4 {
        fill: #444;
      }

      .st5 {
        fill: #d1bd00;
      }
    </style>
  </defs>
  <polyline class="st5" points="17.4 26.3 22.1 19.6 24.6 27.4"/>
  <g>
    <path class="st0" d="M44.9,12.1l-5.6-3.6-7.7-4.4-6-2.8c-3.2,0-21.5,8.9-21.5,12.1l-.5,7.8.5,15.1,11.5,7.6,31-11c.7-.4-.8-18.7-1.8-20.7Z"/>
    <path class="st3" d="M30.1,46.1l-2.2,1.3c-1.7,1-3.8,1-5.5,0l-15.6-9c-1.7-1-2.7-2.8-2.7-4.7V15.7c0-2,1-3.8,2.7-4.7L22.5,2c1.7-1,3.8-1,5.5,0l15.6,9c1.7,1,2.7,2.8,2.7,4.7v18c0,2-1,3.8-2.7,4.7l-2.5,1.4"/>
    <g>
      <path class="st2" d="M28.8,39.8c0-.2-.7-1.3-.7-1.6,0-.5.2-.9.5-1.2h0c.3-.3.8-.5,1.3-.5h3.5l1.8-4c0-.2.2-.4.3-.5.2-.2.4-.3.7-.3h6.3c.2,0,.5,0,.7.3.2.2.3.4.3.7l.6,5.6M6.9,38.4l.9-5.9c0-.3.2-.5.3-.7.2-.2.4-.3.7-.3h6.3c.3,0,.5.1.7.3.1.1.2.3.3.5l1.8,4h3.5c.5,0,.9.2,1.3.5h0c.3.3.5.7.5,1.2s-.2,1.4-.4,1.6M17.4,8.4h13.6c.5,0,1,.2,1.4.6.3.4.6.8.6,1.4v4h1.5c.4,0,.8.2,1.1.5.3.3.5.7.5,1.1v7.1c0,.4-.2.8-.5,1.1h0c-.3.3-.7.5-1.1.5h-.4v.6c0,.1,0,.3-.1.4,0,.1-.2.2-.3.3h0c-.1,0-.3,0-.4,0-.1,0-.3,0-.4-.2l-1.4-1.2h-6.9c-.4,0-.8-.2-1.1-.5-.3-.3-.5-.7-.5-1.1v-1.1h-1.2l-2.1,1.8c-.1,0-.3.2-.4.2h0c-.1,0-.3,0-.4,0-.1,0-.3-.2-.3-.3,0-.1-.1-.3-.1-.4v-1.2h-.8c-.5,0-1-.2-1.4-.6-.4-.3-.6-.8-.6-1.3v-9.6c0-.5.2-1,.6-1.4.3-.3.8-.6,1.4-.6h0ZM9.6,25.7c.6-.6,1.4-.9,2.3-.9s1.8.4,2.4.9c.6.6,1,1.4,1,2.3s-.4,1.7-1,2.2c-.6.6-1.4.9-2.4.9s-1.7-.3-2.3-.9c-.6-.6-1-1.4-1-2.2s.4-1.7,1-2.3h0ZM39.5,24.8c.9,0,1.8.4,2.4.9.6.6,1,1.4,1,2.3s-.4,1.7-1,2.2c-.6.6-1.4.9-2.4.9s-1.7-.3-2.3-.9c-.6-.6-1-1.4-1-2.2s.4-1.7,1-2.3c.6-.6,1.4-.9,2.3-.9h0ZM38.5,35.7l-1.7,3.9-.2.4H14.8v-.4c-.1,0-1.8-3.9-1.8-3.9"/>
      <path class="st4" d="M23.7,17.2c-.4,0-.6-.1-.6-.5.1-1.1.8-1.7,1.5-2.1.8-.5,1.3-1.7.5-2.3-.2-.2-.7-.3-1.2-.2-.5,0-1,.3-1.2.6-.1.3-.2.4-.5.5h-.3c-.4,0-.6-.1-.5-.5.2-.9,1-1.8,2.4-1.9.9,0,1.7,0,2.2.5,1.5,1.4.9,3.4-.5,4.2-.6.4-.8.7-.9,1.1,0,.3-.2.5-.5.5h-.3Z"/>
      <path class="st4" d="M24.1,19.8c.4,0,.7-.4.7-.8,0-.4-.4-.7-.8-.6-.4,0-.7.4-.7.8,0,.4.4.7.8.6h0Z"/>
      <path class="st1" d="M22.8,21.8h7.3c1.5,0,2.7-1.2,2.7-2.7v-4.8"/>
    </g>
    <line class="st2" x1="14.6" y1="42" x2="35" y2="42"/>
  </g>
</svg>