<svg xmlns="http://www.w3.org/2000/svg" id="Camada_3" x="0" y="0" version="1.1" viewBox="0 0 50 50" xml:space="preserve"><style>.st3,.st5{fill:none}.st3,.st5,.st6{stroke:#444;stroke-miterlimit:10}.st5,.st6{stroke-width:.5}.st6{fill:#424242}</style><path fill="#ec6a6d" d="M31.14 4.34L25.17 1.5c-3.2 0-21.45 8.94-21.45 12.14l-.53 7.8L38.8 8.77l-7.66-4.43z"/><path fill="#e46160" d="M3.19 21.44l.53 15.13 11.5 7.56L46.23 33.1c.74-.42-.82-18.75-1.8-20.74L38.8 8.77 3.19 21.44z"/><path fill="none" stroke="#444" stroke-linecap="round" stroke-linejoin="round" stroke-miterlimit="10" stroke-width="2.5" d="M29.69 46.41l-2.2 1.27c-1.69.98-3.78.98-5.47 0L6.45 38.69a5.48 5.48 0 01-2.74-4.74V15.97a5.46 5.46 0 012.74-4.74l15.57-8.99c1.69-.98 3.78-.98 5.47 0l15.57 8.99a5.48 5.48 0 012.74 4.74v17.98a5.46 5.46 0 01-2.74 4.74l-2.46 1.42"/><path d="M25.83 16.79c.01-1.09-.48-1.87-1.37-2.4a6.19 6.19 0 00-1.48-.62c-1.73-.49-3.5-.46-5.27-.3-1.12.1-2.22.31-3.19.94-.64.42-1.01.97-.99 1.77l-.01 2.01c-.04.58.2.75.75.74 1.6-.02 3.19.01 4.79.02.38 0 .86.32.85.88 0 .57-.38.96-.75.96-1.42 0-2.85 0-4.27-.01 0 .01-2.63.03-3.95.02-1.56-.02-2.75.02-3.39 1.39-.98 2.08-.92 4.28-.52 6.47.15.81.5 1.61.89 2.33.44.81 1.19 1.32 2.14 1.39.62.05 1.25.01 1.88.03.36.01.5-.15.49-.5-.01-.69 0-1.38 0-2.07 0-2.84 1.38-4.2 4.23-4.18 1.92.01 3.84.03 5.76.01 2.2-.02 3.39-1.23 3.4-3.43.01-1.82-.01-3.64.01-5.45z" class="st3"/><path d="M33.18 24.15c-.15-.81-.5-1.61-.89-2.33-.44-.81-1.19-1.32-2.14-1.39-.62-.05-1.25-.01-1.88-.03-.36-.01-.5.15-.49.5.01.69 0 1.38 0 2.07 0 2.84-1.38 4.2-4.23 4.18-1.92-.01-3.84-.03-5.76-.01-2.2.02-3.39 1.23-3.4 3.43-.01 1.81.01 3.63-.01 5.44-.01 1.09.48 1.87 1.37 2.4.46.27.97.48 1.48.62 1.73.49 3.5.46 5.27.3 1.12-.1 2.22-.31 3.19-.94.64-.42.9-.84.99-1.77l.01-2.01c.04-.58-.2-.75-.75-.74-1.6.02-3.19-.01-4.79-.02-.38 0-.76-.28-.75-.83 0-.57.33-.83.7-.83 1.42 0 4.27-.01 4.27-.02 1.32 0 2.63-.01 3.95.01 1.56.02 2.7-.2 3.34-1.56.97-2.09.91-4.29.52-6.47z" class="st3"/><path fill="#3c3c3b" d="M16.49 17.31c-.72-.01-1.19-.5-1.18-1.23.01-.65.54-1.18 1.19-1.19.67-.01 1.23.55 1.23 1.23-.01.71-.52 1.2-1.24 1.19zm7.25 18.14c.72.01 1.19.5 1.18 1.23-.01.65-.54 1.18-1.19 1.19a1.23 1.23 0 01-1.23-1.23c.01-.7.52-1.19 1.24-1.19z"/><path d="M22.52 13.57c-.25-.37-.38-.77-.38-1.18 0-2.32 4.23-4.2 9.45-4.2s9.45 1.88 9.45 4.2-4.23 4.2-9.45 4.2c-2.14 0-4.11-.32-5.69-.85m15.14 1.9c0 2.22-3.88 4.04-8.8 4.19m8.8 1.06c0 2.11-3.25 3.79-7.82 4.08" class="st5"/><path d="M30.71 32.31c5.22 0 10.33-1.85 10.33-4.17V12.39m-18.9 0v1.06" class="st5"/><circle cx="38.15" cy="17.91" r=".79" class="st6"/><circle cx="38.15" cy="23.16" r=".79" class="st6"/><circle cx="38.15" cy="28.41" r=".79" class="st6"/></svg>