<svg xmlns="http://www.w3.org/2000/svg" id="Camada_1" x="0" y="0" version="1.1" viewBox="0 0 50 50" xml:space="preserve"><style>.st2{fill:#031326}</style><path fill="#acbfc0" d="M40.6 16.5c-.6-.6-.4-1.3.4-1.5 0 0 .7-.2 1.6-1.1 1-1 1.5-2.3 1.5-3.6L2.5 25.4c.1.1.1.2.2.2l6.8 6.8c.6.6.4 1.3-.4 1.5 0 0-.7.2-1.6 1.1-1 1-1.5 2.3-1.5 3.6l41.6-15.1c0-.1-.1-.1-.1-.2l-6.9-6.8z"/><path fill="#c0d5d7" d="M42.6 7.1c-1.9-1.9-5.1-1.9-7.1 0-.9.9-1.1 1.6-1.1 1.6-.2.9-.9 1.1-1.5.4l-6.8-6.8c-.6-.6-1.7-.6-2.4 0L17 9.2c-.6.6-.4 1.3.4 1.5 0 0 .7.2 1.6 1.1 1.9 1.9 1.9 5.1 0 7.1-1.9 1.9-5.1 1.9-7.1 0-.9-.9-1.1-1.6-1.1-1.6-.2-.9-.9-1.1-1.5-.5l-6.8 6.8c-.5.6-.5 1.5-.1 2.1L44 10.5c0-1.2-.4-2.4-1.4-3.4z"/><path d="M26 27.4c1.9 0 3.3-1.5 3.4-3.3V24c0-1.9-1.5-3.4-3.5-3.4-1.9 0-3.4 1.5-3.5 3.4h2.7c.1 0 .3.1.3.3s-.1.3-.3.3h-3.5c-1.7.1-3 1.5-3 3.3s1.3 3.3 3.1 3.4c.3-2.2 2.1-3.9 4.3-3.9zm-.9-4.4c-.3 0-.6-.3-.6-.6s.3-.6.6-.6.6.3.6.6-.2.6-.6.6z" class="st2"/><path d="M30.2 24.4c-.2 2.1-2 3.9-4.2 3.9-1.9 0-3.3 1.5-3.4 3.3v.1c0 1.9 1.5 3.5 3.5 3.5 1.9 0 3.4-1.5 3.5-3.4h-2.7c-.1 0-.3-.1-.3-.3s.1-.3.3-.3h3.3c1.7 0 3.2-1.5 3.2-3.3s-1.5-3.3-3.2-3.5zm-3.3 8.3c.3 0 .6.3.6.6s-.3.6-.6.6-.6-.3-.6-.6.2-.6.6-.6z" class="st2"/><path fill="#031326" d="M25 49.6c-.8 0-1.5-.3-2.1-.9l-6.4-6.4c-.2.4-.6 1.1-1.2 1.7-1.2 1.2-2.7 1.8-4.4 1.8-1.7 0-3.2-.7-4.4-1.8-1.2-1.2-1.8-2.7-1.8-4.4 0-1.7.6-3.2 1.8-4.4.7-.7 1.3-1 1.7-1.2l-6.4-6.4c-.5-.5-.9-1.3-.9-2.1s.3-1.5.9-2.1l6.8-6.8c.6-.6 1.4-.8 2.1-.6.7.2 1.3.8 1.5 1.7 0 0 .1.4.7 1 1.5 1.5 3.8 1.5 5.3 0s1.5-3.8 0-5.3c-.6-.6-1.1-.7-1.1-.8-.8-.2-1.5-.7-1.7-1.5-.2-.7 0-1.5.7-2.2l6.8-6.8c.5-.5 1.3-.9 2.1-.9s1.5.3 2.1.9l6.4 6.4c.2-.3.5-.9 1.2-1.5 1.2-1.2 2.7-1.8 4.4-1.8s3.2.6 4.4 1.8c1.2 1.2 1.8 2.7 1.8 4.4 0 1.7-.6 3.2-1.8 4.4-.7.7-1.3 1-1.7 1.2l6.4 6.4c.5.5.9 1.3.9 2.1s-.3 1.5-.9 2.1l-4.9 4.9c-.5.5-1.3.5-1.8 0s-.5-1.3 0-1.8l4.9-4.9c.1-.1.1-.2.1-.3 0-.1 0-.2-.1-.3l-6.8-6.8c-.6-.6-.8-1.4-.6-2.2.2-.7.8-1.3 1.7-1.5 0 0 .4-.1 1-.7.7-.7 1.1-1.6 1.1-2.6s-.4-1.9-1.1-2.6c-1.4-1.4-3.9-1.4-5.3 0-.6.6-.7 1.1-.7 1.1-.2.8-.7 1.5-1.5 1.7-.7.2-1.5 0-2.2-.7L25.3 4c-.1-.1-.2-.1-.3-.1-.1 0-.2 0-.3.1l-6.4 6.4c.4.2 1.1.6 1.7 1.2 2.4 2.4 2.4 6.4 0 8.8-2.4 2.4-6.4 2.4-8.8 0-.7-.7-1-1.3-1.2-1.7l-6.4 6.4c-.1.1-.1.2-.1.3s0 .2.1.3l6.8 6.8c.6.6.9 1.4.7 2.2s-.8 1.3-1.7 1.5c0 0-.4.1-1 .7-.7.7-1.1 1.6-1.1 2.6s.4 1.9 1.1 2.6c.7.7 1.6 1.1 2.6 1.1s1.9-.4 2.6-1.1c.6-.6.7-1.1.7-1.1.2-.8.7-1.5 1.5-1.7.7-.2 1.5 0 2.2.7l6.8 6.8c.2.2.4.2.6 0l4.4-4.4c.5-.5 1.3-.5 1.8 0s.5 1.3 0 1.8l-4.4 4.4c-.7.7-1.4 1-2.2 1z"/></svg>