<svg xmlns="http://www.w3.org/2000/svg" id="Layer_1" x="0" y="0" version="1.1" viewBox="0 0 50 50" xml:space="preserve"><style>.st0{fill:#031326}</style><circle cx="27.2" cy="24.5" r="3.9" class="st0"/><circle cx="36" cy="24.5" r="3.9" class="st0"/><circle cx="44.7" cy="24.5" r="3.9" class="st0"/><path fill="#fcc34f" d="M23.5 25l1.4-1.4-21.3 7.8c1.2 4 3.5 7.6 6.6 10.3l22.2-8.1-8.9-8.6z"/><path fill="#fdcf72" d="M40.3 8.6c-4.2-3.9-9.6-6-15.3-6-12.3 0-22.4 10-22.4 22.4 0 2.2.3 4.4.9 6.4l21.3-7.8 15.5-15z"/><path d="M25.1 48.7C12 48.7 1.4 38 1.4 25S12 1.3 25.1 1.3c6 0 11.8 2.3 16.1 6.4l1 .9L25.3 25l7.9 7.7c.5.5.5 1.3 0 1.8s-1.3.5-1.8 0L21.8 25 38.5 8.7C34.7 5.6 30 3.8 25.1 3.8 13.4 3.8 3.9 13.3 3.9 25s9.5 21.2 21.2 21.2c5.1 0 9.8-1.7 13.7-5 .5-.4 1.3-.4 1.8.1.4.5.4 1.3-.1 1.8-4.5 3.6-9.8 5.6-15.4 5.6z" class="st0"/><path d="M20.7 17c-2 0-3.5-1.6-3.5-3.5 0-2 1.6-3.5 3.5-3.5 2 0 3.5 1.6 3.5 3.5S22.6 17 20.7 17z" class="st0"/></svg>