<?xml version="1.0" encoding="utf-8"?>
<!-- Generator: Adobe Illustrator 24.0.0, SVG Export Plug-In . SVG Version: 6.00 Build 0)  -->
<svg version="1.1" id="Layer_1" xmlns="http://www.w3.org/2000/svg" xmlns:xlink="http://www.w3.org/1999/xlink" x="0px" y="0px"
	 viewBox="0 0 50 50" style="enable-background:new 0 0 50 50;" xml:space="preserve">
<style type="text/css">
	.st0{fill:#4ECDC4;}
	.st1{fill:#46B8B0;}
	.st2{fill:none;stroke:#444444;stroke-width:2.5;stroke-linecap:round;stroke-miterlimit:10;}
	.st3{fill:#444444;}
	.st4{fill:none;stroke:#444444;stroke-width:1.5;stroke-linecap:round;stroke-miterlimit:10;}
</style>
<g>
	<path class="st0" d="M47.1,8.9c-2.4-2-6.8-2.4-11.9-1.2c-2.2-4-5.4-6.4-8.9-6.5s-6.8,2-9.4,5.8c-5-1.5-9.3-1.5-11.9,0.4
		c-3.9,2.8-2.7,9.2,2.2,16.2L47.1,8.9C47.1,9,47.1,8.9,47.1,8.9z"/>
</g>
<g>
	<path class="st1" d="M42.7,25.5c5.9-6.8,7.8-13.3,4.1-16.7L7.2,23.3c0.2,0.3,0.4,0.6,0.6,0.8c-6,6.8-7.9,13.4-4.1,16.7l39.7-14.5
		C43.2,26,42.9,25.7,42.7,25.5z"/>
</g>
<g>
	<path class="st2" d="M42.3,25.7"/>
</g>
<g>
	<path class="st3" d="M24.4,49.8c-0.1,0-0.2,0-0.3,0c-3.6-0.1-6.9-2.3-9.4-6.3c-5.3,1-9.4,0.4-11.9-1.7c-1.4-1.2-2.2-2.9-2.3-4.8
		c-0.2-3.6,1.7-8.1,5.6-12.7C2.6,19.4,1,14.8,1.5,11.2c0.3-1.9,1.2-3.5,2.7-4.6c2.6-2,6.8-2.2,12-0.8C19,2.1,22.5,0.1,26,0.3
		c3.6,0.1,6.9,2.3,9.4,6.3c5.3-1,9.4-0.4,11.9,1.7c1.4,1.2,2.2,2.9,2.3,4.8c0.3,3.8-2,8.6-6.2,13.5c-0.5,0.5-1.2,0.6-1.8,0.1
		c-0.5-0.5-0.6-1.2-0.1-1.8c3.8-4.3,5.8-8.6,5.6-11.7c-0.1-1.3-0.6-2.3-1.5-3.1c-2-1.7-5.7-2.1-10.6-1l-0.9,0.2l-0.5-0.8
		c-2.1-3.6-4.9-5.7-7.8-5.8c-2.9-0.1-5.8,1.7-8.2,5.2l-0.5,0.8l-0.9-0.3C11.5,6.9,7.7,7,5.6,8.6c-0.9,0.7-1.5,1.7-1.7,3
		c-0.4,3,1.3,7.4,4.7,12.1l0.6,0.8l-0.7,0.8C4.8,29.5,2.8,33.8,3,36.8c0.1,1.3,0.6,2.3,1.5,3.1c2,1.7,5.7,2.1,10.6,1l0.9-0.2
		l0.5,0.8c2.1,3.6,4.9,5.7,7.8,5.8s5.8-1.7,8.2-5.2l0.5-0.8l0.9,0.3c4.8,1.4,8.5,1.4,10.6-0.2c2.7-2,1.7-6,0.9-8.2
		c-0.2-0.6,0.1-1.4,0.7-1.6c0.6-0.2,1.4,0.1,1.6,0.7c1.9,4.9,1.2,8.9-1.7,11.1c-2.6,2-6.8,2.2-12,0.8C31.2,47.9,27.8,49.8,24.4,49.8
		z"/>
</g>
<g>
	<g>
		<path class="st3" d="M25,24.6c1.9,0,3.4-1.5,3.5-3.3v-0.2c0-1.9-1.6-3.5-3.5-3.5s-3.5,1.5-3.5,3.4h2.7c0.1,0,0.2,0.1,0.2,0.2
			s-0.1,0.2-0.2,0.2h-3.5h-0.1c-1.7,0.2-3.1,1.7-3.1,3.5s1.4,3.3,3.1,3.4C20.9,26.3,22.8,24.6,25,24.6z M24.1,20
			c-0.3,0-0.6-0.3-0.6-0.6c0-0.3,0.3-0.6,0.6-0.6c0.3,0,0.6,0.3,0.6,0.6C24.8,19.8,24.5,20,24.1,20z"/>
	</g>
	<g>
		<path class="st3" d="M29.3,21.5c-0.2,2.2-2,3.9-4.3,3.9c-1.9,0-3.4,1.5-3.5,3.3v0.2c0,1.9,1.6,3.5,3.5,3.5s3.5-1.5,3.5-3.4h-2.7
			c-0.1,0-0.2-0.1-0.2-0.2s0.1-0.2,0.2-0.2h3.3c1.8-0.1,3.3-1.6,3.3-3.5C32.4,23.2,31,21.7,29.3,21.5z M25.9,30
			c0.3,0,0.6,0.3,0.6,0.6s-0.3,0.6-0.6,0.6c-0.3,0-0.6-0.3-0.6-0.6S25.5,30,25.9,30z"/>
	</g>
</g>
<g>
	<path class="st4" d="M47.2,35.8"/>
</g>
<path class="st3" d="M47.1,35.1c-0.4,0.1-0.7,0.5-0.6,0.9c0.3,1.9,0.2,4.4-1.8,5.9c-2.2,1.6-5.8,1.7-10.1,0.5
	c2.1-3.3,3.5-7.5,4.2-12.1C45,24.7,48.9,18.7,49,14c0.1-2.2-0.7-4.1-2.2-5.4C44.4,6.4,40.1,6,35,7c-2.4-3.9-5.6-6.2-9.1-6.3
	c-0.1,0-0.2,0-0.3,0c-3.4,0-6.7,2.1-9.2,5.6C11.4,4.9,7.1,5,4.5,7C2.9,8.2,2,10,1.9,12.2c-0.1,3.5,1.6,7.7,4.8,12.1
	C3.2,28.4,1.1,32.6,1,36c-0.1,2.2,0.7,4.1,2.2,5.4c1.7,1.4,4.1,2.1,7,2.1c1.5,0,3.1-0.2,4.8-0.5c2.4,3.9,5.6,6.2,9.1,6.3
	c0.1,0,0.2,0,0.3,0c3.4,0,6.6-2,9.2-5.6c2.2,0.6,4.2,0.9,6.1,0.9c2.3,0,4.3-0.5,5.8-1.6c2.1-1.6,3-4.1,2.4-7.4
	C47.9,35.3,47.5,35,47.1,35.1z M33.3,41.6c-0.1,0.1-0.1,0.2-0.2,0.3c-2.2-0.7-4.5-1.7-6.9-3c2.9-1.5,5.8-3.2,8.6-5.3
	c0.8-0.6,1.6-1.2,2.3-1.8C36.2,35.5,35,38.9,33.3,41.6z M15.5,40.9c-1.5-2.9-2.5-6.3-3-10c0.7,0.7,1.4,1.3,2.1,2
	c2.7,2.3,5.4,4.3,8.2,6c-2.5,1.1-4.9,1.9-7.1,2.5C15.6,41.2,15.6,41.1,15.5,40.9z M10.7,26.9c-0.7-0.8-1.4-1.7-2.1-2.5
	c0.7-0.8,1.5-1.6,2.3-2.3c-0.1,0.8-0.1,1.6-0.2,2.4C10.7,25.3,10.7,26.1,10.7,26.9z M15.7,31.7c-1.2-1-2.3-2.1-3.3-3.2
	c-0.1-1.3-0.1-2.7-0.1-4.1c0.1-1.4,0.2-2.7,0.4-4c1.1-1,2.3-2,3.6-2.9c3-2.2,6.2-4.1,9.3-5.6c3,1.7,6,3.9,8.9,6.3
	c1.2,1,2.3,2.1,3.3,3.2c0.1,1.3,0.1,2.7,0.1,4.1c-0.1,1.4-0.2,2.7-0.4,4c-1.1,1-2.3,2-3.6,2.9c-3,2.2-6.2,4.1-9.3,5.6
	C21.5,36.3,18.5,34.2,15.7,31.7z M13,18.2c0.8-3.9,2.2-7.4,3.9-10.1c2.2,0.7,4.6,1.7,7,3c-2.9,1.5-5.8,3.2-8.6,5.3
	C14.5,17,13.8,17.6,13,18.2z M34.5,9.1c1.5,2.9,2.5,6.3,3,10c-0.7-0.7-1.4-1.3-2.1-2c-2.6-2.3-5.4-4.3-8.1-6
	c2.5-1.1,4.9-1.9,7.1-2.4C34.4,8.8,34.4,8.9,34.5,9.1z M39.1,28c0.1-0.8,0.1-1.6,0.2-2.4c0-0.8,0-1.6,0-2.4c0.7,0.8,1.4,1.7,2.1,2.5
	C40.6,26.4,39.9,27.2,39.1,28z M40,8c2.5,0,4.5,0.6,5.9,1.7c1.2,1,1.7,2.4,1.7,4.2c-0.1,3-2,6.8-5.2,10.6c-1-1.2-2-2.5-3.2-3.7
	c-0.4-4.6-1.5-8.9-3.3-12.4C37.3,8.1,38.7,8,40,8z M25.6,2.2c0.1,0,0.2,0,0.3,0c2.8,0.1,5.5,1.9,7.6,5.1C31,8,28.3,8.9,25.6,10.2
	c-2.6-1.5-5.2-2.7-7.7-3.5C20.1,3.9,22.7,2.2,25.6,2.2z M3.4,12.2c0.1-1.8,0.7-3.1,2-4.1c2.2-1.6,5.8-1.7,10.1-0.5
	c-2,3.2-3.5,7.4-4.2,12.1C10,20.8,8.8,22,7.7,23.1C4.9,19.1,3.3,15.3,3.4,12.2z M4.1,40.3c-1.2-1-1.7-2.4-1.7-4.2
	c0.1-3,2-6.8,5.2-10.6c1,1.2,2,2.5,3.2,3.7c0.4,4.6,1.5,8.9,3.3,12.4l0,0C9.8,42.5,6.2,42.1,4.1,40.3z M24.1,47.8
	c-2.8-0.1-5.5-1.9-7.6-5.1c2.5-0.6,5.2-1.6,7.9-2.9c2.6,1.5,5.2,2.6,7.7,3.5C29.8,46.3,27,47.9,24.1,47.8z"/>
</svg>
