<?xml version="1.0" encoding="utf-8"?>
<!-- Generator: Adobe Illustrator 22.0.1, SVG Export Plug-In . SVG Version: 6.00 Build 0)  -->
<svg version="1.1" id="Layer_1" xmlns="http://www.w3.org/2000/svg" xmlns:xlink="http://www.w3.org/1999/xlink" x="0px" y="0px"
	 viewBox="0 0 50 50" style="enable-background:new 0 0 50 50;" xml:space="preserve">
<style type="text/css">
	.st0{fill:#DC5E82;}
	.st1{fill:#F56991;}
	.st2{fill:#031326;}
</style>
<g>
	<path class="st0" d="M48,26.5C48,26.5,48,26.5,48,26.5l-7.1-12.8L3.4,27.4l-2.1,4.8c0,0,0,0,0,0.1l0,0l0,3.1c0,0,0,0,0,0.1
		c0,0,0,0,0,0c0,0,0,0,0,0c0,0,0.1,0.1,0.2,0.1c0,0,0,0,0,0l0.2,0l0,0c0,0,0.4,0.1,1.1,0.2c0.1,0,0.2,0,0.3,0
		C4,35.9,5,36.1,6.2,36.3c0.3,0,0.6,0.1,0.9,0.1c1.5,0.2,3.3,0.5,5.2,0.8c0.3,0,0.5,0.1,0.8,0.1c0.8,0.1,1.7,0.2,2.5,0.4
		c1.2,0.2,2.4,0.3,3.5,0.5l28.1-10.2L47,27.3l0.7-0.1c0.2,0,0.3-0.1,0.3-0.2C48,27,48,26.5,48,26.5L48,26.5z"/>
</g>
<g>
	<path class="st1" d="M38.4,9.2C38.3,9.1,38.1,9,37.8,9l-17.3,3.2c-0.2-0.1-0.4-0.1-0.6,0l-0.3,0.2L19,12.5c-0.2,0-0.2,0.1-0.3,0.2
		l0,0c0,0,0,0,0,0.1v0c0,0,0,0.1,0,0.2L6,20.3c-0.1,0.1-0.1,0.1-0.1,0.2l0,0c0,0,0,0.6,0,1.2l-2.4,5.7l37.5-13.7L38.4,9.2z"/>
</g>
<g>
	<path class="st2" d="M32.2,40.4c0,0-0.1,0-0.1,0L2.2,36.1c-0.2,0-0.3-0.1-0.4-0.2c0-0.1-0.1-0.2,0-0.3l4.7-10.8
		c0-0.1,0.1-0.2,0.3-0.2l0.1,0.2c-0.1,0-0.1,0.1-0.1,0.1L2,35.7c0,0,0,0,0,0c0,0,0.1,0.1,0.2,0.1l29.8,4.3c0.2,0,0.4-0.1,0.4-0.1
		l3.3-7.8l0.2,0.1l-3.3,7.8C32.7,40.3,32.4,40.4,32.2,40.4z"/>
</g>
<g>
	<path class="st2" d="M32.2,37.7c0,0-0.1,0-0.1,0L2.2,33.4c-0.2,0-0.3-0.1-0.4-0.2c0-0.1-0.1-0.2,0-0.3l4.4-10.3l0.2,0.1L2,33
		c0,0,0,0,0,0c0,0,0.1,0.1,0.2,0.1l29.8,4.3c0.2,0,0.4-0.1,0.4-0.1l1.8-4.3l0.2,0.1l-1.8,4.3C32.7,37.6,32.4,37.7,32.2,37.7z"/>
</g>
<g>
	<path class="st2" d="M32.2,40.4c0,0-0.1,0-0.1,0c-0.4-0.1-29.6-4.2-29.6-4.2c-0.3,0-0.5-0.1-0.6-0.2l-0.1-0.2l0-3.2l0.1,0l24.9,3.6
		l0,0.2L2,32.8l0,2.9l0,0.1c0,0,0.2,0.1,0.4,0.1c0,0,29.3,4.2,29.6,4.2c0.2,0,0.3,0,0.4-0.1v-2.9l-4.3-0.6l0-0.2l4.5,0.6v3.2l0,0
		C32.7,40.2,32.5,40.4,32.2,40.4z"/>
</g>
<g>
	<polygon class="st2" points="27.7,36.8 27.7,33.8 28.5,33.4 28.7,33.6 27.9,34 27.9,36.4 35.7,32.2 35.8,32.4 	"/>
</g>
<g>
	<path class="st2" d="M27.8,34.2L6.4,21.8c-0.1-0.1-0.2-0.2-0.2-0.3c0-0.1,0.1-0.2,0.2-0.3l12.9-7.4l0.1,0.2L6.5,21.5
		c-0.1,0-0.1,0.1-0.1,0.1c0,0,0,0,0.1,0.1L27.9,34L27.8,34.2z"/>
</g>
<g>
	<path class="st2" d="M28.4,34.1l-22-12.7v2.9c0,0,0,0.1,0.1,0.1l0.4,0.2l-0.1,0.2l-0.4-0.2c0,0-0.2-0.1-0.2-0.3v-3.3L6.4,21
		l22.2,12.8L28.4,34.1z"/>
</g>
<g>
	<path class="st2" d="M27.7,36.8C27.7,36.8,27.6,36.8,27.7,36.8L6.8,24.7c-0.1,0-0.1-0.1,0-0.2c0-0.1,0.1-0.1,0.2,0l20.8,12.1
		c0.1,0,0.1,0.1,0,0.2C27.8,36.8,27.7,36.8,27.7,36.8z"/>
</g>
<g>
	<path class="st2" d="M28.5,33.7v-3l0.1,0l18-3.4l0,3.1l-0.1,0L28.5,33.7z M28.7,31v2.5l17.6-3.2l0-2.6L28.7,31z"/>
</g>
<g>
	<path class="st2" d="M29,30.9c-0.2,0-0.5-0.1-0.5-0.2l-9.4-16.9c0-0.1,0-0.2,0-0.3c0.1-0.1,0.2-0.2,0.4-0.2l18.4-3.4
		c0.3-0.1,0.6,0,0.7,0.2l9.4,16.9c0,0.1,0,0.2,0,0.3c-0.1,0.1-0.2,0.2-0.4,0.3l-18.4,3.4C29.1,30.9,29,30.9,29,30.9z M38,10
		c0,0-0.1,0-0.1,0l-18.4,3.4c-0.1,0-0.2,0.1-0.2,0.1c0,0,0,0,0,0l9.4,16.9c0,0.1,0.2,0.2,0.4,0.1l18.4-3.4c0.1,0,0.2-0.1,0.2-0.1
		c0,0,0,0,0,0l-9.4-16.9C38.3,10.1,38.2,10,38,10z"/>
</g>
<g>
	<path class="st2" d="M26.6,27.5L19,14.1v2.6c0,0,0,0.1,0.1,0.2c0,0,0.1,0.1,0.1,0.2c0.5,0.8,1.7,3,3.1,5.6l2.5,4.5l-0.2,0.1
		l-2.5-4.5c-1.4-2.5-2.6-4.7-3.1-5.6c0-0.1-0.1-0.1-0.1-0.2c-0.1-0.1-0.1-0.2-0.1-0.3v-3.5l8,14.2L26.6,27.5z"/>
</g>
<g>
	<path class="st2" d="M28.7,33.9l-0.1,0c0,0,0,0-0.1,0c-0.2,0-0.3-0.1-0.5-0.4c-0.1-0.2-1.9-3.5-3.5-6.3l0.2-0.1
		c2.1,3.9,3.4,6.1,3.5,6.3c0.1,0.2,0.2,0.3,0.2,0.3v-2.9l-1.9-3.3l0.2-0.1l1.9,3.3V33.9z"/>
</g>
<g>
	<g>
		<path class="st2" d="M33.3,20.2c1.4-0.6,2.1-2.3,1.5-3.7l-0.1-0.1c-0.6-1.5-2.4-2.1-3.9-1.5c-1.5,0.6-2.1,2.4-1.5,3.8l2.1-0.9
			c0.1,0,0.2,0,0.3,0.1s0,0.2-0.1,0.3L29,19.3l0,0c-1.3,0.7-1.8,2.3-1.2,3.7c0.6,1.4,2.2,2,3.6,1.6C30.8,22.9,31.6,20.9,33.3,20.2z
			 M31.1,17c-0.3,0.1-0.6,0-0.7-0.3s0-0.6,0.3-0.7s0.6,0,0.7,0.3S31.4,16.9,31.1,17z"/>
	</g>
	<g>
		<path class="st2" d="M35.6,16.4c0.6,1.7-0.2,3.7-2,4.4c-1.4,0.6-2.1,2.3-1.5,3.7l0.1,0.1c0.7,1.5,2.4,2.2,3.9,1.5
			c1.5-0.6,2.1-2.3,1.5-3.8l-2.1,0.9c-0.1,0-0.2,0-0.3-0.1s0-0.2,0.1-0.3l2.6-1.1c1.4-0.7,2-2.4,1.3-3.8
			C38.6,16.6,37,15.9,35.6,16.4z M35.8,24c0.3-0.1,0.6,0,0.7,0.3c0.1,0.3,0,0.6-0.3,0.7c-0.3,0.1-0.6,0-0.7-0.3
			C35.5,24.4,35.6,24.1,35.8,24z"/>
	</g>
</g>
<g>
	<path class="st2" d="M32.6,41.4c-0.1,0-0.1,0-0.2,0L0.7,36.7l-0.1-4.5l4.4-10.5v-1.6L18.3,12l2.3-0.4l18.3-3.1l9.9,17.9l0.1,1.7
		l-0.6,0.2l1.1,2.5l-2.7,0.5c-0.7,0.1-1.3-0.3-1.5-1c-0.1-0.6,0.2-1.1,0.7-1.4L44.9,27l1.1-0.4l-8.5-15.3l-18.4,3.1L7.5,21.5v0.7
		L3.1,32.7l0,1.9L32.8,39c0.7,0.1,1.1,0.7,1,1.4C33.7,41,33.2,41.4,32.6,41.4z"/>
</g>
<circle class="st1" cx="-39.4" cy="62.7" r="20"/>
<circle class="st0" cx="-19.4" cy="62.7" r="20"/>
</svg>
