<?xml version="1.0" encoding="utf-8"?>
<!-- Generator: Adobe Illustrator 22.1.0, SVG Export Plug-In . SVG Version: 6.00 Build 0)  -->
<svg version="1.1" id="Layer_1" xmlns="http://www.w3.org/2000/svg" xmlns:xlink="http://www.w3.org/1999/xlink" x="0px" y="0px"
	 viewBox="0 0 50 50" style="enable-background:new 0 0 50 50;" xml:space="preserve">
<style type="text/css">
	.st0{fill:#E56060;}
	.st1{fill:#FF6B6B;}
	.st2{fill:#444444;}
</style>
<g>
	<path class="st0" d="M4.1,25.5c0,0.3,0,0.5,0,0.8c0,6.1,2.6,11.6,6.8,15.4c-0.1,0.4-0.2,0.7-0.2,1.2c0,2.2,1.8,4,4,4
		c1.1,0,2-0.4,2.7-1.1c1.6,0.6,3.3,1,5.1,1.3l17.6-6.4c3.5-3.7,5.7-8.8,5.7-14.3c0-0.3,0-0.6,0-0.9c1.2-0.7,2.1-2,2.1-3.5
		c0-2.2-1.7-3.9-3.8-4c-2.7-6.4-8.4-11-15.3-12.3c-0.5-1.7-2-2.9-3.8-2.9S21.7,4,21.2,5.7C14.2,7,8.5,11.7,5.8,18
		C3.7,18.2,2,19.9,2,22C2,23.5,2.9,24.8,4.1,25.5z"/>
	<g>
		<path class="st1" d="M36.7,8.9c-2.3-1.6-5-2.7-7.8-3.2c-0.5-1.7-2-2.9-3.8-2.9S21.8,4,21.3,5.7C14.2,7,8.5,11.7,5.8,18
			c-1.9,0.1-3.4,1.6-3.7,3.5L36.7,8.9z"/>
	</g>
	<path class="st2" d="M25,11c-8.4,0-15.2,6.8-15.2,15.2S16.6,41.4,25,41.4s15.2-6.8,15.2-15.2C40.2,17.9,33.4,11,25,11z M25,41.3
		c-8.3,0-15-6.7-15-15s6.7-15,15-15s15,6.7,15,15C40,34.5,33.3,41.3,25,41.3z"/>
	<path class="st2" d="M49.2,21.8c0-2.5-1.8-4.7-4.2-5.2C42,10.4,36.4,6,29.8,4.5c-0.9-1.8-2.7-3-4.8-3s-3.9,1.2-4.8,3
		C13.5,6,7.8,10.5,4.9,16.8c-2.4,0.5-4.1,2.6-4.1,5.1c0,1.6,0.8,3.1,2,4.1v0.1c0,5.9,2.4,11.7,6.7,15.8c0,0.3-0.1,0.5-0.1,0.7
		c0,2.9,2.4,5.3,5.3,5.3c1.1,0,2.1-0.3,3-0.9c2.4,0.8,4.8,1.3,7.3,1.3c2.4,0,4.9-0.4,7.2-1.2c0.9,0.6,1.9,0.9,2.9,0.9
		c0.7,0,1.2-0.6,1.2-1.2s-0.6-1.2-1.2-1.2c-0.7,0-1.3-0.3-1.9-0.7l-0.4-0.3c1.8-0.8,3.4-1.8,4.9-3c-0.1,0.4,0,0.8,0.3,1.1
		c0.5,0.5,1.3,0.6,1.8,0.1c4.7-4.2,7.3-10.2,7.3-16.4c0-0.1,0-0.2,0-0.3C48.4,25,49.2,23.5,49.2,21.8z M44.1,19.1
		c1.5,0.1,2.6,1.3,2.6,2.8c0,1-0.6,1.9-1.5,2.4l-0.4,0.2c-0.2-1.9-0.6-3.7-1.3-5.4H44.1z M22.4,6.1c0.3-1.2,1.4-2,2.6-2
		s2.3,0.8,2.6,2l0.1,0.5c-0.9-0.1-1.8-0.2-2.8-0.2S23,6.5,22.1,6.6L22.4,6.1z M17,44.5l-0.4,0.4c-0.5,0.5-1.2,0.8-1.9,0.8
		c-1.5,0-2.8-1.2-2.8-2.8c0-0.2,0-0.5,0.1-0.8l0.1-0.5C13.7,42.7,15.3,43.7,17,44.5z M5.1,24.6l-0.4-0.2C3.8,23.9,3.3,23,3.3,22
		c0-1.4,1.1-2.6,2.6-2.7h0.5C5.7,20.9,5.3,22.7,5.1,24.6z M32.7,44.4c-1.3,0.5-2.6,0.9-3.9,1.2c-1.7,0.3-3.5,0.5-5.3,0.3
		c-1.8-0.1-3.6-0.5-5.2-1.1c-0.1,0-0.2-0.1-0.3-0.1l-0.7-0.3c-1.8-0.8-3.5-1.8-5-3.1l-0.5-0.4c-4.1-3.7-6.4-9-6.4-14.5
		c0-0.1,0-0.3,0-0.4s0-0.2,0-0.4V25c0.1-2.2,0.6-4.3,1.4-6.2l0.1-0.2c0,0,0,0,0-0.1c0.2-0.4,0.4-0.9,0.6-1.3
		c0.1-0.2,0.2-0.3,0.3-0.5c0.3-0.5,0.5-0.9,0.8-1.4c0,0,0,0,0-0.1c0.3-0.5,0.7-0.9,1-1.3c0.1-0.1,0.1-0.1,0.2-0.2
		c0.4-0.4,0.8-0.9,1.2-1.3c0,0,0,0,0.1-0.1c0.4-0.4,0.8-0.8,1.3-1.1l0.1-0.1c0.4-0.4,0.9-0.7,1.3-1C13.9,10,14,10,14.1,9.9
		c0.4-0.2,0.8-0.5,1.1-0.7c0.2-0.1,0.3-0.2,0.5-0.3c0.4-0.2,0.7-0.4,1.1-0.5c0.3-0.1,0.5-0.2,0.8-0.3C17.8,8,18,7.9,18.2,7.9
		c0.5-0.2,1-0.3,1.6-0.5c0.1,0,0.3-0.1,0.4-0.1c0.3-0.1,0.7-0.2,1-0.2h0.1c1.1-0.2,2.3-0.3,3.5-0.3s2.3,0.1,3.5,0.3h0.1
		c0.3,0.1,0.7,0.1,1,0.2c0.1,0,0.3,0.1,0.4,0.1c0.5,0.1,1.1,0.3,1.6,0.5c0.4-0.1,0.6,0,0.8,0.1c0.3,0.1,0.5,0.2,0.8,0.3
		s0.6,0.3,0.9,0.5c0.3,0.1,0.5,0.3,0.8,0.4c0.3,0.2,0.6,0.4,0.9,0.5c0.2,0.1,0.3,0.2,0.5,0.3c0.4,0.3,0.8,0.6,1.2,0.9
		c0.1,0.1,0.2,0.2,0.4,0.3c0.3,0.3,0.7,0.6,1,0.9c0.1,0.1,0.2,0.1,0.2,0.2c0.4,0.4,0.7,0.7,1,1.1c0.1,0.1,0.2,0.3,0.4,0.4
		c0.3,0.4,0.6,0.7,0.8,1.1c0.1,0.2,0.3,0.4,0.4,0.6c0.2,0.3,0.3,0.5,0.5,0.8c0.1,0.2,0.3,0.5,0.4,0.7c0.2,0.3,0.3,0.6,0.5,1
		c0,0.1,0.1,0.1,0.1,0.2l0.2,0.4c0.8,1.8,1.2,3.8,1.4,5.9l0.1,1.2c0,0.2,0,0.3,0,0.5c0,5.5-2.4,10.9-6.5,14.6
		c-1.3,1.2-2.7,2.2-4.3,3C33.5,44,33.1,44.2,32.7,44.4z"/>
	<g>
		<path class="st2" d="M24.9,25.8c2,0,3.6-1.6,3.7-3.5v-0.2c0-2-1.7-3.7-3.7-3.7c-2,0-3.7,1.6-3.7,3.6h2.9c0.1,0,0.3,0.1,0.3,0.3
			c0,0.1-0.1,0.3-0.3,0.3h-3.6h-0.1c-1.8,0.2-3.3,1.8-3.3,3.7c0,1.9,1.5,3.5,3.3,3.6C20.6,27.6,22.6,25.8,24.9,25.8z M24,21
			c-0.4,0-0.7-0.3-0.7-0.7c0-0.4,0.3-0.7,0.7-0.7s0.7,0.3,0.7,0.7C24.6,20.7,24.3,21,24,21z"/>
		<path class="st2" d="M29.4,22.5c-0.2,2.3-2.1,4.1-4.5,4.1c-2,0-3.6,1.6-3.7,3.5v0.2c0,2,1.7,3.7,3.7,3.7c2,0,3.6-1.6,3.7-3.6h-2.9
			c-0.1,0-0.3-0.1-0.3-0.3c0-0.1,0.1-0.3,0.3-0.3h3.5c1.9-0.1,3.5-1.7,3.5-3.7C32.7,24.3,31.3,22.7,29.4,22.5z M25.8,31.4
			c0.4,0,0.7,0.3,0.7,0.7c0,0.4-0.3,0.7-0.7,0.7c-0.4,0-0.7-0.3-0.7-0.7C25.2,31.7,25.5,31.4,25.8,31.4z"/>
	</g>
</g>
</svg>
