<?xml version="1.0" encoding="utf-8"?>
<!-- Generator: Adobe Illustrator 24.0.1, SVG Export Plug-In . SVG Version: 6.00 Build 0)  -->
<svg version="1.1" id="Layer_1" xmlns="http://www.w3.org/2000/svg" xmlns:xlink="http://www.w3.org/1999/xlink" x="0px" y="0px"
	 viewBox="0 0 50 50" style="enable-background:new 0 0 50 50;" xml:space="preserve">
<style type="text/css">
	.st0{fill:#444444;}
	.st1{fill:#FCC34F;}
	.st2{fill:#FDCF72;}
	.st3{fill:none;stroke:#444444;stroke-width:2.5;stroke-linecap:round;stroke-miterlimit:10;}
</style>
<g>
	<g>
		<circle class="st0" cx="27.2" cy="24.5" r="3.9"/>
	</g>
	<g>
		<circle class="st0" cx="36" cy="24.5" r="3.9"/>
	</g>
	<g>
		<circle class="st0" cx="44.7" cy="24.5" r="3.9"/>
	</g>
	<g>
		<path class="st1" d="M23.5,25l1.4-1.4L3.6,31.4c1.2,4,3.5,7.6,6.6,10.3l22.2-8.1L23.5,25z"/>
	</g>
	<g>
		<path class="st2" d="M40.3,8.6c-4.2-3.9-9.6-6-15.3-6C12.7,2.6,2.6,12.6,2.6,25c0,2.2,0.3,4.4,0.9,6.4l21.3-7.8L40.3,8.6z"/>
	</g>
	<g>
		<path class="st3" d="M40.3,41.4"/>
	</g>
	<g>
		<path class="st0" d="M25.1,48.7C12,48.7,1.4,38,1.4,25C1.4,12,12,1.3,25.1,1.3c6,0,11.8,2.3,16.1,6.4l1,0.9L25.3,25l7.9,7.7
			c0.5,0.5,0.5,1.3,0,1.8c-0.5,0.5-1.3,0.5-1.8,0L21.8,25L38.5,8.7C34.7,5.6,30,3.8,25.1,3.8C13.4,3.8,3.9,13.3,3.9,25
			c0,11.7,9.5,21.2,21.2,21.2c5.1,0,9.8-1.7,13.7-5c0.5-0.4,1.3-0.4,1.8,0.1c0.4,0.5,0.4,1.3-0.1,1.8C36,46.7,30.7,48.7,25.1,48.7z"
			/>
	</g>
	<g>
		<path class="st0" d="M20.7,17c-2,0-3.5-1.6-3.5-3.5c0-2,1.6-3.5,3.5-3.5c2,0,3.5,1.6,3.5,3.5C24.2,15.4,22.6,17,20.7,17z"/>
	</g>
</g>
</svg>
