<?xml version="1.0" encoding="utf-8"?>
<!-- Generator: Adobe Illustrator 27.5.0, SVG Export Plug-In . SVG Version: 6.00 Build 0)  -->
<svg version="1.1" id="Camada_3" xmlns="http://www.w3.org/2000/svg" xmlns:xlink="http://www.w3.org/1999/xlink" x="0px" y="0px"
	 viewBox="0 0 50 50" style="enable-background:new 0 0 50 50;" xml:space="preserve">
<style type="text/css">
	.st0{fill:#E589EF;}
	.st1{fill:none;stroke:#444444;stroke-width:2.5;stroke-linecap:round;stroke-linejoin:round;stroke-miterlimit:10;}
	.st2{fill:none;stroke:#444444;stroke-width:0.5;stroke-linecap:round;stroke-miterlimit:10;}
	.st3{fill:none;stroke:#444444;stroke-linecap:round;stroke-miterlimit:10;}
	.st4{fill:#444444;}
</style>
<g>
	<path class="st0" d="M48.1,20c-0.2-0.8-2.7-7.5-3.2-8.1l-3-3.5l-0.3,0.1L34,2.7L26.2,2C23,2,11.7,2.3,4.8,12.3L0.9,22.8l-0.2,0.1
		l4,13.4c0.1,0.4,4.6,5.6,4.9,5.9l5.6,3l32.2-11.7C48,33,49,24.8,48.1,20z"/>
	<g>
		<g>
			<g>
				<path class="st1" d="M36.8,45.3c-7.9,4.5-18.1,4.2-25.8-1.6C0.7,36-1.4,21.3,6.4,10.9"/>
				<path class="st1" d="M6.2,11.1c2-3,4.7-4.7,4.7-4.7l0.7-0.5C19.7,0.1,30.9,0,39.2,6.3c10.4,7.8,12.4,22.5,4.7,32.8"/>
			</g>
		</g>
	</g>
</g>
<g>
	<path class="st2" d="M15.9,21.9V10.3c0-1.9,1.5-3.4,3.4-3.4h11.9c1.9,0,3.4,1.5,3.4,3.4v11.9v-0.1"/>
	<path class="st2" d="M18.9,32c-1.9,0-3-1.5-3-3.4V26"/>
	<polyline class="st2" points="26.6,32.1 25.5,32.1 24.2,32.1 	"/>
	<path class="st2" d="M19.7,8.8c-0.5,0-0.9-0.9-0.9-2.1s0.4-2.1,0.9-2.1s0.9,0.9,0.9,2.1"/>
	<path class="st2" d="M23.2,8.8c-0.5,0-0.9-0.9-0.9-2.1s0.4-2.1,0.9-2.1S24,5.6,24,6.7"/>
	<path class="st2" d="M26.7,8.8c-0.5,0-0.9-0.9-0.9-2.1s0.4-2.1,0.9-2.1s0.9,0.9,0.9,2.1"/>
	<path class="st2" d="M30.1,8.8c-0.5,0-0.9-0.9-0.9-2.1s0.4-2.1,0.9-2.1S31,5.6,31,6.7"/>
	<polyline class="st3" points="20.4,18.5 24.1,22.1 31.4,14.8 	"/>
</g>
<g>
	<g>
		<path class="st4" d="M20.7,41.5c-1.3,0-2.4-0.4-3.4-1.1C16.6,39.8,16,39,15.5,38c-1-0.1-1.8-0.2-2.6-0.5c-1.1-0.4-2-1-2.8-1.8
			C9.3,34.9,8.7,34,8.3,33c-0.4-1-0.7-2.1-0.7-3.4s0.2-2.3,0.7-3.3s1.1-1.9,1.8-2.6c0.8-0.7,1.7-1.3,2.8-1.7c2.1-0.8,4.9-0.8,7,0
			c1.1,0.4,2,1,2.8,1.7c0.8,0.7,1.4,1.6,1.8,2.6s0.7,2.1,0.7,3.3S25,32,24.5,33c-0.4,1-1.1,1.9-1.8,2.7c-0.5,0.5-1,0.9-1.7,1.2
			c0.3,0.1,0.6,0,1.2-0.2l0,0c0.3-0.1,0.5-0.3,0.8-0.4c0.2-0.1,0.5-0.2,0.8-0.1c0.3,0.1,0.5,0.2,0.6,0.5l1.2,2.1
			c0.2,0.4,0.1,1-0.2,1.3c-0.6,0.4-1.2,0.8-2,1C22.5,41.4,21.6,41.5,20.7,41.5z M16.4,22.4c-1.1,0-2.2,0.2-3.1,0.5
			c-0.9,0.4-1.8,0.9-2.5,1.5c-0.7,0.6-1.2,1.4-1.6,2.3c-0.4,0.9-0.6,1.9-0.6,3c0,1.1,0.2,2.1,0.6,3c0.4,0.9,0.9,1.7,1.6,2.3
			c0.7,0.7,1.5,1.2,2.5,1.6c0.7,0.3,1.4,0.4,2.4,0.5c0.4,0,0.7,0.3,0.8,0.6c0.4,0.8,0.9,1.5,1.5,2c1.4,1.1,3.1,1.2,5.1,0.5
			c0.7-0.2,1.2-0.5,1.7-0.9l-1.2-2.1c-0.3,0.2-0.6,0.4-0.9,0.5h0c-1.2,0.5-1.9,0.4-2.6-0.2c-0.1-0.1-0.1-0.2-0.2-0.2l-0.4-0.5
			l0.5-0.3c0.9-0.4,1.5-0.8,2.1-1.4c0.7-0.7,1.2-1.5,1.6-2.3c0.4-0.9,0.6-1.9,0.6-3c0-1.1-0.2-2-0.6-2.9c-0.4-0.9-0.9-1.7-1.6-2.3
			c-0.7-0.7-1.5-1.2-2.5-1.5C18.6,22.5,17.5,22.4,16.4,22.4z M16.5,33.9c-0.5,0-1-0.1-1.4-0.3c-0.4-0.2-0.8-0.5-1.2-0.9l0,0
			c-0.3-0.4-0.6-0.8-0.8-1.4c-0.2-0.5-0.3-1.1-0.3-1.7c0-0.6,0.1-1.2,0.3-1.7c0.2-0.5,0.5-0.9,0.8-1.3c0.3-0.4,0.7-0.7,1.2-0.9
			c0.9-0.4,2-0.4,2.9,0c0.4,0.2,0.8,0.5,1.2,0.9c0.3,0.4,0.6,0.8,0.8,1.3c0.2,0.5,0.3,1.1,0.3,1.7c0,0.6-0.1,1.1-0.3,1.6
			c-0.2,0.5-0.4,1-0.8,1.4c-0.3,0.4-0.7,0.7-1.1,0.9C17.5,33.8,17,33.9,16.5,33.9z M16.5,26.5c-0.4,0-0.7,0.1-1,0.2
			c-0.3,0.2-0.6,0.4-0.9,0.6c-0.3,0.3-0.5,0.6-0.6,1c-0.1,0.4-0.2,0.8-0.2,1.3c0,0.5,0.1,0.9,0.2,1.3c0.1,0.4,0.4,0.7,0.6,1l0,0
			c0.3,0.3,0.5,0.5,0.9,0.7c0.6,0.3,1.4,0.3,2,0c0.3-0.2,0.6-0.4,0.8-0.7c0.2-0.3,0.4-0.6,0.6-1c0.1-0.4,0.2-0.8,0.2-1.3
			c0-0.5-0.1-0.9-0.2-1.3c-0.1-0.4-0.3-0.7-0.6-1c-0.2-0.3-0.5-0.5-0.8-0.6C17.2,26.6,16.8,26.5,16.5,26.5z"/>
	</g>
	<g>
		<path class="st4" d="M39.5,37.7H37c-0.4,0-0.8-0.3-0.9-0.7l-0.5-1.5l-5,0l-0.5,1.5c-0.1,0.4-0.5,0.6-0.9,0.6h-4.1
			c-0.3,0-0.6-0.2-0.8-0.4s-0.2-0.6-0.1-0.9l6-14.1c0.2-0.4,0.5-0.6,0.9-0.6h4.5c0.4,0,0.8,0.2,0.9,0.6l5.3,12.9
			c0.1,0.3,0,0.5-0.3,0.7c-0.3,0.1-0.5,0-0.7-0.3l-5.3-12.9l-4.5,0l-5.9,14.1l4,0l0.5-1.5c0.1-0.4,0.5-0.6,0.9-0.6h5
			c0.4,0,0.8,0.3,0.9,0.7l0.5,1.5l2.5,0c0.3,0,0.5,0.2,0.5,0.5S39.8,37.7,39.5,37.7z M34,32h-1.8c-0.3,0-0.6-0.2-0.8-0.4
			s-0.2-0.6-0.1-0.9l0.9-2.5c0.1-0.4,0.5-0.6,0.9-0.6c0,0,0,0,0,0c0.4,0,0.8,0.3,0.9,0.7l0.9,2.5c0.1,0.3,0.1,0.6-0.1,0.9
			C34.6,31.9,34.3,32,34,32z M33.1,28.6l-0.9,2.5l1.8,0L33.1,28.6z M31.8,30.9L31.8,30.9L31.8,30.9z"/>
	</g>
</g>
</svg>
