<?xml version="1.0" encoding="utf-8"?>
<!-- Generator: Adobe Illustrator 22.1.0, SVG Export Plug-In . SVG Version: 6.00 Build 0)  -->
<svg version="1.1" id="Layer_1" xmlns="http://www.w3.org/2000/svg" xmlns:xlink="http://www.w3.org/1999/xlink" x="0px" y="0px"
	 viewBox="0 0 50 50" style="enable-background:new 0 0 50 50;" xml:space="preserve">
<style type="text/css">
	.st0{fill:#7ED0D6;}
	.st1{fill:#71BAC0;}
	.st2{fill:#494949;}
</style>
<g>
	<g>
		<path class="st0" d="M46.7,7.3c0-2.2-1.8-4-4-4H7.3c-2.2,0-4,1.8-4,4v17.3L46.7,8.8V7.3z"/>
	</g>
	<g>
		<path class="st1" d="M46.7,8.8L3.3,24.6v18.2c0,1.3,0.6,2.5,1.6,3.2l41.8-15.2V8.8z"/>
	</g>
	<g>
		<g>
			<polygon class="st2" points="27.3,26.7 27.4,23.7 27.5,23.1 27.5,22.8 27.1,22.8 25.5,26.2 25.1,26.8 24.4,27.3 23.9,27.6 
				23.2,27.8 23.2,31.2 24.8,31.2 25.1,31.3 26,32 29.4,32 30.1,31.3 30.1,26.8 29.9,26.7 			"/>
		</g>
		<g>
			<rect x="19.9" y="27.1" class="st2" width="2.1" height="4.8"/>
		</g>
		<g>
			<path class="st2" d="M37.3,29.2c-0.3-0.5-0.6-1-0.9-1.5c0,0,0,0,0,0c0,0,0-0.1,0-0.1c0,0,0,0,0,0c0,0,0-0.1,0-0.1c0,0,0,0,0,0
				c0,0,0-0.1,0-0.1c0,0,0,0,0,0c0,0,0,0,0,0c0,0,0,0,0,0c0,0,0-0.1,0-0.1c0,0,0,0,0,0c0,0,0,0,0,0c0-0.1,0.1-0.1,0.1-0.2
				c0.2-0.3,0.4-0.6,0.5-1c0.1-0.2,0.2-0.4,0.4-0.6c0.4-0.7,0.3-1.4-0.2-2c-0.2-0.3-0.5-0.4-0.8-0.6c-0.3-0.2-0.7-0.4-1-0.6
				c-0.1-0.1-0.2-0.1-0.3-0.2c0,0,0,0-0.1,0c0,0-0.2-0.1-0.1,0c0,0-0.1,0-0.1-0.1c0,0-0.1-0.1-0.1-0.1c0,0,0-0.1-0.1-0.1
				c0,0,0,0,0,0c0,0,0-0.1,0-0.1c0,0,0,0,0,0c0,0,0-0.1,0-0.1c0,0,0,0,0,0c0-0.1,0-0.2,0-0.3c0-0.4,0-0.7,0-1.1c0-0.3,0-0.6,0-0.9
				c-0.1-0.7-0.7-1.2-1.3-1.3c-0.3-0.1-0.6,0-0.9,0c-0.4,0-0.8,0-1.1,0c-0.1,0-0.2,0-0.3,0c0,0,0,0,0,0c0,0-0.1,0-0.1,0c0,0,0,0,0,0
				c0,0-0.1,0-0.1,0c0,0,0,0-0.1,0c0,0,0,0-0.1,0c0,0,0,0-0.1,0c0,0,0,0-0.1,0c0,0,0,0-0.1-0.1c0,0,0,0,0,0c0,0,0,0,0,0
				c0,0,0,0,0-0.1c0,0,0,0,0-0.1c-0.1-0.1-0.1-0.2-0.2-0.3c-0.2-0.3-0.4-0.7-0.6-1c-0.2-0.3-0.3-0.6-0.6-0.8c-0.6-0.5-1.3-0.5-2-0.2
				c-0.5,0.3-1,0.6-1.6,0.9c-0.1,0-0.1,0.1-0.2,0.1c0,0,0,0,0,0c0,0,0,0,0,0c0,0-0.1,0-0.1,0c0,0-0.1,0-0.1,0c0,0-0.1,0-0.1,0
				c0,0,0,0-0.1,0c0,0-0.1,0-0.1,0c0,0-0.1,0-0.1,0c0,0,0,0-0.1,0c-0.2-0.1-0.4-0.2-0.6-0.4c-0.3-0.2-0.6-0.4-0.9-0.5
				c-0.4-0.2-0.7-0.4-1.2-0.3c-0.6,0.1-1.1,0.4-1.4,0.9c-0.2,0.3-0.3,0.6-0.5,0.8c-0.2,0.3-0.3,0.5-0.5,0.8c0,0,0,0,0,0
				c0,0,0,0,0,0.1c0,0,0,0,0,0c0,0,0,0,0,0c0,0,0,0-0.1,0.1c0,0,0,0,0,0c0,0-0.1,0-0.1,0.1c0,0,0,0,0,0c0,0,0,0-0.1,0
				c0,0-0.1,0-0.1,0c0,0,0,0,0,0c0,0,0,0-0.1,0c0,0,0,0,0,0c-0.6,0-1.3,0-1.9,0c-0.5,0-1,0.2-1.3,0.5c-0.3,0.4-0.5,0.8-0.5,1.3
				c0,0.6,0,1.3,0,1.9c0,0,0,0,0,0c0,0,0,0.1,0,0.1c0,0,0,0,0,0c0,0,0,0.1,0,0.1c0,0,0,0,0,0c0,0,0,0,0,0c0,0,0,0,0,0c0,0,0,0,0,0
				c0,0,0,0,0,0.1c0,0,0,0.1,0,0.1c0,0-0.1,0.1-0.1,0.1c0.1-0.1-0.1,0-0.1,0.1c0,0,0,0-0.1,0c-0.3,0.2-0.6,0.3-0.9,0.5
				c-0.3,0.2-0.5,0.3-0.8,0.5c-0.5,0.3-0.8,0.8-0.9,1.4c0,0.4,0.1,0.8,0.3,1.2c0.2,0.3,0.4,0.6,0.6,1c0.1,0.2,0.3,0.4,0.4,0.6
				c0,0,0,0,0,0c0,0,0,0.1,0,0.1c0,0,0,0,0,0c0,0,0,0,0,0c0,0,0,0.1,0,0c0,0,0,0.1,0,0.1c0,0,0,0,0,0c0,0,0,0.1,0,0.1c0,0,0,0,0,0
				c0,0,0,0.1,0,0.1c0,0.1-0.1,0.1-0.1,0.2c-0.3,0.5-0.6,1.1-0.9,1.6c-0.3,0.7-0.2,1.5,0.3,2c0.2,0.2,0.5,0.4,0.8,0.5
				c0.3,0.2,0.7,0.4,1,0.6c0.1,0.1,0.2,0.1,0.3,0.2c0,0,0,0,0,0c0,0,0.1,0,0.1,0.1c0,0,0,0,0,0c0,0,0.1,0.1,0.1,0.1c0,0,0,0,0,0
				c0,0,0,0,0,0c0,0,0,0.1,0.1,0.1c0,0,0,0,0,0c0,0,0,0,0,0c0,0,0,0,0,0c0,0,0,0,0,0c0,0,0,0.1,0,0.1c0,0,0,0,0,0.1c0,0,0,0,0,0
				c0,0,0,0,0,0c0,0.1,0,0.2,0,0.3c0,0.4,0,0.8,0,1.1c0,0.3,0,0.6,0,0.9c0.1,0.6,0.7,1.2,1.4,1.3c0.3,0,0.6,0,0.9,0
				c0.4,0,0.8,0,1.1,0c0.1,0,0.2,0,0.3,0c0,0,0,0,0.1,0c0,0,0,0,0,0c0,0,0.1,0,0.1,0c0,0,0.1,0,0.1,0c0,0,0,0,0,0c0,0,0,0,0,0
				c0,0,0,0,0.1,0c0,0,0,0,0.1,0l0,0c0,0,0.1,0.1,0.1,0.1c0,0,0,0.1,0.1,0.1c0,0,0,0,0,0.1c0.1,0.1,0.1,0.2,0.2,0.3
				c0.2,0.3,0.4,0.7,0.6,1c0.2,0.3,0.4,0.6,0.7,0.9c0.5,0.4,1.3,0.4,1.9,0.1c0.2-0.1,0.4-0.3,0.7-0.4c0.3-0.2,0.6-0.4,0.9-0.5
				c0.1,0,0.1-0.1,0.2-0.1c0,0,0.1,0,0.1,0c0,0,0.1,0,0.1,0c0,0,0,0,0,0c0,0,0,0,0,0c0,0,0.1,0,0.1,0c0,0,0,0,0,0c0,0,0,0,0,0
				c0,0,0.1,0,0.1,0c0,0,0.1,0,0.1,0c0,0,0,0,0,0c0.5,0.3,1.1,0.6,1.6,0.9c0.1,0,0.1,0.1,0.2,0.1c0.3,0.2,0.7,0.2,1.1,0.2
				c0.6-0.1,1-0.4,1.3-0.9c0.3-0.6,0.6-1.1,1-1.7c0,0,0,0,0-0.1c0,0,0,0,0,0c0,0,0-0.1,0.1-0.1c0,0,0,0,0.1-0.1c0,0,0,0,0,0
				c0,0,0,0,0.1,0c0,0,0,0,0.1,0c0,0,0,0,0,0c0,0,0,0,0,0c0,0,0.1,0,0.1,0c0,0,0,0,0,0c0.1,0,0.1,0,0,0c0,0,0.1,0,0.2,0
				c0.3,0,0.6,0,0.9,0c0.3,0,0.7,0,1,0c0.5,0,1-0.2,1.4-0.6c0.3-0.4,0.5-0.8,0.5-1.3c0-0.4,0-0.7,0-1.1c0-0.3,0-0.5,0-0.8
				c0,0,0,0,0-0.1c0,0,0,0,0,0c0,0,0,0,0,0c0,0,0-0.1,0-0.1c0,0,0,0,0-0.1c0,0,0,0,0,0c0,0,0,0,0,0c0,0,0,0,0,0c0,0,0,0,0,0
				c0,0,0-0.1,0.1-0.1c0,0,0,0,0,0c0,0,0,0,0,0c0,0,0.1-0.1,0.1-0.1c0,0,0,0,0,0c0,0,0.1,0,0.1-0.1c0,0,0,0,0.1,0
				c0.5-0.3,1.1-0.6,1.6-0.9c0.5-0.3,0.9-0.9,0.9-1.5C37.6,29.9,37.5,29.6,37.3,29.2z M31,31.6l-0.2,0.3l-1,0.9l-0.2,0.1l-3.8,0
				l-0.3-0.1L24.6,32h-1.8v0.4l-0.3,0.3h-3.1L19,32.4v-5.9l0.3-0.3h3.1l0.3,0.3v0.4h0.4l0.4-0.1l0.4-0.2l0.5-0.4l0.3-0.4l1.7-3.7
				l0.3-0.2h1.3l0.3,0.3v0.9l0,0.3L28.2,24l0,1.8l2.1,0.1l0.5,0.3l0.2,0.3L31,31.6z"/>
		</g>
	</g>
	<path class="st2" d="M46.7,32.3c0.7,0,1.2-0.6,1.2-1.2V7.3c0-2.9-2.3-5.2-5.2-5.2H7.3c-2.9,0-5.2,2.3-5.2,5.2v35.5
		c0,2.9,2.3,5.2,5.2,5.2h35.5c2.9,0,5.2-2.3,5.2-5.2c0-0.7-0.6-1.2-1.2-1.2s-1.2,0.6-1.2,1.2c0,1.5-1.2,2.7-2.7,2.7H7.3
		c-1.5,0-2.7-1.2-2.7-2.7V11.6h40.9V31C45.4,31.7,46,32.3,46.7,32.3z M4.6,9.1V7.3c0-1.5,1.2-2.7,2.7-2.7h35.5
		c1.5,0,2.7,1.2,2.7,2.7v1.9H4.6z"/>
	<g>
		<g>
			<circle class="st2" cx="35.5" cy="7.4" r="1.1"/>
		</g>
		<g>
			<circle class="st2" cx="38.7" cy="7.4" r="1.1"/>
		</g>
		<g>
			<circle class="st2" cx="42" cy="7.4" r="1.1"/>
		</g>
	</g>
</g>
</svg>
