<svg xmlns="http://www.w3.org/2000/svg" id="Layer_1" x="0" y="0" version="1.1" viewBox="0 0 50 50" xml:space="preserve"><style>.st2{fill:#444}</style><path fill="#afe55d" d="M45.6 28.2l.4 4.1L4.1 47.6 4 38.9l.2-5L46 18.7l-.6 3.5z"/><path fill="#c3ff68" d="M45.8 12.2l-.4 7.4-41 15-.2-9.5.3-4.2L45.7 5.8z"/><path d="M24 49.8H4c-.7 0-1.2-.6-1.2-1.2V1.5C2.8.8 3.4.3 4 .3h41.9c.7 0 1.2.6 1.2 1.2v30.6c0 .7-.6 1.2-1.2 1.2s-1.2-.6-1.2-1.2V2.7H5.3v44.6H24c.7 0 1.2.6 1.2 1.2s-.5 1.3-1.2 1.3z" class="st2"/><path d="M24.3 37.9c-7.6 0-13.7-6.2-13.7-13.7 0-7.6 6.2-13.7 13.7-13.7 7.7 0 13.5 5.7 13.5 13.2 0 .4-.3.8-.8.8s-.8-.3-.8-.8c0-6.7-5.1-11.7-12-11.7C17.5 12 12 17.5 12 24.2c0 6.7 5.5 12.2 12.2 12.2.4 0 .8.3.8.8s-.3.7-.7.7z" class="st2"/><path d="M19.6 20c-.1.8-.2 2.3-.5 5.1 0 .2.1.4.2.6l8.8 8.8.1.1 4.9 4.9c.1.1.3.2.5.2h.1l5-.5c.4 0 .6 0 .7-.8v-.3c.1-.8.1-2.2.1-4.6 0-.2-.1-.4-.2-.5l-4.8-4.8-4-4-4.9-4.9c-.2-.3-.4-.3-.6-.3h-4.7c-.4 0-.6 0-.7.8v.2zm18.3 17.7l-4.1.4-8.7-8.7-4.5-4.5c.1-1.5.3-3.4.3-4.4h3.7l4.7 4.7 4 4 4.6 4.5c.1.8 0 2.9 0 4z" class="st2"/></svg>