<svg xmlns="http://www.w3.org/2000/svg" id="Layer_1" x="0" y="0" version="1.1" viewBox="0 0 50 50" xml:space="preserve"><style>.st2{fill:#444}</style><path fill="#dc5e82" d="M39.5 9.9L2.1 23.5v.7c0 4.9 1.7 9.5 4.5 13.1l38.4-14c-.3-5.2-2.3-9.8-5.5-13.4z"/><path fill="#f56991" d="M23.5 2.7C11.9 2.7 2.4 12 2.1 23.5L39.5 9.9c-4-4.4-9.6-7.2-16-7.2z"/><path d="M23.5 37.8c-7.4 0-13.5-6-13.5-13.5 0-7.4 6-13.5 13.5-13.5 7.4 0 13.5 6 13.5 13.5 0 7.4-6.1 13.5-13.5 13.5zm0-26.7c-7.3 0-13.2 5.9-13.2 13.2s5.9 13.2 13.2 13.2c7.3 0 13.2-5.9 13.2-13.2s-5.9-13.2-13.2-13.2z" class="st2"/><circle cx="23.7" cy="24.3" r="8.5" class="st2"/><path d="M47.9 39.6l-4.7-4c2-3.4 3.1-7.3 3.1-11.5 0-.7-.6-1.2-1.2-1.2s-1.2.6-1.2 1.2c0 11.1-9.1 20.2-20.2 20.2s-20.3-9-20.3-20.1C3.4 13 12.5 3.9 23.6 3.9c5.7 0 11.2 2.4 15 6.7.5.5 1.3.6 1.8.1s.6-1.3.1-1.8c-4.3-4.8-10.4-7.5-16.9-7.5C11.1 1.4.9 11.6.9 24.2s10.2 22.7 22.7 22.7c4.5 0 8.6-1.3 12.1-3.5l5.2 4.4c.6.5 1.3.8 2.1.8h.3c.9-.1 1.6-.5 2.2-1.1l2.7-3.2c.6-.7.8-1.5.8-2.4 0-.9-.4-1.7-1.1-2.3zm-1.5 3l-2.7 3.2c-.1.2-.3.2-.5.3-.2 0-.4 0-.5-.2l-4.8-4c1.5-1.2 2.8-2.6 4-4.1l4.5 3.8c.2.1.2.3.3.5-.1.1-.2.3-.3.5z" class="st2"/></svg>