<?xml version="1.0" encoding="utf-8"?>
<!-- Generator: Adobe Illustrator 22.1.0, SVG Export Plug-In . SVG Version: 6.00 Build 0)  -->
<svg version="1.1" id="Layer_1" xmlns="http://www.w3.org/2000/svg" xmlns:xlink="http://www.w3.org/1999/xlink" x="0px" y="0px"
	 viewBox="0 0 50 50" style="enable-background:new 0 0 50 50;" xml:space="preserve">
<style type="text/css">
	.st0{fill:#DC5E82;}
	.st1{fill:#F56991;}
	.st2{fill:#444444;}
</style>
<g>
	<path class="st0" d="M39.5,9.9L2.1,23.5c0,0.2,0,0.4,0,0.7c0,4.9,1.7,9.5,4.5,13.1l38.4-14C44.7,18.1,42.7,13.5,39.5,9.9z"/>
	<path class="st1" d="M23.5,2.7c-11.6,0-21.1,9.3-21.4,20.8L39.5,9.9C35.5,5.5,29.9,2.7,23.5,2.7z"/>
	<g>
		<path class="st2" d="M23.5,37.8c-7.4,0-13.5-6-13.5-13.5c0-7.4,6-13.5,13.5-13.5c7.4,0,13.5,6,13.5,13.5
			C37,31.7,30.9,37.8,23.5,37.8z M23.5,11.1c-7.3,0-13.2,5.9-13.2,13.2s5.9,13.2,13.2,13.2c7.3,0,13.2-5.9,13.2-13.2
			S30.8,11.1,23.5,11.1z"/>
	</g>
	<circle class="st2" cx="23.7" cy="24.3" r="8.5"/>
	<path class="st2" d="M47.9,39.6l-4.7-4c2-3.4,3.1-7.3,3.1-11.5c0-0.7-0.6-1.2-1.2-1.2s-1.2,0.6-1.2,1.2c0,11.1-9.1,20.2-20.2,20.2
		S3.4,35.3,3.4,24.2C3.4,13,12.5,3.9,23.6,3.9c5.7,0,11.2,2.4,15,6.7c0.5,0.5,1.3,0.6,1.8,0.1c0.5-0.5,0.6-1.3,0.1-1.8
		c-4.3-4.8-10.4-7.5-16.9-7.5C11.1,1.4,0.9,11.6,0.9,24.2s10.2,22.7,22.7,22.7c4.5,0,8.6-1.3,12.1-3.5c0,0,0,0,0,0l5.2,4.4
		c0.6,0.5,1.3,0.8,2.1,0.8c0.1,0,0.2,0,0.3,0c0.9-0.1,1.6-0.5,2.2-1.1l2.7-3.2c0.6-0.7,0.8-1.5,0.8-2.4C49,41,48.6,40.2,47.9,39.6z
		 M46.4,42.6l-2.7,3.2c-0.1,0.2-0.3,0.2-0.5,0.3c-0.2,0-0.4,0-0.5-0.2l-4.8-4c1.5-1.2,2.8-2.6,4-4.1l4.5,3.8
		c0.2,0.1,0.2,0.3,0.3,0.5C46.6,42.2,46.5,42.4,46.4,42.6z"/>
</g>
</svg>
