<?xml version="1.0" encoding="UTF-8"?>
<svg id="Camada_3" xmlns="http://www.w3.org/2000/svg" version="1.1" viewBox="0 0 50 50">
  <!-- Generator: Adobe Illustrator 29.5.0, SVG Export Plug-In . SVG Version: 2.1.0 Build 137)  -->
  <defs>
    <style>
      .st0, .st1, .st2, .st3 {
        fill: none;
      }

      .st0, .st1, .st3 {
        stroke: #444;
        stroke-linecap: round;
        stroke-linejoin: round;
      }

      .st4 {
        fill: #444444;
      }

      .st1 {
        stroke-width: 2.5px;
      }

      .st2 {
        stroke: #444444;
        stroke-miterlimit: 10;
      }

      .st2, .st3 {
        stroke-width: .5px;
      }

      .st5 {
        fill: #e589ef;
      }
    </style>
  </defs>
  <path class="st5" d="M38.35,13.88l-12.2-1.1-9.8.7c-1.3,1.6-.4-3.6-1.6-5.2l-6-4.3c-.8,0-7.3,3.7-7.3,4.4v8.8c0,1,1,1.6,1.9,1.3l-1.9.7.4,22.8,4.1,3.2,11.1.6,30.8-11,.6-20.1s-10.1-.8-10.1-.8Z"/>
  <path class="st0" d="M2.65,11.28c0-3.3,2.7-6,6-6s6,2.7,6,6M14.65,38.28c0-3.7-3.4-6.7-7.3-5.9-2.3.5-4.1,2.3-4.6,4.6-.8,3.9,2.1,7.3,5.9,7.3l29.7,1M2.65,11.28v27M14.65,11.28v27"/>
  <path class="st1" d="M38.35,45.28H10.75c-3.7,0-8.8-1-8.8-6.5V10.98c0-3.7,2.8-6.6,6.5-6.6s6.6.7,7.3,6.7v2.2l23.4.4M48.55,37.88v-21.8c0-1.3-1.1-2.4-2.4-2.4h-7"/>
  <line class="st2" x1="14.39" y1="19.94" x2="47.87" y2="19.94"/>
  <g>
    <circle class="st4" cx="18.45" cy="17.24" r=".62"/>
    <circle class="st4" cx="20.47" cy="17.24" r=".62"/>
    <circle class="st4" cx="22.5" cy="17.24" r=".62"/>
  </g>
  <line class="st3" x1="31.42" y1="22.37" x2="24.27" y2="22.37"/>
  <line class="st3" x1="35.88" y1="22.37" x2="32.59" y2="22.37"/>
  <g>
    <line class="st3" x1="32.42" y1="24.4" x2="24.27" y2="24.4"/>
    <line class="st3" x1="36.88" y1="24.4" x2="33.59" y2="24.4"/>
    <line class="st3" x1="42.62" y1="24.43" x2="38.03" y2="24.43"/>
  </g>
  <g>
    <line class="st3" x1="28.96" y1="29.36" x2="23.81" y2="29.36"/>
    <line class="st0" x1="35.42" y1="29.36" x2="32.13" y2="29.36"/>
    <line class="st0" x1="30.67" y1="29.36" x2="28.77" y2="29.36"/>
  </g>
  <g>
    <line class="st3" x1="27.54" y1="32.26" x2="23.73" y2="32.26"/>
    <line class="st0" x1="35.34" y1="32.26" x2="32.05" y2="32.26"/>
    <line class="st0" x1="30.67" y1="32.26" x2="27.85" y2="32.26"/>
  </g>
  <g>
    <path class="st3" d="M42.35,35.17"/>
    <path class="st3" d="M43.5,35.17"/>
    <line class="st3" x1="27.54" y1="35.17" x2="23.73" y2="35.17"/>
    <line class="st0" x1="38" y1="35.17" x2="34.71" y2="35.17"/>
    <line class="st0" x1="33.33" y1="35.17" x2="28.04" y2="35.17"/>
    <line class="st0" x1="42.07" y1="35.17" x2="39.48" y2="35.17"/>
  </g>
  <line class="st3" x1="19.46" y1="22.35" x2="18.13" y2="22.35"/>
  <line class="st3" x1="19.46" y1="24.43" x2="18.13" y2="24.43"/>
  <line class="st3" x1="19.46" y1="26.2" x2="18.13" y2="26.2"/>
  <line class="st3" x1="19.46" y1="28.28" x2="18.13" y2="28.28"/>
  <line class="st3" x1="19.46" y1="30.08" x2="18.13" y2="30.08"/>
  <line class="st3" x1="19.46" y1="32.16" x2="18.13" y2="32.16"/>
  <line class="st3" x1="19.46" y1="33.94" x2="18.13" y2="33.94"/>
  <line class="st3" x1="19.46" y1="36.01" x2="18.13" y2="36.01"/>
  <line class="st3" x1="19.46" y1="38.03" x2="18.13" y2="38.03"/>
  <line class="st3" x1="19.46" y1="40.11" x2="18.13" y2="40.11"/>
  <line class="st3" x1="19.46" y1="41.89" x2="18.13" y2="41.89"/>
  <line class="st3" x1="21.04" y1="19.92" x2="21.04" y2="45.28"/>
  <g>
    <circle class="st0" cx="34.9" cy="33.3" r="7.52"/>
    <path class="st0" d="M46.82,45.54c-.64.64-1.61.64-2.26,0l-3.87-3.87,2.26-2.26,3.87,3.87c.64.64.64,1.61,0,2.26ZM42.42,39.95l-1.72-1.72M41.13,41.14l-1.61-1.72"/>
  </g>
</svg>
