<?xml version="1.0" encoding="utf-8"?>
<!-- Generator: Adobe Illustrator 28.0.0, SVG Export Plug-In . SVG Version: 6.00 Build 0)  -->
<svg version="1.1" id="Layer_1" xmlns="http://www.w3.org/2000/svg" xmlns:xlink="http://www.w3.org/1999/xlink" x="0px" y="0px"
	 viewBox="0 0 50 50" style="enable-background:new 0 0 50 50;" xml:space="preserve">
<style type="text/css">
	.st0{fill:#FC9D9A;}
	.st1{fill:none;stroke:#444444;stroke-width:2.5;stroke-linecap:round;stroke-linejoin:round;stroke-miterlimit:10;}
	.st2{fill:none;stroke:#444444;stroke-linecap:round;stroke-linejoin:round;stroke-miterlimit:10;}
	.st3{fill:none;stroke:#444444;stroke-width:0.5;stroke-linecap:round;stroke-linejoin:round;stroke-miterlimit:10;}
</style>
<g>
	<path class="st0" d="M42.5,30.6l0.1-3.2l0.3-4.3c0.7-0.1,1.8,1,1.6,1l3.5-4.2c0.1-0.6-5.1-4.4-5.5-4.9l-1.7-0.3
		c-0.2-0.2-1.3-1.3-1.5-1.4l-1.7-1c-0.3-0.2-1.1-1-1.2-1.2l-1.8-1.6c-0.5-0.7-2.7-2.8-3.5-2.8L25,1.7c-0.6,0-11,8.1-11.5,8.5
		L2.2,19.3c-0.5,0.5,2.5,3.5,2.5,4.2l2-0.5c0,0.2-0.1,4,0,4.2l-0.4,1.7c0,0.2,0.2,1.7,0.3,1.8l0.2,2.5L6.7,35l0.1,12.3
		c0,0.1,2,0.6,2,0.7c0.1,0.3,0.4,0.4,0.6,0.3l33.3-12.1c0.2-0.1,0.4-0.3,0.3-0.5L42.5,30.6L42.5,30.6z"/>
	<polyline class="st1" points="31,48 7.2,48 7.2,22.5 5.6,23.7 1.7,19.9 25,1.7 48.3,19.9 44.4,23.7 42.7,22.4 42.7,40.9 	"/>
	<polyline class="st2" points="7,21.8 25,7.5 43.2,21.7 	"/>
	<g>
		<g>
			<ellipse class="st3" cx="25" cy="25.6" rx="7.7" ry="2.6"/>
		</g>
		<path class="st3" d="M28.9,29.9c-0.1,0-0.1,0-0.2,0.1"/>
		<path class="st3" d="M30.7,29.6c-0.1,0-0.1,0-0.2,0.1"/>
		<path class="st3" d="M28.9,34.9c-0.1,0-0.1,0-0.2,0.1"/>
		<path class="st3" d="M30.7,34.6c-0.1,0-0.1,0-0.2,0.1"/>
		<path class="st3" d="M28.9,39.7c-0.1,0-0.1,0-0.2,0.1"/>
		<path class="st3" d="M30.7,39.4c-0.1,0-0.1,0-0.2,0.1"/>
		<g>
			<path class="st3" d="M32.7,30.4c0,1.4-3.4,2.6-7.7,2.6s-7.7-1.2-7.7-2.6"/>
		</g>
		<g>
			<path class="st3" d="M32.7,35.2c0,1.4-3.4,2.6-7.7,2.6s-7.7-1.2-7.7-2.6"/>
		</g>
		<g>
			<path class="st3" d="M32.7,39.7c0,1.4-3.4,2.6-7.7,2.6s-7.7-1.2-7.7-2.6"/>
		</g>
		<g>
			<line class="st3" x1="17.3" y1="39.6" x2="17.3" y2="25.6"/>
			<line class="st3" x1="32.7" y1="25.6" x2="32.7" y2="39.9"/>
		</g>
	</g>
</g>
</svg>
