<svg xmlns="http://www.w3.org/2000/svg" id="Layer_1" x="0" y="0" version="1.1" viewBox="0 0 50 50" xml:space="preserve"><style>.st3{fill:none;stroke:#444;stroke-width:.5;stroke-linecap:round;stroke-linejoin:round;stroke-miterlimit:10}</style><path fill="#fc9d9a" d="M42.5 30.6l.1-3.2.3-4.3c.7-.1 1.8 1 1.6 1l3.5-4.2c.1-.6-5.1-4.4-5.5-4.9l-1.7-.3c-.2-.2-1.3-1.3-1.5-1.4l-1.7-1c-.3-.2-1.1-1-1.2-1.2l-1.8-1.6c-.5-.7-2.7-2.8-3.5-2.8l-6.1-5c-.6 0-11 8.1-11.5 8.5L2.2 19.3c-.5.5 2.5 3.5 2.5 4.2l2-.5c0 .2-.1 4 0 4.2l-.4 1.7c0 .2.2 1.7.3 1.8l.2 2.5-.1 1.8.1 12.3c0 .1 2 .6 2 .7.1.3.4.4.6.3l33.3-12.1c.2-.1.4-.3.3-.5l-.5-5.1z"/><path fill="none" stroke="#444" stroke-linecap="round" stroke-linejoin="round" stroke-miterlimit="10" stroke-width="2.5" d="M31 48H7.2V22.5l-1.6 1.2-3.9-3.8L25 1.7l23.3 18.2-3.9 3.8-1.7-1.3v18.5"/><path fill="none" stroke="#444" stroke-linecap="round" stroke-linejoin="round" stroke-miterlimit="10" d="M7 21.8L25 7.5l18.2 14.2"/><ellipse cx="25" cy="25.6" class="st3" rx="7.7" ry="2.6"/><path d="M28.9 29.9c-.1 0-.1 0-.2.1m2-.4c-.1 0-.1 0-.2.1m-1.6 5.2c-.1 0-.1 0-.2.1m2-.4c-.1 0-.1 0-.2.1m-1.6 5c-.1 0-.1 0-.2.1m2-.4c-.1 0-.1 0-.2.1m2.2-9.1c0 1.4-3.4 2.6-7.7 2.6s-7.7-1.2-7.7-2.6m15.4 4.8c0 1.4-3.4 2.6-7.7 2.6s-7.7-1.2-7.7-2.6" class="st3"/><path d="M32.7 39.7c0 1.4-3.4 2.6-7.7 2.6s-7.7-1.2-7.7-2.6m0-.1v-14m15.4 0v14.3" class="st3"/></svg>