<svg xmlns="http://www.w3.org/2000/svg" id="Layer_1" x="0" y="0" version="1.1" viewBox="0 0 50 50" xml:space="preserve"><style>.st2{stroke-width:2.5}.st2,.st3{fill:none;stroke:#444;stroke-linecap:round;stroke-linejoin:round;stroke-miterlimit:10}.st3,.st4{stroke-width:.5}.st4,.st5{fill:none;stroke:#444;stroke-linejoin:round;stroke-miterlimit:10}</style><path fill="#d1bd00" d="M28.8 23.2l7.8 2.4-6.7 4.8.1 8.2-6.6-5-7.7 2.7 2.6-7.8-4.9-6.6 8.2.1 4.7-6.7z"/><path fill="#f9f941" d="M47.9 20c-.2-.8-2.7-7.5-3.2-8.1l-3-3.5-.2.1-7.6-5.8-7.8-.7c-3.2 0-14.5.3-21.4 10.2l-4 10.7-.2.1 4 13.4c.1.4 4.5 5.7 4.9 5.9l5.6 3 32.2-11.7c.6-.5 1.7-8.8.7-13.6z"/><path d="M32.2 47.3c-7 2.3-15 1.2-21.3-3.6C.5 36-1.6 21.3 6.2 10.9" class="st2"/><path d="M6.1 11.1c2-3 4.7-4.7 4.7-4.7l.7-.5C19.6.1 30.7 0 39.1 6.3c10.4 7.8 12.4 22.5 4.7 32.8" class="st2"/><path d="M21.8 27.3h-2.5v-7.5c0-.1.1-.2.2-.2h2c.1 0 .2.1.2.2v7.5zm-2.5 0h-2.5v-5.8c0-.1.1-.2.2-.2h2.1c.1 0 .2.1.2.2v5.8zm-2.5 0h-2.5v-4.1c0-.1.1-.2.2-.2h2.1c.1 0 .2.1.2.2v4.1zM31.6 19c1.7 1.7 1.8 4.5.3 6.3l-.3.3c-.1.1-.2.2-.4.3-1.8 1.5-4.5 1.4-6.2-.3-1.8-1.8-1.8-4.8 0-6.6 1.9-1.8 4.8-1.8 6.6 0zm4.2 10.8c-.4.4-1 .4-1.4 0l-2.7-2.7 1.4-1.4 2.7 2.7c.4.4.4 1.1 0 1.4z" class="st3"/><path d="M31.9 25.3l.8.8-.7.6-.8-.8c.1-.1.3-.2.4-.3l.3-.3zm-8-1.6l2.1-2.1 1.3 1.4 2.2-2.2-.6-.5 2.2-.2v2.4l-.6-.7-3.1 3.2-1.3-1.3-1.5 1.4" class="st3"/><path d="M17.6 21.3v-7.7c0-.7.6-1.3 1.2-1.3h12.5M17.6 29.8v-2.5m12.7-.8v3.2c0 .7-.5 1.4-1.3 1.5-.8.1-1.5-.5-1.6-1.3H16.1c0 .7.6 1.3 1.3 1.3H29" class="st4"/><path d="M30.3 14h2v-.7c0-.6-.4-1-1-1-.5 0-1 .4-1 1v4.8" class="st4"/><g><path d="M30.3 15.2h7.6c.6 0 1 .5 1 1.1v19.3c0 .6-.5 1.1-1 1.1H12.1c-.6 0-1-.5-1-1.1V16.3c0-.6.5-1.1 1-1.1h5.5" class="st5"/><path d="M30.3 17h6.2c.5 0 .9.4.9.9v14.9c0 .5-.4.9-.9.9h-23c-.5 0-.9-.4-.9-.9v-15c0-.5.4-.9.9-.9h4.1" class="st4"/><path d="M30.4 41.3H19.6c-.4 0-.7-.3-.7-.7 0-.4.3-.7.7-.7h10.8c.4 0 .7.3.7.7 0 .4-.3.7-.7.7z" class="st5"/><path d="M23.1 36.6h3.8v3.3h-3.8z" class="st5"/></g></svg>