<?xml version="1.0" encoding="utf-8"?>
<!-- Generator: Adobe Illustrator 28.0.0, SVG Export Plug-In . SVG Version: 6.00 Build 0)  -->
<svg version="1.1" id="Layer_1" xmlns="http://www.w3.org/2000/svg" xmlns:xlink="http://www.w3.org/1999/xlink" x="0px" y="0px"
	 viewBox="0 0 50 50" style="enable-background:new 0 0 50 50;" xml:space="preserve">
<style type="text/css">
	.st0{fill:#D1BD00;}
	.st1{fill:#F9F941;}
	.st2{fill:none;stroke:#444444;stroke-width:2.5;stroke-linecap:round;stroke-linejoin:round;stroke-miterlimit:10;}
	.st3{fill:none;stroke:#444444;stroke-width:0.5;stroke-linecap:round;stroke-linejoin:round;stroke-miterlimit:10;}
	.st4{fill:none;stroke:#444444;stroke-width:0.5;stroke-linejoin:round;stroke-miterlimit:10;}
	.st5{fill:none;stroke:#444444;stroke-linejoin:round;stroke-miterlimit:10;}
</style>
<polygon class="st0" points="28.8,23.2 36.6,25.6 29.9,30.4 30,38.6 23.4,33.6 15.7,36.3 18.3,28.5 13.4,21.9 21.6,22 26.3,15.3 "/>
<path class="st1" d="M47.9,20c-0.2-0.8-2.7-7.5-3.2-8.1l-3-3.5l-0.2,0.1l-7.6-5.8l-7.8-0.7c-3.2,0-14.5,0.3-21.4,10.2L0.7,22.9
	l-0.2,0.1l4,13.4c0.1,0.4,4.5,5.7,4.9,5.9l5.6,3l32.2-11.7C47.8,33.1,48.9,24.8,47.9,20z"/>
<g>
	<g>
		<g>
			<path class="st2" d="M32.2,47.3c-7,2.3-15,1.2-21.3-3.6C0.5,36-1.6,21.3,6.2,10.9"/>
			<path class="st2" d="M6.1,11.1c2-3,4.7-4.7,4.7-4.7l0.7-0.5C19.6,0.1,30.7,0,39.1,6.3c10.4,7.8,12.4,22.5,4.7,32.8"/>
		</g>
	</g>
</g>
<g>
	<g>
		<path class="st3" d="M21.8,27.3h-2.5v-7.5c0-0.1,0.1-0.2,0.2-0.2h2c0.1,0,0.2,0.1,0.2,0.2V27.3z"/>
		<path class="st3" d="M19.3,27.3h-2.5v-5.8c0-0.1,0.1-0.2,0.2-0.2h2.1c0.1,0,0.2,0.1,0.2,0.2V27.3z"/>
		<path class="st3" d="M16.8,27.3h-2.5v-4.1c0-0.1,0.1-0.2,0.2-0.2h2.1c0.1,0,0.2,0.1,0.2,0.2V27.3z"/>
	</g>
	<path class="st3" d="M31.6,19c1.7,1.7,1.8,4.5,0.3,6.3c-0.1,0.1-0.2,0.2-0.3,0.3c-0.1,0.1-0.2,0.2-0.4,0.3
		c-1.8,1.5-4.5,1.4-6.2-0.3c-1.8-1.8-1.8-4.8,0-6.6C26.9,17.2,29.8,17.2,31.6,19z"/>
	<path class="st3" d="M35.8,29.8L35.8,29.8c-0.4,0.4-1,0.4-1.4,0l-2.7-2.7l1.4-1.4l2.7,2.7C36.2,28.8,36.2,29.5,35.8,29.8z"/>
	<path class="st3" d="M31.9,25.3l0.8,0.8L32,26.7l-0.8-0.8c0.1-0.1,0.3-0.2,0.4-0.3C31.7,25.5,31.8,25.4,31.9,25.3z"/>
	<polyline class="st3" points="23.9,23.7 26,21.6 27.3,23 29.5,20.8 28.9,20.3 31.1,20.1 31.1,22.5 30.5,21.8 27.4,25 26.1,23.7 
		24.6,25.1 	"/>
	<g>
		<path class="st4" d="M17.6,21.3v-7.7c0-0.7,0.6-1.3,1.2-1.3h12.5"/>
		<line class="st4" x1="17.6" y1="29.8" x2="17.6" y2="27.3"/>
		<path class="st4" d="M30.3,26.5v3.2c0,0.7-0.5,1.4-1.3,1.5c-0.8,0.1-1.5-0.5-1.6-1.3H16.1l0,0c0,0.7,0.6,1.3,1.3,1.3H29"/>
		<path class="st4" d="M30.3,14h2v-0.7c0-0.6-0.4-1-1-1l0,0c-0.5,0-1,0.4-1,1l0,4.8"/>
	</g>
</g>
<g>
	<path class="st5" d="M30.3,15.2h7.6c0.6,0,1,0.5,1,1.1v19.3c0,0.6-0.5,1.1-1,1.1H12.1c-0.6,0-1-0.5-1-1.1V16.3c0-0.6,0.5-1.1,1-1.1
		h5.5"/>
	<path class="st4" d="M30.3,17h6.2c0.5,0,0.9,0.4,0.9,0.9v14.9c0,0.5-0.4,0.9-0.9,0.9H13.5c-0.5,0-0.9-0.4-0.9-0.9V17.8
		c0-0.5,0.4-0.9,0.9-0.9h4.1"/>
	<path class="st5" d="M30.4,41.3H19.6c-0.4,0-0.7-0.3-0.7-0.7v0c0-0.4,0.3-0.7,0.7-0.7h10.8c0.4,0,0.7,0.3,0.7,0.7v0
		C31.1,41,30.8,41.3,30.4,41.3z"/>
	<rect x="23.1" y="36.6" class="st5" width="3.8" height="3.3"/>
</g>
</svg>
