<svg xmlns="http://www.w3.org/2000/svg" id="Layer_1" data-name="Layer 1" version="1.1" viewBox="0 0 50 50"><defs><style>.cls-4{stroke-linecap:round;stroke-linejoin:round;stroke-width:2.5px;fill:none;stroke:#444}</style></defs><path fill="#04ad49" stroke-width="0" d="M29.3 16.6l7.8 2.4-6.7 4.7.1 8.2-6.6-4.9-7.7 2.7 2.6-7.8-4.9-6.6 8.2.1 4.7-6.7 2.5 7.9z"/><path fill="#22dd6d" stroke-width="0" d="M48.3 20.3c-.2-.8-2.7-7.5-3.2-8.1l-3-3.5h-.2L34.3 3l-7.8-.7c-3.2 0-14.5.3-21.4 10.2L1.2 23.1H1l4 13.5c.1.4 4.5 5.7 4.9 5.9l5.6 3 32.2-11.7c.7-.4 1.7-8.6.8-13.4z"/><path d="M32.6 47.6c-7 2.3-15 1.2-21.3-3.6C.9 36.2-1.2 21.5 6.6 11.2" class="cls-4"/><path d="M6.5 11.4c2-3 4.7-4.7 4.7-4.7l.7-.5C20 .4 31.1.3 39.5 6.5c10.4 7.8 12.4 22.5 4.7 32.8" class="cls-4"/><path fill="#444" stroke-width="0" d="M37.9 35.9c-.9-2-1.6-3.3-3.4-4.1s-.1-.3 0-.4C37 31 39 28.8 39 26.2V24c0-2.9-2.4-5.3-5.3-5.3H23.4c-.6 0-1 .5-1.1 1 0 3.9 0 17.4-.1 21.3s.5 1.1 1.1 1.1h3.5c.6 0 1.1-.5 1.1-1.1v-7.5c1.4 0 2.8-.3 3.3 1.1l2.7 6.8c.2.4.6.7 1 .7h4c.8 0 1.3-.8 1-1.5l-2-4.8zm-5.9-8h-3.4c-.4 0-.7-.3-.7-.7v-3.1c0-.4.3-.7.7-.7h3.5c1.7 1 1.7 3.5 0 4.5z"/><ellipse cx="24.9" cy="24" fill="none" stroke="#444" stroke-miterlimit="10" stroke-width=".5" rx="17.8" ry="13.9"/></svg>