<svg xmlns="http://www.w3.org/2000/svg" id="Layer_1" x="0" y="0" version="1.1" viewBox="0 0 50 50" xml:space="preserve"><style>.st3,.st4{fill:none;stroke:#444;stroke-linecap:round;stroke-linejoin:round;stroke-miterlimit:10}.st4{stroke-width:.5}</style><path fill="#8256d8" d="M30.9 18.5l7.9 2.4-6.7 4.7.1 8.2-6.6-4.9-7.8 2.7 2.7-7.8-5-6.6 8.3.1 4.7-6.7z"/><path fill="#a475ef" d="M44.6 12.4L39 8.8l-7.7-4.4-6-2.8c-3.2 0-21.5 8.9-21.5 12.1l-.5 7.8.5 15.1 11.5 7.6 31-11c.8-.5-.8-18.8-1.7-20.8z"/><path fill="none" stroke="#444" stroke-linecap="round" stroke-linejoin="round" stroke-miterlimit="10" stroke-width="2.5" d="M29.9 46.5l-2.2 1.3c-1.7 1-3.8 1-5.5 0l-15.6-9c-1.7-1-2.7-2.8-2.7-4.7V16c0-2 1-3.8 2.7-4.7l15.6-9c1.7-1 3.8-1 5.5 0l15.6 9c1.7 1 2.7 2.8 2.7 4.7v18c0 2-1 3.8-2.7 4.7l-2.5 1.4"/><path d="M16.2 33.4h10.5V15.8H10.8" class="st3"/><path d="M7.9 20h9.4M5 24.2h9.5" class="st4"/><path d="M30 19.8c1.6-.1 3.2.7 4 2.1" class="st3"/><path d="M23.3 15.8v17.6m12.5-2h1.6m0-4h-7.1c-.5 0-.8-.4-.8-.8v-3.5c0-.5.4-.8.8-.8h3.8" class="st4"/><path d="M26.7 19.8h3.9m6.8 7.6l-3.7-5.8m3.7 11.8v-6m-10.7 6H28m6.4 0h3M5 33.4h4.9m21.3-3.1c1.8 0 3.2 1.4 3.2 3.2 0 1.8-1.4 3.2-3.2 3.2-1.8 0-3.2-1.4-3.2-3.2 0-1.8 1.4-3.2 3.2-3.2zm-18.2 0c1.2 0 2.2.6 2.7 1.6.2.4.4.9.4 1.4v.2c0 1.8-1.4 3.2-3.2 3.2-1.8 0-3.2-1.4-3.2-3.2.2-1.8 1.6-3.2 3.3-3.2z" class="st3"/></svg>