<?xml version="1.0" encoding="utf-8"?>
<!-- Generator: Adobe Illustrator 28.0.0, SVG Export Plug-In . SVG Version: 6.00 Build 0)  -->
<svg version="1.1" id="Layer_1" xmlns="http://www.w3.org/2000/svg" xmlns:xlink="http://www.w3.org/1999/xlink" x="0px" y="0px"
	 viewBox="0 0 50 50" style="enable-background:new 0 0 50 50;" xml:space="preserve">
<style type="text/css">
	.st0{fill:#DC5E82;}
	.st1{fill:none;stroke:#444444;stroke-width:2.5;stroke-linecap:round;stroke-linejoin:round;stroke-miterlimit:10;}
	.st2{fill:none;stroke:#444444;stroke-width:0.9546;stroke-linecap:round;stroke-linejoin:round;stroke-miterlimit:10;}
	.st3{fill:none;stroke:#444444;stroke-miterlimit:10;}
	.st4{fill:#444444;}
</style>
<path class="st0" d="M46.8,13.3L29,13.2c0.1-1.4-3.8-7.6-5.3-8.9L16,2.5C12.2,2.1,5.4,6.3,5.4,7.7l-3.3,8.6l3.8,9.3l7.2,4.2l0.2,3.2
	v2.7l-0.2,9.3c0,1.4,1.1,2.6,2.5,2.5l13.5-0.1c0.3,0,0.6-0.1,0.8-0.2l16.1-6c1-0.4,1.6-1.3,1.6-2.3v-9.2l0.1-7l0.4-0.1l-0.4-4.1
	C47.8,18.3,46.8,13.5,46.8,13.3z"/>
<path class="st1" d="M47.6,40V15.6c0-1.5-1.1-2.7-2.5-2.7H29.2C27.8,7,22.4,2.5,16,2.5C8.5,2.5,2.4,8.6,2.4,16.1
	c0,6.6,4.7,12.1,10.9,13.3v15.4c0,1.5,1.1,2.7,2.5,2.7h20.3"/>
<circle class="st2" cx="15.5" cy="15.7" r="13.2"/>
<g>
	<polyline class="st3" points="30.2,38.1 38.7,38.1 38.7,29.8 	"/>
	<line class="st3" x1="38.7" y1="38.1" x2="27.3" y2="27"/>
</g>
<g>
	<rect x="10.8" y="9" class="st4" width="5" height="5.1"/>
	<circle class="st4" cx="19" cy="11.6" r="2.5"/>
	<path class="st4" d="M15.8,14.7v10.1h0c-2.8,0-5-2.3-5-5v0C10.8,17,13,14.7,15.8,14.7L15.8,14.7z"/>
</g>
</svg>
