<svg xmlns="http://www.w3.org/2000/svg" id="Layer_1" x="0" y="0" version="1.1" viewBox="0 0 50 50" xml:space="preserve"><style>.st4{fill:#444}</style><path fill="#dc5e82" d="M46.8 13.3L29 13.2c.1-1.4-3.8-7.6-5.3-8.9L16 2.5C12.2 2.1 5.4 6.3 5.4 7.7l-3.3 8.6 3.8 9.3 7.2 4.2.2 3.2v2.7l-.2 9.3c0 1.4 1.1 2.6 2.5 2.5l13.5-.1c.3 0 .6-.1.8-.2l16.1-6c1-.4 1.6-1.3 1.6-2.3v-9.2l.1-7 .4-.1-.4-4.1c.1-.2-.9-5-.9-5.2z"/><path fill="none" stroke="#444" stroke-linecap="round" stroke-linejoin="round" stroke-miterlimit="10" stroke-width="2.5" d="M47.6 40V15.6c0-1.5-1.1-2.7-2.5-2.7H29.2C27.8 7 22.4 2.5 16 2.5 8.5 2.5 2.4 8.6 2.4 16.1c0 6.6 4.7 12.1 10.9 13.3v15.4c0 1.5 1.1 2.7 2.5 2.7h20.3"/><circle cx="15.5" cy="15.7" r="13.2" fill="none" stroke="#444" stroke-linecap="round" stroke-linejoin="round" stroke-miterlimit="10" stroke-width=".955"/><path fill="none" stroke="#444" stroke-miterlimit="10" d="M30.2 38.1h8.5v-8.3m0 8.3L27.3 27"/><path d="M10.8 9h5v5.1h-5z" class="st4"/><circle cx="19" cy="11.6" r="2.5" class="st4"/><path d="M15.8 14.7v10.1c-2.8 0-5-2.3-5-5 0-2.8 2.2-5.1 5-5.1z" class="st4"/></svg>