<svg xmlns="http://www.w3.org/2000/svg" id="Layer_1" x="0" y="0" version="1.1" viewBox="0 0 50 50" xml:space="preserve"><style>.st3{fill:#424242}</style><path fill="#a475ef" d="M45.3 28.2l.4 4.1L4.3 47.4v-8.7l.2-4.9 41.2-15-.5 3.5z"/><path fill="#bf94f7" d="M45.5 12.4l-.4 7.3L4.7 34.4l-.2-9.3.2-4.2L45.4 6.1z"/><path fill="#031326" d="M24.1 49.4H4.3c-.7 0-1.2-.6-1.2-1.2V1.7C3.1 1 3.7.5 4.3.5h41.3c.7 0 1.2.6 1.2 1.2v30.2c0 .7-.6 1.2-1.2 1.2s-1.2-.6-1.2-1.2v-29H5.6v43.9h18.5c.7 0 1.2.6 1.2 1.2s-.5 1.4-1.2 1.4z"/><path d="M38 39.8H12V9.9h26v29.9zm-24-2h22V11.9H14v25.9z" class="st3"/><path d="M33 23.4H17v-7.1h16v7.1zm-14-2h12v-3.1H19v3.1zm-2 5h3.3v2H17zm6.4 0h3.3v2h-3.3zM17 31.5h3.3v2H17zm6.4 0h3.3v2h-3.3zm6.3-5.1H33v2h-3.3zm0 5.1H33v2h-3.3z" class="st3"/></svg>