<svg xmlns="http://www.w3.org/2000/svg" version="1" viewBox="0 0 50 50"><path fill="#E56060" d="M44.75 35.098V6.925L25.004 2.052 5.25 6.925v10.01l1.402 2.545-1.402 1.931v7.165l1.402 2.615-1.402 1.861v10.023l10.481 2.585z"/><path fill="#FF6B6B" d="M36.2 4.815L25.004 2.052 5.25 6.925v9.155z"/><path fill="#444" d="M25.004.765L4 5.946v11.31l1.174 2.132L4 21.005v7.884l1.172 2.188L4 32.634v11.421l21.004 5.18 11.495-2.836a1.251 1.251 0 0 0-.6-2.428L25.25 46.599V37.66l18.25-4.008v1.447a1.25 1.25 0 0 0 2.5 0V5.946L25.004.765zm-16.9 30.489L6.5 28.263v-6.446l1.324-1.823 15.516 3.407 1.411 2.415v7.08l-1.35 1.718-15.297-3.36zM24.75 12v9.185l-1.35 1.717-15.285-3.356L6.5 16.613V7.992L24.75 12zm.392 9.496L43.5 17.465v1.077l-19.382 4.257 1.024-1.303zM43.5 19.054v2.375l-18.375 4.036-1.23-2.105L43.5 19.054zm-18.25 6.895l18.25-4.008v6.722l-18.25 4.008v-6.722zm18.25-8.996l-18.25 4.008V12L43.5 7.992v8.961zM25.142 33.207L43.5 29.176v1.077L24.118 34.51l1.024-1.303zM42.591 7.68L25 11.543 7.41 7.68l17.594-4.34 17.587 4.34zM6.5 33.47l1.33-1.764 15.51 3.406 1.411 2.414v9.071L6.5 42.096V33.47zm18.624 3.706l-1.23-2.105L43.5 30.764v2.376l-18.376 4.036z"/></svg>