<?xml version="1.0" encoding="utf-8"?>
<!-- Generator: Adobe Illustrator 26.5.0, SVG Export Plug-In . SVG Version: 6.00 Build 0)  -->
<svg version="1.1" id="Camada_3" xmlns="http://www.w3.org/2000/svg" xmlns:xlink="http://www.w3.org/1999/xlink" x="0px" y="0px"
	 viewBox="0 0 50 50" style="enable-background:new 0 0 50 50;" xml:space="preserve">
<style type="text/css">
	.st0{fill:#FCC34F;}
	.st1{fill:#FDCF72;}
	.st2{fill:none;stroke:#444444;stroke-width:2.5;stroke-linecap:round;stroke-linejoin:round;stroke-miterlimit:10;}
	.st3{fill:#444444;}
</style>
<g>
	<g>
		<g>
			<polygon class="st0" points="48.35,16.7 49.1,21.91 3.04,38.66 2.5,27.77 2.46,21.53 47.03,5.38 47.9,9.25 			"/>
			<polygon class="st1" points="46.17,2.17 48.42,5.41 1.58,22.15 2.69,4.97 5.67,2.08 34.72,1.91 			"/>
			<g>
				<path class="st2" d="M24.97,48.49H5.5c-1.87,0-3.39-1.58-3.39-3.54V6.04c0-1.95,1.52-3.54,3.39-3.54H44.5
					c1.87,0,3.39,1.58,3.39,3.54v25.89"/>
				<path class="st2" d="M2.11,16.05"/>
				<path class="st2" d="M47.89,16.05"/>
			</g>
		</g>
	</g>
	<g>
		<path class="st3" d="M14.37,15.27c1.46,0.32,2.95,0.52,4.44,0.6c3.22,0.12,8.05-1.34,8.09-1.35c0.3-0.05,0.57-0.21,0.76-0.44
			c-1.54-1.49-6.98-4.49-9.22-4.86c-2.42-0.36-6.73,2.96-7.01,3.54c-0.15,0.5-0.26,1.02-0.33,1.54
			C12.15,14.72,13.25,15.05,14.37,15.27z M7.69,41.39c-0.48-1.7-0.59-3.22-0.82-4.97c-1.05,0.93-2.89,3.5-1.76,4.87
			C5.87,42.21,6.89,41.86,7.69,41.39z M11.17,17.88c-0.27-1.56-1.21-5.06-2.97-4.29c-1.76,0.77-1.01,3.21-0.31,5.23
			C8.86,18.16,10.01,17.83,11.17,17.88z M8.63,14.84c1.04-0.38,1.43,0.91,1.4,2.41c-0.26-0.74-0.82-1.94-1.24-1.82
			c-0.42,0.12-0.35,1.62-0.35,1.62S7.58,15.2,8.63,14.84z M7.29,18.9c-0.23-0.55-0.44-1.11-0.61-1.67
			c-1.22,0.34-1.47,0.67-1.45,0.97c0.01,0.18,0.89,0.79,2.46,1.41C7.69,19.62,7.38,19.09,7.29,18.9z M19.21,21.69
			c3.46-0.05,6.9-0.59,10.21-1.6c0,0-1.1-0.68-4.25-1.41c-2.61,0.64-5.32,0.85-8,0.62c-1.45-0.13-2.89-0.34-4.31-0.63
			c-2.26-0.48-3.43-0.05-4.26,0.41l-0.9,0.55c3.67,1.44,7.58,2.14,11.52,2.07L19.21,21.69z M30.43,19.73
			c3.02-0.96,4.73-1.86,4.72-2.17s-1.2-0.49-3.23-0.84c-0.42,1.04-0.91,2.05-1.47,3.02L30.43,19.73z M11.44,25.36
			c-0.61-0.13-1.21,0.26-1.34,0.87c-0.13,0.61,0.26,1.21,0.87,1.34c0.61,0.13,1.21-0.26,1.34-0.87l0,0c0.13-0.6-0.25-1.2-0.85-1.34
			C11.44,25.36,11.44,25.36,11.44,25.36z M22.48,25.23c-0.61-0.13-1.21,0.25-1.35,0.86c-0.13,0.61,0.25,1.21,0.86,1.35
			s1.21-0.25,1.35-0.86c0,0,0-0.01,0-0.01C23.48,25.96,23.09,25.36,22.48,25.23z M31.6,39.33c0.06-0.29,0.08-0.58,0.09-0.81
			c0.01-0.23-0.2-0.47-0.37-0.72c-0.31-0.45-0.92-1.3-0.16-2.04c0.37-0.35,0.85-0.55,1.36-0.56c0.45-3.83,0.5-7.7,0.13-11.54
			c-0.07-1.17-0.43-2.29-1.04-3.29l-1.45,0.42l-1.79,0.52c-2.99,0.79-6.06,1.22-9.15,1.28c-2.41,0.03-4.81-0.21-7.17-0.72l0,0
			c-1.58-0.33-3.13-0.8-4.63-1.4c-0.65,1.37-0.98,2.88-0.94,4.4c-0.07,4.23,0.9,13.49,1.95,17.58h23.1
			c0.05-0.24,0.07-0.48,0.11-0.73C31.44,40.94,31.43,40.12,31.6,39.33z M17.65,28.92c1.12,0,2.01,0.52,2.01,1.14
			c-0.01,0.62-0.91,1.11-2.04,1.11s-2.01-0.52-2.01-1.14C15.62,29.4,16.53,28.9,17.65,28.92z M8.77,25.74
			c0.42-1.97,2.37-3.23,4.34-2.81c1.97,0.42,3.23,2.37,2.81,4.34c-0.42,1.97-2.37,3.23-4.34,2.81c-1.97-0.42-3.23-2.36-2.81-4.33
			C8.77,25.75,8.77,25.74,8.77,25.74z M16.51,35.55c-0.93,0.08-1.1-1.36-1.1-1.36c0.57-0.3,1.2-0.47,1.84-0.5
			C17.29,34.34,17.43,35.47,16.51,35.55z M18.36,35.56c-1-0.21-0.59-1.89-0.59-1.89c0.55,0.04,1.09,0.16,1.61,0.34
			C19.3,34.76,19.24,35.74,18.36,35.56z M22.73,32.66c-0.54,1.54-2.24,1.07-3.6,0.71c-0.51-0.16-1.03-0.27-1.57-0.34
			c-0.61,0.03-1.2,0.17-1.75,0.42c-0.61,0.29-1.28,0.42-1.96,0.37c-0.43-0.09-0.78-0.39-0.93-0.8c-0.23-0.47-0.19-1.02,0.11-1.45
			c0.5-0.62,1.2-1.06,1.97-1.25c0.28,0.78,0.98,1.33,1.8,1.41c0.27,0.06,0.55,0.09,0.83,0.09c0.61,0.01,1.21-0.12,1.75-0.4
			c0.47-0.22,0.81-0.65,0.92-1.16c0.97,0.24,1.88,0.62,2.28,1.22C22.83,31.83,22.88,32.27,22.73,32.66z M22.79,29.87
			c-1.98-0.42-3.24-2.36-2.82-4.34c0.42-1.98,2.36-3.24,4.34-2.82c1.98,0.42,3.24,2.36,2.82,4.34c0,0,0,0.01,0,0.01
			c-0.42,1.97-2.36,3.23-4.33,2.81C22.8,29.87,22.79,29.87,22.79,29.87z M35.55,38.75c-0.56-2.56-2.83-3.22-3.7-2.35
			c-0.63,0.64,0.78,1.41,0.7,2.33c-0.08,1.22-0.64,3,0.38,3.44S36.1,41.31,35.55,38.75z M14.18,16.13c-1-0.2-1.98-0.47-2.94-0.81
			c0.27,0.68,0.44,1.4,0.52,2.13c0.29,0.06,0.7,0.2,1.28,0.32c1.39,0.28,2.8,0.49,4.22,0.63c2.75,0.23,5.51-0.01,8.18-0.71
			c0.28-0.74,0.62-1.46,1.02-2.14c-1.5,0.41-5.08,1.28-7.68,1.18C17.24,16.67,15.7,16.46,14.18,16.13z M29.81,19.61
			c1.17-2.15,2.64-4.6,0.79-5.8c-1.86-1.2-4.18,2.71-4.79,4.42C27.21,18.42,28.58,18.89,29.81,19.61L29.81,19.61z M30.07,15.1
			c1.12,0.61-0.35,2.45-0.35,2.45s0.56-1.49,0-1.76c-0.71-0.34-1.28,1.03-1.75,1.84C28.18,16.01,28.94,14.49,30.07,15.1L30.07,15.1z
			 M28.11,13.6c0.58-0.53,1.37-0.77,2.15-0.65c0.25,0.06,0.48,0.15,0.69,0.29c0.25,0.16,0.47,0.35,0.66,0.58l0.11-0.01
			c0.81-0.08,1.97-0.57,1.79-0.78c-0.18-0.21-0.57-0.12-1.61-0.03c1.84-0.66,3.69-2.9,3.02-2.91c-0.67-0.01-2.32,1.52-2.45,1.49
			s1.11-1.33,0.57-1.19c-0.54,0.14-2.75,1.66-2.64,1.12s2.4-3.5,1.61-3.81c-0.79-0.31-1.99,1.87-1.98,1.67s0.05-1.84-0.16-1.48
			c-0.21,0.36-1.61,3.77-1.77,3.77c-0.17-0.01-0.54-1.19-0.7-0.83c-0.12,0.66-0.19,1.32-0.23,1.99
			C27.5,13.05,27.82,13.32,28.11,13.6L28.11,13.6z"/>
		<path class="st3" d="M37.43,41.7l-0.66-0.12l0.42-2.39c0.07-0.41-0.2-0.79-0.61-0.87l-0.55-0.1c0,0.03,0.01,0.07,0.01,0.1
			c0.2,0.51,0.26,1.07,0.15,1.61c-0.04,0.38-0.22,1.03-0.26,1.16c-0.01,0.03-0.02,0.06-0.04,0.08c-0.33,0.74-0.76,1.1-1.47,1.34
			l2.78,0.49c0.36,0.06,0.71-0.18,0.77-0.54S37.78,41.76,37.43,41.7z"/>
		<path class="st3" d="M44.46,16.4l-8.9-1.57c-0.45-0.08-0.87,0.22-0.95,0.67l-0.4,2.28c-0.08,0.45,0.22,0.87,0.67,0.95l8.9,1.57
			c0.45,0.08,0.88-0.22,0.95-0.67l0.4-2.28C45.2,16.9,44.9,16.48,44.46,16.4z"/>
		<path class="st3" d="M42.16,26.23c-1.45-0.26-2.84,0.71-3.1,2.17c-0.26,1.45,0.71,2.84,2.17,3.1c1.45,0.26,2.84-0.71,3.1-2.17
			C44.59,27.87,43.62,26.49,42.16,26.23z M43.01,29.09c-0.13,0.72-0.82,1.2-1.53,1.07c-0.72-0.13-1.2-0.82-1.07-1.53
			c0.13-0.72,0.82-1.2,1.53-1.07S43.13,28.38,43.01,29.09z"/>
		<path class="st3" d="M37.67,28.85l-1.85-0.33c-0.43-0.08-0.85,0.22-0.92,0.65l-1.11,6.29c0.68,0.22,1.15,0.7,1.4,1.3l2.9,0.51
			c0.43,0.08,0.85-0.22,0.92-0.65l0.74-4.19C38.47,31.7,37.65,30.34,37.67,28.85z"/>
		<path class="st3" d="M42.21,21.38l-6.25-1.1c-0.46-0.08-0.89,0.22-0.97,0.67h0l-0.89,5.06c-0.08,0.45,0.23,0.89,0.68,0.97
			l3.12,0.55c0.64-1.85,2.55-3.01,4.54-2.65l0.45-2.53C42.96,21.9,42.65,21.46,42.21,21.38z"/>
		<path class="st3" d="M32.79,21.43l1.59,0.06l-0.51,2.82h-0.65C33.22,24.31,33.16,22.45,32.79,21.43z"/>
		<polygon class="st3" points="33.37,28.75 34.42,28.75 34.08,31.15 33.37,31.15 		"/>
	</g>
</g>
</svg>
