<?xml version="1.0" encoding="utf-8"?>
<!-- Generator: Adobe Illustrator 24.0.3, SVG Export Plug-In . SVG Version: 6.00 Build 0)  -->
<svg version="1.1" id="Layer_1" xmlns="http://www.w3.org/2000/svg" xmlns:xlink="http://www.w3.org/1999/xlink" x="0px" y="0px"
	 viewBox="0 0 50 50" style="enable-background:new 0 0 50 50;" xml:space="preserve">
<style type="text/css">
	.st0{fill:#E589EF;}
	.st1{fill:#F799FF;}
	.st2{fill:#444444;}
	.st3{fill:none;stroke:#444444;stroke-width:0.8213;stroke-linecap:round;stroke-miterlimit:10;}
	.st4{fill:none;stroke:#444444;stroke-width:0.8213;stroke-linecap:round;stroke-miterlimit:9.9998;}
	.st5{fill:#00C8E2;}
	.st6{fill:#00DFFC;}
</style>
<g>
	<path class="st0" d="M12.2,43.4l34.5-12.5c0.5-1.9,0.8-3.9,0.8-5.9C47.5,12.6,37.4,2.5,25,2.5S2.5,12.6,2.5,25
		C2.5,32.6,6.4,39.4,12.2,43.4z"/>
</g>
<g>
	<path class="st1" d="M37.3,6.2c-3.5-2.3-7.7-3.6-12.2-3.6C15,2.5,6.4,9.2,3.6,18.4L37.3,6.2z"/>
</g>
<g>
	<path class="st2" d="M25,48.5C12,48.5,1.5,38,1.5,25S12,1.5,25,1.5S48.5,12,48.5,25c0,2.1-0.3,4.2-0.8,6.2
		c-0.2,0.6-0.7,0.9-1.3,0.7c-0.6-0.2-0.9-0.7-0.7-1.3c0.5-1.8,0.7-3.7,0.7-5.6c0-11.8-9.6-21.4-21.4-21.4C13.2,3.6,3.6,13.2,3.6,25
		S13.2,46.4,25,46.4c0.6,0,1,0.5,1,1S25.6,48.5,25,48.5z"/>
</g>
<g>
	<g>
		<circle class="st2" cx="25" cy="25" r="2.3"/>
		<ellipse class="st3" cx="25" cy="25" rx="12.4" ry="4.7"/>
		<ellipse transform="matrix(0.5 -0.866 0.866 0.5 -9.1526 34.1498)" class="st4" cx="25" cy="25" rx="12.4" ry="4.7"/>
		<ellipse transform="matrix(0.866 -0.5 0.5 0.866 -9.1505 15.8487)" class="st4" cx="25" cy="25" rx="4.7" ry="12.4"/>
	</g>
</g>
<g>
	<g>
		<path class="st5" d="M12.3,43.3l34.2-12.5C47,29,47.3,27,47.3,25c0-12.3-10-22.3-22.3-22.3S2.7,12.7,2.7,25
			C2.7,32.6,6.5,39.3,12.3,43.3z"/>
	</g>
	<g>
		<path class="st6" d="M37.2,6.3C33.7,4,29.6,2.7,25.1,2.7C15,2.7,6.5,9.3,3.8,18.5L37.2,6.3z"/>
	</g>
	<g>
		<circle class="st2" cx="25" cy="25" r="2.3"/>
		<path class="st2" d="M32.2,20.8c0.9-3.4,0.7-6-0.8-6.9c-1.2-0.7-3-0.2-5.1,1.5c-0.4,0.4-0.9,0.8-1.3,1.2c-0.4-0.4-0.9-0.9-1.3-1.2
			c-2.1-1.7-3.8-2.2-5.1-1.5c-1.5,0.9-1.8,3.5-0.8,6.9c-3.4,0.9-5.5,2.4-5.5,4.2c0,1.8,2.2,3.3,5.6,4.2c-0.2,0.6-0.3,1.2-0.4,1.8
			c-0.4,2.6,0,4.4,1.2,5.1c0.3,0.2,0.7,0.3,1.2,0.3c1.1,0,2.4-0.6,3.9-1.8c0.4-0.4,0.9-0.8,1.3-1.2c0.4,0.4,0.9,0.9,1.3,1.2
			c1.5,1.2,2.8,1.8,3.9,1.8c0.4,0,0.8-0.1,1.2-0.3c1.2-0.7,1.6-2.5,1.2-5.1c-0.1-0.6-0.2-1.2-0.4-1.8c3.4-0.9,5.6-2.4,5.6-4.2
			C37.8,23.2,35.6,21.7,32.2,20.8z M26.7,15.8c1.4-1.1,2.6-1.7,3.6-1.7c0.3,0,0.7,0.1,0.9,0.2c1.3,0.7,1.4,3.2,0.6,6.3
			c-1.2-0.3-2.5-0.5-3.9-0.6c-0.8-1.1-1.6-2.2-2.5-3.1C25.8,16.6,26.2,16.2,26.7,15.8z M28.9,27.3c-0.4,0.8-0.9,1.5-1.4,2.2
			c-0.8,0.1-1.7,0.1-2.6,0.1c-0.9,0-1.7,0-2.6-0.1c-0.5-0.7-0.9-1.4-1.4-2.2c-0.4-0.8-0.8-1.5-1.2-2.3c0.4-0.8,0.8-1.5,1.2-2.3
			c0.4-0.8,0.9-1.5,1.4-2.2c0.8-0.1,1.7-0.1,2.6-0.1s1.7,0,2.6,0.1c0.5,0.7,0.9,1.4,1.4,2.2c0.4,0.8,0.8,1.5,1.2,2.3
			C29.8,25.7,29.4,26.5,28.9,27.3z M30.4,25.6c0.5,1.1,0.9,2.2,1.2,3.2c-1,0.3-2.2,0.4-3.4,0.6c0.4-0.6,0.8-1.2,1.2-1.9
			C29.7,26.9,30.1,26.2,30.4,25.6z M25,32.6c-0.7-0.8-1.5-1.7-2.2-2.7c0.7,0,1.4,0.1,2.2,0.1s1.5,0,2.2-0.1
			C26.5,30.9,25.7,31.8,25,32.6z M21.8,29.4c-1.2-0.1-2.4-0.3-3.4-0.6c0.3-1,0.7-2.1,1.2-3.2c0.3,0.6,0.7,1.3,1,1.9
			C21,28.2,21.4,28.8,21.8,29.4z M19.6,24.4c-0.5-1.1-0.9-2.2-1.2-3.2c1-0.2,2.2-0.4,3.4-0.6c-0.4,0.6-0.8,1.2-1.2,1.9
			C20.3,23.1,19.9,23.8,19.6,24.4z M25,17.4c0.7,0.8,1.5,1.7,2.2,2.7C26.5,20,25.7,20,25,20s-1.5,0-2.2,0.1
			C23.5,19.1,24.3,18.2,25,17.4z M29.4,22.5c-0.4-0.6-0.8-1.3-1.2-1.9c1.2,0.1,2.3,0.3,3.4,0.6c-0.3,1-0.7,2.1-1.2,3.2
			C30.1,23.8,29.7,23.1,29.4,22.5z M18.9,14.4c1-0.6,2.6,0,4.5,1.5c0.4,0.4,0.9,0.8,1.3,1.2c-0.9,0.9-1.7,1.9-2.5,3.1
			c-1.4,0.1-2.7,0.3-3.9,0.6C17.4,17.6,17.6,15.1,18.9,14.4z M12.7,25c0-1.5,2.1-2.8,5.2-3.7c0.3,1.2,0.8,2.4,1.4,3.7
			c-0.6,1.3-1.1,2.5-1.4,3.7C14.8,27.8,12.7,26.5,12.7,25z M23.3,34.2c-1.9,1.5-3.5,2-4.5,1.5c-1-0.6-1.4-2.3-1-4.6
			c0.1-0.6,0.2-1.1,0.4-1.7c1.2,0.3,2.5,0.5,3.9,0.6c0.8,1.1,1.6,2.2,2.5,3.1C24.2,33.4,23.8,33.8,23.3,34.2z M32.1,31
			c0.4,2.4,0,4-1,4.6c-1,0.6-2.6,0-4.5-1.5c-0.4-0.4-0.9-0.8-1.3-1.2c0.9-0.9,1.7-1.9,2.5-3.1c1.4-0.1,2.7-0.3,3.9-0.6
			C31.9,29.9,32,30.5,32.1,31z M32.1,28.7c-0.3-1.2-0.8-2.4-1.4-3.7c0.6-1.3,1.1-2.5,1.4-3.7c3.1,0.8,5.2,2.2,5.2,3.7
			C37.3,26.5,35.2,27.8,32.1,28.7z"/>
		<path class="st2" d="M25,1.4C12,1.4,1.4,12,1.4,25C1.4,38,12,48.6,25,48.6c0.7,0,1.2-0.6,1.2-1.2s-0.6-1.2-1.2-1.2
			C13.4,46.1,3.9,36.6,3.9,25S13.4,3.9,25,3.9c11.6,0,21.1,9.4,21.1,21.1c0,1.9-0.2,3.7-0.7,5.5c-0.2,0.7,0.2,1.4,0.9,1.5
			c0.7,0.2,1.4-0.2,1.5-0.9c0.5-2,0.8-4.1,0.8-6.2C48.6,12,38,1.4,25,1.4z"/>
		<path class="st2" d="M25,7.4C15.3,7.4,7.4,15.3,7.4,25S15.3,42.6,25,42.6S42.6,34.7,42.6,25S34.7,7.4,25,7.4z M25,42.1
			c-9.4,0-17.1-7.7-17.1-17.1S15.6,7.9,25,7.9S42.1,15.6,42.1,25S34.4,42.1,25,42.1z"/>
	</g>
</g>
</svg>
