<?xml version="1.0" encoding="utf-8"?>
<!-- Generator: Adobe Illustrator 28.0.0, SVG Export Plug-In . SVG Version: 6.00 Build 0)  -->
<svg version="1.1" id="Layer_1" xmlns="http://www.w3.org/2000/svg" xmlns:xlink="http://www.w3.org/1999/xlink" x="0px" y="0px"
	 viewBox="0 0 50 50" style="enable-background:new 0 0 50 50;" xml:space="preserve">
<style type="text/css">
	.st0{fill:#00DFFC;}
	.st1{fill:none;stroke:#444444;stroke-width:2.5;stroke-linecap:round;stroke-linejoin:round;stroke-miterlimit:10;}
	.st2{fill:none;stroke:#444444;stroke-linecap:round;stroke-linejoin:round;stroke-miterlimit:10;}
	.st3{fill:none;stroke:#444444;stroke-width:0.5;stroke-linecap:round;stroke-linejoin:round;stroke-miterlimit:10;}
	.st4{fill:#444444;}
</style>
<path class="st0" d="M44.9,12.4l-5.6-3.6l-7.7-4.4l-6-2.8c-3.2,0-21.5,8.9-21.5,12.1l-0.5,7.8l0.5,15.1l11.5,7.6l31-11
	C47.4,32.7,45.9,14.4,44.9,12.4z"/>
<g>
	<g>
		<path class="st1" d="M30.1,46.5l-2.2,1.3c-1.7,1-3.8,1-5.5,0l-15.6-9c-1.7-1-2.7-2.8-2.7-4.7V16c0-2,1-3.8,2.7-4.7l15.6-9
			c1.7-1,3.8-1,5.5,0l15.6,9c1.7,1,2.7,2.8,2.7,4.7v18c0,2-1,3.8-2.7,4.7L41,40.1"/>
	</g>
</g>
<g>
	<g>
		<g>
			<path class="st2" d="M27,34.4h3.8c2,0,3.6-1.6,3.6-3.5c0-1.9-1.6-3.5-3.6-3.5c-0.1,0-0.2,0-0.3,0c0.2-0.5,0.3-1,0.3-1.6
				c0-2.1-1.8-3.9-4-3.9c-1,0-1.9,0.4-2.6,0.9c-0.6-2.1-2.6-3.6-4.9-3.6c-2.8,0-5.2,2.2-5.2,5c0,0.6,0.1,1.1,0.3,1.6
				c-2.2,0.3-3.8,2-3.8,4.2c0,2.3,2,4.3,4.4,4.3h1.7"/>
		</g>
	</g>
	<g>
		<path class="st2" d="M32.8,25.6c1.5-0.8,2.5-2.4,2.5-4.3c0-2.7-2.2-4.9-4.9-4.9c-2.3,0-4.2,1.5-4.7,3.6v0"/>
		<line class="st2" x1="30.4" y1="14.3" x2="30.4" y2="12.2"/>
		<g>
			<line class="st2" x1="37.4" y1="21.3" x2="39.5" y2="21.3"/>
		</g>
		<g>
			<line class="st2" x1="35.4" y1="26.3" x2="36.9" y2="27.8"/>
			<line class="st2" x1="23.9" y1="14.9" x2="25.4" y2="16.4"/>
		</g>
		<line class="st2" x1="35.4" y1="16.4" x2="36.9" y2="14.9"/>
	</g>
</g>
<g>
	<g>
		<ellipse transform="matrix(0.866 -0.5 0.5 0.866 -13.2596 15.2712)" class="st3" cx="21.9" cy="32.4" rx="2" ry="5.2"/>
		<ellipse transform="matrix(0.5 -0.866 0.866 0.5 -17.1071 35.1263)" class="st3" cx="21.9" cy="32.4" rx="5.2" ry="2"/>
		<ellipse class="st3" cx="21.9" cy="32.4" rx="5.2" ry="2"/>
	</g>
	<circle class="st4" cx="21.9" cy="32.3" r="1"/>
</g>
</svg>
