<svg xmlns="http://www.w3.org/2000/svg" id="Layer_1" x="0" y="0" version="1.1" viewBox="0 0 50 50" xml:space="preserve"><style>.st3{fill:#444}</style><path fill="#e589ef" d="M46.2 3.9H3.4c-1.5 0-1 7.2-1 8.6l-.3 17.6-.5 10.6 1.3 3.8 12.9.7 33.5-11.9V9.7c0-1.4-1.7-5.8-3.1-5.8z"/><g fill="none" stroke="#444" stroke-linecap="round" stroke-linejoin="round" stroke-miterlimit="10"><path stroke-width="2.5" d="M48.4 33.7V7.3c0-1.8-1.5-3.4-3.4-3.4H4.9C3 3.9 1.6 5.4 1.6 7.3v34.3C1.6 43.4 3.1 45 5 45h28.2"/><path d="M48.4 12.8H1.6"/></g><circle cx="7.1" cy="8.8" r="1.7" class="st3"/><circle cx="12.1" cy="8.8" r="1.7" class="st3"/><circle cx="16.7" cy="8.8" r="1.7" class="st3"/><path fill="none" stroke="#444" stroke-linecap="round" stroke-linejoin="round" stroke-miterlimit="10" d="M33.8 16.9H33L31.9 18v9.6l1.1 1h.8m8-11.7h.9l1 1.1v9.6l-1 1h-.9m-6.6-8.3l5.4 5.5m-5.3.1l5.2-5.7"/><path d="M28.2 19.8c-.1-.3-.3-.7-.8-.9-1.3-.7-4-.1-7.3 1.5l-3.9 1.8-14.1-1.8v.6l13.2 1.7.9.1h.1l4-1.8c3.7-1.8 5.9-1.9 6.8-1.5.2.1.3.2.4.4.2 1-4.4 4.5-5.9 5.5-.1 0-.1.1-.1.2.6 11.7.7 12.2.7 12.2l-4 2.1H18c-.1 0-.2-.1-.2-.1l-4.6-10.3c0-.1-.1-.1-.2-.1h-.2l-7.4 5.2-.1.1-1.1 3.8-2.2.2v.6l2.5-.1c.1 0 .2-.1.2-.2l1.1-3.8 7.1-4.8 4.5 10.1c.1.2.3.3.6.3h.2c.1 0 .3 0 .4-.1l4-2.1c.2-.1.3-.3.3-.6 0-.2-.4-7.8-.6-12.1.9-.8 6.3-4.5 5.9-6.1zM2.7 31.2h.2l.6-.3L9.7 27c.1 0 .1-.1.1-.2s-.1-.2-.2-.2L2 23.8v.6l6.7 2.5-6.2 3.9-.5-.2v.6h.7z" class="st3"/><path d="M12.1 25.1c-.1 0-.2 0-.2-.1-.1-.1 0-.3.1-.3l4.3-2.4c.1-.1.3 0 .3.1.1.1 0 .3-.1.3l-4.4 2.4zm-7.4 6.5l-2-.4c-.1 0-.2-.2-.2-.3s.2-.2.3-.2l1.9.3c.1 0 .2.2.2.3 0 .2-.1.3-.2.3zm7 10.7c-.1 0-.2 0-.2-.1-.1-.1 0-.3.1-.3l2.5-1.5c.1-.1.3 0 .3.1.1.1 0 .3-.1.3l-2.5 1.5h-.1z" class="st3"/></svg>