<?xml version="1.0" encoding="utf-8"?>
<!-- Generator: Adobe Illustrator 24.0.3, SVG Export Plug-In . SVG Version: 6.00 Build 0)  -->
<svg version="1.1" id="Camada_1" xmlns="http://www.w3.org/2000/svg" xmlns:xlink="http://www.w3.org/1999/xlink" x="0px" y="0px"
	 viewBox="0 0 50 50" style="enable-background:new 0 0 50 50;" xml:space="preserve">
<style type="text/css">
	.st0{fill:#00C8E2;}
	.st1{fill:#00DFFC;}
	.st2{fill:none;stroke:#444444;stroke-width:2.5;stroke-linecap:round;stroke-linejoin:round;stroke-miterlimit:10;}
	.st3{fill:#444444;}
</style>
<polygon class="st0" points="48.26,22.63 48.31,26.92 2.2,43.41 1.72,30.66 1.69,26.66 48.25,9.72 "/>
<polygon class="st1" points="48.2,7.13 48.2,10.64 1.77,27.62 2.01,20.3 2.01,16.32 48.23,1.46 "/>
<polyline class="st2" points="30.41,48.16 1.82,48.16 1.82,2.1 48.18,2.1 48.18,48.16 43.25,48.16 "/>
<g>
	<g>
		<circle class="st3" cx="25" cy="25.78" r="3.01"/>
	</g>
	<g>
		<path class="st3" d="M34.18,20.52c1.2-4.36,0.9-7.67-1.05-8.73c-1.5-0.9-3.76-0.15-6.47,1.96c-0.6,0.45-1.2,1.05-1.66,1.5
			c-0.6-0.6-1.2-1.05-1.66-1.5c-2.56-2.11-4.97-2.86-6.47-1.96c-1.96,1.05-2.26,4.51-1.05,8.73c-4.36,1.2-7.07,3.16-7.07,5.27
			c0,2.26,2.71,4.21,7.07,5.27c-0.15,0.75-0.45,1.5-0.45,2.26c-0.6,3.31,0,5.72,1.5,6.47c0.45,0.3,0.9,0.45,1.5,0.45
			c1.35,0,3.01-0.75,4.97-2.26c0.6-0.45,1.2-1.05,1.66-1.5c0.6,0.6,1.2,1.05,1.66,1.5c1.81,1.5,3.61,2.26,4.97,2.26
			c0.6,0,1.05-0.15,1.5-0.45c1.5-0.9,2.11-3.16,1.5-6.47c-0.15-0.75-0.3-1.5-0.45-2.26c4.36-1.2,7.07-3.16,7.07-5.27
			C41.25,23.53,38.54,21.57,34.18,20.52z M27.11,14.05c1.81-1.35,3.31-2.11,4.51-2.11c0.45,0,0.9,0.15,1.2,0.3
			c1.66,0.9,1.81,4.06,0.75,8.13c-1.5-0.3-3.16-0.6-4.97-0.75c-1.05-1.5-2.11-2.71-3.16-3.91C26.05,15.1,26.5,14.5,27.11,14.05z
			 M29.97,28.64c-0.6,0.9-1.2,1.96-1.81,2.71c-1.05,0.15-2.11,0.15-3.31,0.15c-1.05,0-2.26,0-3.31-0.15c-0.6-0.9-1.2-1.81-1.81-2.71
			c-0.6-0.9-1.05-1.96-1.5-2.86c0.45-0.9,0.9-1.96,1.5-2.86s1.2-1.96,1.81-2.71c1.05-0.15,2.11-0.15,3.31-0.15
			c1.2,0,2.26,0,3.31,0.15c0.6,0.9,1.2,1.81,1.81,2.71c0.6,0.9,1.05,1.96,1.5,2.86C31.02,26.69,30.57,27.74,29.97,28.64z
			 M31.92,26.54c0.6,1.35,1.2,2.71,1.5,4.06c-1.35,0.3-2.71,0.6-4.36,0.75c0.45-0.75,1.05-1.5,1.5-2.41
			C31.02,28.19,31.47,27.29,31.92,26.54z M25,35.56c-0.9-1.05-1.96-2.11-2.86-3.46c0.9,0,1.81,0.15,2.86,0.15s1.96,0,2.86-0.15
			C26.96,33.31,25.9,34.51,25,35.56z M20.94,31.35c-1.5-0.15-3.01-0.45-4.36-0.75c0.45-1.35,0.9-2.71,1.5-4.06
			c0.45,0.75,0.9,1.66,1.35,2.41C19.88,29.85,20.34,30.6,20.94,31.35z M18.08,25.03c-0.6-1.35-1.2-2.86-1.5-4.06
			c1.35-0.3,2.71-0.6,4.36-0.75c-0.45,0.75-1.05,1.5-1.5,2.41C18.98,23.53,18.53,24.28,18.08,25.03z M25,16
			c0.9,1.05,1.96,2.11,2.86,3.46c-0.9,0-1.81-0.15-2.86-0.15s-1.96,0-2.86,0.15C23.04,18.26,24.1,17.06,25,16z M30.57,22.62
			c-0.45-0.75-0.9-1.66-1.5-2.41c1.5,0.15,3.01,0.45,4.36,0.75c-0.45,1.35-0.9,2.71-1.5,4.06C31.47,24.28,31.02,23.38,30.57,22.62z
			 M17.18,12.24c1.2-0.75,3.31,0,5.72,1.81c0.6,0.45,1.05,0.9,1.66,1.5c-1.05,1.2-2.11,2.41-3.16,3.91
			c-1.81,0.15-3.46,0.45-4.97,0.75C15.37,16.3,15.52,13.14,17.18,12.24z M9.35,25.78c0-1.96,2.71-3.61,6.62-4.66
			c0.45,1.5,1.05,3.01,1.81,4.66c-0.75,1.66-1.35,3.16-1.81,4.66C12.06,29.39,9.35,27.74,9.35,25.78z M22.89,37.52
			c-2.41,1.96-4.51,2.56-5.72,1.81s-1.66-2.86-1.2-5.87c0.15-0.75,0.3-1.5,0.45-2.26c1.5,0.3,3.16,0.6,4.97,0.75
			c1.05,1.5,2.11,2.71,3.16,3.91C23.95,36.47,23.5,37.07,22.89,37.52z M34.03,33.46c0.45,3.01,0,5.12-1.2,5.87s-3.31,0-5.72-1.81
			c-0.6-0.45-1.05-0.9-1.66-1.5c1.05-1.2,2.11-2.41,3.16-3.91c1.81-0.15,3.46-0.45,4.97-0.75C33.73,31.95,34.03,32.7,34.03,33.46z
			 M34.03,30.45c-0.45-1.5-1.05-3.16-1.81-4.66c0.75-1.66,1.35-3.16,1.81-4.66c3.91,1.05,6.62,2.71,6.62,4.66
			S37.94,29.39,34.03,30.45z"/>
	</g>
</g>
</svg>
