<?xml version="1.0" encoding="utf-8"?>
<!-- Generator: Adobe Illustrator 27.9.0, SVG Export Plug-In . SVG Version: 6.00 Build 0)  -->
<svg version="1.1" id="Camada_3" xmlns="http://www.w3.org/2000/svg" xmlns:xlink="http://www.w3.org/1999/xlink" x="0px" y="0px"
	 viewBox="0 0 50 50" style="enable-background:new 0 0 50 50;" xml:space="preserve">
<style type="text/css">
	.st0{fill:#C3FF68;}
	.st1{fill:none;stroke:#444444;stroke-width:2.5;stroke-linecap:round;stroke-linejoin:round;stroke-miterlimit:10;}
	.st2{fill:none;stroke:#444444;stroke-linecap:round;stroke-linejoin:round;stroke-miterlimit:10;}
	.st3{fill:#444444;}
</style>
<g>
	<g>
		<path class="st0" d="M42.1,15.6l-1.7-7.2l-1.2-2.5c-0.9-0.8-6-3.4-7.2-3l-6.5,2.5c-7.5-7.2-18.2,2-16.5,7.5l-7.2,9.5L2,22.2
			c-0.6,0.8-0.2,4.5,0.1,5.4l2.3,4.7c10.4,2.3,3.3,5.5,5.5,7l3.5,5.7l29.3-10.7c2.5-0.9,3.6-2.7,4.8-5
			C52.4,20.3,42.7,16.9,42.1,15.6z"/>
		<path class="st1" d="M41.6,39c0.4-1.6,0.4-3.2,0-4.7c1.5-0.4,2.9-1.3,4.1-2.4c3.8-3.8,3.8-10,0-13.8c-1.2-1.2-2.6-2-4.1-2.4
			c0.4-1.5,0.5-3,0.2-4.6c-1-5.3-6.1-8.7-11.4-7.7c-2,0.4-3.8,1.4-5.1,2.8C24.1,4.9,22.7,4,21,3.5c-5.2-1.5-10.5,1.5-12,6.7
			c-0.5,1.8-0.5,3.6,0,5.2c-1.7,0.4-3.3,1.3-4.6,2.6c-3.8,3.8-3.8,10,0,13.8c1.5,1.5,3.3,2.4,5.2,2.7c-0.6,1.9-0.6,3.9,0.1,5.9
			c1.7,5.1,7.3,7.8,12.3,6.1c1.5-0.5,2.8-1.3,3.8-2.4c1.1,1,2.5,1.7,4,2"/>
	</g>
	<g>
		<path class="st2" d="M14.3,26.8c0,0-2,10.2,4.8,12.7c6.8,2.5,12.7-8.9,12.8-12.8"/>
		<circle class="st3" cx="32.1" cy="24.7" r="2.9"/>
	</g>
	<g>
		<path class="st2" d="M29.5,14.5c0,0-7.6-7.1-13.3-2.7s0.7,15.2,4,17.5"/>
		<ellipse transform="matrix(0.1348 -0.9909 0.9909 0.1348 -11.2021 47.9789)" class="st3" cx="21.9" cy="30.4" rx="2.9" ry="2.9"/>
	</g>
	<g>
		<path class="st2" d="M32.7,33.9c0,0,9.9-3,9.1-10.1s-13.6-7-17.1-5.3"/>
		<ellipse transform="matrix(0.6148 -0.7887 0.7887 0.6148 -6.423 25.4136)" class="st3" cx="22.8" cy="19.3" rx="2.9" ry="2.9"/>
	</g>
</g>
</svg>
