<?xml version="1.0" encoding="utf-8"?>
<!-- Generator: Adobe Illustrator 28.0.0, SVG Export Plug-In . SVG Version: 6.00 Build 0)  -->
<svg version="1.1" id="Layer_1" xmlns="http://www.w3.org/2000/svg" xmlns:xlink="http://www.w3.org/1999/xlink" x="0px" y="0px"
	 viewBox="0 0 50 50" style="enable-background:new 0 0 50 50;" xml:space="preserve">
<style type="text/css">
	.st0{fill:#E589EF;}
	.st1{fill:none;stroke:#454444;stroke-width:2.5;stroke-linecap:round;stroke-linejoin:round;stroke-miterlimit:10;}
	.st2{fill:none;stroke:#454444;stroke-linecap:round;stroke-linejoin:round;stroke-miterlimit:10;}
	.st3{fill:#444444;}
	.st4{fill:none;stroke:#444444;stroke-linecap:round;stroke-linejoin:round;stroke-miterlimit:10;}
</style>
<g>
	<path class="st0" d="M46.2,3.9H3.4c-1.5,0-1,7.2-1,8.6L2.1,30.1L1.6,40.7l1.3,3.8l12.9,0.7l33.5-11.9V10V9.7l0,0
		C49.3,8.3,47.6,3.9,46.2,3.9z"/>
	<g>
		<path class="st1" d="M48.4,33.7V7.3c0-1.8-1.5-3.4-3.4-3.4H4.9C3,3.9,1.6,5.4,1.6,7.3v34.3c0,1.8,1.5,3.4,3.4,3.4h6.2h22"/>
		<line class="st2" x1="48.4" y1="12.8" x2="1.6" y2="12.8"/>
	</g>
	<circle class="st3" cx="7.1" cy="8.8" r="1.7"/>
	<circle class="st3" cx="12.1" cy="8.8" r="1.7"/>
	<circle class="st3" cx="16.7" cy="8.8" r="1.7"/>
	<g>
		<polyline class="st4" points="33.8,16.9 33,16.9 31.9,18 31.9,27.6 33,28.6 33.8,28.6 		"/>
		<polyline class="st4" points="41.8,16.9 42.7,16.9 43.7,18 43.7,27.6 42.7,28.6 41.8,28.6 		"/>
		<line class="st4" x1="35.2" y1="20.3" x2="40.6" y2="25.8"/>
		<line class="st4" x1="35.3" y1="25.9" x2="40.5" y2="20.2"/>
	</g>
	<g>
		<g>
			<g>
				<path class="st3" d="M28.2,19.8c-0.1-0.3-0.3-0.7-0.8-0.9c-1.3-0.7-4-0.1-7.3,1.5l-3.9,1.8L2.1,20.4V21l13.2,1.7l0.9,0.1h0.1
					l0,0l0,0l4-1.8c3.7-1.8,5.9-1.9,6.8-1.5c0.2,0.1,0.3,0.2,0.4,0.4c0.2,1-4.4,4.5-5.9,5.5c-0.1,0-0.1,0.1-0.1,0.2
					c0.6,11.7,0.7,12.2,0.7,12.2l0,0l-4,2.1c0,0-0.1,0-0.2,0c-0.1,0-0.2-0.1-0.2-0.1l-4.6-10.3c0-0.1-0.1-0.1-0.2-0.1
					c-0.1,0-0.1,0-0.2,0l-7.4,5.2l-0.1,0.1l-1.1,3.8L2,38.7v0.6l2.5-0.1c0.1,0,0.2-0.1,0.2-0.2l1.1-3.8l7.1-4.8l4.5,10.1
					c0.1,0.2,0.3,0.3,0.6,0.3c0.1,0,0.1,0,0.2,0c0.1,0,0.3,0,0.4-0.1l4-2.1c0.2-0.1,0.3-0.3,0.3-0.6c0-0.2-0.4-7.8-0.6-12.1
					C23.2,25.1,28.6,21.4,28.2,19.8z M2.7,31.2c0.1,0,0.1,0,0.2,0l0.6-0.3l0,0l6.2-3.9c0.1,0,0.1-0.1,0.1-0.2c0-0.1-0.1-0.2-0.2-0.2
					L2,23.8v0.6l6.7,2.5l-6.2,3.9L2,30.6v0.6H2.7L2.7,31.2z"/>
			</g>
			<g>
				<path class="st3" d="M12.1,25.1c-0.1,0-0.2,0-0.2-0.1c-0.1-0.1,0-0.3,0.1-0.3l4.3-2.4c0.1-0.1,0.3,0,0.3,0.1
					c0.1,0.1,0,0.3-0.1,0.3L12.1,25.1L12.1,25.1z"/>
			</g>
		</g>
		<g>
			<path class="st3" d="M4.7,31.6L4.7,31.6l-2-0.4c-0.1,0-0.2-0.2-0.2-0.3s0.2-0.2,0.3-0.2L4.7,31c0.1,0,0.2,0.2,0.2,0.3
				C4.9,31.5,4.8,31.6,4.7,31.6z"/>
		</g>
		<g>
			<path class="st3" d="M11.7,42.3c-0.1,0-0.2,0-0.2-0.1c-0.1-0.1,0-0.3,0.1-0.3l2.5-1.5c0.1-0.1,0.3,0,0.3,0.1
				c0.1,0.1,0,0.3-0.1,0.3l-2.5,1.5H11.7z"/>
		</g>
	</g>
</g>
</svg>
