<svg xmlns="http://www.w3.org/2000/svg" id="Layer_1" x="0" y="0" version="1.1" viewBox="0 0 50 50" xml:space="preserve"><style>.st2{fill:#444}</style><path fill="#46b8b0" d="M10.8 22l-3 4c-2.9 9.5 2.4 10.5 2.5 11.2l.4 8.2c0 1.1 1.6 2.8 2.6 2.8l9.3.6 16-5.7-.6-3.7s5.2-3.7 3.8-10.3c.2-4.6-2.8-5-3-6.1l-1-17.7v-.2c.2-1.4-1-2.6-2.5-2.6L14.1 1.4c-1.5 0-3.4 5-3.4 6.5l.1 29.5"/><path fill="none" stroke="#444" stroke-linecap="round" stroke-linejoin="round" stroke-miterlimit="10" stroke-width="2.5" d="M38.3 43.1v-4.9s3.9-1.6 3.9-7.6-3.8-7.6-3.8-7.6V6.7c0-2.8-2.2-5-4.9-5.2h0-17.9 0c-2.8.2-4.9 2.4-4.9 5.2V23s-3.8 1.6-3.8 7.6 3.9 7.6 3.9 7.6v4.9c0 2.9 2.3 5.2 5.2 5.2h11.5"/><path d="M16.8 26.6l.3.9c.6 0 1.2-.1 1.8-.1l-.3-.9c-.5-1.4-.7-2.9-.7-4.6 0-1.9.4-3.7 1-5.2.1-.3.2-.5.4-.8-.5-.4-.9-.8-1.3-1.2-.1.3-.3.5-.4.8-.9 1.8-1.3 4-1.4 6.4-.1 1.6.2 3.2.6 4.7zm-1.5-2.4c-.1-.7-.1-1.4-.1-2-1.2.9-2.3 1.9-3.2 2.9.4.4.8.8 1.4 1 .4-.6 1.2-1.3 1.9-1.9z" class="st2"/><path d="M25.9 33.9c.1.1.2.2.2.3.3-.2.5-.4.7-.6 1.7-1.4 3-3.1 3.7-4.8.4 0 .7-.1 1-.3.8-.6 1-1.7.5-2.6-.6-.8-1.7-1-2.6-.5-.8.6-1 1.7-.5 2.6-.6 1.5-1.7 2.9-3.1 4.2.1.1.1.2.2.3-.1-.1-.1-.2-.2-.3-.2.2-.5.4-.7.6 0 .1.1.1.1.1l-.1-.1c-.5.4-1.1.7-1.6 1.1-2.3 1.3-4.9 2-7.2 1.8-2.1-.2-3.8-1-4.6-2.4-1-1.8-.6-4.2 1-6.5-.3-.1-.5-.3-.8-.4.2.2.5.3.8.4.2-.2.4-.5.6-.7-.6-.2-1.1-.5-1.5-.9-.2.2-.3.5-.5.7-.5.7-.9 1.4-1.2 2.1-1 2.2-.9 4.4.1 6.2 1.1 1.9 3.2 3.1 5.9 3.3 2.6.2 5.5-.5 8.1-2 .6-.4 1.2-.7 1.7-1.1.2-.2.1-.4 0-.5zm6.5 1.9c-1.7.2-3.6 0-5.6-.8-.5.4-1 .8-1.5 1.1l-.1.1c2.4 1.1 5 1.6 7.3 1.3 2.4-.3 4.3-1.4 5.3-3.2 1.1-1.9 1.1-4.3-.1-6.8-.1-.2-.2-.3-.2-.5-.2.7-.5 1.6-.8 2.5.4 1.4.3 2.8-.3 3.9-.8 1.3-2.2 2.1-4 2.4m-11-22.6c1.9-1.4 3.7-1 3.7-1 .6.1 1.1.3 1.6.7.3-.5.6-1 1.1-1.3-1-.7-2-1.1-3.2-1.2-1.8-.2-3.7 1-3.7 1-1.2.8-2.3 2-3.1 3.4.4.4.9.8 1.3 1.2.7-1.2 1.4-2.2 2.3-2.8z" class="st2"/><path d="M20.3 33.1c1 .3 2-.3 2.3-1.3.3-1-.3-2-1.3-2.3-.4-.1-.7-.1-1.1 0-.5-.6-.9-1.4-1.3-2.2-.6.1-1.2.1-1.8.1.5 1.3 1.1 2.4 1.9 3.3-.3 1.1.3 2.1 1.3 2.4zm13.2-10.6l-.9-.6c-.6.3-1.2.6-1.9.9.1 0 .2.1.3.2.2.1.4.3.6.4.6.4 1.1.8 1.6 1.2 1.2.5 2.4.9 3.5 1.3-.7-1.2-1.8-2.4-3.2-3.4.1 0 0 0 0 0zM22.1 17v-.2.2z" class="st2"/><path d="M34.6 25.9c.7.3 1.4.5 2 .8-.7-.3-1.3-.6-2-.8.5.6 1 1.2 1.4 1.8.1.2.2.3.3.5 0 0 0 .1.1.1.2.4.4.9.5 1.3.3-.8.6-1.8.8-2.5 0-.1-.1-.1-.1-.2-.2-.3-.4-.6-.6-1-1.1-.4-2.3-.8-3.5-1.3.3.4.7.8 1.1 1.3zM24.8 21c.4 0 .9.1 1.3.1h.2c1.5.3 3 .8 4.4 1.6.6-.3 1.2-.6 1.9-.9-.2-.1-.4-.3-.6-.4-2.8-1.7-5.9-2.4-8.6-2.1-.3-.4-.7-.7-1.1-.9-.3-.1-.7-.1-1 0 .1.1.3.2.4.4-.2-.1-.3-.2-.4-.3-.1 0-.3.1-.4.2-.9.5-1.2 1.6-.7 2.5.4.7 1.1 1 1.8.9.2 0 .5-.1.7-.2l.1-.1c0-.3-.1-.6-.1-.9 0 .3.1.6.1.9.3-.2.5-.4.6-.7.5 0 .9-.1 1.4-.1-.8-.5-1.5-1-2.3-1.4.8.4 1.6.9 2.3 1.4zm3.6-6.6c.8 1 1.3 2.3 1.7 3.6.5 0 1.1-.2 1.6-.4-.5.3-1.1.4-1.6.4.1.5.2.9.3 1.4l1.8.9c-.1-1-.3-1.9-.5-2.8-.3-1.1-.7-2.2-1.2-3.1-.2-.4-.5-.8-.7-1.1-.6-.8-1.2-1.4-1.9-1.9-.5.4-.9.8-1.1 1.3.5.5 1 1 1.6 1.7z" class="st2"/><path fill="none" stroke="#444" stroke-linecap="round" stroke-linejoin="round" stroke-miterlimit="10" stroke-width=".5" d="M28.5 5.2h-7.7c-.8 0-1.6-.7-1.6-1.6V1.5H30v2.1c.1 1-.6 1.6-1.5 1.6z"/></svg>