<svg xmlns="http://www.w3.org/2000/svg" id="Layer_1" x="0" y="0" version="1.1" viewBox="0 0 50 50" xml:space="preserve"><style>.st2{fill:#031326}</style><path fill="#c05e80" d="M45.4 14.6c0-.9-.5-1.7-1.3-2.2L41.7 11 4.6 24.6v10.7c0 .9.5 1.7 1.3 2.2l7.1 4.1 32.5-11.8-.1-15.2z"/><path fill="#d7698d" d="M26.4 3.1c-.8-.5-1.8-.5-2.6 0L5.5 13.7c-.8.5-1.3 1.3-1.3 2.2v10.2l38-13.8-15.8-9.2z"/><circle cx="25" cy="25" r="2" class="st2"/><path d="M31.1 21.5c.8-2.9.6-5.1-.7-5.8-1-.6-2.5-.1-4.3 1.3-.4.3-.8.7-1.1 1-.4-.4-.8-.7-1.1-1-1.7-1.4-3.3-1.9-4.3-1.3-1.3.7-1.5 3-.7 5.8-2.9.8-4.7 2.1-4.7 3.5 0 1.5 1.8 2.8 4.7 3.5-.1.5-.3 1-.3 1.5-.4 2.2 0 3.8 1 4.3.3.2.6.3 1 .3.9 0 2-.5 3.3-1.5.4-.3.8-.7 1.1-1 .4.4.8.7 1.1 1 1.2 1 2.4 1.5 3.3 1.5.4 0 .7-.1 1-.3 1-.6 1.4-2.1 1-4.3l-.3-1.5c2.9-.8 4.7-2.1 4.7-3.5 0-1.5-1.8-2.8-4.7-3.5zm-4.7-4.3c1.2-.9 2.2-1.4 3-1.4.3 0 .6.1.8.2 1.1.6 1.2 2.7.5 5.4-1-.2-2.1-.4-3.3-.5-.7-1-1.4-1.8-2.1-2.6.4-.4.7-.8 1.1-1.1zm1.9 9.7c-.4.6-.8 1.3-1.2 1.8-.7.1-1.4.1-2.2.1-.7 0-1.5 0-2.2-.1l-1.2-1.8c-.4-.6-.7-1.3-1-1.9.3-.6.6-1.3 1-1.9.4-.6.8-1.3 1.2-1.8.7-.1 1.4-.1 2.2-.1s1.5 0 2.2.1l1.2 1.8c.4.6.7 1.3 1 1.9-.3.6-.6 1.3-1 1.9zm1.3-1.4c.4.9.8 1.8 1 2.7-.9.2-1.8.4-2.9.5.3-.5.7-1 1-1.6.3-.5.6-1.1.9-1.6zm-4.6 6c-.6-.7-1.3-1.4-1.9-2.3.6 0 1.2.1 1.9.1s1.3 0 1.9-.1c-.6.8-1.3 1.6-1.9 2.3zm-2.7-2.8c-1-.1-2-.3-2.9-.5.3-.9.6-1.8 1-2.7.3.5.6 1.1.9 1.6.3.6.6 1.1 1 1.6zm-1.9-4.2c-.4-.9-.8-1.9-1-2.7.9-.2 1.8-.4 2.9-.5-.3.5-.7 1-1 1.6s-.6 1.1-.9 1.6zm4.6-6c.6.7 1.3 1.4 1.9 2.3-.6 0-1.2-.1-1.9-.1s-1.3 0-1.9.1c.6-.8 1.3-1.6 1.9-2.3zm3.7 4.4c-.3-.5-.6-1.1-1-1.6 1 .1 2 .3 2.9.5-.3.9-.6 1.8-1 2.7-.3-.5-.6-1.1-.9-1.6zM19.8 16c.8-.5 2.2 0 3.8 1.2.4.3.7.6 1.1 1-.7.8-1.4 1.6-2.1 2.6-1.2.1-2.3.3-3.3.5-.7-2.6-.6-4.7.5-5.3zm-5.2 9c0-1.3 1.8-2.4 4.4-3.1.3 1 .7 2 1.2 3.1-.5 1.1-.9 2.1-1.2 3.1-2.6-.7-4.4-1.8-4.4-3.1zm9 7.8c-1.6 1.3-3 1.7-3.8 1.2-.8-.5-1.1-1.9-.8-3.9l.3-1.5c1 .2 2.1.4 3.3.5.7 1 1.4 1.8 2.1 2.6-.4.4-.7.8-1.1 1.1zm7.4-2.7c.3 2 0 3.4-.8 3.9s-2.2 0-3.8-1.2c-.4-.3-.7-.6-1.1-1 .7-.8 1.4-1.6 2.1-2.6 1.2-.1 2.3-.3 3.3-.5.1.4.3.9.3 1.4zm0-2c-.3-1-.7-2.1-1.2-3.1.5-1.1.9-2.1 1.2-3.1 2.6.7 4.4 1.8 4.4 3.1s-1.8 2.4-4.4 3.1z" class="st2"/><path d="M25 49.1c-.7 0-1.3-.2-1.9-.5L5.5 38.4c-1.1-.7-1.9-1.9-1.9-3.2V14.8c0-1.3.7-2.6 1.9-3.2L23.1 1.4c1.1-.7 2.6-.7 3.7 0l17.6 10.2c1.1.7 1.9 1.9 1.9 3.2v15.9c0 .7-.6 1.2-1.2 1.2-.7 0-1.2-.6-1.2-1.2V14.8c0-.4-.2-.8-.6-1.1L25.6 3.6c-.4-.2-.8-.2-1.2 0L6.8 13.8c-.4.2-.6.6-.6 1.1v20.4c0 .4.2.8.6 1.1l17.6 10.2c.2.1.4.2.6.2.7 0 1.2.6 1.2 1.3 0 .4-.5 1-1.2 1z" class="st2"/><path d="M24.8 44.7c-.5 0-.9-.1-1.3-.4L8.9 35.9c-.8-.5-1.4-1.4-1.4-2.4V16.7c0-1 .5-1.9 1.4-2.4l14.6-8.4c.8-.5 1.9-.5 2.7 0l14.6 8.4c.8.5 1.4 1.4 1.4 2.4V32c0 .1-.1.2-.2.2s-.2-.1-.2-.2V16.7c0-.8-.4-1.5-1.1-1.9L26 6.4c-.7-.4-1.5-.4-2.2 0L9.2 14.8c-.7.4-1.1 1.1-1.1 1.9v16.8c0 .8.4 1.5 1.1 1.9l14.6 8.4c.3.2.7.3 1 .3.1 0 .2.1.2.3 0 .2-.1.3-.2.3z" class="st2"/></svg>
