<?xml version="1.0" encoding="utf-8"?>
<!-- Generator: Adobe Illustrator 26.5.0, SVG Export Plug-In . SVG Version: 6.00 Build 0)  -->
<svg version="1.1" id="Layer_1" xmlns="http://www.w3.org/2000/svg" xmlns:xlink="http://www.w3.org/1999/xlink" x="0px" y="0px"
	 viewBox="0 0 50 50" style="enable-background:new 0 0 50 50;" xml:space="preserve">
<style type="text/css">
	.st0{fill:#FF6B6B;}
	.st1{fill:#E56060;}
	.st2{fill:none;stroke:#494949;stroke-width:2.5;stroke-linecap:round;stroke-miterlimit:10;}
	.st3{fill:none;stroke:#494949;stroke-width:2.5;stroke-miterlimit:10;}
	.st4{fill:#494949;}
	.st5{fill-rule:evenodd;clip-rule:evenodd;fill:none;stroke:#444444;stroke-miterlimit:10;}
	.st6{fill-rule:evenodd;clip-rule:evenodd;fill:#444444;stroke:#444444;stroke-miterlimit:10;}
</style>
<polygon class="st0" points="34.9,5.4 42,10.7 43.8,17.2 2,32.5 2.9,19.2 8.6,7.5 22.9,2.7 "/>
<polygon class="st1" points="45.9,21.1 45.9,21.5 5,36.2 4,35.5 1.9,27.8 42.4,12.2 44.5,16.2 "/>
<g>
	<path class="st2" d="M46.9,26.8c0.3-6.3-1.9-12.7-6.8-17.5c-9-8.8-23.5-8.7-32.3,0.3S-0.9,33,8.1,41.9c5.5,5.4,13.1,7.5,20.2,6.2"
		/>
	<circle class="st3" cx="46.9" cy="25.7" r="1.9"/>
</g>
<g>
	<path class="st4" d="M25.6,17.9h-3.4l-5,12.9h3.1l0.8-2.2h4.7l-0.9-2.4h-3.1l2-5.6l3.6,10.2h3.1L25.6,17.9z"/>
	<polygon class="st5" points="10.5,17.9 23.9,10.1 37.2,17.9 37.2,33.3 23.8,41.1 10.5,33.3 	"/>
	<circle class="st6" cx="10.5" cy="17.9" r="2.7"/>
	<circle class="st6" cx="23.8" cy="10.1" r="2.7"/>
	<circle class="st6" cx="37.2" cy="17.9" r="2.7"/>
	<circle class="st6" cx="37.4" cy="33.3" r="2.7"/>
	<circle class="st6" cx="23.9" cy="41.1" r="2.7"/>
	<circle class="st6" cx="10.5" cy="33.3" r="2.7"/>
	<polygon class="st5" points="23.8,10.1 10.5,33.3 37.4,33.3 	"/>
</g>
</svg>
