<svg xmlns="http://www.w3.org/2000/svg" id="Layer_1" version="1.1" viewBox="0 0 50 50"><defs><style>.st4{fill:#424242}</style></defs><path fill="#46b8b0" d="M38.6 30.9l7.3-.5c.6 0 2.2-1.4 2-2l1-19.8c.1-2.3-1.7-4.3-4.1-4.3H10.3c-3.7 0-2.1 20.9-2.1 24.6l2.5 3-9.9 5.2L16.5 44l20-7c.8-.5 1.1-3.9 2.2-6z"/><path fill="none" stroke="#424242" stroke-miterlimit="10" d="M9 11.4h38.4"/><circle cx="12" cy="8.4" r="1.2" class="st4"/><circle cx="15.9" cy="8.4" r="1.2" class="st4"/><circle cx="19.8" cy="8.4" r="1.2" class="st4"/><path fill="none" stroke="#444" stroke-linecap="round" stroke-linejoin="round" d="M10.6 39.3l2.6 1.2m5.2-22l19.1 2.1c.9.1 1.6 1 1.4 1.9L36 37.4l-22.1-5 2.7-12.6c.2-.8.9-1.4 1.8-1.3zM14.5 41l2.9 1.3"/><path fill="none" stroke="#444" stroke-linecap="round" stroke-linejoin="round" stroke-width="2.5" d="M30.6 42.3l5.3-3.7c.4-.3.7-.8.8-1.3l1.3-6.6h6.8c.8 0 1.5-.3 2-.8s1-1.4 1-2.3V7.3c0-1.6-1.3-2.9-2.9-2.9H11c-1.6 0-2.9 1.3-2.9 2.9v20.4c0 1.6 1.3 2.9 2.9 2.9h2.5l-.2 1.3-10.4 3.4c-1.6.5-1.6 2.7-.1 3.3L21 46.2"/><path fill="none" stroke="#444" stroke-linecap="round" stroke-linejoin="round" stroke-width=".5" d="M11.4 14.3H20m5.7 3.1h18m-6.3 3.1h6.3m-4.9 3.4h4.9m-24.4-2.1l15.1 2.3m-15.8.6l14.8 2.4m-15.3.5l14.5 2.7"/></svg>