<?xml version="1.0" encoding="UTF-8"?>
<svg id="Camada_1" data-name="Camada 1" xmlns="http://www.w3.org/2000/svg" version="1.1" viewBox="0 0 50 50">
  <defs>
    <style>
      .cls-1 {
        fill: #22dd6d;
        stroke-width: 0px;
      }

      .cls-2 {
        fill: #454444;
      }

      .cls-2, .cls-3, .cls-4 {
        stroke: #454444;
      }

      .cls-2, .cls-4 {
        stroke-miterlimit: 10;
        stroke-width: .5px;
      }

      .cls-3 {
        stroke-linecap: round;
        stroke-linejoin: round;
        stroke-width: 2.5px;
      }

      .cls-3, .cls-4 {
        fill: none;
      }
    </style>
  </defs>
  <path class="cls-1" d="M44.3,11.8l-4-4.7-13.5-.4h-14.6c-3.4,2.3-8.3,7.4-10.8,11l2.3,4,10.6,12.1,2.7,2.7c2.1,1.4,1.6,2.5,3.4,4.7l12.6-4.5,15.1-18.2c.7-.4-3-4.7-4-6.7Z"/>
  <g>
    <path class="cls-2" d="M32.9,17.1c1-3.6.7-6.4-.9-7.2-1.2-.7-3.1-.1-5.4,1.6-.5.4-1,.9-1.4,1.2-.5-.5-1-.9-1.4-1.2-2.1-1.7-4.1-2.4-5.4-1.6-1.6.9-1.9,3.7-.9,7.2-3.6,1-5.9,2.6-5.9,4.4s2.3,3.5,5.9,4.4c-.1.6-.4,1.2-.4,1.9-.5,2.7,0,4.7,1.2,5.4.4.3.7.4,1.2.4,1.1,0,2.5-.6,4.1-1.9.5-.4,1-.9,1.4-1.2.5.5,1,.9,1.4,1.2,1.5,1.2,3,1.9,4.1,1.9s.9-.1,1.2-.4c1.2-.7,1.7-2.6,1.2-5.4-.1-.6-.3-1.2-.4-1.9,3.6-1,5.9-2.6,5.9-4.4,0-1.9-2.2-3.5-5.8-4.4ZM27,11.7c1.5-1.1,2.7-1.7,3.7-1.7s.7.1,1,.3c1.4.7,1.5,3.4.6,6.7-1.2-.3-2.6-.5-4.1-.6-.9-1.2-1.7-2.3-2.6-3.2.5-.5.9-1,1.4-1.4ZM29.4,23.8c-.5.7-1,1.6-1.5,2.3-.9.1-1.7.1-2.7.1s-1.9,0-2.7-.1c-.5-.7-1-1.5-1.5-2.3-.5-.7-.9-1.6-1.2-2.4.4-.7.7-1.6,1.2-2.4.5-.7,1-1.6,1.5-2.3.9-.1,1.7-.1,2.7-.1s1.9,0,2.7.1c.5.7,1,1.5,1.5,2.3.5.7.9,1.6,1.2,2.4-.4.8-.7,1.6-1.2,2.4ZM31,22.1c.5,1.1,1,2.3,1.2,3.4-1.1.3-2.3.5-3.6.6.4-.6.9-1.2,1.2-2,.4-.6.8-1.4,1.1-2ZM25.3,29.5c-.7-.9-1.6-1.7-2.4-2.9.7,0,1.5.1,2.4.1s1.6,0,2.4-.1c-.8,1-1.6,2-2.4,2.9ZM21.9,26c-1.2-.1-2.5-.4-3.6-.6.4-1.1.7-2.3,1.2-3.4.4.6.7,1.4,1.1,2,.4.7.8,1.4,1.3,2ZM19.6,20.8c-.5-1.1-1-2.4-1.2-3.4,1.1-.3,2.3-.5,3.6-.6-.4.6-.9,1.2-1.2,2-.4.7-.8,1.4-1.1,2ZM25.3,13.3c.7.9,1.6,1.7,2.4,2.9-.8,0-1.5-.1-2.4-.1s-1.6,0-2.4.1c.8-1,1.6-2,2.4-2.9ZM29.9,18.8c-.4-.6-.7-1.4-1.2-2,1.2.1,2.5.4,3.6.6-.4,1.1-.7,2.3-1.2,3.4-.4-.6-.8-1.4-1.1-2ZM18.8,10.2c1-.6,2.7,0,4.7,1.5.5.4.9.7,1.4,1.2-.9,1-1.7,2-2.6,3.2-1.5.1-2.9.4-4.1.6-.9-3.2-.7-5.9.6-6.6ZM12.3,21.4c0-1.6,2.3-3,5.5-3.9.4,1.2.9,2.5,1.5,3.9-.6,1.4-1.1,2.6-1.5,3.9-3.3-.9-5.5-2.2-5.5-3.9ZM23.5,31.2c-2,1.6-3.7,2.1-4.7,1.5-1-.6-1.4-2.4-1-4.9.1-.6.3-1.2.4-1.9,1.2.3,2.6.5,4.1.6.9,1.2,1.7,2.3,2.6,3.2-.5.5-.9,1-1.4,1.4ZM32.8,27.8c.4,2.5,0,4.2-1,4.9s-2.7,0-4.7-1.5c-.5-.4-.9-.7-1.4-1.2.9-1,1.7-2,2.6-3.2,1.5-.1,2.9-.4,4.1-.6.1.5.4,1.1.4,1.8ZM32.8,25.3c-.4-1.2-.9-2.6-1.5-3.9.6-1.4,1.1-2.6,1.5-3.9,3.2.9,5.5,2.3,5.5,3.9,0,1.6-2.3,3-5.5,3.9Z"/>
    <circle class="cls-4" cx="24.9" cy="21.5" r="2.2"/>
  </g>
  <path class="cls-3" d="M27,43.8c-1.1,1.2-3,1.2-4,0L2.7,19.7c-.9-1-.8-2.6.1-3.5L11,7.6c.5-.5,1.2-.8,1.9-.8h25.5c.8,0,1.5.3,2,.9l7.4,8.4c.9,1,.9,2.5,0,3.5l-16.3,18.6"/>
</svg>