<?xml version="1.0" encoding="UTF-8"?>
<svg id="Camada_1" data-name="Camada 1" xmlns="http://www.w3.org/2000/svg" version="1.1" viewBox="0 0 50 50">
  <defs>
    <style>
      .cls-1 {
        fill: #f9f941;
      }

      .cls-1, .cls-2 {
        stroke-width: 0px;
      }

      .cls-2 {
        fill: #d1bd00;
      }

      .cls-3, .cls-4, .cls-5, .cls-6 {
        fill: none;
        stroke: #444;
      }

      .cls-3, .cls-4, .cls-6 {
        stroke-miterlimit: 10;
      }

      .cls-4, .cls-5 {
        stroke-linecap: round;
      }

      .cls-4, .cls-6 {
        stroke-width: .5px;
      }

      .cls-5 {
        stroke-linejoin: round;
        stroke-width: 2.5px;
      }
    </style>
  </defs>
  <polygon class="cls-2" points="29.8 24.5 37.6 27 30.9 31.7 31 39.9 24.4 35 16.7 37.6 19.3 29.9 14.4 23.3 22.6 23.4 27.3 16.7 29.8 24.5"/>
  <g>
    <path class="cls-1" d="M46,7.9l-3-1.5c.2-1.9-17,2.1-18.9,2.1l-13-2.7C5.6,5,1.7,9.8,1.7,11.6l.3,7v9.3c0,0,0,0,0,0v3.6l-.3,12.3c0,1.9,12.1.5,13.9.4l9.1,3.8c.4,0,5.4-3.6,5.8-3.7l17.1-6.4V14.1c0,0,.6-.1.6-.1l-.5-4.3c0-.2-1.8-1.6-1.8-1.8Z"/>
    <g>
      <path class="cls-3" d="M47.8,10.4h-10c-3.4,0-6.6.9-9.5,2.6l-1.4.8h-4.5l-1.4-.8c-2.9-1.7-6.2-2.6-9.5-2.6H1.6M26.8,47.2h-4.2V13.9h4.2v33.3Z"/>
      <path class="cls-6" d="M30.7,18.7h12.8c.5,0,.8.4.8.8v3.5c0,.5-.4.8-.8.8h-12.8c-.5,0-.8-.4-.8-.8v-3.5c0-.5.4-.8.8-.8Z"/>
      <path class="cls-6" d="M30.6,29.2h6.8c.4,0,.7-.3.7-.7s-.3-.7-.7-.7h-6.8c-.4,0-.7.3-.7.7s.3.7.7.7Z"/>
      <path class="cls-6" d="M43.7,27.8h-2.8c-.4,0-.7.3-.7.7s.3.7.7.7h2.8c.4,0,.7-.3.7-.7s-.3-.7-.7-.7Z"/>
      <path class="cls-6" d="M38,31.2h-7.6c-.4,0-.7.3-.7.7s.3.7.7.7h7.6c.4,0,.7-.3.7-.7s-.3-.7-.7-.7Z"/>
    </g>
    <path class="cls-5" d="M48.1,39.6V10.5s0,0,0,0c0,0,0,0,0,0,0,0,0,0,0,0,0,0,0,0,0,0,0,0,0,0,0,0,0,0,0,0,0,0,0,0,0,0,0,0,0,0,0,0,0,0,0,0,0,0,0,0,0,0,0,0,0,0,0,0,0,0,0,0,0,0,0,0,0,0,0,0,0,0,0,0,0,0,0,0,0,0,0,0,0,0,0,0,0,0,0,0,0,0l-3.5-3.7c0,0-.2-.1-.3-.2-.6,0-15.1-1.2-19.5,3.4-4.4-4.6-18.8-3.5-19.5-3.4-.1,0-.2,0-.3.2l-3.5,3.7s0,0,0,0c0,0,0,0,0,0,0,0,0,0,0,0,0,0,0,0,0,0,0,0,0,0,0,0,0,0,0,0,0,0,0,0,0,0,0,0,0,0,0,0,0,0,0,0,0,0,0,0,0,0,0,0,0,0,0,0,0,0,0,0,0,0,0,0,0,0,0,0,0,0,0,0,0,0,0,0,0,0,0,0,0,0,0,0,0,0,0,0,0,0v33c0,.3.2.5.5.5h10.6c3,0,5.9.8,8.4,2.3l1.4.8s0,0,0,0c0,0,0,0,.1,0,0,0,0,0,0,0,0,0,0,0,0,0,0,0,0,0,0,0,0,0,0,0,0,0h4.5s0,0,0,0c0,0,0,0,0,0,0,0,0,0,0,0,0,0,0,0,0,0,0,0,0,0,.1,0,0,0,0,0,0,0l1.4-.8c2.6-1.5,5.5-2.3,8.4-2.3"/>
    <line class="cls-4" x1="4" y1="8.1" x2="10.8" y2="8.1"/>
    <line class="cls-4" x1="3.2" y1="9.2" x2="13.5" y2="9.2"/>
    <line class="cls-4" x1="45.2" y1="8.1" x2="38.4" y2="8.1"/>
    <line class="cls-4" x1="45.9" y1="9.2" x2="35.6" y2="9.2"/>
    <path class="cls-4" d="M20.9,10.7s2.4.6,3.5,1.6.4.1.5,0c.5-.5,1.7-1.4,3.3-1.4"/>
  </g>
</svg>