<svg xmlns="http://www.w3.org/2000/svg" id="Layer_1" x="0" y="0" version="1.1" viewBox="0 0 50 50" xml:space="preserve"><style>.st1,.st3{stroke-width:2.5;fill:none;stroke:#444;stroke-linecap:round;stroke-linejoin:round;stroke-miterlimit:10}.st3{stroke-width:.5}</style><path fill="#dc5e82" d="M43.9 14.8l-2.6-6.9.1-3.7.9-2.3H22.9c-3.5 0-17.3-2-17.3 4v40.6l3.6 1.9 34.1-12.1c.8-.4 1.7-19.4.6-21.5z"/><path d="M43.6 1.9h-34s-4 .2-4 4 3.4 4 4 4h34V37" class="st1"/><path d="M5.6 5.4v37.5s-.3 5 4 5h23.2" class="st1"/><path fill="none" stroke="#444" stroke-linecap="round" stroke-linejoin="round" stroke-miterlimit="10" d="M11.2 9.9v38m31.2-46c-.4.5-1.2 1.9-1.3 3.9 0 2.1.9 3.6 1.3 4.1"/><ellipse cx="26.6" cy="27.8" class="st3" rx="4.4" ry="10.4" transform="rotate(-34.493 26.6 27.836)"/><ellipse cx="26.6" cy="27.8" class="st3" rx="10.4" ry="4.4" transform="rotate(-55.231 26.587 27.842)"/><ellipse cx="26.8" cy="27.6" class="st3" rx="10.7" ry="4.2"/><circle cx="26.5" cy="27.8" r="2" fill="#444"/></svg>