<?xml version="1.0" encoding="utf-8"?>
<!-- Generator: Adobe Illustrator 27.5.0, SVG Export Plug-In . SVG Version: 6.00 Build 0)  -->
<svg version="1.1" id="Camada_1" xmlns="http://www.w3.org/2000/svg" xmlns:xlink="http://www.w3.org/1999/xlink" x="0px" y="0px"
	 viewBox="0 0 50 50" style="enable-background:new 0 0 50 50;" xml:space="preserve">
<style type="text/css">
	.st0{fill:#46B8B0;}
	.st1{fill:none;stroke:#444444;stroke-width:2.5;stroke-linecap:round;stroke-linejoin:round;stroke-miterlimit:10;}
	.st2{fill:#444444;}
	.st3{fill:#444444;stroke:#444444;stroke-width:0.25;stroke-miterlimit:10;}
	.st4{fill:none;stroke:#444444;stroke-width:0.5;stroke-miterlimit:10;}
</style>
<path class="st0" d="M44.8,13.4l-5.6-3.6l-7.7-4.4l-6-2.8C22.3,2.6,4,11.5,4,14.7l-0.5,7.8L4,37.6l11.2,5.8l31-11
	C47.1,31.9,45.8,15.4,44.8,13.4z"/>
<g>
	<g>
		<path class="st1" d="M29.9,46.5l-2.2,1.3c-1.7,1-3.8,1-5.5,0l-15.6-9C5,37.8,3.9,36,3.9,34V16c0-2,1-3.8,2.7-4.7l15.6-9
			c1.7-1,3.8-1,5.5,0l15.6,9c1.7,1,2.7,2.8,2.7,4.7v18c0,2-1,3.8-2.7,4.7l-2.5,1.4"/>
	</g>
</g>
<g>
	<path class="st2" d="M37.8,29.8c0.2-0.2,0.3-0.4,0.5-0.6c0.2-0.3,0.3-0.5,0.4-0.8c0,0,0,0,0,0c0-0.1,0.1-0.3,0.1-0.4c0,0,0,0,0,0
		c0-0.1,0.1-0.2,0.1-0.4c0-0.1,0-0.3,0.1-0.4c0-0.2,0-0.4,0-0.5c0-0.1,0-0.1,0-0.2c0-0.1,0.1-0.2,0.2-0.3c0,0,0,0,0,0
		c0,0,0.1,0,0.1,0c0.1,0,0.2,0,0.3,0.1c0,0,0,0.1,0,0.1c0,0.2,0,0.4,0,0.6c0,0,0,0,0,0c0,0,0,0,0,0.1c0,0.2,0,0.4-0.1,0.6
		c0,0.3-0.1,0.6-0.2,0.8c-0.1,0.2-0.2,0.5-0.3,0.7c-0.1,0.2-0.3,0.5-0.4,0.7c-0.2,0.3-0.4,0.5-0.6,0.7c-0.2,0.1-0.3,0.3-0.5,0.4
		c-0.3,0.2-0.6,0.4-0.9,0.5c-0.1,0.1-0.3,0.1-0.4,0.1c-0.1,0-0.2,0.1-0.3,0.1c-0.1,0-0.3,0.1-0.4,0.1c-0.1,0-0.3,0-0.5,0.1
		c0,0,0,0-0.1,0c-1.7,0-3.3,0-5,0c-0.1,0-0.3-0.1-0.3-0.2c-0.1-0.1,0-0.3,0.1-0.3c0.2-0.2,0.4-0.4,0.6-0.6c0.2-0.2,0.4-0.4,0.5-0.6
		c0,0,0,0,0-0.1c-0.2-0.2-0.3-0.4-0.4-0.6c0,0,0,0,0,0c0,0,0,0,0,0c-0.1-0.2-0.2-0.4-0.3-0.6c0,0,0,0,0,0c0,0,0,0,0,0c0,0,0,0,0,0
		c-0.1-0.1-0.1-0.3-0.2-0.4c-0.1-0.2-0.1-0.4-0.2-0.6c0-0.1,0-0.2,0-0.3c0-0.2,0-0.3,0-0.5c0-0.2,0-0.3,0-0.5c0-0.1,0-0.2,0-0.4
		c0-0.2,0.1-0.3,0.1-0.5c0-0.1,0.1-0.2,0.1-0.4c0,0,0,0,0,0c0,0,0,0,0,0c0,0,0,0,0,0c0,0,0,0,0,0c0-0.1,0.1-0.3,0.2-0.4
		c0.1-0.1,0.1-0.2,0.2-0.4c0,0,0,0,0,0c0.1-0.1,0.1-0.2,0.2-0.3c0.1-0.2,0.2-0.4,0.4-0.5c0,0,0,0,0,0c0,0,0,0,0,0c0,0,0,0,0,0
		c0.1-0.1,0.1-0.1,0.2-0.2c0,0,0.1-0.1,0.1-0.1c0,0,0,0,0,0c0.1-0.1,0.3-0.3,0.5-0.4c0.1-0.1,0.2-0.1,0.3-0.2
		c0.2-0.1,0.4-0.2,0.6-0.3c0.2-0.1,0.5-0.2,0.7-0.3c0.2-0.1,0.5-0.1,0.7-0.1c0.3,0,0.6-0.1,1,0c0.1,0,0.1,0,0.2,0c0,0,0,0,0,0
		c0,0,0.1,0.1,0.1,0.1c0.1,0.1,0.1,0.2,0.1,0.3c0,0.2-0.2,0.3-0.4,0.3c0,0,0,0,0,0c-0.2,0-0.3,0-0.5,0c-0.2,0-0.4,0-0.5,0.1
		c-0.1,0-0.3,0.1-0.4,0.1c0,0,0,0,0,0c-0.1,0-0.1,0-0.2,0.1c-0.3,0.1-0.6,0.2-0.8,0.4c-0.3,0.2-0.5,0.3-0.7,0.6c0,0,0,0,0,0
		c-0.2,0.2-0.3,0.3-0.5,0.5c0,0.1-0.1,0.1-0.1,0.2c0,0,0,0,0,0c0,0-0.1,0.1-0.1,0.1c0,0,0,0,0,0c-0.1,0.2-0.2,0.3-0.3,0.5
		c0,0,0,0,0,0c0,0,0,0,0,0c0,0,0,0,0,0c-0.1,0.2-0.2,0.4-0.2,0.7c0,0.2-0.1,0.3-0.1,0.5c0,0,0,0.1,0,0.1c0,0,0,0,0,0
		c0,0.2,0,0.4,0,0.7c0,0,0,0,0,0c0,0,0,0.1,0,0.1c0,0.1,0,0.1,0,0.2c0,0,0,0,0,0c0,0.2,0.1,0.4,0.1,0.6c0,0,0,0,0,0
		c0,0.1,0,0.1,0,0.2c0,0,0,0,0,0c0,0,0,0,0,0.1c0,0,0,0,0,0c0,0,0,0,0,0c0,0,0,0,0,0c0,0,0,0,0,0.1c0,0,0,0,0,0c0,0,0,0.1,0,0.1
		c0,0,0,0,0,0c0,0,0,0,0,0.1c0,0,0,0,0,0c0,0,0,0,0,0.1c0,0,0,0.1,0,0.1c0.2,0.4,0.4,0.8,0.7,1.1c0.1,0.1,0.1,0.1,0.2,0.2
		c0.1,0.1,0,0.3-0.1,0.4c-0.1,0.1-0.3,0.3-0.4,0.4c0,0,0,0,0,0c0,0,0,0,0,0c-0.1,0.1-0.2,0.2-0.3,0.3c0,0,0,0,0,0c0,0,0,0,0,0
		c0.1,0,0.2,0,0.3,0c1.2,0,2.4,0,3.6,0c0.2,0,0.3,0,0.5,0c0.2,0,0.4-0.1,0.6-0.1c0.3-0.1,0.6-0.2,0.9-0.3c0.3-0.1,0.5-0.3,0.8-0.5
		c0,0,0,0,0,0c0,0,0,0,0,0c0,0,0,0,0,0c0,0,0,0,0.1-0.1c0,0,0,0,0,0C37.5,30.1,37.7,30,37.8,29.8C37.8,29.9,37.8,29.9,37.8,29.8z"/>
	<path class="st2" d="M39,25.2c-0.2,0.1-0.3,0.1-0.5,0.1c-0.1,0-0.2,0-0.3,0c-0.4,0-0.8-0.1-1.1-0.4c-0.3-0.2-0.6-0.5-0.8-0.9
		c-0.1-0.3-0.2-0.6-0.2-1c0-0.2,0.1-0.4,0.1-0.6c0,0,0,0,0,0c0,0,0.1-0.1,0.1-0.2c0.1-0.2,0.2-0.3,0.3-0.5c0.1-0.2,0.3-0.3,0.5-0.4
		c0.2-0.2,0.5-0.3,0.8-0.3c0.4,0,0.7,0,1,0.1c0.5,0.2,0.9,0.5,1.1,1c0.1,0.2,0.2,0.5,0.2,0.7c0,0.1,0,0.3,0,0.4
		c0,0.5-0.2,0.9-0.6,1.3C39.5,24.9,39.3,25,39,25.2z M38.1,24.2c0,0,0.1,0,0.1,0c0.2,0,0.3-0.2,0.3-0.4c0-0.4,0-0.9,0-1.3
		c0,0,0-0.1,0-0.1c0-0.1-0.1-0.2-0.2-0.2c-0.1,0-0.2,0-0.3,0.1c-0.1,0.1-0.1,0.2-0.1,0.3c0,0.5,0,0.9,0,1.4
		C37.9,24.1,38,24.2,38.1,24.2C38.1,24.2,38.1,24.2,38.1,24.2z"/>
	<path class="st2" d="M34.6,25.6c0.6,0,1.2,0,1.8,0c0.2,0,0.4,0.2,0.3,0.4c0,0.1-0.2,0.2-0.3,0.2c-1.1,0-2.2,0-3.3,0
		c-0.1,0-0.2,0-0.3,0c-0.2,0-0.2-0.2-0.2-0.3c0-0.2,0.1-0.3,0.3-0.3C33.4,25.6,34,25.6,34.6,25.6z"/>
	<path class="st2" d="M33.8,27.5c0.3,0,0.7,0,1,0c0.2,0,0.3,0.1,0.3,0.3c0,0.2-0.1,0.3-0.3,0.3c-0.7,0-1.3,0-2,0
		c-0.2,0-0.3-0.1-0.3-0.3c0-0.2,0.1-0.3,0.3-0.3C33.1,27.5,33.4,27.5,33.8,27.5z"/>
	<path class="st2" d="M36.4,28.1c-0.1,0-0.2,0-0.3-0.1c-0.1-0.1-0.1-0.2,0-0.3c0.1-0.1,0.1-0.2,0.3-0.2c0.1,0,0.2,0,0.3,0
		c0.1,0.1,0.2,0.2,0.2,0.3c0,0.1-0.1,0.2-0.2,0.3C36.5,28.1,36.5,28.1,36.4,28.1z"/>
</g>
<g>
	<path class="st2" d="M17.8,31.9C17.8,31.9,17.8,31.9,17.8,31.9c-0.1-0.5-0.2-0.9-0.2-1.3c-0.1-0.5-0.1-1.1,0-1.6
		c0.1-0.3,0.1-0.6,0.3-0.9c0.1-0.1,0.2-0.3,0.3-0.4c0.2-0.2,0.5-0.4,0.8-0.4c0.4,0,0.7,0,1,0.1c0.5,0.1,0.9,0.4,1.3,0.6
		c0.5,0.3,0.9,0.7,1.3,1c0,0,0,0,0.1,0.1c0,0,0,0,0.1-0.1c0.5-0.4,1-0.8,1.5-1.2c0.4-0.2,0.8-0.4,1.2-0.5c0.2-0.1,0.5-0.1,0.7-0.1
		c0.5,0,0.9,0.2,1.2,0.6c0.2,0.3,0.3,0.5,0.4,0.8c0.1,0.3,0.1,0.6,0.1,0.8c0,0.7,0,1.3-0.2,1.9c0,0.1-0.1,0.3-0.1,0.4c0,0,0,0,0,0.1
		c0,0,0.1,0,0.1,0c0.6,0.2,1.2,0.4,1.8,0.7c0.4,0.2,0.8,0.5,1.1,0.8c0.2,0.2,0.4,0.4,0.5,0.7c0.2,0.4,0.2,0.8,0,1.2
		c-0.1,0.3-0.3,0.5-0.4,0.7c-0.3,0.3-0.6,0.5-0.9,0.7c-0.6,0.4-1.2,0.6-1.9,0.8c0,0-0.1,0-0.1,0c0,0,0,0,0,0c0,0,0,0,0,0.1
		c0.1,0.4,0.2,0.9,0.2,1.3c0,0.5,0,1,0,1.4c0,0.3-0.1,0.6-0.3,0.9c-0.1,0.2-0.2,0.4-0.4,0.6c-0.2,0.2-0.5,0.4-0.8,0.4
		c-0.4,0-0.7,0-1.1-0.1c-0.5-0.2-0.9-0.4-1.3-0.7c-0.4-0.3-0.8-0.6-1.1-0.9c0,0-0.1-0.1-0.1-0.1c0,0-0.1,0-0.1,0.1
		c-0.5,0.4-0.9,0.8-1.5,1.1c-0.4,0.2-0.8,0.4-1.3,0.5c-0.3,0.1-0.6,0.1-0.8,0.1c-0.4,0-0.7-0.2-1-0.5c-0.2-0.2-0.3-0.5-0.4-0.8
		c-0.1-0.3-0.1-0.6-0.2-0.9c0-0.3,0-0.7,0-1c0-0.4,0.1-0.9,0.2-1.3c0,0,0-0.1,0-0.1c0,0-0.1,0-0.1,0c-0.6-0.2-1.2-0.4-1.7-0.7
		c-0.4-0.2-0.8-0.5-1.1-0.8c-0.2-0.2-0.4-0.4-0.5-0.7c-0.2-0.5-0.2-0.9,0-1.3c0.1-0.2,0.3-0.5,0.5-0.7c0.3-0.3,0.7-0.6,1.1-0.8
		c0.5-0.3,1.1-0.5,1.6-0.7C17.8,32,17.8,31.9,17.8,31.9z M22.5,37.5c0.7,0,1.2,0,1.7-0.1c0.1,0,0.1,0,0.1-0.1c0.5-0.8,1-1.7,1.5-2.5
		c0,0,0-0.1,0-0.1c-0.2-0.3-0.4-0.7-0.6-1c-0.3-0.5-0.6-1-0.9-1.5c0,0,0-0.1-0.1-0.1c-0.4,0-0.9,0-1.3-0.1c-0.5,0-1.1,0-1.6,0
		c-0.1,0-0.1,0-0.1,0.1c-0.5,0.8-1,1.6-1.5,2.5c0,0.1,0,0.1,0,0.1c0.4,0.9,0.9,1.7,1.5,2.5c0,0.1,0.1,0.1,0.1,0.1
		C21.8,37.4,22.2,37.5,22.5,37.5z M18,36.9C18,36.9,18.1,36.9,18,36.9c0.2-0.8,0.5-1.4,0.8-2.1c0-0.1,0-0.1,0-0.2
		c-0.3-0.6-0.6-1.3-0.8-2c0,0,0,0,0-0.1c0,0-0.1,0-0.1,0c-0.6,0.2-1.2,0.4-1.7,0.7c-0.3,0.2-0.6,0.4-0.8,0.6
		c-0.1,0.1-0.2,0.3-0.3,0.5c-0.1,0.2-0.1,0.4,0,0.6c0.1,0.1,0.1,0.3,0.2,0.4c0.2,0.3,0.5,0.5,0.8,0.7c0.5,0.3,1,0.5,1.6,0.7
		C17.8,36.9,17.9,36.9,18,36.9z M18.5,37.8C18.5,37.8,18.5,37.8,18.5,37.8c-0.1,0.3-0.1,0.4-0.1,0.6c-0.1,0.5-0.2,1.1-0.1,1.7
		c0,0.2,0.1,0.5,0.1,0.7c0.1,0.2,0.1,0.3,0.2,0.5c0.1,0.2,0.3,0.2,0.5,0.3c0.2,0,0.4,0,0.5,0c0.3-0.1,0.5-0.2,0.8-0.3
		c0.7-0.3,1.2-0.8,1.8-1.3c0,0,0,0,0,0c0,0,0,0-0.1-0.1c-0.2-0.2-0.3-0.3-0.5-0.5c-0.3-0.4-0.6-0.8-0.9-1.2c0,0-0.1-0.1-0.1-0.1
		c-0.2,0-0.3,0-0.5,0C19.7,38,19.1,37.9,18.5,37.8C18.6,37.8,18.6,37.8,18.5,37.8z M27,37.8C26.9,37.8,26.9,37.8,27,37.8
		c-0.5,0.1-0.9,0.2-1.3,0.2c-0.3,0-0.6,0.1-0.9,0.1c-0.1,0-0.1,0-0.1,0.1c-0.4,0.6-0.8,1.1-1.3,1.7c0,0,0,0,0,0c0,0,0,0,0,0
		c0.3,0.3,0.6,0.6,1,0.8c0.4,0.3,0.7,0.5,1.2,0.6c0.2,0.1,0.5,0.2,0.8,0.1c0.3,0,0.5-0.1,0.7-0.4c0.1-0.1,0.1-0.3,0.2-0.4
		c0.1-0.4,0.2-0.7,0.2-1.1c0-0.6-0.1-1.1-0.2-1.6C27,37.9,27,37.8,27,37.8z M22.2,29.6C22.2,29.6,22.2,29.6,22.2,29.6
		c-0.4-0.4-0.9-0.8-1.3-1.1c-0.3-0.2-0.6-0.4-1-0.5C19.7,28,19.4,28,19.2,28c-0.2,0-0.4,0.1-0.6,0.3c-0.1,0.1-0.1,0.2-0.1,0.3
		c-0.1,0.3-0.2,0.6-0.2,0.9c0,0.3,0,0.6,0,0.8c0,0.5,0.1,0.9,0.2,1.4c0,0,0,0,0,0.1c0,0,0,0,0.1,0c0.4-0.1,0.7-0.1,1.1-0.2
		c0.3-0.1,0.7-0.1,1-0.1c0.1,0,0.1,0,0.1-0.1C21.3,30.8,21.7,30.2,22.2,29.6C22.2,29.7,22.2,29.6,22.2,29.6z M26.9,31.8
		C26.9,31.7,26.9,31.7,26.9,31.8c0-0.2,0.1-0.3,0.1-0.4c0.1-0.6,0.2-1.2,0.1-1.8c0-0.3-0.1-0.5-0.1-0.8c-0.1-0.2-0.1-0.3-0.2-0.5
		c-0.1-0.2-0.3-0.3-0.5-0.3c-0.2,0-0.3,0-0.5,0.1c-0.3,0.1-0.6,0.2-0.9,0.4c-0.6,0.3-1.1,0.7-1.5,1.2c0,0,0,0,0,0c0,0,0,0,0,0.1
		c0.2,0.2,0.4,0.4,0.6,0.7c0.3,0.3,0.5,0.7,0.8,1c0,0,0,0.1,0.1,0.1c0.2,0,0.4,0,0.7,0.1c0.5,0.1,0.9,0.1,1.4,0.2
		C26.8,31.7,26.9,31.7,26.9,31.8z M27.4,32.6C27.4,32.6,27.4,32.6,27.4,32.6c0,0.1-0.1,0.2-0.1,0.2c-0.2,0.6-0.4,1.2-0.7,1.8
		c0,0.1,0,0.1,0,0.1c0.3,0.6,0.6,1.3,0.8,2c0,0,0,0,0,0.1c0,0,0,0,0.1,0c0.5-0.1,1-0.3,1.4-0.6c0.4-0.2,0.7-0.4,1-0.7
		c0.2-0.2,0.3-0.3,0.4-0.6c0.1-0.2,0.1-0.4,0-0.7c0,0,0-0.1,0-0.1c-0.1-0.1-0.1-0.2-0.2-0.3c-0.2-0.3-0.5-0.5-0.9-0.7
		C28.7,33.1,28.1,32.8,27.4,32.6C27.5,32.6,27.5,32.6,27.4,32.6z M26.2,35.6c-0.3,0.6-0.6,1.2-1,1.7c0.5-0.1,1.1-0.1,1.6-0.3
		C26.6,36.6,26.4,36.1,26.2,35.6z M21.7,38.2c0.3,0.4,0.7,0.8,1,1.2c0,0,0,0,0,0c0.3-0.3,0.6-0.6,0.8-1c0-0.1,0.1-0.1,0.1-0.2
		c0,0,0,0,0,0c0,0,0,0,0,0C23.1,38.2,22.4,38.2,21.7,38.2C21.8,38.2,21.8,38.2,21.7,38.2z M19.3,35.6c-0.2,0.5-0.4,1-0.5,1.5
		c0.5,0.1,1,0.2,1.6,0.3C19.9,36.8,19.6,36.2,19.3,35.6z M22.7,30.1c-0.2,0.1-1,1.1-1,1.2c0.1,0,0.3,0,0.4,0c0.1,0,0.3,0,0.4,0
		c0.1,0,0.3,0,0.4,0c0.1,0,0.3,0,0.4,0c0.1,0,0.3,0,0.4,0C23.6,31.2,22.9,30.3,22.7,30.1z M25.2,32.2c0.3,0.6,0.7,1.1,1,1.7
		c0.2-0.5,0.4-1,0.5-1.5C26.2,32.3,25.7,32.2,25.2,32.2z M18.7,32.4c0.1,0.3,0.5,1.4,0.5,1.4c0.3-0.6,0.6-1.1,1-1.7c0,0,0,0,0,0
		C19.7,32.2,19.2,32.3,18.7,32.4z"/>
	<path class="st2" d="M21.2,34.7c0-0.8,0.7-1.5,1.5-1.5c0.8,0,1.5,0.7,1.5,1.5c0,0.8-0.7,1.5-1.5,1.5C21.9,36.2,21.2,35.6,21.2,34.7
		z"/>
</g>
<path class="st3" d="M24.6,14.3c1-0.1,2,0.3,2.9,0.8c0.8,0.5,1.4,1.3,1.8,2.1c0.1,0.2,0.2,0.4,0.2,0.6l0.1,0.4c0,0.2,0,0.3,0.1,0.5
	l0,0.1c0.1,1.3-0.3,2.6-1.2,3.6c-0.7,0.8-1.7,1.4-2.7,1.6c-0.3,0.1-0.5,0.1-0.8,0.1c-0.3,0-0.6,0-0.8,0c-1-0.1-1.9-0.6-2.7-1.3
	c-0.7-0.6-1.2-1.4-1.5-2.3c-0.1-0.4-0.1-0.7-0.2-1.1c-0.1-1.2,0.4-2.5,1.2-3.4c0.8-0.8,1.7-1.4,2.8-1.6
	C24.1,14.4,24.3,14.3,24.6,14.3L24.6,14.3z M24.5,14.6c-0.3,0-0.6,0.1-0.9,0.1c-0.9,0.2-1.8,0.8-2.4,1.5c-0.6,0.7-0.9,1.5-1,2.4
	c0,0.2-0.1,0.5,0,0.8c0,0.3,0.1,0.6,0.2,1c0.3,0.9,0.8,1.8,1.6,2.4c0.9,0.7,2,1.1,3.2,1c0.2,0,0.4,0,0.6-0.1
	c1.1-0.2,2.1-0.8,2.7-1.6c0.6-0.7,0.9-1.5,1-2.5c0-0.3,0-0.6,0-0.8c-0.1-1.2-0.7-2.4-1.7-3.1c-0.6-0.5-1.3-0.8-2-0.9
	C25.2,14.7,24.9,14.6,24.5,14.6L24.5,14.6z"/>
<path class="st3" d="M13.2,20c0,0.1,0,0.3,0,0.4c0,0.2,0.2,0.3,0.3,0.4C13.8,21,14,21,14.1,21l0.5,0.1l0.9,0.1c0.1,0,0.4,0,0.5,0.1
	c0.1,0,0.1,0.1,0.1,0.1c0,0.1,0,0.2,0.1,0.3c0.1,0.4,0.2,0.7,0.4,1.1l0.4,0.7c0.1,0.1,0.2,0.2,0.2,0.3c0,0.1,0,0.2,0,0.3
	c-0.1,0.1-0.2,0.3-0.3,0.4l-0.5,0.7L16,25.6c-0.1,0.1-0.2,0.3-0.3,0.4c0,0.1-0.1,0.3,0,0.4c0,0.1,0.1,0.1,0.1,0.2l0,0
	c0.1,0.1,0.2,0.2,0.3,0.3l0.4,0.4l0.6,0.6c0.1,0.1,0.2,0.2,0.3,0.3c0.1,0.1,0.2,0.1,0.3,0.1c0,0,0,0,0,0l0.4-0.5c0,0-0.1,0-0.1,0.1
	c-0.1,0-0.2,0.1-0.2,0.1c-0.1,0-0.1-0.1-0.2-0.1c-0.2-0.2-0.4-0.4-0.5-0.6l-0.6-0.6c-0.1-0.1-0.4-0.3-0.5-0.5c0-0.1,0-0.1,0-0.2
	c0.1-0.2,0.2-0.3,0.3-0.4l0.6-0.8l0.3-0.4c0.1-0.1,0.2-0.2,0.2-0.4l0,0c0-0.1,0-0.2,0-0.3l0,0l0,0l0,0c-0.1-0.2-0.2-0.3-0.3-0.5
	c-0.1-0.2-0.3-0.5-0.3-0.7l-0.3-0.7c0-0.1-0.1-0.2-0.1-0.3c0-0.1-0.1-0.3-0.1-0.4c-0.1-0.1-0.1-0.1-0.2-0.2
	c-0.2-0.1-0.4-0.1-0.6-0.1l-1.1-0.1c-0.2,0-0.3,0-0.5-0.1c-0.1,0-0.1,0-0.2-0.1c-0.1-0.1-0.1-0.2-0.1-0.3l0-1l0-0.8
	c0-0.1,0-0.3,0-0.4c0-0.1,0.1-0.2,0.2-0.2c0.1-0.1,0.3-0.1,0.5-0.1l1.2-0.2c0.2,0,0.4,0,0.6-0.1c0.1,0,0.1-0.1,0.2-0.1
	c0.2-0.2,0.2-0.4,0.2-0.6l0.2-0.6c0.1-0.3,0.3-0.7,0.4-1l0.2-0.3c0.1-0.1,0.2-0.3,0.2-0.5c0-0.1,0-0.1,0-0.2l0,0
	c-0.1-0.2-0.3-0.5-0.5-0.7l-0.7-0.8c-0.1-0.1-0.3-0.3-0.3-0.4l0-0.1c0-0.1,0-0.1,0.1-0.2c0.1-0.1,0.2-0.2,0.4-0.4l0.7-0.7l0.3-0.3
	c0.1-0.1,0.1-0.2,0.2-0.2c0.1,0,0.2-0.1,0.3,0c0.2,0.1,0.3,0.2,0.5,0.3l0.8,0.6l0.4,0.3c0.1,0.1,0.2,0.1,0.3,0.2
	c0.3,0.1,0.5-0.1,0.8-0.2c0.5-0.3,0.9-0.5,1.4-0.7l0.4-0.1c0.1,0,0.3-0.1,0.4-0.1c0.1-0.1,0.2-0.2,0.2-0.3c0-0.2,0.1-0.4,0.1-0.7
	l0.2-1c0-0.2,0-0.3,0.1-0.5l0,0l0-0.1C23.5,8.1,23.6,8,23.8,8l1.1,0l0.6,0c0.1,0,0.2,0,0.3,0c0.1,0,0.1,0,0.2,0.1
	c0.1,0,0.1,0.1,0.2,0.2c0.1,0.2,0.1,0.3,0.1,0.5l0.2,1.2c0,0.2,0,0.3,0.1,0.5c0.1,0.2,0.2,0.3,0.3,0.3c0.1,0.1,0.3,0.1,0.5,0.1
	l0.7,0.2c0.3,0.1,0.6,0.2,0.9,0.4c0.2,0.1,0.4,0.2,0.6,0.3c0.1,0.1,0.3,0.1,0.5,0.1c0.2-0.1,0.3-0.2,0.4-0.3l0.9-0.7l0.3-0.3
	c0.1-0.1,0.2-0.1,0.3-0.2c0.1,0,0.2,0,0.3,0c0.1,0.1,0.3,0.2,0.4,0.3l0.7,0.7c0.1,0.1,0.3,0.3,0.4,0.4c0,0,0.1,0.1,0.1,0.1l0,0l0,0
	c0,0.1,0,0.1,0,0.2c-0.1,0.1-0.2,0.3-0.3,0.4l-0.6,0.7c-0.1,0.2-0.3,0.3-0.4,0.5c-0.1,0.2-0.2,0.3-0.1,0.5c0,0.2,0.2,0.4,0.3,0.6
	c0.1,0.2,0.3,0.5,0.4,0.7l0.3,0.7l0.1,0.4c0,0.1,0.1,0.2,0.1,0.3c0.1,0.1,0.2,0.2,0.3,0.2c0.1,0,0.2,0.1,0.3,0.1l0.4,0.1l1.1,0.2
	c0.2,0,0.4,0,0.5,0.1C36,18,36,18.1,36,18.2c0,0.1,0,0.2,0,0.3V20c0,0.1,0,0.2,0,0.4c0,0.1,0,0.1-0.1,0.2c-0.1,0.1-0.1,0.1-0.2,0.1
	c-0.2,0-0.4,0-0.6,0.1l-1.4,0.2c-0.2,0-0.4,0.1-0.5,0.3c-0.1,0.2-0.1,0.4-0.2,0.5C33,21.9,33,22,32.9,22.2l0.3,0l0.2-0.5
	c0.1-0.2,0.1-0.4,0.3-0.5c0.1,0,0.3-0.1,0.4-0.1l0.4,0l0.8-0.1c0.2,0,0.4,0,0.6-0.1c0.2-0.1,0.3-0.2,0.3-0.3l0,0l0,0
	c0.1-0.1,0-0.4,0-0.5l0-0.9c0-0.3,0-0.7,0-1c0,0,0-0.1,0-0.1l0,0c-0.1-0.2-0.2-0.3-0.4-0.4l-0.1,0l0,0c-0.1,0-0.2,0-0.4-0.1
	l-0.4-0.1l-1-0.1c-0.1,0-0.3,0-0.4-0.1c-0.1,0-0.1-0.1-0.2-0.1c0-0.1,0-0.1-0.1-0.2c-0.2-0.7-0.4-1.3-0.8-1.9l-0.2-0.3
	c0-0.1-0.1-0.2-0.1-0.2c0,0,0-0.1,0-0.1c0.1-0.2,0.2-0.3,0.4-0.5l0.7-0.9c0.1-0.2,0.3-0.3,0.4-0.5l0,0c0.1-0.1,0-0.4,0-0.5
	c-0.1-0.2-0.3-0.4-0.5-0.5l-0.7-0.7c-0.1-0.1-0.3-0.3-0.4-0.5c-0.1-0.1-0.1-0.1-0.2-0.1c-0.1-0.1-0.3-0.1-0.5,0l0,0
	c-0.1,0-0.1,0.1-0.2,0.1c-0.2,0.1-0.3,0.3-0.5,0.4L30,11.4c-0.1,0.1-0.2,0.2-0.3,0.2c0,0-0.1,0-0.2,0l-0.6-0.4
	c-0.5-0.3-1.1-0.5-1.7-0.7L27,10.5c-0.1,0-0.1,0-0.2-0.1c0,0-0.1-0.1-0.1-0.1c0-0.1,0-0.3-0.1-0.5l-0.2-1c0-0.2-0.1-0.5-0.1-0.7
	c0-0.2-0.2-0.3-0.3-0.4c-0.1,0-0.2-0.1-0.2-0.1c-0.2,0-0.4,0-0.6,0l-1.3,0v0c-0.1,0-0.2,0-0.2,0l0,0c-0.2,0-0.3,0.2-0.4,0.3
	c-0.1,0.2-0.1,0.5-0.2,0.7c0,0.2-0.2,1.7-0.3,1.8c0,0-0.1,0-0.1,0.1c-0.7,0.2-1.3,0.4-1.9,0.7l-0.3,0.2c-0.1,0.1-0.2,0.1-0.3,0.2
	c-0.1,0-0.1,0-0.2,0c-0.2-0.1-0.3-0.3-0.5-0.4l-0.9-0.7c-0.2-0.1-0.3-0.3-0.5-0.4c-0.1-0.1-0.3-0.1-0.4,0c-0.1,0-0.2,0.1-0.3,0.2
	c-0.1,0.1-0.3,0.2-0.4,0.3l-0.6,0.6L16,11.7c-0.1,0.1-0.2,0.2-0.3,0.3c-0.1,0.1-0.1,0.3-0.1,0.5c0.1,0.3,0.3,0.5,0.5,0.7l0.9,1.1
	c0,0,0.1,0.2,0.1,0.2c0,0,0,0.1,0,0.1L17,14.9c-0.3,0.6-0.6,1.2-0.8,1.8c0,0.1-0.1,0.4-0.2,0.5c0,0-0.1,0-0.1,0.1l0,0
	c-0.1,0-0.3,0-0.4,0l-1.1,0.1c-0.2,0-0.5,0-0.7,0.1c-0.1,0.1-0.3,0.2-0.4,0.3c0,0.1-0.1,0.2-0.1,0.2c-0.1,0.4,0,0.8,0,1.3L13.2,20z"
	/>
<line class="st4" x1="28.2" y1="28.2" x2="29.1" y2="27.8"/>
</svg>
