<?xml version="1.0" encoding="utf-8"?>
<!-- Generator: Adobe Illustrator 26.3.1, SVG Export Plug-In . SVG Version: 6.00 Build 0)  -->
<svg version="1.1" id="Layer_1" xmlns="http://www.w3.org/2000/svg" xmlns:xlink="http://www.w3.org/1999/xlink" x="0px" y="0px"
	 viewBox="0 0 50 50" style="enable-background:new 0 0 50 50;" xml:space="preserve">
<style type="text/css">
	.st0{fill:#71BAC0;}
	.st1{fill:#7ED0D6;}
	.st2{fill:none;stroke:#505050;stroke-linecap:round;stroke-linejoin:round;stroke-miterlimit:10;}
	.st3{fill:#505050;}
	.st4{fill:#444444;}
</style>
<g>
	<g>
		<g>
			<path class="st0" d="M46.1,21.7c-9.8,3.6-25.1,9.2-34.9,12.8c0.1-0.6,0.2-1.2,0.3-1.8c-5-2.1-9.5-3.9-8.7-9.1l0-0.3
				c11.3-4.1,24.2-8.9,35.6-13c0,0.4,0.1,0.8,0.1,1.1c0.1,1.9-0.1,3.7-0.5,5.6C41,18,44.1,19.3,46.1,21.7z"/>
		</g>
		<g>
			<path class="st1" d="M38.4,10.8C27.1,14.9,14,19.7,2.7,23.9c0-0.1,0-0.2,0.1-0.3l0-0.3l0.1,0c1.6-3.3,5.2-4.8,8.6-6.1
				c-1.1-4.4-1-12,4.4-12.2c3.4-0.1,6.4,2.1,8.9,4.3C29.5,5.7,38.2,1.6,38.4,10.8z"/>
		</g>
		<g>
			<g>
				<path class="st2" d="M3.6,27.9c-0.9-1.3-1.3-2.8-0.8-4.3c2.2-5,8.4-6.5,13.4-7.6"/>
				<path class="st2" d="M3.6,27.9c2.2,2.2,5,4,9.1,5.2"/>
				<path class="st2" d="M38.9,32.6c0.9-0.3,1.8-0.7,2.7-1.1c2-1,4-2.2,5.1-4.1c0.1-0.1,0.1-0.3,0.2-0.4c2.3-5.4-4.7-8.7-8.9-10
					c0,0,0,0,0,0c-0.8-0.2-1.5-0.4-2.3-0.6"/>
				<path class="st2" d="M13.2,27.1c-1.7,4.8-3.9,12.4-0.4,16.5c5.8,4.6,14.2-4.1,17.4-8.9"/>
				<path class="st2" d="M24.9,9.4c14.3-11,15.3,1.6,11.9,12.5"/>
				<path class="st2" d="M38,42.5c2.3-3.7,0.5-15.3-2.1-17.6"/>
				<path class="st2" d="M22.1,37.6C28.3,44,34.4,47.8,38,42.5"/>
				<path class="st2" d="M12.3,20.4C8.1,9.4,13.5-1.2,24.8,9.3v0c1.6,1.4,3.1,3,4.5,4.8"/>
				<path class="st2" d="M36.9,21.5"/>
			</g>
			<g>
				<path class="st3" d="M16.7,5.1c2.4,0,5.3,1.3,8.1,4.2l0.2,0v0c3.3-2.7,6.3-4,8.6-4c4,0,6.1,4,4.4,11.8c3.8,1.3,9.1,3.3,9.4,7.9
					c-0.2,4.7-5.4,5.9-8.5,8h0c0.9,8.1-1.7,11.9-5.5,11.9c-2.4,0-5.4-1.5-8.4-4.3c-3.1,3-6,4.4-8.5,4.4c-4.3,0-6.9-4.5-5-12.2
					c-12.2-3.7-11-13,0.5-15.5v0C9,9.9,12,5.1,16.7,5.1 M16.7,3.1c-2.7,0-5,1.2-6.4,3.3c-1.6,2.4-1.9,5.7-0.9,9.4
					c-5.2,1.7-8.4,5-8.6,8.8c-0.1,3.9,3,7.4,8.4,9.4c-0.7,4.3-0.2,7.8,1.7,10.1c1.4,1.7,3.4,2.7,5.7,2.7c2.7,0,5.6-1.3,8.5-3.7
					c2.9,2.4,5.7,3.6,8.3,3.6c2,0,3.8-0.8,5.1-2.2c2-2.2,2.8-5.8,2.5-10.6c0.4-0.3,0.9-0.5,1.4-0.8c3-1.6,6.8-3.6,7-8.2
					c0-0.1,0-0.2,0-0.2c-0.4-5.3-5.5-7.7-9.1-9.1c0.7-4.5,0.2-8-1.5-10.1c-1.2-1.5-3-2.3-5.1-2.3c-2.5,0-5.5,1.2-8.6,3.5
					C22.4,4.4,19.5,3.1,16.7,3.1L16.7,3.1z"/>
			</g>
		</g>
	</g>
	<path class="st4" d="M19.2,27.9c-0.1,2.8-1.7,2-3.3,1.7v2.8c9,3.2,6-10.4,6.5-15h-3.2V27.9z M33.8,26.4c-0.7-1.9-3.8-2.6-5.4-3.6
		c-2.9-3,2.7-3.2,4.7-1.8l1-2.7c-4.4-2.8-12.5,0.1-8.8,5.8c0.5,1.1,4.7,2.5,5.3,3.2c2.2,3.6-4.4,2.7-6.3,1.3v3.1
		C28.1,34.1,36.2,32.2,33.8,26.4z"/>
</g>
</svg>
