<?xml version="1.0" encoding="utf-8"?>
<!-- Generator: Adobe Illustrator 24.3.0, SVG Export Plug-In . SVG Version: 6.00 Build 0)  -->
<svg version="1.1" id="Layer_1" xmlns="http://www.w3.org/2000/svg" xmlns:xlink="http://www.w3.org/1999/xlink" x="0px" y="0px"
	 viewBox="0 0 48 47" style="enable-background:new 0 0 48 47;" xml:space="preserve">
<style type="text/css">
	.st0{fill:none;stroke:#444444;stroke-linecap:round;stroke-linejoin:round;stroke-miterlimit:10;}
	.st1{fill:#A6C1C2;}
	.st2{fill:#B9D7D9;}
	.st3{fill:none;stroke:#494949;stroke-width:2.5;stroke-linecap:round;stroke-linejoin:round;stroke-miterlimit:10;}
</style>
<g>
	<g>
		<path class="st0" d="M18.8,9.6c5.7,0,11.3,0,17,0c1.1,0,2.3,0,3.4,0c0,1.1,0,2.2,0,3.3c0,6,0,12,0,18"/>
		<line class="st0" x1="36.8" y1="28.7" x2="39.3" y2="30.9"/>
		<line class="st0" x1="41.7" y1="28.7" x2="39.3" y2="30.9"/>
	</g>
	<g>
		<path class="st1" d="M32.6,19.7V20L7.3,29.3c-0.8-0.3-1.3-1.1-1.3-2v-7.5c0-1.2,1-2.2,2.2-2.2h22.2C31.6,17.5,32.6,18.5,32.6,19.7
			z"/>
		<path class="st1" d="M19.2,7.5v4.1c0,1.2-1,2.2-2.2,2.2H4.3c-0.1,0-0.2,0-0.4,0c-0.3,0-0.6-0.2-0.9-0.4L19.2,7.5z"/>
	</g>
	<g>
		<path class="st2" d="M19.2,4.1v4.1L3.9,13.8c-0.3,0-0.6-0.2-0.9-0.4h0c-0.6-0.4-1-1.1-1-1.8V4.1c0-1.2,1-2.2,2.2-2.2H17
			C18.2,1.9,19.2,2.9,19.2,4.1z"/>
	</g>
	<path class="st3" d="M43.6,45.1H13.7c-1.3,0-2.3-1-2.3-2.3v-7.3c0-1.3,1-2.3,2.3-2.3h29.9c1.3,0,2.3,1,2.3,2.3v7.3
		C45.9,44.1,44.9,45.1,43.6,45.1z"/>
	<path class="st3" d="M19.2,4.1v7.5c0,1.2-1,2.2-2.2,2.2H4.3c-0.1,0-0.2,0-0.4,0c-0.3,0-0.6-0.2-0.9-0.4h0c-0.6-0.4-1-1.1-1-1.8V4.1
		c0-1.2,1-2.2,2.2-2.2H17C18.2,1.9,19.2,2.9,19.2,4.1z"/>
	<path class="st3" d="M32.6,19.7v7.5c0,1.2-1,2.2-2.2,2.2H8.2c-0.3,0-0.6-0.1-0.9-0.2c-0.8-0.3-1.3-1.1-1.3-2v-7.5
		c0-1.2,1-2.2,2.2-2.2h22.2C31.6,17.5,32.6,18.5,32.6,19.7z"/>
</g>
</svg>
