<?xml version="1.0" encoding="utf-8"?>
<!-- Generator: Adobe Illustrator 26.0.3, SVG Export Plug-In . SVG Version: 6.00 Build 0)  -->
<svg version="1.1" id="Camada_1" xmlns="http://www.w3.org/2000/svg" xmlns:xlink="http://www.w3.org/1999/xlink" x="0px" y="0px"
	 viewBox="0 0 50 50" style="enable-background:new 0 0 50 50;" xml:space="preserve">
<style type="text/css">
	.st0{fill:#00C8E2;}
	.st1{fill:#00DFFC;}
	.st2{fill:none;stroke:#444444;stroke-width:2.5;stroke-linecap:round;stroke-linejoin:round;stroke-miterlimit:10;}
	.st3{fill:none;stroke:#444444;stroke-width:0.75;stroke-linecap:round;stroke-linejoin:round;stroke-miterlimit:10;}
	.st4{fill:#494949;}
</style>
<g>
	<g>
		<path class="st0" d="M48.4,22L5.2,37.7C2.8,34,1.4,29.7,1.4,25c0-1,0.1-1.9,0.2-2.8c0-0.2,0.1-0.5,0.1-0.7L40.6,7.3
			c0.2,0.2,0.4,0.3,0.5,0.5C45,11.5,47.7,16.4,48.4,22z"/>
		<path class="st1" d="M41.1,7.8L1.6,22.2c0-0.2,0.1-0.5,0.1-0.7c1.7-11.3,11.5-20,23.3-20c6,0,11.4,2.2,15.6,5.9
			C40.7,7.5,40.9,7.6,41.1,7.8z"/>
		<path class="st2" d="M48.6,25C48.6,38,38,48.6,25,48.6c-8.3,0-15.6-4.3-19.8-10.9C2.8,34,1.4,29.7,1.4,25c0-1,0.1-1.9,0.2-2.8
			c0-0.2,0.1-0.5,0.1-0.7c1.7-11.3,11.5-20,23.3-20c6,0,11.4,2.2,15.6,5.9c0.2,0.2,0.4,0.3,0.5,0.5c3.9,3.6,6.6,8.6,7.3,14.2
			C48.5,23,48.6,24,48.6,25z"/>
		<circle class="st3" cx="25" cy="25" r="19.8"/>
	</g>
	<g>
		<path class="st4" d="M21.6,23c0.2,0,0.5-0.1,0.7-0.1l0,0l0,0l1.9-0.2l-2.6-2.8c-0.8-0.8-1.2-1.9-1.2-3.1h-2.1
			c0,1.7,0.6,3.3,1.8,4.5L21.6,23z"/>
		<path class="st4" d="M28.2,27.1c-0.2,0-0.4,0.1-0.6,0.1l0,0l0,0l-2,0.2l2.6,2.8c0.8,0.8,1.2,1.9,1.2,3.1h2.1
			c0-1.7-0.6-3.3-1.8-4.5L28.2,27.1z"/>
		<path class="st4" d="M31.7,20.9c-0.3-1.7-1.7-3-3.5-3.2l-0.3,0c-1.1-0.1-1.9-1.1-1.9-2.2v-1.1c1-0.4,1.7-1.4,1.7-2.5
			c0-1.5-1.2-2.7-2.7-2.7c-1.5,0-2.7,1.2-2.7,2.7c0,1.1,0.7,2,1.6,2.4v1.2c0,2.2,1.6,4,3.8,4.3l0.3,0c1,0.1,1.5,0.9,1.6,1.5
			c0.1,0.7,0,1.5-0.9,2c-0.4,0.2-0.9,0.4-1.4,0.4l-4.9,0.5c-0.8,0.1-1.6,0.3-2.3,0.7c-1.5,0.9-2.3,2.6-1.9,4.3
			c0.3,1.7,1.7,3,3.5,3.2l0.3,0c1.1,0.1,1.9,1.1,1.9,2.2v1c-1,0.4-1.6,1.4-1.6,2.5c0,1.5,1.2,2.7,2.7,2.7s2.7-1.2,2.7-2.7
			c0-1.1-0.7-2-1.6-2.5v-1c0-2.2-1.6-4-3.8-4.3l-0.3,0c-1-0.1-1.5-0.9-1.6-1.5c-0.1-0.7,0-1.5,0.9-2c0.4-0.2,0.9-0.4,1.4-0.4
			l4.9-0.5c0.8-0.1,1.6-0.3,2.3-0.7C31.3,24.3,32.1,22.6,31.7,20.9z"/>
	</g>
</g>
</svg>
