<?xml version="1.0" encoding="utf-8"?>
<!-- Generator: Adobe Illustrator 26.5.0, SVG Export Plug-In . SVG Version: 6.00 Build 0)  -->
<svg version="1.1" id="Camada_1" xmlns="http://www.w3.org/2000/svg" xmlns:xlink="http://www.w3.org/1999/xlink" x="0px" y="0px"
	 viewBox="0 0 50 50" style="enable-background:new 0 0 50 50;" xml:space="preserve">
<style type="text/css">
	.st0{fill:#71BAC0;}
	.st1{fill:#7ED0D6;}
	.st2{fill:none;stroke:#494949;stroke-width:2.5;stroke-linecap:round;stroke-linejoin:round;stroke-miterlimit:10;}
</style>
<g>
	<path class="st0" d="M43.35,28.86l-26.7,9.7c-1.8-2.1-6.4-5.4-6.8-8.3c-0.3-3-1-9.2-1.3-12.2c6.5-2.3,18-6.5,24.6-8.9
		C35.25,13.16,41.15,24.66,43.35,28.86z"/>
	<path class="st1" d="M36.35,15.36c-4.1,1.5-23.4,8.4-27,9.7c-0.5-4.3-1.7-14.6-2.2-19c-0.8-8.4,5.4-0.7,7.8,0.9
		c1.2-9,4.8-4.5,8.3-0.1c1.2-2.8,4.2-8.5,6.9-3.4C31.65,6.36,34.75,12.36,36.35,15.36z"/>
	<g>
		<path class="st2" d="M42.65,34.36c-0.3,0.3-1,1-1.3,1.3l0,0c-0.9,0.4-13,14.1-14,12.9c-1.2,0.1-9.5-9.2-10.6-10
			c-1.9-2.1-7.2-5.7-5.3-9.1c4.2-8,9.4-18.1,13.6-26.2c3.5-6.1,6.6,3.3,8.1,5.8l3.3,6.2l7,13.5C44.45,30.46,44.15,32.76,42.65,34.36
			z"/>
		<path class="st2" d="M14.95,6.96L14.95,6.96l-5.1-4.3c-5.5-3.8-1,13.6-1.3,15.4l0.8,7c0.4,3,0.3,7.3,3.1,9.3
			c2.7,2.7,10.3,10.2,13.1,13.1c0.7,0.8,2.4,2,3.1,0.8c0.3-0.3,12.4-12.4,12.7-12.7l0,0"/>
		<path class="st2" d="M23.15,6.76c-3.5-4.3-7.1-8.9-8.3,0.2c-1.3,6.8-3.1,16.3-4.4,23c-0.6,3.1,4.4,6.5,6.2,8.6
			c1.1,0.9,9.3,9.9,10.6,10c0.9,1.4,13.2-12.6,14-12.9l0,0l0.8-0.8"/>
	</g>
</g>
</svg>
