<svg xmlns="http://www.w3.org/2000/svg" id="Layer_1" x="0" y="0" version="1.1" viewBox="0 0 50 50" xml:space="preserve"><style>.st0{fill:#afe55d}.st2{fill:#494949}</style><path d="M45.1 10.5h-2.5L4.9 24v12.3l40.2-14.6z" class="st0"/><path d="M26.9 10.5l-22 8V24l37.7-13.5z" class="st0"/><path fill="#c3ff68" d="M4.9 10.5V24l37.7-13.5z"/><path d="M43.7 40.8H6.3c-1.1 0-2-.9-2-2V12c0-1.1.9-2 2-2h37.4c1.1 0 2 .9 2 2v26.7c0 1.2-.9 2.1-2 2.1zM6.3 11.4c-.4 0-.7.3-.7.7v26.7c0 .4.3.7.7.7h37.4c.4 0 .7-.3.7-.7V12c0-.4-.3-.7-.7-.7H6.3z" class="st2"/><path d="M7 12.7h1.3V14H7zm2.6 0h1.3V14H9.6zm2.7 0h1.3V14h-1.3zM5 15.4h40.1v1.3H5zm15.3 8h-4v-4h4v4zM17.6 22H19v-1.3h-1.3V22zm16.1 1.4h-4v-4h4v4zM31 22h1.3v-1.3H31V22zM20.3 36.8h-4v-4h4v4zm-2.7-1.4H19v-1.3h-1.3v1.3zm10.7 1L25 33l-3.3 3.3V24.7h11.6L30 28.1l3.3 3.3-5 5zM25 31.1l3.3 3.3 3.1-3.1-3.3-3.3 2-2H23v7.1l2-2z" class="st2"/><path d="M19.7 20.7h10.7V22H19.7zm-2.1 2h1.3v10.7h-1.3zM35 27.4h1.3v1.3H35zm2.7 0H39v1.3h-1.3zm2.7 0h1.3v1.3h-1.3zm-32.1 0h1.3v1.3H8.3zm2.7 0h1.3v1.3H11zm2.6 0h1.3v1.3h-1.3z" class="st2"/><path d="M44.9 8.5c1.3 0 2.3 1.1 2.3 2.3v29.1c0 1.3-1.1 2.3-2.3 2.3H5.1c-1.3 0-2.3-1.1-2.3-2.3V10.8c0-1.3 1.1-2.3 2.3-2.3h39.8m0-2.5H5.1C2.4 6 .3 8.2.3 10.8v29.1c0 2.7 2.2 4.8 4.8 4.8H45c2.7 0 4.8-2.2 4.8-4.8V10.8c0-2.6-2.2-4.8-4.9-4.8z" class="st2"/></svg>