<svg xmlns="http://www.w3.org/2000/svg" id="Layer_1" x="0" y="0" version="1.1" viewBox="0 0 50 50" xml:space="preserve"><style>.st2{fill:#444}</style><path fill="#e589ef" d="M47.8 22.9v6.2L2 43.5l-.4-12.4v-3.9l46.3-16.8z"/><path fill="#f799ff" d="M47.8 7.7l-.6 3.2L1.5 27.5l.1-6.4v-4L48.3 2.2z"/><path d="M47.9 49.1H32c-.7 0-1.2-.6-1.2-1.2s.6-1.2 1.2-1.2h14.7V3.4H3.1v43.3h3.1c.7 0 1.2.6 1.2 1.2s-.6 1.2-1.2 1.2H1.8c-.7 0-1.2-.6-1.2-1.2V2.1c0-.7.6-1.3 1.2-1.3h46.1c.7 0 1.2.6 1.2 1.3v45.8c.1.7-.5 1.2-1.2 1.2z" class="st2"/><path d="M43.1 33.5c0 1.8-1.5 3.3-3.3 3.3-1.8 0-3.3-1.5-3.3-3.3 0-1.8 1.5-3.3 3.3-3.3 1.8 0 3.3 1.5 3.3 3.3zm-6.2-8.6c0 1.5-1.2 2.7-2.7 2.7-.2 0-.5 0-.7-.1L26.7 35l-.2.2c.2.4.3.8.3 1.2 0 1.5-1.2 2.7-2.7 2.7-1.5 0-2.7-1.2-2.7-2.7 0-1.5 1.2-2.7 2.7-2.7.5 0 1 .2 1.4.4 0 0 0-.1.1-.1l6.6-7.3c-.4-.5-.7-1.1-.7-1.8 0-.6.2-1.2.6-1.6l-5-5.3c-.3.1-.6.2-1 .2-1.5 0-2.7-1.2-2.7-2.7 0-1.5 1.2-2.7 2.7-2.7 1.5 0 2.7 1.2 2.7 2.7 0 .6-.2 1.1-.5 1.6l5.1 5.2c.3-.1.6-.1.9-.1 1.4 0 2.6 1.2 2.6 2.7zm-15.2.3c0 1.8-1.5 3.3-3.3 3.3-1.8 0-3.3-1.5-3.3-3.3s1.5-3.3 3.3-3.3c1.8.1 3.3 1.5 3.3 3.3zm-8.4 7.5c0 1.8-1.5 3.3-3.3 3.3-1.8 0-3.3-1.5-3.3-3.3s1.5-3.3 3.3-3.3c1.8 0 3.3 1.4 3.3 3.3z" class="st2"/></svg>