<svg xmlns="http://www.w3.org/2000/svg" fill="none" viewBox="0 0 50 50"><path fill="#00DFFC" d="M47.7 25.7l-.5-4L30.1 4.1l-4.4-1.8c-4.1 0-17.8 12.9-17.8 15.5l-4.3 4-.2 5.9 14.2 14.5 24.8-8.8c.6-.3 6.2-6 5.4-7.6l-.1-.1z"/><path stroke="#444" stroke-linecap="round" stroke-linejoin="round" stroke-width="2.5" d="M29.7 45.1c-2.4 2.4-6.3 2.4-8.7 0L4.7 28.9c-2.4-2.4-2.4-6.3 0-8.7L20.9 3.9c2.4-2.4 6.3-2.4 8.7 0l16.2 16.2c2.4 2.4 2.4 6.3 0 8.7l-7.4 7.4"/><path stroke="#444" stroke-linecap="round" stroke-linejoin="round" d="M30.9 41.2v-6.8M23.7 46V27.5M9.1 33.3v-9.7m7.4 17.6V30.3m9-3.7l4.1 4.2m-11.1-3.2l3-1.7M10.7 23l4.1 4.1m14 5.3c0-1.2 1-2.1 2.1-2.1s2.1 1 2.1 2.1-1 2.1-2.1 2.1-2.1-1-2.1-2.1zm-7.3-7.2c0-1.2 1-2.2 2.2-2.2 1.2 0 2.2 1 2.2 2.2 0 1.2-1 2.2-2.2 2.2-1.2 0-2.2-1-2.2-2.2zm-7.1 3.2c0-1.1.9-2 2-2s2 .9 2 2-.9 2-2 2-2-.9-2-2zm-7.2-7c0-1.1.9-2 2-2s2 .9 2 2-.9 2-2 2-2-.9-2-2zm18.6-1.5l-3.1.8c-1.2.3-2.1-1.2-1.2-2.1l2.2-2.3m7.8 4.5l-.9 3.1c-.3 1.2-2.1 1.2-2.4 0l-.9-3.1m7.8-4.5l2.2 2.3c.9.9 0 2.4-1.2 2.1l-3.1-.8m3.9-7.2l-1.7 1.8M33 10.9l2.2-.8m-7.9-.1l.9-3.1c.3-1.2 2.1-1.2 2.4 0l.9 3.1m-7.8 4.5l-2.2-2.3c-.9-.9 0-2.4 1.2-2.1l3.1.8"/><path stroke="#444" stroke-linecap="round" stroke-linejoin="round" stroke-width=".5" d="M15.8 10.2l18.9 18.9c1.4 1.4 3.6 1.4 4.9 0l7.1-7.1"/><path stroke="#444" stroke-linecap="round" stroke-linejoin="round" stroke-width=".5" d="M27.5 2.8l-14.3 14c-.5.5-1.3.5-1.8 0l-2-1.9m8.7 27l25-25.1"/><path stroke="#444" stroke-miterlimit="10" stroke-width=".5" d="M29.5 18.2a2.8 2.8 0 100-5.6 2.8 2.8 0 000 5.6z"/></svg>