<svg xmlns="http://www.w3.org/2000/svg" id="Camada_1" x="0" y="0" version="1.1" viewBox="0 0 50 50" xml:space="preserve"><style>.st2,.st3{fill:#444}.st3{stroke:#444;stroke-width:.25;stroke-miterlimit:10}</style><path fill="#46b8b0" d="M44.8 13.4l-5.6-3.6-7.7-4.4-6-2.8C22.3 2.6 4 11.5 4 14.7l-.5 7.8.5 15.1 11.2 5.8 31-11c.9-.5-.4-17-1.4-19z"/><path fill="none" stroke="#444" stroke-linecap="round" stroke-linejoin="round" stroke-miterlimit="10" stroke-width="2.5" d="M29.9 46.5l-2.2 1.3c-1.7 1-3.8 1-5.5 0l-15.6-9C5 37.8 3.9 36 3.9 34V16c0-2 1-3.8 2.7-4.7l15.6-9c1.7-1 3.8-1 5.5 0l15.6 9c1.7 1 2.7 2.8 2.7 4.7v18c0 2-1 3.8-2.7 4.7l-2.5 1.4"/><path d="M37.8 29.8c.2-.2.3-.4.5-.6.2-.3.3-.5.4-.8 0-.1.1-.3.1-.4 0-.1.1-.2.1-.4 0-.1 0-.3.1-.4v-.7c0-.1.1-.2.2-.3h.1c.1 0 .2 0 .3.1v.8c0 .2 0 .4-.1.6 0 .3-.1.6-.2.8-.1.2-.2.5-.3.7-.1.2-.3.5-.4.7-.2.3-.4.5-.6.7-.2.1-.3.3-.5.4-.3.2-.6.4-.9.5-.1.1-.3.1-.4.1-.1 0-.2.1-.3.1-.1 0-.3.1-.4.1-.1 0-.3 0-.5.1h-5.1c-.1 0-.3-.1-.3-.2-.1-.1 0-.3.1-.3l.6-.6c.2-.2.4-.4.5-.6v-.1c-.2-.2-.3-.4-.4-.6l-.3-.6c-.1-.1-.1-.3-.2-.4-.1-.2-.1-.4-.2-.6V26.2c0-.2.1-.3.1-.5 0-.1.1-.2.1-.4 0-.1.1-.3.2-.4.1-.1.1-.2.2-.4.1-.1.1-.2.2-.3.1-.2.2-.4.4-.5l.2-.2.1-.1c.1-.1.3-.3.5-.4.1-.1.2-.1.3-.2l.6-.3c.2-.1.5-.2.7-.3.2-.1.5-.1.7-.1.3 0 .6-.1 1 0h.2l.1.1c.1.1.1.2.1.3 0 .2-.2.3-.4.3h-.5c-.2 0-.4 0-.5.1-.1 0-.3.1-.4.1-.1 0-.1 0-.2.1-.3.1-.6.2-.8.4-.3.2-.5.3-.7.6l-.5.5c0 .1-.1.1-.1.2l-.1.1c-.1.2-.2.3-.3.5-.1.2-.2.4-.2.7 0 .2-.1.3-.1.5v1.1c0 .2.1.4.1.6v.8c.2.4.4.8.7 1.1l.2.2c.1.1 0 .3-.1.4l-.4.4-.3.3h4.4c.2 0 .4-.1.6-.1l.9-.3c.3-.1.5-.3.8-.5l.1-.1c-.1-.4.1-.5.2-.7 0 .1 0 .1 0 0z" class="st2"/><path d="M39 25.2c-.2.1-.3.1-.5.1h-.3c-.4 0-.8-.1-1.1-.4-.3-.2-.6-.5-.8-.9-.1-.3-.2-.6-.2-1 0-.2.1-.4.1-.6 0 0 .1-.1.1-.2.1-.2.2-.3.3-.5.1-.2.3-.3.5-.4.2-.2.5-.3.8-.3.4 0 .7 0 1 .1.5.2.9.5 1.1 1 .1.2.2.5.2.7v.4c0 .5-.2.9-.6 1.3-.1.4-.3.5-.6.7zm-.9-1h.1c.2 0 .3-.2.3-.4V22.4c0-.1-.1-.2-.2-.2s-.2 0-.3.1c-.1.1-.1.2-.1.3V24c0 .1.1.2.2.2zm-3.5 1.4h1.8c.2 0 .4.2.3.4 0 .1-.2.2-.3.2h-3.6c-.2 0-.2-.2-.2-.3 0-.2.1-.3.3-.3h1.7zm-.8 1.9h1c.2 0 .3.1.3.3 0 .2-.1.3-.3.3h-2c-.2 0-.3-.1-.3-.3 0-.2.1-.3.3-.3h1zm2.6.6c-.1 0-.2 0-.3-.1-.1-.1-.1-.2 0-.3.1-.1.1-.2.3-.2h.3c.1.1.2.2.2.3 0 .1-.1.2-.2.3h-.3zM17.8 31.9c-.1-.5-.2-.9-.2-1.3-.1-.5-.1-1.1 0-1.6.1-.3.1-.6.3-.9.1-.1.2-.3.3-.4.2-.2.5-.4.8-.4.4 0 .7 0 1 .1.5.1.9.4 1.3.6.5.3.9.7 1.3 1l.1.1.1-.1 1.5-1.2c.4-.2.8-.4 1.2-.5.2-.1.5-.1.7-.1.5 0 .9.2 1.2.6.2.3.3.5.4.8.1.3.1.6.1.8 0 .7 0 1.3-.2 1.9 0 .1-.1.3-.1.4v.1h.1c.6.2 1.2.4 1.8.7.4.2.8.5 1.1.8.2.2.4.4.5.7.2.4.2.8 0 1.2-.1.3-.3.5-.4.7-.3.3-.6.5-.9.7-.6.4-1.2.6-1.9.8h-.1v.1c.1.4.2.9.2 1.3v1.4c0 .3-.1.6-.3.9-.1.2-.2.4-.4.6-.2.2-.5.4-.8.4-.4 0-.7 0-1.1-.1-.5-.2-.9-.4-1.3-.7-.4-.3-.8-.6-1.1-.9l-.1-.1s-.1 0-.1.1c-.5.4-.9.8-1.5 1.1-.4.2-.8.4-1.3.5-.3.1-.6.1-.8.1-.4 0-.7-.2-1-.5-.2-.2-.3-.5-.4-.8-.1-.3-.1-.6-.2-.9v-1c0-.4.1-.9.2-1.3v-.1h-.1c-.6-.2-1.2-.4-1.7-.7-.4-.2-.8-.5-1.1-.8-.2-.2-.4-.4-.5-.7-.2-.5-.2-.9 0-1.3.1-.2.3-.5.5-.7.3-.3.7-.6 1.1-.8.5-.3 1.1-.5 1.6-.7.2.2.2.1.2.1zm4.7 5.6c.7 0 1.2 0 1.7-.1.1 0 .1 0 .1-.1.5-.8 1-1.7 1.5-2.5v-.1c-.2-.3-.4-.7-.6-1l-.9-1.5s0-.1-.1-.1c-.4 0-.9 0-1.3-.1h-1.6c-.1 0-.1 0-.1.1-.5.8-1 1.6-1.5 2.5v.1c.4.9.9 1.7 1.5 2.5 0 .1.1.1.1.1.5.1.9.2 1.2.2zm-4.5-.6s.1 0 0 0c.2-.8.5-1.4.8-2.1v-.2c-.3-.6-.6-1.3-.8-2v-.1h-.1c-.6.2-1.2.4-1.7.7-.3.2-.6.4-.8.6-.1.1-.2.3-.3.5-.1.2-.1.4 0 .6.1.1.1.3.2.4.2.3.5.5.8.7.5.3 1 .5 1.6.7.1.2.2.2.3.2zm.5.9c-.1.3-.1.4-.1.6-.1.5-.2 1.1-.1 1.7 0 .2.1.5.1.7.1.2.1.3.2.5s.3.2.5.3h.5c.3-.1.5-.2.8-.3.7-.3 1.2-.8 1.8-1.3l-.1-.1-.5-.5-.9-1.2-.1-.1h-.5c-.4-.1-1-.2-1.6-.3.1 0 .1 0 0 0zm8.5 0c-.1 0-.1 0 0 0-.5.1-.9.2-1.3.2-.3 0-.6.1-.9.1-.1 0-.1 0-.1.1-.4.6-.8 1.1-1.3 1.7.3.3.6.6 1 .8.4.3.7.5 1.2.6.2.1.5.2.8.1.3 0 .5-.1.7-.4.1-.1.1-.3.2-.4.1-.4.2-.7.2-1.1 0-.6-.1-1.1-.2-1.6-.3 0-.3-.1-.3-.1zm-4.8-8.2c-.4-.4-.9-.8-1.3-1.1-.3-.2-.6-.4-1-.5h-.7c-.2 0-.4.1-.6.3-.1.1-.1.2-.1.3-.1.3-.2.6-.2.9v.8c0 .5.1.9.2 1.4v.1h.1c.4-.1.7-.1 1.1-.2.3-.1.7-.1 1-.1.1 0 .1 0 .1-.1.5-.6.9-1.2 1.4-1.8 0 .1 0 0 0 0zm4.7 2.2c0-.1 0-.1 0 0 0-.2.1-.3.1-.4.1-.6.2-1.2.1-1.8 0-.3-.1-.5-.1-.8-.1-.2-.1-.3-.2-.5s-.3-.3-.5-.3-.3 0-.5.1c-.3.1-.6.2-.9.4-.6.3-1.1.7-1.5 1.2v.1c.2.2.4.4.6.7.3.3.5.7.8 1 0 0 0 .1.1.1.2 0 .4 0 .7.1.5.1.9.1 1.4.2-.2-.2-.1-.2-.1-.1zm.5.8c0 .1-.1.2-.1.2-.2.6-.4 1.2-.7 1.8v.1c.3.6.6 1.3.8 2v.1h.1c.5-.1 1-.3 1.4-.6.4-.2.7-.4 1-.7.2-.2.3-.3.4-.6.1-.2.1-.4 0-.7v-.1c-.1-.1-.1-.2-.2-.3-.2-.3-.5-.5-.9-.7-.5 0-1.1-.3-1.8-.5.1 0 .1 0 0 0zm-1.2 3c-.3.6-.6 1.2-1 1.7.5-.1 1.1-.1 1.6-.3-.2-.4-.4-.9-.6-1.4zm-4.5 2.6c.3.4.7.8 1 1.2.3-.3.6-.6.8-1 0-.1.1-.1.1-.2h-1.9c.1 0 .1 0 0 0zm-2.4-2.6c-.2.5-.4 1-.5 1.5.5.1 1 .2 1.6.3-.5-.6-.8-1.2-1.1-1.8zm3.4-5.5c-.2.1-1 1.1-1 1.2h2c-.1-.1-.8-1-1-1.2zm2.5 2.1c.3.6.7 1.1 1 1.7.2-.5.4-1 .5-1.5-.5-.1-1-.2-1.5-.2zm-6.5.2c.1.3.5 1.4.5 1.4.3-.6.6-1.1 1-1.7l-1.5.3z" class="st2"/><path d="M21.2 34.7c0-.8.7-1.5 1.5-1.5s1.5.7 1.5 1.5-.7 1.5-1.5 1.5-1.5-.6-1.5-1.5z" class="st2"/><path d="M24.6 14.3c1-.1 2 .3 2.9.8.8.5 1.4 1.3 1.8 2.1.1.2.2.4.2.6l.1.4c0 .2 0 .3.1.5v.1c.1 1.3-.3 2.6-1.2 3.6-.7.8-1.7 1.4-2.7 1.6-.3.1-.5.1-.8.1h-.8c-1-.1-1.9-.6-2.7-1.3-.7-.6-1.2-1.4-1.5-2.3-.1-.4-.1-.7-.2-1.1-.1-1.2.4-2.5 1.2-3.4.8-.8 1.7-1.4 2.8-1.6.3 0 .5-.1.8-.1zm-.1.3c-.3 0-.6.1-.9.1-.9.2-1.8.8-2.4 1.5-.6.7-.9 1.5-1 2.4 0 .2-.1.5 0 .8 0 .3.1.6.2 1 .3.9.8 1.8 1.6 2.4.9.7 2 1.1 3.2 1 .2 0 .4 0 .6-.1 1.1-.2 2.1-.8 2.7-1.6.6-.7.9-1.5 1-2.5v-.8c-.1-1.2-.7-2.4-1.7-3.1-.6-.5-1.3-.8-2-.9-.6-.1-.9-.2-1.3-.2z" class="st3"/><path d="M13.2 20v.4c0 .2.2.3.3.4.3.2.5.2.6.2l.5.1.9.1c.1 0 .4 0 .5.1.1 0 .1.1.1.1 0 .1 0 .2.1.3.1.4.2.7.4 1.1l.4.7c.1.1.2.2.2.3v.3c-.1.1-.2.3-.3.4l-.5.7-.4.4c-.1.1-.2.3-.3.4 0 .1-.1.3 0 .4 0 .1.1.1.1.2l.3.3.4.4.6.6.3.3c.1.1.2.1.3.1l.4-.5s-.1 0-.1.1c-.1 0-.2.1-.2.1-.1 0-.1-.1-.2-.1-.2-.2-.4-.4-.5-.6l-.6-.6c-.1-.1-.4-.3-.5-.5V26c.1-.2.2-.3.3-.4l.6-.8.3-.4c.1-.1.2-.2.2-.4v-.3c-.1-.2-.2-.3-.3-.5-.1-.2-.3-.5-.3-.7l-.3-.7c0-.1-.1-.2-.1-.3 0-.1-.1-.3-.1-.4l-.2-.2c-.2-.1-.4-.1-.6-.1l-1.1-.1c-.2 0-.3 0-.5-.1-.1 0-.1 0-.2-.1s-.1-.2-.1-.3V18c0-.1.1-.2.2-.2.1-.1.3-.1.5-.1l1.2-.2c.2 0 .4 0 .6-.1.1 0 .1-.1.2-.1.2-.2.2-.4.2-.6l.2-.6c.1-.3.3-.7.4-1l.2-.3c.1-.1.2-.3.2-.5v-.2c-.1-.2-.3-.5-.5-.7l-.7-.8c-.1-.1-.3-.3-.3-.4v-.1c0-.1 0-.1.1-.2l.4-.4.7-.7.3-.3c.1-.1.1-.2.2-.2s.2-.1.3 0c.2.1.3.2.5.3l.8.6.4.3c.1.1.2.1.3.2.3.1.5-.1.8-.2.5-.3.9-.5 1.4-.7l.4-.1c.1 0 .3-.1.4-.1.1-.1.2-.2.2-.3 0-.2.1-.4.1-.7l.2-1c0-.2 0-.3.1-.5V8c-.1.1 0 0 .2 0h2c.1 0 .1 0 .2.1.1 0 .1.1.2.2.1.2.1.3.1.5l.2 1.2c0 .2 0 .3.1.5s.2.3.3.3c.1.1.3.1.5.1l.7.2c.3.1.6.2.9.4l.6.3c.1.1.3.1.5.1.2-.1.3-.2.4-.3l.9-.7.3-.3c.1-.1.2-.1.3-.2h.3c.1.1.3.2.4.3l.7.7.4.4.1.1v.2c-.1.1-.2.3-.3.4l-.6.7c-.1.2-.3.3-.4.5-.1.2-.2.3-.1.5 0 .2.2.4.3.6.1.2.3.5.4.7l.3.7.1.4c0 .1.1.2.1.3.1.1.2.2.3.2.1 0 .2.1.3.1l.4.1 1.1.2c.2 0 .4 0 .5.1-.3.4-.3.5-.3.6v2.2c0 .1 0 .1-.1.2s-.1.1-.2.1c-.2 0-.4 0-.6.1l-1.4.2c-.2 0-.4.1-.5.3-.1.2-.1.4-.2.5 0 .1 0 .2-.1.4h.3l.2-.5c.1-.2.1-.4.3-.5.1 0 .3-.1.4-.1h.4l.8-.1c.2 0 .4 0 .6-.1.2-.1.3-.2.3-.3.1-.1 0-.4 0-.5v-2c-.1-.2-.2-.3-.4-.4h-.1c-.1 0-.2 0-.4-.1l-.4-.1-1-.1c-.1 0-.3 0-.4-.1-.1 0-.1-.1-.2-.1 0-.1 0-.1-.1-.2-.2-.7-.4-1.3-.8-1.9l-.2-.3c0-.1-.1-.2-.1-.2v-.1c.1-.2.2-.3.4-.5l.7-.9c.1-.2.3-.3.4-.5.1-.1 0-.4 0-.5-.1-.2-.3-.4-.5-.5l-.7-.7c-.1-.1-.3-.3-.4-.5-.1-.1-.1-.1-.2-.1-.1-.1-.3-.1-.5 0-.1 0-.1.1-.2.1-.2.1-.3.3-.5.4l-.6.6c-.1.1-.2.2-.3.2h-.2l-.6-.4c-.5-.3-1.1-.5-1.7-.7H27c-.1 0-.1 0-.2-.1l-.1-.1c0-.1 0-.3-.1-.5l-.2-1c0-.2-.1-.5-.1-.7 0-.2-.2-.3-.3-.4-.1 0-.2-.1-.2-.1h-2.1c-.2 0-.3.2-.4.3-.1.2-.1.5-.2.7 0 .2-.2 1.7-.3 1.8 0 0-.1 0-.1.1-.7.2-1.3.4-1.9.7l-.3.2c-.1.1-.2.1-.3.2H20c-.2-.1-.3-.3-.5-.4l-.9-.7c-.2-.1-.3-.3-.5-.4-.1-.1-.3-.1-.4 0-.1 0-.2.1-.3.2-.1.1-.3.2-.4.3l-.6.6-.4.5-.3.3c-.1.1-.1.3-.1.5.1.3.3.5.5.7l.9 1.1.1.2v.1l-.1.3c-.3.6-.6 1.2-.8 1.8 0 .1-.1.4-.2.5 0 0-.1 0-.1.1h-.4l-1.1.1c-.2 0-.5 0-.7.1-.1.1-.3.2-.4.3 0 .1-.1.2-.1.2-.1.4 0 .8 0 1.3v.7z" class="st3"/><path fill="none" stroke="#444" stroke-miterlimit="10" stroke-width=".5" d="M28.2 28.2l.9-.4"/></svg>