<?xml version="1.0" encoding="utf-8"?>
<!-- Generator: Adobe Illustrator 26.5.0, SVG Export Plug-In . SVG Version: 6.00 Build 0)  -->
<svg version="1.1" id="Layer_1" xmlns="http://www.w3.org/2000/svg" xmlns:xlink="http://www.w3.org/1999/xlink" x="0px" y="0px"
	 viewBox="0 0 50 50" style="enable-background:new 0 0 50 50;" xml:space="preserve">
<style type="text/css">
	.st0{fill:#AFE55D;}
	.st1{fill:#C3FF68;}
	.st2{fill:#494949;}
</style>
<g>
	<polygon class="st0" points="45.1,10.5 42.6,10.5 4.9,24 4.9,36.3 45.1,21.7 	"/>
	<polygon class="st0" points="26.9,10.5 4.9,18.5 4.9,24 42.6,10.5 	"/>
	<polygon class="st1" points="4.9,10.5 4.9,24 42.6,10.5 	"/>
	<g>
		<g>
			<g>
				<path class="st2" d="M43.7,40.8H6.3c-1.1,0-2-0.9-2-2V12c0-1.1,0.9-2,2-2h37.4c1.1,0,2,0.9,2,2v26.7
					C45.7,39.9,44.8,40.8,43.7,40.8z M6.3,11.4c-0.4,0-0.7,0.3-0.7,0.7v26.7c0,0.4,0.3,0.7,0.7,0.7h37.4c0.4,0,0.7-0.3,0.7-0.7V12
					c0-0.4-0.3-0.7-0.7-0.7H6.3z"/>
			</g>
			<g>
				<rect x="7" y="12.7" class="st2" width="1.3" height="1.3"/>
			</g>
			<g>
				<rect x="9.6" y="12.7" class="st2" width="1.3" height="1.3"/>
			</g>
			<g>
				<rect x="12.3" y="12.7" class="st2" width="1.3" height="1.3"/>
			</g>
			<g>
				<rect x="5" y="15.4" class="st2" width="40.1" height="1.3"/>
			</g>
			<g>
				<path class="st2" d="M20.3,23.4h-4v-4h4V23.4z M17.6,22H19v-1.3h-1.3V22z"/>
			</g>
			<g>
				<path class="st2" d="M33.7,23.4h-4v-4h4V23.4z M31,22h1.3v-1.3H31V22z"/>
			</g>
			<g>
				<path class="st2" d="M20.3,36.8h-4v-4h4V36.8z M17.6,35.4H19v-1.3h-1.3V35.4z"/>
			</g>
			<g>
				<path class="st2" d="M28.3,36.4L25,33l-3.3,3.3V24.7h11.6L30,28.1l3.3,3.3L28.3,36.4z M25,31.1l3.3,3.3l3.1-3.1l-3.3-3.3l2-2H23
					v7.1L25,31.1z"/>
			</g>
			<g>
				<rect x="19.7" y="20.7" class="st2" width="10.7" height="1.3"/>
			</g>
			<g>
				<rect x="17.6" y="22.7" class="st2" width="1.3" height="10.7"/>
			</g>
			<g>
				<rect x="35" y="27.4" class="st2" width="1.3" height="1.3"/>
			</g>
			<g>
				<rect x="37.7" y="27.4" class="st2" width="1.3" height="1.3"/>
			</g>
			<g>
				<rect x="40.4" y="27.4" class="st2" width="1.3" height="1.3"/>
			</g>
			<g>
				<rect x="8.3" y="27.4" class="st2" width="1.3" height="1.3"/>
			</g>
			<g>
				<rect x="11" y="27.4" class="st2" width="1.3" height="1.3"/>
			</g>
			<g>
				<rect x="13.6" y="27.4" class="st2" width="1.3" height="1.3"/>
			</g>
		</g>
		<g>
			<path class="st2" d="M44.9,8.5c1.3,0,2.3,1.1,2.3,2.3v29.1c0,1.3-1.1,2.3-2.3,2.3H5.1c-1.3,0-2.3-1.1-2.3-2.3V10.8
				c0-1.3,1.1-2.3,2.3-2.3H44.9 M44.9,6H5.1c-2.7,0-4.8,2.2-4.8,4.8v29.1c0,2.7,2.2,4.8,4.8,4.8h39.9c2.7,0,4.8-2.2,4.8-4.8V10.8
				C49.8,8.2,47.6,6,44.9,6L44.9,6z"/>
		</g>
	</g>
</g>
</svg>
