<svg xmlns="http://www.w3.org/2000/svg" id="Layer_1" version="1.1" viewBox="0 0 50 50"><defs><style>.st0{stroke-miterlimit:10}.st0,.st2{stroke:#444}.st0,.st2,.st5{fill:none}.st0,.st2{stroke-linecap:round;stroke-width:.8px}.st2,.st5{stroke-miterlimit:10}.st5{stroke:#69fff0}</style></defs><path fill="#7df4eb" d="M44.7 12.4l-5.6-3.6-7.7-4.4-6-2.8C22.2 1.5 4 10.5 4 13.7l-.5 7.8.5 15.1 11.5 7.6 31-11c.7-.4-.8-18.7-1.8-20.7z"/><path fill="none" stroke="#444" stroke-linecap="round" stroke-linejoin="round" stroke-width="2.5" d="M29.9 46.4l-2.2 1.3c-1.7 1-3.8 1-5.5 0l-15.6-9c-1.7-1-2.7-2.8-2.7-4.7V16c0-2 1-3.8 2.7-4.7l15.7-9c1.7-1 3.8-1 5.5 0l15.6 9c1.7 1 2.7 2.8 2.7 4.7v18c0 2-1 3.8-2.7 4.7l-2.5 1.4"/><path fill="#444" d="M25.4 1.5C21.6 2.9 13.5 8.4 3.9 13.6l-.5 7.8.5 15.1 11.5 7.6 10.3-3.7-.3-39z"/><path d="M37.6 24.2c0-1.7-2.2-3.1-5.6-4-.4 1.2-.9 2.6-1.5 4 .6 1.4 1.2 2.7 1.5 4 3.4-.9 5.6-2.3 5.6-4z" class="st2"/><path d="M25.2 32.1zm6.9-11.9c.9-3.3.8-6-.6-6.8-1.4-.8-3.8.4-6.2 2.8.9.9 1.8 2 2.7 3.3 1.5.1 2.9.4 4.2.7z" class="st0"/><path d="M29.3 21.8c.5.8.9 1.6 1.2 2.4.6-1.4 1.2-2.7 1.5-4-1.3-.3-2.7-.5-4.2-.7.5.7 1 1.5 1.4 2.3z" class="st2"/><path fill="none" stroke="#444" stroke-linecap="round" stroke-miterlimit="10" stroke-width=".8" d="M25.2 16.2zm0 15.9c2.4 2.5 4.8 3.7 6.2 2.8 1.4-.8 1.6-3.5.6-6.8-1.3.3-2.7.5-4.2.7-.9 1.2-1.8 2.4-2.7 3.3z"/><path d="M29.3 26.5c-.5.8-.9 1.5-1.4 2.3 1.5-.1 2.9-.4 4.2-.7-.4-1.2-.9-2.6-1.5-4l-1.2 2.4z" class="st2"/><path d="M25.2 28.9v3.2c.9-.9 1.8-2 2.7-3.3-.9 0-1.8.1-2.7.1zm0-9.5c.9 0 1.8 0 2.7.1-.9-1.2-1.8-2.4-2.7-3.3v3.2z" class="st0"/><path d="M27.9 19.5c-.9 0-1.8-.1-2.7-.1v2.4c1.3 0 2.3 1 2.3 2.3s-1 2.3-2.3 2.3v2.4c.9 0 1.8 0 2.7-.1.5-.7 1-1.5 1.4-2.3.5-.8.9-1.6 1.2-2.4l-1.2-2.4c-.5-.8-.9-1.5-1.4-2.3z" class="st2"/><path fill="#444" stroke="#444" stroke-miterlimit="10" d="M27.5 24.2c0-1.3-1-2.3-2.3-2.3v4.6c1.3 0 2.3-1 2.3-2.3z"/><path d="M18.3 20.2c-3.4.9-5.6 2.3-5.6 4s2.2 3.1 5.6 4c.4-1.2.9-2.6 1.5-4-.6-1.4-1.2-2.7-1.5-4z" class="st5"/><path d="M22.5 28.8c-1.5-.1-2.9-.4-4.2-.7-.9 3.3-.8 6 .6 6.8 1.4.8 3.8-.4 6.2-2.8-.9-.9-1.8-2-2.7-3.3z" class="st5"/><path d="M19.8 24.2c-.6 1.4-1.2 2.7-1.5 4 1.3.3 2.7.5 4.2.7-.5-.7-1-1.5-1.4-2.3-.5-.8-.9-1.6-1.2-2.4zM19 13.4c-1.4.8-1.6 3.5-.6 6.8 1.3-.3 2.7-.5 4.2-.7.9-1.2 1.8-2.4 2.7-3.3-2.4-2.5-4.8-3.7-6.2-2.8z" class="st5"/><path d="M21.1 21.8c.5-.8.9-1.6 1.4-2.3-1.5.1-2.9.4-4.2.7.4 1.2.9 2.6 1.5 4l1.2-2.4zm4.1-5.6c-.9.9-1.8 2-2.7 3.3.9 0 1.8-.1 2.7-.1v-3.2zm0 15.9v-3.2c-.9 0-1.8 0-2.7-.1.9 1.2 1.8 2.4 2.7 3.3z" class="st5"/><path fill="#69fff0" d="M22.9 24.2c0 1.3 1 2.3 2.3 2.3v-4.6c-1.3 0-2.3 1-2.3 2.3z"/></svg>