<?xml version="1.0" encoding="UTF-8"?>
<svg id="Camada_1" data-name="Camada 1" xmlns="http://www.w3.org/2000/svg" version="1.1" viewBox="0 0 50 50">
  <defs>
    <style>
      .cls-1 {
        fill: #424242;
      }

      .cls-1, .cls-2, .cls-3 {
        stroke-width: 0px;
      }

      .cls-4 {
        stroke-width: .5px;
      }

      .cls-4, .cls-5, .cls-6, .cls-7 {
        fill: none;
      }

      .cls-4, .cls-6 {
        stroke: #444;
      }

      .cls-4, .cls-6, .cls-7 {
        stroke-linecap: round;
        stroke-linejoin: round;
      }

      .cls-2 {
        fill: #8256d8;
      }

      .cls-3 {
        fill: #a475ef;
      }

      .cls-5 {
        stroke: #424242;
        stroke-miterlimit: 10;
      }

      .cls-7 {
        stroke: #454444;
        stroke-width: 2.5px;
      }
    </style>
  </defs>
  <polygon class="cls-2" points="30.2 15.2 38.1 17.6 31.4 22.4 31.5 30.6 24.9 25.7 17.1 28.3 19.8 20.5 14.9 13.9 23.1 14 27.8 7.3 30.2 15.2"/>
  <g>
    <g>
      <g>
        <path class="cls-3" d="M48.3,7.9l.2-2.6c.2-1.9-1.3-3.6-3.3-3.6l-39.4-.2c-1.8,0-3.3,1.5-3.3,3.3v23.1c0,0,0,0,0,0v3.6l-.3,12.3c0,1.9,1.5,3.4,3.3,3.4l18-.2c.4,0,.8,0,1.1-.2l21.4-8c1.3-.5,2.1-1.7,2.1-3.1V14.1c0,0,.6-.1.6-.1l-.5-5.4c0-.2,0-.4,0-.6Z"/>
        <path class="cls-7" d="M38.6,47.8H5.9c-1.9,0-3.4-1.5-3.4-3.4V5.8c0-1.9,1.5-3.4,3.4-3.4h39c1.9,0,3.4,1.5,3.4,3.4v32"/>
      </g>
      <line class="cls-5" x1="3.7" y1="10.5" x2="47.7" y2="10.5"/>
      <g>
        <circle class="cls-1" cx="7.1" cy="7" r="1.4"/>
        <circle class="cls-1" cx="11.6" cy="7" r="1.4"/>
        <circle class="cls-1" cx="16" cy="7" r="1.4"/>
      </g>
      <line class="cls-4" x1="10.4" y1="10.4" x2="10.4" y2="47"/>
    </g>
    <g>
      <polyline class="cls-6" points="21.9 35.4 15.4 30.4 21.9 26.2"/>
      <polyline class="cls-6" points="34.1 35.6 40.6 30.6 34.1 26.4"/>
      <line class="cls-4" x1="24.7" y1="39.6" x2="31.4" y2="22.4"/>
    </g>
    <line class="cls-4" x1="15" y1="14.7" x2="28.2" y2="14.7"/>
    <line class="cls-4" x1="15" y1="17.9" x2="37.4" y2="17.9"/>
  </g>
</svg>