<?xml version="1.0" encoding="utf-8"?>
<!-- Generator: Adobe Illustrator 28.3.0, SVG Export Plug-In . SVG Version: 6.00 Build 0)  -->
<svg version="1.1" id="Layer_1" xmlns="http://www.w3.org/2000/svg" xmlns:xlink="http://www.w3.org/1999/xlink" x="0px" y="0px"
	 viewBox="0 0 50 50" style="enable-background:new 0 0 50 50;" xml:space="preserve">
<style type="text/css">
	.st0{fill:#319327;}
	.st1{fill:#5ABA52;}
	.st2{fill:none;stroke:#444444;stroke-miterlimit:10;}
	.st3{fill:none;stroke:#444444;stroke-linecap:round;stroke-miterlimit:10;}
	.st4{fill:none;stroke:#444444;stroke-width:2.5;stroke-linecap:round;stroke-linejoin:round;stroke-miterlimit:10;}
</style>
<g>
	<polygon class="st0" points="28.8,19.7 37.2,22.3 30,27.3 30.1,36.1 23.1,30.9 14.8,33.7 17.7,25.4 12.4,18.4 21.2,18.5 26.2,11.3 
			"/>
	<g>
		<path class="st1" d="M42.1,16.1l-5.3-3.8l-0.7-6.9l-5.7-3.7C27,1.8,15.5,9.6,8.6,14.6l0,20.8l6.2,3.6l-0.6,4.7l28-10.2
			C43,33.1,43.2,18.2,42.1,16.1z"/>
		<g>
			<g transform="matrix(.400018502 0 0 .400018502 5.34987738 .55385626)">
				<path class="st2" d="M62.8,2.8l13.6,7.8L22.8,41.5L9.1,33.7L62.8,2.8z"/>
				<path class="st2" d="M76.9,12.3L23.6,42.9l0,15.5l53.3-30.6L76.9,12.3z"/>
				<path class="st2" d="M55.5,42.5L23.7,60.8l0,15.5L55.5,58L55.5,42.5z"/>
				<path class="st2" d="M43.3,67L23.7,78.3l0,15.5l19.7-11.3L43.3,67z"/>
				<path class="st2" d="M8.2,35.1L21.9,43l0,15.5L8.2,50.7L8.2,35.1z"/>
				<path class="st2" d="M8.3,52.9l13.5,7.8l0,15.5L8.3,68.4L8.3,52.9z"/>
				<path class="st2" d="M8.3,70.6l13.5,7.8l0,16.5L8.3,87.1L8.3,70.6z"/>
				<path class="st2" d="M38.5,120.8L24.8,113l53-30.5c0,0,0.8-0.5,0.9-1.4"/>
				<path class="st2" d="M23.8,111.6L77,81.1l0-15.5L23.8,96.2L23.8,111.6z"/>
				<path class="st2" d="M45.1,81.4l31.8-18.3l0-15.5L45.1,65.9L45.1,81.4z"/>
				<path class="st2" d="M57.3,56.9l19.7-11.3l0-15.5L57.3,41.4L57.3,56.9z"/>
				<path class="st3" d="M78.7,81.1l0-0.4l0-15.1l13.7,7.9"/>
				<path class="st2" d="M92.3,71.1l-13.5-7.8l0-15.5l13.5,7.8L92.3,71.1z"/>
				<path class="st2" d="M92.3,53.4l-13.5-7.8l0-16.2l13.5,7.8L92.3,53.4z"/>
			</g>
			<path class="st4" d="M36.7,39.8l-16,9.2l-5.4-3.1c-0.4-0.1-0.4-0.5-0.4-0.5l0-6.2c-0.1-0.1-0.8-0.5-0.8-0.5l-5.4-3.1l0-6.6
				l0-14.2c0,0,0-0.4,0.4-0.6L30.4,1.8l5.4,3.1c0.3,0.2,0.2,0.7,0.2,0.7l0,6.2c0.1,0.6,0.7,0.7,0.7,0.7l5.4,3.1l0,6.5l0.1,8v4.4"/>
		</g>
	</g>
</g>
</svg>
