<svg xmlns="http://www.w3.org/2000/svg" viewBox="0 0 50 50"><defs><style>.cls-4{fill:#444}</style></defs><g id="Layer_1"><path fill="#00dffc" d="M49 24c-6.9-9.2-7-3.1-9.8-16.9-3.4-2.9-.7-2-5.4-2.6-1-.1-7.8 3.8-8.9 3.8s-8.4-4.8-9.4-4.6c-10.3 1.3.8 11-13.6 16.7C.5 24.7 4.5 32.2 9 33.8c.5 2.2-5.9 7-.6 11.3h10.1l2.1-5.6 25.7-9.1c.3-1.5 3.7-5.2 2.8-6.5z"/><path fill="none" d="M7.2 25.7c0 2.1 2.7 3.9 6.7 5.1l2.4-6.3c-.6-1.4-1.1-2.8-1.5-4.1-4.5 1.2-7.6 3.1-7.6 5.3zm9.4-2.1l1.5-3.9c-.9.2-1.8.4-2.7.5.2 1 .7 2.2 1.2 3.4zM29.4 31l-4.2-11.8h-.5l-4.3 12 .2.4h6.9l.2.7h.8c.3-.3.5-.7.8-1.1zm.4 1.1h.1zM16.1 10.3c-1.9 1-2.1 4.6-.9 9.1 1-.2 2.1-.4 3.2-.5l2.6-6.7h1.3c-2.6-1.9-4.9-2.7-6.2-1.9zm26.8 15.4c0-2.2-3.1-4.1-7.6-5.3-.4 1.3-.9 2.7-1.5 4.1l2.4 6.3c4-1.2 6.7-3 6.7-5.1zm-8.2-5.5c-.8-.2-1.8-.4-2.7-.5l1.5 3.9c.4-1.1.8-2.2 1.2-3.4zm-3-1.2c1.1.2 2.1.4 3.1.5 1.2-4.6 1-8.3-.8-9.3-.3-.2-.8-.4-1.4-.4-1.3 0-2.9.8-4.8 2.2h1.3l2.7 6.9zm-3.6 14v.2c.1 0 .2-.1.2-.2h-.2z"/><path d="M5.9 24.7c0-2.2 3.1-4.1 7.6-5.3.4 1.3.9 2.7 1.5 4.1l.4-.9c-.5-1.2-.9-2.4-1.2-3.4.9-.2 1.8-.4 2.7-.5l.3-.9c-1.1.2-2.2.4-3.2.5-1.2-4.5-1-8.1.9-9.1 1.3-.8 3.6 0 6.2 1.9h1L22 11c-2.9-2.4-5.7-3.3-7.4-2.2-2.2 1.2-2.6 5.1-1.2 10-5 1.4-8.1 3.6-8.1 6s2.7 4.5 7.1 5.8l.3-.7c-4-1.2-6.7-3-6.7-5.1zm19.4-5.5l-.2-.6-.2.6h.5zm19.3 5.5c0-2.6-3.1-4.8-8.1-6 1.4-5 1-8.8-1.2-10-1.7-1-4.3-.2-7.4 2.2h-.2c0 .1 1 .1 1 .1 1.9-1.4 3.5-2.2 4.8-2.2s1 .2 1.4.4c1.9 1 2.1 4.6.8 9.3-1-.2-2-.4-3.1-.5l.3.7c.9.2 1.8.4 2.7.5-.4 1.1-.8 2.2-1.2 3.4l.3.9c.6-1.4 1.1-2.7 1.5-4.1 4.5 1.2 7.6 3.1 7.6 5.3s-2.7 3.9-6.7 5.1l.3.7c4.4-1.4 7.1-3.5 7.1-5.7z" class="cls-4"/><path d="M33.8 24.5l-.3-.9-1.5-3.9-.3-.7-2.7-6.9h-8l-2.6 6.7-.3.9-1.5 3.9-.4.9-2.4 6.3-.3.7-4.1 10.7h7.3l.2-.7 1.6-4.4h11l-1.1-3.2-.3-.8v-.2l-.3-.8-.2-.7h-7.2V31c.1 0 4.5-11.9 4.5-11.9l.2-.6.2.6 4.2 11.8.3 1c0 .1.3.9.3.9l3 8.6.2.7h7.3l-4.2-10.8-.2-.7-2.4-6.3z" class="cls-4"/><circle cx="24.9" cy="28.3" r="2.1" class="cls-4"/><path fill="none" stroke="#444" stroke-linecap="round" stroke-linejoin="round" stroke-width="2.4" d="M43 39.4L40.4 33s8.9-2.6 8.1-9.1c-.6-5.4-7.8-7.4-7.8-7.4s1.4-9.2-3.1-11.6c-3.7-2-8.3 1.7-11.1 3.4h-2.4s-6.5-5.8-11.2-3.4C7.7 7.6 9.5 16.1 9.5 16.1S2 17.9 1.4 23.6c-.5 4.7 3.9 9 8.2 9.9l-3 7.5c-.8 2 .7 4.2 2.8 4.2h7.8c1.3 0 2.5-.9 2.9-2.2l.8-2.8h8.4l.8 2.8c.4 1.3 1.6 2.2 2.9 2.2h1.7"/></g></svg>