<svg xmlns="http://www.w3.org/2000/svg" viewBox="0 0 50 50"><defs><style>.cls-1,.cls-8{fill:none}.cls-1{stroke:#444;stroke-width:.5px;stroke-miterlimit:10}.cls-8{stroke-linecap:round;stroke-linejoin:round;stroke-width:.45px;stroke:#484848}</style></defs><g id="Camada_3"><path fill="#8256d8" d="M30.4 19.69l7.83 2.43-6.7 4.74.11 8.21-6.58-4.91-7.77 2.64 2.63-7.78-4.91-6.57 8.21.1 4.74-6.7 2.44 7.84z"/><path fill="#a475ef" d="M47.7 17.5l.48-11.04-1.92-3.84-15.36.48c-3.2 0-27.84-2.96-27.84.24L1.38 23.98l1.2 23.52 13.56.65 31.02-11.04c.74-.42 1.52-17.62.54-19.61z"/><path fill="none" stroke="#444" stroke-linecap="round" stroke-linejoin="round" stroke-width="2.5" d="M32.78 48.1H5.77c-1.87 0-3.39-1.58-3.39-3.54V5.65c0-1.95 1.52-3.54 3.39-3.54h39.01c1.87 0 3.39 1.58 3.39 3.54v32.47"/><g style="isolation:isolate" id="items"><g id="blend"><g id="g-root-ic_sit_1q5qo5j1bi51qh-stroke"><g id="ic_sit_1q5qo5j1bi51qh-stroke"><path d="M34.05 13.72a3.171 3.171 0 000 6.34 3.171 3.171 0 000-6.34zm-9.49 5.61c-1.14 0-2.07.92-2.07 2.07s.93 2.07 2.07 2.07 2.07-.92 2.07-2.07-.93-2.07-2.07-2.07z" class="cls-8"/><path d="M12.82 20.35V9.08c0-.21.1-.41.28-.53.89-.61 1.89-1.84 6.12 4.91 1.93 2.89 4.08 6.29 4.08 6.29m6.2 11.33h-1.38c-1.52 0-2.75 1.24-2.75 2.75v2.75c0 1.1.96 2.07 2.07 2.07s2.07-.96 2.07-2.07V35.2h4.13c1.93 0 3.44-1.52 3.44-3.44v-6.75c0-1.79-1.24-3.44-3.03-3.58-2.07-.14-3.86 1.38-3.86 3.44l-2.48-1.65c-.96-.69-2.2-.28-2.75.69s-.28 2.07.69 2.75l3.15 1.8c1.4.75 2.55.46 3.18 0 .28-.2 1.04-.96 1.39-1.32" class="cls-8"/><path d="M33.64 35.21h4.13v3.44" class="cls-8"/></g></g></g></g><path d="M16.96 31.12c.66.68 1.39 1.74 1.98 2.88 1.31 2.55 1.64 4.99.73 5.46s-2.72-1.21-4.03-3.76-1.64-4.99-.73-5.46c.22-.11.48-.11.78.01" class="cls-1"/><ellipse cx="17.28" cy="34.85" fill="none" stroke="#444" stroke-miterlimit="10" stroke-width=".5" rx="5.18" ry="1.86" transform="rotate(-60 17.28 34.85)"/><ellipse cx="17.28" cy="34.85" class="cls-1" rx="5.18" ry="1.86"/><circle cx="17.28" cy="34.84" r=".78" class="cls-1"/><g fill="none" stroke="#444"><path stroke-linecap="round" stroke-linejoin="round" d="M12.82 24.41v5.38m0 0a1.9 1.9 0 103.8 0m0 0v-1.52l-.96.96"/><circle cx="12.82" cy="23.32" r="1.08" stroke-miterlimit="10"/><path stroke-miterlimit="10" stroke-width=".45" d="M12.82 20.06v2.18"/></g><path fill="none" stroke="#484848" stroke-linecap="round" stroke-linejoin="round" stroke-width=".46" d="M19.32 7.29h21.01c1.15 0 2.08.93 2.08 2.08v31.46c0 1.15-.93 2.08-2.08 2.08H10.22c-1.15 0-2.08-.93-2.08-2.08V11.32"/></g></svg>