<?xml version="1.0" encoding="utf-8"?>
<!-- Generator: Adobe Illustrator 27.3.1, SVG Export Plug-In . SVG Version: 6.00 Build 0)  -->
<svg version="1.1" id="Camada_3" xmlns="http://www.w3.org/2000/svg" xmlns:xlink="http://www.w3.org/1999/xlink" x="0px" y="0px"
	 viewBox="0 0 50 50" style="enable-background:new 0 0 50 50;" xml:space="preserve">
<style type="text/css">
	.st0{fill:#F56991;}
	.st1{fill:#DC5E82;}
	.st2{fill:none;stroke:#454444;stroke-width:2.5;stroke-linecap:round;stroke-linejoin:round;stroke-miterlimit:10;}
	.st3{fill:#454444;}
</style>
<g>
	<g>
		<polygon class="st0" points="35.39,4.56 42.66,10.04 44.58,16.74 1.53,32.44 2.42,18.82 8.19,8.66 21.96,2.36 		"/>
		<polygon class="st1" points="46.74,20.77 46.72,21.2 4.62,36.33 3.56,35.56 1.42,27.62 43.16,11.58 45.3,15.74 		"/>
		<g>
			<path class="st2" d="M12.27,5.91c8.27-5.21,19.29-4.78,27.2,1.84c9.15,7.64,10.93,20.84,4.5,30.55"/>
			<path class="st2" d="M35.14,46.2c-8.02,4.09-18.05,3.28-25.39-2.86C-0.09,35.13-1.4,20.51,6.81,10.68"/>
			<path class="st2" d="M12.27,5.91c0,0-3.43,2.08-5.58,4.92"/>
		</g>
	</g>
	<g>
		<g>
			<path class="st3" d="M26.65,43.48h-3v-11.8h-3.9v-2.5h10.8v2.5h-3.9L26.65,43.48L26.65,43.48z"/>
			<path class="st3" d="M41.25,39.48c0,1.3-0.5,2.3-1.4,3.1c-0.9,0.7-2.2,1.1-3.9,1.1c-1.5,0-2.9-0.3-4.1-0.9v-2.8
				c1,0.4,1.8,0.7,2.5,0.9s1.3,0.3,1.8,0.3c0.7,0,1.2-0.1,1.5-0.4c0.4-0.3,0.5-0.6,0.5-1.1c0-0.3-0.1-0.5-0.2-0.7
				c-0.2-0.2-0.4-0.4-0.7-0.6s-0.9-0.5-1.9-1c-0.9-0.4-1.5-0.8-2-1.2c-0.4-0.4-0.8-0.8-1-1.3c-0.3-0.5-0.4-1.1-0.4-1.8
				c0-1.3,0.4-2.3,1.3-3c0.9-0.7,2-1.1,3.6-1.1c0.7,0,1.5,0.1,2.1,0.3s1.4,0.4,2.1,0.7l-1,2.4c-0.8-0.3-1.4-0.5-1.9-0.7
				c-0.5-0.1-1-0.2-1.5-0.2c-0.6,0-1,0.1-1.3,0.4s-0.5,0.6-0.5,1c0,0.3,0.1,0.5,0.2,0.7c0.1,0.2,0.3,0.4,0.6,0.6s0.9,0.5,1.9,1
				c1.3,0.6,2.3,1.3,2.8,1.9C40.95,37.78,41.25,38.48,41.25,39.48z"/>
		</g>
	</g>
	<g>
		<g>
			<g>
				<g>
					<path class="st3" d="M32.57,14.28c-0.7,2.06-1.36,4.12-2.29,6.18c-0.7-1.13-1.39-2.52-2.06-3.66c-0.7-1.13-1.36-2.52-2.29-3.66
						C28.22,13.38,30.51,13.85,32.57,14.28z M19.75,6.74c1.36,1.6,2.96,3.19,4.35,5.25c-1.39,0.03-2.76-0.21-4.35-0.21
						c-1.6,0-2.96,0-4.35,0.23C16.78,10.16,18.38,8.34,19.75,6.74z M6.95,14.28c2.06-0.46,4.12-0.93,6.64-1.13
						c-0.7,1.13-1.6,2.29-2.29,3.66c-0.7,1.36-1.39,2.52-2.06,3.66C8.31,18.41,7.41,16.11,6.95,14.28z M6.92,28.94
						c0.7-2.06,1.36-4.12,2.29-6.18c0.7,1.13,1.36,2.52,2.06,3.66c0.7,1.36,1.39,2.52,2.29,3.66C11.27,29.84,8.98,29.38,6.92,28.94z
						 M31.32,42.34c-1.11,0.69-2.39,0.37-4.29-0.46l0.03,1.1c1.06,0.4,1.89,0.6,2.76,0.6c0.93,0,0.73,0.08,1.49-0.2 M33.67,36.79
						c-0.03,0.54-0.09,1.04-0.16,1.52c-0.1,0.64-0.1,0.72-0.47,1.67l0.85,0.29c0.22-0.57,0.51-1.27,0.62-1.96
						c0.05-0.29,0.09-0.58,0.11-0.89L33.67,36.79z M23.22,40.9v-1.28c-0.93-0.7-1.85-1.56-2.77-2.49c0,0,2.33-2.23,2.63-2.95v-1.44
						l-0.15,0.21c-0.7,1.11-1.17,1.65-3.17,3.54c-1.36-1.6-2.96-3.19-4.35-5.25c1.15,0,2.53,0.22,3.83,0.27c0.02-0.9,0,0,0.02-0.9
						c-1.44,0-3.36-0.34-4.76-0.54c-0.93-1.36-1.83-2.76-2.76-4.12c-0.93-1.36-1.6-2.96-2.29-4.35c0.7-1.36,1.36-2.96,2.29-4.35
						c0.93-1.36,1.83-2.96,2.76-4.12c1.6-0.23,3.19-0.23,5.02-0.23s3.43,0,5.02,0.23c0.93,1.36,1.83,2.76,2.76,4.12
						c0.93,1.36,1.6,2.96,2.29,4.35c-0.7,1.39-1.36,2.99-2.29,4.35c-0.6,0.88-1.19,1.86-1.78,2.76l1.28,0
						c0.7-1.13,2.79-4.82,3.46-5.95c0.93,2.06,1.83,4.12,2.29,6.18l-1.41,0.38l-0.04,1.14l1.41-0.34l0,0
						c1.53-1.68,3.92-1.64,5.15-1.8c3.95-1.76,6.79-4.28,6.79-6.69c0-3.45-4.12-6.41-10.74-8.01c1.01-3.65,1.31-6.81,0.9-9.18
						c-0.12-0.08-0.24-0.17-0.37-0.24c-0.25-0.13-0.5-0.25-0.75-0.36c0.57,2.29,0.29,5.65-0.74,9.57c-2.29-0.46-4.79-0.93-7.55-1.13
						c-1.6-2.29-3.19-4.12-4.79-5.95c0.93-0.95,1.62-1.88,2.52-2.55c0.68-0.51,1.33-0.96,1.95-1.35c-0.5,0.02-0.99,0.03-1.49,0.05
						c-0.37,0.26-0.75,0.53-1.13,0.83c-0.93,0.7-1.83,1.6-2.52,2.29c-0.68-0.68-1.35-1.22-1.93-1.74c-0.26,0.11-0.53,0.21-0.8,0.3
						c0.69,0.56,1.28,1.15,2.03,1.9c-1.6,1.83-3.19,3.66-4.79,5.95c-2.76,0.23-5.25,0.7-7.55,1.13c-0.2-0.74-0.37-1.46-0.51-2.16
						c-0.12,0.14-0.24,0.27-0.35,0.41c-0.09,0.11-0.18,0.22-0.27,0.34c-0.01,0.02-0.09,0.13-0.13,0.18
						c-0.02,0.03-0.05,0.06-0.08,0.09c0.12,0.53,0.26,1.06,0.41,1.61c-0.48,0.13-0.94,0.27-1.39,0.41c0.05,0.32,0.04,0.65-0.03,0.98
						c0.54-0.17,1.08-0.33,1.66-0.49c0.7,2.29,1.6,4.58,2.76,7.08c-1.13,2.52-2.06,4.79-2.76,7.08c-1.85-0.49-3.52-1.07-4.94-1.72
						c0.03,0.11,0.06,0.22,0.09,0.33c0.08,0.31,0.14,0.62,0.2,0.93c1.31,0.55,2.79,1.03,4.42,1.42c-0.23,1.13-0.7,2.29-0.7,3.43
						c-0.39,2.11-0.45,3.97-0.22,5.52c0.47,0.4,0.93,0.82,1.36,1.26C5.72,38.23,5.63,36,6.04,33.29c0.23-1.13,0.46-2.29,0.7-3.43
						c2.29,0.46,4.79,0.93,7.55,1.13c1.6,2.29,3.19,4.12,4.79,5.95c-0.96,1.36-5.89,5.76-9.63,5.42c-0.68-0.06,0.98,0.73-0.91,0.13
						c0.27,0.35,0.54,0.71,0.8,1.08c0.11,0.01,0.22,0.02,0.34,0.02c2.06,0,4.58-1.13,7.55-3.43c0.93-0.7,1.83-1.6,2.52-2.29
						c0.93,0.93,1.83,1.6,2.52,2.29C22.6,40.44,22.89,40.66,23.22,40.9 M33.47,28.71c-0.7-2.29-1.6-4.79-2.76-7.08
						c1.13-2.52,2.06-4.79,2.76-7.08c5.95,1.6,10.07,4.12,10.07,7.08C43.54,24.59,39.42,27.11,33.47,28.71z"/>
				</g>
			</g>
		</g>
		<circle class="st3" cx="19.05" cy="21.68" r="4.02"/>
	</g>
</g>
</svg>
