<svg xmlns="http://www.w3.org/2000/svg" id="Camada_1" x="0" y="0" version="1.1" viewBox="0 0 50 50" xml:space="preserve"><style>.st2{fill:#444}.st3{fill:none;stroke:#444;stroke-width:.5;stroke-linecap:round;stroke-miterlimit:10}</style><path fill="#46b8b0" d="M44.8 13.4l-5.6-3.6-7.7-4.4-6-2.8C22.3 2.6 4 11.5 4 14.7l-.5 7.8.5 15.1 11.2 5.8 31-11c.9-.5-.4-17-1.4-19z"/><path fill="none" stroke="#444" stroke-linecap="round" stroke-linejoin="round" stroke-miterlimit="10" stroke-width="2.5" d="M29.9 46.5l-2.2 1.3c-1.7 1-3.8 1-5.5 0l-15.6-9C5 37.8 3.9 36 3.9 34V16c0-2 1-3.8 2.7-4.7l15.6-9c1.7-1 3.8-1 5.5 0l15.6 9c1.7 1 2.7 2.8 2.7 4.7v18c0 2-1 3.8-2.7 4.7l-2.5 1.4"/><path d="M14.3 26.5c0-1.1.1-1.9.3-2.7v-.1c0-.2.1-.4 0-.5-.1-.1-.3-.1-.5-.2-.9-.3-1.7-.6-2.5-1.1-.7-.4-1.4-.8-1.8-1.5-.4-.7-.6-1.4-.3-2.2.2-.5.6-1 1-1.3.7-.6 1.5-1 2.3-1.4.5-.2.9-.4 1.4-.5.3 0 .3-.1.2-.4-.1-.4-.1-.8-.2-1.1-.1-.7-.2-1.4-.1-2.1 0-.8.2-1.5.5-2.2.3-.7.9-1.1 1.7-1.2.7-.1 1.4.1 2.1.4.6.3 1.1.6 1.7 1 .5.3.9.7 1.3 1.1.1.1.3.2.4 0 .3-.3.6-.5 1-.8.5-.4.9-.7 1.5-1 .9-.3 1.8-.7 2.7-.7 1 0 1.7.6 2 1.4.2.4.3.9.4 1.4.1.4.1.8.1 1.2 0 .9-.1 1.8-.3 2.7 0 .2 0 .2.2.3.9.3 1.7.6 2.5 1 .7.4 1.3.8 1.8 1.4.7.8 1 1.6.5 2.6-.3.5-.6 1-1.1 1.3-1.1.8-2.3 1.4-3.5 1.8-.4.1-.4.1-.3.5.2 1.1.4 2.1.3 3.2 0 .9-.2 1.8-.8 2.5-.4.5-.9.7-1.5.7-.6.1-1.2-.1-1.8-.3-.6-.2-1.2-.6-1.8-.9-.6-.4-1-.9-1.6-1.3-.1-.1-.2-.1-.4 0-.5.4-.9.8-1.5 1.2-.8.5-1.6 1-2.6 1.3-.7.2-1.5.2-2.1-.2-.5-.3-.8-.8-1-1.4-.2-.7-.2-1.4-.2-1.9zm7.5-3.4h2.1c.2 0 .3 0 .4-.2.7-1.1 1.4-2.2 2-3.4.2-.3.1-.6 0-.9-.3-.6-.7-1.3-1.1-1.9l-.9-1.5c-.1-.1-.1-.1-.2-.1h-4.2c-.1 0-.2 0-.3.2-.4.6-.7 1.2-1.1 1.8-.4.6-.7 1.2-1 1.8-.1.2-.1.3 0 .4.2.3.3.6.4.9.5.9 1 1.7 1.5 2.6.1.2.2.3.4.3h2zm-6.4 3.1c0 .7 0 1.3.3 2 .2.6.5.9 1.2.9.4 0 .7-.1 1-.2 1.2-.4 2.1-1.2 3-2 .1-.1.1-.1 0-.2-.4-.5-.8-.9-1.2-1.4-.2-.3-.5-.4-.6-.7-.1-.3-.3-.4-.6-.4-.2 0-.3 0-.5-.1-.7-.1-1.5-.2-2.2-.4-.1 0-.2 0-.2.1 0 .2-.1.3-.1.5 0 .6-.1 1.2-.1 1.9zm12.9-14.3c0-.7-.1-1.5-.4-2.1-.2-.5-.8-.7-1.1-.7-.6.1-1.2.3-1.8.6-.8.4-1.5 1-2.2 1.6-.1.1-.1.2 0 .3.3.3.6.5.8.9.4.4.7.9 1.1 1.4.1.1.2.2.3.2 1 .1 1.9.3 2.9.5.2.1.2-.1.2-.2.1-.9.3-1.7.2-2.5zm4.9 7.2c0-.1 0-.2-.1-.4-.3-.5-.7-.9-1.1-1.3-.9-.6-1.9-1-2.9-1.4-.2-.1-.3 0-.3.2-.1.4-.2.8-.4 1.1l-.6 1.5c-.1.1-.1.3 0 .4.4.8.7 1.7.9 2.5.1.3.2.3.5.2.7-.2 1.3-.5 1.9-.8.6-.3 1.2-.7 1.6-1.2.3-.1.5-.4.5-.8zm-17.8-7.2c0 .9.1 1.7.2 2.4 0 .2.1.2.3.2.8-.2 1.6-.3 2.5-.4.3 0 .5-.1.7-.3.5-.7 1-1.4 1.7-2 .2-.2.2-.2 0-.5-.3-.3-.7-.5-1-.7-.8-.7-1.7-1.2-2.7-1.4-.5-.1-.9-.1-1.2.4-.3.4-.4.9-.5 1.4v.9zm13 14.4c0-.9-.1-1.7-.3-2.6 0-.2-.2-.2-.3-.2-.9.2-1.7.4-2.6.5-.2 0-.4.1-.5.3-.5.7-1 1.3-1.6 1.9-.1.1-.3.2-.3.3 0 .1.2.2.3.3.5.5 1.1 1 1.8 1.4.6.3 1.2.6 1.8.7.8.1 1.2-.1 1.4-.8.2-.5.3-1.2.3-1.8zm-17.9-7.2v.2c.1.5.5.8.8 1.1 1 .8 2.1 1.3 3.3 1.7.2.1.3 0 .4-.2.3-.9.6-1.8 1-2.6 0-.1.1-.2 0-.3-.2-.5-.4-.9-.6-1.4-.2-.4-.3-.9-.5-1.3 0-.2-.1-.2-.3-.2-.6.2-1.2.4-1.8.7-.3.1-.6.3-.9.5-.3.2-.6.5-.9.8-.2.2-.4.6-.5 1zm11.4 5.2h-1.3c0 .1 0 .1.1.2.3.4.7.8 1.1 1.3.1.1.2.1.3 0 .4-.4.8-.8 1.1-1.3 0 0 .1-.1 0-.1 0-.1-.1 0-.1 0-.4-.1-.8-.1-1.2-.1zM20.8 14c.3 0 .6-.1.9-.1.4 0 .9 0 1.3.1h.1v-.1c-.4-.4-.7-.9-1.1-1.3-.2-.1-.3-.1-.4 0-.3.4-.6.8-1 1.1-.1.1-.2.2-.2.3.2 0 .3-.1.4 0zm-4.1 3.7c.1-.1.1-.1.1-.2.1-.2.2-.5.4-.7.3-.4.5-.9.8-1.3.1-.1 0-.2-.1-.1-.6.1-1.2.2-1.7.4-.1 0-.1.1-.1.2.1.2.1.4.2.5.1.3.2.7.4 1.2zm9.4 5.1l1.5-.3c.1 0 .1-.1.1-.2v-.1c-.1-.6-.5-1.1-.6-1.6 0 0 0-.1-.1-.1s-.1.1-.1.1c-.3.6-.7 1.3-1.1 1.9 0 .1-.1.2-.1.2.1.2.3.1.4.1zm-8 0l-.3-.6c-.1-.1-.2-.2-.2-.3-.2-.4-.5-.9-.7-1.3 0 0 0-.1-.1-.1 0 0-.1 0-.1.1-.2.6-.4 1.1-.6 1.7 0 .1 0 .2.1.2.2 0 .4.1.7.1.4.1.8.2 1.2.2zm7.7-7.5h-.1v.1c.1.1.2.2.2.3.3.5.6 1.1.9 1.6 0 .1.1.1.1.1.1 0 .1-.1.1-.1l.6-1.5c0-.1 0-.2-.1-.2-.5-.1-1.1-.2-1.7-.3z" class="st2"/><path d="M21.8 16.8c1.4 0 2.2.9 2.4 1.8.1.8 0 1.5-.6 2.1-.4.5-1 .7-1.6.7-1.3 0-2.3-1-2.4-2.3-.1-1.3 1-2.4 2.2-2.3z" class="st2"/><circle cx="30.4" cy="27.7" r="9" class="st3"/><path d="M34.1 38c-.9-2.4-3.1-5.3-7.9-5.2-8 0-8.6 8.7-8.6 8.7h11.2m13.3-9.2h-7v-8.6h8.5v6.8" class="st3"/></svg>