<svg xmlns="http://www.w3.org/2000/svg" viewBox="0 0 50 50"><path fill="#8256d8" d="M31.6 20.4l7.8 2.5-6.7 4.7.1 8.2-6.5-4.9-7.8 2.6 2.6-7.7-4.9-6.6 8.2.1 4.8-6.7z"/><path fill="#a475ef" d="M47.9 22.3l-9.7-4.6.6-8.9c-.1 0-2.3-4.1-2.4-4.1l-3.5-.4c0-.2-3.3 2.2-3.5 2L25 9.1c-3.7-2.8-5.5-3.9-5.6-4l-5.7-.8c-.1-.1-2 2.3-2.1 2.2l-.3 3.5c-.2-.3.4 3.8.1 3.8l.9 3.8c-.2 0-7.6 2.5-7.8 2.7l-2.8 3.2c-.2.2 1.1 3.9 1.1 4.1l3.5 2.7c0 .1 5.8 2.1 5.9 2.2l-1.3 7.3c-.8.6 2.4 5.3 2.4 5.4l2.9.3 2.9-.8 3.2-2.7 2.4-1.6c0 .1.2.2.3.1l13.2-4.8c.1 0 0-3 0-3.1l9.7-4.4v-5.9z"/><path fill="none" stroke="#444" stroke-linecap="round" stroke-linejoin="round" stroke-miterlimit="10" stroke-width="2.5" d="M38.8 41.1s-.6 7.6-7.9 3.4c0 0-3.3-1.9-5.8-4.7 0 0-6.7 8-11.7 5.4 0 0-4.6-1.9-1.2-12.7 0 0-10.5-2.5-10.5-7.6 0 0-.8-4.8 10.5-7.2 0 0-3.5-10.2 1.1-12.9 0 0 3.8-2.5 11.5 5.3 0 0 7.3-7.2 11.4-5.4 0 0 4.8 1.7 1.6 12.9 0 0 10.4 2.3 10.4 7.7 0 0 .5 4.3-10.3 7.2l.6 3"/><path fill="none" stroke="#444" stroke-linecap="round" stroke-linejoin="round" stroke-miterlimit="10" d="M38 18.2c-14-3.5-26.4.3-26.4.3m-.1 13s14.1 3.5 26.8.1M12.7 16.4S15.1 27.9 26 39.8m11.4-22.5s-5.7 14.1-13.3 22.4M12.8 33s2.6-12 12.8-22.7m-1.4 0s10.1 8.7 13 22.2"/><path fill="#444" d="M26.3 19.9h-2.5l-4.9 8.5h12.4l-5-8.5zM25 21.6l2.8 4.9h-5.6l2.8-4.9z"/></svg>