<?xml version="1.0" encoding="utf-8"?>
<!-- Generator: Adobe Illustrator 28.0.0, SVG Export Plug-In . SVG Version: 6.00 Build 0)  -->
<svg version="1.1" id="Layer_1" xmlns="http://www.w3.org/2000/svg" xmlns:xlink="http://www.w3.org/1999/xlink" x="0px" y="0px"
	 viewBox="0 0 50 50" style="enable-background:new 0 0 50 50;" xml:space="preserve">
<style type="text/css">
	.st0{fill:#D1BD00;}
	.st1{fill:#F9F941;}
	.st2{fill:none;stroke:#444444;stroke-width:2.5;stroke-linecap:round;stroke-linejoin:round;stroke-miterlimit:10;}
	.st3{fill:none;stroke:#444444;stroke-linecap:round;stroke-linejoin:round;stroke-miterlimit:10;}
	.st4{fill:none;stroke:#444444;stroke-width:0.5;stroke-miterlimit:10;}
	.st5{fill:#444444;}
	.st6{fill:none;stroke:#444444;stroke-width:0.5;stroke-linecap:round;stroke-linejoin:round;stroke-miterlimit:10;}
</style>
<polygon class="st0" points="29.9,20.5 37.7,23 31,27.7 31.1,35.9 24.6,31 16.8,33.6 19.4,25.9 14.5,19.3 22.7,19.4 27.5,12.7 "/>
<path class="st1" d="M44.6,12.4L39,8.8l-7.7-4.4l-6-2.8c-3.2,0-21.5,8.9-21.5,12.1l-0.5,7.8l0.5,15.1l11.5,7.6l31-11
	C47.2,32.7,45.6,14.4,44.6,12.4z"/>
<g>
	<g>
		<path class="st2" d="M29.9,46.5l-2.2,1.3c-1.7,1-3.8,1-5.5,0l-15.6-9C5,37.8,4,36,4,34V16c0-2,1-3.8,2.7-4.7l15.6-9
			c1.7-1,3.8-1,5.5,0l15.6,9C45,12.3,46,14,46,16v18c0,2-1,3.8-2.7,4.7l-2.5,1.4"/>
	</g>
</g>
<path class="st3" d="M25,18L25,18c-0.5-1.4-1.8-2.3-3.3-2.3h-9.3v17h9.1h1.2c1.3,0,2.3,1.1,2.3,2.4v0"/>
<path class="st3" d="M25,35.1L25,35.1c0-1.3,1.1-2.4,2.4-2.4h1.2h9.1v-17h-9.3c-1.5,0-2.8,0.9-3.3,2.3l0,0"/>
<path class="st3" d="M12.3,17.3h-1.8v17.2h9.8c1.6,0,3.5,0.9,4.7,2.9l0,0"/>
<path class="st3" d="M25,37.4L25,37.4c1.1-2,3.1-2.9,4.7-2.9h9.8V17.3h-1.8"/>
<ellipse transform="matrix(0.866 -0.5 0.5 0.866 -8.0641 18.8911)" class="st4" cx="31.2" cy="24.5" rx="1.9" ry="5"/>
<ellipse transform="matrix(0.5 -0.866 0.866 0.5 -5.7319 39.0588)" class="st4" cx="31" cy="24.5" rx="5" ry="1.9"/>
<ellipse class="st4" cx="31.1" cy="24.3" rx="5" ry="1.9"/>
<circle class="st5" cx="31.1" cy="24.3" r="1"/>
<line class="st6" x1="25" y1="17.8" x2="25" y2="34.1"/>
<line class="st3" x1="25" y1="34.2" x2="25" y2="36.8"/>
</svg>
