<svg width="50" height="40" viewBox="0 0 50 40" fill="none" xmlns="http://www.w3.org/2000/svg">
<path d="M44.75 14.68L45.13 18.79L0.879974 34.89L4.71997 27.36V20.02L45.42 5.21L44.75 8.75V14.68Z" fill="#A475EF"/>
<path d="M44.42 3.3L44.21 6.17L4.83997 20.5L4.71997 11.09L5.69997 2.49L43.91 1.44L44.42 3.3Z" fill="#BF94F7"/>
<path d="M30.42 11.71C31.13 9.13 30.95 7.18 29.8 6.56C28.91 6.03 27.58 6.47 25.98 7.71C25.62 7.98 25.27 8.33 25 8.6C24.64 8.24 24.29 7.98 24.02 7.71C22.51 6.47 21.09 6.02 20.2 6.56C19.05 7.18 18.87 9.22 19.58 11.71C17 12.42 15.41 13.57 15.41 14.82C15.41 16.15 17.01 17.31 19.58 17.93C19.49 18.37 19.31 18.82 19.31 19.26C18.95 21.21 19.31 22.63 20.2 23.08C20.47 23.26 20.73 23.35 21.09 23.35C21.89 23.35 22.87 22.91 24.02 22.02C24.38 21.75 24.73 21.4 25 21.13C25.36 21.49 25.71 21.75 25.98 22.02C27.05 22.91 28.11 23.35 28.91 23.35C29.27 23.35 29.53 23.26 29.8 23.08C30.69 22.55 31.04 21.22 30.69 19.26C30.6 18.82 30.51 18.37 30.42 17.93C33 17.22 34.59 16.07 34.59 14.82C34.59 13.48 32.99 12.33 30.42 11.71ZM26.24 7.89C27.31 7.09 28.19 6.65 28.9 6.65C29.17 6.65 29.43 6.74 29.61 6.83C30.59 7.36 30.68 9.23 30.05 11.63C29.16 11.45 28.19 11.27 27.12 11.19C26.5 10.3 25.88 9.59 25.26 8.88C25.62 8.51 25.89 8.15 26.24 7.89ZM27.93 16.5C27.57 17.03 27.22 17.65 26.86 18.1C26.24 18.19 25.62 18.19 24.91 18.19C24.29 18.19 23.58 18.19 22.96 18.1C22.6 17.57 22.25 17.03 21.89 16.5C21.53 15.97 21.27 15.35 21 14.81C21.27 14.28 21.53 13.66 21.89 13.12C22.25 12.59 22.6 11.97 22.96 11.52C23.58 11.43 24.2 11.43 24.91 11.43C25.62 11.43 26.24 11.43 26.86 11.52C27.22 12.05 27.57 12.59 27.93 13.12C28.29 13.65 28.55 14.27 28.82 14.81C28.55 15.35 28.29 15.97 27.93 16.5ZM29.08 15.26C29.44 16.06 29.79 16.86 29.97 17.66C29.17 17.84 28.37 18.02 27.39 18.1C27.66 17.66 28.01 17.21 28.28 16.68C28.55 16.24 28.82 15.7 29.08 15.26ZM25 20.59C24.47 19.97 23.85 19.35 23.31 18.55C23.84 18.55 24.38 18.64 25 18.64C25.62 18.64 26.15 18.64 26.69 18.55C26.15 19.25 25.53 19.97 25 20.59ZM22.6 18.1C21.71 18.01 20.82 17.83 20.02 17.66C20.29 16.86 20.55 16.06 20.91 15.26C21.18 15.7 21.44 16.24 21.71 16.68C21.98 17.21 22.25 17.66 22.6 18.1ZM20.92 14.37C20.56 13.57 20.21 12.68 20.03 11.97C20.83 11.79 21.63 11.61 22.61 11.53C22.34 11.97 21.99 12.42 21.72 12.95C21.45 13.48 21.18 13.93 20.92 14.37ZM25 9.04C25.53 9.66 26.15 10.28 26.69 11.08C26.15 11.09 25.62 11 25 11C24.38 11 23.85 11 23.31 11.09C23.85 10.37 24.47 9.66 25 9.04ZM28.29 12.95C28.02 12.51 27.76 11.97 27.4 11.53C28.29 11.62 29.18 11.8 29.98 11.97C29.71 12.77 29.45 13.57 29.09 14.37C28.82 13.93 28.55 13.39 28.29 12.95ZM20.38 6.82C21.09 6.38 22.33 6.82 23.75 7.89C24.11 8.16 24.37 8.42 24.73 8.78C24.11 9.49 23.49 10.2 22.87 11.09C21.8 11.18 20.83 11.36 19.94 11.53C19.32 9.22 19.41 7.36 20.38 6.82ZM15.76 14.81C15.76 13.66 17.36 12.68 19.67 12.06C19.94 12.95 20.29 13.84 20.74 14.81C20.3 15.79 19.94 16.67 19.67 17.56C17.36 16.95 15.76 15.97 15.76 14.81ZM23.76 21.74C22.34 22.89 21.1 23.25 20.39 22.81C19.68 22.37 19.41 21.12 19.68 19.35C19.77 18.91 19.86 18.46 19.95 18.02C20.84 18.2 21.81 18.38 22.88 18.46C23.5 19.35 24.12 20.06 24.74 20.77C24.38 21.12 24.11 21.47 23.76 21.74ZM30.33 19.34C30.6 21.12 30.33 22.36 29.62 22.8C28.91 23.24 27.67 22.8 26.25 21.73C25.89 21.46 25.63 21.2 25.27 20.84C25.89 20.13 26.51 19.42 27.13 18.53C28.2 18.44 29.17 18.26 30.06 18.09C30.15 18.46 30.33 18.9 30.33 19.34ZM30.33 17.57C30.06 16.68 29.71 15.71 29.26 14.82C29.7 13.84 30.06 12.96 30.33 12.07C32.64 12.69 34.24 13.67 34.24 14.82C34.24 15.97 32.64 16.95 30.33 17.57Z" fill="#444444" stroke="#444444" stroke-width="0.5" stroke-miterlimit="10"/>
<path d="M24.73 16.4C25.5915 16.4 26.29 15.7016 26.29 14.84C26.29 13.9784 25.5915 13.28 24.73 13.28C23.8684 13.28 23.17 13.9784 23.17 14.84C23.17 15.7016 23.8684 16.4 24.73 16.4Z" fill="#444444" stroke="#444444" stroke-width="0.5" stroke-miterlimit="10"/>
<path d="M36.57 24.17H37.03C37.05 24.17 37.07 24.15 37.07 24.13V23.94C37.07 23.92 37.09 23.9 37.11 23.9H37.3C37.32 23.9 37.34 23.88 37.34 23.86V23.4C37.34 23.38 37.32 23.36 37.3 23.36H37.11C37.09 23.36 37.07 23.34 37.07 23.32V22.86C37.07 22.84 37.05 22.82 37.03 22.82H36.84C36.82 22.82 36.8 22.8 36.8 22.78V22.31C36.8 22.29 36.78 22.27 36.76 22.27H36.57C36.55 22.27 36.53 22.25 36.53 22.23V21.77C36.53 21.75 36.55 21.73 36.57 21.73H37.58C37.6 21.73 37.62 21.71 37.62 21.69V21.5C37.62 21.48 37.6 21.46 37.58 21.46H37.39C37.37 21.46 37.35 21.44 37.35 21.42V21.23C37.35 21.21 37.33 21.19 37.31 21.19H37.12C37.1 21.19 37.08 21.17 37.08 21.15V20.96C37.08 20.94 37.06 20.92 37.04 20.92H36.85C36.83 20.92 36.81 20.9 36.81 20.88V20.68C36.81 20.66 36.79 20.64 36.77 20.64H36.58C36.56 20.64 36.54 20.62 36.54 20.6V20.41C36.54 20.39 36.52 20.37 36.5 20.37H36.3C36.28 20.37 36.26 20.35 36.26 20.33V20.14C36.26 20.12 36.24 20.1 36.22 20.1H36.03C36.01 20.1 35.99 20.08 35.99 20.06V19.87C35.99 19.85 35.97 19.83 35.95 19.83H35.76C35.74 19.83 35.72 19.81 35.72 19.79V19.6C35.72 19.58 35.7 19.56 35.68 19.56H35.49C35.47 19.56 35.45 19.54 35.45 19.52V19.33C35.45 19.31 35.43 19.29 35.41 19.29H35.22C35.2 19.29 35.18 19.27 35.18 19.25V19.05C35.18 19.03 35.16 19.01 35.14 19.01H34.95C34.93 19.01 34.91 18.99 34.91 18.97V18.78C34.91 18.76 34.89 18.74 34.87 18.74H34.68C34.66 18.74 34.64 18.72 34.64 18.7V18.51C34.64 18.49 34.62 18.47 34.6 18.47H34.4C34.38 18.47 34.36 18.49 34.36 18.51V23.05C34.36 23.07 34.38 23.09 34.4 23.09H34.59C34.61 23.09 34.63 23.07 34.63 23.05V22.86C34.63 22.84 34.65 22.82 34.67 22.82H34.86C34.88 22.82 34.9 22.8 34.9 22.78V22.59C34.9 22.57 34.92 22.55 34.94 22.55H35.13C35.15 22.55 35.17 22.53 35.17 22.51V22.31C35.17 22.29 35.19 22.27 35.21 22.27H35.67C35.69 22.27 35.71 22.29 35.71 22.31V22.78C35.71 22.8 35.73 22.82 35.75 22.82H35.94C35.96 22.82 35.98 22.84 35.98 22.86V23.32C35.98 23.34 36 23.36 36.02 23.36H36.21C36.23 23.36 36.25 23.38 36.25 23.4V23.86C36.25 23.88 36.27 23.9 36.29 23.9H36.48C36.5 23.9 36.52 23.92 36.52 23.94V24.13C36.53 24.16 36.55 24.17 36.57 24.17Z" fill="#444444"/>
<path d="M45.38 34.39H31.16L30.41 31.67C30.26 31.12 29.75 30.73 29.18 30.73H20.19C19.62 30.73 19.11 31.12 18.96 31.67L18.21 34.39H4.59998C4.13998 35.75 4.59998 34.39 4.13998 35.75H45.86L45.38 34.39ZM19.62 34.39L20.25 32.09H29.12L29.75 34.39H19.62Z" fill="#444444"/>
<path d="M49.14 35.1C49.14 35.09 49.14 35.09 49.14 35.08C49.14 35.05 49.13 35.02 49.13 35V34.99C49.12 34.97 49.12 34.94 49.11 34.92C49.11 34.91 49.11 34.91 49.1 34.9C49.09 34.88 49.08 34.86 49.07 34.84V34.83L45.29 27.37V2.81C45.29 2.05 44.68 1.44 43.92 1.44H6.07999C5.31999 1.44 4.70999 2.05 4.70999 2.81V27.36L0.929985 34.82V34.83C0.919985 34.85 0.909985 34.87 0.899985 34.89C0.899985 34.9 0.899985 34.9 0.889985 34.91C0.879985 34.93 0.869985 34.96 0.869985 34.98V34.99C0.859985 35.02 0.859985 35.04 0.859985 35.07C0.859985 35.08 0.859985 35.08 0.859985 35.09C0.859985 35.1 0.859985 35.12 0.859985 35.13V36.92C0.859985 37.82 1.58999 38.55 2.48999 38.55H47.53C48.43 38.55 49.16 37.82 49.16 36.92V35.13C49.14 35.12 49.14 35.11 49.14 35.1ZM6.12999 2.85H43.87V26.82H6.12999V2.85ZM47.73 36.93C47.73 37.05 47.64 37.14 47.52 37.14H2.47999C2.35999 37.14 2.26999 37.04 2.26999 36.93V35.84C2.78999 34.27 2.26999 35.84 2.78999 34.27L5.84999 28.23H44.14L47.28 34.43C47.72 35.84 47.25 34.31 47.28 34.43C47.28 34.43 47.28 34.43 47.72 35.84C47.72 35.84 47.28 34.43 47.72 35.84V36.93H47.73Z" fill="#444444" stroke="#444444" stroke-miterlimit="10"/>
<path d="M8.81999 6.65C9.31153 6.65 9.70999 6.25153 9.70999 5.76C9.70999 5.26847 9.31153 4.87 8.81999 4.87C8.32846 4.87 7.92999 5.26847 7.92999 5.76C7.92999 6.25153 8.32846 6.65 8.81999 6.65Z" fill="#444444"/>
<path d="M11.72 6.65C12.2115 6.65 12.61 6.25153 12.61 5.76C12.61 5.26847 12.2115 4.87 11.72 4.87C11.2285 4.87 10.83 5.26847 10.83 5.76C10.83 6.25153 11.2285 6.65 11.72 6.65Z" fill="#444444"/>
<path d="M14.63 6.65C15.1215 6.65 15.52 6.25153 15.52 5.76C15.52 5.26847 15.1215 4.87 14.63 4.87C14.1385 4.87 13.74 5.26847 13.74 5.76C13.74 6.25153 14.1385 6.65 14.63 6.65Z" fill="#444444"/>
</svg>
