<?xml version="1.0" encoding="utf-8"?>
<!-- Generator: Adobe Illustrator 24.0.1, SVG Export Plug-In . SVG Version: 6.00 Build 0)  -->
<svg version="1.1" id="Layer_1" xmlns="http://www.w3.org/2000/svg" xmlns:xlink="http://www.w3.org/1999/xlink" x="0px" y="0px"
	 viewBox="0 0 50 50" style="enable-background:new 0 0 50 50;" xml:space="preserve">
<style type="text/css">
	.st0{fill:#E56060;}
	.st1{fill:#FF6B6B;}
	.st2{fill:#464646;}
</style>
<path class="st0" d="M49,23.7l-2,0.7l-9.7,3.5l-2,0.7L34,29.1l-3.1,1.1l-7,2.5L19,34.6L12.3,37l-2.2,0.8c0.1-1.1,0.3-2.2,0.5-3.3
	c0.1-0.5,0.2-0.9,0.3-1.4l0,0c-0.1,0-0.1-0.1-0.2-0.1c-2-0.6-3.9-1.3-5.6-2.3C3.9,30,2.8,29.2,2,28.1c-1-1.3-1.3-2.8-1-4.2
	c0.1-0.3,0.2-0.5,0.3-0.8l4-1.5l6.4-2.3l2-0.7l1.3-0.5l8.2-3l3.6-1.3l2.1-0.8l9-3.3l2-0.7c0,0.2,0,0.5,0.1,0.7l0,0
	c0.1,1.9-0.1,3.8-0.5,5.7c-0.1,0.5-0.2,0.9-0.3,1.4c0.1,0,0.2,0.1,0.3,0.1c1.9,0.6,3.8,1.3,5.5,2.3c1.2,0.7,2.3,1.5,3.2,2.7
	C48.5,22.5,48.8,23.1,49,23.7z"/>
<path class="st1" d="M39.9,9.7L39.9,9.7l-2.1,0.8l-8.6,3.1l-2.1,0.8L25,15.2l-7.3,2.6l-4,1.4l-2,0.7l-8,2.9l-2.9,1.1
	c0.1-0.3,0.2-0.5,0.3-0.8c0.2-0.3,0.3-0.7,0.6-1c0.6-0.9,1.5-1.6,2.4-2.2c1.7-1.2,3.5-1.9,5.5-2.6c0.4-0.1,0.9-0.3,1.3-0.4
	c0-0.1,0-0.1,0-0.2c-0.6-2.3-0.9-4.6-0.8-6.9c0.1-1.1,0.2-2.2,0.7-3.2c0.6-1.4,1.5-2.4,2.9-2.9c0.3-0.1,0.6-0.2,0.8-0.2h1.8h0.1
	c1,0.2,2,0.5,3,1c1.7,0.8,3.2,2,4.6,3.2c0.4,0.3,0.8,0.7,1.1,1c0.1-0.1,0.1-0.1,0.2-0.2c1-1,2.1-1.9,3.2-2.7
	c1.3-0.9,2.7-1.7,4.2-2.2c0.4-0.1,0.8-0.2,1.1-0.3h1.8c0,0,0,0,0.1,0c1.5,0.3,2.5,1.1,3.3,2.4c0.6,1,0.9,2.1,1,3.2
	C39.9,9.3,39.9,9.5,39.9,9.7z"/>
<g>
	<path class="st2" d="M29.3,25c0,2.4-1.9,4.3-4.3,4.3s-4.3-1.9-4.3-4.3s1.9-4.3,4.3-4.3S29.3,22.6,29.3,25z"/>
</g>
<g>
	<path class="st2" d="M49.5,23.5c-0.2-0.6-0.5-1.3-1-1.9c-0.8-1-1.9-1.9-3.3-2.8c-1.6-0.9-3.3-1.6-5.5-2.3c0-0.1,0-0.1,0-0.2
		c0.1-0.3,0.1-0.5,0.2-0.8c0.5-2.3,0.6-4.1,0.5-5.9c0-0.3,0-0.5-0.1-0.7c-0.1-1.3-0.5-2.4-1-3.4c-0.8-1.4-2-2.3-3.5-2.6l0,0
		c0,0-1.9-0.2-3.3,0.3c-1.4,0.4-2.8,1.1-4.4,2.2C27.1,6.2,26,7,25,8c-0.3-0.3-0.5-0.5-0.8-0.7c-1.7-1.5-3.1-2.5-4.7-3.3
		c-1.1-0.6-2.1-0.9-3.1-1.1h-0.1h-0.1c0,0-1.4-0.1-2.7,0.3C12,3.8,11,4.8,10.3,6.4c-0.4,1-0.6,2-0.7,3.3c-0.1,2.5,0.3,4.9,0.8,6.8
		l0,0c-0.3,0.1-0.6,0.2-0.9,0.3c-2.3,0.8-4.1,1.6-5.6,2.6c-1.1,0.7-1.9,1.5-2.5,2.4c-0.3,0.4-0.5,0.7-0.6,1.1
		c-0.1,0.3-0.2,0.6-0.3,0.9c-0.4,1.6,0,3.2,1.1,4.6c0.8,1,1.8,1.9,3.3,2.8c1.6,0.9,3.3,1.7,5.6,2.3c-0.1,0.3-0.2,0.6-0.2,1
		c-0.3,1.3-0.4,2.4-0.5,3.4c-0.1,0.9-0.1,1.7,0,2.5c0.1,1.7,0.5,3.1,1.1,4.2c0.8,1.3,2,2.2,3.5,2.5l0,0c0,0,2.5,0,2.6,0
		c0.3-0.1,0.6-0.1,0.9-0.2c1.4-0.4,2.7-1.1,4.3-2.3c1-0.7,2-1.6,3-2.5c0.1,0.1,0.2,0.2,0.3,0.3c1.8,1.7,3.5,2.9,5.1,3.7
		c1.1,0.5,2.1,0.9,3.1,1.1l1.1,0.1c0.1,0,0.2,0,0.2,0l1.2-0.1c0.4-0.1,0.4-0.1,0.6-0.2c1.5-0.5,2.5-1.5,3.2-3.1
		c0.4-1,0.7-2.1,0.7-3.4c0.2-2.5-0.3-4.9-0.7-6.8c0.2-0.1,0.5-0.1,0.7-0.2c2.3-0.7,4.1-1.6,5.6-2.6c1.2-0.8,2-1.5,2.6-2.4
		C49.7,26.8,50,25.1,49.5,23.5z M38.8,31c-0.1,0-0.2,0-0.3,0.1c-0.3-0.9-0.6-1.7-0.9-2.5c-0.1-0.2-0.2-0.4-0.3-0.7
		c-0.4-0.9-0.8-1.8-1.1-2.7c0-0.1,0-0.2,0-0.3c0.9-1.9,1.6-3.8,2.3-5.8c0-0.1,0-0.1,0-0.1c0.5,0.2,1.1,0.3,1.6,0.5
		c1.6,0.5,3.2,1.2,4.6,2.2c0.7,0.5,1.3,1,1.8,1.7c0.3,0.4,0.4,0.7,0.5,1.1c0.2,0.8,0,1.5-0.5,2.3c-0.6,0.9-1.4,1.5-2.3,2.1
		C42.5,29.8,40.7,30.5,38.8,31z M37.3,42.6c-0.4,0.9-1,1.6-2,1.8c-0.7,0.2-1.4,0.1-2-0.1c-1.3-0.4-2.5-1.1-3.6-1.8
		c-1.1-0.8-2.2-1.7-3.2-2.6c0,0,0,0-0.1-0.1c0.6-0.7,1.2-1.4,1.8-2.1c0.8-0.9,1.5-1.9,2.2-2.8c0.1-0.1,0.2-0.2,0.3-0.2
		c2-0.2,4.1-0.5,6.1-0.9c0.1,0,0.2,0,0.2,0.1c0.5,1.9,0.8,3.8,0.8,5.7C37.8,40.6,37.7,41.6,37.3,42.6z M22.3,40.9
		C21,42,19.6,43,18.1,43.8c-0.8,0.4-1.7,0.7-2.6,0.7c-1.2,0.1-2.1-0.5-2.7-1.6c-0.4-0.8-0.6-1.7-0.6-2.6c-0.1-1.1,0-2.2,0.1-3.3
		s0.4-2.2,0.6-3.3c0-0.1,0.1-0.1,0.2-0.1c1.2,0.2,2.5,0.5,3.7,0.7c0.7,0.1,1.5,0.2,2.2,0.3c0,0,0,0,0.1,0c0.2,0,0.4,0.1,0.5,0.3
		c1.2,1.6,2.4,3.2,3.8,4.7c0,0,0.1,0.1,0.2,0.2C23.1,40.1,22.7,40.5,22.3,40.9z M11.5,31.1c-1.3-0.4-2.6-0.8-3.8-1.4
		c-1.1-0.5-2.2-1.1-3.1-1.9c-0.5-0.4-1-0.9-1.3-1.5c-0.5-0.9-0.5-1.8,0-2.7c0.2-0.3,0.4-0.6,0.6-0.8c0.4-0.5,0.9-0.8,1.4-1.2
		c0,0,0,0,0.1,0c1.4-1,3-1.6,4.6-2.2c0.5-0.2,1.1-0.3,1.6-0.5c0,0.1,0,0.1,0.1,0.2c0,0.1,0,0.1,0.1,0.2c0.1,0.2,0.1,0.4,0.2,0.6
		c0.5,1.7,1.2,3.3,1.9,4.9c0,0.1,0.1,0.2,0,0.3c-1,1.9-1.7,3.9-2.3,5.9C11.5,31,11.5,31,11.5,31.1z M12.7,7.4
		C13,6.6,13.5,6,14.3,5.7c0.7-0.3,1.4-0.2,2.1-0.1c1.2,0.3,2.3,0.9,3.4,1.5c1.3,0.9,2.6,1.9,3.7,3c0,0,0,0,0.1,0.1l-0.1,0.1
		c-1.4,1.5-2.7,3.1-3.9,4.8c-0.1,0.1-0.2,0.2-0.4,0.2c-1.5,0.2-3,0.4-4.5,0.6c-0.5,0.1-1,0.2-1.5,0.3c-0.1,0-0.1,0-0.2,0
		c-0.1-0.6-0.3-1.1-0.4-1.7c-0.3-1.4-0.5-2.7-0.4-4.1C12.2,9.5,12.3,8.4,12.7,7.4z M28,8.8c1.3-1.1,2.6-2,4.1-2.7
		c0.8-0.4,1.7-0.7,2.7-0.6c0.9,0,1.6,0.4,2.1,1.2c0.5,0.7,0.7,1.5,0.8,2.3c0.1,0.3,0.1,0.5,0.1,0.8c0,0.2,0,0.5,0,0.7
		c0,1-0.1,2-0.2,2.9c-0.1,0.9-0.4,1.8-0.5,2.8c0,0.2-0.1,0.2-0.2,0.2c-2-0.5-4-0.8-6-0.9c-0.2,0-0.3-0.1-0.4-0.2
		c-0.4-0.5-0.8-1-1.2-1.5c-0.1-0.2-0.3-0.4-0.4-0.5c-0.7-0.9-1.4-1.8-2.2-2.6c0-0.1-0.1-0.1-0.2-0.2C27,9.8,27.5,9.3,28,8.8z
		 M17.9,32.4c-1.5-0.3-2.9-0.5-4.4-0.8c0.5-1.4,1-2.8,1.5-4.2C16,29.1,16.9,30.7,17.9,32.4z M13.8,19.2c-0.1-0.3-0.2-0.5-0.2-0.6
		s0-0.2-0.1-0.3c0.5-0.1,0.9-0.2,1.4-0.3c1-0.2,1.9-0.3,2.9-0.5c0,0.1-0.1,0.1-0.1,0.2c-0.9,1.6-1.8,3.1-2.7,4.7
		C14.9,22.3,14.2,20.4,13.8,19.2z M16.3,25.2c-0.1-0.1,0-0.2,0-0.3c1.2-2.5,2.6-5,4.2-7.3c0.1-0.1,0.2-0.2,0.3-0.2
		c1.4,0,2.8-0.1,4.2-0.2c1.4,0.1,2.8,0.1,4.1,0.2c0.2,0,0.4,0.1,0.5,0.3c1.5,2.3,2.9,4.7,4.2,7.2c0.1,0.1,0.1,0.2,0,0.4
		C33,27,32,28.7,31,30.4c-0.4,0.7-0.9,1.5-1.4,2.2c-0.1,0.1-0.2,0.2-0.3,0.2c-1.7,0.1-3.5,0.2-5.2,0.1c-0.2,0-0.5,0-0.7,0
		c-0.8,0-1.7-0.1-2.5-0.1c-0.1,0-0.2-0.1-0.3-0.2C18.9,30.1,17.5,27.7,16.3,25.2z M34,29.1c0.3-0.5,0.6-1.1,0.9-1.7
		c0.1,0.4,0.3,0.8,0.4,1.2c0.4,1,0.7,2,1.1,3c-1.5,0.3-2.9,0.5-4.4,0.8C32.8,31.3,33.4,30.2,34,29.1z M35,22.5
		c-0.9-1.7-1.9-3.3-2.8-4.9c1.5,0.3,2.9,0.5,4.4,0.8C36,19.8,35.5,21.1,35,22.5z M26.8,13.8c0.1,0.2,0.3,0.4,0.4,0.5
		c0.2,0.3,0.4,0.5,0.7,0.8h-5.7c0.9-1.2,1.9-2.3,2.8-3.4C25.6,12.4,26.2,13.1,26.8,13.8z M22.2,34.8h5.7c-1,1.2-1.9,2.3-2.9,3.4
		C24,37.1,23.1,36,22.2,34.8z"/>
</g>
</svg>
