<svg xmlns="http://www.w3.org/2000/svg" id="Layer_1" x="0" y="0" version="1.1" viewBox="0 0 50 50" xml:space="preserve"><style>.st2{fill:none;stroke:#444;stroke-linecap:round;stroke-linejoin:round;stroke-miterlimit:10}.st3{fill:#444}.st5{fill:#414141}</style><path fill="#c3ff68" d="M45.6 6.1l-42.5.4c-1.4 0-1.1 8-1.1 9.4l-.2 5.9-.5 10.6 1.3 12.1 12.8.6 33.1-11.8V13.1c.3-5.7-1.5-7-2.9-7z"/><path fill="none" stroke="#414141" stroke-linecap="round" stroke-linejoin="round" stroke-miterlimit="10" d="M1.8 13.9h46.4"/><path d="M16.3 29.5s-1.3 6.5 3 8.1c4.3 1.6 8.1-5.6 8.2-8.2" class="st2"/><circle cx="27.7" cy="28.2" r="1.9" class="st3"/><path d="M26.1 21.7s-4.8-4.5-8.5-1.7.4 9.6 2.5 11" class="st2"/><ellipse cx="21.2" cy="31.8" class="st3" rx="1.8" ry="1.9" transform="rotate(-82.253 21.172 31.805)"/><path d="M28.1 34.1s6.3-1.9 5.8-6.5-8.6-4.5-10.9-3.4" class="st2"/><ellipse cx="21.8" cy="24.7" class="st3" rx="1.9" ry="1.8" transform="rotate(-52.063 21.765 24.726)"/><path fill="none" stroke="#414141" stroke-linecap="round" stroke-linejoin="round" stroke-miterlimit="10" stroke-width="2.5" d="M37 43.9H4.4c-1.5 0-2.6-1.2-2.6-2.6V8.7c0-1.5 1.2-2.6 2.6-2.6h41.1c1.5 0 2.6 1.2 2.6 2.6v25.8"/><g><circle cx="6.8" cy="10.7" r="1.3" class="st5"/><circle cx="10.7" cy="10.7" r="1.3" class="st5"/><circle cx="14.7" cy="10.7" r="1.3" class="st5"/></g></svg>