<svg xmlns="http://www.w3.org/2000/svg" id="Layer_1" x="0" y="0" version="1.1" viewBox="0 0 50 50" xml:space="preserve"><style>.st2{fill:#444}</style><path fill="#e589ef" d="M47.2 26.6l.2 3.9L1.9 47l.4-8.2.4-4.7 45.4-16.5-.8 3.3z"/><path fill="#f799ff" d="M47.5 11.5l-.8 7L2.2 34.7l.3-8.9.4-4L47.8 5.5z"/><path d="M32.8 49.1H2c-.7 0-1.2-.6-1.2-1.2V2.1C.8 1.4 1.4.9 2 .9h46c.7 0 1.2.6 1.2 1.2v35.5c0 .7-.6 1.2-1.2 1.2s-1.2-.6-1.2-1.2V3.4H3.2v43.3h29.6c.7 0 1.2.6 1.2 1.2s-.5 1.2-1.2 1.2z" class="st2"/><path d="M35.3 24.1c-.2-.2-.5-.4-.8-.4.7-.9.5-2.2-.3-3-.4-.4-.9-.6-1.4-.6.3-.8.1-1.8-.6-2.4-.7-.6-1.7-.8-2.5-.4-.1-.5-.3-1-.7-1.3-.4-.4-1-.6-1.6-.6-.6 0-1.2.3-1.6.7l-5.7 6.1c-.1.1-.2.1-.3.1-.1 0-.2 0-.3-.1l-.1-.1-1-2.2c-.4-.7-1.1-1.2-1.9-1.2-1.1 0-2 .9-2 2l-.1 4.3c-.1 2.4.9 4.8 2.7 6.4l1.2 1.1c1.6 1.4 3.6 2.2 5.7 2.2h.4c2.2-.1 4.3-1 5.8-2.7l5-5.5c.3-.4.5-.8.5-1.3.1-.3-.1-.7-.4-1.1zm-.6 1.9l-5.1 5.5c-1.3 1.5-3.2 2.3-5.1 2.4-2 .1-3.9-.6-5.3-2L18 30.8c-1.6-1.4-2.4-3.5-2.4-5.6l.1-4.3c0-.5.4-1 1-1 .4 0 .8.2 1 .6l1 2.2c.1.2.2.3.3.4.6.5 1.4.5 1.9-.1l5.7-6.1c.2-.2.5-.4.9-.4.3 0 .7.1.9.3.2.2.4.5.4.9 0 .3-.1.7-.3.9l-.6.7-3.6 3.7c-.2.2-.2.5 0 .7.2.2.5.2.7 0l3.6-3.9 1.2-1.3c.5-.5 1.3-.5 1.8-.1.5.5.5 1.3.1 1.8l-.7.7-.6.6-3.5 3.9c-.2.2-.2.5 0 .7.1.1.2.1.3.1.1 0 .3 0 .4-.2l3.6-3.9.6-.6c.5-.5 1.3-.5 1.8-.1.5.5.5 1.3.1 1.8l-.8.9-.4.4-3 3.2c-.2.2-.2.5 0 .7.1.1.2.1.3.1.1 0 .3 0 .4-.2l3-3.2.3-.3c.3-.3.8-.3 1.1 0 .2.2.3.3.3.6s-.1.5-.2.6z" class="st2"/><path d="M32.8 24.2l-.4.4.4-.4c-.1 0 0 0 0 0zM10.3 28c-.1 0-.3 0-.4-.1l-2.5-2.5c-.2-.2-.2-.5 0-.7l2.5-2.5c.2-.2.5-.2.7 0s.2.5 0 .7L8.5 25l2.1 2.1c.2.2.2.5 0 .7-.1.1-.2.2-.3.2zm28.8 0c-.1 0-.3 0-.4-.1-.2-.2-.2-.5 0-.7l2.1-2.1-2.1-2.1c-.2-.2-.2-.5 0-.7s.5-.2.7 0l2.5 2.5c.2.2.2.5 0 .7L39.4 28c0-.1-.1 0-.3 0z" class="st2"/></svg>