<svg xmlns="http://www.w3.org/2000/svg" viewBox="0 0 50 50"><path fill="#c3ff68" d="M11.87 43.61l1.14-4.59 8.57-.02.36-4.91-14.1.46c-2.42 0-4.78-1.67-4.78-4.09V8.01a4.39 4.39 0 014.39-4.39h35.11a4.39 4.39 0 014.39 4.39v22.22"/><g fill="none" stroke="#444" stroke-linecap="round" stroke-miterlimit="10"><ellipse cx="29.8" cy="16.67" rx="8" ry="3.06" transform="rotate(-29.31 29.794 16.677)"/><ellipse cx="29.8" cy="16.68" rx="8" ry="3.06" transform="rotate(-89.31 29.8 16.673)"/><ellipse cx="29.8" cy="16.67" rx="3.06" ry="8" transform="rotate(-59.31 29.8 16.675)"/></g><circle cx="29.8" cy="16.68" r="1.11" fill="#444"/><path fill="none" stroke="#444" stroke-linecap="round" stroke-linejoin="round" stroke-width=".5" d="M3.05 12.71h16.73m19.87 0h7.29"/><path fill="none" stroke="#444" stroke-linecap="round" stroke-linejoin="round" stroke-width="1.49" d="M9.15 8.88c-.16 0-.28.13-.28.28s.13.28.28.28.28-.13.28-.28-.13-.28-.28-.28m2.85 0c-.16 0-.28.13-.28.28s.13.28.28.28.28-.13.28-.28-.13-.28-.28-.28m2.85 0c-.16 0-.28.13-.28.28s.13.28.28.28.28-.13.28-.28-.13-.28-.28-.28"/><path fill="none" stroke="#444" stroke-linecap="round" stroke-linejoin="round" stroke-width="2.5" d="M20.87 34.55H7.44a4.39 4.39 0 01-4.39-4.39V8.32a4.39 4.39 0 014.39-4.39h35.11a4.39 4.39 0 014.39 4.39v21.74"/><path fill="none" stroke="#444" stroke-linecap="round" stroke-linejoin="round" d="M23.86 26.76h11.55c1.06 0 1.92.86 1.92 1.92v17.69h-15.4V28.68c0-1.06.86-1.92 1.92-1.92zm13.47 11.92h7.7c1.06 0 1.92.86 1.92 1.92v5.77h-9.62v-7.7zm-23.1 0h7.7v7.7h-9.62v-5.77c0-1.06.86-1.92 1.92-1.92z"/></svg>