<?xml version="1.0" encoding="utf-8"?>
<!-- Generator: Adobe Illustrator 22.0.1, SVG Export Plug-In . SVG Version: 6.00 Build 0)  -->
<svg version="1.0" id="Layer_1" xmlns="http://www.w3.org/2000/svg" xmlns:xlink="http://www.w3.org/1999/xlink" x="0px" y="0px"
	 viewBox="0 0 50 50" enable-background="new 0 0 50 50" xml:space="preserve">
<g>
	<path fill="#E589EF" d="M12.195,43.445l34.474-12.547c0.511-1.88,0.788-3.856,0.788-5.898C47.457,12.597,37.403,2.543,25,2.543
		S2.543,12.597,2.543,25C2.543,32.642,6.363,39.389,12.195,43.445z"/>
</g>
<g>
	<path fill="#F799FF" d="M37.307,6.164c-3.518-2.287-7.713-3.621-12.222-3.621c-10.117,0-18.668,6.69-21.478,15.887L37.307,6.164z"
		/>
</g>
<g>
	<path fill="#444444" d="M25,48.5C12.042,48.5,1.5,37.958,1.5,25S12.042,1.5,25,1.5S48.5,12.042,48.5,25
		c0,2.093-0.275,4.169-0.818,6.171c-0.151,0.556-0.726,0.886-1.28,0.733c-0.556-0.151-0.884-0.724-0.734-1.279
		c0.495-1.824,0.746-3.717,0.746-5.625c0-11.808-9.606-21.414-21.414-21.414C13.192,3.586,3.586,13.192,3.586,25
		S13.192,46.414,25,46.414c0.576,0,1.043,0.467,1.043,1.043S25.576,48.5,25,48.5z"/>
</g>
<g>
	<g>
		<circle fill="#444444" cx="25" cy="25" r="2.312"/>
		
			<ellipse fill="none" stroke="#444444" stroke-width="0.8213" stroke-linecap="round" stroke-miterlimit="10" cx="25" cy="25" rx="12.417" ry="4.747"/>
		
			<ellipse transform="matrix(0.5 -0.866 0.866 0.5 -9.1516 34.15)" fill="none" stroke="#444444" stroke-width="0.8213" stroke-linecap="round" stroke-miterlimit="10" cx="24.999" cy="25.001" rx="12.417" ry="4.747"/>
		
			<ellipse transform="matrix(0.866 -0.5 0.5 0.866 -9.1505 15.8494)" fill="none" stroke="#444444" stroke-width="0.8213" stroke-linecap="round" stroke-miterlimit="10" cx="24.999" cy="24.999" rx="4.747" ry="12.417"/>
	</g>
</g>
<g>
	<g>
		<path fill="#46B8B0" d="M12.281,43.321l34.243-12.463c0.507-1.867,0.783-3.83,0.783-5.858c0-12.32-9.987-22.307-22.307-22.307
			S2.693,12.681,2.693,25C2.693,32.591,6.488,39.293,12.281,43.321z"/>
	</g>
	<g>
		<path fill="#4ECDC4" d="M37.225,6.29c-3.495-2.272-7.661-3.597-12.14-3.597c-10.049,0-18.543,6.646-21.334,15.781L37.225,6.29z"/>
	</g>
	<g>
		<circle fill="#444444" cx="25" cy="25" r="2.332"/>
		<path fill="#444444" d="M32.236,20.822c0.906-3.366,0.677-6.01-0.846-6.889c-1.201-0.695-2.998-0.16-5.051,1.507
			c-0.446,0.362-0.894,0.775-1.339,1.221c-0.445-0.446-0.893-0.859-1.339-1.221c-2.052-1.667-3.846-2.202-5.05-1.507
			c-1.523,0.879-1.752,3.523-0.846,6.889c-3.368,0.898-5.543,2.419-5.543,4.177c0,1.76,2.18,3.282,5.554,4.181
			c-0.162,0.605-0.295,1.195-0.385,1.759c-0.417,2.611,0.016,4.432,1.22,5.127c0.344,0.198,0.736,0.297,1.169,0.297
			c1.081,0,2.415-0.613,3.881-1.804c0.446-0.362,0.894-0.775,1.339-1.221c0.445,0.446,0.893,0.859,1.339,1.221
			c1.467,1.19,2.8,1.804,3.882,1.804c0.433,0,0.825-0.099,1.169-0.297c1.204-0.695,1.638-2.516,1.22-5.127
			c-0.09-0.564-0.223-1.154-0.385-1.759c3.375-0.898,5.555-2.42,5.555-4.181C37.779,23.242,35.604,21.721,32.236,20.822z
			 M26.654,15.828c1.364-1.108,2.609-1.689,3.57-1.689c0.344,0,0.651,0.075,0.915,0.227c1.293,0.747,1.422,3.219,0.586,6.333
			c-1.18-0.283-2.487-0.495-3.892-0.616c-0.796-1.137-1.634-2.169-2.485-3.064C25.783,16.584,26.22,16.182,26.654,15.828z
			 M28.931,27.27c-0.435,0.754-0.893,1.476-1.367,2.163c-0.83,0.068-1.687,0.106-2.564,0.106c-0.877,0-1.734-0.038-2.565-0.106
			c-0.473-0.687-0.932-1.41-1.367-2.163c-0.438-0.759-0.834-1.521-1.19-2.274c0.359-0.754,0.755-1.512,1.19-2.265
			c0.435-0.754,0.894-1.476,1.367-2.164c0.831-0.068,1.688-0.106,2.565-0.106c0.877,0,1.734,0.038,2.564,0.106
			c0.473,0.688,0.932,1.41,1.367,2.164c0.435,0.753,0.832,1.511,1.19,2.265C29.765,25.749,29.369,26.51,28.931,27.27z
			 M30.392,25.588c0.494,1.098,0.899,2.177,1.206,3.212c-1.038,0.251-2.179,0.444-3.389,0.57c0.398-0.595,0.786-1.21,1.156-1.85
			C29.739,26.871,30.077,26.227,30.392,25.588z M25,32.621c-0.746-0.784-1.481-1.679-2.187-2.658
			c0.711,0.047,1.438,0.076,2.187,0.076c0.749,0,1.476-0.029,2.187-0.076C26.481,30.943,25.746,31.837,25,32.621z M21.791,29.37
			c-1.21-0.126-2.351-0.319-3.389-0.57c0.306-1.035,0.712-2.115,1.205-3.213c0.315,0.639,0.653,1.283,1.028,1.932
			C21.005,28.16,21.393,28.775,21.791,29.37z M19.611,24.407c-0.494-1.107-0.896-2.188-1.198-3.21
			c1.035-0.25,2.173-0.442,3.379-0.568c-0.398,0.595-0.786,1.21-1.156,1.851C20.266,23.121,19.927,23.765,19.611,24.407z M25,17.378
			c0.746,0.784,1.48,1.678,2.187,2.658C26.476,19.99,25.749,19.96,25,19.96c-0.749,0-1.476,0.03-2.187,0.076
			C23.519,19.057,24.254,18.163,25,17.378z M29.364,22.48c-0.37-0.64-0.758-1.256-1.156-1.851c1.206,0.126,2.343,0.318,3.378,0.567
			c-0.302,1.021-0.704,2.102-1.198,3.209C30.073,23.764,29.734,23.12,29.364,22.48z M18.86,14.366
			c0.997-0.575,2.631-0.043,4.485,1.462c0.435,0.353,0.871,0.756,1.306,1.191c-0.852,0.894-1.689,1.927-2.485,3.064
			c-1.405,0.121-2.712,0.332-3.892,0.616C17.438,17.586,17.568,15.113,18.86,14.366z M12.721,25c0-1.493,2.077-2.842,5.191-3.675
			c0.344,1.164,0.815,2.401,1.413,3.679c-0.584,1.254-1.059,2.491-1.407,3.672C14.801,27.843,12.721,26.494,12.721,25z
			 M23.346,34.171c-1.854,1.506-3.489,2.039-4.485,1.462c-0.997-0.575-1.353-2.258-0.976-4.614c0.088-0.551,0.218-1.129,0.377-1.721
			c1.183,0.285,2.494,0.497,3.904,0.619c0.796,1.137,1.634,2.17,2.485,3.064C24.217,33.416,23.78,33.818,23.346,34.171z
			 M32.116,31.019c0.376,2.356,0.021,4.039-0.977,4.614c-1.002,0.576-2.634,0.043-4.485-1.462c-0.435-0.353-0.871-0.756-1.306-1.191
			c0.852-0.894,1.689-1.927,2.485-3.064c1.41-0.122,2.722-0.334,3.905-0.619C31.898,29.89,32.028,30.467,32.116,31.019z
			 M32.082,28.676c-0.348-1.181-0.823-2.419-1.407-3.672c0.598-1.278,1.068-2.515,1.413-3.679c3.115,0.833,5.192,2.182,5.192,3.675
			C37.279,26.494,35.2,27.844,32.082,28.676z"/>
		<path fill="#444444" d="M25,1.443C12.011,1.443,1.443,12.011,1.443,25c0,12.99,10.567,23.557,23.557,23.557
			c0.69,0,1.25-0.56,1.25-1.25s-0.56-1.25-1.25-1.25C13.389,46.057,3.943,36.611,3.943,25S13.389,3.943,25,3.943
			c11.61,0,21.057,9.446,21.057,21.057c0,1.877-0.247,3.738-0.733,5.531c-0.182,0.666,0.212,1.353,0.879,1.533
			c0.664,0.183,1.352-0.213,1.533-0.879c0.545-2.006,0.821-4.087,0.821-6.185C48.557,12.011,37.989,1.443,25,1.443z"/>
		<path fill="#444444" d="M25,7.369C15.278,7.369,7.369,15.278,7.369,25c0,9.722,7.909,17.631,17.631,17.631
			c9.722,0,17.631-7.909,17.631-17.631C42.631,15.278,34.722,7.369,25,7.369z M25,42.131c-9.446,0-17.131-7.686-17.131-17.131
			S15.554,7.869,25,7.869S42.131,15.554,42.131,25S34.446,42.131,25,42.131z"/>
	</g>
</g>
</svg>
