<svg xmlns="http://www.w3.org/2000/svg" id="Camada_3" version="1.1" viewBox="0 0 50 50"><defs><style>.st2,.st3{fill:none;stroke:#444;fill-rule:evenodd;stroke-miterlimit:10}.st2{stroke-width:.5px}.st5{fill:#444}.st6{fill:#c3ff68}</style></defs><path d="M30.85 19.94l7.84 2.43-6.7 4.74.1 8.21-6.57-4.91-7.78 2.63 2.64-7.77-4.91-6.58 8.21.11 4.74-6.7 2.43 7.84z" class="st6"/><path d="M47.41 14.21l.18-3.6-3.6-2.88-30.78-.54c-3.2 0-10.8-1.62-10.76 5.1l1.04 24.6 10.98 1.62 2.67 6.05 31.02-11.04c.74-.42.23-17.32-.75-19.31z" class="st6"/><path fill="none" stroke="#444" stroke-linecap="round" stroke-linejoin="round" stroke-width="2.5" d="M34.37 41.73c.6-1.2.98-2.54 1.07-3.95h7.37c1.37 0 2.6-.56 3.5-1.46.9-.9 1.46-2.14 1.46-3.5V12.28c0-1.36-.56-2.6-1.46-3.5-.9-.9-2.14-1.46-3.5-1.46H7.4c-1.36 0-2.6.56-3.5 1.46s-1.46 2.14-1.46 3.5v20.54c0 1.36.56 2.6 1.46 3.5s2.14 1.46 3.5 1.46h7.37c.17 2.58 1.28 4.9 3 6.62 1.87 1.88 4.47 3.04 7.33 3.04"/><path fill="none" stroke="#444" stroke-linecap="round" stroke-linejoin="round" d="M25.12 47.27c-5.29 0-9.57-4.28-9.57-9.57s4.28-9.57 9.57-9.57 9.57 4.28 9.57 9.57"/><circle cx="7.72" cy="11.05" r="1.05" class="st5"/><circle cx="11.09" cy="11.05" r="1.05" class="st5"/><path fill="none" stroke="#444" stroke-linecap="round" stroke-linejoin="round" stroke-width=".5" d="M2.92 13.66h44.16"/><path d="M20.77 36.72l4.71-5.35c.44-.5 1.26-.19 1.26.47v4.48h1.92c.62 0 .95.73.54 1.19l-4.71 5.35c-.44.5-1.26.19-1.26-.47v-4.48h-1.92c-.62 0-.95-.73-.54-1.19z" class="st5"/><path d="M8.41 24.68h3.27c.39 0 .74.16 1 .41.26.26.41.61.41 1v3.27c0 .39-.16.74-.41 1-.26.26-.61.41-1 .41H8.41c-.39 0-.74-.16-1-.41-.26-.26-.41-.61-.41-1v-3.27c0-.39.16-.74.41-1 .26-.26.61-.41 1-.41z" class="st3"/><path d="M10.04 24.64v-4.5H20" class="st2"/><path d="M42.11 24.68c.39 0 .74.16 1 .41.26.26.41.61.41 1v3.27c0 .39-.16.74-.41 1-.26.26-.61.41-1 .41h-3.27c-.39 0-.74-.16-1-.41-.26-.26-.41-.61-.41-1v-3.27c0-.39.16-.74.41-1 .26-.26.61-.41 1-.41h3.27z" class="st3"/><path d="M40.47 24.64v-4.5h-9.95" class="st2"/><path d="M26.32 15.44l-.48.44c-.14.13-.33.19-.53.18-.1 0-.21-.01-.31-.01s-.21 0-.31.01a.707.707 0 01-.52-.18l-.49-.44a.613.613 0 00-.62-.12c-.46.16-.88.41-1.26.73a.62.62 0 00-.2.6l.14.63c.04.19 0 .39-.11.55-.12.17-.22.35-.31.54-.08.17-.23.31-.42.36l-.62.2a.61.61 0 00-.42.47c-.09.49-.09.98 0 1.46.04.22.2.4.42.47l.62.2c.18.06.33.19.42.37.09.19.2.37.31.55.11.16.15.36.11.54l-.13.63c-.05.22.03.45.2.6.38.32.8.57 1.27.74.21.08.45.03.62-.12l.49-.44c.14-.13.33-.19.52-.18.1 0 .21.01.31.01s.21 0 .31-.01c.19-.01.38.05.53.18l.48.43c.17.15.41.2.62.12.47-.17.89-.41 1.27-.73a.62.62 0 00.2-.6l-.14-.64a.69.69 0 01.11-.54c.12-.17.22-.36.32-.55.08-.17.23-.31.42-.37l.62-.2c.22-.07.38-.25.42-.48.09-.48.09-.97 0-1.46a.61.61 0 00-.42-.47l-.62-.2a.726.726 0 01-.42-.37c-.09-.19-.19-.37-.31-.54-.11-.16-.15-.35-.11-.54l.14-.64a.62.62 0 00-.2-.6c-.37-.32-.79-.56-1.27-.73a.613.613 0 00-.62.12z" class="st5"/><circle cx="25" cy="20.14" r="2.11" class="st6"/></svg>