<?xml version="1.0" encoding="UTF-8"?>
<svg id="Camada_1" data-name="Camada 1" xmlns="http://www.w3.org/2000/svg" viewBox="0 0 47.56 47.55">
  <defs>
    <style>
      .cls-1 {
        stroke-width: 2.5px;
      }

      .cls-1, .cls-2 {
        fill: none;
        stroke: #444;
        stroke-linecap: round;
        stroke-linejoin: round;
      }

      .cls-3 {
        fill: #444;
      }

      .cls-2 {
        fill-rule: evenodd;
        stroke-width: .5px;
      }

      .cls-4 {
        fill: #fcc34f;
      }
    </style>
  </defs>
  <g>
    <path class="cls-4" d="M45.82,18.98c-.15-.76-2.58-7.2-3.08-7.78l-2.88-3.37-.19.07-7.33-5.52-7.47-.64c-3.07,0-13.97.26-20.59,9.81L.49,21.72l-.19.07,3.8,12.88c.11.35,4.37,5.43,4.67,5.62l5.4,2.85,30.92-11.28c.62-.36,1.63-8.3.72-12.88Z"/>
    <g>
      <path class="cls-1" d="M30.73,45.2c-6.73,2.18-14.39,1.16-20.48-3.42C.3,34.31-1.71,20.19,5.77,10.24"/>
      <path class="cls-1" d="M5.65,10.41c1.95-2.87,4.54-4.54,4.54-4.54l.63-.52C18.59-.12,29.31-.25,37.31,5.78c9.95,7.47,11.95,21.6,4.47,31.54"/>
    </g>
  </g>
  <path class="cls-2" d="M16,24.63c-.23.48-.43.89-.63,1.3-.96,2.07-1.76,4.19-2.17,6.44-.23,1.25-.35,2.51-.03,3.77.28,1.08.87,1.63,1.86,1.68.44.02.9-.07,1.32-.19,1.13-.32,2.11-.94,3.06-1.6.23-.16.47-.26.75-.16.51.19.69.86.26,1.19-1.55,1.15-3.19,2.15-5.2,2.21-1.64.05-2.84-.83-3.36-2.4-.39-1.17-.41-2.37-.27-3.58.43-3.59,1.81-6.86,3.48-10.02.14-.27.15-.49.05-.78-.42-1.19-.8-2.4-1.18-3.61-.07-.23-.15-.29-.39-.24-1.63.36-3.24.8-4.69,1.65-.56.33-1.1.74-1.54,1.21-.74.78-.76,1.64-.15,2.54.53.78,1.28,1.31,2.06,1.79.25.15.51.28.75.43.36.22.48.63.3.98-.19.35-.6.49-.98.29-1.11-.57-2.14-1.24-2.97-2.19-.51-.58-.88-1.23-1-2.01-.15-.96.12-1.82.7-2.58.6-.79,1.38-1.35,2.24-1.82,1.52-.83,3.16-1.32,4.84-1.69.12-.03.23-.06.39-.1-.08-.45-.16-.88-.23-1.32-.28-1.78-.4-3.57.04-5.35.17-.7.45-1.37.92-1.93.97-1.14,2.21-1.4,3.6-1.06,1.38.34,2.53,1.1,3.61,1.99.31.25.31.7.06,1-.25.3-.65.34-1,.1-.54-.37-1.07-.77-1.64-1.1-.65-.38-1.34-.65-2.12-.66-.64,0-1.14.26-1.5.78-.46.66-.63,1.42-.71,2.19-.18,1.65.03,3.26.36,4.87.03.17.1.23.28.21,1.3-.13,2.6-.26,3.9-.37.28-.02.47-.13.64-.35,1.69-2.14,3.54-4.11,5.72-5.76,1.21-.92,2.5-1.72,3.97-2.16.93-.27,1.86-.38,2.79-.05,1.16.41,1.81,1.29,2.15,2.43.36,1.21.3,2.45.16,3.68-.04.32-.09.63-.15.94-.08.43-.4.65-.82.6-.39-.04-.64-.36-.6-.79.06-.6.19-1.19.2-1.78,0-.7,0-1.42-.15-2.11-.31-1.42-1.29-1.98-2.74-1.66-1.09.24-2.06.75-2.98,1.36-1.89,1.25-3.5,2.8-5,4.49-.28.31-.55.64-.82.96-.02.02-.02.05-.04.13h.39c3.86.04,7.66.5,11.37,1.57,1.77.51,3.48,1.17,5.05,2.15.84.52,1.6,1.12,2.21,1.91,1.24,1.6,1.13,3.4-.29,4.83-.96.97-2.15,1.58-3.41,2.06-.36.13-.75-.06-.89-.4-.15-.38.01-.76.39-.95.58-.28,1.19-.53,1.74-.86.45-.28.89-.62,1.25-1.01.77-.82.8-1.72.15-2.64-.49-.69-1.15-1.19-1.85-1.63-1.75-1.08-3.66-1.76-5.63-2.28-2.06-.55-4.14-.93-6.27-1.08-1.69-.12-3.39-.15-5.08-.24-.24-.01-.41.06-.55.27-.99,1.53-2,3.06-2.98,4.59-.07.11-.1.31-.05.43,1.67,3.98,3.79,7.69,6.6,10.99,1.18,1.39,2.47,2.67,4.03,3.64.73.46,1.5.84,2.38.89.8.05,1.39-.28,1.79-.96.38-.64.53-1.35.59-2.08.22-2.36-.25-4.63-.87-6.88-.63-2.3-1.53-4.51-2.55-6.66-.08-.17-.15-.38-.14-.57.02-.34.28-.58.62-.63.29-.05.6.12.75.43.37.79.74,1.57,1.08,2.37,1.04,2.47,1.87,5,2.31,7.65.31,1.85.46,3.7.03,5.56-.1.41-.24.83-.41,1.21-.73,1.59-2.2,2.31-3.91,1.94-1.39-.3-2.56-1.03-3.66-1.9-2.01-1.6-3.65-3.54-5.12-5.63-1.68-2.37-3.11-4.9-4.3-7.56-.04-.1-.1-.19-.18-.37ZM15.27,18.31l.92,2.93c.73-1.11,1.41-2.14,2.13-3.26l-3.06.33Z"/>
  <circle class="cls-3" cx="23.31" cy="23.78" r="3"/>
</svg>