<?xml version="1.0" encoding="utf-8"?>
<!-- Generator: Adobe Illustrator 27.3.1, SVG Export Plug-In . SVG Version: 6.00 Build 0)  -->
<svg version="1.1" id="Camada_3" xmlns="http://www.w3.org/2000/svg" xmlns:xlink="http://www.w3.org/1999/xlink" x="0px" y="0px"
	 viewBox="0 0 50 50" style="enable-background:new 0 0 50 50;" xml:space="preserve">
<style type="text/css">
	.st0{fill:#F799FF;}
	.st1{fill:#E589EF;}
	.st2{fill:none;stroke:#444444;stroke-width:2.5;stroke-linecap:round;stroke-linejoin:round;stroke-miterlimit:10;}
	.st3{fill:#444444;stroke:#444444;stroke-width:0.5;stroke-miterlimit:10;}
</style>
<g>
	<path class="st0" d="M32.93,5.38l9.93,4.65l3.38,7.05L3.95,33.49l0.57-19.37l5.95-4.57l13.19-8.2L32.93,5.38z"/>
	<path class="st1" d="M46.36,21.77l-0.02,0.47l-0.03,1.55L6.48,38.11l-1.55-1.74l-1.06-1.23l-0.5-3.08l0.25-3.87l42.32-16.26
		l-0.52,0.2l1.22,3.66L46.36,21.77z"/>
	<path class="st2" d="M30.09,46.64l-2.2,1.27c-1.69,0.98-3.78,0.98-5.47,0L6.84,38.92c-1.69-0.98-2.74-2.78-2.74-4.74V16.2
		c0-1.96,1.04-3.77,2.74-4.74l15.57-8.99c1.69-0.98,3.78-0.98,5.47,0l15.57,8.99c1.69,0.98,2.74,2.78,2.74,4.74v17.98
		c0,1.96-1.04,3.77-2.74,4.74l-2.46,1.42"/>
</g>
<g>
	<path class="st3" d="M35.04,19.21c1.31-4.77,0.98-8.37-1.15-9.52c-1.64-0.98-4.1-0.17-7.06,2.13c-0.67,0.5-1.31,1.15-1.81,1.64
		c-0.67-0.67-1.31-1.15-1.81-1.64c-2.79-2.29-5.41-3.12-7.06-2.13c-2.13,1.15-2.46,4.92-1.15,9.52c-4.77,1.31-7.71,3.44-7.71,5.75
		c0,2.46,2.96,4.6,7.71,5.75c-0.17,0.81-0.5,1.64-0.5,2.46c-0.67,3.6,0,6.23,1.64,7.06c0.5,0.33,0.98,0.5,1.64,0.5
		c1.48,0,3.29-0.81,5.41-2.46c0.67-0.5,1.31-1.15,1.81-1.64c0.67,0.67,1.31,1.15,1.81,1.64c1.98,1.64,3.94,2.46,5.41,2.46
		c0.67,0,1.15-0.17,1.64-0.5c1.64-0.98,2.29-3.44,1.64-7.06c-0.17-0.81-0.33-1.64-0.5-2.46c4.77-1.31,7.71-3.44,7.71-5.75
		C42.75,22.48,39.79,20.35,35.04,19.21z M27.32,12.15c1.98-1.48,3.6-2.29,4.92-2.29c0.5,0,0.98,0.17,1.31,0.33
		c1.81,0.98,1.98,4.43,0.81,8.87c-1.64-0.33-3.44-0.67-5.41-0.81c-1.15-1.64-2.29-2.96-3.44-4.27
		C26.17,13.3,26.67,12.63,27.32,12.15z M30.44,28.06c-0.67,0.98-1.31,2.13-1.98,2.96c-1.15,0.17-2.29,0.17-3.6,0.17
		c-1.15,0-2.46,0-3.6-0.17c-0.67-0.98-1.31-1.98-1.98-2.96s-1.15-2.13-1.64-3.12c0.5-0.98,0.98-2.13,1.64-3.12
		c0.67-0.98,1.31-2.13,1.98-2.96c1.15-0.17,2.29-0.17,3.6-0.17s2.46,0,3.6,0.17c0.67,0.98,1.31,1.98,1.98,2.96
		c0.67,0.98,1.15,2.13,1.64,3.12C31.58,25.94,31.1,27.08,30.44,28.06z M32.56,25.77c0.67,1.48,1.31,2.96,1.64,4.43
		c-1.48,0.33-2.96,0.67-4.77,0.81c0.5-0.81,1.15-1.64,1.64-2.62C31.58,27.58,32.08,26.58,32.56,25.77z M25.02,35.62
		c-0.98-1.15-2.13-2.29-3.12-3.77c0.98,0,1.98,0.17,3.12,0.17c1.15,0,2.13,0,3.12-0.17C27.15,33.14,26,34.47,25.02,35.62z
		 M20.59,31.02c-1.64-0.17-3.29-0.5-4.77-0.81c0.5-1.48,0.98-2.96,1.64-4.43c0.5,0.81,0.98,1.81,1.48,2.62
		C19.44,29.37,19.94,30.2,20.59,31.02z M17.49,24.12c-0.67-1.48-1.31-3.12-1.64-4.43c1.48-0.33,2.96-0.67,4.77-0.81
		c-0.5,0.81-1.15,1.64-1.64,2.62C18.46,22.48,17.97,23.31,17.49,24.12z M25.02,14.28c0.98,1.15,2.13,2.29,3.12,3.77
		c-1,0.02-1.98-0.15-3.12-0.15c-1.15,0-2.13,0-3.12,0.17C22.9,16.73,24.05,15.42,25.02,14.28z M31.1,21.5
		c-0.5-0.81-0.98-1.81-1.64-2.62c1.64,0.17,3.29,0.5,4.77,0.81c-0.5,1.48-0.98,2.96-1.64,4.43C32.08,23.31,31.58,22.31,31.1,21.5z
		 M16.49,10.17c1.31-0.81,3.6,0,6.23,1.98c0.67,0.5,1.15,0.98,1.81,1.64c-1.15,1.31-2.29,2.62-3.44,4.27
		c-1.98,0.17-3.77,0.5-5.41,0.81C14.53,14.61,14.7,11.17,16.49,10.17z M7.95,24.94c0-2.13,2.96-3.94,7.23-5.08
		c0.5,1.64,1.15,3.29,1.98,5.08c-0.81,1.81-1.48,3.44-1.98,5.08C10.91,28.89,7.95,27.08,7.95,24.94z M22.73,37.74
		c-2.62,2.13-4.92,2.79-6.23,1.98s-1.81-3.12-1.31-6.39c0.17-0.81,0.33-1.64,0.5-2.46c1.64,0.33,3.44,0.67,5.41,0.81
		c1.15,1.64,2.29,2.96,3.44,4.27C23.88,36.6,23.38,37.24,22.73,37.74z M34.87,33.31c0.5,3.29,0,5.58-1.31,6.39s-3.6,0-6.23-1.98
		c-0.67-0.5-1.15-0.98-1.81-1.64c1.15-1.31,2.29-2.62,3.44-4.27c1.98-0.17,3.77-0.5,5.41-0.81C34.54,31.68,34.87,32.49,34.87,33.31z
		 M34.87,30.04c-0.5-1.64-1.15-3.44-1.98-5.08c0.81-1.81,1.48-3.44,1.98-5.08c4.27,1.15,7.23,2.96,7.23,5.08
		S39.14,28.89,34.87,30.04z"/>
	<circle class="st3" cx="24.53" cy="24.99" r="2.88"/>
</g>
<g>
	<circle class="st0" cx="12.89" cy="-55.2" r="20.03"/>
	<circle class="st1" cx="32.92" cy="-55.2" r="20.03"/>
</g>
</svg>
