<?xml version="1.0" encoding="utf-8"?>
<!-- Generator: Adobe Illustrator 27.5.0, SVG Export Plug-In . SVG Version: 6.00 Build 0)  -->
<svg version="1.1" id="Camada_1" xmlns="http://www.w3.org/2000/svg" xmlns:xlink="http://www.w3.org/1999/xlink" x="0px" y="0px"
	 viewBox="0 0 50 50" style="enable-background:new 0 0 50 50;" xml:space="preserve">
<style type="text/css">
	.st0{fill:#46B8B0;}
	.st1{fill:none;stroke:#444444;stroke-width:2.5;stroke-linecap:round;stroke-linejoin:round;stroke-miterlimit:10;}
	.st2{fill:#444444;}
	.st3{fill:none;stroke:#444444;stroke-width:0.5;stroke-linecap:round;stroke-miterlimit:10;}
</style>
<path class="st0" d="M44.8,13.4l-5.6-3.6l-7.7-4.4l-6-2.8C22.3,2.6,4,11.5,4,14.7l-0.5,7.8L4,37.6l11.2,5.8l31-11
	C47.1,31.9,45.8,15.4,44.8,13.4z"/>
<g>
	<g>
		<path class="st1" d="M29.9,46.5l-2.2,1.3c-1.7,1-3.8,1-5.5,0l-15.6-9C5,37.8,3.9,36,3.9,34V16c0-2,1-3.8,2.7-4.7l15.6-9
			c1.7-1,3.8-1,5.5,0l15.6,9c1.7,1,2.7,2.8,2.7,4.7v18c0,2-1,3.8-2.7,4.7l-2.5,1.4"/>
	</g>
</g>
<g>
	<path class="st2" d="M14.3,26.5c0-1.1,0.1-1.9,0.3-2.7c0,0,0,0,0-0.1c0-0.2,0.1-0.4,0-0.5c-0.1-0.1-0.3-0.1-0.5-0.2
		c-0.9-0.3-1.7-0.6-2.5-1.1c-0.7-0.4-1.4-0.8-1.8-1.5c-0.4-0.7-0.6-1.4-0.3-2.2c0.2-0.5,0.6-1,1-1.3c0.7-0.6,1.5-1,2.3-1.4
		c0.5-0.2,0.9-0.4,1.4-0.5c0.3,0,0.3-0.1,0.2-0.4c-0.1-0.4-0.1-0.8-0.2-1.1c-0.1-0.7-0.2-1.4-0.1-2.1c0-0.8,0.2-1.5,0.5-2.2
		c0.3-0.7,0.9-1.1,1.7-1.2c0.7-0.1,1.4,0.1,2.1,0.4c0.6,0.3,1.1,0.6,1.7,1c0.5,0.3,0.9,0.7,1.3,1.1c0.1,0.1,0.3,0.2,0.4,0
		c0.3-0.3,0.6-0.5,1-0.8c0.5-0.4,0.9-0.7,1.5-1C25.2,8.4,26.1,8,27,8c1,0,1.7,0.6,2,1.4c0.2,0.4,0.3,0.9,0.4,1.4
		c0.1,0.4,0.1,0.8,0.1,1.2c0,0.9-0.1,1.8-0.3,2.7c0,0.2,0,0.2,0.2,0.3c0.9,0.3,1.7,0.6,2.5,1c0.7,0.4,1.3,0.8,1.8,1.4
		c0.7,0.8,1,1.6,0.5,2.6c-0.3,0.5-0.6,1-1.1,1.3c-1.1,0.8-2.3,1.4-3.5,1.8c-0.4,0.1-0.4,0.1-0.3,0.5c0.2,1.1,0.4,2.1,0.3,3.2
		c0,0.9-0.2,1.8-0.8,2.5c-0.4,0.5-0.9,0.7-1.5,0.7c-0.6,0.1-1.2-0.1-1.8-0.3c-0.6-0.2-1.2-0.6-1.8-0.9c-0.6-0.4-1-0.9-1.6-1.3
		c-0.1-0.1-0.2-0.1-0.4,0c-0.5,0.4-0.9,0.8-1.5,1.2c-0.8,0.5-1.6,1-2.6,1.3c-0.7,0.2-1.5,0.2-2.1-0.2c-0.5-0.3-0.8-0.8-1-1.4
		C14.3,27.7,14.3,27,14.3,26.5z M21.8,23.1c0.7,0,1.4,0,2.1,0c0.2,0,0.3,0,0.4-0.2c0.7-1.1,1.4-2.2,2-3.4c0.2-0.3,0.1-0.6,0-0.9
		c-0.3-0.6-0.7-1.3-1.1-1.9c-0.3-0.5-0.6-1-0.9-1.5c-0.1-0.1-0.1-0.1-0.2-0.1c-0.4,0-0.7,0-1.1,0c-1,0-2.1,0-3.1,0
		c-0.1,0-0.2,0-0.3,0.2c-0.4,0.6-0.7,1.2-1.1,1.8c-0.4,0.6-0.7,1.2-1,1.8c-0.1,0.2-0.1,0.3,0,0.4c0.2,0.3,0.3,0.6,0.4,0.9
		c0.5,0.9,1,1.7,1.5,2.6c0.1,0.2,0.2,0.3,0.4,0.3C20.5,23.1,21.1,23.1,21.8,23.1z M15.4,26.2c0,0.7,0,1.3,0.3,2
		c0.2,0.6,0.5,0.9,1.2,0.9c0.4,0,0.7-0.1,1-0.2c1.2-0.4,2.1-1.2,3-2c0.1-0.1,0.1-0.1,0-0.2c-0.4-0.5-0.8-0.9-1.2-1.4
		c-0.2-0.3-0.5-0.4-0.6-0.7c-0.1-0.3-0.3-0.4-0.6-0.4c-0.2,0-0.3,0-0.5-0.1c-0.7-0.1-1.5-0.2-2.2-0.4c-0.1,0-0.2,0-0.2,0.1
		c0,0.2-0.1,0.3-0.1,0.5C15.5,24.9,15.4,25.5,15.4,26.2z M28.3,11.9c0-0.7-0.1-1.5-0.4-2.1c-0.2-0.5-0.8-0.7-1.1-0.7
		c-0.6,0.1-1.2,0.3-1.8,0.6c-0.8,0.4-1.5,1-2.2,1.6c-0.1,0.1-0.1,0.2,0,0.3c0.3,0.3,0.6,0.5,0.8,0.9c0.4,0.4,0.7,0.9,1.1,1.4
		c0.1,0.1,0.2,0.2,0.3,0.2c1,0.1,1.9,0.3,2.9,0.5c0.2,0.1,0.2-0.1,0.2-0.2C28.2,13.5,28.4,12.7,28.3,11.9z M33.2,19.1
		c0-0.1,0-0.2-0.1-0.4c-0.3-0.5-0.7-0.9-1.1-1.3c-0.9-0.6-1.9-1-2.9-1.4c-0.2-0.1-0.3,0-0.3,0.2c-0.1,0.4-0.2,0.8-0.4,1.1
		c-0.2,0.5-0.4,1-0.6,1.5c-0.1,0.1-0.1,0.3,0,0.4c0.4,0.8,0.7,1.7,0.9,2.5c0.1,0.3,0.2,0.3,0.5,0.2c0.7-0.2,1.3-0.5,1.9-0.8
		c0.6-0.3,1.2-0.7,1.6-1.2C33,19.8,33.2,19.5,33.2,19.1z M15.4,11.9c0,0.9,0.1,1.7,0.2,2.4c0,0.2,0.1,0.2,0.3,0.2
		c0.8-0.2,1.6-0.3,2.5-0.4c0.3,0,0.5-0.1,0.7-0.3c0.5-0.7,1-1.4,1.7-2c0.2-0.2,0.2-0.2,0-0.5c-0.3-0.3-0.7-0.5-1-0.7
		c-0.8-0.7-1.7-1.2-2.7-1.4c-0.5-0.1-0.9-0.1-1.2,0.4c-0.3,0.4-0.4,0.9-0.5,1.4C15.4,11.3,15.4,11.7,15.4,11.9z M28.4,26.3
		c0-0.9-0.1-1.7-0.3-2.6c0-0.2-0.2-0.2-0.3-0.2c-0.9,0.2-1.7,0.4-2.6,0.5c-0.2,0-0.4,0.1-0.5,0.3c-0.5,0.7-1,1.3-1.6,1.9
		c-0.1,0.1-0.3,0.2-0.3,0.3c0,0.1,0.2,0.2,0.3,0.3c0.5,0.5,1.1,1,1.8,1.4c0.6,0.3,1.2,0.6,1.8,0.7c0.8,0.1,1.2-0.1,1.4-0.8
		C28.3,27.6,28.4,26.9,28.4,26.3z M10.5,19.1c0,0.1,0,0.2,0,0.2c0.1,0.5,0.5,0.8,0.8,1.1c1,0.8,2.1,1.3,3.3,1.7
		c0.2,0.1,0.3,0,0.4-0.2c0.3-0.9,0.6-1.8,1-2.6c0-0.1,0.1-0.2,0-0.3c-0.2-0.5-0.4-0.9-0.6-1.4c-0.2-0.4-0.3-0.9-0.5-1.3
		c0-0.2-0.1-0.2-0.3-0.2c-0.6,0.2-1.2,0.4-1.8,0.7c-0.3,0.1-0.6,0.3-0.9,0.5c-0.3,0.2-0.6,0.5-0.9,0.8
		C10.8,18.3,10.6,18.7,10.5,19.1z M21.9,24.3c-0.4,0-0.7,0-1.1,0c-0.1,0-0.1,0-0.2,0c0,0.1,0,0.1,0.1,0.2c0.3,0.4,0.7,0.8,1.1,1.3
		c0.1,0.1,0.2,0.1,0.3,0c0.4-0.4,0.8-0.8,1.1-1.3c0,0,0.1-0.1,0-0.1c0-0.1-0.1,0-0.1,0C22.7,24.3,22.3,24.3,21.9,24.3z M20.8,14
		c0.3,0,0.6-0.1,0.9-0.1c0.4,0,0.9,0,1.3,0.1c0,0,0.1,0,0.1,0c0-0.1,0-0.1,0-0.1c-0.4-0.4-0.7-0.9-1.1-1.3c-0.2-0.1-0.3-0.1-0.4,0
		c-0.3,0.4-0.6,0.8-1,1.1c-0.1,0.1-0.2,0.2-0.2,0.3C20.6,14,20.7,13.9,20.8,14z M16.7,17.7c0.1-0.1,0.1-0.1,0.1-0.2
		c0.1-0.2,0.2-0.5,0.4-0.7c0.3-0.4,0.5-0.9,0.8-1.3c0.1-0.1,0-0.2-0.1-0.1c-0.6,0.1-1.2,0.2-1.7,0.4c-0.1,0-0.1,0.1-0.1,0.2
		c0.1,0.2,0.1,0.4,0.2,0.5C16.4,16.8,16.5,17.2,16.7,17.7z M26.1,22.8c0.5-0.1,1-0.2,1.5-0.3c0.1,0,0.1-0.1,0.1-0.2c0,0,0-0.1,0-0.1
		c-0.1-0.6-0.5-1.1-0.6-1.6c0,0,0-0.1-0.1-0.1c-0.1,0-0.1,0.1-0.1,0.1c-0.3,0.6-0.7,1.3-1.1,1.9c0,0.1-0.1,0.2-0.1,0.2
		C25.8,22.9,26,22.8,26.1,22.8z M18.1,22.8c-0.1-0.2-0.2-0.4-0.3-0.6c-0.1-0.1-0.2-0.2-0.2-0.3c-0.2-0.4-0.5-0.9-0.7-1.3
		c0,0,0-0.1-0.1-0.1c0,0-0.1,0-0.1,0.1c-0.2,0.6-0.4,1.1-0.6,1.7c0,0.1,0,0.2,0.1,0.2c0.2,0,0.4,0.1,0.7,0.1
		C17.3,22.7,17.7,22.8,18.1,22.8z M25.8,15.3c0,0-0.1,0-0.1,0c0,0,0,0.1,0,0.1c0.1,0.1,0.2,0.2,0.2,0.3c0.3,0.5,0.6,1.1,0.9,1.6
		c0,0.1,0.1,0.1,0.1,0.1c0.1,0,0.1-0.1,0.1-0.1c0.2-0.5,0.4-1,0.6-1.5c0-0.1,0-0.2-0.1-0.2C27,15.5,26.4,15.4,25.8,15.3z"/>
	<path class="st2" d="M21.8,16.8c1.4,0,2.2,0.9,2.4,1.8c0.1,0.8,0,1.5-0.6,2.1c-0.4,0.5-1,0.7-1.6,0.7c-1.3,0-2.3-1-2.4-2.3
		C19.5,17.8,20.6,16.7,21.8,16.8z"/>
</g>
<circle class="st3" cx="30.4" cy="27.7" r="9"/>
<path class="st3" d="M34.1,38c-0.9-2.4-3.1-5.3-7.9-5.2c-8,0-8.6,8.7-8.6,8.7l11.2,0"/>
<polyline class="st3" points="42.1,32.3 35.1,32.3 35.1,23.7 43.6,23.7 43.6,30.5 "/>
</svg>
