<svg xmlns="http://www.w3.org/2000/svg" id="Layer_1" x="0" y="0" version="1.1" viewBox="0 0 50 50" xml:space="preserve"><style>.st1{stroke-width:2.5}.st1,.st2{fill:none;stroke:#444;stroke-linecap:round;stroke-linejoin:round;stroke-miterlimit:10}</style><path fill="#fcc34f" d="M48 19.8c-.2-.8-2.7-7.5-3.2-8.1l-3-3.5-.2.1L34 2.5l-7.8-.7C23 1.8 11.7 2.1 4.8 12l-4 10.7-.2.1 4 13.4c.1.4 4.5 5.7 4.9 5.9l5.6 3 32.2-11.7c.6-.5 1.6-8.8.7-13.6z"/><path d="M32.3 47.1c-7 2.3-15 1.2-21.3-3.6C.6 35.8-1.5 21.1 6.3 10.7" class="st1"/><path d="M6.1 10.9c2-3 4.7-4.7 4.7-4.7l.7-.5c8.1-5.7 19.2-5.8 27.6.4 10.4 7.8 12.4 22.5 4.7 32.8" class="st1"/><path d="M17.2 33.4c-1.6-1.5-2.8-3.5-3.3-5.8M28.5 36c-1.1.3-2.2.5-3.3.5-1.2 0-2.3-.2-3.4-.5m14.7-8.4c-.5 2.3-1.7 4.3-3.4 5.8m0-17c1.6 1.5 2.8 3.6 3.4 5.8m-14.7-8.4c1.1-.3 2.2-.5 3.3-.5 1.2 0 2.3.2 3.4.5m-14.6 8.4c.5-2.2 1.7-4.2 3.3-5.8" class="st2"/><circle cx="32.1" cy="12.9" r="3.7" class="st2"/><circle cx="25.2" cy="24.9" r="3.7" class="st2"/><circle cx="18.2" cy="12.9" r="3.7" class="st2"/><circle cx="11.3" cy="24.9" r="3.7" class="st2"/><circle cx="18.2" cy="36.9" r="3.7" class="st2"/><path d="M33.1 33.4c.8.2 1.6.8 2.1 1.6 1.1 1.7.6 4-1.2 5.1-1.7 1.1-4 .6-5.1-1.2-1.1-1.7-.6-4 1.2-5.1.9-.6 2-.7 3-.4" class="st2"/><circle cx="39" cy="24.9" r="3.7" class="st2"/><path fill="none" stroke="#444" stroke-linecap="round" stroke-linejoin="round" stroke-miterlimit="10" stroke-width=".5" d="M20.2 16l2 2.6m8.2-2.4l-2.3 2.4m-8.2 15l2-2.5m8.2 2.7l-1.7-2.7M15 24.8l3.2-.1m13.9.1l3.2-.1m-19-11.8c0-1.1.9-2 2-2m11.8 2c0-1.1.9-2 2-2m-15.8 26c0-1.1.9-2 2-2m11.8 2c0-1.1.9-2 2-2m5-10c0-1.1.9-2 2-2M9.3 25c0-1.1.9-2 2-2m11.9 2c0-1.1.9-2 2-2"/></svg>