<svg xmlns="http://www.w3.org/2000/svg" id="Layer_1" x="0" y="0" version="1.1" viewBox="0 0 50 50" xml:space="preserve"><style>.st3,.st4{fill:none;stroke:#444;stroke-miterlimit:10}.st3{stroke-linecap:round;stroke-linejoin:round}.st4{stroke-width:.5}</style><path fill="#d1bd00" d="M29.9 20.5l7.8 2.5-6.7 4.7.1 8.2-6.5-4.9-7.8 2.6 2.6-7.7-4.9-6.6 8.2.1 4.8-6.7z"/><path fill="#f9f941" d="M44.6 12.4L39 8.8l-7.7-4.4-6-2.8c-3.2 0-21.5 8.9-21.5 12.1l-.5 7.8.5 15.1 11.5 7.6 31-11c.9-.5-.7-18.8-1.7-20.8z"/><path fill="none" stroke="#444" stroke-linecap="round" stroke-linejoin="round" stroke-miterlimit="10" stroke-width="2.5" d="M29.9 46.5l-2.2 1.3c-1.7 1-3.8 1-5.5 0l-15.6-9C5 37.8 4 36 4 34V16c0-2 1-3.8 2.7-4.7l15.6-9c1.7-1 3.8-1 5.5 0l15.6 9C45 12.3 46 14 46 16v18c0 2-1 3.8-2.7 4.7l-2.5 1.4"/><path d="M25 18c-.5-1.4-1.8-2.3-3.3-2.3h-9.3v17h10.3c1.3 0 2.3 1.1 2.3 2.4m0 0c0-1.3 1.1-2.4 2.4-2.4h10.3v-17h-9.3c-1.5 0-2.8.9-3.3 2.3" class="st3"/><path d="M12.3 17.3h-1.8v17.2h9.8c1.6 0 3.5.9 4.7 2.9m0 0c1.1-2 3.1-2.9 4.7-2.9h9.8V17.3h-1.8" class="st3"/><ellipse cx="31.2" cy="24.5" class="st4" rx="1.9" ry="5" transform="rotate(-30 31.218 24.495)"/><ellipse cx="31" cy="24.5" class="st4" rx="5" ry="1.9" transform="rotate(-60 30.96 24.494)"/><ellipse cx="31.1" cy="24.3" class="st4" rx="5" ry="1.9"/><circle cx="31.1" cy="24.3" r="1" fill="#444"/><path fill="none" stroke="#444" stroke-linecap="round" stroke-linejoin="round" stroke-miterlimit="10" stroke-width=".5" d="M25 17.8v16.3"/><path d="M25 34.2v2.6" class="st3"/></svg>