<?xml version="1.0" encoding="utf-8"?>
<!-- Generator: Adobe Illustrator 26.5.0, SVG Export Plug-In . SVG Version: 6.00 Build 0)  -->
<svg version="1.1" id="Camada_3" xmlns="http://www.w3.org/2000/svg" xmlns:xlink="http://www.w3.org/1999/xlink" x="0px" y="0px"
	 viewBox="0 0 50 50" style="enable-background:new 0 0 50 50;" xml:space="preserve">
<style type="text/css">
	.st0{fill:#4ECDC4;}
	.st1{fill:#46B8B0;}
	.st2{fill:none;stroke:#444444;stroke-width:2.5;stroke-linecap:round;stroke-linejoin:round;stroke-miterlimit:10;}
	.st3{fill:#444444;stroke:#444444;stroke-width:0.5;stroke-miterlimit:10;}
	.st4{fill:#444444;}
</style>
<g>
	<g>
		<polygon class="st0" points="35.94,4.76 43.19,10.23 45.11,16.91 2.16,32.57 3.05,18.99 8.81,8.85 22.54,2.57 		"/>
		<polygon class="st1" points="47.26,20.93 47.24,21.36 5.25,36.45 4.19,35.69 2.05,27.76 43.69,11.76 45.83,15.91 		"/>
		<g>
			<path class="st2" d="M11.39,7.13c7.82-5.82,18.82-6.25,27.2-0.28c9.7,6.89,12.48,19.88,6.85,30.04"/>
			<path class="st2" d="M37.26,45.43c-7.66,4.69-17.69,4.66-25.47-0.88C1.36,37.15-1.07,22.71,6.33,12.3"/>
			<path class="st2" d="M10.76,7.67c0,0-2.61,1.79-4.54,4.79"/>
		</g>
	</g>
	<g>
		<g>
			<g>
				<g>
					<g>
						<path class="st3" d="M29.81,26.67c-0.09-0.46-0.14-0.71-0.23-1.17c3.82-1.05,6.18-2.75,6.18-4.61c0-1.98-2.37-3.69-6.18-4.61
							c1.05-3.82,0.79-6.71-0.92-7.63c-1.32-0.79-3.29-0.13-5.66,1.7c-0.53,0.4-1.05,0.92-1.45,1.32c-0.53-0.53-1.05-0.92-1.45-1.32
							c-2.24-1.84-4.34-2.5-5.66-1.7c-1.7,0.92-1.97,3.94-0.92,7.63c-3.82,1.05-6.18,2.75-6.18,4.61c0,1.97,2.37,3.69,6.18,4.61
							c-0.13,0.65-0.4,1.32-0.4,1.97c-0.53,2.89,0,4.99,1.32,5.66c0.4,0.27,0.79,0.4,1.32,0.4c1.18,0,2.64-0.65,4.34-1.97
							c0.53-0.4,1.05-0.92,1.45-1.32c0.53,0.53,1.05,0.92,1.45,1.32c1.58,1.32,2.86,1.97,4.05,1.97c0.02,0,0.03-0.01,0.04-0.01
							l-0.01-0.57c-1.05-0.01-2.15-0.66-3.69-1.82c-0.53-0.4-0.92-0.79-1.45-1.32c0.92-1.05,1.84-2.1,2.75-3.42
							c1.58-0.13,3.02-0.4,4.34-0.65c0.08,0.35,0.15,0.53,0.24,0.93L29.81,26.67z M23.39,10.63c1.58-1.18,2.89-1.84,3.94-1.84
							c0.4,0,0.79,0.13,1.05,0.27c1.45,0.79,1.58,3.55,0.65,7.11c-1.32-0.27-2.75-0.53-4.34-0.65c-0.92-1.32-1.84-2.37-2.75-3.42
							C22.47,11.55,22.87,11.02,23.39,10.63z M28.93,16.67c-0.4,1.18-0.78,2.37-1.32,3.55c-0.4-0.65-0.8-1.45-1.18-2.1
							c-0.4-0.65-0.79-1.45-1.32-2.1C26.43,16.16,27.74,16.42,28.93,16.67z M24.06,15.36c-0.8,0.01-1.58-0.12-2.5-0.12
							s-1.7,0-2.5,0.13c0.8-1.07,1.72-2.12,2.5-3.04C22.34,13.25,23.26,14.17,24.06,15.36z M14.71,9.05c1.05-0.65,2.89,0,4.99,1.58
							c0.53,0.4,0.92,0.79,1.45,1.32c-0.92,1.05-1.84,2.1-2.75,3.42c-1.58,0.13-3.02,0.4-4.34,0.65
							C13.14,12.6,13.27,9.85,14.71,9.05z M14.19,16.67c1.18-0.27,2.37-0.53,3.82-0.65c-0.4,0.65-0.92,1.32-1.32,2.1
							c-0.4,0.79-0.8,1.45-1.18,2.1C14.98,19.04,14.46,17.73,14.19,16.67z M16.68,23.65c0.4,0.78,0.8,1.45,1.32,2.1
							c-1.32-0.13-2.64-0.4-3.82-0.65c0.4-1.18,0.79-2.37,1.32-3.55C15.89,22.2,16.28,23,16.68,23.65z M7.87,20.88
							c0-1.7,2.37-3.15,5.79-4.07c0.4,1.32,0.92,2.64,1.58,4.07c-0.65,1.45-1.18,2.75-1.58,4.07C10.24,24.05,7.87,22.6,7.87,20.88z
							 M19.72,31.15c-2.1,1.7-3.94,2.24-4.99,1.58c-1.05-0.65-1.45-2.5-1.05-5.12c0.13-0.65,0.27-1.32,0.4-1.97
							c1.32,0.27,2.75,0.53,4.34,0.65c0.92,1.32,1.84,2.37,2.75,3.42C20.63,30.23,20.23,30.75,19.72,31.15z M21.55,29.44
							c-0.79-0.92-1.7-1.84-2.5-3.02c0.78,0,1.58,0.13,2.5,0.13s1.7,0,2.5-0.13C23.26,27.46,22.34,28.52,21.55,29.44z M24.31,25.75
							c-0.92,0.13-1.84,0.13-2.89,0.13c-0.92,0-1.97,0-2.89-0.13c-0.53-0.79-1.05-1.58-1.58-2.37c-0.53-0.78-0.92-1.7-1.32-2.5
							c0.4-0.79,0.79-1.7,1.32-2.5c0.53-0.79,1.05-1.7,1.58-2.37c0.92-0.13,1.84-0.13,2.89-0.13s1.97,0,2.89,0.13
							c0.53,0.79,1.05,1.58,1.58,2.37c0.53,0.79,0.92,1.7,1.32,2.5c-0.4,0.8-0.78,1.72-1.32,2.5
							C25.36,24.17,24.84,25.09,24.31,25.75z M25.09,25.75c0.4-0.65,0.92-1.32,1.32-2.1c0.4-0.65,0.8-1.45,1.18-2.1
							c0.53,1.18,1.05,2.37,1.32,3.55C27.73,25.37,26.54,25.64,25.09,25.75z M29.45,24.97c-0.4-1.32-0.92-2.75-1.58-4.07
							c0.65-1.45,1.18-2.75,1.58-4.07c3.42,0.92,5.79,2.37,5.79,4.07S32.87,24.05,29.45,24.97z"/>
					</g>
				</g>
			</g>
			<circle class="st3" cx="21.15" cy="20.93" r="2.31"/>
		</g>
		<g>
			<path class="st4" d="M28.05,38.03c-0.1,2.77-1.68,1.98-3.26,1.68v2.77c8.89,3.16,5.93-10.27,6.42-14.82h-3.16V38.03z
				 M42.48,36.55c-0.69-1.88-3.75-2.57-5.33-3.56c-2.86-2.96,2.67-3.16,4.64-1.78l0.99-2.67c-4.35-2.77-12.35,0.1-8.69,5.73
				c0.49,1.09,4.64,2.47,5.24,3.16c2.17,3.56-4.35,2.67-6.22,1.28v3.06C36.85,44.16,44.85,42.28,42.48,36.55z"/>
		</g>
	</g>
</g>
</svg>
