<?xml version="1.0" encoding="utf-8"?>
<!-- Generator: Adobe Illustrator 28.0.0, SVG Export Plug-In . SVG Version: 6.00 Build 0)  -->
<svg version="1.1" id="Layer_1" xmlns="http://www.w3.org/2000/svg" xmlns:xlink="http://www.w3.org/1999/xlink" x="0px" y="0px"
	 viewBox="0 0 50 50" style="enable-background:new 0 0 50 50;" xml:space="preserve">
<style type="text/css">
	.st0{fill:#FF6B6B;}
	.st1{fill:none;stroke:#444444;stroke-width:2.5;stroke-linecap:round;stroke-linejoin:round;stroke-miterlimit:10;}
	.st2{fill:none;stroke:#444444;stroke-width:0.5;stroke-linecap:round;stroke-linejoin:round;stroke-miterlimit:10;}
</style>
<path class="st0" d="M43.3,2.4L8.2,4.5c-1.1,0,0.1,13.7,0.1,14.9L8.2,29.7l-0.4,8.1l1,9.4l9.9,0.5l25.6-9.1V17.3v-0.1v0
	C44.3,16.1,44.4,2.4,43.3,2.4z"/>
<polyline class="st1" points="43.9,38 44,2.1 7.5,4.3 8.6,46.8 34.9,47.9 "/>
<polyline class="st2" points="33.1,4 33,11.8 36.2,9.5 39.3,11.8 39,2.9 "/>
<g>
	<polygon class="st2" points="13.4,22.7 17.2,11.9 21.1,11.9 24.6,22.7 21.4,22.7 20.6,20.4 17.4,20.4 16.7,22.6 	"/>
	<polygon class="st2" points="17.8,18.3 20.2,18.3 19.1,14.7 	"/>
	<path class="st2" d="M25.4,17.3h2.5c0,0,0-1.1,1.2-1.1c0,0,0.9,0,0.9,0.9c0,0,0,1.1-2.1,1.1c0,0-2.7-0.2-2.7,2c0,0-0.2,2.4,2.7,2.4
		c0,0,1.8-0.1,2.3-1.4v1.4h2.6v-5.3c0,0,0.2-3-3.6-3C29.1,14.4,25.4,14.3,25.4,17.3z"/>
	<path class="st2" d="M29.9,18.9c0,0-0.5,0.3-1.2,0.3c0,0-1,0-1,0.9c0,0,0.1,0.9,1.1,0.6C28.9,20.8,29.9,20.6,29.9,18.9z"/>
</g>
<path class="st2" d="M38.5,31H13.7c-0.3,0-0.6-0.2-0.6-0.6v-3.9c0-0.3,0.2-0.6,0.6-0.6h24.8c0.3,0,0.6,0.2,0.6,0.6v3.9
	C39.1,30.7,38.8,31,38.5,31z"/>
<g>
	<path class="st2" d="M24.9,41.7H13.7c-0.3,0-0.6-0.3-0.6-0.6v-7.7c0-0.3,0.3-0.6,0.6-0.6h11.1c0.3,0,0.6,0.3,0.6,0.6v7.7
		C25.5,41.4,25.2,41.7,24.9,41.7z"/>
	<line class="st2" x1="13.4" y1="33" x2="25.2" y2="41.5"/>
	<line class="st2" x1="13.3" y1="41.4" x2="25.3" y2="33"/>
</g>
</svg>
