<?xml version="1.0" encoding="utf-8"?>
<!-- Generator: Adobe Illustrator 26.5.0, SVG Export Plug-In . SVG Version: 6.00 Build 0)  -->
<svg version="1.1" id="Camada_3" xmlns="http://www.w3.org/2000/svg" xmlns:xlink="http://www.w3.org/1999/xlink" x="0px" y="0px"
	 viewBox="0 0 50 50" style="enable-background:new 0 0 50 50;" xml:space="preserve">
<style type="text/css">
	.st0{fill:#00C8E2;}
	.st1{fill:#00DFFC;}
	.st2{fill:none;stroke:#505050;stroke-linecap:round;stroke-linejoin:round;stroke-miterlimit:10;}
	.st3{fill:#505050;}
	.st4{fill:#444444;}
</style>
<g>
	<g>
		<g>
			<g>
				<path class="st0" d="M46.62,21.65c-10.09,3.71-25.84,9.47-35.93,13.18c0.1-0.62,0.21-1.24,0.31-1.85
					c-5.15-2.16-9.78-4.01-8.96-9.37V23.3c11.63-4.22,24.91-9.16,36.65-13.38c0,0.41,0.1,0.82,0.1,1.13c0.1,1.96-0.1,3.81-0.51,5.76
					C41.37,17.85,44.56,19.18,46.62,21.65z"/>
			</g>
			<g>
				<path class="st1" d="M38.71,10.28C27.08,14.5,13.6,19.44,1.96,23.76c0-0.1,0-0.21,0.1-0.31v-0.31h0.1
					c1.65-3.4,5.35-4.94,8.85-6.28C9.89,12.34,9.99,4.52,15.55,4.31c3.5-0.1,6.59,2.16,9.16,4.43C29.55,5.03,38.51,0.81,38.71,10.28
					z"/>
			</g>
			<g>
				<g>
					<path class="st2" d="M2.87,28.04c-0.93-1.34-1.34-2.88-0.82-4.43c1.89-4.31,6.68-6.09,11.21-7.23"/>
					<path class="st2" d="M2.87,28.04c2.26,2.26,5.15,4.12,9.37,5.35"/>
					<path class="st2" d="M39.21,32.87c0.93-0.31,1.85-0.72,2.78-1.13c2.06-1.03,4.12-2.26,5.25-4.22c0.1-0.1,0.1-0.31,0.21-0.41
						c2.37-5.56-4.84-8.96-9.16-10.29l0,0c-0.82-0.21-1.54-0.41-2.37-0.62"/>
					<path class="st2" d="M11.33,31.78c-1.13,4.38-1.61,9.35,1.01,12.42c5.97,4.74,14.62-4.22,17.91-9.16"/>
					<path class="st2" d="M24.8,8.99c13.14-10.1,15.37-0.86,13.21,9.22"/>
					<path class="st2" d="M38.28,43.07c1.84-2.96,1.13-10.84-0.54-15.32"/>
					<path class="st2" d="M21.91,38.02c6.38,6.59,12.66,10.5,16.37,5.04"/>
					<path class="st2" d="M11.82,20.32C7.5,8.99,13.06-1.92,24.69,8.89l0,0c1.02,0.9,2.01,1.86,2.94,2.92"/>
					<path class="st2" d="M37.15,21.45"/>
				</g>
				<g>
					<path class="st3" d="M16.35,4.57c2.47,0,5.46,1.34,8.34,4.32h0.21l0,0c3.4-2.78,6.49-4.12,8.85-4.12
						c4.12,0,6.28,4.12,4.53,12.15c3.91,1.34,9.37,3.4,9.68,8.13c-0.21,4.84-5.56,6.07-8.75,8.24l0,0
						c0.93,8.34-1.75,12.25-5.66,12.25c-2.47,0-5.56-1.54-8.65-4.43c-3.19,3.09-6.18,4.53-8.75,4.53c-4.43,0-7.1-4.63-5.15-12.56
						C-1.56,29.27-0.32,19.7,11.52,17.13l0,0C8.43,9.51,11.52,4.57,16.35,4.57 M16.35,2.51c-2.78,0-5.15,1.24-6.59,3.4
						c-1.65,2.47-1.96,5.87-0.93,9.68c-5.35,1.75-8.65,5.15-8.85,9.06c-0.1,4.01,3.09,7.62,8.65,9.68
						c-0.72,4.43-0.21,8.03,1.75,10.4c1.44,1.75,3.5,2.78,5.87,2.78c2.78,0,5.76-1.34,8.75-3.81c2.99,2.47,5.87,3.71,8.54,3.71
						c2.06,0,3.91-0.82,5.25-2.26c2.06-2.26,2.88-5.97,2.57-10.91c0.41-0.31,0.93-0.51,1.44-0.82c3.09-1.65,7-3.71,7.21-8.44
						c0-0.1,0-0.21,0-0.21c-0.41-5.46-5.66-7.93-9.37-9.37c0.72-4.63,0.21-8.24-1.54-10.4c-1.24-1.54-3.09-2.37-5.25-2.37
						c-2.57,0-5.66,1.24-8.85,3.6C22.22,3.85,19.24,2.51,16.35,2.51L16.35,2.51z"/>
				</g>
			</g>
		</g>
	</g>
	<g>
		<path class="st4" d="M18.05,22.66c0.08-0.32,0.16-0.65,0.24-0.97c0.24-0.73,0.65-1.46,1.13-2.11c0.89-1.13,2.03-1.78,3.4-2.11
			c1.54-0.32,3.08-0.32,4.62,0.16c0.89,0.24,1.7,0.73,2.43,1.38c0.65,0.57,1.22,1.22,1.86,1.78c0.41,0.41,0.81,0.81,1.38,1.05
			c0.65,0.32,1.38,0.41,2.03,0.41c0.89-0.08,1.7-0.41,2.35-1.05c0.41-0.32,0.73-0.65,0.97-1.05c0,0,0,0,0-0.08
			c0.08,0.08,0,0.08,0,0.16c-0.24,1.05-0.65,2.03-1.3,2.84c-0.97,1.3-2.19,2.03-3.73,2.27c-1.54,0.24-3,0.24-4.54-0.24
			c-0.81-0.24-1.46-0.65-2.11-1.22c-0.73-0.57-1.3-1.3-2.03-1.86c-0.49-0.49-0.97-0.89-1.62-1.13c-1.38-0.49-2.67-0.32-3.89,0.49
			C18.86,21.69,18.46,22.09,18.05,22.66C18.05,22.58,18.05,22.66,18.05,22.66z"/>
		<path class="st4" d="M11.5,29.85c0.08-0.41,0.16-0.73,0.32-1.13c0.32-0.89,0.73-1.62,1.38-2.35c0.57-0.65,1.3-1.13,2.11-1.46
			c0.73-0.32,1.54-0.49,2.35-0.49c0.97-0.08,1.94,0,2.84,0.24c0.97,0.24,1.86,0.73,2.67,1.38c0.73,0.57,1.3,1.3,2.03,1.86
			c0.49,0.49,0.97,0.89,1.62,1.13c1.46,0.57,2.75,0.32,3.97-0.57c0.41-0.32,0.81-0.73,1.13-1.13l0.08-0.08
			c0,0.16-0.08,0.24-0.08,0.41c-0.32,0.97-0.73,1.94-1.38,2.75c-0.89,1.13-2.03,1.78-3.4,2.11c-1.54,0.32-3.08,0.32-4.62-0.16
			c-0.89-0.24-1.7-0.73-2.43-1.38c-0.65-0.49-1.13-1.13-1.7-1.7c-0.41-0.41-0.81-0.73-1.3-1.05c-0.73-0.41-1.46-0.57-2.27-0.49
			c-0.89,0.08-1.62,0.41-2.35,0.97C12.23,29.04,11.82,29.37,11.5,29.85C11.5,29.77,11.5,29.85,11.5,29.85z"/>
	</g>
</g>
</svg>
