<svg xmlns="http://www.w3.org/2000/svg" viewBox="0 0 50 50"><defs><style>.cls-2,.cls-3{stroke-miterlimit:10;fill:none;stroke:#444}.cls-3{fill:#444}</style></defs><g id="Layer_1"><path fill="#ff6b6b" d="M43.8 13.8l-.3.1-.8-2.8-7.1-5.3-12-2.7L9.3 7.9 3.6 19.6l-.8 11.9-.4.2.3.5v.7l.3-.1L9.6 44l.9.7 36.4-13.1v-.4l.7-9.7-3.8-7.7z"/><g fill="none" stroke="#494949" stroke-miterlimit="10" stroke-width="2.5"><path stroke-linecap="round" d="M44.7 37c3.1-5.5 4.1-12.2 1.9-18.7C42.5 6.4 29.5 0 17.6 3.9 5.7 8-.7 20.9 3.2 32.9c2.5 7.3 8.3 12.6 15.2 14.7"/><circle cx="45.2" cy="36" r="1.9"/></g><path fill="#494949" d="M26.3 18.3h-3.4l-5 12.9H21l.8-2.2h4.7l-.9-2.4h-3.1l2-5.6 3.6 10.2h3.1l-4.9-12.9z"/><path d="M11.2 18.3l13.4-7.8 13.3 7.8v15.4l-13.4 7.8-13.3-7.8V18.3z" class="cls-2"/><circle cx="24.5" cy="10.5" r="2.7" class="cls-3"/><circle cx="37.9" cy="18.3" r="2.7" class="cls-3"/><circle cx="38.1" cy="33.7" r="2.7" class="cls-3"/><circle cx="24.6" cy="41.5" r="2.7" class="cls-3"/><path d="M24.5 10.5L11.2 33.7h26.9L24.5 10.5z" class="cls-2"/><circle cx="11.2" cy="18.3" r="2.7" class="cls-3"/><circle cx="11.2" cy="33.7" r="2.7" class="cls-3"/></g></svg>