<svg xmlns="http://www.w3.org/2000/svg" id="Layer_1" x="0" y="0" version="1.1" viewBox="0 0 50 50" xml:space="preserve"><style>.st5,.st8{stroke:#444;stroke-miterlimit:10}.st5{stroke-linecap:round;stroke-linejoin:round;fill:none;stroke-width:2.5}.st8{fill:#444;stroke-width:.5}</style><path fill="#e56060" d="M126.4 586.6l1.7 3.5v4.9l-14 5.1-.1-.6-1.1.3-.1 2.5 1.1.5v4.7l-2.7 1.2-2.2-1.6-.1-5.1-7.8 2.8v-2l-4.9-.4.3-9.7 1.5-1.1.2-4.6 16.7-6 .8 3.3 4.2-1.4z"/><path fill="#ff6b6b" d="M114.6 574.3l.1 1.2v8.1l-16.2 5.8 7.5-11.8 3.7-4.5 3-2.9 1.9 3.3z"/><path fill="#444" d="M122.7 605.9l-.1-2.9h-.7c.1 0 .3 0 .4-.1.2-.1.3-.2.4-.4.1-.2.2-.4.2-.6v-1.8c0-.1 0-.3-.1-.4-.1-.2-.2-.3-.4-.4-.2-.1-.4-.2-.6-.2h-.4v-3l.1-.1c.1-.1.2-.1.4-.2s.5-.2.7-.2c.1 0 .2 0 .3-.1v.3c0 .1 0 .3.1.4.1.2.2.3.4.4.2.1.4.2.6.2h1.9c.1 0 .3 0 .4-.1.2-.1.3-.2.4-.4.1-.2.2-.3.2-.6v-8.5c0-.1 0-.3-.1-.4-.1-.2-.2-.3-.4-.4-.2-.1-.4-.2-.6-.2H124c-.1 0-.3 0-.4.1-.2.1-.3.2-.4.4-.1.2-.2.3-.2.6v.6h-3c-.9 0-1.7.2-2.5.5-1.2.5-2.1 1.3-2.8 2.2-.7 1-1.1 2.2-1.1 3.5v5h-.4c-.1 0-.3 0-.4.1-.2.1-.3.2-.4.4-.1.2-.2.3-.2.6v1.8c0 .1 0 .3.1.4.1.2.2.3.4.4.2.1.4.2.6.2h.4l.2 3c0 .3-.1.6-.2.8-.2.4-.4.7-.8.9-.3.2-.8.4-1.2.4-.3 0-.6-.1-.9-.2-.4-.2-.7-.4-1-.8-.2-.3-.4-.7-.4-1.2v-7.2c0-.8-.2-1.5-.4-2.1-.4-1-1.2-1.8-2.1-2.4-.9-.6-2-.9-3.2-.9l-3.5.3v-.4c0-.1 0-.2-.1-.4s-.2-.3-.3-.4c-.1-.1-.3-.2-.5-.2h-1.9c-.1 0-.3 0-.4.1-.2.1-.3.2-.4.3-.1.1-.2.3-.2.5v8c0 .1 0 .2.1.4s.2.3.3.4c.1.1.3.2.5.2h1.9c.1 0 .3 0 .4-.1.2-.1.3-.2.4-.3.1-.1.1-.2.1-.4.1 0 .2 0 .3.1.2 0 .3.1.5.2.1 0 .2.1.3.1.1 0 .1.1.2.1 0 0 .1 0 .1.1v4.1c0 1.3.3 2.6.8 3.8.5 1.2 1.4 3.3 2.3 4.1.9.9 2 1.6 3.2 2.1 1.2.5 2.6.8 3.9.8 1.3 0 2.7-.3 3.9-.8 1.2-.5 2.3-1.2 3.2-2.1.2-.2.4-.5.6-.7.2-.2.1-.5-.1-.7-.2-.2-.5-.1-.7.1l-.6.6c-.8.8-1.8 1.4-2.9 1.9-1.1.5-2.3.7-3.5.7-1.2 0-2.4-.2-3.5-.7-1.1-.4-2-1.1-2.9-1.9-.8-.8-1.7-2.8-2.1-3.8-.5-1.1-.7-2.2-.7-3.4v-4.4c0-.1-.1-.2-.1-.2l-.3-.3c-.1-.1-.2-.1-.3-.2l-.6-.3-.9-.3c-.1 0-.2 0-.3-.1v-5.7l3.6-.3c.6 0 1.2.1 1.8.4.8.3 1.6.9 2.1 1.6.5.7.8 1.6.8 2.5v7.2c0 .4.1.8.3 1.2.2.6.7 1 1.2 1.4.5.3 1.1.5 1.8.5.4 0 .9-.1 1.2-.3.6-.2 1.1-.6 1.4-1.1.3-.5.5-1.1.5-1.7l-.2-2.9h6.5l.5 2.9m-24.1-12.3h1.8v7.2h-1.8v-7.5.3zm26.7-5.8h1.9v7.9H124v-8.2.3zm-1.8 7c-.2.1-.4.1-.6.2-.1.1-.3.1-.4.2-.1 0-.2.1-.3.2-.1 0-.1.1-.2.1-.1.1-.2.2-.2.3 0 .1-.1.1-.1.2v3.7c0 .1.1.3.2.3.1.1.2.1.4.1h.9v1.8h-8.7v-1.8h.9c.1 0 .3-.1.4-.1.1-.1.1-.2.1-.3v-5.5c0-.7.1-1.4.4-2 .4-.9 1.1-1.7 1.9-2.3.9-.6 1.9-.9 3-.9h2.9v5.7c-.1 0-.3 0-.6.1z"/><path fill="none" stroke="#444" stroke-linecap="round" stroke-linejoin="round" stroke-miterlimit="10" d="M101.6 593.7s2.7-2.8 3.5-3.2c0 0-.4 3 .3 3.6m2.5 1.8s4-.9 1.3-4.9c-1.4-2.1-4.2-2.9-.8-8.3 0 0-.5 3.1 4.9 5.7.8.4 2.1 1.1 2.7 1.4"/><path fill="none" stroke="#444" stroke-linecap="round" stroke-linejoin="round" stroke-miterlimit="10" stroke-width=".75" d="M98.2 592.9s-1.2-5.2 7.3-13.9c8.2-8.4 7.2-10 7.2-10s2.5.6 1.9 8.4c-.2 2.9-1.9 4.4.1 6.6 2 2.2 6-.3 5.3-1.9 0 0 1.5 1 4.3 5.3"/><path d="M121.8 609.2c0-.1 0-.2.1-.2 0 0-.1.1-.1.2zm.4-1.7l-.3 1.5c.2-.9.3-1.5.3-1.5z" class="st5"/><path d="M122.2 607.5c0-.3.1-.7.1-1v-3.1h.3c.1 0 .3 0 .4-.1.2-.1.3-.2.5-.4.1-.2.2-.4.2-.6v-3c-.1-.2-.2-.3-.4-.4-.2-.1-.4-.2-.6-.2h-.5l-.1-2.4.1-.1c.1-.1.2-.1.4-.2s-.5.3-.2.2c0 0 .2 0 .3-.1v-.2c0 .1 0 .3.1.4.1.2.2.3.4.4.2.1.4.2.6.2h2.9c.1 0 .3 0 .4-.1.2-.1.3-.2.5-.4.1-.2.2-.4.2-.6v-8.7c0-.1 0-.3-.1-.4-.1-.2-.2-.3-.4-.4-.2-.1-.4-.2-.6-.2h-1.9c-.1 0-.3 0-.4.1-1.6-2.1-3-3.4-4-4.1-.4-.3-.9-.1-1 .4-.4 1.5-2.6 3-4.3 1.2-2-2.2-.3-3.8-.1-6.8.4-4.4-.8-6.7-1.9-7.8-.4-.4-1.1-.1-1.1.5.1 1.5-.9 4.3-6.3 9-7.6 6.6-7.8 11.8-7.6 13.6h-.9c-.1 0-.3 0-.4.1-.2.1-.3.2-.4.3-.1.1-.2.3-.2.5v8.3c0 .1 0 .3.1.4.1.2.2.3.3.4.2.1.3.2.5.2h2c.1 0 .3 0 .4-.1.2-.1 0-.1.1-.2s.5-.2.5-.3c.3.1-.1 0 0 0 .2 0 .3.1.5.2.1 0 .2.1.3.1.1 0 .1.1.2.1l.1.1.3 4.1c0 1.3.3 2.7.8 3.9.5 1.2 1.3 2.3 2.2 3.2.9.9 2 1.6 3.3 2.1 1.3.5 2.6.8 4 .8s2.7-.3 4-.8c1-.4 1.9-.9 2.7-1.6.1 0 3.4-2.7 3.7-6.5z" class="st5"/><path fill="#b9d7d9" d="M26.5 10.3l3.9-.3 8.4 3.3 1.7 5.7L2.4 32.9l-1-6.3 5.1-7.2 4-9 7.8-2.6z"/><path fill="#a6c1c2" d="M46.2 20.4v.5l1.1 2.2L8.7 37l-4.6-1.4-1.8-1.3-1.6-4 .5-3.3 36.6-14.1 1.5.6 2.3 5.6z"/><path d="M33.2 22.3c1.2-4.5.9-7.9-1.1-9-1.6-.9-3.9-.2-6.7 2-.6.5-1.2 1.1-1.7 1.6-.6-.6-1.2-1.1-1.7-1.6-2.6-2.2-5.1-3-6.7-2-2 1.1-2.3 4.7-1.1 9-4.5 1.2-7.3 3.3-7.3 5.4 0 2.3 2.8 4.4 7.3 5.4-.2.8-.5 1.6-.5 2.3-.6 3.4 0 5.9 1.6 6.7.5.3.9.5 1.6.5 1.4 0 3.1-.8 5.1-2.3.6-.5 1.2-1.1 1.7-1.6.6.6 1.2 1.1 1.7 1.6 1.9 1.6 3.7 2.3 5.1 2.3.6 0 1.1-.2 1.6-.5 1.6-.9 2.2-3.3 1.6-6.7-.2-.8-.3-1.6-.5-2.3 4.5-1.2 7.3-3.3 7.3-5.4 0-2.3-2.8-4.3-7.3-5.4zm-7.3-6.7c1.9-1.4 3.4-2.2 4.7-2.2.5 0 .9.2 1.2.3 1.7.9 1.9 4.2.8 8.4-1.6-.3-3.3-.6-5.1-.8-1.1-1.6-2.2-2.8-3.3-4 .6-.6 1-1.2 1.7-1.7zm2.9 15.1c-.6.9-1.2 2-1.9 2.8-1.1.2-2.2.2-3.4.2-1.1 0-2.3 0-3.4-.2-.6-.9-1.2-1.9-1.9-2.8-.6-.9-1.1-2-1.6-3 .5-.9.9-2 1.6-3 .6-.9 1.2-2 1.9-2.8 1.1-.2 2.2-.2 3.4-.2s2.3 0 3.4.2c.6.9 1.2 1.9 1.9 2.8.6.9 1.1 2 1.6 3-.5 1-1 2.1-1.6 3zm2-2.2c.6 1.4 1.2 2.8 1.6 4.2-1.4.3-2.8.6-4.5.8.5-.8 1.1-1.6 1.6-2.5.4-.8.9-1.7 1.3-2.5zm-7.1 9.4c-.9-1.1-2-2.2-3-3.6.9 0 1.9.2 3 .2s2 0 3-.2c-1 1.2-2.1 2.5-3 3.6zm-4.2-4.4c-1.6-.2-3.1-.5-4.5-.8.5-1.4.9-2.8 1.6-4.2.5.8.9 1.7 1.4 2.5.4.9.9 1.7 1.5 2.5zm-3-6.5c-.6-1.4-1.2-3-1.6-4.2 1.4-.3 2.8-.6 4.5-.8-.5.8-1.1 1.6-1.6 2.5-.3.9-.8 1.7-1.3 2.5zm7.2-9.4c.9 1.1 2 2.2 3 3.6-.9 0-1.9-.1-3-.1s-2 0-3 .2c1-1.3 2.1-2.6 3-3.7zm5.7 6.9c-.5-.8-.9-1.7-1.6-2.5 1.6.2 3.1.5 4.5.8-.5 1.4-.9 2.8-1.6 4.2-.3-.8-.8-1.7-1.3-2.5zM15.6 13.7c1.2-.8 3.4 0 5.9 1.9.6.5 1.1.9 1.7 1.6-1.1 1.2-2.2 2.5-3.3 4-1.9.2-3.6.5-5.1.8-1.1-4-.9-7.3.8-8.3zm-8.1 14c0-2 2.8-3.7 6.8-4.8.5 1.6 1.1 3.1 1.9 4.8-.8 1.7-1.4 3.3-1.9 4.8-4-1-6.8-2.7-6.8-4.8zm14 12.2c-2.5 2-4.7 2.6-5.9 1.9-1.2-.8-1.7-3-1.2-6.1.2-.8.3-1.6.5-2.3 1.6.3 3.3.6 5.1.8 1.1 1.6 2.2 2.8 3.3 4-.7.6-1.2 1.2-1.8 1.7zM33 35.7c.5 3.1 0 5.3-1.2 6.1-1.2.8-3.4 0-5.9-1.9-.6-.5-1.1-.9-1.7-1.6 1.1-1.2 2.2-2.5 3.3-4 1.9-.2 3.6-.5 5.1-.8.1.6.4 1.4.4 2.2zm0-3.1c-.5-1.6-1.1-3.3-1.9-4.8.8-1.7 1.4-3.3 1.9-4.8 4 1.1 6.8 2.8 6.8 4.8s-2.7 3.7-6.8 4.8z" class="st8"/><circle cx="24" cy="28.6" r="3.5" class="st8"/><path fill="#444" stroke="#444" stroke-miterlimit="10" stroke-width=".75" d="M40.1 37.9l-3.1.2c-.5 0-1.1-.7-1.1-1.3 0-.5.6-.8 1.1-.8h3.2c4.3 0 7.8-3.5 7.8-7.8 0-4-3.1-7.4-7.1-7.8-.5 0-.8-.4-.9-.9-.4-4.7-4.3-8.4-9.1-8.4-1.3 0-2.6.3-3.8.8-.3.1-.7.1-1-.1-2-1.7-4.5-2.6-7.2-2.6C12.8 9.2 8 14 7.8 20c0 .4-.3.7-.6.9-3.1 1.1-5.1 4-5.1 7.3 0 4.3 3.5 7.8 7.8 7.8h.8c.5 0 1 .4 1 1 0 .5-.4 1-1 1h-.8C4.6 38 .2 33.7.2 28.3c0-3.9 2.3-7.4 5.8-8.9.5-6.8 6.1-12 12.9-12 2.9 0 5.7.9 7.9 2.7 1.3-.5 2.7-.8 4-.8 5.5 0 10.1 4.1 10.9 9.4 4.6.8 8.1 4.9 8.1 9.6 0 5.3-4.3 9.6-9.7 9.6z"/></svg>