<svg xmlns="http://www.w3.org/2000/svg" id="Layer_1" x="0" y="0" version="1.1" viewBox="0 0 50 50" xml:space="preserve"><style>.st4{fill:#444}</style><path fill="#00dffc" d="M46.1 19.1H32.8c-.8 0-1.4-11.6-1.4-10.8l-29 .2-.2 21.6 6.4.6.2 7 7.6-6.9h4.9l.8 7 7.1.3 18.4-6.5v-11c-.1-.9-.7-1.5-1.5-1.5z"/><path fill="none" stroke="#444" stroke-linecap="round" stroke-miterlimit="10" stroke-width=".5" d="M36.4 25.4h-.7c-.4 0-.8.4-.8.8v2.6s0 1-1.3 1m2.8 4.4h-.7c-.4 0-.8-.4-.8-.8v-2.6s0-1-1.3-1m6.3-4.4h.7c.4 0 .8.4.8.8v2.6s0 1 1.3 1m-2.8 4.4h.7c.4 0 .8-.4.8-.8v-2.6s0-1 1.3-1"/><path fill="none" stroke="#444" stroke-linecap="round" stroke-linejoin="round" stroke-miterlimit="10" d="M20.7 30.3h8.8c1 0 1.8-.8 1.8-1.8v-9.7"/><path fill="none" stroke="#444" stroke-linecap="round" stroke-miterlimit="10" d="M11.6 22.4s5.8 4 10.7 0"/><circle cx="10.4" cy="17.8" r="1.2" class="st4"/><circle cx="23.4" cy="17.8" r="1.2" class="st4"/><path fill="none" stroke="#444" stroke-linecap="round" stroke-linejoin="round" stroke-miterlimit="10" stroke-width="2.5" d="M42 38.3v5.5c0 .5-.6.7-.9.4l-5.9-5.8H23.1c-1 0-1.8-.8-1.8-1.8V31h-4.9l-6.9 6.8c-.3.3-.9.1-.9-.4V31H3.8c-1 0-1.8-.8-1.8-1.8V10.5c0-1 .8-1.8 1.8-1.8h26.5c1 0 1.8.8 1.8 1.8v9.3h14c1 0 1.8.8 1.8 1.8v13.3"/></svg>