<?xml version="1.0" encoding="utf-8"?>
<!-- Generator: Adobe Illustrator 24.0.3, SVG Export Plug-In . SVG Version: 6.00 Build 0)  -->
<svg version="1.1" id="Layer_1" xmlns="http://www.w3.org/2000/svg" xmlns:xlink="http://www.w3.org/1999/xlink" x="0px" y="0px"
	 viewBox="0 0 50 50" style="enable-background:new 0 0 50 50;" xml:space="preserve">
<style type="text/css">
	.st0{fill:#46B8B0;}
	.st1{fill:#4ECDC4;}
	.st2{fill:none;stroke:#444444;stroke-width:2.5;stroke-linecap:round;stroke-linejoin:round;stroke-miterlimit:10;}
	.st3{fill:none;stroke:#444444;stroke-miterlimit:10;}
	.st4{fill:#444444;stroke:#444444;stroke-miterlimit:10;}
</style>
<polygon class="st0" points="47.8,24.2 47.8,28.5 1.7,45 1.3,32.3 1.2,28.3 47.8,11.3 "/>
<polygon class="st1" points="48.2,8.7 48.2,12.3 1.8,29.2 2,21.9 2,17.9 48.3,3.1 "/>
<polyline class="st2" points="30.3,48 1.7,48 1.7,1.9 48.1,1.9 48.1,48 43.2,48 "/>
<g>
	<g>
		<path class="st3" d="M15.4,18.6c-3.9,1.1-6.5,2.8-6.5,4.8s2.5,3.7,6.5,4.8c0.5-1.5,1.1-3.1,1.9-4.8C16.5,21.8,15.9,20.2,15.4,18.6
			z"/>
		<path class="st3" d="M40.9,23.4c0-2.2-3.2-4.2-8.1-5.2c-0.5,1.7-1.1,3.5-2,5.3c0.8,1.8,1.6,3.5,2,5.1
			C37.7,27.6,40.9,25.7,40.9,23.4z"/>
		<path class="st3" d="M32.9,18.2c1.1-4.1,0.9-7.3-0.8-8.3c-1.8-1-4.8,0.4-7.8,3.5c1.1,1.2,2.2,2.5,3.2,4
			C29.4,17.6,31.2,17.9,32.9,18.2z"/>
		<path class="st3" d="M29.2,20.3c0.6,1.1,1.2,2.2,1.7,3.2c0.9-1.9,1.6-3.7,2-5.3c-1.6-0.4-3.5-0.6-5.4-0.7
			C28,18.4,28.6,19.3,29.2,20.3z"/>
		<path class="st3" d="M18.8,26.3c-0.5-0.9-1-1.9-1.5-2.8c-0.8,1.7-1.2,3.3-1.6,4.8c1.6,0.4,3.1,0.7,5,0.9
			C20,28.2,19.4,27.3,18.8,26.3z"/>
		<path class="st3" d="M24.2,13.5C21,10.1,17.9,8.4,16,9.4c-1.9,1.1-2,4.7-0.6,9.2c1.6-0.4,3.4-0.8,5.4-1
			C21.9,16.1,23.1,14.7,24.2,13.5z"/>
		<path class="st3" d="M18.8,20.7c0.6-1.1,1.3-2.1,2-3.1c-2,0.2-3.8,0.5-5.4,1c0.5,1.5,1.1,3.2,1.9,4.9
			C17.8,22.6,18.3,21.7,18.8,20.7z"/>
		<path class="st3" d="M29.2,26.8c-0.5,0.9-1,1.7-1.5,2.5c1.9-0.1,3.6-0.4,5.2-0.7c-0.5-1.6-1.1-3.2-1.9-5
			C30.4,24.6,29.8,25.7,29.2,26.8z"/>
		<path class="st3" d="M20.8,17.7c1.3-0.1,2.7-0.2,4.1-0.2c0.9,0,1.7,0,2.5,0.1c-1-1.5-2.1-2.9-3.2-4C23.1,14.7,21.9,16.1,20.8,17.7
			z"/>
		<path class="st3" d="M27.4,17.5c-0.8,0-1.7-0.1-2.5-0.1c-1.4,0-2.8,0.1-4.1,0.2c-0.7,1-1.3,2-2,3.1c-0.5,0.9-1,1.8-1.5,2.8
			c0.4,0.9,0.9,1.9,1.5,2.8c0.6,1,1.1,2.1,1.8,2.9c1.4,0.2,2.8,0.2,4.3,0.2c0.9,0,1.8,0,2.6-0.1c0.6-0.8,1.1-1.7,1.6-2.6
			c0.6-1.1,1.2-2.2,1.7-3.2c-0.5-1.1-1-2.1-1.7-3.2C28.6,19.3,28,18.4,27.4,17.5z"/>
	</g>
	<g>
		<circle class="st4" cx="24.3" cy="23.6" r="2.2"/>
		<circle class="st3" cx="18.2" cy="31.4" r="2.2"/>
		<circle class="st3" cx="30.4" cy="31.4" r="2.2"/>
		<circle class="st3" cx="14.3" cy="38.9" r="2.2"/>
		<circle class="st3" cx="22.4" cy="38.9" r="2.2"/>
		<circle class="st3" cx="30.4" cy="38.9" r="2.2"/>
		<line class="st3" x1="22.7" y1="25" x2="19.5" y2="29.4"/>
		<line class="st3" x1="25.9" y1="25" x2="29.1" y2="29.4"/>
		<line class="st3" x1="17.1" y1="33.5" x2="15.2" y2="37.3"/>
		<line class="st3" x1="19.3" y1="33.5" x2="21.2" y2="37.3"/>
		<line class="st3" x1="30.4" y1="33.6" x2="30.4" y2="36.7"/>
	</g>
</g>
</svg>
