<?xml version="1.0" encoding="UTF-8"?>
<svg id="Layer_1" data-name="Layer 1" xmlns="http://www.w3.org/2000/svg" version="1.1" viewBox="0 0 50 50">
  <defs>
    <style>
      .cls-1 {
        stroke-width: .5px;
      }

      .cls-1, .cls-2, .cls-3 {
        fill: none;
        stroke: #444;
        stroke-linecap: round;
        stroke-linejoin: round;
      }

      .cls-4 {
        fill: #a475ef;
        stroke-width: 0px;
      }

      .cls-3 {
        stroke-width: 2.5px;
      }
    </style>
  </defs>
  <polygon class="cls-4" points="41.9 7.8 34 8 33.3 5.5 27.6 4.7 26.7 2.3 23 2 21.1 4.8 15.6 5.5 15.5 8.2 8.2 8.5 9.1 46.7 18.4 49.5 42.6 39.4 41.9 7.8"/>
  <line class="cls-1" x1="17.5" y1="18.7" x2="31.9" y2="18.7"/>
  <line class="cls-1" x1="17.5" y1="22.7" x2="31.9" y2="22.7"/>
  <line class="cls-1" x1="17.5" y1="26.7" x2="31.9" y2="26.7"/>
  <line class="cls-1" x1="17.5" y1="31.1" x2="31.9" y2="31.1"/>
  <path class="cls-3" d="M42.2,40.4V10.5c0-1-.9-1.8-2-1.8h-5.9v-3.6h-6.8v-.7c0-1.6-1.3-2.9-2.9-2.9s-2.9,1.3-2.9,2.9v.7h-6.8v3.6h-5.2c-1.1,0-2,.8-2,1.8v34.4c0,1.8,6.1,4.6,7.6,4.6h18.6"/>
  <polyline class="cls-2" points="34.5 11.1 37.4 11.1 37.4 44.2 11.9 44.2 11.9 11.1 15 11.1"/>
  <polyline class="cls-2" points="15 6.6 15 12.9 34.5 12.9 34.4 5.8"/>
</svg>