<?xml version="1.0" encoding="utf-8"?>
<!-- Generator: Adobe Illustrator 28.2.0, SVG Export Plug-In . SVG Version: 6.00 Build 0)  -->
<svg version="1.1" id="Camada_1" xmlns="http://www.w3.org/2000/svg" xmlns:xlink="http://www.w3.org/1999/xlink" x="0px" y="0px"
	 viewBox="0 0 50 50" style="enable-background:new 0 0 50 50;" xml:space="preserve">
<style type="text/css">
	.st0{fill:#F799FF;}
	.st1{fill:#E589EF;}
	.st2{fill:#031326;}
	.st3{fill:none;stroke:#444444;stroke-width:0.821;stroke-linecap:round;stroke-miterlimit:10;}
	.st4{fill:#444444;}
</style>
<g>
	<path class="st0" d="M24.7,2C12.3,2,2.3,12.1,2.3,24.5c0,7.6,3.8,14.4,9.7,18.4l34.5-12.5c0.5-1.9,0.8-3.9,0.8-5.9
		C47.2,12.1,37.1,2,24.7,2z"/>
	<path class="st1" d="M12,42.8l34.2-12.5c0.5-1.9,0.8-3.9,0.8-5.9C47,12.2,37,2.2,24.7,2.2S2.4,12.2,2.4,24.5
		C2.4,32.1,6.2,38.8,12,42.8z"/>
	<path class="st2" d="M24.7,48c-13,0-23.5-10.5-23.5-23.5S11.8,1,24.7,1s23.5,10.5,23.5,23.5c0,2.1-0.3,4.2-0.8,6.2
		c-0.2,0.6-0.7,0.9-1.3,0.7c-0.6-0.2-0.9-0.7-0.7-1.3c0.5-1.8,0.7-3.7,0.7-5.6c0-11.8-9.6-21.4-21.4-21.4
		c-11.8,0-21.4,9.6-21.4,21.4s9.6,21.4,21.4,21.4c0.6,0,1,0.5,1,1C25.8,47.5,25.3,48,24.7,48z"/>
	<circle class="st2" cx="24.7" cy="24.5" r="2.3"/>
	<ellipse class="st3" cx="24.7" cy="24.5" rx="12.4" ry="4.7"/>
	<ellipse transform="matrix(0.5 -0.866 0.866 0.5 -8.8427 33.6507)" class="st3" cx="24.7" cy="24.5" rx="12.4" ry="4.7"/>
	<ellipse transform="matrix(0.866 -0.5 0.5 0.866 -8.9285 15.6398)" class="st3" cx="24.7" cy="24.5" rx="4.7" ry="12.4"/>
	<g>
		<circle class="st4" cx="24.7" cy="24.5" r="2.3"/>
		<path class="st2" d="M-0.3-0.5"/>
		<path class="st4" d="M24.7,0.9c-13,0-23.6,10.6-23.6,23.6c0,13,10.6,23.6,23.6,23.6c0.7,0,1.2-0.6,1.2-1.2s-0.6-1.2-1.2-1.2
			c-11.6,0-21.1-9.4-21.1-21.1S13.1,3.4,24.7,3.4c11.6,0,21.1,9.4,21.1,21.1c0,1.9-0.2,3.7-0.7,5.5c-0.2,0.7,0.2,1.4,0.9,1.5
			c0.7,0.2,1.4-0.2,1.5-0.9l0,0c0.5-2,0.8-4.1,0.8-6.2C48.3,11.5,37.7,0.9,24.7,0.9z"/>
		<path class="st4" d="M24.7,6.9C15,6.9,7.1,14.8,7.1,24.5S15,42.1,24.7,42.1s17.6-7.9,17.6-17.6S34.4,6.9,24.7,6.9z M24.7,41.6
			c-9.4,0-17.1-7.7-17.1-17.1S15.3,7.4,24.7,7.4S41.9,15,41.9,24.5S34.2,41.6,24.7,41.6z"/>
	</g>
</g>
</svg>
