<?xml version="1.0" encoding="utf-8"?>
<!-- Generator: Adobe Illustrator 26.1.0, SVG Export Plug-In . SVG Version: 6.00 Build 0)  -->
<svg version="1.1" id="Camada_1" xmlns="http://www.w3.org/2000/svg" xmlns:xlink="http://www.w3.org/1999/xlink" x="0px" y="0px"
	 viewBox="0 0 50 50" style="enable-background:new 0 0 50 50;" xml:space="preserve">
<style type="text/css">
	.st0{fill:none;stroke:#494949;stroke-width:0.5;stroke-linecap:round;stroke-linejoin:round;stroke-miterlimit:10;}
	.st1{fill:#DC5E82;}
	.st2{fill:#F56991;}
	.st3{fill:none;stroke:#494949;stroke-linecap:round;stroke-linejoin:round;stroke-miterlimit:10;}
	.st4{fill:none;stroke:#494949;stroke-width:2.5;stroke-linecap:round;stroke-linejoin:round;stroke-miterlimit:10;}
</style>
<g>
	<line class="st0" x1="26.2" y1="31.8" x2="2.3" y2="31.8"/>
	<g>
		<path class="st1" d="M43.9,7.6v8.8l-3.8,1.4L25,23.3l-1,0.4l-2.7,1l-10.4,3.8l0,0l0,0l-9,3.3v-16l3.7-1.4l11.6-4.2l10.4-3.8h15.2
			C43.4,6.4,43.9,6.9,43.9,7.6z"/>
	</g>
	<g>
		<path class="st2" d="M29.2,6.4l-10.4,3.8L5.6,15.1l-3.7,1.4V7.6C1.9,7,2.4,6.4,3,6.4H29.2z"/>
	</g>
	<g>
		<g>
			<g>
				<g>
					<polyline class="st3" points="19.3,24.6 25,24.6 25,18.9 					"/>
					<line class="st0" x1="24.6" y1="24.3" x2="18.4" y2="18"/>
				</g>
				<g>
					<polyline class="st3" points="14.8,14 9.1,14 9.1,19.7 					"/>
					<line class="st0" x1="9.3" y1="14.2" x2="15.6" y2="20.6"/>
				</g>
			</g>
			<g>
				<g>
					<path class="st4" d="M43.9,21.1c0-1.6,0-3.1,0-4.7c0-2.9,0-5.9,0-8.8c0-0.6-0.5-1.2-1.2-1.2H29.2h-1.6H3
						c-0.6,0-1.1,0.5-1.1,1.2c0,2.7,0,5.5,0,8.3c0,0.2,0,0.4,0,0.6c0,5.1,0,10.2,0,15.3c0,0.1,0,0.3,0,0.4"/>
					<path class="st3" d="M28.8,28.6c-7.7-0.1-15.5-0.1-23.2-0.2V10.2h34.6c0,4,0,8.1,0,12.1"/>
					<path class="st4" d="M1.8,32.2c0,1.2,0,2.4,0,3.6c0.5,0.5,0.9,1,1.4,1.4c7.9,0,15.8,0,23.7,0"/>
					<path class="st4" d="M18.2,37.2c-0.1,0.9,0.1,2.8-0.1,3.8c-0.2,0.9-0.3,0.9-0.8,1.2c-0.3,0.1-0.7,0.3-1.1,0.5l0,0"/>
					<path class="st4" d="M26.8,37.2c0.1,0.9-0.1,2.8,0.1,3.8c0.2,0.9,0.3,0.9,0.8,1.2c0.3,0.1,0.7,0.3,1.1,0.5l0,0"/>
					<path class="st4" d="M16.3,42.9c4.2,0,8.3,0,12.5,0"/>
				</g>
			</g>
		</g>
	</g>
</g>
<g>
	<g>
		<g>
			<path class="st0" d="M28.7,35.2c-1.8-3.2,3.1-4.7,5.5-5.2"/>
			<path class="st0" d="M28.7,35.2c1.5,1.6,4.3,2.6,6.8,2.9"/>
			<path class="st0" d="M37.1,38.1c15.3,0.4,11.8-10-1.3-8.3"/>
			<path class="st0" d="M37.1,28c-6.9,5.5-7.2,22.5,3.1,10.2"/>
			<path class="st0" d="M38.1,27.1c8.3-6.4,6.1,6,3.2,9.7"/>
			<path class="st0" d="M43.6,41.6c1-1.6,0.3-6.6-0.8-7.6"/>
			<path class="st0" d="M34.2,35.6c2.7,4.8,7.3,9.1,9.5,5.9"/>
			<path class="st0" d="M33.2,33.8c-5.2-10.7,5.3-10.2,8.6-1.7"/>
			<path class="st0" d="M38,32.8c1.4,0,1.4,2.2,0,2.2S36.6,32.8,38,32.8z"/>
		</g>
	</g>
</g>
</svg>
