<svg xmlns="http://www.w3.org/2000/svg" id="Layer_1" x="0" y="0" version="1.1" viewBox="0 0 50 50" xml:space="preserve"><style>.st2{fill:none;stroke:#444;stroke-width:.5;stroke-linecap:round;stroke-linejoin:round;stroke-miterlimit:10}</style><path fill="#ff6b6b" d="M43.3 2.4L8.2 4.5c-1.1 0 .1 13.7.1 14.9l-.1 10.3-.4 8.1 1 9.4 9.9.5 25.6-9.1V17.2c0-1.1.1-14.8-1-14.8z"/><path fill="none" stroke="#444" stroke-linecap="round" stroke-linejoin="round" stroke-miterlimit="10" stroke-width="2.5" d="M43.9 38L44 2.1 7.5 4.3l1.1 42.5 26.3 1.1"/><path d="M33.1 4l-.1 7.8 3.2-2.3 3.1 2.3-.3-8.9M13.4 22.7l3.8-10.8h3.9l3.5 10.8h-3.2l-.8-2.3h-3.2l-.7 2.2z" class="st2"/><path d="M17.8 18.3h2.4l-1.1-3.6zm7.6-1h2.5s0-1.1 1.2-1.1c0 0 .9 0 .9.9 0 0 0 1.1-2.1 1.1 0 0-2.7-.2-2.7 2 0 0-.2 2.4 2.7 2.4 0 0 1.8-.1 2.3-1.4v1.4h2.6v-5.3s.2-3-3.6-3c-.1.1-3.8 0-3.8 3z" class="st2"/><path d="M29.9 18.9s-.5.3-1.2.3c0 0-1 0-1 .9 0 0 .1.9 1.1.6.1.1 1.1-.1 1.1-1.8zM38.5 31H13.7c-.3 0-.6-.2-.6-.6v-3.9c0-.3.2-.6.6-.6h24.8c.3 0 .6.2.6.6v3.9c0 .3-.3.6-.6.6zM24.9 41.7H13.7c-.3 0-.6-.3-.6-.6v-7.7c0-.3.3-.6.6-.6h11.1c.3 0 .6.3.6.6v7.7c.1.3-.2.6-.5.6zM13.4 33l11.8 8.5m-11.9-.1l12-8.4" class="st2"/></svg>