<?xml version="1.0" encoding="utf-8"?>
<!-- Generator: Adobe Illustrator 26.5.0, SVG Export Plug-In . SVG Version: 6.00 Build 0)  -->
<svg version="1.1" id="Camada_1" xmlns="http://www.w3.org/2000/svg" xmlns:xlink="http://www.w3.org/1999/xlink" x="0px" y="0px"
	 viewBox="0 0 50 50" style="enable-background:new 0 0 50 50;" xml:space="preserve">
<style type="text/css">
	.st0{fill:#E56060;}
	.st1{fill:#FF6B6B;}
	.st2{fill:none;stroke:#494949;stroke-width:2.5;stroke-linecap:round;stroke-linejoin:round;stroke-miterlimit:10;}
	.st3{fill:none;stroke:#494949;stroke-linecap:round;stroke-linejoin:round;stroke-miterlimit:10;}
	.st4{fill:#494949;stroke:#494949;stroke-linecap:round;stroke-linejoin:round;stroke-miterlimit:10;}
</style>
<g>
	<polygon class="st0" points="3.7,36.6 31.1,26.7 35.5,25.1 48,20.5 49.1,20.1 48.4,14.7 48,8.5 47.9,7.1 47.3,6.8 44.5,5.5 
		42.6,4.7 42.6,4.7 42.6,4.7 40.3,5.5 2,19.4 1.2,19.7 1.2,19.7 1.2,20.5 1.2,25.2 	"/>
	<polygon class="st1" points="46.7,4.8 49,8.1 0.9,25.3 2,7.7 5.1,4.7 34.9,4.5 	"/>
	<g id="connect">
		<line class="st2" x1="14.1" y1="45.5" x2="36" y2="45.5"/>
		<rect x="20.8" y="37" class="st2" width="8.5" height="8.4"/>
		<path class="st2" d="M44.7,37H5.3C3.5,37,2,35.6,2,33.8V8.8C2,7,3.5,5.6,5.3,5.6h39.4C46.5,5.6,48,7,48,8.8v24.9
			C48,35.6,46.5,37,44.7,37z"/>
	</g>
	<g>
		<g>
			<circle class="st3" cx="16.6" cy="26.1" r="2.4"/>
			<circle class="st4" cx="25" cy="26.1" r="2.4"/>
			<circle class="st4" cx="25" cy="14.7" r="2.4"/>
			<circle class="st3" cx="33.4" cy="26.1" r="2.4"/>
			<circle class="st3" cx="20.8" cy="20.4" r="2.4"/>
			<circle class="st4" cx="29.2" cy="20.4" r="2.4"/>
		</g>
	</g>
</g>
</svg>
