<?xml version="1.0" encoding="utf-8"?>
<!-- Generator: Adobe Illustrator 28.0.0, SVG Export Plug-In . SVG Version: 6.00 Build 0)  -->
<svg version="1.1" id="Layer_1" xmlns="http://www.w3.org/2000/svg" xmlns:xlink="http://www.w3.org/1999/xlink" x="0px" y="0px"
	 viewBox="0 0 50 50" style="enable-background:new 0 0 50 50;" xml:space="preserve">
<style type="text/css">
	.st0{fill:#8256D8;}
	.st1{fill:#A475EF;}
	.st2{fill:none;stroke:#444444;stroke-width:2.0144;stroke-linecap:round;stroke-linejoin:round;stroke-miterlimit:10;}
	.st3{fill:#444444;}
	.st4{fill:none;stroke:#444444;stroke-miterlimit:10;}
</style>
<polygon class="st0" points="30.2,20.8 38.1,23.2 31.4,28 31.5,36.2 24.9,31.3 17.1,33.9 19.8,26.1 14.8,19.5 23.1,19.6 27.8,12.9 
	"/>
<path class="st1" d="M43.3,6.8l0.2-2.1c0.1-1.5-1.1-2.9-2.6-2.9L9.1,1.6c-1.5,0-2.7,1.2-2.7,2.7v20.3v2.3L6.4,32l0.1,0v2.9l-0.2,9.9
	c0,1.5,1.2,2.7,2.7,2.7l14.5-0.1c0.3,0,0.6-0.1,0.9-0.2l17.3-6.5c1-0.4,1.7-1.4,1.7-2.5v-9.9l0.1-7.4l0.4-0.1L43.3,7.3
	C43.3,7.2,43.3,7,43.3,6.8z"/>
<path class="st2" d="M31.1,48.1H9.3c-1.5,0-2.7-1.3-2.7-2.9V4.7c0-1.6,1.2-2.9,2.7-2.9h31.4c1.5,0,2.7,1.3,2.7,2.9V40"/>
<g>
	<path class="st3" d="M18.7,17.1h-5.4c-0.2,0-0.5-0.2-0.5-0.5v-5.4c0-0.2,0.2-0.5,0.5-0.5h5.4c0.2,0,0.5,0.2,0.5,0.5v5.4
		C19.1,16.9,18.9,17.1,18.7,17.1z"/>
	<path class="st3" d="M27.7,17.1h-5.4c-0.2,0-0.5-0.2-0.5-0.5v-5.4c0-0.2,0.2-0.5,0.5-0.5h5.4c0.2,0,0.5,0.2,0.5,0.5v5.4
		C28.1,16.9,27.9,17.1,27.7,17.1z"/>
	<path class="st3" d="M22.2,25.2h-5.4c-0.2,0-0.5-0.2-0.5-0.5v-5.4c0-0.2,0.2-0.5,0.5-0.5h5.4c0.2,0,0.5,0.2,0.5,0.5v5.4
		C22.6,25,22.4,25.2,22.2,25.2z"/>
	<path class="st3" d="M31.2,25.2h-5.4c-0.2,0-0.5-0.2-0.5-0.5v-5.4c0-0.2,0.2-0.5,0.5-0.5h5.4c0.2,0,0.5,0.2,0.5,0.5v5.4
		C31.6,25,31.4,25.2,31.2,25.2z"/>
	<path class="st3" d="M26,33.3h-5.4c-0.2,0-0.5-0.2-0.5-0.5v-5.4c0-0.2,0.2-0.5,0.5-0.5H26c0.2,0,0.5,0.2,0.5,0.5v5.4
		C26.5,33.1,26.3,33.3,26,33.3z"/>
	<path class="st3" d="M35,33.3h-5.4c-0.2,0-0.5-0.2-0.5-0.5v-5.4c0-0.2,0.2-0.5,0.5-0.5H35c0.2,0,0.5,0.2,0.5,0.5v5.4
		C35.5,33.1,35.3,33.3,35,33.3z"/>
	<path class="st3" d="M36.7,17.1h-5.4c-0.2,0-0.5-0.2-0.5-0.5v-5.4c0-0.2,0.2-0.5,0.5-0.5h5.4c0.2,0,0.5,0.2,0.5,0.5v5.4
		C37.2,16.9,37,17.1,36.7,17.1z"/>
	<line class="st4" x1="16.3" y1="15.1" x2="22.9" y2="29.1"/>
	<line class="st4" x1="25.3" y1="15.1" x2="32" y2="29.1"/>
</g>
<g>
	<path class="st3" d="M21.7,41.3c-1,0.3-1.4,0.7-1.7,1.7c-0.1,0.2-0.3,0.2-0.4,0c-0.3-1-0.7-1.4-1.7-1.7c-0.2-0.1-0.2-0.3,0-0.4
		c1-0.3,1.4-0.7,1.7-1.7c0.1-0.2,0.3-0.2,0.4,0c0.3,1,0.7,1.4,1.7,1.7C21.9,41,21.9,41.2,21.7,41.3z"/>
	<path class="st3" d="M17.7,38.7c-1.8,0.6-2.5,1.2-3.1,3.1c-0.1,0.3-0.6,0.3-0.7,0c-0.6-1.8-1.2-2.5-3.1-3.1c-0.3-0.1-0.3-0.6,0-0.7
		c1.8-0.6,2.5-1.2,3.1-3.1c0.1-0.3,0.6-0.3,0.7,0c0.6,1.8,1.2,2.5,3.1,3.1C18,38.1,18,38.6,17.7,38.7z"/>
</g>
</svg>
