<?xml version="1.0" encoding="utf-8"?>
<!-- Generator: Adobe Illustrator 26.0.1, SVG Export Plug-In . SVG Version: 6.00 Build 0)  -->
<svg version="1.1" id="Layer_1" xmlns="http://www.w3.org/2000/svg" xmlns:xlink="http://www.w3.org/1999/xlink" x="0px" y="0px"
	 viewBox="0 0 48 47" style="enable-background:new 0 0 48 47;" xml:space="preserve">
<style type="text/css">
	.st0{fill:#AFE55D;}
	.st1{fill:#C3FF68;}
	.st2{fill:none;stroke:#505050;stroke-linecap:round;stroke-linejoin:round;stroke-miterlimit:10;}
	.st3{fill:#505050;}
</style>
<g>
	<path class="st0" d="M45.5,20l-10.1,3.8l-0.7,0.3l-17.8,6.7l-3.8,1.5c-0.6,0-1.2-0.1-1.8-0.1c-0.3-0.2-0.5-0.5-0.8-0.7
		c-2.1-0.8-3.3-1.5-3.7-1.7c-1.9-1.1-3.3-2.4-4.2-3.3c-0.5-0.7-0.8-1.5-1-2.3l0.1-2V22v-0.3h0.1l9.3-3.6l5.9-2.2l6.9-2.6l4.2-1.6
		l9.4-3.6c0,0.1,0,0.2,0,0.2c0,0.1,0,0.2,0,0.3c0,0.2,0,0.4,0,0.6c0,0.2,0,0.4,0,0.7c0,0.2,0,0.3,0,0.5s0,0.3,0,0.5
		c0,0.6-0.1,1.3-0.2,2c0,0.5-0.1,1-0.2,1.6c0,0.2-0.1,0.4-0.1,0.6c0.2,0.1,0.4,0.1,0.7,0.2c0.2,0.1,0.5,0.2,0.7,0.2
		c0.4,0.2,0.8,0.3,1.2,0.5c0,0,0,0,0.1,0c0.3,0.1,0.7,0.3,1,0.4c0.1,0.1,0.3,0.1,0.4,0.2c0.2,0.1,0.4,0.2,0.6,0.3
		c0.3,0.2,0.5,0.3,0.8,0.5c0.2,0.1,0.5,0.3,0.7,0.5c0,0,0.1,0,0.1,0.1c0.2,0.1,0.4,0.3,0.5,0.4s0.2,0.2,0.3,0.2
		c0.1,0.1,0.2,0.1,0.2,0.2c0.2,0.2,0.4,0.4,0.6,0.6C45.1,19.8,45.3,19.9,45.5,20z"/>
</g>
<g>
	<path class="st1" d="M36.6,10.1L36.6,10.1l-8.5,3.1l-2.9,1l0,0L17,17.4l-4.9,1.8l-9,3.3H3c0-0.1,0-0.2,0.1-0.2l0,0V22h0.1
		c0.2-0.6,0.6-1,0.9-1.6c0.2-0.2,0.3-0.3,0.5-0.5s0.4-0.3,0.6-0.5c0.2-0.1,0.3-0.3,0.5-0.4c0,0,0.1-0.1,0.2-0.1
		c0.2-0.1,0.4-0.3,0.6-0.4c0,0,0.1,0,0.1-0.1C6.8,18.3,7,18.1,7.2,18c0.3-0.2,0.5-0.3,0.8-0.4l0,0c1-0.6,2.2-1,3.5-1.4
		c-0.1-0.4-0.2-0.8-0.2-1.2c-0.3-0.3-0.3-0.6-0.4-1c0-0.4-0.1-0.8-0.1-1.1c0-0.4,0-0.8,0-1c0-3.1,0.8-5.4,2.6-6.4
		C13.6,5.1,13.7,5,13.9,5c0.1,0,0.3-0.1,0.4-0.1s0.2-0.1,0.3-0.1s0.2,0,0.3,0c0.2,0,0.3,0,0.5,0c0,0,0,0,0.1,0c0.3,0,0.6,0,0.8,0
		c0,0,0,0,0.1,0c0.2,0,0.3,0.1,0.5,0.1c0.1,0,0.2,0,0.3,0.1c0.1,0,0.2,0,0.3,0.1c0.1,0,0.2,0.1,0.3,0.1c0.1,0,0.2,0.1,0.3,0.1
		c0.2,0.1,0.5,0.2,0.7,0.3c0.2,0.1,0.4,0.2,0.7,0.3c0.2,0.1,0.4,0.2,0.6,0.3c0.7,0.4,1.3,0.8,2,1.2c0.2,0.1,0.4,0.3,0.6,0.5
		c0.5,0.4,0.9,0.8,1.4,1.1c0.9-0.9,2-1.6,2.9-2.2c0.4-0.2,0.8-0.4,1.1-0.6c0.2-0.1,0.5-0.2,0.7-0.3c0.2-0.1,0.5-0.2,0.7-0.3
		c0.3-0.1,0.6-0.2,0.8-0.3C31.3,5.1,32,5,32.7,5h0.1c0.1,0,0.2,0,0.3,0h0.1c0.1,0,0.1,0,0.2,0c0.1,0,0.2,0,0.3,0
		c0.4,0.1,0.8,0.3,0.9,0.4C35.4,6,36,6.9,36.3,8.2c0.1,0.5,0.2,1,0.3,1.6C36.6,9.9,36.6,10,36.6,10.1C36.6,9.9,36.6,10,36.6,10.1z"
		/>
</g>
<path class="st2" d="M23.9,8.8c4.5-3.2,7.2-4,8.8-4c0.1,0,0.2,0,0.3,0h0.1c0.1,0,0.1,0,0.2,0c0.1,0,0.2,0,0.3,0
	C34,4.9,34.4,5,34.5,5.1C35.4,5.7,36,6.6,36.3,8c0.1,0.5,0.2,1,0.3,1.6c0,0.1,0,0.2,0,0.2c0,0.1,0,0.2,0,0.3c0,0.4,0,0.8,0,1.2
	c0,0.2,0,0.3,0,0.5s0,0.3,0,0.5c0,0.6-0.1,1.1-0.1,1.8c0,0.5-0.1,0.9-0.2,1.4c0,0.2-0.1,0.4-0.1,0.6c-0.5,2.6-1.2,5.5-2.4,8.1
	c-0.6,1.4-1.2,2.7-1.9,4c-0.5,0.8-0.8,1.4-1.1,1.9"/>
<path class="st2" d="M36.1,41.5c0.4-0.8,0.8-2,1.1-3.6c0.1-0.7,0.3-2.1,0-4.4c-0.5-4.1-2.1-7.9-3-9.7"/>
<path class="st2" d="M15,27.4c0.2,0.3,0.3,0.7,0.5,1c6.2,10.7,15,17.2,19.7,14.5c0.7-0.4,1.3-1.1,1.8-1.9"/>
<path class="st2" d="M44.8,21.3c-0.9-1.2-1.8-2-2.4-2.5c-0.5-0.4-1-0.7-1.1-0.8c0,0-1.1-0.7-2.5-1.3c-1.4-0.6-4.8-1.4-9.4-2"/>
<path class="st2" d="M23.2,32.7c0.4,0,0.7,0.1,1.1,0.1c11.6,0.1,21.1-4,21.2-9.1c0-0.8-0.3-1.6-0.7-2.4"/>
<path class="st2" d="M2.3,26c0.5,0.7,1.3,1.7,2.4,2.6C5.2,29,6.4,30,8.5,30.9c3.9,1.7,8.1,2,10,2.1"/>
<path class="st2" d="M19.1,14C8.9,15.7,1.8,19.4,1.6,23.5c0,0.7,0.1,1.5,0.7,2.5"/>
<path class="st2" d="M22.6,9.4c-1.6,1.9-3.7,4.6-5.7,8.3c-3.8,7-9,20.3-4.4,24.1c1.6,1.4,4,1.1,5.8,0.8c6.6-0.9,9.8-7,10.2-7.7"/>
<path class="st2" d="M14,23.6c-0.3-0.5-0.8-1.3-1.2-2.3c-0.6-1.5-0.9-2.6-1.2-3.9c-0.7-2.7-0.8-4.3-0.8-4.8c0-0.3,0-0.6,0-1
	c0-1.2,0.2-5,2.6-6.4c0.3-0.2,0.9-0.5,1.9-0.6c0,0,0,0,0.1,0c2.4-0.1,5.4,1.3,8.4,4l0.1,0.1c1.3,1.1,2.6,2.5,3.9,4
	c0.1,0.1,0.2,0.3,0.3,0.4c0.4,0.4,0.7,0.8,1,1.3c0.4,0.5,1.7,2.2,2.8,4.3c0.2,0.4,0.4,0.7,0.5,0.9"/>
<path class="st2" d="M24,21.1c1.3,0,2.4,1,2.4,2.4s-1,2.4-2.4,2.4s-2.4-1-2.4-2.4S22.7,21.1,24,21.1z"/>
<g>
	<path class="st3" d="M15.5,4.7c2.3,0,5.2,1.4,8.2,4.1l0.1,0.1c0.7-0.5,5.7-4,8.8-4.1c0.1,0,0.1,0,0.2,0c0.4,0,1,0,1.6,0.4
		c0.5,0.3,1.3,0.9,1.8,2.9c0.8,3,0.3,6.2-0.1,7.9c0.9,0.2,1.7,0.6,2.6,0.9c2,0.9,3.2,1.8,3.6,2.2c1.1,0.9,1.8,1.8,2.3,2.5
		c0.4,0.8,0.7,1.6,0.7,2.4c0,3-3.3,5.7-8.4,7.4c0.1,0.6,0.2,1.1,0.3,1.7c0.3,2.2,0.1,3.6,0,4.2c-0.2,1.4-0.7,2.5-1,3.2l0,0l-0.1,0.1
		l0,0l0,0c-0.4,0.7-1,1.3-1.6,1.7c-0.7,0.4-1.4,0.6-2.3,0.6c-2.2,0-4.9-1.3-7.7-3.7c-1.5,1.3-3.5,2.5-6,2.8
		c-0.7,0.1-1.5,0.2-2.3,0.2c-1.1,0-2.3-0.2-3.2-1c-2-1.7-2-5.3-1.1-9.4c-0.9-0.2-1.7-0.6-2.6-0.9c-2-0.9-3.2-1.8-3.6-2.2
		c-1.1-0.9-1.8-1.8-2.3-2.5c-0.6-0.9-0.7-1.7-0.7-2.4c0.1-2.7,3.3-5.2,8.5-7c-0.5-2.2-0.5-3.6-0.6-3.9c0-0.3,0-0.6,0-1
		c0-1.2,0.2-5,2.6-6.5c0.3-0.2,0.9-0.5,1.9-0.6c0,0,0,0,0.1,0C15.4,4.7,15.4,4.7,15.5,4.7 M15.5,2.7h-0.6l0,0c0,0-1.4,0-2.8,0.9
		c-3.3,2-3.5,6.6-3.6,8.1c0,0.5,0,0.9,0,1.2c0,0.8,0.1,1.7,0.3,2.6c-2.6,1.1-4.6,2.4-6,3.7c-1,1-2.1,2.5-2.2,4.5
		c-0.2,3.3,2.8,5.7,3.7,6.5c0,0,1.3,1.1,4.1,2.5c0.4,0.2,0.7,0.3,1.1,0.4c-0.7,4.6,0,7.8,2.1,9.6c1.2,1,2.6,1.5,4.5,1.5
		c0.9,0,1.8-0.1,2.6-0.2c2-0.3,4-1,5.7-2.3c2.8,2.1,5.4,3.2,7.7,3.2c0.7,0,1.4-0.1,2.1-0.3c0.2-0.1,0.7-0.2,1.2-0.6
		c1.5-0.9,2.3-2.3,2.6-3c0.7-1.3,0.8-2.4,1-3.4c0.3-1.9,0.2-3.6,0-4.8c0-0.1,0-0.1,0-0.2c4.9-1.6,8.1-5.1,8.1-8.7c0-0.8-0.1-2-1-3.5
		c-0.7-1.1-1.6-2.1-2.6-2.9c-1.4-1.2-3-2-4.1-2.5c-0.4-0.2-0.7-0.3-1.1-0.4c0.3-2.1,0.4-4.6-0.3-7.1c-0.6-2-1.4-3.3-2.7-4.1
		c-0.8-0.4-1.6-0.6-2.6-0.6c-0.1,0-0.2,0-0.3,0c-2.8,0.1-6.4,2.1-8.6,3.6c-0.9-0.7-2-1.5-3.5-2.2C18.5,3.4,16.8,2.9,15.5,2.7z"/>
</g>
</svg>
