<svg xmlns="http://www.w3.org/2000/svg" id="Layer_1" x="0" y="0" version="1.1" viewBox="0 0 50 50" xml:space="preserve"><style>.st2{stroke-width:.5}.st2,.st3{fill:none;stroke:#444;stroke-linecap:round;stroke-linejoin:round;stroke-miterlimit:10}</style><path fill="#ff6b6b" d="M44.6 12.5L39 8.9l-7.7-4.4-6-2.8c-3.2 0-21.5 8.9-21.5 12.1l-.5 7.8.5 15.1 11.5 7.6 31-11c.9-.5-.7-18.8-1.7-20.8z"/><path fill="none" stroke="#444" stroke-linecap="round" stroke-linejoin="round" stroke-miterlimit="10" stroke-width="2.5" d="M29.9 46.5l-2.2 1.3c-1.7 1-3.8 1-5.5 0l-15.6-9c-1.7-1-2.7-2.8-2.7-4.7v-18c0-2 1-3.8 2.7-4.7l15.6-9c1.7-1 3.8-1 5.5 0l15.6 9c1.7 1 2.7 2.8 2.7 4.7v18c0 2-1 3.8-2.7 4.7l-2.5 1.4"/><path d="M27.1 27.9v-1.3c1.6-1.2 1.8-2.7 1.8-2.7.5-2.5-1.6-3.9-1.6-3.9-2.4-1.5-4.6 0-4.6 0-2 1.3-1.6 3.8-1.6 3.8.1 1.7 1.8 2.8 1.8 2.8V28" class="st2"/><path d="M24.5 27.9v-3.2s0-.6-.6-.6c0 0-.7 0-.7.7 0 0 0 .7.6.7H25" class="st2"/><path d="M25.4 27.9v-3.2s0-.6.6-.6c0 0 .7 0 .7.7 0 0 0 .7-.6.7h-1.2M22.6 28h4.7v2.6h-4.7zm0 1.3h2.7" class="st2"/><circle cx="24.9" cy="25.1" r="8.5" class="st3"/><path d="M24.9 16.6V8.3m0 33.4v-7.8m8.8-8.9h7.9M8.2 25h7.9m12.4-12.6s7.3 1.4 9.7 9.2m-16.8-9.2s-7.3 1.4-9.7 9.2m16.8 16.1s7.3-1.4 9.7-9.2m-16.8 9.2s-7.3-1.4-9.7-9.2" class="st3"/></svg>