<?xml version="1.0" encoding="utf-8"?>
<!-- Generator: Adobe Illustrator 27.3.1, SVG Export Plug-In . SVG Version: 6.00 Build 0)  -->
<svg version="1.1" id="Camada_3" xmlns="http://www.w3.org/2000/svg" xmlns:xlink="http://www.w3.org/1999/xlink" x="0px" y="0px"
	 viewBox="0 0 50 50" style="enable-background:new 0 0 50 50;" xml:space="preserve">
<style type="text/css">
	.st0{fill:#F799FF;}
	.st1{fill:#E589EF;}
	.st2{fill:none;stroke:#454444;stroke-width:2.5;stroke-linecap:round;stroke-miterlimit:10;}
	.st3{fill:none;stroke:#454444;stroke-width:2.5;stroke-linecap:round;stroke-linejoin:round;stroke-miterlimit:10;}
	.st4{fill:none;stroke:#454444;stroke-width:0.25;stroke-linecap:round;stroke-linejoin:round;stroke-miterlimit:10;}
	.st5{fill:none;stroke:#454444;stroke-width:0.25;stroke-miterlimit:10;}
	.st6{fill:#454444;stroke:#454444;stroke-width:0.5;stroke-miterlimit:10;}
</style>
<g>
	<g>
		<path class="st0" d="M42.83,13.28l-6.45-1.71C35.7,11.56,35.43,3,34.84,2.65l-2.86-0.97c-0.45,0.15-6.65,3.67-6.88,3.26
			c-1.52-2.69-6.26-2.85-8.91-2.48l-0.06,8.95l-8.56,1.58c-0.44,0.44-0.72,1.18-1.17,1.63L5.82,27.3c0.64,0.45,0.28,0.83,0.92,1.29
			l38.53-13.71c0.28-0.39-0.34-0.47-0.06-0.86l-0.4-0.17C44.36,13.4,43.27,13.73,42.83,13.28z"/>
		<polygon class="st1" points="5.81,28.92 7.17,41.45 20.38,42.75 17.08,46.6 46.03,36.3 46.03,14.61 		"/>
	</g>
	<path class="st2" d="M45.45,37.79V16.54c0-1.96-1.59-3.55-3.55-3.55l-2.68-0.18c-1.9-0.99-3.95-1.49-3.95-1.49s2.2-7.17-1.12-9.03
		c-3.32-1.86-8.22,3.15-8.22,3.15s-5.13-5.5-8.54-3.19c-3.05,2.06-0.77,8.88-0.77,8.88s-2.45,0.44-4.48,1.64l-0.97,0.26l-1.29-0.03
		h-0.5c-1.96,0-3.55,1.59-3.55,3.55v9.93v12.2c0,1.96,1.59,3.55,3.55,3.55h10.07h0.76"/>
	<line class="st3" x1="37.8" y1="42.22" x2="31.23" y2="42.22"/>
	<line class="st4" x1="6.27" y1="34.77" x2="44.42" y2="34.77"/>
	<polyline class="st3" points="19.96,44.74 19.96,42.22 31.63,42.22 31.63,44.74 	"/>
	<path class="st3" d="M19.96,44.74c-3.93,0-4.03,3.72-4.03,3.72h19.42c0,0,0.71-3.72-3.71-3.72"/>
	<circle class="st5" cx="25.66" cy="38.09" r="1.25"/>
	<g>
		<g>
			<g>
				<g>
					<path class="st6" d="M35.63,11.73c1.28-4.63,0.95-8.12-1.12-9.24c-1.59-0.95-3.99-0.16-6.86,2.06
						c-0.65,0.49-1.28,1.12-1.77,1.59c-0.65-0.65-1.28-1.12-1.77-1.59c-2.71-2.22-5.25-3.03-6.86-2.06
						c-2.06,1.12-2.38,4.78-1.12,9.24c-4.63,1.28-7.47,3.34-7.47,5.58c0,2.38,2.87,4.46,7.47,5.58c-0.16,0.79-0.49,1.59-0.49,2.38
						c-0.65,3.5,0,6.04,1.59,6.86c0.49,0.32,0.95,0.49,1.59,0.49c1.43,0,3.2-0.79,5.25-2.38c0.65-0.49,1.28-1.12,1.77-1.59
						c0.65,0.65,1.28,1.12,1.77,1.59c1.92,1.59,3.81,2.38,5.25,2.38c0.65,0,1.12-0.16,1.59-0.49c1.59-0.95,2.22-3.34,1.59-6.86
						c-0.16-0.79-0.32-1.59-0.49-2.38c4.63-1.28,7.47-3.34,7.47-5.58C43.1,14.89,40.23,12.84,35.63,11.73z M28.13,4.87
						c1.92-1.43,3.5-2.22,4.78-2.22c0.49,0,0.95,0.16,1.28,0.32c1.77,0.95,1.92,4.3,0.79,8.61c-1.59-0.32-3.34-0.65-5.25-0.79
						c-1.12-1.59-2.22-2.87-3.34-4.15C27.01,5.99,27.5,5.34,28.13,4.87z M31.16,20.32c-0.65,0.95-1.28,2.06-1.92,2.87
						c-1.12,0.16-2.22,0.16-3.5,0.16c-1.12,0-2.38,0-3.5-0.16c-0.65-0.95-1.28-1.92-1.92-2.87c-0.65-0.95-1.12-2.06-1.59-3.03
						c0.49-0.95,0.95-2.06,1.59-3.03c0.65-0.95,1.28-2.06,1.92-2.87c1.12-0.16,2.22-0.16,3.5-0.16s2.38,0,3.5,0.16
						c0.65,0.95,1.28,1.92,1.92,2.87c0.65,0.95,1.12,2.06,1.59,3.03C32.27,18.25,31.8,19.37,31.16,20.32z M33.22,18.09
						c0.65,1.43,1.28,2.87,1.59,4.3c-1.43,0.32-2.87,0.65-4.63,0.79c0.49-0.79,1.12-1.59,1.59-2.55
						C32.27,19.84,32.75,18.88,33.22,18.09z M25.91,27.65c-0.95-1.12-2.06-2.22-3.03-3.66c0.95,0,1.92,0.16,3.03,0.16
						c1.12,0,2.06,0,3.03-0.16C27.97,25.25,26.85,26.54,25.91,27.65z M21.6,23.18c-1.59-0.16-3.2-0.49-4.63-0.79
						c0.49-1.43,0.95-2.87,1.59-4.3c0.49,0.79,0.95,1.77,1.43,2.55C20.48,21.59,20.97,22.4,21.6,23.18z M18.59,16.5
						c-0.65-1.43-1.28-3.03-1.59-4.3c1.43-0.32,2.87-0.65,4.63-0.79c-0.49,0.79-1.12,1.59-1.59,2.55
						C19.54,14.89,19.05,15.71,18.59,16.5z M25.91,6.93c0.95,1.12,2.06,2.22,3.03,3.66c-0.96,0.02-1.92-0.14-3.03-0.14
						c-1.12,0-2.06,0-3.03,0.16C23.84,9.33,24.96,8.05,25.91,6.93z M31.8,13.95c-0.49-0.79-0.95-1.77-1.59-2.55
						c1.59,0.16,3.2,0.49,4.63,0.79c-0.49,1.43-0.95,2.87-1.59,4.3C32.75,15.71,32.27,14.74,31.8,13.95z M17.62,2.96
						c1.28-0.79,3.5,0,6.04,1.92c0.65,0.49,1.12,0.95,1.77,1.59c-1.12,1.28-2.22,2.55-3.34,4.15c-1.92,0.16-3.66,0.49-5.25,0.79
						C15.72,7.26,15.88,3.92,17.62,2.96z M9.34,17.29c0-2.06,2.87-3.81,7.01-4.93c0.49,1.59,1.12,3.2,1.92,4.93
						c-0.79,1.77-1.43,3.34-1.92,4.93C12.21,21.12,9.34,19.37,9.34,17.29z M23.68,29.71c-2.55,2.06-4.78,2.71-6.04,1.92
						c-1.26-0.79-1.77-3.03-1.28-6.21c0.16-0.79,0.32-1.59,0.49-2.38c1.59,0.32,3.34,0.65,5.25,0.79c1.12,1.59,2.22,2.87,3.34,4.15
						C24.79,28.61,24.31,29.22,23.68,29.71z M35.46,25.41c0.49,3.2,0,5.42-1.28,6.21c-1.28,0.79-3.5,0-6.04-1.92
						c-0.65-0.49-1.12-0.95-1.77-1.59c1.12-1.28,2.22-2.55,3.34-4.15c1.92-0.16,3.66-0.49,5.25-0.79
						C35.14,23.83,35.46,24.62,35.46,25.41z M35.46,22.24c-0.49-1.59-1.12-3.34-1.92-4.93c0.79-1.77,1.43-3.34,1.92-4.93
						c4.15,1.12,7.01,2.87,7.01,4.93S39.6,21.12,35.46,22.24z"/>
				</g>
			</g>
		</g>
		<circle class="st6" cx="25.42" cy="17.34" r="2.79"/>
	</g>
	<path class="st5" d="M17.66,11.75"/>
	<path class="st5" d="M34.27,11.86"/>
</g>
</svg>
