<?xml version="1.0" encoding="UTF-8"?>
<svg id="Layer_1" xmlns="http://www.w3.org/2000/svg" version="1.1" viewBox="0 0 50 50">
  <!-- Generator: Adobe Illustrator 29.1.0, SVG Export Plug-In . SVG Version: 2.1.0 Build 142)  -->
  <defs>
    <style>
      .st0, .st1, .st2 {
        fill: none;
        stroke: #444;
        stroke-linecap: round;
        stroke-linejoin: round;
      }

      .st1 {
        stroke-width: 2.5px;
      }

      .st3 {
        fill: #444;
      }

      .st4 {
        fill: #fc9d9a;
      }

      .st2 {
        stroke-width: .5px;
      }
    </style>
  </defs>
  <path class="st4" d="M47,31s0-5.6-2.8-11.2c.1,0,8.1-4.4,4.3-9.7,0,0-5.3-7.9-11.6,1.6-2.8-1.7-6.5-2.7-11.2-2.6-4.5,0-8,1.1-10.8,2.7-1.2-2-4.8-6.7-9.1-3.7,0,0-8.2,5.2,1.6,11.8-2.8,5.6-2.9,11.2-2.9,11.2,0,0,.1,12.1,13,15.6l28.1-10c1.3-3.1,1.4-5.7,1.4-5.7Z"/>
  <path class="st1" d="M45.3,37.6c1.8-3.5,1.8-6.6,1.8-6.6,0,0,0-5.6-2.8-11.2.1,0,8.1-4.4,4.3-9.7,0,0-5.3-7.9-11.6,1.6-2.8-1.7-6.5-2.7-11.2-2.6-4.5,0-8,1.1-10.8,2.7-1.2-2-4.8-6.7-9.1-3.7,0,0-8.2,5.2,1.6,11.8-2.8,5.6-2.9,11.2-2.9,11.2,0,0,.1,16.9,21.3,16.6,3.5,0,6.4-.5,8.9-1.3"/>
  <path class="st0" d="M30.5,29.6c0,1.9-2,3.5-4.4,3.5s-4.4-1.6-4.4-3.5,2-2.4,4.4-2.4,4.4.4,4.4,2.4Z"/>
  <line class="st2" x1="26.1" y1="33.2" x2="26.1" y2="38.2"/>
  <circle class="st3" cx="18" cy="21.9" r="1.3"/>
  <circle class="st3" cx="34.7" cy="21.9" r="1.3"/>
</svg>
