<svg xmlns="http://www.w3.org/2000/svg" id="Layer_1" x="0" y="0" version="1.1" viewBox="0 0 50 50" xml:space="preserve"><style>.st2,.st4{fill:none;stroke:#444;stroke-width:.5;stroke-linecap:round;stroke-linejoin:round;stroke-miterlimit:10}.st4{stroke-width:.75}</style><path fill="#a475ef" d="M47.5 17.8l.5-11-2-3.9-15.3.5c-3.2 0-27.8-3-27.8.2L1.1 24.2l1.2 23.5 13.6.6 31-11c.8-.3 1.6-17.5.6-19.5z"/><path fill="none" stroke="#444" stroke-linecap="round" stroke-linejoin="round" stroke-miterlimit="10" stroke-width="2.5" d="M32.5 48.3h-27c-1.9 0-3.4-1.6-3.4-3.5v-39c0-1.9 1.5-3.5 3.4-3.5h39c1.9 0 3.4 1.6 3.4 3.5v32.5"/><path d="M5.1 9.6h39.2V7.3S44.5 5 41.7 5H6.9S5.1 5 5.1 7.3v2.3z" class="st2"/><circle cx="7.1" cy="7.4" r=".6" class="st2"/><circle cx="9" cy="7.4" r=".6" class="st2"/><circle cx="10.9" cy="7.4" r=".6" class="st2"/><path d="M13.5 7.4h28.8" class="st2"/><ellipse cx="24.7" cy="28.4" fill="#444" rx="1.2" ry="1.1"/><path d="M6.6 28.1s6.2-9.9 17.4-10.6c11.3-.6 19.5 10.4 19.5 10.4S38.6 38 24 38.8c0 0-11.6-1.5-17.4-10.7zm26.8 12.6L13 15.4" class="st4"/><path d="M9.4 24.6l10.9 13.3m-7.8-16l13.7 16.7" class="st2"/><path d="M21 25.3s11.5-1.3 12.8 2.6c.9 2.9-7.7 3.6-7.7 3.6" class="st4"/><path d="M22 26.6s4.4-7.4 7.4-5.7-.8 8.5-2.9 11" class="st4"/><path d="M19.5 23.4s-.3-2.2.9-2.7 4-.1 7.3 5.8 2.2 7.1 1.3 8" class="st4"/></svg>