<?xml version="1.0" encoding="utf-8"?>
<!-- Generator: Adobe Illustrator 26.5.0, SVG Export Plug-In . SVG Version: 6.00 Build 0)  -->
<svg version="1.1" id="Camada_1" xmlns="http://www.w3.org/2000/svg" xmlns:xlink="http://www.w3.org/1999/xlink" x="0px" y="0px"
	 viewBox="0 0 50 50" style="enable-background:new 0 0 50 50;" xml:space="preserve">
<style type="text/css">
	.st0{fill:#FCC34F;}
	.st1{fill:#FDCF72;}
	.st2{fill:none;stroke:#494949;stroke-width:2.5;stroke-linecap:round;stroke-linejoin:round;stroke-miterlimit:10;}
</style>
<g>
	<path class="st0" d="M42.8,28.8l-26.7,9.7c-1.8-2.1-6.4-5.4-6.8-8.3C9,27.2,8.3,21,8,18c6.5-2.3,18-6.5,24.6-8.9
		C34.7,13.1,40.6,24.6,42.8,28.8z"/>
	<path class="st1" d="M35.8,15.3c-4.1,1.5-23.4,8.4-27,9.7C8.3,20.7,7.1,10.4,6.6,6C5.8-2.4,12,5.3,14.4,6.9c1.2-9,4.8-4.5,8.3-0.1
		c1.2-2.8,4.2-8.5,6.9-3.4C31.1,6.3,34.2,12.3,35.8,15.3z"/>
	<g>
		<path class="st2" d="M42.1,34.3c-0.3,0.3-1,1-1.3,1.3h0c-0.9,0.4-13,14.1-14,12.9c-1.2,0.1-9.5-9.2-10.6-10
			c-1.9-2.1-7.2-5.7-5.3-9.1c4.2-8,9.4-18.1,13.6-26.2c3.5-6.1,6.6,3.3,8.1,5.8c0,0,3.3,6.2,3.3,6.2l7,13.5
			C43.9,30.4,43.6,32.7,42.1,34.3z"/>
		<path class="st2" d="M14.4,6.9L14.4,6.9c0,0-5.1-4.3-5.1-4.3C3.8-1.2,8.3,16.2,8,18c0,0,0.8,7,0.8,7c0.4,3,0.3,7.3,3.1,9.3
			C14.6,37,22.2,44.5,25,47.4c0.7,0.8,2.4,2,3.1,0.8c0.3-0.3,12.4-12.4,12.7-12.7h0"/>
		<path class="st2" d="M22.6,6.7c-3.5-4.3-7.1-8.9-8.3,0.2c-1.3,6.8-3.1,16.3-4.4,23c-0.6,3.1,4.4,6.5,6.2,8.6
			c1.1,0.9,9.3,9.9,10.6,10c0.9,1.4,13.2-12.6,14-12.9h0l0.8-0.8"/>
	</g>
</g>
</svg>
