<?xml version="1.0" encoding="utf-8"?>
<!-- Generator: Adobe Illustrator 26.5.0, SVG Export Plug-In . SVG Version: 6.00 Build 0)  -->
<svg version="1.1" id="Camada_3" xmlns="http://www.w3.org/2000/svg" xmlns:xlink="http://www.w3.org/1999/xlink" x="0px" y="0px"
	 viewBox="0 0 50 50" style="enable-background:new 0 0 50 50;" xml:space="preserve">
<style type="text/css">
	.st0{fill:#F799FF;}
	.st1{fill:#E589EF;}
	.st2{fill:#444444;}
	.st3{fill:none;stroke:#444444;stroke-width:1.5;stroke-miterlimit:10;}
	.st4{fill:none;stroke:#444444;stroke-miterlimit:10;}
	.st5{fill:none;}
	.st6{fill:none;stroke:#444444;stroke-width:2.5;stroke-linecap:round;stroke-linejoin:round;stroke-miterlimit:10;}
</style>
<polyline class="st0" points="-97.74,433.86 -106.34,438.79 -109.57,449.21 -85.43,440.62 -86.62,440.17 -97.74,433.86 "/>
<path class="st1" d="M-116.32,454.02l-2.94,6.09l11.28,13.81l35.66-12.69l-2.25-6.49c-0.32-0.35-7.92-3.4-8.06-3.86l-2.8-10.25
	l-23.41,8.33L-116.32,454.02z"/>
<path class="st2" d="M-105.7,452.53c-0.83-0.26-1.29-1.14-1.03-1.97c0.08-0.27,0.23-0.5,0.44-0.69c-0.08-1.52,0.14-3.12,0.63-4.69
	c1.32-4.22,4.33-7.25,7.43-7.63c0.64,0.21,0.65,1.22,0.15,1.46c-2.49,0.32-5.05,3-6.18,6.61c-0.41,1.31-0.6,2.63-0.57,3.89
	c0.84,0.21,1.35,1.07,1.14,1.91c-0.21,0.84-1.07,1.35-1.91,1.14C-105.65,452.55-105.68,452.54-105.7,452.53L-105.7,452.53z
	 M-94.85,437.39c-0.83-0.26-1.71,0.2-1.97,1.03c-0.26,0.83,0.2,1.71,1.03,1.97c0.34,0.11,0.7,0.09,1.03-0.03
	c0.59,0.71,1.02,1.67,1.26,2.79c0.26,1.21,0.27,2.56,0.05,3.92c-0.01,0.03-0.01,0.07-0.02,0.1c0,0.02-0.01,0.05-0.01,0.07
	c-0.09,0.54-0.23,1.08-0.39,1.61c-0.07,0.23-0.15,0.46-0.24,0.69c-0.01,0.02-0.02,0.04-0.02,0.06c-0.01,0.02-0.02,0.05-0.03,0.07
	c-0.52,1.35-1.25,2.57-2.14,3.55c-0.72,0.8-1.5,1.4-2.3,1.79c-0.34,0.31,0.09,1.42,0.74,1.27c1.82-0.91,3.47-2.71,4.58-4.97
	c0.01-0.03,0.03-0.05,0.04-0.08c0.01-0.02,0.02-0.04,0.03-0.06c0.25-0.53,0.39-0.84,0.59-1.43c0.02-0.07,0.07-0.2,0.09-0.27
	c0.68-2.18,0.89-4.66,0.47-6.64c-0.31-1.45-0.9-2.68-1.72-3.6C-93.6,438.45-94.06,437.64-94.85,437.39z"/>
<path class="st2" d="M-101.06,467.23c-2.2,0.82-4.95,0.81-7.66-0.03c-2.46-0.77-4.59-2.14-5.98-3.87c-1.46-1.81-1.95-3.8-1.39-5.6
	c0.51-1.64,1.87-2.94,3.81-3.65c1.84-0.67,4.09-0.78,6.34-0.3c-0.42,0.4-0.82,0.83-1.19,1.28c-3.66-0.5-6.83,0.76-7.57,3.1
	c-0.41,1.32-0.01,2.83,1.13,4.25c1.21,1.5,3.08,2.71,5.27,3.39c2.41,0.75,4.91,0.75,6.82,0.02c0.18-0.85,1.01-1.4,1.86-1.22
	c0.85,0.18,1.4,1.01,1.22,1.86c-0.18,0.85-1.01,1.4-1.86,1.22C-100.55,467.61-100.84,467.45-101.06,467.23L-101.06,467.23z
	 M-105.13,454.22c-2.18,2.01-3.6,4.57-3.91,6.96c-0.77,0.41-1.05,1.36-0.64,2.13c0.41,0.77,1.36,1.05,2.13,0.64
	c0.77-0.41,1.05-1.36,0.64-2.13c-0.15-0.28-0.38-0.5-0.66-0.65c0.31-1.99,1.55-4.15,3.43-5.88c2.29-2.11,5.17-3.22,7.43-2.91
	c0.32-0.39,0.63-0.82,0.92-1.31C-98.62,450.35-102.25,451.56-105.13,454.22L-105.13,454.22z M-93.43,457.46
	c-0.25,1.41-0.94,2.88-1.98,4.21c0.2,0.54,0.37,1.1,0.51,1.67c1.24-1.37,2.15-2.93,2.63-4.49c0.12-0.38,0.21-0.76,0.28-1.13
	c0.35-1.94-0.04-3.68-1.07-4.94c-0.27,0.45-0.56,0.87-0.88,1.29C-93.38,454.96-93.2,456.14-93.43,457.46z M-99.39,457.25
	c0.25-0.83-0.22-1.71-1.06-1.96c-0.83-0.25-1.71,0.22-1.96,1.06c-0.25,0.83,0.22,1.71,1.06,1.96c0.3,0.09,0.63,0.09,0.93-0.01
	c0.6,0.5,1.16,1.13,1.64,1.87c0.76,1.14,1.33,2.51,1.65,3.97c0.46,2.03,0.41,4.04-0.12,5.74c-0.06,0.18-0.12,0.35-0.18,0.52
	c-0.66,1.7-1.76,2.8-3.11,3.11c-2.39,0.54-5.08-1.58-6.47-5c-0.52-0.09-1.03-0.2-1.54-0.35l-0.13,0.04
	c0.72,2.17,1.94,4.04,3.43,5.28c1.58,1.31,3.37,1.83,5.03,1.45c1.84-0.41,3.32-1.84,4.16-4.01c0.08-0.2,0.15-0.4,0.21-0.61
	c0.61-1.95,0.66-4.23,0.15-6.5C-96.3,461.1-97.65,458.74-99.39,457.25L-99.39,457.25z"/>
<ellipse transform="matrix(0.9102 -0.4142 0.4142 0.9102 -193.6108 2.6834)" class="st3" cx="-90.62" cy="447.74" rx="3.22" ry="6.92"/>
<ellipse transform="matrix(0.9443 -0.329 0.329 0.9443 -154.4549 -3.4507)" class="st4" cx="-87.43" cy="454.73" rx="0.73" ry="1.57"/>
<g>
	<path class="st5" d="M-86.88,458.48c0.71,0.25,1.49-0.13,1.74-0.85c0.25-0.71-0.13-1.49-0.85-1.74c-0.71-0.25-1.49,0.13-1.74,0.85
		C-87.97,457.46-87.59,458.24-86.88,458.48z"/>
	<path class="st2" d="M-80.59,454.89c-4.66-1.61-9.74,0.86-11.35,5.52c-1.61,4.66,0.86,9.74,5.52,11.35
		c4.66,1.61,9.74-0.86,11.35-5.52C-73.46,461.59-75.93,456.5-80.59,454.89z M-87.72,456.74c0.25-0.71,1.02-1.09,1.74-0.85
		c0.71,0.25,1.09,1.02,0.85,1.74c-0.25,0.71-1.02,1.09-1.74,0.85C-87.59,458.24-87.97,457.46-87.72,456.74z M-77.48,467.53
		c-0.52,0.77-1.97,0.79-3.75,0.18c-0.62,1.77-1.52,2.9-2.46,2.84c-0.93-0.07-1.67-1.32-2.03-3.17c-1.83,0.42-3.27,0.26-3.71-0.56
		c-0.45-0.85,0.26-2.19,1.71-3.51c-1.2-1.4-1.71-2.73-1.19-3.49c0.52-0.77,1.97-0.79,3.75-0.18c0.62-1.77,1.52-2.9,2.46-2.84
		c0.89,0.06,1.59,1.2,1.97,2.9c1.71-0.35,3.04-0.17,3.46,0.61c0.45,0.83-0.24,2.15-1.64,3.45
		C-77.55,465.26-76.93,466.71-77.48,467.53z"/>
	<g>
		<path class="st2" d="M-82.06,465.96c-0.29,0.16-0.58,0.3-0.87,0.43c0.47,0.25,0.93,0.45,1.36,0.62c0.14-0.47,0.27-1,0.37-1.55
			C-81.48,465.64-81.76,465.8-82.06,465.96z"/>
		<path class="st2" d="M-85.95,464.33c0.01-0.28,0.02-0.57,0.04-0.85c0.02-0.34,0.06-0.67,0.1-1c-0.42,0.29-0.81,0.58-1.16,0.87
			C-86.67,463.68-86.32,464.01-85.95,464.33z"/>
		<path class="st2" d="M-85.32,460.15c-1.4-0.46-2.5-0.45-2.89,0.14c-0.39,0.57,0,1.57,0.9,2.67c0.48-0.4,1.02-0.79,1.61-1.17
			C-85.6,461.2-85.47,460.65-85.32,460.15z"/>
		<path class="st2" d="M-87.36,463.71c-1.12,1.06-1.67,2.08-1.33,2.72c0.33,0.62,1.44,0.74,2.89,0.42
			c-0.08-0.57-0.13-1.19-0.14-1.84C-86.48,464.58-86.95,464.14-87.36,463.71z"/>
		<path class="st2" d="M-80.44,463.01c-0.01,0.28-0.02,0.57-0.04,0.85c-0.01,0.18-0.03,0.35-0.05,0.53
			c0.31-0.22,0.59-0.44,0.85-0.67C-79.91,463.49-80.17,463.25-80.44,463.01z"/>
		<path class="st2" d="M-79.29,463.37c1.09-1.04,1.62-2.04,1.28-2.67c-0.31-0.58-1.31-0.72-2.62-0.48c0.11,0.64,0.18,1.35,0.19,2.11
			C-80.02,462.67-79.63,463.02-79.29,463.37z"/>
		<path class="st2" d="M-81.06,467.2c1.4,0.46,2.5,0.45,2.89-0.14c0.42-0.62-0.06-1.74-1.14-2.95c-0.39,0.33-0.83,0.66-1.3,0.97
			C-80.72,465.84-80.87,466.55-81.06,467.2z"/>
		<path class="st2" d="M-84.64,461.16c0.27-0.14,0.54-0.28,0.8-0.4c-0.34-0.17-0.67-0.31-0.99-0.44c-0.1,0.34-0.2,0.71-0.28,1.1
			C-84.95,461.34-84.79,461.25-84.64,461.16z"/>
		<path class="st2" d="M-85.23,462.11c-0.07,0.45-0.13,0.92-0.16,1.41c-0.03,0.43-0.04,0.84-0.04,1.25c0.32,0.25,0.65,0.5,1.01,0.74
			c0.31,0.21,0.62,0.4,0.93,0.58c0.39-0.17,0.79-0.36,1.19-0.57c0.43-0.23,0.83-0.47,1.21-0.72c0.04-0.31,0.08-0.63,0.1-0.95
			c0.03-0.43,0.04-0.84,0.04-1.25c-0.32-0.25-0.65-0.5-1.01-0.74c-0.43-0.29-0.86-0.55-1.28-0.78c-0.38,0.17-0.76,0.35-1.14,0.56
			C-84.68,461.78-84.96,461.94-85.23,462.11z M-83.36,462.41c0.75,0,1.36,0.61,1.36,1.36c0,0.75-0.61,1.36-1.36,1.36
			c-0.75,0-1.36-0.61-1.36-1.36C-84.72,463.02-84.11,462.41-83.36,462.41z"/>
		<path class="st2" d="M-85.19,467.25c0.3,1.45,0.86,2.42,1.57,2.47c0.7,0.05,1.39-0.81,1.89-2.19c-0.58-0.23-1.18-0.52-1.8-0.86
			C-84.1,466.9-84.66,467.1-85.19,467.25z"/>
		<path class="st2" d="M-84.72,465.93c-0.24-0.16-0.47-0.33-0.7-0.5c0.02,0.45,0.07,0.89,0.13,1.29c0.38-0.1,0.78-0.24,1.19-0.39
			C-84.31,466.2-84.51,466.07-84.72,465.93z"/>
		<path class="st2" d="M-81.67,461.41c0.24,0.16,0.47,0.33,0.7,0.5c-0.03-0.56-0.09-1.09-0.17-1.58c-0.47,0.12-0.97,0.28-1.49,0.48
			C-82.31,461-81.99,461.2-81.67,461.41z"/>
		<path class="st2" d="M-81.26,459.82c-0.31-1.3-0.84-2.14-1.5-2.19c-0.7-0.05-1.39,0.81-1.89,2.19c0.46,0.18,0.95,0.41,1.44,0.67
			C-82.54,460.2-81.88,459.98-81.26,459.82z"/>
	</g>
</g>
<path class="st6" d="M-95.26,434.83c-6.79-1.87-11.55,5.81-11.55,5.81c-3.17,5.06-2.33,10.24-2.33,10.24s-9.24,0.85-9.68,7.68
	c-0.44,6.83,7.04,10.35,7.04,10.35s3.59,10.85,12.06,9.11c6.17-1.27,6.76-7.47,6.76-7.47s4.85,5.63,11.45,4.75"/>
<path class="st6" d="M-72.22,467.83c0.55-1.56,0.71-3.11,0.68-4.5c-0.11-4.37-2.58-8.58-6.48-10.55c-2.36-1.19-4.91-1.25-4.91-1.25
	c0.09-11.8-7.69-12.96-7.69-12.96s-1.29-2.75-4.65-3.74"/>
<g>
	<polyline class="st0" points="22.51,2.83 13.96,7.72 10.76,18.06 34.73,9.53 33.55,9.09 22.51,2.83 	"/>
	<path class="st1" d="M4.06,22.84l-2.92,6.04l11.2,13.71L47.74,30l-2.23-6.45c-0.32-0.35-7.87-3.38-8-3.83L34.73,9.53L11.48,17.8
		L4.06,22.84z"/>
	<path class="st2" d="M14.6,21.36c-0.82-0.26-1.28-1.13-1.03-1.96c0.08-0.26,0.23-0.5,0.44-0.69c-0.07-1.51,0.14-3.09,0.62-4.66
		c1.31-4.19,4.3-7.2,7.37-7.58c0.63,0.21,0.65,1.21,0.14,1.45c-2.47,0.32-5.01,2.98-6.13,6.56c-0.41,1.3-0.6,2.61-0.57,3.86
		c0.84,0.21,1.34,1.06,1.13,1.9s-1.06,1.34-1.9,1.13C14.66,21.38,14.63,21.37,14.6,21.36L14.6,21.36z M25.38,6.33
		c-0.82-0.26-1.7,0.2-1.96,1.03s0.2,1.7,1.03,1.96c0.34,0.11,0.7,0.09,1.03-0.03c0.58,0.71,1.02,1.65,1.25,2.77
		c0.25,1.2,0.27,2.54,0.05,3.89c-0.01,0.03-0.01,0.07-0.02,0.1c0,0.02-0.01,0.05-0.01,0.07c-0.09,0.53-0.22,1.07-0.39,1.6
		c-0.07,0.23-0.15,0.46-0.24,0.69c-0.01,0.02-0.02,0.04-0.02,0.06c-0.01,0.02-0.02,0.05-0.03,0.07c-0.52,1.34-1.24,2.55-2.12,3.52
		c-0.71,0.79-1.49,1.39-2.28,1.77c-0.34,0.31,0.09,1.41,0.73,1.26c1.81-0.9,3.45-2.69,4.55-4.93c0.01-0.03,0.03-0.05,0.04-0.08
		c0.01-0.02,0.02-0.04,0.03-0.06c0.25-0.52,0.39-0.83,0.58-1.42c0.02-0.07,0.07-0.2,0.09-0.27c0.68-2.17,0.88-4.63,0.46-6.59
		c-0.31-1.44-0.9-2.67-1.71-3.58C26.62,7.38,26.16,6.57,25.38,6.33z"/>
	<path class="st2" d="M19.21,35.95c-2.19,0.81-4.92,0.8-7.61-0.03c-2.45-0.76-4.55-2.13-5.94-3.85c-1.45-1.8-1.94-3.78-1.38-5.56
		c0.51-1.63,1.85-2.92,3.78-3.62c1.82-0.67,4.06-0.77,6.3-0.3c-0.42,0.4-0.81,0.82-1.18,1.27c-3.64-0.5-6.79,0.75-7.51,3.08
		c-0.41,1.31-0.01,2.81,1.13,4.22c1.2,1.49,3.06,2.69,5.24,3.37c2.39,0.75,4.88,0.75,6.77,0.02c0.17-0.85,1-1.39,1.85-1.22
		c0.85,0.17,1.39,1,1.22,1.85c-0.17,0.85-1,1.39-1.85,1.22C19.71,36.33,19.43,36.18,19.21,35.95L19.21,35.95z M15.17,23.04
		c-2.17,2-3.57,4.54-3.88,6.91c-0.76,0.41-1.05,1.36-0.64,2.12c0.41,0.76,1.36,1.05,2.12,0.64c0.76-0.41,1.05-1.36,0.64-2.12
		c-0.15-0.28-0.37-0.5-0.65-0.65c0.31-1.98,1.54-4.12,3.4-5.84c2.28-2.1,5.14-3.19,7.37-2.88c0.32-0.38,0.63-0.82,0.92-1.3
		C21.63,19.2,18.03,20.4,15.17,23.04L15.17,23.04z M26.78,26.26c-0.25,1.4-0.94,2.85-1.97,4.18c0.2,0.53,0.37,1.09,0.51,1.66
		c1.23-1.36,2.13-2.91,2.62-4.46c0.12-0.37,0.21-0.75,0.28-1.12c0.34-1.93-0.04-3.66-1.06-4.9c-0.26,0.44-0.56,0.87-0.87,1.28
		C26.84,23.77,27.02,24.95,26.78,26.26z M20.87,26.04c0.25-0.83-0.22-1.7-1.05-1.95c-0.83-0.25-1.7,0.22-1.95,1.05
		s0.22,1.7,1.05,1.95c0.3,0.09,0.62,0.09,0.92-0.01c0.59,0.5,1.15,1.13,1.63,1.86c0.75,1.13,1.32,2.5,1.64,3.94
		c0.45,2.01,0.41,4.01-0.12,5.7c-0.05,0.18-0.12,0.35-0.18,0.52c-0.65,1.69-1.75,2.78-3.09,3.09c-2.38,0.53-5.04-1.57-6.42-4.96
		c-0.52-0.09-1.03-0.2-1.53-0.34l-0.13,0.04c0.72,2.15,1.93,4.02,3.41,5.24c1.57,1.3,3.34,1.81,5,1.44
		c1.83-0.41,3.29-1.82,4.13-3.98c0.08-0.2,0.15-0.4,0.21-0.61c0.6-1.93,0.66-4.2,0.15-6.46C23.93,29.87,22.6,27.53,20.87,26.04
		L20.87,26.04z"/>
	
		<ellipse transform="matrix(0.9102 -0.4142 0.4142 0.9102 -4.2211 13.7438)" class="st3" cx="29.58" cy="16.6" rx="3.19" ry="6.87"/>
	<ellipse transform="matrix(0.9443 -0.329 0.329 0.9443 -5.924 12.0835)" class="st4" cx="32.75" cy="23.55" rx="0.73" ry="1.56"/>
	<g>
		<path class="st5" d="M33.29,27.27c0.71,0.24,1.48-0.13,1.73-0.84c0.24-0.71-0.13-1.48-0.84-1.73c-0.71-0.24-1.48,0.13-1.73,0.84
			C32.21,26.25,32.59,27.03,33.29,27.27z"/>
		<path class="st2" d="M39.53,23.71c-4.63-1.6-9.67,0.86-11.27,5.48c-1.6,4.63,0.86,9.67,5.48,11.27c4.63,1.6,9.67-0.86,11.27-5.48
			C46.62,30.35,44.16,25.31,39.53,23.71z M32.45,25.54c0.24-0.71,1.02-1.08,1.73-0.84c0.71,0.24,1.08,1.02,0.84,1.73
			c-0.24,0.71-1.02,1.08-1.73,0.84C32.59,27.03,32.21,26.25,32.45,25.54z M42.62,36.25c-0.52,0.77-1.96,0.78-3.72,0.18
			c-0.61,1.76-1.51,2.88-2.44,2.82c-0.93-0.07-1.66-1.31-2.02-3.14c-1.82,0.42-3.25,0.26-3.68-0.56c-0.45-0.84,0.26-2.17,1.7-3.49
			c-1.19-1.39-1.69-2.71-1.18-3.47c0.52-0.77,1.96-0.78,3.72-0.18c0.61-1.76,1.51-2.88,2.44-2.82c0.88,0.06,1.58,1.19,1.96,2.88
			c1.7-0.35,3.02-0.17,3.43,0.61c0.44,0.83-0.24,2.13-1.63,3.43C42.56,34,43.17,35.44,42.62,36.25z"/>
		<g>
			<path class="st2" d="M38.07,34.7c-0.29,0.15-0.57,0.29-0.86,0.43c0.47,0.25,0.92,0.45,1.35,0.62c0.14-0.47,0.27-0.99,0.36-1.54
				C38.65,34.37,38.37,34.54,38.07,34.7z"/>
			<path class="st2" d="M34.22,33.08c0.01-0.28,0.02-0.56,0.04-0.85c0.02-0.34,0.06-0.67,0.1-0.99c-0.42,0.28-0.8,0.58-1.15,0.87
				C33.5,32.43,33.84,32.76,34.22,33.08z"/>
			<path class="st2" d="M34.84,28.92c-1.39-0.45-2.48-0.44-2.87,0.13c-0.38,0.57,0,1.56,0.9,2.65c0.47-0.4,1.01-0.79,1.6-1.16
				C34.56,29.97,34.69,29.43,34.84,28.92z"/>
			<path class="st2" d="M32.81,32.46c-1.11,1.05-1.66,2.06-1.32,2.7c0.33,0.62,1.43,0.74,2.87,0.42c-0.08-0.57-0.13-1.18-0.14-1.82
				C33.69,33.33,33.22,32.89,32.81,32.46z"/>
			<path class="st2" d="M39.68,31.77c-0.01,0.28-0.02,0.56-0.04,0.85c-0.01,0.18-0.03,0.35-0.05,0.52c0.3-0.22,0.58-0.44,0.84-0.66
				C40.21,32.24,39.96,32,39.68,31.77z"/>
			<path class="st2" d="M40.83,32.12c1.08-1.03,1.6-2.03,1.27-2.65c-0.31-0.58-1.3-0.72-2.6-0.47c0.11,0.64,0.17,1.34,0.19,2.09
				C40.1,31.43,40.48,31.78,40.83,32.12z"/>
			<path class="st2" d="M39.06,35.92c1.39,0.45,2.48,0.44,2.87-0.13c0.42-0.62-0.06-1.73-1.13-2.93c-0.39,0.33-0.82,0.65-1.29,0.97
				C39.41,34.58,39.25,35.29,39.06,35.92z"/>
			<path class="st2" d="M35.52,29.93c0.27-0.14,0.53-0.27,0.8-0.4c-0.34-0.17-0.67-0.31-0.98-0.43c-0.1,0.34-0.2,0.71-0.28,1.09
				C35.21,30.1,35.36,30.02,35.52,29.93z"/>
			<path class="st2" d="M34.93,30.87c-0.07,0.45-0.13,0.91-0.16,1.4c-0.03,0.42-0.04,0.84-0.04,1.24c0.31,0.25,0.65,0.49,1,0.73
				c0.31,0.21,0.62,0.4,0.92,0.58c0.39-0.17,0.78-0.36,1.18-0.57c0.43-0.23,0.83-0.47,1.2-0.72c0.04-0.31,0.07-0.62,0.1-0.95
				c0.03-0.42,0.04-0.84,0.04-1.24c-0.31-0.25-0.65-0.49-1-0.73c-0.43-0.29-0.85-0.54-1.27-0.78c-0.37,0.16-0.75,0.35-1.14,0.55
				C35.47,30.54,35.2,30.7,34.93,30.87z M36.78,31.17c0.74,0,1.35,0.6,1.35,1.35c0,0.74-0.6,1.35-1.35,1.35
				c-0.74,0-1.35-0.6-1.35-1.35C35.43,31.78,36.04,31.17,36.78,31.17z"/>
			<path class="st2" d="M34.97,35.97c0.3,1.44,0.85,2.4,1.56,2.45c0.7,0.05,1.38-0.81,1.88-2.18c-0.57-0.23-1.18-0.51-1.79-0.86
				C36.05,35.63,35.49,35.82,34.97,35.97z"/>
			<path class="st2" d="M35.44,34.66c-0.24-0.16-0.47-0.33-0.69-0.49c0.02,0.45,0.07,0.88,0.13,1.28c0.38-0.1,0.77-0.23,1.18-0.39
				C35.85,34.93,35.64,34.8,35.44,34.66z"/>
			<path class="st2" d="M38.46,30.18c0.24,0.16,0.47,0.33,0.69,0.49c-0.03-0.56-0.09-1.09-0.17-1.56c-0.46,0.12-0.96,0.27-1.47,0.47
				C37.82,29.77,38.14,29.97,38.46,30.18z"/>
			<path class="st2" d="M38.87,28.59c-0.31-1.29-0.84-2.13-1.49-2.17c-0.7-0.05-1.38,0.81-1.88,2.18c0.46,0.18,0.94,0.4,1.43,0.66
				C37.6,28.98,38.26,28.75,38.87,28.59z"/>
		</g>
	</g>
	<path class="st6" d="M24.97,3.78C18.23,1.93,13.5,9.55,13.5,9.55c-3.15,5.03-2.32,10.17-2.32,10.17S2,20.56,1.57,27.35
		s6.99,10.28,6.99,10.28s3.56,10.78,11.97,9.04c6.13-1.26,6.71-7.42,6.71-7.42s4.82,5.59,11.37,4.72"/>
	<path class="st6" d="M47.85,36.55c0.54-1.55,0.71-3.08,0.67-4.47c-0.11-4.34-2.56-8.52-6.44-10.48c-2.34-1.18-4.87-1.25-4.87-1.25
		C37.3,8.65,29.58,7.5,29.58,7.5s-1.28-2.73-4.61-3.72"/>
</g>
</svg>
