<?xml version="1.0" encoding="UTF-8"?>
<svg id="Camada_3" xmlns="http://www.w3.org/2000/svg" version="1.1" viewBox="0 0 50 50">
  <!-- Generator: Adobe Illustrator 29.6.1, SVG Export Plug-In . SVG Version: 2.1.1 Build 9)  -->
  <defs>
    <style>
      .st0, .st1, .st2, .st3, .st4, .st5, .st6 {
        fill: none;
        stroke: #444;
        stroke-linecap: round;
      }

      .st0, .st2, .st4, .st6 {
        stroke-linejoin: round;
      }

      .st1 {
        stroke-miterlimit: 10;
      }

      .st2 {
        stroke-width: 2.5px;
      }

      .st3 {
        stroke-miterlimit: 10;
      }

      .st7 {
        fill: #444;
      }

      .st4 {
        stroke-width: 1.49px;
      }

      .st5 {
        stroke-miterlimit: 10;
      }

      .st6 {
        stroke-width: .5px;
      }

      .st8 {
        fill: #c3ff68;
      }
    </style>
  </defs>
  <path class="st8" d="M11.87,43.61l1.14-4.59,8.57-.02.36-4.91-14.1.46c-2.42,0-4.78-1.67-4.78-4.09V8.01c0-2.42,1.96-4.39,4.39-4.39h35.11c2.42,0,4.39,1.96,4.39,4.39v22.22"/>
  <g>
    <g>
      <ellipse class="st5" cx="29.8" cy="16.67" rx="8" ry="3.06" transform="translate(-4.35 16.72) rotate(-29.31)"/>
      <ellipse class="st1" cx="29.8" cy="16.68" rx="8" ry="3.06" transform="translate(12.77 46.27) rotate(-89.31)"/>
      <ellipse class="st3" cx="29.8" cy="16.67" rx="3.06" ry="8" transform="translate(.25 33.79) rotate(-59.31)"/>
    </g>
    <circle class="st7" cx="29.8" cy="16.68" r="1.11"/>
  </g>
  <line class="st6" x1="3.05" y1="12.71" x2="19.78" y2="12.71"/>
  <line class="st6" x1="39.65" y1="12.71" x2="46.94" y2="12.71"/>
  <path class="st4" d="M9.15,8.88c-.16,0-.28.13-.28.28s.13.28.28.28.28-.13.28-.28-.13-.28-.28-.28h0"/>
  <path class="st4" d="M12,8.88c-.16,0-.28.13-.28.28s.13.28.28.28.28-.13.28-.28-.13-.28-.28-.28h0"/>
  <path class="st4" d="M14.85,8.88c-.16,0-.28.13-.28.28s.13.28.28.28.28-.13.28-.28-.13-.28-.28-.28h0"/>
  <path class="st2" d="M20.87,34.55H7.44c-2.42,0-4.39-1.96-4.39-4.39V8.32c0-2.42,1.96-4.39,4.39-4.39h35.11c2.42,0,4.39,1.96,4.39,4.39v21.74"/>
  <path class="st0" d="M23.86,26.76h11.55c1.06,0,1.92.86,1.92,1.92v17.69h-15.4v-17.69c0-1.06.86-1.92,1.92-1.92Z"/>
  <path class="st0" d="M37.33,38.68h7.7c1.06,0,1.92.86,1.92,1.92v5.77h-9.62v-7.7h0Z"/>
  <path class="st0" d="M14.23,38.68h7.7v7.7h-9.62v-5.77c0-1.06.86-1.92,1.92-1.92Z"/>
</svg>