<?xml version="1.0" encoding="UTF-8"?>
<svg id="Camada_3" xmlns="http://www.w3.org/2000/svg" version="1.1" viewBox="0 0 50 50">
  <!-- Generator: Adobe Illustrator 29.5.1, SVG Export Plug-In . SVG Version: 2.1.0 Build 141)  -->
  <defs>
    <style>
      .st0, .st1, .st2, .st3, .st4 {
        fill: none;
        stroke: #444;
      }

      .st0, .st1, .st4 {
        stroke-linecap: round;
        stroke-linejoin: round;
      }

      .st1 {
        stroke-width: 2.5px;
      }

      .st2, .st3 {
        fill-rule: evenodd;
        stroke-miterlimit: 10;
      }

      .st2, .st4 {
        stroke-width: .5px;
      }

      .st5 {
        fill: #444;
      }

      .st6 {
        fill: #c3ff68;
      }
    </style>
  </defs>
  <g>
    <polygon class="st6" points="30.85 19.94 38.69 22.37 31.99 27.11 32.09 35.32 25.52 30.41 17.74 33.04 20.38 25.27 15.47 18.69 23.68 18.8 28.42 12.1 30.85 19.94"/>
    <g>
      <g>
        <g>
          <path class="st6" d="M47.41,14.21l.18-3.6-3.6-2.88-30.78-.54c-3.2,0-10.8-1.62-10.76,5.1l1.04,24.6,10.98,1.62,2.67,6.05,31.02-11.04c.74-.42.23-17.32-.75-19.31Z"/>
          <path class="st1" d="M34.37,41.73c.6-1.2.98-2.54,1.07-3.95h7.37c1.37,0,2.6-.56,3.5-1.46.9-.9,1.46-2.14,1.46-3.5V12.28c0-1.36-.56-2.6-1.46-3.5-.9-.9-2.14-1.46-3.5-1.46H7.4c-1.36,0-2.6.56-3.5,1.46s-1.46,2.14-1.46,3.5v20.54c0,1.36.56,2.6,1.46,3.5s2.14,1.46,3.5,1.46h7.37c.17,2.58,1.28,4.9,3,6.62,1.87,1.88,4.47,3.04,7.33,3.04"/>
        </g>
        <path class="st0" d="M25.12,47.27c-5.29,0-9.57-4.28-9.57-9.57s4.28-9.57,9.57-9.57,9.57,4.28,9.57,9.57"/>
      </g>
      <g>
        <circle class="st5" cx="7.72" cy="11.05" r="1.05"/>
        <circle class="st5" cx="11.09" cy="11.05" r="1.05"/>
      </g>
      <line class="st4" x1="2.92" y1="13.66" x2="47.08" y2="13.66"/>
    </g>
  </g>
  <path class="st5" d="M20.77,36.72l4.71-5.35c.44-.5,1.26-.19,1.26.47v4.48h1.92c.62,0,.95.73.54,1.19l-4.71,5.35c-.44.5-1.26.19-1.26-.47v-4.48h-1.92c-.62,0-.95-.73-.54-1.19h0Z"/>
  <path class="st3" d="M8.41,24.68h3.27c.39,0,.74.16,1,.41.26.26.41.61.41,1v3.27c0,.39-.16.74-.41,1-.26.26-.61.41-1,.41h-3.27c-.39,0-.74-.16-1-.41-.26-.26-.41-.61-.41-1v-3.27c0-.39.16-.74.41-1,.26-.26.61-.41,1-.41h0Z"/>
  <polyline class="st2" points="10.04 24.64 10.04 20.14 20 20.14"/>
  <path class="st3" d="M42.11,24.68c.39,0,.74.16,1,.41.26.26.41.61.41,1v3.27c0,.39-.16.74-.41,1-.26.26-.61.41-1,.41h-3.27c-.39,0-.74-.16-1-.41-.26-.26-.41-.61-.41-1v-3.27c0-.39.16-.74.41-1,.26-.26.61-.41,1-.41h3.27Z"/>
  <polyline class="st2" points="40.47 24.64 40.47 20.14 30.52 20.14"/>
  <path class="st2" d="M30.52,17.43"/>
  <path class="st2" d="M39.8,17.43"/>
  <path class="st2" d="M39.8,24.64"/>
  <path class="st5" d="M26.32,15.44l-.48.44c-.14.13-.33.19-.53.18-.1,0-.21-.01-.31-.01s-.21,0-.31.01c-.19.01-.38-.05-.52-.18l-.49-.44c-.17-.15-.41-.2-.62-.12-.46.16-.88.41-1.26.73-.17.15-.25.38-.2.6l.14.63c.04.19,0,.39-.11.55-.12.17-.22.35-.31.54-.08.17-.23.31-.42.36l-.62.2c-.22.07-.38.25-.42.47-.09.49-.09.98,0,1.46.04.22.2.4.42.47l.62.2c.18.06.33.19.42.37.09.19.2.37.31.55.11.16.15.36.11.54l-.13.63c-.05.22.03.45.2.6.38.32.8.57,1.27.74.21.08.45.03.62-.12l.49-.44c.14-.13.33-.19.52-.18.1,0,.21.01.31.01s.21,0,.31-.01c.19-.01.38.05.53.18l.48.43c.17.15.41.2.62.12.47-.17.89-.41,1.27-.73.17-.15.25-.38.2-.6l-.14-.64c-.04-.19,0-.38.11-.54.12-.17.22-.36.32-.55.08-.17.23-.31.42-.37l.62-.2c.22-.07.38-.25.42-.48.09-.48.09-.97,0-1.46-.04-.22-.2-.4-.42-.47l-.62-.2c-.18-.06-.33-.19-.42-.37-.09-.19-.19-.37-.31-.54-.11-.16-.15-.35-.11-.54l.14-.64c.05-.22-.03-.45-.2-.6-.37-.32-.79-.56-1.27-.73-.21-.08-.45-.03-.62.12Z"/>
  <circle class="st6" cx="25" cy="20.14" r="2.11"/>
</svg>