<?xml version="1.0" encoding="utf-8"?>
<!-- Generator: Adobe Illustrator 27.3.1, SVG Export Plug-In . SVG Version: 6.00 Build 0)  -->
<svg version="1.1" id="Camada_3" xmlns="http://www.w3.org/2000/svg" xmlns:xlink="http://www.w3.org/1999/xlink" x="0px" y="0px"
	 viewBox="0 0 50 50" style="enable-background:new 0 0 50 50;" xml:space="preserve">
<style type="text/css">
	.st0{fill:#EC6A6D;}
	.st1{fill:#E46160;}
	.st2{fill:none;stroke:#454444;stroke-width:2.5;stroke-linecap:round;stroke-linejoin:round;stroke-miterlimit:10;}
	.st3{fill:none;stroke:#444444;stroke-width:1.5;stroke-linecap:round;stroke-linejoin:round;stroke-miterlimit:10;}
	.st4{fill:none;stroke:#444444;stroke-width:0.5;stroke-linecap:round;stroke-linejoin:round;stroke-miterlimit:10;}
	.st5{fill:none;}
</style>
<g>
	<g>
		<path class="st0" d="M46.44,1.45H4.08c-1.25,0-2.26,1.01-2.26,2.26v16.68L48.71,3.71v0C48.71,2.46,47.69,1.45,46.44,1.45z"/>
		<polygon class="st1" points="1.82,20.39 1.82,45.68 48.71,29 48.71,3.71 		"/>
	</g>
	<g>
		<g>
			<g>
				<path class="st2" d="M24.97,48.55H5.03c-1.92,0-3.47-1.62-3.47-3.63V5.07c0-2,1.56-3.63,3.47-3.63h39.96
					c1.92,0,3.47,1.62,3.47,3.63v26.52"/>
				<path class="st2" d="M1.56,15.32"/>
				<path class="st2" d="M48.44,15.32"/>
			</g>
		</g>
	</g>
	<g>
		<g>
			<path class="st3" d="M9.6,18.96h8.9v-8.9c0,0-0.24-2.03,1.72-2.03s8.59,0,8.59,0"/>
			<path class="st3" d="M30.63,9.74v8.9h8.9c0,0,2.03-0.24,2.03,1.72s0,8.59,0,8.59"/>
			<path class="st3" d="M39.85,30.82h-8.9v8.9c0,0,0.24,2.03-1.72,2.03s-8.59,0-8.59,0"/>
			<path class="st3" d="M18.82,40.04v-8.9h-8.9c0,0-2.03,0.24-2.03-1.72s0-8.59,0-8.59"/>
			<polyline class="st4" points="1.56,25.65 19.81,25.65 22.93,17.45 25.76,32.33 29.5,25.65 48.44,25.65 			"/>
		</g>
	</g>
	<path class="st5" d="M29.08,43.4"/>
</g>
</svg>
