<svg xmlns="http://www.w3.org/2000/svg" viewBox="0 0 48 47"><path fill="none" stroke="#444" stroke-linecap="round" stroke-linejoin="round" stroke-miterlimit="10" d="M18.8 9.6h20.4v21.3m-2.4-2.2l2.5 2.2m2.4-2.2l-2.4 2.2"/><path fill="#a6c1c2" d="M32.6 19.7v.3L7.3 29.3c-.8-.3-1.3-1.1-1.3-2v-7.5c0-1.2 1-2.2 2.2-2.2h22.2c1.2-.1 2.2.9 2.2 2.1zM19.2 7.5v4.1c0 1.2-1 2.2-2.2 2.2H3.9c-.3 0-.6-.2-.9-.4l16.2-5.9z"/><path fill="#b9d7d9" d="M19.2 4.1v4.1L3.9 13.8c-.3 0-.6-.2-.9-.4-.6-.4-1-1.1-1-1.8V4.1c0-1.2 1-2.2 2.2-2.2H17c1.2 0 2.2 1 2.2 2.2z"/><path fill="none" stroke="#494949" stroke-linecap="round" stroke-linejoin="round" stroke-miterlimit="10" stroke-width="2.5" d="M43.6 45.1H13.7c-1.3 0-2.3-1-2.3-2.3v-7.3c0-1.3 1-2.3 2.3-2.3h29.9c1.3 0 2.3 1 2.3 2.3v7.3c0 1.3-1 2.3-2.3 2.3zm-24.4-41v7.5c0 1.2-1 2.2-2.2 2.2H3.9c-.3 0-.6-.2-.9-.4-.6-.4-1-1.1-1-1.8V4.1c0-1.2 1-2.2 2.2-2.2H17c1.2 0 2.2 1 2.2 2.2zm13.4 15.6v7.5c0 1.2-1 2.2-2.2 2.2H8.2c-.3 0-.6-.1-.9-.2-.8-.3-1.3-1.1-1.3-2v-7.5c0-1.2 1-2.2 2.2-2.2h22.2c1.2 0 2.2 1 2.2 2.2z"/></svg>