<?xml version="1.0" encoding="utf-8"?>
<!-- Generator: Adobe Illustrator 28.0.0, SVG Export Plug-In . SVG Version: 6.00 Build 0)  -->
<svg version="1.1" id="Camada_1" xmlns="http://www.w3.org/2000/svg" xmlns:xlink="http://www.w3.org/1999/xlink" x="0px" y="0px"
	 viewBox="0 0 48 47" style="enable-background:new 0 0 48 47;" xml:space="preserve">
<style type="text/css">
	.st0{fill:#46B8B0;}
	.st1{fill:none;stroke:#444444;stroke-width:2.5;stroke-linecap:round;stroke-linejoin:round;stroke-miterlimit:10;}
	.st2{fill:none;stroke:#444444;stroke-width:0.5;stroke-linecap:round;stroke-linejoin:round;stroke-miterlimit:10;}
	.st3{fill:none;stroke:#494949;stroke-linecap:round;stroke-linejoin:round;stroke-miterlimit:10;}
</style>
<g>
	<path class="st0" d="M44.6,16.2L45.1,6l-1.8-3.6L29,2.8c-3,0-25.9-2.8-25.9,0.2L1.5,22.3l1.1,21.9l12.6,0.6l28.9-10.3
		C44.8,34.1,45.6,18.1,44.6,16.2z"/>
	<path class="st1" d="M30.7,44.7H5.6c-1.7,0-3.2-1.5-3.2-3.3V5.2c0-1.8,1.4-3.3,3.2-3.3h36.3c1.7,0,3.2,1.5,3.2,3.3v30.2"/>
	<path class="st2" d="M20.6,13.1h14.2V28 M33.1,26.5l1.7,1.5 M36.6,26.5L34.9,28"/>
	<path class="st3" d="M37.5,37.9H16.6c-0.9,0-1.6-0.7-1.6-1.6v-5.1c0-0.9,0.7-1.6,1.6-1.6h20.9c0.9,0,1.6,0.7,1.6,1.6v5.1
		C39.1,37.2,38.4,37.9,37.5,37.9z M20.4,9.3v5.2c0,0.8-0.7,1.5-1.5,1.5H9.7c-0.2,0-0.4-0.1-0.6-0.3c-0.4-0.3-0.7-0.8-0.7-1.3V9.3
		c0-0.8,0.7-1.5,1.5-1.5h8.9C19.7,7.8,20.4,8.5,20.4,9.3z M29.8,20.2v5.2c0,0.8-0.7,1.5-1.5,1.5H12.7c-0.2,0-0.4-0.1-0.6-0.1
		c-0.6-0.2-0.9-0.8-0.9-1.4v-5.2c0-0.8,0.7-1.5,1.5-1.5h15.5C29.1,18.6,29.8,19.3,29.8,20.2z"/>
</g>
</svg>
