<?xml version="1.0" encoding="utf-8"?>
<!-- Generator: Adobe Illustrator 26.5.0, SVG Export Plug-In . SVG Version: 6.00 Build 0)  -->
<svg version="1.1" id="Camada_3" xmlns="http://www.w3.org/2000/svg" xmlns:xlink="http://www.w3.org/1999/xlink" x="0px" y="0px"
	 viewBox="0 0 50 50" style="enable-background:new 0 0 50 50;" xml:space="preserve">
<style type="text/css">
	.st0{fill:#71BAC0;}
	.st1{fill:#7ED0D6;}
	.st2{fill:#AFE55D;}
	.st3{fill:#444444;stroke:#444444;stroke-width:0.25;stroke-miterlimit:10;}
	.st4{fill:#444444;}
	.st5{fill:none;stroke:#444444;stroke-linecap:round;stroke-miterlimit:10;}
	.st6{fill:none;stroke:#444444;stroke-width:2.5;stroke-linecap:round;stroke-linejoin:round;stroke-miterlimit:10;}
	.st7{fill:none;stroke:#444444;stroke-width:2;stroke-linecap:round;stroke-linejoin:round;stroke-miterlimit:10;}
	.st8{fill:#444444;stroke:#444444;stroke-width:0.5;stroke-miterlimit:10;}
	.st9{fill:none;stroke:#444444;stroke-width:2.5;stroke-linecap:round;stroke-miterlimit:10;}
</style>
<g>
	<g>
		<g>
			<path class="st0" d="M47.56,15.6L3.31,31.71L3.07,37.6l0.08,10.13L32.7,37.37c0-0.01,0-0.03,0-0.04c0-0.01,0.01-0.02,0.01-0.04
				c-0.18-0.1-0.3-0.31-0.32-0.52c-0.05-0.59,0.1-1.21,0.23-1.79c0.1-0.47,0.21-0.94,0.31-1.4c-0.19-0.11-0.33-0.32-0.33-0.53
				c0-0.35,0.28-0.56,0.6-0.6c2.02-0.21,4.06-0.29,6.09-0.29c0.31,0,0.49,0.2,0.55,0.43c0.06,0,0.12,0,0.18,0
				c2.47-0.03,3.82-0.9,6.29-0.92l0.64-2.81L47.56,15.6z"/>
			<path class="st1" d="M47.36,7.64l-1.13-4.57h-5.63l-23.37,8.5c-0.16,0.31-0.28,0.66-0.38,1.01c-0.07,0.67-0.13,1.33-0.19,2
				c0.24,0.08,0.42,0.31,0.42,0.56c0,0.51-0.02,1.02-0.05,1.53c-0.01,0.23-0.02,0.46-0.05,0.68c-0.03,0.3-0.09,0.63-0.4,0.76
				c-0.06,0.15-0.17,0.28-0.37,0.33c-1.72,0.44-3.52,0.2-5.27,0.17c-2.19-0.04-4.38,0-6.57,0c-0.26,0,0.08,0.17,0,0
				c-0.5,0.2-1.3,0.7-1.83,0.82l-0.37,2.55L2.4,33.06l44.75-16.29l0.68-0.25v-0.33L47.36,7.64z"/>
			<path class="st2" d="M46.95,1.56"/>
		</g>
		<path class="st3" d="M45.77,21.11"/>
		<path class="st4" d="M30.23,15.6"/>
		<g>
			<line class="st5" x1="43.75" y1="7.64" x2="20.54" y2="7.64"/>
			<line class="st5" x1="43.01" y1="10.95" x2="26.66" y2="10.95"/>
			<line class="st5" x1="40.22" y1="14.09" x2="32.53" y2="14.09"/>
			<line class="st5" x1="30.85" y1="14.09" x2="25.37" y2="14.09"/>
			<line class="st5" x1="23.69" y1="14.09" x2="20.54" y2="14.09"/>
			<line class="st5" x1="42.92" y1="17.24" x2="34.44" y2="17.24"/>
			<line class="st5" x1="42.52" y1="20.38" x2="36.82" y2="20.38"/>
			<line class="st5" x1="36.83" y1="26.32" x2="39.74" y2="26.32"/>
			<line class="st5" x1="38.32" y1="23.56" x2="43.8" y2="23.56"/>
		</g>
		<path class="st6" d="M6.91,48.44h21.7c2.39,0,4.34-1.94,4.34-4.34V22.4c0-2.39-1.94-4.34-4.34-4.34H6.91
			c-2.39,0-4.34,1.94-4.34,4.34v21.7C2.57,46.5,4.52,48.44,6.91,48.44z"/>
		<path class="st7" d="M33.96,32.66h9.06c2.39,0,4.34-1.94,4.34-4.34V6.63c0-2.39-1.94-4.34-4.34-4.34h-21.7
			c-2.39,0-4.34,1.94-4.34,4.34v11.22"/>
	</g>
	<g>
		<g>
			<g>
				<g>
					<path class="st8" d="M24.11,29.59c0.83-3.02,0.62-5.31-0.73-6.03c-1.04-0.62-2.6-0.11-4.47,1.35
						c-0.42,0.32-0.83,0.73-1.15,1.04c-0.42-0.42-0.83-0.73-1.15-1.04c-1.77-1.45-3.43-1.98-4.47-1.35
						c-1.35,0.73-1.56,3.12-0.73,6.03c-3.02,0.83-4.88,2.18-4.88,3.64c0,1.56,1.87,2.92,4.88,3.64c-0.11,0.52-0.32,1.04-0.32,1.56
						c-0.42,2.28,0,3.95,1.04,4.47c0.32,0.21,0.62,0.32,1.04,0.32c0.94,0,2.08-0.52,3.43-1.56c0.42-0.32,0.83-0.73,1.15-1.04
						c0.42,0.42,0.83,0.73,1.15,1.04c1.25,1.04,2.49,1.56,3.43,1.56c0.42,0,0.73-0.11,1.04-0.32c1.04-0.62,1.45-2.18,1.04-4.47
						c-0.11-0.52-0.21-1.04-0.32-1.56c3.02-0.83,4.88-2.18,4.88-3.64C28.99,31.66,27.12,30.31,24.11,29.59z M19.21,25.11
						c1.25-0.94,2.28-1.45,3.12-1.45c0.32,0,0.62,0.11,0.83,0.21c1.15,0.62,1.25,2.81,0.52,5.62c-1.04-0.21-2.18-0.42-3.43-0.52
						c-0.73-1.04-1.45-1.87-2.18-2.71C18.49,25.84,18.8,25.42,19.21,25.11z M21.19,35.2c-0.42,0.62-0.83,1.35-1.25,1.87
						c-0.73,0.11-1.45,0.11-2.28,0.11c-0.73,0-1.56,0-2.28-0.11c-0.42-0.62-0.83-1.25-1.25-1.87c-0.42-0.62-0.73-1.35-1.04-1.98
						c0.32-0.62,0.62-1.35,1.04-1.98c0.42-0.62,0.83-1.35,1.25-1.87c0.73-0.11,1.45-0.11,2.28-0.11s1.56,0,2.28,0.11
						c0.42,0.62,0.83,1.25,1.25,1.87c0.42,0.62,0.73,1.35,1.04,1.98C21.92,33.85,21.61,34.57,21.19,35.2z M22.54,33.74
						c0.42,0.94,0.83,1.87,1.04,2.81c-0.94,0.21-1.87,0.42-3.02,0.52c0.32-0.52,0.73-1.04,1.04-1.66
						C21.92,34.89,22.23,34.26,22.54,33.74z M17.76,39.99c-0.62-0.73-1.35-1.45-1.98-2.39c0.62,0,1.25,0.11,1.98,0.11
						s1.35,0,1.98-0.11C19.11,38.42,18.38,39.26,17.76,39.99z M14.95,37.07c-1.04-0.11-2.08-0.32-3.02-0.52
						c0.32-0.94,0.62-1.87,1.04-2.81c0.32,0.52,0.62,1.15,0.94,1.66C14.22,36.03,14.54,36.55,14.95,37.07z M12.98,32.7
						c-0.42-0.94-0.83-1.98-1.04-2.81c0.94-0.21,1.87-0.42,3.02-0.52c-0.32,0.52-0.73,1.04-1.04,1.66
						C13.6,31.66,13.29,32.19,12.98,32.7z M17.76,26.46c0.62,0.73,1.35,1.45,1.98,2.39c-0.63,0.01-1.25-0.09-1.98-0.09
						s-1.35,0-1.98,0.11C16.41,28.02,17.14,27.18,17.76,26.46z M21.61,31.04c-0.32-0.52-0.62-1.15-1.04-1.66
						c1.04,0.11,2.08,0.32,3.02,0.52c-0.32,0.94-0.62,1.87-1.04,2.81C22.23,32.19,21.92,31.55,21.61,31.04z M12.35,23.86
						c0.83-0.52,2.28,0,3.95,1.25c0.42,0.32,0.73,0.62,1.15,1.04c-0.73,0.83-1.45,1.66-2.18,2.71c-1.25,0.11-2.39,0.32-3.43,0.52
						C11.11,26.67,11.21,24.49,12.35,23.86z M6.94,33.22c0-1.35,1.87-2.49,4.58-3.22c0.32,1.04,0.73,2.08,1.25,3.22
						c-0.52,1.15-0.94,2.18-1.25,3.22C8.81,35.72,6.94,34.57,6.94,33.22z M16.31,41.33c-1.66,1.35-3.12,1.77-3.95,1.25
						s-1.15-1.98-0.83-4.05c0.11-0.52,0.21-1.04,0.32-1.56c1.04,0.21,2.18,0.42,3.43,0.52c0.73,1.04,1.45,1.87,2.18,2.71
						C17.03,40.61,16.72,41.02,16.31,41.33z M24,38.52c0.32,2.08,0,3.54-0.83,4.05s-2.28,0-3.95-1.25C18.8,41,18.5,40.7,18.08,40.28
						c0.73-0.83,1.45-1.66,2.18-2.71c1.25-0.11,2.39-0.32,3.43-0.52C23.79,37.49,24,38.01,24,38.52z M24,36.45
						c-0.32-1.04-0.73-2.18-1.25-3.22c0.52-1.15,0.94-2.18,1.25-3.22c2.71,0.73,4.58,1.87,4.58,3.22
						C28.58,34.57,26.71,35.72,24,36.45z"/>
				</g>
			</g>
		</g>
		<circle class="st8" cx="17.44" cy="33.25" r="1.83"/>
	</g>
	<g>
		<g>
			<path class="st9" d="M43.01,27.57v6.99c0,2.99-2.2,5.42-4.91,5.42H27.68"/>
			<g>
				<polygon class="st4" points="30.97,37.09 28.09,39.98 30.97,42.86 28.52,42.86 25.64,39.98 28.52,37.09 				"/>
			</g>
		</g>
	</g>
</g>
</svg>
