<?xml version="1.0" encoding="utf-8"?>
<!-- Generator: Adobe Illustrator 28.0.0, SVG Export Plug-In . SVG Version: 6.00 Build 0)  -->
<svg version="1.1" id="Layer_1" xmlns="http://www.w3.org/2000/svg" xmlns:xlink="http://www.w3.org/1999/xlink" x="0px" y="0px"
	 viewBox="0 0 50 50" style="enable-background:new 0 0 50 50;" xml:space="preserve">
<style type="text/css">
	.st0{fill:#DC5E82;}
	.st1{fill:none;stroke:#444444;stroke-linecap:round;stroke-linejoin:round;stroke-miterlimit:10;}
	.st2{fill:none;stroke:#444444;stroke-width:0.5;stroke-linecap:round;stroke-linejoin:round;stroke-miterlimit:10;}
	.st3{fill:#444444;}
	.st4{fill:none;stroke:#444444;stroke-width:2.5;stroke-linecap:round;stroke-linejoin:round;stroke-miterlimit:10;}
</style>
<path class="st0" d="M48.1,23.7c-0.1-0.8-0.4-2.9-0.9-3.5l-2-3.6L42,12.4l-4.7-2.1L23,9.3c-3.2,0-4.7-1.4-11.7,0.8L5.2,15l-4,9.5
	l2.6,10.6c-0.4,1.2,5.5,6.3,5.8,6.5l6.1,2l32.2-11.7C48.4,31.6,48.6,28.6,48.1,23.7z"/>
<g>
	<path class="st1" d="M33.8,23.3v-2.6c0-0.5-0.4-0.9-0.9-0.9H11.1c-0.5,0-0.9,0.4-0.9,0.9v9.9c0,0.5,0.4,0.9,0.9,0.9h17.1"/>
	<rect x="12.8" y="23.5" class="st2" width="3" height="4.8"/>
	<rect x="22.9" y="23.5" class="st2" width="3" height="4.8"/>
	<line class="st2" x1="18.1" y1="23.2" x2="18.1" y2="28.6"/>
	<circle class="st3" cx="20.7" cy="24.5" r="0.4"/>
	<circle class="st3" cx="20.7" cy="27" r="0.4"/>
	<polyline class="st2" points="28.6,28.3 27.8,28.3 27.8,23.5 30.7,23.5 30.7,25.7 	"/>
	<path class="st1" d="M33.8,35.8h-4c-0.4,0-0.6-0.4-0.4-0.8c0.4-0.8,1-2,1-3.1c0,0-0.3-5.2,3.5-5.2"/>
	<path class="st1" d="M33.8,35.8h4c0.4,0,0.6-0.4,0.4-0.8c-0.4-0.8-1-2-1-3.1c0,0,0.3-5.2-3.5-5.2"/>
	<path class="st2" d="M32.7,35.8c0,0-0.4,1.7,1.1,1.7"/>
	<path class="st2" d="M34.9,35.8c0,0,0.4,1.7-1.1,1.7"/>
	<path class="st2" d="M32.7,26.8c0,0-0.4-1.7,1.1-1.7"/>
	<path class="st2" d="M35,26.8c0,0,0.4-1.7-1.1-1.7"/>
	<path class="st2" d="M36.6,25c0,0,1.8,0.1,1.8,1.9"/>
	<path class="st2" d="M36.9,22.2c0,0,4.2,0.2,4.3,4.6"/>
</g>
<path class="st3" d="M24.8,8c0,0-0.1-2.1-0.8-5.5c0,0,0.4-0.4,1.1-0.2c0,0,0.8,2.2,0.8,5.8c0,0,1.1-3.3,4.1-4c0,0,0.3,2.3-1.7,4.6
	c0,0,2.8,1.3,3.4,2.9c0,0-2.4,0.5-5.1-0.7c0,0,0.1,1.6-0.9,3.7c0,0-2-1.4-1.6-3.8c0,0-1.9,1.3-4.5,1.2c0,0,1-2.2,2.9-3
	c0,0-2.9-1.5-2.9-3.5C19.5,5.6,22.7,5.5,24.8,8z"/>
<path class="st4" d="M29.2,43.8c0,0-3.8-1.2-7.3-0.2c0,0-8.1,1.4-13.7-3.4c0,0-6.6-5-6.6-14.6"/>
<path class="st4" d="M41.3,40.5c0,0,7.3-2.7,7-15.2"/>
<path class="st4" d="M1.7,25.3c0,0,0.7-19.4,23.3-15.7c0,0,21.1-4.5,23.3,15.7"/>
</svg>
