<svg xmlns="http://www.w3.org/2000/svg" id="Camada_1" x="0" y="0" version="1.1" viewBox="0 0 50 50" xml:space="preserve"><style>.st2{fill:#031326}.st3{fill:none;stroke:#444;stroke-width:.821;stroke-linecap:round;stroke-miterlimit:10}.st4{fill:#444}</style><path fill="#f799ff" d="M24.7 2C12.3 2 2.3 12.1 2.3 24.5c0 7.6 3.8 14.4 9.7 18.4l34.5-12.5c.5-1.9.8-3.9.8-5.9C47.2 12.1 37.1 2 24.7 2z"/><path fill="#e589ef" d="M12 42.8l34.2-12.5c.5-1.9.8-3.9.8-5.9C47 12.2 37 2.2 24.7 2.2S2.4 12.2 2.4 24.5c0 7.6 3.8 14.3 9.6 18.3z"/><path d="M24.7 48c-13 0-23.5-10.5-23.5-23.5S11.8 1 24.7 1s23.5 10.5 23.5 23.5c0 2.1-.3 4.2-.8 6.2-.2.6-.7.9-1.3.7-.6-.2-.9-.7-.7-1.3.5-1.8.7-3.7.7-5.6 0-11.8-9.6-21.4-21.4-21.4-11.8 0-21.4 9.6-21.4 21.4s9.6 21.4 21.4 21.4c.6 0 1 .5 1 1 .1.6-.4 1.1-1 1.1z" class="st2"/><circle cx="24.7" cy="24.5" r="2.3" class="st2"/><ellipse cx="24.7" cy="24.5" class="st3" rx="12.4" ry="4.7"/><ellipse cx="24.7" cy="24.5" class="st3" rx="12.4" ry="4.7" transform="rotate(-60 24.721 24.484)"/><ellipse cx="24.7" cy="24.5" class="st3" rx="4.7" ry="12.4" transform="rotate(-30 24.719 24.482)"/><circle cx="24.7" cy="24.5" r="2.3" class="st4"/><path d="M24.7.9C11.7.9 1.1 11.5 1.1 24.5c0 13 10.6 23.6 23.6 23.6.7 0 1.2-.6 1.2-1.2s-.6-1.2-1.2-1.2c-11.6 0-21.1-9.4-21.1-21.1S13.1 3.4 24.7 3.4c11.6 0 21.1 9.4 21.1 21.1 0 1.9-.2 3.7-.7 5.5-.2.7.2 1.4.9 1.5.7.2 1.4-.2 1.5-.9.5-2 .8-4.1.8-6.2C48.3 11.5 37.7.9 24.7.9z" class="st4"/><path d="M24.7 6.9C15 6.9 7.1 14.8 7.1 24.5S15 42.1 24.7 42.1s17.6-7.9 17.6-17.6S34.4 6.9 24.7 6.9zm0 34.7c-9.4 0-17.1-7.7-17.1-17.1S15.3 7.4 24.7 7.4 41.9 15 41.9 24.5s-7.7 17.1-17.2 17.1z" class="st4"/></svg>