<?xml version="1.0" encoding="utf-8"?>
<!-- Generator: Adobe Illustrator 28.0.0, SVG Export Plug-In . SVG Version: 6.00 Build 0)  -->
<svg version="1.1" id="Layer_1" xmlns="http://www.w3.org/2000/svg" xmlns:xlink="http://www.w3.org/1999/xlink" x="0px" y="0px"
	 viewBox="0 0 50 50" style="enable-background:new 0 0 50 50;" xml:space="preserve">
<style type="text/css">
	.st0{fill:#DC5E82;}
	.st1{fill:none;stroke:#444444;stroke-width:2.5;stroke-linecap:round;stroke-linejoin:round;stroke-miterlimit:10;}
	.st2{fill:none;stroke:#444444;stroke-linecap:round;stroke-linejoin:round;stroke-miterlimit:10;}
	.st3{fill:none;stroke:#444444;stroke-width:0.5;stroke-linecap:round;stroke-linejoin:round;stroke-miterlimit:10;}
	.st4{fill:#444444;}
</style>
<g>
	<path class="st0" d="M43.9,14.8l-2.6-6.9l0.1-3.7l0.9-2.3H22.9c-3.5,0-17.3-2-17.3,4v16l0,24.6l3.6,1.9l34.1-12.1
		C44.1,35.9,45,16.9,43.9,14.8z"/>
	<g>
		<path class="st1" d="M43.6,1.9h-34c0,0-4,0.2-4,4s3.4,4,4,4s34,0,34,0v27.1"/>
		<path class="st1" d="M5.6,5.4v37.5c0,0-0.3,5,4,5s23.2,0,23.2,0"/>
	</g>
	<line class="st2" x1="11.2" y1="9.9" x2="11.2" y2="47.9"/>
	<path class="st2" d="M42.4,1.9c-0.4,0.5-1.2,1.9-1.3,3.9c0,2.1,0.9,3.6,1.3,4.1"/>
	<ellipse transform="matrix(0.8242 -0.5663 0.5663 0.8242 -11.0872 19.9576)" class="st3" cx="26.6" cy="27.8" rx="4.4" ry="10.4"/>
	<ellipse transform="matrix(0.5703 -0.8215 0.8215 0.5703 -11.4466 33.8067)" class="st3" cx="26.6" cy="27.8" rx="10.4" ry="4.4"/>
	<ellipse class="st3" cx="26.8" cy="27.6" rx="10.7" ry="4.2"/>
	<circle class="st4" cx="26.5" cy="27.8" r="2"/>
</g>
</svg>
