<?xml version="1.0" encoding="utf-8"?>
<!-- Generator: Adobe Illustrator 28.1.0, SVG Export Plug-In . SVG Version: 6.00 Build 0)  -->
<svg version="1.1" id="Layer_1" xmlns="http://www.w3.org/2000/svg" xmlns:xlink="http://www.w3.org/1999/xlink" x="0px" y="0px"
	 viewBox="0 0 50 50" style="enable-background:new 0 0 50 50;" xml:space="preserve">
<style type="text/css">
	.st0{fill:#A475EF;}
	.st1{fill:none;stroke:#444444;stroke-width:2.5;stroke-linecap:round;stroke-linejoin:round;stroke-miterlimit:10;}
	.st2{fill:none;stroke:#444444;stroke-width:0.5;stroke-linecap:round;stroke-linejoin:round;stroke-miterlimit:10;}
	.st3{fill:#444444;}
	.st4{fill:none;stroke:#444444;stroke-width:0.75;stroke-linecap:round;stroke-linejoin:round;stroke-miterlimit:10;}
</style>
<path class="st0" d="M47.5,17.8l0.5-11L46,2.9L30.7,3.4c-3.2,0-27.8-3-27.8,0.2L1.1,24.2l1.2,23.5l13.6,0.6l31-11
	C47.7,37,48.5,19.8,47.5,17.8z"/>
<path class="st1" d="M32.5,48.3h-27c-1.9,0-3.4-1.6-3.4-3.5V5.8c0-1.9,1.5-3.5,3.4-3.5h39c1.9,0,3.4,1.6,3.4,3.5v32.5"/>
<g>
	<path class="st2" d="M5.1,9.6h39.2V7.3c0,0,0.2-2.3-2.6-2.3C38,5,6.9,5,6.9,5S5.1,5,5.1,7.3S5.1,9.6,5.1,9.6z"/>
	<circle class="st2" cx="7.1" cy="7.4" r="0.6"/>
	<circle class="st2" cx="9" cy="7.4" r="0.6"/>
	<circle class="st2" cx="10.9" cy="7.4" r="0.6"/>
	<line class="st2" x1="13.5" y1="7.4" x2="42.3" y2="7.4"/>
</g>
<g>
	<ellipse class="st3" cx="24.7" cy="28.4" rx="1.2" ry="1.1"/>
	<path class="st4" d="M6.6,28.1c0,0,6.2-9.9,17.4-10.6c11.3-0.6,19.5,10.4,19.5,10.4S38.6,38,24,38.8C24,38.8,12.4,37.3,6.6,28.1z"
		/>
	<line class="st4" x1="33.4" y1="40.7" x2="13" y2="15.4"/>
	<line class="st2" x1="9.4" y1="24.6" x2="20.3" y2="37.9"/>
	<line class="st2" x1="12.5" y1="21.9" x2="26.2" y2="38.6"/>
	<path class="st4" d="M21,25.3c0,0,11.5-1.3,12.8,2.6c0.9,2.9-7.7,3.6-7.7,3.6"/>
	<path class="st4" d="M22,26.6c0,0,4.4-7.4,7.4-5.7s-0.8,8.5-2.9,11"/>
	<path class="st4" d="M19.5,23.4c0,0-0.3-2.2,0.9-2.7c1.2-0.5,4-0.1,7.3,5.8s2.2,7.1,1.3,8"/>
</g>
</svg>
