<?xml version="1.0" encoding="utf-8"?>
<!-- Generator: Adobe Illustrator 27.5.0, SVG Export Plug-In . SVG Version: 6.00 Build 0)  -->
<svg version="1.1" id="Camada_3" xmlns="http://www.w3.org/2000/svg" xmlns:xlink="http://www.w3.org/1999/xlink" x="0px" y="0px"
	 viewBox="0 0 50 50" style="enable-background:new 0 0 50 50;" xml:space="preserve">
<style type="text/css">
	.st0{fill:#C3FF68;}
	.st1{fill:#AFE55D;}
	.st2{fill:none;stroke:#454444;stroke-width:2.5;stroke-linecap:round;stroke-linejoin:round;stroke-miterlimit:10;}
	.st3{fill:none;stroke:#454444;stroke-width:0.25;stroke-linecap:round;stroke-linejoin:round;stroke-miterlimit:10;}
	.st4{fill:#454444;}
	.st5{fill:none;stroke:#444444;stroke-linecap:round;stroke-linejoin:round;stroke-miterlimit:10;}
	.st6{fill:none;stroke:#444444;stroke-width:0.5;stroke-linecap:round;stroke-linejoin:round;stroke-miterlimit:10;}
</style>
<g>
	<g>
		<g>
			<g>
				<path class="st0" d="M45.52,3.21L3.44,2.98C2.92,3.51,2.62,3.8,2.1,4.33L1.52,19.89c0.76,0.54,0.01,1.45,0.77,1.98L48.42,5.12
					c0.33-0.47-0.4-0.56-0.07-1.02l-0.48-0.2C47.34,3.36,46.04,3.75,45.52,3.21z"/>
				<polygon class="st1" points="0.8,22.06 1.92,36.63 18.82,38.25 14.9,42.83 49.32,30.59 48.62,5.05 				"/>
			</g>
			<path class="st2" d="M18.63,37.62h-0.9H5.75c-2.33,0-4.22-1.89-4.22-4.22V18.89V7.09c0-2.33,1.89-4.22,4.22-4.22h38.67
				c2.33,0,4.22,1.89,4.22,4.22v25.27"/>
		</g>
		<line class="st2" x1="39.53" y1="37.62" x2="31.73" y2="37.62"/>
		<line class="st3" x1="2.05" y1="28.77" x2="47.41" y2="28.77"/>
		<polyline class="st2" points="18.32,40.62 18.32,37.62 32.2,37.62 32.2,40.62 		"/>
		<path class="st2" d="M18.32,40.62c-4.67,0-4.79,4.42-4.79,4.42h23.08c0,0,0.84-4.42-4.41-4.42"/>
	</g>
	<g>
		<g>
			<path class="st4" d="M18.46,16.17c-0.08-0.5-0.11-1.01-0.12-1.52c-0.91,0.64-1.69,1.39-2.32,2.2c0.28,0.28,0.64,0.51,1.08,0.67
				C17.49,17.05,17.94,16.59,18.46,16.17z"/>
			<path class="st4" d="M26.41,23.31c0.06,0.08,0.11,0.16,0.17,0.23c0.19-0.14,0.37-0.29,0.55-0.44c0,0,0-0.01-0.01-0.01
				c1.23-1.05,2.19-2.29,2.73-3.59c0.28-0.01,0.55-0.09,0.77-0.26c0.62-0.44,0.76-1.3,0.32-1.92c-0.44-0.62-1.3-0.76-1.92-0.32
				c-0.62,0.44-0.76,1.3-0.32,1.92c-0.44,1.1-1.25,2.18-2.3,3.1c0.04,0.07,0.08,0.13,0.13,0.2c-0.04-0.07-0.08-0.13-0.12-0.19
				c-0.18,0.15-0.36,0.3-0.55,0.45c0.02,0.03,0.04,0.06,0.06,0.1c-0.02-0.03-0.04-0.06-0.06-0.09c-0.38,0.29-0.79,0.55-1.2,0.8
				c-1.74,1-3.61,1.49-5.3,1.37c-1.59-0.11-2.79-0.74-3.4-1.79c-0.77-1.33-0.43-3.14,0.74-4.8c-0.21-0.09-0.4-0.2-0.58-0.32
				c0.17,0.11,0.36,0.22,0.56,0.31c0.13-0.17,0.26-0.35,0.4-0.52c-0.44-0.16-0.8-0.39-1.08-0.67c-0.13,0.17-0.25,0.34-0.37,0.51
				c0,0,0.01,0.01,0.02,0.01c-0.34,0.5-0.65,1.01-0.87,1.53c-0.7,1.67-0.67,3.3,0.08,4.6c0.82,1.43,2.39,2.29,4.42,2.43
				c1.93,0.13,4.07-0.41,6.03-1.53c0.46-0.27,0.88-0.55,1.29-0.85C26.53,23.47,26.47,23.39,26.41,23.31z"/>
			<path class="st4" d="M34.43,19.99c0.3,1.07,0.24,2.08-0.23,2.89c-0.55,0.95-1.62,1.54-2.93,1.73c-0.1,0.07-0.21,0.15-0.31,0.2
				c-0.55,0.31-1.01,0.39-1.58,0.35c-0.65,0.03-1.3-0.24-1.92-0.74c0.62,0.49,1.27,0.76,1.92,0.73c0.56,0.05,1.03-0.04,1.58-0.35
				c0.1-0.06,0.21-0.13,0.31-0.2c-1.22,0.17-2.66,0-4.12-0.54c-0.02,0.01-0.04,0.02-0.06,0.04c0,0,0.01,0.01,0.01,0.01
				c-0.34,0.26-0.7,0.52-1.08,0.74l-0.05,0.11c1.82,0.82,3.75,1.15,5.43,0.93c1.77-0.23,3.17-1.07,3.91-2.37
				c0.82-1.42,0.78-3.21-0.1-5.04c-0.05-0.11-0.12-0.23-0.18-0.35C34.87,18.69,34.67,19.37,34.43,19.99z"/>
			<path class="st4" d="M22.92,7.92c-0.06-0.44-0.15-0.9-0.29-1.36c-0.91,0.58-1.67,1.47-2.25,2.56c0.31,0.29,0.64,0.58,0.99,0.87
				C21.78,9.14,22.31,8.42,22.92,7.92z"/>
			<path class="st4" d="M22.24,22.71c0.73,0.19,1.49-0.25,1.67-0.99c0.18-0.74-0.25-1.49-0.99-1.67c-0.26-0.07-0.54-0.06-0.81,0.03
				c-0.37-0.47-0.68-1.01-0.94-1.61c-0.46,0.05-0.9,0.09-1.33,0.1c0.37,0.93,0.83,1.78,1.41,2.47
				C21.06,21.77,21.5,22.53,22.24,22.71z"/>
			<path class="st4" d="M23.6,11.88C23.6,11.88,23.6,11.87,23.6,11.88c-0.24-0.07-0.49-0.06-0.74,0.01c0.1,0.1,0.21,0.18,0.33,0.26
				c-0.12-0.09-0.23-0.17-0.34-0.25c-0.09,0.03-0.2,0.07-0.29,0.12c-0.65,0.39-0.87,1.22-0.49,1.88c0.29,0.49,0.84,0.74,1.38,0.67
				c0.17-0.02,0.34-0.08,0.5-0.18c0.03-0.02,0.05-0.05,0.08-0.06c-0.03-0.22-0.05-0.44-0.08-0.66c0.03,0.22,0.05,0.45,0.08,0.67
				c0.2-0.14,0.37-0.32,0.47-0.54c0.33-0.04,0.67-0.06,1.03-0.05c-0.57-0.36-1.15-0.74-1.7-1.04c0-0.01,0-0.01,0-0.02
				c0.55,0.31,1.13,0.69,1.7,1.05c0.33,0.01,0.66,0.04,0.99,0.09c0,0,0.01,0,0.01,0.01c0.04,0.01,0.08,0,0.13,0.02
				c1.09,0.18,2.22,0.58,3.27,1.16c0.46-0.21,0.92-0.44,1.37-0.68c-0.16-0.1-0.32-0.2-0.48-0.29c-2.09-1.22-4.4-1.75-6.39-1.52
				C24.25,12.18,23.94,11.96,23.6,11.88z"/>
			<path class="st4" d="M32.02,14.81c-0.22-0.16-0.45-0.32-0.69-0.47c-0.45,0.24-0.91,0.48-1.37,0.68c0.08,0.04,0.18,0.08,0.25,0.12
				c0.16,0.09,0.31,0.21,0.46,0.31c0,0,0.01,0,0.01,0c0.43,0.28,0.84,0.59,1.22,0.92c0.9,0.34,1.77,0.63,2.58,0.92
				C33.84,16.37,33,15.53,32.02,14.81C32.02,14.8,32.02,14.8,32.02,14.81z"/>
			<path class="st4" d="M27.68,6.65c-0.73-0.49-1.53-0.79-2.34-0.84c0.13,0.43,0.23,0.87,0.31,1.32c0.41,0.08,0.82,0.25,1.2,0.5
				C27.04,7.25,27.32,6.91,27.68,6.65z"/>
			<path class="st4" d="M34.05,19.05c0.16,0.32,0.27,0.64,0.36,0.94c0.25-0.63,0.45-1.31,0.6-1.85c-0.03-0.05-0.06-0.1-0.08-0.15
				c-0.13-0.25-0.29-0.48-0.44-0.7c-0.82-0.3-1.69-0.58-2.58-0.92c0.33,0.28,0.64,0.59,0.91,0.89c0.51,0.19,1.01,0.37,1.51,0.55
				c0,0,0,0.01,0,0.01c0,0,0-0.01,0-0.01c-0.5-0.18-1-0.36-1.51-0.55c0.39,0.44,0.74,0.89,1.02,1.36c0.07,0.12,0.13,0.23,0.19,0.36
				c0,0,0-0.01,0-0.01c0,0,0,0.01,0,0.01C34.02,19,34.04,19.02,34.05,19.05z"/>
			<path class="st4" d="M19.85,18.56c0.42-0.01,0.87-0.04,1.33-0.1c-0.09-0.22-0.18-0.44-0.25-0.67c-0.35-1.03-0.54-2.18-0.54-3.39
				c0-1.39,0.26-2.72,0.72-3.86c0,0,0,0,0,0c0.08-0.2,0.17-0.38,0.26-0.57c-0.35-0.29-0.68-0.58-0.99-0.87
				c-0.1,0.19-0.2,0.37-0.3,0.57c0,0,0,0,0,0c-0.62,1.37-0.97,3-0.98,4.73c0,1.22,0.18,2.4,0.51,3.48
				C19.68,18.12,19.77,18.34,19.85,18.56z"/>
			<path class="st4" d="M28.12,8.82c0.57,0.75,1.01,1.67,1.29,2.7c0.4-0.02,0.79-0.12,1.15-0.32c-0.37,0.2-0.76,0.3-1.15,0.32
				c0.1,0.34,0.18,0.7,0.24,1.07c0.47,0.19,0.93,0.41,1.37,0.66c-0.07-0.72-0.21-1.41-0.39-2.08c-0.23-0.82-0.54-1.59-0.93-2.27
				c-0.17-0.3-0.36-0.59-0.56-0.85c-0.43-0.58-0.93-1.04-1.45-1.4c-0.36,0.26-0.65,0.6-0.84,0.98C27.3,7.92,27.73,8.31,28.12,8.82z"
				/>
		</g>
		<path class="st4" d="M22.92,7.92c0,0,1.2-1.03,2.73-0.79l-0.08-0.91l-0.23-0.41c0,0-1.14-0.15-2.71,0.74L22.92,7.92z"/>
	</g>
	<g>
		<line class="st5" x1="21.93" y1="32.68" x2="4.32" y2="32.68"/>
		<line class="st5" x1="45.81" y1="32.68" x2="28.19" y2="32.68"/>
		<path class="st6" d="M22.98,32.68c0-1.16,0.94-2.09,2.09-2.09c1.16,0,2.09,0.94,2.09,2.09c0,1.16-0.94,2.09-2.09,2.09
			C23.92,34.78,22.98,33.84,22.98,32.68z"/>
	</g>
</g>
</svg>
