<svg xmlns="http://www.w3.org/2000/svg" id="Layer_1" x="0" y="0" version="1.1" viewBox="0 0 50 50" xml:space="preserve"><style>.st2,.st3{fill:none;stroke:#444;stroke-linecap:round;stroke-linejoin:round;stroke-miterlimit:10}.st3{stroke-width:.5}</style><path fill="#00dffc" d="M44.9 12.4l-5.6-3.6-7.7-4.4-6-2.8c-3.2 0-21.5 8.9-21.5 12.1l-.5 7.8.5 15.1 11.5 7.6 31-11c.8-.5-.7-18.8-1.7-20.8z"/><path fill="none" stroke="#444" stroke-linecap="round" stroke-linejoin="round" stroke-miterlimit="10" stroke-width="2.5" d="M30.1 46.5l-2.2 1.3c-1.7 1-3.8 1-5.5 0l-15.6-9c-1.7-1-2.7-2.8-2.7-4.7V16c0-2 1-3.8 2.7-4.7l15.6-9c1.7-1 3.8-1 5.5 0l15.6 9c1.7 1 2.7 2.8 2.7 4.7v18c0 2-1 3.8-2.7 4.7L41 40.1"/><path d="M27 34.4h3.8c2 0 3.6-1.6 3.6-3.5s-1.6-3.5-3.6-3.5h-.3c.2-.5.3-1 .3-1.6 0-2.1-1.8-3.9-4-3.9-1 0-1.9.4-2.6.9-.6-2.1-2.6-3.6-4.9-3.6-2.8 0-5.2 2.2-5.2 5 0 .6.1 1.1.3 1.6-2.2.3-3.8 2-3.8 4.2 0 2.3 2 4.3 4.4 4.3h1.7" class="st2"/><path d="M32.8 25.6c1.5-.8 2.5-2.4 2.5-4.3 0-2.7-2.2-4.9-4.9-4.9-2.3 0-4.2 1.5-4.7 3.6m4.7-5.7v-2.1m7 9.1h2.1m-4.1 5l1.5 1.5m-13-12.9l1.5 1.5m10 0l1.5-1.5" class="st2"/><ellipse cx="21.9" cy="32.4" class="st3" rx="2" ry="5.2" transform="rotate(-30 21.865 32.379)"/><ellipse cx="21.9" cy="32.4" class="st3" rx="5.2" ry="2" transform="rotate(-60 21.867 32.38)"/><ellipse cx="21.9" cy="32.4" class="st3" rx="5.2" ry="2"/><circle cx="21.9" cy="32.3" r="1" fill="#444"/></svg>