<svg xmlns="http://www.w3.org/2000/svg" id="Layer_1" x="0" y="0" version="1.1" viewBox="0 0 50 50" xml:space="preserve"><style>.st5,.st6{fill-rule:evenodd;clip-rule:evenodd;fill:none;stroke:#444;stroke-miterlimit:10}.st6{fill:#444}</style><path fill="#ff6b6b" d="M34.9 5.4l7.1 5.3 1.8 6.5L2 32.5l.9-13.3L8.6 7.5l14.3-4.8z"/><path fill="#e56060" d="M45.9 21.1v.4L5 36.2l-1-.7-2.1-7.7 40.5-15.6 2.1 4z"/><g fill="none" stroke="#494949" stroke-miterlimit="10" stroke-width="2.5"><path stroke-linecap="round" d="M46.9 26.8c.3-6.3-1.9-12.7-6.8-17.5-9-8.8-23.5-8.7-32.3.3S-.9 33 8.1 41.9c5.5 5.4 13.1 7.5 20.2 6.2"/><circle cx="46.9" cy="25.7" r="1.9"/></g><path fill="#494949" d="M25.6 17.9h-3.4l-5 12.9h3.1l.8-2.2h4.7l-.9-2.4h-3.1l2-5.6 3.6 10.2h3.1l-4.9-12.9z"/><path d="M10.5 17.9l13.4-7.8 13.3 7.8v15.4l-13.4 7.8-13.3-7.8z" class="st5"/><circle cx="10.5" cy="17.9" r="2.7" class="st6"/><circle cx="23.8" cy="10.1" r="2.7" class="st6"/><circle cx="37.2" cy="17.9" r="2.7" class="st6"/><circle cx="37.4" cy="33.3" r="2.7" class="st6"/><circle cx="23.9" cy="41.1" r="2.7" class="st6"/><circle cx="10.5" cy="33.3" r="2.7" class="st6"/><path d="M23.8 10.1L10.5 33.3h26.9z" class="st5"/></svg>