<svg xmlns="http://www.w3.org/2000/svg" id="Camada_3" x="0" y="0" version="1.1" viewBox="0 0 50 50" xml:space="preserve"><style>.st2{stroke-width:2.5;stroke-linecap:round;stroke-linejoin:round}.st2,.st3{fill:none;stroke:#444;stroke-miterlimit:10}</style><path fill="#f799ff" d="M34 2.7L26.2 2C23 2 11.7 2.3 4.8 12.3l-4 10.8 41-14.4-7.8-6z"/><path fill="#e589ef" d="M.7 22.9l4 13.4c.1.4 4.6 5.6 4.9 5.9l5.6 3 32.2-11.7c.6-.5 1.6-8.7.7-13.5-.2-.8-2.7-7.5-3.2-8.1l-3-3.5L.7 22.9z"/><path d="M36.8 45.3c-7.9 4.5-18.1 4.2-25.8-1.6C.7 36-1.4 21.3 6.4 10.9" class="st2"/><path d="M6.2 11.1c2-3 4.7-4.7 4.7-4.7l.7-.5C19.7.1 30.9 0 39.2 6.3c10.4 7.8 12.4 22.5 4.7 32.8" class="st2"/><g><ellipse cx="25.3" cy="24.9" class="st3" rx="19.4" ry="7.8"/><ellipse cx="25.3" cy="24.9" class="st3" rx="19.4" ry="7.8" transform="rotate(-58.049 25.317 24.936)"/><ellipse cx="25.3" cy="24.9" class="st3" rx="7.8" ry="19.4" transform="rotate(-31.951 25.323 24.938)"/><path fill="#e589ef" stroke="#444" stroke-miterlimit="10" d="M11.4 25s4.8-8.1 13.4-8.1c8.6 0 13.7 8 13.7 8s-5.7 8.3-13.4 8.3c-7.2 0-13.7-8.2-13.7-8.2z"/><path d="M11.4 25s4.8-8.1 13.4-8.1c8.6 0 13.7 8 13.7 8s-5.7 8.3-13.4 8.3c-7.2 0-13.7-8.2-13.7-8.2z" class="st3"/><path fill="#444" d="M26 24.5l2.6-4c-.9-.7-2-1.1-3.2-1.1-2.8 0-5.1 2.3-5.1 5.2 0 2.8 2.3 5.1 5.1 5.1 2.9 0 5.1-2.3 5.1-5.1v-.1H26z"/></g></svg>