<?xml version="1.0" encoding="utf-8"?>
<!-- Generator: Adobe Illustrator 24.0.0, SVG Export Plug-In . SVG Version: 6.00 Build 0)  -->
<svg version="1.1" id="Layer_1" xmlns="http://www.w3.org/2000/svg" xmlns:xlink="http://www.w3.org/1999/xlink" x="0px" y="0px"
	 viewBox="0 0 50 50" style="enable-background:new 0 0 50 50;" xml:space="preserve">
<style type="text/css">
	.st0{fill:#E589EF;}
	.st1{fill:#F799FF;}
	.st2{fill:#444444;}
</style>
<g>
	<polygon class="st0" points="47.8,22.9 47.8,29.1 2,43.5 1.6,31.1 1.6,27.2 47.9,10.4 	"/>
</g>
<g>
	<polygon class="st1" points="47.8,7.7 47.2,10.9 1.5,27.5 1.6,21.1 1.6,17.1 48.3,2.2 	"/>
</g>
<g>
	<path class="st2" d="M47.9,49.1H32c-0.7,0-1.2-0.6-1.2-1.2s0.6-1.2,1.2-1.2h14.7V3.4H3.1v43.3h3.1c0.7,0,1.2,0.6,1.2,1.2
		s-0.6,1.2-1.2,1.2H1.8c-0.7,0-1.2-0.6-1.2-1.2V2.1c0-0.7,0.6-1.3,1.2-1.3h46.1c0.7,0,1.2,0.6,1.2,1.3v45.8
		C49.2,48.6,48.6,49.1,47.9,49.1z"/>
</g>
<g>
	<g>
		<path class="st2" d="M43.1,33.5c0,1.8-1.5,3.3-3.3,3.3c-1.8,0-3.3-1.5-3.3-3.3c0-1.8,1.5-3.3,3.3-3.3
			C41.6,30.2,43.1,31.7,43.1,33.5z"/>
		<path class="st2" d="M36.9,24.9c0,1.5-1.2,2.7-2.7,2.7c-0.2,0-0.5,0-0.7-0.1l-6.8,7.5c-0.1,0.1-0.1,0.1-0.2,0.2
			c0.2,0.4,0.3,0.8,0.3,1.2c0,1.5-1.2,2.7-2.7,2.7c-1.5,0-2.7-1.2-2.7-2.7c0-1.5,1.2-2.7,2.7-2.7c0.5,0,1,0.2,1.4,0.4
			c0,0,0-0.1,0.1-0.1l6.6-7.3c-0.4-0.5-0.7-1.1-0.7-1.8c0-0.6,0.2-1.2,0.6-1.6L27.1,18c-0.3,0.1-0.6,0.2-1,0.2
			c-1.5,0-2.7-1.2-2.7-2.7c0-1.5,1.2-2.7,2.7-2.7c1.5,0,2.7,1.2,2.7,2.7c0,0.6-0.2,1.1-0.5,1.6l5.1,5.2c0.3-0.1,0.6-0.1,0.9-0.1
			C35.7,22.2,36.9,23.4,36.9,24.9z"/>
		<path class="st2" d="M21.7,25.2c0,1.8-1.5,3.3-3.3,3.3c-1.8,0-3.3-1.5-3.3-3.3s1.5-3.3,3.3-3.3C20.2,22,21.7,23.4,21.7,25.2z"/>
		<path class="st2" d="M13.3,32.7c0,1.8-1.5,3.3-3.3,3.3c-1.8,0-3.3-1.5-3.3-3.3s1.5-3.3,3.3-3.3C11.8,29.4,13.3,30.8,13.3,32.7z"/>
	</g>
</g>
</svg>
