<svg xmlns="http://www.w3.org/2000/svg" version="1" viewBox="0 0 50 50"><path fill="#DC5E82" d="M9.917 31.798c.707.242 1.468.453 2.252.65-.25.878-.464 1.766-.64 2.662-.536 2.821-.531 5.243-.072 7.029l26.422-9.617c-.016-.057-.029-.113-.046-.17.623-.16 1.24-.339 1.851-.539 5.265-1.745 8.46-4.462 8.46-6.877 0-2.316-3.014-4.875-7.917-6.563a33.257 33.257 0 0 0-2.493-.734c.191-.685.364-1.359.498-2.009 1.119-5.433.361-9.558-1.731-10.764-2.007-1.157-5.729.176-9.641 3.58a33.238 33.238 0 0 0-1.883 1.795 31.126 31.126 0 0 0-1.493-1.436c-4.147-3.683-8.1-5.086-10.19-3.876-2.005 1.161-2.709 5.052-1.713 10.14.159.815.375 1.67.619 2.543-.961.243-1.882.507-2.729.803-4.834 1.685-7.712 4.224-7.712 6.522-.003 2.367 3.065 5.12 8.158 6.861z"/><path fill="#F56991" d="M12.316 17.429l26.251-9.555c-.365-1.448-1.011-2.495-1.902-3.008-2.007-1.157-5.729.176-9.641 3.58a33.238 33.238 0 0 0-1.883 1.795 30.664 30.664 0 0 0-1.493-1.436c-4.147-3.683-8.1-5.086-10.189-3.876-2.005 1.161-2.709 5.052-1.713 10.14.147.757.347 1.551.57 2.36z"/><g fill="#444"><circle cx="24.949" cy="24.936" r="4.327"/><path d="M40.595 17.476a29.115 29.115 0 0 0-1.611-.499c.095-.378.182-.75.258-1.117 1.197-5.813.354-10.339-2.202-11.813-2.463-1.419-6.491-.04-10.777 3.69-.39.339-.796.716-1.238 1.148-.28-.272-.56-.534-.84-.783-4.438-3.941-8.78-5.47-11.334-3.992-2.459 1.424-3.276 5.603-2.185 11.18.101.515.225 1.059.378 1.657-.68.188-1.285.376-1.848.572-5.241 1.827-8.371 4.612-8.371 7.45 0 2.946 3.382 5.932 8.825 7.792.437.15.895.288 1.365.419a29.292 29.292 0 0 0-.401 1.779c-1.036 5.454-.187 9.557 2.271 10.974.662.382 1.44.567 2.305.567 2.469 0 5.647-1.516 8.854-4.32.348-.305.697-.633 1.046-.975.48.468.921.874 1.344 1.238a.984.984 0 0 0 1.282-1.491 28.415 28.415 0 0 1-1.36-1.259 1.703 1.703 0 0 0-.248-.199c1.404-1.524 2.81-3.301 4.19-5.317 2.437-.201 4.714-.555 6.802-1.047.009.089.019.178.042.267.125.475.237.943.327 1.398a.986.986 0 0 0 1.155.773.984.984 0 0 0 .773-1.155c-.091-.45-.194-.897-.309-1.341.326-.094.644-.192.954-.295 5.634-1.866 9.133-4.859 9.133-7.809 0-2.842-3.207-5.642-8.58-7.492zM12.906 32.024c.528-1.805 1.233-3.702 2.102-5.663a57.258 57.258 0 0 0 1.782 3.345 58.965 58.965 0 0 0 2.034 3.238c-2.14-.194-4.123-.502-5.918-.92zm5.875-14.959a55.905 55.905 0 0 0-1.999 3.2 61.088 61.088 0 0 0-1.773 3.334 46.683 46.683 0 0 1-2.077-5.561 46.67 46.67 0 0 1 5.849-.973zm6.168 16.167c-1.626 0-3.175-.055-4.624-.16a58.438 58.438 0 0 1-2.515-3.956 55.19 55.19 0 0 1-2.171-4.138 60.59 60.59 0 0 1 2.164-4.125 54.089 54.089 0 0 1 2.49-3.93 58.518 58.518 0 0 1 9.324 0 65.365 65.365 0 0 1 4.662 8.026 61.72 61.72 0 0 1-2.186 4.153 65.783 65.783 0 0 1-2.457 3.948c-1.462.12-3.035.182-4.687.182zm-3.776-17.546a44.983 44.983 0 0 1 3.798-4.593 44.852 44.852 0 0 1 3.773 4.593 60.144 60.144 0 0 0-7.571 0zm3.776 18.725c1.328 0 2.609-.039 3.823-.114-1.238 1.744-2.491 3.294-3.74 4.626a46.052 46.052 0 0 1-3.821-4.612c1.19.066 2.441.1 3.738.1zm8.168-4.721a63.696 63.696 0 0 0 1.804-3.383c.912 1.984 1.639 3.865 2.169 5.615-1.832.446-3.827.777-5.957.99a67.717 67.717 0 0 0 1.984-3.222zm1.793-6.1a71.36 71.36 0 0 0-1.803-3.334 67.5 67.5 0 0 0-1.984-3.188c2.072.221 4.038.555 5.868.999-.519 1.756-1.217 3.606-2.081 5.523zM26.288 10.4c.459-.452.873-.838 1.266-1.18 3.998-3.479 7.153-4.25 8.505-3.47 1.404.809 2.396 4.194 1.26 9.713-.081.39-.176.788-.279 1.192-.018.068-.022.136-.031.204a47.896 47.896 0 0 0-6.734-1.064 47.874 47.874 0 0 0-4.186-5.234c.067-.05.136-.1.199-.161zM13.835 5.812c1.4-.812 4.829.018 9.044 3.76.297.264.595.545.894.839.039.038.084.067.126.1a47.694 47.694 0 0 0-4.258 5.283 49.035 49.035 0 0 0-6.624 1.015c-.009-.067-.014-.133-.031-.2a28.002 28.002 0 0 1-.393-1.697c-1.017-5.201-.109-8.318 1.242-9.1zm-3.55 25.089c-5.15-1.76-7.495-4.309-7.495-5.932 0-1.561 2.181-3.896 7.053-5.594a28.549 28.549 0 0 1 1.875-.575c.068-.018.128-.048.192-.074a49.484 49.484 0 0 0 2.425 6.252c-1.031 2.222-1.854 4.37-2.47 6.414-.054-.021-.106-.047-.163-.063a24.06 24.06 0 0 1-1.417-.428zM22.75 40.7c-4.098 3.583-7.476 4.34-8.884 3.53-1.352-.779-2.285-3.835-1.322-8.904.117-.606.255-1.209.412-1.806.023-.089.032-.178.041-.267 2.026.449 4.262.772 6.679.951a48.653 48.653 0 0 0 4.325 5.344c-.058.044-.118.085-.17.137-.36.359-.72.7-1.081 1.015zm16.674-9.788c-.332.11-.675.214-1.025.313a2.003 2.003 0 0 0-.26.102c-.619-1.987-1.468-4.124-2.55-6.383 1.019-2.159 1.831-4.244 2.436-6.225.089.042.181.081.279.108.614.17 1.154.335 1.652.507 5.011 1.725 7.254 4.073 7.254 5.634 0 1.621-2.437 4.172-7.786 5.944z"/></g></svg>