<?xml version="1.0" encoding="utf-8"?>
<!-- Generator: Adobe Illustrator 26.5.0, SVG Export Plug-In . SVG Version: 6.00 Build 0)  -->
<svg version="1.1" id="Layer_1" xmlns="http://www.w3.org/2000/svg" xmlns:xlink="http://www.w3.org/1999/xlink" x="0px" y="0px"
	 viewBox="0 0 50 50" style="enable-background:new 0 0 50 50;" xml:space="preserve">
<style type="text/css">
	.st0{fill:#B9D7D9;}
	.st1{fill:#A6C1C2;}
	.st2{fill:#444444;stroke:#444444;stroke-width:0.5;stroke-miterlimit:10;}
	.st3{fill:#444444;stroke:#444444;stroke-width:0.75;stroke-miterlimit:10;}
</style>
<g>
	<polygon class="st0" points="26.5,10.3 30.4,10 38.8,13.3 40.5,19 2.4,32.9 1.4,26.6 6.5,19.4 10.5,10.4 18.3,7.8 	"/>
	<polygon class="st1" points="46.2,20.4 46.2,20.9 47.3,23.1 8.7,37 4.1,35.6 2.3,34.3 0.7,30.3 1.2,27 37.8,12.9 39.3,13.5 
		41.6,19.1 	"/>
	<g>
		<g>
			<g>
				<path class="st2" d="M33.2,22.3c1.2-4.5,0.9-7.9-1.1-9c-1.6-0.9-3.9-0.2-6.7,2c-0.6,0.5-1.2,1.1-1.7,1.6
					c-0.6-0.6-1.2-1.1-1.7-1.6c-2.6-2.2-5.1-3-6.7-2c-2,1.1-2.3,4.7-1.1,9c-4.5,1.2-7.3,3.3-7.3,5.4c0,2.3,2.8,4.4,7.3,5.4
					c-0.2,0.8-0.5,1.6-0.5,2.3c-0.6,3.4,0,5.9,1.6,6.7c0.5,0.3,0.9,0.5,1.6,0.5c1.4,0,3.1-0.8,5.1-2.3c0.6-0.5,1.2-1.1,1.7-1.6
					c0.6,0.6,1.2,1.1,1.7,1.6c1.9,1.6,3.7,2.3,5.1,2.3c0.6,0,1.1-0.2,1.6-0.5c1.6-0.9,2.2-3.3,1.6-6.7c-0.2-0.8-0.3-1.6-0.5-2.3
					c4.5-1.2,7.3-3.3,7.3-5.4C40.5,25.4,37.7,23.4,33.2,22.3z M25.9,15.6c1.9-1.4,3.4-2.2,4.7-2.2c0.5,0,0.9,0.2,1.2,0.3
					c1.7,0.9,1.9,4.2,0.8,8.4c-1.6-0.3-3.3-0.6-5.1-0.8c-1.1-1.6-2.2-2.8-3.3-4C24.8,16.7,25.2,16.1,25.9,15.6z M28.8,30.7
					c-0.6,0.9-1.2,2-1.9,2.8c-1.1,0.2-2.2,0.2-3.4,0.2c-1.1,0-2.3,0-3.4-0.2c-0.6-0.9-1.2-1.9-1.9-2.8c-0.6-0.9-1.1-2-1.6-3
					c0.5-0.9,0.9-2,1.6-3c0.6-0.9,1.2-2,1.9-2.8c1.1-0.2,2.2-0.2,3.4-0.2s2.3,0,3.4,0.2c0.6,0.9,1.2,1.9,1.9,2.8
					c0.6,0.9,1.1,2,1.6,3C29.9,28.7,29.4,29.8,28.8,30.7z M30.8,28.5c0.6,1.4,1.2,2.8,1.6,4.2c-1.4,0.3-2.8,0.6-4.5,0.8
					c0.5-0.8,1.1-1.6,1.6-2.5C29.9,30.2,30.4,29.3,30.8,28.5z M23.7,37.9c-0.9-1.1-2-2.2-3-3.6c0.9,0,1.9,0.2,3,0.2s2,0,3-0.2
					C25.7,35.5,24.6,36.8,23.7,37.9z M19.5,33.5c-1.6-0.2-3.1-0.5-4.5-0.8c0.5-1.4,0.9-2.8,1.6-4.2c0.5,0.8,0.9,1.7,1.4,2.5
					C18.4,31.9,18.9,32.7,19.5,33.5z M16.5,27c-0.6-1.4-1.2-3-1.6-4.2c1.4-0.3,2.8-0.6,4.5-0.8c-0.5,0.8-1.1,1.6-1.6,2.5
					C17.5,25.4,17,26.2,16.5,27z M23.7,17.6c0.9,1.1,2,2.2,3,3.6c-0.9,0-1.9-0.1-3-0.1s-2,0-3,0.2C21.7,20,22.8,18.7,23.7,17.6z
					 M29.4,24.5c-0.5-0.8-0.9-1.7-1.6-2.5c1.6,0.2,3.1,0.5,4.5,0.8c-0.5,1.4-0.9,2.8-1.6,4.2C30.4,26.2,29.9,25.3,29.4,24.5z
					 M15.6,13.7c1.2-0.8,3.4,0,5.9,1.9c0.6,0.5,1.1,0.9,1.7,1.6c-1.1,1.2-2.2,2.5-3.3,4c-1.9,0.2-3.6,0.5-5.1,0.8
					C13.7,18,13.9,14.7,15.6,13.7z M7.5,27.7c0-2,2.8-3.7,6.8-4.8c0.5,1.6,1.1,3.1,1.9,4.8c-0.8,1.7-1.4,3.3-1.9,4.8
					C10.3,31.5,7.5,29.8,7.5,27.7z M21.5,39.9c-2.5,2-4.7,2.6-5.9,1.9c-1.2-0.8-1.7-3-1.2-6.1c0.2-0.8,0.3-1.6,0.5-2.3
					c1.6,0.3,3.3,0.6,5.1,0.8c1.1,1.6,2.2,2.8,3.3,4C22.6,38.8,22.1,39.4,21.5,39.9z M33,35.7c0.5,3.1,0,5.3-1.2,6.1s-3.4,0-5.9-1.9
					c-0.6-0.5-1.1-0.9-1.7-1.6c1.1-1.2,2.2-2.5,3.3-4c1.9-0.2,3.6-0.5,5.1-0.8C32.7,34.1,33,34.9,33,35.7z M33,32.6
					c-0.5-1.6-1.1-3.3-1.9-4.8c0.8-1.7,1.4-3.3,1.9-4.8c4,1.1,6.8,2.8,6.8,4.8S37.1,31.5,33,32.6z"/>
			</g>
		</g>
	</g>
	<circle class="st2" cx="24" cy="28.6" r="3.5"/>
	<g>
		<path class="st3" d="M40.1,37.9L37,38.1c-0.5,0-1.1-0.7-1.1-1.3c0-0.5,0.6-0.8,1.1-0.8h3.2c4.3,0,7.8-3.5,7.8-7.8
			c0-4-3.1-7.4-7.1-7.8c-0.5,0-0.8-0.4-0.9-0.9c-0.4-4.7-4.3-8.4-9.1-8.4c-1.3,0-2.6,0.3-3.8,0.8c-0.3,0.1-0.7,0.1-1-0.1
			c-2-1.7-4.5-2.6-7.2-2.6C12.8,9.2,8,14,7.8,20c0,0.4-0.3,0.7-0.6,0.9c-3.1,1.1-5.1,4-5.1,7.3c0,4.3,3.5,7.8,7.8,7.8h0.8
			c0.5,0,1,0.4,1,1c0,0.5-0.4,1-1,1H9.9c-5.3,0-9.7-4.3-9.7-9.7c0-3.9,2.3-7.4,5.8-8.9c0.5-6.8,6.1-12,12.9-12
			c2.9,0,5.7,0.9,7.9,2.7c1.3-0.5,2.7-0.8,4-0.8c5.5,0,10.1,4.1,10.9,9.4c4.6,0.8,8.1,4.9,8.1,9.6C49.8,33.6,45.5,37.9,40.1,37.9z"
			/>
	</g>
</g>
</svg>
