<?xml version="1.0" encoding="utf-8"?>
<!-- Generator: Adobe Illustrator 26.5.0, SVG Export Plug-In . SVG Version: 6.00 Build 0)  -->
<svg version="1.1" id="Camada_3" xmlns="http://www.w3.org/2000/svg" xmlns:xlink="http://www.w3.org/1999/xlink" x="0px" y="0px"
	 viewBox="0 0 50 50" style="enable-background:new 0 0 50 50;" xml:space="preserve">
<style type="text/css">
	.st0{fill:#4ECDC4;}
	.st1{fill:#46B8B0;}
	.st2{fill:none;stroke:#444444;stroke-width:2.5;stroke-linecap:round;stroke-linejoin:round;stroke-miterlimit:10;}
	.st3{fill:none;stroke:#444444;stroke-width:1.25;stroke-linecap:round;stroke-linejoin:round;stroke-miterlimit:10;}
	.st4{fill:#444444;stroke:#444444;stroke-width:0.5;stroke-miterlimit:10;}
</style>
<g>
	<g>
		<g>
			<polygon class="st0" points="3.55,14.63 11.35,6.18 20.92,2.31 34.7,3.47 45.13,10.43 1.15,26.79 2.08,22.58 			"/>
			<polygon class="st1" points="4.27,35.16 1.95,21.46 40.55,6.35 48.51,18.48 48.83,32.4 12.33,45.47 			"/>
			<g>
				<path class="st2" d="M11.92,5.81C20,0.12,31.16-0.01,39.49,6.26c10.36,7.78,12.44,22.48,4.65,32.83"/>
				<path class="st2" d="M37.11,45.32c-7.89,4.54-18.06,4.24-25.79-1.58C0.96,35.96-1.13,21.26,6.66,10.91"/>
				<path class="st2" d="M11.26,6.35c0,0-2.7,1.74-4.73,4.73"/>
				<path class="st3" d="M42.3,28.02c-0.4,9.2-7.97,16.11-17.27,16.11c-9.01,0-16.41-7.31-17.24-16.11"/>
				<path class="st3" d="M8.25,22.44c0.63-8.99,8.12-16.09,17.27-16.09s16.64,7.1,17.27,16.09"/>
			</g>
		</g>
		<g>
			<g>
				<polyline class="st3" points="5.91,28.86 7.87,27.04 9.68,29 				"/>
			</g>
			<g>
				<g>
					<polyline class="st3" points="44.68,21.61 42.72,23.42 40.91,21.46 					"/>
				</g>
			</g>
		</g>
	</g>
	<g>
		<g>
			<g>
				<g>
					<path class="st4" d="M32.64,20.58c1-3.64,0.75-6.39-0.87-7.26c-1.25-0.75-3.13-0.13-5.39,1.62c-0.51,0.38-1,0.87-1.38,1.25
						c-0.51-0.51-1-0.87-1.38-1.25c-2.13-1.75-4.13-2.38-5.39-1.62c-1.62,0.87-1.88,3.75-0.87,7.26c-3.64,1-5.88,2.62-5.88,4.38
						c0,1.88,2.26,3.51,5.88,4.38c-0.13,0.62-0.38,1.25-0.38,1.88c-0.51,2.75,0,4.75,1.25,5.39c0.38,0.25,0.75,0.38,1.25,0.38
						c1.13,0,2.51-0.62,4.13-1.88c0.51-0.38,1-0.87,1.38-1.25c0.51,0.51,1,0.87,1.38,1.25c1.51,1.25,3,1.88,4.13,1.88
						c0.51,0,0.87-0.13,1.25-0.38c1.25-0.75,1.75-2.62,1.25-5.39c-0.13-0.62-0.25-1.25-0.38-1.88c3.64-1,5.88-2.62,5.88-4.38
						C38.52,23.08,36.26,21.46,32.64,20.58z M26.75,15.2c1.51-1.13,2.75-1.75,3.75-1.75c0.38,0,0.75,0.13,1,0.25
						c1.38,0.75,1.51,3.38,0.62,6.77c-1.25-0.25-2.62-0.51-4.13-0.62c-0.87-1.25-1.75-2.26-2.62-3.26
						C25.87,16.07,26.25,15.57,26.75,15.2z M29.13,27.34c-0.51,0.75-1,1.62-1.51,2.26c-0.87,0.13-1.75,0.13-2.75,0.13
						c-0.87,0-1.88,0-2.75-0.13c-0.51-0.75-1-1.51-1.51-2.26c-0.51-0.75-0.87-1.62-1.25-2.38c0.38-0.75,0.75-1.62,1.25-2.38
						c0.51-0.75,1-1.62,1.51-2.26c0.87-0.13,1.75-0.13,2.75-0.13c1,0,1.88,0,2.75,0.13c0.51,0.75,1,1.51,1.51,2.26
						c0.51,0.75,0.87,1.62,1.25,2.38C30,25.72,29.64,26.59,29.13,27.34z M30.75,25.59c0.51,1.13,1,2.26,1.25,3.38
						c-1.13,0.25-2.26,0.51-3.64,0.62c0.38-0.62,0.87-1.25,1.25-2C30,26.97,30.39,26.21,30.75,25.59z M25,33.1
						c-0.75-0.87-1.62-1.75-2.38-2.88c0.75,0,1.51,0.13,2.38,0.13c0.87,0,1.62,0,2.38-0.13C26.62,31.21,25.75,32.23,25,33.1z
						 M21.62,29.59c-1.25-0.13-2.51-0.38-3.64-0.62c0.38-1.13,0.75-2.26,1.25-3.38c0.38,0.62,0.75,1.38,1.13,2
						C20.74,28.34,21.12,28.97,21.62,29.59z M19.25,24.33c-0.51-1.13-1-2.38-1.25-3.38c1.13-0.25,2.26-0.51,3.64-0.62
						c-0.38,0.62-0.87,1.25-1.25,2C20,23.08,19.61,23.71,19.25,24.33z M25,16.82c0.75,0.87,1.62,1.75,2.38,2.88
						c-0.76,0.01-1.51-0.11-2.38-0.11c-0.87,0-1.62,0-2.38,0.13C23.38,18.69,24.25,17.69,25,16.82z M29.64,22.33
						c-0.38-0.62-0.75-1.38-1.25-2c1.25,0.13,2.51,0.38,3.64,0.62c-0.38,1.13-0.75,2.26-1.25,3.38C30.39,23.71,30,22.95,29.64,22.33
						z M18.49,13.69c1-0.62,2.75,0,4.75,1.51c0.51,0.38,0.87,0.75,1.38,1.25c-0.87,1-1.75,2-2.62,3.26
						c-1.51,0.13-2.88,0.38-4.13,0.62C16.99,17.07,17.12,14.45,18.49,13.69z M11.97,24.95c0-1.62,2.26-3,5.51-3.88
						c0.38,1.25,0.87,2.51,1.51,3.88c-0.62,1.38-1.13,2.62-1.51,3.88C14.23,27.97,11.97,26.59,11.97,24.95z M23.25,34.72
						c-2,1.62-3.75,2.13-4.75,1.51c-1-0.62-1.38-2.38-1-4.88c0.13-0.62,0.25-1.25,0.38-1.88c1.25,0.25,2.62,0.51,4.13,0.62
						c0.87,1.25,1.75,2.26,2.62,3.26C24.13,33.85,23.75,34.34,23.25,34.72z M32.51,31.34c0.38,2.51,0,4.26-1,4.88
						c-1,0.62-2.75,0-4.75-1.51c-0.51-0.38-0.87-0.75-1.38-1.25c0.87-1,1.75-2,2.62-3.26c1.51-0.13,2.88-0.38,4.13-0.62
						C32.26,30.1,32.51,30.72,32.51,31.34z M32.51,28.85c-0.38-1.25-0.87-2.62-1.51-3.88c0.62-1.38,1.13-2.62,1.51-3.88
						c3.26,0.87,5.51,2.26,5.51,3.88C38.03,26.59,35.77,27.97,32.51,28.85z"/>
				</g>
			</g>
		</g>
		<circle class="st4" cx="24.62" cy="25" r="2.2"/>
	</g>
</g>
</svg>
