<?xml version="1.0" encoding="utf-8"?>
<!-- Generator: Adobe Illustrator 27.3.1, SVG Export Plug-In . SVG Version: 6.00 Build 0)  -->
<svg version="1.1" id="Camada_3" xmlns="http://www.w3.org/2000/svg" xmlns:xlink="http://www.w3.org/1999/xlink" x="0px" y="0px"
	 viewBox="0 0 50 50" style="enable-background:new 0 0 50 50;" xml:space="preserve">
<style type="text/css">
	.st0{fill:#FDCF72;}
	.st1{fill:#FCC34F;}
	.st2{fill:none;stroke:#454444;stroke-width:2.5;stroke-linecap:round;stroke-linejoin:round;stroke-miterlimit:10;}
	.st3{fill:#444444;}
	.st4{fill:#444444;stroke:#444444;stroke-width:0.5;stroke-miterlimit:10;}
</style>
<g>
	<g>
		<path class="st0" d="M45.54,2.6H3.82c-1.12,0-2.03,0.91-2.03,2.03V21.1L47.57,4.8V4.63C47.57,3.5,46.66,2.6,45.54,2.6z"/>
		<polygon class="st1" points="1.79,21.09 1.79,45.78 47.57,29.5 47.57,4.8 		"/>
	</g>
	<g>
		<g>
			<g>
				<path class="st2" d="M24.74,48H5.27c-1.87,0-3.39-1.58-3.39-3.54V5.55C1.88,3.6,3.4,2,5.27,2h39.01c1.87,0,3.39,1.58,3.39,3.54
					v25.89"/>
				<path class="st2" d="M1.88,15.55"/>
				<path class="st2" d="M47.66,15.55"/>
			</g>
		</g>
	</g>
	<g>
		<path class="st3" d="M13.32,28.46c1.91,0,3.46-1.55,3.46-3.46s-1.55-3.46-3.46-3.46S9.86,23.09,9.86,25S11.41,28.46,13.32,28.46z
			 M5.15,35.37c1.91,0,3.46-1.55,3.46-3.46s-1.55-3.46-3.46-3.46S1.7,30,1.7,31.91S3.25,35.37,5.15,35.37z M36.36,35.37
			c1.91,0,3.46-1.55,3.46-3.46s-1.55-3.46-3.46-3.46S32.9,30,32.9,31.91S34.45,35.37,36.36,35.37z"/>
		<path class="st3" d="M25.01,25.15c-0.11-1.15-0.17-2.12-1.05-2.79c-1.12-0.86-2.39-0.3-3.95-0.86c-1.54-0.37-2.67-1.73-2.67-3.36
			c0-1.91,1.57-3.46,3.52-3.46c1.44,0,2.68,0.85,3.22,2.07c0.83,1.58,0.29,3.2,1.34,4.01c1.24,0.96,2.91,0.26,4.78,1.17
			c0.6,0.28,1.11,0.71,1.47,1.25c0.36,0.54,0.57,1.19,0.57,1.88c0,1.63-1.14,2.99-2.67,3.36c-1.56,0.56-2.83,0.01-3.95,0.86
			c-1.26,0.96-0.59,2.57-1.61,4.27c-0.58,1.12-1.77,1.89-3.13,1.89c-1.94,0-3.52-1.55-3.52-3.46c0-1.39,0.83-2.59,2.03-3.14
			c1.87-0.91,3.54-0.21,4.78-1.17C24.86,27.11,25.01,26.26,25.01,25.15L25.01,25.15z"/>
		<g>
			<g>
				<g>
					<g>
						<path class="st3" d="M17.23,30.21c0.04-0.09,0.08-0.17,0.11-0.26c-1.08-0.35-2.06-0.75-2.91-1.18
							c-0.48,0.14-0.98,0.16-1.46,0.07c1.08,0.71,2.45,1.34,4.08,1.84C17.11,30.53,17.17,30.37,17.23,30.21z"/>
						<path class="st3" d="M22.7,22.37c-0.08-0.01-0.16-0.02-0.24-0.03c-0.07-0.01-0.14-0.01-0.2-0.02
							c-0.34,0.61-0.68,1.18-1.01,1.73c-0.28-0.63-0.56-1.28-0.81-1.93c-0.11,0-0.23,0.01-0.34-0.01c-0.14-0.02-0.28-0.04-0.42-0.07
							c0.36,0.93,0.77,1.89,1.23,2.89c-0.49,1.1-0.93,2.13-1.32,3.14c0.06-0.02,0.12-0.04,0.17-0.06c0.21-0.06,0.42-0.1,0.64-0.14
							c0.25-0.68,0.52-1.37,0.82-2.05c0.36,0.58,0.71,1.25,1.06,1.89c0.18,0,0.36,0,0.55-0.01c-0.54-0.91-0.98-1.91-1.41-2.79
							C21.82,24.13,22.22,23.23,22.7,22.37z"/>
						<path class="st3" d="M16.99,19.28c-1.5,0.52-2.78,1.12-3.82,1.78c0.43-0.02,0.88-0.03,1.32,0.02
							c0.82-0.41,1.76-0.79,2.79-1.13C17.17,19.72,17.08,19.5,16.99,19.28z"/>
						<path class="st3" d="M40.34,32.69c-0.05,0.38-0.15,0.76-0.35,1.11c-0.03,0.05-0.06,0.07-0.09,0.1c0,0.01,0,0.01-0.01,0.02
							c0.53,3.52,0,5.97-1.41,6.84c-1.4,0.87-3.86,0-6.68-2.12c-0.72-0.54-1.23-1.05-1.94-1.76c0.93-1.06,1.86-2.12,2.79-3.34
							c-0.05-0.17-0.09-0.35-0.12-0.53c-0.02-0.13-0.04-0.27-0.06-0.41c-1.02,1.3-2.16,2.63-3.14,3.79
							c-1.05-1.23-2.28-2.46-3.34-4.04c1.05,0,2.12,0.18,3.34,0.18c1.13,0,2.12-0.01,3.11-0.15c-0.03-0.28-0.03-0.57-0.02-0.86
							c-1.04,0.11-2.09,0.12-3.28,0.12c-1.23,0-2.64,0-3.86-0.18c-0.04-0.06-0.08-0.11-0.11-0.17c0,0.01-0.01,0.02-0.01,0.02
							c-0.04,0.28-0.09,0.56-0.14,0.84c0.04,0,0.07,0.01,0.11,0.01c1.23,1.76,2.46,3.17,3.69,4.58c-0.72,0.7-1.25,1.38-1.94,1.92
							c-2.81,2.27-5.27,2.99-6.68,2.12c-1.21-0.75-1.77-2.71-1.56-5.49c-0.23-0.19-0.43-0.41-0.61-0.64
							c-0.02-0.02-0.04-0.05-0.06-0.07c-0.01-0.01-0.03-0.02-0.04-0.03c-0.48,3.45,0.24,5.95,1.87,6.78
							c0.54,0.35,1.05,0.54,1.76,0.54c1.59,0,3.53-0.87,5.8-2.64c0.72-0.54,1.4-1.23,1.94-1.76c0.72,0.72,1.4,1.23,1.94,1.76
							c2.12,1.76,4.22,2.64,5.8,2.64c0.72,0,1.23-0.18,1.76-0.54c1.76-1.05,2.46-3.69,1.76-7.57
							C40.48,33.41,40.41,33.05,40.34,32.69z"/>
						<path class="st3" d="M40.06,18.79c1.4-5.11,1.05-8.97-1.23-10.21c-1.76-1.05-4.4-0.18-7.57,2.27
							c-0.72,0.54-1.4,1.23-1.94,1.76c-0.72-0.72-1.4-1.23-1.94-1.76c-2.99-2.46-5.8-3.34-7.57-2.27c-1.74,0.94-2.35,3.5-1.93,6.84
							c0.22-0.23,0.47-0.43,0.74-0.6c-0.29-2.83,0.18-4.95,1.56-5.72c1.4-0.87,3.86,0,6.68,2.12c0.72,0.54,1.23,1.05,1.94,1.76
							c-1.23,1.4-2.46,2.81-3.69,4.58c-0.1,0.01-0.2,0.02-0.3,0.03c0.06,0.31,0.09,0.62,0.1,0.94c0.03,0.09,0.06,0.19,0.08,0.29
							c0.1-0.14,0.2-0.28,0.3-0.4c1.23-0.18,2.46-0.18,3.86-0.18c1.4,0,2.64,0,3.86,0.18c0.72,1.05,1.4,2.12,2.12,3.17
							c0.72,1.05,1.23,2.27,1.76,3.34c-0.49,1-0.98,2.14-1.64,3.15c0.33-0.1,0.67-0.18,1.01-0.21c0.39-0.69,0.78-1.42,1.15-2.05
							c0.38,0.84,0.73,1.68,1.05,2.51c0.03,0.04,0.06,0.09,0.09,0.12c0.08,0.09,0.18,0.17,0.26,0.26c0.1,0.1,0.18,0.2,0.28,0.31
							c0.2,0.18,0.39,0.37,0.55,0.59c-0.5-1.54-1.11-3.16-1.87-4.66c0.87-1.94,1.59-3.69,2.12-5.45c4.58,1.23,7.75,3.17,7.75,5.45
							c-0.01,2.25-3.11,4.17-7.6,5.4c0.08,0.2,0.14,0.41,0.19,0.61c0.01,0.03,0.01,0.06,0.02,0.08c4.98-1.41,8.04-3.66,8.04-6.1
							C48.33,22.3,45.15,20.01,40.06,18.79z M29.33,17.38c-1.22,0-2.28,0-3.34,0.18c1.06-1.43,2.29-2.83,3.34-4.06
							c1.05,1.23,2.27,2.46,3.34,4.04C31.6,17.56,30.55,17.38,29.33,17.38z M37.45,24.06c-0.55-0.87-1.08-1.94-1.6-2.81
							c-0.54-0.87-1.05-1.94-1.76-2.81c1.76,0.18,3.53,0.54,5.11,0.87C38.67,20.89,38.15,22.48,37.45,24.06z M39.33,18.63
							c-1.76-0.35-3.69-0.72-5.8-0.87c-1.23-1.76-2.46-3.17-3.69-4.58c0.71-0.73,1.24-1.45,1.94-1.96c2.12-1.59,3.86-2.46,5.27-2.46
							c0.54,0,1.05,0.18,1.4,0.35C40.4,10.17,40.59,13.87,39.33,18.63z"/>
					</g>
				</g>
			</g>
			<circle class="st4" cx="28.79" cy="24.99" r="3.09"/>
		</g>
	</g>
</g>
</svg>
