<?xml version="1.0" encoding="utf-8"?>
<!-- Generator: Adobe Illustrator 28.0.0, SVG Export Plug-In . SVG Version: 6.00 Build 0)  -->
<svg version="1.1" id="Layer_1" xmlns="http://www.w3.org/2000/svg" xmlns:xlink="http://www.w3.org/1999/xlink" x="0px" y="0px"
	 viewBox="0 0 50 50" style="enable-background:new 0 0 50 50;" xml:space="preserve">
<style type="text/css">
	.st0{fill:#00DFFC;}
	.st1{fill:none;stroke:#444444;stroke-width:0.5;stroke-linecap:round;stroke-miterlimit:10;}
	.st2{fill:none;stroke:#444444;stroke-linecap:round;stroke-linejoin:round;stroke-miterlimit:10;}
	.st3{fill:none;stroke:#444444;stroke-linecap:round;stroke-miterlimit:10;}
	.st4{fill:#444444;}
	.st5{fill:none;stroke:#444444;stroke-width:2.5;stroke-linecap:round;stroke-linejoin:round;stroke-miterlimit:10;}
</style>
<path class="st0" d="M46.1,19.1H32.8c-0.8,0-1.4-11.6-1.4-10.8l-29,0.2L2.2,30.1l6.4,0.6l0.2,7l7.6-6.9h4.9l0.8,7l7.1,0.3l18.4-6.5
	V20.7v-0.1v0C47.5,19.7,46.9,19.1,46.1,19.1z"/>
<g>
	<path class="st1" d="M36.4,25.4h-0.7c-0.4,0-0.8,0.4-0.8,0.8v2.6c0,0,0,1-1.3,1"/>
	<path class="st1" d="M36.4,34.2h-0.7c-0.4,0-0.8-0.4-0.8-0.8v-2.6c0,0,0-1-1.3-1"/>
</g>
<g>
	<path class="st1" d="M39.9,25.4h0.7c0.4,0,0.8,0.4,0.8,0.8v2.6c0,0,0,1,1.3,1"/>
	<path class="st1" d="M39.9,34.2h0.7c0.4,0,0.8-0.4,0.8-0.8v-2.6c0,0,0-1,1.3-1"/>
</g>
<path class="st2" d="M20.7,30.3h8.8c1,0,1.8-0.8,1.8-1.8v-9.7"/>
<path class="st3" d="M11.6,22.4c0,0,5.8,4,10.7,0"/>
<g>
	<circle class="st4" cx="10.4" cy="17.8" r="1.2"/>
	<circle class="st4" cx="23.4" cy="17.8" r="1.2"/>
</g>
<path class="st5" d="M42,38.3v5.5c0,0.5-0.6,0.7-0.9,0.4l-5.9-5.8H23.1c-1,0-1.8-0.8-1.8-1.8v-5.6h-4.9l-6.9,6.8
	c-0.3,0.3-0.9,0.1-0.9-0.4V31H3.8c-1,0-1.8-0.8-1.8-1.8V10.5c0-1,0.8-1.8,1.8-1.8h26.5c1,0,1.8,0.8,1.8,1.8v9.3h14
	c1,0,1.8,0.8,1.8,1.8v13.3"/>
</svg>
