<?xml version="1.0" encoding="utf-8"?>
<!-- Generator: Adobe Illustrator 27.7.0, SVG Export Plug-In . SVG Version: 6.00 Build 0)  -->
<svg version="1.1" id="Layer_1" xmlns="http://www.w3.org/2000/svg" xmlns:xlink="http://www.w3.org/1999/xlink" x="0px" y="0px"
	 viewBox="0 0 50 50" style="enable-background:new 0 0 50 50;" xml:space="preserve">
<style type="text/css">
	.st0{fill:#46B8B0;}
	.st1{fill:none;stroke:#444444;stroke-linecap:round;stroke-linejoin:round;stroke-miterlimit:10;}
	.st2{fill:#444444;}
	.st3{fill:none;stroke:#444444;stroke-width:0.5;stroke-linecap:round;stroke-linejoin:round;stroke-miterlimit:22.9256;}
</style>
<g>
	<g>
		<path class="st0" d="M45.7,31c7-6.5-4.7-12.1-7.7-13.1c0.4-1.9,0.5-3.6,0.4-5.5c0-0.3,0-0.3,0-0.7c0,0,0.2-0.5,0.2-0.5
			c-0.5-8.5-9.9-5.6-14.2-1c-2.5-2.2-5.5-4.4-8.9-4.3c-5.4,0.2-5.5,7.8-4.4,12.2c-3.4,1.3-7,2.8-8.6,6.1c0,0-0.1,0-0.1,0v0.3
			c0,0-0.6-0.7-0.6-0.7c-0.1,0.1,0.5,0.9,0.5,1c0,0-0.6-0.1-0.6-0.1c-0.6,5,4.5,6.8,9.4,8.9c-2.6,2.2-0.2,9.6-0.3,10.2
			C20.6,40.2,35.9,34.6,45.7,31z"/>
		<g>
			<g>
				<path class="st1" d="M2.9,28.8C1.9,27.5,1.5,26,2,24.5c2.2-5.1,8.5-6.6,13.6-7.7"/>
				<path class="st1" d="M2.9,28.8c2.2,2.2,5.1,4.1,9.2,5.3"/>
				<path class="st1" d="M38.7,33.5c0.9-0.3,1.8-0.7,2.7-1.1c2-1,4.1-2.2,5.2-4.2c0.1-0.1,0.1-0.3,0.2-0.4c2.3-5.5-4.8-8.8-9-10.2
					l0,0c-0.8-0.2-1.5-0.4-2.3-0.6"/>
				<path class="st1" d="M12.6,28c-1.5,4.1-3.3,10.3-1.6,14.6c0.6,1.6,1.9,2.9,3.6,3.3C20.1,47.3,27,40,29.9,35.7"/>
				<path class="st1" d="M24.6,9.8c14.5-11.2,16.3,2.7,12,12.9"/>
				<path class="st1" d="M38.8,41c0.8-5-1-12.2-3.1-15.3"/>
				<path class="st1" d="M21.6,38.6c3.5,3.6,7.1,6.6,10.1,7.4"/>
				<path class="st1" d="M11.7,21.2C7.4,9.9,12.9-0.7,24.4,9.9l0,0c1.6,1.4,3.1,3,4.6,4.9"/>
				<path class="st1" d="M36.7,22.3"/>
			</g>
			<path class="st2" d="M40.5,16.7c-0.4-0.2-0.6-0.6-0.6-1c0.5-4.2,0-7.4-1.6-9.4c-1.2-1.5-3-2.3-5.1-2.3c-2.3,0-5.1,1.1-8,3.1
				c-0.3,0.2-0.8,0.2-1.1,0c-2.5-2-5.3-3.2-7.9-3.2c-2.7,0-5,1.2-6.4,3.3C8.4,9.5,8,12.5,8.8,15.9c0.1,0.5-0.1,0.9-0.6,1.1
				c-4.7,1.8-7.6,4.9-7.8,8.5c-0.1,3.7,2.7,7.1,7.7,9.1c0.4,0.2,0.6,0.6,0.6,1c-0.5,4,0,7.2,1.8,9.4c1.4,1.7,3.4,2.7,5.7,2.7
				c2.5,0,5.2-1.1,7.9-3.2c0.3-0.3,0.8-0.3,1.1,0c2.1,1.6,4.2,2.6,6.1,3c0.6,0.1,1.1-0.3,1.2-0.9v0c0.1-0.5-0.2-0.9-0.6-1
				c-1.4-0.5-4.5-1.7-6.8-3.5c-0.3-0.3-0.9-0.2-1.2,0.1c-2.9,2.6-5.6,3.8-7.9,3.8c-4.1,0-6.7-4.2-5.2-11.4c0.1-0.5-0.2-0.9-0.6-1.1
				c-11-3.7-10-12.3,0.3-15c0.5-0.1,0.8-0.7,0.7-1.2c-2.4-7,0.5-11.3,5-11.3c2.4,0,5.3,1.3,8.1,4.2h0.2c3.3-2.7,6.3-4,8.6-4
				c3.9,0,6,3.7,4.6,11c-0.1,0.4,0.2,0.9,0.6,1c3.7,1.3,8.3,3.3,8.6,7.5c0,0.1,0,0.1,0,0.2c-0.3,4.4-4.9,5.7-8,7.6
				c-0.3,0.2-0.4,0.5-0.4,0.9c0.3,2.9,0.1,5.2-0.5,6.9c-0.2,0.5,0.2,1,0.7,1.1c0,0,0,0,0,0c0.5,0.1,1-0.1,1.2-0.6
				c0.6-1.8,0.8-4,0.7-6.6c0-0.3,0.2-0.7,0.5-0.8c0.3-0.2,0.6-0.3,0.9-0.5c3-1.6,6.8-3.6,7-8.2c0-0.1,0-0.2,0-0.2
				C48.6,20.6,44.1,18.2,40.5,16.7z"/>
		</g>
	</g>
</g>
<g>
	<path class="st3" d="M29.8,30.9c-1.3,1.2-2.9,1.9-4.8,1.9c-1.8,0-3.4-0.7-4.7-1.8"/>
	<path class="st3" d="M21.3,19.8c1.1-0.7,2.3-1.1,3.7-1.1c1.8,0,3.5,0.7,4.7,1.8"/>
	<path class="st3" d="M32.5,27.7l0.2,4.3c0,0.9-0.5,1.4-1,1.4c-0.5,0-1.1-0.6-1-1.4l0.3-4.3"/>
	<path class="st3" d="M32.6,18.2L32.6,18.2c-3.4,2-2,7.7-1.6,9.5c-0.3-0.1,0.6-0.5,1.5,0L32.6,18.2L32.6,18.2z"/>
	<line class="st3" x1="19" y1="18.3" x2="19" y2="21.4"/>
	<line class="st3" x1="17.8" y1="21.4" x2="17.8" y2="18.3"/>
	<path class="st3" d="M20.2,18.3v3.7c0,0.4-0.5,0.8-1.1,0.9l0.4,8.9c0.1,2-2.2,2-2.1,0l0.4-8.9c-0.6-0.1-1.1-0.5-1.1-0.9v-3.7"/>
	<circle class="st3" cx="25.1" cy="25.7" r="4.4"/>
</g>
</svg>
