<?xml version="1.0" encoding="utf-8"?>
<!-- Generator: Adobe Illustrator 28.0.0, SVG Export Plug-In . SVG Version: 6.00 Build 0)  -->
<svg version="1.1" id="Layer_1" xmlns="http://www.w3.org/2000/svg" xmlns:xlink="http://www.w3.org/1999/xlink" x="0px" y="0px"
	 viewBox="0 0 50 50" style="enable-background:new 0 0 50 50;" xml:space="preserve">
<style type="text/css">
	.st0{fill:#FCC34F;}
	.st1{fill:none;stroke:#444444;stroke-width:2.5;stroke-linecap:round;stroke-linejoin:round;stroke-miterlimit:10;}
	.st2{fill:none;stroke:#444444;stroke-linecap:round;stroke-linejoin:round;stroke-miterlimit:10;}
	.st3{fill:none;stroke:#444444;stroke-width:0.5;stroke-linecap:round;stroke-linejoin:round;stroke-miterlimit:10;}
</style>
<g>
	<path class="st0" d="M44.6,12.4L39,8.8l-7.7-4.4l-6-2.8c-3.2,0-21.5,8.9-21.5,12.1l-0.5,7.8l0.5,15.1l11.5,7.6l31-11
		C47.2,32.7,45.6,14.4,44.6,12.4z"/>
	<g>
		<g>
			<path class="st1" d="M29.9,46.5l-2.2,1.3c-1.7,1-3.8,1-5.5,0l-15.6-9C5,37.8,3.9,36,3.9,34V16c0-2,1-3.8,2.7-4.7l15.6-9
				c1.7-1,3.8-1,5.5,0l15.6,9c1.7,1,2.7,2.8,2.7,4.7v18c0,2-1,3.8-2.7,4.7l-2.5,1.4"/>
		</g>
	</g>
	<path class="st2" d="M36.4,23.6v13.3c0,0-0.9,2.8-7.6,2.8s-7.6-2.9-7.6-2.9V23.6c0,0-0.3-3.6,7.6-3.6S36.4,23.6,36.4,23.6z"/>
	<path class="st3" d="M21.1,23.9c0,0,1.4,2.5,7.6,2.5s7.6-2.5,7.6-2.5"/>
	<path class="st3" d="M21.1,28.5c0,0,1.4,2.5,7.6,2.5s7.6-2.5,7.6-2.5"/>
	<path class="st3" d="M21.1,33.1c0,0,1.4,2.5,7.6,2.5s7.6-2.5,7.6-2.5"/>
	<path class="st2" d="M21,31.6c0,0-7.1,0.2-8.6-2.8V15c0,0,0.5-3.2,7.6-3.2c0,0,7.1,0.2,7.6,3.2v4.8"/>
	<path class="st3" d="M12.4,15c0,0,1.4,2.5,7.6,2.5s7.6-2.5,7.6-2.5"/>
	<path class="st3" d="M12.4,20.1c0,0,3.5,1.8,9.2,1.8"/>
	<path class="st3" d="M12.4,24.8c0,0,2.6,2.1,8.3,2.1"/>
</g>
</svg>
