<?xml version="1.0" encoding="utf-8"?>
<!-- Generator: Adobe Illustrator 24.0.1, SVG Export Plug-In . SVG Version: 6.00 Build 0)  -->
<svg version="1.1" id="Camada_1" xmlns="http://www.w3.org/2000/svg" xmlns:xlink="http://www.w3.org/1999/xlink" x="0px" y="0px"
	 viewBox="0 0 50 50" style="enable-background:new 0 0 50 50;" xml:space="preserve">
<style type="text/css">
	.st0{fill:#C3FF68;}
	.st1{fill:#AFE55D;}
	.st2{fill:#444444;}
</style>
<g>
	<g>
		<path class="st0" d="M34.5,7.9c-0.2-0.1-0.4-0.2-0.7-0.4c-1-0.5-2.3-0.2-2.9,0.8l-1.1,1.9c-0.1-0.4-0.3-0.9-0.7-1.2l-6.9-6.1
			c-0.6-0.6-1.6-0.7-2.3-0.4c-0.8,0.4-1.3,1.1-1.3,2l0,1.7C10.3,8.7,4.1,16,3.2,24.6l35.9-13.1C37.8,10.2,36.2,8.9,34.5,7.9z"/>
	</g>
	<g>
		<path class="st1" d="M44.4,31.8c2-7.3-0.2-15-5.3-20.3L3.2,24.6C3.1,25.4,3,26.1,3,26.9c0,0.2,0,0.5,0,0.7c0.1,1.2,1,2.1,2.2,2.1
			h2.2c-0.3,0.3-0.6,0.7-0.7,1.2l-1.9,9c-0.2,0.8,0.2,1.7,0.9,2.2c0.7,0.5,1.6,0.5,2.3,0.1l1.5-0.9c1.1,1.1,2.2,2,3.4,2.8l32.3-11.7
			L44.4,31.8z"/>
	</g>
	<g>
		<path class="st2" d="M48,33.7l-1.8-1C49,22.5,44.6,11.6,35.4,6.3c-0.2-0.1-0.5-0.3-0.7-0.4c-1-0.5-2.3-0.2-2.9,0.8l-1.6,2.8
			c0-0.1,0-0.2,0-0.3c0-0.6-0.3-1.2-0.7-1.6l-7.6-6.8c-0.6-0.6-1.5-0.7-2.3-0.4s-1.3,1.1-1.3,2l0,2.1C8.2,7.2,0.9,16.5,0.9,27.1
			c0,0.3,0,0.5,0,0.8c0,1.2,1,2.1,2.2,2.1h3.2c-0.1,0-0.2,0.1-0.3,0.1c-0.5,0.3-0.9,0.8-1,1.4l-2.1,10c-0.2,0.9,0.2,1.7,0.9,2.2
			c0.7,0.5,1.6,0.5,2.4,0.1L8,42.7c4.5,4.5,10.5,6.9,16.7,6.9c4,0,8-1,11.6-3.1c0.2-0.1,0.5-0.3,0.7-0.4c1-0.6,1.3-1.9,0.7-2.9
			L36,40.5c0.1,0.1,0.2,0.1,0.3,0.2c0.5,0.3,1.2,0.4,1.7,0.2l9.7-3.2c0.8-0.3,1.4-1,1.5-1.8C49.2,34.9,48.8,34.1,48,33.7z
			 M28.5,13.8c0.2,0.6,0.6,1,1.1,1.3c0.2,0.1,0.4,0.2,0.5,0.3c4.2,2.4,6.6,7,6.3,11.8L36.1,27c-0.1-0.1-0.3-0.1-0.4-0.2
			c-0.1-6.1-5.1-11-11.2-11c-0.1,0-0.2,0-0.2,0l5.2-4.8l-0.6,1.1C28.4,12.6,28.4,13.2,28.5,13.8z M35.1,39l-0.6-1.1
			c-0.3-0.5-0.8-0.9-1.4-1c-0.6-0.1-1.2,0-1.7,0.3c-0.2,0.1-0.3,0.2-0.5,0.3l0,0c-4.2,2.4-9.4,2.2-13.4-0.4l0.4-0.2
			c0.2-0.1,0.3-0.2,0.5-0.4c1.7,1.1,3.8,1.8,6,1.8c3.9,0,7.4-2,9.4-5.1L35.1,39z M9.3,30c0.6,0,1.2-0.2,1.6-0.7
			c0.4-0.4,0.6-1,0.6-1.6c0-0.2,0-0.4,0-0.6c0-4.9,2.8-9.3,7.1-11.4l0,0.5c0,0.4,0.1,0.8,0.3,1.1c-3.3,1.9-5.6,5.6-5.6,9.7
			c0,1.8,0.4,3.5,1.2,4.9L8,30H9.3z M22.1,17.7l0.2-0.2c0.7-0.1,1.4-0.2,2.1-0.2c5.3,0,9.7,4.3,9.7,9.6C34,27,33.9,27,33.7,27.1
			c-0.7,0.5-1,1.4-0.8,2.2l0.4,1.7c-1.5,3.4-4.9,5.8-8.9,5.8c-2,0-3.9-0.6-5.5-1.7c0-0.1,0-0.2,0-0.3c-0.1-0.9-0.7-1.6-1.5-1.8
			l-1-0.3c-1.1-1.6-1.8-3.5-1.8-5.6c0-3.9,2.3-7.2,5.5-8.8C20.9,18.4,21.6,18.2,22.1,17.7z M3.4,27.5c0-0.1,0-0.3,0-0.4
			c0-9.8,6.9-18.3,16.5-20.3l1-0.2l0-3.3l6.7,6l-6.6,6.1l0-3.3l-1.6,0.6c-6.2,2.1-10.4,7.9-10.4,14.4c0,0.1,0,0.3,0,0.4H3.4z
			 M34.9,44.4c-8.4,4.9-19.3,3.1-25.8-4.1l-0.7-0.8l-2.9,1.7l1.8-8.8l8.6,2.7l-2.8,1.7l1.3,1.1c4.9,4.3,12,5,17.7,1.8
			c0.1-0.1,0.2-0.1,0.3-0.2l2.8,4.8C35.2,44.3,35,44.4,34.9,44.4z M37.5,38.3l-2-8.8l2.9,1.6l0.3-1.7c1.3-6.4-1.7-12.9-7.3-16.2l0,0
			c-0.1-0.1-0.2-0.1-0.3-0.2l2.8-4.8c0.1,0.1,0.2,0.1,0.3,0.2c8.4,4.9,12.4,15.1,9.4,24.4l-0.3,1l2.9,1.6L37.5,38.3z"/>
		<path class="st2" d="M28.7,29.4c0-0.6-0.3-2-1.6-2.5c1.1-0.2,1.4-1.8,1.4-2.4c0-1-0.6-3.2-4.1-3.2c0,0-3.4,0-3.7,0
			c-0.3,0-0.4,0.2-0.4,0.4c0,0.2,0,11.1,0,11.1h4.7C28.2,32.7,28.7,30.5,28.7,29.4z M24.3,23.4c0.6,0,1.1,0.1,1.3,0.3
			c0.3,0.2,0.4,0.6,0.4,1c0,0.4-0.1,0.7-0.4,1c-0.3,0.2-0.7,0.3-1.3,0.3h-2.1c0,0,0-1.9,0-2.1c0-0.2-0.5-0.6-0.5-0.6H24.3z
			 M22.3,30.6c0,0,0-1.9,0-2.1c0-0.2-0.5-0.6-0.5-0.6h3.1c0.9,0,1.4,0.5,1.4,1.4c0,0.4-0.1,0.7-0.4,1c-0.3,0.2-0.7,0.3-1.1,0.3H22.3
			z"/>
	</g>
</g>
</svg>
