<?xml version="1.0" encoding="utf-8"?>
<!-- Generator: Adobe Illustrator 22.1.0, SVG Export Plug-In . SVG Version: 6.00 Build 0)  -->
<svg version="1.1" id="Layer_1" xmlns="http://www.w3.org/2000/svg" xmlns:xlink="http://www.w3.org/1999/xlink" x="0px" y="0px"
	 viewBox="0 0 50 50" style="enable-background:new 0 0 50 50;" xml:space="preserve">
<style type="text/css">
	.st0{fill:#46B8B0;}
	.st1{fill:#4ECDC4;}
	.st2{fill:#444444;}
</style>
<g>
	<g>
		<path class="st0" d="M44.4,25.2c0-0.2,0-0.4,0-0.7c0.2-3.8-0.7-7.7-2.6-11l1.7-6.5c0.1-0.2-0.1-0.4-0.3-0.5c0,0-0.1,0-0.1,0
			l-6.7,0.6c-3.6-2.5-8.3-2.8-12.2-0.8c-1.1,0.5-2,1.2-2.9,2c-2.4,2.3-3.7,5.4-3.7,8.7c0,1.2,0.2,2.3,0.5,3.3
			c-0.5,0.2-0.9,0.4-1.4,0.5C16.2,20.9,15.6,21,15,21c-3.8,0-7.6-6.1-7.8-6.1S6.9,16.2,6.9,17c0,3.1,1.2,5.9,3.1,8
			c-0.1,0-0.2,0-0.3,0c-3.5,0-7.4-5.5-7.6-5.5c-0.2,0-0.4,2.7-0.4,4.1c0,5.8,2.3,11,6,14.9L44.4,25.2L44.4,25.2z"/>
	</g>
	<g>
		<path class="st1" d="M7.4,24.4c-2.7-1.5-5.2-4.8-5.3-4.8c-0.2,0-0.4,2.7-0.4,4.1c0,0.9,0.1,1.8,0.2,2.7L7.4,24.4z M42.4,11.6
			L43.6,7c0.1-0.2-0.1-0.4-0.3-0.5c0,0-0.1,0-0.1,0l-6.7,0.6c-2-1.4-4.4-2.1-6.8-2.1c-1.9,0-3.7,0.4-5.4,1.3c-1.1,0.5-2,1.2-2.9,2
			c-2.4,2.3-3.7,5.4-3.7,8.7c0,1.2,0.2,2.3,0.5,3.3c-0.5,0.2-0.9,0.4-1.4,0.5C16.2,20.9,15.6,21,15,21c-3.8,0-7.6-6.1-7.8-6.1
			S6.9,16.3,6.9,17c0,2.5,0.8,4.8,2.1,6.7L42.4,11.6L42.4,11.6z"/>
	</g>
	<path class="st2" d="M45.5,24.8c0.2-4-0.6-7.9-2.5-11.5l1.6-6.1c0-0.2,0.1-0.3,0-0.5c-0.1-0.8-0.8-1.4-1.6-1.3L36.8,6
		c-2.1-1.4-4.5-2.1-7.1-2.1c-2,0-4,0.5-5.9,1.4c-1.2,0.6-2.2,1.3-3.2,2.2c-3.3,3.1-4.7,7.7-3.8,12.1c-0.6,0.2-1.3,0.3-1.9,0.3
		c-1.7,0-3.9-1.7-6.5-5.2c-0.4-0.6-0.7-0.9-1.3-0.9c-1.3,0-1.3,1.6-1.3,3.2c0,2.1,0.5,4.2,1.5,6c-1.7-1.1-3.3-2.9-3.9-3.7
		c-0.6-0.7-0.8-0.9-1.3-0.9c-1.5,0-1.5,2.5-1.5,5.2c0,6.1,2.4,11.8,6.7,16c4.2,4.2,9.8,6.5,15.8,6.5h0l0.4,0
		c4.7-0.1,9.2-1.6,13.1-4.5c0,0,0,0,0,0c0,0,0,0,0,0c1,0.4,2.1,0.6,3.3,0.6c5.3,0,9.6-4.3,9.6-9.6C49.4,29.4,47.9,26.6,45.5,24.8z
		 M23.4,43.9c-5.5,0.1-10.7-2-14.6-5.8c-3.9-3.8-6.1-9-6.1-14.5c0-0.6,0-1.1,0.1-1.7c1.6,1.8,4.2,4.1,6.9,4.1c0.1,0,0.3,0,0.4,0
		l2.2-0.2l-1.5-1.7c-1.6-1.8-2.6-4.1-2.8-6.5c1.6,1.9,4.2,4.3,6.9,4.3c0.7,0,1.4-0.1,2-0.2c0.6-0.1,1.1-0.3,1.6-0.5l0.9-0.4L19.2,20
		c-0.3-1-0.4-2-0.4-3c0-3,1.2-5.9,3.4-7.9c0.8-0.7,1.7-1.4,2.6-1.9c3.5-1.7,7.8-1.5,11,0.8l0.3,0.2l6.1-0.6l-1.6,6l0.2,0.4
		c1.6,3,2.4,6.3,2.4,9.6c-1.1-0.4-2.3-0.7-3.6-0.7c-5.3,0-9.6,4.3-9.6,9.6c0,3.3,1.7,6.2,4.2,7.9C31.1,42.7,27.3,43.9,23.4,43.9z
		 M39.8,39.7c-3.9,0-7.1-3.2-7.1-7.1c0-3.9,3.2-7.1,7.1-7.1c3.9,0,7.1,3.2,7.1,7.1C46.9,36.5,43.7,39.7,39.8,39.7z"/>
	<g>
		<path class="st2" d="M39.8,26.1c-3.6,0-6.4,2.9-6.4,6.4s2.9,6.4,6.4,6.4s6.4-2.9,6.4-6.4S43.3,26.1,39.8,26.1z M39.8,35.2
			c-2.1,0-4.1-1-5.4-2.7c1.3-1.7,3.3-2.7,5.4-2.7s4.1,1,5.4,2.7C43.9,34.2,41.9,35.2,39.8,35.2z"/>
	</g>
	<g>
		<g>
			<path class="st2" d="M39.8,34.8c-1.3,0-2.3-1-2.3-2.3c0-1.2,1-2.3,2.3-2.3c1.2,0,2.3,1,2.3,2.3C42,33.8,41,34.8,39.8,34.8z
				 M39.8,31c-0.8,0-1.5,0.7-1.5,1.5s0.7,1.5,1.5,1.5s1.5-0.7,1.5-1.5S40.6,31,39.8,31z"/>
		</g>
		<g>
			<circle class="st2" cx="39.8" cy="32.5" r="1.1"/>
		</g>
	</g>
</g>
</svg>
