<?xml version="1.0" encoding="utf-8"?>
<!-- Generator: Adobe Illustrator 24.0.3, SVG Export Plug-In . SVG Version: 6.00 Build 0)  -->
<svg version="1.1" id="Layer_1" xmlns="http://www.w3.org/2000/svg" xmlns:xlink="http://www.w3.org/1999/xlink" x="0px" y="0px"
	 viewBox="0 0 50 50" style="enable-background:new 0 0 50 50;" xml:space="preserve">
<style type="text/css">
	.st0{fill:#BF94F7;}
	.st1{fill:#A475EF;}
	.st2{fill:#444444;}
	.st3{fill:none;stroke:#444444;stroke-width:2.5;stroke-linecap:round;stroke-linejoin:round;}
	.st4{fill:none;stroke:#444444;stroke-linecap:round;stroke-linejoin:round;}
	.st5{fill:none;stroke:#444444;stroke-width:0.75;stroke-linecap:round;stroke-linejoin:round;}
</style>
<polyline class="st0" points="8,30.1 42.5,17.6 41.3,7 41.3,2.6 7.3,14.6 "/>
<polyline class="st1" points="9.4,43.9 42.4,32.2 41.3,16.8 7.3,29.1 "/>
<path class="st2" d="M47,45.5v-2.2h-1.9c-0.1-0.3-0.2-0.5-0.3-0.7l1.3-1.3l-1.5-1.6L43.3,41c-0.2-0.1-0.5-0.2-0.7-0.3v-1.8h-2.2v1.9
	c-0.3,0.1-0.5,0.2-0.7,0.3l-1.3-1.3l-1.6,1.6l1.3,1.3c-0.1,0.2-0.2,0.5-0.3,0.7h-1.9v2.2h1.9c0.1,0.3,0.2,0.5,0.3,0.7l-1.3,1.3
	l1.6,1.6l1.3-1.3c0.2,0.1,0.5,0.2,0.7,0.3V50h2.2v-1.8c0.3-0.1,0.5-0.2,0.7-0.3l1.4,1.3l1.5-1.6l-1.3-1.3c0.1-0.2,0.2-0.5,0.3-0.7
	L47,45.5z M41.4,46.1c-0.9,0-1.7-0.7-1.7-1.7c0-0.9,0.7-1.7,1.7-1.7c0.9,0,1.7,0.7,1.7,1.7c0,0,0,0,0,0
	C43.1,45.3,42.4,46.1,41.4,46.1C41.4,46.1,41.4,46.1,41.4,46.1z"/>
<polyline class="st3" points="32.2,47.5 8.6,47.5 8.6,9.1 15.7,2 41.5,2 41.5,33.8 "/>
<line class="st4" x1="22" y1="14.3" x2="30.8" y2="14.3"/>
<line class="st4" x1="22" y1="16.5" x2="36.2" y2="16.5"/>
<line class="st4" x1="22" y1="24.3" x2="30.8" y2="24.3"/>
<line class="st4" x1="22" y1="26.5" x2="36.2" y2="26.5"/>
<line class="st4" x1="22" y1="34.9" x2="30.8" y2="34.9"/>
<line class="st4" x1="22" y1="37.1" x2="36.2" y2="37.1"/>
<path class="st4" d="M14.9,11.8h3.4c0.6,0,1,0.5,1,1v3.4c0,0.6-0.5,1-1,1h-3.4c-0.6,0-1-0.5-1-1v-3.4C13.8,12.2,14.3,11.8,14.9,11.8
	z"/>
<polyline class="st5" points="14.9,13.7 16.1,15.9 20.3,11.3 "/>
<path class="st4" d="M14.9,22.3h3.4c0.6,0,1,0.5,1,1v3.4c0,0.6-0.5,1-1,1h-3.4c-0.6,0-1-0.5-1-1v-3.4C13.8,22.7,14.3,22.3,14.9,22.3
	z"/>
<polyline class="st5" points="14.9,24.2 16.1,26.3 20.3,21.8 "/>
<path class="st4" d="M14.9,32.8h3.4c0.6,0,1,0.5,1,1v3.4c0,0.6-0.5,1-1,1h-3.4c-0.6,0-1-0.5-1-1v-3.4C13.8,33.2,14.3,32.8,14.9,32.8
	z"/>
<polyline class="st5" points="14.9,34.7 16.1,36.8 20.3,32.2 "/>
</svg>
