<?xml version="1.0" encoding="utf-8"?>
<!-- Generator: Adobe Illustrator 27.9.0, SVG Export Plug-In . SVG Version: 6.00 Build 0)  -->
<svg version="1.1" id="Camada_1" xmlns="http://www.w3.org/2000/svg" xmlns:xlink="http://www.w3.org/1999/xlink" x="0px" y="0px"
	 viewBox="0 0 49 50" style="enable-background:new 0 0 49 50;" xml:space="preserve">
<style type="text/css">
	.st0{fill:#FF6B6B;}
	.st1{fill:none;stroke:#444444;stroke-width:2.5;stroke-linecap:round;stroke-linejoin:round;stroke-miterlimit:10;}
	.st2{fill:none;stroke:#444444;stroke-linecap:round;stroke-linejoin:round;stroke-miterlimit:10;}
	.st3{fill:#444444;}
</style>
<g>
	<path class="st0" d="M47.2,20.1c-0.2-0.8-2.7-7.5-3.2-8.1l-3-3.5l-0.2,0.1l-7.6-5.7l-7.8-0.7c-3.2,0-12.8-0.7-21.3,11.5l-2.9,7.9
		l0.5,2l1.8,11.5c0.1,0.4,4.7,7,5.1,7.2l5.6,3l32.2-11.7C47.1,33.1,48.2,24.8,47.2,20.1z"/>
	<path class="st1" d="M43.1,37.9c2.7-3.7,4.2-8.3,4.2-13.2C47.4,12.1,37.2,2,24.6,2S1.9,12.1,1.9,24.7S12,47.5,24.6,47.5"/>
	<line class="st2" x1="8.3" y1="9.5" x2="22.6" y2="46.4"/>
	<path class="st2" d="M1.9,24.7c0,0,20.9-9.4,42.9,9.5"/>
	<path class="st2" d="M27.1,2.5c0,0,9.5,11.5,9.2,34.9"/>
	<path class="st2" d="M15.4,45.3c0,0,3-25.5,23.8-37.8"/>
	<circle class="st3" cx="13" cy="22.5" r="3.2"/>
	<circle class="st3" cx="23.2" cy="23.2" r="3.2"/>
	<circle class="st3" cx="18.1" cy="34.4" r="3.2"/>
	<circle class="st3" cx="35.5" cy="28.2" r="3.2"/>
</g>
</svg>
