<?xml version="1.0" encoding="utf-8"?>
<!-- Generator: Adobe Illustrator 24.0.1, SVG Export Plug-In . SVG Version: 6.00 Build 0)  -->
<svg version="1.1" id="Layer_1" xmlns="http://www.w3.org/2000/svg" xmlns:xlink="http://www.w3.org/1999/xlink" x="0px" y="0px"
	 viewBox="0 0 50 50" style="enable-background:new 0 0 50 50;" xml:space="preserve">
<style type="text/css">
	.st0{fill:#E589EF;}
	.st1{fill:#F799FF;}
	.st2{fill:#444444;}
</style>
<g>
	<path class="st0" d="M42.3,23.1l-2.1-7.9c-2.3-8.8-11.4-14-20.1-11.6l-1,0.3c-8.8,2.3-14,11.4-11.6,20.1l2.9,10.9
		c0.8,3,2.4,5.5,4.4,7.5L42.3,23.1z"/>
</g>
<g>
	<path class="st1" d="M31.6,4.7C28.1,3,24.1,2.5,20.1,3.5l-1,0.3C11,6,5.9,13.8,7,21.8L31.6,4.7z"/>
</g>
<g>
	<path class="st2" d="M27.3,42.7c-0.3,0-0.6-0.2-0.6-0.5c0-0.3,0.2-0.6,0.5-0.6c0.8,0,1.6-0.2,2.3-0.4c1.3-0.3,2.5-0.9,3.6-1.7
		c0.3-0.2,0.6-0.1,0.8,0.1c0.2,0.3,0.1,0.6-0.1,0.8c-1.2,0.8-2.5,1.5-4,1.8C29.1,42.5,28.2,42.7,27.3,42.7
		C27.4,42.7,27.4,42.7,27.3,42.7z"/>
</g>
<g>
	<path class="st2" d="M16.9,37.9c-0.2,0-0.5-0.2-0.5-0.4c-0.1-0.3,0.1-0.6,0.4-0.7c3.5-1.2,6.4-3.6,8.1-7c0.1-0.3,0.5-0.4,0.8-0.2
		c0.3,0.1,0.4,0.5,0.2,0.8c-1.9,3.6-5,6.2-8.8,7.5C17,37.9,16.9,37.9,16.9,37.9z"/>
</g>
<g>
	<path class="st2" d="M21.2,41.5c-0.2,0-0.4-0.1-0.5-0.3c-0.1-0.3,0-0.6,0.3-0.8c3.1-1.6,5.8-4.1,7.6-7.1c0.2-0.4,0.7-0.5,1.1-0.3
		c1,0.4,4.4,1.8,8,1.8c0.3,0,0.6,0.3,0.6,0.6c0,0.3-0.3,0.6-0.6,0.6c0,0,0,0,0,0c-3.5,0-6.9-1.3-8.2-1.8c-2,3.1-4.7,5.6-8,7.3
		C21.3,41.5,21.2,41.5,21.2,41.5z"/>
</g>
<g>
	<path class="st2" d="M14.7,33.4c-0.3,0-0.5-0.2-0.6-0.4c-0.1-0.3,0.1-0.6,0.4-0.7c5-1.3,7.9-6.5,6.6-11.4c-0.4-1.6,0.5-3.1,2.1-3.6
		c1.5-0.4,3.2,0.5,3.6,2.1l1,3.8c1.3,4.8,6.1,7.7,10.9,6.7c0.3-0.1,0.6,0.1,0.7,0.4c0.1,0.3-0.1,0.6-0.4,0.7
		c-5.5,1.2-10.9-2.2-12.3-7.6l-1-3.8c-0.2-0.9-1.2-1.5-2.1-1.2c-0.9,0.3-1.5,1.2-1.2,2.1c1.5,5.6-1.8,11.4-7.4,12.9
		C14.8,33.4,14.7,33.4,14.7,33.4z"/>
</g>
<g>
	<path class="st2" d="M13.4,28.6c-0.3,0-0.5-0.2-0.6-0.4c-0.1-0.3,0.1-0.6,0.4-0.7c1.1-0.3,2.1-1,2.7-2c0.6-1,0.7-2.2,0.4-3.3
		c-0.5-2-0.3-4.1,0.8-6s2.7-3.1,4.8-3.7c2-0.5,4.1-0.3,6,0.8S31,16,31.6,18l1,3.8c0.6,2.3,3,3.7,5.4,3.1c0.3-0.1,0.6,0.1,0.7,0.4
		s-0.1,0.6-0.4,0.7c-1.4,0.4-2.9,0.2-4.2-0.6c-1.3-0.7-2.2-1.9-2.6-3.4l-1-3.8c-0.5-1.7-1.6-3.2-3.1-4.1c-1.6-0.9-3.4-1.1-5.1-0.7
		c-1.7,0.5-3.2,1.6-4.1,3.1c-0.9,1.6-1.1,3.4-0.7,5.1c0.4,1.4,0.2,2.9-0.6,4.2c-0.7,1.3-1.9,2.2-3.4,2.6
		C13.5,28.6,13.5,28.6,13.4,28.6z"/>
</g>
<g>
	<path class="st2" d="M12.1,23.8c-0.3,0-0.5-0.2-0.6-0.4c-1.8-6.8,2.2-13.9,9.1-15.7c6.8-1.8,13.9,2.2,15.7,9.1l1,3.8
		c0.1,0.3-0.1,0.6-0.4,0.7c-0.3,0.1-0.6-0.1-0.7-0.4l-1-3.8c-1.7-6.2-8.1-9.9-14.3-8.3c-6.2,1.7-9.9,8.1-8.3,14.3
		c0.1,0.3-0.1,0.6-0.4,0.7C12.2,23.8,12.2,23.8,12.1,23.8z"/>
</g>
<g>
	<path class="st2" d="M26.2,48c-7.7,0-14.7-5.1-16.8-12.9L6.5,24.2C5.3,19.7,5.9,15,8.2,11c2.3-4,6.1-6.9,10.6-8.1l1-0.3
		c9.3-2.5,18.8,3,21.3,12.3l2.9,10.9c0.1,0.5-0.2,1-0.7,1.2c-0.5,0.1-1-0.2-1.2-0.7l-2.9-10.9c-2.2-8.2-10.7-13.1-19-10.9l-1,0.3
		c-4,1.1-7.3,3.6-9.4,7.2c-2.1,3.6-2.6,7.8-1.5,11.7l2.9,10.9c2.2,8.2,10.7,13.2,19,10.9l1-0.3c0.5-0.1,1,0.2,1.2,0.7
		s-0.2,1-0.7,1.2l-1,0.3C29.2,47.8,27.7,48,26.2,48z"/>
</g>
</svg>
