<?xml version="1.0" encoding="utf-8"?>
<!-- Generator: Adobe Illustrator 28.0.0, SVG Export Plug-In . SVG Version: 6.00 Build 0)  -->
<svg version="1.1" id="Layer_1" xmlns="http://www.w3.org/2000/svg" xmlns:xlink="http://www.w3.org/1999/xlink" x="0px" y="0px"
	 viewBox="0 0 50 50" style="enable-background:new 0 0 50 50;" xml:space="preserve">
<style type="text/css">
	.st0{fill:#E589EF;}
	.st1{fill:none;stroke:#444444;stroke-linecap:round;stroke-linejoin:round;stroke-miterlimit:10;}
	.st2{fill:none;stroke:#444444;stroke-width:2.5;stroke-linecap:round;stroke-linejoin:round;stroke-miterlimit:10;}
	.st3{fill:none;stroke:#444444;stroke-width:0.5;stroke-linecap:round;stroke-linejoin:round;stroke-miterlimit:10;}
</style>
<path class="st0" d="M46.1,14.5l-7.2-3l-7-2.5l-6.5-2.2c-3.7,1.5-16,6.2-21.4,8.7l0,11.8l-0.2,7.5l12,5.1l30.4-10.8
	C47,28.7,46.2,16.6,46.1,14.5z"/>
<g>
	<g>
		<g>
			<ellipse class="st1" cx="25.4" cy="17.6" rx="8.6" ry="2.9"/>
		</g>
		<path class="st1" d="M29.7,22.4c-0.1,0-0.2,0-0.2,0.1"/>
		<path class="st1" d="M31.8,22.1c-0.1,0-0.2,0.1-0.2,0.1"/>
		<path class="st1" d="M29.7,28c-0.1,0-0.2,0-0.2,0.1"/>
		<path class="st1" d="M31.7,27.7c-0.1,0-0.1,0.1-0.2,0.1"/>
		<path class="st1" d="M29.7,33.4c-0.1,0-0.2,0-0.2,0.1"/>
		<path class="st1" d="M31.7,33.1c-0.1,0-0.1,0.1-0.2,0.1"/>
		<g>
			<path class="st1" d="M34,23c0,1.6-3.8,2.9-8.6,2.9s-8.6-1.3-8.6-2.9"/>
		</g>
		<g>
			<path class="st1" d="M34,28.4c0,1.6-3.8,2.9-8.6,2.9c-4.7,0-8.6-1.3-8.6-2.9"/>
		</g>
		<g>
			<path class="st1" d="M34,33.4c0,1.6-3.8,2.9-8.6,2.9c-4.7,0-8.6-1.3-8.6-2.9"/>
		</g>
		<g>
			<line class="st1" x1="16.8" y1="33.3" x2="16.8" y2="17.6"/>
			<line class="st1" x1="34" y1="17.6" x2="34" y2="33.6"/>
		</g>
	</g>
</g>
<path class="st2" d="M46.3,31.8v-2.9l-1.6-1l1.6-1V22l-1.9-1.1l1.9-1.2v-5.2L27.7,7.2c-1.3-0.5-2.7-0.5-3.9,0L4.5,14.8
	C4.1,15,3.8,15.5,3.8,16l0,3.5c0,0.4,0.2,0.8,0.6,1l1.5,1l-1.4,0.7c-0.4,0.2-0.7,0.6-0.7,1.1l0,3.4c0,0.4,0.2,0.7,0.5,1l1.2,0.9
	l-1.2,0.7c-0.4,0.2-0.6,0.6-0.6,1l0,3.5c0,0.5,0.3,0.9,0.7,1.1l18.9,8.2c0.9,0.4,1.9,0.4,2.8,0l14.5-6.4"/>
<line class="st3" x1="4.4" y1="15.9" x2="11.2" y2="19"/>
<line class="st3" x1="4.8" y1="23.4" x2="11.6" y2="26.5"/>
<line class="st3" x1="4.8" y1="30.4" x2="11.6" y2="33.5"/>
<line class="st3" x1="39.9" y1="18.2" x2="45.6" y2="15.3"/>
<line class="st3" x1="45" y1="29.7" x2="38.1" y2="32.8"/>
<line class="st3" x1="45.3" y1="22.7" x2="38.5" y2="25.9"/>
</svg>
