<?xml version="1.0" encoding="utf-8"?>
<!-- Generator: Adobe Illustrator 22.1.0, SVG Export Plug-In . SVG Version: 6.00 Build 0)  -->
<svg version="1.1" id="Layer_1" xmlns="http://www.w3.org/2000/svg" xmlns:xlink="http://www.w3.org/1999/xlink" x="0px" y="0px"
	 viewBox="0 0 50 50" style="enable-background:new 0 0 50 50;" xml:space="preserve">
<style type="text/css">
	.st0{fill:#C3FF68;}
	.st1{fill:#AFE55D;}
	.st2{fill:#444444;}
	
		.st3{fill:none;stroke:#444444;stroke-width:1.5;stroke-linecap:round;stroke-linejoin:round;stroke-miterlimit:10;stroke-dasharray:0,3;}
</style>
<g>
	<g>
		<polygon class="st0" points="49,5.8 2,31.2 1.8,5.2 9.2,5.8 38.4,5.2 		"/>
	</g>
	<g>
		<polygon class="st1" points="49.1,26.7 2,43.8 2.1,24.3 43.4,5.5 49,5.8 		"/>
	</g>
	<g>
		<path class="st2" d="M22.8,46H1.8c-0.7,0-1.2-0.6-1.2-1.2V5.2C0.5,4.5,1.1,4,1.8,4h46.5c0.7,0,1.2,0.6,1.2,1.2s-0.6,1.2-1.2,1.2H3
			v37.1h19.8c0.7,0,1.2,0.6,1.2,1.2S23.5,46,22.8,46z"/>
	</g>
	<g>
		<circle class="st2" cx="11.6" cy="22.9" r="0.5"/>
	</g>
	<g>
		<circle class="st2" cx="13.3" cy="22.3" r="0.5"/>
	</g>
	<g>
		<circle class="st2" cx="14.2" cy="20.4" r="0.5"/>
	</g>
	<g>
		<circle class="st2" cx="12" cy="19" r="0.5"/>
	</g>
	<g>
		<circle class="st2" cx="9.6" cy="29.3" r="0.5"/>
	</g>
	<g>
		<circle class="st2" cx="11.1" cy="27.2" r="0.5"/>
	</g>
	<g>
		<circle class="st2" cx="10.3" cy="25.5" r="0.5"/>
	</g>
	<g>
		<circle class="st2" cx="14" cy="27" r="0.5"/>
	</g>
	<g>
		<circle class="st2" cx="12.5" cy="24.8" r="0.5"/>
	</g>
	<g>
		<circle class="st2" cx="36.7" cy="19.1" r="0.5"/>
	</g>
	<g>
		<circle class="st2" cx="23.1" cy="22.4" r="0.5"/>
	</g>
	<g>
		<circle class="st2" cx="22.3" cy="20.6" r="0.5"/>
	</g>
	<g>
		<circle class="st2" cx="15.8" cy="25.9" r="0.5"/>
	</g>
	<g>
		<circle class="st2" cx="14.6" cy="23.7" r="0.5"/>
	</g>
	<g>
		<circle class="st2" cx="18.6" cy="19" r="0.5"/>
	</g>
	<g>
		<circle class="st2" cx="16.6" cy="21.2" r="0.5"/>
	</g>
	<g>
		<circle class="st2" cx="15.3" cy="17.8" r="0.5"/>
	</g>
	<g>
		<circle class="st2" cx="18" cy="24.6" r="0.5"/>
	</g>
	<g>
		<circle class="st2" cx="17.2" cy="22.9" r="0.5"/>
	</g>
	<g>
		<circle class="st2" cx="19.2" cy="21.8" r="0.5"/>
	</g>
	<g>
		<circle class="st2" cx="32.7" cy="29.1" r="0.5"/>
	</g>
	<g>
		<circle class="st2" cx="34.4" cy="28.5" r="0.5"/>
	</g>
	<g>
		<circle class="st2" cx="33.6" cy="25.9" r="0.5"/>
	</g>
	<g>
		<circle class="st2" cx="30.3" cy="28.1" r="0.5"/>
	</g>
	<g>
		<circle class="st2" cx="20.9" cy="25" r="0.5"/>
	</g>
	<g>
		<circle class="st2" cx="28.6" cy="27.4" r="0.5"/>
	</g>
	<g>
		<circle class="st2" cx="31.4" cy="31.7" r="0.5"/>
	</g>
	<g>
		<circle class="st2" cx="30.5" cy="30.3" r="0.5"/>
	</g>
	<g>
		<circle class="st2" cx="31.9" cy="26.9" r="0.5"/>
	</g>
	<g>
		<circle class="st2" cx="27.4" cy="22.9" r="0.5"/>
	</g>
	<g>
		<circle class="st2" cx="32.9" cy="33.3" r="0.5"/>
	</g>
	<g>
		<circle class="st2" cx="33.3" cy="31" r="0.5"/>
	</g>
	<g>
		<circle class="st2" cx="44.2" cy="28.6" r="0.5"/>
	</g>
	<g>
		<circle class="st2" cx="43.8" cy="26.8" r="0.5"/>
	</g>
	<g>
		<circle class="st2" cx="35.8" cy="31.9" r="0.5"/>
	</g>
	<g>
		<circle class="st2" cx="35" cy="30.2" r="0.5"/>
	</g>
	<g>
		<circle class="st2" cx="37.7" cy="27.4" r="0.5"/>
	</g>
	<g>
		<circle class="st2" cx="36.4" cy="24" r="0.5"/>
	</g>
	<g>
		<circle class="st2" cx="39.1" cy="30.8" r="0.5"/>
	</g>
	<g>
		<circle class="st2" cx="38.3" cy="29.1" r="0.5"/>
	</g>
	<g>
		<circle class="st2" cx="40.3" cy="28.3" r="0.5"/>
	</g>
	<g>
		<circle class="st2" cx="29.1" cy="17.2" r="0.5"/>
	</g>
	<g>
		<circle class="st2" cx="30.5" cy="13.9" r="0.5"/>
	</g>
	<g>
		<circle class="st2" cx="34.1" cy="18.7" r="0.5"/>
	</g>
	<g>
		<circle class="st2" cx="24.1" cy="19.2" r="0.5"/>
	</g>
	<g>
		<circle class="st2" cx="23.8" cy="16.4" r="0.5"/>
	</g>
	<g>
		<circle class="st2" cx="25.5" cy="21.9" r="0.5"/>
	</g>
	<g>
		<circle class="st2" cx="26.6" cy="18.2" r="0.5"/>
	</g>
	<g>
		<circle class="st2" cx="38" cy="23.7" r="0.5"/>
	</g>
	<g>
		<circle class="st2" cx="27.7" cy="20.6" r="0.5"/>
	</g>
	<g>
		<circle class="st2" cx="32.2" cy="18.7" r="0.5"/>
	</g>
	<g>
		<circle class="st2" cx="33.6" cy="15.4" r="0.5"/>
	</g>
	<g>
		<circle class="st2" cx="31.5" cy="20.3" r="0.5"/>
	</g>
	<g>
		<circle class="st2" cx="33.6" cy="20.9" r="0.5"/>
	</g>
	<g>
		<circle class="st2" cx="18.8" cy="32.9" r="0.5"/>
	</g>
	<g>
		<circle class="st2" cx="21.9" cy="30.4" r="0.5"/>
	</g>
	<g>
		<circle class="st2" cx="12.5" cy="35.8" r="0.5"/>
	</g>
	<g>
		<circle class="st2" cx="16.1" cy="33.9" r="0.5"/>
	</g>
	<g>
		<circle class="st2" cx="17.4" cy="36.5" r="0.5"/>
	</g>
	<g>
		<circle class="st2" cx="18" cy="34.7" r="0.5"/>
	</g>
	<g>
		<circle class="st2" cx="28.5" cy="29.6" r="0.5"/>
	</g>
	<g>
		<circle class="st2" cx="22.4" cy="32.9" r="0.5"/>
	</g>
	<g>
		<circle class="st2" cx="16.9" cy="31.9" r="0.5"/>
	</g>
	<g>
		<circle class="st2" cx="35.7" cy="26.2" r="0.5"/>
	</g>
	<g>
		<circle class="st2" cx="19.1" cy="37.1" r="0.5"/>
	</g>
	<g>
		<circle class="st2" cx="19.7" cy="35.3" r="0.5"/>
	</g>
	<g>
		<circle class="st2" cx="23.6" cy="35.2" r="0.5"/>
	</g>
	<g>
		<circle class="st2" cx="22.2" cy="38.6" r="0.5"/>
	</g>
	<g>
		<circle class="st2" cx="22.9" cy="36.8" r="0.5"/>
	</g>
	<g>
		<circle class="st2" cx="29.8" cy="34.7" r="0.5"/>
	</g>
	<g>
		<path class="st3" d="M19.9,15.7"/>
	</g>
	<path class="st2" d="M41.3,24.2c-0.1,0-0.2,0-0.3,0L40.1,22c0.5-0.3,0.8-0.9,0.8-1.5c0-1-0.8-1.7-1.8-1.7c-0.1,0-0.2,0-0.2,0
		l-0.6-1.6c0.5-0.3,0.8-0.9,0.8-1.5c0-1-0.8-1.7-1.8-1.7c-1,0-1.7,0.8-1.7,1.8s0.8,1.7,1.8,1.7c0.2,0,0.3,0,0.5-0.1l0.6,1.5
		c-0.5,0.3-0.9,0.8-1,1.4l-4.9,1.9c-0.3-0.3-0.7-0.5-1.2-0.5c-0.1,0-0.3,0-0.4,0.1l-1-2.8c0.5-0.3,0.9-0.9,0.9-1.5
		c0-1-0.8-1.7-1.8-1.7c-1,0-1.7,0.8-1.7,1.8s0.8,1.7,1.8,1.7c0.1,0,0.3,0,0.4-0.1l1,2.8c-0.5,0.3-0.8,0.8-0.9,1.4l-4.4,1.8
		c-0.3-0.3-0.7-0.5-1.2-0.5c-0.1,0-0.2,0-0.3,0l-0.6-1.5c0.5-0.3,0.8-0.9,0.8-1.5c0-1-0.8-1.7-1.8-1.7c-0.1,0-0.2,0-0.3,0l-1-2.5
		c0.5-0.3,0.9-0.9,0.9-1.5c0-1-0.8-1.7-1.8-1.7c-1,0-1.7,0.8-1.7,1.8c0,1,0.8,1.7,1.8,1.7c0.1,0,0.3,0,0.4-0.1l1,2.4
		c-0.6,0.3-1,0.9-1,1.6c0,1,0.8,1.7,1.8,1.7c0.2,0,0.4,0,0.5-0.1l0.6,1.5c-0.5,0.3-0.9,0.8-0.9,1.4l-2.7,1.1
		c-0.3-0.4-0.8-0.6-1.3-0.6c-1,0-1.7,0.8-1.7,1.8c0,0,0,0,0,0.1l-3.4,1.3c-0.3-0.3-0.7-0.5-1.2-0.5c-0.9,0-1.7,0.7-1.7,1.6l-2.7,1.1
		C7,32.5,6.8,33,7,33.4C7.1,33.8,7.4,34,7.8,34c0.1,0,0.2,0,0.3-0.1l2.9-1.1c0.3,0.2,0.6,0.3,1,0.3c0.2,0,0.3,0,0.4-0.1l1.3,3
		c-0.5,0.3-0.8,0.9-0.8,1.5c0,1,0.8,1.7,1.8,1.7s1.7-0.8,1.7-1.8s-0.8-1.7-1.8-1.7c-0.2,0-0.3,0-0.4,0.1l-1.3-3
		c0.4-0.3,0.7-0.7,0.8-1.1l3.8-1.5c0.3,0.1,0.5,0.2,0.9,0.2c0.1,0,0.2,0,0.3,0l2.3,5.6c-0.5,0.3-0.8,0.9-0.8,1.5
		c0,1,0.8,1.7,1.8,1.7c1,0,1.7-0.8,1.7-1.8s-0.8-1.7-1.8-1.7c-0.2,0-0.3,0-0.5,0.1L19,30.2c0.4-0.2,0.7-0.6,0.9-1L23,28
		c0.3,0.2,0.6,0.3,1,0.3c0.2,0,0.3,0,0.5-0.1l1.3,3.2c-0.4,0.3-0.6,0.8-0.6,1.3c0,1,0.8,1.7,1.8,1.7s1.7-0.8,1.7-1.8
		c0-1-0.8-1.7-1.8-1.7c-0.2,0-0.5,0.1-0.7,0.1L25,28c0.4-0.3,0.7-0.7,0.8-1.2l4.7-1.9c0.3,0.2,0.6,0.3,1,0.3c0.8,0,1.5-0.6,1.7-1.4
		l5-2c0.3,0.2,0.7,0.4,1.1,0.4c0.2,0,0.3,0,0.4-0.1l0.8,2.1c-0.6,0.3-0.9,0.9-0.9,1.5c0,1,0.8,1.7,1.8,1.7s1.7-0.8,1.7-1.8
		S42.2,24.1,41.3,24.2z"/>
</g>
</svg>
