<svg xmlns="http://www.w3.org/2000/svg" viewBox="0 0 50 50"><path fill="#C3FF68" d="M49 5.8L2 31.2l-.2-26 7.4.6 29.2-.6z" class="st0"/><path fill="#AFE55D" d="M49.1 26.7L2 43.8l.1-19.5L43.4 5.5l5.6.3z" class="st1"/><path fill="#031326" d="M22.8 46h-21c-.7 0-1.2-.6-1.2-1.2V5.2C.5 4.5 1.1 4 1.8 4h46.5c.7 0 1.2.6 1.2 1.2s-.6 1.2-1.2 1.2H3v37.1h19.8c.7 0 1.2.6 1.2 1.2s-.5 1.3-1.2 1.3z" class="st2"/><circle cx="11.6" cy="22.9" r=".5" fill="#031326" class="st2"/><circle cx="13.3" cy="22.3" r=".5" fill="#031326" class="st2"/><circle cx="14.2" cy="20.4" r=".5" fill="#031326" class="st2"/><circle cx="12" cy="19" r=".5" fill="#031326" class="st2"/><circle cx="9.6" cy="29.3" r=".5" fill="#031326" class="st2"/><circle cx="11.1" cy="27.2" r=".5" fill="#031326" class="st2"/><circle cx="10.3" cy="25.5" r=".5" fill="#031326" class="st2"/><circle cx="14" cy="27" r=".5" fill="#031326" class="st2"/><circle cx="12.5" cy="24.8" r=".5" fill="#031326" class="st2"/><circle cx="36.7" cy="19.1" r=".5" fill="#031326" class="st2"/><circle cx="23.1" cy="22.4" r=".5" fill="#031326" class="st2"/><circle cx="22.3" cy="20.6" r=".5" fill="#031326" class="st2"/><circle cx="15.8" cy="25.9" r=".5" fill="#031326" class="st2"/><circle cx="14.6" cy="23.7" r=".5" fill="#031326" class="st2"/><circle cx="18.6" cy="19" r=".5" fill="#031326" class="st2"/><circle cx="16.6" cy="21.2" r=".5" fill="#031326" class="st2"/><circle cx="15.3" cy="17.8" r=".5" fill="#031326" class="st2"/><circle cx="18" cy="24.6" r=".5" fill="#031326" class="st2"/><circle cx="17.2" cy="22.9" r=".5" fill="#031326" class="st2"/><circle cx="19.2" cy="21.8" r=".5" fill="#031326" class="st2"/><circle cx="32.7" cy="29.1" r=".5" fill="#031326" class="st2"/><circle cx="34.4" cy="28.5" r=".5" fill="#031326" class="st2"/><circle cx="33.6" cy="25.9" r=".5" fill="#031326" class="st2"/><circle cx="30.3" cy="28.1" r=".5" fill="#031326" class="st2"/><circle cx="20.9" cy="25" r=".5" fill="#031326" class="st2"/><circle cx="28.6" cy="27.4" r=".5" fill="#031326" class="st2"/><circle cx="31.4" cy="31.7" r=".5" fill="#031326" class="st2"/><circle cx="30.5" cy="30.3" r=".5" fill="#031326" class="st2"/><circle cx="31.9" cy="26.9" r=".5" fill="#031326" class="st2"/><circle cx="27.4" cy="22.9" r=".5" fill="#031326" class="st2"/><circle cx="32.9" cy="33.3" r=".5" fill="#031326" class="st2"/><circle cx="33.3" cy="31" r=".5" fill="#031326" class="st2"/><circle cx="44.2" cy="28.6" r=".5" fill="#031326" class="st2"/><circle cx="43.8" cy="26.8" r=".5" fill="#031326" class="st2"/><circle cx="35.8" cy="31.9" r=".5" fill="#031326" class="st2"/><circle cx="35" cy="30.2" r=".5" fill="#031326" class="st2"/><circle cx="37.7" cy="27.4" r=".5" fill="#031326" class="st2"/><circle cx="36.4" cy="24" r=".5" fill="#031326" class="st2"/><circle cx="39.1" cy="30.8" r=".5" fill="#031326" class="st2"/><circle cx="38.3" cy="29.1" r=".5" fill="#031326" class="st2"/><circle cx="40.3" cy="28.3" r=".5" fill="#031326" class="st2"/><circle cx="29.1" cy="17.2" r=".5" fill="#031326" class="st2"/><circle cx="30.5" cy="13.9" r=".5" fill="#031326" class="st2"/><circle cx="34.1" cy="18.7" r=".5" fill="#031326" class="st2"/><circle cx="24.1" cy="19.2" r=".5" fill="#031326" class="st2"/><circle cx="23.8" cy="16.4" r=".5" fill="#031326" class="st2"/><circle cx="25.5" cy="21.9" r=".5" fill="#031326" class="st2"/><circle cx="26.6" cy="18.2" r=".5" fill="#031326" class="st2"/><circle cx="38" cy="23.7" r=".5" fill="#031326" class="st2"/><circle cx="27.7" cy="20.6" r=".5" fill="#031326" class="st2"/><circle cx="32.2" cy="18.7" r=".5" fill="#031326" class="st2"/><circle cx="33.6" cy="15.4" r=".5" fill="#031326" class="st2"/><circle cx="31.5" cy="20.3" r=".5" fill="#031326" class="st2"/><circle cx="33.6" cy="20.9" r=".5" fill="#031326" class="st2"/><circle cx="18.8" cy="32.9" r=".5" fill="#031326" class="st2"/><circle cx="21.9" cy="30.4" r=".5" fill="#031326" class="st2"/><circle cx="12.5" cy="35.8" r=".5" fill="#031326" class="st2"/><circle cx="16.1" cy="33.9" r=".5" fill="#031326" class="st2"/><circle cx="17.4" cy="36.5" r=".5" fill="#031326" class="st2"/><circle cx="18" cy="34.7" r=".5" fill="#031326" class="st2"/><circle cx="28.5" cy="29.6" r=".5" fill="#031326" class="st2"/><circle cx="22.4" cy="32.9" r=".5" fill="#031326" class="st2"/><circle cx="16.9" cy="31.9" r=".5" fill="#031326" class="st2"/><circle cx="35.7" cy="26.2" r=".5" fill="#031326" class="st2"/><circle cx="19.1" cy="37.1" r=".5" fill="#031326" class="st2"/><circle cx="19.7" cy="35.3" r=".5" fill="#031326" class="st2"/><circle cx="23.6" cy="35.2" r=".5" fill="#031326" class="st2"/><circle cx="22.2" cy="38.6" r=".5" fill="#031326" class="st2"/><circle cx="22.9" cy="36.8" r=".5" fill="#031326" class="st2"/><circle cx="29.8" cy="34.7" r=".5" fill="#031326" class="st2"/><path fill="#031326" d="M41.3 24.2H41l-.9-2.2c.5-.3.8-.9.8-1.5 0-1-.8-1.7-1.8-1.7h-.2l-.6-1.6c.5-.3.8-.9.8-1.5 0-1-.8-1.7-1.8-1.7s-1.7.8-1.7 1.8.8 1.7 1.8 1.7c.2 0 .3 0 .5-.1l.6 1.5c-.5.3-.9.8-1 1.4l-4.9 1.9c-.3-.3-.7-.5-1.2-.5-.1 0-.3 0-.4.1L30 19c.5-.3.9-.9.9-1.5 0-1-.8-1.7-1.8-1.7s-1.7.8-1.7 1.8.8 1.7 1.8 1.7c.1 0 .3 0 .4-.1l1 2.8c-.5.3-.8.8-.9 1.4l-4.4 1.8c-.3-.3-.7-.5-1.2-.5h-.3l-.6-1.5c.5-.3.8-.9.8-1.5 0-1-.8-1.7-1.8-1.7h-.3l-1-2.5c.5-.3.9-.9.9-1.5 0-1-.8-1.7-1.8-1.7s-1.7.8-1.7 1.8.8 1.7 1.8 1.7c.1 0 .3 0 .4-.1l1 2.4c-.6.3-1 .9-1 1.6 0 1 .8 1.7 1.8 1.7.2 0 .4 0 .5-.1l.6 1.5c-.5.3-.9.8-.9 1.4l-2.7 1.1c-.3-.4-.8-.6-1.3-.6-1 0-1.7.8-1.7 1.8v.1l-3.4 1.3c-.3-.3-.7-.5-1.2-.5-.9 0-1.7.7-1.7 1.6l-2.7 1.1c-.8.4-1 .9-.8 1.3.1.4.4.6.8.6.1 0 .2 0 .3-.1l2.9-1.1c.3.2.6.3 1 .3.2 0 .3 0 .4-.1l1.3 3c-.5.3-.8.9-.8 1.5 0 1 .8 1.7 1.8 1.7s1.7-.8 1.7-1.8-.8-1.7-1.8-1.7c-.2 0-.3 0-.4.1l-1.3-3c.4-.3.7-.7.8-1.1l3.8-1.5c.3.1.5.2.9.2h.3L21 36c-.5.3-.8.9-.8 1.5 0 1 .8 1.7 1.8 1.7s1.7-.8 1.7-1.8-.8-1.7-1.8-1.7c-.2 0-.3 0-.5.1L19 30.2c.4-.2.7-.6.9-1L23 28c.3.2.6.3 1 .3.2 0 .3 0 .5-.1l1.3 3.2c-.4.3-.6.8-.6 1.3 0 1 .8 1.7 1.8 1.7s1.7-.8 1.7-1.8-.8-1.7-1.8-1.7c-.2 0-.5.1-.7.1L25 28c.4-.3.7-.7.8-1.2l4.7-1.9c.3.2.6.3 1 .3.8 0 1.5-.6 1.7-1.4l5-2c.3.2.7.4 1.1.4.2 0 .3 0 .4-.1l.8 2.1c-.6.3-.9.9-.9 1.5 0 1 .8 1.7 1.8 1.7s1.7-.8 1.7-1.8-.9-1.5-1.8-1.4z" class="st2"/></svg>