<?xml version="1.0" encoding="utf-8"?>
<!-- Generator: Adobe Illustrator 27.9.0, SVG Export Plug-In . SVG Version: 6.00 Build 0)  -->
<svg version="1.1" id="Camada_1" xmlns="http://www.w3.org/2000/svg" xmlns:xlink="http://www.w3.org/1999/xlink" x="0px" y="0px"
	 viewBox="0 0 49 50" style="enable-background:new 0 0 49 50;" xml:space="preserve">
<style type="text/css">
	.st0{fill:#E589EF;}
	.st1{fill:none;stroke:#444444;stroke-width:2.5;stroke-linecap:round;stroke-linejoin:round;stroke-miterlimit:10;}
	.st2{fill:none;stroke:#444444;stroke-width:0.5;stroke-linecap:round;stroke-linejoin:round;stroke-miterlimit:10;}
	.st3{fill:none;stroke:#444444;stroke-linecap:round;stroke-linejoin:round;stroke-miterlimit:10;}
</style>
<g>
	<path class="st0" d="M40.6,29.4l1.5-5.2L29.2,4.4l-4-3c-3.4,0-14,19.6-16.7,22.9l1,5.2l-4.5,4.6c-0.3,1,1.3,9.9,2.3,10.3l3,1.4
		c1.3,0.6,2.7,0.6,4,0.2l30.9-11C44.6,33.7,41.6,31.5,40.6,29.4z"/>
	<g>
		<g>
			<path class="st1" d="M44.5,35.2c0-0.7-0.3-1.4-0.8-1.8l-2.7-2.5c-1.1-1-1.1-2.8,0.1-3.8l0,0c1-0.8,1.2-2.3,0.5-3.4L27.6,2.9
				c-1.1-1.7-3.6-1.7-4.7,0L9.2,23.2c-0.6,0.9-0.6,2.1,0.1,2.9l0.6,0.8c0.8,1,0.6,2.5-0.3,3.3l-3.4,3.1c-0.5,0.5-0.8,1.1-0.8,1.8
				v5.5c0,1.8,1.2,3.3,2.9,3.8l16.4,4.1c0.6,0.2,1.3,0.2,2,0l8.9-2.4"/>
			<path class="st2" d="M15.9,30.3l-2.5,2.3c-1.3,1.2-2,2.9-2,4.7v0"/>
			<circle class="st3" cx="11.3" cy="40" r="2.4"/>
			<circle class="st3" cx="18.4" cy="38.3" r="2.4"/>
			<circle class="st3" cx="31.7" cy="38.3" r="2.4"/>
			<circle class="st3" cx="25.5" cy="43.2" r="2.4"/>
			<path class="st2" d="M34.1,30.4l2.5,2.3c1.3,1.2,2,2.9,2,4.7v0"/>
			<circle class="st3" cx="38.6" cy="40.1" r="2.4"/>
			<line class="st2" x1="25.5" y1="32.7" x2="25.5" y2="40.7"/>
			<path class="st3" d="M24.5,5.9L18,15.4l7.4,2.5l7.1-2.5l-6.5-9.5C25.6,5.4,24.8,5.4,24.5,5.9z"/>
			<line class="st3" x1="25.2" y1="17.6" x2="25.2" y2="6.3"/>
			<path class="st3" d="M20.6,17.6l-3,1.7l-4.5,6.8c-0.2,0.3,0,0.6,0.2,0.7l11.6,3.6c0.1,0,0.2,0,0.3,0l12.2-4.2
				c0.3-0.1,0.4-0.4,0.2-0.7L33,18.6l-2.6-1.1"/>
			<polyline class="st3" points="17.7,19.3 25.1,21.5 32.9,18.6 			"/>
			<line class="st3" x1="25.1" y1="30.5" x2="25.1" y2="21.5"/>
		</g>
		<path class="st2" d="M19.1,35.8c0,0-0.1-2.5,1.6-3.9"/>
		<path class="st2" d="M31.9,35.8c0,0,0.1-2.5-1.6-3.9"/>
	</g>
</g>
</svg>
