<svg version="1" xmlns="http://www.w3.org/2000/svg" viewBox="0 0 50 50"><path fill="#F56991" d="M45.777 29.202V4.056a2.665 2.665 0 0 0-2.665-2.665H6.888a2.665 2.665 0 0 0-2.665 2.666v40.27l41.554-15.124z"/><path fill="#DC5E82" d="M44.665 1.898a2.642 2.642 0 0 0-1.553-.507H6.888a2.665 2.665 0 0 0-2.665 2.666v12.56L44.665 1.9z"/><path fill="#444" d="M40.117 49.77H6.887a3.83 3.83 0 0 1-3.824-3.825V4.055A3.83 3.83 0 0 1 6.888.232h36.225a3.83 3.83 0 0 1 3.825 3.826V37.54a1.16 1.16 0 0 1-2.32 0V4.056c0-.83-.675-1.505-1.505-1.505H6.888c-.83 0-1.505.676-1.505 1.506v41.89c0 .828.675 1.504 1.505 1.504h33.23a1.16 1.16 0 1 1 0 2.32z"/><path fill="#444" d="M33.152 44.227H12.548a3.598 3.598 0 0 1-3.594-3.593v-30.57a3.598 3.598 0 0 1 3.594-3.592h24.905a3.597 3.597 0 0 1 3.593 3.593v21.037a.928.928 0 0 1-1.856 0V10.065a1.74 1.74 0 0 0-1.737-1.737H12.548a1.74 1.74 0 0 0-1.737 1.737v30.57c0 .956.78 1.736 1.738 1.736h20.605a.927.927 0 0 1 0 1.857z"/><path fill="#444" d="M12.93 41.357a.927.927 0 0 1-.684-1.555l5.277-5.777a.93.93 0 1 1 1.37 1.253l-5.277 5.777a.927.927 0 0 1-.686.302zm7.44-3.409a.93.93 0 0 1-.684-1.555l2.162-2.365a.93.93 0 0 1 1.37 1.253l-2.16 2.365a.93.93 0 0 1-.687.302zm-4.325-4.735a.927.927 0 0 1-.684-1.555l2.162-2.365a.93.93 0 0 1 1.37 1.253l-2.16 2.365a.93.93 0 0 1-.687.303zM32.07 16.67a.928.928 0 0 1-.684-1.554l4.998-5.472a.928.928 0 1 1 1.37 1.252l-5 5.473a.927.927 0 0 1-.685.3zm0 4.734a.928.928 0 0 1-.684-1.554l2.162-2.364a.928.928 0 1 1 1.37 1.252l-2.16 2.365a.927.927 0 0 1-.687.302zm-4.325-4.734a.928.928 0 0 1-.684-1.554l2.16-2.366a.927.927 0 1 1 1.372 1.252l-2.16 2.365a.927.927 0 0 1-.687.302z"/></svg>