<svg xmlns="http://www.w3.org/2000/svg" version="1" viewBox="0 0 50 50"><path fill="#FDCF72" d="M48.314 25.1l.063-.195V4.74a3.117 3.117 0 0 0-3.117-3.117H4.74A3.118 3.118 0 0 0 1.623 4.74v37.356L48.313 25.1z"/><path fill="#FFDB92" d="M47.722 2.85a3.102 3.102 0 0 0-2.462-1.227H4.74A3.118 3.118 0 0 0 1.623 4.74v14.887l46.1-16.778z"/><path fill="#444" d="M40.85 49.5H4.74A4.245 4.245 0 0 1 .5 45.26V4.74A4.245 4.245 0 0 1 4.74.5h40.52a4.246 4.246 0 0 1 4.24 4.24v20.166a1.123 1.123 0 0 1-2.245 0V4.74c0-1.1-.895-1.994-1.995-1.994H4.74c-1.1 0-1.994.894-1.994 1.994v40.52c0 1.1.894 1.994 1.994 1.994h36.11a1.123 1.123 0 0 1 0 2.246z"/><path fill="#444" d="M16.864 42.623H9.758a1.186 1.186 0 0 1-1.184-1.185v-7.43c0-.653.53-1.184 1.184-1.184h7.107c.653 0 1.184.532 1.184 1.184v7.43a1.189 1.189 0 0 1-1.186 1.185zm-6.494-1.797h5.882V34.62H10.37v6.206zm13.824-10.189c-.24 0-.474-.073-.675-.213l-3.27-2.27a1.19 1.19 0 0 1-.28-1.67l4.13-5.68-6.62-2.13a1.188 1.188 0 0 1-.753-1.528L18 13.62a1.182 1.182 0 0 1 1.517-.712l6.458 2.333V8.56c0-.652.532-1.184 1.184-1.184h3.69c.654 0 1.185.532 1.185 1.185v6.62l6.556-2.254a1.187 1.187 0 0 1 1.5.72l1.262 3.508a1.182 1.182 0 0 1-.747 1.527l-6.554 2.134 4.07 5.678c.186.257.26.572.207.884a1.177 1.177 0 0 1-.48.77l-3.162 2.263a1.187 1.187 0 0 1-1.677-.31l-3.884-5.83-3.95 5.844c-.18.266-.453.443-.767.5a.94.94 0 0 1-.213.023zm10.313-1.53h-.001zm-9.963-.16l.002.003-.002-.002zm-2.754-1.91l2.247 1.56 4.114-6.085a1.18 1.18 0 0 1 .982-.52h.004c.397 0 .764.198.983.528l4.04 6.062 2.15-1.54-4.202-5.86a1.188 1.188 0 0 1-.163-1.06 1.19 1.19 0 0 1 .76-.756l6.75-2.196-.846-2.347-6.797 2.337a1.186 1.186 0 0 1-1.57-1.12V9.173h-2.47v6.94a1.186 1.186 0 0 1-1.586 1.114l-6.704-2.422-.848 2.35 6.823 2.198a1.184 1.184 0 0 1 .593 1.825l-4.26 5.856zm7.85-3.522zm-1.017 0zm11.042-5.752c0 .002 0 .003.002.004l-.002-.004zm-1.262-3.508v.002-.002z"/></svg>