<svg xmlns="http://www.w3.org/2000/svg" id="Camada_1" data-name="Camada 1" viewBox="0 0 300 300"><defs><style>.cls-2{fill:#ffda00}.cls-3{fill:#722e17}.cls-7{fill:none;stroke:#fff;stroke-linecap:round;stroke-linejoin:round}.cls-10{fill:#145616}.cls-15{fill:#f96464}</style></defs><circle cx="140" cy="150" r="140" fill="#008dd3"/><path d="M45.63 148.61l-34.2 22.9s53.34 40.95 60.92 47.7c7.58 6.75 19.97 17.52 23.13 16.08 3.16-1.45 17.52-22.53 6.48-39.52-11.04-16.99-56.33-47.15-56.33-47.15z" class="cls-10"/><path d="M46.9 160.15s-33.13 20.43-39.37 21.97c0 0 30.73 14.47 39.37 23.37 8.64 8.9 40.01 35.32 48.58 29.79 0 0 10-21.83-48.58-75.14z" class="cls-10"/><path d="M18.42 176.89s30.41 20.05 36.17 25.42c5.76 5.36 20 18.89 20 18.89" class="cls-7"/><path d="M79.42 122.85l-64.57 24.81s41.49 41.87 53.42 56.12c11.92 14.25 25.7 23.85 27.22 31.51l44.99-26.52-61.05-85.93z" class="cls-10"/><path fill="#f4f4f4" d="M85.83 217.76c10.42 10.59 10.72 15.32 9.65 17.53 0 0 31.62-14.53 43.6-19.22 5.61-2.2 34.31-13.57 63.53-25.23 23.2-9.26 46.72-18.69 59.22-23.85 5.32-2.19 8.66-3.62 9.12-3.92 2.94-1.9.59-4.75-7.15-13.86-7.72-9.1-55.23-66.39-60.56-73.88 0 0-110.08 37.19-124.72 45.07-14.65 7.88-58.77 21.17-58.77 21.17s55.67 65.58 66.08 76.18z"/><path fill="#54c654" d="M178.48 162.59s11.05 13.01 24.13 28.26c23.2-9.26 46.72-18.69 59.22-23.85-11.03-13.43-20.68-25.34-22.92-28.48l-60.42 24.07z"/><path d="M157.42 197.24l-49.9 20.6 3.21 4.76 49.9-20.6-3.21-4.76z" class="cls-2"/><path d="M182.46 180.81l-78.15 32.27 3.21 4.76 78.15-32.27-3.21-4.76z" class="cls-2"/><path d="M144.84 182.12l-50.17 20.19 3.15 4.79 50.17-20.19-3.15-4.79z" class="cls-15"/><path d="M170.1 165.9l-78.58 31.63 3.15 4.78 78.59-31.62-3.16-4.79z" class="cls-15"/><path d="M27.64 160.66s48.97 51.13 57.33 60.53" class="cls-7"/><path fill="none" stroke="#444" stroke-miterlimit="10" d="M198.31 97.01l-147.5 55.14m179.9-22.68L75.33 188.01"/><path fill="#ffd200" d="M234.64 108.94c-1.81-15.13 8.38-18.75 13.41-20.07 12.52-3.28 17.86 1.41 22.99 10.73 4.1 7.46 10.88 24.81 11.58 26.96 4.49 13.95-17.49 19.71-17.49 19.71s-24.01 8.58-26.07-5.78c-.32-2.25-3.41-23.1-4.42-31.55z"/><path d="M267.75 160.15l-29.65 13.38 33.71.94 28.19-18.5-32.25 4.18z" class="cls-3"/><path fill="#cc2b2b" d="M291.08 124.54l-32.25 4.17-29.64 13.38 8.91 31.44 29.65-13.38 32.25-4.18-8.92-31.43z"/><path fill="#8c3c1b" d="M281.56 211.72c4.25-1.36 7.34-3.88 7.46-5.95.01-.22-.01-.44-.07-.65l-8.81-41.23c-.72-2.61-5.99-3.26-11.69-1.44-5.69 1.83-9.6 5.41-8.68 7.96l11.94 40.23c.75 2.11 5.13 2.59 9.84 1.09z"/><path d="M281.56 211.72c4.25-1.36 7.34-3.88 7.46-5.95.01-.22-.01-.44-.07-.65-1.94-6.96-17.81-.84-17.23 5.51.75 2.11 5.13 2.59 9.84 1.09z" class="cls-3"/><path fill="#ef3030" d="M258.83 128.71l32.25-4.17 8.92 31.43-32.25 4.18-8.92-31.44z"/><path d="M77.4 178.35c-1.5-.26-2.86-.94-4.06-2.03-1.2-1.09-2.15-2.52-2.84-4.28l4.8-1.89c.55 1.39 1.28 2.39 2.22 3 .93.61 1.88.73 2.85.35l2.72-1.07c.97-.38 1.58-1.13 1.83-2.25s.1-2.4-.47-3.83l-6.25-15.89 4.87-1.92 6.33 16.1c.69 1.77.97 3.45.84 5.05-.13 1.6-.65 3.01-1.56 4.22-.91 1.22-2.14 2.13-3.69 2.74l-2.93 1.15c-1.6.63-3.15.81-4.66.54zm22.92-9.09c-1.73-.23-3.28-.9-4.62-2.01-1.35-1.11-2.39-2.61-3.13-4.5l-2.5-6.36c-.74-1.88-1-3.69-.77-5.43.23-1.73.9-3.27 2.01-4.63 1.11-1.35 2.6-2.39 4.46-3.12l3.74-1.47c1.86-.73 3.66-.98 5.39-.75 1.73.23 3.27.9 4.62 2.02 1.35 1.11 2.39 2.61 3.13 4.5l2.5 6.36c.74 1.88 1 3.69.77 5.43-.23 1.74-.9 3.28-2.01 4.62-1.12 1.35-2.6 2.39-4.46 3.12l-3.74 1.47c-1.86.73-3.66.98-5.39.75zm7.44-6.54c1.37-.54 2.27-1.46 2.72-2.78.45-1.32.36-2.78-.27-4.38l-2.33-5.93c-.63-1.6-1.56-2.73-2.78-3.39-1.22-.66-2.52-.72-3.88-.19l-3.74 1.47c-1.37.54-2.27 1.46-2.72 2.78s-.36 2.78.27 4.38l2.33 5.93c.63 1.6 1.55 2.73 2.78 3.39s2.52.72 3.88.18l3.74-1.47zm4.97-25.84l13.14-5.16c2.14-.84 4.09-.94 5.85-.3 1.76.64 3.01 1.9 3.75 3.78l.97 2.47c.48 1.22.55 2.43.22 3.6-.34 1.18-1.07 2.26-2.21 3.25l.03.07c.95.2 1.74.54 2.38 1.02.64.48 1.37 1.22 2.19 2.2l4.45 5.51-5.05 1.99-4.18-5.13c-.71-.89-1.42-1.48-2.16-1.76-.74-.28-1.5-.27-2.31.05l-5.97 2.34 3.48 8.86-4.87 1.92-9.72-24.72zm16.8 6.85c.99-.39 1.66-.96 2.02-1.71.35-.75.37-1.55.03-2.4l-.9-2.29c-.27-.68-.69-1.15-1.28-1.39-.58-.24-1.23-.23-1.94.05l-8.19 3.22 2.91 7.42 7.35-2.89zm7.14-16.26l4.34-1.71 18.47 12.14-6.61-16.81 4.77-1.87 9.72 24.72-4.34 1.71-18.47-12.14 6.61 16.81-4.77 1.87-9.72-24.72zm47.29 3.31l-9.25 3.64.08 6.62-5.09 2-.04-28.52 2.19-.86c1.53-.6 2.84-.3 3.94.9l17.68 19.14-5.08 2-4.42-4.91zm-9.56-.98l6.64-2.61-6.78-7.61h-.03l.18 10.22zm21.76 1.79c-.86-.35-1.48-1.03-1.87-2.02l-8.42-21.43 4.87-1.92 8.05 20.48 13.42-5.27 1.67 4.24-14.87 5.84c-1.04.41-1.99.43-2.85.08z" class="cls-10"/><path fill="none" stroke="#fff" stroke-linecap="round" stroke-linejoin="round" stroke-width="9.29" d="M125.55 114.66l74.19-28.52" opacity=".3"/><path fill="none" stroke="#fff" stroke-linecap="round" stroke-linejoin="round" stroke-width="7" d="M257.09 95.64s-14.22 2.35-15.35 12.59 2.72 18.59 2.72 18.59" opacity=".3"/></svg>