<svg xmlns="http://www.w3.org/2000/svg" viewBox="0 0 50 50"><defs><style>.cls-1{fill:none;stroke:#444;stroke-linecap:round;stroke-linejoin:round}</style></defs><g id="Layer_1"><path fill="#a475ef" d="M47.4 18.2l.5-11L46 3.4l-15.4.5c-3.2 0-27.8-3-27.8.2L1.1 24.7l1.2 23.5 13.6.6 31-11c.7-.4 1.5-17.6.5-19.6z"/><path fill="none" stroke="#444" stroke-linecap="round" stroke-linejoin="round" stroke-width="2.5" d="M32.5 48.7h-27c-1.9 0-3.4-1.6-3.4-3.5v-39c0-1.9 1.5-3.5 3.4-3.5h39c1.9 0 3.4 1.6 3.4 3.5v32.5"/><path d="M23.3 30.4c.2.7.3 1.3.3 2 0 3.9-3.3 6.9-7.1 6.8-1.6 0-3-.6-4.1-1.5L10.5 39c1.6 1.4 3.7 2.4 6 2.4 5.1.1 9.3-3.9 9.4-9 0-1.2-.2-2.3-.6-3.4l-2 1.3zM10.2 35c-.4-.9-.6-1.9-.6-2.9 0-3.9 3.3-6.9 7.1-6.8s2.6.5 3.6 1.1l1.8-1.5c-1.5-1.1-3.3-1.8-5.3-1.9-5.1-.1-9.3 3.9-9.4 9 0 1.6.3 3.1 1 4.5l1.8-1.5z" class="cls-1"/><circle cx="31.8" cy="18.4" r="3.5" class="cls-1"/><circle cx="40.5" cy="9.8" r="2.2" class="cls-1"/><path fill="none" stroke="#444" stroke-linecap="round" stroke-linejoin="round" stroke-width=".5" d="M34.6 15.6l4-4"/><path fill="none" stroke="#444" stroke-linecap="round" stroke-linejoin="round" stroke-width=".8" d="M24.5 24.6l4-4m-2.6 5.5L30 22"/></g></svg>