<svg xmlns="http://www.w3.org/2000/svg" id="Camada_2" data-name="Camada 2" version="1.1" viewBox="0 0 44.6 47.8"><defs><style>.cls-4,.cls-6{stroke-width:.5px;fill:none;stroke:#444;stroke-linecap:round;stroke-linejoin:round}.cls-6{stroke-width:2.5px}</style></defs><path fill="#8256d8" stroke-width="0" d="M24.5 21.1l7.6 2.4-6.5 4.6.1 7.9-6.4-4.8-7.5 2.6 2.6-7.5-4.8-6.4 7.9.1 4.6-6.5 2.4 7.6z"/><path fill="#a475ef" stroke-width="0" d="M43 20.2c-.1-.6-2.5.5-4.2-.9s-2-4.8-1.8-5.4l1.8-4-3.9-3.5-4.3 2.1c-.4-.1-4.6-2.2-4.8-2.5-.5-1.1-1.2-3.4-1.4-3.4-1.4 0-5.4.5-5.5 1.1-.2 1.1-.3 2.6-.6 2.6-1.4.5-4.5 1.8-4.7 1.7l-2.9-1.7c-2.9 0-5.4 3.8-2.4 7.3l-2.1 5.1-4.2.8 2 15.2c0 .3 4.1 5 4.3 5.2l5 2.7 28.8-10.5c.6-.3 1.5-7.7.7-12z"/><path d="M28.9 44.4c-6.2 2-13.2 1.1-18.8-3.1-5.5-4.2-8.3-10.6-8.2-17m41.3 1c-.1 4.1-1.5 8.3-4.1 11.8" class="cls-6"/><path d="M2.6 32.6c.3.6.8.9 1.2 1.5 1.1-.9 1.9-1.3 3.3-1.8 2.4-.9 4.5-.9 5.3-.9h.4c.5 0 1.1.1 1.6.2 2.3.3 4.7-.5 6.4-2 .2-.2.5-.4.7-.7 0 .3-.1.7-.2 1-.2.9-.4 1.7-.8 2.5 0 0-1.4 2.8-10.2 3.3-1.6 0-3.1.7-4.6 1.7.4.5.9.9 1.4 1.3 1-.7 2.1-1.1 3.3-1.2 3.6-.2 6.1-.8 7.9-1.4-.9 1-1.9 1.9-3.2 2.5-1.7.9-3.1 1.9-4.4 2.7.6.4 1.2.7 1.9 1 1-.7 2.2-1.4 3.4-2.1.1 0 .2-.1.3-.2-.4 1.1-.8 2.3-1 3.4.6.2 1.2.4 1.8.5.2-1 .5-2.1.9-3.2.7-1.9 1.6-3.4 2.2-4.2.2-.3.5-.6.7-1 .5-.8.9-1.6 1.3-2.5.2-.5.4-1.1.6-1.7.1.3.3.7.4 1 0 0 1.7 3.6.9 6.6-.1.5-.3.9-.6 1.3-.7 1.1-1.1 2.6-1.1 4.3h1.9c0-.7.1-1.5.3-2.1.3.6.8 1.3 1.5 1.9.8-.1 1.6-.3 2.4-.5-.6-.4-1.1-.9-1.5-1.3-.8-1-1.2-2-1-3 .3-1.1.3-2.2.3-3.2.7.6 1.4 1.1 2.2 1.6" class="cls-4"/><path d="M39.3 37.4c-.7-.8-1.4-1.5-2.1-2.2h.3c1.1.1 2.1.4 3 .7.4-.5.8-1.1 1.2-1.6-1.3-.5-2.6-.8-4-1-3.2-.4-5.5-1.2-7.1-1.9 3.7-.4 7.3-.5 11.6.3.3-.6.6-1.2.8-1.8-1-.2-1-.5-2-.6-3.2-.3-6.7-.3-10.6.2-1.8.2-3.6-.4-4.9-1.6-1.3-1.2-2.1-2.7-2.1-4.5h8.7c0-5.4-4.4-9.8-9.8-9.8s-9.8 4.4-9.8 9.8h9c-.1 1.8-.8 3.3-2.1 4.4-1.3 1.2-3.1 1.8-4.9 1.6-.5 0-1.1-.1-1.6-.2h-.5c-3-.2-5.9-.2-8.5 0-1.1.1-1.1-.2-2.1 0 .2.6 0 1.3.3 1.9" class="cls-4"/><path d="M29.4 36.2c-1.9-1.1-3.4-2.6-4.4-4.6-.3-.6-.5-1.1-.7-1.8v-.3s.1 0 .2.1c.4.4.9.7 1.4 1 .5.5 2.3 2.2 6.1 3.5" class="cls-4"/><path d="M43.2 25.3c.3-2.3 0-4.4 0-4.4 0-.7-.5-1.2-1.1-1.3l-2.8-.3c-.5 0-1-.4-1.1-.9-.3-1.2-.8-2.4-1.4-3.5-.3-.5-.2-1 .1-1.4l1.8-2.2c.4-.5.4-1.2 0-1.7l-3-3c-.5-.5-1.2-.5-1.7 0l-2.2 1.8c-.4.3-1 .4-1.4.1-1.1-.6-2.2-1.1-3.5-1.4-.5-.1-.9-.6-.9-1.1l-.3-2.8c0-.7-.6-1.1-1.3-1.1h-4.2c-.7 0-1.2.5-1.3 1.1L18.6 6c0 .5-.4.9-.9 1.1-1.1.5-3.5 1.4-3.5 1.4-.6 0-1-.5-1-.5L11 6.2c-.5-.4-1.2-.4-1.7 0l-3 3c-.5.5-.5 1.2 0 1.7l1.8 2.2c.3.4.4 1 .1 1.4-.6 1.1-1.1 2.2-1.4 3.5-.1.5-.6.9-1.1.9l-2.8.3c-.7 0-1.1.6-1.1 1.3 0 0-.1 2 0 3.7" class="cls-6"/><path fill="none" stroke="#444" stroke-linecap="round" stroke-linejoin="round" d="M22.4 13.8c-5.4 0-9.8 4.4-9.8 9.8h19.6c0-5.4-4.4-9.8-9.8-9.8z"/></svg>