<?xml version="1.0" encoding="UTF-8"?>
<svg xmlns="http://www.w3.org/2000/svg" version="1.1" viewBox="0 0 50 50">
  <defs>
    <style>
      .cls-1, .cls-2, .cls-3, .cls-4 {
        fill: none;
        stroke: #444;
      }

      .cls-1, .cls-2, .cls-4 {
        stroke-linecap: round;
        stroke-linejoin: round;
      }

      .cls-2 {
        stroke-width: 2.5px;
      }

      .cls-5 {
        fill: #444;
      }

      .cls-3 {
        stroke-miterlimit: 10;
      }

      .cls-6 {
        fill: #fcc34f;
      }

      .cls-4 {
        stroke-width: .5px;
      }
    </style>
  </defs>
  <!-- Generator: Adobe Illustrator 28.6.0, SVG Export Plug-In . SVG Version: 1.2.0 Build 709)  -->
  <g>
    <g id="Camada_3">
      <path class="cls-6" d="M48.1,20.6c-.2-.8-2.7-7.5-3.2-8.1l-3-3.5h-.2c0,0-7.6-5.7-7.6-5.7l-7.8-.7c-3.2,0-12.8-.7-21.3,11.5l-2.9,7.9.5,2,1.8,11.5c.1.4,4.7,7,5.1,7.2l5.6,3,32.2-11.7c.7-.4,1.7-8.6.7-13.4Z"/>
      <path class="cls-2" d="M28.4,48.3c-12.6,1.6-24.1-7.4-25.7-20.1C1.1,15.6,10.1,4.1,22.7,2.5c12.6-1.6,24.1,7.4,25.7,20.1.6,5.1-.5,10-2.8,14.1"/>
      <polyline class="cls-4" points="10.2 40.8 11.9 36.7 16.6 38.2 17 29.2 23.9 32.1 29.8 28.3 32.2 22.8 37.1 23.5 38.8 17.7 41 17.7 42.2 9.4"/>
      <circle class="cls-3" cx="21.7" cy="21.2" r="6"/>
      <g>
        <line class="cls-1" x1="18.9" y1="27.4" x2="17.9" y2="29.9"/>
        <line class="cls-1" x1="15.1" y1="24.1" x2="12.8" y2="25.3"/>
        <line class="cls-1" x1="14.3" y1="19.1" x2="11.7" y2="18.5"/>
        <line class="cls-1" x1="17" y1="14.7" x2="15.3" y2="12.6"/>
        <line class="cls-1" x1="21.7" y1="13.1" x2="21.8" y2="10.4"/>
        <line class="cls-1" x1="26.5" y1="14.9" x2="28.2" y2="12.9"/>
      </g>
      <path class="cls-5" d="M36.4,30.6c1-1.4,1.1-3.1,1.1-3.1,0-3.7-3.3-4.4-4-4.8-.3-.8-2-4.1-5.5-4-3.5,0-4.6.6-5.9,2.4-5,0-4.7,4.5-4.7,4.5,0,0-1.8,1.1-1.5,3.7s3.5,3.3,3.5,3.3h12.4c0-.1,3.3,0,4.7-2Z"/>
    </g>
  </g>
</svg>