<?xml version="1.0" encoding="UTF-8"?>
<svg xmlns="http://www.w3.org/2000/svg" version="1.1" viewBox="0 0 50 50">
  <defs>
    <style>
      .cls-1, .cls-2, .cls-3, .cls-4 {
        fill: none;
        stroke: #444;
        stroke-linecap: round;
        stroke-linejoin: round;
      }

      .cls-2 {
        stroke-width: .8px;
      }

      .cls-3 {
        stroke-width: 2.5px;
      }

      .cls-5 {
        fill: #a475ef;
      }

      .cls-4 {
        stroke-width: .5px;
      }
    </style>
  </defs>
  <!-- Generator: Adobe Illustrator 28.6.0, SVG Export Plug-In . SVG Version: 1.2.0 Build 709)  -->
  <g>
    <g id="Layer_1">
      <path class="cls-5" d="M47.4,18.2l.5-11-1.9-3.8-15.4.5c-3.2,0-27.8-3-27.8.2l-1.7,20.6,1.2,23.5,13.6.6,31-11c.7-.4,1.5-17.6.5-19.6Z"/>
      <path class="cls-3" d="M32.5,48.7H5.5c-1.9,0-3.4-1.6-3.4-3.5V6.2c0-1.9,1.5-3.5,3.4-3.5h39c1.9,0,3.4,1.6,3.4,3.5v32.5"/>
      <g>
        <path class="cls-1" d="M23.3,30.4c.2.7.3,1.3.3,2,0,3.9-3.3,6.9-7.1,6.8-1.6,0-3-.6-4.1-1.5l-1.9,1.3c1.6,1.4,3.7,2.4,6,2.4,5.1.1,9.3-3.9,9.4-9,0-1.2-.2-2.3-.6-3.4l-2,1.3Z"/>
        <path class="cls-1" d="M10.2,35c-.4-.9-.6-1.9-.6-2.9,0-3.9,3.3-6.9,7.1-6.8s2.6.5,3.6,1.1l1.8-1.5c-1.5-1.1-3.3-1.8-5.3-1.9-5.1-.1-9.3,3.9-9.4,9,0,1.6.3,3.1,1,4.5l1.8-1.5Z"/>
      </g>
      <circle class="cls-1" cx="31.8" cy="18.4" r="3.5"/>
      <circle class="cls-1" cx="40.5" cy="9.8" r="2.2"/>
      <line class="cls-4" x1="34.6" y1="15.6" x2="38.6" y2="11.6"/>
      <line class="cls-2" x1="24.5" y1="24.6" x2="28.5" y2="20.6"/>
      <line class="cls-2" x1="25.9" y1="26.1" x2="30" y2="22"/>
    </g>
  </g>
</svg>