<?xml version="1.0" encoding="utf-8"?>
<!-- Generator: Adobe Illustrator 22.1.0, SVG Export Plug-In . SVG Version: 6.00 Build 0)  -->
<svg version="1.1" id="Layer_1" xmlns="http://www.w3.org/2000/svg" xmlns:xlink="http://www.w3.org/1999/xlink" x="0px" y="0px"
	 viewBox="0 0 50 50" style="enable-background:new 0 0 50 50;" xml:space="preserve">
<style type="text/css">
	.st0{fill:#FCC34F;}
	.st1{fill:#FDCF72;}
	.st2{fill:#444444;}
</style>
<g>
	<polygon class="st0" points="48.6,25.8 49,30.2 1.5,47.5 1.6,38.2 2,32.8 49.3,15.6 48.6,19.4 	"/>
</g>
<g>
	<polygon class="st1" points="48.6,8.7 48,16.6 1.6,33.5 1.6,23.5 2,18.9 48.7,1.9 	"/>
</g>
<g>
	<path class="st2" d="M48.5,49.5c-0.7,0-1.2-0.6-1.2-1.2V2.8H2.7V47h9.2c0.7,0,1.2,0.6,1.2,1.2s-0.6,1.2-1.2,1.2H1.5
		c-0.7,0-1.2-0.6-1.2-1.2V1.6c0-0.7,0.6-1.2,1.2-1.2h47c0.7,0,1.2,0.6,1.2,1.2v46.7C49.7,49,49.2,49.5,48.5,49.5z"/>
</g>
<g>
	<g>
		<path class="st2" d="M37.1,40.5h-5.9c-0.5,0-0.8,0.4-0.8,0.8c0,0.5,0.4,0.8,0.8,0.8h5.9c0.5,0,0.8-0.4,0.8-0.8
			C38,40.9,37.6,40.5,37.1,40.5z"/>
	</g>
	<g>
		<path class="st2" d="M37.1,36h-5.9c-0.5,0-0.8,0.4-0.8,0.8c0,0.5,0.4,0.8,0.8,0.8h5.9c0.5,0,0.8-0.4,0.8-0.8
			C38,36.3,37.6,36,37.1,36z"/>
	</g>
	<g>
		<path class="st2" d="M37.1,31.5h-5.9c-0.5,0-0.8,0.4-0.8,0.8c0,0.5,0.4,0.8,0.8,0.8h5.9c0.5,0,0.8-0.4,0.8-0.8
			C38,31.8,37.6,31.5,37.1,31.5z"/>
	</g>
	<g>
		<path class="st2" d="M43.3,25.4l-2.6-1.5c-0.3-0.2-0.6-0.2-0.8,0c-0.3,0.2-0.4,0.4-0.4,0.7v0.7H28c-0.1-0.4-0.3-0.8-0.6-1.1
			c2.4-3,5.5-5.2,9.2-6.6c3.5-1.2,6.2-1.2,6.2-1.2c0.5,0,0.9-0.4,0.9-0.8c0-0.5-0.4-0.9-0.8-0.9c-0.1,0-3-0.1-6.8,1.3
			c-2.9,1-6.8,3.1-10.1,7.2c-0.1,0-0.1,0-0.2-0.1V11.7h0.7c0,0,0,0,0,0c0.5,0,0.8-0.4,0.8-0.8c0-0.2-0.1-0.3-0.2-0.5l-1.5-2.6
			c-0.2-0.3-0.4-0.4-0.7-0.4c-0.3,0-0.6,0.2-0.7,0.4l-1.5,2.6c-0.2,0.3-0.2,0.6,0,0.8c0.2,0.3,0.4,0.4,0.7,0.4h0.7v11.4
			c-1,0.3-1.8,1.1-2.1,2.1H7.1c-0.5,0-0.8,0.4-0.8,0.8s0.4,0.8,0.8,0.8H22c0.1,0.4,0.3,0.8,0.6,1.1c-2.4,3-5.5,5.2-9.2,6.6
			c-3.5,1.2-6.2,1.2-6.2,1.2c-0.5,0-0.9,0.4-0.9,0.8c0,0.5,0.4,0.9,0.8,0.9c0,0,0,0,0.1,0c0.6,0,3.3-0.1,6.7-1.3
			c2.9-1,6.8-3.1,10.1-7.2c0.1,0,0.1,0,0.2,0.1V44c0,0.5,0.4,0.8,0.8,0.8c0.5,0,0.8-0.4,0.8-0.8V29.1c1-0.3,1.8-1.1,2.1-2.1h11.4
			v0.7c0,0.3,0.2,0.6,0.4,0.7c0.1,0.1,0.3,0.1,0.4,0.1c0.1,0,0.3,0,0.4-0.1l2.6-1.5c0.3-0.2,0.4-0.4,0.4-0.7S43.5,25.5,43.3,25.4z
			 M25,27.5c-0.8,0-1.4-0.6-1.4-1.4c0-0.8,0.6-1.4,1.4-1.4c0.8,0,1.4,0.6,1.4,1.4C26.4,26.9,25.8,27.5,25,27.5z"/>
	</g>
	<g>
		<path class="st2" d="M8.7,21.3c0.1,0.3,0.4,0.5,0.8,0.5c0.3,0,0.6-0.2,0.8-0.5l3.4-7.7H19c0.5,0,0.8-0.4,0.8-0.8
			c0-0.5-0.4-0.8-0.8-0.8h-5.9c-0.3,0-0.6,0.2-0.8,0.5l-2.8,6.4l-1.6-3.7c-0.2-0.4-0.7-0.6-1.1-0.4c-0.4,0.2-0.6,0.7-0.4,1.1
			L8.7,21.3z"/>
	</g>
	<g>
		<path class="st2" d="M19.3,16.3c-0.3-0.3-0.9-0.3-1.2,0L17,17.4l-1.1-1.1c-0.3-0.3-0.9-0.3-1.2,0c-0.3,0.3-0.3,0.9,0,1.2l1.1,1.1
			l-1.1,1.1c-0.3,0.3-0.3,0.9,0,1.2c0.2,0.2,0.4,0.2,0.6,0.2c0.2,0,0.4-0.1,0.6-0.2l1.1-1.1l1.1,1.1c0.2,0.2,0.4,0.2,0.6,0.2
			c0.2,0,0.4-0.1,0.6-0.2c0.3-0.3,0.3-0.9,0-1.2l-1.1-1.1l1.1-1.1C19.6,17.2,19.6,16.6,19.3,16.3z"/>
	</g>
</g>
</svg>
