<svg xmlns="http://www.w3.org/2000/svg" id="Layer_1" x="0" y="0" version="1.1" viewBox="0 0 50 50" xml:space="preserve"><style>.st3,.st4{fill:none;stroke:#444;stroke-miterlimit:10}.st4{stroke-width:.5}</style><path fill="#8256d8" d="M29.2 20.2l7.8 2.4-6.7 4.8.1 8.2-6.6-4.9-7.7 2.6 2.6-7.8-4.9-6.6 8.2.2 4.7-6.8z"/><path fill="#a475ef" d="M44.6 12.4L39 8.8l-7.7-4.4-6-2.8c-3.2 0-21.5 8.9-21.5 12.1l-.5 7.8.5 15.1 11.5 7.6 31-11c.9-.5-.7-18.8-1.7-20.8z"/><path fill="none" stroke="#444" stroke-linecap="round" stroke-linejoin="round" stroke-miterlimit="10" stroke-width="2.5" d="M29.9 46.5l-2.2 1.3c-1.7 1-3.8 1-5.5 0l-15.6-9C5 37.8 3.9 36 3.9 34V16c0-2 1-3.8 2.7-4.7l15.6-9c1.7-1 3.8-1 5.5 0l15.6 9c1.7 1 2.7 2.8 2.7 4.7v18c0 2-1 3.8-2.7 4.7l-2.5 1.4"/><path d="M9.5 27.7s-.2-6.2 2.3-9.7c.6-.9 1.7-1.4 2.7-1.4h11.2c.9 0 1.8.4 2.5 1.1l4.3 4.5c.6.7 1.5 1.1 2.5 1.1h2.2c1.9 0 3.4 1.5 3.4 3.4V28m-27.6.2H8.9c-.2 0-.3.1-.3.3V30c0 .2.1.3.3.3h3.5m5.2-2.1H32m-13.6 2.1h12.7m5.5-2.1h4.5c.2 0 .3.1.3.3V30c0 .2-.1.3-.3.3h-3.7" class="st3"/><circle cx="15.3" cy="30.3" r="3.1" class="st3"/><circle cx="34.3" cy="30.3" r="3.1" class="st3"/><path d="M13.2 22.3h15.4c.4 0 .6-.5.3-.8l-2.6-2.7c-.1-.1-.2-.1-.3-.1H14.4c-.2 0-.4.1-.4.3l-1.2 2.7c-.2.2 0 .6.4.6zm6.7-3.7v3.7" class="st4"/><circle cx="15.3" cy="30.3" r="1.5" class="st4"/><path fill="none" stroke="#444" stroke-linecap="round" stroke-miterlimit="10" stroke-width=".5" d="M15.5 24H17m6.9 0h1.5"/><path fill="none" stroke="#444" stroke-linecap="round" stroke-linejoin="round" stroke-miterlimit="10" stroke-width=".5" d="M37.6 23.2s-1 3.4 2.7 3"/><circle cx="34.3" cy="30.3" r="1.5" class="st4"/></svg>