<svg xmlns="http://www.w3.org/2000/svg" viewBox="0 0 50 50"><path fill="#fcc34f" d="M48.1 20.6c-.2-.8-2.7-7.5-3.2-8.1l-3-3.5h-.2l-7.6-5.7-7.8-.7c-3.2 0-12.8-.7-21.3 11.5L2.1 22l.5 2 1.8 11.5c.1.4 4.7 7 5.1 7.2l5.6 3L47.3 34c.7-.4 1.7-8.6.7-13.4z"/><path fill="none" stroke="#444" stroke-linecap="round" stroke-linejoin="round" stroke-width="2.5" d="M28.4 48.3C15.8 49.9 4.3 40.9 2.7 28.2c-1.6-12.6 7.4-24.1 20-25.7C35.3.9 46.8 9.9 48.4 22.6c.6 5.1-.5 10-2.8 14.1"/><path fill="none" stroke="#444" stroke-linecap="round" stroke-linejoin="round" stroke-width=".5" d="M10.2 40.8l1.7-4.1 4.7 1.5.4-9 6.9 2.9 5.9-3.8 2.4-5.5 4.9.7 1.7-5.8H41l1.2-8.3"/><circle cx="21.7" cy="21.2" r="6" fill="none" stroke="#444" stroke-miterlimit="10"/><path fill="none" stroke="#444" stroke-linecap="round" stroke-linejoin="round" d="M18.9 27.4l-1 2.5m-2.8-5.8l-2.3 1.2m1.5-6.2l-2.6-.6m5.3-3.8l-1.7-2.1m6.4.5l.1-2.7m4.7 4.5l1.7-2"/><path fill="#444" d="M36.4 30.6c1-1.4 1.1-3.1 1.1-3.1 0-3.7-3.3-4.4-4-4.8-.3-.8-2-4.1-5.5-4-3.5 0-4.6.6-5.9 2.4-5 0-4.7 4.5-4.7 4.5s-1.8 1.1-1.5 3.7 3.5 3.3 3.5 3.3h12.4c0-.1 3.3 0 4.7-2z"/></svg>