<?xml version="1.0" encoding="utf-8"?>
<!-- Generator: Adobe Illustrator 28.0.0, SVG Export Plug-In . SVG Version: 6.00 Build 0)  -->
<svg version="1.1" id="Layer_1" xmlns="http://www.w3.org/2000/svg" xmlns:xlink="http://www.w3.org/1999/xlink" x="0px" y="0px"
	 viewBox="0 0 300 300" style="enable-background:new 0 0 300 300;" xml:space="preserve">
<style type="text/css">
	.st0{fill:#008DD3;}
	.st1{fill:#F96464;}
	.st2{fill:#FFD200;}
	.st3{fill:#4EBFE9;}
	.st4{fill:#ED9751;}
	.st5{fill:#973DC1;}
	.st6{fill:#C75EEB;}
	.st7{fill:#FF8DA4;}
	.st8{fill:#515759;}
	.st9{fill:#DDDDDD;stroke:#515759;stroke-width:2.3364;stroke-miterlimit:10;}
	.st10{opacity:0.36;fill:#FFFFFF;enable-background:new    ;}
	.st11{opacity:0.61;fill:#FFFFFF;enable-background:new    ;}
</style>
<g>
	<g>
		<g>
			<g>
				<g id="Camada_10_00000157993655516718902180000011836942495368436882_">
					<path class="st0" d="M4429.3-54.1c0.1,19.8-4.1,38.6-11.6,55.7c-21.1,47.6-68.6,80.8-124,81c-14.7,0.1-28.9-2.3-42.2-6.5
						c-25-8-46.8-23-63.1-42.8c-17-20.4-28.1-46-30.8-74c-0.4-4-0.6-8.2-0.6-12.3c-0.2-46.2,22.7-87.2,57.9-111.9
						c4.6-3.3,9.4-6.2,14.4-8.8c7-3.8,14.4-6.8,22-9.4c7.2-2.3,14.7-4,22.4-5.2c6.2-0.8,12.5-1.3,18.9-1.4
						c25-0.1,48.5,6.6,68.8,18.3c3.7,2.1,7.1,4.3,10.5,6.8c16.2,11.5,29.8,26.5,39.7,43.9c1.1,2,2.2,3.9,3.2,6
						c0.8,1.8,1.7,3.5,2.5,5.3c2.6,5.8,4.8,11.7,6.6,17.8c2,6.8,3.5,13.9,4.3,21l0,0C4428.9-65.2,4429.3-59.7,4429.3-54.1z"/>
				</g>
			</g>
		</g>
	</g>
</g>
<g>
	<path class="st1" d="M4401.5-77.9c0,9.2-0.5,18.5-1.4,27.7c0,0,0,0,0,0c-0.6,6.1-1.5,12.2-2.5,18.2c-1.1,6.4-2.4,12.8-3.8,19
		c-1.2,4.9-2.4,9.6-3.8,14.3v0c-13,43.9-35.8,78.7-62.1,82.9c-1.8,0.3-3.6,0.4-5.4,0.4c-1.9,0-3.8-0.2-5.7-0.5
		c-25.7-4.5-49-38.8-62.9-81.9v0c-1.5-4.6-2.9-9.4-4.2-14.2c-1.6-6.2-3.1-12.5-4.3-19c-1.1-5.9-2.1-11.8-2.9-17.8c0,0,0,0,0,0
		c-1.4-11-2.2-22-2.2-32.8c0-15.7,1.3-29.7,3.7-42.1c0.7-3.7,1.6-7.2,2.5-10.6c2.4-8.8,5.6-16.7,9.3-23.6c0.9-1.6,1.8-3.2,2.8-4.8
		l0,0c1.6-2.6,3.4-5,5.2-7.2c1.2-1.5,2.5-2.9,3.8-4.3c1.6-1.7,3.2-3.2,4.9-4.7c1.6-1.4,3.2-2.6,4.9-3.8
		c12.4-8.8,27.5-13.2,45.1-13.2c13.4,0,27,4.8,39.1,14.4c1.5,1.2,3,2.5,4.5,3.9c1.5,1.4,2.9,2.8,4.3,4.3c1.2,1.3,2.5,2.7,3.7,4.2
		c1.9,2.4,3.8,4.9,5.6,7.6c1,1.5,1.9,3,2.9,4.6c4.1,6.9,7.8,14.8,10.7,23.5c1.1,3.4,2.2,6.9,3.1,10.6
		C4399.6-109.5,4401.5-94.6,4401.5-77.9z"/>
	<path class="st2" d="M4330.4,21.5c-3.1,0-6,0.8-8.5,2.1c-2.5-1.4-5.4-2.1-8.5-2.1c-9.3,0-16.9,15.9-16.9,15.9h50.7
		C4347.3,37.4,4339.7,21.5,4330.4,21.5z"/>
	<path class="st2" d="M4379.6-161.4c-15.4,3.1-35.7,5-58,5c-24.8,0-47.2-2.4-63-6.2l0,0l-2.8,4.8c18,3.3,40.9,5.3,65.9,5.3
		c22.7,0,43.8-1.7,60.9-4.4C4381.6-158.4,4380.6-160,4379.6-161.4z"/>
	<path class="st2" d="M4263.8-169.8c16.6,2.5,36.5,4,57.8,4c19.1,0,37-1.2,52.4-3.2l-3.7-4.2c-13.9,2.1-30.7,3.4-48.7,3.4
		c-20.5,0-39.3-1.6-54.1-4.3L4263.8-169.8z"/>
	<path class="st3" d="M4272.4-178.8c15.4,2,33.2,3.2,52.3,3.2c14.7,0,28.6-0.7,41.3-1.9l-4.5-3.9c-11.2,1.2-23.6,1.8-36.8,1.8
		c-17.3,0-33.5-1.2-47.1-3.2c-0.1,0-0.2,0.1-0.4,0.1L4272.4-178.8z"/>
	<g>
		<g>
			<path class="st3" d="M4381.6-151.3c-0.6,0-1.1,0.2-1.4,0.5l-12.4,12.7l-12.1-12.7c-0.3-0.3-0.9-0.5-1.5-0.5
				c-0.6,0-1.2,0.2-1.4,0.6l-9.2,12.2l-10.4-12.2c-0.3-0.3-0.8-0.5-1.4-0.5c-0.6,0-1.2,0.2-1.4,0.5l-8.6,9.7l-8.7-9.7
				c-0.3-0.3-0.9-0.5-1.5-0.5c-0.6,0-1.2,0.2-1.4,0.6l-9,11.9l-12.5-12c-0.3-0.3-0.8-0.5-1.4-0.4c-0.6,0-1.1,0.2-1.4,0.5l-10.5,11.9
				l-15.8-12.1c-0.5-0.4-1.5-0.5-2.2-0.2c-0.7,0.3-0.8,0.9-0.3,1.3l17.3,13.3c0.3,0.3,0.9,0.4,1.4,0.4c0.6,0,1-0.2,1.3-0.5
				l10.3-11.8l12.6,12.1c0.3,0.3,0.9,0.5,1.5,0.4c0.6,0,1.1-0.2,1.4-0.6l8.9-11.8l8.6,9.6c0.3,0.3,0.8,0.5,1.4,0.5c0,0,0,0,0,0
				c0.6,0,1.1-0.2,1.4-0.5l8.5-9.6l10.5,12.4c0.3,0.3,0.8,0.5,1.5,0.5c0.6,0,1.2-0.2,1.4-0.6l9.2-12.3l11.9,12.5
				c0.3,0.3,0.8,0.5,1.4,0.5c0.6,0,1.1-0.2,1.4-0.5l13.8-14.2c0.4-0.4,0.2-1-0.6-1.3C4382.2-151.3,4381.9-151.3,4381.6-151.3z"/>
		</g>
		<g>
			<path class="st3" d="M4381.6-151.3c-0.6,0-1.1,0.2-1.4,0.5l-12.4,12.7l-12.1-12.7c-0.3-0.3-0.9-0.5-1.5-0.5
				c-0.6,0-1.2,0.2-1.4,0.6l-9.2,12.2l-10.4-12.2c-0.3-0.3-0.8-0.5-1.4-0.5c-0.6,0-1.2,0.2-1.4,0.5l-8.6,9.7l-8.7-9.7
				c-0.3-0.3-0.9-0.5-1.5-0.5c-0.6,0-1.2,0.2-1.4,0.6l-9,11.9l-12.5-12c-0.3-0.3-0.8-0.5-1.4-0.4c-0.6,0-1.1,0.2-1.4,0.5l-10.5,11.9
				l-15.8-12.1c-0.5-0.4-1.5-0.5-2.2-0.2c-0.7,0.3-0.8,0.9-0.3,1.3l17.3,13.3c0.3,0.3,0.9,0.4,1.4,0.4c0.6,0,1-0.2,1.3-0.5
				l10.3-11.8l12.6,12.1c0.3,0.3,0.9,0.5,1.5,0.4c0.6,0,1.1-0.2,1.4-0.6l8.9-11.8l8.6,9.6c0.3,0.3,0.8,0.5,1.4,0.5c0,0,0,0,0,0
				c0.6,0,1.1-0.2,1.4-0.5l8.5-9.6l10.5,12.4c0.3,0.3,0.8,0.5,1.5,0.5c0.6,0,1.2-0.2,1.4-0.6l9.2-12.3l11.9,12.5
				c0.3,0.3,0.8,0.5,1.4,0.5c0.6,0,1.1-0.2,1.4-0.5l13.8-14.2c0.4-0.4,0.2-1-0.6-1.3C4382.2-151.3,4381.9-151.3,4381.6-151.3z"/>
		</g>
	</g>
	<path class="st4" d="M4396.3-122.7c-4.7,0-9.4-0.1-14.1-0.1c-46.1-0.3-92.2-0.5-138.3-0.8c0.7-3.7,1.6-7.2,2.5-10.6
		c9.6,0.1,19.2,0.1,28.8,0.2c39.3,0.2,78.6,0.4,117.9,0.7C4394.3-129.9,4395.3-126.4,4396.3-122.7z"/>
	<path class="st5" d="M4325.3-52.3c-0.2,0.4-0.4,0.8-0.6,1.3c-2.2,4.5-5.2,8.7-8.8,12.4c-2.6,2.8-5.6,5.2-8.8,7.4
		c-14.2,9.6-32.6,12.3-49.1,6.6c-4.5-1.6-8.8-3.7-12.8-6.4c-1.2-5.9-2.2-11.8-3-17.8c1.5,1.9,3.1,3.7,4.9,5.3
		c10.3,9.1,23.4,13.1,37.1,10.3c12.9-2.6,24.8-11.8,30.1-23.6c0.8-1.7,2.2-2.7,3.7-3c2.4-0.5,5.1,0.5,6.5,2.2
		C4325.8-56,4326.2-54.3,4325.3-52.3z"/>
	<path class="st6" d="M4249.5-12c9.9,6.2,22,8.5,33.7,6.7c11-1.8,21.2-7.7,28.1-15.9c1.4-1.7,3.4-2.2,5.2-2c4.1,0.5,7.8,4.8,4.5,8.7
		c-1.9,2.2-3.9,4.2-6.1,6.1c-8.3,7.1-18.8,11.9-30,13.7c-10.4,1.7-21.1,0.5-30.8-3v0L4249.5-12z"/>
	<path class="st5" d="M4400-50.2c-0.7,6.1-1.5,12.2-2.6,18.2c-4.4,3.1-9.2,5.7-14.3,7.4c-16.6,5.7-35,3-49.3-6.6
		c-3.1-2.1-6-4.5-8.6-7.2c-3.7-3.8-6.8-8.1-9.1-12.7c-0.2-0.4-0.4-0.8-0.6-1.3c-0.9-2-0.5-3.7,0.6-5.1c1.5-1.8,4.3-2.8,6.7-2.2
		c1.5,0.3,2.8,1.3,3.6,2.9c5.4,11.8,17.3,21,30.3,23.6c13.7,2.7,26.9-1.2,37.3-10.3C4396.2-45.4,4398.2-47.7,4400-50.2z"/>
	<path class="st6" d="M4393.7-13c-0.6,0.2-1.2,0.5-1.7,0.8c-9.7,6.4-21.7,8.8-33.3,6.9c-10.8-1.8-20.7-7.7-27.4-15.9
		c-1.3-1.6-3.1-2.2-4.8-2c-4.1,0.3-7.9,4.7-4.7,8.7c1.9,2.3,4,4.5,6.3,6.4c8,6.9,18.1,11.6,28.9,13.4c11,1.8,22.4,0.2,32.5-4v0
		L4393.7-13z"/>
	<path class="st3" d="M4328,52.3c0,1.9,0,3.7,0,5.6c-0.1,8.8-0.2,17.5-0.2,26.3c-1.8,0.3-3.6,0.4-5.4,0.4c-1.9,0-3.8-0.2-5.7-0.5
		c0.1-8.4,0.1-16.7,0.2-25.1c0-2.8,0-5.5,0.1-8.3c0-3,3.7-4.9,6.3-4.5C4326.4,46.7,4328.1,49.3,4328,52.3z"/>
	<path class="st7" d="M4333.2,2.2l-9.9-83.1l-5.3,0l-9.7,83.2c-7,2.2-11.6,6.2-11.6,10.8h4.7c0.3-2.9,3.9-5.1,8.1-5.1
		c4.3,0,7.8,2.2,8.1,5.1h6.3c0.3-2.9,3.8-5.1,8.1-5.1c4.3,0,7.8,2.2,8.1,5.1h4.7C4344.9,8.5,4340.2,4.5,4333.2,2.2z"/>
	<path class="st2" d="M4296.6,41.7c0,0,11.9,18.8,25.4,17.5c13.5,1.1,25.4-17.5,25.4-17.5H4296.6z"/>
	<g>
		<g>
			<path class="st3" d="M4286.3-103c-17.7,0-32.3,15.1-34.3,34.6c2.3-14,21.3-24.6,34.3-24.6c13,0,32.2,10.6,34.5,24.6
				C4324.2-90.6,4304-103,4286.3-103z"/>
			<path class="st3" d="M4355.3-103c-17.7,0-37.2,12.4-34.5,34.4c2.3-14,21.5-24.4,34.5-24.4c13,0,32,10.6,34.3,24.6
				C4387.6-87.8,4373-103,4355.3-103z"/>
		</g>
		<g>
			<path class="st8" d="M4286.3-103c-17.7,0-32.3,15.1-34.3,34.6c2.3-14,21.3-24.6,34.3-24.6c13,0,32.2,10.6,34.5,24.6
				C4324.2-90.6,4304-103,4286.3-103z"/>
			<path class="st8" d="M4355.3-103c-17.7,0-37.2,12.4-34.5,34.4c2.3-14,21.5-24.4,34.5-24.4c13,0,32,10.6,34.3,24.6
				C4387.6-87.8,4373-103,4355.3-103z"/>
		</g>
	</g>
	<ellipse class="st2" cx="4289.8" cy="-65.5" rx="14.6" ry="14.4"/>
	<ellipse cx="4289.8" cy="-65" rx="5.4" ry="7.4"/>
	<ellipse class="st2" cx="4352.6" cy="-65.5" rx="14.6" ry="14.4"/>
	<ellipse cx="4352.7" cy="-65" rx="5.4" ry="7.4"/>
</g>
<g>
	<path class="st9" d="M4228.8,15c6.3,2.8,10.8,8.6,10.8,8.6l-17.5,12.9c-0.3,0.2-0.5,0.5-0.5,0.9l0,0c-0.1,0.4,0.1,0.7,0.2,0.9
		l6.4,8.5c0.2,0.3,0.6,0.5,1,0.5l0,0c0.3,0,0.6-0.1,0.8-0.2l17.1-13.2c0,0,3.9,6.2,4.4,13.1c0.4,5.9,18.7-29.1,24.1-39.5
		c0.6-1.2-0.4-2.6-1.7-2.4C4262.3,6.6,4223.4,12.5,4228.8,15z"/>
	<path class="st10" d="M4249.7,19.2c3.7-1.9,10.3-4.3,13.2-5.7c3.6-1.7,6-3,7.1-4.1c0.5-0.4,0-1.1-0.7-1c-1.8,0.2-5.3,0.7-12.6,2.2
		h-0.1c-3,0.4-19.7,3.4-21.1,4c-3.7,0.5,5.1,3.2,7.7,7.1v0.1"/>
	<path class="st11" d="M4246.2,17.2c2.2-0.9,6-2,7.7-2.7c2-0.8,3.4-1.5,4.1-2c0.3-0.2,0-0.5-0.4-0.5c-1,0.1-3.1,0.4-7.4,1.1
		c0,0,0,0-0.1,0c-1.8,0.2-11.4,1.7-12.3,1.9c-2.2,0.2,3,1.5,4.4,3.4l0,0"/>
</g>
<g>
	<g>
		<g>
			<g>
				<g id="Camada_10_00000051363362879145838200000011344028868905831857_">
					<path class="st0" d="M286.1,150.1c0.1,19.8-4.1,38.6-11.6,55.7c-21.1,47.6-68.6,80.8-124,81c-14.7,0.1-28.9-2.3-42.2-6.5
						c-25-8-46.8-23-63.1-42.8c-17-20.4-28.1-46-30.8-74c-0.4-4-0.6-8.2-0.6-12.3C13.6,105,36.5,64,71.7,39.3
						c4.6-3.3,9.4-6.2,14.4-8.8c7-3.8,14.4-6.8,22-9.4c7.2-2.3,14.7-4,22.4-5.2c6.2-0.8,12.5-1.3,18.9-1.4
						c25-0.1,48.5,6.6,68.8,18.3c3.7,2.1,7.1,4.3,10.5,6.8c16.2,11.5,29.8,26.5,39.7,43.9c1.1,2,2.2,3.9,3.2,6
						c0.8,1.8,1.7,3.5,2.5,5.3c2.6,5.8,4.8,11.7,6.6,17.8c2,6.8,3.5,13.9,4.3,21l0,0C285.7,139,286.1,144.5,286.1,150.1z"/>
				</g>
			</g>
		</g>
	</g>
</g>
<g>
	<path class="st1" d="M258.3,126.3c0,9.2-0.5,18.5-1.4,27.7c0,0,0,0,0,0c-0.6,6.1-1.5,12.2-2.5,18.2c-1.1,6.4-2.4,12.8-3.8,19
		c-1.2,4.9-2.4,9.6-3.8,14.3v0c-13,43.9-35.8,78.7-62.1,82.9c-1.8,0.3-3.6,0.4-5.4,0.4c-1.9,0-3.8-0.2-5.7-0.5
		c-25.7-4.5-49-38.8-62.9-81.9v0c-1.5-4.6-2.9-9.4-4.2-14.2c-1.6-6.2-3.1-12.5-4.3-19c-1.1-5.9-2.1-11.8-2.9-17.8c0,0,0,0,0,0
		c-1.4-11-2.2-22-2.2-32.8c0-15.7,1.3-29.7,3.7-42.1c0.7-3.7,1.6-7.2,2.5-10.6c2.4-8.8,5.6-16.7,9.3-23.6c0.9-1.6,1.8-3.2,2.8-4.8
		l0,0c1.6-2.6,3.4-5,5.2-7.2c1.2-1.5,2.5-2.9,3.8-4.3c1.6-1.7,3.2-3.2,4.9-4.7c1.6-1.4,3.2-2.6,4.9-3.8
		c12.4-8.8,27.5-13.2,45.1-13.2c13.4,0,27,4.8,39.1,14.4c1.5,1.2,3,2.5,4.5,3.9c1.5,1.4,2.9,2.8,4.3,4.3c1.2,1.3,2.5,2.7,3.7,4.2
		c1.9,2.4,3.8,4.9,5.6,7.6c1,1.5,1.9,3,2.9,4.6c4.1,6.9,7.8,14.8,10.7,23.5c1.1,3.4,2.2,6.9,3.1,10.6
		C256.4,94.7,258.3,109.6,258.3,126.3z"/>
	<path class="st2" d="M187.2,225.7c-3.1,0-6,0.8-8.5,2.1c-2.5-1.4-5.4-2.1-8.5-2.1c-9.3,0-16.9,15.9-16.9,15.9h50.7
		C204.1,241.6,196.6,225.7,187.2,225.7z"/>
	<path class="st2" d="M236.4,42.8c-15.4,3.1-35.7,5-58,5c-24.8,0-47.2-2.4-63-6.2l0,0l-2.8,4.8c18,3.3,40.9,5.3,65.9,5.3
		c22.7,0,43.8-1.7,60.9-4.4C238.4,45.8,237.4,44.2,236.4,42.8z"/>
	<path class="st2" d="M120.6,34.4c16.6,2.5,36.5,4,57.8,4c19.1,0,37-1.2,52.4-3.2l-3.7-4.2c-13.9,2.1-30.7,3.4-48.7,3.4
		c-20.5,0-39.3-1.6-54.1-4.3L120.6,34.4z"/>
	<path class="st3" d="M129.2,25.4c15.4,2,33.2,3.2,52.3,3.2c14.7,0,28.6-0.7,41.3-1.9l-4.5-3.9c-11.2,1.2-23.6,1.8-36.8,1.8
		c-17.3,0-33.5-1.2-47.1-3.2c-0.1,0-0.2,0.1-0.4,0.1L129.2,25.4z"/>
	<g>
		<g>
			<path class="st3" d="M238.5,52.9c-0.6,0-1.1,0.2-1.4,0.5l-12.4,12.7l-12.1-12.7c-0.3-0.3-0.9-0.5-1.5-0.5c-0.6,0-1.2,0.2-1.4,0.6
				l-9.2,12.2l-10.4-12.2c-0.3-0.3-0.8-0.5-1.4-0.5c-0.6,0-1.2,0.2-1.4,0.5l-8.6,9.7l-8.7-9.7c-0.3-0.3-0.9-0.5-1.5-0.5
				c-0.6,0-1.2,0.2-1.4,0.6l-9,11.9l-12.5-12c-0.3-0.3-0.8-0.5-1.4-0.4c-0.6,0-1.1,0.2-1.4,0.5l-10.5,11.9l-15.8-12.1
				c-0.5-0.4-1.5-0.5-2.2-0.2c-0.7,0.3-0.8,0.9-0.3,1.3l17.3,13.3c0.3,0.3,0.9,0.4,1.4,0.4c0.6,0,1-0.2,1.3-0.5l10.3-11.8l12.6,12.1
				c0.3,0.3,0.9,0.5,1.5,0.4c0.6,0,1.1-0.2,1.4-0.6l8.9-11.8l8.6,9.6c0.3,0.3,0.8,0.5,1.4,0.5c0,0,0,0,0,0c0.6,0,1.1-0.2,1.4-0.5
				l8.5-9.6l10.5,12.4c0.3,0.3,0.8,0.5,1.5,0.5c0.6,0,1.2-0.2,1.4-0.6l9.2-12.3l11.9,12.5c0.3,0.3,0.8,0.5,1.4,0.5
				c0.6,0,1.1-0.2,1.4-0.5l13.8-14.2c0.4-0.4,0.2-1-0.6-1.3C239,52.9,238.7,52.9,238.5,52.9z"/>
		</g>
		<g>
			<path class="st3" d="M238.5,52.9c-0.6,0-1.1,0.2-1.4,0.5l-12.4,12.7l-12.1-12.7c-0.3-0.3-0.9-0.5-1.5-0.5c-0.6,0-1.2,0.2-1.4,0.6
				l-9.2,12.2l-10.4-12.2c-0.3-0.3-0.8-0.5-1.4-0.5c-0.6,0-1.2,0.2-1.4,0.5l-8.6,9.7l-8.7-9.7c-0.3-0.3-0.9-0.5-1.5-0.5
				c-0.6,0-1.2,0.2-1.4,0.6l-9,11.9l-12.5-12c-0.3-0.3-0.8-0.5-1.4-0.4c-0.6,0-1.1,0.2-1.4,0.5l-10.5,11.9l-15.8-12.1
				c-0.5-0.4-1.5-0.5-2.2-0.2c-0.7,0.3-0.8,0.9-0.3,1.3l17.3,13.3c0.3,0.3,0.9,0.4,1.4,0.4c0.6,0,1-0.2,1.3-0.5l10.3-11.8l12.6,12.1
				c0.3,0.3,0.9,0.5,1.5,0.4c0.6,0,1.1-0.2,1.4-0.6l8.9-11.8l8.6,9.6c0.3,0.3,0.8,0.5,1.4,0.5c0,0,0,0,0,0c0.6,0,1.1-0.2,1.4-0.5
				l8.5-9.6l10.5,12.4c0.3,0.3,0.8,0.5,1.5,0.5c0.6,0,1.2-0.2,1.4-0.6l9.2-12.3l11.9,12.5c0.3,0.3,0.8,0.5,1.4,0.5
				c0.6,0,1.1-0.2,1.4-0.5l13.8-14.2c0.4-0.4,0.2-1-0.6-1.3C239,52.9,238.7,52.9,238.5,52.9z"/>
		</g>
	</g>
	<path class="st4" d="M253.1,81.5c-4.7,0-9.4-0.1-14.1-0.1c-46.1-0.3-92.2-0.5-138.3-0.8c0.7-3.7,1.6-7.2,2.5-10.6
		c9.6,0.1,19.2,0.1,28.8,0.2c39.3,0.2,78.6,0.4,117.9,0.7C251.1,74.3,252.2,77.8,253.1,81.5z"/>
	<path class="st5" d="M182.1,151.9c-0.2,0.4-0.4,0.8-0.6,1.3c-2.2,4.5-5.2,8.7-8.8,12.4c-2.6,2.8-5.6,5.2-8.8,7.4
		c-14.2,9.6-32.6,12.3-49.1,6.6c-4.5-1.6-8.8-3.7-12.8-6.4c-1.2-5.9-2.2-11.8-3-17.8c1.5,1.9,3.1,3.7,4.9,5.3
		c10.3,9.1,23.4,13.1,37.1,10.3c12.9-2.6,24.8-11.8,30.1-23.6c0.8-1.7,2.2-2.7,3.7-3c2.4-0.5,5.1,0.5,6.5,2.2
		C182.6,148.2,183,149.9,182.1,151.9z"/>
	<path class="st6" d="M106.3,192.2c9.9,6.2,22,8.5,33.7,6.7c11-1.8,21.2-7.7,28.1-15.9c1.4-1.7,3.4-2.2,5.2-2
		c4.1,0.5,7.8,4.8,4.5,8.7c-1.9,2.2-3.9,4.2-6.1,6.1c-8.3,7.1-18.8,11.9-30,13.7c-10.4,1.7-21.1,0.5-30.8-3v0L106.3,192.2z"/>
	<path class="st5" d="M256.8,154c-0.7,6.1-1.5,12.2-2.6,18.2c-4.4,3.1-9.2,5.7-14.3,7.4c-16.6,5.7-35,3-49.3-6.6
		c-3.1-2.1-6-4.5-8.6-7.2c-3.7-3.8-6.8-8.1-9.1-12.7c-0.2-0.4-0.4-0.8-0.6-1.3c-0.9-2-0.5-3.7,0.6-5.1c1.5-1.8,4.3-2.8,6.7-2.2
		c1.5,0.3,2.8,1.3,3.6,2.9c5.4,11.8,17.3,21,30.3,23.6c13.7,2.7,26.9-1.2,37.3-10.3C253,158.8,255.1,156.5,256.8,154z"/>
	<path class="st6" d="M250.5,191.2c-0.6,0.2-1.2,0.5-1.7,0.8c-9.7,6.4-21.7,8.8-33.3,6.9c-10.8-1.8-20.7-7.7-27.4-15.9
		c-1.3-1.6-3.1-2.2-4.8-2c-4.1,0.3-7.9,4.7-4.7,8.7c1.9,2.3,4,4.5,6.3,6.4c8,6.9,18.1,11.6,28.9,13.4c11,1.8,22.4,0.2,32.5-4v0
		L250.5,191.2z"/>
	<path class="st3" d="M184.9,256.5c0,1.9,0,3.7,0,5.6c-0.1,8.8-0.2,17.5-0.2,26.3c-1.8,0.3-3.6,0.4-5.4,0.4c-1.9,0-3.8-0.2-5.7-0.5
		c0.1-8.4,0.1-16.7,0.2-25.1c0-2.8,0-5.5,0.1-8.3c0-3,3.7-4.9,6.3-4.5C183.2,250.9,184.9,253.5,184.9,256.5z"/>
	<path class="st7" d="M190.1,206.4l-9.9-83.1l-5.3,0l-9.7,83.2c-7,2.2-11.6,6.2-11.6,10.8h4.7c0.3-2.9,3.9-5.1,8.1-5.1
		c4.3,0,7.8,2.2,8.1,5.1h6.3c0.3-2.9,3.8-5.1,8.1-5.1c4.3,0,7.8,2.2,8.1,5.1h4.7C201.7,212.7,197,208.7,190.1,206.4z"/>
	<path class="st2" d="M153.4,245.9c0,0,11.9,18.8,25.4,17.5c13.5,1.1,25.4-17.5,25.4-17.5H153.4z"/>
	<g>
		<g>
			<path class="st3" d="M143.1,101.2c-17.7,0-32.3,15.1-34.3,34.6c2.3-14,21.3-24.6,34.3-24.6c13,0,32.2,10.6,34.5,24.6
				C181,113.6,160.8,101.2,143.1,101.2z"/>
			<path class="st3" d="M212.1,101.2c-17.7,0-37.2,12.4-34.5,34.4c2.3-14,21.5-24.4,34.5-24.4s32,10.6,34.3,24.6
				C244.5,116.3,229.9,101.2,212.1,101.2z"/>
		</g>
		<g>
			<path class="st8" d="M143.1,101.2c-17.7,0-32.3,15.1-34.3,34.6c2.3-14,21.3-24.6,34.3-24.6c13,0,32.2,10.6,34.5,24.6
				C181,113.6,160.8,101.2,143.1,101.2z"/>
			<path class="st8" d="M212.1,101.2c-17.7,0-37.2,12.4-34.5,34.4c2.3-14,21.5-24.4,34.5-24.4s32,10.6,34.3,24.6
				C244.5,116.3,229.9,101.2,212.1,101.2z"/>
		</g>
	</g>
	<ellipse class="st2" cx="146.6" cy="138.7" rx="14.6" ry="14.4"/>
	<ellipse cx="146.6" cy="139.2" rx="5.4" ry="7.4"/>
	<ellipse class="st2" cx="209.4" cy="138.7" rx="14.6" ry="14.4"/>
	<ellipse cx="209.5" cy="139.2" rx="5.4" ry="7.4"/>
</g>
<g>
	<path class="st9" d="M85.6,219.2c6.3,2.8,10.8,8.6,10.8,8.6l-17.5,12.9c-0.3,0.2-0.5,0.5-0.5,0.9l0,0c-0.1,0.4,0.1,0.7,0.2,0.9
		l6.4,8.5c0.2,0.3,0.6,0.5,1,0.5l0,0c0.3,0,0.6-0.1,0.8-0.2l17.1-13.2c0,0,3.9,6.2,4.4,13.1c0.4,5.9,18.7-29.1,24.1-39.5
		c0.6-1.2-0.4-2.6-1.7-2.4C119.1,210.8,80.3,216.7,85.6,219.2z"/>
	<path class="st10" d="M106.6,223.4c3.7-1.9,10.3-4.3,13.2-5.7c3.6-1.7,6-3,7.1-4.1c0.5-0.4,0-1.1-0.7-1c-1.8,0.2-5.3,0.7-12.6,2.2
		h-0.1c-3,0.4-19.7,3.4-21.1,4c-3.7,0.5,5.1,3.2,7.7,7.1v0.1"/>
	<path class="st11" d="M103,221.4c2.2-0.9,6-2,7.7-2.7c2-0.8,3.4-1.5,4.1-2c0.3-0.2,0-0.5-0.4-0.5c-1,0.1-3.1,0.4-7.4,1.1
		c0,0,0,0-0.1,0c-1.8,0.2-11.4,1.7-12.3,1.9c-2.2,0.2,3,1.5,4.4,3.4l0,0"/>
</g>
</svg>
