<svg xmlns="http://www.w3.org/2000/svg" id="Camada_1" data-name="Camada 1" viewBox="0 0 300 300"><defs><style>.cls-1{fill:#ff4a75}.cls-2{fill:#78d9ff}.cls-3{fill:#fff}.cls-4{fill:#ffdcdf}.cls-5{fill:#ffd200}.cls-7{fill:#964c47}.cls-8{fill:#f7ee7c}.cls-9{fill:#e35477}</style></defs><path id="Camada_10" fill="#008dd3" d="M285.38 149.42c.1 20.75-4.3 40.45-12.16 58.37-22.11 49.89-71.89 84.68-129.95 84.89-15.41.1-30.29-2.41-44.23-6.81-26.2-8.38-49.05-24.1-66.13-44.86-17.82-21.37-29.45-48.2-32.28-77.54-.42-4.2-.63-8.6-.63-12.89-.21-48.42 23.79-91.39 60.68-117.28 4.82-3.46 9.85-6.5 15.09-9.22 7.34-3.98 15.09-7.13 23.06-9.85 7.55-2.41 15.41-4.19 23.48-5.45 6.5-.84 13.1-1.36 19.81-1.47 26.2-.1 50.83 6.92 72.1 19.18 3.88 2.2 7.44 4.51 11 7.13a143.485 143.485 0 0141.61 46.01c1.15 2.1 2.31 4.09 3.35 6.29.84 1.89 1.78 3.67 2.62 5.55a149.04 149.04 0 016.92 18.65c2.1 7.13 3.67 14.57 4.51 22.01.73 5.66 1.15 11.42 1.15 17.29z" data-name="Camada 10"/><path d="M110.59 161c-2.31-1.2-3.6-3.43-2.88-5 .72-1.59 2.11-2.28 4.23-2.11-.82-.82-1.68-2.93-.38-4.08s2.67-1.39 4.54-.22c.65-1.75 1.95-3.05 4.23-3.03 2.23 0 3.53 1.59 3.89 2.93 2.04-1.59 3.82-1.68 5.36-.55.65.46 1.73 2.38.55 3.91.86-.58 3.17-.72 3.79.58.65 1.3.58 2.88-.91 3.63 1.56-.29 3.03 2.43-.36 3.72l-22.02.19h-.02v.02z" class="cls-5" vector-effect="non-scaling-stroke"/><path d="M117.15 156.94c.65 0 1.2.53 1.2 1.13s-.55 1.13-1.2 1.13-1.2-.53-1.2-1.13.55-1.13 1.2-1.13zm-4.75-1.46c.67 0 1.2.53 1.2 1.13s-.55 1.13-1.2 1.13-1.2-.53-1.2-1.13.55-1.13 1.2-1.13zm7.92-6.25c.67 0 1.2.53 1.2 1.13s-.55 1.13-1.2 1.13-1.2-.53-1.2-1.13.55-1.13 1.2-1.13zm.24 4.56c.65 0 1.2.53 1.2 1.13s-.55 1.13-1.2 1.13-1.2-.53-1.2-1.13.55-1.13 1.2-1.13zm-5.71-2.73c.67 0 1.2.53 1.2 1.13s-.55 1.13-1.2 1.13-1.2-.53-1.2-1.13.55-1.13 1.2-1.13zm12.37-.48c.67 0 1.2.53 1.2 1.13s-.55 1.13-1.2 1.13-1.2-.53-1.2-1.13.55-1.13 1.2-1.13zm-2.45 5.57c.67 0 1.2.53 1.2 1.13s-.55 1.13-1.2 1.13-1.2-.53-1.2-1.13.55-1.13 1.2-1.13zm5.09-.27c.67 0 1.2.53 1.2 1.13s-.55 1.13-1.2 1.13-1.2-.53-1.2-1.13.55-1.13 1.2-1.13z" class="cls-8" vector-effect="non-scaling-stroke"/><path d="M131.75 185.28c1.03-8.62 2.07-17.29 3.07-25.99a82.471 82.471 0 01-26.88 0c1.49 8.77 2.98 17.46 4.52 26.16 6.39.67 12.87.62 19.26-.17h.02z" class="cls-1"/><path d="M128.01 185.69c.65-8.57 1.32-17.12 1.97-25.7-5.72.62-11.46.62-17.17 0 .94 8.6 1.92 17.2 2.88 25.77 4.08.26 8.21.26 12.3-.07h.02z" class="cls-3"/><path d="M124.26 185.88c.29-8.5.55-17.03.84-25.53-2.47.12-4.92.1-7.4 0 .43 8.53.84 17.03 1.22 25.58 1.75.07 3.53.07 5.28 0h.02v-.05h.02z" class="cls-9"/><path d="M147.13 161c-2.31-1.2-3.6-3.43-2.88-5 .72-1.59 2.11-2.28 4.23-2.11-.82-.82-1.68-2.93-.38-4.08s2.67-1.39 4.54-.22c.65-1.75 1.95-3.05 4.23-3.03 2.23 0 3.53 1.59 3.89 2.93 2.04-1.59 3.82-1.68 5.36-.55.65.46 1.73 2.38.55 3.91.86-.58 3.17-.72 3.79.58.65 1.3.58 2.88-.91 3.63 1.56-.29 3.03 2.43-.36 3.72l-22.02.19h-.02v.02z" class="cls-5" vector-effect="non-scaling-stroke"/><path d="M153.66 156.94c.65 0 1.2.53 1.2 1.13s-.55 1.13-1.2 1.13-1.2-.53-1.2-1.13.55-1.13 1.2-1.13zm-4.71-1.46c.67 0 1.2.53 1.2 1.13s-.55 1.13-1.2 1.13-1.2-.53-1.2-1.13.55-1.13 1.2-1.13zm7.9-6.25c.67 0 1.2.53 1.2 1.13s-.55 1.13-1.2 1.13-1.2-.53-1.2-1.13.55-1.13 1.2-1.13zm.2 4.56c.67 0 1.2.53 1.2 1.13s-.55 1.13-1.2 1.13-1.2-.53-1.2-1.13.55-1.13 1.2-1.13zm-5.7-2.73c.67 0 1.2.53 1.2 1.13s-.55 1.13-1.2 1.13-1.2-.53-1.2-1.13.55-1.13 1.2-1.13zm12.35-.48c.67 0 1.2.53 1.2 1.13s-.55 1.13-1.2 1.13-1.2-.53-1.2-1.13.55-1.13 1.2-1.13zm-2.4 5.57c.65 0 1.2.53 1.2 1.13s-.55 1.13-1.2 1.13-1.2-.53-1.2-1.13.55-1.13 1.2-1.13zm5.11-.27c.67 0 1.2.53 1.2 1.13s-.55 1.13-1.2 1.13-1.2-.53-1.2-1.13.55-1.13 1.2-1.13z" class="cls-8" vector-effect="non-scaling-stroke"/><path d="M168.29 185.28c1.03-8.62 2.07-17.29 3.07-25.99a82.471 82.471 0 01-26.88 0c1.49 8.77 2.98 17.46 4.52 26.16 6.39.67 12.87.62 19.26-.17h.02z" class="cls-1"/><path d="M164.52 185.69c.65-8.57 1.32-17.12 1.97-25.7-5.72.62-11.46.62-17.12 0 .98 8.6 1.92 17.2 2.88 25.77 4.08.26 8.21.26 12.3-.07h-.02z" class="cls-3"/><path d="M160.74 185.88c.29-8.5.58-17.03.84-25.53-2.47.12-4.92.1-7.4 0 .43 8.53.82 17.03 1.22 25.58 1.78.07 3.53.07 5.28 0h.02v-.05h.02z" class="cls-9"/><path d="M92.75 93.01h3.72v126.72h-3.72zm198.15 0h3.72v126.72h-3.72z" class="cls-7" vector-effect="non-scaling-stroke"/><path d="M91.57 195.9h204.2v90.62H91.57zM198.55 170.75l5.12-38.57c.1-.65-.36-1.22-1.01-1.32-.65-.1-1.22.36-1.32 1.01l-5.09 38.45 2.31.46v-.02z" class="cls-7"/><path d="M203.71 167.53c-3.67-.98-5.76.29-5.76.29s-2.38-2.57-6.94-.43c-3.39 1.59-10.18 15.56 4.37 18.4 14.6 2.83 16.07-16.16 8.31-18.23h.02v-.02z" class="cls-1"/><path d="M193.43 182.57c-2.14-.65-4.13-3.82-3.43-6 .22-.77-1.01-1.01-1.22-.22-.91 2.93 1.73 6.65 4.44 7.49.77.22 1.01-1.01.22-1.27z" class="cls-5"/><path d="M234.67 170.92l.58-38.91c0-.65-.48-1.2-1.13-1.2s-1.2.48-1.2 1.13l-.58 38.81 2.38.17h-.05z" class="cls-7"/><path d="M239.45 167.12c-3.77-.55-5.72.94-5.72.94s-2.62-2.28-6.94.38c-3.15 1.97-8.31 16.67 6.48 17.75 14.82 1.1 14.07-17.94 6.12-19.07h.05z" class="cls-1"/><path d="M230.97 183.24c-2.21-.43-4.54-3.31-4.13-5.57.17-.82-1.1-.86-1.27-.1-.55 2.98 2.47 6.39 5.33 6.94.82.17.86-1.13.1-1.27h-.02z" class="cls-5"/><path d="M268.51 170.82l3.31-38.76c.07-.65-.43-1.22-1.08-1.3s-1.22.43-1.3 1.08l-3.31 38.64 2.33.34h.05z" class="cls-7"/><path d="M273.51 167.39c-3.72-.82-5.74.55-5.74.55s-2.47-2.47-6.94-.1c-3.27 1.73-9.49 16.02 5.24 18.18 14.72 2.16 15.32-16.91 7.47-18.61l-.02-.02z" class="cls-1"/><path d="M263.9 182.88c-2.19-.55-4.32-3.63-3.72-5.84.19-.77-1.03-.98-1.27-.19-.77 2.95 2.02 6.56 4.8 7.3.77.19.98-1.03.19-1.27z" class="cls-5"/><g><path d="M109.9 13.48L91.57 93h204.2l-18.33-79.52H109.9z" class="cls-1" vector-effect="non-scaling-stroke"/><path d="M143.36 13.48L132 93h123.38l-11.36-79.52H143.36z" class="cls-2" vector-effect="non-scaling-stroke"/><path d="M175.44 13.48L171.16 93h45.03l-4.28-79.52h-36.48z" class="cls-1" vector-effect="non-scaling-stroke"/><path d="M91.57 93.01c1.3 12.13 7.42 18.37 18.33 18.73 10.9.36 18.28-5.91 22.1-18.73 3.12 12.49 9.34 18.73 18.73 18.73s16.16-6.22 20.44-18.73c3.79 11.72 11.34 17.92 22.53 18.66 11.22-.72 18.73-6.94 22.53-18.66 4.28 12.49 11.1 18.73 20.44 18.73s15.61-6.22 18.73-18.73c3.82 12.83 11.17 19.05 22.1 18.73 10.9-.36 17.03-6.58 18.33-18.73H91.57z" class="cls-5" vector-effect="non-scaling-stroke"/></g><g><path d="M269.43 196.04c-17.27 24.83-42.03 37.13-74.17 37.13s-56.39-11.43-74.17-37.13l-1.13.77c18.04 26.23 44.22 37.71 75.32 37.71s57.43-11.91 75.32-37.71l-1.13-.77h-.05z" class="cls-3"/><path d="M134.28 207.55l-27.19 29.93 20.42-2.71v20.42l21.78-36.72-14.96-10.88h-.05v-.02z" class="cls-2" vector-effect="non-scaling-stroke"/><path fill="#ed9751" d="M256.24 207.55l27.19 29.93-20.42-2.71v20.42l-21.74-36.72 14.96-10.88v-.02z" vector-effect="non-scaling-stroke"/><path d="M168.29 226.59L156.06 266l16.33-8.14 9.51 13.59 3.17-40.78-16.76-4.08h-.02z" class="cls-5" vector-effect="non-scaling-stroke"/><path d="M222.25 226.59L234.48 266l-16.33-8.14-9.51 13.59-3.17-40.78 16.76-4.08h.02z" class="cls-1" vector-effect="non-scaling-stroke"/></g><path d="M87.47 183.5h212.46v17.85H87.47z" class="cls-4" vector-effect="non-scaling-stroke"/><path d="M87.39 280.75H300v5.76H87.39z" class="cls-4"/></svg>