<?xml version="1.0" encoding="UTF-8"?>
<svg id="Camada_1" data-name="Camada 1" xmlns="http://www.w3.org/2000/svg" xmlns:xlink="http://www.w3.org/1999/xlink" viewBox="0 0 300 300">
  <defs>
    <style>
      .cls-1 {
        fill: #eeb637;
      }

      .cls-2 {
        fill: #fff;
      }

      .cls-3 {
        fill: none;
      }

      .cls-4 {
        fill: #f97875;
      }

      .cls-5 {
        fill: #a51717;
      }

      .cls-6 {
        clip-path: url(#clippath-1);
      }

      .cls-7 {
        fill: #0c5872;
      }

      .cls-8 {
        fill: #316d0f;
      }

      .cls-9 {
        isolation: isolate;
      }

      .cls-10 {
        fill: #efefef;
      }

      .cls-11 {
        fill: #aa35a2;
      }

      .cls-12 {
        fill: #074b5b;
      }

      .cls-13 {
        fill: #2c98d4;
      }

      .cls-14 {
        fill: #519630;
      }

      .cls-15 {
        fill: #d84338;
      }

      .cls-16 {
        fill: #b7b7b7;
      }

      .cls-17 {
        fill: #bf6e17;
      }

      .cls-18 {
        fill: #29540f;
      }

      .cls-19 {
        clip-path: url(#clippath);
      }

      .cls-20 {
        fill: #d649c5;
      }

      .cls-21 {
        fill: #6bbd4a;
      }
    </style>
    <clipPath id="clippath">
      <polygon class="cls-3" points="157.75 144.72 173.23 111.27 183.09 112.5 176.32 143.18 157.75 144.72"/>
    </clipPath>
    <clipPath id="clippath-1">
      <polygon class="cls-3" points="75.77 218.78 114.05 176.56 128.44 184.68 92.28 224.56 75.77 218.78"/>
    </clipPath>
  </defs>
  <path class="cls-2" d="M300,150.2c0-1.66-.66-3.25-1.83-4.42L161.45,9.06c-1.22-1.22-2.82-1.83-4.42-1.83s-3.2.61-4.42,1.83L15.89,145.78c-1.17,1.17-1.83,2.76-1.83,4.42s.66,3.25,1.83,4.42l3.98,3.98c-5.42,4.92-9.57,9.58-12.8,13.21l-.47.53c-1.46,1.64-1.96,3.93-1.29,6.03l.88,2.78c.63,2,2.22,3.56,4.24,4.13l2.75.79c-6.59,8.12-9.68,16.39-6.57,30.88-1.82,2.6-7.17,6.43-6.54,10.1,0,0,1.29,22.44,1.29,22.44-1.28,3.71,22.92,24.08,25.81,25.44,5.66,2.67,22.98,1.08,26.96.27,3.41-.69,6.28-4.61,8.41-6.69,11.95,2.64,14.32-2.87,21.23-10.74,3.06,4,8.32,7.23,12.44,2.18,1.39,1.99,4.32,2.36,6.54,2.75,5.82.88,8.34-5.52,12.16-9.07l37.71,37.71c2.44,2.44,6.4,2.44,8.84,0l136.72-136.72c1.17-1.17,1.83-2.76,1.83-4.42Z"/>
  <g>
    <rect class="cls-1" x="60.33" y="53.52" width="193.35" height="193.35" transform="translate(-60.22 155.01) rotate(-45)"/>
    <g>
      <g>
        <path class="cls-5" d="M75.87,233.92c-.96.06-1.81.1-2.57.15-1.3.08-2.33.14-3.17.18-.19.01-.38.02-.56.03-.47.03-.88.05-1.24.07-.14,0-.27.02-.4.02-.25.01-.47.03-.68.04-1.05.06-1.66.1-2.92.17-.38.02-.81.05-1.33.08l-31.71,35.6,22.44-1.3,31.71-35.6c-4.03.23-7.14.41-9.57.56Z"/>
        <polygon class="cls-4" points="39.03 209.21 37.98 191.09 6.27 226.69 7.56 249.13 39.27 213.52 39.03 209.21"/>
        <rect class="cls-15" x="11.44" y="226" width="47.68" height="31.78" transform="translate(-168.82 107.36) rotate(-48.31)"/>
        <path class="cls-15" d="M39.27,213.52l23.73,21.13c.52-.03.96-.05,1.33-.08,1.26-.07,1.87-.11,2.92-.17.21-.01.43-.02.68-.04.13,0,.26-.01.4-.02.36-.02.77-.04,1.24-.07.18-.01.36-.02.56-.03.84-.05,1.88-.11,3.17-.18.76-.04,1.61-.09,2.57-.15,2.43-.14,5.53-.32,9.57-.56l-1.29-22.44-23.73-21.13-22.44,1.3c.35,6.04.7,12.05,1.05,18.13l.25,4.31Z"/>
      </g>
      <g>
        <g>
          <polygon class="cls-12" points="121.92 135.94 125.14 131.99 96.14 193 93.03 196.83 121.92 135.94"/>
          <path class="cls-13" d="M92.49,194.62l30.91-58.75,1.73-3.88s-32.83,52.03-28.99,61.02l-3.65,1.61Z"/>
          <g>
            <polygon class="cls-18" points="106.37 237.38 90.99 256.28 82.83 247.86 97.85 229.82 106.37 237.38"/>
            <path class="cls-14" d="M108.33,235.07c-.95,1.1-16.66,20.98-17.34,21.21,1.06-1.34,16.5-20.91,17.34-21.21Z"/>
            <polyline class="cls-12" points="45.85 166.17 34.82 179.73 39.48 182.63 52.8 173.17 45.85 166.17"/>
            <polygon class="cls-12" points="107.94 218.56 104.09 223.3 101.41 221.12 103.1 215.64 107.69 217.71 107.94 218.56"/>
            <g>
              <path class="cls-8" d="M100.12,227.32l-14.87,18.28c-19.53,17.41-54.57-9.41-62.07-29.85-7.82-16.38,8.45-27.04,16.08-37.96-16.19,26.13,38.55,70.7,60.87,49.54Z"/>
              <path class="cls-21" d="M100.12,227.32c-22.3,21.16-77.05-23.39-60.87-49.53,21.87-21.37,77.34,23.78,60.87,49.53Z"/>
            </g>
            <path class="cls-21" d="M83.08,232.81l3.9,11.74s-10.75,1.39-20.73-6.14l.51-11.31,16.32,5.71Z"/>
            <path class="cls-14" d="M28.99,199.13l1.29-22.67-15.34,17.17h0c-3.91,5.47-3.82,16.82-1.97,23.29l-.03.03,16.05-17.83Z"/>
            <path class="cls-21" d="M38.61,198.04l-.06-17.08-9.17-5.28c.16-.22-4.56,9.03-.38,23.25l9.6-.88Z"/>
            <path class="cls-14" d="M71.28,262.45l15.74-17.87-.04-.02c-11.67.97-20.73-6.14-20.73-6.14l-14.89,18.3s9.4,7.7,19.92,5.74Z"/>
            <path class="cls-13" d="M97.65,229.66l5.19-7.92,7.57,4.27s1.36,6.96-4.23,11.21l-8.52-7.56Z"/>
            <path class="cls-13" d="M49.01,172.69l-3.16-6.52s10.62-4.3,19.62,3.52l.1,5.12-16.57-2.12Z"/>
            <path class="cls-13" d="M99.25,204.95l4.49-.63s7.14,5.27,4.2,14.24l-5.22-2.16-3.48-10.76"/>
            <polygon class="cls-18" points="66.74 227.58 51.61 245.72 51.36 256.71 66.25 238.42 66.74 227.58"/>
            <polygon class="cls-18" points="12.94 216.95 22.9 215.14 38.22 198.08 29 198.93 12.94 216.95"/>
            <path class="cls-21" d="M57.83,221.95l-13.8-13.77-9.57,3.67s5.51,10.27,18.28,18.71l5.09-8.61Z"/>
            <path class="cls-14" d="M18.69,229.56s6.05,10.76,18.03,18.66l16.02-17.66c-10.59-7.17-18.28-18.71-18.28-18.71l-15.77,17.71Z"/>
          </g>
        </g>
        <g>
          <path class="cls-17" d="M174.86,138.41c-3.4,3.98-9.42,5.72-17.27,4.27-15.7-2.9-32.76-17.45-38.11-32.5-2.67-7.52-1.9-13.75,1.49-17.73,3.4-3.98,9.42-5.72,17.27-4.27,15.71,2.9,32.77,17.45,38.11,32.5,2.67,7.52,1.9,13.74-1.49,17.73Z"/>
          <g>
            <path class="cls-13" d="M119.49,110.18c-2.67-7.52-1.9-13.75,1.49-17.73l-77.3,86.13c-3.4,3.98-4.16,10.2-1.49,17.73,4.18,11.77,15.53,23.21,27.79,29.03l77.3-86.13c-12.26-5.83-23.61-17.26-27.79-29.03Z"/>
            <path class="cls-7" d="M163.68,143.16c-1.88.07-3.92-.09-6.09-.49-3.41-.63-6.9-1.83-10.31-3.47l-77.3,86.13c3.42,1.63,6.9,2.84,10.31,3.47,2.17.4,4.21.56,6.09.49,4.91-.18,8.73-1.88,11.18-4.75l77.3-86.13c-2.45,2.87-6.28,4.58-11.18,4.75Z"/>
          </g>
        </g>
        <g>
          <path class="cls-5" d="M194.79,152.95l-40.94,3.26c3.37-7.19,38.67-88.59,40.03-91.49l.92,88.24Z"/>
          <path class="cls-4" d="M193.87,64.71c-2.93,1.99-77.96,49.55-84.22,53.8l-3.25-40.95,87.46-12.86Z"/>
          <path class="cls-15" d="M153.84,156.2l-44.19-37.69c6.57-4.46,81.57-52,84.22-53.8-1.5,3.2-36.81,84.64-40.03,91.49Z"/>
          <g>
            <polygon class="cls-3" points="170.68 117.32 168.99 121.35 173.8 117.78 170.68 117.32"/>
            <g class="cls-9">
              <g class="cls-19">
                <polyline class="cls-16" points="182.1 112.37 173.3 111.28 170.75 117.35 173.38 118.08 169.09 121.29 164.2 132.91 176.07 122.75 171.47 143.61 176.32 143.18 182.65 112.41"/>
              </g>
            </g>
            <polygon class="cls-10" points="144.02 139.87 147.81 144.97 164.2 132.91 169.09 121.29 144.02 139.87"/>
            <polygon class="cls-10" points="149.99 107.83 149.06 114.11 170.75 117.35 173.3 111.28 149.99 107.83"/>
          </g>
        </g>
        <line class="cls-3" x1="132.15" y1="134.45" x2="135.01" y2="131.1"/>
        <g class="cls-9">
          <g class="cls-6">
            <g>
              <polyline class="cls-11" points="97.16 195.63 92.83 200.49 95.45 200.4 97.16 195.63"/>
              <polyline class="cls-11" points="113.41 177.56 108.25 183.31 107.14 185.86 113.69 184.41 112.01 189.57 105.46 191.01 103.01 198.64 109.62 197.17 108 202.31 101.39 203.77 99.03 211.11 91.48 212.79 93.85 205.45 87.35 206.58 83.97 210.36 82.46 214.79 79.49 215.35 76.53 218.66 85.11 216.76 87.46 209.43 89.42 208.99 87.07 216.32 101.69 213.09 104.05 205.74 110.67 204.28 114.02 193.63 107.43 195.09 108.11 192.99 114.65 191.53 118.12 180.87 111.54 182.33 113.41 177.56"/>
              <polyline class="cls-16" points="83.97 210.36 79.49 215.35 82.46 214.79 83.97 210.36"/>
              <polyline class="cls-16" points="113.69 184.41 107.14 185.86 108.25 183.31 97.16 195.63 95.45 200.4 92.83 200.49 87.35 206.58 93.85 205.45 91.48 212.79 99.03 211.11 101.39 203.77 108 202.31 109.62 197.17 103.01 198.64 105.46 191.01 112.01 189.57 113.69 184.41"/>
            </g>
          </g>
        </g>
        <g>
          <polygon class="cls-20" points="110.35 175.7 102.92 175.02 100.3 184.49 91.42 183.66 94.04 174.18 86.6 173.49 83.98 182.96 77.47 182.36 75.64 188.87 82.14 189.48 79.44 199.13 72.94 198.51 71.15 205.04 77.65 205.64 75.06 214.93 79.49 215.35 76.53 218.66 70.6 218.1 73.2 208.81 66.72 208.2 70.42 194.71 76.94 195.31 77.69 192.64 71.16 192.03 74.98 178.54 81.47 179.15 84.09 169.68 98.49 171.02 95.86 180.49 97.8 180.67 100.42 171.2 114.8 172.54 113.41 177.56 108.25 183.31 110.35 175.7"/>
          <polygon class="cls-3" points="92.11 193.87 91.3 196.77 93.24 196.96 94.04 194.05 92.11 193.87"/>
          <path class="cls-20" d="M98.48,190.87l-8.89-.83-2.73,9.89,5.97.55,4.32-4.81,1.33-4.81ZM91.3,196.77l.81-2.9,1.93.18-.8,2.91-1.94-.19Z"/>
          <polygon class="cls-10" points="98.48 190.87 89.59 190.05 86.86 199.94 92.83 200.49 87.39 206.55 85.1 206.34 83.97 210.36 79.49 215.35 75.06 214.93 77.65 205.64 71.15 205.04 72.94 198.51 79.44 199.13 82.14 189.48 75.64 188.87 77.47 182.36 83.98 182.96 86.6 173.49 94.04 174.18 91.42 183.66 100.3 184.49 102.92 175.02 110.35 175.7 108.25 183.31 97.15 195.68 98.48 190.87"/>
          <polygon class="cls-20" points="83.97 210.36 87.39 206.55 85.1 206.34 83.97 210.36"/>
        </g>
        <g>
          <g>
            <polygon class="cls-1" points="130.78 180.85 130.78 180.85 130.85 180.76 130.78 180.85"/>
            <g class="cls-9">
              <polygon class="cls-1" points="126.74 180.18 126.74 180.18 126.82 180.09 126.74 180.18"/>
            </g>
          </g>
          <g>
            <path class="cls-11" d="M103.89,256.56l-2.86-.55c.86-.95,1.35-2.27,2.18-3.18,26.33-29.21,26.57-65.05,29.01-71.58l2.3,2.07c-.07,39.57-16.36,57.51-30.64,73.24Z"/>
            <polygon class="cls-1" points="135.64 182.42 135.64 182.42 135.72 182.34 135.64 182.42"/>
            <g class="cls-9">
              <g>
                <polygon class="cls-1" points="132.42 181.49 132.42 181.49 132.5 181.41 132.42 181.49"/>
                <path class="cls-20" d="M111.63,243.45c-5.56,7.07-9.74,11.6-10.6,12.56l-11.36-27.34,42.56-47.42c-.2.05.49,35.38-20.59,62.2Z"/>
              </g>
            </g>
            <line class="cls-3" x1="132.42" y1="181.49" x2="135.64" y2="182.42"/>
          </g>
          <g>
            <path class="cls-11" d="M11.24,176.49l.87,2.78c.85-.97,2.1-1.61,2.91-2.53,25.98-29.52,61.56-33.89,67.75-37.07l-2.32-2.05c-39.29,4.63-59.21,27.64-69.22,38.88Z"/>
            <polygon class="cls-1" points="81.22 136.41 81.22 136.41 81.29 136.32 81.22 136.41"/>
            <g class="cls-9">
              <g>
                <polygon class="cls-1" points="82.51 139.5 82.51 139.5 82.58 139.42 82.51 139.5"/>
                <path class="cls-20" d="M23.36,167.3c-6.38,6.34-10.4,11.01-11.25,11.98l28.46,8.14,42.2-47.74c-.03.2-35.2,3.59-59.42,27.63Z"/>
              </g>
            </g>
            <line class="cls-3" x1="82.51" y1="139.5" x2="81.22" y2="136.41"/>
          </g>
          <g>
            <polygon class="cls-1" points="83.57 138.63 83.57 138.63 83.64 138.54 83.57 138.63"/>
            <g class="cls-9">
              <polygon class="cls-1" points="84.84 142.45 84.83 142.45 84.91 142.36 84.84 142.45"/>
            </g>
          </g>
        </g>
      </g>
    </g>
  </g>
</svg>