<svg xmlns="http://www.w3.org/2000/svg" id="Camada_1" x="0" y="0" version="1.1" viewBox="0 0 42 48" xml:space="preserve"><style>.st2{fill:#031326}</style><path fill="#a475ef" d="M39.4 28.8l.2 3.1L2 45.6l.3-6.7.4-3.8 37.5-13.7-.6 2.8z"/><path fill="#bf94f7" d="M39.9 16.5l-.7 5.7L2.4 35.6l-.6-7.5-.5-2.4 38.8-14.1z"/><path d="M21.3 19.4c-3.8 0-6.9 3.1-6.9 6.9 0 3.8 3.1 6.9 6.9 6.9 3.8 0 6.9-3.1 6.9-6.9 0-3.8-3-6.9-6.9-6.9zm3.7 4.9l-4.4 4.4c-.1.1-.3.2-.5.2s-.4-.1-.5-.2l-2.2-2.2c-.3-.3-.3-.8 0-1.1.3-.3.8-.3 1.1 0l1.7 1.7 3.9-3.9c.3-.3.8-.3 1.1 0 .1.4.1.8-.2 1.1z" class="st2"/><path d="M39.8 47.8h-38c-.7 0-1.2-.6-1.2-1.2V7.8c0-.7.6-1.2 1.2-1.2h6.1c.7 0 1.2.6 1.2 1.2S8.6 9 7.9 9H3.1v36.3h35.5V9h-4.8c-.7 0-1.2-.6-1.2-1.2s.6-1.2 1.2-1.2h6.1c.7 0 1.2.6 1.2 1.2v38.8c0 .6-.6 1.2-1.3 1.2z" class="st2"/><path d="M29.9 13.1H11.7c-.4 0-.8-.3-.8-.8V6.2c0-.4.3-.8.8-.8h3.1c.4-3 2.9-5.3 6-5.3s5.7 2.3 6 5.3h3.1c.4 0 .8.3.8.8v6.1c0 .4-.3.8-.8.8zm-17.5-1.5h16.8V7h-3.1c-.4 0-.8-.3-.8-.8 0-2.5-2.1-4.6-4.6-4.6-2.5 0-4.6 2.1-4.6 4.6 0 .4-.3.8-.8.8h-3.1v4.6zm14.5-5.4z" class="st2"/><circle cx="20.8" cy="6.2" r="1.5" class="st2"/><path d="M35.3 42.7H6.4c-.4 0-.8-.3-.8-.8V12.3c0-.4.3-.8.8-.8s.8.3.8.8v28.9h27.4V12.3c0-.4.3-.8.8-.8s.8.3.8.8V42c-.2.4-.5.7-.9.7z" class="st2"/></svg>