<?xml version="1.0" encoding="utf-8"?>
<!-- Generator: Adobe Illustrator 24.0.0, SVG Export Plug-In . SVG Version: 6.00 Build 0)  -->
<svg version="1.1" id="Camada_1" xmlns="http://www.w3.org/2000/svg" xmlns:xlink="http://www.w3.org/1999/xlink" x="0px" y="0px"
	 viewBox="0 0 42 48" style="enable-background:new 0 0 42 48;" xml:space="preserve">
<style type="text/css">
	.st0{fill:#A475EF;}
	.st1{fill:#BF94F7;}
	.st2{fill:#444444;}
</style>
<title>administracao-do-sql-server-2017</title>
<desc>Created with Sketch.</desc>
<g>
	<polygon class="st0" points="39.4,28.8 39.6,31.9 2,45.6 2.3,38.9 2.7,35.1 40.2,21.4 39.6,24.2 	"/>
</g>
<g>
	<polygon class="st1" points="39.9,16.5 39.2,22.2 2.4,35.6 1.8,28.1 1.3,25.7 40.1,11.6 	"/>
</g>
<g>
	<path class="st2" d="M21.3,19.4c-3.8,0-6.9,3.1-6.9,6.9c0,3.8,3.1,6.9,6.9,6.9c3.8,0,6.9-3.1,6.9-6.9
		C28.2,22.5,25.2,19.4,21.3,19.4z M25,24.3l-4.4,4.4c-0.1,0.1-0.3,0.2-0.5,0.2c-0.2,0-0.4-0.1-0.5-0.2l-2.2-2.2
		c-0.3-0.3-0.3-0.8,0-1.1c0.3-0.3,0.8-0.3,1.1,0l1.7,1.7l3.9-3.9c0.3-0.3,0.8-0.3,1.1,0C25.3,23.6,25.3,24,25,24.3z"/>
</g>
<g>
	<path class="st2" d="M39.8,47.8h-38c-0.7,0-1.2-0.6-1.2-1.2V7.8c0-0.7,0.6-1.2,1.2-1.2h6.1c0.7,0,1.2,0.6,1.2,1.2S8.6,9,7.9,9H3.1
		v36.3h35.5V9h-4.8c-0.7,0-1.2-0.6-1.2-1.2s0.6-1.2,1.2-1.2h6.1c0.7,0,1.2,0.6,1.2,1.2v38.8C41.1,47.2,40.5,47.8,39.8,47.8z"/>
</g>
<g>
	<path class="st2" d="M29.9,13.1H11.7c-0.4,0-0.8-0.3-0.8-0.8V6.2c0-0.4,0.3-0.8,0.8-0.8h3.1c0.4-3,2.9-5.3,6-5.3
		c3.1,0,5.7,2.3,6,5.3h3.1c0.4,0,0.8,0.3,0.8,0.8v6.1C30.7,12.7,30.4,13.1,29.9,13.1z M12.4,11.6h16.8V7h-3.1
		c-0.4,0-0.8-0.3-0.8-0.8c0-2.5-2.1-4.6-4.6-4.6c-2.5,0-4.6,2.1-4.6,4.6c0,0.4-0.3,0.8-0.8,0.8h-3.1V11.6z M26.9,6.2L26.9,6.2
		L26.9,6.2z"/>
</g>
<g>
	<circle class="st2" cx="20.8" cy="6.2" r="1.5"/>
</g>
<g>
	<path class="st2" d="M35.3,42.7H6.4c-0.4,0-0.8-0.3-0.8-0.8V12.3c0-0.4,0.3-0.8,0.8-0.8s0.8,0.3,0.8,0.8v28.9h27.4V12.3
		c0-0.4,0.3-0.8,0.8-0.8s0.8,0.3,0.8,0.8V42C36,42.4,35.7,42.7,35.3,42.7z"/>
</g>
</svg>
