<?xml version="1.0" encoding="utf-8"?>
<!-- Generator: Adobe Illustrator 22.0.1, SVG Export Plug-In . SVG Version: 6.00 Build 0)  -->
<svg version="1.1" id="Layer_1" xmlns="http://www.w3.org/2000/svg" xmlns:xlink="http://www.w3.org/1999/xlink" x="0px" y="0px"
	 viewBox="0 0 50 50" style="enable-background:new 0 0 50 50;" xml:space="preserve">
<style type="text/css">
	.st0{fill:#75B6AE;}
	.st1{fill:#81CBC2;}
	.st2{fill:#464646;}
</style>
<g>
	<g>
		<path class="st0" d="M42.2,29.8c0.1-0.3,0.4-0.5,0.7-0.6c1.3-0.5,2.5-0.9,3.9-1.3c0.3-0.1,0.5-0.4,0.5-0.7c0-1.4,0-2.8,0.1-4.4
			c0-0.5-0.2-0.7-0.6-0.8c-1.2-0.5-2.5-0.9-3.8-1.4c-0.3-0.1-0.6-0.4-0.7-0.7c-0.5-1.2-0.9-2.4-1.4-3.7c-0.1-0.2-0.1-0.6,0-0.8
			c0.6-1.3,1.3-2.6,1.9-4.1c0.1-0.2,0.1-0.6-0.1-0.7c-0.7-0.7-1.4-1.5-2-2.2L2.2,22.3c0.1,1.2,0.1,2.3-0.1,3.5c-0.1,0.7,0,1,0.5,1.1
			c1.4,0.5,2.7,1,4.2,1.5c0.3,0.1,0.6,0.4,0.7,0.7C8,30.4,8.4,31.5,9,32.7c0.2,0.5,0.2,0.8,0,1.2c-0.6,1.2-1.2,2.4-1.8,3.5
			c-0.2,0.4-0.2,0.6,0.1,1c0.7,0.7,1.2,1.2,1.8,1.8l0.9,0.9c0.1,0.1,0.2,0.2,0.3,0.2l31.8-11.6C42.2,29.9,42.2,29.9,42.2,29.8z"/>
	</g>
	<g>
		<path class="st1" d="M39.9,8.1c-0.3-0.3-0.5-0.3-0.8-0.2c-1.3,0.6-2.6,1.2-3.9,1.8c-0.2,0.1-0.6,0.1-0.9,0c-1.2-0.5-2.4-1-3.6-1.5
			c-0.3-0.1-0.6-0.4-0.7-0.7c-0.5-1.3-0.9-2.5-1.3-3.8c-0.2-0.5-0.4-0.6-1.3-0.5c-1.1,0.2-2.3,0.1-3.4-0.1c-0.8-0.1-1,0-1.2,0.5
			c-0.5,1.2-1,2.5-1.4,3.7c-0.2,0.6-0.5,0.7-1.1,0.9c-1,0.2-1.9,0.6-2.8,1.1c-0.6,0.3-0.9,0.4-1.4,0.1c-1.2-0.6-2.5-1.2-3.7-1.9
			c-0.6-0.3-0.8-0.2-1.2,0.4c-0.8,1-1.6,1.8-2.6,2.5C8,10.8,8,11.1,8.3,11.5c0.6,1.3,1.2,2.5,1.7,3.8c0.1,0.3,0.1,0.7,0,0.9
			c-0.5,1.2-1.1,2.4-1.7,3.5c-0.1,0.3-0.4,0.6-0.7,0.7c-1.3,0.5-2.7,0.9-4,1.3c-0.5,0.1-0.7,0.4-0.6,1v0.1L40.9,9.1
			C40.5,8.8,40.2,8.5,39.9,8.1z"/>
	</g>
	<g>
		<path class="st2" d="M27.3,48.6c-0.3,0-0.7-0.1-0.9-0.1c-0.8-0.2-1.8-0.2-2.8,0c-0.5,0.1-2,0.3-2.6-1.4c-0.5-1.6-0.9-2.9-1.3-4.1
			c-0.5-0.2-1-0.4-1.5-0.7c-0.7-0.3-1.4-0.6-2-1l0,0c-0.7,0.3-1.4,0.6-2,0.9l-0.8,0.4c-0.3,0.1-0.6,0.2-0.9,0.3
			c-0.9,0.3-1.9,0-2.6-0.7L9,41.3c-0.7-0.7-1.2-1.2-1.8-1.8c-0.5-0.5-1-1.3-0.4-2.4c0.3-0.6,0.6-1.1,0.8-1.7
			c0.3-0.6,0.6-1.2,0.9-1.9c0,0,0,0,0-0.1c-0.3-0.7-0.6-1.3-0.9-2C7.5,31,7.2,30.5,7,30l-0.1-0.1c-1.4-0.6-2.8-1-3.9-1.4
			c-1.6-0.6-1.4-2-1.3-2.5c0.2-1.1,0.2-2.1,0-3.2c-0.2-1.6,0.7-2.2,1.5-2.4c1.5-0.5,2.7-0.9,4-1.3V19c0.6-1.1,1.2-2.3,1.7-3.5
			c-0.6-1.3-1.1-2.6-1.7-3.7C6.8,10.6,7,9.7,8,9c0.9-0.7,1.7-1.4,2.4-2.3c0.3-0.4,1.2-1.5,2.7-0.7c0.6,0.3,1.2,0.6,1.8,0.9
			s1.3,0.6,1.9,1c0,0,0.1,0,0.2-0.1c0.9-0.5,2-0.9,3.1-1.2c0.1,0,0.2-0.1,0.3-0.1c0.2-0.7,0.5-1.3,0.7-1.9s0.5-1.2,0.7-1.8
			c0.4-1.1,1.3-1.6,2.6-1.3c1.1,0.2,2,0.2,3,0.1C28,1.5,29.5,1.2,30.1,3c0.5,1.5,0.9,2.6,1.3,3.6c1.2,0.6,2.4,1.1,3.6,1.5
			c1.1-0.5,2.3-1.1,3.8-1.7C39.6,6,40.4,6.2,41,6.9c0.4,0.5,0.9,0.9,1.3,1.4c0.6,0.6,1.2,1.2,1.7,1.9c0.5,0.6,0.6,1.5,0.3,2.1
			c-0.3,0.7-0.7,1.4-1,2.1c-0.3,0.6-0.6,1.2-0.9,1.8c0.5,1.4,0.9,2.5,1.3,3.5l0.1,0.1c1.2,0.5,2.5,1,3.6,1.4c1.2,0.4,1.4,1.3,1.4,2
			c-0.1,1.3-0.1,2.7-0.1,4.2c0,0.9-0.6,1.7-1.4,1.9c-1,0.3-2.4,0.8-3.7,1.3c-0.3,0.6-1,0.9-1.6,0.6s-0.9-1-0.6-1.7
			c0.2-0.6,0.8-1.1,1.4-1.3c1.3-0.5,2.5-0.9,3.5-1.2c0-1.3,0-2.5,0.1-3.7c-1.1-0.4-2.3-0.9-3.5-1.4c-0.7-0.3-1.1-0.9-1.3-1.4
			c-0.4-1.1-0.9-2.2-1.4-3.7c-0.2-0.4-0.2-1.1,0.1-1.7c0.3-0.7,0.6-1.3,1-1.9c0.3-0.6,0.6-1.1,0.8-1.7c-0.5-0.5-0.9-1-1.4-1.5
			c-0.3-0.4-0.7-0.7-1-1.1c-1.3,0.6-2.5,1.1-3.6,1.6c-0.5,0.2-1.3,0.2-1.8,0c-1.2-0.5-2.5-1-3.7-1.5c-0.5-0.2-1.1-0.7-1.3-1.3
			c-0.4-1-0.8-2.1-1.2-3.6c-1.2,0.2-2.4,0.2-3.7-0.1c-0.2,0.5-0.4,1-0.6,1.5c-0.2,0.6-0.5,1.3-0.7,1.9c-0.4,1.1-1.2,1.4-2,1.6
			c-1,0.2-1.8,0.5-2.5,1c-0.7,0.4-1.5,0.7-2.6,0.1c-0.6-0.3-1.3-0.6-1.9-1c-0.5-0.2-1-0.5-1.5-0.8c-0.7,0.9-1.6,1.8-2.6,2.5
			c0.5,1.1,1.1,2.3,1.6,3.6c0.2,0.6,0.2,1.3-0.1,1.9c-0.6,1.2-1.1,2.4-1.8,3.6C9.5,20.4,9,21,8.3,21.2c-1.2,0.4-2.4,0.8-3.8,1.2
			c0.1,1.2,0.1,2.4-0.1,3.6c1.2,0.4,2.4,0.9,3.8,1.4c0.8,0.3,1.2,1.1,1.4,1.4c0.2,0.5,0.5,1.1,0.7,1.6c0.3,0.6,0.5,1.3,0.8,1.9
			c0.4,0.8,0.4,1.6,0,2.4c-0.3,0.6-0.6,1.2-0.9,1.8C10,37,9.7,37.5,9.5,38c0.6,0.6,1,1,1.6,1.6l0.8,0.8c0.1,0.1,0.1,0.1,0.2,0.1
			c0.2,0,0.4-0.1,0.5-0.2l0.8-0.4c0.7-0.3,1.3-0.6,2-0.9c1-0.5,1.7-0.2,2.2,0.1c0.6,0.3,1.3,0.6,1.9,0.9c0.5,0.2,1.1,0.5,1.6,0.8
			c0.6,0.3,1,0.8,1.2,1.3c0.4,1.1,0.8,2.3,1.2,3.8c1.3-0.2,2.5-0.2,3.6,0.1c0,0,0,0,0.1,0c0.5-1.4,0.9-2.6,1.4-3.7
			c0.3-0.7,0.9-1.1,1.3-1.3c1.2-0.5,2.5-1,3.8-1.6c0.6-0.2,1.3-0.2,1.8,0c0.6,0.3,0.9,1,0.6,1.7c-0.3,0.6-1,0.9-1.6,0.6
			c-1.3,0.5-2.5,1-3.7,1.5c-0.5,1.2-1,2.5-1.5,3.9C28.8,48.3,28,48.6,27.3,48.6z M34.3,41.7L34.3,41.7L34.3,41.7z M46.5,26.9
			L46.5,26.9L46.5,26.9z"/>
	</g>
	<g>
		<path class="st2" d="M25.5,16.4c-4.8-0.1-8.7,3.6-8.8,8.4c-0.1,4.8,3.7,8.7,8.4,8.8c4.8,0.1,8.7-3.7,8.8-8.4
			C33.9,20.4,30.1,16.5,25.5,16.4z M24.1,29.7c-0.2,0.2-0.5,0.3-0.8,0.3s-0.6-0.1-0.8-0.3L18.9,26c-0.2-0.2-0.3-0.5-0.3-0.8
			s0.1-0.6,0.3-0.8l0.5-0.5c0.2-0.2,0.5-0.3,0.8-0.3s0.6,0.1,0.8,0.3l2.2,2.2c0,0,0.1,0,0.2,0l6.1-5.9c0.5-0.5,1.2-0.5,1.7,0
			l0.5,0.5c0.5,0.5,0.5,1.2,0,1.7L24.1,29.7z"/>
	</g>
	<g>
		<path class="st2" d="M25.2,37.9c-7.1,0-12.9-5.8-12.9-12.9s5.8-12.9,12.9-12.9S38.1,17.9,38.1,25S32.3,37.9,25.2,37.9z M25.2,13.1
			c-6.5,0-11.9,5.3-11.9,11.9c0,6.5,5.3,11.9,11.9,11.9c6.5,0,11.9-5.3,11.9-11.9C37.1,18.5,31.8,13.1,25.2,13.1z"/>
	</g>
</g>
</svg>
