<?xml version="1.0" encoding="utf-8"?>
<!-- Generator: Adobe Illustrator 27.5.0, SVG Export Plug-In . SVG Version: 6.00 Build 0)  -->
<svg version="1.1" id="Camada_1" xmlns="http://www.w3.org/2000/svg" xmlns:xlink="http://www.w3.org/1999/xlink" x="0px" y="0px"
	 viewBox="0 0 50 50" style="enable-background:new 0 0 50 50;" xml:space="preserve">
<style type="text/css">
	.st0{fill:#04AD49;}
	.st1{fill:#22DD6D;}
	.st2{fill:none;stroke:#444444;stroke-width:2.5;stroke-linecap:round;stroke-linejoin:round;stroke-miterlimit:10;}
	.st3{fill:none;stroke:#444444;stroke-miterlimit:10;}
	.st4{fill:none;stroke:#444444;stroke-linecap:round;stroke-miterlimit:10;}
	.st5{fill:none;stroke:#444444;stroke-width:0.5;stroke-miterlimit:10;}
</style>
<polygon class="st0" points="29.2,19.3 37.3,21.9 30.3,26.8 30.4,35.4 23.5,30.3 15.5,33 18.2,24.9 13.1,18.1 21.6,18.2 26.6,11.1 
	"/>
<g>
	<path class="st1" d="M48.4,20.5c-0.2-0.8-2.7-7.5-3.2-8.1l-3-3.5L42,9l-7.6-5.8l-7.8-0.7c-3.2,0-14.5,0.3-21.4,10.2l-4,10.6
		l-0.2,0.1l4,13.4c0.1,0.4,4.5,5.7,4.9,5.9l5.6,3L47.7,34C48.3,33.5,49.3,25.3,48.4,20.5z"/>
	<g>
		<g>
			<g>
				<path class="st2" d="M32.8,47.4c-7,2.3-15,1.2-21.3-3.6C1.1,36.1-1,21.4,6.8,11"/>
				<path class="st2" d="M6.6,11.2c2-3,4.7-4.7,4.7-4.7L12,6c8.1-5.7,19.3-5.9,27.6,0.4c10.4,7.8,12.4,22.5,4.7,32.7"/>
			</g>
		</g>
	</g>
</g>
<g>
	<path class="st3" d="M25.7,40.5c-3.6-1.2-6.1-4.6-6.1-8.6c0-5,4.1-9,9-9s9,4.1,9,9c0,1.7-0.5,3.2-1.3,4.6"/>
	<g id="XMLID_00000071545928938835848020000004877406053305917105_">
		<circle id="XMLID_00000132070508515558552460000002188843966192088206_" class="st3" cx="28.8" cy="29.9" r="2.4"/>
	</g>
	<g id="XMLID_00000021094405736693786170000001512315542325305229_">
		<path id="XMLID_00000088835856209283200120000000377417159494705064_" class="st3" d="M28.8,32.4c-2.1,0-3.8,1.7-3.8,3.8h7.6
			C32.7,34.1,30.9,32.4,28.8,32.4z"/>
	</g>
	<line class="st4" x1="22.4" y1="38.7" x2="17.8" y2="43.2"/>
</g>
<g>
	<path class="st5" d="M22.6,25.1h-6.8c-2.8,0-5.1-2.3-5.1-5.1v-5.5c0-2.8,2.3-5.1,5.1-5.1h9.9c2.8,0,5.1,2.3,5.1,5.1v2.2"/>
	<line class="st5" x1="14.7" y1="19.2" x2="14.7" y2="24.8"/>
	<line class="st5" x1="17.2" y1="19.2" x2="17.2" y2="24.8"/>
	<line class="st5" x1="19.7" y1="19.2" x2="19.7" y2="24.8"/>
	<circle class="st5" cx="25.5" cy="14.6" r="1.7"/>
	<circle class="st5" cx="39.1" cy="19.1" r="1.3"/>
	<circle class="st5" cx="39.1" cy="24" r="1.3"/>
	<path class="st5" d="M40.3,21.4H30.1c-1.4,0-2.5-1.1-2.5-2.5v0c0-1.4,1.1-2.5,2.5-2.5h10.2c1.4,0,2.5,1.1,2.5,2.5v0
		C42.8,20.3,41.7,21.4,40.3,21.4z"/>
	<path class="st5" d="M27.9,22.9c0.4-0.8,1.2-1.4,2.2-1.4h10.2c1.4,0,2.5,1.1,2.5,2.5v0c0,1.4-1.1,2.5-2.5,2.5h-4.4"/>
</g>
</svg>
