<svg xmlns="http://www.w3.org/2000/svg" version="1" viewBox="0 0 50 50"><path fill="#A6C1C2" d="M3.753 14.802c.005.005.87 1.023 1.187 1.304.005 0 .005.006.01.006 1.013.403 2.11.62 3.26.62 1.66 0 3.208-.45 4.538-1.24.148-.085.286-.17.43-.265l.217-.207c-3.338 3.566-5.397 8.344-5.397 13.614 0 3.16.755 6.136 2.063 8.79l37.23-13.55c-2.137-8.71-9.977-15.183-19.348-15.183a19.86 19.86 0 0 0-12.61 4.5l.024-.024v-.006a8.903 8.903 0 0 0 1.78-5.353c0-.488-.036-.97-.116-1.436a8.707 8.707 0 0 0-.54-1.93l-.006-.004a7.73 7.73 0 0 0-.456-.95c-.122-.11-.25-.21-.376-.312l-.005-.005a8.38 8.38 0 0 0-5.126-1.745A8.38 8.38 0 0 0 3.674 4.95a8.39 8.39 0 0 0-1.558 4.875c0 1.86.604 3.578 1.633 4.972.005 0 .005.005.005.005z"/><path fill="#B9D7D9" d="M3.753 14.802c.005.005.87 1.023 1.187 1.304.005 0 .005.006.01.006.882.35 1.83.55 2.82.6l21.81-7.94a20.182 20.182 0 0 0-1.64-.083 19.86 19.86 0 0 0-12.61 4.497l.025-.023v-.006a8.903 8.903 0 0 0 1.78-5.353c0-.488-.036-.97-.116-1.436a8.707 8.707 0 0 0-.542-1.93l-.005-.006a7.73 7.73 0 0 0-.456-.95c-.122-.11-.25-.21-.376-.312l-.004-.005a8.38 8.38 0 0 0-5.125-1.744A8.38 8.38 0 0 0 5.206 3.31a8.658 8.658 0 0 0-1.532 1.64 8.39 8.39 0 0 0-1.558 4.875c0 1.86.604 3.578 1.633 4.972.005 0 .005.005.005.005z"/><g fill="#444"><path d="M27.942 7.49c-3.548 0-6.89.88-9.83 2.432.145-.69.225-1.397.225-2.117 0-.566-.045-1.117-.132-1.623-.12-.758-.55-2.004-.607-2.17-.444-1.182-1.13-1.75-1.63-2.087-.62-.4-2.84-1.702-5.457-1.702-2.2 0-4.353.766-6.07 2.162a9.843 9.843 0 0 0-1.745 1.867 9.555 9.555 0 0 0-1.78 5.572c0 2.062.645 4.028 1.823 5.62.574.893 2.893 2.486 5.472 2.486.483 0 1.054-.094 1.643-.236a21.015 21.015 0 0 0-3.055 10.938c0 11.66 9.485 21.144 21.144 21.144A20.95 20.95 0 0 0 40.76 45.45a1.2 1.2 0 0 0-1.458-1.908 18.57 18.57 0 0 1-11.36 3.834C17.606 47.376 9.2 38.968 9.2 28.632c0-5.04 2.008-9.612 5.255-12.984l1.492-1.402A18.653 18.653 0 0 1 27.942 9.89c10.336 0 18.743 8.407 18.743 18.742a1.2 1.2 0 0 0 2.4 0c0-11.658-9.485-21.143-21.143-21.143zM8.21 15.53c-1.647 0-3.202-1.067-3.497-1.445a7.132 7.132 0 0 1-1.397-4.26 7.17 7.17 0 0 1 1.334-4.18 7.38 7.38 0 0 1 1.313-1.403 7.13 7.13 0 0 1 4.548-1.618c1.558 0 3.168.68 4.135 1.304.232.157.496.37.695.902.157.448.428 1.313.496 1.742.067.388.1.803.1 1.233a7.678 7.678 0 0 1-1.494 4.568 21.08 21.08 0 0 0-1.965 1.862c-.716.337-3.14 1.296-4.267 1.296z"/><path d="M32.558 21.945c-.564.218-2.958-.78-5.037-2.108-.646-.383-1.622-.63-2.486-.63a5.2 5.2 0 0 0-4.127 2.012l-.097.124-.053.15a36.57 36.57 0 0 0-.918 3.05l-.03.134a39.345 39.345 0 0 0-1.2 9.414c-.54-.7-1.034-1.432-1.48-2.193-.4-.677-1.102-2.16-1.108-2.174l-.168-.355-.368-.135a2.705 2.705 0 0 0-.938-.163 2.77 2.77 0 0 0-2.513 1.575l-.096.203.01.366c.116.757.29 1.51.515 2.243l.045.148A16.135 16.135 0 0 0 27.948 44.91c8.928 0 16.19-7.265 16.19-16.196a16.14 16.14 0 0 0-4.313-11 16.195 16.195 0 0 0-3.574-2.9l-.347-.208-.39.104a3.602 3.602 0 0 0-1.937 1.285 3.57 3.57 0 0 0-.765 2.225c0 .432.21 1.195.35 1.533h-.003c.14.338.25.867.193 1.29-.05.396-.35.734-.792.902zm2.697-.642c.143-1.042-.207-2.006-.318-2.277l-.01-.027c-.064-.177-.19-.64-.193-.78 0-.384.123-.744.364-1.052a1.67 1.67 0 0 1 .558-.467 14.316 14.316 0 0 1 2.764 2.32 14.227 14.227 0 0 1 3.802 9.694c0 7.87-6.402 14.275-14.27 14.275a14.22 14.22 0 0 1-13.564-9.824l-.045-.145a13.934 13.934 0 0 1-.434-1.75.86.86 0 0 1 .592-.277c.253.522.676 1.375.974 1.88a22.833 22.833 0 0 0 3.492 4.533l1.815 1.828-.175-2.57a33.798 33.798 0 0 1-.077-2.345c0-3.133.395-6.256 1.17-9.284l.03-.137c.226-.874.49-1.753.788-2.618a3.287 3.287 0 0 1 2.517-1.157c.58 0 1.21.187 1.48.346 1.11.71 4.872 2.973 6.727 2.27 1.11-.422 1.863-1.334 2.013-2.437z"/></g></svg>