<?xml version="1.0" encoding="utf-8"?>
<!-- Generator: Adobe Illustrator 22.0.1, SVG Export Plug-In . SVG Version: 6.00 Build 0)  -->
<svg version="1.1" id="Layer_1" xmlns="http://www.w3.org/2000/svg" xmlns:xlink="http://www.w3.org/1999/xlink" x="0px" y="0px"
	 viewBox="0 0 50 50" style="enable-background:new 0 0 50 50;" xml:space="preserve">
<style type="text/css">
	.st0{fill:#D4FF73;}
	.st1{fill:#BEE367;}
	.st2{fill:#444444;}
	.st3{fill:none;stroke:#444444;stroke-width:2.5;stroke-linecap:round;stroke-miterlimit:10;}
</style>
<g>
	<path class="st0" d="M25,1.6C14.8,1.6,6.1,8.2,2.9,17.3L37,4.9C33.5,2.9,29.4,1.6,25,1.6z"/>
</g>
<g>
	<path class="st1" d="M37,4.9l-34,12.4c-0.8,2.4-1.3,5-1.3,7.7c0,5,1.6,9.7,4.3,13.5l42.3-15.4C47.7,15.4,43.3,8.7,37,4.9z"/>
</g>
<g>
	<g>
		<path class="st2" d="M37.6,22.1c-0.6,0-1.2,0.2-1.6,0.5l-8.9-7.1c0.2-0.4,0.3-0.9,0.3-1.4c0-1.7-1.4-3-3-3c-1.7,0-3,1.4-3,3
			c0,0.2,0,0.4,0.1,0.6l-6.5,3.7c-0.5-0.8-1.5-1.2-2.4-1.2c-1.7,0-3,1.4-3,3s1.4,3,3,3c0.5,0,0.9-0.1,1.3-0.3l1.8,2.5l-1.6,2.2
			c-0.5-0.2-0.9-0.4-1.5-0.4c-1.7,0-3,1.4-3,3c0,1.6,1.3,3,3,3c1,0,1.9-0.5,2.4-1.2l6.5,3.1c-0.1,0.2-0.1,0.5-0.1,0.7
			c0,1.7,1.4,3,3,3c1.7,0,3-1.4,3-3c0-0.3-0.1-0.7-0.2-1l8.7-7.2c0.5,0.3,1.1,0.5,1.7,0.5c1.7,0,3-1.4,3-3S39.2,22.1,37.6,22.1z
			 M27.3,24.6c-0.3-1.4-1.5-2.5-3-2.5c-1.1,0-2,0.5-2.6,1.4l-2.6-1.1l4-5.4c0.4,0.2,0.8,0.2,1.2,0.2c0.8,0,1.5-0.3,2-0.8l8.8,7
			c-0.2,0.3-0.4,0.7-0.5,1.2C34.6,24.6,27.3,24.6,27.3,24.6z M25.4,25.2c0,0.6-0.5,1.1-1.1,1.1c-0.6,0-1.1-0.5-1.1-1.1
			c0-0.6,0.5-1.1,1.1-1.1C24.9,24.1,25.4,24.6,25.4,25.2z M21.3,25.8l-3,1.4l-1.3-1.8l1.5-1.9l2.9,1.2c0,0.2-0.1,0.4-0.1,0.5
			S21.2,25.6,21.3,25.8z M24.3,13.1c0.6,0,1.1,0.5,1.1,1.1s-0.5,1.1-1.1,1.1c-0.6,0-1.1-0.5-1.1-1.1S23.6,13.1,24.3,13.1z
			 M21.8,15.9c0.1,0.2,0.2,0.3,0.4,0.5L18,22l-2.6-1.2c0.1-0.2,0.1-0.5,0.1-0.6c0-0.2-0.1-0.5-0.1-0.8L21.8,15.9z M11.3,20.2
			c0-0.6,0.5-1.1,1.1-1.1s1.1,0.5,1.1,1.1s-0.5,1.1-1.1,1.1S11.3,20.8,11.3,20.2z M14.6,22.2c0.1-0.1,0.2-0.2,0.2-0.3l2.4,1
			l-1.1,1.5L14.6,22.2z M17.2,27.6l-2.2,1c-0.1-0.1-0.2-0.2-0.2-0.3l1.5-1.9L17.2,27.6z M12.4,31.3c-0.6,0-1.1-0.5-1.1-1.1
			s0.5-1.1,1.1-1.1s1.1,0.5,1.1,1.1C13.4,30.8,13,31.3,12.4,31.3z M15.3,31.1c0.1-0.2,0.2-0.5,0.2-0.8c0-0.2,0-0.3-0.1-0.5l2.5-1.2
			l4,5.4c0,0,0,0-0.1,0.1L15.3,31.1z M24.3,37c-0.6,0-1.1-0.5-1.1-1.1c0-0.6,0.5-1.1,1.1-1.1c0.6,0,1.1,0.5,1.1,1.1
			C25.4,36.5,24.9,37,24.3,37z M24.3,32.8c-0.5,0-1.1,0.2-1.6,0.5L19,28.1l2.8-1.2c0.5,0.9,1.5,1.4,2.6,1.4c1.5,0,2.7-1.1,3-2.5h7.3
			c0.1,0.4,0.2,0.8,0.5,1.1l-8.6,7C26,33.2,25.2,32.8,24.3,32.8z M37.6,26.3c-0.6,0-1.1-0.5-1.1-1.1c0-0.6,0.5-1.1,1.1-1.1
			c0.6,0,1.1,0.5,1.1,1.1C38.7,25.9,38.2,26.3,37.6,26.3z"/>
	</g>
	<g>
		<path class="st3" d="M34.2,46.5"/>
	</g>
	<g>
		<path class="st2" d="M25,49.6c-13.6,0-24.6-11-24.6-24.6c0-13.6,11-24.6,24.6-24.6c13.3,0,24.3,10.8,24.6,24.1c0,0.2,0,0.4,0,0.5
			c0,0.7-0.6,1.2-1.2,1.2s-1.2-0.6-1.2-1.2c0-0.2,0-0.3,0-0.5C46.8,12.6,36.9,2.9,25,2.9C12.8,2.9,2.9,12.8,2.9,25
			c0,12.2,9.9,22.1,22.1,22.1c3,0,5.9-0.6,8.7-1.8c0.6-0.3,1.4,0,1.6,0.7c0.3,0.6,0,1.4-0.7,1.6C31.6,48.9,28.4,49.6,25,49.6z"/>
	</g>
</g>
</svg>
