<svg xmlns="http://www.w3.org/2000/svg" id="Camada_3" x="0" y="0" version="1.1" viewBox="0 0 50 50" xml:space="preserve"><style>.st0{fill:#b68af3}.st1{fill:#e5e5e5}</style><path d="M47.1 13.9L35 28l-.1.1-6 3.5 9.2.4 9.5-7.5V14c-.1-.1-.3-.1-.5-.1.1-.1.1 0 0 0zm.5 22.2V25.7l-8.3 6.6z" class="st0"/><path d="M37.1 38.4c-1.7.1-3.4.6-4.9 1.4-4.5 2.4-8.7 3.3-12.2 3.3-7.1 0-11.7-3.2-11.8-3.3-.2-.1-.2-.4-.2-.6l8-24.1c0-.2.2-.3.3-.3.2 0 .3 0 .4.1 1.8 1.3 4.5 1.8 4.6 1.8.3.1.4.3.4.6-.1.3-.3.4-.6.4-.1 0-2.5-.5-4.4-1.6l-5.7 17 10.8 1.4 12.2-7v-.1l-1.7-8.8c-.1-.3.1-.5.4-.6.3-.1.5.1.6.4l1.6 8.3 11.3-13.1c-2.1-.6-4.9-1-6.4.4-.2.2-.5.2-.7 0s-.2-.5 0-.7c2.1-2.1 6.2-1.1 8.5-.3V8.6C47.6 5.5 45.1 3 42 3H8.3c-3 0-5.5 2.5-5.5 5.6v33.8c0 3.1 2.5 5.6 5.6 5.6h33.7c1 0 1.9-.2 2.7-.7 1.7-.9 2.9-2.8 2.9-4.9v-2.1c-4.5-1.9-8.2-2.1-10.6-1.9zm-14-31.8c0-.6.4-1 1-1h12.4c.5 0 1 .3 1.2.7s.2 1-.1 1.4l-2.7 3.4 2.7 3.3c.3.4.4 1 .2 1.4-.2.5-.7.7-1.2.7l-11.4-.4V25c0 .6-.4 1-1 1s-1-.4-1-1V6.6z" class="st0"/><path d="M10.8 34.1l-1.7 5.1c1.6 1 9 5 18.9 1.4l-6.2-5.2-11-1.3zm16.5-1.6L22.8 35l6.2 5.2c.9-.4 1.8-.8 2.7-1.3 1.6-.9 3.5-1.4 5.3-1.6 2.4-.2 6.1.1 10.6 1.8v-2L38.2 33l-10.9-.5zm5.5-20.7c-.3-.4-.3-.9 0-1.2l2.3-2.9h-10v6.6l10 .3-2.3-2.8z" class="st0"/><path d="M24.1 26c.6 0 1-.4 1-1v-8.7l11.4.4c.6 0 1-.3 1.2-.7.2-.5.2-1-.2-1.4l-2.7-3.3 2.7-3.4c.3-.4.4-.9.1-1.4s-.6-.9-1.1-.9H24.1c-.6 0-1 .4-1 1V25c0 .5.4 1 1 1zm1-18.4h10l-2.3 2.9c-.3.4-.3.9 0 1.2l2.3 2.8-10-.3V7.6z" class="st1"/><path d="M37.1 37.4c-1.8.1-3.7.7-5.3 1.6-.9.5-1.8.9-2.7 1.3l-6.2-5.2 4.4-2.6 10.9.5 9.5 4.2v-1.1l-8.4-3.7 8.4-6.6v-1.3L38.1 32l-9.2-.4 6-3.5.1-.1 12.1-14.1s0-.1.1-.1c.2.1.3.1.5.2v-1.1c-2.3-.8-6.4-1.8-8.5.3-.2.2-.2.5 0 .7s.5.2.7 0c1.5-1.5 4.2-1 6.4-.4L34.9 26.6l-1.6-8.3c-.1-.3-.3-.4-.6-.4-.3.1-.4.3-.4.6l1.7 8.8v.1l-12.2 7L11 33l5.7-17c1.9 1.1 4.3 1.6 4.4 1.6.3 0 .5-.1.6-.4.1-.3-.1-.5-.4-.6 0 0-2.8-.5-4.6-1.8-.1-.1-.3-.1-.4-.1-.2 0-.3.2-.3.3L8 39.2c-.1.2 0 .4.2.6.1 0 4.7 3.3 11.8 3.3 3.5 0 7.7-.8 12.2-3.3 1.5-.8 3.2-1.3 4.9-1.4 2.4-.2 6.1.1 10.5 1.9v-1.1c-4.4-1.8-8.1-2-10.5-1.8zm-28 1.8l1.7-5.1 11 1.4 6.2 5.2c-9.9 3.5-17.3-.5-18.9-1.5z" class="st1"/></svg>