<svg xmlns="http://www.w3.org/2000/svg" id="Camada_1" data-name="Camada 1" viewBox="0 0 300 300"><defs><style>.cls-1,.cls-2{fill:#07e570}.cls-3{fill:#079e4b}.cls-2,.cls-3,.cls-4,.cls-5,.cls-6{fill-rule:evenodd}.cls-4{fill:#6d3584}.cls-10,.cls-5{fill:#fff;isolation:isolate;opacity:.33}.cls-11,.cls-6{fill:#c75eeb}</style></defs><path id="Camada_10" fill="#008dd3" d="M272.3 149.45c.1 19.8-4.1 38.6-11.6 55.7-21.1 47.6-68.6 80.8-124 81-14.7.1-28.9-2.3-42.2-6.5-25-8-46.8-23-63.1-42.8-17-20.4-28.1-46-30.8-74-.4-4-.6-8.2-.6-12.3-.2-46.2 22.7-87.2 57.9-111.9 4.6-3.3 9.4-6.2 14.4-8.8 7-3.8 14.4-6.8 22-9.4 7.2-2.3 14.7-4 22.4-5.2 6.2-.8 12.5-1.3 18.9-1.4 25-.1 48.5 6.6 68.8 18.3 3.7 2.1 7.1 4.3 10.5 6.8 16.2 11.5 29.8 26.5 39.7 43.9 1.1 2 2.2 3.9 3.2 6 .8 1.8 1.7 3.5 2.5 5.3 2.6 5.8 4.8 11.7 6.6 17.8 2 6.8 3.5 13.9 4.3 21 .7 5.4 1.1 10.9 1.1 16.5z" data-name="Camada 10"/><path d="M159.02 225.26c-5.66 11.72-19.94 16.53-31.9 10.76-11.95-5.77-17.06-19.95-11.4-31.67s19.94-16.53 31.9-10.76 17.06 19.96 11.4 31.67z" class="cls-6"/><path d="M124 194.97a23.154 23.154 0 00-8.28 9.37 23.039 23.039 0 00-2.27 8.8c.17.1.35.19.53.28l39 18.84c.18.09.37.17.55.24a23.181 23.181 0 007.68-19.56l-37.22-17.98z" class="cls-4"/><path fill="#ffda00" fill-rule="evenodd" d="M292.45 125.07l-16.53-8.35c-.46-.23-.81-.64-.97-1.13-.16-.49-.12-1.03.11-1.49l1.85-3.64c.23-.46.64-.81 1.14-.97a1.962 1.962 0 011.49.12l16.65 8.5c.47.24.83.67.98 1.17.15.51.09 1.06-.17 1.52l-1.96 3.49c-.5.89-1.59 1.24-2.51.82a.161.161 0 01-.07-.04zm-13.4-20.7c-.1-.05-.2-.1-.29-.16-.43-.29-.72-.74-.82-1.25l-.76-4.01c-.1-.51.01-1.03.31-1.46.29-.43.74-.72 1.25-.82l18.37-3.44c.4-.07.8-.02 1.17.14.11.05.22.12.33.19.43.31.72.78.8 1.3l.58 3.97c.15 1.03-.54 2-1.56 2.2l-18.19 3.49c-.4.08-.81.03-1.18-.14zm-1.78-12.16c-.2-.09-.38-.21-.54-.36l-2.96-2.82c-.37-.36-.59-.85-.6-1.37-.01-.52.18-1.02.54-1.39l12.92-13.51a1.953 1.953 0 012.21-.43c.22.1.42.24.59.42l2.79 2.88c.73.75.73 1.94.01 2.7l-12.75 13.44c-.36.38-.85.59-1.36.61-.3 0-.59-.05-.86-.17zM91.44 118.15c.19.09.37.22.53.38l2.89 2.88c.37.36.57.86.57 1.38 0 .52-.21 1.01-.57 1.38l-13.22 13.21c-.38.38-.89.58-1.42.57-.28 0-.56-.07-.81-.19-.22-.1-.42-.25-.58-.43l-2.72-2.95c-.71-.77-.69-1.96.05-2.7l13.05-13.15a1.946 1.946 0 012.23-.39zM246.2 69.83c-7.57-8.43-17.53-15.75-28.6-21.13-11.1-5.32-23.02-8.58-34.33-9.27-40.52-2.45-75.44 31.76-72.74 72.35.9 13.51 5.24 25.85 13.15 36.82 2.27 3.15 3.18 6.34 2.78 10.09-.42 3.96-.73 7.92-1.08 11.88l27.04 13.06 27.04 13.06c2.88-2.74 5.8-5.45 8.64-8.23 2.69-2.64 5.75-3.91 9.63-4.09 13.51-.62 25.87-4.89 37.02-12.59 33.48-23.12 38.57-71.74 11.46-101.95z"/><path d="M194.38 136.14c-5.73-3.93-13.04-4.68-19.17-2.38-.01 0-.02.01-.04.02-.58-2.41-1.56-4.73-2.97-6.78-2.73-4.01-7.42-7.07-12.4-7.17-5.97-.11-9.48 4.81-10.96 9.58-2.09 6.74-.69 13.87.97 20.82.86 3.6 1.83 7.23 2.18 10.87.4 4.17-1.05 8.11-3.44 11.37-1.75 2.38-3.97 4.41-6.33 6.24l2.99 1.45c5.12-4.22 9.31-9.45 9.81-16.28.27-3.71-.74-7.55-1.6-11.23-.82-3.5-1.71-6.99-2.24-10.52-.53-3.53-.56-7.04.2-10.45.63-2.8 1.9-5.77 4.28-7.56 3.67-2.76 8.62-1.13 11.96 1.89 2.7 2.44 4.2 5.71 4.79 9.09-4.49 2.61-8 7.06-8.87 12.01-.5 2.81 1.75 5.83 4.98 5.03 3.26-.8 5.24-3.9 6.22-6.73.92-2.65 1.23-5.64.94-8.63 3.33-1.46 7.22-1.88 11.07-1.03 5.35 1.18 11.03 5.24 9.94 10.78-.69 3.49-3.49 6.49-6.22 8.67-1.43 1.14-2.99 2.1-4.65 2.93a42.31 42.31 0 00-7.98 5.21c-8 6.62-12.25 15.79-14.46 25.59l2.82 1.36c1.27-5.94 3.26-11.66 6.55-16.78 2-3.11 4.59-5.91 7.51-8.27 2.82-2.28 6.05-3.84 9.19-5.68 4.14-2.44 7.97-6.11 9.68-10.52 1.88-4.84-.08-9.69-4.73-12.89zm-24.14 11.25c-.58.74-2.11 2.49-3.36 1.96-1.08-.45.03-3.06.26-3.61.57-1.38 1.29-2.75 2.18-3.95.95-1.29 2.09-2.4 3.39-3.33 0 1.47-.13 2.92-.4 4.28-.33 1.68-1.01 3.3-2.06 4.65z" class="cls-6"/><path d="M138.41 179.12h2.58c5.08 0 9.2 4.12 9.2 9.2v43.31c0 5.08-4.12 9.2-9.2 9.2h-2.58c-5.07 0-9.19-4.12-9.19-9.19v-43.31c0-5.07 4.12-9.19 9.19-9.19z" class="cls-11" transform="rotate(-64.22 139.695 209.967)"/><path d="M168.94 218.6c.13-3.54-1.8-7.01-5.18-8.65l-39-18.84c-3.38-1.63-7.3-.99-10 1.32.28.18.58.34.89.49L168 218.21c.31.15.62.28.94.39z" class="cls-4"/><path d="M146.49 154h3.53c5.08 0 9.2 4.12 9.2 9.2v58.14c0 5.08-4.12 9.2-9.2 9.2h-3.53c-5.08 0-9.2-4.12-9.2-9.2V163.2c0-5.08 4.12-9.2 9.2-9.2z" class="cls-11" transform="rotate(-64.22 148.247 192.268)"/><path d="M123.23 129.75c3.7-1.14 1.78-6.71-1.92-5.57-3.7 1.14-1.78 6.71 1.92 5.57zm6.91-53.54c3.7-1.14 1.78-6.71-1.92-5.57-3.7 1.14-1.78 6.71 1.92 5.57zm-8.5 41.56c-2.73-11.8-2.53-25.32 4.59-35.56 1.65-2.38-2.26-4.81-3.91-2.43-7.79 11.2-8.18 26-5.19 38.93.65 2.82 5.16 1.89 4.51-.93zm132.1-19.87c-3.76.9-2.2 6.58 1.56 5.68 3.76-.9 2.21-6.58-1.56-5.68zm-10.34 52.99c-3.76.9-2.2 6.58 1.56 5.68 3.77-.9 2.21-6.58-1.56-5.68zm11.16-40.93c1.97 11.96.9 25.43-6.87 35.19-1.8 2.27 1.95 4.94 3.75 2.68 8.49-10.68 9.84-25.42 7.68-38.51-.47-2.86-5.02-2.22-4.56.64z" class="cls-5"/><path d="M196.72 168.6c-2.43-1.17-4.25 2.59-1.82 3.76s4.24-2.59 1.82-3.76zm42.74-36.69c-2.43-1.17-4.24 2.59-1.82 3.76s4.25-2.59 1.82-3.76zm-91.81-73.23c-2.43-1.17-4.25 2.59-1.82 3.76s4.24-2.59 1.82-3.76zm-8.56 97.27c-2.43-1.17-4.25 2.59-1.82 3.76s4.25-2.59 1.82-3.76z" class="cls-10"/><path d="M122 181.86c-2.11-1.22-4 2.06-1.89 3.28 2.11 1.22 4-2.06 1.89-3.28zm26.07 12.43c-6.55-3.18-13.17-6.23-19.72-9.41-2.14-1.04-3.76 2.28-1.62 3.33 6.55 3.18 13.17 6.22 19.72 9.41 2.14 1.04 3.76-2.28 1.62-3.32zm6.64 3.09c-2.07-1.19-3.91 2.01-1.85 3.2 2.06 1.19 3.91-2.01 1.85-3.2z" class="cls-5"/><path d="M119.52 237.36c3.39 8.77-1.12 18.69-10.08 22.14s-18.95-.85-22.34-9.63c-3.39-8.77 1.12-18.69 10.08-22.14 8.95-3.46 18.95.85 22.34 9.63z" class="cls-2"/><path d="M86.25 240.88c-.53 2.93-.29 6.03.86 8.99.82 2.13 2.03 3.99 3.52 5.54.14-.04.27-.09.41-.14l29.2-11.27c.14-.05.27-.11.4-.17.06-2.15-.3-4.34-1.12-6.47a16.655 16.655 0 00-5.41-7.24l-27.86 10.76z" class="cls-3"/><path fill="#ef3030" fill-rule="evenodd" d="M5 211.34l12.67-4.31c.35-.12.74-.1 1.08.07.34.16.59.46.71.81l.94 2.8c.12.35.09.74-.07 1.08-.16.32-.43.56-.75.69-.02 0-.04.01-.06.02l-12.81 4.29c-.36.12-.76.09-1.1-.09-.34-.18-.59-.49-.7-.85l-.81-2.78a1.4 1.4 0 01.84-1.71c.02 0 .04-.01.05-.02zm17.01 3.24c.07-.03.15-.05.23-.07.37-.07.75 0 1.06.21l2.46 1.64a1.413 1.413 0 01.39 1.96l-7.51 11.22a1.375 1.375 0 01-.92.6c-.38.07-.77-.02-1.08-.25l-2.34-1.7c-.61-.44-.76-1.29-.35-1.92l7.4-11.16c.16-.25.4-.43.67-.54zm7.63 5.54c.14-.06.3-.09.46-.09l2.95-.1c.37-.01.74.12 1.01.38.27.25.43.61.45.98l.44 13.5c.01.38-.13.76-.4 1.03-.14.15-.31.26-.5.33-.16.06-.34.1-.52.09l-2.9-.02c-.75 0-1.37-.6-1.4-1.36l-.49-13.38a1.402 1.402 0 01.9-1.36zM80.57 114.6c-8.18-.17-16.97 1.47-25.27 4.66-8.29 3.23-15.9 7.91-21.84 13.54-21.3 20.17-20.5 55.49 2.25 74.11 7.57 6.2 16.23 10 25.92 11.24 2.78.36 4.91 1.45 6.69 3.51 1.88 2.17 3.82 4.29 5.74 6.44l20.24-7.81 20.24-7.82c-.02-2.88-.01-5.75-.08-8.62-.06-2.72.78-4.97 2.6-7.1 6.34-7.44 10.2-16.07 11.64-25.75 4.34-29.08-18.8-55.78-48.13-56.4z"/><path d="M89.96 174.69c-4.91 1.08-8.91 4.57-10.72 8.94 0 0 0 .02-.01.03-1.56-.88-3.27-1.51-5.04-1.78-3.46-.54-7.4.42-9.91 3-3.01 3.09-2.14 7.38-.36 10.52 2.52 4.43 6.98 7.21 11.46 9.77 2.32 1.33 4.72 2.6 6.81 4.22 2.4 1.85 3.76 4.56 4.3 7.43.39 2.1.37 4.27.16 6.42l2.24-.86c.3-4.79-.39-9.58-3.75-13.22-1.83-1.98-4.35-3.34-6.72-4.7-2.25-1.29-4.53-2.55-6.65-4.01s-3.99-3.18-5.41-5.27c-1.16-1.71-2.11-3.85-1.88-5.99.36-3.3 3.66-5.1 6.9-5.38 2.62-.22 5.09.61 7.16 1.96-.84 3.66-.22 7.71 1.95 10.61 1.24 1.65 3.94 1.95 5.11-.14 1.19-2.12.53-4.69-.48-6.61-.94-1.79-2.37-3.44-4.09-4.76.87-2.48 2.57-4.74 4.92-6.35 3.27-2.24 8.21-3.23 10.6.08 1.5 2.09 1.7 5.05 1.5 7.57-.1 1.31-.37 2.61-.75 3.9-.66 2.23-1.06 4.51-1.2 6.78-.46 7.49 2.28 14.26 6.36 20.27l2.11-.82c-2.51-3.6-4.54-7.48-5.62-11.75-.65-2.59-.85-5.34-.66-8.05.19-2.61.97-5.09 1.54-7.65.76-3.39.71-7.22-.77-10.3-1.63-3.38-5.15-4.74-9.14-3.87zm-5.98 18.29c.1.67.27 2.34-.63 2.74-.77.35-1.6-1.53-1.78-1.92-.45-.98-.82-2.04-1.01-3.1-.21-1.13-.23-2.29-.08-3.43.78.72 1.48 1.51 2.06 2.33.72 1.01 1.24 2.16 1.43 3.39z" class="cls-2"/><path d="M86.27 232.42h31.3c3.67 0 6.65 2.98 6.65 6.65v1.86c0 3.67-2.98 6.65-6.65 6.65h-31.3c-3.67 0-6.64-2.98-6.64-6.64v-1.86c0-3.67 2.98-6.64 6.64-6.64z" class="cls-1" transform="rotate(-21.11 101.936 240.007)"/><path d="M120.91 228.83c-1.81-1.82-4.59-2.51-7.12-1.54l-29.2 11.27a6.662 6.662 0 00-4.24 5.92c.23-.06.47-.14.7-.23l39.2-15.13c.23-.09.45-.19.67-.3z" class="cls-3"/><path d="M75.79 218.83h42.02c3.67 0 6.65 2.98 6.65 6.65v2.55c0 3.67-2.98 6.65-6.65 6.65H75.79c-3.67 0-6.65-2.98-6.65-6.65v-2.55c0-3.67 2.98-6.64 6.64-6.64z" class="cls-1" transform="rotate(-21.11 96.799 226.75)"/><path d="M51.46 209.07c1.22-2.51-2.66-4.25-3.89-1.74-1.22 2.52 2.66 4.25 3.89 1.74zm-24.84-30.08c1.22-2.52-2.66-4.25-3.89-1.74-1.22 2.52 2.66 4.25 3.89 1.74zM44.35 204c-7.58-4.39-14.61-11.17-16.49-19.99-.44-2.05-3.65-1.18-3.22.86 2.06 9.64 9.68 17.15 17.98 21.96 1.81 1.05 3.55-1.79 1.74-2.84zm54.76-79.51c-1.38 2.43 2.38 4.41 3.77 1.98 1.38-2.43-2.38-4.41-3.77-1.98zm22.85 31.62c-1.38 2.43 2.39 4.41 3.77 1.98s-2.38-4.42-3.77-1.98zm-16.09-26.1c7.28 4.87 13.86 12.08 15.17 21.01.31 2.07 3.57 1.41 3.27-.65-1.44-9.75-8.55-17.74-16.53-23.07-1.74-1.16-3.65 1.56-1.91 2.72z" class="cls-5"/><path d="M108.25 189.48c-1.82.7-.73 3.52 1.09 2.82s.73-3.52-1.09-2.82zm1.75-40.66c-1.82.7-.73 3.52 1.09 2.82s.73-3.52-1.09-2.82zM26.02 161.1c-1.82.7-.73 3.52 1.09 2.82 1.82-.7.73-3.52-1.09-2.82zm47.1 52.54c-1.82.7-.73 3.52 1.09 2.82s.73-3.52-1.09-2.82z" class="cls-10"/><path d="M78.34 235.46c-1.69.51-.89 3.13.8 2.62 1.69-.51.89-3.13-.8-2.62zm19.44-7.62c-4.92 1.88-9.79 3.87-14.7 5.76-1.61.62-.65 3.11.96 2.5 4.91-1.89 9.79-3.88 14.7-5.76 1.61-.62.65-3.11-.95-2.49zm4.91-1.98c-1.65.5-.87 3.06.78 2.56s.87-3.06-.78-2.56z" class="cls-5"/></svg>