<?xml version="1.0" encoding="UTF-8"?>
<svg id="Camada_1" xmlns="http://www.w3.org/2000/svg" version="1.1" viewBox="0 0 300 300">
  <!-- Generator: Adobe Illustrator 29.0.1, SVG Export Plug-In . SVG Version: 2.1.0 Build 192)  -->
  <defs>
    <style>
      .st0, .st1 {
        isolation: isolate;
        opacity: .3;
      }

      .st2, .st3, .st4, .st5, .st1, .st6, .st7 {
        fill: none;
      }

      .st2, .st3, .st4, .st5, .st1, .st7 {
        stroke-linecap: round;
        stroke-linejoin: round;
      }

      .st2, .st6 {
        stroke: #515759;
        stroke-width: 5px;
      }

      .st8 {
        fill: #ffda00;
      }

      .st9 {
        fill: #ff8da4;
      }

      .st3 {
        stroke: #d32a53;
      }

      .st3, .st5 {
        stroke-width: 14px;
      }

      .st10 {
        fill: #d32a53;
      }

      .st11 {
        fill: #fff;
      }

      .st12 {
        opacity: .3;
      }

      .st13 {
        opacity: .3;
      }

      .st4 {
        stroke: #07e570;
        stroke-width: 18px;
      }

      .st14 {
        fill: #008dd3;
      }

      .st15 {
        fill: #ffbe00;
      }

      .st5 {
        stroke: #f14e70;
      }

      .st1 {
        stroke: #fff;
        stroke-width: 4px;
      }

      .st6 {
        stroke-miterlimit: 10;
      }

      .st16 {
        fill: #f7941e;
      }

      .st7 {
        stroke: #ff8da4;
        stroke-width: 11px;
      }

      .st17 {
        fill: #616363;
      }
    </style>
  </defs>
  <g id="Camada_2">
    <path class="st14" d="M288.2,151.9c.1,20.5-4.3,40-12,57.6-21.8,49.2-70.9,83.5-128.2,83.7-15.2.1-29.9-2.3-43.6-6.7-25.8-8.2-48.4-23.8-65.3-44.2-17.6-21.1-29.1-47.5-31.8-76.5-.4-4.2-.6-8.4-.6-12.7-.2-47.8,23.5-90.2,59.8-115.7,4.8-3.4,9.7-6.4,14.8-9.1,7.3-3.9,14.8-7.1,22.8-9.7,7.5-2.4,15.2-4.2,23.2-5.3,6.4-.9,12.9-1.4,19.5-1.5,25.9-.1,50.1,6.8,71.1,18.9,3.8,2.1,7.4,4.5,10.9,7,16.8,11.9,30.8,27.3,41,45.4,1.2,2,2.2,4.1,3.3,6.2.9,1.8,1.7,3.6,2.6,5.4,2.7,6,4.9,12.1,6.8,18.4,2,7.1,3.6,14.4,4.5,21.7h0c.8,5.7,1.2,11.4,1.2,17.1Z"/>
  </g>
  <line class="st3" x1="62.3" y1="246.6" x2="110.3" y2="53.5"/>
  <g>
    <ellipse class="st9" cx="244.9" cy="45.4" rx="12.8" ry="16.6"/>
    <g>
      <line class="st5" x1="243.6" y1="40.6" x2="290.5" y2="225.4"/>
      <line class="st3" x1="202.4" y1="206.2" x2="243.6" y2="40.6"/>
      <line class="st4" x1="201" y1="176.3" x2="286.9" y2="199.1"/>
      <g class="st12">
        <path class="st17" d="M192.3,174s0,0,0,0c-1.3,4.8,1.6,9.7,6.4,11l86,22.7c.8.2,1.5.3,2.3.3,4,0,7.6-2.6,8.7-6.7l-103.3-27.4Z"/>
      </g>
    </g>
    <line class="st4" x1="113.6" y1="56.6" x2="241.8" y2="41.9"/>
    <g class="st13">
      <path class="st17" d="M104.6,56.8c0,.3,0,.5,0,.8.5,4.6,4.4,8,8.9,8s.7,0,1,0l128.2-14.7c4.6-.5,8-4.4,8-8.9l-146.2,14.9Z"/>
    </g>
    <line class="st5" x1="110.3" y1="53.5" x2="165" y2="269"/>
    <line class="st4" x1="60.6" y1="211.8" x2="160.9" y2="238.3"/>
    <ellipse class="st9" cx="110" cy="60.3" rx="12.8" ry="16.6"/>
    <g>
      <path class="st6" d="M233.2,183.5s-31-92.8-19.8-136.2"/>
      <path class="st2" d="M223,202.8s.5-20.8,11-19.3,7.5,27.4,7.5,27.4"/>
      <circle class="st10" cx="233.1" cy="183" r="4"/>
      <path class="st6" d="M174.4,202.2s-36.2-94-24.2-140.6"/>
      <path class="st7" d="M149.9,43.1s12.4,9.1,0,22.4"/>
      <polygon class="st8" points="161.9 218.2 220.4 200.6 244.6 207.4 186.4 229.4 161.9 218.2"/>
      <path class="st2" d="M164.6,221.3s-.8-20.7,10.6-19.1,8.1,29.4,8.1,29.4"/>
      <circle class="st10" cx="174.2" cy="201.8" r="4.4"/>
      <path class="st7" d="M210.5,35.5s11.6,8.5,0,20.8"/>
      <polygon class="st16" points="161.9 218.2 161.8 224.9 186.4 236.8 186.4 229.4 161.9 218.2"/>
      <polygon class="st15" points="244.6 207.4 244.6 213.9 186.4 236.8 186.4 229.4 244.6 207.4"/>
    </g>
    <g class="st12">
      <path class="st17" d="M52.1,208.8c0,.2-.2.4-.2.7-1.3,4.8,1.6,9.7,6.4,11l100.3,26.5c.8.2,1.5.3,2.3.3,4,0,7.6-2.7,8.7-6.7.1-.4.2-.9.2-1.3l-117.7-30.5Z"/>
    </g>
  </g>
  <g class="st0">
    <path class="st11" d="M113.2,48.5c6.3,4,8.2,13.1,4.7,19.5-.8,1.6-5,7.4-6.8,4.9-.3-.5-.3-1-.2-1.5,1-3.4,2.2-6.9,2-10.4,0-3.5-1-6.9-2-10.4-.6-1.4.9-2.8,2.2-2h0Z"/>
  </g>
  <g class="st0">
    <path class="st11" d="M150.8,39.5c8.5,3.3,10.3,14,6,21.3-.3.5-1.1.2-1-.3,1.2-7.8,0-14.2-5.6-20.1-.4-.4,0-1.1.5-.9h0Z"/>
  </g>
  <g class="st0">
    <path class="st11" d="M211.7,31.5c8.5,3.3,10.3,14,6,21.3-.3.5-1.1.2-1-.3,1.2-7.8,0-14.2-5.6-20.1-.4-.4,0-1.1.5-.9h0Z"/>
  </g>
  <line class="st1" x1="67.9" y1="207.5" x2="155.2" y2="231.9"/>
  <g class="st13">
    <path class="st11" d="M220.3,202.2l12.6,3.8c1.8.5,1.8,3.2,0,3.6,0,0-20.9,7.1-20.9,7.1-.3,0-.5,0-.6-.3,0-.2,0-.5.3-.6l19.7-9.9v3.6s-11.5-6.5-11.5-6.5c-.5-.3-.2-1.1.4-.9h0Z"/>
  </g>
</svg>