<?xml version="1.0" encoding="utf-8"?>
<!-- Generator: Adobe Illustrator 27.3.1, SVG Export Plug-In . SVG Version: 6.00 Build 0)  -->
<svg version="1.1" id="Camada_3" xmlns="http://www.w3.org/2000/svg" xmlns:xlink="http://www.w3.org/1999/xlink" x="0px" y="0px"
	 viewBox="0 0 50 50" style="enable-background:new 0 0 50 50;" xml:space="preserve">
<style type="text/css">
	.st0{fill:#B9D7D9;}
	.st1{fill:#A6C1C2;}
	.st2{fill:none;stroke:#444444;stroke-width:2.5;stroke-linecap:round;stroke-linejoin:round;stroke-miterlimit:10;}
	.st3{fill:none;stroke:#444444;stroke-width:1.5;stroke-linecap:round;stroke-linejoin:round;stroke-miterlimit:10;}
</style>
<g>
	<g>
		<path class="st0" d="M39.53,2.66L15.45,2.12c-7.28,0-13.17,5.9-13.17,13.17v6.65l42.46-15.1L39.53,2.66z"/>
		<path class="st1" d="M2.28,21.95v13.53c0,5.16,2.6,7.83,6.71,10.55l38.69-13.76c-0.17-5.85,0.41-19.51-0.17-21.63l-2.76-3.78
			L2.28,21.95z"/>
	</g>
	<path class="st2" d="M36.68,47.88H10.26c-3.12-3.12-4.86-4.86-7.98-7.98V10.63c3.12-3.12,4.86-4.86,7.98-7.98h29.27
		c3.12,3.12,4.86,4.86,7.98,7.98v24.66"/>
	<path class="st3" d="M30.6,30.77c0,0,0,5.48-5.01,5.48c-4.73,0-4.72-5.48-4.72-5.48"/>
	<line class="st3" x1="29.1" y1="25.27" x2="37.59" y2="19.79"/>
	<circle class="st3" cx="15.92" cy="22.53" r="4.48"/>
</g>
</svg>
