<svg xmlns="http://www.w3.org/2000/svg" id="Layer_1" x="0" y="0" version="1.1" viewBox="0 0 50 50" xml:space="preserve"><style>.st2{fill:#031326}</style><path fill="#46b8b0" d="M4.8 30.9c0 1.2-.9 2.2-2.1 2.2l-1.5-4c.1 0 .2-.1.3-.1v-7.8l2.2-.8V29c.7.4 1.1 1.1 1.1 1.9zm41.5-11v-.3l-5.5-2.9V22l-2.2.8-8.1 2.9-1.7.6-2.2.8-2.6 1-9 3.2-4.5 1.6c-.8-.6-1.3-1.5-1.3-2.5v-12l2.2-.8 13-4.8 6.1-2.2 1.7-.6 2.2-.8v1.4h3.1c1.7 0 3.1 1.4 3.1 3.1v.5l4.6 2.4 1.2 3.2-.1.1z"/><path fill="#4ecdc4" d="M34.5 3.5v5.9l-2.2.8-1.2.4-6.1 2.2-13.5 4.9-2.2.8v-1.8l-5.5 2.9v.9l-2.2.8V19c0-.4.2-.8.6-1l7.2-3.7v-.5c0-1.7 1.4-3.1 3.1-3.1h3.1V3.5c0-1.7 1.4-3.1 3.1-3.1h12.8c1.6 0 3 1.4 3 3.1z"/><circle cx="19.3" cy="16.7" r="1.4" class="st2"/><circle cx="19.3" cy="22" r="1.4" class="st2"/><circle cx="19.3" cy="27.4" r="1.4" class="st2"/><circle cx="25" cy="16.7" r="1.4" class="st2"/><circle cx="25" cy="22" r="1.4" class="st2"/><circle cx="25" cy="27.4" r="1.4" class="st2"/><circle cx="30.7" cy="16.7" r="1.4" class="st2"/><circle cx="30.7" cy="22" r="1.4" class="st2"/><circle cx="30.7" cy="27.4" r="1.4" class="st2"/><circle cx="21.6" cy="6.6" r="1.9" class="st2"/><path d="M28.4 4.7c-1.1 0-1.9.9-1.9 1.9s.9 1.9 1.9 1.9c1.1 0 1.9-.9 1.9-1.9s-.9-1.9-1.9-1.9z" class="st2"/><path d="M48.7 28.9V19c0-.5-.3-.9-.7-1.2l-7.1-3.7v-.4c0-1.8-1.5-3.3-3.3-3.3h-2.9V3.5c0-1.8-1.5-3.3-3.3-3.3H18.6c-1.8 0-3.3 1.5-3.3 3.3v6.9h-2.9c-1.8 0-3.3 1.5-3.3 3.3v.4L2 17.8c-.4.2-.7.7-.7 1.2v9.9s-.1 0-.1.1h-.1c-.6.5-.9 1.2-.9 1.9 0 1.3 1.1 2.4 2.4 2.4h.1C4 33.3 5 32.2 5 30.9c0-.8-.4-1.6-1.1-2v-9.1L9 17.1v13.3c0 1.1.5 2.1 1.4 2.7.6.4 1.2.6 1.9.6H15v8.2c-3.1.6-5.4 3.4-5.4 6.6 0 .7.6 1.3 1.3 1.3h10.8c.7 0 1.3-.6 1.3-1.3 0-3.2-2.3-6-5.4-6.6v-8.2h4.1c.7 0 1.3-.6 1.3-1.3s-.6-1.3-1.3-1.3h-9.5c-.4 0-.7-.3-.7-.7V13.7c0-.4.3-.7.7-.7h25.3c.4 0 .7.3.7.7v16.7c0 .4-.3.7-.7.7h-6.7c-.7.1-1.2.6-1.2 1.3s.5 1.2 1.2 1.3h1.3v8.2c-3.1.6-5.4 3.4-5.4 6.6 0 .7.6 1.3 1.3 1.3h11c.7 0 1.3-.6 1.3-1.3 0-3.2-2.3-6-5.4-6.6v-8.2h2.7c1.8 0 3.3-1.5 3.3-3.3V17.1l5.1 2.7v9.1c-.7.5-1.1 1.2-1.1 2 0 1.3 1.1 2.4 2.4 2.4 1.3 0 2.4-1.1 2.4-2.4.1-.8-.3-1.6-1-2zM17.9 3.5c0-.4.3-.7.7-.7h12.8c.4 0 .7.3.7.7v6.9H17.9V3.5zm-5.4 43.7c.6-1.6 2.1-2.8 3.9-2.8 1.8 0 3.3 1.1 3.9 2.8h-7.8zm25 0h-7.8c.6-1.6 2.1-2.8 3.9-2.8s3.3 1.1 3.9 2.8z" class="st2"/></svg>