<?xml version="1.0" encoding="utf-8"?>
<!-- Generator: Adobe Illustrator 22.1.0, SVG Export Plug-In . SVG Version: 6.00 Build 0)  -->
<svg version="1.1" id="Layer_1" xmlns="http://www.w3.org/2000/svg" xmlns:xlink="http://www.w3.org/1999/xlink" x="0px" y="0px"
	 viewBox="0 0 50 50" style="enable-background:new 0 0 50 50;" xml:space="preserve">
<style type="text/css">
	.st0{fill:#46B8B0;}
	.st1{fill:#4ECDC4;}
	.st2{fill:#031326;}
</style>
<g>
	<g>
		<path class="st0" d="M4.8,30.9c0,1.2-0.9,2.2-2.1,2.2l-1.5-4C1.3,29.1,1.4,29,1.5,29v-7.8l2.2-0.8V29C4.4,29.4,4.8,30.1,4.8,30.9z
			"/>
	</g>
	<g>
		<path class="st0" d="M46.3,19.9v-0.3l-5.5-2.9V22l-2.2,0.8l-8.1,2.9l-1.7,0.6h0l-2.2,0.8L24,28.1L15,31.3l-4.5,1.6
			c-0.8-0.6-1.3-1.5-1.3-2.5v-12l2.2-0.8l13-4.8l6.1-2.2l1.7-0.6l2.2-0.8v1.4h3.1c1.7,0,3.1,1.4,3.1,3.1v0.5l4.6,2.4l1.2,3.2
			L46.3,19.9z"/>
	</g>
	<g>
		<path class="st1" d="M34.5,3.5v5.9l-2.2,0.8l-1.2,0.4L25,12.8l-13.5,4.9l-2.2,0.8v-1.8l-5.5,2.9v0.9l-2.2,0.8V19
			c0-0.4,0.2-0.8,0.6-1l7.2-3.7v-0.5c0-1.7,1.4-3.1,3.1-3.1h3.1V3.5c0-1.7,1.4-3.1,3.1-3.1h12.8C33.1,0.4,34.5,1.8,34.5,3.5z"/>
	</g>
	<g>
		<g>
			<g>
				<circle class="st2" cx="19.3" cy="16.7" r="1.4"/>
			</g>
			<g>
				<circle class="st2" cx="19.3" cy="22" r="1.4"/>
			</g>
			<g>
				<circle class="st2" cx="19.3" cy="27.4" r="1.4"/>
			</g>
		</g>
		<g>
			<g>
				<circle class="st2" cx="25" cy="16.7" r="1.4"/>
			</g>
			<g>
				<circle class="st2" cx="25" cy="22" r="1.4"/>
			</g>
			<g>
				<circle class="st2" cx="25" cy="27.4" r="1.4"/>
			</g>
		</g>
		<g>
			<g>
				<circle class="st2" cx="30.7" cy="16.7" r="1.4"/>
			</g>
			<g>
				<circle class="st2" cx="30.7" cy="22" r="1.4"/>
			</g>
			<g>
				<circle class="st2" cx="30.7" cy="27.4" r="1.4"/>
			</g>
		</g>
	</g>
	<g>
		<circle class="st2" cx="21.6" cy="6.6" r="1.9"/>
		<path class="st2" d="M28.4,4.7c-1.1,0-1.9,0.9-1.9,1.9s0.9,1.9,1.9,1.9c1.1,0,1.9-0.9,1.9-1.9S29.4,4.7,28.4,4.7z"/>
	</g>
	<path class="st2" d="M48.7,28.9V19c0-0.5-0.3-0.9-0.7-1.2l-7.1-3.7v-0.4c0-1.8-1.5-3.3-3.3-3.3h-2.9V3.5c0-1.8-1.5-3.3-3.3-3.3
		H18.6c-1.8,0-3.3,1.5-3.3,3.3v6.9h-2.9c-1.8,0-3.3,1.5-3.3,3.3v0.4L2,17.8C1.6,18,1.3,18.5,1.3,19v9.9c0,0-0.1,0-0.1,0.1l-0.1,0
		c-0.6,0.5-0.9,1.2-0.9,1.9c0,1.3,1.1,2.4,2.4,2.4h0.1C4,33.3,5,32.2,5,30.9c0-0.8-0.4-1.6-1.1-2v-9.1l5.1-2.7v13.3
		c0,1.1,0.5,2.1,1.4,2.7c0.6,0.4,1.2,0.6,1.9,0.6h2.7v8.2c-3.1,0.6-5.4,3.4-5.4,6.6c0,0.7,0.6,1.3,1.3,1.3h10.8
		c0.7,0,1.3-0.6,1.3-1.3c0-3.2-2.3-6-5.4-6.6v-8.2h4c0,0,0.1,0,0.1,0c0.7,0,1.3-0.6,1.3-1.3s-0.6-1.3-1.3-1.3c0,0-0.1,0-0.1,0h-9.4
		c-0.4,0-0.7-0.3-0.7-0.7V13.7c0-0.4,0.3-0.7,0.7-0.7h25.3c0.4,0,0.7,0.3,0.7,0.7v16.7c0,0.4-0.3,0.7-0.7,0.7h-6.5c0,0-0.1,0-0.1,0
		s-0.1,0-0.1,0h0v0c-0.7,0.1-1.2,0.6-1.2,1.3s0.5,1.2,1.2,1.3v0h0c0,0,0.1,0,0.1,0s0.1,0,0.1,0h1.1v8.2c-3.1,0.6-5.4,3.4-5.4,6.6
		c0,0.7,0.6,1.3,1.3,1.3H39c0.7,0,1.3-0.6,1.3-1.3c0-3.2-2.3-6-5.4-6.6v-8.2h2.7c1.8,0,3.3-1.5,3.3-3.3V17.1l5.1,2.7v9.1
		c-0.7,0.5-1.1,1.2-1.1,2c0,1.3,1.1,2.4,2.4,2.4c1.3,0,2.4-1.1,2.4-2.4C49.8,30.1,49.4,29.3,48.7,28.9z M17.9,3.5
		c0-0.4,0.3-0.7,0.7-0.7h12.8c0.4,0,0.7,0.3,0.7,0.7v6.9H17.9V3.5z M12.5,47.2c0.6-1.6,2.1-2.8,3.9-2.8c1.8,0,3.3,1.1,3.9,2.8H12.5z
		 M37.5,47.2h-7.8c0.6-1.6,2.1-2.8,3.9-2.8S36.9,45.5,37.5,47.2z"/>
</g>
</svg>
