<?xml version="1.0" encoding="utf-8"?>
<!-- Generator: Adobe Illustrator 24.3.0, SVG Export Plug-In . SVG Version: 6.00 Build 0)  -->
<svg version="1.1" id="Layer_1" xmlns="http://www.w3.org/2000/svg" xmlns:xlink="http://www.w3.org/1999/xlink" x="0px" y="0px"
	 viewBox="0 0 50 50" style="enable-background:new 0 0 50 50;" xml:space="preserve">
<style type="text/css">
	.st0{fill:#71BAC0;}
	.st1{fill:#7ED0D6;}
	.st2{fill:#444444;}
</style>
<g>
	<g>
		<g>
			<polygon class="st0" points="47.1,14.4 47.8,19.4 2.8,35.8 2.3,25.2 2.2,19.1 41.6,4.8 46.6,7.1 			"/>
		</g>
		<g>
			<polygon class="st1" points="45.7,4.9 47.9,8.1 2.1,24.4 3.2,7.7 6.1,4.8 34.5,4.7 			"/>
		</g>
		<g>
			<g>
				<path class="st2" d="M16.8,46.6h-11c-2.3,0-4.2-1.9-4.2-4.2V8c0-2.3,1.9-4.2,4.2-4.2h38.4c2.3,0,4.2,1.9,4.2,4.2v20.5
					c0,0.7-0.6,1.2-1.2,1.2S46,29.1,46,28.5V8c0-0.9-0.8-1.7-1.7-1.7H5.8C4.8,6.2,4.1,7,4.1,8v34.4c0,0.9,0.8,1.7,1.7,1.7h11.1
					c0.7,0,1.2,0.6,1.2,1.2S17.5,46.6,16.8,46.6z"/>
			</g>
		</g>
		<g>
			<g>
				<circle class="st2" cx="8" cy="10.4" r="0.9"/>
			</g>
			<g>
				<circle class="st2" cx="10.9" cy="10.4" r="0.9"/>
			</g>
			<g>
				<circle class="st2" cx="13.8" cy="10.4" r="0.9"/>
			</g>
		</g>
	</g>
	<g>
		<path class="st2" d="M35,25c-0.3,0-0.5,0.2-0.5,0.5c0,0.1-0.8,8.4-4,12.9c-0.2,0.2-0.1,0.5,0.1,0.7c0.1,0.1,0.2,0.1,0.3,0.1
			c0.2,0,0.3-0.1,0.4-0.2c3.4-4.7,4.1-13,4.2-13.4C35.5,25.3,35.3,25.1,35,25z"/>
		<path class="st2" d="M33.1,22.7c-0.1-0.1-0.3-0.1-0.5,0c-1,0.3-2.1,0.5-3.2,0.6c-1.4,0.2-2.9,0.3-4.3,0.2H25c-1.4,0-2.9,0-4.3-0.2
			c-1.1-0.1-2.1-0.4-3.2-0.6c-0.2,0-0.3,0-0.4,0.1s-0.2,0.3-0.2,0.4c0.6,10.3,4.7,17.2,8.2,17.2c3.4,0,7.6-6.9,8.2-17.2
			C33.3,23,33.2,22.8,33.1,22.7z"/>
		<path class="st2" d="M15.5,25.5c0-0.3-0.3-0.5-0.5-0.5c-0.3,0-0.5,0.3-0.5,0.5c0,0.4,0.8,8.6,4.2,13.4c0.1,0.1,0.3,0.2,0.4,0.2
			s0.2,0,0.3-0.1c0.2-0.2,0.3-0.5,0.1-0.7C16.3,33.8,15.5,25.6,15.5,25.5z"/>
		<path class="st2" d="M25,22.4c0.2,0,7.3,0.2,7.2-4.4s-4.7-6.4-7.2-6.4l0,0l0,0c-1.2,0-3,0.5-4.5,1.5s-2.6,2.6-2.7,5
			C17.7,22.6,24.8,22.4,25,22.4z M28.2,18c0.4,0,0.8,0.3,0.8,0.8c0,0.4-0.3,0.8-0.8,0.8c-0.4,0-0.8-0.3-0.8-0.8
			C27.5,18.3,27.8,18,28.2,18z M21.8,18c0.4,0,0.8,0.3,0.8,0.8c0,0.4-0.3,0.8-0.8,0.8c-0.4,0-0.8-0.3-0.8-0.8S21.3,18,21.8,18z"/>
	</g>
</g>
</svg>
