<?xml version="1.0" encoding="utf-8"?>
<!-- Generator: Adobe Illustrator 27.8.1, SVG Export Plug-In . SVG Version: 6.00 Build 0)  -->
<svg version="1.1" id="Camada_3" xmlns="http://www.w3.org/2000/svg" xmlns:xlink="http://www.w3.org/1999/xlink" x="0px" y="0px"
	 viewBox="0 0 50 50" style="enable-background:new 0 0 50 50;" xml:space="preserve">
<style type="text/css">
	.st0{fill:#00DFFC;}
	.st1{fill:none;stroke:#414141;stroke-width:2.5;stroke-linecap:round;stroke-linejoin:round;stroke-miterlimit:10;}
	.st2{fill:none;stroke:#414141;stroke-width:0.5;stroke-linecap:round;stroke-linejoin:round;stroke-miterlimit:10;}
	.st3{fill:none;stroke:#414141;stroke-linecap:round;stroke-linejoin:round;stroke-miterlimit:10;}
</style>
<g>
	<path class="st0" d="M45.53,8.08H3.17c-1.44,0-1.47,3.96-1.47,5.4l-0.18,5.94L0.97,29.89l1.29,12.13l12.77,0.63l33.1-11.78V10.91
		v-0.19v-0.04C48.13,9.24,46.96,8.08,45.53,8.08z"/>
	<g>
		<path class="st1" d="M37.7,42.28H5.16c-1.93,0-3.5-1.57-3.5-3.5V11.74c0-1.93,1.57-3.5,3.5-3.5h40.2c1.93,0,3.5,1.57,3.5,3.5
			v22.49"/>
		<line class="st2" x1="1.66" y1="16.02" x2="44.78" y2="16.02"/>
		<g>
			<line class="st3" x1="6.03" y1="12.03" x2="7.76" y2="12.03"/>
			<line class="st3" x1="9.32" y1="12.03" x2="11.04" y2="12.03"/>
			<line class="st3" x1="12.6" y1="12.03" x2="14.33" y2="12.03"/>
		</g>
		<g>
			<g>
				<polyline class="st3" points="15.21,33.94 10.37,29.11 15.21,24.28 				"/>
				<polyline class="st3" points="24.56,33.94 29.4,29.11 24.56,24.28 				"/>
				<line class="st3" x1="21.74" y1="22.16" x2="18.04" y2="35.96"/>
			</g>
			<g>
				<line class="st3" x1="31.48" y1="35.03" x2="33.48" y2="35.03"/>
				<line class="st3" x1="35.28" y1="35.03" x2="37.27" y2="35.03"/>
				<line class="st3" x1="39.08" y1="35.03" x2="41.07" y2="35.03"/>
			</g>
		</g>
	</g>
</g>
</svg>
