<svg xmlns="http://www.w3.org/2000/svg" version="1" viewBox="0 0 50 50"><path fill="#E589EF" d="M38.009 29.155l8.501-8.808c.504-.522.57-1.327.157-1.924l-6.699-9.679a1.521 1.521 0 0 0-1.252-.656H11.285c-.5 0-.968.245-1.252.656l-6.699 9.679a1.521 1.521 0 0 0 .156 1.924l15.265 15.815 19.254-7.007z"/><path fill="#F799FF" d="M35.252 8.088H11.273c-.5 0-.968.245-1.252.656l-6.699 9.679a1.51 1.51 0 0 0-.174 1.35L35.252 8.088z"/><path fill="#444" d="M47.562 17.803l-6.699-9.679a2.613 2.613 0 0 0-2.147-1.126H11.285a2.61 2.61 0 0 0-2.147 1.126l-6.7 9.679a2.62 2.62 0 0 0 .269 3.302l20.415 21.151c.33.341.747.587 1.203.709a1.09 1.09 0 0 0 1.335-.771c.01-.038.001-.074.007-.112l8.858-19.058 10.667-2.879-7.966 8.253a1.09 1.09 0 0 0 1.568 1.514l8.5-8.807a2.62 2.62 0 0 0 .268-3.302zm-8.491-8.438l6.459 9.333-11.176 3.016L26.46 9.178h12.255a.43.43 0 0 1 .356.187zM15.476 23.023l7.327 15.764L4.809 20.144l10.667 2.879zM25 40.411l-8.043-17.307 16.077.02L25 40.411zm-7.874-18.593L25 9.315l7.874 12.503H17.126zM10.929 9.365a.432.432 0 0 1 .356-.186h12.256l-7.896 12.536-11.176-3.017 6.46-9.333z"/></svg>