<svg xmlns="http://www.w3.org/2000/svg" viewBox="0 0 50 50"><path d="M5 42.5h3.8v1.6c0 1.1.9 1.9 1.9 1.9h5.2c1.1 0 1.9-.9 1.9-1.9v-1.6h14.5l13.7-5v-8.4c0-.5-.4-1-1-1h-3.8v-6.4H45c.5 0 1-.4 1-1V8.5c0-.5-.4-1-1-1h-3.8V5.9c0-1.1-.9-1.9-1.9-1.9h-5.2c-1.1 0-1.9.9-1.9 1.9v1.6H17.8V5.9c0-1.1-.9-1.9-1.9-1.9h-5.2c-1.1 0-1.9.9-1.9 1.9v1.6H5c-.5 0-1 .4-1 1v12.4c0 .5.4 1 1 1h3.8v6.4H5c-.5 0-1 .4-1 1v12.4c0 .4.5.8 1 .8zm12.8-20.7h14.5v6.4H17.8v-6.4z" fill="#fcc34f"/><path d="M40.6 4.6c-.3-.4-.8-.6-1.3-.6h-5.2c-1.1 0-1.9.9-1.9 1.9v1.6H17.8V5.9c0-1.1-.9-1.9-1.9-1.9h-5.2c-1.1 0-1.9.9-1.9 1.9v1.6H5c-.5 0-1 .4-1 1v9.4L40.6 4.6z" fill="#fdcf72"/><path d="M45 22.8c1.1 0 2-.9 2-2V8.5c0-1.1-.9-2-2-2h-2.7v-.6C42.3 4.3 41 3 39.4 3h-5.2c-1.6 0-2.9 1.3-2.9 2.9v.5H18.8v-.5c0-1.6-1.3-2.9-2.9-2.9h-5.2c-1.6 0-3 1.3-3 2.9v.5H5c-1.1 0-2 .9-2 2v12.4c0 1.1.9 2 2 2h2.7v4.3H5c-1.1 0-2 .9-2 2v12.4c0 1.1.9 2 2 2h2.7v.5c0 1.6 1.3 2.9 2.9 2.9h5.2c1.6 0 2.9-1.3 2.9-2.9v-.5h12.4v.5c0 1.6 1.3 2.9 2.9 2.9h5.4c.3 0 1.4 0 1.4-1V29.2h4v8.3c0 .6.5 1 1 1 .6 0 1-.5 1-1v-8.4c0-1.1-.9-2-2-2h-2.7v-4.3H45zM32.5 8.6v12.2h-15V8.6h15zm-1.3 14.2v4.3H18.8v-4.3h12.4zm-26.1-2V8.6h4v12.2h-4zm0 20.6V29.2h4v12.2h-4zm5.6 3.5c-.1 0-.2 0-.4-.1V5.2c.1-.1.2-.1.4-.1h5.2c.1 0 .2 0 .4.1v39.7c-.1 0-.2.1-.4.1h-5.2zm6.8-3.5V29.2h15.1v12.2H17.5zm16.6 3.5c-.1 0-.2 0-.3-.1V5.2c.1 0 .2-.1.3-.1h5.2c.1 0 .3 0 .4.1V45h-5.6zm6.8-24.1V8.6h4v12.2h-4z" fill="#444"/></svg>