<svg version="1" xmlns="http://www.w3.org/2000/svg" viewBox="0 0 50 50"><path fill="#FF6B6B" d="M7.404 24.74c1.646 0 3.292-.615 4.46-2.082a.277.277 0 0 0 .025-.294c-.72-1.366-.957-2.516-.83-4.15.13-3.133 2.87-6.135 6.394-7.832 0 5.35-.783 9.397-2.088 15.662-.61 2.586-1.274 5.09-1.863 7.474l9.025-3.285c.102-.53.203-1.063.305-1.602.062-.326.534-.313.577.017.052.396.112.798.175 1.202l8.13-2.96c-.01-.11-.026-.214-.036-.323 6.655-1.305 12.66-5.873 12.66-13.05 0-5.874-6.135-12.008-17.098-12.008C13.93 1.9 2.836 9.207 2.836 18.473c0 3.263 1.697 6.265 4.568 6.265zm17.084-3.394c.383-1.722.73-3.35.926-4.83.402-2.515.495-4.858.516-6.53.01-.737.642-1.305 1.378-1.268 5.705.29 7.634 2.463 7.634 6.1.117 4.91-4.056 7.515-9.053 8.1-.878.104-1.593-.71-1.402-1.572z"/><path fill="#E56060" d="M12.612 14.23c1.16-1.552 2.88-2.902 4.842-3.848 0 .722-.017 1.418-.045 2.102l8.736-3.18c.247-.372.68-.61 1.162-.584.128.006.244.02.368.027l11.28-4.105C36.1 2.75 32.16 1.51 27.242 1.51c-12.977.38-23.84 7.335-24.38 16.268l9.75-3.548z"/><path fill="#444" d="M35.464 49.74c-4.27 0-9.724-4.225-12.366-15.71-.646 4.302-.764 7.66-.38 10.745.06.463-.085.93-.393 1.278-1.908 2.177-4.493 3.427-7.09 3.427-3.208 0-4.644-2.922-4.644-5.818 0-3.81 1.158-8.354 2.383-13.167.393-1.54.795-3.124 1.175-4.737 1.09-5.23 1.82-8.936 2.007-13.186-2.308 1.587-3.765 3.692-3.848 5.693-.11 1.435.07 2.344.688 3.52.28.537.22 1.185-.15 1.652-1.315 1.646-3.246 2.552-5.44 2.552-3.37 0-5.818-3.16-5.818-7.515C1.587 8.683 12.84.68 27.207.26 39.16.26 45.59 7.09 45.59 13.514c0 5.147-3.312 11.774-12.548 14.03.774 6.15 3.298 10.822 5.946 10.822 1.733 0 3.54-1.158 4.833-3.098.56-.793 1.367-1.13 2.178-.924 1.474.368 2.217 2.243 2.406 3.736a1.25 1.25 0 0 1-1.083 1.397 1.246 1.246 0 0 1-1.396-1.084 3.967 3.967 0 0 0-.36-1.26c-1.74 2.344-4.163 3.73-6.575 3.73-4.29 0-7.808-5.836-8.555-14.19l-.1-1.122 1.104-.217c5.373-1.054 11.65-4.782 11.65-11.824 0-5.215-5.555-10.757-15.848-10.757C14.49 3.13 4.087 10.181 4.087 18.471c0 2.43 1.163 5.014 3.318 5.014.88 0 2.078-.215 3.076-1.164-.596-1.338-.79-2.604-.667-4.208.138-3.355 2.926-6.85 7.1-8.86l1.79-.863v1.99c0 5.486-.803 9.622-2.113 15.916-.39 1.66-.797 3.257-1.192 4.81-1.186 4.658-2.305 9.057-2.305 12.552 0 .34.06 3.318 2.143 3.318 1.768 0 3.555-.832 4.956-2.296-.382-3.446-.195-7.188.598-12.056.277-1.39.547-2.8.815-4.23a1.556 1.556 0 0 1 1.562-1.256c.76.022 1.385.587 1.482 1.343 1.187 9.032 5.077 18.756 10.814 18.756a1.25 1.25 0 0 1 0 2.5zm-15.016-5.336l-.003.003.003-.003zm5.296-20.226a2.533 2.533 0 0 1-1.876-.837 2.56 2.56 0 0 1-.6-2.265c.35-1.575.708-3.236.907-4.725.312-1.95.475-4.026.505-6.38.01-.688.29-1.33.797-1.806a2.62 2.62 0 0 1 1.894-.694c5.937.3 8.82 2.706 8.82 7.35.12 5.002-3.77 8.593-10.156 9.34a2.34 2.34 0 0 1-.29.018zm1.5-14.21c-.096 2.51-.27 4.707-.595 6.746-.21 1.555-.58 3.276-.942 4.904l.18 1.302-.145-1.24c1.897-.224 8.08-1.372 7.948-6.83 0-2.746-1.095-4.61-6.445-4.882z"/></svg>