<?xml version="1.0" encoding="utf-8"?>
<!-- Generator: Adobe Illustrator 26.0.3, SVG Export Plug-In . SVG Version: 6.00 Build 0)  -->
<svg version="1.1" id="Layer_1" xmlns="http://www.w3.org/2000/svg" xmlns:xlink="http://www.w3.org/1999/xlink" x="0px" y="0px"
	 viewBox="0 0 50 50" style="enable-background:new 0 0 50 50;" xml:space="preserve">
<style type="text/css">
	.st0{fill:#AFE55D;}
	.st1{fill:#C3FF68;}
	.st2{fill:#444444;}
	.st3{fill:#444444;stroke:#444444;stroke-width:0.4;stroke-miterlimit:10;}
</style>
<g>
	<g>
		<g>
			<path class="st0" d="M6.6,38.3l5.7,3.3L45.8,23l-0.1-7.3c0-1.6-0.9-3.1-2.3-4L27.3,2.4c-1.4-0.8-3.2-0.8-4.6,0L6.6,11.7
				c-1.4,0.8-2.3,2.3-2.3,4v18.7C4.3,36,5.1,37.5,6.6,38.3z"/>
		</g>
		<g>
			<path class="st1" d="M33.8,6.2l-6.5-3.8c-1.4-0.8-3.2-0.8-4.6,0L6.6,11.7c-1.4,0.8-2.3,2.3-2.3,4l-0.3,7.9L33.8,6.2z"/>
		</g>
		<g>
			<path class="st2" d="M25,49.5c-1,0-2-0.3-2.9-0.8L5.9,39.4c-1.8-1-2.9-3-2.9-5V15.7c0-2.1,1.1-4,2.9-5l16.2-9.3c1.8-1,4-1,5.8,0
				l16.2,9.3c1.8,1,2.9,3,2.9,5v13.7c0,0.7-0.5,1.2-1.2,1.2s-1.2-0.5-1.2-1.2V15.7c0-1.2-0.6-2.3-1.7-2.9L26.7,3.4
				c-1-0.6-2.3-0.6-3.3,0L7.2,12.8c-1,0.6-1.7,1.7-1.7,2.9v18.7c0,1.2,0.6,2.3,1.7,2.9l16.2,9.3c1,0.6,2.3,0.6,3.3,0l4.5-2.6
				c0.6-0.3,1.3-0.1,1.7,0.4c0.3,0.6,0.1,1.3-0.4,1.7l-4.5,2.6C27,49.2,26,49.5,25,49.5z"/>
		</g>
		<g>
			<path class="st3" d="M26.6,38H23c-0.6,0-1-0.5-1-1v-1.5c-1-0.3-1.9-0.6-2.8-1.1l-1.1,1.1c-0.4,0.4-1.1,0.4-1.5,0l-2.5-2.5
				c-0.4-0.4-0.4-1.1,0-1.5l1.1-1.1c-0.5-0.9-0.9-1.8-1.1-2.8h-1.5c-0.6,0-1-0.5-1-1V23c0-0.6,0.5-1,1-1h1.5c0.3-1,0.6-1.9,1.1-2.8
				l-1.1-1.1c-0.4-0.4-0.4-1.1,0-1.5l2.5-2.5c0.4-0.4,1.1-0.4,1.5,0l1.1,1.1c0.9-0.5,1.8-0.9,2.8-1.2v-1.5c0-0.6,0.5-1,1-1h3.5
				c0.6,0,1,0.5,1,1v1.5c1,0.3,1.9,0.6,2.8,1.2l1.1-1.1c0.4-0.4,1.1-0.4,1.5,0l2.5,2.5c0.4,0.4,0.4,1.1,0,1.5l-1.1,1.1
				c0.5,0.9,0.9,1.8,1.2,2.8H37c0.6,0,1,0.5,1,1v3.5c0,0.6-0.5,1-1,1h-1.5c-0.3,1-0.6,1.9-1.2,2.8l1.1,1.1c0.4,0.4,0.4,1.1,0,1.5
				l-2.5,2.5c-0.4,0.4-1.1,0.4-1.5,0l-1.1-1.1c-0.9,0.5-1.8,0.9-2.8,1.1V37C27.6,37.6,27.1,38,26.6,38z M19.2,33.1
				c0.1,0,0.2,0,0.3,0.1c1,0.6,2.1,1.1,3.2,1.3c0.2,0.1,0.4,0.3,0.4,0.5v2h3.5v-1.9c0-0.2,0.2-0.5,0.4-0.5c1.1-0.3,2.2-0.7,3.2-1.3
				c0.2-0.1,0.5-0.1,0.6,0.1l1.4,1.4l2.5-2.5l-1.4-1.4c-0.2-0.2-0.2-0.4-0.1-0.6c0.6-1,1.1-2.1,1.3-3.2c0.1-0.2,0.3-0.4,0.5-0.4H37
				V23h-1.9c-0.2,0-0.5-0.2-0.5-0.4c-0.3-1.1-0.7-2.2-1.3-3.2c-0.1-0.2-0.1-0.5,0.1-0.6l1.4-1.4l-2.5-2.5l-1.4,1.4
				c-0.2,0.2-0.4,0.2-0.6,0.1c-1-0.6-2.1-1.1-3.2-1.3c-0.2-0.1-0.4-0.3-0.4-0.5v-1.9H23v1.9c0,0.2-0.2,0.5-0.4,0.5
				c-1.1,0.3-2.2,0.7-3.2,1.3c-0.2,0.1-0.5,0.1-0.6-0.1l-1.4-1.4l-2.5,2.5l1.4,1.4c0.2,0.2,0.2,0.4,0.1,0.6c-0.6,1-1.1,2.1-1.3,3.2
				C15,22.9,14.8,23,14.5,23h-1.9v3.5h2c0.2,0,0.5,0.2,0.5,0.4c0.3,1.1,0.7,2.2,1.3,3.2c0.1,0.2,0.1,0.5-0.1,0.6l-1.4,1.4l2.5,2.5
				l1.4-1.4C18.9,33.2,19,33.1,19.2,33.1z"/>
		</g>
	</g>
	<path class="st2" d="M29.8,25.7v1.2c0,0,0,0.7-0.7,0.7s-0.7-0.5-0.7-0.6c0-0.1,0-1.1-0.9-1.7c0,0,1-0.4,0.9-1.9
		c0-1.5-1.2-2.1-2-2.1c-0.8-0.1-7.6,0-7.6,0v1.2h1.1v5.2h-1.1l0.1,1.3h5.3v-1.3h-1.9v-1.9h1.9c0.2,0,0.4,0,0.7,0.1
		c0.3,0.2,0.4,0.4,0.7,0.9c0.6,1.3,0.6,1.7,1.1,2c0.2,0.1,0.3,0.1,0.6,0.1c1,0,3,0,3,0s0.9-0.3,0.9-1.3v-1.9H29.8z M25.2,24.3h-2.8
		v-1.8l2.8,0c0,0,0.9,0,0.9,0.9C26.1,24.3,25.2,24.3,25.2,24.3z"/>
</g>
</svg>
