<svg xmlns="http://www.w3.org/2000/svg" id="Camada_1" x="0" y="0" version="1.1" viewBox="0 0 50 50" xml:space="preserve"><style>.st0{fill:#8852ca}.st1{fill:#e5e5e5}</style><path d="M-98.1 2.5h-33.8c-3.1 0-5.6 2.5-5.6 5.6v33.8c0 3.1 2.5 5.6 5.6 5.6h33.8c1 0 1.9-.2 2.7-.7 1.7-.9 2.9-2.8 2.9-4.9V8.1c0-3.1-2.5-5.6-5.6-5.6z" class="st0"/><path d="M-99.4 37.4c-2 0-3.7-1.7-3.7-3.7s1.7-3.7 3.7-3.7 3.7 1.7 3.7 3.7-1.7 3.7-3.7 3.7zm0-5.4c-.9 0-1.7.8-1.7 1.7 0 .9.8 1.7 1.7 1.7.9 0 1.7-.8 1.7-1.7 0-1-.8-1.7-1.7-1.7zm-9.3 5.4c-2 0-3.7-1.7-3.7-3.7s1.7-3.7 3.7-3.7 3.7 1.7 3.7 3.7-1.7 3.7-3.7 3.7zm0-5.4c-.9 0-1.7.8-1.7 1.7 0 .9.8 1.7 1.7 1.7.9 0 1.7-.8 1.7-1.7 0-1-.8-1.7-1.7-1.7zm-9.2 5.5c-2 0-3.7-1.7-3.7-3.7s1.7-3.7 3.7-3.7 3.7 1.7 3.7 3.7-1.7 3.7-3.7 3.7zm0-5.4c-.9 0-1.7.8-1.7 1.7 0 .9.8 1.7 1.7 1.7.9 0 1.7-.8 1.7-1.7 0-.9-.8-1.7-1.7-1.7zm8.6-5.5v-1.2c0-.4-.3-.8-.8-.9-1-.1-2.1-.4-2.9-.8-.4-.2-.6-.7-.4-1.1l.1-.2c.2-.5.7-.7 1.2-.5.9.4 2 .7 3.2.7 2 0 3.3-1.1 3.3-2.7 0-1.5-1.1-2.5-3.2-3.3-2.9-1.1-4.6-2.4-4.6-4.9 0-2.1 1.4-3.8 3.6-4.4.4-.1.6-.5.6-.9v-1c0-.5.4-.9.9-.9s.9.4.9.9v1c0 .4.3.8.8.9.9.1 1.5.3 2.1.5.4.2.7.7.5 1.1l-.1.2c-.2.5-.7.7-1.1.5-.6-.3-1.6-.5-2.7-.5-2.2 0-3 1.3-3 2.4 0 1.5 1 2.2 3.5 3.2 2.9 1.2 4.3 2.6 4.3 5.1 0 2.1-1.3 4-3.8 4.6-.4.1-.6.4-.6.8v1.3c0 .5-.4.9-.9.9-.5.1-.9-.3-.9-.8zm16.7-2.3h-5.3c-.4 0-.7-.3-.7-.7V23c0-.4.3-.7.7-.7h5.3v2zm0-14.5h-5.6c-.4 0-.8-.3-.8-.8v-.6c0-.3.3-.6.6-.6h5.8v2zm-26 14.5h-4.4c-3.1 0-5.6-2.5-5.6-5.6v-5.4c0-3.1 2.5-5.6 5.6-5.6h4.8c.5 0 .9.4.9.9v.3c0 .5-.4.9-.9.9h-4.8c-2 0-3.5 1.6-3.5 3.5v5.4c0 2 1.6 3.5 3.5 3.5h4.4c.5 0 .9.4.9.9v.3c0 .5-.4.9-.9.9zm-3.9 20.6l-1.5-3.8c-.2-.4-.6-.6-1.1-.5-1.5.4-3.5.8-5.1-.1-1.2-.7-1.9-2-2.1-3.7-.4-4.7 1.4-8 2.3-9.5.3-.4.9-.5 1.3-.2l.2.2c.3.3.4.8.2 1.1-.8 1.2-2.3 4.2-2 8.2.1 1.1.4 1.8 1.1 2.2 1.4.8 4.1-.2 5-.6l.4-.2c1.5-.7 3.1 6.3 3.1 6.3.2.4 0 1-.5 1.1l-.2.1c-.4.1-.9-.1-1.1-.6zm8.4.9l-.3-.1c-.5-.2-.7-.7-.5-1.1l1.1-3.1c.7-2 2.6-3.3 4.7-3.3h1.7c2 0 3.9 1.2 4.6 3.2l1.2 3c.2.4 0 1-.5 1.1l-.2.1c-.4.2-1 0-1.1-.5l-1.2-3c-.4-1.1-1.5-1.9-2.8-1.9h-1.7c-1.3 0-2.4.8-2.8 2l-1.1 3.1c-.1.4-.6.6-1.1.5z" class="st1"/><path d="M42.4 2.3H8.6C5.5 2.3 3 4.8 3 7.9v33.8c0 3.1 2.5 5.6 5.6 5.6h33.8c1 0 1.9-.2 2.7-.7 1.7-.9 2.9-2.8 2.9-4.9V7.9c0-3.1-2.5-5.6-5.6-5.6z" class="st0"/><path d="M41.1 37.2c-2 0-3.7-1.7-3.7-3.7s1.7-3.7 3.7-3.7 3.7 1.7 3.7 3.7-1.7 3.7-3.7 3.7zm0-5.4c-.9 0-1.7.8-1.7 1.7 0 .9.8 1.7 1.7 1.7.9 0 1.7-.8 1.7-1.7 0-1-.8-1.7-1.7-1.7zm-9.3 5.4c-2 0-3.7-1.7-3.7-3.7s1.7-3.7 3.7-3.7 3.7 1.7 3.7 3.7-1.7 3.7-3.7 3.7zm0-5.4c-.9 0-1.7.8-1.7 1.7 0 .9.8 1.7 1.7 1.7.9 0 1.7-.8 1.7-1.7 0-1-.8-1.7-1.7-1.7zm-9.2 5.5c-2 0-3.7-1.7-3.7-3.7s1.7-3.7 3.7-3.7 3.7 1.7 3.7 3.7c0 2.1-1.7 3.7-3.7 3.7zm0-5.4c-.9 0-1.7.8-1.7 1.7 0 .9.8 1.7 1.7 1.7.9 0 1.7-.8 1.7-1.7 0-.9-.8-1.7-1.7-1.7zm8.6-5.5v-1.2c0-.4-.3-.8-.8-.9-1-.1-2.1-.4-2.9-.8-.4-.2-.6-.7-.4-1.1l.1-.2c.2-.5.7-.7 1.2-.5.9.4 2 .7 3.2.7 2 0 3.3-1.1 3.3-2.7 0-1.5-1.1-2.5-3.2-3.3-2.9-1.1-4.6-2.4-4.6-4.9 0-2.1 1.4-3.8 3.6-4.4.4-.1.6-.5.6-.9v-1c0-.5.4-.9.9-.9s.9.4.9.9v1c0 .4.3.8.8.9.9.1 1.5.3 2.1.5.4.2.7.7.5 1.1l-.1.2c-.2.5-.7.7-1.1.5-.6-.3-1.6-.5-2.7-.5-2.2 0-3 1.3-3 2.4 0 1.5 1 2.2 3.5 3.2 2.9 1.2 4.3 2.6 4.3 5.1 0 2.1-1.3 4-3.8 4.6-.4.1-.6.4-.6.8v1.3c0 .5-.4.9-.9.9-.5.1-.9-.3-.9-.8zm16.7-2.3h-5.3c-.4 0-.7-.3-.7-.7v-.6c0-.4.3-.7.7-.7h5.3v2zm0-14.5h-5.6c-.4 0-.8-.3-.8-.8v-.6c0-.3.3-.6.6-.6h5.8v2zm-26 14.5h-4.4c-3.1 0-5.6-2.5-5.6-5.6v-5.4c0-3.1 2.5-5.6 5.6-5.6h4.8c.5 0 .9.4.9.9v.3c0 .5-.4.9-.9.9h-4.8c-2 0-3.5 1.6-3.5 3.5v5.4c0 2 1.6 3.5 3.5 3.5h4.4c.5 0 .9.4.9.9v.3c0 .5-.4.9-.9.9zM18 44.7l-1.5-3.8c-.2-.4-.6-.6-1.1-.5-1.5.4-3.5.8-5.1-.1-1.2-.7-1.9-2-2.1-3.7-.4-4.7 1.4-8 2.3-9.5.3-.4.9-.5 1.3-.2l.2.2c.3.3.4.8.2 1.1-.8 1.2-2.3 4.2-2 8.2.1 1.1.4 1.8 1.1 2.2 1.4.8 4.1-.2 5-.6l.4-.2c1.5-.7 3.1 6.3 3.1 6.3.2.4 0 1-.5 1.1l-.2.1c-.4.1-.9-.1-1.1-.6zm8.4.9l-.3-.1c-.5-.2-.7-.7-.5-1.1l1.1-3.1c.7-2 2.6-3.3 4.7-3.3h1.7c2 0 3.9 1.2 4.6 3.2l1.2 3c.2.4 0 1-.5 1.1l-.2.1c-.4.2-1 0-1.1-.5l-1.2-3c-.4-1.1-1.5-1.9-2.8-1.9h-1.7c-1.3 0-2.4.8-2.8 2l-1.1 3c-.2.5-.7.7-1.1.6z" class="st1"/></svg>