<svg xmlns="http://www.w3.org/2000/svg" id="Layer_1" x="0" y="0" version="1.1" viewBox="0 0 50 50" xml:space="preserve"><style>.st2{fill:#031326}</style><path fill="#00c8e2" d="M45.7 25l.4 4.2L4.2 44.4v-8.7l.2-5 41.7-15.2-.6 3.6z"/><path fill="#00dffc" d="M45.3 9l-.3 7.5L4.1 31.4 3.9 22l.2-4.3 41.2-15z"/><path d="M24.2 49.8h-20c-.7 0-1.2-.6-1.2-1.2v-47C3 .9 3.6.4 4.2.4H46c.7 0 1.2.6 1.2 1.2V29c0 .7-.6 1.2-1.2 1.2s-1.2-.6-1.2-1.2V2.8H5.5v44.5h18.7c.7 0 1.2.6 1.2 1.2s-.5 1.3-1.2 1.3z" class="st2"/><path d="M35 10.3H10.8c-.4 0-.8-.3-.8-.8s.3-.8.8-.8H35c.4 0 .8.3.8.8s-.4.8-.8.8zm-7.6 4.6H10.8c-.4 0-.8-.3-.8-.8s.3-.8.8-.8h16.6c.4 0 .8.3.8.8s-.3.8-.8.8zm5.7 4.6H10.8c-.4 0-.8-.3-.8-.8s.3-.8.8-.8H33c.4 0 .8.3.8.8s-.3.8-.7.8zm5.1 25.4c-1.8 0-3.2-1.4-3.2-3.2s1.4-3.2 3.2-3.2 3.2 1.4 3.2 3.2-1.4 3.2-3.2 3.2zm0-4.9c-1 0-1.7.8-1.7 1.7s.8 1.7 1.7 1.7 1.7-.8 1.7-1.7-.7-1.7-1.7-1.7z" class="st2"/><path d="M39.7 49.9h-3c-.4 0-.8-.3-.8-.8v-1.7c-.6-.2-1.1-.6-1.6-.9l-1.4.8c-.4.2-.8.1-1-.3l-1.5-2.6c-.2-.4-.1-.8.3-1l1.4-.8c-.1-.3-.1-.6-.1-.9 0-.3 0-.6.1-1l-1.4-.8c-.4-.2-.5-.7-.3-1l1.5-2.6c.1-.2.3-.3.5-.3s.4 0 .6.1l1.4.8c.5-.4 1.1-.7 1.6-1v-1.6c0-.4.3-.8.8-.8h3c.4 0 .8.3.8.8v1.6c.6.2 1.2.6 1.6 1l1.4-.8c.2-.1.4-.1.6-.1.2.1.4.2.5.3l1.5 2.6c.2.4.1.8-.3 1l-1.4.8c.1.3.1.6.1 1 0 .3 0 .6-.1 1l1.4.8c.2.1.3.3.3.5s0 .4-.1.6l-1.5 2.6c-.2.4-.7.5-1 .3l-1.4-.8c-.5.4-1.1.7-1.6.9v1.6c-.2.3-.5.7-.9.7zm-2.2-1.5H39V47c0-.3.2-.6.5-.7.7-.2 1.4-.6 2-1.1.2-.2.6-.3.9-.1l1.2.7.7-1.3-1.2-.7c-.3-.2-.4-.5-.4-.8.1-.4.1-.8.1-1.2 0-.4 0-.8-.1-1.1-.1-.3.1-.7.4-.8l1.2-.7-.7-1.3-1.2.7c-.3.2-.7.1-.9-.1-.6-.5-1.2-.9-2-1.1-.3-.1-.5-.4-.5-.7V35h-1.5v1.4c0 .3-.2.6-.5.7-.7.2-1.4.6-2 1.1-.2.2-.6.3-.9.1l-1.2-.7-.8 1.4 1.2.7c.3.2.4.5.4.8-.1.4-.1.8-.1 1.1 0 .4 0 .8.1 1.1.1.3-.1.7-.4.8l-1.2.7.7 1.3L34 45c.3-.2.7-.1.9.1.6.5 1.2.9 2 1.1.3.1.5.4.5.7v1.5zM11.3 36.2c-.2 0-.5-.1-.6-.3-.2-.3-.2-.8.2-1l10.3-7.6c.2-.1.4-.2.6-.1l7.8 1.2 7.3-5.4c.3-.2.8-.2 1 .2.2.3.2.8-.2 1l-7.5 5.6c-.2.1-.4.2-.6.1l-7.8-1.2-10.1 7.4c-.1.1-.3.1-.4.1z" class="st2"/></svg>