<?xml version="1.0" encoding="utf-8"?>
<!-- Generator: Adobe Illustrator 24.0.0, SVG Export Plug-In . SVG Version: 6.00 Build 0)  -->
<svg version="1.1" id="Layer_1" xmlns="http://www.w3.org/2000/svg" xmlns:xlink="http://www.w3.org/1999/xlink" x="0px" y="0px"
	 viewBox="0 0 50 50" style="enable-background:new 0 0 50 50;" xml:space="preserve">
<style type="text/css">
	.st0{fill:#00C8E2;}
	.st1{fill:#00DFFC;}
	.st2{fill:#444444;}
</style>
<g>
	<polygon class="st0" points="46.7,23.3 46.7,27.5 5.6,42.4 1.2,37.5 5.9,36.5 6.6,33.5 6.1,28.2 46.9,13.2 46.4,17 	"/>
</g>
<g>
	<polygon class="st1" points="45.7,6.4 45.6,14.2 6.7,28.4 6.2,18.4 6.2,13.9 33.3,4 44.6,5 	"/>
</g>
<g>
	<path class="st2" d="M49.5,46.6l-5.9-5.9c1.1-1.5,1.8-3.3,1.8-5.3c0-4.8-3.9-8.8-8.8-8.8c-4.8,0-8.8,4-8.8,8.8
		c0,4.9,3.9,8.8,8.8,8.8c2,0,3.8-0.6,5.3-1.8l5.9,5.9c0.2,0.2,0.6,0.4,0.9,0.4s0.6-0.1,0.9-0.4C50,47.9,50,47.1,49.5,46.6z
		 M30.3,35.4c0-3.5,2.8-6.3,6.3-6.3c3.5,0,6.3,2.8,6.3,6.3c0,1.7-0.7,3.3-1.8,4.5s-2.7,1.8-4.5,1.8C33.1,41.7,30.3,38.9,30.3,35.4z"
		/>
</g>
<g>
	<path class="st2" d="M28.2,10.3h-3.3c-0.4,0-0.8-0.3-0.8-0.8s0.3-0.8,0.8-0.8h3.3c0.4,0,0.8,0.3,0.8,0.8S28.6,10.3,28.2,10.3z"/>
</g>
<g>
	<path class="st2" d="M47.8,7.9v18.4c0,0.7-0.6,1.2-1.2,1.2s-1.2-0.6-1.2-1.2V7.9c0-1.2-0.9-2.1-2.1-2.1H9.8c-1.2,0-2.1,0.9-2.1,2.1
		v26.9c0,0.1,0,0.2,0,0.3h14.7c0.7,0,1.2,0.6,1.2,1.2s-0.6,1.2-1.2,1.2H2.8c0.6,2.4,2.7,4.2,5.3,4.2h18.2c0.7,0,1.2,0.6,1.2,1.2
		c0,0.7-0.6,1.2-1.2,1.2H8.1c-4.4,0-8-3.6-8-7.9c0-0.7,0.6-1.2,1.2-1.2h3.8c0-0.1,0-0.2,0-0.3V7.9c0-2.5,2.1-4.6,4.6-4.6h33.5
		C45.8,3.3,47.8,5.3,47.8,7.9z"/>
</g>
<g>
	<path class="st2" d="M13.4,31c-0.4,0-0.8-0.3-0.8-0.8v-6.8c0-0.4,0.3-0.8,0.8-0.8s0.8,0.3,0.8,0.8v6.8C14.1,30.7,13.8,31,13.4,31z"
		/>
</g>
<g>
	<path class="st2" d="M17.3,31c-0.4,0-0.8-0.3-0.8-0.8V20c0-0.4,0.3-0.8,0.8-0.8S18,19.5,18,20v10.3C18,30.7,17.7,31,17.3,31z"/>
</g>
<g>
	<path class="st2" d="M21.2,31c-0.4,0-0.8-0.3-0.8-0.8V16.6c0-0.4,0.3-0.8,0.8-0.8s0.8,0.3,0.8,0.8v13.6C22,30.7,21.6,31,21.2,31z"
		/>
</g>
</svg>
