<?xml version="1.0" encoding="utf-8"?>
<!-- Generator: Adobe Illustrator 24.0.0, SVG Export Plug-In . SVG Version: 6.00 Build 0)  -->
<svg version="1.1" id="Layer_1" xmlns="http://www.w3.org/2000/svg" xmlns:xlink="http://www.w3.org/1999/xlink" x="0px" y="0px"
	 viewBox="0 0 50 50" style="enable-background:new 0 0 50 50;" xml:space="preserve">
<style type="text/css">
	.st0{fill:#00C8E2;}
	.st1{fill:#00DFFC;}
	.st2{fill:#444444;}
</style>
<g>
	<g>
		<polygon class="st0" points="45.7,25 46.1,29.2 4.2,44.4 4.2,35.7 4.4,30.7 46.1,15.5 45.5,19.1 		"/>
	</g>
	<g>
		<polygon class="st1" points="45.3,9 45,16.5 4.1,31.4 3.9,22 4.1,17.7 45.3,2.7 		"/>
	</g>
	<g>
		<path class="st2" d="M24.2,49.8h-20c-0.7,0-1.2-0.6-1.2-1.2v-47c0-0.7,0.6-1.2,1.2-1.2h41.8c0.7,0,1.2,0.6,1.2,1.2V29
			c0,0.7-0.6,1.2-1.2,1.2s-1.2-0.6-1.2-1.2V2.8H5.5v44.5h18.7c0.7,0,1.2,0.6,1.2,1.2S24.9,49.8,24.2,49.8z"/>
	</g>
	<g>
		<path class="st2" d="M35,10.3H10.8c-0.4,0-0.8-0.3-0.8-0.8s0.3-0.8,0.8-0.8H35c0.4,0,0.8,0.3,0.8,0.8S35.4,10.3,35,10.3z"/>
	</g>
	<g>
		<path class="st2" d="M27.4,14.9H10.8c-0.4,0-0.8-0.3-0.8-0.8s0.3-0.8,0.8-0.8h16.6c0.4,0,0.8,0.3,0.8,0.8S27.9,14.9,27.4,14.9z"/>
	</g>
	<g>
		<path class="st2" d="M33.1,19.5H10.8c-0.4,0-0.8-0.3-0.8-0.8s0.3-0.8,0.8-0.8h22.2c0.4,0,0.8,0.3,0.8,0.8S33.5,19.5,33.1,19.5z"/>
	</g>
	<g>
		<g>
			<path class="st2" d="M38.2,44.9c-1.8,0-3.2-1.4-3.2-3.2s1.4-3.2,3.2-3.2s3.2,1.4,3.2,3.2S40,44.9,38.2,44.9z M38.2,40
				c-1,0-1.7,0.8-1.7,1.7s0.8,1.7,1.7,1.7s1.7-0.8,1.7-1.7S39.2,40,38.2,40z"/>
		</g>
		<g>
			<path class="st2" d="M39.7,49.9h-3c-0.4,0-0.8-0.3-0.8-0.8v-1.7c-0.6-0.2-1.1-0.6-1.6-0.9l-1.4,0.8c-0.4,0.2-0.8,0.1-1-0.3
				l-1.5-2.6c-0.2-0.4-0.1-0.8,0.3-1l1.4-0.8C32,42.3,32,42,32,41.7c0-0.3,0-0.6,0.1-1l-1.4-0.8c-0.4-0.2-0.5-0.7-0.3-1l1.5-2.6
				c0.1-0.2,0.3-0.3,0.5-0.3c0.2,0,0.4,0,0.6,0.1l1.4,0.8c0.5-0.4,1.1-0.7,1.6-1v-1.6c0-0.4,0.3-0.8,0.8-0.8h3
				c0.4,0,0.8,0.3,0.8,0.8v1.6c0.6,0.2,1.2,0.6,1.6,1l1.4-0.8c0.2-0.1,0.4-0.1,0.6-0.1c0.2,0.1,0.4,0.2,0.5,0.3l1.5,2.6
				c0.2,0.4,0.1,0.8-0.3,1l-1.4,0.8c0.1,0.3,0.1,0.6,0.1,1c0,0.3,0,0.6-0.1,1l1.4,0.8c0.2,0.1,0.3,0.3,0.3,0.5s0,0.4-0.1,0.6
				l-1.5,2.6c-0.2,0.4-0.7,0.5-1,0.3l-1.4-0.8c-0.5,0.4-1.1,0.7-1.6,0.9v1.6C40.4,49.5,40.1,49.9,39.7,49.9z M37.5,48.4h1.5v-1.4
				c0-0.3,0.2-0.6,0.5-0.7c0.7-0.2,1.4-0.6,2-1.1c0.2-0.2,0.6-0.3,0.9-0.1l1.2,0.7l0.7-1.3l-1.2-0.7c-0.3-0.2-0.4-0.5-0.4-0.8
				c0.1-0.4,0.1-0.8,0.1-1.2c0-0.4,0-0.8-0.1-1.1c-0.1-0.3,0.1-0.7,0.4-0.8l1.2-0.7l-0.7-1.3l-1.2,0.7c-0.3,0.2-0.7,0.1-0.9-0.1
				c-0.6-0.5-1.2-0.9-2-1.1c-0.3-0.1-0.5-0.4-0.5-0.7V35h-1.5v1.4c0,0.3-0.2,0.6-0.5,0.7c-0.7,0.2-1.4,0.6-2,1.1
				c-0.2,0.2-0.6,0.3-0.9,0.1l-1.2-0.7L32.1,39l1.2,0.7c0.3,0.2,0.4,0.5,0.4,0.8c-0.1,0.4-0.1,0.8-0.1,1.1c0,0.4,0,0.8,0.1,1.1
				c0.1,0.3-0.1,0.7-0.4,0.8l-1.2,0.7l0.7,1.3L34,45c0.3-0.2,0.7-0.1,0.9,0.1c0.6,0.5,1.2,0.9,2,1.1c0.3,0.1,0.5,0.4,0.5,0.7V48.4z"
				/>
		</g>
	</g>
	<g>
		<path class="st2" d="M11.3,36.2c-0.2,0-0.5-0.1-0.6-0.3c-0.2-0.3-0.2-0.8,0.2-1l10.3-7.6c0.2-0.1,0.4-0.2,0.6-0.1l7.8,1.2l7.3-5.4
			c0.3-0.2,0.8-0.2,1,0.2c0.2,0.3,0.2,0.8-0.2,1l-7.5,5.6c-0.2,0.1-0.4,0.2-0.6,0.1l-7.8-1.2l-10.1,7.4
			C11.6,36.2,11.4,36.2,11.3,36.2z"/>
	</g>
</g>
</svg>
