<?xml version="1.0" encoding="utf-8"?>
<!-- Generator: Adobe Illustrator 22.0.1, SVG Export Plug-In . SVG Version: 6.00 Build 0)  -->
<svg version="1.1" id="Layer_1" xmlns="http://www.w3.org/2000/svg" xmlns:xlink="http://www.w3.org/1999/xlink" x="0px" y="0px"
	 viewBox="0 0 50 50" style="enable-background:new 0 0 50 50;" xml:space="preserve">
<style type="text/css">
	.st0{fill:none;stroke:#464646;stroke-width:0.75;stroke-linecap:round;stroke-miterlimit:10;}
	.st1{fill:#ECC158;}
	.st2{fill:#F0CD77;}
	.st3{fill:#464646;}
</style>
<line class="st0" x1="44.1" y1="33.8" x2="44.3" y2="34.2"/>
<g>
	<path class="st1" d="M35.1,17.1l-19.2,7L4.9,43.3c-0.4,0.6,0.1,1.4,0.8,1.4h3.8l34.3-12.5L35.1,17.1z"/>
	<path class="st2" d="M28.4,5.4c-0.4-0.6-1.3-0.6-1.6,0L16,24.1l19.2-7L28.4,5.4z"/>
	<path class="st3" d="M45.3,43.6H31.4l-2.7-4.8l8.7-15.1l5.7,9.9c0.3,0.6,1.1,0.8,1.7,0.5c0.6-0.3,0.8-1.1,0.5-1.7L29.5,5
		c-0.4-0.7-1.1-1.1-1.9-1.1S26.1,4.3,25.7,5L3.8,42.8c-0.4,0.7-0.4,1.5,0,2.2c0.4,0.7,1.1,1.1,1.9,1.1h39.6c0.7,0,1.2-0.6,1.2-1.2
		S45.9,43.6,45.3,43.6z M27.8,38.8l2.7,4.8H30l-9.2-16h-5.3l0.4-0.6h18.2l2.6-4.6L37,23L27.8,38.8z M6.2,43.6L15,28.4h5.3l8.8,15.2
		H6.2z M36.2,21.6l-2.6,4.6H16.3L27.6,6.7L36.2,21.6z"/>
</g>
</svg>
