<svg xmlns="http://www.w3.org/2000/svg" version="1" viewBox="0 0 50 50"><path fill="#F56991" d="M14.824 32.458l5.69-2.072c-.446-.144-2.074-1.546-2.775-2.07-1.174-.88-2.315-1.872-3.395-2.87-1.96-1.807-2.945-4.03-1.78-6.594.842-1.85 2.413-3.395 3.96-4.665 4.07-3.345 9.562-5.924 14.798-6.62 1.952-.26 4.912-.502 6.59.795 1.847 1.427.46 3.912-.648 5.34-2.627 3.39-7.27 5.703-11.586 5.982-2.846.184-4.358-1.86-5.27-2.036-1.02-.198-1.896.59-2.022 1.572-.135 1.048.7 2.148 1.4 2.846 3.938 3.92 12.003 2.252 16.486-.176 5.088-2.755 10.975-8.783 8.063-14.565-3.23-6.41-12.94-7.23-21.48-3.845-6.712 2.66-15.72 7.417-17.668 14.957-1.77 6.844 4.844 10.668 9.634 14.02z"/><path fill="#FF85AE" d="M13.476 17.31c.852-1.185 1.953-2.226 3.048-3.125 4.072-3.345 9.563-5.924 14.8-6.62 1.95-.26 4.91-.502 6.59.795l.042.04 5.768-2.1C40.01.84 30.916.285 22.854 3.48 16.145 6.137 7.137 10.894 5.19 18.434a8.81 8.81 0 0 0-.268 1.988l8.554-3.113z"/><path fill="#444" d="M12.57 49.565c-.313 0-.627-.015-.94-.043-1.974-.182-3.603-1.134-4.59-2.682-1.145-1.8-1.336-4.246-.51-6.545 1.232-3.428 3.97-5.552 7.07-7.436l-.565-.39c-4.742-3.257-10.644-7.31-8.84-14.29C5.8 11.964 11.95 6.697 22.474 2.528c11.27-4.467 19.988-1.2 22.777 4.337 3.292 6.532-3.275 13.106-8.49 15.93-4.434 2.4-13.16 4.523-17.7 0-.88-.875-1.885-2.228-1.695-3.705a2.92 2.92 0 0 1 1.174-1.993 2.63 2.63 0 0 1 2.066-.457c.5.097.94.403 1.452.76.874.606 1.963 1.363 3.555 1.26 4.1-.266 8.456-2.51 10.84-5.587.923-1.19 1.417-2.344 1.322-3.088-.042-.326-.197-.583-.49-.81-1.508-1.164-4.757-.734-5.826-.59-4.855.646-10.194 3.037-14.283 6.396-1.874 1.54-3.042 2.905-3.676 4.298-.86 1.892-.356 3.663 1.542 5.414 1.23 1.135 2.314 2.05 3.313 2.8.217.163.52.406.85.672.432.348 1.19.957 1.55 1.192.168-.028.398-.076.643-.123.53-.104 1.08-.213 1.45-.233.77-.04 1.546-.015 2.306.076 1.333.162 2.55.527 3.618 1.084a1.028 1.028 0 0 1-.952 1.822c-.848-.443-1.828-.734-2.914-.865-.642-.08-1.297-.1-1.95-.064-.225.012-.767.118-1.163.196-.874.17-1.167.223-1.47.154-.45-.1-.968-.48-2.41-1.64-.308-.248-.59-.476-.792-.627-1.055-.79-2.19-1.75-3.474-2.935-2.56-2.362-3.258-5.05-2.018-7.776 1.01-2.218 2.904-3.935 4.24-5.034 4.374-3.592 10.1-6.15 15.317-6.845 2.218-.296 5.394-.513 7.354 1 .72.56 1.16 1.31 1.27 2.177.215 1.68-.825 3.432-1.735 4.607-2.766 3.57-7.607 6.073-12.332 6.38-2.303.15-3.843-.92-4.86-1.625-.24-.167-.57-.396-.688-.433a.587.587 0 0 0-.453.11.874.874 0 0 0-.34.59c-.06.482.363 1.243 1.108 1.985 3.512 3.498 11.19 1.86 15.27-.35 4.512-2.444 10.268-7.974 7.635-13.2-3.096-6.145-12.712-6.313-20.185-3.35-9.74 3.86-15.636 8.788-17.05 14.255-1.442 5.586 3.583 9.037 8.016 12.082.657.452 1.296.89 1.897 1.325l1.287.927-1.375.795c-3.303 1.91-6.366 3.892-7.543 7.166-.613 1.706-.497 3.48.31 4.747.646 1.014 1.698 1.616 3.043 1.74 2.947.268 5.995-1.07 8.146-3.586 2.237-2.617 3.118-5.97 2.358-8.972a1.028 1.028 0 0 1 1.992-.503c.924 3.646-.118 7.687-2.787 10.81-2.356 2.76-5.646 4.34-8.952 4.34zm8.315-20.13z"/></svg>