<svg xmlns="http://www.w3.org/2000/svg" viewBox="0 0 50 50"><path fill="#8852ca" d="M47.4 8.1v33.7c0 2.1-1.2 4-2.9 4.9-.8.4-1.7.7-2.7.7H8.1c-3.1 0-5.6-2.5-5.6-5.6V8.1C2.5 5 5 2.5 8.1 2.5h33.7c3.1.1 5.6 2.6 5.6 5.6z"/><path fill="#e5e5e5" d="M44.6 30.7l-3.1-6.5c-.1-.3-.2-.6-.2-.9-.2-3.4-1.2-5.7-1.2-5.8C35 5.8 22.1 6.3 22 6.3 5.8 6.3 5.2 22.9 5.2 23.1c0 9.1 4.4 13.3 6.3 14.8.3.2.5.6.5 1v8.6h2v-8.6c0-1-.5-2-1.3-2.6-1.7-1.2-5.5-4.9-5.5-13.1 0-.6.6-14.8 14.8-14.8.1 0 11.6-.4 16.2 10.1 0 0 .9 2.1 1.1 5 0 .6.2 1.2.4 1.7l3 6.4-2.2.9c-.7.3-1.2 1-1.2 1.8v2.5c0 1-.4 1.9-1.1 2.6-.7.7-1.6 1-2.6 1h-3.1c-1.6 0-2.8 1.2-2.8 2.7v4.5h2v-4.5c0-.4.3-.7.8-.7h3.2c1.5 0 2.9-.6 4-1.6 1.1-1.1 1.7-2.5 1.7-4v-2.4l2.3-1c.5-.2.8-.6 1-1 .1-.7.1-1.2-.1-1.7z"/><path fill="none" stroke="#e5e5e5" stroke-linecap="round" stroke-miterlimit="10" stroke-width="2" d="M22.8 31.6S11.4 25.9 12 19.1c0 0 .2-5.4 5.3-5.4 0 0 3.1-.1 5.5 3m0 14.9s11.4-5.7 10.8-12.5c0 0-.2-5.4-5.3-5.4 0 0-3.1-.1-5.5 3"/><path fill="none" stroke="#e5e5e5" stroke-linecap="round" stroke-linejoin="round" stroke-miterlimit="10" stroke-width="2" d="M17 22.4h2.1l1.9-2.1 3.1 4.7 1.7-2.6h2.9"/></svg>