<svg xmlns="http://www.w3.org/2000/svg" viewBox="0 0 300 300"><style>.st2{fill:#b7b7b7}.st3{fill:#f6543b}.st4{fill:#61e061}.st5{fill:#c75eeb}.st6{fill:#4ebfe9}.st7{fill:#fac900}</style><path id="Camada_18" fill="#008dd3" d="M274.4 148.7c.1 19.8-4.1 38.6-11.6 55.7-21.1 47.6-68.6 80.8-124 81-14.7.1-28.9-2.3-42.2-6.5-25-8-46.8-23-63.1-42.8-17-20.4-28.1-46-30.8-74-.4-4-.6-8.2-.6-12.3C1.9 103.6 24.8 62.6 60 37.9c4.6-3.3 9.4-6.2 14.4-8.8 7-3.8 14.4-6.8 22-9.4 7.2-2.3 14.7-4 22.4-5.2 6.2-.8 12.5-1.3 18.9-1.4 25-.1 48.5 6.6 68.8 18.3 3.7 2.1 7.1 4.3 10.5 6.8 16.2 11.5 29.8 26.5 39.7 43.9 1.1 2 2.2 3.9 3.2 6 .8 1.8 1.7 3.5 2.5 5.3 2.6 5.8 4.8 11.7 6.6 17.8 2 6.8 3.5 13.9 4.3 21 .7 5.4 1.1 10.9 1.1 16.5z"/><g id="Camada_2"><path fill="#eae9e4" d="M61.6 76l-5.7 20.2c-1.5 5.2-.9 10.8 1.8 15.5l85.1 152.5c4.9 8.9 15.3 14.9 23.2 13.4l102.8-19.1c6.4-1.2 11.8-5.3 14.6-11.2l11.1-23.3c2.7-5.6 2.5-12.1-.6-17.5L203.4 49c-4.1-7.1-12.4-10.8-20.4-9L75.2 63.2c-6.6 1.4-11.8 6.4-13.6 12.8z"/><path d="M55.2 104.5l88.4 158.1c4.9 8.8 15.3 14.8 23.1 13.3L274.9 256l.4-.1-.5.3-108 19.8c-.8.1-1.6.2-2.5.2-7.5 0-16.4-5.7-20.9-13.7l-88-157.6" class="st2"/><path d="M55 101l89.3 160.1c4.9 8.8 15.3 14.8 23.1 13.4l110.9-20.6-.3.3-110.6 20.6c-.8.2-1.6.2-2.5.2-7.5 0-16.4-5.7-20.9-13.7L55 101.5" class="st2"/><path d="M55.3 98.9l89.9 160.7c4.9 8.8 15.3 14.8 23.1 13.3l111.9-20.8-.3.3-111.5 20.8c-.8.1-1.6.2-2.5.2-7.5 0-16.4-5.7-20.9-13.7L55.2 99.3" class="st2"/><path d="M55.7 96.7l90.2 161.4c4.9 8.8 15.3 14.8 23.1 13.3l112.3-20.8-.2.2L169 271.6c-.8.2-1.6.2-2.5.2-7.5 0-16.4-5.7-20.9-13.7L55.6 97" class="st2"/><path d="M56.2 94.9l90.5 161.7c4.9 8.8 15.3 14.8 23.1 13.3L282.4 249l-.1.2-112.4 20.9c-.8.2-1.6.2-2.5.2-7.5 0-16.4-5.7-20.9-13.7L56.1 95.2" class="st2"/><path d="M56.8 93.1l90.7 162c4.9 8.8 15.3 14.8 23.1 13.3l112.7-20.9-.1.3-112.5 20.9c-.8.1-1.6.2-2.5.2-7.5 0-16.4-5.7-20.9-13.7L56.7 93.4" class="st2"/><path d="M57.2 91.5l91 162.1c4.9 8.8 15.3 14.8 23.1 13.4l112.6-21-.1.3-112.4 20.9c-.8.2-1.6.2-2.5.2-7.5 0-16.4-5.7-20.9-13.7L57.2 91.8" class="st2"/><path d="M57.8 89.6L149 252.1c4.9 8.8 15.3 14.8 23.1 13.3l112.5-20.9-.1.3-112.4 20.9c-.8.1-1.6.2-2.5.2-7.5 0-16.4-5.7-20.9-13.7l-91-162.3" class="st2"/><path d="M58.3 87.9l91.5 162.6c4.9 8.8 15.3 14.8 23.1 13.4L285.4 243l-.1.3L173 264.1c-.8.2-1.6.2-2.5.2-7.5 0-16.4-5.7-20.9-13.7L58.2 88.2" class="st2"/><path d="M58.9 85.8L150.6 249c4.9 8.8 15.3 14.8 23.1 13.3l112.4-20.9-.1.3-112.2 20.8c-.8.2-1.6.2-2.5.2-7.5 0-16.4-5.7-20.9-13.7L58.8 86.1" class="st2"/><path d="M59.5 83.7l91.9 163.8c4.9 8.8 15.3 14.8 23.1 13.3L286.8 240l-.1.3-112.2 20.8c-.8.1-1.6.2-2.5.2-7.5 0-16.4-5.7-20.9-13.7L59.4 84" class="st2"/><path d="M60.1 81.7L152.2 246c4.9 8.8 15.3 14.8 23.1 13.4l112.3-20.8-.1.3-112.1 20.8c-.8.2-1.6.2-2.5.2-7.5 0-16.4-5.7-20.9-13.7L60 82" class="st2"/><path d="M60.6 80.1l92.2 164.5c4.5 8 13.4 13.7 20.9 13.7.8 0 1.7-.1 2.5-.2l112.1-20.8.1-.3L176 257.8c-7.8 1.5-18.2-4.5-23.1-13.3L60.7 79.8" class="st2"/><path d="M61.3 77.6L153.7 243c4.9 8.8 15.3 14.8 23.1 13.4L289 235.5l-.1.3-112 20.8c-.8.2-1.6.2-2.5.2-7.5 0-16.4-5.7-20.9-13.7L61.2 77.9" class="st2"/><path d="M62 75.3l92.5 166.2c4.9 8.8 15.3 14.8 23.1 13.3L289.7 234l-.1.3-111.9 20.8c-.8.2-1.6.2-2.5.2-7.5 0-16.4-5.7-20.9-13.7l-92.4-166" class="st2"/><path d="M62.5 73.5l92.8 166.4c4.9 8.8 15.3 14.8 23.1 13.3l112.1-20.8-.1.3-111.9 20.8c-.8.1-1.6.2-2.5.2-7.5 0-16.4-5.7-20.9-13.7L62.4 73.8" class="st2"/><path d="M63.1 72.3l92.7 166.3c4.5 8 13.4 13.7 20.9 13.7.8 0 1.7-.1 2.5-.2L291 231.3l.1-.3-112 20.8c-7.8 1.5-18.2-4.5-23.1-13.4L63.3 71.9" class="st2"/><path d="M64.5 70l92.3 166.9c4.9 8.8 15.3 14.8 23.1 13.3l111.9-20.8-.1.3-111.8 20.8c-.8.1-1.6.2-2.5.2-7.5 0-16.4-5.7-20.9-13.7L64.2 70.3" class="st2"/><path d="M65.8 68.5l91.8 166.9c4.9 8.8 15.3 14.8 23.1 13.4L292.6 228l-.1.3L180.7 249c-.8.2-1.6.2-2.5.2-7.5 0-16.4-5.7-20.9-13.7L65.6 68.9" class="st2"/><path d="M67.2 67.2l91.2 166.7c4.9 8.8 15.3 14.8 23.1 13.3l111.8-20.8-.1.3-111.6 20.7c-.8.2-1.6.2-2.5.2-7.5 0-16.4-5.7-20.9-13.7L66.9 67.5" class="st2"/><path d="M210.2 73.3l-2.5 44.3-66-3.6 3.3-59.1 11.7-2.6 43.3 2.4 5.6 10.7 4.6 7.9" class="st3"/><path d="M248.4 147l-19.6 34.8h-39.3L169.9 147l19.6-34.8h39.3z" class="st4"/><path d="M154.5 212.9c8.8 7.3 20.8 10.8 33.1 8.7 22.1-3.8 37-24.5 33.2-46.1l-79.3 13.8 13 23.6z" class="st5"/><path d="M115 141.4l3.3-57.4 68.8 47.2-61.3 30.1" class="st6"/><path d="M280.5 194.2c.8 12.1-4.8 24-15.5 30.5l-22.3 4.2c-9.6-1.7-18.5-7.7-23.7-17.1-8.9-16.3-3.3-36.7 12.5-45.5 10.7-6 23.5-5.1 33.3 1.3" class="st7"/><path d="M261.2 211.8c3 5.6 9.9 7.6 15.3 4.6s7.3-9.9 4.3-15.5-9.9-7.6-15.3-4.6c-5.5 3-7.4 10-4.3 15.5zm.9-.5c-2.8-5-1-11.4 3.9-14.1s11.1-.8 13.9 4.2 1 11.4-3.9 14.1-11.2.9-13.9-4.2z" class="st6"/><path d="M151.5 193.1c3 5.6 9.9 7.6 15.3 4.6s7.3-9.9 4.3-15.5-9.9-7.6-15.3-4.6-7.4 10-4.3 15.5zm.9-.5c-2.8-5-1-11.4 3.9-14.1s11.1-.8 13.9 4.2c2.8 5 1 11.4-3.9 14.1s-11.2.9-13.9-4.2zm-2.3-45c3 5.6 9.9 7.6 15.3 4.6s7.3-9.9 4.3-15.5-9.9-7.6-15.3-4.6-7.4 9.9-4.3 15.5zm.9-.5c-2.8-5-1-11.4 3.9-14.1s11.1-.8 13.9 4.2c2.8 5 1 11.4-3.9 14.1-4.9 2.7-11.2.8-13.9-4.2zm-17-43c3 5.6 9.9 7.6 15.3 4.6s7.3-9.9 4.3-15.5-9.9-7.6-15.3-4.6c-5.5 3-7.4 10-4.3 15.5zm.9-.5c-2.8-5-1-11.4 3.9-14.1s11.1-.8 13.9 4.2c2.8 5 1 11.4-3.9 14.1-5 2.8-11.2.9-13.9-4.2zm54.4-15.7c3 5.6 9.9 7.6 15.3 4.6s7.3-9.9 4.3-15.5-9.9-7.6-15.3-4.6-7.3 9.9-4.3 15.5zm.9-.5c-2.8-5-1-11.4 3.9-14.1s11.1-.8 13.9 4.2c2.8 5 1 11.4-3.9 14.1-4.9 2.7-11.1.8-13.9-4.2zm40.8 73.2c3 5.6 9.9 7.6 15.3 4.6s7.3-9.9 4.3-15.5-9.9-7.6-15.3-4.6-7.3 10-4.3 15.5zm.9-.5c-2.8-5-1-11.4 3.9-14.1s11.1-.8 13.9 4.2c2.8 5 1 11.4-3.9 14.1s-11.1.9-13.9-4.2z" class="st7"/><path d="M264.9 176.5c-3.7-6.8-12.1-9.3-18.7-5.7l-.4.2 13.5 24.6.4-.2c6.6-3.6 8.9-12.1 5.2-18.9zm-.9.5c3.3 6.1 1.4 13.7-4.4 17.3l-12.4-22.8c6-3 13.4-.6 16.8 5.5z" class="st5"/><path d="M175.9 210c-3.7-6.8-12.1-9.3-18.7-5.7l-.4.2 13.5 24.6.4-.2c6.6-3.6 8.9-12.1 5.2-18.9zm-.9.5c3.3 6.1 1.4 13.7-4.4 17.3L158.2 205c6-3 13.4-.6 16.8 5.5z" class="st6"/><path d="M206.8 154.1c-3.7-6.8-12.1-9.3-18.7-5.7l-.4.2 13.5 24.6.4-.2c6.6-3.6 8.9-12.1 5.2-18.9zm-.9.5c3.3 6.1 1.4 13.7-4.4 17.3l-12.4-22.8c6-3 13.5-.6 16.8 5.5zm-15.8-28.4c6.9 3.5 15.2.8 18.6-5.9l.2-.5-24.9-12.7-.2.5c-3.4 6.7-.6 15.1 6.3 18.6zm.4-1c-6.2-3.1-8.8-10.6-6.1-16.7l23 11.7c-3.2 5.9-10.7 8.2-16.9 5zm-37.4-13.8c-7.1 2.9-10.6 11-7.8 18l.2.5 25.9-10.6-.2-.5c-2.9-6.9-11-10.3-18.1-7.4zm.4 1c6.4-2.6 13.7.2 16.5 6.4l-23.9 9.8c-2.3-6.4 1-13.6 7.4-16.2zM92.9 80.1c-3.2 7-.3 15.3 6.6 18.5l.5.2 11.6-25.6-.5-.2c-6.8-3.1-15 .1-18.2 7.1zm1 .4c2.9-6.4 10.2-9.3 16.4-6.7L99.5 97.4c-6-3.1-8.5-10.5-5.6-16.9zm136.7 40.1c-6.8-3.7-15.2-1.3-18.8 5.4l-.2.5 24.5 13.4.2-.5c3.7-6.7 1.1-15.1-5.7-18.8zm-.5.9c6.1 3.3 8.5 10.8 5.6 16.9L213 126c3.5-5.8 11-7.8 17.1-4.5z" class="st5"/><path d="M204.7 192.5c-5.1 5.8-4.6 14.6 1 19.6l.4.3 18.4-21.1-.4-.3c-5.6-5-14.3-4.3-19.4 1.5zm.7.7c4.6-5.2 12.4-6 17.6-1.7L206 211c-4.9-4.7-5.1-12.6-.6-17.8z" class="st3"/><path d="M157.5 83.1c-2.8 7.2.7 15.3 7.7 18.1l.5.2 10-26.2-.5-.2c-7-2.8-15 .9-17.7 8.1zm.9.4c2.5-6.5 9.5-9.9 15.9-7.8l-9.2 24.3c-6.2-2.7-9.2-10-6.7-16.5z" class="st5"/><path d="M243.3 174.5l-17.5 9.6 9.9 17.9 17.5-9.6-9.9-17.9zm8.4 17.5l-15.6 8.6-8.8-16 15.6-8.6 8.8 16zm-101.1-38.8l-16.8 9.4 9.5 17.4 16.8-9.4-9.5-17.4zm8.1 16.9l-15 8.4-8.5-15.5 15-8.4 8.5 15.5zm-25.8-62.8l-18.7 4.6 4.7 19.3 18.7-4.6-4.7-19.3zm3.4 18.5l-16.7 4.1-4.2-17.2 16.7-4.1 4.2 17.2zm-8.6-59.3L113.9 80l13.6 14.3 13.9-13.4-13.7-14.4zm12.2 14.3l-12.4 12L115.3 80l12.4-12 12.2 12.8zm59.8 129.9l-18.7 4.7 4.8 19.2 18.7-4.7-4.8-19.2zm3.6 18.5l-16.7 4.2-4.3-17.2L199 212l4.3 17.2zm8.3-98.1l-8 17.6 17.9 8.2 8-17.6-17.9-8.2zm16.6 8.7l-7.1 15.7-16-7.4 7.1-15.7 16 7.4z" class="st3"/><path d="M223.6 197.9l-16 22.3 26.7 3-10.7-25.3zm-14.2 21.5l13.9-19.4 9.3 22-23.2-2.6zm-17.7-57.9l-16 22.3 26.7 3-10.7-25.3zM177.6 183l13.9-19.4 9.3 22-23.2-2.6zm-4.8-60.1l2.1 27.5 22.3-15.1-24.4-12.4zm3 25.6l-1.8-23.8 21.2 10.8-19.4 13zm.5-66l-9.8 25.7 26.6-3.9-16.8-21.8zm-8.2 24.4l8.5-22.3 14.5 18.9-23 3.4z" class="st6"/><path d="M112.9 81.8l-9.8 25.7 26.6-3.9-16.8-21.8zm-8.2 24.4l8.5-22.3 14.5 18.9-23 3.4z" class="st4"/><path d="M141.4 58.9l6.8 26.7 19.4-18.7-26.2-8zm7.4 24.7l-5.9-23.2 22.7 6.9-16.8 16.3z" class="st6"/><path d="M256.5 207.8l-9.5-5.9-9.6 5.4-.1 11.3 9.5 5.9 9.6-5.4.1-11.3zm-1 .5l-.1 10.1-8.6 4.8-8.5-5.3.1-10.1 8.6-4.8 8.5 5.3zM197 194.7l-9.5-5.9-9.6 5.4-.1 11.3 9.5 5.9 9.6-5.4.1-11.3zm-1.1.6l-.1 10.1-8.6 4.8-8.5-5.3.1-10.1 8.6-4.8 8.5 5.3z" class="st4"/><path d="M179.9 157l-10.9-2.7-7.5 8.1 3.4 10.8 10.9 2.7 7.5-8.1-3.4-10.8zm-.8.9l3 9.6-6.7 7.2-9.7-2.4-3-9.6 6.7-7.2 9.7 2.4z" class="st7"/><path d="M189.7 56.6l-10.9-2.7-7.5 8.1 3.4 10.8 10.9 2.7 7.5-8.1-3.4-10.8zm-.8.9l3 9.6-6.7 7.2-9.7-2.4-3-9.6 6.7-7.2 9.7 2.4z" class="st4"/><path d="M219.2 98.7L208.3 96l-7.5 8.1 3.4 10.8 10.9 2.7 7.5-8.1-3.4-10.8zm-.8.9l3 9.6-6.7 7.2-9.7-2.4-3-9.6 6.7-7.2 9.7 2.4z" class="st6"/><path d="M141.9 136.3l-10.9-2.7-7.5 8.1 3.4 10.8 10.9 2.7 7.5-8.1-3.4-10.8zm-.8.9l3 9.6-6.7 7.2-9.7-2.4-3-9.6 6.7-7.2 9.7 2.4z" class="st4"/><path d="M229.2 166.4l-9.5-5.9-9.6 5.4-.1 11.3 9.5 5.9 9.6-5.4.1-11.3zm-1 .6l-.1 10.1-8.6 4.8-8.5-5.3.1-10.1 8.6-4.8 8.5 5.3z" class="st3"/><path fill="none" stroke="#b7b7b7" stroke-miterlimit="10" d="M87.8 67.7L180.2 47c7.9-1.8 16 1.8 20 8.8l88.1 151.8c3.3 5.7 0 13-6.5 14.2l-98 17.8c-7.8 1.4-15.6-2.3-19.4-9.2L81.5 81.7c-3.1-5.6.1-12.6 6.3-14z"/></g></svg>