<?xml version="1.0" encoding="UTF-8"?>
<svg id="Camada_2" data-name="Camada 2" xmlns="http://www.w3.org/2000/svg" width="295.75" height="272.3" xmlns:xlink="http://www.w3.org/1999/xlink" viewBox="0 0 295.75 272.3">
  <defs>
    <style>
      .cls-1, .cls-2, .cls-3, .cls-4, .cls-5, .cls-6 {
        stroke-width: 0px;
      }

      .cls-1, .cls-7, .cls-8 {
        fill: #515759;
      }

      .cls-2 {
        fill: #008dd3;
      }

      .cls-9 {
        clip-path: url(#clippath-20);
      }

      .cls-10 {
        clip-path: url(#clippath-11);
      }

      .cls-7, .cls-11 {
        stroke: #c75eeb;
        stroke-miterlimit: 10;
        stroke-width: 4px;
      }

      .cls-12 {
        clip-path: url(#clippath-16);
      }

      .cls-3, .cls-13 {
        fill: #606060;
      }

      .cls-14, .cls-5 {
        fill: #616363;
      }

      .cls-15 {
        clip-path: url(#clippath-2);
      }

      .cls-16 {
        clip-path: url(#clippath-13);
      }

      .cls-17 {
        isolation: isolate;
      }

      .cls-4 {
        fill: #c75eeb;
      }

      .cls-18 {
        clip-path: url(#clippath-15);
      }

      .cls-19 {
        clip-path: url(#clippath-6);
      }

      .cls-11 {
        fill: #fff;
      }

      .cls-20 {
        clip-path: url(#clippath-7);
      }

      .cls-21 {
        clip-path: url(#clippath-21);
      }

      .cls-22 {
        clip-path: url(#clippath-1);
      }

      .cls-23 {
        clip-path: url(#clippath-4);
      }

      .cls-24 {
        clip-path: url(#clippath-12);
      }

      .cls-25 {
        clip-path: url(#clippath-22);
      }

      .cls-26 {
        clip-path: url(#clippath-9);
      }

      .cls-27 {
        clip-path: url(#clippath);
      }

      .cls-28 {
        clip-path: url(#clippath-19);
      }

      .cls-29 {
        clip-path: url(#clippath-3);
      }

      .cls-30 {
        clip-path: url(#clippath-8);
      }

      .cls-31 {
        clip-path: url(#clippath-18);
      }

      .cls-32 {
        clip-path: url(#clippath-14);
      }

      .cls-33 {
        clip-path: url(#clippath-17);
      }

      .cls-34 {
        clip-path: url(#clippath-5);
      }

      .cls-35 {
        clip-path: url(#clippath-10);
      }

      .cls-36 {
        clip-path: url(#clippath-23);
      }

      .cls-6 {
        fill: #f1f3f3;
      }
    </style>
    <clipPath id="clippath">
      <path class="cls-1" d="m202.1,220.74l-11.87-11.86c-.38-.38-.7-.84-.92-1.37l11.87,11.86c.22.53.53.99.92,1.37Z"/>
    </clipPath>
    <clipPath id="clippath-1">
      <path class="cls-3" d="m198.13,212.02l-11.87-11.86c-.23-.55-.33-1.11-.33-1.65,0-1.69,1.02-3.25,2.62-3.92,24.83-10.3,42.01-33.11,44.95-59.77l11.87,11.86c-2.94,26.66-20.11,49.47-44.95,59.77-1.6.67-2.62,2.23-2.62,3.92,0,.55.11,1.11.33,1.65Z"/>
    </clipPath>
    <clipPath id="clippath-2">
      <path class="cls-3" d="m213.6,145.47l-11.87-11.86c-.77-.77-1.24-1.83-1.24-3.01l11.87,11.86c0,1.18.48,2.24,1.24,3.01Z"/>
    </clipPath>
    <clipPath id="clippath-3">
      <path class="cls-5" d="m102.61,219.92l-11.87-11.86c17.21,14.75,38.74,23.61,61.43,25.31l11.87,11.86c-22.69-1.7-44.23-10.56-61.43-25.31Z"/>
    </clipPath>
    <clipPath id="clippath-4">
      <path class="cls-1" d="m236.07,50.96l11.87,11.86c19.36,19.35,31.36,46.08,31.36,75.58,0,56.19-43.52,102.55-98.79,106.81l-11.87-11.86c55.27-4.26,98.79-50.62,98.79-106.81,0-29.49-11.99-56.22-31.36-75.58Z"/>
    </clipPath>
    <clipPath id="clippath-5">
      <path class="cls-3" d="m188.74,98.32l11.87,11.86c7.25,7.25,11.75,17.26,11.75,28.3l-11.87-11.86c0-11.04-4.49-21.05-11.75-28.3Z"/>
    </clipPath>
    <clipPath id="clippath-6">
      <path class="cls-5" d="m143.94,166.88l-11.87-11.86c7.26,7.25,17.28,11.74,28.33,11.73,10.7-.01,20.77-4.2,28.34-11.77,1.6-1.64,4.31-1.71,6.01,0l11.87,11.86c-1.7-1.7-4.41-1.63-6.01,0-7.56,7.57-17.63,11.76-28.34,11.77-11.05.01-21.07-4.47-28.33-11.73Z"/>
    </clipPath>
    <clipPath id="clippath-7">
      <path class="cls-3" d="m245.36,130.21l-11.87-11.86c-1.82-16.5-9.21-31.9-21.07-43.76l11.87,11.86c11.86,11.86,19.25,27.25,21.07,43.76Z"/>
    </clipPath>
    <clipPath id="clippath-8">
      <path class="cls-1" d="m120.12,190.46l-11.87-11.86c3.9,3.9,11.69,10.98,24,16.05.53.22,1,.54,1.39.93l11.87,11.86c-.39-.39-.86-.71-1.39-.93-12.31-5.07-20.1-12.16-24-16.05Z"/>
    </clipPath>
    <clipPath id="clippath-9">
      <path class="cls-1" d="m106.1,176.4l11.87,11.86c-.2-.2-.37-.36-.5-.47l-11.87-11.86c.13.11.3.27.5.47Z"/>
    </clipPath>
    <clipPath id="clippath-10">
      <path class="cls-1" d="m229.9,74.82l-11.87-11.86c1.67-1.67,4.34-1.67,6.01,0l11.87,11.86c-1.67-1.67-4.34-1.67-6.01,0Z"/>
    </clipPath>
    <clipPath id="clippath-11">
      <path class="cls-1" d="m224.29,86.45l-11.87-11.86c-.84-.83-1.25-1.92-1.25-3s.42-2.18,1.25-3.01l11.87,11.86c-.84.83-1.25,1.92-1.25,3.01s.42,2.18,1.25,3Z"/>
    </clipPath>
    <clipPath id="clippath-12">
      <path class="cls-1" d="m111.44,187.8l-11.87-11.86c1.69-1.69,4.38-1.66,6.03,0l11.87,11.86c-1.65-1.65-4.34-1.68-6.03,0Z"/>
    </clipPath>
    <clipPath id="clippath-13">
      <path class="cls-1" d="m132.3,178.53l-11.87-11.86c-8.39-8.39-14.16-19.4-15.97-31.69l11.87,11.86c1.8,12.3,7.58,23.31,15.97,31.69Z"/>
    </clipPath>
    <clipPath id="clippath-14">
      <path class="cls-1" d="m200.38,86.67l11.87,11.86c-8.4-8.4-19.43-14.16-31.74-15.95l-11.87-11.86c12.3,1.79,23.34,7.56,31.74,15.95Z"/>
    </clipPath>
    <clipPath id="clippath-15">
      <path class="cls-3" d="m116.34,130.37l-11.87-11.86c3.61-24.6,23.09-44.12,47.7-47.76l11.87,11.86c-24.62,3.64-44.1,23.17-47.7,47.76Z"/>
    </clipPath>
    <clipPath id="clippath-16">
      <path class="cls-1" d="m91.54,93.98l11.87,11.86c-.38-.38-.85-.7-1.39-.93l-11.87-11.86c.54.22,1,.54,1.39.93Z"/>
    </clipPath>
    <clipPath id="clippath-17">
      <path class="cls-1" d="m139.5,69.71l-11.87-11.86c-.38-.38-.7-.85-.93-1.38l11.87,11.86c.22.53.54,1,.93,1.38Z"/>
    </clipPath>
    <clipPath id="clippath-18">
      <path class="cls-1" d="m52.14,123.79l11.87,11.86c-.77-.77-1.83-1.24-3.01-1.24l-11.87-11.86c1.18,0,2.24.47,3.01,1.24Z"/>
    </clipPath>
    <clipPath id="clippath-19">
      <path class="cls-5" d="m196.24,44.37l11.87,11.86c-.39-.39-.86-.7-1.37-.92-22.09-9.12-46.89-9.07-68.93.08-1.57.66-2.62,2.21-2.62,3.92,0,.54.11,1.1.33,1.66l-11.87-11.86c-.23-.55-.33-1.11-.33-1.66,0-1.71,1.05-3.26,2.62-3.92,22.05-9.15,46.84-9.2,68.93-.08.51.21.98.53,1.37.92Z"/>
    </clipPath>
    <clipPath id="clippath-20">
      <path class="cls-1" d="m90.02,174.47l-11.87-11.86c-.39-.39-.7-.85-.92-1.37-4.57-11.03-6.85-22.75-6.85-34.46s2.29-23.44,6.85-34.47c.87-2.07,3.28-3.24,5.58-2.3l11.87,11.86c-2.29-.94-4.71.22-5.58,2.3-4.57,11.03-6.85,22.75-6.85,34.47s2.28,23.43,6.85,34.46c.22.52.53.98.92,1.37Z"/>
    </clipPath>
    <clipPath id="clippath-21">
      <path class="cls-1" d="m84.65,225.6l-11.87-11.86c-21.88-21.87-35.86-52.15-35.86-86.92l11.87,11.86c0,34.77,13.98,65.05,35.86,86.92Z"/>
    </clipPath>
    <clipPath id="clippath-22">
      <path class="cls-1" d="m48.79,138.68l-11.87-11.86c0-2.35,1.9-4.26,4.26-4.26l11.87,11.86c-2.35,0-4.26,1.91-4.26,4.26Z"/>
    </clipPath>
    <clipPath id="clippath-23">
      <path class="cls-5" d="m59.11,96.04l-11.87-11.86c-.8-.8-1.25-1.89-1.25-3.02,0-.54.1-1.09.32-1.62C79.72-1.08,185.3-23.39,247.9,39.41l11.87,11.86C197.17-11.52,91.6,10.78,58.17,91.4c-.22.53-.32,1.08-.32,1.62,0,1.13.45,2.22,1.25,3.02Z"/>
    </clipPath>
  </defs>
  <g id="Start">
    <g>
      <g id="Camada_10" data-name="Camada 10">
        <path class="cls-2" d="m272.3,135.6c.1,19.8-4.1,38.6-11.6,55.7-21.1,47.6-68.6,80.8-124,81-14.7.1-28.9-2.3-42.2-6.5-25-8-46.8-23-63.1-42.8C14.4,202.6,3.3,177,.6,149,.2,145,0,140.8,0,136.7-.2,90.5,22.7,49.5,57.9,24.8c4.6-3.3,9.4-6.2,14.4-8.8,7-3.8,14.4-6.8,22-9.4,7.2-2.3,14.7-4,22.4-5.2C122.9.6,129.2.1,135.6,0c25-.1,48.5,6.6,68.8,18.3,3.7,2.1,7.1,4.3,10.5,6.8,16.2,11.5,29.8,26.5,39.7,43.9,1.1,2,2.2,3.9,3.2,6,.8,1.8,1.7,3.5,2.5,5.3,2.6,5.8,4.8,11.7,6.6,17.8,2,6.8,3.5,13.9,4.3,21h0c.7,5.4,1.1,10.9,1.1,16.5Z"/>
      </g>
      <g id="_15" data-name="15">
        <g class="cls-17">
          <g>
            <path class="cls-8" d="m202.1,220.74l-11.87-11.86c-.38-.38-.7-.84-.92-1.37l11.87,11.86c.22.53.53.99.92,1.37Z"/>
            <g class="cls-27">
              <g class="cls-17">
                <path class="cls-1" d="m202.1,220.74l-11.87-11.86c-.38-.38-.7-.84-.92-1.37l11.87,11.86c.22.53.53.99.92,1.37"/>
              </g>
            </g>
          </g>
          <polygon class="cls-1" points="201.18 219.37 189.31 207.5 186.25 200.16 198.13 212.02 201.18 219.37"/>
          <g>
            <path class="cls-13" d="m198.13,212.02l-11.87-11.86c-.23-.55-.33-1.11-.33-1.65,0-1.69,1.02-3.25,2.62-3.92,24.83-10.3,42.01-33.11,44.95-59.77l11.87,11.86c-2.94,26.66-20.11,49.47-44.95,59.77-1.6.67-2.62,2.23-2.62,3.92,0,.55.11,1.11.33,1.65Z"/>
            <g class="cls-22">
              <g class="cls-17">
                <path class="cls-3" d="m198.13,212.02l-11.87-11.86c-.23-.55-.33-1.11-.33-1.65,0-1.69,1.02-3.25,2.62-3.92,24.83-10.3,42.01-33.11,44.95-59.77l11.87,11.86c-2.94,26.66-20.11,49.47-44.95,59.77-1.6.67-2.62,2.23-2.62,3.92,0,.55.11,1.11.33,1.65"/>
              </g>
            </g>
          </g>
          <polygon class="cls-1" points="206.63 166.83 194.75 154.96 200.38 160.58 212.25 172.45 206.63 166.83"/>
          <polygon class="cls-1" points="164.04 245.23 152.17 233.37 152.17 182.62 164.04 194.48 164.04 245.23"/>
          <polygon class="cls-1" points="228.21 130.23 216.34 118.37 233.49 118.35 245.36 130.21 228.21 130.23"/>
          <g>
            <path class="cls-13" d="m213.6,145.47l-11.87-11.86c-.77-.77-1.24-1.83-1.24-3.01l11.87,11.86c0,1.18.48,2.24,1.24,3.01Z"/>
            <g class="cls-15">
              <g class="cls-17">
                <path class="cls-3" d="m213.6,145.47l-11.87-11.86c-.77-.77-1.24-1.83-1.24-3.01l11.87,11.86c0,1.18.48,2.24,1.24,3.01"/>
              </g>
            </g>
          </g>
          <polygon class="cls-3" points="212.35 142.46 200.48 130.59 200.48 126.62 212.35 138.48 212.35 142.46"/>
          <g>
            <path class="cls-14" d="m102.61,219.92l-11.87-11.86c17.21,14.75,38.74,23.61,61.43,25.31l11.87,11.86c-22.69-1.7-44.23-10.56-61.43-25.31Z"/>
            <g class="cls-29">
              <g class="cls-17">
                <path class="cls-5" d="m102.61,219.92l-11.87-11.86c17.21,14.75,38.74,23.61,61.43,25.31l11.87,11.86c-22.69-1.7-44.23-10.56-61.43-25.31"/>
              </g>
            </g>
          </g>
          <g>
            <path class="cls-8" d="m236.07,50.96l11.87,11.86c19.36,19.35,31.36,46.08,31.36,75.58,0,56.19-43.52,102.55-98.79,106.81l-11.87-11.86c55.27-4.26,98.79-50.62,98.79-106.81,0-29.49-11.99-56.22-31.36-75.58Z"/>
            <g class="cls-23">
              <g class="cls-17">
                <path class="cls-1" d="m180.51,245.21l-11.87-11.86c55.27-4.26,98.79-50.62,98.79-106.81,0-29.49-11.99-56.22-31.36-75.58l11.87,11.86c19.36,19.35,31.36,46.08,31.36,75.58,0,56.19-43.52,102.55-98.79,106.81"/>
              </g>
            </g>
          </g>
          <g>
            <path class="cls-13" d="m188.74,98.32l11.87,11.86c7.25,7.25,11.75,17.26,11.75,28.3l-11.87-11.86c0-11.04-4.49-21.05-11.75-28.3Z"/>
            <g class="cls-34">
              <g class="cls-17">
                <path class="cls-3" d="m212.35,138.48l-11.87-11.86c0-11.04-4.49-21.05-11.75-28.3l11.87,11.86c7.25,7.25,11.75,17.26,11.75,28.3"/>
              </g>
            </g>
          </g>
          <g>
            <path class="cls-14" d="m143.94,166.88l-11.87-11.86c7.26,7.25,17.28,11.74,28.33,11.73,10.7-.01,20.77-4.2,28.34-11.77,1.6-1.64,4.31-1.71,6.01,0l11.87,11.86c-1.7-1.7-4.41-1.63-6.01,0-7.56,7.57-17.63,11.76-28.34,11.77-11.05.01-21.07-4.47-28.33-11.73Z"/>
            <g class="cls-19">
              <g class="cls-17">
                <path class="cls-5" d="m143.94,166.88l-11.87-11.86c7.26,7.25,17.28,11.74,28.33,11.73,10.7-.01,20.77-4.2,28.34-11.77,1.6-1.64,4.31-1.71,6.01,0l11.87,11.86c-1.7-1.7-4.41-1.63-6.01,0-7.56,7.57-17.63,11.76-28.34,11.77-11.05.01-21.07-4.47-28.33-11.73"/>
              </g>
            </g>
          </g>
          <g>
            <path class="cls-13" d="m245.36,130.21l-11.87-11.86c-1.82-16.5-9.21-31.9-21.07-43.76l11.87,11.86c11.86,11.86,19.25,27.25,21.07,43.76Z"/>
            <g class="cls-20">
              <g class="cls-17">
                <path class="cls-3" d="m245.36,130.21l-11.87-11.86c-1.82-16.5-9.21-31.9-21.07-43.76l11.87,11.86c11.86,11.86,19.25,27.25,21.07,43.76"/>
              </g>
            </g>
          </g>
          <g>
            <path class="cls-8" d="m120.12,190.46l-11.87-11.86c3.9,3.9,11.69,10.98,24,16.05.53.22,1,.54,1.39.93l11.87,11.86c-.39-.39-.86-.71-1.39-.93-12.31-5.07-20.1-12.16-24-16.05Z"/>
            <g class="cls-30">
              <g class="cls-17">
                <path class="cls-1" d="m120.12,190.46l-11.87-11.86c3.9,3.9,11.69,10.98,24,16.05.53.22,1,.54,1.39.93l11.87,11.86c-.39-.39-.86-.71-1.39-.93-12.31-5.07-20.1-12.16-24-16.05"/>
              </g>
            </g>
          </g>
          <g>
            <path class="cls-8" d="m106.1,176.4l11.87,11.86c-.2-.2-.37-.36-.5-.47l-11.87-11.86c.13.11.3.27.5.47Z"/>
            <g class="cls-26">
              <g class="cls-17">
                <path class="cls-1" d="m117.47,187.79l-11.87-11.86c.13.11.3.27.5.47l11.87,11.86c-.2-.2-.37-.36-.5-.47"/>
              </g>
            </g>
          </g>
          <rect class="cls-1" x="217.19" y="63.31" width="7.94" height="16.78" transform="translate(14.11 177.45) rotate(-45.02)"/>
          <g>
            <path class="cls-8" d="m229.9,74.82l-11.87-11.86c1.67-1.67,4.34-1.67,6.01,0l11.87,11.86c-1.67-1.67-4.34-1.67-6.01,0Z"/>
            <g class="cls-35">
              <g class="cls-17">
                <path class="cls-1" d="m229.9,74.82l-11.87-11.86c1.67-1.67,4.34-1.67,6.01,0l11.87,11.86c-1.67-1.67-4.34-1.67-6.01,0"/>
              </g>
            </g>
          </g>
          <g>
            <path class="cls-8" d="m224.29,86.45l-11.87-11.86c-.84-.83-1.25-1.92-1.25-3s.42-2.18,1.25-3.01l11.87,11.86c-.84.83-1.25,1.92-1.25,3.01s.42,2.18,1.25,3Z"/>
            <g class="cls-10">
              <g class="cls-17">
                <path class="cls-1" d="m224.29,86.45l-11.87-11.86c-.84-.83-1.25-1.92-1.25-3s.42-2.18,1.25-3.01l11.87,11.86c-.84.83-1.25,1.92-1.25,3.01s.42,2.18,1.25,3"/>
              </g>
            </g>
          </g>
          <rect class="cls-1" x="80.8" y="183.72" width="28.95" height="16.78" transform="translate(-107.96 123.7) rotate(-45.02)"/>
          <g>
            <path class="cls-8" d="m111.44,187.8l-11.87-11.86c1.69-1.69,4.38-1.66,6.03,0l11.87,11.86c-1.65-1.65-4.34-1.68-6.03,0Z"/>
            <g class="cls-24">
              <g class="cls-17">
                <path class="cls-1" d="m111.44,187.8l-11.87-11.86c1.69-1.69,4.38-1.66,6.03,0l11.87,11.86c-1.65-1.65-4.34-1.68-6.03,0"/>
              </g>
            </g>
          </g>
          <g>
            <path class="cls-8" d="m132.3,178.53l-11.87-11.86c-8.39-8.39-14.16-19.4-15.97-31.69l11.87,11.86c1.8,12.3,7.58,23.31,15.97,31.69Z"/>
            <g class="cls-16">
              <g class="cls-17">
                <path class="cls-1" d="m132.3,178.53l-11.87-11.86c-8.39-8.39-14.16-19.4-15.97-31.69l11.87,11.86c1.8,12.3,7.58,23.31,15.97,31.69"/>
              </g>
            </g>
          </g>
          <g>
            <path class="cls-8" d="m200.38,86.67l11.87,11.86c-8.4-8.4-19.43-14.16-31.74-15.95l-11.87-11.86c12.3,1.79,23.34,7.56,31.74,15.95Z"/>
            <g class="cls-32">
              <g class="cls-17">
                <path class="cls-1" d="m180.51,82.58l-11.87-11.86c12.3,1.79,23.34,7.56,31.74,15.95l11.87,11.86c-8.4-8.4-19.43-14.16-31.74-15.95"/>
              </g>
            </g>
          </g>
          <polygon class="cls-1" points="99.22 130.39 87.34 118.52 104.47 118.5 116.34 130.37 99.22 130.39"/>
          <polygon class="cls-1" points="164.04 82.6 152.17 70.74 152.17 53.62 164.04 65.48 164.04 82.6"/>
          <g>
            <path class="cls-13" d="m116.34,130.37l-11.87-11.86c3.61-24.6,23.09-44.12,47.7-47.76l11.87,11.86c-24.62,3.64-44.1,23.17-47.7,47.76Z"/>
            <g class="cls-18">
              <g class="cls-17">
                <path class="cls-3" d="m116.34,130.37l-11.87-11.86c3.61-24.6,23.09-44.12,47.7-47.76l11.87,11.86c-24.62,3.64-44.1,23.17-47.7,47.76"/>
              </g>
            </g>
          </g>
          <g>
            <path class="cls-8" d="m91.54,93.98l11.87,11.86c-.38-.38-.85-.7-1.39-.93l-11.87-11.86c.54.22,1,.54,1.39.93Z"/>
            <g class="cls-12">
              <g class="cls-17">
                <path class="cls-1" d="m102.03,104.92l-11.87-11.86c.54.22,1,.54,1.39.93l11.87,11.86c-.38-.38-.85-.7-1.39-.93"/>
              </g>
            </g>
          </g>
          <g>
            <path class="cls-8" d="m139.5,69.71l-11.87-11.86c-.38-.38-.7-.85-.93-1.38l11.87,11.86c.22.53.54,1,.93,1.38Z"/>
            <g class="cls-33">
              <g class="cls-17">
                <path class="cls-1" d="m139.5,69.71l-11.87-11.86c-.38-.38-.7-.85-.93-1.38l11.87,11.86c.22.53.54,1,.93,1.38"/>
              </g>
            </g>
          </g>
          <polygon class="cls-1" points="94.68 101.87 82.81 90.01 90.15 93.06 102.03 104.92 94.68 101.87"/>
          <polygon class="cls-1" points="138.58 68.32 126.71 56.46 123.65 49.11 135.52 60.98 138.58 68.32"/>
          <g>
            <path class="cls-8" d="m52.14,123.79l11.87,11.86c-.77-.77-1.83-1.24-3.01-1.24l-11.87-11.86c1.18,0,2.24.47,3.01,1.24Z"/>
            <g class="cls-31">
              <g class="cls-17">
                <path class="cls-1" d="m61,134.41l-11.87-11.86c1.18,0,2.24.47,3.01,1.24l11.87,11.86c-.77-.77-1.83-1.24-3.01-1.24"/>
              </g>
            </g>
          </g>
          <g>
            <path class="cls-14" d="m196.24,44.37l11.87,11.86c-.39-.39-.86-.7-1.37-.92-22.09-9.12-46.89-9.07-68.93.08-1.57.66-2.62,2.21-2.62,3.92,0,.54.11,1.1.33,1.66l-11.87-11.86c-.23-.55-.33-1.11-.33-1.66,0-1.71,1.05-3.26,2.62-3.92,22.05-9.15,46.84-9.2,68.93-.08.51.21.98.53,1.37.92Z"/>
            <g class="cls-28">
              <g class="cls-17">
                <path class="cls-5" d="m135.52,60.98l-11.87-11.86c-.23-.55-.33-1.11-.33-1.66,0-1.71,1.05-3.26,2.62-3.92,22.05-9.15,46.84-9.2,68.93-.08.51.21.98.53,1.37.92l11.87,11.86c-.39-.39-.86-.7-1.37-.92-22.09-9.12-46.89-9.07-68.93.08-1.57.66-2.62,2.21-2.62,3.92,0,.54.11,1.1.33,1.66"/>
              </g>
            </g>
          </g>
          <g>
            <path class="cls-8" d="m90.02,174.47l-11.87-11.86c-.39-.39-.7-.85-.92-1.37-4.57-11.03-6.85-22.75-6.85-34.46s2.29-23.44,6.85-34.47c.87-2.07,3.28-3.24,5.58-2.3l11.87,11.86c-2.29-.94-4.71.22-5.58,2.3-4.57,11.03-6.85,22.75-6.85,34.47s2.28,23.43,6.85,34.46c.22.52.53.98.92,1.37Z"/>
            <g class="cls-9">
              <g class="cls-17">
                <path class="cls-1" d="m90.02,174.47l-11.87-11.86c-.39-.39-.7-.85-.92-1.37-4.57-11.03-6.85-22.75-6.85-34.46s2.29-23.44,6.85-34.47c.87-2.07,3.28-3.24,5.58-2.3l11.87,11.86c-2.29-.94-4.71.22-5.58,2.3-4.57,11.03-6.85,22.75-6.85,34.47s2.28,23.43,6.85,34.46c.22.52.53.98.92,1.37"/>
              </g>
            </g>
          </g>
          <g>
            <path class="cls-8" d="m84.65,225.6l-11.87-11.86c-21.88-21.87-35.86-52.15-35.86-86.92l11.87,11.86c0,34.77,13.98,65.05,35.86,86.92Z"/>
            <g class="cls-21">
              <g class="cls-17">
                <path class="cls-1" d="m84.65,225.6l-11.87-11.86c-21.88-21.87-35.86-52.15-35.86-86.92l11.87,11.86c0,34.77,13.98,65.05,35.86,86.92"/>
              </g>
            </g>
          </g>
          <polygon class="cls-1" points="53.05 134.42 41.18 122.56 49.13 122.55 61 134.41 53.05 134.42"/>
          <g>
            <path class="cls-8" d="m48.79,138.68l-11.87-11.86c0-2.35,1.9-4.26,4.26-4.26l11.87,11.86c-2.35,0-4.26,1.91-4.26,4.26Z"/>
            <g class="cls-25">
              <g class="cls-17">
                <path class="cls-1" d="m48.79,138.68l-11.87-11.86c0-2.35,1.9-4.26,4.26-4.26l11.87,11.86c-2.35,0-4.26,1.91-4.26,4.26"/>
              </g>
            </g>
          </g>
          <path class="cls-4" d="m48.79,138.68c0-2.35,1.9-4.26,4.26-4.26h7.95c2.35-.01,4.26,1.89,4.26,4.24,0,25.69,9.11,50.24,25.74,69.63l20.45-20.49c1.69-1.69,4.38-1.66,6.03,0,1.76,1.49,10.15,11.92,26.65,18.72,1.59.65,2.64,2.2,2.64,3.92,0,.54-.11,1.1-.33,1.66l-3.06,7.35c-.9,2.17-3.39,3.19-5.56,2.31-8.38-3.48-16.13-8.15-23.1-13.95l-12.11,12.12c17.21,14.75,38.74,23.61,61.43,25.31v-50.75c-24.59-3.58-44.09-23.03-47.7-47.65l-17.12.02c.76,6.91,2.47,13.59,5.1,19.9.23.54.34,1.1.34,1.65,0,1.66-.99,3.22-2.62,3.91l-7.35,3.06c-2.3.95-4.71-.22-5.58-2.28-4.57-11.03-6.85-22.75-6.85-34.46s2.29-23.44,6.85-34.47c.87-2.07,3.28-3.24,5.58-2.3l7.35,3.05c1.64.69,2.62,2.25,2.62,3.91,0,.55-.11,1.11-.33,1.65-2.63,6.31-4.33,13-5.1,19.91l17.12-.02c3.61-24.6,23.09-44.12,47.7-47.76v-17.12c-6.91.77-13.59,2.49-19.9,5.12-2.19.92-4.65-.11-5.56-2.28l-3.06-7.34c-.23-.55-.33-1.11-.33-1.66,0-1.71,1.05-3.26,2.62-3.92,22.05-9.15,46.84-9.2,68.93-.08,1.04.43,1.87,1.27,2.3,2.32.22.51.32.98.32,1.47,0,1.69-1.22,3.71-3.39,9.13-.91,2.18-3.38,3.21-5.56,2.29-6.31-2.62-12.99-4.32-19.9-5.07v17.12c24.59,3.58,44.09,23.03,47.7,47.65l17.15-.02c-1.82-16.5-9.21-31.9-21.07-43.76-.84-.83-1.25-1.92-1.25-3s.42-2.18,1.25-3.01l5.61-5.62c1.67-1.67,4.34-1.67,6.01,0,17.92,17.86,26.35,40.69,26.35,63.29,0,34.6-19.77,68.67-55.53,83.56-2.17.89-4.66-.13-5.56-2.3l-3.06-7.34c-.23-.55-.33-1.11-.33-1.65,0-1.69,1.02-3.25,2.62-3.92,24.83-10.3,42.01-33.11,44.95-59.77l-28.75.04c-2.35,0-4.26-1.9-4.26-4.25v-3.97c0-22.09-17.99-40.05-40.08-40.03-22.09.03-40.08,18.03-40.08,40.13s17.99,40.05,40.08,40.03c10.7-.01,20.77-4.2,28.34-11.77,1.6-1.64,4.31-1.71,6.01,0l5.63,5.62c.84.83,1.25,1.91,1.25,3s-.42,2.18-1.25,3.01c-8.64,8.65-19.79,14.25-31.74,16v50.75c55.27-4.26,98.79-50.62,98.79-106.81,0-59.01-48.01-106.96-107.02-106.89-25.76.03-50.31,9.16-69.67,25.8l17.65,17.65c.83.83,1.25,1.92,1.25,3.01s-.42,2.18-1.25,3.01l-5.61,5.62c-1.65,1.67-4.36,1.68-6.01,0l-17.65-17.63c-7.34,8.59-13.24,18.24-17.58,28.75-.87,2.07-3.28,3.24-5.58,2.29l-7.35-3.05c-1.64-.68-2.62-2.26-2.62-3.94,0-.54.1-1.09.32-1.62C91.6,10.78,197.17-11.52,259.78,51.28c24.44,24.56,35.98,55.85,35.98,86.8,0,47.21-26.83,93.65-75.6,114.25-80.92,34.19-171.36-25.2-171.36-113.64Z"/>
          <g>
            <path class="cls-14" d="m59.11,96.04l-11.87-11.86c-.8-.8-1.25-1.89-1.25-3.02,0-.54.1-1.09.32-1.62C79.72-1.08,185.3-23.39,247.9,39.41l11.87,11.86C197.17-11.52,91.6,10.78,58.17,91.4c-.22.53-.32,1.08-.32,1.62,0,1.13.45,2.22,1.25,3.02Z"/>
            <g class="cls-36">
              <g class="cls-17">
                <path class="cls-5" d="m59.11,96.04l-11.87-11.86c-.8-.8-1.25-1.89-1.25-3.02,0-.54.1-1.09.32-1.62C79.72-1.08,185.3-23.39,247.9,39.41l11.87,11.86C197.17-11.52,91.6,10.78,58.17,91.4c-.22.53-.32,1.08-.32,1.62,0,1.13.45,2.22,1.25,3.02"/>
              </g>
            </g>
          </g>
        </g>
      </g>
      <path id="_0" data-name="0" class="cls-6" d="m172.46,19.48c66.33,0,119.3,53.85,119.3,119.3s-53.84,119.3-119.3,119.3c-23.87,0-46.92-7.04-66.67-20.37-33.64-22.69-52.63-60.05-52.63-98.93h7.96c0,28.8,11.1,55.76,29.81,75.9l23.67-23.67,2.81,2.81c7.27,7.27,15.77,12.95,25.25,16.89l-3.05,7.35c-9.23-3.83-17.61-9.15-24.96-15.86l-18.11,18.11c19.25,17.94,44.6,28.77,71.93,29.74v-59.1c-25.68-1.94-46.25-22.51-48.19-48.19h-25.55c.45,8.83,2.37,17.58,5.79,25.82l-7.35,3.05c-8.82-21.28-8.59-44.98,0-65.69l7.35,3.05c-3.41,8.23-5.34,16.99-5.79,25.82h25.55c1.94-25.68,22.51-46.25,48.19-48.19v-25.55c-8.83.45-17.58,2.37-25.82,5.79l-3.05-7.35c21.01-8.71,44.69-8.71,65.69,0l-3.05,7.35c-8.23-3.41-16.99-5.34-25.82-5.79v25.55c25.68,1.94,46.25,22.51,48.19,48.19h25.58c-.97-19.3-8.94-37.31-22.7-51.07l5.63-5.63c15.84,15.84,25.13,37.47,25.13,60.68,0,35.39-21.54,66.25-52.97,79.29l-3.05-7.35c27.96-11.6,46.44-37.99,47.95-67.96h-33.39v-3.98c0-24.46-19.9-44.36-44.36-44.36s-44.36,19.9-44.36,44.36,19.9,44.36,44.36,44.36c11.85,0,22.99-4.61,31.37-12.99l5.63,5.63c-8.94,8.94-20.54,14.24-33.02,15.18v59.1c59.56-2.1,107.36-51.21,107.36-111.27S233.85,27.44,172.46,27.44c-28.84,0-55.73,11-75.91,29.81l20.86,20.86-5.63,5.63-20.85-20.85c-8.87,9.54-16.15,20.75-21.35,33.29l-7.35-3.05c18.78-45.28,62.73-73.64,110.23-73.64Z"/>
      <path class="cls-1" d="m167.79,161.66c-15.86,0-28.77-12.91-28.77-28.77s12.91-28.77,28.77-28.77,28.77,12.91,28.77,28.77-12.91,28.77-28.77,28.77Z"/>
      <circle class="cls-11" cx="171.27" cy="139.07" r="26.39"/>
      <circle class="cls-7" cx="171.27" cy="139.07" r="14.07"/>
    </g>
  </g>
</svg>