<?xml version="1.0" encoding="utf-8"?>
<!-- Generator: Adobe Illustrator 22.0.1, SVG Export Plug-In . SVG Version: 6.00 Build 0)  -->
<svg version="1.1" id="Layer_1" xmlns="http://www.w3.org/2000/svg" xmlns:xlink="http://www.w3.org/1999/xlink" x="0px" y="0px"
	 viewBox="0 0 300 300" style="enable-background:new 0 0 300 300;" xml:space="preserve">
<style type="text/css">
	.st0{fill:#008DD3;}
	.st1{fill:#059BD6;}
	.st2{fill:#3B3E3F;}
	.st3{fill:#C4EFF6;}
	.st4{fill:#391815;}
	.st5{fill:#FFFFFF;}
	.st6{fill:#ED9751;}
	.st7{opacity:0.2;fill:#3B3E3F;}
</style>
<g>
	<g>
		<g>
			<path class="st0" d="M293.5,150c0,76.5-58.6,139.3-133.4,145.9c-2.6,0.2-5.3,0.4-8,0.5c-1.7,0.1-3.4,0.1-5.1,0.1
				c-0.6,0-1.1,0-1.7,0c-21.9-0.2-42.6-5.3-61.2-14.2c-4.9-2.3-9.6-4.9-14.1-7.7c-4-2.5-7.9-5.2-11.7-8c-5.5-4.2-10.8-8.8-15.6-13.8
				c-7.7-7.8-14.6-16.6-20.4-26C8.4,204.5,0.5,178.2,0.5,150C0.5,69.1,66.1,3.5,147,3.5S293.5,69.1,293.5,150z"/>
		</g>
	</g>
	<path class="st1" d="M135,183.4L70,274.6c-4-2.5-7.9-5.2-11.7-8c-5.5-4.2-10.8-8.8-15.6-13.8c-7.7-7.8-14.6-16.6-20.4-26L128,183.9
		L135,183.4z"/>
	<g id="XMLID_1_">
		<g id="plane_1_">
			<g id="plane_2_">
				<g id="XMLID_46_">
					<g id="XMLID_50_">
						<g id="XMLID_51_">
							<path id="XMLID_52_" class="st2" d="M233.8,109.6c0.2-0.1,0.5-0.2,0.7-0.3L278.3,86c2-1.1,2.8-3.6,1.7-5.7
								c-1.1-2-3.6-2.8-5.7-1.7l-43.7,23.3c-2,1.1-2.8,3.6-1.7,5.7C229.8,109.4,232,110.2,233.8,109.6z"/>
						</g>
					</g>
					<g id="XMLID_47_">
						<g id="XMLID_48_">
							<path id="XMLID_49_" class="st3" d="M299.5,141.2l-26.6-57.1l-32.7-53.9c-0.1-0.2-0.3,0-0.3,0.1l26.6,57.1l32.7,53.9
								C299.3,141.5,299.6,141.4,299.5,141.2z"/>
						</g>
					</g>
				</g>
				<g id="XMLID_36_">
					<g id="XMLID_44_">
						<g id="XMLID_45_">
							<path class="st2" d="M238,168L238,168L238,168l-7.7-2.9l-24.8-9.4l-1.2-0.5l-4.7-1.8l1.3-3.5l7.8,3l1.2,0.4l21.9,8.3l2.5,1
								l5.3,2C238.9,165.7,238.4,166.8,238,168z"/>
						</g>
					</g>
					<g id="XMLID_42_">
						<g id="XMLID_43_">
							<path class="st2" d="M249.3,161.5c-2.2-0.6-4.6-0.3-6.7,0.8c-1.2,0.6-2.1,1.4-2.9,2.4c-0.8,1-1.4,2.1-1.7,3.3l-3.6-5.3
								l-1.6-2.4l-10-14.7l-2.6-3.8l-8.7-12.8c-2-3-1.3-7,1.7-9c3-2,7-1.3,9,1.7l10.3,15.1l1.9,2.7l9.4,13.7L249.3,161.5z"/>
						</g>
					</g>
					<g id="XMLID_37_">
						<g id="XMLID_40_">
							<g id="XMLID_41_">
								<path class="st2" d="M262.6,162.3c-3.7-7-11.5-10.4-18.8-9c-1.7,0.3-3.4,0.9-5,1.8c-2.5,1.3-4.5,3.1-6,5.2
									c-0.4,0.5-0.7,0.9-0.9,1.4c-0.6,1.1-1.1,2.2-1.5,3.4c-1.4,4.4-1.1,9.3,1.2,13.7c4.6,8.6,15.2,11.8,23.8,7.2
									C263.9,181.5,267.1,170.9,262.6,162.3z M251.5,178.8c-4.6,2.4-10.3,0.7-12.7-3.9c-1.2-2.2-1.4-4.7-0.7-7c0,0,0,0,0,0
									c0.3-1.2,0.9-2.3,1.7-3.3c0.8-1,1.7-1.8,2.9-2.4c2.1-1.1,4.5-1.4,6.7-0.8c2.5,0.6,4.7,2.2,6,4.7
									C257.8,170.7,256,176.4,251.5,178.8z"/>
								<path class="st4" d="M238,168L238,168C238,168,238,168,238,168L238,168z"/>
							</g>
						</g>
						<g id="XMLID_38_">
							<g id="XMLID_39_">
								<path class="st5" d="M238,168L238,168C238,168,238,168,238,168L238,168z"/>
							</g>
						</g>
					</g>
				</g>
				<g id="XMLID_33_">
					<g id="XMLID_34_">
						
							<rect id="XMLID_35_" x="235.7" y="75.7" transform="matrix(-0.8822 0.4709 -0.4709 -0.8822 512.8684 66.3175)" class="st2" width="24.8" height="43.2"/>
					</g>
				</g>
				<g id="XMLID_28_">
					<g id="XMLID_31_">
						<g id="XMLID_32_">
							<path class="st2" d="M105.9,192.5l-0.3,3l-0.7,6.9l-0.4,3.9l-0.4,3.5c-0.9-0.9-2.3-1.2-3.5-0.5c-0.1,0-0.1,0.1-0.2,0.1
								l0.4-3.5l0.3-2.6l0.6-6.1l0.5-5c0.1-1,1-1.8,2-1.6C105.2,190.5,106,191.5,105.9,192.5z"/>
						</g>
					</g>
					<g id="XMLID_29_">
						<g id="XMLID_30_">
							<path class="st2" d="M107.3,208.9c-0.7-1.2-1.7-2.2-2.9-2.7c-1.1-0.5-2.4-0.7-3.7-0.4c-0.5,0.1-1.1,0.3-1.6,0.6
								c-3,1.6-4.1,5.2-2.5,8.2c1.6,2.9,5.2,4.1,8.2,2.5C107.8,215.6,108.9,211.9,107.3,208.9z M103.3,214.4c-1.5,0.8-3.2,0.2-4-1.2
								c-0.7-1.4-0.3-3,1-3.9c0.1-0.1,0.1-0.1,0.2-0.1c1.2-0.6,2.6-0.4,3.5,0.5c0.2,0.2,0.4,0.4,0.5,0.7
								C105.3,211.8,104.8,213.6,103.3,214.4z"/>
						</g>
					</g>
				</g>
				<g id="XMLID_15_">
					<g id="XMLID_25_">
						<g id="XMLID_26_">
							<polygon id="XMLID_27_" class="st3" points="159.6,115.3 167.8,110.9 144.1,98.1 							"/>
						</g>
					</g>
					<g id="XMLID_16_">
						<g id="XMLID_17_">
							<g id="XMLID_21_">
								<g id="XMLID_22_">
									<g id="XMLID_23_">
										<path id="XMLID_24_" class="st6" d="M44.3,186.9c0.8,1.5,1.7,3,2.7,4.4c1,1.5,2.1,2.9,3.4,4.2c1.2,1.3,2.6,2.6,4,3.7
											c1.6,1.2,3.3,2.3,5.2,3.2c2.1,1,4.3,1.7,6.8,2.2c2.9,0.6,6.2,0.7,9.7,0.4c3-0.3,6.1-0.9,9.6-1.9l179.5-79.3L236,69
											l-79,42.6l2.1,4c2.6,4.8,1.3,10.8-3.1,14.1l-14.2,10.8c-5.5,4.2-13.4,2.4-16.6-3.6l-1.5-2.8c-1.2-2.2-3.8-3-6-1.8
											l-23,17.2c-53.3,21.7-19.2-34.6-47.6-17.3c-3.5,2.2-6.2,6-7.9,10.3c-0.9,2.2-1.6,4.6-2.1,6.9c-0.4,2.2-0.7,4.4-0.8,6.4
											c0,0.2,0,0.4,0,0.7c0,1,0.1,2.8,0.3,5c0.2,1.6,0.4,3.5,0.8,5.5c0.3,1.6,0.7,3.4,1.1,5.2c0.4,1.7,0.9,3.4,1.5,5.2
											c0.5,1.6,1.1,3.2,1.8,4.8C42.7,183.7,43.5,185.3,44.3,186.9z"/>
									</g>
								</g>
							</g>
							<g id="XMLID_18_">
								<g id="XMLID_19_">
									<path id="XMLID_20_" class="st3" d="M76.1,204.8c3-0.3,6.1-0.9,9.6-1.9l56.2-14.9l123.3-64.4l-16.4-30.8L76.1,204.8z"/>
								</g>
							</g>
						</g>
					</g>
				</g>
				<g id="XMLID_2_">
					<g id="XMLID_12_">
						<g id="XMLID_13_">
							<path id="XMLID_14_" class="st6" d="M118.1,202.4c-0.8,0.4-1.7-0.3-1.5-1.2c2.4-12,18.8-28.5,42-40.9
								c23.1-12.4,46-16.8,57.3-12.1c0.8,0.3,0.9,1.5,0.1,1.9L118.1,202.4z"/>
						</g>
					</g>
					<g id="XMLID_9_">
						<g id="XMLID_10_">
							<path id="XMLID_11_" class="st2" d="M184.3,143c1.2-0.4,2.1-1.4,2.2-2.7l9.4-87.9l-6.5-0.7l-9.4,87.9
								c-0.2,1.8,1.1,3.4,2.9,3.6C183.4,143.2,183.9,143.1,184.3,143z"/>
						</g>
					</g>
					<g id="XMLID_6_">
						<g id="XMLID_7_">
							<path id="XMLID_8_" class="st2" d="M117.9,178.4c1.2-0.4,2.1-1.4,2.2-2.7l9.4-87.9c0.2-1.8-1.1-3.4-2.9-3.6
								c-1.8-0.2-3.4,1.1-3.6,2.9l-9.4,87.9c-0.2,1.8,1.1,3.4,2.9,3.6C117,178.6,117.4,178.6,117.9,178.4z"/>
						</g>
					</g>
					<g id="XMLID_3_">
						<g id="XMLID_4_">
							<path id="XMLID_5_" class="st6" d="M89.6,110.3c-0.9,0.5-1.9-0.3-1.7-1.3c2.8-13.6,21.3-32.3,47.6-46.3
								c26.2-14,52.1-19,65-13.7c0.9,0.4,1,1.7,0.1,2.2L89.6,110.3z"/>
						</g>
					</g>
				</g>
			</g>
		</g>
	</g>
	<path class="st7" d="M163.1,108.3l21.6-11.6l0.3-3l3.8-1.1l-0.2,2l-3,39.2l-0.7,9l-0.5,7l-0.8,9.8l-0.5,6.8l-0.1,1.4l-64.8,34.6
		c-0.8,0.4-1.7-0.3-1.5-1.2c0.5-2.3,1.5-4.8,2.9-7.4l-14.1,3.8l-0.3,3.1l-3.7-0.3l-5-0.4v0l0-1.9l0.2-6.6l1.1-44.1l20.2-15.1
		c0.2-0.1,0.3-0.2,0.5-0.2l2.1-20.2l6.7-1.9l-2.7,25.4l0.8,1.6c3.2,6.1,11.2,7.8,16.6,3.6l14.2-10.8c4.4-3.3,5.7-9.3,3.1-14.1
		l-1.1-2l-1.1-2L163.1,108.3z"/>
	<g id="XMLID_53_">
		<g id="XMLID_66_">
			<g id="XMLID_67_">
				<path class="st3" d="M47,153.7L36.5,159c-0.1-1.1-0.1-1.9-0.1-2.6c0-0.2,0-0.4,0-0.7c0-0.4,0-0.7,0.1-1.1l8.8-4.4L47,153.7z"/>
			</g>
		</g>
		<g id="XMLID_64_">
			<g id="XMLID_65_">
				<path class="st3" d="M50.5,160.7l-12.9,6.5c0-0.1,0-0.2,0-0.2c-0.2-1.3-0.4-2.6-0.6-3.7l11.9-6L50.5,160.7z"/>
			</g>
		</g>
		<g id="XMLID_62_">
			<g id="XMLID_63_">
				<path class="st3" d="M54.1,167.6L39.5,175c-0.3-1-0.6-1.9-0.8-2.8c-0.1-0.3-0.2-0.6-0.2-0.9l13.9-7L54.1,167.6z"/>
			</g>
		</g>
		<g id="XMLID_60_">
			<g id="XMLID_61_">
				<path class="st3" d="M57.6,174.6l-15.4,7.8c0-0.1-0.1-0.2-0.1-0.2c-0.5-1.1-0.9-2.2-1.3-3.3l15.1-7.6L57.6,174.6z"/>
			</g>
		</g>
		<g id="XMLID_58_">
			<g id="XMLID_59_">
				<path class="st3" d="M61.1,181.5l-15.3,7.7c-0.5-0.8-1-1.6-1.4-2.4c-0.2-0.3-0.3-0.6-0.5-0.9l15.5-7.8L61.1,181.5z"/>
			</g>
		</g>
		<g id="XMLID_56_">
			<g id="XMLID_57_">
				<path class="st3" d="M64.6,188.5l-14,7.1c-0.1-0.1-0.1-0.1-0.2-0.2c-0.8-0.9-1.6-1.9-2.4-2.8l14.9-7.5L64.6,188.5z"/>
			</g>
		</g>
		<g id="XMLID_54_">
			<g id="XMLID_55_">
				<path class="st3" d="M68.1,195.5L57.2,201c-1-0.6-1.9-1.2-2.8-1.9c-0.3-0.2-0.5-0.4-0.8-0.6l12.7-6.4L68.1,195.5z"/>
			</g>
		</g>
	</g>
</g>
</svg>
