<svg xmlns="http://www.w3.org/2000/svg" viewBox="0 0 318 300"><path fill="#008dd3" d="M289.7 151c.1 20.9-4.3 40.7-12.2 58.7-22.2 50.2-72.3 85.1-130.6 85.3-15.5.1-30.4-2.4-44.5-6.8-26.3-8.4-49.3-24.2-66.5-45.1-17.9-21.5-29.6-48.5-32.5-78-.4-4.2-.6-8.6-.6-13-.2-48.7 23.9-91.9 61-117.9 4.8-3.5 9.9-6.5 15.2-9.3 7.4-4 15.2-7.2 23.2-9.9 7.6-2.4 15.5-4.2 23.6-5.5 6.5-.8 13.2-1.4 19.9-1.5 26.3-.1 51.1 7 72.5 19.3 3.9 2.2 7.5 4.5 11.1 7.2 17.1 12.1 31.4 27.9 41.8 46.3 1.2 2.1 2.3 4.1 3.4 6.3.8 1.9 1.8 3.7 2.6 5.6 2.7 6.1 5.1 12.3 7 18.8 2.1 7.2 3.7 14.6 4.5 22.1.7 5.7 1.1 11.5 1.1 17.4z"/><path fill="#f7c73f" d="M204.9 173.9h-28.1l27-64.3-61.2 80.8h14.8L139.8 228h28.1l-24.4 59.3 58.7-75.8h-14.9z"/><path fill="none" stroke="#fff" stroke-linecap="round" stroke-linejoin="round" stroke-miterlimit="10" stroke-width="8" d="M196.2 173.3l-14 30.7h0" opacity=".31"/><path fill="#9ea8a9" d="M280.6 100.6c.8-3.4 1.2-6.9 1.2-10.6 0-24.7-19.2-44.7-42.9-44.7-9.1 0-17.5 2.9-24.4 7.9-2.2-26.7-23.7-47.6-49.9-47.6-24.2 0-44.4 17.9-49.1 41.6-4-1.3-8.2-1.9-12.5-1.9-23.7 0-42.9 20-42.9 44.7 0 2.6.2 5.1.6 7.6h-8.8c-19.7 0-35.6 16.6-35.6 37.1s15.3 41.8 46.1 44.8l204.1-7.7c19.7 0 35.6-16.6 35.6-37.1 0-15.3-8.8-28.4-21.5-34.1z"/><path fill="#c4cbcc" d="M293.8 108.2c.8-3.4 1.2-6.9 1.2-10.6 0-24.7-19.2-44.7-42.9-44.7-9.1 0-17.5 2.9-24.4 7.9-2.2-26.7-23.7-47.6-49.9-47.6-24.2 0-44.4 17.9-49.1 41.6-4-1.3-8.2-1.9-12.5-1.9-23.7 0-42.9 20-42.9 44.7 0 2.6.2 5.1.6 7.6h-8.8c-19.7 0-35.6 16.6-35.6 37.1s15.9 37.1 35.6 37.1h214.6c19.7 0 35.6-16.6 35.6-37.1 0-15.3-8.9-28.4-21.5-34.1z"/><path fill="#fff" d="M265.6 112.3c.6-2.5 1-5 1-7.7 0-17.9-15-32.4-33.5-32.4-7.1 0-13.6 2.1-19 5.8-1.7-19.4-18.5-34.6-39-34.6-18.9 0-34.7 13-38.3 30.2-3.1-.9-6.4-1.4-9.8-1.4-18.5 0-33.5 14.5-33.5 32.4 0 1.9.2 3.7.5 5.5h-6.9c-15.4 0-27.8 12.1-27.8 26.9 0 14.9 12.5 26.9 27.8 26.9h167.6c15.4 0 27.8-12.1 27.8-26.9 0-11-7-20.5-16.9-24.7z" opacity=".31"/><path fill="#d6d6d6" d="M60.8 97.6s-14.5-1.6-21.9 2.5l16.6 6.4s6.4-1.8 18.4-1.3l-13.1-7.6zm67.9-42.7l-13.1-7.6s-8.4-3.9-18.5-1.6l15.6 7.4c-.1-.1 9.5-.9 16 1.8z"/><path fill="#828d8e" d="M227.7 60.9s5.1-4 14.6-6.8L225 47.8s2.2 6.6 2.7 13.1zM64.1 179.6s-34.4-1-43.4-26l13.9 8s10.7 16.6 29.5 18zm9.8-74.4l-13.1-7.6s-2.3-9.5 1.2-20.8l13.4 6.6s-3.3 9.1-1.5 21.8zm41.7-57.9l13.1 7.6s1-7.8 8.3-19.8l-14.7-5.2s-6.1 9.4-6.7 17.4z"/><path fill="none" stroke="#fff" stroke-linecap="round" stroke-linejoin="round" stroke-miterlimit="10" stroke-width="10" d="M158.3 61.8s13.4-8.8 26.4-2.4c11.2 5.6 12.5 12.1 13.7 19.9m21.4 10.1s13.3-5.4 23.3 2.1c8.6 6.6 8.4 12.4 7.9 19.4" opacity=".31"/></svg>
