<?xml version="1.0" encoding="utf-8"?>
<!-- Generator: Adobe Illustrator 28.0.0, SVG Export Plug-In . SVG Version: 6.00 Build 0)  -->
<svg version="1.1" id="Camada_1" xmlns="http://www.w3.org/2000/svg" xmlns:xlink="http://www.w3.org/1999/xlink" x="0px" y="0px"
	 viewBox="0 0 318 300" style="enable-background:new 0 0 318 300;" xml:space="preserve">
<style type="text/css">
	.st0{fill:#008DD3;}
	.st1{fill:#F7C73F;}
	
		.st2{opacity:0.31;fill:none;stroke:#FFFFFF;stroke-width:8;stroke-linecap:round;stroke-linejoin:round;stroke-miterlimit:10;enable-background:new    ;}
	.st3{fill:#9EA8A9;}
	.st4{fill:#C4CBCC;}
	.st5{opacity:0.31;fill:#FFFFFF;enable-background:new    ;}
	.st6{fill:#D6D6D6;}
	.st7{fill:#828D8E;}
	
		.st8{opacity:0.31;fill:none;stroke:#FFFFFF;stroke-width:10;stroke-linecap:round;stroke-linejoin:round;stroke-miterlimit:10;enable-background:new    ;}
</style>
<g>
	<g>
		<g id="Camada_10_00000011026737342184732490000017020885724496390315_">
			<path class="st0" d="M289.7,151c0.1,20.9-4.3,40.7-12.2,58.7c-22.2,50.2-72.3,85.1-130.6,85.3c-15.5,0.1-30.4-2.4-44.5-6.8
				c-26.3-8.4-49.3-24.2-66.5-45.1c-17.9-21.5-29.6-48.5-32.5-78c-0.4-4.2-0.6-8.6-0.6-13c-0.2-48.7,23.9-91.9,61-117.9
				c4.8-3.5,9.9-6.5,15.2-9.3c7.4-4,15.2-7.2,23.2-9.9c7.6-2.4,15.5-4.2,23.6-5.5c6.5-0.8,13.2-1.4,19.9-1.5
				c26.3-0.1,51.1,7,72.5,19.3c3.9,2.2,7.5,4.5,11.1,7.2c17.1,12.1,31.4,27.9,41.8,46.3c1.2,2.1,2.3,4.1,3.4,6.3
				c0.8,1.9,1.8,3.7,2.6,5.6c2.7,6.1,5.1,12.3,7,18.8c2.1,7.2,3.7,14.6,4.5,22.1l0,0C289.3,139.3,289.7,145.1,289.7,151z"/>
		</g>
	</g>
	<polygon class="st1" points="204.9,173.9 176.8,173.9 203.8,109.6 142.6,190.4 157.4,190.4 139.8,228 167.9,228 143.5,287.3 
		202.2,211.5 187.3,211.5 	"/>
	<polyline class="st2" points="196.2,173.3 182.2,204 182.2,204 	"/>
	<path class="st3" d="M280.6,100.6c0.8-3.4,1.2-6.9,1.2-10.6c0-24.7-19.2-44.7-42.9-44.7c-9.1,0-17.5,2.9-24.4,7.9
		c-2.2-26.7-23.7-47.6-49.9-47.6c-24.2,0-44.4,17.9-49.1,41.6c-4-1.3-8.2-1.9-12.5-1.9c-23.7,0-42.9,20-42.9,44.7
		c0,2.6,0.2,5.1,0.6,7.6h-8.8c-19.7,0-35.6,16.6-35.6,37.1c0,20.5,15.3,41.8,46.1,44.8l204.1-7.7c19.7,0,35.6-16.6,35.6-37.1
		C302.1,119.4,293.3,106.3,280.6,100.6z"/>
	<path class="st4" d="M293.8,108.2c0.8-3.4,1.2-6.9,1.2-10.6c0-24.7-19.2-44.7-42.9-44.7c-9.1,0-17.5,2.9-24.4,7.9
		c-2.2-26.7-23.7-47.6-49.9-47.6c-24.2,0-44.4,17.9-49.1,41.6c-4-1.3-8.2-1.9-12.5-1.9c-23.7,0-42.9,20-42.9,44.7
		c0,2.6,0.2,5.1,0.6,7.6h-8.8c-19.7,0-35.6,16.6-35.6,37.1c0,20.5,15.9,37.1,35.6,37.1h214.6c19.7,0,35.6-16.6,35.6-37.1
		C315.3,127,306.4,113.9,293.8,108.2z"/>
	<path class="st5" d="M265.6,112.3c0.6-2.5,1-5,1-7.7c0-17.9-15-32.4-33.5-32.4c-7.1,0-13.6,2.1-19,5.8c-1.7-19.4-18.5-34.6-39-34.6
		c-18.9,0-34.7,13-38.3,30.2c-3.1-0.9-6.4-1.4-9.8-1.4c-18.5,0-33.5,14.5-33.5,32.4c0,1.9,0.2,3.7,0.5,5.5h-6.9
		c-15.4,0-27.8,12.1-27.8,26.9c0,14.9,12.5,26.9,27.8,26.9h167.6c15.4,0,27.8-12.1,27.8-26.9C282.5,126,275.5,116.5,265.6,112.3z"/>
	<path class="st6" d="M60.8,97.6c0,0-14.5-1.6-21.9,2.5l16.6,6.4c0,0,6.4-1.8,18.4-1.3L60.8,97.6z"/>
	<path class="st6" d="M128.7,54.9l-13.1-7.6c0,0-8.4-3.9-18.5-1.6l15.6,7.4C112.6,53,122.2,52.2,128.7,54.9z"/>
	<g>
		<path class="st7" d="M227.7,60.9c0,0,5.1-4,14.6-6.8L225,47.8C225,47.8,227.2,54.4,227.7,60.9z"/>
		<path class="st7" d="M64.1,179.6c0,0-34.4-1-43.4-26l13.9,8C34.6,161.6,45.3,178.2,64.1,179.6z"/>
		<path class="st7" d="M73.9,105.2l-13.1-7.6c0,0-2.3-9.5,1.2-20.8l13.4,6.6C75.4,83.4,72.1,92.5,73.9,105.2z"/>
		<path class="st7" d="M115.6,47.3l13.1,7.6c0,0,1-7.8,8.3-19.8l-14.7-5.2C122.3,29.9,116.2,39.3,115.6,47.3z"/>
	</g>
	<path class="st8" d="M158.3,61.8c0,0,13.4-8.8,26.4-2.4c11.2,5.6,12.5,12.1,13.7,19.9"/>
	<path class="st8" d="M219.8,89.4c0,0,13.3-5.4,23.3,2.1c8.6,6.6,8.4,12.4,7.9,19.4"/>
</g>
</svg>
