<svg xmlns="http://www.w3.org/2000/svg" id="Layer_1" x="0" y="0" version="1.1" viewBox="0 0 300 300" xml:space="preserve"><style>.st1{fill:#3b3e3f}.st2{fill:#c4eff6}.st5{fill:#ef524f}</style><path fill="#008dd3" d="M293.6 150c0 76.6-58.7 139.4-133.5 146.1-2.6.2-5.3.4-8 .5-1.7.1-3.4.1-5.2.1h-1.7c-21.9-.2-42.7-5.3-61.2-14.2-9.2-4.4-17.8-9.7-25.9-15.8-5.5-4.2-10.8-8.8-15.7-13.8C16.4 226.4.3 190.1.3 150 .3 69 66 3.4 147 3.4 228 3.4 293.6 69 293.6 150z"/><g id="XMLID_8215_"><g id="plane_225_"><g id="plane_227_"><g id="XMLID_9565_"><g id="XMLID_9569_"><g id="XMLID_9570_"><path id="XMLID_9571_" d="M233.9 109.6c.2-.1.5-.2.7-.3l43.8-23.4c2-1.1 2.8-3.6 1.7-5.7-1.1-2-3.6-2.8-5.7-1.7l-43.8 23.4c-2 1.1-2.8 3.6-1.7 5.7 1 1.8 3.1 2.6 5 2z" class="st1"/></g></g><g id="XMLID_9566_"><g id="XMLID_9567_"><path id="XMLID_9568_" d="M299.7 141.2L273 84l-32.7-53.9c-.1-.2-.3 0-.3.1l26.6 57.2 32.7 53.9c.2.2.4.1.4-.1z" class="st2"/></g></g></g><g id="XMLID_9551_"><g id="XMLID_9562_"><path id="XMLID_9563_" d="M238.1 168l-7.7-2.9-24.8-9.4-1.2-.5-4.8-1.8 1.3-3.5 7.8 3 1.2.4 22 8.3 2.6 1 5.3 2c-.8 1.1-1.3 2.2-1.7 3.4z" class="st1"/></g><g id="XMLID_9559_"><path id="XMLID_9560_" d="M249.5 161.5c-2.2-.6-4.6-.3-6.7.8-1.2.6-2.1 1.4-2.9 2.4-.8 1-1.4 2.1-1.7 3.3l-3.6-5.3-1.6-2.4-10-14.7-2.6-3.8-8.8-12.9c-2-3-1.3-7 1.7-9.1 3-2 7-1.3 9.1 1.7l10.3 15.1 1.9 2.7 9.4 13.8 5.5 8.4z" class="st1"/></g><g id="XMLID_9552_"><g id="XMLID_9556_"><path id="XMLID_9557_" d="M262.7 162.3c-3.7-7-11.5-10.4-18.8-9-1.7.3-3.4.9-5 1.8-2.5 1.3-4.5 3.1-6 5.2-.4.5-.7.9-.9 1.4-.6 1.1-1.1 2.2-1.5 3.4-1.4 4.4-1.1 9.4 1.2 13.8 4.6 8.6 15.2 11.8 23.8 7.2 8.5-4.6 11.8-15.2 7.2-23.8zm-11.1 16.6c-4.6 2.4-10.3.7-12.7-3.9-1.2-2.2-1.4-4.7-.7-7 .3-1.2.9-2.3 1.7-3.3.8-1 1.7-1.8 2.9-2.4 2.1-1.1 4.5-1.4 6.7-.8 2.5.6 4.7 2.2 6 4.7 2.4 4.5.7 10.2-3.9 12.7z" class="st1"/></g></g></g><g id="XMLID_9548_"><g id="XMLID_9549_"><path id="XMLID_9550_" d="M235.8 75.7h24.8v43.2h-24.8z" class="st1" transform="rotate(151.909 248.242 97.258)"/></g></g><g id="XMLID_9538_"><g id="XMLID_9545_"><path id="XMLID_9546_" d="M105.8 192.5l-.2 1.5-.2 1.6-.2 2.1-.3 3.1-.2 1.7-.4 3.9-.4 3.5c-.9-.9-2.3-1.2-3.5-.5-.1 0-.1.1-.2.1l.4-3.5.3-2.6.3-2.8.2-1.8.2-1.5.2-1.4.4-3.6c.1-1 1-1.8 2-1.7 1 0 1.7.9 1.6 1.9z" class="st1"/></g><g id="XMLID_9542_"><path id="XMLID_9543_" d="M107.2 209c-.7-1.2-1.7-2.2-2.9-2.7s-2.4-.7-3.7-.4c-.5.1-1.1.3-1.6.6-3 1.6-4.1 5.2-2.5 8.2 1.6 3 5.2 4.1 8.2 2.5 3-1.6 4.1-5.3 2.5-8.2zm-3.9 5.5c-1.5.8-3.2.2-4-1.2-.7-1.4-.3-3 1-3.9.1-.1.1-.1.2-.1 1.2-.6 2.6-.4 3.5.5.2.2.4.4.5.7.8 1.4.2 3.2-1.2 4z" class="st1"/></g></g><g id="XMLID_9422_"><g id="XMLID_9535_"><path id="XMLID_9536_" d="M167.9 110.9l-8.2 4.4-1.6-1.8-8.9-9.8-5.1-5.7 8.7 4.7 10.3 5.6z" class="st2"/></g><g id="XMLID_9423_"><g id="XMLID_9527_"><g id="XMLID_9531_"><g id="XMLID_9532_"><path id="XMLID_9533_" d="M265.2 123.5l-32 14.1-12.1 5.4-9.2 4.1-8.6 3.8-3.2 1.4-16.5 7.3-57.8 25.5-20.1 8.9-3.9 1.7-5.5 2.4-10.7 4.7c-3.4 1-6.6 1.7-9.6 2-3.5.3-6.7.2-9.7-.4-2.5-.4-4.7-1.2-6.8-2.2-.8-.4-1.6-.8-2.4-1.3-1-.6-1.9-1.2-2.8-1.9-.3-.2-.5-.4-.8-.6-1.1-.9-2.1-1.8-3.1-2.9l-.2-.2c-.8-.9-1.6-1.9-2.4-2.8-.3-.4-.7-.9-1-1.3-.4-.6-.9-1.3-1.3-1.9-.5-.8-1-1.6-1.4-2.4-.2-.3-.3-.6-.5-.9-.6-1.2-1.2-2.4-1.7-3.6 0-.1-.1-.2-.1-.2-.5-1.1-.9-2.2-1.3-3.3-.2-.5-.4-1-.5-1.5-.3-.8-.5-1.6-.7-2.3-.3-1-.6-1.9-.8-2.8-.1-.3-.2-.6-.2-.9-.3-1.4-.6-2.7-.9-4v-.2c-.2-1.3-.4-2.6-.6-3.7-.1-.6-.2-1.2-.2-1.8-.1-.9-.2-1.7-.2-2.4-.1-1.1-.1-1.9-.1-2.6v-.7c0-.4 0-.7.1-1.1.1-1.7.3-3.5.7-5.3.5-2.3 1.2-4.7 2.1-6.9 1.8-4.3 4.4-8.1 7.9-10.3 28.4-17.3-5.7 39.1 47.6 17.3l2.8-2.1 20.2-15.1c.2-.1.3-.2.5-.2 2.1-.8 4.5 0 5.6 2.1l.6 1.2.8 1.6c3.2 6.1 11.2 7.8 16.7 3.6l14.2-10.8c4.4-3.3 5.7-9.3 3.1-14.2l-1.1-2-1-2 6-3.3 21.6-11.6 4-2.1 3-1.6 44.5-24 4.3 8.1 8.2 15.4.2.4 3.7 7 8.2 15.4 4.4 8z" class="st5"/></g></g><g id="XMLID_9528_"><path id="XMLID_9529_" d="M265.2 123.5l-30.7 16-11.6 6.1-6.3 3.3-7.7 4-4.4 2.3-21.3 11.1-41.4 21.7-22.4 5.9-14.1 3.8-3.9 1-5.2 1.4-10.7 2.8c-3.4 1-6.6 1.7-9.6 2l20.4-13.3 20-13 3.5-2.3 60.4-39.2 5.3-3.4 1.8-1.2 41.1-26.7 7.7-5 12.7-8.2 3.7 7 8.2 15.4 4.5 8.5z" class="st2"/></g></g></g></g><g id="XMLID_9409_"><g id="XMLID_9416_"><path id="XMLID_9417_" d="M196 52.2l-.1 1.3-4.2 39.4-4.2 39.7-.8 7.6c-.1 1.1-.8 2-1.7 2.5l-.6.3c-.4.1-.9.2-1.4.1-1.8-.2-3.1-1.8-2.9-3.6l.3-2.4 4.3-40.5.3-3 3.9-36.4.6-5.7 6.5.7z" class="st1"/></g><g id="XMLID_9413_"><path id="XMLID_9414_" d="M129.4 87.7l-.1 1.2-2.2 21-2.7 25.4-4.3 40.4c0 .2-.1.4-.1.6-.3 1-1.1 1.8-2.1 2.1-.4.1-.9.2-1.4.1-1.8-.2-3.1-1.8-2.9-3.6l4.6-42.9 2.2-20.2 2-19.2.6-5.6c.2-1.8 1.8-3.1 3.6-2.9 1.7.2 3 1.8 2.8 3.6z" class="st1"/></g><g id="XMLID_9410_"><g id="XMLID_9411_"><path id="XMLID_9412_" d="M89.5 110.2c-.9.5-1.9-.3-1.7-1.3 2.8-13.7 21.4-32.4 47.6-46.4 26.2-14 52.1-19 65-13.7.9.4 1 1.7.1 2.2l-111 59.2z" class="st5"/></g></g><g id="XMLID_9419_"><path id="XMLID_9420_" d="M216 150.2l-6.1 3.2-4.4 2.3-22.7 12.1-64.8 34.7c-.8.4-1.7-.3-1.5-1.2.5-2.3 1.5-4.8 2.9-7.4 1.6-2.8 3.8-5.8 6.4-8.8 7.5-8.5 18.9-17.3 32.7-24.7 8.9-4.7 17.7-8.3 25.8-10.6 10.9-3.1 20.5-4.1 27.5-2.7 1.5.3 2.8.7 4 1.2.3.1.5.4.6.7.3.4.1.9-.4 1.2z" class="st5"/></g></g></g></g><g id="XMLID_9424_"><g id="XMLID_9517_"><path id="XMLID_9518_" d="M46.9 153.7L36.4 159c-.1-1.1-.1-1.9-.1-2.6v-.7c0-.4 0-.7.1-1.1l8.8-4.4 1.7 3.5z" class="st2"/></g><g id="XMLID_9440_"><path id="XMLID_9515_" d="M50.4 160.7l-12.9 6.5v-.2c-.2-1.3-.4-2.6-.6-3.7l11.9-6 1.6 3.4z" class="st2"/></g><g id="XMLID_9437_"><path id="XMLID_9438_" d="M53.9 167.6L39.4 175c-.3-1-.6-1.9-.8-2.8-.1-.3-.2-.6-.2-.9l13.9-7 1.6 3.3z" class="st2"/></g><g id="XMLID_9434_"><path id="XMLID_9435_" d="M57.5 174.6L42 182.4c0-.1-.1-.2-.1-.2-.5-1.1-.9-2.2-1.3-3.3l15.1-7.6 1.8 3.3z" class="st2"/></g><g id="XMLID_9431_"><path id="XMLID_9432_" d="M61 181.6l-15.4 7.8c-.5-.8-1-1.6-1.4-2.4-.2-.3-.3-.6-.5-.9l15.5-7.8 1.8 3.3z" class="st2"/></g><g id="XMLID_9428_"><path id="XMLID_9429_" d="M64.5 188.5l-14.1 7.1-.2-.2c-.8-.9-1.6-1.9-2.4-2.8l14.9-7.5 1.8 3.4z" class="st2"/></g><g id="XMLID_9425_"><path id="XMLID_9426_" d="M68 195.5L57.1 201c-1-.6-1.9-1.2-2.8-1.9-.3-.2-.5-.4-.8-.6l12.8-6.4 1.7 3.4z" class="st2"/></g></g></g><path fill="#3b3e3f" d="M163.1 108.3l21.6-11.6.3-3 3.8-1.1-.2 2-3 39.2-.7 9-.5 7-.8 9.8-.5 6.8-.1 1.4-65 34.7c-.8.4-1.7-.3-1.5-1.2.5-2.3 1.5-4.8 2.9-7.4l-14.1 3.8-.3 3.1-3.7-.3-5-.4v-1.9l.2-6.6 1.1-44.2 20.2-15.1c.2-.1.3-.2.5-.2l2.2-20.2 6.8-1.9-2.7 25.4.8 1.6c3.2 6.1 11.2 7.8 16.7 3.6l14.2-10.8c4.4-3.3 5.7-9.3 3.1-14.2l-1.1-2-1.1-2 5.9-3.3z" opacity=".2"/></svg>