<?xml version="1.0" encoding="utf-8"?>
<!-- Generator: Adobe Illustrator 26.5.0, SVG Export Plug-In . SVG Version: 6.00 Build 0)  -->
<svg version="1.1" id="Camada_1" xmlns="http://www.w3.org/2000/svg" xmlns:xlink="http://www.w3.org/1999/xlink" x="0px" y="0px"
	 viewBox="0 0 300 300" style="enable-background:new 0 0 300 300;" xml:space="preserve">
<style type="text/css">
	.st0{fill:#008DD3;}
	.st1{fill:#E247D7;}
	.st2{fill:#FBC304;}
	.st3{fill:#FF8DA4;}
	.st4{fill:#F14E70;}
	.st5{fill:#54C654;}
	.st6{fill:#50AFEB;}
	.st7{fill:#AB67A9;}
	.st8{fill:none;stroke:#FF6780;stroke-miterlimit:10;}
	.st9{opacity:0.59;}
	.st10{opacity:0.2;fill:#FFFFFF;enable-background:new    ;}
	.st11{opacity:0.44;fill:#FFFFFF;enable-background:new    ;}
	.st12{opacity:0.43;fill:#FFFFFF;enable-background:new    ;}
</style>
<g>
	<path class="st0" d="M286.2,149.4c0.1,20.7-4.3,40.4-12.1,58.2c-22,49.7-71.6,84.3-129.5,84.5c-15.4,0.1-30.2-2.4-44.1-6.8
		c-26.1-8.3-48.9-24-65.9-44.7c-17.7-21.4-29.4-48-32.1-77.3c-0.4-4.2-0.6-8.5-0.6-12.8C1.7,102.3,25.6,59.5,62.3,33.7
		c4.8-3.4,9.8-6.5,15-9.2c7.3-3.9,15-7.2,23-9.8c7.5-2.4,15.4-4.2,23.4-5.4c6.5-0.9,13-1.4,19.7-1.5c26.2-0.1,50.6,6.9,71.8,19.1
		c3.8,2.2,7.4,4.5,11,7.1c16.9,12,31.1,27.6,41.4,45.8c1.2,2.1,2.3,4.1,3.3,6.3c0.9,1.9,1.8,3.6,2.6,5.5c2.7,6.1,5,12.2,6.9,18.6
		c2.1,7.2,3.6,14.5,4.5,21.9l0,0C285.8,137.9,286.2,143.6,286.2,149.4z"/>
	<g>
		<g>
			<path class="st1" d="M136.7,224.6l0.3-0.3c-0.3-2.2-0.5-4.6-0.6-6.9L136.7,224.6z"/>
			<g>
				<g>
					<path class="st2" d="M212.8,220.4c10,3.9,15.6,5.6,24.6,7.8c24.4,6,41.7,4.4,47.4-4.6s-0.2-25.2-16-44.9
						C252,158,226.2,136,195.9,116.9c-23.4-14.8-45.6-25.6-64.9-32.8c1-1.9,1.3-4.2,0.8-6.3c20.8,7.5,43.8,18.9,67.4,33.9
						c30.8,19.5,57.2,42,74.4,63.2c17.9,22.1,23.7,40.5,16.4,52c-3.2,5.1-8.8,8.4-16.4,10c-9.5,1.9-22.3,1-37.7-2.7
						c-8.8-2.1-15.8-4.4-25.5-8.2C211.4,224.1,213.4,222.5,212.8,220.4z"/>
				</g>
			</g>
			<path class="st2" d="M146.4,110.8c21.6-13.3,42.7-23.6,62.1-30.7c0,0.1,0,0.1,0,0.2c40.5-15.1,73-16.2,82.8-0.1
				c12.7,20.6-16.4,61.4-67.8,98.4c0,0,0.1,0,0.1,0.1c-2.2,1.6-4.5,3.2-6.8,4.8c-0.1-2.4-0.3-4.9-0.5-7.3
				c53.7-37.7,79.5-76.8,69.7-92.7c-5.4-8.7-21.7-11-44.9-6.4c-18.3,3.7-41,11.8-65.9,24.8l-0.2-0.2c-8.3,4.3-16.8,9-25.4,14.4
				c-5.4,3.2-10.4,6.6-15.3,9.9c-0.3-0.6-0.8-0.9-1.4-1.2c0.1,0,0.2,0.1,0.3,0.1c-0.9-0.4-1.8-0.9-2.6-1.5c-0.4-0.4-0.8-0.7-1.1-1.2
				c0-0.1-0.1-0.2-0.1-0.2C134.7,118.2,140.5,114.5,146.4,110.8z"/>
			<g>
				<g>
					<g>
						<path class="st3" d="M134.2,217.1c0.8,0,1.6,0,2.4-0.1c1.3-0.2,2.7-0.7,3.9-1.4c2.8,19.6,9.7,50.6,25.3,56.8l6-7.8
							c0.6-0.8,1.4-1.2,2.3-1.1c0.9,0.1,1.7,0.6,2.4,1.5l7.8,10.9c5.1-6.2,19.9-29,25.5-52.6c0.2-1.4,0.4-2.8,0.5-4.3
							c2.2-23-4-45.6-18.6-67.2c-1.2-1.7-0.9-4.4,0.5-6c0.8-0.8,1.8-1.2,2.7-1.1c0.8,0.1,1.5,0.6,2,1.3c14.1,20.9,21,42.6,20.6,65
							c0.1-0.2,0.2-0.3,0.2-0.3c-0.1,1.8-0.2,3.6-0.4,5.4c-0.1,1.1-0.6,1.9-0.7,3c-0.2,2.3-0.4,4.3-0.7,6.4c-0.1-0.1,0.1,0.4,0,0.3
							c-6.9,33.8-28.6,58.7-29.4,59.6c-1.3,1.3-3.2,1-4.5-0.7l-7.7-10.7l-4.9,6.4c-0.7,0.9-1.7,1.3-2.8,1
							C146,275.8,137.5,239.7,134.2,217.1z"/>
					</g>
					<g>
						<polygon class="st3" points="174.4,274.1 174.3,178 201.5,157.3 214.4,189.5 214.7,216 203.4,248 187.2,281.3 						"/>
					</g>
				</g>
			</g>
			<g>
				<g>
					<path class="st4" d="M174.4,274.1l-4.9,6.4c-0.7,0.9-1.7,1.3-2.8,1c-20.9-5.8-29.3-41.9-32.6-64.4c0.8,0,1.6,0,2.4-0.1
						c1.3-0.2,2.7-0.7,3.9-1.4c2.8,19.6,9.7,50.6,25.3,56.8l6-7.8c0.6-0.8,1.4-1.2,2.3-1.1L174.4,274.1z"/>
					<path class="st4" d="M174.3,268.9l2.7-91l-13.3,14.5l-22.5,22.6l-1.4,14.4l14.7,36.8c0,0,9.5,5.8,10.9,8.2
						C167.8,278.5,174.3,268.9,174.3,268.9z"/>
				</g>
			</g>
			<g>
				<g>
					<g>
						<path class="st3" d="M93.9,154.1c0.4,0.7,0.9,1.4,1.4,2c0.9,1,2,1.9,3.3,2.6c-15.1,12.9-37.6,35.2-34.4,51.7l9.8,0.8
							c1,0.1,1.8,0.6,2.2,1.4c0.4,0.8,0.4,1.8,0,2.8l-5.3,12.5c7.9,0.9,35.1,1.4,58.1-6.6c1.3-0.6,2.5-1.2,3.8-1.8
							c20.6-10.3,36.3-27.7,46.9-51.6c0.8-1.9,3.2-3.1,5.4-2.7c1.1,0.2,2,0.9,2.3,1.7c0.3,0.7,0.3,1.6-0.1,2.4
							c-10.1,23-24.9,40.5-44,52.1c0.2,0,0.4,0,0.4,0c-1.6,0.9-3.1,1.7-4.8,2.5c-1,0.5-1.9,0.5-2.9,1c-2,1-3.7,1.9-5.8,2.8
							c0-0.1-0.3,0.3-0.3,0.1c-32.3,12.4-64.9,7.3-66.1,7c-1.8-0.4-2.6-2.2-1.8-4.2l5.1-12.3l-8-0.7c-1.2-0.1-2.1-0.8-2.4-1.8
							C50.6,195.5,76.6,169,93.9,154.1z"/>
					</g>
					<g>
						<polygon class="st3" points="67.2,218.6 153,164.4 180.5,179.1 160.1,207.3 138,221.7 104.8,229.2 68,233.2 						"/>
					</g>
				</g>
			</g>
			<g>
				<g>
					<path class="st4" d="M67.3,218.6l-8-0.7c-1.2-0.1-2.1-0.8-2.4-1.8c-6.3-20.7,19.7-47.2,37.1-62c0.4,0.7,0.9,1.4,1.4,2
						c0.9,1,2,1.9,3.3,2.6c-15.1,12.9-37.6,35.2-34.4,51.7l9.8,0.8c1,0.1,1.8,0.6,2.2,1.4L67.3,218.6z"/>
					<polygon class="st4" points="67.2,218.6 154.1,164.9 147.5,136.5 95.5,151.4 86.2,165 63.1,197.1 63.9,209.7 					"/>
				</g>
			</g>
			<g>
				<g>
					<g>
						<path class="st3" d="M135.6,84.7c-0.5,0.6,0.4,2.3,0.1,3c-0.6,1.2-0.2,2.5-0.3,3.9c-17.7-9-47-21.2-61.1-11.9l2.9,9.4
							c0.3,0.9,0.2,1.9-0.4,2.5c-0.6,0.7-1.5,1.1-2.6,1.1l-13.5,0.1c2.1,7.7,12.3,32.9,28.4,51.1c1,1,2,1.9,3.1,2.8
							c17.4,15.1,39.6,22.9,65.7,23.4c2.1,0,4.2,1.8,4.6,3.8c0.2,1.1,0,2.1-0.7,2.8c-0.5,0.6-1.3,0.9-2.3,0.9
							c-25.1-0.5-47-7.4-65-20.6c0.1,0.2,0.1,0.4,0.1,0.4c-1.4-1.1-2.8-2.3-4.2-3.4c-0.9-0.7-1.2-1.5-2-2.3
							c-1.7-1.5-3.2-2.7-4.9-4.3c0.1,0-0.4-0.2-0.3-0.2c-23.8-25-31.6-57.1-31.9-58.3c-0.3-1.8,1-3.2,3.1-3.2l13.3-0.1l-2.4-7.6
							c-0.4-1.1-0.1-2.2,0.8-2.9C83.1,61.4,115.4,74.5,135.6,84.7z"/>
					</g>
					<g>
						<polygon class="st3" points="76.9,91.7 153.6,142.9 148.9,171.9 114.3,167.1 92.5,152.1 72.8,124.4 55,92 						"/>
					</g>
				</g>
			</g>
			<g>
				<g>
					<path class="st4" d="M68.1,85.7l-4.7-11.1c-0.4-1.1-0.1-2.2,0.8-2.9C81,58,115.4,71.7,135.7,82.1c-0.5,0.6-0.9,1.3-1.3,2.1
						c-0.6,1.2-0.9,2.6-1.1,4c-17.8-9-47.1-21.3-61.2-11.9l2.9,9.4c0.3,0.9,2.4,5.4,1.8,6.1L68.1,85.7z"/>
					<polygon class="st4" points="76.9,91.7 144.6,137.3 130.4,124.2 133.6,88.5 122.7,79.1 84.1,70 69.6,70.9 					"/>
				</g>
			</g>
			<path class="st2" d="M130.6,84.3L130.6,84.3c0-0.4,0.1-0.7,0.2-1.1c0.2-0.9,0.3-1.9,0.5-2.8c-0.1,0.3-0.1,0.5,0-0.2
				c7.6-39.8,22.2-66,39.9-66.4c9.4-0.2,18.4,6.8,26.2,19.9c0,0.1,0.1,0.1,0.1,0.2c0.3,0.5,0.5,0.9,0.8,1.4c0.2,0.3,0.3,0.6,0.5,0.9
				c0.1,0.3,0.3,0.5,0.4,0.8c0.3,0.5,0.5,1,0.8,1.6c0,0.1,0.1,0.2,0.1,0.3c0.7,1.3,1.3,2.6,1.9,4l0,0v0.1c1.6,3.5,3.1,7.4,4.7,11.5
				c2.3,6.6,5,15.6,6.8,23.2c0.4,1.4,0.2,0.7,0.1,0.2c0.3,1.4,0.6,2.8,0.9,4.3c-0.1,0-0.1,0-0.2,0c4.3,20.4,6.9,44.1,7.1,69.8
				c0.2,21.5-0.1,38.7-3,57.4c-0.6,4-1.6,10.1-2,13.2c-0.1,0.8-0.9,4.7-1,5.3c-5.1-1.7-3.2-0.7-5.2-1.9l-0.4-3
				c4-21,5.8-45.6,5.5-70.8c-0.3-30.1-3.7-56.4-8.9-77.5c-1.6-6.3-3.5-13-5.4-18c-3.9-10.9-8.4-19.7-13.1-26
				c-5.2-6.8-10.7-10.4-16.1-10.4c-0.8,0-1.5,0.1-2.3,0.2c-9.7,1.9-19.2,15.4-26.3,37.6c-2.1,6.6-4.4,15.8-6,23.4
				c-0.3,1.4-0.5,2.9-0.8,4.4l-0.1-0.1c-2,11.6-3.4,24.6-4.2,38.6c-1.9-0.8-4.2-1-6.2-0.5C126.9,109.8,128.5,96.4,130.6,84.3z"/>
			<g>
				<g>
					<g>
						<g>
							<ellipse class="st5" cx="197.9" cy="42.3" rx="13" ry="13"/>
							<path class="st5" d="M198.1,58.4c-4.3,0-8.4-1.6-11.4-4.6c-3-3-4.8-7-4.9-11.3c0-4.3,1.6-8.4,4.6-11.4c3-3,7-4.8,11.3-4.9
								c4.3,0,8.3,1.6,11.4,4.6c3,3,4.8,7,4.9,11.3c0.1,7.8-5.5,14.4-12.9,15.9C200.1,58.3,199.1,58.4,198.1,58.4z M190.8,35.3
								c-1.8,1.9-2.8,4.4-2.8,7c0,2.6,1.1,5.2,2.9,7c1.9,1.8,4.4,2.8,7,2.8c5.5-0.1,9.8-4.6,9.8-10c0-2.6-1.1-5.2-2.9-7
								c-1.9-1.8-4.4-2.8-7-2.8c-0.6,0-1.3,0.1-1.9,0.2C194,33,192.2,33.9,190.8,35.3z"/>
						</g>
					</g>
					<g>
						<g>
							<ellipse class="st6" cx="256.2" cy="233.1" rx="13" ry="13"/>
							<path class="st6" d="M257.4,249.2L257.4,249.2c-8.8,0.7-16.6-6-17.2-14.8c-0.7-8.8,6-16.6,14.8-17.2
								c8.8-0.7,16.6,6,17.2,14.8c0.6,8.2-5,15.4-12.9,17C258.8,249.1,258.1,249.2,257.4,249.2z M257.1,246.2L257.1,246.2
								L257.1,246.2z M246.3,233.9c0.2,2.6,1.4,5.1,3.4,6.8c2,1.7,4.6,2.5,7.2,2.3l0,0c5.5-0.4,9.5-5.2,9.1-10.6s-5.2-9.5-10.6-9.1
								c-0.4,0-0.8,0.1-1.2,0.2C249.4,224.4,245.9,228.9,246.3,233.9z"/>
						</g>
					</g>
					<g>
						<g>
							<ellipse class="st7" cx="276.8" cy="122.8" rx="18.2" ry="18.2"/>
							<path class="st7" d="M277.1,144L277.1,144c-5.7,0.1-11-2.1-15.1-6.1s-6.4-9.3-6.4-15c-0.1-11.7,9.3-21.4,21.1-21.5
								c5.7-0.1,11,2.1,15.1,6.1c4,3.9,6.4,9.3,6.4,15c0.1,10.3-7.3,19.1-17,21.1C279.8,143.8,278.5,144,277.1,144z M277.1,141
								L277.1,141L277.1,141z M266.2,112.1c-2.8,2.8-4.4,6.7-4.4,10.7c0,4,1.6,7.8,4.6,10.6c2.8,2.8,6.7,4.4,10.7,4.4
								s7.8-1.6,10.6-4.6c2.8-2.8,4.4-6.7,4.4-10.7c0-4-1.6-7.8-4.6-10.6c-2.8-2.8-6.7-4.4-10.7-4.4c-1,0-1.9,0.1-2.9,0.3
								C270.9,108.5,268.3,110,266.2,112.1z"/>
						</g>
					</g>
				</g>
			</g>
			<path class="st3" d="M198,146.9c13.6,19.6,20.4,40.3,20.2,61.6v1.7c-0.1,1.7,0,1.4-0.2,3.1c-0.1,1.1-0.3,2.3-0.4,3.3
				c-0.2,2.1-0.6,3.5-0.9,5.7c-0.1-0.1,0.1,0.4,0,0.3c-6.1,32.3-26.4,56.1-27.2,57"/>
			<g>
				<g>
					<path class="st8" d="M197.3,158.8c0,0,12.8,17.7,13.5,46.8"/>
					<path class="st8" d="M190.7,163.4c0,0,11,20.1,12.3,49.6"/>
					<path class="st8" d="M184.4,169.3c0,0,10.1,22.5,9.9,59.2"/>
					<path class="st8" d="M179.2,172c0,0,5.8,14.7,3.8,32.1"/>
				</g>
			</g>
			<g>
				<g>
					<path class="st8" d="M175.1,180.6c0,0-9.5,19.6-34.6,34.2"/>
					<path class="st8" d="M167.9,177c0,0-12.5,19.2-37.7,34.4"/>
					<path class="st8" d="M159.8,174.3c0,0-14.9,19.6-47.4,37.1"/>
					<path class="st8" d="M153.9,170c0,0-11.9,14.3-28.2,21"/>
				</g>
			</g>
			<g>
				<g>
					<path class="st8" d="M147.8,168.6c0,0-21.9,0.2-46.1-15.9"/>
					<path class="st8" d="M147.9,160.6c0,0-22.8-2.6-47.6-18.5"/>
					<path class="st8" d="M146.6,152.1c0,0-24.2-4.7-54.2-26"/>
					<path class="st8" d="M147.4,145.1c0,0-18.7-2.8-31.9-14.4"/>
				</g>
			</g>
			<g>
				<g>
					<g>
						<g>
							<path class="st2" d="M96.3,98.4c5.5-0.6,10.4,3.3,11,8.9c0.6,5.5-3.3,10.4-8.9,11c-5.5,0.6-10.4-3.3-11-8.9
								C86.7,103.9,90.8,99,96.3,98.4z M96.7,102.4c-3.2,0.3-5.6,3.2-5.3,6.6c0.3,3.2,3.2,5.6,6.6,5.3c3.2-0.3,5.6-3.2,5.3-6.6
								C102.8,104.4,99.9,102,96.7,102.4z"/>
						</g>
						<g>
							<path class="st2" d="M165.7,243.3c-3.2-4.5-2.1-10.7,2.3-14c4.5-3.2,10.7-2.1,14,2.3c3.2,4.5,2.1,10.7-2.3,14
								C175.2,248.9,169,247.9,165.7,243.3z M169.1,241c1.9,2.6,5.6,3.2,8.3,1.4c2.6-1.9,3.2-5.6,1.4-8.3c-1.9-2.6-5.6-3.2-8.3-1.4
								C167.7,234.6,167.1,238.4,169.1,241z"/>
						</g>
						<g>
							<path class="st2" d="M93.1,194.2c1.8-5.2,7.6-7.9,12.8-6.1c5.2,1.8,7.9,7.6,6.1,12.8c-1.8,5.2-7.6,7.9-12.8,6.1
								C94,205.2,91.3,199.4,93.1,194.2z M97,195.6c-1.1,3,0.5,6.5,3.6,7.6c3,1.1,6.5-0.5,7.6-3.6c1.1-3-0.5-6.5-3.6-7.6
								C101.4,190.9,98.1,192.5,97,195.6z"/>
						</g>
						<g>
							<path class="st2" d="M102.5,112.7c0.1,1,0.7,2,1.6,2.5l47.1,26.7c1.6,0.9,3.6,0.3,4.6-1.2c0.9-1.6,0.3-3.6-1.2-4.6l-47-26.7
								c-1.6-0.9-3.6-0.3-4.6,1.2C102.6,111.3,102.4,112,102.5,112.7z"/>
						</g>
						<g>
							<g>
								<path class="st2" d="M109.7,193.8c1,0.3,2.1,0.2,3-0.4l44.4-30.8c1.5-1,1.9-3.1,0.8-4.7c-1-1.5-3.1-1.9-4.7-0.8L108.9,188
									c-1.5,1-1.9,3.1-0.8,4.7C108.5,193.1,109.1,193.5,109.7,193.8z"/>
							</g>
						</g>
					</g>
					<g>
						<path class="st2" d="M176.1,231.3c0.8-0.6,1.4-1.6,1.4-2.7l0.2-54.1c0-1.8-1.5-3.3-3.3-3.3c-1.8,0-3.3,1.5-3.3,3.3l-0.2,54.1
							c0,1.8,1.5,3.3,3.3,3.3C174.9,232,175.6,231.7,176.1,231.3z"/>
					</g>
				</g>
			</g>
			<g>
				<g>
					<path class="st4" d="M173.2,178L173.2,178c-15.4-0.1-27.8-12.7-27.7-28c0-7.5,3-14.5,8.3-19.6c5.3-5.3,12.4-8.1,19.7-8
						c7.5,0,14.5,3,19.6,8.3c5.3,5.3,8.1,12.4,8,19.7c0,7.5-3,14.5-8.3,19.6c-4,3.9-9,6.6-14.5,7.6C176.8,177.9,175,178.1,173.2,178
						z M173.2,175L173.2,175L173.2,175z M151.6,150c-0.1,11.9,9.6,21.8,21.6,21.9c5.8,0,11.2-2.2,15.4-6.3c4.2-4,6.5-9.5,6.5-15.3
						s-2.2-11.2-6.3-15.4c-4-4.2-9.5-6.5-15.3-6.5c-1.4,0-2.8,0.1-4.2,0.4C159.3,130.7,151.7,139.5,151.6,150z"/>
					<ellipse class="st4" cx="173.4" cy="150.1" rx="24.8" ry="24.8"/>
				</g>
			</g>
			<g class="st9">
				<path class="st10" d="M71.3,232.3c0,0,23.3,5.1,53.9-5.8c0.2-0.1,0.4-0.2,0.6-0.4l0,0c2.7-2,0.8-7.6-2.2-6.2
					C106.9,228,54,229.7,71.3,232.3z"/>
				<path class="st10" d="M185.1,132.9c1.5,6.7,3.3,18.9,1.1,34c-0.4,2.6,2.8,4,4.6,2.1c4-4.4,8.5-11.3,8.3-20.9
					c-0.3-10-5.7-15.5-10-18.1C187.1,128.8,184.5,130.6,185.1,132.9z"/>
				<path class="st11" d="M285.8,111.5c1,4.4,2.2,12.6,0.7,22.6c-0.3,1.7,1.8,2.7,3,1.4c2.6-2.8,5.7-7.5,5.5-13.9
					c-0.2-6.7-3.7-10.2-6.6-12C287.1,108.8,285.5,109.9,285.8,111.5z"/>
				<path class="st11" d="M203.8,32.1c0.8,3.6,1.8,10.4,0.6,18.7c-0.2,1.4,1.5,2.2,2.5,1.2c2.2-2.3,4.7-6.3,4.6-11.4
					c-0.1-5.6-3.1-8.5-5.5-10C204.9,29.9,203.6,30.8,203.8,32.1z"/>
				<path class="st12" d="M262.1,223.7c0.8,3.6,1.8,10.4,0.6,18.7c-0.2,1.4,1.5,2.2,2.5,1.2c2.2-2.3,4.7-6.3,4.6-11.4
					c-0.1-5.6-3.1-8.5-5.5-10C263.2,221.4,261.8,222.4,262.1,223.7z"/>
				<path class="st10" d="M57.1,95.8c0,0,5.3,23.2,27.8,46.4c0.2,0.2,0.4,0.3,0.6,0.4c0,0,0,0,0.1,0c2.9,1.6,7.2-2.4,4.7-4.7
					C76.1,126.2,52.2,79,57.1,95.8z"/>
				<path class="st10" d="M186.9,280.6c0,0,16.9-16.7,24.5-48.2c0.1-0.2,0.1-0.5,0-0.7c0,0,0,0,0-0.1c-0.2-3.4-5.9-4.9-6.4-1.4
					C202.6,248.4,175.2,293.7,186.9,280.6z"/>
			</g>
		</g>
	</g>
</g>
</svg>
