<?xml version="1.0" encoding="utf-8"?>
<!-- Generator: Adobe Illustrator 27.7.0, SVG Export Plug-In . SVG Version: 6.00 Build 0)  -->
<svg version="1.1" xmlns="http://www.w3.org/2000/svg" xmlns:xlink="http://www.w3.org/1999/xlink" x="0px" y="0px"
	 viewBox="0 0 300 300" style="enable-background:new 0 0 300 300;" xml:space="preserve">
<style type="text/css">
	.st0{display:none;}
	.st1{display:inline;fill:#E247D7;}
	.st2{display:inline;}
	.st3{fill:#FBC304;}
	.st4{display:inline;fill:#FBC304;}
	.st5{fill:#FF8DA4;}
	.st6{fill:#F14E70;}
	.st7{fill:#54C654;}
	.st8{fill:#50AFEB;}
	.st9{fill:#AB67A9;}
	.st10{display:inline;fill:#FF8DA4;}
	.st11{fill:none;stroke:#FF6780;stroke-miterlimit:10;}
	.st12{fill:#008DD3;}
	.st13{fill:#FFD200;}
	.st14{fill:#EFC100;}
	.st15{fill:none;stroke:#ED9751;stroke-width:3;stroke-miterlimit:10;}
	.st16{fill:#ED9751;}
	.st17{opacity:0.21;fill:#515759;}
	.st18{fill:#D3AB05;}
	.st19{fill:#D34F6E;}
	.st20{fill:none;stroke:#515759;stroke-linecap:round;stroke-linejoin:round;stroke-miterlimit:10;}
	.st21{fill:#515759;}
	.st22{fill:#2D3F42;}
	.st23{opacity:0.2;fill:#FFFFFF;}
	.st24{opacity:0.31;fill:#FFFFFF;}
	.st25{fill:#FF8DA4;stroke:#FF8DA4;stroke-miterlimit:10;}
</style>
<g id="Camada_3" class="st0">
	<path class="st1" d="M-346.6,229.5l0.3-0.3c-0.2-2.3-0.4-4.6-0.5-6.9L-346.6,229.5z"/>
	<g class="st2">
		<g>
			<path class="st3" d="M-270,227.3c9.9,4.3,15.5,6,24.5,8.5c24.4,6.7,41.7,5.5,47.7-3.3c5.9-8.8,0.5-25.3-14.9-45.4
				c-16.3-21.2-41.7-44-71.5-64.1c-23.1-15.5-45-27-64.2-34.7c1.1-1.9,1.5-4.2,0.9-6.3c20.6,8.1,43.5,20.2,66.7,35.8
				c30.4,20.4,56.3,43.7,73,65.4c17.4,22.6,22.7,41.3,15.1,52.6c-3.4,5-9.1,8.2-16.8,9.6c-9.6,1.7-22.4,0.5-37.7-3.7
				c-8.8-2.4-15.8-4.8-25.4-8.9C-271.6,231-269.5,229.4-270,227.3z"/>
		</g>
	</g>
	<path class="st4" d="M-333.7,115.6c22-12.7,43.5-22.5,63.1-29.1c0,0.1,0,0.1,0,0.2c41.1-14.1,73.7-14.3,83.1,2.1
		c12.1,21-18.1,61.2-70.7,97c0,0,0.1,0,0.1,0.1c-2.3,1.6-4.6,3.1-6.9,4.6c-0.1-2.5-0.2-4.9-0.3-7.4c54.9-36.4,81.8-75,72.4-91.2
		c-5.1-8.9-21.5-11.7-44.9-7.6c-18.5,3.2-41.5,10.8-66.8,23.2l-0.2-0.2c-8.4,4.1-17.1,8.6-25.9,13.7c-5.4,3.1-10.6,6.3-15.6,9.5
		c-0.3-0.6-0.8-0.9-1.4-1.2c0.1,0,0.2,0.1,0.3,0.1c-0.9-0.4-1.8-1-2.6-1.6c-0.4-0.4-0.8-0.8-1.1-1.2c0-0.1-0.1-0.2-0.1-0.2
		C-345.6,122.7-339.8,119.1-333.7,115.6z"/>
	<g class="st2">
		<g>
			<g>
				<path class="st5" d="M-348.9,222c0.8,0.1,1.6,0,2.5-0.1c1.4-0.2,2.7-0.7,4-1.3c2.3,19.7,8.4,51,23.9,57.7l6.2-7.7
					c0.6-0.8,1.5-1.2,2.4-1.1c0.9,0.1,1.7,0.7,2.4,1.6l7.5,11.2c5.2-6.1,20.8-28.5,27-52.1c0.2-1.4,0.5-2.8,0.6-4.2
					c2.9-23-2.8-45.8-16.9-68c-1.1-1.8-0.8-4.4,0.7-6c0.8-0.8,1.8-1.2,2.8-1c0.8,0.1,1.5,0.6,2,1.4c13.6,21.3,19.9,43.4,18.9,65.8
					c0.1-0.2,0.2-0.3,0.2-0.3c-0.1,1.8-0.3,3.6-0.6,5.4c-0.1,1.1-0.6,1.9-0.8,3c-0.3,2.3-0.5,4.2-0.9,6.4c-0.1-0.1,0.1,0.5-0.1,0.3
					c-7.8,33.8-30.2,58.1-31.1,59c-1.3,1.3-3.3,0.9-4.5-0.8l-7.4-11l-5,6.3c-0.7,0.9-1.8,1.3-2.9,1
					C-338.6,281.2-346.1,244.7-348.9,222z"/>
			</g>
			<g>
				<polygon class="st5" points="-310,280.3 -307.5,183.8 -279.7,163.7 -267.6,196.4 -268,223 -280.2,254.8 -297.4,287.8 				"/>
			</g>
		</g>
	</g>
	<g class="st2">
		<g>
			<path class="st6" d="M-310,280.3l-5,6.3c-0.7,0.9-1.8,1.3-2.9,1c-20.7-6.3-28.3-42.9-31-65.5c0.8,0.1,1.6,0,2.5-0.1
				c1.4-0.2,2.7-0.7,4-1.3c2.3,19.7,8.4,51,23.9,57.7l6.2-7.7c0.6-0.8,1.5-1.2,2.4-1.1L-310,280.3z"/>
			<path class="st6" d="M-309.9,274.9l5.2-91.3l-13.7,14.2l-23.1,22.1l-1.8,14.4l13.8,37.3c0,0,9.4,6.1,10.7,8.6
				C-316.7,284.4-309.9,274.9-309.9,274.9z"/>
		</g>
	</g>
	<g class="st2">
		<g>
			<g>
				<path class="st5" d="M-387.6,157.7c0.4,0.7,0.9,1.4,1.4,2.1c0.9,1.1,2,2,3.2,2.7c-15.5,12.5-38.7,34.3-36,51l9.8,1.1
					c1,0.1,1.8,0.6,2.2,1.4c0.4,0.8,0.4,1.8-0.1,2.8l-5.5,12.4c7.9,1.2,35.2,2.3,58.5-5c1.3-0.5,2.6-1.1,3.9-1.7
					c21-9.8,37.2-26.8,48.4-50.6c0.9-1.9,3.3-3.1,5.4-2.6c1.2,0.3,2,0.9,2.3,1.8c0.3,0.7,0.3,1.6-0.1,2.5
					c-10.7,22.8-26,40-45.6,51.1c0.3,0,0.4,0,0.4,0c-1.6,0.9-3.2,1.6-4.9,2.4c-1,0.5-1.9,0.5-3,1c-2.1,1-3.8,1.8-5.9,2.6
					c0-0.1-0.4,0.3-0.3,0.1c-32.7,11.5-65.3,5.5-66.5,5.2c-1.8-0.4-2.6-2.3-1.7-4.2l5.4-12.1l-8-0.9c-1.2-0.1-2.1-0.8-2.4-1.9
					C-432.1,198-405.3,172.1-387.6,157.7z"/>
			</g>
			<g>
				<polygon class="st5" points="-416.1,221.7 -328.6,169.5 -301.4,185 -322.5,212.8 -345.2,226.6 -378.7,233.3 -415.7,236.4 				
					"/>
			</g>
		</g>
	</g>
	<g class="st2">
		<g>
			<path class="st6" d="M-416.1,221.7l-8-0.9c-1.2-0.1-2.1-0.8-2.4-1.9c-5.7-20.9,21.1-46.8,38.8-61.2c0.4,0.7,0.9,1.4,1.4,2.1
				c0.9,1.1,2,2,3.2,2.7c-15.5,12.5-38.7,34.3-36,51l9.8,1.1c1,0.1,1.8,0.6,2.2,1.4L-416.1,221.7z"/>
			<polygon class="st6" points="-416.1,221.7 -327.5,170 -333.4,141.4 -386,155 -395.6,168.4 -419.7,199.9 -419.2,212.6 			"/>
		</g>
	</g>
	<g class="st2">
		<g>
			<g>
				<path class="st5" d="M-343.8,89.1c-0.5,0.6,0.4,2.3,0,3.1c-0.6,1.2-0.2,2.5-0.5,3.9c-17.5-9.5-46.5-22.5-60.9-13.6l2.7,9.5
					c0.3,1,0.1,1.9-0.5,2.6c-0.6,0.7-1.5,1-2.7,1l-13.5-0.3c2,7.8,11.4,33.4,27.1,52.1c1,1,2,2,3.1,3c17.1,15.6,39.1,24.1,65.3,25.2
					c2.1,0.1,4.1,1.9,4.5,4c0.2,1.2-0.1,2.2-0.8,2.8c-0.6,0.6-1.4,0.9-2.3,0.8c-25.2-1.1-46.9-8.7-64.7-22.4
					c0.1,0.2,0.1,0.4,0.1,0.4c-1.4-1.2-2.8-2.4-4.1-3.6c-0.9-0.7-1.2-1.6-2-2.4c-1.7-1.5-3.2-2.8-4.7-4.4c0.2,0-0.4-0.2-0.3-0.2
					c-23.2-25.8-30.2-58.1-30.4-59.4c-0.3-1.8,1.1-3.2,3.2-3.2l13.3,0.3l-2.2-7.7c-0.3-1.1,0-2.2,0.8-2.9
					C-396,64.3-363.9,78.3-343.8,89.1z"/>
			</g>
			<g>
				<polygon class="st5" points="-402.9,94.5 -327.4,148 -332.9,176.9 -367.5,171.2 -389,155.6 -408,127.3 -425.1,94.3 				"/>
			</g>
		</g>
	</g>
	<g class="st2">
		<g>
			<path class="st6" d="M-411.7,88.3l-4.4-11.3c-0.3-1.1,0-2.2,0.8-2.9c17.1-13.3,51.3,1.5,71.4,12.3c-0.5,0.6-1,1.3-1.4,2.1
				c-0.6,1.2-1,2.6-1.2,4c-17.5-9.5-46.5-22.5-60.9-13.6l2.7,9.5c0.3,1,2.2,5.5,1.7,6.1L-411.7,88.3z"/>
			<polygon class="st6" points="-402.9,94.5 -336.3,142.2 -350.2,128.6 -346,92.9 -356.7,83.1 -395.2,73 -409.7,73.5 			"/>
		</g>
	</g>
	<path class="st4" d="M-348.9,88.5C-348.9,88.5-348.9,88.5-348.9,88.5c0.1-0.4,0.1-0.7,0.2-1.1c0.2-0.9,0.4-1.9,0.6-2.8
		c-0.1,0.3-0.1,0.5,0-0.2c8.7-39.7,24.1-65.6,41.8-65.6c9.4,0,18.3,7.3,25.8,20.8c0,0.1,0.1,0.1,0.1,0.2c0.3,0.5,0.5,1,0.8,1.5
		c0.2,0.3,0.3,0.6,0.5,1c0.1,0.3,0.3,0.5,0.4,0.8c0.3,0.5,0.5,1.1,0.8,1.6c0,0.1,0.1,0.2,0.1,0.3c0.6,1.3,1.3,2.7,1.9,4.1
		c0,0,0,0,0,0c0,0,0,0.1,0,0.1c1.5,3.6,3,7.5,4.4,11.7c2.2,6.7,4.6,15.8,6.2,23.5c0.3,1.5,0.1,0.7,0,0.2c0.3,1.4,0.6,2.8,0.8,4.2
		c-0.1,0-0.1,0-0.2,0c3.8,20.5,5.7,44.5,5.2,70.2c-0.4,21.6-1.2,38.8-4.6,57.5c-0.7,4-1.9,10.1-2.4,13.2c-0.1,0.8-1,4.7-1.2,5.2
		c-5-1.9-3.2-0.8-5.1-2.1c0,0-0.3-3-0.3-3c4.7-20.9,7-45.6,7.4-70.9c0.5-30.2-2.2-56.7-6.9-78c-1.5-6.3-3.2-13.1-4.9-18.2
		c-3.7-11.1-7.9-20.1-12.4-26.4c-5-7-10.5-10.8-15.8-10.9c-0.8,0-1.6,0.1-2.4,0.2c-9.8,1.7-19.7,15-27.5,37
		c-2.3,6.6-4.8,15.7-6.6,23.3c-0.3,1.4-0.6,2.9-0.9,4.3c0,0-0.1-0.1-0.1-0.1c-2.3,11.6-4.1,24.6-5.2,38.6c-1.9-0.9-4.1-1.1-6.2-0.7
		C-353.2,114-351.4,100.7-348.9,88.5z"/>
	<g class="st2">
		<g>
			<g>
				<g>
					
						<ellipse transform="matrix(0.4399 -0.8981 0.8981 0.4399 -200.2108 -224.6827)" class="st7" cx="-280.2" cy="48.2" rx="13" ry="13"/>
					<path class="st7" d="M-280.5,64.3c-4.3-0.1-8.3-1.8-11.3-4.9c-3-3.1-4.6-7.2-4.5-11.5c0.1-4.3,1.8-8.3,4.9-11.3
						c3.1-3,7.2-4.6,11.5-4.5c4.3,0.1,8.3,1.8,11.3,4.9c3,3.1,4.6,7.2,4.5,11.5c-0.1,7.9-5.9,14.3-13.4,15.6
						C-278.4,64.2-279.4,64.3-280.5,64.3z M-287.1,41c-1.9,1.8-3,4.3-3,7c0,2.7,0.9,5.2,2.8,7.1c1.8,1.9,4.3,3,7,3
						c5.5,0.1,10-4.3,10.1-9.8c0-2.7-0.9-5.2-2.8-7.1c-1.8-1.9-4.3-3-7-3c-0.6,0-1.3,0-1.9,0.1C-283.9,38.7-285.7,39.6-287.1,41z"/>
				</g>
			</g>
			<g>
				<g>
					
						<ellipse transform="matrix(0.7656 -0.6433 0.6433 0.7656 -208.4048 -89.3582)" class="st8" cx="-226.8" cy="241.3" rx="13" ry="13"/>
					<path class="st8" d="M-226.1,257.5L-226.1,257.5c-8.9,0.4-16.5-6.4-16.9-15.3c-0.4-8.9,6.5-16.5,15.3-16.9
						c8.9-0.4,16.5,6.4,16.9,15.3c0.4,8.2-5.4,15.3-13.3,16.7C-224.7,257.4-225.4,257.4-226.1,257.5z M-226.2,254.4L-226.2,254.4
						L-226.2,254.4z M-236.8,241.8c0.1,2.7,1.3,5.1,3.3,6.9c2,1.8,4.5,2.7,7.2,2.6l0,0c5.5-0.3,9.7-4.9,9.5-10.4
						c-0.3-5.5-4.9-9.7-10.4-9.5c-0.4,0-0.8,0.1-1.2,0.1C-233.4,232.4-237,236.8-236.8,241.8z"/>
				</g>
			</g>
			<g>
				<g>
					
						<ellipse transform="matrix(1.651782e-02 -0.9999 0.9999 1.651782e-02 -330.7574 -74.1858)" class="st9" cx="-203.1" cy="131" rx="18.3" ry="18.3"/>
					<path class="st9" d="M-203.5,152.4L-203.5,152.4c-5.7-0.1-11-2.4-15-6.5c-4-4.1-6.1-9.5-6-15.2c0.2-11.8,9.9-21.2,21.7-21
						c5.7,0.1,11,2.4,15,6.5c4,4.1,6.1,9.5,6,15.2c-0.2,10.4-7.8,19-17.7,20.7C-200.7,152.3-202.1,152.4-203.5,152.4z M-203.4,149.3
						L-203.4,149.3L-203.4,149.3z M-213.6,120.1c-2.9,2.8-4.6,6.6-4.6,10.7c-0.1,4.1,1.4,7.9,4.3,10.8c2.8,2.9,6.6,4.6,10.7,4.6
						c4,0.1,7.9-1.4,10.8-4.3c2.9-2.8,4.6-6.6,4.6-10.7c0.1-4.1-1.4-7.9-4.3-10.8c-2.8-2.9-6.6-4.6-10.7-4.6c-1,0-2,0.1-2.9,0.2
						C-208.7,116.6-211.4,118-213.6,120.1z"/>
				</g>
			</g>
		</g>
	</g>
	<path class="st10" d="M-282.9,153.1c13.1,20.1,19.4,41,18.7,62.3c0,0,0,1.7,0,1.7c-0.1,1.7,0,1.4-0.2,3.1c-0.1,1.1-0.3,2.3-0.4,3.4
		c-0.2,2.2-0.7,3.5-1.1,5.6c-0.1-0.1,0.1,0.4-0.1,0.3c-7,32.2-28,55.6-28.9,56.4"/>
	
		<image style="display:inline;overflow:visible;" width="266" height="245" xlink:href="A6C66F5D.jpg"  transform="matrix(1 0 0 1 -725.4749 25.9464)">
	</image>
	<g class="st2">
		<g>
			<path class="st11" d="M-284,165.1c0,0,12.3,18.1,12.3,47.3"/>
			<path class="st11" d="M-290.7,169.5c0,0,10.5,20.5,11,50.1"/>
			<path class="st11" d="M-297.2,175.3c0,0,9.5,22.8,8.4,59.8"/>
			<path class="st11" d="M-302.5,177.9c0,0,5.4,14.9,3,32.3"/>
		</g>
	</g>
	<g class="st2">
		<g>
			<path class="st11" d="M-306.8,186.4c0,0-10.1,19.5-35.7,33.4"/>
			<path class="st11" d="M-313.9,182.6c0,0-13,19-38.7,33.6"/>
			<path class="st11" d="M-322,179.7c0,0-15.5,19.3-48.5,35.9"/>
			<path class="st11" d="M-327.9,175.3c0,0-12.4,14-28.9,20.2"/>
		</g>
	</g>
	<g class="st2">
		<g>
			<path class="st11" d="M-333.9,173.7c0,0-21.9-0.4-45.8-17.2"/>
			<path class="st11" d="M-333.6,165.6c0,0-22.8-3.2-47.3-19.9"/>
			<path class="st11" d="M-334.6,157c0,0-24.1-5.4-53.7-27.6"/>
			<path class="st11" d="M-333.7,150.1c0,0-18.7-3.3-31.6-15.3"/>
		</g>
	</g>
	<g class="st2">
		<g>
			<g>
				<g>
					<path class="st3" d="M-383.8,101.7c5.5-0.4,10.4,3.7,10.8,9.2c0.4,5.5-3.7,10.4-9.2,10.8c-5.5,0.4-10.4-3.7-10.8-9.2
						C-393.4,107-389.3,102.2-383.8,101.7z M-383.5,105.8c-3.3,0.3-5.7,3.1-5.5,6.4s3.1,5.7,6.4,5.5c3.3-0.3,5.7-3.1,5.5-6.4
						C-377.3,108-380.2,105.5-383.5,105.8z"/>
				</g>
				<g>
					<path class="st3" d="M-317.9,249.1c-3.1-4.6-1.9-10.8,2.7-13.9c4.6-3.1,10.8-1.9,13.9,2.7c3.1,4.6,1.9,10.8-2.7,13.9
						C-308.6,254.9-314.8,253.7-317.9,249.1z M-314.5,246.9c1.8,2.7,5.5,3.4,8.3,1.6c2.7-1.8,3.4-5.5,1.6-8.3
						c-1.8-2.7-5.5-3.4-8.3-1.6C-315.6,240.4-316.4,244.1-314.5,246.9z"/>
				</g>
				<g>
					<path class="st3" d="M-389.4,197.9c2-5.2,7.8-7.7,13-5.8c5.2,2,7.7,7.8,5.8,13c-2,5.2-7.8,7.7-13,5.8
						C-388.8,208.8-391.4,203-389.4,197.9z M-385.6,199.3c-1.2,3.1,0.4,6.5,3.4,7.7c3.1,1.2,6.5-0.4,7.7-3.4
						c1.2-3.1-0.4-6.5-3.4-7.7C-381,194.7-384.4,196.3-385.6,199.3z"/>
				</g>
				<g>
					<path class="st3" d="M-377.8,116.3c0.1,1,0.6,2,1.6,2.6l46.5,28.1c1.6,1,3.6,0.4,4.6-1.1c0.9-1.6,0.4-3.6-1.1-4.6l-46.5-28.1
						c-1.6-1-3.6-0.4-4.6,1.1C-377.7,114.9-377.9,115.6-377.8,116.3z"/>
				</g>
				<g>
					<g>
						<path class="st3" d="M-372.8,197.9c1,0.4,2.1,0.3,3-0.3l45.4-29.7c1.5-1,2-3.1,1-4.6c-1-1.5-3.1-2-4.6-1l-45.4,29.7
							c-1.5,1-2,3.1-1,4.6C-374,197.2-373.4,197.6-372.8,197.9z"/>
					</g>
				</g>
			</g>
			<g>
				<path class="st3" d="M-307.1,237.3c0.9-0.6,1.4-1.6,1.5-2.7l1.6-54.2c0.1-1.8-1.4-3.4-3.2-3.4c-1.8,0-3.4,1.4-3.4,3.2l-1.6,54.2
					c-0.1,1.8,1.4,3.4,3.2,3.4C-308.4,237.9-307.7,237.7-307.1,237.3z"/>
			</g>
		</g>
	</g>
	<g class="st2">
		<g>
			<path class="st6" d="M-308.7,183.8L-308.7,183.8c-15.4-0.5-27.6-13.5-27.1-28.9c0.2-7.5,3.4-14.4,8.9-19.5
				c5.5-5.1,12.6-7.8,20.1-7.5c7.5,0.2,14.4,3.4,19.5,8.9c5.1,5.5,7.8,12.6,7.5,20.1c-0.2,7.5-3.4,14.4-8.9,19.5
				c-4.1,3.9-9.2,6.3-14.7,7.2C-305.1,183.8-306.9,183.9-308.7,183.8z M-308.6,180.7L-308.6,180.7L-308.6,180.7z M-329.5,155.1
				c-0.4,12,9,22.1,21.1,22.5c5.8,0.2,11.4-1.9,15.6-5.9c4.3-4,6.7-9.4,6.9-15.2c0.2-5.8-1.9-11.4-5.9-15.6c-4-4.3-9.4-6.7-15.2-6.9
				c-1.4,0-2.8,0-4.1,0.3C-321.3,135.9-329.2,144.5-329.5,155.1z"/>
			
				<ellipse transform="matrix(0.7901 -0.613 0.613 0.7901 -160.1164 -155.94)" class="st6" cx="-307.7" cy="155.8" rx="24.9" ry="24.9"/>
		</g>
	</g>
	
		<image style="display:inline;overflow:visible;" width="150" height="150" xlink:href="A6C66F5F.jpg"  transform="matrix(1 0 0 1 530.5248 326.9296)">
	</image>
	
		<image style="display:inline;overflow:visible;" width="150" height="150" xlink:href="A6C66F5A.jpg"  transform="matrix(1 0 0 1 -718.4092 326.9296)">
	</image>
	
		<image style="display:inline;overflow:visible;" width="150" height="150" xlink:href="A6C66F5B.jpg"  transform="matrix(1 0 0 1 -560.3237 326.9296)">
	</image>
	
		<image style="display:inline;overflow:visible;" width="150" height="150" xlink:href="A6C66F65.jpg"  transform="matrix(1 0 0 1 -90.3562 326.9296)">
	</image>
	
		<image style="display:inline;overflow:visible;" width="150" height="150" xlink:href="A6C66F67.jpg"  transform="matrix(1 0 0 1 -247.3694 326.9296)">
	</image>
	
		<image style="display:inline;overflow:visible;" width="150" height="150" xlink:href="A6C66F6A.jpg"  transform="matrix(1 0 0 1 -404.3827 326.9296)">
	</image>
	
		<image style="display:inline;overflow:visible;" width="150" height="150" xlink:href="A6C66F6B.jpg"  transform="matrix(1 0 0 1 64.8641 324.6464)">
	</image>
	
		<image style="display:inline;overflow:visible;" width="150" height="150" xlink:href="A6C66F6D.jpg"  transform="matrix(1 0 0 1 219.1879 324.6464)">
	</image>
	
		<image style="display:inline;overflow:visible;" width="150" height="150" xlink:href="1AAE1876.jpg"  transform="matrix(1.027 0 0 1.027 376.2964 322.52)">
	</image>
</g>
<g id="Camada_2">
	<path class="st12" d="M294.1,151c0.1,20.5-4.3,40-12,57.6c-21.8,49.2-70.9,83.5-128.2,83.7c-15.2,0.1-29.9-2.3-43.6-6.7
		c-25.8-8.2-48.4-23.8-65.3-44.2c-17.6-21.1-29.1-47.5-31.8-76.5c-0.4-4.2-0.6-8.4-0.6-12.7C12.4,104.4,36.1,62,72.4,36.5
		c4.8-3.4,9.7-6.4,14.8-9.1c7.3-3.9,14.8-7.1,22.8-9.7c7.5-2.4,15.2-4.2,23.2-5.3c6.4-0.9,12.9-1.4,19.5-1.5
		c25.9-0.1,50.1,6.8,71.1,18.9c3.8,2.1,7.4,4.5,10.9,7c16.8,11.9,30.8,27.3,41,45.4c1.2,2,2.2,4.1,3.3,6.2c0.9,1.8,1.7,3.6,2.6,5.4
		c2.7,6,4.9,12.1,6.8,18.4c2,7.1,3.6,14.4,4.5,21.7l0,0C293.7,139.6,294.1,145.3,294.1,151z"/>
</g>
<g id="Camada_4">
</g>
<g id="Camada_5">
	<g>
		<g>
			<g>
				<path class="st13" d="M231.9,27.3c0,0,20.7,27.1,17.1,42.8c0,0-22,1.9-59.3,70.7c0,0-21.3,49.5-125.6,59.8
					c-55.6,5.5-57,21.7-57,21.7s-13.3,30.6,31.8,45.4c50.3,16.4,173.3,17.3,223.6-59.3c45.4-69.1,34.7-129.5,15.8-138
					c0,0,3.8-45.6-8.2-60.1"/>
			</g>
			<path class="st14" d="M272.2,13.2c9.5,17,6.2,57.1,6.2,57.1c18.9,8.5,29.5,68.9-15.8,138c-25.3,38.5-69,57.5-112.5,64.6
				c-43.1,7.1-86,2.6-111.1-5.3c-5.4-1.7-9.9-3.8-13.8-5.9C25,261.6,14,256,9.5,247.4c-1-2,8.9,1.2,9.1,1.2
				c80.6,17.4,146.5-2.2,182.8-25.4c43-27.6,51.4-52.5,66.6-107.9c2.7-9.8,4.7-43.6-0.7-44.8c-1.1-17.4-2.5-30.6-5.4-42.7
				C261.9,27.8,274.1,21.4,272.2,13.2z"/>
			<path class="st15" d="M18.5,246.9c0,0,109.4,29.6,195.2-32.8c53.2-38.7,60.6-121.4,53.6-143.6c0.4-26.3-5.4-42.7-5.4-42.7"/>
			<path class="st16" d="M257.5,30.1c-11.2,3.7-20.2,4.9-25.6-2.8c-4.7-6.7,4.4-17,15.6-20.7s23.9-0.2,24.8,7.3
				C273.5,22.6,268.7,26.4,257.5,30.1z"/>
		</g>
		
			<ellipse transform="matrix(0.9993 -3.651943e-02 3.651943e-02 0.9993 -8.5343 0.692)" class="st16" cx="14.7" cy="234" rx="10.6" ry="17.3"/>
		<path class="st17" d="M25.2,233.6c0.3,9.6-4.1,17.5-9.9,17.7s-10.8-7.4-11.2-16.9c-0.2-5,2.5-4.4,5.1-2.6c2.8,1.9,6.6,1.8,9.4-0.2
			C21.7,229.5,25,228.4,25.2,233.6z"/>
	</g>
	<ellipse transform="matrix(0.8822 -0.4709 0.4709 0.8822 -76.9983 102.802)" class="st14" cx="167" cy="205.3" rx="11.5" ry="3"/>
	
		<ellipse transform="matrix(0.7684 -0.6399 0.6399 0.7684 -21.9827 193.6956)" class="st14" cx="256.6" cy="127.2" rx="9.1" ry="3"/>
	<path class="st14" d="M55,201.6c0,0-14.9,20,24.6,19c46.3-1.2,134.2-15.6,148.4-119.8c0,0,0.4-14.7-6.1-9.3c0,0-6.7,7.7-14.3,19.2
		c-6.2,9.3-13.3,20.6-19.3,32C174.9,168.3,129.2,192.5,55,201.6z"/>
	
		<ellipse transform="matrix(0.8968 -0.4425 0.4425 0.8968 -81.2672 72.6883)" class="st18" cx="115.1" cy="210.5" rx="11.5" ry="3"/>
</g>
<g id="Camada_6">
	<path class="st5" d="M166.9,106l-7.3,21.8c0,0.1-0.2,0.6-0.4,1.3c-2.8,3.2-4.4,4.9-3.5,5.4c0.5,0.3,3.9,2.2,4.4,2.7
		c4.6,4.6,21.3,0.2,24.9-5.3c2.8-4.2,4.6-9,5.2-14.2v0L166.9,106z"/>
	<path class="st5" d="M186.6,119.2l2.6-2.2l-22.3-11l-7.3,21.8c0,0.1-1.2,3-1.4,3.6"/>
	<path class="st5" d="M159.1,129.1C159.1,129.1,159.2,129.1,159.1,129.1c0.3-0.6,0.4-1.1,0.5-1.3
		C159.4,128.2,159.3,128.6,159.1,129.1z"/>
	<path class="st19" d="M141.9,150.9c-1.4-0.7-2.8-1.3-4.2-1.9l-6.6,4l-2.6,1.5l-6.2,3.7c-2.3,1.4-4.8,2.5-7.4,3.2
		c-0.7,0.2-1.5,0.4-2.2,0.5l-1.1,0.2l-17.8,3.3l-3.1,0.6L77,168.5l-3,0.5l-13,2.4c-1.1,0.2-2-0.2-2.5-0.9c-0.1,0.1-0.3,0.3-0.6,0.6
		c-0.4,0.4-0.9,0.9-1.4,1.6c-1.6,1.8-4,4.4-6.3,7.4c-0.7,0.8-1.3,1.7-1.9,2.5c-1.5,2-2.9,4.1-4,6c-1.4,2.6-2.2,4.8-1.7,6.3
		c1.1,1.9,8.1,1.9,16.5,1.2c1.9-0.2,3.9-0.4,5.8-0.6c3.5-0.4,7.1-0.9,10.5-1.4c1.8-0.3,3.5-0.5,5.1-0.8c2.2-0.3,4.2-0.7,6-1
		c3.9-0.7,7.6-2,11-4c0.1-0.1,0.2-0.1,0.4-0.2l3-1.8l9.8-5.9l3.3-2l12.4-7.5l3.4-2l11.9-7.2l3.4-2l6.9-4.2
		C149.7,154.5,146.1,152.9,141.9,150.9z"/>
	<path class="st5" d="M187.4,118.5c0,0-10.8,24.4-28.7,12.3"/>
	<path class="st5" d="M44.3,188.6c-2-0.7,2.4-3.9,4-6c0.6-0.8,1.3-1.7,1.9-2.5c2.3-2.9,4.7-5.6,6.3-7.4c0.6-0.7,1.1-1.2,1.4-1.6
		c0.3-0.3,0.5-0.6,0.6-0.6c0.6,0.7,1.5,1.1,2.5,0.9l13-2.4l3-0.5l13.5-2.5l3.1-0.6l17.8-3.3l1.1-0.2c0.8-0.1,1.5-0.3,2.2-0.5
		c2.6-0.7,5.1-1.8,7.4-3.2l6.2-3.7l2.6-1.5l6.6-4c1.4,0.6,2.8,1.3,4.2,1.9c1.1,0.5,2.2,1,3.2,1.5c1.9,0.9-52.3,32.2-56.7,33.2
		C73.2,189,49,190.3,44.3,188.6z"/>
	<g>
		<path class="st6" d="M193.1,82.7l-26.5,16c-1.7,1-2.5,2.8-2.4,4.5l-31.7,19.1c1,0.4,4.6,2.3,5.6,2.7c8.2,2.9,14.5,6.2,19.7,8.2
			c0.1-0.3,0.8-2.5,1.3-4c0,0,0,0-0.1,0c0.2-0.4,0.3-0.8,0.5-1.3l7-20.7c0,0,0.1,0.1,0.1,0.1l18.5,10.7c1.5,0.9,3.5,0.9,5,0
			l17.6-10.6L193.1,82.7z"/>
		<path class="st6" d="M109.8,136L109.8,136l-50.7,30.5c-1.6,1-1.6,2.9-0.7,4.1c0.6,0.7,1.5,1.1,2.5,0.9l13-2.4l3-0.5l13.5-2.5
			l3.1-0.6l17.8-3.3l1.1-0.2c0.8-0.1,1.5-0.3,2.2-0.5c2.6-0.7,5.1-1.8,7.4-3.2l6.2-3.7l2.6-1.5l6.1-3.7c1.4,0.6,3.1,1.3,4.5,2
			c4.2,1.9,7.5,3.6,9.7,4.6l3.1-1.9c-4.3-2.1-22.6-10.3-42.1-19.6L109.8,136z"/>
	</g>
	<polyline class="st20" points="162.3,45 207,82.8 184.3,28.9 	"/>
	<g>
		<path class="st21" d="M235.3,103.8L210,120.2c-3.6,2.2-7-3-3.5-5.4c0.5-0.3,26.8-13.3,27.3-13.6
			C235.5,100.4,236.9,102.8,235.3,103.8L235.3,103.8z"/>
	</g>
	<g>
		<path class="st21" d="M260.2,124.6l-6,5.4c-0.7,0.6-1.7,0.5-2.2-0.2c0,0-19.1-24.5-19.1-24.5c-0.9-1.1-0.7-2.7,0.4-3.5
			c1.1-0.9,2.8-0.6,3.6,0.6c0,0,17.5,25.7,17.5,25.7l-2.2-0.2l6-5.4C259.7,121,261.6,123.2,260.2,124.6L260.2,124.6z"/>
	</g>
	<path class="st5" d="M193.1,82.7l14.6,25.5c1.5,2.5,6.1,0.6,6.4-2.3l3.2-26.3c0.9-7.3-6.8-12.5-13.3-8.9l-8.5,4.7
		C192.7,76.9,191.4,80.1,193.1,82.7z"/>
	<path class="st5" d="M193.4,115.5l9,7.2c1.4,1.2,3.1,1.4,4.3,0.7v0c1.6-1,2-3.4,0.9-5.7l-3.8-8"/>
	<g>
		<circle class="st22" cx="205.3" cy="83.3" r="3.3"/>
	</g>
	<ellipse transform="matrix(0.986 -0.1668 0.1668 0.986 0.8433 41.9378)" class="st23" cx="250.1" cy="15.9" rx="13.5" ry="7.8"/>
	<ellipse transform="matrix(0.8081 -0.589 0.589 0.8081 -3.0198 160.2239)" class="st24" cx="244.4" cy="84.7" rx="16.4" ry="7.8"/>
	<ellipse transform="matrix(0.9868 -0.1619 0.1619 0.9868 -34.402 8.7722)" class="st24" cx="36.6" cy="215.5" rx="12.9" ry="7.8"/>
	<path class="st23" d="M188.7,87.5l-19.7,12.3c-1,0.6-1,2.1,0,2.8l5.3,3.2c0.9,0.5,2.1,0.3,2.7-0.5L190.1,89
		c0.3-0.3,0.3-0.8,0.1-1.1l0,0C190,87.3,189.3,87.2,188.7,87.5z"/>
	<path class="st23" d="M205.9,71.5l-11.3,6.6c-0.6,0.3-0.9,1.2-0.6,2.1l1.7,2.7c0.5,0.9,1.3,0.3,1.7-0.1l9.5-10.3
		c0.2-0.2,0.2-0.6,0-0.8l0,0C206.8,71.3,206.2,71.3,205.9,71.5z"/>
	<path class="st23" d="M141,120.6l21.2-13.2c0.4-0.3,1-0.2,1.4,0.2v0c0.4,0.4,0.4,1,0.1,1.4l-10.9,16.4c-0.5,0.7-1.3,1-2.1,0.7
		l-9.6-3.5C140.3,122.2,140.2,121,141,120.6z"/>
	<path class="st23" d="M80.8,156.5l-18.9,11.2c-0.6,0.4-0.2,1.3,0.5,1.2l22.9-5c0.9-0.2,1.3-1.3,0.8-2l-3.5-4.9
		C82.1,156.3,81.4,156.1,80.8,156.5z"/>
	<path class="st23" d="M97.1,146.1l14-8.3c0.3-0.2,0.7-0.2,1-0.1l7.8,3.2c0.9,0.4,0.9,1.6,0.1,2l-19.3,9.9c-0.5,0.3-1.2,0.1-1.5-0.5
		l-2.5-4.8C96.4,147.1,96.6,146.4,97.1,146.1z"/>
	<g>
		<path class="st21" d="M66.6,102.9c3.1,0.7,4.3,2.7,5.7,5.1c1.2,2.1,2.5,4.1,3.7,6.2c7.5,12.4,14.1,25.2,20.6,38.1
			c8.7,17.2,17.1,34.6,24.6,52.4c0.4,0.7,0.2,1.6-0.5,2c0,0-11.7,7-11.7,7c-1.7,1-3.2-1.5-1.5-2.6c0,0,11.7-7,11.7-7
			c0,0-0.5,2-0.5,2c-5.7-7.9-11-15.9-16.3-24c-13-20.3-25.9-40.7-37.1-62c-1.1-2.1-2.2-4.3-3.3-6.4c-0.4-0.8-1.3-2.3-1.5-3.3
			C59.5,106.7,62.1,101.9,66.6,102.9L66.6,102.9z"/>
	</g>
	<path class="st25" d="M172.4,143.7c-0.3-3.6-2.4-7-5.8-8.9c-2-1.1-16.2-6.5-33.8-12.6c-31.3-10.9-72.2-25.2-71.8-17.7
		c0.4,6.6,24.1,16.9,51.5,29.9c19.7,9.4,38.1,17.6,42.4,19.8c0.3,0.2,0.6,0.3,0.7,0.4c5.5,3,12.3,1,15.4-4.4
		C172.1,148.1,172.5,145.8,172.4,143.7z"/>
	<g>
		<path class="st21" d="M136.9,145.6c12.8,17.4,24.7,35.6,35.3,54.5c0.4,0.6,0.2,1.5-0.4,1.9c0,0-10.1,6.3-10.1,6.3
			c-0.7,0.4-1.6,0.2-2.1-0.5c-0.4-0.7-0.2-1.7,0.5-2.1c0,0,10.3-6,10.3-6l-0.4,1.9c-6.9-8.4-13.2-17.1-19.5-26
			c-6.2-8.9-12.3-17.8-17.9-27.1C130.9,145.7,134.9,143,136.9,145.6L136.9,145.6z"/>
	</g>
	<g>
		<path class="st21" d="M180.2,131.8c-11.1,4.9-22.6,8.8-34.2,12.5c-3.9,1.2-7.7,2.4-11.7,3.5c-0.8,0.2-1.6-0.2-1.9-1.1
			c-0.2-0.7,0.1-1.4,0.7-1.7c3.5-2.1,7-4.1,10.6-6c7.1-3.9,14.3-7.6,21.6-11.2c3.6-1.8,7.3-3.4,11-5
			C182.3,120.6,186,129.1,180.2,131.8L180.2,131.8z"/>
	</g>
	<path class="st23" d="M91.8,110l-16.5-4.6c-3.9-1-10.4-2-11.5-1.1c-0.5,0.4-0.5,1.1-0.2,1.6c0,0,0.1,0.1,0.1,0.2
		c0.6,0.7,2.3,2.5,6.7,5l2.2,1.2c3.6,1.6,6.3,2.3,9.7,2.2c2.9-0.1,5.8-0.8,8.6-2l0,0C93,111.4,92.6,110.2,91.8,110z"/>
</g>
</svg>
