<svg version="1" xmlns="http://www.w3.org/2000/svg" viewBox="0 0 300 300"><path fill="#9C25D3" d="M295.16 154.278c.309 80.167-64.432 145.411-144.599 145.721-45.135.174-85.537-20.264-112.276-52.48-18.126-21.812-29.98-49.015-32.796-78.86a146.26 146.26 0 0 1-.648-13.258C4.53 75.234 69.271 9.989 149.439 9.68c54.28-.213 101.718 29.409 126.792 73.441a143.852 143.852 0 0 1 13.141 31.006 143.929 143.929 0 0 1 4.645 22.413s.009.01 0 .01a144.83 144.83 0 0 1 1.143 17.728z"/><path fill="#E0E0E0" d="M253.395 259.554L233.5 82.407l16.084-44.191c5.974 1.981 9.31 2.947 11.023 3.403.959.255 1.66.295 1.826.109.703-.784 2.717-3.291 4.384-7.871 1.68-4.617 1.705-7.672 1.659-8.633-.011-.223-.462-.582-1.215-.961-2.744-1.381-11.03-5.184-32.74-13.086S204.02.864 201.03.158c-.82-.194-1.396-.209-1.548-.044-.654.705-2.599 3.062-4.279 7.679-1.667 4.58-1.734 7.796-1.701 8.848.008.249.57.668 1.47 1.09 1.605.751 4.78 2.155 10.626 4.476L190.095 64.8 59.658 188.979c-4.604 4.382-3.816 11.954 1.613 15.259 12.205 7.427 37.799 20.573 88.782 39.13 50.594 18.415 78.289 24.722 92.264 26.834 6.301.951 11.789-4.316 11.078-10.648z"/><path fill="#EAEAEA" d="M253.394 259.554L233.499 82.408l18.88-51.873-43.986-16.01L190.095 64.8 59.659 188.979c-4.604 4.382-3.819 11.954 1.612 15.259 12.206 7.426 37.801 20.573 88.782 39.129 50.594 18.415 78.29 24.724 92.265 26.834 6.299.953 11.788-4.316 11.076-10.647"/><path fill="#D34F6E" d="M153.363 234.274c-37.302-13.577-67.953-29.309-80.276-35.941-2.9-1.562-3.429-5.496-1.044-7.766l59.986-57.113 11.638-.61 22.353 1.185 36.163 6.519 27.49-5.517 13.227 117.77c.366 3.269-2.561 5.945-5.784 5.279-13.58-2.8-46.719-10.326-83.753-23.806"/><path fill="#F9677F" d="M132.027 133.455s32.615-4.368 53.377 3.189c16.597 6.041 44.268-1.606 44.268-1.606s-19.277 16.652-50.346 5.343c-24.553-8.937-47.299-6.926-47.299-6.926"/><path fill="#EEBC2F" d="M141.465 132.586c-5.378.346-8.984.808-9.395.861l-.043.005-7.672 7.306 7.671-7.304 2.741-.144-.138.005-2.477.132c.056-.006.131-.013.225-.02-.231.016-.351.027-.351.027s3.716-.498 9.438-.866l.001-.002m60.96 6.365c-5.966.094-11.997-.483-17.017-2.311-5.941-2.162-12.854-3.348-19.695-3.94l-.002.003c6.84.591 13.752 1.778 19.693 3.94l.107.038.04.014.071.025.043.016.073.026.033.012.082.028.033.012.11.038.009.003.1.034a.448.448 0 0 0 .034.011l.083.028.032.011.078.025.037.012.101.033.009.003.119.038.003.001.109.034.026.008.095.029a33.334 33.334 0 0 0 .499.15l.005.001c4.585 1.328 9.837 1.759 15.046 1.687h.038l.006-.009"/><path fill="#E99D16" d="M143.506 155.647a2.206 2.206 0 1 1 1.51-4.146 2.206 2.206 0 0 1-1.51 4.146m54.145-11.406a6.963 6.963 0 0 1-.14-.008c-5.33-.237-11.227-1.377-17.636-3.655l-.2-.071c-.028-.01-.056-.021-.085-.03a27.713 27.713 0 0 0-.263-.095c-5.291-1.926-10.495-3.343-15.408-4.381-2.959 4.908-6.853 8.81-12.951 10.381-1.857.479-3.439.434-4.753-.044-1.288-.469-2.317-1.354-3.095-2.573a3.42 3.42 0 0 1-1.782-6.35 27.43 27.43 0 0 1 .058-4.102 107.659 107.659 0 0 0-6.627-.002l-2.741.144-7.671 7.304-39.744 37.846a143.59 143.59 0 0 0 4.019 1.633c17.933 1.715 35.229-6.018 42.029-11.311 3.398-2.65 7.797-5.311 12.765-7.654a4.136 4.136 0 0 1 6.965-2.923c8.16-3.017 17.175-4.964 25.527-4.689 8.542.28 16.155-4.152 21.733-9.42"/><path fill="#F1A119" d="M179.591 140.477a27.713 27.713 0 0 0-.263-.095c-5.291-1.926-10.495-3.343-15.408-4.381 4.913 1.038 10.118 2.456 15.408 4.381l.263.095m.285.101l-.2-.071.2.071m17.777 3.661l-.141-.006.14.008.001-.002m-12.101-7.542a.634.634 0 0 0-.04-.014l.04.014m.113.04l-.043-.016.043.016m.106.037l-.033-.012.033.012m.115.04l-.033-.012.033.012m.12.041l-.009-.003.009.003m.249.083l-.032-.011.032.011m.115.037l-.037-.012.037.012m.11.036l-.009-.003.009.003m.122.039l-.003-.001.003.001m.135.042a.258.258 0 0 0-.026-.008l.026.008m.598.18l-.005-.001.005.001m13.95 3.104l-.011.014.011-.014m.148-.178l-.135.163.135-.163m.986-1.239h-.038.038"/><path fill="#D9D9D9" d="M252.38 30.535l-43.986-16.01-4.452 12.232c5.13 2.03 12.201 4.728 21.904 8.259 9.703 3.532 16.846 6.007 22.082 7.75l4.452-12.231"/><path fill="#E0E0E0" d="M227.498 30.472c21.087 7.675 29.914 10.297 33.108 11.147.959.255 1.66.295 1.826.109.703-.784 2.718-3.291 4.384-7.871 1.68-4.617 1.705-7.672 1.659-8.633-.011-.223-.462-.582-1.215-.961-2.744-1.381-11.03-5.184-32.74-13.086S204.02.864 201.029.158c-.82-.194-1.396-.209-1.548-.044-.654.705-2.599 3.062-4.279 7.679-1.667 4.58-1.734 7.796-1.701 8.848.008.249.57.668 1.47 1.09 2.994 1.4 11.44 5.066 32.527 12.741z"/><path fill="#EAEAEA" d="M255.077 28.981l-.076.173c-1.577 3.539-5.255 5.685-9.104 5.237-4.985-.579-13.252-2.298-26.382-6.856l-.073-.027c-1.27-.442-2.583-.91-3.947-1.407-5.065-1.844-9.381-3.568-13.063-5.166l-.045-.016c-3.498-1.511-6.422-2.903-8.845-4.167l-.036-.055c-.033-.981-.009-4.231 1.694-8.909 1.681-4.62 3.628-6.97 4.287-7.677.142-.164.724-.149 1.539.045 2.996.709 11.79 3.117 33.496 11.018a778.654 778.654 0 0 1 15.638 5.861c4.749 1.847 6.988 7.29 4.917 11.946z"/><path fill="#FAB519" d="M134.747 133.309a50.445 50.445 0 0 0-2.368.118 64.648 64.648 0 0 1 2.252-.112l.116-.006m66.527 7.081a44.943 44.943 0 0 1-3.621 3.849l.023.001c1.38-1.274 2.701-2.774 3.598-3.85m.024-.029a.2.2 0 0 1-.013.015l.013-.015m1.126-1.402h-.005c-.315.411-.644.825-.985 1.239.613-.743.99-1.239.99-1.239"/><path fill="#F8C609" d="M185.512 136.682l-.107-.038c-5.941-2.162-12.853-3.349-19.693-3.94 6.84.591 13.752 1.778 19.693 3.94l.107.038m.11.039l-.071-.025.071.025m.116.042l-.073-.026.073.026m.115.04l-.082-.028.082.028m.144.049l-.11-.038.11.038m.109.036l-.1-.034.1.034m.117.039l-.083-.028c.027.01.056.02.083.028m.11.036l-.078-.025.078.025m.138.045l-.101-.033.101.033m.128.041l-.119-.038.119.038m.112.035l-.109-.034.109.034m.121.037l-.095-.029.095.029m.498.15c-.16-.047-.319-.094-.478-.143l.478.143m15.051 1.688c-5.209.072-10.461-.36-15.046-1.687 4.585 1.328 9.836 1.76 15.046 1.687"/><path fill="#F7C004" d="M179.676 140.507l-.085-.03.085.03m17.836 3.726c-5.326-.294-11.227-1.38-17.636-3.655 6.408 2.279 12.306 3.419 17.636 3.655"/><path fill="#F8C105" d="M141.465 132.588c-5.721.369-9.438.866-9.438.866s.12-.011.351-.027a50.445 50.445 0 0 1 2.368-.118l-.116.006a107.26 107.26 0 0 1 6.764-.003c.022-.239.045-.48.071-.724m60.954 6.371h-.038c-5.21.073-10.461-.359-15.046-1.687l-.005-.001c-.16-.047-.319-.094-.478-.143l-.021-.007-.095-.029-.026-.008a4.552 4.552 0 0 1-.109-.034l-.003-.001-.119-.038-.009-.003-.101-.033-.037-.012-.078-.025-.032-.011-.083-.028a3.928 3.928 0 0 1-.134-.045l-.009-.003a4.777 4.777 0 0 1-.11-.038l-.033-.012a2.645 2.645 0 0 0-.082-.028l-.033-.012-.073-.026-.043-.016-.071-.025a.634.634 0 0 0-.04-.014l-.107-.038c-5.941-2.162-12.853-3.349-19.693-3.94a45.092 45.092 0 0 1-1.793 3.296c4.913 1.038 10.118 2.456 15.408 4.381l.263.095.085.03.2.071c6.409 2.275 12.31 3.361 17.636 3.655l.141.006a44.943 44.943 0 0 0 3.621-3.849l.011-.014.013-.015.135-.163c.344-.411.673-.825.988-1.236"/><path fill="#3BA6DB" d="M132.154 133.447c.31-.031 1.209-.096 2.593-.137l-2.593.137z"/><path fill="#F5F5F5" d="M190.651 86.161c-12.938-4.709-37.358 15.794-44.53 30.806-2.577 5.393-4.15 10.865-4.655 15.619 6.379-.412 15.251-.663 24.248.115 3.639-7.35 5.994-16.098 10.482-22.676 7.566-11.086 21.316-21.367 14.455-23.864"/><path fill="#F7DE97" d="M165.713 132.701c-8.997-.777-17.869-.526-24.248-.115v.002c6.379-.411 15.251-.662 24.247.116l.001-.003"/><path fill="#F4CE8B" d="M163.919 136a128.453 128.453 0 0 0-22.523-2.688 27.432 27.432 0 0 0-.058 4.102 3.416 3.416 0 1 1 1.782 6.35c.778 1.219 1.808 2.105 3.095 2.573 1.314.478 2.896.522 4.753.044 6.098-1.571 9.992-5.472 12.951-10.381"/><path fill="#FCE082" d="M165.712 132.704c-8.996-.778-17.868-.527-24.247-.116-.026.244-.049.484-.07.724 5.727.169 13.647.81 22.523 2.688a45.484 45.484 0 0 0 1.794-3.296"/><path fill="#F5F5F5" d="M209.922 32.156a2.418 2.418 0 0 0-3.101 1.446l-8.44 23.189a2.419 2.419 0 1 0 4.546 1.654l8.44-23.189a2.42 2.42 0 0 0-1.445-3.1"/><path fill="#BD4763" d="M150.39 158.349a87.463 87.463 0 0 0-6.965 2.923 4.138 4.138 0 0 0 8.024 1.511 4.139 4.139 0 0 0-1.059-4.434"/><path fill="#D18D14" d="M148.976 157.481a4.138 4.138 0 0 0-5.551 3.791 87.463 87.463 0 0 1 6.965-2.923 4.122 4.122 0 0 0-1.414-.868m-3.961-5.98a2.206 2.206 0 1 0-1.508 4.147 2.206 2.206 0 0 0 1.508-4.147m-3.678-14.086a3.42 3.42 0 0 0 1.782 6.35c-1.023-1.604-1.613-3.784-1.782-6.35"/><path fill="#DBB97D" d="M144.261 137.136a3.412 3.412 0 0 0-2.924.278c.169 2.566.758 4.746 1.782 6.349a3.416 3.416 0 0 0 1.142-6.627"/><path fill="#BD4763" d="M142.448 188.182a4.368 4.368 0 0 0-5.242 1.863c2.506.067 5.003.068 7.499.004a4.353 4.353 0 0 0-2.257-1.867m-4.238-15.675a6.41 6.41 0 1 0-4.384 12.047 6.41 6.41 0 1 0 4.384-12.047"/><path fill="#EAEAEA" d="M75.179 174.201l-15.521 14.778 15.521-14.778c.001.001.001 0 0 0m166.05-22.972l12.165 108.325-12.165-108.325"/><path fill="#D7D7D7" d="M241.229 151.229a154.406 154.406 0 0 1-8.907 7.402l10.577 94.169c.366 3.269-2.561 5.945-5.784 5.279-13.578-2.8-46.717-10.326-83.752-23.805-37.302-13.577-67.953-29.309-80.276-35.941-2.9-1.562-3.429-5.496-1.044-7.766l12.566-11.965a146.086 146.086 0 0 1-9.428-4.401l-15.522 14.777a9.633 9.633 0 0 0-2.431 3.704c-1.505 4.147-.051 9.064 4.043 11.556 12.206 7.426 37.801 20.573 88.782 39.129 50.594 18.415 78.29 24.724 92.265 26.834 4.749.718 9.038-2.1 10.556-6.243a9.618 9.618 0 0 0 .52-4.404l-12.165-108.325"/><path fill="#C24865" d="M182.668 231.393a3.19 3.19 0 1 1 2.184-5.996 3.19 3.19 0 0 1-2.184 5.996m-54.496-21.934a3.205 3.205 0 1 1 2.192-6.024 3.205 3.205 0 0 1-2.192 6.024m66.75 12.751a6.82 6.82 0 1 1 4.668-12.819 6.82 6.82 0 0 1-4.668 12.819m4.178-19.85a2.863 2.863 0 1 1 1.958-5.382 2.863 2.863 0 0 1-1.958 5.382m-14.448-8.979a4.513 4.513 0 1 1 3.088-8.482 4.513 4.513 0 0 1-3.088 8.482m47.67-34.749c-25.229 19.418-55.921 30.613-87.617 31.417a4.354 4.354 0 0 1 .353 3.727 4.366 4.366 0 1 1-7.852-3.732c-15.218-.404-30.587-3.223-45.618-8.694-.992-.361-1.978-.732-2.957-1.113a49.85 49.85 0 0 1-4.972-.725l.954-.908-.004-.002-12.566 11.965c-2.385 2.27-1.855 6.204 1.044 7.766 12.324 6.632 42.974 22.364 80.276 35.941 37.035 13.48 70.174 21.005 83.752 23.805 3.223.667 6.15-2.009 5.784-5.279l-10.577-94.168"/><path fill="#D69014" d="M84.613 178.605l-.954.908c1.657.329 3.318.567 4.972.725a146.635 146.635 0 0 1-4.018-1.633"/><path fill="#AD415B" d="M184.85 225.398a3.191 3.191 0 1 0-2.18 5.999 3.191 3.191 0 0 0 2.18-5.999m2.889-40.499a4.512 4.512 0 1 0-3.088 8.48 4.512 4.512 0 0 0 3.088-8.48m11.849 24.492a6.82 6.82 0 0 0-4.666 12.819 6.82 6.82 0 1 0 4.666-12.819m1.471-12.413a2.863 2.863 0 1 0-1.96 5.38 2.863 2.863 0 0 0 1.96-5.38m-70.695 6.459a3.204 3.204 0 1 0-2.192 6.023 3.205 3.205 0 1 0 2.192-6.023m14.341-13.388c-2.496.063-4.992.063-7.499-.004a4.368 4.368 0 0 0 2.256 6.341 4.367 4.367 0 0 0 5.596-2.609 4.36 4.36 0 0 0-.353-3.728"/></svg>