<?xml version="1.0" encoding="utf-8"?>
<!-- Generator: Adobe Illustrator 26.5.0, SVG Export Plug-In . SVG Version: 6.00 Build 0)  -->
<svg version="1.1" xmlns="http://www.w3.org/2000/svg" xmlns:xlink="http://www.w3.org/1999/xlink" x="0px" y="0px"
	 viewBox="0 0 300 300" style="enable-background:new 0 0 300 300;" xml:space="preserve">
<style type="text/css">
	.st0{display:none;}
	.st1{display:inline;fill:#E56060;}
	.st2{display:inline;}
	.st3{fill:#FF6B6B;}
	.st4{fill:#00BF5F;}
	.st5{fill:#AB67A9;}
	.st6{fill:#ED9751;}
	.st7{display:inline;fill:#ED9751;}
	.st8{display:inline;fill:#D2D2D2;}
	.st9{display:inline;fill:#CF524B;}
	.st10{display:inline;fill:#E445C8;}
	.st11{fill:#008DD3;}
	.st12{fill:#EF3030;}
	.st13{fill:#D12C2C;}
	.st14{fill:#FF4D4D;}
	.st15{fill:#E32E2E;}
	.st16{fill:#1F9959;}
	.st17{fill:#65AA82;}
	.st18{fill:#86D18F;}
	.st19{fill:#4B5459;}
	.st20{fill:none;stroke:#4B5459;stroke-miterlimit:10;}
	.st21{fill:none;stroke:#145616;stroke-miterlimit:10;}
	.st22{fill:#EAEAEA;stroke:#515759;stroke-width:6;stroke-miterlimit:10;}
	.st23{opacity:0.32;fill:#FFFFFF;}
</style>
<g id="Camada_2">
</g>
<g id="Camada_8">
</g>
<g id="Camada_11">
</g>
<g id="Camada_6" class="st0">
	<path class="st1" d="M255.3,84.8c48,32.1,35,87.4,35,87.4s-3.6,20.1-22.1,51.8c-13.9,24-48,38.9-48,38.9s-50.4,15.8-73,0
		c-16-11.3-31.7-14.9-31.7-14.9s-25.4-12-39.4-59.5s11-112.8,59.9-127.2C185,47,230.8,71,230.8,71L255.3,84.8z"/>
	<path class="st1" d="M184.3,96.8"/>
	<path class="st1" d="M192.6,100c-24.1,0-48.2,0-72.4,0"/>
</g>
<g id="Camada_14">
</g>
<g id="Camada_10" class="st0">
	
		<image style="display:inline;overflow:visible;" width="266" height="245" xlink:href="24B1E909.jpg"  transform="matrix(1 0 0 1 392.2477 14.2819)">
	</image>
	<g class="st2">
		<path class="st3" d="M689.9-245.8c0,0-31.6-21.9-62.1,18c-30.6,39.9-22.5,117.1-22.5,117.1l16.1,16.2l0,0
			C621.4-94.5,607.2-224.5,689.9-245.8z"/>
		<path class="st3" d="M731.2-230.1c0,0,32.9,12.4-66,156.6c0,0,19.6,5.9,35.8-0.1c0,0,97.4-136.4,53.1-153.5L731.2-230.1z"/>
		<path class="st3" d="M700.9-238.1c0,0,6,3.2,12,4.6c0,0,10.9,33.6-62.8,151.1l-11.9-6.1C638.1-88.6,658.8-210,700.9-238.1z"/>
		<path class="st3" d="M740.4-269.2c16.7,8.5,23.7,17,23.7,17c-29.6-0.6-32.9,22.1-32.9,22.1c-4-0.5-17.5-2.6-20.7-3.5
			C710.5-233.6,736.8-268.5,740.4-269.2z"/>
		<path class="st3" d="M698.5-238.1c-7.6-3.8-11-7.7-11-7.7c9.7-21.8-8.3-38.9-8.3-38.9c11.4,0.8,21.5,2.5,30.3,4.5
			C708.2-272.6,710.7-250.1,698.5-238.1z"/>
		<path class="st3" d="M724.4-77.9c0,0,102.9-114.9,47.1-153.6l-28.1,2.9c0,0,1.6-13.7,3-13c1.4,0.7,29.7-3.2,29.7-3.2
			s33.9,28.2,17.2,87.6S724.4-77.9,724.4-77.9z"/>
		<path class="st3" d="M674.4-258.1c0,0,0.1-0.7,0-1.9c-0.5-4.9-4.6-17.6-32.2-19.2c0,0-40.8,6-58.8,76.7c0,0-8,34.8,5.8,61.7
			c0,0-14.8-82.9,38.6-111.3C658.8-269.1,674.4-258.1,674.4-258.1z"/>
	</g>
	<g class="st2">
		<g>
			<path class="st4" d="M377.6-35.8c-2.8,3-3.7,5.8-4.4,9.7c-0.5,2.8-1.8,5.2-2.8,7.8c-2.4,6.2-1.8,12.1,4.2,16
				c4.5,2.9,11.3,4.6,16.2,1.6c5.2-3.2,5.9-10.4,6-15.9c0.1-4.9,0.3-11.3-2.2-15.7c-3.3-5.6-10-5.5-14.7-1.9
				c-4.5,3.4-9.8,11.3-4.5,16.5c6,5.8,13.3-1.3,13.9-7.7c0.4-4.2-5.4-7.8-9-5.1c-0.4,0.3-0.9,0.7-1.3,1c-6,4.6-0.1,14.9,6,10.3
				c0.4-0.3,0.9-0.7,1.3-1c-3-1.7-6-3.4-9-5.1c1.3-0.8,2.6-1.5,3.8-2.3c1.2,0.9,2.4,1.8,3.6,2.7c2.7,4.2-1,1.5,1.5,0.9
				c3.2-0.8-1-3.9-1.9-2.2c-0.2,0.3,0.4,3.2,0.5,3.8c0.2,4.1,0.4,8.3-0.7,12.4c0.5-1.6,2,0.2,0.1-0.9c-0.6-0.4-1.5-0.4-2.1-0.7
				c-0.6-0.3-1.1-0.8-1.7-1.2c0.4,1.8,0.7,1.9,0.8,0.3c0.1-0.4,0.3-0.8,0.4-1.2c0.8-2.3,2-4.5,2.7-6.8c0.6-2.1,0.3-5.1,1.9-6.7
				C391.3-32.9,382.9-41.4,377.6-35.8L377.6-35.8z"/>
		</g>
	</g>
	<g class="st2">
		<g>
			<path class="st5" d="M397.5-25.8c-0.2,5.5-0.6,10,3,14.6c2.5,3.2,4.1,7.3,7.2,9.9c3.6,3,8.8,3.4,12.4,0.1
				c3.1-2.9,3.6-7.4,3.8-11.4c0.3-8.1,1.3-19.7-7.7-23.8c-7.3-3.3-19.7,4.6-21.3,11.9c-1.7,7.5,9.8,10.6,11.5,3.2
				c0.4-1.6,2.6-2.3,4-2.9c0.7-0.3,1.9-0.5,2.4-1c0.8-0.2,0.7-0.3-0.4-0.1c-1-0.2-1.2,0-0.6,0.7c-0.4,1.3,0.5,4.3,0.5,5.9
				c-0.1,1.9-0.1,3.8-0.2,5.6c0,0.7-0.7,3.1-0.4,3.6c3.4,0.3,4.6,0,3.5-1.2c-0.2-0.2-0.4-0.5-0.5-0.7c-0.2-0.8-0.9-1.6-1.3-2.3
				c-1-1.8-3-3.5-3.9-5.3c-0.9-2-0.1-4.7,0-6.9C409.6-33.5,397.7-33.5,397.5-25.8L397.5-25.8z"/>
		</g>
	</g>
	<g class="st2">
		<g>
			<path class="st6" d="M390.3-8.5c-0.1,4.2-0.9,8.4-0.6,12.7c0.5,5.7,3.7,11.8,10.3,11.2c6.9-0.6,8.5-8.3,8.4-14
				c-0.1-3.3-1.7-6.4-5.1-7.4c-3-0.9-6.3,0.5-7.9,3.1c-4,6.6,6.3,12.6,10.3,6c-0.2,0.3-0.3,0.5-0.5,0.8c-0.9,0.5-1.8,1-2.6,1.5
				c0.2,0,0.3-0.1,0.5-0.1c-1.1,0-2.1,0-3.2,0c0.2,0.1,0.3,0.1,0.5,0.2c-0.9-0.5-1.8-1-2.6-1.5c0.1,0.1,0.2,0.3,0.4,0.4
				c-0.5-0.9-1-1.8-1.5-2.6c0.1,0.4-0.5,1.9-0.2,2.4c-0.2,0.7-0.1,0.8,0.3,0.3c1.6,0,3.2-0.1,4.9-0.1c0.3,0.5,0.3,0.4,0-0.4
				c0,0,0,0.1,0,0.1c0.2-0.8-0.1-2-0.1-2.8c0.1-3.3,0.6-6.5,0.6-9.8C402.3-16.2,390.4-16.2,390.3-8.5L390.3-8.5z"/>
		</g>
	</g>
	<path class="st7" d="M432.9-154.3c0,0-17-6.7-19.5,6.5c0,0-5.7,10.4,12.7,28.6c18.4,18.2,79.6,71.5,79.6,71.5l16.6-23.9
		C522.3-71.7,452.2-142.4,432.9-154.3z"/>
	<path class="st8" d="M518.9-33.3l-11.7-10.1c0,0-3.9-2-0.8-6.4s15.9-21.9,15.9-21.9s1.2-1.1,4,0.9c2.8,1.9,9.8,10.1,9.8,10.1
		l1.7,1.5L518.9-33.3z"/>
	<path class="st9" d="M516.9-35c0,0-1.1,19.3,21.1,27.9c22.3,8.5,20.5-38.3,20.5-38.3s-6.3-16.4-21.8-14.9
		C521.5-50.9,516.9-35,516.9-35z"/>
	<path class="st10" d="M535.8-15c0,0-1,18.8,20.4,14.7s27.2-9.6,27.2-9.6s6.1-5.3-1.6-10.3s-15-17-15-17s-9.1-16.5-12.9-13.3
		C550.1-47.3,535.8-15,535.8-15z"/>
</g>
<g id="Camada_12">
</g>
<g id="Camada_5" class="st0">
	
		<image style="display:inline;overflow:visible;opacity:0.22;" width="3682" height="3663" xlink:href="24B1E90F.jpg"  transform="matrix(6.325556e-02 1.354690e-02 -1.354690e-02 6.325556e-02 87.911 9.2076)">
	</image>
</g>
<g id="Camada_9">
</g>
<g id="Camada_7">
</g>
<g id="Camada_13">
</g>
<g id="Camada_16">
</g>
<g id="Camada_15">
</g>
<g id="Camada_17">
	<g>
		<path class="st11" d="M274.1,149.4c0.1,19.8-4.1,38.6-11.6,55.7c-21.1,47.6-68.6,80.8-124,81c-14.7,0.1-28.9-2.3-42.2-6.5
			c-25-8-46.8-23-63.1-42.8c-17-20.4-28.1-46-30.8-74c-0.4-4-0.6-8.2-0.6-12.3C1.6,104.3,24.5,63.3,59.7,38.7
			c4.6-3.3,9.4-6.2,14.4-8.8c7-3.8,14.4-6.8,22-9.4c7.2-2.3,14.7-4,22.4-5.2c6.2-0.8,12.5-1.3,18.9-1.4c25-0.1,48.5,6.6,68.8,18.3
			c3.7,2.1,7.1,4.3,10.5,6.8c16.2,11.5,29.8,26.5,39.7,43.9c1.1,2,2.2,3.9,3.2,6c0.8,1.8,1.7,3.5,2.5,5.3c2.6,5.8,4.8,11.7,6.6,17.8
			c2,6.8,3.5,13.9,4.3,21l0,0C273.8,138.4,274.1,143.9,274.1,149.4z"/>
		<path class="st12" d="M289.8,193.2c2.3-4.5,4-9.1,5.1-13.8c0.1-0.4,0.2-0.8,0.3-1.1c12.7-49.9-24.6-102.5-83.4-117.5
			C154.1,46.1,97.2,73.1,83.1,121.3l0-0.1c-3.4,9.4-4,19.9-2.8,30.7c0.3,3.2,0.8,6.5,1.5,9.7c4.3,21.3,14.3,42.5,22,56.5
			c1.9,6.4,5.4,12,9.9,16.7l0,0l0,0c10.4,10.7,26.5,16.3,42.3,13.2c3-0.6,7.8,0.6,7.8,0.6s4.9,1.3,7.2,3.3
			c10.3,8.5,24.6,12.6,38.8,9.9c9-1.8,16.6-6,22.2-11.9c11.9-7.7,27.6-19.2,40.5-33C279.7,210,285.5,202.1,289.8,193.2z"/>
		<path class="st13" d="M228.7,100.3c0,0,34.2-4.2-32.1-15.9c-55.8-9.9-36.5-7.2-36.5-7.2S180,119.1,228.7,100.3z"/>
		<path class="st14" d="M270.4,186.7c0,0-8.4,35-42.2,55.5c0,0-13.1,7.5-21.4-1.1c-8.2-8.6,4.5-19.3,4.5-19.3s31.8-25.6,35.5-38.8
			c4.3-15.2,15.9-10.9,15.9-10.9S273.7,174.6,270.4,186.7z"/>
		<path class="st15" d="M173.5,86.5c0,0-1.8-4.6,14.5-3.5c3.4,0.2,8.6,1.4,8.6,1.4s-33.6-28-51.8-22.2c-22.3,7-30.3,11.1-50.1,35.2
			s-2,94.3,1.2,81.5s-15.2-43,17.3-82C126.7,81.8,173.5,86.5,173.5,86.5L173.5,86.5"/>
		<path class="st15" d="M228.4,100c0,0,3.8-3.1-10.9-10.1c-3.1-1.5-8.2-3-8.2-3s45.6-8.8,58.6,5c16,17.1,25.9,30.7,29.8,61.2
			c5.9,46.3-40.7,78.5-40.7,78.5c3.5-12.7,49.7-44.2,22.4-100.8C261.7,105.1,228.4,100,228.4,100L228.4,100"/>
		<path class="st14" d="M110.1,208.3c4.8,26.4,26.4,31.6,30.8,31.5c12.5-0.3,8.6-12.6,8.6-12.6s-12.3-73.9,18.8-101.2
			c21.4-18.8,66.3-9.8,60.4-25.8c0,0-41.9-3.5-55.2-13.8c0,0-52.5-19.5-73.7,30.2C99.8,116.7,89.1,140.2,110.1,208.3z"/>
		<path class="st16" d="M264.1,134.1"/>
		<path class="st16" d="M263.8,132.8"/>
		<path class="st16" d="M227.2,118.3"/>
		<path class="st16" d="M203.9,121.2"/>
		<path class="st14" d="M133.8,163.6"/>
		<path class="st14" d="M99.8,116.7c0,0-26,32.7,12.7,99.6c13.8,23.9,24.1,23.6,28.5,23.5"/>
		<path class="st17" d="M129.6,32.2c-4.5-14.6,45.8,7.4,45.8,7.4c-0.5-3.7,4.7-0.2,4.7-0.2c16.3,8.6,10.4,33.6,14.9,39.6
			c2,2.7,3.9,6.7,4,10.1c0.2,1.1,1.4,2.1,1.4,2.9c0,0-0.6,0.5-0.6,0.5c-0.1,1.2,4.2,2.1,0.7,1.8c0,0-3.3,1.2-3.3,1.2
			S196,82.9,191.9,84c-3.8,1.1-23.1,15.2-27.8,7.6c0,0-31.9,10.1-30.3,3.2c0,0-39.2,5.1-36.8-10.2c-8.4-2.5-8-6.1-8.3-7.9
			c-0.7-3.5,1.3-6.3,1.3-6.3c-16.8-7.5,15.8-26.1,15.8-26.1C96.1,37.2,129.6,32.2,129.6,32.2z"/>
		<g>
			<path class="st18" d="M191.4,77.6c-12.1-4.3-25.1,12.2-25.1,12.2c4.4,7.1,22.2-8.2,26.1-7.3c3.8,0.8,4.9,8.9,5,9.2
				c-0.1,0.1,0,0,0,0l0,0C197.5,89.1,196.7,84.2,191.4,77.6z"/>
			<path class="st18" d="M132.2,91.2c0,0,19-32.8,39-29c-12.1-7.8-25.3-10.5-39.8-7.4c0,0-0.1,0-0.1,0c-0.3,0.1-0.7,0.1-1,0.2
				c-0.1,0-0.1,0-0.1,0c-10.5,3.1-28,26.8-28,26.8C93.8,93.5,132.2,91.2,132.2,91.2z"/>
			<path class="st18" d="M134.6,33.5c0,0,9.6,9.9,33.9,23.8c0.6,0.3,1.2,0.7,1.8,1c0.1,0.1,0.2,0.1,0.3,0.2c0.5,0.3,1,0.6,1.5,0.9
				c7.2,4.6,12.2,8.9,15.8,12.7c-9.9-13.3-14.4-30.7-14.4-30.7S128.5,24.3,134.6,33.5z"/>
			<path class="st18" d="M110.1,58.6c6.6-2.7,19.8-8.3,29.5-7.3c-5.3-1.6-31.4-4.9-31.4-4.9S78.6,61.9,92.8,68.7
				C92.8,68.7,107.9,59.5,110.1,58.6z"/>
		</g>
		<path class="st19" d="M226,48.7c0,0-0.8-6-4.8-3.7c-4.1,2.3-4.7-2.7-6.3,5.1s-2.4,6.9-5,12c-2.6,5.1-12.2,26-12.7,33.4l5.3,1.1
			c0,0,1.2-9.3,4.1-15.1c2.9-5.8,6.6-16.5,11.9-21.2s5.5-2.9,8.3-6.5C229.4,50.1,228.8,48.3,226,48.7z"/>
		<path class="st20" d="M156.8,86.9"/>
		<path class="st21" d="M290.9,114"/>
		<path class="st18" d="M188.7,75.7c0,0-13.6-11.6-14.6-11.7c-1-0.1-7.2-1.8-18.4,5.3c0,0-10.4,6.5-17.6,18.9
			c-2.4,3.5-1.7,3.5-1.7,3.5s-1.3,3.7,8.9,2.2c10.7-1.6,18.9-5.7,18.9-5.7s0.8-1.2,4.8-4.8C173.2,79.7,181.8,72.5,188.7,75.7z"/>
		<path class="st18" d="M124.8,55.2c0,0-5.8,0-31.4,15.6c0,0-2.9,4.5-0.7,6.8c2.1,2.3,6.3,3.8,6.3,3.8S108.7,67.1,124.8,55.2z"/>
		<g>
			<path class="st22" d="M77.7,82.7c-1.3,14.2-9.5,26.8-9.5,26.8L21.6,75.8l-2.2,0.4L5.9,96.3l0.7,2l46.9,32.4
				c0,0-9.5,11.7-22.6,17.2c-13.1,5.6,99.6,21.4,99.6,21.4S79,68.5,77.7,82.7z"/>
			<path class="st17" d="M101.1,145.2c-3.3,6.7-15.6,20-15.6,20l-4.3-0.6c0.3,6.5,12.9,7,21.6,8c4.8,0.6-0.8,12.1,1.7,18.6
				c0,0,1.8,3.9,5.8,3.2c4.3-0.8,4.1-5.9,4.1-5.9c0.3-6.7-6.1-14.1-2.4-14.9c3.6-0.7,6.3,0.1,8.7,1.8c4,2.9-0.7,18.3,1.6,22.3
				c0,0,2,3.3,5.9,2.6c4.3-0.8,4.4-3.9,4.5-4.4c0.7-4.5-5.6-17.5-3.2-16.8c7.7,2.3,11.9,2.1,12.3-5.4s-29.6-58.9-31.6-60.9
				c-2-1.9-6.1,1.1-6.1,1.1l2.4,4.3C106.5,118.3,106.4,134.3,101.1,145.2z"/>
			<path class="st23" d="M128.9,197.1c0.1-0.6-1.5-2.5-1.9-4.9c-0.9-4.7-0.6-9-0.6-9s0.2-1.4-1.2-1.4c-1.2,0-1.2,1.4-1.2,1.4
				c-2.1,11.5-0.2,14.2-0.2,14.2s1,2.6,3.8,2C128.9,199,128.9,197.1,128.9,197.1z"/>
			<path class="st23" d="M109.2,189.2c-0.8-2.5-0.8-2.4-0.9-4.4c-0.2-2.8-0.1-4.4-0.1-5.3c0-1.3-1.1-1.1-1.1-1.1s-1.1-0.1-1.3,1
				c-1.2,8.3-0.5,9.6-0.5,9.6s0.6,3.5,2.9,3.5C110.1,192.4,109.2,189.2,109.2,189.2z"/>
			<path class="st23" d="M109.2,131.7C109.2,131.7,109.2,131.7,109.2,131.7s3.8,2.4,2.2,9.2c-3.2,13.2,0.1,20-0.3,24.6
				c-0.3,4.7-3.3,4.5-3.3,4.5s-7.4-1-12.3-1.4c-5-0.5-5-1-5-1s-2.4-1.1-0.6-3.5c10-13.3,14.5-14.9,17.6-31.1
				C107.8,131.3,109.2,131.7,109.2,131.7z"/>
		</g>
		<path class="st17" d="M138.1,97.2c0,0,7.2-0.7,9.1,3.7c1.9,4.5-4.3,12.2-4.3,18.7c0,7.6,7.4,7.6,7.4,7.6s7.7,0,7.7-7.5
			c0-6.4-9.5-19.2,3.2-27.2"/>
		<path class="st23" d="M150.5,120.4c0,0,0.1,3.6-2.7,3.6c-2.5,0-2.8-3.1-2.8-3.1s-1-2.8,3-11.6c0.5-1.7,0.9,0,0.9,0L150.5,120.4z"
			/>
		<path class="st18" d="M191.9,74.9c0,0-9.3-13.6-14.1-28c-3.1-9.2,2.7-2.9,2.7-2.9s6.4,6.1,8.3,15.5S191.9,74.9,191.9,74.9z"/>
		<path class="st18" d="M143.3,50.2c0,0,12.8,2.6,15.7,3.7c0,0-11.3-5.5-26.7-19.3c0,0-30.6,3.8-24.6,8.7c0,0,3.8,1.5,10,1.8
			C129.8,45.7,143.3,50.2,143.3,50.2z"/>
		<path id="XMLID_00000008143773266059952240000006646935264521187765_" class="st14" d="M270.7,145c-1.9-4.2-3.8-7.9-3.8-7.9
			l-1-1.9l-1.3,1.7c0,0-2.6,3.3-5.1,7.2c-3.6,5.4-5.4,9.1-5.6,11.4c-0.5,5.6,3.7,10.6,9.3,11c5.6,0.5,10.6-3.7,11-9.3
			C274.4,154.8,273.3,150.9,270.7,145z"/>
		<path id="XMLID_00000011737199486872418070000001742304438659982513_" class="st23" d="M259.7,162.6c-5.4-3.4-2.6-8.8-2.6-8.8
			l2.9-6c0,0,1.5-2.4,1.8,2.2s2,9.1,2,9.1S265.7,164.6,259.7,162.6z"/>
		<path class="st23" d="M111.2,202.8l7.7,15c0,0,6.1,16.9,22.3,17.5c0,0,7.4-1.3,3.2-10c-2.3-4.8-8-8-8-8S122.2,212.1,111.2,202.8z"
			/>
	</g>
</g>
<g id="Camada_4" class="st0">
	<g class="st2">
		<image style="overflow:visible;" width="115" height="114" xlink:href="24B1E908.png"  transform="matrix(1 0 0 1 26 19)">
		</image>
		<image style="overflow:visible;" width="34" height="42" xlink:href="24B1E90B.png"  transform="matrix(1 0 0 1 122 106)">
		</image>
		<image style="overflow:visible;" width="67" height="59" xlink:href="24B1E907.png"  transform="matrix(1 0 0 1 136 119)">
		</image>
		<image style="overflow:visible;" width="50" height="50" xlink:href="24B1E917.png"  transform="matrix(1 0 0 1 155 131)">
		</image>
	</g>
</g>
<g id="Camada_18">
	<path class="st23" d="M229.8,211.4l-15.9,15c0,0-7.7,6-3.1,12.8c0,0,4.2,4.7,8.2,2.5s4.3-13.8,4.3-13.8S223,219.4,229.8,211.4z"/>
</g>
</svg>
