<svg xmlns="http://www.w3.org/2000/svg" xmlns:xlink="http://www.w3.org/1999/xlink" viewBox="0 0 300 300"><style>.st0{display:none}.st1{display:inline}.st2{fill:#008dd3}.st3{fill:#ef3030}.st4{fill:#d12c2c}.st5{fill:#ff4d4d}.st8{fill:#65aa82}.st9{fill:#86d18f}.st14{opacity:.32;fill:#fff;enable-background:new}.st15{fill:none;stroke:#ff6780;stroke-linecap:round;stroke-miterlimit:10}.st17{fill:#f14e70}.st23{fill:#78d9ff}.st25{fill:#ff8da4}.st27{fill:#d6d6d6}.st29{fill:#fbc304}.st31{fill:#00bf5f}.st36{fill:#828d8e}.st37{opacity:.2;fill:#fff;enable-background:new}.st40{fill:#c4cbcc}.st46{fill:#1a00d6}.st47{fill:#fac900}.st48{fill:#efb000}.st49{fill:none;stroke:#ef3e1b;stroke-width:2;stroke-linecap:round;stroke-miterlimit:10}.st51{fill:#2f100e}.st53{fill:#ef3e1b}.st54{opacity:.18;fill:#00cfff;enable-background:new}.st55{fill:none;stroke:#fff;stroke-width:6;stroke-linecap:round;stroke-miterlimit:10}.st56{fill:#190706}.st57{fill:#005cff}.st59{fill:#9ea8a9}.st61{fill:#708080}.st63{fill:#309fd6}.st64{fill:#50afeb}.st65{fill:#c9854d}.st71{fill:#e2b700}.st78{fill:#54c654}.st79{fill:#ab67a9}.st84{fill:#1a1091}.st87{fill:#138e44}.st90{fill:#d1990a}.st92{display:inline;fill:none;stroke:#fa0;stroke-linecap:round;stroke-linejoin:round;stroke-miterlimit:10}</style><g id="Camada_2" class="st0"><g id="Camada_17_00000119803689208208751110000010413633254980120982_" class="st1"><path d="M-396.8 506.5c.1 19.8-4.1 38.6-11.6 55.7-21.1 47.6-68.6 80.8-124 81-14.7.1-28.9-2.3-42.2-6.5-25-8-46.8-23-63.1-42.8-17-20.4-28.1-46-30.8-74-.4-4-.6-8.2-.6-12.3-.2-46.2 22.7-87.2 57.9-111.8 4.6-3.3 9.4-6.2 14.4-8.8 7-3.8 14.4-6.8 22-9.4 7.2-2.3 14.7-4 22.4-5.2 6.2-.8 12.5-1.3 18.9-1.4 25-.1 48.5 6.6 68.8 18.3 3.7 2.1 7.1 4.3 10.5 6.8 16.2 11.5 29.8 26.5 39.7 43.9 1.1 2 2.2 3.9 3.2 6 .8 1.8 1.7 3.5 2.5 5.3 2.6 5.8 4.8 11.7 6.6 17.8 2 6.8 3.5 13.9 4.3 21 .8 5.4 1.1 10.9 1.1 16.4z" class="st2"/><path d="M-381.1 550.3c2.3-4.5 4-9.1 5.1-13.8.1-.4.2-.8.3-1.1 12.7-49.9-24.6-102.5-83.4-117.5-57.7-14.7-114.6 12.3-128.7 60.5v-.1c-3.4 9.4-4 19.9-2.8 30.7.3 3.2.8 6.5 1.5 9.7 4.3 21.3 14.3 42.5 22 56.5 1.9 6.4 5.4 12 9.9 16.7 10.4 10.7 26.5 16.3 42.3 13.2 3-.6 7.8.6 7.8.6s4.9 1.3 7.2 3.3c10.3 8.5 24.6 12.6 38.8 9.9 9-1.8 16.6-6 22.2-11.9 11.9-7.7 27.6-19.2 40.5-33 7.2-6.9 13-14.8 17.3-23.7z" class="st3"/><path d="M-442.2 457.4s34.2-4.2-32.1-15.9c-55.8-9.9-36.5-7.2-36.5-7.2s19.9 41.9 68.6 23.1z" class="st4"/><path d="M-400.5 543.8s-8.4 35-42.2 55.5c0 0-13.1 7.5-21.4-1.1-8.2-8.6 4.5-19.3 4.5-19.3s31.8-25.6 35.5-38.8c4.3-15.2 15.9-10.9 15.9-10.9s11 2.5 7.7 14.6z" class="st5"/><path fill="#e32e2e" d="M-497.4 443.6s-1.8-4.6 14.5-3.5c3.4.2 8.6 1.4 8.6 1.4s-33.6-28-51.8-22.2c-22.3 7-30.3 11.1-50.1 35.2s-2 94.3 1.2 81.5c3.2-12.8-15.2-43 17.3-82 13.5-15.1 60.3-10.4 60.3-10.4m54.9 13.5s3.8-3.1-10.9-10.1c-3.1-1.5-8.2-3-8.2-3s45.6-8.8 58.6 5c16 17.1 25.9 30.7 29.8 61.2 5.9 46.3-40.7 78.5-40.7 78.5 3.5-12.7 49.7-44.2 22.4-100.8-17.7-25.7-51-30.8-51-30.8"/><path d="M-560.8 565.4c4.8 26.4 26.4 31.6 30.8 31.5 12.5-.3 8.6-12.6 8.6-12.6s-12.3-73.9 18.8-101.2c21.4-18.8 66.3-9.8 60.4-25.8 0 0-41.9-3.5-55.2-13.8 0 0-52.5-19.5-73.7 30.2 0 .1-10.7 23.6 10.3 91.7z" class="st5"/><path d="M-571.1 473.8s-26 32.7 12.7 99.6c13.8 23.9 24.1 23.6 28.5 23.5" class="st5"/><path d="M-541.3 389.3c-4.5-14.6 45.8 7.4 45.8 7.4-.5-3.7 4.7-.2 4.7-.2 16.3 8.6 10.4 33.6 14.9 39.6 2 2.7 3.9 6.7 4 10.1.2 1.1 1.4 2.1 1.4 2.9l-.6.5c-.1 1.2 4.2 2.1.7 1.8l-3.3 1.2s-1.2-12.6-5.3-11.5c-3.8 1.1-23.1 15.2-27.8 7.6 0 0-31.9 10.1-30.3 3.2 0 0-39.2 5.1-36.8-10.2-8.4-2.5-8-6.1-8.3-7.9-.7-3.5 1.3-6.3 1.3-6.3-16.8-7.5 15.8-26.1 15.8-26.1-9.7-7.1 23.8-12.1 23.8-12.1z" class="st8"/><path d="M-479.5 434.7c-12.1-4.3-25.1 12.2-25.1 12.2 4.4 7.1 22.2-8.2 26.1-7.3 3.8.8 4.9 8.9 5 9.2-.1.1 0 0 0 0 .1-2.6-.7-7.5-6-14.1zm-59.2 13.6s19-32.8 39-29c-12.1-7.8-25.3-10.5-39.8-7.4h-.1c-.3.1-.7.1-1 .2h-.1c-10.5 3.1-28 26.8-28 26.8-8.4 11.7 30 9.4 30 9.4zm2.4-57.7s9.6 9.9 33.9 23.8c.6.3 1.2.7 1.8 1 .1.1.2.1.3.2l1.5.9c7.2 4.6 12.2 8.9 15.8 12.7-9.9-13.3-14.4-30.7-14.4-30.7s-45-17.1-38.9-7.9z" class="st9"/><path d="M-560.8 415.7c6.6-2.7 19.8-8.3 29.5-7.3-5.3-1.6-31.4-4.9-31.4-4.9s-29.6 15.5-15.4 22.3c0 0 15.1-9.2 17.3-10.1z" class="st9"/><path fill="#4b5459" d="M-444.9 405.8s-.8-6-4.8-3.7c-4.1 2.3-4.7-2.7-6.3 5.1-1.6 7.8-2.4 6.9-5 12s-12.2 26-12.7 33.4l5.3 1.1s1.2-9.3 4.1-15.1c2.9-5.8 6.6-16.5 11.9-21.2 5.3-4.7 5.5-2.9 8.3-6.5 2.6-3.7 2-5.5-.8-5.1z"/><path d="M-482.2 432.8s-13.6-11.6-14.6-11.7-7.2-1.8-18.4 5.3c0 0-10.4 6.5-17.6 18.9-2.4 3.5-1.7 3.5-1.7 3.5s-1.3 3.7 8.9 2.2c10.7-1.6 18.9-5.7 18.9-5.7s.8-1.2 4.8-4.8c4.2-3.7 12.8-10.9 19.7-7.7zm-63.9-20.5s-5.8 0-31.4 15.6c0 0-2.9 4.5-.7 6.8 2.1 2.3 6.3 3.8 6.3 3.8s9.7-14.3 25.8-26.2z" class="st9"/><path fill="#eaeaea" stroke="#515759" stroke-miterlimit="10" stroke-width="6" d="M-593.2 439.8c-1.3 14.2-9.5 26.8-9.5 26.8l-46.6-33.7-2.2.4-13.5 20.1.7 2 46.9 32.4s-9.5 11.7-22.6 17.2c-13.1 5.6 99.6 21.4 99.6 21.4s-51.5-100.8-52.8-86.6z"/><path d="M-569.8 502.3c-3.3 6.7-15.6 20-15.6 20l-4.3-.6c.3 6.5 12.9 7 21.6 8 4.8.6-.8 12.1 1.7 18.6 0 0 1.8 3.9 5.8 3.2 4.3-.8 4.1-5.9 4.1-5.9.3-6.7-6.1-14.1-2.4-14.9 3.6-.7 6.3.1 8.7 1.8 4 2.9-.7 18.3 1.6 22.3 0 0 2 3.3 5.9 2.6 4.3-.8 4.4-3.9 4.5-4.4.7-4.5-5.6-17.5-3.2-16.8 7.7 2.3 11.9 2.1 12.3-5.4.4-7.5-29.6-58.9-31.6-60.9-2-1.9-6.1 1.1-6.1 1.1l2.4 4.3c0 .1-.1 16.1-5.4 27z" class="st8"/><path d="M-542 554.2c.1-.6-1.5-2.5-1.9-4.9-.9-4.7-.6-9-.6-9s.2-1.4-1.2-1.4c-1.2 0-1.2 1.4-1.2 1.4-2.1 11.5-.2 14.2-.2 14.2s1 2.6 3.8 2c1.3-.4 1.3-2.3 1.3-2.3zm-19.7-7.9c-.8-2.5-.8-2.4-.9-4.4-.2-2.8-.1-4.4-.1-5.3 0-1.3-1.1-1.1-1.1-1.1s-1.1-.1-1.3 1c-1.2 8.3-.5 9.6-.5 9.6s.6 3.5 2.9 3.5c1.9-.1 1-3.3 1-3.3zm0-57.5s3.8 2.4 2.2 9.2c-3.2 13.2.1 20-.3 24.6-.3 4.7-3.3 4.5-3.3 4.5s-7.4-1-12.3-1.4c-5-.5-5-1-5-1s-2.4-1.1-.6-3.5c10-13.3 14.5-14.9 17.6-31.1.3-1.7 1.7-1.3 1.7-1.3z" class="st14"/><path d="M-532.8 454.3s7.2-.7 9.1 3.7c1.9 4.5-4.3 12.2-4.3 18.7 0 7.6 7.4 7.6 7.4 7.6s7.7 0 7.7-7.5c0-6.4-9.5-19.2 3.2-27.2" class="st8"/><path d="M-520.4 477.5s.1 3.6-2.7 3.6c-2.5 0-2.8-3.1-2.8-3.1s-1-2.8 3-11.6c.5-1.7.9 0 .9 0l1.6 11.1z" class="st14"/><path d="M-479 432s-9.3-13.6-14.1-28c-3.1-9.2 2.7-2.9 2.7-2.9s6.4 6.1 8.3 15.5c1.9 9.4 3.1 15.4 3.1 15.4zm-48.6-24.7s12.8 2.6 15.7 3.7c0 0-11.3-5.5-26.7-19.3 0 0-30.6 3.8-24.6 8.7 0 0 3.8 1.5 10 1.8 12.1.6 25.6 5.1 25.6 5.1z" class="st9"/><path id="XMLID_00000008143773266059952240000006646935264521187765_" d="M-400.2 502.1c-1.9-4.2-3.8-7.9-3.8-7.9l-1-1.9-1.3 1.7s-2.6 3.3-5.1 7.2c-3.6 5.4-5.4 9.1-5.6 11.4-.5 5.6 3.7 10.6 9.3 11 5.6.5 10.6-3.7 11-9.3.2-2.4-.9-6.3-3.5-12.2z" class="st5"/><path id="XMLID_00000011737199486872418070000001742304438659982513_" d="M-411.2 519.7c-5.4-3.4-2.6-8.8-2.6-8.8l2.9-6s1.5-2.4 1.8 2.2c.3 4.6 2 9.1 2 9.1s1.9 5.5-4.1 3.5z" class="st14"/><path d="M-559.7 559.9l7.7 15s6.1 16.9 22.3 17.5c0 0 7.4-1.3 3.2-10-2.3-4.8-8-8-8-8s-14.2-5.2-25.2-14.5z" class="st14"/></g><g id="Camada_18" class="st1"><path d="M-441.1 568.5l-15.9 15s-7.7 6-3.1 12.8c0 0 4.2 4.7 8.2 2.5s4.3-13.8 4.3-13.8-.3-8.5 6.5-16.5z" class="st14"/></g><g id="Camada_10_00000016763428249275701150000016507198924258939554_" class="st1"><path d="M-55.8 523c.1 19.8-4.1 38.6-11.6 55.7-21.1 47.6-68.6 80.8-124 81-14.7.1-28.9-2.3-42.2-6.5-25-8-46.8-23-63.1-42.8-17-20.4-28.1-46-30.8-74-.4-4-.6-8.2-.6-12.3-.2-46.2 22.7-87.2 57.9-111.9 4.6-3.3 9.4-6.2 14.4-8.8 7-3.8 14.4-6.8 22-9.4 7.2-2.3 14.7-4 22.4-5.2 6.2-.8 12.5-1.3 18.9-1.4 25-.1 48.5 6.6 68.8 18.3 3.7 2.1 7.1 4.3 10.5 6.8C-97 424-83.4 439-73.5 456.4c1.1 2 2.2 3.9 3.2 6 .8 1.8 1.7 3.5 2.5 5.3 2.6 5.8 4.8 11.7 6.6 17.8 2 6.8 3.5 13.9 4.3 21 .7 5.4 1.1 10.9 1.1 16.5z" class="st2"/></g><g id="Camada_3" class="st1"><path d="M-228 552.1l56.3 44" class="st15"/><path fill="#2b2b2b" d="M-292.1 440.2s-11 6.7-11 16.3v127.7s-.4 8.8 4.9 14c3 3 8.5 7 15 7h88.5l-97.4-165z"/><path d="M-295.3 455.3h155.9V569h-155.9z" class="st17"/><path fill="#515759" d="M-295.5 455.1l-.1-.8c0-9.2 7.5-16.7 16.7-16.7H-156c9.2 0 16.7 7.5 16.7 16.7l.1.8h-156.3zm156.1 115.7v7.7c0 9.2-7.5 16.7-16.7 16.7H-279c-9.2 0-16.7-7.5-16.7-16.7v-7.7h156.3z"/><path fill="none" stroke="#515759" stroke-miterlimit="10" stroke-width="5" d="M-295.5 454.4h156.4m-156.4 115.9h156.4"/><path fill="none" stroke="#515759" stroke-miterlimit="10" stroke-width="6" d="M-154.8 594.7h-125c-8.6 0-15.7-7-15.7-15.7V454c0-8.6 7-15.7 15.7-15.7h125c8.6 0 15.7 7 15.7 15.7v125c0 8.7-7.1 15.7-15.7 15.7z"/><g fill="none" stroke-miterlimit="10" stroke-width="5"><circle cx="-278" cy="447.6" r="2.4" stroke="#cc0e0e"/><circle cx="-262.3" cy="447.6" r="2.4" stroke="#00bf5f"/></g><path d="M-283 587.5v-9.7c0-.8.7-1.4 1.3-1.2l10.3 4.3c.9.4.9 1.8.1 2.3l-10.4 5.4c-.6.4-1.3-.2-1.3-1.1z" class="st23"/><circle cx="-260.5" cy="582.7" r="4.7" class="st23"/><path d="M-140.6 467.7c-.9 0-1.7.8-1.7 1.8v98.4h-150.5v-10.7c0-1-2-1.3-3-1.3-.9 0-2.9.3-2.9 1.3v20.2c0 13.9 8.5 20.2 19.6 20.4h120.5c10.8 0 19.6-9.1 19.6-20.4V469.5c.1-1-.7-1.8-1.6-1.8z" opacity=".28"/><path d="M-292.4 457l150 110.9h-150.4z" class="st25"/><path d="M-286.6 466.9l56.3 43.9m-47.2-27.4l56.3 44m-65.8-30l56.3 43.9m-51.7-31.6l56.4 43.9m-47.4-45.4l56.4 43.9m-51.7-31.6l56.4 43.9" class="st15"/></g><g id="Camada_6" class="st1"><path d="M-243.5 374.8s-20.6-1-20.6 39.8h57.8l35.2-4.6-32.5-23.5-24.9-11.7h-15z" class="st27"/><path fill="#f1f3f3" d="M-242.4 374.8h118.9c26 0 47.1 20.3 47.8 45.7v180.7h-13.6V623h-109.3c-19 0-18.5-21.9-18.5-21.9V422.5s3.3-47.7-25.3-47.7z"/><path d="M-163.4 576.6c.8 2.9 1.3 5.9 1.3 9 0 18.7-15.8 34.3-36.5 37.4 1.2.2 2.4.4 3.6.5v.1h112.5c30.2 0 54.6-21 54.6-47h-135.5z" class="st27"/><path d="M-92.7 529.1c-3.3 3.8-6.8 7.5-10.6 10.8-1.8 1.6-3.7 3.2-5.7 4.7-1.8 1.4-3.7 3.1-5.8 4.1-1.5.8-3.5 1.4-4.6-.3-.8-1.2-1-2.8-1-4.3.6-.6 1.2-1.2 1.8-1.7 2.9-2.9 5.8-5.8 8.3-9 2.2-2.8 4.2-6.1 4.5-9.6.2-1.8-.2-3.6-1-5.2-.7-1.5-2.3-1.7-3.6-.9-8.5 5.1-14.2 14.7-14.6 24.5-2.7 2.4-5.4 4.7-8.3 6.8-2.1 1.5-13.2 10.8-15 5.5-.4-1-.3-2.1 0-3.3 2.6-2.3 5-4.7 7.4-7.1 2.8-3 5.4-6.1 7.9-9.3 1.3-1.7 2.5-3.3 3.6-5.1 1-1.4 1.9-3 2.1-4.8.4-4.1-3.4-6.4-7.1-5.1-3.8 1.3-5.9 5-7.9 8.2-2.4 3.8-4.6 7.8-6.5 11.9-1.3 2.8-2.7 5.7-3.6 8.8-1.8 1.6-3.6 3.1-5.5 4.5-4.3 3.3-10.7 9-16.7 6.6-3.2-1.3-3.6-4.8-3.6-7.8 0-.4 0-.8.1-1.2 7.1-6 12.6-13.7 15.6-22.5.6-1.8-1.2-3.8-3.1-2.9-6.5 3-11.6 8.2-14.5 14.6-1.3 2.7-2.1 5.7-2.4 8.6-2.7 2.1-5.6 3.9-8.8 5.4-2.6 1.2-.9 5.3 1.8 4.1 2.4-1.1 4.7-2.4 6.8-3.8.2 2.3.8 4.6 2.1 6.5 2.3 3.2 6.5 4.4 10.3 4 4-.4 7.5-2.5 10.7-4.7 2.3-1.6 4.5-3.2 6.7-5 .5 2.1 1.7 4 4 4.9 3.7 1.5 7.9-.3 11-2.2 4.7-2.9 9.2-6.3 13.5-9.9.8 3.3 2.8 6.2 6.7 6.3 2.8.1 5.4-1.3 7.6-2.9 2.4-1.7 4.8-3.5 7-5.4 5.1-4.3 9.9-9.1 14.2-14.2 1.8-2.2-1.9-4.8-3.8-2.6zm-77.2 4.6c-1.8 3.3-3.9 6.4-6.4 9.2 1.5-3.6 3.7-6.7 6.4-9.2zm27.9 3c1.7-3.2 3.6-6.2 5.6-9.2.8-1.1 1.6-2.2 2.8-3 .4-.2 1.4-.9 1.7-.4.4.7-.9 2.4-1.3 2.9-1 1.5-2 2.9-3.1 4.3-2.1 2.8-4.3 5.5-6.7 8.1-.3.4-.7.7-1.1 1.1.8-1.2 1.4-2.5 2.1-3.8zm24.8-5.4c1.7-3.1 4-5.8 6.8-8-.2 4.4-4.7 8.9-7.4 11.8-.5.5-1 1.1-1.6 1.6.5-1.8 1.3-3.6 2.2-5.4z" class="st29"/><path fill="none" stroke="#282828" stroke-linecap="round" stroke-linejoin="round" stroke-miterlimit="10" stroke-width="3" d="M-190.3 414.6h25.2m-24.8 25.6h84.2m-84.2 14.8h95m-95 15.2h95m-95 14.4h95"/><circle cx="-238.4" cy="524" r="36.9" class="st31"/><path fill="none" stroke="#282828" stroke-linecap="round" stroke-linejoin="round" stroke-miterlimit="10" stroke-width="6" d="M-255.5 531.9l12.1 9.1 53.3-37.5"/></g><g class="st1"><path d="M311.5 515.1c.1 21-4.4 41-12.3 59.1-22.3 50.5-72.7 85.6-131.5 85.8-15.6.1-30.7-2.4-44.8-6.9-26.4-8.4-49.5-24.4-66.8-45.4-18-21.7-29.8-48.7-32.6-78.5-.4-4.3-.6-8.6-.6-13-.2-48.9 24.1-92.3 61.3-118.5 4.9-3.5 9.9-6.6 15.2-9.3 7.4-4 15.2-7.3 23.3-9.9 7.6-2.4 15.6-4.3 23.8-5.5 6.6-.9 13.2-1.4 20-1.5 26.6-.1 51.4 7 72.9 19.4 3.9 2.2 7.5 4.6 11.2 7.2 17.2 12.2 31.6 28 42 46.5 1.2 2.1 2.3 4.2 3.3 6.4.9 1.9 1.8 3.7 2.6 5.6 2.7 6.2 5.1 12.4 7 18.9 2.1 7.3 3.7 14.7 4.6 22.2 1 5.8 1.4 11.6 1.4 17.4z" class="st2"/><g id="computer_00000163041526128484470310000003117613289619445140_"><path fill="#4d5152" d="M322.9 565.5H85.6v-136c0-10.8 8.8-19.6 19.6-19.6h198.2c10.8 0 19.6 8.8 19.6 19.6v136h-.1z"/><path fill="#f3bd00" d="M311.6 422.7H102.4c-2.4 0-4.3 1.9-4.3 4.3v125.7h209.1c2.4 0 4.3-1.9 4.3-4.3V422.7h.1z"/><path fill="#eaeaea" d="M310.3 593.1H98.1c-6.9 0-12.6-5.6-12.6-12.6v-15h237.4v15c0 7-5.6 12.6-12.6 12.6zm-126.7 28.4c-2.8 0-4.9-2.6-4.2-5.3 1.5-6.2 4.1-16.5 6.2-22.5l.2-.5h36.7l.3.8c2.6 7.2 4.7 14.6 6.3 22.1.6 2.7-1.5 5.2-4.2 5.2l-41.3.2z"/><path d="M221.4 607.3c2.9 0 5-2.8 4.1-5.5-.8-2.6-1.7-5.2-2.6-7.8l-.3-.8h-36.7l-.2.5c-1 2.7-1.8 5.4-2.6 8.2-.8 2.7 1.3 5.5 4.1 5.5l34.2-.1z" class="st36"/></g><path d="M273 435s27.4-3 27.9 21.9v34.6s0 6.3-5 6.1c-2.1-.1-6.2 0-6.7-6.1-.6-8.1 0-25-11.1-34.6-10.1-8.7-25.5-9.3-34.4-11.2-11-2.4-11-11.2-.6-11 10 .2 29.9.3 29.9.3zm29.3 72.4s-4.4-10.4-11.1-1.5c-6.7 8.9 0 13.7 0 13.7s8.5 6.4 11.1 0c2.6-6.5 0-12.2 0-12.2z" class="st37"/><path d="M274.1 487.5h-7.5c-2.9 0-5.5-1.8-6.3-4.5-.7-2.3-1.6-4.6-2.6-6.8-1.2-2.5-.5-5.5 1.4-7.4l5.2-5.2c2.6-2.6 2.6-6.9 0-9.5l-9.4-9.4c-2.6-2.6-6.9-2.6-9.5 0l-4.5 4.5c-2 2-5.1 2.6-7.7 1.3-2.4-1.2-4.9-2.3-7.4-3.2-2.6-.9-4.3-3.5-4.3-6.3v-6.2c0-3.7-3-6.7-6.7-6.7h-13.3c-3.7 0-6.7 3-6.7 6.7v6.2c0 2.8-1.7 5.4-4.3 6.3s-5 2-7.4 3.2c-2.5 1.3-5.7.7-7.7-1.3l-4.5-4.5c-2.6-2.6-6.9-2.6-9.5 0l-9.4 9.4c-2.6 2.6-2.6 6.9 0 9.5l5.2 5.2c2 2 2.6 4.9 1.4 7.4-1 2.2-1.9 4.4-2.6 6.8-.9 2.7-3.5 4.5-6.3 4.5h-7.5c-3.7 0-6.7 3-6.7 6.7v13.3c0 3.7 3 6.7 6.7 6.7h8c2.8 0 5.4 1.7 6.3 4.4.7 2.2 1.6 4.3 2.6 6.4 1.2 2.5.6 5.6-1.3 7.5l-5.6 5.6c-2.6 2.6-2.6 6.9 0 9.5l9.4 9.4c2.6 2.6 6.9 2.6 9.5 0l5.4-5.4c2-2 5.1-2.6 7.6-1.3 2.1 1.1 4.3 2 6.6 2.8 2.6.9 4.3 3.5 4.3 6.3v7.6c0 3.7 3 6.7 6.7 6.7H215c3.7 0 6.7-3 6.7-6.7v-7.6c0-2.8 1.7-5.4 4.3-6.3 2.3-.8 4.4-1.7 6.6-2.8 2.5-1.3 5.6-.7 7.6 1.3l5.4 5.4c2.6 2.6 6.9 2.6 9.5 0l9.4-9.4c2.6-2.6 2.6-6.9 0-9.5l-5.6-5.6c-2-2-2.6-5-1.3-7.5 1-2.1 1.9-4.2 2.6-6.4.9-2.7 3.5-4.4 6.3-4.4h8c3.7 0 6.7-3 6.7-6.7v-13.3c-.4-3.7-3.4-6.7-7.1-6.7zm-66.2 50.6c-20.2 0-36.6-16.7-36.6-37.2s16.4-37.2 36.6-37.2 36.6 16.7 36.6 37.2-16.4 37.2-36.6 37.2z" class="st17"/><path d="M129.4 494.8l10-6.9 6 6.9h-16m34-51.7l-10.3 7.2 2.5 5.5zm24.7-7l10-7.3 3.8 5.1-6.8 4.9zm82.5 82.1l7.9-5.6-2.6-6-6.5 1.2v9.7zm-27.5 46.4l11.7-7.5-5.9-5.3-5.8 9zm-24.3 7.7l-10.4 6.8-1.5-5.3zm-59.7-7.7l10.1-6.4-5.1-8.7-5.9 9.8zm79.2-115.1l9.3-6.4-.5 7.4-1.9 2.5z" class="st17"/><path d="M266.1 493.1h-7.5c-2.9 0-5.5-1.8-6.3-4.5-.7-2.3-1.6-4.6-2.6-6.8-1.2-2.5-.5-5.5 1.4-7.4l5.2-5.2c2.6-2.6 2.6-6.9 0-9.5l-9.4-9.4c-2.6-2.6-6.9-2.6-9.5 0l-4.5 4.5c-2 2-5.1 2.6-7.7 1.3-2.4-1.2-4.9-2.3-7.4-3.2-2.6-.9-4.3-3.5-4.3-6.3v-6.2c0-3.7-3-6.7-6.7-6.7h-13.3c-3.7 0-6.7 3-6.7 6.7v6.2c0 2.8-1.7 5.4-4.3 6.3-2.6.9-5 2-7.4 3.2-2.5 1.3-5.7.7-7.7-1.3l-4.5-4.5c-2.6-2.6-6.9-2.6-9.5 0l-9.4 9.4c-2.6 2.6-2.6 6.9 0 9.5l5.2 5.2c2 2 2.6 4.9 1.4 7.4-1 2.2-1.9 4.4-2.6 6.8-.9 2.7-3.5 4.5-6.3 4.5h-7.5c-3.7 0-6.7 3-6.7 6.7v13.3c0 3.7 3 6.7 6.7 6.7h8c2.8 0 5.4 1.7 6.3 4.4.7 2.2 1.6 4.3 2.6 6.4 1.2 2.5.6 5.6-1.3 7.5l-5.6 5.6c-2.6 2.6-2.6 6.9 0 9.5l9.4 9.4c2.6 2.6 6.9 2.6 9.5 0l5.4-5.4c2-2 5.1-2.6 7.6-1.3 2.1 1.1 4.3 2 6.6 2.8 2.6.9 4.3 3.5 4.3 6.3v7.6c0 3.7 3 6.7 6.7 6.7H207c3.7 0 6.7-3 6.7-6.7v-7.5c0-2.8 1.7-5.4 4.3-6.3 2.3-.8 4.4-1.7 6.6-2.8 2.5-1.3 5.6-.7 7.6 1.3l5.4 5.4c2.6 2.6 6.9 2.6 9.5 0l9.4-9.4c2.6-2.6 2.6-6.9 0-9.5l-5.6-5.6c-2-2-2.6-5-1.3-7.5 1-2.1 1.9-4.2 2.6-6.4.9-2.7 3.5-4.4 6.3-4.4h8c3.7 0 6.7-3 6.7-6.7v-13.3c-.4-3.8-3.4-6.8-7.1-6.8zm-66.2 50.6c-20.2 0-36.6-16.7-36.6-37.2 0-20.5 16.4-37.2 36.6-37.2s36.6 16.7 36.6 37.2c.1 20.5-16.4 37.2-36.6 37.2z" class="st25"/><path d="M199.9 538.6c-1.4 0-3.8-2.6-5.7-8.5-.9-2.8-1.7-6.1-2.2-9.6h8.4l-1.5-5.4h-7.5c-.3-2.9-.4-5.9-.4-9s.1-6.1.4-9h17.3c.3 2.9.4 5.9.4 9v.9l5.4 2.9c0-1.3.1-2.5.1-3.8 0-3-.1-6.1-.4-9h17.2c.8 2.9 1.3 5.9 1.3 9s-.4 6.2-1.3 9h-7l10.8 5.7c.3-.6.5-1.3.8-1.9 0-.1.1-.2.1-.3 1.4-3.9 2.1-8.1 2.1-12.5s-.7-8.6-2.1-12.5c0-.1-.1-.2-.1-.3-5.3-14.7-19.3-25.2-35.8-25.2s-30.5 10.5-35.8 25.2c0 .1-.1.2-.1.3-1.4 3.9-2.1 8.1-2.1 12.5s.7 8.6 2.1 12.5c0 .1.1.2.1.3 5.3 14.7 19.3 25.2 35.8 25.2 24 0 28.2-15.8 30.4-16.2l-26.2 6.2c-1.8 3.1-3.3 4.5-4.5 4.5zm29.2-47h-15.7c-1-6.7-2.6-12.7-5-16.9 9.2 2.4 16.7 8.7 20.7 16.9zm-34.9-9.6c2-5.9 4.3-8.5 5.7-8.5s3.8 2.6 5.7 8.5c.9 2.8 1.7 6.1 2.2 9.6h-16c.8-3.5 1.4-6.8 2.4-9.6zm-2.8-7.4c-2.3 4.3-4 10.3-5 16.9h-15.7c4.2-8.1 11.7-14.4 20.7-16.9zm-24 31.5c0-3.1.4-6.2 1.3-9h17.2c-.3 3-.4 6-.4 9s.1 6.1.4 9h-17.2c-.9-2.9-1.3-5.9-1.3-9zm3.4 14.5h15.7c1 6.7 2.6 12.7 5 16.9-9.1-2.4-16.6-8.7-20.7-16.9z" class="st17"/><path fill="#eaeaea" stroke="#646464" stroke-miterlimit="10" stroke-width="3" d="M233.9 522.2h0l-.2-.1-7.7-4.1h0l-3.5-1.9-10.3-5.5h0l-6-3.2h0l-5.4-2.8c-1.5-.8-3.3.6-2.8 2.3l1.4 4.9h0l.6 2.2 3.4 12.3h0l1.4 5 3.4 12.1c.5 1.6 2.6 2 3.6.6l2.2-3.2h0l2.3-3.3c.8-1.1 2.4-1.2 3.2-.1l8.2 10.3c.7.9 1.9 1 2.8.3l3.4-2.8c.9-.7 1-1.9.3-2.8l-8-10h0l-.2-.3c-.8-1-.4-2.6.8-3.1l7.4-3c1.6-.6 1.7-2.8.2-3.6l-.5-.2z"/><path fill="#646464" d="M54.7 440.9l-9.8 1.8-6-4.5-5.5 1 11.5 11 13-4.8zm84.6 85l2.6-6.9-10.1-7.4-.9-12.9-12.1-2.9 1.1 9.6 10.9 14.7zm9.8-46.7c-11.6-9-23.7-7.8-30.9-3.4l-43.7-36s.8-6.7-5.3-13.3c-6.1-6.6-14.7-4.7-14.7-4.7-2.3-.2-6.9 1.9-6.9 1.9s-2.6-.1 2 3.4c4.6 3.6 19.9 15.4 19.9 15.4l20.2 17.6 24.7 24 19.3 6.3 15.9 3.6 4.9 11.5c.1.1 6.8-16.9-5.4-26.3z"/><path d="M36.7 440.2s-4.4-3.8-4.1 2.1c.4 5.9 2.2 9 2.2 9s8.6 14.4 23.6 8.5l48.2 36.5s-4.2 15.6 5.4 23.9c0 0 9.7 9.8 24.7 7.3 4.4-.6 2.3-4.4 2.3-4.4l-11.7-8.5-1-15 13.5-2.8 10.3 7.9s4.4 4.4 4.5-1.3c.1-5.6-1-15-8.7-20s-17.4-5.5-19.6-4.8c-2.2.6-7.3 2.4-7.9 2.8s-46.7-37.9-46.7-37.9-.2-14-11.4-18.2c-11.2-4.2-17-.7-14.6 1.3 2.4 2 7.5 6.5 7.5 6.5l.8.6 1.3 10.3-10.7 2.6-7.9-6.4z" class="st40"/><path fill="#828d8e" stroke="#828d8e" stroke-miterlimit="10" d="M76.4 457.3s-2.8-1.9-4-.3c-1.2 1.6-1.2 2.8.5 4.3 1.7 1.4 28.9 22 28.9 22s2 2.3 3.8.3c1.9-2-.9-4.2-.9-4.2l-28.3-22.1z"/><path fill="none" stroke="#828d8e" stroke-miterlimit="10" d="M59.5 459.9s7.5-2.8 12.4-15.3m45.4 36.9s-9.6 4.4-11.1 13.8"/></g><path fill="#008dd3" d="M298.5 834.8c.1 19.8-4.1 38.6-11.6 55.7-21.1 47.6-68.6 80.8-124 81-14.7.1-28.9-2.3-42.2-6.5-25-8-46.8-23-63.1-42.8-17-20.4-28.1-46-30.8-74-.4-4-.6-8.2-.6-12.3-.2-46.2 22.7-87.2 57.9-111.8 4.6-3.3 9.4-6.2 14.4-8.8 7-3.8 14.4-6.8 22-9.4 7.2-2.3 14.7-4 22.4-5.2 6.2-.8 12.5-1.3 18.9-1.4 25-.1 48.5 6.6 68.8 18.3 3.7 2.1 7.1 4.3 10.5 6.8 16.2 11.5 29.8 26.5 39.7 43.9 1.1 2 2.2 3.9 3.2 6 .8 1.8 1.7 3.5 2.5 5.3 2.6 5.8 4.8 11.7 6.6 17.8 2 6.8 3.5 13.9 4.3 21 .8 5.4 1.1 10.9 1.1 16.4z"/><g class="st1"><path fill="#e56060" d="M242.5 835.1h-76.6"/><circle cx="110.6" cy="807.9" r="40" class="st46"/><circle cx="142.9" cy="761.4" r="40" class="st46"/><circle cx="202.8" cy="741.3" r="40" class="st46"/><circle cx="254.3" cy="762.7" r="40" class="st46"/><circle cx="282.5" cy="804.6" r="40" class="st46"/><circle cx="95.5" cy="851.2" r="24.7" class="st47"/><circle cx="299.5" cy="852.9" r="24.7" class="st48" transform="rotate(-80.781 299.475 852.916)"/><ellipse cx="199" cy="854" class="st47" rx="103.4" ry="116"/><circle cx="95.5" cy="851.3" r="24.7" class="st48"/><path d="M158.7 747c-37.1 17.7-63.1 58.9-63.1 106.9 0 49 27 90.8 65.3 107.8 0 0-24.1-60.1-24.1-112.6S158.7 747 158.7 747z" class="st48"/><circle cx="153.4" cy="824.6" r="8.9" class="st48"/><circle cx="252" cy="824.6" r="8.9" class="st48"/><path d="M82.2 836.8c-2.2 1.4-3 4.4-2.1 6.7.9 2.4 3.4 3.9 6 4 2.5.1 5-1.3 6.6-3.3.2-.3.4-.6.3-.9-.1-.4-.5-.6-.8-.7-1.8-.5-3.8.1-5.3 1-3.1 1.9-5.1 5.2-6.3 8.6-1 2.7-1.6 5.7-.6 8.4s3.9 4.9 6.7 4.1M307.4 845c-1.7-.7-1.9-3.3-.6-4.6 1.3-1.3 3.4-1.4 5.1-.7 2.4 1 4.2 3.5 4.2 6.2s-1.5 5.2-3.9 6.4c-1.3.6-3 .8-4.2 0-.2-.1-.4-.3-.5-.6-.1-.5.6-.9 1.1-1 2.9-.5 6.6 0 8 2.6.9 1.7.7 3.7 0 5.5-1.4 3.7-4.6 6.7-8.4 7.8-.2 0-.4.1-.5-.1s.2-.3.2-.1" class="st49"/><path d="M200.7 849.4c-1.9 2.3 6.1-.4 8.5-2.1s4-4.7 3.9-7.7c-.2-3.5-2.7-6.5-5.1-9-1.6-1.6-3.3-3.2-5.4-4-.1-.1 6.4 12.9-1.9 22.8z" class="st48"/><path fill="none" stroke="#ef3e1b" stroke-linecap="round" stroke-miterlimit="10" stroke-width="5" d="M134.4 807.9s7.1-12.7 23.4-2.5m111.9 2.5s-7.1-12.7-23.4-2.5"/><path d="M258.5 881.9h-25.4v-12.6h41.3c-9-19-39-9.5-39-9.5s-3.9 1-10.2 2c-1.4.4-2.9.7-4.4 1 .3.2.6.5.8.8 1.3 1.3 2.5 2.7 3.4 4.3l-6.7 6.7c-.5-1.2-1.1-2.3-1.9-3.3-.8-1-1.7-1.9-2.7-2.6-1-.7-2.2-1.3-3.4-1.7-1.2-.4-2.5-.6-3.9-.6-1.8 0-3.4.3-5 1s-2.9 1.6-4.1 2.8c-1.2 1.2-2.1 2.5-2.7 4.1-.7 1.6-1 3.2-1 5s.3 3.5 1 5c.7 1.6 1.6 2.9 2.7 4.1 1.2 1.2 2.5 2.1 4.1 2.8 1.6.7 3.2 1 5 1 1.4 0 2.6-.2 3.9-.6 1.2-.4 2.4-1 3.4-1.7s1.9-1.6 2.7-2.5c.8-1 1.4-2.1 1.9-3.3l6.7 6.7c-1 1.6-2.1 3-3.4 4.2-1.3 1.3-2.8 2.4-4.4 3.3-1.6.9-3.3 1.6-5.1 2.1s-3.7.7-5.7.7c-3 0-5.9-.6-8.5-1.7-2.7-1.2-5-2.7-6.9-4.7-2-2-3.5-4.3-4.7-7-1.2-2.6-1.7-5.5-1.7-8.5s.6-5.9 1.7-8.5c1.2-2.6 2.7-5 4.7-7l.2-.2c-7.7-.8-13-2-13-2-.2 0-.5-.1-.7-.1-3.5-.8-7.1-1.5-10.6-2.1l25 70.5h-18.1l-4.1-11.9h-32.3l-1.2 3.5c9.5 15.8 27.2 32 59.8 32.1v-39.2h14.3c1.4 0 2.9.2 4.5.7s3.2 1.2 4.5 2.3c1.4 1.1 2.6 2.5 3.5 4.2s1.4 3.8 1.4 6.2c0 .8 0 1.4-.1 1.9s-.2 1-.4 1.4l-.6 1.2c-.2.4-.5.8-.8 1.3 1.4.8 2.5 1.8 3.3 3 .8 1.2 1.4 2.3 1.7 3.4s.6 2 .6 2.8c.1.8.1 1.2.1 1.3 0 1.5-.2 2.8-.5 3.9 8.7-3.3 18-8.5 26.4-16.8h-23l27.6-49.2z" class="st51"/><path d="M211.8 931.2c.6 0 1.2 0 1.7-.2.5-.1.9-.4 1.3-.9s.5-1.2.5-2.1c0-1.1-.2-1.9-.6-2.5-.4-.6-.9-1.1-1.5-1.4s-1.1-.5-1.7-.6c-.6-.1-1-.1-1.3-.1h-5.5v7.7h5.5c.4 0 1 0 1.6.1zm-58.4-58.5l-10.3 28.8h20.6zm63.1 68.3c-1.1-.5-3-.7-5.6-.7h-6.2v6.8h6.2c2.6 0 4.4-.2 5.6-.7 1.1-.5 1.7-1.4 1.7-2.7 0-1.4-.6-2.3-1.7-2.7zm-91.2-49.5s.3 2.4 1.2 6.2l13.5-37.9c-10.2 3.4-16.4 12.4-14.7 31.7zm151.1-15.6l-23.9 42.8h11.8c4.8-7.4 8.9-16.3 11.8-27.1 1-6.3 1-11.5.3-15.7z" class="st51"/><path fill="#fff" d="M169.6 918.1l4.1 11.9h18.1l-25-70.5c-10-1.7-19.5-2.2-26.9.3l-13.5 37.9c1.3 5.7 4.1 14.7 9.6 23.8l1.2-3.5 32.4.1zm-16.2-45.4l10.3 28.9h-20.5l10.2-28.9zm32.8-1.9c-1.2 2.7-1.7 5.5-1.7 8.5s.6 5.9 1.7 8.5c1.2 2.7 2.7 5 4.7 7s4.3 3.6 6.9 4.7c2.7 1.2 5.5 1.7 8.5 1.7 2 0 3.8-.2 5.7-.7 1.8-.5 3.5-1.2 5.1-2.1 1.6-.9 3-2 4.4-3.3 1.3-1.3 2.5-2.7 3.4-4.2l-6.7-6.7c-.5 1.2-1.1 2.3-1.9 3.3-.8 1-1.7 1.8-2.7 2.5-1 .7-2.2 1.3-3.4 1.7-1.2.4-2.5.6-3.9.6-1.8 0-3.4-.3-5-1s-2.9-1.6-4.1-2.8c-1.2-1.2-2.1-2.5-2.7-4.1-.7-1.6-1-3.2-1-5s.3-3.5 1-5c.7-1.6 1.6-2.9 2.7-4.1 1.2-1.2 2.5-2.1 4.1-2.8 1.6-.7 3.2-1 5-1 1.4 0 2.6.2 3.9.6 1.2.4 2.4 1 3.4 1.7s1.9 1.6 2.7 2.6 1.4 2.1 1.9 3.3l6.7-6.7c-1-1.6-2.1-3-3.4-4.3l-.8-.8c-10.4 2.1-21.4 1.7-29.6.9l-.2.2c-2 1.9-3.5 4.2-4.7 6.8zm41.8 72.1c-.1-.8-.3-1.7-.6-2.8s-.9-2.2-1.7-3.4c-.8-1.2-1.9-2.2-3.3-3 .3-.5.6-.9.8-1.3l.6-1.2c.2-.4.3-.9.4-1.4.1-.5.1-1.1.1-1.9 0-2.4-.5-4.5-1.4-6.2s-2.1-3.1-3.5-4.2-2.9-1.8-4.5-2.3-3.2-.7-4.5-.7h-14.3v39.2h.3s14.5.9 31.4-5.6c.3-1.1.5-2.4.5-3.9-.2 0-.3-.5-.3-1.3zm-23.3-19.4h5.5c.3 0 .7 0 1.3.1.6.1 1.1.3 1.7.6.6.3 1.1.8 1.5 1.4.4.6.6 1.4.6 2.5 0 1-.2 1.7-.5 2.1-.4.5-.8.7-1.3.9-.5.1-1.1.2-1.7.2h-7.1v-7.8zm11.8 22.8c-1.1.5-3 .7-5.6.7h-6.2v-6.8h6.2c2.6 0 4.4.2 5.6.7 1.1.5 1.7 1.3 1.7 2.7s-.6 2.3-1.7 2.7zm59.9-70.4c-.4-2.5-1.1-4.7-2-6.6h-41.3v12.6h25.4L231 931.4h23c3.7-3.6 7.1-7.8 10.3-12.7h-11.8l23.9-42.8z"/><path d="M95.5 826.5c0 .4-3 26.6 5.7 27.5 5.7.6 6.7-10.1 6.7-17.6 0-4.4 1.4-8.6 3.8-12.3 3.1-4.6 7-12.3 8.5-22.7.7-4.4 2.7-8.7 5.3-12.7 8.5-12.6 22.9-20.1 38.1-20.4 16.2-.3 36.5-2.4 44.8-16.7.1-.1 1.4 1.3 1.5 1.4 1.5 2 11.3 13.9 34.4 15.4 9.3.6 18.1 4.3 24.8 10.7 1.6 1.5 3.4 3.3 5.5 5.2 5.5 5.1 13 12.9 13.4 20.3.3 7.3.4 13.5 3.5 18.6 2.5 4.1 3.4 9 3 13.7-.5 6.2-.2 13.3 4.1 13.4 7.6.1 4.9-23.7 4.8-24l-9.1-44.1s0-.1-.1-.1l-46.3-41.8s-.1 0-.1-.1l-67.9-11h-.1L130.9 752s-.1 0-.1.1l-35.2 47.1v.1l-.1 27.2z" class="st46"/><path d="M200.6 849.4c3 .3 6.1-.4 8.5-2.1s4-5.6 3.8-8.6c-.2-3.5-1.3-5.8-3.8-8.3-1.6-1.6-4.6-3-6.7-3.8" class="st49"/><circle cx="154.6" cy="824.6" r="6.4" class="st51"/><circle cx="251.1" cy="824.6" r="6.4" class="st51"/><ellipse cx="124.8" cy="851.3" class="st53" rx="11.2" ry="6.7"/><ellipse cx="276.4" cy="851.3" class="st53" rx="11.2" ry="6.7"/><circle cx="145.8" cy="821.2" r="28" class="st54"/><circle cx="258.2" cy="821.2" r="28" class="st54"/><circle cx="145.8" cy="820.1" r="29.1" class="st55"/><circle cx="259.9" cy="820.1" r="29.1" class="st55"/><path d="M174.9 820.1s28.2-15.7 55.9 0m-114.2 0s-37.2-25-33.5-3.5m206.5 4.6s19.7-19.1 19.2-2.5" class="st55"/><path d="M190.9 894.9c-2-2-3.5-4.3-4.7-7-1.2-2.6-1.7-5.5-1.7-8.5s.6-5.9 1.7-8.5c1.2-2.6 2.7-5 4.7-7l.2-.2c-7.7-.8-13-2-13-2-.2 0-.5-.1-.7-.1-3.5-.8-7.1-1.5-10.6-2.1l25 70.5h-18.1l-4.1-11.9h-32.3l-1.2 3.5c9.1 15.2 25.8 30.7 55.8 32" class="st56"/><path d="M153.4 872.7l-10.3 28.9h20.6zm-28.1 18.9s.3 2.4 1.2 6.2l13.5-37.9c-10.2 3.3-16.4 12.3-14.7 31.7z" class="st56"/><path d="M256.4 729.6c10.2 1.4 25.2 6.3 29.8 23.5.5 1.8-1.9 2.9-3 1.5-4.6-6.1-13.2-15.2-27.7-21.8-1.7-.8-1-3.5.9-3.2z" class="st57"/><path fill="#fff" d="M275.2 803.2c5.1 6.3 11 17.2 4.3 29.7-.7 1.3-2.7.7-2.5-.7.7-6 .7-15.9-4.1-27.6-.5-1.4 1.3-2.5 2.3-1.4z" opacity=".28"/><path d="M192.8 709.2c10.2-1.8 25.9-1.6 35.5 13.4 1 1.6-.9 3.4-2.4 2.3-6.2-4.5-17.2-10.5-33-12.3-1.9-.3-2-3.1-.1-3.4zm107.5 66.1c8.4 6 19.3 17.4 15.3 34.7-.4 1.8-3 1.7-3.3-.1-1.2-7.6-4.6-19.6-14.3-32.2-1.2-1.5.7-3.5 2.3-2.4z" class="st57"/></g><g class="st1"><path d="M-65.5 858.7c.1 20.9-4.4 40.7-12.3 58.7-22.3 50.1-72.3 85.2-130.7 85.3-15.5.1-30.5-2.4-44.5-6.8-26.3-8.4-49.3-24.2-66.6-45.1-17.9-21.6-29.7-48.5-32.4-78-.4-4.3-.6-8.6-.6-13-.2-48.8 23.9-92 61-118 4.8-3.5 9.9-6.5 15.1-9.3 7.4-4 15.1-7.2 23.2-9.9 7.6-2.5 15.5-4.3 23.6-5.4 6.5-.9 13.2-1.4 19.9-1.5 26.4-.1 51.1 6.9 72.5 19.3 3.9 2.2 7.5 4.5 11.1 7.1 17.1 12.2 31.4 27.9 41.8 46.3 1.2 2.1 2.3 4.2 3.4 6.3.9 1.9 1.8 3.7 2.7 5.5 2.8 6.1 5 12.4 6.9 18.8 2.1 7.2 3.7 14.6 4.5 22.2 1 5.8 1.4 11.7 1.4 17.5z" class="st2"/><path d="M-270.7 959.5l19.2 5.7 5.4-10.4-21.5-5.7z" class="st59"/><path d="M-286.3 803.3s-2.5.1-3.2 1.9c-.1.3-.2.7-.2 1.2.2 3.7.4 128.4.4 128.4s1.2 9.7 5.6 14.6c0 0 7.2 9 13 10s170.1-2.6 170.1-2.6 12.5.8 20-10.1c4.6-5.8 5.3-12.3 5.3-12.3V801.6s.2-2.4-3.1-2.3c-3.4.1-207.9 4-207.9 4z" class="st59"/><path fill="#aeb9ba" d="M-69.7 801.6l-7.5-2.1-3.2 3 3.2.2v4.5s22 .9 22 .6c0-.4.3-2.1.3-2.1l-14.8-4.1z"/><path d="M-264.5 809.4l-22.1-6.1 208.1-4 1.8.3 21.8 6z" class="st61"/><path d="M-251.6 965.2c.9.2 1.9.4 2.9.4l-3.4-.9-13.9-14c-1.4-5-1.2-9.5-1.2-9.5l-22.1-6.2s1.2 9.5 5.5 14.4c0 0 1.8 2.2 4.3 4.6s5.8 4.9 8.7 5.4l18.1 5.4c.3.1.5.2.8.2l.3.2z" class="st36"/><path d="M-264.2 809.4s-3.5.1-3.4 3.1c.2 3.7.4 128.4.4 128.4s-.3 8.9 3.4 15c0 0 5.4 9.1 15.2 9.7 6.5 0 170.1-2.6 170.1-2.6s12.5.8 20-10.1c4.6-5.8 5.3-12.3 5.3-12.3V807.8s.2-2.4-3.1-2.3c-3.4 0-207.9 3.9-207.9 3.9z" class="st40"/><path d="M-260.9 959.7l-17.9-4.9s3.1 3.6 9 5.2 17.1 4.9 17.1 4.9-4.1-1.2-8.2-5.2z" class="st61"/><path d="M-155.1 834.7s.8-3.9 4.7-3 7.7 2 7.7 2 3 .4 2.1 4.9-23.6 94.3-23.6 94.3-.9 3.2-4.3 2.6c-3.4-.6-7.9-1.9-7.9-1.9s-3.5-.8-2.4-5.2 23.7-93.7 23.7-93.7z" class="st17"/><path d="M-152.8 831.9l8.7-2.3.4 3.5s-5.8.7-5.8.6-3.3-1.8-3.3-1.8z" class="st17"/><path fill="#ed4f79" d="M-167.2 935.6l8.9-2.3-4.9-3.6-4.6 2.5z"/><path d="M-201.3 848l7.7 7.9s2.1 1.9.6 3.9c-1.5 1.9-20.4 22.9-20.4 22.9s-2.4 2.1.5 5.3 19.5 20.6 19.5 20.6 1.7 1.7.2 3.7-8.3 9.4-8.3 9.4-2.8 2-4.9 0c-2-2-32.5-33.4-32.5-33.4s-2.7-2.6.2-5.7c2.9-3.1 31.9-34.5 31.9-34.5s2.8-2.8 5.5-.1z" class="st63"/><path d="M-204.9 922.5l8.2 2.3-.4-5.6-8.5-1.4zm9.7-73.3l-8.1-2.4.2 5.7 8.6 1.3z" class="st63"/><path d="M-193.4 850.3l7.7 7.9s2.1 1.9.6 3.9c-1.5 1.9-20.4 22.9-20.4 22.9s-2.4 2.1.5 5.3 19.5 20.6 19.5 20.6 1.7 1.7.2 3.7-8.3 9.4-8.3 9.4-2.8 2-4.9 0c-2-2-32.5-33.4-32.5-33.4s-2.7-2.6.2-5.7c2.9-3.1 31.9-34.5 31.9-34.5s2.8-2.8 5.5-.1z" class="st64"/><path d="M-120.4 922.6l-7.7-7.9s-2.1-1.9-.6-3.9c1.5-1.9 20.4-22.9 20.4-22.9s2.4-2.1-.5-5.3-19.5-20.6-19.5-20.6-1.7-1.7-.2-3.7 8.3-9.4 8.3-9.4 2.8-2 4.9 0c2 2 32.5 33.4 32.5 33.4s2.7 2.6-.2 5.7c-2.9 3.1-31.9 34.5-31.9 34.5s-2.9 2.8-5.5.1z" class="st63"/><path d="M-108.9 850.3l-7.9-2.2.3 5.6 8.6 1.4zm-10.1 73.3l8 2.2-.1-5.5-8.5-1.3z" class="st63"/><path d="M-112.6 924.8l-7.7-7.9s-2.1-1.9-.6-3.9c1.5-1.9 20.4-22.9 20.4-22.9s2.4-2.1-.5-5.3c-2.9-3.2-19.5-20.6-19.5-20.6s-1.7-1.7-.2-3.7 8.3-9.4 8.3-9.4 2.8-2 4.9 0c2 2 32.5 33.4 32.5 33.4s2.7 2.6-.2 5.7c-2.9 3.1-31.9 34.5-31.9 34.5s-2.9 2.8-5.5.1z" class="st64"/><path d="M-147.1 832.7s.8-3.9 4.7-3 7.7 2 7.7 2 3 .4 2.1 4.9-23.6 94.3-23.6 94.3-.9 3.2-4.3 2.6c-3.4-.6-7.9-1.9-7.9-1.9s-3.5-.8-2.4-5.2 23.7-93.7 23.7-93.7z" class="st25"/><path d="M-246.6 780l6.7-4.9c-.1 0 1.1 8.9-6.7 4.9z" class="st40"/><path d="M-287.9 800.3l20 2.2 2.3-4.2-20.9-3z" class="st65"/><path d="M-286.5 800.3s-3.5.5-3.9-2.3c-.6-3.6-3.2-19-3.2-19s-.8-9.6 2.4-15.2c0 0 5.2-10.1 10.7-12.3s170-32.5 170-32.5 12-3.4 21.7 5.4c5.7 4.6 7.7 10.7 7.7 10.7l1.4 8.2 2.7 16.2s1 1.8-2.3 2.4c-3.4.8-207.2 38.4-207.2 38.4z" class="st65"/><path fill="#c17842" d="M-279.7 750.4c5.5-2.3 170.5-32.6 170.5-32.6"/><path fill="#ad7149" d="M-109 717.7s3.4-.7 6.8-.3c3.3.4 18.8 1.9 18.8 1.9l-3.4.1c-.2 0-2.6.4-2.8.4-8.1 1.6-164.3 30.5-169.8 32.5l-19.7-2.1s14.2-3.1 16.6-3.5c2.4-.5 14.9-2.9 14.9-2.9l138.6-26.1z"/><path fill="#ba784a" d="M-273.2 779.8l-19.7-1c-.4 0-.8-.3-.8-.7.1-3.4-1.4-10.7 6.1-20.1 2.2-3.1 5.1-6.3 8.4-7.7l19.8 2s-5.8 3.4-8.6 8.1c-2.8 4.7-4.8 8.9-5.1 14-.3 4.3-.1 5.4-.1 5.4z"/><path fill="#ed9751" d="M-265.9 802.3s-3.5.6-3.9-2.3c-.6-3.7-3.2-19.5-3.2-19.5s-.8-9.8 2.3-15.5c0 0 5.1-10.3 10.6-12.5 5.5-2.3 169.9-32.6 169.9-32.6s12-3.4 21.7 5.6c5.7 4.7 7.8 10.9 7.8 10.9l1.4 8.4 2.4 14.5s1.3 3.9-1.9 4.6c-3.3.7-207.1 38.4-207.1 38.4z"/><path d="M-240 775.1c.7 4.4-2.2 8.6-6.6 9.3-2.6.4-5.1-.4-6.9-2.1-1.2-1.2-2.1-2.7-2.4-4.5-.7-4.4 2.2-8.6 6.6-9.3 4.4-.7 8.6 2.2 9.3 6.6z" class="st3"/><path d="M-248.1 768.4l4.3.2.2 2.1m-.7 14.1l-4.6-.3.1-2.3 2.9 1.7z" class="st3"/><circle cx="-244.5" cy="776.7" r="8.1" fill="#ef5555"/><path d="M-213.3 770.3c.7 4.4-2.2 8.6-6.6 9.3-2.6.4-5.1-.4-6.9-2.1-1.2-1.2-2.1-2.7-2.4-4.5-.7-4.4 2.2-8.6 6.6-9.3 4.3-.7 8.5 2.2 9.3 6.6z" class="st71"/><path d="M-221.5 763.6l4.4.2.1 2.1m-.7 14.1l-4.6-.3.1-2.3 2.9 1.7z" class="st71"/><circle cx="-217.9" cy="771.9" r="8.1" fill="#fcd206"/><path d="M-186.6 765.9c.7 4.4-2.2 8.6-6.6 9.3-2.6.4-5.1-.4-6.9-2.1-1.2-1.2-2.1-2.7-2.4-4.5-.7-4.4 2.2-8.6 6.6-9.3 4.4-.7 8.5 2.2 9.3 6.6z" class="st31"/><path d="M-194.8 759.2l4.4.2.1 2.1m-.7 14.1l-4.6-.3.1-2.3 2.9 1.6z" class="st31"/><circle cx="-191.2" cy="767.5" r="8.1" fill="#07e570"/><path d="M-69.8 730c-2-3.4-9.3-1.5-9.5 2.4-.3 7.6-3.2 22.1-19.4 25.5-19.2 4.1-20 5.8-20 5.8s-5.8 6.4 23.7 1.9c6.5-.8 28.1-4.9 31.2-6.4 3.4-1.7-1.3-19.8-1.3-19.8s-1.3-3.5-4.7-9.4zm9.3 176.8s-3.8-13.7-10.6 0c0 0-1.9 15.8-2.7 18.1-.8 2.3-4.8 19.4-25.6 20.2-20.8.8-29.5 2.9-29.5 2.9s-4.9 5.7 0 8 53.2 0 53.2 0 15.1-5.3 15.1-17.4c0-12.1.1-31.8.1-31.8zm-54.8 11s9.2-2.6 16-5.8c2.5-1.2-8 9.3-8 9.3s-3.7 4.5-8-3.5zm-51.1 11.6s6.7-6.9 11.1-13c1.6-2.2-2.4 12.1-2.4 12.1s-1 5.8-8.7.9zm-34.7-10.4s8.1-3.2 14-6.7c2.1-1.3-6.5 9.4-6.5 9.4s-3 4.5-7.5-2.7z" class="st37"/><path fill="#fdffff" d="M-196.1 771.7l11.5-6.9s1.6 5.7-2.4 8.3c-4 2.5-9.1-1.4-9.1-1.4z" opacity=".4"/><path fill="#fff" d="M-211.2 770.4l-11.5 5.9s5.1 3.9 9.1 1.3c0 0 3.8-2.4 2.4-7.2z" opacity=".4"/><path fill="#fff" d="M-238 774.7l-11.5 5.9s5.1 3.9 9.1 1.3c0 0 3.8-2.4 2.4-7.2z" opacity=".3"/></g><g class="st1"><path d="M-417 843c.1 20.7-4.3 40.4-12.1 58.2-22 49.7-71.6 84.3-129.5 84.5-15.4.1-30.2-2.4-44.1-6.8-26.1-8.3-48.9-24-65.9-44.7-17.7-21.4-29.4-48-32.1-77.3-.4-4.2-.6-8.5-.6-12.8-.2-48.2 23.7-91 60.4-116.8 4.8-3.4 9.8-6.5 15-9.2 7.3-3.9 15-7.2 23-9.8 7.5-2.4 15.4-4.2 23.4-5.4 6.5-.9 13-1.4 19.7-1.5 26.2-.1 50.6 6.9 71.8 19.1 3.8 2.2 7.4 4.5 11 7.1 16.9 12 31.1 27.6 41.4 45.8 1.2 2.1 2.3 4.1 3.3 6.3.9 1.9 1.8 3.6 2.6 5.5 2.7 6.1 5 12.2 6.9 18.6 2.1 7.2 3.6 14.5 4.5 21.9.9 5.8 1.3 11.5 1.3 17.3z" class="st2"/><path fill="#e247d7" d="M-566.5 918.2l.3-.3c-.3-2.2-.5-4.6-.6-6.9l.3 7.2z"/><path d="M-490.4 914c10 3.9 15.6 5.6 24.6 7.8 24.4 6 41.7 4.4 47.4-4.6s-.2-25.2-16-44.9c-16.8-20.7-42.6-42.7-72.9-61.8-23.4-14.8-45.6-25.6-64.9-32.8 1-1.9 1.3-4.2.8-6.3 20.8 7.5 43.8 18.9 67.4 33.9 30.8 19.5 57.2 42 74.4 63.2 17.9 22.1 23.7 40.5 16.4 52-3.2 5.1-8.8 8.4-16.4 10-9.5 1.9-22.3 1-37.7-2.7-8.8-2.1-15.8-4.4-25.5-8.2 1-1.9 3-3.5 2.4-5.6z" class="st29"/><path d="M-556.8 804.4c21.6-13.3 42.7-23.6 62.1-30.7v.2c40.5-15.1 73-16.2 82.8-.1 12.7 20.6-16.4 61.4-67.8 98.4 0 0 .1 0 .1.1-2.2 1.6-4.5 3.2-6.8 4.8-.1-2.4-.3-4.9-.5-7.3 53.7-37.7 79.5-76.8 69.7-92.7-5.4-8.7-21.7-11-44.9-6.4-18.3 3.7-41 11.8-65.9 24.8l-.2-.2c-8.3 4.3-16.8 9-25.4 14.4-5.4 3.2-10.4 6.6-15.3 9.9-.3-.6-.8-.9-1.4-1.2.1 0 .2.1.3.1-.9-.4-1.8-.9-2.6-1.5-.4-.4-.8-.7-1.1-1.2 0-.1-.1-.2-.1-.2 5.3-3.8 11.1-7.5 17-11.2z" class="st29"/><path d="M-569 910.7c.8 0 1.6 0 2.4-.1 1.3-.2 2.7-.7 3.9-1.4 2.8 19.6 9.7 50.6 25.3 56.8l6-7.8c.6-.8 1.4-1.2 2.3-1.1.9.1 1.7.6 2.4 1.5l7.8 10.9c5.1-6.2 19.9-29 25.5-52.6.2-1.4.4-2.8.5-4.3 2.2-23-4-45.6-18.6-67.2-1.2-1.7-.9-4.4.5-6 .8-.8 1.8-1.2 2.7-1.1.8.1 1.5.6 2 1.3 14.1 20.9 21 42.6 20.6 65 .1-.2.2-.3.2-.3-.1 1.8-.2 3.6-.4 5.4-.1 1.1-.6 1.9-.7 3-.2 2.3-.4 4.3-.7 6.4-.1-.1.1.4 0 .3-6.9 33.8-28.6 58.7-29.4 59.6-1.3 1.3-3.2 1-4.5-.7l-7.7-10.7-4.9 6.4c-.7.9-1.7 1.3-2.8 1-20.6-5.6-29.1-41.7-32.4-64.3z" class="st25"/><path d="M-528.8 967.7l-.1-96.1 27.2-20.7 12.9 32.2.3 26.5-11.3 32-16.2 33.3z" class="st25"/><path d="M-528.8 967.7l-4.9 6.4c-.7.9-1.7 1.3-2.8 1-20.9-5.8-29.3-41.9-32.6-64.4.8 0 1.6 0 2.4-.1 1.3-.2 2.7-.7 3.9-1.4 2.8 19.6 9.7 50.6 25.3 56.8l6-7.8c.6-.8 1.4-1.2 2.3-1.1l.4 10.6z" class="st17"/><path d="M-528.9 962.5l2.7-91-13.3 14.5-22.5 22.6-1.4 14.4 14.7 36.8s9.5 5.8 10.9 8.2c2.4 4.1 8.9-5.5 8.9-5.5z" class="st17"/><path d="M-609.3 847.7c.4.7.9 1.4 1.4 2 .9 1 2 1.9 3.3 2.6-15.1 12.9-37.6 35.2-34.4 51.7l9.8.8c1 .1 1.8.6 2.2 1.4.4.8.4 1.8 0 2.8l-5.3 12.5c7.9.9 35.1 1.4 58.1-6.6 1.3-.6 2.5-1.2 3.8-1.8 20.6-10.3 36.3-27.7 46.9-51.6.8-1.9 3.2-3.1 5.4-2.7 1.1.2 2 .9 2.3 1.7.3.7.3 1.6-.1 2.4-10.1 23-24.9 40.5-44 52.1h.4c-1.6.9-3.1 1.7-4.8 2.5-1 .5-1.9.5-2.9 1-2 1-3.7 1.9-5.8 2.8 0-.1-.3.3-.3.1-32.3 12.4-64.9 7.3-66.1 7-1.8-.4-2.6-2.2-1.8-4.2l5.1-12.3-8-.7c-1.2-.1-2.1-.8-2.4-1.8-6.1-20.3 19.9-46.8 37.2-61.7z" class="st25"/><path d="M-636 912.2l85.8-54.2 27.5 14.7-20.4 28.2-22.1 14.4-33.2 7.5-36.8 4z" class="st25"/><path d="M-635.9 912.2l-8-.7c-1.2-.1-2.1-.8-2.4-1.8-6.3-20.7 19.7-47.2 37.1-62 .4.7.9 1.4 1.4 2 .9 1 2 1.9 3.3 2.6-15.1 12.9-37.6 35.2-34.4 51.7l9.8.8c1 .1 1.8.6 2.2 1.4l-9 6z" class="st17"/><path d="M-636 912.2l86.9-53.7-6.6-28.4-52 14.9-9.3 13.6-23.1 32.1.8 12.6z" class="st17"/><path d="M-567.6 778.3c-.5.6.4 2.3.1 3-.6 1.2-.2 2.5-.3 3.9-17.7-9-47-21.2-61.1-11.9l2.9 9.4c.3.9.2 1.9-.4 2.5-.6.7-1.5 1.1-2.6 1.1l-13.5.1c2.1 7.7 12.3 32.9 28.4 51.1 1 1 2 1.9 3.1 2.8 17.4 15.1 39.6 22.9 65.7 23.4 2.1 0 4.2 1.8 4.6 3.8.2 1.1 0 2.1-.7 2.8-.5.6-1.3.9-2.3.9-25.1-.5-47-7.4-65-20.6.1.2.1.4.1.4-1.4-1.1-2.8-2.3-4.2-3.4-.9-.7-1.2-1.5-2-2.3-1.7-1.5-3.2-2.7-4.9-4.3.1 0-.4-.2-.3-.2-23.8-25-31.6-57.1-31.9-58.3-.3-1.8 1-3.2 3.1-3.2l13.3-.1-2.4-7.6c-.4-1.1-.1-2.2.8-2.9 17-13.7 49.3-.6 69.5 9.6z" class="st25"/><path d="M-626.3 785.3l76.7 51.2-4.7 29-34.6-4.8-21.8-15-19.7-27.7-17.8-32.4z" class="st25"/><path d="M-635.1 779.3l-4.7-11.1c-.4-1.1-.1-2.2.8-2.9 16.8-13.7 51.2 0 71.5 10.4-.5.6-.9 1.3-1.3 2.1-.6 1.2-.9 2.6-1.1 4-17.8-9-47.1-21.3-61.2-11.9l2.9 9.4c.3.9 2.4 5.4 1.8 6.1l-8.7-6.1z" class="st17"/><path d="M-626.3 785.3l67.7 45.6-14.2-13.1 3.2-35.7-10.9-9.4-38.6-9.1-14.5.9z" class="st17"/><path d="M-572.6 777.9c0-.4.1-.7.2-1.1.2-.9.3-1.9.5-2.8-.1.3-.1.5 0-.2 7.6-39.8 22.2-66 39.9-66.4 9.4-.2 18.4 6.8 26.2 19.9 0 .1.1.1.1.2.3.5.5.9.8 1.4.2.3.3.6.5.9.1.3.3.5.4.8.3.5.5 1 .8 1.6 0 .1.1.2.1.3.7 1.3 1.3 2.6 1.9 4v.1c1.6 3.5 3.1 7.4 4.7 11.5 2.3 6.6 5 15.6 6.8 23.2.4 1.4.2.7.1.2.3 1.4.6 2.8.9 4.3h-.2c4.3 20.4 6.9 44.1 7.1 69.8.2 21.5-.1 38.7-3 57.4-.6 4-1.6 10.1-2 13.2-.1.8-.9 4.7-1 5.3-5.1-1.7-3.2-.7-5.2-1.9l-.4-3c4-21 5.8-45.6 5.5-70.8-.3-30.1-3.7-56.4-8.9-77.5-1.6-6.3-3.5-13-5.4-18-3.9-10.9-8.4-19.7-13.1-26-5.2-6.8-10.7-10.4-16.1-10.4-.8 0-1.5.1-2.3.2-9.7 1.9-19.2 15.4-26.3 37.6-2.1 6.6-4.4 15.8-6 23.4-.3 1.4-.5 2.9-.8 4.4l-.1-.1c-2 11.6-3.4 24.6-4.2 38.6-1.9-.8-4.2-1-6.2-.5 1-14.1 2.6-27.5 4.7-39.6z" class="st29"/><circle cx="-505.3" cy="735.9" r="13" class="st78"/><path d="M-505.1 752c-4.3 0-8.4-1.6-11.4-4.6s-4.8-7-4.9-11.3c0-4.3 1.6-8.4 4.6-11.4s7-4.8 11.3-4.9c4.3 0 8.3 1.6 11.4 4.6 3 3 4.8 7 4.9 11.3.1 7.8-5.5 14.4-12.9 15.9-1 .3-2 .4-3 .4zm-7.3-23.1c-1.8 1.9-2.8 4.4-2.8 7s1.1 5.2 2.9 7c1.9 1.8 4.4 2.8 7 2.8 5.5-.1 9.8-4.6 9.8-10 0-2.6-1.1-5.2-2.9-7-1.9-1.8-4.4-2.8-7-2.8-.6 0-1.3.1-1.9.2-1.9.5-3.7 1.4-5.1 2.8z" class="st78"/><circle cx="-447" cy="926.7" r="13" class="st64"/><path d="M-445.8 942.8c-8.8.7-16.6-6-17.2-14.8-.7-8.8 6-16.6 14.8-17.2 8.8-.7 16.6 6 17.2 14.8.6 8.2-5 15.4-12.9 17-.5.1-1.2.2-1.9.2zm-.3-3zm-10.8-12.3c.2 2.6 1.4 5.1 3.4 6.8 2 1.7 4.6 2.5 7.2 2.3 5.5-.4 9.5-5.2 9.1-10.6-.4-5.4-5.2-9.5-10.6-9.1-.4 0-.8.1-1.2.2-4.8.9-8.3 5.4-7.9 10.4z" class="st64"/><circle cx="-426.4" cy="816.4" r="18.2" class="st79"/><path d="M-426.1 837.6c-5.7.1-11-2.1-15.1-6.1s-6.4-9.3-6.4-15c-.1-11.7 9.3-21.4 21.1-21.5 5.7-.1 11 2.1 15.1 6.1 4 3.9 6.4 9.3 6.4 15 .1 10.3-7.3 19.1-17 21.1-1.4.2-2.7.4-4.1.4zm0-3zm-10.9-28.9c-2.8 2.8-4.4 6.7-4.4 10.7s1.6 7.8 4.6 10.6c2.8 2.8 6.7 4.4 10.7 4.4s7.8-1.6 10.6-4.6c2.8-2.8 4.4-6.7 4.4-10.7s-1.6-7.8-4.6-10.6c-2.8-2.8-6.7-4.4-10.7-4.4-1 0-1.9.1-2.9.3-3 .7-5.6 2.2-7.7 4.3z" class="st79"/><path d="M-505.2 840.5c13.6 19.6 20.4 40.3 20.2 61.6v1.7c-.1 1.7 0 1.4-.2 3.1-.1 1.1-.3 2.3-.4 3.3-.2 2.1-.6 3.5-.9 5.7-.1-.1.1.4 0 .3-6.1 32.3-26.4 56.1-27.2 57" class="st25"/><path fill="none" stroke="#ff6780" stroke-miterlimit="10" d="M-505.9 852.4s12.8 17.7 13.5 46.8m-20.1-42.2s11 20.1 12.3 49.6m-18.6-43.7s10.1 22.5 9.9 59.2m-15.1-56.5s5.8 14.7 3.8 32.1m-7.9-23.5s-9.5 19.6-34.6 34.2m27.4-37.8s-12.5 19.2-37.7 34.4m29.6-37.1s-14.9 19.6-47.4 37.1m41.5-41.4s-11.9 14.3-28.2 21m22.1-22.4s-21.9.2-46.1-15.9m46.2 7.9s-22.8-2.6-47.6-18.5m46.3 10s-24.2-4.7-54.2-26m55 19s-18.7-2.8-31.9-14.4"/><path d="M-606.9 792c5.5-.6 10.4 3.3 11 8.9.6 5.5-3.3 10.4-8.9 11-5.5.6-10.4-3.3-11-8.9-.7-5.5 3.4-10.4 8.9-11zm.4 4c-3.2.3-5.6 3.2-5.3 6.6.3 3.2 3.2 5.6 6.6 5.3 3.2-.3 5.6-3.2 5.3-6.6-.5-3.3-3.4-5.7-6.6-5.3zm69 140.9c-3.2-4.5-2.1-10.7 2.3-14 4.5-3.2 10.7-2.1 14 2.3 3.2 4.5 2.1 10.7-2.3 14-4.5 3.3-10.7 2.3-14-2.3zm3.4-2.3c1.9 2.6 5.6 3.2 8.3 1.4 2.6-1.9 3.2-5.6 1.4-8.3-1.9-2.6-5.6-3.2-8.3-1.4-2.8 1.9-3.4 5.7-1.4 8.3zm-76-46.8c1.8-5.2 7.6-7.9 12.8-6.1s7.9 7.6 6.1 12.8c-1.8 5.2-7.6 7.9-12.8 6.1s-7.9-7.6-6.1-12.8zm3.9 1.4c-1.1 3 .5 6.5 3.6 7.6 3 1.1 6.5-.5 7.6-3.6 1.1-3-.5-6.5-3.6-7.6-3.2-1.1-6.5.5-7.6 3.6z" class="st29"/><path d="M-600.7 806.3c.1 1 .7 2 1.6 2.5l47.1 26.7c1.6.9 3.6.3 4.6-1.2.9-1.6.3-3.6-1.2-4.6l-47-26.7c-1.6-.9-3.6-.3-4.6 1.2-.4.7-.6 1.4-.5 2.1zm7.2 81.1c1 .3 2.1.2 3-.4l44.4-30.8c1.5-1 1.9-3.1.8-4.7-1-1.5-3.1-1.9-4.7-.8l-44.3 30.9c-1.5 1-1.9 3.1-.8 4.7.4.4 1 .8 1.6 1.1zm66.4 37.5c.8-.6 1.4-1.6 1.4-2.7l.2-54.1c0-1.8-1.5-3.3-3.3-3.3s-3.3 1.5-3.3 3.3l-.2 54.1c0 1.8 1.5 3.3 3.3 3.3.7.1 1.4-.2 1.9-.6z" class="st29"/><path d="M-530 871.6c-15.4-.1-27.8-12.7-27.7-28 0-7.5 3-14.5 8.3-19.6 5.3-5.3 12.4-8.1 19.7-8 7.5 0 14.5 3 19.6 8.3 5.3 5.3 8.1 12.4 8 19.7 0 7.5-3 14.5-8.3 19.6-4 3.9-9 6.6-14.5 7.6-1.5.3-3.3.5-5.1.4zm0-3zm-21.6-25c-.1 11.9 9.6 21.8 21.6 21.9 5.8 0 11.2-2.2 15.4-6.3 4.2-4 6.5-9.5 6.5-15.3s-2.2-11.2-6.3-15.4c-4-4.2-9.5-6.5-15.3-6.5-1.4 0-2.8.1-4.2.4-10 1.9-17.6 10.7-17.7 21.2z" class="st17"/><circle cx="-529.8" cy="843.7" r="24.8" class="st17"/><g opacity=".59"><path d="M-631.9 925.9s23.3 5.1 53.9-5.8c.2-.1.4-.2.6-.4 2.7-2 .8-7.6-2.2-6.2-16.7 8.1-69.6 9.8-52.3 12.4zm113.8-99.4c1.5 6.7 3.3 18.9 1.1 34-.4 2.6 2.8 4 4.6 2.1 4-4.4 8.5-11.3 8.3-20.9-.3-10-5.7-15.5-10-18.1-2-1.2-4.6.6-4 2.9z" class="st37"/><path fill="#fff" d="M-417.4 805.1c1 4.4 2.2 12.6.7 22.6-.3 1.7 1.8 2.7 3 1.4 2.6-2.8 5.7-7.5 5.5-13.9-.2-6.7-3.7-10.2-6.6-12-1.3-.8-2.9.3-2.6 1.9zm-82-79.4c.8 3.6 1.8 10.4.6 18.7-.2 1.4 1.5 2.2 2.5 1.2 2.2-2.3 4.7-6.3 4.6-11.4-.1-5.6-3.1-8.5-5.5-10-1.1-.7-2.4.2-2.2 1.5z" opacity=".44"/><path fill="#fff" d="M-441.1 917.3c.8 3.6 1.8 10.4.6 18.7-.2 1.4 1.5 2.2 2.5 1.2 2.2-2.3 4.7-6.3 4.6-11.4-.1-5.6-3.1-8.5-5.5-10-1.1-.8-2.5.2-2.2 1.5z" opacity=".43"/><path d="M-646.1 789.4s5.3 23.2 27.8 46.4c.2.2.4.3.6.4h.1c2.9 1.6 7.2-2.4 4.7-4.7-14.2-11.7-38.1-58.9-33.2-42.1zm129.8 184.8s16.9-16.7 24.5-48.2c.1-.2.1-.5 0-.7v-.1c-.2-3.4-5.9-4.9-6.4-1.4-2.4 18.2-29.8 63.5-18.1 50.4z" class="st37"/></g></g></g><path id="Camada_17" d="M274.1 149.4c.1 19.8-4.1 38.6-11.6 55.7-21.1 47.6-68.6 80.8-124 81-14.7.1-28.9-2.3-42.2-6.5-25-8-46.8-23-63.1-42.8-17-20.4-28.1-46-30.8-74-.4-4-.6-8.2-.6-12.3-.2-46.2 22.7-87.2 57.9-111.8 4.6-3.3 9.4-6.2 14.4-8.8 7-3.8 14.4-6.8 22-9.4 7.2-2.3 14.7-4 22.4-5.2 6.2-.8 12.5-1.3 18.9-1.4 25-.1 48.5 6.6 68.8 18.3 3.7 2.1 7.1 4.3 10.5 6.8 16.2 11.5 29.8 26.5 39.7 43.9 1.1 2 2.2 3.9 3.2 6 .8 1.8 1.7 3.5 2.5 5.3 2.6 5.8 4.8 11.7 6.6 17.8 2 6.8 3.5 13.9 4.3 21 .8 5.4 1.1 10.9 1.1 16.4z" class="st2"/><g id="Camada_5"><path d="M93.3 102.6L106 87l50.4 54.1-24.3 20.9z" class="st84"/><path d="M176 192.1l-43.3-45.9 65-80.1 33.4 50 33.5 50.9z" class="st84"/><path d="M163 108.7l-30.5 37.7 20.4 21.3zm23.8 19.3L163 108.4l34.7-42.3z" class="st46"/><path d="M152.9 167.4l23.1 24.7 13.3-64.3-36.4 39.6" class="st46"/><path d="M189.3 127.8l33.3 50.8-46.6 13.5z" class="st57"/><path d="M222.6 178.6l42-11.6-33.3-50.1zm-59.9-70.1l-9.6 59 29.3-32.2zm24.3 19.4l10.7-61.8 33.4 50z" class="st57"/><path d="M77.9 220.7l-22.1-25.9-21.3-20.1 30.3-37.5 34.7-42.3 33.7 50.8 33.4 49.9z" class="st4"/><path d="M64.8 137.1l-30.4 37.7 20.4 21.3zm68.4 8.6l-29.3 32.5 20.5 29.1zm-44.6 11l-23.8-19.6 34.7-42.2z" class="st3"/><path d="M54.8 196.1l22.4 25 11.4-64.4-33.8 39.4" class="st3"/><path fill="#f96464" d="M88.6 156.7l35.8 50.6-47.2 13.8zm35.8 50.6l42.1-11.6-33.3-50zm-59.6-70.2l-10 59 28.1-32.7zm23.8 19.6l10.9-61.8 33.7 50.8z"/><path fill="#0e6031" d="M209.3 241.8l-43.4-46 30.9-37.3 34.3-42.2 66.6 100.2-41.8 11.8z"/><path d="M196.6 158.4l-30.9 37.4 20.8 21.7zm68.1 8.5l-29.3 32.5 20.6 29.1zM220.4 178l-23.8-19.6 34.5-42.3z" class="st87"/><path d="M186.3 217.3l23.1 24.7 11-64.1-34.1 39.4" class="st87"/><path fill="#57e250" d="M220.4 177.9l35.6 50.6-46.6 13.5zm35.6 50.6l42-11.6-33.3-50zm-59.4-70.1l-10.1 58.9 28.2-32.7zm23.8 19.5l10.7-61.8 33.6 50.8z"/><path fill="#ba6f0c" d="M142.3 141.2L99.5 94.9l30.2-37.3 34.7-42.3L198 66.1l32.8 50-41.4 11.4z"/><path d="M153.7 77.1l35.6 50.7-47 13.5z" class="st47"/><path d="M129.7 57.6L99.5 94.9l20.1 21.7z" class="st90"/><path d="M189.3 127.8l41.8-11.7-33.1-50z" class="st47"/><path d="M198 66.1l-29.3 32.6 20.6 29.1zm-44.3 11l-24-19.5 34.7-42.3zm-34.1 39.5l22.7 24.6 11.4-64.1-34.1 39.5" class="st90"/><path d="M129.7 57.6l-10.1 59 28.2-32.8zm24 19.5l10.7-61.8L198 66.1z" class="st47"/><g><path fill="#d32a53" d="M120.6 267.2l-43.4-46.1 65.1-79.9 67 100.9-42.1 10.8z"/><path d="M107.8 183.6l-30.6 37.5 20.5 21.7zm68.2 8.5l-29.3 32.5 20.6 29.1zm-44.2 11l-24-19.5 34.5-42.4zm-34.1 39.7l23 24.8 11-64.2-34 39.4" class="st17"/><path d="M131.7 203.4l35.6 50.3-46.6 13.5zm35.6 50.3l42-11.6L176 192zm-59.5-70.1l-10 59.2L126 210zm23.9 19.4l10.6-61.8L176 192z" class="st25"/></g></g><g id="Camada_3_00000053532292409469242950000016703842928549579904_" class="st0"><path d="M-405.6 215.5l30.4 24.7 55.7-13.9" class="st92"/><path d="M-362 162.2l-13.4 78-13.9 80.9 111.8-31.7zm-27.3 158.9L-444 263l82-100.8" class="st92"/><path d="M-356.4 267.3l36.9-41-11 77.7-44.9-63.8-43 49.7 12.8-74.4 22.8 33.1" class="st92"/></g><image id="Camada_4" width="626" height="379" opacity=".31" overflow="visible" transform="matrix(-.7976 0 0 .7976 -161.126 18.42)" xlink:href="2F22E00A.jpg"/></svg>