<svg xmlns="http://www.w3.org/2000/svg" viewBox="0 0 300 300"><path fill="#008dd3" d="M290.3 149.4c.1 21.1-4.4 41.2-12.4 59.4-22.5 50.7-73.1 86.1-132.2 86.3-15.7.1-30.8-2.4-45-6.9-26.6-8.5-49.9-24.5-67.3-45.6-18.1-21.8-30-49-32.8-78.9-.4-4.3-.6-8.7-.6-13.1-.2-49.3 24.2-93 61.7-119.3 4.9-3.5 10-6.6 15.3-9.4 7.5-4 15.3-7.3 23.5-10 7.7-2.5 15.7-4.3 23.9-5.5 6.6-.9 13.3-1.4 20.1-1.5 26.7-.1 51.7 7 73.3 19.5 3.9 2.2 7.6 4.6 11.2 7.2 17.3 12.3 31.8 28.2 42.3 46.8 1.2 2.1 2.3 4.2 3.4 6.4.9 1.9 1.8 3.7 2.7 5.6 2.8 6.2 5.1 12.5 7 19 2.1 7.3 3.7 14.8 4.6 22.4.9 5.8 1.3 11.7 1.3 17.6z"/><path fill="#707070" fill-rule="evenodd" d="M277.5 90.3c-8.3 7.7-18.4 13.4-29.1 15.7 1.6 2.9 3.1 6 4.5 9.1 14.5 28 23.4 62 25 93.7-22.5 50.7-73.1 86.1-132.2 86.3-15.7.1-30.8-2.4-45-6.9-3-3.9-5.6-8.2-7.8-12.9-9.1-17.1-11.9-38.6-10.7-61 1-37.9 9.9-63.8 24.5-98 1.6-3.6 3.3-7.1 5.1-10.5-28.1-6-51.6-34.9-51.6-64.4 0-3.5.5-6.9 1.3-10.1C66.2 14.6 81 2.2 95.8.4c11.1-1.4 20.6 1.1 28.7 5.9 18.1 10.9 28.7 34.1 33 54.2 10.1-4.5 20.6-6.1 30.6-4.2 5.2.8 10.2 2.3 15 4.4 2.6-12.1 7.5-25.4 14.9-36.4C228.2 9 243.6-2 264.6.6 282.2 2.8 300 20 300 41.6c0 18.2-9 36.2-22.5 48.7z" clip-rule="evenodd"/><path fill="#b2b2b2" fill-rule="evenodd" d="M226.7 36.7c6-15.2 16.8-26.8 36.7-24.3 14.7 1.8 29.1 13.8 28.9 31.8-.2 18.8-11.5 38.1-26.9 48.3-30.1 19.8-52.3-21.6-38.7-55.8zm-93.1-.2c-6-15.2-16.8-26.8-36.7-24.4C82.2 13.9 67.8 25.9 68 43.9c.1 18.9 11.5 38.1 26.9 48.3 30.1 19.9 52.4-21.6 38.7-55.7z" clip-rule="evenodd"/><path fill="#c4eff6" fill-rule="evenodd" d="M144.6 118.2c3.9 0 7.1-3.1 7.1-7s-3.2-7-7.1-7c-3.9 0-7 3.1-7 7 0 3.8 3.1 7 7 7zm67.9 0c3.9 0 7.1-3.1 7.1-7s-3.2-7-7.1-7c-3.9 0-7 3.1-7 7 0 3.8 3.1 7 7 7z" clip-rule="evenodd"/><path fill="#ea8383" fill-rule="evenodd" d="M167.8 134.4h24.8l-12.5 12.7z" clip-rule="evenodd"/><path fill="#fff" d="M147.8 144.5l-29-12.7s12.6 13.2 29 12.7zm-.8 3.7l-31.2-5.4c0 .1 15.3 9.9 31.2 5.4zm-.9 4.1l-31.6 2.1s17.2 6 31.6-2.1zm68.5-7.8l29-12.7s-12.5 13.2-29 12.7zm.8 3.7l31.2-5.4c0 .1-15.3 9.9-31.2 5.4zm.9 4.1l31.6 2.1s-17.2 6-31.6-2.1z"/><path fill="#b2b2b2" d="M151.5 208.4c5 2.6 9.7 5.1 13.2 6l-10.1 1.5 7.7 7.4h-10.6l8.3 7.9c-44-11.6-43.5-40.7-8.5-22.8zm60.8-1.1c-5 2.6-10.1 4.7-13.6 5.6l9.8 1.7-6.5 6.8 8.2.5-6.9 7.7c45.3-11.9 43.2-39.8 9-22.3z"/></svg>