<svg xmlns="http://www.w3.org/2000/svg" id="Layer_1" x="0" y="0" version="1.1" viewBox="0 0 300 300" xml:space="preserve"><style>.st2{fill:#3b3e3f}.st3{fill:#c4eff6}.st6{fill:#ed9751}</style><path fill="#008dd3" d="M293.5 150c0 76.5-58.6 139.3-133.4 145.9-2.6.2-5.3.4-8 .5-1.7.1-3.4.1-5.1.1h-1.7c-21.9-.2-42.6-5.3-61.2-14.2-4.9-2.3-9.6-4.9-14.1-7.7-4-2.5-7.9-5.2-11.7-8-5.5-4.2-10.8-8.8-15.6-13.8-7.7-7.8-14.6-16.6-20.4-26C8.4 204.5.5 178.2.5 150 .5 69.1 66.1 3.5 147 3.5S293.5 69.1 293.5 150z"/><path fill="#059bd6" d="M135 183.4l-65 91.2c-4-2.5-7.9-5.2-11.7-8-5.5-4.2-10.8-8.8-15.6-13.8-7.7-7.8-14.6-16.6-20.4-26L128 183.9l7-.5z"/><g id="XMLID_1_"><g id="plane_1_"><g id="plane_2_"><g id="XMLID_46_"><g id="XMLID_50_"><g id="XMLID_51_"><path id="XMLID_52_" d="M233.8 109.6c.2-.1.5-.2.7-.3L278.3 86c2-1.1 2.8-3.6 1.7-5.7-1.1-2-3.6-2.8-5.7-1.7l-43.7 23.3c-2 1.1-2.8 3.6-1.7 5.7.9 1.8 3.1 2.6 4.9 2z" class="st2"/></g></g><g id="XMLID_47_"><g id="XMLID_48_"><path id="XMLID_49_" d="M299.5 141.2l-26.6-57.1-32.7-53.9c-.1-.2-.3 0-.3.1l26.6 57.1 32.7 53.9c.1.2.4.1.3-.1z" class="st3"/></g></g></g><g id="XMLID_36_"><g id="XMLID_44_"><path id="XMLID_45_" d="M238 168l-7.7-2.9-24.8-9.4-1.2-.5-4.7-1.8 1.3-3.5 7.8 3 1.2.4 21.9 8.3 2.5 1 5.3 2c-.7 1.1-1.2 2.2-1.6 3.4z" class="st2"/></g><g id="XMLID_42_"><path id="XMLID_43_" d="M249.3 161.5c-2.2-.6-4.6-.3-6.7.8-1.2.6-2.1 1.4-2.9 2.4-.8 1-1.4 2.1-1.7 3.3l-3.6-5.3-1.6-2.4-10-14.7-2.6-3.8-8.7-12.8c-2-3-1.3-7 1.7-9s7-1.3 9 1.7l10.3 15.1 1.9 2.7 9.4 13.7 5.5 8.3z" class="st2"/></g><g id="XMLID_37_"><g id="XMLID_40_"><path id="XMLID_41_" d="M262.6 162.3c-3.7-7-11.5-10.4-18.8-9-1.7.3-3.4.9-5 1.8-2.5 1.3-4.5 3.1-6 5.2-.4.5-.7.9-.9 1.4-.6 1.1-1.1 2.2-1.5 3.4-1.4 4.4-1.1 9.3 1.2 13.7 4.6 8.6 15.2 11.8 23.8 7.2 8.5-4.5 11.7-15.1 7.2-23.7zm-11.1 16.5c-4.6 2.4-10.3.7-12.7-3.9-1.2-2.2-1.4-4.7-.7-7 .3-1.2.9-2.3 1.7-3.3.8-1 1.7-1.8 2.9-2.4 2.1-1.1 4.5-1.4 6.7-.8 2.5.6 4.7 2.2 6 4.7 2.4 4.6.6 10.3-3.9 12.7z" class="st2"/></g></g></g><g id="XMLID_33_"><g id="XMLID_34_"><path id="XMLID_35_" d="M235.7 75.7h24.8v43.2h-24.8z" class="st2" transform="rotate(151.909 248.137 97.314)"/></g></g><g id="XMLID_28_"><g id="XMLID_31_"><path id="XMLID_32_" d="M105.9 192.5l-.3 3-.7 6.9-.4 3.9-.4 3.5c-.9-.9-2.3-1.2-3.5-.5-.1 0-.1.1-.2.1l.4-3.5.3-2.6.6-6.1.5-5c.1-1 1-1.8 2-1.6 1-.1 1.8.9 1.7 1.9z" class="st2"/></g><g id="XMLID_29_"><path id="XMLID_30_" d="M107.3 208.9c-.7-1.2-1.7-2.2-2.9-2.7-1.1-.5-2.4-.7-3.7-.4-.5.1-1.1.3-1.6.6-3 1.6-4.1 5.2-2.5 8.2 1.6 2.9 5.2 4.1 8.2 2.5 3-1.5 4.1-5.2 2.5-8.2zm-4 5.5c-1.5.8-3.2.2-4-1.2-.7-1.4-.3-3 1-3.9.1-.1.1-.1.2-.1 1.2-.6 2.6-.4 3.5.5.2.2.4.4.5.7.8 1.4.3 3.2-1.2 4z" class="st2"/></g></g><g id="XMLID_15_"><g id="XMLID_25_"><g id="XMLID_26_"><path id="XMLID_27_" d="M159.6 115.3l8.2-4.4-23.7-12.8z" class="st3"/></g></g><g id="XMLID_16_"><g id="XMLID_17_"><g id="XMLID_21_"><g id="XMLID_22_"><g id="XMLID_23_"><path id="XMLID_24_" d="M44.3 186.9c.8 1.5 1.7 3 2.7 4.4 1 1.5 2.1 2.9 3.4 4.2 1.2 1.3 2.6 2.6 4 3.7 1.6 1.2 3.3 2.3 5.2 3.2 2.1 1 4.3 1.7 6.8 2.2 2.9.6 6.2.7 9.7.4 3-.3 6.1-.9 9.6-1.9l179.5-79.3L236 69l-79 42.6 2.1 4c2.6 4.8 1.3 10.8-3.1 14.1l-14.2 10.8c-5.5 4.2-13.4 2.4-16.6-3.6l-1.5-2.8c-1.2-2.2-3.8-3-6-1.8l-23 17.2c-53.3 21.7-19.2-34.6-47.6-17.3-3.5 2.2-6.2 6-7.9 10.3-.9 2.2-1.6 4.6-2.1 6.9-.4 2.2-.7 4.4-.8 6.4v.7c0 1 .1 2.8.3 5 .2 1.6.4 3.5.8 5.5.3 1.6.7 3.4 1.1 5.2.4 1.7.9 3.4 1.5 5.2.5 1.6 1.1 3.2 1.8 4.8.9 1.5 1.7 3.1 2.5 4.7z" class="st6"/></g></g></g><g id="XMLID_18_"><g id="XMLID_19_"><path id="XMLID_20_" d="M76.1 204.8c3-.3 6.1-.9 9.6-1.9l56.2-14.9 123.3-64.4-16.4-30.8-172.7 112z" class="st3"/></g></g></g></g></g><g id="XMLID_2_"><g id="XMLID_12_"><g id="XMLID_13_"><path id="XMLID_14_" d="M118.1 202.4c-.8.4-1.7-.3-1.5-1.2 2.4-12 18.8-28.5 42-40.9 23.1-12.4 46-16.8 57.3-12.1.8.3.9 1.5.1 1.9l-97.9 52.3z" class="st6"/></g></g><g id="XMLID_9_"><g id="XMLID_10_"><path id="XMLID_11_" d="M184.3 143c1.2-.4 2.1-1.4 2.2-2.7l9.4-87.9-6.5-.7-9.4 87.9c-.2 1.8 1.1 3.4 2.9 3.6.5 0 1-.1 1.4-.2z" class="st2"/></g></g><g id="XMLID_6_"><g id="XMLID_7_"><path id="XMLID_8_" d="M117.9 178.4c1.2-.4 2.1-1.4 2.2-2.7l9.4-87.9c.2-1.8-1.1-3.4-2.9-3.6-1.8-.2-3.4 1.1-3.6 2.9l-9.4 87.9c-.2 1.8 1.1 3.4 2.9 3.6.5 0 .9 0 1.4-.2z" class="st2"/></g></g><g id="XMLID_3_"><g id="XMLID_4_"><path id="XMLID_5_" d="M89.6 110.3c-.9.5-1.9-.3-1.7-1.3 2.8-13.6 21.3-32.3 47.6-46.3 26.2-14 52.1-19 65-13.7.9.4 1 1.7.1 2.2l-111 59.1z" class="st6"/></g></g></g></g></g></g><path fill="#3b3e3f" d="M163.1 108.3l21.6-11.6.3-3 3.8-1.1-.2 2-3 39.2-.7 9-.5 7-.8 9.8-.5 6.8-.1 1.4-64.8 34.6c-.8.4-1.7-.3-1.5-1.2.5-2.3 1.5-4.8 2.9-7.4l-14.1 3.8-.3 3.1-3.7-.3-5-.4v-1.9l.2-6.6 1.1-44.1 20.2-15.1c.2-.1.3-.2.5-.2l2.1-20.2 6.7-1.9-2.7 25.4.8 1.6c3.2 6.1 11.2 7.8 16.6 3.6l14.2-10.8c4.4-3.3 5.7-9.3 3.1-14.1l-1.1-2-1.1-2 6-3.4z" opacity=".2"/><g id="XMLID_53_"><g id="XMLID_66_"><path id="XMLID_67_" d="M47 153.7L36.5 159c-.1-1.1-.1-1.9-.1-2.6v-.7c0-.4 0-.7.1-1.1l8.8-4.4 1.7 3.5z" class="st3"/></g><g id="XMLID_64_"><path id="XMLID_65_" d="M50.5 160.7l-12.9 6.5v-.2c-.2-1.3-.4-2.6-.6-3.7l11.9-6 1.6 3.4z" class="st3"/></g><g id="XMLID_62_"><path id="XMLID_63_" d="M54.1 167.6L39.5 175c-.3-1-.6-1.9-.8-2.8-.1-.3-.2-.6-.2-.9l13.9-7 1.7 3.3z" class="st3"/></g><g id="XMLID_60_"><path id="XMLID_61_" d="M57.6 174.6l-15.4 7.8c0-.1-.1-.2-.1-.2-.5-1.1-.9-2.2-1.3-3.3l15.1-7.6 1.7 3.3z" class="st3"/></g><g id="XMLID_58_"><path id="XMLID_59_" d="M61.1 181.5l-15.3 7.7c-.5-.8-1-1.6-1.4-2.4-.2-.3-.3-.6-.5-.9l15.5-7.8 1.7 3.4z" class="st3"/></g><g id="XMLID_56_"><path id="XMLID_57_" d="M64.6 188.5l-14 7.1-.2-.2c-.8-.9-1.6-1.9-2.4-2.8l14.9-7.5 1.7 3.4z" class="st3"/></g><g id="XMLID_54_"><path id="XMLID_55_" d="M68.1 195.5L57.2 201c-1-.6-1.9-1.2-2.8-1.9-.3-.2-.5-.4-.8-.6l12.7-6.4 1.8 3.4z" class="st3"/></g></g></svg>