<svg xmlns="http://www.w3.org/2000/svg" id="Camada_1" x="0" y="0" version="1.1" viewBox="0 0 318 300" xml:space="preserve"><style>.st3{fill:#ff8da4}.st5{fill:#828d8e}.st10,.st8{stroke-width:2;stroke-miterlimit:10}.st8{fill:#ef3030;stroke:#ef3030}.st10{fill:none;stroke:#545454;stroke-linecap:round;stroke-linejoin:round}.st13{fill:#545454}.st16{fill:none;stroke-linecap:round;stroke-linejoin:round;stroke-miterlimit:10;opacity:.31;stroke:#fff;stroke-width:6;enable-background:new}</style><path id="Camada_10_00000011026737342184732490000017020885724496390315_" fill="#008dd3" d="M289.7 151c.1 20.9-4.3 40.7-12.2 58.7-22.2 50.2-72.3 85.1-130.6 85.3-15.5.1-30.4-2.4-44.5-6.8-26.3-8.4-49.3-24.2-66.5-45.1-17.9-21.5-29.6-48.5-32.5-78-.4-4.2-.6-8.6-.6-13-.2-48.7 23.9-91.9 61-117.9 4.8-3.5 9.9-6.5 15.2-9.3 7.4-4 15.2-7.2 23.2-9.9 7.6-2.4 15.5-4.2 23.6-5.5 6.5-.8 13.2-1.4 19.9-1.5 26.3-.1 51.1 7 72.5 19.3 3.9 2.2 7.5 4.5 11.1 7.2 17.1 12.1 31.4 27.9 41.8 46.3 1.2 2.1 2.3 4.1 3.4 6.3.8 1.9 1.8 3.7 2.6 5.6 2.7 6.1 5.1 12.3 7 18.8 2.1 7.2 3.7 14.6 4.5 22.1.7 5.7 1.1 11.5 1.1 17.4z"/><path fill="#00bf5f" d="M55.2 233.5h247.7c2.9 0 5.7-1.9 6.4-4.7 1.5-5.9-6.7-10.3-12.9-12-10.6-2.5-21.4-1.9-32.2-2.4 9.1-6.3 17.3-13 23.2-22.6 4.4-7.6 12.2-23.7-2.1-25.1-12.1-.6-25.5 7.6-36.4 12.4 6.3-8.7 13.5-18.9 15.3-29.7 2.4-14.5-11.3-13.5-20.9-9.5 1.8-9.2 1.2-40.6-15.7-27-10.8 8.5-19 21.6-26.5 32.9-5.7-10.3-17.5-26.4-31.1-25.3-13.6 1.1-6.4 25.4-4.8 33-5.7-5.7-21.5-18.3-28.9-8.4-7.1 9.5-.6 27.7 3.6 37.1-19.9-11.3-46.8-25-70.4-21.8-3.9.5-9.2 1.8-10.7 6-2 5.5 3.4 11.4 6.9 15 8.9 9.1 19.8 16.4 30.8 22.8-11.6.7-23.3 1.1-34.7 3.2-6.8.9-19.4 2-23.2 9-3.8 7.2 8 13.5 13.8 16.2.8.7 1.8.9 2.8.9z"/><path fill="#54c654" d="M78.6 274.5c.3.2.6.5.9.7h134.8c7 0 14-1.8 19.9-5.6 4.2-2.7 7.4-6.2 5.5-10.1-3.7-8-20.4-7.5-27.5-7.5 5.9-10.2-7.2-11.8-14.2-10.9 5.1-14.7-14.2-11.6-22.1-9.2.6-8.6-4.9-13-13.2-12.2.1-5.1-.8-35.6-12.8-24.9-9 8-14.2 23.5-14.8 35.2-5.1-4.4-12.2-8.8-19.2-8-11.1 1.3-6.9 13.9-3.6 20.5-9.3-1.4-29.3 1.5-19.8 15.3-6.5 1.7-24.5 8.2-13.9 16.7.3.3-2.1-1.7 0 0z"/><path d="M279.7 52.6c-.8 0-1.6-.2-2.3-.7-29.1-23.9-29.3-9.7-29.3-9.7 8.5 24.4 21.1 31.9 27.9 34.2 1.2.4 1.9 1.3 2.1 2.4 4.9-5.9 3.1-19.1 1.6-26.2z" class="st3"/><path fill="#ef3030" d="M309.3 63.5c3-4.9 9.8-20.7-11.9-42.9-16.4-16.8-35.9-17.1-48.2-15-5.7 1-7.7 8-3.4 11.8 17.5 15.5 24.6 15.2 24.6 15.2 14.1 2.3 13.7 12 12.1 17.7-.4 1.3-1.5 2.1-2.8 2.2 1.4 7.1 3.2 20.4-1.5 26.1.2.8 0 1.8-.6 2.5l-27.4 32.3 11.3 10.3 37.8-29c18.1-11.4 12.8-23.8 10.1-28.1-.6-.9-.7-2.1-.1-3.1z"/><path d="M146.7 109.5c13.8 24.2 21.8 24.5 21.8 24.5s8.3-13.6 18.2-21.7c0 0-13.5-12-25.3-10.5-11.9 1.6-14.7-2.5-16.4-.6-1.8 1.9 1.7 8.3 1.7 8.3z" class="st5"/><path fill="none" stroke="#545454" stroke-miterlimit="10" stroke-width="2" d="M178.7 114.7s-8.6-10.1-22.3-7c-1.9.4-3 2.3-2.5 4.1 1.3 4.4 4.8 9.1 12.4 15.5"/><path fill="#545454" stroke="#545454" stroke-linecap="round" stroke-linejoin="round" stroke-miterlimit="10" d="M179.2 199.8s-10.1.4-9.7 8.8c0 0 .4-5.8 11.9-7.4 0 0-6.8 2-5.8 10.5 0 0 2.6-10.4 7.7-10.3 0 0-3.4 5.3 0 11.8 0 0-1.4-7.1 3.6-10.6"/><ellipse cx="186" cy="195.5" class="st5" rx="10.1" ry="7.9" transform="rotate(-59.121 186.06 195.535)"/><path d="M306.6 140.4c7.1-9 1.5-21.4 1.5-21.4-11.8-8.4-24.2.3-24.2.3-10.5 4.9-18.2 19.3-18.2 19.3l1 5.7s17.2-12.6 17.7-23.8c0 0 11.7 3.7 22.8-.4-.1 0-5 16.1-.6 20.3z" class="st8"/><path fill="#ff8da4" stroke="#ff8da4" stroke-miterlimit="10" d="M305.9 160.8c9.5-6.5 7.8-20 7.8-20-8.8-11.5-23.2-6.9-23.2-6.9-11.5 1.6-23.1 13-23.1 13l-.7 5.7s20.2-6.9 23.9-17.5c0 0 10.1 7.1 21.9 6.3-.1.2-9.6 14.1-6.6 19.4z"/><path d="M297.4 179.2c10.6-4.4 11.8-17.9 11.8-17.9-6.2-13.1-21.3-11.6-21.3-11.6-11.6-.9-25.3 7.9-25.3 7.9l-1.9 5.5s21.2-2.5 27.1-12.1c0 0 8.4 9 20.1 10.8-.2 0-12.3 11.6-10.5 17.4z" class="st8"/><path d="M221.6 116.2s3.9-23.6.2-37.5c-.9-3.5-.9-6-.3-7.9 2-6.3 11.5-4.1 11 2.6-.2 2-.7 4.6-1.9 7.8-4.8 13.4-3.6 36.1-3.6 36.1l-5.4-1.1z" class="st3"/><path d="M171.9 139.5l-15.1-7.7c-12.7-8.7-24.1-22.3-30.4-29.5-2.3-2.7-14.1-6.5-53.4-9.9-13.8-1.2-18.2-1.3-22.3 1.6C20.8 115.8 7 141.3 4 146.6c-1.5 2.6.3 3.1 1 2.7 3.6-2.2 15.6-5.9 23.7 4.6 5.8 7.5 10.7 15.6 11.6 31.5.1 1.2 1.1 1.9 1.7.6 6.9-14.9 21.8-14 26.4-12.4 9.3 3.2 18.9 13.5 21.7 25.1.3 1.3 1.2 1.6 1.7.1 3.8-9.9 14.5-20.4 22.2-22.3 11.1-2.8 15.4.8 23.5 8.2.4.4.7.2.9-.4 6.8-16.2 22.8-19.5 28.7-17.3l4.8-27.5z" class="st5"/><path d="M12.1 141.4s27.9-42 48.3-43.5c14.8-1.1 41 3.7 54.2 6.3 5.1 1 9.8 3.6 13.7 7.6 10.1 10.3 28.2 34.2 36.2 31.2m-78.2-42.8c-36 8.3-42.2 73.8-42.2 73.8m48.5 15.6s7.9-47.5-5.5-89.5m49.8 76.5s-10.1-59.9-49.8-76.5" class="st10"/><path fill="#9ea8a9" d="M216.1 143.3c-18.5-15.5-19.7-33.9-19-42.8l-6.9 2.6c-24 9.1-36.1 35.9-27 59.9 9.1 24 35.9 36.1 59.9 27l4.3-1.6c4-13.6 4.8-31.6-11.3-45.1z"/><path fill="#ff4d4d" d="M265.8 124.1c-9.1-24-35.9-36.1-59.9-27l-8.7 3.3c-.7 8.9.5 27.3 19 42.8 16.1 13.5 15.3 31.6 11.3 45.1l11.4-4.3c23.9-9 36-35.9 26.9-59.9z"/><circle cx="183.2" cy="134.2" r="3.8" class="st13"/><circle cx="228" cy="116.9" r="3.8" class="st13"/><path d="M219.3 126.8c2.1 5.3-.5 11.3-5.8 13.4s-11.3-.4-13.4-5.7" class="st10"/><path fill="none" stroke="#828d8e" stroke-linecap="round" stroke-linejoin="round" stroke-miterlimit="10" d="M170.7 154.1s-2.7 3.1-.5 6.2m6.5 4s-2.7 3.1-.5 6.2m7.3-16.4s-2.7 3.1-.5 6.2m1.2 13.6s-2.7 3.1-.5 6.2m10.3-1.8s-2.7 3.1-.5 6.2m-2.6-19.6s-2.7 3.1-.5 6.2"/><path fill="none" stroke="#ff8da4" stroke-linecap="round" stroke-linejoin="round" stroke-miterlimit="10" d="M262.3 142.9s.2-4-3.4-5.2m.3-8.4s.2-4-3.4-5.2m6.3 31.2s.2-4-3.4-5.2m-.7 14.6s.2-4-3.4-5.2m-2.3-21.9s.2-4-3.4-5.2m5.1 18s.2-4-3.4-5.2"/><path d="M209.3 103.1c3.3-1 7.9-2.4 12-2.4 17.6 0 23.1 6.6 30.3 13.7" class="st16"/><path fill="none" stroke="#fff" stroke-linecap="round" stroke-linejoin="round" stroke-miterlimit="10" stroke-width="3" d="M178 247.4c1.4-1 3.5-2.3 5.2-2.6 7.5-1.1 9.3 3.6 11.9 8.5m-43.3-18.8c1.4-1 3.5-2.3 5.2-2.6 7.5-1.1 9.3 3.6 11.9 8.5m51.3-40.5c1.4-1 3.5-2.3 5.2-2.6 7.5-1.1 9.3 3.6 11.9 8.5m1.2 14.9c1.4-1 3.5-2.3 5.2-2.6 7.5-1.1 9.3 3.6 11.9 8.5m2.5-40.4c1.4-1 3.5-2.3 5.2-2.6 7.5-1.1 9.3 3.6 11.9 8.5" opacity=".31"/><path d="M253 10.8c10.3-1.3 20.8 1.6 24.5 3.4 15.8 8 25 21.3 28.2 30.9" class="st16"/></svg>