<?xml version="1.0" encoding="utf-8"?>
<!-- Generator: Adobe Illustrator 22.0.1, SVG Export Plug-In . SVG Version: 6.00 Build 0)  -->
<svg version="1.1" id="Layer_1" xmlns="http://www.w3.org/2000/svg" xmlns:xlink="http://www.w3.org/1999/xlink" x="0px" y="0px"
	 viewBox="0 0 300 300" style="enable-background:new 0 0 300 300;" xml:space="preserve">
<style type="text/css">
	.st0{fill:#008DD3;}
	.st1{fill:#3B3E3F;}
	.st2{fill:#C4EFF6;}
	.st3{fill:#391815;}
	.st4{fill:#FFFFFF;}
	.st5{fill:#EF524F;}
	.st6{opacity:0.2;fill:#3B3E3F;}
</style>
<g>
	<g>
		<g>
			<path class="st0" d="M293.6,150c0,76.6-58.7,139.4-133.5,146.1c-2.6,0.2-5.3,0.4-8,0.5c-1.7,0.1-3.4,0.1-5.2,0.1
				c-0.6,0-1.1,0-1.7,0c-21.9-0.2-42.7-5.3-61.2-14.2c-9.2-4.4-17.8-9.7-25.9-15.8c-5.5-4.2-10.8-8.8-15.7-13.8
				C16.4,226.4,0.3,190.1,0.3,150C0.3,69,66,3.4,147,3.4C228,3.4,293.6,69,293.6,150z"/>
		</g>
	</g>
	<g id="XMLID_8215_">
		<g id="plane_225_">
			<g id="plane_227_">
				<g id="XMLID_9565_">
					<g id="XMLID_9569_">
						<g id="XMLID_9570_">
							<path id="XMLID_9571_" class="st1" d="M233.9,109.6c0.2-0.1,0.5-0.2,0.7-0.3l43.8-23.4c2-1.1,2.8-3.6,1.7-5.7
								c-1.1-2-3.6-2.8-5.7-1.7l-43.8,23.4c-2,1.1-2.8,3.6-1.7,5.7C229.9,109.4,232,110.2,233.9,109.6z"/>
						</g>
					</g>
					<g id="XMLID_9566_">
						<g id="XMLID_9567_">
							<path id="XMLID_9568_" class="st2" d="M299.7,141.2L273,84l-32.7-53.9c-0.1-0.2-0.3,0-0.3,0.1l26.6,57.2l32.7,53.9
								C299.5,141.5,299.7,141.4,299.7,141.2z"/>
						</g>
					</g>
				</g>
				<g id="XMLID_9551_">
					<g id="XMLID_9562_">
						<g id="XMLID_9563_">
							<path class="st1" d="M238.1,168L238.1,168L238.1,168l-7.7-2.9l-24.8-9.4l-1.2-0.5l-4.8-1.8l1.3-3.5l7.8,3l1.2,0.4l22,8.3
								l2.6,1l5.3,2C239,165.7,238.5,166.8,238.1,168z"/>
						</g>
					</g>
					<g id="XMLID_9559_">
						<g id="XMLID_9560_">
							<path class="st1" d="M249.5,161.5c-2.2-0.6-4.6-0.3-6.7,0.8c-1.2,0.6-2.1,1.4-2.9,2.4c-0.8,1-1.4,2.1-1.7,3.3l-3.6-5.3
								l-1.6-2.4l-10-14.7l-2.6-3.8l-8.8-12.9c-2-3-1.3-7,1.7-9.1c3-2,7-1.3,9.1,1.7l10.3,15.1l1.9,2.7l9.4,13.8L249.5,161.5z"/>
						</g>
					</g>
					<g id="XMLID_9552_">
						<g id="XMLID_9556_">
							<g id="XMLID_9557_">
								<path class="st1" d="M262.7,162.3c-3.7-7-11.5-10.4-18.8-9c-1.7,0.3-3.4,0.9-5,1.8c-2.5,1.3-4.5,3.1-6,5.2
									c-0.4,0.5-0.7,0.9-0.9,1.4c-0.6,1.1-1.1,2.2-1.5,3.4c-1.4,4.4-1.1,9.4,1.2,13.8c4.6,8.6,15.2,11.8,23.8,7.2
									C264,181.5,267.3,170.9,262.7,162.3z M251.6,178.9c-4.6,2.4-10.3,0.7-12.7-3.9c-1.2-2.2-1.4-4.7-0.7-7c0,0,0,0,0,0
									c0.3-1.2,0.9-2.3,1.7-3.3c0.8-1,1.7-1.8,2.9-2.4c2.1-1.1,4.5-1.4,6.7-0.8c2.5,0.6,4.7,2.2,6,4.7
									C257.9,170.7,256.2,176.4,251.6,178.9z"/>
								<path class="st3" d="M238.1,168L238.1,168C238.1,168,238.1,168,238.1,168L238.1,168z"/>
							</g>
						</g>
						<g id="XMLID_9553_">
							<g id="XMLID_9554_">
								<path class="st4" d="M238.1,168L238.1,168C238.1,168,238.1,168,238.1,168L238.1,168z"/>
							</g>
						</g>
					</g>
				</g>
				<g id="XMLID_9548_">
					<g id="XMLID_9549_">
						
							<rect id="XMLID_9550_" x="235.8" y="75.7" transform="matrix(-0.8822 0.4709 -0.4709 -0.8822 513.0394 66.1623)" class="st1" width="24.8" height="43.2"/>
					</g>
				</g>
				<g id="XMLID_9538_">
					<g id="XMLID_9545_">
						<g id="XMLID_9546_">
							<path class="st1" d="M105.8,192.5l-0.2,1.5l-0.2,1.6l-0.2,2.1l-0.3,3.1l-0.2,1.7l-0.4,3.9l-0.4,3.5c-0.9-0.9-2.3-1.2-3.5-0.5
								c-0.1,0-0.1,0.1-0.2,0.1l0.4-3.5l0.3-2.6l0.3-2.8l0.2-1.8l0.2-1.5l0.2-1.4l0.4-3.6c0.1-1,1-1.8,2-1.7
								C105.2,190.6,105.9,191.5,105.8,192.5z"/>
						</g>
					</g>
					<g id="XMLID_9542_">
						<g id="XMLID_9543_">
							<path class="st1" d="M107.2,209c-0.7-1.2-1.7-2.2-2.9-2.7c-1.2-0.5-2.4-0.7-3.7-0.4c-0.5,0.1-1.1,0.3-1.6,0.6
								c-3,1.6-4.1,5.2-2.5,8.2c1.6,3,5.2,4.1,8.2,2.5C107.7,215.6,108.8,211.9,107.2,209z M103.3,214.5c-1.5,0.8-3.2,0.2-4-1.2
								c-0.7-1.4-0.3-3,1-3.9c0.1-0.1,0.1-0.1,0.2-0.1c1.2-0.6,2.6-0.4,3.5,0.5c0.2,0.2,0.4,0.4,0.5,0.7
								C105.3,211.9,104.7,213.7,103.3,214.5z"/>
						</g>
					</g>
				</g>
				<g id="XMLID_9422_">
					<g id="XMLID_9535_">
						<g id="XMLID_9536_">
							<polygon class="st2" points="167.9,110.9 159.7,115.3 158.1,113.5 158.1,113.5 149.2,103.7 144.1,98 152.8,102.7 
								163.1,108.3 							"/>
						</g>
					</g>
					<g id="XMLID_9423_">
						<g id="XMLID_9527_">
							<g id="XMLID_9531_">
								<g id="XMLID_9532_">
									<g id="XMLID_9533_">
										<path class="st5" d="M265.2,123.5l-32,14.1l-12.1,5.4l-9.2,4.1h0l-8.6,3.8l-3.2,1.4h0l-16.5,7.3l-57.8,25.5h0l-20.1,8.9
											l-3.9,1.7l-5.5,2.4l-10.7,4.7c-3.4,1-6.6,1.7-9.6,2c-3.5,0.3-6.7,0.2-9.7-0.4c-2.5-0.4-4.7-1.2-6.8-2.2
											c-0.8-0.4-1.6-0.8-2.4-1.3c-1-0.6-1.9-1.2-2.8-1.9c-0.3-0.2-0.5-0.4-0.8-0.6c-1.1-0.9-2.1-1.8-3.1-2.9
											c-0.1-0.1-0.1-0.1-0.2-0.2c-0.8-0.9-1.6-1.9-2.4-2.8c-0.3-0.4-0.7-0.9-1-1.3c-0.4-0.6-0.9-1.3-1.3-1.9
											c-0.5-0.8-1-1.6-1.4-2.4c-0.2-0.3-0.3-0.6-0.5-0.9c-0.6-1.2-1.2-2.4-1.7-3.6c0-0.1-0.1-0.2-0.1-0.2
											c-0.5-1.1-0.9-2.2-1.3-3.3c-0.2-0.5-0.4-1-0.5-1.5c-0.3-0.8-0.5-1.6-0.7-2.3c-0.3-1-0.6-1.9-0.8-2.8
											c-0.1-0.3-0.2-0.6-0.2-0.9c-0.3-1.4-0.6-2.7-0.9-4c0-0.1,0-0.2,0-0.2c-0.2-1.3-0.4-2.6-0.6-3.7c-0.1-0.6-0.2-1.2-0.2-1.8
											c-0.1-0.9-0.2-1.7-0.2-2.4c-0.1-1.1-0.1-1.9-0.1-2.6c0-0.2,0-0.4,0-0.7c0-0.4,0-0.7,0.1-1.1c0.1-1.7,0.3-3.5,0.7-5.3
											c0.5-2.3,1.2-4.7,2.1-6.9c1.8-4.3,4.4-8.1,7.9-10.3c28.4-17.3-5.7,39.1,47.6,17.3l2.8-2.1l20.2-15.1
											c0.2-0.1,0.3-0.2,0.5-0.2c2.1-0.8,4.5,0,5.6,2.1l0.6,1.2l0.8,1.6c3.2,6.1,11.2,7.8,16.7,3.6l14.2-10.8
											c4.4-3.3,5.7-9.3,3.1-14.2l-1.1-2l0,0l-1-2l6-3.3l21.6-11.6l4-2.1l3-1.6l44.5-24l4.3,8.1l8.2,15.4l0.2,0.4l3.7,7l8.2,15.4
											v0L265.2,123.5z"/>
									</g>
								</g>
							</g>
							<g id="XMLID_9528_">
								<g id="XMLID_9529_">
									<path class="st2" d="M265.2,123.5l-30.7,16l-11.6,6.1l-6.3,3.3l-7.7,4l-4.4,2.3l-21.3,11.1L141.8,188l-22.4,5.9l-14.1,3.8
										l-3.9,1l-5.2,1.4l-10.7,2.8c-3.4,1-6.6,1.7-9.6,2l20.4-13.3l20-13l3.5-2.3l60.4-39.2l5.3-3.4l1.8-1.2v0l41.1-26.7l7.7-5
										l12.7-8.2l3.7,7l8.2,15.4v0L265.2,123.5z"/>
								</g>
							</g>
						</g>
					</g>
				</g>
				<g id="XMLID_9409_">
					<g id="XMLID_9416_">
						<g id="XMLID_9417_">
							<path class="st1" d="M196,52.2l-0.1,1.3l-4.2,39.4l-4.2,39.7l-0.8,7.6c-0.1,1.1-0.8,2-1.7,2.5c-0.2,0.1-0.4,0.2-0.6,0.3
								c-0.4,0.1-0.9,0.2-1.4,0.1c-1.8-0.2-3.1-1.8-2.9-3.6l0.3-2.4l4.3-40.5l0.3-3l3.9-36.4l0.6-5.7L196,52.2z"/>
						</g>
					</g>
					<g id="XMLID_9413_">
						<g id="XMLID_9414_">
							<path class="st1" d="M129.4,87.7l-0.1,1.2v0l-2.2,21l-2.7,25.4l-4.3,40.4c0,0.2-0.1,0.4-0.1,0.6c-0.3,1-1.1,1.8-2.1,2.1
								c-0.4,0.1-0.9,0.2-1.4,0.1h0c-1.8-0.2-3.1-1.8-2.9-3.6l4.6-42.9l2.2-20.2l2-19.2L123,87c0.2-1.8,1.8-3.1,3.6-2.9
								C128.3,84.3,129.6,85.9,129.4,87.7z"/>
						</g>
					</g>
					<g id="XMLID_9410_">
						<g id="XMLID_9411_">
							<path id="XMLID_9412_" class="st5" d="M89.5,110.2c-0.9,0.5-1.9-0.3-1.7-1.3c2.8-13.7,21.4-32.4,47.6-46.4
								c26.2-14,52.1-19,65-13.7c0.9,0.4,1,1.7,0.1,2.2L89.5,110.2z"/>
						</g>
					</g>
					<g id="XMLID_9419_">
						<g id="XMLID_9420_">
							<path class="st5" d="M216,150.2l-6.1,3.2l-4.4,2.3l-22.7,12.1L118,202.5c-0.8,0.4-1.7-0.3-1.5-1.2c0.5-2.3,1.5-4.8,2.9-7.4
								c1.6-2.8,3.8-5.8,6.4-8.8h0c7.5-8.5,18.9-17.3,32.7-24.7c8.9-4.7,17.7-8.3,25.8-10.6c10.9-3.1,20.5-4.1,27.5-2.7h0
								c1.5,0.3,2.8,0.7,4,1.2c0.3,0.1,0.5,0.4,0.6,0.7C216.7,149.4,216.5,149.9,216,150.2z"/>
						</g>
					</g>
				</g>
			</g>
		</g>
		<g id="XMLID_9424_">
			<g id="XMLID_9517_">
				<g id="XMLID_9518_">
					<path class="st2" d="M46.9,153.7L36.4,159c-0.1-1.1-0.1-1.9-0.1-2.6c0-0.2,0-0.4,0-0.7c0-0.4,0-0.7,0.1-1.1l8.8-4.4L46.9,153.7
						z"/>
				</g>
			</g>
			<g id="XMLID_9440_">
				<g id="XMLID_9515_">
					<path class="st2" d="M50.4,160.7l-12.9,6.5c0-0.1,0-0.2,0-0.2c-0.2-1.3-0.4-2.6-0.6-3.7l11.9-6L50.4,160.7z"/>
				</g>
			</g>
			<g id="XMLID_9437_">
				<g id="XMLID_9438_">
					<path class="st2" d="M53.9,167.6L39.4,175c-0.3-1-0.6-1.9-0.8-2.8c-0.1-0.3-0.2-0.6-0.2-0.9l13.9-7L53.9,167.6z"/>
				</g>
			</g>
			<g id="XMLID_9434_">
				<g id="XMLID_9435_">
					<path class="st2" d="M57.5,174.6L42,182.4c0-0.1-0.1-0.2-0.1-0.2c-0.5-1.1-0.9-2.2-1.3-3.3l15.1-7.6L57.5,174.6z"/>
				</g>
			</g>
			<g id="XMLID_9431_">
				<g id="XMLID_9432_">
					<path class="st2" d="M61,181.6l-15.4,7.8c-0.5-0.8-1-1.6-1.4-2.4c-0.2-0.3-0.3-0.6-0.5-0.9l15.5-7.8L61,181.6z"/>
				</g>
			</g>
			<g id="XMLID_9428_">
				<g id="XMLID_9429_">
					<path class="st2" d="M64.5,188.5l-14.1,7.1c-0.1-0.1-0.1-0.1-0.2-0.2c-0.8-0.9-1.6-1.9-2.4-2.8l14.9-7.5L64.5,188.5z"/>
				</g>
			</g>
			<g id="XMLID_9425_">
				<g id="XMLID_9426_">
					<path class="st2" d="M68,195.5L57.1,201c-1-0.6-1.9-1.2-2.8-1.9c-0.3-0.2-0.5-0.4-0.8-0.6l12.8-6.4L68,195.5z"/>
				</g>
			</g>
		</g>
	</g>
	<path class="st6" d="M163.1,108.3l21.6-11.6l0.3-3l3.8-1.1l-0.2,2l-3,39.2l-0.7,9l-0.5,7l-0.8,9.8l-0.5,6.8l-0.1,1.4L118,202.5
		c-0.8,0.4-1.7-0.3-1.5-1.2c0.5-2.3,1.5-4.8,2.9-7.4l-14.1,3.8l-0.3,3.1l-3.7-0.3l-5-0.4v0l0-1.9l0.2-6.6l1.1-44.2l20.2-15.1
		c0.2-0.1,0.3-0.2,0.5-0.2l2.2-20.2l6.8-1.9l-2.7,25.4l0.8,1.6c3.2,6.1,11.2,7.8,16.7,3.6l14.2-10.8c4.4-3.3,5.7-9.3,3.1-14.2
		l-1.1-2l-1.1-2L163.1,108.3z"/>
</g>
</svg>
