<svg xmlns="http://www.w3.org/2000/svg" version="1" viewBox="0 0 300 300"><circle cx="145.127" cy="154.873" r="145.127" fill="#9C25D3"/><path fill="#5A6366" d="M297.572 77.509c-1.829-2.968-4.568-6.483-7.724-10.122 1.99-14.532-.202-25.303-7.212-30.211-2.808-1.966-6.24-2.879-10.175-2.833-1.497-2.143-3.282-3.97-5.375-5.435l.006-.009s-5.373-4.931-16.716-12.874c-.611-.428-1.205-.844-1.789-1.241a282.252 282.252 0 00-3.426-2.328 252.111 252.111 0 00-6.977-4.485c-1.195-2.099-2.718-3.825-4.584-5.132-19.495-13.65-68.86 23.215-110.261 82.342S64.178 203.307 83.673 216.957c1.87 1.309 4.017 2.15 6.403 2.554a297.74 297.74 0 004.728 3.629 293.313 293.313 0 006.999 5.054l.007.005.343.238c.707.493 1.396.97 2.067 1.429l.502.343c.652.444 1.285.873 1.9 1.285l.321.215c.71.474 1.397.929 2.056 1.36l.026.017c6.972 4.559 11.005 6.7 11.005 6.7.193.129.392.245.589.367.063.039.125.079.189.117.327.198.661.387.998.567l.135.073a21.355 21.355 0 001.177.572c.381.171.768.331 1.16.481l.062.024c.399.151.805.291 1.215.42l.052.017c.317.099.637.19.961.277 1.303 3.713 3.334 6.625 6.142 8.592 19.495 13.65 68.86-23.215 110.261-82.342 16.419-23.45 29.115-46.876 37.249-67.464 10.453-9.968 18.358-15.039 19.402-16.529.954-1.364.042-4.058-2.05-7.449z"/><path fill="#545E63" d="M282.636 37.177c19.495 13.65 1.736 72.648-39.664 131.774-41.4 59.127-90.767 95.993-110.262 82.342-19.495-13.65-1.736-72.647 39.666-131.774 41.4-59.128 90.765-95.993 110.26-82.342"/><path fill="#D9D9D9" d="M250.375 16.026C261.72 23.969 267.093 28.9 267.093 28.9l-.006.009c23.291 16.308 9.162 76.673-31.557 134.828-40.72 58.154-92.613 92.074-115.904 75.766 0 0-6.471-3.361-17.815-11.303-.602-.423-1.197-.838-1.771-1.251a268.387 268.387 0 01-3.359-2.424c-8.272-6.087-13.169-10.415-13.169-10.415l35.746-51.051c7.272-18.501 18.047-38.565 31.925-58.383 13.872-19.81 29.044-36.806 43.936-49.961l35.754-51.058s5.739 3.108 14.287 8.799c1.094.732 2.24 1.51 3.426 2.329.585.398 1.179.814 1.789 1.241"/><path fill="#5A6366" d="M233.6 2.84c19.495 13.65 1.736 72.648-39.664 131.774-41.402 59.128-90.769 95.994-110.264 82.344-19.493-13.652-1.736-72.648 39.666-131.776C164.74 26.056 214.105-10.81 233.6 2.84"/><path fill="#50AFEB" d="M249.488 20.839c6.674 5.122 19.09 14.556 21.166 19.477 1.677 3.219 3.075 10.657 3.075 10.657-1.596-1.316-28.58 10.307-46.849 32.463l8.845-20.049c5.206-15.141 8.083-28.66 8.515-39.996.1-2.686 3.114-4.187 5.248-2.552"/><path fill="#EAEAEA" d="M264.841 42.771c1.394.977 27.357 26.014 32.731 34.738 2.092 3.39 3.003 6.086 2.049 7.448-1.764 2.521-23.161 15.279-43.324 44.682-2.898 5-8.187 16.253-20.773 34.105-40.68 57.698-92.036 91.69-115.493 76.043l-.008-.006a6.168 6.168 0 01-.395-.264s-3.023-1.573-8.566-5.112a277.413 277.413 0 01-9.259-6.212 291.466 291.466 0 01-7-5.054 300.661 300.661 0 01-4.732-3.633c22.488 3.837 66.419-31.418 103.859-84.888 8.643-12.342 16.252-24.676 22.702-36.604.186-.319 7.259-14.204 7.423-14.539 18.521-26.195 37.765-42.82 40.786-40.704"/><path fill="#54C654" d="M270.137 47.819c8.912 7.552 22.062 20.966 27.436 29.69-2.468 1.735-5.996 4.296-6.251 4.473-4.842 3.626-14.353 10.695-26.052 23.944-.946 1.063-2.539 1.282-3.705.466L233.14 86.501a2.806 2.806 0 01-.582-4.045c13.897-17.266 28.759-30.511 37.579-34.637"/><path fill="#AB67A9" d="M258.001 109.877a2.79 2.79 0 01.579 4.035c-1.67 2.099-6.392 7.59-8.823 11.975-5.562 10.032-11.424 20.324-18.199 30.247a2.816 2.816 0 01-3.931.712l-27.842-19.496c-1.258-.88-1.556-2.619-.689-3.887 11.829-17.323 14.965-24.478 21.353-34.89 1.692-2.758 3.736-5.242 5.623-7.76.907-1.209 2.611-1.462 3.848-.595l28.081 19.659"/><path fill="#EAC306" d="M223.986 166.763c-10.677 14.389-21.699 26.81-32.475 37.119-.963.922-2.439 1.014-3.532.249l-26.934-18.866a2.762 2.762 0 01-.41-4.195c10.372-10.769 20.862-23.262 31.031-37.134.896-1.222 2.603-1.519 3.843-.649l27.837 19.504a2.815 2.815 0 01.64 3.972"/><path fill="#EF3030" d="M182.677 211.913c-10.584 9.119-20.762 16.088-29.948 20.759-.921.469-2.016.369-2.862-.224l-24.109-16.88c-1.6-1.121-1.601-3.516.025-4.595 8.494-5.629 17.48-12.953 26.651-21.724.962-.92 2.444-1.051 3.535-.286l26.477 18.537c1.488 1.042 1.605 3.228.231 4.413"/><path fill="#50AFEB" d="M119.084 216.017l25.576 17.921c.911.639.782 2.149-.289 2.456-17.318 4.951-24.34 3.395-24.34 3.395s-6.876-3.645-18.227-11.594a291.466 291.466 0 01-7-5.054c3.28-.161 7.104-.496 8.531-.963 4.491-1.367 9.277-3.462 14.286-6.229a1.392 1.392 0 011.463.068"/><path fill="#CBCBCB" d="M171.992 163.083c-24.35 28.643-49.159 48.589-67.572 54.725 18.411-6.126 43.217-26.074 67.572-54.725M238.191 7.976c7.601 13.354 1.863 41.927-14.132 75.494a250.563 250.563 0 016.916-9.318l4.749-10.765c5.206-15.141 8.083-28.66 8.515-39.996a3.32 3.32 0 013.29-3.231c.567 0 1.145.153 1.682.487a48.499 48.499 0 00-.624-5.861 303.522 303.522 0 00-3.426-2.329 255.818 255.818 0 00-6.97-4.481"/><path fill="#545D60" d="M230.873 3.658l-35.754 51.058c-14.892 13.154-30.064 30.15-43.936 49.961-13.878 19.818-24.653 39.882-31.925 58.383l-35.746 51.051s2.361 2.086 6.573 5.399a20.91 20.91 0 003.498.283c3.277 0 6.912-.679 10.837-1.985 18.413-6.136 43.221-26.082 67.572-54.725 7.42-8.729 14.797-18.265 21.938-28.463 8.643-12.342 16.252-24.676 22.702-36.604.186-.319 7.259-14.204 7.423-14.539l.003-.004c15.996-33.569 21.734-62.142 14.133-75.496-4.552-2.821-7.318-4.319-7.318-4.319"/><path fill="#4BA4DC" d="M247.529 20.16a3.32 3.32 0 00-3.29 3.231c-.432 11.336-3.309 24.856-8.515 39.996l-4.749 10.765a229.628 229.628 0 0110.571-12.632 190.923 190.923 0 002.474-7.615c4.218-14.032 5.593-24.878 5.191-33.258a3.167 3.167 0 00-1.682-.487"/><path fill="#DBDBDB" d="M241.546 61.52a229.628 229.628 0 00-10.571 12.632 250.563 250.563 0 00-6.916 9.318l-.004.006c-.164.335-7.237 14.22-7.423 14.539-6.451 11.929-14.06 24.263-22.702 36.604-7.141 10.199-14.518 19.735-21.938 28.463-24.355 28.652-49.161 48.6-67.572 54.725-3.925 1.306-7.56 1.985-10.837 1.985a20.92 20.92 0 01-3.498-.283 255.005 255.005 0 004.73 3.63c3.278-.161 7.094-.496 8.519-.963 4.491-1.367 9.277-3.462 14.286-6.229a1.41 1.41 0 01.681-.175c.277 0 .551.081.783.243l2.966 2.078c1.272-.744 2.574-1.54 3.906-2.388l-.198-.138c-1.6-1.121-1.601-3.516.025-4.595 8.494-5.629 17.48-12.953 26.651-21.724a2.829 2.829 0 011.952-.784c.551 0 1.105.163 1.583.499l1.533 1.074a285.633 285.633 0 004.274-4.26l-.731-.512a2.762 2.762 0 01-.41-4.195c10.372-10.769 20.862-23.262 31.031-37.134a2.803 2.803 0 012.262-1.149c.548 0 1.1.162 1.582.499l1.172.821a410.602 410.602 0 003.596-5.055l.636-.912-1.129-.791c-1.258-.88-1.556-2.619-.689-3.887 11.829-17.323 14.965-24.478 21.353-34.89 1.692-2.758 3.736-5.242 5.623-7.76a2.773 2.773 0 012.226-1.109c.415 0 .833.092 1.221.279a296.819 296.819 0 002.49-5.195 2.787 2.787 0 01.549-2.333c.398-.494.796-.985 1.196-1.472 2.995-6.665 5.605-13.176 7.792-19.462"/><path fill="#4FBA4F" d="M233.753 80.984c-.399.488-.798.978-1.196 1.472a2.787 2.787 0 00-.549 2.333 306.65 306.65 0 001.745-3.805"/><path fill="#A0619E" d="M228.297 89.705c-.847 0-1.68.382-2.226 1.109-1.886 2.518-3.931 5.002-5.623 7.76-6.388 10.411-9.524 17.566-21.353 34.89-.867 1.267-.569 3.007.689 3.887l1.129.791c11.195-16.082 20.887-32.438 28.604-48.157a2.795 2.795 0 00-1.22-.28"/><path fill="#DBB706" d="M193.928 142.787c-.862 0-1.713.401-2.262 1.149-10.169 13.872-20.659 26.365-31.031 37.134a2.762 2.762 0 00.41 4.195l.731.512c11.88-12.09 23.735-26.217 34.905-41.669l-1.172-.821a2.742 2.742 0 00-1.581-.5"/><path fill="#E02D2D" d="M154.385 188.465c-.707 0-1.411.268-1.952.784-9.171 8.771-18.157 16.095-26.651 21.724-1.626 1.079-1.625 3.474-.025 4.595l.198.138a151.533 151.533 0 009.27-6.428c7.293-5.445 14.774-11.919 22.277-19.242l-1.533-1.074a2.759 2.759 0 00-1.584-.497"/><path fill="#4BA4DC" d="M118.301 215.773a1.41 1.41 0 00-.681.175c-5.009 2.767-9.795 4.862-14.286 6.229-1.425.467-5.241.801-8.519.963.602.451 1.223.912 1.866 1.385 1.061.779 2.184 1.589 3.359 2.424 6.097-1.109 13.368-3.802 22.009-8.855l-2.966-2.078a1.367 1.367 0 00-.782-.243"/><ellipse cx="158.636" cy="109.899" fill="#5A6366" rx="130.694" ry="43.091" transform="rotate(-55 158.626 109.893)"/><ellipse cx="158.636" cy="109.898" fill="#4A5659" rx="106.445" ry="35.096" transform="rotate(-55 158.626 109.892)"/><ellipse cx="142.989" cy="99.289" fill="#364144" rx="31.614" ry="10.38" transform="rotate(-55 142.98 99.283)"/><ellipse cx="185.027" cy="61.989" fill="#364144" rx="31.613" ry="10.381" transform="rotate(-54.997 185.042 61.99)"/><ellipse cx="190.336" cy="91.197" fill="#364144" rx="31.614" ry="10.38" transform="rotate(-55 190.325 91.192)"/><ellipse cx="151.579" cy="146.548" fill="#364144" rx="31.614" ry="10.381" transform="rotate(-55 151.57 146.54)"/><ellipse cx="122.379" cy="151.592" fill="#364144" rx="31.613" ry="10.381" transform="rotate(-54.997 122.391 151.6)"/><path fill="#5A6366" d="M197.628 54.213c1.004.703 1.826 1.662 2.462 2.836-1.753 3.487-3.964 7.192-6.557 10.896-10.015 14.303-21.944 23.237-26.652 19.941-4.065-2.846-1.335-13.969 6.001-26.196 10.531-7.924 19.627-11.062 24.746-7.477zm-36.504 19.176c4.707 3.296.391 17.563-9.624 31.865-10.014 14.302-21.943 23.236-26.651 19.941a3.046 3.046 0 01-.674-.626c4.076-8.723 9.5-18.112 16.092-27.526 6.448-9.209 13.282-17.381 19.917-24.12.337.121.658.269.94.466zm-20.605 52.312c4.681 3.277.365 17.544-9.649 31.846-2.45 3.499-5.004 6.655-7.542 9.401-1.407-.18-2.634-.617-3.689-1.356-5.093-3.566-5.303-13.066-1.524-25.524l.036-.052c8.918-10.929 18.303-17.16 22.368-14.315zm29.185-5.056c2.212 1.549 2.401 5.438 1.039 10.617l-.019.026c-13.703 17.545-28.26 30.123-39.053 34.258.745-6.264 4.851-15.578 11.407-24.942 10.014-14.302 21.945-23.237 26.626-19.959zm32.023-54.821c-.336 11.648-7.256 29.688-19.17 48.564l-.017.026c-4.393 3.097-8.138 4.23-10.35 2.682-4.682-3.279-.366-17.545 9.648-31.848 6.683-9.543 14.235-16.714 19.889-19.424z"/></svg>