<svg xmlns="http://www.w3.org/2000/svg" viewBox="0 0 300 300"><style>.st5{fill:#ff8da4}.st14{fill:#efc100}.st16{fill:#ed9751}.st21{fill:#515759}.st23,.st24{opacity:.2;fill:#fff}.st24{opacity:.31}</style><path id="Camada_2" fill="#008dd3" d="M294.1 151c.1 20.5-4.3 40-12 57.6-21.8 49.2-70.9 83.5-128.2 83.7-15.2.1-29.9-2.3-43.6-6.7-25.8-8.2-48.4-23.8-65.3-44.2-17.6-21.1-29.1-47.5-31.8-76.5-.4-4.2-.6-8.4-.6-12.7-.2-47.8 23.5-90.2 59.8-115.7 4.8-3.4 9.7-6.4 14.8-9.1 7.3-3.9 14.8-7.1 22.8-9.7 7.5-2.4 15.2-4.2 23.2-5.3 6.4-.9 12.9-1.4 19.5-1.5 25.9-.1 50.1 6.8 71.1 18.9 3.8 2.1 7.4 4.5 10.9 7 16.8 11.9 30.8 27.3 41 45.4 1.2 2 2.2 4.1 3.3 6.2.9 1.8 1.7 3.6 2.6 5.4 2.7 6 4.9 12.1 6.8 18.4 2 7.1 3.6 14.4 4.5 21.7.8 5.7 1.2 11.4 1.2 17.1z"/><g id="Camada_5"><path fill="#ffd200" d="M231.9 27.3s20.7 27.1 17.1 42.8c0 0-22 1.9-59.3 70.7 0 0-21.3 49.5-125.6 59.8-55.6 5.5-57 21.7-57 21.7s-13.3 30.6 31.8 45.4c50.3 16.4 173.3 17.3 223.6-59.3 45.4-69.1 34.7-129.5 15.8-138 0 0 3.8-45.6-8.2-60.1"/><path d="M272.2 13.2c9.5 17 6.2 57.1 6.2 57.1 18.9 8.5 29.5 68.9-15.8 138-25.3 38.5-69 57.5-112.5 64.6-43.1 7.1-86 2.6-111.1-5.3-5.4-1.7-9.9-3.8-13.8-5.9-.2-.1-11.2-5.7-15.7-14.3-1-2 8.9 1.2 9.1 1.2 80.6 17.4 146.5-2.2 182.8-25.4 43-27.6 51.4-52.5 66.6-107.9 2.7-9.8 4.7-43.6-.7-44.8-1.1-17.4-2.5-30.6-5.4-42.7 0 0 12.2-6.4 10.3-14.6z" class="st14"/><path fill="none" stroke="#ed9751" stroke-miterlimit="10" stroke-width="3" d="M18.5 246.9s109.4 29.6 195.2-32.8c53.2-38.7 60.6-121.4 53.6-143.6.4-26.3-5.4-42.7-5.4-42.7"/><path d="M257.5 30.1c-11.2 3.7-20.2 4.9-25.6-2.8-4.7-6.7 4.4-17 15.6-20.7s23.9-.2 24.8 7.3c1.2 8.7-3.6 12.5-14.8 16.2z" class="st16"/><ellipse cx="14.7" cy="234" class="st16" rx="10.6" ry="17.3" transform="matrix(.9993 -.03652 .03652 .9993 -8.534 .692)"/><path fill="#515759" d="M25.2 233.6c.3 9.6-4.1 17.5-9.9 17.7s-10.8-7.4-11.2-16.9c-.2-5 2.5-4.4 5.1-2.6 2.8 1.9 6.6 1.8 9.4-.2 3.1-2.1 6.4-3.2 6.6 2z" opacity=".21"/><ellipse cx="167" cy="205.3" class="st14" rx="11.5" ry="3" transform="rotate(-28.091 166.957 205.279)"/><ellipse cx="256.6" cy="127.2" class="st14" rx="9.1" ry="3" transform="rotate(-39.786 256.658 127.228)"/><path d="M55 201.6s-14.9 20 24.6 19c46.3-1.2 134.2-15.6 148.4-119.8 0 0 .4-14.7-6.1-9.3 0 0-6.7 7.7-14.3 19.2-6.2 9.3-13.3 20.6-19.3 32-13.4 25.6-59.1 49.8-133.3 58.9z" class="st14"/><ellipse cx="115.1" cy="210.5" fill="#d3ab05" rx="11.5" ry="3" transform="rotate(-26.263 115.157 210.519)"/></g><g id="Camada_6"><path d="M166.9 106l-7.3 21.8c0 .1-.2.6-.4 1.3-2.8 3.2-4.4 4.9-3.5 5.4.5.3 3.9 2.2 4.4 2.7 4.6 4.6 21.3.2 24.9-5.3 2.8-4.2 4.6-9 5.2-14.2L166.9 106z" class="st5"/><path d="M186.6 119.2l2.6-2.2-22.3-11-7.3 21.8c0 .1-1.2 3-1.4 3.6" class="st5"/><path d="M159.1 129.1s.1 0 0 0c.3-.6.4-1.1.5-1.3-.2.4-.3.8-.5 1.3z" class="st5"/><path fill="#d34f6e" d="M141.9 150.9c-1.4-.7-2.8-1.3-4.2-1.9l-6.6 4-2.6 1.5-6.2 3.7c-2.3 1.4-4.8 2.5-7.4 3.2-.7.2-1.5.4-2.2.5l-1.1.2-17.8 3.3-3.1.6-13.7 2.5-3 .5-13 2.4c-1.1.2-2-.2-2.5-.9l-.6.6c-.4.4-.9.9-1.4 1.6-1.6 1.8-4 4.4-6.3 7.4-.7.8-1.3 1.7-1.9 2.5-1.5 2-2.9 4.1-4 6-1.4 2.6-2.2 4.8-1.7 6.3 1.1 1.9 8.1 1.9 16.5 1.2 1.9-.2 3.9-.4 5.8-.6 3.5-.4 7.1-.9 10.5-1.4 1.8-.3 3.5-.5 5.1-.8 2.2-.3 4.2-.7 6-1 3.9-.7 7.6-2 11-4 .1-.1.2-.1.4-.2l3-1.8 9.8-5.9 3.3-2 12.4-7.5 3.4-2 11.9-7.2 3.4-2 6.9-4.2c-2.3-1-5.9-2.6-10.1-4.6z"/><path d="M187.4 118.5s-10.8 24.4-28.7 12.3M44.3 188.6c-2-.7 2.4-3.9 4-6 .6-.8 1.3-1.7 1.9-2.5 2.3-2.9 4.7-5.6 6.3-7.4.6-.7 1.1-1.2 1.4-1.6.3-.3.5-.6.6-.6.6.7 1.5 1.1 2.5.9l13-2.4 3-.5 13.5-2.5 3.1-.6 17.8-3.3 1.1-.2c.8-.1 1.5-.3 2.2-.5 2.6-.7 5.1-1.8 7.4-3.2l6.2-3.7 2.6-1.5 6.6-4c1.4.6 2.8 1.3 4.2 1.9 1.1.5 2.2 1 3.2 1.5 1.9.9-52.3 32.2-56.7 33.2-15 3.4-39.2 4.7-43.9 3z" class="st5"/><path fill="#f14e70" d="M193.1 82.7l-26.5 16c-1.7 1-2.5 2.8-2.4 4.5l-31.7 19.1c1 .4 4.6 2.3 5.6 2.7 8.2 2.9 14.5 6.2 19.7 8.2.1-.3.8-2.5 1.3-4h-.1c.2-.4.3-.8.5-1.3l7-20.7.1.1 18.5 10.7c1.5.9 3.5.9 5 0l17.6-10.6-14.6-24.7zM109.8 136l-50.7 30.5c-1.6 1-1.6 2.9-.7 4.1.6.7 1.5 1.1 2.5.9l13-2.4 3-.5 13.5-2.5 3.1-.6 17.8-3.3 1.1-.2c.8-.1 1.5-.3 2.2-.5 2.6-.7 5.1-1.8 7.4-3.2l6.2-3.7 2.6-1.5 6.1-3.7c1.4.6 3.1 1.3 4.5 2 4.2 1.9 7.5 3.6 9.7 4.6l3.1-1.9c-4.3-2.1-22.6-10.3-42.1-19.6l-2.3 1.5z"/><path fill="none" stroke="#515759" stroke-linecap="round" stroke-linejoin="round" stroke-miterlimit="10" d="M162.3 45L207 82.8l-22.7-53.9"/><path d="M235.3 103.8L210 120.2c-3.6 2.2-7-3-3.5-5.4.5-.3 26.8-13.3 27.3-13.6 1.7-.8 3.1 1.6 1.5 2.6z" class="st21"/><path d="M260.2 124.6l-6 5.4c-.7.6-1.7.5-2.2-.2l-19.1-24.5c-.9-1.1-.7-2.7.4-3.5 1.1-.9 2.8-.6 3.6.6l17.5 25.7-2.2-.2 6-5.4c1.5-1.5 3.4.7 2 2.1z" class="st21"/><path d="M193.1 82.7l14.6 25.5c1.5 2.5 6.1.6 6.4-2.3l3.2-26.3c.9-7.3-6.8-12.5-13.3-8.9l-8.5 4.7c-2.8 1.5-4.1 4.7-2.4 7.3zm.3 32.8l9 7.2c1.4 1.2 3.1 1.4 4.3.7 1.6-1 2-3.4.9-5.7l-3.8-8" class="st5"/><circle cx="205.3" cy="83.3" r="3.3" fill="#2d3f42"/><ellipse cx="250.1" cy="15.9" class="st23" rx="13.5" ry="7.8" transform="rotate(-9.599 250.088 15.935)"/><ellipse cx="244.4" cy="84.7" class="st24" rx="16.4" ry="7.8" transform="rotate(-36.087 244.419 84.75)"/><ellipse cx="36.6" cy="215.5" class="st24" rx="12.9" ry="7.8" transform="rotate(-9.32 36.615 215.474)"/><path d="M188.7 87.5L169 99.8c-1 .6-1 2.1 0 2.8l5.3 3.2c.9.5 2.1.3 2.7-.5L190.1 89c.3-.3.3-.8.1-1.1-.2-.6-.9-.7-1.5-.4zm17.2-16l-11.3 6.6c-.6.3-.9 1.2-.6 2.1l1.7 2.7c.5.9 1.3.3 1.7-.1l9.5-10.3c.2-.2.2-.6 0-.8-.1-.4-.7-.4-1-.2zM141 120.6l21.2-13.2c.4-.3 1-.2 1.4.2.4.4.4 1 .1 1.4l-10.9 16.4c-.5.7-1.3 1-2.1.7l-9.6-3.5c-.8-.4-.9-1.6-.1-2zm-60.2 35.9l-18.9 11.2c-.6.4-.2 1.3.5 1.2l22.9-5c.9-.2 1.3-1.3.8-2l-3.5-4.9c-.5-.7-1.2-.9-1.8-.5zm16.3-10.4l14-8.3c.3-.2.7-.2 1-.1l7.8 3.2c.9.4.9 1.6.1 2l-19.3 9.9c-.5.3-1.2.1-1.5-.5l-2.5-4.8c-.3-.4-.1-1.1.4-1.4z" class="st23"/><path d="M66.6 102.9c3.1.7 4.3 2.7 5.7 5.1 1.2 2.1 2.5 4.1 3.7 6.2 7.5 12.4 14.1 25.2 20.6 38.1 8.7 17.2 17.1 34.6 24.6 52.4.4.7.2 1.6-.5 2l-11.7 7c-1.7 1-3.2-1.5-1.5-2.6l11.7-7-.5 2c-5.7-7.9-11-15.9-16.3-24-13-20.3-25.9-40.7-37.1-62-1.1-2.1-2.2-4.3-3.3-6.4-.4-.8-1.3-2.3-1.5-3.3-1-3.7 1.6-8.5 6.1-7.5z" class="st21"/><path fill="#ff8da4" stroke="#ff8da4" stroke-miterlimit="10" d="M172.4 143.7c-.3-3.6-2.4-7-5.8-8.9-2-1.1-16.2-6.5-33.8-12.6C101.5 111.3 60.6 97 61 104.5c.4 6.6 24.1 16.9 51.5 29.9 19.7 9.4 38.1 17.6 42.4 19.8.3.2.6.3.7.4 5.5 3 12.3 1 15.4-4.4 1.1-2.1 1.5-4.4 1.4-6.5z"/><path d="M136.9 145.6c12.8 17.4 24.7 35.6 35.3 54.5.4.6.2 1.5-.4 1.9l-10.1 6.3c-.7.4-1.6.2-2.1-.5-.4-.7-.2-1.7.5-2.1l10.3-6-.4 1.9c-6.9-8.4-13.2-17.1-19.5-26-6.2-8.9-12.3-17.8-17.9-27.1-1.7-2.8 2.3-5.5 4.3-2.9z" class="st21"/><path d="M180.2 131.8c-11.1 4.9-22.6 8.8-34.2 12.5-3.9 1.2-7.7 2.4-11.7 3.5-.8.2-1.6-.2-1.9-1.1-.2-.7.1-1.4.7-1.7 3.5-2.1 7-4.1 10.6-6 7.1-3.9 14.3-7.6 21.6-11.2 3.6-1.8 7.3-3.4 11-5 6-2.2 9.7 6.3 3.9 9z" class="st21"/><path d="M91.8 110l-16.5-4.6c-3.9-1-10.4-2-11.5-1.1-.5.4-.5 1.1-.2 1.6 0 0 .1.1.1.2.6.7 2.3 2.5 6.7 5l2.2 1.2c3.6 1.6 6.3 2.3 9.7 2.2 2.9-.1 5.8-.8 8.6-2 2.1-1.1 1.7-2.3.9-2.5z" class="st23"/></g></svg>