<?xml version="1.0" encoding="utf-8"?>
<!-- Generator: Adobe Illustrator 27.7.0, SVG Export Plug-In . SVG Version: 6.00 Build 0)  -->
<svg version="1.1" xmlns="http://www.w3.org/2000/svg" xmlns:xlink="http://www.w3.org/1999/xlink" x="0px" y="0px"
	 viewBox="0 0 300 300" style="enable-background:new 0 0 300 300;" xml:space="preserve">
<style type="text/css">
	.st0{fill:#008DD3;}
	.st1{fill:#EAE9E4;}
	.st2{fill:#B7B7B7;}
	.st3{fill:#F6543B;}
	.st4{fill:#61E061;}
	.st5{fill:#C75EEB;}
	.st6{fill:#4EBFE9;}
	.st7{fill:#FAC900;}
	.st8{fill:none;stroke:#B7B7B7;stroke-miterlimit:10;}
</style>
<g id="Camada_18">
	<path class="st0" d="M274.4,148.7c0.1,19.8-4.1,38.6-11.6,55.7c-21.1,47.6-68.6,80.8-124,81c-14.7,0.1-28.9-2.3-42.2-6.5
		c-25-8-46.8-23-63.1-42.8c-17-20.4-28.1-46-30.8-74c-0.4-4-0.6-8.2-0.6-12.3C1.9,103.6,24.8,62.6,60,37.9c4.6-3.3,9.4-6.2,14.4-8.8
		c7-3.8,14.4-6.8,22-9.4c7.2-2.3,14.7-4,22.4-5.2c6.2-0.8,12.5-1.3,18.9-1.4c25-0.1,48.5,6.6,68.8,18.3c3.7,2.1,7.1,4.3,10.5,6.8
		c16.2,11.5,29.8,26.5,39.7,43.9c1.1,2,2.2,3.9,3.2,6c0.8,1.8,1.7,3.5,2.5,5.3c2.6,5.8,4.8,11.7,6.6,17.8c2,6.8,3.5,13.9,4.3,21l0,0
		C274,137.6,274.4,143.1,274.4,148.7z"/>
</g>
<g id="Camada_2">
	<g>
		<path class="st1" d="M61.6,76l-5.7,20.2c-1.5,5.2-0.9,10.8,1.8,15.5l85.1,152.5c4.9,8.9,15.3,14.9,23.2,13.4l102.8-19.1
			c6.4-1.2,11.8-5.3,14.6-11.2l11.1-23.3c2.7-5.6,2.5-12.1-0.6-17.5L203.4,49C199.3,41.9,191,38.2,183,40L75.2,63.2
			C68.6,64.6,63.4,69.6,61.6,76z"/>
		<g>
			<g>
				<path class="st2" d="M55.2,104.5l88.4,158.1c4.9,8.8,15.3,14.8,23.1,13.3l108.2-19.9l0.4-0.1l-0.5,0.3l-108,19.8
					c-0.8,0.1-1.6,0.2-2.5,0.2c-7.5,0-16.4-5.7-20.9-13.7l-88-157.6"/>
			</g>
			<g>
				<path class="st2" d="M55,101l89.3,160.1c4.9,8.8,15.3,14.8,23.1,13.4l110.9-20.6l-0.3,0.3l-110.6,20.6c-0.8,0.2-1.6,0.2-2.5,0.2
					c-7.5,0-16.4-5.7-20.9-13.7L55,101.5"/>
			</g>
			<g>
				<path class="st2" d="M55.3,98.9l89.9,160.7c4.9,8.8,15.3,14.8,23.1,13.3l111.9-20.8l-0.3,0.3l-111.5,20.8
					c-0.8,0.1-1.6,0.2-2.5,0.2c-7.5,0-16.4-5.7-20.9-13.7L55.2,99.3"/>
			</g>
			<g>
				<path class="st2" d="M55.7,96.7l90.2,161.4c4.9,8.8,15.3,14.8,23.1,13.3l112.3-20.8l-0.2,0.2l-112.1,20.8
					c-0.8,0.2-1.6,0.2-2.5,0.2c-7.5,0-16.4-5.7-20.9-13.7L55.6,97"/>
			</g>
			<g>
				<path class="st2" d="M56.2,94.9l90.5,161.7c4.9,8.8,15.3,14.8,23.1,13.3l112.6-20.9l-0.1,0.2l-112.4,20.9
					c-0.8,0.2-1.6,0.2-2.5,0.2c-7.5,0-16.4-5.7-20.9-13.7L56.1,95.2"/>
			</g>
			<g>
				<path class="st2" d="M56.8,93.1l90.7,162c4.9,8.8,15.3,14.8,23.1,13.3l112.7-20.9l-0.1,0.3l-112.5,20.9
					c-0.8,0.1-1.6,0.2-2.5,0.2c-7.5,0-16.4-5.7-20.9-13.7L56.7,93.4"/>
			</g>
			<g>
				<path class="st2" d="M57.2,91.5l91,162.1c4.9,8.8,15.3,14.8,23.1,13.4L283.9,246l-0.1,0.3l-112.4,20.9c-0.8,0.2-1.6,0.2-2.5,0.2
					c-7.5,0-16.4-5.7-20.9-13.7L57.2,91.8"/>
			</g>
			<g>
				<path class="st2" d="M57.8,89.6L149,252.1c4.9,8.8,15.3,14.8,23.1,13.3l112.5-20.9l-0.1,0.3l-112.4,20.9
					c-0.8,0.1-1.6,0.2-2.5,0.2c-7.5,0-16.4-5.7-20.9-13.7L57.7,89.9"/>
			</g>
			<g>
				<path class="st2" d="M58.3,87.9l91.5,162.6c4.9,8.8,15.3,14.8,23.1,13.4L285.4,243l-0.1,0.3l-112.3,20.8
					c-0.8,0.2-1.6,0.2-2.5,0.2c-7.5,0-16.4-5.7-20.9-13.7L58.2,88.2"/>
			</g>
			<g>
				<path class="st2" d="M58.9,85.8L150.6,249c4.9,8.8,15.3,14.8,23.1,13.3l112.4-20.9l-0.1,0.3l-112.2,20.8
					c-0.8,0.2-1.6,0.2-2.5,0.2c-7.5,0-16.4-5.7-20.9-13.7L58.8,86.1"/>
			</g>
			<g>
				<path class="st2" d="M59.5,83.7l91.9,163.8c4.9,8.8,15.3,14.8,23.1,13.3L286.8,240l-0.1,0.3l-112.2,20.8
					c-0.8,0.1-1.6,0.2-2.5,0.2c-7.5,0-16.4-5.7-20.9-13.7L59.4,84"/>
			</g>
			<g>
				<path class="st2" d="M60.1,81.7L152.2,246c4.9,8.8,15.3,14.8,23.1,13.4l112.3-20.8l-0.1,0.3l-112.1,20.8
					c-0.8,0.2-1.6,0.2-2.5,0.2c-7.5,0-16.4-5.7-20.9-13.7L60,82"/>
			</g>
			<g>
				<path class="st2" d="M60.6,80.1l92.2,164.5c4.5,8,13.4,13.7,20.9,13.7c0.8,0,1.7-0.1,2.5-0.2l112.1-20.8l0.1-0.3L176,257.8
					c-7.8,1.5-18.2-4.5-23.1-13.3L60.7,79.8"/>
			</g>
			<g>
				<path class="st2" d="M61.3,77.6L153.7,243c4.9,8.8,15.3,14.8,23.1,13.4L289,235.5l-0.1,0.3l-112,20.8c-0.8,0.2-1.6,0.2-2.5,0.2
					c-7.5,0-16.4-5.7-20.9-13.7L61.2,77.9"/>
			</g>
			<g>
				<path class="st2" d="M62,75.3l92.5,166.2c4.9,8.8,15.3,14.8,23.1,13.3L289.7,234l-0.1,0.3l-111.9,20.8c-0.8,0.2-1.6,0.2-2.5,0.2
					c-7.5,0-16.4-5.7-20.9-13.7l-92.4-166"/>
			</g>
			<g>
				<path class="st2" d="M62.5,73.5l92.8,166.4c4.9,8.8,15.3,14.8,23.1,13.3l112.1-20.8l-0.1,0.3l-111.9,20.8
					c-0.8,0.1-1.6,0.2-2.5,0.2c-7.5,0-16.4-5.7-20.9-13.7L62.4,73.8"/>
			</g>
			<g>
				<path class="st2" d="M63.1,72.3l92.7,166.3c4.5,8,13.4,13.7,20.9,13.7c0.8,0,1.7-0.1,2.5-0.2L291,231.3l0.1-0.3l-112,20.8
					c-7.8,1.5-18.2-4.5-23.1-13.4L63.3,71.9"/>
			</g>
			<g>
				<path class="st2" d="M64.5,70l92.3,166.9c4.9,8.8,15.3,14.8,23.1,13.3l111.9-20.8l-0.1,0.3l-111.8,20.8
					c-0.8,0.1-1.6,0.2-2.5,0.2c-7.5,0-16.4-5.7-20.9-13.7L64.2,70.3"/>
			</g>
			<g>
				<path class="st2" d="M65.8,68.5l91.8,166.9c4.9,8.8,15.3,14.8,23.1,13.4L292.6,228l-0.1,0.3v0L180.7,249
					c-0.8,0.2-1.6,0.2-2.5,0.2c-7.5,0-16.4-5.7-20.9-13.7L65.6,68.9"/>
			</g>
			<g>
				<path class="st2" d="M67.2,67.2l91.2,166.7c4.9,8.8,15.3,14.8,23.1,13.3l111.8-20.8l-0.1,0.3l-111.6,20.7
					c-0.8,0.2-1.6,0.2-2.5,0.2c-7.5,0-16.4-5.7-20.9-13.7L66.9,67.5"/>
			</g>
		</g>
	</g>
	<g>
		<polyline class="st3" points="210.2,73.3 207.7,117.6 141.7,114 145,54.9 156.7,52.3 200,54.7 205.6,65.4 210.2,73.3 		"/>
	</g>
	<polygon class="st4" points="248.4,147 228.8,181.8 189.5,181.8 169.9,147 189.5,112.2 228.8,112.2 	"/>
	<path class="st5" d="M154.5,212.9c8.8,7.3,20.8,10.8,33.1,8.7c22.1-3.8,37-24.5,33.2-46.1l-79.3,13.8L154.5,212.9z"/>
	<polyline class="st6" points="115,141.4 118.3,84 187.1,131.2 125.8,161.3 	"/>
	<path class="st7" d="M280.5,194.2c0.8,12.1-4.8,24-15.5,30.5l-22.3,4.2c-9.6-1.7-18.5-7.7-23.7-17.1c-8.9-16.3-3.3-36.7,12.5-45.5
		c10.7-6,23.5-5.1,33.3,1.3"/>
	<g>
		<path class="st6" d="M261.2,211.8c3,5.6,9.9,7.6,15.3,4.6c5.4-3,7.3-9.9,4.3-15.5c-3-5.6-9.9-7.6-15.3-4.6
			C260,199.3,258.1,206.3,261.2,211.8z M262.1,211.3c-2.8-5-1-11.4,3.9-14.1s11.1-0.8,13.9,4.2s1,11.4-3.9,14.1
			S264.8,216.4,262.1,211.3z"/>
		<path class="st7" d="M151.5,193.1c3,5.6,9.9,7.6,15.3,4.6c5.4-3,7.3-9.9,4.3-15.5c-3-5.6-9.9-7.6-15.3-4.6
			C150.4,180.6,148.4,187.6,151.5,193.1z M152.4,192.6c-2.8-5-1-11.4,3.9-14.1s11.1-0.8,13.9,4.2c2.8,5,1,11.4-3.9,14.1
			S155.1,197.7,152.4,192.6z"/>
		<path class="st7" d="M150.1,147.6c3,5.6,9.9,7.6,15.3,4.6c5.4-3,7.3-9.9,4.3-15.5c-3-5.6-9.9-7.6-15.3-4.6
			C149,135.1,147,142,150.1,147.6z M151,147.1c-2.8-5-1-11.4,3.9-14.1s11.1-0.8,13.9,4.2c2.8,5,1,11.4-3.9,14.1
			C160,154,153.7,152.1,151,147.1z"/>
		<path class="st7" d="M134,104.1c3,5.6,9.9,7.6,15.3,4.6c5.4-3,7.3-9.9,4.3-15.5c-3-5.6-9.9-7.6-15.3-4.6
			C132.8,91.6,130.9,98.6,134,104.1z M134.9,103.6c-2.8-5-1-11.4,3.9-14.1s11.1-0.8,13.9,4.2c2.8,5,1,11.4-3.9,14.1
			C143.8,110.6,137.6,108.7,134.9,103.6z"/>
		<path class="st7" d="M189.3,87.9c3,5.6,9.9,7.6,15.3,4.6c5.4-3,7.3-9.9,4.3-15.5c-3-5.6-9.9-7.6-15.3-4.6
			C188.2,75.4,186.3,82.3,189.3,87.9z M190.2,87.4c-2.8-5-1-11.4,3.9-14.1s11.1-0.8,13.9,4.2c2.8,5,1,11.4-3.9,14.1
			C199.2,94.3,193,92.4,190.2,87.4z"/>
		<path class="st7" d="M231,160.6c3,5.6,9.9,7.6,15.3,4.6c5.4-3,7.3-9.9,4.3-15.5c-3-5.6-9.9-7.6-15.3-4.6
			C229.9,148.1,228,155.1,231,160.6z M231.9,160.1c-2.8-5-1-11.4,3.9-14.1s11.1-0.8,13.9,4.2c2.8,5,1,11.4-3.9,14.1
			S234.7,165.2,231.9,160.1z"/>
		<path class="st5" d="M264.9,176.5c-3.7-6.8-12.1-9.3-18.7-5.7l-0.4,0.2l13.5,24.6l0.4-0.2C266.3,191.8,268.6,183.3,264.9,176.5z
			 M264,177c3.3,6.1,1.4,13.7-4.4,17.3l-12.4-22.8C253.2,168.5,260.6,170.9,264,177z"/>
		<path class="st6" d="M175.9,210c-3.7-6.8-12.1-9.3-18.7-5.7l-0.4,0.2l13.5,24.6l0.4-0.2C177.3,225.3,179.6,216.8,175.9,210z
			 M175,210.5c3.3,6.1,1.4,13.7-4.4,17.3L158.2,205C164.2,202,171.6,204.4,175,210.5z"/>
		<path class="st5" d="M206.8,154.1c-3.7-6.8-12.1-9.3-18.7-5.7l-0.4,0.2l13.5,24.6l0.4-0.2C208.2,169.4,210.5,160.9,206.8,154.1z
			 M205.9,154.6c3.3,6.1,1.4,13.7-4.4,17.3l-12.4-22.8C195.1,146.1,202.6,148.5,205.9,154.6z"/>
		<path class="st5" d="M190.1,126.2c6.9,3.5,15.2,0.8,18.6-5.9l0.2-0.5L184,107.1l-0.2,0.5C180.4,114.3,183.2,122.7,190.1,126.2z
			 M190.5,125.2c-6.2-3.1-8.8-10.6-6.1-16.7l23,11.7C204.2,126.1,196.7,128.4,190.5,125.2z"/>
		<path class="st5" d="M153.1,111.4c-7.1,2.9-10.6,11-7.8,18l0.2,0.5l25.9-10.6l-0.2-0.5C168.3,111.9,160.2,108.5,153.1,111.4z
			 M153.5,112.4c6.4-2.6,13.7,0.2,16.5,6.4l-23.9,9.8C143.8,122.2,147.1,115,153.5,112.4z"/>
		<path class="st5" d="M92.9,80.1c-3.2,7-0.3,15.3,6.6,18.5l0.5,0.2l11.6-25.6l-0.5-0.2C104.3,69.9,96.1,73.1,92.9,80.1z M93.9,80.5
			c2.9-6.4,10.2-9.3,16.4-6.7L99.5,97.4C93.5,94.3,91,86.9,93.9,80.5z"/>
		<path class="st5" d="M230.6,120.6c-6.8-3.7-15.2-1.3-18.8,5.4l-0.2,0.5l24.5,13.4l0.2-0.5C240,132.7,237.4,124.3,230.6,120.6z
			 M230.1,121.5c6.1,3.3,8.5,10.8,5.6,16.9L213,126C216.5,120.2,224,118.2,230.1,121.5z"/>
		<path class="st3" d="M204.7,192.5c-5.1,5.8-4.6,14.6,1,19.6l0.4,0.3l18.4-21.1l-0.4-0.3C218.5,186,209.8,186.7,204.7,192.5z
			 M205.4,193.2c4.6-5.2,12.4-6,17.6-1.7L206,211C201.1,206.3,200.9,198.4,205.4,193.2z"/>
		<path class="st5" d="M157.5,83.1c-2.8,7.2,0.7,15.3,7.7,18.1l0.5,0.2l10-26.2l-0.5-0.2C168.2,72.2,160.2,75.9,157.5,83.1z
			 M158.4,83.5c2.5-6.5,9.5-9.9,15.9-7.8l-9.2,24.3C158.9,97.3,155.9,90,158.4,83.5z"/>
		<path class="st3" d="M243.3,174.5l-17.5,9.6l9.9,17.9l17.5-9.6L243.3,174.5z M251.7,192l-15.6,8.6l-8.8-16l15.6-8.6L251.7,192z"/>
		<path class="st3" d="M150.6,153.2l-16.8,9.4l9.5,17.4l16.8-9.4L150.6,153.2z M158.7,170.1l-15,8.4l-8.5-15.5l15-8.4L158.7,170.1z"
			/>
		<path class="st3" d="M132.9,107.3l-18.7,4.6l4.7,19.3l18.7-4.6L132.9,107.3z M136.3,125.8l-16.7,4.1l-4.2-17.2l16.7-4.1
			L136.3,125.8z"/>
		<path class="st3" d="M127.7,66.5L113.9,80l13.6,14.3l13.9-13.4L127.7,66.5z M139.9,80.8l-12.4,12L115.3,80l12.4-12L139.9,80.8z"/>
		<path class="st3" d="M199.7,210.7l-18.7,4.7l4.8,19.2l18.7-4.7L199.7,210.7z M203.3,229.2l-16.7,4.2l-4.3-17.2L199,212
			L203.3,229.2z"/>
		<path class="st3" d="M211.6,131.1l-8,17.6l17.9,8.2l8-17.6L211.6,131.1z M228.2,139.8l-7.1,15.7l-16-7.4l7.1-15.7L228.2,139.8z"/>
		<path class="st6" d="M223.6,197.9l-16,22.3l26.7,3L223.6,197.9z M209.4,219.4l13.9-19.4l9.3,22L209.4,219.4z"/>
		<path class="st6" d="M191.7,161.5l-16,22.3l26.7,3L191.7,161.5z M177.6,183l13.9-19.4l9.3,22L177.6,183z"/>
		<path class="st6" d="M172.8,122.9l2.1,27.5l22.3-15.1L172.8,122.9z M175.8,148.5l-1.8-23.8l21.2,10.8L175.8,148.5z"/>
		<path class="st6" d="M176.3,82.5l-9.8,25.7l26.6-3.9L176.3,82.5z M168.1,106.9l8.5-22.3l14.5,18.9L168.1,106.9z"/>
		<path class="st4" d="M112.9,81.8l-9.8,25.7l26.6-3.9L112.9,81.8z M104.7,106.2l8.5-22.3l14.5,18.9L104.7,106.2z"/>
		<path class="st6" d="M141.4,58.9l6.8,26.7l19.4-18.7L141.4,58.9z M148.8,83.6l-5.9-23.2l22.7,6.9L148.8,83.6z"/>
		<path class="st4" d="M256.5,207.8l-9.5-5.9l-9.6,5.4l-0.1,11.3l9.5,5.9l9.6-5.4L256.5,207.8z M255.5,208.3l-0.1,10.1l-8.6,4.8
			l-8.5-5.3l0.1-10.1l8.6-4.8L255.5,208.3z"/>
		<path class="st4" d="M197,194.7l-9.5-5.9l-9.6,5.4l-0.1,11.3l9.5,5.9l9.6-5.4L197,194.7z M195.9,195.3l-0.1,10.1l-8.6,4.8
			l-8.5-5.3l0.1-10.1l8.6-4.8L195.9,195.3z"/>
		<path class="st7" d="M179.9,157l-10.9-2.7l-7.5,8.1l3.4,10.8l10.9,2.7l7.5-8.1L179.9,157z M179.1,157.9l3,9.6l-6.7,7.2l-9.7-2.4
			l-3-9.6l6.7-7.2L179.1,157.9z"/>
		<path class="st4" d="M189.7,56.6l-10.9-2.7l-7.5,8.1l3.4,10.8l10.9,2.7l7.5-8.1L189.7,56.6z M188.9,57.5l3,9.6l-6.7,7.2l-9.7-2.4
			l-3-9.6l6.7-7.2L188.9,57.5z"/>
		<path class="st6" d="M219.2,98.7l-10.9-2.7l-7.5,8.1l3.4,10.8l10.9,2.7l7.5-8.1L219.2,98.7z M218.4,99.6l3,9.6l-6.7,7.2l-9.7-2.4
			l-3-9.6l6.7-7.2L218.4,99.6z"/>
		<path class="st4" d="M141.9,136.3l-10.9-2.7l-7.5,8.1l3.4,10.8l10.9,2.7l7.5-8.1L141.9,136.3z M141.1,137.2l3,9.6l-6.7,7.2
			l-9.7-2.4l-3-9.6l6.7-7.2L141.1,137.2z"/>
		<path class="st3" d="M229.2,166.4l-9.5-5.9l-9.6,5.4l-0.1,11.3l9.5,5.9l9.6-5.4L229.2,166.4z M228.2,167l-0.1,10.1l-8.6,4.8
			l-8.5-5.3l0.1-10.1l8.6-4.8L228.2,167z"/>
	</g>
	<path class="st8" d="M87.8,67.7l92.4-20.7c7.9-1.8,16,1.8,20,8.8l88.1,151.8c3.3,5.7,0,13-6.5,14.2l-98,17.8
		c-7.8,1.4-15.6-2.3-19.4-9.2L81.5,81.7C78.4,76.1,81.6,69.1,87.8,67.7z"/>
</g>
</svg>
