<?xml version="1.0" encoding="utf-8"?>
<!-- Generator: Adobe Illustrator 26.5.0, SVG Export Plug-In . SVG Version: 6.00 Build 0)  -->
<svg version="1.1" id="Camada_1" xmlns="http://www.w3.org/2000/svg" xmlns:xlink="http://www.w3.org/1999/xlink" x="0px" y="0px"
	 viewBox="0 0 300 300" style="enable-background:new 0 0 300 300;" xml:space="preserve">
<style type="text/css">
	.st0{fill:#008DD3;}
	.st1{fill-rule:evenodd;clip-rule:evenodd;fill:#707070;}
	.st2{fill-rule:evenodd;clip-rule:evenodd;fill:#B2B2B2;}
	.st3{fill-rule:evenodd;clip-rule:evenodd;fill:#C4EFF6;}
	.st4{fill-rule:evenodd;clip-rule:evenodd;fill:#EA8383;}
	.st5{fill:#FFFFFF;}
	.st6{fill:#B2B2B2;}
</style>
<path class="st0" d="M290.3,149.4c0.1,21.1-4.4,41.2-12.4,59.4c-22.5,50.7-73.1,86.1-132.2,86.3c-15.7,0.1-30.8-2.4-45-6.9
	c-26.6-8.5-49.9-24.5-67.3-45.6c-18.1-21.8-30-49-32.8-78.9C0.2,159.4,0,155,0,150.6c-0.2-49.3,24.2-93,61.7-119.3
	c4.9-3.5,10-6.6,15.3-9.4c7.5-4,15.3-7.3,23.5-10c7.7-2.5,15.7-4.3,23.9-5.5c6.6-0.9,13.3-1.4,20.1-1.5c26.7-0.1,51.7,7,73.3,19.5
	c3.9,2.2,7.6,4.6,11.2,7.2c17.3,12.3,31.8,28.2,42.3,46.8c1.2,2.1,2.3,4.2,3.4,6.4c0.9,1.9,1.8,3.7,2.7,5.6c2.8,6.2,5.1,12.5,7,19
	c2.1,7.3,3.7,14.8,4.6,22.4c0,0,0,0,0,0C289.9,137.6,290.3,143.5,290.3,149.4z"/>
<g>
	<path class="st1" d="M277.5,90.3c-8.3,7.7-18.4,13.4-29.1,15.7c1.6,2.9,3.1,6,4.5,9.1c14.5,28,23.4,62,25,93.7
		c-22.5,50.7-73.1,86.1-132.2,86.3c-15.7,0.1-30.8-2.4-45-6.9c-3-3.9-5.6-8.2-7.8-12.9c-9.1-17.1-11.9-38.6-10.7-61
		c1-37.9,9.9-63.8,24.5-98c1.6-3.6,3.3-7.1,5.1-10.5c-28.1-6-51.6-34.9-51.6-64.4c0-3.5,0.5-6.9,1.3-10.1C66.2,14.6,81,2.2,95.8,0.4
		c11.1-1.4,20.6,1.1,28.7,5.9c18.1,10.9,28.7,34.1,33,54.2c10.1-4.5,20.6-6.1,30.6-4.2c5.2,0.8,10.2,2.3,15,4.4
		c2.6-12.1,7.5-25.4,14.9-36.4C228.2,9,243.6-2,264.6,0.6C282.2,2.8,300,20,300,41.6C300,59.8,291,77.8,277.5,90.3z"/>
	<path class="st2" d="M226.7,36.7c6-15.2,16.8-26.8,36.7-24.3c14.7,1.8,29.1,13.8,28.9,31.8c-0.2,18.8-11.5,38.1-26.9,48.3
		C235.3,112.3,213.1,70.9,226.7,36.7L226.7,36.7z"/>
	<path class="st2" d="M133.6,36.5c-6-15.2-16.8-26.8-36.7-24.4C82.2,13.9,67.8,25.9,68,43.9C68.1,62.8,79.5,82,94.9,92.2
		C125,112.1,147.3,70.6,133.6,36.5L133.6,36.5z"/>
	<path class="st3" d="M144.6,118.2c3.9,0,7.1-3.1,7.1-7c0-3.9-3.2-7-7.1-7c-3.9,0-7,3.1-7,7C137.6,115,140.7,118.2,144.6,118.2
		L144.6,118.2z"/>
	<path class="st3" d="M212.5,118.2c3.9,0,7.1-3.1,7.1-7c0-3.9-3.2-7-7.1-7c-3.9,0-7,3.1-7,7C205.5,115,208.6,118.2,212.5,118.2
		L212.5,118.2z"/>
	<polygon class="st4" points="167.8,134.4 192.6,134.4 180.1,147.1 	"/>
	<path class="st5" d="M147.8,144.5l-29-12.7C118.8,131.8,131.4,145,147.8,144.5L147.8,144.5z"/>
	<path class="st5" d="M147,148.2l-31.2-5.4C115.8,142.9,131.1,152.7,147,148.2L147,148.2z"/>
	<path class="st5" d="M146.1,152.3l-31.6,2.1C114.5,154.4,131.7,160.4,146.1,152.3L146.1,152.3z"/>
	<path class="st5" d="M214.6,144.5l29-12.7C243.6,131.8,231.1,145,214.6,144.5L214.6,144.5z"/>
	<path class="st5" d="M215.4,148.2l31.2-5.4C246.6,142.9,231.3,152.7,215.4,148.2L215.4,148.2z"/>
	<path class="st5" d="M216.3,152.3l31.6,2.1C247.9,154.4,230.7,160.4,216.3,152.3L216.3,152.3z"/>
	<path class="st6" d="M151.5,208.4c5,2.6,9.7,5.1,13.2,6l-10.1,1.5l7.7,7.4h-10.6l8.3,7.9C116,219.6,116.5,190.5,151.5,208.4
		L151.5,208.4z"/>
	<path class="st6" d="M212.3,207.3c-5,2.6-10.1,4.7-13.6,5.6l9.8,1.7l-6.5,6.8l8.2,0.5l-6.9,7.7
		C248.6,217.7,246.5,189.8,212.3,207.3L212.3,207.3z"/>
</g>
</svg>
