<?xml version="1.0" encoding="utf-8"?>
<!-- Generator: Adobe Illustrator 28.0.0, SVG Export Plug-In . SVG Version: 6.00 Build 0)  -->
<svg version="1.1" id="Layer_1" xmlns="http://www.w3.org/2000/svg" xmlns:xlink="http://www.w3.org/1999/xlink" x="0px" y="0px"
	 viewBox="0 0 50 50" style="enable-background:new 0 0 50 50;" xml:space="preserve">
<style type="text/css">
	.st0{fill:#8256D8;}
	.st1{fill:#A475EF;}
	.st2{fill:none;stroke:#444444;stroke-width:2.5;stroke-linecap:round;stroke-linejoin:round;stroke-miterlimit:10;}
	.st3{fill:none;stroke:#444444;stroke-linecap:round;stroke-miterlimit:10;}
	.st4{fill:none;stroke:#444444;stroke-width:0.5;stroke-linecap:round;stroke-miterlimit:10;}
	.st5{fill:none;stroke:#444444;stroke-width:0.5;stroke-linecap:round;stroke-linejoin:round;stroke-miterlimit:10;}
</style>
<polygon class="st0" points="29.5,19.9 37.4,22.3 30.7,27 30.8,35.2 24.2,30.3 16.4,33 19.1,25.2 14.1,18.6 22.4,18.7 27.1,12 "/>
<path class="st1" d="M44.6,12.4L39,8.8l-7.7-4.4l-6-2.8c-3.2,0-21.5,8.9-21.5,12.1l-0.5,7.8l0.5,15.1l11.5,7.6l31-11
	C47.2,32.7,45.6,14.4,44.6,12.4z"/>
<g>
	<g>
		<path class="st2" d="M29.9,46.5l-2.2,1.3c-1.7,1-3.8,1-5.5,0l-15.6-9C5,37.8,3.9,36,3.9,34V16c0-2,1-3.8,2.7-4.7l15.6-9
			c1.7-1,3.8-1,5.5,0l15.6,9c1.7,1,2.7,2.8,2.7,4.7v18c0,2-1,3.8-2.7,4.7l-2.5,1.4"/>
	</g>
</g>
<g>
	<path class="st3" d="M25.4,28.5l-1.7-2.3c-0.6-0.9-1.7-1.4-2.8-1.4h-8.2c-0.9,0-1.7,0.5-2.1,1.2l-3,4.9c-1,1.6,0.2,3.7,2.1,3.7h7.8
		c0.9,0,1.7-0.8,1.7-1.7v0c0-0.9-0.8-1.7-1.7-1.7H13"/>
	<line class="st3" x1="22.6" y1="30.6" x2="22.6" y2="34.4"/>
	<line class="st3" x1="17.6" y1="34.5" x2="40.7" y2="34.5"/>
	<path class="st4" d="M23.5,34.5l3.2-8.6c0.1-0.2,0.3-0.4,0.5-0.4h12.7c0.4,0,0.7,0.4,0.5,0.8l-3,8.2"/>
	<circle class="st3" cx="17.3" cy="19.2" r="3.7"/>
	<g>
		<polyline class="st5" points="29.9,28.7 27.9,30.2 29.9,31.7 		"/>
		<polyline class="st5" points="34.3,31.7 36.3,30.2 34.3,28.7 		"/>
		<line class="st5" x1="32.8" y1="28.2" x2="31.2" y2="32.2"/>
	</g>
</g>
</svg>
