<?xml version="1.0" encoding="utf-8"?>
<!-- Generator: Adobe Illustrator 28.0.0, SVG Export Plug-In . SVG Version: 6.00 Build 0)  -->
<svg version="1.1" id="Layer_1" xmlns="http://www.w3.org/2000/svg" xmlns:xlink="http://www.w3.org/1999/xlink" x="0px" y="0px"
	 viewBox="0 0 50 50" style="enable-background:new 0 0 50 50;" xml:space="preserve">
<style type="text/css">
	.st0{fill:#8256D8;}
	.st1{fill:#A475EF;}
	.st2{fill:none;stroke:#444444;stroke-width:2.5;stroke-linecap:round;stroke-linejoin:round;stroke-miterlimit:10;}
	.st3{fill:none;stroke:#444444;stroke-linecap:round;stroke-linejoin:round;stroke-miterlimit:10;}
	.st4{fill:none;stroke:#444444;stroke-width:0.5;stroke-linecap:round;stroke-linejoin:round;stroke-miterlimit:10;}
</style>
<polygon class="st0" points="28.2,19.4 36,21.9 29.3,26.6 29.4,34.8 22.8,29.9 15.1,32.6 17.7,24.8 12.8,18.2 21,18.3 25.7,11.6 "/>
<path class="st1" d="M44.6,12.4L39,8.8l-7.7-4.4l-6-2.8c-3.2,0-21.5,8.9-21.5,12.1l-0.5,7.8l0.5,15.1l11.5,7.6l31-11
	C47.2,32.7,45.6,14.4,44.6,12.4z"/>
<g>
	<g>
		<path class="st2" d="M29.9,46.5l-2.2,1.3c-1.7,1-3.8,1-5.5,0l-15.6-9C5,37.8,3.9,36,3.9,34V16c0-2,1-3.8,2.7-4.7l15.6-9
			c1.7-1,3.8-1,5.5,0l15.6,9c1.7,1,2.7,2.8,2.7,4.7v18c0,2-1,3.8-2.7,4.7l-2.5,1.4"/>
	</g>
</g>
<g>
	<path class="st3" d="M12.8,29.8V15.7c0-0.6,0.5-1.1,1.1-1.1h22c0.6,0,1.1,0.5,1.1,1.1v14.2l2.9,4.1v0.9c0,1.1-0.9,2-2,2H12.1
		c-1.1,0-2-0.9-2-2v-0.9L12.8,29.8z"/>
	<line class="st4" x1="12.8" y1="29.9" x2="37" y2="29.9"/>
	<polyline class="st4" points="10.1,34 21.9,34 22.5,35.1 27.6,35.1 28.1,34 39.9,34 	"/>
</g>
<g>
	<path class="st4" d="M26,21.7c-0.6-0.3-1.4-0.3-2,0c-0.7,0.3-1.6,1-2.2,2.3c0,0-1,2.1,0.4,3.1c0,0,1.1,0.6,2.2-0.4
		c0,0,0.6-0.6,1.1-0.1c0,0,0.7,0.7,1.5,0.7c0,0,1.8,0.1,1.6-2C28.5,25.3,28.2,22.6,26,21.7z"/>
	<ellipse class="st4" cx="20.6" cy="21.4" rx="1" ry="1.1"/>
	<ellipse class="st4" cx="29.4" cy="21.4" rx="1" ry="1.2"/>
	<ellipse class="st4" cx="23.3" cy="18.8" rx="1.1" ry="1.3"/>
	<ellipse class="st4" cx="26.7" cy="18.8" rx="1.1" ry="1.3"/>
</g>
</svg>
