<?xml version="1.0" encoding="utf-8"?>
<!-- Generator: Adobe Illustrator 24.0.3, SVG Export Plug-In . SVG Version: 6.00 Build 0)  -->
<svg version="1.1" id="Layer_1" xmlns="http://www.w3.org/2000/svg" xmlns:xlink="http://www.w3.org/1999/xlink" x="0px" y="0px"
	 viewBox="0 0 50 50" style="enable-background:new 0 0 50 50;" xml:space="preserve">
<style type="text/css">
	.st0{fill:#A475EF;}
	.st1{fill:#BF94F7;}
	.st2{fill:#444444;}
</style>
<g>
	<polygon class="st0" points="47.8,35 47.2,46 39.8,47.2 31.4,47.1 25.8,47.4 21.9,47 15.7,47.2 	"/>
</g>
<g>
	<polygon class="st1" points="47.8,19.7 47.8,35.6 16.4,47 7.3,47 3.9,45.8 2.2,42.6 2.8,36 	"/>
</g>
<g>
	<path class="st2" d="M44.7,48.5H6.1c-2.3,0-4.2-1.9-4.2-4.2V5.6c0-2.3,1.9-4.2,4.2-4.2h13.8c0.7,0,1.2,0.6,1.2,1.2
		s-0.6,1.2-1.2,1.2H6.1c-1,0-1.7,0.8-1.7,1.7v38.7c0,1,0.8,1.7,1.7,1.7h38.7c1,0,1.7-0.8,1.7-1.7v-24c0-0.7,0.6-1.2,1.2-1.2
		s1.2,0.6,1.2,1.2v24C49,46.6,47.1,48.5,44.7,48.5z"/>
</g>
<g>
	<g>
		<path class="st2" d="M44.3,15.9L39.9,13c0,0-0.1-0.1-0.1-0.1l-8.7-5.8c0,0,0,0,0,0l-4.3-2.9c-0.3-0.2-0.8-0.1-1,0.2
			c-0.2,0.3-0.1,0.8,0.2,1l3.3,2.2l-10.8,5.6C18.2,13.5,18,13.8,18,14l0.4,20.7v0c0,0,0,0,0,0c0,0,0,0.1,0,0.1c0,0.1,0,0.1,0.1,0.2
			c0,0,0.1,0.1,0.1,0.2c0,0,0.1,0.1,0.1,0.1c0.1,0.1,0.3,0.1,0.4,0.1c0.1,0,0.1,0,0.2,0c0.1,0,0.1,0,0.1,0l19.2-7.7
			c0.3-0.1,0.5-0.4,0.5-0.6l1-12.2l3.3,2.2c0.1,0.1,0.3,0.1,0.4,0.1c0.2,0,0.5-0.1,0.6-0.3C44.7,16.6,44.6,16.1,44.3,15.9z
			 M37.7,26.6l-16.6,6.6l6.2-9.3c0.4,0.2,0.8,0.2,1.3,0.2c0.2,0,0.5,0,0.7-0.1c1.9-0.4,3.1-2.2,2.8-4.2c-0.3-1.7-1.8-2.8-3.5-2.8
			c-0.2,0-0.5,0-0.7,0.1c-1.9,0.4-3.2,2.2-2.8,4.2c0.1,0.7,0.5,1.3,0.9,1.8l-6.2,9.3l-0.4-17.9l11.2-5.8l8,5.3L37.7,26.6z
			 M28.2,18.6c1.1-0.2,2.2,0.5,2.4,1.6c0.2,1.1-0.5,2.2-1.6,2.4c-0.6,0.1-1.1,0-1.5-0.3C27,22,26.7,21.5,26.6,21
			C26.4,19.9,27.1,18.8,28.2,18.6z"/>
	</g>
</g>
</svg>
