<svg xmlns="http://www.w3.org/2000/svg" id="Layer_1" data-name="Layer 1" version="1.1" viewBox="0 0 50 50"><defs><style>.cls-1{stroke-width:.5px;fill:none;stroke:#444;stroke-linecap:round;stroke-linejoin:round}</style></defs><path fill="#e589ef" stroke-width="0" d="M44.4 12.6L38.8 9l-7.7-4.4-6-2.8c-3.2 0-21.5 8.9-21.5 12.1l-.5 7.8.5 15.1 11.5 7.6 31-11c.9-.5-.7-18.8-1.7-20.8z"/><path fill="none" stroke="#444" stroke-linecap="round" stroke-linejoin="round" stroke-width="2.5" d="M29.7 46.7L27.5 48c-1.7 1-3.8 1-5.5 0L6.4 39c-1.6-1-2.7-2.8-2.7-4.8v-18c0-2 1-3.8 2.7-4.7l15.6-9c1.7-1 3.8-1 5.5 0l15.6 9c1.7 1 2.7 2.8 2.7 4.7v18c0 2-1 3.8-2.7 4.7l-2.5 1.4"/><path fill="none" stroke="#444" stroke-linecap="round" stroke-linejoin="round" d="M12.6 30V15.9c0-.6.5-1.1 1.1-1.1h22c.6 0 1.1.5 1.1 1.1v14.2l2.9 4.1v.9c0 1.1-.9 2-2 2H11.9c-1.1 0-2-.9-2-2v-.9l2.7-4.2z"/><path d="M12.6 30.1h24.2M9.9 34.2h11.8l.6 1.1h5.1l.5-1.1h11.8M25.8 21.9c-.6-.3-1.4-.3-2 0-.7.3-1.6 1-2.2 2.3 0 0-1 2.1.4 3.1 0 0 1.1.6 2.2-.4 0 0 .6-.6 1.1-.1 0 0 .7.7 1.5.7 0 0 1.8.1 1.6-2-.1 0-.4-2.7-2.6-3.6z" class="cls-1"/><ellipse cx="20.4" cy="21.6" class="cls-1" rx="1" ry="1.1"/><ellipse cx="29.2" cy="21.6" class="cls-1" rx="1" ry="1.2"/><ellipse cx="23.1" cy="19" class="cls-1" rx="1.1" ry="1.3"/><ellipse cx="26.5" cy="19" class="cls-1" rx="1.1" ry="1.3"/></svg>