<svg xmlns="http://www.w3.org/2000/svg" id="Layer_1" x="0" y="0" version="1.1" viewBox="0 0 50 50" xml:space="preserve"><style>.st3{fill:none;stroke:#444;stroke-linecap:round;stroke-miterlimit:10}</style><path fill="#8256d8" d="M29.5 19.9l7.9 2.4-6.7 4.7.1 8.2-6.6-4.9-7.8 2.7 2.7-7.8-5-6.6 8.3.1 4.7-6.7z"/><path fill="#a475ef" d="M44.6 12.4L39 8.8l-7.7-4.4-6-2.8c-3.2 0-21.5 8.9-21.5 12.1l-.5 7.8.5 15.1 11.5 7.6 31-11c.9-.5-.7-18.8-1.7-20.8z"/><path fill="none" stroke="#444" stroke-linecap="round" stroke-linejoin="round" stroke-miterlimit="10" stroke-width="2.5" d="M29.9 46.5l-2.2 1.3c-1.7 1-3.8 1-5.5 0l-15.6-9C5 37.8 3.9 36 3.9 34V16c0-2 1-3.8 2.7-4.7l15.6-9c1.7-1 3.8-1 5.5 0l15.6 9c1.7 1 2.7 2.8 2.7 4.7v18c0 2-1 3.8-2.7 4.7l-2.5 1.4"/><path d="M25.4 28.5l-1.7-2.3c-.6-.9-1.7-1.4-2.8-1.4h-8.2c-.9 0-1.7.5-2.1 1.2l-3 4.9c-1 1.6.2 3.7 2.1 3.7h7.8c.9 0 1.7-.8 1.7-1.7 0-.9-.8-1.7-1.7-1.7H13m9.6-.6v3.8m-5 .1h23.1" class="st3"/><path fill="none" stroke="#444" stroke-linecap="round" stroke-miterlimit="10" stroke-width=".5" d="M23.5 34.5l3.2-8.6c.1-.2.3-.4.5-.4h12.7c.4 0 .7.4.5.8l-3 8.2"/><circle cx="17.3" cy="19.2" r="3.7" class="st3"/><path fill="none" stroke="#444" stroke-linecap="round" stroke-linejoin="round" stroke-miterlimit="10" stroke-width=".5" d="M29.9 28.7l-2 1.5 2 1.5m4.4 0l2-1.5-2-1.5m-1.5-.5l-1.6 4"/></svg>