<svg xmlns="http://www.w3.org/2000/svg" version="1" viewBox="0 0 50 50"><path fill="#E56060" d="M10.28 32.351c0 3.273 1.08 6.286 2.885 8.731l26.548-9.663c-.364-5.81-4.094-10.7-9.264-12.755l4.324-7.483a5.517 5.517 0 00-.878-6.653 5.46 5.46 0 00-3.892-1.614h-9.975a5.513 5.513 0 00-5.514 5.514c0 .965.261 1.914.744 2.753l4.221 7.525c-5.456 2.158-9.199 7.42-9.199 13.645z"/><path fill="#FF6B6B" d="M15.669 12.112L34.386 5.3a5.46 5.46 0 00-4.383-2.186h-9.975a5.513 5.513 0 00-5.514 5.514c0 .965.261 1.914.744 2.753l.411.731z"/><g fill="#031326"><path d="M31.705 18.251l3.832-6.631c.558-.97.853-2.073.853-3.192a6.351 6.351 0 00-1.87-4.52 6.314 6.314 0 00-4.517-1.875h-9.975a6.403 6.403 0 00-6.395 6.395c0 1.109.298 2.213.856 3.184l3.744 6.675c-5.399 2.547-8.835 7.963-8.835 14.065 0 8.611 7.005 15.616 15.616 15.616 2.674 0 5.312-.688 7.63-1.988a.88.88 0 10-.863-1.536 13.857 13.857 0 01-6.768 1.762c-7.639 0-13.853-6.215-13.853-13.854 0-5.515 3.166-10.388 8.106-12.589l.013.002a.515.515 0 00.205-.042 14.305 14.305 0 0110.773-.116.515.515 0 00.221.034c4.767 2.054 8.036 6.651 8.361 11.832.03.485.441.854.935.824a.88.88 0 00.824-.934c-.353-5.651-3.806-10.693-8.893-13.112zm-11.436.061l-4.247-7.57a4.647 4.647 0 01-.626-2.314 4.638 4.638 0 014.633-4.632h9.975c1.241 0 2.401.481 3.269 1.355a4.604 4.604 0 011.356 3.277c0 .81-.214 1.61-.618 2.312l-4.358 7.542a14.932 14.932 0 00-1.498-.394l-2.528-4.387 1.677-2.908a.815.815 0 00-.705-1.22h-6.005a.53.53 0 000 1.058h2.043l4.174 7.242a15.395 15.395 0 00-6.542.639zm3.586-7.881h2.32l-1.161 2.012-1.159-2.012z"/><path d="M25.014 21.999c-5.709 0-10.352 4.644-10.352 10.352 0 5.709 4.644 10.353 10.352 10.353s10.353-4.644 10.353-10.353c0-5.708-4.644-10.352-10.353-10.352zm0 19.647c-5.125 0-9.295-4.17-9.295-9.295s4.17-9.295 9.295-9.295 9.295 4.17 9.295 9.295c.001 5.126-4.169 9.295-9.295 9.295z"/></g></svg>