<?xml version="1.0" encoding="UTF-8"?>
<svg xmlns="http://www.w3.org/2000/svg" version="1.1" viewBox="0 0 300 300">
  <defs>
    <style>
      .cls-1 {
        fill: #646464;
      }

      .cls-2 {
        fill: #db5e7d;
      }

      .cls-3 {
        fill: none;
        opacity: .3;
        stroke: #fff;
        stroke-linecap: round;
        stroke-linejoin: round;
        stroke-width: 4px;
      }

      .cls-3, .cls-4 {
        isolation: isolate;
      }

      .cls-5 {
        fill: #ffda00;
      }

      .cls-4, .cls-6 {
        opacity: .2;
      }

      .cls-7 {
        fill: #ff6780;
      }

      .cls-8 {
        fill: #78d9ff;
      }

      .cls-9 {
        fill: #ff8da4;
      }

      .cls-10 {
        fill: #d34f6e;
      }

      .cls-11 {
        fill: #fff;
      }

      .cls-12, .cls-6 {
        fill: #383838;
      }

      .cls-13 {
        fill: #07e570;
      }

      .cls-14 {
        fill: #828d8e;
      }

      .cls-15 {
        fill: #9ea8a9;
      }

      .cls-16 {
        fill: #008dd3;
      }

      .cls-17 {
        fill: #708080;
      }

      .cls-18 {
        fill: #aeb9ba;
      }

      .cls-19 {
        fill: #ccc;
      }

      .cls-20 {
        fill: #f9b4c4;
      }

      .cls-21 {
        fill: #979a9b;
      }
    </style>
  </defs>
  <!-- Generator: Adobe Illustrator 28.7.1, SVG Export Plug-In . SVG Version: 1.2.0 Build 142)  -->
  <g>
    <g id="Camada_1">
      <g>
        <g id="Camada_10">
          <path class="cls-16" d="M276.3,156.4c.1,19.8-4.1,38.6-11.6,55.7-21.1,47.6-68.6,80.8-124,81-14.7.1-28.9-2.3-42.2-6.5-25-8-46.8-23-63.1-42.8-17-20.4-28.1-46-30.8-74-.4-4-.6-8.2-.6-12.3-.2-46.2,22.7-87.2,57.9-111.9,4.6-3.3,9.4-6.2,14.4-8.8,7-3.8,14.4-6.8,22-9.4,7.2-2.3,14.7-4,22.4-5.2,6.2-.8,12.5-1.3,18.9-1.4,25-.1,48.5,6.6,68.8,18.3,3.7,2.1,7.1,4.3,10.5,6.8,16.2,11.5,29.8,26.5,39.7,43.9,1.1,2,2.2,3.9,3.2,6,.8,1.8,1.7,3.5,2.5,5.3,2.6,5.8,4.8,11.7,6.6,17.8,2,6.8,3.5,13.9,4.3,21h0c.7,5.4,1.1,10.9,1.1,16.5Z"/>
        </g>
        <g>
          <g>
            <g id="Camada_2">
              <g>
                <polygon class="cls-17" points="158.1 139.8 139.5 128 266.1 162.9 267.8 163.7 286 175.3 158.1 139.8"/>
                <g>
                  <g>
                    <g>
                      <polygon class="cls-15" points="126.7 232.1 143.2 241.2 150.1 236 131.6 226.3 126.7 232.1"/>
                      <path class="cls-12" d="M143,127.9s-3-1.7-3.1-1.3c-.5,2.4-25.7,84.6-25.7,84.6,0,0-.6,6.6,2.5,11.1,0,0,4.9,7.8,10,10.1s91.1,26.1,91.1,26.1c0,0,11.2,3.9,20.4-.8,5.4-2.3,7.4-6.4,7.4-6.4l1.7-5.6,24.3-79.2s.7-1.4-2.3-2.4c-3.4-1.3-126.2-36.2-126.2-36.2Z"/>
                    </g>
                    <path class="cls-18" d="M276.6,167.8l-6.5-3.4-3.6,1,2.9,1.1-.9,2.8s19.9,6.8,20,6.6.6-1.2.6-1.2l-12.6-6.9Z"/>
                  </g>
                  <path class="cls-14" d="M143,241.1h0c.8.5,1.6.7,2.5,1l-3-1.6-9.9-12.9c-.3-3.6.8-6.3.8-6.3l-19.2-10.1s-.2.7-.3,2c-.3,4.8,1.2,9.5,4.1,13.3.6.8,1.2,1.5,1.6,2.1,1.9,2.2,3.3,4,5.8,5l16.3,6.9c.2,0,.4.3.6.4l.6.2Z"/>
                  <path class="cls-19" d="M161.4,139.9s-3-1.6-3.6.3c-.5,2.4-25,82.8-25,82.8,0,0-2,5.7.3,10.6,0,0,3.1,7.3,12,10.5,6,1.8,91.1,26.1,91.1,26.1,0,0,11.2,3.9,20.4-.8,5.4-2.3,7.4-6.4,7.4-6.4l1.7-5.6,24.8-80.7s.2,0-2.8-.9c-3.2-1-126.3-36-126.3-36Z"/>
                  <path class="cls-17" d="M135.1,236.9l-15.5-8.3s1.8,3.2,7.1,6c5,2.7,14.8,7.8,14.8,7.8,0,0-3.3-1.7-6.3-5.5Z"/>
                  <g>
                    <path class="cls-6" d="M159.7,139.3c-.8-.1-1.6,0-1.9.9-.5,2.4-25,82.8-25,82.8,0,0-2,5.7.3,10.6,0,0,3.1,7.3,12,10.5,6,1.8,91.1,26.1,91.1,26.1,0,0,11.2,3.9,20.4-.8-111.6-17.9-98.3-121.2-96.9-130.2Z"/>
                    <path class="cls-19" d="M159.8,138.6s0,.2-.1.6c.2,0,.5,0,.7.2l-.6-.8Z"/>
                  </g>
                </g>
                <g>
                  <g>
                    <polygon class="cls-2" points="141.2 129.2 157.8 140 161.3 137 149.4 117.8 141.2 129.2"/>
                    <g>
                      <path class="cls-10" d="M143.4,130.6s-4.1-1.7-3.3-4.3,5.5-17.8,5.5-17.8c0,0,3.3-8.6,8.6-11.9,0,0,8.8-6.4,14.5-6.1s94.6,24.8,94.6,24.8c0,0,11.7,2.2,16.3,13.9,2.9,6.5,2.1,12.4,2.1,12.4l-2.4,7.7-4.6,15s.1,1.9-3.2,1.1c-3.3-.6-128.1-34.9-128.1-34.9Z"/>
                      <path class="cls-2" d="M267.2,116.8"/>
                    </g>
                  </g>
                  <g>
                    <path class="cls-9" d="M264.8,115.2s3.2,1,6,2.6c2.7,1.8,15.3,9.6,15.3,9.6l-3.1-1.4-2.6-.8c-7.8-2.2-90.2-24.4-95.7-24.9l-14.8-9.9c12.2,3,12.3,2.6,16,3.7s14.1,3.8,14.1,3.8l64.8,17.3Z"/>
                    <path class="cls-20" d="M164.2,118.9l-18.1-10.2c-.4-.1-.5-.6-.4-.8,1.6-2.8,3.3-10,13.7-14.8,3.4-1.8,7.2-2.9,10.7-2.8l16.3,10.3s-6.7,1.7-11.1,4.6c-4.4,2.9-8.8,9.3-11.1,13.7h0Z"/>
                  </g>
                  <path class="cls-7" d="M157.7,139.9l5.6-18.1c1-3.2,2.3-6.3,4.2-9.1s3.2-4.5,5.3-5.9c0,0,8.8-6.7,14.2-6.2,5.7.3,93.2,24.4,93.2,24.4,0,0,11.6,2.2,16.1,14.1.1.3.3.6.4,1,1.9,4.9,1.9,10.3.4,15.3l-1.2,4-5.3,17.3-2.3-.7c-2.9-.4-130.4-36.1-130.4-36.1Z"/>
                </g>
              </g>
            </g>
            <path class="cls-21" d="M202.1,103l-9.5-2.8c-2.7-.8-4.3-3.7-3.5-6.4l8-27.2c6.6-22.6,31.5-35.3,55.3-28.2,23.8,7,37.8,31.1,31.2,53.7l-7.3,24.7c-.9,3.1-4.2,4.9-7.3,4l-8.1-2.4c-3.1-.9-4.9-4.2-4-7.3l7.3-24.7c3.5-11.9-4.3-24.7-17.5-28.6s-26.7,2.7-30.2,14.5l-8,27.2c-.8,2.7-3.7,4.3-6.4,3.5Z"/>
          </g>
          <path class="cls-12" d="M237.6,196.1c3.4-11.1-2.8-22.9-13.9-26.3s-22.9,2.8-26.3,13.9c-2,6.6-.6,13.4,3,18.5l-11.6,27.1,30,9.2,5.6-29c6.3-2.1,11.2-6.9,13.3-13.5Z"/>
          <path class="cls-1" d="M237.6,196.1c3.4-11.1-2.8-22.9-13.9-26.3s-22.9,2.8-26.3,13.9c-2,6.6-.6,13.4,3,18.5l-11.6,27.1,30,9.2,5.6-29c6.3-2.1,11.2-6.9,13.3-13.5Z"/>
          <path class="cls-12" d="M229.7,195.4c3.4-11.1-2.8-22.9-13.9-26.3-.1,0-.3,0-.4-.1-8.2.8-15.4,6.4-18,14.8-2,6.6-.6,13.4,3,18.5l-11.6,27.1,22.4,6.9,5.3-27.4c6.3-2.1,11.2-6.9,13.3-13.5Z"/>
        </g>
        <path class="cls-8" d="M69.2,113.2l-27.8,4.7,8.3-17.2,33.9-6.4,14.9,4.1-44.9,94.4-19.6-5.4,35.2-74.2Z"/>
        <path class="cls-13" d="M102.7,141.1c-.6-5.5-.2-10.8,1.1-15.8,1.3-5,4.5-9.9,9.5-14.9l32.7-32.2c1.5-1.6,2.6-3.4,3.5-5.5.8-2.1,1.1-4,1-5.6l-.6-4.7c0-.4-.1-.9-.3-1.6-.6-2.2-1.9-3.7-3.9-4.5-2-.8-4.4-.9-7.2,0l-13,3.8c-3.7,1.1-6.4,3.3-8.1,6.7s-2.3,7.7-1.8,12.8l-19.5,5.7c-1.1-10.8.5-20,4.9-27.5,4.4-7.5,11.1-12.6,20.3-15.3l13.3-3.9c8.6-2.5,15.9-2.6,22-.2,6.1,2.4,10.1,6.8,12,13.3s.8,3.1,1,4.9l.5,4.8c.6,5.2,0,10.1-1.6,14.5-1.7,4.5-4.6,8.8-8.9,12.9l-31.8,30.7c-2.1,2-3.6,4.1-4.6,6.1-1,2-1.4,4.3-1.2,6.8l54.6-16,2,17.8-74.2,21.7-1.6-14.9Z"/>
        <path class="cls-5" d="M148.5,176.2c4.5,4.9,6.2,10.7,5,17.5s-.7,2.8-1.3,4.4l-2.1,5.6c-1.3,3.3-3.5,6.4-6.4,9.1-3,2.7-6.5,4.8-10.6,6.3,2.6,2.6,4.5,5.4,5.6,8.5,1.1,3.1,1.4,6.2.9,9.3s-.4,1.7-.8,3l-2.1,5.6c-3.3,8.8-8.5,15.1-15.7,18.9-7.2,3.8-15.8,4.8-25.8,3l-14-2.6c-9.3-1.7-16.1-5.4-20.6-11.2-4.5-5.7-6-12.7-4.5-20.8s1.1-4.7,1.8-6.8l19.7,3.6c-.4.8-.7,2.1-1,3.7-.7,3.7-.2,6.8,1.3,9.3,1.5,2.5,4,4.1,7.4,4.7l14,2.6c4.2.8,7.9.4,11-1,3.1-1.4,5.2-3.8,6.4-7l2.1-5.6c.2-.4.3-.8.4-1.4.5-2.6-.3-4.9-2.2-6.8-1.9-1.9-4.8-3.3-8.7-4l-18.5-3.4,6.2-16.8,18.5,3.4c3.7.7,6.9.3,9.8-1,2.9-1.3,4.8-3.4,5.8-6.2l2.1-5.6c.1-.3.3-.7.4-1.4.4-2.2-.2-4.2-1.7-5.8-1.5-1.7-3.9-2.8-6.9-3.4l-14-2.6c-4-.7-7.5,0-10.7,2.3-3.2,2.3-5.6,5.8-7.4,10.7l-20.1-3.7c3.7-10.2,9.3-17.6,16.8-22.3,7.4-4.7,15.9-6.2,25.5-4.5l14,2.6c9.1,1.7,15.9,4.9,20.4,9.8Z"/>
        <g class="cls-4">
          <path class="cls-11" d="M263.6,48c13.4,7.2,19.8,23.8,17.2,38.4-.3,2-1,4-1.6,6-1,3.1-5.6,2.5-5.9-.7-.3-3.8-.1-7.4-.7-11.1-1.1-9.8-5.4-19.1-11.7-26.7-.5-.5-.9-1.1-1.2-1.7-1.5-2.5,1.3-5.5,3.9-4.2h0Z"/>
        </g>
        <g class="cls-4">
          <path class="cls-11" d="M235.2,117.9c12.3,2.8,24.5,5.9,36.7,9.1.7.2,3.9,1,4.6,1.2,7.5,1.9,13.7,8,15.8,15.5,1.4,4.6,1.1,9.5-.5,14,0,0-1.1,3.6-1.1,3.6l-4.3,14.4c-2.9,9.6-5.9,19.2-9,28.8-.6,1.9-2.7,3-4.6,2.4-1.8-.6-2.9-2.5-2.4-4.3,2.2-9.8,4.7-19.5,7.1-29.3l3.7-14.6c.3-1.1,1.2-4.3,1.3-5.3.3-2.2,0-4.5-.6-6.6-1.3-4.3-4.9-8-9.2-9.2-13.2-4-26.3-8.2-39.4-12.6-4.3-1.6-2.5-8,2-7.1h0Z"/>
        </g>
        <path class="cls-3" d="M149.6,41.8s14.4,1.4,15.1,18-4,23.4-15.5,33.1c-11.5,9.7-16.2,14.8-16.2,14.8"/>
        <path class="cls-3" d="M83.6,98.1l7.5,2.3c1,.3,1.5,1.4,1,2.4l-31.5,65.4"/>
        <path class="cls-3" d="M111.1,167.1l18.5,3.6c5,1.1,9.7,3.4,13.6,6.7,3.6,3.1,6.3,8.8,5.6,13.8-1.4,10.6-5.8,15.8-6.8,16.9"/>
        <path class="cls-3" d="M131.3,222.9s7.7,7.2,3.8,16.6"/>
      </g>
    </g>
  </g>
</svg>