<?xml version="1.0" encoding="utf-8"?>
<!-- Generator: Adobe Illustrator 26.5.0, SVG Export Plug-In . SVG Version: 6.00 Build 0)  -->
<svg version="1.1" id="Layer_1" xmlns="http://www.w3.org/2000/svg" xmlns:xlink="http://www.w3.org/1999/xlink" x="0px" y="0px"
	 viewBox="0 0 50 50" style="enable-background:new 0 0 50 50;" xml:space="preserve">
<style type="text/css">
	.st0{fill:#A475EF;}
	.st1{fill:#BF94F7;}
	.st2{fill:none;stroke:#444444;stroke-width:2.5;stroke-linecap:round;stroke-linejoin:round;stroke-miterlimit:10;}
	.st3{fill:none;stroke:#494949;stroke-linecap:round;stroke-linejoin:round;stroke-miterlimit:10;}
</style>
<g>
	<g>
		<g>
			<path class="st0" d="M10.5,13.6l2.9-1c0.1,0.2,0.1,0.3,0.1,0.5c0,0.9-0.7,1.5-1.5,1.5C11.2,14.6,10.7,14.2,10.5,13.6z"/>
			<path class="st0" d="M25.2,13.7c-0.1-0.2-0.1-0.4-0.1-0.6v-0.5c0-0.7,0.6-1.3,1.3-1.3h11.5c0.7,0,1.3,0.6,1.3,1.3v0.5
				c0,0.7-0.6,1.3-1.3,1.3H26.4C25.9,14.4,25.4,14.1,25.2,13.7z"/>
			<path class="st0" d="M29.3,26.9c0.5-1,1.2-1.9,2-2.7h-4.9c-0.7,0-1.3,0.6-1.3,1.3v0.5c0,0.2,0,0.4,0.1,0.6
				c0.2,0.4,0.7,0.7,1.2,0.7h2.8C29.2,27.1,29.2,27,29.3,26.9z"/>
			<path class="st0" d="M37.2,25.8c-0.3-0.2-0.6-0.3-0.9-0.5c0,0-0.1,0-0.1,0c0,0,0,0,0,0c-0.1,0-0.1-0.1-0.2-0.1
				c-0.2-0.1-0.4-0.1-0.6-0.2c-0.1,0-0.2,0-0.4-0.1c0,0-0.2,0-0.2,0c-0.2,0-0.4,0-0.6,0c0,0,0,0,0,0c0,0-0.1,0-0.1,0
				c-0.1,0-0.2,0.1-0.3,0.1c-0.2,0.1-0.4,0.2-0.6,0.2c0,0,0,0,0,0c-0.1,0.1-0.2,0.2-0.3,0.3c-0.2,0.2-0.5,0.5-0.7,0.7
				c0,0.1,0,0.1,0,0.2c-0.1,0.2-0.2,0.5-0.2,0.7h6c-0.1-0.4-0.2-0.7-0.4-1.1C37.3,26,37.2,25.9,37.2,25.8z"/>
			<path class="st0" d="M13.5,25.7c0,0.8-0.7,1.5-1.5,1.5c-0.9,0-1.6-0.7-1.6-1.5c0-0.9,0.7-1.5,1.6-1.5
				C12.8,24.2,13.5,24.8,13.5,25.7z"/>
			<path class="st0" d="M21.6,17.6v3.5H8.1c-0.7,0-1.3,0.6-1.3,1.3V29c0,0.7,0.6,1.3,1.3,1.3h4l-9.6,3.5L1.9,22.9l0-0.9l0-4.6v-0.8
				l0.1,0l4.9-1.8v0.6c0,1.1,0.9,2,2,2H21.6z"/>
			<path class="st0" d="M48.5,17l-11.1,4h-9v-3.5h11.9c1.1,0,2-0.9,2-2v-5.2c0-1.1-0.9-2-2-2H24.8l17.3-6.3l0,0l0,0l5.1,2.3l0.1,1.4
				l0.4,6.1L48.5,17z"/>
			<path class="st1" d="M13.4,12.5c-0.2-0.6-0.8-1-1.4-1c-0.9,0-1.6,0.7-1.6,1.5c0,0.2,0,0.4,0.1,0.5c0.2,0.6,0.8,1,1.5,1
				c0.8,0,1.5-0.7,1.5-1.5C13.5,12.9,13.4,12.7,13.4,12.5z M46.2,2.2l-4-0.1h0l-7.4-0.2l-29,0.2L2.7,5L1.9,16.7l-0.1,0.8l-0.3,4.7
				L1.9,22l12.5-4.5H8.8c-1.1,0-2-0.9-2-2v-5.2c0-1.1,0.9-2,2-2h31.3l7.2-2.6l1-0.4L46.2,2.2z M26.4,11.4c-0.7,0-1.3,0.6-1.3,1.3
				v0.5c0,0.2,0,0.4,0.1,0.6l6.5-2.3H26.4z M13.4,12.5c-0.2-0.6-0.8-1-1.4-1c-0.9,0-1.6,0.7-1.6,1.5c0,0.2,0,0.4,0.1,0.5
				c0.2,0.6,0.8,1,1.5,1c0.8,0,1.5-0.7,1.5-1.5C13.5,12.9,13.4,12.7,13.4,12.5z"/>
		</g>
	</g>
	<g>
		<g>
			<g>
				<path class="st2" d="M18.2,48.5H5.5c-1.9,0-3.4-1.6-3.4-3.5V6c0-2,1.5-3.5,3.4-3.5h39c1.9,0,3.4,1.6,3.4,3.5v24.6"/>
				<path class="st2" d="M2.1,16"/>
				<path class="st2" d="M47.9,16"/>
			</g>
		</g>
	</g>
	<g>
		<path class="st3" d="M8.8,17.6h31.5c1.1,0,2-0.9,2-2v-5.2c0-1.1-0.9-2-2-2H8.8c-1.1,0-2,0.9-2,2v5.2C6.8,16.7,7.7,17.6,8.8,17.6z"
			/>
		<path class="st3" d="M31.4,27.2c-0.2,0.4-0.3,0.9-0.3,1.3v1.7h7.2v-1.7c0-0.5-0.1-0.9-0.3-1.3c-0.5-1.3-1.8-2.3-3.4-2.3
			C33.2,24.9,31.9,25.9,31.4,27.2z"/>
		<path class="st3" d="M6.8,22.4V29c0,0.7,0.6,1.3,1.3,1.3H29v-1.7c0-0.5,0.1-0.9,0.2-1.3c0.3-1.2,1-2.3,1.9-3.1
			c1-0.8,2.3-1.3,3.7-1.3c1.4,0,2.7,0.5,3.7,1.4c0.3,0.2,0.5,0.5,0.7,0.7c0.8,1,1.3,2.3,1.3,3.7v1.7H41c0.7,0,1.3-0.6,1.3-1.3v-6.6
			c0-0.7-0.6-1.3-1.3-1.3H8.1C7.4,21.1,6.8,21.7,6.8,22.4z"/>
		<path class="st3" d="M26.3,14.4h11.5c0.7,0,1.3-0.6,1.3-1.3v-0.5c0-0.7-0.6-1.3-1.3-1.3H26.3c-0.7,0-1.3,0.6-1.3,1.3v0.5
			C25,13.9,25.6,14.4,26.3,14.4z"/>
		<path class="st3" d="M31.4,27.2h6.7c-0.5-1.3-1.8-2.3-3.4-2.3C33.2,24.9,31.9,25.9,31.4,27.2z"/>
		<path class="st3" d="M25,25v1.4c0,0.5,0.4,0.9,0.9,0.9h3.2c0.3-1.2,1-2.3,1.9-3.1h-5.1C25.4,24.2,25,24.5,25,25z"/>
		<circle class="st3" cx="11.9" cy="13" r="1.5"/>
		<circle class="st3" cx="11.9" cy="25.7" r="1.5"/>
		
			<rect x="21.6" y="17.6" transform="matrix(-1 -4.510982e-11 4.510982e-11 -1 50.0033 38.6522)" class="st3" width="6.8" height="3.5"/>
		<g>
			<path class="st3" d="M26.2,35.3v8.4c0,1,0.8,1.8,1.8,1.8h13.5c1,0,1.8-0.8,1.8-1.8v-8.4c0-1-0.8-1.8-1.8-1.8H28
				C27,33.5,26.2,34.3,26.2,35.3z"/>
			<path class="st3" d="M32.9,41.4c0,1,0.8,1.8,1.8,1.8c1,0,1.8-0.8,1.8-1.8c0-0.7-0.4-1.4-1.1-1.7h0.6c0.3,0,0.5-0.2,0.5-0.5v-0.9
				c0-0.3-0.2-0.5-0.5-0.5h-2.6c-0.3,0-0.5,0.2-0.5,0.5v0.9c0,0.3,0.2,0.5,0.5,0.5H34C33.3,40,32.9,40.6,32.9,41.4z"/>
			<g>
				<path class="st3" d="M29,28.6v4.9h2.1v-4.9c0-0.5,0.1-0.9,0.3-1.3c0.5-1.3,1.8-2.3,3.4-2.3c1.5,0,2.8,1,3.4,2.3
					c0.2,0.4,0.3,0.9,0.3,1.3v4.9h2.1v-4.9c0-1.4-0.5-2.7-1.3-3.7c-0.2-0.3-0.5-0.5-0.7-0.7c-1-0.8-2.3-1.4-3.7-1.4
					c-1.4,0-2.7,0.5-3.7,1.3c-0.9,0.8-1.6,1.9-1.9,3.1C29,27.7,29,28.1,29,28.6z"/>
			</g>
		</g>
	</g>
</g>
</svg>
