<?xml version="1.0" encoding="utf-8"?>
<!-- Generator: Adobe Illustrator 26.5.0, SVG Export Plug-In . SVG Version: 6.00 Build 0)  -->
<svg version="1.1" id="Layer_1" xmlns="http://www.w3.org/2000/svg" xmlns:xlink="http://www.w3.org/1999/xlink" x="0px" y="0px"
	 viewBox="0 0 50 50" style="enable-background:new 0 0 50 50;" xml:space="preserve">
<style type="text/css">
	.st0{fill:#A475EF;}
	.st1{fill:#DC5E82;}
	.st2{fill:#F56991;}
	.st3{fill:none;stroke:#444444;stroke-width:2.5;stroke-linecap:round;stroke-linejoin:round;stroke-miterlimit:10;}
	.st4{fill:none;stroke:#494949;stroke-linecap:round;stroke-linejoin:round;stroke-miterlimit:10;}
</style>
<g>
	<g>
		<g>
			<path class="st0" d="M10.5,13.4l2.9-1c0.1,0.2,0.1,0.3,0.1,0.5c0,0.9-0.7,1.5-1.5,1.5S10.7,14,10.5,13.4z"/>
			<path class="st1" d="M25.2,13.5c-0.1-0.2-0.1-0.4-0.1-0.6v-0.5c0-0.7,0.6-1.3,1.3-1.3h11.5c0.7,0,1.3,0.6,1.3,1.3v0.5
				c0,0.7-0.6,1.3-1.3,1.3H26.4C25.9,14.2,25.4,13.9,25.2,13.5z"/>
			<path class="st1" d="M29.3,26.7c0.5-1,1.2-1.9,2-2.7h-4.9c-0.7,0-1.3,0.6-1.3,1.3v0.5c0,0.2,0,0.4,0.1,0.6
				c0.2,0.4,0.7,0.7,1.2,0.7h2.8C29.2,26.9,29.2,26.8,29.3,26.7z"/>
			<path class="st1" d="M37.2,25.6c-0.3-0.2-0.6-0.3-0.9-0.5h-0.1l0,0c-0.1,0-0.1-0.1-0.2-0.1c-0.2-0.1-0.4-0.1-0.6-0.2
				c-0.1,0-0.2,0-0.4-0.1h-0.2c-0.2,0-0.4,0-0.6,0l0,0h-0.1c-0.1,0-0.2,0.1-0.3,0.1c-0.2,0.1-0.4,0.2-0.6,0.2l0,0
				c-0.1,0.1-0.2,0.2-0.3,0.3c-0.2,0.2-0.5,0.5-0.7,0.7c0,0.1,0,0.1,0,0.2c-0.1,0.2-0.2,0.5-0.2,0.7h6c-0.1-0.4-0.2-0.7-0.4-1.1
				C37.3,25.8,37.2,25.7,37.2,25.6z"/>
			<path class="st1" d="M13.5,25.5c0,0.8-0.7,1.5-1.5,1.5c-0.9,0-1.6-0.7-1.6-1.5c0-0.9,0.7-1.5,1.6-1.5
				C12.8,24,13.5,24.6,13.5,25.5z"/>
			<path class="st1" d="M21.6,17.4v3.5H8.1c-0.7,0-1.3,0.6-1.3,1.3v6.6c0,0.7,0.6,1.3,1.3,1.3h4l-9.6,3.5L1.9,22.7v-0.9v-4.6v-0.8H2
				l4.9-1.8v0.6c0,1.1,0.9,2,2,2h12.7V17.4z"/>
			<path class="st1" d="M48.5,16.8l-11.1,4h-9v-3.5h11.9c1.1,0,2-0.9,2-2v-5.2c0-1.1-0.9-2-2-2H24.8l17.3-6.3l0,0l0,0l5.1,2.3
				l0.1,1.4l0.4,6.1L48.5,16.8z"/>
			<path class="st2" d="M13.4,12.3c-0.2-0.6-0.8-1-1.4-1c-0.9,0-1.6,0.7-1.6,1.5c0,0.2,0,0.4,0.1,0.5c0.2,0.6,0.8,1,1.5,1
				c0.8,0,1.5-0.7,1.5-1.5C13.5,12.7,13.4,12.5,13.4,12.3z M46.2,2l-4-0.1l0,0l-7.4-0.2l-29,0.2L2.7,4.8L1.9,16.5l-0.1,0.8L1.5,22
				l0.4-0.2l12.5-4.5H8.8c-1.1,0-2-0.9-2-2v-5.2c0-1.1,0.9-2,2-2h31.3l7.2-2.6l1-0.4L46.2,2z M26.4,11.2c-0.7,0-1.3,0.6-1.3,1.3V13
				c0,0.2,0,0.4,0.1,0.6l6.5-2.3h-5.3V11.2z M13.4,12.3c-0.2-0.6-0.8-1-1.4-1c-0.9,0-1.6,0.7-1.6,1.5c0,0.2,0,0.4,0.1,0.5
				c0.2,0.6,0.8,1,1.5,1c0.8,0,1.5-0.7,1.5-1.5C13.5,12.7,13.4,12.5,13.4,12.3z"/>
		</g>
	</g>
	<g>
		<g>
			<g>
				<path class="st3" d="M18.2,48.3H5.5c-1.9,0-3.4-1.6-3.4-3.5v-39c0-2,1.5-3.5,3.4-3.5h39c1.9,0,3.4,1.6,3.4,3.5v24.6"/>
				<path class="st3" d="M2.1,15.8"/>
				<path class="st3" d="M47.9,15.8"/>
			</g>
		</g>
	</g>
	<g>
		<path class="st4" d="M8.8,17.4h31.5c1.1,0,2-0.9,2-2v-5.2c0-1.1-0.9-2-2-2H8.8c-1.1,0-2,0.9-2,2v5.2C6.8,16.5,7.7,17.4,8.8,17.4z"
			/>
		<path class="st4" d="M31.4,27c-0.2,0.4-0.3,0.9-0.3,1.3V30h7.2v-1.7c0-0.5-0.1-0.9-0.3-1.3c-0.5-1.3-1.8-2.3-3.4-2.3
			C33.2,24.7,31.9,25.7,31.4,27z"/>
		<path class="st4" d="M6.8,22.2v6.6c0,0.7,0.6,1.3,1.3,1.3H29v-1.7c0-0.5,0.1-0.9,0.2-1.3c0.3-1.2,1-2.3,1.9-3.1
			c1-0.8,2.3-1.3,3.7-1.3c1.4,0,2.7,0.5,3.7,1.4c0.3,0.2,0.5,0.5,0.7,0.7c0.8,1,1.3,2.3,1.3,3.7v1.7H41c0.7,0,1.3-0.6,1.3-1.3v-6.6
			c0-0.7-0.6-1.3-1.3-1.3H8.1C7.4,20.9,6.8,21.5,6.8,22.2z"/>
		<path class="st4" d="M26.3,14.2h11.5c0.7,0,1.3-0.6,1.3-1.3v-0.5c0-0.7-0.6-1.3-1.3-1.3H26.3c-0.7,0-1.3,0.6-1.3,1.3v0.5
			C25,13.7,25.6,14.2,26.3,14.2z"/>
		<path class="st4" d="M31.4,27h6.7c-0.5-1.3-1.8-2.3-3.4-2.3C33.2,24.7,31.9,25.7,31.4,27z"/>
		<path class="st4" d="M25,24.8v1.4c0,0.5,0.4,0.9,0.9,0.9h3.2c0.3-1.2,1-2.3,1.9-3.1h-5.1C25.4,24,25,24.3,25,24.8z"/>
		<circle class="st4" cx="11.9" cy="12.8" r="1.5"/>
		<circle class="st4" cx="11.9" cy="25.5" r="1.5"/>
		<rect x="21.6" y="17.4" class="st4" width="6.8" height="3.5"/>
		<g>
			<path class="st4" d="M26.2,35.1v8.4c0,1,0.8,1.8,1.8,1.8h13.5c1,0,1.8-0.8,1.8-1.8v-8.4c0-1-0.8-1.8-1.8-1.8H28
				C27,33.3,26.2,34.1,26.2,35.1z"/>
			<path class="st4" d="M32.9,41.2c0,1,0.8,1.8,1.8,1.8s1.8-0.8,1.8-1.8c0-0.7-0.4-1.4-1.1-1.7H36c0.3,0,0.5-0.2,0.5-0.5v-0.9
				c0-0.3-0.2-0.5-0.5-0.5h-2.6c-0.3,0-0.5,0.2-0.5,0.5V39c0,0.3,0.2,0.5,0.5,0.5H34C33.3,39.8,32.9,40.4,32.9,41.2z"/>
			<g>
				<path class="st4" d="M29,28.4v4.9h2.1v-4.9c0-0.5,0.1-0.9,0.3-1.3c0.5-1.3,1.8-2.3,3.4-2.3c1.5,0,2.8,1,3.4,2.3
					c0.2,0.4,0.3,0.9,0.3,1.3v4.9h2.1v-4.9c0-1.4-0.5-2.7-1.3-3.7c-0.2-0.3-0.5-0.5-0.7-0.7c-1-0.8-2.3-1.4-3.7-1.4
					s-2.7,0.5-3.7,1.3c-0.9,0.8-1.6,1.9-1.9,3.1C29,27.5,29,27.9,29,28.4z"/>
			</g>
		</g>
	</g>
</g>
</svg>
