<?xml version="1.0" encoding="UTF-8"?>
<svg xmlns="http://www.w3.org/2000/svg" version="1.1" viewBox="0 0 50 50">
  <defs>
    <style>
      .cls-1, .cls-2, .cls-3, .cls-4, .cls-5 {
        fill: none;
      }

      .cls-1, .cls-3, .cls-4, .cls-5 {
        stroke: #474747;
      }

      .cls-1, .cls-5 {
        stroke-miterlimit: 10;
      }

      .cls-2 {
        stroke: #444;
        stroke-width: 2.5px;
      }

      .cls-2, .cls-3, .cls-4 {
        stroke-linecap: round;
        stroke-linejoin: round;
      }

      .cls-3, .cls-5 {
        stroke-width: .5px;
      }

      .cls-6 {
        fill: #fcc34f;
      }
    </style>
  </defs>
  <!-- Generator: Adobe Illustrator 28.7.1, SVG Export Plug-In . SVG Version: 1.2.0 Build 142)  -->
  <g>
    <g id="Camada_1">
      <g>
        <path class="cls-6" d="M47.8,20c-.2-.8-2.7-7.5-3.2-8.1l-3-3.5h-.2c0,0-7.6-5.7-7.6-5.7l-7.8-.7c-3.2,0-14.5.3-21.4,10.2L.7,22.9h-.2c0,0,4,13.5,4,13.5.1.4,4.5,5.7,4.9,5.9l5.6,3,32.2-11.7c.7-.4,1.7-8.6.8-13.4Z"/>
        <g>
          <path class="cls-2" d="M32.1,47.3c-7,2.3-15,1.2-21.3-3.6C.5,36-1.6,21.3,6.2,10.9"/>
          <path class="cls-2" d="M6,11.1c2-3,4.7-4.7,4.7-4.7l.7-.5C19.5.1,30.7,0,39,6.3c10.4,7.8,12.4,22.5,4.7,32.8"/>
        </g>
        <g>
          <path class="cls-1" d="M33.6,39.5c1.3-2,1.3-4.7,0-6.8-2.1-3.2-6.5-3.6-9.3-1.2-3.7-6.9-13.4-2.4-11.8,4M16.9,42.9c1.7,2.4,3.5,4.8,3.5,4.8.3.4.9.5,1.3.2,0,0,2.5-1.6,5.1-3.2"/>
          <path class="cls-3" d="M11.5,35.7c-2.8-3.7-4.1-8.6-3.2-13.5,1.8-9.2,10.7-15.3,20-13.5,9.2,1.8,15.3,10.7,13.5,20s-3.9,8.8-7.7,11.3"/>
          <path class="cls-4" d="M18.4,20.3s.6,3.4,5,4.6,3.9-.3,3.9-.3"/>
          <g>
            <path class="cls-4" d="M17.7,15.2s.7,1.6,2.7,2,3.1-.9,3.1-.9"/>
            <path class="cls-4" d="M29.9,17.5s.7,1.6,2.7,2,3.1-.9,3.1-.9"/>
          </g>
          <g>
            <path class="cls-3" d="M29.2,48.2l-3.5-4.6c-1.5-1.9-1.1-4.6.8-6.1,1.9-1.5,4.6-1.1,6.1.8l3.8,5"/>
            <path class="cls-3" d="M47.8,29.8c2.4-12.6-5.8-24.7-18.4-27.1C16.9.2,4.8,8.4,2.3,21s.4,13,4,18l7.3-4.4c2.1-1.2,4.7-.6,6,1.5,1.2,2.1.6,4.7-1.5,6l-5.1,3.1"/>
            <path class="cls-5" d="M13,45.2l5.1-3.1c2.1-1.2,2.7-3.9,1.5-6-1.2-2.1-3.9-2.7-6-1.5l-7.3,4.4"/>
          </g>
        </g>
      </g>
    </g>
  </g>
</svg>
