<?xml version="1.0" encoding="utf-8"?>
<!-- Generator: Adobe Illustrator 28.0.0, SVG Export Plug-In . SVG Version: 6.00 Build 0)  -->
<svg version="1.1" id="Layer_1" xmlns="http://www.w3.org/2000/svg" xmlns:xlink="http://www.w3.org/1999/xlink" x="0px" y="0px"
	 viewBox="0 0 50 50" style="enable-background:new 0 0 50 50;" xml:space="preserve">
<style type="text/css">
	.st0{fill:#D1BD00;}
	.st1{fill:#F9F941;}
	.st2{fill:none;stroke:#444444;stroke-width:2.5;stroke-linecap:round;stroke-linejoin:round;stroke-miterlimit:10;}
	.st3{fill:none;stroke:#444444;stroke-width:0.5;stroke-linecap:round;stroke-linejoin:round;stroke-miterlimit:10;}
	.st4{fill:none;stroke:#444444;stroke-linecap:round;stroke-linejoin:round;stroke-miterlimit:10;}
	.st5{fill:none;stroke:#444444;stroke-width:0.5;stroke-miterlimit:10;}
	.st6{fill:none;stroke:#444444;stroke-width:0.5;stroke-linejoin:round;stroke-miterlimit:10;}
	.st7{fill:none;stroke:#444444;stroke-width:0.5;stroke-linecap:round;stroke-miterlimit:10;}
</style>
<polygon class="st0" points="30.3,20.4 38.1,22.9 31.4,27.6 31.5,35.8 24.9,30.9 17.2,33.5 19.8,25.8 14.9,19.2 23.1,19.3 
	27.8,12.6 "/>
<path class="st1" d="M44.8,12.8l-5.6-3.6l-7.7-4.4l-6-2.8c-3.2,0-21.5,8.9-21.5,12.1l-0.5,7.8L4.1,37l11.5,7.6l31-11
	C47.3,33.1,45.8,14.8,44.8,12.8z"/>
<g>
	<g>
		<path class="st2" d="M29.9,46.5l-2.2,1.3c-1.7,1-3.8,1-5.5,0l-15.6-9C5,37.8,3.9,36,3.9,34V16c0-2,1-3.8,2.7-4.7l15.6-9
			c1.7-1,3.8-1,5.5,0l15.6,9c1.7,1,2.7,2.8,2.7,4.7v18c0,2-1,3.8-2.7,4.7l-2.5,1.4"/>
	</g>
</g>
<g>
	<line class="st3" x1="10.5" y1="21.8" x2="27.9" y2="21.8"/>
	<path class="st4" d="M29.9,33l-2-2.2v-10c0-0.4-0.3-0.7-0.7-0.7H11.1c-0.4,0-0.7,0.3-0.7,0.7v10l-2,2.2v0.8c0,0.4,0.3,0.7,0.7,0.7
		h19.9c0.4,0,0.7-0.3,0.7-0.7V33z"/>
	<line class="st4" x1="10.5" y1="30.9" x2="27.9" y2="30.9"/>
	<line class="st3" x1="15.1" y1="24.7" x2="15.1" y2="27.4"/>
	<line class="st3" x1="14" y1="25.4" x2="16.2" y2="26.7"/>
	<line class="st3" x1="14" y1="26.7" x2="16.2" y2="25.4"/>
	<line class="st3" x1="19.2" y1="24.7" x2="19.2" y2="27.4"/>
	<line class="st3" x1="18.1" y1="25.4" x2="20.3" y2="26.7"/>
	<line class="st3" x1="18.1" y1="26.7" x2="20.3" y2="25.4"/>
	<line class="st3" x1="23.3" y1="24.7" x2="23.3" y2="27.4"/>
	<line class="st3" x1="22.2" y1="25.4" x2="24.4" y2="26.7"/>
	<line class="st3" x1="22.2" y1="26.7" x2="24.4" y2="25.4"/>
</g>
<path class="st5" d="M18.6,20.1l-1.5-1.3c-0.1,0-0.1-0.1,0-0.2l0.7-1.6c0-0.1,0.2-0.1,0.3-0.1l3.4,3.2"/>
<path class="st5" d="M23.1,20l-4-4.3c-0.1-0.1-0.1-0.2,0.1-0.3l1.6-0.6c0.1,0,0.1,0,0.2,0l4.5,5.2"/>
<path class="st5" d="M25.8,19.8l-0.4-7.2c0-0.1,0.1-0.2,0.2-0.2l1.6,0c0.1,0,0.2,0.1,0.2,0.2l0.2,7.7"/>
<path class="st5" d="M28.8,22.6l0.4-10c0-0.1,0.1-0.2,0.2-0.2l1.6,0c0.1,0,0.2,0.1,0.2,0.2l-0.5,7.2c0,0.2,0.2,0.3,0.3,0.1l4.6-5.2
	c0.1-0.1,0.1-0.1,0.2,0l1.5,0.7c0.1,0.1,0.1,0.2,0,0.3l-7,7.5c0,0.1-0.1,0.1-0.2,0l-1.2-0.5C28.8,22.7,28.8,22.6,28.8,22.6z"/>
<path class="st5" d="M38.4,17l-7.6,7.1c-0.1,0-0.1,0.1,0,0.2l0.5,1.2c0,0.1,0.1,0.1,0.2,0.1l10.4,0c0.1,0,0.2-0.1,0.2-0.2l-0.6-1.6
	c0-0.1-0.1-0.1-0.2-0.1l-7,0.1c-0.2,0-0.2-0.2-0.1-0.3l5.3-4.6c0.1,0,0.1-0.1,0-0.2L38.7,17C38.6,16.9,38.5,16.9,38.4,17z"/>
<line class="st3" x1="8.5" y1="33" x2="29.9" y2="33"/>
<path class="st6" d="M34.6,27.3c0,0-1.5,1.2-2.8,1.2v3c0,0.6,0.3,1.2,0.7,1.5c0.4,0.3,1.8,1.2,1.8,1.3l0.3,0.2l0.3-0.2
	c0.1,0,1.4-0.9,1.8-1.3c0.4-0.3,0.7-0.9,0.7-1.5v-3C36.1,28.5,34.6,27.3,34.6,27.3z"/>
<polyline class="st7" points="33.4,30.7 34.4,31.6 35.9,30.1 "/>
</svg>
