<?xml version="1.0" encoding="utf-8"?>
<!-- Generator: Adobe Illustrator 27.9.0, SVG Export Plug-In . SVG Version: 6.00 Build 0)  -->
<svg version="1.1" id="Layer_1" xmlns="http://www.w3.org/2000/svg" xmlns:xlink="http://www.w3.org/1999/xlink" x="0px" y="0px"
	 viewBox="0 0 50 50" style="enable-background:new 0 0 50 50;" xml:space="preserve">
<style type="text/css">
	.st0{fill:#E589EF;}
	.st1{fill:none;stroke:#444444;stroke-linecap:round;stroke-linejoin:round;stroke-miterlimit:10;}
	.st2{fill:#444444;}
	.st3{fill:none;stroke:#444444;stroke-width:0.5;stroke-miterlimit:10;}
</style>
<g>
	<path class="st0" d="M44.3,10.6l-2.8,25.5l-24.2,8.8C11.6,47,5.8,40.6,6.1,34.5c0-0.6-0.2,1-0.2,0.7l-2-24.7c0-2.4,1.3-3.9,4.7-4.7
		l13-3.6c0.9-0.3,1.8-0.4,2.6-0.4s1.7,0.2,2.6,0.4l13,3.6C43.2,6.6,44.4,8.1,44.3,10.6z"/>
	<g>
		<circle class="st1" cx="31.6" cy="23" r="4.6"/>
		<circle class="st1" cx="31.6" cy="23" r="6.8"/>
		<g>
			<path class="st1" d="M33.6,29.5v8.9c0,1-0.8,1.8-1.8,1.8h0c-1,0-1.8-0.8-1.8-1.8v-8.7"/>
			<line class="st1" x1="28.2" y1="31.1" x2="35.5" y2="31.1"/>
		</g>
	</g>
	<g>
		<path class="st2" d="M40.1,4.5l-13-3.6c-1.1-0.3-2-0.5-3-0.5c-0.9,0-1.8,0.2-2.9,0.5l-13,3.6c-3.8,0.9-5.6,2.9-5.5,6.1l2,24.7
			C5.1,41.1,7,43,11,44.9l11,4.5c0.8,0.2,1.5,0.4,2.2,0.4c0.8,0,1.5-0.1,2.3-0.4l6.5-2.6c0.7-0.3,1-1,0.7-1.7c-0.3-0.6-1-1-1.7-0.7
			L25.6,47c-0.9,0.3-1.8,0.3-2.7,0l-10.8-4.4c-3.3-1.5-4.7-2.6-5-7.4l-2-24.6c0-1.3,0.2-2.7,3.6-3.5l13.1-3.6c1-0.4,1.6-0.5,2.3-0.5
			c0.7,0,1.4,0.1,2.3,0.4L39.5,7c3.4,0.8,3.6,2.2,3.6,3.5l-3.7,27.8c0,0.7,0.5,1.3,1.2,1.4c0.7,0,1.3-0.5,1.4-1.2l3.7-27.9
			C45.6,7.4,43.8,5.5,40.1,4.5z"/>
		<path class="st3" d="M26,18.8c-0.5-3.2-3.3-5.6-6.6-5.6c-3.7,0-6.7,3-6.7,6.7s3,6.7,6.7,6.7c2.2,0,4.2-1.1,5.4-2.7"/>
		<path class="st3" d="M13.3,16.8c0,0,2.7,0.2,3.2,2.2c0.5,2,2.7,2.5,2.7,2.5s2.7,0.5-0.7,3.2c-1.4,1.1-2.2,0.9-2.2,0.9"/>
		<path class="st3" d="M21.6,25.9c0,0-1.4-5.2,3.3-3.9"/>
		<path class="st3" d="M25.4,20.1c0,0-2.1,1.3-3.3-1.7s-4.2-1.9-4.2-1.9s-2.1,1-1.7-2.2"/>
		<path class="st3" d="M27.8,17.1c-0.1-0.4-0.3-0.8-0.5-1.2l0.6-1l-2.3-2.6l-1,0.5c-0.9-0.7-2-1.2-3.1-1.4l-0.4-1.1h-3.4l-0.3,1.1
			c-1,0.2-2,0.6-2.9,1.2L13.4,12l-2.3,2.5l0.6,0.9c-0.5,0.8-0.9,1.7-1.1,2.7l-1.2,0.5L9.7,22l0.9,0.2c0.2,0.9,0.6,1.8,1.1,2.6
			l-0.6,1.1l2.4,2.4l1-0.6c0.9,0.6,1.8,1,2.9,1.2l0.3,1.1l3.4,0l0.3-1.1c0.7-0.2,1.4-0.4,2.1-0.8l1,0.6l1.9-1.4"/>
	</g>
</g>
</svg>
