<svg xmlns="http://www.w3.org/2000/svg" id="Layer_1" x="0" y="0" version="1.1" viewBox="0 0 48 47" xml:space="preserve"><style>.st2{fill:#494949}</style><path fill="#fcc34f" d="M31 8l-2.1.8-1.6.6-2.1.8-1.9.7-16.5 6-1.6.6-2.1.8v.6c-.1 3 .6 6.1 2.1 8.9-.2.5-.2 1.1-.1 1.6.1.4.2.7.4 1.1-.6.4-1.1 1.1-1.3 1.8l4.4-1.6 1.6-.6 3-1.1 2.3-.8 1.9-.7 1.1-.4 2.3-.8 1.6-.6 9.1-3.3 1.6-.6 2.1-.8c.4-4.4-1-8.9-4-12.3L31 8z"/><path fill="#fdcf72" d="M31 8c-.1-.1-.1-.2-.2-.2-3-3.1-7.1-4.8-11.4-4.8S11 4.6 7.9 7.7c-2.8 2.9-4.4 6.6-4.7 10.4v.6l2-.8 1.6-.6L24 11.1l1.8-.6 2-.8 1.5-.6 2-.8L31 8z"/><path d="M29.4 9.1l-.4-.4c-5.6-5.2-14.3-5.1-19.7.4-2.3 2.3-3.6 5.2-4 8.2 0 .2-.1.4-.1.6-.3 3.3.5 6.7 2.4 9.5l-.2.3c-.2.3-.3.7-.2 1.1.1.4.3.7.6.9l1 .7.4.3-.1.6-1.7.3c-.8.1-1.3.9-1.1 1.7l.3 1.8c.1.8.9 1.3 1.7 1.1l1.7-.3c.1.2.2.4.4.5l-1 1.4c-.4.7-.3 1.5.4 2l1.5 1c.6.4 1.5.2 2-.4l1-1.4c.1 0 .2 0 .3.1.1 0 .2 0 .3.1l.3 1.7c.1.8.9 1.3 1.7 1.1l1.8-.3c.8-.2 1.3-.9 1.1-1.7l-.3-1.7c.2-.1.4-.2.5-.4l1.4 1c.6.4 1.6.3 2-.4l1-1.5c.4-.6.3-1.5-.4-2l-1.4-1 .1-.6 1.7-.3c.4-.1.7-.3.9-.6.1-.1.1-.2.2-.3.6-.3 1.2-.6 1.7-1 .5-.3.9-.7 1.3-1.1.2-.2.4-.4.7-.6l1.5-1.8.9-1.5c.8-1.5 1.4-3.2 1.6-4.9.8-4.2-.6-8.8-3.8-12.2zm-6.9 23c-.6.1-1 .6-1.1 1.2 0 .1-.1.5-.1.5-.2.6.1 1.2.6 1.5l1.4 1-1 1.4-1.4-1c-.5-.3-1.2-.3-1.7 0-.1.1-.3.2-.5.3-.5.3-.8.9-.7 1.5l.3 1.7-1.7.3-.3-1.7c-.1-.6-.6-1.1-1.2-1.2-.1 0-.8-.2-.9-.2-.5 0-.9.2-1.2.6l-1 1.4-1.4-1 1-1.4c.3-.5.3-1.2 0-1.7-.1-.2-.2-.3-.3-.5-.3-.5-.9-.8-1.5-.7l-1.7.3-.3-1.7 1.7-.3c.6-.1 1.1-.6 1.2-1.2 0-.1.1-.4.1-.5.1-.4 0-.9-.2-1.2l-.3-.3-1.4-1 1-1.4 1.4 1c.5.3 1.2.3 1.7 0 .2-.1.3-.2.5-.3.5-.3.8-.9.7-1.5l-.3-1.7 1.7-.3.3 1.7c.1.6.6 1 1.2 1.1.1 0 .5.1.5.1h.3c.4 0 .8-.1 1.1-.4l.2-.2 1-1.4 1.1.8.3.2-1 1.4c-.3.5-.3 1.2 0 1.7.1.1.2.3.3.5.3.5.9.8 1.5.7l1.7-.3.3 1.7-1.9.5zm5.8-3.6c-.8.8-1.8 1.6-2.8 2.1l-.2-.9c-.1-.8-.9-1.3-1.7-1.1l-1.6.3c-.1-.2-.2-.4-.4-.5l1-1.4c.3-.5.3-1.1 0-1.5-.1-.2-.2-.3-.4-.4l-1.5-1c-.6-.4-1.6-.2-2 .4l-1 1.4-.6-.1-.3-1.7c-.1-.8-.9-1.3-1.7-1.1l-1.8.3c-.4.1-.7.3-.9.6-.2.3-.3.7-.2 1.1l.3 1.7c-.2.1-.4.2-.5.3l-1.4-1c-.6-.4-1.5-.3-1.9.3-1.6-2.7-2.2-5.8-1.7-8.8 0-.2.1-.4.1-.6.5-2.4 1.6-4.7 3.5-6.6 4.7-4.8 12-5 17-.9.1.1.3.2.4.4.2.1.3.3.5.5 3.1 3.2 4.3 7.7 3.4 11.8-.7 2.3-1.8 4.5-3.6 6.4z" class="st2"/><path d="M29.6 14.9C26.9 9.2 20 6.7 14.2 9.3c-.4.2-.5.6-.4 1 .2.4.6.5 1 .4 5-2.3 11-.1 13.4 4.9.4.8.7 1.6.8 2.5.1.4.5.7.9.6.4-.1.7-.5.6-.9-.2-1-.5-2-.9-2.9zM41 33l-9.7-7-1.1 1.3 9.7 7c1.2.9 1.4 2.6.4 3.6v.1c-1 1.1-2.8 1.1-3.9 0l-8.3-8.4-1.3 1.1 8.3 8.4c1.8 1.8 4.7 1.8 6.5 0V39c1.8-1.7 1.5-4.5-.6-6zm-25-5.1h-.3c-.8 0-1.6.3-2.3.8-.8.6-1.4 1.5-1.7 2.6-.5 2.7 1.5 5.2 4.2 5.2 2 0 3.8-1.4 4.2-3.4.6-2.7-1.4-5.2-4.1-5.2zm2.7 4.8c-.3 1.3-1.4 2.2-2.7 2.2-1.8 0-3.1-1.6-2.8-3.4.3-1.3 1.4-2.2 2.7-2.2 1.9 0 3.2 1.7 2.8 3.4z" class="st2"/><path d="M19.3 2.9c4.3 0 8.4 1.7 11.4 4.8.2.1.2.2.3.3.1.1.2.3.4.4 3 3.4 4.4 7.9 4 12.3-.1 1.7-.5 3.4-1.2 5l8 5.7c1.5 1 2.4 2.6 2.5 4.4.2 1.7-.4 3.4-1.7 4.7v.1c-1.2 1.2-2.9 2-4.7 2-1.8 0-3.5-.7-4.7-1.9L26.9 34c-.2.3-.5.6-.8.8.2.3.3.7.4 1.1.2.9 0 1.8-.5 2.6L25 40c-.6.9-1.7 1.5-2.9 1.5h-.5c-.1.4-.3.8-.5 1.1-.5.8-1.3 1.3-2.2 1.4l-1.8.4c-.2 0-.4.1-.6.1-1.1 0-2.2-.6-2.8-1.4-.5.3-1.1.5-1.8.5s-1.3-.2-1.9-.6l-1.5-1c-1.1-.8-1.7-2.1-1.5-3.4-1.3-.3-2.3-1.4-2.6-2.7l-.3-1.8c-.1-.6-.1-1.1.1-1.7.2-.7.7-1.3 1.3-1.8-.2-.3-.3-.7-.4-1.1-.1-.5-.1-1.1.1-1.6-1.6-2.8-2.3-5.8-2.1-8.9v-.6c.3-3.8 1.8-7.5 4.6-10.4C11 4.6 15 2.9 19.3 2.9m0-2.5c-5 0-9.7 2-13.2 5.6C3 9.2 1.1 13.4.7 17.9v.7c-.1 3.3.6 6.5 2 9.3-.1.5 0 1.1.1 1.7-.3.5-.6 1.1-.8 1.6-.3.9-.4 1.9-.2 2.9l.3 1.8c.3 1.6 1.2 3 2.6 3.9.3 1.5 1.2 2.9 2.5 3.8l1.5 1c1 .7 2.1 1 3.3 1 .4 0 .8 0 1.2-.1 1 .7 2.2 1.1 3.4 1.1.4 0 .7 0 1.1-.1l1.8-.4c1.5-.3 2.9-1.2 3.8-2.5v-.1c1.5-.3 2.9-1.2 3.8-2.5l1-1.5c.2-.2.3-.5.4-.7l3.3 3.4c1.7 1.7 4 2.7 6.4 2.7 2.4 0 4.8-1 6.5-2.7l.1-.1c1.7-1.8 2.5-4.1 2.3-6.6-.2-2.5-1.5-4.7-3.6-6.2L37 24.6c.4-1.3.6-2.5.7-3.8.4-5.1-1.3-10.3-4.6-14.1-.1-.1-.2-.2-.3-.4 0-.1-.2-.3-.2-.3C29 2.4 24.4.4 19.3.4z" class="st2"/></svg>