<?xml version="1.0" encoding="utf-8"?>
<!-- Generator: Adobe Illustrator 24.0.0, SVG Export Plug-In . SVG Version: 6.00 Build 0)  -->
<svg version="1.1" id="Layer_1" xmlns="http://www.w3.org/2000/svg" xmlns:xlink="http://www.w3.org/1999/xlink" x="0px" y="0px"
	 viewBox="0 0 50 50" style="enable-background:new 0 0 50 50;" xml:space="preserve">
<style type="text/css">
	.st0{fill:#E589EF;}
	.st1{fill:#F799FF;}
	.st2{fill:#444444;}
	.st3{fill:#444444;stroke:#444444;stroke-width:0.3;stroke-miterlimit:10;}
</style>
<g>
	<g>
		<path class="st0" d="M45.2,10.5l-1.3,15.8L7.6,39.5c-0.5-1.1-0.7-2.5-0.9-4.4l-2-24.7C4.7,8,6,6.5,9.4,5.7l13-3.6
			c0.9-0.3,1.8-0.4,2.6-0.4c0.8,0,1.7,0.2,2.6,0.4l13,3.6C44.1,6.5,45.3,8,45.2,10.5z"/>
	</g>
	<g>
		<path class="st1" d="M36.9,4.6L5.3,16.1l-0.4-5.7C4.7,8,6,6.5,9.4,5.7l13-3.6c0.9-0.3,1.8-0.4,2.6-0.4c0.8,0,1.7,0.2,2.6,0.4
			L36.9,4.6z"/>
	</g>
	<g>
		<g>
			<path class="st2" d="M41,4.4L28,0.8c-1.1-0.3-2-0.5-3-0.5c-0.9,0-1.8,0.2-2.9,0.5l-13,3.6c-3.8,0.9-5.6,2.9-5.5,6.1l2,24.7
				c0.4,5.8,2.3,7.7,6.3,9.6l11,4.5c0.8,0.2,1.5,0.4,2.2,0.4c0.8,0,1.5-0.1,2.3-0.4l6.5-2.6c0.7-0.3,1-1,0.7-1.7
				c-0.3-0.6-1-1-1.7-0.7c0,0,0,0,0,0l-6.4,2.6c-0.9,0.3-1.8,0.3-2.7,0l-10.8-4.4C9.7,41,8.3,39.9,8,35.1l-2-24.6
				c0-1.3,0.2-2.7,3.6-3.5l13.1-3.6C23.7,3,24.3,2.9,25,2.9c0.7,0,1.4,0.1,2.3,0.4l13.1,3.6c3.4,0.8,3.6,2.2,3.6,3.5l-1.3,15.8
				c0,0.7,0.5,1.3,1.2,1.4c0.7,0,1.3-0.5,1.4-1.2l1.3-15.9C46.5,7.3,44.7,5.4,41,4.4z"/>
		</g>
	</g>
</g>
<g>
	<g>
		<g>
			<path class="st3" d="M36,18.8c-0.9-0.8-2.1-1.3-3.4-1.3c-2.6,0-4.8,1.9-5.2,4.4c0,0.3-0.1,0.5-0.1,0.8c0,2.9,2.3,5.2,5.2,5.2
				c2.9,0,5.2-2.3,5.2-5.2C37.8,21.2,37.1,19.8,36,18.8z M32.5,27c-2.4,0-4.3-1.9-4.3-4.3c0-0.4,0.1-0.8,0.2-1.2
				c0.5-1.8,2.2-3.1,4.1-3.1c0.9,0,1.7,0.3,2.4,0.7c1.1,0.8,1.9,2.1,1.9,3.5C36.8,25.1,34.9,27,32.5,27z M36,18.8
				c-0.9-0.8-2.1-1.3-3.4-1.3c-2.6,0-4.8,1.9-5.2,4.4c0,0.3-0.1,0.5-0.1,0.8c0,2.9,2.3,5.2,5.2,5.2c2.9,0,5.2-2.3,5.2-5.2
				C37.8,21.2,37.1,19.8,36,18.8z M32.5,27c-2.4,0-4.3-1.9-4.3-4.3c0-0.4,0.1-0.8,0.2-1.2c0.5-1.8,2.2-3.1,4.1-3.1
				c0.9,0,1.7,0.3,2.4,0.7c1.1,0.8,1.9,2.1,1.9,3.5C36.8,25.1,34.9,27,32.5,27z M23.8,14.9l1-0.4c-1.2-1.1-2.9-1.8-4.7-1.8
				c-3.5,0-6.5,2.6-7,6l1-0.4c0.1-0.3,0.2-0.6,0.3-0.9h0.1c0.4,0,0.8,0.1,1.2,0.3l1-0.4c-0.5-0.5-1.1-0.8-1.8-0.9
				c0.6-1,1.5-1.8,2.6-2.3l0.5,1.1c0.2,0.6,0.8,1,1.4,1.1l1.8-0.6c-0.3-0.2-0.6-0.3-1-0.3h-0.5c-0.3,0-0.6-0.2-0.7-0.5L18.5,14
				c0.6-0.2,1.1-0.3,1.8-0.3C21.6,13.7,22.8,14.2,23.8,14.9z M36,18.8c-0.9-0.8-2.1-1.3-3.4-1.3c-2.6,0-4.8,1.9-5.2,4.4
				c0,0.3-0.1,0.5-0.1,0.8c0,2.9,2.3,5.2,5.2,5.2c2.9,0,5.2-2.3,5.2-5.2C37.8,21.2,37.1,19.8,36,18.8z M32.5,27
				c-2.4,0-4.3-1.9-4.3-4.3c0-0.4,0.1-0.8,0.2-1.2c0.5-1.8,2.2-3.1,4.1-3.1c0.9,0,1.7,0.3,2.4,0.7c1.1,0.8,1.9,2.1,1.9,3.5
				C36.8,25.1,34.9,27,32.5,27z M36,18.8c-0.9-0.8-2.1-1.3-3.4-1.3c-2.6,0-4.8,1.9-5.2,4.4c0,0.3-0.1,0.5-0.1,0.8
				c0,2.9,2.3,5.2,5.2,5.2c2.9,0,5.2-2.3,5.2-5.2C37.8,21.2,37.1,19.8,36,18.8z M32.5,27c-2.4,0-4.3-1.9-4.3-4.3
				c0-0.4,0.1-0.8,0.2-1.2c0.5-1.8,2.2-3.1,4.1-3.1c0.9,0,1.7,0.3,2.4,0.7c1.1,0.8,1.9,2.1,1.9,3.5C36.8,25.1,34.9,27,32.5,27z
				 M36,18.8c-0.9-0.8-2.1-1.3-3.4-1.3c-2.6,0-4.8,1.9-5.2,4.4c0,0.3-0.1,0.5-0.1,0.8c0,2.9,2.3,5.2,5.2,5.2c2.9,0,5.2-2.3,5.2-5.2
				C37.8,21.2,37.1,19.8,36,18.8z M32.5,27c-2.4,0-4.3-1.9-4.3-4.3c0-0.4,0.1-0.8,0.2-1.2c0.5-1.8,2.2-3.1,4.1-3.1
				c0.9,0,1.7,0.3,2.4,0.7c1.1,0.8,1.9,2.1,1.9,3.5C36.8,25.1,34.9,27,32.5,27z M13.2,18.8l1-0.4c0.1-0.3,0.2-0.6,0.3-0.9h0.1
				c0.4,0,0.8,0.1,1.2,0.3l1-0.4c-0.5-0.5-1.1-0.8-1.8-0.9c0.6-1,1.5-1.8,2.6-2.3l0.5,1.1c0.2,0.6,0.8,1,1.4,1.1l1.8-0.6
				c-0.3-0.2-0.6-0.3-1-0.3h-0.5c-0.3,0-0.6-0.2-0.7-0.5L18.5,14c0.6-0.2,1.1-0.3,1.8-0.3c1.4,0,2.6,0.4,3.6,1.2l1-0.4
				c-1.2-1.1-2.9-1.8-4.7-1.8C16.7,12.8,13.7,15.4,13.2,18.8z M36,18.8c-0.9-0.8-2.1-1.3-3.4-1.3c-2.6,0-4.8,1.9-5.2,4.4
				c0,0.3-0.1,0.5-0.1,0.8c0,2.9,2.3,5.2,5.2,5.2c2.9,0,5.2-2.3,5.2-5.2C37.8,21.2,37.1,19.8,36,18.8z M32.5,27
				c-2.4,0-4.3-1.9-4.3-4.3c0-0.4,0.1-0.8,0.2-1.2c0.5-1.8,2.2-3.1,4.1-3.1c0.9,0,1.7,0.3,2.4,0.7c1.1,0.8,1.9,2.1,1.9,3.5
				C36.8,25.1,34.9,27,32.5,27z M36,18.8c-0.9-0.8-2.1-1.3-3.4-1.3c-2.6,0-4.8,1.9-5.2,4.4c0,0.3-0.1,0.5-0.1,0.8
				c0,2.9,2.3,5.2,5.2,5.2c2.9,0,5.2-2.3,5.2-5.2C37.8,21.2,37.1,19.8,36,18.8z M32.5,27c-2.4,0-4.3-1.9-4.3-4.3
				c0-0.4,0.1-0.8,0.2-1.2c0.5-1.8,2.2-3.1,4.1-3.1c0.9,0,1.7,0.3,2.4,0.7c1.1,0.8,1.9,2.1,1.9,3.5C36.8,25.1,34.9,27,32.5,27z"/>
		</g>
		<g>
			<path class="st3" d="M39.7,22.7c0-1.8-0.6-3.4-1.7-4.6c-1.3-1.5-3.2-2.5-5.4-2.5c-1.4,0-2.8,0.4-3.9,1.2
				c-0.2-0.5-0.4-1.1-0.7-1.5l0.6-1.1L26,11.6l-1.2,0.6c-0.8-0.5-1.6-0.8-2.5-1L22,9.9h-3.5L18,11.1c-0.9,0.2-1.7,0.6-2.5,1
				l-1.2-0.6l-2.5,2.5l0.6,1.1c-0.5,0.8-0.8,1.6-1,2.5l-1.2,0.4v3.5l1.2,0.4c0.2,0.9,0.6,1.7,1,2.5l-0.6,1.2l2.5,2.5l1.2-0.6
				c0.8,0.5,1.6,0.8,2.5,1l0.4,1.2H22l0.4-1.2c0.9-0.2,1.7-0.6,2.5-1l1.2,0.6l1-1c0.8,1,1.9,1.8,3.2,2.2v1.4h-0.9v0.9h0.9v5.2
				c0,1.3,1.1,2.4,2.4,2.4c1.3,0,2.4-1.1,2.4-2.4v-5.2h1v-0.9h-1v-1.4C37.7,28.4,39.7,25.8,39.7,22.7z M25.8,27l-1-0.5l-0.2,0.1
				c-0.8,0.5-1.7,0.9-2.6,1.1l-0.3,0.1l-0.4,1.1h-2.2l-0.4-1.1l-0.3-0.1c-0.9-0.2-1.8-0.6-2.7-1.1l-0.2-0.1l-1,0.5l-0.3-0.3
				l-1.2-1.2l0.5-1l-0.1-0.2c-0.5-0.8-0.9-1.7-1.1-2.6l-0.1-0.3L11.2,21v-2.2l1.1-0.4l0.1-0.3c0.2-0.9,0.6-1.8,1.1-2.6l0.1-0.2
				l-0.5-1l1.5-1.5l1,0.5l0.2-0.2c0.8-0.5,1.7-0.9,2.7-1.1l0.3,0l0.4-1.1h2.2l0.4,1.1l0.3,0c0.9,0.2,1.8,0.6,2.6,1.1l0.2,0.2l1-0.5
				l1.1,1.1l0.2,0.2l0.2,0.2l-0.5,1l0.1,0.2c0.4,0.6,0.7,1.2,0.9,1.8c-0.3,0.2-0.5,0.5-0.8,0.8c-0.3-1.3-1-2.5-2-3.4
				c-0.1-0.1-0.2-0.2-0.3-0.2l-1,0.4c0.1,0.1,0.2,0.1,0.3,0.2c1.2,1,2,2.5,2.2,4.1c0,0-0.1,0.1-0.1,0.1h-1c-0.3,0-0.6-0.2-0.7-0.4
				l-0.2-0.5c-0.3-0.6-0.9-1-1.5-1h-0.1c-0.4,0-0.7-0.2-0.8-0.6c-0.1-0.3-0.2-0.6-0.5-0.8c-0.1-0.1-0.2-0.2-0.3-0.2l-1.8,0.6
				c0.1,0,0.2,0,0.2,0h0.5c0,0,0,0,0,0c0.3,0,0.6,0.2,0.7,0.6c0.2,0.8,0.9,1.3,1.7,1.3h0.1c0.3,0,0.6,0.2,0.7,0.4l0.3,0.5
				c0.3,0.6,0.9,1,1.5,1h0.6c-0.1,0.3-0.2,0.6-0.3,1h-0.5c-0.8,0-1.6,0.4-2.1,1.1c-0.2,0.4-0.4,0.8-0.4,1.3c0,0,0,0.1,0,0.1v1.8
				C21.8,25.9,21,26,20.2,26c-0.5,0-0.9-0.1-1.4-0.2c0.1-0.4,0.3-0.8,0.7-1c0,0,0,0,0,0c0.2-0.1,0.3-0.2,0.5-0.2c0.1,0,0.1,0,0.2,0
				c0.4,0,0.8-0.2,1-0.4c0.2-0.3,0.4-0.6,0.4-1c0-0.8-0.6-1.4-1.4-1.4c-0.3,0-0.5-0.2-0.5-0.5v-0.8c0-0.9-0.7-1.6-1.6-1.6
				c-0.3,0-0.5-0.2-0.6-0.4c-0.1-0.3-0.3-0.6-0.5-0.8c-0.1-0.1-0.1-0.2-0.2-0.2l-1,0.4c0.1,0.1,0.2,0.1,0.3,0.2
				c0.2,0.2,0.4,0.5,0.6,0.8c0.2,0.6,0.8,1,1.5,1c0.4,0,0.7,0.3,0.7,0.7v0.8c0,0.8,0.6,1.4,1.4,1.4c0.3,0,0.5,0.2,0.5,0.5
				c0,0.3-0.2,0.5-0.5,0.5c-1.1,0-2,0.7-2.3,1.7c0,0.1,0,0.1,0,0.2c-0.1,0-0.2-0.1-0.2-0.1c-2.1-1-3.6-3.1-3.6-5.6
				c0-0.4,0-0.7,0.1-1.1c0-0.1,0-0.2,0.1-0.4l-1,0.4c0,0.1,0,0.2,0,0.3c0,0.2,0,0.5,0,0.7c0,2.5,1.4,4.8,3.4,6
				c1.1,0.7,2.4,1.1,3.7,1.1c2.1,0,4.1-1,5.4-2.5c0.2,0.7,0.4,1.3,0.8,1.9L25.8,27z M25.5,23.1c-0.5,0.8-1.2,1.5-1.9,2v-1.2
				c0-0.2,0-0.3,0.1-0.5c0-0.1,0.1-0.3,0.2-0.4c0.3-0.4,0.8-0.7,1.3-0.7h0.4c0,0.1,0,0.3,0,0.4v0.1C25.4,22.8,25.5,23,25.5,23.1z
				 M34,36.9c0,0.8-0.6,1.4-1.4,1.4c-0.8,0-1.4-0.6-1.4-1.4v-5.2H34V36.9z M34,30.8h-2.8v-1.1c0.5,0.1,0.9,0.2,1.4,0.2
				c0.5,0,1-0.1,1.4-0.2V30.8z M32.5,28.9c-3.4,0-6.2-2.8-6.2-6.2c0-0.1,0-0.3,0-0.4c0.2-3.2,2.9-5.7,6.2-5.7c1.7,0,3.3,0.7,4.4,1.9
				c1.1,1.1,1.7,2.6,1.7,4.3C38.7,26.1,35.9,28.9,32.5,28.9z"/>
		</g>
	</g>
</g>
</svg>
