<?xml version="1.0" encoding="utf-8"?>
<!-- Generator: Adobe Illustrator 21.1.0, SVG Export Plug-In . SVG Version: 6.00 Build 0)  -->
<svg version="1.0" id="Layer_1" xmlns="http://www.w3.org/2000/svg" xmlns:xlink="http://www.w3.org/1999/xlink" x="0px" y="0px"
	 viewBox="0 0 50 50" enable-background="new 0 0 50 50" xml:space="preserve">
<g>
	<g>
		<path fill="#FCC34F" d="M8.315,45.585l7.088-7.088c1.863,1.397,3.919,2.412,6.064,3.053l21.761-7.92
			c4.948-7.525,4.114-17.735-2.503-24.352c-7.573-7.574-19.852-7.574-27.425,0c-6.91,6.909-7.494,17.725-1.795,25.321l-7.089,7.088
			c-1.077,1.077-1.076,2.822,0,3.898C5.493,46.662,7.238,46.662,8.315,45.585z"/>
	</g>
	<g>
		<path fill="#FDCF72" d="M35.876,5.661C28.611,2.02,19.541,3.216,13.48,9.278c-1.786,1.786-3.141,3.836-4.082,6.021L35.876,5.661z"
			/>
	</g>
	<g>
		<path fill="#444444" d="M41.508,8.494c-7.994-7.993-21-7.993-28.993,0c-6.932,6.932-7.917,17.94-2.459,25.985l-6.424,6.425
			c-0.73,0.73-1.132,1.701-1.132,2.733c0,1.032,0.403,2.002,1.132,2.733c0.73,0.73,1.701,1.132,2.733,1.132s2.003-0.402,2.733-1.132
			l6.424-6.424c3.394,2.31,7.347,3.528,11.492,3.534c0,0,0.001,0,0.001,0c0.611,0,1.108-0.495,1.109-1.107
			c0.001-0.612-0.495-1.109-1.107-1.11c-3.987-0.005-7.773-1.268-10.949-3.651l-0.733-0.55c-0.434-0.363-0.858-0.738-1.257-1.138
			c-0.402-0.401-0.779-0.828-1.143-1.264l-0.544-0.725c-5.42-7.224-4.693-17.487,1.692-23.873c3.454-3.454,8.045-5.355,12.929-5.355
			c4.884,0,9.475,1.902,12.929,5.355c6.115,6.115,7.101,15.783,2.344,22.988c-0.337,0.511-0.197,1.199,0.314,1.536
			c0.511,0.337,1.199,0.197,1.536-0.314C49.469,26.191,48.365,15.35,41.508,8.494z M7.531,44.802c-0.623,0.622-1.707,0.622-2.33,0
			c-0.311-0.312-0.483-0.726-0.483-1.166c0-0.44,0.171-0.853,0.483-1.165l3.951-3.951l2.331,2.331L7.531,44.802z M14.355,37.978
			l-2.246,2.246l-2.331-2.331l2.246-2.246c0.356,0.419,0.725,0.829,1.113,1.217C13.526,37.252,13.935,37.621,14.355,37.978z"/>
		<path fill="#444444" d="M37.778,12.224c-5.936-5.936-15.595-5.936-21.532,0c-5.936,5.936-5.936,15.595,0,21.531
			c2.876,2.876,6.699,4.46,10.766,4.46c4.067,0,7.891-1.583,10.766-4.46C43.714,27.819,43.714,18.16,37.778,12.224z M37.151,33.128
			c-2.708,2.708-6.309,4.2-10.139,4.2c-3.83,0-7.431-1.491-10.139-4.2c-5.591-5.591-5.591-14.687,0-20.277
			c2.796-2.795,6.467-4.193,10.139-4.193c3.671,0,7.344,1.398,10.139,4.193C42.741,18.442,42.741,27.538,37.151,33.128z"/>
		<path fill="#444444" d="M28.493,21.595c-1.281-0.611-2.093-1.035-2.436-1.27c-0.343-0.235-0.593-0.479-0.75-0.731
			c-0.157-0.252-0.236-0.547-0.236-0.886c0-0.545,0.194-0.987,0.583-1.326c0.388-0.339,0.946-0.508,1.673-0.508
			c0.611,0,1.233,0.078,1.865,0.235c0.444,0.11,0.97,0.28,1.579,0.508c0.457,0.171,0.972-0.047,1.159-0.497l0.55-1.325
			c0.193-0.464-0.027-1.008-0.496-1.188c-0.632-0.243-1.244-0.441-1.838-0.596c-0.855-0.223-1.754-0.335-2.696-0.335
			c-1.917,0-3.419,0.459-4.505,1.376c-1.087,0.917-1.63,2.177-1.63,3.78c0,0.851,0.165,1.595,0.496,2.231
			c0.331,0.636,0.773,1.194,1.326,1.673c0.554,0.479,1.384,0.979,2.491,1.5c1.182,0.562,1.965,0.971,2.349,1.227
			c0.384,0.256,0.675,0.523,0.874,0.799c0.198,0.277,0.297,0.593,0.297,0.948c0,0.636-0.225,1.115-0.675,1.438
			c-0.45,0.322-1.097,0.483-1.94,0.483c-0.702,0-1.477-0.112-2.324-0.335c-0.542-0.143-1.161-0.351-1.856-0.626
			c-0.597-0.236-1.248,0.194-1.248,0.836v1.614c0,0.36,0.207,0.698,0.539,0.836c1.357,0.565,2.888,0.847,4.592,0.847
			c2.099,0,3.737-0.471,4.914-1.413c1.177-0.942,1.766-2.231,1.766-3.867c0-1.182-0.314-2.179-0.942-2.993
			C31.348,23.217,30.187,22.405,28.493,21.595z"/>
	</g>
</g>
</svg>
