<svg xmlns="http://www.w3.org/2000/svg" id="Layer_1" x="0" y="0" version="1.1" viewBox="0 0 50 50" xml:space="preserve"><style>.st3{fill:#031326;stroke:#031326;stroke-width:.3;stroke-miterlimit:10}</style><path fill="#e589ef" d="M45.2 10.5l-1.3 15.8L7.6 39.5c-.5-1.1-.7-2.5-.9-4.4l-2-24.7C4.7 8 6 6.5 9.4 5.7l13-3.6c.9-.3 1.8-.4 2.6-.4s1.7.2 2.6.4l13 3.6c3.5.8 4.7 2.3 4.6 4.8z"/><path fill="#f799ff" d="M36.9 4.6L5.3 16.1l-.4-5.7C4.7 8 6 6.5 9.4 5.7l13-3.6c.9-.3 1.8-.4 2.6-.4s1.7.2 2.6.4l9.3 2.5z"/><path fill="#031326" d="M41 4.4L28 .8c-1.1-.3-2-.5-3-.5-.9 0-1.8.2-2.9.5l-13 3.6c-3.8.9-5.6 2.9-5.5 6.1l2 24.7c.4 5.8 2.3 7.7 6.3 9.6l11 4.5c.8.2 1.5.4 2.2.4.8 0 1.5-.1 2.3-.4l6.5-2.6c.7-.3 1-1 .7-1.7-.3-.6-1-1-1.7-.7l-6.4 2.6c-.9.3-1.8.3-2.7 0L13 42.5c-3.3-1.5-4.7-2.6-5-7.4L6 10.5c0-1.3.2-2.7 3.6-3.5l13.1-3.6c1-.4 1.6-.5 2.3-.5.7 0 1.4.1 2.3.4l13.1 3.6c3.4.8 3.6 2.2 3.6 3.5l-1.3 15.8c0 .7.5 1.3 1.2 1.4.7 0 1.3-.5 1.4-1.2l1.3-15.9c-.1-3.2-1.9-5.1-5.6-6.1z"/><path d="M36 18.8c-.9-.8-2.1-1.3-3.4-1.3-2.6 0-4.8 1.9-5.2 4.4 0 .3-.1.5-.1.8 0 2.9 2.3 5.2 5.2 5.2 2.9 0 5.2-2.3 5.2-5.2.1-1.5-.6-2.9-1.7-3.9zM32.5 27c-2.4 0-4.3-1.9-4.3-4.3 0-.4.1-.8.2-1.2.5-1.8 2.2-3.1 4.1-3.1.9 0 1.7.3 2.4.7 1.1.8 1.9 2.1 1.9 3.5 0 2.5-1.9 4.4-4.3 4.4zm3.5-8.2c-.9-.8-2.1-1.3-3.4-1.3-2.6 0-4.8 1.9-5.2 4.4 0 .3-.1.5-.1.8 0 2.9 2.3 5.2 5.2 5.2 2.9 0 5.2-2.3 5.2-5.2.1-1.5-.6-2.9-1.7-3.9zM32.5 27c-2.4 0-4.3-1.9-4.3-4.3 0-.4.1-.8.2-1.2.5-1.8 2.2-3.1 4.1-3.1.9 0 1.7.3 2.4.7 1.1.8 1.9 2.1 1.9 3.5 0 2.5-1.9 4.4-4.3 4.4zm-8.7-12.1l1-.4c-1.2-1.1-2.9-1.8-4.7-1.8-3.5 0-6.5 2.6-7 6l1-.4.3-.9h.1c.4 0 .8.1 1.2.3l1-.4c-.5-.5-1.1-.8-1.8-.9.6-1 1.5-1.8 2.6-2.3l.5 1.1c.2.6.8 1 1.4 1.1l1.8-.6c-.3-.2-.6-.3-1-.3h-.5c-.3 0-.6-.2-.7-.5l-.5-.9c.6-.2 1.1-.3 1.8-.3 1.3 0 2.5.5 3.5 1.2zM36 18.8c-.9-.8-2.1-1.3-3.4-1.3-2.6 0-4.8 1.9-5.2 4.4 0 .3-.1.5-.1.8 0 2.9 2.3 5.2 5.2 5.2 2.9 0 5.2-2.3 5.2-5.2.1-1.5-.6-2.9-1.7-3.9zM32.5 27c-2.4 0-4.3-1.9-4.3-4.3 0-.4.1-.8.2-1.2.5-1.8 2.2-3.1 4.1-3.1.9 0 1.7.3 2.4.7 1.1.8 1.9 2.1 1.9 3.5 0 2.5-1.9 4.4-4.3 4.4zm3.5-8.2c-.9-.8-2.1-1.3-3.4-1.3-2.6 0-4.8 1.9-5.2 4.4 0 .3-.1.5-.1.8 0 2.9 2.3 5.2 5.2 5.2 2.9 0 5.2-2.3 5.2-5.2.1-1.5-.6-2.9-1.7-3.9zM32.5 27c-2.4 0-4.3-1.9-4.3-4.3 0-.4.1-.8.2-1.2.5-1.8 2.2-3.1 4.1-3.1.9 0 1.7.3 2.4.7 1.1.8 1.9 2.1 1.9 3.5 0 2.5-1.9 4.4-4.3 4.4zm3.5-8.2c-.9-.8-2.1-1.3-3.4-1.3-2.6 0-4.8 1.9-5.2 4.4 0 .3-.1.5-.1.8 0 2.9 2.3 5.2 5.2 5.2 2.9 0 5.2-2.3 5.2-5.2.1-1.5-.6-2.9-1.7-3.9zM32.5 27c-2.4 0-4.3-1.9-4.3-4.3 0-.4.1-.8.2-1.2.5-1.8 2.2-3.1 4.1-3.1.9 0 1.7.3 2.4.7 1.1.8 1.9 2.1 1.9 3.5 0 2.5-1.9 4.4-4.3 4.4zm-19.3-8.2l1-.4.3-.9h.1c.4 0 .8.1 1.2.3l1-.4c-.5-.5-1.1-.8-1.8-.9.6-1 1.5-1.8 2.6-2.3l.5 1.1c.2.6.8 1 1.4 1.1l1.8-.6c-.3-.2-.6-.3-1-.3h-.5c-.3 0-.6-.2-.7-.5l-.6-1c.6-.2 1.1-.3 1.8-.3 1.4 0 2.6.4 3.6 1.2l1-.4c-1.2-1.1-2.9-1.8-4.7-1.8-3.5.1-6.5 2.7-7 6.1zm22.8 0c-.9-.8-2.1-1.3-3.4-1.3-2.6 0-4.8 1.9-5.2 4.4 0 .3-.1.5-.1.8 0 2.9 2.3 5.2 5.2 5.2 2.9 0 5.2-2.3 5.2-5.2.1-1.5-.6-2.9-1.7-3.9zM32.5 27c-2.4 0-4.3-1.9-4.3-4.3 0-.4.1-.8.2-1.2.5-1.8 2.2-3.1 4.1-3.1.9 0 1.7.3 2.4.7 1.1.8 1.9 2.1 1.9 3.5 0 2.5-1.9 4.4-4.3 4.4zm3.5-8.2c-.9-.8-2.1-1.3-3.4-1.3-2.6 0-4.8 1.9-5.2 4.4 0 .3-.1.5-.1.8 0 2.9 2.3 5.2 5.2 5.2 2.9 0 5.2-2.3 5.2-5.2.1-1.5-.6-2.9-1.7-3.9zM32.5 27c-2.4 0-4.3-1.9-4.3-4.3 0-.4.1-.8.2-1.2.5-1.8 2.2-3.1 4.1-3.1.9 0 1.7.3 2.4.7 1.1.8 1.9 2.1 1.9 3.5 0 2.5-1.9 4.4-4.3 4.4z" class="st3"/><path d="M39.7 22.7c0-1.8-.6-3.4-1.7-4.6-1.3-1.5-3.2-2.5-5.4-2.5-1.4 0-2.8.4-3.9 1.2-.2-.5-.4-1.1-.7-1.5l.6-1.1-2.6-2.6-1.2.6c-.8-.5-1.6-.8-2.5-1L22 9.9h-3.5l-.5 1.2c-.9.2-1.7.6-2.5 1l-1.2-.6-2.5 2.5.6 1.1c-.5.8-.8 1.6-1 2.5l-1.2.4v3.5l1.2.4c.2.9.6 1.7 1 2.5l-.6 1.2 2.5 2.5 1.2-.6c.8.5 1.6.8 2.5 1l.4 1.2H22l.4-1.2c.9-.2 1.7-.6 2.5-1l1.2.6 1-1c.8 1 1.9 1.8 3.2 2.2v1.4h-.9v.9h.9v5.2c0 1.3 1.1 2.4 2.4 2.4 1.3 0 2.4-1.1 2.4-2.4v-5.2h1v-.9h-1v-1.4c2.6-.9 4.6-3.5 4.6-6.6zM25.8 27l-1-.5-.2.1c-.8.5-1.7.9-2.6 1.1l-.3.1-.4 1.1h-2.2l-.4-1.1-.3-.1c-.9-.2-1.8-.6-2.7-1.1l-.2-.1-1 .5-.3-.3-1.2-1.2.5-1-.1-.2c-.5-.8-.9-1.7-1.1-2.6l-.1-.3-1-.4v-2.2l1.1-.4.1-.3c.2-.9.6-1.8 1.1-2.6l.1-.2-.5-1 1.5-1.5 1 .5.2-.2c.8-.5 1.7-.9 2.7-1.1h.3l.4-1.1h2.2l.4 1.1h.3c.9.2 1.8.6 2.6 1.1l.2.2 1-.5 1.1 1.1.2.2.2.2-.5 1 .1.2c.4.6.7 1.2.9 1.8-.3.2-.5.5-.8.8-.3-1.3-1-2.5-2-3.4-.1-.1-.2-.2-.3-.2l-1 .4c.1.1.2.1.3.2 1.2 1 2 2.5 2.2 4.1l-.1.1h-1c-.3 0-.6-.2-.7-.4l-.2-.5c-.3-.6-.9-1-1.5-1h-.1c-.4 0-.7-.2-.8-.6-.1-.3-.2-.6-.5-.8-.1-.1-.2-.2-.3-.2l-1.8.6h.7c.3 0 .6.2.7.6.2.8.9 1.3 1.7 1.3h.1c.3 0 .6.2.7.4l.3.5c.3.6.9 1 1.5 1h.6c-.1.3-.2.6-.3 1h-.5c-.8 0-1.6.4-2.1 1.1-.2.4-.4.8-.4 1.3v1.9c-.5.4-1.3.5-2.1.5-.5 0-.9-.1-1.4-.2.1-.4.3-.8.7-1 .2-.1.3-.2.5-.2h.2c.4 0 .8-.2 1-.4.2-.3.4-.6.4-1 0-.8-.6-1.4-1.4-1.4-.3 0-.5-.2-.5-.5v-.8c0-.9-.7-1.6-1.6-1.6-.3 0-.5-.2-.6-.4-.1-.3-.3-.6-.5-.8-.1-.1-.1-.2-.2-.2l-1 .4c.1.1.2.1.3.2.2.2.4.5.6.8.2.6.8 1 1.5 1 .4 0 .7.3.7.7v.8c0 .8.6 1.4 1.4 1.4.3 0 .5.2.5.5s-.2.5-.5.5c-1.1 0-2 .7-2.3 1.7v.2c-.1 0-.2-.1-.2-.1-2.1-1-3.6-3.1-3.6-5.6 0-.4 0-.7.1-1.1 0-.1 0-.2.1-.4l-1 .4v1c0 2.5 1.4 4.8 3.4 6 1.1.7 2.4 1.1 3.7 1.1 2.1 0 4.1-1 5.4-2.5.2.7.4 1.3.8 1.9l-.9.6zm-.3-3.9c-.5.8-1.2 1.5-1.9 2v-1.2c0-.2 0-.3.1-.5 0-.1.1-.3.2-.4.3-.4.8-.7 1.3-.7h.4v.5c-.2 0-.1.2-.1.3zM34 36.9c0 .8-.6 1.4-1.4 1.4-.8 0-1.4-.6-1.4-1.4v-5.2H34v5.2zm0-6.1h-2.8v-1.1c.5.1.9.2 1.4.2.5 0 1-.1 1.4-.2v1.1zm-1.5-1.9c-3.4 0-6.2-2.8-6.2-6.2v-.4c.2-3.2 2.9-5.7 6.2-5.7 1.7 0 3.3.7 4.4 1.9 1.1 1.1 1.7 2.6 1.7 4.3.1 3.3-2.7 6.1-6.1 6.1z" class="st3"/></svg>
