<?xml version="1.0" encoding="utf-8"?>
<!-- Generator: Adobe Illustrator 26.0.1, SVG Export Plug-In . SVG Version: 6.00 Build 0)  -->
<svg version="1.1" id="Layer_1" xmlns="http://www.w3.org/2000/svg" xmlns:xlink="http://www.w3.org/1999/xlink" x="0px" y="0px"
	 viewBox="0 0 48 47" style="enable-background:new 0 0 48 47;" xml:space="preserve">
<style type="text/css">
	.st0{fill:#FCC34F;}
	.st1{fill:#FDCF72;}
	.st2{fill:#494949;}
</style>
<g>
	<g>
		<path class="st0" d="M31,8l-2.1,0.8l-1.6,0.6l-2.1,0.8l-1.9,0.7l-16.5,6l-1.6,0.6l-2.1,0.8c0,0.2,0,0.4,0,0.6
			c-0.1,3,0.6,6.1,2.1,8.9c-0.2,0.5-0.2,1.1-0.1,1.6c0.1,0.4,0.2,0.7,0.4,1.1c-0.6,0.4-1.1,1.1-1.3,1.8l4.4-1.6l1.6-0.6l3-1.1
			l2.3-0.8l1.9-0.7l1.1-0.4l2.3-0.8l1.6-0.6l9.1-3.3l1.6-0.6l2.1-0.8c0.4-4.4-1-8.9-4-12.3L31,8z"/>
	</g>
	<g>
		<path class="st1" d="M31,8c-0.1-0.1-0.1-0.2-0.2-0.2c-3-3.1-7.1-4.8-11.4-4.8S11,4.6,7.9,7.7c-2.8,2.9-4.4,6.6-4.7,10.4
			c0,0.2,0,0.4,0,0.6l2-0.8l1.6-0.6L24,11.1l1.8-0.6l2-0.8l1.5-0.6l2-0.8L31,8z"/>
	</g>
	<g>
		<g>
			<path class="st2" d="M29.4,9.1L29.4,9.1c-0.1-0.1-0.3-0.3-0.4-0.4C23.4,3.5,14.7,3.6,9.3,9.1c-2.3,2.3-3.6,5.2-4,8.2
				c0,0.2-0.1,0.4-0.1,0.6c-0.3,3.3,0.5,6.7,2.4,9.5l-0.2,0.3c-0.2,0.3-0.3,0.7-0.2,1.1c0.1,0.4,0.3,0.7,0.6,0.9l1,0.7l0.4,0.3
				l-0.1,0.6l-1.7,0.3c-0.8,0.1-1.3,0.9-1.1,1.7l0.3,1.8c0.1,0.8,0.9,1.3,1.7,1.1l1.7-0.3c0.1,0.2,0.2,0.4,0.4,0.5l-1,1.4
				c-0.4,0.7-0.3,1.5,0.4,2l1.5,1c0.6,0.4,1.5,0.2,2-0.4l1-1.4c0.1,0,0.2,0,0.3,0.1c0.1,0,0.2,0,0.3,0.1l0.3,1.7
				c0.1,0.8,0.9,1.3,1.7,1.1l1.8-0.3c0.8-0.2,1.3-0.9,1.1-1.7l-0.3-1.7c0.2-0.1,0.4-0.2,0.5-0.4l1.4,1c0.6,0.4,1.6,0.3,2-0.4l1-1.5
				c0.4-0.6,0.3-1.5-0.4-2l-1.4-1l0.1-0.6l1.7-0.3c0.4-0.1,0.7-0.3,0.9-0.6c0.1-0.1,0.1-0.2,0.2-0.3c0.6-0.3,1.2-0.6,1.7-1
				c0.5-0.3,0.9-0.7,1.3-1.1c0.2-0.2,0.4-0.4,0.7-0.6c0.5-0.6,1-1.2,1.5-1.8c0.3-0.5,0.6-1,0.9-1.5c0.8-1.5,1.4-3.2,1.6-4.9
				C34,17.1,32.6,12.5,29.4,9.1z M22.5,32.1c-0.6,0.1-1,0.6-1.1,1.2c0,0.1-0.1,0.5-0.1,0.5c-0.2,0.6,0.1,1.2,0.6,1.5l1.4,1l-1,1.4
				l-1.4-1c-0.5-0.3-1.2-0.3-1.7,0c-0.1,0.1-0.3,0.2-0.5,0.3c-0.5,0.3-0.8,0.9-0.7,1.5l0.3,1.7l-1.7,0.3l-0.3-1.7
				c-0.1-0.6-0.6-1.1-1.2-1.2c-0.1,0-0.8-0.2-0.9-0.2c-0.5,0-0.9,0.2-1.2,0.6l-1,1.4l-1.4-1l1-1.4c0.3-0.5,0.3-1.2,0-1.7
				c-0.1-0.2-0.2-0.3-0.3-0.5c-0.3-0.5-0.9-0.8-1.5-0.7l-1.7,0.3l-0.3-1.7l1.7-0.3c0.6-0.1,1.1-0.6,1.2-1.2c0-0.1,0.1-0.4,0.1-0.5
				c0.1-0.4,0-0.9-0.2-1.2c-0.1-0.1-0.2-0.2-0.3-0.3l-1.4-1l1-1.4l1.4,1c0.5,0.3,1.2,0.3,1.7,0c0.2-0.1,0.3-0.2,0.5-0.3
				c0.5-0.3,0.8-0.9,0.7-1.5l-0.3-1.7l1.7-0.3l0.3,1.7c0.1,0.6,0.6,1,1.2,1.1c0.1,0,0.5,0.1,0.5,0.1c0.1,0,0.2,0,0.3,0
				c0.4,0,0.8-0.1,1.1-0.4c0.1-0.1,0.1-0.1,0.2-0.2l1-1.4l1.1,0.8l0.3,0.2l-1,1.4c-0.3,0.5-0.3,1.2,0,1.7c0.1,0.1,0.2,0.3,0.3,0.5
				c0.3,0.5,0.9,0.8,1.5,0.7l1.7-0.3l0.3,1.7L22.5,32.1z M28.3,28.5c-0.8,0.8-1.8,1.6-2.8,2.1l-0.2-0.9c-0.1-0.8-0.9-1.3-1.7-1.1
				L22,28.9c-0.1-0.2-0.2-0.4-0.4-0.5l1-1.4c0.3-0.5,0.3-1.1,0-1.5c-0.1-0.2-0.2-0.3-0.4-0.4l-1.5-1c-0.6-0.4-1.6-0.2-2,0.4l-1,1.4
				l-0.6-0.1l-0.3-1.7c-0.1-0.8-0.9-1.3-1.7-1.1l-1.8,0.3c-0.4,0.1-0.7,0.3-0.9,0.6c-0.2,0.3-0.3,0.7-0.2,1.1l0.3,1.7
				c-0.2,0.1-0.4,0.2-0.5,0.3l-1.4-1c-0.6-0.4-1.5-0.3-1.9,0.3c-1.6-2.7-2.2-5.8-1.7-8.8c0-0.2,0.1-0.4,0.1-0.6
				c0.5-2.4,1.6-4.7,3.5-6.6c4.7-4.8,12-5,17-0.9c0.1,0.1,0.3,0.2,0.4,0.4c0.2,0.1,0.3,0.3,0.5,0.5c3.1,3.2,4.3,7.7,3.4,11.8
				C31.2,24.4,30.1,26.6,28.3,28.5z"/>
			<path class="st2" d="M29.6,14.9C26.9,9.2,20,6.7,14.2,9.3c-0.4,0.2-0.5,0.6-0.4,1c0.2,0.4,0.6,0.5,1,0.4c5-2.3,11-0.1,13.4,4.9
				c0.4,0.8,0.7,1.6,0.8,2.5c0.1,0.4,0.5,0.7,0.9,0.6c0.4-0.1,0.7-0.5,0.6-0.9C30.3,16.8,30,15.8,29.6,14.9z"/>
			<path class="st2" d="M41,33l-9.7-7l-1.1,1.3l9.7,7c1.2,0.9,1.4,2.6,0.4,3.6l0,0.1c-1,1.1-2.8,1.1-3.9,0l-8.3-8.4l-1.3,1.1
				l8.3,8.4c1.8,1.8,4.7,1.8,6.5,0l0-0.1C43.4,37.3,43.1,34.5,41,33z"/>
			<path class="st2" d="M16,27.9c-0.1,0-0.2,0-0.3,0c-0.8,0-1.6,0.3-2.3,0.8c-0.8,0.6-1.4,1.5-1.7,2.6c-0.5,2.7,1.5,5.2,4.2,5.2
				c2,0,3.8-1.4,4.2-3.4C20.7,30.4,18.7,27.9,16,27.9z M18.7,32.7c-0.3,1.3-1.4,2.2-2.7,2.2c-1.8,0-3.1-1.6-2.8-3.4
				c0.3-1.3,1.4-2.2,2.7-2.2C17.8,29.3,19.1,31,18.7,32.7z"/>
		</g>
		<g>
			<g>
				<path class="st2" d="M19.3,2.9c4.3,0,8.4,1.7,11.4,4.8C30.9,7.8,30.9,7.9,31,8c0.1,0.1,0.2,0.3,0.4,0.4c3,3.4,4.4,7.9,4,12.3
					c-0.1,1.7-0.5,3.4-1.2,5l8,5.7c1.5,1,2.4,2.6,2.5,4.4c0.2,1.7-0.4,3.4-1.7,4.7l0,0.1c-1.2,1.2-2.9,2-4.7,2
					c-1.8,0-3.5-0.7-4.7-1.9l-6.7-6.7c-0.2,0.3-0.5,0.6-0.8,0.8c0.2,0.3,0.3,0.7,0.4,1.1c0.2,0.9,0,1.8-0.5,2.6l-1,1.5
					c-0.6,0.9-1.7,1.5-2.9,1.5c-0.2,0-0.3,0-0.5,0c-0.1,0.4-0.3,0.8-0.5,1.1c-0.5,0.8-1.3,1.3-2.2,1.4l-1.8,0.4
					c-0.2,0-0.4,0.1-0.6,0.1c-1.1,0-2.2-0.6-2.8-1.4c-0.5,0.3-1.1,0.5-1.8,0.5c-0.7,0-1.3-0.2-1.9-0.6l-1.5-1
					c-1.1-0.8-1.7-2.1-1.5-3.4c-1.3-0.3-2.3-1.4-2.6-2.7l-0.3-1.8c-0.1-0.6-0.1-1.1,0.1-1.7c0.2-0.7,0.7-1.3,1.3-1.8
					c-0.2-0.3-0.3-0.7-0.4-1.1c-0.1-0.5-0.1-1.1,0.1-1.6c-1.6-2.8-2.3-5.8-2.1-8.9c0-0.2,0-0.4,0-0.6c0.3-3.8,1.8-7.5,4.6-10.4
					C11,4.6,15,2.9,19.3,2.9 M19.3,0.4c-5,0-9.7,2-13.2,5.6c-3.1,3.2-5,7.4-5.4,11.9c0,0.2,0,0.5,0,0.7c-0.1,3.3,0.6,6.5,2,9.3
					c-0.1,0.5,0,1.1,0.1,1.7c0,0,0,0,0,0c-0.3,0.5-0.6,1.1-0.8,1.6c-0.3,0.9-0.4,1.9-0.2,2.9l0.3,1.8c0.3,1.6,1.2,3,2.6,3.9
					c0.3,1.5,1.2,2.9,2.5,3.8l1.5,1c1,0.7,2.1,1,3.3,1c0.4,0,0.8,0,1.2-0.1c1,0.7,2.2,1.1,3.4,1.1c0.4,0,0.7,0,1.1-0.1l1.8-0.4
					c1.5-0.3,2.9-1.2,3.8-2.5c0,0,0,0,0-0.1c1.5-0.3,2.9-1.2,3.8-2.5l1-1.5c0.2-0.2,0.3-0.5,0.4-0.7l3.3,3.4c1.7,1.7,4,2.7,6.4,2.7
					c2.4,0,4.8-1,6.5-2.7c0,0,0.1-0.1,0.1-0.1c1.7-1.8,2.5-4.1,2.3-6.6c-0.2-2.5-1.5-4.7-3.6-6.2l-6.5-4.7c0.4-1.3,0.6-2.5,0.7-3.8
					c0.4-5.1-1.3-10.3-4.6-14.1c0,0,0,0,0,0c-0.1-0.1-0.2-0.2-0.3-0.4C32.8,6.2,32.6,6,32.6,6C29,2.4,24.4,0.4,19.3,0.4L19.3,0.4z"
					/>
			</g>
		</g>
	</g>
</g>
</svg>
