<svg xmlns="http://www.w3.org/2000/svg" id="Camada_1" data-name="Camada 1" viewBox="0 0 298.8 281.79"><defs><style>.cls-4{isolation:isolate;opacity:.2}.cls-10,.cls-12,.cls-6,.cls-8{fill-rule:evenodd}.cls-15{fill:#fff}.cls-6{fill:#f96a58}.cls-8{fill:#96ad34}.cls-10{fill:#3f5ca2}.cls-12{fill:#deaaf9}</style></defs><path fill="#008dd3" d="M281.78 140.35c.1 20.52-4.26 40.04-11.99 57.68-21.81 49.26-70.97 83.55-128.35 83.75-15.26.1-29.93-2.38-43.71-6.74-25.87-8.23-48.47-23.79-65.32-44.3C14.87 209.53 3.27 183.16.6 154.12c-.4-4.16-.6-8.42-.6-12.68-.2-47.78 23.49-90.2 59.87-115.77 4.76-3.37 9.71-6.44 14.87-9.12 7.24-3.87 14.87-7.14 22.8-9.71 7.43-2.38 15.26-4.16 23.19-5.35A159.1 159.1 0 01140.25 0c25.97-.1 50.15 6.84 71.16 18.93 3.77 2.18 7.33 4.46 10.9 7.04 16.75 11.89 30.82 27.36 41.03 45.39 1.19 2.08 2.28 4.06 3.27 6.24.89 1.88 1.78 3.57 2.58 5.45 2.68 6.05 4.96 12.09 6.84 18.44 2.08 7.14 3.57 14.37 4.46 21.71.89 5.75 1.29 11.4 1.29 17.15z"/><path fill="#f96a58" d="M44.58 103.15h62.1v62.1h-62.1z" transform="rotate(-35.32 75.634 134.208)"/><rect width="61" height="61" x="209.44" y="135.25" fill="#50afeb" rx="9.05" ry="9.05" transform="rotate(-3.31 239.936 165.753)"/><circle cx="75.71" cy="242.13" r="35.47" fill="#f14e70"/><path d="M101.46 37.09l41.75 72.68 42.06-72.5-83.81-.18z" class="cls-10"/><path d="M132.05 208.14c-4.87 23.51 10.25 46.52 33.77 51.39 23.51 4.87 46.52-10.25 51.39-33.77l-85.15-17.62z" class="cls-12"/><path d="M222.87 20.33l-13.64 38.62 26.63 31.12 40.27-7.5 13.64-38.62-26.63-31.12-40.27 7.5z" class="cls-8"/><path d="M77.29 181.68l-9.04-4.19-1.1-4.31 9.15-4.54 2.54 8.27-1.55 4.77z" class="cls-6"/><path d="M272.17 17.02l-9.03-4.19-40.27 7.5-13.64 38.62 26.63 31.12 9.04 4.19 27.27-77.24z" class="cls-8"/><path d="M92.05 95.1l-9.03-4.19-50.67 35.91 35.9 50.67 35.86-23.82L92.05 95.1z" class="cls-6"/><path fill="#f14e70" fill-rule="evenodd" d="M89.5 209.44l10.43 4.81-29.62 64.47-9.44-4.37 28.63-64.91z"/><path d="M226.23 229.94l-9.03-4.18-85.15-17.62 9.03 4.18 85.15 17.62z" class="cls-12"/><path fill="#50afeb" fill-rule="evenodd" d="M224.27 200.47l-9.97-3.84.61-14.69.62-39.44 9.39-3.88 39.39-3.99 8.89 4.53-6.1 5.42-42.83 55.89z"/><path d="M149.91 104.54l-1.87-1.22 46.27-61.87-9.04-4.18-83.81-.18 41.75 72.68 9.04 4.18-2.34-9.41z" class="cls-10"/><path fill="#f9938c" d="M53.62 107.34h62.1v62.1h-62.1z" transform="rotate(-35.32 84.682 138.386)"/><rect width="61" height="61" x="218.47" y="139.43" fill="#73ccf9" rx="9.05" ry="9.05" transform="rotate(-3.31 248.825 169.82)"/><circle cx="84.74" cy="246.31" r="35.47" fill="#ff6c8f"/><path fill="#3c6ed3" fill-rule="evenodd" d="M110.49 41.28l41.76 72.67 42.06-72.5-83.82-.17z"/><path fill="#ebccff" fill-rule="evenodd" d="M141.08 212.32c-4.87 23.51 10.25 46.52 33.77 51.39 23.51 4.87 46.52-10.25 51.39-33.77l-85.15-17.62z"/><path fill="#b4cc25" fill-rule="evenodd" d="M231.91 24.52l-13.64 38.62 26.63 31.12 40.26-7.5 13.64-38.62-26.63-31.12-40.26 7.5z"/><path fill="none" d="M130 81.9l-.32-.55-61.94 69.54c-21.13 23.73-19.02 60.23 4.7 81.36l13.45 11.98c23.73 21.13 60.23 19.02 81.36-4.7l91.38-102.59c21.13-23.73 19.02-60.23-4.7-81.36L240.48 43.6c-20.56-18.31-50.69-19.16-72.12-3.64h2.63l-41 41.95z"/><path fill="#fbc304" d="M152.7 39.92l15.66.03c15.71-11.38 36.08-13.95 53.94-7.31l3.51-9.8c-24.91-9.2-53.93-3.24-73.11 17.08zm129.95 47.31l-10.23 1.91c2.68 16.2-1.28 32.81-12.65 46.19 4.29.07 7.8 1.01 9.86 2 11.23-15.25 16.01-32.4 13.02-50.1zM219.2 198.52c-4.91-2.89-4.43-6.83-4.42-8.97l-30.37 30.72 11.76 2.46 23.04-24.22zm-59.45 59.25c-1.81-1.05-5.51-2.51-8.82-5.93a59.08 59.08 0 01-32.79 6.39h.01c-.41 3.22-4.99 9.49-5 9.51 15.93 2.21 32.54-1.35 46.6-9.97zM129.68 81.35l-5.5-9.48-27.06 30.38 6.18 8.72 26.38-29.62zM59.32 215.13c-8.4-16.73-8.24-36.85.88-53.54l-6.46-9.47c-14 21.5-14.48 48.94-2.1 70.74 2.27-3.55 5.53-6.21 7.68-7.72z"/><path fill="none" stroke="#fff" stroke-linecap="round" stroke-linejoin="round" stroke-width="5" d="M180.46 26.23s22.72-8.1 38.94-1.01" opacity=".2" style="isolation:isolate"/><g class="cls-4"><path d="M239.25 25.5c7.57-1.44 16.21-2.41 23.88-3.42.95-.13 1.96-.27 2.9-.42 2.94-.51 6.08.65 8.02 2.9l-.2-.21c4.85 4.81 9.55 9.75 13.8 15.13 1.77 2.29-1.14 5.29-3.47 3.6-5.54-4.08-10.67-8.62-15.67-13.32-.26-.33-.64-.53-1.05-.55-.14-.03-1.15.13-1.32.15-8.93 1.1-17.92 1.45-26.89 1.15-2.71-.09-3.24-3.95-.68-4.78l.68-.22z" class="cls-15"/></g><g class="cls-4"><path d="M258.57 142.79c3.45-.07 6.27.16 9.72.73 3.05.72 5.4 3.46 5.65 6.61.3 2.63.79 7.88 1.05 10.57.59 6.27 1.11 12.54 1.48 18.83.13 2.1.26 4.19.35 6.29a2.51 2.51 0 01-2.4 2.6 2.51 2.51 0 01-2.56-2.06c-.71-4.13-1.35-8.27-1.95-12.41-1.04-7.23-1.95-14.53-2.76-21.79l-.17-1.46c-.05-.16-.22-.4-.41-.46.03 0-.73-.17-1.19-.28-2.6-.58-5.15-1.25-7.66-2.23-1.31-.52-1.95-2-1.44-3.31.38-.97 1.3-1.58 2.29-1.61z" class="cls-15"/></g><path style="isolation:isolate" fill="none" stroke="#fff" stroke-linecap="round" stroke-linejoin="round" stroke-width="7" d="M148.82 220.16l69.17 14.13M124.53 47.91h58.2" opacity=".2"/><g class="cls-4"><path d="M50.32 129.22c9.96-8.26 20.36-15.93 30.88-23.42.08-.08 1.77-1.23 1.78-1.26 4.06-3.03 10.28-2.36 13.5 1.58 2.86 3.82 5.24 7.59 7.21 11.95 1.49 3.41-2.71 6.57-5.56 4.25-3.39-2.71-6.8-6.5-9.24-9.54-2.63 1.78-5.57 3.84-8.32 5.64-8.6 5.75-17.28 11.36-26.24 16.54-3.72 2.07-7.24-2.97-4-5.74z" class="cls-15"/></g><g class="cls-4"><path d="M54.36 236.69c3.81-10.07 12.42-18.6 23.11-20.92 13.68-2.91 30.43 3.71 34.97 17.73 1.54 4.35-4.76 6.78-6.53 2.51-5.24-7.44-14.26-10.85-23.19-10.73-9.13.27-17.02 6.89-21.97 14.29-2.21 3.75-7.79 1.22-6.38-2.88z" class="cls-15"/></g></svg>