<svg xmlns="http://www.w3.org/2000/svg" viewBox="0 0 50 50"><defs><style>.cls-2{stroke-width:.5px}.cls-2,.cls-4{fill:none;stroke:#444;stroke-miterlimit:10}</style></defs><g id="Layer_1"><path fill="#d1bd00" d="M30.3 20.5l7.9 2.4-6.7 4.7.1 8.2-6.6-4.9-7.8 2.7 2.7-7.8-5-6.6 8.3.1 4.7-6.7 2.4 7.9z"/><path fill="#f9f941" d="M45.3 16.9l-7.8-2.4-2.6-9.4H15.8s-1.6 2.5-3.2 6.8-6.3 1-7.8 3.9l.7 19.8 8.8 3.1.7 9.5 31-11c.7-.4.2-18.2-.8-20.2z"/><path d="M16.9 10.4v4.5c0 .8-.7 1.5-1.5 1.5h-5c-.8 0-1.5.7-1.5 1.5v14.3c0 .8.7 1.5 1.5 1.5h4.4c.8 0 1.5-.7 1.5-1.5v-5c0-.8.7-1.5 1.5-1.5h13.8c.8 0 1.5-.7 1.5-1.5V10.5c0-.8-.7-1.5-1.5-1.5H18.5c-.8 0-1.5.7-1.5 1.5z" class="cls-4"/><path d="M34.3 42.8v-4.5c0-.8.7-1.5 1.5-1.5h5c.8 0 1.5-.7 1.5-1.5V21c0-.8-.7-1.5-1.5-1.5h-4.4c-.8 0-1.5.7-1.5 1.5v5c0 .8-.7 1.5-1.5 1.5H19.6c-.8 0-1.5.7-1.5 1.5v13.7c0 .8.7 1.5 1.5 1.5h13.1c.8 0 1.5-.7 1.5-1.5z" class="cls-4"/><path d="M31.7 27.6h-3.3v16.7h3.3V27.6zm-10.9 8.5v-6.5c0-.3-.2-.5-.5-.5h-2v7.4h2c.3 0 .5-.2.5-.5zm0 5.5v-2.8c0-.3-.2-.5-.5-.5h-2V42h2c.3 0 .5-.2.5-.5z" class="cls-2"/><rect width="3.5" height="7.5" x="22.8" y="35.1" class="cls-2" rx=".5" ry=".5"/><path d="M36.3 22.1h-1.2v4.1c0 .8-.7 1.5-1.5 1.5h-.1v16.6c.6-.2 1-.8 1-1.4v-4.5c0-.8.7-1.5 1.5-1.5h.9V22.6c0-.3-.2-.5-.5-.5zm3.4 9.1c-.3 0-.5.2-.5.5v5.2H41c.8 0 1.5-.7 1.5-1.5v-4.1h-2.8zM41 19.6h-1.8v3.6c0 .3.2.5.5.5h2.8v-2.5c0-.8-.7-1.5-1.5-1.5zm-1.3 5.8c-.3 0-.5.2-.5.5v2.8c0 .3.2.5.5.5h2.8v-3.6h-2.8zm-28.1 6.5H14c.3 0 .5-.2.5-.5v-15h-3.3v15c0 .3.2.5.5.5zm17-7.5H31c.3 0 .5-.2.5-.5v-15h-3.3v15c0 .3.2.5.5.5z" class="cls-2"/><path fill="#444" d="M31.3 23.8V8.9"/><rect width="3.5" height="7.5" x="16.8" y="16.5" class="cls-2" rx=".5" ry=".5"/><path d="M19.5 14.5c.3 0 .5-.2.5-.5v-2.8c0-.3-.2-.5-.5-.5h-2.6v3.7h2.6zm5.8 8h-2.5c-.3 0-.5.2-.5.5v2.6h3.5V23c0-.3-.2-.5-.5-.5zM22.8 15h2.5c.3 0 .5-.2.5-.5V8.8h-3.5v5.7c0 .3.2.5.5.5z" class="cls-2"/><rect width="3.5" height="3.7" x="22.3" y="16.7" class="cls-2" rx=".5" ry=".5"/><rect width="3.5" height="3.7" x="22.8" y="29.3" class="cls-2" rx=".5" ry=".5"/><path fill="none" stroke="#444" stroke-linecap="round" stroke-linejoin="round" stroke-width="2.5" d="M31.6 48.3H17.2c-1.3 0-2.3-1.1-2.3-2.4v-5c0-2.1-1.7-3.8-3.9-3.8H8.9c-2.1 0-3.9-1.7-3.9-3.9V16.9C5 14.8 6.7 13 8.9 13h.9c2.1 0 3.9-1.7 3.9-3.9v-.4c0-2.1 1.7-3.9 3.9-3.9h15c2.1 0 3.9 1.7 3.9 3.9v3.2c0 2.1 1.7 3.9 3.9 3.9h2.2c2.1 0 3.9 1.7 3.9 3.9v16.5c0 2.1-1.7 3.9-3.9 3.9h-2.9"/></g></svg>