<?xml version="1.0" encoding="utf-8"?>
<!-- Generator: Adobe Illustrator 27.3.1, SVG Export Plug-In . SVG Version: 6.00 Build 0)  -->
<svg version="1.1" id="Camada_3" xmlns="http://www.w3.org/2000/svg" xmlns:xlink="http://www.w3.org/1999/xlink" x="0px" y="0px"
	 viewBox="0 0 50 50" style="enable-background:new 0 0 50 50;" xml:space="preserve">
<style type="text/css">
	.st0{fill:#F56991;}
	.st1{fill:#DC5E82;}
	.st2{fill-rule:evenodd;clip-rule:evenodd;fill:#444444;}
	.st3{fill:none;stroke:#444444;stroke-width:2.5;stroke-linecap:round;stroke-linejoin:round;stroke-miterlimit:10;}
</style>
<g>
	<polygon class="st0" points="34.24,4.48 43.05,10.04 46.43,17.08 4.12,33.49 3.18,17.93 10.65,9.55 23.84,1.35 	"/>
	<polygon class="st1" points="46.55,21.77 46.52,22.24 46.5,23.79 7.58,37.78 5.11,36.38 4.05,35.14 3.55,32.07 3.8,28.2 
		46.12,11.94 45.6,12.14 46.82,15.79 	"/>
	<path class="st2" d="M5.31,32.54h10.68l-1.73,5.24H5.31L5.31,32.54L5.31,32.54z M5.31,22.57h13.98l-1.73,5.24H5.31V22.57z
		 M5.31,12.61h17.28l-1.73,5.24H5.31V12.61z M28.11,12.61H45.8v5.24H26.37L28.11,12.61z M23.07,27.82l1.73-5.24h20.99v5.24H23.07z
		 M21.51,32.54H45.8v5.24H19.78L21.51,32.54z"/>
	<path class="st3" d="M20.39,46.65l2.2,1.27c1.69,0.98,3.78,0.98,5.47,0l15.57-8.99c1.69-0.98,2.74-2.78,2.74-4.74V16.21
		c0-1.96-1.04-3.76-2.74-4.74L28.06,2.48c-1.69-0.98-3.78-0.98-5.47,0L7.02,11.47c-1.69,0.98-2.74,2.78-2.74,4.74v17.98
		c0,1.96,1.04,3.76,2.74,4.74l2.46,1.42"/>
</g>
</svg>
