<svg version="1" xmlns="http://www.w3.org/2000/svg" viewBox="0 0 50 50"><path fill="#B9D7D9" d="M37.657 22.402l.165-.602V3.64a2.382 2.382 0 0 0-2.382-2.383H14.56a2.382 2.382 0 0 0-2.382 2.382v28.036l25.48-9.274z"/><path fill="#A6C1C2" d="M37.735 3.033a2.376 2.376 0 0 0-2.295-1.776H14.56a2.382 2.382 0 0 0-2.382 2.382v8.695l25.557-9.302z"/><g fill="#444"><path d="M35.44.1H14.56a3.542 3.542 0 0 0-3.54 3.538V46.36c0 1.95 1.588 3.54 3.54 3.54h15.872a1.157 1.157 0 0 0 0-2.315H14.56c-.676 0-1.225-.55-1.225-1.225V3.64c0-.677.55-1.226 1.225-1.226h20.88c.677 0 1.226.55 1.226 1.225V21.8a1.157 1.157 0 0 0 2.314 0V3.64A3.544 3.544 0 0 0 35.44.1z"/><path d="M30.868 6.096H19.133c-1.167 0-2.116.95-2.116 2.116V33.77c0 1.167.95 2.116 2.116 2.116H25a.925.925 0 0 0 0-1.85h-5.867a.267.267 0 0 1-.266-.266v-4.335h13.19a.925.925 0 0 0 .926-.925c0-.065-.024-.122-.037-.183.013-.06.037-.118.037-.183V8.212a2.117 2.117 0 0 0-2.115-2.116zm-12 9.047h12.265v5.295H18.867v-5.295zm.265-7.196h11.735c.146 0 .266.12.266.265v5.08H18.867v-5.08c0-.146.12-.265.266-.265zm-.266 14.342h12.266v5.294H18.867V22.29zM25 40.927h-7.058a.925.925 0 0 0 0 1.85H25a.925.925 0 1 0 0-1.85z"/><circle cx="30.431" cy="41.852" r="1.627"/></g></svg>