<?xml version="1.0" encoding="utf-8"?>
<!-- Generator: Adobe Illustrator 27.7.0, SVG Export Plug-In . SVG Version: 6.00 Build 0)  -->
<svg version="1.1" id="Camada_3" xmlns="http://www.w3.org/2000/svg" xmlns:xlink="http://www.w3.org/1999/xlink" x="0px" y="0px"
	 viewBox="0 0 50 50" style="enable-background:new 0 0 50 50;" xml:space="preserve">
<style type="text/css">
	.st0{fill:#C3FF68;}
	.st1{fill:#AFE55D;}
	.st2{fill:none;stroke:#444444;stroke-linecap:round;stroke-linejoin:round;stroke-miterlimit:10;}
	.st3{fill:none;stroke:#444444;stroke-width:0.5;stroke-linecap:round;stroke-linejoin:round;stroke-miterlimit:10;}
	.st4{fill:none;stroke:#454444;stroke-width:0.5;stroke-linecap:round;stroke-linejoin:round;stroke-miterlimit:10;}
	.st5{fill:#454444;}
	.st6{fill:none;stroke:#454444;stroke-linecap:round;stroke-linejoin:round;stroke-miterlimit:10;}
	.st7{fill:none;stroke:#454444;stroke-linecap:round;stroke-miterlimit:10;}
	.st8{fill:none;stroke:#454444;stroke-width:2;stroke-linecap:round;stroke-linejoin:round;stroke-miterlimit:10;}
	.st9{fill:none;stroke:#444444;stroke-width:2.5;stroke-linecap:round;stroke-linejoin:round;stroke-miterlimit:10;}
</style>
<g>
	<g>
		<path class="st0" d="M43.5,5.9L9.8,4.6C8.9,4.6,6.4,6.3,4,7.4c-1.2,0.5-3,3.5-3,4.8v11.6L47.1,7.4l0,0C47.1,6.2,44.6,5.9,43.5,5.9
			z"/>
		<path class="st1" d="M1,25.7l0.4,9.6c0,1,3.6,3,8.5,3.7c1.7,0.2,0.6-4.8,4.2-5.2c1.5-0.2,0.7,10.5,1.1,10.3l33.5-11.7
			c1.1-0.4-0.4-0.7-0.4-1.9l0.4-18.9c-0.1-1.8-0.9-4.4-2.6-3.8L2.8,23.1C1.7,23.5,1,24.5,1,25.7z"/>
	</g>
	<g>
		<g>
			<g>
				<path class="st2" d="M2.4,9.7c0,0,0-4.6,21.9-4.6c23.1,0,23.4,4.1,23.4,4.1v25.5c0,0.6-0.3,1.2-0.9,1.5
					c-1.1,0.6-3.2,1.6-6.5,1.5L40.1,12c0,0,6.6-0.6,7.6-2.9"/>
				<path class="st2" d="M2.4,9.7v25.7c0,0.5,0.3,1,0.7,1.3c1,0.6,3.2,1.7,6.6,1.6L10,12.6C10,12.6,3.4,12,2.4,9.7"/>
				<path class="st2" d="M15.7,32.7c-1.9,0-3.9,0.8-5.9,1.8"/>
				<path class="st2" d="M40.4,34.5c0,0-2.7-1.8-5.6-1.8"/>
				<path class="st3" d="M12.1,16.9c0,0,3.7-6,5.2-2c0,0,4.5-17.2,9.1,0.3c0,0,2.9-5.5,4.6,0.2c0,0,3.5-5,6.1,1.1"/>
			</g>
			<g>
				<line class="st4" x1="22.1" y1="29.1" x2="18.9" y2="29.1"/>
				<g>
					<g>
						<path class="st5" d="M22.2,19.9c0,0.3,0.2,0.6,0.6,0.6h4.7h0.1c0.2-0.1,0.4-0.3,0.4-0.6c0-0.3-0.2-0.6-0.6-0.6h-4.7
							C22.4,19.3,22.1,19.5,22.2,19.9z"/>
						<line class="st6" x1="16.1" y1="21.5" x2="34.1" y2="21.5"/>
					</g>
				</g>
				<path class="st7" d="M19.4,46.7c-2,0-3.6-1.7-3.6-3.7V21c0-2,1.6-3.5,3.5-3.5h11.5c2,0,3.5,1.6,3.5,3.5v19.3"/>
				<line class="st4" x1="27.3" y1="36.6" x2="30.4" y2="36.6"/>
				<line class="st4" x1="18.9" y1="36.6" x2="25.3" y2="36.6"/>
				<line class="st4" x1="27.3" y1="34.7" x2="27.3" y2="38.3"/>
				<line class="st4" x1="30.4" y1="29.1" x2="24.3" y2="29.1"/>
				<line class="st4" x1="22.1" y1="30.9" x2="22.1" y2="27.4"/>
				<line class="st8" x1="24.2" y1="42.8" x2="26" y2="42.8"/>
			</g>
		</g>
		<path class="st9" d="M35.1,40.9c0-3.3,0.1-7.3,0.1-7.3s3.2,0.4,4.2,1.6v3.1c0,0,5.9,1.5,9.2-2.5V8.4c0,0-1.3-4.2-24-4.2
			S1.4,9.9,1.4,9.9v25.3c0,0-0.2,3.5,7.7,3.9c1,0,1.8-0.7,1.8-1.6v-2.4c0,0,2.7-1.4,4.2-1.4l0.1,10.5c0,0.7,0.2,1.4,0.6,1.9
			c0.5,0.7,1.5,1.4,3.2,1.4c2.5,0,10,0,7.1,0"/>
	</g>
</g>
</svg>
