<svg xmlns="http://www.w3.org/2000/svg" version="1.0" viewBox="0 0 50 50"><path fill="#AFE55D" d="M47.782 26.078v1.459l-7.911 2.876c-.008 0-.008-.008-.008-.008l-.058.033-20.388 7.425v-2.085l-8.867-5.134a.405.405 0 01-.148.165l-3.799 2.167a.403.403 0 01-.387 0l-3.799-2.167a.395.395 0 01-.197-.339v-4.392a.39.39 0 01.19-.338l3.807-2.2a.38.38 0 01.396 0l3.791 2.2a.397.397 0 01.132.132l2.414-1.393a1.165 1.165 0 01-.19-.618V11.039c0-.404.214-.783.569-.989l11.108-6.436a1.14 1.14 0 011.146 0l11.084 6.436c.198.115.346.28.437.47l.008.008c.082.157.132.33.132.511v12.822c0 .223-.074.437-.19.618l2.407 1.393a.502.502 0 01.132-.132l3.807-2.2a.38.38 0 01.396 0l3.791 2.2a.385.385 0 01.195.338z"/><path fill="#C3FF68" d="M37.242 11.039v1.986l-24.483 8.908V11.039c0-.404.214-.783.569-.989l11.108-6.436a1.14 1.14 0 011.146 0l11.084 6.436c.198.115.346.28.437.47l.008.008a1.1 1.1 0 01.131.511z"/><g fill="#031326"><path d="M23.52 26.134v-8.061l-8.624-4.896v8.061l8.438 4.79.186.106zm-8.374-12.526l8.124 4.612v1.661l-4.062-2.306-4.062-2.306v-1.661zm0 1.949l4.062 2.306 4.062 2.306v1.666l-4.062-2.306-4.062-2.306v-1.666zm0 1.954l4.062 2.306 4.062 2.306v1.643l-4.062-2.306-4.062-2.307v-1.642zm0 3.581v-1.651l4.062 2.306 4.062 2.307v1.65l-8.124-4.612zm7.501 5.602c-.274-.156-.541-.183-.735-.068-.168.098-.26.285-.26.526 0 .494.383 1.1.873 1.377.16.092.319.138.461.138a.54.54 0 00.273-.069c.168-.099.261-.285.261-.526 0-.495-.383-1.1-.873-1.378zm-2.363-1.029l-5.388-3.06v1.281l5.388 3.058z"/><path d="M48.363 24.399l-3.798-2.205a1.952 1.952 0 00-1.945.001L39.681 23.9l-.893-.504V11.039c0-.414-.1-.823-.303-1.229a2.683 2.683 0 00-1.038-1.101L26.365 2.276a2.704 2.704 0 00-2.704-.003l-11.11 6.436a2.704 2.704 0 00-1.343 2.331v12.452l-.797.46-3.03-1.759a1.939 1.939 0 00-1.943.002L1.632 24.4c-.595.347-.964.99-.964 1.678v4.389c0 .693.374 1.338.98 1.687l3.792 2.162c.597.349 1.338.35 1.937.006l2.962-1.694 7.394 4.205v3.836c0 .69.56 1.25 1.25 1.25.615 0 1.102-.452 1.207-1.037l.048-7.154 9.284 5.321v6.309a.125.125 0 00.25 0v-8.442l-9.405-5.404.281-.164c.042-.022.075-.023.114-.002l9.234 5.307a.241.241 0 01.119.206v8.104a.125.125 0 00.25 0v-8.104a.493.493 0 00-.244-.423l-.225-.13 9.966-5.754c.031.032.055.071.096.094l3.404 1.943a.475.475 0 00.472-.001l3.069-1.755c.159.508.616.884 1.176.884.69 0 1.25-.56 1.25-1.25v-4.389a1.95 1.95 0 00-.966-1.679zm-4.77 3.71l-3.501-2.007 3.116-1.805 3.496 2.03-3.111 1.782zm-18.591-10.74l-11.217-6.477c.007-.006.011-.015.019-.02l11.107-6.434a.196.196 0 01.197 0l11.085 6.436c.006.004.01.012.016.017l-11.207 6.478zm-11.061 6.994c-.031-.019-.057-.043-.086-.065-.15-.146-.145-.294-.146-.441v.001-12.722l11.168 6.45v12.936a.94.94 0 01-.34-.108l-10.324-5.891-.272-.16zm11.186-6.778l11.161-6.451-.002 12.749c-.008.203.01.28-.093.382a.918.918 0 01-.121.092l-.329.194-10.25 5.862a.973.973 0 01-.366.112v-12.94zM3.168 26.538l3.119 1.787v3.595l-3.119-1.778v-3.604zm3.244 1.571l-3.114-1.784 3.59-2.079L10 26.053l-3.588 2.056zm.125 3.812v-3.596l3.587-2.056v3.601l-3.587 2.051zm22.984 6.839l-9.276-5.315c-.003-.002-.006 0-.008-.001v-1.718l9.284 5.335v1.699zm-8.635-7.633a.355.355 0 00-.364.004l-.535.311v3.796l-9.614-5.465v-2.964l3.593-2.138 10.447 5.961a1.224 1.224 0 001.204-.001l10.381-5.936 3.718 2.076v3.464c0 .035.019.064.026.097l-10.098 5.83-8.758-5.035zm19.194-.699a.221.221 0 01-.113-.194v-3.915l3.501 2.006v4.037l-3.388-1.934zm3.638 1.938v-4.041l3.111-1.783v3.924c0 .038.018.07.022.108l-3.133 1.792z"/></g></svg>