<?xml version="1.0" encoding="utf-8"?>
<!-- Generator: Adobe Illustrator 27.5.0, SVG Export Plug-In . SVG Version: 6.00 Build 0)  -->
<svg version="1.1" id="Camada_3" xmlns="http://www.w3.org/2000/svg" xmlns:xlink="http://www.w3.org/1999/xlink" x="0px" y="0px"
	 viewBox="0 0 50 50" style="enable-background:new 0 0 50 50;" xml:space="preserve">
<style type="text/css">
	.st0{fill:#FDCF72;}
	.st1{fill:#FCC34F;}
	.st2{fill-rule:evenodd;clip-rule:evenodd;fill:#444444;}
	.st3{fill:none;stroke:#444444;stroke-width:2.5;stroke-linecap:round;stroke-linejoin:round;stroke-miterlimit:10;}
</style>
<g>
	<polygon class="st0" points="34.2,4.5 43,10 46.4,17.1 4.1,33.5 3.2,17.9 10.6,9.6 23.8,1.4 	"/>
	<polygon class="st1" points="46.5,21.8 46.5,22.2 46.5,23.8 7.6,37.8 5.1,36.4 4.1,35.1 3.5,32.1 3.8,28.2 46.1,11.9 45.6,12.1 
		46.8,15.8 	"/>
	<path class="st2" d="M5.3,32.5H16l-1.7,5.2h-9V32.5L5.3,32.5z M5.3,22.6h14l-1.7,5.2H5.3V22.6z M5.3,12.6h17.3l-1.7,5.2H5.3V12.6z
		 M28.1,12.6h17.7v5.2H26.4L28.1,12.6z M23.1,27.8l1.7-5.2h21v5.2H23.1z M21.5,32.5h24.3v5.2h-26L21.5,32.5z"/>
	<path class="st3" d="M20.4,46.7l2.2,1.3c1.7,1,3.8,1,5.5,0l15.6-9c1.7-1,2.7-2.8,2.7-4.7v-18c0-2-1-3.8-2.7-4.7l-15.6-9
		c-1.7-1-3.8-1-5.5,0L7,11.5c-1.7,1-2.7,2.8-2.7,4.7v18c0,2,1,3.8,2.7,4.7l2.5,1.4"/>
</g>
</svg>
