<?xml version="1.0" encoding="utf-8"?>
<!-- Generator: Adobe Illustrator 27.6.1, SVG Export Plug-In . SVG Version: 6.00 Build 0)  -->
<svg version="1.1" xmlns="http://www.w3.org/2000/svg" xmlns:xlink="http://www.w3.org/1999/xlink" x="0px" y="0px"
	 viewBox="0 0 50 50" style="enable-background:new 0 0 50 50;" xml:space="preserve">
<style type="text/css">
	.st0{fill:#F56991;}
	.st1{fill:#DC5E82;}
	.st2{fill:none;stroke:#444444;stroke-linecap:round;stroke-linejoin:round;stroke-miterlimit:10;}
	.st3{fill:#444444;}
	.st4{fill:none;stroke:#444444;stroke-width:2.5;stroke-linecap:round;stroke-linejoin:round;stroke-miterlimit:10;}
	.st5{fill:none;stroke:#444444;stroke-width:0.5;stroke-linecap:round;stroke-linejoin:round;stroke-miterlimit:10;}
</style>
<g id="Layer_1">
	<g>
		<g>
			<g>
				<g>
					<path class="st0" d="M44.9,5.7L7.1,6.2c-2.9,0-5.3,2.4-5.3,5.3v13.7l47-16.7L44.9,5.7z"/>
					<path class="st1" d="M1.9,25.2l0.5,8.4c0.4,6.3,9.7,6.2,16,6.2l-0.4,5l15.4-5.5l15.6-5.5V8.5L1.9,25.2z"/>
				</g>
				<g>
					<g>
						<g>
							<path class="st2" d="M33,38.8L7.3,38.7c-2.6,0-5.5-2-5.5-4.6"/>
							<path class="st2" d="M32,44.8H18.2c-0.5,0-0.9-0.6-0.6-1l2.4-4.8h10.3l2.5,4.8C32.9,44.3,32.5,44.8,32,44.8z"/>
							<line class="st2" x1="3" y1="33" x2="47.2" y2="33"/>
						</g>
						<circle class="st3" cx="25.1" cy="35.9" r="1.6"/>
					</g>
					<path class="st4" d="M48.7,34.3V11.9c0-3.4-2.8-6.2-6.2-6.2H7.9c-3.4,0-6.2,2.8-6.2,6.2v21.4c0,3.4,2.8,6.2,6.2,6.2h10.6
						L16.7,44c-0.4,0.9,0.3,1.8,1.2,1.9L32.3,46c1,0,1.6-1,1.2-1.9l-1.9-4.6h5.8"/>
				</g>
			</g>
			<polygon class="st5" points="38.6,27.3 37.2,29.6 35,21.8 42.8,24.1 40.4,25.4 43.3,28.3 41.5,30.1 			"/>
			<circle class="st5" cx="11.2" cy="14.7" r="4.2"/>
			<polygon class="st5" points="29.2,11.5 22.9,9.1 17.7,13.4 18.7,20.1 25.1,22.5 30.3,18.2 			"/>
			<polygon class="st5" points="15.6,24.4 6.4,19.8 7,30 			"/>
			<path class="st5" d="M33.4,20.6c0,0-3.6-1.5-4,4.8s-9.5,6-8-1.6"/>
			<path class="st5" d="M39,18.6l-3.7-2.2c-1.5-0.9-2.1-2.9-1.2-4.4l0,0c0.9-1.5,2.9-2.1,4.4-1.2l3.7,2.2c1.5,0.9,2.1,2.9,1.2,4.4
				l0,0C42.6,19,40.6,19.5,39,18.6z"/>
		</g>
		<line class="st2" x1="15.5" y1="27.2" x2="12.5" y2="29.9"/>
		<line class="st2" x1="17" y1="27.3" x2="16.5" y2="31.1"/>
		<line class="st2" x1="18.2" y1="27.7" x2="19.3" y2="30.7"/>
		<line class="st2" x1="17.4" y1="11.2" x2="19.9" y2="14.3"/>
		<line class="st2" x1="19.4" y1="9.7" x2="21.5" y2="13.4"/>
		<polygon class="st2" points="37.7,14.7 31.4,16.4 35.7,19.4 		"/>
		<path class="st2" d="M6.2,10c0,0-2.5,4,0.6,3.7c3.1-0.2,2.5,2.5,2.5,2.5"/>
	</g>
</g>
<g id="Camada_2">
</g>
</svg>
