<?xml version="1.0" encoding="utf-8"?>
<!-- Generator: Adobe Illustrator 24.0.1, SVG Export Plug-In . SVG Version: 6.00 Build 0)  -->
<svg version="1.1" id="Layer_1" xmlns="http://www.w3.org/2000/svg" xmlns:xlink="http://www.w3.org/1999/xlink" x="0px" y="0px"
	 viewBox="0 0 50 50" style="enable-background:new 0 0 50 50;" xml:space="preserve">
<style type="text/css">
	.st0{fill:#46B8B0;}
	.st1{fill:#4ECDC4;}
	.st2{fill:#444444;}
</style>
<g>
	<g>
		<path class="st0" d="M37.7,20.3c0-0.1,0-0.3,0-0.4c0-2.9-0.9-5.5-2.4-7.7L2.1,24.3v14.8C2.1,40.1,2.9,41,4,41h4.6l38.8-14.1
			C45.6,23.2,41.9,20.6,37.7,20.3z"/>
	</g>
	<g>
		<path class="st1" d="M24.1,5.8c-7.1,0-13,5.2-14.1,12.1H3.5c-1.1,0-2,0.9-2,2v4.8l34.5-12.5C33.3,8.3,29,5.8,24.1,5.8z"/>
	</g>
	<g>
		<path class="st2" d="M36.9,45.1c-5.8,0-11-3.9-12.6-9.5c-0.2-0.7,0.2-1.4,0.9-1.5c0.7-0.2,1.4,0.2,1.5,0.9
			c1.3,4.5,5.5,7.6,10.2,7.6c2.6,0,5-0.9,6.9-2.6c0.5-0.5,1.3-0.4,1.8,0.1c0.5,0.5,0.4,1.3-0.1,1.8C43.1,44,40,45.1,36.9,45.1z"/>
	</g>
	<path class="st2" d="M49.1,28c-1.6-4.5-5.5-7.7-10.1-8.5c-0.2-8.1-6.9-14.7-15-14.7c-7.1,0-13.1,4.8-14.7,11.6H4.1H4
		c-1.8,0-3.2,1.4-3.2,3.2v19.4c0,1.8,1.4,3.2,3.2,3.2h0.1h19.3h0.1c1.5,0,2.7-1,3.1-2.4c2.3,3.2,6.1,5.3,10.4,5.3
		c3.6,0,7.1-1.6,9.6-4.3c0.5-0.5,0.4-1.3-0.1-1.8c-0.5-0.5-1.3-0.4-1.8,0.1c-2,2.2-4.8,3.4-7.7,3.4c-5.7,0-10.4-4.7-10.4-10.4
		S31.2,21.9,37,21.9c4.4,0,8.3,2.8,9.8,7c0.2,0.7,0.9,1,1.6,0.8C49,29.4,49.3,28.7,49.1,28z M4.1,39.7c-0.4,0-0.7-0.3-0.7-0.7V19.7
		c0-0.4,0.3-0.7,0.7-0.7h7.3h12c0.4,0,0.7,0.3,0.7,0.7v19.4c0,0.4-0.3,0.7-0.7,0.7H4.1z M26.6,24.7v-5c0-1.8-1.4-3.2-3.2-3.2H11.9
		c1.5-5.4,6.4-9.1,12.1-9.1c6.8,0,12.3,5.4,12.5,12.1C32.4,19.6,28.8,21.6,26.6,24.7z"/>
	<g>
		<path class="st2" d="M10.3,29.1c-0.5-0.3-0.9-0.8-1.2-1.3c-0.3-0.5-0.4-1.1-0.4-1.7c0-0.8,0.3-1.6,0.8-2.2
			c0.6-0.6,1.3-1.1,2.1-1.3c0.9-0.3,1.9-0.4,2.8-0.4c1.3,0,2.5,0.1,3.7,0.5v2.6c-0.5-0.3-1.1-0.5-1.7-0.7c-0.6-0.2-1.3-0.2-2-0.2
			c-0.7,0-1.4,0.1-2,0.4c-0.5,0.2-0.8,0.7-0.8,1.2c0,0.3,0.1,0.6,0.3,0.9c0.3,0.3,0.6,0.5,0.9,0.7c0.4,0.2,1,0.4,1.7,0.8
			c0.1,0,0.2,0.1,0.2,0.1c0.7,0.3,1.5,0.6,2.2,1.1c0.5,0.3,1,0.8,1.3,1.3c0.3,0.6,0.5,1.3,0.5,1.9c0,0.8-0.2,1.7-0.7,2.3
			c-0.5,0.6-1.2,1.1-1.9,1.3c-0.9,0.3-1.8,0.4-2.8,0.4c-0.8,0-1.7-0.1-2.5-0.2c-0.7-0.1-1.4-0.3-2-0.6v-2.8c0.6,0.4,1.3,0.8,2.1,1
			c0.7,0.2,1.5,0.4,2.3,0.4c0.7,0,1.4-0.1,2.1-0.4c0.4-0.3,0.7-0.7,0.7-1.2c0-0.4-0.1-0.7-0.4-0.9c-0.3-0.3-0.7-0.6-1.1-0.7
			c-0.5-0.2-1.1-0.5-2-0.9C11.6,29.9,10.9,29.5,10.3,29.1L10.3,29.1z"/>
	</g>
</g>
</svg>
