<?xml version="1.0" encoding="UTF-8"?>
<svg id="Camada_3" xmlns="http://www.w3.org/2000/svg" version="1.1" viewBox="0 0 50 50">
  <!-- Generator: Adobe Illustrator 29.0.1, SVG Export Plug-In . SVG Version: 2.1.0 Build 192)  -->
  <defs>
    <style>
      .st0 {
        stroke-width: 2.5px;
      }

      .st0, .st1, .st2 {
        fill: none;
      }

      .st0, .st2 {
        stroke: #444;
        stroke-linecap: round;
        stroke-linejoin: round;
      }

      .st3 {
        fill: #444;
      }

      .st4 {
        fill: #fcc34f;
      }

      .st2 {
        stroke-width: .5px;
      }
    </style>
  </defs>
  <path class="st4" d="M47.9,20.7c-.2-.8-2.7-7.5-3.2-8.1l-3-3.5h-.2c0,0-7.6-5.7-7.6-5.7l-7.8-.7c-3.2,0-14.5.3-21.4,10.2L.8,23.5h-.2c0,0,4,13.5,4,13.5.1.4,4.5,5.7,4.9,5.9l5.6,3,32.2-11.7c.7-.4,1.7-8.6.8-13.4Z"/>
  <g>
    <path class="st0" d="M32.2,48c-7,2.3-15,1.2-21.3-3.6C.6,36.6-1.5,21.9,6.3,11.6"/>
    <path class="st0" d="M6.1,11.7c2-3,4.7-4.7,4.7-4.7l.7-.5c8.1-5.7,19.2-5.8,27.6.4,10.4,7.8,12.4,22.5,4.7,32.8"/>
  </g>
  <g>
    <g>
      <path class="st1" d="M23.7,23.4s0,0,0,0c0-.1,0,0,0,0Z"/>
      <path class="st1" d="M23.8,25.2c0-.6,0-1.1-.2-1.6,0,0,0,0,0-.1,0,0,0,0,0,0,0,0,0,0,0,0,0,0,0,0,0-.1-.9-3-3.6-5.3-6.9-5.3s-7.2,3.2-7.2,7.2,3.2,7.2,7.2,7.2"/>
      <path class="st3" d="M23.8,23.2s0,0,0,0c0-.1.1-.2.2-.3.2-.2.3-.4.5-.7,0,0,.1-.2.2-.3-1.3-3.1-4.3-5.2-7.8-5.2v1.3c3.3,0,6.1,2.2,6.9,5.3Z"/>
      <path class="st3" d="M25.5,27s0,0,0,.1c-.2.2-.3.4-.5.7-.1.2-.2.4-.3.5,1.3,3.1,4.3,5.2,7.8,5.2v-1.3c-3.3,0-6.1-2.3-7-5.3Z"/>
      <path class="st3" d="M25.5,27.1s0,0,0-.1c-.2-.6-.3-1.2-.3-1.9,0,1.1-.2,2.2-.6,3.2,0,0,0,0,0,0,0-.2.2-.4.3-.5.2-.2.3-.4.5-.7Z"/>
      <path class="st3" d="M24,22.9c0,.1-.1.2-.2.3,0,0,0,0,0,0,.2.6.3,1.3.3,2,0-1.1.2-2.2.6-3.2,0,0,0,0,0,0,0,0-.1.2-.2.3-.2.2-.3.4-.5.7Z"/>
      <path class="st3" d="M24.6,22c-.4,1-.6,2.1-.6,3.2h0c0,1.1.2,2.1.6,3.1.4-1,.6-2.1.6-3.2h0c0-1.1-.2-2.1-.6-3.1Z"/>
    </g>
    <g>
      <path class="st1" d="M28.1,19.4c.2-.2.4-.3.6-.4-.2.1-.4.3-.6.4Z"/>
      <path class="st1" d="M30.2,18.3c.3,0,.5-.2.8-.2-.3,0-.5.1-.8.2Z"/>
      <path class="st1" d="M29.1,18.8c.2-.1.4-.2.7-.3-.2,0-.4.2-.7.3Z"/>
      <path class="st1" d="M27.2,20.3c.2-.2.4-.4.6-.6-.2.2-.4.4-.6.6Z"/>
      <path class="st1" d="M26.3,21.4c.2-.3.4-.6.7-.9-.2.3-.5.6-.7.9Z"/>
      <path class="st1" d="M31.3,18c.4,0,.8-.1,1.2-.1-.4,0-.8,0-1.2.1Z"/>
      <path class="st1" d="M25.4,23.8c0,.4.1.9.1,1.3,0,.5,0,1.1.2,1.6,0,0,0,0,0,0,0,0,0,0,0,0,0,0,0,0,0,.1,0,0,0,.1-.1.2.8,3.1,3.6,5.3,7,5.3s7.2-3.2,7.2-7.2-3.2-7.2-7.2-7.2-.8,0-1.2.1c-.1,0-.2,0-.4,0-.3,0-.5.1-.8.2-.1,0-.3.1-.4.2-.2,0-.4.2-.7.3-.1,0-.3.1-.4.2-.2.1-.4.3-.6.4-.1,0-.2.2-.3.3-.2.2-.4.4-.6.6,0,0-.1.1-.2.2-.2.3-.5.6-.7.9"/>
      <path class="st3" d="M26.5,21.2c0,0,.6-.8.7-.9.2-.2.4-.4.6-.6.1,0,.2-.2.3-.3.2-.2.4-.3.6-.4.1,0,.3-.1.4-.2.2-.1.4-.2.7-.3.1,0,.3-.1.4-.2.3,0,.5-.2.8-.2.1,0,.2,0,.4,0,.4,0,.8-.1,1.2-.1,4,0,7.2,3.2,7.2,7.2s-3.2,7.2-7.2,7.2v1.3c4.7,0,8.5-3.8,8.5-8.5s-3.8-8.5-8.5-8.5-5.5,1.5-7,3.8h0c.1-.1.3-.2.5-.2.3,0,.6.3.6.6s-.3.6-.6.6"/>
      <path class="st3" d="M29.7,18.4c.1,0,.3-.1.4-.2-.1,0-.3.1-.4.2Z"/>
      <path class="st3" d="M27,20.5c0,0,.1-.1.2-.2,0,0-.1.1-.2.2Z"/>
      <path class="st3" d="M30.9,18.1c.1,0,.2,0,.4,0-.1,0-.2,0-.4,0Z"/>
      <path class="st3" d="M28.7,19c.1,0,.3-.1.4-.2-.1,0-.3.1-.4.2Z"/>
      <path class="st3" d="M27.8,19.7c.1,0,.2-.2.3-.3-.1,0-.2.2-.3.3Z"/>
      <path class="st3" d="M25.3,20.8c0,.2.1.4.3.5l-.2-.9c0,.1-.1.2-.1.4Z"/>
      <path class="st3" d="M26.6,20.8c0-.3-.3-.6-.6-.6s-.4.1-.5.2l.2.9c0,0,.2,0,.3,0,.2,0,.4-.1.5-.3s0-.2,0-.3Z"/>
    </g>
    <g>
      <path class="st3" d="M22.9,29.1c-1.3,1.9-3.6,3.4-6.1,3.4-4,0-7.2-3.2-7.2-7.2s3.2-7.2,7.2-7.2v-1.3c-4.7,0-8.5,3.8-8.5,8.5s3.8,8.5,8.5,8.5,5.7-1.4,7.2-4M23.4,30c-.3,0-.6-.3-.6-.6s.3-.6.6-.6.6.3.6.6-.3.6-.6.6Z"/>
      <circle class="st3" cx="23.4" cy="29.4" r=".6"/>
    </g>
    <g>
      <line class="st2" x1="31.3" y1="25.2" x2="19" y2="25.2"/>
      <line class="st2" x1="21.3" y1="27.5" x2="18.9" y2="25.2"/>
      <line class="st2" x1="18.9" y1="25.2" x2="21.3" y2="22.8"/>
    </g>
  </g>
</svg>
