<?xml version="1.0" encoding="utf-8"?>
<!-- Generator: Adobe Illustrator 22.0.1, SVG Export Plug-In . SVG Version: 6.00 Build 0)  -->
<svg version="1.1" id="Camada_1" xmlns="http://www.w3.org/2000/svg" xmlns:xlink="http://www.w3.org/1999/xlink" x="0px" y="0px"
	 viewBox="0 0 50 50" style="enable-background:new 0 0 50 50;" xml:space="preserve">
<style type="text/css">
	.st0{fill:#CE87EA;}
	.st1{fill:#E097FB;}
	.st2{fill:#444444;}
</style>
<path class="st0" d="M46.7,23.4v-8.1c0-1.3-1.1-2.4-2.4-2.4H5.6c-1.3,0-2.4,1.1-2.4,2.4v23.9C3.2,39.2,46.7,23.4,46.7,23.4z"/>
<path class="st1" d="M38.6,12.9h-33c-1.3,0-2.4,1.1-2.4,2.4v10.5L38.6,12.9z"/>
<path class="st2" d="M44.4,11.7h-4.7v-0.5c0-5.9-4.8-10.6-10.6-10.6c-1.4,0-2.7,0.3-4,0.8c-1.2-0.5-2.6-0.8-4-0.8
	c-5.9,0-10.6,4.8-10.6,10.6v0.5H5.6c-2,0-3.6,1.6-3.6,3.6V46c0,2,1.6,3.6,3.6,3.6h30.7c2,0,3.6-1.6,3.6-3.6v-3
	c0-0.7-0.5-1.2-1.2-1.2s-1.2,0.5-1.2,1.2v3c0,0.6-0.5,1.1-1.1,1.1H5.6c-0.6,0-1.1-0.5-1.1-1.1V15.2c0-0.6,0.5-1.1,1.1-1.1h4.7v6.6
	c0,0.5,0.4,1,1,1c0.5,0,1-0.4,1-1v-6.6h17.3v6.6c0,0.5,0.4,1,1,1c0.5,0,1-0.4,1-1v-6.6h4.7c0.6,0,1.1,0.5,1.1,1.1v10
	c0,0.7,0.5,1.2,1.2,1.2s1.2-0.5,1.2-1.2v-10c0-0.4-0.1-0.8-0.2-1.1h4.7c0.6,0,1.1,0.5,1.1,1.1v30.7c0,0.6-0.5,1.1-1.1,1.1
	c-0.7,0-1.2,0.5-1.2,1.2s0.5,1.2,1.2,1.2c2,0,3.6-1.6,3.6-3.6V15.2C47.9,13.3,46.3,11.7,44.4,11.7z M29,2.5c4.8,0,8.7,3.9,8.7,8.7
	v0.5h-6.1v-0.5c0-3.5-1.7-6.5-4.3-8.5C27.9,2.5,28.5,2.5,29,2.5z M25,3.5c2.7,1.5,4.6,4.3,4.6,7.7v0.5h-9.3v-0.5
	C20.4,7.9,22.2,5,25,3.5z M12.3,11.1c0-4.8,3.9-8.7,8.7-8.7c0.6,0,1.1,0.1,1.7,0.2c-2.6,2-4.2,5.1-4.2,8.5v0.5h-6.1L12.3,11.1
	C12.4,11.1,12.3,11.1,12.3,11.1z"/>
<path class="st2" d="M26.8,33.6c0,2.8-2.2,4.5-5.6,4.5c-2,0-3.2-0.2-4.9-0.8c-0.7-0.3-1-1.1-0.7-1.7c0.3-0.6,1-0.9,1.6-0.6
	c1.4,0.5,2.5,0.6,4,0.6c1.6,0,2.5-0.6,2.5-1.7c0-1-1-1.4-3.1-1.9c-3-0.7-5.4-1.5-5.4-4.4c0-2.6,2-4.4,5.4-4.4c1.5,0,3,0.3,4.2,0.7
	c0.8,0.2,1.1,1.1,0.8,1.8v0.1c-0.3,0.6-0.9,0.8-1.5,0.6c-1.1-0.4-2.4-0.6-3.4-0.6c-1.5,0-2.3,0.7-2.3,1.6c0,1,1,1.5,3.2,2
	C24.7,29.9,26.8,30.9,26.8,33.6z"/>
</svg>
