<svg version="1" xmlns="http://www.w3.org/2000/svg" viewBox="0 0 50 50"><path fill="#c3ff68" d="M46.7 23.4v-8.1c0-1.3-1.1-2.4-2.4-2.4H5.6c-1.3 0-2.4 1.1-2.4 2.4v23.9l43.5-15.8z"/><path fill="#AFE55D" d="M38.6 12.9h-33c-1.3 0-2.4 1.1-2.4 2.4v10.5l35.4-12.9z"/><path fill="#444" d="M44.4 11.7h-4.7v-.5C39.7 5.3 34.9.6 29.1.6c-1.4 0-2.7.3-4 .8-1.2-.5-2.6-.8-4-.8-5.9 0-10.6 4.8-10.6 10.6v.5H5.6c-2 0-3.6 1.6-3.6 3.6V46c0 2 1.6 3.6 3.6 3.6h30.7c2 0 3.6-1.6 3.6-3.6v-3c0-.7-.5-1.2-1.2-1.2s-1.2.5-1.2 1.2v3c0 .6-.5 1.1-1.1 1.1H5.6c-.6 0-1.1-.5-1.1-1.1V15.2c0-.6.5-1.1 1.1-1.1h4.7v6.6c0 .5.4 1 1 1 .5 0 1-.4 1-1v-6.6h17.3v6.6c0 .5.4 1 1 1 .5 0 1-.4 1-1v-6.6h4.7c.6 0 1.1.5 1.1 1.1v10c0 .7.5 1.2 1.2 1.2s1.2-.5 1.2-1.2v-10c0-.4-.1-.8-.2-1.1h4.7c.6 0 1.1.5 1.1 1.1v30.7c0 .6-.5 1.1-1.1 1.1-.7 0-1.2.5-1.2 1.2s.5 1.2 1.2 1.2c2 0 3.6-1.6 3.6-3.6V15.2c0-1.9-1.6-3.5-3.5-3.5zM29 2.5c4.8 0 8.7 3.9 8.7 8.7v.5h-6.1v-.5c0-3.5-1.7-6.5-4.3-8.5.6-.2 1.2-.2 1.7-.2zm-4 1c2.7 1.5 4.6 4.3 4.6 7.7v.5h-9.3v-.5c.1-3.3 1.9-6.2 4.7-7.7zm-12.7 7.6c0-4.8 3.9-8.7 8.7-8.7.6 0 1.1.1 1.7.2-2.6 2-4.2 5.1-4.2 8.5v.5h-6.1v-.5z"/><path fill="#444" d="M26.8 33.6c0 2.8-2.2 4.5-5.6 4.5-2 0-3.2-.2-4.9-.8-.7-.3-1-1.1-.7-1.7.3-.6 1-.9 1.6-.6 1.4.5 2.5.6 4 .6 1.6 0 2.5-.6 2.5-1.7 0-1-1-1.4-3.1-1.9-3-.7-5.4-1.5-5.4-4.4 0-2.6 2-4.4 5.4-4.4 1.5 0 3 .3 4.2.7.8.2 1.1 1.1.8 1.8v.1c-.3.6-.9.8-1.5.6-1.1-.4-2.4-.6-3.4-.6-1.5 0-2.3.7-2.3 1.6 0 1 1 1.5 3.2 2 3.1.5 5.2 1.5 5.2 4.2z"/></svg>