<svg xmlns="http://www.w3.org/2000/svg" id="Camada_1" x="0" y="0" version="1.1" viewBox="0 0 300 300" xml:space="preserve"><style>.st43{fill:#c4cbcc}.st51{fill:#708080}.st53{fill:#9ea8a9}.st54{fill:#828d8e}.st58{fill:#ef3030}.st59{opacity:.1}.st60{fill:#f96464}</style><path id="Camada_10_00000160186772973313426580000014787402064124562835_" fill="#008dd3" d="M272.9 153.5c.1 19.8-4.1 38.5-11.6 55.6-21.1 47.5-68.5 80.7-123.8 80.9-14.7.1-28.8-2.3-42.1-6.5-25-8-46.7-23-63-42.7-17-20.4-28-45.9-30.7-73.9-.4-4-.6-8.2-.6-12.3-.2-46.1 22.7-87 57.8-111.7 4.6-3.3 9.4-6.2 14.4-8.8 7-3.8 14.4-6.8 22-9.4 7.2-2.3 14.7-4 22.4-5.2 6.2-.8 12.5-1.3 18.9-1.4 25-.1 48.4 6.6 68.7 18.3 3.7 2.1 7.1 4.3 10.5 6.8C232 54.7 245.5 69.7 255.4 87c1.1 2 2.2 3.9 3.2 6 .8 1.8 1.7 3.5 2.5 5.3 2.6 5.8 4.8 11.7 6.6 17.8 2 6.8 3.5 13.9 4.3 21 .5 5.3.9 10.8.9 16.4z"/><path d="M297.1 111.8c.1-.4.1-.9.1-1.3V99.8c0-2.9-1.5-5.7-4-7.2L183.8 23.2c-2.8-1.8-6.4-1.8-9.2 0L64.9 92.6c-2.5 1.6-4 4.3-4 7.2v10.6c0 .5 0 .9.1 1.3-.1.4-.1.9-.1 1.3v11.1c0 2.9 1.5 5.6 3.9 7.2l109.4 70.5c2.8 1.8 6.4 1.8 9.3 0l109.8-70.5c2.5-1.6 3.9-4.3 3.9-7.2V113c0-.3-.1-.8-.1-1.2z" class="st58"/><path fill="#fff" d="M275.3 55.1v199c0 3.7-3 6.8-6.8 6.8h-179c-3.7 0-6.8-3-6.8-6.8v-199c0-3.7 3-6.8 6.8-6.8h179.1c3.7 0 6.7 3 6.7 6.8z"/><path d="M166.3 185.6c-5.9 6.9-11.7 9.9-16 11.4-20.4 7-47.9-6.7-67.6-34.7V133c27.9 17.5 55.8 35.1 83.6 52.6zm24.6 1.1c6.2 6.2 12.3 8.9 16.7 10.3 21.4 6.4 48.4-7.5 67.6-34.7v-29.9c-28 18.1-56.2 36.2-84.3 54.3z" class="st59"/><path d="M297.2 124.2v130.7c0 2.4-1 4.5-2.5 6.1-.1.1-.3.3-.5.4-.2.2-.4.3-.6.5-.2.1-.3.2-.5.3-1.3.8-2.8 1.2-4.4 1.2H69.4c-1.6 0-3.1-.5-4.4-1.2-.2-.1-.3-.2-.5-.3-.2-.2-.4-.3-.6-.5-.2-.1-.3-.3-.5-.4-1.5-1.6-2.5-3.7-2.5-6.1V124.2c0 2.9 1.5 5.6 3.9 7.2l82.8 53.3 27.1-17.1c.6-.4 1.3-.7 1.9-.9.1 0 .2-.1.3-.1 1.3-.4 2.8-.4 4.1-.1.2 0 .4.1.6.1.2.1.4.1.6.2.2.1.3.1.5.2l1.2.6 24.8 15.7 1.9 1.2 9.8-6.3 73-46.9c2.3-1.5 3.8-4.2 3.8-7.1z" class="st60"/><path d="M297.2 229.4v27.2l-47-22.8-43-36.8 1.4-6.4c-.7-1.1-1.5-2.1-2.2-3.2l8.4-5.7c11.9 6.9 23.8 13.8 35.8 20.7 15.4 9.1 31 18.1 46.6 27zm-236.6 0v27.2l47-22.8 43-36.8-1.4-6.4c.7-1.1 1.5-2.1 2.2-3.2l-8.4-5.7c-11.9 6.9-23.8 13.8-35.8 20.7-15.5 9.1-31 18.1-46.6 27z" class="st59"/><path d="M297.2 244.2v10.6c0 2.4-1 4.5-2.5 6.1-.1.1-.3.3-.5.4-.2.2-.4.3-.6.5-.2.1-.3.2-.5.3-1.3.8-2.8 1.2-4.4 1.2H69.4c-1.6 0-3.1-.5-4.4-1.2-.2-.1-.3-.2-.5-.3-.2-.2-.4-.3-.6-.5-.2-.1-.3-.3-.5-.4-1.5-1.6-2.5-3.7-2.5-6.1v-10.6c0-2.9 1.5-5.7 4-7.2l82.7-52.3 27.1-17.1c.6-.4 1.3-.7 1.9-.9.1 0 .2-.1.3-.1.2-.1.4-.1.6-.1 1.2-.2 2.4-.2 3.6 0 .2 0 .4.1.6.1.2.1.4.1.6.2.2.1.3.1.5.2l1.2.6 24.8 15.7 1.9 1.2 82.7 52.4c2.3 1.7 3.8 4.4 3.8 7.3z" class="st60"/><path d="M133.1 92.1c1.7-.7 3.2-1 4.4-1 10.7 0 19.8 9.3 19.8 21.3 0 13.6-11.6 25.3-24.8 25.2-4.3 0-9.9-1-15.5-3.6V77.6c0-6.2-.3-6.8-6.7-7.3v-2.6c4.7-.6 10.9-2.1 14.7-3.4v31.4l8.1-3.6zm-8.1 32.7c0 1.6.1 2.5.5 3.5 1.2 2.5 5.1 5.4 9.9 5.4 8.6 0 13-7.4 13-18.8s-6.9-18.2-15.3-18.2c-2.9 0-6.2.9-8.1 1.9v26.2zm77.4 2.6c-4.4 5.8-11.1 10.2-17.2 10.2-12.8 0-20.3-10.3-20.3-21.1 0-7.9 3.4-14.6 10.1-19.7 5.3-4.1 11.3-5.7 15.3-5.7 4.5 0 7.8 1.4 9.3 2.7 1.4 1.1 1.6 1.8 1.6 2.9 0 2.4-2.5 4.5-3.6 4.5-.5 0-.9-.2-1.9-1-3.1-2.8-6.5-4.2-10.1-4.2-6.6 0-12.5 5.6-12.5 16.1-.1 14 9.4 18.6 15.3 18.6 4.2 0 7.6-1.1 12.3-5.5l1.7 2.2zm37.3 10.2c-1.5 0-3.7-.8-4.7-1.9-1.3-1.3-1.9-2.7-2.4-4.5-4 2.7-8.9 6.4-12 6.4-7.1 0-12.3-5.9-12.3-12.4 0-4.9 2.7-8.1 8.2-10 6.1-2.1 13.7-4.7 15.9-6.5v-2c0-7.1-3.6-11.2-8.8-11.2-2.3 0-3.7 1.1-4.7 2.3-1.1 1.4-1.8 3.6-2.7 6.5-.5 1.6-1.4 2.3-2.9 2.3-1.9 0-4.4-2-4.4-4.4 0-1.4 1.3-2.6 3.3-4 2.9-2.1 8.7-5.8 14.5-7 3 0 6.1.9 8.4 2.7 3.5 3 5.1 6.4 5.1 11.6v19.4c0 4.6 1.7 6 3.5 6 1.2 0 2.5-.5 3.6-1.1l1 2.8-8.6 5zm-7.3-25.4c-2.2 1.1-7 3.2-9.3 4.2-3.8 1.7-6.1 3.6-6.1 7.3 0 5.3 4 7.7 7.2 7.7 2.6 0 6.2-1.6 8.2-3.6v-15.6z"/><path fill="#545454" d="M130.8 230.2l-8.5-1.8c-.3-.1-.5-.4-.4-.7l2.5-7.9c.1-.3.5-.5.7-.3l8.2 3.6c.4.2.8-.1.7-.6l-.9-8.9c-.1-.3.2-.6.5-.6h8.3c.3 0 .6.3.5.6l-.9 8.8c-.1.4.4.7.7.6l8.2-3.6c.3-.1.6 0 .7.3l2.6 7.9c.1.3-.1.6-.4.7l-8.6 1.8c-.4.1-.6.6-.3.9l5.8 6.5c.2.2.2.6-.1.8l-6.8 5.1c-.3.2-.6.1-.8-.2l-4.6-7.7c-.2-.3-.7-.3-.9 0l-4.6 7.7c-.2.3-.5.3-.8.2l-6.7-5.1c-.2-.2-.3-.6-.1-.8l5.7-6.5c.8-.3.7-.7.3-.8zm39.1 0l-8.5-1.8c-.3-.1-.5-.4-.4-.7l2.5-7.9c.1-.3.5-.5.7-.3l8.2 3.6c.4.2.8-.1.7-.6l-.9-8.9c-.1-.3.2-.6.5-.6h8.4c.3 0 .6.3.5.6l-.9 8.8c-.1.4.4.7.7.6l8.2-3.6c.3-.1.6 0 .7.3l2.6 7.9c.1.3-.1.6-.4.7l-8.6 1.8c-.4.1-.6.6-.3.9l5.8 6.5c.2.2.2.6-.1.8l-6.8 5.1c-.3.2-.6.1-.8-.2l-4.6-7.7c-.2-.3-.7-.3-.9 0l-4.6 7.7c-.2.3-.5.3-.8.2l-6.7-5.1c-.2-.2-.3-.6-.1-.8l5.7-6.5c.8-.3.6-.7.2-.8zm39.2 0l-8.5-1.8c-.3-.1-.5-.4-.4-.7l2.5-7.9c.1-.3.5-.5.7-.3l8.2 3.6c.4.2.8-.1.7-.6l-.9-8.9c-.1-.3.2-.6.5-.6h8.3c.3 0 .6.3.5.6l-.9 8.8c-.1.4.4.7.7.6l8.2-3.6c.3-.1.6 0 .7.3l2.6 7.9c.1.3-.1.6-.4.7l-8.6 1.8c-.4.1-.6.6-.3.9l5.8 6.5c.2.2.2.6-.1.8l-6.8 5.1c-.3.2-.6.1-.8-.2l-4.6-7.7c-.2-.3-.7-.3-.9 0l-4.6 7.7c-.2.3-.5.3-.8.2l-6.7-5.1c-.2-.2-.3-.6-.1-.8l5.7-6.5c.8-.3.7-.7.3-.8z"/><path d="M133 231.9l-8.5-1.8c-.3-.1-.5-.4-.4-.7l2.5-7.9c.1-.3.5-.5.7-.3l8.2 3.6c.4.2.8-.1.7-.6l-.9-8.9c-.1-.3.2-.6.5-.6h8.3c.3 0 .6.3.5.6l-.9 8.8c-.1.4.4.7.7.6l8.2-3.6c.3-.1.6 0 .7.3l2.6 7.9c.1.3-.1.6-.4.7l-8.6 1.8c-.4.1-.6.6-.3.9l5.8 6.5c.2.2.2.6-.1.8l-6.8 5.1c-.3.2-.6.1-.8-.2l-4.6-7.7c-.2-.3-.7-.3-.9 0l-4.6 7.7c-.2.3-.5.3-.8.2l-6.7-5.1c-.2-.2-.3-.6-.1-.8l5.7-6.5c.9-.2.7-.7.3-.8zm39.2 0l-8.5-1.8c-.3-.1-.5-.4-.4-.7l2.5-7.9c.1-.3.5-.5.7-.3l8.2 3.6c.4.2.8-.1.7-.6l-.9-8.9c-.1-.3.2-.6.5-.6h8.4c.3 0 .6.3.5.6l-.9 8.8c-.1.4.4.7.7.6l8.2-3.6c.3-.1.6 0 .7.3l2.6 7.9c.1.3-.1.6-.4.7l-8.6 1.8c-.4.1-.6.6-.3.9l5.8 6.5c.2.2.2.6-.1.8l-6.8 5.1c-.3.2-.6.1-.8-.2l-4.6-7.7c-.2-.3-.7-.3-.9 0l-4.6 7.7c-.2.3-.5.3-.8.2l-6.7-5.1c-.2-.2-.3-.6-.1-.8l5.7-6.5c.7-.2.6-.7.2-.8zm39.1 0l-8.5-1.8c-.3-.1-.5-.4-.4-.7l2.5-7.9c.1-.3.5-.5.7-.3l8.2 3.6c.4.2.8-.1.7-.6l-.9-8.9c-.1-.3.2-.6.5-.6h8.3c.3 0 .6.3.5.6l-.9 8.8c-.1.4.4.7.7.6l8.2-3.6c.3-.1.6 0 .7.3l2.6 7.9c.1.3-.1.6-.4.7l-8.6 1.8c-.4.1-.6.6-.3.9l5.8 6.5c.2.2.2.6-.1.8l-6.8 5.1c-.3.2-.6.1-.8-.2l-4.6-7.7c-.2-.3-.7-.3-.9 0l-4.6 7.7c-.2.3-.5.3-.8.2l-6.7-5.1c-.2-.2-.3-.6-.1-.8l5.7-6.5c.9-.2.7-.7.3-.8z" class="st54"/><circle cx="70.4" cy="223.4" r="52.6" fill="#ed9751"/><circle cx="75.7" cy="226.9" r="52.6" fill="#ffd200"/><g><g id="Camada_2_00000124122069282211141600000013498870049896342459_"><path d="M53.9 226.5l-8.3-2.3 51.6-1.4h.7l8.2 2.3z" class="st51"/><path d="M52.8 264.9l7.2 1.5 2-2.8-8.1-1.5z" class="st53"/><path d="M46.9 223.8s-1 0-1.2.5c0 .1-.1.2-.1.4.1 1 .2 33.7.2 33.7s.4 2.6 2.1 3.9c0 0 2.7 2.4 4.9 2.6 2.2.3 37.3-.7 37.3-.7s4.7.2 7.6-2.6c1.8-1.5 2-3.3 2-3.3v-34.9s.1-.6-1.1-.6c-1.5 0-51.7 1-51.7 1z" class="st53"/><path fill="#aeb9ba" d="M101.7 223.4l-2.8-.5-1.2.8 1.2.1v1.1s8.3.3 8.3.2.1-.5.1-.5l-5.6-1.2z"/><path d="M59.9 266.4c.4.1.7.1 1.1.1l-1.3-.3-5.2-3.7c-.5-1.3-.4-2.5-.4-2.5l-8.4-1.6s.4 2.5 2.1 3.8c0 0 .7.6 1.6 1.2 1 .6 2.2 1.3 3.3 1.4l6.8 1.4c.1 0 .2.1.3.1l.1.1z" class="st54"/><path d="M55.2 225.4s-1.3 0-1.3.8c.1 1 .2 33.7.2 33.7s-.1 2.4 1.3 4c0 0 2 2.4 5.7 2.6 2.5 0 37.3-.7 37.3-.7s4.7.2 7.6-2.6c1.8-1.5 2-3.3 2-3.3V225s.1-.6-1.1-.6c-1.4-.1-51.7 1-51.7 1z" class="st43"/><path d="M56.4 264.9l-6.8-1.3s1.1 1 3.4 1.4c2.2.4 6.4 1.3 6.4 1.3s-1.4-.4-3-1.4z" class="st51"/><path d="M63 219.6l2.8-1.4c-.1-.1-.2 3.3-2.8 1.4z" class="st43"/><path d="M46.4 224.5l7.3 2.1 1.1-1.5-7.6-2.3z" class="st58"/><path d="M46.9 224.6s-1.3 0-1.3-1.1v-7.3s.3-3.6 1.8-5.5c0 0 2.6-3.4 4.8-4 2.2-.5 38.4-1.6 38.4-1.6s4.7-.5 7.8 3.3c1.8 2.1 2.2 4.4 2.2 4.4v9.4s.3.7-1.1.8c-1.3.3-52.6 1.6-52.6 1.6z" class="st58"/><path fill="#9b0707" d="M91.2 205s1.3 0 2.6.3c1.2.4 6.9 1.8 6.9 1.8l-1.3-.2h-1.1c-3.2.1-36.7 1.2-38.8 1.7l-6.7-2.1c4.9-.3 4.9-.4 6.4-.4.9 0 5.7-.2 5.7-.2l26.3-.9z"/><path fill="#ed9191" d="M53.1 217.8l-7.3-1.6c-.2 0-.3-.2-.3-.3.3-1.2.2-4.1 3.5-7 1.1-1.1 2.3-2 3.6-2.4l7.2 1.9s-2.4.9-3.7 2.5-2.4 3-2.7 4.9c-.3 1.6-.3 2-.3 2z"/><path d="M54.4 226.6s-1.3 0-1.3-1.1V218s.3-3.7 1.8-5.6c0 0 2.6-3.5 4.7-4 2.2-.5 38.3-1.6 38.3-1.6s4.7-.5 7.8 3.4c1.8 2.1 2.2 4.5 2.2 4.5v8.7s.3 1.6-1 1.6c-1.2.3-52.5 1.6-52.5 1.6z" class="st60"/></g><path fill="none" stroke="#9ea8a9" stroke-miterlimit="10" stroke-width="5" d="M61.6 207.3v-13.7c0-7.3 6.4-13.3 14.3-13.3h0c7.8 0 14.3 6 14.3 13.3v12.2"/></g><path d="M89.3 238.5c0-4.6-3.7-8.3-8.3-8.3-4.6 0-8.3 3.7-8.3 8.3 0 2.7 1.3 5.1 3.3 6.6l-1.2 11.5h12.3l-1.2-11.5c2-1.5 3.4-3.8 3.4-6.6z" class="st51"/></svg>