<?xml version="1.0" encoding="utf-8"?>
<!-- Generator: Adobe Illustrator 22.0.1, SVG Export Plug-In . SVG Version: 6.00 Build 0)  -->
<svg version="1.1" id="Layer_1" xmlns="http://www.w3.org/2000/svg" xmlns:xlink="http://www.w3.org/1999/xlink" x="0px" y="0px"
	 viewBox="0 0 50 50" style="enable-background:new 0 0 50 50;" xml:space="preserve">
<style type="text/css">
	.st0{fill:#F0CD77;}
	.st1{fill:#ECC158;}
	.st2{fill:#464646;}
	.st3{fill:none;}
</style>
<g>
	<g>
		<g>
			<path class="st0" d="M38.1,11.1h-8.7L25,17.7l-4.3-6.6h-8.7L6.6,26l7.2-2.6l2.9-7.9c0,0,1.5,2.4,3.6,5.6l12.3-4.5
				c0.5-0.7,0.8-1.2,0.8-1.2l0.3,0.8l5.6-2L38.1,11.1z"/>
		</g>
		<g>
			<g>
				<polygon class="st1" points="13.8,23.4 6.6,26 1.8,39.4 8.8,36.9 				"/>
			</g>
			<g>
				<path class="st1" d="M25,28c0.5,0.8,1.1,1.6,1.6,2.4l5.4-2l-3.6-5.5c1.8-2.7,3.3-5,4.2-6.4L20.3,21c0.4,0.6,0.8,1.3,1.3,1.9
					l-8.1,12.3l8.8-3.2C23.1,30.7,24.1,29.4,25,28z"/>
			</g>
			<g>
				<polygon class="st1" points="39.2,14.1 33.6,16.2 37.4,26.5 42.9,24.5 				"/>
			</g>
		</g>
	</g>
	<g>
		<path class="st2" d="M38.6,41.1c-1.4,0-4-0.1-5.8-1c-0.5-0.2-1.6-0.8-7.8-9.9c-6.2,9-7.2,9.5-7.7,9.8c-2.6,1.2-6.7,1-6.9,1
			l-2.1-0.1l0.1-0.1l-0.4,0c-7,0.1-7,0.1-7.3-0.7l-0.2-0.4L11,9.9h10.3l3.7,5.6l3.7-5.6H39l5.6,15.5c0.2,0.7-0.1,1.4-0.8,1.6
			c-0.7,0.2-1.4-0.1-1.6-0.8l-5-13.9H30L25,20l-5-7.6h-7.2l-9.3,26c1,0,2.3,0,3.5,0l9.4-25.7l1.4,2.1c0,0,2.1,3.4,4.9,7.5l0.5,0.7
			L12.8,38.5c1.2-0.1,2.5-0.3,3.4-0.7c0.3-0.2,1.7-1.5,7.8-10.4l1-1.5l1,1.5c6.1,9,7.6,10.4,7.9,10.5c0.9,0.4,2.2,0.6,3.3,0.7
			L26.9,22.9l0.5-0.7c2.7-4.1,4.9-7.5,4.9-7.6l1.4-2.1l9.4,25.7c1.1,0,2.5,0,3.5,0L46,36.8c-0.2-0.7,0.1-1.4,0.8-1.6
			c0.6-0.2,1.4,0.1,1.6,0.8l1.3,3.6L49.5,40c-0.3,0.8-0.3,0.8-7.3,0.7l-0.5,0l0.2,0.3l-2.1,0.1C39.6,41.1,39.2,41.1,38.6,41.1z
			 M29.9,22.9l11,16.7L33,18.1C32.2,19.4,31.1,21.1,29.9,22.9z M1.7,39.6L1.7,39.6L1.7,39.6z M17,18.2L9.2,39.3l10.8-16.4
			C18.8,21.1,17.8,19.4,17,18.2z"/>
	</g>
	<g>
		<path class="st3" d="M22.3,32l4.3-1.6c-0.5-0.8-1.1-1.6-1.6-2.4C24.1,29.4,23.1,30.7,22.3,32z"/>
	</g>
	<g>
		<path class="st3" d="M43.2,25.3L43.1,25l-0.2-0.5l-5.5,2l4.8,13c0,0,6.2,0.1,6.1,0L47,35.9"/>
	</g>
</g>
</svg>
