<svg xmlns="http://www.w3.org/2000/svg" id="Camada_1" x="0" y="0" version="1.1" viewBox="0 0 50 50" xml:space="preserve"><style>.st0{fill:#7df4eb}.st3,.st4{fill:none;stroke:#444;stroke-miterlimit:10}.st3{stroke-linecap:round}.st4{stroke-width:.5}</style><path d="M24.4 7.7l1.4 2.9 3.3.5-2.4 2.2.6 3.3-2.9-1.6-2.9 1.6.6-3.3-2.4-2.2 3.3-.5z" class="st0"/><path d="M44.6 12.4L39 8.8l-7.7-4.4-6-2.8c-3.2 0-21.5 8.9-21.5 12.1l-.5 7.8.5 15.1 11.5 7.6 31-11c.9-.5-.7-18.8-1.7-20.8z" class="st0"/><path fill="none" stroke="#444" stroke-linecap="round" stroke-linejoin="round" stroke-miterlimit="10" stroke-width="2.5" d="M29.9 46.5l-2.2 1.3c-1.7 1-3.8 1-5.5 0l-15.6-9C5 37.8 3.9 36 3.9 34V16c0-2 1-3.8 2.7-4.7l15.6-9c1.7-1 3.8-1 5.5 0l15.6 9c1.7 1 2.7 2.8 2.7 4.7v18c0 2-1 3.8-2.7 4.7l-2.5 1.4"/><path fill="none" d="M13 26.1h23.8v9.8H13z"/><path d="M29.1 25.7c0 2.4-1.9 4.3-4.3 4.3s-4.3-1.9-4.3-4.3 1.9-4.3 4.3-4.3c.9 0 1.7.3 2.4.7" class="st3"/><path d="M22.7 25.1l2.1 2 5.4-5.4" class="st3"/><path d="M16.8 22.5s.9.4 1.1.2c.4-.4.1-.4.7-1.1.2-.3.1-.6-.1-.9l-.8-.9c-.2-.3-.2-.7 0-.9l1-1.1c.3-.3.7-.3 1-.1l1.1.9c.2.2.6.2.8.1.3-.2.9-.5 1.6-.6.3-.1.5-.3.5-.6.1-.7.2-1.1.3-1.4.1-.3.4-.6.7-.6h1.2c.3 0 .6.3.7.6l.2 1.2c0 .3.3.5.5.6.4.1 1.1.3 1.6.7.3.2.6.1.8 0l.8-.7c.3-.2.7-.2.9 0l.9.9c.3.2.3.7.1.9 0 0-1 .8-1 1.2 0 .3.7 1.3.9 1.4.3.1.9-.1.9-.1M17 28.1s.8-.2 1-.1c.3.3.1 0 .6.8.2.3 0 .4-.2.7-.3.5-.5.7-.7.9-.2.4-.1.7.4 1.3l.7.8c.3.3.8.3 1.1.1l.9-.6c.3-.2.7-.2 1 0 .3.2.7.4 1.2.5.3.1.6.4.7.7.1.4.2.8.2 1.1.1.4.5.7.9.7H26c.4 0 .8-.3.9-.8l.1-1c.1-.4.3-.7.7-.7.4-.1.9-.2 1.4-.4.3-.1.7-.1.9.2.3.2.5.4.7.6.3.3.9.3 1.2 0l.8-.8c.3-.3.4-.8.1-1.2l-.7-.9c-.2-.3-.2-.7 0-1 .2-.4.4-.9.6-1 .5-.2.8 0 .8 0" class="st4"/><path d="M15.9 23.4h-5.6c-.6 0-1.2-.5-1.2-1.2 0-.6.5-1.2 1.2-1.2h5.6c.6 0 1.2.5 1.2 1.2s-.6 1.2-1.2 1.2zm0 3.2h-5.6c-.6 0-1.2-.5-1.2-1.2 0-.6.5-1.2 1.2-1.2h5.6c.6 0 1.2.5 1.2 1.2s-.6 1.2-1.2 1.2zm0 3.2h-5.6c-.6 0-1.2-.5-1.2-1.2 0-.6.5-1.2 1.2-1.2h5.6c.6 0 1.2.5 1.2 1.2 0 .6-.6 1.2-1.2 1.2zM40 23.4h-5.6c-.6 0-1.2-.5-1.2-1.2 0-.6.5-1.2 1.2-1.2H40c.6 0 1.2.5 1.2 1.2s-.6 1.2-1.2 1.2zm0 3.2h-5.6c-.6 0-1.2-.5-1.2-1.2 0-.6.5-1.2 1.2-1.2H40c.6 0 1.2.5 1.2 1.2s-.6 1.2-1.2 1.2zm0 3.2h-5.6c-.6 0-1.2-.5-1.2-1.2 0-.6.5-1.2 1.2-1.2H40c.6 0 1.2.5 1.2 1.2 0 .6-.6 1.2-1.2 1.2z" class="st4"/><path fill="none" stroke="#444" stroke-linecap="round" stroke-miterlimit="10" stroke-width=".5" d="M17 25.2h2.2m11.6 0H33"/></svg>