<svg xmlns="http://www.w3.org/2000/svg" id="Camada_1" x="0" y="0" version="1.1" viewBox="0 0 50 50" xml:space="preserve"><style>.st1{stroke-linecap:round}.st1,.st2{fill:none;stroke:#444;stroke-miterlimit:10}</style><path fill="#c3ff68" d="M41.3 17.7l-1-5.2-6.9-6.2-10.1-1.1c-2.8 0-12.4 2.2-13.4 12l-2.3 2.4-1.3 9-5 7.4 4.2 6.2c.9 1.3 2.4 2.1 4 2.2l11.3.2L48 34.1l-4.2-5.6c.7-.4 1.1-8.8-2.5-10.8z"/><path d="M6.2 36.8s2.3-3.8 3.1-4.5c.8-.6 1.8-1.4 3.5-1.5 1.7-.1 4.5-.2 4.8.2.2.3-.3 2.8-3 2.8-1 0-1 .1-1 .1 3.5 0 5.3.1 6.1.1.5 0 1-.2 1.3-.5.9-.9 2.7-2.5 3.2-2.4 1.6.4-2.5 6-4.3 6.5-1.2.3-8.3 0-11.2 3.3" class="st1"/><path d="M10.5 31.6v-8.8c0-.6.4-1 1-1h10c.5 0 1 .5 1 1v9.4" class="st2"/><path d="M43.7 36.8s-2.3-3.8-3.1-4.5c-.8-.6-1.8-1.4-3.5-1.5-1.7-.1-4.5-.2-4.8.2-.2.3.3 2.8 3 2.8 1 0 1 .1 1 .1-3.6.1-5.3.1-6.2.1-.4 0-.9-.1-1.2-.5-.9-.9-2.8-2.5-3.2-2.4-1.6.4 2.5 6 4.3 6.5 1.2.3 8.3 0 11.2 3.3" class="st1"/><path d="M39.4 31.6v-8.8c0-.6-.4-1-1-1h-10c-.5 0-1 .5-1 1v9.4" class="st2"/><path fill="none" stroke="#444" stroke-linecap="round" stroke-linejoin="bevel" stroke-miterlimit="10" stroke-width=".5" d="M17 28.3h15.9"/><path fill="none" stroke="#444" stroke-miterlimit="10" stroke-width=".5" d="M12.2 22c.4-7.1 5.9-12.8 12.6-12.8 6.6 0 12 5.4 12.6 12.4"/><path fill="none" stroke="#444" stroke-linecap="round" stroke-linejoin="round" stroke-miterlimit="10" stroke-width=".5" d="M19.8 25.3l-2.9 3.1 2.8 2.9m10.7-6l2.9 3.1-2.8 2.9"/><path fill="none" stroke="#444" stroke-linecap="round" stroke-miterlimit="10" stroke-width="2" d="M47.9 39.6c.7-.9 1-2 .8-3.1-.1-.6-.3-1.1-.6-1.6l-3.3-5.1c-.8-1.2-1.2-2.6-1.2-4.1 0-3.4-.3-7.1-2.9-7.4 0-2.4-2.3-13.2-15.3-13h-.7c-13-.2-15.3 10.7-15.3 13-2.6.3-2.9 4-2.9 7.4 0 1.5-.4 2.9-1.2 4.1l-3.3 5c-.9 1.4-.9 3.4.2 4.7L4.9 43c.9 1.1 2.1 1.7 3.5 1.7H30"/></svg>