<svg xmlns="http://www.w3.org/2000/svg" id="Layer_1" x="0" y="0" version="1.1" viewBox="0 0 50 50" xml:space="preserve"><style>.st3{fill:none;stroke:#444;stroke-linecap:round;stroke-miterlimit:10}</style><path fill="#fcc34f" d="M44.6 12.5L39 9l-7.7-4.4-6-2.8c-3.2 0-21.5 8.9-21.5 12.1l-.5 7.8.5 15.1 11.5 7.6 31-11c.9-.5-.7-18.9-1.7-20.9z"/><path fill="none" stroke="#444" stroke-linecap="round" stroke-linejoin="round" stroke-miterlimit="10" stroke-width="2.5" d="M29.7 46.5l-2.2 1.3c-1.7 1-3.8 1-5.5 0l-15.6-9c-1.7-1-2.7-2.8-2.7-4.7v-18c0-2 1-3.8 2.7-4.7l15.6-9c1.7-1 3.8-1 5.5 0l15.6 9c1.7 1 2.7 2.8 2.7 4.7v18c0 2-1 3.8-2.7 4.7l-2.5 1.4"/><path fill="none" stroke="#444" stroke-linejoin="round" stroke-miterlimit="10" stroke-width=".5" d="M32.6 24.5v7.3c0 .2-.2.4-.4.4H17.8c-.2 0-.4-.2-.4-.4v-7.3c0-.2-.2-.4-.4-.4h-1c-.2 0-.4-.2-.4-.4v-1.2c0-.1.1-.3.2-.3l2.9-2.2c.1-.1.2-.2.2-.3v-2.4c0-.2.2-.4.4-.4h1.4c.2 0 .4.2.4.4v1.1l3.6-3.3c.2-.1.4-.1.5 0l8.9 7.1c.1.1.2.2.2.3v1.2c0 .2-.2.4-.4.4H33c-.2 0-.4.2-.4.4z"/><path d="M13.9 17.4s-2.9-.2-2.9 2.4v3s.1 2-2.4 2" class="st3"/><path d="M8.6 24.8s2.9-.2 2.9 2.4v3s-.1 2 2.4 2M36.1 32.2s2.9.2 2.9-2.4v-3s-.1-2 2.4-2" class="st3"/><path d="M41.4 24.8s-2.9.2-2.9-2.4v-3s.1-2-2.4-2" class="st3"/></svg>