<?xml version="1.0" encoding="utf-8"?>
<!-- Generator: Adobe Illustrator 28.0.0, SVG Export Plug-In . SVG Version: 6.00 Build 0)  -->
<svg version="1.1" id="Layer_1" xmlns="http://www.w3.org/2000/svg" xmlns:xlink="http://www.w3.org/1999/xlink" x="0px" y="0px"
	 viewBox="0 0 50 50" style="enable-background:new 0 0 50 50;" xml:space="preserve">
<style type="text/css">
	.st0{fill:#FCC34F;}
	.st1{fill:none;stroke:#444444;stroke-width:2.5;stroke-linecap:round;stroke-linejoin:round;stroke-miterlimit:10;}
	.st2{fill:none;stroke:#444444;stroke-width:0.5;stroke-linejoin:round;stroke-miterlimit:10;}
	.st3{fill:none;stroke:#444444;stroke-linecap:round;stroke-miterlimit:10;}
</style>
<path class="st0" d="M44.6,12.5L39,9l-7.7-4.4l-6-2.8c-3.2,0-21.5,8.9-21.5,12.1l-0.5,7.8l0.5,15.1l11.5,7.6l31-11
	C47.2,32.9,45.6,14.5,44.6,12.5z"/>
<g>
	<g>
		<path class="st1" d="M29.7,46.5l-2.2,1.3c-1.7,1-3.8,1-5.5,0l-15.6-9c-1.7-1-2.7-2.8-2.7-4.7v-18c0-2,1-3.8,2.7-4.7l15.6-9
			c1.7-1,3.8-1,5.5,0l15.6,9c1.7,1,2.7,2.8,2.7,4.7v18c0,2-1,3.8-2.7,4.7l-2.5,1.4"/>
	</g>
</g>
<path class="st2" d="M32.6,24.5v7.3c0,0.2-0.2,0.4-0.4,0.4H17.8c-0.2,0-0.4-0.2-0.4-0.4v-7.3c0-0.2-0.2-0.4-0.4-0.4H16
	c-0.2,0-0.4-0.2-0.4-0.4v-1.2c0-0.1,0.1-0.3,0.2-0.3l2.9-2.2c0.1-0.1,0.2-0.2,0.2-0.3v-2.4c0-0.2,0.2-0.4,0.4-0.4h1.4
	c0.2,0,0.4,0.2,0.4,0.4v1.1l3.6-3.3c0.2-0.1,0.4-0.1,0.5,0l8.9,7.1c0.1,0.1,0.2,0.2,0.2,0.3v1.2c0,0.2-0.2,0.4-0.4,0.4H33
	C32.8,24.1,32.6,24.3,32.6,24.5z"/>
<g>
	<g>
		<path class="st3" d="M13.9,17.4c0,0-2.9-0.2-2.9,2.4v3c0,0,0.1,2-2.4,2"/>
		<path class="st3" d="M8.6,24.8c0,0,2.9-0.2,2.9,2.4v3c0,0-0.1,2,2.4,2"/>
	</g>
	<g>
		<path class="st3" d="M36.1,32.2c0,0,2.9,0.2,2.9-2.4v-3c0,0-0.1-2,2.4-2"/>
		<path class="st3" d="M41.4,24.8c0,0-2.9,0.2-2.9-2.4v-3c0,0,0.1-2-2.4-2"/>
	</g>
</g>
</svg>
