<?xml version="1.0" encoding="utf-8"?>
<!-- Generator: Adobe Illustrator 27.5.0, SVG Export Plug-In . SVG Version: 6.00 Build 0)  -->
<svg version="1.1" id="Camada_1" xmlns="http://www.w3.org/2000/svg" xmlns:xlink="http://www.w3.org/1999/xlink" x="0px" y="0px"
	 viewBox="0 0 50 50" style="enable-background:new 0 0 50 50;" xml:space="preserve">
<style type="text/css">
	.st0{fill:#C3FF68;}
	.st1{fill:none;stroke:#444444;stroke-linecap:round;stroke-miterlimit:10;}
	.st2{fill:none;stroke:#444444;stroke-miterlimit:10;}
	.st3{fill:none;stroke:#444444;stroke-width:0.5;stroke-linecap:round;stroke-linejoin:bevel;stroke-miterlimit:10;}
	.st4{fill:none;stroke:#444444;stroke-width:0.5;stroke-miterlimit:10;}
	.st5{fill:none;stroke:#444444;stroke-width:0.5;stroke-linecap:round;stroke-linejoin:round;stroke-miterlimit:10;}
	.st6{fill:none;stroke:#444444;stroke-width:2;stroke-linecap:round;stroke-miterlimit:10;}
</style>
<g>
	<path class="st0" d="M41.3,17.7l-1-5.2l-6.9-6.2L23.3,5.2c-2.8,0-12.4,2.2-13.4,12l-2.3,2.4l-1.3,9l-5,7.4l4.2,6.2
		c0.9,1.3,2.4,2.1,4,2.2l11.3,0.2L48,34.1l-4.2-5.6C44.5,28.1,44.9,19.7,41.3,17.7z"/>
	<path class="st1" d="M6.2,36.8c0,0,2.3-3.8,3.1-4.5c0.8-0.6,1.8-1.4,3.5-1.5c1.7-0.1,4.5-0.2,4.8,0.2c0.2,0.3-0.3,2.8-3,2.8
		c-1,0-1,0.1-1,0.1c3.5,0,5.3,0.1,6.1,0.1c0.5,0,1-0.2,1.3-0.5c0.9-0.9,2.7-2.5,3.2-2.4c1.6,0.4-2.5,6-4.3,6.5
		c-1.2,0.3-8.3,0-11.2,3.3"/>
	<path class="st2" d="M10.5,31.6v-8.8c0-0.6,0.4-1,1-1h3.2h6.8c0.5,0,1,0.5,1,1v9.4"/>
	<path class="st1" d="M43.7,36.8c0,0-2.3-3.8-3.1-4.5c-0.8-0.6-1.8-1.4-3.5-1.5c-1.7-0.1-4.5-0.2-4.8,0.2c-0.2,0.3,0.3,2.8,3,2.8
		c1,0,1,0.1,1,0.1C32.7,34,31,34,30.1,34c-0.4,0-0.9-0.1-1.2-0.5c-0.9-0.9-2.8-2.5-3.2-2.4c-1.6,0.4,2.5,6,4.3,6.5
		c1.2,0.3,8.3,0,11.2,3.3"/>
	<path class="st2" d="M39.4,31.6v-8.8c0-0.6-0.4-1-1-1h-3.2h-6.8c-0.5,0-1,0.5-1,1v9.4"/>
	<g>
		<line class="st3" x1="17" y1="28.3" x2="32.9" y2="28.3"/>
	</g>
	<path class="st4" d="M12.2,22c0.4-7.1,5.9-12.8,12.6-12.8c6.6,0,12,5.4,12.6,12.4"/>
	<polyline class="st5" points="19.8,25.3 16.9,28.4 19.7,31.3 	"/>
	<polyline class="st5" points="30.4,25.3 33.3,28.4 30.5,31.3 	"/>
	<path class="st6" d="M47.9,39.6c0.7-0.9,1-2,0.8-3.1c-0.1-0.6-0.3-1.1-0.6-1.6l-3.3-5.1c-0.8-1.2-1.2-2.6-1.2-4.1
		c0-3.4-0.3-7.1-2.9-7.4c0-2.4-2.3-13.2-15.3-13h-0.7c-13-0.2-15.3,10.7-15.3,13c-2.6,0.3-2.9,4-2.9,7.4c0,1.5-0.4,2.9-1.2,4.1
		L2,34.8c-0.9,1.4-0.9,3.4,0.2,4.7L4.9,43c0.9,1.1,2.1,1.7,3.5,1.7H25h5"/>
</g>
</svg>
