<svg xmlns="http://www.w3.org/2000/svg" data-name="Camada 1" viewBox="0 0 50 50"><path fill="#35d3c3" stroke-width="0" d="M24.8 14.2l7.3 2.2-6.3 4.4.1 7.6-6-4.5-7.2 2.4 2.4-7.2-4.5-6.1 7.6.1 4.3-6.2 2.3 7.3z"/><path fill="#7df4eb" stroke-width="0" d="M40.8 27.9l-10.5-7.4 9.3-18.2-27.7 6C10.6 12.4 6.8 23 6.8 26.2l16.8 8-2.6 5-2.9 4.6 17.5-6.1c.7-.4 6.1-7.8 5.1-9.8z"/><g fill="none" stroke="#444" stroke-linecap="round" stroke-linejoin="round"><path d="M12.3 9.1L7.6 25.4l27.3 13.1 6.3-9.4-28.9-20z"/><path stroke-width="2.5" d="M30.4 41.4l4.1-2.1 7.6-10.9-11.9-7.9L40 2 11.9 8.3 7 25.9 23.5 34l-7.2 14.6 5.8-3"/><path stroke-width=".5" d="M14.3 13L11 24.7l22.4 11.2 4.6-6.8L14.3 13z"/></g></svg>