<svg xmlns="http://www.w3.org/2000/svg" id="Camada_1" data-name="Camada 1" version="1.1" viewBox="0 0 50 50"><defs><style>.cls-4,.cls-6{fill:none;stroke:#444;stroke-miterlimit:10}.cls-6{stroke-width:.5px}</style></defs><path fill="#35d3c3" stroke-width="0" d="M31.1 20.4l7.9 2.5-6.7 4.7.1 8.2-6.6-4.9-7.8 2.6 2.7-7.7-4.9-6.6 8.2.1 4.7-6.7 2.4 7.8z"/><path fill="#7df4eb" stroke-width="0" d="M44.4 12.6L38.8 9l-7.7-4.4-6-2.8c-3.2-.1-21.4 8.9-21.4 12.1l-.5 7.8.5 15.1 11.5 7.6 31-11c.7-.4-.8-18.7-1.8-20.7z"/><path fill="none" stroke="#444" stroke-linecap="round" stroke-linejoin="round" stroke-width="2.5" d="M29.7 46.6l-2.2 1.3c-1.7 1-3.8 1-5.5 0l-15.6-9c-1.7-1-2.7-2.8-2.7-4.7v-18c0-2 1-3.8 2.7-4.7l15.6-9c1.7-1 3.8-1 5.5 0l15.6 9c1.7 1 2.7 2.8 2.7 4.7v18c0 2-1 3.8-2.7 4.7l-2.5 1.4"/><g id="_6" data-name="6"><path d="M32.3 27.6c-2.9-1.8-6.6-.9-8.4 2-1.8 2.9-.9 6.6 2 8.4.6.4 1.3.7 2 .8 2.4.5 5-.6 6.4-2.8 1.8-2.9.9-6.6-2-8.4zM19.7 13.1c-2.1-1.3-4.8-.6-6.1 1.4-1.3 2.1-.6 4.8 1.4 6.1.5.3 1 .5 1.5.6 1.8.3 3.6-.4 4.6-2 1.3-2.1.6-4.8-1.4-6.1z" class="cls-6"/><path d="M30.5 30.4c-1.3-.8-3-.4-3.8.9-.8 1.3-.4 3 .9 3.8.3.2.6.3.9.4 1.1.2 2.3-.3 2.9-1.3.8-1.3.4-3-.9-3.8z" class="cls-4"/><path d="M38.4 36.3l-.9-.6c.3-1 .5-2 .5-3.1l1-.2c.3 0 .5-.4.4-.7l-.6-2.6c0-.1-.1-.3-.2-.3h-.4l-1 .2c-.5-.9-1.1-1.8-1.8-2.5l.6-.9c.2-.3 0-.6-.2-.8l-2.3-1.4c-.3-.2-.6 0-.8.2l-.6.9c-1-.3-2-.5-3.1-.5l-.2-1c0-.3-.4-.5-.7-.4l-2.6.6c-.1 0-.3.1-.3.2s-.1.3 0 .4l.2 1c-.9.5-1.8 1.1-2.5 1.8L22 26h-.4c-.1 0-.3.1-.3.2l-1.4 2.3c-.2.3 0 .6.2.8l.9.6c-.3 1-.5 2-.5 3.1l-1 .2c-.3 0-.5.4-.4.7l.6 2.6c0 .1.1.3.2.3h.4l1-.2c.5.9 1.1 1.8 1.8 2.5l-.6.9c0 .1-.1.3 0 .4 0 .1.1.3.2.3l2.3 1.4h.2c.2 0 .4 0 .6-.3l.6-.9c1 .3 2 .5 3.1.5l.2 1c0 .3.4.5.7.4l2.6-.6c.1 0 .3-.1.3-.2s.1-.3 0-.4l-.2-1c.9-.5 1.8-1.1 2.5-1.8l.9.6h.4c.1 0 .3-.1.3-.2l1.4-2.3c.2-.3 0-.6-.2-.8zM18 13.6c-1.7-.3-3.5.8-3.8 2.5s.8 3.5 2.5 3.8 3.5-.8 3.8-2.5-.8-3.5-2.5-3.8z" class="cls-4"/><path fill="#444" stroke-width="0" d="M7.5 30.2h.2c.2 0 .4-.1.5-.4.2-.6.6-1.1 1.1-1.5.2-.2.3-.5 0-.8-.2-.2-.5-.3-.8 0-.7.5-1.2 1.2-1.5 2 0 .3 0 .6.3.7zm.8 1.8c-.1-.3-.4-.4-.7-.3-.3.1-.4.4-.3.7.3.8.8 1.5 1.5 2 0 0 .2.1.3.1.2 0 .3 0 .4-.2.2-.2.1-.6-.1-.8-.5-.4-.9-.9-1.1-1.5zm3.1-5.5c-.3 0-.6.2-.6.5s.2.6.5.6c.6 0 1.3.2 1.8.6h.3c.2 0 .3 0 .5-.2.2-.3.1-.6-.1-.8-.7-.5-1.5-.8-2.4-.8zm3.3 2.6c-.3 0-.5.4-.4.7 0 .3.1.6.1.9s0 .7-.1 1c0 .3 0 .6.4.7h.2c.2 0 .5-.2.5-.4.1-.4.2-.9.2-1.3s0-.8-.2-1.2c0-.3-.4-.5-.7-.4zm-1.6 4.5c-.5.4-1.1.5-1.8.5s-.6.2-.6.6.2.6.6.6c.9 0 1.7-.3 2.4-.7.3-.2.3-.5.2-.8-.2-.3-.5-.3-.8-.2zm24.3-16.2h.2c.2 0 .5-.2.6-.4.2-.5.3-1.1.3-1.7v-1c0-.3-.4-.5-.7-.5-.3 0-.5.4-.5.7v.8c0 .4 0 .9-.2 1.3-.1.3 0 .7.4.8zm-2.1 1.3c-.7.4-1.6.6-2.4.5-.3 0-.6.2-.7.5 0 .3.2.6.5.7h.6c.9 0 1.8-.2 2.6-.7.3-.2.4-.5.2-.8-.2-.3-.5-.4-.8-.2zm-1.4-7.3c.7.1 1.3.4 1.9.8.1 0 .2.1.4.1s.4 0 .5-.2c.2-.3.2-.6 0-.8-.7-.6-1.6-.9-2.5-1.1-.3 0-.6.2-.7.5 0 .3.2.6.5.7zM29 13.7h.3c.2 0 .4-.1.5-.3.3-.6.8-1.1 1.4-1.5.3-.2.4-.5.2-.8-.2-.3-.5-.4-.8-.2-.8.5-1.4 1.2-1.8 2-.2.3 0 .7.3.8zm.6 5.1c.1.1.3.2.4.2s.3 0 .4-.2c.2-.2.3-.6 0-.9-.5-.5-.8-1.1-1-1.8 0-.3-.4-.5-.7-.5-.3 0-.5.4-.5.7.2.9.6 1.7 1.3 2.4z"/><path d="M33.3 17.7c1.3 0 2.4-1.1 2.4-2.4s-1.1-2.4-2.4-2.4-2.4 1.1-2.4 2.4 1.1 2.4 2.4 2.4zm-22 15.4c1.2 0 2.2-1 2.2-2.2s-1-2.2-2.2-2.2-2.2 1-2.2 2.2 1 2.2 2.2 2.2z" class="cls-6"/><path d="M19.6 22.9c.1.2.4.3.6.1l1.7-1.1c.2-.1.3-.4.1-.6l-.6-.9c.3-.3.5-.7.7-1l1.1.2c.2 0 .5-.1.5-.4l.4-2c0-.2-.1-.5-.4-.5l-1.1-.2c0-.4-.1-.8-.2-1.2l.9-.6c.2-.1.3-.4.1-.6l-1.1-1.7c-.1-.2-.4-.3-.6-.1l-.9.6c-.3-.3-.7-.5-1-.7l.2-1.1c0-.2-.1-.5-.4-.5l-2-.4c-.2 0-.5.1-.5.4l-.2 1.1c-.4 0-.8.1-1.2.2l-.6-.9c-.1-.2-.4-.3-.6-.1L12.8 12c-.2.1-.3.4-.1.6l.6.9c-.3.3-.5.7-.7 1l-1.1-.2c-.2 0-.5.1-.5.4l-.4 2c0 .2.1.5.4.5l1.1.2c0 .4.1.8.2 1.2l-.9.6c-.2.1-.3.4-.1.6l1.1 1.7c.1.2.4.3.6.1l.9-.6c.3.3.7.5 1 .7l-.2 1.1c0 .2.1.5.4.5l2 .4c.2 0 .5-.1.5-.4l.2-1.1c.4 0 .8-.1 1.2-.2l.6.9z" class="cls-4"/></g></svg>