<?xml version="1.0" encoding="utf-8"?>
<!-- Generator: Adobe Illustrator 22.1.0, SVG Export Plug-In . SVG Version: 6.00 Build 0)  -->
<svg version="1.1" id="Layer_1" xmlns="http://www.w3.org/2000/svg" xmlns:xlink="http://www.w3.org/1999/xlink" x="0px" y="0px"
	 viewBox="0 0 50 50" style="enable-background:new 0 0 50 50;" xml:space="preserve">
<style type="text/css">
	.st0{fill:#C3FF68;}
	.st1{fill:#AFE55D;}
	.st2{fill:#444444;}
</style>
<g>
	<g>
		<g>
			<path class="st0" d="M24.9,1.1C12.2,1.1,1.8,11.3,1.6,24L42.4,9.1C38.2,4.2,31.9,1.1,24.9,1.1z"/>
		</g>
		<g>
			<path class="st1" d="M48.2,24.5c0-5.9-2.2-11.3-5.8-15.4L1.6,24c0,0.2,0,0.3,0,0.5c0,6.9,3,13.1,7.8,17.4L48,27.8
				C48.2,26.7,48.2,25.6,48.2,24.5z"/>
		</g>
	</g>
	<g>
		<path class="st2" d="M44.2,19.5l-5.3-2.7l-0.2-0.3c-2.9-4.6-7.8-7.5-13.2-7.6l-2.8-0.1L26.4,5l-4.2-4.2l3,0
			c8.9,0.1,17,5.1,21.2,13l0.3,0.6L44.2,19.5z M40.6,14.9l2.5,1.2l0.8-1.6c-3.3-5.9-9-9.8-15.5-10.9L29.9,5l-1.6,1.6
			C33.3,7.6,37.8,10.5,40.6,14.9z"/>
	</g>
	<g>
		<path class="st2" d="M8.8,22.2l-2.4-4.7l-5.3,2.7l1-2.9C5,8.8,12.3,2.7,21.1,1.2l0.6-0.1l3.9,3.9l-4.2,4.2l-0.3,0.1
			c-5.3,1.3-9.5,5.1-11.3,10.2L8.8,22.2z M7.5,14.2l1,2C11,11.7,15.2,8.3,20.2,7l1.9-1.9l-1.3-1.3C14.3,5,8.8,9.2,5.8,15.1L7.5,14.2
			z"/>
	</g>
	<g>
		<path class="st2" d="M41.7,42.4l-5.5-0.9l0.9-5.8l0.2-0.3c1.4-1.7,2.5-3.6,3.1-5.7c0.5-1.5,0.7-3.1,0.7-4.7c0-1.5-0.2-3-0.6-4.5
			l-0.8-2.7l4.7,2.4l2.7-5.3l0.9,2.9c0.7,2.3,1.1,4.8,1.1,7.2c0,1.3-0.1,2.5-0.3,3.8c-0.1,0.7-0.7,1.1-1.4,1c-0.7-0.1-1.1-0.7-1-1.4
			c0.2-1.1,0.3-2.2,0.3-3.4c0-1.1-0.1-2.2-0.3-3.3l-0.9,1.8l-2-1c0.1,0.9,0.2,1.7,0.2,2.6c0,1.9-0.3,3.7-0.8,5.4
			c-0.7,2.3-1.8,4.4-3.4,6.3L39,39.5l1.8,0.3c0.9-1,1.7-2,2.5-3.2c0.4-0.6,1.1-0.7,1.7-0.4c0.6,0.4,0.7,1.1,0.4,1.7
			c-0.9,1.4-2,2.8-3.2,4L41.7,42.4z"/>
	</g>
	<g>
		<path class="st2" d="M13.1,46.2l-2.5-1.8C4.5,39.8,0.9,32.6,0.9,25c0-1.2,0.1-2.5,0.3-3.6l0.1-0.6l5-2.5l2.7,5.3l0,0.3
			c0,0.4,0,0.8,0,1.2c0,5,2.3,9.7,6.2,12.8l2.3,1.8l-5.2,0.8L13.1,46.2z M3.5,22.4c-0.1,0.9-0.2,1.7-0.2,2.6
			c0,5.7,2.3,11.2,6.3,15.2l-0.3-1.9l2.3-0.4c-3.3-3.4-5.2-8-5.2-12.9c0-0.3,0-0.7,0-1l-1.3-2.5L3.5,22.4z"/>
	</g>
	<g>
		<path class="st2" d="M25,49.1c-3.8,0-7.4-0.9-10.8-2.6l-0.6-0.3l-0.9-5.5l5.8-0.9l0.3,0.1c2,0.8,4,1.2,6.1,1.2
			c3.3,0,6.4-1,9.1-2.8l2.4-1.6L35.6,42l5.8,0.9L39,44.7C34.9,47.6,30,49.1,25,49.1z M15.9,44.6c2.9,1.3,5.9,2,9.1,2
			c3.4,0,6.8-0.8,9.8-2.3l-2-0.3l0.4-2.2c-4.6,2.2-10,2.5-14.9,0.6l-2.7,0.4L15.9,44.6z"/>
	</g>
	<g>
		<g>
			<path class="st2" d="M22.9,19.3c-0.3,0-0.7,0-1.2,0.1c-2.5,0.4-3.8,2.2-4.1,4.2h0c0.6-0.8,1.6-1.4,2.9-1.4c2.1,0,3.6,1.5,3.6,3.8
				c0,2.2-1.5,4.2-3.9,4.2c-2.5,0-4.2-2-4.2-5c0-2.3,0.8-4.2,2-5.3c1-1,2.3-1.6,3.8-1.7c0.5-0.1,0.9-0.1,1.2-0.1V19.3z M22.4,26.1
				c0-1.7-1-2.7-2.4-2.7c-1,0-1.9,0.6-2.3,1.5c-0.1,0.2-0.2,0.4-0.2,0.7c0,1.9,0.9,3.4,2.6,3.4C21.5,28.9,22.4,27.8,22.4,26.1z"/>
		</g>
		<g>
			<path class="st2" d="M32.1,22.2c1,0.7,1.6,2,1.6,3.3c0,3.2-2.2,4.7-4.2,4.7c-2.4,0-4.2-1.7-4.2-4.5c0-2.9,1.9-4.7,4.5-4.7
				c0.5,0,1.4,0,1.7,0h1c0.6,0,1.7,0,2,0l-0.1,1.2C34,22.2,33.4,22.2,32.1,22.2L32.1,22.2z M32.2,25.5c0-1.5-0.8-3.3-2.6-3.3
				c-1.8,0-2.6,1.7-2.6,3.4c0,1.9,1.1,3.4,2.6,3.4C31,29,32.2,27.5,32.2,25.5z"/>
		</g>
	</g>
	<g>
		<path class="st2" d="M24.9,38.6c-7.5,0-13.6-6.1-13.6-13.6c0-7.5,6.1-13.6,13.6-13.6c7.5,0,13.6,6.1,13.6,13.6
			C38.5,32.5,32.4,38.6,24.9,38.6z M24.9,11.9c-7.2,0-13.1,5.9-13.1,13.1c0,7.2,5.9,13.1,13.1,13.1C32.1,38.1,38,32.3,38,25
			C38,17.8,32.1,11.9,24.9,11.9z"/>
	</g>
</g>
</svg>
