<?xml version="1.0" encoding="utf-8"?>
<!-- Generator: Adobe Illustrator 24.0.3, SVG Export Plug-In . SVG Version: 6.00 Build 0)  -->
<svg version="1.1" id="Layer_1" xmlns="http://www.w3.org/2000/svg" xmlns:xlink="http://www.w3.org/1999/xlink" x="0px" y="0px"
	 viewBox="0 0 50 50" style="enable-background:new 0 0 50 50;" xml:space="preserve">
<style type="text/css">
	.st0{fill:#A6C1C2;}
	.st1{fill:#B9D7D9;}
	.st2{fill:#444444;}
	.st3{display:none;}
	.st4{display:inline;fill:#444444;}
	.st5{fill:none;stroke:#444444;stroke-miterlimit:10;}
</style>
<g>
	<g>
		<path class="st0" d="M19.1,46.5L42.3,38c2.3-3.4,3.7-7.5,3.7-11.9C46,14.5,36.5,5,24.9,5S3.7,14.5,3.7,26.1
			C3.7,35.8,10.3,44,19.1,46.5z"/>
		<path class="st1" d="M42.6,11.4c-5.5-2.8-13.4-11-25-6c-14,6-14,17-14,20L42.6,11.4z"/>
	</g>
	<g>
		<g>
			<path class="st2" d="M24.8,47.2c-12.3,0-22.4-10-22.4-22.4s10-22.4,22.4-22.4s22.4,10,22.4,22.4c0,4.5-1.3,8.8-3.8,12.5
				c-0.4,0.6-1.2,0.7-1.7,0.3c-0.6-0.4-0.7-1.2-0.3-1.7c2.2-3.3,3.4-7.1,3.4-11.1c0-11-8.9-19.9-19.9-19.9S4.9,13.9,4.9,24.9
				s8.9,19.9,19.9,19.9c0.7,0,1.2,0.6,1.2,1.2S25.4,47.2,24.8,47.2z"/>
		</g>
		<g class="st3">
			<path class="st4" d="M24.9,40.4c-7.9,0-14.3-6.4-14.3-14.3S17,11.9,24.9,11.9s14.3,6.4,14.3,14.3S32.7,40.4,24.9,40.4z
				 M24.9,12.1c-7.7,0-14,6.3-14,14c0,7.7,6.3,14,14,14c7.7,0,14-6.3,14-14S32.6,12.1,24.9,12.1z"/>
		</g>
		<g class="st3">
			<path class="st4" d="M24.9,36.2c-5.6,0-10.1-4.5-10.1-10.1s4.5-10.1,10.1-10.1s10.1,4.5,10.1,10.1S30.4,36.2,24.9,36.2z
				 M24.9,16.3c-5.4,0-9.8,4.4-9.8,9.8s4.4,9.8,9.8,9.8c5.4,0,9.8-4.4,9.8-9.8S30.3,16.3,24.9,16.3z"/>
		</g>
	</g>
</g>
<g>
	<path class="st2" d="M16.3,27.1c0,4.7,3.8,8.5,8.5,8.5s8.5-3.8,8.5-8.5c0-3-1.6-5.7-4-7.2V17c0-0.4-0.4-0.8-0.8-0.8h0
		c-0.2-1.8-1.7-3.2-3.6-3.2s-3.4,1.4-3.6,3.2h0c-0.4,0-0.8,0.4-0.8,0.8v2.9C17.9,21.4,16.3,24.1,16.3,27.1z M24.8,14.6
		c1,0,1.8,0.7,2,1.6h-4C23,15.3,23.8,14.6,24.8,14.6z M21.9,17.8h5.7v1.3c-0.9-0.3-1.8-0.5-2.8-0.5s-1.9,0.2-2.8,0.5V17.8z
		 M26.8,27.5h0.4c0.2,0,0.4,0.2,0.4,0.4c0,0.2-0.2,0.4-0.4,0.4c-0.2,0-0.4-0.2-0.4-0.4V27.5z M24.4,20.3c0.1,0,0.3,0,0.4,0
		s0.3,0,0.4,0v5.6h-0.8V20.3z M22.7,20.6v5.4h-0.4c-1.1,0-2,0.9-2,2c0,1.1,0.9,2,2,2c1.1,0,2-0.9,2-2v-0.4h0.8v0.4c0,1.1,0.9,2,2,2
		c1.1,0,2-0.9,2-2c0-1.1-0.9-2-2-2h-0.4v-5.4c2.8,0.9,4.8,3.5,4.8,6.6c0,3.8-3.1,6.9-6.9,6.9s-6.9-3.1-6.9-6.9
		C17.9,24,19.9,21.4,22.7,20.6z M22.7,27.5v0.4c0,0.2-0.2,0.4-0.4,0.4c-0.2,0-0.4-0.2-0.4-0.4c0-0.2,0.2-0.4,0.4-0.4H22.7z"/>
	<line class="st5" x1="24.8" y1="4.1" x2="24.8" y2="13.4"/>
</g>
</svg>
