<svg version="1" xmlns="http://www.w3.org/2000/svg" viewBox="0 0 50 50"><path fill="#FCC34F" d="M14.866 32.888l27.805-10.12 5.147-6.91a.712.712 0 0 0-.036-.895L41.62 7.94a.462.462 0 0 0-.185-.13L31.66 4.045a.48.48 0 0 0-.17-.032H18.51a.45.45 0 0 0-.17.032L8.566 7.81a.466.466 0 0 0-.186.13l-6.16 7.023a.711.711 0 0 0-.037.894l12.683 17.03z"/><path fill="#FDCF72" d="M3.458 17.568L36.01 5.72l-4.35-1.675a.48.48 0 0 0-.17-.032H18.51a.45.45 0 0 0-.17.032L8.566 7.81a.466.466 0 0 0-.186.13l-6.16 7.023a.711.711 0 0 0-.037.894l1.275 1.71z"/><path fill="#444" d="M24.62 47.167c-.36 0-.714-.164-.947-.476L1.237 16.563a1.901 1.901 0 0 1 .095-2.378l6.16-7.023c.184-.205.41-.36.658-.454l9.766-3.76a1.6 1.6 0 0 1 .594-.113h12.98c.208 0 .41.04.605.115l9.764 3.76c.24.09.464.246.643.448l6.165 7.028c.584.666.624 1.666.096 2.376l-5.146 6.912c-.39.522-1.128.63-1.652.242a1.182 1.182 0 0 1-.242-1.652l4.92-6.606-5.796-6.607-9.492-3.657H18.644L9.152 8.85l-5.796 6.606 22.21 29.826a1.18 1.18 0 0 1-.945 1.885zM41.01 8.91l.01.005-.01-.004zM9 8.91l-.01.003c.003 0 .006 0 .01-.002zm22.236-3.762l.01.005-.01-.004zm-12.467 0h-.007.006z"/><path fill="#444" d="M31.696 11.934l-13.5-.038L8.23 8.522a.707.707 0 1 1 .455-1.34l9.855 3.337h12.923l9.855-3.338a.708.708 0 0 1 .454 1.34l-10.076 3.412zm4.462 11.416H13.842L1.478 16.004a.708.708 0 1 1 .725-1.217l12.03 7.147H35.77l12.03-7.147a.707.707 0 1 1 .722 1.217L36.158 23.35z"/><path fill="#444" d="M25 46.544a1.17 1.17 0 0 1-1.073-.687l-10.66-23.19 4.668-12.148h14.13l4.666 12.147-10.656 23.19a1.171 1.171 0 0 1-1.074.687zM14.804 22.617L25 44.8l10.196-22.184-4.104-10.683H18.91l-4.106 10.684z"/></svg>