<?xml version="1.0" encoding="utf-8"?>
<!-- Generator: Adobe Illustrator 26.5.0, SVG Export Plug-In . SVG Version: 6.00 Build 0)  -->
<svg version="1.1" id="Layer_1" xmlns="http://www.w3.org/2000/svg" xmlns:xlink="http://www.w3.org/1999/xlink" x="0px" y="0px"
	 viewBox="0 0 50 50" style="enable-background:new 0 0 50 50;" xml:space="preserve">
<style type="text/css">
	.st0{fill:#46B8B0;}
	.st1{fill:#4ECDC4;}
	.st2{fill:none;stroke:#444444;stroke-width:2.5;stroke-linecap:round;stroke-linejoin:round;stroke-miterlimit:10;}
	.st3{fill:none;stroke:#494949;stroke-width:2;stroke-linecap:round;stroke-linejoin:round;stroke-miterlimit:10;}
</style>
<g>
	<g>
		<g>
			<g>
				<polygon class="st0" points="46.9,25.9 47.3,30 2.6,46.3 2.8,37.6 3.2,32.7 47.7,16.5 47,20 				"/>
				<polygon class="st1" points="47.2,10 46.6,17.4 2.9,33.3 2.9,24 3.3,19.7 47.3,3.7 				"/>
				<polyline class="st2" points="6.5,47.3 2.3,47.3 2.3,2.7 47.2,2.7 47.2,47.3 31.7,47.3 				"/>
			</g>
		</g>
	</g>
	<g>
		<path class="st3" d="M16.3,31.6v3.8c0,0,0.5,1.8,2,2.9c1.3,1,9.2,5.4,10.2-6.5c0.3-3.7,5.6-7.1,5.3-12.8
			c-0.4-7.3-7.7-10.3-12.6-8.4s-4.9,8-4.9,8v5.1"/>
		<path class="st3" d="M30.5,20.5c-0.2-5-5.3-7.9-9.2-5.5s-1.7,9.5-1.7,9.5s3.2,0.5,3.1,2.9c-0.2,4.1-3.2,4.2-3.2,4.2v1.8
			c0,0,0,2.9,2.3,2.7"/>
	</g>
</g>
</svg>
