<svg xmlns="http://www.w3.org/2000/svg" version="1" viewBox="0 0 50 50"><path fill="#D2D971" d="M8.138 33.063a8.074 8.074 0 0 0 8.02.03l7.62 4.4S34.6 33.4 33.84 33.827l-13.58-7.84a8.094 8.094 0 0 0-.574-2.925l8.274-8.274a6.975 6.975 0 0 0 6.684-1.818 6.985 6.985 0 0 0-9.877-9.877 6.972 6.972 0 0 0-1.817 6.684l-8.52 8.52c-3.492-1.015-7.354.425-9.253 3.716a8.089 8.089 0 0 0 2.96 11.047z"/><path fill="#EAF27E" d="M18.91 14.59L37.01 8a6.952 6.952 0 0 0-2.024-4.478 6.983 6.983 0 0 0-9.877 0 6.97 6.97 0 0 0-1.818 6.684L18.91 14.59z"/><path fill="#444" d="M42.386 32.952a9.064 9.064 0 0 0-6.932-.913 9.155 9.155 0 0 0-1.596.593l-12.57-7.262a8.998 8.998 0 0 0-.39-2.033l7.412-7.41c.46.08.92.134 1.38.134 2.11 0 4.175-.828 5.694-2.347 1.518-1.518 2.354-3.535 2.354-5.68s-.836-4.164-2.354-5.68A7.973 7.973 0 0 0 29.704 0H29.7a7.959 7.959 0 0 0-5.668 2.354c-1.85 1.85-2.66 4.51-2.21 7.073l-7.717 7.716a9.078 9.078 0 0 0-9.833 4.348c-2.52 4.362-1.02 9.963 3.348 12.488a9.18 9.18 0 0 0 4.564 1.21c1.35 0 2.69-.313 3.93-.902L28.73 41.57c.236 2.978 1.916 5.7 4.52 7.205A9.13 9.13 0 0 0 37.81 50h.01a1.047 1.047 0 1 0-.001-2.096h-.01a7.028 7.028 0 0 1-3.51-.945 7.075 7.075 0 0 1-3.52-6.034c0-.045-.022-.083-.028-.127-.01-.07-.02-.138-.043-.204a.976.976 0 0 0-.09-.18.945.945 0 0 0-.11-.162 1.008 1.008 0 0 0-.158-.14c-.035-.027-.06-.064-.098-.087l-13.567-7.832c-.04-.023-.083-.024-.123-.04a.986.986 0 0 0-.196-.067.983.983 0 0 0-.202-.016c-.065 0-.128 0-.193.013-.073.014-.138.04-.206.067-.04.016-.08.017-.118.038a7.01 7.01 0 0 1-6.985-.03c-3.364-1.944-4.52-6.26-2.58-9.622a6.996 6.996 0 0 1 8.046-3.232c.048.014.094.005.14.012.054.008.104.03.157.03.02 0 .04-.01.06-.012a.916.916 0 0 0 .193-.038c.065-.016.128-.03.19-.06.066-.03.12-.075.18-.12.038-.028.083-.042.117-.077l8.523-8.522c.03-.03.043-.07.07-.104.044-.058.086-.114.118-.18.03-.06.048-.12.066-.185.018-.065.033-.128.038-.195.006-.073-.002-.142-.01-.215-.007-.042.003-.083-.008-.125a5.89 5.89 0 0 1 1.55-5.683 5.885 5.885 0 0 1 4.186-1.74h.005c1.585 0 3.075.62 4.197 1.74 1.122 1.123 1.74 2.614 1.74 4.2s-.618 3.076-1.74 4.198a5.876 5.876 0 0 1-5.68 1.548c-.043-.01-.084 0-.126-.007a.97.97 0 0 0-.215-.01c-.065.005-.126.02-.19.037a1.002 1.002 0 0 0-.19.068 1.013 1.013 0 0 0-.174.116c-.035.028-.076.04-.107.072l-7.252 7.25a9.11 9.11 0 0 0-1.65-2.013 1.048 1.048 0 1 0-1.404 1.555 7.019 7.019 0 0 1 1.81 2.605c.325.82.494 1.677.502 2.55 0 .045.02.082.026.125.01.072.02.14.044.208.022.064.053.12.087.178a.991.991 0 0 0 .11.163c.05.055.103.098.162.142.035.026.057.062.096.085l12.144 7.015a9.128 9.128 0 0 0-1.986 2.377 1.049 1.049 0 0 0 1.816 1.048 6.989 6.989 0 0 1 4.274-3.28 6.997 6.997 0 0 1 5.34.703c3.362 1.94 4.518 6.255 2.578 9.616a1.046 1.046 0 0 0 .907 1.57c.362 0 .714-.186.908-.523 2.518-4.358 1.018-9.956-3.344-12.475z"/></svg>