<svg xmlns="http://www.w3.org/2000/svg" version="1" viewBox="0 0 50 50"><path fill="#00C8E2" d="M8.917 33.935v5.007c0 1.174.952 2.126 2.126 2.126h4.865l25.174-9.163v-9.081l6.142-6.14c.83-.83.83-2.176 0-3.006l-6.663-6.663a2.126 2.126 0 0 0-3.006 0l-1.887 1.887H11.043a2.126 2.126 0 0 0-2.126 2.126v7.621L2.776 24.79c-.83.83-.83 2.176 0 3.006l6.141 6.139z"/><path fill="#00DFFC" d="M40.634 7.088l-.072-.072a2.126 2.126 0 0 0-3.006 0L35.682 8.89l4.952-1.802zm-4.987 1.814H11.043a2.126 2.126 0 0 0-2.126 2.126v7.603l26.73-9.729z"/><path fill="#444" d="M48.079 12.823l-6.663-6.662c-1.257-1.258-3.455-1.262-4.716 0l-1.532 1.532H11.043a3.339 3.339 0 0 0-3.335 3.335v7.12L1.92 23.936a3.315 3.315 0 0 0-.977 2.359c0 .891.347 1.728.977 2.357l5.787 5.785v4.505a3.34 3.34 0 0 0 3.335 3.335h4.509l1.534 1.534c.65.649 1.503.974 2.357.974a3.326 3.326 0 0 0 2.357-.975l1.533-1.533h12.427a1.209 1.209 0 1 0 0-2.418H24.566l3.627-3.626h8.055V28.18l3.627-3.626v7.354a1.209 1.209 0 1 0 2.418 0v-8.582l5.787-5.786c.63-.63.977-1.468.977-2.358a3.32 3.32 0 0 0-.978-2.359zm-37.036-2.712h22.969l-3.628 3.628c-.01-.001-.019-.006-.029-.006H13.748v5.009l-.668-.668c-.771-.771-1.949-.98-2.953-.647v-6.399c0-.506.411-.917.916-.917zm18.379 4.59l-9.857 9.857-4.849-4.849V14.7h14.706zM10.127 38.942V35.6l4.26 4.258h-3.344a.917.917 0 0 1-.916-.916zm25.153-3.677h-6.12l6.12-6.118v6.118zm11.089-19.436L20.092 42.1a.919.919 0 0 1-1.296 0L3.631 26.941c-.173-.173-.268-.402-.268-.647s.095-.475.268-.648l6.496-6.579c.535-.485 1.413-.48 1.927.034l7.511 7.51 18.846-18.74a.938.938 0 0 1 1.296 0l6.663 6.662a.91.91 0 0 1 .268.649.91.91 0 0 1-.269.647z"/></svg>