<svg xmlns="http://www.w3.org/2000/svg" id="Camada_1" data-name="Camada 1" version="1.1" viewBox="0 0 50 50"><defs><style>.cls-3{stroke-width:.5px}.cls-3,.cls-4{fill:none;stroke:#444;stroke-linecap:round;stroke-linejoin:round}</style></defs><path fill="#d1bd00" stroke-width="0" d="M24.8 16.8l7.9 2.4L26 24l.1 8.2-6.6-4.9-7.8 2.6 2.7-7.8-4.9-6.5 8.2.1L22.4 9l2.4 7.8z"/><path fill="#f9f941" stroke-width="0" d="M45.6 3.9H4.5c-1.4 0-1.4 3.8-1.4 5.2L2.9 22l-.5 10.2L3.6 44l12.4.6 32.1-11.4V6.5c0-1.4-1.1-2.6-2.5-2.6z"/><path fill="none" stroke="#444" stroke-linecap="round" stroke-linejoin="round" stroke-width="2.5" d="M32.7 45.3h-27c-1.9 0-3.4-1.6-3.4-3.5V6.9c0-1.9 1.5-3.5 3.4-3.5h39c1.9 0 3.4 1.6 3.4 3.5v28.5"/><g id="cryptography_2" data-name="cryptography 2"><g id="g_145" data-name="g 145"><g id="g_146" data-name="g 146"><g id="g_147" data-name="g 147"><g id="g_148" data-name="g 148"><path id="path_139" d="M28.5 22.1v-1.9c0-1.8-1.5-3.2-3.2-3.2-1.8 0-3.2 1.5-3.2 3.2v1.9h6.5z" class="cls-4" data-name="path 139"/></g><path id="path_140" d="M30.7 30.3h-11v-8.1h11v8.1z" class="cls-4" data-name="path 140"/><g id="g_149" data-name="g 149"><path id="path_141" d="M25.2 25.1v2.3" class="cls-3" data-name="path 141"/></g><g id="g_150" data-name="g 150"><path id="path_142" d="M36.8 24.3c0 6.4-5.2 11.6-11.6 11.6s-11.6-5.2-11.6-11.6 5.2-11.6 11.6-11.6 11.6 5.2 11.6 11.6z" class="cls-4" data-name="path 142"/></g><g id="g_151" data-name="g 151"><path id="path_143" d="M17.1 16.1l-4.7-4.7" class="cls-4" data-name="path 143"/></g><g id="g_152" data-name="g 152"><path id="path_144" d="M21 13.5L17.5 10V7.3" class="cls-3" data-name="path 144"/></g><g id="g_153" data-name="g 153"><path id="path_145" d="M14.5 20.1L11 16.6H8.3" class="cls-3" data-name="path 145"/></g><g id="g_154" data-name="g 154"><path id="path_146" d="M8.4 7.5c1.1-1.1 2.9-1.1 4 0s1.1 2.9 0 4-2.9 1.1-4 0-1.1-2.9 0-4z" class="cls-4" data-name="path 146"/></g><g id="g_155" data-name="g 155"><path id="path_147" d="M33.4 32.5l4.7 4.7" class="cls-4" data-name="path 147"/></g><g id="g_156" data-name="g 156"><path id="path_148" d="M29.5 35.1l3.5 3.5v2.7" class="cls-3" data-name="path 148"/></g><g id="g_157" data-name="g 157"><path id="path_149" d="M36 28.6l3.5 3.5h2.7" class="cls-3" data-name="path 149"/></g><g id="g_158" data-name="g 158"><path id="path_150" d="M42.1 41.1c-1.1 1.1-2.9 1.1-4 0s-1.1-2.9 0-4 2.9-1.1 4 0 1.1 2.9 0 4z" class="cls-4" data-name="path 150"/></g><g id="g_159" data-name="g 159"><path id="path_151" d="M17.1 32.5l-4.7 4.7" class="cls-4" data-name="path 151"/></g><g id="g_160" data-name="g 160"><path id="path_152" d="M14.5 28.6L11 32.1H8.3" class="cls-3" data-name="path 152"/></g><g id="g_161" data-name="g 161"><path id="path_153" d="M21 35.1l-3.5 3.5v2.7" class="cls-3" data-name="path 153"/></g><g id="g_162" data-name="g 162"><path id="path_154" d="M8.4 41.1c-1.1-1.1-1.1-2.9 0-4s2.9-1.1 4 0 1.1 2.9 0 4-2.9 1.1-4 0z" class="cls-4" data-name="path 154"/></g><g id="g_163" data-name="g 163"><path id="path_155" d="M33.4 16.1l4.7-4.7" class="cls-4" data-name="path 155"/></g><g id="g_164" data-name="g 164"><path id="path_156" d="M36 20.1l3.5-3.5h2.7" class="cls-3" data-name="path 156"/></g><g id="g_165" data-name="g 165"><path id="path_157" d="M29.5 13.5L33 10V7.3" class="cls-3" data-name="path 157"/></g><g id="g_166" data-name="g 166"><path id="path_158" d="M42.1 7.5c1.1 1.1 1.1 2.9 0 4s-2.9 1.1-4 0-1.1-2.9 0-4 2.9-1.1 4 0z" class="cls-4" data-name="path 158"/></g><g id="g_167" data-name="g 167"><path id="path_159" d="M25.2 12.7V4" class="cls-4" data-name="path 159"/></g><g id="g_168" data-name="g 168"><path id="path_160" d="M25.2 45.1v-9.2" class="cls-4" data-name="path 160"/></g><g id="g_169" data-name="g 169"><path id="path_161" d="M36.8 24.3h11.3" class="cls-4" data-name="path 161"/></g><g id="g_170" data-name="g 170"><path id="path_162" d="M2.7 24.3h10.9" class="cls-4" data-name="path 162"/></g></g></g></g></g></svg>