<?xml version="1.0" encoding="utf-8"?>
<!-- Generator: Adobe Illustrator 28.2.0, SVG Export Plug-In . SVG Version: 6.00 Build 0)  -->
<svg version="1.1" id="Layer_1" xmlns="http://www.w3.org/2000/svg" xmlns:xlink="http://www.w3.org/1999/xlink" x="0px" y="0px"
	 viewBox="0 0 50 50" style="enable-background:new 0 0 50 50;" xml:space="preserve">
<style type="text/css">
	.st0{fill:#D1BD00;}
	.st1{fill:#F9F941;}
	.st2{fill:none;stroke:#444444;stroke-width:2.5;stroke-linecap:round;stroke-linejoin:round;stroke-miterlimit:10;}
	.st3{fill:none;stroke:#444444;stroke-width:0.5;stroke-linecap:round;stroke-linejoin:round;stroke-miterlimit:10;}
	.st4{fill:none;stroke:#444444;stroke-linecap:round;stroke-linejoin:round;stroke-miterlimit:10;}
	.st5{fill:#444444;stroke:#444444;stroke-width:0.5;stroke-linecap:round;stroke-linejoin:round;stroke-miterlimit:10;}
	.st6{fill:#444444;}
</style>
<g>
	<polygon class="st0" points="26.4,21.9 34.2,24.3 27.5,29.1 27.6,37.3 21,32.4 13.3,35 15.9,27.2 11,20.7 19.2,20.8 23.9,14.1 	"/>
	<g>
		<g>
			<g>
				<path class="st1" d="M5.3,32.7l-3.7,7.8c0,5,5.4,3.7,19.7,3.2l25.2-8.9l-0.2-21.8l-1.1-2c-0.2-0.9-1.5-1.4-2.5-1.4L7.8,10
					c-1.1,0-3,2.4-3,3.5v11.9"/>
				<path class="st2" d="M48.7,39l-2.5-5.6V14.1c0-2.1-1.7-3.8-3.8-3.8H8.8C6.7,10.3,5,12,5,14.1v19.2l-3.3,7
					C0.8,42,2.1,44.1,4,44.1h34.8"/>
				<line class="st3" x1="7.4" y1="35.4" x2="43.4" y2="35.4"/>
				<line class="st3" x1="27.3" y1="41.4" x2="23.5" y2="41.4"/>
				<line class="st4" x1="4.8" y1="33.3" x2="46" y2="33.3"/>
				<polygon class="st5" points="44.6,39.5 6.2,39.5 7.3,37.3 43.4,37.3 				"/>
			</g>
			<g>
				<line class="st3" x1="6.1" y1="15.4" x2="45.3" y2="15.4"/>
				<circle class="st6" cx="13.3" cy="13.7" r="0.7"/>
				<circle class="st6" cx="10.8" cy="13.7" r="0.7"/>
				<circle class="st6" cx="8.3" cy="13.7" r="0.7"/>
			</g>
		</g>
		<g>
			<path class="st6" d="M16.9,23.9c0.9,0,1-0.5,1-0.9c0-0.3,0-0.7-0.1-1s-0.1-0.7-0.1-1c0-1.1,0.7-1.6,1.7-1.6h0.3v0.7h-0.2
				c-0.7,0-0.9,0.4-0.9,1c0,0.3,0,0.6,0.1,0.9c0,0.3,0.1,0.6,0.1,0.9c0,0.8-0.3,1.2-0.9,1.3v0c0.5,0.1,0.9,0.5,0.9,1.3
				c0,0.3,0,0.6-0.1,0.9c0,0.3-0.1,0.6-0.1,0.9c0,0.7,0.3,1,0.9,1h0.2V29h-0.3c-1,0-1.7-0.4-1.7-1.6c0-0.3,0-0.7,0.1-1
				s0.1-0.6,0.1-1c0-0.4-0.1-0.9-1-0.9V23.9z"/>
			<path class="st6" d="M33.3,24.5c-0.9,0-1,0.5-1,0.9c0,0.3,0,0.6,0.1,1s0.1,0.7,0.1,1c0,1.2-0.8,1.6-1.7,1.6h-0.3v-0.7h0.2
				c0.7,0,1-0.4,1-1c0-0.3,0-0.6-0.1-0.9c0-0.3-0.1-0.6-0.1-0.9c0-0.8,0.3-1.2,0.9-1.3v0c-0.5-0.1-0.9-0.5-0.9-1.3
				c0-0.3,0-0.6,0.1-0.9c0-0.3,0.1-0.6,0.1-0.9c0-0.6-0.3-1-0.9-1h-0.2v-0.7h0.2c1,0,1.8,0.5,1.8,1.6c0,0.3,0,0.7-0.1,1
				s-0.1,0.7-0.1,1c0,0.4,0.1,0.9,1,0.9V24.5z"/>
		</g>
	</g>
</g>
</svg>
