<svg xmlns="http://www.w3.org/2000/svg" version="1" viewBox="0 0 50 50"><path fill="#A6C1C2" d="M14.653 36.118l29.752-10.83.105-.127a.252.252 0 000-.318L25.535 1.615a.478.478 0 00-.735-.004L5.495 24.726a.253.253 0 000 .323l9.158 11.07z"/><path fill="#B9D7D9" d="M32.816 10.377l-7.158-8.76a.478.478 0 00-.735-.005l-13.966 16.72 21.86-7.955z"/><path fill="#031326" d="M45.46 24.065L26.485.84a1.688 1.688 0 00-1.03-.593c-.035-.01-.064-.035-.103-.042a.96.96 0 00-.478.04 1.69 1.69 0 00-1.015.58L4.554 23.94a1.48 1.48 0 00-.005 1.892l19.41 23.464c.3.36.74.568 1.21.568h.005a1.56 1.56 0 001.21-.575l.548-.67a1.228 1.228 0 00-.173-1.727 1.217 1.217 0 00-1.363-.108l-5.07-12.46 20.943-7.136-8.194 10.03a1.227 1.227 0 001.9 1.553L45.46 25.935a1.484 1.484 0 000-1.87zm-2.722.547l-22.434 7.644 5.38-28.518L42.74 24.612zM18.334 32.11L7.032 24.797 23.414 5.186l-5.08 26.923zm-.1 2.274l3.312 8.142-10.68-12.908 7.368 4.766z"/></svg>