<svg xmlns="http://www.w3.org/2000/svg" id="Layer_1" x="0" y="0" version="1.1" viewBox="0 0 300 300" xml:space="preserve"><style>.st3{fill:#ff8da4}.st6{fill:#f96464}.st7{fill:#ffd200}</style><path id="Camada_10_00000014628015512118360760000001220014696486580658_" fill="#008dd3" d="M286.3 145.8c.1 20.8-4.3 40.5-12.2 58.4-22.1 49.9-71.9 84.7-130 84.9-15.4.1-30.3-2.4-44.2-6.8-26.2-8.4-49.1-24.1-66.1-44.9C16 216.1 4.4 189.2 1.5 159.9c-.4-4.2-.6-8.6-.6-12.9C.7 98.6 24.7 55.6 61.6 29.7c4.8-3.5 9.9-6.5 15.1-9.2 7.3-4 15.1-7.1 23.1-9.9 7.5-2.4 15.4-4.2 23.5-5.5 6.5-.8 13.1-1.4 19.8-1.5 26.2-.1 50.8 6.9 72.1 19.2 3.9 2.2 7.4 4.5 11 7.1 17 12.1 31.2 27.8 41.6 46 1.2 2.1 2.3 4.1 3.4 6.3.8 1.9 1.8 3.7 2.6 5.6 2.7 6.1 5 12.3 6.9 18.7 2.1 7.1 3.7 14.6 4.5 22 .7 5.7 1.1 11.5 1.1 17.3z"/><path fill="#973dc1" d="M233.4 272.7c6.3 0 10.6-5.2 9.5-11.5L207.6 60.9c-1.1-6.3-7.2-11.5-13.5-11.5H90.8c-6.3 0-10.6 5.2-9.5 11.5l35.3 200.3c1.1 6.3 7.2 11.5 13.5 11.5h103.3z"/><path fill="#c75eeb" d="M236.1 265.6c6.3 0 10.6-5.2 9.5-11.5L210.3 53.8c-1.1-6.3-7.2-11.5-13.5-11.5H93.5c-6.3 0-10.6 5.2-9.5 11.5l35.3 200.3c1.1 6.3 7.2 11.5 13.5 11.5h103.3z"/><path d="M240.8 254.1L205.4 53.8c-.6-3.7-4.1-6.6-7.8-6.6H94.4c-3.7 0-6.1 3-5.5 6.6l35.3 200.3c.6 3.7 4.1 6.6 7.8 6.6h103.3c3.7 0 6.1-2.9 5.5-6.6z" class="st3"/><path fill="#fff" d="M245.3 233.4c1 0 1.6-.8 1.5-1.8L211.5 31.3c-.2-1-1.1-1.8-2.1-1.8H106.1c-1 0-1.6.8-1.5 1.8l35.3 200.3c.2 1 1.1 1.8 2.1 1.8h103.3z"/><path fill="#f14e70" d="M132.3 61.4v-1.6c0-.4.1-.8.1-1.2v-.1c0-.1 0-.2.1-.3V58c0-.1 0-.2.1-.3 0-.1 0-.1.1-.2 0-.1.1-.2.1-.2 0-.1.1-.2.1-.3 0-.1.1-.1.1-.2.1-.1.1-.3.2-.4 0 0 0-.1.1-.1.1-.1.1-.2.2-.3 0 0 0-.1.1-.1.1-.1.1-.2.2-.3 0 0 0-.1.1-.1.1-.1.2-.2.2-.3v-.1c1.5-1.9 3.8-3 6.6-3h96.5c5.5 0 10.8 4.5 11.8 10 .5 2.6-.1 5-1.4 6.8-.1.1-.2.3-.3.4l-.1.1c-.1.1-.2.2-.2.3l-.1.1-.2.2-.1.1c-.1.1-.2.2-.3.2l-.1.1c-.1.1-.3.2-.4.3-.1 0-.1.1-.2.1-.1.1-.2.1-.2.1-.1 0-.1.1-.2.1s-.1.1-.2.1-.2.1-.2.1c-.1 0-.1.1-.2.1s-.2.1-.3.1c-.1 0-.1 0-.2.1-.2.1-.4.1-.6.2h-.2c-.1 0-.2.1-.3.1h-.2c-.1 0-.2 0-.3.1h-98.1c-2.8 0-5.5-1.1-7.6-2.9-2.1-1.8-3.7-4.3-4.2-7.1-.3-.1-.3-.3-.3-.5zM161 180.8v-.6c0-.1 0-.3.1-.4v-.1c0-.1.1-.3.1-.4v-.1c.1-.2.1-.3.2-.4v-.1c.1-.1.1-.2.2-.4 0 0 0-.1.1-.1.1-.1.2-.2.3-.4.1-.1.2-.2.3-.4l.1-.1c.1-.1.2-.2.3-.2l.1-.1c.1-.1.2-.2.3-.2h.1c.1-.1.2-.1.3-.2.7-.3 1.5-.5 2.3-.5h36.3c3.2 0 6.3 2.6 6.9 5.8l6.4 36.3c.2.9.1 1.7-.1 2.4 0 .1-.1.3-.1.4-.1.1-.1.3-.2.4 0 0 0 .1-.1.1-.1.1-.1.2-.2.3 0 0 0 .1-.1.1-.1.1-.2.2-.3.4l-.1.1-.3.3-.1.1c-.1.1-.2.2-.3.2 0 0-.1 0-.1.1-.1.1-.2.2-.4.3 0 0-.1 0-.1.1-.1.1-.2.1-.3.2 0 0-.1 0-.1.1-.1.1-.3.1-.4.2h-.1c-.2.1-.3.1-.5.1h-.1c-.1 0-.3 0-.4.1h-37c-3.2 0-6.3-2.6-6.9-5.8l-6.4-36.3v-.1c0-.1 0-.3-.1-.4V181c.4-.1.4-.1.4-.2zm130.2-17.4l-.6.3s-.1 0-.1.1c-.1.1-.3.1-.4.2 0 0-.1 0-.1.1-.2.1-.4.1-.5.2h-.1c-.1 0-.3.1-.4.1h-.2c-.2 0-.4.1-.6.1h-.1c-.2 0-.3 0-.5.1H186.1c-.5 0-1 0-1.5-.1-.1 0-.3 0-.4-.1h-.1c-1-.2-1.9-.5-2.8-1-.1 0-.1-.1-.2-.1-2-1.1-3.8-2.7-5-4.7-.7-1.2-1.2-2.5-1.4-3.8L163.6 93c0-.2-.1-.5-.1-.7v-1.6c0-.2 0-.4.1-.6V90c0-.2.1-.4.1-.6v-.1c0-.2.1-.4.2-.6v-.1c.1-.2.1-.4.2-.6v-.1c.1-.2.2-.3.2-.5 0 0 0-.1.1-.1.1-.2.2-.3.3-.5 0 0 0-.1.1-.1.1-.1.2-.3.3-.4l.1-.1c.1-.1.2-.3.4-.4l.1-.1c.1-.1.3-.2.4-.4l.1-.1c.2-.1.3-.3.5-.4l.1-.1c.2-.1.3-.2.5-.3l.6-.3h.1l.6-.3c1-.4 2-.6 3.2-.6h100.6c5.4 0 10.6 4.4 11.5 9.8l10.9 61.9c.3 1.7.1 3.4-.4 4.8-.1.2-.1.4-.2.5-.1.2-.2.4-.3.5-.1.2-.2.3-.3.5l-.1.1c-.1.2-.2.3-.4.5-.1.1-.2.3-.4.4l-.1.1c-.3.3-.5.5-.8.7l-.1.1c-.2.1-.3.2-.5.3z"/><path d="M148 68.1h96.5c5.5 0 9.2-4.5 8.2-10s-6.2-10-11.8-10h-96.5c-5.5 0-9.2 4.5-8.2 10s6.3 10 11.8 10z" class="st3"/><path d="M136.2 58.1c.5 2.8 2 5.3 4.2 7.1 2.1 1.8 4.8 2.9 7.6 2.9h96.5c3.3 0 6-1.6 7.4-4.1-1.4 1.2-3.3 1.9-5.5 1.9h-96.5c-2.8 0-5.5-1.1-7.6-2.9-2.1-1.8-3.7-4.3-4.2-7.1-.4-2.2 0-4.2.9-5.9-2.2 1.8-3.4 4.7-2.8 8.1z" class="st6"/><path d="M178.2 220.3h36.3c3.2 0 5.4-2.6 4.8-5.8l-6.4-36.3c-.6-3.2-3.6-5.8-6.9-5.8h-36.3c-3.2 0-5.4 2.6-4.8 5.8l6.4 36.3c.6 3.2 3.7 5.8 6.9 5.8z" class="st3"/><path d="M164.9 178.2l6.4 36.3c.6 3.2 3.6 5.8 6.9 5.8h36.3c2.4 0 4.2-1.4 4.7-3.4-.7.3-1.5.5-2.3.5h-36.3c-3.2 0-6.3-2.6-6.9-5.8l-6.4-36.3c-.2-.9-.1-1.7.1-2.4-1.8.9-2.9 2.9-2.5 5.3z" class="st6"/><path d="M190 160.9h100.7c5.4 0 9-4.4 8.1-9.8l-10.9-62c-1-5.4-6.1-9.8-11.5-9.8H175.6c-5.4 0-9 4.4-8.1 9.8l10.9 62c1 5.4 6.1 9.8 11.6 9.8z" class="st3"/><path d="M167.7 89.1l10.9 61.9c1 5.4 6.1 9.8 11.5 9.8h100.6c3.9 0 6.9-2.3 7.9-5.6-1 .4-2 .6-3.2.6H194.8c-5.4 0-10.6-4.4-11.5-9.8l-10.9-61.9c-.3-1.5-.2-2.9.2-4.2-3.6 1.3-5.7 4.9-4.9 9.2z" class="st6"/><path d="M282.6 126.1l-5.4-30.4c-.4-2.6-2.9-4.6-5.4-4.6h-87.6c-1.2 0-2.2.4-2.9 1.2-.8.8-1.2 2.1-.9 3.4l5.4 30.4c.4 2.6 2.9 4.6 5.4 4.6h87.6c2.6.1 4.3-2 3.8-4.6z" class="st7"/><ellipse cx="204.9" cy="137.7" class="st7" rx="2.4" ry="2.9" transform="rotate(-47.521 204.907 137.674)"/><ellipse cx="195.3" cy="137.7" class="st7" rx="2.4" ry="2.9" transform="rotate(-47.521 195.332 137.673)"/><g id="paw_print-foot_print_3_"><path id="XMLID_00000011021281044811896790000013605338005487640220_" d="M205.4 189.2c2 .6 3.3 3.5 2.9 6.3-.3 2.8-2.2 4.5-4.1 3.9-2-.6-3.3-3.4-3-6.2.4-2.9 2.3-4.6 4.2-4zm-9-12.4c2.3.5 4.2 3.9 4.1 7.5-.1 3.5-2 6-4.3 5.4-2.3-.5-4.2-3.8-4.1-7.4 0-3.6 2-6.1 4.3-5.5zm-7.8 5.5c1.2 3.6.5 6.9-1.7 7.5-2.1.6-4.9-1.8-6.1-5.3-1.3-3.6-.5-7 1.6-7.6 2.2-.6 5 1.9 6.2 5.4zm-5.6 11.1c1.2 2.8.8 5.6-.9 6.3-1.7.7-4.2-1-5.4-3.8-1.3-2.8-.9-5.7.9-6.4 1.7-.6 4.1 1.1 5.4 3.9zm20 9.5c1.8 1.8 2.1 3.4 2.2 4.3.5 3-1.3 5.4-4 5.4-1.3 0-5.1-1-6.1-1s-4.4 1.2-5.7 1.2c-2.7 0-5.3-2.3-5.8-5.3-.2-.9-.5-2.6.8-4.4l4-7c.8-1.5 2.2-2.3 3.8-2.3 1.6 0 3.3.8 4.5 2.2l6.3 6.9z" class="st7"/></g></svg>