<?xml version="1.0" encoding="utf-8"?>
<!-- Generator: Adobe Illustrator 28.0.0, SVG Export Plug-In . SVG Version: 6.00 Build 0)  -->
<svg version="1.1" id="Layer_1" xmlns="http://www.w3.org/2000/svg" xmlns:xlink="http://www.w3.org/1999/xlink" x="0px" y="0px"
	 viewBox="0 0 300 300" style="enable-background:new 0 0 300 300;" xml:space="preserve">
<style type="text/css">
	.st0{fill:#008DD3;}
	.st1{fill:#973DC1;}
	.st2{fill:#C75EEB;}
	.st3{fill:#FF8DA4;}
	.st4{fill:#FFFFFF;}
	.st5{fill:#F14E70;}
	.st6{fill:#F96464;}
	.st7{fill:#FFD200;}
</style>
<g>
	<g>
		<g>
			<g>
				<g id="Camada_10_00000014628015512118360760000001220014696486580658_">
					<path class="st0" d="M286.3,145.8c0.1,20.8-4.3,40.5-12.2,58.4c-22.1,49.9-71.9,84.7-130,84.9c-15.4,0.1-30.3-2.4-44.2-6.8
						c-26.2-8.4-49.1-24.1-66.1-44.9C16,216.1,4.4,189.2,1.5,159.9c-0.4-4.2-0.6-8.6-0.6-12.9C0.7,98.6,24.7,55.6,61.6,29.7
						c4.8-3.5,9.9-6.5,15.1-9.2c7.3-4,15.1-7.1,23.1-9.9c7.5-2.4,15.4-4.2,23.5-5.5c6.5-0.8,13.1-1.4,19.8-1.5
						c26.2-0.1,50.8,6.9,72.1,19.2c3.9,2.2,7.4,4.5,11,7.1c17,12.1,31.2,27.8,41.6,46c1.2,2.1,2.3,4.1,3.4,6.3
						c0.8,1.9,1.8,3.7,2.6,5.6c2.7,6.1,5,12.3,6.9,18.7c2.1,7.1,3.7,14.6,4.5,22l0,0C285.9,134.2,286.3,140,286.3,145.8z"/>
				</g>
			</g>
		</g>
	</g>
</g>
<path class="st1" d="M233.4,272.7c6.3,0,10.6-5.2,9.5-11.5L207.6,60.9c-1.1-6.3-7.2-11.5-13.5-11.5H90.8c-6.3,0-10.6,5.2-9.5,11.5
	l35.3,200.3c1.1,6.3,7.2,11.5,13.5,11.5H233.4z"/>
<path class="st2" d="M236.1,265.6c6.3,0,10.6-5.2,9.5-11.5L210.3,53.8c-1.1-6.3-7.2-11.5-13.5-11.5H93.5c-6.3,0-10.6,5.2-9.5,11.5
	l35.3,200.3c1.1,6.3,7.2,11.5,13.5,11.5H236.1z"/>
<path class="st3" d="M240.8,254.1L205.4,53.8c-0.6-3.7-4.1-6.6-7.8-6.6H94.4c-3.7,0-6.1,3-5.5,6.6l35.3,200.3
	c0.6,3.7,4.1,6.6,7.8,6.6h103.3C239,260.7,241.4,257.8,240.8,254.1z"/>
<path class="st4" d="M245.3,233.4c1,0,1.6-0.8,1.5-1.8L211.5,31.3c-0.2-1-1.1-1.8-2.1-1.8H106.1c-1,0-1.6,0.8-1.5,1.8l35.3,200.3
	c0.2,1,1.1,1.8,2.1,1.8H245.3z"/>
<path class="st5" d="M132.3,61.4C132.3,61.4,132.3,61.4,132.3,61.4c0-0.1,0-0.3,0-0.4c0,0,0-0.1,0-0.1c0-0.1,0-0.3,0-0.4
	c0-0.1,0-0.1,0-0.2c0-0.1,0-0.2,0-0.4c0,0,0-0.1,0-0.1c0-0.4,0.1-0.8,0.1-1.2c0,0,0-0.1,0-0.1c0-0.1,0-0.2,0.1-0.3
	c0-0.1,0-0.1,0-0.2c0-0.1,0-0.2,0.1-0.3c0-0.1,0-0.1,0.1-0.2c0-0.1,0.1-0.2,0.1-0.2c0-0.1,0.1-0.2,0.1-0.3c0-0.1,0.1-0.1,0.1-0.2
	c0.1-0.1,0.1-0.3,0.2-0.4c0,0,0-0.1,0.1-0.1c0.1-0.1,0.1-0.2,0.2-0.3c0,0,0-0.1,0.1-0.1c0.1-0.1,0.1-0.2,0.2-0.3c0,0,0-0.1,0.1-0.1
	c0.1-0.1,0.2-0.2,0.2-0.3c0,0,0,0,0-0.1c1.5-1.9,3.8-3,6.6-3h96.5c5.5,0,10.8,4.5,11.8,10l0,0c0.5,2.6-0.1,5-1.4,6.8c0,0,0,0,0,0
	c-0.1,0.1-0.2,0.3-0.3,0.4c0,0-0.1,0.1-0.1,0.1c-0.1,0.1-0.2,0.2-0.2,0.3c0,0-0.1,0.1-0.1,0.1c-0.1,0.1-0.2,0.2-0.2,0.2
	c0,0-0.1,0.1-0.1,0.1c-0.1,0.1-0.2,0.2-0.3,0.2c0,0-0.1,0.1-0.1,0.1c-0.1,0.1-0.3,0.2-0.4,0.3c-0.1,0-0.1,0.1-0.2,0.1
	c-0.1,0.1-0.2,0.1-0.2,0.1c-0.1,0-0.1,0.1-0.2,0.1c-0.1,0-0.1,0.1-0.2,0.1c-0.1,0-0.2,0.1-0.2,0.1c-0.1,0-0.1,0.1-0.2,0.1
	c-0.1,0-0.2,0.1-0.3,0.1c-0.1,0-0.1,0-0.2,0.1c-0.2,0.1-0.4,0.1-0.6,0.2c-0.1,0-0.1,0-0.2,0c-0.1,0-0.2,0.1-0.3,0.1
	c-0.1,0-0.1,0-0.2,0c-0.1,0-0.2,0-0.3,0.1c-0.1,0-0.1,0-0.2,0c-0.1,0-0.2,0-0.3,0c-0.1,0-0.1,0-0.2,0c-0.1,0-0.2,0-0.4,0
	c0,0,0,0-0.1,0c-0.1,0-0.3,0-0.4,0h-96.5c-2.8,0-5.5-1.1-7.6-2.9c-2.1-1.8-3.7-4.3-4.2-7.1C132.3,61.8,132.3,61.6,132.3,61.4z"/>
<path class="st5" d="M161,180.8c0-0.2,0-0.3,0-0.5c0,0,0-0.1,0-0.1c0-0.1,0-0.3,0.1-0.4c0,0,0-0.1,0-0.1c0-0.1,0.1-0.3,0.1-0.4
	c0,0,0-0.1,0-0.1c0.1-0.2,0.1-0.3,0.2-0.4c0,0,0,0,0-0.1c0.1-0.1,0.1-0.2,0.2-0.4c0,0,0-0.1,0.1-0.1c0.1-0.1,0.2-0.2,0.3-0.4
	c0,0,0,0,0,0c0.1-0.1,0.2-0.2,0.3-0.4c0,0,0,0,0.1-0.1c0.1-0.1,0.2-0.2,0.3-0.2c0,0,0.1-0.1,0.1-0.1c0.1-0.1,0.2-0.2,0.3-0.2
	c0,0,0,0,0.1,0c0.1-0.1,0.2-0.1,0.3-0.2c0,0,0,0,0,0c0.7-0.3,1.5-0.5,2.3-0.5h36.3c3.2,0,6.3,2.6,6.9,5.8l6.4,36.3
	c0.2,0.9,0.1,1.7-0.1,2.4c0,0,0,0,0,0c0,0.1-0.1,0.3-0.1,0.4c0,0,0,0,0,0c-0.1,0.1-0.1,0.3-0.2,0.4c0,0,0,0.1-0.1,0.1
	c-0.1,0.1-0.1,0.2-0.2,0.3c0,0,0,0.1-0.1,0.1c-0.1,0.1-0.2,0.2-0.3,0.4c0,0,0,0-0.1,0.1c-0.1,0.1-0.2,0.2-0.3,0.3
	c0,0-0.1,0.1-0.1,0.1c-0.1,0.1-0.2,0.2-0.3,0.2c0,0-0.1,0-0.1,0.1c-0.1,0.1-0.2,0.2-0.4,0.3c0,0-0.1,0-0.1,0.1
	c-0.1,0.1-0.2,0.1-0.3,0.2c0,0-0.1,0-0.1,0.1c-0.1,0.1-0.3,0.1-0.4,0.2c0,0,0,0-0.1,0c-0.2,0.1-0.3,0.1-0.5,0.1c0,0-0.1,0-0.1,0
	c-0.1,0-0.3,0-0.4,0.1c-0.1,0-0.1,0-0.2,0c-0.2,0-0.3,0-0.5,0c0,0,0,0,0,0h-36.3c-3.2,0-6.3-2.6-6.9-5.8l-6.4-36.3c0,0,0-0.1,0-0.1
	c0-0.1,0-0.3-0.1-0.4c0-0.1,0-0.1,0-0.2c0-0.1,0-0.2,0-0.4C161,180.9,161,180.9,161,180.8z"/>
<path class="st5" d="M291.2,163.4C291.2,163.4,291.2,163.4,291.2,163.4c-0.2,0.1-0.4,0.2-0.6,0.3c0,0-0.1,0-0.1,0.1
	c-0.1,0.1-0.3,0.1-0.4,0.2c0,0-0.1,0-0.1,0.1c-0.2,0.1-0.4,0.1-0.5,0.2c0,0-0.1,0-0.1,0c-0.1,0-0.3,0.1-0.4,0.1c-0.1,0-0.1,0-0.2,0
	c-0.2,0-0.4,0.1-0.6,0.1c0,0-0.1,0-0.1,0c-0.2,0-0.3,0-0.5,0.1c-0.1,0-0.1,0-0.2,0c-0.2,0-0.4,0-0.6,0c0,0,0,0,0,0H186.1
	c-0.5,0-1,0-1.5-0.1c-0.1,0-0.3,0-0.4-0.1c0,0,0,0-0.1,0c-1-0.2-1.9-0.5-2.8-1c0,0,0,0,0,0c-0.1,0-0.1-0.1-0.2-0.1
	c-2-1.1-3.8-2.7-5-4.7c-0.7-1.2-1.2-2.5-1.4-3.8L163.6,93c0-0.2-0.1-0.5-0.1-0.7c0,0,0-0.1,0-0.1c0-0.2,0-0.5,0-0.7c0,0,0-0.1,0-0.1
	c0-0.2,0-0.4,0-0.6c0,0,0-0.1,0-0.1c0-0.2,0-0.4,0.1-0.6c0,0,0-0.1,0-0.1c0-0.2,0.1-0.4,0.1-0.6c0,0,0-0.1,0-0.1
	c0-0.2,0.1-0.4,0.2-0.6c0,0,0-0.1,0-0.1c0.1-0.2,0.1-0.4,0.2-0.6c0,0,0,0,0-0.1c0.1-0.2,0.2-0.3,0.2-0.5c0,0,0-0.1,0.1-0.1
	c0.1-0.2,0.2-0.3,0.3-0.5c0,0,0-0.1,0.1-0.1c0.1-0.1,0.2-0.3,0.3-0.4c0,0,0.1-0.1,0.1-0.1c0.1-0.1,0.2-0.3,0.4-0.4
	c0,0,0.1-0.1,0.1-0.1c0.1-0.1,0.3-0.2,0.4-0.4c0,0,0,0,0.1-0.1c0.2-0.1,0.3-0.3,0.5-0.4c0,0,0.1-0.1,0.1-0.1
	c0.2-0.1,0.3-0.2,0.5-0.3c0,0,0,0,0,0c0.2-0.1,0.4-0.2,0.6-0.3c0,0,0,0,0.1,0c0.2-0.1,0.4-0.2,0.6-0.3c0,0,0,0,0,0v0
	c1-0.4,2-0.6,3.2-0.6h100.6c5.4,0,10.6,4.4,11.5,9.8l10.9,61.9c0.3,1.7,0.1,3.4-0.4,4.8c0,0,0,0,0,0c-0.1,0.2-0.1,0.4-0.2,0.5
	c0,0,0,0,0,0c-0.1,0.2-0.2,0.4-0.3,0.5c0,0,0,0,0,0c-0.1,0.2-0.2,0.3-0.3,0.5c0,0,0,0-0.1,0.1c-0.1,0.2-0.2,0.3-0.4,0.5c0,0,0,0,0,0
	c-0.1,0.1-0.2,0.3-0.4,0.4c0,0-0.1,0.1-0.1,0.1c-0.3,0.3-0.5,0.5-0.8,0.7c0,0-0.1,0.1-0.1,0.1C291.5,163.2,291.4,163.3,291.2,163.4z
	"/>
<path class="st3" d="M148,68.1h96.5c5.5,0,9.2-4.5,8.2-10v0c-1-5.5-6.2-10-11.8-10h-96.5c-5.5,0-9.2,4.5-8.2,10v0
	C137.2,63.6,142.5,68.1,148,68.1z"/>
<path class="st6" d="M136.2,58.1c0.5,2.8,2,5.3,4.2,7.1c2.1,1.8,4.8,2.9,7.6,2.9h96.5c3.3,0,6-1.6,7.4-4.1c-1.4,1.2-3.3,1.9-5.5,1.9
	h-96.5c-2.8,0-5.5-1.1-7.6-2.9c-2.1-1.8-3.7-4.3-4.2-7.1c-0.4-2.2,0-4.2,0.9-5.9C136.8,51.8,135.6,54.7,136.2,58.1z"/>
<path class="st3" d="M178.2,220.3h36.3c3.2,0,5.4-2.6,4.8-5.8l-6.4-36.3c-0.6-3.2-3.6-5.8-6.9-5.8h-36.3c-3.2,0-5.4,2.6-4.8,5.8
	l6.4,36.3C171.9,217.7,175,220.3,178.2,220.3z"/>
<path class="st6" d="M164.9,178.2l6.4,36.3c0.6,3.2,3.6,5.8,6.9,5.8h36.3c2.4,0,4.2-1.4,4.7-3.4c-0.7,0.3-1.5,0.5-2.3,0.5h-36.3
	c-3.2,0-6.3-2.6-6.9-5.8l-6.4-36.3c-0.2-0.9-0.1-1.7,0.1-2.4C165.6,173.8,164.5,175.8,164.9,178.2z"/>
<path class="st3" d="M190,160.9h100.7c5.4,0,9-4.4,8.1-9.8l-10.9-62c-1-5.4-6.1-9.8-11.5-9.8H175.6c-5.4,0-9,4.4-8.1,9.8l10.9,62
	C179.4,156.5,184.5,160.9,190,160.9z"/>
<path class="st6" d="M167.7,89.1l10.9,61.9c1,5.4,6.1,9.8,11.5,9.8h100.6c3.9,0,6.9-2.3,7.9-5.6c-1,0.4-2,0.6-3.2,0.6H194.8
	c-5.4,0-10.6-4.4-11.5-9.8l-10.9-61.9c-0.3-1.5-0.2-2.9,0.2-4.2C169,81.2,166.9,84.8,167.7,89.1z"/>
<path class="st7" d="M282.6,126.1l-5.4-30.4c-0.4-2.6-2.9-4.6-5.4-4.6h-87.6c-1.2,0-2.2,0.4-2.9,1.2c-0.8,0.8-1.2,2.1-0.9,3.4
	l5.4,30.4c0.4,2.6,2.9,4.6,5.4,4.6h87.6C281.4,130.8,283.1,128.7,282.6,126.1z"/>
<ellipse transform="matrix(0.6753 -0.7375 0.7375 0.6753 -35.0074 195.8173)" class="st7" cx="204.9" cy="137.7" rx="2.4" ry="2.9"/>
<ellipse transform="matrix(0.6753 -0.7375 0.7375 0.6753 -38.1159 188.7558)" class="st7" cx="195.3" cy="137.7" rx="2.4" ry="2.9"/>
<g id="paw_print-foot_print_3_">
	<g id="XMLID_00000011021281044811896790000013605338005487640220_">
		<g>
			<path class="st7" d="M205.4,189.2c2,0.6,3.3,3.5,2.9,6.3c-0.3,2.8-2.2,4.5-4.1,3.9c-2-0.6-3.3-3.4-3-6.2
				C201.6,190.3,203.5,188.6,205.4,189.2z"/>
			<path class="st7" d="M196.4,176.8c2.3,0.5,4.2,3.9,4.1,7.5c-0.1,3.5-2,6-4.3,5.4c-2.3-0.5-4.2-3.8-4.1-7.4
				C192.1,178.7,194.1,176.2,196.4,176.8z"/>
			<path class="st7" d="M188.6,182.3c1.2,3.6,0.5,6.9-1.7,7.5c-2.1,0.6-4.9-1.8-6.1-5.3c-1.3-3.6-0.5-7,1.6-7.6
				C184.6,176.3,187.4,178.8,188.6,182.3z"/>
			<path class="st7" d="M183,193.4c1.2,2.8,0.8,5.6-0.9,6.3c-1.7,0.7-4.2-1-5.4-3.8c-1.3-2.8-0.9-5.7,0.9-6.4
				C179.3,188.9,181.7,190.6,183,193.4z"/>
			<path class="st7" d="M203,202.9c1.8,1.8,2.1,3.4,2.2,4.3c0.5,3-1.3,5.4-4,5.4c-1.3,0-5.1-1-6.1-1c-1,0-4.4,1.2-5.7,1.2
				c-2.7,0-5.3-2.3-5.8-5.3c-0.2-0.9-0.5-2.6,0.8-4.4l4-7c0.8-1.5,2.2-2.3,3.8-2.3c1.6,0,3.3,0.8,4.5,2.2L203,202.9z"/>
		</g>
	</g>
</g>
</svg>
