<?xml version="1.0" encoding="utf-8"?>
<!-- Generator: Adobe Illustrator 22.0.1, SVG Export Plug-In . SVG Version: 6.00 Build 0)  -->
<svg version="1.1" id="Layer_1" xmlns="http://www.w3.org/2000/svg" xmlns:xlink="http://www.w3.org/1999/xlink" x="0px" y="0px"
	 viewBox="0 0 300 300" style="enable-background:new 0 0 300 300;" xml:space="preserve">
<style type="text/css">
	.st0{fill:#008DD3;}
	.st1{fill:#646666;}
	.st2{fill:#707070;}
	.st3{fill:#676767;}
	.st4{fill:#EAEAEA;}
	.st5{fill:#FAC900;}
	.st6{fill:#D3D3D3;}
	.st7{fill:#D8D8D8;}
	.st8{fill:#303435;}
	.st9{fill:#3B3E3F;}
	.st10{fill:#DBDBDB;}
	.st11{fill:#EABC00;}
	.st12{fill:#C6C6C6;}
	.st13{fill:#059BD6;}
</style>
<g>
	<g>
		<g>
			<path class="st0" d="M291.9,151.4c0,75.8-58.1,138-132.1,144.6c-2.6,0.2-5.2,0.4-7.9,0.5c-1.7,0.1-3.4,0.1-5.1,0.1
				c-0.6,0-1.1,0-1.7,0c-21.7-0.2-42.2-5.2-60.6-14c-9.1-4.3-17.7-9.6-25.6-15.6c-5.5-4.2-10.7-8.7-15.5-13.6
				C17.6,227,1.7,191.1,1.7,151.4c0-80.2,65-145.1,145.1-145.1C226.9,6.2,291.9,71.2,291.9,151.4z"/>
		</g>
	</g>
	<g>
		<polyline class="st1" points="179.7,196.8 152.5,182.4 144.8,197 146,200.9 168.2,212.6 172.1,211.4 179.7,196.8 		"/>
		<polyline class="st2" points="187.5,208.1 181.3,210 176.6,211.4 142.2,193.3 140.8,188.6 138.8,182.4 156.2,180.3 179.4,192.6 
			187.5,208.1 		"/>
		<polyline class="st3" points="179.4,192.6 156.2,180.3 138.8,182.4 140.8,188.6 155,186.9 174.6,197.3 181.3,210 187.5,208.1 
			179.4,192.6 		"/>
		<path class="st4" d="M298.2,181.6l-20.8,25.8l-4.1,5.1l-9.2,11.5c-1.1,1.3-2.7,2.2-4.4,2.4l-55.5,5.4c-2.6,0.3-5.1-1.1-6.3-3.4
			l-4.1-7.9l-2.3-4.4l-12.2-23.4l-23.2-12.2l-26.3,3.2l-4.8,0.6l-8.9,1.1c-2.6,0.3-5.1-1-6.4-3.3l-15.2-27.6l-11.7-21.2
			c-0.8-1.5-1-3.3-0.5-4.9l4.3-14.2l1.8-6L98,76.1c0.5-1.7,1.7-3.1,3.3-3.9c5.4-2.6,18.7-8.9,35.5-15.9c9.7-4,20.5-8.3,31.5-12.2
			c3-1.1,6-2.1,9.1-3.1c28.7-9.5,57.5-15.6,71.4-8.3c13.9,7.3,25.1,34.6,33.5,63.8c0.9,3.2,1.8,6.3,2.6,9.5
			c8.2,30.9,13.1,61.5,14.6,70.7C299.8,178.4,299.4,180.2,298.2,181.6"/>
		<path class="st5" d="M283.5,100.4c-10.3-11.5-31-33.3-48.1-42.3c-17-9-46.6-13.8-62-15.8c30-10.3,61-17.3,75.5-9.7
			C263.3,40.3,275,69.8,283.5,100.4z"/>
		<path class="st5" d="M275.4,210l-11.3,14c-1.1,1.3-2.7,2.2-4.4,2.4l-55.5,5.4c-2.6,0.3-5.1-1.1-6.3-3.4l-5.3-10.1l41.4-4.1
			L275.4,210"/>
		<path class="st5" d="M127.5,183.8l-11.3,1.4c-2.6,0.3-5.1-1-6.4-3.3l-26.9-48.8c-0.8-1.5-1-3.3-0.5-4.9l5.2-17.2l19.9,36.4
			L127.5,183.8"/>
		<polyline class="st6" points="129.9,183.5 125.1,184.1 86.7,114 88.5,107.9 129.9,183.5 		"/>
		<path class="st7" d="M180.8,161.8c-3.9-2-22.7-14-24.8-21c-0.6-2-1.3-4.4,6.5-25.1c3.5-9.1,8.4-20.9,11.5-26.9
			c7.2-13.7,38.8-25.7,54.5-17.5s23.6,41.1,16.3,54.8c-3.1,5.9-10.1,16.6-15.7,24.7c-12.6,18.2-14.9,18.9-17,19.6
			C205.1,172.6,184.6,163.9,180.8,161.8z"/>
		<path class="st8" d="M239.1,123.3c-5.4,10.2-25.7,40.1-28.9,41.1c-3.2,1-19.3-4.4-26.5-8.2c-7.2-3.8-20.7-14.1-21.7-17.2
			c-0.4-1.4,1.8-8.5,4.9-17c4.1-11,9.6-24.3,12.6-30.1c5.4-10.2,33-21.6,45.8-14.8c2.4,1.3,4.6,3.3,6.5,5.9
			C240.2,94.2,243.5,115,239.1,123.3z"/>
		<path class="st9" d="M169.6,123l-2.6-1c4.1-11,9.6-24.3,12.6-30.1c5.4-10.2,33-21.6,45.8-14.8c2.4,1.3,4.6,3.3,6.5,5.9l-13.6,22.9
			C208.4,122.7,187.8,129.9,169.6,123z"/>
		<path class="st6" d="M285,105.9l-3-4.3c-1.9-2-31.4-33.3-47.5-41.8c-16.7-8.8-45.6-13.5-61.4-15.6l-4.7-0.2c3-1.1,6-2.1,9.1-3.1
			c16.6,2.3,42.9,7.1,58.8,15.5c14.5,7.6,38.3,31.8,46.1,40C283.3,99.6,284.2,102.8,285,105.9z"/>
		<polyline class="st6" points="277.4,207.4 273.3,212.5 193.9,220.4 191.6,216 277.4,207.4 		"/>
		<path class="st6" d="M162.9,114.7L162.9,114.7l-37.3,1.1l-17,32.2l-2.3-1.2l17.7-33.5l39.9-1.1C163.5,113,163.2,113.9,162.9,114.7
			z"/>
		<path class="st6" d="M252.9,181.2l-17.7,33.5l-2.3-1.2l17-32.2L229.8,150c0.5-0.7,1-1.5,1.6-2.3L252.9,181.2z"/>
		<path class="st6" d="M100.4,96.1c-0.1-0.5,0.1-1,0.6-1.1l15.4-4.8c0.5-0.1,1,0.1,1.1,0.6c0.1,0.5-0.1,1-0.6,1.1l-15.4,4.8
			C101,96.8,100.5,96.6,100.4,96.1"/>
		<path class="st6" d="M97,102.5c-0.1-0.5,0.1-1,0.6-1.1l15.3-4.8c0.5-0.1,1,0.1,1.1,0.6c0.1,0.5-0.1,1-0.6,1.1l-15.4,4.8
			C97.6,103.3,97.1,103,97,102.5"/>
		<path class="st6" d="M93.6,108.9c-0.1-0.5,0.1-1,0.6-1.1l15.4-4.8c0.5-0.1,1,0.1,1.1,0.6c0.1,0.5-0.1,1-0.6,1.1l-15.4,4.8
			C94.2,109.7,93.7,109.4,93.6,108.9"/>
		<path class="st6" d="M280.4,191.1c0.5-0.1,0.7-0.6,0.6-1.1l-4.7-15.4c-0.1-0.5-0.6-0.7-1.1-0.6c-0.5,0.1-0.7,0.6-0.6,1.1l4.8,15.4
			C279.5,190.9,279.9,191.2,280.4,191.1"/>
		<path class="st6" d="M277,197.5c0.5-0.1,0.7-0.6,0.6-1.1l-4.8-15.3c-0.1-0.5-0.6-0.7-1.1-0.6c-0.5,0.1-0.7,0.6-0.6,1.1l4.8,15.4
			C276.1,197.3,276.6,197.6,277,197.5"/>
		<path class="st6" d="M273.7,203.9c0.5-0.1,0.7-0.6,0.6-1.1l-4.7-15.4c-0.1-0.5-0.6-0.7-1.1-0.6c-0.5,0.1-0.7,0.6-0.6,1.1l4.8,15.4
			C272.7,203.8,273.2,204,273.7,203.9"/>
		<path class="st10" d="M94,109.5c-0.2-0.1-0.4-0.3-0.4-0.5c-0.1-0.5,0.1-1,0.6-1.1l15.4-4.8c0.2-0.1,0.5,0,0.7,0.1s0.4,0.3,0.4,0.5
			c0.1,0.5-0.1,1-0.6,1.1l-15.4,4.8C94.5,109.6,94.2,109.6,94,109.5 M97.4,103c-0.2-0.1-0.4-0.3-0.4-0.5c-0.1-0.5,0.1-1,0.6-1.1
			l15.3-4.8c0.2-0.1,0.5,0,0.7,0.1c0.2,0.1,0.4,0.3,0.4,0.5c0.1,0.5-0.1,1-0.6,1.1l-15.4,4.8C97.8,103.2,97.6,103.2,97.4,103
			 M100.8,96.6c-0.2-0.1-0.4-0.3-0.4-0.5c-0.1-0.5,0.1-1,0.6-1.1l15.4-4.8c0.2-0.1,0.5,0,0.7,0.1c0.2,0.1,0.4,0.3,0.4,0.5
			c0.1,0.5-0.1,1-0.6,1.1l-15.4,4.8C101.2,96.8,101,96.7,100.8,96.6 M136.9,56.3L136.9,56.3c-16.8,7-30.2,13.3-35.5,15.9
			c-1.2,0.6-2.2,1.6-2.9,2.8c-0.2,0.4-0.4,0.8-0.5,1.2l-9.6,31.9l15.6,28.4l21.1-40l-3.5-11.2L136.9,56.3"/>
		<path class="st11" d="M86.7,114l-4.3,14.2c-0.5,1.6-0.3,3.4,0.5,4.9l11.7,21.2l7-13.2L86.7,114"/>
		<polyline class="st12" points="88.5,107.9 86.7,114 101.6,141.2 104.1,136.4 88.5,107.9 		"/>
		<path class="st12" d="M117,90.3c-0.2-0.1-0.4-0.1-0.7-0.1L100.9,95c-0.5,0.1-0.7,0.6-0.6,1.1c0.1,0.2,0.2,0.4,0.4,0.5
			c0.2,0.1,0.4,0.1,0.7,0.1l15.4-4.8c0.5-0.1,0.7-0.6,0.6-1.1C117.3,90.6,117.2,90.4,117,90.3"/>
		<path class="st12" d="M113.6,96.7c-0.2-0.1-0.4-0.1-0.7-0.1l-15.3,4.8c-0.5,0.1-0.7,0.6-0.6,1.1c0.1,0.2,0.2,0.4,0.4,0.5
			c0.2,0.1,0.4,0.1,0.7,0.1l15.4-4.8c0.5-0.1,0.7-0.6,0.6-1.1C113.9,97,113.8,96.8,113.6,96.7"/>
		<path class="st12" d="M110.2,103.1c-0.2-0.1-0.4-0.1-0.7-0.1l-15.4,4.8c-0.5,0.1-0.7,0.6-0.6,1.1c0.1,0.2,0.2,0.4,0.4,0.5
			c0.2,0.1,0.4,0.1,0.7,0.1l15.4-4.8c0.5-0.1,0.7-0.6,0.6-1.1C110.6,103.4,110.4,103.3,110.2,103.1"/>
		<path class="st10" d="M273,203.8c-0.2-0.1-0.4-0.3-0.4-0.5l-4.8-15.4c-0.1-0.5,0.1-1,0.6-1.1c0.2-0.1,0.5,0,0.7,0.1
			s0.4,0.3,0.4,0.5l4.7,15.4c0.1,0.5-0.1,1-0.6,1.1C273.4,203.9,273.2,203.9,273,203.8 M276.4,197.4c-0.2-0.1-0.4-0.3-0.4-0.5
			l-4.8-15.4c-0.1-0.5,0.1-1,0.6-1.1c0.2-0.1,0.5,0,0.7,0.1c0.2,0.1,0.4,0.3,0.4,0.5l4.8,15.3c0.1,0.5-0.1,1-0.6,1.1
			C276.8,197.5,276.6,197.5,276.4,197.4 M279.7,191c-0.2-0.1-0.4-0.3-0.4-0.5l-4.8-15.4c-0.1-0.5,0.1-1,0.6-1.1
			c0.2-0.1,0.5,0,0.7,0.1c0.2,0.1,0.4,0.3,0.4,0.5l4.7,15.4c0.1,0.5-0.1,1-0.6,1.1C280.2,191.1,279.9,191.1,279.7,191 M292.6,138.4
			l-15.2,28.9l-11.2,3.5l-21,39.9l32.3-3.2l20.8-25.8c1.1-1.4,1.6-3.2,1.3-5C298.7,170.8,296.3,156.2,292.6,138.4"/>
		<path class="st11" d="M273.3,212.5l-30.8,3.1l-6.9,13.1l24.1-2.4c1.7-0.2,3.3-1,4.4-2.4L273.3,212.5"/>
		<polyline class="st12" points="277.4,207.4 245.1,210.7 242.5,215.6 273.3,212.5 273.4,212.4 277.4,207.5 277.4,207.4 		"/>
		<path class="st12" d="M275.8,174.1c-0.2-0.1-0.4-0.1-0.7-0.1c-0.5,0.1-0.7,0.6-0.6,1.1l4.8,15.4c0.1,0.2,0.2,0.4,0.4,0.5
			c0.2,0.1,0.4,0.1,0.7,0.1c0.5-0.1,0.7-0.6,0.6-1.1l-4.7-15.4C276.2,174.4,276,174.2,275.8,174.1"/>
		<path class="st12" d="M272.4,180.5c-0.2-0.1-0.4-0.1-0.7-0.1c-0.5,0.1-0.7,0.6-0.6,1.1l4.8,15.4c0.1,0.2,0.2,0.4,0.4,0.5
			c0.2,0.1,0.4,0.1,0.7,0.1c0.5-0.1,0.7-0.6,0.6-1.1l-4.8-15.3C272.8,180.8,272.6,180.6,272.4,180.5"/>
		<path class="st12" d="M269.1,186.9c-0.2-0.1-0.4-0.1-0.7-0.1c-0.5,0.1-0.7,0.6-0.6,1.1l4.8,15.4c0.1,0.2,0.2,0.4,0.4,0.5
			c0.2,0.1,0.4,0.1,0.7,0.1c0.5-0.1,0.7-0.6,0.6-1.1l-4.7-15.4C269.4,187.2,269.3,187,269.1,186.9"/>
	</g>
	<path class="st13" d="M168.2,212.6l-16.3,83.8c-1.7,0.1-3.4,0.1-5.1,0.1c-0.6,0-1.1,0-1.7,0c-21.7-0.2-42.2-5.2-60.6-14l61.5-81.6
		L168.2,212.6z"/>
</g>
</svg>
