<?xml version="1.0" encoding="utf-8"?>
<!-- Generator: Adobe Illustrator 26.5.0, SVG Export Plug-In . SVG Version: 6.00 Build 0)  -->
<svg version="1.1" id="Layer_1" xmlns="http://www.w3.org/2000/svg" xmlns:xlink="http://www.w3.org/1999/xlink" x="0px" y="0px"
	 viewBox="0 0 50 50" style="enable-background:new 0 0 50 50;" xml:space="preserve">
<style type="text/css">
	.st0{fill:#A475EF;}
	.st1{fill:#BF94F7;}
	.st2{fill:none;stroke:#444444;stroke-width:2.5;stroke-linecap:round;stroke-linejoin:round;stroke-miterlimit:10;}
	.st3{fill:#424242;}
	.st4{fill-rule:evenodd;clip-rule:evenodd;fill:#494949;}
</style>
<g>
	<g>
		<polygon class="st0" points="48.4,13.8 49.1,19.2 1.8,36.4 1.2,25.2 1.2,18.8 42.6,3.8 47.9,6.1 		"/>
		<polygon class="st1" points="46.7,3.9 49,7.2 0.9,24.4 2,6.7 5.1,3.8 34.9,3.6 		"/>
		<g>
			<path class="st2" d="M16.3,46.4H4.6c-1.7,0-3.1-1.4-3.1-3.1V7.1c0-1.7,1.4-3.1,3.1-3.1h40.5c1.7,0,3.1,1.4,3.1,3.1v21.6"/>
		</g>
		<circle class="st3" cx="8.7" cy="10.2" r="1.6"/>
		<circle class="st3" cx="13.8" cy="10.2" r="1.6"/>
		<circle class="st3" cx="19" cy="10.2" r="1.6"/>
	</g>
	<path class="st4" d="M6.3,41.7h38.2c0.2,0,0.3-0.1,0.4-0.2h0c0.1-0.1,0.2-0.2,0.2-0.4v-0.8c0-0.2-0.1-0.3-0.2-0.4
		c-0.1-0.1-0.2-0.2-0.4-0.2h-1.9H8.2H6.3c-0.1,0-0.3,0.1-0.4,0.2l0,0c-0.1,0.1-0.1,0.2-0.1,0.4v0.8c0,0.2,0.1,0.3,0.2,0.4
		C6,41.6,6.1,41.7,6.3,41.7L6.3,41.7z M9.1,16.3h32.5c0.3,0,0.7,0.1,0.9,0.4c0.2,0.2,0.4,0.5,0.4,0.9v21.5h1.6
		c0.3,0,0.7,0.1,0.9,0.4c0.2,0.2,0.4,0.5,0.4,0.9v0.8c0,0.4-0.1,0.7-0.4,0.9l0,0h0c-0.2,0.2-0.5,0.4-0.9,0.4H6.3
		c-0.3,0-0.7-0.1-0.9-0.4l0,0C5.2,41.8,5,41.5,5,41.1v-0.8c0-0.3,0.1-0.6,0.3-0.9c0,0,0,0,0,0c0.2-0.2,0.5-0.4,0.9-0.4h1.6V17.5
		c0-0.3,0.1-0.7,0.4-0.9l0,0l0,0C8.5,16.4,8.8,16.3,9.1,16.3L9.1,16.3z M41.6,17H9.1c-0.1,0-0.3,0.1-0.4,0.2l0,0
		c-0.1,0.1-0.2,0.2-0.2,0.4v21.5h33.6V17.5c0-0.1-0.1-0.3-0.2-0.4C41.9,17.1,41.8,17,41.6,17L41.6,17z M19.3,41
		c-0.2,0-0.4-0.2-0.4-0.4c0-0.2,0.2-0.4,0.4-0.4h12c0.2,0,0.4,0.2,0.4,0.4c0,0.2-0.2,0.4-0.4,0.4H19.3L19.3,41z M10.1,18
		c-0.2,0-0.4,0.2-0.4,0.4v19.3c0,0.2,0.2,0.4,0.4,0.4h30.6c0.2,0,0.4-0.2,0.4-0.4V18.4c0-0.2-0.2-0.4-0.4-0.4H10.1L10.1,18z
		 M40.3,18.7H10.4v18.6h29.9V18.7z"/>
	<path class="st4" d="M19.2,26.1l3.8-0.4l0,0c0.1,0,0.1,0,0.1,0c0,0,0.1-0.1,0.1-0.1l1.5-3.5c0-0.1,0.1-0.2,0.2-0.3c0,0,0,0,0,0
		c0.1-0.1,0.2-0.1,0.3-0.1c0.1,0,0.2,0,0.3,0.1c0.1,0.1,0.2,0.2,0.2,0.3l1.5,3.5c0,0,0.1,0.1,0.1,0.1c0,0,0.1,0,0.1,0.1l3.8,0.4l0,0
		c0.1,0,0.2,0.1,0.3,0.1c0.1,0.1,0.2,0.2,0.2,0.3l0,0c0,0.1,0,0.2,0,0.3c0,0.1-0.1,0.2-0.2,0.3l-2.9,2.5c0,0-0.1,0.1-0.1,0.1
		c0,0,0,0.1,0,0.1l0.8,3.7c0,0.1,0,0.2,0,0.3c0,0.1-0.1,0.2-0.2,0.3c-0.1,0.1-0.2,0.1-0.3,0.1c-0.1,0-0.2,0-0.3-0.1l-3.3-2
		c0,0-0.1,0-0.1,0v0c0,0-0.1,0-0.1,0l-3.3,2c-0.1,0.1-0.2,0.1-0.3,0.1c-0.1,0-0.2,0-0.3-0.1C21.1,34.2,21,34.1,21,34
		c0-0.1,0-0.2,0-0.3l0.8-3.7l0,0c0,0,0-0.1,0-0.1c0,0,0-0.1-0.1-0.1l-2.9-2.5c-0.1-0.1-0.2-0.2-0.2-0.3c0-0.1,0-0.2,0-0.3
		c0-0.1,0.1-0.2,0.2-0.3C18.9,26.1,19,26.1,19.2,26.1L19.2,26.1z"/>
</g>
</svg>
