<?xml version="1.0" encoding="utf-8"?>
<!-- Generator: Adobe Illustrator 22.1.0, SVG Export Plug-In . SVG Version: 6.00 Build 0)  -->
<svg version="1.1" id="Layer_1" xmlns="http://www.w3.org/2000/svg" xmlns:xlink="http://www.w3.org/1999/xlink" x="0px" y="0px"
	 viewBox="0 0 50 50" style="enable-background:new 0 0 50 50;" xml:space="preserve">
<style type="text/css">
	.st0{fill:#71BAC0;}
	.st1{fill:#7ED0D6;}
	.st2{fill:#444444;}
	.st3{fill:none;}
</style>
<g>
	<path class="st0" d="M37,32.8c-0.2-1.2,0.2-2.4,1.1-3.2l8.6-8.4c0.3-0.3,0.4-0.8,0.3-1.2c-0.1-0.4-0.5-0.7-0.9-0.8l-11.9-1.7
		c-1.2-0.2-2.2-0.9-2.7-2l-0.8-1.5L5.4,23.1l6.6,6.4c0.9,0.8,1.3,2,1,3.2l-2,11.8c-0.1,0.4,0.1,0.9,0.5,1.1c0.4,0.3,0.8,0.3,1.2,0.1
		l10.6-5.6c1.1-0.6,2.3-0.6,3.4,0l0.8,0.4l10.2-3.7c-0.1-0.1-0.1-0.3-0.2-0.4L37,32.8z"/>
	<path class="st1" d="M28.2,4.1c-0.6-1.2-1.8-2-3.2-2c-1.4,0-2.6,0.8-3.2,2l-5.2,10.5c-0.2,0.3-0.5,0.6-0.8,0.6L4.1,16.9
		c-1.4,0.2-2.5,1.1-2.9,2.4C0.8,20.6,1.2,22,2.2,23l1.1,1.1l29.5-10.7L28.2,4.1z"/>
	<g>
		<path class="st2" d="M25.3,26.6c2.1,0,3.8-1.6,3.9-3.7v-0.2c0-2.1-1.7-3.9-3.9-3.9c-2.1,0-3.9,1.7-3.9,3.8h3
			c0.1,0,0.3,0.1,0.3,0.3s-0.1,0.3-0.3,0.3h-3.8h-0.1c-1.9,0.2-3.5,1.9-3.5,3.9c0,2,1.5,3.6,3.5,3.8C20.8,28.4,22.8,26.6,25.3,26.6z
			 M24.3,21.5c-0.4,0-0.7-0.3-0.7-0.7s0.3-0.7,0.7-0.7c0.4,0,0.7,0.3,0.7,0.7S24.7,21.5,24.3,21.5z"/>
		<path class="st2" d="M30,23.1c-0.2,2.4-2.3,4.3-4.7,4.3c-2.1,0-3.8,1.6-3.9,3.7v0.2c0,2.1,1.7,3.9,3.9,3.9c2.1,0,3.8-1.7,3.9-3.8
			h-3c-0.1,0-0.3-0.1-0.3-0.3c0-0.1,0.1-0.3,0.3-0.3h3.7c2-0.1,3.7-1.8,3.7-3.9C33.5,25,32,23.3,30,23.1z M26.3,32.5
			c0.4,0,0.7,0.3,0.7,0.7c0,0.4-0.3,0.7-0.7,0.7s-0.7-0.3-0.7-0.7C25.6,32.8,25.9,32.5,26.3,32.5z"/>
	</g>
	<path class="st3" d="M26,4.7c-0.2-0.4-0.6-0.6-1-0.6s-0.8,0.2-1,0.6l-5.3,10.8c-0.5,1.1-1.6,1.8-2.7,2L4.1,19.2
		c-0.4,0.1-0.8,0.4-0.9,0.8c-0.1,0.4,0,0.9,0.3,1.2l2,2l25.2-9.2L26,4.7z"/>
	<path class="st2" d="M48.3,22.9c1-1,1.4-2.4,0.9-3.7c-0.4-1.3-1.6-2.3-2.9-2.5L34.4,15c-0.4-0.1-0.7-0.3-0.9-0.6L28.3,3.6
		c-0.6-1.3-1.9-2-3.3-2c-1.4,0-2.7,0.8-3.3,2l-5.3,10.8c-0.2,0.3-0.5,0.6-0.9,0.6L3.7,16.7c-1.4,0.2-2.5,1.2-2.9,2.5
		c-0.4,1.3-0.1,2.8,0.9,3.7l1.1,1.1l7.4,7.3c0.3,0.3,0.4,0.6,0.3,1l-2,11.8c-0.2,1.1,0.2,2.3,0.9,3.1c0.2,0.2,0.3,0.3,0.5,0.5
		c0.6,0.5,1.4,0.7,2.1,0.7c0.6,0,1.2-0.1,1.7-0.4l10.6-5.6c0.3-0.2,0.7-0.2,1.1,0l4.4,2.3c0.6,0.3,1.4,0.1,1.7-0.5
		c0.3-0.6,0.1-1.4-0.5-1.7l-3.6-1.9l-0.8-0.4c-1.1-0.6-2.3-0.6-3.4,0l-10.6,5.6c-0.4,0.2-0.8,0.2-1.2-0.1c-0.4-0.3-0.5-0.7-0.5-1.1
		l2-11.8c0.2-1.2-0.2-2.4-1-3.2l-6.6-6.4l-2-2C3.1,20.8,3,20.4,3.1,20c0.1-0.4,0.5-0.7,0.9-0.8l11.9-1.7c1.2-0.2,2.2-0.9,2.7-2
		L24,4.7c0.2-0.4,0.6-0.6,1-0.6s0.8,0.2,1,0.6l4.6,9.2l0.8,1.5c0.5,1.1,1.6,1.8,2.7,2l11.9,1.7c0.4,0.1,0.8,0.4,0.9,0.8
		c0.1,0.4,0,0.9-0.3,1.2L38,29.5c-0.9,0.8-1.3,2-1.1,3.2l0.6,3.8c0,0.1,0.1,0.3,0.2,0.4c0.3,0.4,0.8,0.7,1.3,0.6
		c0.7-0.1,1.1-0.8,1-1.4l-0.6-3.8c-0.1-0.4,0.1-0.8,0.3-1L48.3,22.9z"/>
</g>
</svg>
