<?xml version="1.0" encoding="utf-8"?>
<!-- Generator: Adobe Illustrator 24.0.3, SVG Export Plug-In . SVG Version: 6.00 Build 0)  -->
<svg version="1.1" id="Layer_1" xmlns="http://www.w3.org/2000/svg" xmlns:xlink="http://www.w3.org/1999/xlink" x="0px" y="0px"
	 viewBox="0 0 50 50" style="enable-background:new 0 0 50 50;" xml:space="preserve">
<style type="text/css">
	.st0{fill:#A475EF;}
	.st1{fill:#BF94F7;}
	.st2{fill:none;stroke:#444444;stroke-width:2.5;stroke-linecap:round;stroke-linejoin:round;stroke-miterlimit:10;}
	.st3{fill:none;stroke:#444444;stroke-width:1.5;stroke-linecap:round;stroke-linejoin:round;stroke-miterlimit:10;}
	.st4{fill:#444444;}
</style>
<g>
	<g>
		<polygon class="st0" points="47.6,22.7 47.7,27 1.6,43.5 1.1,30.7 1,26.7 47.6,9.8 		"/>
	</g>
	<polygon class="st1" points="48.1,7.2 48.1,10.7 1.6,27.7 1.9,20.4 1.9,16.4 48.1,1.5 	"/>
	<polyline class="st2" points="6.3,48.2 1.9,48.2 1.9,2.2 48.3,2.2 48.3,48.2 32.2,48.2 	"/>
</g>
<g>
	<g>
		<path class="st3" d="M25.2,15.2h6.1c2.2,0,4.1,1.8,4.1,4.1v3"/>
		<polyline class="st3" points="29.3,11.2 25.2,15.2 29.3,19.3 		"/>
		<path class="st3" d="M23.2,35.5h-6.1c-2.2,0-4.1-1.8-4.1-4.1v-3"/>
		<polyline class="st3" points="19.1,39.5 23.2,35.5 19.1,31.4 		"/>
	</g>
	<path id="Shape" class="st4" d="M22.2,9c-0.1-0.2-0.4-0.4-0.7-0.4H6.3C5.8,8.6,5.4,9,5.5,9.5v12.2c0,0.1,0,0.2,0.1,0.3
		c0.1,0.3,0.4,0.6,0.8,0.6h4.9l-0.6,1.1H9.7c-0.5,0-0.8,0.4-0.8,0.8c0,0.5,0.4,0.8,0.8,0.8h8.4c0.5,0,0.8-0.4,0.8-0.8
		c0-0.5-0.4-0.8-0.8-0.8h-0.9l-0.6-1.1h4.9c0.5,0,0.9-0.4,0.8-0.9V9.5C22.3,9.3,22.2,9.1,22.2,9z M18.1,24.3c0.2,0,0.3,0.1,0.3,0.3
		c0,0.2-0.1,0.3-0.3,0.3H9.7c-0.2,0-0.3-0.1-0.3-0.3c0-0.2,0.1-0.3,0.3-0.3H18.1z M11.2,23.7l0.6-1.1h4.1l0.6,1.1H11.2z M21.7,20.4
		H8.8c-0.2,0-0.3,0.1-0.3,0.3c0,0.1,0,0.2,0.1,0.2c0,0,0,0,0,0c0,0,0.1,0,0.2,0h12.9v0.8c0,0.2-0.1,0.3-0.3,0.3H6.3
		C6.2,22,6.1,22,6,21.8c0,0,0-0.1,0-0.1v-0.8h1.7c0.2,0,0.3-0.1,0.3-0.3c0-0.2-0.1-0.3-0.3-0.3H6V9.5c0-0.2,0.1-0.3,0.3-0.3h15.2
		c0,0,0.1,0,0.1,0c0.1,0.1,0.2,0.2,0.2,0.3V20.4z"/>
	<g>
		<path class="st4" d="M37.5,38.8H27.3v-9.3c0,0,0-0.1,0.1-0.1h10.2v-0.7H27.4c-0.4,0-0.8,0.3-0.8,0.8v9.3h-0.9
			c-0.2,0-0.3,0.1-0.5,0.2c-0.1,0.1-0.2,0.3-0.1,0.5c0.2,1,1,1.7,2,1.7h10.4v-0.7H27.1c-0.6,0-1.2-0.4-1.3-1h11.7V38.8z"/>
		<polygon class="st4" points="37.7,38.2 27.8,38.2 27.8,29.9 37.7,29.9 37.7,30.2 28.2,30.2 28.2,37.9 37.7,37.9 		"/>
		<path class="st4" d="M31.4,38.8h10.2v-9.3c0,0,0-0.1-0.1-0.1H31.4v-0.7h10.2c0.4,0,0.8,0.3,0.8,0.8v9.3h0.9c0.2,0,0.3,0.1,0.5,0.2
			c0.1,0.1,0.2,0.3,0.1,0.5c-0.2,1-1,1.7-2,1.7H31.4v-0.7h10.4c0.6,0,1.2-0.4,1.3-1H31.4V38.8z"/>
		<polygon class="st4" points="31.3,38.2 41.2,38.2 41.2,29.9 31.3,29.9 31.3,30.2 40.8,30.2 40.8,37.9 31.3,37.9 		"/>
	</g>
</g>
</svg>
