<svg version="1" xmlns="http://www.w3.org/2000/svg" viewBox="0 0 50 50"><path fill="#A6C1C2" d="M7.978 37.266l5.229 3.019 30.927-11.257V16.391a4.225 4.225 0 0 0-2.111-3.657L27.111 4.126a4.225 4.225 0 0 0-4.223 0l-14.91 8.608a4.222 4.222 0 0 0-2.111 3.657v17.218a4.218 4.218 0 0 0 2.111 3.657z"/><path fill="#B9D7D9" d="M35.265 9.692l-7.696-5.127a4.222 4.222 0 0 0-4.214-.271L7.923 11.93a4.222 4.222 0 0 0-2.341 3.514l-.193 3 29.876-8.752z"/><path fill="#444" d="M25 47.554a5.329 5.329 0 0 1-2.669-.713L7.42 38.233a5.354 5.354 0 0 1-2.67-4.624V16.391a5.355 5.355 0 0 1 2.67-4.624l14.911-8.609a5.352 5.352 0 0 1 5.339 0l14.911 8.609a5.355 5.355 0 0 1 2.669 4.624v12.637a1.116 1.116 0 1 1-2.232 0V16.391a3.116 3.116 0 0 0-1.553-2.691L26.554 5.092a3.117 3.117 0 0 0-3.107 0L8.536 13.701a3.116 3.116 0 0 0-1.554 2.691V33.61c0 1.106.595 2.136 1.554 2.689l14.911 8.609a3.107 3.107 0 0 0 3.107 0l4.117-2.377a1.117 1.117 0 0 1 1.116 1.934l-4.117 2.377a5.342 5.342 0 0 1-2.67.712z"/><path fill="#444" d="M25.46 11.72l-.46-.359-.46.358c-.08.062-1.964 1.539-3.847 3.929l-.216.275.414 1.976-1.777.021-.214.374c-1.294 2.274-1.951 4.53-1.951 6.706 0 7.291 7.281 13.039 7.591 13.28l.46.359.46-.358c.31-.241 7.591-5.989 7.591-13.28.001-7.292-7.28-13.04-7.591-13.281zM18.449 25c0-1.796.521-3.674 1.548-5.59l2.735-.032-.643-3.073A25.055 25.055 0 0 1 24.5 13.74v22.519c-1.917-1.775-6.051-6.188-6.051-11.259zM25.5 36.257V13.743c1.918 1.778 6.052 6.197 6.052 11.257s-4.134 9.478-6.052 11.257z"/></svg>