<?xml version="1.0" encoding="utf-8"?>
<!-- Generator: Adobe Illustrator 22.1.0, SVG Export Plug-In . SVG Version: 6.00 Build 0)  -->
<svg version="1.1" id="Layer_1" xmlns="http://www.w3.org/2000/svg" xmlns:xlink="http://www.w3.org/1999/xlink" x="0px" y="0px"
	 viewBox="0 0 50 50" style="enable-background:new 0 0 50 50;" xml:space="preserve">
<style type="text/css">
	.st0{fill:#AFE55D;}
	.st1{fill:#C3FF68;}
	.st2{fill:#494949;}
</style>
<g>
	<g>
		<path class="st0" d="M41.9,21.2c-0.2-1.4-0.5-2.9-0.9-4.4l-38.6,14c0.7,4.7,4.4,8.5,9.1,9.3L48,26.9C47,24.2,44.8,22.1,41.9,21.2z
			"/>
	</g>
	<g>
		<path class="st1" d="M39.4,11.4c-0.4,1.1-1,2.1-1.7,3c-6-6.2-15.9-6.4-22.2-0.3c-0.4,0.4-1.4,1.9-3.6,3.2c-3.3,2-8.1,3.8-8.1,3.8
			l0.1,2.2C3,25,2.3,27,2.3,29.3c0,0.5,0.1,1.1,0.1,1.6l38.6-14C40.6,15.1,40,13.3,39.4,11.4z"/>
	</g>
	<g>
		<path class="st2" d="M48.7,26.6c-1.2-3-3.6-5.4-6.7-6.4c-0.3-3.5-1.3-7.1-2.2-9.8c-0.5,1-1.2,2-2.1,2.9c-3.1-3-7.2-4.7-11.5-4.8
			c-4.5-0.1-8.8,1.6-12,4.8c-1.1,1-2,2.2-2.7,3.4c-0.1,0.1-0.1,0.3-0.1,0.4C5.2,17.8,0.5,23,0.5,29.3c0,6.8,5.5,12.3,12.3,12.3h25.6
			c0,0,0,0,0,0c3.1,0,6.1-1.3,8.2-3.6c1.8-2,2.8-4.6,2.8-7.3C49.5,29.2,49.2,27.9,48.7,26.6z M44.8,36.3c-1.6,1.8-4,2.8-6.4,2.8
			H12.9c-5.4,0-9.8-4.4-9.8-9.8s4.4-9.8,9.8-9.8c0.7,0,1.2-0.6,1.2-1.2c0-0.3-0.1-0.5-0.2-0.7c0.6-0.9,1.3-1.8,2-2.5
			c2.8-2.7,6.4-4.1,10.3-4.1c3.6,0.1,7,1.5,9.7,3.9c-1.7,1.2-3.5,2-5.3,2.4c-3.3,0.8-6.2,0.1-9.3,1.3c-7,2.7-6.9,11-3,12.9l0.2,0.1
			c0,0,5.7-1.1,8.8-2.3c4.6-1.7,9.6-5.8,11.2-10.7c-0.9,5-5.2,9.9-9.5,12.1c-2.3,1.2-4.1,1.4-7.9,2.8c-0.5,0.2-0.8,0.3-0.8,0.3
			c1-0.2,1.9-0.2,1.9-0.2c5.4-0.2,13.8,1.5,17.8-3.7c1.5-2,2.1-4.4,2.2-6.9c1.9,0.9,3.5,2.6,4.3,4.6c0.4,1,0.6,2,0.6,3.1
			C47,32.7,46.2,34.7,44.8,36.3z"/>
		<path class="st2" d="M16.1,32.9c-0.5,0.6-0.4,1.4,0.2,1.9c0.6,0.5,1.4,0.4,1.9-0.2c0,0,0,0,0,0c0.5-0.6,0.4-1.4-0.2-1.9
			C17.5,32.2,16.6,32.3,16.1,32.9z"/>
	</g>
</g>
</svg>
