<svg xmlns="http://www.w3.org/2000/svg" version="1" viewBox="0 0 50 50"><path fill="#FCC34F" d="M19.97 44.504l15.336-5.582c3.027-3.839 5.545-8.564 5.545-13.679C40.85 12.407 25 2 25 2s-1.846 1.213-4.277 3.319v6.827h-6.479c-2.823 3.73-5.095 8.239-5.095 13.098 0 8.015 6.179 15.081 10.821 19.26z"/><path fill="#FDCF72" d="M32.879 8.748C28.936 4.578 25.012 2 25.012 2s-1.847 1.213-4.277 3.319v6.827h-6.479a30.476 30.476 0 0 0-2.794 4.398l21.417-7.796z"/><path fill="#444" d="M25.686.955L25 .504l-.686.451c-.078.051-1.944 1.283-4.409 3.418l-.432.374v6.148h-5.85l-.375.496C9.699 16.08 7.899 20.74 7.899 25.244c0 11.549 11.878 21.032 15.518 23.663a1.247 1.247 0 0 0 1.745-.281 1.21 1.21 0 0 0 .211-.62l.001-.005v-.029c.006-.101.018-.201 0-.301V31.192c.574-.281 1.145-.773 1.713-1.489h.089l.525 1.721h1.878v-8.327c0-1.468-.401-2.545-1.202-3.23-.7-.599-1.714-.921-3.004-.996V3.797c3.462 2.552 14.226 11.304 14.226 21.446 0 4.126-1.774 8.469-5.274 12.907a1.25 1.25 0 1 0 1.963 1.549c3.856-4.891 5.812-9.754 5.812-14.456C42.101 11.885 26.356 1.395 25.686.955zm1.268 25.641c0 .961-.289 1.708-.866 2.241-.577.533-1.343.799-2.297.799-.656 0-1.148-.151-1.475-.453-.328-.302-.492-.728-.492-1.28 0-.76.281-1.324.844-1.693s1.462-.576 2.699-.62l1.587-.067v1.073zm.022-3.387v.659l-2.135.067c-1.937.06-3.379.414-4.326 1.062-.946.648-1.419 1.609-1.419 2.884 0 1.2.341 2.127 1.023 2.783.682.656 1.63.984 2.845.984.633 0 1.182-.066 1.661-.188v15.233c-3.662-2.689-14.226-11.33-14.226-21.449 0-3.793 1.504-7.776 4.473-11.848h7.1V5.894a48.566 48.566 0 0 1 2.652-2.097v15.054c-.652.015-1.337.095-2.064.262a9.181 9.181 0 0 0-2.202.799l.849 1.878a13.681 13.681 0 0 1 1.677-.659 5.938 5.938 0 0 1 1.822-.279c.775 0 1.347.196 1.716.587.37.39.554.98.554 1.77z"/></svg>