<?xml version="1.0" encoding="utf-8"?>
<!-- Generator: Adobe Illustrator 24.0.0, SVG Export Plug-In . SVG Version: 6.00 Build 0)  -->
<svg version="1.1" id="Layer_1" xmlns="http://www.w3.org/2000/svg" xmlns:xlink="http://www.w3.org/1999/xlink" x="0px" y="0px"
	 viewBox="0 0 50 50" style="enable-background:new 0 0 50 50;" xml:space="preserve">
<style type="text/css">
	.st0{fill:#00DFFC;}
	.st1{fill:#00C8E2;}
	.st2{fill:#444444;}
</style>
<g>
	<g>
		<path class="st0" d="M25,2.5c-11.8,0-21.4,8.9-22.7,20.3l38.5-14C36.6,4.8,31.1,2.5,25,2.5z"/>
	</g>
	<g>
		<path class="st1" d="M47.9,25.3c0-6.5-2.7-12.4-7.1-16.6l-38.5,14c-0.1,0.9-0.2,1.7-0.2,2.6c0,8,4.1,15.1,10.4,19.1L46.9,32
			C47.5,29.9,47.9,27.6,47.9,25.3z"/>
	</g>
	<g>
		<path class="st2" d="M25.4,48.8c-0.5,0-1,0-1.5,0c-6.3-0.4-12.2-3.2-16.4-8S1.2,29.9,1.6,23.5C2.4,10.4,13.7,0.4,26.8,1.3
			c3.2,0.2,6.3,1,9.1,2.4c0.6,0.3,0.9,1.1,0.6,1.7C36.2,6,35.4,6.3,34.8,6c-2.6-1.3-5.3-2-8.2-2.2C14.9,3,4.8,12,4.1,23.7
			c-0.3,5.7,1.5,11.2,5.3,15.4c3.8,4.3,9,6.8,14.6,7.1c9.4,0.6,18-5,21.3-13.8c0.2-0.6,1-1,1.6-0.7c0.6,0.2,1,1,0.7,1.6
			C44.1,42.7,35.3,48.8,25.4,48.8z"/>
	</g>
	<g>
		<path class="st2" d="M37.9,7.9c1.1-1.1,2.1-2.4,3-3.8C41,4,41.1,3.9,41.3,3.7c1.2,3.6,2.2,7.3,2.7,11c0.1,0.7,0.2,1.4,0.2,2.1
			c0.2,3.3,0,6.5-1.3,9.6c-1.9,4.6-5.5,6.7-10.2,7.4c-3.8,0.6-7.7,0.3-11.5,0.2c-1.4,0-2.7-0.2-4.1,0.2c-0.2,0.1-0.4-0.1-0.6-0.4
			c1.9-0.6,3.7-1.2,5.5-1.7c7.6-2.1,13-6.8,16.3-14c0.2-0.4,0.4-0.7,0.3-1.1c-0.2-0.1-0.3,0-0.3,0.1c-4,6.8-10.1,10.7-17.6,12.6
			c-2.2,0.5-4.4,1-6.5,1.6c-0.9,0.2-1.5,0-2.2-0.5c-2.2-1.9-2.9-4.5-2.5-7.2c0.7-5.5,4.9-9.4,10.7-10c2.7-0.3,5.5-0.1,8.2-0.8
			C32.1,12,35.3,10.4,37.9,7.9"/>
		<path class="st2" d="M17.1,34.5c-0.4,0-0.6-0.4-0.7-0.5l-0.2-0.3l0.3-0.1c0.6-0.2,1.2-0.4,1.8-0.6c1.3-0.4,2.5-0.8,3.7-1.2
			c7.4-2.2,12.8-6.9,16-13.9c0-0.1,0.1-0.1,0.1-0.2c-3.9,6.2-9.6,10.2-17.4,12.1c-1,0.2-2,0.5-3,0.7c-1.2,0.3-2.4,0.6-3.5,0.9
			c-0.9,0.2-1.7,0-2.4-0.6c-2.1-1.8-3-4.3-2.6-7.4c0.7-5.6,4.9-9.5,10.9-10.2c1-0.1,2.1-0.2,3.1-0.2c1.7-0.1,3.4-0.2,5.1-0.5
			c3.8-0.9,7-2.5,9.4-4.8l0,0c1.1-1.1,2.1-2.4,3-3.8c0.1-0.1,0.1-0.2,0.2-0.3L41,3.5l0.3-0.3l0.1,0.4c1,3,2.2,6.9,2.7,11
			c0.1,0.7,0.2,1.4,0.2,2.1c0.3,3.9-0.1,7-1.3,9.7c-1.8,4.3-5.2,6.8-10.4,7.6c-3.3,0.5-6.6,0.4-9.8,0.3c-0.6,0-1.2,0-1.8-0.1
			c-0.2,0-0.5,0-0.7,0c-1.1,0-2.2-0.1-3.3,0.2C17.2,34.5,17.1,34.5,17.1,34.5z M17,34C17.1,34,17.1,34,17,34
			c1.2-0.3,2.4-0.2,3.5-0.2c0.2,0,0.5,0,0.7,0c0.6,0,1.2,0,1.8,0.1c3.2,0.1,6.5,0.2,9.7-0.3c5-0.8,8.3-3.2,10-7.3
			c1.1-2.7,1.5-5.7,1.2-9.5c-0.1-0.7-0.1-1.4-0.2-2.1c-0.5-3.9-1.6-7.6-2.6-10.5l0,0C40.2,5.7,39.2,7,38,8.1c-2.5,2.4-5.7,4.1-9.6,5
			c-1.7,0.4-3.5,0.5-5.2,0.6c-1,0-2.1,0.1-3.1,0.2c-5.7,0.6-9.7,4.4-10.5,9.8c-0.4,2.9,0.4,5.3,2.4,7c0.6,0.5,1.2,0.7,1.9,0.5
			c1.2-0.3,2.4-0.6,3.6-0.9c1-0.2,2-0.5,3-0.7c7.9-2,13.6-6.1,17.4-12.5c0.2-0.4,0.5-0.3,0.7-0.2l0.1,0.1v0.1
			c0.1,0.4-0.1,0.8-0.3,1.1c0,0.1-0.1,0.1-0.1,0.2c-3.3,7.2-8.8,12-16.4,14.2c-1.2,0.4-2.5,0.8-3.7,1.1C18,33.7,17.5,33.9,17,34z"/>
	</g>
	<g>
		<circle class="st2" cx="12" cy="35.2" r="2.3"/>
	</g>
</g>
</svg>
