<?xml version="1.0" encoding="UTF-8"?>
<svg id="Camada_1" data-name="Camada 1" xmlns="http://www.w3.org/2000/svg" version="1.1" viewBox="0 0 50 50">
  <defs>
    <style>
      .cls-1 {
        stroke-width: .5px;
      }

      .cls-1, .cls-2, .cls-3 {
        fill: none;
        stroke: #444;
        stroke-linecap: round;
        stroke-linejoin: round;
      }

      .cls-4 {
        fill: #5aba52;
        stroke-width: 0px;
      }

      .cls-3 {
        stroke-width: 2.5px;
      }
    </style>
  </defs>
  <path class="cls-4" d="M42.5,23.5l-1.6-10-2.9-5.4L28.7,1.5c-3.5,0-14.8,2.7-15.5,6.2s-3.9,2.3-4,2.5l-1.4,7.1c0,.3-.6,6.2-.7,6.5l5,7.7-6.6,10.8c-.1,1.5,2.9,1.2,4.3.7l2,4.9c.7-.8,8.3-9.2,9.5-10.6h7.8c.2,0,1.8,1.9,2,1.8l8.4-2.8c-1.9-2.1-1.8-2.3-1.9-4.1,1.4-2.4,5.6-7.3,4.9-8.8Z"/>
  <path class="cls-2" d="M42,15.8c-.3-1.4-1.3-2.4-2.5-2.7.6-1.1.6-2.5-.2-3.7-.7-1.1-2-1.7-3.2-1.6,0-1.2-.5-2.4-1.5-3.2-1.1-.8-2.6-.8-3.7-.2-.4-1.2-1.4-2.2-2.7-2.5-1.3-.3-2.6.2-3.4,1.2-.8-.9-2-1.4-3.3-1.2-1.4.3-2.4,1.3-2.7,2.5-1.1-.6-2.5-.6-3.7.2-1.1.7-1.7,2-1.6,3.2-1.2,0-2.4.5-3.2,1.5-.8,1.1-.8,2.6-.2,3.7-1.2.4-2.2,1.4-2.5,2.7-.3,1.3.2,2.6,1.2,3.4-.9.8-1.4,2-1.2,3.3.3,1.4,1.3,2.4,2.5,2.7-.6,1.1-.6,2.5.2,3.7.7,1.1,2,1.7,3.2,1.6,0,1.2.5,2.4,1.5,3.2,1.1.8,2.6.8,3.7.2.4,1.2,1.4,2.2,2.7,2.5,1.3.3,2.5-.5,3.3-1.5.8.9,2.1,1.7,3.4,1.5,1.4-.3,2.4-1.3,2.7-2.5,1.1.6,2.5.6,3.7-.2,1.1-.7,1.7-2,1.6-3.2,1.2,0,2.4-.5,3.2-1.5.8-1.1.8-2.6.2-3.7,1.2-.4,2.2-1.4,2.5-2.7.3-1.3-.2-2.6-1.2-3.4.9-.8,1.4-2,1.2-3.3Z"/>
  <circle class="cls-1" cx="24.8" cy="19.2" r="12.1" transform="translate(-4.6 30) rotate(-57.9)"/>
  <path class="cls-2" d="M25.6,12.2l1.7,3.4c.1.2.4.4.6.5l3.8.5c.7.1,1,1,.5,1.4l-2.7,2.7c-.2.2-.3.5-.2.7l.6,3.7c.1.7-.6,1.2-1.2.9l-3.4-1.8c-.2-.1-.5-.1-.8,0l-3.4,1.8c-.6.3-1.3-.2-1.2-.9l.6-3.7c0-.3,0-.6-.2-.7l-2.7-2.7c-.5-.5-.2-1.3.5-1.4l3.8-.5c.3,0,.5-.2.6-.5l1.7-3.4c.3-.6,1.2-.6,1.5,0Z"/>
  <path class="cls-3" d="M40.5,37.5c-1-1.5-2.4-4.4-3.4-6.2,0,0,1.7,0,2.7-1.6s.8-2.6.2-3.8c1.3-.4,2.3-1.4,2.6-2.8.3-1.3-.2-2.6-1.2-3.5.9-.8,1.4-2.1,1.2-3.4-.3-1.4-1.3-2.4-2.6-2.8.6-1.1.6-2.6-.2-3.8-.8-1.1-2-1.7-3.3-1.6,0-1.2-.5-2.5-1.6-3.3-1.2-.8-2.6-.8-3.8-.2-.4-1.3-1.4-2.3-2.8-2.6-1.3-.3-2.6.2-3.5,1.2-.8-.9-2.1-1.4-3.4-1.2-1.4.3-2.4,1.3-2.8,2.6-1.1-.6-2.6-.6-3.8.2-1.1.8-1.7,2-1.6,3.3-1.2,0-2.5.5-3.3,1.6-.8,1.2-.8,2.6-.2,3.8-1.3.4-2.3,1.4-2.6,2.8-.3,1.3.2,2.6,1.2,3.5-.9.8-1.4,2.1-1.2,3.4.3,1.4,1.3,2.4,2.6,2.8-.6,1.1-.6,2.6.2,3.8,0,0,1.5,1.8,2.7,1.6-3.3,6.2-8.2,11.7-8.2,11.7l5.8.3,1.9,5.2s4.7-4.4,8.4-11.4h0c.3.1.6.2.9.3,1.3.3,2.6-.2,3.5-1.2.8.9,2.1,1.4,3.4,1.2.3,0,.6-.2.9-.3h0c3.7,7,8.4,11.4,8.4,11.4l1.5-3.8"/>
</svg>