<svg xmlns="http://www.w3.org/2000/svg" id="Layer_1" x="0" y="0" version="1.1" viewBox="0 0 50 50" xml:space="preserve"><style>.st2{fill:#031326}</style><path fill="#afe55d" d="M12.2 43.4l34.5-12.5c.5-1.9.8-3.9.8-5.9C47.5 12.6 37.4 2.5 25 2.5S2.5 12.6 2.5 25c0 7.6 3.9 14.4 9.7 18.4z"/><path fill="#c3ff68" d="M37.3 6.2c-3.5-2.3-7.7-3.6-12.2-3.6C15 2.5 6.4 9.2 3.6 18.4L37.3 6.2z"/><path d="M25 48.5C12 48.5 1.5 38 1.5 25S12 1.5 25 1.5 48.5 12 48.5 25c0 2.1-.3 4.2-.8 6.2-.2.6-.7.9-1.3.7-.6-.2-.9-.7-.7-1.3.5-1.8.7-3.7.7-5.6 0-11.8-9.6-21.4-21.4-21.4C13.2 3.6 3.6 13.2 3.6 25S13.2 46.4 25 46.4c.6 0 1 .5 1 1s-.4 1.1-1 1.1z" class="st2"/><path d="M25 43.1C15 43.1 6.9 35 6.9 25S15 6.9 25 6.9C35 6.9 43.1 15 43.1 25c0 10-8.1 18.1-18.1 18.1zm0-35C15.7 8.1 8.1 15.7 8.1 25S15.7 41.9 25 41.9 41.9 34.3 41.9 25 34.3 8.1 25 8.1z" class="st2"/><path d="M25.4 12.1l-.4-.3-.4.3c-.1.1-1.9 1.5-3.7 3.8l-.2.2.4 2h-1.8l-.2.3c-1.3 2.2-1.9 4.4-1.9 6.5 0 7.1 7.1 12.6 7.4 12.9l.4.3.4-.3c.3-.2 7.4-5.8 7.4-12.9-.1-7-7.1-12.5-7.4-12.8zM18.5 25c0-1.8.5-3.7 1.6-5.6h2.6l-.7-2.9c1-1.2 1.9-2.1 2.5-2.7v22.4c-1.7-1.7-6-6.1-6-11.2zm6.9 11.2V13.8c1.8 1.6 6.1 6.1 6.1 11.2s-4.3 9.5-6.1 11.2z" class="st2"/></svg>