<?xml version="1.0" encoding="utf-8"?>
<!-- Generator: Adobe Illustrator 24.0.0, SVG Export Plug-In . SVG Version: 6.00 Build 0)  -->
<svg version="1.1" id="Layer_1" xmlns="http://www.w3.org/2000/svg" xmlns:xlink="http://www.w3.org/1999/xlink" x="0px" y="0px"
	 viewBox="0 0 50 50" style="enable-background:new 0 0 50 50;" xml:space="preserve">
<style type="text/css">
	.st0{fill:#A475EF;}
	.st1{fill:#BF94F7;}
	.st2{fill:#444444;}
</style>
<g>
	<g>
		<g>
			<polygon class="st0" points="6.2,41 18.1,45.1 43.8,35.7 43.8,24.3 34.4,21.1 34.4,5.8 25,2.5 15.6,5.8 15.6,10.8 6.2,14 			"/>
		</g>
		<g>
			<polygon class="st1" points="6.2,16.4 34.4,6.2 34.4,5.8 25,2.5 15.6,5.8 15.6,10.8 6.2,14 			"/>
		</g>
	</g>
	<path class="st2" d="M35.7,20.2l0-15.3L25,1.2L14.3,4.9l0,5l-9.4,3.2l0,28.7L25,48.8l9-3.1c0.7-0.2,1-0.9,0.8-1.6
		c0-0.1-0.1-0.3-0.2-0.4V28l8-2.8l0,0v10.5c0,0.7,0.6,1.2,1.2,1.2s1.2-0.6,1.2-1.2V23.4L35.7,20.2z M16.8,11.4l0-4.7l8,2.8v4.7
		L16.8,11.4z M24.9,29.8L15.7,33V17.7l9.2-3.2V29.8z M15.7,33.3l9.2,3.2v9.6L15.7,43C15.7,43,15.7,33.3,15.7,33.3z M25,36.2l-9-3.1
		l9-3.1l9,3.1L25,36.2z M34.3,33l-9.2-3.2v-5l9.2,3.2V33z M25.1,9.5l8-2.8l0,15l-8,2.8C25.1,24.5,25.1,9.5,25.1,9.5z M32.9,6.6
		L25,9.3l-7.9-2.7L25,3.8L32.9,6.6z M16.8,11.7l7.8,2.7l-9,3.1l-7.8-2.7L16.8,11.7z M7.4,14.9l8,2.8v25.2l-8-2.8L7.4,14.9z
		 M33.2,43.3l-8,2.8v-9.6l9.2-3.2v10.2C34,43.3,33.6,43.2,33.2,43.3z M34.4,27.7l-9-3.1l7.8-2.7v0l9,3.1L34.4,27.7z"/>
</g>
</svg>
