<?xml version="1.0" encoding="utf-8"?>
<!-- Generator: Adobe Illustrator 28.0.0, SVG Export Plug-In . SVG Version: 6.00 Build 0)  -->
<svg version="1.1" id="Layer_1" xmlns="http://www.w3.org/2000/svg" xmlns:xlink="http://www.w3.org/1999/xlink" x="0px" y="0px"
	 viewBox="0 0 50 50" style="enable-background:new 0 0 50 50;" xml:space="preserve">
<style type="text/css">
	.st0{fill:#00DFFC;}
	.st1{fill:none;stroke:#444444;stroke-width:2.5;stroke-linecap:round;stroke-linejoin:round;stroke-miterlimit:10;}
	.st2{fill:none;stroke:#444444;stroke-linecap:round;stroke-linejoin:round;stroke-miterlimit:10;}
</style>
<path class="st0" d="M44.7,12.4L39,8.8l-7.7-4.4l-6-2.8C22.2,1.5,4,10.5,4,13.7l-0.5,7.8L4,36.6l11.5,7.6l31-11
	C47.2,32.7,45.7,14.4,44.7,12.4z"/>
<g>
	<g>
		<path class="st1" d="M29.9,46.5l-2.2,1.3c-1.7,1-3.8,1-5.5,0l-15.6-9C5,37.8,4,36,4,34V16c0-2,1-3.8,2.7-4.7l15.6-9
			c1.7-1,3.8-1,5.5,0l15.6,9C45,12.3,46,14,46,16v18c0,2-1,3.8-2.7,4.7l-2.5,1.4"/>
	</g>
</g>
<g>
	<path class="st2" d="M26.8,43.5c0,0-7.6-5.1-3.2-27.3"/>
	<path class="st2" d="M23.3,37.4c0,0-6.6-2.8-6.7-9.5c0,0,2.5,1.4,3.2,0.9c-1.1-1.3-3.3-4.1-3.3-4.1S15.2,11,27.4,6.5
		c1.4,4.4,2.1,6.3,1.8,9.6s0,3.9-3,6.4c1.4,0.1,1.4,0.6,3.5-1.1c0,2.1,0.7,8.4-4.5,10.7c0,0,0.1,1.4,3,0.3
		C27.5,34.8,27.4,34.8,23.3,37.4z"/>
	<path class="st2" d="M20.2,19.1c0,0-0.8,0.1-2.5-2.9"/>
	<path class="st2" d="M26.1,13.1c0,0,2.6-2.3,2.3-3.3"/>
</g>
</svg>
