<svg xmlns="http://www.w3.org/2000/svg" version="1" viewBox="0 0 50 50"><path fill="#ff6c8f" d="M39.856 20.528L4.643.766a.718.718 0 0 0-1.07.627v32.34L39.856 20.53z"/><path fill="#fe4365" d="M21.027 9.96L4.643.767a.718.718 0 0 0-1.07.627v14.92L21.027 9.96z"/><path fill="#444" d="M46.616 23.273L5.576.24A1.853 1.853 0 0 0 3.72.26c-.577.338-.922.94-.922 1.61v46.26c0 .67.346 1.274.926 1.612a1.85 1.85 0 0 0 1.86.013l20.12-11.39a1.148 1.148 0 0 0 .134-1.906V26.255l9.762 5.46.41.195.718-.454v-11.1l8.765 4.92a1.148 1.148 0 0 0 1.123-2.003zM5.093 26.828l7.84 4.383-7.84 4.385v-8.767zm0-1.81l8.546-4.777v9.757l-8.547-4.78v-.198zm10.67-5.975l8.7-4.864v9.727l-8.7-4.864zM5.094 14.56l7.892 4.413-7.892 4.413V14.56zm9.99 5.697l8.634 4.828-8.633 4.828v-9.656zm8.59-7.228l-8.588 4.802V8.208l8.59 4.82zm-8.59 19.364l8.306 4.644-8.306 4.702v-9.346zM25.976 14.32l8.556 4.802-8.555 4.785V14.32zm-12.337 3.384l-8.546-4.78v-.198l8.546-4.78v9.758zM5.093 37.232l8.546-4.78v9.697l-8.547-4.78v-.138zm19.368-1.23l-8.647-4.834 8.648-4.836v9.67zM12.723 6.883l-7.63 4.266V2.6l7.63 4.282zm-7.63 40.514V38.95l7.507 4.197-7.507 4.25zm21.55-22.27l8.71-4.87v9.74l-8.71-4.87z"/></svg>