<?xml version="1.0" encoding="utf-8"?>
<!-- Generator: Adobe Illustrator 27.9.0, SVG Export Plug-In . SVG Version: 6.00 Build 0)  -->
<svg version="1.1" xmlns="http://www.w3.org/2000/svg" xmlns:xlink="http://www.w3.org/1999/xlink" x="0px" y="0px"
	 viewBox="0 0 300 300" style="enable-background:new 0 0 300 300;" xml:space="preserve">
<style type="text/css">
	.st0{display:none;}
	.st1{display:inline;fill:#E56060;}
	.st2{display:inline;}
	.st3{fill:#FF6B6B;}
	.st4{fill:#00BF5F;}
	.st5{fill:#AB67A9;}
	.st6{fill:#ED9751;}
	.st7{display:inline;fill:#ED9751;}
	.st8{display:inline;fill:#D2D2D2;}
	.st9{display:inline;fill:#CF524B;}
	.st10{display:inline;fill:#E445C8;}
	.st11{fill:#008DD3;}
	.st12{fill:#FFD200;}
	.st13{fill:#D1990A;}
	.st14{opacity:0.95;}
	.st15{fill:#54C654;}
	.st16{fill:#FFFFFF;}
	.st17{fill:#F4F0C1;}
</style>
<g id="Camada_2">
</g>
<g id="Camada_8">
</g>
<g id="Camada_11">
</g>
<g id="Camada_6" class="st0">
	<path class="st1" d="M255.3,84.8c48,32.1,35,87.4,35,87.4s-3.6,20.1-22.1,51.8c-13.9,24-48,38.9-48,38.9s-50.4,15.8-73,0
		c-16-11.3-31.7-14.9-31.7-14.9s-25.4-12-39.4-59.5s11-112.8,59.9-127.2C185,47,230.8,71,230.8,71L255.3,84.8z"/>
	<path class="st1" d="M184.3,96.8"/>
	<path class="st1" d="M192.6,100c-24.1,0-48.2,0-72.4,0"/>
</g>
<g id="Camada_14">
</g>
<g id="Camada_10" class="st0">
	
		<image style="display:inline;overflow:visible;" width="266" height="245" xlink:href="E03610CE.jpg"  transform="matrix(1 0 0 1 392.2477 14.2819)">
	</image>
	<g class="st2">
		<path class="st3" d="M689.9-245.8c0,0-31.6-21.9-62.1,18c-30.6,39.9-22.5,117.1-22.5,117.1l16.1,16.2l0,0
			C621.4-94.5,607.2-224.5,689.9-245.8z"/>
		<path class="st3" d="M731.2-230.1c0,0,32.9,12.4-66,156.6c0,0,19.6,5.9,35.8-0.1c0,0,97.4-136.4,53.1-153.5L731.2-230.1z"/>
		<path class="st3" d="M700.9-238.1c0,0,6,3.2,12,4.6c0,0,10.9,33.6-62.8,151.1l-11.9-6.1C638.1-88.6,658.8-210,700.9-238.1z"/>
		<path class="st3" d="M740.4-269.2c16.7,8.5,23.7,17,23.7,17c-29.6-0.6-32.9,22.1-32.9,22.1c-4-0.5-17.5-2.6-20.7-3.5
			C710.5-233.6,736.8-268.5,740.4-269.2z"/>
		<path class="st3" d="M698.5-238.1c-7.6-3.8-11-7.7-11-7.7c9.7-21.8-8.3-38.9-8.3-38.9c11.4,0.8,21.5,2.5,30.3,4.5
			C708.2-272.6,710.7-250.1,698.5-238.1z"/>
		<path class="st3" d="M724.4-77.9c0,0,102.9-114.9,47.1-153.6l-28.1,2.9c0,0,1.6-13.7,3-13c1.4,0.7,29.7-3.2,29.7-3.2
			s33.9,28.2,17.2,87.6S724.4-77.9,724.4-77.9z"/>
		<path class="st3" d="M674.4-258.1c0,0,0.1-0.7,0-1.9c-0.5-4.9-4.6-17.6-32.2-19.2c0,0-40.8,6-58.8,76.7c0,0-8,34.8,5.8,61.7
			c0,0-14.8-82.9,38.6-111.3C658.8-269.1,674.4-258.1,674.4-258.1z"/>
	</g>
	<g class="st2">
		<g>
			<path class="st4" d="M377.6-35.8c-2.8,3-3.7,5.8-4.4,9.7c-0.5,2.8-1.8,5.2-2.8,7.8c-2.4,6.2-1.8,12.1,4.2,16
				c4.5,2.9,11.3,4.6,16.2,1.6c5.2-3.2,5.9-10.4,6-15.9c0.1-4.9,0.3-11.3-2.2-15.7c-3.3-5.6-10-5.5-14.7-1.9
				c-4.5,3.4-9.8,11.3-4.5,16.5c6,5.8,13.3-1.3,13.9-7.7c0.4-4.2-5.4-7.8-9-5.1c-0.4,0.3-0.9,0.7-1.3,1c-6,4.6-0.1,14.9,6,10.3
				c0.4-0.3,0.9-0.7,1.3-1c-3-1.7-6-3.4-9-5.1c1.3-0.8,2.6-1.5,3.8-2.3c1.2,0.9,2.4,1.8,3.6,2.7c2.7,4.2-1,1.5,1.5,0.9
				c3.2-0.8-1-3.9-1.9-2.2c-0.2,0.3,0.4,3.2,0.5,3.8c0.2,4.1,0.4,8.3-0.7,12.4c0.5-1.6,2,0.2,0.1-0.9c-0.6-0.4-1.5-0.4-2.1-0.7
				c-0.6-0.3-1.1-0.8-1.7-1.2c0.4,1.8,0.7,1.9,0.8,0.3c0.1-0.4,0.3-0.8,0.4-1.2c0.8-2.3,2-4.5,2.7-6.8c0.6-2.1,0.3-5.1,1.9-6.7
				C391.3-32.9,382.9-41.4,377.6-35.8L377.6-35.8z"/>
		</g>
	</g>
	<g class="st2">
		<g>
			<path class="st5" d="M397.5-25.8c-0.2,5.5-0.6,10,3,14.6c2.5,3.2,4.1,7.3,7.2,9.9c3.6,3,8.8,3.4,12.4,0.1
				c3.1-2.9,3.6-7.4,3.8-11.4c0.3-8.1,1.3-19.7-7.7-23.8c-7.3-3.3-19.7,4.6-21.3,11.9c-1.7,7.5,9.8,10.6,11.5,3.2
				c0.4-1.6,2.6-2.3,4-2.9c0.7-0.3,1.9-0.5,2.4-1c0.8-0.2,0.7-0.3-0.4-0.1c-1-0.2-1.2,0-0.6,0.7c-0.4,1.3,0.5,4.3,0.5,5.9
				c-0.1,1.9-0.1,3.8-0.2,5.6c0,0.7-0.7,3.1-0.4,3.6c3.4,0.3,4.6,0,3.5-1.2c-0.2-0.2-0.4-0.5-0.5-0.7c-0.2-0.8-0.9-1.6-1.3-2.3
				c-1-1.8-3-3.5-3.9-5.3c-0.9-2-0.1-4.7,0-6.9C409.6-33.5,397.7-33.5,397.5-25.8L397.5-25.8z"/>
		</g>
	</g>
	<g class="st2">
		<g>
			<path class="st6" d="M390.3-8.5c-0.1,4.2-0.9,8.4-0.6,12.7c0.5,5.7,3.7,11.8,10.3,11.2c6.9-0.6,8.5-8.3,8.4-14
				c-0.1-3.3-1.7-6.4-5.1-7.4c-3-0.9-6.3,0.5-7.9,3.1c-4,6.6,6.3,12.6,10.3,6c-0.2,0.3-0.3,0.5-0.5,0.8c-0.9,0.5-1.8,1-2.6,1.5
				c0.2,0,0.3-0.1,0.5-0.1c-1.1,0-2.1,0-3.2,0c0.2,0.1,0.3,0.1,0.5,0.2c-0.9-0.5-1.8-1-2.6-1.5c0.1,0.1,0.2,0.3,0.4,0.4
				c-0.5-0.9-1-1.8-1.5-2.6c0.1,0.4-0.5,1.9-0.2,2.4c-0.2,0.7-0.1,0.8,0.3,0.3c1.6,0,3.2-0.1,4.9-0.1c0.3,0.5,0.3,0.4,0-0.4
				c0,0,0,0.1,0,0.1c0.2-0.8-0.1-2-0.1-2.8c0.1-3.3,0.6-6.5,0.6-9.8C402.3-16.2,390.4-16.2,390.3-8.5L390.3-8.5z"/>
		</g>
	</g>
	<path class="st7" d="M432.9-154.3c0,0-17-6.7-19.5,6.5c0,0-5.7,10.4,12.7,28.6c18.4,18.2,79.6,71.5,79.6,71.5l16.6-23.9
		C522.3-71.7,452.2-142.4,432.9-154.3z"/>
	<path class="st8" d="M518.9-33.3l-11.7-10.1c0,0-3.9-2-0.8-6.4s15.9-21.9,15.9-21.9s1.2-1.1,4,0.9c2.8,1.9,9.8,10.1,9.8,10.1
		l1.7,1.5L518.9-33.3z"/>
	<path class="st9" d="M516.9-35c0,0-1.1,19.3,21.1,27.9c22.3,8.5,20.5-38.3,20.5-38.3s-6.3-16.4-21.8-14.9
		C521.5-50.9,516.9-35,516.9-35z"/>
	<path class="st10" d="M535.8-15c0,0-1,18.8,20.4,14.7s27.2-9.6,27.2-9.6s6.1-5.3-1.6-10.3s-15-17-15-17s-9.1-16.5-12.9-13.3
		C550.1-47.3,535.8-15,535.8-15z"/>
</g>
<g id="Camada_12">
</g>
<g id="Camada_5" class="st0">
	
		<image style="display:inline;overflow:visible;opacity:0.22;" width="3682" height="3663" xlink:href="E03610D2.jpg"  transform="matrix(6.325556e-02 1.354690e-02 -1.354690e-02 6.325556e-02 87.911 9.2076)">
	</image>
</g>
<g id="Camada_9">
</g>
<g id="Camada_7">
</g>
<g id="Camada_13">
</g>
<g id="Camada_16">
</g>
<g id="Camada_15">
</g>
<g id="Camada_17">
	<g>
		<path class="st11" d="M274.1,149.4c0.1,19.8-4.1,38.6-11.6,55.7c-21.1,47.6-68.6,80.8-124,81c-14.7,0.1-28.9-2.3-42.2-6.5
			c-25-8-46.8-23-63.1-42.8c-17-20.4-28.1-46-30.8-74c-0.4-4-0.6-8.2-0.6-12.3C1.6,104.3,24.5,63.3,59.7,38.7
			c4.6-3.3,9.4-6.2,14.4-8.8c7-3.8,14.4-6.8,22-9.4c7.2-2.3,14.7-4,22.4-5.2c6.2-0.8,12.5-1.3,18.9-1.4c25-0.1,48.5,6.6,68.8,18.3
			c3.7,2.1,7.1,4.3,10.5,6.8c16.2,11.5,29.8,26.5,39.7,43.9c1.1,2,2.2,3.9,3.2,6c0.8,1.8,1.7,3.5,2.5,5.3c2.6,5.8,4.8,11.7,6.6,17.8
			c2,6.8,3.5,13.9,4.3,21l0,0C273.8,138.4,274.1,143.9,274.1,149.4z"/>
	</g>
	<g>
		<g>
			<path class="st12" d="M288.9,52.8l-1.2,219.7c0,1.3-1.1,2.4-2.4,2.4l-22.6-0.2c-13.2-0.1-26.3-1.4-39.2-4L66.8,239.9
				c-7-1.4-12-7.5-11.9-14.6l0.4-173.4c0-1.3,1.1-2.4,2.4-2.4l228.8,0.9C287.9,50.3,288.9,51.4,288.9,52.8z"/>
			<path class="st13" d="M206.3,267.4c0,0-58.5-11.6-108.5-56.7c-1.3-1.1-3.3-0.7-3.9,0.9c-3.3,8.7-13.5,31-29.1,27.9l7.4,1.5
				L206.3,267.4z"/>
		</g>
		<g class="st14">
			<path class="st15" d="M149.4,170.5l-8.2-5.1c-0.5-0.3-1.1-0.2-1.4,0.3l-16.9,26.9c0,0-10.5,11.8-5.4,25.9
				c-1.8-1.3-3.3-2.8-4.7-4.6l-12.2-16.4c-5.3-7.1-5.7-16.7-1-24.2l14.7-23.5c0.3-0.5,0.2-1.1-0.3-1.4l-8.2-5.1
				c-0.8-0.5-0.6-1.8,0.3-2l34.6-7.9c1.1-0.2,2.1,0.4,2.3,1.5l7.9,34.6C151.2,170.3,150.2,171,149.4,170.5z"/>
			<path class="st4" d="M158.6,195.3v24.7c0,1.5-1.2,2.7-2.7,2.7h-26c-4.6,0-8.9-1.5-12.5-4.1c-5.1-14.1,5.4-25.9,5.4-25.9H156
				C157.5,192.6,158.6,193.8,158.6,195.3z"/>
			<g>
				<path class="st15" d="M180.5,136.3l8.5-4.6c0.5-0.3,0.7-0.9,0.4-1.4l-15.1-27.9c0,0-5.1-14.9-19.9-17.5c2-0.9,4.1-1.5,6.3-1.8
					l20.3-2.5c8.8-1.1,17.3,3.3,21.5,11.1l13.2,24.4c0.3,0.5,0.9,0.7,1.4,0.4l8.5-4.6c0.9-0.5,1.8,0.3,1.6,1.3l-10.2,34
					c-0.3,1-1.4,1.6-2.4,1.3l-34-10.2C179.8,138,179.7,136.7,180.5,136.3z"/>
				<path class="st4" d="M154.4,132.1L133,120c-1.3-0.7-1.7-2.3-1-3.6l12.8-22.6c2.3-4,5.7-7.1,9.7-8.9
					c14.8,2.5,19.9,17.5,19.9,17.5L158,131.1C157.3,132.4,155.7,132.8,154.4,132.1z"/>
			</g>
			<path class="st15" d="M194,179.9l-0.2,9.7c0,0.6,0.4,1,1,1.1l31.7,0.7c0,0,15.5,2.9,25-8.7c-0.2,2.2-0.7,4.3-1.5,6.4l-7.8,18.9
				c-3.4,8.2-11.4,13.4-20.3,13.2l-27.7-0.6c-0.6,0-1,0.4-1.1,1l-0.2,9.7c0,1-1.2,1.4-1.9,0.7l-24.5-25.6c-0.7-0.8-0.7-2,0.1-2.8
				l25.6-24.5C192.9,178.4,194,178.9,194,179.9z"/>
			<path class="st4" d="M210.5,159.2l21.2-12.7c1.3-0.8,2.9-0.3,3.6,0.9l13.3,22.3c2.3,3.9,3.3,8.4,3,12.8c-9.5,11.6-25,8.7-25,8.7
				l-17-28.4C208.8,161.6,209.2,160,210.5,159.2z"/>
		</g>
		<polygon class="st16" points="138.4,40.5 218,40.5 214.9,47.7 226.2,51.8 215.4,57.9 218.5,62.6 213.3,66.7 218.5,70.8 
			137.4,70.8 140.9,66.9 134.2,63 142.4,60.9 132.5,55.6 139.2,54.5 129.7,51.3 138.2,45.1 132,40.5 		"/>
		<polygon class="st17" points="215.4,57.9 218.5,62.6 213.3,66.7 218.5,70.8 137.4,70.8 140.9,66.9 134.2,63 142.4,60.9 
			132.5,55.6 139.2,54.5 221.5,54.5 		"/>
	</g>
</g>
<g id="Camada_4" class="st0">
	<g class="st2">
		<image style="overflow:visible;" width="115" height="114" xlink:href="E03610D2.png"  transform="matrix(1 0 0 1 26 19)">
		</image>
		<image style="overflow:visible;" width="34" height="42" xlink:href="E03610D6.png"  transform="matrix(1 0 0 1 122 106)">
		</image>
		<image style="overflow:visible;" width="67" height="59" xlink:href="E03610D5.png"  transform="matrix(1 0 0 1 136 119)">
		</image>
		<image style="overflow:visible;" width="50" height="50" xlink:href="E03610D3.png"  transform="matrix(1 0 0 1 155 131)">
		</image>
	</g>
</g>
<g id="Camada_18">
</g>
</svg>
