<svg xmlns="http://www.w3.org/2000/svg" id="Camada_1" x="0" y="0" version="1.1" viewBox="0 0 300 300" xml:space="preserve"><style>.st7{fill:#54c654}.st58{fill:#c75eeb}.st59{fill:#973dc1}.st61{fill:#515759}</style><path id="Camada_10_00000045611519587276569370000004663916450014064312_" fill="#008dd3" d="M284.2 145.6c.1 19.8-4.1 38.6-11.6 55.7-21.1 47.6-68.6 80.8-124 81-14.7.1-28.9-2.3-42.2-6.5-25-8-46.8-23-63.1-42.8-17-20.4-28.1-46-30.8-74-.4-4-.6-8.2-.6-12.3-.2-46.2 22.7-87.2 57.9-111.9 4.6-3.3 9.4-6.2 14.4-8.8 7-3.8 14.4-6.8 22-9.4 7.2-2.3 14.7-4 22.4-5.2 6.2-.8 12.5-1.3 18.9-1.4 25-.1 48.5 6.6 68.8 18.3 3.7 2.1 7.1 4.3 10.5 6.8C243 46.6 256.6 61.6 266.5 79c1.1 2 2.2 3.9 3.2 6 .8 1.8 1.7 3.5 2.5 5.3 2.6 5.8 4.8 11.7 6.6 17.8 2 6.8 3.5 13.9 4.3 21 .7 5.4 1.1 10.9 1.1 16.5z"/><path d="M161 121.1c17.4-74.1 46.7-96.6 66.4-103 .6.1 1.2.3 1.8.4 53.9 14.8 65.1 127.6 46.8 194-10.4 38-33.5 62.1-61.3 72.5-25.6-21-74.7-74.4-53.7-163.9z" class="st7"/><path fill="#00bf5f" d="M90 161.5C108 95.9 173.9 5.9 227.5 18.1c-19.7 6.4-49 28.8-66.4 103-21 89.5 28.1 143 53.8 164-18.5 7-39.1 7.7-59.3 2.4-50.2-14.2-82.9-62.6-65.6-126z"/><path d="M280.7 70.1c-.3-4.7-8.4-29.3-36.7-11.8-31.4 19.4-54.8 41.1-75 34.7 0 0-1.1 1.2-1.3 1.7-.2.5-.2 2-.2 2.7 5 1.2 10.6 1.7 16.9 1 31.1-3.4 54.5-28.4 68.8-29 16.8-.7 24.2 15 24.2 15s3.8-6.1 3.3-14.3z" class="st58"/><path d="M168.9 93.1c-5.5-1.7-10.7-5.5-15.8-12-6.9-8.8-4-24.7-4-24.7s-10.3-.3-10.8 9.7c-.4 8 8.9 26.2 29.1 31.3 0-.7 0-2.2.2-2.7.2-.4 1.3-1.6 1.3-1.6z" class="st59"/><path d="M277.4 208.6l-2.4 2.2s-4.3 10.8-23.6 9.1c-17.9-1.6-35-29.4-40.9-52.3-7.9-31-15-54.2-35-59.7-3.5-1-7.1-1.4-10.6-1.4-.1.1-2.4 2.8-2.7 4-.9 4 0 6 0 6 2.7.3 5.5.8 8.3 1.6 15.4 4.5 25.8 20.8 34.5 42.3 4.3 10.7 5.7 61.5 39.4 70.3 8.7 2.3 15.2 2.7 20 2 9-1.3 16.1-15.4 13-24.1z" class="st58"/><path d="M162.2 110.4c.3-1.2 2.6-3.9 2.7-4-38.8-.1-75.8 53-77.4 55.7-6.4 10.5-1.5 21.3-1.5 21.3s6.5-17.7 17.3-30.8c11.6-14 31.5-38.9 58.9-36.2 0 0-.9-2 0-6z" class="st59"/><path d="M259.8 246.3s-12.2-13.4-29.4-15.2c-17.3-1.8-32.2-1.2-49.4 19.4.9 3.3 2.8 7.3 6.5 8.5 1.4.5 3 .7 4.5.8 16.3-19.8 25.3-20.7 38.7-18.6 13.2 2.1 20.1 8.4 24.4 13.2 4.3 4.9 11.2-.6 4.7-8.1z" class="st58"/><path d="M187.6 259c-3.7-1.2-5.6-5.2-6.5-8.5-1.6 1.9-3.2 4-4.7 6.1-21.4 29.9-46.7 13.9-56.1 3-9.4-10.9-17.1-45.6-31.7-39.1-4.5 2-.3 12.1 5.7 14.7 10.1 4.3 9.4 12.9 14.7 23.6 9.1 18.3 53.1 45 69.6 19.6 4.6-7 9.1-13.2 13.6-18.7-1.6 0-3.2-.2-4.6-.7z" class="st59"/><path d="M281.1 95.7s-23.8-35.3-49.1-4.6c-25.3 30.7 1.7 77.4 10.9 86.7 11.1 11.3 36.4 20.2 42.9 2.6 5.3-14.3-2.3-13.6-2.3-13.6s-1.7 15.8-11.9 16.3c-1.7.1-29.3-3.6-36.3-36.3-2.6-12.3-3.6-43.8 10.7-51.9 14.2-8 32.4 7.2 36.5 17.8 0 0 3.3-5.2 2.1-8.2-1.7-3.7-3.5-8.8-3.5-8.8z" class="st58"/><path d="M261.3 139.5s1.8-18.3-4.9-18.6c-7.5-.3-12 24.2-2.1 38.1 9.9 13.9 32.2 8.5 34.9-1.6 2.8-10.1-5-16.3-5.1-12.5 0 1.4-.1 10.1-.1 10.1s-20 13.1-22.7-15.5z" class="st58"/><path d="M206.5 18c-15.7 6.8-33.4 24.3-38.5 49.9-3.8 18.9 10.7 17.5 13.6 7.8 3.3-10.9 16.2-44.2 40.9-48.7 24.6-4.5 28.1 4.2 28.1 4.2S238.7 4.1 206.5 18z" class="st59"/><path d="M250.6 31.2s-5.1-11.7-17.8-15.8c-3.3-.2-7.1 0-11 1.1-11.2 3-14.1 5.1-21.2 10.1-6.5 4.6-19.3 18.2-25.6 33.6-6.3 15.4-2.4 22.3-2.4 22.3 3.4.5 7.6-2.2 9-6.8 3.3-10.9 16.2-44.2 40.9-48.7s28.1 4.2 28.1 4.2z" class="st58"/><path d="M121.8 92.4s-7.4-13 6.1-14.1c4.4-.4 10.7 6.1 8.6 14-2.2 7.9-35.7 48.5-38.1 45.2-2.5-3.3-4.5-6.4-2.1-10.8 2.7-4.9 7.2-3.1 9.1-6.8 2-3.8 17.5-22.2 18.3-24.7.9-2.6-1.1-1.9-1.9-2.8z" class="st59"/><path fill="none" d="M132.9 151.8s-30.6 23.6-16.6 59.1c14.1 35.5 29.4 50.3 43.2 29.7 3.2-4.8 6.3-10.2 9.1-15.8-9.8-22.3-15.5-49.9-11.3-83.3-6.4.3-14.4 3.3-24.4 10.3z"/><path d="M182.6 175.1c-.9-10.7-5.7-34.5-25.3-33.6-4.2 33.4 1.5 61 11.3 83.3 9-18.2 15-38.7 14-49.7z" class="st7"/><path d="M159.6 240.7c-13.8 20.5-29.1 5.8-43.2-29.7-14.1-35.5 16.6-59.1 16.6-59.1 10-7 18-10 24.4-10.3.5-4.2 1.2-8.5 2.1-12.9-7.9.6-17.6 4.4-29.6 12.8 0 0-38.2 29.5-20.7 73.8 17.6 44.3 36.7 62.7 53.9 37.1 3.6-5.4 7.1-11.4 10.3-17.7-1.7-3.1-3.2-6.4-4.7-9.8-2.8 5.5-5.9 10.9-9.1 15.8z" class="st59"/><path d="M191.8 170.5c-1.2-13.5-7.3-43.8-32.4-41.8-.9 4.4-1.5 8.7-2.1 12.9 19.6-1 24.4 22.9 25.3 33.6 1 11-5 31.5-14 49.7 1.5 3.4 3.1 6.6 4.7 9.8 11.9-23.3 19.8-50.1 18.5-64.2z" class="st58"/><path d="M136.8 164.6s-21.3 16.4-11.5 41.1c9.8 24.7 20.4 34.9 30 20.7 3-4.5 5.8-9.7 8.2-15-5.1-15.7-8.1-33.6-7.4-53.8-4.9-.6-11.1 1.3-19.3 7z" class="st59"/><path d="M171.3 180.8c-.6-7-3.6-22-15.2-23.3-.7 20.2 2.3 38.1 7.4 53.8 5.1-11.6 8.4-23.7 7.8-30.5z" class="st58"/><path fill="#fff" d="M280.8 122.5c-1.9 38.8-15.6 63.7-35.9 58.1-20.4-5.6-40.3-25.1-37.8-78.3 1.7-36.1 18.8-62.5 39.2-57 20.3 5.6 36.3 41 34.5 77.2z" opacity=".31"/><circle cx="144.7" cy="172.9" r="27.2" class="st61"/><circle cx="143.7" cy="172.9" r="17.7" fill="#fff"/><path d="M98.3 137.5s-4.9 8.7-6.8 19c0 0 2.8 11.5 30.1 22.1l5-19.2c-.1 0-24.1-9.9-28.3-21.9zm183.1 51.9s1.8 10-3.9 19.3c0 0-9.4 18.4-121.9-15.7l7.8-18.8c-.1 0 103.1 29.3 118 15.2z" class="st61"/></svg>