<?xml version="1.0" encoding="utf-8"?>
<!-- Generator: Adobe Illustrator 22.1.0, SVG Export Plug-In . SVG Version: 6.00 Build 0)  -->
<svg version="1.1" id="Layer_1" xmlns="http://www.w3.org/2000/svg" xmlns:xlink="http://www.w3.org/1999/xlink" x="0px" y="0px"
	 viewBox="0 0 50 50" style="enable-background:new 0 0 50 50;" xml:space="preserve">
<style type="text/css">
	.st0{fill:#F56991;}
	.st1{fill:none;}
	.st2{fill:#DC5E82;}
	.st3{fill:#494949;}
</style>
<g>
	<g>
		<path class="st0" d="M48.4,9.6c0-1.4-1.1-2.5-2.5-2.5h-2.5l-0.8,0.7V5.6C42.5,4.2,41.4,3,40,3H4.5C3.1,3,1.9,4.2,1.9,5.6v22
			c0,0.5,0.2,1,0.4,1.4l46-16.8V9.6z"/>
	</g>
	<g>
		<path class="st1" d="M15.3,30.8l0.8-0.7h-0.2c-0.3,0-0.5,0.1-0.7,0.3L8,39l13-4.7h-8.6L15.3,30.8z"/>
	</g>
	<g>
		<path class="st2" d="M15.2,30.4c0.2-0.2,0.4-0.3,0.7-0.3h0.2l-0.8,0.7l-2.9,3.5H21L49.3,24V11.4l-48,17.5c0.5,0.7,1.3,1.2,2.2,1.2
			H7c0.5,0,0.9,0.4,0.9,0.9V39L8,39L15.2,30.4z"/>
	</g>
	<g>
		<polygon class="st3" points="8,39 7.9,39 7.9,39.1 		"/>
	</g>
	<g>
		<path class="st3" d="M48.2,26c-0.7,0-1.2-0.6-1.2-1.2V10.6c0-0.7-0.6-1.3-1.3-1.3h-2.5c-0.7,0-1.2-0.6-1.2-1.2s0.6-1.2,1.2-1.2
			h2.5c2.1,0,3.8,1.7,3.8,3.8v14.2C49.5,25.4,48.9,26,48.2,26z"/>
	</g>
	<g>
		<path class="st3" d="M42.7,47.2l-9-10.9H10.2l4.5-5.4c0.4-0.5,1.2-0.6,1.8-0.2c0.5,0.4,0.6,1.2,0.2,1.8l-1.1,1.3h18.4c0,0,0,0,0,0
			c0.6,0,1.2,0.3,1.6,0.8l4.8,5.7V36c0-1.2,0.9-2.1,2.1-2.1h3.4c0.7,0,1.3-0.6,1.3-1.3c0-0.7,0.6-1.2,1.2-1.2s1.2,0.6,1.2,1.2
			c0,2.1-1.7,3.8-3.8,3.8h-3V47.2z M33.9,36.4C33.9,36.4,33.9,36.4,33.9,36.4L33.9,36.4z"/>
	</g>
	<g>
		<path class="st3" d="M7.3,43.2V32.3h-3c-2.1,0-3.8-1.7-3.8-3.8v-22c0-2.1,1.7-3.8,3.8-3.8h35.5c2.1,0,3.8,1.7,3.8,3.8v22
			c0,2.1-1.7,3.8-3.8,3.8H16.3L7.3,43.2z M4.3,5.3C3.6,5.3,3,5.9,3,6.6v22c0,0.7,0.6,1.3,1.3,1.3h3.4c1.2,0,2.1,0.9,2.1,2.1v4.4
			l4.8-5.7c0.4-0.5,1-0.8,1.6-0.8h23.7c0.7,0,1.3-0.6,1.3-1.3v-22c0-0.7-0.6-1.3-1.3-1.3H4.3z M16.5,32.2L16.5,32.2
			C16.5,32.2,16.5,32.2,16.5,32.2L16.5,32.2z"/>
	</g>
	<g>
		<g>
			<rect x="14.6" y="11" class="st3" width="5.9" height="1.7"/>
		</g>
		<g>
			<rect x="25.6" y="11" class="st3" width="5.9" height="1.7"/>
		</g>
		<g>
			<rect x="14.6" y="14.3" class="st3" width="5.9" height="1.7"/>
		</g>
		<g>
			<rect x="14.6" y="17.7" class="st3" width="5.9" height="1.7"/>
		</g>
		<g>
			<rect x="25.6" y="14.3" class="st3" width="5.9" height="1.7"/>
		</g>
		<g>
			<rect x="25.6" y="17.7" class="st3" width="5.9" height="1.7"/>
		</g>
		<g>
			<path class="st1" d="M23.9,10.1v11.1c0.3-0.1,0.6-0.2,0.8-0.2h8.5V9.3h-8.5C24.3,9.3,23.9,9.6,23.9,10.1z"/>
		</g>
		<g>
			<path class="st1" d="M22.2,21.3V10.1c0-0.5-0.4-0.8-0.8-0.8h-8.5v11.8h8.5C21.7,21.1,21.9,21.2,22.2,21.3z"/>
		</g>
		<g>
			<path class="st3" d="M34.1,7.6h-9.3c-0.6,0-1.2,0.2-1.7,0.7c-0.5-0.4-1.1-0.7-1.7-0.7h-9.3c-0.5,0-0.8,0.4-0.8,0.8v16.9
				c0,0.5,0.4,0.8,0.8,0.8h22c0.5,0,0.8-0.4,0.8-0.8V8.4C34.9,7.9,34.5,7.6,34.1,7.6z M12.9,9.3h8.5c0.5,0,0.8,0.4,0.8,0.8v11.1
				c-0.3-0.1-0.6-0.2-0.8-0.2h-8.5V9.3z M32.1,24.5H14.6v-1.7h17.5V24.5z M33.2,21.1h-8.5c-0.3,0-0.6,0.1-0.8,0.2V10.1
				c0-0.5,0.4-0.8,0.8-0.8h8.5V21.1z"/>
		</g>
	</g>
</g>
</svg>
