<?xml version="1.0" encoding="utf-8"?>
<!-- Generator: Adobe Illustrator 22.0.1, SVG Export Plug-In . SVG Version: 6.00 Build 0)  -->
<svg version="1.1" id="Layer_1" xmlns="http://www.w3.org/2000/svg" xmlns:xlink="http://www.w3.org/1999/xlink" x="0px" y="0px"
	 viewBox="0 0 300 300" style="enable-background:new 0 0 300 300;" xml:space="preserve">
<style type="text/css">
	.st0{fill:#38A9C7;}
	.st1{fill:#FAC400;}
	.st2{fill:#4A5659;}
	.st3{fill:#5A6366;}
	.st4{fill:#AF3C22;}
	.st5{fill:#F2B903;}
	.st6{fill:#FFD200;}
	.st7{fill:#EAEAEA;}
	.st8{fill:#CECECE;}
	.st9{fill:#364144;}
</style>
<g>
	<path class="st0" d="M289.2,149.4c0.3,79.5-63.9,144.2-143.4,144.5c-44.8,0.2-84.8-20.1-111.4-52.1c-18-21.6-29.7-48.6-32.5-78.2
		c-0.4-4.3-0.6-8.7-0.6-13.1C0.9,71,65.1,6.3,144.6,6c53.8-0.2,100.9,29.2,125.8,72.8c5.5,9.6,9.9,19.9,13,30.8
		c2.1,7.2,3.6,14.6,4.6,22.2c0,0,0,0,0,0C288.8,137.6,289.2,143.5,289.2,149.4z"/>
	<g>
		<g>
			<path class="st1" d="M187.5,54.9l-7.9,3.1c-5-0.9-11.7,2.9-14.9,8.6l-55.6,69L170,27.9l2.3-4.1l-3.2-6l-7.4,4.1
				c-5-0.9-11.7,2.9-14.9,8.6L55,195.1c-1,1.9-4.2,2.8-4.2,2.8l2.9,5.3l0,0c0.1,0.2,0.3,0.5,0.4,0.7v0l17.5,35.5l0,0
				c1.1,1.9,2.4,3.3,4.6,3.8l10.6,2l2.3-4.1L188,64l2.3-4.1L187.5,54.9z"/>
		</g>
		<g>
			<path class="st2" d="M291.5,82.4L187.4,63.1L88.6,240.2l104.1,19.3c7.3,1.3,16.8-4.2,21.4-12.4l82.3-147.5
				C301,91.5,298.8,83.8,291.5,82.4"/>
			<polygon class="st2" points="88.6,240.2 87.4,237.1 296.6,83.9 298,87.3 123.5,246.6 			"/>
			<path class="st3" d="M290.3,79.3L186.2,60L87.4,237.1l104.1,19.3c7.3,1.3,16.8-4.2,21.4-12.4l82.3-147.5
				C299.8,88.4,297.6,80.7,290.3,79.3"/>
		</g>
		<polygon class="st4" points="87.4,237.1 70.6,204 81.4,185.2 99.4,212.6 89.6,233.1 		"/>
		<g>
			<polygon class="st5" points="86.9,245.2 65.8,203 169.1,17.8 181.9,42.5 89.6,233.1 87.4,237.1 88.6,240.2 89.6,240.4 			"/>
		</g>
		<g>
			<path class="st6" d="M169.1,17.8l-2.3,4.1L68,198.9l-2.3,4.1l-10.6-2c-5-0.9-6.6-6.3-3.4-12l91.9-164.6c3.2-5.7,9.8-9.5,14.9-8.6
				L169.1,17.8z"/>
		</g>
		<path class="st7" d="M275.9,54.9l-109.4-28L72,196.2l17.6,36.8l100.2,18.6c7,1.3,16.2-4,20.6-11.9l79.1-141.8
			c2-3.7,2.7-7.2,2.1-10.1L275.9,54.9z"/>
		<path class="st7" d="M289.5,97.9l-79.1,141.8c-4.4,7.9-13.6,13.2-20.6,11.9L89.6,233.1v0l-0.6-1.2l-0.1-0.2l-0.5-1.1l-0.1-0.2
			l-0.5-1.1l-0.1-0.3v0l-0.5-1.1l-0.1-0.3l-0.5-1.1l-0.1-0.2l-0.5-1.1l-0.1-0.3l-0.5-1.1l-0.1-0.2l-0.5-1.1l-0.1-0.3l-0.5-1.1
			l-0.1-0.3l-0.5-1.1l-0.1-0.3l-0.5-1.1l-0.1-0.3l-0.5-1.1l-0.1-0.2v0l-0.5-1.1l-0.1-0.3l-0.5-1.1l-0.1-0.2l-0.5-1.1l-0.1-0.3
			l-0.5-1.1l-0.1-0.3l-0.5-1.1l-0.1-0.2l-0.5-1.1l-0.1-0.3l-0.5-1.1v0l-0.1-0.2l-0.5-1.1l-0.1-0.3l-0.5-1.1l-0.1-0.3l-2.8-5.8
			l98.9-170.7l103.6,26.5l2.1,4.4l0.3,0.5l0.4,0.8c0,0,0,0,0,0l0.3,0.5l0,0l0.4,0.8c0,0,0,0,0,0l0.3,0.6l0.4,0.8l0,0l0.3,0.6
			l0.4,0.8l0,0v0l0.3,0.5c0,0,0,0,0,0l0.4,0.8l0,0l0.3,0.6c0,0,0,0,0,0l0.4,0.8l0.3,0.5c0,0,0,0,0,0l0.4,0.8l0.3,0.6c0,0,0,0,0,0
			l0.4,0.8c0,0,0,0,0,0l0.3,0.6l0.4,0.8l0.3,0.6l0.4,0.8c0,0,0,0,0,0l0.3,0.6l0.4,0.7l0.3,0.6c0,0,0,0,0,0l0.4,0.7c0,0,0,0,0,0
			l0.3,0.6c0,0,0,0,0,0l0.4,0.7l0.3,0.6c0,0,0,0,0,0l0,0l0.3,0.7c0,0,0,0,0,0l0.3,0.6l0.4,0.7l0.3,0.6c0,0,0,0,0,0l0.3,0.7l0,0
			l0.3,0.7c0,0,0,0,0,0l0.3,0.7l0.3,0.7l0.3,0.7c0,0,0,0,0,0l0.3,0.7l0.3,0.6c0,0,0,0,0,0l0.6,1.4l0.3,0.7l0.3,0.7c0,0,0,0,0,0l0,0
			C292.2,90.7,291.5,94.3,289.5,97.9z"/>
		<path class="st2" d="M273.6,46.2L169.4,26.9L70.6,204l104.1,19.3c7.3,1.3,16.8-4.2,21.4-12.4l82.3-147.5
			C283,55.3,280.8,47.6,273.6,46.2"/>
		<polygon class="st2" points="70.6,204 69.4,200.9 278.7,47.7 280,51.1 105.5,210.5 		"/>
		<path class="st3" d="M272.4,43.2L167.9,23.8L69.1,200.8l104.5,19.4c7.3,1.3,16.8-4.2,21.4-12.4l82.3-147.5
			C281.8,52.2,279.6,44.5,272.4,43.2"/>
		<g>
			<g>
				<path class="st8" d="M288.9,96.7l-79.1,141.8c-4,7.1-11.9,12.1-18.5,12.1c-0.7,0-1.5-0.1-2.2-0.2l-100-18.6l-0.1-0.2l0,0
					l100.2,18.6c6.9,1.3,16.1-4,20.5-11.8l79.1-141.8c1.9-3.4,2.7-7.2,2.2-10.1l0.3,0.7C291.5,90,290.7,93.5,288.9,96.7z"/>
			</g>
			<g>
				<path class="st8" d="M288.2,95.3l-79.1,141.8c-4,7.1-11.9,12.1-18.5,12.1c-0.7,0-1.5-0.1-2.2-0.2l-100-18.6l-0.1-0.2l100.1,18.6
					c6.9,1.3,16.1-4,20.5-11.8L288,95.2c1.9-3.5,2.8-7.2,2.2-10.1l0.3,0.7C290.9,88.6,290,92.1,288.2,95.3z"/>
			</g>
			<g>
				<path class="st8" d="M287.5,94l-79.1,141.8c-4,7.1-11.9,12.2-18.5,12.2c-0.7,0-1.5-0.1-2.2-0.2l-99.9-18.5l-0.1-0.3l100.1,18.6
					c6.9,1.3,16.1-4,20.5-11.8l79.1-141.8c1.9-3.5,2.8-7.2,2.3-10.1l0.3,0.7C290.2,87.2,289.3,90.7,287.5,94z"/>
			</g>
			<g>
				<path class="st8" d="M286.8,92.6l-79.1,141.8c-4,7.1-11.9,12.1-18.5,12.1c-0.7,0-1.5-0.1-2.2-0.2l-99.9-18.5l-0.1-0.3l100,18.6
					c6.9,1.3,16.1-4,20.5-11.8l79.1-141.8c2-3.5,2.8-7.3,2.3-10.1l0.3,0.7C289.5,85.9,288.7,89.4,286.8,92.6z"/>
			</g>
			<g>
				<path class="st8" d="M286.1,91.3L207,233.1c-4,7.1-11.9,12.2-18.5,12.2c-0.7,0-1.5-0.1-2.2-0.2l-99.8-18.5l-0.1-0.2l100,18.5
					c6.9,1.3,16.1-4,20.5-11.8l79.1-141.8c2-3.5,2.9-7.3,2.4-10.2l0.3,0.7c0,0,0,0,0,0C288.9,84.5,288,88,286.1,91.3z"/>
			</g>
			<g>
				<path class="st8" d="M285.5,89.9l-79.1,141.8c-4,7.1-11.9,12.1-18.5,12.1c-0.7,0-1.5-0.1-2.2-0.2l-99.7-18.5l-0.1-0.3l99.9,18.5
					c6.9,1.3,16.1-4,20.5-11.8l79.1-141.8c2-3.5,2.9-7.3,2.4-10.1l0.3,0.6c0,0,0,0,0,0C288.2,83.1,287.3,86.6,285.5,89.9z"/>
			</g>
			<g>
				<path class="st8" d="M284.8,88.6l-79.1,141.8c-4,7.1-11.9,12.1-18.5,12.1c-0.7,0-1.5-0.1-2.2-0.2l-99.7-18.5l-0.1-0.2l99.9,18.5
					c6.9,1.3,16.1-4,20.5-11.8l79.1-141.8c2-3.5,2.9-7.4,2.5-10.2l0.3,0.6C287.5,81.7,286.6,85.3,284.8,88.6z"/>
			</g>
			<g>
				<path class="st8" d="M286.7,77.6C286.7,77.6,286.7,77.6,286.7,77.6L286.7,77.6c0.2,2.8-0.7,6.4-2.6,9.7L205,229.1
					c-4,7.1-11.9,12.2-18.5,12.2c-0.7,0-1.5-0.1-2.2-0.2l-99.6-18.5l-0.1-0.3l99.8,18.5c6.9,1.3,16.1-4,20.5-11.8l79.1-141.8
					c2-3.6,2.9-7.4,2.5-10.2L286.7,77.6z"/>
			</g>
			<g>
				<path class="st8" d="M283.4,85.9l-79.1,141.8c-4,7.1-11.9,12.1-18.5,12.1c-0.7,0-1.5-0.1-2.2-0.2L84,221.2l-0.1-0.3l99.7,18.5
					c6.9,1.3,16.1-4,20.5-11.8l79.1-141.8c2-3.6,3-7.4,2.6-10.2l0.3,0.6c0,0,0,0,0,0C286.2,79,285.3,82.5,283.4,85.9z"/>
			</g>
			<g>
				<path class="st8" d="M282.7,84.6l-79.1,141.8c-4,7.1-11.9,12.2-18.5,12.2c-0.7,0-1.5-0.1-2.2-0.2l-99.5-18.5l-0.1-0.3l99.7,18.5
					c6.9,1.3,16.1-4,20.5-11.8l79.1-141.8c2-3.6,3-7.5,2.6-10.2l0.3,0.6c0,0,0,0,0,0C285.6,77.6,284.6,81.2,282.7,84.6z"/>
			</g>
			<g>
				<path class="st8" d="M282,83.2L202.9,225c-4,7.1-11.9,12.1-18.5,12.1c-0.7,0-1.5-0.1-2.2-0.2l-99.5-18.5l-0.1-0.3l99.6,18.5
					c6.9,1.3,16.1-4,20.5-11.8l79.1-141.8c2-3.6,3-7.5,2.6-10.2l0.3,0.6C284.9,76.2,283.9,79.8,282,83.2z"/>
			</g>
			<g>
				<path class="st8" d="M281.3,81.9l-79.1,141.8c-4,7.1-11.9,12.2-18.5,12.2c-0.7,0-1.5-0.1-2.2-0.2l-99.4-18.5l-0.1-0.2l99.6,18.5
					c6.9,1.3,16.1-4,20.5-11.8l79.1-141.8c2.1-3.7,3-7.5,2.7-10.2l0.3,0.6C284.2,74.8,283.2,78.4,281.3,81.9z"/>
			</g>
			<g>
				<path class="st8" d="M283.1,70.2C283.1,70.2,283.1,70.2,283.1,70.2c0.4,2.7-0.6,6.6-2.7,10.3l-79.1,141.8
					c-4.4,7.8-13.5,13.1-20.5,11.8l-99.5-18.5l0.1,0.3l99.4,18.4c0.7,0.1,1.4,0.2,2.2,0.2c6.7,0,14.6-5,18.5-12.1l79.1-141.8
					c1.9-3.5,3-7.1,2.8-9.8L283.1,70.2z"/>
			</g>
			<g>
				<path class="st8" d="M282.8,69.4c0.1,2.7-0.9,6.3-2.9,9.8L200.8,221c-4,7.1-11.9,12.1-18.5,12.1c-0.7,0-1.5-0.1-2.2-0.2
					l-99.3-18.4l-0.1-0.2l99.5,18.5c6.9,1.3,16.1-4,20.5-11.8l79.1-141.8c2.1-3.7,3.1-7.6,2.8-10.3L282.8,69.4
					C282.8,69.4,282.8,69.4,282.8,69.4z"/>
			</g>
			<g>
				<path class="st8" d="M282.1,68c0.1,2.7-0.9,6.3-2.9,9.8l-79.1,141.8c-4,7.1-11.9,12.2-18.5,12.2c-0.7,0-1.5-0.1-2.2-0.2
					l-99.3-18.4l-0.1-0.3l99.4,18.5c6.9,1.3,16.1-4,20.5-11.8L279,77.7c2.1-3.8,3.1-7.6,2.8-10.3L282.1,68
					C282.1,68,282.1,68,282.1,68z"/>
			</g>
			<g>
				<path class="st8" d="M281.5,66.7C281.5,66.7,281.5,66.7,281.5,66.7c0.1,3.1-1.4,7-2.9,9.8l-79.1,141.8
					c-4,7.1-11.9,12.1-18.5,12.1c-0.7,0-1.5-0.1-2.2-0.2l-99.2-18.4l-0.1-0.3l99.4,18.4c6.9,1.3,16.1-4,20.5-11.8l79.1-141.8
					c2.1-3.8,3.2-7.7,2.8-10.3L281.5,66.7z"/>
			</g>
			<g>
				<path class="st8" d="M280.6,64.7C280.6,64.7,280.6,64.7,280.6,64.7c0.4,3.1-1.2,7.3-2.9,10.3l-79.1,141.8
					c-4.4,7.8-13.5,13.1-20.5,11.8l-99.3-18.4l0.1,0.2l99.2,18.4c0.7,0.1,1.4,0.2,2.2,0.2c6.7,0,14.6-5.1,18.5-12.2l79.1-141.8
					c1.6-2.9,3.1-6.8,3-9.8c0,0,0,0,0,0L280.6,64.7z"/>
			</g>
			<g>
				<path class="st8" d="M280.2,63.9c0.1,3.1-1.4,7-3,9.9l-79.1,141.8c-4,7.1-11.9,12.1-18.5,12.1c-0.8,0-1.5-0.1-2.2-0.2
					l-99.1-18.4l-0.1-0.3l99.3,18.4c6.9,1.3,16.1-4,20.5-11.8L277,73.7c1.7-3,3.3-7.3,2.9-10.3L280.2,63.9z"/>
			</g>
			<g>
				<path class="st8" d="M279.5,62.6c0.1,3-1.4,7-3,9.9l-79.1,141.8c-4,7.1-11.9,12.1-18.5,12.1c-0.7,0-1.5-0.1-2.2-0.2l-99.1-18.4
					v0l-0.1-0.2l99.2,18.4c6.9,1.3,16.1-4,20.5-11.8l79.1-141.8c1.7-3.1,3.3-7.3,3-10.4L279.5,62.6z"/>
			</g>
			<g>
				<path class="st8" d="M278.8,62.9c-0.4,2.7-1.6,5.8-3,8.3l-79.1,141.8c-4,7.1-11.9,12.2-18.5,12.2c-0.7,0-1.5-0.1-2.2-0.2
					l-99-18.4l-0.1-0.3l99.2,18.4c6.9,1.3,16.1-4,20.5-11.8L275.6,71c1.2-2.2,2.4-5,2.9-7.6C278.6,63.2,278.7,63.1,278.8,62.9z"/>
			</g>
		</g>
		<g>
			<path class="st9" d="M226.4,96.3l-30.5-5.5l-1.9,3.5c0.6,0.2,1.4,0.6,2.4,1.1c1,0.5,1.7,1,2.2,1.5c0.7,0.7,1.1,1.5,1,2.3
				c-0.1,0.8-0.4,1.7-0.9,2.8l-10.3,18.7l-24.1-4.4l10.5-19.1c0.5-1,1.2-1.8,2-2.6c0.8-0.8,1.8-1.3,3.1-1.5c0.7-0.1,1.7-0.2,3-0.2
				c1.3,0,2.3,0,3.2,0.1l1.9-3.5l-30.5-5.5l-1.9,3.5c0.5,0.2,1.3,0.5,2.4,1.1c1.1,0.5,1.9,1.1,2.4,1.6c0.7,0.7,1.1,1.5,1,2.3
				c-0.1,0.8-0.4,1.7-1,2.8l-24.9,45.2c-0.6,1.1-1.3,2-2.1,2.7c-0.8,0.7-1.8,1.2-3,1.4c-0.7,0.1-1.8,0.2-3.1,0.1
				c-1.4-0.1-2.4-0.1-3.1-0.2l-1.9,3.5l30.5,5.5l1.9-3.5c-0.7-0.2-1.6-0.5-2.7-1c-1.1-0.5-1.8-0.9-2.2-1.2c-0.7-0.6-1-1.4-0.9-2.2
				c0.1-0.9,0.4-1.8,0.9-2.9l11.8-21.5l24.1,4.4l-12.1,22c-0.6,1.1-1.3,2-2.1,2.7c-0.8,0.7-1.8,1.1-3,1.4c-0.6,0.2-1.6,0.2-2.9,0.1
				c-1.3-0.1-2.4-0.2-3.1-0.3l-1.9,3.5l30.5,5.5l1.9-3.5c-0.7-0.2-1.6-0.5-2.7-1c-1.1-0.5-1.8-0.9-2.3-1.3c-0.7-0.7-1.1-1.4-1-2.3
				c0.1-0.8,0.4-1.8,1-2.8l24.9-45.3c0.5-1,1.2-1.9,2-2.7c0.8-0.8,1.8-1.3,3-1.5c1-0.1,2.1-0.2,3.3-0.2c1.2,0,2.2,0,3.1,0.1
				L226.4,96.3"/>
		</g>
		<g>
			<path class="st9" d="M226.4,96.3l-0.5,0.9l-1.4,2.6c-0.9-0.1-1.9-0.1-3.1-0.1c-1.2,0-2.3,0.1-3.3,0.2c-1.2,0.2-2.2,0.7-3,1.5
				c-0.8,0.8-1.5,1.7-2,2.7l-24.9,45.3c-0.6,1.1-0.9,2-1,2.8c-0.1,0.8,0.3,1.6,1,2.3c0.2,0.1,0.4,0.3,0.6,0.4c0.4,0.3,1,0.6,1.7,0.9
				c1.1,0.5,2,0.8,2.7,1l-0.4,0.7l-1.5,2.8l-28.7-5.2l-1.8-0.3l1.9-3.5c0.7,0.1,1.7,0.1,3,0.3c1.3,0.1,2.3,0.1,2.9-0.1
				c1.2-0.3,2.2-0.8,3-1.4c0.8-0.7,1.5-1.6,2.1-2.7l11.6-21.1l0.5-0.9l-24.1-4.4l-11.8,21.5c-0.6,1-0.9,2-0.9,2.9
				c-0.1,0.9,0.3,1.6,0.9,2.2c0.1,0.1,0.4,0.3,0.6,0.4c0.4,0.2,0.9,0.5,1.5,0.8c1.1,0.5,2,0.8,2.7,1l-0.4,0.7l-1.6,2.8l-28.7-5.2
				l-1.8-0.3l1.9-3.5c0.7,0.1,1.7,0.2,3.1,0.2c1.4,0.1,2.4,0,3.1-0.1c1.2-0.2,2.2-0.7,3-1.4c0.8-0.7,1.5-1.6,2.1-2.7l24.9-45.2
				c0.6-1.1,0.9-2,1-2.8c0-0.5-0.1-1.1-0.4-1.6c-0.1-0.2-0.3-0.5-0.6-0.7c-0.6-0.5-1.4-1.1-2.4-1.6c-0.3-0.1-0.5-0.3-0.8-0.4
				c-0.7-0.3-1.2-0.5-1.6-0.7l1.9-3.5l30.5,5.5l-0.5,0.9l-1.4,2.6c-0.9-0.1-1.9-0.1-3.2-0.1c-1.3,0-2.3,0.1-3,0.2
				c-1.3,0.2-2.3,0.7-3.1,1.5c-0.8,0.8-1.5,1.7-2,2.6l-10.5,19.1l1.8,0.3l-0.5,0.9l24.1,4.4l10.3-18.7c0.6-1.1,0.9-2,0.9-2.8
				c0.1-0.8-0.3-1.5-1-2.3c-0.2-0.2-0.4-0.4-0.7-0.6c-0.1-0.2-0.3-0.4-0.5-0.7c-0.5-0.5-1.2-1-2.2-1.5c-0.3-0.2-0.6-0.3-0.8-0.4
				c-0.6-0.3-1.1-0.5-1.6-0.7l1.9-3.5L226.4,96.3z"/>
		</g>
		<g>
			<path class="st2" d="M225.8,97.3l-1.4,2.6c-0.9-0.1-1.9-0.1-3.1-0.1c-1.2,0-2.3,0.1-3.3,0.2c-1.2,0.2-2.2,0.7-3,1.5
				c-0.8,0.8-1.5,1.7-2,2.7l-24.9,45.3c-0.6,1.1-0.9,2-1,2.8c-0.1,0.8,0.3,1.6,1,2.3c0.2,0.1,0.4,0.3,0.6,0.4
				c0.2,0.3,0.4,0.5,0.7,0.8c0.5,0.4,1.2,0.9,2.3,1.3c0.4,0.2,0.7,0.3,1.1,0.4l-1.5,2.8l-28.7-5.2l1.4-2.6c0.7,0.1,1.7,0.1,3,0.3
				c1.3,0.1,2.3,0.1,2.9-0.1c1.2-0.3,2.2-0.7,3-1.4c0.8-0.7,1.5-1.6,2.1-2.7l12.1-22l-1.3-1.3l-24.1-4.4l-11.8,21.5
				c-0.6,1-0.9,2-0.9,2.9c-0.1,0.9,0.3,1.6,0.9,2.2c0.1,0.1,0.4,0.3,0.6,0.4c0.2,0.3,0.4,0.6,0.6,0.8c0.4,0.3,1.1,0.7,2.2,1.2
				c0.4,0.2,0.7,0.3,1.1,0.5l-1.6,2.8l-28.7-5.2l1.4-2.6c0.7,0.1,1.7,0.2,3.1,0.2c1.4,0.1,2.4,0,3.1-0.1c1.2-0.2,2.2-0.7,3-1.4
				c0.8-0.7,1.5-1.6,2.1-2.7l24.9-45.2c0.6-1.1,0.9-2,1-2.8c0.1-0.8-0.3-1.5-1-2.3c-0.2-0.2-0.4-0.4-0.7-0.6
				c-0.1-0.2-0.3-0.5-0.6-0.7c-0.6-0.5-1.4-1.1-2.4-1.6c-0.3-0.1-0.5-0.3-0.8-0.4l1.6-2.9l28.7,5.2l-1.4,2.6
				c-0.9-0.1-1.9-0.1-3.2-0.1c-1.3,0-2.3,0.1-3,0.2c-1.3,0.2-2.3,0.7-3.1,1.5c-0.8,0.8-1.5,1.7-2,2.6l-10.5,19.1l1.3,1.3l24.1,4.4
				l10.3-18.7c0.6-1.1,0.9-2,0.9-2.8c0.1-0.8-0.3-1.5-1-2.3c-0.2-0.2-0.4-0.4-0.7-0.6c-0.1-0.2-0.3-0.4-0.5-0.7
				c-0.5-0.5-1.2-1-2.2-1.5c-0.3-0.2-0.6-0.3-0.8-0.4l1.6-2.9L225.8,97.3z"/>
		</g>
	</g>
</g>
</svg>
