<svg xmlns="http://www.w3.org/2000/svg" version="1.0" viewBox="0 0 300 300"><path fill="#9C25D3" d="M295.16 154.278c.309 80.167-64.432 145.411-144.599 145.721-45.135.174-85.537-20.264-112.276-52.48-18.126-21.812-29.98-49.015-32.796-78.86a146.26 146.26 0 01-.648-13.258C4.53 75.234 69.271 9.989 149.439 9.68c54.28-.213 101.718 29.409 126.792 73.441a143.852 143.852 0 0113.141 31.006 143.929 143.929 0 014.645 22.413s.009.01 0 .01a144.83 144.83 0 011.143 17.728z"/><path fill="#009DDA" d="M185.569 57.469l-8.085 3.215c-5.185-.962-12.032 2.993-15.289 8.832l-57.177 70.976 62.547-110.813 2.332-4.181-3.297-6.206-7.584 4.186c-5.185-.962-12.032 2.993-15.289 8.832L49.241 201.672c-1.062 1.903-4.326 2.901-4.326 2.901l3.024 5.462.017.006c.147.253.295.498.444.733l18.007 36.466.017.006c1.164 2.002 2.482 3.403 4.775 3.949l10.881 2.02 2.332-4.181 101.62-182.151 2.332-4.181-2.795-5.233z"/><path fill="#435559" d="M292.526 85.789l-107.13-19.888-101.62 182.151 107.13 19.888c7.467 1.386 17.326-4.309 22.022-12.725l84.621-151.681c4.694-8.416 2.444-16.359-5.023-17.745"/><path fill="#435559" d="M83.776 248.052l-1.234-3.172L297.785 87.333l1.364 3.45L119.696 254.72z"/><path fill="#556366" d="M291.292 82.616l-107.13-19.888L82.542 244.88l107.13 19.888c7.467 1.386 17.326-4.309 22.022-12.725l84.621-151.681c4.695-8.416 2.444-16.36-5.023-17.746"/><path fill="#CA391A" d="M82.542 244.88l-17.234-34.033 11.096-19.359L94.91 219.71l-10.039 21.036z"/><path fill="#0089D1" d="M82.08 253.216l-21.765-43.405L166.6 19.292l13.191 25.417-94.92 196.037-2.329 4.134 1.234 3.172 1.095.203z"/><path fill="#00B0ED" d="M166.6 19.299l-2.332 4.181L62.647 205.631l-2.332 4.181-10.881-2.02c-5.185-.963-6.748-6.479-3.49-12.318L140.43 26.111c3.258-5.839 10.105-9.794 15.289-8.832l10.881 2.02z"/><path fill="#EAEAEA" d="M276.422 57.469L163.925 28.696 66.769 202.842l18.102 37.903 103.026 19.126c7.181 1.333 16.663-4.144 21.178-12.237l81.38-145.87c2.098-3.76 2.737-7.414 2.118-10.391l-16.151-33.904z"/><path fill="#EAEAEA" d="M290.454 101.764l-81.382 145.867c-4.515 8.097-13.991 13.574-21.171 12.242L84.876 240.747v-.009l-.592-1.231-.111-.222-.546-1.157-.121-.25-.537-1.12-.129-.258v-.009l-.528-1.101-.12-.259-.537-1.12-.12-.25-.527-1.12-.13-.259-.537-1.12-.12-.25-.527-1.11-.13-.268-.528-1.11-.12-.259-.537-1.11-.129-.268-.528-1.101-.12-.259-.537-1.12-.12-.25v-.009l-.527-1.11-.13-.259-.537-1.12-.12-.25-.528-1.12-.129-.259-.528-1.11-.129-.259-.528-1.12-.12-.25-.537-1.12-.12-.259-.537-1.11v-.009l-.12-.25-.537-1.11-.12-.268-.528-1.101-.129-.268-2.854-5.973 101.71-175.604 106.529 27.25 2.165 4.543.268.564.389.824s.009.009.009.018l.259.537.009.009.379.805c.019.009.019.009.009.019l.277.592.389.823.009.009.277.583.389.814.009.009v.009l.268.555v.009l.37.777.009.009.296.629v.009l.38.787.277.564c0 .009.009.028.009.037l.38.796.277.601s.009 0 .009.009l.37.777s.009.009.009.018l.287.601.379.796.287.601.37.786c.009 0 .009 0 .009.009l.296.62.361.759.296.62c.009.009.009.009.009.019l.361.759c.009.009.009.019.009.028l.287.583c.009.009.009.019.009.028l.361.768.296.62c.009.009.009.009 0 .019l.009.009.352.731c.009.009.009.009.009.018l.305.638.361.759.305.638.009.009.333.713.009.009.314.675c0 .009.009.019.009.028l.333.685.333.703.333.703c.009.009.009.019.009.028l.333.685.314.648c0 .009.009.009.009.018l.666 1.425.333.675.324.685c.009.009.009.009.009.019l.019.046c.628 2.985-.01 6.64-2.11 10.397z"/><path fill="#435559" d="M274.058 48.583l-107.13-19.888-101.62 182.152 107.13 19.888c7.467 1.386 17.326-4.309 22.022-12.725l84.62-151.681c4.696-8.416 2.445-16.36-5.022-17.746"/><path fill="#435559" d="M65.308 210.847l-1.234-3.173L279.317 50.128l1.365 3.45-179.453 163.937z"/><path fill="#556366" d="M272.824 45.411L165.377 25.454 63.757 207.605l107.447 19.956c7.467 1.386 17.326-4.309 22.022-12.725l84.621-151.681c4.695-8.415 2.444-16.358-5.023-17.744"/><path fill="#CECECE" d="M289.843 100.441L208.47 246.308c-4.081 7.301-12.214 12.492-19.062 12.492-.768 0-1.518-.065-2.239-.194L84.283 239.507l-.111-.222.009-.037 103.025 19.126c7.134 1.323 16.573-4.136 21.06-12.177l81.372-145.877c1.971-3.507 2.794-7.366 2.249-10.373l.333.675c.315 2.935-.536 6.525-2.377 9.819z"/><path fill="#CECECE" d="M289.14 99.053L207.758 244.93c-4.071 7.292-12.214 12.492-19.052 12.492-.768 0-1.527-.065-2.249-.204L83.626 238.129l-.121-.25 102.988 19.117c7.134 1.323 16.572-4.145 21.06-12.186l81.382-145.867c1.98-3.553 2.832-7.43 2.286-10.419l.333.713c.306 2.913-.573 6.503-2.414 9.816z"/><path fill="#CECECE" d="M288.427 97.674l-81.382 145.867c-4.071 7.301-12.205 12.501-19.053 12.501-.768 0-1.517-.074-2.248-.204l-102.775-19.08-.129-.258 102.951 19.108c7.125 1.323 16.573-4.136 21.051-12.177l81.382-145.867c1.989-3.572 2.859-7.43 2.341-10.391l.333.685c.268 2.895-.611 6.485-2.471 9.816z"/><path fill="#CECECE" d="M287.715 96.286l-81.382 145.877c-4.071 7.301-12.205 12.492-19.052 12.492-.768 0-1.518-.065-2.249-.204L82.312 235.39l-.12-.259 102.886 19.099c7.135 1.323 16.573-4.145 21.051-12.177l81.382-145.877c2.017-3.618 2.896-7.486 2.378-10.438l.333.703c.278 2.887-.629 6.486-2.507 9.845z"/><path fill="#CECECE" d="M287.002 94.908L205.63 240.775c-4.081 7.301-12.214 12.501-19.062 12.501-.768 0-1.518-.065-2.24-.204L81.655 234.011l-.12-.25 102.831 19.08c7.134 1.332 16.573-4.136 21.06-12.177l81.372-145.867c2.045-3.646 2.943-7.523 2.433-10.447l.314.675c0 .009.009.019.009.028.261 2.869-.665 6.468-2.552 9.855z"/><path fill="#CECECE" d="M286.299 93.529l-81.382 145.867c-4.071 7.301-12.214 12.492-19.052 12.492-.768 0-1.527-.065-2.248-.194L81.008 232.641l-.13-.259 102.775 19.08c7.134 1.323 16.572-4.145 21.06-12.177l81.382-145.877c2.008-3.6 2.942-7.551 2.48-10.428l.305.638.009.009c.251 2.851-.684 6.469-2.59 9.902z"/><path fill="#CECECE" d="M285.586 92.141l-81.382 145.876c-4.072 7.292-12.205 12.492-19.053 12.492-.768 0-1.518-.065-2.249-.204L80.341 231.263l-.12-.25 102.729 19.071c7.125 1.323 16.573-4.145 21.051-12.186L285.382 92.03c2.036-3.636 2.971-7.597 2.527-10.447l.305.638c.232 2.832-.731 6.515-2.628 9.92z"/><path fill="#CECECE" d="M287.539 80.806c.009.009.009.009 0 .019l.009.009c.213 2.822-.768 6.505-2.674 9.929L203.492 236.63c-4.071 7.301-12.205 12.501-19.052 12.501-.768 0-1.518-.074-2.249-.204L79.693 229.902l-.13-.268 102.673 19.062c7.134 1.323 16.572-4.136 21.051-12.177L284.67 90.651c2.045-3.674 3.017-7.634 2.572-10.465l.297.62z"/><path fill="#CECECE" d="M284.161 89.374L202.789 235.25c-4.081 7.301-12.214 12.492-19.062 12.492-.768 0-1.518-.065-2.239-.204L79.036 228.524l-.12-.259 102.609 19.052c7.134 1.323 16.573-4.145 21.06-12.186l81.372-145.867c2.063-3.683 3.044-7.643 2.628-10.456l.287.583c.009.009.009.019.009.028.204 2.812-.786 6.504-2.72 9.955z"/><path fill="#CECECE" d="M283.449 87.996l-81.372 145.867c-4.071 7.301-12.214 12.501-19.052 12.501-.768 0-1.527-.065-2.249-.204L78.379 227.154l-.129-.268 102.562 19.043c7.125 1.323 16.573-4.136 21.06-12.177l81.382-145.867c2.082-3.729 3.072-7.699 2.656-10.502l.296.62c.009.009.009.009.009.019.185 2.793-.823 6.494-2.766 9.974z"/><path fill="#CECECE" d="M282.746 86.617l-81.382 145.867c-4.071 7.301-12.214 12.492-19.052 12.492a12.92 12.92 0 01-2.249-.194l-102.34-18.997-.12-.259L180.1 244.55c7.134 1.323 16.573-4.145 21.06-12.177l81.382-145.877c2.091-3.748 3.1-7.708 2.711-10.493l.296.62c.176 2.776-.851 6.487-2.803 9.994z"/><path fill="#CECECE" d="M282.033 85.229l-81.382 145.867c-4.071 7.301-12.205 12.501-19.052 12.501-.768 0-1.518-.065-2.249-.204L77.065 224.406l-.12-.25 102.452 19.015c7.134 1.323 16.572-4.145 21.051-12.186L281.83 85.118c2.11-3.775 3.137-7.745 2.757-10.512l.287.601c.166 2.767-.861 6.487-2.841 10.022z"/><path fill="#CECECE" d="M283.911 73.19s.009.009.009.019c.37 2.748-.675 6.727-2.804 10.53l-81.373 145.867c-4.488 8.041-13.926 13.51-21.06 12.177L76.288 222.777l.13.259 102.22 18.978c.731.13 1.48.194 2.249.194 6.847 0 14.981-5.191 19.052-12.492L281.32 83.85c1.989-3.562 3.044-7.282 2.887-10.04l-.296-.62z"/><path fill="#CECECE" d="M283.541 72.413c.139 2.739-.925 6.459-2.933 10.049l-81.372 145.877c-4.081 7.301-12.214 12.492-19.062 12.492-.768 0-1.518-.065-2.239-.204L75.752 221.658l-.12-.25 102.34 18.997c7.134 1.323 16.572-4.145 21.06-12.186l81.382-145.867c2.138-3.831 3.202-7.81 2.841-10.549l.277.601s.009 0 .009.009z"/><path fill="#CECECE" d="M282.875 71.007c.13 2.73-.953 6.459-2.97 10.077l-81.382 145.867c-4.071 7.301-12.214 12.501-19.053 12.501-.768 0-1.517-.065-2.248-.204l-102.119-18.96-.129-.259 102.285 18.988c7.134 1.332 16.573-4.136 21.06-12.177l81.382-145.867c2.156-3.868 3.229-7.847 2.887-10.567l.277.564c.001.009.01.027.01.037z"/><path fill="#CECECE" d="M282.209 69.609v.009c.139 3.165-1.397 7.171-3.016 10.077L197.81 225.572c-4.071 7.301-12.205 12.492-19.052 12.492a12.92 12.92 0 01-2.249-.194L74.447 218.919l-.129-.259 102.238 18.978c7.125 1.323 16.573-4.145 21.051-12.177l81.382-145.877c2.184-3.905 3.266-7.893 2.924-10.604l.296.629z"/><path fill="#CECECE" d="M281.256 67.611s.009 0 .009.009c.379 3.165-1.249 7.486-2.989 10.586l-81.382 145.867c-4.479 8.041-13.926 13.51-21.051 12.186L73.67 217.29l.12.25 102.007 18.941c.731.139 1.48.204 2.249.204 6.847 0 14.981-5.2 19.052-12.501L278.48 78.317c1.647-2.943 3.202-6.977 3.054-10.123v-.009l-.278-.574z"/><path fill="#CECECE" d="M280.867 66.796c.12 3.146-1.443 7.18-3.099 10.142l-81.373 145.867c-4.08 7.301-12.214 12.492-19.052 12.492a12.75 12.75 0 01-2.248-.194L73.133 216.171l-.12-.259 102.118 18.96c7.135 1.323 16.573-4.136 21.06-12.177l81.382-145.867c1.74-3.128 3.386-7.458 3.016-10.613l.278.581z"/><path fill="#CECECE" d="M280.191 65.381c.121 3.118-1.462 7.18-3.127 10.169l-81.382 145.876c-4.072 7.301-12.214 12.492-19.053 12.492-.768 0-1.527-.065-2.249-.204L72.476 214.801v-.009l-.12-.25 102.062 18.951c7.134 1.323 16.573-4.145 21.06-12.186L276.86 75.439c1.758-3.155 3.424-7.523 3.054-10.65l.277.592z"/><path fill="#CECECE" d="M279.433 65.668c-.361 2.794-1.693 6.015-3.081 8.504L194.97 220.039c-4.071 7.301-12.205 12.501-19.052 12.501-.768 0-1.517-.065-2.248-.204L71.82 213.432l-.12-.268 102.016 18.941c7.125 1.332 16.573-4.136 21.051-12.177L276.148 74.06c1.267-2.286 2.498-5.173 2.952-7.782.12-.203.231-.407.333-.61z"/><path fill="#2D3F42" d="M225.508 100.121l-31.361-5.672-1.987 3.616c.655.226 1.486.603 2.496 1.141 1.006.543 1.76 1.061 2.265 1.561.759.746 1.109 1.526 1.059 2.327-.054.807-.378 1.752-.973 2.836l-10.545 19.194-24.779-4.482 10.799-19.657a11.938 11.938 0 012.052-2.714c.829-.821 1.883-1.333 3.167-1.542.743-.107 1.772-.175 3.077-.206 1.313-.037 2.4-.008 3.286.079l1.987-3.616-31.361-5.672-1.987 3.616c.532.17 1.358.527 2.46 1.087 1.101.554 1.936 1.106 2.505 1.651.759.746 1.104 1.525 1.043 2.324-.07.804-.4 1.748-.995 2.832l-25.571 46.546c-.609 1.108-1.334 2.041-2.166 2.794-.829.747-1.846 1.232-3.049 1.456-.733.142-1.808.175-3.222.107-1.42-.069-2.475-.147-3.174-.239l-1.987 3.616 31.361 5.672 1.987-3.616c-.756-.204-1.688-.56-2.785-1.066-1.103-.507-1.845-.929-2.223-1.272-.702-.635-1.023-1.403-.957-2.308.061-.906.381-1.885.959-2.939l12.173-22.159 24.779 4.482-12.454 22.671c-.645 1.175-1.362 2.103-2.161 2.795-.796.686-1.828 1.168-3.095 1.455-.622.155-1.628.181-3 .066-1.377-.115-2.424-.197-3.139-.26l-1.987 3.616 31.361 5.672 1.987-3.616c-.756-.204-1.689-.546-2.795-1.014-1.103-.474-1.894-.925-2.379-1.354-.749-.711-1.087-1.482-1.016-2.319.07-.837.411-1.813 1.023-2.927l25.594-46.589a11.41 11.41 0 012.087-2.735c.829-.8 1.87-1.308 3.126-1.523a23.93 23.93 0 013.364-.235 31.247 31.247 0 013.165.137l1.986-3.617"/><path fill="#2D3F42" d="M225.503 100.117l-.536.972-1.444 2.646a31.588 31.588 0 00-3.165-.139 23.784 23.784 0 00-3.368.241c-1.259.213-2.295.722-3.127 1.517a11.623 11.623 0 00-2.082 2.739l-25.594 46.59c-.611 1.11-.953 2.091-1.027 2.924-.065.842.268 1.61 1.018 2.323.167.148.38.305.629.463.454.287 1.036.583 1.749.888 1.11.472 2.045.814 2.794 1.018l-.398.722-1.582 2.887-29.527-5.339-1.841-.333 1.989-3.609c.713.056 1.768.139 3.137.259 1.378.111 2.378.083 2.998-.065 1.268-.287 2.304-.777 3.1-1.462.796-.685 1.518-1.619 2.165-2.794l11.909-21.699.537-.972-24.771-4.479-12.177 22.161c-.573 1.046-.897 2.026-.962 2.933s.259 1.675.962 2.313c.148.139.361.287.629.444.398.25.934.518 1.591.824 1.102.509 2.027.861 2.785 1.064l-.389.713-1.601 2.906-29.518-5.339-1.841-.333 1.989-3.618c.694.093 1.749.176 3.174.241 1.416.074 2.489.037 3.22-.102 1.203-.222 2.221-.713 3.053-1.462.833-.75 1.555-1.684 2.166-2.794l25.566-46.544c.592-1.083.925-2.026.999-2.831.037-.546-.111-1.083-.463-1.61a3.647 3.647 0 00-.583-.713c-.573-.546-1.406-1.101-2.508-1.647a30.827 30.827 0 00-.814-.407c-.703-.333-1.249-.564-1.647-.685l1.989-3.618 31.359 5.672-.537.972-1.444 2.646a27.46 27.46 0 00-3.294-.083c-1.295.037-2.332.102-3.072.213-1.286.204-2.341.722-3.165 1.536a12.06 12.06 0 00-2.054 2.72l-10.798 19.654 1.841.333-.537.972 24.771 4.479 10.549-19.191c.592-1.083.916-2.036.971-2.841.056-.796-.296-1.582-1.055-2.323a6.592 6.592 0 00-.74-.62 3.768 3.768 0 00-.564-.685c-.5-.5-1.259-1.018-2.267-1.555a18.086 18.086 0 00-.861-.444 13.813 13.813 0 00-1.628-.703l1.98-3.618 31.362 5.672z"/><path fill="#435559" d="M224.967 101.089l-1.444 2.646a31.588 31.588 0 00-3.165-.139 23.784 23.784 0 00-3.368.241c-1.259.213-2.295.722-3.127 1.517a11.623 11.623 0 00-2.082 2.739l-25.594 46.59c-.611 1.11-.953 2.091-1.027 2.924-.065.842.268 1.61 1.018 2.323.167.148.38.305.629.463.167.287.389.564.675.833.481.435 1.277.879 2.378 1.36.389.157.75.305 1.092.435l-1.582 2.887-29.527-5.339 1.453-2.646c.713.065 1.758.148 3.137.259 1.369.12 2.378.093 2.998-.065 1.268-.287 2.304-.768 3.1-1.453.796-.694 1.508-1.619 2.156-2.794l12.455-22.67-1.305-1.305-24.771-4.479-12.177 22.161c-.573 1.046-.897 2.026-.962 2.933s.259 1.675.962 2.313c.148.139.361.287.629.444.157.305.38.592.666.851.38.342 1.129.768 2.23 1.277.38.176.75.342 1.092.472l-1.601 2.906-29.518-5.339 1.444-2.646c.703.093 1.758.167 3.174.241 1.416.065 2.489.037 3.23-.111 1.203-.222 2.221-.703 3.044-1.453.833-.75 1.564-1.684 2.165-2.794l25.575-46.544c.592-1.083.925-2.026.99-2.831s-.277-1.582-1.036-2.323a6.106 6.106 0 00-.722-.592 3.647 3.647 0 00-.583-.713c-.573-.546-1.406-1.101-2.508-1.647a30.827 30.827 0 00-.814-.407l1.647-2.998 29.518 5.339-1.444 2.646a27.46 27.46 0 00-3.294-.083c-1.295.037-2.332.102-3.072.213-1.286.204-2.341.722-3.165 1.536a12.06 12.06 0 00-2.054 2.72l-10.798 19.654 1.304 1.305 24.771 4.479 10.549-19.191c.592-1.083.916-2.036.971-2.841.056-.796-.296-1.582-1.055-2.323a6.592 6.592 0 00-.74-.62 3.768 3.768 0 00-.564-.685c-.5-.5-1.259-1.018-2.267-1.555a18.086 18.086 0 00-.861-.444l1.656-3.017 29.519 5.34z"/></svg>