<?xml version="1.0" encoding="utf-8"?>
<!-- Generator: Adobe Illustrator 28.0.0, SVG Export Plug-In . SVG Version: 6.00 Build 0)  -->
<svg version="1.1" id="Layer_1" xmlns="http://www.w3.org/2000/svg" xmlns:xlink="http://www.w3.org/1999/xlink" x="0px" y="0px"
	 viewBox="0 0 50 50" style="enable-background:new 0 0 50 50;" xml:space="preserve">
<style type="text/css">
	.st0{fill:#B68AF3;}
	.st1{fill:none;stroke:#E5E5E5;stroke-width:2;stroke-linejoin:round;stroke-miterlimit:10;}
	.st2{fill:none;stroke:#E5E5E5;stroke-linecap:round;stroke-linejoin:round;stroke-miterlimit:10;}
	.st3{fill:none;stroke:#E5E5E5;stroke-width:2;stroke-linecap:round;stroke-linejoin:round;stroke-miterlimit:10;}
</style>
<g>
	<g>
		<g>
			<g>
				<path class="st0" d="M41.9,3H8.2C5.1,3,2.6,5.5,2.6,8.6v31.3v2.5c0,3.1,2.5,5.6,5.6,5.6h0h33.7h0c1,0,1.9-0.2,2.7-0.7
					c1.7-0.9,2.9-2.8,2.9-4.9V24.1V8.6C47.5,5.5,45,3,41.9,3z"/>
			</g>
		</g>
	</g>
	<g>
		<polyline class="st1" points="38.9,47.9 38.9,38 40.9,38 40.9,30 37.9,30 17.9,30 14.9,30 14.9,38 16.9,38 16.9,47.9 		"/>
		<path class="st2" d="M29.9,30V18c0-1.7-1.3-3-3-3c-1.7,0-3,1.3-3,3v12"/>
		<line class="st2" x1="23.9" y1="21" x2="29.9" y2="21"/>
		<line class="st2" x1="23.9" y1="25" x2="29.9" y2="25"/>
		<line class="st2" x1="39.9" y1="29.7" x2="39.9" y2="19"/>
		<path class="st2" d="M43.9,33V21c0-1.1-0.9-2-2-2h-8v10.8"/>
		<path class="st2" d="M34.9,19v-4c0-1.1,0.9-2,2-2l0,0c1.1,0,2,0.9,2,2v4"/>
		<polyline class="st2" points="17.9,29.7 17.9,8 25.9,8 25.9,15 		"/>
		<line class="st2" x1="17.9" y1="13" x2="20.9" y2="13"/>
		<line class="st2" x1="17.9" y1="19" x2="20.9" y2="19"/>
		<line class="st2" x1="17.9" y1="25" x2="20.9" y2="25"/>
		<line class="st3" x1="16.9" y1="38" x2="24.9" y2="38"/>
		<line class="st3" x1="34.9" y1="38" x2="40.9" y2="38"/>
	</g>
</g>
</svg>
