<svg xmlns="http://www.w3.org/2000/svg" id="Layer_1" x="0" y="0" version="1.1" viewBox="0 0 50 50" xml:space="preserve"><style>.st2{fill:none;stroke:#e5e5e5;stroke-linecap:round;stroke-linejoin:round;stroke-miterlimit:10}</style><path fill="#b68af3" d="M41.9 3H8.2C5.1 3 2.6 5.5 2.6 8.6v33.8c0 3.1 2.5 5.6 5.6 5.6h33.7c1 0 1.9-.2 2.7-.7 1.7-.9 2.9-2.8 2.9-4.9V8.6C47.5 5.5 45 3 41.9 3z"/><path fill="none" stroke="#e5e5e5" stroke-linejoin="round" stroke-miterlimit="10" stroke-width="2" d="M38.9 47.9V38h2v-8h-26v8h2v9.9"/><path d="M29.9 30V18c0-1.7-1.3-3-3-3s-3 1.3-3 3v12m0-9h6m-6 4h6m10 4.7V19m4 14V21c0-1.1-.9-2-2-2h-8v10.8m1-10.8v-4c0-1.1.9-2 2-2s2 .9 2 2v4" class="st2"/><path d="M17.9 29.7V8h8v7m-8-2h3m-3 6h3m-3 6h3" class="st2"/><path fill="none" stroke="#e5e5e5" stroke-linecap="round" stroke-linejoin="round" stroke-miterlimit="10" stroke-width="2" d="M16.9 38h8m10 0h6"/></svg>