<?xml version="1.0" encoding="utf-8"?>
<!-- Generator: Adobe Illustrator 27.5.0, SVG Export Plug-In . SVG Version: 6.00 Build 0)  -->
<svg version="1.1" id="Camada_3" xmlns="http://www.w3.org/2000/svg" xmlns:xlink="http://www.w3.org/1999/xlink" x="0px" y="0px"
	 viewBox="0 0 50 50" style="enable-background:new 0 0 50 50;" xml:space="preserve">
<style type="text/css">
	.st0{fill:#B9D7D9;}
	.st1{fill:#A6C1C2;}
	.st2{fill:none;stroke:#454444;stroke-width:2.5;stroke-linecap:round;stroke-linejoin:round;stroke-miterlimit:10;}
	.st3{fill:none;stroke:#454444;stroke-width:0.5;stroke-linecap:round;stroke-miterlimit:10;}
	.st4{fill:none;stroke:#454444;stroke-linecap:round;stroke-linejoin:round;stroke-miterlimit:10;}
	.st5{fill:none;stroke:#454444;stroke-miterlimit:10;}
	.st6{fill:none;stroke:#454444;stroke-width:0.5;stroke-linecap:round;stroke-linejoin:round;stroke-miterlimit:10;}
	.st7{fill:#5EBEBB;stroke:#454444;stroke-width:0.75;stroke-miterlimit:10;}
	.st8{fill:none;stroke:#444444;stroke-width:0.5;stroke-linecap:round;stroke-linejoin:round;stroke-miterlimit:10;}
</style>
<g>
	<g>
		<polyline class="st0" points="10.77,21.61 13.14,10.78 15.67,7.83 17.17,2.14 37.58,1.38 40.43,5.44 40.8,10.18 		"/>
		<path class="st1" d="M43.88,15.32l-0.51,12.12c-0.01,0.25-0.17,0.47-0.41,0.55L3.87,42.21c-0.55,0.2-1.32-1.51-1.01-2.01
			l6.58-8.14l2.09-10.89l28.61-10.99l0.66,0.59L43.88,15.32z"/>
		<g>
			<path class="st2" d="M9.91,48.62L1.74,40.7l5.15-5.36l0.58,0.43l2.65-2.94c0,0-0.63-1.79-0.65-5.19c-0.01-1.5,0.26-3,0.77-4.42
				l2.71-7.44l0.19-4.66c0-1.89,1.76-2.32,3.01-2.47l0,0V4.98c0-2.01,1.65-3.63,3.66-3.6l17.14,0.02c2,0.03,3.54,1.92,3.49,3.92
				l-0.14,5.84c0,0,3.65,0.7,3.65,3.37s-2.12,3.22-2.12,3.22s2.19,0.96,2.6,3.01c0.35,1.76-2.37,3.99-2.37,3.99s2.5,0.63,1.89,3.51
				c-0.36,1.67-2.46,3.48-2.46,3.48l0,0c3.89,4.07-1.05,6.47-1.05,6.47c0,4.42-5.67,3.37-5.67,3.37s-0.67,1.11-4.54,3.78
				c-3.87,2.67-7.52,1.38-7.52,1.38l-2.1,1.84l0,0l0,0"/>
		</g>
		<line class="st3" x1="6.2" y1="35.12" x2="16.43" y2="45.28"/>
	</g>
	<path class="st4" d="M20.21,42.63C24.26,31.41,18,25.56,18,25.56s1.02-9.52,0.95-12.89c-0.04-1.94-1.62-2.6-2.95-2.8
		c-0.94-0.14-1.78,0.59-1.77,1.54c0.02,1.79-0.09,4.55-0.89,5.38"/>
	<path class="st5" d="M38.97,40.61"/>
	<polyline class="st4" points="21.08,40.61 38.65,40.61 38.65,38.09 	"/>
	<line class="st4" x1="24.96" y1="38.28" x2="31.66" y2="38.28"/>
	<path class="st6" d="M21.08,1.38v1.15c0,1.02,1.1,1.85,2.45,1.85h9.48c1.35,0,2.45-0.83,2.45-1.85V1.38"/>
	<path class="st4" d="M42.18,23.25l-2.22,1.28c-1.1,0.64-2.52,0.26-3.15-0.85l-0.33-0.56c-0.64-1.1-0.26-2.52,0.85-3.15l2.22-1.28
		c1.1-0.64,2.52-0.26,3.15,0.85l0.33,0.56C43.66,21.2,43.29,22.61,42.18,23.25z"/>
	<path class="st4" d="M41.4,16.97l-2.22,1.28c-1.1,0.64-2.52,0.26-3.15-0.85l-0.33-0.56c-0.64-1.1-0.26-2.52,0.85-3.15l2.22-1.28
		c1.1-0.64,2.52-0.26,3.15,0.85l0.33,0.56C42.88,14.92,42.5,16.33,41.4,16.97z"/>
	<path class="st4" d="M41.9,29.91l-2.22,1.28c-1.1,0.64-2.52,0.26-3.15-0.85l-0.33-0.56c-0.64-1.1-0.26-2.52,0.85-3.15l2.22-1.28
		c1.1-0.64,2.52-0.26,3.15,0.85l0.33,0.56C43.38,27.86,43,29.27,41.9,29.91z"/>
	<path class="st4" d="M40.67,36.59l-2.22,1.28c-1.1,0.64-2.52,0.26-3.15-0.85l-0.33-0.56c-0.64-1.1-0.26-2.52,0.85-3.15l2.22-1.28
		c1.1-0.64,2.52-0.26,3.15,0.85l0.33,0.56C42.15,34.54,41.77,35.95,40.67,36.59z"/>
	<line class="st7" x1="17.17" y1="3.37" x2="17.17" y2="10.18"/>
	<g>
		<path class="st8" d="M21.32,18.81l2.06,4.99c0.06,0.14,0.2,0.23,0.35,0.23h8.8l-10.68-5.7C21.53,18.17,21.18,18.49,21.32,18.81z"
			/>
		<path class="st8" d="M28.08,17.1l4.44,6.94l-7.07-3.78l1.99-3.16C27.59,16.87,27.93,16.87,28.08,17.1z"/>
		<path class="st8" d="M34.65,18.76l-2.13,5.28l-2.42-3.78l4.03-1.99C34.45,18.12,34.78,18.44,34.65,18.76z"/>
	</g>
	<polyline class="st8" points="36.39,17.44 30.77,11.81 21.44,14.31 18.94,23.64 25.77,30.46 35.09,27.96 36.44,22.95 	"/>
	<polyline class="st8" points="39.31,12.26 32.5,5.46 16.87,9.65 	"/>
	<polyline class="st8" points="21.57,34.18 24.12,36.73 35.43,33.7 	"/>
</g>
</svg>
