<?xml version="1.0" encoding="utf-8"?>
<!-- Generator: Adobe Illustrator 26.0.3, SVG Export Plug-In . SVG Version: 6.00 Build 0)  -->
<svg version="1.1" id="Layer_1" xmlns="http://www.w3.org/2000/svg" xmlns:xlink="http://www.w3.org/1999/xlink" x="0px" y="0px"
	 viewBox="0 0 48 47" style="enable-background:new 0 0 48 47;" xml:space="preserve">
<style type="text/css">
	.st0{fill:#46B8B0;}
	.st1{fill:#4ECDC4;}
	.st2{fill:none;stroke:#444444;stroke-width:2.5;stroke-linecap:round;stroke-linejoin:round;stroke-miterlimit:10;}
	.st3{fill:#444444;}
	.st4{fill:#494949;}
</style>
<g>
	<g>
		<g>
			<g>
				<polygon class="st0" points="45.5,10.6 46.2,15.5 2.6,31.3 2.1,21 2.1,15.2 40.2,1.4 45.1,3.5 				"/>
				<polygon class="st1" points="44,1.4 46.1,4.5 1.8,20.3 2.9,4.1 5.7,1.4 33.1,1.2 				"/>
				<g>
					<path class="st2" d="M17.5,45.2h-12c-1.8,0-3.2-1.5-3.2-3.3V5.1c0-1.8,1.4-3.3,3.2-3.3h36.9c1.8,0,3.2,1.5,3.2,3.3v23.2"/>
					<path class="st2" d="M2.3,14.6"/>
					<path class="st2" d="M45.6,14.6"/>
				</g>
				<circle class="st3" cx="8.1" cy="7.3" r="1.3"/>
				<circle class="st3" cx="11.8" cy="7.3" r="1.3"/>
				<circle class="st3" cx="15.4" cy="7.3" r="1.3"/>
			</g>
		</g>
	</g>
	<g id="kevin">
		<path class="st4" d="M21.8,34.1c1.3,0,2.3-1,2.3-2.3v-1.7c0-1.2-1.1-2.2-2.3-2.2c-1.3,0-2.3,1-2.3,2.2v1.7
			C19.5,33,20.5,34.1,21.8,34.1z M21.6,28.6c1.6,0,1.6,2.5,0,2.5C20,31.1,20,28.6,21.6,28.6z"/>
		<path class="st4" d="M33,27.9c-1.3,0-2.3,1-2.3,2.2v1.7c0,1.2,1,2.3,2.3,2.3s2.3-1,2.3-2.3v-1.7C35.2,28.9,34.3,27.9,33,27.9z
			 M32.8,31.2c-1.6,0-1.6-2.5,0-2.5C34.4,28.7,34.4,31.2,32.8,31.2z"/>
		<path class="st4" d="M39.7,25.1v-0.7c0-2.7-2.2-4.9-4.9-4.9H20c-2.7,0-4.9,2.2-4.9,4.9v0.7c-1.9,0-3.4,1.5-3.4,3.3v5.1
			c0,1.9,1.5,3.3,3.4,3.3h1.7v1.9c0,1.6,1.3,2.8,2.8,2.8h1.8c0.1,0,0.1,0,0.1,0.1v2.9c0,0.6,0.7,0.9,1.2,0.5l3.5-3.5c0,0,0,0,0.1,0
			h9c1.5,0,2.8-1.2,2.8-2.8v-1.9h1.7c1.8,0,3.3-1.5,3.3-3.3v-5.1C43,26.6,41.5,25.1,39.7,25.1z M15.2,27.3c-0.1,0-0.5,0-0.8,0.3
			c-0.3,0.3-0.3,0.7-0.3,0.8v5.1c0,0.3-0.2,0.6-0.5,0.6c-0.3,0-0.5-0.3-0.5-0.6v-5.1c0-0.2,0-1,0.7-1.6c0.6-0.6,1.3-0.7,1.5-0.7
			C15.2,26.5,15.2,26.9,15.2,27.3z M36.5,38.8c0,0.1-0.2,0.5-0.5,0.8c-0.3,0.2-0.6,0.3-0.8,0.3h-9.5c-0.2,0-0.3,0.1-0.4,0.2
			l-2.1,2.1v-1.7c0-0.3-0.2-0.6-0.5-0.6h-3c-0.6,0-1.1-0.5-1.1-1.1v-1.9h7.2c0.4,0,0.8-0.3,0.9-0.6l0.8-2.6l0.8,2.7
			c0.1,0.4,0.4,0.6,0.9,0.6h7.3V38.8z M38,33.5c0,0.9-0.8,1.7-1.7,1.7h-6.7c-0.1,0-0.2-0.1-0.2-0.2l-1.1-3.6c-0.3-0.9-1.4-0.9-1.7,0
			L25.4,35c0,0.1-0.1,0.2-0.2,0.2h-6.7c-0.9,0-1.7-0.8-1.7-1.7v-6.7H38V33.5z M41.9,33.5c0,0.3-0.2,0.6-0.5,0.6
			c-0.3,0-0.5-0.2-0.5-0.6v-5.1c0-0.1-0.1-0.5-0.4-0.8c-0.3-0.3-0.7-0.3-0.8-0.3v-1.1c1.2,0,2.2,1,2.2,2.3V33.5z"/>
	</g>
</g>
</svg>
