<svg xmlns="http://www.w3.org/2000/svg" id="Camada_1" version="1.1" viewBox="0 0 300 300"><defs><style>.st1{fill-rule:evenodd}.st3{opacity:.3;isolation:isolate}.st8{fill:#fff}.st12{fill:#ffd200}.st1{fill:#ccc}</style></defs><path id="Camada_10" fill="#008dd3" d="M292 149.4c.1 20.8-4.3 40.5-12.2 58.5-22.2 50-72 84.9-130.2 85.1-15.5.1-30.3-2.4-44.3-6.8C79 277.8 56.2 262 39 241.3 21.1 219.8 9.6 193 6.7 163.6c-.4-4.2-.6-8.6-.6-12.9C5.9 102.2 30 59.2 66.9 33.2c4.8-3.5 9.9-6.5 15.1-9.3 7.4-4 15.1-7.2 23.1-9.9 7.6-2.4 15.5-4.2 23.6-5.5 6.5-.8 13.1-1.4 19.9-1.5 26.3-.1 50.9 6.9 72.2 19.2 3.9 2.2 7.5 4.5 11 7.2 17 12.1 31.2 27.9 41.6 46.1 1.2 2.1 2.3 4.1 3.4 6.3.8 1.9 1.8 3.7 2.6 5.6 2.7 6.1 5 12.3 6.9 18.7 2.1 7.2 3.7 14.6 4.5 22.1.5 5.6.9 11.4.9 17.2z"/><path fill="#f4f4f4" fill-rule="evenodd" d="M259.9 35h-.1m-8 44.9v-1.1m-2.9 178l-.7.7c2.3-3.4 3.6-7.5 3.6-11.9V54.3c0-7.4 3-14.2 7.8-19.1h-159c-6.2 0-11.8 2.5-15.8 6.6-4.1 4.1-6.6 9.7-6.6 15.8l1 165.4 25.2 22.1L219 264l22.1-1.1 7.6-6.1z"/><path d="M289.1 56.6v18.9c0 1.8-1.5 3.3-3.3 3.3h-33.9V54.3c0-7.4 3-14.2 7.8-19.1h7.9c5.9 0 11.3 2.4 15.2 6.3 3.9 3.9 6.3 9.3 6.3 15.2z" class="st1"/><path d="M250.8 125.1l-1.5 6-1.5 5.4c-.2.7-.4 1.3-.6 2-.5 1.7-1 3.3-1.6 4.9-7.8 23.6-18.4 42.2-30.2 56.8-1.9 2.4-3.9 4.7-5.9 6.9-24.6 27-53.4 38.5-74.3 43.3l84.3 13.9 22.1-1.1 7-5.6c2.2-3.4 3.5-7.4 3.5-11.7V120.1c-.4 1.7-.8 3.4-1.2 5z" opacity=".1" style="isolation:isolate"/><path fill="#383838" d="M159.6 159.4c1.8-.7 3.4-1.1 4.6-1.1 11.3 0 20.8 9.8 20.8 22.4s-12.2 26.6-26.1 26.5c-4.5 0-10.4-1.1-16.3-3.8v-59.3c0-6.5-.3-7.2-7-7.7v-2.7c4.9-.6 11.5-2.2 15.5-3.6v33l8.5-3.8zm-8.5 34.4c0 1.7.1 2.6.5 3.7 1.3 2.6 5.4 5.7 10.4 5.7 9 0 13.7-7.8 13.7-19.8s-7.3-19.1-16.1-19.1-6.5.9-8.5 2v27.6zm81.4 2.8c-4.6 6.1-11.7 10.7-18.1 10.7-13.5 0-21.3-10.8-21.3-22.2s3.6-15.4 10.6-20.7c5.6-4.3 11.9-6 16.1-6s8.2 1.5 9.8 2.8c1.5 1.2 1.7 1.9 1.7 3 0 2.5-2.6 4.7-3.8 4.7s-.9-.2-2-1.1c-3.3-2.9-6.8-4.4-10.6-4.4-6.9 0-13.1 5.9-13.1 16.9-.1 14.7 9.9 19.6 16.1 19.6s8-1.2 12.9-5.8l1.8 2.3zm-105.6 10.7c-1.6 0-3.9-.8-4.9-2-1.4-1.4-2-2.8-2.5-4.7-4.2 2.8-9.4 6.7-12.6 6.7-7.5 0-12.9-6.2-12.9-13s2.8-8.5 8.6-10.5c6.4-2.2 14.4-4.9 16.7-6.8v-2.1c0-7.5-3.8-11.8-9.3-11.8s-3.9 1.2-4.9 2.4c-1.2 1.5-1.9 3.8-2.8 6.8-.5 1.7-1.5 2.4-3 2.4s-4.6-2.1-4.6-4.6 1.4-2.7 3.5-4.2c3-2.2 9.1-6.1 15.2-7.4 3.2 0 6.4.9 8.8 2.8 3.7 3.2 5.4 6.7 5.4 12.2v20.4c0 4.8 1.8 6.3 3.7 6.3s2.6-.5 3.8-1.2l1.1 2.9-9 5.3zm-7.7-26.7c-2.3 1.2-7.4 3.4-9.8 4.4-4 1.8-6.4 3.8-6.4 7.7 0 5.6 4.2 8.1 7.6 8.1s6.5-1.7 8.6-3.8v-16.4z"/><circle cx="90.7" cy="65.6" r="55.3" fill="#7a2a9b"/><circle cx="96.3" cy="69.3" r="55.3" fill="#c75eeb"/><path d="M104.3 57.5l-12 11.6c-.4.4-1.1.5-1.6.4-.3 0-.5-.2-.8-.4l-.2-.2c-1.4-1.3-3.2-3.6-4.5-4.7L85 64c-.3-.2-.9-.3-1.4.3-.6.6-2.5 2.3-4.1 3.8-.6.5-.6 1.4 0 2l4.6 4.7c.6.5.7 1.2.2 1.8-.7.8-1 1.2-2 2.1-.6.5-1.5.6-2.1 0L72.8 71c-.5-.6-1.4-.6-2 0l-1.9 1.8c-.6.5-.6 1.4 0 2l8 7.8c1.8 1.6-.5 3.1-.5 3.1-.6.5-1.4.5-2 0l-5.1-4.6c-.5-.5-1.4-.6-2 0l-1.4 1.3c-.5.5-.6 1.4 0 1.9 1.3 1.5 0 0 4.8 5 .5.6.5 1.4 0 2-1.1 1.1-1.1.8-3.6 3.3-2.1 2-3.2 3.5-3.6 4.5-1 2.5 1 4 3.1 4.5 1.5.4 3 .2 3.6-.3 1.1-1 2.9-2.8 3-2.9l37.4-36.5-6.5-6.6z" class="st12"/><path d="M103.7 38.7c-6.4 6.2-7.5 15.9-3.1 23.3.4.7.9 1.5 1.5 2.2.4.5.8.9 1.2 1.3.7.7 1.5 1.4 2.3 2 .5.4 1 .7 1.6 1 7.2 4.3 16.6 3.5 22.9-2.6 7.5-7.3 7.7-19.3.4-26.8-.9-.9-1.8-1.7-2.8-2.4-.6-.4-1.3-.8-1.9-1.2-7.1-3.8-16-2.8-22.1 3.1zm20.2 6.8c3.8 3.9 3.6 10.1-.2 13.8-3.9 3.7-10.1 3.6-13.8-.2-.3-.3-.6-.7-.9-1.1-2.8-3.9-2.4-9.3 1.1-12.7 3.8-3.7 9.8-3.7 13.5 0l.3.3z" class="st12"/><g class="st3"><path d="M101.9 50.6c-.5 0-.8-.4-.8-.9 0-.7.1-1.4.3-2.1 0-.5.6-.8 1-.7.5 0 .8.6.7 1-.1.6-.2 1.2-.2 1.8 0 .5-.4.8-.9.8zm1-4.4h-.3c-.4-.2-.6-.7-.5-1.1 2.4-5.7 7.8-9.2 14.7-9.6.5 0 .9.3.9.8s-.3.9-.8.9c-6.3.3-11.1 3.4-13.3 8.5-.1.3-.5.5-.8.5z" class="st8"/></g><path d="M127.5 36.6c1 .7 1.9 1.5 2.8 2.4 7.3 7.5 7.1 19.5-.4 26.8-6.3 6.1-15.8 7-22.9 2.6l-33.5 32.2c-.2.2-1.9 1.9-3 2.9-.6.6-2.1.7-3.6.3 4.4-1.9 31.3-29.6 38.9-36 .8-.6 1.1-1 1.2-1 .5.3 1.5 1 2 1.2 9.6 4.1 18.4-.2 22.1-5.6 5.9-8.5 2.8-18.9-3.5-25.9z" opacity=".2" style="isolation:isolate"/><path fill="#1f1f39" d="M123.6 45.3c-3.8-3.6-9.8-3.6-13.5 0-3.5 3.4-3.9 8.9-1.1 12.7-3.3-1.9-4.1-9.8-.4-13.4 3.4-3.3 10.8-5.1 15.1.6z" opacity=".1"/><g class="st3"><path d="M82.1 68.6c-.2 0-.4 0-.6-.2-.3-.3-.3-.9 0-1.2l.3-.3c.3-.3.9-.3 1.2 0s.3.9 0 1.2l-.3.3c-.2.2-.4.3-.6.3z" class="st8"/><path d="M83.2 72.9c-.2 0-.5 0-.6-.3-.1-.2-.3-.3-.5-.5-.9-.9-2-1.9-1.9-3 0-.3.2-.8.7-1.2.4-.3.9-.2 1.2.2.3.4.2.9-.2 1.2 0 .4 1 1.3 1.4 1.7l.6.6c.3.3.3.9 0 1.2-.2.1-.4.2-.6.2z" class="st8"/></g><path fill="#ddd" stroke="#646464" stroke-miterlimit="10" stroke-width="4" d="M276.7 132.6c-9.7-3.9-16.6-12.4-16.6-12.4l25.9-20.1c.4-.3.8-.8.8-1.3h0c0-.6-.1-1-.4-1.5l-10.1-12.5c-.4-.4-.8-.6-1.6-.6h0c-.4 0-.9.1-1.2.4l-25.3 20.7s-6-9.2-7.1-19.6c-.9-8.9-27 44.8-34.6 60.7-.9 1.8.6 3.9 2.6 3.6 17.6-3.2 76-13.9 67.7-17.3z"/><path style="isolation:isolate" fill="#fff" d="M245 127.2c-5.6 3-15.4 7-19.7 9.2-5.3 2.7-8.8 4.9-10.5 6.4-.7.7 0 1.7 1.1 1.5 2.6-.3 8-1.3 18.9-3.8h.1c4.5-.7 29.6-6.1 31.6-7 5.7-.8-7.9-4.6-11.8-10.4" opacity=".4"/><path style="isolation:isolate" fill="#fff" d="M250.3 130.1c-3.2 1.5-8.9 3.3-11.6 4.5-3.1 1.3-5.1 2.3-6.2 3.1-.4.4 0 .7.7.7 1.5-.2 4.7-.7 11.1-1.9h.1c2.6-.3 17.2-3 18.5-3.4 3.3-.5-4.6-2-6.9-4.9" opacity=".6"/><path fill="none" stroke="#fff" stroke-linecap="round" stroke-linejoin="round" stroke-width="11" d="M175 47.3h59.9c2.9 0 5.3 2.4 5.3 5.3v17.8"/><path d="M248.2 257.5c-.8 1.1-1.7 2.2-2.6 3.2-3.9 3.9-9.3 6.3-15.2 6.3H70.3c-6.2 0-11.8-2.5-15.8-6.6-4.1-4.1-6.6-9.7-6.6-15.8v-18c0-1.8 1.5-3.3 3.3-3.3h27.2-2.8 141.7c1.9 0 3.5 1.5 3.5 3.5v18.8c0 4.5 1.8 8.5 4.7 11.5l.2.2c3 3 7.1 4.9 11.7 4.9s8.2-2.1 11-4.6z" class="st1"/><path fill-rule="evenodd" style="isolation:isolate" d="M248.2 257.5c-.8 1.1-1.7 2.2-2.6 3.2-3.9 3.9-9.3 6.3-15.2 6.3H70.3c-6.2 0-11.8-2.5-15.8-6.6-4.1-4.1-6.6-9.7-6.6-15.8v-18c0-1.8 1.5-3.3 3.3-3.3h27.2-2.8 141.7c1.9 0 3.5 1.5 3.5 3.5v18.8c0 4.5 1.8 8.5 4.7 11.5l.2.2c3 3 7.1 4.9 11.7 4.9s8.2-2.1 11-4.6zm40.9-200.9v18.9c0 1.8-1.5 3.3-3.3 3.3h-33.9V54.3c0-7.4 3-14.2 7.8-19.1h7.9c5.9 0 11.3 2.4 15.2 6.3 3.9 3.9 6.3 9.3 6.3 15.2z" opacity=".1"/></svg>