<?xml version="1.0" encoding="utf-8"?>
<!-- Generator: Adobe Illustrator 26.1.0, SVG Export Plug-In . SVG Version: 6.00 Build 0)  -->
<svg version="1.1" id="Layer_1" xmlns="http://www.w3.org/2000/svg" xmlns:xlink="http://www.w3.org/1999/xlink" x="0px" y="0px"
	 viewBox="0 0 50 50" style="enable-background:new 0 0 50 50;" xml:space="preserve">
<style type="text/css">
	.st0{fill:#FCC34F;}
	.st1{fill:#E589EF;}
	.st2{fill:#F799FF;}
	.st3{fill:#444444;}
</style>
<path class="st0" d="M0,0"/>
<path class="st0" d="M0,0"/>
<polygon class="st1" points="46.9,26.2 47.2,30.3 2.5,46.6 2.6,37.9 2.9,32.8 47.5,16.6 46.8,20.2 "/>
<polygon class="st2" points="47,10 46.5,17.5 2.7,33.4 2.7,24 3,19.7 47.2,3.6 "/>
<path class="st3" d="M32.5,48.5h-30c-0.7,0-1.2-0.6-1.2-1.2V2.8c0-0.7,0.6-1.2,1.2-1.2h44.7c0.7,0,1.2,0.6,1.2,1.2v34.4
	c0,0.7-0.6,1.2-1.2,1.2s-1.2-0.6-1.2-1.2V4H3.8V46h28.7c0.7,0,1.2,0.6,1.2,1.2S33.2,48.5,32.5,48.5z"/>
<g>
	<path class="st3" d="M25.9,35.2c0-1.4,0-1.4,1.4-1.4c1,0,1,0,1.3-0.9c0.1-0.2,0.2-0.5,0.3-0.7c0.3-0.6,0.3-0.7-0.2-1.3
		c-0.2-0.2-0.5-0.5-0.7-0.7c-0.3-0.3-0.3-0.6,0-0.9c0.4-0.4,0.7-0.7,1.1-1.1c0.3-0.3,0.6-0.3,0.9,0c0.3,0.3,0.6,0.6,0.9,0.9
		c0.3,0.3,0.6,0.3,0.9,0.1c0.4-0.2,0.9-0.4,1.3-0.5c0.3-0.1,0.5-0.4,0.5-0.7c0-0.4,0-0.8,0-1.2c0-0.5,0.2-0.7,0.7-0.7
		c0.5,0,0.9,0,1.4,0c0.5,0,0.7,0.2,0.7,0.7c0,0.4,0,0.8,0,1.2c0,0.4,0.2,0.6,0.5,0.8c0.4,0.2,0.9,0.3,1.3,0.5
		c0.4,0.2,0.6,0.1,0.9-0.2c0.3-0.3,0.5-0.6,0.8-0.8c0.3-0.3,0.7-0.3,1,0c0.3,0.3,0.7,0.7,1,1c0.3,0.3,0.3,0.6,0,0.9
		c-0.3,0.3-0.5,0.6-0.8,0.8c-0.3,0.3-0.3,0.6-0.2,1c0.2,0.4,0.4,0.8,0.5,1.3c0.1,0.4,0.4,0.6,0.8,0.6c0.4,0,0.8,0,1.2,0
		c0.5,0,0.7,0.2,0.7,0.7c0,0.5,0,0.9,0,1.4c0,0.4-0.2,0.7-0.7,0.7c-0.4,0-0.8,0-1.2,0c-0.4,0-0.6,0.2-0.8,0.6
		c-0.2,0.4-0.3,0.9-0.5,1.3c-0.2,0.3-0.1,0.6,0.1,0.9c0.3,0.3,0.6,0.5,0.8,0.8c0.3,0.4,0.3,0.7,0,1c-0.3,0.3-0.7,0.7-1,1
		c-0.4,0.3-0.7,0.3-1,0c-0.3-0.3-0.5-0.5-0.8-0.8c-0.3-0.3-0.5-0.3-0.9-0.1c-0.4,0.2-0.9,0.4-1.3,0.6c-0.3,0.1-0.5,0.3-0.5,0.7
		c0,0.4,0,0.8,0,1.2c0,0.5-0.2,0.7-0.7,0.8c-0.5,0-0.9,0-1.4,0c-0.5,0-0.7-0.2-0.7-0.7c0-0.4,0-0.8,0-1.2c0-0.4-0.2-0.6-0.5-0.7
		c-0.5-0.2-0.9-0.3-1.3-0.6c-0.3-0.2-0.6-0.1-0.9,0.1c-0.3,0.3-0.6,0.6-0.9,0.9c-0.3,0.3-0.6,0.3-0.9,0c-0.4-0.3-0.7-0.7-1-1
		c-0.3-0.3-0.3-0.7,0-1c0.3-0.3,0.5-0.6,0.8-0.8c0.3-0.3,0.3-0.6,0.2-0.9c-0.2-0.4-0.4-0.9-0.5-1.3c-0.1-0.4-0.4-0.5-0.8-0.5
		c-0.4,0-0.7,0-1.1,0c-0.6,0-0.8-0.2-0.8-0.8C25.9,35.6,25.9,35.4,25.9,35.2z M31.1,35.2c0,2.2,1.7,4,4,4c2.2,0,3.9-1.7,3.9-3.9
		c0-2.2-1.7-4-4-4C32.9,31.2,31.1,33,31.1,35.2z"/>
</g>
<path class="st3" d="M25.6,42.5h-13c-1.2,0-2.3-1-2.3-2.3V9.8c0-1.2,1-2.3,2.3-2.3h24.8c1.2,0,2.3,1,2.3,2.3V26
	c0,0.3-0.2,0.5-0.5,0.5s-0.5-0.2-0.5-0.5V9.8c0-0.7-0.6-1.3-1.3-1.3H12.6c-0.7,0-1.3,0.6-1.3,1.3v30.5c0,0.7,0.6,1.3,1.3,1.3h13
	c0.3,0,0.5,0.2,0.5,0.5S25.9,42.5,25.6,42.5z"/>
<path class="st3" d="M35.4,16.7H15.8c-0.3,0-0.5-0.2-0.5-0.5s0.2-0.5,0.5-0.5h19.6c0.3,0,0.5,0.2,0.5,0.5S35.7,16.7,35.4,16.7z"/>
<path class="st3" d="M35.4,21.1H15.8c-0.3,0-0.5-0.2-0.5-0.5s0.2-0.5,0.5-0.5h19.6c0.3,0,0.5,0.2,0.5,0.5S35.7,21.1,35.4,21.1z"/>
<path class="st3" d="M31.1,25.6H15.8c-0.3,0-0.5-0.2-0.5-0.5s0.2-0.5,0.5-0.5h15.3c0.3,0,0.5,0.2,0.5,0.5S31.4,25.6,31.1,25.6z"/>
<path class="st3" d="M24.9,30h-9.1c-0.3,0-0.5-0.2-0.5-0.5s0.2-0.5,0.5-0.5h9.1c0.3,0,0.5,0.2,0.5,0.5S25.2,30,24.9,30z"/>
<g>
	<path class="st3" d="M37.1,33.1c-0.5-0.8-1.6-1-2.3-0.5l-1.3,0.8c-0.4,0.2-0.6,0.6-0.7,1c-0.1,0.4,0,0.7,0.2,1
		c-0.1,0.2-0.2,0.4-0.2,0.6c-0.1,0.4,0,0.9,0.3,1.2c0.5,0.8,1.6,1,2.3,0.5l1.3-0.8c0.4-0.2,0.6-0.6,0.7-1c0.1-0.4,0-0.7-0.2-1
		c0.1-0.2,0.2-0.4,0.2-0.6C37.5,33.9,37.4,33.4,37.1,33.1z M36.7,34.3L36.7,34.3L36.7,34.3c-0.2-0.1-0.4-0.2-0.6-0.2l0,0l0,0
		c0-0.1,0-0.1-0.1-0.2c-0.1-0.1-0.2-0.2-0.3-0.1c0,0-0.1,0-0.1,0l-1.3,0.8c-0.1,0-0.1,0.1-0.1,0.2c0,0.1,0,0.2,0.1,0.2
		c0.1,0.1,0.2,0.2,0.3,0.1c0,0,0.1,0,0.1,0l0.5-0.3c0.1-0.1,0.2-0.1,0.3-0.1c0.4-0.1,0.9,0.1,1.1,0.4c0.2,0.2,0.2,0.5,0.2,0.7
		c0,0.3-0.2,0.5-0.4,0.6l-1.3,0.8c-0.1,0.1-0.2,0.1-0.3,0.1c-0.4,0.1-0.9-0.1-1.1-0.4c-0.2-0.2-0.2-0.5-0.2-0.7c0,0,0-0.1,0-0.1
		l0-0.1l0.1,0c0.2,0.1,0.3,0.2,0.5,0.3l0,0l0,0c0,0.1,0,0.1,0.1,0.2c0.1,0.1,0.2,0.2,0.3,0.1c0,0,0.1,0,0.1,0l1.3-0.8
		c0.1,0,0.1-0.1,0.1-0.2c0-0.1,0-0.2-0.1-0.2c-0.1-0.1-0.2-0.2-0.3-0.1c0,0-0.1,0-0.1,0L35,35.6c-0.1,0.1-0.2,0.1-0.3,0.1
		c-0.4,0.1-0.9-0.1-1.1-0.4c-0.2-0.2-0.2-0.5-0.2-0.7c0-0.3,0.2-0.5,0.4-0.6l1.3-0.8c0.1-0.1,0.2-0.1,0.3-0.1
		c0.4-0.1,0.9,0.1,1.1,0.4c0.2,0.2,0.2,0.5,0.2,0.7C36.7,34.2,36.7,34.3,36.7,34.3z"/>
</g>
</svg>
