<?xml version="1.0" encoding="utf-8"?>
<!-- Generator: Adobe Illustrator 26.3.1, SVG Export Plug-In . SVG Version: 6.00 Build 0)  -->
<svg version="1.1" id="Layer_1" xmlns="http://www.w3.org/2000/svg" xmlns:xlink="http://www.w3.org/1999/xlink" x="0px" y="0px"
	 viewBox="0 0 50 50" style="enable-background:new 0 0 50 50;" xml:space="preserve">
<style type="text/css">
	.st0{fill:#A6C1C2;}
	.st1{fill:#B9D7D9;}
	.st2{fill:none;stroke:#494949;stroke-width:1.5;stroke-linecap:round;stroke-linejoin:round;stroke-miterlimit:10;}
	.st3{fill:none;stroke:#494949;stroke-linecap:round;stroke-linejoin:round;stroke-miterlimit:10;}
	.st4{fill:none;stroke:#494949;stroke-width:2.5;stroke-linecap:round;stroke-linejoin:round;stroke-miterlimit:10;}
</style>
<g>
	<g>
		<path class="st0" d="M41.2,24.1l-4.1,1.5l-10.9,4h0l-6,2.2c0,0,0,0,0,0l-7,2.5l-3.7,1.3c-1.2-2.5-1-5.4,0.4-7.8
			c-1.3-1.5-2.1-3.3-2.1-5.3c0,0,0-0.1,0-0.2c0-0.1,0-0.3,0-0.4l4.6-1.7c0,0,0,0,0,0l21.2-7.7l4-1.5l1.1,1.1c0.4,0.4,0.7,0.8,1,1.3
			c0.9,1.3,1.4,2.9,1.4,4.5c0,1.5-0.4,3-1.2,4.3C40.5,22.8,40.9,23.4,41.2,24.1z"/>
	</g>
	<g>
		<path class="st1" d="M38.1,11.4l-4,1.5l-21.9,8l-4.2,1.6c0,0,0-0.1,0-0.2c0-0.1,0-0.3,0-0.4c0.1-2,0.9-3.9,2.4-5.4L21,5.8
			c1.5-1.5,3.6-2.4,5.8-2.4c2.2,0,4.2,0.8,5.8,2.4L38.1,11.4z"/>
	</g>
	<g>
		<path class="st2" d="M31.3,24.5l-6.7,6.7c-1.3,1.3-3.5,1.3-4.8,0L13,24.5c-1.3-1.3-1.3-3.5,0-4.8L24.5,8.1c1.3-1.3,3.5-1.3,4.8,0
			l6.7,6.7c1.3,1.3,1.3,3.5,0,4.8"/>
		<path class="st3" d="M18.7,25.5l6.7-6.7c1.3-1.3,3.5-1.3,4.8,0l6.7,6.7c1.3,1.3,1.3,3.5,0,4.8L25.5,41.9c-1.3,1.3-3.5,1.3-4.8,0
			l-6.7-6.7c-1.3-1.3-1.3-3.5,0-4.8"/>
	</g>
	<path class="st4" d="M39.7,33.4L29,44.2c-1.5,1.5-3.6,2.4-5.8,2.4s-4.2-0.8-5.8-2.4l-6.3-6.2c-0.7-0.7-1.2-1.5-1.6-2.3
		c-1.2-2.5-1-5.4,0.4-7.8c-1.3-1.5-2.1-3.3-2.1-5.3c0,0,0-0.1,0-0.2c0-0.1,0-0.3,0-0.4c0.1-2,0.9-3.9,2.4-5.4L21,5.8
		c1.5-1.5,3.6-2.4,5.8-2.4c2.2,0,4.2,0.8,5.8,2.4l6.2,6.2c0.4,0.4,0.7,0.8,1,1.3c0.9,1.3,1.4,2.9,1.4,4.5c0,1.5-0.4,3-1.2,4.3
		c0.5,0.6,0.9,1.2,1.3,1.9C42.7,27.1,42.2,30.9,39.7,33.4z"/>
</g>
</svg>
