<?xml version="1.0" encoding="utf-8"?>
<!-- Generator: Adobe Illustrator 24.0.0, SVG Export Plug-In . SVG Version: 6.00 Build 0)  -->
<svg version="1.1" id="Layer_1" xmlns="http://www.w3.org/2000/svg" xmlns:xlink="http://www.w3.org/1999/xlink" x="0px" y="0px"
	 viewBox="0 0 50 50" style="enable-background:new 0 0 50 50;" xml:space="preserve">
<style type="text/css">
	.st0{fill:#FCC34F;}
	.st1{fill:#FDCF72;}
	.st2{fill:#444444;}
</style>
<g>
	<g>
		<path class="st0" d="M45,10.8l-2.7-2.7L4.7,21.8v24.5c0,1.1,0.9,2.1,2.1,2.1h19.7L45,41.6V10.8z"/>
	</g>
	<g>
		<path class="st1" d="M35.8,2H7.5c-1.1,0-2,0.9-2,2v18.1L42.5,8.6L35.8,2z"/>
	</g>
	<g>
		<path class="st2" d="M45.8,18.9v-8l-10-10H7.4c-1.8,0-3.2,1.5-3.2,3.2v14.7C2.9,19,1.9,20,1.9,21.3v16.1c0,1.3,1,2.4,2.3,2.5v5.8
			c0,1.8,1.5,3.2,3.2,3.2h30.2c0.7,0,1.2-0.6,1.2-1.2s-0.6-1.2-1.2-1.2H7.4c-0.4,0-0.8-0.3-0.8-0.8V40h36.6v2.2
			c0,0.7,0.6,1.2,1.2,1.2s1.2-0.6,1.2-1.2V40c1.3-0.1,2.3-1.2,2.3-2.5V21.3C48.1,20,47.1,19,45.8,18.9z M7.4,3.4h26l0.2,7
			c0,1.3,1.1,2.3,2.4,2.3l7.3-0.2v6.3H6.7V4.2C6.7,3.8,7,3.4,7.4,3.4z M10.5,36.7c-1.5,0-3-0.4-3.8-0.8v-1l0.4-1.7
			c0.9,0.4,2.2,0.9,3.6,0.9c1.5,0,2.3-0.6,2.3-1.5c0-0.9-0.7-1.4-2.4-2c-2.2-0.8-3.7-2-3.9-3.8V26c0.2-2.3,2.2-3.9,5.3-3.9
			c1.6,0,2.8,0.3,3.6,0.7l-0.7,2.6c-0.6-0.3-1.6-0.7-3-0.7c-1.4,0-2.1,0.6-2.1,1.4c0,0.9,0.8,1.3,2.6,2c2.5,0.9,3.7,2.2,3.7,4.2
			C16.2,34.7,14.4,36.7,10.5,36.7z M30.3,22.3L30.3,22.3l-4.8,14.2h-3.8l-4.6-14.2h3.5l1.7,6c0.5,1.7,0.9,3.3,1.3,5.1h0.1
			c0.4-1.7,0.8-3.4,1.3-5l1.8-6.1L30.3,22.3L30.3,22.3z M38.8,36.7c-2.6,0-4.5-0.7-5.8-1.9c-1.3-1.2-2-3.1-2-5.2
			c0-4.7,3.5-7.4,8.1-7.4c1.8,0,3.2,0.4,3.9,0.7l-0.7,2.6c-0.8-0.3-1.8-0.6-3.3-0.6c-2.7,0-4.7,1.5-4.7,4.6c0,2.9,1.8,4.7,4.5,4.7
			c0.7,0,1.3-0.1,1.6-0.2v-3h-2.2v-2.5h5.1V36C42.3,36.3,40.5,36.7,38.8,36.7z"/>
	</g>
</g>
</svg>
