<svg xmlns="http://www.w3.org/2000/svg" id="Layer_1" x="0" y="0" version="1.1" viewBox="0 0 50 50" xml:space="preserve"><style>.st2{fill:#031326}</style><path fill="#fcc34f" d="M12.4 43.2l33.9-12.4c.5-1.9.8-3.8.8-5.8 0-12.2-9.9-22.1-22.1-22.1S2.9 12.8 2.9 25c0 7.5 3.7 14.2 9.5 18.2z"/><path fill="#fdcf72" d="M37.1 6.5c-3.5-2.3-7.6-3.6-12-3.6-10 0-18.4 6.6-21.1 15.6l33.1-12z"/><path d="M16 22.2v-1.9c0-1.3.4-2.1 1.1-2.4l-.5-1.6c-1 .3-1.7.8-2.2 1.4-.5.7-.8 1.5-.8 2.6v1.9c0 1.2-.4 1.8-1.3 1.8v2c.9 0 1.3.6 1.3 1.8v1.7c0 2.1 1 3.5 3 4.1l.5-1.6c-.7-.2-1.1-1-1.1-2.3v-1.9c0-1.3-.5-2.3-1.5-2.8 1-.5 1.5-1.5 1.5-2.8zm3.9 1.3c-.4 0-.8.1-1.1.4-.3.3-.4.6-.4 1.1s.1.8.4 1.1.7.4 1.1.4c.4 0 .8-.1 1.1-.4.3-.3.4-.6.4-1.1s-.1-.8-.4-1.1c-.3-.3-.7-.4-1.1-.4zm5.1 0c-.4 0-.8.1-1.1.4-.3.3-.4.6-.4 1.1s.1.8.4 1.1.7.4 1.1.4c.4 0 .8-.1 1.1-.4.3-.3.4-.6.4-1.1s-.1-.8-.4-1.1c-.3-.3-.7-.4-1.1-.4zm5.1 0c-.4 0-.8.1-1.1.4-.3.3-.4.6-.4 1.1s.1.8.4 1.1.7.4 1.1.4c.4 0 .8-.1 1.1-.4s.4-.6.4-1.1-.1-.8-.4-1.1-.7-.4-1.1-.4zm6.4-3.1c0-1.1-.3-2-.7-2.6-.5-.7-1.2-1.1-2.2-1.4l-.6 1.5c.7.3 1.1 1.1 1.1 2.4v1.9c0 1.3.5 2.3 1.5 2.8-1 .5-1.5 1.5-1.5 2.8v1.9c0 1.3-.4 2.1-1.1 2.4l.5 1.6c1.9-.6 2.9-1.9 3-4v-1.9c0-1.2.4-1.8 1.3-1.8v-2c-.9 0-1.3-.6-1.3-1.8v-1.8z" class="st2"/><path d="M25 1.6C12.1 1.6 1.7 12.1 1.7 25c0 12.9 10.5 23.4 23.4 23.4.7 0 1.2-.6 1.2-1.2s-.6-1.2-1.2-1.2c-11.6-.1-20.9-9.5-20.9-21S13.5 4.1 25 4.1 45.9 13.5 45.9 25c0 1.9-.2 3.7-.7 5.5-.2.7.2 1.3.8 1.5.7.2 1.4-.2 1.5-.9.5-2 .8-4.1.8-6.1C48.4 12.1 37.9 1.6 25 1.6z" class="st2"/><path d="M25 7C15.1 7 7 15.1 7 25s8.1 18 18 18 18-8.1 18-18S34.9 7 25 7zm0 34.5c-9.1 0-16.5-7.4-16.5-16.5S15.9 8.5 25 8.5 41.5 15.9 41.5 25 34.1 41.5 25 41.5z" class="st2"/></svg>