<?xml version="1.0" encoding="utf-8"?>
<!-- Generator: Adobe Illustrator 28.0.0, SVG Export Plug-In . SVG Version: 6.00 Build 0)  -->
<svg version="1.1" id="Layer_1" xmlns="http://www.w3.org/2000/svg" xmlns:xlink="http://www.w3.org/1999/xlink" x="0px" y="0px"
	 viewBox="0 0 50 50" style="enable-background:new 0 0 50 50;" xml:space="preserve">
<style type="text/css">
	.st0{fill:#FCC34F;}
	.st1{fill:none;stroke:#444444;stroke-width:0.5;stroke-linecap:round;stroke-linejoin:round;stroke-miterlimit:10;}
	.st2{fill:none;stroke:#444444;stroke-linecap:round;stroke-linejoin:round;stroke-miterlimit:10;}
	.st3{fill:none;stroke:#444444;stroke-width:2.5;stroke-linecap:round;stroke-linejoin:round;stroke-miterlimit:10;}
	.st4{fill:none;stroke:#444444;stroke-width:0.25;stroke-miterlimit:10;}
</style>
<g>
	<g>
		<g>
			<g>
				<g>
					<path class="st0" d="M9.4,12.9c0-1.5,0.9-10.7,2.4-10.7l22.4-0.4c1.5,0,2.7,1.2,2.5,2.6l0,0v0.2l1,8.9c0.2,1.1,4.3,6,4.1,10.6
						c0.9,6.1-4.1,14.1-4.1,14.1l-0.3,4.2l-16,5.7l-9.3-0.6c-1,0-2.6-1.7-2.6-2.8L8.7,37l-3.6-8.2l0.5-7.7l3-6.4L9.4,12.9"/>
				</g>
				<g>
					<path class="st1" d="M27.3,5.4h-7.7c-0.8,0-1.6-0.7-1.6-1.6V1.7h10.8v2.1C28.9,4.8,28.2,5.4,27.3,5.4z"/>
				</g>
			</g>
		</g>
	</g>
	<g>
		<path class="st2" d="M25,29.4l6.2-7.4c0.3-0.3,0.3-0.8,0-1.1l0,0c-0.3-0.4-0.9-0.5-1.3-0.1l-6,5.1c-0.1,0.1-0.3,0.1-0.4,0
			l-2.9-1.8c-0.4-0.3-1-0.2-1.3,0.1l0,0c-0.4,0.4-0.4,1,0,1.5l3.3,3.8C23.3,30.1,24.4,30.1,25,29.4z"/>
		<path class="st2" d="M27.4,20.5c-1.1-0.7-2.4-1.1-3.9-1.1c-3.9,0-7,3.1-7,7c0,3.9,3.1,7,7,7s7-3.1,7-7c0-0.2,0-0.4,0-0.6"/>
		<path class="st2" d="M27.1,41.4c-0.5,0-1-0.3-1.3-0.8l-1.5-3c-0.3,0-0.5,0-0.8,0c-0.2,0-0.5,0-0.7,0l-1.5,3
			c-0.2,0.5-0.7,0.8-1.3,0.8c-0.2,0-0.4,0-0.5-0.1L16,39.8c-0.7-0.3-1-1-0.8-1.7l1.1-3.2c-0.4-0.3-0.7-0.7-1-1L12,34.8
			c-0.1,0-0.3,0.1-0.4,0.1c-0.6,0-1.1-0.3-1.3-0.9l-1.5-3.5c-0.3-0.7,0-1.5,0.7-1.8l3-1.5c0-0.5,0-1,0-1.5l-3-1.5
			c-0.7-0.3-0.9-1.1-0.7-1.8l1.5-3.5c0.2-0.5,0.7-0.9,1.3-0.9c0.1,0,0.3,0,0.4,0.1l3.2,1.1c0.3-0.4,0.7-0.7,1-1l-1.1-3.2
			c-0.2-0.7,0.1-1.5,0.8-1.7l3.5-1.5c0.2-0.1,0.4-0.1,0.5-0.1c0.5,0,1,0.3,1.3,0.8l1.5,3c0.3,0,0.5,0,0.8,0c0.2,0,0.5,0,0.7,0l1.5-3
			c0.2-0.5,0.7-0.8,1.3-0.8c0.2,0,0.4,0,0.5,0.1l3.5,1.5c0.7,0.3,1,1,0.8,1.7l-1.1,3.2c0.4,0.3,0.7,0.7,1,1l3.2-1.1
			c0.1,0,0.3-0.1,0.4-0.1c0.6,0,1.1,0.3,1.3,0.9l1.5,3.5c0.3,0.7,0,1.5-0.7,1.8l-3,1.5c0,0.5,0,1,0,1.5l3,1.5
			c0.7,0.3,0.9,1.1,0.7,1.8L36.9,34c-0.2,0.5-0.7,0.9-1.3,0.9l0,0c-0.1,0-0.3,0-0.4-0.1L32,33.8c-0.3,0.4-0.7,0.7-1,1L32,38
			c0.2,0.7-0.1,1.5-0.8,1.7l-3.5,1.5C27.5,41.3,27.3,41.4,27.1,41.4z"/>
	</g>
	<path class="st3" d="M37.5,37.9c2.8-3.2,4.7-7.4,4.7-12c0-4.8-1.8-9.1-4.8-12.4V6.8c0-2.9-2.3-5.2-5.2-5.2H14.6
		c-2.9,0-5.2,2.3-5.2,5.2"/>
	<path class="st3" d="M9.4,6.8l0,7.2c-2.7,3.2-4.4,7.4-4.4,11.9c0,4.6,1.5,8.7,4.3,11.9l0,5.3c0,2.9,2.4,5.3,5.3,5.3h11.5"/>
	<path class="st3" d="M20.8,48.4"/>
	<path class="st3" d="M37.5,37.9l0,5.3"/>
	<g>
		<line class="st4" x1="10.6" y1="34.6" x2="10.6" y2="45.9"/>
		<line class="st4" x1="10.6" y1="24.6" x2="10.6" y2="28.2"/>
		<line class="st4" x1="10.6" y1="4.6" x2="10.6" y2="18.4"/>
	</g>
	<g>
		<line class="st4" x1="36.4" y1="34.9" x2="36.4" y2="43.2"/>
		<line class="st4" x1="36.3" y1="24.9" x2="36.3" y2="28.4"/>
		<line class="st4" x1="36.3" y1="4.9" x2="36.3" y2="18.7"/>
	</g>
</g>
</svg>
