<svg xmlns="http://www.w3.org/2000/svg" version="1.0" viewBox="0 0 50 50"><path fill="#E589EF" d="M13.49 34.958a17.707 17.707 0 002.967 3.161l28.642-10.425c.182-1.015.282-2.058.282-3.125 0-1.006-.087-1.996-.252-2.964l1.96-.398c.224-.046.375-.277.299-.492-.391-1.111-2.192-2.317-3.317-2.829l-.002.003C41.947 12.698 37.41 8.745 31.86 7.425c-.357-.085-.632.316-.412.61 1.131 1.512 2.617 3.786 3.229 5.342-1.464-.567-3.264-1.035-5.224-1.413a.392.392 0 00-.432.54l2.992 6.886-29.16 10.439a.4.4 0 00-.024.739l6.517 2.894a.4.4 0 00.323 0l2.169-.974 1.652 2.47z"/><path fill="#F799FF" d="M31.103 16.971l10.281-3.742a17.591 17.591 0 00-9.383-5.804c-.358-.085-.632.316-.412.61 1.131 1.512 2.617 3.786 3.229 5.342-1.464-.567-3.264-1.035-5.224-1.413a.392.392 0 00-.432.54l1.941 4.467z"/><path fill="#031326" d="M48.567 20.3c-.51-1.451-2.347-2.711-3.543-3.337-2.37-5.386-7.144-9.391-12.875-10.754a1.659 1.659 0 00-1.761.699 1.619 1.619 0 00.059 1.876 36.863 36.863 0 011.707 2.499 44.165 44.165 0 00-2.466-.547c-.595-.115-1.207.109-1.589.586s-.468 1.121-.225 1.679l2.459 5.661L2.42 28.656a1.642 1.642 0 00-1.077 1.493 1.644 1.644 0 00.979 1.561l6.514 2.892c.422.189.909.191 1.346.001l1.206-.542 1.092 1.633a18.917 18.917 0 004.585 4.46l.328.22h.006a18.377 18.377 0 005.831 2.533 18.415 18.415 0 004.008.542c.167.004.333.006.501.006.26 0 .488-.098.688-.234 3.856-.846 6.351-6.628 8.384-11.352.251-.584.495-1.152.733-1.691 1.169-2.644 3.33-3.944 4.746-3.827.753.062 1.287.527 1.589 1.312-.014.606.392 1.153 1.007 1.262a1.25 1.25 0 001.449-1.011c.195-1.098.295-2.223.295-3.344 0-.658-.035-1.317-.104-1.972l.81-.165a1.647 1.647 0 001.109-.805c.233-.408.276-.893.122-1.328zm-3.708.084h-.008l-.525.108-.635.129v.002L41 21.177c.348-1.738.7-2.517.879-2.745.526-.05 1.496.512 1.689.6l.005.001a.047.047 0 00.01.005l.002.001c.67.31 1.376.775 1.89 1.219l-.616.126zm-2.446 4.47c-2.324-.184-4.947 1.791-6.24 4.715-.241.545-.487 1.117-.74 1.706-1.757 4.084-3.888 9.028-6.662 10.265-.223-.344-.591-.586-1.032-.586a16.563 16.563 0 01-1.726-.09 16.107 16.107 0 01-2.187-.386 15.924 15.924 0 01-5.335-2.385l-.22-.147a16.32 16.32 0 01-3.742-3.683l-1.361-2.058 2.648-1.331a.75.75 0 00-.674-1.34l-2.819 1.416-2.771 1.245-4.272-1.907 28.412-10.172-2.859-6.583c1.314.306 2.451.644 3.393 1.009l2.658 1.031-1.044-2.653c-.408-1.04-1.15-2.333-1.928-3.531a16.393 16.393 0 018.343 7.574 4.32 4.32 0 00-.512-.033c-1.009 0-1.677 1.214-2.234 4.061a1.43 1.43 0 001.408 1.706c.097 0 .195-.01.293-.03l2.724-.562c.124.813.197 1.639.197 2.463 0 .303-.023.606-.04.91a3.234 3.234 0 00-1.678-.624z"/></svg>