<?xml version="1.0" encoding="utf-8"?>
<!-- Generator: Adobe Illustrator 24.3.0, SVG Export Plug-In . SVG Version: 6.00 Build 0)  -->
<svg version="1.1" id="Layer_1" xmlns="http://www.w3.org/2000/svg" xmlns:xlink="http://www.w3.org/1999/xlink" x="0px" y="0px"
	 viewBox="0 0 50 50" style="enable-background:new 0 0 50 50;" xml:space="preserve">
<style type="text/css">
	.st0{fill:#00C8E2;}
	.st1{fill:#00DFFC;}
	.st2{fill:#444444;}
	.st3{fill-rule:evenodd;clip-rule:evenodd;fill:#444444;}
</style>
<g>
	<path class="st0" d="M5,45.4l41.8-15.2V8.6c0-3-2.4-5.4-5.4-5.4H8.6c-3,0-5.4,2.4-5.4,5.4v32.8C3.2,42.9,3.8,44.4,5,45.4z"/>
	<path class="st1" d="M45,4.6c-1-0.9-2.3-1.4-3.6-1.4H8.6c-3,0-5.4,2.4-5.4,5.4v11.3C3.2,19.8,45,4.6,45,4.6z"/>
	<path class="st2" d="M25,48.1H8.4c-3.6,0-6.6-3-6.6-6.6V8.4c0-3.6,2.9-6.6,6.6-6.6h33.1c3.6,0,6.6,2.9,6.6,6.6v21.7
		c0,0.6-0.5,1.2-1.2,1.2c-0.7,0-1.2-0.5-1.2-1.2l0,0V8.4c0-2.3-1.9-4.2-4.2-4.2H8.4c-2.3,0-4.2,1.9-4.2,4.2v33.1
		c0,2.3,1.9,4.2,4.2,4.2H25c0.6,0,1.2,0.5,1.2,1.1S25.7,48.1,25,48.1C25,48.1,25,48.1,25,48.1z"/>
</g>
<g>
	<path id="O" class="st3" d="M28.8,32.1c0.6,2.2,0.9,3.7,1.1,4.6c0.2,0.9,0.1,1.8-0.2,2.7S29,41,28.3,41.6c-0.7,0.6-1.6,1.1-2.6,1.3
		c-1,0.3-2,0.3-2.8,0.2c-0.9-0.2-1.7-0.6-2.4-1.2c-0.7-0.6-1.2-1.4-1.5-2.2c-0.3-0.9-0.8-2.4-1.4-4.6l-1-3.7
		c-0.6-2.2-0.9-3.7-1.1-4.6s-0.1-1.8,0.2-2.7c0.3-0.9,0.7-1.6,1.4-2.2c0.7-0.6,1.6-1.1,2.6-1.3c1-0.3,2-0.3,2.8-0.2
		c0.9,0.2,1.7,0.6,2.4,1.2c0.7,0.6,1.2,1.4,1.5,2.2c0.3,0.9,0.8,2.4,1.4,4.6L28.8,32.1z M22.1,26.3c-0.3-1-0.5-1.6-0.7-1.9
		c-0.2-0.3-0.4-0.3-0.7-0.3c-0.3,0.1-0.4,0.2-0.5,0.5s0,0.9,0.3,2.1l2.7,10.1c0.3,1.3,0.6,2,0.8,2.3c0.2,0.3,0.4,0.4,0.7,0.3
		c0.3-0.1,0.5-0.3,0.5-0.7c0-0.4-0.2-1.2-0.5-2.4L22.1,26.3z"/>
	<path id="O_1_" class="st3" d="M39.5,31.6c-1,2-1.7,3.4-2.2,4.2c-0.5,0.8-1.1,1.4-1.9,1.9c-0.8,0.5-1.6,0.7-2.5,0.7
		c-0.9,0-1.9-0.2-2.9-0.7c-0.9-0.5-1.7-1-2.3-1.8c-0.6-0.7-0.9-1.5-1-2.5c-0.1-0.9,0-1.8,0.3-2.7c0.3-0.9,1-2.3,2-4.4l1.7-3.4
		c1-2,1.7-3.4,2.2-4.2s1.1-1.4,1.9-1.9s1.6-0.7,2.5-0.7c0.9,0,1.9,0.2,2.9,0.7c0.9,0.5,1.7,1,2.3,1.8c0.6,0.7,0.9,1.5,1,2.5
		c0.1,0.9,0,1.8-0.3,2.7c-0.3,0.9-1,2.3-2,4.4L39.5,31.6z M38.2,22.8c0.5-0.9,0.7-1.6,0.7-1.9c0-0.3-0.1-0.5-0.4-0.7
		c-0.2-0.1-0.5-0.1-0.7,0.1c-0.2,0.1-0.6,0.7-1.1,1.8l-4.6,9.4c-0.6,1.2-0.9,1.9-0.9,2.2c-0.1,0.3,0.1,0.5,0.4,0.7
		c0.3,0.2,0.6,0.1,0.8-0.2c0.2-0.3,0.6-1,1.2-2.2L38.2,22.8z"/>
</g>
</svg>
