<svg id="Layer_1" data-name="Layer 1" xmlns="http://www.w3.org/2000/svg" viewBox="0 0 50 50"><defs><style>.cls-1{fill:#a6c1c2;}.cls-2{fill:#b9d7d9;}.cls-3{fill:none;}.cls-4{fill:#494949;}</style></defs><path class="cls-1" d="M49.2,19.1v.6l-2.4.9L43,22l-6,2.1-5.3,2L26.5,28,7.7,34.8l-2.3.8a13.9,13.9,0,0,1-3.1-7.7H1.5a1.1,1.1,0,1,1,0-2.2h.8A14,14,0,0,1,15.2,12.8v-.7a1.1,1.1,0,1,1,2.2,0v.8a14.45,14.45,0,0,1,9.3,4.5,20.25,20.25,0,0,1,.9-3.3l.1-.1a11.93,11.93,0,0,1,6.4-5.9,11.18,11.18,0,0,1,8.6.4,10.65,10.65,0,0,1,4.1,3.2,11.8,11.8,0,0,1,2.1,4A18.7,18.7,0,0,1,49.2,19.1Z"/><path class="cls-2" d="M46.7,11.7l-2.2.8-.9.3-2.1.8-2.2.8-6.8,2.5-3.7,1.3-3.5,1.3-9,3.3-2.7,1L7.2,26l-5,1.8H1.5a1.1,1.1,0,1,1,0-2.2h.8A14,14,0,0,1,15.2,12.7V12a1.1,1.1,0,1,1,2.2,0v.8a14.45,14.45,0,0,1,9.3,4.5,20.25,20.25,0,0,1,.9-3.3l.1-.1A11.93,11.93,0,0,1,34.1,8a11.18,11.18,0,0,1,8.6.4A12.63,12.63,0,0,1,46.7,11.7Z"/><path class="cls-3" d="M25,26.8a1.22,1.22,0,0,1,1.2-1.2h1.7a12.86,12.86,0,0,0-.4-1.9v-.1a.35.35,0,0,1-.1-.2,5.64,5.64,0,0,1-.4-1.2,11.74,11.74,0,0,0-1.5-2.7A12.43,12.43,0,0,0,20,15.7h-.1a8.73,8.73,0,0,0-2.2-.5v1.7a1.22,1.22,0,0,1-1.2,1.2,1.29,1.29,0,0,1-1.2-1.2V15.2A11.4,11.4,0,0,0,5.1,25.4H6.7a1.51,1.51,0,0,1,.9.4,1.14,1.14,0,0,1,.3.8,1.22,1.22,0,0,1-1.2,1.2H4.8a12.15,12.15,0,0,0,3,6.7,11.35,11.35,0,0,0,7.3,3.6V36.4a1.22,1.22,0,0,1,1.2-1.2,1.29,1.29,0,0,1,1.2,1.2v1.7A11.4,11.4,0,0,0,27.7,27.9H26C25.5,28,25,27.5,25,26.8Zm-8.6,4.1a4.2,4.2,0,1,1,4.2-4.2A4.23,4.23,0,0,1,16.4,30.9Z"/><path class="cls-3" d="M16.4,25a1.69,1.69,0,0,0-1.7,1.7,1.7,1.7,0,0,0,3.4,0A1.69,1.69,0,0,0,16.4,25Z"/><path class="cls-4" d="M16.4,22.5a4.2,4.2,0,1,0,4.2,4.2A4.23,4.23,0,0,0,16.4,22.5Zm0,5.9a1.75,1.75,0,0,1-1.7-1.7,1.7,1.7,0,0,1,3.4,0A1.75,1.75,0,0,1,16.4,28.4Z"/><path class="cls-4" d="M47.4,11.7a11.63,11.63,0,0,0-4.7-3.6A12,12,0,0,0,34.1,8a13.09,13.09,0,0,0-5,3.5,7.86,7.86,0,0,0-1.7,2.4,9,9,0,0,0-.5,1.6,5.5,5.5,0,0,0-.3,1.6,13.29,13.29,0,0,0-9.1-4.3V12a1.2,1.2,0,0,0-2.4,0v.7A13.94,13.94,0,0,0,2.3,25.6H1.7a1.2,1.2,0,1,0,0,2.4h.7a13.48,13.48,0,0,0,3.1,7.7,13.84,13.84,0,0,0,9.8,5.2v.7a1.22,1.22,0,0,0,1.2,1.2,1.29,1.29,0,0,0,1.2-1.2v-.7A14,14,0,0,0,30.6,28h.7a1.22,1.22,0,0,0,1.2-1.2,1.27,1.27,0,0,0-.4-.9,1.33,1.33,0,0,0-.8-.3h-.7a11.12,11.12,0,0,0-1.2-4.5,9.49,9.49,0,0,1-.2-2,8,8,0,0,1,1.2-4.5,7.3,7.3,0,0,1,3.4-2.8c3.9-1.5,7.5,1.4,8,2a3.08,3.08,0,0,1,.5.7,3.54,3.54,0,0,1,.4,1.1A5.63,5.63,0,0,1,41.2,21a4.89,4.89,0,0,1-1.3.8,4.4,4.4,0,0,1-2.7.1,3.69,3.69,0,0,1-2.1-1.7,3.55,3.55,0,0,1-.4-1.6A3,3,0,0,1,36,16.1c.1,0,.1-.1.2-.1s.2-.1.3-.1a2.27,2.27,0,0,1,1.6.1,2.31,2.31,0,0,1,.7.5,1.5,1.5,0,0,1,.1,1.7,1.45,1.45,0,0,0,.1,1.1,1.38,1.38,0,0,0,1,.6,1.25,1.25,0,0,0,.9-.4c.2-.2.3-.3.3-.4a6.62,6.62,0,0,0,.3-1.8,4.56,4.56,0,0,0-.6-1.9,3.18,3.18,0,0,0-1.1-1.3,2,2,0,0,0-.8-.4,3.71,3.71,0,0,0-.9-.2H37a5.76,5.76,0,0,0-1.7.5A4.92,4.92,0,0,0,33,16.7a7.25,7.25,0,0,0-.2,2.6,5.74,5.74,0,0,0,2,3.7,5.59,5.59,0,0,0,2.8,1.1,7.33,7.33,0,0,0,2.2-.1,7.77,7.77,0,0,0,1.9-.6,6,6,0,0,0,2.1-1.5,7.27,7.27,0,0,0,1.6-5.4,5,5,0,0,0-.2-1.2,6.5,6.5,0,0,0-1-2.5,9.28,9.28,0,0,0-1.9-2.1A9,9,0,0,1,45,12.6a10.16,10.16,0,0,1,2.1,3.3,8.64,8.64,0,0,1,.3,4.5,8.78,8.78,0,0,1-1,2.8,10.25,10.25,0,0,1-4.7,4.1,6.74,6.74,0,0,1-4.2.7,2,2,0,0,0-.7.1,1.7,1.7,0,0,0-.6.6c-.1.2-.1.4-.2.5a1.48,1.48,0,0,0,.9,1.3,1.08,1.08,0,0,0,.7.2h1a11.67,11.67,0,0,0,4.1-.7c4.9-1.9,6.5-7.1,6.6-7.8A12.31,12.31,0,0,0,47.4,11.7ZM17.6,38.3V36.6a1.22,1.22,0,0,0-1.2-1.2,1.29,1.29,0,0,0-1.2,1.2v1.7a11.35,11.35,0,0,1-7.3-3.6,11.49,11.49,0,0,1-3-6.7H6.6a1.22,1.22,0,0,0,1.2-1.2,1.14,1.14,0,0,0-.3-.8,1.51,1.51,0,0,0-.9-.4H4.9A11.31,11.31,0,0,1,15.1,15.4v1.7a1.22,1.22,0,0,0,1.2,1.2,1.29,1.29,0,0,0,1.2-1.2V15.4a8.73,8.73,0,0,1,2.2.5h.1a11.68,11.68,0,0,1,5.5,3.8,11.74,11.74,0,0,1,1.5,2.7,4.88,4.88,0,0,1,.3.7,9.58,9.58,0,0,1,.5,1.7,3.71,3.71,0,0,0,.2.9H26a1.22,1.22,0,0,0-1.2,1.2A1.29,1.29,0,0,0,26,28.1h1.7A11.3,11.3,0,0,1,17.6,38.3Z"/></svg>