<svg xmlns="http://www.w3.org/2000/svg" id="Layer_1" x="0" y="0" version="1.1" viewBox="0 0 50 50" xml:space="preserve"><style>.st3{fill:#031326}</style><path fill="#afe55d" d="M46.1 25.7l.4 4.1L3.3 45.6l.1-8.7.3-5 43-15.7-.6 3.6z"/><path fill="#c3ff68" d="M46.9 12.2l-1.3 5L3.4 32.6l-.3-5.2.5-2.9L45.9 8.9z"/><path fill="#031326" d="M31.5 49.2h-28c-.7 0-1.2-.6-1.2-1.2V2c0-.7.6-1.2 1.2-1.2h43.1c.7 0 1.2.6 1.2 1.2v26.9c0 .7-.6 1.2-1.2 1.2s-1.2-.6-1.2-1.2V3.3H4.7v43.4h26.8c.7 0 1.2.6 1.2 1.2s-.5 1.3-1.2 1.3z"/><g id="testing"><path d="M34.5 23.9c1.9 0 3.4-1.5 3.4-3.4s-1.5-3.4-3.4-3.4c.4-.8.6-1.8.6-2.8 0-1.7-.7-3.2-1.8-4.4-1.1-1.1-2.7-1.8-4.4-1.8-2.8 0-5.3 1.9-6 4.6-.9-.8-2-1.3-3.2-1.3h-.1c-1.3 0-2.5.6-3.3 1.5-.9.9-1.3 2.1-1.3 3.3 0 .3.1.6.2.8-.9.1-1.7.5-2.2 1.2-.6.7-.8 1.6-.8 2.5.2 1.7 1.6 3.1 3.4 3.1H20v1h-3.9c-1 0-1.7.8-1.7 1.7v11.7H14c-.3 0-.6.3-.6.6v.1l.2 1.4v.1c.2.7.9 1.2 1.6 1.2h19.6c.8 0 1.4-.5 1.6-1.2v-.1l.2-1.4c0-.2 0-.3-.1-.5-.1-.1-.2-.2-.4-.2h-.5V26.7c0-.9-.8-1.7-1.7-1.7H30v-1h4.5zm.9 15.7l-.1.7c-.1.2-.3.3-.5.3H15.2c-.2 0-.4-.1-.5-.3l-.1-.7h8.1c0 .3.3.5.6.5h3.4c.3 0 .6-.2.6-.5h8.1zm-1.5-13.4c.3 0 .5.2.5.5v11.7h-7.8c-.3 0-.6.2-.6.6h-2.1c0-.3-.3-.6-.6-.6h-7.8V26.7c0-.3.2-.5.5-.5h4.4l.2.1-.2.3c-.2.2-.1.5.1.7l1.6 1.6c.2.2.5.2.7.1l.3-.2.1.3c.1.3.3.5.6.5H26c.3 0 .5-.2.6-.5l.1-.3.3.2c.2.1.5.1.7-.1l1.6-1.6c.2-.2.2-.5.1-.7l-.2-.3.2-.1h4.5zm-11.7-3.5l-.3-.6.9-.9.6.3c.2.1.4.1.6 0 .2-.1.3-.2.4-.4l.2-.6h1.3l.2.6c0 .2.2.3.4.4.2.1.4.1.6 0l.6-.3.9.9-.3.6c-.1.2-.1.4 0 .6.1.2.2.3.4.4l.6.2v1.3l-.6.2c-.2 0-.3.2-.4.4-.1.2 0 .4 0 .6l.3.6-.9.9-.6-.3c-.2-.1-.4-.1-.6 0-.2.1-.3.2-.4.4l-.2.6h-1.3l-.2-.6c0-.2-.2-.3-.4-.4-.2-.1-.4-.1-.6 0l-.6.3-.9-.9.3-.6c.1-.2.1-.4 0-.6-.1-.2-.2-.3-.4-.4l-.6-.2v-1.3l.6-.2c.2 0 .3-.2.4-.4.1-.2.1-.4 0-.6zm7.3 0l-.2-.1.2-.3c.2-.2.1-.5-.1-.7L27.8 20c-.2-.2-.5-.2-.7-.1l-.3.2-.1-.3c-.1-.3-.3-.5-.6-.5h-2.2c-.3 0-.5.2-.6.5l-.1.3-.3-.1c-.2-.1-.5-.1-.7.1l-1.6 1.6c-.2.2-.2.5-.1.7l.2.3-.2.1h-5c-1.2 0-2.2-1-2.2-2.2 0-1.2 1-2.2 2.2-2.2h.6c.2 0 .4-.1.5-.2.1-.2.1-.4.1-.6l-.3-.6c-.1-.2-.2-.4-.2-.6 0-1 .4-1.9 1-2.5.7-.7 1.6-1 2.5-1 1.3 0 2.5.7 3.1 1.8.2.3.5.4.8.2.2-.1.3-.3.3-.5 0-1.3.6-2.6 1.5-3.5.9-.9 2.2-1.4 3.4-1.4h.2c1.3 0 2.6.6 3.5 1.5.9 1 1.4 2.2 1.4 3.6 0 1.1-.4 2.1-1 2.9-.1.1-.1.3-.1.5s.1.3.2.4c.1.1.2.1.4.1h1.1c1.2 0 2.2 1 2.2 2.2 0 1.2-1 2.2-2.2 2.2h-5z" class="st3"/><path d="M25 22.2c-1.3 0-2.3 1-2.3 2.3s1 2.3 2.3 2.3 2.3-1 2.3-2.3-1-2.3-2.3-2.3zm0 3.3c-.6 0-1.1-.5-1.1-1.1s.5-1.1 1.1-1.1 1.1.5 1.1 1.1-.5 1.1-1.1 1.1zm7.9-11.1h-1.2c0-1.5-1.2-2.7-2.8-2.7v-1.2c2.2-.1 4 1.7 4 3.9zm-13.2-.6V15c-.7 0-1.3.5-1.3 1.2l-1.2-.1V16c.1-1.2 1.2-2.2 2.5-2.2zm22.1 7.3v10.6c0 .3-.3.6-.6.6h-4.5v-1.2h3.9v-9.4h-1.7v-1.2h2.3c.3 0 .6.3.6.6zm-28.5 10v1.2H8.8c-.3 0-.6-.3-.6-.6V21.1c0-.3.3-.6.6-.6h2.3v1.2H9.4v9.4h3.9zm15.3 2.3c.6.8.9 1.8.9 2.7h-1.2c0-.7-.2-1.3-.6-1.9l-2.3 2.3-.9-.9 2.3-2.3c-.5-.4-1.2-.6-1.9-.6-.9 0-1.7.3-2.3 1-.6.6-1 1.4-1 2.3h-1.2c0-1 .3-2 1-2.8 1.5-2 4.3-2.3 6.3-.8l2.5-2.5.9.9-2.5 2.6zm-12-6.2h3.5v1.2h-3.5zm0 2.2h3.5v1.2h-3.5zm13.9 4.5H34v1.2h-3.5zm0 2.2H34v1.2h-3.5z" class="st3"/></g></svg>