<?xml version="1.0" encoding="UTF-8"?>
<svg id="Camada_1" data-name="Camada 1" xmlns="http://www.w3.org/2000/svg" version="1.1" viewBox="0 0 50 50">
  <defs>
    <style>
      .cls-1, .cls-2, .cls-3, .cls-4 {
        fill: none;
        stroke: #444;
        stroke-linecap: round;
      }

      .cls-1, .cls-3 {
        stroke-width: .5px;
      }

      .cls-1, .cls-4 {
        stroke-linejoin: round;
      }

      .cls-5 {
        fill: #8256d8;
      }

      .cls-5, .cls-6 {
        stroke-width: 0px;
      }

      .cls-6 {
        fill: #a475ef;
      }

      .cls-2, .cls-3 {
        stroke-miterlimit: 10;
      }

      .cls-4 {
        stroke-width: 2.5px;
      }
    </style>
  </defs>
  <path class="cls-5" d="M28.5,20.1l7.9,2.4-6.7,4.7v8.2c.1,0-6.5-4.9-6.5-4.9l-7.8,2.7,2.7-7.8-5-6.6h8.3c0,.1,4.7-6.6,4.7-6.6l2.4,7.9Z"/>
  <path class="cls-6" d="M43.6,12.6l-5.6-3.6-7.7-4.4-6-2.8C21.1,1.8,2.8,10.7,2.8,13.9l-.5,7.8.5,15.1,11.5,7.6,31-11c.9-.5-.7-18.8-1.7-20.8Z"/>
  <path class="cls-4" d="M28.9,46.7l-2.2,1.3c-1.7,1-3.8,1-5.5,0l-15.6-9c-1.6-1-2.7-2.8-2.7-4.8v-18c0-2,1-3.8,2.7-4.7L21.2,2.5c1.7-1,3.8-1,5.5,0l15.6,9c1.7,1,2.7,2.8,2.7,4.7v18c0,2-1,3.8-2.7,4.7l-2.5,1.4"/>
  <path class="cls-2" d="M24.4,28.7l-1.7-2.3c-.6-.9-1.7-1.4-2.8-1.4h-8.2c-.9,0-1.7.5-2.1,1.2l-3,4.9c-1,1.6.2,3.7,2.1,3.7h7.8c.9,0,1.7-.8,1.7-1.7s-.8-1.7-1.7-1.7h-4.5M21.6,30.8v3.8M16.6,34.7h23.1"/>
  <path class="cls-3" d="M22.5,34.7l3.2-8.6c.1-.2.3-.4.5-.4h12.7c.4,0,.7.4.5.8l-3,8.2"/>
  <circle class="cls-2" cx="16.3" cy="19.4" r="3.7"/>
  <path class="cls-1" d="M28.9,28.9l-2,1.5,2,1.5M33.3,31.9l2-1.5-2-1.5M31.8,28.4l-1.6,4"/>
</svg>