<?xml version="1.0" encoding="utf-8"?>
<!-- Generator: Adobe Illustrator 21.0.0, SVG Export Plug-In . SVG Version: 6.00 Build 0)  -->
<svg version="1.0" id="Layer_1" xmlns="http://www.w3.org/2000/svg" xmlns:xlink="http://www.w3.org/1999/xlink" x="0px" y="0px"
	 viewBox="0 0 50 50" enable-background="new 0 0 50 50" xml:space="preserve">
<g>
	<g>
		<path fill="#FCC34F" d="M8.333,45.502l7.061-7.061c1.855,1.392,3.905,2.402,6.041,3.041l21.678-7.89
			c4.929-7.496,4.099-17.668-2.494-24.26c-7.544-7.545-19.776-7.545-27.321,0c-6.883,6.883-7.466,17.658-1.788,25.226l-7.062,7.061
			c-1.072,1.072-1.072,2.811,0,3.883S7.26,46.575,8.333,45.502z"/>
	</g>
	<g>
		<path fill="#FDCF72" d="M35.79,5.729c-7.237-3.628-16.273-2.436-22.311,3.603c-1.78,1.779-3.129,3.821-4.067,5.998L35.79,5.729z"
			/>
	</g>
	<g>
		<path fill="#444444" d="M41.504,8.448c-3.885-3.885-9.051-6.025-14.544-6.025c-5.495,0-10.66,2.14-14.544,6.025
			c-6.927,6.926-7.937,17.908-2.535,25.971l-6.315,6.315c-0.755,0.755-1.171,1.758-1.17,2.826c0,1.067,0.416,2.071,1.17,2.825
			c0.755,0.755,1.758,1.171,2.826,1.171c1.067,0,2.071-0.416,2.825-1.171l6.315-6.314c3.384,2.273,7.313,3.473,11.43,3.478
			c0.001,0,0.001,0,0.002,0c0.689,0,1.249-0.559,1.25-1.248c0.001-0.69-0.559-1.251-1.248-1.252
			c-3.939-0.005-7.681-1.253-10.821-3.608l-0.867-0.65l-0.037,0.037c-0.38-0.324-0.751-0.66-1.104-1.012
			c-0.353-0.352-0.688-0.723-1.012-1.104l0.037-0.037l-0.65-0.867c-5.357-7.14-4.638-17.281,1.672-23.591
			c3.413-3.413,7.95-5.292,12.777-5.292c4.826,0,9.363,1.879,12.776,5.292c6.043,6.043,7.018,15.597,2.316,22.718
			c-0.381,0.576-0.222,1.352,0.354,1.731c0.576,0.383,1.352,0.223,1.731-0.354C49.491,26.204,48.384,15.327,41.504,8.448z
			 M7.449,44.619c-0.565,0.564-1.55,0.564-2.115,0c-0.283-0.283-0.438-0.658-0.438-1.059c0-0.399,0.155-0.775,0.438-1.058
			l3.894-3.895l2.116,2.116L7.449,44.619z M12.058,35.777c0.326,0.378,0.665,0.746,1.017,1.098c0.352,0.352,0.72,0.691,1.099,1.018
			l-2.123,2.123l-2.116-2.116L12.058,35.777z"/>
		<path fill="#444444" d="M37.726,12.226c-5.936-5.937-15.595-5.938-21.532,0c-5.937,5.937-5.937,15.596,0,21.532
			c2.968,2.969,6.867,4.452,10.766,4.452c3.899,0,7.799-1.483,10.767-4.452C43.662,27.822,43.662,18.162,37.726,12.226z
			 M37.019,33.051c-5.548,5.548-14.571,5.546-20.118,0c-5.546-5.547-5.546-14.572,0-20.118c2.773-2.773,6.416-4.16,10.06-4.16
			c3.643,0,7.285,1.386,10.059,4.16C42.565,18.479,42.565,27.504,37.019,33.051z"/>
		<path fill="#444444" d="M26.973,22.529c2.15,0,3.905-1.704,3.995-3.833v-0.204c0-2.201-1.805-3.992-4.024-3.992
			c-2.2,0-3.99,1.763-4.019,3.94h3.14c0.154,0,0.278,0.125,0.278,0.278s-0.125,0.278-0.278,0.278h-3.976h-0.073
			c-2.01,0.223-3.579,1.927-3.579,4.01c0,2.069,1.594,3.774,3.626,3.972C22.306,24.485,24.414,22.529,26.973,22.529z M25.969,17.282
			c-0.396,0-0.718-0.321-0.718-0.718s0.321-0.718,0.718-0.718s0.718,0.321,0.718,0.718S26.365,17.282,25.969,17.282z"/>
		<path fill="#444444" d="M31.881,18.976c-0.229,2.508-2.341,4.48-4.908,4.48c-2.152,0-3.907,1.705-3.998,3.833v0.174
			c0,2.217,1.805,4.021,4.024,4.021c2.19,0,3.974-1.761,4.018-3.94h-3.139c-0.154,0-0.278-0.125-0.278-0.278
			s0.125-0.278,0.278-0.278h3.835c2.111-0.12,3.793-1.87,3.793-4.01C35.505,20.894,33.913,19.176,31.881,18.976z M27.974,28.703
			c0.396,0,0.718,0.322,0.718,0.718s-0.321,0.718-0.718,0.718s-0.718-0.321-0.718-0.718S27.578,28.703,27.974,28.703z"/>
	</g>
</g>
</svg>
