<svg xmlns="http://www.w3.org/2000/svg" viewBox="0 0 50 50"><defs><style>.cls-1{fill:#fcc34f}.cls-3{fill:#031326}</style></defs><g id="ICONES"><path d="M48.69 7.78H.97v35.77h6.22v.47l41.5-15.39V7.78z" class="cls-1"/><path fill="#fdcf72" d="M48.69 5.78v3.68L.97 27.16V5.78h47.72z"/><path d="M49.66 44.39H.34V5.61H34a1.25 1.25 0 110 2.5H2.84v33.78h44.32V20.1a1.25 1.25 0 112.5 0z" class="cls-3"/><path d="M7.83 12.75h34.35v24.5H7.83z" class="cls-3"/><path d="M5.86 10.84v28.32h38.28V10.84zM42.42 37.5H7.58v-25h34.84z" class="cls-3"/><path d="M25.85 21.68a2.53 2.53 0 01-1.24-.3 2.17 2.17 0 01-.85-.85 2.5 2.5 0 01-.3-1.24 2.56 2.56 0 01.3-1.24 2.15 2.15 0 01.85-.84 2.43 2.43 0 011.24-.31 2.38 2.38 0 011.88.88l1.11-1a3.65 3.65 0 00-1.32-1 4.32 4.32 0 00-1.76-.34 4.2 4.2 0 00-2.07.5 3.7 3.7 0 00-1.46 1.37 4.07 4.07 0 000 4 3.73 3.73 0 001.46 1.38 4.27 4.27 0 002.06.5 4.58 4.58 0 001.77-.34 3.49 3.49 0 001.32-1l-1.11-1a2.38 2.38 0 01-1.88.83z" class="cls-1"/><path d="M31.46 18.82h.83v-.63h-.76l.12-.93H31l-.12.93H30l.12-.93h-.62l-.12.93h-.83v.63h.76l-.12.94h-.84v.63h.76l-.12.93h.65l.12-.93h.85l-.11.93h.65l.12-.93h.83v-.63h-.76zm-.77.94h-.85l.12-.94h.85zm.98 10.86h-8.4a.5.5 0 01-.5-.5.5.5 0 01.5-.5h8.4a.5.5 0 01.5.5.5.5 0 01-.5.5zm0-3.7h-8.4a.5.5 0 110-1h8.4a.5.5 0 010 1zm-12.59.94l-1.09-1a.5.5 0 010-.71.49.49 0 01.7 0l.49.46L21 25.23a.51.51 0 01.7.1.5.5 0 01-.1.7zm0 3.7l-1.09-1a.5.5 0 010-.71.49.49 0 01.7 0l.49.46L21 28.93a.5.5 0 11.6.8zm12.59 2.36h-8.4a.5.5 0 01-.5-.5.5.5 0 01.5-.5h8.4a.5.5 0 01.5.5.5.5 0 01-.5.5zm-12.59.94l-1.09-1a.5.5 0 010-.71.49.49 0 01.7 0l.49.45L21 32.22a.51.51 0 01.7.11.5.5 0 01-.1.7z" class="cls-1"/><path d="M47.31 10.41l-2.6-2.6.18-.17 2.59 2.59-.17.18z" class="cls-3"/><path d="M44.89 10.41l-.18-.18 2.6-2.59.17.17-2.59 2.6z" class="cls-3"/></g></svg>