<?xml version="1.0" encoding="utf-8"?>
<!-- Generator: Adobe Illustrator 27.5.0, SVG Export Plug-In . SVG Version: 6.00 Build 0)  -->
<svg version="1.1" id="Camada_3" xmlns="http://www.w3.org/2000/svg" xmlns:xlink="http://www.w3.org/1999/xlink" x="0px" y="0px"
	 viewBox="0 0 50 50" style="enable-background:new 0 0 50 50;" xml:space="preserve">
<style type="text/css">
	.st0{fill:#F799FF;}
	.st1{fill:#E589EF;}
	.st2{fill:none;stroke:#444444;stroke-width:2.5;stroke-linecap:round;stroke-linejoin:round;stroke-miterlimit:10;}
	.st3{fill:none;stroke:#444444;stroke-linecap:round;stroke-linejoin:round;stroke-miterlimit:10;}
	.st4{fill:none;stroke:#444444;stroke-width:0.5;stroke-linecap:round;stroke-linejoin:round;stroke-miterlimit:10;}
</style>
<g>
	<g>
		<g>
			<path class="st0" d="M45.8,1.7H4.1c-1.1,0-2,0.9-2,2v16.5L47.9,3.9V3.7C47.9,2.6,47,1.7,45.8,1.7z"/>
			<polygon class="st1" points="2.1,20 2.1,44.7 47.9,28.4 47.9,3.8 			"/>
		</g>
		<path class="st2" d="M24.8,48.1H5.3c-1.9,0-3.4-1.6-3.4-3.5V5.6c0-1.9,1.5-3.5,3.4-3.5h39c1.9,0,3.4,1.6,3.4,3.5v25.9"/>
	</g>
	<g>
		<g>
			<path class="st3" d="M12.9,35.8L12.9,35.8C10.8,35.8,9,34.1,9,32v-1.7c0-2.1,1.7-3.8,3.8-3.8h0c2.1,0,3.8,1.7,3.8,3.8V32
				C16.7,34.1,15,35.8,12.9,35.8z"/>
			<path class="st3" d="M20.2,43.5V40c0-1.1-0.6-2.1-1.5-2.6l0,0c-3.6-2.1-8.1-2.1-11.7,0l0,0c-0.9,0.5-1.5,1.5-1.5,2.6v3.5h38.8V40
				c0-1.1-0.6-2.1-1.5-2.6l0,0c-3.6-2.1-8.1-2.1-11.7,0l0,0c-0.9,0.5-1.5,1.5-1.5,2.6v3.5"/>
			<path class="st3" d="M24.9,35.8L24.9,35.8c-2.1,0-3.8-1.7-3.8-3.8v-1.7c0-2.1,1.7-3.8,3.8-3.8h0c2.1,0,3.8,1.7,3.8,3.8V32
				C28.8,34.1,27.1,35.8,24.9,35.8z"/>
			<path class="st3" d="M17.6,43.5V40c0-1.1,0.6-2.1,1.5-2.6l0,0c3.6-2.1,8.1-2.1,11.7,0l0,0c0.9,0.5,1.5,1.5,1.5,2.6v3.5"/>
			<path class="st3" d="M36.9,35.8L36.9,35.8c-2.1,0-3.8-1.7-3.8-3.8v-1.7c0-2.1,1.7-3.8,3.8-3.8h0c2.1,0,3.8,1.7,3.8,3.8V32
				C40.8,34.1,39.1,35.8,36.9,35.8z"/>
		</g>
		<path class="st4" d="M24.5,13.7l0-0.5c0-0.4-0.3-0.7-0.7-0.7h0c-0.1,0-0.3,0-0.4,0.1l0,0c-0.7,0.4-1.6,0.3-2-0.4l0-0.1
			c-0.5-0.7-0.5-1.7,0-2.4v0c0.4-0.6,1.3-0.8,2-0.4l0.1,0c0.1,0.1,0.2,0.1,0.4,0.1l0,0c0.4,0,0.7-0.3,0.7-0.7l0-2.5h9.6
			c0.8,0,1.4,0.6,1.4,1.4v11.9c0,0.8-0.6,1.4-1.4,1.4h-1.5l-0.1,3.2c0,0.3-0.3,0.4-0.5,0.2L28.4,21h-1.5"/>
		<path class="st4" d="M24.5,13.8l0,0.6c0,0.4,0.3,0.7,0.7,0.7l0,0c0.1,0,0.3,0,0.4-0.1l0,0c0.7-0.4,1.6-0.3,2,0.4l0,0.1
			c0.5,0.7,0.5,1.7,0,2.4l0,0c-0.4,0.6-1.3,0.8-2,0.4l-0.1,0c-0.1-0.1-0.2-0.1-0.4-0.1l0,0c-0.4,0-0.7,0.3-0.7,0.7l0,2.3h-3.2
			l-3.7,3.4c-0.2,0.2-0.5,0-0.5-0.2l0-3.2H16c-0.8,0-1.4-0.6-1.4-1.4V7.7c0-0.8,0.6-1.4,1.4-1.4h6.2"/>
	</g>
</g>
</svg>
