<?xml version="1.0" encoding="utf-8"?>
<!-- Generator: Adobe Illustrator 26.0.2, SVG Export Plug-In . SVG Version: 6.00 Build 0)  -->
<svg version="1.1" id="Camada_1" xmlns="http://www.w3.org/2000/svg" xmlns:xlink="http://www.w3.org/1999/xlink" x="0px" y="0px"
	 viewBox="0 0 50 50" style="enable-background:new 0 0 50 50;" xml:space="preserve">
<style type="text/css">
	.st0{fill:#E56060;}
	.st1{fill:#FF6B6B;}
	.st2{fill:none;stroke:#494949;stroke-width:2.5;stroke-linecap:round;stroke-linejoin:round;stroke-miterlimit:10;}
	.st3{fill:none;stroke:#494949;stroke-linecap:round;stroke-linejoin:round;stroke-miterlimit:10;}
	.st4{fill:none;stroke:#494949;stroke-width:0.5;stroke-linecap:round;stroke-linejoin:round;stroke-miterlimit:10;}
	.st5{fill:none;stroke:#494949;stroke-width:0.25;stroke-linecap:round;stroke-linejoin:round;stroke-miterlimit:10;}
</style>
<g>
	<g>
		<polygon class="st0" points="36.5,9.7 36.5,24 9.3,34.1 3.9,36.1 2.5,36.6 2.6,27.4 2.9,22.7 3,22.1 3.9,21.8 23.1,14.7 
			29.6,12.2 		"/>
	</g>
	<g>
		<path class="st1" d="M36.5,2.7v7.5l-6.4,2.3c0,0,0,0,0,0l-7.4,2.7l-19.2,7l-1,0.4l0-0.6l0.9-0.3v-5.9L16,3.4l0.7-0.2l1.2-0.4H36.5
			z"/>
	</g>
	<g>
		<polyline class="st2" points="3.5,15.9 3.5,21.8 3.5,22.3 3.5,36.1 3.5,47.3 35.9,47.3 36.5,47.3 		"/>
		<polyline class="st2" points="36.5,24.2 36.5,24 36.5,10.2 36.5,9.7 36.5,2.7 17.9,2.7 16.7,2.7 		"/>
		<polygon class="st2" points="16.7,2.7 16.7,15.9 3.5,15.9 16,3.4 		"/>
		<path class="st3" d="M24.9,8.5C24.9,7.1,26,6,27.4,6c1.4,0,2.5,1.1,2.5,2.5v0.8c0,1.4-1.1,2.5-2.5,2.5c-1.4,0-2.5-1.1-2.5-2.5V8.5
			z"/>
		<path class="st3" d="M27.4,11.8c2.7,0,5,2.2,5,5v0.8h-9.9v-0.8C22.4,14,24.7,11.8,27.4,11.8z"/>
		<circle class="st4" cx="7.6" cy="22.5" r="1.2"/>
		<line class="st5" x1="10.9" y1="22.5" x2="15.8" y2="22.5"/>
		<line class="st5" x1="8.4" y1="25.8" x2="15.8" y2="25.8"/>
		<circle class="st4" cx="7.6" cy="30.8" r="1.2"/>
		<line class="st5" x1="10.9" y1="30.8" x2="15.8" y2="30.8"/>
		<line class="st5" x1="8.4" y1="34.1" x2="15.8" y2="34.1"/>
		<circle class="st4" cx="7.6" cy="39" r="1.2"/>
		<line class="st5" x1="10.9" y1="39" x2="15.8" y2="39"/>
		<line class="st5" x1="8.4" y1="42.3" x2="15.8" y2="42.3"/>
		<line class="st5" x1="20" y1="22.5" x2="33.2" y2="22.5"/>
		<line class="st5" x1="20" y1="25.8" x2="29.9" y2="25.8"/>
		<line class="st5" x1="20" y1="30.8" x2="24.9" y2="30.8"/>
		<line class="st5" x1="20" y1="34.1" x2="24.1" y2="34.1"/>
		<line class="st5" x1="20" y1="39" x2="24.9" y2="39"/>
		<line class="st5" x1="20" y1="42.3" x2="26.6" y2="42.3"/>
		<circle class="st2" cx="36.8" cy="36.2" r="11.1"/>
		<g>
			<path class="st3" d="M33.1,32.5l-3.6,3.6c1.1,1.1,2.3,2.3,3.4,3.4"/>
			<path class="st3" d="M40.5,39.5l3.6-3.6c-1.1-1.1-2.3-2.3-3.4-3.4"/>
			<line class="st3" x1="38.1" y1="32.3" x2="35" y2="40"/>
		</g>
	</g>
</g>
</svg>
