<svg xmlns="http://www.w3.org/2000/svg" id="Layer_1" x="0" y="0" version="1.1" viewBox="0 0 50 50" xml:space="preserve"><style>.st2,.st3{fill:none;stroke:#444;stroke-width:.5;stroke-miterlimit:10}.st3{stroke-linecap:round;stroke-linejoin:round}</style><path fill="#46b8b0" d="M44.6 11.9L39 8.3l-7.7-4.4-5-2.4c-3.2 0-20.5 8.9-20.5 12.1L3.4 21l.5 15.1 11.5 7.6 31-11c.8-.5-.8-18.8-1.8-20.8z"/><path fill="none" stroke="#444" stroke-linecap="round" stroke-linejoin="round" stroke-miterlimit="10" stroke-width="2.5" d="M29.9 46.5l-2.2 1.3c-1.7 1-3.8 1-5.5 0l-15.6-9C5 37.8 4 36 4 34V16c0-2 1-3.8 2.7-4.7l15.6-9c1.7-1 3.8-1 5.5 0l15.6 9C45 12.3 46 14 46 16v18c0 2-1 3.8-2.7 4.7l-2.5 1.4"/><path d="M35.1 33.7c-1.8 0-3.3-1.5-3.3-3.3 0-1.8 1.5-3.3 3.3-3.3 1.8 0 3.3 1.5 3.3 3.3 0 1.8-1.5 3.3-3.3 3.3zm-21.7-2c-1.8 0-3.3-1.5-3.3-3.3 0-1.8 1.5-3.3 3.3-3.3 1.8 0 3.3 1.5 3.3 3.3 0 1.8-1.5 3.3-3.3 3.3z" class="st2"/><path d="M14.9 17.2v-6.3c.3-1.5 1.4-2.4 2.9-2.4h8.8c1.7 0 2.9 1.2 2.9 2.9v5.4c0 .2 0 .4-.1.6-.3 1.3-1.4 2.2-2.8 2.2h-4.3c-.1 0-.2 0-.3.1-1.6 1.2-3.2 2.5-4.8 3.7-.1 0-.1.1-.2.1v-4c-.1 0-.1 0-.2-.1-.9-.3-1.5-.8-1.9-1.7.1 0 .1-.3 0-.5z" class="st3"/><path d="M30.6 11.9c2.1-.3 3.4 1.2 3.4 2.8v5.4c0 1.4-.8 2.5-2.2 2.9h-.1v4c-.1-.1-.1-.1-.2-.1-1.6-1.2-3.2-2.5-4.8-3.7-.1-.1-.2-.1-.3-.1h-4.3c-.6 0-1.2-.2-1.7-.6.1 0 .1-.1.1-.1.6-.5 1.2-1 1.9-1.4.1-.1.2-.1.3-.1h3.9c1.8 0 3.2-1 3.8-2.7.2-.4.2-.9.2-1.3v-5z" class="st3"/><path fill="none" stroke="#444" stroke-linecap="round" stroke-linejoin="round" stroke-miterlimit="10" stroke-width=".75" d="M17 11.9h10.7m-10.9 1.8h10.8M17 15.2h6.9"/><path d="M14 38.9h-1.2c-.9 0-1.7-.8-1.7-1.7V35c0-.9.8-1.7 1.7-1.7H14c.9 0 1.7.8 1.7 1.7v2.3c0 .9-.8 1.6-1.7 1.6zm21.7 1.7h-1.2c-.9 0-1.7-.8-1.7-1.7v-2.3c0-.9.8-1.7 1.7-1.7h1.2c.9 0 1.7.8 1.7 1.7V39c0 .9-.8 1.6-1.7 1.6z" class="st2"/></svg>