<?xml version="1.0" encoding="utf-8"?>
<!-- Generator: Adobe Illustrator 28.1.0, SVG Export Plug-In . SVG Version: 6.00 Build 0)  -->
<svg version="1.1" id="Layer_1" xmlns="http://www.w3.org/2000/svg" xmlns:xlink="http://www.w3.org/1999/xlink" x="0px" y="0px"
	 viewBox="0 0 50 50" style="enable-background:new 0 0 50 50;" xml:space="preserve">
<style type="text/css">
	.st0{fill:#46B8B0;}
	.st1{fill:none;stroke:#444444;stroke-width:2.5;stroke-linecap:round;stroke-linejoin:round;stroke-miterlimit:10;}
	.st2{fill:none;stroke:#444444;stroke-width:0.5;stroke-miterlimit:10;}
	.st3{fill:none;stroke:#444444;stroke-width:0.5;stroke-linecap:round;stroke-linejoin:round;stroke-miterlimit:10;}
	.st4{fill:none;stroke:#444444;stroke-width:0.75;stroke-linecap:round;stroke-linejoin:round;stroke-miterlimit:10;}
</style>
<path class="st0" d="M44.6,11.9L39,8.3l-7.7-4.4l-5-2.4c-3.2,0-20.5,8.9-20.5,12.1L3.4,21l0.5,15.1l11.5,7.6l31-11
	C47.2,32.2,45.6,13.9,44.6,11.9z"/>
<g>
	<g>
		<path class="st1" d="M29.9,46.5l-2.2,1.3c-1.7,1-3.8,1-5.5,0l-15.6-9C5,37.8,4,36,4,34V16c0-2,1-3.8,2.7-4.7l15.6-9
			c1.7-1,3.8-1,5.5,0l15.6,9C45,12.3,46,14,46,16v18c0,2-1,3.8-2.7,4.7l-2.5,1.4"/>
	</g>
</g>
<path class="st2" d="M35.1,33.7L35.1,33.7c-1.8,0-3.3-1.5-3.3-3.3v0c0-1.8,1.5-3.3,3.3-3.3h0c1.8,0,3.3,1.5,3.3,3.3v0
	C38.4,32.2,36.9,33.7,35.1,33.7z"/>
<path class="st2" d="M13.4,31.7L13.4,31.7c-1.8,0-3.3-1.5-3.3-3.3v0c0-1.8,1.5-3.3,3.3-3.3h0c1.8,0,3.3,1.5,3.3,3.3v0
	C16.7,30.2,15.2,31.7,13.4,31.7z"/>
<g>
	<path class="st3" d="M14.9,17.2c0-2.1,0-4.1,0-6.2c0,0,0-0.1,0-0.1c0.3-1.5,1.4-2.4,2.9-2.4c2.9,0,5.9,0,8.8,0
		c1.7,0,2.9,1.2,2.9,2.9c0,1.8,0,3.6,0,5.4c0,0.2,0,0.4-0.1,0.6c-0.3,1.3-1.4,2.2-2.8,2.2c-1.4,0-2.9,0-4.3,0c-0.1,0-0.2,0-0.3,0.1
		c-1.6,1.2-3.2,2.5-4.8,3.7c-0.1,0-0.1,0.1-0.2,0.1c0-1.3,0-2.7,0-4c-0.1,0-0.1,0-0.2-0.1c-0.9-0.3-1.5-0.8-1.9-1.7
		C15,17.7,15,17.4,14.9,17.2z"/>
	<path class="st3" d="M30.6,11.9c2.1-0.3,3.4,1.2,3.4,2.8c0,1.8,0,3.6,0,5.4c0,1.4-0.8,2.5-2.2,2.9c0,0,0,0-0.1,0c0,1.3,0,2.6,0,4
		c-0.1-0.1-0.1-0.1-0.2-0.1c-1.6-1.2-3.2-2.5-4.8-3.7c-0.1-0.1-0.2-0.1-0.3-0.1c-1.4,0-2.8,0-4.3,0c-0.6,0-1.2-0.2-1.7-0.6
		c0.1,0,0.1-0.1,0.1-0.1c0.6-0.5,1.2-1,1.9-1.4c0.1-0.1,0.2-0.1,0.3-0.1c1.3,0,2.6,0,3.9,0c1.8,0,3.2-1,3.8-2.7
		c0.2-0.4,0.2-0.9,0.2-1.3c0-1.6,0-3.1,0-4.7C30.6,12.1,30.6,12,30.6,11.9z"/>
	<line class="st4" x1="17" y1="11.9" x2="27.7" y2="11.9"/>
	<line class="st4" x1="16.8" y1="13.7" x2="27.6" y2="13.7"/>
	<line class="st4" x1="17" y1="15.2" x2="23.9" y2="15.2"/>
</g>
<path class="st2" d="M14,38.9h-1.2c-0.9,0-1.7-0.8-1.7-1.7V35c0-0.9,0.8-1.7,1.7-1.7H14c0.9,0,1.7,0.8,1.7,1.7v2.3
	C15.7,38.2,14.9,38.9,14,38.9z"/>
<path class="st2" d="M35.7,40.6h-1.2c-0.9,0-1.7-0.8-1.7-1.7v-2.3c0-0.9,0.8-1.7,1.7-1.7h1.2c0.9,0,1.7,0.8,1.7,1.7V39
	C37.4,39.9,36.6,40.6,35.7,40.6z"/>
</svg>
