<svg xmlns="http://www.w3.org/2000/svg" id="Camada_1" x="0" y="0" version="1.1" viewBox="0 0 51.1 50" xml:space="preserve"><style>.st1{fill:none;stroke:#444;stroke-linecap:round;stroke-linejoin:round;stroke-miterlimit:10}</style><path fill="#dc5e82" d="M43.8 31.2l1.9-12.9-6-11.6-9.6-4.2c-3.3 0-21.9-3.4-24.5 17l1.7 11.6.7 15 6.7 3.5 29.4-10.5-.3-2.3c.8-.4 1-3.5 0-5.6z"/><circle cx="25.6" cy="28.5" r="3.3" class="st1"/><path d="M29.3 36.3v11m-7.3 0v-11m-8.9 11v-11m12.5-4.5H24c-2.3 0-5 .8-5 4.5v5.5c0 1.2 1 2.2 2.2 2.2h.6" class="st1"/><circle cx="16.5" cy="28.5" r="3.3" class="st1"/><path d="M16.8 31.8h-1.6c-2.3 0-4.9.8-4.9 4.5v5.5c0 1.2 1 2.2 2.2 2.2h.5m25.1 3.3v-11" class="st1"/><circle cx="34.8" cy="28.5" r="3.3" class="st1"/><path d="M34.5 31.8h1.6c2.3 0 4.9.8 4.9 4.5v5.5c0 1.2-1 2.2-2.2 2.2h-.5M25.6 31.8h1.7c2.3 0 5 .8 5 4.5v5.5c0 1.2-1 2.2-2.2 2.2h-.6m-3.9 3.3v-3.4" class="st1"/><path fill="none" stroke="#444" stroke-linecap="round" stroke-linejoin="round" stroke-miterlimit="10" stroke-width=".5" d="M35.9 12.8l-10.3 9.5-5.8-4.4m5.8-13.2v1.5m8.9.9l-.8 1.2m7.2 5.2l-1.3.7m3.7 8.1h-1.5M8 22.3h1.5m.9-8.8l1.2.7m5.2-7.1l.8 1.2"/><path fill="none" stroke="#444" stroke-linecap="round" stroke-linejoin="round" stroke-miterlimit="10" stroke-width="2.5" d="M37.9 48.7l-24.5.2c-3.3 0-6.1-2.7-6.1-6V30.6C5.7 27.3 5 23.5 5.5 19.4c1.1-9.2 8.6-16.6 17.8-17.6C35.5.5 45.8 10 45.8 22c0 3.1-.7 6.1-2 8.7v10.5"/></svg>