<svg xmlns="http://www.w3.org/2000/svg" id="Layer_1" x="0" y="0" version="1.1" viewBox="0 0 50 50" xml:space="preserve"><style>.st1{fill:none;stroke:#444;stroke-width:.5;stroke-linecap:round;stroke-linejoin:round;stroke-miterlimit:10}</style><path fill="#c3ff68" d="M46.2 29.6c-.2-.8-.7-12.7-1.2-13.3L40 8l-7-3.7-8.3-2.2L14.2 5c-3.1 0-8 6.4-9.8 15.1l-1.2 8.8 4.3 1.7 2.7 5.7c.1.3-3.3 3.5-3 3.7l3.9 4.3c1.3.7 3.8-4 6-1.4l23-7.9c.7-2.8-.4-3.4 1.7-4.2 3-1.1 4.7.6 4.4-1.2z"/><path d="M3.2 26.9h42.6" class="st1"/><path fill="none" stroke="#444" stroke-linecap="round" stroke-linejoin="round" stroke-miterlimit="10" stroke-width="2.5" d="M32.7 41.7c-1.1.6-2.3 1.1-3.5 1.5-.5.2-.9.6-.9 1.1l-.3 2.9c-.1.7-.6 1.2-1.3 1.2h-4.3c-.7 0-1.2-.5-1.3-1.2l-.3-2.9c-.1-.5-.4-1-.9-1.1-1.2-.4-2.4-.9-3.5-1.5-.5-.3-1-.2-1.5.1l-2.2 1.8c-.5.4-1.3.4-1.7-.1l-3-3c-.5-.5-.5-1.2-.1-1.7l1.8-2.2c.3-.4.4-1 .1-1.5-.6-1.1-1.1-2.3-1.5-3.5-.1-.5-.6-.9-1.1-.9l-2.9-.3c-.7-.1-1.2-.6-1.2-1.3v-2.3l.2-3.5C3.3 11.5 12.8 2 24.6 2S46 11.7 46 23.4l-.1 3.5v2.3c0 .7-.5 1.2-1.2 1.3l-2.9.3c-.5 0-1 .4-1.1.9-.4 1.2-.9 2.4-1.5 3.5"/><path id="XMLID_00000017509858425263184150000002039976459005798042_" fill="none" stroke="#444" stroke-miterlimit="10" d="M34 27c0 5.2-4.2 9.5-9.5 9.5-5.2 0-9.5-4.2-9.5-9.5"/><path d="M32 22.1c-.8-.3-1.8-.7-3-1.7-.2-.1-.3-.2-.5-.4-.1-.1-.3-.1-.4 0-1.1.8-2.2 1.3-3.4 1.3-1.2 0-2.3-.4-3.4-1.3-.1-.1-.3-.1-.4 0-.2.1-.3.2-.5.4-1.3 1.1-2.3 1.5-3.1 1.8-1.7.6-2.4.4-2.5 4.4 0 .1.1.2.2.3.1 0 .1.1.2.1h19.2c.1 0 .3-.2.3-.4-.2-4.1-.9-3.8-2.7-4.5zM24.7 7.4c-3.6 0-5.2 3.5-4.8 6.8.1 1.1.4 2.2 1 3.1.4.7.9 1.3 1.5 1.8.2.1.3.2.5.3.7.4 1.3.6 1.9.6.6 0 1.2-.2 1.9-.6.2-.1.3-.2.5-.3.6-.5 1.1-1.1 1.5-1.8.6-1 .9-2.3 1-3.5 0-3.2-1.6-6.4-5-6.4zM18.8 15c-.2-1.4-.2-2.8.1-4.1-.7-1-1.9-1.7-3.3-1.7-3.7 0-4.9 3.9-4.2 7.1.2 1 .7 2 1.3 2.8.3.4.7.7 1.2 1 1.2.7 2.1.7 3.4 0 .8-.5 1.5-1.2 1.9-2.1.1-.2.2-.4.3-.7-.3-.7-.6-1.5-.7-2.3zm15-5.8c-1.5 0-2.6.7-3.3 1.7.3 1.3.4 2.7.1 4.1-.1.8-.4 1.6-.7 2.3.1.3.2.5.3.7.5.8 1.1 1.6 1.9 2 1.2.7 2.2.7 3.4 0 .4-.3.8-.6 1.2-1 .6-.8 1.1-1.7 1.3-2.8.7-3.1-.5-7-4.2-7zM14.5 21.7c-.7-.2-1.3-.5-2-1-.1-.1-.3-.1-.4 0-.2.1-.3.2-.4.3-.3.2-.6.4-.8.6-3.2 2.1-4.1.1-4.3 4.8v.2c0 .2.2.3.3.3h6.7v-.4c0-1.5.1-2.5.4-3.2.1-.3.2-.5.3-.7.1-.2.2-.4.4-.5l.3-.3c-.3 0-.4-.1-.5-.1zm24.1-.1c-.3-.2-.6-.4-.9-.7-.1-.1-.3-.2-.4-.3-.1-.1-.3-.1-.4 0-.6.5-1.2.8-1.8 1-.2.1-.4.1-.6.1l.3.3c.1.2.3.3.4.5.2.3.3.7.4 1.1.1.7.2 1.5.3 2.8v.4h6.7c.2 0 .3-.1.3-.3-.2-4.9-1.2-2.8-4.3-4.9z" class="st1"/></svg>