<?xml version="1.0" encoding="utf-8"?>
<!-- Generator: Adobe Illustrator 28.0.0, SVG Export Plug-In . SVG Version: 6.00 Build 0)  -->
<svg version="1.1" id="Camada_1" xmlns="http://www.w3.org/2000/svg" xmlns:xlink="http://www.w3.org/1999/xlink" x="0px" y="0px"
	 viewBox="0 0 51.1 50" style="enable-background:new 0 0 51.1 50;" xml:space="preserve">
<style type="text/css">
	.st0{fill:#DC5E82;}
	.st1{fill:none;stroke:#444444;stroke-linecap:round;stroke-linejoin:round;stroke-miterlimit:10;}
	.st2{fill:none;stroke:#444444;stroke-width:0.5;stroke-linecap:round;stroke-linejoin:round;stroke-miterlimit:10;}
	.st3{fill:none;stroke:#444444;stroke-width:2.5;stroke-linecap:round;stroke-linejoin:round;stroke-miterlimit:10;}
</style>
<g>
	<path class="st0" d="M43.8,31.2l1.9-12.9l-6-11.6l-9.6-4.2c-3.3,0-21.9-3.4-24.5,17l1.7,11.6l0.7,15l6.7,3.5l29.4-10.5l-0.3-2.3
		C44.6,36.4,44.8,33.3,43.8,31.2z"/>
	<ellipse class="st1" cx="25.6" cy="28.5" rx="3.3" ry="3.3"/>
	<line class="st1" x1="29.3" y1="36.3" x2="29.3" y2="47.3"/>
	<line class="st1" x1="22" y1="47.3" x2="22" y2="36.3"/>
	<line class="st1" x1="13.1" y1="47.3" x2="13.1" y2="36.3"/>
	<path class="st1" d="M25.6,31.8H24c-2.3,0-5,0.8-5,4.5v5.5c0,1.2,1,2.2,2.2,2.2h0.6"/>
	<ellipse class="st1" cx="16.5" cy="28.5" rx="3.3" ry="3.3"/>
	<path class="st1" d="M16.8,31.8h-1.6c-2.3,0-4.9,0.8-4.9,4.5v5.5c0,1.2,1,2.2,2.2,2.2h0.5"/>
	<line class="st1" x1="38.1" y1="47.3" x2="38.1" y2="36.3"/>
	<ellipse class="st1" cx="34.8" cy="28.5" rx="3.3" ry="3.3"/>
	<path class="st1" d="M34.5,31.8h1.6c2.3,0,4.9,0.8,4.9,4.5v5.5c0,1.2-1,2.2-2.2,2.2h-0.5"/>
	<path class="st1" d="M25.6,31.8h1.7c2.3,0,5,0.8,5,4.5v5.5c0,1.2-1,2.2-2.2,2.2h-0.6"/>
	<line class="st1" x1="25.6" y1="47.3" x2="25.6" y2="43.9"/>
	<polyline class="st2" points="35.9,12.8 25.6,22.3 19.8,17.9 	"/>
	<line class="st2" x1="25.6" y1="4.7" x2="25.6" y2="6.2"/>
	<line class="st2" x1="34.5" y1="7.1" x2="33.7" y2="8.3"/>
	<line class="st2" x1="40.9" y1="13.5" x2="39.6" y2="14.2"/>
	<line class="st2" x1="43.3" y1="22.3" x2="41.8" y2="22.3"/>
	<line class="st2" x1="8" y1="22.3" x2="9.5" y2="22.3"/>
	<line class="st2" x1="10.4" y1="13.5" x2="11.6" y2="14.2"/>
	<line class="st2" x1="16.8" y1="7.1" x2="17.6" y2="8.3"/>
	<g>
		<path class="st3" d="M37.9,48.7l-24.5,0.2c-3.3,0-6.1-2.7-6.1-6V30.6c-1.6-3.3-2.3-7.1-1.8-11.2c1.1-9.2,8.6-16.6,17.8-17.6
			C35.5,0.5,45.8,10,45.8,22c0,3.1-0.7,6.1-2,8.7v10.5"/>
	</g>
</g>
</svg>
