<?xml version="1.0" encoding="utf-8"?>
<!-- Generator: Adobe Illustrator 28.1.0, SVG Export Plug-In . SVG Version: 6.00 Build 0)  -->
<svg version="1.1" id="Layer_1" xmlns="http://www.w3.org/2000/svg" xmlns:xlink="http://www.w3.org/1999/xlink" x="0px" y="0px"
	 viewBox="0 0 50 50" style="enable-background:new 0 0 50 50;" xml:space="preserve">
<style type="text/css">
	.st0{fill:#C3FF68;}
	.st1{fill:none;stroke:#444444;stroke-width:0.5;stroke-linecap:round;stroke-linejoin:round;stroke-miterlimit:10;}
	.st2{fill:none;stroke:#444444;stroke-width:2.5;stroke-linecap:round;stroke-linejoin:round;stroke-miterlimit:10;}
	.st3{fill:none;stroke:#444444;stroke-miterlimit:10;}
</style>
<g>
	<g>
		<g>
			<path class="st0" d="M46.2,29.6c-0.2-0.8-0.7-12.7-1.2-13.3l-5-8.3l-7-3.7l-8.3-2.2L14.2,5c-3.1,0-8,6.4-9.8,15.1l-1.2,8.8
				l4.3,1.7l2.7,5.7c0.1,0.3-3.3,3.5-3,3.7l3.9,4.3c1.3,0.7,3.8-4,6-1.4l23-7.9c0.7-2.8-0.4-3.4,1.7-4.2
				C44.8,29.7,46.5,31.4,46.2,29.6z"/>
		</g>
		<g>
			<g>
				<path class="st1" d="M3.2,26.9h42.6"/>
			</g>
			<path class="st2" d="M32.7,41.7c-1.1,0.6-2.3,1.1-3.5,1.5c-0.5,0.2-0.9,0.6-0.9,1.1L28,47.2c-0.1,0.7-0.6,1.2-1.3,1.2h-4.3
				c-0.7,0-1.2-0.5-1.3-1.2l-0.3-2.9c-0.1-0.5-0.4-1-0.9-1.1c-1.2-0.4-2.4-0.9-3.5-1.5c-0.5-0.3-1-0.2-1.5,0.1l-2.2,1.8
				c-0.5,0.4-1.3,0.4-1.7-0.1l-3-3c-0.5-0.5-0.5-1.2-0.1-1.7l1.8-2.2c0.3-0.4,0.4-1,0.1-1.5c-0.6-1.1-1.1-2.3-1.5-3.5
				c-0.1-0.5-0.6-0.9-1.1-0.9l-2.9-0.3c-0.7-0.1-1.2-0.6-1.2-1.3l0-2.3l0.2-3.5c0-11.8,9.5-21.3,21.3-21.3S46,11.7,46,23.4l-0.1,3.5
				l0,2.3c0,0.7-0.5,1.2-1.2,1.3l-2.9,0.3c-0.5,0-1,0.4-1.1,0.9c-0.4,1.2-0.9,2.4-1.5,3.5"/>
			<path id="XMLID_00000017509858425263184150000002039976459005798042_" class="st3" d="M34,27c0,5.2-4.2,9.5-9.5,9.5
				c-5.2,0-9.5-4.2-9.5-9.5"/>
		</g>
	</g>
	<g>
		<g>
			<g>
				<path class="st1" d="M32,22.1c-0.8-0.3-1.8-0.7-3-1.7c-0.2-0.1-0.3-0.2-0.5-0.4c-0.1-0.1-0.3-0.1-0.4,0
					c-1.1,0.8-2.2,1.3-3.4,1.3c-1.2,0-2.3-0.4-3.4-1.3c-0.1-0.1-0.3-0.1-0.4,0c-0.2,0.1-0.3,0.2-0.5,0.4c-1.3,1.1-2.3,1.5-3.1,1.8
					c-1.7,0.6-2.4,0.4-2.5,4.4c0,0.1,0.1,0.2,0.2,0.3c0.1,0,0.1,0.1,0.2,0.1h19.1c0,0,0.1,0,0.1,0c0.1,0,0.3-0.2,0.3-0.4
					C34.5,22.5,33.8,22.8,32,22.1z M24.7,7.4c-3.6,0-5.2,3.5-4.8,6.8c0.1,1.1,0.4,2.2,1,3.1c0.4,0.7,0.9,1.3,1.5,1.8
					c0.2,0.1,0.3,0.2,0.5,0.3c0.7,0.4,1.3,0.6,1.9,0.6c0.6,0,1.2-0.2,1.9-0.6c0.2-0.1,0.3-0.2,0.5-0.3c0.6-0.5,1.1-1.1,1.5-1.8
					c0.6-1,0.9-2.3,1-3.5C29.7,10.6,28.1,7.4,24.7,7.4z M18.8,15c-0.2-1.4-0.2-2.8,0.1-4.1c-0.7-1-1.9-1.7-3.3-1.7
					c-3.7,0-4.9,3.9-4.2,7.1c0.2,1,0.7,2,1.3,2.8c0.3,0.4,0.7,0.7,1.2,1c1.2,0.7,2.1,0.7,3.4,0c0.8-0.5,1.5-1.2,1.9-2.1
					c0.1-0.2,0.2-0.4,0.3-0.7C19.2,16.6,18.9,15.8,18.8,15z M33.8,9.2c-1.5,0-2.6,0.7-3.3,1.7c0.3,1.3,0.4,2.7,0.1,4.1
					c-0.1,0.8-0.4,1.6-0.7,2.3c0.1,0.3,0.2,0.5,0.3,0.7c0.5,0.8,1.1,1.6,1.9,2c1.2,0.7,2.2,0.7,3.4,0c0.4-0.3,0.8-0.6,1.2-1
					c0.6-0.8,1.1-1.7,1.3-2.8C38.7,13.1,37.5,9.2,33.8,9.2z M14.5,21.7c-0.7-0.2-1.3-0.5-2-1c-0.1-0.1-0.3-0.1-0.4,0
					c-0.2,0.1-0.3,0.2-0.4,0.3c-0.3,0.2-0.6,0.4-0.8,0.6c-3.2,2.1-4.1,0.1-4.3,4.8c0,0.1,0,0.1,0,0.2v0c0,0.2,0.2,0.3,0.3,0.3h6.7
					c0-0.1,0-0.3,0-0.4c0-1.5,0.1-2.5,0.4-3.2c0.1-0.3,0.2-0.5,0.3-0.7c0.1-0.2,0.2-0.4,0.4-0.5c0.1-0.1,0.2-0.2,0.3-0.3
					C14.7,21.8,14.6,21.7,14.5,21.7z M38.6,21.6c-0.3-0.2-0.6-0.4-0.9-0.7c-0.1-0.1-0.3-0.2-0.4-0.3c-0.1-0.1-0.3-0.1-0.4,0
					c-0.6,0.5-1.2,0.8-1.8,1c-0.2,0.1-0.4,0.1-0.6,0.1c0.1,0.1,0.2,0.2,0.3,0.3c0.1,0.2,0.3,0.3,0.4,0.5c0.2,0.3,0.3,0.7,0.4,1.1
					c0.1,0.7,0.2,1.5,0.3,2.8c0,0.1,0,0.3,0,0.4h6.7c0.2,0,0.3-0.1,0.3-0.3c0,0,0,0,0,0C42.7,21.6,41.7,23.7,38.6,21.6z"/>
			</g>
		</g>
	</g>
</g>
</svg>
