<?xml version="1.0" encoding="utf-8"?>
<!-- Generator: Adobe Illustrator 28.0.0, SVG Export Plug-In . SVG Version: 6.00 Build 0)  -->
<svg version="1.1" id="Layer_1" xmlns="http://www.w3.org/2000/svg" xmlns:xlink="http://www.w3.org/1999/xlink" x="0px" y="0px"
	 viewBox="0 0 50 50" style="enable-background:new 0 0 50 50;" xml:space="preserve">
<style type="text/css">
	.st0{fill:#00DFFC;}
	.st1{fill:none;stroke:#444444;stroke-width:2.5;stroke-linecap:round;stroke-linejoin:round;stroke-miterlimit:10;}
	.st2{fill:none;stroke:#444444;stroke-linecap:round;stroke-linejoin:round;stroke-miterlimit:10;}
	.st3{fill:none;stroke:#444444;stroke-width:0.5;stroke-linecap:round;stroke-linejoin:round;stroke-miterlimit:10;}
	.st4{fill:#444444;}
</style>
<g>
	<path class="st0" d="M44.9,12.5l-5.6-3.6l-7.7-4.4l-6-2.8c-3.2,0-21.5,8.9-21.5,12.1l-0.5,7.8l0.5,15.1l11.5,7.6l31-11
		C47.4,32.8,45.9,14.5,44.9,12.5z"/>
	<g>
		<g>
			<path class="st1" d="M30.1,46.5l-2.2,1.3c-1.7,1-3.8,1-5.5,0l-15.6-9c-1.7-1-2.7-2.8-2.7-4.7v-18c0-2,1-3.8,2.7-4.7l15.6-9
				c1.7-1,3.8-1,5.5,0l15.6,9c1.7,1,2.7,2.8,2.7,4.7v18c0,2-1,3.8-2.7,4.7L41,40.2"/>
		</g>
	</g>
	<g>
		<path class="st2" d="M45.9,16.8v6.1c0,0.6-0.2,1.1-0.6,1.6L31.8,39.6c-0.6,0.7-1.5,0.9-2.4,0.7l-17.4-5.1
			c-0.3-0.1-0.6-0.3-0.9-0.5c-1.4-1.2-3.8-6.8-1.4-11"/>
		<path class="st3" d="M43.8,18.8L30.7,33.3c-0.7,0.8-1.8,1.1-2.8,0.8L11.4,29"/>
		<path class="st3" d="M43.8,22.4L30.7,36.9C30,37.7,29,37.8,28,37.5l-16.5-5.1"/>
		<path class="st4" d="M43.5,11.3L25.6,7c-0.7-0.2-1.5,0.1-2,0.6L9.1,23.3c-1,1.1-0.5,2.9,0.9,3.3l17.7,5.2c0.8,0.2,1.6,0,2.1-0.6
			l14.7-16.6C45.6,13.5,45,11.7,43.5,11.3z M20.3,18.3c-0.2,0-0.4-0.2-0.4-0.4c0-0.2,0.1-0.5,0.4-0.5l3.6-0.6L20.9,14
			c-0.2-0.2-0.2-0.5,0-0.6c0.2-0.2,0.5-0.2,0.6,0l3.5,3.5c0.1,0.1,0.2,0.3,0.1,0.4c-0.1,0.2-0.2,0.3-0.4,0.3L20.3,18.3
			C20.3,18.3,20.3,18.3,20.3,18.3z M25.3,20.3c-0.1,0.1-0.2,0.1-0.3,0.1c-0.1,0-0.2,0-0.3-0.1c-0.2-0.2-0.2-0.5,0-0.6l4-3.9
			c0.2-0.2,0.5-0.2,0.6,0c0.2,0.2,0.2,0.5,0,0.6L25.3,20.3z M33.6,18.9L30,19.4l2.9,2.9c0.2,0.2,0.2,0.5,0,0.6
			c-0.1,0.1-0.2,0.1-0.3,0.1s-0.2,0-0.3-0.1l-3.5-3.5c-0.1-0.1-0.2-0.3-0.1-0.4c0.1-0.2,0.2-0.3,0.4-0.3l4.4-0.7
			c0.2,0,0.5,0.1,0.5,0.4C34,18.6,33.8,18.8,33.6,18.9z"/>
	</g>
</g>
</svg>
