<svg xmlns="http://www.w3.org/2000/svg" xmlns:xlink="http://www.w3.org/1999/xlink" id="Camada_1" x="0" y="0" version="1.1" viewBox="0 0 300 300" xml:space="preserve"><style>.st58{fill:#1a00d6}.st62{fill:#4ebfe9}.st63{fill:#444}.st65{fill:#ba784a}.st66{fill:#ffd200}</style><path id="Camada_2_00000036957593759985008460000017794697749824202174_" fill="#008dd3" d="M284.8 150.1c.1 20.5-4.3 40-12 57.6-21.8 49.2-70.9 83.5-128.2 83.7-15.2.1-29.9-2.3-43.6-6.7-25.8-8.2-48.4-23.8-65.3-44.2C18.1 219.4 6.6 193 3.9 164c-.4-4.2-.6-8.4-.6-12.7-.2-47.8 23.5-90.2 59.8-115.7 4.8-3.4 9.7-6.4 14.8-9.1 7.3-3.9 14.8-7.1 22.8-9.7 7.5-2.4 15.2-4.2 23.2-5.3 6.4-.9 12.9-1.4 19.5-1.5 25.9-.1 50.1 6.8 71.1 18.9 3.8 2.1 7.4 4.5 10.9 7 16.8 11.9 30.8 27.3 41 45.4 1.2 2 2.2 4.1 3.3 6.2.9 1.8 1.7 3.6 2.6 5.4 2.7 6 4.9 12.1 6.8 18.4 2 7.1 3.6 14.4 4.5 21.7.8 5.7 1.2 11.4 1.2 17.1z"/><path d="M111.9 137.7l5.8 4.1-40.4 57.5-5.8-4.1c-11.1-7.8-13.7-23-6-34.1l12.3-17.5c7.8-11 23-13.7 34.1-5.9zm122.4.4l-5.8 4.1 40.4 57.5 5.8-4.1c11.1-7.8 13.7-23 6-34.1L268.5 144c-7.8-11-23.1-13.7-34.2-5.9z" class="st58"/><defs><path id="SVGID_1_" d="M277.3 210.8c0 53.5-44.1 71.3-102.1 71.3C117.1 282 67 264.2 67 210.8c0-53.5 47.1-96.8 105.1-96.8s105.2 43.3 105.2 96.8z"/></defs><clipPath id="SVGID_00000084495389310097640260000004092241803218932665_"><use overflow="visible" xlink:href="#SVGID_1_"/></clipPath><g clip-path="url(#SVGID_00000084495389310097640260000004092241803218932665_)"><path fill="#c4cbcc" d="M277.3 210.8c0 53.5-44.1 71.3-102.1 71.3C117.1 282 67 264.2 67 210.8c0-53.5 47.1-96.8 105.1-96.8s105.2 43.3 105.2 96.8z"/></g><g clip-path="url(#SVGID_00000084495389310097640260000004092241803218932665_)"><path fill="#e4e9ec" d="M190.4 99.6c-58.1 0-105.1 43.4-105.1 96.8s50.1 71.3 108.1 71.3c58.1 0 102.1-17.8 102.1-71.3l-11.3 99.7s-224.1-9.6-228.5-13.4c-4.4-3.8-30.9-146.9-30.9-146.9l86.4-40.1 79.2 3.9z"/></g><defs><path id="SVGID_00000176020254072046701550000012322484323202967680_" d="M263.4 199.4c0 41.2-40.4 58.8-90.3 58.8s-90.3-17.7-90.3-58.8 40.4-74.5 90.3-74.5c49.8-.1 90.3 33.3 90.3 74.5z"/></defs><use fill="#4ebfe9" overflow="visible" xlink:href="#SVGID_00000176020254072046701550000012322484323202967680_"/><clipPath id="SVGID_00000065769698659763592370000008216000807788724645_"><use overflow="visible" xlink:href="#SVGID_00000176020254072046701550000012322484323202967680_"/></clipPath><g clip-path="url(#SVGID_00000065769698659763592370000008216000807788724645_)"><path d="M263.4 199.4c0 41.2-40.4 58.8-90.3 58.8s-90.3-17.7-90.3-58.8 40.4-74.5 90.3-74.5c49.8-.1 90.3 33.3 90.3 74.5z" class="st62"/></g><g clip-path="url(#SVGID_00000065769698659763592370000008216000807788724645_)"><path d="M189 116c-49.9 0-90.3 33.4-90.3 74.5s40.4 58.8 90.3 58.8 90.3-17.7 90.3-58.8l-10.6 75s-171.3 3.8-176.5-4.7c-5.2-8.5-29.4-122.3-29.4-122.3l81.7-29.5 44.5 7z" class="st62"/></g><path d="M172.2 228.3c-6.6 0-13.2-2.2-18.7-6.6-1.7-1.4-2-3.9-.6-5.6 1.4-1.7 3.9-2 5.6-.6 8.1 6.4 19.4 6.4 27.4 0 1.7-1.4 4.3-1.1 5.6.6 1.4 1.7 1.1 4.3-.6 5.6-5.5 4.4-12.1 6.6-18.7 6.6z" class="st58"/><ellipse cx="142.1" cy="182" class="st58" rx="10.6" ry="15.5"/><ellipse cx="201.1" cy="182" class="st58" rx="10.6" ry="15.5"/><path d="M246.5 142.6c-3.2-6.2-75.3 1.4-75.3 1.4s-72.1-5.6-74.8-.4l8.9-50.9s21.4-13.3 65.3-13.3S235 92.7 235 92.7l11.5 49.9z" class="st63"/><path d="M298.9 88.9l-128.2 44.6L42.5 88.9l128.2-44.6z" class="st63"/><path fill="#2b2b2b" d="M42.5 88.9v-2.8l128.2-44.6v2.8zm256.4-2.8v2.8L170.7 44.3v-2.8z"/><path d="M263.4 71.8h-5.7l4.1 1.4v23.5h3.2V73.3c0-.9-.7-1.5-1.6-1.5z" class="st65"/><circle cx="263.3" cy="96.6" r="5.2" class="st66"/><path d="M260.2 100.8h6.2v8.4h-6.2z" class="st65"/><path d="M269.3 188c-4.7-.2-8.3-.2-12.9-.2 1.8-14.3 0-29 1.6-43.2.1-2.8.1-5.6.1-8.3 0-2.8-.2-5.5-.4-8.3 0-2.3-.1-4.5 0-6.8.2-4.5.8-9.1 2.3-13.7 0-.9 6.4-.9 6.4 0 1.5 4.6 2.1 9.2 2.3 13.7.1 2.3.1 4.5 0 6.8-.4 2.7-.6 5.5-.7 8.3-.1 2.8-.1 5.5 0 8.3.2 10.9 2.1 22.4 1.1 33.6.1 6 .2 9.8.2 9.8z" class="st66"/><defs><path id="SVGID_00000151503869714556116590000009005954616315324290_" d="M170.8 78.7c-34.8 0-65.3 7.3-67.1 16.7L99 127.7c36.4-20.1 83.8-28.7 124.8-21.3l14.9 3.1-1.8-14c-1.7-9.5-31.3-16.8-66.1-16.8z"/></defs><use fill="#2b2b2b" overflow="visible" xlink:href="#SVGID_00000151503869714556116590000009005954616315324290_"/><clipPath id="SVGID_00000119098387485084857330000011354110389746602915_"><use overflow="visible" xlink:href="#SVGID_00000151503869714556116590000009005954616315324290_"/></clipPath><path fill="#2b2b2b" d="M171.1 79.1c-34.8 0-64.3 7.2-66.1 16.6l-9.1 48.1h150.5l-9.1-48.1c-1.8-9.3-31.4-16.6-66.2-16.6z" clip-path="url(#SVGID_00000119098387485084857330000011354110389746602915_)"/><path fill="#ddd" stroke="#2b2b2b" stroke-miterlimit="10" stroke-width="4" d="M100.4 24.7c-1.5 7.4-6.6 13.4-6.6 13.4L76.1 22.4c-.3-.3-.7-.4-1-.4h0c-.4.1-.7.2-1 .5l-7.5 8.8c-.3.4-.3.7-.2 1.2h0c0 .3.2.6.4.8l17.9 15.2s-5.7 5.5-13 7.6c-6.2 1.8 35.2 13.3 47.5 16.7 1.4.4 2.7-.9 2.2-2.3-4.5-12.2-19.7-52.1-21-45.8z"/><path fill="#fff" d="M100.6 47.9c2.8 3.6 6.9 10 9 12.8 2.6 3.4 4.6 5.6 5.9 6.6.6.4 1.2-.3.9-1-.6-1.8-2-5.5-5.2-12.9v-.1c-1.1-3.1-8.1-20.2-9.1-21.5-1.3-3.9-2.2 6.2-5.8 9.7h-.1" opacity=".36"/><path fill="#fff" d="M102 43.7c1.5 2.1 3.5 5.9 4.7 7.6 1.3 2 2.3 3.3 3 4 .4.3.5-.1.4-.6-.4-1-1.1-3.2-2.8-7.6V47c-.6-1.8-4.4-11.8-4.8-12.6-.8-2.3-.9 3.5-2.5 5.5" opacity=".61"/><path fill="none" stroke="#ffd200" stroke-linecap="round" stroke-linejoin="round" stroke-miterlimit="10" stroke-width="4" d="M151.6 47.8l-20.5 3.6m24.1 19.1l-20.6-2.9m-42.5 33.7l5.1-20.2m17.2 25.6L113 85.9m29.4 9.4l-14.8-14.6"/></svg>