<?xml version="1.0" encoding="UTF-8"?>
<svg xmlns="http://www.w3.org/2000/svg" version="1.1" viewBox="0 0 50 50">
  <defs>
    <style>
      .cls-1 {
        fill: #8256d8;
      }

      .cls-2 {
        stroke-linejoin: round;
        stroke-width: 2.5px;
      }

      .cls-2, .cls-3 {
        stroke-linecap: round;
      }

      .cls-2, .cls-3, .cls-4 {
        fill: none;
        stroke: #444;
      }

      .cls-3 {
        stroke-width: .5px;
      }

      .cls-3, .cls-4 {
        stroke-miterlimit: 10;
      }

      .cls-5 {
        fill: #a475ef;
      }
    </style>
  </defs>
  <!-- Generator: Adobe Illustrator 28.6.0, SVG Export Plug-In . SVG Version: 1.2.0 Build 709)  -->
  <g>
    <g id="Camada_3">
      <polygon class="cls-1" points="30 22.4 37.8 24.9 31.1 29.6 31.2 37.8 24.6 32.9 16.9 35.5 19.5 27.8 14.6 21.2 22.8 21.3 27.5 14.6 30 22.4"/>
      <g>
        <path class="cls-5" d="M48,20.2c-.2-.8-2.7-7.5-3.2-8.1l-3-3.5h-.2c0,.1-7.6-5.7-7.6-5.7l-7.8-.7c-3.2,0-14.5.3-21.4,10.2L.8,23h-.2c0,.1,4,13.5,4,13.5,0,.4,4.5,5.7,4.9,5.9l5.6,3,32.2-11.7c.6-.5,1.6-8.7.7-13.5Z"/>
        <g>
          <path class="cls-2" d="M32.3,47.1c-7,2.3-15,1.2-21.3-3.6C.6,35.8-1.5,21.1,6.3,10.7"/>
          <path class="cls-2" d="M6.1,10.9c2-3,4.7-4.7,4.7-4.7l.7-.5C19.6,0,30.8-.2,39.1,6.1c10.4,7.8,12.4,22.5,4.7,32.8"/>
        </g>
      </g>
      <g>
        <path class="cls-4" d="M28.4,28.2c-.3.6-.7,1.2-1.1,1.7-.4.4-.8.9-1.2,1.2-.4.3-.8.6-1.2.8-.2,0-.3.2-.5.2-.3.2-.7.3-1.1.4-1.1.4-2.1.4-3.2.4s-.4,0-.6,0c-.4,0-.7-.2-1.1-.3-.2,0-.4-.2-.6-.3-.8-.4-1.5-.9-2.1-1.6-.5-.6-.9-1.2-1.2-1.9-.1-.3-.2-.7-.3-1s-.1-.6-.1-.9c-.1-.5-.1-1,0-1.5,0-.2.1-.4.1-.6,0-.4.1-.9.3-1.2.1-.4.3-.8.5-1.2.2-.3.4-.7.6-1,.1-.1.2-.3.3-.4.2-.3.5-.6.7-.9.1-.2.3-.2.5-.4.4-.4.9-.7,1.4-1s1.1-.6,1.7-.8c.5-.2,1-.3,1.5-.4.3-.1.7-.1,1.1,0h.5c.4,0,.9.1,1.3.2.6.2,1.2.4,1.8.8.5.3.9.6,1.3,1,.3.4.6.8.9,1.2.2.3.3.6.4.9q0,.1-.1.2c-.2.1-.4.2-.7.2s-.7.2-1,.3c-.5.1-.9.3-1.4.4-.2,0-.4.1-.6.1-.2.1-.3-.1-.4-.2-.2-.3-.4-.5-.7-.7-.4-.3-.9-.4-1.3-.5-.8-.1-1.5.1-2.2.5s-1.2.9-1.6,1.5-.5,1.2-.6,1.8c-.1.6,0,1.1.1,1.7.1.4.3.8.6,1.2.2.3.5.5.8.6.3.2.6.3,1,.3s.6.1,1,0c.3,0,.6-.1.8-.2.4-.1.8-.3,1.1-.6.3-.2.5-.5.7-.8.1-.2.2-.3.3-.4,0,0,.1-.1,0-.1,0-.1-.1,0-.1,0h-3.6c-.5,0-.7-.3-.5-.8.2-.4.4-.8.5-1.2.1-.3.3-.6.4-.9.1-.2.3-.3.6-.3h6c.2,0,.3-.1.3-.3s.1-.4.2-.6c.2-.5.5-.9.8-1.3.3-.5.7-1,1.2-1.4.4-.4.9-.8,1.5-1.2l1.2-.6c.4-.2.8-.3,1.2-.4.5-.1.9-.3,1.4-.3s.8-.1,1.3-.1c.6.1,1.2.1,1.8.3.6.2,1.2.4,1.7.7.3.2.5.4.8.5.2.2.4.4.6.5.2.2.3.4.5.6.3.4.5.8.7,1.2.2.5.4,1,.5,1.5,0,.4,0,.7,0,1.1,0,.6,0,1.2,0,1.8,0,.5-.3,1-.4,1.6,0,.2-.2.5-.3.7-.2.4-.5.8-.8,1.2-.2.2-.3.4-.5.6s-.4.4-.6.6c-.5.4-1,.8-1.6,1.2-.4.2-.9.4-1.3.6-.5.2-.9.3-1.4.4-.5,0-1,0-1.6.2h-.9c-.4,0-.8-.2-1.2-.2-.3,0-.5-.2-.8-.3-.4-.2-.8-.3-1.2-.6-.4-.2-.7-.5-1-.8-.5-.5-1-1.1-1.3-1.7-.2-.4-.3-.8-.5-1.2q0,.4,0,.3ZM36.6,21.6c-.4,0-.9.1-1.4.3-.6.2-1.1.5-1.6,1s-.8,1.1-1.1,1.8c-.2.5-.3,1.1-.2,1.7,0,.4.2.8.3,1.1.2.3.4.6.7.9.3.4.8.6,1.3.7.2.1.4.1.6.1s.4.1.6.1c.4-.1.9-.1,1.3-.3.6-.2,1.1-.6,1.5-1,.5-.4.8-.9,1-1.5s.4-1.3.3-1.9c0-.7-.4-1.4-.8-1.9-.7-.8-1.5-1.1-2.5-1.1Z"/>
        <line class="cls-3" x1="6.4" y1="22" x2="13.7" y2="22"/>
        <line class="cls-3" x1="3.6" y1="23.8" x2="12.9" y2="23.8"/>
        <line class="cls-3" x1="8.5" y1="25.8" x2="12.2" y2="25.8"/>
      </g>
    </g>
  </g>
</svg>