<svg xmlns="http://www.w3.org/2000/svg" id="Camada_2" data-name="Camada 2" version="1.1" viewBox="0 0 44.6 47.8"><defs><style>.cls-4{fill:none;stroke:#444;stroke-linecap:round;stroke-linejoin:round}</style></defs><path fill="#04ad49" stroke-width="0" d="M24.5 16.6L32 19l-6.5 4.5.1 7.9-6.3-4.7-7.4 2.5 2.5-7.5-4.7-6.3 7.9.1 4.5-6.4 2.4 7.5z"/><path fill="#22dd6d" stroke-width="0" d="M41.5 12.3l-5.4-3.4-7.3-4.2L23.1 2c-3.2-.1-20.6 8.4-20.6 11.5L2 21l.5 14.5 11 7.2 29.7-10.6c.7-.4-.8-18-1.7-19.9z"/><path fill="none" stroke="#444" stroke-linecap="round" stroke-linejoin="round" stroke-width="2.5" d="M27.4 44.9l-2.1 1.2c-1.6.9-3.6.9-5.2 0L5.2 37.5c-1.6-.9-2.6-2.7-2.6-4.5V15.7c0-1.9 1-3.6 2.6-4.5L20 2.6c1.6-.9 3.6-.9 5.2 0l14.9 8.6c1.6.9 2.6 2.7 2.6 4.5v17.2c0 1.9-1 3.6-2.6 4.5l-2.4 1.4"/><path d="M38.9 15.6L26 8.2 7.4 18l4.8 3 13.3-7.2 8.6 4.7 4.8-2.9zm-23 8.3V38l4.9 3.3" class="cls-4"/><path d="M12.2 25.9l-4.8-2.8v-5l4.8 2.9v4.9zm13.3-2.4l.1-5.1-.1-4.5-.1.1v-.1l-.3.2L12.2 21v4.9l8.5-4.7.2 20.1 4.8-3v-4.5m8.4-10.3l4.9-2.8v-5l-4.9 2.9v4.9z" class="cls-4"/><path d="M25.3 33.7l4.9-2.8v-5.1l-4.9 2.7v5.2zm.6-15.3l8.2 5.1m-13.3 7.8l4.5 2.4m4.9-7.9l-4.7-2.3-4.6 2.5 4.5 2.2" class="cls-4"/><path fill="none" stroke="#444" stroke-linecap="round" stroke-linejoin="round" stroke-width=".5" d="M11.9 18.4l13.9-7.7 9.2 5"/></svg>