<?xml version="1.0" encoding="utf-8"?>
<!-- Generator: Adobe Illustrator 28.2.0, SVG Export Plug-In . SVG Version: 6.00 Build 0)  -->
<svg version="1.1" id="Camada_1" xmlns="http://www.w3.org/2000/svg" xmlns:xlink="http://www.w3.org/1999/xlink" x="0px" y="0px"
	 viewBox="0 0 50 50" style="enable-background:new 0 0 50 50;" xml:space="preserve">
<style type="text/css">
	.st0{fill:#D1BD00;}
	.st1{fill:#F9F941;}
	.st2{fill:none;stroke:#444444;stroke-width:2.5;stroke-linecap:round;stroke-linejoin:round;stroke-miterlimit:10;}
	.st3{fill:#444444;}
	.st4{fill:none;stroke:#444444;stroke-width:0.5;stroke-miterlimit:10;}
</style>
<g>
	<polygon class="st0" points="27.9,18.2 35.8,20.6 29.1,25.3 29.2,33.5 22.6,28.6 14.8,31.3 17.5,23.5 12.5,16.9 20.8,17 25.5,10.3 
			"/>
	<g>
		<g>
			<g>
				<path class="st1" d="M48.3,8.6L48.5,6c0.2-1.9-1.3-3.6-3.3-3.6L5.8,2.1C4,2.1,2.5,3.6,2.5,5.4v13.8v2.9l-0.1,6.4l0.1,0V32
					L2.3,44.3c0,1.9,1.5,3.4,3.3,3.4l18-0.2c0.4,0,0.8-0.1,1.1-0.2l21.4-8c1.3-0.5,2.1-1.7,2.1-3.1V24l0.1-9.2l0.5-0.1l-0.5-5.4
					C48.3,9,48.3,8.8,48.3,8.6z"/>
				<path class="st2" d="M32.2,48.4h-27c-1.9,0-3.4-1.6-3.4-3.5V6c0-1.9,1.5-3.5,3.4-3.5h39c1.9,0,3.4,1.6,3.4,3.5v32.5"/>
			</g>
			<g>
				<path class="st3" d="M5.7,24.1c0,0,0,0.1,0,0.1c0,0,0,0.1,0.1,0.1c0,0,0,0.1,0.1,0.1c0,0,0.1,0.1,0.1,0.1c0,0,0,0,0.1,0.1
					c2.4,1.4,4.7,1.9,7.1,1.9c3.2,0,6.3-0.9,9.4-1.7c5.1-1.4,9.9-2.7,14.4-0.1c0,0,0,0,0.1,0c0,0,0,0,0,0c0,0,0.1,0,0.1,0
					c0,0,0.1,0,0.1,0c0,0,0,0,0,0c0,0,0.1,0,0.1,0c0,0,0,0,0.1,0c0.1,0,0.2-0.1,0.2-0.1c0,0,0,0,0.1,0c0,0,0.1-0.1,0.1-0.1
					c0,0,0,0,0,0c0,0,0,0,0,0c0,0,0,0,0-0.1l5.2-13.1c0,0,0-0.1,0-0.1c0,0,0-0.1,0-0.1c0,0,0-0.1,0-0.1c0,0,0-0.1,0-0.1
					c0,0,0-0.1-0.1-0.1c0,0,0-0.1-0.1-0.1c0,0-0.1-0.1-0.1-0.1c0,0,0,0-0.1-0.1c-5-2.9-10.3-1.4-15.5,0c-5.3,1.5-10.4,2.9-15.4,0
					c0,0,0,0,0,0c0,0,0,0,0,0c0,0-0.1,0-0.1,0c0,0-0.1,0-0.1,0c0,0-0.1,0-0.1,0c0,0-0.1,0-0.1,0c0,0-0.1,0-0.1,0.1
					c0,0-0.1,0-0.1,0.1c0,0-0.1,0.1-0.1,0.1c0,0,0,0-0.1,0.1c0,0,0,0,0,0c0,0,0,0,0,0L5.7,23.8c0,0,0,0.1,0,0.1c0,0,0,0.1,0,0.1
					C5.7,24,5.7,24.1,5.7,24.1z M27.7,11.7c4.9-1.3,9.5-2.6,13.8-0.4L36.9,23c-4.8-2.3-9.8-1-14.7,0.4c-5.2,1.4-10.1,2.7-14.8,0.3
					L12,11.9c2.1,1.1,4.2,1.5,6.4,1.5C21.5,13.4,24.6,12.5,27.7,11.7z"/>
				<path class="st3" d="M42.8,17.4c-0.4-0.1-0.8,0-0.9,0.4l-4.9,12.4c-4.8-2.3-9.8-1-14.7,0.4C17,32,12.1,33.4,7.3,30.9l1.4-3.4
					c0.2-0.4,0-0.8-0.4-0.9c-0.4-0.1-0.8,0-0.9,0.4l-1.6,4c0,0,0,0.1,0,0.1c0,0,0,0.1,0,0.1c0,0,0,0.1,0,0.1c0,0,0,0.1,0,0.1
					c0,0,0,0.1,0.1,0.1c0,0,0,0.1,0.1,0.1c0,0,0.1,0.1,0.1,0.1c0,0,0,0,0.1,0.1c2.4,1.4,4.7,1.9,7.1,1.9c3.2,0,6.3-0.9,9.4-1.7
					c5.1-1.4,9.9-2.7,14.4-0.1c0,0,0,0,0,0c0,0,0,0,0,0c0,0,0.1,0,0.1,0c0,0,0.1,0,0.1,0c0,0,0,0,0,0c0.1,0,0.1,0,0.2,0c0,0,0,0,0,0
					c0.1,0,0.2-0.1,0.2-0.1c0,0,0,0,0.1,0c0,0,0.1-0.1,0.1-0.1c0,0,0,0,0,0c0,0,0,0,0,0c0,0,0,0,0-0.1l5.2-13.1
					C43.3,18,43.1,17.6,42.8,17.4z"/>
				<path class="st3" d="M42.8,24.6c-0.4-0.1-0.8,0-0.9,0.4l-4.9,12.4c-4.8-2.3-9.8-1-14.7,0.4c-5.2,1.4-10.1,2.7-14.8,0.3l1.4-3.4
					c0.1-0.4,0-0.8-0.4-0.9c-0.4-0.1-0.8,0-0.9,0.4l-1.6,4.1c0,0,0,0.1,0,0.1c0,0,0,0.1,0,0.1c0,0,0,0.1,0,0.1c0,0,0,0.1,0,0.1
					c0,0,0,0.1,0.1,0.1c0,0,0,0.1,0.1,0.1c0,0,0.1,0.1,0.1,0.1c0,0,0,0,0.1,0.1c2.4,1.4,4.7,1.9,7.1,1.9c3.2,0,6.3-0.9,9.4-1.7
					c5.1-1.4,9.9-2.7,14.4-0.1c0,0,0,0,0.1,0c0,0,0,0,0,0c0,0,0.1,0,0.1,0c0,0,0.1,0,0.1,0c0,0,0,0,0,0c0,0,0.1,0,0.1,0
					c0,0,0,0,0.1,0c0.1,0,0.2-0.1,0.2-0.1c0,0,0,0,0.1,0c0,0,0.1-0.1,0.1-0.1c0,0,0,0,0,0c0,0,0,0,0,0c0,0,0,0,0-0.1l5.2-13.2
					C43.3,25.2,43.1,24.8,42.8,24.6z"/>
			</g>
		</g>
		<path class="st4" d="M9.4,21.9c0,0,3.2,3.5,12-0.2"/>
		<path class="st4" d="M9.4,29.4c0,0,3.2,3.5,12-0.2"/>
		<path class="st4" d="M9.4,36.8c0,0,3.2,3.5,12-0.2"/>
	</g>
</g>
</svg>
