<?xml version="1.0" encoding="UTF-8"?>
<svg id="Layer_1" xmlns="http://www.w3.org/2000/svg" version="1.1" xmlns:xlink="http://www.w3.org/1999/xlink" viewBox="0 0 50 50">
  <!-- Generator: Adobe Illustrator 29.2.1, SVG Export Plug-In . SVG Version: 2.1.0 Build 116)  -->
  <defs>
    <style>
      .st0 {
        fill: #00dffc;
      }

      .st1 {
        stroke-width: 2.5px;
      }

      .st1, .st2 {
        fill: none;
        stroke: #444;
        stroke-linecap: round;
        stroke-linejoin: round;
      }

      .st3 {
        fill: #444;
      }

      .st2 {
        stroke-width: .5px;
      }
    </style>
  </defs>
  <g>
    <path class="st0" d="M47.4,26.3l-.5-4L29.7,4.7l-4.4-1.8c-4.1,0-17.8,12.9-17.8,15.5l-4.3,4-.2,5.9,14.2,14.5,24.8-8.8c.6-.3,6.2-6,5.4-7.6Z"/>
    <path class="st1" d="M29.3,45.6c-2.4,2.4-6.3,2.4-8.7,0L4.4,29.4c-2.4-2.4-2.4-6.3,0-8.7L20.6,4.4c2.4-2.4,6.3-2.4,8.7,0l16.2,16.2c2.4,2.4,2.4,6.3,0,8.7l-7.4,7.4"/>
  </g>
  <g>
    <path class="st3" d="M28.6,35.8c1.4-.8,2.5-1.7,3.5-2.8,1-1,1.7-2.2,2.3-3.4.6-1.2,1-2.5,1.3-3.9.2-.7.2-1.4.3-2.1,0-.7.1-1.4.2-2.2h2.3c0,.7.2,1.5.2,2.3,0,.8,0,1.6-.2,2.5-.3,1.6-.8,3.3-1.7,4.8-.9,1.5-2.1,2.7-3.6,3.6-1.4.8-3.1,1.3-4.7,1.2Z"/>
    <polygon class="st3" points="41.5 22.1 36.4 15.5 33.2 23.2 41.5 22.1"/>
  </g>
  <path class="st3" d="M23,36.2c-8.8.3-12.2-9.9-9.7-17.1,1.3-3.5,1.3-3.6,1.5.2.3,6.8,1.6,13.6,8.2,17h0Z"/>
  <circle class="st3" cx="25.7" cy="35.8" r=".8"/>
  <path class="st2" d="M11.4,32.1l-5-5c-.9-.9-.9-2.2,0-3.1l5-5"/>
  <path class="st2" d="M38.9,34.3l-16.2-16.2c-.9-.9-.9-2.5,0-3.4l8.6-8.6"/>
</svg>