<?xml version="1.0" encoding="utf-8"?>
<!-- Generator: Adobe Illustrator 26.5.0, SVG Export Plug-In . SVG Version: 6.00 Build 0)  -->
<svg version="1.1" id="Camada_3" xmlns="http://www.w3.org/2000/svg" xmlns:xlink="http://www.w3.org/1999/xlink" x="0px" y="0px"
	 viewBox="0 0 50 50" style="enable-background:new 0 0 50 50;" xml:space="preserve">
<style type="text/css">
	.st0{fill:#A6C1C2;}
	.st1{fill:#B9D7D9;}
	.st2{fill:none;stroke:#444444;stroke-width:2.5;stroke-linecap:round;stroke-linejoin:round;stroke-miterlimit:10;}
	.st3{fill:none;stroke:#494949;stroke-linecap:round;stroke-linejoin:round;}
	.st4{fill:#494949;}
	.st5{fill:#444444;}
	.st6{fill:none;stroke:#444444;stroke-width:0.25;stroke-linecap:round;stroke-linejoin:round;stroke-miterlimit:10;}
	.st7{fill:none;stroke:#444444;stroke-width:0.5;stroke-linecap:round;stroke-linejoin:round;stroke-miterlimit:10;}
</style>
<g>
	<g>
		<polygon class="st0" points="48.02,16.5 48.76,21.7 2.7,38.46 2.16,27.57 2.12,21.33 46.69,5.18 47.56,9.05 		"/>
		<polygon class="st1" points="45.84,1.97 48.09,5.21 1.24,21.94 2.35,4.77 5.33,1.88 34.38,1.71 		"/>
		<g>
			<path class="st2" d="M24.63,48.29H5.16c-1.87,0-3.39-1.58-3.39-3.54V5.84c0-1.95,1.52-3.54,3.39-3.54h39.01
				c1.87,0,3.39,1.58,3.39,3.54v25.89"/>
			<path class="st2" d="M1.77,15.84"/>
			<path class="st2" d="M47.55,15.84"/>
		</g>
	</g>
	<g>
		<g>
			<path class="st3" d="M7.31,8.27c0,0,16.78,75.9,34.47,1.06"/>
			<g>
				<polygon class="st4" points="44.86,13.56 43.98,14.04 41.65,9.69 37.48,12.33 36.95,11.48 42.02,8.27 				"/>
			</g>
		</g>
	</g>
	<circle class="st5" cx="24.66" cy="42.32" r="1.8"/>
	<polyline class="st6" points="8.28,20.77 13.32,20.77 13.32,11.82 	"/>
	<line class="st7" x1="14.64" y1="14.38" x2="22.95" y2="14.38"/>
	<line class="st7" x1="14.64" y1="15.84" x2="22.95" y2="15.84"/>
	<line class="st7" x1="14.64" y1="17.3" x2="22.95" y2="17.3"/>
	<line class="st7" x1="14.64" y1="18.92" x2="22.95" y2="18.92"/>
	<line class="st7" x1="14.64" y1="12.33" x2="17.28" y2="12.33"/>
	<polyline class="st6" points="31.1,33.93 36.23,33.93 36.23,40.8 	"/>
	<line class="st7" x1="43.91" y1="37.37" x2="37.5" y2="37.37"/>
	<line class="st7" x1="43.91" y1="38.83" x2="37.5" y2="38.83"/>
	<line class="st7" x1="41.5" y1="35.32" x2="37.5" y2="35.32"/>
	<line class="st7" x1="43.91" y1="40.29" x2="37.5" y2="40.29"/>
	<polyline class="st6" points="13.32,32.65 18.45,32.65 18.45,25 	"/>
	<line class="st7" x1="28.12" y1="27.73" x2="19.81" y2="27.73"/>
	<line class="st7" x1="28.12" y1="29.19" x2="19.81" y2="29.19"/>
	<line class="st7" x1="22.4" y1="25.68" x2="19.81" y2="25.68"/>
	<line class="st7" x1="25.44" y1="30.66" x2="19.81" y2="30.66"/>
</g>
</svg>
