<?xml version="1.0" encoding="utf-8"?>
<!-- Generator: Adobe Illustrator 28.0.0, SVG Export Plug-In . SVG Version: 6.00 Build 0)  -->
<svg version="1.1" id="Layer_1" xmlns="http://www.w3.org/2000/svg" xmlns:xlink="http://www.w3.org/1999/xlink" x="0px" y="0px"
	 viewBox="0 0 50 50" style="enable-background:new 0 0 50 50;" xml:space="preserve">
<style type="text/css">
	.st0{fill:#E589EF;}
	
		.st1{fill-rule:evenodd;clip-rule:evenodd;fill:none;stroke:#444444;stroke-width:0.5;stroke-linecap:round;stroke-linejoin:round;stroke-miterlimit:10;}
	.st2{fill-rule:evenodd;clip-rule:evenodd;fill:#444444;}
	
		.st3{fill-rule:evenodd;clip-rule:evenodd;fill:none;stroke:#444444;stroke-linecap:round;stroke-linejoin:round;stroke-miterlimit:10;}
	.st4{stroke:#444444;stroke-width:2.5;stroke-linecap:round;stroke-linejoin:round;stroke-miterlimit:10;}
	.st5{fill:#444444;}
</style>
<g>
	<path class="st0" d="M35.3,5.6l-3.5-3.2c-1.5,0-8.6-0.2-8.6,1.3l-5.4,7.8l-0.9,29l-3,5l3.6,3.2l22.4-8.1c0-2.1-0.1-5.3,1.4-5.8
		c3-1.1,2-8.6-0.6-12.3L34,10.8l6.4-0.2l0.8-2.2C41.2,6.9,36.8,5.6,35.3,5.6z"/>
	<g>
		<g>
			<g>
				<path class="st1" d="M29.9,47.9c0.2,0,0.7,0.3,1.2-0.3c0.4-0.4,0-1.2-0.1-1.3c-0.5-0.6-1-0.9-1.7-1c-0.7-0.2-1.5-0.2-2.3-0.3
					l0,0c-0.6-0.1-1-0.4-1.2-0.9c0.3-0.2,0.6-0.4,0.8-0.6c3.3-2.5,4.5-6.8,3.2-13.1c-0.1-0.3,0.1-0.5,0.3-0.6
					c0.2-0.1,0.5-0.1,0.7,0.1c0.7,0.7,1.2,1.7,1.5,2.9c0.1,0.3,0.3,0.4,0.6,0.4c0.3,0,0.5-0.2,0.6-0.5c1-4.9-0.1-9.1-3.4-12.6l0,0
					c-8.1-9.6,0.7-8.5,1.9-6.2l0.4,0.7c2.1,3.4,3.8,6.4,4.5,10l0,0l0,0c1.5,7.9,1.2,16-5.5,20.1c0.4,0.2,0.9,0.6,1.3,1.1
					c0.2,0.2,0.3,0.5,0.3,0.8"/>
			</g>
			<path class="st2" d="M29.1,7.7c-0.5,0-0.8-0.4-0.8-0.8c0-0.5,0.4-0.8,0.8-0.8c0.5,0,0.8,0.4,0.8,0.8C29.9,7.4,29.5,7.7,29.1,7.7z
				"/>
			<path class="st3" d="M17.3,17.3c5,0,9,4,9,9s-4,9-9,9"/>
			<line class="st4" x1="23.3" y1="48.7" x2="33.5" y2="48.7"/>
			<line class="st4" x1="40" y1="37.4" x2="39.3" y2="40.2"/>
			<path class="st5" d="M28.7,3.1c2.2,0,4.3,1.1,5.8,3.4c0.1,0.2,0.3,0.3,0.5,0.3c2,0.1,3.3,0.8,4.6,2.1c0.2,0.2,0.2,0.5,0.1,0.7
				c-0.1,0.2-0.3,0.3-0.5,0.3c-0.1,0-0.1,0-0.2,0c-1.1-0.4-2.4-0.6-3.5-0.6c-0.2,0-0.4,0-0.6,0c0,0,0,0,0,0c0,0,0,0,0,0
				c-0.6,0.1-1.1,0.3-1.4,0.5c-0.5,0.3-0.7,0.6-0.9,0.9c-0.1,0.3-0.2,0.7-0.1,1.1c0,0.3,0.1,0.5,0.2,0.7l1,1.6
				c1.1,1.9,2.2,3.7,3,5.5c2.6,3.6,5.7,8.7,5.5,12.6c0,0.3-0.2,0.5-0.5,0.5c0,0-0.1,0-0.1,0c-0.2,0-0.5-0.1-0.5-0.4
				c-0.4-1.1-1-2-1.8-2.7c0.3,2.9,0,6-1.1,9.4l2.4,0.7c0.5-1.5,0.8-3.1,1-4.6c0,0,0,0,0,0c0.2,0,0.3,0,0.5,0
				c1.4-0.2,2.5-1.4,2.6-2.9c0.3-4.8-3.1-10.3-5.8-14.1c-0.9-1.8-1.9-3.6-3.1-5.5l-0.6-1c0.1,0,0.2,0,0.3,0c0.8,0,1.8,0.2,2.7,0.5
				c0.3,0.1,0.6,0.2,1,0.2c1.1,0,2.1-0.6,2.7-1.6C42.6,9.5,42.3,8,41.3,7C39.7,5.4,38,4.6,36,4.3c-1.9-2.4-4.4-3.7-7.4-3.7l0,0
				c0,0,0,0,0,0c-5.7,0-10.8,5-12.2,11.8c-1,4.7-0.7,10.1-0.5,15.3c0.3,6.6,0.6,13.4-2,15.6c-0.8,0.7-1.3,1.6-1.3,2.6
				c0,1.8,1.5,3,3.1,3h2.5c0,0,0.1,0,0.1,0l0.1,0c0,0,0.1,0,0.1,0c0.7-0.1,1.5-0.2,2.2-0.3c0.6,0.8,1.5,1.3,2.5,1.3h5.4h3.2l0,0
				c1-0.5,1-2,0-2.5h0h-3.2h-5.4c-0.3,0-0.6-0.3-0.6-0.6v-0.3c0-0.5-0.2-0.7-0.6-0.7c-0.1,0-0.2,0-0.3,0c-0.1,0-0.1,0-0.2,0
				c-0.2,0-0.4,0.1-0.6,0.1c-0.2,0-0.4,0.1-0.5,0.1c-0.7,0.1-1.4,0.2-2.2,0.3l-0.1,0h-2.5c-0.3,0-0.5-0.2-0.6-0.4
				c-0.1-0.2,0-0.5,0.2-0.7c6.2-4.8,1.2-21.5,3.5-32.4C20.2,6.8,24.6,3.1,28.7,3.1"/>
		</g>
	</g>
</g>
</svg>
