<svg xmlns="http://www.w3.org/2000/svg" viewBox="0 0 50 50"><path fill="#f799ff" d="M45.7 10.2v-.4c-.1.1-.2.1-.3.1-2.5 1.4-4.9 2.8-7.4 4.2l-7.2 3.7c0-.3-.1-.5-.4-.6-2.9-1.7-5.9-3.3-8.8-5-.7-.4-1.5-.8-2.3-1.3-.1 0-.2-.1-.3-.1L6.4 3.6c-.4-.2-.8-.5-1.1-.7-.3-.1-.6-.3-.9-.5v13.3l.1.1.2.2c3.4 1.9 6.8 3.9 10.2 5.8.4.2.7.4 1.1.6v-.1l3.1 1.8v.1l26.5-9.7c.1-1.4.1-2.8.1-4.3z"/><path fill="#e589ef" d="M30.8 31.1l3.1-1.7c.2-.1.3-.1.4-.2 3.7-2.1 7.3-4.2 11-6.3.3-.1.4-.3.4-.6v-8.2l-26.5 9.7v12.9l11.7-4.3v-1.3h-.1z"/><path fill="#444" d="M32.7 32.5v-15c0-.8.3-1.3 1-1.7 2.7-1.6 5.5-3.1 8.2-4.7l2.9-1.6c.1 0 .2-.1.3-.1l1.9-.9v14.9c0 .8-.3 1.3-1 1.7-2.8 1.6-5.5 3.1-8.3 4.7L35 31.3c-.1.1-.2.1-.3.2l-2 1zm2.5-14.7v10.5l1.2-.7c2.7-1.5 5.3-3.1 8-4.6V12.5l-1.3.7c-2.6 1.6-5.3 3.1-7.9 4.6zm-3.3 31.8L23.8 45c-.6-.3-.8-1.1-.5-1.7.3-.6 1.1-.8 1.7-.5l4.5 2.6V35l-9.2-5.2v6.7c0 .7-.6 1.2-1.2 1.2-.7 0-1.2-.6-1.2-1.3v-11L31.1 33c.8.4.9 1.1.9 1.6v13l-.1 2zm-2.3-15zM17.1 24.4l-5.3-3C9.2 20 6.6 18.5 4.1 17c-.5-.3-1-.8-1-1.7V2.5L3.2.3l2.1 1.2.6.3 2.8 1.6c2.6 1.5 5.1 2.9 7.7 4.4.8.5 1 1.1 1 1.6v12.8l-.3 2.2zM5.6 15c2.5 1.4 5 2.8 7.4 4.2l1.7 1V9.7C12.3 8.4 9.9 7 7.4 5.6l-1.8-1V15zm26.3 17.8l-5.3-3c-2.6-1.5-5.2-2.9-7.7-4.4-.7-.4-1-1-1-1.7v-15l6.4 3.7c2.3 1.3 4.5 2.6 6.8 3.9.7.4 1 1 1 1.7v12.7l-.2 2.1zm-11.5-9.4c2.5 1.4 5 2.8 7.5 4.3l1.7 1V18.2c-2.2-1.2-4.3-2.5-6.5-3.7L20.4 13v10.4z"/></svg>