<svg id="Layer_1" data-name="Layer 1" xmlns="http://www.w3.org/2000/svg" viewBox="0 0 50 50"><defs><style>.cls-1{fill:#a475ef;}.cls-2{fill:#bf94f7;}.cls-3{fill:none;stroke:#444;stroke-linecap:round;stroke-linejoin:round;stroke-width:2.5px;}.cls-4{fill:#494949;}</style></defs><polygon class="cls-1" points="48 22.6 48 28.7 2.3 43.1 1.9 30.7 1.9 26.8 48.1 10 48 22.6"/><polygon class="cls-2" points="47.8 7.3 47.3 10.5 1.6 27.1 1.7 20.7 1.7 16.7 48.4 1.8 47.8 7.3"/><polyline class="cls-3" points="22.8 48.2 2 48.2 2 2.4 48 2.4 48 48.2"/><path class="cls-4" d="M11.7,39.1a.5.5,0,0,0,1,0A.5.5,0,0,0,11.7,39.1Z"/><path class="cls-4" d="M37.3,16.3a.5.5,0,0,0,1,0C38.2,15.6,37.3,15.6,37.3,16.3Z"/><path class="cls-4" d="M13.8,35V16a.45.45,0,0,1,.9,0V35C14.6,35.6,13.8,35.6,13.8,35Z"/><path class="cls-4" d="M35.2,35V16a.45.45,0,1,1,.9,0V35A.45.45,0,0,1,35.2,35Z"/><path class="cls-4" d="M37.2,14.2a3,3,0,0,0-3-3H21.9a.45.45,0,1,1,0-.9H34.2A3.8,3.8,0,0,1,38,14.1.41.41,0,1,1,37.2,14.2Z"/><path class="cls-4" d="M35.5,16.4H14.2a.43.43,0,0,1-.4-.4V14.3a1.9,1.9,0,0,1,1.9-1.9H34.2a1.9,1.9,0,0,1,1.9,1.9V16A.68.68,0,0,1,35.5,16.4Zm-20.9-.9H35.1V14.2a1,1,0,0,0-1-1H15.6a1,1,0,0,0-1,1Z"/><path class="cls-4" d="M9.4,35.4V19.5A1.58,1.58,0,0,1,11,17.9h2.8a.45.45,0,0,1,0,.9H11a.68.68,0,0,0-.7.7V35.3C10.2,35.9,9.4,35.9,9.4,35.4Z"/><path class="cls-4" d="M39.5,35.4V19.5a.68.68,0,0,0-.7-.7H36a.45.45,0,0,1,0-.9h2.8a1.58,1.58,0,0,1,1.6,1.6V35.3C40.4,35.9,39.5,35.9,39.5,35.4Z"/><path class="cls-4" d="M11.2,35.1V20.3a.58.58,0,0,1,.6-.6h2a.45.45,0,0,1,0,.9H12.1V35C12.1,35.6,11.2,35.6,11.2,35.1Z"/><path class="cls-4" d="M37.7,34.8V20.6H36a.45.45,0,0,1,0-.9h2a.58.58,0,0,1,.6.6V34.8A.45.45,0,0,1,37.7,34.8ZM38,20.6Z"/><path class="cls-4" d="M39.3,37.6H10.5a2,2,0,0,1-2-2.3.43.43,0,0,1,.4-.4H23.4c.4,0,.3.5.8.5,1.5,0,1.7.1,1.9-.2s-.7-.2,14.8-.2a.43.43,0,0,1,.4.4A2,2,0,0,1,39.3,37.6Zm-30-1.8a1.29,1.29,0,0,0,1.2,1H39.3a1.19,1.19,0,0,0,1.2-1H26.7c-.5.6-1,.5-2.5.5a1.23,1.23,0,0,1-1-.5Z"/><path class="cls-4" d="M42.3,37.6H38.6a.4.4,0,1,1,0-.8h3.7a.4.4,0,0,1,0,.8Z"/><path class="cls-4" d="M11.4,37.6H7.7a.4.4,0,1,1,0-.8h3.7a.43.43,0,0,1,.4.4C11.9,37.4,11.7,37.6,11.4,37.6Z"/><path class="cls-4" d="M37.6,39.6H14.1a.45.45,0,0,1,0-.9H37.6A.45.45,0,0,1,37.6,39.6Z"/><path class="cls-4" d="M15.9,14.5a.45.45,0,1,0,.9,0A.46.46,0,1,0,15.9,14.5Z"/><path class="cls-4" d="M17.5,14.5a.45.45,0,1,0,.9,0C18.5,13.8,17.5,13.8,17.5,14.5Z"/><path class="cls-4" d="M19.2,14.5a.45.45,0,0,0,.9,0C20.2,13.8,19.2,13.8,19.2,14.5Z"/><path class="cls-4" d="M25.3,29.6h2.2c2.3,0,3.1-9,3.1-9v-.1H29.5c-1.9,0-2.7,5.9-2.8,7.1h0c-.1-1.2-.5-7.1-2-7.1H22.5c-2.3,0-3.1,9-3.1,9v.1h1.1c2.2,0,2.8-7.3,2.8-7.3h.1S23.7,29.6,25.3,29.6Z"/></svg>