<svg xmlns="http://www.w3.org/2000/svg" version="1" viewBox="0 0 50 50"><path fill="#46B8B0" d="M37.06 33.587l5.171 5.037-5.016 1.823-3.546-3.511-2.812 5.828-2.049.742-1.116-3.702c-1.66.494-3.419.77-5.235.77-10.01 0-18.12-8.11-18.12-18.121 0-10.003 8.11-18.113 18.12-18.113 10.004 0 18.114 8.11 18.114 18.113 0 1.823-.268 3.582-.77 5.242l5.864 1.766-8.605 4.126z"/><path fill="#4ECDC4" d="M38.578 14.195L4.796 26.494a17.703 17.703 0 0 1-.459-4.041c0-10.003 8.11-18.113 18.12-18.113 7.029 0 13.119 4.005 16.121 9.855z"/><path fill="#031326" d="M33.303 34.82l-3.529 7.321-1.071-3.317-.175-.581-.011.003-4.644-14.376 14.384 4.615-.013.043 2.487.751 1.455.467-7.279 3.489 6.451 6.285a1.25 1.25 0 0 0 1.745-1.791l-3.887-3.787L49.11 29.2l-7.789-2.354c.335-1.438.504-2.911.504-4.392 0-10.68-8.688-19.368-19.369-19.368-10.68 0-19.369 8.688-19.369 19.368s8.689 19.369 19.369 19.369a19.37 19.37 0 0 0 4.389-.503l2.35 7.782 4.842-10.044 7.316 7.234a1.25 1.25 0 0 0 1.758-1.778l-9.808-9.694zm-7.109-10.745l-.334-.105a3.56 3.56 0 0 0 .315-1.432 3.635 3.635 0 1 0-3.635 3.635c.513 0 .993-.123 1.435-.318l.102.323c-.477.201-.989.33-1.536.33a3.97 3.97 0 1 1 0-7.94c2.19 0 3.97 1.78 3.97 3.97a3.915 3.915 0 0 1-.317 1.537zm6.286 1.97c.39-1.095.609-2.278.609-3.508 0-5.821-4.719-10.554-10.547-10.554s-10.547 4.733-10.547 10.554 4.719 10.554 10.547 10.554c1.237 0 2.426-.221 3.533-.616l.232.732c-1.213.4-2.586.633-3.762.633-6.232 0-11.303-5.07-11.303-11.303s5.07-11.303 11.303-11.303c6.228 0 11.295 5.07 11.295 11.303 0 1.182-.228 2.519-.632 3.735l-.728-.227zm1.172.439c.409-1.214.687-2.631.687-3.946 0-6.515-5.28-11.803-11.795-11.803-6.523 0-11.803 5.288-11.803 11.803s5.28 11.803 11.803 11.803c1.311 0 2.746-.278 3.963-.685l1.53 4.737-.707.213c-1.58.477-3.221.718-4.875.718-9.301 0-16.869-7.567-16.869-16.869S13.153 5.586 22.455 5.586s16.869 7.567 16.869 16.868a16.85 16.85 0 0 1-.72 4.877l-.204.676-4.748-1.523z"/></svg>