<svg xmlns="http://www.w3.org/2000/svg" id="Layer_1" x="0" y="0" version="1.1" viewBox="0 0 50 50" xml:space="preserve"><style>.st2,.st3{fill:none;stroke:#444;stroke-linecap:round;stroke-linejoin:round;stroke-miterlimit:10}.st3{stroke-width:.5}.st5{fill:#46b8b0}.st6{fill:#717182}</style><path fill="#d1bd00" d="M28.8 22.7l7.8 2.5-6.7 4.7.1 8.2-6.6-4.9-7.7 2.6 2.6-7.7-4.9-6.6 8.2.1 4.7-6.7z"/><path fill="#f9f941" d="M48.8 7.9l.2-2.7c.2-1.9-29.9-.8-31.8-.8l-1.1 7.9c-1.8 0-13.1.2-13.1 2v13.5h.1v3.6l-.3 12.2c0 1.9 1.5 3.4 3.3 3.4l18-.2c.4 0 .8-.1 1.1-.2l16-5.9v-6.4c1.3-.5 7-.2 7-1.6l.5-9.4.1-9.2.5-.1-.5-5.4v-.7z"/><path d="M17.1 28.6V7.9c0-1.2 1.2-2.2 2.4-2.2h26.1c1.2 0 2.2 1 2.2 2.2v23.3c0 1.2-1 2.2-2.2 2.2H22m-4.7-22h30.5" class="st2"/><path d="M20.1 8.5H22m1.9 0h1.9m2 0h1.9" class="st3"/><path d="M3.9 19h11.5m-2.9 19.1l15.3-15.3m-15.3 9.6v5.7h5.7m9.6-9.5v-5.8H22" class="st2"/><path d="M6.8 16.2h1.9m1.9 0h1.9" class="st3"/><path fill="none" stroke="#444" stroke-linecap="round" stroke-linejoin="round" stroke-miterlimit="10" stroke-width="2.5" d="M34.3 46.8H6.4c-2.2 0-4-1.8-4-4V16.2c0-2.2 1.8-3.8 4-3.8h9.7v-4c0-2.2 1.8-4 4-4H45c2.2 0 4 1.8 4 4v21.9c0 2.2-1.8 4-4 4h-3.7v6.4"/><path d="M-209.7 25.7c.6-3.7.2-7.7-1.4-11.4-4.5-10.1-16.3-14.7-26.4-10.2s-14.7 16.3-10.2 26.4c2.3 5.1 6.4 8.8 11.2 10.6.5-3.2 1.9-6.4 4.1-9.1 5.5-7 14.8-9.3 22.7-6.3z" class="st5"/><circle id="_x3C_Repetição_radial_x3E__00000179606294742386183760000004394163703885429944_" cx="-230.4" cy="-3" r="20" class="st6"/><circle id="_x3C_Repetição_radial_x3E__00000129927721280495386200000012555978690458171798_" cx="-219.4" cy="-25.9" r="20" class="st6"/><circle id="_x3C_Repetição_radial_x3E__00000137845331220492234110000011909551935752123567_" cx="-199.1" cy="-41" r="20" fill="#c3ff68"/><circle id="_x3C_Repetição_radial_x3E__00000049914215041310617240000004475323240406556064_" cx="-174" cy="-45" r="20" class="st6"/><circle id="_x3C_Repetição_radial_x3E__00000170968225864378607080000013395122048141101197_" cx="-149.9" cy="-36.9" r="20" fill="#fcc34f"/><circle id="_x3C_Repetição_radial_x3E__00000071559812243253416090000016585300853625488308_" cx="-132.4" cy="-18.5" r="20" fill="#ff6b6b"/><circle id="_x3C_Repetição_radial_x3E__00000091013237996204697760000017394083817429564334_" cx="-125.4" cy="5.9" r="20" fill="#fc9d9a"/><circle id="_x3C_Repetição_radial_x3E__00000143583405215706921350000014227819706008596405_" cx="-130.6" cy="30.8" r="20" fill="#dc5e82"/><circle id="_x3C_Repetição_radial_x3E__00000150819520852659993600000015034050318189821119_" cx="-146.7" cy="50.4" r="20" fill="#e589ef"/><circle id="_x3C_Repetição_radial_x3E__00000135690003072975933250000014764704718739673262_" cx="-170.1" cy="60.2" r="20" class="st6"/><circle id="_x3C_Repetição_radial_x3E__00000097486467007074421490000004378631265011035278_" cx="-195.4" cy="58.1" r="20" fill="#00dffc"/><path d="M-204.4 28.8c-1.7-1.3-3.5-2.3-5.3-3-1.1 6.4-5.3 12.2-11.7 15-5 2.2-10.5 2.2-15.2.4-1.2 7 1.4 14.3 7.3 19 8.7 6.9 21.3 5.4 28.1-3.2 6.9-8.7 5.5-21.3-3.2-28.2z" class="st6"/><path d="M-221.4 40.7c6.4-2.8 10.6-8.6 11.7-15-7.9-3-17.2-.7-22.8 6.3-2.2 2.8-3.5 5.9-4.1 9.1 4.8 1.8 10.2 1.9 15.2-.4z" class="st5"/></svg>