<svg xmlns="http://www.w3.org/2000/svg" fill="none" viewBox="0 0 50 50"><g clip-path="url(#clip0_1426_2)"><path fill="#C3FF68" d="M48.8 7.9l.2-2.7c.2-1.9-29.9-.8-31.8-.8l-1.1 7.9c-1.8 0-13.1.2-13.1 2v13.5h.1v3.6l-.3 12.2c0 1.9 1.5 3.4 3.3 3.4l18-.2c.4 0 .8-.1 1.1-.2l16-5.9v-6.4c1.3-.5 7-.2 7-1.6l.5-9.4.1-9.2.5-.1-.5-5.4v-.7z"/><path stroke="#444" stroke-linecap="round" stroke-linejoin="round" stroke-miterlimit="10" d="M17.1 28.6V7.9c0-1.2 1.2-2.2 2.4-2.2h26.1c1.2 0 2.2 1 2.2 2.2v23.3c0 1.2-1 2.2-2.2 2.2H22m-4.7-22h30.5"/><path stroke="#444" stroke-linecap="round" stroke-linejoin="round" stroke-miterlimit="10" stroke-width=".5" d="M20.1 8.5H22m1.9 0h1.9m2 0h1.9"/><path stroke="#444" stroke-linecap="round" stroke-linejoin="round" stroke-miterlimit="10" d="M3.9 19h11.5m-2.9 19.1l15.3-15.3M12.5 38.1v-5.7m0 5.7h5.7m9.6-15.3v5.8m0-5.8H22"/><path stroke="#444" stroke-linecap="round" stroke-linejoin="round" stroke-miterlimit="10" stroke-width=".5" d="M6.8 16.2h1.9m1.9 0h1.9"/><path stroke="#444" stroke-linecap="round" stroke-linejoin="round" stroke-miterlimit="10" stroke-width="2.5" d="M34.3 46.8H6.4c-2.2 0-4-1.8-4-4V16.2c0-2.2 1.8-3.8 4-3.8h9.7v-4c0-2.2 1.8-4 4-4H45c2.2 0 4 1.8 4 4v21.9c0 2.2-1.8 4-4 4h-3.7v6.4"/></g><defs><clipPath id="clip0_1426_2"><path fill="#fff" d="M0 0h50v50H0z"/></clipPath></defs></svg>