<?xml version="1.0" encoding="UTF-8"?>
<svg xmlns="http://www.w3.org/2000/svg" version="1.1" viewBox="0 0 50 50">
  <defs>
    <style>
      .cls-1 {
        stroke-width: 2.5px;
      }

      .cls-1, .cls-2, .cls-3, .cls-4 {
        fill: none;
        stroke: #444;
        stroke-linecap: round;
      }

      .cls-1, .cls-4 {
        stroke-linejoin: round;
      }

      .cls-2, .cls-3 {
        stroke-miterlimit: 10;
      }

      .cls-2, .cls-4 {
        stroke-width: .5px;
      }

      .cls-5 {
        fill: #e589ef;
      }
    </style>
  </defs>
  <!-- Generator: Adobe Illustrator 28.6.0, SVG Export Plug-In . SVG Version: 1.2.0 Build 709)  -->
  <g>
    <g id="Camada_1">
      <g>
        <path class="cls-5" d="M44.7,12.5l-5.6-3.6-7.7-4.4-6-2.8C22.2,1.7,3.9,10.6,3.9,13.8l-.5,7.8.5,15.1,11.5,7.6,31-11c.9-.5-.7-18.8-1.7-20.8Z"/>
        <path class="cls-1" d="M30,46.6l-2.2,1.3c-1.7,1-3.8,1-5.5,0l-15.6-9c-1.6-1-2.7-2.8-2.7-4.8v-18c0-2,1-3.8,2.7-4.7L22.3,2.4c1.7-1,3.8-1,5.5,0l15.6,9c1.7,1,2.7,2.8,2.7,4.7v18c0,2-1,3.8-2.7,4.7l-2.5,1.4"/>
        <path class="cls-3" d="M25.5,28.6l-1.7-2.3c-.6-.9-1.7-1.4-2.8-1.4h-8.2c-.9,0-1.7.5-2.1,1.2l-3,4.9c-1,1.6.2,3.7,2.1,3.7h7.8c.9,0,1.7-.8,1.7-1.7s-.8-1.7-1.7-1.7h-4.5M22.7,30.7v3.8M17.7,34.6h23.1"/>
        <path class="cls-2" d="M23.6,34.6l3.2-8.6c.1-.2.3-.4.5-.4h12.7c.4,0,.7.4.5.8l-3,8.2"/>
        <circle class="cls-3" cx="17.4" cy="19.3" r="3.7"/>
        <path class="cls-4" d="M30,28.8l-2,1.5,2,1.5M34.4,31.8l2-1.5-2-1.5M32.9,28.3l-1.6,4"/>
      </g>
    </g>
  </g>
</svg>
