<?xml version="1.0" encoding="UTF-8"?>
<svg id="Camada_1" data-name="Camada 1" xmlns="http://www.w3.org/2000/svg" version="1.1" viewBox="0 0 50 50">
  <defs>
    <style>
      .cls-1 {
        stroke-width: .5px;
      }

      .cls-1, .cls-2, .cls-3 {
        fill: none;
        stroke: #444;
        stroke-linecap: round;
        stroke-linejoin: round;
      }

      .cls-3 {
        stroke-width: 2.5px;
      }

      .cls-4 {
        fill: #c3ff68;
        stroke-width: 0px;
      }
    </style>
  </defs>
  <path class="cls-4" d="M48.3,7.2l.2-2.6c.2-1.9-29.9-.8-31.8-.8l-1.1,7.9c-1.8,0-13.2.1-13.2,1.9v4.2c0,0,0,2.9,0,2.9v6.4c0,0,0,0,0,0v3.6l-.3,12.3c0,1.9,1.5,3.4,3.3,3.4l18-.2c.4,0,.8,0,1.1-.2l16-5.9v-6.4c1.3-.5,7-.2,7-1.6l.5-9.4v-9.2c0,0,.6-.1.6-.1l-.5-5.4c0-.2,0-.4,0-.6Z"/>
  <g>
    <path class="cls-2" d="M16.6,27.9V7.2c0-1.2,1.2-2.2,2.4-2.2h26.1c1.2,0,2.2,1,2.2,2.2v23.3c0,1.2-1,2.2-2.2,2.2h-23.6"/>
    <line class="cls-2" x1="16.8" y1="10.7" x2="47.3" y2="10.7"/>
    <line class="cls-1" x1="19.7" y1="7.9" x2="21.6" y2="7.9"/>
    <line class="cls-1" x1="23.5" y1="7.9" x2="25.4" y2="7.9"/>
    <line class="cls-1" x1="27.3" y1="7.9" x2="29.2" y2="7.9"/>
    <line class="cls-2" x1="3.5" y1="18.4" x2="14.9" y2="18.4"/>
    <line class="cls-2" x1="12.1" y1="37.4" x2="27.3" y2="22.2"/>
    <polyline class="cls-2" points="12.1 31.7 12.1 37.4 17.8 37.4"/>
    <polyline class="cls-2" points="27.3 27.9 27.3 22.2 21.6 22.2"/>
    <line class="cls-1" x1="6.3" y1="15.5" x2="8.2" y2="15.5"/>
    <line class="cls-1" x1="10.1" y1="15.5" x2="12.1" y2="15.5"/>
  </g>
  <path class="cls-3" d="M33.9,46.1H5.9c-2.2,0-4-1.8-4-4V15.5c0-2.2,1.8-3.8,4-3.8h9.7v-2.3s0-1.7,0-1.7c0-2.2,1.8-4,4-4h24.9c2.2,0,4,1.8,4,4v21.9c0,2.2-1.8,4-4,4h-3.7v1s0,5.4,0,5.4"/>
</svg>