<svg xmlns="http://www.w3.org/2000/svg" viewBox="0 0 50 50"><defs><style>.cls-1,.cls-4{fill:none;}.cls-1{stroke:#494949;stroke-miterlimit:10;stroke-width:3.11px;}.cls-2{fill:#e56060;}.cls-3{fill:#ff6b6b;}.cls-4{stroke:#444;stroke-linecap:round;stroke-linejoin:round;stroke-width:2.5px;}.cls-5{fill:#494949;}</style></defs><g id="Layer_1" data-name="Layer 1"><rect class="cls-1" x="-50.54" y="-96.7" width="425.11" height="443.81"/><polygon class="cls-2" points="48 22.24 48 28.34 2.3 42.74 1.9 30.34 1.9 26.44 48.1 9.64 48 22.24"/><polygon class="cls-3" points="47.8 6.94 47.3 10.14 1.6 26.74 1.7 20.34 1.7 16.34 48.4 1.44 47.8 6.94"/><polyline class="cls-4" points="22.8 47.84 2 47.84 2 2.04 48 2.04 48 47.84"/><path class="cls-5" d="M11.7,38.74a.5.5,0,0,0,1,0A.5.5,0,0,0,11.7,38.74Z"/><path class="cls-5" d="M37.3,15.94a.5.5,0,0,0,1,0C38.2,15.24,37.3,15.24,37.3,15.94Z"/><path class="cls-5" d="M13.8,34.64v-19a.45.45,0,1,1,.9,0v19C14.6,35.24,13.8,35.24,13.8,34.64Z"/><path class="cls-5" d="M35.2,34.64v-19a.45.45,0,0,1,.9,0v19A.45.45,0,0,1,35.2,34.64Z"/><path class="cls-5" d="M37.2,13.84a3,3,0,0,0-3-3H21.9a.45.45,0,0,1,0-.9H34.2a3.8,3.8,0,0,1,3.8,3.8A.41.41,0,1,1,37.2,13.84Z"/><path class="cls-5" d="M35.5,16H14.2a.43.43,0,0,1-.4-.4v-1.7A1.9,1.9,0,0,1,15.7,12H34.2a1.9,1.9,0,0,1,1.9,1.9v1.7A.68.68,0,0,1,35.5,16Zm-20.9-.9H35.1v-1.3a1,1,0,0,0-1-1H15.6a1,1,0,0,0-1,1Z"/><path class="cls-5" d="M9.4,35V19.14a1.58,1.58,0,0,1,1.6-1.6h2.8a.45.45,0,0,1,0,.9H11a.68.68,0,0,0-.7.7v15.8C10.2,35.54,9.4,35.54,9.4,35Z"/><path class="cls-5" d="M39.5,35V19.14a.68.68,0,0,0-.7-.7H36a.45.45,0,0,1,0-.9h2.8a1.58,1.58,0,0,1,1.6,1.6v15.8C40.4,35.54,39.5,35.54,39.5,35Z"/><path class="cls-5" d="M11.2,34.74V19.94a.58.58,0,0,1,.6-.6h2a.45.45,0,0,1,0,.9H12.1v14.4C12.1,35.24,11.2,35.24,11.2,34.74Z"/><path class="cls-5" d="M37.7,34.44V20.24H36a.45.45,0,0,1,0-.9h2a.58.58,0,0,1,.6.6v14.5A.45.45,0,0,1,37.7,34.44Zm.3-14.2Z"/><path class="cls-5" d="M39.3,37.24H10.5a2,2,0,0,1-2-2.3.43.43,0,0,1,.4-.4H23.4c.4,0,.3.5.8.5,1.5,0,1.7.1,1.9-.2s-.7-.2,14.8-.2a.43.43,0,0,1,.4.4A2,2,0,0,1,39.3,37.24Zm-30-1.8a1.29,1.29,0,0,0,1.2,1H39.3a1.19,1.19,0,0,0,1.2-1H26.7c-.5.6-1,.5-2.5.5a1.23,1.23,0,0,1-1-.5Z"/><path class="cls-5" d="M42.3,37.24H38.6a.4.4,0,1,1,0-.8h3.7a.4.4,0,0,1,0,.8Z"/><path class="cls-5" d="M11.4,37.24H7.7a.4.4,0,1,1,0-.8h3.7a.43.43,0,0,1,.4.4C11.9,37,11.7,37.24,11.4,37.24Z"/><path class="cls-5" d="M37.6,39.24H14.1a.45.45,0,1,1,0-.9H37.6A.45.45,0,1,1,37.6,39.24Z"/><path class="cls-5" d="M15.9,14.14a.45.45,0,1,0,.9,0A.46.46,0,1,0,15.9,14.14Z"/><path class="cls-5" d="M17.5,14.14a.45.45,0,1,0,.9,0C18.5,13.44,17.5,13.44,17.5,14.14Z"/><path class="cls-5" d="M19.2,14.14a.45.45,0,0,0,.9,0C20.2,13.44,19.2,13.44,19.2,14.14Z"/><path class="cls-5" d="M25.3,29.24h2.2c2.3,0,3.1-9,3.1-9v-.1H29.5c-1.9,0-2.7,5.9-2.8,7.1h0c-.1-1.2-.5-7.1-2-7.1H22.5c-2.3,0-3.1,9-3.1,9v.1h1.1c2.2,0,2.8-7.3,2.8-7.3h.1S23.7,29.24,25.3,29.24Z"/></g></svg>