<?xml version="1.0" encoding="utf-8"?>
<!-- Generator: Adobe Illustrator 28.0.0, SVG Export Plug-In . SVG Version: 6.00 Build 0)  -->
<svg version="1.1" id="Layer_1" xmlns="http://www.w3.org/2000/svg" xmlns:xlink="http://www.w3.org/1999/xlink" x="0px" y="0px"
	 viewBox="0 0 50 50" style="enable-background:new 0 0 50 50;" xml:space="preserve">
<style type="text/css">
	.st0{fill:#C3FF68;}
	.st1{fill:none;stroke:#444444;stroke-linecap:round;stroke-linejoin:round;stroke-miterlimit:10;}
	.st2{fill:none;stroke:#444444;stroke-width:0.5;stroke-linecap:round;stroke-linejoin:round;stroke-miterlimit:10;}
	.st3{fill:none;stroke:#444444;stroke-width:2.5;stroke-linecap:round;stroke-linejoin:round;stroke-miterlimit:10;}
	.st4{fill:#46B8B0;}
	.st5{fill:#717182;}
	.st6{fill:#FCC34F;}
	.st7{fill:#FF6B6B;}
	.st8{fill:#FC9D9A;}
	.st9{fill:#DC5E82;}
	.st10{fill:#E589EF;}
	.st11{fill:#00DFFC;}
</style>
<path class="st0" d="M48.8,7.9L49,5.2c0.2-1.9-29.9-0.8-31.8-0.8l-1.1,7.9c-1.8,0-13.1,0.2-13.1,2v4.2v2.9v6.4h0.1v3.6L2.8,43.6
	c0,1.9,1.5,3.4,3.3,3.4l18-0.2c0.4,0,0.8-0.1,1.1-0.2l16-5.9v-6.4c1.3-0.5,7-0.2,7-1.6l0.5-9.4l0.1-9.2l0.5-0.1l-0.5-5.4
	C48.8,8.3,48.8,8.1,48.8,7.9z"/>
<g>
	<g>
		<path class="st1" d="M17.1,28.6V7.9c0-1.2,1.2-2.2,2.4-2.2h26.1c1.2,0,2.2,1,2.2,2.2v23.3c0,1.2-1,2.2-2.2,2.2H22"/>
		<line class="st1" x1="17.3" y1="11.4" x2="47.8" y2="11.4"/>
		<line class="st2" x1="20.1" y1="8.5" x2="22" y2="8.5"/>
		<line class="st2" x1="23.9" y1="8.5" x2="25.8" y2="8.5"/>
		<line class="st2" x1="27.8" y1="8.5" x2="29.7" y2="8.5"/>
		<line class="st1" x1="3.9" y1="19" x2="15.4" y2="19"/>
		<line class="st1" x1="12.5" y1="38.1" x2="27.8" y2="22.8"/>
		<polyline class="st1" points="12.5,32.4 12.5,38.1 18.2,38.1 		"/>
		<polyline class="st1" points="27.8,28.6 27.8,22.8 22,22.8 		"/>
		<line class="st2" x1="6.8" y1="16.2" x2="8.7" y2="16.2"/>
		<line class="st2" x1="10.6" y1="16.2" x2="12.5" y2="16.2"/>
	</g>
</g>
<path class="st3" d="M34.3,46.8H6.4c-2.2,0-4-1.8-4-4V16.2c0-2.2,1.8-3.8,4-3.8h9.7v-2.3V8.4c0-2.2,1.8-4,4-4H45c2.2,0,4,1.8,4,4
	v21.9c0,2.2-1.8,4-4,4h-3.7v1v5.4"/>
<path class="st4" d="M-209.7,25.7c0.6-3.7,0.2-7.7-1.4-11.4c-4.5-10.1-16.3-14.7-26.4-10.2s-14.7,16.3-10.2,26.4
	c2.3,5.1,6.4,8.8,11.2,10.6c0.5-3.2,1.9-6.4,4.1-9.1C-226.9,25-217.6,22.7-209.7,25.7z"/>
<g id="_x3C_Repetição_radial_x3E__00000179606294742386183760000004394163703885429944_">
	<circle class="st5" cx="-230.4" cy="-3" r="20"/>
</g>
<g id="_x3C_Repetição_radial_x3E__00000129927721280495386200000012555978690458171798_">
	<circle class="st5" cx="-219.4" cy="-25.9" r="20"/>
</g>
<g id="_x3C_Repetição_radial_x3E__00000137845331220492234110000011909551935752123567_">
	<circle class="st0" cx="-199.1" cy="-41" r="20"/>
</g>
<g id="_x3C_Repetição_radial_x3E__00000049914215041310617240000004475323240406556064_">
	<circle class="st5" cx="-174" cy="-45" r="20"/>
</g>
<g id="_x3C_Repetição_radial_x3E__00000170968225864378607080000013395122048141101197_">
	<circle class="st6" cx="-149.9" cy="-36.9" r="20"/>
</g>
<g id="_x3C_Repetição_radial_x3E__00000071559812243253416090000016585300853625488308_">
	<circle class="st7" cx="-132.4" cy="-18.5" r="20"/>
</g>
<g id="_x3C_Repetição_radial_x3E__00000091013237996204697760000017394083817429564334_">
	<circle class="st8" cx="-125.4" cy="5.9" r="20"/>
</g>
<g id="_x3C_Repetição_radial_x3E__00000143583405215706921350000014227819706008596405_">
	<circle class="st9" cx="-130.6" cy="30.8" r="20"/>
</g>
<g id="_x3C_Repetição_radial_x3E__00000150819520852659993600000015034050318189821119_">
	<circle class="st10" cx="-146.7" cy="50.4" r="20"/>
</g>
<g id="_x3C_Repetição_radial_x3E__00000135690003072975933250000014764704718739673262_">
	<circle class="st5" cx="-170.1" cy="60.2" r="20"/>
</g>
<g id="_x3C_Repetição_radial_x3E__00000097486467007074421490000004378631265011035278_">
	<circle class="st11" cx="-195.4" cy="58.1" r="20"/>
</g>
<path class="st5" d="M-204.4,28.8c-1.7-1.3-3.5-2.3-5.3-3c-1.1,6.4-5.3,12.2-11.7,15c-5,2.2-10.5,2.2-15.2,0.4
	c-1.2,7,1.4,14.3,7.3,19c8.7,6.9,21.3,5.4,28.1-3.2C-194.3,48.3-195.7,35.7-204.4,28.8z"/>
<path class="st4" d="M-221.4,40.7c6.4-2.8,10.6-8.6,11.7-15c-7.9-3-17.2-0.7-22.8,6.3c-2.2,2.8-3.5,5.9-4.1,9.1
	C-231.8,42.9-226.4,43-221.4,40.7z"/>
</svg>
