<?xml version="1.0" encoding="utf-8"?>
<!-- Generator: Adobe Illustrator 28.2.0, SVG Export Plug-In . SVG Version: 6.00 Build 0)  -->
<svg version="1.1" id="Layer_1" xmlns="http://www.w3.org/2000/svg" xmlns:xlink="http://www.w3.org/1999/xlink" x="0px" y="0px"
	 viewBox="0 0 50 50" style="enable-background:new 0 0 50 50;" xml:space="preserve">
<style type="text/css">
	.st0{fill:#319327;}
	.st1{fill:#5ABA52;}
	.st2{fill:none;stroke:#444444;stroke-linecap:round;stroke-linejoin:round;stroke-miterlimit:10;}
	.st3{fill:none;stroke:#444444;stroke-width:0.5;stroke-linecap:round;stroke-linejoin:round;stroke-miterlimit:10;}
	.st4{fill:none;stroke:#444444;stroke-width:2.5;stroke-linecap:round;stroke-linejoin:round;stroke-miterlimit:10;}
</style>
<polygon class="st0" points="31.2,24.9 39,27.3 32.3,32 32.4,40.3 25.8,35.3 18.1,38 20.7,30.2 15.8,23.6 24,23.7 28.7,17 "/>
<g>
	<path class="st1" d="M48.8,7.9L49,5.2c0.2-1.9-29.9-0.8-31.8-0.8l-1.1,7.9C14.3,12.3,3,12.5,3,14.3L3,18.5v2.9L3,27.8l0.1,0v3.6
		L2.8,43.6c0,1.9,1.5,3.4,3.3,3.4l18-0.2c0.4,0,0.8-0.1,1.1-0.2l16-5.9l0-6.4c1.3-0.5,7-0.2,7-1.6l0.5-9.4l0.1-9.2l0.5-0.1l-0.5-5.4
		C48.8,8.3,48.8,8.1,48.8,7.9z"/>
	<g>
		<g>
			<path class="st2" d="M17.1,28.6V7.9c0-1.2,1.2-2.2,2.4-2.2h26.1c1.2,0,2.2,1,2.2,2.2v23.3c0,1.2-1,2.2-2.2,2.2H22"/>
			<line class="st2" x1="17.3" y1="11.4" x2="47.8" y2="11.4"/>
			<line class="st3" x1="20.1" y1="8.5" x2="22" y2="8.5"/>
			<line class="st3" x1="23.9" y1="8.5" x2="25.8" y2="8.5"/>
			<line class="st3" x1="27.8" y1="8.5" x2="29.7" y2="8.5"/>
			<line class="st2" x1="3.9" y1="19" x2="15.4" y2="19"/>
			<line class="st2" x1="12.5" y1="38.1" x2="27.8" y2="22.8"/>
			<polyline class="st2" points="12.5,32.4 12.5,38.1 18.2,38.1 			"/>
			<polyline class="st2" points="27.8,28.6 27.8,22.8 22,22.8 			"/>
			<line class="st3" x1="6.8" y1="16.2" x2="8.7" y2="16.2"/>
			<line class="st3" x1="10.6" y1="16.2" x2="12.5" y2="16.2"/>
		</g>
	</g>
	<path class="st4" d="M34.3,46.8H6.4c-2.2,0-4-1.8-4-4V16.2c0-2.2,1.8-3.8,4-3.8h9.7l0-2.3V8.4c0-2.2,1.8-4,4-4l24.9,0
		c2.2,0,4,1.8,4,4v21.9c0,2.2-1.8,4-4,4h-3.7l0,1v5.4"/>
</g>
</svg>
