<svg xmlns="http://www.w3.org/2000/svg" id="Camada_1" data-name="Camada 1" version="1.1" viewBox="0 0 50 50"><defs><style>.cls-1{stroke:#444;stroke-linecap:round;stroke-linejoin:round;fill:none;stroke-width:.5px}.cls-5{fill:#444;stroke-width:0}</style></defs><path fill="#c3ff68" stroke-width="0" d="M5.3 29.9l-3.7 7.8c0 5 5.4 3.7 19.7 3.2L46.5 32l-.2-21.8-1.1-2c-.2-.9-1.5-1.4-2.5-1.4L7.8 7c-1.1 0-3 2.4-3 3.5v11.9"/><path fill="none" stroke="#444" stroke-linecap="round" stroke-linejoin="round" stroke-width="2.5" d="M48.6 36.1l-2.5-5.6V11.3c0-2.1-1.7-3.8-3.8-3.8H8.7c-2.1 0-3.8 1.7-3.8 3.8v19.2l-3.3 7c-.8 1.8.4 3.8 2.4 3.8h34.8"/><path d="M7.4 32.5h36m-16.1 6h-3.8" class="cls-1"/><path fill="none" stroke="#444" stroke-linecap="round" stroke-linejoin="round" d="M4.8 30.4H46"/><path fill="#444" stroke="#444" stroke-linecap="round" stroke-linejoin="round" stroke-width=".5" d="M44.6 36.6H6.2l1.1-2.2h36.1l1.2 2.2z"/><path d="M6 12.5h39.3" class="cls-1"/><circle cx="13.3" cy="10.8" r=".7" class="cls-5"/><circle cx="10.8" cy="10.8" r=".7" class="cls-5"/><circle cx="8.3" cy="10.8" r=".7" class="cls-5"/><g><path d="M16.9 21c.9 0 1-.5 1-.9v-2c0-1.1.7-1.6 1.7-1.6h.3v.7h-.2c-.7 0-.9.4-.9 1V20c0 .8-.3 1.2-.9 1.3.5.2.9.6.9 1.3v1.8c0 .7.3 1 .9 1h.2v.7h-.3c-1 0-1.7-.4-1.7-1.6v-2c0-.4-.1-.9-1-.9V21zm16.3.6c-.9 0-1 .5-1 .9v2c0 1.2-.8 1.6-1.7 1.6h-.3v-.7h.2c.7 0 1-.4 1-1v-1.8c0-.8.3-1.2.9-1.3-.5-.2-.9-.6-.9-1.3v-1.8c0-.6-.3-1-.9-1h-.2v-.7h.2c1 0 1.8.5 1.8 1.6v2c0 .3.1.9 1 .9v.6z" class="cls-5"/></g></svg>