<?xml version="1.0" encoding="utf-8"?>
<!-- Generator: Adobe Illustrator 22.1.0, SVG Export Plug-In . SVG Version: 6.00 Build 0)  -->
<svg version="1.1" id="Layer_1" xmlns="http://www.w3.org/2000/svg" xmlns:xlink="http://www.w3.org/1999/xlink" x="0px" y="0px"
	 viewBox="0 0 50 50" style="enable-background:new 0 0 50 50;" xml:space="preserve">
<style type="text/css">
	.st0{fill:#DC5E82;}
	.st1{fill:#F56991;}
	.st2{fill:#444444;}
</style>
<g>
	<g>
		<path class="st0" d="M44.8,10.7l-1.2,15.6l-35.7,13c-0.5-1.1-0.7-2.5-0.8-4.3L5.2,10.7C5.1,8.3,6.3,6.8,9.6,6l12.8-3.6
			C23.4,2.2,24.2,2,25,2c0.8,0,1.6,0.2,2.6,0.4L40.4,6C43.7,6.8,44.9,8.3,44.8,10.7z"/>
		<path class="st1" d="M36.7,5L5.6,16.3l-0.4-5.6C5.1,8.3,6.3,6.8,9.6,6l12.8-3.6C23.4,2.2,24.2,2,25,2c0.8,0,1.6,0.2,2.6,0.4
			C27.6,2.5,36.7,5,36.7,5z"/>
		<path class="st2" d="M40.7,4.8L27.9,1.3c-1.1-0.3-2-0.5-2.9-0.5c-0.9,0-1.8,0.2-2.9,0.5L9.3,4.8c-3.7,0.9-5.5,2.9-5.4,6L5.8,35
			c0.4,5.7,2.3,7.5,6.2,9.4l10.8,4.4c0.7,0.2,1.5,0.4,2.2,0.4c0.7,0,1.5-0.1,2.2-0.4l6.4-2.6c0.6-0.3,0.9-1,0.7-1.6
			c-0.3-0.6-1-0.9-1.6-0.7c0,0,0,0,0,0l-6.3,2.6c-0.9,0.3-1.8,0.3-2.7,0L13,42.2c-3.1-1.5-4.4-2.6-4.7-7.3L6.4,10.7
			C6.4,9.4,6.6,8,10,7.2l12.8-3.6c0.9-0.3,1.6-0.4,2.2-0.4c0.7,0,1.3,0.1,2.2,0.4l12.9,3.6c3.3,0.8,3.5,2.1,3.5,3.4l-1.2,15.6
			c0,0.7,0.5,1.3,1.2,1.3c0.7,0,1.3-0.5,1.3-1.1l1.2-15.6C46.2,7.6,44.4,5.7,40.7,4.8z"/>
	</g>
	<path class="st2" d="M36.3,29.4c0-0.3,0.2-0.5,0.5-0.5h1.8c-0.2-3.4-1.6-6.4-3.9-8.6l-0.7,1c-0.1,0.1-0.3,0.2-0.4,0.2
		c-0.1,0-0.2,0-0.3-0.1c-0.2-0.2-0.3-0.5-0.1-0.7l0.8-1.1c-2.1-1.8-4.9-2.9-7.9-3v1c0,0.3-0.2,0.5-0.5,0.5s-0.5-0.2-0.5-0.5v-1
		c-3.2,0.1-6,1.4-8.2,3.4l0.6,0.8c0.2,0.2,0.1,0.5-0.1,0.7c-0.1,0.1-0.2,0.1-0.3,0.1c-0.2,0-0.3-0.1-0.4-0.2l-0.5-0.7
		c-2.1,2.2-3.4,5.1-3.6,8.3h1.6c0.3,0,0.5,0.2,0.5,0.5s-0.2,0.5-0.5,0.5h-1.5c0.2,0.5,0.6,0.9,1.2,0.9h23.6c0.6,0,1-0.4,1.2-0.9
		h-1.8C36.5,29.9,36.3,29.7,36.3,29.4z M15.1,28.4c0.6-5.2,5.1-9.3,10.5-9.3s9.8,4.1,10.5,9.3H15.1z"/>
</g>
</svg>
