<svg xmlns="http://www.w3.org/2000/svg" id="Camada_1" data-name="Camada 1" version="1.1" viewBox="0 0 50 50"><defs><style>.cls-1{stroke-width:.5px}.cls-1,.cls-2{fill:none;stroke:#444;stroke-linecap:round;stroke-linejoin:round}</style></defs><path fill="#c3ff68" stroke-width="0" d="M48.3 7.2l.2-2.6c.2-1.9-29.9-.8-31.8-.8l-1.1 7.9c-1.8 0-13.2.1-13.2 1.9v17.1L2.1 43c0 1.9 1.5 3.4 3.3 3.4l18-.2c.4 0 .8 0 1.1-.2l16-5.9v-6.4c1.3-.5 7-.2 7-1.6l.5-9.4v-9.2l.6-.1-.5-5.4v-.6z"/><path d="M16.6 27.9V7.2C16.6 6 17.8 5 19 5h26.1c1.2 0 2.2 1 2.2 2.2v23.3c0 1.2-1 2.2-2.2 2.2H21.5m-4.7-22h30.5" class="cls-2"/><path d="M19.7 7.9h1.9m1.9 0h1.9m1.9 0h1.9" class="cls-1"/><path d="M3.5 18.4h11.4m-2.8 19l15.2-15.2m-15.2 9.5v5.7h5.7m9.5-9.5v-5.7h-5.7" class="cls-2"/><path d="M6.3 15.5h1.9m1.9 0h2" class="cls-1"/><path fill="none" stroke="#444" stroke-linecap="round" stroke-linejoin="round" stroke-width="2.5" d="M33.9 46.1h-28c-2.2 0-4-1.8-4-4V15.5c0-2.2 1.8-3.8 4-3.8h9.7v-4c0-2.2 1.8-4 4-4h24.9c2.2 0 4 1.8 4 4v21.9c0 2.2-1.8 4-4 4h-3.7V40"/></svg>