<svg xmlns="http://www.w3.org/2000/svg" version="1" viewBox="0 0 50 50"><path fill="#E589EF" d="M12.195 43.445l34.474-12.547c.511-1.88.788-3.856.788-5.898C47.457 12.597 37.403 2.543 25 2.543S2.543 12.597 2.543 25c0 7.642 3.82 14.389 9.652 18.445z"/><path fill="#F799FF" d="M37.307 6.164a22.348 22.348 0 0 0-12.222-3.621c-10.117 0-18.668 6.69-21.478 15.887l33.7-12.266z"/><path fill="#444" d="M25 48.5C12.042 48.5 1.5 37.958 1.5 25S12.042 1.5 25 1.5 48.5 12.042 48.5 25c0 2.093-.275 4.169-.818 6.171a1.042 1.042 0 1 1-2.014-.546c.495-1.824.746-3.717.746-5.625 0-11.808-9.606-21.414-21.414-21.414C13.192 3.586 3.586 13.192 3.586 25S13.192 46.414 25 46.414a1.043 1.043 0 0 1 0 2.086z"/><path fill="#444" d="M25 43.124c-9.993 0-18.124-8.131-18.124-18.124S15.007 6.876 25 6.876c9.994 0 18.124 8.131 18.124 18.124 0 9.994-8.13 18.124-18.124 18.124zm0-34.997C15.696 8.127 8.127 15.696 8.127 25S15.696 41.873 25 41.873 41.873 34.304 41.873 25 34.304 8.127 25 8.127z"/><g fill="#444"><path d="M28.178 16.053c3.655 1.327 6.312 4.744 6.515 8.803h1.598a.25.25 0 0 1 .177.428l-3.093 3.093a.251.251 0 0 1-.355 0l-3.093-3.093a.25.25 0 0 1 .177-.428h1.521a6.854 6.854 0 0 0-4.473-5.926l1.95-1.952-.924-.925z"/><path d="M31.247 27.328a6.85 6.85 0 0 1-5.926 4.471v-1.521a.25.25 0 0 0-.428-.177l-3.095 3.093a.251.251 0 0 0 0 .355l3.093 3.093a.25.25 0 0 0 .428-.177v-1.596c4.059-.202 7.475-2.86 8.801-6.515l-.925.925-1.948-1.951z"/><path d="M22.848 31.423a6.85 6.85 0 0 1-4.471-5.926h1.52a.25.25 0 0 0 .177-.428l-3.094-3.093a.251.251 0 0 0-.355 0l-3.093 3.093a.25.25 0 0 0 .177.428h1.596c.203 4.059 2.862 7.475 6.515 8.801l-.924-.924 1.95-1.95v-.001z"/><path d="M18.753 22.672a6.846 6.846 0 0 1 5.926-4.471v1.521c0 .224.27.336.428.177l3.093-3.093a.251.251 0 0 0 0-.355l-3.093-3.093a.25.25 0 0 0-.428.177v1.596c-4.059.203-7.475 2.862-8.801 6.515l.925-.924 1.95 1.95z"/></g></svg>