<svg xmlns="http://www.w3.org/2000/svg" version="1" viewBox="0 0 50 50"><path fill="#E56060" d="M13.366 8.777h2.467a2.468 2.468 0 0 0-2.468 2.468v24.6l14.58-5.306V11.244a2.468 2.468 0 0 0-2.467-2.468h2.468l2.912-2.055c.1-.07.158-.184.158-.306v-4.75a.374.374 0 0 0-.374-.375H10.66a.364.364 0 0 0-.366.366V6.42c0 .118.058.23.155.298l2.916 2.06z"/><path fill="#FF6B6B" d="M13.366 8.777h2.467a2.45 2.45 0 0 0-1.65.645l16.834-6.128v-1.63a.374.374 0 0 0-.374-.373H10.66a.364.364 0 0 0-.366.366V6.42c0 .118.058.23.155.298l2.916 2.06z"/><path fill="#444" d="M40.553 30.422c-2.62-2.62-4.974-.79-6.694.542-1.984 1.538-3.23 2.346-5.03.73v-20.45a3.32 3.32 0 0 0-.36-1.483l3.026-2.134c.393-.277.628-.73.628-1.21v-4.75c0-.818-.664-1.482-1.48-1.482H10.658c-.813 0-1.473.66-1.473 1.472V6.42c0 .477.233.927.624 1.203l3.03 2.137a3.31 3.31 0 0 0-.36 1.484v27.51c0 .536.137 1.035.36 1.484l-3.026 2.135c-.393.277-.628.73-.628 1.21v4.752c0 .816.664 1.48 1.48 1.48H30.65c.812 0 1.472-.66 1.472-1.47v-2.57a1.107 1.107 0 0 0-2.214 0v1.827h-18.51v-3.638l2.315-1.634h7.878l1.137.002a.885.885 0 0 0 .626-1.51l-9.106-9.116V25.3l13.068 13.057a.88.88 0 0 0 1.252 0 .874.874 0 0 0 .262-.582v-3.917c.657.354 1.287.506 1.886.506 1.647 0 3.07-1.102 4.228-2 1.918-1.49 2.905-2.143 4.356-.69a.885.885 0 0 0 1.252 0 .88.88 0 0 0 .003-1.252zM14.25 11.244c0-.582.32-1.086.79-1.36h1.106L27.06 20.796v6.26l-12.81-12.8v-3.013zm12.81 0v7.05l-8.41-8.41h7.622c.47.274.79.778.79 1.36zM11.4 2.398h18.51v3.638L27.596 7.67H13.717L11.4 6.036V2.398zm8.757 37.72H15.04a1.58 1.58 0 0 1-.79-1.362V34.21l5.907 5.907zM14.25 16.76l12.81 12.8v6.036l-12.81-12.8V16.76z"/></svg>