<?xml version="1.0" encoding="utf-8"?>
<!-- Generator: Adobe Illustrator 26.5.0, SVG Export Plug-In . SVG Version: 6.00 Build 0)  -->
<svg version="1.1" id="Camada_3" xmlns="http://www.w3.org/2000/svg" xmlns:xlink="http://www.w3.org/1999/xlink" x="0px" y="0px"
	 viewBox="0 0 50 50" style="enable-background:new 0 0 50 50;" xml:space="preserve">
<style type="text/css">
	.st0{fill:#E589EF;}
	.st1{fill:none;stroke:#444444;stroke-width:0.25;stroke-linecap:round;stroke-miterlimit:10;}
	.st2{fill:#FCC34F;}
	.st3{fill:#FDCF72;}
	.st4{fill:none;stroke:#444444;stroke-width:2.5;stroke-linecap:round;stroke-linejoin:round;stroke-miterlimit:10;}
	.st5{fill:#444444;}
</style>
<g>
	<g>
		<path class="st0" d="M-54.97,36.08"/>
		<path class="st0" d="M-50.43,38.91"/>
	</g>
	<g>
		<path class="st1" d="M-35.62,20.47"/>
	</g>
</g>
<g>
	<g>
		<g>
			<polygon class="st2" points="48.42,22.93 48.16,26.13 2.1,42.89 2.56,34 2.52,27.76 47.09,11.61 47.96,15.48 			"/>
			<polygon class="st3" points="46.24,8.4 48.49,11.64 1.64,28.37 2.75,11.2 5.73,8.31 34.78,8.14 			"/>
			<g>
				<path class="st4" d="M25.03,43.72H5.56c-1.87,0-3.39-1.58-3.39-3.54V12.27c0-1.95,1.52-3.54,3.39-3.54h39.01
					c1.87,0,3.39,1.58,3.39,3.54v25.89"/>
				<path class="st4" d="M2.17,22.27"/>
				<path class="st4" d="M47.95,22.27"/>
			</g>
		</g>
	</g>
	<g>
		<path class="st5" d="M38.84,35.78v-4.6c0-2.47-0.92-5.03-4.68-5.03c-1.55,0-3.03,0.43-4.04,1.09l0.51,1.47
			c0.86-0.56,2.06-0.93,3.2-0.92c3.08,0.04,2.8,3.1,2.8,3.1c-4.75-0.03-7.4,1.6-7.4,4.58c0,1.78,1.27,3.25,3.76,3.25
			c2.96,0,3.84-1.54,3.84-1.54l0.18,1.55h2.03C38.89,37.89,38.84,36.85,38.84,35.78z M36.68,34.59c0,0.82-1.48,2.31-3.08,2.31
			c-1.14,0-2.13-0.22-2.13-1.67c0-2.39,2.77-2.54,5.21-2.49V34.59z"/>
		<g>
			<g>
				<path class="st5" d="M28.33,37.59c-0.7,0-1.23-0.16-1.61-0.48c-0.32-0.35-0.59-0.75-0.8-1.22c-0.22-0.46-7.67-18.42-7.67-18.42
					h-1.41L8.45,36.03C8.28,36.41,8.13,36.68,8,36.86c-0.13,0.17-0.28,0.3-0.43,0.39c-0.16,0.09-0.36,0.15-0.61,0.17
					c-0.25,0.03-0.59,0.09-1.02,0.17H5.85v1.13h0.09c0,0,4.27,0,6.24,0v-1.24c-0.23-0.03-0.46-0.06-0.68-0.09
					c-0.54-0.07-0.82-0.31-0.85-0.72c0-0.12,1.96-4.63,2.04-4.87h8.3l1.78,4.3c0.12,0.23,0.16,0.45,0.13,0.65
					c-0.03,0.2-0.13,0.35-0.3,0.43c-0.32,0.15-0.66,0.25-1.02,0.3c-0.22,0.04-0.45,0.06-0.69,0.07v1.14c1.67,0,6.86,0,7.44,0h0.09
					l0.04-1.13H28.33z M13.3,30.34l3.61-8.47l3.52,8.47H13.3z"/>
			</g>
			<g>
				<g>
					<g>
						<path class="st5" d="M44.35,17.48h-3.23c-0.23,0-0.42-0.19-0.42-0.42s0.19-0.42,0.42-0.42h3.23c0.23,0,0.42,0.19,0.42,0.42
							S44.58,17.48,44.35,17.48z"/>
					</g>
					<g>
						<path class="st5" d="M44.35,38.68h-3.23c-0.23,0-0.42-0.19-0.42-0.42c0-0.23,0.19-0.42,0.42-0.42h3.23
							c0.23,0,0.42,0.19,0.42,0.42C44.76,38.5,44.58,38.68,44.35,38.68z"/>
					</g>
				</g>
				<g>
					<path class="st5" d="M42.73,38.68c-0.23,0-0.42-0.19-0.42-0.42V17.14c0-0.23,0.19-0.42,0.42-0.42s0.42,0.19,0.42,0.42v21.13
						C43.15,38.5,42.96,38.68,42.73,38.68z"/>
				</g>
			</g>
			<g>
				<g>
					<g>
						<path class="st5" d="M6.21,16.76c-0.23,0-0.42-0.19-0.42-0.42v-3.23c0-0.23,0.19-0.42,0.42-0.42s0.42,0.19,0.42,0.42v3.23
							C6.63,16.58,6.44,16.76,6.21,16.76z"/>
					</g>
					<g>
						<path class="st5" d="M39.72,16.76c-0.23,0-0.42-0.19-0.42-0.42v-3.23c0-0.23,0.19-0.42,0.42-0.42c0.23,0,0.42,0.19,0.42,0.42
							v3.23C40.14,16.58,39.95,16.76,39.72,16.76z"/>
					</g>
				</g>
				<g>
					<path class="st5" d="M39.72,15.15H6.3c-0.23,0-0.42-0.19-0.42-0.42c0-0.23,0.19-0.42,0.42-0.42h33.43
						c0.23,0,0.42,0.19,0.42,0.42C40.14,14.96,39.95,15.15,39.72,15.15z"/>
				</g>
			</g>
		</g>
	</g>
</g>
</svg>
