<svg version="1" xmlns="http://www.w3.org/2000/svg" viewBox="0 0 50 50"><path fill="#E589EF" d="M4.818 45.536l42.145-15.339V8.454a5.417 5.417 0 0 0-5.417-5.417H8.454a5.417 5.417 0 0 0-5.417 5.417v33.091c0 1.587.694 3 1.781 3.991z"/><path fill="#F799FF" d="M45.18 4.463a5.378 5.378 0 0 0-3.635-1.425H8.454a5.417 5.417 0 0 0-5.417 5.417v11.347L45.18 4.463z"/><path fill="#444" d="M25.001 48.137H8.454a6.599 6.599 0 0 1-6.591-6.591V8.455a6.599 6.599 0 0 1 6.591-6.592h33.091a6.599 6.599 0 0 1 6.591 6.592v21.739a1.175 1.175 0 1 1-2.35 0V8.455a4.247 4.247 0 0 0-4.242-4.242H8.454a4.247 4.247 0 0 0-4.242 4.242v33.091a4.247 4.247 0 0 0 4.242 4.242h16.547a1.175 1.175 0 1 1 0 2.349z"/><path fill="#444" d="M27.815 38.813h-5.631a.113.113 0 0 1-.113-.113V16.062h-7.388a.113.113 0 0 1-.113-.113V11.3c0-.063.051-.113.113-.113h20.634c.063 0 .113.051.113.113v4.648a.113.113 0 0 1-.113.113h-7.388v22.637a.114.114 0 0 1-.114.115z"/></svg>