<?xml version="1.0" encoding="UTF-8"?>
<svg xmlns="http://www.w3.org/2000/svg" viewBox="0 0 300 300">
  <defs>
    <style>
      .cls-1 {
        fill: #61a9f2;
        opacity: .3;
      }

      .cls-2 {
        fill: #dd437a;
      }

      .cls-3 {
        fill: #bababa;
      }

      .cls-4, .cls-5, .cls-6 {
        fill: #fff;
      }

      .cls-7 {
        fill: #ffdcdf;
      }

      .cls-5, .cls-6, .cls-8 {
        opacity: .5;
      }

      .cls-9 {
        fill: #8045a3;
      }

      .cls-10 {
        fill: #005cff;
      }

      .cls-11 {
        fill: #008dd3;
      }

      .cls-12 {
        isolation: isolate;
      }

      .cls-13 {
        fill: #c75eeb;
      }

      .cls-14 {
        fill: #003075;
      }

      .cls-15 {
        fill: #aa3565;
      }

      .cls-6, .cls-8 {
        mix-blend-mode: soft-light;
      }

      .cls-16 {
        fill: #f4f4f4;
      }

      .cls-17 {
        fill: #ffda00;
        fill-rule: evenodd;
      }
    </style>
  </defs>
  <g class="cls-12">
    <g id="Camada_1" data-name="Camada 1">
      <g id="Camada_10" data-name="Camada 10">
        <path class="cls-11" d="M272.3,149.45c.1,19.8-4.1,38.6-11.6,55.7-21.1,47.6-68.6,80.8-124,81-14.7.1-28.9-2.3-42.2-6.5-25-8-46.8-23-63.1-42.8C14.4,216.45,3.3,190.85.6,162.85.2,158.85,0,154.65,0,150.55-.2,104.35,22.7,63.35,57.9,38.65c4.6-3.3,9.4-6.2,14.4-8.8,7-3.8,14.4-6.8,22-9.4,7.2-2.3,14.7-4,22.4-5.2,6.2-.8,12.5-1.3,18.9-1.4,25-.1,48.5,6.6,68.8,18.3,3.7,2.1,7.1,4.3,10.5,6.8,16.2,11.5,29.8,26.5,39.7,43.9,1.1,2,2.2,3.9,3.2,6,.8,1.8,1.7,3.5,2.5,5.3,2.6,5.8,4.8,11.7,6.6,17.8,2,6.8,3.5,13.9,4.3,21h0c.7,5.4,1.1,10.9,1.1,16.5Z"/>
      </g>
      <g>
        <g>
          <path class="cls-17" d="M109.89,4.17l1.9,14.58c.05.41-.06.82-.31,1.14-.25.33-.62.54-1.03.59l-3.21.41c-.41.05-.82-.06-1.14-.31-.3-.24-.51-.58-.58-.96,0-.02,0-.05,0-.07l-1.86-14.71c-.05-.42.07-.84.33-1.17.27-.33.65-.53,1.07-.57l3.17-.27c.8-.07,1.52.49,1.66,1.28,0,.02,0,.04,0,.06Z"/>
          <path class="cls-17" d="M102.3,22.2c.02.09.02.17.02.26,0,.41-.16.81-.45,1.1l-2.29,2.29c-.29.29-.68.45-1.1.45-.41,0-.81-.16-1.1-.46l-10.46-10.51c-.23-.23-.38-.52-.43-.83-.02-.1-.02-.2-.02-.3,0-.42.19-.82.5-1.1l2.34-2.15c.61-.56,1.55-.54,2.14.04l10.41,10.37c.23.23.38.52.43.83Z"/>
          <path class="cls-17" d="M95.12,28.8c.03.17.03.34,0,.51l-.53,3.2c-.07.41-.29.77-.63,1.01-.33.24-.75.34-1.15.27l-14.63-2.44c-.41-.07-.78-.3-1.02-.65-.13-.19-.21-.39-.25-.61-.03-.19-.03-.39.01-.58l.65-3.11c.17-.81.95-1.35,1.76-1.21l14.51,2.36c.41.07.77.29,1.01.62.14.19.23.41.27.64Z"/>
        </g>
        <g>
          <path class="cls-17" d="M267.37,216.54l-2.11-14.55c-.06-.41.05-.82.29-1.15.25-.33.61-.55,1.02-.61l3.21-.46c.41-.06.82.05,1.15.29.31.23.52.57.59.95,0,.02,0,.05.01.07l2.07,14.69c.06.42-.06.84-.32,1.17-.26.33-.64.54-1.06.58l-3.16.32c-.8.08-1.53-.47-1.68-1.25,0-.02,0-.04-.01-.06Z"/>
          <path class="cls-17" d="M274.7,198.4c-.02-.09-.03-.17-.03-.26,0-.41.15-.81.44-1.1l2.26-2.32c.29-.29.68-.46,1.09-.47.41,0,.81.15,1.1.44l10.61,10.36c.23.22.38.51.44.82.02.1.03.2.03.3,0,.42-.18.82-.48,1.11l-2.31,2.19c-.6.57-1.55.56-2.14-.01l-10.56-10.22c-.23-.22-.39-.51-.44-.83Z"/>
          <path class="cls-17" d="M281.79,191.7c-.03-.17-.04-.34,0-.51l.48-3.2c.06-.41.28-.77.61-1.02.33-.25.75-.35,1.15-.28l14.66,2.23c.42.06.79.29,1.03.64.13.18.22.39.26.61.04.19.04.39,0,.58l-.6,3.12c-.16.81-.93,1.36-1.75,1.24l-14.54-2.15c-.41-.06-.77-.28-1.02-.61-.14-.19-.23-.41-.28-.64Z"/>
        </g>
        <g>
          <path class="cls-14" d="M212.13,47.81c-7.96-5.62-17.14-8.07-26.8-7.17.05-.53.14-1.03.26-1.51.75-2.89,2.82-5.01,4.92-6.34.83-.52,1.66-.92,2.42-1.2,7.22-2.66,12.83-.91,16.99,4.54.47.62.97,1.38,1.42,2.23,1.37,2.59,2.31,6.08.79,9.45Z"/>
          <path class="cls-10" d="M253.48,76.88c-37.13-17.05-77.65-27.89-118.25-31.63-.14-1.46-.02-2.88.32-4.2.92-3.53,3.46-6.51,7.15-8.58,4.91-2.76,11.83-3.9,19.68-2.6,8.54,1.42,17.06,3.13,25.51,5.11,8.29,1.93,16.53,4.14,24.69,6.59,8.34,2.52,16.59,5.3,24.74,8.35,8.37,3.12,14.24,8.36,16.82,13.89,2.11,4.5,2.03,9.18-.67,13.07Z"/>
        </g>
        <g>
          <path class="cls-16" d="M282.02,114.49l-10.21,39.34c-5.41,20.83-22.22,35.29-42.86,36.88l-9.07.7-10.57.81,3.82-14.85,5.55-.43c3.81-.29,7.4-.67,10.79-1.3,15-2.75,25.88-10.24,32.07-35.59l6.38-24.55c1.19-4.58-1.44-9.64-5.89-11.28l-4.78-1.77-12.7-4.69,7.37-13.53,8.75,3.23,8.97,3.31c9.34,3.45,14.89,14.07,12.38,23.72Z"/>
          <path class="cls-3" d="M218.68,176.94c3.81-.29,7.4-.67,10.79-1.3-3.08,5.58-6.28,10.83-9.59,15.77l-10.57.81,3.82-14.85,5.55-.43Z"/>
          <path class="cls-3" d="M257.24,102.45l-12.7-4.69,7.37-13.53,8.75,3.23c-1.07,5.13-2.21,10.12-3.42,14.99Z"/>
        </g>
        <path class="cls-16" d="M200.59,206.64c-3.82,4.47-9.8,6.4-15.42,4.95l-52.48-13.63c-5.59-1.45-9.88-6.04-11.02-11.84-5.85-30.24-4.72-68.47,6.8-113.71l.02-.06c.02-.09.04-.19.06-.29.09-.68-.11-1.37-.54-1.91-1.02-1.27-1.99-2.52-2.89-3.76-6.92-9.48-10.38-18.43-12.31-29.56-.26-1.43,1.19-2.86,2.73-2.72,5.19.42,15.42,1.59,28.06,3.65,1.04.16,2.1.34,3.17.52,10.56,1.78,22.57,4.15,34.59,7.16.81.2,1.62.41,2.44.62.41.11.82.21,1.23.33.41.11.82.22,1.23.33l.43.11c1.14.29,2.28.58,3.42.88,2.32.61,4.63,1.24,6.92,1.87.11.04.21.06.31.09.66.19,1.31.37,1.97.56.38.11.76.21,1.14.33.38.11.75.22,1.14.33.38.11.75.22,1.13.33,19.87,5.9,37.54,12.76,46.96,16.65,1.11.46,2.11.89,2.98,1.26.67.28,1.25.54,1.76.76,1.42.61,2.31,2.27,2.04,3.81-11.03,61.14-31.57,104.26-55.86,132.94Z"/>
        <path class="cls-7" d="M245.08,100.41h0c-.31.63-.56,1.29-.74,1.97-10.78,40.71-27.67,74.95-48.85,98.99-1.22,1.39-6.57,7.35-10.32,10.21-1.38,1.04-51.87-13.47-51.87-13.47-2.47-.64-4.37-11.69-4.91-14.16-6.81-31.31-4.91-69.44,5.49-110.25.18-.68.28-1.38.31-2.08,1.55-5.77,6.18-22.8,9.42-33.87,1.04.16,2.1.34,3.17.52,10.56,1.78,22.57,4.15,34.59,7.16.81.2,1.62.41,2.44.62.41.11.82.21,1.23.33.41.11.82.22,1.23.33l.43.11c1.14.29,2.28.58,3.42.88,2.32.61,4.63,1.24,6.92,1.87.11.04.21.06.31.09.66.19,1.31.37,1.97.56.38.11.76.21,1.14.33.38.11.75.22,1.14.33.38.11.75.22,1.13.33,19.87,5.9,37.54,12.76,46.96,16.65,1.11.46,2.11.89,2.98,1.26-2.58,11.09-6.25,25.97-7.58,31.28Z"/>
        <path class="cls-15" d="M143.86,108.45c2.73,1.69,6.46.89,8.91-1.02,2.45-1.91,3.92-4.7,5.38-7.38,1.47-2.68,3.09-5.42,5.71-7.12,2.62-1.7,6.53-2.01,8.92.1,2.67,2.36,2.29,6.44,1.08,9.62-1.21,3.19-3.05,6.36-2.61,9.76.66,5.13,6.14,8.47,11.27,10.25,5.75,1.99,12.17,3.01,17.8,1.02,5.63-1.99,9.98-7.73,8.58-13.38-.46-1.84-1.48-3.65-1.22-5.5.6-4.29,7.35-5.71,7.93-10,.44-3.25-2.9-7.13-.56-9.49,1.07-1.08,2.95-1.13,4.39-.47,1.44.66,2.5,1.89,3.39,3.16,3.63,5.2,5.01,11.6,4.57,17.73-.44,6.13-2.61,12.01-5.57,17.41-2.54,4.63-5.78,9.05-10.33,11.96-4.98,3.19-11.14,4.31-17.17,4.92-13.16,1.33-27.14.36-38.86-5.89-11.72-6.25-20.55-18.7-19.1-31.21.24-2.05.9-4.28,2.77-5.29,3.31-1.78,4.31,1.17,3.71,3.33-.73,2.64-2.33,5.41,1.01,7.48Z"/>
        <path class="cls-2" d="M235.73,118.23c-1.92,6.23-4.66,12.31-6.93,17.87-2.05,5.03-4.28,10.02-6.68,14.96-.37.74-.73,1.47-1.1,2.22-4.81,9.6-10.34,18.91-16.71,27.58-.58.78-1.15,1.55-1.74,2.31-3.53,4.64-7.33,9.08-11.4,13.28-.53.55-1.08,1.1-1.62,1.64-2.73,2.72-6.92,3.75-10.92,2.7-9.23-2.44-26.22-6.98-35.61-9.52-3.99-1.09-7.09-4.09-8.1-7.79-1.25-4.57-2.27-9.18-3.07-13.81-.2-1.14-.38-2.29-.54-3.43-1.06-7.08-1.64-14.21-1.8-21.34-.06-2.23-.08-4.46-.06-6.68.02-3.2.12-6.39.29-9.57.2-3.7.35-7.62.62-11.63.15-2.08.32-4.19.55-6.3,1.71-15.84,6.35-31.65,22.75-38.09,2.75-1.08,5.77-1.82,8.73-1.27,2.96.55,5.79,2.68,6.29,5.51.9,5.11-5.17,8.45-8.89,10.82-7.85,5-16.29,12.35-15.65,22.3.9,14.06,21.26,23.05,33.98,18.79,5.98-1.99,9.86-6.74,11.14-12.54,1.09-4.98.9-10.89-1.94-15.26-2.29-3.54-2.8-9.32,3.71-8.65,3.03.31,5.54,2.66,6.79,5.32,1.91,4.02-.03,8.04,1.21,12.18,3.27,10.91,15.48,3.63,18.16-3.2,1.9-4.84.88-10.66-2.58-14.79-2.92-3.48-7.2-5.61-10.88-8.36-3.67-2.75-7.01-6.77-6.5-11.11.57-4.89,6.1-8.13,11.3-7.86,5.19.27,9.91,3.22,13.76,6.64,8.4,7.46,13.93,17.73,15.53,28.42.25,1.76.36,3.54.31,5.33-.06,2.51-.39,5.03-.92,7.55-.41,1.93-.92,3.86-1.51,5.78Z"/>
        <path class="cls-2" d="M242.22,76.75c-.2-2.74-1.37-5.36-3.81-7.13-2-1.46-6.36-2.53-7.38.42-.35.99-.16,2.11.29,3.09,1.7,3.75,5.38,6.05,6.4,10.19.16.64.33,2.61,1.42,2.43.3-.05.5-.3.67-.53,1.69-2.34,2.63-5.48,2.41-8.47Z"/>
        <path class="cls-2" d="M164.81,58.83c.43-2.75-2.09-5.48-5.66-5.27-2.99.17-6.29,1.65-8.25,3.77-2.81,3.03-4.13,7.25-5.01,11.17-.06.26-.11.53-.06.8.25,1.11,1.35.25,1.8-.18,2.07-1.95,4.69-3.33,7.49-4.12,2.86-.81,5.86-1.42,8.09-3.41.94-.84,1.44-1.8,1.59-2.75Z"/>
        <path class="cls-15" d="M179.67,86c-.11-.65-.41-1.34-.94-1.8-.44-.39-.96-.67-1.53-.84-.67-.2-1.34-.12-1.97.09.02,0,.04-.02.07-.03-1,.27-1.73.85-2.48,1.49-.28.24-.5.49-.73.77-.54.67-.75,1.35-.8,2.21-.04.69.43,1.65.97,2.12.22.16.44.33.67.49.51.28,1.07.43,1.65.43.97.12,1.91-.4,2.66-.92.38-.27.81-.52,1.15-.83.37-.33.62-.76.92-1.15.11-.26.22-.52.33-.78.13-.42.13-.83.03-1.25Z"/>
        <path class="cls-15" d="M179.53,93.5c0-.18-.04-.36-.09-.53-.08-.27-.23-.5-.44-.7-.06-.05-.13-.09-.19-.14-.28-.2-.58-.38-.95-.35-.16.02-.33.02-.49.06-.45.11-.86.43-1.07.82-.2.37-.3.85-.15,1.26.14.39.41.8.81.98.14.07.28.14.43.17.14.04.31.05.46.06.23,0,.44-.04.64-.13.21-.06.39-.17.55-.33.32-.33.48-.72.48-1.17Z"/>
        <path class="cls-15" d="M156.4,96.88c-.1-.27-.25-.49-.49-.66-.55-.4-1.26-.34-1.75.08-.37.32-.52.74-.61,1.2-.07.36.01.72.3.99.27.25.7.38,1.06.27.22-.07.44-.13.64-.23.33-.16.53-.39.73-.67.18-.24.22-.7.11-.98Z"/>
        <path class="cls-6" d="M143.06,125.84s-.07.06-.02.08c.05.01.07-.06.02-.08Z"/>
        <path class="cls-5" d="M149.15,202.26c-6.41-1.81-4.07-1.34-4.07-1.34-18.27-46.88-6.71-105.99,7.78-161.68,5.7,1.01,11.76,2.19,17.95,3.54-18.61,53.35-28.37,113.76-21.66,159.48Z"/>
        <path class="cls-6" d="M151.19,201.36c.01.15.03.29.05.45-.04-.05-.26-.31-.05-.45Z"/>
        <path class="cls-5" d="M153.07,201.6c-6.05-46.68,7.77-102.88,22.76-157.7,1.96.44,3.93.92,5.91,1.4,1.6.4,3.2.81,4.8,1.22-18.03,54.23-29.45,110.37-30.52,155.53-1.99-.59-2.71-.6-2.94-.45Z"/>
        <g>
          <g>
            <path class="cls-10" d="M193.83,293.51c-.08.3-.19.59-.32.86-.98,2.08-3.34,3.25-5.65,2.65-2.32-.6-3.81-2.77-3.65-5.06.01-.3.06-.61.14-.91.29-1.12,1.43-3.91,2.85-6.66,1.87-3.64,4.22-7.22,5.71-6.83,1.49.39,1.8,4.66,1.66,8.74-.1,3.09-.46,6.09-.75,7.21Z"/>
            <path class="cls-10" d="M95.59,268.01c-.08.3-.19.59-.32.86-.98,2.08-3.33,3.25-5.65,2.65-2.32-.6-3.81-2.77-3.65-5.06.01-.3.06-.61.14-.91.29-1.12,1.43-3.91,2.85-6.66,1.87-3.64,4.22-7.22,5.71-6.83,1.49.39,1.8,4.66,1.66,8.74-.1,3.09-.46,6.09-.75,7.21Z"/>
            <path class="cls-8" d="M96.34,260.8c-.1,3.09-.46,6.09-.75,7.21-.08.3-.19.59-.32.86l-9.29-2.41c.01-.3.06-.61.14-.91.29-1.12,1.43-3.91,2.85-6.66l7.37,1.91Z"/>
            <path class="cls-8" d="M193.83,293.51c-.08.3-.19.59-.32.86l-9.29-2.41c.01-.3.06-.61.14-.91.29-1.12,1.43-3.91,2.85-6.66l7.37,1.91c-.1,3.09-.46,6.09-.75,7.21Z"/>
          </g>
          <path class="cls-9" d="M201.35,285.06c-1.25,2.26-3.89,3.37-6.39,2.72l-107.04-27.79c-2.5-.65-4.26-2.9-4.26-5.48.02-10.05,3.9-20.42,10.08-30.15,1.43-2.24,2.98-4.45,4.63-6.61,5.03-6.59,11.02-12.76,17.43-18.17,1.53-1.3,3.08-2.55,4.66-3.76l77.31,20.07c.79,1.82,1.54,3.67,2.24,5.55,2.71,7.18,4.8,14.73,6.05,22.24.46,2.73.79,5.44,1.01,8.14.99,12.24-.56,23.95-5.72,33.25Z"/>
          <path class="cls-13" d="M206.05,243.67c-9.9,12.96-34.58,18.05-60.63,11.29-24.9-6.46-43.42-21.78-47.06-37.22,5.03-6.59,11.02-12.76,17.43-18.17.48-.42.97-.82,1.46-1.22,1.05-.87,2.12-1.71,3.19-2.54l77.31,20.07c.54,1.25,1.06,2.51,1.55,3.77.24.59.46,1.18.69,1.78,2.71,7.18,4.8,14.73,6.05,22.24Z"/>
          <path class="cls-10" d="M200.46,293.38l-120.07-31.18c-2.16-.56-3.46-2.77-2.9-4.93h0c.56-2.16,2.77-3.46,4.93-2.9l120.07,31.18c2.16.56,3.46,2.77,2.9,4.93h0c-.56,2.16-2.77,3.46-4.93,2.9Z"/>
          <path class="cls-8" d="M199.31,219.66l-82.06-21.31c1.05-.87,2.12-1.71,3.19-2.54l77.31,20.07c.54,1.25,1.06,2.51,1.55,3.77Z"/>
          <path class="cls-10" d="M198.58,218.18l-79.97-20.77c-2.16-.56-3.46-2.77-2.9-4.93h0c.56-2.16,2.77-3.46,4.93-2.9l79.97,20.77c2.16.56,3.46,2.77,2.9,4.93h0c-.56,2.16-2.77,3.46-4.93,2.9Z"/>
          <g>
            <path class="cls-10" d="M169.75,244.75c-2.87,11.05-14.16,17.69-25.22,14.81-11.05-2.87-17.69-14.16-14.82-25.21.26-1,.59-1.96.98-2.89,3.93-9.28,14.18-14.54,24.23-11.93,9.98,2.59,16.36,12.04,15.39,21.98-.1,1.07-.29,2.15-.57,3.23Z"/>
            <g>
              <path class="cls-16" d="M160.37,242.21c-1.54,5.93-7.71,9.42-13.63,7.6-5.39-1.66-8.64-7.38-7.31-12.86.24-.99.61-1.91,1.09-2.74,2.09-3.73,6.27-5.93,10.61-5.43l1.83-1.83c.13-.13.36-.07.41.11l.71,2.5c4.04,1.68,6.63,5.64,6.63,9.93,0,.9-.11,1.83-.34,2.74Z"/>
              <path class="cls-1" d="M160.37,242.21c-1.54,5.93-7.71,9.42-13.63,7.6-5.39-1.66-8.64-7.38-7.31-12.86.24-.99.61-1.91,1.09-2.74,0,.04,0,.07,0,.11.02,1.51.37,3,1,4.36,1.27,2.76,3.68,4.94,6.6,5.83,3.43,1.05,7.22.32,10.01-1.95,1.06-.86,1.94-1.91,2.59-3.09,0,.9-.11,1.83-.34,2.74Z"/>
            </g>
            <path class="cls-8" d="M153.66,224.45h0c-.47-.12-.76-.61-.64-1.08l.49-1.9c.12-.47.61-.76,1.08-.64h0c.47.12.76.61.64,1.08l-.49,1.9c-.12.47-.61.76-1.08.64Z"/>
            <path class="cls-8" d="M163.19,231.65h0c-.25-.42-.11-.97.32-1.21l1.69-.99c.42-.25.97-.11,1.21.32h0c.25.42.11.97-.32,1.21l-1.69.99c-.42.25-.97.11-1.21-.32Z"/>
            <path class="cls-8" d="M164.84,243.47h0c.12-.47.61-.76,1.08-.64l1.9.49c.47.12.76.61.64,1.08h0c-.12.47-.61.76-1.08.64l-1.9-.49c-.47-.12-.76-.61-.64-1.08Z"/>
            <path class="cls-8" d="M157.64,253.01h0c.42-.25.97-.11,1.21.32l.99,1.69c.25.42.11.97-.32,1.21h0c-.42.25-.97.11-1.21-.32l-.99-1.69c-.25-.42-.11-.97.32-1.21Z"/>
            <path class="cls-8" d="M145.81,254.66h0c.47.12.76.61.64,1.08l-.49,1.9c-.12.47-.61.76-1.08.64h0c-.47-.12-.76-.61-.64-1.08l.49-1.9c.12-.47.61-.76,1.08-.64Z"/>
            <path class="cls-8" d="M136.28,247.46h0c.25.42.11.97-.32,1.21l-1.69.99c-.42.25-.97.11-1.21-.32h0c-.25-.42-.11-.97.32-1.21l1.69-.99c.42-.25.97-.11,1.21.32Z"/>
            <path class="cls-8" d="M134.63,235.63h0c-.12.47-.61.76-1.08.64l-1.9-.49c-.47-.12-.76-.61-.64-1.08h0c.12-.47.61-.76,1.08-.64l1.9.49c.47.12.76.61.64,1.08Z"/>
            <path class="cls-8" d="M141.83,226.1h0c-.42.25-.97.11-1.21-.32l-.99-1.69c-.25-.42-.11-.97.32-1.21h0c.42-.25.97-.11,1.21.32l.99,1.69c.25.42.11.97-.32,1.21Z"/>
          </g>
          <g class="cls-8">
            <path class="cls-4" d="M192.16,226.29c-.79,1.73-16.67-3.98-36.6-9.1-19.9-5.22-36.55-7.96-36.4-9.86.1-1.81,17.52-2.04,38.09,3.35,20.59,5.3,35.7,13.98,34.91,15.6Z"/>
          </g>
        </g>
      </g>
    </g>
  </g>
</svg>