<?xml version="1.0" encoding="UTF-8"?>
<svg xmlns="http://www.w3.org/2000/svg" version="1.1" viewBox="0 0 50 50">
  <defs>
    <style>
      .cls-1 {
        stroke-width: .5px;
      }

      .cls-1, .cls-2, .cls-3 {
        fill: none;
        stroke: #444;
      }

      .cls-1, .cls-3 {
        stroke-miterlimit: 10;
      }

      .cls-2 {
        stroke-linecap: round;
        stroke-linejoin: round;
        stroke-width: 2.5px;
      }

      .cls-4 {
        fill: #04ad49;
      }

      .cls-5 {
        fill: #22dd6d;
      }
    </style>
  </defs>
  <!-- Generator: Adobe Illustrator 28.7.1, SVG Export Plug-In . SVG Version: 1.2.0 Build 142)  -->
  <g>
    <g id="Camada_1">
      <g>
        <polygon class="cls-4" points="26.9 14.8 34.8 17.2 28.1 21.9 28.2 30.2 21.6 25.2 13.8 27.9 16.4 20.1 11.5 13.5 19.7 13.6 24.5 6.9 26.9 14.8"/>
        <g>
          <path class="cls-5" d="M48.2,20.1c-.2-.8-2.7-7.5-3.2-8.1l-3-3.5h-.2c0,0-7.6-5.7-7.6-5.7l-7.8-.7c-3.2,0-14.5.3-21.4,10.2L1,22.9h-.2c0,0,4,13.5,4,13.5.1.4,4.5,5.7,4.9,5.9l5.6,3,32.2-11.7c.7-.4,1.7-8.6.8-13.4Z"/>
          <g>
            <path class="cls-2" d="M31.9,47.3c-7,2.3-15,1.2-21.3-3.6C.2,36-1.9,21.3,5.9,10.9"/>
            <path class="cls-2" d="M5.8,11.1c2-3,4.7-4.7,4.7-4.7l.7-.5C19.3.1,30.4,0,38.8,6.3c10.4,7.8,12.4,22.5,4.7,32.8"/>
          </g>
          <g>
            <path class="cls-1" d="M13.3,14.6c-2.1,0-3.9,1.7-3.9,3.9s1.4,3.5,3.3,3.8v22.6c0,.3.3.6.6.6s.6-.3.6-.6v-22.6c1.9-.3,3.3-1.9,3.3-3.8s-1.7-3.9-3.9-3.9Z"/>
            <path class="cls-1" d="M36,34.9c2.1,0,3.9-1.7,3.9-3.9s-1.4-3.5-3.3-3.8V4.6c0-.3-.3-.6-.6-.6s-.6.3-.6.6v22.6c-1.9.3-3.3,1.9-3.3,3.8s1.7,3.9,3.9,3.9Z"/>
            <path class="cls-1" d="M24.8,37.1c.6-.7.9-1.5.9-2.5,0-2.1-1.7-3.9-3.9-3.9s-3.9,1.7-3.9,3.9,1.7,3.9,3.9,3.9,1.5-.2,2.1-.6l2.4,2.6v6.8c0,.3.3.6.6.6s.6-.3.6-.6v-7.1c0-.2,0-.3-.2-.4l-2.5-2.7Z"/>
            <path class="cls-1" d="M25.4,14.1c-.8,0-1.5.2-2.1.6l-2.4-2.6V2.7c0-.3-.3-.6-.6-.6s-.6.3-.6.6v9.6c0,.2,0,.3.2.4l2.5,2.7c-.6.7-.9,1.5-.9,2.5,0,2.1,1.7,3.9,3.9,3.9s3.9-1.7,3.9-3.9-1.7-3.9-3.9-3.9Z"/>
            <path class="cls-3" d="M13.3,21.1c-1.5,0-2.7-1.2-2.7-2.7s1.2-2.7,2.7-2.7,2.7,1.2,2.7,2.7-1.2,2.7-2.7,2.7Z"/>
            <path class="cls-3" d="M36,28.4c1.5,0,2.7,1.2,2.7,2.7s-1.2,2.7-2.7,2.7-2.7-1.2-2.7-2.7,1.2-2.7,2.7-2.7Z"/>
            <path class="cls-3" d="M21.9,37.3c-1.5,0-2.7-1.2-2.7-2.7s1.2-2.7,2.7-2.7,2.7,1.2,2.7,2.7-1.2,2.7-2.7,2.7Z"/>
            <path class="cls-3" d="M25.4,20.6c-1.5,0-2.7-1.2-2.7-2.7s1.2-2.7,2.7-2.7,2.7,1.2,2.7,2.7-1.2,2.7-2.7,2.7Z"/>
          </g>
        </g>
      </g>
    </g>
  </g>
</svg>
