<svg xmlns="http://www.w3.org/2000/svg" id="Layer_1" x="0" y="0" version="1.1" viewBox="0 0 50 50" xml:space="preserve"><style>.st2{fill:#464646}</style><path fill="#70c6df" d="M27.4 28.8V24h14.7l4.1-5.1-4-5.6h-12L7 21.8 5.3 24h17.5v4.8H7.3l-4 5.6 4.1 5h6.3L43 28.8z"/><path fill="#7dddfa" d="M28.1 13.6h-.4V3.8c0-1.2-1-2.3-2.1-2.3-1.2 0-2.1 1-2.1 2.3v9.9H5.6L9.7 19l-2.5 3 23.2-8.5h-2.3v.1z"/><path d="M17.9 18.3h1.8v1.3h-1.8zm3.3 0H23v1.3h-1.8zm3.3 0h1.8v1.3h-1.8zm3.2 0h1.8v1.3h-1.8zm3.3 0h1.8v1.3H31zm-.7 15.2h1.8v1.3h-1.8zm-3.3 0h1.8v1.3H27zm-3.2 0h1.8v1.3h-1.8zm-3.3 0h1.8v1.3h-1.8zm-3.3 0H19v1.3h-1.8zm9.1-19.9h2.5v.2h-2.5z" class="st2"/><path d="M46.5 47H28.9v-6.1h17.9l-5-6.5 5-6.5H28.9v-2.2h13.8l5.1-6.2-5-6.8h-14V3.8C28.8 2 27.3.5 25.4.5S21.9 2 21.9 3.8v8.9H3.3l5 6.5-5 6.5h18.5v2.2H7.2l-5 6.8 5.1 6.2h14.5V47H4.4c-.7 0-1.2.6-1.2 1.2s.6 1.2 1.2 1.2h42.1c.7 0 1.2-.6 1.2-1.2s-.5-1.2-1.2-1.2zM24.4 3.8c0-.4.4-.8.9-.8s.9.4.9.8v8.9h-1.8V3.8zm-16 19.4l3.1-4-3.1-4h33.1l3.1 4.2-3.1 3.8H8.4zm18 2.6v2h-2.1v-2h2.1zm-21 8.8l3.1-4.2h33.1l-3.1 4 3.1 4H8.5l-3.1-3.8zm21 11.9h-2.1v-5.6h2.1v5.6z" class="st2"/></svg>