<?xml version="1.0" encoding="utf-8"?>
<!-- Generator: Adobe Illustrator 22.0.1, SVG Export Plug-In . SVG Version: 6.00 Build 0)  -->
<svg version="1.1" id="Layer_1" xmlns="http://www.w3.org/2000/svg" xmlns:xlink="http://www.w3.org/1999/xlink" x="0px" y="0px"
	 viewBox="0 0 50 50" style="enable-background:new 0 0 50 50;" xml:space="preserve">
<style type="text/css">
	.st0{fill:#70C6DF;}
	.st1{fill:#7DDDFA;}
	.st2{fill:#464646;}
</style>
<g>
	<g>
		<polygon class="st0" points="27.4,28.8 27.4,24 42.1,24 46.2,18.9 42.2,13.3 30.2,13.3 7,21.8 5.3,24 22.8,24 22.8,28.8 7.3,28.8 
			3.3,34.4 7.4,39.4 13.7,39.4 43,28.8 		"/>
	</g>
	<g>
		<path class="st1" d="M28.1,13.6h-0.4V3.8c0-1.2-1-2.3-2.1-2.3c-1.2,0-2.1,1-2.1,2.3v9.9h-0.3H5.6l4.1,5.3L7.2,22l23.2-8.5h-2.3
			V13.6z"/>
	</g>
	<g>
		<g>
			<g>
				<rect x="17.9" y="18.3" class="st2" width="1.8" height="1.3"/>
			</g>
		</g>
		<g>
			<g>
				<rect x="21.2" y="18.3" class="st2" width="1.8" height="1.3"/>
			</g>
		</g>
		<g>
			<g>
				<rect x="24.5" y="18.3" class="st2" width="1.8" height="1.3"/>
			</g>
		</g>
		<g>
			<g>
				<rect x="27.7" y="18.3" class="st2" width="1.8" height="1.3"/>
			</g>
		</g>
		<g>
			<g>
				<rect x="31" y="18.3" class="st2" width="1.8" height="1.3"/>
			</g>
		</g>
	</g>
	<g>
		<g>
			<g>
				<rect x="30.3" y="33.5" class="st2" width="1.8" height="1.3"/>
			</g>
		</g>
		<g>
			<g>
				<rect x="27" y="33.5" class="st2" width="1.8" height="1.3"/>
			</g>
		</g>
		<g>
			<g>
				<rect x="23.8" y="33.5" class="st2" width="1.8" height="1.3"/>
			</g>
		</g>
		<g>
			<g>
				<rect x="20.5" y="33.5" class="st2" width="1.8" height="1.3"/>
			</g>
		</g>
		<g>
			<g>
				<rect x="17.2" y="33.5" class="st2" width="1.8" height="1.3"/>
			</g>
		</g>
	</g>
	<g>
		<rect x="26.3" y="13.6" class="st2" width="2.5" height="0.2"/>
	</g>
	<path class="st2" d="M46.5,47H28.9v-6.1h17.9l-5-6.5l5-6.5H28.9v-2.2h13.8l5.1-6.2l-5-6.8h-14V3.8c0-1.8-1.5-3.3-3.4-3.3
		S21.9,2,21.9,3.8v8.9H3.3l5,6.5l-5,6.5h18.5v2.2H7.2l-5,6.8l5.1,6.2h14.5V47H4.4c-0.7,0-1.2,0.6-1.2,1.2s0.6,1.2,1.2,1.2h42.1
		c0.7,0,1.2-0.6,1.2-1.2S47.2,47,46.5,47z M24.4,3.8c0-0.4,0.4-0.8,0.9-0.8s0.9,0.4,0.9,0.8v8.9h-1.8V3.8z M8.4,23.2l3.1-4l-3.1-4
		h14.5h5h13.6l3.1,4.2l-3.1,3.8H8.4z M26.4,25.8v2h-2.1v-2H26.4z M5.4,34.6l3.1-4.2h33.1l-3.1,4l3.1,4H8.5L5.4,34.6z M26.4,46.5
		h-2.1v-5.6h2.1V46.5z"/>
</g>
</svg>
