<svg xmlns="http://www.w3.org/2000/svg" viewBox="0 0 50 50"><defs><style>.cls-1,.cls-4,.cls-6,.cls-7{fill:none;}.cls-1{stroke:#494949;stroke-width:3.11px;}.cls-1,.cls-6{stroke-miterlimit:10;}.cls-2{fill:#afe55d;}.cls-3{fill:#c3ff68;}.cls-4,.cls-6,.cls-7{stroke:#444;}.cls-4,.cls-7{stroke-linecap:round;stroke-linejoin:round;}.cls-4{stroke-width:2.5px;}.cls-5{fill:#444;}.cls-7{stroke-width:1.5px;}</style></defs><g id="Layer_1" data-name="Layer 1"><rect class="cls-1" x="-50.54" y="-96.7" width="425.11" height="443.81"/><polygon class="cls-2" points="45.64 23.34 45.91 29.26 3.95 44.54 4.17 26.08 44.7 11.5 45.75 14.4 45.64 23.34"/><polygon class="cls-3" points="46.11 14.91 4.14 30.08 3.97 15.51 3.95 11.94 30.18 2.39 40.42 2.73 45.44 5.08 46.11 14.91"/><path class="cls-4" d="M3.89,44.19V5.82a3,3,0,0,1,3-3H42.69a3,3,0,0,1,3,3v38.8a3,3,0,0,1-3,3H37.2"/><line class="cls-4" x1="3.89" y1="11.79" x2="45.68" y2="11.79"/><circle class="cls-5" cx="8.26" cy="7.42" r="0.94"/><circle class="cls-5" cx="11.24" cy="7.42" r="0.94"/><circle class="cls-5" cx="14.22" cy="7.42" r="0.94"/><path class="cls-5" d="M12.67,30.34a4,4,0,1,0,4,4A4,4,0,0,0,12.67,30.34Z"/><path class="cls-2" d="M13,33.23a.36.36,0,0,1,.36.36h.72A1.08,1.08,0,0,0,13,32.51v-.72h-.72v.72H11.23v1.08a1.08,1.08,0,0,0,1.08,1.08H13a.36.36,0,0,1,.36.36v.36H12.31A.36.36,0,0,1,12,35h-.72a1.08,1.08,0,0,0,1.08,1.08v.72H13v-.72h1.08V35A1.08,1.08,0,0,0,13,34h-.72a.36.36,0,0,1-.36-.36v-.36Z"/><circle class="cls-6" cx="12.67" cy="34.31" r="5.04"/><polyline class="cls-7" points="20.95 31.41 26.35 27.77 32.97 30.28 40.8 21.46"/><circle class="cls-5" cx="20.95" cy="31.41" r="1.41"/><circle class="cls-5" cx="26.1" cy="27.91" r="1.41"/><circle class="cls-5" cx="33.16" cy="30" r="1.41"/><circle class="cls-5" cx="40.8" cy="21.46" r="1.41"/></g></svg>