<?xml version="1.0" encoding="utf-8"?>
<!-- Generator: Adobe Illustrator 26.5.0, SVG Export Plug-In . SVG Version: 6.00 Build 0)  -->
<svg version="1.1" id="Layer_1" xmlns="http://www.w3.org/2000/svg" xmlns:xlink="http://www.w3.org/1999/xlink" x="0px" y="0px"
	 viewBox="0 0 50 50" style="enable-background:new 0 0 50 50;" xml:space="preserve">
<style type="text/css">
	.st0{fill:#AFE55D;}
	.st1{fill:#C3FF68;}
	.st2{fill:none;stroke:#444444;stroke-width:2.5;stroke-linecap:round;stroke-linejoin:round;stroke-miterlimit:10;}
	.st3{fill:none;stroke:#444444;stroke-width:1.3;stroke-linecap:round;stroke-linejoin:round;stroke-miterlimit:10;}
</style>
<g>
	<polygon class="st0" points="47.3,23.6 47.6,28.4 2.4,44.9 2.7,35.9 2.9,30.7 47.5,14.4 47.8,17.4 	"/>
	<polygon class="st1" points="47,3.7 47.2,15.1 2.8,31.3 2.8,21.5 3.2,17.1 44.5,2.6 	"/>
	<polyline class="st2" points="6.3,47.4 2.2,47.4 2.2,2.7 47,2.7 47,47.4 31.6,47.4 	"/>
	<g>
		<g>
			<circle class="st3" cx="12.2" cy="38.5" r="2.2"/>
			<circle class="st3" cx="24.6" cy="38.5" r="2.2"/>
			<circle class="st3" cx="36.8" cy="38.5" r="2.2"/>
			<line class="st3" x1="24.6" y1="36.2" x2="24.6" y2="26.6"/>
			<path class="st3" d="M12.4,36.2v-2.9c0-0.8,0.5-1.5,1.2-1.5h22.1c0.7,0,1.2,0.7,1.2,1.5v2.9"/>
		</g>
		<g id="Refresh">
			<g>
				<path class="st3" d="M16.4,16.5c0.7-4,4.2-7,8.4-7c2.8,0,5.2,1.3,6.8,3.3"/>
				<polyline class="st3" points="31.9,10 31.9,13.4 28.6,13.4 				"/>
			</g>
			<g>
				<path class="st3" d="M31.9,22.7c-1.5,2.3-4.2,3.9-7.2,3.9c-2.8,0-5.2-1.3-6.7-3.3"/>
				<polyline class="st3" points="17.5,26.2 17.5,22.7 20.9,22.8 				"/>
			</g>
		</g>
	</g>
</g>
</svg>
