<?xml version="1.0" encoding="utf-8"?>
<!-- Generator: Adobe Illustrator 26.5.0, SVG Export Plug-In . SVG Version: 6.00 Build 0)  -->
<svg version="1.1" id="Layer_1" xmlns="http://www.w3.org/2000/svg" xmlns:xlink="http://www.w3.org/1999/xlink" x="0px" y="0px"
	 viewBox="0 0 50 50" style="enable-background:new 0 0 50 50;" xml:space="preserve">
<style type="text/css">
	.st0{fill:#AFE55D;}
	.st1{fill:#C3FF68;}
	.st2{fill:#494949;}
</style>
<g>
	<polygon class="st0" points="43.3,18.2 43.1,24.7 6.8,37.9 6.8,18 7.7,17 8.9,16.5 16.7,16.5 17,13.6 30.7,8.6 31,8.8 33.1,12.7 
		33.1,16.5 41.6,17 	"/>
	<polygon class="st1" points="31,8.8 33.1,12.7 33.1,14.3 6.8,23.7 6.8,18 7.7,17 8.1,16.5 16.7,16.5 17,13.6 17.1,12.6 18.6,8.8 
		22.8,6.4 27.9,6.4 30.7,8.6 	"/>
	<g>
		<path class="st2" d="M46.6,41.8c-0.1-0.2-0.4-0.3-0.6-0.3h-2.3V18.2c0-1.2-1-2.3-2.3-2.3h-6c-0.4,0-0.8,0.3-0.8,0.8
			c0,0.4,0.3,0.8,0.8,0.8h6c0.4,0,0.8,0.3,0.8,0.8v23.3h-1.5V19.7c0-0.4-0.3-0.8-0.8-0.8h-4.5c-0.4,0-0.8,0.3-0.8,0.8
			s0.3,0.8,0.8,0.8h3.8v21h-9.8c-0.4,0-0.8,0.3-0.8,0.8v1.5h-7.5v-1.5c0-0.4-0.3-0.8-0.8-0.8h-9.8v-21h3.8c0.4,0,0.8-0.3,0.8-0.8
			S14.9,19,14.5,19H10c-0.4,0-0.8,0.3-0.8,0.8v21.8H7.7V18.2c0-0.4,0.3-0.8,0.8-0.8h6c0.4,0,0.8-0.3,0.8-0.8c0-0.4-0.3-0.8-0.8-0.8
			h-6c-1.2,0-2.3,1-2.3,2.3v23.3H4c-0.2,0-0.4,0.1-0.6,0.3c-0.1,0.2-0.2,0.4-0.1,0.6l1.2,4.9c0.3,1,1.2,1.7,2.2,1.7h36.7
			c1,0,1.9-0.7,2.2-1.7l1.2-4.9C46.8,42.2,46.8,42,46.6,41.8z M44.1,47c-0.1,0.3-0.4,0.6-0.7,0.6H6.6c-0.3,0-0.6-0.2-0.7-0.6l-1-3.9
			h14.8v1.5c0,0.4,0.3,0.8,0.8,0.8h9c0.4,0,0.8-0.3,0.8-0.8V43h14.8L44.1,47z"/>
		<path class="st2" d="M25,4c0.4,0,0.8-0.3,0.8-0.8V1.7C25.8,1.3,25.4,1,25,1s-0.8,0.3-0.8,0.8v1.5C24.2,3.6,24.6,4,25,4z"/>
		<path class="st2" d="M20.6,3.9c0.1,0.3,0.4,0.6,0.7,0.6c0.1,0,0.1,0,0.2,0c0.4-0.1,0.6-0.5,0.5-0.9L21.6,2
			c-0.1-0.4-0.5-0.6-0.9-0.5c-0.4,0.1-0.6,0.5-0.5,0.9L20.6,3.9z"/>
		<path class="st2" d="M17.2,5.5c0.1,0.2,0.4,0.4,0.7,0.4c0.1,0,0.3,0,0.4-0.1c0.4-0.2,0.5-0.7,0.3-1l-0.8-1.3
			c-0.2-0.4-0.7-0.5-1-0.3c-0.4,0.2-0.5,0.7-0.3,1L17.2,5.5z"/>
		<path class="st2" d="M14.4,7.9c0.1,0.1,0.3,0.2,0.5,0.2s0.4-0.1,0.5-0.2c0.3-0.3,0.3-0.8,0-1.1l-1.1-1.1c-0.3-0.3-0.8-0.3-1.1,0
			c-0.3,0.3-0.3,0.8,0,1.1L14.4,7.9z"/>
		<path class="st2" d="M11,10.2l1.3,0.8c0.1,0.1,0.2,0.1,0.4,0.1c0.3,0,0.5-0.1,0.7-0.4c0.2-0.4,0.1-0.8-0.3-1l-1.3-0.8
			c-0.4-0.2-0.8-0.1-1,0.3C10.5,9.6,10.6,10,11,10.2z"/>
		<path class="st2" d="M10,14.5h1.5c0.4,0,0.8-0.3,0.8-0.8S11.9,13,11.5,13H10c-0.4,0-0.8,0.3-0.8,0.8S9.6,14.5,10,14.5z"/>
		<path class="st2" d="M28.5,4.4c0.1,0,0.1,0,0.2,0c0.3,0,0.6-0.2,0.7-0.6l0.4-1.5c0.1-0.4-0.1-0.8-0.5-0.9
			c-0.4-0.1-0.8,0.1-0.9,0.5L28,3.5C27.9,3.9,28.1,4.3,28.5,4.4z"/>
		<path class="st2" d="M31.8,5.8c0.1,0.1,0.2,0.1,0.4,0.1c0.3,0,0.5-0.1,0.7-0.4l0.8-1.3c0.2-0.4,0.1-0.8-0.3-1
			c-0.4-0.2-0.8-0.1-1,0.3l-0.8,1.3C31.3,5.1,31.4,5.6,31.8,5.8z"/>
		<path class="st2" d="M35.1,8.1c0.2,0,0.4-0.1,0.5-0.2l1.1-1.1c0.3-0.3,0.3-0.8,0-1.1c-0.3-0.3-0.8-0.3-1.1,0l-1.1,1.1
			c-0.3,0.3-0.3,0.8,0,1.1C34.7,8.1,34.9,8.1,35.1,8.1z"/>
		<path class="st2" d="M36.7,10.7c0.1,0.2,0.4,0.4,0.7,0.4c0.1,0,0.3,0,0.4-0.1l1.3-0.8c0.4-0.2,0.5-0.7,0.3-1
			c-0.2-0.4-0.7-0.5-1-0.3L37,9.7C36.6,9.9,36.5,10.4,36.7,10.7z"/>
		<path class="st2" d="M37.8,13.7c0,0.4,0.3,0.8,0.8,0.8H40c0.4,0,0.8-0.3,0.8-0.8S40.4,13,40,13h-1.5C38.1,13,37.8,13.3,37.8,13.7z
			"/>
		<path class="st2" d="M19.7,21.8v2.5c0,0.4,0.3,0.8,0.8,0.8h9c0.4,0,0.8-0.3,0.8-0.8v-2.5c2.4-1.7,3.8-4.4,3.8-7.3c0-5-4-9-9-9
			s-9,4-9,9C16,17.4,17.4,20.1,19.7,21.8z M25,7c4.1,0,7.5,3.4,7.5,7.5c0,2.5-1.3,4.9-3.4,6.3c-0.2,0.1-0.3,0.4-0.3,0.6v2.1h-7.5
			v-2.1c0-0.3-0.1-0.5-0.3-0.6c-2.1-1.4-3.4-3.7-3.4-6.3C17.5,10.3,20.9,7,25,7z"/>
		<path class="st2" d="M29.5,25.8h-9c-0.4,0-0.8,0.3-0.8,0.8s0.3,0.8,0.8,0.8h1L22,29c0.1,0.3,0.4,0.5,0.7,0.5h4.5
			c0.3,0,0.6-0.2,0.7-0.5l0.6-1.7h1c0.4,0,0.8-0.3,0.8-0.8S29.9,25.8,29.5,25.8z M26.7,28h-3.4L23,27.3H27L26.7,28z"/>
		<path class="st2" d="M25,10c1.5,0,3.1,0.8,3.9,1.9c0.1,0.2,0.4,0.3,0.6,0.3c0.1,0,0.3,0,0.4-0.1c0.3-0.2,0.4-0.7,0.2-1
			C29,9.5,27,8.5,25,8.5c-0.4,0-0.8,0.3-0.8,0.8C24.2,9.6,24.6,10,25,10z"/>
		<path class="st2" d="M23.5,22.7c0.4,0,0.8-0.3,0.8-0.8v-3c0-0.4-0.3-0.8-0.8-0.8s-0.8,0.3-0.8,0.8v3
			C22.7,22.4,23.1,22.7,23.5,22.7z"/>
		<path class="st2" d="M26.5,18.2c-0.4,0-0.8,0.3-0.8,0.8v3c0,0.4,0.3,0.8,0.8,0.8s0.8-0.3,0.8-0.8v-3
			C27.3,18.6,26.9,18.2,26.5,18.2z"/>
	</g>
</g>
</svg>
