<?xml version="1.0" encoding="utf-8"?>
<!-- Generator: Adobe Illustrator 24.0.0, SVG Export Plug-In . SVG Version: 6.00 Build 0)  -->
<svg version="1.1" id="Layer_1" xmlns="http://www.w3.org/2000/svg" xmlns:xlink="http://www.w3.org/1999/xlink" x="0px" y="0px"
	 viewBox="0 0 50 50" style="enable-background:new 0 0 50 50;" xml:space="preserve">
<style type="text/css">
	.st0{fill:#00C8E2;}
	.st1{fill:#00DFFC;}
	.st2{fill:none;stroke:#444444;stroke-width:2.5;stroke-linecap:round;stroke-linejoin:round;stroke-miterlimit:10;}
	.st3{fill:#444444;stroke:#444444;stroke-width:0.3;stroke-miterlimit:10;}
	.st4{fill:#424242;}
</style>
<g>
	<polygon class="st0" points="48.6,26.1 49,30.5 2,47.6 2.1,38.4 2.5,33.1 49.3,16 48.6,19.8 	"/>
	<polygon class="st1" points="48.6,9.2 48,17.1 2.1,33.8 2.1,23.8 2.4,19.3 48.7,2.5 	"/>
	<polyline class="st2" points="6.2,48.1 1.9,48.1 1.9,1.9 48.3,1.9 48.3,48.1 32.2,48.1 	"/>
	<g>
		<g>
			<g>
				<g>
					<path class="st3" d="M43.6,36.6L43.6,36.6C43.6,36.6,43.6,36.5,43.6,36.6C43.6,36.5,43.6,36.5,43.6,36.6
						C43.6,36.5,43.6,36.5,43.6,36.6L43.6,36.6L43.6,36.6L43.6,36.6l-2.9-5.8v-19c0-0.6-0.5-1.1-1.1-1.1h-29c-0.6,0-1.1,0.5-1.1,1.1
						v18.9l-2.9,5.7l0,0l0,0l0,0c0,0,0,0,0,0.1l0,0c0,0,0,0,0,0.1l0,0l0,0V38c0,0.7,0.6,1.2,1.2,1.2h34.6c0.7,0,1.2-0.6,1.2-1.2
						V36.6L43.6,36.6z M10.6,11.8h29v18.4h-29C10.6,30.2,10.6,11.8,10.6,11.8z M10.4,31.3h29.4l2.4,4.8H30.3l-0.6-2.2
						c-0.1-0.4-0.5-0.8-1-0.8h-7.2c-0.5,0-0.9,0.3-1,0.8l-0.6,2.2H8L10.4,31.3z M29.1,36.1H21l0.5-1.8h7.1L29.1,36.1z M42.6,38
						c0,0.1-0.1,0.2-0.2,0.2H7.8c-0.1,0-0.2-0.1-0.2-0.2v-0.8h34.9L42.6,38L42.6,38z"/>
				</g>
			</g>
			<g>
				<g>
					<path class="st3" d="M38.1,13.8c0-0.5-0.1-0.9-0.6-0.9h-25c-0.5,0-0.9,0.4-0.9,0.9v8.9c0,0.3,0.2,0.5,0.5,0.5s0.5-0.2,0.5-0.5
						V14h24.5v8.4c0,0.3,0.2,0.5,0.5,0.5s0.5-0.2,0.5-0.5L38.1,13.8L38.1,13.8z"/>
				</g>
			</g>
		</g>
		<g>
			<g>
				<polygon class="st4" points="28.1,18.9 21,18.9 21,20.3 28.1,20.3 28.1,22.1 30.6,19.6 28.1,17.1 				"/>
			</g>
			<g>
				<polygon class="st4" points="20,23.9 27.1,23.9 27.1,22.5 20,22.5 20,20.7 17.5,23.2 20,25.6 				"/>
			</g>
		</g>
	</g>
</g>
</svg>
