<?xml version="1.0" encoding="utf-8"?>
<!-- Generator: Adobe Illustrator 24.0.3, SVG Export Plug-In . SVG Version: 6.00 Build 0)  -->
<svg version="1.1" id="Layer_1" xmlns="http://www.w3.org/2000/svg" xmlns:xlink="http://www.w3.org/1999/xlink" x="0px" y="0px"
	 viewBox="0 0 50 50" style="enable-background:new 0 0 50 50;" xml:space="preserve">
<style type="text/css">
	.st0{fill:#A475EF;}
	.st1{fill:#BF94F7;}
	.st2{fill:none;stroke:#444444;stroke-width:2.5;stroke-linecap:round;stroke-linejoin:round;stroke-miterlimit:10;}
	.st3{fill:none;stroke:#444444;stroke-linecap:round;stroke-linejoin:round;stroke-miterlimit:10;}
	.st4{fill:none;stroke:#444444;stroke-width:0.75;stroke-linecap:round;stroke-linejoin:round;stroke-miterlimit:10;}
</style>
<polygon class="st0" points="47.4,24 47.8,28.1 3.1,44.4 3.3,35.7 3.6,30.8 48.1,14.6 47.4,18.1 "/>
<polygon class="st1" points="47.7,8.1 47.1,15.5 3.4,31.4 3.4,22 3.8,17.8 47.8,1.8 "/>
<polyline class="st2" points="6.8,47.3 2.6,47.3 2.6,2.7 47.5,2.7 47.5,47.3 32,47.3 "/>
<g>
	<g>
		<polygon class="st3" points="35.2,34.9 15.2,34.9 15.2,13.8 9.9,13.8 9.9,34.9 9.9,40.2 15.2,40.2 35.2,40.2 		"/>
		<line class="st3" x1="12.5" y1="29.9" x2="14.8" y2="29.9"/>
		<line class="st3" x1="12.5" y1="25.6" x2="14.8" y2="25.6"/>
		<line class="st3" x1="12.5" y1="21.3" x2="14.8" y2="21.3"/>
		<line class="st3" x1="12.5" y1="17" x2="14.8" y2="17"/>
		<line class="st3" x1="19.8" y1="35.1" x2="19.8" y2="37.5"/>
		<line class="st3" x1="24.1" y1="35.1" x2="24.1" y2="37.5"/>
		<line class="st3" x1="28.3" y1="35.1" x2="28.3" y2="37.5"/>
		<line class="st3" x1="32.6" y1="35.1" x2="32.6" y2="37.5"/>
	</g>
	<g>
		<circle class="st4" cx="20.2" cy="24.6" r="1.7"/>
		<circle class="st4" cx="32.6" cy="21.4" r="1.7"/>
		<circle class="st4" cx="34.5" cy="11.5" r="1.7"/>
		<line class="st4" x1="22.1" y1="24" x2="30.8" y2="21.7"/>
		<line class="st4" x1="34.1" y1="13.2" x2="33.1" y2="19.7"/>
		<line class="st4" x1="21.6" y1="14.2" x2="24.3" y2="16.9"/>
		<line class="st4" x1="21.6" y1="16.9" x2="24.3" y2="14.2"/>
		<line class="st4" x1="40.3" y1="12.9" x2="40.3" y2="16.7"/>
		<line class="st4" x1="38.4" y1="14.8" x2="42.2" y2="14.8"/>
		<line class="st4" x1="29.1" y1="27.1" x2="29.1" y2="30.9"/>
		<line class="st4" x1="27.2" y1="29" x2="31" y2="29"/>
	</g>
</g>
</svg>
