<?xml version="1.0" encoding="utf-8"?>
<!-- Generator: Adobe Illustrator 22.0.1, SVG Export Plug-In . SVG Version: 6.00 Build 0)  -->
<svg version="1.1" id="Layer_1" xmlns="http://www.w3.org/2000/svg" xmlns:xlink="http://www.w3.org/1999/xlink" x="0px" y="0px"
	 viewBox="0 0 50 50" style="enable-background:new 0 0 50 50;" xml:space="preserve">
<style type="text/css">
	.st0{fill:#E589EF;}
	.st1{fill:#F799FF;}
	.st2{fill:#444444;}
	.st3{fill:none;stroke:#444444;stroke-width:5;stroke-linecap:round;stroke-miterlimit:10;}
</style>
<g>
	<path class="st0" d="M4,46.4l44.1-16.1V7.5c0-3.1-2.5-5.7-5.7-5.7H7.8c-3.1,0-5.7,2.5-5.7,5.7v34.6C2.2,43.8,2.9,45.3,4,46.4z"/>
</g>
<g>
	<path class="st1" d="M46.3,3.4c-1-0.9-2.3-1.5-3.8-1.5H7.8c-3.1,0-5.7,2.5-5.7,5.7v11.9L46.3,3.4z"/>
</g>
<g>
	<path class="st2" d="M25.2,49.1H7.8c-3.8,0-6.9-3.1-6.9-6.9V7.5c0-3.8,3.1-6.9,6.9-6.9h34.6c3.8,0,6.9,3.1,6.9,6.9v22.8
		c0,0.7-0.6,1.2-1.2,1.2s-1.2-0.6-1.2-1.2V7.5c0-2.4-2-4.4-4.4-4.4H7.8c-2.4,0-4.4,2-4.4,4.4v34.6c0,2.4,2,4.4,4.4,4.4h17.3
		c0.7,0,1.2,0.6,1.2,1.2S25.8,49.1,25.2,49.1z"/>
</g>
<g>
	<path class="st2" d="M42.3,44.6H8c-1.4,0-2.5-1.1-2.5-2.5V7.7c0-1.4,1.1-2.5,2.5-2.5h34.4c1.4,0,2.5,1.1,2.5,2.5v34.4
		C44.8,43.4,43.7,44.6,42.3,44.6z M8,6.2c-0.8,0-1.5,0.7-1.5,1.5v34.4c0,0.8,0.7,1.5,1.5,1.5h34.4c0.8,0,1.5-0.7,1.5-1.5V7.7
		c0-0.8-0.7-1.5-1.5-1.5H8z"/>
</g>
<g>
	<g>
		<path class="st3" d="M34.2,31.2"/>
	</g>
	<g>
		<path class="st3" d="M27.8,31.2"/>
	</g>
</g>
<path class="st2" d="M6.2,36c-0.1,0-0.2,0-0.3-0.1c-0.2-0.2-0.2-0.5,0-0.7l8.5-9.6h9.1l4.2,6.3h3.6l6.2-12.4H44
	c0.3,0,0.5,0.2,0.5,0.5s-0.2,0.5-0.5,0.5h-5.9l-6.2,12.4h-4.7L23,26.6h-8.1l-8.2,9.3C6.5,35.9,6.4,36,6.2,36z"/>
<g>
	<path class="st2" d="M14.2,19.3c-2.7,0-4.9-2.2-4.9-4.9s2.2-4.9,4.9-4.9s4.9,2.2,4.9,4.9S16.9,19.3,14.2,19.3z M14.2,10.5
		c-2.1,0-3.9,1.7-3.9,3.9s1.7,3.9,3.9,3.9s3.9-1.7,3.9-3.9S16.3,10.5,14.2,10.5z"/>
</g>
</svg>
