<?xml version="1.0" encoding="utf-8"?>
<!-- Generator: Adobe Illustrator 24.0.1, SVG Export Plug-In . SVG Version: 6.00 Build 0)  -->
<svg version="1.1" id="Camada_1" xmlns="http://www.w3.org/2000/svg" xmlns:xlink="http://www.w3.org/1999/xlink" x="0px" y="0px"
	 viewBox="0 0 50 50" style="enable-background:new 0 0 50 50;" xml:space="preserve">
<style type="text/css">
	.st0{fill:#71BAC0;}
	.st1{fill:#7ED0D6;}
	.st2{fill:none;stroke:#444444;stroke-width:2.5;stroke-linecap:round;stroke-linejoin:round;stroke-miterlimit:10;}
	.st3{fill:#444444;}
</style>
<g>
	<polygon class="st0" points="47.6,26.2 48,30.5 1.7,47.3 1.9,38.2 2.2,33 48.3,16.2 47.6,20 	"/>
	<polygon class="st1" points="47.6,9.5 47.1,17.2 2.9,33.3 2.8,23.6 3.1,19.1 47.6,2.9 	"/>
	<polyline class="st2" points="6,48.1 1.7,48.1 1.7,1.9 48.2,1.9 48.2,48.1 32.1,48.1 	"/>
	<g>
		<path class="st3" d="M22.6,30.7c0-2.6,2.1-4.7,4.7-4.7h3.2l3.7-1.7c0.2-0.6,0.4-1.2,0.5-1.8c0.2-0.8,0.3-1.6,0.4-2.4
			c0-0.6,0-1.3,0-1.9c0-0.1,0-0.1,0.1-0.2c1-0.8,1.9-1.7,2.7-2.8c0,0,0-0.1,0.1-0.1c-1,0.4-2.1,0.7-3.2,0.9h-0.1
			c1.2-0.8,2.1-1.8,2.5-3.2c-0.1,0-2.3,1.1-3.5,1.4c-0.1,0-0.1,0-0.1,0c-0.8-0.8-1.7-1.3-2.7-1.6c-0.1,0-0.3-0.1-0.4-0.1
			c-0.2,0-1.5-0.1-1.6,0c-1.2,0.1-2.3,0.6-3.2,1.4c-1,0.9-1.7,2-1.9,3.4c-0.1,0.7-0.1,1.5,0,2.2v0.1c-4.8-0.3-8.8-2.3-11.9-6
			c-0.7,1.3-1,2.7-0.6,4.2c0.3,1.5,1.2,2.6,2.4,3.5c-0.5,0-0.9-0.1-1.3-0.2c-0.4-0.1-0.9-0.3-1.3-0.5c0,1.4,0.4,2.6,1.3,3.7
			c0.9,1.1,2,1.7,3.3,2c-0.8,0.2-1.7,0.3-2.6,0.1c0.4,1.2,1.1,2.1,2.1,2.9c1,0.7,2.1,1.1,3.3,1.2c-2.5,1.9-5.3,2.7-8.5,2.4
			c0.2,0.1,0.5,0.3,0.7,0.4c1.4,0.8,2.9,1.4,4.6,1.7c1.2,0.3,5,0.3,5,0.3c2.5-0.3,4-0.9,4.2-1C23.3,33.5,22.6,32.2,22.6,30.7z"/>
		<path class="st3" d="M31.6,35.9l-1.1-0.5h-0.4l1.2,2.9c0.2,0.4,0,0.8-0.4,1c-0.1,0-0.2,0-0.3,0c-0.1,0-0.1,0-0.2,0l0,0h-0.1
			c0,0,0,0-0.1,0c0,0-0.1,0-0.3-0.4l-1.4-3.4h-1.1c-0.1,0-0.1,0-0.2,0l1.6,3.9c0.3,0.8,1.1,1.2,1.8,1.2c0.2,0,0.5-0.1,0.7-0.2
			c1-0.4,1.5-1.5,1.1-2.6L31.6,35.9z"/>
		<path class="st3" d="M37.1,27.9v-2.8c0-0.2-0.1-0.4-0.3-0.5c0,0-0.1-0.1-0.2-0.1c-0.1,0-0.1,0-0.2,0c-0.1,0-0.2,0-0.3,0.1
			l-2.6,1.2L30.7,27h-3.4c-2,0-3.7,1.7-3.7,3.7c0,1.4,0.8,2.6,1.9,3.2l0,0l0,0l0,0c0.3,0.2,0.7,0.3,1.1,0.4c0.2,0,0.4,0.1,0.6,0.1
			H28h1.6h1.1l0.3,0.1l1.3,0.6l3.9,1.8c0.1,0,0.2,0,0.3,0s0.2,0,0.3-0.1c0.2-0.1,0.3-0.3,0.3-0.5v-2.8V27.9z M35.9,35.4l-4.2-1.9
			l-0.6-0.3c-0.1,0-0.2,0-0.3,0H30h-2.8h-0.1H27c-0.4,0-0.8-0.2-1.2-0.4c-0.6-0.4-1.1-1.2-1.1-2c0-1.4,1.1-2.5,2.5-2.5h3.6
			c0.1,0,0.2,0,0.3-0.1l1.6-0.7l3.1-1.4v9.3H35.9z"/>
		<path class="st3" d="M38.3,28.8c-0.1,0-0.1,0-0.2,0H38c-0.3,0-0.6,0.3-0.6,0.6S37.7,30,38,30c0,0,0,0,0.1,0
			c0.5-0.1,0.8,0.3,0.8,0.7c0,0.1,0,0.3-0.3,0.7c-0.1,0.1-0.3,0.2-0.4,0.2c0,0-0.1,0-0.2,0c0,0,0,0-0.1,0c-0.3,0-0.6,0.3-0.6,0.6
			c0,0.3,0.3,0.6,0.6,0.6H38c0.1,0,0.1,0,0.2,0c0.4,0,0.7-0.3,0.7-0.3s0.8-0.5,0.9-1.6c0-0.1,0-0.2,0-0.3
			C39.8,29.7,39.1,28.8,38.3,28.8z"/>
	</g>
</g>
</svg>
