<svg xmlns="http://www.w3.org/2000/svg" version="1" viewBox="0 0 50 50"><path fill="#00C8E2" d="M48.14 25.193c.02-.243.04-.485.05-.73a23.075 23.075 0 0 0-2.77-11.965L47.277 5.4a.423.423 0 0 0-.45-.528l-7.264.696a13.011 13.011 0 0 0-13.19-.916 13.302 13.302 0 0 0-3.145 2.207 12.983 12.983 0 0 0-4.057 9.452c0 1.25.174 2.467.504 3.615a8.318 8.318 0 0 1-1.546.512 8.884 8.884 0 0 1-1.93.216c-4.126 0-8.264-6.64-8.444-6.64-.18 0-.244 1.47-.244 2.296 0 3.328 1.25 6.37 3.32 8.68-.114.008-.227.008-.348.008-3.85 0-8.032-5.978-8.254-5.978-.223 0-.434 2.954-.434 4.492 0 6.284 2.503 11.98 6.56 16.16l39.787-14.48z"/><path fill="#00DFFC" d="M7.99 24.3c-2.975-1.587-5.588-5.255-5.763-5.255-.223 0-.434 2.954-.434 4.492 0 1 .07 1.98.193 2.947L7.99 24.3zm37.963-13.818l1.323-5.06a.423.423 0 0 0-.45-.527l-7.264.696a12.962 12.962 0 0 0-7.36-2.288 13.01 13.01 0 0 0-5.83 1.373 13.302 13.302 0 0 0-3.145 2.207 12.99 12.99 0 0 0-4.058 9.453c0 1.25.173 2.467.503 3.615a8.343 8.343 0 0 1-1.546.512c-.617.14-1.27.217-1.93.217-4.126 0-8.264-6.64-8.444-6.64-.18 0-.244 1.47-.244 2.295 0 2.71.84 5.224 2.266 7.315l36.177-13.168z"/><path fill="#031326" d="M24.996 47.91c-6.45 0-12.513-2.483-17.115-7.016C3.19 36.272.605 30.1.605 23.514c0-2.92 0-5.68 1.624-5.68.59 0 .842.293 1.448 1.002.715.837 2.425 2.837 4.25 4.03a14.17 14.17 0 0 1-1.605-6.556c0-1.792 0-3.485 1.434-3.485.624 0 .89.355 1.377 1 2.82 3.743 5.197 5.64 7.07 5.64a7.572 7.572 0 0 0 2.066-.29 14.27 14.27 0 0 1 4.145-13.181 14.485 14.485 0 0 1 3.428-2.406 14.102 14.102 0 0 1 6.364-1.5c2.73 0 5.37.778 7.666 2.254l6.845-.655a1.61 1.61 0 0 1 1.712 2.012l-1.74 6.648a24.362 24.362 0 0 1 2.646 12.93 1.19 1.19 0 0 1-2.372-.168 22.008 22.008 0 0 0-2.586-12.049l-.223-.412 1.696-6.49-6.602.632-.354-.242c-3.523-2.418-8.2-2.725-11.985-.832a12.008 12.008 0 0 0-2.86 2.008 11.722 11.722 0 0 0-3.685 8.588c0 1.124.154 2.23.458 3.286l.286.993-.943.422c-.56.25-1.155.448-1.77.587-.724.162-1.46.246-2.19.246-2.956 0-5.693-2.605-7.47-4.695a11.82 11.82 0 0 0 2.987 7.05l1.61 1.8-2.408.177c-.142.01-.284.012-.436.012-2.888 0-5.667-2.546-7.437-4.47a31.27 31.27 0 0 0-.062 1.794c0 5.944 2.332 11.514 6.567 15.686 4.234 4.17 9.836 6.427 15.79 6.33 4.618-.07 9.04-1.592 12.79-4.403a1.189 1.189 0 1 1 1.426 1.903c-4.153 3.114-9.057 4.8-14.182 4.877l-.38.003z"/></svg>