<?xml version="1.0" encoding="utf-8"?>
<!-- Generator: Adobe Illustrator 28.0.0, SVG Export Plug-In . SVG Version: 6.00 Build 0)  -->
<svg version="1.1" id="Layer_1" xmlns="http://www.w3.org/2000/svg" xmlns:xlink="http://www.w3.org/1999/xlink" x="0px" y="0px"
	 viewBox="0 0 50 50" style="enable-background:new 0 0 50 50;" xml:space="preserve">
<style type="text/css">
	.st0{fill:#C3FF68;}
	.st1{fill:none;stroke:#444444;stroke-width:2.5;stroke-linecap:round;stroke-linejoin:round;stroke-miterlimit:10;}
	.st2{fill:none;stroke:#444444;stroke-width:0.5;stroke-linecap:round;stroke-linejoin:round;stroke-miterlimit:10;}
	.st3{fill:none;stroke:#444444;stroke-linecap:round;stroke-linejoin:round;stroke-miterlimit:10;}
</style>
<g>
	<path class="st0" d="M47.9,17.4l0.5-11l-1.9-3.8L31.1,3C27.9,3,3.2,0,3.2,3.2L1.5,23.8l1.2,23.5L16.3,48l31-11
		C48.1,36.6,48.8,19.4,47.9,17.4z"/>
	<path class="st1" d="M32.9,48h-27c-1.9,0-3.4-1.6-3.4-3.5V5.5C2.5,3.6,4.1,2,5.9,2h39c1.9,0,3.4,1.6,3.4,3.5V38"/>
	<g>
		<g>
			<line class="st2" x1="27.1" y1="5.8" x2="22.2" y2="14.8"/>
			<polyline class="st2" points="20.3,5.9 15.7,10.5 20,14.8 			"/>
			<polyline class="st2" points="30,5.9 34.6,10.5 30.3,14.8 			"/>
		</g>
		<g>
			<g>
				<path class="st3" d="M19,27.8c-1,1-4.2,4.1-5.2,5.1c-1.3,1.3-2.6,2.1-2.6,7.2c0,0.2,0,0.5,0,0.5s-1.2-0.9-2.1-1.6
					c-0.9-0.7-2.3,1-1,2.1c0.8,0.7,3.1,2.6,3.1,2.6h11.4v-1c0-0.6-0.5-1-1-1h-3.1c0,0,2.2-3,1.6-4.7c-0.6-1.6-2.2-1.9-4.3-1.3"/>
				<path class="st3" d="M22.1,23c0,0,0.5,1,0.5,3c0,1-0.7,1.9-1.7,2.1c-1.3,0.2-2.5-0.8-2.5-2c0-2,0.4-4,2.1-5.2
					c0.8-0.6,3.1-1,4.1-1c0.7,0,1.2,0.2,1.6,0.5c0.2,0.2,0.5,0.5,0.5,0.5s1.7,0,2.6,0c0.8,0,1,0.5,1,1c0,0.4-0.2,1.2-0.5,2.6
					c-1,0.4-2.7,1-4.1,1.6c0,0,1,3.4,1,5.2c0,1.8-0.3,3.1-2.6,5.2l1.6,5.2l0,0c0.6,0,1,0.5,1,1v1h-4.1"/>
			</g>
			<line class="st3" x1="36.6" y1="18" x2="32.7" y2="39.7"/>
			<path class="st3" d="M38.3,43.3v-8c0-1-0.3-1.9-0.9-2.7l-2.7-3.6"/>
			<line class="st3" x1="41.5" y1="43.7" x2="29.1" y2="43.7"/>
		</g>
	</g>
</g>
</svg>
