<?xml version="1.0" encoding="utf-8"?>
<!-- Generator: Adobe Illustrator 24.1.2, SVG Export Plug-In . SVG Version: 6.00 Build 0)  -->
<svg version="1.1" id="Layer_1" xmlns="http://www.w3.org/2000/svg" xmlns:xlink="http://www.w3.org/1999/xlink" x="0px" y="0px"
	 viewBox="0 0 50 50" style="enable-background:new 0 0 50 50;" xml:space="preserve">
<style type="text/css">
	.st0{fill:#FCC34F;}
	.st1{fill:#FDCF72;}
	.st2{fill:#444444;}
</style>
<g>
	<path class="st0" d="M4.97,45.38l41.82-15.22V8.58c0-2.97-2.41-5.37-5.38-5.38H8.58c-2.97,0-5.38,2.41-5.38,5.38v32.83
		C3.21,42.93,3.85,44.37,4.97,45.38z"/>
	<path class="st1" d="M45.02,4.62c-0.98-0.91-2.27-1.41-3.61-1.41H8.58c-2.97,0-5.38,2.41-5.38,5.38v11.26
		C3.21,19.84,45.02,4.62,45.02,4.62z"/>
	<path class="st2" d="M25,48.14H8.45c-3.64,0-6.59-2.95-6.59-6.59V8.45c0-3.64,2.95-6.59,6.59-6.59h33.09
		c3.64,0,6.59,2.95,6.59,6.59v21.74c0,0.65-0.53,1.18-1.17,1.18c-0.65,0-1.18-0.52-1.18-1.17c0,0,0,0,0,0V8.45
		c0-2.34-1.9-4.24-4.24-4.24H8.45c-2.34,0-4.24,1.9-4.24,4.24v33.09c0,2.34,1.9,4.24,4.24,4.24H25c0.65-0.02,1.19,0.49,1.21,1.14
		s-0.49,1.19-1.14,1.21C25.05,48.14,25.02,48.14,25,48.14z"/>
	<g>
		<path class="st2" d="M24.57,43.24h-3.96V27.85h-5.07v-3.3h14.1v3.3h-5.07L24.57,43.24L24.57,43.24z"/>
		<path class="st2" d="M43.54,38.05c0,1.69-0.61,3.01-1.82,3.99c-1.21,0.97-2.9,1.46-5.06,1.46c-1.99,0-3.76-0.38-5.29-1.12v-3.68
			c1.26,0.56,2.33,0.96,3.2,1.19c0.87,0.23,1.67,0.35,2.4,0.35c0.87,0,1.53-0.17,2-0.5s0.7-0.83,0.7-1.48c0-0.37-0.1-0.69-0.31-0.98
			c-0.2-0.28-0.51-0.56-0.9-0.82s-1.2-0.69-2.42-1.26c-1.14-0.54-2-1.05-2.57-1.55c-0.57-0.49-1.03-1.07-1.37-1.73
			s-0.51-1.42-0.51-2.3c0-1.65,0.56-2.95,1.68-3.9s2.67-1.42,4.64-1.42c0.97,0,1.9,0.11,2.78,0.34s1.8,0.55,2.77,0.97l-1.28,3.08
			c-1-0.41-1.82-0.69-2.47-0.86c-0.65-0.16-1.29-0.24-1.92-0.24c-0.75,0-1.32,0.17-1.72,0.52c-0.4,0.35-0.6,0.81-0.6,1.37
			c0,0.35,0.08,0.65,0.24,0.91c0.16,0.26,0.42,0.51,0.77,0.75c0.35,0.24,1.19,0.68,2.51,1.31c1.75,0.83,2.94,1.67,3.59,2.51
			S43.54,36.83,43.54,38.05z"/>
	</g>
</g>
</svg>
