<svg xmlns="http://www.w3.org/2000/svg" id="Camada_3" x="0" y="0" version="1.1" viewBox="0 0 50 50" xml:space="preserve"><style>.st3{stroke-width:.5}.st3,.st4{fill:none;stroke:#444;stroke-miterlimit:10}</style><path fill="#fdcf72" d="M46.6 2.6H4.8c-1.1 0-2 .9-2 2V21L48.6 4.8v-.2c0-1.1-.9-2-2-2z"/><path fill="#fcc34f" d="M2.8 20.9v24.7l45.8-16.3V4.6z"/><path fill="none" stroke="#444" stroke-linecap="round" stroke-linejoin="round" stroke-miterlimit="10" stroke-width="2.5" d="M25.4 48H5.9c-1.9 0-3.4-1.6-3.4-3.5v-39C2.5 3.6 4.1 2 5.9 2h39c1.9 0 3.4 1.6 3.4 3.5v25.9"/><path d="M12.4 31.2h5.4v7.6c0 1.4 1.1 2.4 2.4 2.4h10.1m-12.5-10v-8.5c0-1.4 1.2-2.4 2.6-2.4H25" class="st3"/><path d="M5.6 29.3v3.2c0 .2.1.5.3.6l2.8 1.6c.2.1.5.1.7 0l2.8-1.6c.2-.1.3-.4.3-.6v-3.2c0-.2-.1-.5-.3-.6l-2.8-1.6c-.2-.1-.5-.1-.7 0L6 28.7c-.2.1-.4.3-.4.6z" class="st4"/><path fill="#444" d="M27.9 14.6l-4 7c-.2.4.1.8.5.8h8c.4 0 .7-.5.5-.8l-4-7c-.2-.3-.8-.3-1 0z"/><path d="M30.8 38.3v5.2c0 .6.5 1.1 1.1 1.1h5.2c.6 0 1.1-.5 1.1-1.1v-5.2c0-.6-.5-1.1-1.1-1.1h-5.2c-.6-.1-1.1.4-1.1 1.1z" class="st4"/><path d="M28.4 15v-4.5c0-1.1 1-2 2.2-2h6.9m-3.1 28.4v-3.8c0-1.3 1.2-2.3 2.7-2.3h10.5M9.2 26.7V15.1c0-1.6.9-2.9 2.1-2.9h4.2" class="st3"/><circle cx="41" cy="8.6" r="3.4" class="st4"/><circle cx="19" cy="12.2" r="3.4" class="st4"/><path d="M5.4 30.9h-2M41 12v4.5c0 1.1.9 2.1 2.1 2.1h5.3M19.2 9.2V2.4" class="st3"/></svg>