<?xml version="1.0" encoding="UTF-8"?>
<svg xmlns="http://www.w3.org/2000/svg" version="1.1" viewBox="0 0 44.6 47.8">
  <defs>
    <style>
      .cls-1, .cls-2, .cls-3, .cls-4, .cls-5 {
        fill: none;
      }

      .cls-1, .cls-3 {
        stroke: #444;
        stroke-miterlimit: 10;
      }

      .cls-1, .cls-4 {
        stroke-width: .5px;
      }

      .cls-6 {
        fill: #8256d8;
      }

      .cls-7 {
        fill: #a475ef;
      }

      .cls-2, .cls-4, .cls-5 {
        stroke: #414141;
        stroke-linecap: round;
        stroke-linejoin: round;
      }

      .cls-5 {
        stroke-width: 2.5px;
      }
    </style>
  </defs>
  <!-- Generator: Adobe Illustrator 28.6.0, SVG Export Plug-In . SVG Version: 1.2.0 Build 709)  -->
  <g>
    <g id="Camada_2">
      <g>
        <polygon class="cls-6" points="23.2 20.4 30 22.5 24.2 26.6 24.3 33.8 18.6 29.5 11.8 31.8 14.1 25 9.9 19.3 17 19.4 21.1 13.6 23.2 20.4"/>
        <g>
          <g>
            <path class="cls-7" d="M40.1,11.1H3.3c-1.2,0-1.3,3.4-1.3,4.7l-.2,5.2-.5,9.1,1.1,10.5,11.1.5,28.7-10.2V13.4h0c0-1.3-1-2.3-2.3-2.3Z"/>
            <g>
              <path class="cls-5" d="M33.3,40.8H5c-1.7,0-3-1.4-3-3V14.3c0-1.7,1.4-3,3-3h34.9c1.7,0,3,1.4,3,3v19.5"/>
              <line class="cls-4" x1="2" y1="18" x2="42.9" y2="18"/>
              <g>
                <line class="cls-2" x1="5.8" y1="14.5" x2="7.3" y2="14.5"/>
                <line class="cls-2" x1="8.6" y1="14.5" x2="10.1" y2="14.5"/>
                <line class="cls-2" x1="11.5" y1="14.5" x2="13" y2="14.5"/>
              </g>
            </g>
          </g>
          <g>
            <path class="cls-1" d="M13.7,22.2c4.2-1.7,10.1-2.2,13.9-2.3s.6.7.2,1h0c-.5.3-.3,1.1.2,1.1l9.8.6c.5,0,.6.8.1,1l-8.7,5.3c-.5.2-.5,1.1,0,1.2l5.7.8c.5,0,.5.9,0,1-5.2,1.5-15.4,5.3-19.6,4.1"/>
            <path class="cls-1" d="M21.3,25.2c1.6-.7,3.2-.9,4.3-.8s.6.4.4.8l-.7.8c-.2.3.2.6.4.5h4.6c.4,0,.6.5.2.7l-4.2,1.4c-.3,0-.3.5,0,.6l.7.6c.3.2.3.6,0,.7-.9.3-2.5.5-4.6.3"/>
            <circle class="cls-3" cx="15.4" cy="29.1" r="7"/>
            <g>
              <path class="cls-3" d="M20.4,28.1c.4.4.4,1,0,1.4-.9,1-2.7,2.5-4.9,2.7-2.2.1-4.1-1.3-5.1-2.1s-.4-1,0-1.4c.9-1,2.7-2.5,4.9-2.7,2.2-.1,4.1,1.3,5.1,2.1Z"/>
              <ellipse class="cls-1" cx="15.4" cy="29.1" rx="1.1" ry="3.1" transform="translate(-1.5 .9) rotate(-3)"/>
            </g>
          </g>
        </g>
      </g>
    </g>
  </g>
</svg>