<svg xmlns="http://www.w3.org/2000/svg" id="Camada_1" data-name="Camada 1" version="1.1" viewBox="0 0 50 50"><defs><style>.cls-1{stroke-width:.5px}.cls-1,.cls-3{stroke-linecap:round;fill:none;stroke:#444;stroke-linejoin:round}</style></defs><path fill="#319327" stroke-width="0" d="M30.8 11.7l7.8 2.5-6.7 4.7.2 8.2-6.6-4.9-7.8 2.7 2.6-7.8-4.9-6.6 8.2.1 4.8-6.7 2.4 7.8z"/><path fill="#5aba52" stroke-width="0" d="M48.5 12.9V8.7l-2.9-3.3-24.7-.7c-3.5 0-17.7.2-17.7 3.7L1.9 29.2l2.6 7.9 14.2 1.2c2.2.1-6.2 7.1-4.1 6.3l5.5 1.2 14.7-5.2-.9-1.6 4.8.2 6.2-1.3 3.2-5.3c.8-.5 1.4-17.6.3-19.8z"/><g fill="none" stroke="#444" stroke-miterlimit="10"><rect width="45.5" height="32" x="2.7" y="5.7" rx="4.6" ry="4.6"/><path stroke-linecap="round" stroke-width="2.5" d="M27 45.4H14.5V45c0-3 2.4-5.4 5.4-5.4h1v-1.1H9.5c-4 0-7.2-3.2-7.2-7.2V12c0-4 3.2-7.2 7.2-7.2h32c4 0 7.2 3.2 7.2 7.2v19.4c0 4-3.2 7.2-7.2 7.2H30.9v1.1c1.2 0 2.3.4 3.3 1.1"/></g><circle cx="35.7" cy="13.1" r="2.1" class="cls-3" transform="rotate(-13.3 35.832 13.306)"/><path d="M35.7 15.2v4.7l-4.8 3.2v6.4" class="cls-1"/><circle cx="15.2" cy="13.1" r="2.1" class="cls-3"/><path d="M15.2 15.2v4.7l4.8 3.2v6.4m5.5-6.9v6.8m0-16.5v5" class="cls-1"/><circle cx="25.5" cy="20.2" r="2.1" class="cls-3"/><path d="M20.3 14.6v3.8m10.3-3.8v3.8" class="cls-1"/><circle cx="25.5" cy="10.8" r="2.1" class="cls-3" transform="rotate(-76.7 25.468 10.799)"/><circle cx="25.6" cy="34.9" r="1.3" class="cls-3"/><path d="M3 31.7h45.1" class="cls-3"/></svg>