<?xml version="1.0" encoding="utf-8"?>
<!-- Generator: Adobe Illustrator 26.5.0, SVG Export Plug-In . SVG Version: 6.00 Build 0)  -->
<svg version="1.1" id="Layer_1" xmlns="http://www.w3.org/2000/svg" xmlns:xlink="http://www.w3.org/1999/xlink" x="0px" y="0px"
	 viewBox="0 0 50 50" style="enable-background:new 0 0 50 50;" xml:space="preserve">
<style type="text/css">
	.st0{fill:#AFE55D;}
	.st1{fill:#C3FF68;}
	.st2{fill:#444444;}
	.st3{fill:none;stroke:#444444;stroke-width:0.25;stroke-miterlimit:10;}
</style>
<g>
	<polygon class="st0" points="46.13,32.79 48.85,39.55 34.55,44.88 12.67,46.32 7.12,42.31 41.57,32.79 	"/>
	<polygon class="st1" points="31.93,32.79 29.82,19.27 2.45,29.19 4.59,36.94 7.85,43.19 9.41,45.46 44.8,32.59 	"/>
	<g>
		<g>
			<path class="st2" d="M23.93,14.02c-3.27-0.53-4.71-4.31-2.63-6.88c0.92-1.13,2.42-1.71,3.86-1.47c3.27,0.53,4.71,4.31,2.63,6.88
				C26.87,13.68,25.36,14.25,23.93,14.02z M26.07,7.92c-1.48-1.15-3.6-0.34-3.94,1.5c-0.16,0.87,0.19,1.79,0.89,2.33
				c1.48,1.15,3.6,0.34,3.94-1.5C27.12,9.39,26.76,8.46,26.07,7.92z"/>
		</g>
		<path class="st2" d="M27.07,6.77c-0.11,0.25-0.41,0.37-0.67,0.25l-1-0.45c-0.25-0.11-0.37-0.41-0.25-0.67l1.31-2.92
			c0.11-0.25,0.41-0.37,0.67-0.25l1,0.45c0.25,0.11,0.37,0.41,0.25,0.67L27.07,6.77z"/>
		<path class="st2" d="M21.03,20.46c-0.11,0.25-0.41,0.37-0.67,0.25l-1-0.45c-0.25-0.11-0.37-0.41-0.25-0.67l1.31-2.92
			c0.11-0.25,0.41-0.37,0.67-0.25l1,0.45c0.25,0.11,0.37,0.41,0.25,0.67L21.03,20.46z"/>
		<polygon class="st2" points="10.51,25.08 10.59,21.46 21.55,11.31 23.18,12.88 		"/>
		<polygon class="st2" points="22.51,30.46 25.15,27.99 25.43,13.05 23.18,12.88 		"/>
		
			<rect x="20.02" y="11.2" transform="matrix(0.4089 -0.9126 0.9126 0.4089 -4.6957 29.8899)" class="st2" width="1.4" height="14.73"/>
	</g>
	<path class="st2" d="M46.32,32.04c-0.15-0.25-0.42-0.41-0.73-0.4l-12.57,0.47c-0.4,0.01-0.76-0.25-0.84-0.64
		c-0.92-4.16-1.41-8.79-1.67-12.95c-0.03-0.43-0.37-0.75-0.8-0.76c-0.01,0-0.01,0-0.02,0c-0.48-0.01-0.88,0.38-0.85,0.87
		c0.25,4.04,0.72,8.53,1.58,12.62c0.1,0.5-0.26,0.97-0.77,0.99l-11.94,0.44c-0.36,0.01-0.65,0.25-0.75,0.57
		c-0.12,0.31-0.05,0.68,0.21,0.92c2.13,1.93,3.01,4.45,2.42,6.9c-0.52,2.15-2.12,3.88-4.08,4.41c-0.26,0.07-0.52,0.11-0.78,0.14
		l-0.35,0.01c0,0-0.01,0-0.01,0c-1.86,0.07-3.81-0.84-5.58-2.69C2.4,36.3,2.28,14.64,2.37,8.64C2.38,8.2,2.73,7.85,3.16,7.83
		L17.56,7.3c0.44-0.02,0.78-0.37,0.79-0.81c0-0.01,0-0.01,0-0.02C18.36,6,17.97,5.62,17.5,5.63L1.54,6.22
		c-0.44,0.02-0.79,0.36-0.8,0.8C0.69,8.2-0.3,35.9,7.59,44.1c1.7,1.76,3.34,2.62,4.76,2.99c0.87,0.22,1.65,0.25,2.32,0.2l27.65-1.02
		c0,0,0,0,0,0l0,0.01c2.89-0.12,5.45-2.08,6.5-4.99C50,38.06,49.06,34.62,46.32,32.04z M47.26,40.72c-0.82,2.26-2.77,3.78-4.97,3.89
		c-0.01,0-0.02-0.01-0.03,0l-23.41,0.87c1.13-1.03,1.98-2.41,2.36-4.01c0.6-2.51-0.02-5.05-1.68-7.17l12-0.44
		c0.11,0.02,0.23,0.02,0.35-0.01c0,0,0,0,0.01,0l13.36-0.49C47.43,35.42,48.19,38.16,47.26,40.72z"/>
	<circle class="st3" cx="15.3" cy="20.28" r="9.7"/>
	<circle class="st3" cx="12" cy="26.47" r="6.6"/>
	<path class="st3" d="M28.96,32.79c0-4.77-3.87-8.64-8.64-8.64s-8.64,3.87-8.64,8.64s3.87,8.64,8.64,8.64"/>
</g>
</svg>
