<?xml version="1.0" encoding="utf-8"?>
<!-- Generator: Adobe Illustrator 26.5.0, SVG Export Plug-In . SVG Version: 6.00 Build 0)  -->
<svg version="1.1" id="Camada_3" xmlns="http://www.w3.org/2000/svg" xmlns:xlink="http://www.w3.org/1999/xlink" x="0px" y="0px"
	 viewBox="0 0 50 50" style="enable-background:new 0 0 50 50;" xml:space="preserve">
<style type="text/css">
	.st0{fill:#4ECDC4;}
	.st1{fill:#46B8B0;}
	.st2{fill:none;stroke:#444444;stroke-width:2.5;stroke-linecap:round;stroke-linejoin:round;stroke-miterlimit:10;}
	.st3{fill:none;stroke:#444444;stroke-linecap:round;stroke-linejoin:round;stroke-miterlimit:10;}
	.st4{fill:none;stroke:#444444;stroke-width:0.5;stroke-linecap:round;stroke-linejoin:round;stroke-miterlimit:10;}
</style>
<g>
	<g>
		<polygon class="st0" points="36.05,4.59 43.32,10.07 45.24,16.77 2.19,32.47 3.08,18.85 8.85,8.69 22.62,2.39 		"/>
		<polygon class="st1" points="47.4,20.8 47.89,29.59 9.76,43.29 7.14,40.82 4.22,35.59 2.08,27.65 43.82,11.61 45.96,15.77 		"/>
		<g>
			<path class="st2" d="M6.74,11.64c-7.7,10.24-5.65,24.77,4.6,32.46c7.48,5.63,17.25,6.05,24.98,1.85
				c0.17-0.09,0.35-0.19,0.52-0.29"/>
			<path class="st2" d="M6.61,11.8c2.01-2.95,4.68-4.68,4.68-4.68l0.65-0.53c7.99-5.62,19.02-5.76,27.26,0.45
				c9.14,6.87,11.76,19.18,6.74,29.03L45.98,36"/>
		</g>
	</g>
	<g>
		<path class="st3" d="M24.29,26.49l1.5,0c0.47,0,1.21,0.3,1.5,0.75h1.5c0.7,0,1.5,0.66,1.5,1.5l1.5,0c0.7,0,1.5,0.66,1.5,1.5
			l0,7.49c0,1.51-1.5,2.73-1.5,3.74c0,1.01,0,0.75,0,0.75"/>
		<path class="st3" d="M24.29,30.98l0-9.73c0-0.83-0.67-1.5-1.5-1.5c-0.83,0-1.5,0.67-1.5,1.5l0,11.23l-1,0.96l-1.96-3.03
			c-1.2-1.65-3.03-0.72-3.03,0c0,0,2.27,6.5,2.6,7.01c0.52,0.82,2.64,2.66,2.64,3.3c0,0.64,0,1.5,0,1.5"/>
		<line class="st3" x1="27.28" y1="27.24" x2="27.28" y2="30.98"/>
		<line class="st3" x1="30.28" y1="28.74" x2="30.28" y2="31.73"/>
		<polyline class="st3" points="33.55,46.99 33.27,42.21 19.05,42.21 19.05,47.23 		"/>
		<path class="st4" d="M21.29,21.25c0,0-4.1-1.79-4.1-4.97c0-3.81,5.29-5.29,9.53,1.06s8.17,2.1,8.47,0
			c0.53-3.71-4.76-6.88-8.47-7.41"/>
		<line class="st4" x1="21.29" y1="45.71" x2="22.79" y2="45.71"/>
		<line class="st4" x1="19.46" y1="44.24" x2="33.27" y2="44.24"/>
	</g>
</g>
</svg>
