<svg xmlns="http://www.w3.org/2000/svg" viewBox="0 0 44.6 47.8"><defs><style>.cls-1,.cls-3{fill:none;stroke:#444;stroke-miterlimit:10}.cls-1{stroke-width:.5px}</style></defs><g id="Camada_2"><path fill="#8256d8" d="M23.2 20.4l6.8 2.1-5.8 4.1.1 7.2-5.7-4.3-6.8 2.3 2.3-6.8-4.2-5.7 7.1.1 4.1-5.8 2.1 6.8z"/><path fill="#a475ef" d="M40.1 11.1H3.3c-1.2 0-1.3 3.4-1.3 4.7L1.8 21l-.5 9.1 1.1 10.5 11.1.5 28.7-10.2V13.4c0-1.3-1-2.3-2.3-2.3z"/><path fill="none" stroke="#414141" stroke-linecap="round" stroke-linejoin="round" stroke-width="2.5" d="M33.3 40.8H5c-1.7 0-3-1.4-3-3V14.3c0-1.7 1.4-3 3-3h34.9c1.7 0 3 1.4 3 3v19.5"/><path fill="none" stroke="#414141" stroke-linecap="round" stroke-linejoin="round" stroke-width=".5" d="M2 18h40.9"/><path fill="none" stroke="#414141" stroke-linecap="round" stroke-linejoin="round" d="M5.8 14.5h1.5m1.3 0h1.5m1.4 0H13"/><path d="M13.7 22.2c4.2-1.7 10.1-2.2 13.9-2.3s.6.7.2 1c-.5.3-.3 1.1.2 1.1l9.8.6c.5 0 .6.8.1 1l-8.7 5.3c-.5.2-.5 1.1 0 1.2l5.7.8c.5 0 .5.9 0 1-5.2 1.5-15.4 5.3-19.6 4.1" class="cls-1"/><path d="M21.3 25.2c1.6-.7 3.2-.9 4.3-.8s.6.4.4.8l-.7.8c-.2.3.2.6.4.5h4.6c.4 0 .6.5.2.7l-4.2 1.4c-.3 0-.3.5 0 .6l.7.6c.3.2.3.6 0 .7-.9.3-2.5.5-4.6.3" class="cls-1"/><circle cx="15.4" cy="29.1" r="7" class="cls-3"/><path d="M20.4 28.1c.4.4.4 1 0 1.4-.9 1-2.7 2.5-4.9 2.7-2.2.1-4.1-1.3-5.1-2.1s-.4-1 0-1.4c.9-1 2.7-2.5 4.9-2.7 2.2-.1 4.1 1.3 5.1 2.1z" class="cls-3"/><ellipse cx="15.4" cy="29.1" class="cls-1" rx="1.1" ry="3.1" transform="rotate(-3 16.435 29.091)"/></g></svg>