<svg xmlns="http://www.w3.org/2000/svg" id="Layer_1" x="0" y="0" version="1.1" viewBox="0 0 50 50" xml:space="preserve"><style>.st2{stroke-width:.5}.st2,.st3{fill:none;stroke:#444;stroke-linecap:round;stroke-miterlimit:10;stroke-linejoin:round}</style><path fill="#fc9d9a" d="M44.6 12.4L39 8.8l-7.7-4.4-6-2.8c-3.2 0-21.5 8.9-21.5 12.1l-.5 7.8.5 15.1 11.5 7.6 31-11c.8-.5-.7-18.8-1.7-20.8z"/><path fill="none" stroke="#444" stroke-linecap="round" stroke-linejoin="round" stroke-miterlimit="10" stroke-width="2.5" d="M29.8 46.5l-2.2 1.3c-1.7 1-3.8 1-5.5 0l-15.6-9c-1.7-1-2.7-2.8-2.7-4.7V16c0-2 1-3.8 2.7-4.7l15.6-9c1.7-1 3.8-1 5.5 0l15.6 9c1.7 1 2.7 2.8 2.7 4.7v18c0 2-1 3.8-2.7 4.7l-2.5 1.4"/><path d="M39.6 33.5V31c0-.2-.2-.4-.4-.4l-1.2-.1-.4-1 .8-.9c.2-.2.1-.4 0-.6l-1.8-1.8c-.2-.2-.4-.2-.6 0l-.9.8-1-.4-.1-1.3c0-.2-.2-.4-.4-.4h-2.5c-.2 0-.4.2-.4.4l-.1 1.3-1 .4-.9-.8c-.2-.2-.4-.1-.6 0L26.4 28c-.2.2-.2.4 0 .6l.8.9-.4 1-1.3.1c-.2 0-.4.2-.4.4v2.5c0 .2.2.4.4.4l1.3.1.4 1-.8.9c-.2.2-.1.4 0 .6l1.8 1.8c.2.2.4.2.6 0l.9-.8 1 .4.1 1.3c0 .2.2.4.4.4h2.5c.2 0 .4-.2.4-.4l.1-1.3 1-.4.9.8c.2.2.4.1.6 0l1.8-1.8c.2-.2.2-.4 0-.6l-.9-.9.4-1 1.3-.1c.2 0 .3-.2.3-.4z" class="st2"/><circle cx="32.4" cy="32.2" r="2.8" class="st2"/><path d="M33.7 16.2c0-1.8-4.6-3.2-10.3-3.2-5.7 0-10.3 1.5-10.3 3.2m0 4.8c0 1.8 4.6 3.2 10.3 3.2 1.6 0 3-.1 4.3-.3m-14.6 1.9c0 1.8 4.6 3.2 10.3 3.2m-10.3 1.6c0 1.7 4.4 3.2 9.9 3.2" class="st3"/><path d="M23.4 38.6c-5.7 0-10.3-1.5-10.3-3.2V16.2c0 1.8 4.6 3.2 10.3 3.2 5.7 0 10.3-1.5 10.3-3.2v7.1" class="st3"/><path fill="none" stroke="#444" stroke-linecap="round" stroke-miterlimit="10" stroke-width=".5" d="M21.4 14.5s-1.8 0-1.8 1.4c0 0 0 1.6 1.7 1.6 0 0 2.4.1 2.4-1.8 0 0 0-1.3 2.1-1.3 0 0 1.9 0 1.9 1.5 0 0 .2 1.5-2 1.5M18.3 16H29"/></svg>