<?xml version="1.0" encoding="utf-8"?>
<!-- Generator: Adobe Illustrator 28.0.0, SVG Export Plug-In . SVG Version: 6.00 Build 0)  -->
<svg version="1.1" id="Layer_1" xmlns="http://www.w3.org/2000/svg" xmlns:xlink="http://www.w3.org/1999/xlink" x="0px" y="0px"
	 viewBox="0 0 50 50" style="enable-background:new 0 0 50 50;" xml:space="preserve">
<style type="text/css">
	.st0{fill:#FC9D9A;}
	.st1{fill:none;stroke:#444444;stroke-width:2.5;stroke-linecap:round;stroke-linejoin:round;stroke-miterlimit:10;}
	.st2{fill:none;stroke:#444444;stroke-width:0.5;stroke-linecap:round;stroke-linejoin:round;stroke-miterlimit:10;}
	.st3{fill:none;stroke:#444444;stroke-linecap:round;stroke-linejoin:round;stroke-miterlimit:10;}
	.st4{fill:none;stroke:#444444;stroke-width:0.5;stroke-linecap:round;stroke-miterlimit:10;}
</style>
<path class="st0" d="M44.6,12.4l-5.6-3.6l-7.7-4.4l-6-2.8c-3.2,0-21.5,8.9-21.5,12.1l-0.5,7.8l0.5,15.1l11.5,7.6l31-11
	C47.1,32.7,45.6,14.4,44.6,12.4z"/>
<g>
	<g>
		<path class="st1" d="M29.8,46.5l-2.2,1.3c-1.7,1-3.8,1-5.5,0l-15.6-9c-1.7-1-2.7-2.8-2.7-4.7V16c0-2,1-3.8,2.7-4.7l15.6-9
			c1.7-1,3.8-1,5.5,0l15.6,9c1.7,1,2.7,2.8,2.7,4.7v18c0,2-1,3.8-2.7,4.7l-2.5,1.4"/>
	</g>
</g>
<g>
	<path class="st2" d="M39.6,33.5V31c0-0.2-0.2-0.4-0.4-0.4L38,30.5c-0.2-0.5-0.2-0.5-0.4-1l0.8-0.9c0.2-0.2,0.1-0.4,0-0.6l-1.8-1.8
		c-0.2-0.2-0.4-0.2-0.6,0L35.1,27c-0.5-0.2-0.5-0.2-1-0.4l-0.1-1.3c0-0.2-0.2-0.4-0.4-0.4h-2.5c-0.2,0-0.4,0.2-0.4,0.4l-0.1,1.3
		c-0.5,0.2-0.5,0.2-1,0.4l-0.9-0.8c-0.2-0.2-0.4-0.1-0.6,0L26.4,28c-0.2,0.2-0.2,0.4,0,0.6l0.8,0.9C27,30,27,30,26.8,30.5l-1.3,0.1
		c-0.2,0-0.4,0.2-0.4,0.4v2.5c0,0.2,0.2,0.4,0.4,0.4l1.3,0.1c0.2,0.5,0.2,0.5,0.4,1l-0.8,0.9c-0.2,0.2-0.1,0.4,0,0.6l1.8,1.8
		c0.2,0.2,0.4,0.2,0.6,0l0.9-0.8c0.5,0.2,0.5,0.2,1,0.4l0.1,1.3c0,0.2,0.2,0.4,0.4,0.4h2.5c0.2,0,0.4-0.2,0.4-0.4l0.1-1.3
		c0.5-0.2,0.5-0.2,1-0.4l0.9,0.8c0.2,0.2,0.4,0.1,0.6,0l1.8-1.8c0.2-0.2,0.2-0.4,0-0.6L37.6,35c0.2-0.5,0.2-0.5,0.4-1l1.3-0.1
		C39.5,33.9,39.6,33.7,39.6,33.5z"/>
	<circle class="st2" cx="32.4" cy="32.2" r="2.8"/>
</g>
<g>
	<g>
		<path class="st3" d="M33.7,16.2c0-1.8-4.6-3.2-10.3-3.2c-5.7,0-10.3,1.5-10.3,3.2"/>
		<path class="st3" d="M13.1,21c0,1.8,4.6,3.2,10.3,3.2c1.6,0,3-0.1,4.3-0.3"/>
		<path class="st3" d="M13.1,25.8c0,1.8,4.6,3.2,10.3,3.2"/>
		<path class="st3" d="M13.1,30.6c0,1.7,4.4,3.2,9.9,3.2"/>
		<path class="st3" d="M23.4,38.6c-5.7,0-10.3-1.5-10.3-3.2V16.2c0,1.8,4.6,3.2,10.3,3.2c5.7,0,10.3-1.5,10.3-3.2v7.1"/>
	</g>
</g>
<g>
	<path class="st4" d="M21.4,14.5c0,0-1.8,0-1.8,1.4c0,0,0,1.6,1.7,1.6c0,0,2.4,0.1,2.4-1.8c0,0,0-1.3,2.1-1.3c0,0,1.9,0,1.9,1.5
		c0,0,0.2,1.5-2,1.5"/>
	<line class="st4" x1="18.3" y1="16" x2="29" y2="16"/>
</g>
</svg>
