<?xml version="1.0" encoding="UTF-8"?>
<svg xmlns="http://www.w3.org/2000/svg" version="1.1" viewBox="0 0 290.3 278.9">
  <defs>
    <style>
      .cls-1 {
        mix-blend-mode: screen;
        opacity: .2;
      }

      .cls-2 {
        fill: #f2f2f2;
      }

      .cls-2, .cls-3, .cls-4, .cls-5, .cls-6 {
        stroke-width: 0px;
      }

      .cls-7 {
        isolation: isolate;
      }

      .cls-3 {
        fill: #ba784a;
      }

      .cls-4 {
        fill: #a9c412;
        mix-blend-mode: multiply;
        opacity: .8;
      }

      .cls-5 {
        fill: #54c654;
      }

      .cls-6 {
        fill: #008dd3;
      }
    </style>
  </defs>
  <g class="cls-7">
    <g id="Camada_3" data-name="Camada 3">
      <g>
        <g id="Camada_10" data-name="Camada 10">
          <path class="cls-6" d="M268.4,138.9c0,19.4-4,37.8-11.4,54.6-20.7,46.7-67.2,79.2-121.5,79.4-14.4,0-28.3-2.3-41.4-6.4-24.5-7.8-45.9-22.5-61.9-42-16.7-20-27.5-45.1-30.2-72.5-.4-3.9-.6-8-.6-12.1-.2-45.3,22.3-85.5,56.8-109.7,4.5-3.2,9.2-6.1,14.1-8.6,6.9-3.7,14.1-6.7,21.6-9.2,7.1-2.3,14.4-3.9,22-5.1,6.1-.8,12.3-1.3,18.5-1.4,24.5,0,47.5,6.5,67.4,17.9,3.6,2.1,7,4.2,10.3,6.7,15.9,11.3,29.2,26,38.9,43,1.1,2,2.2,3.8,3.1,5.9.8,1.8,1.7,3.4,2.5,5.2,2.5,5.7,4.7,11.5,6.5,17.4,2,6.7,3.4,13.6,4.2,20.6h0c.7,5.3,1.1,10.7,1.1,16.2Z"/>
        </g>
        <g>
          <path class="cls-5" d="M275.1,91.5c.4-1.2.5-2.5.4-3.8-.2-1.4-.8-2.8-1.6-4.2-.9-1.3-2-2.5-3.2-3.3-1.3-.8-2.6-1.3-3.9-1.5-2.7-.4-5.1.6-6.8,2.5,1.8-1.9,2.5-4.3,1.8-7-.6-2.6-2.8-5.2-6-6.7-3.3-1.4-6.7-1.2-9.1.2-2.4,1.3-3.7,3.6-3.8,6.2.2-2.5-.8-5-3-6.6-2.1-1.7-5.4-2.3-8.7-1.5-3.3.9-5.7,2.9-6.8,5.3-1.1,2.4-1,4.9.3,7.2-1.2-2.2-3.3-3.7-5.9-4.1-1.3-.2-2.6,0-4,.4-1.4.4-2.7,1.2-3.9,2.2-1.1,1.1-2.1,2.2-2.7,3.5-.6,1.3-.9,2.6-.9,3.9,0,2.6,1.1,4.9,3.1,6.5h0c-2-1.6-4.5-2.2-7-1.6-2.5.5-4.9,2.3-6.4,4.9-1.5,2.6-1.7,5.6-1,7.9.8,2.4,2.6,4.3,4.9,5.2-2.4-.9-5-.8-7.1.5-1.1.6-2.1,1.5-2.9,2.5-.8,1.1-1.4,2.4-1.8,3.8-1.4,5.8,2.1,11,7.2,11.6-1.5,3.5-3.4,5.6-6.2,4.9-12.7-2.9-6-19.8-2.4-31.4,1.1-.4,2-1.1,2.9-1.9,1.8-1.8,2.9-4.4,2.7-7.3,0-2.9-1.4-5.5-3.2-7.1-1.8-1.7-4.3-2.4-6.9-2,2.5-.4,4.6-1.8,6-4,1.4-2.2,1.6-5,.9-7.9-.9-2.9-2.7-5.1-5.1-6.2-2.3-1.1-4.8-1.2-7.1-.1,2.3-1.1,3.9-3,4.5-5.5.7-2.5,0-5.4-1.6-8-.9-1.2-2-2.3-3.1-3-1.2-.7-2.5-1.2-3.7-1.4-2.5-.4-5,.5-6.8,2.3,1.8-1.8,2.7-4.2,2.5-6.8-.3-2.5-1.7-5.2-4.2-6.9-1.2-.9-2.6-1.5-4-1.8-1.4-.3-2.7-.3-3.9,0-2.5.5-4.5,2.1-5.6,4.4,1.2-2.3,1.2-4.8.1-7.2-.5-1.2-1.3-2.2-2.4-3.1-1-.9-2.3-1.7-3.8-2.1-2.9-1-5.8-.5-8,.7-2.2,1.3-3.7,3.4-4,5.9h0c.4-2.5-.3-5-2-6.9-1.7-1.9-4.4-3.1-7.4-3.1-3,0-5.8,1.2-7.5,3.1-1.7,1.9-2.4,4.3-2,6.9-.1-.7-.3-1.3-.5-1.9,0,0,0,0,0,0-.8-2.4-2.6-4.2-5.3-5-1.3-.3-2.7-.4-4.2-.1-1.1.2-2.3.7-3.4,1.3-1.1.6-2.2,1.2-3,2-1,1.1-1.8,2.3-2.3,3.5-.9,2.6-.4,5.1,1.1,7.1,0,0,0,0,0,0,.3.5.7,1,1.2,1.5-1.8-1.8-4.2-2.6-6.8-2.3-2.5.3-5.1,1.9-6.8,4.4-1.7,2.5-2.3,5.4-1.7,7.9.6,2.5,2.2,4.5,4.5,5.6h0c-2.3-1.1-4.8-1.1-7.2,0-2.3,1.1-4.3,3.3-5.1,6.2-.5,1.4-.6,2.9-.4,4.3.1,1.4.5,2.6,1.2,3.7,1.3,2.2,3.4,3.6,6,4-2.5-.4-4.9.4-6.8,2.2-1,.9-1.7,2-2.2,3.3-.5,1.3-.8,2.7-.8,4.3,0,3.1,1.4,5.8,3.3,7.4,2,1.7,4.5,2.3,7,1.8-2.5.5-4.6,2-5.7,4.3-.6,1.1-.9,2.4-1,3.8,0,1.4.2,2.9.7,4.3,1.2,2.8,3.2,5,5.7,5.8,2.4.9,4.9.7,7.1-.6-2.2,1.3-3.6,3.4-4,5.9-.4,2.6.4,5.3,2.3,7.7,2,2.2,4.5,3.7,7.1,3.7,2.5.1,4.9-.8,6.6-2.7-1.7,1.9-2.6,4.4-2.2,6.8.3,2.4,1.7,5,4,6.7,2.3,1.8,5.1,2.3,7.5,1.9,1.2-.2,2.3-.6,3.2-1.3,11.5,3.6,29.4,7.7,24.5,19.8-1.1,2.7-3.9,3.1-7.6,2.3,2.4-4.5.1-10.4-5.5-12.5-1.4-.5-2.8-.7-4.1-.7-1.4,0-2.6.4-3.8,1-2.2,1.1-3.9,3.1-4.4,5.6.6-2.5,0-5-1.5-7-1.5-1.9-4.1-3.5-7.1-3.7-3-.3-5.8.7-7.7,2.5-1.9,1.7-2.8,4.1-2.6,6.7h0c-.2-2.6-1.4-4.8-3.6-6.2-1.1-.7-2.3-1.2-3.7-1.4-1.4-.2-2.9-.1-4.4.2-1.5.4-2.9,1.1-4,2-1.1.9-2,2-2.6,3.1-1.2,2.4-1.2,4.9,0,7.2-1.1-2.3-3.2-3.8-5.8-4.3-2.6-.4-5.7.4-8.2,2.6-2.5,2.2-3.9,5.3-3.7,8,0,2.7,1.5,4.9,3.7,6.2-2.1-1.3-4.8-1.6-7.2-.4-2.5,1.2-4.6,3.9-5.3,7.4-.7,3.5.3,6.8,2.1,8.8,1.8,2,4.2,2.8,6.8,2.5-2.5.3-4.7,1.8-5.9,4.2-.6,1.2-.9,2.6-.9,4.1,0,1.5.3,3,.9,4.5.7,1.4,1.6,2.8,2.6,3.7,1,.8,2.2,1.5,3.3,1.8,2.3.8,4.9.5,7-.8h0c-2.2,1.3-3.6,3.4-4.1,5.9-.4,2.4.2,5.1,1.8,7.5,1.5,2.4,4.1,3.7,6.5,4.1,2.4.4,4.9-.3,6.8-1.9h0c-1.9,1.6-3.1,4-3,6.5,0,2.4,1.1,5,3.1,7.1,2.1,2,4.8,2.9,7.3,2.8,2.4,0,4.7-1.2,6.3-3.2h0c-1.6,2-2.1,4.5-1.6,6.9.2,1.2.8,2.4,1.5,3.5.7,1.1,1.7,2.1,3,2.9,2.5,1.5,5.3,2,7.7,1.4,2.4-.7,4.4-2.3,5.5-4.6,0,0,0,0,0,0-1.1,2.3-1.1,4.8,0,7.1.5,1.1,1.2,2.3,2.3,3.1,1,.8,2.3,1.5,3.7,2,1.4.5,2.8.7,4.1.6,1.4-.1,2.6-.6,3.7-1.2,2.2-1.2,3.7-3.2,4.2-5.7,0,0,0,0,0,0-.5,2.5.1,5,1.7,7,1.6,1.9,4.1,3.2,7.1,3.5,1.5.2,2.9-.1,4.2-.6,1.3-.5,2.4-1.2,3.3-2,1.8-1.7,2.8-4,2.7-6.6h0c.1,2.6,1.4,4.8,3.4,6.2,2,1.4,4.8,2.2,7.7,1.8,2.9-.6,5.2-2.3,6.6-4.3,1.4-2,1.8-4.5,1-7h0c.7,2.4,2.4,4.3,4.7,5.3,2.2,1,5.1,1.2,7.8,0,3.3-1.5,5.4-4.2,5.9-7.2,2-3,2.9-7.3,3.7-12.3,3.6-22,22.9-32.1,43.1-22.6,4.5,2.1,8.6,3.9,12.2,4,2.7,1.2,6.2,1,9.3-.8,2.4-1.6,3.9-4.1,4.4-6.5.5-2.4,0-4.9-1.7-6.9h0c1.6,2,3.9,3.1,6.4,3.1,2.5,0,5.1-1,7.3-3,2-2.1,3-4.9,2.9-7.3,0-2.5-1.2-4.7-3.2-6.3h0c2,1.6,4.5,2.1,6.9,1.5,1.2-.3,2.4-.8,3.5-1.6,1.1-.8,2.2-1.8,2.8-3.1,1.4-2.6,1.8-5.5,1.2-7.8-.7-2.4-2.5-4.3-4.8-5.4,0,0,0,0,0,0,2.3,1,4.8.9,7.1-.2,1.1-.6,2.2-1.4,3.1-2.4.8-1.1,1.4-2.3,1.8-3.8.4-1.4.5-2.8.4-4.2,0-1.3-.7-2.6-1.3-3.7-1.3-2.2-3.4-3.6-5.9-4,0,0,0,0,0,0,2.5.4,4.9-.3,6.9-1.9,1.8-1.6,3-4.2,3.2-7.1.1-1.5-.1-2.8-.6-4.1-.5-1.3-1.2-2.4-2.1-3.3-1.7-1.8-4.1-2.7-6.6-2.6h0c2.6-.2,4.8-1.4,6.2-3.4,1.4-2,2.2-4.7,1.8-7.6-.6-2.8-2.1-5.2-4.1-6.6-2-1.4-4.6-1.8-7-1.2h0c2.5-.7,4.4-2.3,5.5-4.5,1-2.2,1.5-5.1.3-7.7-1-2.7-2.9-4.7-5.1-5.7-2.3-1-4.8-1-7.2,0h0c2.3-1.1,3.9-3,4.6-5.4Z"/>
          <path class="cls-3" d="M278.2,126.4c-.2-.1-.5,0-.7.1h0c0,0-.5.7-1.5,1.9-.5.6-1,1.3-1.8,2-.8.7-1.5,1.6-2.5,2.4-1,.8-2,1.7-3.2,2.5-1.2.8-2.4,1.7-3.8,2.5-1.4.8-2.7,1.7-4.2,2.4-1.5.8-3,1.6-4.5,2.3-6.1,2.9-12.5,5.2-17.4,6.7-1.2.4-2.3.7-3.3,1,0-.2.2-.3.3-.5,1.6-3.6,3.3-7.1,4.8-10.7,1.4-3.6,2.7-7.2,4-10.6,1.1-3.5,2.2-6.9,3.2-10.1,1-3.2,1.6-6.3,2.4-9.2.7-2.8,1.4-5.4,1.7-7.8.4-2.3.8-4.4,1.1-6.1.6-3.4.9-5.3.9-5.3,0-.3-.1-.6-.4-.6-.3,0-.5.1-.6.4h0s-.4,1.9-1.2,5.2c-.4,1.6-.8,3.6-1.4,6-.5,2.3-1.3,4.9-2.1,7.6-.9,2.8-1.6,5.8-2.7,8.9-1.1,3.1-2.3,6.4-3.6,9.8-1.4,3.3-2.9,6.7-4.5,10.2-1.7,3.4-3.5,6.8-5.2,10.2-2,3.3-3.8,6.7-5.9,9.8-2.1,3.1-4.1,6.3-6.3,9.1-2.1,2.9-4.3,5.6-6.4,8.1-2.1,2.5-4.3,4.7-6.2,6.8-2,2-3.9,3.8-5.6,5.3-1.7,1.6-3.3,2.8-4.5,3.8-1.3,1-2.3,1.8-3,2.2-.2.2-.4.3-.6.4l-12.9-23.8c.7-.7,1.5-1.6,2.4-2.7.5-.7,1.1-1.5,1.8-2.4.6-.9,1.2-1.8,1.8-2.7,1.1-1.9,2.3-4,3.3-6.2,2.1-4.3,3.8-8.7,4.9-12.1,1.1-3.4,1.8-5.6,1.8-5.6,0-.3,0-.6-.4-.6-.3,0-.5,0-.6.3,0,0-.8,2.2-2.1,5.4-1.4,3.2-3.3,7.5-5.6,11.5-1.1,2-2.4,4-3.6,5.7-.6.9-1.3,1.7-1.9,2.5-.6.7-1.2,1.4-1.8,2.1-.6.6-1.2,1.2-1.7,1.7l-21.8-40.2c.7-.7,2-2.1,3.5-4.2,2.5-3.3,4.9-7.5,6.4-11.4.4-1,.8-2,1.1-3v-.4c.4-.8.6-1.6.8-2.3l.2-1c.2-.8.3-1.5.5-2.2l.2-.9c.2-1,.3-2,.4-2.9.2-1.8.2-3.4.2-4.3v-1.6c0-.4-.3-.7-.7-.7-.1,0-.3,0-.4,0l-.4.3v1.9c-.2.8-.3,2.3-.6,4.1-.1.8-.3,1.7-.5,2.7l-.2.9c-.2.7-.3,1.3-.6,2-.1.3-.2.7-.3,1-.2.7-.4,1.4-.8,2.1l-.2.4c-.4.9-.7,1.8-1.2,2.7-1.7,3.6-4.2,7.3-6.7,10.3-1,1.2-2,2.2-2.7,2.8l-20.8-38.4c.6-1,2-3.7,2.9-5.7.7-1.6,1.6-3.8,2.3-6.2.7-2.3,1.3-4.9,1.7-7.5,0-.4.1-.9.2-1.3.1-.9.2-1.7.2-2.5v-.6c0-1,.1-2.1,0-3.1,0-1.2,0-2.4-.3-3.5v-.9c-.2-.8-.3-1.5-.5-2.2l-.7-2.6-1.3-3.5c-.1-.4-.5-.6-1-.4-.3.2-.5.5-.4.9l1.1,3.6.5,2.4c.1.6.2,1.3.2,2v.9c.2,1,.2,2.1.1,3.3,0,.9,0,1.8-.2,2.8v.7c-.1.8-.3,1.5-.4,2.3,0,.4-.2.9-.2,1.3-.5,2.5-1.2,4.8-2.1,6.9-.8,2.2-1.8,4.3-2.5,5.7-.7,1.3-1.3,2.4-1.8,3.2l-30.4-56.1c-.3.2,0-.1-.2,0,.9,1.8,1.9,3.8,2.9,5.7.9,1.7,1.8,3.4,2.7,5.2.2.4.4.8.6,1.2,1,2,2.1,4.1,3.2,6.2.5,1.1,1.1,2.1,1.7,3.2.9,1.8,1.9,3.7,2.9,5.6.5.9.9,1.8,1.4,2.8.8,1.7,1.7,3.3,2.6,5,1,2,2,4,3,6,.3.5.6,1.1.8,1.6,2.8,5.4,5.6,11.1,8.5,16.8.7,1.4,1.5,2.9,2.2,4.3.8,1.7,1.7,3.3,2.5,5,1.4,2.7,2.8,5.5,4.2,8.2-1.2-.2-2.7-.4-4.6-.8-2.9-.6-8.7-2-14.5-4.6-2.9-1.3-5.3-2.5-7.3-3.7-1.1-.6-2.2-1.3-3.4-2.1-.9-.6-1.8-1.2-2.6-1.9l-2.2-1.7-3-2.9c-.2-.2-.5-.3-.9,0s0,0,0,0c-.3.3-.3.8,0,1.1l2.9,3.1,2.2,1.9c.7.7,1.6,1.4,2.5,2l.2.2c1,.8,2.1,1.6,3.2,2.3,2,1.4,4.4,2.8,7.3,4.3,5.9,3,11.8,4.8,14.9,5.6,4.1,1.1,7.1,1.6,7.3,1.6.1,0,.2,0,.4,0,10.4,20.5,21.4,42,32.2,63.3-.9.2-1.9.4-3.2.6-.8,0-1.8.2-2.7.3-1,0-2,0-3.1.1-2.2,0-4.5,0-6.8-.3-4.6-.4-9.2-1.2-12.6-1.9-3.4-.7-5.7-1.4-5.7-1.4-.3,0-.5,0-.6.3,0,.3,0,.6.3.7,0,0,2.2.8,5.6,1.8,3.4,1,8,2.1,12.7,2.8,2.4.4,4.7.6,7,.8,1.1,0,2.2,0,3.3,0,1,0,2,0,2.9,0,1.8-.2,3.4-.3,4.4-.6,0,0,0,0,0,0,4.1,8,8.1,16,12.1,23.9h-.1s-.4.2-1.2.5c-.7.3-2,.7-3.5,1.2-1.6.4-3.5,1-5.7,1.5-2.2.6-4.8,1.1-7.6,1.6-2.8.4-5.9,1-9.1,1.3-3.3.3-6.7.6-10.3.7-3.6.2-7.3,0-11.1,0-3.8,0-7.6-.5-11.4-.7-3.8-.5-7.6-1-11.4-1.5-3.7-.7-7.4-1.4-10.9-2.1-3.5-.9-6.9-1.8-10.1-2.6-3.2-.8-6.2-2-8.9-2.8-2.8-.9-5.3-1.7-7.5-2.6-2.2-.9-4.1-1.6-5.7-2.3-3.1-1.3-4.9-2-4.9-2h0c-.3-.1-.6,0-.7.3-.1.3,0,.6.3.7,0,0,1.8.8,4.9,2.2,1.6.7,3.4,1.6,5.6,2.5,2.1,1.1,4.7,1.9,7.4,3,2.7,1,5.7,2.3,8.9,3.3,3.2,1,6.6,2,10.1,3.1,3.6.9,7.3,1.8,11,2.7,3.8.8,7.7,1.4,11.5,2.1.2,0,.4,0,.5,0-.8.7-1.6,1.4-2.7,2.1-4,3.1-9.5,7.1-15.3,10.5-1.4.9-2.9,1.6-4.4,2.4-1.5.8-3,1.4-4.4,2.1-1.4.6-2.9,1.1-4.2,1.7-1.4.5-2.7.8-3.9,1.2-1.2.3-2.4.5-3.4.7-1,.2-1.9.3-2.6.3-1.5.1-2.3.2-2.3.2h0c-.3,0-.5.2-.5.5,0,.3.2.5.5.5,0,0,.9,0,2.4,0,.8,0,1.7.1,2.8,0,1.1-.1,2.3-.1,3.6-.4,1.3-.3,2.7-.5,4.2-.8,1.4-.4,3-.8,4.6-1.3,1.5-.6,3.2-1,4.8-1.7,1.6-.7,3.2-1.3,4.8-2,6.4-2.9,12.5-6.3,17-9.1,4.4-2.8,7.4-4.9,7.3-4.9h0c.1,0,.2-.2.3-.3.3-.3.5-.3,1.1-.8.7,0,.9.1,1.6.2,3.9.2,7.7.5,11.4.5,2.1,0,4.1,0,6.1,0-.2.8-.4,1.6-.6,2.5-.6,2.2-1.3,4.7-2.3,7.4-.9,2.7-2.1,5.5-3.5,8.2-.6,1.4-1.4,2.7-2.1,4-.8,1.3-1.6,2.5-2.4,3.7-.9,1.1-1.7,2.2-2.5,3.2-.9.9-1.8,1.8-2.5,2.6-.9.7-1.7,1.4-2.4,2-.7.6-1.5.9-2,1.3-1.1.7-1.8,1.1-1.8,1.1h0c-.2.2-.3.5-.2.7.1.3.4.4.7.3,0,0,.7-.3,2-.9.6-.3,1.5-.6,2.3-1.1.8-.5,1.8-1.1,2.8-1.8.9-.8,1.9-1.6,3-2.5,1-.9,2-2,3.1-3.1,1-1.2,2-2.3,3-3.6.9-1.3,1.9-2.6,2.7-3.9,1.7-2.7,3.3-5.5,4.6-8.2,1.4-2.7,2.4-5.3,3.4-7.5.7-1.9,1.3-3.5,1.7-4.7,2.6-.2,5-.4,7.3-.7,3-.4,5.7-.8,8-1.3,2.4-.4,4.5-1,6.2-1.3,1.7-.5,3-.8,4-1.1.9-.3,1.4-.5,1.4-.5,0,0,.1,0,.1,0,.2,0,.4-.2.6-.3,16,34.6,16.7,37,27.6,58.9l3.4-1.8,5-2.6-31.2-57.1s0,0,0,0c0,0,.4-.3,1.2-.9.8-.6,1.9-1.5,3.2-2.7,1.3-1.2,2.9-2.6,4.6-4.3,1.8-1.7,3.6-3.7,5.6-5.9,1.5-1.7,3.1-3.6,4.7-5.6,1.3.4,2.9.8,4.9,1.2,2.4.5,5.1,1.1,8.1,1.5,3,.4,6.2.7,9.4.8,1.6.1,3.2,0,4.8,0,1.6,0,3.1-.3,4.6-.4,1.5-.3,2.9-.5,4.3-.8,1.3-.4,2.6-.7,3.7-1.1,1.1-.5,2.1-.9,3-1.3.9-.3,1.6-.9,2.2-1.2,1.2-.7,1.9-1.1,1.9-1.1.3-.1.3-.5.2-.7-.1-.2-.4-.3-.7-.2h0s-.7.4-1.9.9c-.6.2-1.3.7-2.2.9-.9.3-1.9.5-3,.9-1.1.2-2.3.4-3.6.6-1.3,0-2.7.2-4.1.3-1.4,0-2.9,0-4.4-.1-1.5-.2-3-.2-4.5-.5-3-.4-6-1.1-8.7-1.8-2.8-.7-5.3-1.6-7.4-2.3-.9-.3-1.6-.6-2.4-.9,1.2-1.6,2.4-3.3,3.5-5,2.2-3,4.1-6.3,6.1-9.6.3-.6.5-.9.8-1.5.6-.1.9-.3,1.3-.4.1,0,.2,0,.4-.1h0s3.4-1.2,8.2-3.3c4.8-2.1,11.2-5.1,17.2-8.8,1.5-.9,3-1.9,4.4-2.8,1.5-.9,2.8-2,4.1-3,1.3-1,2.5-2.1,3.7-3,1.1-1,2.1-2.1,3.1-3,.9-.9,1.6-1.9,2.3-2.7.7-.8,1.2-1.6,1.6-2.3.8-1.3,1.3-2,1.3-2,.2-.2,0-.6-.2-.7Z"/>
          <path class="cls-4" d="M201.9,208.9c7.3-2.8,16-2.4,24.9,1.8,4.5,2.1,8.6,3.9,12.2,4,2.7,1.2,6.2,1,9.3-.8,2.4-1.6,3.9-4.1,4.4-6.5.5-2.4,0-4.9-1.7-6.9h0c1.6,2,3.9,3.1,6.4,3.1,2.5,0,5.1-1,7.3-3,2-2.1,3-4.9,2.9-7.3,0-2.5-1.2-4.7-3.2-6.3,2,1.6,4.5,2.1,6.9,1.5,1.2-.3,2.4-.8,3.5-1.6,1.1-.8,2.2-1.8,2.8-3.1,1.4-2.6,1.8-5.5,1.2-7.8-.7-2.4-2.5-4.3-4.8-5.4,0,0,0,0,0,0,2.3,1,4.8.9,7.1-.2,1.1-.6,2.2-1.4,3.1-2.4.8-1.1,1.4-2.3,1.8-3.8.4-1.4.5-2.8.4-4.2,0-1.3-.7-2.6-1.3-3.7-1.3-2.2-3.4-3.6-5.9-4,0,0,0,0,0,0,2.5.4,4.9-.3,6.9-1.9,1.8-1.6,3-4.2,3.2-7.1.1-1.5-.1-2.8-.6-4.1-.5-1.3-1.2-2.4-2.1-3.3-1.7-1.8-4.1-2.7-6.6-2.6h0c2.6-.2,4.8-1.4,6.2-3.4,1.4-2,2.2-4.7,1.8-7.6-.6-2.8-2.1-5.2-4.1-6.6-2-1.4-4.6-1.8-7-1.2h0c2.5-.7,4.4-2.3,5.5-4.5,1-2.2,1.5-5.1.3-7.7-1-2.7-2.9-4.7-5.1-5.7-2.3-1-4.8-1-7.2,0h0c2.3-1.1,3.9-3,4.6-5.4.4-1.2.5-2.5.4-3.8-.2-1.4-.8-2.8-1.6-4.2-.9-1.3-2-2.5-3.2-3.3-1.3-.8-2.6-1.3-3.9-1.5-2.7-.4-5.1.6-6.8,2.5,1.8-1.9,2.5-4.3,1.8-7-.6-2.6-2.8-5.2-6-6.7-3.3-1.4-6.7-1.2-9.1.2-2.4,1.3-3.7,3.6-3.8,6.2.2-2.5-.8-5-3-6.6-2.1-1.7-5.4-2.3-8.7-1.5-3.3.9-5.7,2.9-6.8,5.3-1.1,2.4-1,4.9.3,7.2-1.2-2.2-3.3-3.7-5.9-4.1-1.3-.2-2.6,0-4,.4-1.4.4-2.7,1.2-3.9,2.2-1.1,1.1-2.1,2.2-2.7,3.5-.6,1.3-.9,2.6-.9,3.9,0,2.6,1.1,4.9,3.1,6.5-2-1.6-4.5-2.2-7-1.6-2.5.5-4.9,2.3-6.4,4.9-1.5,2.6-1.7,5.6-1,7.9.8,2.4,2.6,4.3,4.9,5.2-2.4-.9-5-.8-7.1.5-1.1.6-2.1,1.5-2.9,2.5-.8,1.1-1.4,2.4-1.8,3.8-1.4,5.8,2.1,11,7.2,11.6-1.5,3.5-3.4,5.6-6.2,4.9-12.7-2.9-6-19.8-2.4-31.4,1.1-.4,2-1.1,2.9-1.9,1.8-1.8,2.9-4.4,2.7-7.3,0-2.9-1.4-5.5-3.2-7.1-1.8-1.7-4.3-2.4-6.9-2,2.5-.4,4.6-1.8,6-4,1.4-2.2,1.6-5,.9-7.9-.9-2.9-2.7-5.1-5.1-6.2-2.3-1.1-4.8-1.2-7.1-.1,2.3-1.1,3.9-3,4.5-5.5.7-2.5,0-5.4-1.6-8-.9-1.2-2-2.3-3.1-3-1.2-.7-2.5-1.2-3.7-1.4-2.5-.4-5,.5-6.8,2.3,1.8-1.8,2.7-4.2,2.5-6.8-.3-2.5-1.7-5.2-4.2-6.9-1.2-.9-2.6-1.5-4-1.8-1.4-.3-2.7-.3-3.9,0-2.5.5-4.5,2.1-5.6,4.4,1.2-2.3,1.2-4.8.1-7.2-.5-1.2-1.3-2.2-2.4-3.1-1-.9-2.3-1.7-3.8-2.1"/>
        </g>
        <g class="cls-1">
          <path class="cls-2" d="M93.8,62.5c3.1,25,6.1,40.8,25.2,58.7,0,0-.5.9-.5.9-18.6-4.3-30.9-23.7-30.2-42.2.2-6.1,1.4-12.3,4.5-17.6,0,0,1,.2,1,.2h0Z"/>
        </g>
        <g class="cls-1">
          <path class="cls-2" d="M109.7,163.5c-10.6,2.8-22.4,4.1-31,10.2-5,3.6-6.7,9.7-6.5,15.7,0,4.3.8,8.6,1.3,12.9,0,0-.9.4-.9.4-2.7-3.3-4.8-7.1-6.2-11.2-6-18.4,7.5-31,25.1-31.9,6.3-.3,12.5.4,18.3,2.9,0,0-.1,1-.1,1h0Z"/>
        </g>
      </g>
    </g>
  </g>
</svg>