<?xml version="1.0" encoding="UTF-8"?>
<svg xmlns="http://www.w3.org/2000/svg" version="1.1" viewBox="0 0 290.3 278.9">
  <defs>
    <style>
      .cls-1 {
        mix-blend-mode: screen;
        opacity: .2;
      }

      .cls-2 {
        fill: #c56d0b;
      }

      .cls-2, .cls-3, .cls-4, .cls-5, .cls-6 {
        stroke-width: 0px;
      }

      .cls-3 {
        fill: #f2f2f2;
      }

      .cls-7 {
        isolation: isolate;
      }

      .cls-4 {
        fill: #ba784a;
      }

      .cls-5 {
        fill: #00bf5f;
      }

      .cls-8 {
        mix-blend-mode: multiply;
        opacity: .5;
      }

      .cls-6 {
        fill: #008dd3;
      }
    </style>
  </defs>
  <g class="cls-7">
    <g id="Camada_3" data-name="Camada 3">
      <g>
        <g id="Camada_10" data-name="Camada 10">
          <path class="cls-6" d="M278.3,142.7c0,19.7-4.1,38.3-11.5,55.3-21,47.3-68.1,80.2-123.1,80.4-14.6,0-28.7-2.3-41.9-6.5-24.8-7.9-46.5-22.8-62.7-42.5-16.9-20.3-27.9-45.7-30.6-73.5-.4-4-.6-8.1-.6-12.2-.2-45.9,22.5-86.6,57.5-111.1,4.6-3.3,9.3-6.2,14.3-8.7,7-3.8,14.3-6.8,21.8-9.3,7.2-2.3,14.6-4,22.2-5.2,6.2-.8,12.4-1.3,18.8-1.4,24.8,0,48.2,6.6,68.3,18.2,3.7,2.1,7.1,4.3,10.4,6.8,16.1,11.4,29.6,26.3,39.4,43.6,1.1,2,2.2,3.9,3.2,6,.8,1.8,1.7,3.5,2.5,5.3,2.6,5.8,4.8,11.6,6.6,17.7,2,6.8,3.5,13.8,4.3,20.9h0c.7,5.4,1.1,10.8,1.1,16.4Z"/>
        </g>
        <g>
          <g>
            <g>
              <path class="cls-5" d="M207,40.2c-1.7,2.9-4.5,8.7-9.1,9.4-3.1.5-7.6-4.1-9.5-6-6.2-6.2-7.3-13.8-10.2-21.9-2.8-7.9-5.5-15.1-15.2-13.2-4.5.8-6.6,2.6-8.6,6.4-1.7,3-2.4,8.1-6.4,9.1-6.3,1.7-11.1-9.1-14.1-13.2-1.8-2.5-4.8-6.2-8.2-5.3-3.5.9-2.1,5.1-7,5.9-7.1,1.2-11.9-16.5-25.2-8.1-13.3,8.4.7,20.3-3.5,26.3-2.8,4-6.1,1-8.3,3.7-2.3,2.8-.2,7,1.3,9.7,2.4,4.4,10.1,13.4,5.9,18.4-2.7,3.1-7.6,1.6-11,1.8-4.3.3-6.8,1.3-9.5,5.1-5.8,8.1-.5,13.5,5.4,19.4,6,6,12.4,10.3,15.4,18.5.9,2.6,3.1,8.6,1.4,11.2-2.7,3.9-9.1,3.9-12.4,4.2-10.4,1-7.9,11.4-3.7,17.4,11,16,51.4,33.2,55,39.5,3.9,6.8-10.6,5.7-13.2,9-2.3,3-2.5,7.3-.2,10.1,17.8,22.6,62,10.3,58.5,17.9-1.2,2.6-5.3,3.5-6.6,7-1.5,4-1.8,8,.6,11.6,4.9,7.3,27.5,11.6,35.6,12,19.7,1.1,5.3,2.2,8.4,9.8,2.9,7.1,15.7,4.6,19.8,3.4,6.8-2,8.7-6.5,12.6-11.5.6-.8,1.4-1.6,2.2-2.3,1-.4,2-.8,3-1,6.2-1.4,11-1.2,15.8-6.5,2.8-3.2,10.6-13.6,5.4-19.3-5.5-6.1-12.7,6.5-5.2-11.8,3.1-7.5,8.9-29.8,4.4-37.4-2.2-3.7-6-5.2-10.2-5.5-3.7-.3-6.3,3-9.1,3-8.4-.1,21.6-34.8,8.8-60.6-1.6-3.2-5.6-4.9-9.2-4.1-4.1.9-9.3,14.5-13.8,8.1-4.2-6-2.5-49.8-12.2-66.6-3.7-6.3-12-13-17.3-4.1Z"/>
              <path class="cls-4" d="M267.7,270.2L105.6,22s125.5,204.8,154.2,253.2l7.9-5Z"/>
            </g>
            <path class="cls-4" d="M97.5,44.4c5.4,4.2,23.5,17.8,29.8,13.7,0,0,3,4,3,4-7.9,5.2-20.7-5.8-26.7-10.7-2.4-2-4.6-4.1-6.8-6.3,0,0,.7-.7.7-.7h0Z"/>
            <path class="cls-4" d="M88.6,88.5c4.6,2.3,16.2,7.1,18.9.5,0,0,4.5,2.3,4.5,2.3-5.7,9-17.5,2.8-23.9-2,0,0,.5-.8.5-.8h0Z"/>
            <path class="cls-4" d="M97.3,138.7c6.7,3.1,22.6,9.3,25.2-1.2,0,0,4.8,1.5,4.8,1.5-3.9,10.5-15.5,8.4-23.4,4.5-2.5-1.2-4.8-2.5-7.1-4l.5-.9h0Z"/>
            <path class="cls-4" d="M124.1,196.2c4.8.4,28.9,1.1,28.7-5.5,0,0,5-.3,5-.3-.3,10.7-18,8.7-25.2,8-2.9-.3-5.7-.7-8.6-1.3,0,0,.1-1,.1-1h0Z"/>
            <path class="cls-4" d="M199.3,240.6c6.2-1.4,16.9-4.2,19.8-10.3.3-.8.3-1.5.2-2.3l5-.3c-.3,9-10.8,11.7-17.9,13-2.4.4-4.7.7-7.1.8,0,0-.1-1-.1-1h0Z"/>
            <path class="cls-4" d="M106.5,109.6c8.3,2.9,25.3,7.6,31.9,0,2-2.5,2.3-6.1,1.9-9.6l5-.4c.6,17.8-14.4,19.1-28,14.9-3.8-1.1-7.6-2.5-11.2-4.2l.4-.9h0Z"/>
            <path class="cls-4" d="M137.7,153.4c8.3,2.9,25.3,7.6,31.9,0,2-2.5,2.3-6.1,1.9-9.6l5-.4c.6,17.8-14.4,19.1-28,14.9-3.8-1.1-7.6-2.5-11.2-4.2l.4-.9h0Z"/>
            <path class="cls-4" d="M166.3,200c8.3,2.9,25.3,7.6,31.9,0,2-2.5,2.3-6.1,1.9-9.6l5-.4c.6,17.8-14.4,19.1-28,14.9-3.8-1.1-7.6-2.5-11.2-4.2l.4-.9h0Z"/>
            <path class="cls-4" d="M99.8,69c10.5,4.2,35.3,14.8,32.1,28.9,0,0-4.8-1.4-4.8-1.4,2.5-8.3-12.1-17.5-18.2-21.4-3.1-1.9-6.2-3.6-9.4-5.2l.4-.9h0Z"/>
            <path class="cls-4" d="M125.4,126.1c7.1,1.8,30.4,7,26.8,17.4,0,0-4.6-2-4.6-2,0-.2.2-.3.2-.6-.9-4.4-11.3-9.1-15.4-11-2.4-1-4.8-2-7.2-2.9,0,0,.3-1,.3-1h0Z"/>
            <path class="cls-4" d="M137.7,174c7.4,2.1,30.8,8.2,28.8,18.2,0,0-4.9-1.2-4.9-1.2,0-.1.1-.2,0-.3,0-.1,0-.3,0-.4-2.2-6.2-18.1-12.8-24.3-15.3,0,0,.3-1,.3-1h0Z"/>
            <path class="cls-4" d="M184.1,219c7.2,0,24.1-.5,26.4,8.2,0,0-5,.8-5,.8,0-1.3-1.6-2.4-2.8-3.2-5.6-3-12.3-4.1-18.6-4.9,0,0,0-1,0-1h0Z"/>
            <path class="cls-4" d="M222.2,243.4c4.9-3.3,14.6-7.1,16.9,1.1,0,0-5,.8-5,.8,0-.9,0-1.3-.6-1.8-3.1-1.6-7.4-.3-10.8.7,0,0-.4-.9-.4-.9h0Z"/>
            <path class="cls-4" d="M174.3,169.7c6.4,3.1,12.8,6.6,17.1,12.5,1.6,2.3,2.6,5.2,2.1,8.1,0,0-4.9-1.1-4.9-1.1.5-1.3.2-3.2-.7-4.9-3.1-5.7-8.8-10.1-14.1-13.7,0,0,.5-.9.5-.9h0Z"/>
            <path class="cls-4" d="M85.1,75.9c14.3,8,52.3,27.7,67.6,20.3,0,0,2.3,4.5,2.3,4.5-14.7,6.6-41-7.4-54.4-14.5-5.5-3-10.8-6.1-16.1-9.5,0,0,.5-.9.5-.9h0Z"/>
            <path class="cls-4" d="M134.3,188.1c12.3,1.1,24.7,1.7,37.1,1.6,9.2-.2,18.4-.6,27.3-2.6,2.9-.7,5.7-1.6,8.1-2.9l2.3,4.5c-14.6,6.5-40.5,4-56.5,2.7-6.2-.6-12.4-1.4-18.5-2.3v-1h.1Z"/>
            <path class="cls-4" d="M181.5,229.8c8.3,0,16.7-.6,24.9-2,8-1.3,16.1-3.4,23.2-7.3,0,0,2.3,4.5,2.3,4.5-11.9,5.3-25,6.2-37.8,6.3-4.2,0-8.4-.2-12.6-.5,0,0,0-1,0-1h0Z"/>
            <path class="cls-4" d="M223.6,253.5c5.8-5.8,13-9.9,19.8-14.4,0,0,2.3,4.5,2.3,4.5-7.2,3.2-14.8,6-21.3,10.5,0,0-.8-.6-.8-.6h0Z"/>
            <path class="cls-4" d="M89.2,130.4c20.7,4.7,71.2,15.8,89.9,7.9,0,0,2.1,4.6,2.1,4.6-16.8,6.6-51.9-1.7-69.8-5.7-7.5-1.8-15-3.7-22.4-5.8,0,0,.3-1,.3-1h0Z"/>
            <path class="cls-4" d="M131.6,23.3c2.8,8.5,10.4,31.9.8,37.6,0,0-2.3-4.5-2.3-4.5,5.3-3.1,3-18.3,2.3-23.8-.5-3-1-6-1.7-9,0,0,1-.3,1-.3h0Z"/>
            <path class="cls-4" d="M175.2,34.5c1.5,7.8,2,21.2-8.6,22.4,0,0-.1-5-.1-5,7.1.4,7.7-12.1,7.7-17.3,0,0,1-.1,1-.1h0Z"/>
            <path class="cls-4" d="M216.6,64.2c1.4,10.2.8,28.4-13.7,27.2,0,0,.7-5,.7-5,8,1.9,10.6-8.1,11.5-14.3.4-2.6.5-5.3.5-7.9h1Z"/>
            <path class="cls-4" d="M256.9,113.6c-2.3,7.8-9.3,32.8-20.8,27.6,0,0,2.4-4.4,2.4-4.4,4.7,2.6,12.1-12,13.9-15.6,1.2-2.6,2.4-5.2,3.5-7.8,0,0,1,.3,1,.3h0Z"/>
            <path class="cls-4" d="M264.2,200.9c-4.3,7.3-13.1,21-23.3,16.5,0,0,2.4-4.4,2.4-4.4.6.4,1.3.7,2.1.8,6.8,0,13.8-8.4,17.9-13.4,0,0,.8.5.8.5h0Z"/>
            <path class="cls-4" d="M186.5,59.9c-.1,15.6-5.6,41.5-26.7,30.6,0,0,2.5-4.4,2.5-4.4,3,1.9,6.4,3.2,9.5,2.5,9.6-2.6,12.7-20,13.7-28.8,0,0,1,0,1,0h0Z"/>
            <path class="cls-4" d="M212.5,107c-.1,15.6-5.6,41.5-26.7,30.6,0,0,2.5-4.4,2.5-4.4,3,1.9,6.4,3.2,9.5,2.5,9.6-2.6,12.7-20,13.7-28.8,0,0,1,0,1,0h0Z"/>
            <path class="cls-4" d="M242,153c-.1,15.6-5.6,41.5-26.7,30.6,0,0,2.5-4.4,2.5-4.4,3,1.9,6.4,3.2,9.5,2.5,9.6-2.6,12.7-20,13.7-28.8,0,0,1,0,1,0h0Z"/>
            <path class="cls-4" d="M152.8,36.3c.1,8.7,1.5,34.7,12,36.4,0,0-.8,5-.8,5-11.8-2.8-12.4-20.8-12.6-30.5,0-3.7.1-7.3.4-10.9,0,0,1,0,1,0h0Z"/>
            <path class="cls-4" d="M193.2,84.3c-.5,5.7-1.8,22.8,2.7,26.4.2.1.4,0,.6,0l-.2,5c-9.4-1.3-6.4-17.5-5.6-23.9.4-2.6.9-5.2,1.5-7.8l1,.2h0Z"/>
            <path class="cls-4" d="M231,116.1c-.4,6.6-1.3,23.9,3.3,28.5.1,0,.2.2.4.2,0,0,.2,0,.3,0l-1,4.9c-8.5-2.3-6-18.9-5.3-25.6.4-2.8.8-5.5,1.3-8.2,0,0,1,.1,1,.1h0Z"/>
            <path class="cls-4" d="M251.4,177.7c-1.4,4.1-2.6,8.4-3.3,12.7-.4,3-.8,6.1.2,8.8.3.7.7,1.1,1.1,1.3l-2.9,4.1c-5.8-5-1.2-15.5,1.1-21.3.9-2.1,1.8-4.1,2.9-6l.9.4h0Z"/>
            <path class="cls-4" d="M256.6,223c-1.9,1.9-8.1,9.1-4,10.8,0,0-2.9,4.1-2.9,4.1-6.5-5.6,1.2-12.7,6.3-15.7,0,0,.6.8.6.8h0Z"/>
            <path class="cls-4" d="M211.3,147.1c.9,6.4,2.4,13.4,6.2,18.6,1.2,1.6,2.7,2.6,4.2,2.8l-1.1,4.9c-7.9-2.6-9.2-12.2-10-19.3-.2-2.3-.3-4.6-.2-7,0,0,1,0,1,0h0Z"/>
            <path class="cls-4" d="M165.4,26c2,17.9,5.9,61.6-8.9,73.8,0,0-3-4-3-4,10.9-8.7,11.3-37.8,11.5-51.2,0-6.2-.2-12.4-.6-18.5h1Z"/>
            <path class="cls-4" d="M245.1,119.3c-6,18.5-18.3,55.2-32.8,67.4,0,0-3-4-3-4,2.2-1.6,4.2-3.8,6.1-6.1,9.4-12.1,15.8-26.4,21.9-40.4,2.4-5.7,4.7-11.4,6.9-17.3,0,0,.9.3.9.3h0Z"/>
            <path class="cls-4" d="M262.2,180c-3,7.9-6.7,15.5-10.9,22.8-4.4,7.4-9.4,14.5-16.1,20.1,0,0-3-4-3-4,6.6-4.7,11.9-11.1,16.6-17.7,4.7-6.8,8.9-14.1,12.5-21.6,0,0,.9.4.9.4h0Z"/>
            <path class="cls-4" d="M264.7,228.7c-6.9,3.9-12.7,9.5-18.7,14.6,0,0-3-4-3-4,7-4.2,13.8-8.9,21.5-11.6,0,0,.2,1,.2,1h0Z"/>
            <path class="cls-4" d="M212.7,53.5c-4,21.8-13.8,73.7-29.6,88.1,0,0-3.2-3.9-3.2-3.9,12.6-11.1,21.7-45.2,26.3-62,2-7.4,3.8-14.9,5.4-22.5,0,0,1,.2,1,.2h0Z"/>
            <g class="cls-8">
              <path class="cls-2" d="M207,40.2c-1.7,2.9-4.5,8.7-9.1,9.4-3.1.5-7.6-4.1-9.5-6-6.2-6.2-7.3-13.8-10.2-21.9-2.8-7.9-5.5-15.1-15.2-13.2-4.5.8-6.6,2.6-8.6,6.4-1.7,3-2.4,8.1-6.4,9.1-6.3,1.7-11.1-9.1-14.1-13.2-1.8-2.5-4.8-6.2-8.2-5.3-3.5.9-2.1,5.1-7,5.9-7.1,1.2-11.9-16.5-25.2-8.1-.5.3,153.1,242.8,153.5,242.4.5-.2,17,26.7,17,26.7l3.8-2.4c-4.5-7.4-16.8-25.4-16.6-25.4,6.2-1.4,9.8-1.1,14.5-6.4,2.8-3.2,10.6-13.6,5.4-19.3-5.5-6.1-12.7,6.5-5.2-11.8,3.1-7.5,8.9-29.8,4.4-37.4-2.2-3.7-6-5.2-10.2-5.5-3.7-.3-6.3,3-9.1,3-8.4-.1,21.6-34.8,8.8-60.6-1.6-3.2-5.6-4.9-9.2-4.1-4.1.9-9.3,14.5-13.8,8.1-4.2-6-2.5-49.8-12.2-66.6-3.7-6.3-12-13-17.3-4.1Z"/>
            </g>
          </g>
          <g class="cls-1">
            <path class="cls-3" d="M97.2,33.1c-1.8,9.7,1.4,16.9,8,23.8,2.1,2.3,4.5,4.6,6.8,7.2,0,0-.3.7-.3.7-10.6-1.5-21.8-10.7-20.6-22.4.5-3.8,2.3-7.5,5.5-9.6,0,0,.6.4.6.4h0Z"/>
          </g>
          <g class="cls-1">
            <path class="cls-3" d="M77.2,68.1c2.5,5.9,6.4,10.7,10.6,15.5,3.2,3.6,6.7,7,10,10.5,1.2,1.2,2.4,2.4,3.5,3.9l-.4.6c-11.2-2.5-22.1-10.7-24.9-22.2-.5-2.8-.7-5.7.5-8.4,0,0,.7,0,.7,0h0Z"/>
          </g>
          <g class="cls-1">
            <path class="cls-3" d="M81,128.9c4,4.9,9.2,8.5,14.4,11.9,4,2.6,8.4,4.9,12.5,7.3,1.5.8,2.9,1.7,4.4,2.7,0,0-.2.7-.2.7-11.4.7-24.2-4.2-30.1-14.4-1.3-2.5-2.3-5.3-1.8-8.2,0,0,.7-.1.7-.1h0Z"/>
          </g>
        </g>
      </g>
    </g>
  </g>
</svg>