<?xml version="1.0" encoding="utf-8"?>
<!-- Generator: Adobe Illustrator 28.0.0, SVG Export Plug-In . SVG Version: 6.00 Build 0)  -->
<svg version="1.1" id="Layer_1" xmlns="http://www.w3.org/2000/svg" xmlns:xlink="http://www.w3.org/1999/xlink" x="0px" y="0px"
	 viewBox="0 0 50 50" style="enable-background:new 0 0 50 50;" xml:space="preserve">
<style type="text/css">
	.st0{fill:#04AD49;}
	.st1{fill:#22DD6D;}
	.st2{fill:none;stroke:#444444;stroke-width:2.5;stroke-linecap:round;stroke-linejoin:round;stroke-miterlimit:10;}
	.st3{fill:none;stroke:#444444;stroke-linecap:round;stroke-linejoin:round;stroke-miterlimit:10;}
	.st4{fill:none;stroke:#444444;stroke-width:0.5;stroke-linecap:round;stroke-linejoin:round;stroke-miterlimit:10;}
</style>
<polygon class="st0" points="30,19.1 37.8,21.5 31.1,26.3 31.2,34.5 24.6,29.6 16.9,32.2 19.5,24.4 14.6,17.8 22.8,18 27.5,11.2 "/>
<path class="st1" d="M44.6,12.4L39,8.8l-7.7-4.4l-6-2.8c-3.2,0-21.5,8.9-21.5,12.1l-0.5,7.8l0.5,15.1l11.5,7.6l31-11
	C47.2,32.7,45.6,14.4,44.6,12.4z"/>
<g>
	<g>
		<path class="st2" d="M29.9,46.5l-2.2,1.3c-1.7,1-3.8,1-5.5,0l-15.6-9C5,37.8,3.9,36,3.9,34V16c0-2,1-3.8,2.7-4.7l15.6-9
			c1.7-1,3.8-1,5.5,0l15.6,9c1.7,1,2.7,2.8,2.7,4.7v18c0,2-1,3.8-2.7,4.7l-2.5,1.4"/>
	</g>
</g>
<g>
	<polyline class="st3" points="19.6,33.4 19.6,28.6 20.8,27.4 20.8,25.6 16.6,25.6 	"/>
	<polyline class="st3" points="12.4,25.6 16,14.8 19.6,25.6 	"/>
	<polyline class="st3" points="29.8,21.4 25,11.2 20.2,21.4 	"/>
	<path class="st4" d="M14.8,31.6v-1.8c0-0.7,0.5-1.2,1.2-1.2l0,0c0.7,0,1.2,0.5,1.2,1.2v1.8"/>
	<path class="st4" d="M14.8,37v-1.8c0-0.7,0.5-1.2,1.2-1.2l0,0c0.7,0,1.2,0.5,1.2,1.2V37"/>
	<path class="st4" d="M32.8,31.6v-1.8c0-0.7,0.5-1.2,1.2-1.2l0,0c0.7,0,1.2,0.5,1.2,1.2v1.8"/>
	<path class="st4" d="M23.8,31v-1.8c0-0.7,0.5-1.2,1.2-1.2l0,0c0.7,0,1.2,0.5,1.2,1.2V31"/>
	<path class="st4" d="M32.8,37v-1.8c0-0.7,0.5-1.2,1.2-1.2l0,0c0.7,0,1.2,0.5,1.2,1.2V37"/>
	<polyline class="st3" points="30.4,33.4 30.4,28.6 29.2,27.4 29.2,25.6 33.4,25.6 	"/>
	<path class="st3" d="M36.4,25.6h2.4v1.8l-1.2,1.2v10.2H27.4v-2.4c0-1.7-1.1-3-2.4-3c-1.3,0-2.4,1.3-2.4,3v2.4H12.4V28.6l-1.2-1.2
		v-1.8h2.4"/>
	<polyline class="st3" points="37.6,25.6 34,14.8 30.4,25.6 	"/>
</g>
<polygon class="st4" points="40.1,17.4 40.6,18.5 41.8,19.1 40.6,19.7 40.1,20.9 39.5,19.7 38.3,19.1 39.5,18.5 "/>
<polygon class="st4" points="38.3,13.1 39,14.5 40.5,15.2 39,15.9 38.3,17.4 37.6,15.9 36.2,15.2 37.6,14.5 "/>
</svg>
