<svg xmlns="http://www.w3.org/2000/svg" viewBox="0 0 50 50"><path fill="#fcc34f" d="M38.4 4.8v15.8c0 1.3-.1 2.5-.3 3.7l-2.2.8-1 .4-2.1.8-3.2 1.1-2.1.8-3.2 1.1-2.1.8-10.4 3.8-2 .7-1.5.5-2 .7C3.2 31.3 1.6 26 1.6 20.5V4.8c0-.5.3-.9.8-1 11.7-2.3 23.5-2.3 35.2 0 .4.1.8.5.8 1z"/><path fill="#fdcf72" d="M38.4 4.8v2.4l-2 .7-1.5.6-2.1.8-13.4 4.9-4.7 1.7-7.4 2.7-2.1.8-1.5.6-2.1.7V4.8c0-.5.3-.9.8-1 11.7-2.3 23.5-2.3 35.2 0 .4.1.8.5.8 1z"/><path fill="#444" d="M48.4 41.8l-5.5-5.5 2.7-2.7c.4-.4.4-1.1 0-1.5-.4-.4-1.1-.4-1.5 0l-1 1-4.6-4.6c.4-1.3.6-2.6.8-3.9.2-1.3.3-2.6.3-4V4c0-.5-.4-1-.9-1.1C26.3.5 13.8.5 1.5 2.9.8 3 .4 3.5.4 4v16.7c0 5.8 1.7 11.4 5 16.2.1.1.2.3.3.4 3.4 4.9 8.2 8.6 13.9 10.6.1 0 .2.1.4.1.1 0 .3 0 .4-.1 4.4-1.6 8.3-4.2 11.5-7.7l2 2-1 1c-.4.4-.4 1.1 0 1.5.2.2.5.3.8.3.3 0 .6-.1.8-.3l2.7-2.7 5.5 5.5c.8.8 1.8 1.2 3 1.2 1.1 0 2.2-.4 3-1.2.8-.8 1.2-1.8 1.2-3-.3-.9-.8-1.9-1.5-2.7zm-7-7.1l-1.8 1.8-.4.4-9-9-12-12 4.9.4 10.4 10.4 7.9 8zm-26-21.2c-.3 0-.6.1-.9.3-.2.2-.3.5-.3.9l.1 1 .6 7.3c0 .3.1.5.3.7l7.1 7.1 5.3 5.3c-2.1 2.4-4.7 4.3-7.6 5.6-3.4-1.5-6.4-3.9-8.7-6.9-.2-.3-.4-.6-.7-.9-2.7-3.9-4.2-8.5-4.2-13.2v-12c9-1.7 18.1-1.7 27 0v12c0 .9-.1 1.8-.2 2.8l-8.9-8.9c-.2-.2-.4-.3-.7-.3l-4.4-.3-3.8-.5zm4.5 32.3c-5-1.9-9.3-5.2-12.4-9.6v-.1c-3.2-4.5-4.9-9.9-4.9-15.4V4.9c11.5-2.2 23.1-2.2 34.6 0v15.8c0 1.6-.1 3.2-.4 4.8-.1.4-.1.8-.2 1.2l-.8-.8-.5-.5c.3-1.5.4-3.1.4-4.7V7.8c0-.5-.4-1-.9-1.1-9.8-2-19.8-2-29.6 0-.6.1-1 .6-1 1.1v12.9c0 5.2 1.6 10.2 4.6 14.5.1.1.2.3.3.4 2.7 3.6 6.3 6.5 10.4 8.3.1.1.3.1.4.1.1 0 .3 0 .4-.1 3.4-1.4 6.3-3.5 8.7-6.2l1.2 1.2c-2.8 3-6.3 5.4-10.3 6.9zm15.4-5L24.5 30 17 22.4l-.4-4.9 21 21-2.3 2.3zm3.2-.1l2.8-2.8.7.7-1.7 4-1.8-1.9zm4.7 4.7L42 44.2l1.7-4 1.2 1.2-1.7 4zm3.6.8c-.4.4-.9.6-1.4.6H45l1.5-3.7.3.3c.4.4.6.9.6 1.4 0 .5-.2 1-.6 1.4z"/></svg>