<svg xmlns="http://www.w3.org/2000/svg" id="Layer_1" x="0" y="0" version="1.1" viewBox="0 0 50 50" xml:space="preserve"><style>.st3,.st4{fill:none;stroke:#444;stroke-linecap:round;stroke-linejoin:round;stroke-miterlimit:10}.st4{stroke-width:.5}</style><path fill="#04ad49" d="M30 19.1l7.8 2.4-6.7 4.8.1 8.2-6.6-4.9-7.7 2.6 2.6-7.8-4.9-6.6 8.2.2 4.7-6.8z"/><path fill="#22dd6d" d="M44.6 12.4L39 8.8l-7.7-4.4-6-2.8c-3.2 0-21.5 8.9-21.5 12.1l-.5 7.8.5 15.1 11.5 7.6 31-11c.9-.5-.7-18.8-1.7-20.8z"/><path fill="none" stroke="#444" stroke-linecap="round" stroke-linejoin="round" stroke-miterlimit="10" stroke-width="2.5" d="M29.9 46.5l-2.2 1.3c-1.7 1-3.8 1-5.5 0l-15.6-9C5 37.8 3.9 36 3.9 34V16c0-2 1-3.8 2.7-4.7l15.6-9c1.7-1 3.8-1 5.5 0l15.6 9c1.7 1 2.7 2.8 2.7 4.7v18c0 2-1 3.8-2.7 4.7l-2.5 1.4"/><path d="M19.6 33.4v-4.8l1.2-1.2v-1.8h-4.2" class="st3"/><path d="M12.4 25.6L16 14.8l3.6 10.8m10.2-4.2L25 11.2l-4.8 10.2" class="st3"/><path d="M14.8 31.6v-1.8c0-.7.5-1.2 1.2-1.2s1.2.5 1.2 1.2v1.8M14.8 37v-1.8c0-.7.5-1.2 1.2-1.2s1.2.5 1.2 1.2V37m15.6-5.4v-1.8c0-.7.5-1.2 1.2-1.2s1.2.5 1.2 1.2v1.8M23.8 31v-1.8c0-.7.5-1.2 1.2-1.2s1.2.5 1.2 1.2V31m6.6 6v-1.8c0-.7.5-1.2 1.2-1.2s1.2.5 1.2 1.2V37" class="st4"/><path d="M30.4 33.4v-4.8l-1.2-1.2v-1.8h4.2" class="st3"/><path d="M36.4 25.6h2.4v1.8l-1.2 1.2v10.2H27.4v-2.4c0-1.7-1.1-3-2.4-3-1.3 0-2.4 1.3-2.4 3v2.4H12.4V28.6l-1.2-1.2v-1.8h2.4m24 0L34 14.8l-3.6 10.8" class="st3"/><path d="M40.1 17.4l.5 1.1 1.2.6-1.2.6-.5 1.2-.6-1.2-1.2-.6 1.2-.6zm-1.8-4.3l.7 1.4 1.5.7-1.5.7-.7 1.5-.7-1.5-1.4-.7 1.4-.7z" class="st4"/></svg>