<?xml version="1.0" encoding="utf-8"?>
<!-- Generator: Adobe Illustrator 22.1.0, SVG Export Plug-In . SVG Version: 6.00 Build 0)  -->
<svg version="1.1" id="Layer_1" xmlns="http://www.w3.org/2000/svg" xmlns:xlink="http://www.w3.org/1999/xlink" x="0px" y="0px"
	 viewBox="0 0 50 50" style="enable-background:new 0 0 50 50;" xml:space="preserve">
<style type="text/css">
	.st0{fill:#FCC34F;}
	.st1{fill:#FDCF72;}
	.st2{fill:#494949;}
	.st3{fill:#444444;}
</style>
<g>
	<g>
		<path class="st0" d="M30.9,30.2c-1.8-4.4-2.6-7.8-2.9-9.9h4.8V18l-11.2,4.1c-0.4,2-1.2,4.8-2.6,8.1c-3,7.3-8.5,9.6-8.5,9.6v7.3
			l25.7-9.4C34.6,36.2,32.5,33.8,30.9,30.2z"/>
	</g>
	<g>
		<path class="st1" d="M32.8,15.5h-3.1c1.9-1.4,3.1-3.7,3.1-6.2c0-4.3-3.5-7.8-7.8-7.8S17.2,5,17.2,9.3c0,2.6,1.2,4.8,3.1,6.2h-3.1
			v4.7H22c-0.1,0.5-0.2,1.1-0.3,1.8L32.8,18V15.5z"/>
	</g>
	<g>
		<path class="st2" d="M40.7,49.8H9.3V38.9l0.8-0.3c0,0,5-2.2,7.8-8.9c1.4-3.4,2.2-6.2,2.6-8.2h-4.6v-7.2h1.5c-1-1.5-1.5-3.2-1.5-5
			c0-5,4.1-9.1,9.1-9.1s9.1,4.1,9.1,9.1c0,1.8-0.5,3.5-1.5,5h1.5v7.2h-4.6c0.4,2,1.2,4.8,2.6,8.2c0.3,0.8,0.7,1.6,1.2,2.4
			c0.3,0.6,0.1,1.4-0.5,1.7c-0.6,0.3-1.4,0.1-1.7-0.5c-0.5-0.9-0.9-1.8-1.3-2.7c-1.9-4.5-2.7-8-3-10.2L26.5,19h5v-2.2h-5.6l3-2.2
			c1.7-1.3,2.6-3.2,2.6-5.2c0-3.6-2.9-6.6-6.6-6.6c-3.6,0-6.6,2.9-6.6,6.6c0,2.1,1,4,2.6,5.2l3,2.2h-5.6V19h5l-0.2,1.4
			c-0.3,2.2-1.1,5.7-3,10.2c-2.5,6.1-6.7,8.9-8.4,9.9v6.7h26.3v-6.7c-0.7-0.4-1.8-1.1-3-2.2c-0.5-0.5-0.6-1.3-0.1-1.8
			s1.2-0.6,1.8-0.1c1.7,1.5,3.1,2.1,3.1,2.1l0.8,0.3l0,0.8V49.8z"/>
	</g>
	<g>
		<path class="st3" d="M28.3,10.9C28.2,11,28.1,11,28,11c-0.2,0-0.4-0.1-0.4-0.3c0-1.1,0-2.2,0-3.2c0-0.3,0.1-0.5,0.2-0.7
			c0.3-0.3,0.5-0.7,0.8-1.1c0,0,0-0.1,0.1-0.1c0,0-0.1,0-0.1,0c-0.8,0.2-1.6,0.6-2.2,1.2C26.3,7,26.3,7,26.2,6.9
			c-0.2-0.1-0.4-0.1-0.6-0.1c0.1,0,0.1,0.1,0.1,0.1C25.9,7.1,26,7.3,26,7.6c0,1,0,2.1,0,3.1c0,0,0,0.1,0,0.1
			c-0.2,0.2-0.5,0.4-0.8,0.5c-0.4,0-0.6-0.2-0.6-0.6c0-1.2,0-2.4,0-3.5c0,0,0-0.1,0-0.1c-0.3,0.1-0.4,0-0.4-0.2c0,0,0-0.1,0-0.1
			c0-0.4,0-0.8,0.3-1c0.1-0.1,0.3-0.3,0.5-0.4c-0.2,0.1-0.5,0.2-0.7,0.3c-1.2,0.6-2.2,1.5-3,2.6c-0.3,0.5-0.6,1-0.7,1.5
			c0,0.2,0,0.4,0,0.5c0,0,0,0,0,0c0,0,0-0.1,0.1-0.1C21,9.4,21.4,8.7,22,8.2C22.2,8.1,22.3,8,22.5,8C22.8,7.9,23,8.1,23,8.3
			c0,0.9,0,1.9,0,2.8c0,0.1,0,0.1,0,0.2c0,0.2-0.1,0.2-0.3,0.3c-0.1,0-0.2,0-0.3,0c0,0,0,0,0,0c0.2,0.2,0.3,0.4,0.5,0.5
			c0.6,0.5,1.4,0.7,2.1,0.8c0.2,0,0.3,0,0.5-0.2c0-0.1,0.1-0.1,0.1-0.1c0.2-0.2,0.4-0.4,0.7-0.6c0.3,0.2,0.5,0.5,0.8,0.7
			c0.9-0.6,2.1-1.9,2.2-2.6C29,10.5,28.7,10.8,28.3,10.9z"/>
	</g>
	<g>
		<rect x="10.6" y="39" class="st2" width="28.8" height="1.5"/>
	</g>
	<g>
		<rect x="17.2" y="18.6" class="st2" width="15.6" height="1.5"/>
	</g>
</g>
</svg>
