<svg xmlns="http://www.w3.org/2000/svg" version="1" viewBox="0 0 50 50"><path fill="#FCC34F" d="M12.242 43.378L46.59 30.876c.509-1.873.785-3.842.785-5.876C47.375 12.643 37.357 2.625 25 2.625S2.625 12.643 2.625 25c0 7.615 3.807 14.337 9.617 18.378z"/><path fill="#FDCF72" d="M37.262 6.233a22.263 22.263 0 00-12.177-3.608c-10.079 0-18.6 6.666-21.4 15.829L37.262 6.233z"/><path fill="#031326" d="M23.74 13.929c-.482.451-.919.815-1.302 1.229-.772.833-.966 1.849-.833 2.947.014.117.048.233.088.344.191.539.482.65 1.262.45v10.386c0 .995.826 1.756 1.822 1.634.951-.117 1.673-.689 2.362-1.298.063-.056.074-.193.075-.292.004-2.932.023-5.864-.01-8.796-.009-.761-.424-1.392-.988-1.907-.087-.08-.18-.154-.321-.274a3.74 3.74 0 011.762.254c.283.116.453.071.67-.149 1.751-1.78 3.92-2.792 6.308-3.391.055-.014.114-.012.246-.025-.094.129-.149.208-.208.285-.764.999-1.514 2.008-2.297 2.991-.48.603-.68 1.258-.668 2.029.045 3.048.054 6.097.082 9.145.004.483.442.805 1.013.711.334-.055.671-.163.977-.308 1.035-.488 1.887-1.221 2.659-2.084-.311 1.752-3.626 5.55-6.287 7.203l-2.293-1.965c-.626.574-1.237 1.132-1.845 1.693-.131.121-.271.24-.369.385-.32.473-.723.559-1.282.456-2.167-.401-4.253-1-6.036-2.358-.548-.417-1.02-.936-1.527-1.408l.072-.082c.288 0 .577.009.865-.002.502-.019.727-.219.817-.718.025-.139.032-.283.032-.424.002-2.671.002-5.342.001-8.013 0-.747-.574-1.248-1.29-1.027a3.894 3.894 0 00-1.292.707c-1.738 1.428-3.023 3.231-4.154 5.154-.054.092-.105.186-.16.277-.011.018-.035.028-.115.089 0-.546-.055-1.053.01-1.545.213-1.612.913-3.037 1.834-4.35 2.193-3.127 4.947-5.615 8.437-7.23.585-.272 1.207-.466 1.883-.723z"/><path fill="#031326" d="M25 48.625C11.973 48.625 1.375 38.027 1.375 25S11.973 1.375 25 1.375 48.625 11.973 48.625 25c0 2.104-.277 4.19-.823 6.203a1.25 1.25 0 01-2.412-.654c.488-1.8.735-3.667.735-5.549 0-11.648-9.477-21.125-21.125-21.125S3.875 13.352 3.875 25 13.352 46.125 25 46.125a1.25 1.25 0 010 2.5z"/><path fill="#031326" d="M25 42.81c-9.82 0-17.81-7.99-17.81-17.81S15.18 7.19 25 7.19 42.81 15.18 42.81 25 34.82 42.81 25 42.81zm0-34.87C15.593 7.94 7.94 15.593 7.94 25c0 9.406 7.653 17.06 17.06 17.06 9.406 0 17.06-7.653 17.06-17.06S34.406 7.94 25 7.94z"/></svg>