<svg xmlns="http://www.w3.org/2000/svg" id="Layer_1" x="0" y="0" version="1.1" viewBox="0 0 50 50" xml:space="preserve"><style>.st2{fill:#031326}</style><path fill="#fcc34f" d="M30.9 30.2c-1.8-4.4-2.6-7.8-2.9-9.9h4.8V18l-11.2 4.1c-.4 2-1.2 4.8-2.6 8.1-3 7.3-8.5 9.6-8.5 9.6v7.3l25.7-9.4c-1.6-1.5-3.7-3.9-5.3-7.5z"/><path fill="#fdcf72" d="M32.8 15.5h-3.1c1.9-1.4 3.1-3.7 3.1-6.2 0-4.3-3.5-7.8-7.8-7.8S17.2 5 17.2 9.3c0 2.6 1.2 4.8 3.1 6.2h-3.1v4.7H22c-.1.5-.2 1.1-.3 1.8l11.1-4v-2.5z"/><path d="M40.7 49.8H9.3V38.9l.8-.3s5-2.2 7.8-8.9c1.4-3.4 2.2-6.2 2.6-8.2h-4.6v-7.2h1.5c-1-1.5-1.5-3.2-1.5-5 0-5 4.1-9.1 9.1-9.1s9.1 4.1 9.1 9.1c0 1.8-.5 3.5-1.5 5h1.5v7.2h-4.6c.4 2 1.2 4.8 2.6 8.2.3.8.7 1.6 1.2 2.4.3.6.1 1.4-.5 1.7-.6.3-1.4.1-1.7-.5-.5-.9-.9-1.8-1.3-2.7-1.9-4.5-2.7-8-3-10.2l-.3-1.4h5v-2.2h-5.6l3-2.2c1.7-1.3 2.6-3.2 2.6-5.2 0-3.6-2.9-6.6-6.6-6.6-3.6 0-6.6 2.9-6.6 6.6 0 2.1 1 4 2.6 5.2l3 2.2h-5.6V19h5l-.2 1.4c-.3 2.2-1.1 5.7-3 10.2-2.5 6.1-6.7 8.9-8.4 9.9v6.7H38v-6.7c-.7-.4-1.8-1.1-3-2.2-.5-.5-.6-1.3-.1-1.8s1.2-.6 1.8-.1c1.7 1.5 3.1 2.1 3.1 2.1l.8.3v11z" class="st2"/><path fill="#031326" d="M28.3 10.9c-.1.1-.2.1-.3.1-.2 0-.4-.1-.4-.3V7.5c0-.3.1-.5.2-.7.3-.3.5-.7.8-1.1 0 0 0-.1.1-.1h-.1c-.8.2-1.6.6-2.2 1.2-.1.2-.1.2-.2.1-.2-.1-.4-.1-.6-.1.1 0 .1.1.1.1.2.2.3.4.3.7v3.2c-.2.2-.5.4-.8.5-.4 0-.6-.2-.6-.6V7.1c-.3.1-.4 0-.4-.2v-.1c0-.4 0-.8.3-1 .1-.1.3-.3.5-.4-.2.1-.5.2-.7.3-1.2.6-2.2 1.5-3 2.6-.3.5-.6 1-.7 1.5v.5s0-.1.1-.1c.3-.8.7-1.5 1.3-2 .2-.1.3-.2.5-.2.3-.1.5.1.5.3v3c0 .2-.1.2-.3.3h-.3c.2.2.3.4.5.5.6.5 1.4.7 2.1.8.2 0 .3 0 .5-.2 0-.1.1-.1.1-.1.2-.2.4-.4.7-.6.3.2.5.5.8.7.9-.6 2.1-1.9 2.2-2.6-.3.4-.6.7-1 .8z"/><path d="M10.6 39h28.8v1.5H10.6zm6.6-20.4h15.6v1.5H17.2z" class="st2"/></svg>