<svg xmlns="http://www.w3.org/2000/svg" viewBox="0 0 50 50"><path fill="#8256d8" d="M29.8 20l7.8 2.4-6.7 4.8.1 8.2-6.6-4.9-7.7 2.6 2.6-7.8-4.9-6.5 8.2.1 4.7-6.7z"/><path fill="#a475ef" d="M48.3 8.2l.2-2.6c.2-1.9-1.3-3.6-3.3-3.6L5.8 1.8C4 1.8 2.5 3.2 2.5 5.1v16.7l-.1 6.4h.1v3.6L2.3 44c0 1.9 1.5 3.4 3.3 3.4l18-.2c.4 0 .8-.1 1.1-.2l21.4-8c1.3-.5 2.1-1.7 2.1-3.1V23.6l.1-9.2.5-.1-.5-5.4v-.7z"/><path fill="none" stroke="#444" stroke-linecap="round" stroke-linejoin="round" stroke-miterlimit="10" stroke-width="2.5" d="M32.2 48.1h-27c-1.9 0-3.4-1.6-3.4-3.5v-39c0-1.9 1.5-3.5 3.4-3.5h39c1.9 0 3.4 1.6 3.4 3.5v32.5"/><path fill="none" stroke="#444" stroke-linecap="round" stroke-linejoin="round" stroke-miterlimit="10" stroke-width=".5" d="M44.1 41.9H6.3V7.5m5.1 31.9v2.5m5-2.5v2.5m5-2.5v2.5m5.1-2.5v2.5m5-2.5v2.5m5.1-2.5v2.5m5-2.5v2.5m-35.3-5h2.5m-2.5-5.1h2.5m-2.5-5h2.5m-2.5-5.1h2.5m-2.5-5h2.5m-2.5-5h2.5"/><path fill="none" stroke="#444" stroke-linecap="round" stroke-linejoin="round" stroke-miterlimit="10" d="M43.3 19.2h-5.1l-2.5-2.5H34l-3.3 4.2h-3.4L24 15h-3.4l-1.7 2.5h-3.3l-3.4 4.2h-1.7m0 11.8h4.2l3.4-4.2h5l2.5 3.4h5.1l6.7-6.8h5.9"/></svg>