<svg xmlns="http://www.w3.org/2000/svg" id="Layer_1" x="0" y="0" version="1.1" viewBox="0 0 50 50" xml:space="preserve"><style>.st2{fill:none;stroke:#444444;stroke-linecap:round;stroke-linejoin:round;stroke-miterlimit:10}</style><path fill="#8256d8" d="M27.7 22.4l8 2.5-6.8 4.9.1 8.3-6.7-5-7.9 2.7 2.6-7.9-5-6.7 8.4.1 4.8-6.9z"/><path fill="#a475ef" d="M45.9 24.1c-.1-.7-2.4-6.7-2.9-7.3l-2.7-3.2-2.5-8.2-4.4-3.3-17.4.6c-2.9 0-3.6 6-7 13.2L3.5 26.7l.4 7.3 3 4.8c.1.3 4.1 5.1 4.4 5.3l5.1 2.7 29-10.6c.5-.4 1.4-7.8.5-12.1z"/><path d="M25.1 32.2v.1m0 10.3V32.3m-12.4-4.4h-1.5l-.1 1-.1 1-.1 1-.1.8-.1 1-.1 1-.6 6s3.9-.2 9 1.7c.3.1.6.2 1 .4.3.1.6.3.9.4.2.1.3.1.5.2.3.1.6.3.9.5.3.2.6.3.9.5.6.3 1.1-.8 1.7-.4m.2-10.7v-.1m12.4-4.3H39l.1 1 .1 1 .1 1 .1.8.1 1 .1 1 .6 6s-3.9-.2-9 1.7c-.3.1-.6.2-1 .4-.3.1-.6.3-.9.4-.3-.3-.5-.2-.6-.2-.3.1-.6.3-.9.5-.3.2-.6.3-.9.5-.6.3-1.1-.8-1.7-.4m-.1 0V32.3m0 10.3V32.3m0-.1v.1m0 10.3" class="st2"/><path d="M25.1 42.6c-.5-.4-1-.4-1.5-.8-.3-.2-.6-.4-.8-.6-.3-.2-.6-.4-.8-.5-.1-.1-.3-.2-.4-.3-.3-.2-.6-.3-.8-.5-.3-.1-.6-.3-.8-.4-4.5-2.1-7.9-1.9-7.9-1.9l.5-6.8.1-1.1.1-1.1.1-.8m12.2 4.4v-2.7m-12.4-1.6v-.1l.1-1.1.1-1.1.1-1.1c.5 0 1 0 1.5.1m10.6 4.9v2.7m0 0v.1m0 10.3V32.3m10.6-7.8c.5 0 1-.1 1.5-.1l.1 1.1.1 1.1.1 1.1v.1m0 .1l.1.8.1 1.1.1 1.1.5 6.8s-3.4-.2-7.9 1.9c-.3.1-.6.3-.8.4-.3.1-.5.3-.8.5-.1.1-.3.2-.4.3-.3.2-.5.3-.8.5-.3.2-.5.4-.8.6-.5.4-1 .4-1.5.8m-.2-.1" class="st2"/><path d="M14.2 28l.1-.7v-.9l.1-1.1.1-.8m0 0v-.3l.1-1.1c6.9 0 10.2 4.5 10.5 5.1m0 4.1v-.1m0-4v1.3m0 0v2.7M14.2 28v.4l-.1 1.1-.5 6.8s3-.2 6.9 1.9c.2.1.5.3.7.4.2.1.5.3.7.5.1.1.3.2.4.3.2.2.5.3.7.5.2.2.5.4.7.6.4.4.9 1.7 1.3 2.1m.1-10.3v10.3M36 28v.4l.1 1.1.5 6.8s-3-.2-6.9 1.9c-.2.1-.5.3-.7.4-.2.1-.5.3-.7.5-.1.1-.3.2-.4.3-.2.2-.5.3-.7.5-.2.2-.5.4-.7.6-.4.4-.9 1.7-1.3 2.1m10.5-18.1v-.3l-.1-1.1c-6.9 0-10.2 4.5-10.5 5.1m0 1.3v2.7m0 0v.1m0-2.8M36 28l-.1-.7v-.9l-.1-1.1-.1-.8m-10.6 5v-1.3m0 14.4V32.3m-1.4 10.8s.9 1.3 3-.1" class="st2"/><path fill="none" stroke="#444444" stroke-linecap="round" stroke-linejoin="round" stroke-miterlimit="10" stroke-width=".5" d="M19.2 21.8l-3.5-5.2m4.3-3.8l-.5-2m3 11.6l-2-8m4.6-4.8v-2m0 8.3v-4.6m0 12.2v-5.4m6 3.7l3.5-5.2m-4.2-4.4l.3-1.4m-1.4 5.6l.7-2.7m-2.3 8.7l1.2-4.4"/><path d="M30.9 7.1H33M31.9 6v2.1m-11.8-.7h2.2m-1.1-1v2.1m11.7 5.1h2.2M34 12.5v2.2m-18.9-2.1h2.2m-1.1-1v2.1" class="st2"/><path fill="none" stroke="#444444" stroke-linecap="round" stroke-linejoin="round" stroke-miterlimit="10" stroke-width="2.5" d="M3.9 30.1c.2 11.5 9.7 18.4 21.2 18.4 2.4 0 4.8-.4 6.9-1.2m10.5-7.9c2.3-3.3 3.7-5 3.7-9.3v-1.6c-.2-4.3-1.7-8.2-4.1-11.4L38.4 6.6c-1-2.9-3.7-4.8-6.8-4.8l-12.1-.1c-3.1 0-5.8 1.9-6.9 4.8L9 16c-3.1 3.7-5.1 8.9-5.1 14.1"/></svg>
