<?xml version="1.0" encoding="utf-8"?>
<!-- Generator: Adobe Illustrator 24.0.0, SVG Export Plug-In . SVG Version: 6.00 Build 0)  -->
<svg version="1.1" id="Camada_1" xmlns="http://www.w3.org/2000/svg" xmlns:xlink="http://www.w3.org/1999/xlink" x="0px" y="0px"
	 viewBox="0 0 50 50" style="enable-background:new 0 0 50 50;" xml:space="preserve">
<style type="text/css">
	.st0{fill:#A475EF;}
	.st1{fill:#BF94F7;}
	.st2{fill:none;stroke:#444444;stroke-width:2.5;stroke-linecap:round;stroke-linejoin:round;stroke-miterlimit:10;}
	.st3{fill:#444444;}
</style>
<g>
	<polygon class="st0" points="44.8,26.5 45.1,30.4 4.2,46.7 4.6,38.6 5.1,33.9 45.8,17.7 45,21 	"/>
	<polygon class="st1" points="45.3,11.7 44.5,18.6 4.7,34.6 5,25.8 5.4,21.8 45.6,5.8 	"/>
	<polyline class="st2" points="30.8,47.5 4.4,47.5 4.4,2.5 45.7,2.5 45.7,37.4 	"/>
</g>
<g>
	<g>
		<path class="st3" d="M36.5,28c-0.2,0-0.3-0.1-0.4-0.2c-0.3-0.2-0.4-0.7-0.2-1l1.2-1.8l-1.1-1.8c-0.2-0.3-0.2-0.8,0.2-1
			c0.3-0.2,0.8-0.2,1,0.2l1.4,2.2c0.2,0.2,0.2,0.6,0,0.8l-1.4,2.2C37,27.9,36.7,28,36.5,28z"/>
		<path class="st3" d="M13.4,28c-0.2,0-0.5-0.1-0.6-0.3l-1.4-2.2c-0.2-0.2-0.2-0.6,0-0.8l1.4-2.2c0.2-0.3,0.7-0.4,1-0.2
			c0.3,0.2,0.4,0.7,0.2,1L12.9,25l1.2,1.8c0.2,0.3,0.2,0.8-0.2,1C13.7,28,13.5,28,13.4,28z"/>
		<path class="st3" d="M30,37.1H19.9c-1.9,0-3.3-1.5-3.3-3.3V16.5c0-1.9,1.5-3.3,3.3-3.3H30c1.9,0,3.3,1.5,3.3,3.3v17.3
			C33.4,35.6,31.9,37.1,30,37.1z M19.9,15c-0.8,0-1.5,0.7-1.5,1.5v17.3c0,0.8,0.7,1.5,1.5,1.5H30c0.8,0,1.5-0.7,1.5-1.5V16.5
			c0-0.8-0.7-1.5-1.5-1.5H19.9z"/>
	</g>
	<circle class="st3" cx="25" cy="32.1" r="1.3"/>
</g>
</svg>
