<?xml version="1.0" encoding="utf-8"?>
<!-- Generator: Adobe Illustrator 24.0.0, SVG Export Plug-In . SVG Version: 6.00 Build 0)  -->
<svg version="1.1" id="Layer_1" xmlns="http://www.w3.org/2000/svg" xmlns:xlink="http://www.w3.org/1999/xlink" x="0px" y="0px"
	 viewBox="0 0 50 50" style="enable-background:new 0 0 50 50;" xml:space="preserve">
<style type="text/css">
	.st0{fill:#A475EF;}
	.st1{fill:#BF94F7;}
	.st2{fill:#444444;}
</style>
<g>
	<g>
		<polygon class="st0" points="47.6,26.3 48,30.6 1.9,47.3 2.1,38.3 2.4,33.1 48.3,16.4 47.6,20.1 		"/>
	</g>
	<g>
		<polygon class="st1" points="47.6,9.7 47,17.4 2.1,33.8 2.1,24.1 2.4,19.7 47.7,3.2 		"/>
	</g>
	<g>
		<path class="st2" d="M32.9,49.4H1.7c-0.7,0-1.2-0.6-1.2-1.2V1.9c0-0.7,0.6-1.2,1.2-1.2h46.6c0.7,0,1.2,0.6,1.2,1.2v35.9
			c0,0.7-0.6,1.2-1.2,1.2S47,38.4,47,37.7V3.1H2.9v43.8h29.9c0.7,0,1.2,0.6,1.2,1.2S33.6,49.4,32.9,49.4z"/>
	</g>
	<g>
		<g>
			<g>
				<g>
					<g>
						<g>
							<g>
								<g>
									<path class="st2" d="M38.1,23.7c-0.3,0-0.5-0.2-0.6-0.5c-0.1-0.3,0-0.5,0.2-0.7c0.2-0.2,0.5-0.2,0.8-0.1
										c0.2,0.1,0.4,0.4,0.3,0.7C38.7,23.4,38.4,23.7,38.1,23.7z"/>
									<path class="st2" d="M38.1,23.8c-0.3,0-0.6-0.2-0.7-0.5c-0.1-0.3,0-0.6,0.2-0.8c0.3-0.2,0.6-0.3,0.9-0.1
										c0.3,0.2,0.4,0.5,0.3,0.8C38.8,23.5,38.4,23.8,38.1,23.8z M38.1,22.4c-0.1,0-0.3,0-0.4,0.1c-0.2,0.1-0.2,0.4-0.2,0.6
										c0.1,0.2,0.3,0.4,0.5,0.4c0.3,0,0.5-0.2,0.6-0.5c0-0.2-0.1-0.5-0.3-0.6C38.3,22.5,38.2,22.4,38.1,22.4z"/>
								</g>
							</g>
						</g>
					</g>
				</g>
				<g>
					<g>
						<g>
							<g>
								<path class="st2" d="M27.9,24.6c-2.6,0-4.7-2.1-4.7-4.7c0-2.6,2.1-4.7,4.7-4.7s4.7,2.1,4.7,4.7
									C32.6,22.5,30.5,24.6,27.9,24.6z M27.9,16.6c-1.9,0-3.4,1.5-3.4,3.4c0,1.9,1.5,3.4,3.4,3.4c1.9,0,3.4-1.5,3.4-3.4
									C31.3,18.1,29.8,16.6,27.9,16.6z"/>
								<path class="st2" d="M27.9,24.7c-2.6,0-4.8-2.1-4.8-4.8s2.1-4.8,4.8-4.8c2.6,0,4.8,2.1,4.8,4.8S30.6,24.7,27.9,24.7z
									 M27.9,15.3c-2.5,0-4.6,2.1-4.6,4.6c0,2.5,2.1,4.6,4.6,4.6c2.5,0,4.6-2.1,4.6-4.6C32.5,17.4,30.4,15.3,27.9,15.3z
									 M27.9,23.4c-1.9,0-3.5-1.6-3.5-3.5s1.6-3.5,3.5-3.5s3.5,1.6,3.5,3.5S29.8,23.4,27.9,23.4z M27.9,16.7
									c-1.8,0-3.3,1.5-3.3,3.3s1.5,3.3,3.3,3.3s3.3-1.5,3.3-3.3S29.7,16.7,27.9,16.7z"/>
							</g>
						</g>
					</g>
				</g>
			</g>
		</g>
		<g>
			<g>
				<g>
					<g>
						<path class="st2" d="M37.7,25.5c-0.3-0.1-0.7,0.1-0.8,0.4c-0.5,1.4-1.2,2.6-2.3,3.6c-0.4,0.4-0.7,0.7-1.1,1v-3
							c0-1.1-0.9-2-2-2h-7.1c-1.1,0-2,0.9-2,2v3c-0.4-0.3-0.8-0.6-1.1-1c-3.7-3.7-3.7-9.7,0-13.4c1.8-1.8,4.2-2.8,6.7-2.8h0
							c2.5,0,4.9,1,6.7,2.8c1,1,1.8,2.2,2.3,3.6c0.1,0.3,0.5,0.5,0.8,0.4c0.3-0.1,0.5-0.5,0.4-0.8c-0.5-1.6-1.4-2.9-2.6-4.1
							c-2-2-4.8-3.2-7.6-3.2h0c-2.9,0-5.6,1.1-7.6,3.2c-4.2,4.2-4.2,11.1,0,15.3c0.7,0.7,1.5,1.3,2.4,1.8c0,0,0,0,0,0
							c1.6,0.9,3.4,1.3,5.2,1.3h0c1.8,0,3.6-0.5,5.2-1.3c0,0,0,0,0,0c0.9-0.5,1.7-1.1,2.4-1.8c1.2-1.2,2-2.5,2.6-4.1
							C38.2,26,38.1,25.6,37.7,25.5L37.7,25.5z M23.7,31.3v-3.8c0-0.4,0.3-0.7,0.7-0.7h7.1c0.4,0,0.7,0.3,0.7,0.7v3.8
							C29.5,32.6,26.3,32.6,23.7,31.3L23.7,31.3z"/>
						<path class="st2" d="M27.9,33.7c-1.9,0-3.7-0.5-5.3-1.4c-0.9-0.5-1.7-1.1-2.4-1.8c-4.3-4.3-4.2-11.2,0-15.4
							c2.1-2.1,4.8-3.2,7.7-3.2c2.9,0,5.7,1.1,7.7,3.2c1.2,1.2,2.1,2.6,2.6,4.2c0.1,0.2,0.1,0.4,0,0.6c-0.1,0.2-0.2,0.3-0.4,0.4
							c-0.2,0.1-0.4,0.1-0.6,0c-0.2-0.1-0.3-0.2-0.4-0.4c-0.5-1.4-1.2-2.6-2.2-3.6c-1.8-1.8-4.1-2.7-6.6-2.7c-2.5,0-4.9,1-6.6,2.8
							c-3.7,3.7-3.7,9.6,0,13.3c0.3,0.3,0.6,0.6,1,0.8v-2.8c0-1.2,0.9-2.1,2.1-2.1h7.1c1.2,0,2.1,0.9,2.1,2.1v2.8
							c0.3-0.3,0.7-0.5,1-0.8c1-1,1.8-2.2,2.2-3.5c0.1-0.4,0.6-0.6,1-0.5l0,0c0.2,0.1,0.3,0.2,0.4,0.4c0.1,0.2,0.1,0.4,0,0.6
							c-0.5,1.6-1.4,2.9-2.6,4.1c-0.7,0.7-1.5,1.3-2.4,1.8v0l-0.1,0C31.6,33.2,29.8,33.7,27.9,33.7z M27.9,12
							c-2.9,0-5.6,1.1-7.6,3.1c-4.2,4.2-4.2,11,0,15.2c0.7,0.7,1.5,1.3,2.4,1.8c1.6,0.9,3.4,1.3,5.2,1.3c1.8,0,3.6-0.5,5.1-1.3
							l0.1,0c0.9-0.5,1.7-1.1,2.4-1.8c1.2-1.2,2-2.5,2.5-4c0-0.1,0-0.3,0-0.4s-0.2-0.2-0.3-0.3c-0.3-0.1-0.6,0.1-0.7,0.3
							c-0.5,1.4-1.2,2.6-2.3,3.6c-0.4,0.4-0.7,0.7-1.1,1l-0.2,0.1v-3.2c0-1.1-0.9-1.9-1.9-1.9h-7.1c-1.1,0-1.9,0.9-1.9,1.9v3.2
							l-0.2-0.1c-0.4-0.3-0.8-0.6-1.2-1c-3.7-3.7-3.7-9.8,0-13.6c1.8-1.8,4.2-2.8,6.8-2.8c2.6,0,5,1,6.8,2.8c1,1,1.8,2.3,2.3,3.6
							c0,0.1,0.2,0.3,0.3,0.3c0.1,0.1,0.3,0.1,0.4,0c0.1,0,0.3-0.2,0.3-0.3c0.1-0.1,0.1-0.3,0-0.4c-0.5-1.5-1.4-2.9-2.5-4.1
							C33.5,13.2,30.8,12,27.9,12z M27.9,32.3c-1.5,0-2.9-0.3-4.3-1l-0.1,0v-3.9c0-0.4,0.3-0.8,0.8-0.8h7.1c0.4,0,0.8,0.3,0.8,0.8
							v3.9l-0.1,0C30.9,32,29.4,32.3,27.9,32.3z M23.8,31.2c2.6,1.3,5.7,1.3,8.3,0v-3.7c0-0.3-0.3-0.6-0.6-0.6h-7.1
							c-0.3,0-0.6,0.3-0.6,0.6V31.2z"/>
					</g>
					<g>
						<path class="st2" d="M27.9,8.7c-7.7,0-14,6.3-14,14c0,3,1,5.9,2.6,8.2l-1.3,1.3l-0.3-0.3c-0.1-0.1-0.3-0.2-0.5-0.2
							c-0.2,0-0.3,0.1-0.5,0.2l-1.9,1.9c0,0,0,0,0,0L8.9,37c-1.3,1.3-1.3,3.5,0,4.8c0.6,0.6,1.5,1,2.4,1s1.8-0.4,2.4-1l3.1-3.1h0
							l1.9-1.9c0.3-0.3,0.3-0.7,0-0.9l-0.3-0.3l1.3-1.3c2.3,1.7,5.1,2.6,8.2,2.6c7.7,0,14-6.3,14-14S35.6,8.7,27.9,8.7L27.9,8.7z
							 M12.8,40.8c-0.4,0.4-0.9,0.6-1.5,0.6c-0.6,0-1.1-0.2-1.5-0.6C9,40,9,38.7,9.9,37.9l2.7-2.7l1.5,1.5l1.5,1.5L12.8,40.8z
							 M16.4,37.2l-1.5-1.5l-1.5-1.5l1-1l2.9,2.9L16.4,37.2z M17.5,34.5l-0.7-0.7l-0.7-0.7l1.2-1.2c0.4,0.5,0.9,0.9,1.4,1.4
							L17.5,34.5z M27.9,35.5c-7,0-12.7-5.7-12.7-12.7c0-7,5.7-12.7,12.7-12.7s12.7,5.7,12.7,12.7S34.9,35.5,27.9,35.5z"/>
						<path class="st2" d="M11.3,42.9c-0.9,0-1.8-0.4-2.5-1c-0.7-0.7-1-1.5-1-2.5s0.4-1.8,1-2.5l5.1-5.1c0.3-0.3,0.8-0.3,1.1,0
							l0.2,0.2l1.1-1.1c-1.7-2.4-2.6-5.2-2.6-8.2c0-7.8,6.3-14.1,14.1-14.1C35.7,8.6,42,15,42,22.8s-6.3,14.1-14.1,14.1
							c-2.9,0-5.8-0.9-8.1-2.6l-1.1,1.1l0.2,0.2c0.1,0.1,0.2,0.3,0.2,0.5c0,0.2-0.1,0.4-0.2,0.5l-5.1,5.1
							C13.1,42.5,12.3,42.9,11.3,42.9z M14.5,31.8c-0.2,0-0.3,0.1-0.4,0.2L9,37c-1.3,1.3-1.3,3.4,0,4.7c0.6,0.6,1.5,1,2.3,1
							s1.7-0.3,2.3-1l5.1-5.1c0.1-0.1,0.2-0.2,0.2-0.4c0-0.2-0.1-0.3-0.2-0.4l-0.4-0.4l1.4-1.4l0.1,0c2.4,1.7,5.2,2.6,8.1,2.6
							c7.7,0,13.9-6.2,13.9-13.9S35.6,8.8,27.9,8.8S14,15.1,14,22.8c0,2.9,0.9,5.7,2.6,8.1l0,0.1l-1.4,1.4L14.9,32
							C14.8,31.8,14.6,31.8,14.5,31.8z M11.3,41.5c-0.6,0-1.1-0.2-1.5-0.6c-0.4-0.4-0.6-1-0.6-1.5c0-0.6,0.2-1.1,0.6-1.5l2.7-2.7
							l3.1,3.1l-0.1,0.1l-2.7,2.7C12.4,41.3,11.9,41.5,11.3,41.5z M12.5,35.4L9.9,38c-0.4,0.4-0.6,0.9-0.6,1.4c0,0.5,0.2,1,0.6,1.4
							c0.4,0.4,0.9,0.6,1.4,0.6s1-0.2,1.4-0.6l2.6-2.6L12.5,35.4z M16.4,37.4l-3.1-3.1l1.1-1.1l0.1,0.1l3,3L16.4,37.4z M13.6,34.3
							l2.8,2.8l0.9-0.9l-2.8-2.8L13.6,34.3z M27.9,35.6c-7.1,0-12.8-5.7-12.8-12.8c0-7.1,5.7-12.8,12.8-12.8
							c7.1,0,12.8,5.7,12.8,12.8C40.7,29.8,35,35.6,27.9,35.6z M27.9,10.2c-6.9,0-12.6,5.6-12.6,12.6c0,6.9,5.6,12.6,12.6,12.6
							c6.9,0,12.6-5.6,12.6-12.6C40.5,15.8,34.9,10.2,27.9,10.2z M17.5,34.6l-1.5-1.5l1.3-1.3l0.1,0.1c0.4,0.5,0.9,0.9,1.3,1.3
							l0.1,0.1L17.5,34.6z M16.3,33.1l1.2,1.2l1-1c-0.4-0.4-0.8-0.8-1.2-1.2L16.3,33.1z"/>
					</g>
				</g>
			</g>
		</g>
	</g>
</g>
</svg>
