<?xml version="1.0" encoding="utf-8"?>
<!-- Generator: Adobe Illustrator 26.5.0, SVG Export Plug-In . SVG Version: 6.00 Build 0)  -->
<svg version="1.1" id="Camada_3" xmlns="http://www.w3.org/2000/svg" xmlns:xlink="http://www.w3.org/1999/xlink" x="0px" y="0px"
	 viewBox="0 0 50 50" style="enable-background:new 0 0 50 50;" xml:space="preserve">
<style type="text/css">
	.st0{fill:#CE9CC6;}
	.st1{fill:#C18CBD;}
	.st2{fill:none;stroke:#444444;stroke-width:2.5;stroke-miterlimit:10;}
	.st3{fill:none;stroke:#444444;stroke-linecap:round;stroke-linejoin:round;stroke-miterlimit:10;}
	.st4{fill:none;stroke:#444444;stroke-width:0.25;stroke-linecap:round;stroke-linejoin:round;stroke-miterlimit:10;}
	.st5{fill:#444444;stroke:#444444;stroke-width:0.25;stroke-miterlimit:10;}
	.st6{fill:none;stroke:#444444;stroke-width:0.25;stroke-miterlimit:10;}
</style>
<g>
	<g>
		<g>
			<polygon class="st0" points="35.81,7.2 35.81,2.49 8.19,2.49 8.19,21.14 35.81,11.31 			"/>
			<polygon class="st1" points="8.19,21.14 8.19,46.05 37.58,35.59 35.81,33.64 35.81,11.31 			"/>
		</g>
		<g>
			<path class="st2" d="M35.44,42.84v3.39c0,1.24-1,2.24-2.24,2.24H9.72c-1.24,0-2.24-1-2.24-2.24V3.75c0-1.24,1-2.24,2.24-2.24
				H33.2c1.24,0,2.24,1,2.24,2.24v27.09"/>
			<path class="st3" d="M41.67,41.3c0.8,1.04,0.6,2.53-0.44,3.33l0,0c-1.04,0.8-2.53,0.6-3.33-0.44l-1.17-1.52L19.6,20.37
				c-0.8-1.04-0.6-2.53,0.44-3.33l0,0c1.04-0.8,2.53-0.6,3.33,0.44l14.48,18.79"/>
			<g>
				<line class="st4" x1="22.33" y1="13.71" x2="22.77" y2="10.39"/>
				<line class="st4" x1="25.66" y1="15.63" x2="28.32" y2="13.59"/>
				<line class="st4" x1="27.38" y1="18.62" x2="29.87" y2="18.94"/>
				<line class="st4" x1="20.81" y1="25.33" x2="20.38" y2="28.65"/>
				<line class="st4" x1="17.7" y1="21.75" x2="15.04" y2="23.79"/>
				<line class="st4" x1="16.7" y1="18.04" x2="13.38" y2="17.6"/>
				<line class="st4" x1="18.62" y1="14.71" x2="16.58" y2="12.05"/>
			</g>
			<polyline class="st3" points="23.27,45.12 32.27,45.12 32.27,36.85 			"/>
			<polyline class="st3" points="32.27,29.04 32.27,6.84 10.65,6.84 10.73,34.85 			"/>
			<polygon class="st3" points="34.69,40.23 34.69,44.24 36,42.7 			"/>
			<polygon class="st3" points="36.19,30.1 36.19,34.11 34.66,31.02 			"/>
			<path class="st4" d="M23.6,5.28h-4.27c-0.38,0-0.69-0.31-0.69-0.69v0c0-0.38,0.31-0.69,0.69-0.69h4.27
				c0.38,0,0.69,0.31,0.69,0.69v0C24.29,4.97,23.98,5.28,23.6,5.28z"/>
		</g>
		<g>
			<path class="st5" d="M12.76,44.43c1.83,1.19,4.29,0.79,5.63-0.98c0.29-0.38,0.48-0.81,0.62-1.24L12.76,44.43z"/>
			<path class="st6" d="M17.55,37.58c-1.85-1.39-4.48-1.02-5.87,0.84c-1.39,1.85-1.02,4.48,0.84,5.87c0.08,0.06,0.16,0.09,0.24,0.15
				l6.25-2.22C19.54,40.55,19.02,38.68,17.55,37.58z"/>
		</g>
		<path class="st3" d="M7.74,35.46l0.96-1.28l2.04,0.67c0.33-0.24,0.68-0.45,1.04-0.62l0.39-2.1l3.16-0.45l0.96,1.91
			c0.4,0.07,0.79,0.17,1.17,0.31l1.77-1.21l2.55,1.91l-0.66,2.02c0.24,0.33,0.44,0.69,0.62,1.05l2.09,0.39l0.45,3.16l-1.91,0.96
			c-0.07,0.4-0.17,0.79-0.31,1.17l1.21,1.77l-1.91,2.55l-2.04-0.67c-0.33,0.24-0.68,0.45-1.04,0.62l-0.02,0.61"/>
	</g>
	<line class="st2" x1="34.87" y1="42.23" x2="35.53" y2="42.65"/>
	<line class="st2" x1="35.16" y1="31.13" x2="35.93" y2="31.69"/>
</g>
</svg>
