<?xml version="1.0" encoding="utf-8"?>
<!-- Generator: Adobe Illustrator 24.3.0, SVG Export Plug-In . SVG Version: 6.00 Build 0)  -->
<svg version="1.1" id="Camada_1" xmlns="http://www.w3.org/2000/svg" xmlns:xlink="http://www.w3.org/1999/xlink" x="0px" y="0px"
	 viewBox="0 0 50 50" style="enable-background:new 0 0 50 50;" xml:space="preserve">
<style type="text/css">
	.st0{fill:#71BAC0;}
	.st1{fill:#7ED0D6;}
	.st2{fill:none;stroke:#444444;stroke-width:2.5;stroke-linecap:round;stroke-linejoin:round;stroke-miterlimit:10;}
	.st3{fill:#363F40;}
</style>
<g>
	<g>
		<g>
			<polygon class="st0" points="47.7,11.6 48.5,16.8 2.4,33.6 1.9,22.7 1.8,16.5 42.1,1.9 47.3,4.2 			"/>
			<polygon class="st1" points="46.1,2 48.4,5.2 1.5,21.9 2.6,4.8 5.6,1.9 34.7,1.7 			"/>
			<g>
				<path class="st2" d="M18.1,48.3H5.5c-1.9,0-3.4-1.6-3.4-3.5V5.8c0-2,1.5-3.5,3.4-3.5h39c1.9,0,3.4,1.6,3.4,3.5v24.6"/>
				<path class="st2" d="M2.1,15.8"/>
				<path class="st2" d="M47.9,15.8"/>
			</g>
		</g>
	</g>
	<g>
		<g>
			<g>
				<polygon class="st3" points="37.3,21.4 36.3,21.4 36.3,14.5 31.4,9.6 13.7,9.6 13.7,21.4 12.7,21.4 12.7,8.6 31.9,8.6 37.3,14 
									"/>
			</g>
			<g>
				<polygon class="st3" points="37.3,41.4 12.7,41.4 12.7,28.6 13.7,28.6 13.7,40.4 36.3,40.4 36.3,28.6 37.3,28.6 				"/>
			</g>
			<g>
				<rect x="15.8" y="11.7" class="st3" width="1" height="1"/>
			</g>
			<g>
				<rect x="17.8" y="11.7" class="st3" width="1" height="1"/>
			</g>
			<g>
				<rect x="19.9" y="11.7" class="st3" width="1" height="1"/>
			</g>
			<g>
				<rect x="15.8" y="13.7" class="st3" width="13.3" height="1"/>
			</g>
			<g>
				<rect x="15.8" y="15.8" class="st3" width="18.4" height="1"/>
			</g>
			<g>
				<rect x="15.8" y="35.2" class="st3" width="18.4" height="1"/>
			</g>
			<g>
				<rect x="15.8" y="33.2" class="st3" width="18.4" height="1"/>
			</g>
			<g>
				<rect x="15.8" y="37.3" class="st3" width="18.4" height="1"/>
			</g>
			<g>
				<polygon class="st3" points="36.8,14.8 31.1,14.8 31.1,9.1 32.2,9.1 32.2,13.7 36.8,13.7 				"/>
			</g>
			<g>
				<g>
					<path class="st3" d="M25,32.2c-6.6,0-12.9-6.5-13.2-6.8L11.5,25l0.3-0.4c0.3-0.3,6.5-6.8,13.2-6.8c6.6,0,12.9,6.5,13.2,6.8
						l0.3,0.4l-0.3,0.4C37.9,25.6,31.6,32.2,25,32.2z M12.9,25c1.4,1.4,6.7,6.1,12.1,6.1s10.7-4.8,12.1-6.1
						c-1.4-1.4-6.7-6.1-12.1-6.1S14.3,23.6,12.9,25z"/>
				</g>
				<g>
					<path class="st3" d="M25,32.2c-4,0-7.2-3.2-7.2-7.2s3.2-7.2,7.2-7.2c4,0,7.2,3.2,7.2,7.2S29,32.2,25,32.2z M25,18.9
						c-3.4,0-6.1,2.8-6.1,6.1s2.8,6.1,6.1,6.1c3.4,0,6.1-2.8,6.1-6.1S28.4,18.9,25,18.9z"/>
				</g>
				<g>
					<path class="st3" d="M25,29.1c-2.3,0-4.1-1.8-4.1-4.1v-1l0.8,0.6c0.4,0.3,0.8,0.4,1.2,0.4c1.1,0,2-0.9,2-2
						c0-0.4-0.1-0.9-0.4-1.2L24,20.9h1c2.3,0,4.1,1.8,4.1,4.1S27.3,29.1,25,29.1z M22.1,25.9c0.4,1.3,1.6,2.2,2.9,2.2
						c1.7,0,3.1-1.4,3.1-3.1c0-1.4-0.9-2.6-2.2-2.9C26,22.3,26,22.6,26,23c0,1.7-1.4,3.1-3.1,3.1C22.6,26,22.3,26,22.1,25.9z"/>
				</g>
			</g>
		</g>
	</g>
</g>
</svg>
