<?xml version="1.0" encoding="utf-8"?>
<!-- Generator: Adobe Illustrator 27.5.0, SVG Export Plug-In . SVG Version: 6.00 Build 0)  -->
<svg version="1.1" id="Camada_3" xmlns="http://www.w3.org/2000/svg" xmlns:xlink="http://www.w3.org/1999/xlink" x="0px" y="0px"
	 viewBox="0 0 50 50" style="enable-background:new 0 0 50 50;" xml:space="preserve">
<style type="text/css">
	.st0{fill:#E589EF;}
	.st1{fill:none;stroke:#444444;stroke-width:2.5;stroke-linecap:round;stroke-linejoin:round;stroke-miterlimit:10;}
	.st2{fill:none;stroke:#444444;stroke-miterlimit:10;}
	.st3{fill:none;stroke:#444444;stroke-width:0.5;stroke-miterlimit:10;}
	.st4{fill:#444444;}
</style>
<g>
	<g>
		<path class="st0" d="M0.7,22.9l4,13.4c0.1,0.4,4.6,5.6,4.9,5.9l5.6,3l32.2-11.7C48,33,49,24.8,48.1,20c-0.2-0.8-2.7-7.5-3.2-8.1
			l-3-3.5l-3-2.5l-6.1-3.2l-6.9-1.8L12.6,5.5l-8.3,8.4L0.7,22.9z"/>
	</g>
	<g>
		<g>
			<g>
				<path class="st1" d="M36.8,45.3c-7.9,4.5-18.1,4.2-25.8-1.6C0.7,36-1.4,21.3,6.4,10.9"/>
				<path class="st1" d="M6.2,11.1c2-3,4.7-4.7,4.7-4.7l0.7-0.5C19.7,0.1,30.9,0,39.2,6.3c10.4,7.8,12.4,22.5,4.7,32.8"/>
			</g>
		</g>
	</g>
</g>
<path class="st2" d="M26,29.1l0.1,4.6c0,0.3-0.3,0.6-0.6,0.6h-1.6c-0.4,0-0.7-0.3-0.7-0.7v-4.5c0,0-5-4.5-5-4.8v-3.7
	c0-0.4,0.3-0.7,0.7-0.7h11.4c0.4,0,0.7,0.3,0.7,0.7v3.7C30.9,24.7,26,29.1,26,29.1z"/>
<rect x="19.7" y="9" class="st3" width="2.1" height="6.1"/>
<rect x="26.9" y="12.3" class="st3" width="2.1" height="4.3"/>
<rect x="26.9" y="8.6" class="st3" width="2.1" height="2.3"/>
<rect x="19.7" y="16.6" class="st3" width="2.1" height="1.5"/>
<rect x="23.2" y="7.1" class="st3" width="2.1" height="6.1"/>
<rect x="23.2" y="14.7" class="st3" width="2.1" height="3.3"/>
<g>
	<path class="st4" d="M33.1,34.2c-0.1-0.2-0.2-0.3-0.4-0.5c-0.3-0.2-0.7-0.4-1.2-0.6c-0.7-0.2-1.5-0.4-2.3-0.5
		c-0.6-0.1-1.1-0.1-1.7-0.2c-0.2,0-1.1,0-1.3,0c0,0.1,0.1,0.3,0.1,0.4c0,0.1-0.1,0.3-0.2,0.4c0.2,0,1,0,1.2,0c1,0.1,2,0.2,2.9,0.4
		c0.4,0.1,0.7,0.2,1,0.4c0.1,0.1,0.3,0.2,0.3,0.3s0,0.2-0.1,0.2c-0.1,0.1-0.3,0.2-0.6,0.3c-0.5,0.2-1,0.3-1.5,0.4
		c-0.6,0.1-1.2,0.2-1.8,0.2c-0.5,0-1,0.1-1.5,0.1s-1,0-1.5,0s-1,0-1.5,0c-0.4,0-0.8,0-1.2-0.1c-0.7,0-1.3-0.1-1.9-0.2
		c-0.6-0.1-1.1-0.2-1.6-0.4c-0.2-0.1-0.4-0.2-0.6-0.3c-0.1-0.1-0.1-0.2,0-0.4c0.2-0.1,0.4-0.3,0.7-0.3c0.5-0.2,1.1-0.3,1.7-0.4
		c0.6-0.1,1.2-0.2,1.9-0.2c0.1,0,1.1,0,1.2,0c-0.1-0.1-0.1-0.2-0.1-0.3C23,32.7,23,32.6,23,32.4c-1,0.1-2.8,0.2-3.7,0.4
		c-0.7,0.1-1.4,0.3-1.9,0.5c-0.4,0.2-0.7,0.3-0.9,0.6c-0.1,0.1-0.2,0.3-0.2,0.4l0,0v7.2c0,0.1,0,0.1,0,0.2c0.1,0.2,0.2,0.3,0.4,0.5
		c0.3,0.2,0.7,0.4,1.2,0.6c0.7,0.2,1.5,0.4,2.3,0.5c0.6,0.1,1.1,0.1,1.7,0.2c0.5,0,1.1,0.1,1.6,0.1c0.3,0,0.6,0,0.9,0h0.1H25h0.1
		c0.4,0,0.8,0,1.2,0c1.3-0.1,2.6-0.2,3.8-0.4c0.7-0.1,1.4-0.3,1.9-0.5c0.4-0.2,0.7-0.3,0.9-0.6c0.1-0.1,0.2-0.3,0.2-0.4l0,0v-7.2
		C33.1,34.3,33.1,34.2,33.1,34.2z M17.1,38.1L17.1,38.1c0.1,0,0.2,0,0.4,0c0.8,0.2,1.7,0.4,2.5,0.5c0.6,0.1,1.3,0.1,1.9,0.2
		c0.6,0,1.2,0.1,1.7,0.1c0.6,0,1.1,0,1.7,0c0.5,0,1.1,0,1.6-0.1c0.9,0,1.9-0.1,2.8-0.3c0.8-0.1,1.5-0.3,2.2-0.5c0,0,0,0,0.1,0l0,0
		l0,0c0,0.4,0,0.8,0,1.1c0,0.1-0.1,0.2-0.2,0.3c-0.2,0.2-0.5,0.3-0.9,0.4c-0.7,0.2-1.4,0.3-2.2,0.4c-0.6,0.1-1.2,0.1-1.8,0.2
		c-0.4,0-0.9,0-1.3,0.1c-0.6,0-1.1,0-1.7,0c-0.5,0-1,0-1.4,0c-0.7,0-1.4-0.1-2.1-0.2c-0.8-0.1-1.6-0.2-2.4-0.4
		c-0.3-0.1-0.6-0.2-0.9-0.4c-0.1-0.1-0.2-0.2-0.2-0.3C17.1,38.8,17.1,38.4,17.1,38.1z M31.8,41.8c-0.3,0.2-0.6,0.3-1,0.4
		c-0.7,0.2-1.5,0.3-2.3,0.4c-0.5,0.1-1.1,0.1-1.7,0.1c-0.4,0-0.7,0-1.1,0c-0.5,0-0.9,0-1.4,0s-1.1,0-1.6,0c-0.8,0-1.7-0.1-2.5-0.2
		c-0.7-0.1-1.4-0.2-2-0.4c-0.3-0.1-0.6-0.2-0.9-0.3c-0.1-0.1-0.2-0.2-0.2-0.3c0-0.3,0-0.7,0-1v-0.1c0,0,0,0,0.1,0
		c0.8,0.2,1.6,0.4,2.5,0.5c0.6,0.1,1.3,0.2,1.9,0.2c0.5,0,1.1,0.1,1.6,0.1c0.6,0,1.2,0,1.8,0c0.6,0,1.1,0,1.7,0
		c1.2-0.1,2.3-0.2,3.4-0.3c0.7-0.1,1.3-0.2,1.9-0.4c0,0,0,0,0.1,0v0.1c0,0.3,0,0.6,0,1C32.1,41.6,32,41.7,31.8,41.8z M31.8,37.1
		c-0.3,0.2-0.6,0.3-1,0.4c-0.7,0.2-1.5,0.3-2.3,0.4C28,38,27.4,38,26.9,38c-0.4,0-0.9,0-1.3,0.1c-0.5,0-1,0-1.5,0s-1.1,0-1.6-0.1
		c-1.1-0.1-2.1-0.2-3.2-0.3c-0.6-0.1-1.2-0.2-1.6-0.4c-0.2-0.1-0.4-0.2-0.5-0.3c0,0-0.1-0.1-0.1-0.2c0-0.4,0-0.8,0-1.2l0,0
		c0,0,0,0,0.1,0c0.8,0.2,1.6,0.4,2.4,0.5c0.6,0.1,1.3,0.2,1.9,0.2c0.7,0.1,1.4,0.1,2.1,0.1c0.6,0,1.2,0,1.9,0c0.7,0,1.3,0,2-0.1
		c0.9-0.1,1.8-0.2,2.7-0.3c0.6-0.1,1.3-0.2,1.8-0.4c0,0,0,0,0.1,0v0.1c0,0.4,0,0.7,0,1.1C32.1,36.9,32,37,31.8,37.1z"/>
</g>
<circle class="st0" cx="-78.5" cy="21.5" r="20"/>
</svg>
