<?xml version="1.0" encoding="utf-8"?>
<!-- Generator: Adobe Illustrator 26.5.0, SVG Export Plug-In . SVG Version: 6.00 Build 0)  -->
<svg version="1.1" id="Camada_3" xmlns="http://www.w3.org/2000/svg" xmlns:xlink="http://www.w3.org/1999/xlink" x="0px" y="0px"
	 viewBox="0 0 50 50" style="enable-background:new 0 0 50 50;" xml:space="preserve">
<style type="text/css">
	.st0{fill:#E56060;}
	.st1{fill:#FF6B6B;}
	
		.st2{fill-rule:evenodd;clip-rule:evenodd;fill:none;stroke:#444444;stroke-width:2.5;stroke-linecap:round;stroke-linejoin:round;stroke-miterlimit:10;}
	.st3{fill-rule:evenodd;clip-rule:evenodd;fill:none;stroke:#444444;stroke-miterlimit:10;}
	.st4{fill:none;stroke:#444444;stroke-linecap:round;stroke-miterlimit:10;}
	.st5{fill:#444444;}
	.st6{fill:none;stroke:#444444;stroke-width:0.25;stroke-miterlimit:10;}
</style>
<g>
	<g>
		<g>
			<polygon class="st0" points="46.62,25.52 46.62,30.78 45.55,31.55 7.09,45.55 4.93,40.02 4.88,30.8 4.9,27.77 46.62,12.3 
				46.62,16.66 46.06,20.61 			"/>
			<polygon class="st1" points="37.2,3.24 46.33,13.13 8.22,26.94 3.62,28.61 4.88,2.95 13.27,2.41 27.59,2.41 			"/>
		</g>
	</g>
	<g>
		<path class="st2" d="M43.44,11.03 M43.44,39.61c0,2.92,0,6.56,0,7.29c0,0.82-0.63,1.48-1.39,1.48l-30.85-0.01 M11.19,48.36
			c-2.87-1.31-5.51-3.14-6.76-5.94V5.12c0-1.5,1.21-2.71,2.71-2.71L36.2,2.42c0.76,0,1.39,0.67,1.39,1.5v0.67 M4.43,2.41
			 M43.98,11.03h-0.54h1.99c0.66,0,1.19,0.57,1.19,1.27v6.19c0,0.7-0.54,1.73-1.19,1.73 M43.44,20.22h1.99
			c0.66,0,1.19,1.23,1.19,1.93v6.19c0,0.7-0.54,1.89-1.19,1.89 M43.44,30.22h1.99c0.66,0,1.19,1.07,1.19,1.77v6.19
			c0,1.43-2.53,1.43-3.18,1.43"/>
		<line class="st2" x1="44.26" y1="11.03" x2="37.58" y2="4.58"/>
		<path class="st3" d="M11.39,11.03h34.04c0.78,0,1.19,1.43,1.19,2.27 M11.39,11.03 M4.88,2.95L4.88,2.95
			c0.85,1.83,4.11,7.15,6.51,8.08V48.1 M38.31,5.26H6.12 M42.26,8.89v38.94"/>
		<g>
			<path class="st4" d="M22.69,32.48c0,0,5.09,3.3,9.74-0.32"/>
		</g>
		<circle class="st5" cx="21.86" cy="28.07" r="1.49"/>
		<circle class="st5" cx="32.77" cy="28.07" r="1.49"/>
	</g>
</g>
<line class="st6" x1="6.94" y1="6.57" x2="39.28" y2="6.57"/>
<line class="st6" x1="8.16" y1="7.62" x2="40.51" y2="7.62"/>
<line class="st6" x1="8.57" y1="8.68" x2="40.91" y2="8.68"/>
<line class="st6" x1="9.33" y1="9.73" x2="41.68" y2="9.73"/>
</svg>
