<?xml version="1.0" encoding="utf-8"?>
<!-- Generator: Adobe Illustrator 26.5.0, SVG Export Plug-In . SVG Version: 6.00 Build 0)  -->
<svg version="1.1" id="Camada_3" xmlns="http://www.w3.org/2000/svg" xmlns:xlink="http://www.w3.org/1999/xlink" x="0px" y="0px"
	 viewBox="0 0 50 50" style="enable-background:new 0 0 50 50;" xml:space="preserve">
<style type="text/css">
	.st0{fill:#F56991;}
	.st1{fill:#DC5E82;}
	.st2{fill:none;stroke:#444444;stroke-linecap:round;stroke-linejoin:round;stroke-miterlimit:10;}
	.st3{fill:none;stroke:#444444;stroke-miterlimit:10;}
	.st4{fill:none;stroke:#444444;stroke-width:2.5;stroke-linecap:round;stroke-linejoin:round;stroke-miterlimit:10;}
	.st5{fill:#444444;}
</style>
<g>
	<g>
		<polygon class="st0" points="35.32,9.97 1.81,11.35 1.43,25.85 37.04,13.18 		"/>
		<path class="st1" d="M1.43,27.17v11.99c0,1.3,1.28,2.2,2.51,1.77l42.01-14.96c2.41-0.86,2.89-6.54,1.58-9.17
			c-0.22-0.44-0.64-0.75-1.12-0.89l-8.45-1.01c-0.38-0.11-1.12-1.65-1.49-1.52L2.68,25.4C1.93,25.67,1.43,26.38,1.43,27.17z"/>
	</g>
	<path class="st2" d="M1.45,20.18v5.06v5.06v5.55l1.91-3.86l1.91-3.86l1.91-3.86l1.91-3.86c0.23-0.47,0.55-0.91,0.92-1.31
		s0.81-0.75,1.29-1.04c0.47-0.29,0.98-0.53,1.5-0.69c0.52-0.16,1.06-0.25,1.58-0.25h6.04h6.04h6.04h5.27l0.36-0.5
		c0.23-0.32,0.61-0.51,1.01-0.51h6.32c0.95,0,1.55,1.02,1.08,1.85l-1.2,2.12"/>
	<path class="st3" d="M46,27.07l2.19-4.43c0.14-0.28,0.21-0.54,0.21-0.79c0.01-0.24-0.05-0.46-0.17-0.64s-0.28-0.33-0.5-0.44
		c-0.22-0.1-0.49-0.16-0.8-0.16h-8.14h-8.14H22.5h-8.14c-0.31,0-0.64,0.06-0.96,0.16c-0.32,0.1-0.64,0.25-0.93,0.44
		s-0.57,0.4-0.8,0.64c-0.23,0.24-0.43,0.51-0.57,0.79l-2.19,4.43L6.72,31.5l-2.19,4.43l-2.19,4.43c-0.14,0.28-0.2-0.43-0.21-0.18
		s0.05,0.46,0.17,0.64c0.11,0.18,0.29,0.33,0.51,0.44c0.22,0.1,0.49,0.16,0.8,0.16h8.14h8.14h8.14"/>
	<path class="st4" d="M4.55,9.97L4.55,9.97L4.55,9.97H3.89c-0.31,0-0.61,0.06-0.88,0.18c-0.27,0.11-0.51,0.28-0.72,0.48
		c-0.21,0.2-0.37,0.45-0.49,0.72c-0.12,0.27-0.18,0.57-0.18,0.88l-0.19,8.29v5.06v5.06v8.34l0,0c0.02,0.17-0.01,0.7,0.38,1.23
		c0.5,0.69,1.54,0.81,1.78,0.81c0.28,0-0.31,0,0,0h8.14h8.14H34.6h0.32c1.75,0,3.36-0.95,4.2-2.48l9.28-16.84
		c0.47-0.84-0.11-1.92-1.07-1.94c-0.01,0-0.03,0-0.04,0c-0.6,0.18-1.11,0.36-0.09-1.02l0.12-0.3c0,0,1.62-3.54-1.44-3.54H40
		c-3.12,0-2.91,1.32-2.91,1.32l0,0c0,0,0.87-6.25-3.13-6.25l0,0h-2.49h-2.49H4.55z M38.49,14.9"/>
	<path class="st2" d="M37.96,13.77"/>
	<path class="st2" d="M37.96,17.31"/>
	<path class="st2" d="M22.82,26.73"/>
	<g>
		<g>
			<g>
				<path class="st5" d="M14.79,25.69c-0.2,0.9-0.72,3.76,1.13,3.15c0.33-0.11,0.56-0.36,0.81-0.58c0.48-0.41,1.01-0.76,1.51-1.14
					c0.77-0.59,1.5-1.31,2.4-1.71c-0.31-0.12-0.61-0.25-0.92-0.37c0.1,0.31-0.99,1.97-1.21,2.39c-0.58,1.12-1.05,2.33-1.5,3.51
					c-0.58,1.55-1.65,4.66,0.18,5.83c1.59,1.03,3.73-0.71,4.77-1.8c1.66-1.73,3.18-3.75,4.17-5.95c0.38-0.86,1.8-3.85,0.24-4.3
					c-1.55-0.44-3.05,2.08-3.54,3.15c-0.87,1.95-1.66,4.4-1.59,6.56c0.07,2.04,1.45,3.86,3.64,3.17c2.49-0.79,4.59-3.33,6.32-5.17
					c2.05-2.17,3.98-4.46,6.03-6.62c-0.29-0.29-0.59-0.59-0.88-0.88c-0.02,0.02-0.04,0.04-0.06,0.06c-0.54,0.59,0.34,1.48,0.88,0.88
					c0.02-0.02,0.04-0.04,0.06-0.06c0.54-0.59-0.33-1.47-0.88-0.88c-2.57,2.71-4.94,5.62-7.6,8.24c-1.2,1.18-2.76,2.96-4.49,3.31
					c-2.63,0.52-1.58-4.07-1.22-5.33c0.49-1.67,1-3.41,2.25-4.69c0.22-0.22,0.43-0.35,0.7-0.51c-0.02-0.02-0.05-0.04-0.07-0.07
					c-0.1-0.13-0.14-0.08-0.14,0.16c-0.05,0.07-0.07,0.22-0.09,0.3c-0.22,0.78-0.42,1.6-0.77,2.33c-0.85,1.75-1.99,3.29-3.24,4.77
					c-0.66,0.78-3.84,3.79-4.19,1.38c-0.28-1.98,0.99-4.22,1.73-5.97c0.38-0.9,0.89-1.73,1.29-2.62c0.21-0.46,0.58-1.02,0.42-1.55
					c-0.13-0.42-0.54-0.54-0.92-0.37c-1.06,0.47-1.92,1.36-2.85,2.04c-0.44,0.32-0.93,0.61-1.31,1c-0.18,0.08-0.19,0.18-0.03,0.31
					c0-0.13,0-0.25,0-0.38c0.11-0.41,0.08-0.87,0.18-1.29C16.18,25.24,14.97,24.91,14.79,25.69L14.79,25.69z"/>
			</g>
		</g>
		<g>
			<g>
				<path class="st5" d="M29.08,25.55c-0.08,1.24,0.03,2.44,0.32,3.66c0.29,1.2,0.82,2.26,1.5,3.29c1.24,1.9,2.97,3.89,5.12,4.74
					c0.75,0.3,1.07-0.91,0.33-1.21c-0.95-0.38-1.78-1.1-2.49-1.82c-0.73-0.76-1.44-1.62-2-2.51c-0.59-0.94-1.04-1.85-1.29-2.93
					c-0.25-1.08-0.32-2.12-0.25-3.22C30.38,24.75,29.13,24.75,29.08,25.55L29.08,25.55z"/>
			</g>
		</g>
	</g>
</g>
</svg>
