<svg version="1.1" id="Camada_1" xmlns="http://www.w3.org/2000/svg" xmlns:xlink="http://www.w3.org/1999/xlink" x="0px" y="0px"
	 viewBox="0 0 50 50" style="enable-background:new 0 0 50 50;" xml:space="preserve">
<style type="text/css">
	.st0{fill:#71BAC0;}
	.st1{fill:#7ED0D6;}
	.st2{fill:#444444;}
	.st3{fill:none;stroke:#444444;stroke-width:1.5;stroke-linecap:round;stroke-linejoin:round;stroke-miterlimit:10;}
</style>
<polygon class="st0" points="48.2,25.5 48.2,25.8 2,47.2 1.7,38.1 1.5,35.4 49,14.2 48.3,19.6 "/>
<path class="st1" d="M48.6,9.8l-0.7,5.3L1.7,36.7l0.4-12.1L1.7,24c0-7.4,0-14.8,0.1-22.2C17.3,2,32.9,2.1,48.5,2.3
	C48.5,4.8,48.6,7.3,48.6,9.8z"/>
<g>
	<path class="st2" d="M48.3,49.3c-0.7,0-1.2-0.6-1.2-1.2v-45H3v43.7h9.1c0.7,0,1.2,0.6,1.2,1.2s-0.6,1.2-1.2,1.2H1.7
		c-0.7,0-1.2-0.6-1.2-1.2V1.8c0-0.7,0.6-1.2,1.2-1.2h46.6c0.7,0,1.2,0.6,1.2,1.2V48C49.5,48.7,49,49.3,48.3,49.3z"/>
</g>
<path class="st3" d="M59.2,21.1"/>
<g>
	<path class="st2" d="M13.7,9.6h17.4v5.2h5.2v6.6h1V14l-5.4-5.4H12.7v12.8h1V9.6z M32.2,10.4l3.3,3.3h-3.3V10.4z"/>
	<polygon class="st2" points="36.3,40.4 13.7,40.4 13.7,28.6 12.7,28.6 12.7,41.4 37.3,41.4 37.3,28.6 36.3,28.6 	"/>
	<rect x="15.8" y="11.7" class="st2" width="1" height="1"/>
	<rect x="17.8" y="11.7" class="st2" width="1" height="1"/>
	<rect x="19.9" y="11.7" class="st2" width="1" height="1"/>
	<rect x="15.8" y="13.7" class="st2" width="13.3" height="1"/>
	<rect x="15.8" y="15.8" class="st2" width="18.4" height="1"/>
	<rect x="15.8" y="35.2" class="st2" width="18.4" height="1"/>
	<rect x="15.8" y="33.2" class="st2" width="18.4" height="1"/>
	<rect x="15.8" y="37.3" class="st2" width="18.4" height="1"/>
	<path class="st2" d="M38.2,24.6c-0.3-0.3-6.1-6.3-12.4-6.8c-0.3,0-0.5,0-0.8,0c-0.3,0-0.5,0-0.8,0c-6.4,0.5-12.1,6.5-12.4,6.8
		L11.5,25l0.3,0.4c0.3,0.3,6.1,6.3,12.4,6.8c0.3,0,0.5,0,0.8,0c0.3,0,0.6,0,0.8,0c6.3-0.5,12.1-6.6,12.4-6.8l0.3-0.4L38.2,24.6z
		 M31.1,25c0,3.1-2.4,5.7-5.5,6.1c-0.2,0-0.4,0-0.6,0c-3.3,0-6.1-2.8-6.1-6.1c0-3.1,2.4-5.7,5.5-6.1c0.2,0,0.4,0,0.6,0s0.4,0,0.6,0
		C28.7,19.3,31.1,21.9,31.1,25z M19.6,20.3c-1.1,1.3-1.8,2.9-1.8,4.7c0,1.8,0.7,3.5,1.8,4.7c-3.2-1.5-5.7-3.8-6.7-4.7
		C13.8,24.1,16.4,21.8,19.6,20.3z M30.5,29.7c1.1-1.3,1.7-2.9,1.7-4.7c0-1.8-0.7-3.5-1.8-4.7c3.2,1.5,5.7,3.8,6.7,4.7
		C36.2,25.8,33.6,28.2,30.5,29.7z"/>
	<path class="st2" d="M24,20.9l0.5,0.9c0.3,0.3,0.4,0.8,0.4,1.2c0,1.1-0.9,2-2,2c-0.4,0-0.8-0.1-1.2-0.4L20.9,24v1
		c0,2.3,1.8,4.1,4.1,4.1s4.1-1.8,4.1-4.1s-1.8-4.1-4.1-4.1H24z M25.9,22.1c1.3,0.3,2.2,1.5,2.2,2.9c0,1.7-1.4,3.1-3.1,3.1
		c-1.3,0-2.5-0.9-2.9-2.2c0.2,0.1,0.5,0.1,0.8,0.2c1.7,0,3.1-1.4,3.1-3.1C26,22.6,26,22.3,25.9,22.1z"/>
</g>
</svg>
