<?xml version="1.0" encoding="utf-8"?>
<!-- Generator: Adobe Illustrator 26.5.0, SVG Export Plug-In . SVG Version: 6.00 Build 0)  -->
<svg version="1.1" id="Layer_1" xmlns="http://www.w3.org/2000/svg" xmlns:xlink="http://www.w3.org/1999/xlink" x="0px" y="0px"
	 viewBox="0 0 50 50" style="enable-background:new 0 0 50 50;" xml:space="preserve">
<style type="text/css">
	.st0{fill:#F799FF;}
	.st1{fill:#E589EF;}
	.st2{fill:none;stroke:#444444;stroke-linecap:round;stroke-linejoin:round;stroke-miterlimit:10;}
	.st3{fill:none;stroke:#444444;stroke-miterlimit:10;}
	.st4{fill:none;stroke:#444444;stroke-width:0.5;stroke-linecap:round;stroke-linejoin:round;stroke-miterlimit:10;}
	.st5{fill:none;stroke:#444444;stroke-width:0.25;stroke-linecap:round;stroke-linejoin:round;stroke-miterlimit:10;}
	.st6{fill:none;stroke:#444444;stroke-width:2.5;stroke-linecap:round;stroke-linejoin:round;stroke-miterlimit:10;}
	.st7{fill:none;stroke:#444444;stroke-width:2;stroke-linecap:round;stroke-linejoin:round;stroke-miterlimit:10;}
</style>
<g>
	<g>
		<path class="st0" d="M27.62,4.69c-0.85-0.63-1.33-2.32-2.42-2.32s-6.3-0.13-7.35,0C7.79,3.66,9.71,5.45,8.09,14.56
			c-0.15,0.83-1.16,3.29-0.37,3L31.21,9.1C27.64,6.11,31.21,7.37,27.62,4.69z"/>
		<path class="st1" d="M33.36,16.48c-0.5-0.37-2.55-7.24-3.14-7.03l-23.3,8.4c-0.55,0.19-0.8,3.9-1.16,4.36
			c-1.39,1.77,6.28,4.08,6.28,5.51c0,7.71,0.76,8.63,2.72,12.86l-0.37,1.59l30.17-10.74l-0.51-8.59c0.3-1.54-2.84,0.85-3.96-0.33
			C33.48,15.54,39.17,20.8,33.36,16.48z"/>
	</g>
	<g>
		<path class="st2" d="M32.15,16.73c0,0-3.08-21.04-18.41-12.18"/>
		<path class="st2" d="M20.35,14.56c0-0.7-0.07-0.79-0.22-1.58"/>
		<path class="st2" d="M27.05,14.88c-0.45-2.19-1.52-9.36-10.36-8.22c0,0-3.82-4-6.45-2.01c0,0,2.16,2.81,2.05,4.57l-2.92,4.02
			c0,0-1.14,7.22-2.57,9.27c0,0,0.58,0.53,0.61,1.06c0.03,0.53,0.49,1.99,2.75,2.09c2.26,0.1,3.08-0.58,3.89-2.15
			s-0.17-1.24,2.62-2.31c0.56-0.21,0.7-0.21,1.18-0.21"/>
		<path class="st2" d="M17.85,20.98c-1.23,1.97-1.97,2.97-2.62,5.73l-1.34,0.43l1.14-1.62"/>
		<path class="st2" d="M27.71,40.05l8.42-4.9l-1.1-1.88c-0.72-1.24-2.09-1.8-3.05-1.24l-7.26,4.25"/>
		<circle class="st3" cx="13.25" cy="13.62" r="0.5"/>
	</g>
	<path class="st2" d="M11.33,6.33c0,0-2.92,2.26-0.96,5.53"/>
	<path class="st4" d="M13.73,32.54l1.31,0.19l-1.09,0.4c0,0,0.8-0.21,0.47,0.17c-0.33,0.38-0.33,0.38-0.33,0.38"/>
	<polyline class="st2" points="15.06,37.8 15.6,38.06 15.17,38.76 	"/>
	<polyline class="st2" points="19.13,43.17 20.1,42.75 19.35,44.29 	"/>
	<line class="st4" x1="16.38" y1="37.84" x2="16.12" y2="37.93"/>
	<line class="st4" x1="21.25" y1="42.15" x2="20.28" y2="42.54"/>
	<path class="st5" d="M15.76,32.43l4.21-1.03c1.37-0.34,2.21-1.72,1.88-3.09l-0.02-0.09c-0.34-1.37-1.72-2.21-3.09-1.88l-4.21,1.03
		c-1.37,0.34-2.21,1.72-1.88,3.09l0.02,0.09C13.01,31.92,14.39,32.77,15.76,32.43z"/>
	<path class="st5" d="M17.09,37.61l4.21-1.03c1.37-0.34,2.21-1.72,1.88-3.09l-0.02-0.09c-0.34-1.37-1.72-2.21-3.09-1.88l-4.21,1.03
		c-1.37,0.34-2.21,1.72-1.88,3.09L14,35.73C14.33,37.1,15.72,37.94,17.09,37.61z"/>
	<path class="st5" d="M18.56,42.63l4.21-1.03c1.37-0.34,2.21-1.72,1.88-3.09l-0.02-0.09c-0.34-1.37-1.72-2.21-3.09-1.88l-4.21,1.03
		c-1.37,0.34-2.21,1.72-1.88,3.09l0.02,0.09C15.8,42.12,17.19,42.96,18.56,42.63z"/>
	<path class="st5" d="M23.21,46.95l3.6-0.88c1.37-0.34,2.21-1.72,1.88-3.09v0c-0.34-1.37-1.72-2.21-3.09-1.88L22,41.98
		c-1.37,0.34-2.21,1.72-1.88,3.09v0C20.46,46.45,21.84,47.29,23.21,46.95z"/>
	<path class="st5" d="M37.45,41.93c-2.02,0.49-4.91,0.83-8.91,0.6l0.95,0.22l-0.7,0.05l0.49,0.22h-0.44l0.25,0.21l-0.22,0.07
		l0.06,0.57l-0.11,0.08"/>
	<path class="st5" d="M34.65,30.14c-7.52-1.44-7.37-6.58-7.37-6.58l-6.54-2.03c0,0-3.22-1.08-2.56-3.78
		c0.66-2.7,3.25-2.16,3.25-2.16s6.21,1.13,8.43,1.08c2.22-0.05,4.04,1.83,4.04,1.83l5.78,5.07l3.52-0.25"/>
	<path class="st2" d="M31.98,32.03c0,0-1.12-1.17-1.53-1.89"/>
	<path class="st6" d="M44.06,34.56V21.93l-3.96,0.59l-6.74-6.03c0,0-2.88-11.39-8.52-13.91S13.59,3.57,13.59,3.57
		s-1.82-0.71-3.08-0.13S9.7,6.22,9.7,6.22S7.99,8.97,9.11,11.4c0,0-2.72,8.62-3.35,9.59c-0.55,0.84-0.36,2.39,0.22,3.06
		c0.59,0.68,0.9,2.34,2.57,2.84c1.66,0.49,3.76,0.56,4.25-0.11c0,0-1.89,1.85-1.48,3.78s1.64,2.57,1.64,2.57s-0.56,2.02-0.16,3.24
		c0.41,1.22,1.67,1.96,1.67,1.96s-0.74,1.33,0.02,3.13c0.77,1.8,2.18,3.01,4.3,2.52c0,0-0.24,0.92,0.36,2.09
		c0.6,1.17,2.05,2.52,3.58,2.25c1-0.18,3.05-0.57,4.26-0.91c0.99-0.28,1.88-0.86,2.45-1.71c0.36-0.52,0.66-1.18,0.76-1.97
		c0,0,3.51,0.52,7.96-0.84"/>
	<line class="st7" x1="16.07" y1="22.21" x2="13.46" y2="26.11"/>
</g>
</svg>
