<svg xmlns="http://www.w3.org/2000/svg" id="Layer_1" x="0" y="0" version="1.1" viewBox="0 0 50 50" xml:space="preserve"><style>.st6{fill:none;stroke-linecap:round;stroke-linejoin:round;stroke-miterlimit:10;stroke-width:.5;stroke:#444445}</style><path fill="#35d3c3" d="M28.3 20.6l7.8 2.4-6.7 4.8.1 8.2-6.6-4.9-7.8 2.6 2.7-7.8-4.9-6.5 8.2.1 4.7-6.7z"/><path fill="#7df4eb" d="M36.7 14h4.4l3.5 3.6.2 20.5-13.4 4.8-13.2 4.7-.8-4.6c-7 .4-12.7.2-13-5.2l.2-8.7V17.3c0-2.5 2.7-3.3 5.2-3.3h2.6s.2-12.3 12.1-12 12.2 12 12.2 12z"/><path fill="none" stroke="#444" stroke-linecap="round" stroke-linejoin="round" stroke-miterlimit="10" d="M31 42.3l-22-.1c-2.2 0-4.7-1.7-4.7-3.9m25.9 9.1H18.3c-.5 0-.8-.5-.6-.9l2-4.1h8.8l2.1 4.1c.3.5 0 .9-.4.9z"/><circle cx="24.2" cy="39.8" r="1.4" fill="#444"/><path fill="none" stroke="#444" stroke-linecap="round" stroke-linejoin="round" stroke-miterlimit="10" stroke-width="2.5" d="M34.8 42.9h-5l1.7 3.9c.3.8-.2 1.6-1.1 1.6l-12.3-.1c-.8 0-1.4-.8-1.1-1.6l1.6-3.9H9.5c-3 0-5.4-2.4-5.4-5.4V19.1c0-3 2.4-5.4 5.4-5.4h2.8C12.3 7.5 17.8 2 24.5 2s12.2 5.5 12.2 11.7h2.5c3 0 5.4 2.4 5.4 5.4v19.2"/><path fill="none" stroke="#444" stroke-linecap="round" stroke-linejoin="round" stroke-miterlimit="10" stroke-width=".5" d="M5 37.4h39m-39.3 0h7"/><path d="M23.7 20.7l-4.5 7.6c-1.7-6-7.4-3.9-7.4-3.9l6.9-11.9c.1-.2.4-.1.4.1l4.6 8.1zm-3.2-7.8s-1.8-3.2 1.7-5.6c3.5-2.3 6 1.7 6 1.7L39 27.9s1.5 3.7-2.1 5.3c-3.6 1.6-5.7-1.8-5.7-1.8L20.5 12.9z" class="st6"/><circle cx="13.9" cy="29.4" r="4.3" class="st6"/></svg>