<svg xmlns="http://www.w3.org/2000/svg" id="Camada_1" x="0" y="0" version="1.1" viewBox="0 0 50 50" xml:space="preserve"><style>.st3{fill:none;stroke:#464646;stroke-linecap:round;stroke-linejoin:round;stroke-miterlimit:10}</style><path fill="#8256d8" d="M30.7 19.8l7.8 2.5-6.7 4.7.1 8.2-6.5-4.9-7.8 2.6 2.6-7.7-4.9-6.6 8.2.1 4.8-6.7z"/><path fill="#a475ef" d="M44.5 12.9l-5.6-3.6-7.7-4.4-6-2.8C22.1 2 3.8 11 3.8 14.2L3.3 22l.5 15.1 11.5 7.6 31-11c.8-.5-.8-18.8-1.8-20.8z"/><path fill="none" stroke="#444" stroke-linecap="round" stroke-linejoin="round" stroke-miterlimit="10" stroke-width="2.5" d="M29.8 46.7L27.6 48c-1.7 1-3.8 1-5.5 0L6.6 39c-1.7-1-2.7-2.8-2.7-4.7v-18c0-2 1-3.8 2.7-4.7l15.6-9c1.7-1 3.8-1 5.5 0l15.6 9c1.7 1 2.7 2.8 2.7 4.7v18c0 2-1 3.8-2.7 4.7l-2.5 1.4"/><g id="information_gathering_3_"><path d="M15.8 36.3h-2.6c-1 0-1.7-.8-1.7-1.7V22c0-1 .8-1.7 1.7-1.7h5.2l2.6 2.2h11.3c1 0 1.7.8 1.7 1.7v10c0 1.2 1 2.2 2.2 2.2 1.2 0 2.2-1 2.2-2.2V21.5h-2m-.2 14.8h-9.7" class="st3"/><path d="M34 33.7h2.2V17.6L31 12.9H21v9.2" class="st3"/><path d="M36.2 17.6h-4.8c-.2 0-.4-.2-.4-.4v-4.3" class="st3"/><path fill="none" stroke="#464646" stroke-linecap="round" stroke-linejoin="round" stroke-miterlimit="10" stroke-width=".5" d="M24.5 17.6h3.9m-3.9 2.2h6.9"/><path d="M13.6 20.1v-4.6H21m-5.6-.2V9.4h14.7v3.5" class="st3"/></g><g id="_x3C_Grupo_x3E__21_"><circle cx="21.1" cy="31.8" r="6.9" class="st3"/><path d="M25.1 37.6l3.3 3.3c.3.3.7.3.9 0 .3-.3.3-.7 0-.9L26 36.7" class="st3"/></g></svg>