<svg xmlns="http://www.w3.org/2000/svg" viewBox="0 0 50 50"><path fill="#e589ef" d="M33.5 43.9H6.1c-1.8 0-3.3-1.5-3.3-3.3V9.4c0-1.8 1.5-3.3 3.3-3.3h37.7c1.8 0 3.3 1.5 3.3 3.3V33"/><path fill="none" stroke="#414042" stroke-linecap="round" stroke-linejoin="round" stroke-width="2.3" d="M33.5 43.9H6.1c-1.8 0-3.3-1.5-3.3-3.3V9.4c0-1.8 1.5-3.3 3.3-3.3h37.7c1.8 0 3.3 1.5 3.3 3.3V33"/><path fill="none" stroke="#414042" stroke-linecap="round" stroke-linejoin="round" d="M2.8 12.7h44.4M6.1 9.4h1.7m3.3 0h1.6m3.3 0h1.6M32.4 29l3.5 10.4 2.3-2.3 3.5 3.5 2.3-2.3-3.5-3.5 2.3-2.3L32.4 29z"/><path fill="none" stroke="#414042" stroke-linecap="round" stroke-linejoin="round" stroke-width=".5" d="M30.1 26.7l-2.4-2.4m1.4 4.7h-3.3m4.3 2.3l-2.4 2.3m4.7-7.9v-3.3m2.3 4.3l2.3-2.4"/><path fill="none" stroke="#414042" stroke-linecap="round" stroke-linejoin="round" stroke-width="1.1" d="M13.1 17.6v7c0 1.9-1.6 3.5-3.5 3.5s-3.5-1.6-3.5-3.5v-7m10.5 0l7 10.5m-7 0l7-10.5"/></svg>