<svg xmlns="http://www.w3.org/2000/svg" version="1" viewBox="0 0 50 50"><path fill="#DC5E82" d="M7.581 42.724l36.374-13.239V10.72a4.675 4.675 0 00-4.675-4.675H10.72a4.675 4.675 0 00-4.675 4.675v28.56c0 1.369.599 2.589 1.536 3.444z"/><path fill="#F56991" d="M42.417 7.275a4.642 4.642 0 00-3.137-1.23H10.72a4.675 4.675 0 00-4.675 4.675v9.793L42.417 7.275z"/><g fill="#031326"><path d="M39.28 4.795H10.72a5.932 5.932 0 00-5.925 5.925v28.56a5.932 5.932 0 005.925 5.925h14.281a1.25 1.25 0 000-2.5H10.72a3.428 3.428 0 01-3.425-3.425V10.72a3.429 3.429 0 013.425-3.425h28.56a3.429 3.429 0 013.425 3.425v18.763a1.25 1.25 0 002.5 0V10.72a5.932 5.932 0 00-5.925-5.925z"/><path d="M41.829 31.453l-3.986-1.068V17.718c.439-.194.747-.63.747-1.141v-2.982c0-1.205-.98-2.185-2.185-2.185h-2.983c-.511 0-.947.308-1.141.747H17.723a1.247 1.247 0 00-1.141-.747H13.59c-1.205 0-2.185.98-2.185 2.185v2.982c0 .513.31.951.752 1.144v14.553a1.248 1.248 0 00-.752 1.144v2.991c0 1.205.98 2.186 2.185 2.186h2.992c.512 0 .95-.31 1.143-.751h12.66l1.068 3.985a1.385 1.385 0 002.317.621l8.679-8.679a1.385 1.385 0 00-.62-2.318zm-24.105 5.391a1.248 1.248 0 00-1.142-.749h-2.677v-2.677c0-.511-.309-.948-.748-1.141V17.719c.439-.194.748-.63.748-1.141V13.91h2.677a1.25 1.25 0 001.145-.753h14.551a1.25 1.25 0 001.145.753h2.668v2.667c0 .513.311.952.753 1.145v12.395l-6.871-1.841a1.386 1.386 0 00-1.697 1.697l1.841 6.871H17.724z"/></g></svg>