<?xml version="1.0" encoding="utf-8"?>
<!-- Generator: Adobe Illustrator 28.0.0, SVG Export Plug-In . SVG Version: 6.00 Build 0)  -->
<svg version="1.1" id="Layer_1" xmlns="http://www.w3.org/2000/svg" xmlns:xlink="http://www.w3.org/1999/xlink" x="0px" y="0px"
	 viewBox="0 0 50 50" style="enable-background:new 0 0 50 50;" xml:space="preserve">
<style type="text/css">
	.st0{fill:#DC5E82;}
	.st1{fill:none;stroke:#444444;stroke-linecap:round;stroke-linejoin:round;stroke-miterlimit:10;}
	.st2{fill:none;stroke:#444444;stroke-width:2.5;stroke-linecap:round;stroke-linejoin:round;stroke-miterlimit:10;}
</style>
<path class="st0" d="M38.9,26.7l8.2-0.8L30.3,7.8l-5-5.2c-2.2,1.9-20,20.8-22.2,23.7l8,0.3L6.6,47.7l6.1-0.6l27.7-9.9
	C41,36.8,39.3,29,38.9,26.7z"/>
<g>
	<path class="st1" d="M26.4,24.7c0.8,0,1.6-0.4,2.1-1.1l3.9-4.5c0.4-0.5,1.1-0.7,1.7-0.3h0c0.6,0.4,0.8,1.2,0.3,1.8l-5.1,6.1
		c-0.6,0.9-1,1.9-1,3v12.2c0,1-0.8,1.8-1.8,1.8l0,0c-1,0-1.8-0.8-1.8-1.8v-6.9h-0.1v6.9c0,1-0.8,1.8-1.8,1.8h0c-1,0-1.8-0.8-1.8-1.8
		V29.8c0-1.1-0.3-2.1-1-3l-4.6-6.1c-0.4-0.6-0.3-1.4,0.3-1.8l0,0c0.6-0.4,1.3-0.2,1.7,0.3l3.4,4.5c0.5,0.7,1.3,1.1,2.1,1.1H26.4z"/>
	<ellipse class="st1" cx="24.8" cy="20" rx="2.3" ry="2.5"/>
</g>
<path class="st2" d="M17.2,30.8"/>
<path class="st2" d="M39.5,29.5"/>
<polyline class="st2" points="41.5,39.2 39,26.2 47.4,26.2 25.2,2.2 2.9,26.2 11.3,26.2 6.8,47.8 32.1,47.8 "/>
</svg>
