<svg xmlns="http://www.w3.org/2000/svg" id="Layer_1" version="1.1" viewBox="0 0 50 50"><defs><style>.st2{fill:none;stroke:#444;stroke-linecap:round;stroke-linejoin:round;stroke-width:.5px}</style></defs><path fill="#fcc34f" d="M38.6 26.8l8.2-.8L30 7.9l-5-5.2C22.8 4.6 5 23.5 2.8 26.4l8 .3-4.5 21.1 6.1-.6 27.7-9.9c.6-.4-1.1-8.2-1.5-10.5z"/><path fill="none" stroke="#444" stroke-linecap="round" stroke-linejoin="round" stroke-width="2.5" d="M41.3 39.2l-2.5-13h8.4L25 2.2l-22.2 24h8.4L6.7 47.8H32"/><path fill="none" stroke="#444" stroke-miterlimit="10" d="M21.9 35.8h4.8c.5-1.4 1.2-2.8 2-4s.8-1.1 1.1-1.7c1.5-2.9.4-6.6-2.5-8.1-4.5-2.4-9.7 1.4-8.9 6.4s1.3 2.8 2 4.2 1.1 2.2 1.5 3.3z"/><path d="M22.2 37.5h4.3m-3.6 1.1h2.8m-1.9 1h.9M17 25.6l-1.6-.2m2.9-3.1l-1.4-.9m4-1.5l-.8-1.4m4.2.6l-.1-1.7m3.5 2.5l.7-1.5m1.9 3.8l1.4-1m-.1 4.3l1.6-.3" class="st2"/></svg>