<svg xmlns="http://www.w3.org/2000/svg" id="Layer_1" x="0" y="0" version="1.1" viewBox="0 0 50 50" xml:space="preserve"><style>.st3{fill:none;stroke:#444;stroke-linecap:round;stroke-linejoin:round;stroke-miterlimit:10}.st4{fill:#444}.st5{fill:none;stroke:#444;stroke-width:.5;stroke-miterlimit:10}</style><path fill="#00dffc" d="M48.4 30l.1-5.7.4-5c-.1 0 .1-.5 0-.5l.1-.7c.1-.5 0-1-.3-1.4l.3-2.6c-.1-.2 0-.4-.2-.5l.1-2.2c-.2-.1-.5-2.2-.7-2.4l-1.4-2c-.4-.5-3.7-.3-4.3-.3l-13.7.1c-.5 0-5.5-.3-5.9 0L6.1 6.5c-.4.4-3.2.9-3.2 1.4l-.7 4.2c0 .2.2 16.4.3 16.5V32c0 .1-.2 4.2-.1 4.3l.4 6.7 7.3 1 11-.1v.2c.1.2.3.3.5.2l27-9.8c.2-.1.3-.2.3-.4l-.5-4.1z"/><path fill="none" stroke="#444" stroke-linecap="round" stroke-linejoin="round" stroke-miterlimit="10" stroke-width="2.5" d="M36.5 43.6H4.9c-1.6 0-3-1.3-3-3V9.3c0-1.6 1.3-3 3-3h40.2c1.6 0 3 1.3 3 3v25.4"/><path fill="none" stroke="#444" stroke-linecap="round" stroke-linejoin="round" stroke-miterlimit="10" stroke-width=".5" d="M2.2 13.8h45.7"/><circle cx="14.7" cy="34.8" r=".5" class="st3"/><circle cx="21.7" cy="34.8" r=".5" class="st3"/><path d="M8.6 20.7l1.4.3c.4.1.7.4.7.8l1.8 9.6c.1.5.5.8 1 .8h10.7" class="st3"/><path d="M12.9 22.2h12.4c.3 0 .6.3.5.6l-1.3 6.1c-.1.2-.3.4-.5.4H12.2" class="st3"/><circle cx="7.9" cy="10.9" r=".9" class="st4"/><circle cx="10.6" cy="10.9" r=".9" class="st4"/><circle cx="13.3" cy="10.9" r=".9" class="st4"/><g><path d="M30.5 32.5h-1.7c-.1 0-.2-.1-.2-.2v-3.8c0-.1.1-.2.2-.2h1.7c.1 0 .2.1.2.2v3.8c0 .1-.1.2-.2.2zm3.2 0H32c-.1 0-.2-.1-.2-.2v-6c0-.1.1-.2.2-.2h1.7c.1 0 .2.1.2.2v6c-.1.1-.1.2-.2.2zm3.1 0h-1.7c-.1 0-.2-.1-.2-.2v-4.4c0-.1.1-.2.2-.2h1.7c.1 0 .2.1.2.2v4.4c0 .1-.1.2-.2.2zm3.2 0h-1.7c-.1 0-.2-.1-.2-.2v-6.9c0-.1.1-.2.2-.2H40c.1 0 .2.1.2.2v6.9c0 .1-.1.2-.2.2z" class="st5"/><circle cx="29.5" cy="26.1" r=".9" class="st5"/><circle cx="32.8" cy="23.7" r=".9" class="st5"/><circle cx="35.8" cy="25.5" r=".9" class="st5"/><circle cx="39" cy="22.7" r=".9" class="st5"/><path d="M32.2 24.2l-2 1.4m3.4-1.5l1.4 1m1.4-.2l2-1.7" class="st5"/></g></svg>