<svg xmlns="http://www.w3.org/2000/svg" id="Layer_1" x="0" y="0" version="1.1" viewBox="0 0 50 50" xml:space="preserve"><style>.st1{fill:none;stroke:#444;stroke-linecap:round;stroke-linejoin:round;stroke-miterlimit:10}</style><path fill="#dc5e82" d="M38.9 26.7l8.2-.8L30.3 7.8l-5-5.2c-2.2 1.9-20 20.8-22.2 23.7l8 .3-4.5 21.1 6.1-.6 27.7-9.9c.6-.4-1.1-8.2-1.5-10.5z"/><path d="M26.4 24.7c.8 0 1.6-.4 2.1-1.1l3.9-4.5c.4-.5 1.1-.7 1.7-.3.6.4.8 1.2.3 1.8l-5.1 6.1c-.6.9-1 1.9-1 3v12.2c0 1-.8 1.8-1.8 1.8s-1.8-.8-1.8-1.8V35h-.1v6.9c0 1-.8 1.8-1.8 1.8s-1.8-.8-1.8-1.8V29.8c0-1.1-.3-2.1-1-3l-4.6-6.1c-.4-.6-.3-1.4.3-1.8.6-.4 1.3-.2 1.7.3l3.4 4.5c.5.7 1.3 1.1 2.1 1.1h3.5z" class="st1"/><ellipse cx="24.8" cy="20" class="st1" rx="2.3" ry="2.5"/><path fill="none" stroke="#444" stroke-linecap="round" stroke-linejoin="round" stroke-miterlimit="10" stroke-width="2.5" d="M41.5 39.2l-2.5-13h8.4l-22.2-24-22.3 24h8.4L6.8 47.8h25.3"/></svg>