<svg xmlns="http://www.w3.org/2000/svg" id="Layer_1" x="0" y="0" version="1.1" viewBox="0 0 50 50" xml:space="preserve"><style>.st1,.st2{fill:none;stroke:#444;stroke-width:.5;stroke-linecap:round;stroke-linejoin:round;stroke-miterlimit:10}.st2{stroke-width:2.5}</style><path fill="#ff6b6b" d="M40.1 34l.1-5.9.8-5.7h-.4l.1-.7c.1-.5 0-1.1-.1-11.3L38.7 8c-2.5.6-4.7.4-4.9.3L32.7 6c-.2-.1-3.7-.8-3.8-1l-2-3.1c-.4-.6-3.2-.4-3.8-.4L20.2 6c-3.6-.7-3.8.5-4.2 2.1l-3.8.3c-.4.4-2.3.8-2.3 1.4l-.6 16c0 .2-.1 3.9 0 4v1.4c0 .1-.1 1.3-.1 1.4V34l.3 2.7-.1 6.8v4.6c.1.2 2.9.8 3.1.7l27.9-10.2c.2-.1.3-.2.3-.4l-.6-4.2z"/><path d="M29.4 18.4h5.4M29.4 24h2.4m-2.4-2.8h5.4M27 18.4h.1M27 24h.1m-.1-2.8h.1m-6 21.2v-7.8h4m0 7.8V28.3h4.1v14.1" class="st1"/><path d="M29.2 31.9h4.1v10.5m-16.4 0v-4.1H21" class="st1"/><circle cx="19.4" cy="21.2" r="4.1" class="st1"/><path d="M19.4 17.1v4.1h4.1" class="st1"/><path d="M30.8 48.5H11.4c-1 0-1.9-.8-1.9-1.9V10.2c0-1 .8-1.9 1.9-1.9H16" class="st2"/><path d="M16 8.3c0-1.4 1.1-2.5 2.5-2.5H21v-.6c0-2.1 1.8-3.7 3.8-3.7h-.1m9 6.8c0-1.4-1.1-2.5-2.5-2.5h-2.5v-.6c0-2.1-1.7-3.7-3.7-3.7m8.7 6.8h4.8c1 0 1.9.8 1.9 1.9v33.2" class="st2"/><path fill="none" stroke="#444" stroke-linecap="round" stroke-linejoin="round" stroke-miterlimit="10" d="M16.8 8.5v2.2H33V8.4"/><circle cx="25.1" cy="5" r=".9" fill="#444"/></svg>