<?xml version="1.0" encoding="utf-8"?>
<!-- Generator: Adobe Illustrator 28.0.0, SVG Export Plug-In . SVG Version: 6.00 Build 0)  -->
<svg version="1.1" id="Layer_1" xmlns="http://www.w3.org/2000/svg" xmlns:xlink="http://www.w3.org/1999/xlink" x="0px" y="0px"
	 viewBox="0 0 50 50" style="enable-background:new 0 0 50 50;" xml:space="preserve">
<style type="text/css">
	.st0{fill:#00DFFC;}
	.st1{fill:none;stroke:#444444;stroke-width:2.5;stroke-linecap:round;stroke-linejoin:round;stroke-miterlimit:10;}
	.st2{fill:none;stroke:#444444;stroke-width:0.5;stroke-linecap:round;stroke-linejoin:round;stroke-miterlimit:10;}
	.st3{fill:none;stroke:#444444;stroke-linecap:round;stroke-linejoin:round;stroke-miterlimit:10;}
	.st4{fill:#444444;}
	.st5{fill:none;stroke:#444444;stroke-width:0.5;stroke-miterlimit:10;}
</style>
<path class="st0" d="M48.4,30l0.1-5.7l0.4-5c-0.1,0,0.1-0.5,0-0.5l0.1-0.7c0.1-0.5,0-1-0.3-1.4l0.3-2.6c-0.1-0.2,0-0.4-0.2-0.5
	l0.1-2.2c-0.2-0.1-0.5-2.2-0.7-2.4l-1.4-2c-0.4-0.5-3.7-0.3-4.3-0.3L28.8,6.8c-0.5,0-5.5-0.3-5.9,0L6.1,6.5C5.7,6.9,2.9,7.4,2.9,7.9
	l-0.7,4.2c0,0.2,0.2,16.4,0.3,16.5l0,3.4c0,0.1-0.2,4.2-0.1,4.3L2.8,43l7.3,1l11-0.1c0,0.1,0,0.1,0,0.2c0.1,0.2,0.3,0.3,0.5,0.2
	l27-9.8c0.2-0.1,0.3-0.2,0.3-0.4L48.4,30L48.4,30z"/>
<path class="st1" d="M36.5,43.6H4.9c-1.6,0-3-1.3-3-3V9.3c0-1.6,1.3-3,3-3h40.2c1.6,0,3,1.3,3,3v25.4"/>
<line class="st2" x1="2.2" y1="13.8" x2="47.9" y2="13.8"/>
<g>
	<circle class="st3" cx="14.7" cy="34.8" r="0.5"/>
	<circle class="st3" cx="21.7" cy="34.8" r="0.5"/>
	<path class="st3" d="M8.6,20.7L10,21c0.4,0.1,0.7,0.4,0.7,0.8l1.8,9.6c0.1,0.5,0.5,0.8,1,0.8h10.7"/>
	<path class="st3" d="M12.9,22.2h12.4c0.3,0,0.6,0.3,0.5,0.6l-1.3,6.1c-0.1,0.2-0.3,0.4-0.5,0.4h-9.8h-2"/>
</g>
<g>
	<circle class="st4" cx="7.9" cy="10.9" r="0.9"/>
	<circle class="st4" cx="10.6" cy="10.9" r="0.9"/>
	<circle class="st4" cx="13.3" cy="10.9" r="0.9"/>
</g>
<g>
	<path class="st5" d="M30.5,32.5h-1.7c-0.1,0-0.2-0.1-0.2-0.2v-3.8c0-0.1,0.1-0.2,0.2-0.2h1.7c0.1,0,0.2,0.1,0.2,0.2v3.8
		C30.7,32.4,30.6,32.5,30.5,32.5z"/>
	<path class="st5" d="M33.7,32.5h-1.7c-0.1,0-0.2-0.1-0.2-0.2v-6c0-0.1,0.1-0.2,0.2-0.2h1.7c0.1,0,0.2,0.1,0.2,0.2v6
		C33.8,32.4,33.8,32.5,33.7,32.5z"/>
	<path class="st5" d="M36.8,32.5h-1.7c-0.1,0-0.2-0.1-0.2-0.2v-4.4c0-0.1,0.1-0.2,0.2-0.2h1.7c0.1,0,0.2,0.1,0.2,0.2v4.4
		C37,32.4,36.9,32.5,36.8,32.5z"/>
	<path class="st5" d="M40,32.5h-1.7c-0.1,0-0.2-0.1-0.2-0.2v-6.9c0-0.1,0.1-0.2,0.2-0.2H40c0.1,0,0.2,0.1,0.2,0.2v6.9
		C40.2,32.4,40.1,32.5,40,32.5z"/>
	<circle class="st5" cx="29.5" cy="26.1" r="0.9"/>
	<circle class="st5" cx="32.8" cy="23.7" r="0.9"/>
	<circle class="st5" cx="35.8" cy="25.5" r="0.9"/>
	<circle class="st5" cx="39" cy="22.7" r="0.9"/>
	<line class="st5" x1="32.2" y1="24.2" x2="30.2" y2="25.6"/>
	<line class="st5" x1="33.6" y1="24.1" x2="35" y2="25.1"/>
	<line class="st5" x1="36.4" y1="24.9" x2="38.4" y2="23.2"/>
</g>
</svg>
