<?xml version="1.0" encoding="UTF-8"?>
<svg id="Layer_1" xmlns="http://www.w3.org/2000/svg" version="1.1" viewBox="0 0 50 50">
  <!-- Generator: Adobe Illustrator 29.0.1, SVG Export Plug-In . SVG Version: 2.1.0 Build 192)  -->
  <defs>
    <style>
      .st0 {
        stroke-miterlimit: 10;
      }

      .st0, .st1, .st2 {
        fill: none;
      }

      .st0, .st2 {
        stroke: #444;
      }

      .st1 {
        stroke: #444;
        stroke-width: 2.5px;
      }

      .st1, .st2 {
        stroke-linecap: round;
        stroke-linejoin: round;
      }

      .st2 {
        stroke-width: .5px;
      }

      .st3 {
        fill: #fcc34f;
      }
    </style>
  </defs>
  <path class="st3" d="M38.6,26.8l8.2-.8L30,7.9l-5-5.2c-2.2,1.9-20,20.8-22.2,23.7l8,.3-4.5,21.1,6.1-.6,27.7-9.9c.6-.4-1.1-8.2-1.5-10.5Z"/>
  <path class="st1" d="M41.3,39.2l-2.5-13h8.4L25,2.2,2.8,26.2h8.4l-4.5,21.6h25.3"/>
  <g>
    <g>
      <path class="st0" d="M21.9,35.8h4.8c.5-1.4,1.2-2.8,2-4s.8-1.1,1.1-1.7c1.5-2.9.4-6.6-2.5-8.1-4.5-2.4-9.7,1.4-8.9,6.4s1.3,2.8,2,4.2,1.1,2.2,1.5,3.3Z"/>
      <line class="st2" x1="22.2" y1="37.5" x2="26.5" y2="37.5"/>
      <line class="st2" x1="22.9" y1="38.6" x2="25.7" y2="38.6"/>
      <line class="st2" x1="23.8" y1="39.6" x2="24.7" y2="39.6"/>
    </g>
    <g>
      <line class="st2" x1="17" y1="25.6" x2="15.4" y2="25.4"/>
      <line class="st2" x1="18.3" y1="22.3" x2="16.9" y2="21.4"/>
      <line class="st2" x1="20.9" y1="19.9" x2="20.1" y2="18.5"/>
      <line class="st2" x1="24.3" y1="19.1" x2="24.2" y2="17.4"/>
      <line class="st2" x1="27.7" y1="19.9" x2="28.4" y2="18.4"/>
      <line class="st2" x1="30.3" y1="22.2" x2="31.7" y2="21.2"/>
      <line class="st2" x1="31.6" y1="25.5" x2="33.2" y2="25.2"/>
    </g>
  </g>
</svg>