<svg version="1" xmlns="http://www.w3.org/2000/svg" viewBox="0 0 50 50"><path fill="#00C8E2" d="M43.678 23.43L44.7 6.375c.095-1.833-1.351-3.371-3.168-3.371H8.467c-1.817 0-3.263 1.539-3.168 3.371l1.828 30.492L43.678 23.43z"/><path fill="#00DFFC" d="M38.643 3.003H8.467c-1.817 0-3.263 1.539-3.168 3.371l.514 8.578 32.83-11.949z"/><g fill="#444"><path d="M44.604 3.247a4.196 4.196 0 0 0-3.072-1.322H8.467a4.195 4.195 0 0 0-3.071 1.322A4.32 4.32 0 0 0 4.223 6.44l1.911 31.884a4.275 4.275 0 0 0 2.761 3.79l15.156 5.691c.483.18.989.271 1.49.271.527 0 1.05-.099 1.539-.295l3.513-1.311c.818-.339.732-1.402.732-1.402l-.003-10.922a.647.647 0 0 0-1.294 0v10.236l-3.725 1.387c-.48.191-1.01.197-1.494.017l-4.835-1.815v-9.824a.647.647 0 0 0-1.294 0v9.338l-9.026-3.389a2.125 2.125 0 0 1-1.365-1.891L6.377 6.32a2.118 2.118 0 0 1 .584-1.587 2.06 2.06 0 0 1 1.507-.65H18.68v11.776a.647.647 0 0 0 1.294 0V4.082h10.054v11.776a.647.647 0 0 0 1.294 0V4.082h10.21a2.06 2.06 0 0 1 1.507.65c.407.429.614.992.584 1.578l-1.914 31.942a1.08 1.08 0 0 0 1.012 1.142c.594.013 1.106-.418 1.141-1.012l1.915-31.951a4.316 4.316 0 0 0-1.173-3.184z"/><path d="M15.457 18.209h-1.969a.431.431 0 0 0-.431.431v8.201c0 1.533.477 2.741 1.429 3.624.953.883 2.291 1.324 4.014 1.324 1.142 0 2.132-.199 2.969-.596.837-.397 1.477-.968 1.92-1.714.443-.745.664-1.613.664-2.602V18.64a.431.431 0 0 0-.431-.431h-1.969a.431.431 0 0 0-.431.431v7.752c0 1.039-.209 1.801-.628 2.286-.418.486-1.092.728-2.021.728-.959 0-1.646-.241-2.062-.724-.415-.483-.623-1.24-.623-2.273v-7.77a.43.43 0 0 0-.431-.43zm16.959 6.644l3.787-5.981a.431.431 0 0 0-.365-.662h-2.03a.43.43 0 0 0-.372.213L30.73 23.03l-2.761-4.61a.431.431 0 0 0-.37-.21h-2.1a.431.431 0 0 0-.363.664l3.734 5.823-4.017 6.244a.431.431 0 0 0 .363.665h2.01c.15 0 .289-.078.368-.205l2.989-4.862 2.989 4.862a.43.43 0 0 0 .368.205h2.194a.431.431 0 0 0 .358-.672l-4.076-6.081z"/></g></svg>