<svg xmlns="http://www.w3.org/2000/svg" id="Camada_3" x="0" y="0" version="1.1" viewBox="0 0 50 50" xml:space="preserve"><style>.st2{fill:none;stroke:#444;stroke-linecap:round;stroke-miterlimit:10}</style><path fill="#fc9d9a" d="M44.4 12.4l-5.6-3.6-7.7-4.4-6-2.8c-3.1-.1-21.4 8.8-21.4 12l-.5 7.8.5 15.1 11.5 7.6 31-11c.8-.4-.8-18.8-1.8-20.7z"/><path fill="none" stroke="#444" stroke-linecap="round" stroke-linejoin="round" stroke-miterlimit="10" stroke-width="2.5" d="M29.7 46.4l-2.2 1.3c-1.7 1-3.8 1-5.5 0l-15.6-9c-1.7-1-2.7-2.8-2.7-4.7V16c0-2 1-3.8 2.7-4.7l15.6-9c1.7-1 3.8-1 5.5 0l15.6 9c1.7 1 2.7 2.8 2.7 4.7v18c0 2-1 3.8-2.7 4.7l-2.5 1.4"/><path d="M28.7 28c0 3.9-3.2 7-7 7s-7-3.2-7-7 3.2-7 7-7c1.7 0 3.2.6 4.4 1.5 1.5 1.3 2.6 3.3 2.6 5.5z" class="st2"/><path d="M26.2 34.3s5.8 8 7.7 7.1c1.9-.9-1.7-4.6-6.9-8.7" class="st2"/><path fill="none" stroke="#444" stroke-linecap="round" stroke-miterlimit="10" stroke-width=".5" d="M10.6 13.6h22.3m-22.3 2.8h22.3m-22.3 2.9h22.3m-22.3 6.4h4.2m11.4-3.3h6.7m-22.3 0h6.8"/><path d="M28.4 26.1h1" class="st2"/><path fill="none" stroke="#444" stroke-dasharray="2.017,2.017" stroke-linecap="round" stroke-miterlimit="10" d="M31.4 26.3c.2.1.3.3.4.5l1.2 3.4c.3 1 1.7 1 2.1.1l4.4-11.4"/><path d="M39.8 17.9l.4-.9m-5.5 2.2l4.4-2.4c.9-.5 2 0 2.2 1l1.2 5M17 25.4s2-1.2 2-.2c0 1.1.6 4.1 1.5 2.8.9-1.3 1.7-4.1 2.2-2.6s.2 4.2 1.6 2.9c1.3-1.3 1.4-2.3 3.5-2.2" class="st2"/></svg>