<?xml version="1.0" encoding="UTF-8"?>
<svg id="Layer_1" xmlns="http://www.w3.org/2000/svg" viewBox="0 0 44.59 49.41">
  <defs>
    <style>
      .cls-1 {
        stroke-width: 2.5px;
      }

      .cls-1, .cls-2, .cls-3 {
        fill: none;
        stroke: #444;
      }

      .cls-1, .cls-3 {
        stroke-linecap: round;
        stroke-linejoin: round;
      }

      .cls-4 {
        fill: #444;
      }

      .cls-2 {
        stroke-miterlimit: 10;
      }

      .cls-5 {
        fill: #fcc34f;
      }

      .cls-6 {
        fill: #d1bd00;
      }

      .cls-3 {
        stroke-width: .5px;
      }
    </style>
  </defs>
  <polygon class="cls-6" points="27.61 17.51 35.44 19.95 28.74 24.69 28.85 32.89 22.27 27.99 14.5 30.62 17.13 22.85 12.23 16.27 20.43 16.38 25.17 9.68 27.61 17.51"/>
  <path class="cls-5" d="M41.97,12.1l-5.63-3.59-7.67-4.43-5.97-2.84C19.5,1.25,1.25,10.19,1.25,13.39l-.53,7.8.53,15.13,11.5,7.56,31.02-11.04c.74-.42-.82-18.75-1.8-20.74Z"/>
  <path class="cls-1" d="M27.23,46.16l-2.2,1.27c-1.69.98-3.78.98-5.47,0l-15.57-8.99c-1.69-.98-2.74-2.78-2.74-4.74V15.71c0-1.96,1.04-3.76,2.74-4.74L19.56,1.99c1.69-.98,3.78-.98,5.47,0l15.57,8.99c1.69.98,2.74,2.78,2.74,4.74v17.98c0,1.96-1.04,3.76-2.74,4.74l-2.46,1.42"/>
  <path class="cls-4" d="M34.14,13.12h0,0c-2.37.08-4.28,1.99-4.36,4.36h0s0,0,0,0c-.08-2.37-1.99-4.28-4.36-4.36h0,0c2.37-.08,4.28-1.99,4.36-4.36h0s0,0,0,0c.08,2.37,1.99,4.28,4.36,4.36Z"/>
  <path class="cls-4" d="M14.31,35.57h0,0c-1.67.06-3,1.4-3.06,3.06h0s0,0,0,0c-.06-1.67-1.4-3-3.06-3.06h0,0c1.67-.06,3-1.4,3.06-3.06h0s0,0,0,0c.06,1.67,1.4,3,3.06,3.06Z"/>
  <path class="cls-4" d="M36.54,18.88h0,0c-1.31.05-2.36,1.1-2.4,2.4h0s0,0,0,0c-.05-1.31-1.1-2.36-2.4-2.4h0,0c1.31-.05,2.36-1.1,2.4-2.4h0s0,0,0,0c.05,1.31,1.1,2.36,2.4,2.4Z"/>
  <path class="cls-4" d="M17.14,39.4h0,0c-1.12.04-2.02.94-2.06,2.06h0s0,0,0,0c-.04-1.12-.94-2.02-2.06-2.06h0,0c1.12-.04,2.02-.94,2.06-2.06h0s0,0,0,0c.04,1.12.94,2.02,2.06,2.06Z"/>
  <path class="cls-3" d="M13.33,17.62c1.13-.96,2.6-1.55,4.21-1.55,1.76,0,3.36.7,4.53,1.84"/>
  <circle class="cls-2" cx="17.54" cy="22.44" r="10.06"/>
  <path class="cls-2" d="M34.56,35.91l-8.33-8.33c-.06.1-.12.19-.18.29-.3.7-.76,1.31-1.38,1.77-.16.17-.33.31-.52.44-.29.31-.63.57-1.02.78-.12.12-.25.23-.39.33l8.28,8.28c.98.98,2.57.98,3.55,0s.98-2.57,0-3.55Z"/>
</svg>