<?xml version="1.0" encoding="utf-8"?>
<!-- Generator: Adobe Illustrator 26.5.0, SVG Export Plug-In . SVG Version: 6.00 Build 0)  -->
<svg version="1.1" id="Camada_1" xmlns="http://www.w3.org/2000/svg" xmlns:xlink="http://www.w3.org/1999/xlink" x="0px" y="0px"
	 viewBox="0 0 50 50" style="enable-background:new 0 0 50 50;" xml:space="preserve">
<style type="text/css">
	.st0{fill:#A475EF;}
	.st1{fill:#BF94F7;}
	.st2{fill:none;stroke:#444444;stroke-width:2.5;stroke-linecap:round;stroke-linejoin:round;stroke-miterlimit:10;}
	.st3{fill:none;stroke:#494949;stroke-linecap:round;stroke-linejoin:round;stroke-miterlimit:10;}
</style>
<g>
	<g>
		<path class="st0" d="M48.4,22L5.2,37.7C2.8,34,1.4,29.7,1.4,25c0-1,0.1-1.9,0.2-2.8c0-0.2,0.1-0.5,0.1-0.7L40.6,7.3
			c0.2,0.2,0.4,0.3,0.5,0.5C45,11.5,47.7,16.4,48.4,22z"/>
		<path class="st1" d="M41.1,7.8L1.6,22.2c0-0.2,0.1-0.5,0.1-0.7c1.7-11.3,11.5-20,23.3-20c6,0,11.4,2.2,15.6,5.9
			C40.7,7.5,40.9,7.6,41.1,7.8z"/>
		<path class="st2" d="M48.6,25C48.6,38,38,48.6,25,48.6c-8.3,0-15.6-4.3-19.8-10.9C2.8,34,1.4,29.7,1.4,25c0-1,0.1-1.9,0.2-2.8
			c0-0.2,0.1-0.5,0.1-0.7c1.7-11.3,11.5-20,23.3-20c6,0,11.4,2.2,15.6,5.9c0.2,0.2,0.4,0.3,0.5,0.5c3.9,3.6,6.6,8.6,7.3,14.2
			C48.5,23,48.6,24,48.6,25z"/>
	</g>
	<polygon class="st0" points="42.6,3.8 42.6,3.8 42.6,3.7 	"/>
	<g>
		<path class="st3" d="M28.3,25c0,1.8-1.5,3.3-3.3,3.3c-1.8,0-3.3-1.5-3.3-3.3c0-1.8,1.5-3.3,3.3-3.3C26.8,21.7,28.3,23.2,28.3,25z"
			/>
		<path class="st3" d="M19.7,18.4c-0.6,0.5-1.1,1-1.5,1.6l-1.9-0.6l-1.3,3.2l1.8,0.9c-0.1,0.9-0.2,1.8,0,2.7l-1.8,0.9l1.3,3.2
			l1.9-0.6c0.5,0.8,1.2,1.4,1.9,1.9l-0.6,1.9l3.2,1.3l0.9-1.8c1.2,0.4,4.2,0.5,5.4,0.5h6.6v-1.3l4.6,3.3l-4.6,3.9v-1.3H24.3
			c-6.9,0-12.5-5.6-12.5-12.5c0-0.7,0.1-1.3,0.2-2"/>
		<path class="st3" d="M37.8,27c0.2-0.8,0.3-1.7,0.3-2.6c0-0.7-0.1-1.4-0.2-2.1c-0.4-2.6-1.7-4.9-3.4-6.7c-1-1-2.2-1.9-3.5-2.5
			c-1.6-0.8-3.4-1.2-5.3-1.2H14.5v-0.8v-0.5L14,11.1l-4,3.5l4.6,3.3v-1.3h6.6c0.2,0,0.3,0,0.5,0c1.4,0,3.8,0.1,4.9,0.5l0.9-1.8
			l3.2,1.3L30.4,17l-0.5,1.4c0.7,0.5,1.4,1.2,1.9,1.9l1.9-0.6l1.3,3.2l-1.8,0.9c0,0,0,0.1,0,0.1c0.1,0.9,0.1,1.7,0,2.6l1.8,0.9
			l-1.3,3.2l-1.9-0.6c-0.4,0.6-1,1.2-1.5,1.6"/>
	</g>
</g>
</svg>
