<?xml version="1.0" encoding="utf-8"?>
<!-- Generator: Adobe Illustrator 24.0.1, SVG Export Plug-In . SVG Version: 6.00 Build 0)  -->
<svg version="1.1" id="Layer_1" xmlns="http://www.w3.org/2000/svg" xmlns:xlink="http://www.w3.org/1999/xlink" x="0px" y="0px"
	 viewBox="0 0 50 50" style="enable-background:new 0 0 50 50;" xml:space="preserve">
<style type="text/css">
	.st0{fill:#00C8E2;}
	.st1{fill:#00DFFC;}
	.st2{fill:none;stroke:#444444;stroke-width:2.5;stroke-linecap:round;stroke-miterlimit:10;}
	.st3{fill:none;stroke:#444444;stroke-linecap:round;stroke-miterlimit:10;}
	.st4{fill:#444444;}
	.st5{fill:none;stroke:#444444;stroke-width:0.75;stroke-miterlimit:10;}
</style>
<g>
	<polygon class="st0" points="42.3,8.3 7.7,20.9 7.7,42.4 42.3,29.8 	"/>
	<path class="st1" d="M42.3,5.3c0-1-0.8-1.9-1.9-1.9H26.9c-1,0-2.7,0-3.7,0H9.6c-1,0-1.9,0.8-1.9,1.9v15.6L42.3,8.3V5.3z"/>
	<path class="st2" d="M42.3,31.7l0-26.4c0-1-0.8-1.9-1.9-1.9l-13.6,0c-1,0-2.7,0-3.7,0l-13.6,0c-1,0-1.9,0.8-1.9,1.9l0,39.4
		c0,1,0.8,1.9,1.9,1.9l13.6,0c1,0,2.7,0,3.7,0l3.3,0"/>
	<g>
		<g>
			<g>
				<g>
					<path class="st3" d="M39.5,31.7"/>
					<path class="st3" d="M29.9,43.9"/>
					<path class="st3" d="M39.5,31.7l0-17.8l0-6.2c0-0.9-0.7-1.6-1.6-1.6l-26,0c-0.9,0-1.6,0.7-1.6,1.6l0,34.6
						c0,0.9,0.7,1.6,1.6,1.6l17.8,0"/>
				</g>
			</g>
		</g>
	</g>
	<g>
		<path class="st4" d="M22.2,11.5c0-0.7-0.6-1.3-1.3-1.3h-6.2c-0.7,0-1.3,0.6-1.3,1.3v6.2c0,0.7,0.6,1.3,1.3,1.3h6.2
			c0.7,0,1.3-0.6,1.3-1.3V11.5z M17.3,16.8l-2.5-2.4l0.9-1l1.5,1.4l2.5-2.6l1,0.9L17.3,16.8z"/>
		<g>
			<line class="st3" x1="24.5" y1="12.4" x2="31.8" y2="12.4"/>
			<line class="st3" x1="24.5" y1="14.5" x2="36.1" y2="14.5"/>
			<line class="st3" x1="24.5" y1="16.6" x2="36.1" y2="16.6"/>
		</g>
	</g>
	<g>
		<path class="st4" d="M22.2,21.7c0-0.7-0.6-1.3-1.3-1.3l-6.2,0c-0.7,0-1.3,0.6-1.3,1.3v6.2c0,0.7,0.6,1.3,1.3,1.3l6.2,0
			c0.7,0,1.3-0.6,1.3-1.3V21.7z M17.3,27.3l-2.5-2.4l0.9-1l1.5,1.4l2.5-2.6l1,0.9L17.3,27.3z"/>
		<g>
			<line class="st3" x1="24.5" y1="22.7" x2="31.8" y2="22.7"/>
			<line class="st3" x1="24.5" y1="24.8" x2="36.1" y2="24.8"/>
			<line class="st3" x1="24.5" y1="26.9" x2="36.1" y2="26.9"/>
		</g>
	</g>
	<g>
		<g>
			<path class="st5" d="M20.8,39.5l-6.2,0c-0.7,0-1.3-0.6-1.3-1.3l0-6.2c0-0.7,0.6-1.3,1.3-1.3l6.2,0c0.7,0,1.3,0.6,1.3,1.3l0,6.2
				C22.2,38.9,21.6,39.5,20.8,39.5z"/>
			<g>
				<g>
					<g>
						<g>
							<g>
								<g>
									<g>
										<g>
											<g>
												<polygon class="st4" points="20.2,33.6 19.2,32.6 17.7,34.1 17.7,34.1 16.3,32.6 15.3,33.6 15.3,33.6 16.8,35 
													15.3,36.5 15.3,36.5 16.3,37.5 17.7,36 17.7,36 19.2,37.5 20.2,36.5 18.7,35 18.7,35 												"/>
											</g>
										</g>
									</g>
								</g>
							</g>
						</g>
					</g>
				</g>
			</g>
		</g>
		<g>
			<line class="st3" x1="24.5" y1="32.9" x2="31.8" y2="32.9"/>
			<line class="st3" x1="24.5" y1="35" x2="36.1" y2="35"/>
			<line class="st3" x1="24.5" y1="37.1" x2="36.1" y2="37.1"/>
		</g>
	</g>
</g>
</svg>
