<?xml version="1.0" encoding="utf-8"?>
<!-- Generator: Adobe Illustrator 22.0.1, SVG Export Plug-In . SVG Version: 6.00 Build 0)  -->
<svg version="1.1" id="Layer_1" xmlns="http://www.w3.org/2000/svg" xmlns:xlink="http://www.w3.org/1999/xlink" x="0px" y="0px"
	 viewBox="0 0 50 50" style="enable-background:new 0 0 50 50;" xml:space="preserve">
<style type="text/css">
	.st0{fill:#CE87EA;}
	.st1{fill:#E097FB;}
	.st2{fill:#464646;}
</style>
<g>
	<g>
		<path class="st0" d="M46.6,32.4c0-1-0.3-1.9-1-2.6c-0.6-0.6-1.4-1-2.3-1.1c0.1-1.6,0.1-3.1,0.2-4.6c0.2,0.1,0.3-0.1,0.6-0.7
			c0.7-1.6,1.9-7.1,1.2-9.8c-0.4-1.4-0.9-2.6-1.6-3.5L13.2,21.3c0.1,2.1,0.2,4.6,0.4,7.3c0,0-0.1,0-0.1,0c-1,0.1-1.8,0.6-2.4,1.4
			c-0.6,0.8-0.9,1.7-0.7,2.7c0.2,1.7,1.5,3,3.2,3.2h0c0.3,0,0.5,0,0.8,0c0.5,3.8,1.3,7.1,2.4,8.8l29.4-10.7
			C46.5,33.4,46.6,32.9,46.6,32.4z"/>
	</g>
	<g>
		<path class="st1" d="M37,7.8C35.3,2,23.1,0.3,16.5,6.8c-8.3,8.3-10.3,8.1-10.3,8.1s2.9,2.4,7.1,3.9c0,0.8,0.1,1.9,0.1,3.1
			l31.5-11.4C42.8,7.5,39.6,6.7,37,7.8z"/>
	</g>
	<g>
		<g>
			<g>
				<path class="st2" d="M24,22.6h-6c-0.5,0-1-0.4-1-1s0.4-1,1-1h6c0.5,0,1,0.4,1,1S24.5,22.6,24,22.6z"/>
			</g>
		</g>
		<g>
			<g>
				<path class="st2" d="M38.7,22.6h-6c-0.5,0-1-0.4-1-1s0.4-1,1-1h6c0.5,0,1,0.4,1,1S39.2,22.6,38.7,22.6z"/>
			</g>
		</g>
	</g>
	<g>
		<g>
			<path class="st2" d="M28.3,40.4c-1.3,0-2.4-0.5-3.3-1.4c-0.4-0.4-0.4-1,0-1.4s1-0.4,1.4,0c0.5,0.5,1.1,0.8,1.8,0.8
				c0.7,0,1.4-0.2,1.9-0.7l0,0c0.4-0.4,1-0.4,1.4,0c0.4,0.4,0.4,1,0,1.4C30.6,40,29.5,40.4,28.3,40.4z"/>
		</g>
	</g>
	<g>
		<path class="st2" d="M29.7,34.9h-3l0.7-7c0-0.4,0.4-0.7,0.8-0.7c0.4,0,0.7,0.4,0.7,0.8l-0.5,5.4h1.4c0.4,0,0.8,0.3,0.8,0.8
			S30.1,34.9,29.7,34.9z"/>
	</g>
	<path class="st2" d="M34.8,23c-2.1,0-4,1.2-4.9,3c-0.5-0.5-1.2-0.8-2-0.8c-0.8,0-1.5,0.3-2,0.8c-0.9-1.8-2.8-3-4.9-3
		c-3,0-5.5,2.5-5.5,5.5c0,3,2.5,5.5,5.5,5.5s5.5-2.5,5.5-5.5c0-0.1,0-0.2,0-0.4c0,0,0-0.1,0-0.1c0-0.8,0.6-1.4,1.4-1.4
		s1.4,0.6,1.4,1.4c0,0,0,0.1,0,0.1c0,0.1,0,0.2,0,0.4c0,3,2.5,5.5,5.5,5.5s5.5-2.5,5.5-5.5C40.3,25.4,37.9,23,34.8,23z M21.1,32.4
		c-2.2,0-4-1.8-4-4s1.8-4,4-4s4,1.8,4,4S23.3,32.4,21.1,32.4z M34.8,32.4c-2.2,0-4-1.8-4-4s1.8-4,4-4s4,1.8,4,4S37.1,32.4,34.8,32.4
		z"/>
	<path class="st2" d="M46.5,29c-0.5-0.6-1.2-1-1.9-1.2c0-0.8,0.1-1.5,0.1-2.3c0.1-0.2,0.2-0.4,0.3-0.6c0.2-0.5,0.5-1.4,0.7-2.3
		c0.7-2.5,1.4-6.6,0.8-9.1c-0.8-3.1-2.5-5.5-5-6.7c-1.5-0.8-3.2-1-4.8-0.6c-1.1-2-3.3-3.5-6.3-4.2C26.9,1,21.9,1.3,17.9,3.8
		c-1.1,0.6-2.2,1.3-3.2,2.2c-7.1,6.6-9.2,7.1-9.3,7.2l-3.3-0.3l3.3,2.7c0.1,0.1,2.7,2.2,6.4,3.7c0.1,2,0.2,5.1,0.4,8.5
		c-0.8,0.3-1.6,0.8-2.1,1.6c-0.8,1-1.2,2.3-1,3.6c0.3,2.2,2,3.9,4.2,4.2c1.1,6.9,2.4,8.7,3.4,9.4c1.8,1.4,6.9,2.2,11.9,2.2
		c5.1,0,10.2-0.7,11.9-2.2c0.1-0.1,0.2-0.2,0.3-0.3c0.5-0.5,0.5-1.3,0-1.8s-1.3-0.5-1.8,0c0,0-0.1,0.1-0.1,0.1
		c-2.6,2.1-18.1,2.1-20.7,0c-0.5-0.4-1.6-2-2.6-8.9l-0.2-1.2l-1.2,0.1c-0.2,0-0.4,0-0.5,0c-1.1-0.1-2-1-2.1-2.1
		c-0.1-0.6,0.1-1.2,0.5-1.7c0.4-0.5,0.9-0.8,1.5-0.9l1.4,0.1l-0.1-1.4c-0.3-4-0.5-7.7-0.5-9.8c1.1,0.2,2.2,0.3,3.3,0.3
		c0.8,0,1.5-0.1,2.3-0.2c5.1-0.8,12-3.1,14.7-7.1c0.1-0.2,0.2-0.3,0.3-0.5c0.3,0.4,0.7,0.8,1.1,1.2c1.2,1.2,2.8,2.9,4,5.4
		c1.1,2.5,1.8,4.4,2.2,5.8l0,0.5c0,1.4-0.1,2.9-0.2,4.5L42,29.8l1.2,0.1c0.6,0.1,1.1,0.3,1.5,0.7c0.4,0.5,0.7,1.1,0.6,1.7
		c0,1.1-0.8,2-1.9,2.2c-0.1,0-0.3,0-0.4,0l-1.4-0.5l-0.2,2c-0.1,0.7,0.4,1.3,1.1,1.4c0.4,0.1,0.8-0.1,1.1-0.4c0.1,0,0.2,0,0.4-0.1
		c2.2-0.4,3.8-2.3,3.9-4.6C47.9,31.1,47.4,29.9,46.5,29z M33.4,10.9c-2,2.9-7.5,5.5-13.6,6.5c-2.8,0.4-5.5-0.1-7.8-0.9
		c-1.3-0.6-2.4-1.2-3.2-1.7c2-1.3,4.9-3.7,8.3-7.2c3.6-3.6,9.1-4.3,12.9-3.3c1,0.3,1.9,0.6,2.7,1.1c0.8,0.6,1.3,1.4,1.5,2.2v0
		C34.4,8.7,34.1,9.8,33.4,10.9z M43.3,22c-0.4-1.3-1-2.9-1.9-4.7c-1.3-2.8-3.1-4.7-4.3-5.9c-0.6-0.6-1.3-1.3-1.3-1.5
		c0,0,0.1-0.2,0.7-0.5C37.2,9.1,37.9,9,38.6,9c0.8,0,1.5,0.2,2.3,0.5c0.7,0.3,1.3,0.8,1.8,1.3c0.7,0.9,1.2,2,1.5,3.2
		C44.6,15.9,43.9,19.8,43.3,22z"/>
</g>
</svg>
