<svg xmlns="http://www.w3.org/2000/svg" viewBox="0 0 50 50"><switch><g><path fill="#ecc158" d="M37.6 28.8c.4-.5.4-1.2-.1-1.7l-3.2-2.9c3.5.4 7.2-.8 9.8-3.6 3.1-3.4 3.8-8.2 2-12.2L11.8 20.9l-2.4 2.6c-.4.4-.4 1.2.1 1.6l3.4 3.1L6.6 35c-1.6 2-2 4.6-1.1 6.8l28.2-10.3 2.1-.8 1.8-1.9z"/><path fill="#f0cd77" d="M43.4 4.5C38.8.3 31.6.6 27.3 5.2c-2.6 2.8-3.5 6.6-2.7 10.1l-3.3-3c-.5-.4-1.2-.4-1.7.1L11.8 21 46.2 8.3c-.6-1.4-1.6-2.7-2.8-3.8z"/><path fill="#031326" d="M44.3 3.6c-5.1-4.7-13.1-4.3-17.8.8-2 2.2-3.1 5-3.3 7.9l-1-.9c-1-.9-2.5-.8-3.4.2l-10.3 11c-.9 1-.8 2.5.2 3.4l2.5 2.3-5.4 5.9c-2.2 2.5-2.6 6-1 8.9l-3.1 3.4 3.6 3.3 3.1-3.4c3 1.3 6.5.6 8.8-1.8l5.4-5.9 2.4 2.2c.5.4 1.1.7 1.7.6.6 0 1.2-.3 1.7-.8l1.9-2.1c.5-.5.4-1.3-.1-1.8s-1.3-.4-1.8.1L27 38.5 10.9 23.7l9.2-10.1 16.2 14.8-2.4 2.7c-.5.5-.4 1.3.1 1.8s1.3.4 1.8-.1l2.9-3.2c.9-1 .8-2.5-.2-3.4l-.9-.8c2.9-.4 5.6-1.8 7.6-4 4.5-5.2 4.2-13.1-.9-17.8zM15.2 42.9c-1.7 1.8-4.4 2.2-6.5.9l-.8-.5-.6-.8c-1.5-2-1.4-4.8.3-6.6l6.6-7.2 7.6 7-6.6 7.2zM42.6 5.4c4.1 3.8 4.4 10.2.6 14.3L28.9 5.4c3.8-3.5 9.8-3.6 13.7 0zm-8.1 17.5l-2.4-.3-5.8-5.3-.5-2.3c-.6-3 .1-6.1 2-8.5L42 20.7c-2.1 1.7-4.8 2.5-7.5 2.2z"/></g></switch></svg>