<?xml version="1.0" encoding="utf-8"?>
<!-- Generator: Adobe Illustrator 22.0.1, SVG Export Plug-In . SVG Version: 6.00 Build 0)  -->
<svg version="1.1" id="Layer_1" xmlns="http://www.w3.org/2000/svg" xmlns:xlink="http://www.w3.org/1999/xlink" x="0px" y="0px"
	 viewBox="0 0 50 50" style="enable-background:new 0 0 50 50;" xml:space="preserve">
<style type="text/css">
	.st0{fill:#9674EA;}
	.st1{fill:#B292F3;}
	.st2{fill-rule:evenodd;clip-rule:evenodd;fill:#464646;}
	.st3{fill:#464646;}
	.st4{fill:none;stroke:#464646;stroke-width:1.5;stroke-linecap:round;stroke-linejoin:round;stroke-miterlimit:10;}
</style>
<g>
	<path class="st0" d="M47.3,23.5c0-1.6-2.1-2.9-2.5-4.4c-0.4-1.5,0.9-3.7,0.1-5c-0.7-1.4-3.2-1.5-4.2-2.7c-0.6-0.7-0.8-1.8-1.1-2.8
		L3.4,21.8c-0.4,0.6-0.7,1.1-0.7,1.7c0,1.6,2.1,2.9,2.5,4.4c0.4,1.5-0.9,3.7-0.1,5c0.7,1.4,3.2,1.5,4.2,2.7c0.8,1,0.9,2.8,1.6,3.9
		L45.2,27C46,25.9,47.3,24.8,47.3,23.5z"/>
	<path class="st1" d="M39.4,7.2c-1.3-0.9-3.6,0-5.1-0.6c-1.4-0.6-2.3-3-3.9-3.3c-1.5-0.3-3.3,1.5-4.9,1.5c-1.6,0-3.4-1.8-4.9-1.5
		c-1.6,0.3-2.5,2.7-3.9,3.3c-1.5,0.6-3.8-0.3-5.1,0.6c-1.3,0.9-1.1,3.5-2.2,4.7c-1.1,1.2-3.6,1.4-4.3,2.8c-0.7,1.4,0.5,3.6,0.1,5.1
		c-0.2,0.9-1.1,1.8-1.8,2.7L40.4,8.9C40.2,8.2,39.9,7.6,39.4,7.2z"/>
	<g>
		<polygon class="st2" points="23.7,3.3 23.7,3.3 23.6,3.3 23.6,3.3 		"/>
	</g>
	<g>
		<path class="st3" d="M21,45c-0.6,0-1.1-0.4-1.2-1c-0.1-0.7,0.3-1.3,1-1.5l0.1,0c0.7-0.2,1.3,0.2,1.5,0.9c0.2,0.7-0.2,1.3-0.9,1.5
			c-0.1,0-0.2,0-0.3,0.1C21.1,45,21,45,21,45z"/>
	</g>
	<g>
		<path class="st3" d="M29.8,45c-0.6,0-1.1-0.4-1.2-1c-0.1-0.7,0.3-1.3,1-1.5c0.7-0.2,1.4,0.1,1.6,0.8c0.2,0.7-0.1,1.4-0.8,1.6
			c-0.1,0-0.2,0.1-0.4,0.1C30,45,29.9,45,29.8,45z"/>
	</g>
	<path class="st4" d="M29.9,37.1"/>
	<path class="st3" d="M47,20c-0.4-0.5-0.8-1-0.9-1.4c-0.1-0.4,0-1.1,0.2-1.8c0.2-1.1,0.5-2.4-0.1-3.5c-0.6-1.1-1.8-1.6-2.8-2.1
		c-0.6-0.3-1.3-0.5-1.5-0.9c-0.3-0.3-0.5-1-0.6-1.6c-0.3-1.1-0.7-2.3-1.7-3.1c-1-0.7-2.3-0.7-3.4-0.6c-0.7,0-1.4,0.1-1.8-0.1
		c-0.4-0.2-0.8-0.7-1.2-1.2c-0.7-0.9-1.6-1.9-2.8-2.1c-1.2-0.3-2.3,0.3-3.3,0.8c-0.6,0.3-1.3,0.6-1.7,0.6c-0.4,0-1.1-0.3-1.7-0.6
		c-1-0.5-2.1-1-3.3-0.8c-1.3,0.3-2.1,1.2-2.8,2.1c-0.4,0.5-0.9,1-1.2,1.2C15.5,5,14.8,5,14.1,4.9c-1.1,0-2.4-0.1-3.4,0.6
		c-1,0.8-1.4,2-1.7,3.1C8.8,9.3,8.6,10,8.3,10.3c-0.3,0.3-0.9,0.6-1.5,0.9c-1,0.4-2.2,1-2.8,2.1s-0.4,2.4-0.1,3.5
		c0.1,0.7,0.3,1.4,0.2,1.8C3.9,18.9,3.4,19.5,3,20c-0.7,0.9-1.6,1.9-1.6,3.2s0.8,2.3,1.6,3.2c0.4,0.5,0.8,1,0.9,1.4
		c0.1,0.4,0,1.1-0.2,1.8c-0.2,1.1-0.5,2.4,0.1,3.5c0.6,1.1,1.8,1.6,2.8,2.1c0.6,0.3,1.3,0.5,1.5,0.9c0.3,0.3,0.5,1,0.6,1.6
		c0.3,1.1,0.7,2.3,1.7,3.1c1,0.7,2.3,0.7,3.4,0.6c0.7,0,1.4-0.1,1.8,0.1c0.4,0.2,0.8,0.7,1.2,1.2c0.7,0.9,1.6,1.9,2.8,2.1
		c0.1,0,0.2,0,0.3,0c-0.2,0.4-0.2,0.9,0.1,1.2c0.1,0.1,1.8,2.3,5.3,2.3c3.1,0,5.2-2.2,5.3-2.2c0.2-0.2,0.3-0.5,0.3-0.8v-1
		c0.7-0.4,1.2-1.1,1.7-1.6c0.4-0.5,0.9-1,1.2-1.2c0.4-0.2,1.1-0.1,1.8-0.1c1.1,0,2.4,0.1,3.4-0.6c1-0.8,1.4-2,1.7-3.1
		c0.2-0.6,0.3-1.1,0.5-1.5c0-0.1,0.1-0.1,0.1-0.2c0.5-0.5,0.4-1.3-0.1-1.8c-0.5-0.5-1.3-0.4-1.8,0.1c-0.1,0.2-0.3,0.3-0.4,0.5
		c0,0,0,0,0,0c-0.4,0.6-0.6,1.4-0.8,2.1c-0.2,0.7-0.4,1.5-0.8,1.8C37.6,39.1,36.7,39,36,39c-0.9,0-2-0.1-2.9,0.3
		c-0.9,0.4-1.5,1.1-2.2,1.9c-0.5,0.6-1,1.1-1.4,1.3c-0.4,0.1-0.6,0.4-0.7,0.7c-0.1,0.2-0.2,0.4-0.2,0.6v1.1
		c-0.5,0.4-1.6,1.1-3.1,1.1c-2.2,0-3.2-1.3-3.3-1.3c-0.1-0.1-0.2-0.2-0.3-0.3c0.2-0.3,0.3-0.6,0.2-0.9c-0.1-0.7-0.8-1.1-1.5-1
		c-0.1,0-0.2,0-0.3,0c-0.4-0.1-1-0.7-1.4-1.3c-0.6-0.7-1.3-1.5-2.2-1.9c-0.9-0.4-2-0.4-2.9-0.3c-0.7,0-1.5,0.1-1.9-0.2
		c-0.3-0.2-0.6-1-0.8-1.8c-0.2-0.9-0.5-1.9-1.2-2.6c-0.7-0.7-1.6-1.1-2.4-1.5c-0.7-0.3-1.4-0.6-1.6-1c-0.2-0.4,0-1.2,0.1-1.9
		c0.2-0.9,0.4-1.9,0.1-2.9c-0.2-0.9-0.8-1.7-1.4-2.4c-0.5-0.6-1-1.2-1-1.7s0.5-1.1,1-1.7c0.6-0.7,1.2-1.5,1.4-2.4c0.2-1,0-2-0.1-2.9
		c-0.1-0.7-0.3-1.5-0.1-1.9c0.2-0.4,0.9-0.7,1.6-1c0.8-0.4,1.8-0.8,2.4-1.5c0.6-0.7,0.9-1.7,1.2-2.6c0.2-0.7,0.4-1.5,0.8-1.8
		c0.3-0.2,1.1-0.2,1.9-0.2c0.9,0,2,0.1,2.9-0.3C17.8,6.7,18.4,6,19,5.2c0.5-0.6,1-1.2,1.4-1.3c0.4-0.1,1.1,0.3,1.7,0.6
		C23,5,24,5.4,25,5.4c1,0,2-0.5,2.8-0.9c0.6-0.3,1.4-0.7,1.7-0.6C30,4,30.5,4.7,31,5.2c0.6,0.7,1.3,1.5,2.2,1.9
		c0.9,0.4,2,0.4,2.9,0.3c0.7,0,1.5-0.1,1.9,0.2c0.3,0.2,0.6,1,0.8,1.8c0.2,0.9,0.5,1.9,1.2,2.6c0.7,0.7,1.6,1.1,2.4,1.5
		c0.7,0.3,1.4,0.6,1.6,1c0.2,0.4,0,1.2-0.1,1.9c-0.2,0.9-0.4,1.9-0.1,2.8c0.2,0.9,0.8,1.7,1.4,2.4c0.5,0.6,1,1.2,1,1.7
		s-0.5,1.1-1,1.7c-0.4,0.5-0.8,0.9-1.1,1.5c0,0,0,0,0,0c-0.2,0.3-0.3,0.6-0.4,0.9c0,0.2-0.1,0.3-0.1,0.5c-0.1,0.7,0.4,1.3,1.1,1.4
		c0,0,0.1,0,0.1,0c0.6,0,1.2-0.5,1.2-1.1c0-0.1,0-0.1,0-0.1c0-0.1,0.1-0.2,0.1-0.3c0,0,0,0,0,0c0.2-0.3,0.5-0.7,0.8-1.1
		c0.7-0.9,1.6-1.9,1.6-3.2C48.6,21.9,47.7,20.9,47,20z"/>
	<g>
		<path class="st3" d="M25,44.4c-7-1.1-12.2-8-12.2-16c0-2.4,0.7-7.6,3.4-9.9c1.1-0.9,2.4-1.2,3.8-1c1.2,0.2,2,0.5,2.6,0.6
			c0.8,0.3,1.4,0.4,2.7,0.4c1.1,0,1.8-0.2,2.7-0.4c0.7-0.2,1.5-0.4,2.7-0.6l0,0c1.4-0.3,2.7,0.1,3.8,1c2.7,2.2,3.4,7.4,3.4,9.9
			c0,8-5,14.7-11.8,16L25,44.4z M19,18.4c-0.8,0-1.5,0.3-2.2,0.8c-2.2,1.9-3,6.5-3,9.1c0,7.5,4.8,14,11.3,15l1,0
			c6.3-1.2,10.9-7.5,10.9-15c0-2.6-0.8-7.3-3-9.1c-0.9-0.7-1.8-1-3-0.7c-1.2,0.2-1.9,0.4-2.6,0.6c-1,0.3-1.7,0.5-3,0.5
			c-1.4,0-2.1-0.2-3-0.5c-0.6-0.2-1.3-0.4-2.5-0.6C19.5,18.5,19.3,18.4,19,18.4z"/>
	</g>
	<g>
		<path class="st3" d="M28.7,35.7l-6.6,0c0,0,0,0,0,0c-0.1,0-0.2,0-0.3,0.1c-0.1,0.1-0.1,0.2-0.1,0.3c0,0.1,0.5,2.2,3.3,2.7
			c0.2,0,0.4,0,0.6,0c0,0,0,0,0,0c2.3,0,3.4-2.5,3.4-2.6c0-0.1,0-0.2,0-0.3C28.9,35.8,28.8,35.7,28.7,35.7z M25.6,38.1
			c-0.1,0-0.3,0-0.4,0c-1.7-0.3-2.3-1.2-2.6-1.7l5.6,0C27.7,37,26.9,38.1,25.6,38.1z"/>
		<path class="st3" d="M20.1,22.1C20,22,19.8,21.9,19.6,22l-3.4,1.5c-0.2,0.1-0.3,0.3-0.2,0.4c0.1,0.1,0.2,0.2,0.3,0.2
			c0,0,0.1,0,0.1,0l3.4-1.5C20.1,22.5,20.1,22.3,20.1,22.1z"/>
		<path class="st3" d="M33.6,23.2c0.1,0,0.3-0.1,0.3-0.2c0.1-0.2,0-0.4-0.2-0.4l-3.5-1.1c-0.2-0.1-0.4,0-0.4,0.2s0,0.4,0.2,0.4
			l3.5,1.1C33.5,23.2,33.6,23.2,33.6,23.2z"/>
		<path class="st3" d="M21.8,26.3c-0.1-0.3-0.4-0.6-0.7-0.7c-0.2-0.1-0.3-0.1-0.5-0.1c-0.3,0-0.5,0.1-0.7,0.2
			c-0.1-0.1-0.2-0.1-0.3-0.1L18,26.2c-0.2,0.1-0.3,0.2-0.2,0.4c0,0.1,0.2,0.2,0.3,0.2c0,0,0.1,0,0.1,0l1.2-0.4
			c-0.2,0.6,0.1,1.3,0.7,1.5c0.2,0.1,0.3,0.1,0.5,0.1c0.5,0,1-0.3,1.2-0.8C21.9,27,21.9,26.6,21.8,26.3z M21.2,27
			c-0.1,0.2-0.3,0.4-0.5,0.4c-0.1,0-0.2,0-0.2,0c-0.3-0.1-0.4-0.5-0.3-0.8c0.1-0.2,0.3-0.4,0.5-0.4c0.1,0,0.2,0,0.2,0
			c0.1,0.1,0.3,0.2,0.3,0.3S21.2,26.9,21.2,27z"/>
		<path class="st3" d="M34,26.3c-0.1-0.3-0.4-0.6-0.7-0.7c-0.2-0.1-0.3-0.1-0.5-0.1c-0.2,0-0.4,0.1-0.6,0.2c-0.1,0-0.1,0-0.2,0
			l-1.6,0.5c-0.2,0.1-0.3,0.2-0.2,0.4c0,0.1,0.2,0.2,0.3,0.2c0,0,0.1,0,0.1,0l1.1-0.3c-0.1,0.3-0.1,0.5,0,0.8
			c0.1,0.3,0.4,0.6,0.7,0.7c0.2,0.1,0.3,0.1,0.5,0.1h0c0.5,0,1-0.3,1.2-0.8C34.1,27,34.1,26.6,34,26.3z M33.3,27
			c-0.1,0.2-0.3,0.4-0.5,0.4c-0.1,0-0.2,0-0.2,0c-0.1-0.1-0.3-0.2-0.3-0.3c-0.1-0.1-0.1-0.3,0-0.4c0.1-0.2,0.3-0.4,0.5-0.4
			c0.1,0,0.2,0,0.2,0c0.1,0.1,0.3,0.2,0.3,0.3C33.4,26.7,33.4,26.9,33.3,27z"/>
		<path class="st3" d="M25,33.6c0,0,0.1,0,0.2,0c0.4,0,1.2-0.1,1.6-0.5c0.2-0.2,0.4-0.5,0.4-0.9c0-0.2-0.2-0.4-0.4-0.4
			s-0.4,0.2-0.4,0.4c0,0.1,0,0.2-0.1,0.3c-0.3,0.3-1.1,0.3-1.3,0.3c0,0-0.9-0.1-1-0.9c0-0.2,0-0.3,0.1-0.4c0.8-1.1,1.2-2.5,1.2-4
			v-2.3c0-0.2-0.2-0.4-0.4-0.4s-0.4,0.2-0.4,0.4v2.3c0,1.3-0.4,2.6-1,3.5c-0.2,0.3-0.2,0.6-0.2,0.9C23.4,33.2,24.5,33.6,25,33.6z"/>
	</g>
</g>
</svg>
