<svg xmlns="http://www.w3.org/2000/svg" id="Layer_1" x="0" y="0" version="1.1" viewBox="0 0 50 50" xml:space="preserve"><style>.st3{fill:#031326}</style><path fill="#9674ea" d="M47.3 23.5c0-1.6-2.1-2.9-2.5-4.4-.4-1.5.9-3.7.1-5-.7-1.4-3.2-1.5-4.2-2.7-.6-.7-.8-1.8-1.1-2.8L3.4 21.8c-.4.6-.7 1.1-.7 1.7 0 1.6 2.1 2.9 2.5 4.4.4 1.5-.9 3.7-.1 5 .7 1.4 3.2 1.5 4.2 2.7.8 1 .9 2.8 1.6 3.9L45.2 27c.8-1.1 2.1-2.2 2.1-3.5z"/><path fill="#b292f3" d="M39.4 7.2c-1.3-.9-3.6 0-5.1-.6-1.4-.6-2.3-3-3.9-3.3-1.5-.3-3.3 1.5-4.9 1.5-1.6 0-3.4-1.8-4.9-1.5-1.6.3-2.5 2.7-3.9 3.3-1.5.6-3.8-.3-5.1.6-1.3.9-1.1 3.5-2.2 4.7-1.1 1.2-3.6 1.4-4.3 2.8-.7 1.4.5 3.6.1 5.1-.2.9-1.1 1.8-1.8 2.7l37-13.6c-.2-.7-.5-1.3-1-1.7z"/><path fill="#031326" fill-rule="evenodd" d="M23.7 3.3h-.1z" clip-rule="evenodd"/><path d="M21 45c-.6 0-1.1-.4-1.2-1-.1-.7.3-1.3 1-1.5h.1c.7-.2 1.3.2 1.5.9.2.7-.2 1.3-.9 1.5-.1 0-.2 0-.3.1H21zm8.8 0c-.6 0-1.1-.4-1.2-1-.1-.7.3-1.3 1-1.5.7-.2 1.4.1 1.6.8.2.7-.1 1.4-.8 1.6-.1 0-.2.1-.4.1h-.2z" class="st3"/><path d="M47 20c-.4-.5-.8-1-.9-1.4-.1-.4 0-1.1.2-1.8.2-1.1.5-2.4-.1-3.5s-1.8-1.6-2.8-2.1c-.6-.3-1.3-.5-1.5-.9-.3-.3-.5-1-.6-1.6-.3-1.1-.7-2.3-1.7-3.1-1-.7-2.3-.7-3.4-.6-.7 0-1.4.1-1.8-.1-.4-.2-.8-.7-1.2-1.2-.7-.9-1.6-1.9-2.8-2.1-1.2-.3-2.3.3-3.3.8-.6.3-1.3.6-1.7.6-.4 0-1.1-.3-1.7-.6-1-.5-2.1-1-3.3-.8-1.3.3-2.1 1.2-2.8 2.1-.4.5-.9 1-1.2 1.2-.9.1-1.6.1-2.3 0-1.1 0-2.4-.1-3.4.6-1 .8-1.4 2-1.7 3.1-.2.7-.4 1.4-.7 1.7-.3.3-.9.6-1.5.9-1 .4-2.2 1-2.8 2.1s-.4 2.4-.1 3.5c.1.7.3 1.4.2 1.8-.2.3-.7.9-1.1 1.4-.7.9-1.6 1.9-1.6 3.2s.8 2.3 1.6 3.2c.4.5.8 1 .9 1.4.1.4 0 1.1-.2 1.8-.2 1.1-.5 2.4.1 3.5s1.8 1.6 2.8 2.1c.6.3 1.3.5 1.5.9.3.3.5 1 .6 1.6.3 1.1.7 2.3 1.7 3.1 1 .7 2.3.7 3.4.6.7 0 1.4-.1 1.8.1.4.2.8.7 1.2 1.2.7.9 1.6 1.9 2.8 2.1h.3c-.2.4-.2.9.1 1.2.1.1 1.8 2.3 5.3 2.3 3.1 0 5.2-2.2 5.3-2.2.2-.2.3-.5.3-.8v-1c.7-.4 1.2-1.1 1.7-1.6.4-.5.9-1 1.2-1.2.4-.2 1.1-.1 1.8-.1 1.1 0 2.4.1 3.4-.6 1-.8 1.4-2 1.7-3.1.2-.6.3-1.1.5-1.5 0-.1.1-.1.1-.2.5-.5.4-1.3-.1-1.8s-1.3-.4-1.8.1c-.1.2-.3.3-.4.5-.4.6-.6 1.4-.8 2.1-.2.7-.4 1.5-.8 1.8.2.4-.7.3-1.4.3-.9 0-2-.1-2.9.3-.9.4-1.5 1.1-2.2 1.9-.5.6-1 1.1-1.4 1.3-.4.1-.6.4-.7.7-.1.2-.2.4-.2.6v1.1c-.5.4-1.6 1.1-3.1 1.1-2.2 0-3.2-1.3-3.3-1.3l-.3-.3c.2-.3.3-.6.2-.9-.1-.7-.8-1.1-1.5-1h-.3c-.4-.1-1-.7-1.4-1.3-.6-.7-1.3-1.5-2.2-1.9-.9-.4-2-.4-2.9-.3-.7 0-1.5.1-1.9-.2-.3-.2-.6-1-.8-1.8-.2-.9-.5-1.9-1.2-2.6-.7-.7-1.6-1.1-2.4-1.5-.7-.3-1.4-.6-1.6-1-.2-.4 0-1.2.1-1.9.2-.9.4-1.9.1-2.9-.2-.9-.8-1.7-1.4-2.4-.5-.6-1-1.2-1-1.7s.5-1.1 1-1.7c.6-.7 1.2-1.5 1.4-2.4.2-1 0-2-.1-2.9-.1-.7-.3-1.5-.1-1.9.2-.4.9-.7 1.6-1 .8-.4 1.8-.8 2.4-1.5.6-.7.9-1.7 1.2-2.6.2-.7.4-1.5.8-1.8.3-.2 1.1-.2 1.9-.2.9 0 2 .1 2.9-.3 1.1 0 1.7-.7 2.3-1.5.5-.6 1-1.2 1.4-1.3.4-.1 1.1.3 1.7.6.9.5 1.9.9 2.9.9s2-.5 2.8-.9c.6-.3 1.4-.7 1.7-.6.5.1 1 .8 1.5 1.3.6.7 1.3 1.5 2.2 1.9.9.4 2 .4 2.9.3.7 0 1.5-.1 1.9.2.3.2.6 1 .8 1.8.2.9.5 1.9 1.2 2.6.7.7 1.6 1.1 2.4 1.5.7.3 1.4.6 1.6 1 .2.4 0 1.2-.1 1.9-.2.9-.4 1.9-.1 2.8.2.9.8 1.7 1.4 2.4.5.6 1 1.2 1 1.7s-.5 1.1-1 1.7c-.4.5-.8.9-1.1 1.5-.2.3-.3.6-.4.9 0 .2-.1.3-.1.5-.1.7.4 1.3 1.1 1.4h.1c.6 0 1.2-.5 1.2-1.1v-.1c0-.1.1-.2.1-.3.2-.3.5-.7.8-1.1.7-.9 1.6-1.9 1.6-3.2.1-1.6-.8-2.6-1.5-3.5z" class="st3"/><path d="M25 44.4c-7-1.1-12.2-8-12.2-16 0-2.4.7-7.6 3.4-9.9 1.1-.9 2.4-1.2 3.8-1 1.2.2 2 .5 2.6.6.8.3 1.4.4 2.7.4 1.1 0 1.8-.2 2.7-.4.7-.2 1.5-.4 2.7-.6 1.4-.3 2.7.1 3.8 1 2.7 2.2 3.4 7.4 3.4 9.9 0 8-5 14.7-11.8 16H25zm-6-26c-.8 0-1.5.3-2.2.8-2.2 1.9-3 6.5-3 9.1 0 7.5 4.8 14 11.3 15h1c6.3-1.2 10.9-7.5 10.9-15 0-2.6-.8-7.3-3-9.1-.9-.7-1.8-1-3-.7-1.2.2-1.9.4-2.6.6-1 .3-1.7.5-3 .5-1.4 0-2.1-.2-3-.5-.6-.2-1.3-.4-2.5-.6-.4 0-.6-.1-.9-.1z" class="st3"/><path d="M28.7 35.7h-6.6c-.1 0-.2 0-.3.1-.1.1-.1.2-.1.3 0 .1.5 2.2 3.3 2.7h.6c2.3 0 3.4-2.5 3.4-2.6v-.3c-.1-.1-.2-.2-.3-.2zm-3.1 2.4h-.4c-1.7-.3-2.3-1.2-2.6-1.7h5.6c-.5.6-1.3 1.7-2.6 1.7zm-5.5-16c-.1-.1-.3-.2-.5-.1l-3.4 1.5c-.2.1-.3.3-.2.4.1.1.2.2.3.2h.1l3.4-1.5c.3-.1.3-.3.3-.5zm13.5 1.1c.1 0 .3-.1.3-.2.1-.2 0-.4-.2-.4l-3.5-1.1c-.2-.1-.4 0-.4.2s0 .4.2.4l3.5 1.1h.1zm-11.8 3.1c-.1-.3-.4-.6-.7-.7-.2-.1-.3-.1-.5-.1-.3 0-.5.1-.7.2-.1-.1-.2-.1-.3-.1l-1.6.6c-.2.1-.3.2-.2.4 0 .1.2.2.3.2h.1l1.2-.4c-.2.6.1 1.3.7 1.5.2.1.3.1.5.1.5 0 1-.3 1.2-.8.1-.2.1-.6 0-.9zm-.6.7c-.1.2-.3.4-.5.4h-.2c-.3-.1-.4-.5-.3-.8.1-.2.3-.4.5-.4h.2c.1.1.3.2.3.3v.5zm12.8-.7c-.1-.3-.4-.6-.7-.7-.2-.1-.3-.1-.5-.1s-.4.1-.6.2H32l-1.6.5c-.2.1-.3.2-.2.4 0 .1.2.2.3.2h.1l1.1-.3c-.1.3-.1.5 0 .8.1.3.4.6.7.7.2.1.3.1.5.1.5 0 1-.3 1.2-.8 0-.3 0-.7-.1-1zm-.7.7c-.1.2-.3.4-.5.4h-.2c-.1-.1-.3-.2-.3-.3-.1-.1-.1-.3 0-.4.1-.2.3-.4.5-.4h.2c.1.1.3.2.3.3.1.1.1.3 0 .4zM25 33.6h.2c.4 0 1.2-.1 1.6-.5.2-.2.4-.5.4-.9 0-.2-.2-.4-.4-.4s-.4.2-.4.4c0 .1 0 .2-.1.3-.3.3-1.1.3-1.3.3 0 0-.9-.1-1-.9 0-.2 0-.3.1-.4.8-1.1 1.2-2.5 1.2-4v-2.3c0-.2-.2-.4-.4-.4s-.4.2-.4.4v2.3c0 1.3-.4 2.6-1 3.5-.2.3-.2.6-.2.9.1 1.3 1.2 1.7 1.7 1.7z" class="st3"/></svg>