<svg xmlns="http://www.w3.org/2000/svg" viewBox="0 0 50 50"><defs><style>.cls-1,.cls-4,.cls-5,.cls-8{fill:none;}.cls-1{stroke:#494949;stroke-width:3.11px;}.cls-1,.cls-7,.cls-8{stroke-miterlimit:10;}.cls-2{fill:#a6c1c2;}.cls-3{fill:#b9d7d9;}.cls-4,.cls-5,.cls-7,.cls-8{stroke:#444;}.cls-4,.cls-5{stroke-linecap:round;stroke-linejoin:round;}.cls-4{stroke-width:2.5px;}.cls-5{stroke-width:1.5px;}.cls-6,.cls-7{fill:#444;}.cls-7{stroke-width:0.2px;}.cls-8{stroke-width:0.75px;}</style></defs><g id="Layer_1" data-name="Layer 1"><rect class="cls-1" x="-50.54" y="-96.7" width="425.11" height="443.81"/><polygon class="cls-2" points="44.56 29.9 44.77 33.21 5.25 47.6 5.62 40.58 6.07 36.54 45.44 22.21 44.74 25.1 44.56 29.9"/><polygon class="cls-3" points="45.04 17.04 44.35 23.03 5.75 37.07 5.11 29.26 4.56 26.69 45.33 11.91 45.04 17.04"/><polyline class="cls-4" points="38.63 7.86 45.02 7.86 45.02 48.58 5.09 48.58 5.09 7.86 11.48 7.86"/><path class="cls-5" d="M30.64,6.26a5.59,5.59,0,1,0-11.18,0h-4v6.39H34.64V6.26Z"/><circle class="cls-6" cx="25.05" cy="6.26" r="1.6"/><polyline class="cls-5" points="40.23 12.65 40.23 43.79 9.88 43.79 9.88 12.65"/><path class="cls-7" d="M24.88,20.73a8.69,8.69,0,0,0-7.07,13.76l-.79.79-.19-.2a.42.42,0,0,0-.3-.12.4.4,0,0,0-.29.12L15,36.28h0l-1.95,1.95a2.11,2.11,0,0,0,3,3l2-2h0l1.19-1.2a.39.39,0,0,0,0-.58l-.19-.2.79-.79a8.61,8.61,0,0,0,5.06,1.63,8.7,8.7,0,1,0,0-17.39Zm-9.39,19.9a1.25,1.25,0,0,1-.91.38,1.29,1.29,0,0,1-.91-2.19l1.66-1.66.91.9.91.91Zm2.24-2.24-.9-.91-.91-.91.61-.61,1.82,1.81Zm.71-1.69L18,36.28l-.42-.42.72-.72a8.33,8.33,0,0,0,.84.84Zm6.44.6a7.88,7.88,0,1,1,7.87-7.88A7.88,7.88,0,0,1,24.88,37.3Z"/><circle class="cls-8" cx="24.88" cy="29.42" r="6.96"/></g></svg>