<?xml version="1.0" encoding="utf-8"?>
<!-- Generator: Adobe Illustrator 22.1.0, SVG Export Plug-In . SVG Version: 6.00 Build 0)  -->
<svg version="1.1" id="Layer_1" xmlns="http://www.w3.org/2000/svg" xmlns:xlink="http://www.w3.org/1999/xlink" x="0px" y="0px"
	 viewBox="0 0 50 50" style="enable-background:new 0 0 50 50;" xml:space="preserve">
<style type="text/css">
	.st0{fill:#C3FF68;}
	.st1{fill:#AFE55D;}
	.st2{fill:#444444;}
</style>
<path class="st0" d="M33.4,4.3c-7.6-4.6-17.4-2.2-22,5.3c-1,1.6-1.6,3.2-2,4.9l25.4-9.3C34.4,5,33.9,4.6,33.4,4.3z"/>
<path class="st1" d="M34.8,4.9L9.3,14.2c-1.4,6.5,1.3,13.4,7.3,17.1c0.1,0.1,0.2,0.1,0.4,0.2l23-8.4C42.4,16.6,40.3,9.2,34.8,4.9z"
	/>
<path class="st1" d="M8.9,48.4l-3.8-2.3c-0.5-0.3-0.6-0.9-0.3-1.4l5.5-9.1c0.3-0.5,0.9-0.6,1.4-0.3l3.8,2.3c0.5,0.3,0.6,0.9,0.3,1.4
	l-5.5,9.1C10,48.6,9.3,48.7,8.9,48.4z"/>
<path class="st2" d="M34,2.9c-8.1-5-18.8-2.4-23.7,5.8c-4.7,7.8-2.6,17.8,4.7,23l-1.8,2.9L12.4,34c-0.5-0.3-1.1-0.4-1.7-0.3
	c-0.6,0.1-1.1,0.5-1.4,1l-5.5,9.1c-0.6,1.1-0.3,2.4,0.7,3.1l3.8,2.3c0.4,0.2,0.8,0.3,1.2,0.3c0.2,0,0.4,0,0.5-0.1
	c0.6-0.1,1.1-0.5,1.4-1l5.5-9.1c0.6-1.1,0.3-2.4-0.8-3.1l-0.8-0.5l1.8-2.9c2.1,1.1,4.4,1.7,6.8,1.9H24c0.7,0,1.2-0.5,1.2-1.2
	s-0.5-1.3-1.2-1.3c-2.1-0.1-4.1-0.7-6-1.7c-0.2-0.1-0.5-0.3-0.7-0.4C10.4,26,8.2,16.9,12.5,9.9C16.7,3,25.8,0.8,32.7,5
	c6.3,3.8,8.8,11.8,5.8,18.6c-0.3,0.6,0,1.4,0.6,1.6c0.6,0.3,1.4,0,1.6-0.6C44.3,16.7,41.4,7.4,34,2.9z M11.2,44.1L7.8,42l0.6-1
	l3.4,2.1L11.2,44.1z M9.4,47L6,45l1.3-2.1l3.4,2.1L9.4,47z M12.3,42.3l-3.4-2.1l2.4-3.9l3.4,2.1L12.3,42.3z"/>
<g>
	<path class="st2" d="M25,30.1c-2.3,0-4.5-0.6-6.5-1.8c-5.9-3.6-7.7-11.3-4.2-17.2C16,8.3,18.8,6.3,22,5.5s6.6-0.3,9.4,1.5
		c5.9,3.6,7.7,11.3,4.2,17.2l0,0C34,27,31.2,29,28,29.7C27,30,26,30.1,25,30.1z M25.1,5.6c-0.9,0-1.9,0.1-2.8,0.3
		c-3.1,0.8-5.7,2.7-7.4,5.4c-3.4,5.6-1.6,13,4,16.5c2.7,1.7,6,2.2,9.1,1.4c3.1-0.8,5.7-2.7,7.4-5.4c3.4-5.6,1.6-13-4-16.5
		C29.4,6.2,27.3,5.6,25.1,5.6z"/>
</g>
<g>
	<path class="st2" d="M25.1,8.3c-5.2,0-9.4,4.2-9.4,9.4s4.2,9.4,9.4,9.4s9.4-4.2,9.4-9.4C34.4,12.4,30.2,8.3,25.1,8.3z M21,13.8
		c0.7,0,1.3,0.6,1.3,1.3s-0.6,1.3-1.3,1.3s-1.3-0.6-1.3-1.3S20.3,13.8,21,13.8z M30.2,19.2c-0.6,2.4-2.7,4.1-5.2,4.1
		c-2.3,0-4.4-1.6-5.1-3.8c-0.1-0.4,0.1-0.9,0.6-1.1c0.4-0.1,0.9,0.1,1.1,0.6c0.5,1.5,1.9,2.6,3.5,2.6c1.7,0,3.1-1.1,3.5-2.8
		c0.1-0.5,0.6-0.7,1-0.6C30,18.3,30.3,18.7,30.2,19.2z M28.9,16.3c-0.7,0-1.3-0.6-1.3-1.3s0.6-1.3,1.3-1.3s1.3,0.6,1.3,1.3
		C30.2,15.8,29.6,16.3,28.9,16.3z"/>
</g>
<circle class="st1" cx="41.4" cy="17.2" r="4.7"/>
<g>
	<circle class="st2" cx="39.9" cy="16.2" r="0.5"/>
</g>
<g>
	<circle class="st2" cx="42.7" cy="16.2" r="0.5"/>
</g>
<path class="st2" d="M41.3,22.5c-2.9,0-5.2-2.4-5.2-5.2c0-2.9,2.4-5.2,5.2-5.2s5.2,2.4,5.2,5.2S44.2,22.5,41.3,22.5z M41.3,13
	c-2.3,0-4.2,1.9-4.2,4.2s1.9,4.2,4.2,4.2s4.2-1.9,4.2-4.2S43.6,13,41.3,13z"/>
<path class="st2" d="M39.9,19.2L39.9,19.2c-0.4-0.1-0.5-0.3-0.5-0.6c0.2-0.9,1-1.5,1.9-1.5c0.8,0,1.6,0.6,1.9,1.4
	c0.1,0.3-0.1,0.5-0.3,0.6c-0.3,0.1-0.5-0.1-0.6-0.3c-0.1-0.4-0.5-0.7-0.9-0.7s-0.8,0.3-0.9,0.7C40.4,19.1,40.1,19.2,39.9,19.2z"/>
<path class="st1" d="M11.6,13.4L4,16.1c-0.1,0.3-0.1,0.6-0.1,1c0,2.6,2.1,4.7,4.7,4.7s4.7-2.1,4.7-4.7
	C13.4,15.6,12.7,14.2,11.6,13.4z"/>
<path class="st0" d="M8.9,12.4c-2.3,0-4.2,1.6-4.6,3.8l7.5-2.7C11,12.8,10,12.4,8.9,12.4z"/>
<path class="st2" d="M9,22.5c-2.9,0-5.2-2.4-5.2-5.2C3.7,14.3,6.1,12,9,12s5.2,2.4,5.2,5.2C14.2,20.1,11.8,22.5,9,22.5z M9,13
	c-2.3,0-4.2,1.9-4.2,4.2s1.9,4.2,4.2,4.2s4.2-1.9,4.2-4.2S11.3,13,9,13z"/>
<g>
	<circle class="st2" cx="7.4" cy="16.4" r="0.5"/>
</g>
<g>
	<circle class="st2" cx="10.5" cy="16.4" r="0.5"/>
</g>
<path class="st2" d="M10.7,19H7.2c-0.3,0-0.5-0.2-0.5-0.5S6.9,18,7.2,18h3.6c0.3,0,0.5,0.2,0.5,0.5S11,19,10.7,19z"/>
</svg>
