<?xml version="1.0" encoding="utf-8"?>
<!-- Generator: Adobe Illustrator 26.5.0, SVG Export Plug-In . SVG Version: 6.00 Build 0)  -->
<svg version="1.1" id="Layer_1" xmlns="http://www.w3.org/2000/svg" xmlns:xlink="http://www.w3.org/1999/xlink" x="0px" y="0px"
	 viewBox="0 0 50 50" style="enable-background:new 0 0 50 50;" xml:space="preserve">
<style type="text/css">
	.st0{fill:none;stroke:#494949;stroke-width:1.5;stroke-linecap:round;stroke-miterlimit:10;}
	.st1{fill:#E589EF;}
	.st2{fill:#F799FF;}
	.st3{fill:none;stroke:#444444;stroke-width:2.5;stroke-linecap:round;stroke-linejoin:round;stroke-miterlimit:10;}
	.st4{fill:#444444;}
</style>
<g>
	<path class="st0" d="M46.42,30.83"/>
</g>
<g>
	<g>
		<g>
			<polygon class="st1" points="46.87,22.41 3.01,38.23 3.23,24.59 2.82,19.81 30.24,9.83 46.1,6.12 47.06,15.05 			"/>
			<polygon class="st2" points="46.1,6.12 3.33,21.54 3.85,11.4 2.94,11.12 4.36,2.08 44.85,1.95 47.18,6.36 			"/>
			<g>
				<path class="st3" d="M2.89,44.82V4.73c0-1.72,1.4-3.12,3.12-3.12h37.42c1.72,0,3.12,1.4,3.12,3.12v40.54
					c0,1.72-1.4,3.12-3.12,3.12h-5.74"/>
				<line class="st3" x1="2.89" y1="9.92" x2="46.55" y2="9.92"/>
			</g>
		</g>
		<circle class="st4" cx="37.77" cy="5.82" r="1.35"/>
		<circle class="st4" cx="41.62" cy="5.82" r="1.35"/>
		<circle class="st4" cx="33.81" cy="5.82" r="1.35"/>
	</g>
	<g>
		<g>
			<g>
				<circle class="st4" cx="25" cy="17.34" r="3.48"/>
			</g>
		</g>
		<g>
			<g>
				<path class="st4" d="M35.31,20.96c0,0-4.6,0.84-8.91,0.84h-2.79c-4.32,0-8.91-0.84-8.91-0.84c-0.7-0.14-1.39,0.42-1.53,1.11
					c-0.14,0.7,0.42,1.39,1.11,1.53c0.14,0,3.9,0.7,7.94,0.84l-0.56,8.63c-0.7,4.87-2.51,9.61-2.51,9.61
					c-0.28,0.7,0.14,1.39,0.7,1.67c0.14,0,0.28,0.14,0.42,0.14c0.56,0,0.97-0.28,1.25-0.84c0.14-0.14,1.39-3.62,2.23-7.8
					c0.14-0.56,0.56-0.84,1.11-0.84l0,0c0.56,0,0.97,0.42,1.11,0.84c0.84,4.32,2.09,7.66,2.23,7.8c0.14,0.56,0.7,0.84,1.25,0.84
					c0.14,0,0.28,0,0.42-0.14c0.7-0.28,0.97-0.97,0.7-1.67c0,0-1.81-4.74-2.51-9.61l-0.28-8.63c4.04-0.14,7.8-0.84,7.94-0.84
					c0.7-0.14,1.25-0.84,1.11-1.53C36.7,21.24,36,20.82,35.31,20.96z"/>
			</g>
		</g>
	</g>
</g>
</svg>
