<svg xmlns="http://www.w3.org/2000/svg" id="Layer_1" x="0" y="0" version="1.1" viewBox="0 0 50 50" xml:space="preserve"><style>.st3{fill:none;stroke:#031326;stroke-linecap:round;stroke-miterlimit:10}.st4{fill:#031326}</style><path fill="#00c8e2" d="M42.3 8.3L7.7 20.9v21.5l34.6-12.6z"/><path fill="#00dffc" d="M42.3 5.3c0-1-.8-1.9-1.9-1.9H9.6c-1 0-1.9.8-1.9 1.9v15.6L42.3 8.3v-3z"/><path fill="none" stroke="#031326" stroke-linecap="round" stroke-miterlimit="10" stroke-width="2.5" d="M42.3 31.7V5.3c0-1-.8-1.9-1.9-1.9H9.5c-1 0-1.9.8-1.9 1.9v39.4c0 1 .8 1.9 1.9 1.9h20.6"/><path d="M39.5 31.7v-24c0-.9-.7-1.6-1.6-1.6h-26c-.9 0-1.6.7-1.6 1.6v34.6c0 .9.7 1.6 1.6 1.6h17.8" class="st3"/><path d="M22.2 11.5c0-.7-.6-1.3-1.3-1.3h-6.2c-.7 0-1.3.6-1.3 1.3v6.2c0 .7.6 1.3 1.3 1.3h6.2c.7 0 1.3-.6 1.3-1.3v-6.2zm-4.9 5.3l-2.5-2.4.9-1 1.5 1.4 2.5-2.6 1 .9-3.4 3.7z" class="st4"/><path d="M24.5 12.4h7.3m-7.3 2.1h11.6m-11.6 2.1h11.6" class="st3"/><path d="M22.2 21.7c0-.7-.6-1.3-1.3-1.3h-6.2c-.7 0-1.3.6-1.3 1.3v6.2c0 .7.6 1.3 1.3 1.3h6.2c.7 0 1.3-.6 1.3-1.3v-6.2zm-4.9 5.6l-2.5-2.4.9-1 1.5 1.4 2.5-2.6 1 .9-3.4 3.7z" class="st4"/><path d="M24.5 22.7h7.3m-7.3 2.1h11.6m-11.6 2.1h11.6" class="st3"/><path fill="none" stroke="#031326" stroke-miterlimit="10" stroke-width=".75" d="M20.8 39.5h-6.2c-.7 0-1.3-.6-1.3-1.3V32c0-.7.6-1.3 1.3-1.3h6.2c.7 0 1.3.6 1.3 1.3v6.2c.1.7-.5 1.3-1.3 1.3z"/><path d="M20.2 33.6l-1-1-1.5 1.5-1.4-1.5-1 1 1.5 1.4-1.5 1.5 1 1 1.4-1.5 1.5 1.5 1-1-1.5-1.5z" class="st4"/><path d="M24.5 32.9h7.3M24.5 35h11.6m-11.6 2.1h11.6" class="st3"/></svg>