<?xml version="1.0" encoding="utf-8"?>
<!-- Generator: Adobe Illustrator 27.3.1, SVG Export Plug-In . SVG Version: 6.00 Build 0)  -->
<svg version="1.1" id="Camada_3" xmlns="http://www.w3.org/2000/svg" xmlns:xlink="http://www.w3.org/1999/xlink" x="0px" y="0px"
	 viewBox="0 0 50 50" style="enable-background:new 0 0 50 50;" xml:space="preserve">
<style type="text/css">
	.st0{fill:#FDCF72;}
	.st1{fill:#FCC34F;}
	.st2{fill:none;stroke:#444444;stroke-width:2.5;stroke-linecap:round;stroke-linejoin:round;stroke-miterlimit:10;}
	.st3{fill:none;stroke:#444444;stroke-linecap:round;stroke-linejoin:round;stroke-miterlimit:10;}
</style>
<g>
	<g>
		<path class="st0" d="M40.98,14.24h-7.02L33.6,8.5c1.71-2.69-0.17-5.15-2.52-5.98c-1.25-0.44-7.2,5.76-2.61,5.4l-0.18,6.33H7.68
			v14.14l34.99-12.45v0C42.67,15,41.91,14.24,40.98,14.24z"/>
		<path class="st1" d="M7.68,28.38V45.2c0,1,0.99,1.7,1.94,1.37L42.67,34.8V15.93L7.68,28.38z"/>
	</g>
	<path class="st2" d="M42.08,40.92V18.13c0-2.49-2.01-4.5-4.5-4.5h-2.75h-1.74V8.5h4.18l-6.32-6.71L24.79,8.5h3.96v5.14h-1.18H12
		c-2.49,0-4.5,2.01-4.5,4.5v25.59c0,2.49,2.01,4.5,4.5,4.5h23.31"/>
	<polyline class="st3" points="35.25,47.7 35.25,41.34 31.89,41.34 31.89,45.86 27.57,45.86 27.57,29.64 19.83,29.64 19.83,27.18 
		29.37,27.18 29.37,22.2 15.09,22.2 15.09,17.52 29.38,17.45 29.38,27.18 	"/>
	<polyline class="st3" points="7.77,37.14 14.85,37.14 14.85,43.98 22.89,43.98 22.89,39.72 17.85,39.72 17.85,36.84 23.25,36.84 
		23.25,34.38 10.77,34.38 10.77,29.19 15.09,29.19 15.09,25 8.19,25 8.19,17.52 12.81,17.52 12.81,22.2 7.33,22.2 	"/>
	<polyline class="st3" points="42.08,17.52 33.5,17.52 33.5,19.94 37.05,19.94 37.05,28.45 31.95,28.45 31.95,35.6 34.53,35.6 
		34.53,38.44 39.39,38.44 39.39,41.46 42.25,41.46 	"/>
	<polyline class="st3" points="41.43,30.75 34.77,30.75 34.77,32.61 42.25,32.61 	"/>
	<polyline class="st3" points="7.5,40.86 11.31,40.86 11.31,46.86 	"/>
</g>
</svg>
