<?xml version="1.0" encoding="utf-8"?>
<!-- Generator: Adobe Illustrator 27.5.0, SVG Export Plug-In . SVG Version: 6.00 Build 0)  -->
<svg version="1.1" id="Camada_3" xmlns="http://www.w3.org/2000/svg" xmlns:xlink="http://www.w3.org/1999/xlink" x="0px" y="0px"
	 viewBox="0 0 50 50" style="enable-background:new 0 0 50 50;" xml:space="preserve">
<style type="text/css">
	.st0{fill:#00DFFC;}
	.st1{fill:#00C8E2;}
	.st2{fill:none;stroke:#444444;stroke-width:2.5;stroke-linecap:round;stroke-linejoin:round;stroke-miterlimit:10;}
	.st3{fill:none;stroke:#444444;stroke-linecap:round;stroke-linejoin:round;stroke-miterlimit:10;}
	.st4{fill:none;stroke:#444444;stroke-width:2.5;stroke-miterlimit:10;}
	.st5{fill:none;stroke:#454444;stroke-width:0.5;stroke-linecap:round;stroke-linejoin:round;stroke-miterlimit:10;}
	.st6{fill:none;stroke:#454444;stroke-linecap:round;stroke-linejoin:round;stroke-miterlimit:10;}
</style>
<g>
	<g>
		<g>
			<path class="st0" d="M36.6,9.7L8.9,9.5c-1.1,0-5.8,3.8-5.8,4.9l-0.6,9.8l41.3-14l-2,0.1C41.8,9.2,37.8,9.7,36.6,9.7z"/>
			<path class="st1" d="M2.5,24.1L2.4,37.6c0.3,1.9,4,4.5,5.9,4.7l9.8,1.1l30.4-10.8V16.1c0-4.1-4-6.9-7.9-5.5L2.5,24.1z"/>
			<path class="st2" d="M2.4,21"/>
		</g>
	</g>
	<g>
		<g>
			<path class="st3" d="M14.7,22.3H3.3V22v-5.7c0-3.1,2.5-5.6,5.6-5.6h32.7c3.1,0,5.6,2.5,5.6,5.6V22v0.2H37"/>
			<path class="st4" d="M16.8,10.8V7c0-1.4,1.4-2.5,3.1-2.5h10.7c1.7,0,3.1,1.1,3.1,2.5v3.8"/>
		</g>
		<path class="st2" d="M40.5,43.4H17.2h-6.9c-4.5,0-8.1-3.6-8.1-8.1V17.4c0-4.5,3.6-8.1,8.1-8.1h29.9c4.5,0,8.1,3.6,8.1,8.1v14.5"/>
	</g>
	<circle class="st5" cx="11.4" cy="27.6" r="3.4"/>
	<circle class="st5" cx="20.2" cy="20.1" r="3.4"/>
	<circle class="st5" cx="31.1" cy="24" r="3.4"/>
	<circle class="st5" cx="39.2" cy="16.5" r="3.4"/>
	<line class="st5" x1="14" y1="25.4" x2="17.4" y2="22.2"/>
	<line class="st5" x1="23.3" y1="21.5" x2="27.8" y2="24"/>
	<line class="st5" x1="34.2" y1="22.1" x2="36.9" y2="19.2"/>
	<line class="st6" x1="11.3" y1="33.3" x2="11.3" y2="43.5"/>
	<line class="st6" x1="20.8" y1="25.3" x2="20.8" y2="43.5"/>
	<line class="st6" x1="31.4" y1="29.3" x2="31.4" y2="43.5"/>
	<line class="st6" x1="40.1" y1="23.4" x2="40.1" y2="43.4"/>
</g>
</svg>
