<?xml version="1.0" encoding="utf-8"?>
<!-- Generator: Adobe Illustrator 27.3.1, SVG Export Plug-In . SVG Version: 6.00 Build 0)  -->
<svg version="1.1" id="Camada_3" xmlns="http://www.w3.org/2000/svg" xmlns:xlink="http://www.w3.org/1999/xlink" x="0px" y="0px"
	 viewBox="0 0 50 50" style="enable-background:new 0 0 50 50;" xml:space="preserve">
<style type="text/css">
	.st0{fill:#F799FF;}
	.st1{fill:#E589EF;}
	.st2{fill:none;stroke:#444444;stroke-linecap:round;stroke-linejoin:round;stroke-miterlimit:10;}
	.st3{fill:none;stroke:#444444;stroke-width:0.5;stroke-linecap:round;stroke-linejoin:round;stroke-miterlimit:10;}
	.st4{fill:none;stroke:#444444;stroke-width:2.5;stroke-linecap:round;stroke-linejoin:round;stroke-miterlimit:10;}
	.st5{fill:#444444;}
</style>
<g>
	<g>
		<path class="st0" d="M42.95,8.33L8.09,9.01c-1.06,0-1.93,0.86-1.93,1.93L5.85,24.31l0,0l39.03-13.89v-0.17
			C44.88,9.19,44.02,8.33,42.95,8.33z"/>
		<path class="st1" d="M6.02,32.28l-3.84,4.91c-0.78,1.28-0.17,3.49,1.33,3.55h22l19.37-6.89V10.42L5.85,24.31L6.02,32.28z"/>
	</g>
	<g>
		<path class="st2" d="M3.07,37.59l45.38,0c0,0,0.78,0,0.78-0.79"/>
		<line class="st2" x1="7.12" y1="14.86" x2="43.9" y2="14.86"/>
		<line class="st2" x1="7.12" y1="33" x2="43.9" y2="33"/>
		<g>
			<line class="st3" x1="25.11" y1="35.29" x2="26.03" y2="35.29"/>
			<line class="st3" x1="28.33" y1="35.29" x2="29.25" y2="35.29"/>
			<line class="st3" x1="21.89" y1="35.29" x2="22.81" y2="35.29"/>
		</g>
		<path class="st4" d="M48.46,36.76L45,32.91V12.54c0-1.95-1.58-3.53-3.53-3.53H9.55c-1.95,0-3.53,1.58-3.53,3.53v20.37L1.63,37.8
			h0.01c-0.14,0.04-0.25,0.16-0.25,0.32l0,1.02c0,0.96,0.78,1.74,1.74,1.74h38.11"/>
		<circle class="st5" cx="25.57" cy="12.53" r="1.04"/>
		<g>
			<path class="st2" d="M16.55,25.74l6.64-4.85c0.63-0.46,1.52-0.35,2.01,0.26l0.73,0.9c0.5,0.61,1.38,0.72,2.01,0.26l6.63-4.84"/>
			<g>
				<line class="st3" x1="16.82" y1="28.89" x2="16.82" y2="29.88"/>
				<line class="st3" x1="19.33" y1="27.37" x2="19.33" y2="29.88"/>
				<line class="st3" x1="21.83" y1="25.55" x2="21.83" y2="29.88"/>
				<line class="st3" x1="24.33" y1="23.73" x2="24.33" y2="29.88"/>
				<line class="st3" x1="26.83" y1="26.46" x2="26.83" y2="29.88"/>
				<line class="st3" x1="29.33" y1="24.94" x2="29.33" y2="29.88"/>
				<line class="st3" x1="31.83" y1="23.12" x2="31.83" y2="29.88"/>
				<line class="st3" x1="34.33" y1="21.3" x2="34.33" y2="29.88"/>
				<line class="st3" x1="16.91" y1="29.88" x2="34.33" y2="29.88"/>
			</g>
		</g>
	</g>
</g>
</svg>
