<?xml version="1.0" encoding="utf-8"?>
<!-- Generator: Adobe Illustrator 27.5.0, SVG Export Plug-In . SVG Version: 6.00 Build 0)  -->
<svg version="1.1" id="Camada_3" xmlns="http://www.w3.org/2000/svg" xmlns:xlink="http://www.w3.org/1999/xlink" x="0px" y="0px"
	 viewBox="0 0 50 50" style="enable-background:new 0 0 50 50;" xml:space="preserve">
<style type="text/css">
	.st0{fill:#FDCF72;}
	.st1{fill:#FCC34F;}
	.st2{fill:none;stroke:#444444;stroke-linecap:round;stroke-linejoin:round;stroke-miterlimit:10;}
	.st3{fill:none;stroke:#444444;stroke-width:0.5;stroke-miterlimit:10;}
	.st4{fill:none;stroke:#444444;stroke-miterlimit:10;}
	.st5{fill:none;stroke:#444444;stroke-width:2.5;stroke-linecap:round;stroke-linejoin:round;stroke-miterlimit:10;}
</style>
<g>
	<g>
		<g>
			<path class="st0" d="M37.1,2.5l-6.7-0.7c-0.2-0.1-0.6,3.9-0.7,3.7c-2.6-2.4-4.4,0.7-7.8,3.1c-0.3,0.2-8-0.4-8.3-0.3l-7.7,3.1
				C5.2,11.9,2,17.1,2,18c-0.1,3,0.5,7,1.2,6.8l40.4-14.6c1-0.3,2.8-3.9-1.9-6.1l-3.5,0.4C38.1,4.5,37.1,2.5,37.1,2.5z"/>
			<path class="st1" d="M2.7,24.7l-0.4,8.3c4.1-1.5,11.6-0.5,15.2,0.4l2.8,7.8l-0.6,5.6l27-9.6c3.9-1.4-4.7-10.8-4-11.3
				c4.1-3.2,1.1-7.8,4.5-8.1c1.1-0.1,0.5-4.7-0.3-5.4l-2.9-2.6L2.7,24.7z"/>
		</g>
	</g>
	<g>
		<path class="st2" d="M19.9,32c-1.6,0.4-3.6,0.4-4.1,0.4c-2.7,0-5.2-0.7-7.3-1.9l-6.1,1.9L4.5,27c-1.4-1.8-2.2-4-2.2-6.4
			c0-6.5,6-11.8,13.5-11.8c3.5,0,6.3,1.2,8.7,3.1"/>
		<path class="st2" d="M46.4,35.5c0-4.7-3.7-8.8-8.7-10.5"/>
		<path class="st2" d="M26.3,25.1c-4,2-6.9,6-6.9,10.4c0,2.3,0.8,4.5,2.1,6.3L19.2,47l6.3-1.6c2.1,1.2,4.4,2.4,7.1,2.4
			c2.7,0,5.7-0.7,7.9-1.9"/>
		<g>
			<path class="st3" d="M31.6,41.6c-0.2,0-0.5-0.1-0.7-0.3l-4.4-4c-0.4-0.4-0.4-1-0.1-1.4c0.2-0.2,0.5-0.3,0.7-0.3
				c0.2,0,0.5,0.1,0.7,0.3l3.7,3.3l7.9-7.5c0.2-0.2,0.4-0.3,0.7-0.3c0.3,0,0.5,0.1,0.7,0.3c0.4,0.4,0.4,1,0,1.4l-8.6,8.1
				C32.1,41.5,31.8,41.6,31.6,41.6z"/>
		</g>
		<g>
			<ellipse class="st3" cx="15.2" cy="20.7" rx="1.4" ry="1.4"/>
			<ellipse class="st3" cx="19.1" cy="20.7" rx="1.4" ry="1.4"/>
			<ellipse class="st3" cx="11.3" cy="20.7" rx="1.4" ry="1.4"/>
		</g>
		<path class="st4" d="M34.8,28c0.9,0,1.7-0.2,2.5-0.4L37.3,25c0.9-0.3,1.7-0.7,2.5-1.2l1.9,1.6c1.4-1,2.6-2.1,3.5-3.6l-1.9-1.8
			c0.4-0.8,0.8-1.7,1-2.7l2.6-0.1c0.1-0.8,0.2-1.7,0.2-2.6c0-0.9-0.2-1.7-0.4-2.5l-2.6,0.1c-0.3-0.9-0.7-1.8-1.2-2.6l1.8-1.9
			c-1-1.4-2.3-2.6-3.8-3.5l-1.8,1.9c-0.8-0.4-1.7-0.8-2.7-1l-0.1-2.6c-0.8-0.1-1.7-0.2-2.6-0.2c-0.9,0-1.7,0.2-2.5,0.4l0.1,2.6
			c-0.8,0.3-1.8,0.7-2.6,1.2l-1.9-1.8c-1.2,1-2.6,2.3-3.5,3.8l1.9,1.8c-0.4,0.8-0.8,1.7-1,2.7l-2.6,0.1c-0.1,0.8-0.2,1.7-0.2,2.6
			c0,0.9,0.2,1.7,0.4,2.5l2.6-0.1c0.1,0.8,0.7,1.8,1.2,2.6l-1.8,1.9c1,1.4,2.6,2.7,3.8,3.5l1.8-1.9c0.7,0.3,1.7,0.8,2.7,1l0.1,2.6
			C33.1,28,34,28,34.8,28z"/>
		<circle class="st3" cx="34.3" cy="15.2" r="3.1"/>
		<path class="st5" d="M47,36.7c0.2-1.5,0.1-3.1-0.4-4.6c-1.2-3.6-5.7-6.6-6.4-7.1c-0.1-0.1,1.5,1.2,1.7,1.1
			c1.6-0.3,4.5-4.3,4.3-4.5l-1.6-1.9l0.4-1.7l2.6-0.1c0,0,1-4.2-0.5-7.1l-2.3,0.4l-0.8-1.7l1.7-2c0,0-2.3-3.9-4.8-4.5l-1.7,1.8
			l-1.8-0.5L37.1,2c0,0-5.1-0.8-6.7,0.3v2.5l-1.5,0.7l-2-1.7c0,0-3.7,1.9-4.7,4.9l1.8,1.7c0,0-4.6-3.6-12.7-1.7
			c-3,0.7-5.2,2.5-6.7,4.1c-2.7,3-3.6,6.1-2.8,10.1c0.2,1.2,1,3.4,1.8,4.2L2,31.3c-0.4,0.9,0.5,1.8,1.5,1.5l5-1.5
			c0,0,3,2.2,10.2,1.9c0,0-1.4,4.5,1.9,8.8l-1.7,3.6c-0.5,1,0.4,2.1,1.5,1.9l5.1-1.2c6.9,4.3,12.7,1.4,15,0"/>
	</g>
</g>
</svg>
