<?xml version="1.0" encoding="utf-8"?>
<!-- Generator: Adobe Illustrator 27.3.1, SVG Export Plug-In . SVG Version: 6.00 Build 0)  -->
<svg version="1.1" id="Camada_3" xmlns="http://www.w3.org/2000/svg" xmlns:xlink="http://www.w3.org/1999/xlink" x="0px" y="0px"
	 viewBox="0 0 50 50" style="enable-background:new 0 0 50 50;" xml:space="preserve">
<style type="text/css">
	.st0{fill:#F56991;}
	.st1{fill:#DC5E82;}
	.st2{fill:none;stroke:#444444;stroke-linecap:round;stroke-linejoin:round;stroke-miterlimit:10;}
	.st3{fill:none;stroke:#444444;stroke-width:0.5;stroke-linecap:round;stroke-linejoin:round;stroke-miterlimit:10;}
	.st4{fill:none;stroke:#444444;stroke-miterlimit:10;}
	.st5{fill:none;stroke:#444444;stroke-width:2.5;stroke-linecap:round;stroke-miterlimit:10;}
	.st6{fill:none;stroke:#444444;stroke-width:2.5;stroke-miterlimit:10;}
</style>
<g>
	<g>
		<path class="st0" d="M42.69,6.9L8.73,5.78c-3.9,0-7.06,3.16-7.06,7.06v10.56L45.28,7.88L42.69,6.9z"/>
		<path class="st1" d="M1.76,20.57l0.51,14.91c9.56,4.27,4.11,3.94,6.62,3.05l3.62,0.03l33.65-11.97c0.98-0.35,0.1,0.15,0-0.88
			V10.92c-0.33-1.35-3.11-4.14-4.44-3.7L1.76,20.57z"/>
	</g>
	<g>
		<path class="st2" d="M47.79,28.41c-1.87-1.83-3.62-2.6-3.62-2.6l-6.59-3.09"/>
		<path class="st2" d="M36.59,25.7l2.93,1.29c1.04,0.46,2.06,0.98,3,1.63c2.03,1.39,3.36,2.84,4.32,4.85"/>
		<polyline class="st2" points="37.58,22.72 40.33,18.53 28.14,20.44 35.62,30.93 36.59,25.7 		"/>
		<line class="st3" x1="25.94" y1="23.04" x2="24.27" y2="23.73"/>
		<line class="st3" x1="28.47" y1="16.91" x2="27.83" y2="15.36"/>
		<line class="st3" x1="25.57" y1="19.19" x2="23.91" y2="18.51"/>
	</g>
	<path class="st4" d="M45.36,31.13v1.57c0,2.06-1.66,3.74-3.72,3.77l-35.1,0.49c-2.1,0.03-3.82-1.67-3.82-3.77V11.43
		c0-2.08,1.69-3.77,3.77-3.77h35.1c2.08,0,3.77,1.69,3.77,3.77v15.04"/>
	<rect x="18.8" y="36.79" class="st4" width="10.76" height="2.96"/>
	<path class="st4" d="M37.43,42.28H10.39c-0.64,0-1.15-0.52-1.15-1.15V40.9c0-0.64,0.52-1.15,1.15-1.15h27.04
		c0.64,0,1.15,0.52,1.15,1.15v0.23C38.58,41.77,38.07,42.28,37.43,42.28z"/>
	<path class="st4" d="M42.83,28.84v1.93c0,0.71-0.57,1.28-1.28,1.28H6.27c-0.71,0-1.28-0.57-1.28-1.28V12.2
		c0-0.71,0.57-1.28,1.28-1.28h35.28c0.71,0,1.28,0.57,1.28,1.28v12.98"/>
	<circle class="st4" cx="23.91" cy="34.54" r="0.94"/>
	<path class="st4" d="M28.89,21.49H13.52c-0.93,0-1.69-0.76-1.69-1.69V15.4c0-0.93,0.76-1.69,1.69-1.69h21.73
		c0.93,0,1.69,0.76,1.69,1.69v3.66"/>
	<path class="st5" d="M46.15,33.82c0,0-0.58,3.98-5.82,3.98c-0.48,0-1.88,0.47-2.38,0.47c-4.38,0-7.35,0-7.35,0"/>
	<path class="st6" d="M18.66,38.53h-7.82c0,0-2.39-0.3-2.39,2.48c0,1.92,1.64,2.24,1.64,2.24l27.11-0.1c0,0,2.39,0.1,2.39-2.14
		c0-2.72-3.58-2.1-3.58-2.1"/>
	<path class="st6" d="M40.33,39.75"/>
	<path class="st5" d="M10.84,38.53c-4.62,0-6.55,0-8.12-2.24c-1.18-1.68-1.05-4.25-1.05-4.25s0.12-12.9,0.12-19.68
		c0-5.42,3.96-5.53,3.96-5.53S37.76,6.69,41.8,6.8c4.04,0.11,4.35,4.12,4.35,4.12V25.7l2.18,2.18"/>
</g>
</svg>
