<?xml version="1.0" encoding="utf-8"?>
<!-- Generator: Adobe Illustrator 27.3.1, SVG Export Plug-In . SVG Version: 6.00 Build 0)  -->
<svg version="1.1" id="Camada_3" xmlns="http://www.w3.org/2000/svg" xmlns:xlink="http://www.w3.org/1999/xlink" x="0px" y="0px"
	 viewBox="0 0 50 50" style="enable-background:new 0 0 50 50;" xml:space="preserve">
<style type="text/css">
	.st0{fill:#00DFFC;}
	.st1{fill:#00C8E2;}
	.st2{fill:none;stroke:#444444;stroke-miterlimit:10;}
	.st3{fill:none;stroke:#444444;stroke-width:2.5;stroke-linecap:round;stroke-miterlimit:10;}
	.st4{fill:none;stroke:#444444;stroke-width:2.5;stroke-miterlimit:10;}
	.st5{fill:none;stroke:#444444;stroke-linecap:round;stroke-miterlimit:10;}
	.st6{fill:#444444;}
	.st7{fill:none;stroke:#444444;stroke-width:0.5;stroke-linecap:round;stroke-linejoin:round;stroke-miterlimit:10;}
	.st8{fill:none;stroke:#444444;stroke-linecap:round;stroke-linejoin:round;stroke-miterlimit:10;}
</style>
<g>
	<g>
		<g>
			<path class="st0" d="M44.72,6.45L8.95,5.27c-4.11,0-7.44,3.33-7.44,7.44v11.12L47.44,7.48L44.72,6.45z"/>
			<path class="st1" d="M1.62,20.85l0.53,15.7c10.07,4.5,4.33,4.15,6.97,3.21l3.81,0.03l35.44-12.61c1.03-0.37,0.1,0.16,0-0.93
				V10.69c-0.35-1.43-3.28-4.36-4.67-3.9L1.62,20.85z"/>
		</g>
		<rect x="19.56" y="38.98" class="st2" width="11.33" height="2.06"/>
		<path class="st2" d="M39.24,43.71h-28.6c-0.64,0-1.15-0.52-1.15-1.15V42.2c0-0.64,0.52-1.15,1.15-1.15h28.6
			c0.64,0,1.15,0.52,1.15,1.15v0.36C40.39,43.19,39.88,43.71,39.24,43.71z"/>
		<path class="st2" d="M44.87,29.55v2.04c0,0.74-0.6,1.35-1.35,1.35H6.36c-0.74,0-1.35-0.6-1.35-1.35V12.03
			c0-0.74,0.6-1.35,1.35-1.35h37.16c0.74,0,1.35,0.6,1.35,1.35V25.7V29.55z"/>
		<circle class="st2" cx="24.94" cy="35.56" r="0.99"/>
		<path class="st3" d="M48.37,34.8c0,0-0.86,4.95-6.39,4.95c-0.5,0-1.98,0-2.51,0c-4.61,0-7.74,0-7.74,0"/>
		<path class="st4" d="M19.42,39.76h-8.24c0,0-2.51-0.31-2.51,2.61c0,2.02,1.72,2.36,1.72,2.36l28.55-0.1c0,0,2.51,0.1,2.51-2.26
			c0-2.86-3.77-2.22-3.77-2.22"/>
		<path class="st4" d="M42.24,41.04"/>
		<path class="st3" d="M11.18,39.76c-4.87,0-6.9,0-8.55-2.36c-1.25-1.77-1.1-4.47-1.1-4.47S1.65,19.35,1.65,12.2
			c0-5.71,4.17-5.82,4.17-5.82s33.71-0.15,37.97-0.03s4.58,4.34,4.58,4.34v15.57"/>
		<line class="st5" x1="30.89" y1="38.98" x2="43.32" y2="38.98"/>
	</g>
	<g>
		<g>
			<g>
				<circle class="st6" cx="38.18" cy="14.05" r="1.33"/>
			</g>
		</g>
	</g>
	<path class="st2" d="M34.91,10.73l-2.82,6.45c-0.35,0.8,0.24,1.7,1.11,1.7h1.71v2.46c0,0.22,0.18,0.4,0.4,0.4h2.72
		c0,0,0.64,4.27-2.57,4.23v0c0,1.46,1.19,2.65,2.65,2.65h3.87v4.32"/>
	<path class="st7" d="M27.55,18.9c-0.88,1.51-1.38,3.27-1.38,5.15c0,2.93,1.23,5.57,3.19,7.44"/>
	<path class="st7" d="M31.95,21.63c-0.44,0.76-0.69,1.64-0.69,2.57c0,1.46,0.61,2.78,1.6,3.72"/>
	<path class="st7" d="M29.82,20.31c-0.63,1.08-0.98,2.32-0.98,3.66c0,2.08,0.87,3.96,2.27,5.28"/>
	<line class="st8" x1="8.12" y1="14.05" x2="17.36" y2="14.05"/>
	<line class="st7" x1="8.12" y1="17.8" x2="19.92" y2="17.8"/>
	<line class="st7" x1="8.12" y1="19.69" x2="20.68" y2="19.69"/>
	<line class="st7" x1="8.12" y1="21.59" x2="20.68" y2="21.59"/>
	<line class="st7" x1="8.12" y1="23.48" x2="19.4" y2="23.48"/>
	<line class="st7" x1="8.12" y1="25.38" x2="21.39" y2="25.38"/>
	<line class="st7" x1="8.12" y1="27.27" x2="21.01" y2="27.27"/>
	<line class="st7" x1="8.12" y1="29.17" x2="16.7" y2="29.17"/>
</g>
</svg>
