<?xml version="1.0" encoding="utf-8"?>
<!-- Generator: Adobe Illustrator 27.3.1, SVG Export Plug-In . SVG Version: 6.00 Build 0)  -->
<svg version="1.1" id="Camada_3" xmlns="http://www.w3.org/2000/svg" xmlns:xlink="http://www.w3.org/1999/xlink" x="0px" y="0px"
	 viewBox="0 0 50 50" style="enable-background:new 0 0 50 50;" xml:space="preserve">
<style type="text/css">
	.st0{fill:#00DFFC;}
	.st1{fill:#00C8E2;}
	.st2{fill:#444444;stroke:#444444;stroke-miterlimit:10;}
	.st3{fill:none;stroke:#444444;stroke-width:0.5;stroke-miterlimit:10;}
	.st4{fill:none;stroke:#444444;stroke-miterlimit:10;}
	.st5{fill:#444444;}
	.st6{fill:none;stroke:#444444;stroke-width:0.5;stroke-linecap:round;stroke-linejoin:round;stroke-miterlimit:10;}
	.st7{fill:none;stroke:#444444;stroke-width:2.5;stroke-linecap:round;stroke-miterlimit:10;}
</style>
<g>
	<g>
		<g>
			<polygon class="st0" points="36.29,4.42 43.71,10.02 45.67,16.85 1.75,32.87 2.66,18.97 8.54,8.61 22.59,2.18 			"/>
			<polygon class="st1" points="47.87,20.96 48.37,29.93 9.47,43.92 6.8,41.4 3.82,36.05 1.64,27.95 44.22,11.59 46.4,15.83 			"/>
		</g>
	</g>
	<line class="st2" x1="13.64" y1="25.73" x2="13.64" y2="20.6"/>
	<circle class="st3" cx="13.64" cy="17.58" r="2.76"/>
	<path class="st4" d="M34.51,25.73h1.2c1.88,0,3.41,1.53,3.41,3.41V43.5c0,1.88-1.53,3.41-3.41,3.41H14.29
		c-1.88,0-3.41-1.53-3.41-3.41V29.13c0-1.88,1.53-3.41,3.41-3.41h17.28"/>
	<path class="st4" d="M10.88,39.93h-0.83c-1.75,0-3.17-1.42-3.17-3.17v-2.73c0-1.75,1.42-3.17,3.17-3.17h0.83V39.93z"/>
	<path class="st4" d="M39.12,39.93h0.83c1.75,0,3.17-1.42,3.17-3.17v-2.73c0-1.75-1.42-3.17-3.17-3.17h-0.83V39.93z"/>
	<circle class="st5" cx="19.22" cy="34.32" r="1.77"/>
	<circle class="st5" cx="23.22" cy="16.21" r="1.4"/>
	<circle class="st5" cx="28.72" cy="16.21" r="1.4"/>
	<circle class="st5" cx="34.22" cy="16.21" r="1.4"/>
	<circle class="st5" cx="30.42" cy="34.32" r="1.77"/>
	<path class="st6" d="M20.26,39.82c0,0,4.63,4.48,9.11,0"/>
	<path class="st6" d="M35,8.6H22.44c-2,0-3.62,1.62-3.62,3.62v7.32c0,2,1.62,3.62,3.62,3.62h7.52l4.54,7.26v-7.26H35
		c2,0,3.62-1.62,3.62-3.62v-7.32C38.62,10.23,37,8.6,35,8.6z"/>
	<path class="st7" d="M39.91,45.04c0,0-1.62,2.78-3.59,2.78c0,0-19.52,0-22.41,0s-4-3.19-4-3.19c-5.72-4.3-8.46-11.2-8.46-18.91
		C1.45,12.72,12,2.18,25,2.18s23.55,10.54,23.55,23.55c0,2.55-0.26,5-0.8,7.3"/>
</g>
</svg>
