<svg xmlns="http://www.w3.org/2000/svg" version="1" viewBox="0 0 50 50"><path fill="#46B8B0" d="M41.366 25.53l.43-.812 7.11-18.023a.437.437 0 00-.17-.527l-6.98-4.52a.29.29 0 00-.325.004l-8.883 6.166a.433.433 0 00-.147.176L25 23.97 17.6 7.994a.456.456 0 00-.146-.176L8.57 1.652a.292.292 0 00-.325-.005L1.265 6.17a.434.434 0 00-.17.525L12.62 35.917 41.366 25.53z"/><path fill="#4ECDC4" d="M7.308 22.45l14.537-5.29L17.6 7.994a.456.456 0 00-.146-.176L8.57 1.65a.292.292 0 00-.325-.005L1.265 6.17a.434.434 0 00-.17.525L7.308 22.45zM48.623 7.412l.283-.716a.437.437 0 00-.17-.527l-6.98-4.522a.29.29 0 00-.324.005L32.548 7.82a.433.433 0 00-.147.175l-2.964 6.402 19.187-6.985z"/><path fill="#031326" d="M25 49.417l-9.812-5.172a1.46 1.46 0 01-.674-.754L.15 7.07a1.458 1.458 0 01.56-1.755L7.69.795c.45-.29 1.02-.28 1.457.022l8.883 6.167c.212.147.38.348.49.58L25 21.555l6.477-13.987c.11-.234.278-.435.49-.582L40.85.818a1.303 1.303 0 011.456-.025l6.983 4.522c.578.375.814 1.112.56 1.753L42.744 25.09a1.016 1.016 0 01-1.89-.745l6.933-17.582-6.175-4-8.355 5.8L25 26.39 16.745 8.564l-8.356-5.8-6.176 4 14.113 35.784L25 47.118l5.49-2.893a1.017 1.017 0 01.948 1.798L25 49.417zm-8.595-6.67z"/></svg>