<svg xmlns="http://www.w3.org/2000/svg" version="1.0" viewBox="0 0 50 50"><path fill="#46B8B0" d="M47.792 7.338v19.538L4.432 42.664H2.208V7.338z"/><path fill="#4ECDC4" d="M47.792 7.338v3.447L2.208 27.379V7.338z"/><g fill="#031326"><path d="M.958 6.085v37.83h25.217a1.25 1.25 0 0 0 0-2.5H3.458V8.585h43.081v18.29a1.25 1.25 0 0 0 2.5 0V6.085H.958z"/><path d="M31.079 26.347c0-.765-.38-1.149-1.141-1.153h-1.55v2.2h1.45c.399 0 .706-.091.92-.274s.321-.441.321-.773zm-.504-2.869c.206-.172.309-.428.309-.765 0-.388-.111-.667-.334-.837-.223-.171-.582-.256-1.078-.256h-1.084v2.124h1.153c.484-.004.828-.092 1.034-.266z"/><path d="M5.312 39.761h39.375V14.279H5.312v25.482zm26.011-4.438h-.59l-2.242-3.432v3.432h-.59V30.87h.59l2.248 3.447V30.87h.584v4.453zm4.297-4.453h3.444v.48h-1.431v3.973h-.584V31.35H35.62v-.48zm-.737 1.915v.48h-1.93v1.578h2.242v.48h-2.829V30.87h2.798v.48h-2.211v1.434l1.93.001zm-8.707-12.866h3.296c1.181 0 2.079.216 2.694.649.616.433.923 1.061.923 1.885 0 .475-.109.88-.328 1.216-.218.336-.54.584-.964.744.479.126.847.361 1.103.706.256.344.385.765.385 1.26 0 .899-.285 1.575-.854 2.026-.569.452-1.413.682-2.53.69h-3.725v-9.176zm.087 14.863c.058-.065.145-.098.262-.098.116 0 .204.033.265.098s.09.147.09.245c0 .094-.03.172-.09.235s-.148.095-.265.095c-.116 0-.203-.032-.262-.095a.335.335 0 0 1-.087-.235c0-.098.029-.18.087-.245zm-7.099-14.863l1.821 6.681 1.828-6.681h2.471l-3.088 9.177h-2.42l-3.063-9.177h2.451zm22.202-7.46l1.218-1.219 1.219 1.219.177-.177-1.218-1.219 1.218-1.219-.177-.176-1.219 1.218-1.218-1.218-.178.176 1.219 1.219-1.219 1.219z"/></g></svg>