<svg xmlns="http://www.w3.org/2000/svg" viewBox="0 0 50 50"><path fill="#04ad49" d="M22.8 32.6l5.5 1.7-4.7 3.3.1 5.8-4.6-3.4-5.5 1.8 1.9-5.4-3.5-4.7 5.8.1 3.3-4.7z"/><path fill="#22dd6d" d="M46.8 16.4l-11.4-.9-5.6 6.9-17.2-.1C14 6.2 8.7 3 8.7 6.7l-.9 21.4-3.6 1.4L2 45.8c3.2.2 11.4 2.1 14.4 1.1l31.5-11.2c.8-.6 0-16.9-1.1-19.3z"/><path fill="#444" d="M48.7 18.1c0-1.1-.4-2.1-1.2-2.8s-1.7-1.2-2.9-1.2l-7.6.1c-1.3 0-2.4.6-3.2 1.6l-4.2 5.6H13.9V7.2c0-2-1.7-3.7-3.7-3.7S6.5 5.2 6.5 7.2v20.5H4.6c-.9 0-1.6.7-1.6 1.6l-.1 3.4L.7 45.2c-.1.6.1 1.2.5 1.7s1 .7 1.6.7h15.5c.6 0 1.2-.3 1.6-.7.2-.3.3-.7.4-1.1H40c.8 0 1.5-.6 1.5-1.5 0-.8-.6-1.5-1.5-1.5l-21.2-.1h-1.6l-1.3-9.1c0-.1 0-.2-.1-.2v-3.1c0-.4-.3-.8-.7-.8h-3.3v-1.2h34L46 38c0 .8.7 1.4 1.5 1.4s1.4-.7 1.4-1.5l-.2-19.8zM9.4 8.2c0-1 .4-1.6.6-1.6s.6.6.6 1.6v20.9H9.4V8.2zm7 36.5h-2.6l-.5-5.9c0-.3-.3-.5-.6-.5s-.6.3-.5.6l.5 5.8h-2l.1-5.8c0-.3-.3-.6-.6-.6s-.6.3-.6.6l-.1 5.8H7.4l.8-5.9c0-.3-.2-.6-.5-.7-.3-.1-.6.2-.7.5l-.8 6H3.9l.8-5.7.8-4.5h9.4l1.5 10.3zm-1.7-13.8v2.4h-9V33l.1-2.1h8.9zm-2.8-3.1v-3.6H30c.7 0 1.4-.4 1.8-.9l4.4-5.8c.2-.3.5-.4.9-.4l7.6-.1c.3 0 .6.1.8.3.2.2.3.5.3.8l.1 9.7h-34z"/></svg>