<?xml version="1.0" encoding="utf-8"?>
<!-- Generator: Adobe Illustrator 28.2.0, SVG Export Plug-In . SVG Version: 6.00 Build 0)  -->
<svg version="1.1" id="Layer_1" xmlns="http://www.w3.org/2000/svg" xmlns:xlink="http://www.w3.org/1999/xlink" x="0px" y="0px"
	 viewBox="0 0 50 50" style="enable-background:new 0 0 50 50;" xml:space="preserve">
<style type="text/css">
	.st0{fill:#8256D8;}
	.st1{fill:#A475EF;}
	.st2{fill:none;stroke:#444444;stroke-linecap:round;stroke-linejoin:round;stroke-miterlimit:10;}
	.st3{fill:none;stroke:#444444;stroke-width:2;stroke-linecap:round;stroke-linejoin:round;stroke-miterlimit:10;}
	.st4{fill:none;stroke:#444444;stroke-linecap:round;stroke-linejoin:round;}
	.st5{fill:none;stroke:#444444;stroke-width:0.5;stroke-linecap:round;stroke-linejoin:round;}
</style>
<g>
	<polygon class="st0" points="27.3,18.6 35.1,21.1 28.4,25.8 28.5,34 21.9,29.1 14.2,31.8 16.8,24 11.9,17.4 20.1,17.5 24.8,10.8 	
		"/>
	<g>
		<g>
			<path class="st1" d="M48.6,18.6L49,9.8c0-1-0.8-1.9-1.9-1.8l-3.8,0.2c-0.1,0-0.1,0-0.2,0l-3.7-3.4c0,0-2.2-2.1-2.2-2.1
				c-2.9,0-24.2,0.8-29.8,0.3c-2.1-0.2,3.1,2.6-4.6,6.5L2.1,41c0,1,0.8,1.7,1.7,1.8l15.8,0.1c1,0,1.8,0.8,1.7,1.8
				c0,0.7-0.3,1.3-0.9,1.4c-1.4,0.3-4.6,0.8-4.6,0.9l0.4,1c0.3,0.9,1.3,1.4,2.2,1l11.4-4.1l0.1-2.2l4.9,0.4l13.1-4.7
				c0.6-0.2,0.1-0.4,0.2-1c0.6-3.7,1.1-16,0.3-18.4C48.6,19,48.6,18.8,48.6,18.6z"/>
			<g>
				<g>
					<g id="XMLID_00000074428347251316483810000001313237440413175462_">
						<g>
							<line class="st2" x1="29.9" y1="45.7" x2="29.9" y2="43.2"/>
							<line class="st2" x1="21" y1="46.2" x2="21" y2="42.8"/>
							<line class="st2" x1="2.4" y1="37.7" x2="44.5" y2="37.7"/>
						</g>
					</g>
				</g>
				<g>
					<g id="XMLID_00000109713040577566975160000008767877938693330592_">
						<g>
							<line class="st3" x1="39.6" y1="42.7" x2="30" y2="42.7"/>
							<path class="st3" d="M21,42.7H5.8c-2,0-3.7-1.6-3.7-3.7v-1.4V11.2c0-2,1.6-3.7,3.7-3.7l0.8,0l0.1-4.9l30.3,0.1l4.7,4.8l3.2,0
								c2,0,3.7,1.6,3.7,3.7v27.1"/>
							<path class="st3" d="M21,46.2h-5.1v1c0,1.1,0.9,1.9,1.9,1.9h14.6c1.1,0,1.9-0.8,1.9-1.9l0-1h-4.4"/>
							<line class="st3" x1="29.9" y1="46.2" x2="29.9" y2="42.7"/>
							<line class="st3" x1="21" y1="46.2" x2="21" y2="42.8"/>
						</g>
					</g>
				</g>
			</g>
		</g>
		<g>
			<path class="st4" d="M44.1,10.6C44.1,10.6,44.1,10.6,44.1,10.6C44.1,10.6,44.1,10.6,44.1,10.6c0-0.1,0-0.1,0-0.1
				c0,0,0-0.1-0.1-0.1l-6.7-6.7c0,0-0.1,0-0.1-0.1c0,0,0,0,0,0c0,0-0.1,0-0.1,0c0,0,0,0,0,0c0,0,0,0-0.1,0H7.7
				c-0.2,0-0.4,0.2-0.4,0.4v28.4c0,0.2,0.2,0.4,0.4,0.4h36c0.2,0,0.4-0.2,0.4-0.4L44.1,10.6C44.1,10.7,44.1,10.7,44.1,10.6z
				 M37.3,4.1l6.8,6.8h-5.4c-0.8,0-1.4-0.6-1.4-1.4V4.1z M14.1,7.8h14 M14.1,10.6H23"/>
			<rect x="13.7" y="24.4" class="st5" width="7.7" height="4.2"/>
			<rect x="13.7" y="19.1" class="st5" width="7.7" height="4.2"/>
			<rect x="13.7" y="13.8" class="st5" width="7.7" height="4.2"/>
			<rect x="22.5" y="24.4" class="st5" width="7.7" height="4.2"/>
			<rect x="22.5" y="19.1" class="st5" width="7.7" height="4.2"/>
			<rect x="22.5" y="13.8" class="st5" width="7.7" height="4.2"/>
			<rect x="31.2" y="24.4" class="st5" width="7.7" height="4.2"/>
			<rect x="31.2" y="19.1" class="st5" width="7.7" height="4.2"/>
			<rect x="31.2" y="13.8" class="st5" width="7.7" height="4.2"/>
		</g>
	</g>
</g>
</svg>
