<?xml version="1.0" encoding="UTF-8"?>
<svg id="Layer_1" data-name="Layer 1" xmlns="http://www.w3.org/2000/svg" version="1.1" viewBox="0 0 50 50">
  <defs>
    <style>
      .cls-1 {
        fill: #00dffc;
      }

      .cls-1, .cls-2 {
        stroke-width: 0px;
      }

      .cls-3, .cls-4, .cls-5, .cls-6 {
        fill: none;
        stroke: #444;
      }

      .cls-3, .cls-4, .cls-6 {
        stroke-miterlimit: 10;
      }

      .cls-3, .cls-5 {
        stroke-linecap: round;
      }

      .cls-2 {
        fill: #444;
      }

      .cls-5 {
        stroke-linejoin: round;
        stroke-width: 2.5px;
      }

      .cls-6 {
        stroke-width: .5px;
      }
    </style>
  </defs>
  <path class="cls-1" d="M28.6,7.7L2,14.9l6.7,23.2,23.8-8c.7-.4-3.9-22.5-3.9-22.5h0Z"/>
  <g>
    <path class="cls-3" d="M23.5,11.4l2.8-.9"/>
    <circle class="cls-2" cx="6.1" cy="16.8" r=".7"/>
    <circle class="cls-2" cx="8" cy="16.2" r=".7"/>
    <circle class="cls-2" cx="9.8" cy="15.6" r=".7"/>
    <path class="cls-4" d="M7.9,37.3L1.3,15.6c1-.3,1.1-.7,1.5-.8l24.8-7.7c.3,0,.7,0,.8.4l6.7,21.7-26.1,8h-1.1ZM3.8,20.2l26.1-8"/>
    <path class="cls-6" d="M11.9,36.5l-4.2-13.5,20.6-6.3,4.2,13.5M8.6,25.6l20.6-6.3M9.5,28.4l20.6-6.3M10.3,31.1l20.6-6.3M11.2,34l20.6-6.3M11.9,21.7l4.2,13.5M16,20.4l4.2,13.5M20.1,19.1l4.2,13.5M24.3,17.8l4.2,13.5"/>
    <path class="cls-4" d="M35.5,29.2"/>
  </g>
  <g>
    <path class="cls-1" d="M48.2,21.7l-15.3-4.3-11.3-2.6-6.8,26,13.7,2.4,18-6.5c.6-.4,2.6-13.2,1.6-15.1h.1Z"/>
    <circle class="cls-2" cx="23.7" cy="18.2" r=".7"/>
    <circle class="cls-2" cx="25.6" cy="18.7" r=".7"/>
    <circle class="cls-2" cx="27.5" cy="19.1" r=".7"/>
    <path class="cls-4" d="M15.7,39.5l.2-2,5.1-22.2c0-.4.4-.6.8-.5l25.3,5.8c.4,0,.6.4,1.6,1.7l-2.7,12.9M19.9,20l26.6,6.1"/>
    <path class="cls-6" d="M19.4,35.8l2.7-11.5,21,4.8-2.7,11.5M21.4,27l21,4.8M20.8,29.9l21,4.8M20.1,32.7l21,4.8M19.4,35.7l21,4.8M26.2,25.3l-2.7,11.5M30.4,26.3l-2.7,11.5M34.6,27.3l-2.7,11.5M38.9,28.2l-2.7,11.5"/>
  </g>
  <path class="cls-4" d="M120.8,26.7"/>
  <path class="cls-5" d="M37.7,45.5s-20.1-4.7-21.7-5-.7-4.1-.7-4.1c0,0-3.6,1.2-5.9,1.9-1.4.5-1.8-1.2-1.8-1.2,0,0-5.9-19-6.3-20.6s.2-1.7.2-1.7L27.8,6.8l3.6,9.6,14.6,4s3.4.7,2.5,4.7c-1,4.5-2.6,11.4-2.6,11.4"/>
</svg>