<?xml version="1.0" encoding="utf-8"?>
<!-- Generator: Adobe Illustrator 27.5.0, SVG Export Plug-In . SVG Version: 6.00 Build 0)  -->
<svg version="1.1" id="Camada_1" xmlns="http://www.w3.org/2000/svg" xmlns:xlink="http://www.w3.org/1999/xlink" x="0px" y="0px"
	 viewBox="0 0 50 50" style="enable-background:new 0 0 50 50;" xml:space="preserve">
<style type="text/css">
	.st0{fill:#7DF4EB;}
	.st1{fill:none;stroke:#444444;stroke-width:2.5379;stroke-linecap:round;stroke-linejoin:round;stroke-miterlimit:10;}
	.st2{fill:#444444;}
</style>
<path class="st0" d="M47.5,7.9H33.7c-0.1,0-0.2-0.1-0.2-0.2V4.6c0-0.1-0.1-0.2-0.2-0.2L16.7,9.2c-0.1,0-0.2-0.1-0.2-0.2V7.4
	c0-0.7-0.6-1.4-1.4-1.4h-2.3c-0.1,0-0.2-0.1-0.2-0.2V2.5c0-0.1-0.1-0.2-0.2-0.2H6.2C6.1,2.3,6,2.4,6,2.5v4.3C6.1,6.9,6,7,5.9,7H2.3
	C2.2,7,2.2,7.1,2.2,7.2v7.1c0,0.1,0.1,0.2,0.2,0.2h3.5c0.1,0,0.2,0.1,0.2,0.2v4.1c0,0.1,0.1,0.2,0.2,0.2h3c0.1,0,0.2,0.1,0.2,0.2
	v23.5c0,0.1,0.1,0.2,0.1,0.2l12.8,3.5l25.3-9V8.1C47.7,8,47.6,7.9,47.5,7.9z"/>
<path class="st1" d="M30.7,48.4L9.4,42.7c-0.1,0-0.1-0.1-0.1-0.2V19c0-0.1-0.1-0.2-0.2-0.2h-3c-0.1,0-0.2-0.1-0.2-0.2v-4.1
	c0-0.1-0.1-0.2-0.2-0.2H2.2c-0.1,0-0.2-0.1-0.2-0.2v-7C2,7,2.1,6.9,2.2,6.9h3.5c0.1,0,0.2-0.1,0.2-0.2V2.4c0-0.1,0.1-0.2,0.2-0.2
	h6.2c0.1,0,0.2,0.1,0.2,0.2v3.4c0,0.1,0.1,0.2,0.2,0.2H15c0.7,0,1.4,0.6,1.4,1.4V9c0,0.1,0.1,0.2,0.2,0.2l16.6-4.7
	c0.1,0,0.2,0.1,0.2,0.2v3.1c0,0.1,0.1,0.2,0.2,0.2h13.8c0.1,0,0.2,0.1,0.2,0.2v33.4"/>
<g>
	<path class="st2" d="M42.8,11.6H32.6v-0.7c0-0.4-0.2-0.8-0.5-1.1s-0.8-0.3-1.2-0.2l-16.3,4.7c-0.6,0.2-1,0.7-1,1.3v24.2
		c0,0.6,0.4,1.1,1,1.3l16.3,4.7c0.1,0,0.3,0.1,0.4,0.1c0.3,0,0.6-0.1,0.8-0.3c0.3-0.3,0.5-0.7,0.5-1.1v-0.7h10.3
		c0.7,0,1.4-0.6,1.4-1.4V13C44.2,12.2,43.6,11.6,42.8,11.6L42.8,11.6z M31.4,44.5c0,0.1,0,0.1-0.1,0.2c0,0-0.1,0.1-0.2,0L14.8,40
		c-0.1,0-0.1-0.1-0.1-0.2V15.6c0-0.1,0.1-0.2,0.1-0.2l16.3-4.7c0.1,0,0.1,0,0.2,0c0,0,0.1,0.1,0.1,0.2V44.5L31.4,44.5z M43,42.4
		c0,0.1-0.1,0.2-0.2,0.2H32.6v-2.7h6.8c0.3,0,0.6-0.3,0.6-0.6s-0.3-0.6-0.6-0.6h-6.8v-3.5h6.8c0.3,0,0.6-0.3,0.6-0.6
		S39.7,34,39.4,34h-6.8v-3.5h6.8c0.3,0,0.6-0.3,0.6-0.6c0-0.3-0.3-0.6-0.6-0.6h-6.8v-3.5h6.8c0.3,0,0.6-0.3,0.6-0.6
		s-0.3-0.6-0.6-0.6h-6.8v-3.5h6.8c0.3,0,0.6-0.3,0.6-0.6c0-0.3-0.3-0.6-0.6-0.6h-6.8v-3.5h6.8c0.3,0,0.6-0.3,0.6-0.6
		c0-0.3-0.3-0.6-0.6-0.6h-6.8v-2.7h10.3c0.1,0,0.2,0.1,0.2,0.2L43,42.4L43,42.4z M26,29.8c0.2,0.2,0.2,0.6,0,0.8
		c-0.1,0.1-0.3,0.2-0.4,0.2s-0.3-0.1-0.4-0.2l-2.1-2.1l-2,2.2C21,30.9,20.8,31,20.7,31c-0.1,0-0.3,0-0.4-0.1
		c-0.2-0.2-0.3-0.6-0.1-0.8l2-2.3L20,25.7c-0.2-0.2-0.2-0.6,0-0.8c0.2-0.2,0.6-0.2,0.8,0l2.1,2.1l2-2.2c0.2-0.2,0.6-0.3,0.8-0.1
		c0.2,0.2,0.3,0.6,0.1,0.8l-2,2.3L26,29.8L26,29.8z"/>
	<path class="st2" d="M14,10H9.9V6c0-0.1-0.1-0.2-0.2-0.2H9.1C9,5.8,8.9,5.9,8.9,6v4H4.7c-0.1,0-0.2,0.1-0.2,0.2v0.5
		c0,0.1,0.1,0.2,0.2,0.2h4.1v3.9c0,0.1,0.1,0.2,0.2,0.2h0.5c0.1,0,0.2-0.1,0.2-0.2V11H14c0.1,0,0.2-0.1,0.2-0.2v-0.5
		C14.2,10.1,14.1,10,14,10z"/>
</g>
</svg>
