<?xml version="1.0" encoding="utf-8"?>
<!-- Generator: Adobe Illustrator 22.1.0, SVG Export Plug-In . SVG Version: 6.00 Build 0)  -->
<svg version="1.1" id="Layer_1" xmlns="http://www.w3.org/2000/svg" xmlns:xlink="http://www.w3.org/1999/xlink" x="0px" y="0px"
	 viewBox="0 0 50 50" style="enable-background:new 0 0 50 50;" xml:space="preserve">
<style type="text/css">
	.st0{fill:#FDCF72;}
	.st1{fill:#FCC34F;}
	.st2{fill:#444444;}
</style>
<g>
	<circle class="st0" cx="38.2" cy="6.3" r="3.2"/>
</g>
<g>
	<circle class="st1" cx="43" cy="19.5" r="2.3"/>
</g>
<g>
	<polygon class="st1" points="26.8,27.6 5.6,35.4 3.2,30.5 5.7,24.3 4.1,20.2 26.4,11.7 	"/>
</g>
<g>
	<polygon class="st1" points="40.7,9.9 36.5,10.3 35,10.8 36.4,7.8 42.4,5.8 	"/>
</g>
<g>
	<polygon class="st0" points="26.4,11.7 4.1,20.2 4.4,13.2 10.2,6.4 14.7,6 20.5,1.5 26.2,5.3 	"/>
</g>
<path class="st2" d="M43.1,15.2c-1.9,0-3.6,1.3-4.1,3.1H27.6v-3.6h4.9c0.3,0,0.6-0.1,0.9-0.4l3.2-3.2c0.6,0.3,1.3,0.5,2,0.5
	c2.4,0,4.3-1.9,4.3-4.3S40.9,3,38.6,3c-2.4,0-4.3,1.9-4.3,4.3c0,0.7,0.2,1.4,0.5,2l-2.8,2.8h-4.3V7.6c0-0.1,0-0.1,0-0.1
	c-0.3-3.8-3.5-6.7-7.3-6.8c0,0,0,0,0,0c-3,0-5.7,1.8-6.8,4.6C7.2,5.6,2.2,10.8,2.2,17.2c0,2.5,0.8,4.9,2.2,7c-2.5,2.4-3,6.3-1,9.3
	c0.2,0.3,0.4,0.6,0.6,0.8c-1.5,6.1,2.1,12.3,8.1,14.2c1.2,0.4,2.3,0.5,3.5,0.5c5.1,0,9.8-3.3,11.4-8.4c0.2-0.7,0.4-1.5,0.5-2.2h4.4
	l2.8,2.8c-0.3,0.6-0.5,1.3-0.5,2c0,2.4,1.9,4.3,4.3,4.3c2.4,0,4.3-1.9,4.3-4.3c0-2.4-1.9-4.3-4.3-4.3c-0.7,0-1.4,0.2-2,0.5l-3.2-3.2
	c-0.2-0.2-0.6-0.4-0.9-0.4h-6.1c-0.7,0-1.2,0.6-1.2,1.2c0,0.9-0.1,1.9-0.4,2.8c-0.7,2.4-2.4,4.4-4.6,5.6c-2.2,1.2-4.8,1.4-7.2,0.7
	c-5-1.5-7.8-6.8-6.3-11.8c0.1-0.5,0-1-0.4-1.3C6,32.7,5.7,32.4,5.5,32c-1.3-1.9-1-4.5,0.6-6c1.9,1.7,4.3,2.8,6.9,3.1
	c0.1,0.8,0.4,1.7,0.9,2.5c1,1.7,2.6,3,4.6,3.5c0.1,0,0.2,0,0.3,0c0.6,0,1.1-0.4,1.2-0.9c0.2-0.7-0.2-1.3-0.9-1.5
	c-1.3-0.3-2.4-1.1-3-2.3c-1.3-2.3-0.5-5.3,1.8-6.6c0.6-0.3,0.8-1.1,0.5-1.7c-0.3-0.6-1.1-0.8-1.7-0.5c-1.9,1.1-3.2,3-3.6,5
	c-2.3-0.3-4.4-1.4-5.9-3.1c0,0,0,0,0,0c0,0,0,0,0,0c-1.6-1.7-2.4-4-2.4-6.3c0-2.5,1-4.9,2.8-6.7c1.8-1.8,4.1-2.7,6.7-2.7
	c0,0,0.1,0,0.2,0c0.6,0,1.1-0.4,1.2-0.9c0.5-2.2,2.5-3.7,4.7-3.7c0,0,0,0,0,0c2.7,0,4.8,2.2,4.8,4.9v5.3v6.1v10.7
	c0,0.7,0.6,1.2,1.2,1.2h8.1c0.5,1.8,2.2,3.1,4.1,3.1c2.4,0,4.3-1.9,4.3-4.3c0-2.4-1.9-4.3-4.3-4.3c-1.9,0-3.6,1.3-4.1,3.1h-6.9v-8.2
	H39c0.5,1.8,2.2,3.1,4.1,3.1c2.4,0,4.3-1.9,4.3-4.3S45.5,15.2,43.1,15.2z M38.6,5.5c1,0,1.8,0.8,1.8,1.8s-0.8,1.8-1.8,1.8
	s-1.8-0.8-1.8-1.8S37.6,5.5,38.6,5.5z M40.4,43.1c0,1-0.8,1.8-1.8,1.8s-1.8-0.8-1.8-1.8s0.8-1.8,1.8-1.8S40.4,42.2,40.4,43.1z
	 M38.6,28.4c1,0,1.8,0.8,1.8,1.8S39.6,32,38.6,32s-1.8-0.8-1.8-1.8S37.6,28.4,38.6,28.4z M43.1,21.3c-1,0-1.8-0.8-1.8-1.8
	s0.8-1.8,1.8-1.8s1.8,0.8,1.8,1.8S44.1,21.3,43.1,21.3z"/>
</svg>
