<?xml version="1.0" encoding="utf-8"?>
<!-- Generator: Adobe Illustrator 27.5.0, SVG Export Plug-In . SVG Version: 6.00 Build 0)  -->
<svg version="1.1" id="Camada_3" xmlns="http://www.w3.org/2000/svg" xmlns:xlink="http://www.w3.org/1999/xlink" x="0px" y="0px"
	 viewBox="0 0 50 50" style="enable-background:new 0 0 50 50;" xml:space="preserve">
<style type="text/css">
	.st0{fill:#E589EF;}
	.st1{fill:none;stroke:#444444;stroke-width:2.5;stroke-linecap:round;stroke-linejoin:round;stroke-miterlimit:10;}
	.st2{fill:none;stroke:#444444;stroke-miterlimit:10;}
	.st3{fill:none;stroke:#444444;stroke-width:0.5;stroke-miterlimit:10;}
</style>
<g>
	<path class="st0" d="M48.1,20c-0.2-0.8-2.7-7.5-3.2-8.1l-3-3.5l-0.3,0.1L34,2.7L26.2,2C23,2,11.7,2.3,4.8,12.3L0.9,22.8l-0.2,0.1
		l4,13.4c0.1,0.4,4.6,5.6,4.9,5.9l5.6,3l32.2-11.7C48,33,49,24.8,48.1,20z"/>
	<g>
		<g>
			<g>
				<path class="st1" d="M36.8,45.3c-7.9,4.5-18.1,4.2-25.8-1.6C0.7,36-1.4,21.3,6.4,10.9"/>
				<path class="st1" d="M6.2,11.1c2-3,4.7-4.7,4.7-4.7l0.7-0.5C19.7,0.1,30.9,0,39.2,6.3c10.4,7.8,12.4,22.5,4.7,32.8"/>
			</g>
		</g>
	</g>
</g>
<polyline class="st2" points="24.9,33.6 11.4,33.6 18.2,21.9 24.9,10.2 31.6,21.9 38.4,33.6 36.1,33.6 "/>
<path class="st2" d="M32.9,33.6"/>
<path class="st3" d="M29.8,30.9l0.8,1.9c0,0,0.1,0.1,0.1,0.1l1.5,0.4c0.2,0.1,0.2,0.4,0,0.5l-1.5,0.4c0,0-0.1,0.1-0.1,0.1l-0.8,1.9
	c-0.1,0.2-0.4,0.2-0.5,0l-0.8-1.9c0,0-0.1-0.1-0.1-0.1l-1.5-0.4c-0.2-0.1-0.2-0.4,0-0.5l1.5-0.4c0,0,0.1-0.1,0.1-0.1l0.8-1.9
	C29.4,30.7,29.7,30.7,29.8,30.9z"/>
<path class="st3" d="M35.6,32.2l1.2,2.9c0,0.1,0.1,0.1,0.2,0.2l2.3,0.6c0.3,0.2,0.3,0.6,0,0.8l-2.3,0.6c-0.1,0-0.1,0.1-0.2,0.2
	L36.6,38l-0.1,0.4L36,39.5l-0.3,0.8c-0.2,0.3-0.6,0.3-0.8,0l-1.2-2.9c0-0.1-0.1-0.1-0.2-0.2l-2.3-0.6c-0.3-0.2-0.3-0.6,0-0.8
	l2.3-0.6c0.1,0,0.1-0.1,0.2-0.2l1.2-2.9C35,31.9,35.5,31.9,35.6,32.2z"/>
</svg>
