<svg xmlns="http://www.w3.org/2000/svg" id="Camada_1" x="0" y="0" version="1.1" viewBox="0 0 50 50" xml:space="preserve"><style>.st3{fill:none;stroke:#444;stroke-linecap:round;stroke-linejoin:round;stroke-miterlimit:10}</style><path fill="#8256d8" d="M28.6 22.9l7.8 2.5-6.7 4.7.1 8.2-6.5-4.9-7.8 2.6 2.6-7.7-4.9-6.6 8.2.1 4.8-6.7z"/><path fill="#a475ef" d="M47.8 17.3l.5-11-1.9-3.8-15.4.4c-3.2 0-27.8-3-27.8.2L1.5 23.8l1.2 23.5 13.6.7 31-11c.7-.5 1.5-17.7.5-19.7z"/><path fill="none" stroke="#444" stroke-linecap="round" stroke-linejoin="round" stroke-miterlimit="10" stroke-width="2.5" d="M32.4 47.8h-27c-1.9 0-3.4-1.6-3.4-3.5V5.4c0-1.9 1.5-3.5 3.4-3.5h39c1.9 0 3.4 1.6 3.4 3.5v32.5"/><path d="M7.7 22c-.8 0-1.5-.7-1.5-1.6v-8.9c0-.9.7-1.6 1.5-1.6H23c.8 0 1.5.7 1.5 1.6v8.9c0 .9-.7 1.6-1.5 1.6H7.7z" class="st3"/><path d="M21.8 14.5c0 .8-.6 1.4-1.4 1.4-.8 0-1.4-.6-1.4-1.4 0-.8.6-1.4 1.4-1.4.8 0 1.4.6 1.4 1.4zm-10.1 0c0 .8-.6 1.4-1.4 1.4-.8 0-1.4-.6-1.4-1.4 0-.8.6-1.4 1.4-1.4.7 0 1.4.6 1.4 1.4zm1.6 4.2h4m-2-8.8V5.5" class="st3"/><path fill="none" stroke="#444" stroke-linecap="round" stroke-linejoin="round" stroke-miterlimit="10" stroke-width=".5" d="M24.4 39.9h-9.1c-1.2 0-2.2-1-2.2-2.2V24.9m14.3-10.2h8.5c1.2 0 2.2 1 2.2 2.2v6.4"/><path d="M31.5 27.8c0-.2-.1-.3-.1-.5 0-1 .8-1.7 1.7-1.7 1 0 1.7.8 1.7 1.7v16.2c-3.5 2-4.6-1.4-4.6-1.4" class="st3"/><path d="M30.7 31.2c-1.1 0-2-.9-2-2s.9-2 2-2c.3 0 .5 0 .7.1m-2.5 6.6c-1 0-2.1-1-2.1-2.1 0-1 .8-1.9 1.9-1.9" class="st3"/><path d="M27.4 33.2c-.7.3-1.1 1-1.1 1.7 0 1.1.9 2.2 1.9 2.2 0 0 1.3.2 1.8-.3m-2.8 0s-1.6 2 1 3.5m.5-1.4s-2.1 3.5 2.2 4.5m1.7-8.5s-3.1.1-2.3 3.1m4.6-5.1s-.9-1.1-2.7 0m2.7 7.4s-2.3 1.2-3.1-.3m3.1-10.2s-1.9.9-2.3 0m2.3 7.6s-1.2.5-2.1 0m5.6-9.6c0-.2.1-.3.1-.5 0-1-.8-1.7-1.7-1.7-1 0-1.7.8-1.7 1.7v16.2c3.5 2 4.6-1.4 4.6-1.4" class="st3"/><path d="M39.2 31.2c1.1 0 2-.9 2-2s-.9-2-2-2c-.3 0-.5 0-.7.1m2.5 6.6c1 0 2.1-1 2.1-2.1 0-1-.8-1.9-1.9-1.9" class="st3"/><path d="M42.5 33.2c.7.3 1.1 1 1.1 1.7 0 1.1-.9 2.2-1.9 2.2 0 0-1.3.2-1.8-.3m2.8 0s1.6 2-1 3.5m-.5-1.4s2.1 3.5-2.2 4.5m-1.7-8.5s3.1.1 2.3 3.1M35 32.9s.9-1.1 2.7 0M35 40.3s2.3 1.2 3.1-.3M35 29.8s1.9.9 2.3 0M35 37.4s1.2.5 2.1 0" class="st3"/></svg>