<svg xmlns="http://www.w3.org/2000/svg" id="Layer_1" version="1" viewBox="0 0 50 50"><style>.st2,.st3,.st5{fill:#031326;stroke:#031326;stroke-width:.25;stroke-linecap:round;stroke-miterlimit:10}.st3,.st5{fill:none;stroke-width:.5}.st5{fill:#031326}</style><path fill="#71bac0" d="M45.739 3.781v32.598L14.797 47.641H5.679a1.418 1.418 0 01-1.419-1.427V3.781c0-.785.633-1.418 1.419-1.418h38.643a1.414 1.414 0 011.417 1.418z"/><path fill="#7ed0d6" d="M45.739 3.781v.979L4.26 19.856V3.781c0-.785.633-1.418 1.419-1.418h38.643a1.414 1.414 0 011.417 1.418z"/><path d="M42.244 26.444v.821h-8.479l3.278-3.277 1.215-1.216a.219.219 0 01.313 0l3.673 3.672z" class="st2"/><path d="M42.681 27.265h-6.403l3.396-3.39.2-.207 1.216-1.216a.219.219 0 01.313 0l1.276 1.277.002 3.536z" class="st2"/><path d="M10.531 26.539l.99-.99a.2.2 0 01.288 0l1.679 1.679H9.842" class="st3"/><path d="M11.221 27.228H7.316v-.32L8.97 25.26a.194.194 0 01.282 0l1.969 1.968zm19.965-.073l.896-.89.163-.169 1.867-1.868a.333.333 0 01.483 0l2.933 2.927h-6.342z" class="st3"/><path d="M32.972 27.155h-4.33l.138-.138 1.799-1.792a.321.321 0 01.464 0l1.04 1.04" class="st3"/><path d="M33.695 30.947l-3.796 4.245-.057.065H19.095l-.086.086-.075-.086-.057-.065-1.5-1.679-1.453-1.625-.843-.94a.238.238 0 010-.337l.631-.703.535-.603.197-.219.861-.958 5.818-6.502a.239.239 0 01.235-.073l2.762.66a.24.24 0 01.123.073l2.4 2.682 1.044 1.166 2.644 2.953 1.363 1.525a.235.235 0 01.001.335z" class="st2"/><path d="M42.68 30.01v10.349a.317.317 0 01-.317.317H7.636a.317.317 0 01-.317-.317V30.01H42.68z" class="st2"/><path d="M42.263 40.783H7.737a.417.417 0 01-.417-.417V5.839c0-.231.187-.417.417-.417h34.526c.231 0 .417.187.417.417v34.526a.417.417 0 01-.417.418z" class="st3"/><path fill="none" stroke="#031326" stroke-linecap="round" stroke-miterlimit="10" stroke-width="2.5" d="M24.387 47.641H5.679a1.423 1.423 0 01-1.423-1.423V3.782c0-.786.637-1.423 1.423-1.423H44.32c.786 0 1.423.637 1.423 1.423v32.712"/><path d="M11.394 6.857h.611v.611h-.611z" class="st5"/><path d="M17.041 23.15V8.26s-.634 2.145-1.979 2.145-1.979-2.145-1.979-2.145v14.89h-.679v8.528h5.322V23.15h-.685z" class="st2"/><path d="M18.015 7.162H12.11m6.315 11.905V7.481M11.7 19.682v11.905h6.725V19.682M11.7 7.47v11.597" class="st3"/><path d="M18.119 6.87h.611v.611h-.611zm0 12.197h.611v.611h-.611zm-6.718 0h.611v.611h-.611z" class="st5"/></svg>