<?xml version="1.0" encoding="utf-8"?>
<!-- Generator: Adobe Illustrator 24.0.0, SVG Export Plug-In . SVG Version: 6.00 Build 0)  -->
<svg version="1.1" id="Layer_1" xmlns="http://www.w3.org/2000/svg" xmlns:xlink="http://www.w3.org/1999/xlink" x="0px" y="0px"
	 viewBox="0 0 50 50" style="enable-background:new 0 0 50 50;" xml:space="preserve">
<style type="text/css">
	.st0{fill:#FCC34F;}
	.st1{fill:#FDCF72;}
	.st2{fill:#444444;}
</style>
<g>
	<g>
		<polygon class="st0" points="48.4,26.1 48.8,30.4 1.7,47.6 1.8,38.4 2.2,33.1 49.1,16 48.4,19.8 		"/>
	</g>
	<g>
		<polygon class="st1" points="48.4,9.2 47.8,17 1.8,33.8 1.8,23.8 2.2,19.3 48.5,2.4 		"/>
	</g>
	<g>
		<path class="st2" d="M36.9,49.4H1.7c-0.7,0-1.2-0.6-1.2-1.2V1.9c0-0.7,0.6-1.2,1.2-1.2h46.6c0.7,0,1.2,0.6,1.2,1.2v35.3
			c0,0.7-0.6,1.2-1.2,1.2S47,37.8,47,37.1v-34H3v43.8h33.9c0.7,0,1.2,0.6,1.2,1.2S37.6,49.4,36.9,49.4z"/>
	</g>
</g>
<g>
	<g>
		<path class="st2" d="M16,27.5c-3.5,0-6.4,2.9-6.4,6.4s2.9,6.4,6.4,6.4s6.4-2.9,6.4-6.4S19.6,27.5,16,27.5z"/>
	</g>
	<g>
		<path class="st0" d="M16.6,32.2c0.3,0,0.6,0.3,0.6,0.6h1.2c0-1-0.8-1.8-1.8-1.8v-1.2h-1.2V31h-1.8v1.8c0,1,0.8,1.8,1.8,1.8h1.2
			c0.3,0,0.6,0.3,0.6,0.6v0.6h-1.8c-0.3,0-0.6-0.3-0.6-0.6h-1.2c0,1,0.8,1.8,1.8,1.8v1h1.2v-1.2h1.8V35c0-1-0.8-1.8-1.8-1.8h-1.2
			c-0.3,0-0.6-0.3-0.6-0.6V32h1.8V32.2z"/>
	</g>
	<g>
		<path class="st2" d="M20,26.1l1.1-1.1c0.2,0.1,0.5,0.2,0.8,0.2c0.8,0,1.4-0.5,1.6-1.2h3.7c0.2,0.7,0.9,1.2,1.6,1.2
			c1,0,1.8-0.8,1.8-1.8c0-0.3-0.1-0.5-0.2-0.8l4.7-4.7c0.2,0.1,0.5,0.2,0.8,0.2c1,0,1.8-0.8,1.8-1.8s-0.8-1.8-1.8-1.8
			s-1.8,0.8-1.8,1.8c0,0.3,0.1,0.5,0.2,0.8l-4.7,4.7c-0.2-0.1-0.5-0.2-0.8-0.2c-0.8,0-1.4,0.5-1.6,1.2h-3.7
			c-0.2-0.7-0.9-1.2-1.6-1.2c-1,0-1.8,0.8-1.8,1.8c0,0.3,0.1,0.5,0.2,0.8l-1.5,1.5c-0.9-0.3-1.8-0.5-2.8-0.5c-4.8,0-8.8,3.9-8.8,8.8
			s3.9,8.8,8.8,8.8s8.8-3.9,8.8-8.8C24.8,30.5,22.8,27.6,20,26.1L20,26.1z M35.9,15.8c0.3,0,0.6,0.3,0.6,0.6S36.2,17,35.9,17
			s-0.6-0.3-0.6-0.6C35.3,16.1,35.6,15.8,35.9,15.8z M28.9,22.8c0.3,0,0.6,0.3,0.6,0.6S29.2,24,28.9,24s-0.6-0.3-0.6-0.6
			S28.6,22.8,28.9,22.8z M21.9,22.8c0.3,0,0.6,0.3,0.6,0.6S22.2,24,21.9,24s-0.6-0.3-0.6-0.6S21.5,22.8,21.9,22.8z M16,41.5
			c-4.2,0-7.6-3.4-7.6-7.6s3.4-7.6,7.6-7.6s7.6,3.4,7.6,7.6S20.2,41.5,16,41.5z"/>
	</g>
	<g>
		<path class="st2" d="M23.6,19.9c0-4.3,3.4-7.9,7.6-8.2v1.5l6.6-3.3l-6.6-3.3v1.5C25,8.5,20.1,13.6,20.1,19.9v0.6h3.5V19.9z
			 M21.3,19.3c0.3-5.5,4.9-9.9,10.5-9.9h0.6V8.5l2.8,1.4l-2.8,1.4v-0.8h-0.6c-5,0-9,3.9-9.3,8.8H21.3z"/>
	</g>
	<g>
		<path class="st2" d="M40,19.3v0.6c0,4.3-3.4,7.9-7.6,8.2v-1.5l-6.6,3.3l6.6,3.3v-1.5c6.2-0.3,11.1-5.4,11.1-11.7v-0.6L40,19.3z
			 M31.8,30.4h-0.6v0.8l-2.8-1.4l2.8-1.4v0.8h0.6c5,0,9-3.9,9.3-8.8h1.2C42,26,37.4,30.4,31.8,30.4z"/>
	</g>
</g>
</svg>
