<svg xmlns="http://www.w3.org/2000/svg" version="1" viewBox="0 0 50 50"><path fill="#46B8B0" d="M7.494 30.776v11.431l1.362 1.368h3.382l3.985-4.07 2.15 2.15L38.91 34.18l7.454-7.454c.954-.954.954-2.5 0-3.455l-7.197-7.197L47.27 7.8V5.47l-1.2-1.199H32.026l-1.407 1.401.006 1.497 1.388 1.388h1.104l-.723.745-5.762-5.762a2.443 2.443 0 0 0-3.455 0l-1.898 1.898-1.167-1.168H6.068l-1.375.894v2.504l1.362.887h1.439v10.668l-4.049 4.049a2.443 2.443 0 0 0 0 3.455l4.049 4.049z"/><path fill="#4ECDC4" d="M7.663 8.556v4.608L28.75 5.489 26.802 3.54a2.442 2.442 0 0 0-3.454 0L21.45 5.438 20.282 4.27H6.237l-1.375.895v2.504l1.362.887h1.439z"/><path fill="#031326" d="M48.521 4.954l-1.933-1.933H31.511l-1.819 1.811-2.175-2.175a3.7 3.7 0 0 0-5.223 0L21.28 3.671l-.65-.65H5.697L3.443 4.487v3.86l2.241 1.459h.561v8.9l-3.683 3.683c-.698.697-1.083 1.625-1.083 2.611s.384 1.914 1.082 2.611l3.683 3.683v11.43l2.093 2.102h4.427l3.469-3.543 6.061 6.061c.72.72 1.666 1.08 2.611 1.08s1.892-.36 2.611-1.08l2.889-2.889a1.25 1.25 0 0 0-1.768-1.768l-2.889 2.889a1.196 1.196 0 0 1-1.688 0l-6.782-6.782 21.195-21.642 7.006 7.006c.226.226.35.525.35.844s-.124.618-.35.844l-7.453 7.453a1.25 1.25 0 0 0 1.768 1.768l7.453-7.453c.697-.697 1.082-1.625 1.082-2.611s-.385-1.914-1.082-2.611l-6.322-6.323 7.595-7.754V4.954zm-22.772-.53l5.611 5.612L20.115 21.63V9.69h.664L22.6 7.877V5.886l1.461-1.461a1.195 1.195 0 0 1 1.688-.001zm-21.42 21.42a1.189 1.189 0 0 1 0-1.688l2.921-2.921v7.529l-2.921-2.92zM46.021 7.291L11.713 42.325H9.376l-.632-.635V7.306H6.426l-.483-.315V5.843l.496-.322h13.156L21.1 7.026v.227l-.94.937h-1.544v17.142L36.068 7.306H32.53l-.657-.658-.002-.459.672-.668h13.01l.468.468v1.302z"/></svg>