<?xml version="1.0" encoding="utf-8"?>
<!-- Generator: Adobe Illustrator 26.5.0, SVG Export Plug-In . SVG Version: 6.00 Build 0)  -->
<svg version="1.1" id="Layer_1" xmlns="http://www.w3.org/2000/svg" xmlns:xlink="http://www.w3.org/1999/xlink" x="0px" y="0px"
	 viewBox="0 0 50 50" style="enable-background:new 0 0 50 50;" xml:space="preserve">
<style type="text/css">
	.st0{fill:#A475EF;}
	.st1{fill:#BF94F7;}
	.st2{fill:none;stroke:#444444;stroke-width:2.5;stroke-linecap:round;stroke-linejoin:round;stroke-miterlimit:10;}
	.st3{fill:#444444;}
</style>
<g>
	<g>
		<polygon class="st0" points="48.4,16.1 49.2,21.3 3.1,38.1 2.6,27.2 2.5,20.9 47.1,4.8 48,8.7 		"/>
		<polygon class="st1" points="46.3,1.6 48.5,4.8 1.7,21.5 2.8,4.4 5.7,1.5 34.8,1.3 		"/>
		<g>
			<path class="st2" d="M25,47.9H5.6c-1.9,0-3.4-1.6-3.4-3.5V5.4c0-2,1.5-3.5,3.4-3.5h39c1.9,0,3.4,1.6,3.4,3.5v25.9"/>
			<path class="st2" d="M2.2,15.4"/>
			<path class="st2" d="M48,15.4"/>
		</g>
	</g>
</g>
<g>
	<path class="st3" d="M20.2,32.2c-0.1-0.1-0.2-0.2-0.3-0.4v4.7c-2.7,0.8-5.3,2-7.2,3.5c-0.2,0.1-0.2,0.4-0.1,0.5
		c0.1,0.2,0.4,0.2,0.5,0.1c1.8-1.5,4.4-2.7,7.2-3.4c0.2,0,0.3-0.2,0.3-0.4v-4.3C20.5,32.4,20.4,32.3,20.2,32.2z"/>
	<path class="st3" d="M38.1,40c-1.8-1.4-4.4-2.7-7.3-3.5v-4.5c-0.2,0.2-0.5,0.4-0.8,0.5v4.2c0,0.2,0.1,0.3,0.3,0.4
		c2.8,0.7,5.5,2,7.3,3.4c0.1,0.1,0.2,0.1,0.2,0.1c0.1,0,0.2,0,0.3-0.1C38.3,40.4,38.3,40.1,38.1,40z"/>
	<g>
		<path class="st3" d="M25.3,35c-2.5,0-4.4-0.9-6-2.9c-1.3-1.5-1.8-3.6-2.2-5.4c-1.3,0.2-2.6-0.9-2.9-2.4c-0.1-0.8-0.1-1.5,0.2-2.1
			c0.3-0.7,0.9-1.1,1.5-1.2c0.2,0,0.5,0,0.7,0c0.7-5.5,4.4-9.5,8.7-9.5c4.3,0,8,4.1,8.7,9.7c0.2,0,0.5,0,0.7,0
			c1.3,0.3,2.1,1.8,1.8,3.4c-0.2,0.9-0.6,1.6-1.3,2.1c-0.5,0.3-1.1,0.4-1.6,0.3c0,0,0,0,0,0c0,0.1-0.1,0.2-0.1,0.3
			c-0.3,1.5-0.7,3.1-1.9,4.7C30,34,27.9,35,25.3,35z M17.7,25.5l0.1,0.6c0.5,2,0.9,4,2.2,5.5c1.5,1.8,3.1,2.6,5.4,2.6
			c2.3,0,4.1-0.9,5.6-2.8c1.1-1.5,1.4-2.9,1.8-4.4c0.1-0.3,0.1-0.6,0.2-0.8l0.1-0.6l0.5,0.3c0.1,0.1,0.2,0.1,0.3,0.1
			c0.4,0.1,0.7-0.1,0.9-0.2c0.4-0.3,0.8-0.9,0.9-1.5c0.2-1.1-0.3-2.2-1.1-2.3l0,0c-0.2-0.1-0.5,0-0.7,0.1l-0.6,0.3l-0.1-0.6
			c-0.4-5.4-3.8-9.4-7.8-9.4c-4,0-7.3,4-7.8,9.3l-0.1,0.7l-0.6-0.3c-0.3-0.1-0.5-0.2-0.8-0.1c-0.4,0.1-0.7,0.3-0.9,0.7
			c-0.2,0.4-0.3,1-0.2,1.6c0.2,1.1,1,1.9,1.8,1.7c0.1,0,0.2,0,0.3-0.1L17.7,25.5z"/>
	</g>
	<path class="st3" d="M34.6,15.7c-0.3-0.5-0.2-0.9-0.1-1.5c0.1-0.4,0.1-0.8,0-1.3c0.3-0.8,0.5-1.5,0.5-1.5c0-0.2,0-0.3-0.2-0.4
		c-0.1-0.1-0.3-0.1-0.4-0.1c-0.8,0.3-1.1,0-1.7-0.7C32,9.5,31,8.4,28.8,9c-1.1,0.3-1.9,0.1-3-0.3c-0.6-0.2-1.3-0.4-2.1-0.6
		C22.5,7.9,20.2,8.6,19,10c-0.2,0.2-0.4,0.5-0.5,0.7c-0.7,0.2-1.6,0.7-2.2,1.8c-0.4,0.6-0.3,1.3-0.3,1.9c0,0.6,0.1,1.1-0.2,1.6
		c-1.6,3.1,1.5,7.5,1.6,7.7l0.3-0.1l0.5-0.1c0.1-0.2,1.4-5.3,1.8-7.8C20.3,16,20.6,16,21,16c0.7,0,1.5-0.2,2.2-0.5
		c1.4-0.4,3-0.9,4.8-0.2c0.8,0.3,1.5,0.5,2.2,0.6c0.3,2.6,2,7.9,2.1,8.2l0.4,0.1l0.4,0C33.2,24,36.5,18.5,34.6,15.7z"/>
	<path class="st3" d="M24.5,26.9C24.5,26.9,24.5,26.9,24.5,26.9c-0.3-0.1-0.5-0.3-0.4-0.5c0.2-1.2,0.6-4.7-0.6-5.6
		c-1.4-1.1-3.6-0.1-3.7,0c-0.2,0.1-0.5,0-0.6-0.2c-0.1-0.2,0-0.5,0.2-0.6c0.1-0.1,2.8-1.3,4.6,0.2c1.8,1.5,1,6,0.9,6.5
		C24.9,26.8,24.7,26.9,24.5,26.9z"/>
	<path class="st3" d="M26.2,20.9c-0.1,0-0.3-0.1-0.3-0.2c-0.2-0.2-0.1-0.5,0.1-0.6c1.8-1.5,4.5-0.2,4.6-0.2c0.2,0.1,0.3,0.4,0.2,0.6
		c-0.1,0.2-0.4,0.3-0.6,0.2l0,0c0,0-2.3-1.1-3.7,0C26.4,20.8,26.3,20.9,26.2,20.9z"/>
	<path class="st3" d="M25.2,41.2c-3,0-5.7-1.4-6.7-3.6c-0.1-0.2,0-0.4,0.2-0.5c0.2-0.1,0.4,0,0.5,0.2c0.8,1.9,3.2,3.1,6,3.1
		c2.8,0,5.2-1.2,6-3.1c0.1-0.2,0.3-0.3,0.5-0.2c0.2,0.1,0.3,0.3,0.2,0.5C31,39.7,28.3,41.2,25.2,41.2z"/>
	<ellipse class="st3" cx="21.4" cy="22.8" rx="1" ry="1.1"/>
	<ellipse class="st3" cx="29.3" cy="22.8" rx="1" ry="1.1"/>
	<path class="st3" d="M25.4,30.3c-0.7,0-1.6-0.3-2.4-1c-0.2-0.2-0.2-0.4,0-0.6c0.2-0.2,0.4-0.2,0.6,0c1.9,1.6,3.6,0.1,3.6,0
		c0.2-0.2,0.5-0.2,0.6,0c0.2,0.2,0.2,0.5,0,0.6C27.4,29.8,26.4,30.3,25.4,30.3z"/>
	<path class="st3" d="M25.4,27.4c-0.3,0-0.7-0.1-1.1-0.3c-0.2-0.1-0.3-0.4-0.2-0.6c0.1-0.2,0.4-0.3,0.6-0.2c0.7,0.4,1.4,0,1.4,0
		c0.2-0.1,0.5,0,0.6,0.2c0.1,0.2,0,0.5-0.2,0.6C26.5,27.2,26,27.4,25.4,27.4z"/>
</g>
<g>
	<path class="st3" d="M17.5,7.3h-6.7c-1.4,0-2.6,1.2-2.6,2.6v6.8c0,0.4-0.3,0.7-0.7,0.7c-0.4,0-0.7-0.3-0.7-0.7V9.9
		C6.9,7.7,8.6,6,10.7,6h6.7V7.3z"/>
	<path class="st3" d="M17.5,43.2h-6.7c-2.1,0-3.9-1.7-3.9-3.9v-6.8c0-0.4,0.3-0.7,0.7-0.7c0.4,0,0.7,0.3,0.7,0.7v6.8
		c0,1.4,1.2,2.6,2.6,2.6h6.7"/>
	<path class="st3" d="M33.4,6h6.7C42.2,6,44,7.7,44,9.9v6.8c0,0.4-0.3,0.7-0.7,0.7c-0.4,0-0.7-0.3-0.7-0.7V9.9
		c0-1.4-1.2-2.6-2.6-2.6h-6.7V6z"/>
	<path class="st3" d="M33.4,41.9h6.7c1.4,0,2.6-1.2,2.6-2.6v-6.8c0-0.4,0.3-0.7,0.7-0.7c0.4,0,0.7,0.3,0.7,0.7v6.8
		c0,2.1-1.7,3.9-3.9,3.9h-6.7"/>
</g>
</svg>
