<svg xmlns="http://www.w3.org/2000/svg" id="Layer_1" x="0" y="0" version="1.1" viewBox="0 0 50 50" xml:space="preserve"><style>.st2{fill:#464646}</style><path fill="#70c6df" d="M47.8 24.9c0-6.2-2.6-11.9-6.6-16.1L2.3 23c-.1.6-.1 1.2-.1 1.9 0 6.2 2.4 11.8 6.5 15.9l39.1-14.2v-1.7z"/><path fill="#7dddfa" d="M25 2.5c-11.7 0-21.3 9-22.3 20.5L40.8 9.1C36.8 5 31.2 2.5 25 2.5z"/><path d="M25 48.6C12 48.6 1.4 38 1.4 25S12 1.4 25 1.4 48.6 12 48.6 25c0 .8 0 1.5-.1 2.3-.1.7-.7 1.2-1.4 1.1s-1.2-.7-1.1-1.4c.1-.7.1-1.4.1-2 0-11.6-9.5-21.1-21.1-21.1S3.9 13.4 3.9 25 13.4 46.1 25 46.1c2.6 0 5.1-.5 7.5-1.4.6-.2 1.4.1 1.6.7.2.6-.1 1.4-.7 1.6-2.7 1.1-5.5 1.6-8.4 1.6z" class="st2"/><path d="M25 38.5c-7.4 0-13.5-6.1-13.5-13.5S17.6 11.5 25 11.5 38.5 17.6 38.5 25 32.4 38.5 25 38.5zM25 13c-6.6 0-12 5.4-12 12s5.4 12 12 12 12-5.4 12-12-5.4-12-12-12zm0 30.6c-2.2 0-4.3-.4-6.3-1.1-.1 0-.2-.2-.1-.3 0-.1.2-.2.3-.2 2 .7 4 1.1 6.2 1.1.1 0 .3.1.3.2s-.2.3-.4.3zm3.2-.3c-.1 0-.2-.1-.2-.2s.1-.3.2-.3c2.1-.4 4.1-1.1 5.9-2.1.1-.1.3 0 .3.1.1.1 0 .3-.1.3-1.9 1.1-3.9 1.8-6.1 2.2zm-12.3-2.2h-.1c-1.9-1.1-3.5-2.5-4.9-4.1-.1-.1-.1-.3 0-.4.1-.1.3-.1.4 0 1.4 1.6 3 3 4.8 4 .1.1.2.2.1.3-.2.2-.2.2-.3.2zm20.9-1.8c-.1 0-.1 0-.2-.1s-.1-.3 0-.4c1.6-1.4 3-3 4-4.8.1-.1.2-.2.3-.1.1.1.2.2.1.3-1.1 1.9-2.5 3.5-4.1 4.9 0 .1-.1.2-.1.2zM9.2 34.4c-.1 0-.2 0-.2-.1-1.1-1.9-1.8-3.9-2.2-6 0-.1.1-.3.2-.3s.3.1.3.2c.4 2.1 1.1 4.1 2.2 5.9.1.1 0 .3-.1.3h-.2zM43 22c-.1 0-.2-.1-.2-.2-.4-2.1-1.1-4.1-2.2-5.9-.1-.1 0-.3.1-.3.1-.1.3 0 .3.1 1.1 1.9 1.8 3.9 2.2 6 .1.1 0 .3-.2.3zM9.1 16.1H9c-.1-.1-.2-.2-.1-.3 1.1-1.9 2.5-3.5 4.1-4.9.1-.1.3-.1.4 0 .1.1.1.3 0 .4-1.6 1.4-3 3-4 4.8h-.3zM39 13.4c-.1 0-.1 0-.2-.1-1.4-1.6-3-3-4.8-4-.1-.1-.2-.2-.1-.3.1-.1.2-.2.3-.1 1.9 1.1 3.5 2.5 4.9 4.1.1.1.1.3 0 .4H39zm-23.2-4c-.1 0-.2 0-.2-.1-.1-.1 0-.3.1-.3 1.9-1.1 3.9-1.8 6-2.2.1 0 .3.1.3.2s-.1.3-.2.3c-2.1.4-4.1 1.1-6 2.1.1 0 .1 0 0 0zM31.2 8c-2-.7-4.1-1.1-6.2-1.1-.1 0-.3-.1-.3-.2s.1-.2.2-.2v.2-.3c2.2 0 4.3.4 6.3 1.1.1 0 .2.2.2.3 0 .2-.1.2-.2.2z" class="st2"/><path d="M27.4 17c-.6.7-1.5 1.1-2.5 1.1s-1.8-.4-2.4-1.1c-3.3 1.1-5.6 4.2-5.6 7.8 0 4.5 3.7 8.2 8.2 8.2s8.2-3.7 8.2-8.2c-.1-3.7-2.6-6.8-5.9-7.8zM25 28.5c-2 0-3.7-1.6-3.7-3.7s1.6-3.7 3.7-3.7 3.7 1.6 3.7 3.7-1.7 3.7-3.7 3.7z" class="st2"/></svg>