<?xml version="1.0" encoding="utf-8"?>
<!-- Generator: Adobe Illustrator 22.0.1, SVG Export Plug-In . SVG Version: 6.00 Build 0)  -->
<svg version="1.1" id="Layer_1" xmlns="http://www.w3.org/2000/svg" xmlns:xlink="http://www.w3.org/1999/xlink" x="0px" y="0px"
	 viewBox="0 0 50 50" style="enable-background:new 0 0 50 50;" xml:space="preserve">
<style type="text/css">
	.st0{fill:#70C6DF;}
	.st1{fill:#7DDDFA;}
	.st2{fill:#464646;}
</style>
<g>
	<g>
		<path class="st0" d="M47.8,24.9c0-6.2-2.6-11.9-6.6-16.1L2.3,23c-0.1,0.6-0.1,1.2-0.1,1.9c0,6.2,2.4,11.8,6.5,15.9l39.1-14.2
			C47.8,26,47.8,25.5,47.8,24.9z"/>
	</g>
	<g>
		<path class="st1" d="M25,2.5c-11.7,0-21.3,9-22.3,20.5L40.8,9.1C36.8,5,31.2,2.5,25,2.5z"/>
	</g>
	<g>
		<path class="st2" d="M25,48.6C12,48.6,1.4,38,1.4,25S12,1.4,25,1.4S48.6,12,48.6,25c0,0.8,0,1.5-0.1,2.3c-0.1,0.7-0.7,1.2-1.4,1.1
			S45.9,27.7,46,27c0.1-0.7,0.1-1.4,0.1-2c0-11.6-9.5-21.1-21.1-21.1S3.9,13.4,3.9,25S13.4,46.1,25,46.1c2.6,0,5.1-0.5,7.5-1.4
			c0.6-0.2,1.4,0.1,1.6,0.7c0.2,0.6-0.1,1.4-0.7,1.6C30.7,48.1,27.9,48.6,25,48.6z"/>
	</g>
	<g>
		<path class="st2" d="M25,38.5c-7.4,0-13.5-6.1-13.5-13.5S17.6,11.5,25,11.5S38.5,17.6,38.5,25S32.4,38.5,25,38.5z M25,13
			c-6.6,0-12,5.4-12,12s5.4,12,12,12s12-5.4,12-12S31.6,13,25,13z"/>
	</g>
	<path class="st2" d="M25,43.6L25,43.6c-2.2,0-4.3-0.4-6.3-1.1c-0.1,0-0.2-0.2-0.1-0.3c0-0.1,0.2-0.2,0.3-0.2c2,0.7,4,1.1,6.2,1.1
		c0.1,0,0.3,0.1,0.3,0.2S25.2,43.6,25,43.6z"/>
	<path class="st2" d="M28.2,43.3c-0.1,0-0.2-0.1-0.2-0.2c0-0.1,0.1-0.3,0.2-0.3c2.1-0.4,4.1-1.1,5.9-2.1c0.1-0.1,0.3,0,0.3,0.1
		c0.1,0.1,0,0.3-0.1,0.3C32.4,42.2,30.4,42.9,28.2,43.3L28.2,43.3z"/>
	<path class="st2" d="M15.9,41.1h-0.1c-1.9-1.1-3.5-2.5-4.9-4.1c-0.1-0.1-0.1-0.3,0-0.4c0.1-0.1,0.3-0.1,0.4,0c1.4,1.6,3,3,4.8,4
		c0.1,0.1,0.2,0.2,0.1,0.3C16,41.1,16,41.1,15.9,41.1z"/>
	<path class="st2" d="M36.8,39.3c-0.1,0-0.1,0-0.2-0.1c-0.1-0.1-0.1-0.3,0-0.4c1.6-1.4,3-3,4-4.8c0.1-0.1,0.2-0.2,0.3-0.1
		c0.1,0.1,0.2,0.2,0.1,0.3c-1.1,1.9-2.5,3.5-4.1,4.9C36.9,39.2,36.8,39.3,36.8,39.3z"/>
	<path class="st2" d="M9.2,34.4c-0.1,0-0.2,0-0.2-0.1c-1.1-1.9-1.8-3.9-2.2-6C6.8,28.2,6.9,28,7,28s0.3,0.1,0.3,0.2
		c0.4,2.1,1.1,4.1,2.2,5.9c0.1,0.1,0,0.3-0.1,0.3C9.2,34.4,9.2,34.4,9.2,34.4z"/>
	<path class="st2" d="M43,22c-0.1,0-0.2-0.1-0.2-0.2c-0.4-2.1-1.1-4.1-2.2-5.9c-0.1-0.1,0-0.3,0.1-0.3c0.1-0.1,0.3,0,0.3,0.1
		c1.1,1.9,1.8,3.9,2.2,6C43.3,21.8,43.2,22,43,22L43,22z"/>
	<path class="st2" d="M9.1,16.1H9c-0.1-0.1-0.2-0.2-0.1-0.3c1.1-1.9,2.5-3.5,4.1-4.9c0.1-0.1,0.3-0.1,0.4,0c0.1,0.1,0.1,0.3,0,0.4
		c-1.6,1.4-3,3-4,4.8C9.3,16.1,9.2,16.1,9.1,16.1z"/>
	<path class="st2" d="M39,13.4c-0.1,0-0.1,0-0.2-0.1c-1.4-1.6-3-3-4.8-4c-0.1-0.1-0.2-0.2-0.1-0.3c0.1-0.1,0.2-0.2,0.3-0.1
		c1.9,1.1,3.5,2.5,4.9,4.1c0.1,0.1,0.1,0.3,0,0.4C39.1,13.4,39,13.4,39,13.4z"/>
	<path class="st2" d="M15.8,9.4c-0.1,0-0.2,0-0.2-0.1c-0.1-0.1,0-0.3,0.1-0.3c1.9-1.1,3.9-1.8,6-2.2C21.8,6.8,22,6.9,22,7
		s-0.1,0.3-0.2,0.3C19.7,7.7,17.7,8.4,15.8,9.4C15.9,9.4,15.9,9.4,15.8,9.4z"/>
	<path class="st2" d="M31.2,8L31.2,8c-2-0.7-4.1-1.1-6.2-1.1c-0.1,0-0.3-0.1-0.3-0.2s0.1-0.2,0.2-0.2v0.2V6.4l0,0
		c2.2,0,4.3,0.4,6.3,1.1c0.1,0,0.2,0.2,0.2,0.3C31.4,8,31.3,8,31.2,8z"/>
	<g>
		<path class="st2" d="M27.4,17c-0.6,0.7-1.5,1.1-2.5,1.1s-1.8-0.4-2.4-1.1c-3.3,1.1-5.6,4.2-5.6,7.8c0,4.5,3.7,8.2,8.2,8.2
			s8.2-3.7,8.2-8.2C33.2,21.1,30.7,18,27.4,17z M25,28.5c-2,0-3.7-1.6-3.7-3.7s1.6-3.7,3.7-3.7s3.7,1.6,3.7,3.7S27,28.5,25,28.5z"/>
	</g>
</g>
</svg>
