<?xml version="1.0" encoding="utf-8"?>
<!-- Generator: Adobe Illustrator 28.0.0, SVG Export Plug-In . SVG Version: 6.00 Build 0)  -->
<svg version="1.1" id="Layer_1" xmlns="http://www.w3.org/2000/svg" xmlns:xlink="http://www.w3.org/1999/xlink" x="0px" y="0px"
	 viewBox="0 0 50 50" style="enable-background:new 0 0 50 50;" xml:space="preserve">
<style type="text/css">
	.st0{fill:#B68AF3;}
	.st1{fill:#E5E5E5;}
</style>
<g>
	<polygon class="st0" points="18.8,14.8 16,17.5 18.8,17.5 	"/>
	<path class="st0" d="M24.9,41.7c-0.6,0-1.1,0.5-1.1,1.1c0,0.6,0.5,1.1,1.1,1.1s1.1-0.5,1.1-1.1C26,42.2,25.5,41.7,24.9,41.7z"/>
	<path class="st0" d="M28.5,16.6v3.8c0,0.1-0.1,0.2-0.2,0.2h-3.8c0.1,2,1.8,3.6,3.8,3.6c2.1,0,3.8-1.7,3.8-3.8
		C32.1,18.4,30.5,16.8,28.5,16.6z"/>
	<path class="st0" d="M30.1,44.3c0.2-0.1,0.3-0.2,0.5-0.2h9.2c0.8,0,1.6-0.3,2.3-0.9c0.7-0.6,1.1-1.5,1.1-2.4v-0.7l-36.4,0v0.7
		c0,1.8,1.5,3.3,3.3,3.3h8.9c0.1,0,0.1,0,0.2,0c0.1,0,0.1,0,0.2,0c0,0,0,0,0,0c0.6,0,1,0.5,1,1l0,2.8h9l0-2.7
		C29.3,44.7,29.7,44.4,30.1,44.3z M24.9,44.4c-0.9,0-1.6-0.7-1.6-1.6s0.7-1.6,1.6-1.6c0.9,0,1.6,0.7,1.6,1.6S25.8,44.4,24.9,44.4z"
		/>
	<path class="st0" d="M28,16.6c-1.9,0.1-3.4,1.6-3.6,3.6H28V16.6z"/>
	<path class="st0" d="M43.1,22.6c0-1.8-1.5-3.3-3.3-3.3h-3.6c0,0-0.1,0-0.1,0V36c0,0.3-0.2,0.5-0.5,0.5s-0.5-0.2-0.5-0.5V14.1H19.8
		V18c0,0.3-0.2,0.5-0.5,0.5H15l-0.1,0.1V36c0,0.3-0.2,0.5-0.5,0.5s-0.5-0.2-0.5-0.5V19.2c0,0,0,0-0.1,0H10c-1.8,0-3.3,1.5-3.3,3.3
		v16.6l36.4,0V22.6z M17.7,21h3.3c0.1,0,0.2,0.1,0.2,0.2s-0.1,0.2-0.2,0.2h-3.3c-0.1,0-0.2-0.1-0.2-0.2S17.5,21,17.7,21z M17.7,24.3
		h3.3c0.1,0,0.2,0.1,0.2,0.2s-0.1,0.2-0.2,0.2h-3.3c-0.1,0-0.2-0.1-0.2-0.2S17.5,24.3,17.7,24.3z M32.4,36.2H17.7
		c-0.1,0-0.2-0.1-0.2-0.2s0.1-0.2,0.2-0.2h3.8v-4.7c0-0.1,0.1-0.2,0.2-0.2s0.2,0.1,0.2,0.2v4.7h2.8v-7.1c0-0.1,0.1-0.2,0.2-0.2
		s0.2,0.1,0.2,0.2v7.1H28v-4.7c0-0.1,0.1-0.2,0.2-0.2s0.2,0.1,0.2,0.2v4.7h2.8v-7.9c0-0.1,0.1-0.2,0.2-0.2s0.2,0.1,0.2,0.2v7.9h0.6
		c0.1,0,0.2,0.1,0.2,0.2S32.5,36.2,32.4,36.2z M28.3,24.8c-2.4,0-4.3-1.9-4.3-4.3s1.9-4.3,4.3-4.3s4.3,1.9,4.3,4.3
		S30.7,24.8,28.3,24.8z"/>
	<path class="st0" d="M41.8,3H8C5,3,2.5,5.5,2.5,8.6v31.3v2.5c0,3.1,2.5,5.6,5.6,5.6h0h10.2l0-1.8H10c-2.9,0-5.3-2.4-5.3-5.3V22.6
		c0-2.9,2.4-5.3,5.3-5.3h3.4l5-4.8c0.2-0.2,0.4-0.3,0.7-0.3h17.1c0.6,0,1,0.4,1,1v4.1h2.6c2.9,0,5.3,2.4,5.3,5.3v18.2
		c0,1.5-0.6,2.9-1.7,3.9c-1,0.9-2.3,1.4-3.6,1.4h-8.5l0,1.8h10.4h0c1,0,1.9-0.2,2.7-0.7c1.7-0.9,2.9-2.8,2.9-4.9V24.1V8.6
		C47.3,5.5,44.8,3,41.8,3z"/>
	<path class="st1" d="M32.4,35.7h-0.6v-7.9c0-0.1-0.1-0.2-0.2-0.2s-0.2,0.1-0.2,0.2v7.9h-2.8v-4.7c0-0.1-0.1-0.2-0.2-0.2
		S28,30.9,28,31.1v4.7h-2.8v-7.1c0-0.1-0.1-0.2-0.2-0.2s-0.2,0.1-0.2,0.2v7.1H22v-4.7c0-0.1-0.1-0.2-0.2-0.2s-0.2,0.1-0.2,0.2v4.7
		h-3.8c-0.1,0-0.2,0.1-0.2,0.2s0.1,0.2,0.2,0.2h14.7c0.1,0,0.2-0.1,0.2-0.2S32.5,35.7,32.4,35.7z"/>
	<path class="st1" d="M28.3,16.1c-2.4,0-4.3,1.9-4.3,4.3s1.9,4.3,4.3,4.3s4.3-1.9,4.3-4.3S30.7,16.1,28.3,16.1z M28,16.6v3.6h-3.6
		C24.6,18.3,26.1,16.8,28,16.6z M28.3,24.3c-2,0-3.7-1.6-3.8-3.6h3.8c0.1,0,0.2-0.1,0.2-0.2v-3.8c2,0.1,3.6,1.8,3.6,3.8
		C32.1,22.6,30.4,24.3,28.3,24.3z"/>
	<path class="st1" d="M17.7,21.5h3.3c0.1,0,0.2-0.1,0.2-0.2S21.1,21,20.9,21h-3.3c-0.1,0-0.2,0.1-0.2,0.2S17.5,21.5,17.7,21.5z"/>
	<path class="st1" d="M17.7,24.8h3.3c0.1,0,0.2-0.1,0.2-0.2s-0.1-0.2-0.2-0.2h-3.3c-0.1,0-0.2,0.1-0.2,0.2S17.5,24.8,17.7,24.8z"/>
	<path class="st1" d="M39.8,46.1c1.3,0,2.6-0.5,3.6-1.4c1.1-1,1.7-2.4,1.7-3.9V22.6c0-2.9-2.4-5.3-5.3-5.3h-2.6v-4.1
		c0-0.6-0.4-1-1-1H19.1c-0.3,0-0.5,0.1-0.7,0.3l-5,4.8H10c-2.9,0-5.3,2.4-5.3,5.3v18.2c0,2.9,2.4,5.3,5.3,5.3h8.3l0,1.8h2l0-2.8
		c0-0.6-0.4-1-1-1c0,0,0,0,0,0c-0.1,0-0.1,0-0.2,0c-0.1,0-0.1,0-0.2,0H10c-1.8,0-3.3-1.5-3.3-3.3v-0.7l36.4,0v0.7
		c0,0.9-0.4,1.8-1.1,2.4c-0.6,0.6-1.4,0.9-2.3,0.9h-9.2c-0.2,0-0.4,0.1-0.5,0.2c-0.4,0.1-0.8,0.5-0.8,0.9l0,2.7h2l0-1.8H39.8z
		 M18.8,14.8v2.7H16L18.8,14.8z M6.7,39.1V22.6c0-1.8,1.5-3.3,3.3-3.3h3.8c0,0,0,0,0.1,0V36c0,0.3,0.2,0.5,0.5,0.5s0.5-0.2,0.5-0.5
		V18.6l0.1-0.1h4.3c0.3,0,0.5-0.2,0.5-0.5v-3.9h15.3V36c0,0.3,0.2,0.5,0.5,0.5s0.5-0.2,0.5-0.5V19.2c0,0,0.1,0,0.1,0h3.6
		c1.8,0,3.3,1.5,3.3,3.3v16.6L6.7,39.1z"/>
	<path class="st1" d="M24.9,41.2c-0.9,0-1.6,0.7-1.6,1.6s0.7,1.6,1.6,1.6c0.9,0,1.6-0.7,1.6-1.6S25.8,41.2,24.9,41.2z M24.9,43.9
		c-0.6,0-1.1-0.5-1.1-1.1c0-0.6,0.5-1.1,1.1-1.1s1.1,0.5,1.1,1.1C26,43.4,25.5,43.9,24.9,43.9z"/>
</g>
</svg>
