<svg xmlns="http://www.w3.org/2000/svg" id="Layer_1" x="0" y="0" version="1.1" viewBox="0 0 50 50" xml:space="preserve"><style>.st0{fill:#b68af3}.st1{fill:#e5e5e5}</style><path d="M18.8 14.8L16 17.5h2.8zm6.1 26.9c-.6 0-1.1.5-1.1 1.1 0 .6.5 1.1 1.1 1.1s1.1-.5 1.1-1.1c0-.6-.5-1.1-1.1-1.1zm3.6-25.1v3.8c0 .1-.1.2-.2.2h-3.8c.1 2 1.8 3.6 3.8 3.6 2.1 0 3.8-1.7 3.8-3.8 0-2-1.6-3.6-3.6-3.8z" class="st0"/><path d="M30.1 44.3c.2-.1.3-.2.5-.2h9.2c.8 0 1.6-.3 2.3-.9.7-.6 1.1-1.5 1.1-2.4v-.7H6.8v.7c0 1.8 1.5 3.3 3.3 3.3h9.3c.6 0 1 .5 1 1v2.8h9v-2.7c-.1-.5.3-.8.7-.9zm-5.2.1c-.9 0-1.6-.7-1.6-1.6s.7-1.6 1.6-1.6c.9 0 1.6.7 1.6 1.6s-.7 1.6-1.6 1.6zM28 16.6c-1.9.1-3.4 1.6-3.6 3.6H28v-3.6z" class="st0"/><path d="M43.1 22.6c0-1.8-1.5-3.3-3.3-3.3h-3.7V36c0 .3-.2.5-.5.5s-.5-.2-.5-.5V14.1H19.8V18c0 .3-.2.5-.5.5H15l-.1.1V36c0 .3-.2.5-.5.5s-.5-.2-.5-.5V19.2H10c-1.8 0-3.3 1.5-3.3 3.3v16.6h36.4V22.6zM17.7 21H21c.1 0 .2.1.2.2s-.1.2-.2.2h-3.3c-.1 0-.2-.1-.2-.2s0-.2.2-.2zm0 3.3H21c.1 0 .2.1.2.2s-.1.2-.2.2h-3.3c-.1 0-.2-.1-.2-.2s0-.2.2-.2zm14.7 11.9H17.7c-.1 0-.2-.1-.2-.2s.1-.2.2-.2h3.8v-4.7c0-.1.1-.2.2-.2s.2.1.2.2v4.7h2.8v-7.1c0-.1.1-.2.2-.2s.2.1.2.2v7.1H28v-4.7c0-.1.1-.2.2-.2s.2.1.2.2v4.7h2.8v-7.9c0-.1.1-.2.2-.2s.2.1.2.2v7.9h.6c.1 0 .2.1.2.2s.1.2 0 .2zm-4.1-11.4c-2.4 0-4.3-1.9-4.3-4.3s1.9-4.3 4.3-4.3 4.3 1.9 4.3 4.3-1.9 4.3-4.3 4.3z" class="st0"/><path d="M41.8 3H8C5 3 2.5 5.5 2.5 8.6v33.8C2.5 45.5 5 48 8.1 48h10.2v-1.8H10c-2.9 0-5.3-2.4-5.3-5.3V22.6c0-2.9 2.4-5.3 5.3-5.3h3.4l5-4.8c.2-.2.4-.3.7-.3h17.1c.6 0 1 .4 1 1v4.1h2.6c2.9 0 5.3 2.4 5.3 5.3v18.2c0 1.5-.6 2.9-1.7 3.9-1 .9-2.3 1.4-3.6 1.4h-8.5v1.8h10.4c1 0 1.9-.2 2.7-.7 1.7-.9 2.9-2.8 2.9-4.9V8.6c0-3.1-2.5-5.6-5.5-5.6z" class="st0"/><path d="M32.4 35.7h-.6v-7.9c0-.1-.1-.2-.2-.2s-.2.1-.2.2v7.9h-2.8V31c0-.1-.1-.2-.2-.2s-.4.1-.4.3v4.7h-2.8v-7.1c0-.1-.1-.2-.2-.2s-.2.1-.2.2v7.1H22v-4.7c0-.1-.1-.2-.2-.2s-.2.1-.2.2v4.7h-3.8c-.1 0-.2.1-.2.2s.1.2.2.2h14.7c.1 0 .2-.1.2-.2s-.2-.3-.3-.3zm-4.1-19.6c-2.4 0-4.3 1.9-4.3 4.3s1.9 4.3 4.3 4.3 4.3-1.9 4.3-4.3-1.9-4.3-4.3-4.3zm-.3.5v3.6h-3.6c.2-1.9 1.7-3.4 3.6-3.6zm.3 7.7c-2 0-3.7-1.6-3.8-3.6h3.8c.1 0 .2-.1.2-.2v-3.8c2 .1 3.6 1.8 3.6 3.8 0 2.1-1.7 3.8-3.8 3.8zm-10.6-2.8H21c.1 0 .2-.1.2-.2s-.1-.3-.3-.3h-3.3c-.1 0-.2.1-.2.2s.1.3.3.3zm0 3.3H21c.1 0 .2-.1.2-.2s-.1-.2-.2-.2h-3.3c-.1 0-.2.1-.2.2s0 .2.2.2z" class="st1"/><path d="M39.8 46.1c1.3 0 2.6-.5 3.6-1.4 1.1-1 1.7-2.4 1.7-3.9V22.6c0-2.9-2.4-5.3-5.3-5.3h-2.6v-4.1c0-.6-.4-1-1-1H19.1c-.3 0-.5.1-.7.3l-5 4.8H10c-2.9 0-5.3 2.4-5.3 5.3v18.2c0 2.9 2.4 5.3 5.3 5.3h8.3v1.8h2v-2.8c0-.6-.4-1-1-1H10c-1.8 0-3.3-1.5-3.3-3.3v-.7h36.4v.7c0 .9-.4 1.8-1.1 2.4-.6.6-1.4.9-2.3.9h-9.2c-.2 0-.4.1-.5.2-.4.1-.8.5-.8.9v2.7h2v-1.8h8.6zm-21-31.3v2.7H16l2.8-2.7zM6.7 39.1V22.6c0-1.8 1.5-3.3 3.3-3.3h3.9V36c0 .3.2.5.5.5s.5-.2.5-.5V18.6l.1-.1h4.3c.3 0 .5-.2.5-.5v-3.9h15.3V36c0 .3.2.5.5.5s.5-.2.5-.5V19.2h3.7c1.8 0 3.3 1.5 3.3 3.3v16.6H6.7z" class="st1"/><path d="M24.9 41.2c-.9 0-1.6.7-1.6 1.6s.7 1.6 1.6 1.6c.9 0 1.6-.7 1.6-1.6s-.7-1.6-1.6-1.6zm0 2.7c-.6 0-1.1-.5-1.1-1.1 0-.6.5-1.1 1.1-1.1s1.1.5 1.1 1.1c0 .6-.5 1.1-1.1 1.1z" class="st1"/></svg>