<svg xmlns="http://www.w3.org/2000/svg" version="1" viewBox="0 0 50 50"><path fill="#E56060" d="M7.978 37.266l5.229 3.019 30.927-11.257V16.391a4.225 4.225 0 0 0-2.111-3.657L27.111 4.126a4.225 4.225 0 0 0-4.223 0l-14.91 8.608a4.222 4.222 0 0 0-2.111 3.657v17.218a4.218 4.218 0 0 0 2.111 3.657z"/><path fill="#FF6B6B" d="M35.265 9.692l-7.696-5.127a4.222 4.222 0 0 0-4.214-.271L7.923 11.93a4.222 4.222 0 0 0-2.341 3.514l-.193 3 29.876-8.752z"/><path fill="#444" d="M25 47.554a5.329 5.329 0 0 1-2.669-.713L7.42 38.233a5.354 5.354 0 0 1-2.67-4.624V16.391a5.355 5.355 0 0 1 2.67-4.624l14.911-8.609a5.352 5.352 0 0 1 5.339 0l14.911 8.609a5.355 5.355 0 0 1 2.669 4.624v12.637a1.116 1.116 0 1 1-2.232 0V16.391a3.116 3.116 0 0 0-1.553-2.691L26.554 5.092a3.117 3.117 0 0 0-3.107 0L8.536 13.701a3.116 3.116 0 0 0-1.554 2.691V33.61c0 1.106.595 2.136 1.554 2.689l14.911 8.609a3.107 3.107 0 0 0 3.107 0l4.117-2.377a1.117 1.117 0 0 1 1.116 1.934l-4.117 2.377a5.342 5.342 0 0 1-2.67.712z"/><path fill="#444" d="M25.495 34.783l2.047-3.886-4.195.692 1.684 3.194a.262.262 0 0 0 .464 0zm-2.957-4.729l5.919-.895 7.167-13.608a.263.263 0 0 0-.232-.385h-3.984a.262.262 0 0 0-.232.14L25.47 26.113a.264.264 0 0 1-.468-.001l-5.708-10.894a.262.262 0 0 0-.233-.141h-3.983a.262.262 0 0 0-.232.385l7.692 14.592z"/></svg>