<?xml version="1.0" encoding="utf-8"?>
<!-- Generator: Adobe Illustrator 24.3.0, SVG Export Plug-In . SVG Version: 6.00 Build 0)  -->
<svg version="1.1" id="Layer_1" xmlns="http://www.w3.org/2000/svg" xmlns:xlink="http://www.w3.org/1999/xlink" x="0px" y="0px"
	 viewBox="0 0 50 50" style="enable-background:new 0 0 50 50;" xml:space="preserve">
<style type="text/css">
	.st0{fill:#AFE55D;}
	.st1{fill:#C3FF68;}
	.st2{fill:none;stroke:#444444;stroke-width:2.5;stroke-linecap:round;stroke-linejoin:round;stroke-miterlimit:10;}
	.st3{fill:none;stroke:#494949;stroke-linecap:round;stroke-linejoin:round;stroke-miterlimit:10;}
	.st4{fill:none;stroke:#494949;stroke-width:0.5;stroke-linecap:round;stroke-linejoin:round;stroke-miterlimit:10;}
</style>
<g>
	<g>
		<path class="st0" d="M48.4,22L5.2,37.7C2.8,34,1.4,29.7,1.4,25c0-1,0.1-1.9,0.2-2.8c0-0.2,0.1-0.5,0.1-0.7L40.6,7.3
			c0.2,0.2,0.4,0.3,0.5,0.5C45,11.5,47.7,16.4,48.4,22z"/>
		<path class="st1" d="M41.1,7.8L1.6,22.2c0-0.2,0.1-0.5,0.1-0.7c1.7-11.3,11.5-20,23.3-20c6,0,11.4,2.2,15.6,5.9
			C40.7,7.5,40.9,7.6,41.1,7.8z"/>
		<path class="st2" d="M48.6,25C48.6,38,38,48.6,25,48.6c-8.3,0-15.6-4.3-19.8-10.9C2.8,34,1.4,29.7,1.4,25c0-1,0.1-1.9,0.2-2.8
			c0-0.2,0.1-0.5,0.1-0.7c1.7-11.3,11.5-20,23.3-20c6,0,11.4,2.2,15.6,5.9c0.2,0.2,0.4,0.3,0.5,0.5c3.9,3.6,6.6,8.6,7.3,14.2
			C48.5,23,48.6,24,48.6,25z"/>
	</g>
	<g>
		<path class="st3" d="M9,15l16,27.7L41,15c-4.1,0-8.2,0-12.4,0c-1.2,2.1-2.5,4.3-3.7,6.4c-1.3-2.1-2.5-4.3-3.8-6.4
			C17.1,15,13,15,9,15z"/>
		<path class="st4" d="M15.3,15L25,31.7L34.6,15h-5.9L25,21.4L21.2,15H15.3z"/>
	</g>
</g>
</svg>
