<svg xmlns="http://www.w3.org/2000/svg" id="Layer_1" x="0" y="0" version="1.1" viewBox="0 0 50 50" xml:space="preserve"><style>.st2{fill:#444}</style><path fill="#4ecdc4" d="M20.6 8.5c-10.8.1-17.3 7.4-18.3 16l31-11.3c-3.1-2.8-7.3-4.6-12.7-4.7z"/><path fill="#46b8b0" d="M39.1 25.9c0-1.3-.1-2.6-.4-3.9.8.1 1.7 0 2.5-.2 3.7-.9 6.1-4.4 6.1-4.4s-3-1.7-6.3-1.4c2.6-2.5 3.1-6.3 3.1-6.3s-4.3-.3-7.2 2.2c-.8.6-1.4 1.4-1.9 2.2-.5-.6-1.1-1.2-1.7-1.8l-31 11.3c-.1.8-.2 1.6-.2 2.4 0 6.3 3 11.3 8.2 14.2l28.3-10.3c.3-1.3.5-2.6.5-4z"/><path d="M26.7 33.8c-1.1 0-2.4-.1-3.9-.5-1.7-.4-3.5-.4-5.2 0-5.2 1.2-8-.1-9.5-1.4-1.9-1.8-2.4-4.3-2.1-6.1.6-4.7 5.8-7.4 14.2-7.4s13.6 2.7 14.2 7.4c.2 1.8-.2 4.3-2.2 6.1-.9 1-2.6 1.9-5.5 1.9zm-6.4-2.3c1 0 2 .1 3 .3 3.6.9 6.4.5 8.1-1 1.5-1.4 1.9-3.4 1.7-4.8-.7-5.5-9.2-6.1-12.7-6.1-3.6 0-12 .6-12.7 6.1-.2 1.4.1 3.4 1.7 4.7 1.7 1.6 4.5 1.9 8.2 1.1.7-.2 1.7-.3 2.7-.3z" class="st2"/><path d="M48.3 16.2c-.1-.1-2-1.1-4.4-1.5 1.5-2.4 1.8-4.8 1.8-5l.2-1.3-1.3-.1c-.2 0-4.8-.3-8.1 2.4-.6.5-1.1 1-1.5 1.6-3.8-4-9.2-6.1-14.6-6.1C10.5 6.4.6 13.1.6 25.9c0 10.6 7.9 17.7 19.7 17.8C32.1 43.6 40 36.5 40 25.9c0-.9-.1-1.9-.2-2.7.7 0 1.4-.1 2-.2 4.2-1 6.7-4.8 6.9-4.9l.7-1.1-1.1-.8zM38 12.7c1.5-1.3 3.5-1.7 4.8-1.8-.3 1.1-1 2.6-2.1 3.8-.3 0-.6.1-.8.2-.8.2-1.7.5-2.5 1-.3-.5-.6-1-.9-1.4.5-.8 1-1.3 1.5-1.8zM20.3 41.2C9.8 41.1 3.1 35.1 3.1 25.9c0-8.2 5.4-17 17.2-17.1 11.8.1 17.2 8.9 17.2 17.1 0 9.2-6.8 15.2-17.2 15.3zm21-20.7c-.6.1-1.2.2-1.9.2-.2-.6-.3-1.2-.5-1.8 1.1-.4 2.1-.9 2.9-1.6l.1-.1c1.5 0 2.8.3 3.8.7-1 .8-2.5 2.2-4.4 2.6z" class="st2"/><path d="M15.9 26.9c0-1.3-.4-2.3-1.5-2.7-.6-.2-1.3-.2-1.9 0-1 .4-1.5 1.4-1.5 2.7 0 1.3.4 2.3 1.5 2.7.6.2 1.3.2 1.9 0 1-.4 1.5-1.4 1.5-2.7zm8.8 0c0-1.3.4-2.3 1.5-2.7.6-.2 1.3-.2 1.9 0 1 .4 1.5 1.4 1.5 2.7 0 1.3-.4 2.3-1.5 2.7-.6.2-1.3.2-1.9 0-1.1-.4-1.5-1.4-1.5-2.7z" class="st2"/></svg>