<?xml version="1.0" encoding="utf-8"?>
<!-- Generator: Adobe Illustrator 22.1.0, SVG Export Plug-In . SVG Version: 6.00 Build 0)  -->
<svg version="1.1" id="Layer_1" xmlns="http://www.w3.org/2000/svg" xmlns:xlink="http://www.w3.org/1999/xlink" x="0px" y="0px"
	 viewBox="0 0 50 50" style="enable-background:new 0 0 50 50;" xml:space="preserve">
<style type="text/css">
	.st0{fill:#4ECDC4;}
	.st1{fill:#46B8B0;}
	.st2{fill:#444444;}
</style>
<g>
	<path class="st0" d="M20.6,8.5C9.8,8.6,3.3,15.9,2.3,24.5l31-11.3C30.2,10.4,26,8.6,20.6,8.5z"/>
</g>
<g>
	<path class="st1" d="M39.1,25.9c0-1.3-0.1-2.6-0.4-3.9c0.8,0.1,1.7,0,2.5-0.2c3.7-0.9,6.1-4.4,6.1-4.4s-3-1.7-6.3-1.4
		c2.6-2.5,3.1-6.3,3.1-6.3s-4.3-0.3-7.2,2.2c-0.8,0.6-1.4,1.4-1.9,2.2c-0.5-0.6-1.1-1.2-1.7-1.8l-31,11.3c-0.1,0.8-0.2,1.6-0.2,2.4
		c0,6.3,3,11.3,8.2,14.2l28.3-10.3C38.9,28.6,39.1,27.3,39.1,25.9z"/>
</g>
<g>
	<path class="st2" d="M26.7,33.8c-1.1,0-2.4-0.1-3.9-0.5c-1.7-0.4-3.5-0.4-5.2,0c-5.2,1.2-8-0.1-9.5-1.4c-1.9-1.8-2.4-4.3-2.1-6.1
		c0.6-4.7,5.8-7.4,14.2-7.4s13.6,2.7,14.2,7.4l0,0c0.2,1.8-0.2,4.3-2.2,6.1C31.3,32.9,29.6,33.8,26.7,33.8z M20.3,31.5
		c1,0,2,0.1,3,0.3c3.6,0.9,6.4,0.5,8.1-1c1.5-1.4,1.9-3.4,1.7-4.8c-0.7-5.5-9.2-6.1-12.7-6.1c-3.6,0-12,0.6-12.7,6.1
		c-0.2,1.4,0.1,3.4,1.7,4.7c1.7,1.6,4.5,1.9,8.2,1.1C18.3,31.6,19.3,31.5,20.3,31.5z"/>
</g>
<path class="st2" d="M48.3,16.2c-0.1-0.1-2-1.1-4.4-1.5c1.5-2.4,1.8-4.8,1.8-5l0.2-1.3l-1.3-0.1c-0.2,0-4.8-0.3-8.1,2.4
	c-0.6,0.5-1.1,1-1.5,1.6c-3.8-4-9.2-6.1-14.6-6.1C10.5,6.4,0.6,13.1,0.6,25.9c0,10.6,7.9,17.7,19.7,17.8C32.1,43.6,40,36.5,40,25.9
	c0-0.9-0.1-1.9-0.2-2.7c0.7,0,1.4-0.1,2-0.2c4.2-1,6.7-4.8,6.9-4.9l0.7-1.1L48.3,16.2z M38,12.7c1.5-1.3,3.5-1.7,4.8-1.8
	c-0.3,1.1-1,2.6-2.1,3.8c-0.3,0-0.6,0.1-0.8,0.2c-0.8,0.2-1.7,0.5-2.5,1c-0.3-0.5-0.6-1-0.9-1.4C37,13.7,37.5,13.2,38,12.7z
	 M20.3,41.2C9.8,41.1,3.1,35.1,3.1,25.9c0-8.2,5.4-17,17.2-17.1c11.8,0.1,17.2,8.9,17.2,17.1C37.5,35.1,30.7,41.1,20.3,41.2z
	 M41.3,20.5c-0.6,0.1-1.2,0.2-1.9,0.2c-0.2-0.6-0.3-1.2-0.5-1.8c1.1-0.4,2.1-0.9,2.9-1.6l0.1-0.1c1.5,0,2.8,0.3,3.8,0.7
	C44.7,18.7,43.2,20.1,41.3,20.5z"/>
<g>
	<path class="st2" d="M15.9,26.9c0-1.3-0.4-2.3-1.5-2.7c-0.6-0.2-1.3-0.2-1.9,0c-1,0.4-1.5,1.4-1.5,2.7l0,0l0,0
		c0,1.3,0.4,2.3,1.5,2.7c0.6,0.2,1.3,0.2,1.9,0C15.4,29.2,15.9,28.2,15.9,26.9L15.9,26.9L15.9,26.9z"/>
</g>
<g>
	<path class="st2" d="M24.7,26.9c0-1.3,0.4-2.3,1.5-2.7c0.6-0.2,1.3-0.2,1.9,0c1,0.4,1.5,1.4,1.5,2.7l0,0l0,0c0,1.3-0.4,2.3-1.5,2.7
		c-0.6,0.2-1.3,0.2-1.9,0C25.1,29.2,24.7,28.2,24.7,26.9L24.7,26.9L24.7,26.9z"/>
</g>
</svg>
