<svg xmlns="http://www.w3.org/2000/svg" version="1" viewBox="0 0 50 50"><path fill="#AFE55D" d="M5.801 44.536l40.092-14.592V9.26a5.153 5.153 0 0 0-5.153-5.153H9.26A5.153 5.153 0 0 0 4.107 9.26v31.48c0 1.509.66 2.853 1.694 3.796z"/><path fill="#C3FF68" d="M44.197 5.463a5.117 5.117 0 0 0-3.457-1.356H9.26A5.153 5.153 0 0 0 4.107 9.26v10.794l40.09-14.591z"/><g fill="#444"><path d="M40.74 3H9.26A6.267 6.267 0 0 0 3 9.26v31.48A6.267 6.267 0 0 0 9.26 47h15.741a1.108 1.108 0 1 0 0-2.216H9.26a4.05 4.05 0 0 1-4.045-4.045V9.26A4.05 4.05 0 0 1 9.26 5.215h31.48a4.05 4.05 0 0 1 4.046 4.045v20.682a1.108 1.108 0 1 0 2.216 0V9.26A6.27 6.27 0 0 0 40.74 3z"/><path d="M41.391 8.095h-8.854a.335.335 0 0 0-.243.572l1.734 1.734-.552.552H10.952v22.524l-.552.55-1.734-1.734a.335.335 0 0 0-.572.243v8.854c0 .284.23.514.514.514h8.854a.335.335 0 0 0 .243-.572L15.972 39.6l.552-.552h22.524V16.524l.552-.552 1.734 1.734a.335.335 0 0 0 .572-.243V8.609a.515.515 0 0 0-.515-.514zm-3.229 30.067H17.41l1.432-1.432a.335.335 0 0 0 0-.474l-5.099-5.099a.335.335 0 0 0-.474 0l-1.432 1.432V11.838H32.59l-1.432 1.432a.335.335 0 0 0 0 .474l5.099 5.099a.335.335 0 0 0 .474 0l1.432-1.432v20.751z"/></g></svg>