<svg xmlns="http://www.w3.org/2000/svg" version="1" viewBox="0 0 50 50"><circle cx="12.862" cy="7.63" r="2.818" fill="#00C8E2" transform="rotate(-45.001 12.862 7.63)"/><circle cx="12.862" cy="7.63" r="2.818" fill="#00DFFC" transform="rotate(-45.001 12.862 7.63)"/><path fill="#DC5E82" d="M6.264 21.395c1.339 1.339 3.368 1.541 4.934.638V44.5c0 1.043.845 1.888 1.888 1.888h12.231l15.312-5.573c-.005-.026-.003-.054-.008-.08.047.012.096.019.144.031l3.454-1.257a3.396 3.396 0 00.715-2.075 3.43 3.43 0 00-3.431-3.431 3.4 3.4 0 00-.907.136 5.194 5.194 0 00-5.088-4.154V14.052a1.888 1.888 0 00-1.888-1.888H19.659c1.077-1.971.804-4.483-.864-6.151a5.195 5.195 0 00-6.536-.66 3.367 3.367 0 00-.545-.738 3.43 3.43 0 10-4.851 4.851c.217.218.461.386.715.533a4.087 4.087 0 00-.618.505 4.09 4.09 0 00-.596 5.016c-.032.03-.069.051-.1.082a4.098 4.098 0 000 5.793z"/><path fill="#F56991" d="M6.087 14.466l14.346-5.221a5.103 5.103 0 00-1.476-3.232 5.195 5.195 0 00-6.536-.66 3.367 3.367 0 00-.545-.738 3.43 3.43 0 10-4.851 4.851c.218.218.461.386.715.533a4.087 4.087 0 00-.618.505c-1.075 1.075-1.409 2.594-1.035 3.962z"/><g fill="#031326"><path d="M41.504 32.822l-.072.001a6.406 6.406 0 00-4.743-3.908V14.052a3.072 3.072 0 00-3.068-3.068H21.347a6.293 6.293 0 00-1.718-5.806 6.4 6.4 0 00-7.03-1.346l-.051-.052a4.615 4.615 0 00-6.52 0 4.617 4.617 0 00-.241 6.261 5.25 5.25 0 00-.837 5.276 5.232 5.232 0 00-1.066 3.181c0 1.409.549 2.735 1.545 3.732a5.27 5.27 0 004.588 1.46V44.5a3.072 3.072 0 003.068 3.068h16.387a1.18 1.18 0 001.18-1.18c0-.196-.06-.373-.144-.536a.698.698 0 00.028-.338 3.125 3.125 0 012.338-3.617l.559-.136-.019-.575a.322.322 0 00-.012-.097c0-.471.117-.942.347-1.4l.303-.602-.587-.333a4.171 4.171 0 01-2.12-3.624c0-1.882 1.264-3.458 2.983-3.971v.005h1.18a4.023 4.023 0 013.932 3.209l.252 1.239 1.219-.337a2.18 2.18 0 01.592-.094c1.241 0 2.251 1.01 2.251 2.251s-1.01 2.251-2.251 2.251a2.29 2.29 0 01-.579-.089 1.185 1.185 0 00-1.445.836c-.168.63.207 1.277.836 1.445.432.115.81.169 1.187.169 2.542 0 4.611-2.068 4.611-4.611s-2.066-4.611-4.609-4.611zM7.099 20.56a2.9 2.9 0 01-.854-2.062 2.9 2.9 0 01.819-2.026l.805-.749-.496-.816a2.903 2.903 0 01.863-3.928l1.572-1.055-1.64-.947a2.245 2.245 0 01-.471-.345 2.254 2.254 0 010-3.183 2.255 2.255 0 013.184.001c.122.122.234.275.351.484l.624 1.102 1.055-.699a4.023 4.023 0 015.05.511c1.26 1.261 1.527 3.17.663 4.751l-.954 1.746h.03a4.496 4.496 0 01-3.782.657l-.65-.181-.212.641a3.312 3.312 0 01-.78 1.311l-.526.483.297.49a3.373 3.373 0 01.061 3.4l-1.5.865a2.91 2.91 0 01-3.509-.451zM29.93 35.13c0 1.793.869 3.47 2.304 4.514a4.428 4.428 0 00-.229 1.043 4.527 4.527 0 00-2.938 4.244c0 .094.02.184.026.278H13.087a.71.71 0 01-.708-.708V22.052c.059-.053.123-.101.179-.157a4.783 4.783 0 00.963-5.389c.254-.302.467-.637.641-1.003a5.913 5.913 0 005.134-1.647c.161-.161.304-.336.445-.513h13.88a.71.71 0 01.708.708V29.68a5.586 5.586 0 00-4.399 5.45z"/><path d="M23.354 17.711a5.276 5.276 0 00-5.271 5.271V35.57c0 2.906 2.364 5.271 5.271 5.271s5.271-2.365 5.271-5.271V22.982a5.277 5.277 0 00-5.271-5.271zm4.327 17.859a4.332 4.332 0 01-4.327 4.327 4.332 4.332 0 01-4.327-4.327V22.982a4.332 4.332 0 014.327-4.327 4.332 4.332 0 014.327 4.327V35.57z"/></g></svg>