<svg xmlns="http://www.w3.org/2000/svg" version="1" viewBox="0 0 50 50"><path fill="#E56060" d="M8.657 37.339l38.755-14.105-.006-.012-9.67-16.844c-.622-1.072-1.831-1.775-3.066-1.778H15.33c-1.235.002-2.444.706-3.066 1.778l-9.67 16.844a3.673 3.673 0 0 0 0 3.556l6.063 10.561z"/><path fill="#FF6B6B" d="M36.456 5.175a3.543 3.543 0 0 0-1.786-.503H15.33c-1.235.002-2.444.706-3.066 1.778l-5.466 9.52L36.456 5.175z"/><path fill="#444" d="M34.67 46.44H15.329c-1.603-.003-3.159-.905-3.966-2.296L1.691 27.296C.897 25.9.897 24.1 1.689 22.707L11.361 5.86c.81-1.396 2.366-2.297 3.966-2.3H34.67c1.603.003 3.159.904 3.966 2.296l9.673 16.847c.795 1.397.795 3.196.002 4.589a1.04 1.04 0 1 1-1.809-1.03c.43-.756.43-1.771 0-2.527l-9.668-16.84c-.434-.748-1.305-1.254-2.166-1.256H15.329c-.858.004-1.729.51-2.166 1.261L3.496 23.74a2.636 2.636 0 0 0 .002 2.524l9.668 16.84c.434.747 1.305 1.254 2.166 1.255H34.67a1.04 1.04 0 1 1 0 2.081z"/><path fill="#444" d="M25.503 32.723c1.469 0 2.426-.003 3.683-.003 3.938 0 5.312-15.292 5.312-15.292.011-.076-.017-.151-.056-.151h-1.804c-3.268 0-4.522 9.96-4.748 12.03-.004.035-.055.033-.056-.002-.11-2.073-.77-12.028-3.335-12.028-1.469 0-2.426.003-3.683.003-3.938 0-5.312 15.292-5.312 15.292-.011.076.017.151.056.151h1.804c3.646 0 4.786-12.403 4.786-12.403.033-.065.091-.033.1.059 0 0 .544 12.344 3.253 12.344z"/></svg>