<?xml version="1.0" encoding="utf-8"?>
<!-- Generator: Adobe Illustrator 26.5.0, SVG Export Plug-In . SVG Version: 6.00 Build 0)  -->
<svg version="1.1" id="Camada_3" xmlns="http://www.w3.org/2000/svg" xmlns:xlink="http://www.w3.org/1999/xlink" x="0px" y="0px"
	 viewBox="0 0 50 50" style="enable-background:new 0 0 50 50;" xml:space="preserve">
<style type="text/css">
	.st0{fill:#7ED0D6;}
	.st1{fill:#71BAC0;}
	.st2{fill:none;stroke:#444444;stroke-width:2.5;stroke-linecap:round;stroke-linejoin:round;stroke-miterlimit:10;}
	.st3{fill:none;stroke:#444444;stroke-width:0.5;stroke-linecap:round;stroke-linejoin:round;stroke-miterlimit:10;}
	.st4{fill:none;stroke:#444444;stroke-linecap:round;stroke-linejoin:round;stroke-miterlimit:10;}
	.st5{fill:none;stroke:#444444;stroke-width:1.5;stroke-linecap:round;stroke-linejoin:round;stroke-miterlimit:10;}
	.st6{fill:#444444;}
</style>
<g>
	<g>
		<polygon class="st0" points="3.55,14.63 11.35,6.18 20.92,2.31 34.7,3.47 45.13,10.43 1.15,26.79 2.08,22.58 		"/>
		<polygon class="st1" points="4.27,35.16 1.95,21.46 40.55,6.35 48.51,18.48 48.83,32.4 12.33,45.47 		"/>
		<g>
			<path class="st2" d="M11.92,5.81C20,0.12,31.16-0.01,39.49,6.26c10.36,7.78,12.44,22.48,4.65,32.83"/>
			<path class="st2" d="M37.11,45.32c-7.89,4.54-18.06,4.24-25.79-1.58C0.96,35.96-1.13,21.26,6.66,10.91"/>
			<path class="st2" d="M11.26,6.35c0,0-2.7,1.74-4.73,4.73"/>
		</g>
	</g>
	<g>
		<g>
			<g>
				<g>
					<path class="st3" d="M35.76,19.52c0.54,0.67,0.86,1.51,0.86,2.44c0,2.14-1.73,3.87-3.87,3.87c-2.14,0-3.87-1.73-3.87-3.87
						c0-2.14,1.73-3.87,3.87-3.87c0.64,0,1.25,0.16,1.79,0.44"/>
				</g>
				<path class="st3" d="M25.9,19.52c0.54,0.67,0.86,1.51,0.86,2.44c0,2.14-1.73,3.87-3.87,3.87c-2.14,0-3.87-1.73-3.87-3.87
					c0-2.14,1.73-3.87,3.87-3.87c0.64,0,1.24,0.15,1.76,0.42"/>
				<path class="st3" d="M16.03,19.52c0.54,0.67,0.86,1.51,0.86,2.44c0,2.14-1.73,3.87-3.87,3.87s-3.87-1.73-3.87-3.87
					c0-2.14,1.73-3.87,3.87-3.87c0.65,0,1.27,0.16,1.81,0.45"/>
			</g>
			<path class="st4" d="M31.75,28.45H14.03c-3.59,0-6.5-2.91-6.5-6.5v0c0-3.59,2.91-6.5,6.5-6.5h17.73c3.59,0,6.5,2.91,6.5,6.5v0
				C38.25,25.54,35.34,28.45,31.75,28.45z"/>
			<polyline class="st4" points="38.12,20.61 40.29,20.93 40.29,22.98 38.12,23.3 			"/>
			<path class="st5" d="M40.29,21.96h0.42c0.97,0,1.75,0.78,1.75,1.75l0.01,4.75c0,2.81-2.27,5.08-5.08,5.08l-11.3-0.06"/>
			<path class="st4" d="M25.77,33.48v1.03c0,0.33-0.17,0.65-0.47,0.81c-1.17,0.66-2.46,0.86-3.85,1.03
				c-0.29,0.04-0.54-0.19-0.54-0.48v-2.4"/>
			<path class="st4" d="M25.77,33.6v-1.03c0-0.33-0.17-0.65-0.47-0.81c-1.17-0.66-2.46-0.86-3.85-1.03
				c-0.29-0.04-0.54,0.19-0.54,0.48v2.4"/>
			<g>
				<line class="st4" x1="20.85" y1="31.59" x2="17.49" y2="31.59"/>
				<line class="st4" x1="20.85" y1="35.5" x2="17.49" y2="35.5"/>
			</g>
		</g>
		<g>
			<path class="st6" d="M14.85,24.22c-0.01,0.05-0.03,0.09-0.05,0.12c-0.02,0.03-0.06,0.05-0.1,0.07c-0.04,0.02-0.1,0.03-0.17,0.03
				c-0.07,0.01-0.16,0.01-0.27,0.01c-0.12,0-0.22,0-0.29-0.01c-0.07-0.01-0.13-0.02-0.17-0.03c-0.04-0.02-0.07-0.04-0.09-0.07
				c-0.02-0.03-0.03-0.07-0.04-0.12l-0.66-2.6h-0.01l-0.62,2.6c-0.01,0.05-0.03,0.09-0.04,0.12c-0.02,0.03-0.05,0.05-0.09,0.07
				c-0.04,0.02-0.1,0.03-0.17,0.03c-0.07,0.01-0.16,0.01-0.28,0.01c-0.12,0-0.22,0-0.29-0.01c-0.07-0.01-0.13-0.02-0.17-0.03
				c-0.04-0.02-0.07-0.04-0.09-0.07c-0.02-0.03-0.03-0.07-0.05-0.12l-0.93-3.57c-0.02-0.08-0.03-0.14-0.03-0.18
				c0-0.04,0.01-0.08,0.04-0.1c0.03-0.02,0.07-0.04,0.13-0.04c0.06-0.01,0.14-0.01,0.25-0.01c0.1,0,0.18,0,0.24,0.01
				c0.06,0,0.1,0.01,0.13,0.02c0.03,0.01,0.05,0.03,0.06,0.05s0.02,0.05,0.03,0.09l0.72,3.14h0l0.75-3.11
				c0.01-0.04,0.02-0.07,0.03-0.1c0.01-0.03,0.04-0.04,0.07-0.06c0.03-0.01,0.08-0.02,0.13-0.03c0.06-0.01,0.13-0.01,0.23-0.01
				c0.1,0,0.18,0,0.24,0.01c0.06,0,0.11,0.01,0.14,0.03c0.03,0.01,0.06,0.03,0.07,0.06c0.01,0.03,0.03,0.06,0.03,0.1l0.77,3.11h0.01
				l0.72-3.13c0.01-0.03,0.01-0.06,0.03-0.09s0.03-0.04,0.06-0.06c0.03-0.01,0.07-0.02,0.13-0.03c0.05-0.01,0.13-0.01,0.23-0.01
				c0.09,0,0.16,0,0.22,0.01c0.05,0.01,0.09,0.02,0.11,0.04c0.02,0.02,0.03,0.06,0.03,0.1c0,0.05-0.01,0.11-0.03,0.19L14.85,24.22z"
				/>
		</g>
		<g>
			<path class="st6" d="M24.81,24.22c-0.01,0.05-0.03,0.09-0.05,0.12c-0.02,0.03-0.06,0.05-0.1,0.07c-0.04,0.02-0.1,0.03-0.17,0.03
				c-0.07,0.01-0.16,0.01-0.27,0.01c-0.12,0-0.22,0-0.29-0.01c-0.07-0.01-0.13-0.02-0.17-0.03c-0.04-0.02-0.07-0.04-0.09-0.07
				c-0.02-0.03-0.03-0.07-0.04-0.12l-0.66-2.6h-0.01l-0.62,2.6c-0.01,0.05-0.03,0.09-0.04,0.12c-0.02,0.03-0.05,0.05-0.09,0.07
				c-0.04,0.02-0.1,0.03-0.17,0.03c-0.07,0.01-0.16,0.01-0.28,0.01c-0.12,0-0.22,0-0.29-0.01c-0.07-0.01-0.13-0.02-0.17-0.03
				c-0.04-0.02-0.07-0.04-0.09-0.07c-0.02-0.03-0.03-0.07-0.05-0.12l-0.93-3.57c-0.02-0.08-0.03-0.14-0.03-0.18
				c0-0.04,0.01-0.08,0.04-0.1c0.03-0.02,0.07-0.04,0.13-0.04c0.06-0.01,0.14-0.01,0.25-0.01c0.1,0,0.18,0,0.24,0.01
				c0.06,0,0.1,0.01,0.13,0.02c0.03,0.01,0.05,0.03,0.06,0.05s0.02,0.05,0.03,0.09l0.72,3.14h0l0.75-3.11
				c0.01-0.04,0.02-0.07,0.03-0.1c0.01-0.03,0.04-0.04,0.07-0.06c0.03-0.01,0.08-0.02,0.13-0.03c0.06-0.01,0.13-0.01,0.23-0.01
				c0.1,0,0.18,0,0.24,0.01c0.06,0,0.11,0.01,0.14,0.03s0.06,0.03,0.07,0.06c0.01,0.03,0.03,0.06,0.03,0.1l0.77,3.11h0.01l0.72-3.13
				c0.01-0.03,0.01-0.06,0.03-0.09s0.03-0.04,0.06-0.06c0.03-0.01,0.07-0.02,0.13-0.03c0.05-0.01,0.13-0.01,0.23-0.01
				c0.09,0,0.16,0,0.22,0.01c0.05,0.01,0.09,0.02,0.11,0.04c0.02,0.02,0.03,0.06,0.03,0.1c0,0.05-0.01,0.11-0.03,0.19L24.81,24.22z"
				/>
		</g>
		<g>
			<path class="st6" d="M34.67,24.22c-0.01,0.05-0.03,0.09-0.05,0.12c-0.02,0.03-0.06,0.05-0.1,0.07c-0.04,0.02-0.1,0.03-0.17,0.03
				c-0.07,0.01-0.16,0.01-0.27,0.01c-0.12,0-0.22,0-0.29-0.01c-0.07-0.01-0.13-0.02-0.17-0.03c-0.04-0.02-0.07-0.04-0.09-0.07
				c-0.02-0.03-0.03-0.07-0.04-0.12l-0.65-2.6h-0.01l-0.62,2.6c-0.01,0.05-0.03,0.09-0.04,0.12s-0.05,0.05-0.09,0.07
				c-0.04,0.02-0.1,0.03-0.17,0.03c-0.07,0.01-0.16,0.01-0.28,0.01c-0.12,0-0.22,0-0.29-0.01c-0.07-0.01-0.13-0.02-0.17-0.03
				c-0.04-0.02-0.07-0.04-0.09-0.07c-0.02-0.03-0.04-0.07-0.05-0.12l-0.93-3.57c-0.02-0.08-0.03-0.14-0.03-0.18
				c0-0.04,0.01-0.08,0.04-0.1c0.03-0.02,0.07-0.04,0.13-0.04c0.06-0.01,0.14-0.01,0.25-0.01c0.1,0,0.18,0,0.24,0.01
				c0.06,0,0.1,0.01,0.13,0.02c0.03,0.01,0.05,0.03,0.06,0.05c0.01,0.02,0.02,0.05,0.03,0.09l0.72,3.14h0l0.75-3.11
				c0.01-0.04,0.02-0.07,0.03-0.1s0.04-0.04,0.07-0.06s0.08-0.02,0.13-0.03c0.06-0.01,0.13-0.01,0.23-0.01c0.1,0,0.18,0,0.24,0.01
				c0.06,0,0.11,0.01,0.14,0.03c0.03,0.01,0.06,0.03,0.07,0.06c0.01,0.03,0.03,0.06,0.03,0.1l0.77,3.11h0.01l0.72-3.13
				c0.01-0.03,0.01-0.06,0.03-0.09c0.01-0.02,0.03-0.04,0.06-0.06c0.03-0.01,0.07-0.02,0.13-0.03c0.05-0.01,0.13-0.01,0.23-0.01
				c0.09,0,0.16,0,0.22,0.01c0.05,0.01,0.09,0.02,0.11,0.04c0.02,0.02,0.03,0.06,0.03,0.1c0,0.05-0.01,0.11-0.03,0.19L34.67,24.22z"
				/>
		</g>
		<polygon class="st4" points="38.74,21.11 39.91,21.35 39.91,22.73 38.74,22.82 		"/>
		<line class="st4" x1="39.64" y1="22.52" x2="39.21" y2="21.74"/>
	</g>
</g>
</svg>
