<?xml version="1.0" encoding="utf-8"?>
<!-- Generator: Adobe Illustrator 26.5.0, SVG Export Plug-In . SVG Version: 6.00 Build 0)  -->
<svg version="1.1" id="Camada_3" xmlns="http://www.w3.org/2000/svg" xmlns:xlink="http://www.w3.org/1999/xlink" x="0px" y="0px"
	 viewBox="0 0 50 50" style="enable-background:new 0 0 50 50;" xml:space="preserve">
<style type="text/css">
	.st0{fill:#AFE55D;}
	.st1{fill:#C3FF68;}
	.st2{fill:#444444;}
</style>
<g>
	<g>
		<path class="st0" d="M3.85,46.87l8.74-0.59l34.28-12.1l1.2-7.78c0.4-2.38,0.46-11.35-1.41-12.9L33.33,3
			c-1.87-1.54-6.65-2.79-8.91-1.94L7.55,9.44C5.29,10.3,1.39,22.08,0.99,24.46l4.27,13.79C4.86,40.63,1.98,45.32,3.85,46.87z"/>
	</g>
	<g>
		<path class="st1" d="M44.41,11.19L32.97,2.65C31,1.03,22.01,1.4,19.61,2.3L6.97,9.7c-2.4,0.9-4.3,5.17-4.71,7.68L0.99,26.8
			L44.41,11.19z"/>
	</g>
	<g>
		<path class="st2" d="M23.51,0.04c-12,0.7-22,10.1-23.34,22.05C-0.5,28.02,0.9,33.59,3.75,38.17l-2.8,11.3
			c0,0,6.02-1.58,11.27-2.98C15.96,48.72,20.33,50,25,50c2.44,0,4.79-0.39,7.02-1.05c0.8-0.39,1.33-1.31,1.04-2.26
			c-0.26-0.86-1.24-1.19-2.29-0.97c-1.86,0.51-3.79,0.8-5.77,0.8c-3.88,0-7.69-1.04-11-3.02l-1.26-0.75l-1.42,0.38
			c-1.85,0.5-3.82,1.02-5.57,1.48l1.39-5.6l0.35-1.43l-0.78-1.25C4.6,32.94,3.48,29.02,3.48,25c0-7.53,3.84-14.47,10.6-18.58
			c1.69-1.03,3.54-1.8,5.46-2.27c9.89-2.42,19.68,1.88,24.61,10.94c0.47,0.87,0.87,1.78,1.18,2.72c2.33,7.05,1.12,14.13-2.8,19.63
			c-0.36,1.02-0.3,1.73,0.43,2.24c0.81,0.56,1.77,0.35,2.43-0.24C48.29,35.36,50,30.38,50,25C50,10.7,37.99-0.8,23.51,0.04z"/>
		<path class="st2" d="M30.65,31.49c7.38-7.29,10.57-14.09,3.8-19.68c-1.45,0.06-3.13,0.11-3.13,0.11l-2.52,7.16l2.57,3.3
			c-2.12,3.52-3.41,6.15-9.11,9.28c-1.12-1.12-3.13-2.68-3.13-2.68l-7.6,2.57l0.06,3.07C14.38,39.15,21.26,40.77,30.65,31.49z"/>
	</g>
</g>
</svg>
