<svg version="1" xmlns="http://www.w3.org/2000/svg" viewBox="0 0 50 50"><path fill="#00DFFC" d="M41.95 29.043v-10.88c0-9.346-7.604-16.95-16.95-16.95-.27 0-.54.006-.814.018-9.05.427-16.137 8.023-16.137 17.294v22.858l33.9-12.34z"/><path fill="#4DE9FD" d="M38.932 8.532C35.87 4.115 30.77 1.212 25 1.212c-.27 0-.54.007-.814.02-9.05.425-16.137 8.02-16.137 17.292v1.248L38.93 8.532z"/><g fill="#444"><path d="M24.13.02C14.43.475 6.834 8.604 6.834 18.524v26.923a4.557 4.557 0 0 0 4.552 4.552h19.377a1.214 1.214 0 0 0 0-2.427H11.388a2.128 2.128 0 0 1-2.126-2.126V18.524c0-8.623 6.58-15.686 14.98-16.08 9.017-.438 16.496 6.79 16.496 15.72V33.39a1.213 1.213 0 1 0 2.427 0V18.16C43.164 7.86 34.544-.46 24.13.02z"/><path d="M11.25 33.38l-.002.013c0 .005.003.008.003.013l-.002 12.18H38.75V21.2l-27.496.004-.003 12.176zm1.94 10.265l.002-9.282H24.03v2.464a2.201 2.201 0 0 0-1.24 1.977 2.21 2.21 0 0 0 4.42 0c0-.87-.507-1.617-1.24-1.977v-2.463h10.84v9.282H13.19zM36.81 23.14v9.282H13.192l.002-9.277 23.614-.004zM24.337 4.43c-7.14.335-12.886 6.36-13.082 13.712l-.027.997 27.522-.005v-.97c0-3.797-1.513-7.33-4.26-9.952a13.647 13.647 0 0 0-10.153-3.784zM13.26 17.196c.63-5.882 5.362-10.556 11.168-10.83.194-.008.386-.013.578-.013 3.053 0 5.926 1.147 8.144 3.263a11.685 11.685 0 0 1 3.62 7.576l-23.51.004z"/></g></svg>