<?xml version="1.0" encoding="utf-8"?>
<!-- Generator: Adobe Illustrator 24.0.1, SVG Export Plug-In . SVG Version: 6.00 Build 0)  -->
<svg version="1.1" id="Layer_1" xmlns="http://www.w3.org/2000/svg" xmlns:xlink="http://www.w3.org/1999/xlink" x="0px" y="0px"
	 viewBox="0 0 50 50" style="enable-background:new 0 0 50 50;" xml:space="preserve">
<style type="text/css">
	.st0{fill:#A6C1C2;}
	.st1{fill:#B9D7D9;}
	.st2{fill:#444444;}
</style>
<polygon class="st0" points="48.4,5.8 48.4,28 3.9,44.2 1.6,44.2 1.6,5.8 "/>
<polygon class="st1" points="48.4,5.8 48.4,9.4 1.6,28.5 1.6,5.8 "/>
<path class="st2" d="M26.2,45.4H0.3V4.6h49.4V28c0,0.7-0.6,1.2-1.2,1.2s-1.2-0.6-1.2-1.2V7.1H2.8V43h23.4c0.7,0,1.2,0.6,1.2,1.2
	S26.9,45.4,26.2,45.4z"/>
<g>
	<path class="st2" d="M29,26.3l-0.3,1.4h1.2l0.3-1.4H29z M29,26.3l-0.3,1.4h1.2l0.3-1.4H29z M4.2,12.9v28.3h41.5V12.9H4.2z M24,30.5
		c-0.3,0.3-0.6,0.5-0.9,0.7s-0.7,0.3-1.1,0.4s-0.8,0.1-1.1,0.1c-0.7,0-1.3-0.1-1.8-0.4s-1-0.6-1.4-1.1c-0.4-0.4-0.7-0.9-0.9-1.5
		c-0.2-0.6-0.3-1.1-0.3-1.7c0-0.5,0.1-1.1,0.3-1.6c0.2-0.5,0.5-1,0.9-1.4s0.9-0.8,1.4-1c0.6-0.3,1.2-0.4,1.9-0.4
		c0.9,0,1.6,0.2,2.2,0.5c0.6,0.4,1.1,0.8,1.4,1.4L23,25.6c-0.1-0.2-0.2-0.4-0.4-0.6c-0.2-0.2-0.3-0.3-0.5-0.4s-0.4-0.2-0.6-0.2
		s-0.4-0.1-0.6-0.1c-0.4,0-0.8,0.1-1,0.2c-0.3,0.2-0.5,0.4-0.7,0.6s-0.3,0.5-0.4,0.9c-0.1,0.3-0.1,0.6-0.1,1s0.1,0.7,0.2,1
		s0.3,0.6,0.5,0.9c0.2,0.2,0.5,0.5,0.8,0.6s0.6,0.2,1,0.2c0.2,0,0.4,0,0.6-0.1c0.2,0,0.4-0.1,0.6-0.2s0.3-0.2,0.5-0.4
		c0.2-0.2,0.3-0.3,0.4-0.6l1.7,1C24.4,29.9,24.2,30.2,24,30.5z M33.7,26.3h-1.9l-0.3,1.4h1.7v1.5h-2l-0.6,2.3H29l0.6-2.3h-1.2
		l-0.6,2.3h-1.6l0.6-2.3h-1.4v-1.5H27l0.3-1.4h-1.5v-1.4h1.9l0.6-2.4h1.6l-0.6,2.4h1.2l0.6-2.4h1.6l-0.6,2.4h1.6V26.3z M28.6,27.8
		h1.2l0.3-1.4H29L28.6,27.8z"/>
</g>
<g>
	<polygon class="st2" points="43.3,9.6 44.5,10.9 44.3,11.1 43.1,9.8 41.8,11.1 41.7,10.9 42.9,9.6 41.7,8.4 41.8,8.2 43.1,9.5 
		44.3,8.2 44.5,8.4 	"/>
</g>
</svg>
