<svg version="1" xmlns="http://www.w3.org/2000/svg" viewBox="0 0 50 50"><path fill="#FCC34F" d="M47.06 29.018V5.981c0-1.756-1.46-3.181-3.26-3.181H6.2c-1.8 0-3.26 1.425-3.26 3.181V44.02c0 .349.072.678.178.992L47.06 29.018z"/><path fill="#FDCF72" d="M37.428 2.8H6.2c-1.8 0-3.26 1.425-3.26 3.181v9.372L37.428 2.8z"/><path fill="#444" d="M43.799 1.55H6.201c-2.487 0-4.511 1.988-4.511 4.431V44.02c0 2.443 2.023 4.431 4.511 4.431h26.673a1.25 1.25 0 0 0 0-2.5H20.235V19.007H45.81v10.005a1.25 1.25 0 0 0 2.5 0V5.981c0-2.443-2.023-4.431-4.511-4.431zm-25.064 44.4H6.201c-1.108 0-2.011-.866-2.011-1.931V5.981c0-1.064.902-1.931 2.011-1.931h12.534v41.9zm1.5-28.443V4.05h23.564c1.108 0 2.011.866 2.011 1.931v11.526H20.235z"/></svg>