<?xml version="1.0" encoding="utf-8"?>
<!-- Generator: Adobe Illustrator 22.0.1, SVG Export Plug-In . SVG Version: 6.00 Build 0)  -->
<svg version="1.1" id="Layer_1" xmlns="http://www.w3.org/2000/svg" xmlns:xlink="http://www.w3.org/1999/xlink" x="0px" y="0px"
	 viewBox="0 0 50 50" style="enable-background:new 0 0 50 50;" xml:space="preserve">
<style type="text/css">
	.st0{fill:#9674EA;}
	.st1{fill:#B292F3;}
	.st2{fill:#464646;}
</style>
<g>
	<g>
		<path class="st0" d="M45.8,25c0-3.5-2.2-6.5-5.2-7.7c0.6-1.1,0.9-2.3,0.9-3.6c0-2.7-1.4-5-3.5-6.3L7.6,18.5
			c-2.1,1.5-3.5,4-3.5,6.7c0,3.5,2.2,6.5,5.2,7.7c-0.6,1.1-0.9,2.3-0.9,3.6c0,2.6,1.3,4.8,3.3,6.2l31.3-11.4
			C44.6,29.8,45.8,27.6,45.8,25z"/>
	</g>
	<g>
		<path class="st1" d="M34.2,6.3c-0.3-2.3-2.3-4.1-4.6-4.1c-2.4,0-4.3,1.7-4.6,4c-0.4-2.2-2.3-3.8-4.6-3.8c-2.4,0-4.3,1.8-4.6,4.1
			C11.6,6.6,8.4,9.9,8.4,14c0,1.3,0.3,2.6,1,3.7c-0.6,0.2-1.2,0.6-1.7,1L38.1,7.5C37,6.8,35.7,6.4,34.2,6.3z"/>
	</g>
	<g>
		<g>
			<path class="st2" d="M18.3,20.4c0,1.2,1,2.1,2.1,2.1s2.1-1,2.1-2.1c0-1-0.7-1.8-1.6-2.1v-3c0.9-0.2,1.6-1.1,1.6-2.1
				c0-1.2-1-2.1-2.1-2.1s-2.1,1-2.1,2.1c0,1,0.7,1.8,1.6,2.1v3C19,18.5,18.3,19.4,18.3,20.4z M19.3,13.3c0-0.6,0.5-1.1,1.1-1.1
				c0.6,0,1.1,0.5,1.1,1.1c0,0.6-0.5,1.1-1.1,1.1C19.8,14.4,19.3,13.9,19.3,13.3z M20.5,19.2c0.6,0,1.1,0.5,1.1,1.1
				c0,0.6-0.5,1.1-1.1,1.1c-0.6,0-1.1-0.5-1.1-1.1C19.3,19.7,19.8,19.2,20.5,19.2z"/>
		</g>
		<g>
			<path class="st2" d="M16.9,33.2v-2.5c0-0.2-0.1-0.4-0.3-0.5l-3.5-1.2c0,0,0,0,0-0.1c0-1-0.7-1.8-1.6-2.1V24
				c0.9-0.2,1.6-1.1,1.6-2.1c0-1.2-1-2.1-2.1-2.1c-1.2,0-2.1,1-2.1,2.1c0,1,0.7,1.8,1.6,2.1v2.9C9.6,27.2,8.9,28,8.9,29
				c0,1.2,1,2.1,2.1,2.1c0.8,0,1.5-0.5,1.9-1.1l3.1,1v2.2c-0.9,0.2-1.6,1.1-1.6,2c0,1.2,1,2.1,2.1,2.1c1.2,0,2.1-1,2.1-2.1
				C18.5,34.3,17.8,33.4,16.9,33.2z M9.8,22c0-0.6,0.5-1.1,1.1-1.1c0.6,0,1.1,0.5,1.1,1.1c0,0.6-0.5,1.1-1.1,1.1
				C10.3,23.1,9.8,22.6,9.8,22z M11,30.1c-0.6,0-1.1-0.5-1.1-1.1c0-0.6,0.5-1.1,1.1-1.1c0.6,0,1.1,0.5,1.1,1.1
				C12.1,29.6,11.6,30.1,11,30.1z M16.4,36.4c-0.6,0-1.1-0.5-1.1-1.1c0-0.6,0.5-1.1,1.1-1.1c0.6,0,1.1,0.5,1.1,1.1
				C17.6,35.9,17,36.4,16.4,36.4z"/>
		</g>
		<g>
			<path class="st2" d="M23.5,28c0-1.2-1-2.1-2.1-2.1c-0.7,0-1.3,0.3-1.7,0.8l-3.7-1.4v-6.7c0.9-0.2,1.6-1.1,1.6-2.1
				c0-1.2-1-2.1-2.1-2.1c-1.2,0-2.1,1-2.1,2.1c0,1,0.7,1.8,1.6,2.1v7.1c0,0.2,0.1,0.4,0.3,0.5l3.9,1.5c0,0.1,0,0.3,0,0.4
				c0,1,0.7,1.8,1.6,2.1v5.6c-0.9,0.2-1.6,1.1-1.6,2.1c0,1.2,1,2.1,2.1,2.1c1.2,0,2.1-1,2.1-2.1c0-1-0.7-1.8-1.6-2.1V30
				C22.8,29.8,23.5,29,23.5,28z M14.4,16.5c0-0.6,0.5-1.1,1.1-1.1c0.6,0,1.1,0.5,1.1,1.1c0,0.6-0.5,1.1-1.1,1.1
				C14.9,17.7,14.4,17.1,14.4,16.5z M22.5,37.7c0,0.6-0.5,1.1-1.1,1.1c-0.6,0-1.1-0.5-1.1-1.1c0-0.6,0.5-1.1,1.1-1.1
				C22,36.5,22.5,37,22.5,37.7z M21.4,29.1c-0.6,0-1.1-0.5-1.1-1.1c0-0.6,0.5-1.1,1.1-1.1c0.6,0,1.1,0.5,1.1,1.1
				C22.5,28.6,22,29.1,21.4,29.1z"/>
		</g>
	</g>
	<g>
		<g>
			<path class="st2" d="M29.8,18.3v-3c0.9-0.2,1.6-1.1,1.6-2.1c0-1.2-1-2.1-2.1-2.1s-2.1,1-2.1,2.1c0,1,0.7,1.8,1.6,2.1v3
				c-0.9,0.2-1.6,1.1-1.6,2.1c0,1.2,1,2.1,2.1,2.1s2.1-1,2.1-2.1C31.4,19.4,30.7,18.5,29.8,18.3z M29.3,14.4c-0.6,0-1.1-0.5-1.1-1.1
				c0-0.6,0.5-1.1,1.1-1.1c0.6,0,1.1,0.5,1.1,1.1C30.4,13.9,29.9,14.4,29.3,14.4z M30.4,20.4c0,0.6-0.5,1.1-1.1,1.1
				c-0.6,0-1.1-0.5-1.1-1.1c0-0.6,0.5-1.1,1.1-1.1C29.9,19.2,30.4,19.7,30.4,20.4z"/>
		</g>
		<g>
			<path class="st2" d="M31.2,35.3c0,1.2,1,2.1,2.1,2.1c1.2,0,2.1-1,2.1-2.1c0-1-0.7-1.8-1.6-2V31l3.1-1c0.4,0.7,1.1,1.1,1.9,1.1
				c1.2,0,2.1-1,2.1-2.1c0-1-0.7-1.8-1.6-2.1V24c0.9-0.2,1.6-1.1,1.6-2.1c0-1.2-1-2.1-2.1-2.1c-1.2,0-2.1,1-2.1,2.1
				c0,1,0.7,1.8,1.6,2.1v2.9c-0.9,0.2-1.6,1.1-1.6,2.1c0,0,0,0,0,0.1l-3.5,1.2c-0.2,0.1-0.3,0.3-0.3,0.5v2.5
				C31.9,33.4,31.2,34.3,31.2,35.3z M38.8,23.1c-0.6,0-1.1-0.5-1.1-1.1c0-0.6,0.5-1.1,1.1-1.1c0.6,0,1.1,0.5,1.1,1.1
				C39.9,22.6,39.4,23.1,38.8,23.1z M37.6,29c0-0.6,0.5-1.1,1.1-1.1c0.6,0,1.1,0.5,1.1,1.1c0,0.6-0.5,1.1-1.1,1.1
				C38.1,30.1,37.6,29.6,37.6,29z M32.2,35.3c0-0.6,0.5-1.1,1.1-1.1c0.6,0,1.1,0.5,1.1,1.1c0,0.6-0.5,1.1-1.1,1.1
				C32.7,36.4,32.2,35.9,32.2,35.3z"/>
		</g>
		<g>
			<path class="st2" d="M27.8,30v5.6c-0.9,0.2-1.6,1.1-1.6,2.1c0,1.2,1,2.1,2.1,2.1c1.2,0,2.1-1,2.1-2.1c0-1-0.7-1.8-1.6-2.1V30
				c0.9-0.2,1.6-1.1,1.6-2.1c0-0.1,0-0.3,0-0.4l3.9-1.5c0.2-0.1,0.3-0.3,0.3-0.5v-7.1c0.9-0.2,1.6-1.1,1.6-2.1c0-1.2-1-2.1-2.1-2.1
				c-1.2,0-2.1,1-2.1,2.1c0,1,0.7,1.8,1.6,2.1v6.7L30,26.7c-0.4-0.5-1-0.8-1.7-0.8c-1.2,0-2.1,1-2.1,2.1C26.2,29,26.9,29.8,27.8,30z
				 M34.2,17.7c-0.6,0-1.1-0.5-1.1-1.1c0-0.6,0.5-1.1,1.1-1.1c0.6,0,1.1,0.5,1.1,1.1C35.3,17.1,34.8,17.7,34.2,17.7z M28.3,36.5
				c0.6,0,1.1,0.5,1.1,1.1c0,0.6-0.5,1.1-1.1,1.1c-0.6,0-1.1-0.5-1.1-1.1C27.2,37,27.7,36.5,28.3,36.5z M27.2,28
				c0-0.6,0.5-1.1,1.1-1.1c0.6,0,1.1,0.5,1.1,1.1c0,0.6-0.5,1.1-1.1,1.1C27.7,29.1,27.2,28.6,27.2,28z"/>
		</g>
	</g>
	<path class="st2" d="M47.4,25c0-3.5-1.9-6.6-4.8-8.3c0.4-1,0.6-2,0.6-3.1c0-4.4-3.3-8.1-7.6-8.6c-0.8-2.4-3.1-4.1-5.7-4.1
		c-2,0-3.8,1-4.9,2.5c-1.1-1.5-2.9-2.5-4.9-2.5c-2.6,0-4.9,1.7-5.7,4.1c-4.3,0.5-7.6,4.2-7.6,8.6c0,1,0.2,2.1,0.6,3.1
		c-3,1.7-4.8,4.8-4.8,8.3c0,3.5,1.9,6.6,4.8,8.3c-0.4,1-0.6,2-0.6,3.1c0,4.4,3.3,8.1,7.6,8.6c0.8,2.4,3,4.1,5.7,4.1
		c2,0,3.8-1,4.8-2.5c1.1,1.5,2.9,2.5,4.9,2.5c2.6,0,4.9-1.7,5.6-4.1c4.3-0.5,7.6-4.2,7.6-8.6c0-1-0.2-2.1-0.6-3.1
		C45.5,31.6,47.4,28.5,47.4,25z M20.1,46.6c-1.7,0-3.2-1.3-3.4-3l-0.1-1.1l-1.1,0c-3.4,0-6.1-2.8-6.1-6.2c0-1.1,0.3-2.1,0.8-3
		l0.7-1.2l-1.3-0.5c-2.7-1.1-4.4-3.7-4.4-6.6c0-2.9,1.7-5.5,4.4-6.6l1.3-0.5l-0.7-1.2c-0.5-0.9-0.8-2-0.8-3c0-3.4,2.7-6.2,6.1-6.2
		l1.1,0l0.1-1.1c0.2-1.7,1.7-3,3.4-3c1.9,0,3.4,1.5,3.4,3.4c0,0.5,0.3,0.9,0.7,1.1v34.2c-0.4,0.2-0.7,0.6-0.7,1.1
		C23.6,45.1,22,46.6,20.1,46.6z M40.5,31.6l-1.3,0.5l0.7,1.2c0.5,0.9,0.8,2,0.8,3c0,3.4-2.7,6.2-6.1,6.2l-1.1,0l-0.1,1.1
		c-0.2,1.7-1.7,3-3.4,3c-1.9,0-3.4-1.6-3.4-3.4c0-0.5-0.3-0.9-0.7-1.1V7.9c0.4-0.2,0.7-0.6,0.7-1.1c0-1.9,1.5-3.4,3.4-3.4
		c1.7,0,3.2,1.3,3.4,3l0.1,1.1l1.1,0c3.4,0,6.1,2.8,6.1,6.2c0,1.1-0.3,2.1-0.8,3l-0.7,1.2l1.3,0.5c2.7,1.1,4.4,3.7,4.4,6.6
		C44.9,27.9,43.1,30.5,40.5,31.6z"/>
</g>
</svg>
