<?xml version="1.0" encoding="utf-8"?>
<!-- Generator: Adobe Illustrator 22.0.1, SVG Export Plug-In . SVG Version: 6.00 Build 0)  -->
<svg version="1.1" id="Layer_1" xmlns="http://www.w3.org/2000/svg" xmlns:xlink="http://www.w3.org/1999/xlink" x="0px" y="0px"
	 viewBox="0 0 50 50" style="enable-background:new 0 0 50 50;" xml:space="preserve">
<style type="text/css">
	.st0{fill:#BEE367;}
	.st1{fill:#D4FF73;}
	.st2{fill:#464646;}
</style>
<g>
	<g>
		<path class="st0" d="M47.1,10.3c0-0.2,0-0.4-0.1-0.6l-43.9,16v14.4c0,0,0,0,0,0.1l44-16V10.3z"/>
	</g>
	<g>
		<path class="st1" d="M44.6,7.8H5.5c-1.4,0-2.5,1.1-2.5,2.5v15.4L47,9.7C46.7,8.6,45.8,7.8,44.6,7.8z"/>
	</g>
	<g>
		<path class="st2" d="M44.5,43.6H5.4c-2,0-3.7-1.7-3.7-3.7V10.1c0-2,1.7-3.7,3.7-3.7h39.1c2,0,3.7,1.7,3.7,3.7v16.3
			c0,0.7-0.6,1.2-1.2,1.2s-1.2-0.6-1.2-1.2V10.1c0-0.7-0.5-1.2-1.2-1.2H5.4c-0.7,0-1.2,0.5-1.2,1.2v29.8c0,0.7,0.5,1.2,1.2,1.2h39.1
			c0.7,0,1.2,0.6,1.2,1.2S45.1,43.6,44.5,43.6z"/>
	</g>
	<g>
		<g>
			<path class="st2" d="M17.6,19.2H6.4c-0.6,0-1-0.4-1-1v-6c0-0.6,0.4-1,1-1h11.2c0.6,0,1,0.4,1,1v6C18.6,18.7,18.1,19.2,17.6,19.2z
				 M17.6,18.2v0.5V18.2L17.6,18.2z M6.4,12.1v6h11.2l0-6H6.4z"/>
		</g>
		<g>
			<g>
				<path class="st2" d="M16.7,38.9H6.4c-0.6,0-1-0.4-1-1v-5.5c0-0.6,0.4-1,1-1h10.3c0.6,0,1,0.4,1,1v5.5
					C17.7,38.4,17.2,38.9,16.7,38.9z M16.7,37.9v0.5V37.9C16.7,37.9,16.7,37.9,16.7,37.9z M6.4,32.4v5.5h10.3v-5.5H6.4z"/>
			</g>
			<g>
				<path class="st2" d="M30,38.9H19.7c-0.6,0-1-0.4-1-1v-5.5c0-0.6,0.4-1,1-1H30c0.6,0,1,0.4,1,1v5.5C31,38.4,30.5,38.9,30,38.9z
					 M30,37.9v0.5V37.9L30,37.9z M19.7,32.4v5.5H30l0-5.5H19.7z"/>
			</g>
			<g>
				<path class="st2" d="M43.3,38.9H33c-0.6,0-1-0.4-1-1v-5.5c0-0.6,0.4-1,1-1h10.3c0.6,0,1,0.4,1,1v5.5
					C44.3,38.4,43.9,38.9,43.3,38.9z M43.3,37.9v0.5V37.9L43.3,37.9z M33,32.4v5.5h10.3l0-5.5H33z"/>
			</g>
		</g>
		<g>
			<path class="st2" d="M43.4,19.2H20.1c-0.6,0-1-0.4-1-1v-6c0-0.6,0.4-1,1-1h23.3c0.6,0,1,0.4,1,1v6C44.4,18.7,43.9,19.2,43.4,19.2
				z M43.4,18.2v0.5V18.2C43.4,18.2,43.4,18.2,43.4,18.2z M20.1,12.1v6h23.3v-6H20.1z"/>
		</g>
		<g>
			<path class="st2" d="M43.4,30.8H6.4c-0.6,0-1-0.4-1-1v-9.1c0-0.6,0.4-1,1-1h37.1c0.6,0,1,0.4,1,1v9.1
				C44.4,30.3,44,30.8,43.4,30.8z M43.4,29.8v0.5V29.8L43.4,29.8z M6.4,20.7v9.1h37.1v-9.1H6.4z"/>
		</g>
	</g>
</g>
</svg>
