<?xml version="1.0" encoding="utf-8"?>
<!-- Generator: Adobe Illustrator 21.0.2, SVG Export Plug-In . SVG Version: 6.00 Build 0)  -->
<svg version="1.0" id="Layer_1" xmlns="http://www.w3.org/2000/svg" xmlns:xlink="http://www.w3.org/1999/xlink" x="0px" y="0px"
	 viewBox="0 0 50 50" enable-background="new 0 0 50 50" xml:space="preserve">
<g>
	<g>
		<path fill="#00C8E2" d="M46.663,25.776c0.009-0.258,0.02-0.516,0.02-0.776c0-11.975-9.708-21.683-21.683-21.683
			C13.025,3.317,3.317,13.025,3.317,25c0,5.585,2.113,10.677,5.582,14.521L46.663,25.776z"/>
	</g>
	<g>
		<path fill="#00DFFC" d="M39.683,9.198c-3.879-3.644-9.097-5.881-14.84-5.881c-11.106,0-20.257,8.353-21.527,19.117L39.683,9.198z"
			/>
	</g>
	<g>
		<g>
			<path fill="#444444" d="M25,47.779C12.44,47.779,2.221,37.561,2.221,25C2.221,12.44,12.44,2.221,25,2.221S47.779,12.44,47.779,25
				c0,0.605-0.491,1.096-1.096,1.096c-0.605,0-1.096-0.491-1.096-1.096c0-11.352-9.235-20.587-20.586-20.587S4.413,13.648,4.413,25
				S13.649,45.587,25,45.587c2.001,0,3.978-0.286,5.878-0.851c0.584-0.172,1.19,0.158,1.363,0.738
				c0.173,0.581-0.158,1.19-0.738,1.363C29.4,47.462,27.213,47.779,25,47.779z"/>
		</g>
		<g>
			<g>
				<path fill="#444444" d="M7.89,19.922l7.293,19.988C10.181,36.613,7.157,31.086,7.157,25C7.157,23.246,7.403,21.546,7.89,19.922
					 M7.903,17.398C6.851,19.712,6.28,22.296,6.28,25c0,7.392,4.297,13.792,10.547,16.857L7.903,17.398L7.903,17.398z"/>
			</g>
			<g>
				<path fill="#444444" d="M42.231,20.335c0.404,1.508,0.612,3.079,0.612,4.665c0,5.439-2.531,10.58-6.742,13.942l4.835-13.995
					C41.589,23.329,42.014,21.818,42.231,20.335 M41.436,16.016c0.06,0.601,0.12,1.232,0.09,1.923c0,1.893-0.331,4.026-1.412,6.701
					l-5.709,16.526C39.964,37.921,43.72,31.911,43.72,25C43.72,21.755,42.909,18.69,41.436,16.016L41.436,16.016z"/>
			</g>
			<g>
				<path fill="#444444" d="M25.353,29.28l4.677,12.854c-1.685,0.471-3.373,0.709-5.03,0.709c-1.382,0-2.774-0.163-4.151-0.485
					L25.353,29.28 M25.331,26.653l-5.619,16.316c1.683,0.481,3.456,0.751,5.288,0.751c2.193,0,4.267-0.391,6.19-1.022
					c-0.03-0.09-0.09-0.18-0.12-0.27L25.331,26.653L25.331,26.653z"/>
			</g>
			<g>
				<path fill="#444444" d="M24.97,7.157c3.878,0,7.609,1.251,10.679,3.552c-1.36,0.678-2.301,2.128-2.301,3.804
					c0,1.646,0.835,3.006,1.719,4.447l0.234,0.383c0.734,1.253,1.412,2.693,1.412,4.725c0,0.857-1.288,5.487-2.443,9.392
					l-5.496-16.439c0.595-0.051,1.018-0.101,1.046-0.104c0.911-0.107,1.533-0.838,1.48-1.738c-0.052-0.88-0.758-1.544-1.643-1.544
					c-0.037,0-0.074,0.001-0.129,0.005c-0.03,0.002-3.022,0.238-4.919,0.238c-1.777,0-4.829-0.235-4.876-0.239
					c-0.037-0.002-0.073-0.003-0.109-0.003c-0.912,0-1.62,0.695-1.647,1.616c-0.026,0.888,0.617,1.6,1.501,1.668
					c0.127,0.016,0.71,0.085,1.408,0.141l2.615,7.172l-3.163,9.511l-5.623-16.722c0.601-0.052,1.018-0.102,1.043-0.105
					c0.911-0.107,1.533-0.838,1.48-1.738c-0.052-0.88-0.758-1.544-1.643-1.544c-0.037,0-0.074,0.001-0.129,0.005
					c-0.027,0.002-2.544,0.2-4.423,0.233C14.412,9.64,19.506,7.157,24.97,7.157 M24.97,6.28c-6.52,0-12.29,3.365-15.625,8.443
					c0.451,0.03,0.841,0.03,1.202,0.03c1.953,0,4.988-0.24,4.988-0.24c0.02-0.001,0.04-0.002,0.06-0.002
					c0.966,0,1.061,1.416,0.06,1.534c0,0-0.992,0.12-2.133,0.18l6.821,20.282l4.086-12.29l-2.915-7.993
					c-0.992-0.06-1.953-0.18-1.953-0.18c-1.002-0.059-0.906-1.534,0.062-1.534c0.019,0,0.038,0.001,0.058,0.002
					c0,0,3.095,0.24,4.928,0.24c1.953,0,4.988-0.24,4.988-0.24c0.02-0.001,0.04-0.002,0.06-0.002c0.966,0,1.061,1.416,0.06,1.534
					c0,0-1.022,0.12-2.133,0.18l6.731,20.132c0,0,3.275-10.697,3.275-12.29c0-2.314-0.811-3.936-1.532-5.168
					c-0.931-1.532-1.833-2.855-1.833-4.387c0-1.743,1.322-3.335,3.155-3.335c0.09,0,0.15,0.03,0.24,0.03
					C34.285,8.143,29.838,6.28,24.97,6.28L24.97,6.28z"/>
			</g>
		</g>
	</g>
</g>
</svg>
