<?xml version="1.0" encoding="utf-8"?>
<!-- Generator: Adobe Illustrator 22.0.1, SVG Export Plug-In . SVG Version: 6.00 Build 0)  -->
<svg version="1.1" id="Layer_1" xmlns="http://www.w3.org/2000/svg" xmlns:xlink="http://www.w3.org/1999/xlink" x="0px" y="0px"
	 viewBox="0 0 50 50" style="enable-background:new 0 0 50 50;" xml:space="preserve">
<style type="text/css">
	.st0{fill:#00C8E2;}
	.st1{fill:#00DFFC;}
	.st2{fill:#444444;}
</style>
<g>
	<g>
		<polygon class="st0" points="48.2,20.2 1.8,37.1 1.8,3.9 48.2,3.9 		"/>
	</g>
	<g>
		<polygon class="st1" points="45.1,3.3 1.8,19 1.8,3.9 45.1,3.3 		"/>
	</g>
	<g>
		<path class="st2" d="M42.2,40.5c-0.1-0.1-0.3-0.1-0.5-0.1c-1.2,0-2,0.9-2,2.4c0,1.7,0.8,2.4,1.8,2.4c0.2,0,0.5,0,0.6-0.1
			L42.2,40.5L42.2,40.5z M38.1,42.8c0-2.2,1.4-3.9,3.7-3.9c0.2,0,0.3,0,0.5,0v-2.4c0-0.1,0-0.1,0.1-0.1h1.5c0.1,0,0.1,0,0.1,0.1v8.5
			c0,0.3,0,0.6,0,0.9c0,0.1,0,0.1-0.1,0.1c-0.8,0.4-1.6,0.5-2.4,0.5C39.5,46.6,38.1,45.4,38.1,42.8L38.1,42.8z M34.9,41.3l2.6,5.1
			c0,0.1,0,0.1-0.1,0.1h-1.6c-0.1,0-0.1,0-0.2-0.1c-0.6-1.2-1.2-2.5-1.8-3.8h0c-0.6,1.2-1.2,2.6-1.8,3.8c0,0.1-0.1,0.1-0.2,0.1h-1.5
			c-0.1,0-0.1-0.1-0.1-0.1l2.5-4.9l-2.5-4.9c-0.1-0.1,0-0.1,0.1-0.1H32c0.1,0,0.1,0,0.2,0.1c0.6,1.2,1.2,2.5,1.7,3.7h0
			c0.5-1.2,1.1-2.5,1.7-3.7c0-0.1,0.1-0.1,0.2-0.1h1.5c0.1,0,0.1,0.1,0.1,0.1L34.9,41.3L34.9,41.3z"/>
	</g>
	<g>
		<path class="st2" d="M10.2,11.5H8.1c-0.7,0-1.2-0.6-1.2-1.2S7.4,9,8.1,9h2.1c0.7,0,1.2,0.6,1.2,1.2S10.9,11.5,10.2,11.5z"/>
	</g>
	<g>
		<path class="st2" d="M18.7,11.5h-2.1c-0.7,0-1.2-0.6-1.2-1.2S15.9,9,16.6,9h2.1c0.7,0,1.2,0.6,1.2,1.2S19.4,11.5,18.7,11.5z"/>
	</g>
	<g>
		<path class="st2" d="M41.9,11.5h-8.4c-0.7,0-1.2-0.6-1.2-1.2S32.7,9,33.4,9h8.4c0.7,0,1.2,0.6,1.2,1.2S42.6,11.5,41.9,11.5z"/>
	</g>
	<g>
		<path class="st2" d="M48.2,17.8H1.8c-0.7,0-1.2-0.6-1.2-1.2s0.6-1.2,1.2-1.2h46.4c0.7,0,1.2,0.6,1.2,1.2S48.9,17.8,48.2,17.8z"/>
	</g>
	<g>
		<path class="st2" d="M20.8,47.3h-19c-0.7,0-1.2-0.6-1.2-1.2V3.9c0-0.7,0.6-1.2,1.2-1.2h46.4c0.7,0,1.2,0.6,1.2,1.2v33.7
			c0,0.7-0.6,1.2-1.2,1.2s-1.2-0.6-1.2-1.2V5.2H3.1v39.7h17.7c0.7,0,1.2,0.6,1.2,1.2S21.5,47.3,20.8,47.3z"/>
	</g>
	<g>
		<path class="st2" d="M17,42.4H7.1c-1,0-1.8-0.8-1.8-1.8v-9.9c0-1,0.8-1.8,1.8-1.8H17c1,0,1.8,0.8,1.8,1.8v9.9
			C18.8,41.6,18,42.4,17,42.4z M7.1,30.5c-0.1,0-0.2,0.1-0.2,0.2v9.9c0,0.1,0.1,0.2,0.2,0.2H17c0.1,0,0.2-0.1,0.2-0.2v-9.9
			c0-0.1-0.1-0.2-0.2-0.2H7.1z"/>
	</g>
	<g>
		<path class="st2" d="M43,33.7H33c-1,0-1.8-0.8-1.8-1.8V22c0-1,0.8-1.8,1.8-1.8H43c1,0,1.8,0.8,1.8,1.8v9.9
			C44.7,32.9,43.9,33.7,43,33.7z M33,21.8c-0.1,0-0.2,0.1-0.2,0.2v9.9c0,0.1,0.1,0.2,0.2,0.2H43c0.1,0,0.2-0.1,0.2-0.2V22
			c0-0.1-0.1-0.2-0.2-0.2H33z"/>
	</g>
	<g>
		<g>
			<circle class="st2" cx="34.9" cy="27.6" r="1.3"/>
		</g>
		<g>
			<g>
				<path class="st2" d="M15.8,37.2c-0.2,0-0.3-0.1-0.5-0.2c-0.3-0.3-0.4-0.7-0.1-1.1c2.3-2.8,8.8-9.3,19.7-9.1
					c0.4,0,0.7,0.3,0.7,0.8s-0.4,0.8-0.8,0.7c-10.2-0.2-16.3,5.9-18.5,8.5C16.2,37.1,16,37.2,15.8,37.2z"/>
			</g>
			<g>
				<circle class="st2" cx="15.5" cy="36.8" r="1.3"/>
			</g>
		</g>
	</g>
</g>
</svg>
