<svg version="1" xmlns="http://www.w3.org/2000/svg" viewBox="0 0 50 50"><path fill="#4ECDC4" d="M6.85 10.8h1.664L18.84 24.665 11.3 35.28l22.005-8.01-1.745-2.51L41.6 10.8h1.557a3.084 3.084 0 0 0 3.084-3.084v-3.49a3.083 3.083 0 0 0-3.083-3.084H29.962a3.088 3.088 0 0 0-3.088 3.088v3.48a3.089 3.089 0 0 0 3.088 3.09h.163l-5.04 7.17-5.766-7.17h.545a3.088 3.088 0 0 0 3.088-3.09V4.23a3.088 3.088 0 0 0-3.088-3.088H6.85a3.09 3.09 0 0 0-3.09 3.09V7.71a3.09 3.09 0 0 0 3.09 3.09z"/><path fill="#46B8B0" d="M29.962 10.8h.163l-.243.346 16.36-5.954v-.966a3.085 3.085 0 0 0-3.085-3.084H29.962a3.088 3.088 0 0 0-3.088 3.088v3.48a3.089 3.089 0 0 0 3.088 3.09zm-23.112 0h1.664l4.76 6.39 8.652-3.148L19.32 10.8h.545a3.088 3.088 0 0 0 3.088-3.09V4.23a3.088 3.088 0 0 0-3.088-3.088H6.85a3.09 3.09 0 0 0-3.09 3.09V7.71a3.09 3.09 0 0 0 3.09 3.09z"/><path fill="#444" d="M38.11 50h-8.154a4.228 4.228 0 0 1-4.224-4.224v-3.494c0-1.7 1.01-3.168 2.46-3.838l-3.31-4.676-3.478 4.577a4.232 4.232 0 0 1 2.692 3.937v3.494A4.228 4.228 0 0 1 19.872 50H6.85a4.237 4.237 0 0 1-4.233-4.23v-3.48a4.236 4.236 0 0 1 4.232-4.232h1.075L17.43 24.68 7.94 11.943H6.85a4.237 4.237 0 0 1-4.232-4.232V4.232A4.237 4.237 0 0 1 6.85 0h13.015a4.235 4.235 0 0 1 4.23 4.23v3.482c0 1.77-1.093 3.29-2.64 3.92l3.57 4.44 3.173-4.515a4.238 4.238 0 0 1-2.467-3.845v-3.48A4.237 4.237 0 0 1 29.963 0h13.195a4.231 4.231 0 0 1 4.226 4.226v3.49a4.231 4.231 0 0 1-4.226 4.226h-.97l-9.228 12.83 9.238 13.286h.966a4.224 4.224 0 0 1 4.22 4.22v2a1.143 1.143 0 0 1-2.283.003v-2.003c0-1.067-.87-1.935-1.936-1.935h-2.16L30.16 24.75 41.016 9.658h2.142c1.07 0 1.942-.87 1.942-1.942v-3.49c0-1.07-.872-1.942-1.943-1.942H29.962a1.948 1.948 0 0 0-1.946 1.946v3.48c0 1.074.873 1.947 1.946 1.947h2.362L25.148 19.87 16.935 9.658h2.93a1.948 1.948 0 0 0 1.946-1.946v-3.48a1.948 1.948 0 0 0-1.945-1.947H6.85a1.95 1.95 0 0 0-1.948 1.948V7.71A1.95 1.95 0 0 0 6.85 9.658h2.238l11.166 14.99-11.15 15.694H6.85a1.95 1.95 0 0 0-1.948 1.947v3.48a1.95 1.95 0 0 0 1.947 1.946H19.87c1.07 0 1.94-.87 1.94-1.94v-3.494c0-1.07-.87-1.94-1.94-1.94h-2.854l7.93-10.436 7.386 10.436h-2.377c-1.07 0-1.94.87-1.94 1.94v3.494c0 1.07.87 1.94 1.94 1.94h8.154a1.141 1.141 0 1 1 0 2.284z"/></svg>