<?xml version="1.0" encoding="UTF-8"?>
<svg id="Camada_2" data-name="Camada 2" xmlns="http://www.w3.org/2000/svg" width="44.88" height="44.88" viewBox="0 0 44.88 44.88">
  <defs>
    <style>
      .cls-1 {
        fill: #b68af3;
      }

      .cls-2 {
        fill: #e5e5e5;
      }
    </style>
  </defs>
  <g id="Camada_2-2" data-name="Camada 2">
    <g>
      <path class="cls-1" d="m38.35,20.67h-3.17l.3.52c.28.48.28,1.08,0,1.55-.28.48-.79.78-1.34.78h-8.94c-.55,0-1.07-.3-1.35-.78-.28-.48-.28-1.08,0-1.55l4.47-7.74c.19-.33.5-.57.86-.69v-3.23c0-.93-.86-1.69-1.92-1.69h-6.62c-.18,2.27-1.95,4.07-4.2,4.31v20.78c0,1,.6,1.85,1.45,2.24v-2.47c0-1.17.95-2.13,2.13-2.13h5.91c1.17,0,2.13.95,2.13,2.13v2.83h10.5c1.2,0,2.17-.73,2.17-1.62v-11.06c0-1.2-1.06-2.17-2.37-2.17Z"/>
      <rect class="cls-1" x="19.89" y="32.57" width="6.16" height="6.16" rx=".13" ry=".13"/>
      <path class="cls-1" d="m18.67,7.46c0-1.51-1.23-2.73-2.73-2.73s-2.73,1.23-2.73,2.73,1.23,2.73,2.73,2.73,2.73-1.23,2.73-2.73Z"/>
      <polygon class="cls-1" points="33.36 21.52 29.66 15.11 25.97 21.52 33.36 21.52"/>
      <polygon class="cls-1" points="4.98 24.63 4.98 27.84 7.76 29.45 10.54 27.84 10.54 24.63 7.76 23.03 4.98 24.63"/>
      <path class="cls-1" d="m43.46,8.72h1.42v-3.14c0-3.08-2.5-5.58-5.58-5.58h-.2v4.65c2.25.15,4.07,1.86,4.37,4.07Z"/>
      <path class="cls-1" d="m38.79,6.62c-1.51,0-2.73,1.23-2.73,2.73s1.23,2.73,2.73,2.73,2.73-1.23,2.73-2.73-1.23-2.73-2.73-2.73Z"/>
      <path class="cls-1" d="m38.79,14.08c-2.61,0-4.73-2.12-4.73-4.73,0-2.37,1.76-4.32,4.04-4.66V0H5.58C2.5,0,0,2.5,0,5.58v33.72c0,3.08,2.5,5.58,5.58,5.58h33.72c.96,0,1.87-.24,2.66-.67,1.74-.94,2.92-2.79,2.92-4.91v-10.64h-3.16v5.24c0,1.45-1.42,2.62-3.17,2.62h-10.5v2.08c0,1.17-.95,2.13-2.13,2.13h-5.91c-1.17,0-2.13-.95-2.13-2.13v-2.38c-1.41-.44-2.45-1.75-2.45-3.3v-6.35h-2.9v1.45c0,.6-.32,1.16-.84,1.46l-3.09,1.79c-.26.15-.55.23-.85.23s-.58-.07-.84-.22l-3.09-1.79c-.52-.3-.84-.86-.84-1.46v-3.57c0-.6.32-1.16.85-1.46l3.09-1.78c.52-.3,1.17-.3,1.69,0l3.09,1.78c.52.3.84.86.84,1.46v1.12h2.9v-13.42c-2.37-.25-4.23-2.24-4.23-4.68,0-2.61,2.12-4.73,4.73-4.73,2.39,0,4.36,1.79,4.67,4.1h6.65c1.61,0,2.92,1.21,2.92,2.69v3.24c.34.12.64.35.83.68h0s3.59,6.22,3.59,6.22h3.75c1.86,0,3.37,1.42,3.37,3.17v4.82h3.16V9.72h-1.39c-.19,2.44-2.21,4.36-4.7,4.36Z"/>
      <path class="cls-2" d="m41.72,22.84c0-1.75-1.51-3.17-3.37-3.17h-3.75l-3.59-6.22h0c-.19-.32-.49-.56-.83-.68v-3.24c0-1.49-1.31-2.69-2.92-2.69h-6.65c-.31-2.31-2.28-4.1-4.67-4.1-2.61,0-4.73,2.12-4.73,4.73,0,2.44,1.86,4.43,4.23,4.68v13.42h-2.9v-1.12c0-.6-.32-1.16-.84-1.46l-3.09-1.78c-.52-.3-1.17-.3-1.69,0l-3.09,1.78c-.52.3-.85.86-.85,1.46v3.57c0,.6.32,1.16.84,1.46l3.09,1.79c.26.15.55.22.84.22s.58-.08.85-.23l3.09-1.79c.52-.3.84-.86.84-1.46v-1.45h2.9v6.35c0,1.56,1.04,2.86,2.45,3.3v2.38c0,1.17.95,2.13,2.13,2.13h5.91c1.17,0,2.13-.95,2.13-2.13v-2.08h10.5c1.75,0,3.17-1.18,3.17-2.62v-5.24h3.16v-1h-3.16v-4.82Zm-31.18,5l-2.78,1.61-2.78-1.61v-3.21l2.78-1.61,2.78,1.61v3.21Zm19.12-12.73l3.7,6.4h-7.4l3.7-6.4ZM13.2,7.46c0-1.51,1.23-2.73,2.73-2.73s2.73,1.23,2.73,2.73-1.23,2.73-2.73,2.73-2.73-1.23-2.73-2.73Zm12.84,31.14c0,.07-.06.13-.13.13h-5.91c-.07,0-.13-.06-.13-.13v-5.91c0-.07.06-.13.13-.13h5.91c.07,0,.13.06.13.13v5.91Zm14.68-10.94v6.24c0,.89-.97,1.62-2.17,1.62h-10.5v-2.83c0-1.17-.95-2.13-2.13-2.13h-5.91c-1.17,0-2.13.95-2.13,2.13v2.47c-.85-.39-1.45-1.25-1.45-2.24V12.14c2.25-.24,4.02-2.05,4.2-4.31h6.62c1.06,0,1.92.76,1.92,1.69v3.23c-.36.12-.67.36-.86.69l-4.47,7.74c-.28.48-.28,1.07,0,1.55.28.48.79.78,1.35.78h8.94c.55,0,1.07-.3,1.34-.78.28-.48.28-1.07,0-1.55l-.3-.52h3.17c1.31,0,2.37.97,2.37,2.17v4.82Z"/>
      <path class="cls-2" d="m43.46,8.72c-.3-2.21-2.11-3.93-4.37-4.07V0h-1v4.69c-2.28.34-4.04,2.29-4.04,4.66,0,2.61,2.12,4.73,4.73,4.73s4.5-1.93,4.7-4.36h1.39v-1h-1.42Zm-4.67,3.36c-1.51,0-2.73-1.23-2.73-2.73s1.23-2.73,2.73-2.73,2.73,1.23,2.73,2.73-1.23,2.73-2.73,2.73Z"/>
    </g>
  </g>
</svg>