<?xml version="1.0" encoding="UTF-8"?>
<svg id="Camada_3" xmlns="http://www.w3.org/2000/svg" version="1.1" viewBox="0 0 50 50">
  <!-- Generator: Adobe Illustrator 29.1.0, SVG Export Plug-In . SVG Version: 2.1.0 Build 142)  -->
  <defs>
    <style>
      .st0 {
        fill: #319327;
      }

      .st1, .st2 {
        fill: none;
        stroke: #444;
        stroke-linecap: round;
        stroke-linejoin: round;
      }

      .st2 {
        stroke-width: 2.5px;
      }

      .st3 {
        fill: #5aba52;
      }
    </style>
  </defs>
  <polygon class="st0" points="27.8 18.1 35.7 20.5 29 25.3 29.1 33.5 22.5 28.6 14.7 31.2 17.3 23.4 12.4 16.9 20.6 17 25.4 10.3 27.8 18.1"/>
  <g>
    <path class="st3" d="M43.6,12.8l-5.6-3.6-7.7-4.4-6-2.8C21.2,2,2.9,10.9,2.9,14.1l-.5,7.8.5,15.1,11.5,7.6,31-11c.7-.4-.8-18.7-1.8-20.7Z"/>
    <path class="st2" d="M28.9,46.5l-2.2,1.3c-1.7,1-3.8,1-5.5,0l-15.6-9c-1.7-1-2.7-2.8-2.7-4.7v-18c0-2,1-3.8,2.7-4.7L21.3,2.4c1.7-1,3.8-1,5.5,0l15.6,9c1.7,1,2.7,2.8,2.7,4.7v18c0,2-1,3.8-2.7,4.7l-2.5,1.4"/>
    <path class="st1" d="M40.4,21.7h-8.3l5.8-5.8c.4-.4.4-1.1,0-1.5l-3.3-3.3c-.4-.4-1.1-.4-1.5,0l-5.8,5.8v-8.3c0-.6-.5-1-1-1h-4.7c-.6,0-1,.5-1,1v8.3l-5.8-5.8c-.4-.4-1.1-.4-1.5,0l-3.3,3.3c-.4.4-.4,1.1,0,1.5l5.8,5.8H7.6c-.6,0-1,.5-1,1v4.7c0,.6.5,1,1,1h8.3l-5.8,5.8c-.4.4-.4,1.1,0,1.5l3.3,3.3c.4.4,1.1.4,1.5,0l5.8-5.8v8.3c0,.6.5,1,1,1h4.7c.6,0,1-.5,1-1v-8.3l5.8,5.8c.4.4,1.1.4,1.5,0l3.3-3.3c.4-.4.4-1.1,0-1.5l-5.8-5.8h8.3c.6,0,1-.5,1-1v-4.7c0-.6-.5-1-1-1ZM27.1,29.4h-6.2c-.7,0-1.2-.5-1.2-1.2v-6.2c0-.7.5-1.2,1.2-1.2h6.2c.7,0,1.2.5,1.2,1.2v6.2c0,.7-.5,1.2-1.2,1.2Z"/>
  </g>
</svg>