<?xml version="1.0" encoding="utf-8"?>
<!-- Generator: Adobe Illustrator 24.0.1, SVG Export Plug-In . SVG Version: 6.00 Build 0)  -->
<svg version="1.1" id="Layer_1" xmlns="http://www.w3.org/2000/svg" xmlns:xlink="http://www.w3.org/1999/xlink" x="0px" y="0px"
	 viewBox="0 0 50 50" style="enable-background:new 0 0 50 50;" xml:space="preserve">
<style type="text/css">
	.st0{fill:#E589EF;}
	.st1{fill:#F799FF;}
	.st2{fill:#444444;}
</style>
<g>
	<g>
		<path class="st0" d="M39.1,26.1c0-1.9-1.3-4.2-3-5.1l-0.4-0.2c-1.6-0.9-3-3.2-3-5.1v-3.1l-22,8v4.2v0.2v8.6c0,0.2,0,0.4,0.1,0.7
			c0,0.1,0,0.1,0,0.2c0,0.2,0.1,0.3,0.1,0.5c0,0.1,0.1,0.2,0.1,0.2c0,0.2,0.1,0.3,0.2,0.4c0,0.1,0.1,0.2,0.1,0.2
			c0.1,0.2,0.2,0.3,0.2,0.5c0,0.1,0.1,0.1,0.1,0.2c0.1,0.2,0.3,0.4,0.4,0.6c0,0,0.1,0.1,0.1,0.1c0.1,0.2,0.2,0.3,0.4,0.4
			c0.1,0.1,0.1,0.1,0.2,0.2c0.1,0.1,0.1,0.1,0.2,0.2c0,0,0,0,0,0c0.1,0.1,0.1,0.1,0.2,0.2l25.9-9.4V26.1z"/>
	</g>
	<g>
		<path class="st1" d="M32.7,9.7c0-1.8-1.3-4.1-2.9-5L26,2.5c-0.8-0.5-1.5-0.5-2-0.2l-5.8,3.3c0,0,0,0,0,0c-0.5,0.3-0.8,0.9-0.8,1.9
			V12l-0.2,0l-5.1,3c0.1-0.1,0.3-0.1,0.4-0.1c-0.1,0-0.3,0.1-0.4,0.1c-0.5,0.3-0.8,0.9-0.8,1.9v3.9l21.4-7.8V9.7z"/>
	</g>
	<g>
		<path class="st2" d="M23,9.8c-0.7-0.4-1.3-0.4-1.8-0.1c-0.5,0.3-0.8,0.9-0.8,1.7c0,1.4,0.9,3,2.1,3.7c0.4,0.2,0.7,0.3,1.1,0.3
			c0.3,0,0.5-0.1,0.7-0.2c0.5-0.3,0.8-0.9,0.8-1.7C25.2,12.2,24.2,10.5,23,9.8z M23.9,14.3c-0.2,0.1-0.5,0.1-0.8-0.1
			c-0.9-0.5-1.6-1.8-1.6-2.8c0-0.4,0.1-0.7,0.3-0.8c0.1,0,0.1-0.1,0.2-0.1c0.2,0,0.4,0.1,0.6,0.2c0.9,0.5,1.6,1.8,1.6,2.8
			C24.2,13.9,24.1,14.2,23.9,14.3z"/>
		<path class="st2" d="M36.8,19.9l-0.4-0.2c-1.2-0.7-2.3-2.6-2.3-4V9.2c0-2.3-1.6-5-3.6-6.2l-3.9-2.2c-1.2-0.7-2.4-0.8-3.3-0.2
			L17.4,4c-0.9,0.5-1.5,1.6-1.5,3l0,3.9l-4.8,2.8c0,0,0,0,0,0c-0.9,0.5-1.5,1.6-1.5,3v16.9c0,0.3,0,0.6,0.1,0.9c0,0.1,0,0.1,0.1,0.3
			c0,0.2,0.1,0.4,0.1,0.6c0,0.1,0.1,0.2,0.1,0.3c0.1,0.2,0.1,0.4,0.2,0.6l0.1,0.2c0.1,0.2,0.2,0.4,0.3,0.6l0.1,0.2
			c0.1,0.2,0.3,0.5,0.5,0.7l0.1,0.1c0.1,0.2,0.3,0.4,0.4,0.5c0.1,0.1,0.1,0.1,0.2,0.2c0.1,0.1,0.1,0.1,0.1,0.1c0,0,0,0,0,0l0.4,0.5
			l0.1,0c0.2,0.2,0.4,0.3,0.6,0.4l16.4,9.5c0.3,0.2,0.5,0.3,0.8,0.4c0.3,0.1,0.6,0.2,0.8,0.2c0.1,0,0.2,0,0.3,0c0.2,0,0.4,0,0.6-0.1
			c0.3-0.1,0.6-0.2,0.8-0.3l5.9-3.4c0.9-0.5,1.5-1.6,1.5-3V26.1C40.4,23.8,38.8,21.1,36.8,19.9z M29.3,5.2c1.2,0.7,2.3,2.6,2.3,4
			v6.4c0,2.3,1.6,5,3.6,6.2l0.4,0.2c1.2,0.7,2.3,2.6,2.3,4v4.6l-3.7,2.1V30c0-2-1.4-4.4-3.1-5.4l-0.4-0.2c-1.4-0.8-2.6-2.9-2.6-4.6
			v-6.3v0c0-2-1.4-4.4-3.1-5.4L23,7l-1.9-1.1c-0.2-0.1-0.3-0.2-0.5-0.2l4.2-2.4c0.3-0.2,0.6-0.2,1,0L29.3,5.2z M37.9,43
			c0,0.2,0,0.4-0.1,0.5l-3.6,2.1v-6.7l0-0.6l3.7-2.1V43z M31.5,47.3c-0.1,0-0.2,0-0.3-0.1c-0.1,0-0.2-0.1-0.4-0.2l-0.4-0.3
			c-0.1-0.4-0.1-0.9-0.2-1.3c-0.3-2.2-0.3-2.5-0.7-2.6l-0.3-0.1l-0.3,0.1c-0.3,0.2-0.4,0.5-0.6,2.1c0,0.2-0.1,0.4-0.1,0.6l-0.9-0.5
			c0-0.1,0-0.1-0.1-0.2c-0.2-0.9-0.3-1.3-0.6-1.5l-0.3-0.1l-0.2,0.1c-0.3,0.1-0.4,0.4-0.5,0.7L25.7,44c-0.1-1-0.2-2.6-0.3-3.9
			c-0.3-5-0.3-5-0.7-5.2l-0.1-0.1h-0.3l-0.1,0.1c-0.3,0.2-0.4,0.2-0.6,4.8c-0.1,1-0.1,2.2-0.2,3.1l-1.7-1c-0.1-0.6-0.2-1.4-0.2-2
			c-0.3-3-0.4-3.1-0.7-3.3l-0.3-0.1l-0.2,0.1c-0.3,0.2-0.4,0.4-0.6,2.9c0,0.4-0.1,0.8-0.1,1.2l-1.1-0.6c-0.1-1-0.2-2.7-0.3-4.1
			c-0.3-5.2-0.4-5.2-0.7-5.4l-0.3-0.2l-0.3,0.1c-0.3,0.2-0.4,0.2-0.6,4.9c0,1-0.1,2.3-0.2,3.2l-0.3-0.2c-0.1-0.3-0.1-0.6-0.2-0.8
			c-0.3-1.6-0.4-1.9-0.7-2.1l-0.3-0.2l-0.2,0.1c-0.4,0.2-0.4,0.5-0.6,1.6c0,0,0,0.1,0,0.1L13.7,37l-0.2-0.2
			c-0.1-0.1-0.2-0.2-0.3-0.4l-0.1-0.1c-0.1-0.2-0.2-0.3-0.4-0.6l0,0c0-0.1-0.1-0.2-0.1-0.3c-0.1-0.2-0.1-0.4-0.2-0.6
			c0-0.1,0-0.2-0.1-0.3c-0.1-0.3-0.1-0.5-0.1-0.8v-7.5l20.8,12v8l-1.5,0.9C31.6,47.3,31.6,47.3,31.5,47.3z M17.1,39.1
			c0-0.4,0.1-1.1,0.1-1.9c0.1,0.9,0.1,1.6,0.2,2.1L17.1,39.1z M20.4,41c0-0.2,0-0.4,0.1-0.6c0,0.3,0.1,0.5,0.1,0.7L20.4,41z
			 M24.6,43.4l-0.3-0.2c0-0.4,0.1-1,0.1-1.9C24.5,42.2,24.6,42.9,24.6,43.4z M29.4,46.2L29.4,46.2c0-0.1,0-0.1,0-0.2
			C29.3,46,29.3,46.1,29.4,46.2z M12.4,17.4c0-0.7,0.2-1.2,0.6-1.4c0,0,0,0,0,0c0.1,0,0.2-0.1,0.3-0.1c0,0,0.1,0,0.1,0
			c0.1,0,0.1,0,0.2,0c0.1,0,0.2,0,0.3,0.1c0.1,0,0.1,0,0.2,0c0.2,0.1,0.3,0.1,0.5,0.2l0.4,0.2c0,0,0,0,0,0c0.2,0.1,0.4,0.2,0.6,0.3
			c0,0,0.1,0,0.1,0c0.2,0.1,0.4,0.1,0.6,0.1c0,0,0.1,0,0.1,0c0,0,0.1,0,0.1,0c0.1,0,0.2,0,0.3,0c0.1,0,0.1,0,0.2,0
			c0.2,0,0.4-0.1,0.5-0.2c0,0,0,0,0,0c0.7-0.4,1.1-1.2,1.1-2.3l0-6.3c0-0.7,0.2-1.2,0.6-1.4c0.4-0.2,0.9-0.2,1.5,0.2l1.9,1.1L24.4,9
			c1.4,0.8,2.6,2.9,2.6,4.6v6.3c0,0.7,0.2,1.6,0.5,2.3c0.6,1.3,1.5,2.5,2.6,3.1l0.4,0.2v0c1.1,0.6,2,1.9,2.4,3.3
			c0.1,0.4,0.2,0.9,0.2,1.3v2.9l-20.8-12V17.4z M17.5,14.3c0,0.7-0.2,1.2-0.6,1.4c-0.4,0.2-0.9,0.1-1.5-0.2c0,0,0,0-0.1,0L15,15.3
			c-0.2-0.1-0.3-0.2-0.5-0.2l3-1.7L17.5,14.3z M33.2,36.4l-20.8-12l0-2.3l20.8,12V36.4z M34.2,36.4l0-1.5l0-0.8l3.7-2.1v2.3
			L34.2,36.4z"/>
	</g>
</g>
</svg>
