<?xml version="1.0" encoding="utf-8"?>
<!-- Generator: Adobe Illustrator 22.1.0, SVG Export Plug-In . SVG Version: 6.00 Build 0)  -->
<svg version="1.1" id="Layer_1" xmlns="http://www.w3.org/2000/svg" xmlns:xlink="http://www.w3.org/1999/xlink" x="0px" y="0px"
	 viewBox="0 0 50 50" style="enable-background:new 0 0 50 50;" xml:space="preserve">
<style type="text/css">
	.st0{fill:#A6C1C2;}
	.st1{fill:#B9D7D9;}
	.st2{fill:#444444;}
	.st3{fill:none;stroke:#444444;stroke-width:0.25;stroke-miterlimit:10;}
</style>
<g>
	<g>
		<polygon class="st0" points="40,11.1 39.8,7.7 17.4,15.9 12.4,20.9 12.4,24.8 14.1,27.8 10.9,43.5 36.2,34.2 		"/>
	</g>
	<g>
		<polygon class="st1" points="39.5,1.5 25.3,1.5 20.2,3.7 17.9,11 19,14.6 17.9,15.7 39.8,7.7 		"/>
	</g>
	<g>
		<polygon class="st2" points="16.4,47 13.8,42.2 13.9,42.1 25.6,37.7 25.7,37.9 14.1,42.3 16.6,46.9 		"/>
	</g>
	<g>
		<path class="st3" d="M34.9,34.3"/>
	</g>
	<path class="st2" d="M13.3,33h6.8l-1.4-5.6h-0.2l-1.7-2.6l-3.8,0l1.5,2.6h0L13.3,33z M19.7,32.7h-6.2l1-5.1h3.8L19.7,32.7z"/>
	<g>
		<polygon class="st2" points="18.7,15.2 19.1,11.9 17.6,11.8 		"/>
	</g>
	<path class="st2" d="M38.3,2.9l0.1-0.2h-0.1l0-0.3l-0.2,0.3H24.7l-5,2.1l0,0l-0.5,0.2l0.4,0l-2.2,6.7l0,0l1.1,3.4L12.8,21v3.7
		l-0.2,0.2l0.2,0v0l0.1,0l1.5,2.7l-3.1,14.9h2.6l0.6,1.1l2,3.6l9.7-9.7l-0.3,0.1l6.3-24.1l5.3-9.1l0.6-1.1l0,0.1l0.4,8.6l-3.8,22.3
		l0.2,0l3.8-22.4L38.3,2.9z M17.7,11.8l2.2-6.8l12.2,0L30.5,12l0,0h-5.9l0.1-0.1L19,11.8l-0.3,2.9L17.7,11.8z M24.9,14.4h4.5
		l0.5,1.4l-7.1,0L24.9,14.4z M13.1,21.1l5.8-5.8l0,0l0,0l0.4-3.2l5,0.1l-2.6,3l-8.5,9.2V21.1z M21,16.1l-4.4,8.5l-3.5,0L21,16.1z
		 M16.5,46.7l-2.4-4.4l11.1-4.2L16.5,46.7z M25.6,37.7l-11.7,4.4h-2.3l3-14.6l0,0l-1.5-2.6l3.7,0l0.1-0.1c0.8,0,5.5,0,5.5,0V16
		l7.9,0l-0.7-1.9h-4.4l5.3-2l1.4,1.4L25.6,37.7z M32,13.2L30.8,12l1.7-7.1l-12.1,0L24.7,3H38L32,13.2z"/>
	<g>
		<path class="st2" d="M15.8,49.5l-6.4-6l3.2-15.8L11.1,25v-4.7l5.9-5.9l-1-3.2L18.5,3l5.9-2.6h15.6l0.5,10.9l0,0.1l-3.9,24
			c-0.1,0.7-0.8,1.1-1.4,1c-0.7-0.1-1.1-0.8-1-1.4l3.9-23.9L37.7,3H24.9l-4.4,1.9l-2,6.3l1.3,3.9l-6.3,6.3v3l1.7,3l-3.1,15.3
			l4.2,3.9L31,40.3c0.6-0.3,1.4,0,1.6,0.7c0.3,0.6,0,1.4-0.7,1.6L15.8,49.5z"/>
	</g>
</g>
</svg>
