<?xml version="1.0" encoding="utf-8"?>
<!-- Generator: Adobe Illustrator 22.0.1, SVG Export Plug-In . SVG Version: 6.00 Build 0)  -->
<svg version="1.1" id="Layer_1" xmlns="http://www.w3.org/2000/svg" xmlns:xlink="http://www.w3.org/1999/xlink" x="0px" y="0px"
	 viewBox="0 0 50 50" style="enable-background:new 0 0 50 50;" xml:space="preserve">
<style type="text/css">
	.st0{fill:#BEE367;}
	.st1{fill:#D4FF73;}
	.st2{fill:#444444;}
	.st3{fill:#464646;}
</style>
<g>
	<polygon class="st0" points="40.7,21.4 9.1,32.9 9.1,38.8 9.1,43.5 9,43.5 9,46.5 40.7,35 	"/>
	<path class="st1" d="M41,20.7l-1.8-1.2v-4.8v0l-1.3-1c0,0,0,0,0,0L34,11V7.8L29.7,5L25,1.8l-8.6,5.7c0,0,0,0,0,0l-0.4,0.3V11
		l-5.2,3.7v2.4v2.3c-1.1,0.8-1.8,1.2-1.8,1.2v12.4L41,21.5V20.7z"/>
	<path class="st2" d="M39.2,14.9l-5.1-3.7V8.2l-9-6l-9,6v3.1l-5.1,3.7v6.4l5.5-2.8l8.7-2.5l8.7,2.5l5.5,2.8V14.9z M16,18.1l-4.6,2.3
		v-5.3l4.6-3.3V18.1z M25,15.5L16.5,18V8.4L25,2.7l8.5,5.7v2.5V18L25,15.5L25,15.5z M38.7,20.5l-4.6-2.3v-6.3l4.6,3.3V20.5z"/>
	<g>
		<path class="st2" d="M25.6,48.4H9.1v-5.1h12.3L25.6,48.4z M9.6,47.9h14.9l-3.3-4.1H9.6V47.9z"/>
	</g>
	<g>
		<path class="st2" d="M41,48.4H24.5l4.1-5.1H41V48.4z M25.6,47.9h14.9v-4.1H28.9L25.6,47.9z"/>
	</g>
	<g>
		<path class="st2" d="M24.8,42.4c-2.5,0-4.8-0.1-7.2-0.6c-0.6-0.1-1.3-0.3-1.8-0.7c-0.7-0.6-0.8-1.6-0.7-2.4l0,0
			c0-1,0.2-2.3,1.4-2.7c2.3-0.9,5.2-1.1,7.4-1.1c2.2-0.1,4.6,0.1,7.4,0.4c1,0.1,2.1,0.3,2.7,1c0.7,0.7,0.8,1.7,0.7,2.5
			c0,0.8-0.2,1.9-0.9,2.6c-0.8,0.8-2.1,0.9-3.3,1C28.5,42.3,26.6,42.4,24.8,42.4z M15.5,38.6c0,0.8,0,1.5,0.6,2
			c0.4,0.4,1,0.5,1.6,0.6c4,0.8,8.2,0.6,12.8,0.4c1.1-0.1,2.3-0.2,3-0.8c0.6-0.6,0.7-1.5,0.8-2.2c0-0.7,0-1.6-0.6-2.2
			c-0.6-0.6-1.5-0.7-2.5-0.8c-2.8-0.3-5.2-0.5-7.4-0.4c-2.2,0.1-5,0.2-7.2,1.1C15.7,36.7,15.6,37.7,15.5,38.6L15.5,38.6z"/>
	</g>
	<path class="st2" d="M31.8,35.8H25h-6.7c-1.4,0-2.5,1-2.5,2.2v1c0,1.2,1.1,2.2,2.5,2.2H25h6.7c1.4,0,2.5-1,2.5-2.2v-1
		C34.2,36.7,33.1,35.8,31.8,35.8z M31.1,38.8h-6h-6c-0.3,0-0.5-0.2-0.5-0.4c0-0.2,0.2-0.4,0.5-0.4h6h6c0.3,0,0.5,0.2,0.5,0.4
		C31.5,38.6,31.3,38.8,31.1,38.8z"/>
	<path class="st2" d="M33.1,24.3c-2.9,0-5.3,2.1-5.3,4.8c0,2.6,2.4,4.8,5.3,4.8c2.9,0,5.3-2.1,5.3-4.8
		C38.5,26.5,36.1,24.3,33.1,24.3z M33.1,32.9c-1.5,0-2.9-0.7-3.7-1.8c0.4,0.3,1,0.5,1.6,0.5c1.5,0,2.7-1.1,2.7-2.4
		c0-1.3-1.2-2.4-2.7-2.4c-0.6,0-1.1,0.2-1.6,0.5c0.8-1.1,2.1-1.8,3.7-1.8c2.4,0,4.3,1.7,4.3,3.8S35.5,32.9,33.1,32.9z"/>
	<polygon class="st2" points="13.3,18 13.3,22.9 23.7,25.8 23.7,21.4 	"/>
	<polygon class="st2" points="36.8,18 36.8,22.9 26.4,25.8 26.4,21.4 	"/>
	<g>
		<path class="st3" d="M42,49.2H8.1l0-1.2l0-27.9l1.8-1.2v-4.7l5.1-3.7V7.4l10-6.7l10,6.7v3.1l5.1,3.7v4.7l1.7,1.2L42,49.2z
			 M10.6,46.7h28.9l0-25.3l-1.7-1.2v-4.7l-5.1-3.7V8.8l-7.5-5l-7.5,5v3.1l-5.1,3.7v4.7l-1.8,1.2L10.6,46.7z"/>
	</g>
	<path class="st2" d="M16.9,24.3c-2.9,0-5.3,2.1-5.3,4.8c0,2.6,2.4,4.8,5.3,4.8s5.3-2.1,5.3-4.8C22.2,26.5,19.9,24.3,16.9,24.3z
		 M16.9,32.9c-2.4,0-4.3-1.7-4.3-3.8s1.9-3.8,4.3-3.8c1.5,0,2.9,0.7,3.7,1.8c-0.4-0.3-1-0.5-1.6-0.5c-1.5,0-2.7,1.1-2.7,2.4
		c0,1.3,1.2,2.4,2.7,2.4c0.6,0,1.1-0.2,1.6-0.5C19.8,32.2,18.5,32.9,16.9,32.9z"/>
</g>
</svg>
