<svg xmlns="http://www.w3.org/2000/svg" id="Layer_1" x="0" y="0" version="1.1" viewBox="0 0 50 50" xml:space="preserve"><style>.st2{fill:#464646}</style><path fill="#e097fb" d="M42.7 3.8H8.3C4.8 3.8 2 6.6 2 10.1v11.3L46.7 5.2c-1.2-.9-2.5-1.4-4-1.4z"/><path fill="#ce87ea" d="M48.2 9.7c0-1.9-.9-3.7-2.3-4.8l-44.1 16v10.9c0 3.3 2.6 6.1 5.9 6.2v4.4l40.4-14.7.1-18z"/><path d="M37.8 47.8h-2.4v-3.2H33v3.2h-6.3v-3.2h-2.4v3.2h-6.9v-3.2H15v3.2h-2.8c-3.2 0-5.7-2.6-5.7-5.7v-3C3.1 38.4.6 35.3.6 31.8V9.7C.6 5.6 4 2.2 8.1 2.2H42c4.1 0 7.5 3.4 7.5 7.5v20c0 .7-.6 1.2-1.2 1.2s-1.3-.6-1.3-1.2v-20c0-2.8-2.2-5-5-5H8c-2.8 0-5 2.2-5 5v22.1c0 2.6 2.1 4.8 4.7 5h1.2v5.3c0 1.8 1.5 3.2 3.2 3.2h.3v-3.2h7.4v3.2h1.9v-3.2H29v3.2h1.3v-3.2h7.4v3.2c1.7-.1 3.1-1.5 3.1-3.2 0-.7.6-1.2 1.2-1.2s1.2.6 1.2 1.2c.3 3.1-2.2 5.7-5.4 5.7z" class="st2"/><path d="M13 23.3c-3.8 0-6.8 3-6.8 6.8s3 6.8 6.8 6.8 6.8-3 6.8-6.8c.1-3.7-3-6.8-6.8-6.8zm22.8 0c-3.8 0-6.8 3-6.8 6.8s3 6.8 6.8 6.8 6.8-3 6.8-6.8c-.1-3.7-3.1-6.8-6.8-6.8zM25.3 36.5c-1.1 0-2 .9-2 2s.9 2 2 2 2-.9 2-2-.9-2-2-2z" class="st2"/></svg>