<svg xmlns="http://www.w3.org/2000/svg" version="1" viewBox="0 0 50 50"><path fill="#FCC34F" d="M40.647 38.518l.353-.204V25.211l-1.267-1.108c.604-1.381.866-2.723.866-4.327 0-3.768-1.851-7.097-4.689-9.142l-1.038-.605-1.137-2.116L25 2.871 9 12.108v26.206l12.453 7.19 19.194-6.986z"/><path fill="#FDCF72" d="M33.858 8.141l-.123-.228L25 2.871 9 12.108v5.081z"/><path fill="#444" d="M41.218 23.741c.434-1.243.631-2.5.631-3.965 0-4.01-1.947-7.807-5.208-10.156l-.835-.493-1.139-2.118L25 1.427l-17.25 9.96v27.649l15.798 9.121c.197.113.412.167.624.167.953 0 1.078-.783 1.078-1.84V21.49l1.445-.834 1.742 1.747 1.469 4.404 3.515-2.068 5.003 1.969 1.327-.628v12.235a1.25 1.25 0 0 0 2.5 0v-13.67l-1.033-.904zM24.75 45.964l-14.5-8.371V13.119l14.5 8.371v24.474zM25 21.057l-14.5-8.371L25 4.314l7.802 4.504.005.01-3.122 4.57 1.438 3.061-5.748 2.874.954.957-1.329.767zm8.377 3.127l-3.192 1.879-1.292-3.874-2.674-2.718 5.564-2.783-1.524-3.244 2.192-3.208a10.56 10.56 0 0 1 6.767 9.838c0 1.053-.156 2.087-.458 3.075-.057.151-.105.303-.171.454l-.366.839.029.026c-.214.462-.463.91-.745 1.341l-4.13-1.625z"/></svg>