<svg xmlns="http://www.w3.org/2000/svg" id="Layer_1" x="0" y="0" version="1.1" viewBox="0 0 50 50" xml:space="preserve"><style>.st2{fill:#031326}</style><path fill="#c3ff68" d="M25.3 1.9c-11.7 0-14.1 10.4-14.1 10.4-.5 1.7-.7 3.5-.6 5.2 0 .3 0 .5.1.8l27.1-9.9C36 5.5 32.4 1.9 25.3 1.9z"/><path fill="#afe55d" d="M40 17.5c.1-1.8-.1-3.7-.7-5.5 0 0-.4-1.6-1.6-3.5l-27.1 9.9c.4 5.3 2.2 14.5.6 17.1-1.7 2.8-7.5 4.3-7.4 6 .2 1.8 2 2.2 4.2 1.5 2.2-.7 2.7-.3 2.3 1.6v.1L39 34.3c-.9-3.9.8-12.3 1-16.8z"/><path d="M46.5 40.2c-.7 0-1.3.5-1.3 1.2 0 .3-.1.4-.2.5-.3.2-1 .3-2.2-.1-1.2-.4-2.5-.7-3.4.1-.8.7-.7 1.9-.5 2.9.1.5 0 .9-.2 1-.1.1-.5 0-1.1-.3-.6-.4-1.1-.8-1.5-1.1-1-.8-1.9-1.5-3.5-1.3-1.6.3-1.8 1.9-1.8 2.7-.1.8-.1.9-.3 1-.3.1-.6.1-.9-.1-.6-.3-1-.9-1.2-1.3-.5-1.6-1.8-2.6-3.4-2.6s-2.9 1-3.4 2.6c-.1.4-.6 1-1.2 1.3-.3.2-.6.2-.9.1-.1 0-.2-.2-.3-1-.1-.8-.2-2.4-1.8-2.7-1.6-.3-2.5.4-3.5 1.3-.4.3-.9.7-1.5 1.1-.5.4-.9.4-1.1.3-.1-.1-.3-.5-.2-1 .2-1 .3-2.2-.5-2.9-.9-.8-2.1-.5-3.4-.1-1.2.4-2 .3-2.2.1 0 0-.1-.1-.2-.4.3-.4 1.6-1.1 2.4-1.6 1.8-1 3.8-2.2 4.8-3.8 1.3-2.2.9-6.9 0-13.4-.2-2-.5-3.8-.6-5.3-.1-1.6.1-3.2.5-4.8 0-.1 2.4-9.5 12.9-9.5s12.7 8.7 12.8 9.1v.1c.5 1.6.7 3.3.6 5.1-.1 1.4-.3 3.3-.6 5.3-.6 5.1-1.3 10.3-.2 12.8l.3.6c.8 1.3 2.2 2.2 3.3 2.9.2.1.4.2.7.2.4 0 .8-.2 1.1-.6.4-.6.2-1.4-.4-1.7-.8-.5-2-1.3-2.5-2.1 0-.1-.1-.1-.1-.2-.8-2-.1-7.3.4-11.6.3-2 .5-3.9.6-5.4.1-2-.1-4.1-.7-6C40 10.7 37 .6 25 .6 12.5.6 9.7 11.9 9.7 12c-.5 1.8-.7 3.7-.6 5.6 0 1.4.3 3.4.5 5.4.5 4.1 1.3 10.2.3 11.8-.7 1.1-2.4 2.1-3.9 2.9-2 1.2-3.8 2.1-3.7 3.8.1 1.3.7 2 1.3 2.4 1 .7 2.6.8 4.4.2.3-.1.6-.1.7-.2 0 .1 0 .2-.1.3-.3 1.5.2 2.9 1.2 3.6.5.3 1.9 1 3.9-.3.7-.5 1.2-.9 1.6-1.2.8-.6 1-.8 1.3-.8v.4c.1.9.2 2.5 1.9 3.1.4.2.8.2 1.3.2s1.1-.1 1.6-.4c1.1-.5 2.1-1.6 2.5-2.7.3-.9.9-.9 1.1-.9s.8 0 1.1.9c.4 1.1 1.3 2.2 2.5 2.7.9.5 2 .5 2.9.1 1.6-.6 1.8-2.2 1.9-3.1v-.4c.3 0 .5.2 1.3.8.4.3.9.7 1.6 1.2 2 1.3 3.4.7 3.9.3 1.1-.7 1.5-2.1 1.2-3.6 0-.1 0-.2-.1-.3.2 0 .4.1.7.2 1.8.6 3.4.5 4.4-.2.5-.4 1.2-1.1 1.3-2.4 0-.6-.5-1.1-1.2-1.2z" class="st2"/><path d="M25 24.2c-4.3 0-7.7-3.5-7.7-7.7 0-4.3 3.5-7.7 7.7-7.7s7.7 3.5 7.7 7.7-3.4 7.7-7.7 7.7zm0-14c-3.4 0-6.2 2.8-6.2 6.2 0 3.4 2.8 6.2 6.2 6.2s6.2-2.8 6.2-6.2c0-3.4-2.8-6.2-6.2-6.2z" class="st2"/><path d="M25 21.4c-2.7 0-5-2.2-5-5s2.2-5 5-5 5 2.2 5 5-2.3 5-5 5zm0-9.2c-2.3 0-4.2 1.9-4.2 4.2s1.9 4.2 4.2 4.2c2.3 0 4.2-1.9 4.2-4.2s-1.9-4.2-4.2-4.2z" class="st2"/><path d="M27 17.3c0-.4.3-.8.8-.8.1 0 .2 0 .3.1v-.2c0-1.7-1.4-3.1-3.1-3.1-.4 0-.7.1-1 .2.4.3.7.8.7 1.3 0 .9-.7 1.6-1.6 1.6-.5 0-.9-.2-1.2-.5 0 .2-.1.3-.1.5 0 1.7 1.4 3.1 3.1 3.1.3 0 .5 0 .8-.1 0-.1-.1-.2-.1-.2 0-.4.3-.7.7-.7.2 0 .4.1.6.3.3-.2.5-.5.7-.7-.3-.1-.6-.4-.6-.8zm-.3 7.9c-.2.8-.4 2-.5 2.1-.2.1-.8.3-1 .2-.2-.1-.2-1.6-.2-2.3 0 .7 0 2.2-.2 2.3-.2.1-.8-.1-1-.2-.1-.1-.4-1.3-.5-2.1-3.6.1-6.4.7-6.6 1.5-.1.4.6 1.6 2 2.6.2-1.2.7-3.3 1.1-3.3.3 0 .7 1.7.9 3.1.5-.5 1.3-.9 2.2-.9 2.1 0 2.1.8 2.1.8s0-.8 2.1-.8c.8 0 1.5.4 2 .8.3-1.4.6-2.9.9-2.9.4 0 .8 2.1 1.1 3.3 1.5-1.1 2.2-2.3 2.2-2.7-.2-.7-3-1.3-6.6-1.5zM14.5 9.3c-1.2 1.8-2.1 4.7-1.9 6.1.2 1.4 1.1.6 2-1.4.9-2 2.8-3.6 2.4-4.9-.4-1.2-1.8-.9-2.5.2zm6.6-3.8c.5.7.1 1.9-.9 2.5-1 .7-2.2.6-2.7-.1s-.1-1.9.9-2.5c1-.7 2.2-.6 2.7.1z" class="st2"/><path d="M25 31.9c-4.8 0-7.3-2.5-8-3.2-.6-.7-1-1.4-.9-1.9.3-1.9 8.5-1.9 8.9-1.9s8.6 0 8.9 1.9c.1.4-.3 1.1-.9 1.9-.7.7-3.2 3.2-8 3.2zm0-6.2c-5.1 0-8 .8-8.1 1.2 0 .1.1.6.7 1.3.6.7 2.9 3 7.4 3s6.8-2.3 7.4-3c.6-.7.7-1.2.7-1.3-.1-.4-3-1.2-8.1-1.2z" class="st2"/></svg>