<svg xmlns="http://www.w3.org/2000/svg" id="Layer_1" x="0" y="0" version="1.1" viewBox="0 0 50 50" xml:space="preserve"><style>.st2{fill:#031326}</style><path fill="#bee367" d="M40.7 21.4L9.1 32.9v10.6H9v3L40.7 35z"/><path fill="#d4ff73" d="M41 20.7l-1.8-1.2v-4.8l-1.3-1L34 11V7.8L29.7 5 25 1.8l-8.6 5.7-.4.3V11l-5.2 3.7v4.7c-1.1.8-1.8 1.2-1.8 1.2V33l32-11.5v-.8z"/><path d="M39.2 14.9l-5.1-3.7v-3l-9-6-9 6v3.1L11 15v6.4l5.5-2.8 8.7-2.5 8.7 2.5 5.5 2.8v-6.5zM16 18.1l-4.6 2.3v-5.3l4.6-3.3v6.3zm9-2.6L16.5 18V8.4L25 2.7l8.5 5.7V18L25 15.5zm13.7 5l-4.6-2.3v-6.3l4.6 3.3v5.3zM25.6 48.4H9.1v-5.1h12.3l4.2 5.1zm-16-.5h14.9l-3.3-4.1H9.6v4.1z" class="st2"/><path d="M41 48.4H24.5l4.1-5.1H41v5.1zm-15.4-.5h14.9v-4.1H28.9l-3.3 4.1zm-.8-5.5c-2.5 0-4.8-.1-7.2-.6-.6-.1-1.3-.3-1.8-.7-.7-.6-.8-1.6-.7-2.4 0-1 .2-2.3 1.4-2.7 2.3-.9 5.2-1.1 7.4-1.1 2.2-.1 4.6.1 7.4.4 1 .1 2.1.3 2.7 1 .7.7.8 1.7.7 2.5 0 .8-.2 1.9-.9 2.6-.8.8-2.1.9-3.3 1-2-.1-3.9 0-5.7 0zm-9.3-3.8c0 .8 0 1.5.6 2 .4.4 1 .5 1.6.6 4 .8 8.2.6 12.8.4 1.1-.1 2.3-.2 3-.8.6-.6.7-1.5.8-2.2 0-.7 0-1.6-.6-2.2-.6-.6-1.5-.7-2.5-.8-2.8-.3-5.2-.5-7.4-.4-2.2.1-5 .2-7.2 1.1-.9.4-1 1.4-1.1 2.3z" class="st2"/><path d="M31.8 35.8H18.3c-1.4 0-2.5 1-2.5 2.2v1c0 1.2 1.1 2.2 2.5 2.2h13.4c1.4 0 2.5-1 2.5-2.2v-1c0-1.3-1.1-2.2-2.4-2.2zm-.7 3h-12c-.3 0-.5-.2-.5-.4s.2-.4.5-.4h12c.3 0 .5.2.5.4-.1.2-.3.4-.5.4zm2-14.5c-2.9 0-5.3 2.1-5.3 4.8 0 2.6 2.4 4.8 5.3 4.8s5.3-2.1 5.3-4.8c.1-2.6-2.3-4.8-5.3-4.8zm0 8.6c-1.5 0-2.9-.7-3.7-1.8.4.3 1 .5 1.6.5 1.5 0 2.7-1.1 2.7-2.4 0-1.3-1.2-2.4-2.7-2.4-.6 0-1.1.2-1.6.5.8-1.1 2.1-1.8 3.7-1.8 2.4 0 4.3 1.7 4.3 3.8s-1.9 3.6-4.3 3.6zM13.3 18v4.9l10.4 2.9v-4.4z" class="st2"/><path d="M36.8 18v4.9l-10.4 2.9v-4.4z" class="st2"/><path fill="#031326" d="M42 49.2H8.1V20.1l1.8-1.2v-4.7l5.1-3.7V7.4L25 .7l10 6.7v3.1l5.1 3.7v4.7l1.7 1.2.2 29.1zm-31.4-2.5h28.9V21.4l-1.7-1.2v-4.7l-5.1-3.7v-3l-7.5-5-7.5 5v3.1l-5.1 3.7v4.7l-1.8 1.2-.2 25.2z"/><path d="M16.9 24.3c-2.9 0-5.3 2.1-5.3 4.8 0 2.6 2.4 4.8 5.3 4.8s5.3-2.1 5.3-4.8c0-2.6-2.3-4.8-5.3-4.8zm0 8.6c-2.4 0-4.3-1.7-4.3-3.8s1.9-3.8 4.3-3.8c1.5 0 2.9.7 3.7 1.8-.4-.3-1-.5-1.6-.5-1.5 0-2.7 1.1-2.7 2.4 0 1.3 1.2 2.4 2.7 2.4.6 0 1.1-.2 1.6-.5-.8 1.3-2.1 2-3.7 2z" class="st2"/></svg>