<?xml version="1.0" encoding="utf-8"?>
<!-- Generator: Adobe Illustrator 22.0.1, SVG Export Plug-In . SVG Version: 6.00 Build 0)  -->
<svg version="1.1" id="Layer_1" xmlns="http://www.w3.org/2000/svg" xmlns:xlink="http://www.w3.org/1999/xlink" x="0px" y="0px"
	 viewBox="0 0 50 50" style="enable-background:new 0 0 50 50;" xml:space="preserve">
<style type="text/css">
	.st0{fill:#D4FF73;}
	.st1{fill:#BEE367;}
	.st2{fill:#464646;}
</style>
<path class="st0" d="M42.7,3.8H8.3C4.8,3.8,2,6.6,2,10.1v11.3L46.7,5.2C45.5,4.3,44.2,3.8,42.7,3.8z"/>
<path class="st1" d="M48.2,9.7c0-1.9-0.9-3.7-2.3-4.8l-44.1,16v10.9c0,3.3,2.6,6.1,5.9,6.2v4.1c0,0.1,0,0.2,0,0.3l40.4-14.7
	L48.2,9.7L48.2,9.7z"/>
<g>
	<path class="st2" d="M37.8,47.8h-2.4v-3.2H33v3.2h-6.3v-3.2h-2.4v3.2h-6.9v-3.2H15v3.2h-2.8c-3.2,0-5.7-2.6-5.7-5.7v-3
		c-3.4-0.7-5.9-3.8-5.9-7.3V9.7c0-4.1,3.4-7.5,7.5-7.5H42c4.1,0,7.5,3.4,7.5,7.5v20c0,0.7-0.6,1.2-1.2,1.2S47,30.3,47,29.7v-20
		c0-2.8-2.2-5-5-5H8c-2.8,0-5,2.2-5,5v22.1c0,2.6,2.1,4.8,4.7,5h1.2v5.3c0,1.8,1.5,3.2,3.2,3.2h0.3v-3.2h7.4v3.2h1.9v-3.2H29v3.2
		h1.3v-3.2h7.4v3.2c1.7-0.1,3.1-1.5,3.1-3.2c0-0.7,0.6-1.2,1.2-1.2s1.2,0.6,1.2,1.2C43.5,45.2,41,47.8,37.8,47.8z"/>
</g>
<path class="st2" d="M13,23.3c-3.8,0-6.8,3-6.8,6.8s3,6.8,6.8,6.8s6.8-3,6.8-6.8C19.9,26.4,16.8,23.3,13,23.3z"/>
<path class="st2" d="M35.8,23.3c-3.8,0-6.8,3-6.8,6.8s3,6.8,6.8,6.8s6.8-3,6.8-6.8C42.5,26.4,39.5,23.3,35.8,23.3z"/>
<path class="st2" d="M25.3,36.5c-1.1,0-2,0.9-2,2s0.9,2,2,2s2-0.9,2-2S26.4,36.5,25.3,36.5z"/>
</svg>
