<?xml version="1.0" encoding="utf-8"?>
<!-- Generator: Adobe Illustrator 22.1.0, SVG Export Plug-In . SVG Version: 6.00 Build 0)  -->
<svg version="1.1" id="Layer_1" xmlns="http://www.w3.org/2000/svg" xmlns:xlink="http://www.w3.org/1999/xlink" x="0px" y="0px"
	 viewBox="0 0 50 50" style="enable-background:new 0 0 50 50;" xml:space="preserve">
<style type="text/css">
	.st0{fill:#C3FF68;}
	.st1{fill:#AFE55D;}
	.st2{fill:#444444;}
</style>
<g>
	<g>
		<path class="st0" d="M25.3,1.9c-11.7,0-14.1,10.4-14.1,10.4c-0.5,1.7-0.7,3.5-0.6,5.2c0,0.3,0,0.5,0.1,0.8l27.1-9.9
			C36,5.5,32.4,1.9,25.3,1.9z"/>
	</g>
	<g>
		<path class="st1" d="M40,17.5c0.1-1.8-0.1-3.7-0.7-5.5c0,0-0.4-1.6-1.6-3.5l-27.1,9.9c0.4,5.3,2.2,14.5,0.6,17.1
			c-1.7,2.8-7.5,4.3-7.4,6C4,43.3,5.8,43.7,8,43c2.2-0.7,2.7-0.3,2.3,1.6c0,0,0,0.1,0,0.1l28.7-10.4C38.1,30.4,39.8,22,40,17.5z"/>
	</g>
	<path class="st2" d="M46.5,40.2c-0.7,0-1.3,0.5-1.3,1.2c0,0.3-0.1,0.4-0.2,0.5c-0.3,0.2-1,0.3-2.2-0.1c-1.2-0.4-2.5-0.7-3.4,0.1
		c-0.8,0.7-0.7,1.9-0.5,2.9c0.1,0.5,0,0.9-0.2,1c-0.1,0.1-0.5,0-1.1-0.3c-0.6-0.4-1.1-0.8-1.5-1.1c-1-0.8-1.9-1.5-3.5-1.3
		c-1.6,0.3-1.8,1.9-1.8,2.7c-0.1,0.8-0.1,0.9-0.3,1c-0.3,0.1-0.6,0.1-0.9-0.1c-0.6-0.3-1-0.9-1.2-1.3c-0.5-1.6-1.8-2.6-3.4-2.6
		s-2.9,1-3.4,2.6c-0.1,0.4-0.6,1-1.2,1.3c-0.3,0.2-0.6,0.2-0.9,0.1c-0.1,0-0.2-0.2-0.3-1c-0.1-0.8-0.2-2.4-1.8-2.7
		c-1.6-0.3-2.5,0.4-3.5,1.3c-0.4,0.3-0.9,0.7-1.5,1.1c-0.5,0.4-0.9,0.4-1.1,0.3c-0.1-0.1-0.3-0.5-0.2-1c0.2-1,0.3-2.2-0.5-2.9
		c-0.9-0.8-2.1-0.5-3.4-0.1c-1.2,0.4-2,0.3-2.2,0.1c0,0-0.1-0.1-0.2-0.4c0.3-0.4,1.6-1.1,2.4-1.6c1.8-1,3.8-2.2,4.8-3.8
		c1.3-2.2,0.9-6.9,0-13.4c-0.2-2-0.5-3.8-0.6-5.3c-0.1-1.6,0.1-3.2,0.5-4.8c0-0.1,2.4-9.5,12.9-9.5c10.5,0,12.7,8.7,12.8,9.1l0,0.1
		c0.5,1.6,0.7,3.3,0.6,5.1c-0.1,1.4-0.3,3.3-0.6,5.3c-0.6,5.1-1.3,10.3-0.2,12.8c0.1,0.2,0.2,0.4,0.3,0.6c0.8,1.3,2.2,2.2,3.3,2.9
		c0.2,0.1,0.4,0.2,0.7,0.2c0.4,0,0.8-0.2,1.1-0.6c0.4-0.6,0.2-1.4-0.4-1.7c-0.8-0.5-2-1.3-2.5-2.1c0-0.1-0.1-0.1-0.1-0.2
		c-0.8-2-0.1-7.3,0.4-11.6c0.3-2,0.5-3.9,0.6-5.4c0.1-2-0.1-4.1-0.7-6C40,10.7,37,0.6,25,0.6C12.5,0.6,9.7,11.9,9.7,12
		c-0.5,1.8-0.7,3.7-0.6,5.6C9.1,19,9.4,21,9.6,23c0.5,4.1,1.3,10.2,0.3,11.8c-0.7,1.1-2.4,2.1-3.9,2.9c-2,1.2-3.8,2.1-3.7,3.8
		c0.1,1.3,0.7,2,1.3,2.4c1,0.7,2.6,0.8,4.4,0.2C8.3,44,8.6,44,8.7,43.9c0,0.1,0,0.2-0.1,0.3c-0.3,1.5,0.2,2.9,1.2,3.6
		c0.5,0.3,1.9,1,3.9-0.3c0.7-0.5,1.2-0.9,1.6-1.2c0.8-0.6,1-0.8,1.3-0.8c0,0.1,0,0.3,0,0.4c0.1,0.9,0.2,2.5,1.9,3.1
		c0.4,0.2,0.8,0.2,1.3,0.2c0.5,0,1.1-0.1,1.6-0.4c1.1-0.5,2.1-1.6,2.5-2.7c0.3-0.9,0.9-0.9,1.1-0.9s0.8,0,1.1,0.9
		c0.4,1.1,1.3,2.2,2.5,2.7c0.9,0.5,2,0.5,2.9,0.1c1.6-0.6,1.8-2.2,1.9-3.1c0-0.1,0-0.3,0-0.4c0.3,0,0.5,0.2,1.3,0.8
		c0.4,0.3,0.9,0.7,1.6,1.2c2,1.3,3.4,0.7,3.9,0.3c1.1-0.7,1.5-2.1,1.2-3.6c0-0.1,0-0.2-0.1-0.3c0.2,0,0.4,0.1,0.7,0.2
		c1.8,0.6,3.4,0.5,4.4-0.2c0.5-0.4,1.2-1.1,1.3-2.4C47.7,40.8,47.2,40.3,46.5,40.2z"/>
	<g>
		<path class="st2" d="M25,24.2c-4.3,0-7.7-3.5-7.7-7.7c0-4.3,3.5-7.7,7.7-7.7s7.7,3.5,7.7,7.7C32.7,20.7,29.3,24.2,25,24.2z
			 M25,10.2c-3.4,0-6.2,2.8-6.2,6.2c0,3.4,2.8,6.2,6.2,6.2s6.2-2.8,6.2-6.2C31.2,13,28.4,10.2,25,10.2z"/>
	</g>
	<g>
		<path class="st2" d="M25,21.4c-2.7,0-5-2.2-5-5s2.2-5,5-5s5,2.2,5,5S27.7,21.4,25,21.4z M25,12.2c-2.3,0-4.2,1.9-4.2,4.2
			s1.9,4.2,4.2,4.2c2.3,0,4.2-1.9,4.2-4.2S27.3,12.2,25,12.2z"/>
	</g>
	<g>
		<path class="st2" d="M27,17.3c0-0.4,0.3-0.8,0.8-0.8c0.1,0,0.2,0,0.3,0.1c0-0.1,0-0.2,0-0.2c0-1.7-1.4-3.1-3.1-3.1
			c-0.4,0-0.7,0.1-1,0.2c0.4,0.3,0.7,0.8,0.7,1.3c0,0.9-0.7,1.6-1.6,1.6c-0.5,0-0.9-0.2-1.2-0.5c0,0.2-0.1,0.3-0.1,0.5
			c0,1.7,1.4,3.1,3.1,3.1c0.3,0,0.5,0,0.8-0.1c0-0.1-0.1-0.2-0.1-0.2c0-0.4,0.3-0.7,0.7-0.7c0.2,0,0.4,0.1,0.6,0.3
			c0.3-0.2,0.5-0.5,0.7-0.7C27.3,18,27,17.7,27,17.3z"/>
	</g>
	<g>
		<path class="st2" d="M26.7,25.2c-0.2,0.8-0.4,2-0.5,2.1c-0.2,0.1-0.8,0.3-1,0.2C25,27.4,25,25.9,25,25.2c0,0,0,0,0,0c0,0,0,0,0,0
			c0,0.7,0,2.2-0.2,2.3c-0.2,0.1-0.8-0.1-1-0.2c-0.1-0.1-0.4-1.3-0.5-2.1c-3.6,0.1-6.4,0.7-6.6,1.5c-0.1,0.4,0.6,1.6,2,2.6
			c0.2-1.2,0.7-3.3,1.1-3.3c0.3,0,0.7,1.7,0.9,3.1c0.5-0.5,1.3-0.9,2.2-0.9C25,28.2,25,29,25,29s0-0.8,2.1-0.8c0.8,0,1.5,0.4,2,0.8
			c0.3-1.4,0.6-2.9,0.9-2.9c0.4,0,0.8,2.1,1.1,3.3c1.5-1.1,2.2-2.3,2.2-2.7C33.1,26,30.3,25.4,26.7,25.2z"/>
	</g>
	<g>
		<g>
			<path class="st2" d="M14.5,9.3c-1.2,1.8-2.1,4.7-1.9,6.1c0.2,1.4,1.1,0.6,2-1.4c0.9-2,2.8-3.6,2.4-4.9
				C16.6,7.9,15.2,8.2,14.5,9.3z"/>
		</g>
		<g>
			<path class="st2" d="M21.1,5.5c0.5,0.7,0.1,1.9-0.9,2.5c-1,0.7-2.2,0.6-2.7-0.1C17,7.2,17.4,6,18.4,5.4
				C19.4,4.7,20.6,4.8,21.1,5.5z"/>
		</g>
	</g>
	<g>
		<path class="st2" d="M25,31.9c-4.8,0-7.3-2.5-8-3.2c-0.6-0.7-1-1.4-0.9-1.9c0.3-1.9,8.5-1.9,8.9-1.9s8.6,0,8.9,1.9
			c0.1,0.4-0.3,1.1-0.9,1.9C32.3,29.4,29.8,31.9,25,31.9z M25,25.7c-5.1,0-8,0.8-8.1,1.2c0,0.1,0.1,0.6,0.7,1.3c0.6,0.7,2.9,3,7.4,3
			c4.5,0,6.8-2.3,7.4-3c0.6-0.7,0.7-1.2,0.7-1.3C33,26.5,30.1,25.7,25,25.7z"/>
	</g>
</g>
</svg>
