<svg xmlns="http://www.w3.org/2000/svg" xmlns:xlink="http://www.w3.org/1999/xlink" id="Camada_1" x="0" y="0" version="1.1" viewBox="0 0 50 50" xml:space="preserve"><style>.st2{fill:#444}</style><path fill="#7df4eb" d="M44.6 12.4L39 8.8l-7.7-4.4-6-2.8c-3.2 0-21.5 8.9-21.5 12.1l-.5 7.8.5 15.1 11.5 7.6 31-11c.9-.5-.7-18.8-1.7-20.8z"/><path fill="none" stroke="#444" stroke-linecap="round" stroke-linejoin="round" stroke-miterlimit="10" stroke-width="2.5" d="M29.9 46.5l-2.2 1.3c-1.7 1-3.8 1-5.5 0l-15.6-9C5 37.8 3.9 36 3.9 34V16c0-2 1-3.8 2.7-4.7l15.6-9c1.7-1 3.8-1 5.5 0l15.6 9c1.7 1 2.7 2.8 2.7 4.7v18c0 2-1 3.8-2.7 4.7l-2.5 1.4"/><path d="M28.1 28.7c-.7.3-1.5.5-2.3.5-3.1 0-5.6-2.5-5.5-5.6 0-3 2.5-5.5 5.6-5.5s5.5 2.6 5.5 5.6c0 1.1-.3 2.2-.9 3l1 .7c.7-1.1 1.1-2.4 1.1-3.7 0-3.7-3-6.8-6.8-6.8-3.7 0-6.8 3-6.8 6.8s3.1 6.8 6.8 6.8c1 0 2-.2 2.9-.6l-.6-1.2z" class="st2"/><path fill="none" stroke="#444" stroke-miterlimit="10" d="M28.3 29.2s1.3-.6 1.6-.8c.3-.2.8-1.1.8-1.1l9.4 8.2s.5 1.4-.2 2.3c-.8.9-2.7.5-2.7.5l-8.9-9.1z"/><defs><path id="SVGID_1_" d="M26.7 31C23 31 20 28 20 24.3c0-1.6.6-3.1 1.5-4.3-1.9-.9-4-1.4-6.3-1.4C6.8 18.7 0 25.5 0 33.9 0 42.2 6.8 49 15.2 49s15.2-6.8 15.2-15.2c0-1.3-.2-2.5-.5-3.7-.9.6-2.1.9-3.2.9z"/></defs><clipPath id="SVGID_00000062153447636414418430000002965033355335477385_"><use overflow="visible" xlink:href="#SVGID_1_"/></clipPath><g clip-path="url(#SVGID_00000062153447636414418430000002965033355335477385_)"><path d="M13.2 29.7h.5v-4.9h-.5l-1.1.6v.5l1.1-.5zm4.3 0l.7-.7v-3.5l-.7-.7h-2l-.7.7V29l.7.7h2zm-2.2-4l.4-.4h1.5l.4.4v3.2l-.4.4h-1.5l-.4-.4v-3.2zm6.6 4l.7-.7v-3.5l-.7-.7h-2l-.7.7V29l.7.7h2zm-2.2-4l.4-.4h1.5l.4.4v3.2l-.4.4h-1.5l-.4-.4v-3.2zm4.8 4h.5v-4.9h-.5l-1.1.6v.5l1.1-.5zm-11.3 6.2h.5V31h-.5l-1.1.6v.5l1.1-.5zm1.4-4.3v.5l1.1-.5v4.3h.5V31h-.5zm2.7.1v3.5l.7.7h2l.7-.7v-3.5L20 31h-2l-.7.7zm2.5-.2l.4.4V35l-.4.4h-1.5l-.5-.4v-3.2l.4-.4h1.6v.1zm4.6-.5h-2l-.7.7v3.5l.7.7h2l.7-.7v-3.5l-.7-.7zm.2 4l-.4.4h-1.5l-.5-.4v-3.2l.4-.4h1.5l.4.4V35h.1zM13 37.2l-.7.7v3.5l.7.7h2l.7-.7v-3.5l-.7-.7h-2zm2.2 4l-.4.4h-1.5l-.4-.4V38l.4-.4h1.5l.4.4v3.2zm1.3-3.4v.5l1.1-.5v4.3h.5v-4.9h-.5zm3.4-.6l-.7.7v3.5l.7.7h2l.7-.7v-3.5l-.7-.7h-2zm2.2 4l-.4.4h-1.5l-.4-.4V38l.4-.4h1.5l.4.4v3.2zm1.3-3.4v.5l1.1-.5v4.3h.5v-4.9h-.5z" class="st2"/></g><path fill="none" stroke="#444" stroke-miterlimit="10" stroke-width=".5" d="M16.5 22.8h-2.3c-.5 0-1-.4-1-1v-6.3c0-.5.4-1 1-1h2.3c.5 0 1 .4 1 1v6.3c0 .6-.4 1-1 1zm19 0h-2.4c-.5 0-.9-.4-.9-.9v-6.4c0-.5.4-.9.9-.9h2.4c.5 0 .9.4.9.9v6.4c0 .5-.4.9-.9.9zm-6.4 0h-2.5c-.5 0-.9-.4-.9-.9v-8.2c0-.5.4-.9.9-.9h2.5c.5 0 .9.4.9.9V22c0 .4-.4.8-.9.8zm-6.3 0h-2.2c-.6 0-1-.4-1-1V11.5c0-.6.4-1 1-1h2.2c.6 0 1 .4 1 1v10.3c0 .6-.5 1-1 1z"/></svg>