<svg xmlns="http://www.w3.org/2000/svg" viewBox="0 0 50 50"><path fill="#c3ff68" d="M47.1 25.5l-.5-4L29.5 3.9l-4.4-1.8C21 2.1 7.3 15 7.3 17.6l-4.3 4-.2 5.9L17 42l24.8-8.8c.6-.3 6.2-6 5.4-7.6z"/><path fill="none" stroke="#444" stroke-linecap="round" stroke-linejoin="round" stroke-width="2.5" d="M29.1 44.8c-2.4 2.4-6.3 2.4-8.7 0L4.1 28.6c-2.4-2.4-2.4-6.3 0-8.7L20.3 3.7c2.4-2.4 6.3-2.4 8.7 0l16.2 16.2c2.4 2.4 2.4 6.3 0 8.7L37.8 36"/><g fill="none" stroke="#444" stroke-linecap="round" stroke-linejoin="round"><ellipse cx="21.7" cy="24" rx="16.5" ry="5" transform="rotate(-33 21.701 24.055)"/><ellipse cx="21.7" cy="24" rx="5" ry="16.5" transform="rotate(-57.1 21.684 24.065)"/><ellipse cx="21.7" cy="24" rx="5" ry="16.5"/></g><ellipse cx="21.7" cy="24.3" fill="none" stroke="#444" stroke-linecap="round" stroke-linejoin="round" stroke-width=".5" rx="1.1" ry="3.6"/><path fill="none" stroke="#444" stroke-linecap="round" stroke-linejoin="round" stroke-width=".5" d="M29.9 3.9v36.5c0 1.1-1.1 2-2.3 2H16.9M41.4 32l-3.8-4.6c-1.7-2.1-1.7-4.9 0-6.2l5.1-3.9"/><path fill="none" stroke="#444" stroke-miterlimit="10" stroke-width=".5" d="M45.4 27.9L20.9 3.4"/></svg>