<svg xmlns="http://www.w3.org/2000/svg" id="Layer_1" x="0" y="0" version="1.1" viewBox="0 0 50 50" xml:space="preserve"><style>.st2,.st4{fill:none;stroke:#444;stroke-width:.5;stroke-linecap:round;stroke-linejoin:round;stroke-miterlimit:10}.st4{stroke-width:2.5}</style><path fill="#d1bd00" d="M27.8 22l7.9 2.5-6.7 4.7.1 8.2-6.6-4.9-7.8 2.6 2.7-7.7-4.9-6.6 8.2.1 4.7-6.7z"/><path fill="#f9f941" d="M48.2 26.9c-.1-.3.7-4.5-1.3-7.2-1.2-1.6-4.2-3.1-5.2-4.5-1.3-1.7-3-1.3-3.1-1.5L37.5 10l-2.8-3.8-4.1-2.3H19.4c-2.6 0-8.2 1.7-9 10l-4.8 3.6L1.3 20v21.2c.1.3 2.4 5.5 2.6 5.6l18 .1 25.7-9.4c.5-.2 1.3-6.8.6-10.6z"/><path d="M37.8 18.3c0 .1 0 .1 0 0 .8.4 1.2 1.1 1.2 1.9v16c0 .5-.5.7-.9.5-4.2-2.2-9.1-3-13.1-.5V25.6v10.7c-4.1-2.4-9.3-2.4-13 .5-.4.3-1 0-1-.5v-16c0-.8.5-1.5 1.2-1.9" class="st2"/><path fill="none" stroke="#444" stroke-linecap="round" stroke-linejoin="round" stroke-miterlimit="10" d="M41.5 22h0c.7 0 1.3.6 1.3 1.3v16c0 1.4-1.4 2.5-2.8 2-4-1.4-11.1-3.3-15-1.2h0c-3.9-2.2-11-.2-15 1.2-1.4.5-2.8-.5-2.8-2v-16c0-.7.6-1.3 1.3-1.3h0"/><path d="M15.1 17.3c0 .2 0 .5.1.7.4 2.1 2.5 4.5 6.3 2.7m-5.1-6.3v-.1c-.3-1.2.5-2.5 1.8-2.7.3-.1.6-.1.9 0" class="st2"/><path d="M24.1 9.6c-.7-.5-1.6-.7-2.5-.5-1.3.3-2.2 1.2-2.5 2.4-.1.2-.1.5-.1.7m5.1-2c0-.4.2-1.4 1.2-1.5 1.2-.2 1.8.3 2 1.3v.3m0-.7c.3-.2.6-.3 1-.4 1.9-.4 3.8.8 4.2 2.7m-.8.3c.1-.1.3-.1.5-.2 1.2-.3 3.3.6 2.9 3m-8.4 5.6c-.4.8-1.1 1.4-2 1.6-1.6.3-3.1-.7-3.4-2.2v-.2m9.3 2.2l1.1 2.9c.1.3-.1.6-.3.6l-1.2.3c-.2 0-.4-.1-.5-.2l-.4-.7c-.7-1.4-1.7-2.7-2.9-3.7m8.7-3.4c.5 4.1-2.7 4.9-4.2 4.9" class="st2"/><path d="M34.7 14.8c.6.3 1 1 1 1.7 0 .8-.5 1.5-1.3 1.8m-18.7-.8c-.9-.2-1.2-1-1.2-1.7 0-.4.2-1.5 1.9-1.5m7.2-2.7c-1.1 0-1.9.9-1.9 1.9m8.7 2.7c.8-.8.8-2 0-2.7m-4.5 2.3c0 1.1.9 1.9 1.9 1.9m-6.9-.4c-.9-.6-2.1-.3-2.7.6" class="st2"/><path d="M48.3 37.2V22.3c0-2.8-2.3-5-5-5 0-1.8-1.4-3.2-3.2-3.2h-1c0-5.8-4.7-10.5-10.5-10.5h-7.4c-5.8 0-10.5 4.7-10.5 10.5" class="st4"/><path d="M10.8 14h-.9c-1.8 0-3.2 1.4-3.2 3.2-2.8 0-5 2.3-5 5v18.6c0 3.1 2.5 5.6 5.6 5.6h30.6" class="st4"/></svg>