<svg xmlns="http://www.w3.org/2000/svg" id="Layer_1" version="1.1" viewBox="0 0 50 50"><defs><style>.st5{fill:#444}</style></defs><path fill="#00dffc" d="M47.7 20.3c-.2-.8-2.7-7.5-3.2-8.1l-3-3.5h-.2L33.7 3l-7.8-.7c-3.2 0-12.8-.7-21.3 11.5l-2.9 7.9.5 2L4 35.2c.1.4 4.7 7 5.1 7.2l5.6 3 32.2-11.7c.7-.4 1.7-8.6.7-13.4z"/><path fill="none" stroke="#444" stroke-linecap="round" stroke-linejoin="round" stroke-width="2.5" d="M27.9 47.9C15.3 49.5 3.8 40.5 2.2 27.8S9.7 3.7 22.3 2.1C34.9.5 46.4 9.5 48 22.2c.6 5.1-.5 10-2.8 14.1"/><path fill="none" stroke="#444" stroke-linecap="round" stroke-linejoin="round" d="M11.5 27.8h28.8v2.5H11.5zm14.4 2.5v12.5m-9.4 0l7.1-12.5m11.7 12.5l-7-12.5M12.8 11.5h26.3v16.3H12.8zM16.5 9h18.8v2.5H16.5zM19 35.3h13.8"/><circle cx="39.2" cy="21.7" r="4" class="st5"/><path d="M43.1 35.1V27s-.1-.9-1.2-.8c-.8.5-1.7.8-2.7.8s-2-.3-2.8-.9h-.1l-7.8-5.9c-.8-.6-1.9-.6-2.7 0s-.8 2.3.2 3.1l9.3 7s.1.1.2.1v7.5l7.6-2.8z" class="st5"/><path fill="none" stroke="#444" stroke-miterlimit="10" stroke-width=".5" d="M15.5 16.4H18v11.4h-2.5zm4.8 3.2h2.5v8.1h-2.5zm3.7 2.5h2.5v5.7H24zm4.3.1h2.5v5.7h-2.5z"/></svg>