<svg xmlns="http://www.w3.org/2000/svg" id="Layer_1" version="1.1" viewBox="0 0 50 50"><defs><style>.st0,.st2{fill:none;stroke:#444}.st0{stroke-linecap:round;stroke-linejoin:round}.st2{stroke-miterlimit:10}</style></defs><g id="Camada_1"><path fill="#fc9d9a" d="M46.6 9l-5.9-.8-12.8.4H5.1C2 8.6 2.9 32.8 2.9 35.9l-1.3 1.9.7 4.6h15.6l30-10.7c.7-.4-.4-20.8-1.3-22.8z"/><path d="M9.3 34.1h31.5c1.6 0 2.9-1.3 2.9-2.9V14.4c0-1.6-1.3-2.9-2.9-2.9H9.3c-1.6 0-2.9 1.3-2.9 2.9v16.7c0 1.6 1.3 2.9 2.9 2.9z" class="st2"/><path d="M22.9 23.8c-2.8 0-5 2.3-5 5V34H32v-5.2c0-2.8-2.3-5-5-5m-5.6 5.7v4.2m7.1-4.2v4.2" class="st0"/><circle cx="24.9" cy="19.7" r="3.2" class="st2"/><path fill="none" stroke="#444" stroke-linecap="round" stroke-linejoin="round" stroke-width="2.5" d="M48.8 38.5c0-.6-.5-1.1-1.1-1.1h-.9c-.5 0-.7-.6-.4-.9.5-.5.8-1.3.8-2V11.3c0-1.6-1.3-3-3-3H5.8c-1.6 0-3 1.3-3 3v23.2c0 .8.3 1.5.8 2s0 .9-.4.9h-.9c-.6 0-1.1.5-1.1 1.1v1.3c0 1.6 1.1 2.9 2.5 2.9h38"/><path d="M6.1 37.1h37" class="st0"/><path fill="none" stroke="#444" stroke-linecap="round" stroke-linejoin="round" stroke-width=".5" d="M17.9 38.3v.7c0 .9.7 1.6 1.6 1.6h11.1c.9 0 1.6-.7 1.6-1.6v-.7"/></g></svg>