<svg xmlns="http://www.w3.org/2000/svg" fill="none" viewBox="0 0 50 50"><path fill="#C3FF68" d="M47.1 25.5l-.5-4L29.5 3.9l-4.4-1.8C21 2.1 7.3 15 7.3 17.6l-4.3 4-.2 5.9L17 42l24.8-8.8c.6-.3 6.2-6 5.4-7.6l-.1-.1z"/><path stroke="#444" stroke-linecap="round" stroke-linejoin="round" stroke-width="2.5" d="M29.1 44.8c-2.4 2.4-6.3 2.4-8.7 0L4.1 28.6c-2.4-2.4-2.4-6.3 0-8.7L20.3 3.7c2.4-2.4 6.3-2.4 8.7 0l16.2 16.2c2.4 2.4 2.4 6.3 0 8.7L37.8 36"/><path stroke="#444" stroke-linecap="round" stroke-linejoin="round" d="M24.393 28.203c7.643-4.963 12.62-10.864 11.115-13.18-1.504-2.316-8.919-.17-16.561 4.793C11.304 24.78 6.328 30.68 7.832 32.996c1.504 2.316 8.919.17 16.561-4.793z"/><path stroke="#444" stroke-linecap="round" stroke-linejoin="round" d="M35.491 32.979c1.5-2.319-3.486-8.211-11.138-13.16-7.65-4.95-15.07-7.084-16.57-4.765-1.5 2.318 3.487 8.21 11.139 13.16 7.65 4.95 15.07 7.083 16.57 4.765z"/><path stroke="#444" stroke-linecap="round" stroke-linejoin="round" d="M21.7 40.5c2.761 0 5-7.387 5-16.5s-2.239-16.5-5-16.5c-2.762 0-5 7.387-5 16.5s2.238 16.5 5 16.5z"/><path stroke="#444" stroke-linecap="round" stroke-linejoin="round" stroke-width=".5" d="M21.7 27.9c.607 0 1.1-1.612 1.1-3.6 0-1.989-.493-3.6-1.1-3.6-.608 0-1.1 1.611-1.1 3.6 0 1.988.492 3.6 1.1 3.6z"/><path stroke="#444" stroke-linecap="round" stroke-linejoin="round" stroke-width=".5" d="M29.9 3.9v36.5c0 1.1-1.1 2-2.3 2H16.9M41.4 32l-3.8-4.6c-1.7-2.1-1.7-4.9 0-6.2l5.1-3.9"/><path stroke="#444" stroke-miterlimit="10" stroke-width=".5" d="M45.4 27.9L20.9 3.4"/></svg>