<svg xmlns="http://www.w3.org/2000/svg" data-name="Camada 2" viewBox="0 0 44.6 47.8"><path fill="#04ad49" d="M26.4 17.1l7.2 2.3-6.2 4.3.1 7.6-6-4.5-7.2 2.4 2.4-7.2-4.5-6 7.6.1 4.3-6.2 2.3 7.2z"/><path fill="#22dd6d" d="M42.8 26.2l-.9-.3h.6V11c-2.1.4-20.2-7-20.2-7-1.7 2.2-20.4 6.7-20.4 6.7l-.2 15.6 4.1.9 2.6 5.4c.1.3-3.1 3.3-2.8 3.5l3.7 4.1c1.2.6 3.7-3.8 5.7-1.3l22-7.6c.7-2.7-.4-3.2 1.7-4 2.8-1 4.5.6 4.2-1.1z"/><path fill="none" stroke="#444" stroke-linecap="round" stroke-linejoin="round" stroke-width="2.5" d="M36.2 31.6c.6-1.1 1.1-2.2 1.4-3.4s.6-.9 1.1-.9l2.7-.2c.6 0 1.1-.6 1.1-1.2v-2.5l.6-12.7c-7.5-.4-14.9-2.8-20.4-7.2-5.9 4.4-13.6 6.8-21.6 7.2l.6 13h0v2.2c0 .6.5 1.2 1.1 1.2l2.7.2c.5 0 .9.4 1.1.9.3 1.2.8 2.3 1.4 3.3s.2 1-.1 1.4l-1.6 1.9c-.6.7-.6 1.4-.1 1.9l2.9 2.9c.5.5 1.2.5 1.7 0l2.1-1.8c.4-.3 1-.4 1.4-.1 1 .6 2.2 1 3.3 1.4s.9.6.9 1.1l.2 2.5c0 .9.6 1.4 1.3 1.4h4.1c.6 0 1.2-.5 1.2-1.1l.2-2.7c0-.5.4-.9.9-1.1 1.2-.3 2.3-.8 3.4-1.4"/><circle cx="22" cy="23.6" r="9.1" fill="none" stroke="#444" stroke-miterlimit="10"/><path fill="#444" d="M25.8 20.6L21 25.4l-2.5-2.5c-.3-.3-.7-.3-.9 0-.3.3-.3.7 0 .9l3 3c.1.1.3.2.5.2s.3 0 .5-.2l5.3-5.3c.3-.3.3-.7 0-.9-.3-.3-.7-.3-.9 0z"/></svg>