<svg xmlns="http://www.w3.org/2000/svg" id="Layer_1" x="0" y="0" version="1.1" viewBox="0 0 50 50" xml:space="preserve"><style>.st3,.st4{fill:none;stroke:#444;stroke-linecap:square;stroke-linejoin:round}.st4{stroke-width:.5;stroke-linecap:round}</style><path fill="#04ad49" d="M30.5 19.8l7.8 2.4-6.7 4.7.1 8.2-6.5-4.9-7.8 2.7 2.6-7.8-4.9-6.6 8.2.1 4.8-6.7z"/><path fill="#22dd6d" d="M44.6 12.4L39 8.8l-7.7-4.4-6-2.8c-3.2 0-21.5 8.9-21.5 12.1l-.5 7.8.5 15.1 11.5 7.6 31-11c.8-.5-.7-18.8-1.7-20.8z"/><path fill="none" stroke="#444" stroke-linecap="round" stroke-linejoin="round" stroke-miterlimit="10" stroke-width="2.5" d="M29.8 46.5l-2.2 1.3c-1.7 1-3.8 1-5.5 0l-15.6-9c-1.7-1-2.7-2.8-2.7-4.7V16c0-2 1-3.8 2.7-4.7l15.6-9c1.7-1 3.8-1 5.5 0l15.6 9c1.7 1 2.7 2.8 2.7 4.7v18c0 2-1 3.8-2.7 4.7l-2.5 1.4"/><path d="M33.8 32.8h1.7v2.3H12.2v-2.3h1.7" class="st3"/><path d="M33.8 29.2H18.3m4.5 0l-3.8-7-4.9 3.2" class="st4"/><circle cx="23.9" cy="23.5" r="2.1" class="st4"/><path fill="none" stroke="#444" stroke-linecap="round" stroke-linejoin="round" d="M25.3 35.1v4.6h-2.8v-4.6m-2.5 0l-2.7 4.6h-2.8l2.7-4.6m10.5 0l2.7 4.6h2.8l-2.7-4.6"/><path d="M30.2 19.4c.3 1.1 1.4 1.9 2.6 1.9 1.2 0 2.2-.8 2.6-1.9h-5.2zm-2.9 0h-.6c-.3 0-.6-.2-.6-.6V18c0-.3.2-.6.6-.6h.6m11 2h.7c.3 0 .6-.2.6-.6V18c0-.3-.2-.6-.6-.6h-.6m-5.6-3.6v-2.3m-1-1c0-.6.5-1 1-1 .6 0 1 .5 1 1 0 .6-.5 1-1 1s-1-.4-1-1zm-1.7 6.9c0-.5.4-.8.8-.8.5 0 .8.4.8.8m2.1 0c0-.5.4-.8.8-.8.5 0 .8.4.8.8" class="st4"/><path d="M36.1 13.9h-6.5c-1.2 0-2.2 1-2.2 2.2V21c0 1.2 1 2.2 2.2 2.2h.5V26l2.8-2.8h3.2c1.2 0 2.2-1 2.2-2.2v-4.9c0-1.2-1-2.2-2.2-2.2z" class="st4"/><path d="M13.9 32.4V18.3h11.9m8 14.5v-9.3" class="st3"/><path d="M14 33.1h3.8m3.4 0h12.4" class="st4"/></svg>