<svg xmlns="http://www.w3.org/2000/svg" xmlns:xlink="http://www.w3.org/1999/xlink" id="Camada_1" x="0" y="0" version="1.1" viewBox="0 0 50 50" xml:space="preserve"><style>.st2{fill:none;stroke:#444;stroke-width:2.5;stroke-linecap:round;stroke-linejoin:round;stroke-miterlimit:10}.st3{fill:#444}</style><path fill="#04ad49" d="M29.2 19.3l8.2 2.6-7.1 4.9.1 8.6-6.9-5.1-8 2.7 2.7-8.1-5.1-6.8 8.5.1 5-7.1z"/><path fill="#22dd6d" d="M48.5 20.5c-.2-.8-2.7-7.5-3.2-8.1l-3-3.5-.2.1-7.6-5.8-7.8-.7c-3.2 0-14.5.3-21.4 10.2l-4 10.6-.2.1 4 13.4c.1.4 4.5 5.7 4.9 5.9l5.6 3L47.8 34c.6-.5 1.6-8.7.7-13.5z"/><path d="M32.8 47.4c-7 2.3-15 1.2-21.3-3.6C1.1 36.1-1 21.4 6.8 11" class="st2"/><path d="M6.6 11.2c2-3 4.7-4.7 4.7-4.7L12 6C20.1.3 31.3.1 39.6 6.4 50 14.2 52 28.9 44.3 39.2" class="st2"/><image width="512" height="256" opacity=".09" overflow="visible" transform="translate(-186.333 -428.006)" xlink:href="2EE306ED.jpg"/><g id="XMLID_00000070831764358078101730000016439177142108878229_"><g id="XMLID_00000018215325749148182510000016509460795487185073_"><circle id="XMLID_00000034788375905964470870000004266733459024781748_" cx="25.7" cy="28.4" r="2.4" class="st3"/></g><g id="XMLID_00000052800490352262392820000005189172271456982426_"><path id="XMLID_00000160911474728814365760000014840976428220113295_" d="M25.7 30.9c-2.1 0-3.8 1.7-3.8 3.8h7.6c.1-2.1-1.7-3.8-3.8-3.8z" class="st3"/></g><g id="XMLID_00000038378759387778966100000001495920946617221293_"><path id="XMLID_00000141427016707211174170000016225721771520622739_" d="M36.1 40.1l-3.5-3.5c1.3-1.6 2.1-3.6 2.1-5.7 0-5-4-9-9-9s-9 4-9 9 4 9 9 9c2.2 0 4.2-.8 5.7-2.1l3.5 3.5c.2.2.4.2.6.2s.4-.1.6-.2c.3-.4.3-.9 0-1.2zm-17.7-9.2c0-4.1 3.3-7.3 7.3-7.3s7.3 3.3 7.3 7.3-3.3 7.3-7.3 7.3-7.3-3.3-7.3-7.3z" class="st3"/></g></g><path d="M20 28.7c-.1-.1-.3-.1-.4 0-.4.4-.8.6-1.2.8-.1.2-.2.5-.3.7.7-.2 1.3-.6 1.9-1.1.1-.2.1-.3 0-.4zm11.5 0c.1-.1.3-.1.4 0 .4.4.8.6 1.2.8.1.2.2.5.3.7-.7-.2-1.3-.6-1.9-1.1-.1-.1-.1-.3 0-.4zm-10.4 4.6c-1.1-.1-2.1-.7-2.7-1.6 0 .3.1.7.2 1 .7.6 1.5 1 2.5 1.2h1c.1-.2.1-.4.2-.6h-1.2zm16.1-12.5c.7-.9 1.4-2.3 1.3-3.4-.3-2.9-2-3.6-4-4 .1-.4.1-.8 0-1.3-.3-2-2-3.6-4-3.8-2.1-.2-4 1-4.7 2.9-.7-1.9-2.6-3.1-4.7-2.9-2.1.2-3.7 1.7-4 3.7-.1.5-.1.9 0 1.4 0 .1.3.2.4.1 0 0 .1 0 .2-.1-.1-.4-.1-.8 0-1.3.3-1.7 1.7-3.1 3.5-3.3 1.9-.2 3.6 1 4.2 2.8.1.4.2.7.2 1.1v9.1h.5v-.6h4c.1 1.3 1.1 2.3 2.4 2.3 1.4 0 2.5-1.1 2.5-2.5s-1.1-2.5-2.5-2.5c-1.2 0-2.2.9-2.4 2.1h-4V16h2c.1 1.2 1.2 2.2 2.4 2.2 1.4 0 2.5-1.1 2.5-2.5s-1.1-2.5-2.5-2.5c-1.3 0-2.3.9-2.4 2.2h-2v-3.1c0-.3.1-.5.1-.8.5-1.8 2.3-3 4.2-2.8 1.8.2 3.2 1.6 3.5 3.3.1.4.1.7 0 1.1l-.1.5c2.2.4 3.9.9 4.1 3.7.1 1.1-.7 2.6-1.5 3.3l.3.3c.8.8 1.2 1.9 1.2 2.9 0 1.9-1.4 3.4-3.7 4.1.1.2.1.3.2.5 2.5-.7 4.1-2.4 4.1-4.6 0-.9-.5-2.1-1.3-3zm-4.7-1.6c1.1 0 1.9.9 1.9 1.9 0 1.1-.9 1.9-1.9 1.9-1.1 0-1.9-.9-1.9-1.9 0-1.1.9-1.9 1.9-1.9zm-2-5.2c1.1 0 1.9.9 1.9 1.9 0 1.1-.9 1.9-1.9 1.9-1.1 0-1.9-.9-1.9-1.9 0-1.1.8-1.9 1.9-1.9z" class="st3"/><path d="M17.1 13.4c-2.3.2-4.1 2.1-4.1 4.5 0 1.1.5 2.1 1.3 3-.5.5-1.7 1.8-1.2 4 .4 1.8 1.8 3.2 3.5 3.5.1 0 .3 0 .4.1.1-.2.1-.4.2-.5-.2 0-.3 0-.5-.1-1.5-.3-2.7-1.5-3.1-3.1-.6-2.5 1.2-3.6 1.2-3.7l.3-.2-.2-.2c-.9-.8-1.4-1.9-1.4-2.9 0-2.2 1.8-3.9 3.9-3.9 1.1 0 2.2.5 3 1.4.1.1.3.1.4 0 .1-.1.1-.3 0-.4-.8-.9-2-1.5-3.2-1.5.1 0-.4.1-.5 0zm13.4 19.9h-1.3c.1.2.2.4.2.6h1.1c.9-.1 1.7-.5 2.4-1 .1-.3.1-.6.2-1-.7.7-1.6 1.2-2.6 1.4z" class="st3"/></svg>