<svg xmlns="http://www.w3.org/2000/svg" id="Layer_1" x="0" y="0" version="1.1" viewBox="0 0 50 50" xml:space="preserve"><style>.st1{fill:none;stroke:#444;stroke-width:2.5;stroke-linecap:round;stroke-linejoin:round;stroke-miterlimit:10}.st3{stroke-width:.5}.st3,.st4{fill:none;stroke:#444;stroke-linecap:round;stroke-linejoin:round;stroke-miterlimit:10}</style><path fill="#fcc34f" d="M47.9 19.9c-.2-.8-2.7-7.5-3.2-8.1l-3-3.5-.2.1-7.6-5.8-7.8-.6c-3.2 0-14.6.2-21.5 10.2L.7 22.8l-.2.1 4 13.4c.1.4 4.5 5.7 4.9 5.9l5.6 3 32.2-11.7c.6-.5 1.6-8.8.7-13.6z"/><path d="M32.2 47.2c-7 2.3-15 1.2-21.3-3.6C.5 35.9-1.6 21.2 6.2 10.8" class="st1"/><path d="M6.1 11c2-3 4.7-4.7 4.7-4.7l.7-.5c8-5.8 19.2-5.9 27.5.4C49.4 14 51.5 28.7 43.7 39" class="st1"/><path fill="#dc5e82" d="M47.9 19.9c-.2-.8-2.7-7.5-3.2-8.1l-3-3.5-.2.1-7.6-5.8-7.8-.6c-3.2 0-14.6.2-21.5 10.2L.7 22.8l-.2.1 4 13.4c.1.4 4.5 5.7 4.9 5.9l5.6 3 32.2-11.7c.6-.5 1.6-8.8.7-13.6z"/><path d="M32.2 47.2c-7 2.3-15 1.2-21.3-3.6C.5 35.9-1.6 21.2 6.2 10.8" class="st1"/><path d="M6.1 11c2-3 4.7-4.7 4.7-4.7l.7-.5c8-5.8 19.2-5.9 27.5.4C49.4 14 51.5 28.7 43.7 39" class="st1"/><path d="M25.2 20c-1.2-1.4-6.6 1.3-6.6 1.3-1.4.3-2.2-.4-2.2-.4" class="st3"/><path d="M33.6 21.2s-.8.3-2.4-.4c0 0-4.2-3.1-7.1 0l-3.1 5s2.4 2.3 4.6-1.6c0 0 1.2.8 2.3 0l6.8 5.3s1.2 1.1.3 2c0 0-.8 1.2-2 .4l-5.5-4.2" class="st3"/><path d="M32.7 31.6s0 1.2-.5 1.7c0 0-1 1-1.9.2L25.9 30" class="st3"/><path d="M25.5 33.2l2.3 1.6s1 .7 1.7.2c0 0 1.2-.8.4-1.8" class="st3"/><path d="M24.2 35.3l1.3.9s.9.7 1.6 0c0 0 .9-.7.2-1.8" class="st3"/><path d="M15.9 25l-6.7-3.4m6.4.8l1-2.2-2.3-1.1-.8-2.3m.2 9.4l-1 2.2-2.3-1.2L8 28" class="st4"/><path d="M13.4 27.4s1.1 1.5 2.3 1.9m18.4-.2s1.7-.5 2.5-1.6" class="st3"/><path d="M34.1 22.4l-1-2.2 2.3-1.1.8-2.3M33.3 25l7.3-3.3m-4.7 4l1.2 2.6 2.3-1.1 2.4.9" class="st4"/><path d="M15.9 31.6c-.6-.3-.8-1.1-.5-1.7l1.1-1.9c.3-.6 1.1-.8 1.7-.5.6.3.8 1.1.5 1.7l-1.1 1.9c-.4.7-1.1.9-1.7.5z" class="st3"/><path d="M17.6 33.7c-.6-.3-.8-1.1-.5-1.7l1.9-3.3c.3-.6 1.1-.8 1.7-.5.6.3.8 1.1.5 1.7l-1.9 3.3c-.4.6-1.1.8-1.7.5zM20 35c-.6-.3-.8-1.1-.5-1.7l1.7-2.9c.3-.6 1.1-.8 1.7-.5.6.3.8 1.1.5 1.7l-1.7 2.9c-.4.6-1.2.9-1.7.5z" class="st3"/><path d="M22.5 35.8l-.2-.1c-.5-.3-.7-1-.4-1.6l1.3-2.2c.3-.5 1-.7 1.6-.4l.2.1c.5.3.7 1 .4 1.6l-1.3 2.2c-.4.6-1.1.7-1.6.4z" class="st3"/><circle cx="13" cy="15.1" r="1.7" class="st4"/><circle cx="7.6" cy="20.9" r="1.7" class="st4"/><circle cx="6.3" cy="28.7" r="1.7" class="st4"/><circle cx="36.8" cy="15.1" r="1.7" class="st4"/><circle cx="42.1" cy="20.9" r="1.7" class="st4"/><circle cx="43.4" cy="28.7" r="1.7" class="st4"/></svg>