<svg xmlns="http://www.w3.org/2000/svg" id="Layer_1" x="0" y="0" version="1.1" viewBox="0 0 50 50" xml:space="preserve"><style>.st4,.st5{fill:none;stroke:#444;stroke-linecap:round;stroke-linejoin:round;stroke-miterlimit:10}.st5{stroke-width:.5}</style><path fill="#04ad49" d="M27.5 21.2l7.8 2.5-6.7 4.7.1 8.2-6.5-4.9-7.8 2.6 2.6-7.7-4.9-6.6 8.2.1 4.8-6.7z"/><path fill="#46b8b0" d="M48.4 7.9l.2-2.6c.2-1.9-1.3-3.6-3.3-3.6L6 1.5C4.2 1.5 2.7 3 2.7 4.8v16.7l-.1 6.4h.1v3.6l-.3 12.2c0 1.9 1.5 3.4 3.3 3.4l18-.2c.4 0 .8-.1 1.1-.2l21.4-8c1.3-.5 2.1-1.7 2.1-3.1V23.3l.1-9.2.5-.1-.5-5.4v-.7z"/><path fill="#22dd6d" d="M48.4 7.9l.2-2.6c.2-1.9-1.3-3.6-3.3-3.6L6 1.5C4.2 1.5 2.7 3 2.7 4.8v16.7l-.1 6.4h.1v3.6l-.3 12.2c0 1.9 1.5 3.4 3.3 3.4l18-.2c.4 0 .8-.1 1.1-.2l21.4-8c1.3-.5 2.1-1.7 2.1-3.1V23.3l.1-9.2.5-.1-.5-5.4v-.7z"/><path fill="none" stroke="#444" stroke-linecap="round" stroke-linejoin="round" stroke-miterlimit="10" stroke-width="2.5" d="M32.4 47.8h-27c-1.9 0-3.4-1.6-3.4-3.5v-39c0-1.9 1.5-3.5 3.4-3.5h39c1.9 0 3.4 1.6 3.4 3.5v32.5"/><g id="loyalty_program_x2F_bouns_1_"><g id="_x3C_Grupo_x3E__21_"><path d="M26.4 14.7h-8.5m18.3 7l-.3-7h-6.3m-14.9 0h-3.2l-1.1 23.8c0 1.2.9 2.1 2.1 2.1h12.7m-7.3-22.2v-4.8c0-3.2 2.6-5.8 5.8-5.8s5.8 2.6 5.8 5.8v4.8" class="st4"/><circle cx="29.6" cy="19" r=".5" class="st4"/><circle cx="17.9" cy="19" r=".5" class="st4"/></g></g><path d="M36.9 38.2h-9.7c-.6 0-1.2-.5-1.2-1.2v-9.7c0-.6.5-1.2 1.2-1.2h9.7c.6 0 1.2.5 1.2 1.2V37c0 .6-.5 1.2-1.2 1.2zm-8.5-14.5v1.9m2.5-1.9v1.9m2.5-1.9v1.9m2.5-1.9v1.9m-7.5 13.1v1.8m2.5-1.8v1.8m2.5-1.8v1.8m2.5-1.8v1.8m-12.2-4.6h1.9m-1.9-2.5h1.9m-1.9-2.5h1.9m-1.9-2.6h1.9m13.1 7.6h1.8m-1.8-2.5h1.8m-1.8-2.5h1.8m-1.8-2.6h1.8" class="st5"/><path d="M28.7 29.5V35m1.6 0l.8-2 1.6-3.8h.7l2.1 5.8m-.7-2h-3.6" class="st5"/></svg>