<svg xmlns="http://www.w3.org/2000/svg" id="Camada_1" x="0" y="0" version="1.0" viewBox="0 0 50 50" xml:space="preserve"><style>.st1{fill:#444}</style><path fill="#fcc34f" d="M47 23.2c-.1-.6-2.1-5.9-2.5-6.4L42.1 14l.2-1-8.1-3.6-9.2-1c-2.5 0-19.7-7.4-21.8-2L3 25l7.3 2.5 2.1 7.6c.1.3 3.8 5.5 4 5.7l4.5 2.4 25.5-9.3c.5-.3 1.4-6.9.6-10.7z"/><path d="M16.6 18.7v-3.8c0-.6-.5-1.1-1.1-1.1-.6 0-1.1.5-1.1 1.1v8.5c.6-1.8 1.3-3.4 2.2-4.7zM6.4 17.1c-.6 0-1.1.5-1.1 1.1v2.5c0 .6.5 1.1 1.1 1.1s1.1-.5 1.1-1.1v-2.5c0-.6-.5-1.1-1.1-1.1zm6.1-2.2c-.6 0-1.1.5-1.1 1.1v6.9c0 .6.4 1.1 1 1.1s1.1-.5 1.1-1.1h.1V16c0-.6-.4-1.1-1.1-1.1zm-3 1.2c-.6 0-1.1.5-1.1 1.1v4.5c0 .6.5 1.1 1.1 1.1.6 0 1.1-.5 1.1-1.1v-4.5c-.1-.7-.5-1.1-1.1-1.1z" class="st1"/><path d="M20.8 13.4v1.1c.3-.2.5-.3.8-.5v-.6c0-.8-.5-1.5-1.2-1.7L8.1 8.1c-.5-.2-1-.1-1.5.2-.4.3-.7.8-.7 1.4v5.8c0 .2.2.4.4.4s.4-.2.4-.4V9.7c0-.3.2-.6.4-.8.3-.2.6-.2.8-.1l12.3 3.7c.3.2.6.5.6.9z" class="st1"/><circle cx="29.1" cy="27.2" r="15.1" fill="none" stroke="#444" stroke-linecap="round" stroke-miterlimit="10"/><path d="M20.8 20.1c-1.2 0-2.1 1-2.1 2.1v8.9c0 1.2.9 2.1 2.1 2.1 1.2 0 2.1-1 2.1-2.1v-8.9c0-1.2-.9-2.1-2.1-2.1zm11.9-4.5c-1.2 0-2.1 1-2.1 2.1v18c0 1.1.9 2.1 2 2.1 1.2 0 2.1-1 2.1-2.1h.1v-18c0-1.2-1-2.1-2.1-2.1zm-5.9 2.3c-1.2 0-2.1 1-2.1 2.1v13.5c0 1.2.8 2.1 2 2.1s2.1-1 2.1-2.1h.1V19.9c0-1.2-.9-2-2.1-2z" class="st1"/><path fill="none" stroke="#444" stroke-linecap="round" stroke-miterlimit="10" stroke-width="2.5" d="M23.4 8.5L6.2 3.2c-2.2 0-4 1.9-4 4.3L1.8 23c.1 2.4 4.2 2.6 7.2 3.6.6.2.7 1.7.7 2.3m19.4 17.6c-10.6 0-19.3-8.6-19.3-19.3M24 8.6c1.6-.4 3.3-.7 5.1-.7 10.6 0 19.3 8.6 19.3 19.3 0 3.1-.7 6-2 8.6"/><path d="M17.4 36.5l-9.2 6.6c-1.2.9-1.5 2.6-.5 3.8 1 1.2 2.9 1.2 3.9.1l8.4-7.7" class="st1"/></svg>