<svg xmlns="http://www.w3.org/2000/svg" viewBox="0 0 50 50"><defs><style>.cls-1{fill:none;stroke:#444;stroke-linecap:round;stroke-linejoin:round;fill-rule:evenodd}</style></defs><g id="Camada_1"><path fill="#319327" d="M27.6 19l7.9 2.4-6.7 4.8.1 8.2-6.6-4.9-7.8 2.6 2.7-7.8-4.9-6.6 8.2.2 4.7-6.7 2.4 7.8z"/><path fill="#5aba52" d="M44.7 12.9l-5.6-3.6-7.7-4.4-6-2.8C22.2 2.1 4 11 4 14.2L3.5 22 4 37.1l11.5 7.6 31-11c.7-.4-.8-18.7-1.8-20.7z"/><path fill="none" stroke="#444" stroke-linecap="round" stroke-linejoin="round" stroke-width="2.5" d="M30 46.6l-2.2 1.3c-1.7 1-3.8 1-5.5 0l-15.6-9C5 37.9 4 36.1 4 34.2v-18c0-2 1-3.8 2.7-4.7l15.6-9c1.7-1 3.8-1 5.5 0l15.6 9c1.7 1 2.7 2.8 2.7 4.7v18c0 2-1 3.8-2.7 4.7l-2.5 1.4"/><path fill="none" fill-rule="evenodd" stroke="#444" stroke-linecap="round" stroke-linejoin="round" stroke-width=".5" d="M38.8 20.5c.1.2 0 .4-.1.5-.2.1-.4 0-.5-.1l-4.5-7.7h-.1c-.5.1-1 0-1.5-.2h0c-.5-.3-.8-.7-.9-1.2-.1-.5 0-1 .2-1.4 0 0 0 0 0 0 .3-.5.7-.8 1.2-.9.5-.1 1 0 1.5.2.5.3.8.7.9 1.2.1.5 0 1-.2 1.5h0c-.1.2-.2.4-.4.5l4.5 7.7h0zm-28.5 3.2c.3.3.5.6.6 1 .1.5 0 1-.2 1.5h0c-.3.5-.7.8-1.2.9-.5.1-1 0-1.4-.2 0 0 0 0 0 0-.4-.3-.7-.7-.9-1.2-.1-.5 0-1 .2-1.4 0 0 0 0 0 0 .3-.4.7-.7 1.2-.9h1.1l4.5-7.7c.1-.2.3-.2.5-.1s.2.3.1.5l-4.5 7.7h0zm6.3-14.3c.5-.1 1 0 1.4.2 0 0 0 0 0 0 .5.3.8.7.9 1.2v.1h8.9c.2 0 .4.2.4.4s-.2.4-.4.4h-8.9c0 .2-.1.4-.2.6h0c-.3.5-.7.8-1.2.9-.5.1-1 0-1.5-.2h0c-.9-.5-1.2-1.7-.7-2.6.3-.5.7-.8 1.2-.9h0zM42 23.5s0 0 0 0c.4.3.7.7.9 1.2.1.5 0 1-.2 1.4 0 0 0 0 0 0h0c-.3.5-.7.8-1.2.9h-1.1l-4.5 7.7c-.1.2-.3.2-.5.1s-.2-.3-.1-.5l4.5-7.7c-.7-.6-.9-1.6-.4-2.4 0 0 0 0 0 0 .3-.4.7-.7 1.2-.9.5-.1 1 0 1.4.2h0zm-9.4 13.7c.5-.1 1 0 1.5.2h0c.5.3.8.7.9 1.2.1.5 0 1-.2 1.4 0 0 0 0 0 0-.3.5-.7.8-1.2.9-.5.1-1 0-1.4-.2 0 0 0 0 0 0h0c-.5-.3-.8-.7-.9-1.2v-.1h-8.9c-.2 0-.4-.2-.4-.4s.2-.4.4-.4h8.9c0-.2.1-.4.2-.6 0 0 0 0 0 0h0c.3-.5.7-.8 1.2-.9h0zm-16 0c.5-.1 1 0 1.4.2 0 0 0 0 0 0 .4.3.7.7.9 1.2.1.5 0 1-.2 1.4 0 0 0 0 0 0-.3.4-.7.7-1.2.9-.5.1-1 0-1.5-.2-.5-.3-.8-.7-.9-1.2-.1-.5 0-1 .2-1.5.1-.2.2-.4.4-.5l-4.5-7.7c-.1-.2 0-.4.1-.5.2-.1.4 0 .5.1l4.5 7.7h.1z"/><path d="M25.1 21.6c1 0 1.9.4 2.5 1 .6.6 1 1.5 1 2.5s-.4 1.9-1 2.5-1.5 1-2.5 1-1.9-.4-2.5-1c-.6-.6-1-1.5-1-2.5s.4-1.9 1-2.5 1.5-1 2.5-1z" class="cls-1"/><path d="M24.1 16c-.2 0-.4 0-.5.2-.1.1-.2.3-.2.5v1.5h-.1c-.3 0-.6.2-.9.3-.3.1-.6.3-.9.4l-1.1-.9c-.2-.1-.3-.2-.5-.2s-.4 0-.5.2l-1.3 1.3c-.1.1-.2.3-.2.5s0 .4.2.5l.9 1.1c-.2.3-.3.6-.4.9l-.3.9h-1.5c-.2.2-.4.2-.5.4-.1.1-.2.3-.2.5V26c0 .2 0 .4.2.5.1.1.3.2.5.2h1.5v.1c0 .3.2.6.3.9.1.3.3.6.4.9l-.9 1.1c-.1.2-.2.3-.2.5s0 .4.2.5l1.3 1.3c.1.1.3.2.5.2s.4 0 .5-.2l1.1-.9c.3.2.6.3.9.4l.9.3v1.5c.2.2.2.4.4.5.1.1.3.2.5.2h1.9c.2 0 .4 0 .5-.2.1-.1.2-.3.2-.5v-1.5h.1c.3 0 .6-.2.9-.3.3-.1.6-.3.9-.4l1.1.9c.2.1.3.2.5.2s.4 0 .5-.2l1.3-1.3c.1-.1.2-.3.2-.5s0-.4-.2-.5l-.9-1.1c.2-.3.3-.6.4-.9l.3-.9h1.5c.2-.2.4-.2.5-.4.1-.1.2-.3.2-.5V24c0-.2 0-.4-.2-.5-.1-.1-.3-.2-.5-.2h-1.5v-.1c0-.3-.2-.6-.3-.9-.1-.3-.3-.6-.4-.9l.9-1.1c.1-.2.2-.3.2-.5s0-.4-.2-.5L30.8 18c-.1-.1-.3-.2-.5-.2s-.4 0-.5.2l-1.1.9c-.3-.2-.6-.3-.9-.4l-.9-.3v-1.5c-.2-.2-.2-.4-.4-.5-.1-.1-.3-.2-.5-.2h-1.9z" class="cls-1"/></g></svg>