<svg xmlns="http://www.w3.org/2000/svg" viewBox="0 0 42.88 48.62"><path fill="#2bdefd" d="M0 13.6v21.43c0 1.03.55 1.98 1.44 2.49L20 48.24c.89.51 1.99.51 2.88 0l18.56-10.72c.89-.51 1.44-1.46 1.44-2.49V13.6c0-1.03-.55-1.98-1.44-2.49L22.88.39c-.89-.51-1.99-.51-2.88 0L1.44 11.1C.55 11.61 0 12.56 0 13.59z"/><path fill="#fff" d="M21.44 35.56c-.42 0-.84-.11-1.21-.32l-7.66-4.42a2.432 2.432 0 01-1.21-2.09v-8.84c0-.86.46-1.66 1.21-2.09l7.66-4.42c.37-.21.78-.32 1.21-.32s.84.11 1.21.32l7.66 4.42c.74.43 1.21 1.23 1.21 2.09v8.84c0 .86-.46 1.66-1.21 2.09l-7.66 4.42c-.37.21-.78.32-1.21.32z"/><path d="M21.44 13.31c.38 0 .75.1 1.08.29l4.18 2.42 3.47 2c.67.38 1.08 1.1 1.08 1.87v8.84c0 .77-.41 1.49-1.08 1.87l-3.54 2.04-4.11 2.37a2.158 2.158 0 01-2.16 0l-7.65-4.42a2.15 2.15 0 01-1.08-1.87v-8.84c0-.77.41-1.49 1.08-1.87l7.65-4.42c.33-.19.7-.29 1.08-.29m0-.49c-.46 0-.92.12-1.33.36l-7.65 4.42c-.82.48-1.33 1.35-1.33 2.3v8.84c0 .95.51 1.83 1.33 2.3l7.65 4.42a2.632 2.632 0 002.66 0l4.11-2.37 3.54-2.04c.82-.48 1.33-1.35 1.33-2.3V19.9c0-.95-.51-1.83-1.33-2.3l-3.47-2-4.18-2.42c-.41-.24-.87-.36-1.33-.36z"/><path d="M21.44 13.31c.38 0 .75.1 1.08.29l4.18 2.42 3.47 2c.67.38 1.08 1.1 1.08 1.87v8.84c0 .77-.41 1.49-1.08 1.87l-3.54 2.04-4.11 2.37a2.158 2.158 0 01-2.16 0l-7.65-4.42a2.15 2.15 0 01-1.08-1.87v-8.84c0-.77.41-1.49 1.08-1.87l7.65-4.42c.33-.19.7-.29 1.08-.29m0-.49c-.46 0-.92.12-1.33.36l-7.65 4.42c-.82.48-1.33 1.35-1.33 2.3v8.84c0 .95.51 1.83 1.33 2.3l7.65 4.42a2.632 2.632 0 002.66 0l4.11-2.37 3.54-2.04c.82-.48 1.33-1.35 1.33-2.3V19.9c0-.95-.51-1.83-1.33-2.3l-3.47-2-4.18-2.42c-.41-.24-.87-.36-1.33-.36z"/><path fill="#1875e9" d="M20.56 14.49l-7.2 4.12c-.34.19-.34.68 0 .88l7.38 4.2c.13.07.28.07.41 0l8.16-4.48c.29-.16.29-.58 0-.74l-6.97-3.99a1.77 1.77 0 00-1.78 0z"/><path fill="#dbe4ef" d="M12.39 20.67v7.56c0 .6.31 1.16.82 1.47l6.65 3.98c.27.16.62-.03.62-.35l.09-8.42c0-.15-.08-.3-.21-.37L13.1 20.3c-.28-.16-.71.04-.71.36z"/><path fill="#fff" stroke="#fff" stroke-miterlimit="10" stroke-width="3" d="M28.45 18.47l-2.89-1.67-12.91 7.05v3.74c0 .97.52 1.88 1.37 2.37L15.83 31l13.32-7.27.68-.87v-2.02c0-.98-.52-1.88-1.37-2.37z"/><path d="M21.44 13.31c.38 0 .75.1 1.08.29l4.18 2.42 3.47 2c.67.38 1.08 1.1 1.08 1.87v8.84c0 .77-.41 1.49-1.08 1.87l-3.54 2.04-4.11 2.37a2.158 2.158 0 01-2.16 0l-7.65-4.42a2.15 2.15 0 01-1.08-1.87v-8.84c0-.77.41-1.49 1.08-1.87l7.65-4.42c.33-.19.7-.29 1.08-.29m0-.49c-.46 0-.92.12-1.33.36l-7.65 4.42c-.82.48-1.33 1.35-1.33 2.3v8.84c0 .95.51 1.83 1.33 2.3l7.65 4.42a2.632 2.632 0 002.66 0l4.11-2.37 3.54-2.04c.82-.48 1.33-1.35 1.33-2.3V19.9c0-.95-.51-1.83-1.33-2.3l-3.47-2-4.18-2.42c-.41-.24-.87-.36-1.33-.36z"/><path fill="#fff" d="M10.45 33.11c-.82 0-1.66-.55-2.12-1.41l-.88-1.62c-.32-.58-.43-1.23-.32-1.82.11-.58.42-1.04.88-1.29L27.7 16.22l5.02-.45 2.71-.25c.15 0 .26.07.31.18.05.11.04.24-.04.33l-4.8 6.16-19.65 10.72c-.24.13-.51.2-.79.2z"/><path d="M35.44 15.39v.25c.11 0 .16.08.17.11.02.03.05.12-.02.2l-1.67 2.15-3.1 3.97-15.49 8.46-2.39 1.31-1.76.96c-.22.12-.47.18-.73.18-.78 0-1.57-.53-2.01-1.35l-.88-1.62c-.3-.56-.41-1.17-.31-1.74.1-.54.39-.97.82-1.2l1.76-.96 2.39-1.31 15.49-8.46 5.02-.46 2.71-.25.02-.25m-.02.01h-.04l-2.71.25-5.07.46-15.54 8.48-2.39 1.31-1.76.96c-1.02.56-1.29 2.03-.6 3.28l.88 1.62c.51.93 1.39 1.48 2.23 1.48.3 0 .59-.07.85-.21l1.76-.96 2.39-1.31 15.54-8.48 3.13-4.01 1.67-2.15c.23-.29.01-.72-.35-.72z"/><path fill="none" stroke="#000" stroke-linecap="round" stroke-linejoin="round" stroke-width=".5" d="M15.45 30.75l15.54-8.48-1.68-3.08-15.52 8.47 15.52-8.47-1.69-3.08-15.53 8.48 3.36 6.16zm-7.52-3.89c-1.02.56-1.29 2.03-.6 3.28l.88 1.62c.69 1.26 2.07 1.82 3.09 1.27l1.76-.96-3.37-6.16-1.76.96z"/><path fill="none" stroke="#000" stroke-linecap="round" stroke-linejoin="round" stroke-width=".5" d="M9.69 25.891l2.396-1.308 3.365 6.161-2.396 1.309z"/><path stroke="#000" stroke-linecap="round" stroke-linejoin="round" stroke-width=".5" d="M35.48 15.39l-2.79.25 1.43 2.61 1.72-2.21a.41.41 0 00-.36-.66z"/><path fill="none" stroke="#000" stroke-linecap="round" stroke-linejoin="round" stroke-width=".5" d="M30.99 22.27l3.13-4.01-1.43-2.62-5.07.47 3.37 6.16z"/></svg>