<svg xmlns="http://www.w3.org/2000/svg" viewBox="0 0 50 50"><path fill="#319327" d="M27 19.8l7.8 2.4-6.7 4.8.1 8.2-6.5-4.9-7.8 2.6 2.6-7.8-4.9-6.5 8.2.1 4.8-6.7 2.4 7.8z"/><path fill="#5aba52" d="M48.1 28.9c.5-8.9-5.9-14.4-6.2-14.7l-7.3-3.8L27.3 4 15.7 2.9 8.8 7.8c-1.9 0-11.3 12.2-3.4 23L3 37.4l6.4-2 6.2 2.5c0 .2 6.4 4.7 6.6 4.8l3.4 1.8 19.5-7.1c.4-.2 2.8-5.6 3-8.5z"/><path fill="none" stroke="#444" stroke-linecap="round" stroke-linejoin="round" stroke-width="2.5" d="M44.7 37.8c2-2.9 3.2-6.4 3.2-10.2 0-8.3-5.7-15.3-13.3-17.3C31.4 5.7 26 2.7 20 2.7c-9.8.1-17.8 8.1-17.8 17.9s1.2 7.3 3.2 10.2L3 36.6c-.3.7.4 1.4 1.1 1.1l5.7-2.5c1.7 1.2 3.7 2.1 5.8 2.7h0c3.2 4.6 8.6 7.6 14.6 7.6s3.5-.3 5.2-.8"/><path fill="none" stroke="#444" stroke-linecap="round" stroke-linejoin="round" d="M14.7 36.9c1.2.3 3.5 1 5.7.9 9.7-.5 16.8-7.5 16.8-17.2s-1.9-8-3.8-10.7"/></svg>