<svg xmlns="http://www.w3.org/2000/svg" id="Layer_1" version="1.1" viewBox="0 0 50 50"><defs><style>.st0,.st2{fill:none;stroke:#444;stroke-linecap:round;stroke-linejoin:round}.st2{stroke-width:.5px}</style></defs><path fill="#35d3c3" d="M29.8 18.5l7.8 2.4-6.7 4.8.1 8.2-6.6-4.9-7.7 2.6 2.6-7.8-4.9-6.5 8.2.1 4.7-6.7 2.5 7.8z"/><path fill="#7df4eb" d="M45.4 24.5c-1 .3-3.1 3-4.3 3.4s-1-.3-1-.7l.3-4c.3-.5 4.5-3.3 3.9-3.5-6-2.6-7.5-5.9-7.4-6l.3-5-8.7.7c-.3-.9-3.3-4.1-3.8-4.2-2.7-.7 2.6 4.5-5.8 5.6s-5.8.3-5.8.1l1.9 3.8c.1-.5-1.2 6.1-1.7 6.3l-4.1 3c-.2 0 5.2 1.2 3.4.7s1.8 3.8 1.6 4.3l-6.9 5.8c-4-2.3-5 1.2-4.6 1.6 1.9 2.7 8.5 10 9 9.8l28.7-10.4c.8-.7 7.1-6 6.7-8.2s-1.6-3.3-2-3.2h.2z"/><path d="M17.4 28.7s4.3-1.6 6-1c5.2 1.8 4.9 1.7 9.2 2.7 0 0 3.3.8 2.5 3.4s-4.3 1-4.3 1l-6.4-1.6" class="st0"/><path d="M19.6 25c-.4-.9-.7-1.9-.7-3 0-2 .7-4 2.1-5.4.7-.7 1.5-1.3 2.4-1.7s1.9-.7 3-.7c2 0 4 .7 5.4 2.1 1.5 1.4 2.3 3.3 2.4 5.3 0 2-.7 4-2.1 5.4" class="st2"/><path fill="none" stroke="#444" stroke-linecap="round" stroke-linejoin="round" stroke-width="2.5" d="M34.6 41.7c-.7.7-1.7 1.1-2.7 1.1l-16 .6c.3.8 0 1.5-1 2.4s-.3.2-.4.3c-1.4.9-3.3.5-4.4-.7L3 38.2c-1-1-1.2-2.7-.2-3.9h0c.6-.7 1.4-.8 2.1-.8s1.4.3 2 .8c1.2-.9 4.6-3.4 8.1-5.2-.3-.8-1.6-3.8-2.4-3.9H9.5c0-.1-.3-2.7-.3-2.7l3-.8c.8-.2 1.4-.9 1.6-1.7.2-1.2.5-2.4 1-3.5s.2-1.7-.4-2.4l-2.1-2.2 1.6-2 2.7 1.6c.7.4 1.7.4 2.3-.1 1-.7 2-1.3 3.1-1.7.8-.3 1.3-1 1.4-1.9V4.7c.1 0 2.7-.3 2.7-.3l.8 3c.2.8.9 1.4 1.7 1.5 1.1.2 2.2.5 3.3.9 1.1.4 1.7.2 2.3-.4l2.3-2.1 2 1.6-1.5 2.5c-.4.7-.4 1.6 0 2.3.8 1.1 1.5 2.3 2 3.6.5 1.3 1 1.4 1.9 1.4H44c0 .1.3 2.7.3 2.7l-3.1.8c-.8.2-1.8 1.1-.5 4.9l2.5-1.9c.6-.4 1.3-.7 2-.7s1.6.2 2.1.8c.2.2.3.4.4.7.5 1.2.2 2.6-.8 3.5l-6.3 6.1"/><path d="M8 36.2l5.7 5.7" class="st2"/><path d="M35.1 32.1l4.2-3" class="st0"/></svg>