<svg xmlns="http://www.w3.org/2000/svg" viewBox="0 0 50 50"><path fill="#00dffc" d="M44.7 12.4L39 8.8l-7.7-4.4-6-2.8C22.2 1.5 4 10.5 4 13.7l-.5 7.8.5 15.1 11.5 7.6 31-11c.7-.5-.8-18.8-1.8-20.8z"/><path fill="none" stroke="#444" stroke-linecap="round" stroke-linejoin="round" stroke-miterlimit="10" stroke-width="2.5" d="M29.9 46.5l-2.2 1.3c-1.7 1-3.8 1-5.5 0l-15.6-9C5 37.8 4 36 4 34V16c0-2 1-3.8 2.7-4.7l15.6-9c1.7-1 3.8-1 5.5 0l15.6 9C45 12.3 46 14 46 16v18c0 2-1 3.8-2.7 4.7l-2.5 1.4"/><path fill="none" stroke="#444" stroke-linecap="round" stroke-linejoin="round" stroke-miterlimit="10" d="M26.8 43.5s-7.6-5.1-3.2-27.3m-.3 21.2s-6.6-2.8-6.7-9.5c0 0 2.5 1.4 3.2.9-1.1-1.3-3.3-4.1-3.3-4.1S15.2 11 27.4 6.5c1.4 4.4 2.1 6.3 1.8 9.6s0 3.9-3 6.4c1.4.1 1.4.6 3.5-1.1 0 2.1.7 8.4-4.5 10.7 0 0 .1 1.4 3 .3-.7 2.4-.8 2.4-4.9 5zm-3.1-18.3s-.8.1-2.5-2.9m8.4-3.1s2.6-2.3 2.3-3.3"/></svg>