<svg xmlns="http://www.w3.org/2000/svg" viewBox="0 0 50 50"><path fill="#7df4eb" d="M47.5 7.9H33.7c-.1 0-.2-.1-.2-.2V4.6c0-.1-.1-.2-.2-.2L16.7 9.2c-.1 0-.2-.1-.2-.2V7.4c0-.7-.6-1.4-1.4-1.4h-2.3c-.1 0-.2-.1-.2-.2V2.5c0-.1-.1-.2-.2-.2H6.2c-.1 0-.2.1-.2.2v4.3c.1.1 0 .2-.1.2H2.3c-.1 0-.1.1-.1.2v7.1c0 .1.1.2.2.2h3.5c.1 0 .2.1.2.2v4.1c0 .1.1.2.2.2h3c.1 0 .2.1.2.2v23.5c0 .1.1.2.1.2l12.8 3.5 25.3-9V8.1c0-.1-.1-.2-.2-.2z"/><path fill="none" stroke="#444" stroke-linecap="round" stroke-linejoin="round" stroke-miterlimit="10" stroke-width="2.538" d="M30.7 48.4L9.4 42.7c-.1 0-.1-.1-.1-.2V19c0-.1-.1-.2-.2-.2h-3c-.1 0-.2-.1-.2-.2v-4.1c0-.1-.1-.2-.2-.2H2.2c-.1 0-.2-.1-.2-.2v-7c0-.1.1-.2.2-.2h3.5c.1 0 .2-.1.2-.2V2.4c0-.1.1-.2.2-.2h6.2c.1 0 .2.1.2.2v3.4c0 .1.1.2.2.2H15c.7 0 1.4.6 1.4 1.4V9c0 .1.1.2.2.2l16.6-4.7c.1 0 .2.1.2.2v3.1c0 .1.1.2.2.2h13.8c.1 0 .2.1.2.2v33.4"/><path fill="#444" d="M42.8 11.6H32.6v-.7c0-.4-.2-.8-.5-1.1s-.8-.3-1.2-.2l-16.3 4.7c-.6.2-1 .7-1 1.3v24.2c0 .6.4 1.1 1 1.3l16.3 4.7c.1 0 .3.1.4.1.3 0 .6-.1.8-.3.3-.3.5-.7.5-1.1v-.7h10.3c.7 0 1.4-.6 1.4-1.4V13c-.1-.8-.7-1.4-1.5-1.4zM31.4 44.5c0 .1 0 .1-.1.2 0 0-.1.1-.2 0L14.8 40c-.1 0-.1-.1-.1-.2V15.6c0-.1.1-.2.1-.2l16.3-4.7h.2s.1.1.1.2v33.6zM43 42.4c0 .1-.1.2-.2.2H32.6v-2.7h6.8c.3 0 .6-.3.6-.6s-.3-.6-.6-.6h-6.8v-3.5h6.8c.3 0 .6-.3.6-.6s-.3-.6-.6-.6h-6.8v-3.5h6.8c.3 0 .6-.3.6-.6s-.3-.6-.6-.6h-6.8v-3.5h6.8c.3 0 .6-.3.6-.6s-.3-.6-.6-.6h-6.8v-3.5h6.8c.3 0 .6-.3.6-.6s-.3-.6-.6-.6h-6.8v-3.5h6.8c.3 0 .6-.3.6-.6s-.3-.6-.6-.6h-6.8v-2.7h10.3c.1 0 .2.1.2.2L43 42.4zM26 29.8c.2.2.2.6 0 .8-.1.1-.3.2-.4.2s-.3-.1-.4-.2l-2.1-2.1-2 2.2c-.1.2-.3.3-.4.3-.1 0-.3 0-.4-.1-.2-.2-.3-.6-.1-.8l2-2.3-2.2-2.1c-.2-.2-.2-.6 0-.8.2-.2.6-.2.8 0l2.1 2.1 2-2.2c.2-.2.6-.3.8-.1.2.2.3.6.1.8l-2 2.3 2.2 2zM14 10H9.9V6c0-.1-.1-.2-.2-.2h-.6c-.1 0-.2.1-.2.2v4H4.7c-.1 0-.2.1-.2.2v.5c0 .1.1.2.2.2h4.1v3.9c0 .1.1.2.2.2h.5c.1 0 .2-.1.2-.2V11H14c.1 0 .2-.1.2-.2v-.5c0-.2-.1-.3-.2-.3z"/></svg>